0, 0, Header, 1, 16, 96
1, 0, Start_track
1, 0, Title_t, "OnceInALifetime"
1, 0, Time_signature, 4, 2, 24, 8
1, 0, Tempo, 507663
1, 0, Key_signature, 0, "major"
1, 0, Program_c, 0, 33
1, 24, Control_c, 0, 1, 0
1, 48, Control_c, 0, 7, 100
1, 72, Control_c, 0, 10, 65
1, 96, Control_c, 0, 11, 127
1, 120, Control_c, 0, 91, 0
1, 144, Pitch_bend_c, 0, 8192
1, 168, Control_c, 0, 100, 0
1, 192, Control_c, 0, 101, 0
1, 216, Control_c, 0, 6, 12
1, 240, Control_c, 0, 38, 0
1, 384, Pitch_bend_c, 0, 8192
1, 672, Note_on_c, 0, 45, 127
1, 710, Pitch_bend_c, 0, 7936
1, 712, Pitch_bend_c, 0, 7744
1, 713, Pitch_bend_c, 0, 7264
1, 715, Pitch_bend_c, 0, 6912
1, 716, Pitch_bend_c, 0, 6496
1, 718, Pitch_bend_c, 0, 6048
1, 719, Pitch_bend_c, 0, 5664
1, 720, Pitch_bend_c, 0, 5184
1, 722, Pitch_bend_c, 0, 4992
1, 723, Pitch_bend_c, 0, 4512
1, 725, Pitch_bend_c, 0, 4032
1, 726, Pitch_bend_c, 0, 3616
1, 728, Pitch_bend_c, 0, 3136
1, 729, Pitch_bend_c, 0, 2720
1, 731, Pitch_bend_c, 0, 2112
1, 732, Pitch_bend_c, 0, 1856
1, 734, Pitch_bend_c, 0, 1440
1, 735, Pitch_bend_c, 0, 960
1, 737, Pitch_bend_c, 0, 480
1, 738, Pitch_bend_c, 0, 64
1, 740, Pitch_bend_c, 0, 0
1, 747, Note_off_c, 0, 45, 99
1, 768, Note_on_c, 0, 28, 120
1, 776, Pitch_bend_c, 0, 640
1, 777, Pitch_bend_c, 0, 1856
1, 779, Pitch_bend_c, 0, 3744
1, 780, Pitch_bend_c, 0, 8192
1, 816, Note_on_c, 0, 33, 120
1, 821, Note_off_c, 0, 28, 108
1, 840, Note_off_c, 0, 33, 103
1, 864, Note_on_c, 0, 33, 120
1, 914, Note_off_c, 0, 33, 54
1, 1152, Note_on_c, 0, 33, 120
1, 1200, Note_on_c, 0, 30, 120
1, 1205, Note_off_c, 0, 33, 88
1, 1220, Note_off_c, 0, 30, 113
1, 1248, Note_on_c, 0, 30, 120
1, 1299, Note_off_c, 0, 30, 88
1, 1536, Note_on_c, 0, 28, 115
1, 1584, Note_on_c, 0, 33, 120
1, 1590, Note_off_c, 0, 28, 108
1, 1607, Note_off_c, 0, 33, 86
1, 1632, Note_on_c, 0, 33, 120
1, 1681, Note_off_c, 0, 33, 39
1, 1920, Note_on_c, 0, 33, 120
1, 1968, Note_on_c, 0, 30, 120
1, 1971, Note_off_c, 0, 33, 56
1, 1986, Note_off_c, 0, 30, 120
1, 2016, Note_on_c, 0, 30, 120
1, 2066, Note_off_c, 0, 30, 63
1, 2304, Note_on_c, 0, 28, 120
1, 2352, Note_on_c, 0, 33, 120
1, 2355, Note_off_c, 0, 28, 113
1, 2372, Note_off_c, 0, 33, 84
1, 2400, Note_on_c, 0, 33, 120
1, 2453, Note_off_c, 0, 33, 35
1, 2688, Note_on_c, 0, 33, 120
1, 2736, Note_on_c, 0, 30, 120
1, 2744, Note_off_c, 0, 33, 58
1, 2755, Note_off_c, 0, 30, 108
1, 2784, Note_on_c, 0, 30, 120
1, 2830, Note_off_c, 0, 30, 79
1, 3072, Note_on_c, 0, 28, 120
1, 3120, Note_on_c, 0, 33, 120
1, 3123, Note_off_c, 0, 28, 99
1, 3143, Note_off_c, 0, 33, 99
1, 3168, Note_on_c, 0, 33, 120
1, 3218, Note_off_c, 0, 33, 46
1, 3456, Note_on_c, 0, 33, 120
1, 3504, Note_on_c, 0, 30, 120
1, 3512, Note_off_c, 0, 33, 99
1, 3532, Note_off_c, 0, 30, 111
1, 3552, Note_on_c, 0, 30, 120
1, 3604, Note_off_c, 0, 30, 90
1, 3840, Note_on_c, 0, 28, 120
1, 3848, Pitch_bend_c, 0, 640
1, 3849, Pitch_bend_c, 0, 1856
1, 3851, Pitch_bend_c, 0, 3744
1, 3852, Pitch_bend_c, 0, 8192
1, 3888, Note_on_c, 0, 33, 120
1, 3893, Note_off_c, 0, 28, 108
1, 3912, Note_off_c, 0, 33, 103
1, 3936, Note_on_c, 0, 33, 120
1, 3986, Note_off_c, 0, 33, 54
1, 4224, Note_on_c, 0, 33, 120
1, 4272, Note_on_c, 0, 30, 120
1, 4277, Note_off_c, 0, 33, 88
1, 4292, Note_off_c, 0, 30, 113
1, 4320, Note_on_c, 0, 30, 120
1, 4371, Note_off_c, 0, 30, 88
1, 4608, Note_on_c, 0, 28, 115
1, 4656, Note_on_c, 0, 33, 120
1, 4662, Note_off_c, 0, 28, 108
1, 4679, Note_off_c, 0, 33, 86
1, 4704, Note_on_c, 0, 33, 120
1, 4753, Note_off_c, 0, 33, 39
1, 4992, Note_on_c, 0, 33, 120
1, 5040, Note_on_c, 0, 30, 120
1, 5043, Note_off_c, 0, 33, 56
1, 5058, Note_off_c, 0, 30, 120
1, 5088, Note_on_c, 0, 30, 120
1, 5138, Note_off_c, 0, 30, 63
1, 5376, Note_on_c, 0, 28, 120
1, 5424, Note_on_c, 0, 33, 120
1, 5427, Note_off_c, 0, 28, 113
1, 5444, Note_off_c, 0, 33, 84
1, 5472, Note_on_c, 0, 33, 120
1, 5525, Note_off_c, 0, 33, 35
1, 5760, Note_on_c, 0, 33, 120
1, 5808, Note_on_c, 0, 30, 120
1, 5816, Note_off_c, 0, 33, 58
1, 5827, Note_off_c, 0, 30, 108
1, 5856, Note_on_c, 0, 30, 120
1, 5902, Note_off_c, 0, 30, 79
1, 6144, Note_on_c, 0, 28, 120
1, 6192, Note_on_c, 0, 33, 120
1, 6195, Note_off_c, 0, 28, 99
1, 6215, Note_off_c, 0, 33, 99
1, 6240, Note_on_c, 0, 33, 120
1, 6290, Note_off_c, 0, 33, 46
1, 6528, Note_on_c, 0, 33, 120
1, 6576, Note_on_c, 0, 30, 120
1, 6584, Note_off_c, 0, 33, 99
1, 6604, Note_off_c, 0, 30, 111
1, 6624, Note_on_c, 0, 30, 120
1, 6676, Note_off_c, 0, 30, 90
1, 6912, Note_on_c, 0, 28, 120
1, 6960, Note_on_c, 0, 33, 120
1, 6963, Note_off_c, 0, 28, 113
1, 6980, Note_off_c, 0, 33, 84
1, 7008, Note_on_c, 0, 33, 120
1, 7061, Note_off_c, 0, 33, 35
1, 7296, Note_on_c, 0, 33, 120
1, 7344, Note_on_c, 0, 30, 120
1, 7352, Note_off_c, 0, 33, 58
1, 7363, Note_off_c, 0, 30, 108
1, 7392, Note_on_c, 0, 30, 120
1, 7438, Note_off_c, 0, 30, 79
1, 7680, Note_on_c, 0, 28, 120
1, 7728, Note_on_c, 0, 33, 120
1, 7731, Note_off_c, 0, 28, 99
1, 7751, Note_off_c, 0, 33, 99
1, 7776, Note_on_c, 0, 33, 120
1, 7826, Note_off_c, 0, 33, 46
1, 8064, Note_on_c, 0, 33, 120
1, 8112, Note_on_c, 0, 30, 120
1, 8120, Note_off_c, 0, 33, 99
1, 8140, Note_off_c, 0, 30, 111
1, 8160, Note_on_c, 0, 30, 120
1, 8212, Note_off_c, 0, 30, 90
1, 8448, Note_on_c, 0, 28, 120
1, 8456, Pitch_bend_c, 0, 640
1, 8457, Pitch_bend_c, 0, 1856
1, 8459, Pitch_bend_c, 0, 3744
1, 8460, Pitch_bend_c, 0, 8192
1, 8496, Note_on_c, 0, 33, 120
1, 8501, Note_off_c, 0, 28, 108
1, 8520, Note_off_c, 0, 33, 103
1, 8544, Note_on_c, 0, 33, 120
1, 8594, Note_off_c, 0, 33, 54
1, 8832, Note_on_c, 0, 33, 120
1, 8880, Note_on_c, 0, 30, 120
1, 8885, Note_off_c, 0, 33, 88
1, 8900, Note_off_c, 0, 30, 113
1, 8928, Note_on_c, 0, 30, 120
1, 8979, Note_off_c, 0, 30, 88
1, 9216, Note_on_c, 0, 28, 115
1, 9264, Note_on_c, 0, 33, 120
1, 9270, Note_off_c, 0, 28, 108
1, 9287, Note_off_c, 0, 33, 86
1, 9312, Note_on_c, 0, 33, 120
1, 9361, Note_off_c, 0, 33, 39
1, 9600, Note_on_c, 0, 33, 120
1, 9648, Note_on_c, 0, 30, 120
1, 9651, Note_off_c, 0, 33, 56
1, 9666, Note_off_c, 0, 30, 120
1, 9696, Note_on_c, 0, 30, 120
1, 9746, Note_off_c, 0, 30, 63
1, 9984, Note_on_c, 0, 28, 120
1, 10032, Note_on_c, 0, 33, 120
1, 10035, Note_off_c, 0, 28, 113
1, 10052, Note_off_c, 0, 33, 84
1, 10080, Note_on_c, 0, 33, 120
1, 10133, Note_off_c, 0, 33, 35
1, 10368, Note_on_c, 0, 33, 120
1, 10416, Note_on_c, 0, 30, 120
1, 10424, Note_off_c, 0, 33, 58
1, 10435, Note_off_c, 0, 30, 108
1, 10464, Note_on_c, 0, 30, 120
1, 10510, Note_off_c, 0, 30, 79
1, 10752, Note_on_c, 0, 28, 120
1, 10800, Note_on_c, 0, 33, 120
1, 10803, Note_off_c, 0, 28, 99
1, 10823, Note_off_c, 0, 33, 99
1, 10848, Note_on_c, 0, 33, 120
1, 10898, Note_off_c, 0, 33, 46
1, 11136, Note_on_c, 0, 33, 120
1, 11184, Note_on_c, 0, 30, 120
1, 11192, Note_off_c, 0, 33, 99
1, 11212, Note_off_c, 0, 30, 111
1, 11232, Note_on_c, 0, 30, 120
1, 11284, Note_off_c, 0, 30, 90
1, 11520, Note_on_c, 0, 28, 120
1, 11528, Pitch_bend_c, 0, 640
1, 11529, Pitch_bend_c, 0, 1856
1, 11531, Pitch_bend_c, 0, 3744
1, 11532, Pitch_bend_c, 0, 8192
1, 11568, Note_on_c, 0, 33, 120
1, 11573, Note_off_c, 0, 28, 108
1, 11592, Note_off_c, 0, 33, 103
1, 11616, Note_on_c, 0, 33, 120
1, 11666, Note_off_c, 0, 33, 54
1, 11904, Note_on_c, 0, 33, 120
1, 11952, Note_on_c, 0, 30, 120
1, 11957, Note_off_c, 0, 33, 88
1, 11972, Note_off_c, 0, 30, 113
1, 12000, Note_on_c, 0, 30, 120
1, 12051, Note_off_c, 0, 30, 88
1, 12288, Note_on_c, 0, 28, 115
1, 12336, Note_on_c, 0, 33, 120
1, 12342, Note_off_c, 0, 28, 108
1, 12359, Note_off_c, 0, 33, 86
1, 12384, Note_on_c, 0, 33, 120
1, 12433, Note_off_c, 0, 33, 39
1, 12672, Note_on_c, 0, 33, 120
1, 12720, Note_on_c, 0, 30, 120
1, 12723, Note_off_c, 0, 33, 56
1, 12738, Note_off_c, 0, 30, 120
1, 12768, Note_on_c, 0, 30, 120
1, 12818, Note_off_c, 0, 30, 63
1, 13056, Note_on_c, 0, 28, 120
1, 13104, Note_on_c, 0, 33, 120
1, 13107, Note_off_c, 0, 28, 113
1, 13124, Note_off_c, 0, 33, 84
1, 13152, Note_on_c, 0, 33, 120
1, 13205, Note_off_c, 0, 33, 35
1, 13440, Note_on_c, 0, 33, 120
1, 13488, Note_on_c, 0, 30, 120
1, 13496, Note_off_c, 0, 33, 58
1, 13507, Note_off_c, 0, 30, 108
1, 13536, Note_on_c, 0, 30, 120
1, 13582, Note_off_c, 0, 30, 79
1, 13824, Note_on_c, 0, 28, 120
1, 13872, Note_on_c, 0, 33, 120
1, 13875, Note_off_c, 0, 28, 99
1, 13895, Note_off_c, 0, 33, 99
1, 13920, Note_on_c, 0, 33, 120
1, 13970, Note_off_c, 0, 33, 46
1, 14208, Note_on_c, 0, 33, 120
1, 14256, Note_on_c, 0, 30, 120
1, 14264, Note_off_c, 0, 33, 99
1, 14284, Note_off_c, 0, 30, 111
1, 14304, Note_on_c, 0, 30, 120
1, 14356, Note_off_c, 0, 30, 90
1, 14592, Note_on_c, 0, 28, 120
1, 14600, Pitch_bend_c, 0, 640
1, 14601, Pitch_bend_c, 0, 1856
1, 14603, Pitch_bend_c, 0, 3744
1, 14604, Pitch_bend_c, 0, 8192
1, 14640, Note_on_c, 0, 33, 120
1, 14645, Note_off_c, 0, 28, 108
1, 14664, Note_off_c, 0, 33, 103
1, 14688, Note_on_c, 0, 33, 120
1, 14738, Note_off_c, 0, 33, 54
1, 14976, Note_on_c, 0, 33, 120
1, 15024, Note_on_c, 0, 30, 120
1, 15029, Note_off_c, 0, 33, 88
1, 15044, Note_off_c, 0, 30, 113
1, 15072, Note_on_c, 0, 30, 120
1, 15123, Note_off_c, 0, 30, 88
1, 15360, Note_on_c, 0, 28, 115
1, 15408, Note_on_c, 0, 33, 120
1, 15414, Note_off_c, 0, 28, 108
1, 15431, Note_off_c, 0, 33, 86
1, 15456, Note_on_c, 0, 33, 120
1, 15505, Note_off_c, 0, 33, 39
1, 15744, Note_on_c, 0, 33, 120
1, 15792, Note_on_c, 0, 30, 120
1, 15795, Note_off_c, 0, 33, 56
1, 15810, Note_off_c, 0, 30, 120
1, 15840, Note_on_c, 0, 30, 120
1, 15890, Note_off_c, 0, 30, 63
1, 16128, Note_on_c, 0, 28, 120
1, 16176, Note_on_c, 0, 33, 120
1, 16179, Note_off_c, 0, 28, 113
1, 16196, Note_off_c, 0, 33, 84
1, 16224, Note_on_c, 0, 33, 120
1, 16277, Note_off_c, 0, 33, 35
1, 16512, Note_on_c, 0, 33, 120
1, 16560, Note_on_c, 0, 30, 120
1, 16568, Note_off_c, 0, 33, 58
1, 16579, Note_off_c, 0, 30, 108
1, 16608, Note_on_c, 0, 30, 120
1, 16654, Note_off_c, 0, 30, 79
1, 16896, Note_on_c, 0, 28, 120
1, 16944, Note_on_c, 0, 33, 120
1, 16947, Note_off_c, 0, 28, 99
1, 16967, Note_off_c, 0, 33, 99
1, 16992, Note_on_c, 0, 33, 120
1, 17042, Note_off_c, 0, 33, 46
1, 17280, Note_on_c, 0, 33, 120
1, 17328, Note_on_c, 0, 30, 120
1, 17336, Note_off_c, 0, 33, 99
1, 17356, Note_off_c, 0, 30, 111
1, 17376, Note_on_c, 0, 30, 120
1, 17428, Note_off_c, 0, 30, 90
1, 17664, Note_on_c, 0, 28, 120
1, 17672, Pitch_bend_c, 0, 640
1, 17673, Pitch_bend_c, 0, 1856
1, 17675, Pitch_bend_c, 0, 3744
1, 17676, Pitch_bend_c, 0, 8192
1, 17712, Note_on_c, 0, 33, 120
1, 17717, Note_off_c, 0, 28, 108
1, 17736, Note_off_c, 0, 33, 103
1, 17760, Note_on_c, 0, 33, 120
1, 17810, Note_off_c, 0, 33, 54
1, 18048, Note_on_c, 0, 33, 120
1, 18096, Note_on_c, 0, 30, 120
1, 18101, Note_off_c, 0, 33, 88
1, 18116, Note_off_c, 0, 30, 113
1, 18144, Note_on_c, 0, 30, 120
1, 18195, Note_off_c, 0, 30, 88
1, 18432, Note_on_c, 0, 28, 115
1, 18480, Note_on_c, 0, 33, 120
1, 18486, Note_off_c, 0, 28, 108
1, 18503, Note_off_c, 0, 33, 86
1, 18528, Note_on_c, 0, 33, 120
1, 18577, Note_off_c, 0, 33, 39
1, 18816, Note_on_c, 0, 33, 120
1, 18864, Note_on_c, 0, 30, 120
1, 18867, Note_off_c, 0, 33, 56
1, 18882, Note_off_c, 0, 30, 120
1, 18912, Note_on_c, 0, 30, 120
1, 18962, Note_off_c, 0, 30, 63
1, 19200, Note_on_c, 0, 28, 120
1, 19248, Note_on_c, 0, 33, 120
1, 19251, Note_off_c, 0, 28, 113
1, 19268, Note_off_c, 0, 33, 84
1, 19296, Note_on_c, 0, 33, 120
1, 19349, Note_off_c, 0, 33, 35
1, 19584, Note_on_c, 0, 33, 120
1, 19632, Note_on_c, 0, 30, 120
1, 19640, Note_off_c, 0, 33, 58
1, 19651, Note_off_c, 0, 30, 108
1, 19680, Note_on_c, 0, 30, 120
1, 19726, Note_off_c, 0, 30, 79
1, 19968, Note_on_c, 0, 28, 120
1, 20016, Note_on_c, 0, 33, 120
1, 20019, Note_off_c, 0, 28, 99
1, 20039, Note_off_c, 0, 33, 99
1, 20064, Note_on_c, 0, 33, 120
1, 20114, Note_off_c, 0, 33, 46
1, 20352, Note_on_c, 0, 33, 120
1, 20400, Note_on_c, 0, 30, 120
1, 20408, Note_off_c, 0, 33, 99
1, 20428, Note_off_c, 0, 30, 111
1, 20448, Note_on_c, 0, 30, 120
1, 20500, Note_off_c, 0, 30, 90
1, 20736, Note_on_c, 0, 28, 120
1, 20744, Pitch_bend_c, 0, 640
1, 20745, Pitch_bend_c, 0, 1856
1, 20747, Pitch_bend_c, 0, 3744
1, 20748, Pitch_bend_c, 0, 8192
1, 20784, Note_on_c, 0, 33, 120
1, 20789, Note_off_c, 0, 28, 108
1, 20808, Note_off_c, 0, 33, 103
1, 20832, Note_on_c, 0, 33, 120
1, 20882, Note_off_c, 0, 33, 54
1, 21120, Note_on_c, 0, 33, 120
1, 21168, Note_on_c, 0, 30, 120
1, 21173, Note_off_c, 0, 33, 88
1, 21188, Note_off_c, 0, 30, 113
1, 21216, Note_on_c, 0, 30, 120
1, 21267, Note_off_c, 0, 30, 88
1, 21504, Note_on_c, 0, 28, 115
1, 21552, Note_on_c, 0, 33, 120
1, 21558, Note_off_c, 0, 28, 108
1, 21575, Note_off_c, 0, 33, 86
1, 21600, Note_on_c, 0, 33, 120
1, 21649, Note_off_c, 0, 33, 39
1, 21888, Note_on_c, 0, 33, 120
1, 21936, Note_on_c, 0, 30, 120
1, 21939, Note_off_c, 0, 33, 56
1, 21954, Note_off_c, 0, 30, 120
1, 21984, Note_on_c, 0, 30, 120
1, 22034, Note_off_c, 0, 30, 63
1, 22272, Note_on_c, 0, 28, 120
1, 22320, Note_on_c, 0, 33, 120
1, 22323, Note_off_c, 0, 28, 113
1, 22340, Note_off_c, 0, 33, 84
1, 22368, Note_on_c, 0, 33, 120
1, 22421, Note_off_c, 0, 33, 35
1, 22656, Note_on_c, 0, 33, 120
1, 22704, Note_on_c, 0, 30, 120
1, 22712, Note_off_c, 0, 33, 58
1, 22723, Note_off_c, 0, 30, 108
1, 22752, Note_on_c, 0, 30, 120
1, 22798, Note_off_c, 0, 30, 79
1, 23040, Note_on_c, 0, 28, 120
1, 23088, Note_on_c, 0, 33, 120
1, 23091, Note_off_c, 0, 28, 99
1, 23111, Note_off_c, 0, 33, 99
1, 23136, Note_on_c, 0, 33, 120
1, 23186, Note_off_c, 0, 33, 46
1, 23424, Note_on_c, 0, 33, 120
1, 23472, Note_on_c, 0, 30, 120
1, 23480, Note_off_c, 0, 33, 99
1, 23500, Note_off_c, 0, 30, 111
1, 23520, Note_on_c, 0, 30, 120
1, 23572, Note_off_c, 0, 30, 90
1, 23808, Note_on_c, 0, 28, 120
1, 23816, Pitch_bend_c, 0, 640
1, 23817, Pitch_bend_c, 0, 1856
1, 23819, Pitch_bend_c, 0, 3744
1, 23820, Pitch_bend_c, 0, 8192
1, 23856, Note_on_c, 0, 33, 120
1, 23861, Note_off_c, 0, 28, 108
1, 23880, Note_off_c, 0, 33, 103
1, 23904, Note_on_c, 0, 33, 120
1, 23954, Note_off_c, 0, 33, 54
1, 24192, Note_on_c, 0, 33, 120
1, 24240, Note_on_c, 0, 30, 120
1, 24245, Note_off_c, 0, 33, 88
1, 24260, Note_off_c, 0, 30, 113
1, 24288, Note_on_c, 0, 30, 120
1, 24339, Note_off_c, 0, 30, 88
1, 24576, Note_on_c, 0, 28, 115
1, 24624, Note_on_c, 0, 33, 120
1, 24630, Note_off_c, 0, 28, 108
1, 24647, Note_off_c, 0, 33, 86
1, 24672, Note_on_c, 0, 33, 120
1, 24721, Note_off_c, 0, 33, 39
1, 24960, Note_on_c, 0, 33, 120
1, 25008, Note_on_c, 0, 30, 120
1, 25011, Note_off_c, 0, 33, 56
1, 25026, Note_off_c, 0, 30, 120
1, 25056, Note_on_c, 0, 30, 120
1, 25106, Note_off_c, 0, 30, 63
1, 25344, Note_on_c, 0, 28, 120
1, 25392, Note_on_c, 0, 33, 120
1, 25395, Note_off_c, 0, 28, 113
1, 25412, Note_off_c, 0, 33, 84
1, 25440, Note_on_c, 0, 33, 120
1, 25493, Note_off_c, 0, 33, 35
1, 25728, Note_on_c, 0, 33, 120
1, 25776, Note_on_c, 0, 30, 120
1, 25784, Note_off_c, 0, 33, 58
1, 25795, Note_off_c, 0, 30, 108
1, 25824, Note_on_c, 0, 30, 120
1, 25870, Note_off_c, 0, 30, 79
1, 26112, Note_on_c, 0, 28, 120
1, 26160, Note_on_c, 0, 33, 120
1, 26163, Note_off_c, 0, 28, 99
1, 26183, Note_off_c, 0, 33, 99
1, 26208, Note_on_c, 0, 33, 120
1, 26258, Note_off_c, 0, 33, 46
1, 26496, Note_on_c, 0, 33, 120
1, 26544, Note_on_c, 0, 30, 120
1, 26552, Note_off_c, 0, 33, 99
1, 26572, Note_off_c, 0, 30, 111
1, 26592, Note_on_c, 0, 30, 120
1, 26644, Note_off_c, 0, 30, 90
1, 26880, Note_on_c, 0, 28, 120
1, 26888, Pitch_bend_c, 0, 640
1, 26889, Pitch_bend_c, 0, 1856
1, 26891, Pitch_bend_c, 0, 3744
1, 26892, Pitch_bend_c, 0, 8192
1, 26928, Note_on_c, 0, 33, 120
1, 26933, Note_off_c, 0, 28, 108
1, 26952, Note_off_c, 0, 33, 103
1, 26976, Note_on_c, 0, 33, 120
1, 27026, Note_off_c, 0, 33, 54
1, 27264, Note_on_c, 0, 33, 120
1, 27312, Note_on_c, 0, 30, 120
1, 27317, Note_off_c, 0, 33, 88
1, 27332, Note_off_c, 0, 30, 113
1, 27360, Note_on_c, 0, 30, 120
1, 27411, Note_off_c, 0, 30, 88
1, 27648, Note_on_c, 0, 28, 115
1, 27696, Note_on_c, 0, 33, 120
1, 27702, Note_off_c, 0, 28, 108
1, 27719, Note_off_c, 0, 33, 86
1, 27744, Note_on_c, 0, 33, 120
1, 27793, Note_off_c, 0, 33, 39
1, 28032, Note_on_c, 0, 33, 120
1, 28080, Note_on_c, 0, 30, 120
1, 28083, Note_off_c, 0, 33, 56
1, 28098, Note_off_c, 0, 30, 120
1, 28128, Note_on_c, 0, 30, 120
1, 28178, Note_off_c, 0, 30, 63
1, 28416, Note_on_c, 0, 28, 120
1, 28464, Note_on_c, 0, 33, 120
1, 28467, Note_off_c, 0, 28, 113
1, 28484, Note_off_c, 0, 33, 84
1, 28512, Note_on_c, 0, 33, 120
1, 28565, Note_off_c, 0, 33, 35
1, 28800, Note_on_c, 0, 33, 120
1, 28848, Note_on_c, 0, 30, 120
1, 28856, Note_off_c, 0, 33, 58
1, 28867, Note_off_c, 0, 30, 108
1, 28896, Note_on_c, 0, 30, 120
1, 28942, Note_off_c, 0, 30, 79
1, 29184, Note_on_c, 0, 28, 120
1, 29232, Note_on_c, 0, 33, 120
1, 29235, Note_off_c, 0, 28, 99
1, 29255, Note_off_c, 0, 33, 99
1, 29280, Note_on_c, 0, 33, 120
1, 29330, Note_off_c, 0, 33, 46
1, 29568, Note_on_c, 0, 33, 120
1, 29616, Note_on_c, 0, 30, 120
1, 29624, Note_off_c, 0, 33, 99
1, 29644, Note_off_c, 0, 30, 111
1, 29664, Note_on_c, 0, 30, 120
1, 29716, Note_off_c, 0, 30, 90
1, 29952, Note_on_c, 0, 28, 120
1, 29960, Pitch_bend_c, 0, 640
1, 29961, Pitch_bend_c, 0, 1856
1, 29963, Pitch_bend_c, 0, 3744
1, 29964, Pitch_bend_c, 0, 8192
1, 30000, Note_on_c, 0, 33, 120
1, 30005, Note_off_c, 0, 28, 108
1, 30024, Note_off_c, 0, 33, 103
1, 30048, Note_on_c, 0, 33, 120
1, 30098, Note_off_c, 0, 33, 54
1, 30336, Note_on_c, 0, 33, 120
1, 30384, Note_on_c, 0, 30, 120
1, 30389, Note_off_c, 0, 33, 88
1, 30404, Note_off_c, 0, 30, 113
1, 30432, Note_on_c, 0, 30, 120
1, 30483, Note_off_c, 0, 30, 88
1, 30720, Note_on_c, 0, 28, 115
1, 30768, Note_on_c, 0, 33, 120
1, 30774, Note_off_c, 0, 28, 108
1, 30791, Note_off_c, 0, 33, 86
1, 30816, Note_on_c, 0, 33, 120
1, 30865, Note_off_c, 0, 33, 39
1, 31104, Note_on_c, 0, 33, 120
1, 31152, Note_on_c, 0, 30, 120
1, 31155, Note_off_c, 0, 33, 56
1, 31170, Note_off_c, 0, 30, 120
1, 31200, Note_on_c, 0, 30, 120
1, 31250, Note_off_c, 0, 30, 63
1, 31488, Note_on_c, 0, 28, 120
1, 31536, Note_on_c, 0, 33, 120
1, 31539, Note_off_c, 0, 28, 113
1, 31556, Note_off_c, 0, 33, 84
1, 31584, Note_on_c, 0, 33, 120
1, 31637, Note_off_c, 0, 33, 35
1, 31872, Note_on_c, 0, 33, 120
1, 31920, Note_on_c, 0, 30, 120
1, 31928, Note_off_c, 0, 33, 58
1, 31939, Note_off_c, 0, 30, 108
1, 31968, Note_on_c, 0, 30, 120
1, 32014, Note_off_c, 0, 30, 79
1, 32256, Note_on_c, 0, 28, 120
1, 32304, Note_on_c, 0, 33, 120
1, 32307, Note_off_c, 0, 28, 99
1, 32327, Note_off_c, 0, 33, 99
1, 32352, Note_on_c, 0, 33, 120
1, 32402, Note_off_c, 0, 33, 46
1, 32640, Note_on_c, 0, 33, 120
1, 32688, Note_on_c, 0, 30, 120
1, 32696, Note_off_c, 0, 33, 99
1, 32716, Note_off_c, 0, 30, 111
1, 32736, Note_on_c, 0, 30, 120
1, 32788, Note_off_c, 0, 30, 90
1, 33024, Note_on_c, 0, 28, 120
1, 33032, Pitch_bend_c, 0, 640
1, 33033, Pitch_bend_c, 0, 1856
1, 33035, Pitch_bend_c, 0, 3744
1, 33036, Pitch_bend_c, 0, 8192
1, 33072, Note_on_c, 0, 33, 120
1, 33077, Note_off_c, 0, 28, 108
1, 33096, Note_off_c, 0, 33, 103
1, 33120, Note_on_c, 0, 33, 120
1, 33170, Note_off_c, 0, 33, 54
1, 33408, Note_on_c, 0, 33, 120
1, 33456, Note_on_c, 0, 30, 120
1, 33461, Note_off_c, 0, 33, 88
1, 33476, Note_off_c, 0, 30, 113
1, 33504, Note_on_c, 0, 30, 120
1, 33555, Note_off_c, 0, 30, 88
1, 33792, Note_on_c, 0, 28, 115
1, 33840, Note_on_c, 0, 33, 120
1, 33846, Note_off_c, 0, 28, 108
1, 33863, Note_off_c, 0, 33, 86
1, 33888, Note_on_c, 0, 33, 120
1, 33937, Note_off_c, 0, 33, 39
1, 34176, Note_on_c, 0, 33, 120
1, 34224, Note_on_c, 0, 30, 120
1, 34227, Note_off_c, 0, 33, 56
1, 34242, Note_off_c, 0, 30, 120
1, 34272, Note_on_c, 0, 30, 120
1, 34322, Note_off_c, 0, 30, 63
1, 34560, Note_on_c, 0, 28, 120
1, 34608, Note_on_c, 0, 33, 120
1, 34611, Note_off_c, 0, 28, 113
1, 34628, Note_off_c, 0, 33, 84
1, 34656, Note_on_c, 0, 33, 120
1, 34709, Note_off_c, 0, 33, 35
1, 34944, Note_on_c, 0, 33, 120
1, 34992, Note_on_c, 0, 30, 120
1, 35000, Note_off_c, 0, 33, 58
1, 35011, Note_off_c, 0, 30, 108
1, 35040, Note_on_c, 0, 30, 120
1, 35086, Note_off_c, 0, 30, 79
1, 35328, Note_on_c, 0, 28, 120
1, 35376, Note_on_c, 0, 33, 120
1, 35379, Note_off_c, 0, 28, 99
1, 35399, Note_off_c, 0, 33, 99
1, 35424, Note_on_c, 0, 33, 120
1, 35474, Note_off_c, 0, 33, 46
1, 35712, Note_on_c, 0, 33, 120
1, 35760, Note_on_c, 0, 30, 120
1, 35768, Note_off_c, 0, 33, 99
1, 35788, Note_off_c, 0, 30, 111
1, 35808, Note_on_c, 0, 30, 120
1, 35860, Note_off_c, 0, 30, 90
1, 36096, Note_on_c, 0, 28, 120
1, 36104, Pitch_bend_c, 0, 640
1, 36105, Pitch_bend_c, 0, 1856
1, 36107, Pitch_bend_c, 0, 3744
1, 36108, Pitch_bend_c, 0, 8192
1, 36144, Note_on_c, 0, 33, 120
1, 36149, Note_off_c, 0, 28, 108
1, 36168, Note_off_c, 0, 33, 103
1, 36192, Note_on_c, 0, 33, 120
1, 36242, Note_off_c, 0, 33, 54
1, 36480, Note_on_c, 0, 33, 120
1, 36528, Note_on_c, 0, 30, 120
1, 36533, Note_off_c, 0, 33, 88
1, 36548, Note_off_c, 0, 30, 113
1, 36576, Note_on_c, 0, 30, 120
1, 36627, Note_off_c, 0, 30, 88
1, 36864, Note_on_c, 0, 28, 115
1, 36912, Note_on_c, 0, 33, 120
1, 36918, Note_off_c, 0, 28, 108
1, 36935, Note_off_c, 0, 33, 86
1, 36960, Note_on_c, 0, 33, 120
1, 37009, Note_off_c, 0, 33, 39
1, 37248, Note_on_c, 0, 33, 120
1, 37296, Note_on_c, 0, 30, 120
1, 37299, Note_off_c, 0, 33, 56
1, 37314, Note_off_c, 0, 30, 120
1, 37344, Note_on_c, 0, 30, 120
1, 37394, Note_off_c, 0, 30, 63
1, 37632, Note_on_c, 0, 28, 120
1, 37680, Note_on_c, 0, 33, 120
1, 37683, Note_off_c, 0, 28, 113
1, 37700, Note_off_c, 0, 33, 84
1, 37728, Note_on_c, 0, 33, 120
1, 37781, Note_off_c, 0, 33, 35
1, 38016, Note_on_c, 0, 33, 120
1, 38064, Note_on_c, 0, 30, 120
1, 38072, Note_off_c, 0, 33, 58
1, 38083, Note_off_c, 0, 30, 108
1, 38112, Note_on_c, 0, 30, 120
1, 38158, Note_off_c, 0, 30, 79
1, 38400, Note_on_c, 0, 28, 120
1, 38448, Note_on_c, 0, 33, 120
1, 38451, Note_off_c, 0, 28, 99
1, 38471, Note_off_c, 0, 33, 99
1, 38496, Note_on_c, 0, 33, 120
1, 38546, Note_off_c, 0, 33, 46
1, 38784, Note_on_c, 0, 33, 120
1, 38832, Note_on_c, 0, 30, 120
1, 38840, Note_off_c, 0, 33, 99
1, 38860, Note_off_c, 0, 30, 111
1, 38880, Note_on_c, 0, 30, 120
1, 38932, Note_off_c, 0, 30, 90
1, 39168, Note_on_c, 0, 28, 120
1, 39176, Pitch_bend_c, 0, 640
1, 39177, Pitch_bend_c, 0, 1856
1, 39179, Pitch_bend_c, 0, 3744
1, 39180, Pitch_bend_c, 0, 8192
1, 39216, Note_on_c, 0, 33, 120
1, 39221, Note_off_c, 0, 28, 108
1, 39240, Note_off_c, 0, 33, 103
1, 39264, Note_on_c, 0, 33, 120
1, 39314, Note_off_c, 0, 33, 54
1, 39552, Note_on_c, 0, 33, 120
1, 39600, Note_on_c, 0, 30, 120
1, 39605, Note_off_c, 0, 33, 88
1, 39620, Note_off_c, 0, 30, 113
1, 39648, Note_on_c, 0, 30, 120
1, 39699, Note_off_c, 0, 30, 88
1, 39936, Note_on_c, 0, 28, 115
1, 39984, Note_on_c, 0, 33, 120
1, 39990, Note_off_c, 0, 28, 108
1, 40007, Note_off_c, 0, 33, 86
1, 40032, Note_on_c, 0, 33, 120
1, 40081, Note_off_c, 0, 33, 39
1, 40320, Note_on_c, 0, 33, 120
1, 40368, Note_on_c, 0, 30, 120
1, 40371, Note_off_c, 0, 33, 56
1, 40386, Note_off_c, 0, 30, 120
1, 40416, Note_on_c, 0, 30, 120
1, 40466, Note_off_c, 0, 30, 63
1, 40704, Note_on_c, 0, 28, 120
1, 40752, Note_on_c, 0, 33, 120
1, 40755, Note_off_c, 0, 28, 113
1, 40772, Note_off_c, 0, 33, 84
1, 40800, Note_on_c, 0, 33, 120
1, 40853, Note_off_c, 0, 33, 35
1, 41088, Note_on_c, 0, 33, 120
1, 41136, Note_on_c, 0, 30, 120
1, 41144, Note_off_c, 0, 33, 58
1, 41155, Note_off_c, 0, 30, 108
1, 41184, Note_on_c, 0, 30, 120
1, 41230, Note_off_c, 0, 30, 79
1, 41472, Note_on_c, 0, 28, 120
1, 41520, Note_on_c, 0, 33, 120
1, 41523, Note_off_c, 0, 28, 99
1, 41543, Note_off_c, 0, 33, 99
1, 41568, Note_on_c, 0, 33, 120
1, 41618, Note_off_c, 0, 33, 46
1, 41856, Note_on_c, 0, 33, 120
1, 41904, Note_on_c, 0, 30, 120
1, 41912, Note_off_c, 0, 33, 99
1, 41932, Note_off_c, 0, 30, 111
1, 41952, Note_on_c, 0, 30, 120
1, 42004, Note_off_c, 0, 30, 90
1, 42240, Note_on_c, 0, 28, 120
1, 42248, Pitch_bend_c, 0, 640
1, 42249, Pitch_bend_c, 0, 1856
1, 42251, Pitch_bend_c, 0, 3744
1, 42252, Pitch_bend_c, 0, 8192
1, 42288, Note_on_c, 0, 33, 120
1, 42293, Note_off_c, 0, 28, 108
1, 42312, Note_off_c, 0, 33, 103
1, 42336, Note_on_c, 0, 33, 120
1, 42386, Note_off_c, 0, 33, 54
1, 42624, Note_on_c, 0, 33, 120
1, 42672, Note_on_c, 0, 30, 120
1, 42677, Note_off_c, 0, 33, 88
1, 42692, Note_off_c, 0, 30, 113
1, 42720, Note_on_c, 0, 30, 120
1, 42771, Note_off_c, 0, 30, 88
1, 43008, Note_on_c, 0, 28, 115
1, 43056, Note_on_c, 0, 33, 120
1, 43062, Note_off_c, 0, 28, 108
1, 43079, Note_off_c, 0, 33, 86
1, 43104, Note_on_c, 0, 33, 120
1, 43153, Note_off_c, 0, 33, 39
1, 43392, Note_on_c, 0, 33, 120
1, 43440, Note_on_c, 0, 30, 120
1, 43443, Note_off_c, 0, 33, 56
1, 43458, Note_off_c, 0, 30, 120
1, 43488, Note_on_c, 0, 30, 120
1, 43538, Note_off_c, 0, 30, 63
1, 43776, Note_on_c, 0, 28, 120
1, 43824, Note_on_c, 0, 33, 120
1, 43827, Note_off_c, 0, 28, 113
1, 43844, Note_off_c, 0, 33, 84
1, 43872, Note_on_c, 0, 33, 120
1, 43925, Note_off_c, 0, 33, 35
1, 44160, Note_on_c, 0, 33, 120
1, 44208, Note_on_c, 0, 30, 120
1, 44216, Note_off_c, 0, 33, 58
1, 44227, Note_off_c, 0, 30, 108
1, 44256, Note_on_c, 0, 30, 120
1, 44302, Note_off_c, 0, 30, 79
1, 44544, Note_on_c, 0, 28, 120
1, 44592, Note_on_c, 0, 33, 120
1, 44595, Note_off_c, 0, 28, 99
1, 44615, Note_off_c, 0, 33, 99
1, 44640, Note_on_c, 0, 33, 120
1, 44690, Note_off_c, 0, 33, 46
1, 44928, Note_on_c, 0, 33, 120
1, 44976, Note_on_c, 0, 30, 120
1, 44984, Note_off_c, 0, 33, 99
1, 45004, Note_off_c, 0, 30, 111
1, 45024, Note_on_c, 0, 30, 120
1, 45076, Note_off_c, 0, 30, 90
1, 45312, Note_on_c, 0, 28, 120
1, 45320, Pitch_bend_c, 0, 640
1, 45321, Pitch_bend_c, 0, 1856
1, 45323, Pitch_bend_c, 0, 3744
1, 45324, Pitch_bend_c, 0, 8192
1, 45360, Note_on_c, 0, 33, 120
1, 45365, Note_off_c, 0, 28, 108
1, 45384, Note_off_c, 0, 33, 103
1, 45408, Note_on_c, 0, 33, 120
1, 45458, Note_off_c, 0, 33, 54
1, 45696, Note_on_c, 0, 33, 120
1, 45744, Note_on_c, 0, 30, 120
1, 45749, Note_off_c, 0, 33, 88
1, 45764, Note_off_c, 0, 30, 113
1, 45792, Note_on_c, 0, 30, 120
1, 45843, Note_off_c, 0, 30, 88
1, 46080, Note_on_c, 0, 28, 115
1, 46128, Note_on_c, 0, 33, 120
1, 46134, Note_off_c, 0, 28, 108
1, 46151, Note_off_c, 0, 33, 86
1, 46176, Note_on_c, 0, 33, 120
1, 46225, Note_off_c, 0, 33, 39
1, 46464, Note_on_c, 0, 33, 120
1, 46512, Note_on_c, 0, 30, 120
1, 46515, Note_off_c, 0, 33, 56
1, 46530, Note_off_c, 0, 30, 120
1, 46560, Note_on_c, 0, 30, 120
1, 46610, Note_off_c, 0, 30, 63
1, 46848, Note_on_c, 0, 28, 120
1, 46896, Note_on_c, 0, 33, 120
1, 46899, Note_off_c, 0, 28, 113
1, 46916, Note_off_c, 0, 33, 84
1, 46944, Note_on_c, 0, 33, 120
1, 46997, Note_off_c, 0, 33, 35
1, 47232, Note_on_c, 0, 33, 120
1, 47280, Note_on_c, 0, 30, 120
1, 47288, Note_off_c, 0, 33, 58
1, 47299, Note_off_c, 0, 30, 108
1, 47328, Note_on_c, 0, 30, 120
1, 47374, Note_off_c, 0, 30, 79
1, 47616, Note_on_c, 0, 28, 120
1, 47664, Note_on_c, 0, 33, 120
1, 47667, Note_off_c, 0, 28, 99
1, 47687, Note_off_c, 0, 33, 99
1, 47712, Note_on_c, 0, 33, 120
1, 47762, Note_off_c, 0, 33, 46
1, 48000, Note_on_c, 0, 33, 120
1, 48048, Note_on_c, 0, 30, 120
1, 48056, Note_off_c, 0, 33, 99
1, 48076, Note_off_c, 0, 30, 111
1, 48096, Note_on_c, 0, 30, 120
1, 48148, Note_off_c, 0, 30, 90
1, 48384, Note_on_c, 0, 26, 120
1, 49150, Note_off_c, 0, 26, 127
1, 49920, End_track
2, 0, Start_track
2, 0, Program_c, 1, 4
2, 24, Control_c, 1, 1, 0
2, 48, Control_c, 1, 7, 100
2, 72, Control_c, 1, 10, 65
2, 96, Control_c, 1, 11, 127
2, 120, Control_c, 1, 91, 90
2, 144, Pitch_bend_c, 1, 8192
2, 816, Note_on_c, 1, 74, 83
2, 840, Note_on_c, 1, 79, 66
2, 843, Note_off_c, 1, 74, 50
2, 870, Note_off_c, 1, 79, 57
2, 1008, Note_on_c, 1, 74, 80
2, 1032, Note_on_c, 1, 79, 80
2, 1036, Note_off_c, 1, 74, 56
2, 1062, Note_off_c, 1, 79, 54
2, 1200, Note_on_c, 1, 74, 80
2, 1224, Note_on_c, 1, 79, 72
2, 1229, Note_off_c, 1, 74, 61
2, 1257, Note_off_c, 1, 79, 33
2, 1392, Note_on_c, 1, 74, 74
2, 1416, Note_on_c, 1, 79, 61
2, 1422, Note_off_c, 1, 74, 50
2, 1459, Note_off_c, 1, 79, 61
2, 1584, Note_on_c, 1, 74, 76
2, 1608, Note_on_c, 1, 79, 62
2, 1624, Note_off_c, 1, 74, 36
2, 1645, Note_off_c, 1, 79, 38
2, 1776, Note_on_c, 1, 74, 76
2, 1800, Note_on_c, 1, 79, 58
2, 1807, Note_off_c, 1, 74, 41
2, 1840, Note_off_c, 1, 79, 46
2, 1968, Note_on_c, 1, 74, 68
2, 1992, Note_on_c, 1, 79, 68
2, 1996, Note_off_c, 1, 74, 49
2, 2029, Note_off_c, 1, 79, 51
2, 2160, Note_on_c, 1, 74, 74
2, 2184, Note_on_c, 1, 79, 61
2, 2190, Note_off_c, 1, 74, 44
2, 2214, Note_off_c, 1, 79, 42
2, 2352, Note_on_c, 1, 74, 68
2, 2376, Note_on_c, 1, 79, 66
2, 2380, Note_off_c, 1, 74, 44
2, 2415, Note_off_c, 1, 79, 42
2, 2544, Note_on_c, 1, 74, 72
2, 2568, Note_on_c, 1, 79, 53
2, 2576, Note_off_c, 1, 74, 29
2, 2611, Note_off_c, 1, 79, 56
2, 2736, Note_on_c, 1, 74, 65
2, 2760, Note_on_c, 1, 79, 57
2, 2773, Note_off_c, 1, 74, 55
2, 2801, Note_off_c, 1, 79, 65
2, 2928, Note_on_c, 1, 74, 72
2, 2952, Note_on_c, 1, 79, 66
2, 2959, Note_off_c, 1, 74, 45
2, 2990, Note_off_c, 1, 79, 59
2, 3120, Note_on_c, 1, 74, 70
2, 3144, Note_on_c, 1, 79, 68
2, 3155, Note_off_c, 1, 74, 56
2, 3184, Note_off_c, 1, 79, 46
2, 3312, Note_on_c, 1, 74, 78
2, 3336, Note_on_c, 1, 79, 62
2, 3352, Note_off_c, 1, 74, 29
2, 3371, Note_off_c, 1, 79, 43
2, 3504, Note_on_c, 1, 74, 72
2, 3528, Note_on_c, 1, 79, 66
2, 3545, Note_off_c, 1, 74, 40
2, 3565, Note_off_c, 1, 79, 41
2, 3696, Note_on_c, 1, 74, 72
2, 3720, Note_on_c, 1, 79, 65
2, 3742, Note_off_c, 1, 74, 62
2, 3749, Note_off_c, 1, 79, 77
2, 3888, Note_on_c, 1, 74, 83
2, 3912, Note_on_c, 1, 79, 66
2, 3915, Note_off_c, 1, 74, 50
2, 3942, Note_off_c, 1, 79, 57
2, 4080, Note_on_c, 1, 74, 80
2, 4104, Note_on_c, 1, 79, 80
2, 4108, Note_off_c, 1, 74, 56
2, 4134, Note_off_c, 1, 79, 54
2, 4272, Note_on_c, 1, 74, 80
2, 4296, Note_on_c, 1, 79, 72
2, 4301, Note_off_c, 1, 74, 61
2, 4329, Note_off_c, 1, 79, 33
2, 4464, Note_on_c, 1, 74, 74
2, 4488, Note_on_c, 1, 79, 61
2, 4494, Note_off_c, 1, 74, 50
2, 4531, Note_off_c, 1, 79, 61
2, 4656, Note_on_c, 1, 74, 76
2, 4680, Note_on_c, 1, 79, 62
2, 4696, Note_off_c, 1, 74, 36
2, 4717, Note_off_c, 1, 79, 38
2, 4848, Note_on_c, 1, 74, 76
2, 4872, Note_on_c, 1, 79, 58
2, 4879, Note_off_c, 1, 74, 41
2, 4912, Note_off_c, 1, 79, 46
2, 5040, Note_on_c, 1, 74, 68
2, 5064, Note_on_c, 1, 79, 68
2, 5068, Note_off_c, 1, 74, 49
2, 5101, Note_off_c, 1, 79, 51
2, 5232, Note_on_c, 1, 74, 74
2, 5256, Note_on_c, 1, 79, 61
2, 5262, Note_off_c, 1, 74, 44
2, 5286, Note_off_c, 1, 79, 42
2, 5424, Note_on_c, 1, 74, 68
2, 5448, Note_on_c, 1, 79, 66
2, 5452, Note_off_c, 1, 74, 44
2, 5487, Note_off_c, 1, 79, 42
2, 5616, Note_on_c, 1, 74, 72
2, 5640, Note_on_c, 1, 79, 53
2, 5648, Note_off_c, 1, 74, 29
2, 5683, Note_off_c, 1, 79, 56
2, 5808, Note_on_c, 1, 74, 65
2, 5832, Note_on_c, 1, 79, 57
2, 5845, Note_off_c, 1, 74, 55
2, 5873, Note_off_c, 1, 79, 65
2, 6000, Note_on_c, 1, 74, 72
2, 6024, Note_on_c, 1, 79, 66
2, 6031, Note_off_c, 1, 74, 45
2, 6062, Note_off_c, 1, 79, 59
2, 6192, Note_on_c, 1, 74, 70
2, 6216, Note_on_c, 1, 79, 68
2, 6227, Note_off_c, 1, 74, 56
2, 6256, Note_off_c, 1, 79, 46
2, 6384, Note_on_c, 1, 74, 78
2, 6408, Note_on_c, 1, 79, 62
2, 6424, Note_off_c, 1, 74, 29
2, 6443, Note_off_c, 1, 79, 43
2, 6576, Note_on_c, 1, 74, 72
2, 6600, Note_on_c, 1, 79, 66
2, 6617, Note_off_c, 1, 74, 40
2, 6637, Note_off_c, 1, 79, 41
2, 6768, Note_on_c, 1, 74, 72
2, 6792, Note_on_c, 1, 79, 65
2, 6814, Note_off_c, 1, 74, 62
2, 6821, Note_off_c, 1, 79, 77
2, 6960, Note_on_c, 1, 74, 68
2, 6984, Note_on_c, 1, 79, 66
2, 6988, Note_off_c, 1, 74, 44
2, 7023, Note_off_c, 1, 79, 42
2, 7152, Note_on_c, 1, 74, 72
2, 7176, Note_on_c, 1, 79, 53
2, 7184, Note_off_c, 1, 74, 29
2, 7219, Note_off_c, 1, 79, 56
2, 7344, Note_on_c, 1, 74, 65
2, 7368, Note_on_c, 1, 79, 57
2, 7381, Note_off_c, 1, 74, 55
2, 7409, Note_off_c, 1, 79, 65
2, 7536, Note_on_c, 1, 74, 72
2, 7560, Note_on_c, 1, 79, 66
2, 7567, Note_off_c, 1, 74, 45
2, 7598, Note_off_c, 1, 79, 59
2, 7728, Note_on_c, 1, 74, 70
2, 7752, Note_on_c, 1, 79, 68
2, 7763, Note_off_c, 1, 74, 56
2, 7792, Note_off_c, 1, 79, 46
2, 7920, Note_on_c, 1, 74, 78
2, 7944, Note_on_c, 1, 79, 62
2, 7960, Note_off_c, 1, 74, 29
2, 7979, Note_off_c, 1, 79, 43
2, 8112, Note_on_c, 1, 74, 72
2, 8136, Note_on_c, 1, 79, 66
2, 8153, Note_off_c, 1, 74, 40
2, 8173, Note_off_c, 1, 79, 41
2, 8304, Note_on_c, 1, 74, 72
2, 8328, Note_on_c, 1, 79, 65
2, 8350, Note_off_c, 1, 74, 62
2, 8357, Note_off_c, 1, 79, 77
2, 8496, Note_on_c, 1, 74, 83
2, 8520, Note_on_c, 1, 79, 66
2, 8523, Note_off_c, 1, 74, 50
2, 8550, Note_off_c, 1, 79, 57
2, 8688, Note_on_c, 1, 74, 80
2, 8712, Note_on_c, 1, 79, 80
2, 8716, Note_off_c, 1, 74, 56
2, 8742, Note_off_c, 1, 79, 54
2, 8880, Note_on_c, 1, 74, 80
2, 8904, Note_on_c, 1, 79, 72
2, 8909, Note_off_c, 1, 74, 61
2, 8937, Note_off_c, 1, 79, 33
2, 9072, Note_on_c, 1, 74, 74
2, 9096, Note_on_c, 1, 79, 61
2, 9102, Note_off_c, 1, 74, 50
2, 9139, Note_off_c, 1, 79, 61
2, 9264, Note_on_c, 1, 74, 76
2, 9288, Note_on_c, 1, 79, 62
2, 9304, Note_off_c, 1, 74, 36
2, 9325, Note_off_c, 1, 79, 38
2, 9456, Note_on_c, 1, 74, 76
2, 9480, Note_on_c, 1, 79, 58
2, 9487, Note_off_c, 1, 74, 41
2, 9520, Note_off_c, 1, 79, 46
2, 9648, Note_on_c, 1, 74, 68
2, 9672, Note_on_c, 1, 79, 68
2, 9676, Note_off_c, 1, 74, 49
2, 9709, Note_off_c, 1, 79, 51
2, 9840, Note_on_c, 1, 74, 74
2, 9864, Note_on_c, 1, 79, 61
2, 9870, Note_off_c, 1, 74, 44
2, 9894, Note_off_c, 1, 79, 42
2, 10032, Note_on_c, 1, 74, 68
2, 10056, Note_on_c, 1, 79, 66
2, 10060, Note_off_c, 1, 74, 44
2, 10095, Note_off_c, 1, 79, 42
2, 10224, Note_on_c, 1, 74, 72
2, 10248, Note_on_c, 1, 79, 53
2, 10256, Note_off_c, 1, 74, 29
2, 10291, Note_off_c, 1, 79, 56
2, 10416, Note_on_c, 1, 74, 65
2, 10440, Note_on_c, 1, 79, 57
2, 10453, Note_off_c, 1, 74, 55
2, 10481, Note_off_c, 1, 79, 65
2, 10608, Note_on_c, 1, 74, 72
2, 10632, Note_on_c, 1, 79, 66
2, 10639, Note_off_c, 1, 74, 45
2, 10670, Note_off_c, 1, 79, 59
2, 10800, Note_on_c, 1, 74, 70
2, 10824, Note_on_c, 1, 79, 68
2, 10835, Note_off_c, 1, 74, 56
2, 10864, Note_off_c, 1, 79, 46
2, 10992, Note_on_c, 1, 74, 78
2, 11016, Note_on_c, 1, 79, 62
2, 11032, Note_off_c, 1, 74, 29
2, 11051, Note_off_c, 1, 79, 43
2, 11184, Note_on_c, 1, 74, 72
2, 11208, Note_on_c, 1, 79, 66
2, 11225, Note_off_c, 1, 74, 40
2, 11245, Note_off_c, 1, 79, 41
2, 11376, Note_on_c, 1, 74, 72
2, 11400, Note_on_c, 1, 79, 65
2, 11422, Note_off_c, 1, 74, 62
2, 11429, Note_off_c, 1, 79, 77
2, 11568, Note_on_c, 1, 74, 83
2, 11592, Note_on_c, 1, 79, 66
2, 11595, Note_off_c, 1, 74, 50
2, 11622, Note_off_c, 1, 79, 57
2, 11760, Note_on_c, 1, 74, 80
2, 11784, Note_on_c, 1, 79, 80
2, 11788, Note_off_c, 1, 74, 56
2, 11814, Note_off_c, 1, 79, 54
2, 11952, Note_on_c, 1, 74, 80
2, 11976, Note_on_c, 1, 79, 72
2, 11981, Note_off_c, 1, 74, 61
2, 12009, Note_off_c, 1, 79, 33
2, 12144, Note_on_c, 1, 74, 74
2, 12168, Note_on_c, 1, 79, 61
2, 12174, Note_off_c, 1, 74, 50
2, 12211, Note_off_c, 1, 79, 61
2, 12336, Note_on_c, 1, 74, 76
2, 12360, Note_on_c, 1, 79, 62
2, 12376, Note_off_c, 1, 74, 36
2, 12397, Note_off_c, 1, 79, 38
2, 12528, Note_on_c, 1, 74, 76
2, 12552, Note_on_c, 1, 79, 58
2, 12559, Note_off_c, 1, 74, 41
2, 12592, Note_off_c, 1, 79, 46
2, 12720, Note_on_c, 1, 74, 68
2, 12744, Note_on_c, 1, 79, 68
2, 12748, Note_off_c, 1, 74, 49
2, 12781, Note_off_c, 1, 79, 51
2, 12912, Note_on_c, 1, 74, 74
2, 12936, Note_on_c, 1, 79, 61
2, 12942, Note_off_c, 1, 74, 44
2, 12966, Note_off_c, 1, 79, 42
2, 13104, Note_on_c, 1, 74, 68
2, 13128, Note_on_c, 1, 79, 66
2, 13132, Note_off_c, 1, 74, 44
2, 13167, Note_off_c, 1, 79, 42
2, 13296, Note_on_c, 1, 74, 72
2, 13320, Note_on_c, 1, 79, 53
2, 13328, Note_off_c, 1, 74, 29
2, 13363, Note_off_c, 1, 79, 56
2, 13488, Note_on_c, 1, 74, 65
2, 13512, Note_on_c, 1, 79, 57
2, 13525, Note_off_c, 1, 74, 55
2, 13553, Note_off_c, 1, 79, 65
2, 13680, Note_on_c, 1, 74, 72
2, 13704, Note_on_c, 1, 79, 66
2, 13711, Note_off_c, 1, 74, 45
2, 13742, Note_off_c, 1, 79, 59
2, 13872, Note_on_c, 1, 74, 70
2, 13896, Note_on_c, 1, 79, 68
2, 13907, Note_off_c, 1, 74, 56
2, 13936, Note_off_c, 1, 79, 46
2, 14064, Note_on_c, 1, 74, 78
2, 14088, Note_on_c, 1, 79, 62
2, 14104, Note_off_c, 1, 74, 29
2, 14123, Note_off_c, 1, 79, 43
2, 14256, Note_on_c, 1, 74, 72
2, 14280, Note_on_c, 1, 79, 66
2, 14297, Note_off_c, 1, 74, 40
2, 14317, Note_off_c, 1, 79, 41
2, 14448, Note_on_c, 1, 74, 72
2, 14472, Note_on_c, 1, 79, 65
2, 14494, Note_off_c, 1, 74, 62
2, 14501, Note_off_c, 1, 79, 77
2, 14640, Note_on_c, 1, 74, 83
2, 14664, Note_on_c, 1, 79, 66
2, 14667, Note_off_c, 1, 74, 50
2, 14694, Note_off_c, 1, 79, 57
2, 14832, Note_on_c, 1, 74, 80
2, 14856, Note_on_c, 1, 79, 80
2, 14860, Note_off_c, 1, 74, 56
2, 14886, Note_off_c, 1, 79, 54
2, 15024, Note_on_c, 1, 74, 80
2, 15048, Note_on_c, 1, 79, 72
2, 15053, Note_off_c, 1, 74, 61
2, 15081, Note_off_c, 1, 79, 33
2, 15216, Note_on_c, 1, 74, 74
2, 15240, Note_on_c, 1, 79, 61
2, 15246, Note_off_c, 1, 74, 50
2, 15283, Note_off_c, 1, 79, 61
2, 15408, Note_on_c, 1, 74, 76
2, 15432, Note_on_c, 1, 79, 62
2, 15448, Note_off_c, 1, 74, 36
2, 15469, Note_off_c, 1, 79, 38
2, 15600, Note_on_c, 1, 74, 76
2, 15624, Note_on_c, 1, 79, 58
2, 15631, Note_off_c, 1, 74, 41
2, 15664, Note_off_c, 1, 79, 46
2, 15792, Note_on_c, 1, 74, 68
2, 15816, Note_on_c, 1, 79, 68
2, 15820, Note_off_c, 1, 74, 49
2, 15853, Note_off_c, 1, 79, 51
2, 15984, Note_on_c, 1, 74, 74
2, 16008, Note_on_c, 1, 79, 61
2, 16014, Note_off_c, 1, 74, 44
2, 16038, Note_off_c, 1, 79, 42
2, 16176, Note_on_c, 1, 74, 68
2, 16200, Note_on_c, 1, 79, 66
2, 16204, Note_off_c, 1, 74, 44
2, 16239, Note_off_c, 1, 79, 42
2, 16368, Note_on_c, 1, 74, 72
2, 16392, Note_on_c, 1, 79, 53
2, 16400, Note_off_c, 1, 74, 29
2, 16435, Note_off_c, 1, 79, 56
2, 16560, Note_on_c, 1, 74, 65
2, 16584, Note_on_c, 1, 79, 57
2, 16597, Note_off_c, 1, 74, 55
2, 16625, Note_off_c, 1, 79, 65
2, 16752, Note_on_c, 1, 74, 72
2, 16776, Note_on_c, 1, 79, 66
2, 16783, Note_off_c, 1, 74, 45
2, 16814, Note_off_c, 1, 79, 59
2, 16944, Note_on_c, 1, 74, 70
2, 16968, Note_on_c, 1, 79, 68
2, 16979, Note_off_c, 1, 74, 56
2, 17008, Note_off_c, 1, 79, 46
2, 17136, Note_on_c, 1, 74, 78
2, 17160, Note_on_c, 1, 79, 62
2, 17176, Note_off_c, 1, 74, 29
2, 17195, Note_off_c, 1, 79, 43
2, 17328, Note_on_c, 1, 74, 72
2, 17352, Note_on_c, 1, 79, 66
2, 17369, Note_off_c, 1, 74, 40
2, 17389, Note_off_c, 1, 79, 41
2, 17520, Note_on_c, 1, 74, 72
2, 17544, Note_on_c, 1, 79, 65
2, 17566, Note_off_c, 1, 74, 62
2, 17573, Note_off_c, 1, 79, 77
2, 17664, Note_on_c, 1, 74, 101
2, 17689, Note_off_c, 1, 74, 57
2, 17712, Note_on_c, 1, 78, 79
2, 17723, Note_off_c, 1, 78, 96
2, 17736, Note_on_c, 1, 74, 88
2, 17754, Note_off_c, 1, 74, 48
2, 17784, Note_on_c, 1, 78, 90
2, 17801, Note_off_c, 1, 78, 84
2, 17808, Note_on_c, 1, 74, 85
2, 17824, Note_off_c, 1, 74, 66
2, 17856, Note_on_c, 1, 78, 90
2, 17875, Note_off_c, 1, 78, 86
2, 17880, Note_on_c, 1, 74, 79
2, 17905, Note_off_c, 1, 74, 59
2, 17952, Note_on_c, 1, 78, 90
2, 18017, Note_off_c, 1, 78, 50
2, 18048, Note_on_c, 1, 74, 91
2, 18067, Note_off_c, 1, 74, 72
2, 18096, Note_on_c, 1, 78, 83
2, 18113, Note_off_c, 1, 78, 94
2, 18120, Note_on_c, 1, 74, 79
2, 18137, Note_off_c, 1, 74, 67
2, 18168, Note_on_c, 1, 78, 83
2, 18188, Note_off_c, 1, 78, 84
2, 18192, Note_on_c, 1, 74, 94
2, 18207, Note_off_c, 1, 74, 84
2, 18240, Note_on_c, 1, 78, 90
2, 18257, Note_off_c, 1, 78, 96
2, 18264, Note_on_c, 1, 74, 73
2, 18288, Note_off_c, 1, 74, 48
2, 18336, Note_on_c, 1, 78, 83
2, 18417, Note_off_c, 1, 78, 79
2, 18432, Note_on_c, 1, 74, 88
2, 18455, Note_off_c, 1, 74, 59
2, 18480, Note_on_c, 1, 78, 74
2, 18502, Note_off_c, 1, 78, 84
2, 18504, Note_on_c, 1, 74, 83
2, 18525, Note_off_c, 1, 74, 63
2, 18552, Note_on_c, 1, 78, 83
2, 18570, Note_off_c, 1, 78, 79
2, 18576, Note_on_c, 1, 74, 70
2, 18594, Note_off_c, 1, 74, 63
2, 18624, Note_on_c, 1, 78, 83
2, 18645, Note_off_c, 1, 78, 77
2, 18648, Note_on_c, 1, 74, 85
2, 18673, Note_off_c, 1, 74, 42
2, 18720, Note_on_c, 1, 78, 83
2, 18807, Note_off_c, 1, 78, 70
2, 18816, Note_on_c, 1, 74, 81
2, 18837, Note_off_c, 1, 74, 61
2, 18864, Note_on_c, 1, 78, 90
2, 18885, Note_off_c, 1, 78, 88
2, 18888, Note_on_c, 1, 74, 81
2, 18905, Note_off_c, 1, 74, 63
2, 18936, Note_on_c, 1, 78, 83
2, 18956, Note_off_c, 1, 78, 94
2, 18960, Note_on_c, 1, 74, 77
2, 18982, Note_off_c, 1, 74, 43
2, 19008, Note_on_c, 1, 78, 90
2, 19028, Note_off_c, 1, 78, 90
2, 19032, Note_on_c, 1, 74, 79
2, 19055, Note_off_c, 1, 74, 43
2, 19104, Note_on_c, 1, 78, 83
2, 19181, Note_off_c, 1, 78, 63
2, 19200, Note_on_c, 1, 74, 91
2, 19218, Note_off_c, 1, 74, 55
2, 19248, Note_on_c, 1, 78, 90
2, 19266, Note_off_c, 1, 78, 96
2, 19272, Note_on_c, 1, 74, 70
2, 19286, Note_off_c, 1, 74, 63
2, 19320, Note_on_c, 1, 78, 76
2, 19340, Note_off_c, 1, 78, 82
2, 19344, Note_on_c, 1, 74, 85
2, 19361, Note_off_c, 1, 74, 73
2, 19392, Note_on_c, 1, 78, 83
2, 19411, Note_off_c, 1, 78, 88
2, 19416, Note_on_c, 1, 74, 79
2, 19435, Note_off_c, 1, 74, 61
2, 19488, Note_on_c, 1, 78, 90
2, 19561, Note_off_c, 1, 78, 58
2, 19584, Note_on_c, 1, 74, 94
2, 19608, Note_off_c, 1, 74, 70
2, 19632, Note_on_c, 1, 78, 83
2, 19652, Note_off_c, 1, 78, 77
2, 19656, Note_on_c, 1, 74, 75
2, 19675, Note_off_c, 1, 74, 66
2, 19704, Note_on_c, 1, 78, 74
2, 19724, Note_off_c, 1, 78, 90
2, 19728, Note_on_c, 1, 74, 83
2, 19745, Note_off_c, 1, 74, 63
2, 19776, Note_on_c, 1, 78, 90
2, 19794, Note_off_c, 1, 78, 90
2, 19800, Note_on_c, 1, 74, 83
2, 19826, Note_off_c, 1, 74, 45
2, 19872, Note_on_c, 1, 78, 79
2, 19952, Note_off_c, 1, 78, 72
2, 19968, Note_on_c, 1, 74, 85
2, 19987, Note_off_c, 1, 74, 66
2, 20016, Note_on_c, 1, 78, 76
2, 20034, Note_off_c, 1, 78, 88
2, 20040, Note_on_c, 1, 74, 73
2, 20054, Note_off_c, 1, 74, 58
2, 20088, Note_on_c, 1, 78, 72
2, 20107, Note_off_c, 1, 78, 94
2, 20112, Note_on_c, 1, 74, 81
2, 20135, Note_off_c, 1, 74, 65
2, 20160, Note_on_c, 1, 78, 79
2, 20178, Note_off_c, 1, 78, 84
2, 20184, Note_on_c, 1, 74, 77
2, 20211, Note_off_c, 1, 74, 51
2, 20256, Note_on_c, 1, 78, 79
2, 20333, Note_off_c, 1, 78, 66
2, 20352, Note_on_c, 1, 74, 85
2, 20370, Note_off_c, 1, 74, 67
2, 20400, Note_on_c, 1, 78, 76
2, 20419, Note_off_c, 1, 78, 84
2, 20424, Note_on_c, 1, 74, 79
2, 20439, Note_off_c, 1, 74, 70
2, 20472, Note_on_c, 1, 78, 63
2, 20489, Note_off_c, 1, 78, 80
2, 20496, Note_on_c, 1, 74, 73
2, 20515, Note_off_c, 1, 74, 73
2, 20544, Note_on_c, 1, 78, 79
2, 20562, Note_off_c, 1, 78, 90
2, 20568, Note_on_c, 1, 74, 70
2, 20588, Note_off_c, 1, 74, 56
2, 20640, Note_on_c, 1, 78, 79
2, 20713, Note_off_c, 1, 78, 88
2, 20784, Note_on_c, 1, 74, 83
2, 20808, Note_on_c, 1, 79, 66
2, 20811, Note_off_c, 1, 74, 50
2, 20838, Note_off_c, 1, 79, 57
2, 20976, Note_on_c, 1, 74, 80
2, 21000, Note_on_c, 1, 79, 80
2, 21004, Note_off_c, 1, 74, 56
2, 21030, Note_off_c, 1, 79, 54
2, 21168, Note_on_c, 1, 74, 80
2, 21192, Note_on_c, 1, 79, 72
2, 21197, Note_off_c, 1, 74, 61
2, 21225, Note_off_c, 1, 79, 33
2, 21360, Note_on_c, 1, 74, 74
2, 21384, Note_on_c, 1, 79, 61
2, 21390, Note_off_c, 1, 74, 50
2, 21427, Note_off_c, 1, 79, 61
2, 21552, Note_on_c, 1, 74, 76
2, 21576, Note_on_c, 1, 79, 62
2, 21592, Note_off_c, 1, 74, 36
2, 21613, Note_off_c, 1, 79, 38
2, 21744, Note_on_c, 1, 74, 76
2, 21768, Note_on_c, 1, 79, 58
2, 21775, Note_off_c, 1, 74, 41
2, 21808, Note_off_c, 1, 79, 46
2, 21936, Note_on_c, 1, 74, 68
2, 21960, Note_on_c, 1, 79, 68
2, 21964, Note_off_c, 1, 74, 49
2, 21997, Note_off_c, 1, 79, 51
2, 22128, Note_on_c, 1, 74, 74
2, 22152, Note_on_c, 1, 79, 61
2, 22158, Note_off_c, 1, 74, 44
2, 22182, Note_off_c, 1, 79, 42
2, 22320, Note_on_c, 1, 74, 68
2, 22344, Note_on_c, 1, 79, 66
2, 22348, Note_off_c, 1, 74, 44
2, 22383, Note_off_c, 1, 79, 42
2, 22512, Note_on_c, 1, 74, 72
2, 22536, Note_on_c, 1, 79, 53
2, 22544, Note_off_c, 1, 74, 29
2, 22579, Note_off_c, 1, 79, 56
2, 22704, Note_on_c, 1, 74, 65
2, 22728, Note_on_c, 1, 79, 57
2, 22741, Note_off_c, 1, 74, 55
2, 22769, Note_off_c, 1, 79, 65
2, 22896, Note_on_c, 1, 74, 72
2, 22920, Note_on_c, 1, 79, 66
2, 22927, Note_off_c, 1, 74, 45
2, 22958, Note_off_c, 1, 79, 59
2, 23088, Note_on_c, 1, 74, 70
2, 23112, Note_on_c, 1, 79, 68
2, 23123, Note_off_c, 1, 74, 56
2, 23152, Note_off_c, 1, 79, 46
2, 23280, Note_on_c, 1, 74, 78
2, 23304, Note_on_c, 1, 79, 62
2, 23320, Note_off_c, 1, 74, 29
2, 23339, Note_off_c, 1, 79, 43
2, 23472, Note_on_c, 1, 74, 72
2, 23496, Note_on_c, 1, 79, 66
2, 23513, Note_off_c, 1, 74, 40
2, 23533, Note_off_c, 1, 79, 41
2, 23664, Note_on_c, 1, 74, 72
2, 23688, Note_on_c, 1, 79, 65
2, 23710, Note_off_c, 1, 74, 62
2, 23717, Note_off_c, 1, 79, 77
2, 23856, Note_on_c, 1, 78, 101
2, 23876, Note_off_c, 1, 78, 75
2, 23880, Note_on_c, 1, 74, 96
2, 23904, Note_off_c, 1, 74, 54
2, 23928, Note_on_c, 1, 78, 93
2, 23949, Note_off_c, 1, 78, 94
2, 23952, Note_on_c, 1, 74, 92
2, 23976, Note_off_c, 1, 74, 66
2, 24000, Note_on_c, 1, 78, 93
2, 24019, Note_off_c, 1, 78, 94
2, 24024, Note_on_c, 1, 74, 89
2, 24046, Note_off_c, 1, 74, 66
2, 24096, Note_on_c, 1, 78, 109
2, 24155, Note_off_c, 1, 78, 56
2, 24240, Note_on_c, 1, 78, 93
2, 24260, Note_off_c, 1, 78, 82
2, 24264, Note_on_c, 1, 74, 83
2, 24283, Note_off_c, 1, 74, 54
2, 24312, Note_on_c, 1, 78, 109
2, 24333, Note_off_c, 1, 78, 90
2, 24336, Note_on_c, 1, 74, 92
2, 24357, Note_off_c, 1, 74, 51
2, 24384, Note_on_c, 1, 78, 101
2, 24401, Note_off_c, 1, 78, 99
2, 24408, Note_on_c, 1, 74, 86
2, 24432, Note_off_c, 1, 74, 57
2, 24480, Note_on_c, 1, 78, 109
2, 24538, Note_off_c, 1, 78, 73
2, 24624, Note_on_c, 1, 78, 116
2, 24642, Note_off_c, 1, 78, 92
2, 24648, Note_on_c, 1, 74, 92
2, 24668, Note_off_c, 1, 74, 57
2, 24696, Note_on_c, 1, 78, 101
2, 24715, Note_off_c, 1, 78, 88
2, 24720, Note_on_c, 1, 74, 96
2, 24738, Note_off_c, 1, 74, 59
2, 24768, Note_on_c, 1, 78, 116
2, 24786, Note_off_c, 1, 78, 86
2, 24816, Note_on_c, 1, 74, 83
2, 24843, Note_off_c, 1, 74, 65
2, 24864, Note_on_c, 1, 78, 109
2, 24932, Note_off_c, 1, 78, 57
2, 25008, Note_on_c, 1, 78, 109
2, 25031, Note_off_c, 1, 78, 77
2, 25032, Note_on_c, 1, 74, 89
2, 25051, Note_off_c, 1, 74, 67
2, 25080, Note_on_c, 1, 78, 101
2, 25100, Note_off_c, 1, 78, 84
2, 25104, Note_on_c, 1, 74, 92
2, 25123, Note_off_c, 1, 74, 69
2, 25152, Note_on_c, 1, 78, 109
2, 25174, Note_off_c, 1, 78, 96
2, 25200, Note_on_c, 1, 74, 96
2, 25224, Note_off_c, 1, 74, 49
2, 25248, Note_on_c, 1, 78, 109
2, 25306, Note_off_c, 1, 78, 53
2, 25392, Note_on_c, 1, 78, 109
2, 25414, Note_off_c, 1, 78, 92
2, 25416, Note_on_c, 1, 74, 92
2, 25436, Note_off_c, 1, 74, 50
2, 25464, Note_on_c, 1, 78, 101
2, 25485, Note_off_c, 1, 78, 96
2, 25488, Note_on_c, 1, 74, 92
2, 25508, Note_off_c, 1, 74, 56
2, 25536, Note_on_c, 1, 78, 109
2, 25554, Note_off_c, 1, 78, 96
2, 25560, Note_on_c, 1, 74, 96
2, 25589, Note_off_c, 1, 74, 65
2, 25632, Note_on_c, 1, 78, 109
2, 25681, Note_off_c, 1, 78, 42
2, 25776, Note_on_c, 1, 78, 116
2, 25797, Note_off_c, 1, 78, 94
2, 25800, Note_on_c, 1, 74, 78
2, 25820, Note_off_c, 1, 74, 62
2, 25848, Note_on_c, 1, 78, 93
2, 25871, Note_off_c, 1, 78, 92
2, 25872, Note_on_c, 1, 74, 92
2, 25896, Note_off_c, 1, 74, 63
2, 25920, Note_on_c, 1, 78, 101
2, 25943, Note_off_c, 1, 78, 92
2, 25944, Note_on_c, 1, 74, 83
2, 25972, Note_off_c, 1, 74, 63
2, 26016, Note_on_c, 1, 78, 109
2, 26065, Note_off_c, 1, 78, 35
2, 26160, Note_on_c, 1, 78, 116
2, 26182, Note_off_c, 1, 78, 88
2, 26184, Note_on_c, 1, 74, 89
2, 26202, Note_off_c, 1, 74, 54
2, 26232, Note_on_c, 1, 78, 101
2, 26254, Note_off_c, 1, 78, 96
2, 26256, Note_on_c, 1, 74, 86
2, 26273, Note_off_c, 1, 74, 86
2, 26304, Note_on_c, 1, 78, 101
2, 26327, Note_off_c, 1, 78, 94
2, 26328, Note_on_c, 1, 74, 86
2, 26351, Note_off_c, 1, 74, 57
2, 26400, Note_on_c, 1, 78, 101
2, 26441, Note_off_c, 1, 78, 36
2, 26544, Note_on_c, 1, 78, 109
2, 26563, Note_off_c, 1, 78, 96
2, 26568, Note_on_c, 1, 74, 86
2, 26585, Note_off_c, 1, 74, 80
2, 26616, Note_on_c, 1, 78, 101
2, 26638, Note_off_c, 1, 78, 86
2, 26640, Note_on_c, 1, 74, 89
2, 26662, Note_off_c, 1, 74, 66
2, 26688, Note_on_c, 1, 78, 93
2, 26709, Note_off_c, 1, 78, 101
2, 26712, Note_on_c, 1, 74, 86
2, 26736, Note_off_c, 1, 74, 42
2, 26784, Note_on_c, 1, 78, 116
2, 26843, Note_off_c, 1, 78, 70
2, 26928, Note_on_c, 1, 74, 83
2, 26952, Note_on_c, 1, 79, 66
2, 26955, Note_off_c, 1, 74, 50
2, 26982, Note_off_c, 1, 79, 57
2, 27120, Note_on_c, 1, 74, 80
2, 27144, Note_on_c, 1, 79, 80
2, 27148, Note_off_c, 1, 74, 56
2, 27174, Note_off_c, 1, 79, 54
2, 27312, Note_on_c, 1, 74, 80
2, 27336, Note_on_c, 1, 79, 72
2, 27341, Note_off_c, 1, 74, 61
2, 27369, Note_off_c, 1, 79, 33
2, 27504, Note_on_c, 1, 74, 74
2, 27528, Note_on_c, 1, 79, 61
2, 27534, Note_off_c, 1, 74, 50
2, 27571, Note_off_c, 1, 79, 61
2, 27696, Note_on_c, 1, 74, 76
2, 27720, Note_on_c, 1, 79, 62
2, 27736, Note_off_c, 1, 74, 36
2, 27757, Note_off_c, 1, 79, 38
2, 27888, Note_on_c, 1, 74, 76
2, 27912, Note_on_c, 1, 79, 58
2, 27919, Note_off_c, 1, 74, 41
2, 27952, Note_off_c, 1, 79, 46
2, 28080, Note_on_c, 1, 74, 68
2, 28104, Note_on_c, 1, 79, 68
2, 28108, Note_off_c, 1, 74, 49
2, 28141, Note_off_c, 1, 79, 51
2, 28272, Note_on_c, 1, 74, 74
2, 28296, Note_on_c, 1, 79, 61
2, 28302, Note_off_c, 1, 74, 44
2, 28326, Note_off_c, 1, 79, 42
2, 28464, Note_on_c, 1, 74, 68
2, 28488, Note_on_c, 1, 79, 66
2, 28492, Note_off_c, 1, 74, 44
2, 28527, Note_off_c, 1, 79, 42
2, 28656, Note_on_c, 1, 74, 72
2, 28680, Note_on_c, 1, 79, 53
2, 28688, Note_off_c, 1, 74, 29
2, 28723, Note_off_c, 1, 79, 56
2, 28848, Note_on_c, 1, 74, 65
2, 28872, Note_on_c, 1, 79, 57
2, 28885, Note_off_c, 1, 74, 55
2, 28913, Note_off_c, 1, 79, 65
2, 29040, Note_on_c, 1, 74, 72
2, 29064, Note_on_c, 1, 79, 66
2, 29071, Note_off_c, 1, 74, 45
2, 29102, Note_off_c, 1, 79, 59
2, 29232, Note_on_c, 1, 74, 70
2, 29256, Note_on_c, 1, 79, 68
2, 29267, Note_off_c, 1, 74, 56
2, 29296, Note_off_c, 1, 79, 46
2, 29424, Note_on_c, 1, 74, 78
2, 29448, Note_on_c, 1, 79, 62
2, 29464, Note_off_c, 1, 74, 29
2, 29483, Note_off_c, 1, 79, 43
2, 29616, Note_on_c, 1, 74, 72
2, 29640, Note_on_c, 1, 79, 66
2, 29657, Note_off_c, 1, 74, 40
2, 29677, Note_off_c, 1, 79, 41
2, 29808, Note_on_c, 1, 74, 72
2, 29832, Note_on_c, 1, 79, 65
2, 29854, Note_off_c, 1, 74, 62
2, 29861, Note_off_c, 1, 79, 77
2, 30000, Note_on_c, 1, 74, 83
2, 30024, Note_on_c, 1, 79, 66
2, 30027, Note_off_c, 1, 74, 50
2, 30054, Note_off_c, 1, 79, 57
2, 30192, Note_on_c, 1, 74, 80
2, 30216, Note_on_c, 1, 79, 80
2, 30220, Note_off_c, 1, 74, 56
2, 30246, Note_off_c, 1, 79, 54
2, 30384, Note_on_c, 1, 74, 80
2, 30408, Note_on_c, 1, 79, 72
2, 30413, Note_off_c, 1, 74, 61
2, 30441, Note_off_c, 1, 79, 33
2, 30576, Note_on_c, 1, 74, 74
2, 30600, Note_on_c, 1, 79, 61
2, 30606, Note_off_c, 1, 74, 50
2, 30643, Note_off_c, 1, 79, 61
2, 30768, Note_on_c, 1, 74, 76
2, 30792, Note_on_c, 1, 79, 62
2, 30808, Note_off_c, 1, 74, 36
2, 30829, Note_off_c, 1, 79, 38
2, 30960, Note_on_c, 1, 74, 76
2, 30984, Note_on_c, 1, 79, 58
2, 30991, Note_off_c, 1, 74, 41
2, 31024, Note_off_c, 1, 79, 46
2, 31152, Note_on_c, 1, 74, 68
2, 31176, Note_on_c, 1, 79, 68
2, 31180, Note_off_c, 1, 74, 49
2, 31213, Note_off_c, 1, 79, 51
2, 31344, Note_on_c, 1, 74, 74
2, 31368, Note_on_c, 1, 79, 61
2, 31374, Note_off_c, 1, 74, 44
2, 31398, Note_off_c, 1, 79, 42
2, 31536, Note_on_c, 1, 74, 68
2, 31560, Note_on_c, 1, 79, 66
2, 31564, Note_off_c, 1, 74, 44
2, 31599, Note_off_c, 1, 79, 42
2, 31728, Note_on_c, 1, 74, 72
2, 31752, Note_on_c, 1, 79, 53
2, 31760, Note_off_c, 1, 74, 29
2, 31795, Note_off_c, 1, 79, 56
2, 31920, Note_on_c, 1, 74, 65
2, 31944, Note_on_c, 1, 79, 57
2, 31957, Note_off_c, 1, 74, 55
2, 31985, Note_off_c, 1, 79, 65
2, 32112, Note_on_c, 1, 74, 72
2, 32136, Note_on_c, 1, 79, 66
2, 32143, Note_off_c, 1, 74, 45
2, 32174, Note_off_c, 1, 79, 59
2, 32304, Note_on_c, 1, 74, 70
2, 32328, Note_on_c, 1, 79, 68
2, 32339, Note_off_c, 1, 74, 56
2, 32368, Note_off_c, 1, 79, 46
2, 32496, Note_on_c, 1, 74, 78
2, 32520, Note_on_c, 1, 79, 62
2, 32536, Note_off_c, 1, 74, 29
2, 32555, Note_off_c, 1, 79, 43
2, 32688, Note_on_c, 1, 74, 72
2, 32712, Note_on_c, 1, 79, 66
2, 32729, Note_off_c, 1, 74, 40
2, 32749, Note_off_c, 1, 79, 41
2, 32880, Note_on_c, 1, 74, 72
2, 32904, Note_on_c, 1, 79, 65
2, 32926, Note_off_c, 1, 74, 62
2, 32933, Note_off_c, 1, 79, 77
2, 33072, Note_on_c, 1, 74, 83
2, 33096, Note_on_c, 1, 79, 66
2, 33099, Note_off_c, 1, 74, 50
2, 33126, Note_off_c, 1, 79, 57
2, 33264, Note_on_c, 1, 74, 80
2, 33288, Note_on_c, 1, 79, 80
2, 33292, Note_off_c, 1, 74, 56
2, 33318, Note_off_c, 1, 79, 54
2, 33456, Note_on_c, 1, 74, 80
2, 33480, Note_on_c, 1, 79, 72
2, 33485, Note_off_c, 1, 74, 61
2, 33513, Note_off_c, 1, 79, 33
2, 33648, Note_on_c, 1, 74, 74
2, 33672, Note_on_c, 1, 79, 61
2, 33678, Note_off_c, 1, 74, 50
2, 33715, Note_off_c, 1, 79, 61
2, 33840, Note_on_c, 1, 74, 76
2, 33864, Note_on_c, 1, 79, 62
2, 33880, Note_off_c, 1, 74, 36
2, 33901, Note_off_c, 1, 79, 38
2, 34032, Note_on_c, 1, 74, 76
2, 34056, Note_on_c, 1, 79, 58
2, 34063, Note_off_c, 1, 74, 41
2, 34096, Note_off_c, 1, 79, 46
2, 34224, Note_on_c, 1, 74, 68
2, 34248, Note_on_c, 1, 79, 68
2, 34252, Note_off_c, 1, 74, 49
2, 34285, Note_off_c, 1, 79, 51
2, 34416, Note_on_c, 1, 74, 74
2, 34440, Note_on_c, 1, 79, 61
2, 34446, Note_off_c, 1, 74, 44
2, 34470, Note_off_c, 1, 79, 42
2, 34608, Note_on_c, 1, 74, 68
2, 34632, Note_on_c, 1, 79, 66
2, 34636, Note_off_c, 1, 74, 44
2, 34671, Note_off_c, 1, 79, 42
2, 34800, Note_on_c, 1, 74, 72
2, 34824, Note_on_c, 1, 79, 53
2, 34832, Note_off_c, 1, 74, 29
2, 34867, Note_off_c, 1, 79, 56
2, 34992, Note_on_c, 1, 74, 65
2, 35016, Note_on_c, 1, 79, 57
2, 35029, Note_off_c, 1, 74, 55
2, 35057, Note_off_c, 1, 79, 65
2, 35184, Note_on_c, 1, 74, 72
2, 35208, Note_on_c, 1, 79, 66
2, 35215, Note_off_c, 1, 74, 45
2, 35246, Note_off_c, 1, 79, 59
2, 35376, Note_on_c, 1, 74, 70
2, 35400, Note_on_c, 1, 79, 68
2, 35411, Note_off_c, 1, 74, 56
2, 35440, Note_off_c, 1, 79, 46
2, 35568, Note_on_c, 1, 74, 78
2, 35592, Note_on_c, 1, 79, 62
2, 35608, Note_off_c, 1, 74, 29
2, 35627, Note_off_c, 1, 79, 43
2, 35760, Note_on_c, 1, 74, 72
2, 35784, Note_on_c, 1, 79, 66
2, 35801, Note_off_c, 1, 74, 40
2, 35821, Note_off_c, 1, 79, 41
2, 35952, Note_on_c, 1, 74, 72
2, 35976, Note_on_c, 1, 79, 65
2, 35998, Note_off_c, 1, 74, 62
2, 36005, Note_off_c, 1, 79, 77
2, 36144, Note_on_c, 1, 78, 101
2, 36164, Note_off_c, 1, 78, 75
2, 36168, Note_on_c, 1, 74, 96
2, 36192, Note_off_c, 1, 74, 54
2, 36216, Note_on_c, 1, 78, 93
2, 36237, Note_off_c, 1, 78, 94
2, 36240, Note_on_c, 1, 74, 92
2, 36264, Note_off_c, 1, 74, 66
2, 36288, Note_on_c, 1, 78, 93
2, 36307, Note_off_c, 1, 78, 94
2, 36312, Note_on_c, 1, 74, 89
2, 36334, Note_off_c, 1, 74, 66
2, 36384, Note_on_c, 1, 78, 109
2, 36443, Note_off_c, 1, 78, 56
2, 36528, Note_on_c, 1, 78, 93
2, 36548, Note_off_c, 1, 78, 82
2, 36552, Note_on_c, 1, 74, 83
2, 36571, Note_off_c, 1, 74, 54
2, 36600, Note_on_c, 1, 78, 109
2, 36621, Note_off_c, 1, 78, 90
2, 36624, Note_on_c, 1, 74, 92
2, 36645, Note_off_c, 1, 74, 51
2, 36672, Note_on_c, 1, 78, 101
2, 36689, Note_off_c, 1, 78, 99
2, 36696, Note_on_c, 1, 74, 86
2, 36720, Note_off_c, 1, 74, 57
2, 36768, Note_on_c, 1, 78, 109
2, 36826, Note_off_c, 1, 78, 73
2, 36912, Note_on_c, 1, 78, 116
2, 36930, Note_off_c, 1, 78, 92
2, 36936, Note_on_c, 1, 74, 92
2, 36956, Note_off_c, 1, 74, 57
2, 36984, Note_on_c, 1, 78, 101
2, 37003, Note_off_c, 1, 78, 88
2, 37008, Note_on_c, 1, 74, 96
2, 37026, Note_off_c, 1, 74, 59
2, 37056, Note_on_c, 1, 78, 116
2, 37074, Note_off_c, 1, 78, 86
2, 37104, Note_on_c, 1, 74, 83
2, 37131, Note_off_c, 1, 74, 65
2, 37152, Note_on_c, 1, 78, 109
2, 37220, Note_off_c, 1, 78, 57
2, 37296, Note_on_c, 1, 78, 109
2, 37319, Note_off_c, 1, 78, 77
2, 37320, Note_on_c, 1, 74, 89
2, 37339, Note_off_c, 1, 74, 67
2, 37368, Note_on_c, 1, 78, 101
2, 37388, Note_off_c, 1, 78, 84
2, 37392, Note_on_c, 1, 74, 92
2, 37411, Note_off_c, 1, 74, 69
2, 37440, Note_on_c, 1, 78, 109
2, 37462, Note_off_c, 1, 78, 96
2, 37488, Note_on_c, 1, 74, 96
2, 37512, Note_off_c, 1, 74, 49
2, 37536, Note_on_c, 1, 78, 109
2, 37594, Note_off_c, 1, 78, 53
2, 37680, Note_on_c, 1, 78, 109
2, 37702, Note_off_c, 1, 78, 92
2, 37704, Note_on_c, 1, 74, 92
2, 37724, Note_off_c, 1, 74, 50
2, 37752, Note_on_c, 1, 78, 101
2, 37773, Note_off_c, 1, 78, 96
2, 37776, Note_on_c, 1, 74, 92
2, 37796, Note_off_c, 1, 74, 56
2, 37824, Note_on_c, 1, 78, 109
2, 37842, Note_off_c, 1, 78, 96
2, 37848, Note_on_c, 1, 74, 96
2, 37877, Note_off_c, 1, 74, 65
2, 37920, Note_on_c, 1, 78, 109
2, 37969, Note_off_c, 1, 78, 42
2, 38064, Note_on_c, 1, 78, 116
2, 38085, Note_off_c, 1, 78, 94
2, 38088, Note_on_c, 1, 74, 78
2, 38108, Note_off_c, 1, 74, 62
2, 38136, Note_on_c, 1, 78, 93
2, 38159, Note_off_c, 1, 78, 92
2, 38160, Note_on_c, 1, 74, 92
2, 38184, Note_off_c, 1, 74, 63
2, 38208, Note_on_c, 1, 78, 101
2, 38231, Note_off_c, 1, 78, 92
2, 38232, Note_on_c, 1, 74, 83
2, 38260, Note_off_c, 1, 74, 63
2, 38304, Note_on_c, 1, 78, 109
2, 38353, Note_off_c, 1, 78, 35
2, 38448, Note_on_c, 1, 78, 116
2, 38470, Note_off_c, 1, 78, 88
2, 38472, Note_on_c, 1, 74, 89
2, 38490, Note_off_c, 1, 74, 54
2, 38520, Note_on_c, 1, 78, 101
2, 38542, Note_off_c, 1, 78, 96
2, 38544, Note_on_c, 1, 74, 86
2, 38561, Note_off_c, 1, 74, 86
2, 38592, Note_on_c, 1, 78, 101
2, 38615, Note_off_c, 1, 78, 94
2, 38616, Note_on_c, 1, 74, 86
2, 38639, Note_off_c, 1, 74, 57
2, 38688, Note_on_c, 1, 78, 101
2, 38729, Note_off_c, 1, 78, 36
2, 38832, Note_on_c, 1, 78, 109
2, 38851, Note_off_c, 1, 78, 96
2, 38856, Note_on_c, 1, 74, 86
2, 38873, Note_off_c, 1, 74, 80
2, 38904, Note_on_c, 1, 78, 101
2, 38926, Note_off_c, 1, 78, 86
2, 38928, Note_on_c, 1, 74, 89
2, 38950, Note_off_c, 1, 74, 66
2, 38976, Note_on_c, 1, 78, 93
2, 38997, Note_off_c, 1, 78, 101
2, 39000, Note_on_c, 1, 74, 86
2, 39024, Note_off_c, 1, 74, 42
2, 39072, Note_on_c, 1, 78, 116
2, 39131, Note_off_c, 1, 78, 70
2, 39216, Note_on_c, 1, 74, 83
2, 39240, Note_on_c, 1, 79, 66
2, 39243, Note_off_c, 1, 74, 50
2, 39270, Note_off_c, 1, 79, 57
2, 39408, Note_on_c, 1, 74, 80
2, 39432, Note_on_c, 1, 79, 80
2, 39436, Note_off_c, 1, 74, 56
2, 39462, Note_off_c, 1, 79, 54
2, 39600, Note_on_c, 1, 74, 80
2, 39624, Note_on_c, 1, 79, 72
2, 39629, Note_off_c, 1, 74, 61
2, 39657, Note_off_c, 1, 79, 33
2, 39792, Note_on_c, 1, 74, 74
2, 39816, Note_on_c, 1, 79, 61
2, 39822, Note_off_c, 1, 74, 50
2, 39859, Note_off_c, 1, 79, 61
2, 39984, Note_on_c, 1, 74, 76
2, 40008, Note_on_c, 1, 79, 62
2, 40024, Note_off_c, 1, 74, 36
2, 40045, Note_off_c, 1, 79, 38
2, 40176, Note_on_c, 1, 74, 76
2, 40200, Note_on_c, 1, 79, 58
2, 40207, Note_off_c, 1, 74, 41
2, 40240, Note_off_c, 1, 79, 46
2, 40368, Note_on_c, 1, 74, 68
2, 40392, Note_on_c, 1, 79, 68
2, 40396, Note_off_c, 1, 74, 49
2, 40429, Note_off_c, 1, 79, 51
2, 40560, Note_on_c, 1, 74, 74
2, 40584, Note_on_c, 1, 79, 61
2, 40590, Note_off_c, 1, 74, 44
2, 40614, Note_off_c, 1, 79, 42
2, 40752, Note_on_c, 1, 74, 68
2, 40776, Note_on_c, 1, 79, 66
2, 40780, Note_off_c, 1, 74, 44
2, 40815, Note_off_c, 1, 79, 42
2, 40944, Note_on_c, 1, 74, 72
2, 40968, Note_on_c, 1, 79, 53
2, 40976, Note_off_c, 1, 74, 29
2, 41011, Note_off_c, 1, 79, 56
2, 41136, Note_on_c, 1, 74, 65
2, 41160, Note_on_c, 1, 79, 57
2, 41173, Note_off_c, 1, 74, 55
2, 41201, Note_off_c, 1, 79, 65
2, 41328, Note_on_c, 1, 74, 72
2, 41352, Note_on_c, 1, 79, 66
2, 41359, Note_off_c, 1, 74, 45
2, 41390, Note_off_c, 1, 79, 59
2, 41520, Note_on_c, 1, 74, 70
2, 41544, Note_on_c, 1, 79, 68
2, 41555, Note_off_c, 1, 74, 56
2, 41584, Note_off_c, 1, 79, 46
2, 41712, Note_on_c, 1, 74, 78
2, 41736, Note_on_c, 1, 79, 62
2, 41752, Note_off_c, 1, 74, 29
2, 41771, Note_off_c, 1, 79, 43
2, 41904, Note_on_c, 1, 74, 72
2, 41928, Note_on_c, 1, 79, 66
2, 41945, Note_off_c, 1, 74, 40
2, 41965, Note_off_c, 1, 79, 41
2, 42096, Note_on_c, 1, 74, 72
2, 42120, Note_on_c, 1, 79, 65
2, 42142, Note_off_c, 1, 74, 62
2, 42149, Note_off_c, 1, 79, 77
2, 42288, Note_on_c, 1, 74, 83
2, 42312, Note_on_c, 1, 79, 66
2, 42315, Note_off_c, 1, 74, 50
2, 42342, Note_off_c, 1, 79, 57
2, 42480, Note_on_c, 1, 74, 80
2, 42504, Note_on_c, 1, 79, 80
2, 42508, Note_off_c, 1, 74, 56
2, 42534, Note_off_c, 1, 79, 54
2, 42672, Note_on_c, 1, 74, 80
2, 42696, Note_on_c, 1, 79, 72
2, 42701, Note_off_c, 1, 74, 61
2, 42729, Note_off_c, 1, 79, 33
2, 42864, Note_on_c, 1, 74, 74
2, 42888, Note_on_c, 1, 79, 61
2, 42894, Note_off_c, 1, 74, 50
2, 42931, Note_off_c, 1, 79, 61
2, 43056, Note_on_c, 1, 74, 76
2, 43080, Note_on_c, 1, 79, 62
2, 43096, Note_off_c, 1, 74, 36
2, 43117, Note_off_c, 1, 79, 38
2, 43248, Note_on_c, 1, 74, 76
2, 43272, Note_on_c, 1, 79, 58
2, 43279, Note_off_c, 1, 74, 41
2, 43312, Note_off_c, 1, 79, 46
2, 43440, Note_on_c, 1, 74, 68
2, 43464, Note_on_c, 1, 79, 68
2, 43468, Note_off_c, 1, 74, 49
2, 43501, Note_off_c, 1, 79, 51
2, 43632, Note_on_c, 1, 74, 74
2, 43656, Note_on_c, 1, 79, 61
2, 43662, Note_off_c, 1, 74, 44
2, 43686, Note_off_c, 1, 79, 42
2, 43824, Note_on_c, 1, 74, 68
2, 43848, Note_on_c, 1, 79, 66
2, 43852, Note_off_c, 1, 74, 44
2, 43887, Note_off_c, 1, 79, 42
2, 44016, Note_on_c, 1, 74, 72
2, 44040, Note_on_c, 1, 79, 53
2, 44048, Note_off_c, 1, 74, 29
2, 44083, Note_off_c, 1, 79, 56
2, 44208, Note_on_c, 1, 74, 65
2, 44232, Note_on_c, 1, 79, 57
2, 44245, Note_off_c, 1, 74, 55
2, 44273, Note_off_c, 1, 79, 65
2, 44400, Note_on_c, 1, 74, 72
2, 44424, Note_on_c, 1, 79, 66
2, 44431, Note_off_c, 1, 74, 45
2, 44462, Note_off_c, 1, 79, 59
2, 44592, Note_on_c, 1, 74, 70
2, 44616, Note_on_c, 1, 79, 68
2, 44627, Note_off_c, 1, 74, 56
2, 44656, Note_off_c, 1, 79, 46
2, 44784, Note_on_c, 1, 74, 78
2, 44808, Note_on_c, 1, 79, 62
2, 44824, Note_off_c, 1, 74, 29
2, 44843, Note_off_c, 1, 79, 43
2, 44976, Note_on_c, 1, 74, 72
2, 45000, Note_on_c, 1, 79, 66
2, 45017, Note_off_c, 1, 74, 40
2, 45037, Note_off_c, 1, 79, 41
2, 45168, Note_on_c, 1, 74, 72
2, 45192, Note_on_c, 1, 79, 65
2, 45214, Note_off_c, 1, 74, 62
2, 45221, Note_off_c, 1, 79, 77
2, 45360, Note_on_c, 1, 74, 83
2, 45384, Note_on_c, 1, 79, 66
2, 45387, Note_off_c, 1, 74, 50
2, 45414, Note_off_c, 1, 79, 57
2, 45552, Note_on_c, 1, 74, 80
2, 45576, Note_on_c, 1, 79, 80
2, 45580, Note_off_c, 1, 74, 56
2, 45606, Note_off_c, 1, 79, 54
2, 45744, Note_on_c, 1, 74, 80
2, 45768, Note_on_c, 1, 79, 72
2, 45773, Note_off_c, 1, 74, 61
2, 45801, Note_off_c, 1, 79, 33
2, 45936, Note_on_c, 1, 74, 74
2, 45960, Note_on_c, 1, 79, 61
2, 45966, Note_off_c, 1, 74, 50
2, 46003, Note_off_c, 1, 79, 61
2, 46128, Note_on_c, 1, 74, 76
2, 46152, Note_on_c, 1, 79, 62
2, 46168, Note_off_c, 1, 74, 36
2, 46189, Note_off_c, 1, 79, 38
2, 46320, Note_on_c, 1, 74, 76
2, 46344, Note_on_c, 1, 79, 58
2, 46351, Note_off_c, 1, 74, 41
2, 46384, Note_off_c, 1, 79, 46
2, 46512, Note_on_c, 1, 74, 68
2, 46536, Note_on_c, 1, 79, 68
2, 46540, Note_off_c, 1, 74, 49
2, 46573, Note_off_c, 1, 79, 51
2, 46704, Note_on_c, 1, 74, 74
2, 46728, Note_on_c, 1, 79, 61
2, 46734, Note_off_c, 1, 74, 44
2, 46758, Note_off_c, 1, 79, 42
2, 46896, Note_on_c, 1, 74, 68
2, 46920, Note_on_c, 1, 79, 66
2, 46924, Note_off_c, 1, 74, 44
2, 46959, Note_off_c, 1, 79, 42
2, 47088, Note_on_c, 1, 74, 72
2, 47112, Note_on_c, 1, 79, 53
2, 47120, Note_off_c, 1, 74, 29
2, 47155, Note_off_c, 1, 79, 56
2, 47280, Note_on_c, 1, 74, 65
2, 47304, Note_on_c, 1, 79, 57
2, 47317, Note_off_c, 1, 74, 55
2, 47345, Note_off_c, 1, 79, 65
2, 47472, Note_on_c, 1, 74, 72
2, 47496, Note_on_c, 1, 79, 66
2, 47503, Note_off_c, 1, 74, 45
2, 47534, Note_off_c, 1, 79, 59
2, 47664, Note_on_c, 1, 74, 70
2, 47688, Note_on_c, 1, 79, 68
2, 47699, Note_off_c, 1, 74, 56
2, 47728, Note_off_c, 1, 79, 46
2, 47856, Note_on_c, 1, 74, 78
2, 47880, Note_on_c, 1, 79, 62
2, 47896, Note_off_c, 1, 74, 29
2, 47915, Note_off_c, 1, 79, 43
2, 48048, Note_on_c, 1, 74, 72
2, 48072, Note_on_c, 1, 79, 66
2, 48089, Note_off_c, 1, 74, 40
2, 48109, Note_off_c, 1, 79, 41
2, 48240, Note_on_c, 1, 74, 72
2, 48264, Note_on_c, 1, 79, 65
2, 48286, Note_off_c, 1, 74, 62
2, 48293, Note_off_c, 1, 79, 77
2, 48432, Note_on_c, 1, 74, 83
2, 48456, Note_on_c, 1, 79, 66
2, 48459, Note_off_c, 1, 74, 50
2, 48486, Note_off_c, 1, 79, 57
2, 48624, Note_on_c, 1, 74, 80
2, 48648, Note_on_c, 1, 79, 80
2, 48652, Note_off_c, 1, 74, 56
2, 48678, Note_off_c, 1, 79, 54
2, 48816, Note_on_c, 1, 74, 80
2, 48840, Note_on_c, 1, 79, 72
2, 48845, Note_off_c, 1, 74, 61
2, 48873, Note_off_c, 1, 79, 33
2, 49008, Note_on_c, 1, 74, 74
2, 49032, Note_on_c, 1, 79, 61
2, 49038, Note_off_c, 1, 74, 50
2, 49075, Note_off_c, 1, 79, 61
2, 49152, End_track
3, 0, Start_track
3, 0, Program_c, 2, 5
3, 24, Control_c, 2, 1, 0
3, 48, Control_c, 2, 7, 100
3, 72, Control_c, 2, 10, 65
3, 96, Control_c, 2, 11, 127
3, 120, Control_c, 2, 91, 90
3, 144, Pitch_bend_c, 2, 8192
3, 792, Note_on_c, 2, 67, 83
3, 810, Note_off_c, 2, 67, 58
3, 840, Note_on_c, 2, 67, 74
3, 862, Note_off_c, 2, 67, 46
3, 984, Note_on_c, 2, 67, 74
3, 1003, Note_off_c, 2, 67, 70
3, 1032, Note_on_c, 2, 67, 76
3, 1054, Note_off_c, 2, 67, 57
3, 1176, Note_on_c, 2, 67, 76
3, 1195, Note_off_c, 2, 67, 62
3, 1224, Note_on_c, 2, 67, 72
3, 1250, Note_off_c, 2, 67, 40
3, 1368, Note_on_c, 2, 67, 74
3, 1391, Note_off_c, 2, 67, 52
3, 1416, Note_on_c, 2, 67, 74
3, 1441, Note_off_c, 2, 67, 42
3, 1560, Note_on_c, 2, 67, 76
3, 1581, Note_off_c, 2, 67, 57
3, 1608, Note_on_c, 2, 67, 63
3, 1636, Note_off_c, 2, 67, 49
3, 1752, Note_on_c, 2, 67, 65
3, 1771, Note_off_c, 2, 67, 69
3, 1800, Note_on_c, 2, 67, 68
3, 1822, Note_off_c, 2, 67, 54
3, 1944, Note_on_c, 2, 67, 72
3, 1964, Note_off_c, 2, 67, 59
3, 1992, Note_on_c, 2, 67, 76
3, 2018, Note_off_c, 2, 67, 48
3, 2136, Note_on_c, 2, 67, 70
3, 2158, Note_off_c, 2, 67, 58
3, 2184, Note_on_c, 2, 67, 68
3, 2209, Note_off_c, 2, 67, 53
3, 2328, Note_on_c, 2, 67, 72
3, 2345, Note_off_c, 2, 67, 59
3, 2376, Note_on_c, 2, 67, 76
3, 2400, Note_off_c, 2, 67, 53
3, 2520, Note_on_c, 2, 67, 72
3, 2541, Note_off_c, 2, 67, 51
3, 2568, Note_on_c, 2, 67, 74
3, 2589, Note_off_c, 2, 67, 55
3, 2712, Note_on_c, 2, 67, 76
3, 2731, Note_off_c, 2, 67, 47
3, 2784, Note_on_c, 2, 67, 72
3, 2807, Note_off_c, 2, 67, 41
3, 2904, Note_on_c, 2, 67, 66
3, 2926, Note_off_c, 2, 67, 50
3, 2952, Note_on_c, 2, 67, 72
3, 2976, Note_off_c, 2, 67, 50
3, 3096, Note_on_c, 2, 67, 70
3, 3117, Note_off_c, 2, 67, 57
3, 3144, Note_on_c, 2, 67, 72
3, 3171, Note_off_c, 2, 67, 48
3, 3288, Note_on_c, 2, 67, 70
3, 3309, Note_off_c, 2, 67, 58
3, 3336, Note_on_c, 2, 67, 70
3, 3357, Note_off_c, 2, 67, 55
3, 3480, Note_on_c, 2, 67, 63
3, 3498, Note_off_c, 2, 67, 57
3, 3528, Note_on_c, 2, 67, 68
3, 3553, Note_off_c, 2, 67, 51
3, 3672, Note_on_c, 2, 67, 70
3, 3691, Note_off_c, 2, 67, 52
3, 3720, Note_on_c, 2, 67, 74
3, 3743, Note_off_c, 2, 67, 45
3, 3864, Note_on_c, 2, 67, 83
3, 3882, Note_off_c, 2, 67, 58
3, 3912, Note_on_c, 2, 67, 74
3, 3934, Note_off_c, 2, 67, 46
3, 4056, Note_on_c, 2, 67, 74
3, 4075, Note_off_c, 2, 67, 70
3, 4104, Note_on_c, 2, 67, 76
3, 4126, Note_off_c, 2, 67, 57
3, 4248, Note_on_c, 2, 67, 76
3, 4267, Note_off_c, 2, 67, 62
3, 4296, Note_on_c, 2, 67, 72
3, 4322, Note_off_c, 2, 67, 40
3, 4440, Note_on_c, 2, 67, 74
3, 4463, Note_off_c, 2, 67, 52
3, 4488, Note_on_c, 2, 67, 74
3, 4513, Note_off_c, 2, 67, 42
3, 4632, Note_on_c, 2, 67, 76
3, 4653, Note_off_c, 2, 67, 57
3, 4680, Note_on_c, 2, 67, 63
3, 4708, Note_off_c, 2, 67, 49
3, 4824, Note_on_c, 2, 67, 65
3, 4843, Note_off_c, 2, 67, 69
3, 4872, Note_on_c, 2, 67, 68
3, 4894, Note_off_c, 2, 67, 54
3, 5016, Note_on_c, 2, 67, 72
3, 5036, Note_off_c, 2, 67, 59
3, 5064, Note_on_c, 2, 67, 76
3, 5090, Note_off_c, 2, 67, 48
3, 5208, Note_on_c, 2, 67, 70
3, 5230, Note_off_c, 2, 67, 58
3, 5256, Note_on_c, 2, 67, 68
3, 5281, Note_off_c, 2, 67, 53
3, 5400, Note_on_c, 2, 67, 72
3, 5417, Note_off_c, 2, 67, 59
3, 5448, Note_on_c, 2, 67, 76
3, 5472, Note_off_c, 2, 67, 53
3, 5592, Note_on_c, 2, 67, 72
3, 5613, Note_off_c, 2, 67, 51
3, 5640, Note_on_c, 2, 67, 74
3, 5661, Note_off_c, 2, 67, 55
3, 5784, Note_on_c, 2, 67, 76
3, 5803, Note_off_c, 2, 67, 47
3, 5856, Note_on_c, 2, 67, 72
3, 5879, Note_off_c, 2, 67, 41
3, 5976, Note_on_c, 2, 67, 66
3, 5998, Note_off_c, 2, 67, 50
3, 6024, Note_on_c, 2, 67, 72
3, 6048, Note_off_c, 2, 67, 50
3, 6168, Note_on_c, 2, 67, 70
3, 6189, Note_off_c, 2, 67, 57
3, 6216, Note_on_c, 2, 67, 72
3, 6243, Note_off_c, 2, 67, 48
3, 6360, Note_on_c, 2, 67, 70
3, 6381, Note_off_c, 2, 67, 58
3, 6408, Note_on_c, 2, 67, 70
3, 6429, Note_off_c, 2, 67, 55
3, 6552, Note_on_c, 2, 67, 63
3, 6570, Note_off_c, 2, 67, 57
3, 6600, Note_on_c, 2, 67, 68
3, 6625, Note_off_c, 2, 67, 51
3, 6744, Note_on_c, 2, 67, 70
3, 6763, Note_off_c, 2, 67, 52
3, 6792, Note_on_c, 2, 67, 74
3, 6815, Note_off_c, 2, 67, 45
3, 6936, Note_on_c, 2, 67, 72
3, 6953, Note_off_c, 2, 67, 59
3, 6984, Note_on_c, 2, 67, 76
3, 7008, Note_off_c, 2, 67, 53
3, 7128, Note_on_c, 2, 67, 72
3, 7149, Note_off_c, 2, 67, 51
3, 7176, Note_on_c, 2, 67, 74
3, 7197, Note_off_c, 2, 67, 55
3, 7320, Note_on_c, 2, 67, 76
3, 7339, Note_off_c, 2, 67, 47
3, 7392, Note_on_c, 2, 67, 72
3, 7415, Note_off_c, 2, 67, 41
3, 7512, Note_on_c, 2, 67, 66
3, 7534, Note_off_c, 2, 67, 50
3, 7560, Note_on_c, 2, 67, 72
3, 7584, Note_off_c, 2, 67, 50
3, 7704, Note_on_c, 2, 67, 70
3, 7725, Note_off_c, 2, 67, 57
3, 7752, Note_on_c, 2, 67, 72
3, 7779, Note_off_c, 2, 67, 48
3, 7896, Note_on_c, 2, 67, 70
3, 7917, Note_off_c, 2, 67, 58
3, 7944, Note_on_c, 2, 67, 70
3, 7965, Note_off_c, 2, 67, 55
3, 8088, Note_on_c, 2, 67, 63
3, 8106, Note_off_c, 2, 67, 57
3, 8136, Note_on_c, 2, 67, 68
3, 8161, Note_off_c, 2, 67, 51
3, 8280, Note_on_c, 2, 67, 70
3, 8299, Note_off_c, 2, 67, 52
3, 8328, Note_on_c, 2, 67, 74
3, 8351, Note_off_c, 2, 67, 45
3, 8472, Note_on_c, 2, 67, 83
3, 8490, Note_off_c, 2, 67, 58
3, 8520, Note_on_c, 2, 67, 74
3, 8542, Note_off_c, 2, 67, 46
3, 8664, Note_on_c, 2, 67, 74
3, 8683, Note_off_c, 2, 67, 70
3, 8712, Note_on_c, 2, 67, 76
3, 8734, Note_off_c, 2, 67, 57
3, 8856, Note_on_c, 2, 67, 76
3, 8875, Note_off_c, 2, 67, 62
3, 8904, Note_on_c, 2, 67, 72
3, 8930, Note_off_c, 2, 67, 40
3, 9048, Note_on_c, 2, 67, 74
3, 9071, Note_off_c, 2, 67, 52
3, 9096, Note_on_c, 2, 67, 74
3, 9121, Note_off_c, 2, 67, 42
3, 9240, Note_on_c, 2, 67, 76
3, 9261, Note_off_c, 2, 67, 57
3, 9288, Note_on_c, 2, 67, 63
3, 9316, Note_off_c, 2, 67, 49
3, 9432, Note_on_c, 2, 67, 65
3, 9451, Note_off_c, 2, 67, 69
3, 9480, Note_on_c, 2, 67, 68
3, 9502, Note_off_c, 2, 67, 54
3, 9624, Note_on_c, 2, 67, 72
3, 9644, Note_off_c, 2, 67, 59
3, 9672, Note_on_c, 2, 67, 76
3, 9698, Note_off_c, 2, 67, 48
3, 9816, Note_on_c, 2, 67, 70
3, 9838, Note_off_c, 2, 67, 58
3, 9864, Note_on_c, 2, 67, 68
3, 9889, Note_off_c, 2, 67, 53
3, 10008, Note_on_c, 2, 67, 72
3, 10025, Note_off_c, 2, 67, 59
3, 10056, Note_on_c, 2, 67, 76
3, 10080, Note_off_c, 2, 67, 53
3, 10200, Note_on_c, 2, 67, 72
3, 10221, Note_off_c, 2, 67, 51
3, 10248, Note_on_c, 2, 67, 74
3, 10269, Note_off_c, 2, 67, 55
3, 10392, Note_on_c, 2, 67, 76
3, 10411, Note_off_c, 2, 67, 47
3, 10464, Note_on_c, 2, 67, 72
3, 10487, Note_off_c, 2, 67, 41
3, 10584, Note_on_c, 2, 67, 66
3, 10606, Note_off_c, 2, 67, 50
3, 10632, Note_on_c, 2, 67, 72
3, 10656, Note_off_c, 2, 67, 50
3, 10776, Note_on_c, 2, 67, 70
3, 10797, Note_off_c, 2, 67, 57
3, 10824, Note_on_c, 2, 67, 72
3, 10851, Note_off_c, 2, 67, 48
3, 10968, Note_on_c, 2, 67, 70
3, 10989, Note_off_c, 2, 67, 58
3, 11016, Note_on_c, 2, 67, 70
3, 11037, Note_off_c, 2, 67, 55
3, 11160, Note_on_c, 2, 67, 63
3, 11178, Note_off_c, 2, 67, 57
3, 11208, Note_on_c, 2, 67, 68
3, 11233, Note_off_c, 2, 67, 51
3, 11352, Note_on_c, 2, 67, 70
3, 11371, Note_off_c, 2, 67, 52
3, 11400, Note_on_c, 2, 67, 74
3, 11423, Note_off_c, 2, 67, 45
3, 11544, Note_on_c, 2, 67, 83
3, 11562, Note_off_c, 2, 67, 58
3, 11592, Note_on_c, 2, 67, 74
3, 11614, Note_off_c, 2, 67, 46
3, 11736, Note_on_c, 2, 67, 74
3, 11755, Note_off_c, 2, 67, 70
3, 11784, Note_on_c, 2, 67, 76
3, 11806, Note_off_c, 2, 67, 57
3, 11928, Note_on_c, 2, 67, 76
3, 11947, Note_off_c, 2, 67, 62
3, 11976, Note_on_c, 2, 67, 72
3, 12002, Note_off_c, 2, 67, 40
3, 12120, Note_on_c, 2, 67, 74
3, 12143, Note_off_c, 2, 67, 52
3, 12168, Note_on_c, 2, 67, 74
3, 12193, Note_off_c, 2, 67, 42
3, 12312, Note_on_c, 2, 67, 76
3, 12333, Note_off_c, 2, 67, 57
3, 12360, Note_on_c, 2, 67, 63
3, 12388, Note_off_c, 2, 67, 49
3, 12504, Note_on_c, 2, 67, 65
3, 12523, Note_off_c, 2, 67, 69
3, 12552, Note_on_c, 2, 67, 68
3, 12574, Note_off_c, 2, 67, 54
3, 12696, Note_on_c, 2, 67, 72
3, 12716, Note_off_c, 2, 67, 59
3, 12744, Note_on_c, 2, 67, 76
3, 12770, Note_off_c, 2, 67, 48
3, 12888, Note_on_c, 2, 67, 70
3, 12910, Note_off_c, 2, 67, 58
3, 12936, Note_on_c, 2, 67, 68
3, 12961, Note_off_c, 2, 67, 53
3, 13080, Note_on_c, 2, 67, 72
3, 13097, Note_off_c, 2, 67, 59
3, 13128, Note_on_c, 2, 67, 76
3, 13152, Note_off_c, 2, 67, 53
3, 13272, Note_on_c, 2, 67, 72
3, 13293, Note_off_c, 2, 67, 51
3, 13320, Note_on_c, 2, 67, 74
3, 13341, Note_off_c, 2, 67, 55
3, 13464, Note_on_c, 2, 67, 76
3, 13483, Note_off_c, 2, 67, 47
3, 13536, Note_on_c, 2, 67, 72
3, 13559, Note_off_c, 2, 67, 41
3, 13656, Note_on_c, 2, 67, 66
3, 13678, Note_off_c, 2, 67, 50
3, 13704, Note_on_c, 2, 67, 72
3, 13728, Note_off_c, 2, 67, 50
3, 13848, Note_on_c, 2, 67, 70
3, 13869, Note_off_c, 2, 67, 57
3, 13896, Note_on_c, 2, 67, 72
3, 13923, Note_off_c, 2, 67, 48
3, 14040, Note_on_c, 2, 67, 70
3, 14061, Note_off_c, 2, 67, 58
3, 14088, Note_on_c, 2, 67, 70
3, 14109, Note_off_c, 2, 67, 55
3, 14232, Note_on_c, 2, 67, 63
3, 14250, Note_off_c, 2, 67, 57
3, 14280, Note_on_c, 2, 67, 68
3, 14305, Note_off_c, 2, 67, 51
3, 14424, Note_on_c, 2, 67, 70
3, 14443, Note_off_c, 2, 67, 52
3, 14472, Note_on_c, 2, 67, 74
3, 14495, Note_off_c, 2, 67, 45
3, 14616, Note_on_c, 2, 67, 83
3, 14634, Note_off_c, 2, 67, 58
3, 14664, Note_on_c, 2, 67, 74
3, 14686, Note_off_c, 2, 67, 46
3, 14808, Note_on_c, 2, 67, 74
3, 14827, Note_off_c, 2, 67, 70
3, 14856, Note_on_c, 2, 67, 76
3, 14878, Note_off_c, 2, 67, 57
3, 15000, Note_on_c, 2, 67, 76
3, 15019, Note_off_c, 2, 67, 62
3, 15048, Note_on_c, 2, 67, 72
3, 15074, Note_off_c, 2, 67, 40
3, 15192, Note_on_c, 2, 67, 74
3, 15215, Note_off_c, 2, 67, 52
3, 15240, Note_on_c, 2, 67, 74
3, 15265, Note_off_c, 2, 67, 42
3, 15384, Note_on_c, 2, 67, 76
3, 15405, Note_off_c, 2, 67, 57
3, 15432, Note_on_c, 2, 67, 63
3, 15460, Note_off_c, 2, 67, 49
3, 15576, Note_on_c, 2, 67, 65
3, 15595, Note_off_c, 2, 67, 69
3, 15624, Note_on_c, 2, 67, 68
3, 15646, Note_off_c, 2, 67, 54
3, 15768, Note_on_c, 2, 67, 72
3, 15788, Note_off_c, 2, 67, 59
3, 15816, Note_on_c, 2, 67, 76
3, 15842, Note_off_c, 2, 67, 48
3, 15960, Note_on_c, 2, 67, 70
3, 15982, Note_off_c, 2, 67, 58
3, 16008, Note_on_c, 2, 67, 68
3, 16033, Note_off_c, 2, 67, 53
3, 16152, Note_on_c, 2, 67, 72
3, 16169, Note_off_c, 2, 67, 59
3, 16200, Note_on_c, 2, 67, 76
3, 16224, Note_off_c, 2, 67, 53
3, 16344, Note_on_c, 2, 67, 72
3, 16365, Note_off_c, 2, 67, 51
3, 16392, Note_on_c, 2, 67, 74
3, 16413, Note_off_c, 2, 67, 55
3, 16536, Note_on_c, 2, 67, 76
3, 16555, Note_off_c, 2, 67, 47
3, 16608, Note_on_c, 2, 67, 72
3, 16631, Note_off_c, 2, 67, 41
3, 16728, Note_on_c, 2, 67, 66
3, 16750, Note_off_c, 2, 67, 50
3, 16776, Note_on_c, 2, 67, 72
3, 16800, Note_off_c, 2, 67, 50
3, 16920, Note_on_c, 2, 67, 70
3, 16941, Note_off_c, 2, 67, 57
3, 16968, Note_on_c, 2, 67, 72
3, 16995, Note_off_c, 2, 67, 48
3, 17112, Note_on_c, 2, 67, 70
3, 17133, Note_off_c, 2, 67, 58
3, 17160, Note_on_c, 2, 67, 70
3, 17181, Note_off_c, 2, 67, 55
3, 17304, Note_on_c, 2, 67, 63
3, 17322, Note_off_c, 2, 67, 57
3, 17352, Note_on_c, 2, 67, 68
3, 17377, Note_off_c, 2, 67, 51
3, 17496, Note_on_c, 2, 67, 70
3, 17515, Note_off_c, 2, 67, 52
3, 17544, Note_on_c, 2, 67, 74
3, 17567, Note_off_c, 2, 67, 45
3, 17688, Note_on_c, 2, 74, 71
3, 17703, Note_off_c, 2, 74, 92
3, 17712, Note_on_c, 2, 74, 71
3, 17721, Note_off_c, 2, 74, 77
3, 17736, Note_on_c, 2, 74, 71
3, 17748, Note_off_c, 2, 74, 79
3, 17760, Note_on_c, 2, 74, 71
3, 17773, Note_off_c, 2, 74, 90
3, 17784, Note_on_c, 2, 74, 71
3, 17794, Note_off_c, 2, 74, 73
3, 17808, Note_on_c, 2, 74, 71
3, 17815, Note_off_c, 2, 74, 79
3, 17832, Note_on_c, 2, 74, 71
3, 17841, Note_off_c, 2, 74, 86
3, 17856, Note_on_c, 2, 74, 71
3, 17873, Note_off_c, 2, 74, 69
3, 17880, Note_on_c, 2, 74, 71
3, 17887, Note_off_c, 2, 74, 80
3, 18072, Note_on_c, 2, 74, 71
3, 18087, Note_off_c, 2, 74, 92
3, 18096, Note_on_c, 2, 74, 71
3, 18105, Note_off_c, 2, 74, 77
3, 18120, Note_on_c, 2, 74, 71
3, 18132, Note_off_c, 2, 74, 79
3, 18144, Note_on_c, 2, 74, 71
3, 18157, Note_off_c, 2, 74, 90
3, 18168, Note_on_c, 2, 74, 71
3, 18178, Note_off_c, 2, 74, 73
3, 18192, Note_on_c, 2, 74, 71
3, 18199, Note_off_c, 2, 74, 79
3, 18216, Note_on_c, 2, 74, 71
3, 18225, Note_off_c, 2, 74, 86
3, 18240, Note_on_c, 2, 74, 71
3, 18257, Note_off_c, 2, 74, 69
3, 18264, Note_on_c, 2, 74, 71
3, 18271, Note_off_c, 2, 74, 80
3, 18456, Note_on_c, 2, 74, 71
3, 18471, Note_off_c, 2, 74, 92
3, 18480, Note_on_c, 2, 74, 71
3, 18489, Note_off_c, 2, 74, 77
3, 18504, Note_on_c, 2, 74, 71
3, 18516, Note_off_c, 2, 74, 79
3, 18528, Note_on_c, 2, 74, 71
3, 18541, Note_off_c, 2, 74, 90
3, 18552, Note_on_c, 2, 74, 71
3, 18562, Note_off_c, 2, 74, 73
3, 18576, Note_on_c, 2, 74, 71
3, 18583, Note_off_c, 2, 74, 79
3, 18600, Note_on_c, 2, 74, 71
3, 18609, Note_off_c, 2, 74, 86
3, 18624, Note_on_c, 2, 74, 71
3, 18641, Note_off_c, 2, 74, 69
3, 18648, Note_on_c, 2, 74, 71
3, 18655, Note_off_c, 2, 74, 80
3, 18840, Note_on_c, 2, 74, 71
3, 18855, Note_off_c, 2, 74, 92
3, 18864, Note_on_c, 2, 74, 71
3, 18873, Note_off_c, 2, 74, 77
3, 18888, Note_on_c, 2, 74, 71
3, 18900, Note_off_c, 2, 74, 79
3, 18912, Note_on_c, 2, 74, 71
3, 18925, Note_off_c, 2, 74, 90
3, 18936, Note_on_c, 2, 74, 71
3, 18946, Note_off_c, 2, 74, 73
3, 18960, Note_on_c, 2, 74, 71
3, 18967, Note_off_c, 2, 74, 79
3, 18984, Note_on_c, 2, 74, 71
3, 18993, Note_off_c, 2, 74, 86
3, 19008, Note_on_c, 2, 74, 71
3, 19025, Note_off_c, 2, 74, 69
3, 19032, Note_on_c, 2, 74, 71
3, 19039, Note_off_c, 2, 74, 80
3, 19224, Note_on_c, 2, 74, 71
3, 19239, Note_off_c, 2, 74, 92
3, 19248, Note_on_c, 2, 74, 71
3, 19257, Note_off_c, 2, 74, 77
3, 19272, Note_on_c, 2, 74, 71
3, 19284, Note_off_c, 2, 74, 79
3, 19296, Note_on_c, 2, 74, 71
3, 19309, Note_off_c, 2, 74, 90
3, 19320, Note_on_c, 2, 74, 71
3, 19330, Note_off_c, 2, 74, 73
3, 19344, Note_on_c, 2, 74, 71
3, 19351, Note_off_c, 2, 74, 79
3, 19368, Note_on_c, 2, 74, 71
3, 19377, Note_off_c, 2, 74, 86
3, 19392, Note_on_c, 2, 74, 71
3, 19409, Note_off_c, 2, 74, 69
3, 19416, Note_on_c, 2, 74, 71
3, 19423, Note_off_c, 2, 74, 80
3, 19608, Note_on_c, 2, 74, 71
3, 19623, Note_off_c, 2, 74, 92
3, 19632, Note_on_c, 2, 74, 71
3, 19641, Note_off_c, 2, 74, 77
3, 19656, Note_on_c, 2, 74, 71
3, 19668, Note_off_c, 2, 74, 79
3, 19680, Note_on_c, 2, 74, 71
3, 19693, Note_off_c, 2, 74, 90
3, 19704, Note_on_c, 2, 74, 71
3, 19714, Note_off_c, 2, 74, 73
3, 19728, Note_on_c, 2, 74, 71
3, 19735, Note_off_c, 2, 74, 79
3, 19752, Note_on_c, 2, 74, 71
3, 19761, Note_off_c, 2, 74, 86
3, 19776, Note_on_c, 2, 74, 71
3, 19793, Note_off_c, 2, 74, 69
3, 19800, Note_on_c, 2, 74, 71
3, 19807, Note_off_c, 2, 74, 80
3, 19992, Note_on_c, 2, 74, 71
3, 20007, Note_off_c, 2, 74, 92
3, 20016, Note_on_c, 2, 74, 71
3, 20025, Note_off_c, 2, 74, 77
3, 20040, Note_on_c, 2, 74, 71
3, 20052, Note_off_c, 2, 74, 79
3, 20064, Note_on_c, 2, 74, 71
3, 20077, Note_off_c, 2, 74, 90
3, 20088, Note_on_c, 2, 74, 71
3, 20098, Note_off_c, 2, 74, 73
3, 20112, Note_on_c, 2, 74, 71
3, 20119, Note_off_c, 2, 74, 79
3, 20136, Note_on_c, 2, 74, 71
3, 20145, Note_off_c, 2, 74, 86
3, 20160, Note_on_c, 2, 74, 71
3, 20177, Note_off_c, 2, 74, 69
3, 20184, Note_on_c, 2, 74, 71
3, 20191, Note_off_c, 2, 74, 80
3, 20376, Note_on_c, 2, 74, 71
3, 20391, Note_off_c, 2, 74, 92
3, 20400, Note_on_c, 2, 74, 71
3, 20409, Note_off_c, 2, 74, 77
3, 20424, Note_on_c, 2, 74, 71
3, 20436, Note_off_c, 2, 74, 79
3, 20448, Note_on_c, 2, 74, 71
3, 20461, Note_off_c, 2, 74, 90
3, 20472, Note_on_c, 2, 74, 71
3, 20482, Note_off_c, 2, 74, 73
3, 20496, Note_on_c, 2, 74, 71
3, 20503, Note_off_c, 2, 74, 79
3, 20520, Note_on_c, 2, 74, 71
3, 20529, Note_off_c, 2, 74, 86
3, 20544, Note_on_c, 2, 74, 71
3, 20561, Note_off_c, 2, 74, 69
3, 20568, Note_on_c, 2, 74, 71
3, 20575, Note_off_c, 2, 74, 80
3, 20760, Note_on_c, 2, 67, 83
3, 20778, Note_off_c, 2, 67, 58
3, 20808, Note_on_c, 2, 67, 74
3, 20830, Note_off_c, 2, 67, 46
3, 20952, Note_on_c, 2, 67, 74
3, 20971, Note_off_c, 2, 67, 70
3, 21000, Note_on_c, 2, 67, 76
3, 21022, Note_off_c, 2, 67, 57
3, 21144, Note_on_c, 2, 67, 76
3, 21163, Note_off_c, 2, 67, 62
3, 21192, Note_on_c, 2, 67, 72
3, 21218, Note_off_c, 2, 67, 40
3, 21336, Note_on_c, 2, 67, 74
3, 21359, Note_off_c, 2, 67, 52
3, 21384, Note_on_c, 2, 67, 74
3, 21409, Note_off_c, 2, 67, 42
3, 21528, Note_on_c, 2, 67, 76
3, 21549, Note_off_c, 2, 67, 57
3, 21576, Note_on_c, 2, 67, 63
3, 21604, Note_off_c, 2, 67, 49
3, 21720, Note_on_c, 2, 67, 65
3, 21739, Note_off_c, 2, 67, 69
3, 21768, Note_on_c, 2, 67, 68
3, 21790, Note_off_c, 2, 67, 54
3, 21912, Note_on_c, 2, 67, 72
3, 21932, Note_off_c, 2, 67, 59
3, 21960, Note_on_c, 2, 67, 76
3, 21986, Note_off_c, 2, 67, 48
3, 22104, Note_on_c, 2, 67, 70
3, 22126, Note_off_c, 2, 67, 58
3, 22152, Note_on_c, 2, 67, 68
3, 22177, Note_off_c, 2, 67, 53
3, 22296, Note_on_c, 2, 67, 72
3, 22313, Note_off_c, 2, 67, 59
3, 22344, Note_on_c, 2, 67, 76
3, 22368, Note_off_c, 2, 67, 53
3, 22488, Note_on_c, 2, 67, 72
3, 22509, Note_off_c, 2, 67, 51
3, 22536, Note_on_c, 2, 67, 74
3, 22557, Note_off_c, 2, 67, 55
3, 22680, Note_on_c, 2, 67, 76
3, 22699, Note_off_c, 2, 67, 47
3, 22752, Note_on_c, 2, 67, 72
3, 22775, Note_off_c, 2, 67, 41
3, 22872, Note_on_c, 2, 67, 66
3, 22894, Note_off_c, 2, 67, 50
3, 22920, Note_on_c, 2, 67, 72
3, 22944, Note_off_c, 2, 67, 50
3, 23064, Note_on_c, 2, 67, 70
3, 23085, Note_off_c, 2, 67, 57
3, 23112, Note_on_c, 2, 67, 72
3, 23139, Note_off_c, 2, 67, 48
3, 23256, Note_on_c, 2, 67, 70
3, 23277, Note_off_c, 2, 67, 58
3, 23304, Note_on_c, 2, 67, 70
3, 23325, Note_off_c, 2, 67, 55
3, 23448, Note_on_c, 2, 67, 63
3, 23466, Note_off_c, 2, 67, 57
3, 23496, Note_on_c, 2, 67, 68
3, 23521, Note_off_c, 2, 67, 51
3, 23640, Note_on_c, 2, 67, 70
3, 23659, Note_off_c, 2, 67, 52
3, 23688, Note_on_c, 2, 67, 74
3, 23711, Note_off_c, 2, 67, 45
3, 26904, Note_on_c, 2, 67, 83
3, 26922, Note_off_c, 2, 67, 58
3, 26952, Note_on_c, 2, 67, 74
3, 26974, Note_off_c, 2, 67, 46
3, 27096, Note_on_c, 2, 67, 74
3, 27115, Note_off_c, 2, 67, 70
3, 27144, Note_on_c, 2, 67, 76
3, 27166, Note_off_c, 2, 67, 57
3, 27288, Note_on_c, 2, 67, 76
3, 27307, Note_off_c, 2, 67, 62
3, 27336, Note_on_c, 2, 67, 72
3, 27362, Note_off_c, 2, 67, 40
3, 27480, Note_on_c, 2, 67, 74
3, 27503, Note_off_c, 2, 67, 52
3, 27528, Note_on_c, 2, 67, 74
3, 27553, Note_off_c, 2, 67, 42
3, 27672, Note_on_c, 2, 67, 76
3, 27693, Note_off_c, 2, 67, 57
3, 27720, Note_on_c, 2, 67, 63
3, 27748, Note_off_c, 2, 67, 49
3, 27864, Note_on_c, 2, 67, 65
3, 27883, Note_off_c, 2, 67, 69
3, 27912, Note_on_c, 2, 67, 68
3, 27934, Note_off_c, 2, 67, 54
3, 28056, Note_on_c, 2, 67, 72
3, 28076, Note_off_c, 2, 67, 59
3, 28104, Note_on_c, 2, 67, 76
3, 28130, Note_off_c, 2, 67, 48
3, 28248, Note_on_c, 2, 67, 70
3, 28270, Note_off_c, 2, 67, 58
3, 28296, Note_on_c, 2, 67, 68
3, 28321, Note_off_c, 2, 67, 53
3, 28440, Note_on_c, 2, 67, 72
3, 28457, Note_off_c, 2, 67, 59
3, 28488, Note_on_c, 2, 67, 76
3, 28512, Note_off_c, 2, 67, 53
3, 28632, Note_on_c, 2, 67, 72
3, 28653, Note_off_c, 2, 67, 51
3, 28680, Note_on_c, 2, 67, 74
3, 28701, Note_off_c, 2, 67, 55
3, 28824, Note_on_c, 2, 67, 76
3, 28843, Note_off_c, 2, 67, 47
3, 28896, Note_on_c, 2, 67, 72
3, 28919, Note_off_c, 2, 67, 41
3, 29016, Note_on_c, 2, 67, 66
3, 29038, Note_off_c, 2, 67, 50
3, 29064, Note_on_c, 2, 67, 72
3, 29088, Note_off_c, 2, 67, 50
3, 29208, Note_on_c, 2, 67, 70
3, 29229, Note_off_c, 2, 67, 57
3, 29256, Note_on_c, 2, 67, 72
3, 29283, Note_off_c, 2, 67, 48
3, 29400, Note_on_c, 2, 67, 70
3, 29421, Note_off_c, 2, 67, 58
3, 29448, Note_on_c, 2, 67, 70
3, 29469, Note_off_c, 2, 67, 55
3, 29592, Note_on_c, 2, 67, 63
3, 29610, Note_off_c, 2, 67, 57
3, 29640, Note_on_c, 2, 67, 68
3, 29665, Note_off_c, 2, 67, 51
3, 29784, Note_on_c, 2, 67, 70
3, 29803, Note_off_c, 2, 67, 52
3, 29832, Note_on_c, 2, 67, 74
3, 29855, Note_off_c, 2, 67, 45
3, 29976, Note_on_c, 2, 67, 83
3, 29994, Note_off_c, 2, 67, 58
3, 30024, Note_on_c, 2, 67, 74
3, 30046, Note_off_c, 2, 67, 46
3, 30168, Note_on_c, 2, 67, 74
3, 30187, Note_off_c, 2, 67, 70
3, 30216, Note_on_c, 2, 67, 76
3, 30238, Note_off_c, 2, 67, 57
3, 30360, Note_on_c, 2, 67, 76
3, 30379, Note_off_c, 2, 67, 62
3, 30408, Note_on_c, 2, 67, 72
3, 30434, Note_off_c, 2, 67, 40
3, 30552, Note_on_c, 2, 67, 74
3, 30575, Note_off_c, 2, 67, 52
3, 30600, Note_on_c, 2, 67, 74
3, 30625, Note_off_c, 2, 67, 42
3, 30744, Note_on_c, 2, 67, 76
3, 30765, Note_off_c, 2, 67, 57
3, 30792, Note_on_c, 2, 67, 63
3, 30820, Note_off_c, 2, 67, 49
3, 30936, Note_on_c, 2, 67, 65
3, 30955, Note_off_c, 2, 67, 69
3, 30984, Note_on_c, 2, 67, 68
3, 31006, Note_off_c, 2, 67, 54
3, 31128, Note_on_c, 2, 67, 72
3, 31148, Note_off_c, 2, 67, 59
3, 31176, Note_on_c, 2, 67, 76
3, 31202, Note_off_c, 2, 67, 48
3, 31320, Note_on_c, 2, 67, 70
3, 31342, Note_off_c, 2, 67, 58
3, 31368, Note_on_c, 2, 67, 68
3, 31393, Note_off_c, 2, 67, 53
3, 31512, Note_on_c, 2, 67, 72
3, 31529, Note_off_c, 2, 67, 59
3, 31560, Note_on_c, 2, 67, 76
3, 31584, Note_off_c, 2, 67, 53
3, 31704, Note_on_c, 2, 67, 72
3, 31725, Note_off_c, 2, 67, 51
3, 31752, Note_on_c, 2, 67, 74
3, 31773, Note_off_c, 2, 67, 55
3, 31896, Note_on_c, 2, 67, 76
3, 31915, Note_off_c, 2, 67, 47
3, 31968, Note_on_c, 2, 67, 72
3, 31991, Note_off_c, 2, 67, 41
3, 32088, Note_on_c, 2, 67, 66
3, 32110, Note_off_c, 2, 67, 50
3, 32136, Note_on_c, 2, 67, 72
3, 32160, Note_off_c, 2, 67, 50
3, 32280, Note_on_c, 2, 67, 70
3, 32301, Note_off_c, 2, 67, 57
3, 32328, Note_on_c, 2, 67, 72
3, 32355, Note_off_c, 2, 67, 48
3, 32472, Note_on_c, 2, 67, 70
3, 32493, Note_off_c, 2, 67, 58
3, 32520, Note_on_c, 2, 67, 70
3, 32541, Note_off_c, 2, 67, 55
3, 32664, Note_on_c, 2, 67, 63
3, 32682, Note_off_c, 2, 67, 57
3, 32712, Note_on_c, 2, 67, 68
3, 32737, Note_off_c, 2, 67, 51
3, 32856, Note_on_c, 2, 67, 70
3, 32875, Note_off_c, 2, 67, 52
3, 32904, Note_on_c, 2, 67, 74
3, 32927, Note_off_c, 2, 67, 45
3, 33048, Note_on_c, 2, 67, 83
3, 33066, Note_off_c, 2, 67, 58
3, 33096, Note_on_c, 2, 67, 74
3, 33118, Note_off_c, 2, 67, 46
3, 33240, Note_on_c, 2, 67, 74
3, 33259, Note_off_c, 2, 67, 70
3, 33288, Note_on_c, 2, 67, 76
3, 33310, Note_off_c, 2, 67, 57
3, 33432, Note_on_c, 2, 67, 76
3, 33451, Note_off_c, 2, 67, 62
3, 33480, Note_on_c, 2, 67, 72
3, 33506, Note_off_c, 2, 67, 40
3, 33624, Note_on_c, 2, 67, 74
3, 33647, Note_off_c, 2, 67, 52
3, 33672, Note_on_c, 2, 67, 74
3, 33697, Note_off_c, 2, 67, 42
3, 33816, Note_on_c, 2, 67, 76
3, 33837, Note_off_c, 2, 67, 57
3, 33864, Note_on_c, 2, 67, 63
3, 33892, Note_off_c, 2, 67, 49
3, 34008, Note_on_c, 2, 67, 65
3, 34027, Note_off_c, 2, 67, 69
3, 34056, Note_on_c, 2, 67, 68
3, 34078, Note_off_c, 2, 67, 54
3, 34200, Note_on_c, 2, 67, 72
3, 34220, Note_off_c, 2, 67, 59
3, 34248, Note_on_c, 2, 67, 76
3, 34274, Note_off_c, 2, 67, 48
3, 34392, Note_on_c, 2, 67, 70
3, 34414, Note_off_c, 2, 67, 58
3, 34440, Note_on_c, 2, 67, 68
3, 34465, Note_off_c, 2, 67, 53
3, 34584, Note_on_c, 2, 67, 72
3, 34601, Note_off_c, 2, 67, 59
3, 34632, Note_on_c, 2, 67, 76
3, 34656, Note_off_c, 2, 67, 53
3, 34776, Note_on_c, 2, 67, 72
3, 34797, Note_off_c, 2, 67, 51
3, 34824, Note_on_c, 2, 67, 74
3, 34845, Note_off_c, 2, 67, 55
3, 34968, Note_on_c, 2, 67, 76
3, 34987, Note_off_c, 2, 67, 47
3, 35040, Note_on_c, 2, 67, 72
3, 35063, Note_off_c, 2, 67, 41
3, 35160, Note_on_c, 2, 67, 66
3, 35182, Note_off_c, 2, 67, 50
3, 35208, Note_on_c, 2, 67, 72
3, 35232, Note_off_c, 2, 67, 50
3, 35352, Note_on_c, 2, 67, 70
3, 35373, Note_off_c, 2, 67, 57
3, 35400, Note_on_c, 2, 67, 72
3, 35427, Note_off_c, 2, 67, 48
3, 35544, Note_on_c, 2, 67, 70
3, 35565, Note_off_c, 2, 67, 58
3, 35592, Note_on_c, 2, 67, 70
3, 35613, Note_off_c, 2, 67, 55
3, 35736, Note_on_c, 2, 67, 63
3, 35754, Note_off_c, 2, 67, 57
3, 35784, Note_on_c, 2, 67, 68
3, 35809, Note_off_c, 2, 67, 51
3, 35928, Note_on_c, 2, 67, 70
3, 35947, Note_off_c, 2, 67, 52
3, 35976, Note_on_c, 2, 67, 74
3, 35999, Note_off_c, 2, 67, 45
3, 39192, Note_on_c, 2, 67, 83
3, 39210, Note_off_c, 2, 67, 58
3, 39240, Note_on_c, 2, 67, 74
3, 39262, Note_off_c, 2, 67, 46
3, 39384, Note_on_c, 2, 67, 74
3, 39403, Note_off_c, 2, 67, 70
3, 39432, Note_on_c, 2, 67, 76
3, 39454, Note_off_c, 2, 67, 57
3, 39576, Note_on_c, 2, 67, 76
3, 39595, Note_off_c, 2, 67, 62
3, 39624, Note_on_c, 2, 67, 72
3, 39650, Note_off_c, 2, 67, 40
3, 39768, Note_on_c, 2, 67, 74
3, 39791, Note_off_c, 2, 67, 52
3, 39816, Note_on_c, 2, 67, 74
3, 39841, Note_off_c, 2, 67, 42
3, 39960, Note_on_c, 2, 67, 76
3, 39981, Note_off_c, 2, 67, 57
3, 40008, Note_on_c, 2, 67, 63
3, 40036, Note_off_c, 2, 67, 49
3, 40152, Note_on_c, 2, 67, 65
3, 40171, Note_off_c, 2, 67, 69
3, 40200, Note_on_c, 2, 67, 68
3, 40222, Note_off_c, 2, 67, 54
3, 40344, Note_on_c, 2, 67, 72
3, 40364, Note_off_c, 2, 67, 59
3, 40392, Note_on_c, 2, 67, 76
3, 40418, Note_off_c, 2, 67, 48
3, 40536, Note_on_c, 2, 67, 70
3, 40558, Note_off_c, 2, 67, 58
3, 40584, Note_on_c, 2, 67, 68
3, 40609, Note_off_c, 2, 67, 53
3, 40728, Note_on_c, 2, 67, 72
3, 40745, Note_off_c, 2, 67, 59
3, 40776, Note_on_c, 2, 67, 76
3, 40800, Note_off_c, 2, 67, 53
3, 40920, Note_on_c, 2, 67, 72
3, 40941, Note_off_c, 2, 67, 51
3, 40968, Note_on_c, 2, 67, 74
3, 40989, Note_off_c, 2, 67, 55
3, 41112, Note_on_c, 2, 67, 76
3, 41131, Note_off_c, 2, 67, 47
3, 41184, Note_on_c, 2, 67, 72
3, 41207, Note_off_c, 2, 67, 41
3, 41304, Note_on_c, 2, 67, 66
3, 41326, Note_off_c, 2, 67, 50
3, 41352, Note_on_c, 2, 67, 72
3, 41376, Note_off_c, 2, 67, 50
3, 41496, Note_on_c, 2, 67, 70
3, 41517, Note_off_c, 2, 67, 57
3, 41544, Note_on_c, 2, 67, 72
3, 41571, Note_off_c, 2, 67, 48
3, 41688, Note_on_c, 2, 67, 70
3, 41709, Note_off_c, 2, 67, 58
3, 41736, Note_on_c, 2, 67, 70
3, 41757, Note_off_c, 2, 67, 55
3, 41880, Note_on_c, 2, 67, 63
3, 41898, Note_off_c, 2, 67, 57
3, 41928, Note_on_c, 2, 67, 68
3, 41953, Note_off_c, 2, 67, 51
3, 42072, Note_on_c, 2, 67, 70
3, 42091, Note_off_c, 2, 67, 52
3, 42120, Note_on_c, 2, 67, 74
3, 42143, Note_off_c, 2, 67, 45
3, 42264, Note_on_c, 2, 67, 83
3, 42282, Note_off_c, 2, 67, 58
3, 42312, Note_on_c, 2, 67, 74
3, 42334, Note_off_c, 2, 67, 46
3, 42456, Note_on_c, 2, 67, 74
3, 42475, Note_off_c, 2, 67, 70
3, 42504, Note_on_c, 2, 67, 76
3, 42526, Note_off_c, 2, 67, 57
3, 42648, Note_on_c, 2, 67, 76
3, 42667, Note_off_c, 2, 67, 62
3, 42696, Note_on_c, 2, 67, 72
3, 42722, Note_off_c, 2, 67, 40
3, 42840, Note_on_c, 2, 67, 74
3, 42863, Note_off_c, 2, 67, 52
3, 42888, Note_on_c, 2, 67, 74
3, 42913, Note_off_c, 2, 67, 42
3, 43032, Note_on_c, 2, 67, 76
3, 43053, Note_off_c, 2, 67, 57
3, 43080, Note_on_c, 2, 67, 63
3, 43108, Note_off_c, 2, 67, 49
3, 43224, Note_on_c, 2, 67, 65
3, 43243, Note_off_c, 2, 67, 69
3, 43272, Note_on_c, 2, 67, 68
3, 43294, Note_off_c, 2, 67, 54
3, 43416, Note_on_c, 2, 67, 72
3, 43436, Note_off_c, 2, 67, 59
3, 43464, Note_on_c, 2, 67, 76
3, 43490, Note_off_c, 2, 67, 48
3, 43608, Note_on_c, 2, 67, 70
3, 43630, Note_off_c, 2, 67, 58
3, 43656, Note_on_c, 2, 67, 68
3, 43681, Note_off_c, 2, 67, 53
3, 43800, Note_on_c, 2, 67, 72
3, 43817, Note_off_c, 2, 67, 59
3, 43848, Note_on_c, 2, 67, 76
3, 43872, Note_off_c, 2, 67, 53
3, 43992, Note_on_c, 2, 67, 72
3, 44013, Note_off_c, 2, 67, 51
3, 44040, Note_on_c, 2, 67, 74
3, 44061, Note_off_c, 2, 67, 55
3, 44184, Note_on_c, 2, 67, 76
3, 44203, Note_off_c, 2, 67, 47
3, 44256, Note_on_c, 2, 67, 72
3, 44279, Note_off_c, 2, 67, 41
3, 44376, Note_on_c, 2, 67, 66
3, 44398, Note_off_c, 2, 67, 50
3, 44424, Note_on_c, 2, 67, 72
3, 44448, Note_off_c, 2, 67, 50
3, 44568, Note_on_c, 2, 67, 70
3, 44589, Note_off_c, 2, 67, 57
3, 44616, Note_on_c, 2, 67, 72
3, 44643, Note_off_c, 2, 67, 48
3, 44760, Note_on_c, 2, 67, 70
3, 44781, Note_off_c, 2, 67, 58
3, 44808, Note_on_c, 2, 67, 70
3, 44829, Note_off_c, 2, 67, 55
3, 44952, Note_on_c, 2, 67, 63
3, 44970, Note_off_c, 2, 67, 57
3, 45000, Note_on_c, 2, 67, 68
3, 45025, Note_off_c, 2, 67, 51
3, 45144, Note_on_c, 2, 67, 70
3, 45163, Note_off_c, 2, 67, 52
3, 45192, Note_on_c, 2, 67, 74
3, 45215, Note_off_c, 2, 67, 45
3, 45336, Note_on_c, 2, 67, 83
3, 45354, Note_off_c, 2, 67, 58
3, 45384, Note_on_c, 2, 67, 74
3, 45406, Note_off_c, 2, 67, 46
3, 45528, Note_on_c, 2, 67, 74
3, 45547, Note_off_c, 2, 67, 70
3, 45576, Note_on_c, 2, 67, 76
3, 45598, Note_off_c, 2, 67, 57
3, 45720, Note_on_c, 2, 67, 76
3, 45739, Note_off_c, 2, 67, 62
3, 45768, Note_on_c, 2, 67, 72
3, 45794, Note_off_c, 2, 67, 40
3, 45912, Note_on_c, 2, 67, 74
3, 45935, Note_off_c, 2, 67, 52
3, 45960, Note_on_c, 2, 67, 74
3, 45985, Note_off_c, 2, 67, 42
3, 46104, Note_on_c, 2, 67, 76
3, 46125, Note_off_c, 2, 67, 57
3, 46152, Note_on_c, 2, 67, 63
3, 46180, Note_off_c, 2, 67, 49
3, 46296, Note_on_c, 2, 67, 65
3, 46315, Note_off_c, 2, 67, 69
3, 46344, Note_on_c, 2, 67, 68
3, 46366, Note_off_c, 2, 67, 54
3, 46488, Note_on_c, 2, 67, 72
3, 46508, Note_off_c, 2, 67, 59
3, 46536, Note_on_c, 2, 67, 76
3, 46562, Note_off_c, 2, 67, 48
3, 46680, Note_on_c, 2, 67, 70
3, 46702, Note_off_c, 2, 67, 58
3, 46728, Note_on_c, 2, 67, 68
3, 46753, Note_off_c, 2, 67, 53
3, 46872, Note_on_c, 2, 67, 72
3, 46889, Note_off_c, 2, 67, 59
3, 46920, Note_on_c, 2, 67, 76
3, 46944, Note_off_c, 2, 67, 53
3, 47064, Note_on_c, 2, 67, 72
3, 47085, Note_off_c, 2, 67, 51
3, 47112, Note_on_c, 2, 67, 74
3, 47133, Note_off_c, 2, 67, 55
3, 47256, Note_on_c, 2, 67, 76
3, 47275, Note_off_c, 2, 67, 47
3, 47328, Note_on_c, 2, 67, 72
3, 47351, Note_off_c, 2, 67, 41
3, 47448, Note_on_c, 2, 67, 66
3, 47470, Note_off_c, 2, 67, 50
3, 47496, Note_on_c, 2, 67, 72
3, 47520, Note_off_c, 2, 67, 50
3, 47640, Note_on_c, 2, 67, 70
3, 47661, Note_off_c, 2, 67, 57
3, 47688, Note_on_c, 2, 67, 72
3, 47715, Note_off_c, 2, 67, 48
3, 47832, Note_on_c, 2, 67, 70
3, 47853, Note_off_c, 2, 67, 58
3, 47880, Note_on_c, 2, 67, 70
3, 47901, Note_off_c, 2, 67, 55
3, 48024, Note_on_c, 2, 67, 63
3, 48042, Note_off_c, 2, 67, 57
3, 48072, Note_on_c, 2, 67, 68
3, 48097, Note_off_c, 2, 67, 51
3, 48216, Note_on_c, 2, 67, 70
3, 48235, Note_off_c, 2, 67, 52
3, 48264, Note_on_c, 2, 67, 74
3, 48287, Note_off_c, 2, 67, 45
3, 48408, Note_on_c, 2, 67, 83
3, 48426, Note_off_c, 2, 67, 58
3, 48456, Note_on_c, 2, 67, 74
3, 48478, Note_off_c, 2, 67, 46
3, 48600, Note_on_c, 2, 67, 74
3, 48619, Note_off_c, 2, 67, 70
3, 48648, Note_on_c, 2, 67, 76
3, 48670, Note_off_c, 2, 67, 57
3, 48792, Note_on_c, 2, 67, 76
3, 48811, Note_off_c, 2, 67, 62
3, 48840, Note_on_c, 2, 67, 72
3, 48866, Note_off_c, 2, 67, 40
3, 48984, Note_on_c, 2, 67, 74
3, 49007, Note_off_c, 2, 67, 52
3, 49032, Note_on_c, 2, 67, 74
3, 49057, Note_off_c, 2, 67, 42
3, 49152, End_track
4, 0, Start_track
4, 0, Program_c, 3, 87
4, 24, Control_c, 3, 1, 0
4, 48, Control_c, 3, 7, 100
4, 72, Control_c, 3, 10, 65
4, 96, Control_c, 3, 11, 127
4, 120, Control_c, 3, 91, 127
4, 144, Pitch_bend_c, 3, 8192
4, 768, Note_on_c, 3, 79, 68
4, 791, Note_off_c, 3, 79, 53
4, 792, Note_on_c, 3, 86, 71
4, 803, Note_off_c, 3, 86, 101
4, 816, Note_on_c, 3, 86, 57
4, 828, Note_off_c, 3, 86, 96
4, 840, Note_on_c, 3, 79, 68
4, 861, Note_off_c, 3, 79, 57
4, 864, Note_on_c, 3, 86, 77
4, 876, Note_off_c, 3, 86, 94
4, 888, Note_on_c, 3, 86, 57
4, 901, Note_off_c, 3, 86, 82
4, 912, Note_on_c, 3, 79, 63
4, 936, Note_off_c, 3, 79, 56
4, 936, Note_on_c, 3, 86, 74
4, 947, Note_off_c, 3, 86, 103
4, 960, Note_on_c, 3, 86, 59
4, 973, Note_off_c, 3, 86, 88
4, 984, Note_on_c, 3, 79, 53
4, 1007, Note_off_c, 3, 79, 59
4, 1008, Note_on_c, 3, 86, 74
4, 1020, Note_off_c, 3, 86, 108
4, 1032, Note_on_c, 3, 86, 63
4, 1045, Note_off_c, 3, 86, 80
4, 1056, Note_on_c, 3, 79, 63
4, 1079, Note_off_c, 3, 79, 59
4, 1080, Note_on_c, 3, 86, 71
4, 1090, Note_off_c, 3, 86, 101
4, 1104, Note_on_c, 3, 86, 59
4, 1117, Note_off_c, 3, 86, 88
4, 1128, Note_on_c, 3, 79, 63
4, 1149, Note_off_c, 3, 79, 66
4, 1152, Note_on_c, 3, 86, 74
4, 1163, Note_off_c, 3, 86, 101
4, 1176, Note_on_c, 3, 86, 63
4, 1189, Note_off_c, 3, 86, 94
4, 1200, Note_on_c, 3, 79, 63
4, 1223, Note_off_c, 3, 79, 58
4, 1224, Note_on_c, 3, 86, 81
4, 1235, Note_off_c, 3, 86, 108
4, 1248, Note_on_c, 3, 86, 63
4, 1261, Note_off_c, 3, 86, 94
4, 1272, Note_on_c, 3, 79, 61
4, 1292, Note_off_c, 3, 79, 61
4, 1296, Note_on_c, 3, 86, 77
4, 1307, Note_off_c, 3, 86, 99
4, 1320, Note_on_c, 3, 86, 63
4, 1335, Note_off_c, 3, 86, 94
4, 1344, Note_on_c, 3, 79, 68
4, 1365, Note_off_c, 3, 79, 61
4, 1368, Note_on_c, 3, 86, 74
4, 1378, Note_off_c, 3, 86, 106
4, 1392, Note_on_c, 3, 86, 65
4, 1406, Note_off_c, 3, 86, 99
4, 1416, Note_on_c, 3, 79, 59
4, 1437, Note_off_c, 3, 79, 70
4, 1440, Note_on_c, 3, 86, 81
4, 1449, Note_off_c, 3, 86, 108
4, 1464, Note_on_c, 3, 86, 65
4, 1478, Note_off_c, 3, 86, 96
4, 1488, Note_on_c, 3, 79, 63
4, 1510, Note_off_c, 3, 79, 54
4, 1512, Note_on_c, 3, 86, 74
4, 1523, Note_off_c, 3, 86, 108
4, 1536, Note_on_c, 3, 86, 65
4, 1550, Note_off_c, 3, 86, 94
4, 1560, Note_on_c, 3, 79, 51
4, 1581, Note_off_c, 3, 79, 62
4, 1584, Note_on_c, 3, 86, 77
4, 1595, Note_off_c, 3, 86, 101
4, 1608, Note_on_c, 3, 86, 57
4, 1621, Note_off_c, 3, 86, 96
4, 1632, Note_on_c, 3, 79, 61
4, 1652, Note_off_c, 3, 79, 58
4, 1656, Note_on_c, 3, 86, 74
4, 1669, Note_off_c, 3, 86, 94
4, 1680, Note_on_c, 3, 86, 59
4, 1694, Note_off_c, 3, 86, 86
4, 1704, Note_on_c, 3, 79, 59
4, 1724, Note_off_c, 3, 79, 54
4, 1728, Note_on_c, 3, 86, 77
4, 1740, Note_off_c, 3, 86, 94
4, 1752, Note_on_c, 3, 86, 59
4, 1767, Note_off_c, 3, 86, 94
4, 1776, Note_on_c, 3, 79, 59
4, 1796, Note_off_c, 3, 79, 56
4, 1800, Note_on_c, 3, 86, 81
4, 1811, Note_off_c, 3, 86, 106
4, 1824, Note_on_c, 3, 86, 59
4, 1839, Note_off_c, 3, 86, 101
4, 1848, Note_on_c, 3, 79, 53
4, 1866, Note_off_c, 3, 79, 67
4, 1872, Note_on_c, 3, 86, 77
4, 1884, Note_off_c, 3, 86, 103
4, 1896, Note_on_c, 3, 86, 59
4, 1910, Note_off_c, 3, 86, 106
4, 1920, Note_on_c, 3, 79, 53
4, 1940, Note_off_c, 3, 79, 54
4, 1944, Note_on_c, 3, 86, 77
4, 1957, Note_off_c, 3, 86, 99
4, 1968, Note_on_c, 3, 86, 65
4, 1983, Note_off_c, 3, 86, 101
4, 1992, Note_on_c, 3, 79, 59
4, 2012, Note_off_c, 3, 79, 63
4, 2016, Note_on_c, 3, 86, 77
4, 2028, Note_off_c, 3, 86, 96
4, 2040, Note_on_c, 3, 86, 59
4, 2055, Note_off_c, 3, 86, 108
4, 2064, Note_on_c, 3, 79, 51
4, 2085, Note_off_c, 3, 79, 66
4, 2088, Note_on_c, 3, 86, 74
4, 2100, Note_off_c, 3, 86, 103
4, 2112, Note_on_c, 3, 86, 63
4, 2127, Note_off_c, 3, 86, 99
4, 2136, Note_on_c, 3, 79, 61
4, 2154, Note_off_c, 3, 79, 67
4, 2160, Note_on_c, 3, 86, 77
4, 2170, Note_off_c, 3, 86, 115
4, 2184, Note_on_c, 3, 86, 57
4, 2197, Note_off_c, 3, 86, 94
4, 2208, Note_on_c, 3, 79, 51
4, 2227, Note_off_c, 3, 79, 77
4, 2232, Note_on_c, 3, 86, 77
4, 2245, Note_off_c, 3, 86, 106
4, 2256, Note_on_c, 3, 86, 63
4, 2271, Note_off_c, 3, 86, 96
4, 2280, Note_on_c, 3, 79, 63
4, 2298, Note_off_c, 3, 79, 59
4, 2304, Note_on_c, 3, 86, 68
4, 2315, Note_off_c, 3, 86, 88
4, 2328, Note_on_c, 3, 86, 65
4, 2344, Note_off_c, 3, 86, 94
4, 2352, Note_on_c, 3, 79, 63
4, 2372, Note_off_c, 3, 79, 65
4, 2376, Note_on_c, 3, 86, 77
4, 2387, Note_off_c, 3, 86, 118
4, 2400, Note_on_c, 3, 86, 65
4, 2417, Note_off_c, 3, 86, 96
4, 2424, Note_on_c, 3, 79, 57
4, 2445, Note_off_c, 3, 79, 69
4, 2448, Note_on_c, 3, 86, 71
4, 2460, Note_off_c, 3, 86, 94
4, 2472, Note_on_c, 3, 86, 59
4, 2489, Note_off_c, 3, 86, 96
4, 2496, Note_on_c, 3, 79, 51
4, 2514, Note_off_c, 3, 79, 73
4, 2520, Note_on_c, 3, 86, 65
4, 2529, Note_off_c, 3, 86, 101
4, 2544, Note_on_c, 3, 86, 61
4, 2558, Note_off_c, 3, 86, 88
4, 2568, Note_on_c, 3, 79, 59
4, 2586, Note_off_c, 3, 79, 56
4, 2592, Note_on_c, 3, 86, 74
4, 2602, Note_off_c, 3, 86, 103
4, 2616, Note_on_c, 3, 86, 63
4, 2630, Note_off_c, 3, 86, 99
4, 2640, Note_on_c, 3, 79, 63
4, 2659, Note_off_c, 3, 79, 69
4, 2664, Note_on_c, 3, 86, 77
4, 2675, Note_off_c, 3, 86, 103
4, 2688, Note_on_c, 3, 86, 65
4, 2702, Note_off_c, 3, 86, 92
4, 2712, Note_on_c, 3, 79, 57
4, 2731, Note_off_c, 3, 79, 56
4, 2736, Note_on_c, 3, 86, 77
4, 2747, Note_off_c, 3, 86, 92
4, 2760, Note_on_c, 3, 86, 63
4, 2777, Note_off_c, 3, 86, 96
4, 2784, Note_on_c, 3, 79, 63
4, 2803, Note_off_c, 3, 79, 70
4, 2808, Note_on_c, 3, 86, 77
4, 2819, Note_off_c, 3, 86, 96
4, 2832, Note_on_c, 3, 86, 63
4, 2849, Note_off_c, 3, 86, 92
4, 2856, Note_on_c, 3, 79, 59
4, 2874, Note_off_c, 3, 79, 63
4, 2880, Note_on_c, 3, 86, 77
4, 2892, Note_off_c, 3, 86, 92
4, 2904, Note_on_c, 3, 86, 55
4, 2919, Note_off_c, 3, 86, 96
4, 2928, Note_on_c, 3, 79, 55
4, 2945, Note_off_c, 3, 79, 61
4, 2952, Note_on_c, 3, 86, 74
4, 2962, Note_off_c, 3, 86, 101
4, 2976, Note_on_c, 3, 86, 65
4, 2993, Note_off_c, 3, 86, 108
4, 3000, Note_on_c, 3, 79, 53
4, 3017, Note_off_c, 3, 79, 62
4, 3024, Note_on_c, 3, 86, 81
4, 3036, Note_off_c, 3, 86, 106
4, 3048, Note_on_c, 3, 86, 59
4, 3063, Note_off_c, 3, 86, 103
4, 3072, Note_on_c, 3, 79, 57
4, 3090, Note_off_c, 3, 79, 73
4, 3096, Note_on_c, 3, 86, 77
4, 3107, Note_off_c, 3, 86, 106
4, 3120, Note_on_c, 3, 86, 63
4, 3134, Note_off_c, 3, 86, 115
4, 3144, Note_on_c, 3, 79, 55
4, 3164, Note_off_c, 3, 79, 59
4, 3168, Note_on_c, 3, 86, 77
4, 3178, Note_off_c, 3, 86, 101
4, 3192, Note_on_c, 3, 86, 65
4, 3208, Note_off_c, 3, 86, 118
4, 3216, Note_on_c, 3, 79, 51
4, 3234, Note_off_c, 3, 79, 66
4, 3240, Note_on_c, 3, 86, 74
4, 3251, Note_off_c, 3, 86, 108
4, 3264, Note_on_c, 3, 86, 68
4, 3278, Note_off_c, 3, 86, 111
4, 3288, Note_on_c, 3, 79, 53
4, 3307, Note_off_c, 3, 79, 72
4, 3312, Note_on_c, 3, 86, 74
4, 3324, Note_off_c, 3, 86, 77
4, 3336, Note_on_c, 3, 86, 48
4, 3353, Note_off_c, 3, 86, 99
4, 3360, Note_on_c, 3, 79, 51
4, 3379, Note_off_c, 3, 79, 62
4, 3384, Note_on_c, 3, 86, 71
4, 3396, Note_off_c, 3, 86, 99
4, 3408, Note_on_c, 3, 86, 61
4, 3424, Note_off_c, 3, 86, 94
4, 3432, Note_on_c, 3, 79, 53
4, 3450, Note_off_c, 3, 79, 61
4, 3456, Note_on_c, 3, 86, 81
4, 3466, Note_off_c, 3, 86, 106
4, 3480, Note_on_c, 3, 86, 59
4, 3496, Note_off_c, 3, 86, 99
4, 3504, Note_on_c, 3, 79, 44
4, 3522, Note_off_c, 3, 79, 66
4, 3528, Note_on_c, 3, 86, 77
4, 3539, Note_off_c, 3, 86, 115
4, 3552, Note_on_c, 3, 86, 59
4, 3567, Note_off_c, 3, 86, 94
4, 3576, Note_on_c, 3, 79, 57
4, 3596, Note_off_c, 3, 79, 57
4, 3600, Note_on_c, 3, 86, 81
4, 3615, Note_off_c, 3, 86, 96
4, 3624, Note_on_c, 3, 86, 63
4, 3641, Note_off_c, 3, 86, 106
4, 3648, Note_on_c, 3, 79, 57
4, 3668, Note_off_c, 3, 79, 62
4, 3672, Note_on_c, 3, 86, 77
4, 3683, Note_off_c, 3, 86, 103
4, 3696, Note_on_c, 3, 86, 68
4, 3711, Note_off_c, 3, 86, 90
4, 3720, Note_on_c, 3, 79, 59
4, 3740, Note_off_c, 3, 79, 69
4, 3744, Note_on_c, 3, 86, 77
4, 3760, Note_off_c, 3, 86, 82
4, 3768, Note_on_c, 3, 86, 51
4, 3784, Note_off_c, 3, 86, 106
4, 3792, Note_on_c, 3, 79, 68
4, 3809, Note_off_c, 3, 79, 73
4, 3816, Note_on_c, 3, 86, 81
4, 3837, Note_off_c, 3, 86, 75
4, 3840, Note_on_c, 3, 79, 68
4, 3863, Note_off_c, 3, 79, 53
4, 3864, Note_on_c, 3, 86, 71
4, 3875, Note_off_c, 3, 86, 101
4, 3888, Note_on_c, 3, 86, 57
4, 3900, Note_off_c, 3, 86, 96
4, 3912, Note_on_c, 3, 79, 68
4, 3933, Note_off_c, 3, 79, 57
4, 3936, Note_on_c, 3, 86, 77
4, 3948, Note_off_c, 3, 86, 94
4, 3960, Note_on_c, 3, 86, 57
4, 3973, Note_off_c, 3, 86, 82
4, 3984, Note_on_c, 3, 79, 63
4, 4008, Note_off_c, 3, 79, 56
4, 4008, Note_on_c, 3, 86, 74
4, 4019, Note_off_c, 3, 86, 103
4, 4032, Note_on_c, 3, 86, 59
4, 4045, Note_off_c, 3, 86, 88
4, 4056, Note_on_c, 3, 79, 53
4, 4079, Note_off_c, 3, 79, 59
4, 4080, Note_on_c, 3, 86, 74
4, 4092, Note_off_c, 3, 86, 108
4, 4104, Note_on_c, 3, 86, 63
4, 4117, Note_off_c, 3, 86, 80
4, 4128, Note_on_c, 3, 79, 63
4, 4151, Note_off_c, 3, 79, 59
4, 4152, Note_on_c, 3, 86, 71
4, 4162, Note_off_c, 3, 86, 101
4, 4176, Note_on_c, 3, 86, 59
4, 4189, Note_off_c, 3, 86, 88
4, 4200, Note_on_c, 3, 79, 63
4, 4221, Note_off_c, 3, 79, 66
4, 4224, Note_on_c, 3, 86, 74
4, 4235, Note_off_c, 3, 86, 101
4, 4248, Note_on_c, 3, 86, 63
4, 4261, Note_off_c, 3, 86, 94
4, 4272, Note_on_c, 3, 79, 63
4, 4295, Note_off_c, 3, 79, 58
4, 4296, Note_on_c, 3, 86, 81
4, 4307, Note_off_c, 3, 86, 108
4, 4320, Note_on_c, 3, 86, 63
4, 4333, Note_off_c, 3, 86, 94
4, 4344, Note_on_c, 3, 79, 61
4, 4364, Note_off_c, 3, 79, 61
4, 4368, Note_on_c, 3, 86, 77
4, 4379, Note_off_c, 3, 86, 99
4, 4392, Note_on_c, 3, 86, 63
4, 4407, Note_off_c, 3, 86, 94
4, 4416, Note_on_c, 3, 79, 68
4, 4437, Note_off_c, 3, 79, 61
4, 4440, Note_on_c, 3, 86, 74
4, 4450, Note_off_c, 3, 86, 106
4, 4464, Note_on_c, 3, 86, 65
4, 4478, Note_off_c, 3, 86, 99
4, 4488, Note_on_c, 3, 79, 59
4, 4509, Note_off_c, 3, 79, 70
4, 4512, Note_on_c, 3, 86, 81
4, 4521, Note_off_c, 3, 86, 108
4, 4536, Note_on_c, 3, 86, 65
4, 4550, Note_off_c, 3, 86, 96
4, 4560, Note_on_c, 3, 79, 63
4, 4582, Note_off_c, 3, 79, 54
4, 4584, Note_on_c, 3, 86, 74
4, 4595, Note_off_c, 3, 86, 108
4, 4608, Note_on_c, 3, 86, 65
4, 4622, Note_off_c, 3, 86, 94
4, 4632, Note_on_c, 3, 79, 51
4, 4653, Note_off_c, 3, 79, 62
4, 4656, Note_on_c, 3, 86, 77
4, 4667, Note_off_c, 3, 86, 101
4, 4680, Note_on_c, 3, 86, 57
4, 4693, Note_off_c, 3, 86, 96
4, 4704, Note_on_c, 3, 79, 61
4, 4724, Note_off_c, 3, 79, 58
4, 4728, Note_on_c, 3, 86, 74
4, 4741, Note_off_c, 3, 86, 94
4, 4752, Note_on_c, 3, 86, 59
4, 4766, Note_off_c, 3, 86, 86
4, 4776, Note_on_c, 3, 79, 59
4, 4796, Note_off_c, 3, 79, 54
4, 4800, Note_on_c, 3, 86, 77
4, 4812, Note_off_c, 3, 86, 94
4, 4824, Note_on_c, 3, 86, 59
4, 4839, Note_off_c, 3, 86, 94
4, 4848, Note_on_c, 3, 79, 59
4, 4868, Note_off_c, 3, 79, 56
4, 4872, Note_on_c, 3, 86, 81
4, 4883, Note_off_c, 3, 86, 106
4, 4896, Note_on_c, 3, 86, 59
4, 4911, Note_off_c, 3, 86, 101
4, 4920, Note_on_c, 3, 79, 53
4, 4938, Note_off_c, 3, 79, 67
4, 4944, Note_on_c, 3, 86, 77
4, 4956, Note_off_c, 3, 86, 103
4, 4968, Note_on_c, 3, 86, 59
4, 4982, Note_off_c, 3, 86, 106
4, 4992, Note_on_c, 3, 79, 53
4, 5012, Note_off_c, 3, 79, 54
4, 5016, Note_on_c, 3, 86, 77
4, 5029, Note_off_c, 3, 86, 99
4, 5040, Note_on_c, 3, 86, 65
4, 5055, Note_off_c, 3, 86, 101
4, 5064, Note_on_c, 3, 79, 59
4, 5084, Note_off_c, 3, 79, 63
4, 5088, Note_on_c, 3, 86, 77
4, 5100, Note_off_c, 3, 86, 96
4, 5112, Note_on_c, 3, 86, 59
4, 5127, Note_off_c, 3, 86, 108
4, 5136, Note_on_c, 3, 79, 51
4, 5157, Note_off_c, 3, 79, 66
4, 5160, Note_on_c, 3, 86, 74
4, 5172, Note_off_c, 3, 86, 103
4, 5184, Note_on_c, 3, 86, 63
4, 5199, Note_off_c, 3, 86, 99
4, 5208, Note_on_c, 3, 79, 61
4, 5226, Note_off_c, 3, 79, 67
4, 5232, Note_on_c, 3, 86, 77
4, 5242, Note_off_c, 3, 86, 115
4, 5256, Note_on_c, 3, 86, 57
4, 5269, Note_off_c, 3, 86, 94
4, 5280, Note_on_c, 3, 79, 51
4, 5299, Note_off_c, 3, 79, 77
4, 5304, Note_on_c, 3, 86, 77
4, 5317, Note_off_c, 3, 86, 106
4, 5328, Note_on_c, 3, 86, 63
4, 5343, Note_off_c, 3, 86, 96
4, 5352, Note_on_c, 3, 79, 63
4, 5370, Note_off_c, 3, 79, 59
4, 5376, Note_on_c, 3, 86, 68
4, 5387, Note_off_c, 3, 86, 88
4, 5400, Note_on_c, 3, 86, 65
4, 5416, Note_off_c, 3, 86, 94
4, 5424, Note_on_c, 3, 79, 63
4, 5444, Note_off_c, 3, 79, 65
4, 5448, Note_on_c, 3, 86, 77
4, 5459, Note_off_c, 3, 86, 118
4, 5472, Note_on_c, 3, 86, 65
4, 5489, Note_off_c, 3, 86, 96
4, 5496, Note_on_c, 3, 79, 57
4, 5517, Note_off_c, 3, 79, 69
4, 5520, Note_on_c, 3, 86, 71
4, 5532, Note_off_c, 3, 86, 94
4, 5544, Note_on_c, 3, 86, 59
4, 5561, Note_off_c, 3, 86, 96
4, 5568, Note_on_c, 3, 79, 51
4, 5586, Note_off_c, 3, 79, 73
4, 5592, Note_on_c, 3, 86, 65
4, 5601, Note_off_c, 3, 86, 101
4, 5616, Note_on_c, 3, 86, 61
4, 5630, Note_off_c, 3, 86, 88
4, 5640, Note_on_c, 3, 79, 59
4, 5658, Note_off_c, 3, 79, 56
4, 5664, Note_on_c, 3, 86, 74
4, 5674, Note_off_c, 3, 86, 103
4, 5688, Note_on_c, 3, 86, 63
4, 5702, Note_off_c, 3, 86, 99
4, 5712, Note_on_c, 3, 79, 63
4, 5731, Note_off_c, 3, 79, 69
4, 5736, Note_on_c, 3, 86, 77
4, 5747, Note_off_c, 3, 86, 103
4, 5760, Note_on_c, 3, 86, 65
4, 5774, Note_off_c, 3, 86, 92
4, 5784, Note_on_c, 3, 79, 57
4, 5803, Note_off_c, 3, 79, 56
4, 5808, Note_on_c, 3, 86, 77
4, 5819, Note_off_c, 3, 86, 92
4, 5832, Note_on_c, 3, 86, 63
4, 5849, Note_off_c, 3, 86, 96
4, 5856, Note_on_c, 3, 79, 63
4, 5875, Note_off_c, 3, 79, 70
4, 5880, Note_on_c, 3, 86, 77
4, 5891, Note_off_c, 3, 86, 96
4, 5904, Note_on_c, 3, 86, 63
4, 5921, Note_off_c, 3, 86, 92
4, 5928, Note_on_c, 3, 79, 59
4, 5946, Note_off_c, 3, 79, 63
4, 5952, Note_on_c, 3, 86, 77
4, 5964, Note_off_c, 3, 86, 92
4, 5976, Note_on_c, 3, 86, 55
4, 5991, Note_off_c, 3, 86, 96
4, 6000, Note_on_c, 3, 79, 55
4, 6017, Note_off_c, 3, 79, 61
4, 6024, Note_on_c, 3, 86, 74
4, 6034, Note_off_c, 3, 86, 101
4, 6048, Note_on_c, 3, 86, 65
4, 6065, Note_off_c, 3, 86, 108
4, 6072, Note_on_c, 3, 79, 53
4, 6089, Note_off_c, 3, 79, 62
4, 6096, Note_on_c, 3, 86, 81
4, 6108, Note_off_c, 3, 86, 106
4, 6120, Note_on_c, 3, 86, 59
4, 6135, Note_off_c, 3, 86, 103
4, 6144, Note_on_c, 3, 79, 57
4, 6162, Note_off_c, 3, 79, 73
4, 6168, Note_on_c, 3, 86, 77
4, 6179, Note_off_c, 3, 86, 106
4, 6192, Note_on_c, 3, 86, 63
4, 6206, Note_off_c, 3, 86, 115
4, 6216, Note_on_c, 3, 79, 55
4, 6236, Note_off_c, 3, 79, 59
4, 6240, Note_on_c, 3, 86, 77
4, 6250, Note_off_c, 3, 86, 101
4, 6264, Note_on_c, 3, 86, 65
4, 6280, Note_off_c, 3, 86, 118
4, 6288, Note_on_c, 3, 79, 51
4, 6306, Note_off_c, 3, 79, 66
4, 6312, Note_on_c, 3, 86, 74
4, 6323, Note_off_c, 3, 86, 108
4, 6336, Note_on_c, 3, 86, 68
4, 6350, Note_off_c, 3, 86, 111
4, 6360, Note_on_c, 3, 79, 53
4, 6379, Note_off_c, 3, 79, 72
4, 6384, Note_on_c, 3, 86, 74
4, 6396, Note_off_c, 3, 86, 77
4, 6408, Note_on_c, 3, 86, 48
4, 6425, Note_off_c, 3, 86, 99
4, 6432, Note_on_c, 3, 79, 51
4, 6451, Note_off_c, 3, 79, 62
4, 6456, Note_on_c, 3, 86, 71
4, 6468, Note_off_c, 3, 86, 99
4, 6480, Note_on_c, 3, 86, 61
4, 6496, Note_off_c, 3, 86, 94
4, 6504, Note_on_c, 3, 79, 53
4, 6522, Note_off_c, 3, 79, 61
4, 6528, Note_on_c, 3, 86, 81
4, 6538, Note_off_c, 3, 86, 106
4, 6552, Note_on_c, 3, 86, 59
4, 6568, Note_off_c, 3, 86, 99
4, 6576, Note_on_c, 3, 79, 44
4, 6594, Note_off_c, 3, 79, 66
4, 6600, Note_on_c, 3, 86, 77
4, 6611, Note_off_c, 3, 86, 115
4, 6624, Note_on_c, 3, 86, 59
4, 6639, Note_off_c, 3, 86, 94
4, 6648, Note_on_c, 3, 79, 57
4, 6668, Note_off_c, 3, 79, 57
4, 6672, Note_on_c, 3, 86, 81
4, 6687, Note_off_c, 3, 86, 96
4, 6696, Note_on_c, 3, 86, 63
4, 6713, Note_off_c, 3, 86, 106
4, 6720, Note_on_c, 3, 79, 57
4, 6740, Note_off_c, 3, 79, 62
4, 6744, Note_on_c, 3, 86, 77
4, 6755, Note_off_c, 3, 86, 103
4, 6768, Note_on_c, 3, 86, 68
4, 6783, Note_off_c, 3, 86, 90
4, 6792, Note_on_c, 3, 79, 59
4, 6812, Note_off_c, 3, 79, 69
4, 6816, Note_on_c, 3, 86, 77
4, 6832, Note_off_c, 3, 86, 82
4, 6840, Note_on_c, 3, 86, 51
4, 6856, Note_off_c, 3, 86, 106
4, 6864, Note_on_c, 3, 79, 68
4, 6881, Note_off_c, 3, 79, 73
4, 6888, Note_on_c, 3, 86, 81
4, 6909, Note_off_c, 3, 86, 75
4, 6912, Note_on_c, 3, 86, 68
4, 6923, Note_off_c, 3, 86, 88
4, 6936, Note_on_c, 3, 86, 65
4, 6952, Note_off_c, 3, 86, 94
4, 6960, Note_on_c, 3, 79, 63
4, 6980, Note_off_c, 3, 79, 65
4, 6984, Note_on_c, 3, 86, 77
4, 6995, Note_off_c, 3, 86, 118
4, 7008, Note_on_c, 3, 86, 65
4, 7025, Note_off_c, 3, 86, 96
4, 7032, Note_on_c, 3, 79, 57
4, 7053, Note_off_c, 3, 79, 69
4, 7056, Note_on_c, 3, 86, 71
4, 7068, Note_off_c, 3, 86, 94
4, 7080, Note_on_c, 3, 86, 59
4, 7097, Note_off_c, 3, 86, 96
4, 7104, Note_on_c, 3, 79, 51
4, 7122, Note_off_c, 3, 79, 73
4, 7128, Note_on_c, 3, 86, 65
4, 7137, Note_off_c, 3, 86, 101
4, 7152, Note_on_c, 3, 86, 61
4, 7166, Note_off_c, 3, 86, 88
4, 7176, Note_on_c, 3, 79, 59
4, 7194, Note_off_c, 3, 79, 56
4, 7200, Note_on_c, 3, 86, 74
4, 7210, Note_off_c, 3, 86, 103
4, 7224, Note_on_c, 3, 86, 63
4, 7238, Note_off_c, 3, 86, 99
4, 7248, Note_on_c, 3, 79, 63
4, 7267, Note_off_c, 3, 79, 69
4, 7272, Note_on_c, 3, 86, 77
4, 7283, Note_off_c, 3, 86, 103
4, 7296, Note_on_c, 3, 86, 65
4, 7310, Note_off_c, 3, 86, 92
4, 7320, Note_on_c, 3, 79, 57
4, 7339, Note_off_c, 3, 79, 56
4, 7344, Note_on_c, 3, 86, 77
4, 7355, Note_off_c, 3, 86, 92
4, 7368, Note_on_c, 3, 86, 63
4, 7385, Note_off_c, 3, 86, 96
4, 7392, Note_on_c, 3, 79, 63
4, 7411, Note_off_c, 3, 79, 70
4, 7416, Note_on_c, 3, 86, 77
4, 7427, Note_off_c, 3, 86, 96
4, 7440, Note_on_c, 3, 86, 63
4, 7457, Note_off_c, 3, 86, 92
4, 7464, Note_on_c, 3, 79, 59
4, 7482, Note_off_c, 3, 79, 63
4, 7488, Note_on_c, 3, 86, 77
4, 7500, Note_off_c, 3, 86, 92
4, 7512, Note_on_c, 3, 86, 55
4, 7527, Note_off_c, 3, 86, 96
4, 7536, Note_on_c, 3, 79, 55
4, 7553, Note_off_c, 3, 79, 61
4, 7560, Note_on_c, 3, 86, 74
4, 7570, Note_off_c, 3, 86, 101
4, 7584, Note_on_c, 3, 86, 65
4, 7601, Note_off_c, 3, 86, 108
4, 7608, Note_on_c, 3, 79, 53
4, 7625, Note_off_c, 3, 79, 62
4, 7632, Note_on_c, 3, 86, 81
4, 7644, Note_off_c, 3, 86, 106
4, 7656, Note_on_c, 3, 86, 59
4, 7671, Note_off_c, 3, 86, 103
4, 7680, Note_on_c, 3, 79, 57
4, 7698, Note_off_c, 3, 79, 73
4, 7704, Note_on_c, 3, 86, 77
4, 7715, Note_off_c, 3, 86, 106
4, 7728, Note_on_c, 3, 86, 63
4, 7742, Note_off_c, 3, 86, 115
4, 7752, Note_on_c, 3, 79, 55
4, 7772, Note_off_c, 3, 79, 59
4, 7776, Note_on_c, 3, 86, 77
4, 7786, Note_off_c, 3, 86, 101
4, 7800, Note_on_c, 3, 86, 65
4, 7816, Note_off_c, 3, 86, 118
4, 7824, Note_on_c, 3, 79, 51
4, 7842, Note_off_c, 3, 79, 66
4, 7848, Note_on_c, 3, 86, 74
4, 7859, Note_off_c, 3, 86, 108
4, 7872, Note_on_c, 3, 86, 68
4, 7886, Note_off_c, 3, 86, 111
4, 7896, Note_on_c, 3, 79, 53
4, 7915, Note_off_c, 3, 79, 72
4, 7920, Note_on_c, 3, 86, 74
4, 7932, Note_off_c, 3, 86, 77
4, 7944, Note_on_c, 3, 86, 48
4, 7961, Note_off_c, 3, 86, 99
4, 7968, Note_on_c, 3, 79, 51
4, 7987, Note_off_c, 3, 79, 62
4, 7992, Note_on_c, 3, 86, 71
4, 8004, Note_off_c, 3, 86, 99
4, 8016, Note_on_c, 3, 86, 61
4, 8032, Note_off_c, 3, 86, 94
4, 8040, Note_on_c, 3, 79, 53
4, 8058, Note_off_c, 3, 79, 61
4, 8064, Note_on_c, 3, 86, 81
4, 8074, Note_off_c, 3, 86, 106
4, 8088, Note_on_c, 3, 86, 59
4, 8104, Note_off_c, 3, 86, 99
4, 8112, Note_on_c, 3, 79, 44
4, 8130, Note_off_c, 3, 79, 66
4, 8136, Note_on_c, 3, 86, 77
4, 8147, Note_off_c, 3, 86, 115
4, 8160, Note_on_c, 3, 86, 59
4, 8175, Note_off_c, 3, 86, 94
4, 8184, Note_on_c, 3, 79, 57
4, 8204, Note_off_c, 3, 79, 57
4, 8208, Note_on_c, 3, 86, 81
4, 8223, Note_off_c, 3, 86, 96
4, 8232, Note_on_c, 3, 86, 63
4, 8249, Note_off_c, 3, 86, 106
4, 8256, Note_on_c, 3, 79, 57
4, 8276, Note_off_c, 3, 79, 62
4, 8280, Note_on_c, 3, 86, 77
4, 8291, Note_off_c, 3, 86, 103
4, 8304, Note_on_c, 3, 86, 68
4, 8319, Note_off_c, 3, 86, 90
4, 8328, Note_on_c, 3, 79, 59
4, 8348, Note_off_c, 3, 79, 69
4, 8352, Note_on_c, 3, 86, 77
4, 8368, Note_off_c, 3, 86, 82
4, 8376, Note_on_c, 3, 86, 51
4, 8392, Note_off_c, 3, 86, 106
4, 8400, Note_on_c, 3, 79, 68
4, 8417, Note_off_c, 3, 79, 73
4, 8424, Note_on_c, 3, 86, 81
4, 8445, Note_off_c, 3, 86, 75
4, 8448, Note_on_c, 3, 79, 68
4, 8471, Note_off_c, 3, 79, 53
4, 8472, Note_on_c, 3, 86, 71
4, 8483, Note_off_c, 3, 86, 101
4, 8496, Note_on_c, 3, 86, 57
4, 8508, Note_off_c, 3, 86, 96
4, 8520, Note_on_c, 3, 79, 68
4, 8541, Note_off_c, 3, 79, 57
4, 8544, Note_on_c, 3, 86, 77
4, 8556, Note_off_c, 3, 86, 94
4, 8568, Note_on_c, 3, 86, 57
4, 8581, Note_off_c, 3, 86, 82
4, 8592, Note_on_c, 3, 79, 63
4, 8616, Note_off_c, 3, 79, 56
4, 8616, Note_on_c, 3, 86, 74
4, 8627, Note_off_c, 3, 86, 103
4, 8640, Note_on_c, 3, 86, 59
4, 8653, Note_off_c, 3, 86, 88
4, 8664, Note_on_c, 3, 79, 53
4, 8687, Note_off_c, 3, 79, 59
4, 8688, Note_on_c, 3, 86, 74
4, 8700, Note_off_c, 3, 86, 108
4, 8712, Note_on_c, 3, 86, 63
4, 8725, Note_off_c, 3, 86, 80
4, 8736, Note_on_c, 3, 79, 63
4, 8759, Note_off_c, 3, 79, 59
4, 8760, Note_on_c, 3, 86, 71
4, 8770, Note_off_c, 3, 86, 101
4, 8784, Note_on_c, 3, 86, 59
4, 8797, Note_off_c, 3, 86, 88
4, 8808, Note_on_c, 3, 79, 63
4, 8829, Note_off_c, 3, 79, 66
4, 8832, Note_on_c, 3, 86, 74
4, 8843, Note_off_c, 3, 86, 101
4, 8856, Note_on_c, 3, 86, 63
4, 8869, Note_off_c, 3, 86, 94
4, 8880, Note_on_c, 3, 79, 63
4, 8903, Note_off_c, 3, 79, 58
4, 8904, Note_on_c, 3, 86, 81
4, 8915, Note_off_c, 3, 86, 108
4, 8928, Note_on_c, 3, 86, 63
4, 8941, Note_off_c, 3, 86, 94
4, 8952, Note_on_c, 3, 79, 61
4, 8972, Note_off_c, 3, 79, 61
4, 8976, Note_on_c, 3, 86, 77
4, 8987, Note_off_c, 3, 86, 99
4, 9000, Note_on_c, 3, 86, 63
4, 9015, Note_off_c, 3, 86, 94
4, 9024, Note_on_c, 3, 79, 68
4, 9045, Note_off_c, 3, 79, 61
4, 9048, Note_on_c, 3, 86, 74
4, 9058, Note_off_c, 3, 86, 106
4, 9072, Note_on_c, 3, 86, 65
4, 9086, Note_off_c, 3, 86, 99
4, 9096, Note_on_c, 3, 79, 59
4, 9117, Note_off_c, 3, 79, 70
4, 9120, Note_on_c, 3, 86, 81
4, 9129, Note_off_c, 3, 86, 108
4, 9144, Note_on_c, 3, 86, 65
4, 9158, Note_off_c, 3, 86, 96
4, 9168, Note_on_c, 3, 79, 63
4, 9190, Note_off_c, 3, 79, 54
4, 9192, Note_on_c, 3, 86, 74
4, 9203, Note_off_c, 3, 86, 108
4, 9216, Note_on_c, 3, 86, 65
4, 9230, Note_off_c, 3, 86, 94
4, 9240, Note_on_c, 3, 79, 51
4, 9261, Note_off_c, 3, 79, 62
4, 9264, Note_on_c, 3, 86, 77
4, 9275, Note_off_c, 3, 86, 101
4, 9288, Note_on_c, 3, 86, 57
4, 9301, Note_off_c, 3, 86, 96
4, 9312, Note_on_c, 3, 79, 61
4, 9332, Note_off_c, 3, 79, 58
4, 9336, Note_on_c, 3, 86, 74
4, 9349, Note_off_c, 3, 86, 94
4, 9360, Note_on_c, 3, 86, 59
4, 9374, Note_off_c, 3, 86, 86
4, 9384, Note_on_c, 3, 79, 59
4, 9404, Note_off_c, 3, 79, 54
4, 9408, Note_on_c, 3, 86, 77
4, 9420, Note_off_c, 3, 86, 94
4, 9432, Note_on_c, 3, 86, 59
4, 9447, Note_off_c, 3, 86, 94
4, 9456, Note_on_c, 3, 79, 59
4, 9476, Note_off_c, 3, 79, 56
4, 9480, Note_on_c, 3, 86, 81
4, 9491, Note_off_c, 3, 86, 106
4, 9504, Note_on_c, 3, 86, 59
4, 9519, Note_off_c, 3, 86, 101
4, 9528, Note_on_c, 3, 79, 53
4, 9546, Note_off_c, 3, 79, 67
4, 9552, Note_on_c, 3, 86, 77
4, 9564, Note_off_c, 3, 86, 103
4, 9576, Note_on_c, 3, 86, 59
4, 9590, Note_off_c, 3, 86, 106
4, 9600, Note_on_c, 3, 79, 53
4, 9620, Note_off_c, 3, 79, 54
4, 9624, Note_on_c, 3, 86, 77
4, 9637, Note_off_c, 3, 86, 99
4, 9648, Note_on_c, 3, 86, 65
4, 9663, Note_off_c, 3, 86, 101
4, 9672, Note_on_c, 3, 79, 59
4, 9692, Note_off_c, 3, 79, 63
4, 9696, Note_on_c, 3, 86, 77
4, 9708, Note_off_c, 3, 86, 96
4, 9720, Note_on_c, 3, 86, 59
4, 9735, Note_off_c, 3, 86, 108
4, 9744, Note_on_c, 3, 79, 51
4, 9765, Note_off_c, 3, 79, 66
4, 9768, Note_on_c, 3, 86, 74
4, 9780, Note_off_c, 3, 86, 103
4, 9792, Note_on_c, 3, 86, 63
4, 9807, Note_off_c, 3, 86, 99
4, 9816, Note_on_c, 3, 79, 61
4, 9834, Note_off_c, 3, 79, 67
4, 9840, Note_on_c, 3, 86, 77
4, 9850, Note_off_c, 3, 86, 115
4, 9864, Note_on_c, 3, 86, 57
4, 9877, Note_off_c, 3, 86, 94
4, 9888, Note_on_c, 3, 79, 51
4, 9907, Note_off_c, 3, 79, 77
4, 9912, Note_on_c, 3, 86, 77
4, 9925, Note_off_c, 3, 86, 106
4, 9936, Note_on_c, 3, 86, 63
4, 9951, Note_off_c, 3, 86, 96
4, 9960, Note_on_c, 3, 79, 63
4, 9978, Note_off_c, 3, 79, 59
4, 9984, Note_on_c, 3, 86, 68
4, 9995, Note_off_c, 3, 86, 88
4, 10008, Note_on_c, 3, 86, 65
4, 10024, Note_off_c, 3, 86, 94
4, 10032, Note_on_c, 3, 79, 63
4, 10052, Note_off_c, 3, 79, 65
4, 10056, Note_on_c, 3, 86, 77
4, 10067, Note_off_c, 3, 86, 118
4, 10080, Note_on_c, 3, 86, 65
4, 10097, Note_off_c, 3, 86, 96
4, 10104, Note_on_c, 3, 79, 57
4, 10125, Note_off_c, 3, 79, 69
4, 10128, Note_on_c, 3, 86, 71
4, 10140, Note_off_c, 3, 86, 94
4, 10152, Note_on_c, 3, 86, 59
4, 10169, Note_off_c, 3, 86, 96
4, 10176, Note_on_c, 3, 79, 51
4, 10194, Note_off_c, 3, 79, 73
4, 10200, Note_on_c, 3, 86, 65
4, 10209, Note_off_c, 3, 86, 101
4, 10224, Note_on_c, 3, 86, 61
4, 10238, Note_off_c, 3, 86, 88
4, 10248, Note_on_c, 3, 79, 59
4, 10266, Note_off_c, 3, 79, 56
4, 10272, Note_on_c, 3, 86, 74
4, 10282, Note_off_c, 3, 86, 103
4, 10296, Note_on_c, 3, 86, 63
4, 10310, Note_off_c, 3, 86, 99
4, 10320, Note_on_c, 3, 79, 63
4, 10339, Note_off_c, 3, 79, 69
4, 10344, Note_on_c, 3, 86, 77
4, 10355, Note_off_c, 3, 86, 103
4, 10368, Note_on_c, 3, 86, 65
4, 10382, Note_off_c, 3, 86, 92
4, 10392, Note_on_c, 3, 79, 57
4, 10411, Note_off_c, 3, 79, 56
4, 10416, Note_on_c, 3, 86, 77
4, 10427, Note_off_c, 3, 86, 92
4, 10440, Note_on_c, 3, 86, 63
4, 10457, Note_off_c, 3, 86, 96
4, 10464, Note_on_c, 3, 79, 63
4, 10483, Note_off_c, 3, 79, 70
4, 10488, Note_on_c, 3, 86, 77
4, 10499, Note_off_c, 3, 86, 96
4, 10512, Note_on_c, 3, 86, 63
4, 10529, Note_off_c, 3, 86, 92
4, 10536, Note_on_c, 3, 79, 59
4, 10554, Note_off_c, 3, 79, 63
4, 10560, Note_on_c, 3, 86, 77
4, 10572, Note_off_c, 3, 86, 92
4, 10584, Note_on_c, 3, 86, 55
4, 10599, Note_off_c, 3, 86, 96
4, 10608, Note_on_c, 3, 79, 55
4, 10625, Note_off_c, 3, 79, 61
4, 10632, Note_on_c, 3, 86, 74
4, 10642, Note_off_c, 3, 86, 101
4, 10656, Note_on_c, 3, 86, 65
4, 10673, Note_off_c, 3, 86, 108
4, 10680, Note_on_c, 3, 79, 53
4, 10697, Note_off_c, 3, 79, 62
4, 10704, Note_on_c, 3, 86, 81
4, 10716, Note_off_c, 3, 86, 106
4, 10728, Note_on_c, 3, 86, 59
4, 10743, Note_off_c, 3, 86, 103
4, 10752, Note_on_c, 3, 79, 57
4, 10770, Note_off_c, 3, 79, 73
4, 10776, Note_on_c, 3, 86, 77
4, 10787, Note_off_c, 3, 86, 106
4, 10800, Note_on_c, 3, 86, 63
4, 10814, Note_off_c, 3, 86, 115
4, 10824, Note_on_c, 3, 79, 55
4, 10844, Note_off_c, 3, 79, 59
4, 10848, Note_on_c, 3, 86, 77
4, 10858, Note_off_c, 3, 86, 101
4, 10872, Note_on_c, 3, 86, 65
4, 10888, Note_off_c, 3, 86, 118
4, 10896, Note_on_c, 3, 79, 51
4, 10914, Note_off_c, 3, 79, 66
4, 10920, Note_on_c, 3, 86, 74
4, 10931, Note_off_c, 3, 86, 108
4, 10944, Note_on_c, 3, 86, 68
4, 10958, Note_off_c, 3, 86, 111
4, 10968, Note_on_c, 3, 79, 53
4, 10987, Note_off_c, 3, 79, 72
4, 10992, Note_on_c, 3, 86, 74
4, 11004, Note_off_c, 3, 86, 77
4, 11016, Note_on_c, 3, 86, 48
4, 11033, Note_off_c, 3, 86, 99
4, 11040, Note_on_c, 3, 79, 51
4, 11059, Note_off_c, 3, 79, 62
4, 11064, Note_on_c, 3, 86, 71
4, 11076, Note_off_c, 3, 86, 99
4, 11088, Note_on_c, 3, 86, 61
4, 11104, Note_off_c, 3, 86, 94
4, 11112, Note_on_c, 3, 79, 53
4, 11130, Note_off_c, 3, 79, 61
4, 11136, Note_on_c, 3, 86, 81
4, 11146, Note_off_c, 3, 86, 106
4, 11160, Note_on_c, 3, 86, 59
4, 11176, Note_off_c, 3, 86, 99
4, 11184, Note_on_c, 3, 79, 44
4, 11202, Note_off_c, 3, 79, 66
4, 11208, Note_on_c, 3, 86, 77
4, 11219, Note_off_c, 3, 86, 115
4, 11232, Note_on_c, 3, 86, 59
4, 11247, Note_off_c, 3, 86, 94
4, 11256, Note_on_c, 3, 79, 57
4, 11276, Note_off_c, 3, 79, 57
4, 11280, Note_on_c, 3, 86, 81
4, 11295, Note_off_c, 3, 86, 96
4, 11304, Note_on_c, 3, 86, 63
4, 11321, Note_off_c, 3, 86, 106
4, 11328, Note_on_c, 3, 79, 57
4, 11348, Note_off_c, 3, 79, 62
4, 11352, Note_on_c, 3, 86, 77
4, 11363, Note_off_c, 3, 86, 103
4, 11376, Note_on_c, 3, 86, 68
4, 11391, Note_off_c, 3, 86, 90
4, 11400, Note_on_c, 3, 79, 59
4, 11420, Note_off_c, 3, 79, 69
4, 11424, Note_on_c, 3, 86, 77
4, 11440, Note_off_c, 3, 86, 82
4, 11448, Note_on_c, 3, 86, 51
4, 11464, Note_off_c, 3, 86, 106
4, 11472, Note_on_c, 3, 79, 68
4, 11489, Note_off_c, 3, 79, 73
4, 11496, Note_on_c, 3, 86, 81
4, 11517, Note_off_c, 3, 86, 75
4, 11520, Note_on_c, 3, 79, 68
4, 11543, Note_off_c, 3, 79, 53
4, 11544, Note_on_c, 3, 86, 71
4, 11555, Note_off_c, 3, 86, 101
4, 11568, Note_on_c, 3, 86, 57
4, 11580, Note_off_c, 3, 86, 96
4, 11592, Note_on_c, 3, 79, 68
4, 11613, Note_off_c, 3, 79, 57
4, 11616, Note_on_c, 3, 86, 77
4, 11628, Note_off_c, 3, 86, 94
4, 11640, Note_on_c, 3, 86, 57
4, 11653, Note_off_c, 3, 86, 82
4, 11664, Note_on_c, 3, 79, 63
4, 11688, Note_off_c, 3, 79, 56
4, 11688, Note_on_c, 3, 86, 74
4, 11699, Note_off_c, 3, 86, 103
4, 11712, Note_on_c, 3, 86, 59
4, 11725, Note_off_c, 3, 86, 88
4, 11736, Note_on_c, 3, 79, 53
4, 11759, Note_off_c, 3, 79, 59
4, 11760, Note_on_c, 3, 86, 74
4, 11772, Note_off_c, 3, 86, 108
4, 11784, Note_on_c, 3, 86, 63
4, 11797, Note_off_c, 3, 86, 80
4, 11808, Note_on_c, 3, 79, 63
4, 11831, Note_off_c, 3, 79, 59
4, 11832, Note_on_c, 3, 86, 71
4, 11842, Note_off_c, 3, 86, 101
4, 11856, Note_on_c, 3, 86, 59
4, 11869, Note_off_c, 3, 86, 88
4, 11880, Note_on_c, 3, 79, 63
4, 11901, Note_off_c, 3, 79, 66
4, 11904, Note_on_c, 3, 86, 74
4, 11915, Note_off_c, 3, 86, 101
4, 11928, Note_on_c, 3, 86, 63
4, 11941, Note_off_c, 3, 86, 94
4, 11952, Note_on_c, 3, 79, 63
4, 11975, Note_off_c, 3, 79, 58
4, 11976, Note_on_c, 3, 86, 81
4, 11987, Note_off_c, 3, 86, 108
4, 12000, Note_on_c, 3, 86, 63
4, 12013, Note_off_c, 3, 86, 94
4, 12024, Note_on_c, 3, 79, 61
4, 12044, Note_off_c, 3, 79, 61
4, 12048, Note_on_c, 3, 86, 77
4, 12059, Note_off_c, 3, 86, 99
4, 12072, Note_on_c, 3, 86, 63
4, 12087, Note_off_c, 3, 86, 94
4, 12096, Note_on_c, 3, 79, 68
4, 12117, Note_off_c, 3, 79, 61
4, 12120, Note_on_c, 3, 86, 74
4, 12130, Note_off_c, 3, 86, 106
4, 12144, Note_on_c, 3, 86, 65
4, 12158, Note_off_c, 3, 86, 99
4, 12168, Note_on_c, 3, 79, 59
4, 12189, Note_off_c, 3, 79, 70
4, 12192, Note_on_c, 3, 86, 81
4, 12201, Note_off_c, 3, 86, 108
4, 12216, Note_on_c, 3, 86, 65
4, 12230, Note_off_c, 3, 86, 96
4, 12240, Note_on_c, 3, 79, 63
4, 12262, Note_off_c, 3, 79, 54
4, 12264, Note_on_c, 3, 86, 74
4, 12275, Note_off_c, 3, 86, 108
4, 12288, Note_on_c, 3, 86, 65
4, 12302, Note_off_c, 3, 86, 94
4, 12312, Note_on_c, 3, 79, 51
4, 12333, Note_off_c, 3, 79, 62
4, 12336, Note_on_c, 3, 86, 77
4, 12347, Note_off_c, 3, 86, 101
4, 12360, Note_on_c, 3, 86, 57
4, 12373, Note_off_c, 3, 86, 96
4, 12384, Note_on_c, 3, 79, 61
4, 12404, Note_off_c, 3, 79, 58
4, 12408, Note_on_c, 3, 86, 74
4, 12421, Note_off_c, 3, 86, 94
4, 12432, Note_on_c, 3, 86, 59
4, 12446, Note_off_c, 3, 86, 86
4, 12456, Note_on_c, 3, 79, 59
4, 12476, Note_off_c, 3, 79, 54
4, 12480, Note_on_c, 3, 86, 77
4, 12492, Note_off_c, 3, 86, 94
4, 12504, Note_on_c, 3, 86, 59
4, 12519, Note_off_c, 3, 86, 94
4, 12528, Note_on_c, 3, 79, 59
4, 12548, Note_off_c, 3, 79, 56
4, 12552, Note_on_c, 3, 86, 81
4, 12563, Note_off_c, 3, 86, 106
4, 12576, Note_on_c, 3, 86, 59
4, 12591, Note_off_c, 3, 86, 101
4, 12600, Note_on_c, 3, 79, 53
4, 12618, Note_off_c, 3, 79, 67
4, 12624, Note_on_c, 3, 86, 77
4, 12636, Note_off_c, 3, 86, 103
4, 12648, Note_on_c, 3, 86, 59
4, 12662, Note_off_c, 3, 86, 106
4, 12672, Note_on_c, 3, 79, 53
4, 12692, Note_off_c, 3, 79, 54
4, 12696, Note_on_c, 3, 86, 77
4, 12709, Note_off_c, 3, 86, 99
4, 12720, Note_on_c, 3, 86, 65
4, 12735, Note_off_c, 3, 86, 101
4, 12744, Note_on_c, 3, 79, 59
4, 12764, Note_off_c, 3, 79, 63
4, 12768, Note_on_c, 3, 86, 77
4, 12780, Note_off_c, 3, 86, 96
4, 12792, Note_on_c, 3, 86, 59
4, 12807, Note_off_c, 3, 86, 108
4, 12816, Note_on_c, 3, 79, 51
4, 12837, Note_off_c, 3, 79, 66
4, 12840, Note_on_c, 3, 86, 74
4, 12852, Note_off_c, 3, 86, 103
4, 12864, Note_on_c, 3, 86, 63
4, 12879, Note_off_c, 3, 86, 99
4, 12888, Note_on_c, 3, 79, 61
4, 12906, Note_off_c, 3, 79, 67
4, 12912, Note_on_c, 3, 86, 77
4, 12922, Note_off_c, 3, 86, 115
4, 12936, Note_on_c, 3, 86, 57
4, 12949, Note_off_c, 3, 86, 94
4, 12960, Note_on_c, 3, 79, 51
4, 12979, Note_off_c, 3, 79, 77
4, 12984, Note_on_c, 3, 86, 77
4, 12997, Note_off_c, 3, 86, 106
4, 13008, Note_on_c, 3, 86, 63
4, 13023, Note_off_c, 3, 86, 96
4, 13032, Note_on_c, 3, 79, 63
4, 13050, Note_off_c, 3, 79, 59
4, 13056, Note_on_c, 3, 86, 68
4, 13067, Note_off_c, 3, 86, 88
4, 13080, Note_on_c, 3, 86, 65
4, 13096, Note_off_c, 3, 86, 94
4, 13104, Note_on_c, 3, 79, 63
4, 13124, Note_off_c, 3, 79, 65
4, 13128, Note_on_c, 3, 86, 77
4, 13139, Note_off_c, 3, 86, 118
4, 13152, Note_on_c, 3, 86, 65
4, 13169, Note_off_c, 3, 86, 96
4, 13176, Note_on_c, 3, 79, 57
4, 13197, Note_off_c, 3, 79, 69
4, 13200, Note_on_c, 3, 86, 71
4, 13212, Note_off_c, 3, 86, 94
4, 13224, Note_on_c, 3, 86, 59
4, 13241, Note_off_c, 3, 86, 96
4, 13248, Note_on_c, 3, 79, 51
4, 13266, Note_off_c, 3, 79, 73
4, 13272, Note_on_c, 3, 86, 65
4, 13281, Note_off_c, 3, 86, 101
4, 13296, Note_on_c, 3, 86, 61
4, 13310, Note_off_c, 3, 86, 88
4, 13320, Note_on_c, 3, 79, 59
4, 13338, Note_off_c, 3, 79, 56
4, 13344, Note_on_c, 3, 86, 74
4, 13354, Note_off_c, 3, 86, 103
4, 13368, Note_on_c, 3, 86, 63
4, 13382, Note_off_c, 3, 86, 99
4, 13392, Note_on_c, 3, 79, 63
4, 13411, Note_off_c, 3, 79, 69
4, 13416, Note_on_c, 3, 86, 77
4, 13427, Note_off_c, 3, 86, 103
4, 13440, Note_on_c, 3, 86, 65
4, 13454, Note_off_c, 3, 86, 92
4, 13464, Note_on_c, 3, 79, 57
4, 13483, Note_off_c, 3, 79, 56
4, 13488, Note_on_c, 3, 86, 77
4, 13499, Note_off_c, 3, 86, 92
4, 13512, Note_on_c, 3, 86, 63
4, 13529, Note_off_c, 3, 86, 96
4, 13536, Note_on_c, 3, 79, 63
4, 13555, Note_off_c, 3, 79, 70
4, 13560, Note_on_c, 3, 86, 77
4, 13571, Note_off_c, 3, 86, 96
4, 13584, Note_on_c, 3, 86, 63
4, 13601, Note_off_c, 3, 86, 92
4, 13608, Note_on_c, 3, 79, 59
4, 13626, Note_off_c, 3, 79, 63
4, 13632, Note_on_c, 3, 86, 77
4, 13644, Note_off_c, 3, 86, 92
4, 13656, Note_on_c, 3, 86, 55
4, 13671, Note_off_c, 3, 86, 96
4, 13680, Note_on_c, 3, 79, 55
4, 13697, Note_off_c, 3, 79, 61
4, 13704, Note_on_c, 3, 86, 74
4, 13714, Note_off_c, 3, 86, 101
4, 13728, Note_on_c, 3, 86, 65
4, 13745, Note_off_c, 3, 86, 108
4, 13752, Note_on_c, 3, 79, 53
4, 13769, Note_off_c, 3, 79, 62
4, 13776, Note_on_c, 3, 86, 81
4, 13788, Note_off_c, 3, 86, 106
4, 13800, Note_on_c, 3, 86, 59
4, 13815, Note_off_c, 3, 86, 103
4, 13824, Note_on_c, 3, 79, 57
4, 13842, Note_off_c, 3, 79, 73
4, 13848, Note_on_c, 3, 86, 77
4, 13859, Note_off_c, 3, 86, 106
4, 13872, Note_on_c, 3, 86, 63
4, 13886, Note_off_c, 3, 86, 115
4, 13896, Note_on_c, 3, 79, 55
4, 13916, Note_off_c, 3, 79, 59
4, 13920, Note_on_c, 3, 86, 77
4, 13930, Note_off_c, 3, 86, 101
4, 13944, Note_on_c, 3, 86, 65
4, 13960, Note_off_c, 3, 86, 118
4, 13968, Note_on_c, 3, 79, 51
4, 13986, Note_off_c, 3, 79, 66
4, 13992, Note_on_c, 3, 86, 74
4, 14003, Note_off_c, 3, 86, 108
4, 14016, Note_on_c, 3, 86, 68
4, 14030, Note_off_c, 3, 86, 111
4, 14040, Note_on_c, 3, 79, 53
4, 14059, Note_off_c, 3, 79, 72
4, 14064, Note_on_c, 3, 86, 74
4, 14076, Note_off_c, 3, 86, 77
4, 14088, Note_on_c, 3, 86, 48
4, 14105, Note_off_c, 3, 86, 99
4, 14112, Note_on_c, 3, 79, 51
4, 14131, Note_off_c, 3, 79, 62
4, 14136, Note_on_c, 3, 86, 71
4, 14148, Note_off_c, 3, 86, 99
4, 14160, Note_on_c, 3, 86, 61
4, 14176, Note_off_c, 3, 86, 94
4, 14184, Note_on_c, 3, 79, 53
4, 14202, Note_off_c, 3, 79, 61
4, 14208, Note_on_c, 3, 86, 81
4, 14218, Note_off_c, 3, 86, 106
4, 14232, Note_on_c, 3, 86, 59
4, 14248, Note_off_c, 3, 86, 99
4, 14256, Note_on_c, 3, 79, 44
4, 14274, Note_off_c, 3, 79, 66
4, 14280, Note_on_c, 3, 86, 77
4, 14291, Note_off_c, 3, 86, 115
4, 14304, Note_on_c, 3, 86, 59
4, 14319, Note_off_c, 3, 86, 94
4, 14328, Note_on_c, 3, 79, 57
4, 14348, Note_off_c, 3, 79, 57
4, 14352, Note_on_c, 3, 86, 81
4, 14367, Note_off_c, 3, 86, 96
4, 14376, Note_on_c, 3, 86, 63
4, 14393, Note_off_c, 3, 86, 106
4, 14400, Note_on_c, 3, 79, 57
4, 14420, Note_off_c, 3, 79, 62
4, 14424, Note_on_c, 3, 86, 77
4, 14435, Note_off_c, 3, 86, 103
4, 14448, Note_on_c, 3, 86, 68
4, 14463, Note_off_c, 3, 86, 90
4, 14472, Note_on_c, 3, 79, 59
4, 14492, Note_off_c, 3, 79, 69
4, 14496, Note_on_c, 3, 86, 77
4, 14512, Note_off_c, 3, 86, 82
4, 14520, Note_on_c, 3, 86, 51
4, 14536, Note_off_c, 3, 86, 106
4, 14544, Note_on_c, 3, 79, 68
4, 14561, Note_off_c, 3, 79, 73
4, 14568, Note_on_c, 3, 86, 81
4, 14589, Note_off_c, 3, 86, 75
4, 14592, Note_on_c, 3, 79, 68
4, 14615, Note_off_c, 3, 79, 53
4, 14616, Note_on_c, 3, 86, 71
4, 14627, Note_off_c, 3, 86, 101
4, 14640, Note_on_c, 3, 86, 57
4, 14652, Note_off_c, 3, 86, 96
4, 14664, Note_on_c, 3, 79, 68
4, 14685, Note_off_c, 3, 79, 57
4, 14688, Note_on_c, 3, 86, 77
4, 14700, Note_off_c, 3, 86, 94
4, 14712, Note_on_c, 3, 86, 57
4, 14725, Note_off_c, 3, 86, 82
4, 14736, Note_on_c, 3, 79, 63
4, 14760, Note_off_c, 3, 79, 56
4, 14760, Note_on_c, 3, 86, 74
4, 14771, Note_off_c, 3, 86, 103
4, 14784, Note_on_c, 3, 86, 59
4, 14797, Note_off_c, 3, 86, 88
4, 14808, Note_on_c, 3, 79, 53
4, 14831, Note_off_c, 3, 79, 59
4, 14832, Note_on_c, 3, 86, 74
4, 14844, Note_off_c, 3, 86, 108
4, 14856, Note_on_c, 3, 86, 63
4, 14869, Note_off_c, 3, 86, 80
4, 14880, Note_on_c, 3, 79, 63
4, 14903, Note_off_c, 3, 79, 59
4, 14904, Note_on_c, 3, 86, 71
4, 14914, Note_off_c, 3, 86, 101
4, 14928, Note_on_c, 3, 86, 59
4, 14941, Note_off_c, 3, 86, 88
4, 14952, Note_on_c, 3, 79, 63
4, 14973, Note_off_c, 3, 79, 66
4, 14976, Note_on_c, 3, 86, 74
4, 14987, Note_off_c, 3, 86, 101
4, 15000, Note_on_c, 3, 86, 63
4, 15013, Note_off_c, 3, 86, 94
4, 15024, Note_on_c, 3, 79, 63
4, 15047, Note_off_c, 3, 79, 58
4, 15048, Note_on_c, 3, 86, 81
4, 15059, Note_off_c, 3, 86, 108
4, 15072, Note_on_c, 3, 86, 63
4, 15085, Note_off_c, 3, 86, 94
4, 15096, Note_on_c, 3, 79, 61
4, 15116, Note_off_c, 3, 79, 61
4, 15120, Note_on_c, 3, 86, 77
4, 15131, Note_off_c, 3, 86, 99
4, 15144, Note_on_c, 3, 86, 63
4, 15159, Note_off_c, 3, 86, 94
4, 15168, Note_on_c, 3, 79, 68
4, 15189, Note_off_c, 3, 79, 61
4, 15192, Note_on_c, 3, 86, 74
4, 15202, Note_off_c, 3, 86, 106
4, 15216, Note_on_c, 3, 86, 65
4, 15230, Note_off_c, 3, 86, 99
4, 15240, Note_on_c, 3, 79, 59
4, 15261, Note_off_c, 3, 79, 70
4, 15264, Note_on_c, 3, 86, 81
4, 15273, Note_off_c, 3, 86, 108
4, 15288, Note_on_c, 3, 86, 65
4, 15302, Note_off_c, 3, 86, 96
4, 15312, Note_on_c, 3, 79, 63
4, 15334, Note_off_c, 3, 79, 54
4, 15336, Note_on_c, 3, 86, 74
4, 15347, Note_off_c, 3, 86, 108
4, 15360, Note_on_c, 3, 86, 65
4, 15374, Note_off_c, 3, 86, 94
4, 15384, Note_on_c, 3, 79, 51
4, 15405, Note_off_c, 3, 79, 62
4, 15408, Note_on_c, 3, 86, 77
4, 15419, Note_off_c, 3, 86, 101
4, 15432, Note_on_c, 3, 86, 57
4, 15445, Note_off_c, 3, 86, 96
4, 15456, Note_on_c, 3, 79, 61
4, 15476, Note_off_c, 3, 79, 58
4, 15480, Note_on_c, 3, 86, 74
4, 15493, Note_off_c, 3, 86, 94
4, 15504, Note_on_c, 3, 86, 59
4, 15518, Note_off_c, 3, 86, 86
4, 15528, Note_on_c, 3, 79, 59
4, 15548, Note_off_c, 3, 79, 54
4, 15552, Note_on_c, 3, 86, 77
4, 15564, Note_off_c, 3, 86, 94
4, 15576, Note_on_c, 3, 86, 59
4, 15591, Note_off_c, 3, 86, 94
4, 15600, Note_on_c, 3, 79, 59
4, 15620, Note_off_c, 3, 79, 56
4, 15624, Note_on_c, 3, 86, 81
4, 15635, Note_off_c, 3, 86, 106
4, 15648, Note_on_c, 3, 86, 59
4, 15663, Note_off_c, 3, 86, 101
4, 15672, Note_on_c, 3, 79, 53
4, 15690, Note_off_c, 3, 79, 67
4, 15696, Note_on_c, 3, 86, 77
4, 15708, Note_off_c, 3, 86, 103
4, 15720, Note_on_c, 3, 86, 59
4, 15734, Note_off_c, 3, 86, 106
4, 15744, Note_on_c, 3, 79, 53
4, 15764, Note_off_c, 3, 79, 54
4, 15768, Note_on_c, 3, 86, 77
4, 15781, Note_off_c, 3, 86, 99
4, 15792, Note_on_c, 3, 86, 65
4, 15807, Note_off_c, 3, 86, 101
4, 15816, Note_on_c, 3, 79, 59
4, 15836, Note_off_c, 3, 79, 63
4, 15840, Note_on_c, 3, 86, 77
4, 15852, Note_off_c, 3, 86, 96
4, 15864, Note_on_c, 3, 86, 59
4, 15879, Note_off_c, 3, 86, 108
4, 15888, Note_on_c, 3, 79, 51
4, 15909, Note_off_c, 3, 79, 66
4, 15912, Note_on_c, 3, 86, 74
4, 15924, Note_off_c, 3, 86, 103
4, 15936, Note_on_c, 3, 86, 63
4, 15951, Note_off_c, 3, 86, 99
4, 15960, Note_on_c, 3, 79, 61
4, 15978, Note_off_c, 3, 79, 67
4, 15984, Note_on_c, 3, 86, 77
4, 15994, Note_off_c, 3, 86, 115
4, 16008, Note_on_c, 3, 86, 57
4, 16021, Note_off_c, 3, 86, 94
4, 16032, Note_on_c, 3, 79, 51
4, 16051, Note_off_c, 3, 79, 77
4, 16056, Note_on_c, 3, 86, 77
4, 16069, Note_off_c, 3, 86, 106
4, 16080, Note_on_c, 3, 86, 63
4, 16095, Note_off_c, 3, 86, 96
4, 16104, Note_on_c, 3, 79, 63
4, 16122, Note_off_c, 3, 79, 59
4, 16128, Note_on_c, 3, 86, 68
4, 16139, Note_off_c, 3, 86, 88
4, 16152, Note_on_c, 3, 86, 65
4, 16168, Note_off_c, 3, 86, 94
4, 16176, Note_on_c, 3, 79, 63
4, 16196, Note_off_c, 3, 79, 65
4, 16200, Note_on_c, 3, 86, 77
4, 16211, Note_off_c, 3, 86, 118
4, 16224, Note_on_c, 3, 86, 65
4, 16241, Note_off_c, 3, 86, 96
4, 16248, Note_on_c, 3, 79, 57
4, 16269, Note_off_c, 3, 79, 69
4, 16272, Note_on_c, 3, 86, 71
4, 16284, Note_off_c, 3, 86, 94
4, 16296, Note_on_c, 3, 86, 59
4, 16313, Note_off_c, 3, 86, 96
4, 16320, Note_on_c, 3, 79, 51
4, 16338, Note_off_c, 3, 79, 73
4, 16344, Note_on_c, 3, 86, 65
4, 16353, Note_off_c, 3, 86, 101
4, 16368, Note_on_c, 3, 86, 61
4, 16382, Note_off_c, 3, 86, 88
4, 16392, Note_on_c, 3, 79, 59
4, 16410, Note_off_c, 3, 79, 56
4, 16416, Note_on_c, 3, 86, 74
4, 16426, Note_off_c, 3, 86, 103
4, 16440, Note_on_c, 3, 86, 63
4, 16454, Note_off_c, 3, 86, 99
4, 16464, Note_on_c, 3, 79, 63
4, 16483, Note_off_c, 3, 79, 69
4, 16488, Note_on_c, 3, 86, 77
4, 16499, Note_off_c, 3, 86, 103
4, 16512, Note_on_c, 3, 86, 65
4, 16526, Note_off_c, 3, 86, 92
4, 16536, Note_on_c, 3, 79, 57
4, 16555, Note_off_c, 3, 79, 56
4, 16560, Note_on_c, 3, 86, 77
4, 16571, Note_off_c, 3, 86, 92
4, 16584, Note_on_c, 3, 86, 63
4, 16601, Note_off_c, 3, 86, 96
4, 16608, Note_on_c, 3, 79, 63
4, 16627, Note_off_c, 3, 79, 70
4, 16632, Note_on_c, 3, 86, 77
4, 16643, Note_off_c, 3, 86, 96
4, 16656, Note_on_c, 3, 86, 63
4, 16673, Note_off_c, 3, 86, 92
4, 16680, Note_on_c, 3, 79, 59
4, 16698, Note_off_c, 3, 79, 63
4, 16704, Note_on_c, 3, 86, 77
4, 16716, Note_off_c, 3, 86, 92
4, 16728, Note_on_c, 3, 86, 55
4, 16743, Note_off_c, 3, 86, 96
4, 16752, Note_on_c, 3, 79, 55
4, 16769, Note_off_c, 3, 79, 61
4, 16776, Note_on_c, 3, 86, 74
4, 16786, Note_off_c, 3, 86, 101
4, 16800, Note_on_c, 3, 86, 65
4, 16817, Note_off_c, 3, 86, 108
4, 16824, Note_on_c, 3, 79, 53
4, 16841, Note_off_c, 3, 79, 62
4, 16848, Note_on_c, 3, 86, 81
4, 16860, Note_off_c, 3, 86, 106
4, 16872, Note_on_c, 3, 86, 59
4, 16887, Note_off_c, 3, 86, 103
4, 16896, Note_on_c, 3, 79, 57
4, 16914, Note_off_c, 3, 79, 73
4, 16920, Note_on_c, 3, 86, 77
4, 16931, Note_off_c, 3, 86, 106
4, 16944, Note_on_c, 3, 86, 63
4, 16958, Note_off_c, 3, 86, 115
4, 16968, Note_on_c, 3, 79, 55
4, 16988, Note_off_c, 3, 79, 59
4, 16992, Note_on_c, 3, 86, 77
4, 17002, Note_off_c, 3, 86, 101
4, 17016, Note_on_c, 3, 86, 65
4, 17032, Note_off_c, 3, 86, 118
4, 17040, Note_on_c, 3, 79, 51
4, 17058, Note_off_c, 3, 79, 66
4, 17064, Note_on_c, 3, 86, 74
4, 17075, Note_off_c, 3, 86, 108
4, 17088, Note_on_c, 3, 86, 68
4, 17102, Note_off_c, 3, 86, 111
4, 17112, Note_on_c, 3, 79, 53
4, 17131, Note_off_c, 3, 79, 72
4, 17136, Note_on_c, 3, 86, 74
4, 17148, Note_off_c, 3, 86, 77
4, 17160, Note_on_c, 3, 86, 48
4, 17177, Note_off_c, 3, 86, 99
4, 17184, Note_on_c, 3, 79, 51
4, 17203, Note_off_c, 3, 79, 62
4, 17208, Note_on_c, 3, 86, 71
4, 17220, Note_off_c, 3, 86, 99
4, 17232, Note_on_c, 3, 86, 61
4, 17248, Note_off_c, 3, 86, 94
4, 17256, Note_on_c, 3, 79, 53
4, 17274, Note_off_c, 3, 79, 61
4, 17280, Note_on_c, 3, 86, 81
4, 17290, Note_off_c, 3, 86, 106
4, 17304, Note_on_c, 3, 86, 59
4, 17320, Note_off_c, 3, 86, 99
4, 17328, Note_on_c, 3, 79, 44
4, 17346, Note_off_c, 3, 79, 66
4, 17352, Note_on_c, 3, 86, 77
4, 17363, Note_off_c, 3, 86, 115
4, 17376, Note_on_c, 3, 86, 59
4, 17391, Note_off_c, 3, 86, 94
4, 17400, Note_on_c, 3, 79, 57
4, 17420, Note_off_c, 3, 79, 57
4, 17424, Note_on_c, 3, 86, 81
4, 17439, Note_off_c, 3, 86, 96
4, 17448, Note_on_c, 3, 86, 63
4, 17465, Note_off_c, 3, 86, 106
4, 17472, Note_on_c, 3, 79, 57
4, 17492, Note_off_c, 3, 79, 62
4, 17496, Note_on_c, 3, 86, 77
4, 17507, Note_off_c, 3, 86, 103
4, 17520, Note_on_c, 3, 86, 68
4, 17535, Note_off_c, 3, 86, 90
4, 17544, Note_on_c, 3, 79, 59
4, 17564, Note_off_c, 3, 79, 69
4, 17568, Note_on_c, 3, 86, 77
4, 17584, Note_off_c, 3, 86, 82
4, 17592, Note_on_c, 3, 86, 51
4, 17608, Note_off_c, 3, 86, 106
4, 17616, Note_on_c, 3, 79, 68
4, 17633, Note_off_c, 3, 79, 73
4, 17640, Note_on_c, 3, 86, 81
4, 17661, Note_off_c, 3, 86, 75
4, 20736, Note_on_c, 3, 79, 68
4, 20759, Note_off_c, 3, 79, 53
4, 20760, Note_on_c, 3, 86, 71
4, 20771, Note_off_c, 3, 86, 101
4, 20784, Note_on_c, 3, 86, 57
4, 20796, Note_off_c, 3, 86, 96
4, 20808, Note_on_c, 3, 79, 68
4, 20829, Note_off_c, 3, 79, 57
4, 20832, Note_on_c, 3, 86, 77
4, 20844, Note_off_c, 3, 86, 94
4, 20856, Note_on_c, 3, 86, 57
4, 20869, Note_off_c, 3, 86, 82
4, 20880, Note_on_c, 3, 79, 63
4, 20904, Note_off_c, 3, 79, 56
4, 20904, Note_on_c, 3, 86, 74
4, 20915, Note_off_c, 3, 86, 103
4, 20928, Note_on_c, 3, 86, 59
4, 20941, Note_off_c, 3, 86, 88
4, 20952, Note_on_c, 3, 79, 53
4, 20975, Note_off_c, 3, 79, 59
4, 20976, Note_on_c, 3, 86, 74
4, 20988, Note_off_c, 3, 86, 108
4, 21000, Note_on_c, 3, 86, 63
4, 21013, Note_off_c, 3, 86, 80
4, 21024, Note_on_c, 3, 79, 63
4, 21047, Note_off_c, 3, 79, 59
4, 21048, Note_on_c, 3, 86, 71
4, 21058, Note_off_c, 3, 86, 101
4, 21072, Note_on_c, 3, 86, 59
4, 21085, Note_off_c, 3, 86, 88
4, 21096, Note_on_c, 3, 79, 63
4, 21117, Note_off_c, 3, 79, 66
4, 21120, Note_on_c, 3, 86, 74
4, 21131, Note_off_c, 3, 86, 101
4, 21144, Note_on_c, 3, 86, 63
4, 21157, Note_off_c, 3, 86, 94
4, 21168, Note_on_c, 3, 79, 63
4, 21191, Note_off_c, 3, 79, 58
4, 21192, Note_on_c, 3, 86, 81
4, 21203, Note_off_c, 3, 86, 108
4, 21216, Note_on_c, 3, 86, 63
4, 21229, Note_off_c, 3, 86, 94
4, 21240, Note_on_c, 3, 79, 61
4, 21260, Note_off_c, 3, 79, 61
4, 21264, Note_on_c, 3, 86, 77
4, 21275, Note_off_c, 3, 86, 99
4, 21288, Note_on_c, 3, 86, 63
4, 21303, Note_off_c, 3, 86, 94
4, 21312, Note_on_c, 3, 79, 68
4, 21333, Note_off_c, 3, 79, 61
4, 21336, Note_on_c, 3, 86, 74
4, 21346, Note_off_c, 3, 86, 106
4, 21360, Note_on_c, 3, 86, 65
4, 21374, Note_off_c, 3, 86, 99
4, 21384, Note_on_c, 3, 79, 59
4, 21405, Note_off_c, 3, 79, 70
4, 21408, Note_on_c, 3, 86, 81
4, 21417, Note_off_c, 3, 86, 108
4, 21432, Note_on_c, 3, 86, 65
4, 21446, Note_off_c, 3, 86, 96
4, 21456, Note_on_c, 3, 79, 63
4, 21478, Note_off_c, 3, 79, 54
4, 21480, Note_on_c, 3, 86, 74
4, 21491, Note_off_c, 3, 86, 108
4, 21504, Note_on_c, 3, 86, 65
4, 21518, Note_off_c, 3, 86, 94
4, 21528, Note_on_c, 3, 79, 51
4, 21549, Note_off_c, 3, 79, 62
4, 21552, Note_on_c, 3, 86, 77
4, 21563, Note_off_c, 3, 86, 101
4, 21576, Note_on_c, 3, 86, 57
4, 21589, Note_off_c, 3, 86, 96
4, 21600, Note_on_c, 3, 79, 61
4, 21620, Note_off_c, 3, 79, 58
4, 21624, Note_on_c, 3, 86, 74
4, 21637, Note_off_c, 3, 86, 94
4, 21648, Note_on_c, 3, 86, 59
4, 21662, Note_off_c, 3, 86, 86
4, 21672, Note_on_c, 3, 79, 59
4, 21692, Note_off_c, 3, 79, 54
4, 21696, Note_on_c, 3, 86, 77
4, 21708, Note_off_c, 3, 86, 94
4, 21720, Note_on_c, 3, 86, 59
4, 21735, Note_off_c, 3, 86, 94
4, 21744, Note_on_c, 3, 79, 59
4, 21764, Note_off_c, 3, 79, 56
4, 21768, Note_on_c, 3, 86, 81
4, 21779, Note_off_c, 3, 86, 106
4, 21792, Note_on_c, 3, 86, 59
4, 21807, Note_off_c, 3, 86, 101
4, 21816, Note_on_c, 3, 79, 53
4, 21834, Note_off_c, 3, 79, 67
4, 21840, Note_on_c, 3, 86, 77
4, 21852, Note_off_c, 3, 86, 103
4, 21864, Note_on_c, 3, 86, 59
4, 21878, Note_off_c, 3, 86, 106
4, 21888, Note_on_c, 3, 79, 53
4, 21908, Note_off_c, 3, 79, 54
4, 21912, Note_on_c, 3, 86, 77
4, 21925, Note_off_c, 3, 86, 99
4, 21936, Note_on_c, 3, 86, 65
4, 21951, Note_off_c, 3, 86, 101
4, 21960, Note_on_c, 3, 79, 59
4, 21980, Note_off_c, 3, 79, 63
4, 21984, Note_on_c, 3, 86, 77
4, 21996, Note_off_c, 3, 86, 96
4, 22008, Note_on_c, 3, 86, 59
4, 22023, Note_off_c, 3, 86, 108
4, 22032, Note_on_c, 3, 79, 51
4, 22053, Note_off_c, 3, 79, 66
4, 22056, Note_on_c, 3, 86, 74
4, 22068, Note_off_c, 3, 86, 103
4, 22080, Note_on_c, 3, 86, 63
4, 22095, Note_off_c, 3, 86, 99
4, 22104, Note_on_c, 3, 79, 61
4, 22122, Note_off_c, 3, 79, 67
4, 22128, Note_on_c, 3, 86, 77
4, 22138, Note_off_c, 3, 86, 115
4, 22152, Note_on_c, 3, 86, 57
4, 22165, Note_off_c, 3, 86, 94
4, 22176, Note_on_c, 3, 79, 51
4, 22195, Note_off_c, 3, 79, 77
4, 22200, Note_on_c, 3, 86, 77
4, 22213, Note_off_c, 3, 86, 106
4, 22224, Note_on_c, 3, 86, 63
4, 22239, Note_off_c, 3, 86, 96
4, 22248, Note_on_c, 3, 79, 63
4, 22266, Note_off_c, 3, 79, 59
4, 22272, Note_on_c, 3, 86, 68
4, 22283, Note_off_c, 3, 86, 88
4, 22296, Note_on_c, 3, 86, 65
4, 22312, Note_off_c, 3, 86, 94
4, 22320, Note_on_c, 3, 79, 63
4, 22340, Note_off_c, 3, 79, 65
4, 22344, Note_on_c, 3, 86, 77
4, 22355, Note_off_c, 3, 86, 118
4, 22368, Note_on_c, 3, 86, 65
4, 22385, Note_off_c, 3, 86, 96
4, 22392, Note_on_c, 3, 79, 57
4, 22413, Note_off_c, 3, 79, 69
4, 22416, Note_on_c, 3, 86, 71
4, 22428, Note_off_c, 3, 86, 94
4, 22440, Note_on_c, 3, 86, 59
4, 22457, Note_off_c, 3, 86, 96
4, 22464, Note_on_c, 3, 79, 51
4, 22482, Note_off_c, 3, 79, 73
4, 22488, Note_on_c, 3, 86, 65
4, 22497, Note_off_c, 3, 86, 101
4, 22512, Note_on_c, 3, 86, 61
4, 22526, Note_off_c, 3, 86, 88
4, 22536, Note_on_c, 3, 79, 59
4, 22554, Note_off_c, 3, 79, 56
4, 22560, Note_on_c, 3, 86, 74
4, 22570, Note_off_c, 3, 86, 103
4, 22584, Note_on_c, 3, 86, 63
4, 22598, Note_off_c, 3, 86, 99
4, 22608, Note_on_c, 3, 79, 63
4, 22627, Note_off_c, 3, 79, 69
4, 22632, Note_on_c, 3, 86, 77
4, 22643, Note_off_c, 3, 86, 103
4, 22656, Note_on_c, 3, 86, 65
4, 22670, Note_off_c, 3, 86, 92
4, 22680, Note_on_c, 3, 79, 57
4, 22699, Note_off_c, 3, 79, 56
4, 22704, Note_on_c, 3, 86, 77
4, 22715, Note_off_c, 3, 86, 92
4, 22728, Note_on_c, 3, 86, 63
4, 22745, Note_off_c, 3, 86, 96
4, 22752, Note_on_c, 3, 79, 63
4, 22771, Note_off_c, 3, 79, 70
4, 22776, Note_on_c, 3, 86, 77
4, 22787, Note_off_c, 3, 86, 96
4, 22800, Note_on_c, 3, 86, 63
4, 22817, Note_off_c, 3, 86, 92
4, 22824, Note_on_c, 3, 79, 59
4, 22842, Note_off_c, 3, 79, 63
4, 22848, Note_on_c, 3, 86, 77
4, 22860, Note_off_c, 3, 86, 92
4, 22872, Note_on_c, 3, 86, 55
4, 22887, Note_off_c, 3, 86, 96
4, 22896, Note_on_c, 3, 79, 55
4, 22913, Note_off_c, 3, 79, 61
4, 22920, Note_on_c, 3, 86, 74
4, 22930, Note_off_c, 3, 86, 101
4, 22944, Note_on_c, 3, 86, 65
4, 22961, Note_off_c, 3, 86, 108
4, 22968, Note_on_c, 3, 79, 53
4, 22985, Note_off_c, 3, 79, 62
4, 22992, Note_on_c, 3, 86, 81
4, 23004, Note_off_c, 3, 86, 106
4, 23016, Note_on_c, 3, 86, 59
4, 23031, Note_off_c, 3, 86, 103
4, 23040, Note_on_c, 3, 79, 57
4, 23058, Note_off_c, 3, 79, 73
4, 23064, Note_on_c, 3, 86, 77
4, 23075, Note_off_c, 3, 86, 106
4, 23088, Note_on_c, 3, 86, 63
4, 23102, Note_off_c, 3, 86, 115
4, 23112, Note_on_c, 3, 79, 55
4, 23132, Note_off_c, 3, 79, 59
4, 23136, Note_on_c, 3, 86, 77
4, 23146, Note_off_c, 3, 86, 101
4, 23160, Note_on_c, 3, 86, 65
4, 23176, Note_off_c, 3, 86, 118
4, 23184, Note_on_c, 3, 79, 51
4, 23202, Note_off_c, 3, 79, 66
4, 23208, Note_on_c, 3, 86, 74
4, 23219, Note_off_c, 3, 86, 108
4, 23232, Note_on_c, 3, 86, 68
4, 23246, Note_off_c, 3, 86, 111
4, 23256, Note_on_c, 3, 79, 53
4, 23275, Note_off_c, 3, 79, 72
4, 23280, Note_on_c, 3, 86, 74
4, 23292, Note_off_c, 3, 86, 77
4, 23304, Note_on_c, 3, 86, 48
4, 23321, Note_off_c, 3, 86, 99
4, 23328, Note_on_c, 3, 79, 51
4, 23347, Note_off_c, 3, 79, 62
4, 23352, Note_on_c, 3, 86, 71
4, 23364, Note_off_c, 3, 86, 99
4, 23376, Note_on_c, 3, 86, 61
4, 23392, Note_off_c, 3, 86, 94
4, 23400, Note_on_c, 3, 79, 53
4, 23418, Note_off_c, 3, 79, 61
4, 23424, Note_on_c, 3, 86, 81
4, 23434, Note_off_c, 3, 86, 106
4, 23448, Note_on_c, 3, 86, 59
4, 23464, Note_off_c, 3, 86, 99
4, 23472, Note_on_c, 3, 79, 44
4, 23490, Note_off_c, 3, 79, 66
4, 23496, Note_on_c, 3, 86, 77
4, 23507, Note_off_c, 3, 86, 115
4, 23520, Note_on_c, 3, 86, 59
4, 23535, Note_off_c, 3, 86, 94
4, 23544, Note_on_c, 3, 79, 57
4, 23564, Note_off_c, 3, 79, 57
4, 23568, Note_on_c, 3, 86, 81
4, 23583, Note_off_c, 3, 86, 96
4, 23592, Note_on_c, 3, 86, 63
4, 23609, Note_off_c, 3, 86, 106
4, 23616, Note_on_c, 3, 79, 57
4, 23636, Note_off_c, 3, 79, 62
4, 23640, Note_on_c, 3, 86, 77
4, 23651, Note_off_c, 3, 86, 103
4, 23664, Note_on_c, 3, 86, 68
4, 23679, Note_off_c, 3, 86, 90
4, 23688, Note_on_c, 3, 79, 59
4, 23708, Note_off_c, 3, 79, 69
4, 23712, Note_on_c, 3, 86, 77
4, 23728, Note_off_c, 3, 86, 82
4, 23736, Note_on_c, 3, 86, 51
4, 23752, Note_off_c, 3, 86, 106
4, 23760, Note_on_c, 3, 79, 68
4, 23777, Note_off_c, 3, 79, 73
4, 23784, Note_on_c, 3, 86, 81
4, 23805, Note_off_c, 3, 86, 75
4, 26880, Note_on_c, 3, 79, 68
4, 26903, Note_off_c, 3, 79, 53
4, 26904, Note_on_c, 3, 86, 71
4, 26915, Note_off_c, 3, 86, 101
4, 26928, Note_on_c, 3, 86, 57
4, 26940, Note_off_c, 3, 86, 96
4, 26952, Note_on_c, 3, 79, 68
4, 26973, Note_off_c, 3, 79, 57
4, 26976, Note_on_c, 3, 86, 77
4, 26988, Note_off_c, 3, 86, 94
4, 27000, Note_on_c, 3, 86, 57
4, 27013, Note_off_c, 3, 86, 82
4, 27024, Note_on_c, 3, 79, 63
4, 27048, Note_off_c, 3, 79, 56
4, 27048, Note_on_c, 3, 86, 74
4, 27059, Note_off_c, 3, 86, 103
4, 27072, Note_on_c, 3, 86, 59
4, 27085, Note_off_c, 3, 86, 88
4, 27096, Note_on_c, 3, 79, 53
4, 27119, Note_off_c, 3, 79, 59
4, 27120, Note_on_c, 3, 86, 74
4, 27132, Note_off_c, 3, 86, 108
4, 27144, Note_on_c, 3, 86, 63
4, 27157, Note_off_c, 3, 86, 80
4, 27168, Note_on_c, 3, 79, 63
4, 27191, Note_off_c, 3, 79, 59
4, 27192, Note_on_c, 3, 86, 71
4, 27202, Note_off_c, 3, 86, 101
4, 27216, Note_on_c, 3, 86, 59
4, 27229, Note_off_c, 3, 86, 88
4, 27240, Note_on_c, 3, 79, 63
4, 27261, Note_off_c, 3, 79, 66
4, 27264, Note_on_c, 3, 86, 74
4, 27275, Note_off_c, 3, 86, 101
4, 27288, Note_on_c, 3, 86, 63
4, 27301, Note_off_c, 3, 86, 94
4, 27312, Note_on_c, 3, 79, 63
4, 27335, Note_off_c, 3, 79, 58
4, 27336, Note_on_c, 3, 86, 81
4, 27347, Note_off_c, 3, 86, 108
4, 27360, Note_on_c, 3, 86, 63
4, 27373, Note_off_c, 3, 86, 94
4, 27384, Note_on_c, 3, 79, 61
4, 27404, Note_off_c, 3, 79, 61
4, 27408, Note_on_c, 3, 86, 77
4, 27419, Note_off_c, 3, 86, 99
4, 27432, Note_on_c, 3, 86, 63
4, 27447, Note_off_c, 3, 86, 94
4, 27456, Note_on_c, 3, 79, 68
4, 27477, Note_off_c, 3, 79, 61
4, 27480, Note_on_c, 3, 86, 74
4, 27490, Note_off_c, 3, 86, 106
4, 27504, Note_on_c, 3, 86, 65
4, 27518, Note_off_c, 3, 86, 99
4, 27528, Note_on_c, 3, 79, 59
4, 27549, Note_off_c, 3, 79, 70
4, 27552, Note_on_c, 3, 86, 81
4, 27561, Note_off_c, 3, 86, 108
4, 27576, Note_on_c, 3, 86, 65
4, 27590, Note_off_c, 3, 86, 96
4, 27600, Note_on_c, 3, 79, 63
4, 27622, Note_off_c, 3, 79, 54
4, 27624, Note_on_c, 3, 86, 74
4, 27635, Note_off_c, 3, 86, 108
4, 27648, Note_on_c, 3, 86, 65
4, 27662, Note_off_c, 3, 86, 94
4, 27672, Note_on_c, 3, 79, 51
4, 27693, Note_off_c, 3, 79, 62
4, 27696, Note_on_c, 3, 86, 77
4, 27707, Note_off_c, 3, 86, 101
4, 27720, Note_on_c, 3, 86, 57
4, 27733, Note_off_c, 3, 86, 96
4, 27744, Note_on_c, 3, 79, 61
4, 27764, Note_off_c, 3, 79, 58
4, 27768, Note_on_c, 3, 86, 74
4, 27781, Note_off_c, 3, 86, 94
4, 27792, Note_on_c, 3, 86, 59
4, 27806, Note_off_c, 3, 86, 86
4, 27816, Note_on_c, 3, 79, 59
4, 27836, Note_off_c, 3, 79, 54
4, 27840, Note_on_c, 3, 86, 77
4, 27852, Note_off_c, 3, 86, 94
4, 27864, Note_on_c, 3, 86, 59
4, 27879, Note_off_c, 3, 86, 94
4, 27888, Note_on_c, 3, 79, 59
4, 27908, Note_off_c, 3, 79, 56
4, 27912, Note_on_c, 3, 86, 81
4, 27923, Note_off_c, 3, 86, 106
4, 27936, Note_on_c, 3, 86, 59
4, 27951, Note_off_c, 3, 86, 101
4, 27960, Note_on_c, 3, 79, 53
4, 27978, Note_off_c, 3, 79, 67
4, 27984, Note_on_c, 3, 86, 77
4, 27996, Note_off_c, 3, 86, 103
4, 28008, Note_on_c, 3, 86, 59
4, 28022, Note_off_c, 3, 86, 106
4, 28032, Note_on_c, 3, 79, 53
4, 28052, Note_off_c, 3, 79, 54
4, 28056, Note_on_c, 3, 86, 77
4, 28069, Note_off_c, 3, 86, 99
4, 28080, Note_on_c, 3, 86, 65
4, 28095, Note_off_c, 3, 86, 101
4, 28104, Note_on_c, 3, 79, 59
4, 28124, Note_off_c, 3, 79, 63
4, 28128, Note_on_c, 3, 86, 77
4, 28140, Note_off_c, 3, 86, 96
4, 28152, Note_on_c, 3, 86, 59
4, 28167, Note_off_c, 3, 86, 108
4, 28176, Note_on_c, 3, 79, 51
4, 28197, Note_off_c, 3, 79, 66
4, 28200, Note_on_c, 3, 86, 74
4, 28212, Note_off_c, 3, 86, 103
4, 28224, Note_on_c, 3, 86, 63
4, 28239, Note_off_c, 3, 86, 99
4, 28248, Note_on_c, 3, 79, 61
4, 28266, Note_off_c, 3, 79, 67
4, 28272, Note_on_c, 3, 86, 77
4, 28282, Note_off_c, 3, 86, 115
4, 28296, Note_on_c, 3, 86, 57
4, 28309, Note_off_c, 3, 86, 94
4, 28320, Note_on_c, 3, 79, 51
4, 28339, Note_off_c, 3, 79, 77
4, 28344, Note_on_c, 3, 86, 77
4, 28357, Note_off_c, 3, 86, 106
4, 28368, Note_on_c, 3, 86, 63
4, 28383, Note_off_c, 3, 86, 96
4, 28392, Note_on_c, 3, 79, 63
4, 28410, Note_off_c, 3, 79, 59
4, 28416, Note_on_c, 3, 86, 68
4, 28427, Note_off_c, 3, 86, 88
4, 28440, Note_on_c, 3, 86, 65
4, 28456, Note_off_c, 3, 86, 94
4, 28464, Note_on_c, 3, 79, 63
4, 28484, Note_off_c, 3, 79, 65
4, 28488, Note_on_c, 3, 86, 77
4, 28499, Note_off_c, 3, 86, 118
4, 28512, Note_on_c, 3, 86, 65
4, 28529, Note_off_c, 3, 86, 96
4, 28536, Note_on_c, 3, 79, 57
4, 28557, Note_off_c, 3, 79, 69
4, 28560, Note_on_c, 3, 86, 71
4, 28572, Note_off_c, 3, 86, 94
4, 28584, Note_on_c, 3, 86, 59
4, 28601, Note_off_c, 3, 86, 96
4, 28608, Note_on_c, 3, 79, 51
4, 28626, Note_off_c, 3, 79, 73
4, 28632, Note_on_c, 3, 86, 65
4, 28641, Note_off_c, 3, 86, 101
4, 28656, Note_on_c, 3, 86, 61
4, 28670, Note_off_c, 3, 86, 88
4, 28680, Note_on_c, 3, 79, 59
4, 28698, Note_off_c, 3, 79, 56
4, 28704, Note_on_c, 3, 86, 74
4, 28714, Note_off_c, 3, 86, 103
4, 28728, Note_on_c, 3, 86, 63
4, 28742, Note_off_c, 3, 86, 99
4, 28752, Note_on_c, 3, 79, 63
4, 28771, Note_off_c, 3, 79, 69
4, 28776, Note_on_c, 3, 86, 77
4, 28787, Note_off_c, 3, 86, 103
4, 28800, Note_on_c, 3, 86, 65
4, 28814, Note_off_c, 3, 86, 92
4, 28824, Note_on_c, 3, 79, 57
4, 28843, Note_off_c, 3, 79, 56
4, 28848, Note_on_c, 3, 86, 77
4, 28859, Note_off_c, 3, 86, 92
4, 28872, Note_on_c, 3, 86, 63
4, 28889, Note_off_c, 3, 86, 96
4, 28896, Note_on_c, 3, 79, 63
4, 28915, Note_off_c, 3, 79, 70
4, 28920, Note_on_c, 3, 86, 77
4, 28931, Note_off_c, 3, 86, 96
4, 28944, Note_on_c, 3, 86, 63
4, 28961, Note_off_c, 3, 86, 92
4, 28968, Note_on_c, 3, 79, 59
4, 28986, Note_off_c, 3, 79, 63
4, 28992, Note_on_c, 3, 86, 77
4, 29004, Note_off_c, 3, 86, 92
4, 29016, Note_on_c, 3, 86, 55
4, 29031, Note_off_c, 3, 86, 96
4, 29040, Note_on_c, 3, 79, 55
4, 29057, Note_off_c, 3, 79, 61
4, 29064, Note_on_c, 3, 86, 74
4, 29074, Note_off_c, 3, 86, 101
4, 29088, Note_on_c, 3, 86, 65
4, 29105, Note_off_c, 3, 86, 108
4, 29112, Note_on_c, 3, 79, 53
4, 29129, Note_off_c, 3, 79, 62
4, 29136, Note_on_c, 3, 86, 81
4, 29148, Note_off_c, 3, 86, 106
4, 29160, Note_on_c, 3, 86, 59
4, 29175, Note_off_c, 3, 86, 103
4, 29184, Note_on_c, 3, 79, 57
4, 29202, Note_off_c, 3, 79, 73
4, 29208, Note_on_c, 3, 86, 77
4, 29219, Note_off_c, 3, 86, 106
4, 29232, Note_on_c, 3, 86, 63
4, 29246, Note_off_c, 3, 86, 115
4, 29256, Note_on_c, 3, 79, 55
4, 29276, Note_off_c, 3, 79, 59
4, 29280, Note_on_c, 3, 86, 77
4, 29290, Note_off_c, 3, 86, 101
4, 29304, Note_on_c, 3, 86, 65
4, 29320, Note_off_c, 3, 86, 118
4, 29328, Note_on_c, 3, 79, 51
4, 29346, Note_off_c, 3, 79, 66
4, 29352, Note_on_c, 3, 86, 74
4, 29363, Note_off_c, 3, 86, 108
4, 29376, Note_on_c, 3, 86, 68
4, 29390, Note_off_c, 3, 86, 111
4, 29400, Note_on_c, 3, 79, 53
4, 29419, Note_off_c, 3, 79, 72
4, 29424, Note_on_c, 3, 86, 74
4, 29436, Note_off_c, 3, 86, 77
4, 29448, Note_on_c, 3, 86, 48
4, 29465, Note_off_c, 3, 86, 99
4, 29472, Note_on_c, 3, 79, 51
4, 29491, Note_off_c, 3, 79, 62
4, 29496, Note_on_c, 3, 86, 71
4, 29508, Note_off_c, 3, 86, 99
4, 29520, Note_on_c, 3, 86, 61
4, 29536, Note_off_c, 3, 86, 94
4, 29544, Note_on_c, 3, 79, 53
4, 29562, Note_off_c, 3, 79, 61
4, 29568, Note_on_c, 3, 86, 81
4, 29578, Note_off_c, 3, 86, 106
4, 29592, Note_on_c, 3, 86, 59
4, 29608, Note_off_c, 3, 86, 99
4, 29616, Note_on_c, 3, 79, 44
4, 29634, Note_off_c, 3, 79, 66
4, 29640, Note_on_c, 3, 86, 77
4, 29651, Note_off_c, 3, 86, 115
4, 29664, Note_on_c, 3, 86, 59
4, 29679, Note_off_c, 3, 86, 94
4, 29688, Note_on_c, 3, 79, 57
4, 29708, Note_off_c, 3, 79, 57
4, 29712, Note_on_c, 3, 86, 81
4, 29727, Note_off_c, 3, 86, 96
4, 29736, Note_on_c, 3, 86, 63
4, 29753, Note_off_c, 3, 86, 106
4, 29760, Note_on_c, 3, 79, 57
4, 29780, Note_off_c, 3, 79, 62
4, 29784, Note_on_c, 3, 86, 77
4, 29795, Note_off_c, 3, 86, 103
4, 29808, Note_on_c, 3, 86, 68
4, 29823, Note_off_c, 3, 86, 90
4, 29832, Note_on_c, 3, 79, 59
4, 29852, Note_off_c, 3, 79, 69
4, 29856, Note_on_c, 3, 86, 77
4, 29872, Note_off_c, 3, 86, 82
4, 29880, Note_on_c, 3, 86, 51
4, 29896, Note_off_c, 3, 86, 106
4, 29904, Note_on_c, 3, 79, 68
4, 29921, Note_off_c, 3, 79, 73
4, 29928, Note_on_c, 3, 86, 81
4, 29949, Note_off_c, 3, 86, 75
4, 29952, Note_on_c, 3, 79, 68
4, 29975, Note_off_c, 3, 79, 53
4, 29976, Note_on_c, 3, 86, 71
4, 29987, Note_off_c, 3, 86, 101
4, 30000, Note_on_c, 3, 86, 57
4, 30012, Note_off_c, 3, 86, 96
4, 30024, Note_on_c, 3, 79, 68
4, 30045, Note_off_c, 3, 79, 57
4, 30048, Note_on_c, 3, 86, 77
4, 30060, Note_off_c, 3, 86, 94
4, 30072, Note_on_c, 3, 86, 57
4, 30085, Note_off_c, 3, 86, 82
4, 30096, Note_on_c, 3, 79, 63
4, 30120, Note_off_c, 3, 79, 56
4, 30120, Note_on_c, 3, 86, 74
4, 30131, Note_off_c, 3, 86, 103
4, 30144, Note_on_c, 3, 86, 59
4, 30157, Note_off_c, 3, 86, 88
4, 30168, Note_on_c, 3, 79, 53
4, 30191, Note_off_c, 3, 79, 59
4, 30192, Note_on_c, 3, 86, 74
4, 30204, Note_off_c, 3, 86, 108
4, 30216, Note_on_c, 3, 86, 63
4, 30229, Note_off_c, 3, 86, 80
4, 30240, Note_on_c, 3, 79, 63
4, 30263, Note_off_c, 3, 79, 59
4, 30264, Note_on_c, 3, 86, 71
4, 30274, Note_off_c, 3, 86, 101
4, 30288, Note_on_c, 3, 86, 59
4, 30301, Note_off_c, 3, 86, 88
4, 30312, Note_on_c, 3, 79, 63
4, 30333, Note_off_c, 3, 79, 66
4, 30336, Note_on_c, 3, 86, 74
4, 30347, Note_off_c, 3, 86, 101
4, 30360, Note_on_c, 3, 86, 63
4, 30373, Note_off_c, 3, 86, 94
4, 30384, Note_on_c, 3, 79, 63
4, 30407, Note_off_c, 3, 79, 58
4, 30408, Note_on_c, 3, 86, 81
4, 30419, Note_off_c, 3, 86, 108
4, 30432, Note_on_c, 3, 86, 63
4, 30445, Note_off_c, 3, 86, 94
4, 30456, Note_on_c, 3, 79, 61
4, 30476, Note_off_c, 3, 79, 61
4, 30480, Note_on_c, 3, 86, 77
4, 30491, Note_off_c, 3, 86, 99
4, 30504, Note_on_c, 3, 86, 63
4, 30519, Note_off_c, 3, 86, 94
4, 30528, Note_on_c, 3, 79, 68
4, 30549, Note_off_c, 3, 79, 61
4, 30552, Note_on_c, 3, 86, 74
4, 30562, Note_off_c, 3, 86, 106
4, 30576, Note_on_c, 3, 86, 65
4, 30590, Note_off_c, 3, 86, 99
4, 30600, Note_on_c, 3, 79, 59
4, 30621, Note_off_c, 3, 79, 70
4, 30624, Note_on_c, 3, 86, 81
4, 30633, Note_off_c, 3, 86, 108
4, 30648, Note_on_c, 3, 86, 65
4, 30662, Note_off_c, 3, 86, 96
4, 30672, Note_on_c, 3, 79, 63
4, 30694, Note_off_c, 3, 79, 54
4, 30696, Note_on_c, 3, 86, 74
4, 30707, Note_off_c, 3, 86, 108
4, 30720, Note_on_c, 3, 86, 65
4, 30734, Note_off_c, 3, 86, 94
4, 30744, Note_on_c, 3, 79, 51
4, 30765, Note_off_c, 3, 79, 62
4, 30768, Note_on_c, 3, 86, 77
4, 30779, Note_off_c, 3, 86, 101
4, 30792, Note_on_c, 3, 86, 57
4, 30805, Note_off_c, 3, 86, 96
4, 30816, Note_on_c, 3, 79, 61
4, 30836, Note_off_c, 3, 79, 58
4, 30840, Note_on_c, 3, 86, 74
4, 30853, Note_off_c, 3, 86, 94
4, 30864, Note_on_c, 3, 86, 59
4, 30878, Note_off_c, 3, 86, 86
4, 30888, Note_on_c, 3, 79, 59
4, 30908, Note_off_c, 3, 79, 54
4, 30912, Note_on_c, 3, 86, 77
4, 30924, Note_off_c, 3, 86, 94
4, 30936, Note_on_c, 3, 86, 59
4, 30951, Note_off_c, 3, 86, 94
4, 30960, Note_on_c, 3, 79, 59
4, 30980, Note_off_c, 3, 79, 56
4, 30984, Note_on_c, 3, 86, 81
4, 30995, Note_off_c, 3, 86, 106
4, 31008, Note_on_c, 3, 86, 59
4, 31023, Note_off_c, 3, 86, 101
4, 31032, Note_on_c, 3, 79, 53
4, 31050, Note_off_c, 3, 79, 67
4, 31056, Note_on_c, 3, 86, 77
4, 31068, Note_off_c, 3, 86, 103
4, 31080, Note_on_c, 3, 86, 59
4, 31094, Note_off_c, 3, 86, 106
4, 31104, Note_on_c, 3, 79, 53
4, 31124, Note_off_c, 3, 79, 54
4, 31128, Note_on_c, 3, 86, 77
4, 31141, Note_off_c, 3, 86, 99
4, 31152, Note_on_c, 3, 86, 65
4, 31167, Note_off_c, 3, 86, 101
4, 31176, Note_on_c, 3, 79, 59
4, 31196, Note_off_c, 3, 79, 63
4, 31200, Note_on_c, 3, 86, 77
4, 31212, Note_off_c, 3, 86, 96
4, 31224, Note_on_c, 3, 86, 59
4, 31239, Note_off_c, 3, 86, 108
4, 31248, Note_on_c, 3, 79, 51
4, 31269, Note_off_c, 3, 79, 66
4, 31272, Note_on_c, 3, 86, 74
4, 31284, Note_off_c, 3, 86, 103
4, 31296, Note_on_c, 3, 86, 63
4, 31311, Note_off_c, 3, 86, 99
4, 31320, Note_on_c, 3, 79, 61
4, 31338, Note_off_c, 3, 79, 67
4, 31344, Note_on_c, 3, 86, 77
4, 31354, Note_off_c, 3, 86, 115
4, 31368, Note_on_c, 3, 86, 57
4, 31381, Note_off_c, 3, 86, 94
4, 31392, Note_on_c, 3, 79, 51
4, 31411, Note_off_c, 3, 79, 77
4, 31416, Note_on_c, 3, 86, 77
4, 31429, Note_off_c, 3, 86, 106
4, 31440, Note_on_c, 3, 86, 63
4, 31455, Note_off_c, 3, 86, 96
4, 31464, Note_on_c, 3, 79, 63
4, 31482, Note_off_c, 3, 79, 59
4, 31488, Note_on_c, 3, 86, 68
4, 31499, Note_off_c, 3, 86, 88
4, 31512, Note_on_c, 3, 86, 65
4, 31528, Note_off_c, 3, 86, 94
4, 31536, Note_on_c, 3, 79, 63
4, 31556, Note_off_c, 3, 79, 65
4, 31560, Note_on_c, 3, 86, 77
4, 31571, Note_off_c, 3, 86, 118
4, 31584, Note_on_c, 3, 86, 65
4, 31601, Note_off_c, 3, 86, 96
4, 31608, Note_on_c, 3, 79, 57
4, 31629, Note_off_c, 3, 79, 69
4, 31632, Note_on_c, 3, 86, 71
4, 31644, Note_off_c, 3, 86, 94
4, 31656, Note_on_c, 3, 86, 59
4, 31673, Note_off_c, 3, 86, 96
4, 31680, Note_on_c, 3, 79, 51
4, 31698, Note_off_c, 3, 79, 73
4, 31704, Note_on_c, 3, 86, 65
4, 31713, Note_off_c, 3, 86, 101
4, 31728, Note_on_c, 3, 86, 61
4, 31742, Note_off_c, 3, 86, 88
4, 31752, Note_on_c, 3, 79, 59
4, 31770, Note_off_c, 3, 79, 56
4, 31776, Note_on_c, 3, 86, 74
4, 31786, Note_off_c, 3, 86, 103
4, 31800, Note_on_c, 3, 86, 63
4, 31814, Note_off_c, 3, 86, 99
4, 31824, Note_on_c, 3, 79, 63
4, 31843, Note_off_c, 3, 79, 69
4, 31848, Note_on_c, 3, 86, 77
4, 31859, Note_off_c, 3, 86, 103
4, 31872, Note_on_c, 3, 86, 65
4, 31886, Note_off_c, 3, 86, 92
4, 31896, Note_on_c, 3, 79, 57
4, 31915, Note_off_c, 3, 79, 56
4, 31920, Note_on_c, 3, 86, 77
4, 31931, Note_off_c, 3, 86, 92
4, 31944, Note_on_c, 3, 86, 63
4, 31961, Note_off_c, 3, 86, 96
4, 31968, Note_on_c, 3, 79, 63
4, 31987, Note_off_c, 3, 79, 70
4, 31992, Note_on_c, 3, 86, 77
4, 32003, Note_off_c, 3, 86, 96
4, 32016, Note_on_c, 3, 86, 63
4, 32033, Note_off_c, 3, 86, 92
4, 32040, Note_on_c, 3, 79, 59
4, 32058, Note_off_c, 3, 79, 63
4, 32064, Note_on_c, 3, 86, 77
4, 32076, Note_off_c, 3, 86, 92
4, 32088, Note_on_c, 3, 86, 55
4, 32103, Note_off_c, 3, 86, 96
4, 32112, Note_on_c, 3, 79, 55
4, 32129, Note_off_c, 3, 79, 61
4, 32136, Note_on_c, 3, 86, 74
4, 32146, Note_off_c, 3, 86, 101
4, 32160, Note_on_c, 3, 86, 65
4, 32177, Note_off_c, 3, 86, 108
4, 32184, Note_on_c, 3, 79, 53
4, 32201, Note_off_c, 3, 79, 62
4, 32208, Note_on_c, 3, 86, 81
4, 32220, Note_off_c, 3, 86, 106
4, 32232, Note_on_c, 3, 86, 59
4, 32247, Note_off_c, 3, 86, 103
4, 32256, Note_on_c, 3, 79, 57
4, 32274, Note_off_c, 3, 79, 73
4, 32280, Note_on_c, 3, 86, 77
4, 32291, Note_off_c, 3, 86, 106
4, 32304, Note_on_c, 3, 86, 63
4, 32318, Note_off_c, 3, 86, 115
4, 32328, Note_on_c, 3, 79, 55
4, 32348, Note_off_c, 3, 79, 59
4, 32352, Note_on_c, 3, 86, 77
4, 32362, Note_off_c, 3, 86, 101
4, 32376, Note_on_c, 3, 86, 65
4, 32392, Note_off_c, 3, 86, 118
4, 32400, Note_on_c, 3, 79, 51
4, 32418, Note_off_c, 3, 79, 66
4, 32424, Note_on_c, 3, 86, 74
4, 32435, Note_off_c, 3, 86, 108
4, 32448, Note_on_c, 3, 86, 68
4, 32462, Note_off_c, 3, 86, 111
4, 32472, Note_on_c, 3, 79, 53
4, 32491, Note_off_c, 3, 79, 72
4, 32496, Note_on_c, 3, 86, 74
4, 32508, Note_off_c, 3, 86, 77
4, 32520, Note_on_c, 3, 86, 48
4, 32537, Note_off_c, 3, 86, 99
4, 32544, Note_on_c, 3, 79, 51
4, 32563, Note_off_c, 3, 79, 62
4, 32568, Note_on_c, 3, 86, 71
4, 32580, Note_off_c, 3, 86, 99
4, 32592, Note_on_c, 3, 86, 61
4, 32608, Note_off_c, 3, 86, 94
4, 32616, Note_on_c, 3, 79, 53
4, 32634, Note_off_c, 3, 79, 61
4, 32640, Note_on_c, 3, 86, 81
4, 32650, Note_off_c, 3, 86, 106
4, 32664, Note_on_c, 3, 86, 59
4, 32680, Note_off_c, 3, 86, 99
4, 32688, Note_on_c, 3, 79, 44
4, 32706, Note_off_c, 3, 79, 66
4, 32712, Note_on_c, 3, 86, 77
4, 32723, Note_off_c, 3, 86, 115
4, 32736, Note_on_c, 3, 86, 59
4, 32751, Note_off_c, 3, 86, 94
4, 32760, Note_on_c, 3, 79, 57
4, 32780, Note_off_c, 3, 79, 57
4, 32784, Note_on_c, 3, 86, 81
4, 32799, Note_off_c, 3, 86, 96
4, 32808, Note_on_c, 3, 86, 63
4, 32825, Note_off_c, 3, 86, 106
4, 32832, Note_on_c, 3, 79, 57
4, 32852, Note_off_c, 3, 79, 62
4, 32856, Note_on_c, 3, 86, 77
4, 32867, Note_off_c, 3, 86, 103
4, 32880, Note_on_c, 3, 86, 68
4, 32895, Note_off_c, 3, 86, 90
4, 32904, Note_on_c, 3, 79, 59
4, 32924, Note_off_c, 3, 79, 69
4, 32928, Note_on_c, 3, 86, 77
4, 32944, Note_off_c, 3, 86, 82
4, 32952, Note_on_c, 3, 86, 51
4, 32968, Note_off_c, 3, 86, 106
4, 32976, Note_on_c, 3, 79, 68
4, 32993, Note_off_c, 3, 79, 73
4, 33000, Note_on_c, 3, 86, 81
4, 33021, Note_off_c, 3, 86, 75
4, 33024, Note_on_c, 3, 79, 68
4, 33047, Note_off_c, 3, 79, 53
4, 33048, Note_on_c, 3, 86, 71
4, 33059, Note_off_c, 3, 86, 101
4, 33072, Note_on_c, 3, 86, 57
4, 33084, Note_off_c, 3, 86, 96
4, 33096, Note_on_c, 3, 79, 68
4, 33117, Note_off_c, 3, 79, 57
4, 33120, Note_on_c, 3, 86, 77
4, 33132, Note_off_c, 3, 86, 94
4, 33144, Note_on_c, 3, 86, 57
4, 33157, Note_off_c, 3, 86, 82
4, 33168, Note_on_c, 3, 79, 63
4, 33192, Note_off_c, 3, 79, 56
4, 33192, Note_on_c, 3, 86, 74
4, 33203, Note_off_c, 3, 86, 103
4, 33216, Note_on_c, 3, 86, 59
4, 33229, Note_off_c, 3, 86, 88
4, 33240, Note_on_c, 3, 79, 53
4, 33263, Note_off_c, 3, 79, 59
4, 33264, Note_on_c, 3, 86, 74
4, 33276, Note_off_c, 3, 86, 108
4, 33288, Note_on_c, 3, 86, 63
4, 33301, Note_off_c, 3, 86, 80
4, 33312, Note_on_c, 3, 79, 63
4, 33335, Note_off_c, 3, 79, 59
4, 33336, Note_on_c, 3, 86, 71
4, 33346, Note_off_c, 3, 86, 101
4, 33360, Note_on_c, 3, 86, 59
4, 33373, Note_off_c, 3, 86, 88
4, 33384, Note_on_c, 3, 79, 63
4, 33405, Note_off_c, 3, 79, 66
4, 33408, Note_on_c, 3, 86, 74
4, 33419, Note_off_c, 3, 86, 101
4, 33432, Note_on_c, 3, 86, 63
4, 33445, Note_off_c, 3, 86, 94
4, 33456, Note_on_c, 3, 79, 63
4, 33479, Note_off_c, 3, 79, 58
4, 33480, Note_on_c, 3, 86, 81
4, 33491, Note_off_c, 3, 86, 108
4, 33504, Note_on_c, 3, 86, 63
4, 33517, Note_off_c, 3, 86, 94
4, 33528, Note_on_c, 3, 79, 61
4, 33548, Note_off_c, 3, 79, 61
4, 33552, Note_on_c, 3, 86, 77
4, 33563, Note_off_c, 3, 86, 99
4, 33576, Note_on_c, 3, 86, 63
4, 33591, Note_off_c, 3, 86, 94
4, 33600, Note_on_c, 3, 79, 68
4, 33621, Note_off_c, 3, 79, 61
4, 33624, Note_on_c, 3, 86, 74
4, 33634, Note_off_c, 3, 86, 106
4, 33648, Note_on_c, 3, 86, 65
4, 33662, Note_off_c, 3, 86, 99
4, 33672, Note_on_c, 3, 79, 59
4, 33693, Note_off_c, 3, 79, 70
4, 33696, Note_on_c, 3, 86, 81
4, 33705, Note_off_c, 3, 86, 108
4, 33720, Note_on_c, 3, 86, 65
4, 33734, Note_off_c, 3, 86, 96
4, 33744, Note_on_c, 3, 79, 63
4, 33766, Note_off_c, 3, 79, 54
4, 33768, Note_on_c, 3, 86, 74
4, 33779, Note_off_c, 3, 86, 108
4, 33792, Note_on_c, 3, 86, 65
4, 33806, Note_off_c, 3, 86, 94
4, 33816, Note_on_c, 3, 79, 51
4, 33837, Note_off_c, 3, 79, 62
4, 33840, Note_on_c, 3, 86, 77
4, 33851, Note_off_c, 3, 86, 101
4, 33864, Note_on_c, 3, 86, 57
4, 33877, Note_off_c, 3, 86, 96
4, 33888, Note_on_c, 3, 79, 61
4, 33908, Note_off_c, 3, 79, 58
4, 33912, Note_on_c, 3, 86, 74
4, 33925, Note_off_c, 3, 86, 94
4, 33936, Note_on_c, 3, 86, 59
4, 33950, Note_off_c, 3, 86, 86
4, 33960, Note_on_c, 3, 79, 59
4, 33980, Note_off_c, 3, 79, 54
4, 33984, Note_on_c, 3, 86, 77
4, 33996, Note_off_c, 3, 86, 94
4, 34008, Note_on_c, 3, 86, 59
4, 34023, Note_off_c, 3, 86, 94
4, 34032, Note_on_c, 3, 79, 59
4, 34052, Note_off_c, 3, 79, 56
4, 34056, Note_on_c, 3, 86, 81
4, 34067, Note_off_c, 3, 86, 106
4, 34080, Note_on_c, 3, 86, 59
4, 34095, Note_off_c, 3, 86, 101
4, 34104, Note_on_c, 3, 79, 53
4, 34122, Note_off_c, 3, 79, 67
4, 34128, Note_on_c, 3, 86, 77
4, 34140, Note_off_c, 3, 86, 103
4, 34152, Note_on_c, 3, 86, 59
4, 34166, Note_off_c, 3, 86, 106
4, 34176, Note_on_c, 3, 79, 53
4, 34196, Note_off_c, 3, 79, 54
4, 34200, Note_on_c, 3, 86, 77
4, 34213, Note_off_c, 3, 86, 99
4, 34224, Note_on_c, 3, 86, 65
4, 34239, Note_off_c, 3, 86, 101
4, 34248, Note_on_c, 3, 79, 59
4, 34268, Note_off_c, 3, 79, 63
4, 34272, Note_on_c, 3, 86, 77
4, 34284, Note_off_c, 3, 86, 96
4, 34296, Note_on_c, 3, 86, 59
4, 34311, Note_off_c, 3, 86, 108
4, 34320, Note_on_c, 3, 79, 51
4, 34341, Note_off_c, 3, 79, 66
4, 34344, Note_on_c, 3, 86, 74
4, 34356, Note_off_c, 3, 86, 103
4, 34368, Note_on_c, 3, 86, 63
4, 34383, Note_off_c, 3, 86, 99
4, 34392, Note_on_c, 3, 79, 61
4, 34410, Note_off_c, 3, 79, 67
4, 34416, Note_on_c, 3, 86, 77
4, 34426, Note_off_c, 3, 86, 115
4, 34440, Note_on_c, 3, 86, 57
4, 34453, Note_off_c, 3, 86, 94
4, 34464, Note_on_c, 3, 79, 51
4, 34483, Note_off_c, 3, 79, 77
4, 34488, Note_on_c, 3, 86, 77
4, 34501, Note_off_c, 3, 86, 106
4, 34512, Note_on_c, 3, 86, 63
4, 34527, Note_off_c, 3, 86, 96
4, 34536, Note_on_c, 3, 79, 63
4, 34554, Note_off_c, 3, 79, 59
4, 34560, Note_on_c, 3, 86, 68
4, 34571, Note_off_c, 3, 86, 88
4, 34584, Note_on_c, 3, 86, 65
4, 34600, Note_off_c, 3, 86, 94
4, 34608, Note_on_c, 3, 79, 63
4, 34628, Note_off_c, 3, 79, 65
4, 34632, Note_on_c, 3, 86, 77
4, 34643, Note_off_c, 3, 86, 118
4, 34656, Note_on_c, 3, 86, 65
4, 34673, Note_off_c, 3, 86, 96
4, 34680, Note_on_c, 3, 79, 57
4, 34701, Note_off_c, 3, 79, 69
4, 34704, Note_on_c, 3, 86, 71
4, 34716, Note_off_c, 3, 86, 94
4, 34728, Note_on_c, 3, 86, 59
4, 34745, Note_off_c, 3, 86, 96
4, 34752, Note_on_c, 3, 79, 51
4, 34770, Note_off_c, 3, 79, 73
4, 34776, Note_on_c, 3, 86, 65
4, 34785, Note_off_c, 3, 86, 101
4, 34800, Note_on_c, 3, 86, 61
4, 34814, Note_off_c, 3, 86, 88
4, 34824, Note_on_c, 3, 79, 59
4, 34842, Note_off_c, 3, 79, 56
4, 34848, Note_on_c, 3, 86, 74
4, 34858, Note_off_c, 3, 86, 103
4, 34872, Note_on_c, 3, 86, 63
4, 34886, Note_off_c, 3, 86, 99
4, 34896, Note_on_c, 3, 79, 63
4, 34915, Note_off_c, 3, 79, 69
4, 34920, Note_on_c, 3, 86, 77
4, 34931, Note_off_c, 3, 86, 103
4, 34944, Note_on_c, 3, 86, 65
4, 34958, Note_off_c, 3, 86, 92
4, 34968, Note_on_c, 3, 79, 57
4, 34987, Note_off_c, 3, 79, 56
4, 34992, Note_on_c, 3, 86, 77
4, 35003, Note_off_c, 3, 86, 92
4, 35016, Note_on_c, 3, 86, 63
4, 35033, Note_off_c, 3, 86, 96
4, 35040, Note_on_c, 3, 79, 63
4, 35059, Note_off_c, 3, 79, 70
4, 35064, Note_on_c, 3, 86, 77
4, 35075, Note_off_c, 3, 86, 96
4, 35088, Note_on_c, 3, 86, 63
4, 35105, Note_off_c, 3, 86, 92
4, 35112, Note_on_c, 3, 79, 59
4, 35130, Note_off_c, 3, 79, 63
4, 35136, Note_on_c, 3, 86, 77
4, 35148, Note_off_c, 3, 86, 92
4, 35160, Note_on_c, 3, 86, 55
4, 35175, Note_off_c, 3, 86, 96
4, 35184, Note_on_c, 3, 79, 55
4, 35201, Note_off_c, 3, 79, 61
4, 35208, Note_on_c, 3, 86, 74
4, 35218, Note_off_c, 3, 86, 101
4, 35232, Note_on_c, 3, 86, 65
4, 35249, Note_off_c, 3, 86, 108
4, 35256, Note_on_c, 3, 79, 53
4, 35273, Note_off_c, 3, 79, 62
4, 35280, Note_on_c, 3, 86, 81
4, 35292, Note_off_c, 3, 86, 106
4, 35304, Note_on_c, 3, 86, 59
4, 35319, Note_off_c, 3, 86, 103
4, 35328, Note_on_c, 3, 79, 57
4, 35346, Note_off_c, 3, 79, 73
4, 35352, Note_on_c, 3, 86, 77
4, 35363, Note_off_c, 3, 86, 106
4, 35376, Note_on_c, 3, 86, 63
4, 35390, Note_off_c, 3, 86, 115
4, 35400, Note_on_c, 3, 79, 55
4, 35420, Note_off_c, 3, 79, 59
4, 35424, Note_on_c, 3, 86, 77
4, 35434, Note_off_c, 3, 86, 101
4, 35448, Note_on_c, 3, 86, 65
4, 35464, Note_off_c, 3, 86, 118
4, 35472, Note_on_c, 3, 79, 51
4, 35490, Note_off_c, 3, 79, 66
4, 35496, Note_on_c, 3, 86, 74
4, 35507, Note_off_c, 3, 86, 108
4, 35520, Note_on_c, 3, 86, 68
4, 35534, Note_off_c, 3, 86, 111
4, 35544, Note_on_c, 3, 79, 53
4, 35563, Note_off_c, 3, 79, 72
4, 35568, Note_on_c, 3, 86, 74
4, 35580, Note_off_c, 3, 86, 77
4, 35592, Note_on_c, 3, 86, 48
4, 35609, Note_off_c, 3, 86, 99
4, 35616, Note_on_c, 3, 79, 51
4, 35635, Note_off_c, 3, 79, 62
4, 35640, Note_on_c, 3, 86, 71
4, 35652, Note_off_c, 3, 86, 99
4, 35664, Note_on_c, 3, 86, 61
4, 35680, Note_off_c, 3, 86, 94
4, 35688, Note_on_c, 3, 79, 53
4, 35706, Note_off_c, 3, 79, 61
4, 35712, Note_on_c, 3, 86, 81
4, 35722, Note_off_c, 3, 86, 106
4, 35736, Note_on_c, 3, 86, 59
4, 35752, Note_off_c, 3, 86, 99
4, 35760, Note_on_c, 3, 79, 44
4, 35778, Note_off_c, 3, 79, 66
4, 35784, Note_on_c, 3, 86, 77
4, 35795, Note_off_c, 3, 86, 115
4, 35808, Note_on_c, 3, 86, 59
4, 35823, Note_off_c, 3, 86, 94
4, 35832, Note_on_c, 3, 79, 57
4, 35852, Note_off_c, 3, 79, 57
4, 35856, Note_on_c, 3, 86, 81
4, 35871, Note_off_c, 3, 86, 96
4, 35880, Note_on_c, 3, 86, 63
4, 35897, Note_off_c, 3, 86, 106
4, 35904, Note_on_c, 3, 79, 57
4, 35924, Note_off_c, 3, 79, 62
4, 35928, Note_on_c, 3, 86, 77
4, 35939, Note_off_c, 3, 86, 103
4, 35952, Note_on_c, 3, 86, 68
4, 35967, Note_off_c, 3, 86, 90
4, 35976, Note_on_c, 3, 79, 59
4, 35996, Note_off_c, 3, 79, 69
4, 36000, Note_on_c, 3, 86, 77
4, 36016, Note_off_c, 3, 86, 82
4, 36024, Note_on_c, 3, 86, 51
4, 36040, Note_off_c, 3, 86, 106
4, 36048, Note_on_c, 3, 79, 68
4, 36065, Note_off_c, 3, 79, 73
4, 36072, Note_on_c, 3, 86, 81
4, 36093, Note_off_c, 3, 86, 75
4, 39168, Note_on_c, 3, 79, 68
4, 39191, Note_off_c, 3, 79, 53
4, 39192, Note_on_c, 3, 86, 71
4, 39203, Note_off_c, 3, 86, 101
4, 39216, Note_on_c, 3, 86, 57
4, 39228, Note_off_c, 3, 86, 96
4, 39240, Note_on_c, 3, 79, 68
4, 39261, Note_off_c, 3, 79, 57
4, 39264, Note_on_c, 3, 86, 77
4, 39276, Note_off_c, 3, 86, 94
4, 39288, Note_on_c, 3, 86, 57
4, 39301, Note_off_c, 3, 86, 82
4, 39312, Note_on_c, 3, 79, 63
4, 39336, Note_off_c, 3, 79, 56
4, 39336, Note_on_c, 3, 86, 74
4, 39347, Note_off_c, 3, 86, 103
4, 39360, Note_on_c, 3, 86, 59
4, 39373, Note_off_c, 3, 86, 88
4, 39384, Note_on_c, 3, 79, 53
4, 39407, Note_off_c, 3, 79, 59
4, 39408, Note_on_c, 3, 86, 74
4, 39420, Note_off_c, 3, 86, 108
4, 39432, Note_on_c, 3, 86, 63
4, 39445, Note_off_c, 3, 86, 80
4, 39456, Note_on_c, 3, 79, 63
4, 39479, Note_off_c, 3, 79, 59
4, 39480, Note_on_c, 3, 86, 71
4, 39490, Note_off_c, 3, 86, 101
4, 39504, Note_on_c, 3, 86, 59
4, 39517, Note_off_c, 3, 86, 88
4, 39528, Note_on_c, 3, 79, 63
4, 39549, Note_off_c, 3, 79, 66
4, 39552, Note_on_c, 3, 86, 74
4, 39563, Note_off_c, 3, 86, 101
4, 39576, Note_on_c, 3, 86, 63
4, 39589, Note_off_c, 3, 86, 94
4, 39600, Note_on_c, 3, 79, 63
4, 39623, Note_off_c, 3, 79, 58
4, 39624, Note_on_c, 3, 86, 81
4, 39635, Note_off_c, 3, 86, 108
4, 39648, Note_on_c, 3, 86, 63
4, 39661, Note_off_c, 3, 86, 94
4, 39672, Note_on_c, 3, 79, 61
4, 39692, Note_off_c, 3, 79, 61
4, 39696, Note_on_c, 3, 86, 77
4, 39707, Note_off_c, 3, 86, 99
4, 39720, Note_on_c, 3, 86, 63
4, 39735, Note_off_c, 3, 86, 94
4, 39744, Note_on_c, 3, 79, 68
4, 39765, Note_off_c, 3, 79, 61
4, 39768, Note_on_c, 3, 86, 74
4, 39778, Note_off_c, 3, 86, 106
4, 39792, Note_on_c, 3, 86, 65
4, 39806, Note_off_c, 3, 86, 99
4, 39816, Note_on_c, 3, 79, 59
4, 39837, Note_off_c, 3, 79, 70
4, 39840, Note_on_c, 3, 86, 81
4, 39849, Note_off_c, 3, 86, 108
4, 39864, Note_on_c, 3, 86, 65
4, 39878, Note_off_c, 3, 86, 96
4, 39888, Note_on_c, 3, 79, 63
4, 39910, Note_off_c, 3, 79, 54
4, 39912, Note_on_c, 3, 86, 74
4, 39923, Note_off_c, 3, 86, 108
4, 39936, Note_on_c, 3, 86, 65
4, 39950, Note_off_c, 3, 86, 94
4, 39960, Note_on_c, 3, 79, 51
4, 39981, Note_off_c, 3, 79, 62
4, 39984, Note_on_c, 3, 86, 77
4, 39995, Note_off_c, 3, 86, 101
4, 40008, Note_on_c, 3, 86, 57
4, 40021, Note_off_c, 3, 86, 96
4, 40032, Note_on_c, 3, 79, 61
4, 40052, Note_off_c, 3, 79, 58
4, 40056, Note_on_c, 3, 86, 74
4, 40069, Note_off_c, 3, 86, 94
4, 40080, Note_on_c, 3, 86, 59
4, 40094, Note_off_c, 3, 86, 86
4, 40104, Note_on_c, 3, 79, 59
4, 40124, Note_off_c, 3, 79, 54
4, 40128, Note_on_c, 3, 86, 77
4, 40140, Note_off_c, 3, 86, 94
4, 40152, Note_on_c, 3, 86, 59
4, 40167, Note_off_c, 3, 86, 94
4, 40176, Note_on_c, 3, 79, 59
4, 40196, Note_off_c, 3, 79, 56
4, 40200, Note_on_c, 3, 86, 81
4, 40211, Note_off_c, 3, 86, 106
4, 40224, Note_on_c, 3, 86, 59
4, 40239, Note_off_c, 3, 86, 101
4, 40248, Note_on_c, 3, 79, 53
4, 40266, Note_off_c, 3, 79, 67
4, 40272, Note_on_c, 3, 86, 77
4, 40284, Note_off_c, 3, 86, 103
4, 40296, Note_on_c, 3, 86, 59
4, 40310, Note_off_c, 3, 86, 106
4, 40320, Note_on_c, 3, 79, 53
4, 40340, Note_off_c, 3, 79, 54
4, 40344, Note_on_c, 3, 86, 77
4, 40357, Note_off_c, 3, 86, 99
4, 40368, Note_on_c, 3, 86, 65
4, 40383, Note_off_c, 3, 86, 101
4, 40392, Note_on_c, 3, 79, 59
4, 40412, Note_off_c, 3, 79, 63
4, 40416, Note_on_c, 3, 86, 77
4, 40428, Note_off_c, 3, 86, 96
4, 40440, Note_on_c, 3, 86, 59
4, 40455, Note_off_c, 3, 86, 108
4, 40464, Note_on_c, 3, 79, 51
4, 40485, Note_off_c, 3, 79, 66
4, 40488, Note_on_c, 3, 86, 74
4, 40500, Note_off_c, 3, 86, 103
4, 40512, Note_on_c, 3, 86, 63
4, 40527, Note_off_c, 3, 86, 99
4, 40536, Note_on_c, 3, 79, 61
4, 40554, Note_off_c, 3, 79, 67
4, 40560, Note_on_c, 3, 86, 77
4, 40570, Note_off_c, 3, 86, 115
4, 40584, Note_on_c, 3, 86, 57
4, 40597, Note_off_c, 3, 86, 94
4, 40608, Note_on_c, 3, 79, 51
4, 40627, Note_off_c, 3, 79, 77
4, 40632, Note_on_c, 3, 86, 77
4, 40645, Note_off_c, 3, 86, 106
4, 40656, Note_on_c, 3, 86, 63
4, 40671, Note_off_c, 3, 86, 96
4, 40680, Note_on_c, 3, 79, 63
4, 40698, Note_off_c, 3, 79, 59
4, 40704, Note_on_c, 3, 86, 68
4, 40715, Note_off_c, 3, 86, 88
4, 40728, Note_on_c, 3, 86, 65
4, 40744, Note_off_c, 3, 86, 94
4, 40752, Note_on_c, 3, 79, 63
4, 40772, Note_off_c, 3, 79, 65
4, 40776, Note_on_c, 3, 86, 77
4, 40787, Note_off_c, 3, 86, 118
4, 40800, Note_on_c, 3, 86, 65
4, 40817, Note_off_c, 3, 86, 96
4, 40824, Note_on_c, 3, 79, 57
4, 40845, Note_off_c, 3, 79, 69
4, 40848, Note_on_c, 3, 86, 71
4, 40860, Note_off_c, 3, 86, 94
4, 40872, Note_on_c, 3, 86, 59
4, 40889, Note_off_c, 3, 86, 96
4, 40896, Note_on_c, 3, 79, 51
4, 40914, Note_off_c, 3, 79, 73
4, 40920, Note_on_c, 3, 86, 65
4, 40929, Note_off_c, 3, 86, 101
4, 40944, Note_on_c, 3, 86, 61
4, 40958, Note_off_c, 3, 86, 88
4, 40968, Note_on_c, 3, 79, 59
4, 40986, Note_off_c, 3, 79, 56
4, 40992, Note_on_c, 3, 86, 74
4, 41002, Note_off_c, 3, 86, 103
4, 41016, Note_on_c, 3, 86, 63
4, 41030, Note_off_c, 3, 86, 99
4, 41040, Note_on_c, 3, 79, 63
4, 41059, Note_off_c, 3, 79, 69
4, 41064, Note_on_c, 3, 86, 77
4, 41075, Note_off_c, 3, 86, 103
4, 41088, Note_on_c, 3, 86, 65
4, 41102, Note_off_c, 3, 86, 92
4, 41112, Note_on_c, 3, 79, 57
4, 41131, Note_off_c, 3, 79, 56
4, 41136, Note_on_c, 3, 86, 77
4, 41147, Note_off_c, 3, 86, 92
4, 41160, Note_on_c, 3, 86, 63
4, 41177, Note_off_c, 3, 86, 96
4, 41184, Note_on_c, 3, 79, 63
4, 41203, Note_off_c, 3, 79, 70
4, 41208, Note_on_c, 3, 86, 77
4, 41219, Note_off_c, 3, 86, 96
4, 41232, Note_on_c, 3, 86, 63
4, 41249, Note_off_c, 3, 86, 92
4, 41256, Note_on_c, 3, 79, 59
4, 41274, Note_off_c, 3, 79, 63
4, 41280, Note_on_c, 3, 86, 77
4, 41292, Note_off_c, 3, 86, 92
4, 41304, Note_on_c, 3, 86, 55
4, 41319, Note_off_c, 3, 86, 96
4, 41328, Note_on_c, 3, 79, 55
4, 41345, Note_off_c, 3, 79, 61
4, 41352, Note_on_c, 3, 86, 74
4, 41362, Note_off_c, 3, 86, 101
4, 41376, Note_on_c, 3, 86, 65
4, 41393, Note_off_c, 3, 86, 108
4, 41400, Note_on_c, 3, 79, 53
4, 41417, Note_off_c, 3, 79, 62
4, 41424, Note_on_c, 3, 86, 81
4, 41436, Note_off_c, 3, 86, 106
4, 41448, Note_on_c, 3, 86, 59
4, 41463, Note_off_c, 3, 86, 103
4, 41472, Note_on_c, 3, 79, 57
4, 41490, Note_off_c, 3, 79, 73
4, 41496, Note_on_c, 3, 86, 77
4, 41507, Note_off_c, 3, 86, 106
4, 41520, Note_on_c, 3, 86, 63
4, 41534, Note_off_c, 3, 86, 115
4, 41544, Note_on_c, 3, 79, 55
4, 41564, Note_off_c, 3, 79, 59
4, 41568, Note_on_c, 3, 86, 77
4, 41578, Note_off_c, 3, 86, 101
4, 41592, Note_on_c, 3, 86, 65
4, 41608, Note_off_c, 3, 86, 118
4, 41616, Note_on_c, 3, 79, 51
4, 41634, Note_off_c, 3, 79, 66
4, 41640, Note_on_c, 3, 86, 74
4, 41651, Note_off_c, 3, 86, 108
4, 41664, Note_on_c, 3, 86, 68
4, 41678, Note_off_c, 3, 86, 111
4, 41688, Note_on_c, 3, 79, 53
4, 41707, Note_off_c, 3, 79, 72
4, 41712, Note_on_c, 3, 86, 74
4, 41724, Note_off_c, 3, 86, 77
4, 41736, Note_on_c, 3, 86, 48
4, 41753, Note_off_c, 3, 86, 99
4, 41760, Note_on_c, 3, 79, 51
4, 41779, Note_off_c, 3, 79, 62
4, 41784, Note_on_c, 3, 86, 71
4, 41796, Note_off_c, 3, 86, 99
4, 41808, Note_on_c, 3, 86, 61
4, 41824, Note_off_c, 3, 86, 94
4, 41832, Note_on_c, 3, 79, 53
4, 41850, Note_off_c, 3, 79, 61
4, 41856, Note_on_c, 3, 86, 81
4, 41866, Note_off_c, 3, 86, 106
4, 41880, Note_on_c, 3, 86, 59
4, 41896, Note_off_c, 3, 86, 99
4, 41904, Note_on_c, 3, 79, 44
4, 41922, Note_off_c, 3, 79, 66
4, 41928, Note_on_c, 3, 86, 77
4, 41939, Note_off_c, 3, 86, 115
4, 41952, Note_on_c, 3, 86, 59
4, 41967, Note_off_c, 3, 86, 94
4, 41976, Note_on_c, 3, 79, 57
4, 41996, Note_off_c, 3, 79, 57
4, 42000, Note_on_c, 3, 86, 81
4, 42015, Note_off_c, 3, 86, 96
4, 42024, Note_on_c, 3, 86, 63
4, 42041, Note_off_c, 3, 86, 106
4, 42048, Note_on_c, 3, 79, 57
4, 42068, Note_off_c, 3, 79, 62
4, 42072, Note_on_c, 3, 86, 77
4, 42083, Note_off_c, 3, 86, 103
4, 42096, Note_on_c, 3, 86, 68
4, 42111, Note_off_c, 3, 86, 90
4, 42120, Note_on_c, 3, 79, 59
4, 42140, Note_off_c, 3, 79, 69
4, 42144, Note_on_c, 3, 86, 77
4, 42160, Note_off_c, 3, 86, 82
4, 42168, Note_on_c, 3, 86, 51
4, 42184, Note_off_c, 3, 86, 106
4, 42192, Note_on_c, 3, 79, 68
4, 42209, Note_off_c, 3, 79, 73
4, 42216, Note_on_c, 3, 86, 81
4, 42237, Note_off_c, 3, 86, 75
4, 42240, Note_on_c, 3, 79, 68
4, 42263, Note_off_c, 3, 79, 53
4, 42264, Note_on_c, 3, 86, 71
4, 42275, Note_off_c, 3, 86, 101
4, 42288, Note_on_c, 3, 86, 57
4, 42300, Note_off_c, 3, 86, 96
4, 42312, Note_on_c, 3, 79, 68
4, 42333, Note_off_c, 3, 79, 57
4, 42336, Note_on_c, 3, 86, 77
4, 42348, Note_off_c, 3, 86, 94
4, 42360, Note_on_c, 3, 86, 57
4, 42373, Note_off_c, 3, 86, 82
4, 42384, Note_on_c, 3, 79, 63
4, 42408, Note_off_c, 3, 79, 56
4, 42408, Note_on_c, 3, 86, 74
4, 42419, Note_off_c, 3, 86, 103
4, 42432, Note_on_c, 3, 86, 59
4, 42445, Note_off_c, 3, 86, 88
4, 42456, Note_on_c, 3, 79, 53
4, 42479, Note_off_c, 3, 79, 59
4, 42480, Note_on_c, 3, 86, 74
4, 42492, Note_off_c, 3, 86, 108
4, 42504, Note_on_c, 3, 86, 63
4, 42517, Note_off_c, 3, 86, 80
4, 42528, Note_on_c, 3, 79, 63
4, 42551, Note_off_c, 3, 79, 59
4, 42552, Note_on_c, 3, 86, 71
4, 42562, Note_off_c, 3, 86, 101
4, 42576, Note_on_c, 3, 86, 59
4, 42589, Note_off_c, 3, 86, 88
4, 42600, Note_on_c, 3, 79, 63
4, 42621, Note_off_c, 3, 79, 66
4, 42624, Note_on_c, 3, 86, 74
4, 42635, Note_off_c, 3, 86, 101
4, 42648, Note_on_c, 3, 86, 63
4, 42661, Note_off_c, 3, 86, 94
4, 42672, Note_on_c, 3, 79, 63
4, 42695, Note_off_c, 3, 79, 58
4, 42696, Note_on_c, 3, 86, 81
4, 42707, Note_off_c, 3, 86, 108
4, 42720, Note_on_c, 3, 86, 63
4, 42733, Note_off_c, 3, 86, 94
4, 42744, Note_on_c, 3, 79, 61
4, 42764, Note_off_c, 3, 79, 61
4, 42768, Note_on_c, 3, 86, 77
4, 42779, Note_off_c, 3, 86, 99
4, 42792, Note_on_c, 3, 86, 63
4, 42807, Note_off_c, 3, 86, 94
4, 42816, Note_on_c, 3, 79, 68
4, 42837, Note_off_c, 3, 79, 61
4, 42840, Note_on_c, 3, 86, 74
4, 42850, Note_off_c, 3, 86, 106
4, 42864, Note_on_c, 3, 86, 65
4, 42878, Note_off_c, 3, 86, 99
4, 42888, Note_on_c, 3, 79, 59
4, 42909, Note_off_c, 3, 79, 70
4, 42912, Note_on_c, 3, 86, 81
4, 42921, Note_off_c, 3, 86, 108
4, 42936, Note_on_c, 3, 86, 65
4, 42950, Note_off_c, 3, 86, 96
4, 42960, Note_on_c, 3, 79, 63
4, 42982, Note_off_c, 3, 79, 54
4, 42984, Note_on_c, 3, 86, 74
4, 42995, Note_off_c, 3, 86, 108
4, 43008, Note_on_c, 3, 86, 65
4, 43022, Note_off_c, 3, 86, 94
4, 43032, Note_on_c, 3, 79, 51
4, 43053, Note_off_c, 3, 79, 62
4, 43056, Note_on_c, 3, 86, 77
4, 43067, Note_off_c, 3, 86, 101
4, 43080, Note_on_c, 3, 86, 57
4, 43093, Note_off_c, 3, 86, 96
4, 43104, Note_on_c, 3, 79, 61
4, 43124, Note_off_c, 3, 79, 58
4, 43128, Note_on_c, 3, 86, 74
4, 43141, Note_off_c, 3, 86, 94
4, 43152, Note_on_c, 3, 86, 59
4, 43166, Note_off_c, 3, 86, 86
4, 43176, Note_on_c, 3, 79, 59
4, 43196, Note_off_c, 3, 79, 54
4, 43200, Note_on_c, 3, 86, 77
4, 43212, Note_off_c, 3, 86, 94
4, 43224, Note_on_c, 3, 86, 59
4, 43239, Note_off_c, 3, 86, 94
4, 43248, Note_on_c, 3, 79, 59
4, 43268, Note_off_c, 3, 79, 56
4, 43272, Note_on_c, 3, 86, 81
4, 43283, Note_off_c, 3, 86, 106
4, 43296, Note_on_c, 3, 86, 59
4, 43311, Note_off_c, 3, 86, 101
4, 43320, Note_on_c, 3, 79, 53
4, 43338, Note_off_c, 3, 79, 67
4, 43344, Note_on_c, 3, 86, 77
4, 43356, Note_off_c, 3, 86, 103
4, 43368, Note_on_c, 3, 86, 59
4, 43382, Note_off_c, 3, 86, 106
4, 43392, Note_on_c, 3, 79, 53
4, 43412, Note_off_c, 3, 79, 54
4, 43416, Note_on_c, 3, 86, 77
4, 43429, Note_off_c, 3, 86, 99
4, 43440, Note_on_c, 3, 86, 65
4, 43455, Note_off_c, 3, 86, 101
4, 43464, Note_on_c, 3, 79, 59
4, 43484, Note_off_c, 3, 79, 63
4, 43488, Note_on_c, 3, 86, 77
4, 43500, Note_off_c, 3, 86, 96
4, 43512, Note_on_c, 3, 86, 59
4, 43527, Note_off_c, 3, 86, 108
4, 43536, Note_on_c, 3, 79, 51
4, 43557, Note_off_c, 3, 79, 66
4, 43560, Note_on_c, 3, 86, 74
4, 43572, Note_off_c, 3, 86, 103
4, 43584, Note_on_c, 3, 86, 63
4, 43599, Note_off_c, 3, 86, 99
4, 43608, Note_on_c, 3, 79, 61
4, 43626, Note_off_c, 3, 79, 67
4, 43632, Note_on_c, 3, 86, 77
4, 43642, Note_off_c, 3, 86, 115
4, 43656, Note_on_c, 3, 86, 57
4, 43669, Note_off_c, 3, 86, 94
4, 43680, Note_on_c, 3, 79, 51
4, 43699, Note_off_c, 3, 79, 77
4, 43704, Note_on_c, 3, 86, 77
4, 43717, Note_off_c, 3, 86, 106
4, 43728, Note_on_c, 3, 86, 63
4, 43743, Note_off_c, 3, 86, 96
4, 43752, Note_on_c, 3, 79, 63
4, 43770, Note_off_c, 3, 79, 59
4, 43776, Note_on_c, 3, 86, 68
4, 43787, Note_off_c, 3, 86, 88
4, 43800, Note_on_c, 3, 86, 65
4, 43816, Note_off_c, 3, 86, 94
4, 43824, Note_on_c, 3, 79, 63
4, 43844, Note_off_c, 3, 79, 65
4, 43848, Note_on_c, 3, 86, 77
4, 43859, Note_off_c, 3, 86, 118
4, 43872, Note_on_c, 3, 86, 65
4, 43889, Note_off_c, 3, 86, 96
4, 43896, Note_on_c, 3, 79, 57
4, 43917, Note_off_c, 3, 79, 69
4, 43920, Note_on_c, 3, 86, 71
4, 43932, Note_off_c, 3, 86, 94
4, 43944, Note_on_c, 3, 86, 59
4, 43961, Note_off_c, 3, 86, 96
4, 43968, Note_on_c, 3, 79, 51
4, 43986, Note_off_c, 3, 79, 73
4, 43992, Note_on_c, 3, 86, 65
4, 44001, Note_off_c, 3, 86, 101
4, 44016, Note_on_c, 3, 86, 61
4, 44030, Note_off_c, 3, 86, 88
4, 44040, Note_on_c, 3, 79, 59
4, 44058, Note_off_c, 3, 79, 56
4, 44064, Note_on_c, 3, 86, 74
4, 44074, Note_off_c, 3, 86, 103
4, 44088, Note_on_c, 3, 86, 63
4, 44102, Note_off_c, 3, 86, 99
4, 44112, Note_on_c, 3, 79, 63
4, 44131, Note_off_c, 3, 79, 69
4, 44136, Note_on_c, 3, 86, 77
4, 44147, Note_off_c, 3, 86, 103
4, 44160, Note_on_c, 3, 86, 65
4, 44174, Note_off_c, 3, 86, 92
4, 44184, Note_on_c, 3, 79, 57
4, 44203, Note_off_c, 3, 79, 56
4, 44208, Note_on_c, 3, 86, 77
4, 44219, Note_off_c, 3, 86, 92
4, 44232, Note_on_c, 3, 86, 63
4, 44249, Note_off_c, 3, 86, 96
4, 44256, Note_on_c, 3, 79, 63
4, 44275, Note_off_c, 3, 79, 70
4, 44280, Note_on_c, 3, 86, 77
4, 44291, Note_off_c, 3, 86, 96
4, 44304, Note_on_c, 3, 86, 63
4, 44321, Note_off_c, 3, 86, 92
4, 44328, Note_on_c, 3, 79, 59
4, 44346, Note_off_c, 3, 79, 63
4, 44352, Note_on_c, 3, 86, 77
4, 44364, Note_off_c, 3, 86, 92
4, 44376, Note_on_c, 3, 86, 55
4, 44391, Note_off_c, 3, 86, 96
4, 44400, Note_on_c, 3, 79, 55
4, 44417, Note_off_c, 3, 79, 61
4, 44424, Note_on_c, 3, 86, 74
4, 44434, Note_off_c, 3, 86, 101
4, 44448, Note_on_c, 3, 86, 65
4, 44465, Note_off_c, 3, 86, 108
4, 44472, Note_on_c, 3, 79, 53
4, 44489, Note_off_c, 3, 79, 62
4, 44496, Note_on_c, 3, 86, 81
4, 44508, Note_off_c, 3, 86, 106
4, 44520, Note_on_c, 3, 86, 59
4, 44535, Note_off_c, 3, 86, 103
4, 44544, Note_on_c, 3, 79, 57
4, 44562, Note_off_c, 3, 79, 73
4, 44568, Note_on_c, 3, 86, 77
4, 44579, Note_off_c, 3, 86, 106
4, 44592, Note_on_c, 3, 86, 63
4, 44606, Note_off_c, 3, 86, 115
4, 44616, Note_on_c, 3, 79, 55
4, 44636, Note_off_c, 3, 79, 59
4, 44640, Note_on_c, 3, 86, 77
4, 44650, Note_off_c, 3, 86, 101
4, 44664, Note_on_c, 3, 86, 65
4, 44680, Note_off_c, 3, 86, 118
4, 44688, Note_on_c, 3, 79, 51
4, 44706, Note_off_c, 3, 79, 66
4, 44712, Note_on_c, 3, 86, 74
4, 44723, Note_off_c, 3, 86, 108
4, 44736, Note_on_c, 3, 86, 68
4, 44750, Note_off_c, 3, 86, 111
4, 44760, Note_on_c, 3, 79, 53
4, 44779, Note_off_c, 3, 79, 72
4, 44784, Note_on_c, 3, 86, 74
4, 44796, Note_off_c, 3, 86, 77
4, 44808, Note_on_c, 3, 86, 48
4, 44825, Note_off_c, 3, 86, 99
4, 44832, Note_on_c, 3, 79, 51
4, 44851, Note_off_c, 3, 79, 62
4, 44856, Note_on_c, 3, 86, 71
4, 44868, Note_off_c, 3, 86, 99
4, 44880, Note_on_c, 3, 86, 61
4, 44896, Note_off_c, 3, 86, 94
4, 44904, Note_on_c, 3, 79, 53
4, 44922, Note_off_c, 3, 79, 61
4, 44928, Note_on_c, 3, 86, 81
4, 44938, Note_off_c, 3, 86, 106
4, 44952, Note_on_c, 3, 86, 59
4, 44968, Note_off_c, 3, 86, 99
4, 44976, Note_on_c, 3, 79, 44
4, 44994, Note_off_c, 3, 79, 66
4, 45000, Note_on_c, 3, 86, 77
4, 45011, Note_off_c, 3, 86, 115
4, 45024, Note_on_c, 3, 86, 59
4, 45039, Note_off_c, 3, 86, 94
4, 45048, Note_on_c, 3, 79, 57
4, 45068, Note_off_c, 3, 79, 57
4, 45072, Note_on_c, 3, 86, 81
4, 45087, Note_off_c, 3, 86, 96
4, 45096, Note_on_c, 3, 86, 63
4, 45113, Note_off_c, 3, 86, 106
4, 45120, Note_on_c, 3, 79, 57
4, 45140, Note_off_c, 3, 79, 62
4, 45144, Note_on_c, 3, 86, 77
4, 45155, Note_off_c, 3, 86, 103
4, 45168, Note_on_c, 3, 86, 68
4, 45183, Note_off_c, 3, 86, 90
4, 45192, Note_on_c, 3, 79, 59
4, 45212, Note_off_c, 3, 79, 69
4, 45216, Note_on_c, 3, 86, 77
4, 45232, Note_off_c, 3, 86, 82
4, 45240, Note_on_c, 3, 86, 51
4, 45256, Note_off_c, 3, 86, 106
4, 45264, Note_on_c, 3, 79, 68
4, 45281, Note_off_c, 3, 79, 73
4, 45288, Note_on_c, 3, 86, 81
4, 45309, Note_off_c, 3, 86, 75
4, 45312, Note_on_c, 3, 79, 68
4, 45335, Note_off_c, 3, 79, 53
4, 45336, Note_on_c, 3, 86, 71
4, 45347, Note_off_c, 3, 86, 101
4, 45360, Note_on_c, 3, 86, 57
4, 45372, Note_off_c, 3, 86, 96
4, 45384, Note_on_c, 3, 79, 68
4, 45405, Note_off_c, 3, 79, 57
4, 45408, Note_on_c, 3, 86, 77
4, 45420, Note_off_c, 3, 86, 94
4, 45432, Note_on_c, 3, 86, 57
4, 45445, Note_off_c, 3, 86, 82
4, 45456, Note_on_c, 3, 79, 63
4, 45480, Note_off_c, 3, 79, 56
4, 45480, Note_on_c, 3, 86, 74
4, 45491, Note_off_c, 3, 86, 103
4, 45504, Note_on_c, 3, 86, 59
4, 45517, Note_off_c, 3, 86, 88
4, 45528, Note_on_c, 3, 79, 53
4, 45551, Note_off_c, 3, 79, 59
4, 45552, Note_on_c, 3, 86, 74
4, 45564, Note_off_c, 3, 86, 108
4, 45576, Note_on_c, 3, 86, 63
4, 45589, Note_off_c, 3, 86, 80
4, 45600, Note_on_c, 3, 79, 63
4, 45623, Note_off_c, 3, 79, 59
4, 45624, Note_on_c, 3, 86, 71
4, 45634, Note_off_c, 3, 86, 101
4, 45648, Note_on_c, 3, 86, 59
4, 45661, Note_off_c, 3, 86, 88
4, 45672, Note_on_c, 3, 79, 63
4, 45693, Note_off_c, 3, 79, 66
4, 45696, Note_on_c, 3, 86, 74
4, 45707, Note_off_c, 3, 86, 101
4, 45720, Note_on_c, 3, 86, 63
4, 45733, Note_off_c, 3, 86, 94
4, 45744, Note_on_c, 3, 79, 63
4, 45767, Note_off_c, 3, 79, 58
4, 45768, Note_on_c, 3, 86, 81
4, 45779, Note_off_c, 3, 86, 108
4, 45792, Note_on_c, 3, 86, 63
4, 45805, Note_off_c, 3, 86, 94
4, 45816, Note_on_c, 3, 79, 61
4, 45836, Note_off_c, 3, 79, 61
4, 45840, Note_on_c, 3, 86, 77
4, 45851, Note_off_c, 3, 86, 99
4, 45864, Note_on_c, 3, 86, 63
4, 45879, Note_off_c, 3, 86, 94
4, 45888, Note_on_c, 3, 79, 68
4, 45909, Note_off_c, 3, 79, 61
4, 45912, Note_on_c, 3, 86, 74
4, 45922, Note_off_c, 3, 86, 106
4, 45936, Note_on_c, 3, 86, 65
4, 45950, Note_off_c, 3, 86, 99
4, 45960, Note_on_c, 3, 79, 59
4, 45981, Note_off_c, 3, 79, 70
4, 45984, Note_on_c, 3, 86, 81
4, 45993, Note_off_c, 3, 86, 108
4, 46008, Note_on_c, 3, 86, 65
4, 46022, Note_off_c, 3, 86, 96
4, 46032, Note_on_c, 3, 79, 63
4, 46054, Note_off_c, 3, 79, 54
4, 46056, Note_on_c, 3, 86, 74
4, 46067, Note_off_c, 3, 86, 108
4, 46080, Note_on_c, 3, 86, 65
4, 46094, Note_off_c, 3, 86, 94
4, 46104, Note_on_c, 3, 79, 51
4, 46125, Note_off_c, 3, 79, 62
4, 46128, Note_on_c, 3, 86, 77
4, 46139, Note_off_c, 3, 86, 101
4, 46152, Note_on_c, 3, 86, 57
4, 46165, Note_off_c, 3, 86, 96
4, 46176, Note_on_c, 3, 79, 61
4, 46196, Note_off_c, 3, 79, 58
4, 46200, Note_on_c, 3, 86, 74
4, 46213, Note_off_c, 3, 86, 94
4, 46224, Note_on_c, 3, 86, 59
4, 46238, Note_off_c, 3, 86, 86
4, 46248, Note_on_c, 3, 79, 59
4, 46268, Note_off_c, 3, 79, 54
4, 46272, Note_on_c, 3, 86, 77
4, 46284, Note_off_c, 3, 86, 94
4, 46296, Note_on_c, 3, 86, 59
4, 46311, Note_off_c, 3, 86, 94
4, 46320, Note_on_c, 3, 79, 59
4, 46340, Note_off_c, 3, 79, 56
4, 46344, Note_on_c, 3, 86, 81
4, 46355, Note_off_c, 3, 86, 106
4, 46368, Note_on_c, 3, 86, 59
4, 46383, Note_off_c, 3, 86, 101
4, 46392, Note_on_c, 3, 79, 53
4, 46410, Note_off_c, 3, 79, 67
4, 46416, Note_on_c, 3, 86, 77
4, 46428, Note_off_c, 3, 86, 103
4, 46440, Note_on_c, 3, 86, 59
4, 46454, Note_off_c, 3, 86, 106
4, 46464, Note_on_c, 3, 79, 53
4, 46484, Note_off_c, 3, 79, 54
4, 46488, Note_on_c, 3, 86, 77
4, 46501, Note_off_c, 3, 86, 99
4, 46512, Note_on_c, 3, 86, 65
4, 46527, Note_off_c, 3, 86, 101
4, 46536, Note_on_c, 3, 79, 59
4, 46556, Note_off_c, 3, 79, 63
4, 46560, Note_on_c, 3, 86, 77
4, 46572, Note_off_c, 3, 86, 96
4, 46584, Note_on_c, 3, 86, 59
4, 46599, Note_off_c, 3, 86, 108
4, 46608, Note_on_c, 3, 79, 51
4, 46629, Note_off_c, 3, 79, 66
4, 46632, Note_on_c, 3, 86, 74
4, 46644, Note_off_c, 3, 86, 103
4, 46656, Note_on_c, 3, 86, 63
4, 46671, Note_off_c, 3, 86, 99
4, 46680, Note_on_c, 3, 79, 61
4, 46698, Note_off_c, 3, 79, 67
4, 46704, Note_on_c, 3, 86, 77
4, 46714, Note_off_c, 3, 86, 115
4, 46728, Note_on_c, 3, 86, 57
4, 46741, Note_off_c, 3, 86, 94
4, 46752, Note_on_c, 3, 79, 51
4, 46771, Note_off_c, 3, 79, 77
4, 46776, Note_on_c, 3, 86, 77
4, 46789, Note_off_c, 3, 86, 106
4, 46800, Note_on_c, 3, 86, 63
4, 46815, Note_off_c, 3, 86, 96
4, 46824, Note_on_c, 3, 79, 63
4, 46842, Note_off_c, 3, 79, 59
4, 46848, Note_on_c, 3, 86, 68
4, 46859, Note_off_c, 3, 86, 88
4, 46872, Note_on_c, 3, 86, 65
4, 46888, Note_off_c, 3, 86, 94
4, 46896, Note_on_c, 3, 79, 63
4, 46916, Note_off_c, 3, 79, 65
4, 46920, Note_on_c, 3, 86, 77
4, 46931, Note_off_c, 3, 86, 118
4, 46944, Note_on_c, 3, 86, 65
4, 46961, Note_off_c, 3, 86, 96
4, 46968, Note_on_c, 3, 79, 57
4, 46989, Note_off_c, 3, 79, 69
4, 46992, Note_on_c, 3, 86, 71
4, 47004, Note_off_c, 3, 86, 94
4, 47016, Note_on_c, 3, 86, 59
4, 47033, Note_off_c, 3, 86, 96
4, 47040, Note_on_c, 3, 79, 51
4, 47058, Note_off_c, 3, 79, 73
4, 47064, Note_on_c, 3, 86, 65
4, 47073, Note_off_c, 3, 86, 101
4, 47088, Note_on_c, 3, 86, 61
4, 47102, Note_off_c, 3, 86, 88
4, 47112, Note_on_c, 3, 79, 59
4, 47130, Note_off_c, 3, 79, 56
4, 47136, Note_on_c, 3, 86, 74
4, 47146, Note_off_c, 3, 86, 103
4, 47160, Note_on_c, 3, 86, 63
4, 47174, Note_off_c, 3, 86, 99
4, 47184, Note_on_c, 3, 79, 63
4, 47203, Note_off_c, 3, 79, 69
4, 47208, Note_on_c, 3, 86, 77
4, 47219, Note_off_c, 3, 86, 103
4, 47232, Note_on_c, 3, 86, 65
4, 47246, Note_off_c, 3, 86, 92
4, 47256, Note_on_c, 3, 79, 57
4, 47275, Note_off_c, 3, 79, 56
4, 47280, Note_on_c, 3, 86, 77
4, 47291, Note_off_c, 3, 86, 92
4, 47304, Note_on_c, 3, 86, 63
4, 47321, Note_off_c, 3, 86, 96
4, 47328, Note_on_c, 3, 79, 63
4, 47347, Note_off_c, 3, 79, 70
4, 47352, Note_on_c, 3, 86, 77
4, 47363, Note_off_c, 3, 86, 96
4, 47376, Note_on_c, 3, 86, 63
4, 47393, Note_off_c, 3, 86, 92
4, 47400, Note_on_c, 3, 79, 59
4, 47418, Note_off_c, 3, 79, 63
4, 47424, Note_on_c, 3, 86, 77
4, 47436, Note_off_c, 3, 86, 92
4, 47448, Note_on_c, 3, 86, 55
4, 47463, Note_off_c, 3, 86, 96
4, 47472, Note_on_c, 3, 79, 55
4, 47489, Note_off_c, 3, 79, 61
4, 47496, Note_on_c, 3, 86, 74
4, 47506, Note_off_c, 3, 86, 101
4, 47520, Note_on_c, 3, 86, 65
4, 47537, Note_off_c, 3, 86, 108
4, 47544, Note_on_c, 3, 79, 53
4, 47561, Note_off_c, 3, 79, 62
4, 47568, Note_on_c, 3, 86, 81
4, 47580, Note_off_c, 3, 86, 106
4, 47592, Note_on_c, 3, 86, 59
4, 47607, Note_off_c, 3, 86, 103
4, 47616, Note_on_c, 3, 79, 57
4, 47634, Note_off_c, 3, 79, 73
4, 47640, Note_on_c, 3, 86, 77
4, 47651, Note_off_c, 3, 86, 106
4, 47664, Note_on_c, 3, 86, 63
4, 47678, Note_off_c, 3, 86, 115
4, 47688, Note_on_c, 3, 79, 55
4, 47708, Note_off_c, 3, 79, 59
4, 47712, Note_on_c, 3, 86, 77
4, 47722, Note_off_c, 3, 86, 101
4, 47736, Note_on_c, 3, 86, 65
4, 47752, Note_off_c, 3, 86, 118
4, 47760, Note_on_c, 3, 79, 51
4, 47778, Note_off_c, 3, 79, 66
4, 47784, Note_on_c, 3, 86, 74
4, 47795, Note_off_c, 3, 86, 108
4, 47808, Note_on_c, 3, 86, 68
4, 47822, Note_off_c, 3, 86, 111
4, 47832, Note_on_c, 3, 79, 53
4, 47851, Note_off_c, 3, 79, 72
4, 47856, Note_on_c, 3, 86, 74
4, 47868, Note_off_c, 3, 86, 77
4, 47880, Note_on_c, 3, 86, 48
4, 47897, Note_off_c, 3, 86, 99
4, 47904, Note_on_c, 3, 79, 51
4, 47923, Note_off_c, 3, 79, 62
4, 47928, Note_on_c, 3, 86, 71
4, 47940, Note_off_c, 3, 86, 99
4, 47952, Note_on_c, 3, 86, 61
4, 47968, Note_off_c, 3, 86, 94
4, 47976, Note_on_c, 3, 79, 53
4, 47994, Note_off_c, 3, 79, 61
4, 48000, Note_on_c, 3, 86, 81
4, 48010, Note_off_c, 3, 86, 106
4, 48024, Note_on_c, 3, 86, 59
4, 48040, Note_off_c, 3, 86, 99
4, 48048, Note_on_c, 3, 79, 44
4, 48066, Note_off_c, 3, 79, 66
4, 48072, Note_on_c, 3, 86, 77
4, 48083, Note_off_c, 3, 86, 115
4, 48096, Note_on_c, 3, 86, 59
4, 48111, Note_off_c, 3, 86, 94
4, 48120, Note_on_c, 3, 79, 57
4, 48140, Note_off_c, 3, 79, 57
4, 48144, Note_on_c, 3, 86, 81
4, 48159, Note_off_c, 3, 86, 96
4, 48168, Note_on_c, 3, 86, 63
4, 48185, Note_off_c, 3, 86, 106
4, 48192, Note_on_c, 3, 79, 57
4, 48212, Note_off_c, 3, 79, 62
4, 48216, Note_on_c, 3, 86, 77
4, 48227, Note_off_c, 3, 86, 103
4, 48240, Note_on_c, 3, 86, 68
4, 48255, Note_off_c, 3, 86, 90
4, 48264, Note_on_c, 3, 79, 59
4, 48284, Note_off_c, 3, 79, 69
4, 48288, Note_on_c, 3, 86, 77
4, 48304, Note_off_c, 3, 86, 82
4, 48312, Note_on_c, 3, 86, 51
4, 48328, Note_off_c, 3, 86, 106
4, 48336, Note_on_c, 3, 79, 68
4, 48353, Note_off_c, 3, 79, 73
4, 48360, Note_on_c, 3, 86, 81
4, 48381, Note_off_c, 3, 86, 75
4, 48384, Note_on_c, 3, 79, 68
4, 48407, Note_off_c, 3, 79, 53
4, 48408, Note_on_c, 3, 86, 71
4, 48419, Note_off_c, 3, 86, 101
4, 48432, Note_on_c, 3, 86, 57
4, 48444, Note_off_c, 3, 86, 96
4, 48456, Note_on_c, 3, 79, 68
4, 48477, Note_off_c, 3, 79, 57
4, 48480, Note_on_c, 3, 86, 77
4, 48492, Note_off_c, 3, 86, 94
4, 48504, Note_on_c, 3, 86, 57
4, 48517, Note_off_c, 3, 86, 82
4, 48528, Note_on_c, 3, 79, 63
4, 48552, Note_off_c, 3, 79, 56
4, 48552, Note_on_c, 3, 86, 74
4, 48563, Note_off_c, 3, 86, 103
4, 48576, Note_on_c, 3, 86, 59
4, 48589, Note_off_c, 3, 86, 88
4, 48600, Note_on_c, 3, 79, 53
4, 48623, Note_off_c, 3, 79, 59
4, 48624, Note_on_c, 3, 86, 74
4, 48636, Note_off_c, 3, 86, 108
4, 48648, Note_on_c, 3, 86, 63
4, 48661, Note_off_c, 3, 86, 80
4, 48672, Note_on_c, 3, 79, 63
4, 48695, Note_off_c, 3, 79, 59
4, 48696, Note_on_c, 3, 86, 71
4, 48706, Note_off_c, 3, 86, 101
4, 48720, Note_on_c, 3, 86, 59
4, 48733, Note_off_c, 3, 86, 88
4, 48744, Note_on_c, 3, 79, 63
4, 48765, Note_off_c, 3, 79, 66
4, 48768, Note_on_c, 3, 86, 74
4, 48779, Note_off_c, 3, 86, 101
4, 48792, Note_on_c, 3, 86, 63
4, 48805, Note_off_c, 3, 86, 94
4, 48816, Note_on_c, 3, 79, 63
4, 48839, Note_off_c, 3, 79, 58
4, 48840, Note_on_c, 3, 86, 81
4, 48851, Note_off_c, 3, 86, 108
4, 48864, Note_on_c, 3, 86, 63
4, 48877, Note_off_c, 3, 86, 94
4, 48888, Note_on_c, 3, 79, 61
4, 48908, Note_off_c, 3, 79, 61
4, 48912, Note_on_c, 3, 86, 77
4, 48923, Note_off_c, 3, 86, 99
4, 48936, Note_on_c, 3, 86, 63
4, 48951, Note_off_c, 3, 86, 94
4, 48960, Note_on_c, 3, 79, 68
4, 48981, Note_off_c, 3, 79, 61
4, 48984, Note_on_c, 3, 86, 74
4, 48994, Note_off_c, 3, 86, 106
4, 49008, Note_on_c, 3, 86, 65
4, 49022, Note_off_c, 3, 86, 99
4, 49032, Note_on_c, 3, 79, 59
4, 49053, Note_off_c, 3, 79, 70
4, 49056, Note_on_c, 3, 86, 81
4, 49065, Note_off_c, 3, 86, 108
4, 49080, Note_on_c, 3, 86, 65
4, 49094, Note_off_c, 3, 86, 96
4, 49104, Note_on_c, 3, 79, 63
4, 49126, Note_off_c, 3, 79, 54
4, 49128, Note_on_c, 3, 86, 74
4, 49139, Note_off_c, 3, 86, 108
4, 49152, End_track
5, 0, Start_track
5, 0, Program_c, 4, 49
5, 24, Control_c, 4, 1, 0
5, 48, Control_c, 4, 7, 100
5, 72, Control_c, 4, 10, 65
5, 96, Control_c, 4, 11, 127
5, 120, Control_c, 4, 91, 100
5, 144, Pitch_bend_c, 4, 8192
5, 768, Note_on_c, 4, 81, 45
5, 768, Note_on_c, 4, 79, 45
5, 8405, Note_off_c, 4, 79, 73
5, 8405, Note_off_c, 4, 81, 82
5, 11520, Note_on_c, 4, 79, 34
5, 11520, Note_on_c, 4, 81, 34
5, 14685, Note_off_c, 4, 81, 73
5, 14690, Note_off_c, 4, 79, 59
5, 17688, Note_on_c, 4, 74, 65
5, 18016, Note_off_c, 4, 74, 61
5, 18072, Note_on_c, 4, 74, 65
5, 18410, Note_off_c, 4, 74, 65
5, 18456, Note_on_c, 4, 74, 65
5, 18783, Note_off_c, 4, 74, 67
5, 18840, Note_on_c, 4, 74, 65
5, 19145, Note_off_c, 4, 74, 63
5, 19224, Note_on_c, 4, 74, 65
5, 19537, Note_off_c, 4, 74, 58
5, 19608, Note_on_c, 4, 74, 65
5, 19926, Note_off_c, 4, 74, 58
5, 19992, Note_on_c, 4, 74, 65
5, 20298, Note_off_c, 4, 74, 61
5, 20376, Note_on_c, 4, 74, 65
5, 20646, Note_off_c, 4, 74, 84
5, 20736, Note_on_c, 4, 79, 30
5, 20736, Note_on_c, 4, 81, 45
5, 23754, Note_off_c, 4, 81, 70
5, 23755, Note_off_c, 4, 79, 59
5, 23808, Note_on_c, 4, 81, 45
5, 23808, Note_on_c, 4, 74, 45
5, 26866, Note_off_c, 4, 74, 99
5, 26866, Note_off_c, 4, 81, 101
5, 29952, Note_on_c, 4, 79, 34
5, 29952, Note_on_c, 4, 81, 34
5, 33117, Note_off_c, 4, 81, 73
5, 33122, Note_off_c, 4, 79, 59
5, 36096, Note_on_c, 4, 81, 45
5, 36096, Note_on_c, 4, 74, 45
5, 39154, Note_off_c, 4, 74, 99
5, 39154, Note_off_c, 4, 81, 101
5, 39168, End_track
6, 0, Start_track
6, 0, Program_c, 5, 27
6, 24, Control_c, 5, 1, 0
6, 48, Control_c, 5, 7, 100
6, 72, Control_c, 5, 10, 25
6, 96, Control_c, 5, 11, 127
6, 120, Control_c, 5, 91, 60
6, 144, Pitch_bend_c, 5, 8192
6, 8640, Note_on_c, 5, 62, 86
6, 8640, Note_on_c, 5, 66, 74
6, 8738, Note_on_c, 5, 66, 63
6, 8738, Note_on_c, 5, 69, 89
6, 8739, Note_off_c, 5, 66, 82
6, 8740, Note_off_c, 5, 62, 77
6, 8784, Note_off_c, 5, 66, 66
6, 8786, Note_on_c, 5, 62, 74
6, 8787, Note_on_c, 5, 66, 85
6, 8794, Note_off_c, 5, 69, 88
6, 8878, Note_off_c, 5, 62, 67
6, 8879, Note_off_c, 5, 66, 75
6, 8883, Note_on_c, 5, 57, 83
6, 8884, Note_on_c, 5, 62, 83
6, 8956, Note_off_c, 5, 62, 57
6, 8957, Note_off_c, 5, 57, 72
6, 8974, Note_on_c, 5, 62, 76
6, 8976, Note_on_c, 5, 57, 78
6, 9021, Note_on_c, 5, 64, 89
6, 9024, Note_off_c, 5, 62, 72
6, 9026, Note_off_c, 5, 57, 66
6, 9029, Note_on_c, 5, 59, 72
6, 9122, Note_off_c, 5, 59, 80
6, 9123, Note_off_c, 5, 64, 67
6, 9123, Note_on_c, 5, 54, 66
6, 9123, Note_on_c, 5, 59, 92
6, 9218, Note_off_c, 5, 54, 88
6, 9219, Note_on_c, 5, 52, 89
6, 9222, Note_on_c, 5, 57, 89
6, 9223, Note_off_c, 5, 59, 77
6, 9291, Note_off_c, 5, 52, 103
6, 9310, Note_off_c, 5, 57, 62
6, 9408, Note_on_c, 5, 66, 85
6, 9414, Note_on_c, 5, 62, 83
6, 9504, Note_on_c, 5, 66, 74
6, 9507, Note_on_c, 5, 69, 83
6, 9508, Note_off_c, 5, 62, 75
6, 9509, Note_off_c, 5, 66, 77
6, 9552, Note_off_c, 5, 66, 53
6, 9554, Note_on_c, 5, 62, 89
6, 9554, Note_on_c, 5, 66, 85
6, 9556, Note_off_c, 5, 69, 73
6, 9646, Note_off_c, 5, 62, 54
6, 9647, Note_off_c, 5, 66, 61
6, 9653, Note_on_c, 5, 62, 89
6, 9656, Note_on_c, 5, 57, 89
6, 9722, Note_off_c, 5, 57, 69
6, 9727, Note_off_c, 5, 62, 67
6, 9747, Note_on_c, 5, 62, 96
6, 9749, Note_on_c, 5, 57, 86
6, 9794, Note_off_c, 5, 57, 52
6, 9794, Note_on_c, 5, 64, 83
6, 9796, Note_on_c, 5, 59, 83
6, 9798, Note_off_c, 5, 62, 62
6, 9886, Note_on_c, 5, 59, 100
6, 9888, Note_off_c, 5, 59, 66
6, 9890, Note_off_c, 5, 64, 75
6, 9890, Note_on_c, 5, 54, 67
6, 9986, Note_off_c, 5, 54, 84
6, 9986, Note_off_c, 5, 59, 72
6, 9987, Note_on_c, 5, 57, 89
6, 9989, Note_on_c, 5, 52, 92
6, 10059, Note_off_c, 5, 52, 84
6, 10069, Note_off_c, 5, 57, 72
6, 10178, Note_on_c, 5, 62, 86
6, 10178, Note_on_c, 5, 66, 85
6, 10268, Note_on_c, 5, 66, 69
6, 10272, Note_on_c, 5, 69, 86
6, 10274, Note_off_c, 5, 66, 62
6, 10274, Note_off_c, 5, 62, 79
6, 10318, Note_off_c, 5, 66, 63
6, 10323, Note_on_c, 5, 62, 80
6, 10324, Note_on_c, 5, 66, 85
6, 10326, Note_off_c, 5, 69, 62
6, 10415, Note_off_c, 5, 66, 72
6, 10415, Note_off_c, 5, 62, 66
6, 10416, Note_on_c, 5, 62, 89
6, 10426, Note_on_c, 5, 57, 76
6, 10489, Note_off_c, 5, 62, 57
6, 10490, Note_off_c, 5, 57, 59
6, 10516, Note_on_c, 5, 62, 96
6, 10520, Note_on_c, 5, 57, 76
6, 10562, Note_on_c, 5, 64, 92
6, 10563, Note_off_c, 5, 62, 63
6, 10566, Note_on_c, 5, 59, 70
6, 10567, Note_off_c, 5, 57, 51
6, 10655, Note_off_c, 5, 64, 88
6, 10655, Note_on_c, 5, 54, 61
6, 10658, Note_off_c, 5, 59, 40
6, 10659, Note_on_c, 5, 59, 92
6, 10751, Note_off_c, 5, 54, 99
6, 10754, Note_off_c, 5, 59, 73
6, 10754, Note_on_c, 5, 52, 83
6, 10755, Note_on_c, 5, 57, 86
6, 10827, Note_off_c, 5, 52, 106
6, 10835, Note_off_c, 5, 57, 65
6, 10946, Note_on_c, 5, 66, 85
6, 10948, Note_on_c, 5, 62, 86
6, 11037, Note_on_c, 5, 66, 71
6, 11040, Note_on_c, 5, 69, 86
6, 11042, Note_off_c, 5, 62, 65
6, 11042, Note_off_c, 5, 66, 90
6, 11087, Note_off_c, 5, 66, 66
6, 11090, Note_on_c, 5, 62, 78
6, 11090, Note_on_c, 5, 66, 93
6, 11092, Note_off_c, 5, 69, 62
6, 11176, Note_off_c, 5, 62, 55
6, 11182, Note_off_c, 5, 66, 79
6, 11187, Note_on_c, 5, 57, 80
6, 11187, Note_on_c, 5, 62, 92
6, 11252, Note_off_c, 5, 62, 62
6, 11254, Note_off_c, 5, 57, 72
6, 11283, Note_on_c, 5, 62, 92
6, 11284, Note_on_c, 5, 57, 80
6, 11327, Note_off_c, 5, 57, 42
6, 11328, Note_on_c, 5, 59, 76
6, 11331, Note_off_c, 5, 62, 73
6, 11331, Note_on_c, 5, 64, 83
6, 11426, Note_off_c, 5, 64, 65
6, 11426, Note_on_c, 5, 54, 58
6, 11426, Note_on_c, 5, 59, 92
6, 11431, Note_off_c, 5, 59, 75
6, 11484, Note_off_c, 5, 59, 80
6, 11484, Note_off_c, 5, 54, 99
6, 14784, Note_on_c, 5, 62, 86
6, 14784, Note_on_c, 5, 66, 74
6, 14882, Note_on_c, 5, 66, 63
6, 14882, Note_on_c, 5, 69, 89
6, 14883, Note_off_c, 5, 66, 82
6, 14884, Note_off_c, 5, 62, 77
6, 14928, Note_off_c, 5, 66, 66
6, 14930, Note_on_c, 5, 62, 74
6, 14931, Note_on_c, 5, 66, 85
6, 14938, Note_off_c, 5, 69, 88
6, 15022, Note_off_c, 5, 62, 67
6, 15023, Note_off_c, 5, 66, 75
6, 15027, Note_on_c, 5, 57, 83
6, 15028, Note_on_c, 5, 62, 83
6, 15100, Note_off_c, 5, 62, 57
6, 15101, Note_off_c, 5, 57, 72
6, 15118, Note_on_c, 5, 62, 76
6, 15120, Note_on_c, 5, 57, 78
6, 15165, Note_on_c, 5, 64, 89
6, 15168, Note_off_c, 5, 62, 72
6, 15170, Note_off_c, 5, 57, 66
6, 15173, Note_on_c, 5, 59, 72
6, 15266, Note_off_c, 5, 59, 80
6, 15267, Note_off_c, 5, 64, 67
6, 15267, Note_on_c, 5, 54, 66
6, 15267, Note_on_c, 5, 59, 92
6, 15362, Note_off_c, 5, 54, 88
6, 15363, Note_on_c, 5, 52, 89
6, 15366, Note_on_c, 5, 57, 89
6, 15367, Note_off_c, 5, 59, 77
6, 15435, Note_off_c, 5, 52, 103
6, 15454, Note_off_c, 5, 57, 62
6, 15552, Note_on_c, 5, 66, 85
6, 15558, Note_on_c, 5, 62, 83
6, 15648, Note_on_c, 5, 66, 74
6, 15651, Note_on_c, 5, 69, 83
6, 15652, Note_off_c, 5, 62, 75
6, 15653, Note_off_c, 5, 66, 77
6, 15696, Note_off_c, 5, 66, 53
6, 15698, Note_on_c, 5, 62, 89
6, 15698, Note_on_c, 5, 66, 85
6, 15700, Note_off_c, 5, 69, 73
6, 15790, Note_off_c, 5, 62, 54
6, 15791, Note_off_c, 5, 66, 61
6, 15797, Note_on_c, 5, 62, 89
6, 15800, Note_on_c, 5, 57, 89
6, 15866, Note_off_c, 5, 57, 69
6, 15871, Note_off_c, 5, 62, 67
6, 15891, Note_on_c, 5, 62, 96
6, 15893, Note_on_c, 5, 57, 86
6, 15938, Note_off_c, 5, 57, 52
6, 15938, Note_on_c, 5, 64, 83
6, 15940, Note_on_c, 5, 59, 83
6, 15942, Note_off_c, 5, 62, 62
6, 16030, Note_on_c, 5, 59, 100
6, 16032, Note_off_c, 5, 59, 66
6, 16034, Note_off_c, 5, 64, 75
6, 16034, Note_on_c, 5, 54, 67
6, 16130, Note_off_c, 5, 54, 84
6, 16130, Note_off_c, 5, 59, 72
6, 16131, Note_on_c, 5, 57, 89
6, 16133, Note_on_c, 5, 52, 92
6, 16203, Note_off_c, 5, 52, 84
6, 16213, Note_off_c, 5, 57, 72
6, 16322, Note_on_c, 5, 62, 86
6, 16322, Note_on_c, 5, 66, 85
6, 16412, Note_on_c, 5, 66, 69
6, 16416, Note_on_c, 5, 69, 86
6, 16418, Note_off_c, 5, 66, 62
6, 16418, Note_off_c, 5, 62, 79
6, 16462, Note_off_c, 5, 66, 63
6, 16467, Note_on_c, 5, 62, 80
6, 16468, Note_on_c, 5, 66, 85
6, 16470, Note_off_c, 5, 69, 62
6, 16559, Note_off_c, 5, 66, 72
6, 16559, Note_off_c, 5, 62, 66
6, 16560, Note_on_c, 5, 62, 89
6, 16570, Note_on_c, 5, 57, 76
6, 16633, Note_off_c, 5, 62, 57
6, 16634, Note_off_c, 5, 57, 59
6, 16660, Note_on_c, 5, 62, 96
6, 16664, Note_on_c, 5, 57, 76
6, 16706, Note_on_c, 5, 64, 92
6, 16707, Note_off_c, 5, 62, 63
6, 16710, Note_on_c, 5, 59, 70
6, 16711, Note_off_c, 5, 57, 51
6, 16799, Note_off_c, 5, 64, 88
6, 16799, Note_on_c, 5, 54, 61
6, 16802, Note_off_c, 5, 59, 40
6, 16803, Note_on_c, 5, 59, 92
6, 16895, Note_off_c, 5, 54, 99
6, 16898, Note_off_c, 5, 59, 73
6, 16898, Note_on_c, 5, 52, 83
6, 16899, Note_on_c, 5, 57, 86
6, 16971, Note_off_c, 5, 52, 106
6, 16979, Note_off_c, 5, 57, 65
6, 17090, Note_on_c, 5, 66, 85
6, 17092, Note_on_c, 5, 62, 86
6, 17181, Note_on_c, 5, 66, 71
6, 17184, Note_on_c, 5, 69, 86
6, 17186, Note_off_c, 5, 62, 65
6, 17186, Note_off_c, 5, 66, 90
6, 17231, Note_off_c, 5, 66, 66
6, 17234, Note_on_c, 5, 62, 78
6, 17234, Note_on_c, 5, 66, 93
6, 17236, Note_off_c, 5, 69, 62
6, 17320, Note_off_c, 5, 62, 55
6, 17326, Note_off_c, 5, 66, 79
6, 17331, Note_on_c, 5, 57, 80
6, 17331, Note_on_c, 5, 62, 92
6, 17396, Note_off_c, 5, 62, 62
6, 17398, Note_off_c, 5, 57, 72
6, 17427, Note_on_c, 5, 62, 92
6, 17428, Note_on_c, 5, 57, 80
6, 17471, Note_off_c, 5, 57, 42
6, 17472, Note_on_c, 5, 59, 76
6, 17475, Note_off_c, 5, 62, 73
6, 17475, Note_on_c, 5, 64, 83
6, 17570, Note_off_c, 5, 64, 65
6, 17570, Note_on_c, 5, 54, 58
6, 17570, Note_on_c, 5, 59, 92
6, 17575, Note_off_c, 5, 59, 75
6, 17628, Note_off_c, 5, 59, 80
6, 17628, Note_off_c, 5, 54, 99
6, 17664, Note_on_c, 5, 69, 64
6, 17686, Note_off_c, 5, 69, 48
6, 17712, Note_on_c, 5, 69, 62
6, 17728, Note_off_c, 5, 69, 73
6, 17736, Note_on_c, 5, 69, 51
6, 17749, Note_off_c, 5, 69, 70
6, 17760, Note_on_c, 5, 69, 39
6, 17770, Note_off_c, 5, 69, 69
6, 17784, Note_on_c, 5, 69, 80
6, 17798, Note_off_c, 5, 69, 77
6, 17832, Note_on_c, 5, 69, 60
6, 17845, Note_off_c, 5, 69, 66
6, 17856, Note_on_c, 5, 69, 68
6, 17870, Note_off_c, 5, 69, 66
6, 17880, Note_on_c, 5, 69, 62
6, 17893, Note_off_c, 5, 69, 59
6, 17928, Note_on_c, 5, 69, 54
6, 17938, Note_off_c, 5, 69, 79
6, 17952, Note_on_c, 5, 69, 68
6, 18018, Note_off_c, 5, 69, 67
6, 18024, Note_on_c, 5, 69, 47
6, 18038, Note_off_c, 5, 69, 73
6, 18048, Note_on_c, 5, 69, 64
6, 18070, Note_off_c, 5, 69, 48
6, 18096, Note_on_c, 5, 69, 62
6, 18112, Note_off_c, 5, 69, 73
6, 18120, Note_on_c, 5, 69, 51
6, 18133, Note_off_c, 5, 69, 70
6, 18144, Note_on_c, 5, 69, 39
6, 18154, Note_off_c, 5, 69, 69
6, 18168, Note_on_c, 5, 69, 80
6, 18182, Note_off_c, 5, 69, 77
6, 18216, Note_on_c, 5, 69, 60
6, 18229, Note_off_c, 5, 69, 66
6, 18240, Note_on_c, 5, 69, 68
6, 18254, Note_off_c, 5, 69, 66
6, 18264, Note_on_c, 5, 69, 62
6, 18277, Note_off_c, 5, 69, 59
6, 18312, Note_on_c, 5, 69, 54
6, 18322, Note_off_c, 5, 69, 79
6, 18336, Note_on_c, 5, 69, 68
6, 18402, Note_off_c, 5, 69, 67
6, 18408, Note_on_c, 5, 69, 47
6, 18422, Note_off_c, 5, 69, 73
6, 18432, Note_on_c, 5, 69, 64
6, 18454, Note_off_c, 5, 69, 48
6, 18480, Note_on_c, 5, 69, 62
6, 18496, Note_off_c, 5, 69, 73
6, 18504, Note_on_c, 5, 69, 51
6, 18517, Note_off_c, 5, 69, 70
6, 18528, Note_on_c, 5, 69, 39
6, 18538, Note_off_c, 5, 69, 69
6, 18552, Note_on_c, 5, 69, 80
6, 18566, Note_off_c, 5, 69, 77
6, 18600, Note_on_c, 5, 69, 60
6, 18613, Note_off_c, 5, 69, 66
6, 18624, Note_on_c, 5, 69, 68
6, 18638, Note_off_c, 5, 69, 66
6, 18648, Note_on_c, 5, 69, 62
6, 18661, Note_off_c, 5, 69, 59
6, 18696, Note_on_c, 5, 69, 54
6, 18706, Note_off_c, 5, 69, 79
6, 18720, Note_on_c, 5, 69, 68
6, 18786, Note_off_c, 5, 69, 67
6, 18792, Note_on_c, 5, 69, 47
6, 18806, Note_off_c, 5, 69, 73
6, 18816, Note_on_c, 5, 69, 64
6, 18838, Note_off_c, 5, 69, 48
6, 18864, Note_on_c, 5, 69, 62
6, 18880, Note_off_c, 5, 69, 73
6, 18888, Note_on_c, 5, 69, 51
6, 18901, Note_off_c, 5, 69, 70
6, 18912, Note_on_c, 5, 69, 39
6, 18922, Note_off_c, 5, 69, 69
6, 18936, Note_on_c, 5, 69, 80
6, 18950, Note_off_c, 5, 69, 77
6, 18984, Note_on_c, 5, 69, 60
6, 18997, Note_off_c, 5, 69, 66
6, 19008, Note_on_c, 5, 69, 68
6, 19022, Note_off_c, 5, 69, 66
6, 19032, Note_on_c, 5, 69, 62
6, 19045, Note_off_c, 5, 69, 59
6, 19080, Note_on_c, 5, 69, 54
6, 19090, Note_off_c, 5, 69, 79
6, 19104, Note_on_c, 5, 69, 68
6, 19170, Note_off_c, 5, 69, 67
6, 19176, Note_on_c, 5, 69, 47
6, 19190, Note_off_c, 5, 69, 73
6, 19200, Note_on_c, 5, 69, 64
6, 19222, Note_off_c, 5, 69, 48
6, 19248, Note_on_c, 5, 69, 62
6, 19264, Note_off_c, 5, 69, 73
6, 19272, Note_on_c, 5, 69, 51
6, 19285, Note_off_c, 5, 69, 70
6, 19296, Note_on_c, 5, 69, 39
6, 19306, Note_off_c, 5, 69, 69
6, 19320, Note_on_c, 5, 69, 80
6, 19334, Note_off_c, 5, 69, 77
6, 19368, Note_on_c, 5, 69, 60
6, 19381, Note_off_c, 5, 69, 66
6, 19392, Note_on_c, 5, 69, 68
6, 19406, Note_off_c, 5, 69, 66
6, 19416, Note_on_c, 5, 69, 62
6, 19429, Note_off_c, 5, 69, 59
6, 19464, Note_on_c, 5, 69, 54
6, 19474, Note_off_c, 5, 69, 79
6, 19488, Note_on_c, 5, 69, 68
6, 19554, Note_off_c, 5, 69, 67
6, 19560, Note_on_c, 5, 69, 47
6, 19574, Note_off_c, 5, 69, 73
6, 19584, Note_on_c, 5, 69, 64
6, 19606, Note_off_c, 5, 69, 48
6, 19632, Note_on_c, 5, 69, 62
6, 19648, Note_off_c, 5, 69, 73
6, 19656, Note_on_c, 5, 69, 51
6, 19669, Note_off_c, 5, 69, 70
6, 19680, Note_on_c, 5, 69, 39
6, 19690, Note_off_c, 5, 69, 69
6, 19704, Note_on_c, 5, 69, 80
6, 19718, Note_off_c, 5, 69, 77
6, 19752, Note_on_c, 5, 69, 60
6, 19765, Note_off_c, 5, 69, 66
6, 19776, Note_on_c, 5, 69, 68
6, 19790, Note_off_c, 5, 69, 66
6, 19800, Note_on_c, 5, 69, 62
6, 19813, Note_off_c, 5, 69, 59
6, 19848, Note_on_c, 5, 69, 54
6, 19858, Note_off_c, 5, 69, 79
6, 19872, Note_on_c, 5, 69, 68
6, 19938, Note_off_c, 5, 69, 67
6, 19944, Note_on_c, 5, 69, 47
6, 19958, Note_off_c, 5, 69, 73
6, 19968, Note_on_c, 5, 69, 64
6, 19990, Note_off_c, 5, 69, 48
6, 20016, Note_on_c, 5, 69, 62
6, 20032, Note_off_c, 5, 69, 73
6, 20040, Note_on_c, 5, 69, 51
6, 20053, Note_off_c, 5, 69, 70
6, 20064, Note_on_c, 5, 69, 39
6, 20074, Note_off_c, 5, 69, 69
6, 20088, Note_on_c, 5, 69, 80
6, 20102, Note_off_c, 5, 69, 77
6, 20136, Note_on_c, 5, 69, 60
6, 20149, Note_off_c, 5, 69, 66
6, 20160, Note_on_c, 5, 69, 68
6, 20174, Note_off_c, 5, 69, 66
6, 20184, Note_on_c, 5, 69, 62
6, 20197, Note_off_c, 5, 69, 59
6, 20232, Note_on_c, 5, 69, 54
6, 20242, Note_off_c, 5, 69, 79
6, 20256, Note_on_c, 5, 69, 68
6, 20322, Note_off_c, 5, 69, 67
6, 20328, Note_on_c, 5, 69, 47
6, 20342, Note_off_c, 5, 69, 73
6, 20352, Note_on_c, 5, 69, 64
6, 20374, Note_off_c, 5, 69, 48
6, 20400, Note_on_c, 5, 69, 62
6, 20416, Note_off_c, 5, 69, 73
6, 20424, Note_on_c, 5, 69, 51
6, 20437, Note_off_c, 5, 69, 70
6, 20448, Note_on_c, 5, 69, 39
6, 20458, Note_off_c, 5, 69, 69
6, 20472, Note_on_c, 5, 69, 80
6, 20486, Note_off_c, 5, 69, 77
6, 20520, Note_on_c, 5, 69, 60
6, 20533, Note_off_c, 5, 69, 66
6, 20544, Note_on_c, 5, 69, 68
6, 20558, Note_off_c, 5, 69, 66
6, 20568, Note_on_c, 5, 69, 62
6, 20581, Note_off_c, 5, 69, 59
6, 20616, Note_on_c, 5, 69, 54
6, 20626, Note_off_c, 5, 69, 79
6, 20640, Note_on_c, 5, 69, 68
6, 20706, Note_off_c, 5, 69, 67
6, 20712, Note_on_c, 5, 69, 47
6, 20726, Note_off_c, 5, 69, 73
6, 27072, Note_on_c, 5, 62, 86
6, 27072, Note_on_c, 5, 66, 74
6, 27170, Note_on_c, 5, 66, 63
6, 27170, Note_on_c, 5, 69, 89
6, 27171, Note_off_c, 5, 66, 82
6, 27172, Note_off_c, 5, 62, 77
6, 27216, Note_off_c, 5, 66, 66
6, 27218, Note_on_c, 5, 62, 74
6, 27219, Note_on_c, 5, 66, 85
6, 27226, Note_off_c, 5, 69, 88
6, 27310, Note_off_c, 5, 62, 67
6, 27311, Note_off_c, 5, 66, 75
6, 27315, Note_on_c, 5, 57, 83
6, 27316, Note_on_c, 5, 62, 83
6, 27388, Note_off_c, 5, 62, 57
6, 27389, Note_off_c, 5, 57, 72
6, 27406, Note_on_c, 5, 62, 76
6, 27408, Note_on_c, 5, 57, 78
6, 27453, Note_on_c, 5, 64, 89
6, 27456, Note_off_c, 5, 62, 72
6, 27458, Note_off_c, 5, 57, 66
6, 27461, Note_on_c, 5, 59, 72
6, 27554, Note_off_c, 5, 59, 80
6, 27555, Note_off_c, 5, 64, 67
6, 27555, Note_on_c, 5, 54, 66
6, 27555, Note_on_c, 5, 59, 92
6, 27650, Note_off_c, 5, 54, 88
6, 27651, Note_on_c, 5, 52, 89
6, 27654, Note_on_c, 5, 57, 89
6, 27655, Note_off_c, 5, 59, 77
6, 27723, Note_off_c, 5, 52, 103
6, 27742, Note_off_c, 5, 57, 62
6, 27840, Note_on_c, 5, 66, 85
6, 27846, Note_on_c, 5, 62, 83
6, 27936, Note_on_c, 5, 66, 74
6, 27939, Note_on_c, 5, 69, 83
6, 27940, Note_off_c, 5, 62, 75
6, 27941, Note_off_c, 5, 66, 77
6, 27984, Note_off_c, 5, 66, 53
6, 27986, Note_on_c, 5, 62, 89
6, 27986, Note_on_c, 5, 66, 85
6, 27988, Note_off_c, 5, 69, 73
6, 28078, Note_off_c, 5, 62, 54
6, 28079, Note_off_c, 5, 66, 61
6, 28085, Note_on_c, 5, 62, 89
6, 28088, Note_on_c, 5, 57, 89
6, 28154, Note_off_c, 5, 57, 69
6, 28159, Note_off_c, 5, 62, 67
6, 28179, Note_on_c, 5, 62, 96
6, 28181, Note_on_c, 5, 57, 86
6, 28226, Note_off_c, 5, 57, 52
6, 28226, Note_on_c, 5, 64, 83
6, 28228, Note_on_c, 5, 59, 83
6, 28230, Note_off_c, 5, 62, 62
6, 28318, Note_on_c, 5, 59, 100
6, 28320, Note_off_c, 5, 59, 66
6, 28322, Note_off_c, 5, 64, 75
6, 28322, Note_on_c, 5, 54, 67
6, 28418, Note_off_c, 5, 54, 84
6, 28418, Note_off_c, 5, 59, 72
6, 28419, Note_on_c, 5, 57, 89
6, 28421, Note_on_c, 5, 52, 92
6, 28491, Note_off_c, 5, 52, 84
6, 28501, Note_off_c, 5, 57, 72
6, 28610, Note_on_c, 5, 62, 86
6, 28610, Note_on_c, 5, 66, 85
6, 28700, Note_on_c, 5, 66, 69
6, 28704, Note_on_c, 5, 69, 86
6, 28706, Note_off_c, 5, 66, 62
6, 28706, Note_off_c, 5, 62, 79
6, 28750, Note_off_c, 5, 66, 63
6, 28755, Note_on_c, 5, 62, 80
6, 28756, Note_on_c, 5, 66, 85
6, 28758, Note_off_c, 5, 69, 62
6, 28847, Note_off_c, 5, 66, 72
6, 28847, Note_off_c, 5, 62, 66
6, 28848, Note_on_c, 5, 62, 89
6, 28858, Note_on_c, 5, 57, 76
6, 28921, Note_off_c, 5, 62, 57
6, 28922, Note_off_c, 5, 57, 59
6, 28948, Note_on_c, 5, 62, 96
6, 28952, Note_on_c, 5, 57, 76
6, 28994, Note_on_c, 5, 64, 92
6, 28995, Note_off_c, 5, 62, 63
6, 28998, Note_on_c, 5, 59, 70
6, 28999, Note_off_c, 5, 57, 51
6, 29087, Note_off_c, 5, 64, 88
6, 29087, Note_on_c, 5, 54, 61
6, 29090, Note_off_c, 5, 59, 40
6, 29091, Note_on_c, 5, 59, 92
6, 29183, Note_off_c, 5, 54, 99
6, 29186, Note_off_c, 5, 59, 73
6, 29186, Note_on_c, 5, 52, 83
6, 29187, Note_on_c, 5, 57, 86
6, 29259, Note_off_c, 5, 52, 106
6, 29267, Note_off_c, 5, 57, 65
6, 29378, Note_on_c, 5, 66, 85
6, 29380, Note_on_c, 5, 62, 86
6, 29469, Note_on_c, 5, 66, 71
6, 29472, Note_on_c, 5, 69, 86
6, 29474, Note_off_c, 5, 62, 65
6, 29474, Note_off_c, 5, 66, 90
6, 29519, Note_off_c, 5, 66, 66
6, 29522, Note_on_c, 5, 62, 78
6, 29522, Note_on_c, 5, 66, 93
6, 29524, Note_off_c, 5, 69, 62
6, 29608, Note_off_c, 5, 62, 55
6, 29614, Note_off_c, 5, 66, 79
6, 29619, Note_on_c, 5, 57, 80
6, 29619, Note_on_c, 5, 62, 92
6, 29684, Note_off_c, 5, 62, 62
6, 29686, Note_off_c, 5, 57, 72
6, 29715, Note_on_c, 5, 62, 92
6, 29716, Note_on_c, 5, 57, 80
6, 29759, Note_off_c, 5, 57, 42
6, 29760, Note_on_c, 5, 59, 76
6, 29763, Note_off_c, 5, 62, 73
6, 29763, Note_on_c, 5, 64, 83
6, 29858, Note_off_c, 5, 64, 65
6, 29858, Note_on_c, 5, 54, 58
6, 29858, Note_on_c, 5, 59, 92
6, 29863, Note_off_c, 5, 59, 75
6, 29916, Note_off_c, 5, 59, 80
6, 29916, Note_off_c, 5, 54, 99
6, 33216, Note_on_c, 5, 62, 86
6, 33216, Note_on_c, 5, 66, 74
6, 33314, Note_on_c, 5, 66, 63
6, 33314, Note_on_c, 5, 69, 89
6, 33315, Note_off_c, 5, 66, 82
6, 33316, Note_off_c, 5, 62, 77
6, 33360, Note_off_c, 5, 66, 66
6, 33362, Note_on_c, 5, 62, 74
6, 33363, Note_on_c, 5, 66, 85
6, 33370, Note_off_c, 5, 69, 88
6, 33454, Note_off_c, 5, 62, 67
6, 33455, Note_off_c, 5, 66, 75
6, 33459, Note_on_c, 5, 57, 83
6, 33460, Note_on_c, 5, 62, 83
6, 33532, Note_off_c, 5, 62, 57
6, 33533, Note_off_c, 5, 57, 72
6, 33550, Note_on_c, 5, 62, 76
6, 33552, Note_on_c, 5, 57, 78
6, 33597, Note_on_c, 5, 64, 89
6, 33600, Note_off_c, 5, 62, 72
6, 33602, Note_off_c, 5, 57, 66
6, 33605, Note_on_c, 5, 59, 72
6, 33698, Note_off_c, 5, 59, 80
6, 33699, Note_off_c, 5, 64, 67
6, 33699, Note_on_c, 5, 54, 66
6, 33699, Note_on_c, 5, 59, 92
6, 33794, Note_off_c, 5, 54, 88
6, 33795, Note_on_c, 5, 52, 89
6, 33798, Note_on_c, 5, 57, 89
6, 33799, Note_off_c, 5, 59, 77
6, 33867, Note_off_c, 5, 52, 103
6, 33886, Note_off_c, 5, 57, 62
6, 33984, Note_on_c, 5, 66, 85
6, 33990, Note_on_c, 5, 62, 83
6, 34080, Note_on_c, 5, 66, 74
6, 34083, Note_on_c, 5, 69, 83
6, 34084, Note_off_c, 5, 62, 75
6, 34085, Note_off_c, 5, 66, 77
6, 34128, Note_off_c, 5, 66, 53
6, 34130, Note_on_c, 5, 62, 89
6, 34130, Note_on_c, 5, 66, 85
6, 34132, Note_off_c, 5, 69, 73
6, 34222, Note_off_c, 5, 62, 54
6, 34223, Note_off_c, 5, 66, 61
6, 34229, Note_on_c, 5, 62, 89
6, 34232, Note_on_c, 5, 57, 89
6, 34298, Note_off_c, 5, 57, 69
6, 34303, Note_off_c, 5, 62, 67
6, 34323, Note_on_c, 5, 62, 96
6, 34325, Note_on_c, 5, 57, 86
6, 34370, Note_off_c, 5, 57, 52
6, 34370, Note_on_c, 5, 64, 83
6, 34372, Note_on_c, 5, 59, 83
6, 34374, Note_off_c, 5, 62, 62
6, 34462, Note_on_c, 5, 59, 100
6, 34464, Note_off_c, 5, 59, 66
6, 34466, Note_off_c, 5, 64, 75
6, 34466, Note_on_c, 5, 54, 67
6, 34562, Note_off_c, 5, 54, 84
6, 34562, Note_off_c, 5, 59, 72
6, 34563, Note_on_c, 5, 57, 89
6, 34565, Note_on_c, 5, 52, 92
6, 34635, Note_off_c, 5, 52, 84
6, 34645, Note_off_c, 5, 57, 72
6, 34754, Note_on_c, 5, 62, 86
6, 34754, Note_on_c, 5, 66, 85
6, 34844, Note_on_c, 5, 66, 69
6, 34848, Note_on_c, 5, 69, 86
6, 34850, Note_off_c, 5, 66, 62
6, 34850, Note_off_c, 5, 62, 79
6, 34894, Note_off_c, 5, 66, 63
6, 34899, Note_on_c, 5, 62, 80
6, 34900, Note_on_c, 5, 66, 85
6, 34902, Note_off_c, 5, 69, 62
6, 34991, Note_off_c, 5, 66, 72
6, 34991, Note_off_c, 5, 62, 66
6, 34992, Note_on_c, 5, 62, 89
6, 35002, Note_on_c, 5, 57, 76
6, 35065, Note_off_c, 5, 62, 57
6, 35066, Note_off_c, 5, 57, 59
6, 35092, Note_on_c, 5, 62, 96
6, 35096, Note_on_c, 5, 57, 76
6, 35138, Note_on_c, 5, 64, 92
6, 35139, Note_off_c, 5, 62, 63
6, 35142, Note_on_c, 5, 59, 70
6, 35143, Note_off_c, 5, 57, 51
6, 35231, Note_off_c, 5, 64, 88
6, 35231, Note_on_c, 5, 54, 61
6, 35234, Note_off_c, 5, 59, 40
6, 35235, Note_on_c, 5, 59, 92
6, 35327, Note_off_c, 5, 54, 99
6, 35330, Note_off_c, 5, 59, 73
6, 35330, Note_on_c, 5, 52, 83
6, 35331, Note_on_c, 5, 57, 86
6, 35403, Note_off_c, 5, 52, 106
6, 35411, Note_off_c, 5, 57, 65
6, 35522, Note_on_c, 5, 66, 85
6, 35524, Note_on_c, 5, 62, 86
6, 35613, Note_on_c, 5, 66, 71
6, 35616, Note_on_c, 5, 69, 86
6, 35618, Note_off_c, 5, 62, 65
6, 35618, Note_off_c, 5, 66, 90
6, 35663, Note_off_c, 5, 66, 66
6, 35666, Note_on_c, 5, 62, 78
6, 35666, Note_on_c, 5, 66, 93
6, 35668, Note_off_c, 5, 69, 62
6, 35752, Note_off_c, 5, 62, 55
6, 35758, Note_off_c, 5, 66, 79
6, 35763, Note_on_c, 5, 57, 80
6, 35763, Note_on_c, 5, 62, 92
6, 35828, Note_off_c, 5, 62, 62
6, 35830, Note_off_c, 5, 57, 72
6, 35859, Note_on_c, 5, 62, 92
6, 35860, Note_on_c, 5, 57, 80
6, 35903, Note_off_c, 5, 57, 42
6, 35904, Note_on_c, 5, 59, 76
6, 35907, Note_off_c, 5, 62, 73
6, 35907, Note_on_c, 5, 64, 83
6, 36002, Note_off_c, 5, 64, 65
6, 36002, Note_on_c, 5, 54, 58
6, 36002, Note_on_c, 5, 59, 92
6, 36007, Note_off_c, 5, 59, 75
6, 36060, Note_off_c, 5, 59, 80
6, 36060, Note_off_c, 5, 54, 99
6, 39168, End_track
7, 0, Start_track
7, 0, Program_c, 6, 27
7, 24, Control_c, 6, 1, 0
7, 48, Control_c, 6, 7, 100
7, 72, Control_c, 6, 10, 100
7, 96, Control_c, 6, 11, 127
7, 120, Control_c, 6, 91, 90
7, 144, Pitch_bend_c, 6, 8192
7, 8592, Note_on_c, 6, 78, 69
7, 8592, Note_on_c, 6, 74, 78
7, 8602, Note_off_c, 6, 78, 90
7, 8605, Note_off_c, 6, 74, 90
7, 8640, Note_on_c, 6, 78, 78
7, 8640, Note_on_c, 6, 74, 100
7, 8653, Note_off_c, 6, 74, 90
7, 8656, Note_off_c, 6, 78, 99
7, 8664, Note_on_c, 6, 78, 51
7, 8673, Note_off_c, 6, 78, 73
7, 8688, Note_on_c, 6, 78, 50
7, 8688, Note_on_c, 6, 74, 57
7, 8698, Note_off_c, 6, 74, 88
7, 8699, Note_off_c, 6, 78, 90
7, 8712, Note_on_c, 6, 74, 62
7, 8712, Note_on_c, 6, 78, 36
7, 8721, Note_off_c, 6, 78, 69
7, 8726, Note_off_c, 6, 74, 92
7, 8736, Note_on_c, 6, 78, 85
7, 8736, Note_on_c, 6, 74, 100
7, 8752, Note_off_c, 6, 74, 90
7, 8754, Note_off_c, 6, 78, 99
7, 8760, Note_on_c, 6, 74, 46
7, 8760, Note_on_c, 6, 78, 36
7, 8769, Note_off_c, 6, 78, 75
7, 8770, Note_off_c, 6, 74, 62
7, 8784, Note_on_c, 6, 78, 63
7, 8784, Note_on_c, 6, 74, 78
7, 8798, Note_off_c, 6, 74, 94
7, 8799, Note_off_c, 6, 78, 88
7, 8808, Note_on_c, 6, 74, 105
7, 8808, Note_on_c, 6, 78, 69
7, 8820, Note_off_c, 6, 74, 106
7, 8822, Note_off_c, 6, 78, 73
7, 8832, Note_on_c, 6, 74, 41
7, 8842, Note_off_c, 6, 74, 53
7, 8856, Note_on_c, 6, 74, 59
7, 8869, Note_off_c, 6, 74, 82
7, 8880, Note_on_c, 6, 69, 92
7, 8880, Note_on_c, 6, 74, 74
7, 8894, Note_off_c, 6, 74, 94
7, 8894, Note_off_c, 6, 69, 94
7, 8904, Note_on_c, 6, 74, 70
7, 8917, Note_off_c, 6, 74, 73
7, 8928, Note_on_c, 6, 69, 96
7, 8928, Note_on_c, 6, 74, 86
7, 8944, Note_off_c, 6, 69, 86
7, 8947, Note_off_c, 6, 74, 79
7, 8952, Note_on_c, 6, 69, 76
7, 8952, Note_on_c, 6, 74, 66
7, 8963, Note_off_c, 6, 74, 66
7, 8963, Note_off_c, 6, 69, 92
7, 8976, Note_on_c, 6, 69, 66
7, 8976, Note_on_c, 6, 74, 48
7, 8988, Note_off_c, 6, 74, 66
7, 8989, Note_off_c, 6, 69, 86
7, 9000, Note_on_c, 6, 69, 83
7, 9000, Note_on_c, 6, 74, 65
7, 9013, Note_off_c, 6, 74, 73
7, 9013, Note_off_c, 6, 69, 88
7, 9024, Note_on_c, 6, 71, 105
7, 9024, Note_on_c, 6, 76, 92
7, 9039, Note_off_c, 6, 71, 90
7, 9042, Note_off_c, 6, 76, 73
7, 9048, Note_on_c, 6, 71, 59
7, 9048, Note_on_c, 6, 76, 52
7, 9058, Note_off_c, 6, 76, 66
7, 9058, Note_off_c, 6, 71, 39
7, 9072, Note_on_c, 6, 71, 68
7, 9072, Note_on_c, 6, 76, 37
7, 9079, Note_off_c, 6, 76, 59
7, 9084, Note_off_c, 6, 71, 92
7, 9096, Note_on_c, 6, 71, 78
7, 9096, Note_on_c, 6, 76, 63
7, 9107, Note_off_c, 6, 71, 75
7, 9109, Note_off_c, 6, 76, 69
7, 9120, Note_on_c, 6, 71, 105
7, 9120, Note_on_c, 6, 76, 86
7, 9135, Note_off_c, 6, 71, 94
7, 9138, Note_off_c, 6, 76, 84
7, 9144, Note_on_c, 6, 71, 26
7, 9144, Note_on_c, 6, 76, 46
7, 9149, Note_off_c, 6, 71, 59
7, 9153, Note_off_c, 6, 76, 63
7, 9168, Note_on_c, 6, 71, 83
7, 9168, Note_on_c, 6, 76, 63
7, 9181, Note_off_c, 6, 71, 94
7, 9184, Note_off_c, 6, 76, 88
7, 9192, Note_on_c, 6, 71, 89
7, 9192, Note_on_c, 6, 76, 72
7, 9204, Note_off_c, 6, 76, 96
7, 9205, Note_off_c, 6, 71, 99
7, 9216, Note_on_c, 6, 76, 48
7, 9216, Note_on_c, 6, 71, 62
7, 9227, Note_off_c, 6, 76, 79
7, 9228, Note_off_c, 6, 71, 82
7, 9240, Note_on_c, 6, 69, 76
7, 9240, Note_on_c, 6, 74, 63
7, 9253, Note_off_c, 6, 69, 90
7, 9254, Note_off_c, 6, 74, 70
7, 9264, Note_on_c, 6, 74, 74
7, 9264, Note_on_c, 6, 69, 89
7, 9280, Note_off_c, 6, 69, 84
7, 9281, Note_off_c, 6, 74, 79
7, 9288, Note_on_c, 6, 69, 76
7, 9288, Note_on_c, 6, 74, 66
7, 9299, Note_off_c, 6, 69, 75
7, 9301, Note_off_c, 6, 74, 94
7, 9312, Note_on_c, 6, 74, 80
7, 9312, Note_on_c, 6, 69, 86
7, 9330, Note_off_c, 6, 69, 86
7, 9331, Note_off_c, 6, 74, 77
7, 9336, Note_on_c, 6, 69, 65
7, 9336, Note_on_c, 6, 74, 36
7, 9342, Note_off_c, 6, 74, 58
7, 9346, Note_off_c, 6, 69, 65
7, 9360, Note_on_c, 6, 69, 63
7, 9360, Note_on_c, 6, 74, 58
7, 9374, Note_off_c, 6, 74, 53
7, 9375, Note_off_c, 6, 69, 82
7, 9384, Note_on_c, 6, 69, 59
7, 9384, Note_on_c, 6, 74, 56
7, 9396, Note_off_c, 6, 74, 86
7, 9400, Note_off_c, 6, 69, 90
7, 9408, Note_on_c, 6, 74, 100
7, 9408, Note_on_c, 6, 78, 93
7, 9420, Note_off_c, 6, 78, 79
7, 9422, Note_off_c, 6, 74, 94
7, 9432, Note_on_c, 6, 74, 80
7, 9447, Note_off_c, 6, 74, 82
7, 9456, Note_on_c, 6, 74, 68
7, 9456, Note_on_c, 6, 78, 38
7, 9465, Note_off_c, 6, 78, 73
7, 9467, Note_off_c, 6, 74, 88
7, 9480, Note_on_c, 6, 74, 78
7, 9494, Note_off_c, 6, 74, 82
7, 9504, Note_on_c, 6, 74, 96
7, 9504, Note_on_c, 6, 78, 93
7, 9518, Note_off_c, 6, 74, 96
7, 9519, Note_off_c, 6, 78, 94
7, 9528, Note_on_c, 6, 74, 72
7, 9528, Note_on_c, 6, 78, 50
7, 9535, Note_off_c, 6, 78, 79
7, 9538, Note_off_c, 6, 74, 92
7, 9552, Note_on_c, 6, 74, 78
7, 9552, Note_on_c, 6, 78, 36
7, 9560, Note_off_c, 6, 78, 59
7, 9567, Note_off_c, 6, 74, 94
7, 9576, Note_on_c, 6, 74, 83
7, 9576, Note_on_c, 6, 78, 71
7, 9586, Note_off_c, 6, 78, 88
7, 9587, Note_off_c, 6, 74, 90
7, 9600, Note_on_c, 6, 78, 63
7, 9600, Note_on_c, 6, 74, 74
7, 9613, Note_off_c, 6, 78, 82
7, 9615, Note_off_c, 6, 74, 77
7, 9624, Note_on_c, 6, 74, 80
7, 9638, Note_off_c, 6, 74, 94
7, 9648, Note_on_c, 6, 69, 83
7, 9648, Note_on_c, 6, 74, 89
7, 9662, Note_off_c, 6, 74, 86
7, 9672, Note_on_c, 6, 69, 70
7, 9672, Note_on_c, 6, 74, 74
7, 9675, Note_off_c, 6, 69, 88
7, 9682, Note_off_c, 6, 69, 77
7, 9684, Note_off_c, 6, 74, 88
7, 9696, Note_on_c, 6, 69, 86
7, 9696, Note_on_c, 6, 74, 78
7, 9710, Note_off_c, 6, 69, 86
7, 9712, Note_off_c, 6, 74, 75
7, 9720, Note_on_c, 6, 69, 72
7, 9732, Note_off_c, 6, 69, 86
7, 9744, Note_on_c, 6, 74, 56
7, 9744, Note_on_c, 6, 69, 66
7, 9744, Note_on_c, 6, 74, 39
7, 9754, Note_off_c, 6, 74, 66
7, 9755, Note_off_c, 6, 74, 62
7, 9758, Note_off_c, 6, 69, 82
7, 9768, Note_on_c, 6, 74, 59
7, 9768, Note_on_c, 6, 69, 76
7, 9780, Note_off_c, 6, 69, 79
7, 9782, Note_off_c, 6, 74, 90
7, 9792, Note_on_c, 6, 71, 105
7, 9792, Note_on_c, 6, 76, 89
7, 9807, Note_off_c, 6, 76, 86
7, 9807, Note_off_c, 6, 71, 88
7, 9816, Note_on_c, 6, 76, 57
7, 9816, Note_on_c, 6, 71, 83
7, 9825, Note_off_c, 6, 76, 41
7, 9826, Note_off_c, 6, 71, 82
7, 9840, Note_on_c, 6, 71, 43
7, 9840, Note_on_c, 6, 76, 42
7, 9848, Note_off_c, 6, 76, 70
7, 9848, Note_off_c, 6, 71, 80
7, 9864, Note_on_c, 6, 76, 63
7, 9864, Note_on_c, 6, 71, 61
7, 9873, Note_off_c, 6, 71, 59
7, 9874, Note_off_c, 6, 76, 79
7, 9888, Note_on_c, 6, 76, 83
7, 9888, Note_on_c, 6, 71, 100
7, 9904, Note_off_c, 6, 71, 90
7, 9905, Note_off_c, 6, 76, 88
7, 9912, Note_on_c, 6, 76, 50
7, 9912, Note_on_c, 6, 71, 66
7, 9919, Note_off_c, 6, 76, 65
7, 9921, Note_off_c, 6, 71, 72
7, 9936, Note_on_c, 6, 76, 57
7, 9936, Note_on_c, 6, 71, 80
7, 9952, Note_off_c, 6, 71, 80
7, 9954, Note_off_c, 6, 76, 70
7, 9960, Note_on_c, 6, 76, 78
7, 9960, Note_on_c, 6, 71, 83
7, 9971, Note_off_c, 6, 76, 86
7, 9973, Note_off_c, 6, 71, 101
7, 9984, Note_on_c, 6, 76, 54
7, 9984, Note_on_c, 6, 71, 70
7, 9995, Note_off_c, 6, 71, 86
7, 9996, Note_off_c, 6, 76, 84
7, 10008, Note_on_c, 6, 74, 80
7, 10008, Note_on_c, 6, 69, 68
7, 10020, Note_off_c, 6, 69, 86
7, 10022, Note_off_c, 6, 74, 90
7, 10032, Note_on_c, 6, 74, 74
7, 10032, Note_on_c, 6, 69, 83
7, 10046, Note_off_c, 6, 74, 73
7, 10048, Note_off_c, 6, 69, 84
7, 10056, Note_on_c, 6, 69, 78
7, 10056, Note_on_c, 6, 74, 68
7, 10066, Note_off_c, 6, 74, 63
7, 10068, Note_off_c, 6, 69, 82
7, 10080, Note_on_c, 6, 74, 83
7, 10080, Note_on_c, 6, 69, 83
7, 10093, Note_off_c, 6, 69, 88
7, 10098, Note_off_c, 6, 74, 80
7, 10104, Note_on_c, 6, 69, 63
7, 10104, Note_on_c, 6, 74, 61
7, 10114, Note_off_c, 6, 74, 67
7, 10116, Note_off_c, 6, 69, 73
7, 10128, Note_on_c, 6, 69, 66
7, 10128, Note_on_c, 6, 74, 52
7, 10140, Note_off_c, 6, 69, 84
7, 10141, Note_off_c, 6, 74, 61
7, 10152, Note_on_c, 6, 74, 66
7, 10152, Note_on_c, 6, 69, 72
7, 10165, Note_off_c, 6, 69, 92
7, 10166, Note_off_c, 6, 74, 106
7, 10176, Note_on_c, 6, 78, 85
7, 10176, Note_on_c, 6, 74, 96
7, 10189, Note_off_c, 6, 74, 86
7, 10190, Note_off_c, 6, 78, 86
7, 10200, Note_on_c, 6, 74, 70
7, 10211, Note_off_c, 6, 74, 84
7, 10224, Note_on_c, 6, 74, 59
7, 10224, Note_on_c, 6, 78, 32
7, 10232, Note_off_c, 6, 78, 70
7, 10233, Note_off_c, 6, 74, 86
7, 10248, Note_on_c, 6, 74, 66
7, 10260, Note_off_c, 6, 74, 88
7, 10272, Note_on_c, 6, 74, 92
7, 10272, Note_on_c, 6, 78, 71
7, 10286, Note_off_c, 6, 74, 94
7, 10287, Note_off_c, 6, 78, 90
7, 10296, Note_on_c, 6, 74, 70
7, 10307, Note_off_c, 6, 74, 94
7, 10320, Note_on_c, 6, 74, 83
7, 10320, Note_on_c, 6, 78, 60
7, 10335, Note_off_c, 6, 78, 90
7, 10336, Note_off_c, 6, 74, 92
7, 10344, Note_on_c, 6, 74, 86
7, 10344, Note_on_c, 6, 78, 67
7, 10355, Note_off_c, 6, 78, 84
7, 10356, Note_off_c, 6, 74, 113
7, 10368, Note_on_c, 6, 78, 56
7, 10368, Note_on_c, 6, 74, 76
7, 10381, Note_off_c, 6, 78, 90
7, 10382, Note_off_c, 6, 74, 92
7, 10392, Note_on_c, 6, 69, 74
7, 10392, Note_on_c, 6, 74, 59
7, 10406, Note_off_c, 6, 69, 86
7, 10407, Note_off_c, 6, 74, 88
7, 10416, Note_on_c, 6, 69, 92
7, 10416, Note_on_c, 6, 74, 61
7, 10416, Note_on_c, 6, 76, 54
7, 10425, Note_off_c, 6, 76, 57
7, 10425, Note_off_c, 6, 74, 79
7, 10427, Note_off_c, 6, 69, 86
7, 10440, Note_on_c, 6, 69, 70
7, 10440, Note_on_c, 6, 74, 68
7, 10452, Note_off_c, 6, 74, 79
7, 10453, Note_off_c, 6, 69, 80
7, 10464, Note_on_c, 6, 74, 78
7, 10464, Note_on_c, 6, 69, 83
7, 10478, Note_off_c, 6, 69, 84
7, 10480, Note_off_c, 6, 74, 75
7, 10488, Note_on_c, 6, 69, 72
7, 10488, Note_on_c, 6, 74, 61
7, 10498, Note_off_c, 6, 74, 72
7, 10499, Note_off_c, 6, 69, 73
7, 10512, Note_on_c, 6, 69, 62
7, 10512, Note_on_c, 6, 74, 51
7, 10523, Note_off_c, 6, 74, 80
7, 10524, Note_off_c, 6, 69, 84
7, 10536, Note_on_c, 6, 74, 61
7, 10536, Note_on_c, 6, 69, 70
7, 10547, Note_off_c, 6, 74, 82
7, 10550, Note_off_c, 6, 69, 82
7, 10560, Note_on_c, 6, 76, 83
7, 10560, Note_on_c, 6, 71, 100
7, 10574, Note_off_c, 6, 71, 94
7, 10577, Note_off_c, 6, 76, 79
7, 10584, Note_on_c, 6, 71, 63
7, 10584, Note_on_c, 6, 76, 27
7, 10591, Note_off_c, 6, 76, 39
7, 10595, Note_off_c, 6, 71, 72
7, 10608, Note_on_c, 6, 71, 56
7, 10608, Note_on_c, 6, 76, 40
7, 10616, Note_off_c, 6, 71, 69
7, 10618, Note_off_c, 6, 76, 73
7, 10632, Note_on_c, 6, 71, 72
7, 10632, Note_on_c, 6, 76, 47
7, 10642, Note_off_c, 6, 76, 62
7, 10646, Note_off_c, 6, 71, 58
7, 10656, Note_on_c, 6, 76, 78
7, 10656, Note_on_c, 6, 71, 96
7, 10670, Note_off_c, 6, 71, 94
7, 10675, Note_off_c, 6, 76, 88
7, 10680, Note_on_c, 6, 71, 48
7, 10680, Note_on_c, 6, 76, 49
7, 10688, Note_off_c, 6, 71, 66
7, 10689, Note_off_c, 6, 76, 67
7, 10704, Note_on_c, 6, 76, 70
7, 10704, Note_on_c, 6, 71, 83
7, 10719, Note_off_c, 6, 71, 82
7, 10720, Note_off_c, 6, 76, 80
7, 10728, Note_on_c, 6, 71, 92
7, 10728, Note_on_c, 6, 76, 66
7, 10740, Note_off_c, 6, 71, 90
7, 10741, Note_off_c, 6, 76, 96
7, 10752, Note_on_c, 6, 76, 57
7, 10752, Note_on_c, 6, 71, 66
7, 10761, Note_off_c, 6, 71, 82
7, 10765, Note_off_c, 6, 76, 79
7, 10776, Note_on_c, 6, 69, 83
7, 10776, Note_on_c, 6, 74, 74
7, 10789, Note_off_c, 6, 74, 73
7, 10789, Note_off_c, 6, 69, 84
7, 10800, Note_on_c, 6, 74, 80
7, 10800, Note_on_c, 6, 69, 86
7, 10814, Note_off_c, 6, 69, 88
7, 10817, Note_off_c, 6, 74, 90
7, 10824, Note_on_c, 6, 74, 51
7, 10824, Note_on_c, 6, 69, 74
7, 10834, Note_off_c, 6, 74, 65
7, 10836, Note_off_c, 6, 69, 86
7, 10848, Note_on_c, 6, 74, 80
7, 10848, Note_on_c, 6, 69, 80
7, 10863, Note_off_c, 6, 69, 79
7, 10866, Note_off_c, 6, 74, 79
7, 10872, Note_on_c, 6, 74, 31
7, 10880, Note_off_c, 6, 74, 31
7, 10896, Note_on_c, 6, 74, 59
7, 10896, Note_on_c, 6, 69, 57
7, 10907, Note_off_c, 6, 69, 84
7, 10920, Note_on_c, 6, 69, 70
7, 10928, Note_off_c, 6, 74, 88
7, 10934, Note_off_c, 6, 69, 72
7, 10944, Note_on_c, 6, 78, 85
7, 10944, Note_on_c, 6, 74, 96
7, 10958, Note_off_c, 6, 74, 92
7, 10959, Note_off_c, 6, 78, 84
7, 10968, Note_on_c, 6, 74, 65
7, 10979, Note_off_c, 6, 74, 72
7, 10992, Note_on_c, 6, 78, 43
7, 10992, Note_on_c, 6, 74, 45
7, 10998, Note_off_c, 6, 74, 79
7, 11003, Note_off_c, 6, 78, 77
7, 11016, Note_on_c, 6, 78, 61
7, 11016, Note_on_c, 6, 74, 70
7, 11026, Note_off_c, 6, 74, 88
7, 11027, Note_off_c, 6, 78, 75
7, 11040, Note_on_c, 6, 78, 74
7, 11040, Note_on_c, 6, 74, 96
7, 11054, Note_off_c, 6, 74, 96
7, 11058, Note_off_c, 6, 78, 86
7, 11064, Note_on_c, 6, 78, 53
7, 11064, Note_on_c, 6, 74, 62
7, 11072, Note_off_c, 6, 74, 80
7, 11073, Note_off_c, 6, 78, 75
7, 11088, Note_on_c, 6, 78, 56
7, 11088, Note_on_c, 6, 74, 74
7, 11102, Note_off_c, 6, 78, 88
7, 11103, Note_off_c, 6, 74, 92
7, 11112, Note_on_c, 6, 78, 93
7, 11112, Note_on_c, 6, 74, 83
7, 11124, Note_off_c, 6, 74, 101
7, 11124, Note_off_c, 6, 78, 94
7, 11136, Note_on_c, 6, 78, 60
7, 11136, Note_on_c, 6, 74, 83
7, 11149, Note_off_c, 6, 74, 92
7, 11150, Note_off_c, 6, 78, 77
7, 11160, Note_on_c, 6, 69, 76
7, 11160, Note_on_c, 6, 74, 78
7, 11174, Note_off_c, 6, 69, 94
7, 11176, Note_off_c, 6, 74, 88
7, 11184, Note_on_c, 6, 69, 63
7, 11184, Note_on_c, 6, 74, 63
7, 11196, Note_off_c, 6, 69, 77
7, 11197, Note_off_c, 6, 74, 86
7, 11208, Note_on_c, 6, 69, 80
7, 11208, Note_on_c, 6, 74, 72
7, 11220, Note_off_c, 6, 69, 79
7, 11222, Note_off_c, 6, 74, 61
7, 11232, Note_on_c, 6, 69, 89
7, 11232, Note_on_c, 6, 74, 89
7, 11248, Note_off_c, 6, 74, 77
7, 11248, Note_off_c, 6, 69, 80
7, 11256, Note_on_c, 6, 69, 66
7, 11256, Note_on_c, 6, 74, 59
7, 11266, Note_off_c, 6, 69, 70
7, 11280, Note_on_c, 6, 69, 61
7, 11287, Note_off_c, 6, 74, 80
7, 11291, Note_off_c, 6, 69, 84
7, 11304, Note_on_c, 6, 74, 63
7, 11304, Note_on_c, 6, 69, 68
7, 11316, Note_off_c, 6, 74, 82
7, 11318, Note_off_c, 6, 69, 88
7, 11328, Note_on_c, 6, 76, 89
7, 11328, Note_on_c, 6, 71, 100
7, 11343, Note_off_c, 6, 71, 90
7, 11345, Note_off_c, 6, 76, 84
7, 11352, Note_on_c, 6, 76, 62
7, 11352, Note_on_c, 6, 71, 78
7, 11362, Note_off_c, 6, 76, 63
7, 11363, Note_off_c, 6, 71, 79
7, 11376, Note_on_c, 6, 76, 48
7, 11376, Note_on_c, 6, 71, 61
7, 11384, Note_off_c, 6, 71, 67
7, 11388, Note_off_c, 6, 76, 79
7, 11400, Note_on_c, 6, 76, 49
7, 11400, Note_on_c, 6, 71, 92
7, 11407, Note_off_c, 6, 76, 66
7, 11411, Note_off_c, 6, 71, 82
7, 11424, Note_on_c, 6, 76, 86
7, 11424, Note_on_c, 6, 71, 100
7, 11438, Note_off_c, 6, 71, 86
7, 11442, Note_off_c, 6, 76, 79
7, 11448, Note_on_c, 6, 76, 72
7, 11448, Note_on_c, 6, 71, 78
7, 11458, Note_off_c, 6, 71, 73
7, 11462, Note_off_c, 6, 76, 84
7, 11472, Note_on_c, 6, 76, 74
7, 11487, Note_off_c, 6, 76, 80
7, 14736, Note_on_c, 6, 78, 69
7, 14736, Note_on_c, 6, 74, 78
7, 14746, Note_off_c, 6, 78, 90
7, 14749, Note_off_c, 6, 74, 90
7, 14784, Note_on_c, 6, 78, 78
7, 14784, Note_on_c, 6, 74, 100
7, 14797, Note_off_c, 6, 74, 90
7, 14800, Note_off_c, 6, 78, 99
7, 14808, Note_on_c, 6, 78, 51
7, 14817, Note_off_c, 6, 78, 73
7, 14832, Note_on_c, 6, 78, 50
7, 14832, Note_on_c, 6, 74, 57
7, 14842, Note_off_c, 6, 74, 88
7, 14843, Note_off_c, 6, 78, 90
7, 14856, Note_on_c, 6, 74, 62
7, 14856, Note_on_c, 6, 78, 36
7, 14865, Note_off_c, 6, 78, 69
7, 14870, Note_off_c, 6, 74, 92
7, 14880, Note_on_c, 6, 78, 85
7, 14880, Note_on_c, 6, 74, 100
7, 14896, Note_off_c, 6, 74, 90
7, 14898, Note_off_c, 6, 78, 99
7, 14904, Note_on_c, 6, 74, 46
7, 14904, Note_on_c, 6, 78, 36
7, 14913, Note_off_c, 6, 78, 75
7, 14914, Note_off_c, 6, 74, 62
7, 14928, Note_on_c, 6, 78, 63
7, 14928, Note_on_c, 6, 74, 78
7, 14942, Note_off_c, 6, 74, 94
7, 14943, Note_off_c, 6, 78, 88
7, 14952, Note_on_c, 6, 74, 105
7, 14952, Note_on_c, 6, 78, 69
7, 14964, Note_off_c, 6, 74, 106
7, 14966, Note_off_c, 6, 78, 73
7, 14976, Note_on_c, 6, 74, 41
7, 14986, Note_off_c, 6, 74, 53
7, 15000, Note_on_c, 6, 74, 59
7, 15013, Note_off_c, 6, 74, 82
7, 15024, Note_on_c, 6, 69, 92
7, 15024, Note_on_c, 6, 74, 74
7, 15038, Note_off_c, 6, 74, 94
7, 15038, Note_off_c, 6, 69, 94
7, 15048, Note_on_c, 6, 74, 70
7, 15061, Note_off_c, 6, 74, 73
7, 15072, Note_on_c, 6, 69, 96
7, 15072, Note_on_c, 6, 74, 86
7, 15088, Note_off_c, 6, 69, 86
7, 15091, Note_off_c, 6, 74, 79
7, 15096, Note_on_c, 6, 69, 76
7, 15096, Note_on_c, 6, 74, 66
7, 15107, Note_off_c, 6, 74, 66
7, 15107, Note_off_c, 6, 69, 92
7, 15120, Note_on_c, 6, 69, 66
7, 15120, Note_on_c, 6, 74, 48
7, 15132, Note_off_c, 6, 74, 66
7, 15133, Note_off_c, 6, 69, 86
7, 15144, Note_on_c, 6, 69, 83
7, 15144, Note_on_c, 6, 74, 65
7, 15157, Note_off_c, 6, 74, 73
7, 15157, Note_off_c, 6, 69, 88
7, 15168, Note_on_c, 6, 71, 105
7, 15168, Note_on_c, 6, 76, 92
7, 15183, Note_off_c, 6, 71, 90
7, 15186, Note_off_c, 6, 76, 73
7, 15192, Note_on_c, 6, 71, 59
7, 15192, Note_on_c, 6, 76, 52
7, 15202, Note_off_c, 6, 76, 66
7, 15202, Note_off_c, 6, 71, 39
7, 15216, Note_on_c, 6, 71, 68
7, 15216, Note_on_c, 6, 76, 37
7, 15223, Note_off_c, 6, 76, 59
7, 15228, Note_off_c, 6, 71, 92
7, 15240, Note_on_c, 6, 71, 78
7, 15240, Note_on_c, 6, 76, 63
7, 15251, Note_off_c, 6, 71, 75
7, 15253, Note_off_c, 6, 76, 69
7, 15264, Note_on_c, 6, 71, 105
7, 15264, Note_on_c, 6, 76, 86
7, 15279, Note_off_c, 6, 71, 94
7, 15282, Note_off_c, 6, 76, 84
7, 15288, Note_on_c, 6, 71, 26
7, 15288, Note_on_c, 6, 76, 46
7, 15293, Note_off_c, 6, 71, 59
7, 15297, Note_off_c, 6, 76, 63
7, 15312, Note_on_c, 6, 71, 83
7, 15312, Note_on_c, 6, 76, 63
7, 15325, Note_off_c, 6, 71, 94
7, 15328, Note_off_c, 6, 76, 88
7, 15336, Note_on_c, 6, 71, 89
7, 15336, Note_on_c, 6, 76, 72
7, 15348, Note_off_c, 6, 76, 96
7, 15349, Note_off_c, 6, 71, 99
7, 15360, Note_on_c, 6, 76, 48
7, 15360, Note_on_c, 6, 71, 62
7, 15371, Note_off_c, 6, 76, 79
7, 15372, Note_off_c, 6, 71, 82
7, 15384, Note_on_c, 6, 69, 76
7, 15384, Note_on_c, 6, 74, 63
7, 15397, Note_off_c, 6, 69, 90
7, 15398, Note_off_c, 6, 74, 70
7, 15408, Note_on_c, 6, 74, 74
7, 15408, Note_on_c, 6, 69, 89
7, 15424, Note_off_c, 6, 69, 84
7, 15425, Note_off_c, 6, 74, 79
7, 15432, Note_on_c, 6, 69, 76
7, 15432, Note_on_c, 6, 74, 66
7, 15443, Note_off_c, 6, 69, 75
7, 15445, Note_off_c, 6, 74, 94
7, 15456, Note_on_c, 6, 74, 80
7, 15456, Note_on_c, 6, 69, 86
7, 15474, Note_off_c, 6, 69, 86
7, 15475, Note_off_c, 6, 74, 77
7, 15480, Note_on_c, 6, 69, 65
7, 15480, Note_on_c, 6, 74, 36
7, 15486, Note_off_c, 6, 74, 58
7, 15490, Note_off_c, 6, 69, 65
7, 15504, Note_on_c, 6, 69, 63
7, 15504, Note_on_c, 6, 74, 58
7, 15518, Note_off_c, 6, 74, 53
7, 15519, Note_off_c, 6, 69, 82
7, 15528, Note_on_c, 6, 69, 59
7, 15528, Note_on_c, 6, 74, 56
7, 15540, Note_off_c, 6, 74, 86
7, 15544, Note_off_c, 6, 69, 90
7, 15552, Note_on_c, 6, 74, 100
7, 15552, Note_on_c, 6, 78, 93
7, 15564, Note_off_c, 6, 78, 79
7, 15566, Note_off_c, 6, 74, 94
7, 15576, Note_on_c, 6, 74, 80
7, 15591, Note_off_c, 6, 74, 82
7, 15600, Note_on_c, 6, 74, 68
7, 15600, Note_on_c, 6, 78, 38
7, 15609, Note_off_c, 6, 78, 73
7, 15611, Note_off_c, 6, 74, 88
7, 15624, Note_on_c, 6, 74, 78
7, 15638, Note_off_c, 6, 74, 82
7, 15648, Note_on_c, 6, 74, 96
7, 15648, Note_on_c, 6, 78, 93
7, 15662, Note_off_c, 6, 74, 96
7, 15663, Note_off_c, 6, 78, 94
7, 15672, Note_on_c, 6, 74, 72
7, 15672, Note_on_c, 6, 78, 50
7, 15679, Note_off_c, 6, 78, 79
7, 15682, Note_off_c, 6, 74, 92
7, 15696, Note_on_c, 6, 74, 78
7, 15696, Note_on_c, 6, 78, 36
7, 15704, Note_off_c, 6, 78, 59
7, 15711, Note_off_c, 6, 74, 94
7, 15720, Note_on_c, 6, 74, 83
7, 15720, Note_on_c, 6, 78, 71
7, 15730, Note_off_c, 6, 78, 88
7, 15731, Note_off_c, 6, 74, 90
7, 15744, Note_on_c, 6, 78, 63
7, 15744, Note_on_c, 6, 74, 74
7, 15757, Note_off_c, 6, 78, 82
7, 15759, Note_off_c, 6, 74, 77
7, 15768, Note_on_c, 6, 74, 80
7, 15782, Note_off_c, 6, 74, 94
7, 15792, Note_on_c, 6, 69, 83
7, 15792, Note_on_c, 6, 74, 89
7, 15806, Note_off_c, 6, 74, 86
7, 15816, Note_on_c, 6, 69, 70
7, 15816, Note_on_c, 6, 74, 74
7, 15819, Note_off_c, 6, 69, 88
7, 15826, Note_off_c, 6, 69, 77
7, 15828, Note_off_c, 6, 74, 88
7, 15840, Note_on_c, 6, 69, 86
7, 15840, Note_on_c, 6, 74, 78
7, 15854, Note_off_c, 6, 69, 86
7, 15856, Note_off_c, 6, 74, 75
7, 15864, Note_on_c, 6, 69, 72
7, 15876, Note_off_c, 6, 69, 86
7, 15888, Note_on_c, 6, 74, 56
7, 15888, Note_on_c, 6, 69, 66
7, 15888, Note_on_c, 6, 74, 39
7, 15898, Note_off_c, 6, 74, 66
7, 15899, Note_off_c, 6, 74, 62
7, 15902, Note_off_c, 6, 69, 82
7, 15912, Note_on_c, 6, 74, 59
7, 15912, Note_on_c, 6, 69, 76
7, 15924, Note_off_c, 6, 69, 79
7, 15926, Note_off_c, 6, 74, 90
7, 15936, Note_on_c, 6, 71, 105
7, 15936, Note_on_c, 6, 76, 89
7, 15951, Note_off_c, 6, 76, 86
7, 15951, Note_off_c, 6, 71, 88
7, 15960, Note_on_c, 6, 76, 57
7, 15960, Note_on_c, 6, 71, 83
7, 15969, Note_off_c, 6, 76, 41
7, 15970, Note_off_c, 6, 71, 82
7, 15984, Note_on_c, 6, 71, 43
7, 15984, Note_on_c, 6, 76, 42
7, 15992, Note_off_c, 6, 76, 70
7, 15992, Note_off_c, 6, 71, 80
7, 16008, Note_on_c, 6, 76, 63
7, 16008, Note_on_c, 6, 71, 61
7, 16017, Note_off_c, 6, 71, 59
7, 16018, Note_off_c, 6, 76, 79
7, 16032, Note_on_c, 6, 76, 83
7, 16032, Note_on_c, 6, 71, 100
7, 16048, Note_off_c, 6, 71, 90
7, 16049, Note_off_c, 6, 76, 88
7, 16056, Note_on_c, 6, 76, 50
7, 16056, Note_on_c, 6, 71, 66
7, 16063, Note_off_c, 6, 76, 65
7, 16065, Note_off_c, 6, 71, 72
7, 16080, Note_on_c, 6, 76, 57
7, 16080, Note_on_c, 6, 71, 80
7, 16096, Note_off_c, 6, 71, 80
7, 16098, Note_off_c, 6, 76, 70
7, 16104, Note_on_c, 6, 76, 78
7, 16104, Note_on_c, 6, 71, 83
7, 16115, Note_off_c, 6, 76, 86
7, 16117, Note_off_c, 6, 71, 101
7, 16128, Note_on_c, 6, 76, 54
7, 16128, Note_on_c, 6, 71, 70
7, 16139, Note_off_c, 6, 71, 86
7, 16140, Note_off_c, 6, 76, 84
7, 16152, Note_on_c, 6, 74, 80
7, 16152, Note_on_c, 6, 69, 68
7, 16164, Note_off_c, 6, 69, 86
7, 16166, Note_off_c, 6, 74, 90
7, 16176, Note_on_c, 6, 74, 74
7, 16176, Note_on_c, 6, 69, 83
7, 16190, Note_off_c, 6, 74, 73
7, 16192, Note_off_c, 6, 69, 84
7, 16200, Note_on_c, 6, 69, 78
7, 16200, Note_on_c, 6, 74, 68
7, 16210, Note_off_c, 6, 74, 63
7, 16212, Note_off_c, 6, 69, 82
7, 16224, Note_on_c, 6, 74, 83
7, 16224, Note_on_c, 6, 69, 83
7, 16237, Note_off_c, 6, 69, 88
7, 16242, Note_off_c, 6, 74, 80
7, 16248, Note_on_c, 6, 69, 63
7, 16248, Note_on_c, 6, 74, 61
7, 16258, Note_off_c, 6, 74, 67
7, 16260, Note_off_c, 6, 69, 73
7, 16272, Note_on_c, 6, 69, 66
7, 16272, Note_on_c, 6, 74, 52
7, 16284, Note_off_c, 6, 69, 84
7, 16285, Note_off_c, 6, 74, 61
7, 16296, Note_on_c, 6, 74, 66
7, 16296, Note_on_c, 6, 69, 72
7, 16309, Note_off_c, 6, 69, 92
7, 16310, Note_off_c, 6, 74, 106
7, 16320, Note_on_c, 6, 78, 85
7, 16320, Note_on_c, 6, 74, 96
7, 16333, Note_off_c, 6, 74, 86
7, 16334, Note_off_c, 6, 78, 86
7, 16344, Note_on_c, 6, 74, 70
7, 16355, Note_off_c, 6, 74, 84
7, 16368, Note_on_c, 6, 74, 59
7, 16368, Note_on_c, 6, 78, 32
7, 16376, Note_off_c, 6, 78, 70
7, 16377, Note_off_c, 6, 74, 86
7, 16392, Note_on_c, 6, 74, 66
7, 16404, Note_off_c, 6, 74, 88
7, 16416, Note_on_c, 6, 74, 92
7, 16416, Note_on_c, 6, 78, 71
7, 16430, Note_off_c, 6, 74, 94
7, 16431, Note_off_c, 6, 78, 90
7, 16440, Note_on_c, 6, 74, 70
7, 16451, Note_off_c, 6, 74, 94
7, 16464, Note_on_c, 6, 74, 83
7, 16464, Note_on_c, 6, 78, 60
7, 16479, Note_off_c, 6, 78, 90
7, 16480, Note_off_c, 6, 74, 92
7, 16488, Note_on_c, 6, 74, 86
7, 16488, Note_on_c, 6, 78, 67
7, 16499, Note_off_c, 6, 78, 84
7, 16500, Note_off_c, 6, 74, 113
7, 16512, Note_on_c, 6, 78, 56
7, 16512, Note_on_c, 6, 74, 76
7, 16525, Note_off_c, 6, 78, 90
7, 16526, Note_off_c, 6, 74, 92
7, 16536, Note_on_c, 6, 69, 74
7, 16536, Note_on_c, 6, 74, 59
7, 16550, Note_off_c, 6, 69, 86
7, 16551, Note_off_c, 6, 74, 88
7, 16560, Note_on_c, 6, 69, 92
7, 16560, Note_on_c, 6, 74, 61
7, 16560, Note_on_c, 6, 76, 54
7, 16569, Note_off_c, 6, 76, 57
7, 16569, Note_off_c, 6, 74, 79
7, 16571, Note_off_c, 6, 69, 86
7, 16584, Note_on_c, 6, 69, 70
7, 16584, Note_on_c, 6, 74, 68
7, 16596, Note_off_c, 6, 74, 79
7, 16597, Note_off_c, 6, 69, 80
7, 16608, Note_on_c, 6, 74, 78
7, 16608, Note_on_c, 6, 69, 83
7, 16622, Note_off_c, 6, 69, 84
7, 16624, Note_off_c, 6, 74, 75
7, 16632, Note_on_c, 6, 69, 72
7, 16632, Note_on_c, 6, 74, 61
7, 16642, Note_off_c, 6, 74, 72
7, 16643, Note_off_c, 6, 69, 73
7, 16656, Note_on_c, 6, 69, 62
7, 16656, Note_on_c, 6, 74, 51
7, 16667, Note_off_c, 6, 74, 80
7, 16668, Note_off_c, 6, 69, 84
7, 16680, Note_on_c, 6, 74, 61
7, 16680, Note_on_c, 6, 69, 70
7, 16691, Note_off_c, 6, 74, 82
7, 16694, Note_off_c, 6, 69, 82
7, 16704, Note_on_c, 6, 76, 83
7, 16704, Note_on_c, 6, 71, 100
7, 16718, Note_off_c, 6, 71, 94
7, 16721, Note_off_c, 6, 76, 79
7, 16728, Note_on_c, 6, 71, 63
7, 16728, Note_on_c, 6, 76, 27
7, 16735, Note_off_c, 6, 76, 39
7, 16739, Note_off_c, 6, 71, 72
7, 16752, Note_on_c, 6, 71, 56
7, 16752, Note_on_c, 6, 76, 40
7, 16760, Note_off_c, 6, 71, 69
7, 16762, Note_off_c, 6, 76, 73
7, 16776, Note_on_c, 6, 71, 72
7, 16776, Note_on_c, 6, 76, 47
7, 16786, Note_off_c, 6, 76, 62
7, 16790, Note_off_c, 6, 71, 58
7, 16800, Note_on_c, 6, 76, 78
7, 16800, Note_on_c, 6, 71, 96
7, 16814, Note_off_c, 6, 71, 94
7, 16819, Note_off_c, 6, 76, 88
7, 16824, Note_on_c, 6, 71, 48
7, 16824, Note_on_c, 6, 76, 49
7, 16832, Note_off_c, 6, 71, 66
7, 16833, Note_off_c, 6, 76, 67
7, 16848, Note_on_c, 6, 76, 70
7, 16848, Note_on_c, 6, 71, 83
7, 16863, Note_off_c, 6, 71, 82
7, 16864, Note_off_c, 6, 76, 80
7, 16872, Note_on_c, 6, 71, 92
7, 16872, Note_on_c, 6, 76, 66
7, 16884, Note_off_c, 6, 71, 90
7, 16885, Note_off_c, 6, 76, 96
7, 16896, Note_on_c, 6, 76, 57
7, 16896, Note_on_c, 6, 71, 66
7, 16905, Note_off_c, 6, 71, 82
7, 16909, Note_off_c, 6, 76, 79
7, 16920, Note_on_c, 6, 69, 83
7, 16920, Note_on_c, 6, 74, 74
7, 16933, Note_off_c, 6, 74, 73
7, 16933, Note_off_c, 6, 69, 84
7, 16944, Note_on_c, 6, 74, 80
7, 16944, Note_on_c, 6, 69, 86
7, 16958, Note_off_c, 6, 69, 88
7, 16961, Note_off_c, 6, 74, 90
7, 16968, Note_on_c, 6, 74, 51
7, 16968, Note_on_c, 6, 69, 74
7, 16978, Note_off_c, 6, 74, 65
7, 16980, Note_off_c, 6, 69, 86
7, 16992, Note_on_c, 6, 74, 80
7, 16992, Note_on_c, 6, 69, 80
7, 17007, Note_off_c, 6, 69, 79
7, 17010, Note_off_c, 6, 74, 79
7, 17016, Note_on_c, 6, 74, 31
7, 17024, Note_off_c, 6, 74, 31
7, 17040, Note_on_c, 6, 74, 59
7, 17040, Note_on_c, 6, 69, 57
7, 17051, Note_off_c, 6, 69, 84
7, 17064, Note_on_c, 6, 69, 70
7, 17072, Note_off_c, 6, 74, 88
7, 17078, Note_off_c, 6, 69, 72
7, 17088, Note_on_c, 6, 78, 85
7, 17088, Note_on_c, 6, 74, 96
7, 17102, Note_off_c, 6, 74, 92
7, 17103, Note_off_c, 6, 78, 84
7, 17112, Note_on_c, 6, 74, 65
7, 17123, Note_off_c, 6, 74, 72
7, 17136, Note_on_c, 6, 78, 43
7, 17136, Note_on_c, 6, 74, 45
7, 17142, Note_off_c, 6, 74, 79
7, 17147, Note_off_c, 6, 78, 77
7, 17160, Note_on_c, 6, 78, 61
7, 17160, Note_on_c, 6, 74, 70
7, 17170, Note_off_c, 6, 74, 88
7, 17171, Note_off_c, 6, 78, 75
7, 17184, Note_on_c, 6, 78, 74
7, 17184, Note_on_c, 6, 74, 96
7, 17198, Note_off_c, 6, 74, 96
7, 17202, Note_off_c, 6, 78, 86
7, 17208, Note_on_c, 6, 78, 53
7, 17208, Note_on_c, 6, 74, 62
7, 17216, Note_off_c, 6, 74, 80
7, 17217, Note_off_c, 6, 78, 75
7, 17232, Note_on_c, 6, 78, 56
7, 17232, Note_on_c, 6, 74, 74
7, 17246, Note_off_c, 6, 78, 88
7, 17247, Note_off_c, 6, 74, 92
7, 17256, Note_on_c, 6, 78, 93
7, 17256, Note_on_c, 6, 74, 83
7, 17268, Note_off_c, 6, 74, 101
7, 17268, Note_off_c, 6, 78, 94
7, 17280, Note_on_c, 6, 78, 60
7, 17280, Note_on_c, 6, 74, 83
7, 17293, Note_off_c, 6, 74, 92
7, 17294, Note_off_c, 6, 78, 77
7, 17304, Note_on_c, 6, 69, 76
7, 17304, Note_on_c, 6, 74, 78
7, 17318, Note_off_c, 6, 69, 94
7, 17320, Note_off_c, 6, 74, 88
7, 17328, Note_on_c, 6, 69, 63
7, 17328, Note_on_c, 6, 74, 63
7, 17340, Note_off_c, 6, 69, 77
7, 17341, Note_off_c, 6, 74, 86
7, 17352, Note_on_c, 6, 69, 80
7, 17352, Note_on_c, 6, 74, 72
7, 17364, Note_off_c, 6, 69, 79
7, 17366, Note_off_c, 6, 74, 61
7, 17376, Note_on_c, 6, 69, 89
7, 17376, Note_on_c, 6, 74, 89
7, 17392, Note_off_c, 6, 74, 77
7, 17392, Note_off_c, 6, 69, 80
7, 17400, Note_on_c, 6, 69, 66
7, 17400, Note_on_c, 6, 74, 59
7, 17410, Note_off_c, 6, 69, 70
7, 17424, Note_on_c, 6, 69, 61
7, 17431, Note_off_c, 6, 74, 80
7, 17435, Note_off_c, 6, 69, 84
7, 17448, Note_on_c, 6, 74, 63
7, 17448, Note_on_c, 6, 69, 68
7, 17460, Note_off_c, 6, 74, 82
7, 17462, Note_off_c, 6, 69, 88
7, 17472, Note_on_c, 6, 76, 89
7, 17472, Note_on_c, 6, 71, 100
7, 17487, Note_off_c, 6, 71, 90
7, 17489, Note_off_c, 6, 76, 84
7, 17496, Note_on_c, 6, 76, 62
7, 17496, Note_on_c, 6, 71, 78
7, 17506, Note_off_c, 6, 76, 63
7, 17507, Note_off_c, 6, 71, 79
7, 17520, Note_on_c, 6, 76, 48
7, 17520, Note_on_c, 6, 71, 61
7, 17528, Note_off_c, 6, 71, 67
7, 17532, Note_off_c, 6, 76, 79
7, 17544, Note_on_c, 6, 76, 49
7, 17544, Note_on_c, 6, 71, 92
7, 17551, Note_off_c, 6, 76, 66
7, 17555, Note_off_c, 6, 71, 82
7, 17568, Note_on_c, 6, 76, 86
7, 17568, Note_on_c, 6, 71, 100
7, 17582, Note_off_c, 6, 71, 86
7, 17586, Note_off_c, 6, 76, 79
7, 17592, Note_on_c, 6, 76, 72
7, 17592, Note_on_c, 6, 71, 78
7, 17602, Note_off_c, 6, 71, 73
7, 17606, Note_off_c, 6, 76, 84
7, 17616, Note_on_c, 6, 76, 74
7, 17631, Note_off_c, 6, 76, 80
7, 17664, Note_on_c, 6, 62, 65
7, 17665, Note_off_c, 6, 62, 92
7, 17688, Note_on_c, 6, 62, 65
7, 17689, Note_off_c, 6, 62, 90
7, 17712, Note_on_c, 6, 62, 65
7, 17713, Note_off_c, 6, 62, 57
7, 17736, Note_on_c, 6, 62, 65
7, 17737, Note_off_c, 6, 62, 80
7, 17760, Note_on_c, 6, 62, 65
7, 17761, Note_off_c, 6, 62, 94
7, 17784, Note_on_c, 6, 62, 65
7, 17785, Note_off_c, 6, 62, 75
7, 17808, Note_on_c, 6, 62, 65
7, 17809, Note_off_c, 6, 62, 106
7, 17832, Note_on_c, 6, 62, 65
7, 17833, Note_off_c, 6, 62, 88
7, 17856, Note_on_c, 6, 62, 65
7, 17857, Note_off_c, 6, 62, 79
7, 17880, Note_on_c, 6, 62, 65
7, 17881, Note_off_c, 6, 62, 84
7, 17904, Note_on_c, 6, 62, 65
7, 17905, Note_off_c, 6, 62, 101
7, 17928, Note_on_c, 6, 62, 65
7, 17929, Note_off_c, 6, 62, 90
7, 17952, Note_on_c, 6, 62, 65
7, 17953, Note_off_c, 6, 62, 103
7, 17976, Note_on_c, 6, 62, 65
7, 17977, Note_off_c, 6, 62, 90
7, 18000, Note_on_c, 6, 62, 65
7, 18001, Note_off_c, 6, 62, 80
7, 18024, Note_on_c, 6, 62, 65
7, 18025, Note_off_c, 6, 62, 88
7, 18048, Note_on_c, 6, 62, 65
7, 18049, Note_off_c, 6, 62, 92
7, 18072, Note_on_c, 6, 62, 65
7, 18073, Note_off_c, 6, 62, 90
7, 18096, Note_on_c, 6, 62, 65
7, 18097, Note_off_c, 6, 62, 57
7, 18120, Note_on_c, 6, 62, 65
7, 18121, Note_off_c, 6, 62, 80
7, 18144, Note_on_c, 6, 62, 65
7, 18145, Note_off_c, 6, 62, 94
7, 18168, Note_on_c, 6, 62, 65
7, 18169, Note_off_c, 6, 62, 75
7, 18192, Note_on_c, 6, 62, 65
7, 18193, Note_off_c, 6, 62, 106
7, 18216, Note_on_c, 6, 62, 65
7, 18217, Note_off_c, 6, 62, 88
7, 18240, Note_on_c, 6, 62, 65
7, 18241, Note_off_c, 6, 62, 79
7, 18264, Note_on_c, 6, 62, 65
7, 18265, Note_off_c, 6, 62, 84
7, 18288, Note_on_c, 6, 62, 65
7, 18289, Note_off_c, 6, 62, 101
7, 18312, Note_on_c, 6, 62, 65
7, 18313, Note_off_c, 6, 62, 90
7, 18336, Note_on_c, 6, 62, 65
7, 18337, Note_off_c, 6, 62, 103
7, 18360, Note_on_c, 6, 62, 65
7, 18361, Note_off_c, 6, 62, 90
7, 18384, Note_on_c, 6, 62, 65
7, 18385, Note_off_c, 6, 62, 80
7, 18408, Note_on_c, 6, 62, 65
7, 18409, Note_off_c, 6, 62, 88
7, 18432, Note_on_c, 6, 62, 65
7, 18433, Note_off_c, 6, 62, 92
7, 18456, Note_on_c, 6, 62, 65
7, 18457, Note_off_c, 6, 62, 90
7, 18480, Note_on_c, 6, 62, 65
7, 18481, Note_off_c, 6, 62, 57
7, 18504, Note_on_c, 6, 62, 65
7, 18505, Note_off_c, 6, 62, 80
7, 18528, Note_on_c, 6, 62, 65
7, 18529, Note_off_c, 6, 62, 94
7, 18552, Note_on_c, 6, 62, 65
7, 18553, Note_off_c, 6, 62, 75
7, 18576, Note_on_c, 6, 62, 65
7, 18577, Note_off_c, 6, 62, 106
7, 18600, Note_on_c, 6, 62, 65
7, 18601, Note_off_c, 6, 62, 88
7, 18624, Note_on_c, 6, 62, 65
7, 18625, Note_off_c, 6, 62, 79
7, 18648, Note_on_c, 6, 62, 65
7, 18649, Note_off_c, 6, 62, 84
7, 18672, Note_on_c, 6, 62, 65
7, 18673, Note_off_c, 6, 62, 101
7, 18696, Note_on_c, 6, 62, 65
7, 18697, Note_off_c, 6, 62, 90
7, 18720, Note_on_c, 6, 62, 65
7, 18721, Note_off_c, 6, 62, 103
7, 18744, Note_on_c, 6, 62, 65
7, 18745, Note_off_c, 6, 62, 90
7, 18768, Note_on_c, 6, 62, 65
7, 18769, Note_off_c, 6, 62, 80
7, 18792, Note_on_c, 6, 62, 65
7, 18793, Note_off_c, 6, 62, 88
7, 18816, Note_on_c, 6, 62, 65
7, 18817, Note_off_c, 6, 62, 92
7, 18840, Note_on_c, 6, 62, 65
7, 18841, Note_off_c, 6, 62, 90
7, 18864, Note_on_c, 6, 62, 65
7, 18865, Note_off_c, 6, 62, 57
7, 18888, Note_on_c, 6, 62, 65
7, 18889, Note_off_c, 6, 62, 80
7, 18912, Note_on_c, 6, 62, 65
7, 18913, Note_off_c, 6, 62, 94
7, 18936, Note_on_c, 6, 62, 65
7, 18937, Note_off_c, 6, 62, 75
7, 18960, Note_on_c, 6, 62, 65
7, 18961, Note_off_c, 6, 62, 106
7, 18984, Note_on_c, 6, 62, 65
7, 18985, Note_off_c, 6, 62, 88
7, 19008, Note_on_c, 6, 62, 65
7, 19009, Note_off_c, 6, 62, 79
7, 19032, Note_on_c, 6, 62, 65
7, 19033, Note_off_c, 6, 62, 84
7, 19056, Note_on_c, 6, 62, 65
7, 19057, Note_off_c, 6, 62, 101
7, 19080, Note_on_c, 6, 62, 65
7, 19081, Note_off_c, 6, 62, 90
7, 19104, Note_on_c, 6, 62, 65
7, 19105, Note_off_c, 6, 62, 103
7, 19128, Note_on_c, 6, 62, 65
7, 19129, Note_off_c, 6, 62, 90
7, 19152, Note_on_c, 6, 62, 65
7, 19153, Note_off_c, 6, 62, 80
7, 19176, Note_on_c, 6, 62, 65
7, 19177, Note_off_c, 6, 62, 88
7, 19200, Note_on_c, 6, 62, 65
7, 19201, Note_off_c, 6, 62, 92
7, 19224, Note_on_c, 6, 62, 65
7, 19225, Note_off_c, 6, 62, 90
7, 19248, Note_on_c, 6, 62, 65
7, 19249, Note_off_c, 6, 62, 57
7, 19272, Note_on_c, 6, 62, 65
7, 19273, Note_off_c, 6, 62, 80
7, 19296, Note_on_c, 6, 62, 65
7, 19297, Note_off_c, 6, 62, 94
7, 19320, Note_on_c, 6, 62, 65
7, 19321, Note_off_c, 6, 62, 75
7, 19344, Note_on_c, 6, 62, 65
7, 19345, Note_off_c, 6, 62, 106
7, 19368, Note_on_c, 6, 62, 65
7, 19369, Note_off_c, 6, 62, 88
7, 19392, Note_on_c, 6, 62, 65
7, 19393, Note_off_c, 6, 62, 79
7, 19416, Note_on_c, 6, 62, 65
7, 19417, Note_off_c, 6, 62, 84
7, 19440, Note_on_c, 6, 62, 65
7, 19441, Note_off_c, 6, 62, 101
7, 19464, Note_on_c, 6, 62, 65
7, 19465, Note_off_c, 6, 62, 90
7, 19488, Note_on_c, 6, 62, 65
7, 19489, Note_off_c, 6, 62, 103
7, 19512, Note_on_c, 6, 62, 65
7, 19513, Note_off_c, 6, 62, 90
7, 19536, Note_on_c, 6, 62, 65
7, 19537, Note_off_c, 6, 62, 80
7, 19560, Note_on_c, 6, 62, 65
7, 19561, Note_off_c, 6, 62, 88
7, 19584, Note_on_c, 6, 62, 65
7, 19585, Note_off_c, 6, 62, 92
7, 19608, Note_on_c, 6, 62, 65
7, 19609, Note_off_c, 6, 62, 90
7, 19632, Note_on_c, 6, 62, 65
7, 19633, Note_off_c, 6, 62, 57
7, 19656, Note_on_c, 6, 62, 65
7, 19657, Note_off_c, 6, 62, 80
7, 19680, Note_on_c, 6, 62, 65
7, 19681, Note_off_c, 6, 62, 94
7, 19704, Note_on_c, 6, 62, 65
7, 19705, Note_off_c, 6, 62, 75
7, 19728, Note_on_c, 6, 62, 65
7, 19729, Note_off_c, 6, 62, 106
7, 19752, Note_on_c, 6, 62, 65
7, 19753, Note_off_c, 6, 62, 88
7, 19776, Note_on_c, 6, 62, 65
7, 19777, Note_off_c, 6, 62, 79
7, 19800, Note_on_c, 6, 62, 65
7, 19801, Note_off_c, 6, 62, 84
7, 19824, Note_on_c, 6, 62, 65
7, 19825, Note_off_c, 6, 62, 101
7, 19848, Note_on_c, 6, 62, 65
7, 19849, Note_off_c, 6, 62, 90
7, 19872, Note_on_c, 6, 62, 65
7, 19873, Note_off_c, 6, 62, 103
7, 19896, Note_on_c, 6, 62, 65
7, 19897, Note_off_c, 6, 62, 90
7, 19920, Note_on_c, 6, 62, 65
7, 19921, Note_off_c, 6, 62, 80
7, 19944, Note_on_c, 6, 62, 65
7, 19945, Note_off_c, 6, 62, 88
7, 19968, Note_on_c, 6, 62, 65
7, 19969, Note_off_c, 6, 62, 92
7, 19992, Note_on_c, 6, 62, 65
7, 19993, Note_off_c, 6, 62, 90
7, 20016, Note_on_c, 6, 62, 65
7, 20017, Note_off_c, 6, 62, 57
7, 20040, Note_on_c, 6, 62, 65
7, 20041, Note_off_c, 6, 62, 80
7, 20064, Note_on_c, 6, 62, 65
7, 20065, Note_off_c, 6, 62, 94
7, 20088, Note_on_c, 6, 62, 65
7, 20089, Note_off_c, 6, 62, 75
7, 20112, Note_on_c, 6, 62, 65
7, 20113, Note_off_c, 6, 62, 106
7, 20136, Note_on_c, 6, 62, 65
7, 20137, Note_off_c, 6, 62, 88
7, 20160, Note_on_c, 6, 62, 65
7, 20161, Note_off_c, 6, 62, 79
7, 20184, Note_on_c, 6, 62, 65
7, 20185, Note_off_c, 6, 62, 84
7, 20208, Note_on_c, 6, 62, 65
7, 20209, Note_off_c, 6, 62, 101
7, 20232, Note_on_c, 6, 62, 65
7, 20233, Note_off_c, 6, 62, 90
7, 20256, Note_on_c, 6, 62, 65
7, 20257, Note_off_c, 6, 62, 103
7, 20280, Note_on_c, 6, 62, 65
7, 20281, Note_off_c, 6, 62, 90
7, 20304, Note_on_c, 6, 62, 65
7, 20305, Note_off_c, 6, 62, 80
7, 20328, Note_on_c, 6, 62, 65
7, 20329, Note_off_c, 6, 62, 88
7, 20352, Note_on_c, 6, 62, 65
7, 20353, Note_off_c, 6, 62, 92
7, 20376, Note_on_c, 6, 62, 65
7, 20377, Note_off_c, 6, 62, 90
7, 20400, Note_on_c, 6, 62, 65
7, 20401, Note_off_c, 6, 62, 57
7, 20424, Note_on_c, 6, 62, 65
7, 20425, Note_off_c, 6, 62, 80
7, 20448, Note_on_c, 6, 62, 65
7, 20449, Note_off_c, 6, 62, 94
7, 20472, Note_on_c, 6, 62, 65
7, 20473, Note_off_c, 6, 62, 75
7, 20496, Note_on_c, 6, 62, 65
7, 20497, Note_off_c, 6, 62, 106
7, 20520, Note_on_c, 6, 62, 65
7, 20521, Note_off_c, 6, 62, 88
7, 20544, Note_on_c, 6, 62, 65
7, 20545, Note_off_c, 6, 62, 79
7, 20568, Note_on_c, 6, 62, 65
7, 20569, Note_off_c, 6, 62, 84
7, 20592, Note_on_c, 6, 62, 65
7, 20593, Note_off_c, 6, 62, 101
7, 20616, Note_on_c, 6, 62, 65
7, 20617, Note_off_c, 6, 62, 90
7, 20640, Note_on_c, 6, 62, 65
7, 20641, Note_off_c, 6, 62, 103
7, 20664, Note_on_c, 6, 62, 65
7, 20665, Note_off_c, 6, 62, 90
7, 20688, Note_on_c, 6, 62, 65
7, 20689, Note_off_c, 6, 62, 80
7, 20712, Note_on_c, 6, 62, 65
7, 20713, Note_off_c, 6, 62, 88
7, 23808, Note_on_c, 6, 62, 75
7, 23809, Note_off_c, 6, 62, 75
7, 23832, Note_on_c, 6, 62, 75
7, 23833, Note_off_c, 6, 62, 62
7, 23880, Note_on_c, 6, 62, 75
7, 23881, Note_off_c, 6, 62, 36
7, 23904, Note_on_c, 6, 62, 75
7, 23905, Note_off_c, 6, 62, 120
7, 23928, Note_on_c, 6, 62, 75
7, 23929, Note_off_c, 6, 62, 42
7, 23952, Note_on_c, 6, 62, 75
7, 23953, Note_off_c, 6, 62, 113
7, 23976, Note_on_c, 6, 62, 75
7, 23977, Note_off_c, 6, 62, 88
7, 24000, Note_on_c, 6, 62, 75
7, 24001, Note_off_c, 6, 62, 127
7, 24024, Note_on_c, 6, 62, 75
7, 24025, Note_off_c, 6, 62, 79
7, 24048, Note_on_c, 6, 62, 75
7, 24049, Note_off_c, 6, 62, 86
7, 24072, Note_on_c, 6, 62, 75
7, 24073, Note_off_c, 6, 62, 55
7, 24096, Note_on_c, 6, 62, 75
7, 24097, Note_off_c, 6, 62, 36
7, 24120, Note_on_c, 6, 62, 75
7, 24121, Note_off_c, 6, 62, 26
7, 24144, Note_on_c, 6, 62, 75
7, 24145, Note_off_c, 6, 62, 19
7, 24168, Note_on_c, 6, 62, 75
7, 24169, Note_off_c, 6, 62, 77
7, 24192, Note_on_c, 6, 62, 75
7, 24193, Note_off_c, 6, 62, 75
7, 24216, Note_on_c, 6, 62, 75
7, 24217, Note_off_c, 6, 62, 62
7, 24264, Note_on_c, 6, 62, 75
7, 24265, Note_off_c, 6, 62, 36
7, 24288, Note_on_c, 6, 62, 75
7, 24289, Note_off_c, 6, 62, 120
7, 24312, Note_on_c, 6, 62, 75
7, 24313, Note_off_c, 6, 62, 42
7, 24336, Note_on_c, 6, 62, 75
7, 24337, Note_off_c, 6, 62, 113
7, 24360, Note_on_c, 6, 62, 75
7, 24361, Note_off_c, 6, 62, 88
7, 24384, Note_on_c, 6, 62, 75
7, 24385, Note_off_c, 6, 62, 127
7, 24408, Note_on_c, 6, 62, 75
7, 24409, Note_off_c, 6, 62, 79
7, 24432, Note_on_c, 6, 62, 75
7, 24433, Note_off_c, 6, 62, 86
7, 24456, Note_on_c, 6, 62, 75
7, 24457, Note_off_c, 6, 62, 55
7, 24480, Note_on_c, 6, 62, 75
7, 24481, Note_off_c, 6, 62, 36
7, 24504, Note_on_c, 6, 62, 75
7, 24505, Note_off_c, 6, 62, 26
7, 24528, Note_on_c, 6, 62, 75
7, 24529, Note_off_c, 6, 62, 19
7, 24552, Note_on_c, 6, 62, 75
7, 24553, Note_off_c, 6, 62, 77
7, 24576, Note_on_c, 6, 62, 75
7, 24577, Note_off_c, 6, 62, 75
7, 24600, Note_on_c, 6, 62, 75
7, 24601, Note_off_c, 6, 62, 62
7, 24648, Note_on_c, 6, 62, 75
7, 24649, Note_off_c, 6, 62, 36
7, 24672, Note_on_c, 6, 62, 75
7, 24673, Note_off_c, 6, 62, 120
7, 24696, Note_on_c, 6, 62, 75
7, 24697, Note_off_c, 6, 62, 42
7, 24720, Note_on_c, 6, 62, 75
7, 24721, Note_off_c, 6, 62, 113
7, 24744, Note_on_c, 6, 62, 75
7, 24745, Note_off_c, 6, 62, 88
7, 24768, Note_on_c, 6, 62, 75
7, 24769, Note_off_c, 6, 62, 127
7, 24792, Note_on_c, 6, 62, 75
7, 24793, Note_off_c, 6, 62, 79
7, 24816, Note_on_c, 6, 62, 75
7, 24817, Note_off_c, 6, 62, 86
7, 24840, Note_on_c, 6, 62, 75
7, 24841, Note_off_c, 6, 62, 55
7, 24864, Note_on_c, 6, 62, 75
7, 24865, Note_off_c, 6, 62, 36
7, 24888, Note_on_c, 6, 62, 75
7, 24889, Note_off_c, 6, 62, 26
7, 24912, Note_on_c, 6, 62, 75
7, 24913, Note_off_c, 6, 62, 19
7, 24936, Note_on_c, 6, 62, 75
7, 24937, Note_off_c, 6, 62, 77
7, 24960, Note_on_c, 6, 62, 75
7, 24961, Note_off_c, 6, 62, 75
7, 24984, Note_on_c, 6, 62, 75
7, 24985, Note_off_c, 6, 62, 62
7, 25032, Note_on_c, 6, 62, 75
7, 25033, Note_off_c, 6, 62, 36
7, 25056, Note_on_c, 6, 62, 75
7, 25057, Note_off_c, 6, 62, 120
7, 25080, Note_on_c, 6, 62, 75
7, 25081, Note_off_c, 6, 62, 42
7, 25104, Note_on_c, 6, 62, 75
7, 25105, Note_off_c, 6, 62, 113
7, 25128, Note_on_c, 6, 62, 75
7, 25129, Note_off_c, 6, 62, 88
7, 25152, Note_on_c, 6, 62, 75
7, 25153, Note_off_c, 6, 62, 127
7, 25176, Note_on_c, 6, 62, 75
7, 25177, Note_off_c, 6, 62, 79
7, 25200, Note_on_c, 6, 62, 75
7, 25201, Note_off_c, 6, 62, 86
7, 25224, Note_on_c, 6, 62, 75
7, 25225, Note_off_c, 6, 62, 55
7, 25248, Note_on_c, 6, 62, 75
7, 25249, Note_off_c, 6, 62, 36
7, 25272, Note_on_c, 6, 62, 75
7, 25273, Note_off_c, 6, 62, 26
7, 25296, Note_on_c, 6, 62, 75
7, 25297, Note_off_c, 6, 62, 19
7, 25320, Note_on_c, 6, 62, 75
7, 25321, Note_off_c, 6, 62, 77
7, 25344, Note_on_c, 6, 62, 75
7, 25345, Note_off_c, 6, 62, 75
7, 25368, Note_on_c, 6, 62, 75
7, 25369, Note_off_c, 6, 62, 62
7, 25416, Note_on_c, 6, 62, 75
7, 25417, Note_off_c, 6, 62, 36
7, 25440, Note_on_c, 6, 62, 75
7, 25441, Note_off_c, 6, 62, 120
7, 25464, Note_on_c, 6, 62, 75
7, 25465, Note_off_c, 6, 62, 42
7, 25488, Note_on_c, 6, 62, 75
7, 25489, Note_off_c, 6, 62, 113
7, 25512, Note_on_c, 6, 62, 75
7, 25513, Note_off_c, 6, 62, 88
7, 25536, Note_on_c, 6, 62, 75
7, 25537, Note_off_c, 6, 62, 127
7, 25560, Note_on_c, 6, 62, 75
7, 25561, Note_off_c, 6, 62, 79
7, 25584, Note_on_c, 6, 62, 75
7, 25585, Note_off_c, 6, 62, 86
7, 25608, Note_on_c, 6, 62, 75
7, 25609, Note_off_c, 6, 62, 55
7, 25632, Note_on_c, 6, 62, 75
7, 25633, Note_off_c, 6, 62, 36
7, 25656, Note_on_c, 6, 62, 75
7, 25657, Note_off_c, 6, 62, 26
7, 25680, Note_on_c, 6, 62, 75
7, 25681, Note_off_c, 6, 62, 19
7, 25704, Note_on_c, 6, 62, 75
7, 25705, Note_off_c, 6, 62, 77
7, 25728, Note_on_c, 6, 62, 75
7, 25729, Note_off_c, 6, 62, 75
7, 25752, Note_on_c, 6, 62, 75
7, 25753, Note_off_c, 6, 62, 62
7, 25800, Note_on_c, 6, 62, 75
7, 25801, Note_off_c, 6, 62, 36
7, 25824, Note_on_c, 6, 62, 75
7, 25825, Note_off_c, 6, 62, 120
7, 25848, Note_on_c, 6, 62, 75
7, 25849, Note_off_c, 6, 62, 42
7, 25872, Note_on_c, 6, 62, 75
7, 25873, Note_off_c, 6, 62, 113
7, 25896, Note_on_c, 6, 62, 75
7, 25897, Note_off_c, 6, 62, 88
7, 25920, Note_on_c, 6, 62, 75
7, 25921, Note_off_c, 6, 62, 127
7, 25944, Note_on_c, 6, 62, 75
7, 25945, Note_off_c, 6, 62, 79
7, 25968, Note_on_c, 6, 62, 75
7, 25969, Note_off_c, 6, 62, 86
7, 25992, Note_on_c, 6, 62, 75
7, 25993, Note_off_c, 6, 62, 55
7, 26016, Note_on_c, 6, 62, 75
7, 26017, Note_off_c, 6, 62, 36
7, 26040, Note_on_c, 6, 62, 75
7, 26041, Note_off_c, 6, 62, 26
7, 26064, Note_on_c, 6, 62, 75
7, 26065, Note_off_c, 6, 62, 19
7, 26088, Note_on_c, 6, 62, 75
7, 26089, Note_off_c, 6, 62, 77
7, 26112, Note_on_c, 6, 62, 75
7, 26113, Note_off_c, 6, 62, 75
7, 26136, Note_on_c, 6, 62, 75
7, 26137, Note_off_c, 6, 62, 62
7, 26184, Note_on_c, 6, 62, 75
7, 26185, Note_off_c, 6, 62, 36
7, 26208, Note_on_c, 6, 62, 75
7, 26209, Note_off_c, 6, 62, 120
7, 26232, Note_on_c, 6, 62, 75
7, 26233, Note_off_c, 6, 62, 42
7, 26256, Note_on_c, 6, 62, 75
7, 26257, Note_off_c, 6, 62, 113
7, 26280, Note_on_c, 6, 62, 75
7, 26281, Note_off_c, 6, 62, 88
7, 26304, Note_on_c, 6, 62, 75
7, 26305, Note_off_c, 6, 62, 127
7, 26328, Note_on_c, 6, 62, 75
7, 26329, Note_off_c, 6, 62, 79
7, 26352, Note_on_c, 6, 62, 75
7, 26353, Note_off_c, 6, 62, 86
7, 26376, Note_on_c, 6, 62, 75
7, 26377, Note_off_c, 6, 62, 55
7, 26400, Note_on_c, 6, 62, 75
7, 26401, Note_off_c, 6, 62, 36
7, 26424, Note_on_c, 6, 62, 75
7, 26425, Note_off_c, 6, 62, 26
7, 26448, Note_on_c, 6, 62, 75
7, 26449, Note_off_c, 6, 62, 19
7, 26472, Note_on_c, 6, 62, 75
7, 26473, Note_off_c, 6, 62, 77
7, 26496, Note_on_c, 6, 62, 75
7, 26497, Note_off_c, 6, 62, 75
7, 26520, Note_on_c, 6, 62, 75
7, 26521, Note_off_c, 6, 62, 62
7, 26568, Note_on_c, 6, 62, 75
7, 26569, Note_off_c, 6, 62, 36
7, 26592, Note_on_c, 6, 62, 75
7, 26593, Note_off_c, 6, 62, 120
7, 26616, Note_on_c, 6, 62, 75
7, 26617, Note_off_c, 6, 62, 42
7, 26640, Note_on_c, 6, 62, 75
7, 26641, Note_off_c, 6, 62, 113
7, 26664, Note_on_c, 6, 62, 75
7, 26665, Note_off_c, 6, 62, 88
7, 26688, Note_on_c, 6, 62, 75
7, 26689, Note_off_c, 6, 62, 127
7, 26712, Note_on_c, 6, 62, 75
7, 26713, Note_off_c, 6, 62, 79
7, 26736, Note_on_c, 6, 62, 75
7, 26737, Note_off_c, 6, 62, 86
7, 26760, Note_on_c, 6, 62, 75
7, 26761, Note_off_c, 6, 62, 55
7, 26784, Note_on_c, 6, 62, 75
7, 26785, Note_off_c, 6, 62, 36
7, 26808, Note_on_c, 6, 62, 75
7, 26809, Note_off_c, 6, 62, 26
7, 26832, Note_on_c, 6, 62, 75
7, 26833, Note_off_c, 6, 62, 19
7, 26856, Note_on_c, 6, 62, 75
7, 26857, Note_off_c, 6, 62, 77
7, 27024, Note_on_c, 6, 78, 69
7, 27024, Note_on_c, 6, 74, 78
7, 27034, Note_off_c, 6, 78, 90
7, 27037, Note_off_c, 6, 74, 90
7, 27072, Note_on_c, 6, 78, 78
7, 27072, Note_on_c, 6, 74, 100
7, 27085, Note_off_c, 6, 74, 90
7, 27088, Note_off_c, 6, 78, 99
7, 27096, Note_on_c, 6, 78, 51
7, 27105, Note_off_c, 6, 78, 73
7, 27120, Note_on_c, 6, 78, 50
7, 27120, Note_on_c, 6, 74, 57
7, 27130, Note_off_c, 6, 74, 88
7, 27131, Note_off_c, 6, 78, 90
7, 27144, Note_on_c, 6, 74, 62
7, 27144, Note_on_c, 6, 78, 36
7, 27153, Note_off_c, 6, 78, 69
7, 27158, Note_off_c, 6, 74, 92
7, 27168, Note_on_c, 6, 78, 85
7, 27168, Note_on_c, 6, 74, 100
7, 27184, Note_off_c, 6, 74, 90
7, 27186, Note_off_c, 6, 78, 99
7, 27192, Note_on_c, 6, 74, 46
7, 27192, Note_on_c, 6, 78, 36
7, 27201, Note_off_c, 6, 78, 75
7, 27202, Note_off_c, 6, 74, 62
7, 27216, Note_on_c, 6, 78, 63
7, 27216, Note_on_c, 6, 74, 78
7, 27230, Note_off_c, 6, 74, 94
7, 27231, Note_off_c, 6, 78, 88
7, 27240, Note_on_c, 6, 74, 105
7, 27240, Note_on_c, 6, 78, 69
7, 27252, Note_off_c, 6, 74, 106
7, 27254, Note_off_c, 6, 78, 73
7, 27264, Note_on_c, 6, 74, 41
7, 27274, Note_off_c, 6, 74, 53
7, 27288, Note_on_c, 6, 74, 59
7, 27301, Note_off_c, 6, 74, 82
7, 27312, Note_on_c, 6, 69, 92
7, 27312, Note_on_c, 6, 74, 74
7, 27326, Note_off_c, 6, 74, 94
7, 27326, Note_off_c, 6, 69, 94
7, 27336, Note_on_c, 6, 74, 70
7, 27349, Note_off_c, 6, 74, 73
7, 27360, Note_on_c, 6, 69, 96
7, 27360, Note_on_c, 6, 74, 86
7, 27376, Note_off_c, 6, 69, 86
7, 27379, Note_off_c, 6, 74, 79
7, 27384, Note_on_c, 6, 69, 76
7, 27384, Note_on_c, 6, 74, 66
7, 27395, Note_off_c, 6, 74, 66
7, 27395, Note_off_c, 6, 69, 92
7, 27408, Note_on_c, 6, 69, 66
7, 27408, Note_on_c, 6, 74, 48
7, 27420, Note_off_c, 6, 74, 66
7, 27421, Note_off_c, 6, 69, 86
7, 27432, Note_on_c, 6, 69, 83
7, 27432, Note_on_c, 6, 74, 65
7, 27445, Note_off_c, 6, 74, 73
7, 27445, Note_off_c, 6, 69, 88
7, 27456, Note_on_c, 6, 71, 105
7, 27456, Note_on_c, 6, 76, 92
7, 27471, Note_off_c, 6, 71, 90
7, 27474, Note_off_c, 6, 76, 73
7, 27480, Note_on_c, 6, 71, 59
7, 27480, Note_on_c, 6, 76, 52
7, 27490, Note_off_c, 6, 76, 66
7, 27490, Note_off_c, 6, 71, 39
7, 27504, Note_on_c, 6, 71, 68
7, 27504, Note_on_c, 6, 76, 37
7, 27511, Note_off_c, 6, 76, 59
7, 27516, Note_off_c, 6, 71, 92
7, 27528, Note_on_c, 6, 71, 78
7, 27528, Note_on_c, 6, 76, 63
7, 27539, Note_off_c, 6, 71, 75
7, 27541, Note_off_c, 6, 76, 69
7, 27552, Note_on_c, 6, 71, 105
7, 27552, Note_on_c, 6, 76, 86
7, 27567, Note_off_c, 6, 71, 94
7, 27570, Note_off_c, 6, 76, 84
7, 27576, Note_on_c, 6, 71, 26
7, 27576, Note_on_c, 6, 76, 46
7, 27581, Note_off_c, 6, 71, 59
7, 27585, Note_off_c, 6, 76, 63
7, 27600, Note_on_c, 6, 71, 83
7, 27600, Note_on_c, 6, 76, 63
7, 27613, Note_off_c, 6, 71, 94
7, 27616, Note_off_c, 6, 76, 88
7, 27624, Note_on_c, 6, 71, 89
7, 27624, Note_on_c, 6, 76, 72
7, 27636, Note_off_c, 6, 76, 96
7, 27637, Note_off_c, 6, 71, 99
7, 27648, Note_on_c, 6, 76, 48
7, 27648, Note_on_c, 6, 71, 62
7, 27659, Note_off_c, 6, 76, 79
7, 27660, Note_off_c, 6, 71, 82
7, 27672, Note_on_c, 6, 69, 76
7, 27672, Note_on_c, 6, 74, 63
7, 27685, Note_off_c, 6, 69, 90
7, 27686, Note_off_c, 6, 74, 70
7, 27696, Note_on_c, 6, 74, 74
7, 27696, Note_on_c, 6, 69, 89
7, 27712, Note_off_c, 6, 69, 84
7, 27713, Note_off_c, 6, 74, 79
7, 27720, Note_on_c, 6, 69, 76
7, 27720, Note_on_c, 6, 74, 66
7, 27731, Note_off_c, 6, 69, 75
7, 27733, Note_off_c, 6, 74, 94
7, 27744, Note_on_c, 6, 74, 80
7, 27744, Note_on_c, 6, 69, 86
7, 27762, Note_off_c, 6, 69, 86
7, 27763, Note_off_c, 6, 74, 77
7, 27768, Note_on_c, 6, 69, 65
7, 27768, Note_on_c, 6, 74, 36
7, 27774, Note_off_c, 6, 74, 58
7, 27778, Note_off_c, 6, 69, 65
7, 27792, Note_on_c, 6, 69, 63
7, 27792, Note_on_c, 6, 74, 58
7, 27806, Note_off_c, 6, 74, 53
7, 27807, Note_off_c, 6, 69, 82
7, 27816, Note_on_c, 6, 69, 59
7, 27816, Note_on_c, 6, 74, 56
7, 27828, Note_off_c, 6, 74, 86
7, 27832, Note_off_c, 6, 69, 90
7, 27840, Note_on_c, 6, 74, 100
7, 27840, Note_on_c, 6, 78, 93
7, 27852, Note_off_c, 6, 78, 79
7, 27854, Note_off_c, 6, 74, 94
7, 27864, Note_on_c, 6, 74, 80
7, 27879, Note_off_c, 6, 74, 82
7, 27888, Note_on_c, 6, 74, 68
7, 27888, Note_on_c, 6, 78, 38
7, 27897, Note_off_c, 6, 78, 73
7, 27899, Note_off_c, 6, 74, 88
7, 27912, Note_on_c, 6, 74, 78
7, 27926, Note_off_c, 6, 74, 82
7, 27936, Note_on_c, 6, 74, 96
7, 27936, Note_on_c, 6, 78, 93
7, 27950, Note_off_c, 6, 74, 96
7, 27951, Note_off_c, 6, 78, 94
7, 27960, Note_on_c, 6, 74, 72
7, 27960, Note_on_c, 6, 78, 50
7, 27967, Note_off_c, 6, 78, 79
7, 27970, Note_off_c, 6, 74, 92
7, 27984, Note_on_c, 6, 74, 78
7, 27984, Note_on_c, 6, 78, 36
7, 27992, Note_off_c, 6, 78, 59
7, 27999, Note_off_c, 6, 74, 94
7, 28008, Note_on_c, 6, 74, 83
7, 28008, Note_on_c, 6, 78, 71
7, 28018, Note_off_c, 6, 78, 88
7, 28019, Note_off_c, 6, 74, 90
7, 28032, Note_on_c, 6, 78, 63
7, 28032, Note_on_c, 6, 74, 74
7, 28045, Note_off_c, 6, 78, 82
7, 28047, Note_off_c, 6, 74, 77
7, 28056, Note_on_c, 6, 74, 80
7, 28070, Note_off_c, 6, 74, 94
7, 28080, Note_on_c, 6, 69, 83
7, 28080, Note_on_c, 6, 74, 89
7, 28094, Note_off_c, 6, 74, 86
7, 28104, Note_on_c, 6, 69, 70
7, 28104, Note_on_c, 6, 74, 74
7, 28107, Note_off_c, 6, 69, 88
7, 28114, Note_off_c, 6, 69, 77
7, 28116, Note_off_c, 6, 74, 88
7, 28128, Note_on_c, 6, 69, 86
7, 28128, Note_on_c, 6, 74, 78
7, 28142, Note_off_c, 6, 69, 86
7, 28144, Note_off_c, 6, 74, 75
7, 28152, Note_on_c, 6, 69, 72
7, 28164, Note_off_c, 6, 69, 86
7, 28176, Note_on_c, 6, 74, 56
7, 28176, Note_on_c, 6, 69, 66
7, 28176, Note_on_c, 6, 74, 39
7, 28186, Note_off_c, 6, 74, 66
7, 28187, Note_off_c, 6, 74, 62
7, 28190, Note_off_c, 6, 69, 82
7, 28200, Note_on_c, 6, 74, 59
7, 28200, Note_on_c, 6, 69, 76
7, 28212, Note_off_c, 6, 69, 79
7, 28214, Note_off_c, 6, 74, 90
7, 28224, Note_on_c, 6, 71, 105
7, 28224, Note_on_c, 6, 76, 89
7, 28239, Note_off_c, 6, 76, 86
7, 28239, Note_off_c, 6, 71, 88
7, 28248, Note_on_c, 6, 76, 57
7, 28248, Note_on_c, 6, 71, 83
7, 28257, Note_off_c, 6, 76, 41
7, 28258, Note_off_c, 6, 71, 82
7, 28272, Note_on_c, 6, 71, 43
7, 28272, Note_on_c, 6, 76, 42
7, 28280, Note_off_c, 6, 76, 70
7, 28280, Note_off_c, 6, 71, 80
7, 28296, Note_on_c, 6, 76, 63
7, 28296, Note_on_c, 6, 71, 61
7, 28305, Note_off_c, 6, 71, 59
7, 28306, Note_off_c, 6, 76, 79
7, 28320, Note_on_c, 6, 76, 83
7, 28320, Note_on_c, 6, 71, 100
7, 28336, Note_off_c, 6, 71, 90
7, 28337, Note_off_c, 6, 76, 88
7, 28344, Note_on_c, 6, 76, 50
7, 28344, Note_on_c, 6, 71, 66
7, 28351, Note_off_c, 6, 76, 65
7, 28353, Note_off_c, 6, 71, 72
7, 28368, Note_on_c, 6, 76, 57
7, 28368, Note_on_c, 6, 71, 80
7, 28384, Note_off_c, 6, 71, 80
7, 28386, Note_off_c, 6, 76, 70
7, 28392, Note_on_c, 6, 76, 78
7, 28392, Note_on_c, 6, 71, 83
7, 28403, Note_off_c, 6, 76, 86
7, 28405, Note_off_c, 6, 71, 101
7, 28416, Note_on_c, 6, 76, 54
7, 28416, Note_on_c, 6, 71, 70
7, 28427, Note_off_c, 6, 71, 86
7, 28428, Note_off_c, 6, 76, 84
7, 28440, Note_on_c, 6, 74, 80
7, 28440, Note_on_c, 6, 69, 68
7, 28452, Note_off_c, 6, 69, 86
7, 28454, Note_off_c, 6, 74, 90
7, 28464, Note_on_c, 6, 74, 74
7, 28464, Note_on_c, 6, 69, 83
7, 28478, Note_off_c, 6, 74, 73
7, 28480, Note_off_c, 6, 69, 84
7, 28488, Note_on_c, 6, 69, 78
7, 28488, Note_on_c, 6, 74, 68
7, 28498, Note_off_c, 6, 74, 63
7, 28500, Note_off_c, 6, 69, 82
7, 28512, Note_on_c, 6, 74, 83
7, 28512, Note_on_c, 6, 69, 83
7, 28525, Note_off_c, 6, 69, 88
7, 28530, Note_off_c, 6, 74, 80
7, 28536, Note_on_c, 6, 69, 63
7, 28536, Note_on_c, 6, 74, 61
7, 28546, Note_off_c, 6, 74, 67
7, 28548, Note_off_c, 6, 69, 73
7, 28560, Note_on_c, 6, 69, 66
7, 28560, Note_on_c, 6, 74, 52
7, 28572, Note_off_c, 6, 69, 84
7, 28573, Note_off_c, 6, 74, 61
7, 28584, Note_on_c, 6, 74, 66
7, 28584, Note_on_c, 6, 69, 72
7, 28597, Note_off_c, 6, 69, 92
7, 28598, Note_off_c, 6, 74, 106
7, 28608, Note_on_c, 6, 78, 85
7, 28608, Note_on_c, 6, 74, 96
7, 28621, Note_off_c, 6, 74, 86
7, 28622, Note_off_c, 6, 78, 86
7, 28632, Note_on_c, 6, 74, 70
7, 28643, Note_off_c, 6, 74, 84
7, 28656, Note_on_c, 6, 74, 59
7, 28656, Note_on_c, 6, 78, 32
7, 28664, Note_off_c, 6, 78, 70
7, 28665, Note_off_c, 6, 74, 86
7, 28680, Note_on_c, 6, 74, 66
7, 28692, Note_off_c, 6, 74, 88
7, 28704, Note_on_c, 6, 74, 92
7, 28704, Note_on_c, 6, 78, 71
7, 28718, Note_off_c, 6, 74, 94
7, 28719, Note_off_c, 6, 78, 90
7, 28728, Note_on_c, 6, 74, 70
7, 28739, Note_off_c, 6, 74, 94
7, 28752, Note_on_c, 6, 74, 83
7, 28752, Note_on_c, 6, 78, 60
7, 28767, Note_off_c, 6, 78, 90
7, 28768, Note_off_c, 6, 74, 92
7, 28776, Note_on_c, 6, 74, 86
7, 28776, Note_on_c, 6, 78, 67
7, 28787, Note_off_c, 6, 78, 84
7, 28788, Note_off_c, 6, 74, 113
7, 28800, Note_on_c, 6, 78, 56
7, 28800, Note_on_c, 6, 74, 76
7, 28813, Note_off_c, 6, 78, 90
7, 28814, Note_off_c, 6, 74, 92
7, 28824, Note_on_c, 6, 69, 74
7, 28824, Note_on_c, 6, 74, 59
7, 28838, Note_off_c, 6, 69, 86
7, 28839, Note_off_c, 6, 74, 88
7, 28848, Note_on_c, 6, 69, 92
7, 28848, Note_on_c, 6, 74, 61
7, 28848, Note_on_c, 6, 76, 54
7, 28857, Note_off_c, 6, 76, 57
7, 28857, Note_off_c, 6, 74, 79
7, 28859, Note_off_c, 6, 69, 86
7, 28872, Note_on_c, 6, 69, 70
7, 28872, Note_on_c, 6, 74, 68
7, 28884, Note_off_c, 6, 74, 79
7, 28885, Note_off_c, 6, 69, 80
7, 28896, Note_on_c, 6, 74, 78
7, 28896, Note_on_c, 6, 69, 83
7, 28910, Note_off_c, 6, 69, 84
7, 28912, Note_off_c, 6, 74, 75
7, 28920, Note_on_c, 6, 69, 72
7, 28920, Note_on_c, 6, 74, 61
7, 28930, Note_off_c, 6, 74, 72
7, 28931, Note_off_c, 6, 69, 73
7, 28944, Note_on_c, 6, 69, 62
7, 28944, Note_on_c, 6, 74, 51
7, 28955, Note_off_c, 6, 74, 80
7, 28956, Note_off_c, 6, 69, 84
7, 28968, Note_on_c, 6, 74, 61
7, 28968, Note_on_c, 6, 69, 70
7, 28979, Note_off_c, 6, 74, 82
7, 28982, Note_off_c, 6, 69, 82
7, 28992, Note_on_c, 6, 76, 83
7, 28992, Note_on_c, 6, 71, 100
7, 29006, Note_off_c, 6, 71, 94
7, 29009, Note_off_c, 6, 76, 79
7, 29016, Note_on_c, 6, 71, 63
7, 29016, Note_on_c, 6, 76, 27
7, 29023, Note_off_c, 6, 76, 39
7, 29027, Note_off_c, 6, 71, 72
7, 29040, Note_on_c, 6, 71, 56
7, 29040, Note_on_c, 6, 76, 40
7, 29048, Note_off_c, 6, 71, 69
7, 29050, Note_off_c, 6, 76, 73
7, 29064, Note_on_c, 6, 71, 72
7, 29064, Note_on_c, 6, 76, 47
7, 29074, Note_off_c, 6, 76, 62
7, 29078, Note_off_c, 6, 71, 58
7, 29088, Note_on_c, 6, 76, 78
7, 29088, Note_on_c, 6, 71, 96
7, 29102, Note_off_c, 6, 71, 94
7, 29107, Note_off_c, 6, 76, 88
7, 29112, Note_on_c, 6, 71, 48
7, 29112, Note_on_c, 6, 76, 49
7, 29120, Note_off_c, 6, 71, 66
7, 29121, Note_off_c, 6, 76, 67
7, 29136, Note_on_c, 6, 76, 70
7, 29136, Note_on_c, 6, 71, 83
7, 29151, Note_off_c, 6, 71, 82
7, 29152, Note_off_c, 6, 76, 80
7, 29160, Note_on_c, 6, 71, 92
7, 29160, Note_on_c, 6, 76, 66
7, 29172, Note_off_c, 6, 71, 90
7, 29173, Note_off_c, 6, 76, 96
7, 29184, Note_on_c, 6, 76, 57
7, 29184, Note_on_c, 6, 71, 66
7, 29193, Note_off_c, 6, 71, 82
7, 29197, Note_off_c, 6, 76, 79
7, 29208, Note_on_c, 6, 69, 83
7, 29208, Note_on_c, 6, 74, 74
7, 29221, Note_off_c, 6, 74, 73
7, 29221, Note_off_c, 6, 69, 84
7, 29232, Note_on_c, 6, 74, 80
7, 29232, Note_on_c, 6, 69, 86
7, 29246, Note_off_c, 6, 69, 88
7, 29249, Note_off_c, 6, 74, 90
7, 29256, Note_on_c, 6, 74, 51
7, 29256, Note_on_c, 6, 69, 74
7, 29266, Note_off_c, 6, 74, 65
7, 29268, Note_off_c, 6, 69, 86
7, 29280, Note_on_c, 6, 74, 80
7, 29280, Note_on_c, 6, 69, 80
7, 29295, Note_off_c, 6, 69, 79
7, 29298, Note_off_c, 6, 74, 79
7, 29304, Note_on_c, 6, 74, 31
7, 29312, Note_off_c, 6, 74, 31
7, 29328, Note_on_c, 6, 74, 59
7, 29328, Note_on_c, 6, 69, 57
7, 29339, Note_off_c, 6, 69, 84
7, 29352, Note_on_c, 6, 69, 70
7, 29360, Note_off_c, 6, 74, 88
7, 29366, Note_off_c, 6, 69, 72
7, 29376, Note_on_c, 6, 78, 85
7, 29376, Note_on_c, 6, 74, 96
7, 29390, Note_off_c, 6, 74, 92
7, 29391, Note_off_c, 6, 78, 84
7, 29400, Note_on_c, 6, 74, 65
7, 29411, Note_off_c, 6, 74, 72
7, 29424, Note_on_c, 6, 78, 43
7, 29424, Note_on_c, 6, 74, 45
7, 29430, Note_off_c, 6, 74, 79
7, 29435, Note_off_c, 6, 78, 77
7, 29448, Note_on_c, 6, 78, 61
7, 29448, Note_on_c, 6, 74, 70
7, 29458, Note_off_c, 6, 74, 88
7, 29459, Note_off_c, 6, 78, 75
7, 29472, Note_on_c, 6, 78, 74
7, 29472, Note_on_c, 6, 74, 96
7, 29486, Note_off_c, 6, 74, 96
7, 29490, Note_off_c, 6, 78, 86
7, 29496, Note_on_c, 6, 78, 53
7, 29496, Note_on_c, 6, 74, 62
7, 29504, Note_off_c, 6, 74, 80
7, 29505, Note_off_c, 6, 78, 75
7, 29520, Note_on_c, 6, 78, 56
7, 29520, Note_on_c, 6, 74, 74
7, 29534, Note_off_c, 6, 78, 88
7, 29535, Note_off_c, 6, 74, 92
7, 29544, Note_on_c, 6, 78, 93
7, 29544, Note_on_c, 6, 74, 83
7, 29556, Note_off_c, 6, 74, 101
7, 29556, Note_off_c, 6, 78, 94
7, 29568, Note_on_c, 6, 78, 60
7, 29568, Note_on_c, 6, 74, 83
7, 29581, Note_off_c, 6, 74, 92
7, 29582, Note_off_c, 6, 78, 77
7, 29592, Note_on_c, 6, 69, 76
7, 29592, Note_on_c, 6, 74, 78
7, 29606, Note_off_c, 6, 69, 94
7, 29608, Note_off_c, 6, 74, 88
7, 29616, Note_on_c, 6, 69, 63
7, 29616, Note_on_c, 6, 74, 63
7, 29628, Note_off_c, 6, 69, 77
7, 29629, Note_off_c, 6, 74, 86
7, 29640, Note_on_c, 6, 69, 80
7, 29640, Note_on_c, 6, 74, 72
7, 29652, Note_off_c, 6, 69, 79
7, 29654, Note_off_c, 6, 74, 61
7, 29664, Note_on_c, 6, 69, 89
7, 29664, Note_on_c, 6, 74, 89
7, 29680, Note_off_c, 6, 74, 77
7, 29680, Note_off_c, 6, 69, 80
7, 29688, Note_on_c, 6, 69, 66
7, 29688, Note_on_c, 6, 74, 59
7, 29698, Note_off_c, 6, 69, 70
7, 29712, Note_on_c, 6, 69, 61
7, 29719, Note_off_c, 6, 74, 80
7, 29723, Note_off_c, 6, 69, 84
7, 29736, Note_on_c, 6, 74, 63
7, 29736, Note_on_c, 6, 69, 68
7, 29748, Note_off_c, 6, 74, 82
7, 29750, Note_off_c, 6, 69, 88
7, 29760, Note_on_c, 6, 76, 89
7, 29760, Note_on_c, 6, 71, 100
7, 29775, Note_off_c, 6, 71, 90
7, 29777, Note_off_c, 6, 76, 84
7, 29784, Note_on_c, 6, 76, 62
7, 29784, Note_on_c, 6, 71, 78
7, 29794, Note_off_c, 6, 76, 63
7, 29795, Note_off_c, 6, 71, 79
7, 29808, Note_on_c, 6, 76, 48
7, 29808, Note_on_c, 6, 71, 61
7, 29816, Note_off_c, 6, 71, 67
7, 29820, Note_off_c, 6, 76, 79
7, 29832, Note_on_c, 6, 76, 49
7, 29832, Note_on_c, 6, 71, 92
7, 29839, Note_off_c, 6, 76, 66
7, 29843, Note_off_c, 6, 71, 82
7, 29856, Note_on_c, 6, 76, 86
7, 29856, Note_on_c, 6, 71, 100
7, 29870, Note_off_c, 6, 71, 86
7, 29874, Note_off_c, 6, 76, 79
7, 29880, Note_on_c, 6, 76, 72
7, 29880, Note_on_c, 6, 71, 78
7, 29890, Note_off_c, 6, 71, 73
7, 29894, Note_off_c, 6, 76, 84
7, 29904, Note_on_c, 6, 76, 74
7, 29919, Note_off_c, 6, 76, 80
7, 33168, Note_on_c, 6, 78, 69
7, 33168, Note_on_c, 6, 74, 78
7, 33178, Note_off_c, 6, 78, 90
7, 33181, Note_off_c, 6, 74, 90
7, 33216, Note_on_c, 6, 78, 78
7, 33216, Note_on_c, 6, 74, 100
7, 33229, Note_off_c, 6, 74, 90
7, 33232, Note_off_c, 6, 78, 99
7, 33240, Note_on_c, 6, 78, 51
7, 33249, Note_off_c, 6, 78, 73
7, 33264, Note_on_c, 6, 78, 50
7, 33264, Note_on_c, 6, 74, 57
7, 33274, Note_off_c, 6, 74, 88
7, 33275, Note_off_c, 6, 78, 90
7, 33288, Note_on_c, 6, 74, 62
7, 33288, Note_on_c, 6, 78, 36
7, 33297, Note_off_c, 6, 78, 69
7, 33302, Note_off_c, 6, 74, 92
7, 33312, Note_on_c, 6, 78, 85
7, 33312, Note_on_c, 6, 74, 100
7, 33328, Note_off_c, 6, 74, 90
7, 33330, Note_off_c, 6, 78, 99
7, 33336, Note_on_c, 6, 74, 46
7, 33336, Note_on_c, 6, 78, 36
7, 33345, Note_off_c, 6, 78, 75
7, 33346, Note_off_c, 6, 74, 62
7, 33360, Note_on_c, 6, 78, 63
7, 33360, Note_on_c, 6, 74, 78
7, 33374, Note_off_c, 6, 74, 94
7, 33375, Note_off_c, 6, 78, 88
7, 33384, Note_on_c, 6, 74, 105
7, 33384, Note_on_c, 6, 78, 69
7, 33396, Note_off_c, 6, 74, 106
7, 33398, Note_off_c, 6, 78, 73
7, 33408, Note_on_c, 6, 74, 41
7, 33418, Note_off_c, 6, 74, 53
7, 33432, Note_on_c, 6, 74, 59
7, 33445, Note_off_c, 6, 74, 82
7, 33456, Note_on_c, 6, 69, 92
7, 33456, Note_on_c, 6, 74, 74
7, 33470, Note_off_c, 6, 74, 94
7, 33470, Note_off_c, 6, 69, 94
7, 33480, Note_on_c, 6, 74, 70
7, 33493, Note_off_c, 6, 74, 73
7, 33504, Note_on_c, 6, 69, 96
7, 33504, Note_on_c, 6, 74, 86
7, 33520, Note_off_c, 6, 69, 86
7, 33523, Note_off_c, 6, 74, 79
7, 33528, Note_on_c, 6, 69, 76
7, 33528, Note_on_c, 6, 74, 66
7, 33539, Note_off_c, 6, 74, 66
7, 33539, Note_off_c, 6, 69, 92
7, 33552, Note_on_c, 6, 69, 66
7, 33552, Note_on_c, 6, 74, 48
7, 33564, Note_off_c, 6, 74, 66
7, 33565, Note_off_c, 6, 69, 86
7, 33576, Note_on_c, 6, 69, 83
7, 33576, Note_on_c, 6, 74, 65
7, 33589, Note_off_c, 6, 74, 73
7, 33589, Note_off_c, 6, 69, 88
7, 33600, Note_on_c, 6, 71, 105
7, 33600, Note_on_c, 6, 76, 92
7, 33615, Note_off_c, 6, 71, 90
7, 33618, Note_off_c, 6, 76, 73
7, 33624, Note_on_c, 6, 71, 59
7, 33624, Note_on_c, 6, 76, 52
7, 33634, Note_off_c, 6, 76, 66
7, 33634, Note_off_c, 6, 71, 39
7, 33648, Note_on_c, 6, 71, 68
7, 33648, Note_on_c, 6, 76, 37
7, 33655, Note_off_c, 6, 76, 59
7, 33660, Note_off_c, 6, 71, 92
7, 33672, Note_on_c, 6, 71, 78
7, 33672, Note_on_c, 6, 76, 63
7, 33683, Note_off_c, 6, 71, 75
7, 33685, Note_off_c, 6, 76, 69
7, 33696, Note_on_c, 6, 71, 105
7, 33696, Note_on_c, 6, 76, 86
7, 33711, Note_off_c, 6, 71, 94
7, 33714, Note_off_c, 6, 76, 84
7, 33720, Note_on_c, 6, 71, 26
7, 33720, Note_on_c, 6, 76, 46
7, 33725, Note_off_c, 6, 71, 59
7, 33729, Note_off_c, 6, 76, 63
7, 33744, Note_on_c, 6, 71, 83
7, 33744, Note_on_c, 6, 76, 63
7, 33757, Note_off_c, 6, 71, 94
7, 33760, Note_off_c, 6, 76, 88
7, 33768, Note_on_c, 6, 71, 89
7, 33768, Note_on_c, 6, 76, 72
7, 33780, Note_off_c, 6, 76, 96
7, 33781, Note_off_c, 6, 71, 99
7, 33792, Note_on_c, 6, 76, 48
7, 33792, Note_on_c, 6, 71, 62
7, 33803, Note_off_c, 6, 76, 79
7, 33804, Note_off_c, 6, 71, 82
7, 33816, Note_on_c, 6, 69, 76
7, 33816, Note_on_c, 6, 74, 63
7, 33829, Note_off_c, 6, 69, 90
7, 33830, Note_off_c, 6, 74, 70
7, 33840, Note_on_c, 6, 74, 74
7, 33840, Note_on_c, 6, 69, 89
7, 33856, Note_off_c, 6, 69, 84
7, 33857, Note_off_c, 6, 74, 79
7, 33864, Note_on_c, 6, 69, 76
7, 33864, Note_on_c, 6, 74, 66
7, 33875, Note_off_c, 6, 69, 75
7, 33877, Note_off_c, 6, 74, 94
7, 33888, Note_on_c, 6, 74, 80
7, 33888, Note_on_c, 6, 69, 86
7, 33906, Note_off_c, 6, 69, 86
7, 33907, Note_off_c, 6, 74, 77
7, 33912, Note_on_c, 6, 69, 65
7, 33912, Note_on_c, 6, 74, 36
7, 33918, Note_off_c, 6, 74, 58
7, 33922, Note_off_c, 6, 69, 65
7, 33936, Note_on_c, 6, 69, 63
7, 33936, Note_on_c, 6, 74, 58
7, 33950, Note_off_c, 6, 74, 53
7, 33951, Note_off_c, 6, 69, 82
7, 33960, Note_on_c, 6, 69, 59
7, 33960, Note_on_c, 6, 74, 56
7, 33972, Note_off_c, 6, 74, 86
7, 33976, Note_off_c, 6, 69, 90
7, 33984, Note_on_c, 6, 74, 100
7, 33984, Note_on_c, 6, 78, 93
7, 33996, Note_off_c, 6, 78, 79
7, 33998, Note_off_c, 6, 74, 94
7, 34008, Note_on_c, 6, 74, 80
7, 34023, Note_off_c, 6, 74, 82
7, 34032, Note_on_c, 6, 74, 68
7, 34032, Note_on_c, 6, 78, 38
7, 34041, Note_off_c, 6, 78, 73
7, 34043, Note_off_c, 6, 74, 88
7, 34056, Note_on_c, 6, 74, 78
7, 34070, Note_off_c, 6, 74, 82
7, 34080, Note_on_c, 6, 74, 96
7, 34080, Note_on_c, 6, 78, 93
7, 34094, Note_off_c, 6, 74, 96
7, 34095, Note_off_c, 6, 78, 94
7, 34104, Note_on_c, 6, 74, 72
7, 34104, Note_on_c, 6, 78, 50
7, 34111, Note_off_c, 6, 78, 79
7, 34114, Note_off_c, 6, 74, 92
7, 34128, Note_on_c, 6, 74, 78
7, 34128, Note_on_c, 6, 78, 36
7, 34136, Note_off_c, 6, 78, 59
7, 34143, Note_off_c, 6, 74, 94
7, 34152, Note_on_c, 6, 74, 83
7, 34152, Note_on_c, 6, 78, 71
7, 34162, Note_off_c, 6, 78, 88
7, 34163, Note_off_c, 6, 74, 90
7, 34176, Note_on_c, 6, 78, 63
7, 34176, Note_on_c, 6, 74, 74
7, 34189, Note_off_c, 6, 78, 82
7, 34191, Note_off_c, 6, 74, 77
7, 34200, Note_on_c, 6, 74, 80
7, 34214, Note_off_c, 6, 74, 94
7, 34224, Note_on_c, 6, 69, 83
7, 34224, Note_on_c, 6, 74, 89
7, 34238, Note_off_c, 6, 74, 86
7, 34248, Note_on_c, 6, 69, 70
7, 34248, Note_on_c, 6, 74, 74
7, 34251, Note_off_c, 6, 69, 88
7, 34258, Note_off_c, 6, 69, 77
7, 34260, Note_off_c, 6, 74, 88
7, 34272, Note_on_c, 6, 69, 86
7, 34272, Note_on_c, 6, 74, 78
7, 34286, Note_off_c, 6, 69, 86
7, 34288, Note_off_c, 6, 74, 75
7, 34296, Note_on_c, 6, 69, 72
7, 34308, Note_off_c, 6, 69, 86
7, 34320, Note_on_c, 6, 74, 56
7, 34320, Note_on_c, 6, 69, 66
7, 34320, Note_on_c, 6, 74, 39
7, 34330, Note_off_c, 6, 74, 66
7, 34331, Note_off_c, 6, 74, 62
7, 34334, Note_off_c, 6, 69, 82
7, 34344, Note_on_c, 6, 74, 59
7, 34344, Note_on_c, 6, 69, 76
7, 34356, Note_off_c, 6, 69, 79
7, 34358, Note_off_c, 6, 74, 90
7, 34368, Note_on_c, 6, 71, 105
7, 34368, Note_on_c, 6, 76, 89
7, 34383, Note_off_c, 6, 76, 86
7, 34383, Note_off_c, 6, 71, 88
7, 34392, Note_on_c, 6, 76, 57
7, 34392, Note_on_c, 6, 71, 83
7, 34401, Note_off_c, 6, 76, 41
7, 34402, Note_off_c, 6, 71, 82
7, 34416, Note_on_c, 6, 71, 43
7, 34416, Note_on_c, 6, 76, 42
7, 34424, Note_off_c, 6, 76, 70
7, 34424, Note_off_c, 6, 71, 80
7, 34440, Note_on_c, 6, 76, 63
7, 34440, Note_on_c, 6, 71, 61
7, 34449, Note_off_c, 6, 71, 59
7, 34450, Note_off_c, 6, 76, 79
7, 34464, Note_on_c, 6, 76, 83
7, 34464, Note_on_c, 6, 71, 100
7, 34480, Note_off_c, 6, 71, 90
7, 34481, Note_off_c, 6, 76, 88
7, 34488, Note_on_c, 6, 76, 50
7, 34488, Note_on_c, 6, 71, 66
7, 34495, Note_off_c, 6, 76, 65
7, 34497, Note_off_c, 6, 71, 72
7, 34512, Note_on_c, 6, 76, 57
7, 34512, Note_on_c, 6, 71, 80
7, 34528, Note_off_c, 6, 71, 80
7, 34530, Note_off_c, 6, 76, 70
7, 34536, Note_on_c, 6, 76, 78
7, 34536, Note_on_c, 6, 71, 83
7, 34547, Note_off_c, 6, 76, 86
7, 34549, Note_off_c, 6, 71, 101
7, 34560, Note_on_c, 6, 76, 54
7, 34560, Note_on_c, 6, 71, 70
7, 34571, Note_off_c, 6, 71, 86
7, 34572, Note_off_c, 6, 76, 84
7, 34584, Note_on_c, 6, 74, 80
7, 34584, Note_on_c, 6, 69, 68
7, 34596, Note_off_c, 6, 69, 86
7, 34598, Note_off_c, 6, 74, 90
7, 34608, Note_on_c, 6, 74, 74
7, 34608, Note_on_c, 6, 69, 83
7, 34622, Note_off_c, 6, 74, 73
7, 34624, Note_off_c, 6, 69, 84
7, 34632, Note_on_c, 6, 69, 78
7, 34632, Note_on_c, 6, 74, 68
7, 34642, Note_off_c, 6, 74, 63
7, 34644, Note_off_c, 6, 69, 82
7, 34656, Note_on_c, 6, 74, 83
7, 34656, Note_on_c, 6, 69, 83
7, 34669, Note_off_c, 6, 69, 88
7, 34674, Note_off_c, 6, 74, 80
7, 34680, Note_on_c, 6, 69, 63
7, 34680, Note_on_c, 6, 74, 61
7, 34690, Note_off_c, 6, 74, 67
7, 34692, Note_off_c, 6, 69, 73
7, 34704, Note_on_c, 6, 69, 66
7, 34704, Note_on_c, 6, 74, 52
7, 34716, Note_off_c, 6, 69, 84
7, 34717, Note_off_c, 6, 74, 61
7, 34728, Note_on_c, 6, 74, 66
7, 34728, Note_on_c, 6, 69, 72
7, 34741, Note_off_c, 6, 69, 92
7, 34742, Note_off_c, 6, 74, 106
7, 34752, Note_on_c, 6, 78, 85
7, 34752, Note_on_c, 6, 74, 96
7, 34765, Note_off_c, 6, 74, 86
7, 34766, Note_off_c, 6, 78, 86
7, 34776, Note_on_c, 6, 74, 70
7, 34787, Note_off_c, 6, 74, 84
7, 34800, Note_on_c, 6, 74, 59
7, 34800, Note_on_c, 6, 78, 32
7, 34808, Note_off_c, 6, 78, 70
7, 34809, Note_off_c, 6, 74, 86
7, 34824, Note_on_c, 6, 74, 66
7, 34836, Note_off_c, 6, 74, 88
7, 34848, Note_on_c, 6, 74, 92
7, 34848, Note_on_c, 6, 78, 71
7, 34862, Note_off_c, 6, 74, 94
7, 34863, Note_off_c, 6, 78, 90
7, 34872, Note_on_c, 6, 74, 70
7, 34883, Note_off_c, 6, 74, 94
7, 34896, Note_on_c, 6, 74, 83
7, 34896, Note_on_c, 6, 78, 60
7, 34911, Note_off_c, 6, 78, 90
7, 34912, Note_off_c, 6, 74, 92
7, 34920, Note_on_c, 6, 74, 86
7, 34920, Note_on_c, 6, 78, 67
7, 34931, Note_off_c, 6, 78, 84
7, 34932, Note_off_c, 6, 74, 113
7, 34944, Note_on_c, 6, 78, 56
7, 34944, Note_on_c, 6, 74, 76
7, 34957, Note_off_c, 6, 78, 90
7, 34958, Note_off_c, 6, 74, 92
7, 34968, Note_on_c, 6, 69, 74
7, 34968, Note_on_c, 6, 74, 59
7, 34982, Note_off_c, 6, 69, 86
7, 34983, Note_off_c, 6, 74, 88
7, 34992, Note_on_c, 6, 69, 92
7, 34992, Note_on_c, 6, 74, 61
7, 34992, Note_on_c, 6, 76, 54
7, 35001, Note_off_c, 6, 76, 57
7, 35001, Note_off_c, 6, 74, 79
7, 35003, Note_off_c, 6, 69, 86
7, 35016, Note_on_c, 6, 69, 70
7, 35016, Note_on_c, 6, 74, 68
7, 35028, Note_off_c, 6, 74, 79
7, 35029, Note_off_c, 6, 69, 80
7, 35040, Note_on_c, 6, 74, 78
7, 35040, Note_on_c, 6, 69, 83
7, 35054, Note_off_c, 6, 69, 84
7, 35056, Note_off_c, 6, 74, 75
7, 35064, Note_on_c, 6, 69, 72
7, 35064, Note_on_c, 6, 74, 61
7, 35074, Note_off_c, 6, 74, 72
7, 35075, Note_off_c, 6, 69, 73
7, 35088, Note_on_c, 6, 69, 62
7, 35088, Note_on_c, 6, 74, 51
7, 35099, Note_off_c, 6, 74, 80
7, 35100, Note_off_c, 6, 69, 84
7, 35112, Note_on_c, 6, 74, 61
7, 35112, Note_on_c, 6, 69, 70
7, 35123, Note_off_c, 6, 74, 82
7, 35126, Note_off_c, 6, 69, 82
7, 35136, Note_on_c, 6, 76, 83
7, 35136, Note_on_c, 6, 71, 100
7, 35150, Note_off_c, 6, 71, 94
7, 35153, Note_off_c, 6, 76, 79
7, 35160, Note_on_c, 6, 71, 63
7, 35160, Note_on_c, 6, 76, 27
7, 35167, Note_off_c, 6, 76, 39
7, 35171, Note_off_c, 6, 71, 72
7, 35184, Note_on_c, 6, 71, 56
7, 35184, Note_on_c, 6, 76, 40
7, 35192, Note_off_c, 6, 71, 69
7, 35194, Note_off_c, 6, 76, 73
7, 35208, Note_on_c, 6, 71, 72
7, 35208, Note_on_c, 6, 76, 47
7, 35218, Note_off_c, 6, 76, 62
7, 35222, Note_off_c, 6, 71, 58
7, 35232, Note_on_c, 6, 76, 78
7, 35232, Note_on_c, 6, 71, 96
7, 35246, Note_off_c, 6, 71, 94
7, 35251, Note_off_c, 6, 76, 88
7, 35256, Note_on_c, 6, 71, 48
7, 35256, Note_on_c, 6, 76, 49
7, 35264, Note_off_c, 6, 71, 66
7, 35265, Note_off_c, 6, 76, 67
7, 35280, Note_on_c, 6, 76, 70
7, 35280, Note_on_c, 6, 71, 83
7, 35295, Note_off_c, 6, 71, 82
7, 35296, Note_off_c, 6, 76, 80
7, 35304, Note_on_c, 6, 71, 92
7, 35304, Note_on_c, 6, 76, 66
7, 35316, Note_off_c, 6, 71, 90
7, 35317, Note_off_c, 6, 76, 96
7, 35328, Note_on_c, 6, 76, 57
7, 35328, Note_on_c, 6, 71, 66
7, 35337, Note_off_c, 6, 71, 82
7, 35341, Note_off_c, 6, 76, 79
7, 35352, Note_on_c, 6, 69, 83
7, 35352, Note_on_c, 6, 74, 74
7, 35365, Note_off_c, 6, 74, 73
7, 35365, Note_off_c, 6, 69, 84
7, 35376, Note_on_c, 6, 74, 80
7, 35376, Note_on_c, 6, 69, 86
7, 35390, Note_off_c, 6, 69, 88
7, 35393, Note_off_c, 6, 74, 90
7, 35400, Note_on_c, 6, 74, 51
7, 35400, Note_on_c, 6, 69, 74
7, 35410, Note_off_c, 6, 74, 65
7, 35412, Note_off_c, 6, 69, 86
7, 35424, Note_on_c, 6, 74, 80
7, 35424, Note_on_c, 6, 69, 80
7, 35439, Note_off_c, 6, 69, 79
7, 35442, Note_off_c, 6, 74, 79
7, 35448, Note_on_c, 6, 74, 31
7, 35456, Note_off_c, 6, 74, 31
7, 35472, Note_on_c, 6, 74, 59
7, 35472, Note_on_c, 6, 69, 57
7, 35483, Note_off_c, 6, 69, 84
7, 35496, Note_on_c, 6, 69, 70
7, 35504, Note_off_c, 6, 74, 88
7, 35510, Note_off_c, 6, 69, 72
7, 35520, Note_on_c, 6, 78, 85
7, 35520, Note_on_c, 6, 74, 96
7, 35534, Note_off_c, 6, 74, 92
7, 35535, Note_off_c, 6, 78, 84
7, 35544, Note_on_c, 6, 74, 65
7, 35555, Note_off_c, 6, 74, 72
7, 35568, Note_on_c, 6, 78, 43
7, 35568, Note_on_c, 6, 74, 45
7, 35574, Note_off_c, 6, 74, 79
7, 35579, Note_off_c, 6, 78, 77
7, 35592, Note_on_c, 6, 78, 61
7, 35592, Note_on_c, 6, 74, 70
7, 35602, Note_off_c, 6, 74, 88
7, 35603, Note_off_c, 6, 78, 75
7, 35616, Note_on_c, 6, 78, 74
7, 35616, Note_on_c, 6, 74, 96
7, 35630, Note_off_c, 6, 74, 96
7, 35634, Note_off_c, 6, 78, 86
7, 35640, Note_on_c, 6, 78, 53
7, 35640, Note_on_c, 6, 74, 62
7, 35648, Note_off_c, 6, 74, 80
7, 35649, Note_off_c, 6, 78, 75
7, 35664, Note_on_c, 6, 78, 56
7, 35664, Note_on_c, 6, 74, 74
7, 35678, Note_off_c, 6, 78, 88
7, 35679, Note_off_c, 6, 74, 92
7, 35688, Note_on_c, 6, 78, 93
7, 35688, Note_on_c, 6, 74, 83
7, 35700, Note_off_c, 6, 74, 101
7, 35700, Note_off_c, 6, 78, 94
7, 35712, Note_on_c, 6, 78, 60
7, 35712, Note_on_c, 6, 74, 83
7, 35725, Note_off_c, 6, 74, 92
7, 35726, Note_off_c, 6, 78, 77
7, 35736, Note_on_c, 6, 69, 76
7, 35736, Note_on_c, 6, 74, 78
7, 35750, Note_off_c, 6, 69, 94
7, 35752, Note_off_c, 6, 74, 88
7, 35760, Note_on_c, 6, 69, 63
7, 35760, Note_on_c, 6, 74, 63
7, 35772, Note_off_c, 6, 69, 77
7, 35773, Note_off_c, 6, 74, 86
7, 35784, Note_on_c, 6, 69, 80
7, 35784, Note_on_c, 6, 74, 72
7, 35796, Note_off_c, 6, 69, 79
7, 35798, Note_off_c, 6, 74, 61
7, 35808, Note_on_c, 6, 69, 89
7, 35808, Note_on_c, 6, 74, 89
7, 35824, Note_off_c, 6, 74, 77
7, 35824, Note_off_c, 6, 69, 80
7, 35832, Note_on_c, 6, 69, 66
7, 35832, Note_on_c, 6, 74, 59
7, 35842, Note_off_c, 6, 69, 70
7, 35856, Note_on_c, 6, 69, 61
7, 35863, Note_off_c, 6, 74, 80
7, 35867, Note_off_c, 6, 69, 84
7, 35880, Note_on_c, 6, 74, 63
7, 35880, Note_on_c, 6, 69, 68
7, 35892, Note_off_c, 6, 74, 82
7, 35894, Note_off_c, 6, 69, 88
7, 35904, Note_on_c, 6, 76, 89
7, 35904, Note_on_c, 6, 71, 100
7, 35919, Note_off_c, 6, 71, 90
7, 35921, Note_off_c, 6, 76, 84
7, 35928, Note_on_c, 6, 76, 62
7, 35928, Note_on_c, 6, 71, 78
7, 35938, Note_off_c, 6, 76, 63
7, 35939, Note_off_c, 6, 71, 79
7, 35952, Note_on_c, 6, 76, 48
7, 35952, Note_on_c, 6, 71, 61
7, 35960, Note_off_c, 6, 71, 67
7, 35964, Note_off_c, 6, 76, 79
7, 35976, Note_on_c, 6, 76, 49
7, 35976, Note_on_c, 6, 71, 92
7, 35983, Note_off_c, 6, 76, 66
7, 35987, Note_off_c, 6, 71, 82
7, 36000, Note_on_c, 6, 76, 86
7, 36000, Note_on_c, 6, 71, 100
7, 36014, Note_off_c, 6, 71, 86
7, 36018, Note_off_c, 6, 76, 79
7, 36024, Note_on_c, 6, 76, 72
7, 36024, Note_on_c, 6, 71, 78
7, 36034, Note_off_c, 6, 71, 73
7, 36038, Note_off_c, 6, 76, 84
7, 36048, Note_on_c, 6, 76, 74
7, 36063, Note_off_c, 6, 76, 80
7, 36096, Note_on_c, 6, 62, 75
7, 36097, Note_off_c, 6, 62, 75
7, 36120, Note_on_c, 6, 62, 75
7, 36121, Note_off_c, 6, 62, 62
7, 36168, Note_on_c, 6, 62, 75
7, 36169, Note_off_c, 6, 62, 36
7, 36192, Note_on_c, 6, 62, 75
7, 36193, Note_off_c, 6, 62, 120
7, 36216, Note_on_c, 6, 62, 75
7, 36217, Note_off_c, 6, 62, 42
7, 36240, Note_on_c, 6, 62, 75
7, 36241, Note_off_c, 6, 62, 113
7, 36264, Note_on_c, 6, 62, 75
7, 36265, Note_off_c, 6, 62, 88
7, 36288, Note_on_c, 6, 62, 75
7, 36289, Note_off_c, 6, 62, 127
7, 36312, Note_on_c, 6, 62, 75
7, 36313, Note_off_c, 6, 62, 79
7, 36336, Note_on_c, 6, 62, 75
7, 36337, Note_off_c, 6, 62, 86
7, 36360, Note_on_c, 6, 62, 75
7, 36361, Note_off_c, 6, 62, 55
7, 36384, Note_on_c, 6, 62, 75
7, 36385, Note_off_c, 6, 62, 36
7, 36408, Note_on_c, 6, 62, 75
7, 36409, Note_off_c, 6, 62, 26
7, 36432, Note_on_c, 6, 62, 75
7, 36433, Note_off_c, 6, 62, 19
7, 36456, Note_on_c, 6, 62, 75
7, 36457, Note_off_c, 6, 62, 77
7, 36480, Note_on_c, 6, 62, 75
7, 36481, Note_off_c, 6, 62, 75
7, 36504, Note_on_c, 6, 62, 75
7, 36505, Note_off_c, 6, 62, 62
7, 36552, Note_on_c, 6, 62, 75
7, 36553, Note_off_c, 6, 62, 36
7, 36576, Note_on_c, 6, 62, 75
7, 36577, Note_off_c, 6, 62, 120
7, 36600, Note_on_c, 6, 62, 75
7, 36601, Note_off_c, 6, 62, 42
7, 36624, Note_on_c, 6, 62, 75
7, 36625, Note_off_c, 6, 62, 113
7, 36648, Note_on_c, 6, 62, 75
7, 36649, Note_off_c, 6, 62, 88
7, 36672, Note_on_c, 6, 62, 75
7, 36673, Note_off_c, 6, 62, 127
7, 36696, Note_on_c, 6, 62, 75
7, 36697, Note_off_c, 6, 62, 79
7, 36720, Note_on_c, 6, 62, 75
7, 36721, Note_off_c, 6, 62, 86
7, 36744, Note_on_c, 6, 62, 75
7, 36745, Note_off_c, 6, 62, 55
7, 36768, Note_on_c, 6, 62, 75
7, 36769, Note_off_c, 6, 62, 36
7, 36792, Note_on_c, 6, 62, 75
7, 36793, Note_off_c, 6, 62, 26
7, 36816, Note_on_c, 6, 62, 75
7, 36817, Note_off_c, 6, 62, 19
7, 36840, Note_on_c, 6, 62, 75
7, 36841, Note_off_c, 6, 62, 77
7, 36864, Note_on_c, 6, 62, 75
7, 36865, Note_off_c, 6, 62, 75
7, 36888, Note_on_c, 6, 62, 75
7, 36889, Note_off_c, 6, 62, 62
7, 36936, Note_on_c, 6, 62, 75
7, 36937, Note_off_c, 6, 62, 36
7, 36960, Note_on_c, 6, 62, 75
7, 36961, Note_off_c, 6, 62, 120
7, 36984, Note_on_c, 6, 62, 75
7, 36985, Note_off_c, 6, 62, 42
7, 37008, Note_on_c, 6, 62, 75
7, 37009, Note_off_c, 6, 62, 113
7, 37032, Note_on_c, 6, 62, 75
7, 37033, Note_off_c, 6, 62, 88
7, 37056, Note_on_c, 6, 62, 75
7, 37057, Note_off_c, 6, 62, 127
7, 37080, Note_on_c, 6, 62, 75
7, 37081, Note_off_c, 6, 62, 79
7, 37104, Note_on_c, 6, 62, 75
7, 37105, Note_off_c, 6, 62, 86
7, 37128, Note_on_c, 6, 62, 75
7, 37129, Note_off_c, 6, 62, 55
7, 37152, Note_on_c, 6, 62, 75
7, 37153, Note_off_c, 6, 62, 36
7, 37176, Note_on_c, 6, 62, 75
7, 37177, Note_off_c, 6, 62, 26
7, 37200, Note_on_c, 6, 62, 75
7, 37201, Note_off_c, 6, 62, 19
7, 37224, Note_on_c, 6, 62, 75
7, 37225, Note_off_c, 6, 62, 77
7, 37248, Note_on_c, 6, 62, 75
7, 37249, Note_off_c, 6, 62, 75
7, 37272, Note_on_c, 6, 62, 75
7, 37273, Note_off_c, 6, 62, 62
7, 37320, Note_on_c, 6, 62, 75
7, 37321, Note_off_c, 6, 62, 36
7, 37344, Note_on_c, 6, 62, 75
7, 37345, Note_off_c, 6, 62, 120
7, 37368, Note_on_c, 6, 62, 75
7, 37369, Note_off_c, 6, 62, 42
7, 37392, Note_on_c, 6, 62, 75
7, 37393, Note_off_c, 6, 62, 113
7, 37416, Note_on_c, 6, 62, 75
7, 37417, Note_off_c, 6, 62, 88
7, 37440, Note_on_c, 6, 62, 75
7, 37441, Note_off_c, 6, 62, 127
7, 37464, Note_on_c, 6, 62, 75
7, 37465, Note_off_c, 6, 62, 79
7, 37488, Note_on_c, 6, 62, 75
7, 37489, Note_off_c, 6, 62, 86
7, 37512, Note_on_c, 6, 62, 75
7, 37513, Note_off_c, 6, 62, 55
7, 37536, Note_on_c, 6, 62, 75
7, 37537, Note_off_c, 6, 62, 36
7, 37560, Note_on_c, 6, 62, 75
7, 37561, Note_off_c, 6, 62, 26
7, 37584, Note_on_c, 6, 62, 75
7, 37585, Note_off_c, 6, 62, 19
7, 37608, Note_on_c, 6, 62, 75
7, 37609, Note_off_c, 6, 62, 77
7, 37632, Note_on_c, 6, 62, 75
7, 37633, Note_off_c, 6, 62, 75
7, 37656, Note_on_c, 6, 62, 75
7, 37657, Note_off_c, 6, 62, 62
7, 37704, Note_on_c, 6, 62, 75
7, 37705, Note_off_c, 6, 62, 36
7, 37728, Note_on_c, 6, 62, 75
7, 37729, Note_off_c, 6, 62, 120
7, 37752, Note_on_c, 6, 62, 75
7, 37753, Note_off_c, 6, 62, 42
7, 37776, Note_on_c, 6, 62, 75
7, 37777, Note_off_c, 6, 62, 113
7, 37800, Note_on_c, 6, 62, 75
7, 37801, Note_off_c, 6, 62, 88
7, 37824, Note_on_c, 6, 62, 75
7, 37825, Note_off_c, 6, 62, 127
7, 37848, Note_on_c, 6, 62, 75
7, 37849, Note_off_c, 6, 62, 79
7, 37872, Note_on_c, 6, 62, 75
7, 37873, Note_off_c, 6, 62, 86
7, 37896, Note_on_c, 6, 62, 75
7, 37897, Note_off_c, 6, 62, 55
7, 37920, Note_on_c, 6, 62, 75
7, 37921, Note_off_c, 6, 62, 36
7, 37944, Note_on_c, 6, 62, 75
7, 37945, Note_off_c, 6, 62, 26
7, 37968, Note_on_c, 6, 62, 75
7, 37969, Note_off_c, 6, 62, 19
7, 37992, Note_on_c, 6, 62, 75
7, 37993, Note_off_c, 6, 62, 77
7, 38016, Note_on_c, 6, 62, 75
7, 38017, Note_off_c, 6, 62, 75
7, 38040, Note_on_c, 6, 62, 75
7, 38041, Note_off_c, 6, 62, 62
7, 38088, Note_on_c, 6, 62, 75
7, 38089, Note_off_c, 6, 62, 36
7, 38112, Note_on_c, 6, 62, 75
7, 38113, Note_off_c, 6, 62, 120
7, 38136, Note_on_c, 6, 62, 75
7, 38137, Note_off_c, 6, 62, 42
7, 38160, Note_on_c, 6, 62, 75
7, 38161, Note_off_c, 6, 62, 113
7, 38184, Note_on_c, 6, 62, 75
7, 38185, Note_off_c, 6, 62, 88
7, 38208, Note_on_c, 6, 62, 75
7, 38209, Note_off_c, 6, 62, 127
7, 38232, Note_on_c, 6, 62, 75
7, 38233, Note_off_c, 6, 62, 79
7, 38256, Note_on_c, 6, 62, 75
7, 38257, Note_off_c, 6, 62, 86
7, 38280, Note_on_c, 6, 62, 75
7, 38281, Note_off_c, 6, 62, 55
7, 38304, Note_on_c, 6, 62, 75
7, 38305, Note_off_c, 6, 62, 36
7, 38328, Note_on_c, 6, 62, 75
7, 38329, Note_off_c, 6, 62, 26
7, 38352, Note_on_c, 6, 62, 75
7, 38353, Note_off_c, 6, 62, 19
7, 38376, Note_on_c, 6, 62, 75
7, 38377, Note_off_c, 6, 62, 77
7, 38400, Note_on_c, 6, 62, 75
7, 38401, Note_off_c, 6, 62, 75
7, 38424, Note_on_c, 6, 62, 75
7, 38425, Note_off_c, 6, 62, 62
7, 38472, Note_on_c, 6, 62, 75
7, 38473, Note_off_c, 6, 62, 36
7, 38496, Note_on_c, 6, 62, 75
7, 38497, Note_off_c, 6, 62, 120
7, 38520, Note_on_c, 6, 62, 75
7, 38521, Note_off_c, 6, 62, 42
7, 38544, Note_on_c, 6, 62, 75
7, 38545, Note_off_c, 6, 62, 113
7, 38568, Note_on_c, 6, 62, 75
7, 38569, Note_off_c, 6, 62, 88
7, 38592, Note_on_c, 6, 62, 75
7, 38593, Note_off_c, 6, 62, 127
7, 38616, Note_on_c, 6, 62, 75
7, 38617, Note_off_c, 6, 62, 79
7, 38640, Note_on_c, 6, 62, 75
7, 38641, Note_off_c, 6, 62, 86
7, 38664, Note_on_c, 6, 62, 75
7, 38665, Note_off_c, 6, 62, 55
7, 38688, Note_on_c, 6, 62, 75
7, 38689, Note_off_c, 6, 62, 36
7, 38712, Note_on_c, 6, 62, 75
7, 38713, Note_off_c, 6, 62, 26
7, 38736, Note_on_c, 6, 62, 75
7, 38737, Note_off_c, 6, 62, 19
7, 38760, Note_on_c, 6, 62, 75
7, 38761, Note_off_c, 6, 62, 77
7, 38784, Note_on_c, 6, 62, 75
7, 38785, Note_off_c, 6, 62, 75
7, 38808, Note_on_c, 6, 62, 75
7, 38809, Note_off_c, 6, 62, 62
7, 38856, Note_on_c, 6, 62, 75
7, 38857, Note_off_c, 6, 62, 36
7, 38880, Note_on_c, 6, 62, 75
7, 38881, Note_off_c, 6, 62, 120
7, 38904, Note_on_c, 6, 62, 75
7, 38905, Note_off_c, 6, 62, 42
7, 38928, Note_on_c, 6, 62, 75
7, 38929, Note_off_c, 6, 62, 113
7, 38952, Note_on_c, 6, 62, 75
7, 38953, Note_off_c, 6, 62, 88
7, 38976, Note_on_c, 6, 62, 75
7, 38977, Note_off_c, 6, 62, 127
7, 39000, Note_on_c, 6, 62, 75
7, 39001, Note_off_c, 6, 62, 79
7, 39024, Note_on_c, 6, 62, 75
7, 39025, Note_off_c, 6, 62, 86
7, 39048, Note_on_c, 6, 62, 75
7, 39049, Note_off_c, 6, 62, 55
7, 39072, Note_on_c, 6, 62, 75
7, 39073, Note_off_c, 6, 62, 36
7, 39096, Note_on_c, 6, 62, 75
7, 39097, Note_off_c, 6, 62, 26
7, 39120, Note_on_c, 6, 62, 75
7, 39121, Note_off_c, 6, 62, 19
7, 39144, Note_on_c, 6, 62, 75
7, 39145, Note_off_c, 6, 62, 77
7, 39168, End_track
8, 0, Start_track
8, 0, Program_c, 7, 27
8, 24, Control_c, 7, 1, 0
8, 48, Control_c, 7, 7, 100
8, 72, Control_c, 7, 10, 65
8, 96, Control_c, 7, 11, 127
8, 120, Control_c, 7, 91, 60
8, 144, Pitch_bend_c, 7, 8192
8, 8640, Note_on_c, 7, 57, 92
8, 8707, Note_off_c, 7, 57, 88
8, 8736, Note_on_c, 7, 57, 92
8, 8800, Note_off_c, 7, 57, 32
8, 9024, Note_on_c, 7, 55, 83
8, 9087, Note_off_c, 7, 55, 73
8, 9120, Note_on_c, 7, 55, 80
8, 9188, Note_off_c, 7, 55, 79
8, 9408, Note_on_c, 7, 57, 76
8, 9474, Note_off_c, 7, 57, 73
8, 9504, Note_on_c, 7, 57, 86
8, 9570, Note_off_c, 7, 57, 33
8, 9792, Note_on_c, 7, 55, 80
8, 9857, Note_off_c, 7, 55, 90
8, 9888, Note_on_c, 7, 55, 70
8, 9960, Note_off_c, 7, 55, 62
8, 10176, Note_on_c, 7, 57, 83
8, 10242, Note_off_c, 7, 57, 73
8, 10272, Note_on_c, 7, 57, 80
8, 10349, Note_off_c, 7, 57, 56
8, 10560, Note_on_c, 7, 55, 89
8, 10620, Note_off_c, 7, 55, 73
8, 10656, Note_on_c, 7, 55, 83
8, 10723, Note_off_c, 7, 55, 63
8, 10944, Note_on_c, 7, 57, 89
8, 11018, Note_off_c, 7, 57, 86
8, 11040, Note_on_c, 7, 57, 86
8, 11108, Note_off_c, 7, 57, 42
8, 11328, Note_on_c, 7, 55, 78
8, 11392, Note_off_c, 7, 55, 86
8, 11424, Note_on_c, 7, 55, 83
8, 11480, Note_off_c, 7, 55, 94
8, 14784, Note_on_c, 7, 57, 92
8, 14851, Note_off_c, 7, 57, 88
8, 14880, Note_on_c, 7, 57, 92
8, 14944, Note_off_c, 7, 57, 32
8, 15168, Note_on_c, 7, 55, 83
8, 15231, Note_off_c, 7, 55, 73
8, 15264, Note_on_c, 7, 55, 80
8, 15332, Note_off_c, 7, 55, 79
8, 15552, Note_on_c, 7, 57, 76
8, 15618, Note_off_c, 7, 57, 73
8, 15648, Note_on_c, 7, 57, 86
8, 15714, Note_off_c, 7, 57, 33
8, 15936, Note_on_c, 7, 55, 80
8, 16001, Note_off_c, 7, 55, 90
8, 16032, Note_on_c, 7, 55, 70
8, 16104, Note_off_c, 7, 55, 62
8, 16320, Note_on_c, 7, 57, 83
8, 16386, Note_off_c, 7, 57, 73
8, 16416, Note_on_c, 7, 57, 80
8, 16493, Note_off_c, 7, 57, 56
8, 16704, Note_on_c, 7, 55, 89
8, 16764, Note_off_c, 7, 55, 73
8, 16800, Note_on_c, 7, 55, 83
8, 16867, Note_off_c, 7, 55, 63
8, 17088, Note_on_c, 7, 57, 89
8, 17162, Note_off_c, 7, 57, 86
8, 17184, Note_on_c, 7, 57, 86
8, 17252, Note_off_c, 7, 57, 42
8, 17472, Note_on_c, 7, 55, 78
8, 17536, Note_off_c, 7, 55, 86
8, 17568, Note_on_c, 7, 55, 83
8, 17624, Note_off_c, 7, 55, 94
8, 27072, Note_on_c, 7, 57, 92
8, 27139, Note_off_c, 7, 57, 88
8, 27168, Note_on_c, 7, 57, 92
8, 27232, Note_off_c, 7, 57, 32
8, 27456, Note_on_c, 7, 55, 83
8, 27519, Note_off_c, 7, 55, 73
8, 27552, Note_on_c, 7, 55, 80
8, 27620, Note_off_c, 7, 55, 79
8, 27840, Note_on_c, 7, 57, 76
8, 27906, Note_off_c, 7, 57, 73
8, 27936, Note_on_c, 7, 57, 86
8, 28002, Note_off_c, 7, 57, 33
8, 28224, Note_on_c, 7, 55, 80
8, 28289, Note_off_c, 7, 55, 90
8, 28320, Note_on_c, 7, 55, 70
8, 28392, Note_off_c, 7, 55, 62
8, 28608, Note_on_c, 7, 57, 83
8, 28674, Note_off_c, 7, 57, 73
8, 28704, Note_on_c, 7, 57, 80
8, 28781, Note_off_c, 7, 57, 56
8, 28992, Note_on_c, 7, 55, 89
8, 29052, Note_off_c, 7, 55, 73
8, 29088, Note_on_c, 7, 55, 83
8, 29155, Note_off_c, 7, 55, 63
8, 29376, Note_on_c, 7, 57, 89
8, 29450, Note_off_c, 7, 57, 86
8, 29472, Note_on_c, 7, 57, 86
8, 29540, Note_off_c, 7, 57, 42
8, 29760, Note_on_c, 7, 55, 78
8, 29824, Note_off_c, 7, 55, 86
8, 29856, Note_on_c, 7, 55, 83
8, 29912, Note_off_c, 7, 55, 94
8, 33216, Note_on_c, 7, 57, 92
8, 33283, Note_off_c, 7, 57, 88
8, 33312, Note_on_c, 7, 57, 92
8, 33376, Note_off_c, 7, 57, 32
8, 33600, Note_on_c, 7, 55, 83
8, 33663, Note_off_c, 7, 55, 73
8, 33696, Note_on_c, 7, 55, 80
8, 33764, Note_off_c, 7, 55, 79
8, 33984, Note_on_c, 7, 57, 76
8, 34050, Note_off_c, 7, 57, 73
8, 34080, Note_on_c, 7, 57, 86
8, 34146, Note_off_c, 7, 57, 33
8, 34368, Note_on_c, 7, 55, 80
8, 34433, Note_off_c, 7, 55, 90
8, 34464, Note_on_c, 7, 55, 70
8, 34536, Note_off_c, 7, 55, 62
8, 34752, Note_on_c, 7, 57, 83
8, 34818, Note_off_c, 7, 57, 73
8, 34848, Note_on_c, 7, 57, 80
8, 34925, Note_off_c, 7, 57, 56
8, 35136, Note_on_c, 7, 55, 89
8, 35196, Note_off_c, 7, 55, 73
8, 35232, Note_on_c, 7, 55, 83
8, 35299, Note_off_c, 7, 55, 63
8, 35520, Note_on_c, 7, 57, 89
8, 35594, Note_off_c, 7, 57, 86
8, 35616, Note_on_c, 7, 57, 86
8, 35684, Note_off_c, 7, 57, 42
8, 35904, Note_on_c, 7, 55, 78
8, 35968, Note_off_c, 7, 55, 86
8, 36000, Note_on_c, 7, 55, 83
8, 36056, Note_off_c, 7, 55, 94
8, 39168, End_track
9, 0, Start_track
9, 0, Program_c, 8, 84
9, 24, Control_c, 8, 1, 0
9, 48, Control_c, 8, 7, 100
9, 72, Control_c, 8, 10, 65
9, 96, Control_c, 8, 11, 127
9, 120, Control_c, 8, 91, 127
9, 144, Pitch_bend_c, 8, 8192
9, 39168, Note_on_c, 8, 38, 92
9, 39168, Note_on_c, 8, 50, 100
9, 39552, Note_off_c, 8, 50, 92
9, 39552, Note_on_c, 8, 36, 100
9, 39552, Note_on_c, 8, 48, 105
9, 39555, Note_off_c, 8, 38, 101
9, 39744, Note_on_c, 8, 43, 89
9, 39744, Note_on_c, 8, 55, 96
9, 39747, Note_off_c, 8, 48, 96
9, 39750, Note_off_c, 8, 36, 75
9, 39931, Note_off_c, 8, 43, 86
9, 39936, Note_on_c, 8, 38, 100
9, 39936, Note_on_c, 8, 50, 105
9, 39940, Note_off_c, 8, 55, 96
9, 40320, Note_off_c, 8, 50, 101
9, 40320, Note_on_c, 8, 36, 92
9, 40320, Note_on_c, 8, 48, 105
9, 40326, Note_off_c, 8, 38, 99
9, 40512, Note_on_c, 8, 43, 89
9, 40512, Note_on_c, 8, 55, 86
9, 40515, Note_off_c, 8, 36, 66
9, 40518, Note_off_c, 8, 48, 86
9, 40704, Note_on_c, 8, 38, 100
9, 40704, Note_on_c, 8, 50, 96
9, 40705, Note_off_c, 8, 55, 94
9, 40707, Note_off_c, 8, 43, 111
9, 41088, Note_on_c, 8, 48, 96
9, 41088, Note_on_c, 8, 36, 92
9, 41090, Note_off_c, 8, 50, 99
9, 41092, Note_off_c, 8, 38, 99
9, 41280, Note_off_c, 8, 48, 86
9, 41280, Note_on_c, 8, 43, 89
9, 41280, Note_on_c, 8, 55, 92
9, 41284, Note_off_c, 8, 36, 77
9, 41468, Note_off_c, 8, 43, 101
9, 41471, Note_off_c, 8, 55, 90
9, 41472, Note_on_c, 8, 38, 96
9, 41472, Note_on_c, 8, 50, 105
9, 41852, Note_off_c, 8, 50, 99
9, 41856, Note_on_c, 8, 36, 92
9, 41856, Note_on_c, 8, 48, 100
9, 41859, Note_off_c, 8, 38, 96
9, 42048, Note_on_c, 8, 43, 86
9, 42048, Note_on_c, 8, 55, 89
9, 42053, Note_off_c, 8, 36, 65
9, 42056, Note_off_c, 8, 48, 84
9, 42238, Note_off_c, 8, 43, 101
9, 42240, Note_off_c, 8, 55, 86
9, 42240, Note_on_c, 8, 38, 92
9, 42240, Note_on_c, 8, 50, 100
9, 42624, Note_on_c, 8, 36, 89
9, 42624, Note_on_c, 8, 48, 105
9, 42627, Note_off_c, 8, 50, 99
9, 42627, Note_off_c, 8, 38, 99
9, 42816, Note_on_c, 8, 43, 86
9, 42816, Note_on_c, 8, 55, 92
9, 42820, Note_off_c, 8, 48, 108
9, 42825, Note_off_c, 8, 36, 67
9, 43006, Note_off_c, 8, 43, 103
9, 43008, Note_off_c, 8, 55, 80
9, 43008, Note_on_c, 8, 38, 96
9, 43008, Note_on_c, 8, 50, 96
9, 43390, Note_off_c, 8, 38, 99
9, 43392, Note_on_c, 8, 36, 92
9, 43392, Note_on_c, 8, 48, 110
9, 43395, Note_off_c, 8, 50, 103
9, 43584, Note_on_c, 8, 55, 92
9, 43584, Note_on_c, 8, 43, 78
9, 43589, Note_off_c, 8, 48, 88
9, 43593, Note_off_c, 8, 36, 61
9, 43770, Note_off_c, 8, 43, 103
9, 43770, Note_off_c, 8, 55, 90
9, 43776, Note_on_c, 8, 38, 100
9, 43776, Note_on_c, 8, 50, 96
9, 44158, Note_off_c, 8, 50, 103
9, 44160, Note_on_c, 8, 36, 92
9, 44160, Note_on_c, 8, 48, 105
9, 44161, Note_off_c, 8, 38, 101
9, 44352, Note_on_c, 8, 55, 92
9, 44352, Note_on_c, 8, 43, 80
9, 44353, Note_off_c, 8, 48, 86
9, 44359, Note_off_c, 8, 36, 63
9, 44537, Note_off_c, 8, 43, 101
9, 44538, Note_off_c, 8, 55, 80
9, 44544, Note_on_c, 8, 38, 96
9, 44544, Note_on_c, 8, 50, 92
9, 44923, Note_off_c, 8, 50, 92
9, 44928, Note_on_c, 8, 36, 89
9, 44928, Note_on_c, 8, 48, 96
9, 44929, Note_off_c, 8, 38, 108
9, 45120, Note_off_c, 8, 36, 94
9, 45120, Note_on_c, 8, 43, 78
9, 45120, Note_on_c, 8, 55, 92
9, 45121, Note_off_c, 8, 48, 96
9, 45284, Note_off_c, 8, 55, 77
9, 45294, Note_off_c, 8, 43, 103
9, 45312, Note_on_c, 8, 38, 92
9, 45312, Note_on_c, 8, 50, 100
9, 45696, Note_off_c, 8, 50, 92
9, 45696, Note_on_c, 8, 36, 100
9, 45696, Note_on_c, 8, 48, 105
9, 45699, Note_off_c, 8, 38, 101
9, 45888, Note_on_c, 8, 43, 89
9, 45888, Note_on_c, 8, 55, 96
9, 45891, Note_off_c, 8, 48, 96
9, 45894, Note_off_c, 8, 36, 75
9, 46075, Note_off_c, 8, 43, 86
9, 46080, Note_on_c, 8, 38, 100
9, 46080, Note_on_c, 8, 50, 105
9, 46084, Note_off_c, 8, 55, 96
9, 46464, Note_off_c, 8, 50, 101
9, 46464, Note_on_c, 8, 36, 92
9, 46464, Note_on_c, 8, 48, 105
9, 46470, Note_off_c, 8, 38, 99
9, 46656, Note_on_c, 8, 43, 89
9, 46656, Note_on_c, 8, 55, 86
9, 46659, Note_off_c, 8, 36, 66
9, 46662, Note_off_c, 8, 48, 86
9, 46848, Note_on_c, 8, 38, 100
9, 46848, Note_on_c, 8, 50, 96
9, 46849, Note_off_c, 8, 55, 94
9, 46851, Note_off_c, 8, 43, 111
9, 47232, Note_on_c, 8, 48, 96
9, 47232, Note_on_c, 8, 36, 92
9, 47234, Note_off_c, 8, 50, 99
9, 47236, Note_off_c, 8, 38, 99
9, 47424, Note_off_c, 8, 48, 86
9, 47424, Note_on_c, 8, 43, 89
9, 47424, Note_on_c, 8, 55, 92
9, 47428, Note_off_c, 8, 36, 77
9, 47612, Note_off_c, 8, 43, 101
9, 47615, Note_off_c, 8, 55, 90
9, 47616, Note_on_c, 8, 38, 96
9, 47616, Note_on_c, 8, 50, 105
9, 47996, Note_off_c, 8, 50, 99
9, 48000, Note_on_c, 8, 36, 92
9, 48000, Note_on_c, 8, 48, 100
9, 48003, Note_off_c, 8, 38, 96
9, 48192, Note_on_c, 8, 43, 86
9, 48192, Note_on_c, 8, 55, 89
9, 48197, Note_off_c, 8, 36, 65
9, 48200, Note_off_c, 8, 48, 84
9, 48382, Note_off_c, 8, 43, 101
9, 48384, Note_off_c, 8, 55, 86
9, 48384, Note_on_c, 8, 50, 100
9, 48384, Note_on_c, 8, 38, 105
9, 49163, Note_off_c, 8, 38, 127
9, 49163, Note_off_c, 8, 50, 122
9, 49536, End_track
10, 0, Start_track
10, 0, Control_c, 9, 100, 0
10, 24, Control_c, 9, 101, 0
10, 48, Control_c, 9, 6, 2
10, 72, Control_c, 9, 38, 0
10, 655, Note_on_c, 9, 45, 76
10, 669, Note_on_c, 9, 43, 89
10, 672, Note_on_c, 9, 52, 115
10, 672, Note_on_c, 9, 47, 124
10, 674, Note_on_c, 9, 41, 100
10, 679, Note_off_c, 9, 45, 96
10, 693, Note_off_c, 9, 43, 70
10, 720, Note_on_c, 9, 52, 83
10, 725, Note_off_c, 9, 41, 101
10, 768, Note_on_c, 9, 36, 122
10, 768, Note_on_c, 9, 42, 69
10, 771, Note_on_c, 9, 82, 64
10, 784, Note_off_c, 9, 82, 80
10, 785, Note_off_c, 9, 36, 88
10, 786, Note_off_c, 9, 42, 99
10, 804, Note_off_c, 9, 52, 113
10, 816, Note_on_c, 9, 36, 118
10, 816, Note_on_c, 9, 42, 64
10, 819, Note_on_c, 9, 82, 64
10, 829, Note_off_c, 9, 52, 96
10, 833, Note_off_c, 9, 36, 99
10, 834, Note_off_c, 9, 82, 77
10, 834, Note_off_c, 9, 42, 99
10, 864, Note_on_c, 9, 36, 122
10, 864, Note_on_c, 9, 42, 69
10, 864, Note_on_c, 9, 38, 92
10, 867, Note_on_c, 9, 82, 61
10, 882, Note_off_c, 9, 82, 80
10, 883, Note_off_c, 9, 42, 101
10, 887, Note_off_c, 9, 38, 84
10, 891, Note_off_c, 9, 36, 53
10, 907, Note_off_c, 9, 47, 72
10, 912, Note_on_c, 9, 42, 64
10, 917, Note_on_c, 9, 82, 61
10, 929, Note_off_c, 9, 42, 99
10, 932, Note_off_c, 9, 82, 84
10, 936, Note_on_c, 9, 38, 70
10, 952, Note_off_c, 9, 38, 99
10, 960, Note_on_c, 9, 36, 122
10, 960, Note_on_c, 9, 42, 56
10, 963, Note_on_c, 9, 82, 64
10, 976, Note_off_c, 9, 42, 96
10, 977, Note_off_c, 9, 82, 80
10, 986, Note_off_c, 9, 36, 35
10, 1008, Note_on_c, 9, 42, 60
10, 1010, Note_on_c, 9, 82, 69
10, 1024, Note_off_c, 9, 82, 90
10, 1027, Note_off_c, 9, 42, 96
10, 1056, Note_on_c, 9, 42, 63
10, 1056, Note_on_c, 9, 38, 105
10, 1060, Note_on_c, 9, 82, 66
10, 1073, Note_off_c, 9, 82, 90
10, 1075, Note_off_c, 9, 42, 90
10, 1077, Note_off_c, 9, 38, 67
10, 1104, Note_on_c, 9, 47, 124
10, 1104, Note_on_c, 9, 42, 52
10, 1110, Note_on_c, 9, 82, 66
10, 1122, Note_off_c, 9, 82, 92
10, 1122, Note_off_c, 9, 42, 101
10, 1152, Note_on_c, 9, 42, 61
10, 1152, Note_on_c, 9, 36, 122
10, 1155, Note_on_c, 9, 82, 64
10, 1168, Note_off_c, 9, 82, 90
10, 1169, Note_off_c, 9, 36, 106
10, 1172, Note_off_c, 9, 42, 94
10, 1200, Note_on_c, 9, 42, 63
10, 1200, Note_on_c, 9, 36, 115
10, 1203, Note_on_c, 9, 82, 66
10, 1215, Note_off_c, 9, 82, 90
10, 1215, Note_off_c, 9, 36, 101
10, 1218, Note_off_c, 9, 42, 94
10, 1248, Note_on_c, 9, 42, 63
10, 1248, Note_on_c, 9, 36, 122
10, 1248, Note_on_c, 9, 38, 96
10, 1251, Note_on_c, 9, 82, 66
10, 1264, Note_off_c, 9, 82, 92
10, 1265, Note_off_c, 9, 42, 94
10, 1270, Note_off_c, 9, 36, 66
10, 1273, Note_off_c, 9, 38, 67
10, 1296, Note_on_c, 9, 42, 63
10, 1299, Note_on_c, 9, 82, 66
10, 1311, Note_off_c, 9, 42, 92
10, 1312, Note_off_c, 9, 82, 88
10, 1320, Note_on_c, 9, 38, 70
10, 1340, Note_off_c, 9, 38, 77
10, 1344, Note_on_c, 9, 42, 64
10, 1344, Note_on_c, 9, 36, 122
10, 1346, Note_on_c, 9, 82, 64
10, 1359, Note_off_c, 9, 82, 90
10, 1362, Note_off_c, 9, 42, 88
10, 1366, Note_off_c, 9, 36, 52
10, 1392, Note_on_c, 9, 42, 63
10, 1394, Note_on_c, 9, 82, 67
10, 1407, Note_off_c, 9, 82, 90
10, 1410, Note_off_c, 9, 42, 90
10, 1440, Note_on_c, 9, 38, 105
10, 1440, Note_on_c, 9, 42, 64
10, 1441, Note_off_c, 9, 47, 99
10, 1443, Note_on_c, 9, 82, 66
10, 1457, Note_off_c, 9, 82, 86
10, 1459, Note_off_c, 9, 42, 92
10, 1465, Note_off_c, 9, 38, 69
10, 1488, Note_on_c, 9, 47, 124
10, 1488, Note_on_c, 9, 42, 51
10, 1492, Note_on_c, 9, 82, 69
10, 1504, Note_off_c, 9, 42, 94
10, 1506, Note_off_c, 9, 82, 90
10, 1536, Note_on_c, 9, 42, 61
10, 1536, Note_on_c, 9, 36, 122
10, 1538, Note_on_c, 9, 57, 68
10, 1538, Note_on_c, 9, 82, 67
10, 1552, Note_off_c, 9, 82, 96
10, 1553, Note_off_c, 9, 36, 96
10, 1555, Note_off_c, 9, 42, 94
10, 1584, Note_on_c, 9, 42, 60
10, 1584, Note_on_c, 9, 36, 113
10, 1588, Note_on_c, 9, 82, 61
10, 1599, Note_off_c, 9, 82, 103
10, 1601, Note_off_c, 9, 36, 111
10, 1602, Note_off_c, 9, 42, 90
10, 1632, Note_on_c, 9, 42, 63
10, 1632, Note_on_c, 9, 36, 118
10, 1632, Note_on_c, 9, 38, 100
10, 1635, Note_on_c, 9, 82, 67
10, 1647, Note_off_c, 9, 82, 92
10, 1652, Note_off_c, 9, 42, 96
10, 1655, Note_off_c, 9, 36, 77
10, 1659, Note_off_c, 9, 38, 70
10, 1680, Note_on_c, 9, 82, 74
10, 1680, Note_on_c, 9, 42, 63
10, 1694, Note_off_c, 9, 82, 94
10, 1697, Note_off_c, 9, 42, 101
10, 1704, Note_on_c, 9, 38, 70
10, 1725, Note_off_c, 9, 38, 82
10, 1728, Note_on_c, 9, 82, 67
10, 1728, Note_on_c, 9, 42, 66
10, 1728, Note_on_c, 9, 36, 122
10, 1740, Note_off_c, 9, 82, 88
10, 1744, Note_off_c, 9, 42, 94
10, 1754, Note_off_c, 9, 36, 62
10, 1776, Note_on_c, 9, 42, 60
10, 1778, Note_on_c, 9, 82, 66
10, 1790, Note_off_c, 9, 82, 63
10, 1793, Note_off_c, 9, 42, 92
10, 1824, Note_on_c, 9, 42, 64
10, 1824, Note_on_c, 9, 38, 105
10, 1827, Note_off_c, 9, 47, 111
10, 1827, Note_on_c, 9, 82, 64
10, 1839, Note_off_c, 9, 82, 92
10, 1840, Note_off_c, 9, 42, 88
10, 1848, Note_off_c, 9, 38, 62
10, 1872, Note_on_c, 9, 47, 124
10, 1872, Note_on_c, 9, 42, 61
10, 1876, Note_on_c, 9, 82, 66
10, 1887, Note_off_c, 9, 82, 84
10, 1887, Note_off_c, 9, 42, 99
10, 1920, Note_on_c, 9, 36, 122
10, 1920, Note_on_c, 9, 42, 67
10, 1923, Note_on_c, 9, 82, 71
10, 1935, Note_off_c, 9, 82, 90
10, 1935, Note_off_c, 9, 42, 86
10, 1938, Note_off_c, 9, 36, 99
10, 1968, Note_on_c, 9, 82, 69
10, 1968, Note_on_c, 9, 36, 115
10, 1968, Note_on_c, 9, 42, 61
10, 1981, Note_off_c, 9, 82, 82
10, 1983, Note_off_c, 9, 42, 96
10, 1985, Note_off_c, 9, 36, 106
10, 2016, Note_on_c, 9, 36, 122
10, 2016, Note_on_c, 9, 42, 67
10, 2016, Note_on_c, 9, 38, 100
10, 2019, Note_on_c, 9, 82, 67
10, 2030, Note_off_c, 9, 82, 79
10, 2033, Note_off_c, 9, 42, 84
10, 2041, Note_off_c, 9, 38, 57
10, 2045, Note_off_c, 9, 36, 46
10, 2055, Note_off_c, 9, 57, 32
10, 2064, Note_on_c, 9, 42, 56
10, 2068, Note_on_c, 9, 82, 71
10, 2078, Note_off_c, 9, 42, 92
10, 2079, Note_off_c, 9, 82, 88
10, 2088, Note_on_c, 9, 38, 70
10, 2108, Note_off_c, 9, 38, 75
10, 2112, Note_on_c, 9, 36, 122
10, 2112, Note_on_c, 9, 42, 64
10, 2114, Note_on_c, 9, 82, 66
10, 2127, Note_off_c, 9, 82, 82
10, 2129, Note_off_c, 9, 42, 90
10, 2137, Note_off_c, 9, 36, 63
10, 2160, Note_on_c, 9, 42, 58
10, 2163, Note_on_c, 9, 82, 69
10, 2176, Note_off_c, 9, 82, 86
10, 2177, Note_off_c, 9, 42, 94
10, 2208, Note_off_c, 9, 47, 118
10, 2208, Note_on_c, 9, 42, 64
10, 2208, Note_on_c, 9, 38, 100
10, 2212, Note_on_c, 9, 82, 69
10, 2222, Note_off_c, 9, 82, 94
10, 2227, Note_off_c, 9, 42, 96
10, 2233, Note_off_c, 9, 38, 57
10, 2256, Note_on_c, 9, 42, 58
10, 2256, Note_on_c, 9, 47, 127
10, 2259, Note_on_c, 9, 82, 69
10, 2271, Note_off_c, 9, 82, 79
10, 2272, Note_off_c, 9, 42, 103
10, 2303, Note_on_c, 9, 57, 68
10, 2304, Note_on_c, 9, 36, 122
10, 2304, Note_on_c, 9, 42, 67
10, 2309, Note_on_c, 9, 82, 67
10, 2321, Note_off_c, 9, 82, 80
10, 2321, Note_off_c, 9, 42, 88
10, 2324, Note_off_c, 9, 36, 90
10, 2352, Note_on_c, 9, 36, 118
10, 2352, Note_on_c, 9, 42, 58
10, 2355, Note_on_c, 9, 82, 69
10, 2368, Note_off_c, 9, 36, 92
10, 2369, Note_off_c, 9, 82, 101
10, 2369, Note_off_c, 9, 42, 99
10, 2400, Note_on_c, 9, 36, 121
10, 2400, Note_on_c, 9, 42, 61
10, 2400, Note_on_c, 9, 38, 100
10, 2405, Note_on_c, 9, 82, 69
10, 2418, Note_off_c, 9, 82, 88
10, 2418, Note_off_c, 9, 42, 84
10, 2426, Note_off_c, 9, 38, 62
10, 2433, Note_off_c, 9, 36, 46
10, 2448, Note_on_c, 9, 42, 63
10, 2452, Note_on_c, 9, 82, 67
10, 2465, Note_off_c, 9, 82, 90
10, 2467, Note_off_c, 9, 42, 96
10, 2472, Note_on_c, 9, 38, 70
10, 2491, Note_off_c, 9, 38, 73
10, 2496, Note_on_c, 9, 42, 52
10, 2496, Note_on_c, 9, 36, 121
10, 2498, Note_on_c, 9, 82, 63
10, 2511, Note_off_c, 9, 82, 88
10, 2515, Note_off_c, 9, 42, 94
10, 2521, Note_off_c, 9, 36, 70
10, 2544, Note_on_c, 9, 82, 64
10, 2544, Note_on_c, 9, 42, 58
10, 2558, Note_off_c, 9, 82, 94
10, 2561, Note_off_c, 9, 42, 84
10, 2586, Note_off_c, 9, 47, 115
10, 2592, Note_on_c, 9, 42, 63
10, 2592, Note_on_c, 9, 38, 105
10, 2594, Note_on_c, 9, 82, 71
10, 2606, Note_off_c, 9, 82, 92
10, 2608, Note_off_c, 9, 42, 92
10, 2618, Note_off_c, 9, 38, 54
10, 2640, Note_on_c, 9, 82, 64
10, 2640, Note_on_c, 9, 42, 58
10, 2640, Note_on_c, 9, 47, 127
10, 2651, Note_off_c, 9, 57, 69
10, 2653, Note_off_c, 9, 82, 88
10, 2657, Note_off_c, 9, 42, 96
10, 2688, Note_on_c, 9, 36, 122
10, 2688, Note_on_c, 9, 42, 71
10, 2690, Note_on_c, 9, 82, 69
10, 2702, Note_off_c, 9, 82, 92
10, 2705, Note_off_c, 9, 42, 90
10, 2707, Note_off_c, 9, 36, 86
10, 2736, Note_on_c, 9, 36, 118
10, 2736, Note_on_c, 9, 42, 60
10, 2739, Note_on_c, 9, 82, 69
10, 2750, Note_off_c, 9, 82, 94
10, 2752, Note_off_c, 9, 42, 90
10, 2752, Note_off_c, 9, 36, 106
10, 2784, Note_on_c, 9, 42, 67
10, 2784, Note_on_c, 9, 36, 111
10, 2784, Note_on_c, 9, 38, 96
10, 2788, Note_on_c, 9, 82, 71
10, 2800, Note_off_c, 9, 82, 86
10, 2803, Note_off_c, 9, 42, 88
10, 2805, Note_off_c, 9, 38, 55
10, 2823, Note_off_c, 9, 36, 66
10, 2832, Note_on_c, 9, 42, 58
10, 2835, Note_on_c, 9, 82, 67
10, 2847, Note_off_c, 9, 42, 94
10, 2850, Note_off_c, 9, 82, 94
10, 2856, Note_on_c, 9, 38, 70
10, 2873, Note_off_c, 9, 38, 88
10, 2880, Note_on_c, 9, 42, 57
10, 2880, Note_on_c, 9, 36, 113
10, 2884, Note_on_c, 9, 82, 67
10, 2897, Note_off_c, 9, 82, 92
10, 2897, Note_off_c, 9, 42, 88
10, 2909, Note_off_c, 9, 36, 69
10, 2928, Note_on_c, 9, 42, 63
10, 2930, Note_on_c, 9, 82, 66
10, 2941, Note_off_c, 9, 42, 92
10, 2943, Note_off_c, 9, 82, 90
10, 2965, Note_off_c, 9, 47, 106
10, 2976, Note_on_c, 9, 42, 63
10, 2976, Note_on_c, 9, 38, 100
10, 2978, Note_on_c, 9, 82, 66
10, 2991, Note_off_c, 9, 82, 82
10, 2992, Note_off_c, 9, 42, 88
10, 2997, Note_off_c, 9, 38, 70
10, 3024, Note_on_c, 9, 47, 127
10, 3024, Note_on_c, 9, 42, 58
10, 3026, Note_on_c, 9, 82, 64
10, 3040, Note_off_c, 9, 42, 92
10, 3041, Note_off_c, 9, 82, 90
10, 3072, Note_on_c, 9, 82, 67
10, 3072, Note_on_c, 9, 42, 61
10, 3072, Note_on_c, 9, 36, 118
10, 3085, Note_off_c, 9, 82, 96
10, 3088, Note_off_c, 9, 42, 94
10, 3089, Note_off_c, 9, 36, 84
10, 3119, Note_on_c, 9, 82, 64
10, 3120, Note_on_c, 9, 42, 61
10, 3120, Note_on_c, 9, 36, 109
10, 3130, Note_off_c, 9, 82, 86
10, 3134, Note_off_c, 9, 36, 101
10, 3138, Note_off_c, 9, 42, 94
10, 3166, Note_on_c, 9, 82, 69
10, 3168, Note_on_c, 9, 42, 64
10, 3168, Note_on_c, 9, 36, 115
10, 3168, Note_on_c, 9, 38, 100
10, 3179, Note_off_c, 9, 82, 96
10, 3187, Note_off_c, 9, 42, 92
10, 3192, Note_off_c, 9, 38, 63
10, 3196, Note_off_c, 9, 36, 47
10, 3216, Note_on_c, 9, 42, 55
10, 3218, Note_on_c, 9, 82, 71
10, 3232, Note_off_c, 9, 82, 92
10, 3233, Note_off_c, 9, 42, 86
10, 3240, Note_on_c, 9, 38, 70
10, 3257, Note_off_c, 9, 38, 88
10, 3264, Note_on_c, 9, 42, 61
10, 3264, Note_on_c, 9, 36, 122
10, 3266, Note_on_c, 9, 82, 69
10, 3280, Note_off_c, 9, 82, 96
10, 3281, Note_off_c, 9, 42, 99
10, 3283, Note_off_c, 9, 36, 67
10, 3312, Note_on_c, 9, 42, 58
10, 3317, Note_on_c, 9, 82, 69
10, 3329, Note_off_c, 9, 82, 88
10, 3330, Note_off_c, 9, 42, 92
10, 3360, Note_off_c, 9, 47, 118
10, 3360, Note_on_c, 9, 42, 60
10, 3360, Note_on_c, 9, 38, 100
10, 3362, Note_on_c, 9, 82, 71
10, 3375, Note_off_c, 9, 82, 84
10, 3377, Note_off_c, 9, 42, 92
10, 3382, Note_off_c, 9, 38, 62
10, 3408, Note_on_c, 9, 42, 58
10, 3408, Note_on_c, 9, 47, 127
10, 3412, Note_on_c, 9, 82, 69
10, 3425, Note_off_c, 9, 42, 92
10, 3427, Note_off_c, 9, 82, 88
10, 3456, Note_on_c, 9, 42, 63
10, 3456, Note_on_c, 9, 36, 122
10, 3459, Note_on_c, 9, 82, 69
10, 3472, Note_off_c, 9, 42, 96
10, 3473, Note_off_c, 9, 82, 92
10, 3475, Note_off_c, 9, 36, 92
10, 3504, Note_on_c, 9, 36, 109
10, 3504, Note_on_c, 9, 42, 55
10, 3507, Note_on_c, 9, 82, 69
10, 3518, Note_off_c, 9, 42, 94
10, 3519, Note_off_c, 9, 36, 80
10, 3521, Note_off_c, 9, 82, 92
10, 3552, Note_on_c, 9, 42, 66
10, 3552, Note_on_c, 9, 36, 122
10, 3552, Note_on_c, 9, 38, 100
10, 3555, Note_on_c, 9, 82, 66
10, 3567, Note_off_c, 9, 42, 96
10, 3568, Note_off_c, 9, 82, 90
10, 3574, Note_off_c, 9, 36, 62
10, 3576, Note_off_c, 9, 38, 58
10, 3600, Note_on_c, 9, 42, 58
10, 3604, Note_on_c, 9, 82, 69
10, 3613, Note_off_c, 9, 42, 96
10, 3617, Note_off_c, 9, 82, 82
10, 3624, Note_on_c, 9, 38, 70
10, 3645, Note_off_c, 9, 38, 53
10, 3648, Note_on_c, 9, 82, 74
10, 3648, Note_on_c, 9, 42, 63
10, 3648, Note_on_c, 9, 36, 122
10, 3662, Note_off_c, 9, 82, 92
10, 3664, Note_off_c, 9, 42, 90
10, 3671, Note_off_c, 9, 36, 61
10, 3696, Note_on_c, 9, 82, 69
10, 3696, Note_on_c, 9, 46, 90
10, 3708, Note_off_c, 9, 46, 92
10, 3711, Note_off_c, 9, 82, 82
10, 3715, Note_off_c, 9, 47, 94
10, 3743, Note_on_c, 9, 57, 74
10, 3744, Note_on_c, 9, 38, 100
10, 3744, Note_on_c, 9, 42, 66
10, 3746, Note_on_c, 9, 82, 71
10, 3758, Note_off_c, 9, 82, 86
10, 3760, Note_off_c, 9, 42, 96
10, 3770, Note_off_c, 9, 38, 57
10, 3790, Note_on_c, 9, 52, 50
10, 3792, Note_on_c, 9, 47, 127
10, 3792, Note_on_c, 9, 42, 66
10, 3796, Note_on_c, 9, 82, 71
10, 3807, Note_off_c, 9, 82, 84
10, 3810, Note_off_c, 9, 42, 103
10, 3840, Note_on_c, 9, 36, 122
10, 3840, Note_on_c, 9, 42, 69
10, 3841, Note_off_c, 9, 47, 108
10, 3843, Note_on_c, 9, 82, 64
10, 3850, Note_off_c, 9, 57, 79
10, 3856, Note_off_c, 9, 82, 80
10, 3857, Note_off_c, 9, 36, 88
10, 3858, Note_off_c, 9, 42, 99
10, 3883, Note_off_c, 9, 52, 99
10, 3888, Note_on_c, 9, 36, 118
10, 3888, Note_on_c, 9, 42, 64
10, 3891, Note_on_c, 9, 82, 64
10, 3905, Note_off_c, 9, 36, 99
10, 3906, Note_off_c, 9, 82, 77
10, 3906, Note_off_c, 9, 42, 99
10, 3936, Note_on_c, 9, 36, 122
10, 3936, Note_on_c, 9, 42, 69
10, 3936, Note_on_c, 9, 38, 92
10, 3939, Note_on_c, 9, 82, 61
10, 3954, Note_off_c, 9, 82, 80
10, 3955, Note_off_c, 9, 42, 101
10, 3959, Note_off_c, 9, 38, 84
10, 3963, Note_off_c, 9, 36, 53
10, 3984, Note_on_c, 9, 42, 64
10, 3989, Note_on_c, 9, 82, 61
10, 4001, Note_off_c, 9, 42, 99
10, 4004, Note_off_c, 9, 82, 84
10, 4008, Note_on_c, 9, 38, 70
10, 4024, Note_off_c, 9, 38, 99
10, 4032, Note_on_c, 9, 36, 122
10, 4032, Note_on_c, 9, 42, 56
10, 4035, Note_on_c, 9, 82, 64
10, 4048, Note_off_c, 9, 42, 96
10, 4049, Note_off_c, 9, 82, 80
10, 4058, Note_off_c, 9, 36, 35
10, 4080, Note_on_c, 9, 42, 60
10, 4082, Note_on_c, 9, 82, 69
10, 4096, Note_off_c, 9, 82, 90
10, 4099, Note_off_c, 9, 42, 96
10, 4128, Note_on_c, 9, 42, 63
10, 4128, Note_on_c, 9, 38, 105
10, 4132, Note_on_c, 9, 82, 66
10, 4145, Note_off_c, 9, 82, 90
10, 4147, Note_off_c, 9, 42, 90
10, 4149, Note_off_c, 9, 38, 67
10, 4176, Note_on_c, 9, 47, 124
10, 4176, Note_on_c, 9, 42, 52
10, 4182, Note_on_c, 9, 82, 66
10, 4194, Note_off_c, 9, 82, 92
10, 4194, Note_off_c, 9, 42, 101
10, 4224, Note_on_c, 9, 42, 61
10, 4224, Note_on_c, 9, 36, 122
10, 4227, Note_on_c, 9, 82, 64
10, 4240, Note_off_c, 9, 82, 90
10, 4241, Note_off_c, 9, 36, 106
10, 4244, Note_off_c, 9, 42, 94
10, 4272, Note_on_c, 9, 42, 63
10, 4272, Note_on_c, 9, 36, 115
10, 4275, Note_on_c, 9, 82, 66
10, 4287, Note_off_c, 9, 82, 90
10, 4287, Note_off_c, 9, 36, 101
10, 4290, Note_off_c, 9, 42, 94
10, 4320, Note_on_c, 9, 42, 63
10, 4320, Note_on_c, 9, 36, 122
10, 4320, Note_on_c, 9, 38, 96
10, 4323, Note_on_c, 9, 82, 66
10, 4336, Note_off_c, 9, 82, 92
10, 4337, Note_off_c, 9, 42, 94
10, 4342, Note_off_c, 9, 36, 66
10, 4345, Note_off_c, 9, 38, 67
10, 4368, Note_on_c, 9, 42, 63
10, 4371, Note_on_c, 9, 82, 66
10, 4383, Note_off_c, 9, 42, 92
10, 4384, Note_off_c, 9, 82, 88
10, 4392, Note_on_c, 9, 38, 70
10, 4412, Note_off_c, 9, 38, 77
10, 4416, Note_on_c, 9, 42, 64
10, 4416, Note_on_c, 9, 36, 122
10, 4418, Note_on_c, 9, 82, 64
10, 4431, Note_off_c, 9, 82, 90
10, 4434, Note_off_c, 9, 42, 88
10, 4438, Note_off_c, 9, 36, 52
10, 4464, Note_on_c, 9, 42, 63
10, 4466, Note_on_c, 9, 82, 67
10, 4479, Note_off_c, 9, 82, 90
10, 4482, Note_off_c, 9, 42, 90
10, 4512, Note_on_c, 9, 38, 105
10, 4512, Note_on_c, 9, 42, 64
10, 4513, Note_off_c, 9, 47, 99
10, 4515, Note_on_c, 9, 82, 66
10, 4529, Note_off_c, 9, 82, 86
10, 4531, Note_off_c, 9, 42, 92
10, 4537, Note_off_c, 9, 38, 69
10, 4560, Note_on_c, 9, 47, 124
10, 4560, Note_on_c, 9, 42, 51
10, 4564, Note_on_c, 9, 82, 69
10, 4576, Note_off_c, 9, 42, 94
10, 4578, Note_off_c, 9, 82, 90
10, 4608, Note_on_c, 9, 42, 61
10, 4608, Note_on_c, 9, 36, 122
10, 4610, Note_on_c, 9, 82, 67
10, 4624, Note_off_c, 9, 82, 96
10, 4625, Note_off_c, 9, 36, 96
10, 4627, Note_off_c, 9, 42, 94
10, 4656, Note_on_c, 9, 42, 60
10, 4656, Note_on_c, 9, 36, 113
10, 4660, Note_on_c, 9, 82, 61
10, 4671, Note_off_c, 9, 82, 103
10, 4673, Note_off_c, 9, 36, 111
10, 4674, Note_off_c, 9, 42, 90
10, 4704, Note_on_c, 9, 42, 63
10, 4704, Note_on_c, 9, 36, 118
10, 4704, Note_on_c, 9, 38, 100
10, 4707, Note_on_c, 9, 82, 67
10, 4719, Note_off_c, 9, 82, 92
10, 4724, Note_off_c, 9, 42, 96
10, 4727, Note_off_c, 9, 36, 77
10, 4731, Note_off_c, 9, 38, 70
10, 4752, Note_on_c, 9, 82, 74
10, 4752, Note_on_c, 9, 42, 63
10, 4766, Note_off_c, 9, 82, 94
10, 4769, Note_off_c, 9, 42, 101
10, 4776, Note_on_c, 9, 38, 70
10, 4797, Note_off_c, 9, 38, 82
10, 4800, Note_on_c, 9, 82, 67
10, 4800, Note_on_c, 9, 42, 66
10, 4800, Note_on_c, 9, 36, 122
10, 4812, Note_off_c, 9, 82, 88
10, 4816, Note_off_c, 9, 42, 94
10, 4826, Note_off_c, 9, 36, 62
10, 4848, Note_on_c, 9, 42, 60
10, 4850, Note_on_c, 9, 82, 66
10, 4862, Note_off_c, 9, 82, 63
10, 4865, Note_off_c, 9, 42, 92
10, 4896, Note_on_c, 9, 42, 64
10, 4896, Note_on_c, 9, 38, 105
10, 4899, Note_off_c, 9, 47, 111
10, 4899, Note_on_c, 9, 82, 64
10, 4911, Note_off_c, 9, 82, 92
10, 4912, Note_off_c, 9, 42, 88
10, 4920, Note_off_c, 9, 38, 62
10, 4944, Note_on_c, 9, 47, 124
10, 4944, Note_on_c, 9, 42, 61
10, 4948, Note_on_c, 9, 82, 66
10, 4959, Note_off_c, 9, 82, 84
10, 4959, Note_off_c, 9, 42, 99
10, 4992, Note_on_c, 9, 36, 122
10, 4992, Note_on_c, 9, 42, 67
10, 4995, Note_on_c, 9, 82, 71
10, 5007, Note_off_c, 9, 82, 90
10, 5007, Note_off_c, 9, 42, 86
10, 5010, Note_off_c, 9, 36, 99
10, 5040, Note_on_c, 9, 82, 69
10, 5040, Note_on_c, 9, 36, 115
10, 5040, Note_on_c, 9, 42, 61
10, 5053, Note_off_c, 9, 82, 82
10, 5055, Note_off_c, 9, 42, 96
10, 5057, Note_off_c, 9, 36, 106
10, 5088, Note_on_c, 9, 36, 122
10, 5088, Note_on_c, 9, 42, 67
10, 5088, Note_on_c, 9, 38, 100
10, 5091, Note_on_c, 9, 82, 67
10, 5102, Note_off_c, 9, 82, 79
10, 5105, Note_off_c, 9, 42, 84
10, 5113, Note_off_c, 9, 38, 57
10, 5117, Note_off_c, 9, 36, 46
10, 5136, Note_on_c, 9, 42, 56
10, 5140, Note_on_c, 9, 82, 71
10, 5150, Note_off_c, 9, 42, 92
10, 5151, Note_off_c, 9, 82, 88
10, 5160, Note_on_c, 9, 38, 70
10, 5180, Note_off_c, 9, 38, 75
10, 5184, Note_on_c, 9, 36, 122
10, 5184, Note_on_c, 9, 42, 64
10, 5186, Note_on_c, 9, 82, 66
10, 5199, Note_off_c, 9, 82, 82
10, 5201, Note_off_c, 9, 42, 90
10, 5209, Note_off_c, 9, 36, 63
10, 5232, Note_on_c, 9, 46, 90
10, 5235, Note_on_c, 9, 82, 69
10, 5248, Note_off_c, 9, 82, 86
10, 5249, Note_off_c, 9, 46, 94
10, 5280, Note_off_c, 9, 47, 118
10, 5280, Note_on_c, 9, 57, 80
10, 5280, Note_on_c, 9, 42, 64
10, 5280, Note_on_c, 9, 38, 100
10, 5284, Note_on_c, 9, 82, 69
10, 5294, Note_off_c, 9, 82, 94
10, 5299, Note_off_c, 9, 42, 96
10, 5305, Note_off_c, 9, 38, 57
10, 5328, Note_on_c, 9, 42, 58
10, 5328, Note_on_c, 9, 47, 127
10, 5331, Note_on_c, 9, 82, 69
10, 5343, Note_off_c, 9, 82, 79
10, 5344, Note_off_c, 9, 42, 103
10, 5376, Note_on_c, 9, 36, 122
10, 5376, Note_on_c, 9, 42, 67
10, 5381, Note_on_c, 9, 82, 67
10, 5393, Note_off_c, 9, 82, 80
10, 5393, Note_off_c, 9, 42, 88
10, 5396, Note_off_c, 9, 36, 90
10, 5419, Note_off_c, 9, 57, 77
10, 5424, Note_on_c, 9, 36, 118
10, 5424, Note_on_c, 9, 42, 58
10, 5427, Note_on_c, 9, 82, 69
10, 5440, Note_off_c, 9, 36, 92
10, 5441, Note_off_c, 9, 82, 101
10, 5441, Note_off_c, 9, 42, 99
10, 5472, Note_on_c, 9, 36, 121
10, 5472, Note_on_c, 9, 42, 61
10, 5472, Note_on_c, 9, 38, 100
10, 5477, Note_on_c, 9, 82, 69
10, 5490, Note_off_c, 9, 82, 88
10, 5490, Note_off_c, 9, 42, 84
10, 5498, Note_off_c, 9, 38, 62
10, 5505, Note_off_c, 9, 36, 46
10, 5520, Note_on_c, 9, 42, 63
10, 5524, Note_on_c, 9, 82, 67
10, 5537, Note_off_c, 9, 82, 90
10, 5539, Note_off_c, 9, 42, 96
10, 5544, Note_on_c, 9, 38, 70
10, 5563, Note_off_c, 9, 38, 73
10, 5568, Note_on_c, 9, 42, 52
10, 5568, Note_on_c, 9, 36, 121
10, 5570, Note_on_c, 9, 82, 63
10, 5583, Note_off_c, 9, 82, 88
10, 5587, Note_off_c, 9, 42, 94
10, 5593, Note_off_c, 9, 36, 70
10, 5616, Note_on_c, 9, 82, 64
10, 5616, Note_on_c, 9, 42, 58
10, 5630, Note_off_c, 9, 82, 94
10, 5633, Note_off_c, 9, 42, 84
10, 5658, Note_off_c, 9, 47, 115
10, 5664, Note_on_c, 9, 42, 63
10, 5664, Note_on_c, 9, 38, 105
10, 5666, Note_on_c, 9, 82, 71
10, 5678, Note_off_c, 9, 82, 92
10, 5680, Note_off_c, 9, 42, 92
10, 5690, Note_off_c, 9, 38, 54
10, 5712, Note_on_c, 9, 82, 64
10, 5712, Note_on_c, 9, 42, 58
10, 5712, Note_on_c, 9, 47, 127
10, 5714, Note_on_c, 9, 57, 86
10, 5725, Note_off_c, 9, 82, 88
10, 5729, Note_off_c, 9, 42, 96
10, 5760, Note_on_c, 9, 36, 122
10, 5760, Note_on_c, 9, 42, 71
10, 5762, Note_on_c, 9, 82, 69
10, 5774, Note_off_c, 9, 82, 92
10, 5777, Note_off_c, 9, 42, 90
10, 5779, Note_off_c, 9, 36, 86
10, 5808, Note_on_c, 9, 36, 118
10, 5808, Note_on_c, 9, 42, 60
10, 5811, Note_on_c, 9, 82, 69
10, 5822, Note_off_c, 9, 82, 94
10, 5824, Note_off_c, 9, 42, 90
10, 5824, Note_off_c, 9, 36, 106
10, 5841, Note_off_c, 9, 57, 75
10, 5856, Note_on_c, 9, 42, 67
10, 5856, Note_on_c, 9, 36, 111
10, 5856, Note_on_c, 9, 38, 96
10, 5860, Note_on_c, 9, 82, 71
10, 5872, Note_off_c, 9, 82, 86
10, 5875, Note_off_c, 9, 42, 88
10, 5877, Note_off_c, 9, 38, 55
10, 5895, Note_off_c, 9, 36, 66
10, 5904, Note_on_c, 9, 42, 58
10, 5907, Note_on_c, 9, 82, 67
10, 5919, Note_off_c, 9, 42, 94
10, 5922, Note_off_c, 9, 82, 94
10, 5928, Note_on_c, 9, 38, 70
10, 5945, Note_off_c, 9, 38, 88
10, 5952, Note_on_c, 9, 42, 57
10, 5952, Note_on_c, 9, 36, 113
10, 5956, Note_on_c, 9, 82, 67
10, 5969, Note_off_c, 9, 82, 92
10, 5969, Note_off_c, 9, 42, 88
10, 5981, Note_off_c, 9, 36, 69
10, 6000, Note_on_c, 9, 42, 63
10, 6002, Note_on_c, 9, 82, 66
10, 6013, Note_off_c, 9, 42, 92
10, 6015, Note_off_c, 9, 82, 90
10, 6037, Note_off_c, 9, 47, 106
10, 6048, Note_on_c, 9, 42, 63
10, 6048, Note_on_c, 9, 38, 100
10, 6050, Note_on_c, 9, 82, 66
10, 6063, Note_off_c, 9, 82, 82
10, 6064, Note_off_c, 9, 42, 88
10, 6069, Note_off_c, 9, 38, 70
10, 6096, Note_on_c, 9, 47, 127
10, 6096, Note_on_c, 9, 42, 58
10, 6098, Note_on_c, 9, 82, 64
10, 6112, Note_off_c, 9, 42, 92
10, 6113, Note_off_c, 9, 82, 90
10, 6144, Note_on_c, 9, 82, 67
10, 6144, Note_on_c, 9, 42, 61
10, 6144, Note_on_c, 9, 36, 118
10, 6157, Note_off_c, 9, 82, 96
10, 6160, Note_off_c, 9, 42, 94
10, 6161, Note_off_c, 9, 36, 84
10, 6191, Note_on_c, 9, 82, 64
10, 6192, Note_on_c, 9, 42, 61
10, 6192, Note_on_c, 9, 36, 109
10, 6202, Note_off_c, 9, 82, 86
10, 6206, Note_off_c, 9, 36, 101
10, 6210, Note_off_c, 9, 42, 94
10, 6238, Note_on_c, 9, 82, 69
10, 6240, Note_on_c, 9, 42, 64
10, 6240, Note_on_c, 9, 36, 115
10, 6240, Note_on_c, 9, 38, 100
10, 6251, Note_off_c, 9, 82, 96
10, 6259, Note_off_c, 9, 42, 92
10, 6264, Note_off_c, 9, 38, 63
10, 6268, Note_off_c, 9, 36, 47
10, 6288, Note_on_c, 9, 42, 55
10, 6290, Note_on_c, 9, 82, 71
10, 6304, Note_off_c, 9, 82, 92
10, 6305, Note_off_c, 9, 42, 86
10, 6312, Note_on_c, 9, 38, 70
10, 6329, Note_off_c, 9, 38, 88
10, 6336, Note_on_c, 9, 42, 61
10, 6336, Note_on_c, 9, 36, 122
10, 6338, Note_on_c, 9, 82, 69
10, 6352, Note_off_c, 9, 82, 96
10, 6353, Note_off_c, 9, 42, 99
10, 6355, Note_off_c, 9, 36, 67
10, 6384, Note_on_c, 9, 42, 58
10, 6389, Note_on_c, 9, 82, 69
10, 6401, Note_off_c, 9, 82, 88
10, 6402, Note_off_c, 9, 42, 92
10, 6432, Note_off_c, 9, 47, 118
10, 6432, Note_on_c, 9, 42, 60
10, 6432, Note_on_c, 9, 38, 100
10, 6434, Note_on_c, 9, 82, 71
10, 6447, Note_off_c, 9, 82, 84
10, 6449, Note_off_c, 9, 42, 92
10, 6454, Note_off_c, 9, 38, 62
10, 6479, Note_on_c, 9, 57, 74
10, 6480, Note_on_c, 9, 42, 58
10, 6480, Note_on_c, 9, 47, 127
10, 6484, Note_on_c, 9, 82, 69
10, 6497, Note_off_c, 9, 42, 92
10, 6499, Note_off_c, 9, 82, 88
10, 6528, Note_on_c, 9, 42, 63
10, 6528, Note_on_c, 9, 36, 122
10, 6531, Note_on_c, 9, 82, 69
10, 6544, Note_off_c, 9, 42, 96
10, 6545, Note_off_c, 9, 82, 92
10, 6547, Note_off_c, 9, 36, 92
10, 6576, Note_on_c, 9, 36, 109
10, 6576, Note_on_c, 9, 42, 55
10, 6579, Note_on_c, 9, 82, 69
10, 6590, Note_off_c, 9, 42, 94
10, 6591, Note_off_c, 9, 36, 80
10, 6593, Note_off_c, 9, 82, 92
10, 6624, Note_on_c, 9, 42, 66
10, 6624, Note_on_c, 9, 36, 122
10, 6624, Note_on_c, 9, 38, 100
10, 6627, Note_on_c, 9, 82, 66
10, 6639, Note_off_c, 9, 42, 96
10, 6640, Note_off_c, 9, 82, 90
10, 6646, Note_off_c, 9, 36, 62
10, 6648, Note_off_c, 9, 38, 58
10, 6672, Note_on_c, 9, 42, 58
10, 6676, Note_on_c, 9, 82, 69
10, 6685, Note_off_c, 9, 42, 96
10, 6689, Note_off_c, 9, 82, 82
10, 6696, Note_on_c, 9, 38, 70
10, 6717, Note_off_c, 9, 38, 53
10, 6720, Note_on_c, 9, 82, 74
10, 6720, Note_on_c, 9, 42, 63
10, 6720, Note_on_c, 9, 36, 122
10, 6734, Note_off_c, 9, 82, 92
10, 6736, Note_off_c, 9, 42, 90
10, 6743, Note_off_c, 9, 36, 61
10, 6747, Note_off_c, 9, 57, 8
10, 6768, Note_on_c, 9, 82, 69
10, 6768, Note_on_c, 9, 42, 90
10, 6780, Note_off_c, 9, 42, 92
10, 6783, Note_off_c, 9, 82, 82
10, 6787, Note_off_c, 9, 47, 94
10, 6816, Note_on_c, 9, 38, 100
10, 6816, Note_on_c, 9, 42, 66
10, 6818, Note_on_c, 9, 82, 71
10, 6830, Note_off_c, 9, 82, 86
10, 6832, Note_off_c, 9, 42, 96
10, 6842, Note_off_c, 9, 38, 57
10, 6864, Note_on_c, 9, 47, 127
10, 6864, Note_on_c, 9, 42, 66
10, 6868, Note_on_c, 9, 82, 71
10, 6879, Note_off_c, 9, 82, 84
10, 6882, Note_off_c, 9, 42, 103
10, 6912, Note_on_c, 9, 36, 122
10, 6912, Note_on_c, 9, 42, 67
10, 6913, Note_off_c, 9, 47, 108
10, 6917, Note_on_c, 9, 82, 67
10, 6929, Note_off_c, 9, 82, 80
10, 6929, Note_off_c, 9, 42, 88
10, 6932, Note_off_c, 9, 36, 90
10, 6960, Note_on_c, 9, 36, 118
10, 6960, Note_on_c, 9, 42, 58
10, 6963, Note_on_c, 9, 82, 69
10, 6976, Note_off_c, 9, 36, 92
10, 6977, Note_off_c, 9, 82, 101
10, 6977, Note_off_c, 9, 42, 99
10, 7008, Note_on_c, 9, 36, 121
10, 7008, Note_on_c, 9, 42, 61
10, 7008, Note_on_c, 9, 38, 100
10, 7013, Note_on_c, 9, 82, 69
10, 7026, Note_off_c, 9, 82, 88
10, 7026, Note_off_c, 9, 42, 84
10, 7034, Note_off_c, 9, 38, 62
10, 7041, Note_off_c, 9, 36, 46
10, 7056, Note_on_c, 9, 42, 63
10, 7060, Note_on_c, 9, 82, 67
10, 7073, Note_off_c, 9, 82, 90
10, 7075, Note_off_c, 9, 42, 96
10, 7080, Note_on_c, 9, 38, 70
10, 7099, Note_off_c, 9, 38, 73
10, 7104, Note_on_c, 9, 42, 52
10, 7104, Note_on_c, 9, 36, 121
10, 7106, Note_on_c, 9, 82, 63
10, 7119, Note_off_c, 9, 82, 88
10, 7123, Note_off_c, 9, 42, 94
10, 7129, Note_off_c, 9, 36, 70
10, 7152, Note_on_c, 9, 82, 64
10, 7152, Note_on_c, 9, 42, 58
10, 7166, Note_off_c, 9, 82, 94
10, 7169, Note_off_c, 9, 42, 84
10, 7200, Note_on_c, 9, 42, 63
10, 7200, Note_on_c, 9, 38, 105
10, 7202, Note_on_c, 9, 82, 71
10, 7214, Note_off_c, 9, 82, 92
10, 7216, Note_off_c, 9, 42, 92
10, 7226, Note_off_c, 9, 38, 54
10, 7248, Note_on_c, 9, 57, 76
10, 7248, Note_on_c, 9, 82, 64
10, 7248, Note_on_c, 9, 42, 58
10, 7248, Note_on_c, 9, 47, 127
10, 7261, Note_off_c, 9, 82, 88
10, 7265, Note_off_c, 9, 42, 96
10, 7296, Note_on_c, 9, 36, 122
10, 7296, Note_on_c, 9, 42, 71
10, 7298, Note_on_c, 9, 82, 69
10, 7310, Note_off_c, 9, 82, 92
10, 7313, Note_off_c, 9, 42, 90
10, 7315, Note_off_c, 9, 36, 86
10, 7344, Note_on_c, 9, 36, 118
10, 7344, Note_on_c, 9, 42, 60
10, 7347, Note_on_c, 9, 82, 69
10, 7358, Note_off_c, 9, 82, 94
10, 7360, Note_off_c, 9, 42, 90
10, 7360, Note_off_c, 9, 36, 106
10, 7392, Note_on_c, 9, 42, 67
10, 7392, Note_on_c, 9, 36, 111
10, 7392, Note_on_c, 9, 38, 96
10, 7396, Note_on_c, 9, 82, 71
10, 7408, Note_off_c, 9, 82, 86
10, 7411, Note_off_c, 9, 42, 88
10, 7413, Note_off_c, 9, 38, 55
10, 7431, Note_off_c, 9, 36, 66
10, 7440, Note_on_c, 9, 42, 58
10, 7443, Note_on_c, 9, 82, 67
10, 7455, Note_off_c, 9, 42, 94
10, 7458, Note_off_c, 9, 82, 94
10, 7464, Note_on_c, 9, 38, 70
10, 7471, Note_off_c, 9, 57, 20
10, 7481, Note_off_c, 9, 38, 88
10, 7488, Note_on_c, 9, 42, 57
10, 7488, Note_on_c, 9, 36, 113
10, 7492, Note_on_c, 9, 82, 67
10, 7505, Note_off_c, 9, 82, 92
10, 7505, Note_off_c, 9, 42, 88
10, 7517, Note_off_c, 9, 36, 69
10, 7536, Note_on_c, 9, 42, 63
10, 7538, Note_on_c, 9, 82, 66
10, 7549, Note_off_c, 9, 42, 92
10, 7551, Note_off_c, 9, 82, 90
10, 7573, Note_off_c, 9, 47, 106
10, 7584, Note_on_c, 9, 42, 63
10, 7584, Note_on_c, 9, 38, 100
10, 7586, Note_on_c, 9, 82, 66
10, 7599, Note_off_c, 9, 82, 82
10, 7600, Note_off_c, 9, 42, 88
10, 7605, Note_off_c, 9, 38, 70
10, 7632, Note_on_c, 9, 47, 127
10, 7632, Note_on_c, 9, 42, 58
10, 7634, Note_on_c, 9, 82, 64
10, 7648, Note_off_c, 9, 42, 92
10, 7649, Note_off_c, 9, 82, 90
10, 7680, Note_on_c, 9, 82, 67
10, 7680, Note_on_c, 9, 42, 61
10, 7680, Note_on_c, 9, 36, 118
10, 7693, Note_off_c, 9, 82, 96
10, 7696, Note_off_c, 9, 42, 94
10, 7697, Note_off_c, 9, 36, 84
10, 7727, Note_on_c, 9, 82, 64
10, 7728, Note_on_c, 9, 42, 61
10, 7728, Note_on_c, 9, 36, 109
10, 7738, Note_off_c, 9, 82, 86
10, 7742, Note_off_c, 9, 36, 101
10, 7746, Note_off_c, 9, 42, 94
10, 7774, Note_on_c, 9, 82, 69
10, 7776, Note_on_c, 9, 42, 64
10, 7776, Note_on_c, 9, 36, 115
10, 7776, Note_on_c, 9, 38, 100
10, 7787, Note_off_c, 9, 82, 96
10, 7795, Note_off_c, 9, 42, 92
10, 7800, Note_off_c, 9, 38, 63
10, 7804, Note_off_c, 9, 36, 47
10, 7824, Note_on_c, 9, 42, 55
10, 7826, Note_on_c, 9, 82, 71
10, 7840, Note_off_c, 9, 82, 92
10, 7841, Note_off_c, 9, 42, 86
10, 7848, Note_on_c, 9, 38, 70
10, 7865, Note_off_c, 9, 38, 88
10, 7872, Note_on_c, 9, 42, 61
10, 7872, Note_on_c, 9, 36, 122
10, 7874, Note_on_c, 9, 82, 69
10, 7888, Note_off_c, 9, 82, 96
10, 7889, Note_off_c, 9, 42, 99
10, 7891, Note_off_c, 9, 36, 67
10, 7920, Note_on_c, 9, 42, 58
10, 7925, Note_on_c, 9, 82, 69
10, 7937, Note_off_c, 9, 82, 88
10, 7938, Note_off_c, 9, 42, 92
10, 7968, Note_off_c, 9, 47, 118
10, 7968, Note_on_c, 9, 42, 60
10, 7968, Note_on_c, 9, 38, 100
10, 7970, Note_on_c, 9, 82, 71
10, 7983, Note_off_c, 9, 82, 84
10, 7985, Note_off_c, 9, 42, 92
10, 7990, Note_off_c, 9, 38, 62
10, 8016, Note_on_c, 9, 42, 58
10, 8016, Note_on_c, 9, 47, 127
10, 8018, Note_on_c, 9, 57, 66
10, 8020, Note_on_c, 9, 82, 69
10, 8033, Note_off_c, 9, 42, 92
10, 8035, Note_off_c, 9, 82, 88
10, 8064, Note_on_c, 9, 42, 63
10, 8064, Note_on_c, 9, 36, 122
10, 8067, Note_on_c, 9, 82, 69
10, 8080, Note_off_c, 9, 42, 96
10, 8081, Note_off_c, 9, 82, 92
10, 8083, Note_off_c, 9, 36, 92
10, 8112, Note_on_c, 9, 36, 109
10, 8112, Note_on_c, 9, 42, 55
10, 8115, Note_on_c, 9, 82, 69
10, 8126, Note_off_c, 9, 42, 94
10, 8127, Note_off_c, 9, 36, 80
10, 8129, Note_off_c, 9, 82, 92
10, 8160, Note_on_c, 9, 42, 66
10, 8160, Note_on_c, 9, 36, 122
10, 8160, Note_on_c, 9, 38, 100
10, 8163, Note_on_c, 9, 82, 66
10, 8175, Note_off_c, 9, 42, 96
10, 8176, Note_off_c, 9, 82, 90
10, 8182, Note_off_c, 9, 36, 62
10, 8184, Note_off_c, 9, 38, 58
10, 8208, Note_on_c, 9, 42, 58
10, 8212, Note_on_c, 9, 82, 69
10, 8213, Note_off_c, 9, 57, 67
10, 8221, Note_off_c, 9, 42, 96
10, 8225, Note_off_c, 9, 82, 82
10, 8232, Note_on_c, 9, 38, 70
10, 8253, Note_off_c, 9, 38, 53
10, 8256, Note_on_c, 9, 82, 74
10, 8256, Note_on_c, 9, 42, 63
10, 8256, Note_on_c, 9, 36, 122
10, 8270, Note_off_c, 9, 82, 92
10, 8272, Note_off_c, 9, 42, 90
10, 8279, Note_off_c, 9, 36, 61
10, 8304, Note_on_c, 9, 82, 69
10, 8304, Note_on_c, 9, 46, 90
10, 8316, Note_off_c, 9, 46, 92
10, 8319, Note_off_c, 9, 82, 82
10, 8323, Note_off_c, 9, 47, 94
10, 8351, Note_on_c, 9, 57, 74
10, 8352, Note_on_c, 9, 38, 100
10, 8352, Note_on_c, 9, 42, 66
10, 8354, Note_on_c, 9, 82, 71
10, 8366, Note_off_c, 9, 82, 86
10, 8368, Note_off_c, 9, 42, 96
10, 8378, Note_off_c, 9, 38, 57
10, 8398, Note_on_c, 9, 52, 50
10, 8400, Note_on_c, 9, 47, 127
10, 8400, Note_on_c, 9, 42, 66
10, 8404, Note_on_c, 9, 82, 71
10, 8415, Note_off_c, 9, 82, 84
10, 8418, Note_off_c, 9, 42, 103
10, 8448, Note_on_c, 9, 36, 122
10, 8448, Note_on_c, 9, 42, 69
10, 8449, Note_off_c, 9, 47, 108
10, 8451, Note_on_c, 9, 82, 64
10, 8458, Note_off_c, 9, 57, 79
10, 8464, Note_off_c, 9, 82, 80
10, 8465, Note_off_c, 9, 36, 88
10, 8466, Note_off_c, 9, 42, 99
10, 8491, Note_off_c, 9, 52, 99
10, 8496, Note_on_c, 9, 36, 118
10, 8496, Note_on_c, 9, 42, 64
10, 8499, Note_on_c, 9, 82, 64
10, 8513, Note_off_c, 9, 36, 99
10, 8514, Note_off_c, 9, 82, 77
10, 8514, Note_off_c, 9, 42, 99
10, 8544, Note_on_c, 9, 36, 122
10, 8544, Note_on_c, 9, 42, 69
10, 8544, Note_on_c, 9, 38, 92
10, 8547, Note_on_c, 9, 82, 61
10, 8562, Note_off_c, 9, 82, 80
10, 8563, Note_off_c, 9, 42, 101
10, 8567, Note_off_c, 9, 38, 84
10, 8571, Note_off_c, 9, 36, 53
10, 8592, Note_on_c, 9, 42, 64
10, 8597, Note_on_c, 9, 82, 61
10, 8609, Note_off_c, 9, 42, 99
10, 8612, Note_off_c, 9, 82, 84
10, 8616, Note_on_c, 9, 38, 70
10, 8632, Note_off_c, 9, 38, 99
10, 8640, Note_on_c, 9, 36, 122
10, 8640, Note_on_c, 9, 42, 56
10, 8643, Note_on_c, 9, 82, 64
10, 8656, Note_off_c, 9, 42, 96
10, 8657, Note_off_c, 9, 82, 80
10, 8666, Note_off_c, 9, 36, 35
10, 8688, Note_on_c, 9, 42, 60
10, 8690, Note_on_c, 9, 82, 69
10, 8704, Note_off_c, 9, 82, 90
10, 8707, Note_off_c, 9, 42, 96
10, 8736, Note_on_c, 9, 42, 63
10, 8736, Note_on_c, 9, 38, 105
10, 8740, Note_on_c, 9, 82, 66
10, 8753, Note_off_c, 9, 82, 90
10, 8755, Note_off_c, 9, 42, 90
10, 8757, Note_off_c, 9, 38, 67
10, 8784, Note_on_c, 9, 47, 124
10, 8784, Note_on_c, 9, 42, 52
10, 8790, Note_on_c, 9, 82, 66
10, 8802, Note_off_c, 9, 82, 92
10, 8802, Note_off_c, 9, 42, 101
10, 8832, Note_on_c, 9, 42, 61
10, 8832, Note_on_c, 9, 36, 122
10, 8835, Note_on_c, 9, 82, 64
10, 8848, Note_off_c, 9, 82, 90
10, 8849, Note_off_c, 9, 36, 106
10, 8852, Note_off_c, 9, 42, 94
10, 8880, Note_on_c, 9, 42, 63
10, 8880, Note_on_c, 9, 36, 115
10, 8883, Note_on_c, 9, 82, 66
10, 8895, Note_off_c, 9, 82, 90
10, 8895, Note_off_c, 9, 36, 101
10, 8898, Note_off_c, 9, 42, 94
10, 8928, Note_on_c, 9, 42, 63
10, 8928, Note_on_c, 9, 36, 122
10, 8928, Note_on_c, 9, 38, 96
10, 8931, Note_on_c, 9, 82, 66
10, 8944, Note_off_c, 9, 82, 92
10, 8945, Note_off_c, 9, 42, 94
10, 8950, Note_off_c, 9, 36, 66
10, 8953, Note_off_c, 9, 38, 67
10, 8976, Note_on_c, 9, 42, 63
10, 8979, Note_on_c, 9, 82, 66
10, 8991, Note_off_c, 9, 42, 92
10, 8992, Note_off_c, 9, 82, 88
10, 9000, Note_on_c, 9, 38, 70
10, 9020, Note_off_c, 9, 38, 77
10, 9024, Note_on_c, 9, 42, 64
10, 9024, Note_on_c, 9, 36, 122
10, 9026, Note_on_c, 9, 82, 64
10, 9039, Note_off_c, 9, 82, 90
10, 9042, Note_off_c, 9, 42, 88
10, 9046, Note_off_c, 9, 36, 52
10, 9072, Note_on_c, 9, 42, 63
10, 9074, Note_on_c, 9, 82, 67
10, 9087, Note_off_c, 9, 82, 90
10, 9090, Note_off_c, 9, 42, 90
10, 9120, Note_on_c, 9, 38, 105
10, 9120, Note_on_c, 9, 42, 64
10, 9121, Note_off_c, 9, 47, 99
10, 9123, Note_on_c, 9, 82, 66
10, 9137, Note_off_c, 9, 82, 86
10, 9139, Note_off_c, 9, 42, 92
10, 9145, Note_off_c, 9, 38, 69
10, 9168, Note_on_c, 9, 47, 124
10, 9168, Note_on_c, 9, 42, 51
10, 9172, Note_on_c, 9, 82, 69
10, 9184, Note_off_c, 9, 42, 94
10, 9186, Note_off_c, 9, 82, 90
10, 9216, Note_on_c, 9, 42, 61
10, 9216, Note_on_c, 9, 36, 122
10, 9218, Note_on_c, 9, 57, 68
10, 9218, Note_on_c, 9, 82, 67
10, 9232, Note_off_c, 9, 82, 96
10, 9233, Note_off_c, 9, 36, 96
10, 9235, Note_off_c, 9, 42, 94
10, 9264, Note_on_c, 9, 42, 60
10, 9264, Note_on_c, 9, 36, 113
10, 9268, Note_on_c, 9, 82, 61
10, 9279, Note_off_c, 9, 82, 103
10, 9281, Note_off_c, 9, 36, 111
10, 9282, Note_off_c, 9, 42, 90
10, 9312, Note_on_c, 9, 42, 63
10, 9312, Note_on_c, 9, 36, 118
10, 9312, Note_on_c, 9, 38, 100
10, 9315, Note_on_c, 9, 82, 67
10, 9327, Note_off_c, 9, 82, 92
10, 9332, Note_off_c, 9, 42, 96
10, 9335, Note_off_c, 9, 36, 77
10, 9339, Note_off_c, 9, 38, 70
10, 9360, Note_on_c, 9, 82, 74
10, 9360, Note_on_c, 9, 42, 63
10, 9374, Note_off_c, 9, 82, 94
10, 9377, Note_off_c, 9, 42, 101
10, 9384, Note_on_c, 9, 38, 70
10, 9405, Note_off_c, 9, 38, 82
10, 9408, Note_on_c, 9, 82, 67
10, 9408, Note_on_c, 9, 42, 66
10, 9408, Note_on_c, 9, 36, 122
10, 9420, Note_off_c, 9, 82, 88
10, 9424, Note_off_c, 9, 42, 94
10, 9434, Note_off_c, 9, 36, 62
10, 9456, Note_on_c, 9, 42, 60
10, 9458, Note_on_c, 9, 82, 66
10, 9470, Note_off_c, 9, 82, 63
10, 9473, Note_off_c, 9, 42, 92
10, 9504, Note_on_c, 9, 42, 64
10, 9504, Note_on_c, 9, 38, 105
10, 9507, Note_off_c, 9, 47, 111
10, 9507, Note_on_c, 9, 82, 64
10, 9519, Note_off_c, 9, 82, 92
10, 9520, Note_off_c, 9, 42, 88
10, 9528, Note_off_c, 9, 38, 62
10, 9552, Note_on_c, 9, 47, 124
10, 9552, Note_on_c, 9, 42, 61
10, 9556, Note_on_c, 9, 82, 66
10, 9567, Note_off_c, 9, 82, 84
10, 9567, Note_off_c, 9, 42, 99
10, 9600, Note_on_c, 9, 36, 122
10, 9600, Note_on_c, 9, 42, 67
10, 9603, Note_on_c, 9, 82, 71
10, 9615, Note_off_c, 9, 82, 90
10, 9615, Note_off_c, 9, 42, 86
10, 9618, Note_off_c, 9, 36, 99
10, 9648, Note_on_c, 9, 82, 69
10, 9648, Note_on_c, 9, 36, 115
10, 9648, Note_on_c, 9, 42, 61
10, 9661, Note_off_c, 9, 82, 82
10, 9663, Note_off_c, 9, 42, 96
10, 9665, Note_off_c, 9, 36, 106
10, 9696, Note_on_c, 9, 36, 122
10, 9696, Note_on_c, 9, 42, 67
10, 9696, Note_on_c, 9, 38, 100
10, 9699, Note_on_c, 9, 82, 67
10, 9710, Note_off_c, 9, 82, 79
10, 9713, Note_off_c, 9, 42, 84
10, 9721, Note_off_c, 9, 38, 57
10, 9725, Note_off_c, 9, 36, 46
10, 9735, Note_off_c, 9, 57, 32
10, 9744, Note_on_c, 9, 42, 56
10, 9748, Note_on_c, 9, 82, 71
10, 9758, Note_off_c, 9, 42, 92
10, 9759, Note_off_c, 9, 82, 88
10, 9768, Note_on_c, 9, 38, 70
10, 9788, Note_off_c, 9, 38, 75
10, 9792, Note_on_c, 9, 36, 122
10, 9792, Note_on_c, 9, 42, 64
10, 9794, Note_on_c, 9, 82, 66
10, 9807, Note_off_c, 9, 82, 82
10, 9809, Note_off_c, 9, 42, 90
10, 9817, Note_off_c, 9, 36, 63
10, 9840, Note_on_c, 9, 42, 58
10, 9843, Note_on_c, 9, 82, 69
10, 9856, Note_off_c, 9, 82, 86
10, 9857, Note_off_c, 9, 42, 94
10, 9888, Note_off_c, 9, 47, 118
10, 9888, Note_on_c, 9, 42, 64
10, 9888, Note_on_c, 9, 38, 100
10, 9892, Note_on_c, 9, 82, 69
10, 9902, Note_off_c, 9, 82, 94
10, 9907, Note_off_c, 9, 42, 96
10, 9913, Note_off_c, 9, 38, 57
10, 9936, Note_on_c, 9, 42, 58
10, 9936, Note_on_c, 9, 47, 127
10, 9939, Note_on_c, 9, 82, 69
10, 9951, Note_off_c, 9, 82, 79
10, 9952, Note_off_c, 9, 42, 103
10, 9983, Note_on_c, 9, 57, 68
10, 9984, Note_on_c, 9, 36, 122
10, 9984, Note_on_c, 9, 42, 67
10, 9989, Note_on_c, 9, 82, 67
10, 10001, Note_off_c, 9, 82, 80
10, 10001, Note_off_c, 9, 42, 88
10, 10004, Note_off_c, 9, 36, 90
10, 10032, Note_on_c, 9, 36, 118
10, 10032, Note_on_c, 9, 42, 58
10, 10035, Note_on_c, 9, 82, 69
10, 10048, Note_off_c, 9, 36, 92
10, 10049, Note_off_c, 9, 82, 101
10, 10049, Note_off_c, 9, 42, 99
10, 10080, Note_on_c, 9, 36, 121
10, 10080, Note_on_c, 9, 42, 61
10, 10080, Note_on_c, 9, 38, 100
10, 10085, Note_on_c, 9, 82, 69
10, 10098, Note_off_c, 9, 82, 88
10, 10098, Note_off_c, 9, 42, 84
10, 10106, Note_off_c, 9, 38, 62
10, 10113, Note_off_c, 9, 36, 46
10, 10128, Note_on_c, 9, 42, 63
10, 10132, Note_on_c, 9, 82, 67
10, 10145, Note_off_c, 9, 82, 90
10, 10147, Note_off_c, 9, 42, 96
10, 10152, Note_on_c, 9, 38, 70
10, 10171, Note_off_c, 9, 38, 73
10, 10176, Note_on_c, 9, 42, 52
10, 10176, Note_on_c, 9, 36, 121
10, 10178, Note_on_c, 9, 82, 63
10, 10191, Note_off_c, 9, 82, 88
10, 10195, Note_off_c, 9, 42, 94
10, 10201, Note_off_c, 9, 36, 70
10, 10224, Note_on_c, 9, 82, 64
10, 10224, Note_on_c, 9, 42, 58
10, 10238, Note_off_c, 9, 82, 94
10, 10241, Note_off_c, 9, 42, 84
10, 10266, Note_off_c, 9, 47, 115
10, 10272, Note_on_c, 9, 42, 63
10, 10272, Note_on_c, 9, 38, 105
10, 10274, Note_on_c, 9, 82, 71
10, 10286, Note_off_c, 9, 82, 92
10, 10288, Note_off_c, 9, 42, 92
10, 10298, Note_off_c, 9, 38, 54
10, 10320, Note_on_c, 9, 82, 64
10, 10320, Note_on_c, 9, 42, 58
10, 10320, Note_on_c, 9, 47, 127
10, 10331, Note_off_c, 9, 57, 69
10, 10333, Note_off_c, 9, 82, 88
10, 10337, Note_off_c, 9, 42, 96
10, 10368, Note_on_c, 9, 36, 122
10, 10368, Note_on_c, 9, 42, 71
10, 10370, Note_on_c, 9, 82, 69
10, 10382, Note_off_c, 9, 82, 92
10, 10385, Note_off_c, 9, 42, 90
10, 10387, Note_off_c, 9, 36, 86
10, 10416, Note_on_c, 9, 36, 118
10, 10416, Note_on_c, 9, 42, 60
10, 10419, Note_on_c, 9, 82, 69
10, 10430, Note_off_c, 9, 82, 94
10, 10432, Note_off_c, 9, 42, 90
10, 10432, Note_off_c, 9, 36, 106
10, 10464, Note_on_c, 9, 42, 67
10, 10464, Note_on_c, 9, 36, 111
10, 10464, Note_on_c, 9, 38, 96
10, 10468, Note_on_c, 9, 82, 71
10, 10480, Note_off_c, 9, 82, 86
10, 10483, Note_off_c, 9, 42, 88
10, 10485, Note_off_c, 9, 38, 55
10, 10503, Note_off_c, 9, 36, 66
10, 10512, Note_on_c, 9, 42, 58
10, 10515, Note_on_c, 9, 82, 67
10, 10527, Note_off_c, 9, 42, 94
10, 10530, Note_off_c, 9, 82, 94
10, 10536, Note_on_c, 9, 38, 70
10, 10553, Note_off_c, 9, 38, 88
10, 10560, Note_on_c, 9, 42, 57
10, 10560, Note_on_c, 9, 36, 113
10, 10564, Note_on_c, 9, 82, 67
10, 10577, Note_off_c, 9, 82, 92
10, 10577, Note_off_c, 9, 42, 88
10, 10589, Note_off_c, 9, 36, 69
10, 10608, Note_on_c, 9, 42, 63
10, 10610, Note_on_c, 9, 82, 66
10, 10621, Note_off_c, 9, 42, 92
10, 10623, Note_off_c, 9, 82, 90
10, 10645, Note_off_c, 9, 47, 106
10, 10656, Note_on_c, 9, 42, 63
10, 10656, Note_on_c, 9, 38, 100
10, 10658, Note_on_c, 9, 82, 66
10, 10671, Note_off_c, 9, 82, 82
10, 10672, Note_off_c, 9, 42, 88
10, 10677, Note_off_c, 9, 38, 70
10, 10704, Note_on_c, 9, 47, 127
10, 10704, Note_on_c, 9, 42, 58
10, 10706, Note_on_c, 9, 82, 64
10, 10720, Note_off_c, 9, 42, 92
10, 10721, Note_off_c, 9, 82, 90
10, 10752, Note_on_c, 9, 82, 67
10, 10752, Note_on_c, 9, 42, 61
10, 10752, Note_on_c, 9, 36, 118
10, 10765, Note_off_c, 9, 82, 96
10, 10768, Note_off_c, 9, 42, 94
10, 10769, Note_off_c, 9, 36, 84
10, 10799, Note_on_c, 9, 82, 64
10, 10800, Note_on_c, 9, 42, 61
10, 10800, Note_on_c, 9, 36, 109
10, 10810, Note_off_c, 9, 82, 86
10, 10814, Note_off_c, 9, 36, 101
10, 10818, Note_off_c, 9, 42, 94
10, 10846, Note_on_c, 9, 82, 69
10, 10848, Note_on_c, 9, 42, 64
10, 10848, Note_on_c, 9, 36, 115
10, 10848, Note_on_c, 9, 38, 100
10, 10859, Note_off_c, 9, 82, 96
10, 10867, Note_off_c, 9, 42, 92
10, 10872, Note_off_c, 9, 38, 63
10, 10876, Note_off_c, 9, 36, 47
10, 10896, Note_on_c, 9, 42, 55
10, 10898, Note_on_c, 9, 82, 71
10, 10912, Note_off_c, 9, 82, 92
10, 10913, Note_off_c, 9, 42, 86
10, 10920, Note_on_c, 9, 38, 70
10, 10937, Note_off_c, 9, 38, 88
10, 10944, Note_on_c, 9, 42, 61
10, 10944, Note_on_c, 9, 36, 122
10, 10946, Note_on_c, 9, 82, 69
10, 10960, Note_off_c, 9, 82, 96
10, 10961, Note_off_c, 9, 42, 99
10, 10963, Note_off_c, 9, 36, 67
10, 10992, Note_on_c, 9, 42, 58
10, 10997, Note_on_c, 9, 82, 69
10, 11009, Note_off_c, 9, 82, 88
10, 11010, Note_off_c, 9, 42, 92
10, 11040, Note_off_c, 9, 47, 118
10, 11040, Note_on_c, 9, 42, 60
10, 11040, Note_on_c, 9, 38, 100
10, 11042, Note_on_c, 9, 82, 71
10, 11055, Note_off_c, 9, 82, 84
10, 11057, Note_off_c, 9, 42, 92
10, 11062, Note_off_c, 9, 38, 62
10, 11088, Note_on_c, 9, 42, 58
10, 11088, Note_on_c, 9, 47, 127
10, 11092, Note_on_c, 9, 82, 69
10, 11105, Note_off_c, 9, 42, 92
10, 11107, Note_off_c, 9, 82, 88
10, 11136, Note_on_c, 9, 42, 63
10, 11136, Note_on_c, 9, 36, 122
10, 11139, Note_on_c, 9, 82, 69
10, 11152, Note_off_c, 9, 42, 96
10, 11153, Note_off_c, 9, 82, 92
10, 11155, Note_off_c, 9, 36, 92
10, 11184, Note_on_c, 9, 36, 109
10, 11184, Note_on_c, 9, 42, 55
10, 11187, Note_on_c, 9, 82, 69
10, 11198, Note_off_c, 9, 42, 94
10, 11199, Note_off_c, 9, 36, 80
10, 11201, Note_off_c, 9, 82, 92
10, 11232, Note_on_c, 9, 42, 66
10, 11232, Note_on_c, 9, 36, 122
10, 11232, Note_on_c, 9, 38, 100
10, 11235, Note_on_c, 9, 82, 66
10, 11247, Note_off_c, 9, 42, 96
10, 11248, Note_off_c, 9, 82, 90
10, 11254, Note_off_c, 9, 36, 62
10, 11256, Note_off_c, 9, 38, 58
10, 11280, Note_on_c, 9, 42, 58
10, 11284, Note_on_c, 9, 82, 69
10, 11293, Note_off_c, 9, 42, 96
10, 11297, Note_off_c, 9, 82, 82
10, 11304, Note_on_c, 9, 38, 70
10, 11325, Note_off_c, 9, 38, 53
10, 11328, Note_on_c, 9, 82, 74
10, 11328, Note_on_c, 9, 42, 63
10, 11328, Note_on_c, 9, 36, 122
10, 11342, Note_off_c, 9, 82, 92
10, 11344, Note_off_c, 9, 42, 90
10, 11351, Note_off_c, 9, 36, 61
10, 11376, Note_on_c, 9, 82, 69
10, 11376, Note_on_c, 9, 46, 90
10, 11388, Note_off_c, 9, 46, 92
10, 11391, Note_off_c, 9, 82, 82
10, 11395, Note_off_c, 9, 47, 94
10, 11423, Note_on_c, 9, 57, 74
10, 11424, Note_on_c, 9, 38, 100
10, 11424, Note_on_c, 9, 42, 66
10, 11426, Note_on_c, 9, 82, 71
10, 11438, Note_off_c, 9, 82, 86
10, 11440, Note_off_c, 9, 42, 96
10, 11450, Note_off_c, 9, 38, 57
10, 11470, Note_on_c, 9, 52, 50
10, 11472, Note_on_c, 9, 47, 127
10, 11472, Note_on_c, 9, 42, 66
10, 11476, Note_on_c, 9, 82, 71
10, 11487, Note_off_c, 9, 82, 84
10, 11490, Note_off_c, 9, 42, 103
10, 11520, Note_on_c, 9, 36, 122
10, 11520, Note_on_c, 9, 42, 69
10, 11521, Note_off_c, 9, 47, 108
10, 11523, Note_on_c, 9, 82, 64
10, 11530, Note_off_c, 9, 57, 79
10, 11536, Note_off_c, 9, 82, 80
10, 11537, Note_off_c, 9, 36, 88
10, 11538, Note_off_c, 9, 42, 99
10, 11563, Note_off_c, 9, 52, 99
10, 11568, Note_on_c, 9, 36, 118
10, 11568, Note_on_c, 9, 42, 64
10, 11571, Note_on_c, 9, 82, 64
10, 11585, Note_off_c, 9, 36, 99
10, 11586, Note_off_c, 9, 82, 77
10, 11586, Note_off_c, 9, 42, 99
10, 11616, Note_on_c, 9, 36, 122
10, 11616, Note_on_c, 9, 42, 69
10, 11616, Note_on_c, 9, 38, 92
10, 11619, Note_on_c, 9, 82, 61
10, 11634, Note_off_c, 9, 82, 80
10, 11635, Note_off_c, 9, 42, 101
10, 11639, Note_off_c, 9, 38, 84
10, 11643, Note_off_c, 9, 36, 53
10, 11664, Note_on_c, 9, 42, 64
10, 11669, Note_on_c, 9, 82, 61
10, 11681, Note_off_c, 9, 42, 99
10, 11684, Note_off_c, 9, 82, 84
10, 11688, Note_on_c, 9, 38, 70
10, 11704, Note_off_c, 9, 38, 99
10, 11712, Note_on_c, 9, 36, 122
10, 11712, Note_on_c, 9, 42, 56
10, 11715, Note_on_c, 9, 82, 64
10, 11728, Note_off_c, 9, 42, 96
10, 11729, Note_off_c, 9, 82, 80
10, 11738, Note_off_c, 9, 36, 35
10, 11760, Note_on_c, 9, 42, 60
10, 11762, Note_on_c, 9, 82, 69
10, 11776, Note_off_c, 9, 82, 90
10, 11779, Note_off_c, 9, 42, 96
10, 11808, Note_on_c, 9, 42, 63
10, 11808, Note_on_c, 9, 38, 105
10, 11812, Note_on_c, 9, 82, 66
10, 11825, Note_off_c, 9, 82, 90
10, 11827, Note_off_c, 9, 42, 90
10, 11829, Note_off_c, 9, 38, 67
10, 11856, Note_on_c, 9, 47, 124
10, 11856, Note_on_c, 9, 42, 52
10, 11862, Note_on_c, 9, 82, 66
10, 11874, Note_off_c, 9, 82, 92
10, 11874, Note_off_c, 9, 42, 101
10, 11904, Note_on_c, 9, 42, 61
10, 11904, Note_on_c, 9, 36, 122
10, 11907, Note_on_c, 9, 82, 64
10, 11920, Note_off_c, 9, 82, 90
10, 11921, Note_off_c, 9, 36, 106
10, 11924, Note_off_c, 9, 42, 94
10, 11952, Note_on_c, 9, 42, 63
10, 11952, Note_on_c, 9, 36, 115
10, 11955, Note_on_c, 9, 82, 66
10, 11967, Note_off_c, 9, 82, 90
10, 11967, Note_off_c, 9, 36, 101
10, 11970, Note_off_c, 9, 42, 94
10, 12000, Note_on_c, 9, 42, 63
10, 12000, Note_on_c, 9, 36, 122
10, 12000, Note_on_c, 9, 38, 96
10, 12003, Note_on_c, 9, 82, 66
10, 12016, Note_off_c, 9, 82, 92
10, 12017, Note_off_c, 9, 42, 94
10, 12022, Note_off_c, 9, 36, 66
10, 12025, Note_off_c, 9, 38, 67
10, 12048, Note_on_c, 9, 42, 63
10, 12051, Note_on_c, 9, 82, 66
10, 12063, Note_off_c, 9, 42, 92
10, 12064, Note_off_c, 9, 82, 88
10, 12072, Note_on_c, 9, 38, 70
10, 12092, Note_off_c, 9, 38, 77
10, 12096, Note_on_c, 9, 42, 64
10, 12096, Note_on_c, 9, 36, 122
10, 12098, Note_on_c, 9, 82, 64
10, 12111, Note_off_c, 9, 82, 90
10, 12114, Note_off_c, 9, 42, 88
10, 12118, Note_off_c, 9, 36, 52
10, 12144, Note_on_c, 9, 42, 63
10, 12146, Note_on_c, 9, 82, 67
10, 12159, Note_off_c, 9, 82, 90
10, 12162, Note_off_c, 9, 42, 90
10, 12192, Note_on_c, 9, 38, 105
10, 12192, Note_on_c, 9, 42, 64
10, 12193, Note_off_c, 9, 47, 99
10, 12195, Note_on_c, 9, 82, 66
10, 12209, Note_off_c, 9, 82, 86
10, 12211, Note_off_c, 9, 42, 92
10, 12217, Note_off_c, 9, 38, 69
10, 12240, Note_on_c, 9, 47, 124
10, 12240, Note_on_c, 9, 42, 51
10, 12244, Note_on_c, 9, 82, 69
10, 12256, Note_off_c, 9, 42, 94
10, 12258, Note_off_c, 9, 82, 90
10, 12288, Note_on_c, 9, 42, 61
10, 12288, Note_on_c, 9, 36, 122
10, 12290, Note_on_c, 9, 82, 67
10, 12304, Note_off_c, 9, 82, 96
10, 12305, Note_off_c, 9, 36, 96
10, 12307, Note_off_c, 9, 42, 94
10, 12336, Note_on_c, 9, 42, 60
10, 12336, Note_on_c, 9, 36, 113
10, 12340, Note_on_c, 9, 82, 61
10, 12351, Note_off_c, 9, 82, 103
10, 12353, Note_off_c, 9, 36, 111
10, 12354, Note_off_c, 9, 42, 90
10, 12384, Note_on_c, 9, 42, 63
10, 12384, Note_on_c, 9, 36, 118
10, 12384, Note_on_c, 9, 38, 100
10, 12387, Note_on_c, 9, 82, 67
10, 12399, Note_off_c, 9, 82, 92
10, 12404, Note_off_c, 9, 42, 96
10, 12407, Note_off_c, 9, 36, 77
10, 12411, Note_off_c, 9, 38, 70
10, 12432, Note_on_c, 9, 82, 74
10, 12432, Note_on_c, 9, 42, 63
10, 12446, Note_off_c, 9, 82, 94
10, 12449, Note_off_c, 9, 42, 101
10, 12456, Note_on_c, 9, 38, 70
10, 12477, Note_off_c, 9, 38, 82
10, 12480, Note_on_c, 9, 82, 67
10, 12480, Note_on_c, 9, 42, 66
10, 12480, Note_on_c, 9, 36, 122
10, 12492, Note_off_c, 9, 82, 88
10, 12496, Note_off_c, 9, 42, 94
10, 12506, Note_off_c, 9, 36, 62
10, 12528, Note_on_c, 9, 42, 60
10, 12530, Note_on_c, 9, 82, 66
10, 12542, Note_off_c, 9, 82, 63
10, 12545, Note_off_c, 9, 42, 92
10, 12576, Note_on_c, 9, 42, 64
10, 12576, Note_on_c, 9, 38, 105
10, 12579, Note_off_c, 9, 47, 111
10, 12579, Note_on_c, 9, 82, 64
10, 12591, Note_off_c, 9, 82, 92
10, 12592, Note_off_c, 9, 42, 88
10, 12600, Note_off_c, 9, 38, 62
10, 12624, Note_on_c, 9, 47, 124
10, 12624, Note_on_c, 9, 42, 61
10, 12628, Note_on_c, 9, 82, 66
10, 12639, Note_off_c, 9, 82, 84
10, 12639, Note_off_c, 9, 42, 99
10, 12672, Note_on_c, 9, 36, 122
10, 12672, Note_on_c, 9, 42, 67
10, 12675, Note_on_c, 9, 82, 71
10, 12687, Note_off_c, 9, 82, 90
10, 12687, Note_off_c, 9, 42, 86
10, 12690, Note_off_c, 9, 36, 99
10, 12720, Note_on_c, 9, 82, 69
10, 12720, Note_on_c, 9, 36, 115
10, 12720, Note_on_c, 9, 42, 61
10, 12733, Note_off_c, 9, 82, 82
10, 12735, Note_off_c, 9, 42, 96
10, 12737, Note_off_c, 9, 36, 106
10, 12768, Note_on_c, 9, 36, 122
10, 12768, Note_on_c, 9, 42, 67
10, 12768, Note_on_c, 9, 38, 100
10, 12771, Note_on_c, 9, 82, 67
10, 12782, Note_off_c, 9, 82, 79
10, 12785, Note_off_c, 9, 42, 84
10, 12793, Note_off_c, 9, 38, 57
10, 12797, Note_off_c, 9, 36, 46
10, 12816, Note_on_c, 9, 42, 56
10, 12820, Note_on_c, 9, 82, 71
10, 12830, Note_off_c, 9, 42, 92
10, 12831, Note_off_c, 9, 82, 88
10, 12840, Note_on_c, 9, 38, 70
10, 12860, Note_off_c, 9, 38, 75
10, 12864, Note_on_c, 9, 36, 122
10, 12864, Note_on_c, 9, 42, 64
10, 12866, Note_on_c, 9, 82, 66
10, 12879, Note_off_c, 9, 82, 82
10, 12881, Note_off_c, 9, 42, 90
10, 12889, Note_off_c, 9, 36, 63
10, 12912, Note_on_c, 9, 42, 58
10, 12915, Note_on_c, 9, 82, 69
10, 12928, Note_off_c, 9, 82, 86
10, 12929, Note_off_c, 9, 42, 94
10, 12960, Note_off_c, 9, 47, 118
10, 12960, Note_on_c, 9, 42, 64
10, 12960, Note_on_c, 9, 38, 100
10, 12964, Note_on_c, 9, 82, 69
10, 12974, Note_off_c, 9, 82, 94
10, 12979, Note_off_c, 9, 42, 96
10, 12985, Note_off_c, 9, 38, 57
10, 13008, Note_on_c, 9, 42, 58
10, 13008, Note_on_c, 9, 47, 127
10, 13011, Note_on_c, 9, 82, 69
10, 13023, Note_off_c, 9, 82, 79
10, 13024, Note_off_c, 9, 42, 103
10, 13056, Note_on_c, 9, 36, 122
10, 13056, Note_on_c, 9, 42, 67
10, 13061, Note_on_c, 9, 82, 67
10, 13073, Note_off_c, 9, 82, 80
10, 13073, Note_off_c, 9, 42, 88
10, 13076, Note_off_c, 9, 36, 90
10, 13104, Note_on_c, 9, 36, 118
10, 13104, Note_on_c, 9, 42, 58
10, 13107, Note_on_c, 9, 82, 69
10, 13120, Note_off_c, 9, 36, 92
10, 13121, Note_off_c, 9, 82, 101
10, 13121, Note_off_c, 9, 42, 99
10, 13152, Note_on_c, 9, 36, 121
10, 13152, Note_on_c, 9, 42, 61
10, 13152, Note_on_c, 9, 38, 100
10, 13157, Note_on_c, 9, 82, 69
10, 13170, Note_off_c, 9, 82, 88
10, 13170, Note_off_c, 9, 42, 84
10, 13178, Note_off_c, 9, 38, 62
10, 13185, Note_off_c, 9, 36, 46
10, 13200, Note_on_c, 9, 42, 63
10, 13204, Note_on_c, 9, 82, 67
10, 13217, Note_off_c, 9, 82, 90
10, 13219, Note_off_c, 9, 42, 96
10, 13224, Note_on_c, 9, 38, 70
10, 13243, Note_off_c, 9, 38, 73
10, 13248, Note_on_c, 9, 42, 52
10, 13248, Note_on_c, 9, 36, 121
10, 13250, Note_on_c, 9, 82, 63
10, 13263, Note_off_c, 9, 82, 88
10, 13267, Note_off_c, 9, 42, 94
10, 13273, Note_off_c, 9, 36, 70
10, 13296, Note_on_c, 9, 82, 64
10, 13296, Note_on_c, 9, 42, 58
10, 13310, Note_off_c, 9, 82, 94
10, 13313, Note_off_c, 9, 42, 84
10, 13338, Note_off_c, 9, 47, 115
10, 13344, Note_on_c, 9, 42, 63
10, 13344, Note_on_c, 9, 38, 105
10, 13346, Note_on_c, 9, 82, 71
10, 13358, Note_off_c, 9, 82, 92
10, 13360, Note_off_c, 9, 42, 92
10, 13370, Note_off_c, 9, 38, 54
10, 13392, Note_on_c, 9, 82, 64
10, 13392, Note_on_c, 9, 42, 58
10, 13392, Note_on_c, 9, 47, 127
10, 13405, Note_off_c, 9, 82, 88
10, 13409, Note_off_c, 9, 42, 96
10, 13440, Note_on_c, 9, 36, 122
10, 13440, Note_on_c, 9, 42, 71
10, 13442, Note_on_c, 9, 82, 69
10, 13454, Note_off_c, 9, 82, 92
10, 13457, Note_off_c, 9, 42, 90
10, 13459, Note_off_c, 9, 36, 86
10, 13488, Note_on_c, 9, 36, 118
10, 13488, Note_on_c, 9, 42, 60
10, 13491, Note_on_c, 9, 82, 69
10, 13502, Note_off_c, 9, 82, 94
10, 13504, Note_off_c, 9, 42, 90
10, 13504, Note_off_c, 9, 36, 106
10, 13536, Note_on_c, 9, 42, 67
10, 13536, Note_on_c, 9, 36, 111
10, 13536, Note_on_c, 9, 38, 96
10, 13540, Note_on_c, 9, 82, 71
10, 13552, Note_off_c, 9, 82, 86
10, 13555, Note_off_c, 9, 42, 88
10, 13557, Note_off_c, 9, 38, 55
10, 13575, Note_off_c, 9, 36, 66
10, 13584, Note_on_c, 9, 42, 58
10, 13587, Note_on_c, 9, 82, 67
10, 13599, Note_off_c, 9, 42, 94
10, 13602, Note_off_c, 9, 82, 94
10, 13608, Note_on_c, 9, 38, 70
10, 13625, Note_off_c, 9, 38, 88
10, 13632, Note_on_c, 9, 42, 57
10, 13632, Note_on_c, 9, 36, 113
10, 13636, Note_on_c, 9, 82, 67
10, 13649, Note_off_c, 9, 82, 92
10, 13649, Note_off_c, 9, 42, 88
10, 13661, Note_off_c, 9, 36, 69
10, 13680, Note_on_c, 9, 42, 63
10, 13682, Note_on_c, 9, 82, 66
10, 13693, Note_off_c, 9, 42, 92
10, 13695, Note_off_c, 9, 82, 90
10, 13717, Note_off_c, 9, 47, 106
10, 13728, Note_on_c, 9, 42, 63
10, 13728, Note_on_c, 9, 38, 100
10, 13730, Note_on_c, 9, 82, 66
10, 13743, Note_off_c, 9, 82, 82
10, 13744, Note_off_c, 9, 42, 88
10, 13749, Note_off_c, 9, 38, 70
10, 13776, Note_on_c, 9, 47, 127
10, 13776, Note_on_c, 9, 42, 58
10, 13778, Note_on_c, 9, 82, 64
10, 13792, Note_off_c, 9, 42, 92
10, 13793, Note_off_c, 9, 82, 90
10, 13824, Note_on_c, 9, 82, 67
10, 13824, Note_on_c, 9, 42, 61
10, 13824, Note_on_c, 9, 36, 118
10, 13837, Note_off_c, 9, 82, 96
10, 13840, Note_off_c, 9, 42, 94
10, 13841, Note_off_c, 9, 36, 84
10, 13871, Note_on_c, 9, 82, 64
10, 13872, Note_on_c, 9, 42, 61
10, 13872, Note_on_c, 9, 36, 109
10, 13882, Note_off_c, 9, 82, 86
10, 13886, Note_off_c, 9, 36, 101
10, 13890, Note_off_c, 9, 42, 94
10, 13918, Note_on_c, 9, 82, 69
10, 13920, Note_on_c, 9, 42, 64
10, 13920, Note_on_c, 9, 36, 115
10, 13920, Note_on_c, 9, 38, 100
10, 13931, Note_off_c, 9, 82, 96
10, 13939, Note_off_c, 9, 42, 92
10, 13944, Note_off_c, 9, 38, 63
10, 13948, Note_off_c, 9, 36, 47
10, 13968, Note_on_c, 9, 42, 55
10, 13970, Note_on_c, 9, 82, 71
10, 13984, Note_off_c, 9, 82, 92
10, 13985, Note_off_c, 9, 42, 86
10, 13992, Note_on_c, 9, 38, 70
10, 14009, Note_off_c, 9, 38, 88
10, 14016, Note_on_c, 9, 42, 61
10, 14016, Note_on_c, 9, 36, 122
10, 14018, Note_on_c, 9, 82, 69
10, 14032, Note_off_c, 9, 82, 96
10, 14033, Note_off_c, 9, 42, 99
10, 14035, Note_off_c, 9, 36, 67
10, 14064, Note_on_c, 9, 42, 58
10, 14069, Note_on_c, 9, 82, 69
10, 14081, Note_off_c, 9, 82, 88
10, 14082, Note_off_c, 9, 42, 92
10, 14112, Note_off_c, 9, 47, 118
10, 14112, Note_on_c, 9, 42, 60
10, 14112, Note_on_c, 9, 38, 100
10, 14114, Note_on_c, 9, 82, 71
10, 14127, Note_off_c, 9, 82, 84
10, 14129, Note_off_c, 9, 42, 92
10, 14134, Note_off_c, 9, 38, 62
10, 14160, Note_on_c, 9, 42, 58
10, 14160, Note_on_c, 9, 47, 127
10, 14164, Note_on_c, 9, 82, 69
10, 14177, Note_off_c, 9, 42, 92
10, 14179, Note_off_c, 9, 82, 88
10, 14208, Note_on_c, 9, 42, 63
10, 14208, Note_on_c, 9, 36, 122
10, 14211, Note_on_c, 9, 82, 69
10, 14224, Note_off_c, 9, 42, 96
10, 14225, Note_off_c, 9, 82, 92
10, 14227, Note_off_c, 9, 36, 92
10, 14256, Note_on_c, 9, 36, 109
10, 14256, Note_on_c, 9, 42, 55
10, 14259, Note_on_c, 9, 82, 69
10, 14270, Note_off_c, 9, 42, 94
10, 14271, Note_off_c, 9, 36, 80
10, 14273, Note_off_c, 9, 82, 92
10, 14304, Note_on_c, 9, 42, 66
10, 14304, Note_on_c, 9, 36, 122
10, 14304, Note_on_c, 9, 38, 100
10, 14307, Note_on_c, 9, 82, 66
10, 14319, Note_off_c, 9, 42, 96
10, 14320, Note_off_c, 9, 82, 90
10, 14326, Note_off_c, 9, 36, 62
10, 14328, Note_off_c, 9, 38, 58
10, 14352, Note_on_c, 9, 42, 58
10, 14356, Note_on_c, 9, 82, 69
10, 14365, Note_off_c, 9, 42, 96
10, 14369, Note_off_c, 9, 82, 82
10, 14376, Note_on_c, 9, 38, 70
10, 14397, Note_off_c, 9, 38, 53
10, 14400, Note_on_c, 9, 82, 74
10, 14400, Note_on_c, 9, 42, 63
10, 14400, Note_on_c, 9, 36, 122
10, 14414, Note_off_c, 9, 82, 92
10, 14416, Note_off_c, 9, 42, 90
10, 14423, Note_off_c, 9, 36, 61
10, 14448, Note_on_c, 9, 82, 69
10, 14448, Note_on_c, 9, 46, 90
10, 14460, Note_off_c, 9, 46, 92
10, 14463, Note_off_c, 9, 82, 82
10, 14467, Note_off_c, 9, 47, 94
10, 14495, Note_on_c, 9, 57, 74
10, 14496, Note_on_c, 9, 38, 100
10, 14496, Note_on_c, 9, 42, 66
10, 14498, Note_on_c, 9, 82, 71
10, 14510, Note_off_c, 9, 82, 86
10, 14512, Note_off_c, 9, 42, 96
10, 14522, Note_off_c, 9, 38, 57
10, 14542, Note_on_c, 9, 52, 50
10, 14544, Note_on_c, 9, 47, 127
10, 14544, Note_on_c, 9, 42, 66
10, 14548, Note_on_c, 9, 82, 71
10, 14559, Note_off_c, 9, 82, 84
10, 14562, Note_off_c, 9, 42, 103
10, 14592, Note_on_c, 9, 36, 122
10, 14592, Note_on_c, 9, 42, 69
10, 14593, Note_off_c, 9, 47, 108
10, 14595, Note_on_c, 9, 82, 64
10, 14602, Note_off_c, 9, 57, 79
10, 14608, Note_off_c, 9, 82, 80
10, 14609, Note_off_c, 9, 36, 88
10, 14610, Note_off_c, 9, 42, 99
10, 14635, Note_off_c, 9, 52, 99
10, 14640, Note_on_c, 9, 36, 118
10, 14640, Note_on_c, 9, 42, 64
10, 14643, Note_on_c, 9, 82, 64
10, 14657, Note_off_c, 9, 36, 99
10, 14658, Note_off_c, 9, 82, 77
10, 14658, Note_off_c, 9, 42, 99
10, 14688, Note_on_c, 9, 36, 122
10, 14688, Note_on_c, 9, 42, 69
10, 14688, Note_on_c, 9, 38, 92
10, 14691, Note_on_c, 9, 82, 61
10, 14706, Note_off_c, 9, 82, 80
10, 14707, Note_off_c, 9, 42, 101
10, 14711, Note_off_c, 9, 38, 84
10, 14715, Note_off_c, 9, 36, 53
10, 14736, Note_on_c, 9, 42, 64
10, 14741, Note_on_c, 9, 82, 61
10, 14753, Note_off_c, 9, 42, 99
10, 14756, Note_off_c, 9, 82, 84
10, 14760, Note_on_c, 9, 38, 70
10, 14776, Note_off_c, 9, 38, 99
10, 14784, Note_on_c, 9, 36, 122
10, 14784, Note_on_c, 9, 42, 56
10, 14787, Note_on_c, 9, 82, 64
10, 14800, Note_off_c, 9, 42, 96
10, 14801, Note_off_c, 9, 82, 80
10, 14810, Note_off_c, 9, 36, 35
10, 14832, Note_on_c, 9, 42, 60
10, 14834, Note_on_c, 9, 82, 69
10, 14848, Note_off_c, 9, 82, 90
10, 14851, Note_off_c, 9, 42, 96
10, 14880, Note_on_c, 9, 42, 63
10, 14880, Note_on_c, 9, 38, 105
10, 14884, Note_on_c, 9, 82, 66
10, 14897, Note_off_c, 9, 82, 90
10, 14899, Note_off_c, 9, 42, 90
10, 14901, Note_off_c, 9, 38, 67
10, 14928, Note_on_c, 9, 47, 124
10, 14928, Note_on_c, 9, 42, 52
10, 14934, Note_on_c, 9, 82, 66
10, 14946, Note_off_c, 9, 82, 92
10, 14946, Note_off_c, 9, 42, 101
10, 14976, Note_on_c, 9, 42, 61
10, 14976, Note_on_c, 9, 36, 122
10, 14979, Note_on_c, 9, 82, 64
10, 14992, Note_off_c, 9, 82, 90
10, 14993, Note_off_c, 9, 36, 106
10, 14996, Note_off_c, 9, 42, 94
10, 15024, Note_on_c, 9, 42, 63
10, 15024, Note_on_c, 9, 36, 115
10, 15027, Note_on_c, 9, 82, 66
10, 15039, Note_off_c, 9, 82, 90
10, 15039, Note_off_c, 9, 36, 101
10, 15042, Note_off_c, 9, 42, 94
10, 15072, Note_on_c, 9, 42, 63
10, 15072, Note_on_c, 9, 36, 122
10, 15072, Note_on_c, 9, 38, 96
10, 15075, Note_on_c, 9, 82, 66
10, 15088, Note_off_c, 9, 82, 92
10, 15089, Note_off_c, 9, 42, 94
10, 15094, Note_off_c, 9, 36, 66
10, 15097, Note_off_c, 9, 38, 67
10, 15120, Note_on_c, 9, 42, 63
10, 15123, Note_on_c, 9, 82, 66
10, 15135, Note_off_c, 9, 42, 92
10, 15136, Note_off_c, 9, 82, 88
10, 15144, Note_on_c, 9, 38, 70
10, 15164, Note_off_c, 9, 38, 77
10, 15168, Note_on_c, 9, 42, 64
10, 15168, Note_on_c, 9, 36, 122
10, 15170, Note_on_c, 9, 82, 64
10, 15183, Note_off_c, 9, 82, 90
10, 15186, Note_off_c, 9, 42, 88
10, 15190, Note_off_c, 9, 36, 52
10, 15216, Note_on_c, 9, 42, 63
10, 15218, Note_on_c, 9, 82, 67
10, 15231, Note_off_c, 9, 82, 90
10, 15234, Note_off_c, 9, 42, 90
10, 15264, Note_on_c, 9, 38, 105
10, 15264, Note_on_c, 9, 42, 64
10, 15265, Note_off_c, 9, 47, 99
10, 15267, Note_on_c, 9, 82, 66
10, 15281, Note_off_c, 9, 82, 86
10, 15283, Note_off_c, 9, 42, 92
10, 15289, Note_off_c, 9, 38, 69
10, 15312, Note_on_c, 9, 47, 124
10, 15312, Note_on_c, 9, 42, 51
10, 15316, Note_on_c, 9, 82, 69
10, 15328, Note_off_c, 9, 42, 94
10, 15330, Note_off_c, 9, 82, 90
10, 15360, Note_on_c, 9, 42, 61
10, 15360, Note_on_c, 9, 36, 122
10, 15362, Note_on_c, 9, 57, 68
10, 15362, Note_on_c, 9, 82, 67
10, 15376, Note_off_c, 9, 82, 96
10, 15377, Note_off_c, 9, 36, 96
10, 15379, Note_off_c, 9, 42, 94
10, 15408, Note_on_c, 9, 42, 60
10, 15408, Note_on_c, 9, 36, 113
10, 15412, Note_on_c, 9, 82, 61
10, 15423, Note_off_c, 9, 82, 103
10, 15425, Note_off_c, 9, 36, 111
10, 15426, Note_off_c, 9, 42, 90
10, 15456, Note_on_c, 9, 42, 63
10, 15456, Note_on_c, 9, 36, 118
10, 15456, Note_on_c, 9, 38, 100
10, 15459, Note_on_c, 9, 82, 67
10, 15471, Note_off_c, 9, 82, 92
10, 15476, Note_off_c, 9, 42, 96
10, 15479, Note_off_c, 9, 36, 77
10, 15483, Note_off_c, 9, 38, 70
10, 15504, Note_on_c, 9, 82, 74
10, 15504, Note_on_c, 9, 42, 63
10, 15518, Note_off_c, 9, 82, 94
10, 15521, Note_off_c, 9, 42, 101
10, 15528, Note_on_c, 9, 38, 70
10, 15549, Note_off_c, 9, 38, 82
10, 15552, Note_on_c, 9, 82, 67
10, 15552, Note_on_c, 9, 42, 66
10, 15552, Note_on_c, 9, 36, 122
10, 15564, Note_off_c, 9, 82, 88
10, 15568, Note_off_c, 9, 42, 94
10, 15578, Note_off_c, 9, 36, 62
10, 15600, Note_on_c, 9, 42, 60
10, 15602, Note_on_c, 9, 82, 66
10, 15614, Note_off_c, 9, 82, 63
10, 15617, Note_off_c, 9, 42, 92
10, 15648, Note_on_c, 9, 42, 64
10, 15648, Note_on_c, 9, 38, 105
10, 15651, Note_off_c, 9, 47, 111
10, 15651, Note_on_c, 9, 82, 64
10, 15663, Note_off_c, 9, 82, 92
10, 15664, Note_off_c, 9, 42, 88
10, 15672, Note_off_c, 9, 38, 62
10, 15696, Note_on_c, 9, 47, 124
10, 15696, Note_on_c, 9, 42, 61
10, 15700, Note_on_c, 9, 82, 66
10, 15711, Note_off_c, 9, 82, 84
10, 15711, Note_off_c, 9, 42, 99
10, 15744, Note_on_c, 9, 36, 122
10, 15744, Note_on_c, 9, 42, 67
10, 15747, Note_on_c, 9, 82, 71
10, 15759, Note_off_c, 9, 82, 90
10, 15759, Note_off_c, 9, 42, 86
10, 15762, Note_off_c, 9, 36, 99
10, 15792, Note_on_c, 9, 82, 69
10, 15792, Note_on_c, 9, 36, 115
10, 15792, Note_on_c, 9, 42, 61
10, 15805, Note_off_c, 9, 82, 82
10, 15807, Note_off_c, 9, 42, 96
10, 15809, Note_off_c, 9, 36, 106
10, 15840, Note_on_c, 9, 36, 122
10, 15840, Note_on_c, 9, 42, 67
10, 15840, Note_on_c, 9, 38, 100
10, 15843, Note_on_c, 9, 82, 67
10, 15854, Note_off_c, 9, 82, 79
10, 15857, Note_off_c, 9, 42, 84
10, 15865, Note_off_c, 9, 38, 57
10, 15869, Note_off_c, 9, 36, 46
10, 15879, Note_off_c, 9, 57, 32
10, 15888, Note_on_c, 9, 42, 56
10, 15892, Note_on_c, 9, 82, 71
10, 15902, Note_off_c, 9, 42, 92
10, 15903, Note_off_c, 9, 82, 88
10, 15912, Note_on_c, 9, 38, 70
10, 15932, Note_off_c, 9, 38, 75
10, 15936, Note_on_c, 9, 36, 122
10, 15936, Note_on_c, 9, 42, 64
10, 15938, Note_on_c, 9, 82, 66
10, 15951, Note_off_c, 9, 82, 82
10, 15953, Note_off_c, 9, 42, 90
10, 15961, Note_off_c, 9, 36, 63
10, 15984, Note_on_c, 9, 42, 58
10, 15987, Note_on_c, 9, 82, 69
10, 16000, Note_off_c, 9, 82, 86
10, 16001, Note_off_c, 9, 42, 94
10, 16032, Note_off_c, 9, 47, 118
10, 16032, Note_on_c, 9, 42, 64
10, 16032, Note_on_c, 9, 38, 100
10, 16036, Note_on_c, 9, 82, 69
10, 16046, Note_off_c, 9, 82, 94
10, 16051, Note_off_c, 9, 42, 96
10, 16057, Note_off_c, 9, 38, 57
10, 16080, Note_on_c, 9, 42, 58
10, 16080, Note_on_c, 9, 47, 127
10, 16083, Note_on_c, 9, 82, 69
10, 16095, Note_off_c, 9, 82, 79
10, 16096, Note_off_c, 9, 42, 103
10, 16127, Note_on_c, 9, 57, 68
10, 16128, Note_on_c, 9, 36, 122
10, 16128, Note_on_c, 9, 42, 67
10, 16133, Note_on_c, 9, 82, 67
10, 16145, Note_off_c, 9, 82, 80
10, 16145, Note_off_c, 9, 42, 88
10, 16148, Note_off_c, 9, 36, 90
10, 16176, Note_on_c, 9, 36, 118
10, 16176, Note_on_c, 9, 42, 58
10, 16179, Note_on_c, 9, 82, 69
10, 16192, Note_off_c, 9, 36, 92
10, 16193, Note_off_c, 9, 82, 101
10, 16193, Note_off_c, 9, 42, 99
10, 16224, Note_on_c, 9, 36, 121
10, 16224, Note_on_c, 9, 42, 61
10, 16224, Note_on_c, 9, 38, 100
10, 16229, Note_on_c, 9, 82, 69
10, 16242, Note_off_c, 9, 82, 88
10, 16242, Note_off_c, 9, 42, 84
10, 16250, Note_off_c, 9, 38, 62
10, 16257, Note_off_c, 9, 36, 46
10, 16272, Note_on_c, 9, 42, 63
10, 16276, Note_on_c, 9, 82, 67
10, 16289, Note_off_c, 9, 82, 90
10, 16291, Note_off_c, 9, 42, 96
10, 16296, Note_on_c, 9, 38, 70
10, 16315, Note_off_c, 9, 38, 73
10, 16320, Note_on_c, 9, 42, 52
10, 16320, Note_on_c, 9, 36, 121
10, 16322, Note_on_c, 9, 82, 63
10, 16335, Note_off_c, 9, 82, 88
10, 16339, Note_off_c, 9, 42, 94
10, 16345, Note_off_c, 9, 36, 70
10, 16368, Note_on_c, 9, 82, 64
10, 16368, Note_on_c, 9, 42, 58
10, 16382, Note_off_c, 9, 82, 94
10, 16385, Note_off_c, 9, 42, 84
10, 16410, Note_off_c, 9, 47, 115
10, 16416, Note_on_c, 9, 42, 63
10, 16416, Note_on_c, 9, 38, 105
10, 16418, Note_on_c, 9, 82, 71
10, 16430, Note_off_c, 9, 82, 92
10, 16432, Note_off_c, 9, 42, 92
10, 16442, Note_off_c, 9, 38, 54
10, 16464, Note_on_c, 9, 82, 64
10, 16464, Note_on_c, 9, 42, 58
10, 16464, Note_on_c, 9, 47, 127
10, 16475, Note_off_c, 9, 57, 69
10, 16477, Note_off_c, 9, 82, 88
10, 16481, Note_off_c, 9, 42, 96
10, 16512, Note_on_c, 9, 36, 122
10, 16512, Note_on_c, 9, 42, 71
10, 16514, Note_on_c, 9, 82, 69
10, 16526, Note_off_c, 9, 82, 92
10, 16529, Note_off_c, 9, 42, 90
10, 16531, Note_off_c, 9, 36, 86
10, 16560, Note_on_c, 9, 36, 118
10, 16560, Note_on_c, 9, 42, 60
10, 16563, Note_on_c, 9, 82, 69
10, 16574, Note_off_c, 9, 82, 94
10, 16576, Note_off_c, 9, 42, 90
10, 16576, Note_off_c, 9, 36, 106
10, 16608, Note_on_c, 9, 42, 67
10, 16608, Note_on_c, 9, 36, 111
10, 16608, Note_on_c, 9, 38, 96
10, 16612, Note_on_c, 9, 82, 71
10, 16624, Note_off_c, 9, 82, 86
10, 16627, Note_off_c, 9, 42, 88
10, 16629, Note_off_c, 9, 38, 55
10, 16647, Note_off_c, 9, 36, 66
10, 16656, Note_on_c, 9, 42, 58
10, 16659, Note_on_c, 9, 82, 67
10, 16671, Note_off_c, 9, 42, 94
10, 16674, Note_off_c, 9, 82, 94
10, 16680, Note_on_c, 9, 38, 70
10, 16697, Note_off_c, 9, 38, 88
10, 16704, Note_on_c, 9, 42, 57
10, 16704, Note_on_c, 9, 36, 113
10, 16708, Note_on_c, 9, 82, 67
10, 16721, Note_off_c, 9, 82, 92
10, 16721, Note_off_c, 9, 42, 88
10, 16733, Note_off_c, 9, 36, 69
10, 16752, Note_on_c, 9, 42, 63
10, 16754, Note_on_c, 9, 82, 66
10, 16765, Note_off_c, 9, 42, 92
10, 16767, Note_off_c, 9, 82, 90
10, 16789, Note_off_c, 9, 47, 106
10, 16800, Note_on_c, 9, 42, 63
10, 16800, Note_on_c, 9, 38, 100
10, 16802, Note_on_c, 9, 82, 66
10, 16815, Note_off_c, 9, 82, 82
10, 16816, Note_off_c, 9, 42, 88
10, 16821, Note_off_c, 9, 38, 70
10, 16848, Note_on_c, 9, 47, 127
10, 16848, Note_on_c, 9, 42, 58
10, 16850, Note_on_c, 9, 82, 64
10, 16864, Note_off_c, 9, 42, 92
10, 16865, Note_off_c, 9, 82, 90
10, 16896, Note_on_c, 9, 82, 67
10, 16896, Note_on_c, 9, 42, 61
10, 16896, Note_on_c, 9, 36, 118
10, 16909, Note_off_c, 9, 82, 96
10, 16912, Note_off_c, 9, 42, 94
10, 16913, Note_off_c, 9, 36, 84
10, 16943, Note_on_c, 9, 82, 64
10, 16944, Note_on_c, 9, 42, 61
10, 16944, Note_on_c, 9, 36, 109
10, 16954, Note_off_c, 9, 82, 86
10, 16958, Note_off_c, 9, 36, 101
10, 16962, Note_off_c, 9, 42, 94
10, 16990, Note_on_c, 9, 82, 69
10, 16992, Note_on_c, 9, 42, 64
10, 16992, Note_on_c, 9, 36, 115
10, 16992, Note_on_c, 9, 38, 100
10, 17003, Note_off_c, 9, 82, 96
10, 17011, Note_off_c, 9, 42, 92
10, 17016, Note_off_c, 9, 38, 63
10, 17020, Note_off_c, 9, 36, 47
10, 17040, Note_on_c, 9, 42, 55
10, 17042, Note_on_c, 9, 82, 71
10, 17056, Note_off_c, 9, 82, 92
10, 17057, Note_off_c, 9, 42, 86
10, 17064, Note_on_c, 9, 38, 70
10, 17081, Note_off_c, 9, 38, 88
10, 17088, Note_on_c, 9, 42, 61
10, 17088, Note_on_c, 9, 36, 122
10, 17090, Note_on_c, 9, 82, 69
10, 17104, Note_off_c, 9, 82, 96
10, 17105, Note_off_c, 9, 42, 99
10, 17107, Note_off_c, 9, 36, 67
10, 17136, Note_on_c, 9, 42, 58
10, 17141, Note_on_c, 9, 82, 69
10, 17153, Note_off_c, 9, 82, 88
10, 17154, Note_off_c, 9, 42, 92
10, 17184, Note_off_c, 9, 47, 118
10, 17184, Note_on_c, 9, 42, 60
10, 17184, Note_on_c, 9, 38, 100
10, 17186, Note_on_c, 9, 82, 71
10, 17199, Note_off_c, 9, 82, 84
10, 17201, Note_off_c, 9, 42, 92
10, 17206, Note_off_c, 9, 38, 62
10, 17232, Note_on_c, 9, 42, 58
10, 17232, Note_on_c, 9, 47, 127
10, 17236, Note_on_c, 9, 82, 69
10, 17249, Note_off_c, 9, 42, 92
10, 17251, Note_off_c, 9, 82, 88
10, 17280, Note_on_c, 9, 42, 63
10, 17280, Note_on_c, 9, 36, 122
10, 17283, Note_on_c, 9, 82, 69
10, 17296, Note_off_c, 9, 42, 96
10, 17297, Note_off_c, 9, 82, 92
10, 17299, Note_off_c, 9, 36, 92
10, 17328, Note_on_c, 9, 36, 109
10, 17328, Note_on_c, 9, 42, 55
10, 17331, Note_on_c, 9, 82, 69
10, 17342, Note_off_c, 9, 42, 94
10, 17343, Note_off_c, 9, 36, 80
10, 17345, Note_off_c, 9, 82, 92
10, 17376, Note_on_c, 9, 42, 66
10, 17376, Note_on_c, 9, 36, 122
10, 17376, Note_on_c, 9, 38, 100
10, 17379, Note_on_c, 9, 82, 66
10, 17391, Note_off_c, 9, 42, 96
10, 17392, Note_off_c, 9, 82, 90
10, 17398, Note_off_c, 9, 36, 62
10, 17400, Note_off_c, 9, 38, 58
10, 17424, Note_on_c, 9, 42, 58
10, 17428, Note_on_c, 9, 82, 69
10, 17437, Note_off_c, 9, 42, 96
10, 17441, Note_off_c, 9, 82, 82
10, 17448, Note_on_c, 9, 38, 70
10, 17469, Note_off_c, 9, 38, 53
10, 17472, Note_on_c, 9, 82, 74
10, 17472, Note_on_c, 9, 42, 63
10, 17472, Note_on_c, 9, 36, 122
10, 17486, Note_off_c, 9, 82, 92
10, 17488, Note_off_c, 9, 42, 90
10, 17495, Note_off_c, 9, 36, 61
10, 17520, Note_on_c, 9, 82, 69
10, 17520, Note_on_c, 9, 46, 90
10, 17532, Note_off_c, 9, 46, 92
10, 17535, Note_off_c, 9, 82, 82
10, 17539, Note_off_c, 9, 47, 94
10, 17567, Note_on_c, 9, 57, 74
10, 17568, Note_on_c, 9, 38, 100
10, 17568, Note_on_c, 9, 42, 66
10, 17570, Note_on_c, 9, 82, 71
10, 17582, Note_off_c, 9, 82, 86
10, 17584, Note_off_c, 9, 42, 96
10, 17594, Note_off_c, 9, 38, 57
10, 17614, Note_on_c, 9, 52, 50
10, 17616, Note_on_c, 9, 47, 127
10, 17616, Note_on_c, 9, 42, 66
10, 17620, Note_on_c, 9, 82, 71
10, 17631, Note_off_c, 9, 82, 84
10, 17634, Note_off_c, 9, 42, 103
10, 17664, Note_on_c, 9, 36, 122
10, 17664, Note_on_c, 9, 42, 69
10, 17665, Note_off_c, 9, 47, 108
10, 17667, Note_on_c, 9, 82, 64
10, 17674, Note_off_c, 9, 57, 79
10, 17680, Note_off_c, 9, 82, 80
10, 17681, Note_off_c, 9, 36, 88
10, 17682, Note_off_c, 9, 42, 99
10, 17707, Note_off_c, 9, 52, 99
10, 17712, Note_on_c, 9, 36, 118
10, 17712, Note_on_c, 9, 42, 64
10, 17715, Note_on_c, 9, 82, 64
10, 17729, Note_off_c, 9, 36, 99
10, 17730, Note_off_c, 9, 82, 77
10, 17730, Note_off_c, 9, 42, 99
10, 17760, Note_on_c, 9, 36, 122
10, 17760, Note_on_c, 9, 42, 69
10, 17760, Note_on_c, 9, 38, 92
10, 17763, Note_on_c, 9, 82, 61
10, 17778, Note_off_c, 9, 82, 80
10, 17779, Note_off_c, 9, 42, 101
10, 17783, Note_off_c, 9, 38, 84
10, 17787, Note_off_c, 9, 36, 53
10, 17808, Note_on_c, 9, 42, 64
10, 17813, Note_on_c, 9, 82, 61
10, 17825, Note_off_c, 9, 42, 99
10, 17828, Note_off_c, 9, 82, 84
10, 17832, Note_on_c, 9, 38, 70
10, 17848, Note_off_c, 9, 38, 99
10, 17856, Note_on_c, 9, 36, 122
10, 17856, Note_on_c, 9, 42, 56
10, 17859, Note_on_c, 9, 82, 64
10, 17872, Note_off_c, 9, 42, 96
10, 17873, Note_off_c, 9, 82, 80
10, 17882, Note_off_c, 9, 36, 35
10, 17904, Note_on_c, 9, 42, 60
10, 17906, Note_on_c, 9, 82, 69
10, 17920, Note_off_c, 9, 82, 90
10, 17923, Note_off_c, 9, 42, 96
10, 17952, Note_on_c, 9, 42, 63
10, 17952, Note_on_c, 9, 38, 105
10, 17956, Note_on_c, 9, 82, 66
10, 17969, Note_off_c, 9, 82, 90
10, 17971, Note_off_c, 9, 42, 90
10, 17973, Note_off_c, 9, 38, 67
10, 18000, Note_on_c, 9, 47, 124
10, 18000, Note_on_c, 9, 42, 52
10, 18006, Note_on_c, 9, 82, 66
10, 18018, Note_off_c, 9, 82, 92
10, 18018, Note_off_c, 9, 42, 101
10, 18048, Note_on_c, 9, 42, 61
10, 18048, Note_on_c, 9, 36, 122
10, 18051, Note_on_c, 9, 82, 64
10, 18064, Note_off_c, 9, 82, 90
10, 18065, Note_off_c, 9, 36, 106
10, 18068, Note_off_c, 9, 42, 94
10, 18096, Note_on_c, 9, 42, 63
10, 18096, Note_on_c, 9, 36, 115
10, 18099, Note_on_c, 9, 82, 66
10, 18111, Note_off_c, 9, 82, 90
10, 18111, Note_off_c, 9, 36, 101
10, 18114, Note_off_c, 9, 42, 94
10, 18144, Note_on_c, 9, 42, 63
10, 18144, Note_on_c, 9, 36, 122
10, 18144, Note_on_c, 9, 38, 96
10, 18147, Note_on_c, 9, 82, 66
10, 18160, Note_off_c, 9, 82, 92
10, 18161, Note_off_c, 9, 42, 94
10, 18166, Note_off_c, 9, 36, 66
10, 18169, Note_off_c, 9, 38, 67
10, 18192, Note_on_c, 9, 42, 63
10, 18195, Note_on_c, 9, 82, 66
10, 18207, Note_off_c, 9, 42, 92
10, 18208, Note_off_c, 9, 82, 88
10, 18216, Note_on_c, 9, 38, 70
10, 18236, Note_off_c, 9, 38, 77
10, 18240, Note_on_c, 9, 42, 64
10, 18240, Note_on_c, 9, 36, 122
10, 18242, Note_on_c, 9, 82, 64
10, 18255, Note_off_c, 9, 82, 90
10, 18258, Note_off_c, 9, 42, 88
10, 18262, Note_off_c, 9, 36, 52
10, 18288, Note_on_c, 9, 42, 63
10, 18290, Note_on_c, 9, 82, 67
10, 18303, Note_off_c, 9, 82, 90
10, 18306, Note_off_c, 9, 42, 90
10, 18336, Note_on_c, 9, 38, 105
10, 18336, Note_on_c, 9, 42, 64
10, 18337, Note_off_c, 9, 47, 99
10, 18339, Note_on_c, 9, 82, 66
10, 18353, Note_off_c, 9, 82, 86
10, 18355, Note_off_c, 9, 42, 92
10, 18361, Note_off_c, 9, 38, 69
10, 18384, Note_on_c, 9, 47, 124
10, 18384, Note_on_c, 9, 42, 51
10, 18388, Note_on_c, 9, 82, 69
10, 18400, Note_off_c, 9, 42, 94
10, 18402, Note_off_c, 9, 82, 90
10, 18432, Note_on_c, 9, 42, 61
10, 18432, Note_on_c, 9, 36, 122
10, 18434, Note_on_c, 9, 82, 67
10, 18448, Note_off_c, 9, 82, 96
10, 18449, Note_off_c, 9, 36, 96
10, 18451, Note_off_c, 9, 42, 94
10, 18480, Note_on_c, 9, 42, 60
10, 18480, Note_on_c, 9, 36, 113
10, 18484, Note_on_c, 9, 82, 61
10, 18495, Note_off_c, 9, 82, 103
10, 18497, Note_off_c, 9, 36, 111
10, 18498, Note_off_c, 9, 42, 90
10, 18528, Note_on_c, 9, 42, 63
10, 18528, Note_on_c, 9, 36, 118
10, 18528, Note_on_c, 9, 38, 100
10, 18531, Note_on_c, 9, 82, 67
10, 18543, Note_off_c, 9, 82, 92
10, 18548, Note_off_c, 9, 42, 96
10, 18551, Note_off_c, 9, 36, 77
10, 18555, Note_off_c, 9, 38, 70
10, 18576, Note_on_c, 9, 82, 74
10, 18576, Note_on_c, 9, 42, 63
10, 18590, Note_off_c, 9, 82, 94
10, 18593, Note_off_c, 9, 42, 101
10, 18600, Note_on_c, 9, 38, 70
10, 18621, Note_off_c, 9, 38, 82
10, 18624, Note_on_c, 9, 82, 67
10, 18624, Note_on_c, 9, 42, 66
10, 18624, Note_on_c, 9, 36, 122
10, 18636, Note_off_c, 9, 82, 88
10, 18640, Note_off_c, 9, 42, 94
10, 18650, Note_off_c, 9, 36, 62
10, 18672, Note_on_c, 9, 42, 60
10, 18674, Note_on_c, 9, 82, 66
10, 18686, Note_off_c, 9, 82, 63
10, 18689, Note_off_c, 9, 42, 92
10, 18720, Note_on_c, 9, 42, 64
10, 18720, Note_on_c, 9, 38, 105
10, 18723, Note_off_c, 9, 47, 111
10, 18723, Note_on_c, 9, 82, 64
10, 18735, Note_off_c, 9, 82, 92
10, 18736, Note_off_c, 9, 42, 88
10, 18744, Note_off_c, 9, 38, 62
10, 18768, Note_on_c, 9, 47, 124
10, 18768, Note_on_c, 9, 42, 61
10, 18772, Note_on_c, 9, 82, 66
10, 18783, Note_off_c, 9, 82, 84
10, 18783, Note_off_c, 9, 42, 99
10, 18816, Note_on_c, 9, 36, 122
10, 18816, Note_on_c, 9, 42, 67
10, 18819, Note_on_c, 9, 82, 71
10, 18831, Note_off_c, 9, 82, 90
10, 18831, Note_off_c, 9, 42, 86
10, 18834, Note_off_c, 9, 36, 99
10, 18864, Note_on_c, 9, 82, 69
10, 18864, Note_on_c, 9, 36, 115
10, 18864, Note_on_c, 9, 42, 61
10, 18877, Note_off_c, 9, 82, 82
10, 18879, Note_off_c, 9, 42, 96
10, 18881, Note_off_c, 9, 36, 106
10, 18912, Note_on_c, 9, 36, 122
10, 18912, Note_on_c, 9, 42, 67
10, 18912, Note_on_c, 9, 38, 100
10, 18915, Note_on_c, 9, 82, 67
10, 18926, Note_off_c, 9, 82, 79
10, 18929, Note_off_c, 9, 42, 84
10, 18937, Note_off_c, 9, 38, 57
10, 18941, Note_off_c, 9, 36, 46
10, 18960, Note_on_c, 9, 42, 56
10, 18964, Note_on_c, 9, 82, 71
10, 18974, Note_off_c, 9, 42, 92
10, 18975, Note_off_c, 9, 82, 88
10, 18984, Note_on_c, 9, 38, 70
10, 19004, Note_off_c, 9, 38, 75
10, 19008, Note_on_c, 9, 36, 122
10, 19008, Note_on_c, 9, 42, 64
10, 19010, Note_on_c, 9, 82, 66
10, 19023, Note_off_c, 9, 82, 82
10, 19025, Note_off_c, 9, 42, 90
10, 19033, Note_off_c, 9, 36, 63
10, 19056, Note_on_c, 9, 42, 58
10, 19059, Note_on_c, 9, 82, 69
10, 19072, Note_off_c, 9, 82, 86
10, 19073, Note_off_c, 9, 42, 94
10, 19104, Note_off_c, 9, 47, 118
10, 19104, Note_on_c, 9, 42, 64
10, 19104, Note_on_c, 9, 38, 100
10, 19108, Note_on_c, 9, 82, 69
10, 19118, Note_off_c, 9, 82, 94
10, 19123, Note_off_c, 9, 42, 96
10, 19129, Note_off_c, 9, 38, 57
10, 19152, Note_on_c, 9, 42, 58
10, 19152, Note_on_c, 9, 47, 127
10, 19155, Note_on_c, 9, 82, 69
10, 19167, Note_off_c, 9, 82, 79
10, 19168, Note_off_c, 9, 42, 103
10, 19200, Note_on_c, 9, 36, 122
10, 19200, Note_on_c, 9, 42, 67
10, 19205, Note_on_c, 9, 82, 67
10, 19217, Note_off_c, 9, 82, 80
10, 19217, Note_off_c, 9, 42, 88
10, 19220, Note_off_c, 9, 36, 90
10, 19248, Note_on_c, 9, 36, 118
10, 19248, Note_on_c, 9, 42, 58
10, 19251, Note_on_c, 9, 82, 69
10, 19264, Note_off_c, 9, 36, 92
10, 19265, Note_off_c, 9, 82, 101
10, 19265, Note_off_c, 9, 42, 99
10, 19296, Note_on_c, 9, 36, 121
10, 19296, Note_on_c, 9, 42, 61
10, 19296, Note_on_c, 9, 38, 100
10, 19301, Note_on_c, 9, 82, 69
10, 19314, Note_off_c, 9, 82, 88
10, 19314, Note_off_c, 9, 42, 84
10, 19322, Note_off_c, 9, 38, 62
10, 19329, Note_off_c, 9, 36, 46
10, 19344, Note_on_c, 9, 42, 63
10, 19348, Note_on_c, 9, 82, 67
10, 19361, Note_off_c, 9, 82, 90
10, 19363, Note_off_c, 9, 42, 96
10, 19368, Note_on_c, 9, 38, 70
10, 19387, Note_off_c, 9, 38, 73
10, 19392, Note_on_c, 9, 42, 52
10, 19392, Note_on_c, 9, 36, 121
10, 19394, Note_on_c, 9, 82, 63
10, 19407, Note_off_c, 9, 82, 88
10, 19411, Note_off_c, 9, 42, 94
10, 19417, Note_off_c, 9, 36, 70
10, 19440, Note_on_c, 9, 82, 64
10, 19440, Note_on_c, 9, 42, 58
10, 19454, Note_off_c, 9, 82, 94
10, 19457, Note_off_c, 9, 42, 84
10, 19482, Note_off_c, 9, 47, 115
10, 19488, Note_on_c, 9, 42, 63
10, 19488, Note_on_c, 9, 38, 105
10, 19490, Note_on_c, 9, 82, 71
10, 19502, Note_off_c, 9, 82, 92
10, 19504, Note_off_c, 9, 42, 92
10, 19514, Note_off_c, 9, 38, 54
10, 19536, Note_on_c, 9, 82, 64
10, 19536, Note_on_c, 9, 42, 58
10, 19536, Note_on_c, 9, 47, 127
10, 19549, Note_off_c, 9, 82, 88
10, 19553, Note_off_c, 9, 42, 96
10, 19584, Note_on_c, 9, 36, 122
10, 19584, Note_on_c, 9, 42, 71
10, 19586, Note_on_c, 9, 82, 69
10, 19598, Note_off_c, 9, 82, 92
10, 19601, Note_off_c, 9, 42, 90
10, 19603, Note_off_c, 9, 36, 86
10, 19632, Note_on_c, 9, 36, 118
10, 19632, Note_on_c, 9, 42, 60
10, 19635, Note_on_c, 9, 82, 69
10, 19646, Note_off_c, 9, 82, 94
10, 19648, Note_off_c, 9, 42, 90
10, 19648, Note_off_c, 9, 36, 106
10, 19680, Note_on_c, 9, 42, 67
10, 19680, Note_on_c, 9, 36, 111
10, 19680, Note_on_c, 9, 38, 96
10, 19684, Note_on_c, 9, 82, 71
10, 19696, Note_off_c, 9, 82, 86
10, 19699, Note_off_c, 9, 42, 88
10, 19701, Note_off_c, 9, 38, 55
10, 19719, Note_off_c, 9, 36, 66
10, 19728, Note_on_c, 9, 42, 58
10, 19731, Note_on_c, 9, 82, 67
10, 19743, Note_off_c, 9, 42, 94
10, 19746, Note_off_c, 9, 82, 94
10, 19752, Note_on_c, 9, 38, 70
10, 19769, Note_off_c, 9, 38, 88
10, 19776, Note_on_c, 9, 42, 57
10, 19776, Note_on_c, 9, 36, 113
10, 19780, Note_on_c, 9, 82, 67
10, 19793, Note_off_c, 9, 82, 92
10, 19793, Note_off_c, 9, 42, 88
10, 19805, Note_off_c, 9, 36, 69
10, 19824, Note_on_c, 9, 42, 63
10, 19826, Note_on_c, 9, 82, 66
10, 19837, Note_off_c, 9, 42, 92
10, 19839, Note_off_c, 9, 82, 90
10, 19861, Note_off_c, 9, 47, 106
10, 19872, Note_on_c, 9, 42, 63
10, 19872, Note_on_c, 9, 38, 100
10, 19874, Note_on_c, 9, 82, 66
10, 19887, Note_off_c, 9, 82, 82
10, 19888, Note_off_c, 9, 42, 88
10, 19893, Note_off_c, 9, 38, 70
10, 19920, Note_on_c, 9, 47, 127
10, 19920, Note_on_c, 9, 42, 58
10, 19922, Note_on_c, 9, 82, 64
10, 19936, Note_off_c, 9, 42, 92
10, 19937, Note_off_c, 9, 82, 90
10, 19968, Note_on_c, 9, 82, 67
10, 19968, Note_on_c, 9, 42, 61
10, 19968, Note_on_c, 9, 36, 118
10, 19981, Note_off_c, 9, 82, 96
10, 19984, Note_off_c, 9, 42, 94
10, 19985, Note_off_c, 9, 36, 84
10, 20015, Note_on_c, 9, 82, 64
10, 20016, Note_on_c, 9, 42, 61
10, 20016, Note_on_c, 9, 36, 109
10, 20026, Note_off_c, 9, 82, 86
10, 20030, Note_off_c, 9, 36, 101
10, 20034, Note_off_c, 9, 42, 94
10, 20062, Note_on_c, 9, 82, 69
10, 20064, Note_on_c, 9, 42, 64
10, 20064, Note_on_c, 9, 36, 115
10, 20064, Note_on_c, 9, 38, 100
10, 20075, Note_off_c, 9, 82, 96
10, 20083, Note_off_c, 9, 42, 92
10, 20088, Note_off_c, 9, 38, 63
10, 20092, Note_off_c, 9, 36, 47
10, 20112, Note_on_c, 9, 42, 55
10, 20114, Note_on_c, 9, 82, 71
10, 20128, Note_off_c, 9, 82, 92
10, 20129, Note_off_c, 9, 42, 86
10, 20136, Note_on_c, 9, 38, 70
10, 20153, Note_off_c, 9, 38, 88
10, 20160, Note_on_c, 9, 42, 61
10, 20160, Note_on_c, 9, 36, 122
10, 20162, Note_on_c, 9, 82, 69
10, 20176, Note_off_c, 9, 82, 96
10, 20177, Note_off_c, 9, 42, 99
10, 20179, Note_off_c, 9, 36, 67
10, 20208, Note_on_c, 9, 42, 58
10, 20213, Note_on_c, 9, 82, 69
10, 20225, Note_off_c, 9, 82, 88
10, 20226, Note_off_c, 9, 42, 92
10, 20256, Note_off_c, 9, 47, 118
10, 20256, Note_on_c, 9, 42, 60
10, 20256, Note_on_c, 9, 38, 100
10, 20258, Note_on_c, 9, 82, 71
10, 20271, Note_off_c, 9, 82, 84
10, 20273, Note_off_c, 9, 42, 92
10, 20278, Note_off_c, 9, 38, 62
10, 20304, Note_on_c, 9, 42, 58
10, 20304, Note_on_c, 9, 47, 127
10, 20308, Note_on_c, 9, 82, 69
10, 20321, Note_off_c, 9, 42, 92
10, 20323, Note_off_c, 9, 82, 88
10, 20352, Note_on_c, 9, 42, 63
10, 20352, Note_on_c, 9, 36, 122
10, 20355, Note_on_c, 9, 82, 69
10, 20368, Note_off_c, 9, 42, 96
10, 20369, Note_off_c, 9, 82, 92
10, 20371, Note_off_c, 9, 36, 92
10, 20400, Note_on_c, 9, 36, 109
10, 20400, Note_on_c, 9, 42, 55
10, 20403, Note_on_c, 9, 82, 69
10, 20414, Note_off_c, 9, 42, 94
10, 20415, Note_off_c, 9, 36, 80
10, 20417, Note_off_c, 9, 82, 92
10, 20448, Note_on_c, 9, 42, 66
10, 20448, Note_on_c, 9, 36, 122
10, 20448, Note_on_c, 9, 38, 100
10, 20451, Note_on_c, 9, 82, 66
10, 20463, Note_off_c, 9, 42, 96
10, 20464, Note_off_c, 9, 82, 90
10, 20470, Note_off_c, 9, 36, 62
10, 20472, Note_off_c, 9, 38, 58
10, 20496, Note_on_c, 9, 42, 58
10, 20500, Note_on_c, 9, 82, 69
10, 20509, Note_off_c, 9, 42, 96
10, 20513, Note_off_c, 9, 82, 82
10, 20520, Note_on_c, 9, 38, 70
10, 20541, Note_off_c, 9, 38, 53
10, 20544, Note_on_c, 9, 82, 74
10, 20544, Note_on_c, 9, 42, 63
10, 20544, Note_on_c, 9, 36, 122
10, 20558, Note_off_c, 9, 82, 92
10, 20560, Note_off_c, 9, 42, 90
10, 20567, Note_off_c, 9, 36, 61
10, 20592, Note_on_c, 9, 82, 69
10, 20592, Note_on_c, 9, 46, 90
10, 20604, Note_off_c, 9, 46, 92
10, 20607, Note_off_c, 9, 82, 82
10, 20611, Note_off_c, 9, 47, 94
10, 20639, Note_on_c, 9, 57, 74
10, 20640, Note_on_c, 9, 38, 100
10, 20640, Note_on_c, 9, 42, 66
10, 20642, Note_on_c, 9, 82, 71
10, 20654, Note_off_c, 9, 82, 86
10, 20656, Note_off_c, 9, 42, 96
10, 20666, Note_off_c, 9, 38, 57
10, 20686, Note_on_c, 9, 52, 50
10, 20688, Note_on_c, 9, 47, 127
10, 20688, Note_on_c, 9, 42, 66
10, 20692, Note_on_c, 9, 82, 71
10, 20703, Note_off_c, 9, 82, 84
10, 20706, Note_off_c, 9, 42, 103
10, 20736, Note_off_c, 9, 47, 108
10, 20736, Note_off_c, 9, 52, 99
10, 20736, Note_off_c, 9, 57, 79
10, 20736, Note_on_c, 9, 36, 122
10, 20736, Note_on_c, 9, 42, 69
10, 20739, Note_on_c, 9, 82, 64
10, 20752, Note_off_c, 9, 82, 80
10, 20753, Note_off_c, 9, 36, 88
10, 20754, Note_off_c, 9, 42, 99
10, 20784, Note_on_c, 9, 36, 118
10, 20784, Note_on_c, 9, 42, 64
10, 20787, Note_on_c, 9, 82, 64
10, 20801, Note_off_c, 9, 36, 99
10, 20802, Note_off_c, 9, 82, 77
10, 20802, Note_off_c, 9, 42, 99
10, 20832, Note_on_c, 9, 36, 122
10, 20832, Note_on_c, 9, 42, 69
10, 20832, Note_on_c, 9, 38, 92
10, 20835, Note_on_c, 9, 82, 61
10, 20850, Note_off_c, 9, 82, 80
10, 20851, Note_off_c, 9, 42, 101
10, 20855, Note_off_c, 9, 38, 84
10, 20859, Note_off_c, 9, 36, 53
10, 20880, Note_on_c, 9, 42, 64
10, 20885, Note_on_c, 9, 82, 61
10, 20897, Note_off_c, 9, 42, 99
10, 20900, Note_off_c, 9, 82, 84
10, 20904, Note_on_c, 9, 38, 70
10, 20920, Note_off_c, 9, 38, 99
10, 20928, Note_on_c, 9, 36, 122
10, 20928, Note_on_c, 9, 42, 56
10, 20931, Note_on_c, 9, 82, 64
10, 20944, Note_off_c, 9, 42, 96
10, 20945, Note_off_c, 9, 82, 80
10, 20954, Note_off_c, 9, 36, 35
10, 20976, Note_on_c, 9, 42, 60
10, 20978, Note_on_c, 9, 82, 69
10, 20992, Note_off_c, 9, 82, 90
10, 20995, Note_off_c, 9, 42, 96
10, 21024, Note_on_c, 9, 42, 63
10, 21024, Note_on_c, 9, 38, 105
10, 21028, Note_on_c, 9, 82, 66
10, 21041, Note_off_c, 9, 82, 90
10, 21043, Note_off_c, 9, 42, 90
10, 21045, Note_off_c, 9, 38, 67
10, 21072, Note_on_c, 9, 47, 124
10, 21072, Note_on_c, 9, 42, 52
10, 21078, Note_on_c, 9, 82, 66
10, 21090, Note_off_c, 9, 82, 92
10, 21090, Note_off_c, 9, 42, 101
10, 21120, Note_on_c, 9, 42, 61
10, 21120, Note_on_c, 9, 36, 122
10, 21123, Note_on_c, 9, 82, 64
10, 21136, Note_off_c, 9, 82, 90
10, 21137, Note_off_c, 9, 36, 106
10, 21140, Note_off_c, 9, 42, 94
10, 21168, Note_on_c, 9, 42, 63
10, 21168, Note_on_c, 9, 36, 115
10, 21171, Note_on_c, 9, 82, 66
10, 21183, Note_off_c, 9, 82, 90
10, 21183, Note_off_c, 9, 36, 101
10, 21186, Note_off_c, 9, 42, 94
10, 21216, Note_on_c, 9, 42, 63
10, 21216, Note_on_c, 9, 36, 122
10, 21216, Note_on_c, 9, 38, 96
10, 21219, Note_on_c, 9, 82, 66
10, 21232, Note_off_c, 9, 82, 92
10, 21233, Note_off_c, 9, 42, 94
10, 21238, Note_off_c, 9, 36, 66
10, 21241, Note_off_c, 9, 38, 67
10, 21264, Note_on_c, 9, 42, 63
10, 21267, Note_on_c, 9, 82, 66
10, 21279, Note_off_c, 9, 42, 92
10, 21280, Note_off_c, 9, 82, 88
10, 21288, Note_on_c, 9, 38, 70
10, 21308, Note_off_c, 9, 38, 77
10, 21312, Note_on_c, 9, 42, 64
10, 21312, Note_on_c, 9, 36, 122
10, 21314, Note_on_c, 9, 82, 64
10, 21327, Note_off_c, 9, 82, 90
10, 21330, Note_off_c, 9, 42, 88
10, 21334, Note_off_c, 9, 36, 52
10, 21360, Note_on_c, 9, 42, 63
10, 21362, Note_on_c, 9, 82, 67
10, 21375, Note_off_c, 9, 82, 90
10, 21378, Note_off_c, 9, 42, 90
10, 21408, Note_on_c, 9, 38, 105
10, 21408, Note_on_c, 9, 42, 64
10, 21409, Note_off_c, 9, 47, 99
10, 21411, Note_on_c, 9, 82, 66
10, 21425, Note_off_c, 9, 82, 86
10, 21427, Note_off_c, 9, 42, 92
10, 21433, Note_off_c, 9, 38, 69
10, 21456, Note_on_c, 9, 47, 124
10, 21456, Note_on_c, 9, 42, 51
10, 21460, Note_on_c, 9, 82, 69
10, 21472, Note_off_c, 9, 42, 94
10, 21474, Note_off_c, 9, 82, 90
10, 21504, Note_on_c, 9, 42, 61
10, 21504, Note_on_c, 9, 36, 122
10, 21506, Note_on_c, 9, 57, 68
10, 21506, Note_on_c, 9, 82, 67
10, 21520, Note_off_c, 9, 82, 96
10, 21521, Note_off_c, 9, 36, 96
10, 21523, Note_off_c, 9, 42, 94
10, 21552, Note_on_c, 9, 42, 60
10, 21552, Note_on_c, 9, 36, 113
10, 21556, Note_on_c, 9, 82, 61
10, 21567, Note_off_c, 9, 82, 103
10, 21569, Note_off_c, 9, 36, 111
10, 21570, Note_off_c, 9, 42, 90
10, 21600, Note_on_c, 9, 42, 63
10, 21600, Note_on_c, 9, 36, 118
10, 21600, Note_on_c, 9, 38, 100
10, 21603, Note_on_c, 9, 82, 67
10, 21615, Note_off_c, 9, 82, 92
10, 21620, Note_off_c, 9, 42, 96
10, 21623, Note_off_c, 9, 36, 77
10, 21627, Note_off_c, 9, 38, 70
10, 21648, Note_on_c, 9, 82, 74
10, 21648, Note_on_c, 9, 42, 63
10, 21662, Note_off_c, 9, 82, 94
10, 21665, Note_off_c, 9, 42, 101
10, 21672, Note_on_c, 9, 38, 70
10, 21693, Note_off_c, 9, 38, 82
10, 21696, Note_on_c, 9, 82, 67
10, 21696, Note_on_c, 9, 42, 66
10, 21696, Note_on_c, 9, 36, 122
10, 21708, Note_off_c, 9, 82, 88
10, 21712, Note_off_c, 9, 42, 94
10, 21722, Note_off_c, 9, 36, 62
10, 21744, Note_on_c, 9, 42, 60
10, 21746, Note_on_c, 9, 82, 66
10, 21758, Note_off_c, 9, 82, 63
10, 21761, Note_off_c, 9, 42, 92
10, 21792, Note_on_c, 9, 42, 64
10, 21792, Note_on_c, 9, 38, 105
10, 21795, Note_off_c, 9, 47, 111
10, 21795, Note_on_c, 9, 82, 64
10, 21807, Note_off_c, 9, 82, 92
10, 21808, Note_off_c, 9, 42, 88
10, 21816, Note_off_c, 9, 38, 62
10, 21840, Note_on_c, 9, 47, 124
10, 21840, Note_on_c, 9, 42, 61
10, 21844, Note_on_c, 9, 82, 66
10, 21855, Note_off_c, 9, 82, 84
10, 21855, Note_off_c, 9, 42, 99
10, 21888, Note_on_c, 9, 36, 122
10, 21888, Note_on_c, 9, 42, 67
10, 21891, Note_on_c, 9, 82, 71
10, 21903, Note_off_c, 9, 82, 90
10, 21903, Note_off_c, 9, 42, 86
10, 21906, Note_off_c, 9, 36, 99
10, 21936, Note_on_c, 9, 82, 69
10, 21936, Note_on_c, 9, 36, 115
10, 21936, Note_on_c, 9, 42, 61
10, 21949, Note_off_c, 9, 82, 82
10, 21951, Note_off_c, 9, 42, 96
10, 21953, Note_off_c, 9, 36, 106
10, 21984, Note_on_c, 9, 36, 122
10, 21984, Note_on_c, 9, 42, 67
10, 21984, Note_on_c, 9, 38, 100
10, 21987, Note_on_c, 9, 82, 67
10, 21998, Note_off_c, 9, 82, 79
10, 22001, Note_off_c, 9, 42, 84
10, 22009, Note_off_c, 9, 38, 57
10, 22013, Note_off_c, 9, 36, 46
10, 22023, Note_off_c, 9, 57, 32
10, 22032, Note_on_c, 9, 42, 56
10, 22036, Note_on_c, 9, 82, 71
10, 22046, Note_off_c, 9, 42, 92
10, 22047, Note_off_c, 9, 82, 88
10, 22056, Note_on_c, 9, 38, 70
10, 22076, Note_off_c, 9, 38, 75
10, 22080, Note_on_c, 9, 36, 122
10, 22080, Note_on_c, 9, 42, 64
10, 22082, Note_on_c, 9, 82, 66
10, 22095, Note_off_c, 9, 82, 82
10, 22097, Note_off_c, 9, 42, 90
10, 22105, Note_off_c, 9, 36, 63
10, 22128, Note_on_c, 9, 42, 58
10, 22131, Note_on_c, 9, 82, 69
10, 22144, Note_off_c, 9, 82, 86
10, 22145, Note_off_c, 9, 42, 94
10, 22176, Note_off_c, 9, 47, 118
10, 22176, Note_on_c, 9, 42, 64
10, 22176, Note_on_c, 9, 38, 100
10, 22180, Note_on_c, 9, 82, 69
10, 22190, Note_off_c, 9, 82, 94
10, 22195, Note_off_c, 9, 42, 96
10, 22201, Note_off_c, 9, 38, 57
10, 22224, Note_on_c, 9, 42, 58
10, 22224, Note_on_c, 9, 47, 127
10, 22227, Note_on_c, 9, 82, 69
10, 22239, Note_off_c, 9, 82, 79
10, 22240, Note_off_c, 9, 42, 103
10, 22271, Note_on_c, 9, 57, 68
10, 22272, Note_on_c, 9, 36, 122
10, 22272, Note_on_c, 9, 42, 67
10, 22277, Note_on_c, 9, 82, 67
10, 22289, Note_off_c, 9, 82, 80
10, 22289, Note_off_c, 9, 42, 88
10, 22292, Note_off_c, 9, 36, 90
10, 22320, Note_on_c, 9, 36, 118
10, 22320, Note_on_c, 9, 42, 58
10, 22323, Note_on_c, 9, 82, 69
10, 22336, Note_off_c, 9, 36, 92
10, 22337, Note_off_c, 9, 82, 101
10, 22337, Note_off_c, 9, 42, 99
10, 22368, Note_on_c, 9, 36, 121
10, 22368, Note_on_c, 9, 42, 61
10, 22368, Note_on_c, 9, 38, 100
10, 22373, Note_on_c, 9, 82, 69
10, 22386, Note_off_c, 9, 82, 88
10, 22386, Note_off_c, 9, 42, 84
10, 22394, Note_off_c, 9, 38, 62
10, 22401, Note_off_c, 9, 36, 46
10, 22416, Note_on_c, 9, 42, 63
10, 22420, Note_on_c, 9, 82, 67
10, 22433, Note_off_c, 9, 82, 90
10, 22435, Note_off_c, 9, 42, 96
10, 22440, Note_on_c, 9, 38, 70
10, 22459, Note_off_c, 9, 38, 73
10, 22464, Note_on_c, 9, 42, 52
10, 22464, Note_on_c, 9, 36, 121
10, 22466, Note_on_c, 9, 82, 63
10, 22479, Note_off_c, 9, 82, 88
10, 22483, Note_off_c, 9, 42, 94
10, 22489, Note_off_c, 9, 36, 70
10, 22512, Note_on_c, 9, 82, 64
10, 22512, Note_on_c, 9, 42, 58
10, 22526, Note_off_c, 9, 82, 94
10, 22529, Note_off_c, 9, 42, 84
10, 22554, Note_off_c, 9, 47, 115
10, 22560, Note_on_c, 9, 42, 63
10, 22560, Note_on_c, 9, 38, 105
10, 22562, Note_on_c, 9, 82, 71
10, 22574, Note_off_c, 9, 82, 92
10, 22576, Note_off_c, 9, 42, 92
10, 22586, Note_off_c, 9, 38, 54
10, 22608, Note_on_c, 9, 82, 64
10, 22608, Note_on_c, 9, 42, 58
10, 22608, Note_on_c, 9, 47, 127
10, 22619, Note_off_c, 9, 57, 69
10, 22621, Note_off_c, 9, 82, 88
10, 22625, Note_off_c, 9, 42, 96
10, 22656, Note_on_c, 9, 36, 122
10, 22656, Note_on_c, 9, 42, 71
10, 22658, Note_on_c, 9, 82, 69
10, 22670, Note_off_c, 9, 82, 92
10, 22673, Note_off_c, 9, 42, 90
10, 22675, Note_off_c, 9, 36, 86
10, 22704, Note_on_c, 9, 36, 118
10, 22704, Note_on_c, 9, 42, 60
10, 22707, Note_on_c, 9, 82, 69
10, 22718, Note_off_c, 9, 82, 94
10, 22720, Note_off_c, 9, 42, 90
10, 22720, Note_off_c, 9, 36, 106
10, 22752, Note_on_c, 9, 42, 67
10, 22752, Note_on_c, 9, 36, 111
10, 22752, Note_on_c, 9, 38, 96
10, 22756, Note_on_c, 9, 82, 71
10, 22768, Note_off_c, 9, 82, 86
10, 22771, Note_off_c, 9, 42, 88
10, 22773, Note_off_c, 9, 38, 55
10, 22791, Note_off_c, 9, 36, 66
10, 22800, Note_on_c, 9, 42, 58
10, 22803, Note_on_c, 9, 82, 67
10, 22815, Note_off_c, 9, 42, 94
10, 22818, Note_off_c, 9, 82, 94
10, 22824, Note_on_c, 9, 38, 70
10, 22841, Note_off_c, 9, 38, 88
10, 22848, Note_on_c, 9, 42, 57
10, 22848, Note_on_c, 9, 36, 113
10, 22852, Note_on_c, 9, 82, 67
10, 22865, Note_off_c, 9, 82, 92
10, 22865, Note_off_c, 9, 42, 88
10, 22877, Note_off_c, 9, 36, 69
10, 22896, Note_on_c, 9, 42, 63
10, 22898, Note_on_c, 9, 82, 66
10, 22909, Note_off_c, 9, 42, 92
10, 22911, Note_off_c, 9, 82, 90
10, 22933, Note_off_c, 9, 47, 106
10, 22944, Note_on_c, 9, 42, 63
10, 22944, Note_on_c, 9, 38, 100
10, 22946, Note_on_c, 9, 82, 66
10, 22959, Note_off_c, 9, 82, 82
10, 22960, Note_off_c, 9, 42, 88
10, 22965, Note_off_c, 9, 38, 70
10, 22992, Note_on_c, 9, 47, 127
10, 22992, Note_on_c, 9, 42, 58
10, 22994, Note_on_c, 9, 82, 64
10, 23008, Note_off_c, 9, 42, 92
10, 23009, Note_off_c, 9, 82, 90
10, 23040, Note_on_c, 9, 82, 67
10, 23040, Note_on_c, 9, 42, 61
10, 23040, Note_on_c, 9, 36, 118
10, 23053, Note_off_c, 9, 82, 96
10, 23056, Note_off_c, 9, 42, 94
10, 23057, Note_off_c, 9, 36, 84
10, 23087, Note_on_c, 9, 82, 64
10, 23088, Note_on_c, 9, 42, 61
10, 23088, Note_on_c, 9, 36, 109
10, 23098, Note_off_c, 9, 82, 86
10, 23102, Note_off_c, 9, 36, 101
10, 23106, Note_off_c, 9, 42, 94
10, 23134, Note_on_c, 9, 82, 69
10, 23136, Note_on_c, 9, 42, 64
10, 23136, Note_on_c, 9, 36, 115
10, 23136, Note_on_c, 9, 38, 100
10, 23147, Note_off_c, 9, 82, 96
10, 23155, Note_off_c, 9, 42, 92
10, 23160, Note_off_c, 9, 38, 63
10, 23164, Note_off_c, 9, 36, 47
10, 23184, Note_on_c, 9, 42, 55
10, 23186, Note_on_c, 9, 82, 71
10, 23200, Note_off_c, 9, 82, 92
10, 23201, Note_off_c, 9, 42, 86
10, 23208, Note_on_c, 9, 38, 70
10, 23225, Note_off_c, 9, 38, 88
10, 23232, Note_on_c, 9, 42, 61
10, 23232, Note_on_c, 9, 36, 122
10, 23234, Note_on_c, 9, 82, 69
10, 23248, Note_off_c, 9, 82, 96
10, 23249, Note_off_c, 9, 42, 99
10, 23251, Note_off_c, 9, 36, 67
10, 23280, Note_on_c, 9, 42, 58
10, 23285, Note_on_c, 9, 82, 69
10, 23297, Note_off_c, 9, 82, 88
10, 23298, Note_off_c, 9, 42, 92
10, 23328, Note_off_c, 9, 47, 118
10, 23328, Note_on_c, 9, 42, 60
10, 23328, Note_on_c, 9, 38, 100
10, 23330, Note_on_c, 9, 82, 71
10, 23343, Note_off_c, 9, 82, 84
10, 23345, Note_off_c, 9, 42, 92
10, 23350, Note_off_c, 9, 38, 62
10, 23376, Note_on_c, 9, 42, 58
10, 23376, Note_on_c, 9, 47, 127
10, 23380, Note_on_c, 9, 82, 69
10, 23393, Note_off_c, 9, 42, 92
10, 23395, Note_off_c, 9, 82, 88
10, 23424, Note_on_c, 9, 42, 63
10, 23424, Note_on_c, 9, 36, 122
10, 23427, Note_on_c, 9, 82, 69
10, 23440, Note_off_c, 9, 42, 96
10, 23441, Note_off_c, 9, 82, 92
10, 23443, Note_off_c, 9, 36, 92
10, 23472, Note_on_c, 9, 36, 109
10, 23472, Note_on_c, 9, 42, 55
10, 23475, Note_on_c, 9, 82, 69
10, 23486, Note_off_c, 9, 42, 94
10, 23487, Note_off_c, 9, 36, 80
10, 23489, Note_off_c, 9, 82, 92
10, 23520, Note_on_c, 9, 42, 66
10, 23520, Note_on_c, 9, 36, 122
10, 23520, Note_on_c, 9, 38, 100
10, 23523, Note_on_c, 9, 82, 66
10, 23535, Note_off_c, 9, 42, 96
10, 23536, Note_off_c, 9, 82, 90
10, 23542, Note_off_c, 9, 36, 62
10, 23544, Note_off_c, 9, 38, 58
10, 23568, Note_on_c, 9, 42, 58
10, 23572, Note_on_c, 9, 82, 69
10, 23581, Note_off_c, 9, 42, 96
10, 23585, Note_off_c, 9, 82, 82
10, 23592, Note_on_c, 9, 38, 70
10, 23613, Note_off_c, 9, 38, 53
10, 23616, Note_on_c, 9, 82, 74
10, 23616, Note_on_c, 9, 42, 63
10, 23616, Note_on_c, 9, 36, 122
10, 23630, Note_off_c, 9, 82, 92
10, 23632, Note_off_c, 9, 42, 90
10, 23639, Note_off_c, 9, 36, 61
10, 23664, Note_on_c, 9, 82, 69
10, 23664, Note_on_c, 9, 46, 90
10, 23676, Note_off_c, 9, 46, 92
10, 23679, Note_off_c, 9, 82, 82
10, 23683, Note_off_c, 9, 47, 94
10, 23711, Note_on_c, 9, 57, 74
10, 23712, Note_on_c, 9, 38, 100
10, 23712, Note_on_c, 9, 42, 66
10, 23714, Note_on_c, 9, 82, 71
10, 23726, Note_off_c, 9, 82, 86
10, 23728, Note_off_c, 9, 42, 96
10, 23738, Note_off_c, 9, 38, 57
10, 23758, Note_on_c, 9, 52, 50
10, 23760, Note_on_c, 9, 47, 127
10, 23760, Note_on_c, 9, 42, 66
10, 23764, Note_on_c, 9, 82, 71
10, 23775, Note_off_c, 9, 82, 84
10, 23778, Note_off_c, 9, 42, 103
10, 23808, Note_on_c, 9, 36, 122
10, 23808, Note_on_c, 9, 42, 69
10, 23809, Note_off_c, 9, 47, 108
10, 23811, Note_on_c, 9, 82, 64
10, 23818, Note_off_c, 9, 57, 79
10, 23824, Note_off_c, 9, 82, 80
10, 23825, Note_off_c, 9, 36, 88
10, 23826, Note_off_c, 9, 42, 99
10, 23851, Note_off_c, 9, 52, 99
10, 23856, Note_on_c, 9, 36, 118
10, 23856, Note_on_c, 9, 42, 64
10, 23859, Note_on_c, 9, 82, 64
10, 23873, Note_off_c, 9, 36, 99
10, 23874, Note_off_c, 9, 82, 77
10, 23874, Note_off_c, 9, 42, 99
10, 23904, Note_on_c, 9, 36, 122
10, 23904, Note_on_c, 9, 42, 69
10, 23904, Note_on_c, 9, 38, 92
10, 23907, Note_on_c, 9, 82, 61
10, 23922, Note_off_c, 9, 82, 80
10, 23923, Note_off_c, 9, 42, 101
10, 23927, Note_off_c, 9, 38, 84
10, 23931, Note_off_c, 9, 36, 53
10, 23952, Note_on_c, 9, 42, 64
10, 23957, Note_on_c, 9, 82, 61
10, 23969, Note_off_c, 9, 42, 99
10, 23972, Note_off_c, 9, 82, 84
10, 23976, Note_on_c, 9, 38, 70
10, 23992, Note_off_c, 9, 38, 99
10, 24000, Note_on_c, 9, 36, 122
10, 24000, Note_on_c, 9, 42, 56
10, 24003, Note_on_c, 9, 82, 64
10, 24016, Note_off_c, 9, 42, 96
10, 24017, Note_off_c, 9, 82, 80
10, 24026, Note_off_c, 9, 36, 35
10, 24048, Note_on_c, 9, 42, 60
10, 24050, Note_on_c, 9, 82, 69
10, 24064, Note_off_c, 9, 82, 90
10, 24067, Note_off_c, 9, 42, 96
10, 24096, Note_on_c, 9, 42, 63
10, 24096, Note_on_c, 9, 38, 105
10, 24100, Note_on_c, 9, 82, 66
10, 24113, Note_off_c, 9, 82, 90
10, 24115, Note_off_c, 9, 42, 90
10, 24117, Note_off_c, 9, 38, 67
10, 24144, Note_on_c, 9, 47, 124
10, 24144, Note_on_c, 9, 42, 52
10, 24150, Note_on_c, 9, 82, 66
10, 24162, Note_off_c, 9, 82, 92
10, 24162, Note_off_c, 9, 42, 101
10, 24192, Note_on_c, 9, 42, 61
10, 24192, Note_on_c, 9, 36, 122
10, 24195, Note_on_c, 9, 82, 64
10, 24208, Note_off_c, 9, 82, 90
10, 24209, Note_off_c, 9, 36, 106
10, 24212, Note_off_c, 9, 42, 94
10, 24240, Note_on_c, 9, 42, 63
10, 24240, Note_on_c, 9, 36, 115
10, 24243, Note_on_c, 9, 82, 66
10, 24255, Note_off_c, 9, 82, 90
10, 24255, Note_off_c, 9, 36, 101
10, 24258, Note_off_c, 9, 42, 94
10, 24288, Note_on_c, 9, 42, 63
10, 24288, Note_on_c, 9, 36, 122
10, 24288, Note_on_c, 9, 38, 96
10, 24291, Note_on_c, 9, 82, 66
10, 24304, Note_off_c, 9, 82, 92
10, 24305, Note_off_c, 9, 42, 94
10, 24310, Note_off_c, 9, 36, 66
10, 24313, Note_off_c, 9, 38, 67
10, 24336, Note_on_c, 9, 42, 63
10, 24339, Note_on_c, 9, 82, 66
10, 24351, Note_off_c, 9, 42, 92
10, 24352, Note_off_c, 9, 82, 88
10, 24360, Note_on_c, 9, 38, 70
10, 24380, Note_off_c, 9, 38, 77
10, 24384, Note_on_c, 9, 42, 64
10, 24384, Note_on_c, 9, 36, 122
10, 24386, Note_on_c, 9, 82, 64
10, 24399, Note_off_c, 9, 82, 90
10, 24402, Note_off_c, 9, 42, 88
10, 24406, Note_off_c, 9, 36, 52
10, 24432, Note_on_c, 9, 42, 63
10, 24434, Note_on_c, 9, 82, 67
10, 24447, Note_off_c, 9, 82, 90
10, 24450, Note_off_c, 9, 42, 90
10, 24480, Note_on_c, 9, 38, 105
10, 24480, Note_on_c, 9, 42, 64
10, 24481, Note_off_c, 9, 47, 99
10, 24483, Note_on_c, 9, 82, 66
10, 24497, Note_off_c, 9, 82, 86
10, 24499, Note_off_c, 9, 42, 92
10, 24505, Note_off_c, 9, 38, 69
10, 24528, Note_on_c, 9, 47, 124
10, 24528, Note_on_c, 9, 42, 51
10, 24532, Note_on_c, 9, 82, 69
10, 24544, Note_off_c, 9, 42, 94
10, 24546, Note_off_c, 9, 82, 90
10, 24576, Note_on_c, 9, 42, 61
10, 24576, Note_on_c, 9, 36, 122
10, 24578, Note_on_c, 9, 57, 68
10, 24578, Note_on_c, 9, 82, 67
10, 24592, Note_off_c, 9, 82, 96
10, 24593, Note_off_c, 9, 36, 96
10, 24595, Note_off_c, 9, 42, 94
10, 24624, Note_on_c, 9, 42, 60
10, 24624, Note_on_c, 9, 36, 113
10, 24628, Note_on_c, 9, 82, 61
10, 24639, Note_off_c, 9, 82, 103
10, 24641, Note_off_c, 9, 36, 111
10, 24642, Note_off_c, 9, 42, 90
10, 24672, Note_on_c, 9, 42, 63
10, 24672, Note_on_c, 9, 36, 118
10, 24672, Note_on_c, 9, 38, 100
10, 24675, Note_on_c, 9, 82, 67
10, 24687, Note_off_c, 9, 82, 92
10, 24692, Note_off_c, 9, 42, 96
10, 24695, Note_off_c, 9, 36, 77
10, 24699, Note_off_c, 9, 38, 70
10, 24720, Note_on_c, 9, 82, 74
10, 24720, Note_on_c, 9, 42, 63
10, 24734, Note_off_c, 9, 82, 94
10, 24737, Note_off_c, 9, 42, 101
10, 24744, Note_on_c, 9, 38, 70
10, 24765, Note_off_c, 9, 38, 82
10, 24768, Note_on_c, 9, 82, 67
10, 24768, Note_on_c, 9, 42, 66
10, 24768, Note_on_c, 9, 36, 122
10, 24780, Note_off_c, 9, 82, 88
10, 24784, Note_off_c, 9, 42, 94
10, 24794, Note_off_c, 9, 36, 62
10, 24816, Note_on_c, 9, 42, 60
10, 24818, Note_on_c, 9, 82, 66
10, 24830, Note_off_c, 9, 82, 63
10, 24833, Note_off_c, 9, 42, 92
10, 24864, Note_on_c, 9, 42, 64
10, 24864, Note_on_c, 9, 38, 105
10, 24867, Note_off_c, 9, 47, 111
10, 24867, Note_on_c, 9, 82, 64
10, 24879, Note_off_c, 9, 82, 92
10, 24880, Note_off_c, 9, 42, 88
10, 24888, Note_off_c, 9, 38, 62
10, 24912, Note_on_c, 9, 47, 124
10, 24912, Note_on_c, 9, 42, 61
10, 24916, Note_on_c, 9, 82, 66
10, 24927, Note_off_c, 9, 82, 84
10, 24927, Note_off_c, 9, 42, 99
10, 24960, Note_on_c, 9, 36, 122
10, 24960, Note_on_c, 9, 42, 67
10, 24963, Note_on_c, 9, 82, 71
10, 24975, Note_off_c, 9, 82, 90
10, 24975, Note_off_c, 9, 42, 86
10, 24978, Note_off_c, 9, 36, 99
10, 25008, Note_on_c, 9, 82, 69
10, 25008, Note_on_c, 9, 36, 115
10, 25008, Note_on_c, 9, 42, 61
10, 25021, Note_off_c, 9, 82, 82
10, 25023, Note_off_c, 9, 42, 96
10, 25025, Note_off_c, 9, 36, 106
10, 25056, Note_on_c, 9, 36, 122
10, 25056, Note_on_c, 9, 42, 67
10, 25056, Note_on_c, 9, 38, 100
10, 25059, Note_on_c, 9, 82, 67
10, 25070, Note_off_c, 9, 82, 79
10, 25073, Note_off_c, 9, 42, 84
10, 25081, Note_off_c, 9, 38, 57
10, 25085, Note_off_c, 9, 36, 46
10, 25095, Note_off_c, 9, 57, 32
10, 25104, Note_on_c, 9, 42, 56
10, 25108, Note_on_c, 9, 82, 71
10, 25118, Note_off_c, 9, 42, 92
10, 25119, Note_off_c, 9, 82, 88
10, 25128, Note_on_c, 9, 38, 70
10, 25148, Note_off_c, 9, 38, 75
10, 25152, Note_on_c, 9, 36, 122
10, 25152, Note_on_c, 9, 42, 64
10, 25154, Note_on_c, 9, 82, 66
10, 25167, Note_off_c, 9, 82, 82
10, 25169, Note_off_c, 9, 42, 90
10, 25177, Note_off_c, 9, 36, 63
10, 25200, Note_on_c, 9, 42, 58
10, 25203, Note_on_c, 9, 82, 69
10, 25216, Note_off_c, 9, 82, 86
10, 25217, Note_off_c, 9, 42, 94
10, 25248, Note_off_c, 9, 47, 118
10, 25248, Note_on_c, 9, 42, 64
10, 25248, Note_on_c, 9, 38, 100
10, 25252, Note_on_c, 9, 82, 69
10, 25262, Note_off_c, 9, 82, 94
10, 25267, Note_off_c, 9, 42, 96
10, 25273, Note_off_c, 9, 38, 57
10, 25296, Note_on_c, 9, 42, 58
10, 25296, Note_on_c, 9, 47, 127
10, 25299, Note_on_c, 9, 82, 69
10, 25311, Note_off_c, 9, 82, 79
10, 25312, Note_off_c, 9, 42, 103
10, 25343, Note_on_c, 9, 57, 68
10, 25344, Note_on_c, 9, 36, 122
10, 25344, Note_on_c, 9, 42, 67
10, 25349, Note_on_c, 9, 82, 67
10, 25361, Note_off_c, 9, 82, 80
10, 25361, Note_off_c, 9, 42, 88
10, 25364, Note_off_c, 9, 36, 90
10, 25392, Note_on_c, 9, 36, 118
10, 25392, Note_on_c, 9, 42, 58
10, 25395, Note_on_c, 9, 82, 69
10, 25408, Note_off_c, 9, 36, 92
10, 25409, Note_off_c, 9, 82, 101
10, 25409, Note_off_c, 9, 42, 99
10, 25440, Note_on_c, 9, 36, 121
10, 25440, Note_on_c, 9, 42, 61
10, 25440, Note_on_c, 9, 38, 100
10, 25445, Note_on_c, 9, 82, 69
10, 25458, Note_off_c, 9, 82, 88
10, 25458, Note_off_c, 9, 42, 84
10, 25466, Note_off_c, 9, 38, 62
10, 25473, Note_off_c, 9, 36, 46
10, 25488, Note_on_c, 9, 42, 63
10, 25492, Note_on_c, 9, 82, 67
10, 25505, Note_off_c, 9, 82, 90
10, 25507, Note_off_c, 9, 42, 96
10, 25512, Note_on_c, 9, 38, 70
10, 25531, Note_off_c, 9, 38, 73
10, 25536, Note_on_c, 9, 42, 52
10, 25536, Note_on_c, 9, 36, 121
10, 25538, Note_on_c, 9, 82, 63
10, 25551, Note_off_c, 9, 82, 88
10, 25555, Note_off_c, 9, 42, 94
10, 25561, Note_off_c, 9, 36, 70
10, 25584, Note_on_c, 9, 82, 64
10, 25584, Note_on_c, 9, 42, 58
10, 25598, Note_off_c, 9, 82, 94
10, 25601, Note_off_c, 9, 42, 84
10, 25626, Note_off_c, 9, 47, 115
10, 25632, Note_on_c, 9, 42, 63
10, 25632, Note_on_c, 9, 38, 105
10, 25634, Note_on_c, 9, 82, 71
10, 25646, Note_off_c, 9, 82, 92
10, 25648, Note_off_c, 9, 42, 92
10, 25658, Note_off_c, 9, 38, 54
10, 25680, Note_on_c, 9, 82, 64
10, 25680, Note_on_c, 9, 42, 58
10, 25680, Note_on_c, 9, 47, 127
10, 25691, Note_off_c, 9, 57, 69
10, 25693, Note_off_c, 9, 82, 88
10, 25697, Note_off_c, 9, 42, 96
10, 25728, Note_on_c, 9, 36, 122
10, 25728, Note_on_c, 9, 42, 71
10, 25730, Note_on_c, 9, 82, 69
10, 25742, Note_off_c, 9, 82, 92
10, 25745, Note_off_c, 9, 42, 90
10, 25747, Note_off_c, 9, 36, 86
10, 25776, Note_on_c, 9, 36, 118
10, 25776, Note_on_c, 9, 42, 60
10, 25779, Note_on_c, 9, 82, 69
10, 25790, Note_off_c, 9, 82, 94
10, 25792, Note_off_c, 9, 42, 90
10, 25792, Note_off_c, 9, 36, 106
10, 25824, Note_on_c, 9, 42, 67
10, 25824, Note_on_c, 9, 36, 111
10, 25824, Note_on_c, 9, 38, 96
10, 25828, Note_on_c, 9, 82, 71
10, 25840, Note_off_c, 9, 82, 86
10, 25843, Note_off_c, 9, 42, 88
10, 25845, Note_off_c, 9, 38, 55
10, 25863, Note_off_c, 9, 36, 66
10, 25872, Note_on_c, 9, 42, 58
10, 25875, Note_on_c, 9, 82, 67
10, 25887, Note_off_c, 9, 42, 94
10, 25890, Note_off_c, 9, 82, 94
10, 25896, Note_on_c, 9, 38, 70
10, 25913, Note_off_c, 9, 38, 88
10, 25920, Note_on_c, 9, 42, 57
10, 25920, Note_on_c, 9, 36, 113
10, 25924, Note_on_c, 9, 82, 67
10, 25937, Note_off_c, 9, 82, 92
10, 25937, Note_off_c, 9, 42, 88
10, 25949, Note_off_c, 9, 36, 69
10, 25968, Note_on_c, 9, 42, 63
10, 25970, Note_on_c, 9, 82, 66
10, 25981, Note_off_c, 9, 42, 92
10, 25983, Note_off_c, 9, 82, 90
10, 26005, Note_off_c, 9, 47, 106
10, 26016, Note_on_c, 9, 42, 63
10, 26016, Note_on_c, 9, 38, 100
10, 26018, Note_on_c, 9, 82, 66
10, 26031, Note_off_c, 9, 82, 82
10, 26032, Note_off_c, 9, 42, 88
10, 26037, Note_off_c, 9, 38, 70
10, 26064, Note_on_c, 9, 47, 127
10, 26064, Note_on_c, 9, 42, 58
10, 26066, Note_on_c, 9, 82, 64
10, 26080, Note_off_c, 9, 42, 92
10, 26081, Note_off_c, 9, 82, 90
10, 26112, Note_on_c, 9, 82, 67
10, 26112, Note_on_c, 9, 42, 61
10, 26112, Note_on_c, 9, 36, 118
10, 26125, Note_off_c, 9, 82, 96
10, 26128, Note_off_c, 9, 42, 94
10, 26129, Note_off_c, 9, 36, 84
10, 26159, Note_on_c, 9, 82, 64
10, 26160, Note_on_c, 9, 42, 61
10, 26160, Note_on_c, 9, 36, 109
10, 26170, Note_off_c, 9, 82, 86
10, 26174, Note_off_c, 9, 36, 101
10, 26178, Note_off_c, 9, 42, 94
10, 26206, Note_on_c, 9, 82, 69
10, 26208, Note_on_c, 9, 42, 64
10, 26208, Note_on_c, 9, 36, 115
10, 26208, Note_on_c, 9, 38, 100
10, 26219, Note_off_c, 9, 82, 96
10, 26227, Note_off_c, 9, 42, 92
10, 26232, Note_off_c, 9, 38, 63
10, 26236, Note_off_c, 9, 36, 47
10, 26256, Note_on_c, 9, 42, 55
10, 26258, Note_on_c, 9, 82, 71
10, 26272, Note_off_c, 9, 82, 92
10, 26273, Note_off_c, 9, 42, 86
10, 26280, Note_on_c, 9, 38, 70
10, 26297, Note_off_c, 9, 38, 88
10, 26304, Note_on_c, 9, 42, 61
10, 26304, Note_on_c, 9, 36, 122
10, 26306, Note_on_c, 9, 82, 69
10, 26320, Note_off_c, 9, 82, 96
10, 26321, Note_off_c, 9, 42, 99
10, 26323, Note_off_c, 9, 36, 67
10, 26352, Note_on_c, 9, 42, 58
10, 26357, Note_on_c, 9, 82, 69
10, 26369, Note_off_c, 9, 82, 88
10, 26370, Note_off_c, 9, 42, 92
10, 26400, Note_off_c, 9, 47, 118
10, 26400, Note_on_c, 9, 42, 60
10, 26400, Note_on_c, 9, 38, 100
10, 26402, Note_on_c, 9, 82, 71
10, 26415, Note_off_c, 9, 82, 84
10, 26417, Note_off_c, 9, 42, 92
10, 26422, Note_off_c, 9, 38, 62
10, 26448, Note_on_c, 9, 42, 58
10, 26448, Note_on_c, 9, 47, 127
10, 26452, Note_on_c, 9, 82, 69
10, 26465, Note_off_c, 9, 42, 92
10, 26467, Note_off_c, 9, 82, 88
10, 26496, Note_on_c, 9, 42, 63
10, 26496, Note_on_c, 9, 36, 122
10, 26499, Note_on_c, 9, 82, 69
10, 26512, Note_off_c, 9, 42, 96
10, 26513, Note_off_c, 9, 82, 92
10, 26515, Note_off_c, 9, 36, 92
10, 26544, Note_on_c, 9, 36, 109
10, 26544, Note_on_c, 9, 42, 55
10, 26547, Note_on_c, 9, 82, 69
10, 26558, Note_off_c, 9, 42, 94
10, 26559, Note_off_c, 9, 36, 80
10, 26561, Note_off_c, 9, 82, 92
10, 26592, Note_on_c, 9, 42, 66
10, 26592, Note_on_c, 9, 36, 122
10, 26592, Note_on_c, 9, 38, 100
10, 26595, Note_on_c, 9, 82, 66
10, 26607, Note_off_c, 9, 42, 96
10, 26608, Note_off_c, 9, 82, 90
10, 26614, Note_off_c, 9, 36, 62
10, 26616, Note_off_c, 9, 38, 58
10, 26640, Note_on_c, 9, 42, 58
10, 26644, Note_on_c, 9, 82, 69
10, 26653, Note_off_c, 9, 42, 96
10, 26657, Note_off_c, 9, 82, 82
10, 26664, Note_on_c, 9, 38, 70
10, 26685, Note_off_c, 9, 38, 53
10, 26688, Note_on_c, 9, 82, 74
10, 26688, Note_on_c, 9, 42, 63
10, 26688, Note_on_c, 9, 36, 122
10, 26702, Note_off_c, 9, 82, 92
10, 26704, Note_off_c, 9, 42, 90
10, 26711, Note_off_c, 9, 36, 61
10, 26736, Note_on_c, 9, 82, 69
10, 26736, Note_on_c, 9, 46, 90
10, 26748, Note_off_c, 9, 46, 92
10, 26751, Note_off_c, 9, 82, 82
10, 26755, Note_off_c, 9, 47, 94
10, 26783, Note_on_c, 9, 57, 74
10, 26784, Note_on_c, 9, 38, 100
10, 26784, Note_on_c, 9, 42, 66
10, 26786, Note_on_c, 9, 82, 71
10, 26798, Note_off_c, 9, 82, 86
10, 26800, Note_off_c, 9, 42, 96
10, 26810, Note_off_c, 9, 38, 57
10, 26830, Note_on_c, 9, 52, 50
10, 26832, Note_on_c, 9, 47, 127
10, 26832, Note_on_c, 9, 42, 66
10, 26836, Note_on_c, 9, 82, 71
10, 26847, Note_off_c, 9, 82, 84
10, 26850, Note_off_c, 9, 42, 103
10, 26880, Note_on_c, 9, 36, 122
10, 26880, Note_on_c, 9, 42, 69
10, 26881, Note_off_c, 9, 47, 108
10, 26883, Note_on_c, 9, 82, 64
10, 26890, Note_off_c, 9, 57, 79
10, 26896, Note_off_c, 9, 82, 80
10, 26897, Note_off_c, 9, 36, 88
10, 26898, Note_off_c, 9, 42, 99
10, 26923, Note_off_c, 9, 52, 99
10, 26928, Note_on_c, 9, 36, 118
10, 26928, Note_on_c, 9, 42, 64
10, 26931, Note_on_c, 9, 82, 64
10, 26945, Note_off_c, 9, 36, 99
10, 26946, Note_off_c, 9, 82, 77
10, 26946, Note_off_c, 9, 42, 99
10, 26976, Note_on_c, 9, 36, 122
10, 26976, Note_on_c, 9, 42, 69
10, 26976, Note_on_c, 9, 38, 92
10, 26979, Note_on_c, 9, 82, 61
10, 26994, Note_off_c, 9, 82, 80
10, 26995, Note_off_c, 9, 42, 101
10, 26999, Note_off_c, 9, 38, 84
10, 27003, Note_off_c, 9, 36, 53
10, 27024, Note_on_c, 9, 42, 64
10, 27029, Note_on_c, 9, 82, 61
10, 27041, Note_off_c, 9, 42, 99
10, 27044, Note_off_c, 9, 82, 84
10, 27048, Note_on_c, 9, 38, 70
10, 27064, Note_off_c, 9, 38, 99
10, 27072, Note_on_c, 9, 36, 122
10, 27072, Note_on_c, 9, 42, 56
10, 27075, Note_on_c, 9, 82, 64
10, 27088, Note_off_c, 9, 42, 96
10, 27089, Note_off_c, 9, 82, 80
10, 27098, Note_off_c, 9, 36, 35
10, 27120, Note_on_c, 9, 42, 60
10, 27122, Note_on_c, 9, 82, 69
10, 27136, Note_off_c, 9, 82, 90
10, 27139, Note_off_c, 9, 42, 96
10, 27168, Note_on_c, 9, 42, 63
10, 27168, Note_on_c, 9, 38, 105
10, 27172, Note_on_c, 9, 82, 66
10, 27185, Note_off_c, 9, 82, 90
10, 27187, Note_off_c, 9, 42, 90
10, 27189, Note_off_c, 9, 38, 67
10, 27216, Note_on_c, 9, 47, 124
10, 27216, Note_on_c, 9, 42, 52
10, 27222, Note_on_c, 9, 82, 66
10, 27234, Note_off_c, 9, 82, 92
10, 27234, Note_off_c, 9, 42, 101
10, 27264, Note_on_c, 9, 42, 61
10, 27264, Note_on_c, 9, 36, 122
10, 27267, Note_on_c, 9, 82, 64
10, 27280, Note_off_c, 9, 82, 90
10, 27281, Note_off_c, 9, 36, 106
10, 27284, Note_off_c, 9, 42, 94
10, 27312, Note_on_c, 9, 42, 63
10, 27312, Note_on_c, 9, 36, 115
10, 27315, Note_on_c, 9, 82, 66
10, 27327, Note_off_c, 9, 82, 90
10, 27327, Note_off_c, 9, 36, 101
10, 27330, Note_off_c, 9, 42, 94
10, 27360, Note_on_c, 9, 42, 63
10, 27360, Note_on_c, 9, 36, 122
10, 27360, Note_on_c, 9, 38, 96
10, 27363, Note_on_c, 9, 82, 66
10, 27376, Note_off_c, 9, 82, 92
10, 27377, Note_off_c, 9, 42, 94
10, 27382, Note_off_c, 9, 36, 66
10, 27385, Note_off_c, 9, 38, 67
10, 27408, Note_on_c, 9, 42, 63
10, 27411, Note_on_c, 9, 82, 66
10, 27423, Note_off_c, 9, 42, 92
10, 27424, Note_off_c, 9, 82, 88
10, 27432, Note_on_c, 9, 38, 70
10, 27452, Note_off_c, 9, 38, 77
10, 27456, Note_on_c, 9, 42, 64
10, 27456, Note_on_c, 9, 36, 122
10, 27458, Note_on_c, 9, 82, 64
10, 27471, Note_off_c, 9, 82, 90
10, 27474, Note_off_c, 9, 42, 88
10, 27478, Note_off_c, 9, 36, 52
10, 27504, Note_on_c, 9, 42, 63
10, 27506, Note_on_c, 9, 82, 67
10, 27519, Note_off_c, 9, 82, 90
10, 27522, Note_off_c, 9, 42, 90
10, 27552, Note_on_c, 9, 38, 105
10, 27552, Note_on_c, 9, 42, 64
10, 27553, Note_off_c, 9, 47, 99
10, 27555, Note_on_c, 9, 82, 66
10, 27569, Note_off_c, 9, 82, 86
10, 27571, Note_off_c, 9, 42, 92
10, 27577, Note_off_c, 9, 38, 69
10, 27600, Note_on_c, 9, 47, 124
10, 27600, Note_on_c, 9, 42, 51
10, 27604, Note_on_c, 9, 82, 69
10, 27616, Note_off_c, 9, 42, 94
10, 27618, Note_off_c, 9, 82, 90
10, 27648, Note_on_c, 9, 42, 61
10, 27648, Note_on_c, 9, 36, 122
10, 27650, Note_on_c, 9, 57, 68
10, 27650, Note_on_c, 9, 82, 67
10, 27664, Note_off_c, 9, 82, 96
10, 27665, Note_off_c, 9, 36, 96
10, 27667, Note_off_c, 9, 42, 94
10, 27696, Note_on_c, 9, 42, 60
10, 27696, Note_on_c, 9, 36, 113
10, 27700, Note_on_c, 9, 82, 61
10, 27711, Note_off_c, 9, 82, 103
10, 27713, Note_off_c, 9, 36, 111
10, 27714, Note_off_c, 9, 42, 90
10, 27744, Note_on_c, 9, 42, 63
10, 27744, Note_on_c, 9, 36, 118
10, 27744, Note_on_c, 9, 38, 100
10, 27747, Note_on_c, 9, 82, 67
10, 27759, Note_off_c, 9, 82, 92
10, 27764, Note_off_c, 9, 42, 96
10, 27767, Note_off_c, 9, 36, 77
10, 27771, Note_off_c, 9, 38, 70
10, 27792, Note_on_c, 9, 82, 74
10, 27792, Note_on_c, 9, 42, 63
10, 27806, Note_off_c, 9, 82, 94
10, 27809, Note_off_c, 9, 42, 101
10, 27816, Note_on_c, 9, 38, 70
10, 27837, Note_off_c, 9, 38, 82
10, 27840, Note_on_c, 9, 82, 67
10, 27840, Note_on_c, 9, 42, 66
10, 27840, Note_on_c, 9, 36, 122
10, 27852, Note_off_c, 9, 82, 88
10, 27856, Note_off_c, 9, 42, 94
10, 27866, Note_off_c, 9, 36, 62
10, 27888, Note_on_c, 9, 42, 60
10, 27890, Note_on_c, 9, 82, 66
10, 27902, Note_off_c, 9, 82, 63
10, 27905, Note_off_c, 9, 42, 92
10, 27936, Note_on_c, 9, 42, 64
10, 27936, Note_on_c, 9, 38, 105
10, 27939, Note_off_c, 9, 47, 111
10, 27939, Note_on_c, 9, 82, 64
10, 27951, Note_off_c, 9, 82, 92
10, 27952, Note_off_c, 9, 42, 88
10, 27960, Note_off_c, 9, 38, 62
10, 27984, Note_on_c, 9, 47, 124
10, 27984, Note_on_c, 9, 42, 61
10, 27988, Note_on_c, 9, 82, 66
10, 27999, Note_off_c, 9, 82, 84
10, 27999, Note_off_c, 9, 42, 99
10, 28032, Note_on_c, 9, 36, 122
10, 28032, Note_on_c, 9, 42, 67
10, 28035, Note_on_c, 9, 82, 71
10, 28047, Note_off_c, 9, 82, 90
10, 28047, Note_off_c, 9, 42, 86
10, 28050, Note_off_c, 9, 36, 99
10, 28080, Note_on_c, 9, 82, 69
10, 28080, Note_on_c, 9, 36, 115
10, 28080, Note_on_c, 9, 42, 61
10, 28093, Note_off_c, 9, 82, 82
10, 28095, Note_off_c, 9, 42, 96
10, 28097, Note_off_c, 9, 36, 106
10, 28128, Note_on_c, 9, 36, 122
10, 28128, Note_on_c, 9, 42, 67
10, 28128, Note_on_c, 9, 38, 100
10, 28131, Note_on_c, 9, 82, 67
10, 28142, Note_off_c, 9, 82, 79
10, 28145, Note_off_c, 9, 42, 84
10, 28153, Note_off_c, 9, 38, 57
10, 28157, Note_off_c, 9, 36, 46
10, 28167, Note_off_c, 9, 57, 32
10, 28176, Note_on_c, 9, 42, 56
10, 28180, Note_on_c, 9, 82, 71
10, 28190, Note_off_c, 9, 42, 92
10, 28191, Note_off_c, 9, 82, 88
10, 28200, Note_on_c, 9, 38, 70
10, 28220, Note_off_c, 9, 38, 75
10, 28224, Note_on_c, 9, 36, 122
10, 28224, Note_on_c, 9, 42, 64
10, 28226, Note_on_c, 9, 82, 66
10, 28239, Note_off_c, 9, 82, 82
10, 28241, Note_off_c, 9, 42, 90
10, 28249, Note_off_c, 9, 36, 63
10, 28272, Note_on_c, 9, 42, 58
10, 28275, Note_on_c, 9, 82, 69
10, 28288, Note_off_c, 9, 82, 86
10, 28289, Note_off_c, 9, 42, 94
10, 28320, Note_off_c, 9, 47, 118
10, 28320, Note_on_c, 9, 42, 64
10, 28320, Note_on_c, 9, 38, 100
10, 28324, Note_on_c, 9, 82, 69
10, 28334, Note_off_c, 9, 82, 94
10, 28339, Note_off_c, 9, 42, 96
10, 28345, Note_off_c, 9, 38, 57
10, 28368, Note_on_c, 9, 42, 58
10, 28368, Note_on_c, 9, 47, 127
10, 28371, Note_on_c, 9, 82, 69
10, 28383, Note_off_c, 9, 82, 79
10, 28384, Note_off_c, 9, 42, 103
10, 28415, Note_on_c, 9, 57, 68
10, 28416, Note_on_c, 9, 36, 122
10, 28416, Note_on_c, 9, 42, 67
10, 28421, Note_on_c, 9, 82, 67
10, 28433, Note_off_c, 9, 82, 80
10, 28433, Note_off_c, 9, 42, 88
10, 28436, Note_off_c, 9, 36, 90
10, 28464, Note_on_c, 9, 36, 118
10, 28464, Note_on_c, 9, 42, 58
10, 28467, Note_on_c, 9, 82, 69
10, 28480, Note_off_c, 9, 36, 92
10, 28481, Note_off_c, 9, 82, 101
10, 28481, Note_off_c, 9, 42, 99
10, 28512, Note_on_c, 9, 36, 121
10, 28512, Note_on_c, 9, 42, 61
10, 28512, Note_on_c, 9, 38, 100
10, 28517, Note_on_c, 9, 82, 69
10, 28530, Note_off_c, 9, 82, 88
10, 28530, Note_off_c, 9, 42, 84
10, 28538, Note_off_c, 9, 38, 62
10, 28545, Note_off_c, 9, 36, 46
10, 28560, Note_on_c, 9, 42, 63
10, 28564, Note_on_c, 9, 82, 67
10, 28577, Note_off_c, 9, 82, 90
10, 28579, Note_off_c, 9, 42, 96
10, 28584, Note_on_c, 9, 38, 70
10, 28603, Note_off_c, 9, 38, 73
10, 28608, Note_on_c, 9, 42, 52
10, 28608, Note_on_c, 9, 36, 121
10, 28610, Note_on_c, 9, 82, 63
10, 28623, Note_off_c, 9, 82, 88
10, 28627, Note_off_c, 9, 42, 94
10, 28633, Note_off_c, 9, 36, 70
10, 28656, Note_on_c, 9, 82, 64
10, 28656, Note_on_c, 9, 42, 58
10, 28670, Note_off_c, 9, 82, 94
10, 28673, Note_off_c, 9, 42, 84
10, 28698, Note_off_c, 9, 47, 115
10, 28704, Note_on_c, 9, 42, 63
10, 28704, Note_on_c, 9, 38, 105
10, 28706, Note_on_c, 9, 82, 71
10, 28718, Note_off_c, 9, 82, 92
10, 28720, Note_off_c, 9, 42, 92
10, 28730, Note_off_c, 9, 38, 54
10, 28752, Note_on_c, 9, 82, 64
10, 28752, Note_on_c, 9, 42, 58
10, 28752, Note_on_c, 9, 47, 127
10, 28763, Note_off_c, 9, 57, 69
10, 28765, Note_off_c, 9, 82, 88
10, 28769, Note_off_c, 9, 42, 96
10, 28800, Note_on_c, 9, 36, 122
10, 28800, Note_on_c, 9, 42, 71
10, 28802, Note_on_c, 9, 82, 69
10, 28814, Note_off_c, 9, 82, 92
10, 28817, Note_off_c, 9, 42, 90
10, 28819, Note_off_c, 9, 36, 86
10, 28848, Note_on_c, 9, 36, 118
10, 28848, Note_on_c, 9, 42, 60
10, 28851, Note_on_c, 9, 82, 69
10, 28862, Note_off_c, 9, 82, 94
10, 28864, Note_off_c, 9, 42, 90
10, 28864, Note_off_c, 9, 36, 106
10, 28896, Note_on_c, 9, 42, 67
10, 28896, Note_on_c, 9, 36, 111
10, 28896, Note_on_c, 9, 38, 96
10, 28900, Note_on_c, 9, 82, 71
10, 28912, Note_off_c, 9, 82, 86
10, 28915, Note_off_c, 9, 42, 88
10, 28917, Note_off_c, 9, 38, 55
10, 28935, Note_off_c, 9, 36, 66
10, 28944, Note_on_c, 9, 42, 58
10, 28947, Note_on_c, 9, 82, 67
10, 28959, Note_off_c, 9, 42, 94
10, 28962, Note_off_c, 9, 82, 94
10, 28968, Note_on_c, 9, 38, 70
10, 28985, Note_off_c, 9, 38, 88
10, 28992, Note_on_c, 9, 42, 57
10, 28992, Note_on_c, 9, 36, 113
10, 28996, Note_on_c, 9, 82, 67
10, 29009, Note_off_c, 9, 82, 92
10, 29009, Note_off_c, 9, 42, 88
10, 29021, Note_off_c, 9, 36, 69
10, 29040, Note_on_c, 9, 42, 63
10, 29042, Note_on_c, 9, 82, 66
10, 29053, Note_off_c, 9, 42, 92
10, 29055, Note_off_c, 9, 82, 90
10, 29077, Note_off_c, 9, 47, 106
10, 29088, Note_on_c, 9, 42, 63
10, 29088, Note_on_c, 9, 38, 100
10, 29090, Note_on_c, 9, 82, 66
10, 29103, Note_off_c, 9, 82, 82
10, 29104, Note_off_c, 9, 42, 88
10, 29109, Note_off_c, 9, 38, 70
10, 29136, Note_on_c, 9, 47, 127
10, 29136, Note_on_c, 9, 42, 58
10, 29138, Note_on_c, 9, 82, 64
10, 29152, Note_off_c, 9, 42, 92
10, 29153, Note_off_c, 9, 82, 90
10, 29184, Note_on_c, 9, 82, 67
10, 29184, Note_on_c, 9, 42, 61
10, 29184, Note_on_c, 9, 36, 118
10, 29197, Note_off_c, 9, 82, 96
10, 29200, Note_off_c, 9, 42, 94
10, 29201, Note_off_c, 9, 36, 84
10, 29231, Note_on_c, 9, 82, 64
10, 29232, Note_on_c, 9, 42, 61
10, 29232, Note_on_c, 9, 36, 109
10, 29242, Note_off_c, 9, 82, 86
10, 29246, Note_off_c, 9, 36, 101
10, 29250, Note_off_c, 9, 42, 94
10, 29278, Note_on_c, 9, 82, 69
10, 29280, Note_on_c, 9, 42, 64
10, 29280, Note_on_c, 9, 36, 115
10, 29280, Note_on_c, 9, 38, 100
10, 29291, Note_off_c, 9, 82, 96
10, 29299, Note_off_c, 9, 42, 92
10, 29304, Note_off_c, 9, 38, 63
10, 29308, Note_off_c, 9, 36, 47
10, 29328, Note_on_c, 9, 42, 55
10, 29330, Note_on_c, 9, 82, 71
10, 29344, Note_off_c, 9, 82, 92
10, 29345, Note_off_c, 9, 42, 86
10, 29352, Note_on_c, 9, 38, 70
10, 29369, Note_off_c, 9, 38, 88
10, 29376, Note_on_c, 9, 42, 61
10, 29376, Note_on_c, 9, 36, 122
10, 29378, Note_on_c, 9, 82, 69
10, 29392, Note_off_c, 9, 82, 96
10, 29393, Note_off_c, 9, 42, 99
10, 29395, Note_off_c, 9, 36, 67
10, 29424, Note_on_c, 9, 42, 58
10, 29429, Note_on_c, 9, 82, 69
10, 29441, Note_off_c, 9, 82, 88
10, 29442, Note_off_c, 9, 42, 92
10, 29472, Note_off_c, 9, 47, 118
10, 29472, Note_on_c, 9, 42, 60
10, 29472, Note_on_c, 9, 38, 100
10, 29474, Note_on_c, 9, 82, 71
10, 29487, Note_off_c, 9, 82, 84
10, 29489, Note_off_c, 9, 42, 92
10, 29494, Note_off_c, 9, 38, 62
10, 29520, Note_on_c, 9, 42, 58
10, 29520, Note_on_c, 9, 47, 127
10, 29524, Note_on_c, 9, 82, 69
10, 29537, Note_off_c, 9, 42, 92
10, 29539, Note_off_c, 9, 82, 88
10, 29568, Note_on_c, 9, 42, 63
10, 29568, Note_on_c, 9, 36, 122
10, 29571, Note_on_c, 9, 82, 69
10, 29584, Note_off_c, 9, 42, 96
10, 29585, Note_off_c, 9, 82, 92
10, 29587, Note_off_c, 9, 36, 92
10, 29616, Note_on_c, 9, 36, 109
10, 29616, Note_on_c, 9, 42, 55
10, 29619, Note_on_c, 9, 82, 69
10, 29630, Note_off_c, 9, 42, 94
10, 29631, Note_off_c, 9, 36, 80
10, 29633, Note_off_c, 9, 82, 92
10, 29664, Note_on_c, 9, 42, 66
10, 29664, Note_on_c, 9, 36, 122
10, 29664, Note_on_c, 9, 38, 100
10, 29667, Note_on_c, 9, 82, 66
10, 29679, Note_off_c, 9, 42, 96
10, 29680, Note_off_c, 9, 82, 90
10, 29686, Note_off_c, 9, 36, 62
10, 29688, Note_off_c, 9, 38, 58
10, 29712, Note_on_c, 9, 42, 58
10, 29716, Note_on_c, 9, 82, 69
10, 29725, Note_off_c, 9, 42, 96
10, 29729, Note_off_c, 9, 82, 82
10, 29736, Note_on_c, 9, 38, 70
10, 29757, Note_off_c, 9, 38, 53
10, 29760, Note_on_c, 9, 82, 74
10, 29760, Note_on_c, 9, 42, 63
10, 29760, Note_on_c, 9, 36, 122
10, 29774, Note_off_c, 9, 82, 92
10, 29776, Note_off_c, 9, 42, 90
10, 29783, Note_off_c, 9, 36, 61
10, 29808, Note_on_c, 9, 82, 69
10, 29808, Note_on_c, 9, 46, 90
10, 29820, Note_off_c, 9, 46, 92
10, 29823, Note_off_c, 9, 82, 82
10, 29827, Note_off_c, 9, 47, 94
10, 29855, Note_on_c, 9, 57, 74
10, 29856, Note_on_c, 9, 38, 100
10, 29856, Note_on_c, 9, 42, 66
10, 29858, Note_on_c, 9, 82, 71
10, 29870, Note_off_c, 9, 82, 86
10, 29872, Note_off_c, 9, 42, 96
10, 29882, Note_off_c, 9, 38, 57
10, 29902, Note_on_c, 9, 52, 50
10, 29904, Note_on_c, 9, 47, 127
10, 29904, Note_on_c, 9, 42, 66
10, 29908, Note_on_c, 9, 82, 71
10, 29919, Note_off_c, 9, 82, 84
10, 29922, Note_off_c, 9, 42, 103
10, 29952, Note_on_c, 9, 36, 122
10, 29952, Note_on_c, 9, 42, 69
10, 29953, Note_off_c, 9, 47, 108
10, 29955, Note_on_c, 9, 82, 64
10, 29962, Note_off_c, 9, 57, 79
10, 29968, Note_off_c, 9, 82, 80
10, 29969, Note_off_c, 9, 36, 88
10, 29970, Note_off_c, 9, 42, 99
10, 29995, Note_off_c, 9, 52, 99
10, 30000, Note_on_c, 9, 36, 118
10, 30000, Note_on_c, 9, 42, 64
10, 30003, Note_on_c, 9, 82, 64
10, 30017, Note_off_c, 9, 36, 99
10, 30018, Note_off_c, 9, 82, 77
10, 30018, Note_off_c, 9, 42, 99
10, 30048, Note_on_c, 9, 36, 122
10, 30048, Note_on_c, 9, 42, 69
10, 30048, Note_on_c, 9, 38, 92
10, 30051, Note_on_c, 9, 82, 61
10, 30066, Note_off_c, 9, 82, 80
10, 30067, Note_off_c, 9, 42, 101
10, 30071, Note_off_c, 9, 38, 84
10, 30075, Note_off_c, 9, 36, 53
10, 30096, Note_on_c, 9, 42, 64
10, 30101, Note_on_c, 9, 82, 61
10, 30113, Note_off_c, 9, 42, 99
10, 30116, Note_off_c, 9, 82, 84
10, 30120, Note_on_c, 9, 38, 70
10, 30136, Note_off_c, 9, 38, 99
10, 30144, Note_on_c, 9, 36, 122
10, 30144, Note_on_c, 9, 42, 56
10, 30147, Note_on_c, 9, 82, 64
10, 30160, Note_off_c, 9, 42, 96
10, 30161, Note_off_c, 9, 82, 80
10, 30170, Note_off_c, 9, 36, 35
10, 30192, Note_on_c, 9, 42, 60
10, 30194, Note_on_c, 9, 82, 69
10, 30208, Note_off_c, 9, 82, 90
10, 30211, Note_off_c, 9, 42, 96
10, 30240, Note_on_c, 9, 42, 63
10, 30240, Note_on_c, 9, 38, 105
10, 30244, Note_on_c, 9, 82, 66
10, 30257, Note_off_c, 9, 82, 90
10, 30259, Note_off_c, 9, 42, 90
10, 30261, Note_off_c, 9, 38, 67
10, 30288, Note_on_c, 9, 47, 124
10, 30288, Note_on_c, 9, 42, 52
10, 30294, Note_on_c, 9, 82, 66
10, 30306, Note_off_c, 9, 82, 92
10, 30306, Note_off_c, 9, 42, 101
10, 30336, Note_on_c, 9, 42, 61
10, 30336, Note_on_c, 9, 36, 122
10, 30339, Note_on_c, 9, 82, 64
10, 30352, Note_off_c, 9, 82, 90
10, 30353, Note_off_c, 9, 36, 106
10, 30356, Note_off_c, 9, 42, 94
10, 30384, Note_on_c, 9, 42, 63
10, 30384, Note_on_c, 9, 36, 115
10, 30387, Note_on_c, 9, 82, 66
10, 30399, Note_off_c, 9, 82, 90
10, 30399, Note_off_c, 9, 36, 101
10, 30402, Note_off_c, 9, 42, 94
10, 30432, Note_on_c, 9, 42, 63
10, 30432, Note_on_c, 9, 36, 122
10, 30432, Note_on_c, 9, 38, 96
10, 30435, Note_on_c, 9, 82, 66
10, 30448, Note_off_c, 9, 82, 92
10, 30449, Note_off_c, 9, 42, 94
10, 30454, Note_off_c, 9, 36, 66
10, 30457, Note_off_c, 9, 38, 67
10, 30480, Note_on_c, 9, 42, 63
10, 30483, Note_on_c, 9, 82, 66
10, 30495, Note_off_c, 9, 42, 92
10, 30496, Note_off_c, 9, 82, 88
10, 30504, Note_on_c, 9, 38, 70
10, 30524, Note_off_c, 9, 38, 77
10, 30528, Note_on_c, 9, 42, 64
10, 30528, Note_on_c, 9, 36, 122
10, 30530, Note_on_c, 9, 82, 64
10, 30543, Note_off_c, 9, 82, 90
10, 30546, Note_off_c, 9, 42, 88
10, 30550, Note_off_c, 9, 36, 52
10, 30576, Note_on_c, 9, 42, 63
10, 30578, Note_on_c, 9, 82, 67
10, 30591, Note_off_c, 9, 82, 90
10, 30594, Note_off_c, 9, 42, 90
10, 30624, Note_on_c, 9, 38, 105
10, 30624, Note_on_c, 9, 42, 64
10, 30625, Note_off_c, 9, 47, 99
10, 30627, Note_on_c, 9, 82, 66
10, 30641, Note_off_c, 9, 82, 86
10, 30643, Note_off_c, 9, 42, 92
10, 30649, Note_off_c, 9, 38, 69
10, 30672, Note_on_c, 9, 47, 124
10, 30672, Note_on_c, 9, 42, 51
10, 30676, Note_on_c, 9, 82, 69
10, 30688, Note_off_c, 9, 42, 94
10, 30690, Note_off_c, 9, 82, 90
10, 30720, Note_on_c, 9, 42, 61
10, 30720, Note_on_c, 9, 36, 122
10, 30722, Note_on_c, 9, 82, 67
10, 30736, Note_off_c, 9, 82, 96
10, 30737, Note_off_c, 9, 36, 96
10, 30739, Note_off_c, 9, 42, 94
10, 30768, Note_on_c, 9, 42, 60
10, 30768, Note_on_c, 9, 36, 113
10, 30772, Note_on_c, 9, 82, 61
10, 30783, Note_off_c, 9, 82, 103
10, 30785, Note_off_c, 9, 36, 111
10, 30786, Note_off_c, 9, 42, 90
10, 30816, Note_on_c, 9, 42, 63
10, 30816, Note_on_c, 9, 36, 118
10, 30816, Note_on_c, 9, 38, 100
10, 30819, Note_on_c, 9, 82, 67
10, 30831, Note_off_c, 9, 82, 92
10, 30836, Note_off_c, 9, 42, 96
10, 30839, Note_off_c, 9, 36, 77
10, 30843, Note_off_c, 9, 38, 70
10, 30864, Note_on_c, 9, 82, 74
10, 30864, Note_on_c, 9, 42, 63
10, 30878, Note_off_c, 9, 82, 94
10, 30881, Note_off_c, 9, 42, 101
10, 30888, Note_on_c, 9, 38, 70
10, 30909, Note_off_c, 9, 38, 82
10, 30912, Note_on_c, 9, 82, 67
10, 30912, Note_on_c, 9, 42, 66
10, 30912, Note_on_c, 9, 36, 122
10, 30924, Note_off_c, 9, 82, 88
10, 30928, Note_off_c, 9, 42, 94
10, 30938, Note_off_c, 9, 36, 62
10, 30960, Note_on_c, 9, 42, 60
10, 30962, Note_on_c, 9, 82, 66
10, 30974, Note_off_c, 9, 82, 63
10, 30977, Note_off_c, 9, 42, 92
10, 31008, Note_on_c, 9, 42, 64
10, 31008, Note_on_c, 9, 38, 105
10, 31011, Note_off_c, 9, 47, 111
10, 31011, Note_on_c, 9, 82, 64
10, 31023, Note_off_c, 9, 82, 92
10, 31024, Note_off_c, 9, 42, 88
10, 31032, Note_off_c, 9, 38, 62
10, 31056, Note_on_c, 9, 47, 124
10, 31056, Note_on_c, 9, 42, 61
10, 31060, Note_on_c, 9, 82, 66
10, 31071, Note_off_c, 9, 82, 84
10, 31071, Note_off_c, 9, 42, 99
10, 31104, Note_on_c, 9, 36, 122
10, 31104, Note_on_c, 9, 42, 67
10, 31107, Note_on_c, 9, 82, 71
10, 31119, Note_off_c, 9, 82, 90
10, 31119, Note_off_c, 9, 42, 86
10, 31122, Note_off_c, 9, 36, 99
10, 31152, Note_on_c, 9, 82, 69
10, 31152, Note_on_c, 9, 36, 115
10, 31152, Note_on_c, 9, 42, 61
10, 31165, Note_off_c, 9, 82, 82
10, 31167, Note_off_c, 9, 42, 96
10, 31169, Note_off_c, 9, 36, 106
10, 31200, Note_on_c, 9, 36, 122
10, 31200, Note_on_c, 9, 42, 67
10, 31200, Note_on_c, 9, 38, 100
10, 31203, Note_on_c, 9, 82, 67
10, 31214, Note_off_c, 9, 82, 79
10, 31217, Note_off_c, 9, 42, 84
10, 31225, Note_off_c, 9, 38, 57
10, 31229, Note_off_c, 9, 36, 46
10, 31248, Note_on_c, 9, 42, 56
10, 31252, Note_on_c, 9, 82, 71
10, 31262, Note_off_c, 9, 42, 92
10, 31263, Note_off_c, 9, 82, 88
10, 31272, Note_on_c, 9, 38, 70
10, 31292, Note_off_c, 9, 38, 75
10, 31296, Note_on_c, 9, 36, 122
10, 31296, Note_on_c, 9, 42, 64
10, 31298, Note_on_c, 9, 82, 66
10, 31311, Note_off_c, 9, 82, 82
10, 31313, Note_off_c, 9, 42, 90
10, 31321, Note_off_c, 9, 36, 63
10, 31344, Note_on_c, 9, 42, 58
10, 31347, Note_on_c, 9, 82, 69
10, 31360, Note_off_c, 9, 82, 86
10, 31361, Note_off_c, 9, 42, 94
10, 31392, Note_off_c, 9, 47, 118
10, 31392, Note_on_c, 9, 42, 64
10, 31392, Note_on_c, 9, 38, 100
10, 31396, Note_on_c, 9, 82, 69
10, 31406, Note_off_c, 9, 82, 94
10, 31411, Note_off_c, 9, 42, 96
10, 31417, Note_off_c, 9, 38, 57
10, 31440, Note_on_c, 9, 42, 58
10, 31440, Note_on_c, 9, 47, 127
10, 31443, Note_on_c, 9, 82, 69
10, 31455, Note_off_c, 9, 82, 79
10, 31456, Note_off_c, 9, 42, 103
10, 31488, Note_on_c, 9, 36, 122
10, 31488, Note_on_c, 9, 42, 67
10, 31493, Note_on_c, 9, 82, 67
10, 31505, Note_off_c, 9, 82, 80
10, 31505, Note_off_c, 9, 42, 88
10, 31508, Note_off_c, 9, 36, 90
10, 31536, Note_on_c, 9, 36, 118
10, 31536, Note_on_c, 9, 42, 58
10, 31539, Note_on_c, 9, 82, 69
10, 31552, Note_off_c, 9, 36, 92
10, 31553, Note_off_c, 9, 82, 101
10, 31553, Note_off_c, 9, 42, 99
10, 31584, Note_on_c, 9, 36, 121
10, 31584, Note_on_c, 9, 42, 61
10, 31584, Note_on_c, 9, 38, 100
10, 31589, Note_on_c, 9, 82, 69
10, 31602, Note_off_c, 9, 82, 88
10, 31602, Note_off_c, 9, 42, 84
10, 31610, Note_off_c, 9, 38, 62
10, 31617, Note_off_c, 9, 36, 46
10, 31632, Note_on_c, 9, 42, 63
10, 31636, Note_on_c, 9, 82, 67
10, 31649, Note_off_c, 9, 82, 90
10, 31651, Note_off_c, 9, 42, 96
10, 31656, Note_on_c, 9, 38, 70
10, 31675, Note_off_c, 9, 38, 73
10, 31680, Note_on_c, 9, 42, 52
10, 31680, Note_on_c, 9, 36, 121
10, 31682, Note_on_c, 9, 82, 63
10, 31695, Note_off_c, 9, 82, 88
10, 31699, Note_off_c, 9, 42, 94
10, 31705, Note_off_c, 9, 36, 70
10, 31728, Note_on_c, 9, 82, 64
10, 31728, Note_on_c, 9, 42, 58
10, 31742, Note_off_c, 9, 82, 94
10, 31745, Note_off_c, 9, 42, 84
10, 31770, Note_off_c, 9, 47, 115
10, 31776, Note_on_c, 9, 42, 63
10, 31776, Note_on_c, 9, 38, 105
10, 31778, Note_on_c, 9, 82, 71
10, 31790, Note_off_c, 9, 82, 92
10, 31792, Note_off_c, 9, 42, 92
10, 31802, Note_off_c, 9, 38, 54
10, 31824, Note_on_c, 9, 82, 64
10, 31824, Note_on_c, 9, 42, 58
10, 31824, Note_on_c, 9, 47, 127
10, 31837, Note_off_c, 9, 82, 88
10, 31841, Note_off_c, 9, 42, 96
10, 31872, Note_on_c, 9, 36, 122
10, 31872, Note_on_c, 9, 42, 71
10, 31874, Note_on_c, 9, 82, 69
10, 31886, Note_off_c, 9, 82, 92
10, 31889, Note_off_c, 9, 42, 90
10, 31891, Note_off_c, 9, 36, 86
10, 31920, Note_on_c, 9, 36, 118
10, 31920, Note_on_c, 9, 42, 60
10, 31923, Note_on_c, 9, 82, 69
10, 31934, Note_off_c, 9, 82, 94
10, 31936, Note_off_c, 9, 42, 90
10, 31936, Note_off_c, 9, 36, 106
10, 31968, Note_on_c, 9, 42, 67
10, 31968, Note_on_c, 9, 36, 111
10, 31968, Note_on_c, 9, 38, 96
10, 31972, Note_on_c, 9, 82, 71
10, 31984, Note_off_c, 9, 82, 86
10, 31987, Note_off_c, 9, 42, 88
10, 31989, Note_off_c, 9, 38, 55
10, 32007, Note_off_c, 9, 36, 66
10, 32016, Note_on_c, 9, 42, 58
10, 32019, Note_on_c, 9, 82, 67
10, 32031, Note_off_c, 9, 42, 94
10, 32034, Note_off_c, 9, 82, 94
10, 32040, Note_on_c, 9, 38, 70
10, 32057, Note_off_c, 9, 38, 88
10, 32064, Note_on_c, 9, 42, 57
10, 32064, Note_on_c, 9, 36, 113
10, 32068, Note_on_c, 9, 82, 67
10, 32081, Note_off_c, 9, 82, 92
10, 32081, Note_off_c, 9, 42, 88
10, 32093, Note_off_c, 9, 36, 69
10, 32112, Note_on_c, 9, 42, 63
10, 32114, Note_on_c, 9, 82, 66
10, 32125, Note_off_c, 9, 42, 92
10, 32127, Note_off_c, 9, 82, 90
10, 32149, Note_off_c, 9, 47, 106
10, 32160, Note_on_c, 9, 42, 63
10, 32160, Note_on_c, 9, 38, 100
10, 32162, Note_on_c, 9, 82, 66
10, 32175, Note_off_c, 9, 82, 82
10, 32176, Note_off_c, 9, 42, 88
10, 32181, Note_off_c, 9, 38, 70
10, 32208, Note_on_c, 9, 47, 127
10, 32208, Note_on_c, 9, 42, 58
10, 32210, Note_on_c, 9, 82, 64
10, 32224, Note_off_c, 9, 42, 92
10, 32225, Note_off_c, 9, 82, 90
10, 32256, Note_on_c, 9, 82, 67
10, 32256, Note_on_c, 9, 42, 61
10, 32256, Note_on_c, 9, 36, 118
10, 32269, Note_off_c, 9, 82, 96
10, 32272, Note_off_c, 9, 42, 94
10, 32273, Note_off_c, 9, 36, 84
10, 32303, Note_on_c, 9, 82, 64
10, 32304, Note_on_c, 9, 42, 61
10, 32304, Note_on_c, 9, 36, 109
10, 32314, Note_off_c, 9, 82, 86
10, 32318, Note_off_c, 9, 36, 101
10, 32322, Note_off_c, 9, 42, 94
10, 32350, Note_on_c, 9, 82, 69
10, 32352, Note_on_c, 9, 42, 64
10, 32352, Note_on_c, 9, 36, 115
10, 32352, Note_on_c, 9, 38, 100
10, 32363, Note_off_c, 9, 82, 96
10, 32371, Note_off_c, 9, 42, 92
10, 32376, Note_off_c, 9, 38, 63
10, 32380, Note_off_c, 9, 36, 47
10, 32400, Note_on_c, 9, 42, 55
10, 32402, Note_on_c, 9, 82, 71
10, 32416, Note_off_c, 9, 82, 92
10, 32417, Note_off_c, 9, 42, 86
10, 32424, Note_on_c, 9, 38, 70
10, 32441, Note_off_c, 9, 38, 88
10, 32448, Note_on_c, 9, 42, 61
10, 32448, Note_on_c, 9, 36, 122
10, 32450, Note_on_c, 9, 82, 69
10, 32464, Note_off_c, 9, 82, 96
10, 32465, Note_off_c, 9, 42, 99
10, 32467, Note_off_c, 9, 36, 67
10, 32496, Note_on_c, 9, 42, 58
10, 32501, Note_on_c, 9, 82, 69
10, 32513, Note_off_c, 9, 82, 88
10, 32514, Note_off_c, 9, 42, 92
10, 32544, Note_off_c, 9, 47, 118
10, 32544, Note_on_c, 9, 42, 60
10, 32544, Note_on_c, 9, 38, 100
10, 32546, Note_on_c, 9, 82, 71
10, 32559, Note_off_c, 9, 82, 84
10, 32561, Note_off_c, 9, 42, 92
10, 32566, Note_off_c, 9, 38, 62
10, 32592, Note_on_c, 9, 42, 58
10, 32592, Note_on_c, 9, 47, 127
10, 32596, Note_on_c, 9, 82, 69
10, 32609, Note_off_c, 9, 42, 92
10, 32611, Note_off_c, 9, 82, 88
10, 32640, Note_on_c, 9, 42, 63
10, 32640, Note_on_c, 9, 36, 122
10, 32643, Note_on_c, 9, 82, 69
10, 32656, Note_off_c, 9, 42, 96
10, 32657, Note_off_c, 9, 82, 92
10, 32659, Note_off_c, 9, 36, 92
10, 32688, Note_on_c, 9, 36, 109
10, 32688, Note_on_c, 9, 42, 55
10, 32691, Note_on_c, 9, 82, 69
10, 32702, Note_off_c, 9, 42, 94
10, 32703, Note_off_c, 9, 36, 80
10, 32705, Note_off_c, 9, 82, 92
10, 32736, Note_on_c, 9, 42, 66
10, 32736, Note_on_c, 9, 36, 122
10, 32736, Note_on_c, 9, 38, 100
10, 32739, Note_on_c, 9, 82, 66
10, 32751, Note_off_c, 9, 42, 96
10, 32752, Note_off_c, 9, 82, 90
10, 32758, Note_off_c, 9, 36, 62
10, 32760, Note_off_c, 9, 38, 58
10, 32784, Note_on_c, 9, 42, 58
10, 32788, Note_on_c, 9, 82, 69
10, 32797, Note_off_c, 9, 42, 96
10, 32801, Note_off_c, 9, 82, 82
10, 32808, Note_on_c, 9, 38, 70
10, 32829, Note_off_c, 9, 38, 53
10, 32832, Note_on_c, 9, 82, 74
10, 32832, Note_on_c, 9, 42, 63
10, 32832, Note_on_c, 9, 36, 122
10, 32846, Note_off_c, 9, 82, 92
10, 32848, Note_off_c, 9, 42, 90
10, 32855, Note_off_c, 9, 36, 61
10, 32880, Note_on_c, 9, 82, 69
10, 32880, Note_on_c, 9, 46, 90
10, 32892, Note_off_c, 9, 46, 92
10, 32895, Note_off_c, 9, 82, 82
10, 32899, Note_off_c, 9, 47, 94
10, 32927, Note_on_c, 9, 57, 74
10, 32928, Note_on_c, 9, 38, 100
10, 32928, Note_on_c, 9, 42, 66
10, 32930, Note_on_c, 9, 82, 71
10, 32942, Note_off_c, 9, 82, 86
10, 32944, Note_off_c, 9, 42, 96
10, 32954, Note_off_c, 9, 38, 57
10, 32974, Note_on_c, 9, 52, 50
10, 32976, Note_on_c, 9, 47, 127
10, 32976, Note_on_c, 9, 42, 66
10, 32980, Note_on_c, 9, 82, 71
10, 32991, Note_off_c, 9, 82, 84
10, 32994, Note_off_c, 9, 42, 103
10, 33024, Note_on_c, 9, 36, 122
10, 33024, Note_on_c, 9, 42, 69
10, 33025, Note_off_c, 9, 47, 108
10, 33027, Note_on_c, 9, 82, 64
10, 33034, Note_off_c, 9, 57, 79
10, 33040, Note_off_c, 9, 82, 80
10, 33041, Note_off_c, 9, 36, 88
10, 33042, Note_off_c, 9, 42, 99
10, 33067, Note_off_c, 9, 52, 99
10, 33072, Note_on_c, 9, 36, 118
10, 33072, Note_on_c, 9, 42, 64
10, 33075, Note_on_c, 9, 82, 64
10, 33089, Note_off_c, 9, 36, 99
10, 33090, Note_off_c, 9, 82, 77
10, 33090, Note_off_c, 9, 42, 99
10, 33120, Note_on_c, 9, 36, 122
10, 33120, Note_on_c, 9, 42, 69
10, 33120, Note_on_c, 9, 38, 92
10, 33123, Note_on_c, 9, 82, 61
10, 33138, Note_off_c, 9, 82, 80
10, 33139, Note_off_c, 9, 42, 101
10, 33143, Note_off_c, 9, 38, 84
10, 33147, Note_off_c, 9, 36, 53
10, 33168, Note_on_c, 9, 42, 64
10, 33173, Note_on_c, 9, 82, 61
10, 33185, Note_off_c, 9, 42, 99
10, 33188, Note_off_c, 9, 82, 84
10, 33192, Note_on_c, 9, 38, 70
10, 33208, Note_off_c, 9, 38, 99
10, 33216, Note_on_c, 9, 36, 122
10, 33216, Note_on_c, 9, 42, 56
10, 33219, Note_on_c, 9, 82, 64
10, 33232, Note_off_c, 9, 42, 96
10, 33233, Note_off_c, 9, 82, 80
10, 33242, Note_off_c, 9, 36, 35
10, 33264, Note_on_c, 9, 42, 60
10, 33266, Note_on_c, 9, 82, 69
10, 33280, Note_off_c, 9, 82, 90
10, 33283, Note_off_c, 9, 42, 96
10, 33312, Note_on_c, 9, 42, 63
10, 33312, Note_on_c, 9, 38, 105
10, 33316, Note_on_c, 9, 82, 66
10, 33329, Note_off_c, 9, 82, 90
10, 33331, Note_off_c, 9, 42, 90
10, 33333, Note_off_c, 9, 38, 67
10, 33360, Note_on_c, 9, 47, 124
10, 33360, Note_on_c, 9, 42, 52
10, 33366, Note_on_c, 9, 82, 66
10, 33378, Note_off_c, 9, 82, 92
10, 33378, Note_off_c, 9, 42, 101
10, 33408, Note_on_c, 9, 42, 61
10, 33408, Note_on_c, 9, 36, 122
10, 33411, Note_on_c, 9, 82, 64
10, 33424, Note_off_c, 9, 82, 90
10, 33425, Note_off_c, 9, 36, 106
10, 33428, Note_off_c, 9, 42, 94
10, 33456, Note_on_c, 9, 42, 63
10, 33456, Note_on_c, 9, 36, 115
10, 33459, Note_on_c, 9, 82, 66
10, 33471, Note_off_c, 9, 82, 90
10, 33471, Note_off_c, 9, 36, 101
10, 33474, Note_off_c, 9, 42, 94
10, 33504, Note_on_c, 9, 42, 63
10, 33504, Note_on_c, 9, 36, 122
10, 33504, Note_on_c, 9, 38, 96
10, 33507, Note_on_c, 9, 82, 66
10, 33520, Note_off_c, 9, 82, 92
10, 33521, Note_off_c, 9, 42, 94
10, 33526, Note_off_c, 9, 36, 66
10, 33529, Note_off_c, 9, 38, 67
10, 33552, Note_on_c, 9, 42, 63
10, 33555, Note_on_c, 9, 82, 66
10, 33567, Note_off_c, 9, 42, 92
10, 33568, Note_off_c, 9, 82, 88
10, 33576, Note_on_c, 9, 38, 70
10, 33596, Note_off_c, 9, 38, 77
10, 33600, Note_on_c, 9, 42, 64
10, 33600, Note_on_c, 9, 36, 122
10, 33602, Note_on_c, 9, 82, 64
10, 33615, Note_off_c, 9, 82, 90
10, 33618, Note_off_c, 9, 42, 88
10, 33622, Note_off_c, 9, 36, 52
10, 33648, Note_on_c, 9, 42, 63
10, 33650, Note_on_c, 9, 82, 67
10, 33663, Note_off_c, 9, 82, 90
10, 33666, Note_off_c, 9, 42, 90
10, 33696, Note_on_c, 9, 38, 105
10, 33696, Note_on_c, 9, 42, 64
10, 33697, Note_off_c, 9, 47, 99
10, 33699, Note_on_c, 9, 82, 66
10, 33713, Note_off_c, 9, 82, 86
10, 33715, Note_off_c, 9, 42, 92
10, 33721, Note_off_c, 9, 38, 69
10, 33744, Note_on_c, 9, 47, 124
10, 33744, Note_on_c, 9, 42, 51
10, 33748, Note_on_c, 9, 82, 69
10, 33760, Note_off_c, 9, 42, 94
10, 33762, Note_off_c, 9, 82, 90
10, 33792, Note_on_c, 9, 42, 61
10, 33792, Note_on_c, 9, 36, 122
10, 33794, Note_on_c, 9, 57, 68
10, 33794, Note_on_c, 9, 82, 67
10, 33808, Note_off_c, 9, 82, 96
10, 33809, Note_off_c, 9, 36, 96
10, 33811, Note_off_c, 9, 42, 94
10, 33840, Note_on_c, 9, 42, 60
10, 33840, Note_on_c, 9, 36, 113
10, 33844, Note_on_c, 9, 82, 61
10, 33855, Note_off_c, 9, 82, 103
10, 33857, Note_off_c, 9, 36, 111
10, 33858, Note_off_c, 9, 42, 90
10, 33888, Note_on_c, 9, 42, 63
10, 33888, Note_on_c, 9, 36, 118
10, 33888, Note_on_c, 9, 38, 100
10, 33891, Note_on_c, 9, 82, 67
10, 33903, Note_off_c, 9, 82, 92
10, 33908, Note_off_c, 9, 42, 96
10, 33911, Note_off_c, 9, 36, 77
10, 33915, Note_off_c, 9, 38, 70
10, 33936, Note_on_c, 9, 82, 74
10, 33936, Note_on_c, 9, 42, 63
10, 33950, Note_off_c, 9, 82, 94
10, 33953, Note_off_c, 9, 42, 101
10, 33960, Note_on_c, 9, 38, 70
10, 33981, Note_off_c, 9, 38, 82
10, 33984, Note_on_c, 9, 82, 67
10, 33984, Note_on_c, 9, 42, 66
10, 33984, Note_on_c, 9, 36, 122
10, 33996, Note_off_c, 9, 82, 88
10, 34000, Note_off_c, 9, 42, 94
10, 34010, Note_off_c, 9, 36, 62
10, 34032, Note_on_c, 9, 42, 60
10, 34034, Note_on_c, 9, 82, 66
10, 34046, Note_off_c, 9, 82, 63
10, 34049, Note_off_c, 9, 42, 92
10, 34080, Note_on_c, 9, 42, 64
10, 34080, Note_on_c, 9, 38, 105
10, 34083, Note_off_c, 9, 47, 111
10, 34083, Note_on_c, 9, 82, 64
10, 34095, Note_off_c, 9, 82, 92
10, 34096, Note_off_c, 9, 42, 88
10, 34104, Note_off_c, 9, 38, 62
10, 34128, Note_on_c, 9, 47, 124
10, 34128, Note_on_c, 9, 42, 61
10, 34132, Note_on_c, 9, 82, 66
10, 34143, Note_off_c, 9, 82, 84
10, 34143, Note_off_c, 9, 42, 99
10, 34176, Note_on_c, 9, 36, 122
10, 34176, Note_on_c, 9, 42, 67
10, 34179, Note_on_c, 9, 82, 71
10, 34191, Note_off_c, 9, 82, 90
10, 34191, Note_off_c, 9, 42, 86
10, 34194, Note_off_c, 9, 36, 99
10, 34224, Note_on_c, 9, 82, 69
10, 34224, Note_on_c, 9, 36, 115
10, 34224, Note_on_c, 9, 42, 61
10, 34237, Note_off_c, 9, 82, 82
10, 34239, Note_off_c, 9, 42, 96
10, 34241, Note_off_c, 9, 36, 106
10, 34272, Note_on_c, 9, 36, 122
10, 34272, Note_on_c, 9, 42, 67
10, 34272, Note_on_c, 9, 38, 100
10, 34275, Note_on_c, 9, 82, 67
10, 34286, Note_off_c, 9, 82, 79
10, 34289, Note_off_c, 9, 42, 84
10, 34297, Note_off_c, 9, 38, 57
10, 34301, Note_off_c, 9, 36, 46
10, 34311, Note_off_c, 9, 57, 32
10, 34320, Note_on_c, 9, 42, 56
10, 34324, Note_on_c, 9, 82, 71
10, 34334, Note_off_c, 9, 42, 92
10, 34335, Note_off_c, 9, 82, 88
10, 34344, Note_on_c, 9, 38, 70
10, 34364, Note_off_c, 9, 38, 75
10, 34368, Note_on_c, 9, 36, 122
10, 34368, Note_on_c, 9, 42, 64
10, 34370, Note_on_c, 9, 82, 66
10, 34383, Note_off_c, 9, 82, 82
10, 34385, Note_off_c, 9, 42, 90
10, 34393, Note_off_c, 9, 36, 63
10, 34416, Note_on_c, 9, 42, 58
10, 34419, Note_on_c, 9, 82, 69
10, 34432, Note_off_c, 9, 82, 86
10, 34433, Note_off_c, 9, 42, 94
10, 34464, Note_off_c, 9, 47, 118
10, 34464, Note_on_c, 9, 42, 64
10, 34464, Note_on_c, 9, 38, 100
10, 34468, Note_on_c, 9, 82, 69
10, 34478, Note_off_c, 9, 82, 94
10, 34483, Note_off_c, 9, 42, 96
10, 34489, Note_off_c, 9, 38, 57
10, 34512, Note_on_c, 9, 42, 58
10, 34512, Note_on_c, 9, 47, 127
10, 34515, Note_on_c, 9, 82, 69
10, 34527, Note_off_c, 9, 82, 79
10, 34528, Note_off_c, 9, 42, 103
10, 34559, Note_on_c, 9, 57, 68
10, 34560, Note_on_c, 9, 36, 122
10, 34560, Note_on_c, 9, 42, 67
10, 34565, Note_on_c, 9, 82, 67
10, 34577, Note_off_c, 9, 82, 80
10, 34577, Note_off_c, 9, 42, 88
10, 34580, Note_off_c, 9, 36, 90
10, 34608, Note_on_c, 9, 36, 118
10, 34608, Note_on_c, 9, 42, 58
10, 34611, Note_on_c, 9, 82, 69
10, 34624, Note_off_c, 9, 36, 92
10, 34625, Note_off_c, 9, 82, 101
10, 34625, Note_off_c, 9, 42, 99
10, 34656, Note_on_c, 9, 36, 121
10, 34656, Note_on_c, 9, 42, 61
10, 34656, Note_on_c, 9, 38, 100
10, 34661, Note_on_c, 9, 82, 69
10, 34674, Note_off_c, 9, 82, 88
10, 34674, Note_off_c, 9, 42, 84
10, 34682, Note_off_c, 9, 38, 62
10, 34689, Note_off_c, 9, 36, 46
10, 34704, Note_on_c, 9, 42, 63
10, 34708, Note_on_c, 9, 82, 67
10, 34721, Note_off_c, 9, 82, 90
10, 34723, Note_off_c, 9, 42, 96
10, 34728, Note_on_c, 9, 38, 70
10, 34747, Note_off_c, 9, 38, 73
10, 34752, Note_on_c, 9, 42, 52
10, 34752, Note_on_c, 9, 36, 121
10, 34754, Note_on_c, 9, 82, 63
10, 34767, Note_off_c, 9, 82, 88
10, 34771, Note_off_c, 9, 42, 94
10, 34777, Note_off_c, 9, 36, 70
10, 34800, Note_on_c, 9, 82, 64
10, 34800, Note_on_c, 9, 42, 58
10, 34814, Note_off_c, 9, 82, 94
10, 34817, Note_off_c, 9, 42, 84
10, 34842, Note_off_c, 9, 47, 115
10, 34848, Note_on_c, 9, 42, 63
10, 34848, Note_on_c, 9, 38, 105
10, 34850, Note_on_c, 9, 82, 71
10, 34862, Note_off_c, 9, 82, 92
10, 34864, Note_off_c, 9, 42, 92
10, 34874, Note_off_c, 9, 38, 54
10, 34896, Note_on_c, 9, 82, 64
10, 34896, Note_on_c, 9, 42, 58
10, 34896, Note_on_c, 9, 47, 127
10, 34907, Note_off_c, 9, 57, 69
10, 34909, Note_off_c, 9, 82, 88
10, 34913, Note_off_c, 9, 42, 96
10, 34944, Note_on_c, 9, 36, 122
10, 34944, Note_on_c, 9, 42, 71
10, 34946, Note_on_c, 9, 82, 69
10, 34958, Note_off_c, 9, 82, 92
10, 34961, Note_off_c, 9, 42, 90
10, 34963, Note_off_c, 9, 36, 86
10, 34992, Note_on_c, 9, 36, 118
10, 34992, Note_on_c, 9, 42, 60
10, 34995, Note_on_c, 9, 82, 69
10, 35006, Note_off_c, 9, 82, 94
10, 35008, Note_off_c, 9, 42, 90
10, 35008, Note_off_c, 9, 36, 106
10, 35040, Note_on_c, 9, 42, 67
10, 35040, Note_on_c, 9, 36, 111
10, 35040, Note_on_c, 9, 38, 96
10, 35044, Note_on_c, 9, 82, 71
10, 35056, Note_off_c, 9, 82, 86
10, 35059, Note_off_c, 9, 42, 88
10, 35061, Note_off_c, 9, 38, 55
10, 35079, Note_off_c, 9, 36, 66
10, 35088, Note_on_c, 9, 42, 58
10, 35091, Note_on_c, 9, 82, 67
10, 35103, Note_off_c, 9, 42, 94
10, 35106, Note_off_c, 9, 82, 94
10, 35112, Note_on_c, 9, 38, 70
10, 35129, Note_off_c, 9, 38, 88
10, 35136, Note_on_c, 9, 42, 57
10, 35136, Note_on_c, 9, 36, 113
10, 35140, Note_on_c, 9, 82, 67
10, 35153, Note_off_c, 9, 82, 92
10, 35153, Note_off_c, 9, 42, 88
10, 35165, Note_off_c, 9, 36, 69
10, 35184, Note_on_c, 9, 42, 63
10, 35186, Note_on_c, 9, 82, 66
10, 35197, Note_off_c, 9, 42, 92
10, 35199, Note_off_c, 9, 82, 90
10, 35221, Note_off_c, 9, 47, 106
10, 35232, Note_on_c, 9, 42, 63
10, 35232, Note_on_c, 9, 38, 100
10, 35234, Note_on_c, 9, 82, 66
10, 35247, Note_off_c, 9, 82, 82
10, 35248, Note_off_c, 9, 42, 88
10, 35253, Note_off_c, 9, 38, 70
10, 35280, Note_on_c, 9, 47, 127
10, 35280, Note_on_c, 9, 42, 58
10, 35282, Note_on_c, 9, 82, 64
10, 35296, Note_off_c, 9, 42, 92
10, 35297, Note_off_c, 9, 82, 90
10, 35328, Note_on_c, 9, 82, 67
10, 35328, Note_on_c, 9, 42, 61
10, 35328, Note_on_c, 9, 36, 118
10, 35341, Note_off_c, 9, 82, 96
10, 35344, Note_off_c, 9, 42, 94
10, 35345, Note_off_c, 9, 36, 84
10, 35375, Note_on_c, 9, 82, 64
10, 35376, Note_on_c, 9, 42, 61
10, 35376, Note_on_c, 9, 36, 109
10, 35386, Note_off_c, 9, 82, 86
10, 35390, Note_off_c, 9, 36, 101
10, 35394, Note_off_c, 9, 42, 94
10, 35422, Note_on_c, 9, 82, 69
10, 35424, Note_on_c, 9, 42, 64
10, 35424, Note_on_c, 9, 36, 115
10, 35424, Note_on_c, 9, 38, 100
10, 35435, Note_off_c, 9, 82, 96
10, 35443, Note_off_c, 9, 42, 92
10, 35448, Note_off_c, 9, 38, 63
10, 35452, Note_off_c, 9, 36, 47
10, 35472, Note_on_c, 9, 42, 55
10, 35474, Note_on_c, 9, 82, 71
10, 35488, Note_off_c, 9, 82, 92
10, 35489, Note_off_c, 9, 42, 86
10, 35496, Note_on_c, 9, 38, 70
10, 35513, Note_off_c, 9, 38, 88
10, 35520, Note_on_c, 9, 42, 61
10, 35520, Note_on_c, 9, 36, 122
10, 35522, Note_on_c, 9, 82, 69
10, 35536, Note_off_c, 9, 82, 96
10, 35537, Note_off_c, 9, 42, 99
10, 35539, Note_off_c, 9, 36, 67
10, 35568, Note_on_c, 9, 42, 58
10, 35573, Note_on_c, 9, 82, 69
10, 35585, Note_off_c, 9, 82, 88
10, 35586, Note_off_c, 9, 42, 92
10, 35616, Note_off_c, 9, 47, 118
10, 35616, Note_on_c, 9, 42, 60
10, 35616, Note_on_c, 9, 38, 100
10, 35618, Note_on_c, 9, 82, 71
10, 35631, Note_off_c, 9, 82, 84
10, 35633, Note_off_c, 9, 42, 92
10, 35638, Note_off_c, 9, 38, 62
10, 35664, Note_on_c, 9, 42, 58
10, 35664, Note_on_c, 9, 47, 127
10, 35668, Note_on_c, 9, 82, 69
10, 35681, Note_off_c, 9, 42, 92
10, 35683, Note_off_c, 9, 82, 88
10, 35712, Note_on_c, 9, 42, 63
10, 35712, Note_on_c, 9, 36, 122
10, 35715, Note_on_c, 9, 82, 69
10, 35728, Note_off_c, 9, 42, 96
10, 35729, Note_off_c, 9, 82, 92
10, 35731, Note_off_c, 9, 36, 92
10, 35760, Note_on_c, 9, 36, 109
10, 35760, Note_on_c, 9, 42, 55
10, 35763, Note_on_c, 9, 82, 69
10, 35774, Note_off_c, 9, 42, 94
10, 35775, Note_off_c, 9, 36, 80
10, 35777, Note_off_c, 9, 82, 92
10, 35808, Note_on_c, 9, 42, 66
10, 35808, Note_on_c, 9, 36, 122
10, 35808, Note_on_c, 9, 38, 100
10, 35811, Note_on_c, 9, 82, 66
10, 35823, Note_off_c, 9, 42, 96
10, 35824, Note_off_c, 9, 82, 90
10, 35830, Note_off_c, 9, 36, 62
10, 35832, Note_off_c, 9, 38, 58
10, 35856, Note_on_c, 9, 42, 58
10, 35860, Note_on_c, 9, 82, 69
10, 35869, Note_off_c, 9, 42, 96
10, 35873, Note_off_c, 9, 82, 82
10, 35880, Note_on_c, 9, 38, 70
10, 35901, Note_off_c, 9, 38, 53
10, 35904, Note_on_c, 9, 82, 74
10, 35904, Note_on_c, 9, 42, 63
10, 35904, Note_on_c, 9, 36, 122
10, 35918, Note_off_c, 9, 82, 92
10, 35920, Note_off_c, 9, 42, 90
10, 35927, Note_off_c, 9, 36, 61
10, 35952, Note_on_c, 9, 82, 69
10, 35952, Note_on_c, 9, 46, 90
10, 35964, Note_off_c, 9, 46, 92
10, 35967, Note_off_c, 9, 82, 82
10, 35971, Note_off_c, 9, 47, 94
10, 35999, Note_on_c, 9, 57, 74
10, 36000, Note_on_c, 9, 38, 100
10, 36000, Note_on_c, 9, 42, 66
10, 36002, Note_on_c, 9, 82, 71
10, 36014, Note_off_c, 9, 82, 86
10, 36016, Note_off_c, 9, 42, 96
10, 36026, Note_off_c, 9, 38, 57
10, 36046, Note_on_c, 9, 52, 50
10, 36048, Note_on_c, 9, 47, 127
10, 36048, Note_on_c, 9, 42, 66
10, 36052, Note_on_c, 9, 82, 71
10, 36063, Note_off_c, 9, 82, 84
10, 36066, Note_off_c, 9, 42, 103
10, 36096, Note_on_c, 9, 36, 122
10, 36096, Note_on_c, 9, 42, 69
10, 36097, Note_off_c, 9, 47, 108
10, 36099, Note_on_c, 9, 82, 64
10, 36106, Note_off_c, 9, 57, 79
10, 36112, Note_off_c, 9, 82, 80
10, 36113, Note_off_c, 9, 36, 88
10, 36114, Note_off_c, 9, 42, 99
10, 36139, Note_off_c, 9, 52, 99
10, 36144, Note_on_c, 9, 36, 118
10, 36144, Note_on_c, 9, 42, 64
10, 36147, Note_on_c, 9, 82, 64
10, 36161, Note_off_c, 9, 36, 99
10, 36162, Note_off_c, 9, 82, 77
10, 36162, Note_off_c, 9, 42, 99
10, 36192, Note_on_c, 9, 36, 122
10, 36192, Note_on_c, 9, 42, 69
10, 36192, Note_on_c, 9, 38, 92
10, 36195, Note_on_c, 9, 82, 61
10, 36210, Note_off_c, 9, 82, 80
10, 36211, Note_off_c, 9, 42, 101
10, 36215, Note_off_c, 9, 38, 84
10, 36219, Note_off_c, 9, 36, 53
10, 36240, Note_on_c, 9, 42, 64
10, 36245, Note_on_c, 9, 82, 61
10, 36257, Note_off_c, 9, 42, 99
10, 36260, Note_off_c, 9, 82, 84
10, 36264, Note_on_c, 9, 38, 70
10, 36280, Note_off_c, 9, 38, 99
10, 36288, Note_on_c, 9, 36, 122
10, 36288, Note_on_c, 9, 42, 56
10, 36291, Note_on_c, 9, 82, 64
10, 36304, Note_off_c, 9, 42, 96
10, 36305, Note_off_c, 9, 82, 80
10, 36314, Note_off_c, 9, 36, 35
10, 36336, Note_on_c, 9, 42, 60
10, 36338, Note_on_c, 9, 82, 69
10, 36352, Note_off_c, 9, 82, 90
10, 36355, Note_off_c, 9, 42, 96
10, 36384, Note_on_c, 9, 42, 63
10, 36384, Note_on_c, 9, 38, 105
10, 36388, Note_on_c, 9, 82, 66
10, 36401, Note_off_c, 9, 82, 90
10, 36403, Note_off_c, 9, 42, 90
10, 36405, Note_off_c, 9, 38, 67
10, 36432, Note_on_c, 9, 47, 124
10, 36432, Note_on_c, 9, 42, 52
10, 36438, Note_on_c, 9, 82, 66
10, 36450, Note_off_c, 9, 82, 92
10, 36450, Note_off_c, 9, 42, 101
10, 36480, Note_on_c, 9, 42, 61
10, 36480, Note_on_c, 9, 36, 122
10, 36483, Note_on_c, 9, 82, 64
10, 36496, Note_off_c, 9, 82, 90
10, 36497, Note_off_c, 9, 36, 106
10, 36500, Note_off_c, 9, 42, 94
10, 36528, Note_on_c, 9, 42, 63
10, 36528, Note_on_c, 9, 36, 115
10, 36531, Note_on_c, 9, 82, 66
10, 36543, Note_off_c, 9, 82, 90
10, 36543, Note_off_c, 9, 36, 101
10, 36546, Note_off_c, 9, 42, 94
10, 36576, Note_on_c, 9, 42, 63
10, 36576, Note_on_c, 9, 36, 122
10, 36576, Note_on_c, 9, 38, 96
10, 36579, Note_on_c, 9, 82, 66
10, 36592, Note_off_c, 9, 82, 92
10, 36593, Note_off_c, 9, 42, 94
10, 36598, Note_off_c, 9, 36, 66
10, 36601, Note_off_c, 9, 38, 67
10, 36624, Note_on_c, 9, 42, 63
10, 36627, Note_on_c, 9, 82, 66
10, 36639, Note_off_c, 9, 42, 92
10, 36640, Note_off_c, 9, 82, 88
10, 36648, Note_on_c, 9, 38, 70
10, 36668, Note_off_c, 9, 38, 77
10, 36672, Note_on_c, 9, 42, 64
10, 36672, Note_on_c, 9, 36, 122
10, 36674, Note_on_c, 9, 82, 64
10, 36687, Note_off_c, 9, 82, 90
10, 36690, Note_off_c, 9, 42, 88
10, 36694, Note_off_c, 9, 36, 52
10, 36720, Note_on_c, 9, 42, 63
10, 36722, Note_on_c, 9, 82, 67
10, 36735, Note_off_c, 9, 82, 90
10, 36738, Note_off_c, 9, 42, 90
10, 36768, Note_on_c, 9, 38, 105
10, 36768, Note_on_c, 9, 42, 64
10, 36769, Note_off_c, 9, 47, 99
10, 36771, Note_on_c, 9, 82, 66
10, 36785, Note_off_c, 9, 82, 86
10, 36787, Note_off_c, 9, 42, 92
10, 36793, Note_off_c, 9, 38, 69
10, 36816, Note_on_c, 9, 47, 124
10, 36816, Note_on_c, 9, 42, 51
10, 36820, Note_on_c, 9, 82, 69
10, 36832, Note_off_c, 9, 42, 94
10, 36834, Note_off_c, 9, 82, 90
10, 36864, Note_on_c, 9, 42, 61
10, 36864, Note_on_c, 9, 36, 122
10, 36866, Note_on_c, 9, 57, 68
10, 36866, Note_on_c, 9, 82, 67
10, 36880, Note_off_c, 9, 82, 96
10, 36881, Note_off_c, 9, 36, 96
10, 36883, Note_off_c, 9, 42, 94
10, 36912, Note_on_c, 9, 42, 60
10, 36912, Note_on_c, 9, 36, 113
10, 36916, Note_on_c, 9, 82, 61
10, 36927, Note_off_c, 9, 82, 103
10, 36929, Note_off_c, 9, 36, 111
10, 36930, Note_off_c, 9, 42, 90
10, 36960, Note_on_c, 9, 42, 63
10, 36960, Note_on_c, 9, 36, 118
10, 36960, Note_on_c, 9, 38, 100
10, 36963, Note_on_c, 9, 82, 67
10, 36975, Note_off_c, 9, 82, 92
10, 36980, Note_off_c, 9, 42, 96
10, 36983, Note_off_c, 9, 36, 77
10, 36987, Note_off_c, 9, 38, 70
10, 37008, Note_on_c, 9, 82, 74
10, 37008, Note_on_c, 9, 42, 63
10, 37022, Note_off_c, 9, 82, 94
10, 37025, Note_off_c, 9, 42, 101
10, 37032, Note_on_c, 9, 38, 70
10, 37053, Note_off_c, 9, 38, 82
10, 37056, Note_on_c, 9, 82, 67
10, 37056, Note_on_c, 9, 42, 66
10, 37056, Note_on_c, 9, 36, 122
10, 37068, Note_off_c, 9, 82, 88
10, 37072, Note_off_c, 9, 42, 94
10, 37082, Note_off_c, 9, 36, 62
10, 37104, Note_on_c, 9, 42, 60
10, 37106, Note_on_c, 9, 82, 66
10, 37118, Note_off_c, 9, 82, 63
10, 37121, Note_off_c, 9, 42, 92
10, 37152, Note_on_c, 9, 42, 64
10, 37152, Note_on_c, 9, 38, 105
10, 37155, Note_off_c, 9, 47, 111
10, 37155, Note_on_c, 9, 82, 64
10, 37167, Note_off_c, 9, 82, 92
10, 37168, Note_off_c, 9, 42, 88
10, 37176, Note_off_c, 9, 38, 62
10, 37200, Note_on_c, 9, 47, 124
10, 37200, Note_on_c, 9, 42, 61
10, 37204, Note_on_c, 9, 82, 66
10, 37215, Note_off_c, 9, 82, 84
10, 37215, Note_off_c, 9, 42, 99
10, 37248, Note_on_c, 9, 36, 122
10, 37248, Note_on_c, 9, 42, 67
10, 37251, Note_on_c, 9, 82, 71
10, 37263, Note_off_c, 9, 82, 90
10, 37263, Note_off_c, 9, 42, 86
10, 37266, Note_off_c, 9, 36, 99
10, 37296, Note_on_c, 9, 82, 69
10, 37296, Note_on_c, 9, 36, 115
10, 37296, Note_on_c, 9, 42, 61
10, 37309, Note_off_c, 9, 82, 82
10, 37311, Note_off_c, 9, 42, 96
10, 37313, Note_off_c, 9, 36, 106
10, 37344, Note_on_c, 9, 36, 122
10, 37344, Note_on_c, 9, 42, 67
10, 37344, Note_on_c, 9, 38, 100
10, 37347, Note_on_c, 9, 82, 67
10, 37358, Note_off_c, 9, 82, 79
10, 37361, Note_off_c, 9, 42, 84
10, 37369, Note_off_c, 9, 38, 57
10, 37373, Note_off_c, 9, 36, 46
10, 37383, Note_off_c, 9, 57, 32
10, 37392, Note_on_c, 9, 42, 56
10, 37396, Note_on_c, 9, 82, 71
10, 37406, Note_off_c, 9, 42, 92
10, 37407, Note_off_c, 9, 82, 88
10, 37416, Note_on_c, 9, 38, 70
10, 37436, Note_off_c, 9, 38, 75
10, 37440, Note_on_c, 9, 36, 122
10, 37440, Note_on_c, 9, 42, 64
10, 37442, Note_on_c, 9, 82, 66
10, 37455, Note_off_c, 9, 82, 82
10, 37457, Note_off_c, 9, 42, 90
10, 37465, Note_off_c, 9, 36, 63
10, 37488, Note_on_c, 9, 42, 58
10, 37491, Note_on_c, 9, 82, 69
10, 37504, Note_off_c, 9, 82, 86
10, 37505, Note_off_c, 9, 42, 94
10, 37536, Note_off_c, 9, 47, 118
10, 37536, Note_on_c, 9, 42, 64
10, 37536, Note_on_c, 9, 38, 100
10, 37540, Note_on_c, 9, 82, 69
10, 37550, Note_off_c, 9, 82, 94
10, 37555, Note_off_c, 9, 42, 96
10, 37561, Note_off_c, 9, 38, 57
10, 37584, Note_on_c, 9, 42, 58
10, 37584, Note_on_c, 9, 47, 127
10, 37587, Note_on_c, 9, 82, 69
10, 37599, Note_off_c, 9, 82, 79
10, 37600, Note_off_c, 9, 42, 103
10, 37631, Note_on_c, 9, 57, 68
10, 37632, Note_on_c, 9, 36, 122
10, 37632, Note_on_c, 9, 42, 67
10, 37637, Note_on_c, 9, 82, 67
10, 37649, Note_off_c, 9, 82, 80
10, 37649, Note_off_c, 9, 42, 88
10, 37652, Note_off_c, 9, 36, 90
10, 37680, Note_on_c, 9, 36, 118
10, 37680, Note_on_c, 9, 42, 58
10, 37683, Note_on_c, 9, 82, 69
10, 37696, Note_off_c, 9, 36, 92
10, 37697, Note_off_c, 9, 82, 101
10, 37697, Note_off_c, 9, 42, 99
10, 37728, Note_on_c, 9, 36, 121
10, 37728, Note_on_c, 9, 42, 61
10, 37728, Note_on_c, 9, 38, 100
10, 37733, Note_on_c, 9, 82, 69
10, 37746, Note_off_c, 9, 82, 88
10, 37746, Note_off_c, 9, 42, 84
10, 37754, Note_off_c, 9, 38, 62
10, 37761, Note_off_c, 9, 36, 46
10, 37776, Note_on_c, 9, 42, 63
10, 37780, Note_on_c, 9, 82, 67
10, 37793, Note_off_c, 9, 82, 90
10, 37795, Note_off_c, 9, 42, 96
10, 37800, Note_on_c, 9, 38, 70
10, 37819, Note_off_c, 9, 38, 73
10, 37824, Note_on_c, 9, 42, 52
10, 37824, Note_on_c, 9, 36, 121
10, 37826, Note_on_c, 9, 82, 63
10, 37839, Note_off_c, 9, 82, 88
10, 37843, Note_off_c, 9, 42, 94
10, 37849, Note_off_c, 9, 36, 70
10, 37872, Note_on_c, 9, 82, 64
10, 37872, Note_on_c, 9, 42, 58
10, 37886, Note_off_c, 9, 82, 94
10, 37889, Note_off_c, 9, 42, 84
10, 37914, Note_off_c, 9, 47, 115
10, 37920, Note_on_c, 9, 42, 63
10, 37920, Note_on_c, 9, 38, 105
10, 37922, Note_on_c, 9, 82, 71
10, 37934, Note_off_c, 9, 82, 92
10, 37936, Note_off_c, 9, 42, 92
10, 37946, Note_off_c, 9, 38, 54
10, 37968, Note_on_c, 9, 82, 64
10, 37968, Note_on_c, 9, 42, 58
10, 37968, Note_on_c, 9, 47, 127
10, 37979, Note_off_c, 9, 57, 69
10, 37981, Note_off_c, 9, 82, 88
10, 37985, Note_off_c, 9, 42, 96
10, 38016, Note_on_c, 9, 36, 122
10, 38016, Note_on_c, 9, 42, 71
10, 38018, Note_on_c, 9, 82, 69
10, 38030, Note_off_c, 9, 82, 92
10, 38033, Note_off_c, 9, 42, 90
10, 38035, Note_off_c, 9, 36, 86
10, 38064, Note_on_c, 9, 36, 118
10, 38064, Note_on_c, 9, 42, 60
10, 38067, Note_on_c, 9, 82, 69
10, 38078, Note_off_c, 9, 82, 94
10, 38080, Note_off_c, 9, 42, 90
10, 38080, Note_off_c, 9, 36, 106
10, 38112, Note_on_c, 9, 42, 67
10, 38112, Note_on_c, 9, 36, 111
10, 38112, Note_on_c, 9, 38, 96
10, 38116, Note_on_c, 9, 82, 71
10, 38128, Note_off_c, 9, 82, 86
10, 38131, Note_off_c, 9, 42, 88
10, 38133, Note_off_c, 9, 38, 55
10, 38151, Note_off_c, 9, 36, 66
10, 38160, Note_on_c, 9, 42, 58
10, 38163, Note_on_c, 9, 82, 67
10, 38175, Note_off_c, 9, 42, 94
10, 38178, Note_off_c, 9, 82, 94
10, 38184, Note_on_c, 9, 38, 70
10, 38201, Note_off_c, 9, 38, 88
10, 38208, Note_on_c, 9, 42, 57
10, 38208, Note_on_c, 9, 36, 113
10, 38212, Note_on_c, 9, 82, 67
10, 38225, Note_off_c, 9, 82, 92
10, 38225, Note_off_c, 9, 42, 88
10, 38237, Note_off_c, 9, 36, 69
10, 38256, Note_on_c, 9, 42, 63
10, 38258, Note_on_c, 9, 82, 66
10, 38269, Note_off_c, 9, 42, 92
10, 38271, Note_off_c, 9, 82, 90
10, 38293, Note_off_c, 9, 47, 106
10, 38304, Note_on_c, 9, 42, 63
10, 38304, Note_on_c, 9, 38, 100
10, 38306, Note_on_c, 9, 82, 66
10, 38319, Note_off_c, 9, 82, 82
10, 38320, Note_off_c, 9, 42, 88
10, 38325, Note_off_c, 9, 38, 70
10, 38352, Note_on_c, 9, 47, 127
10, 38352, Note_on_c, 9, 42, 58
10, 38354, Note_on_c, 9, 82, 64
10, 38368, Note_off_c, 9, 42, 92
10, 38369, Note_off_c, 9, 82, 90
10, 38400, Note_on_c, 9, 82, 67
10, 38400, Note_on_c, 9, 42, 61
10, 38400, Note_on_c, 9, 36, 118
10, 38413, Note_off_c, 9, 82, 96
10, 38416, Note_off_c, 9, 42, 94
10, 38417, Note_off_c, 9, 36, 84
10, 38447, Note_on_c, 9, 82, 64
10, 38448, Note_on_c, 9, 42, 61
10, 38448, Note_on_c, 9, 36, 109
10, 38458, Note_off_c, 9, 82, 86
10, 38462, Note_off_c, 9, 36, 101
10, 38466, Note_off_c, 9, 42, 94
10, 38494, Note_on_c, 9, 82, 69
10, 38496, Note_on_c, 9, 42, 64
10, 38496, Note_on_c, 9, 36, 115
10, 38496, Note_on_c, 9, 38, 100
10, 38507, Note_off_c, 9, 82, 96
10, 38515, Note_off_c, 9, 42, 92
10, 38520, Note_off_c, 9, 38, 63
10, 38524, Note_off_c, 9, 36, 47
10, 38544, Note_on_c, 9, 42, 55
10, 38546, Note_on_c, 9, 82, 71
10, 38560, Note_off_c, 9, 82, 92
10, 38561, Note_off_c, 9, 42, 86
10, 38568, Note_on_c, 9, 38, 70
10, 38585, Note_off_c, 9, 38, 88
10, 38592, Note_on_c, 9, 42, 61
10, 38592, Note_on_c, 9, 36, 122
10, 38594, Note_on_c, 9, 82, 69
10, 38608, Note_off_c, 9, 82, 96
10, 38609, Note_off_c, 9, 42, 99
10, 38611, Note_off_c, 9, 36, 67
10, 38640, Note_on_c, 9, 42, 58
10, 38645, Note_on_c, 9, 82, 69
10, 38657, Note_off_c, 9, 82, 88
10, 38658, Note_off_c, 9, 42, 92
10, 38688, Note_off_c, 9, 47, 118
10, 38688, Note_on_c, 9, 42, 60
10, 38688, Note_on_c, 9, 38, 100
10, 38690, Note_on_c, 9, 82, 71
10, 38703, Note_off_c, 9, 82, 84
10, 38705, Note_off_c, 9, 42, 92
10, 38710, Note_off_c, 9, 38, 62
10, 38736, Note_on_c, 9, 42, 58
10, 38736, Note_on_c, 9, 47, 127
10, 38740, Note_on_c, 9, 82, 69
10, 38753, Note_off_c, 9, 42, 92
10, 38755, Note_off_c, 9, 82, 88
10, 38784, Note_on_c, 9, 42, 63
10, 38784, Note_on_c, 9, 36, 122
10, 38787, Note_on_c, 9, 82, 69
10, 38800, Note_off_c, 9, 42, 96
10, 38801, Note_off_c, 9, 82, 92
10, 38803, Note_off_c, 9, 36, 92
10, 38832, Note_on_c, 9, 36, 109
10, 38832, Note_on_c, 9, 42, 55
10, 38835, Note_on_c, 9, 82, 69
10, 38846, Note_off_c, 9, 42, 94
10, 38847, Note_off_c, 9, 36, 80
10, 38849, Note_off_c, 9, 82, 92
10, 38880, Note_on_c, 9, 42, 66
10, 38880, Note_on_c, 9, 36, 122
10, 38880, Note_on_c, 9, 38, 100
10, 38883, Note_on_c, 9, 82, 66
10, 38895, Note_off_c, 9, 42, 96
10, 38896, Note_off_c, 9, 82, 90
10, 38902, Note_off_c, 9, 36, 62
10, 38904, Note_off_c, 9, 38, 58
10, 38928, Note_on_c, 9, 42, 58
10, 38932, Note_on_c, 9, 82, 69
10, 38941, Note_off_c, 9, 42, 96
10, 38945, Note_off_c, 9, 82, 82
10, 38952, Note_on_c, 9, 38, 70
10, 38973, Note_off_c, 9, 38, 53
10, 38976, Note_on_c, 9, 82, 74
10, 38976, Note_on_c, 9, 42, 63
10, 38976, Note_on_c, 9, 36, 122
10, 38990, Note_off_c, 9, 82, 92
10, 38992, Note_off_c, 9, 42, 90
10, 38999, Note_off_c, 9, 36, 61
10, 39024, Note_on_c, 9, 82, 69
10, 39024, Note_on_c, 9, 46, 90
10, 39036, Note_off_c, 9, 46, 92
10, 39039, Note_off_c, 9, 82, 82
10, 39043, Note_off_c, 9, 47, 94
10, 39071, Note_on_c, 9, 57, 74
10, 39072, Note_on_c, 9, 38, 100
10, 39072, Note_on_c, 9, 42, 66
10, 39074, Note_on_c, 9, 82, 71
10, 39086, Note_off_c, 9, 82, 86
10, 39088, Note_off_c, 9, 42, 96
10, 39098, Note_off_c, 9, 38, 57
10, 39118, Note_on_c, 9, 52, 50
10, 39120, Note_on_c, 9, 47, 127
10, 39120, Note_on_c, 9, 42, 66
10, 39124, Note_on_c, 9, 82, 71
10, 39135, Note_off_c, 9, 82, 84
10, 39138, Note_off_c, 9, 42, 103
10, 39168, Note_on_c, 9, 36, 122
10, 39168, Note_on_c, 9, 42, 69
10, 39169, Note_off_c, 9, 47, 108
10, 39171, Note_on_c, 9, 82, 64
10, 39178, Note_off_c, 9, 57, 79
10, 39184, Note_off_c, 9, 82, 80
10, 39185, Note_off_c, 9, 36, 88
10, 39186, Note_off_c, 9, 42, 99
10, 39211, Note_off_c, 9, 52, 99
10, 39216, Note_on_c, 9, 36, 118
10, 39216, Note_on_c, 9, 42, 64
10, 39219, Note_on_c, 9, 82, 64
10, 39233, Note_off_c, 9, 36, 99
10, 39234, Note_off_c, 9, 82, 77
10, 39234, Note_off_c, 9, 42, 99
10, 39264, Note_on_c, 9, 36, 122
10, 39264, Note_on_c, 9, 42, 69
10, 39264, Note_on_c, 9, 38, 92
10, 39267, Note_on_c, 9, 82, 61
10, 39282, Note_off_c, 9, 82, 80
10, 39283, Note_off_c, 9, 42, 101
10, 39287, Note_off_c, 9, 38, 84
10, 39291, Note_off_c, 9, 36, 53
10, 39312, Note_on_c, 9, 42, 64
10, 39317, Note_on_c, 9, 82, 61
10, 39329, Note_off_c, 9, 42, 99
10, 39332, Note_off_c, 9, 82, 84
10, 39336, Note_on_c, 9, 38, 70
10, 39352, Note_off_c, 9, 38, 99
10, 39360, Note_on_c, 9, 36, 122
10, 39360, Note_on_c, 9, 42, 56
10, 39363, Note_on_c, 9, 82, 64
10, 39376, Note_off_c, 9, 42, 96
10, 39377, Note_off_c, 9, 82, 80
10, 39386, Note_off_c, 9, 36, 35
10, 39408, Note_on_c, 9, 42, 60
10, 39410, Note_on_c, 9, 82, 69
10, 39424, Note_off_c, 9, 82, 90
10, 39427, Note_off_c, 9, 42, 96
10, 39456, Note_on_c, 9, 42, 63
10, 39456, Note_on_c, 9, 38, 105
10, 39460, Note_on_c, 9, 82, 66
10, 39473, Note_off_c, 9, 82, 90
10, 39475, Note_off_c, 9, 42, 90
10, 39477, Note_off_c, 9, 38, 67
10, 39504, Note_on_c, 9, 47, 124
10, 39504, Note_on_c, 9, 42, 52
10, 39510, Note_on_c, 9, 82, 66
10, 39522, Note_off_c, 9, 82, 92
10, 39522, Note_off_c, 9, 42, 101
10, 39552, Note_on_c, 9, 42, 61
10, 39552, Note_on_c, 9, 36, 122
10, 39555, Note_on_c, 9, 82, 64
10, 39568, Note_off_c, 9, 82, 90
10, 39569, Note_off_c, 9, 36, 106
10, 39572, Note_off_c, 9, 42, 94
10, 39600, Note_on_c, 9, 42, 63
10, 39600, Note_on_c, 9, 36, 115
10, 39603, Note_on_c, 9, 82, 66
10, 39615, Note_off_c, 9, 82, 90
10, 39615, Note_off_c, 9, 36, 101
10, 39618, Note_off_c, 9, 42, 94
10, 39648, Note_on_c, 9, 42, 63
10, 39648, Note_on_c, 9, 36, 122
10, 39648, Note_on_c, 9, 38, 96
10, 39651, Note_on_c, 9, 82, 66
10, 39664, Note_off_c, 9, 82, 92
10, 39665, Note_off_c, 9, 42, 94
10, 39670, Note_off_c, 9, 36, 66
10, 39673, Note_off_c, 9, 38, 67
10, 39696, Note_on_c, 9, 42, 63
10, 39699, Note_on_c, 9, 82, 66
10, 39711, Note_off_c, 9, 42, 92
10, 39712, Note_off_c, 9, 82, 88
10, 39720, Note_on_c, 9, 38, 70
10, 39740, Note_off_c, 9, 38, 77
10, 39744, Note_on_c, 9, 42, 64
10, 39744, Note_on_c, 9, 36, 122
10, 39746, Note_on_c, 9, 82, 64
10, 39759, Note_off_c, 9, 82, 90
10, 39762, Note_off_c, 9, 42, 88
10, 39766, Note_off_c, 9, 36, 52
10, 39792, Note_on_c, 9, 42, 63
10, 39794, Note_on_c, 9, 82, 67
10, 39807, Note_off_c, 9, 82, 90
10, 39810, Note_off_c, 9, 42, 90
10, 39840, Note_on_c, 9, 38, 105
10, 39840, Note_on_c, 9, 42, 64
10, 39841, Note_off_c, 9, 47, 99
10, 39843, Note_on_c, 9, 82, 66
10, 39857, Note_off_c, 9, 82, 86
10, 39859, Note_off_c, 9, 42, 92
10, 39865, Note_off_c, 9, 38, 69
10, 39888, Note_on_c, 9, 47, 124
10, 39888, Note_on_c, 9, 42, 51
10, 39892, Note_on_c, 9, 82, 69
10, 39904, Note_off_c, 9, 42, 94
10, 39906, Note_off_c, 9, 82, 90
10, 39936, Note_on_c, 9, 42, 61
10, 39936, Note_on_c, 9, 36, 122
10, 39938, Note_on_c, 9, 82, 67
10, 39952, Note_off_c, 9, 82, 96
10, 39953, Note_off_c, 9, 36, 96
10, 39955, Note_off_c, 9, 42, 94
10, 39984, Note_on_c, 9, 42, 60
10, 39984, Note_on_c, 9, 36, 113
10, 39988, Note_on_c, 9, 82, 61
10, 39999, Note_off_c, 9, 82, 103
10, 40001, Note_off_c, 9, 36, 111
10, 40002, Note_off_c, 9, 42, 90
10, 40032, Note_on_c, 9, 42, 63
10, 40032, Note_on_c, 9, 36, 118
10, 40032, Note_on_c, 9, 38, 100
10, 40035, Note_on_c, 9, 82, 67
10, 40047, Note_off_c, 9, 82, 92
10, 40052, Note_off_c, 9, 42, 96
10, 40055, Note_off_c, 9, 36, 77
10, 40059, Note_off_c, 9, 38, 70
10, 40080, Note_on_c, 9, 82, 74
10, 40080, Note_on_c, 9, 42, 63
10, 40094, Note_off_c, 9, 82, 94
10, 40097, Note_off_c, 9, 42, 101
10, 40104, Note_on_c, 9, 38, 70
10, 40125, Note_off_c, 9, 38, 82
10, 40128, Note_on_c, 9, 82, 67
10, 40128, Note_on_c, 9, 42, 66
10, 40128, Note_on_c, 9, 36, 122
10, 40140, Note_off_c, 9, 82, 88
10, 40144, Note_off_c, 9, 42, 94
10, 40154, Note_off_c, 9, 36, 62
10, 40176, Note_on_c, 9, 42, 60
10, 40178, Note_on_c, 9, 82, 66
10, 40190, Note_off_c, 9, 82, 63
10, 40193, Note_off_c, 9, 42, 92
10, 40224, Note_on_c, 9, 42, 64
10, 40224, Note_on_c, 9, 38, 105
10, 40227, Note_off_c, 9, 47, 111
10, 40227, Note_on_c, 9, 82, 64
10, 40239, Note_off_c, 9, 82, 92
10, 40240, Note_off_c, 9, 42, 88
10, 40248, Note_off_c, 9, 38, 62
10, 40272, Note_on_c, 9, 47, 124
10, 40272, Note_on_c, 9, 42, 61
10, 40276, Note_on_c, 9, 82, 66
10, 40287, Note_off_c, 9, 82, 84
10, 40287, Note_off_c, 9, 42, 99
10, 40320, Note_on_c, 9, 36, 122
10, 40320, Note_on_c, 9, 42, 67
10, 40323, Note_on_c, 9, 82, 71
10, 40335, Note_off_c, 9, 82, 90
10, 40335, Note_off_c, 9, 42, 86
10, 40338, Note_off_c, 9, 36, 99
10, 40368, Note_on_c, 9, 82, 69
10, 40368, Note_on_c, 9, 36, 115
10, 40368, Note_on_c, 9, 42, 61
10, 40381, Note_off_c, 9, 82, 82
10, 40383, Note_off_c, 9, 42, 96
10, 40385, Note_off_c, 9, 36, 106
10, 40416, Note_on_c, 9, 36, 122
10, 40416, Note_on_c, 9, 42, 67
10, 40416, Note_on_c, 9, 38, 100
10, 40419, Note_on_c, 9, 82, 67
10, 40430, Note_off_c, 9, 82, 79
10, 40433, Note_off_c, 9, 42, 84
10, 40441, Note_off_c, 9, 38, 57
10, 40445, Note_off_c, 9, 36, 46
10, 40464, Note_on_c, 9, 42, 56
10, 40468, Note_on_c, 9, 82, 71
10, 40478, Note_off_c, 9, 42, 92
10, 40479, Note_off_c, 9, 82, 88
10, 40488, Note_on_c, 9, 38, 70
10, 40508, Note_off_c, 9, 38, 75
10, 40512, Note_on_c, 9, 36, 122
10, 40512, Note_on_c, 9, 42, 64
10, 40514, Note_on_c, 9, 82, 66
10, 40527, Note_off_c, 9, 82, 82
10, 40529, Note_off_c, 9, 42, 90
10, 40537, Note_off_c, 9, 36, 63
10, 40560, Note_on_c, 9, 42, 58
10, 40563, Note_on_c, 9, 82, 69
10, 40576, Note_off_c, 9, 82, 86
10, 40577, Note_off_c, 9, 42, 94
10, 40608, Note_off_c, 9, 47, 118
10, 40608, Note_on_c, 9, 42, 64
10, 40608, Note_on_c, 9, 38, 100
10, 40612, Note_on_c, 9, 82, 69
10, 40622, Note_off_c, 9, 82, 94
10, 40627, Note_off_c, 9, 42, 96
10, 40633, Note_off_c, 9, 38, 57
10, 40656, Note_on_c, 9, 42, 58
10, 40656, Note_on_c, 9, 47, 127
10, 40659, Note_on_c, 9, 82, 69
10, 40671, Note_off_c, 9, 82, 79
10, 40672, Note_off_c, 9, 42, 103
10, 40704, Note_on_c, 9, 36, 122
10, 40704, Note_on_c, 9, 42, 67
10, 40709, Note_on_c, 9, 82, 67
10, 40721, Note_off_c, 9, 82, 80
10, 40721, Note_off_c, 9, 42, 88
10, 40724, Note_off_c, 9, 36, 90
10, 40752, Note_on_c, 9, 36, 118
10, 40752, Note_on_c, 9, 42, 58
10, 40755, Note_on_c, 9, 82, 69
10, 40768, Note_off_c, 9, 36, 92
10, 40769, Note_off_c, 9, 82, 101
10, 40769, Note_off_c, 9, 42, 99
10, 40800, Note_on_c, 9, 36, 121
10, 40800, Note_on_c, 9, 42, 61
10, 40800, Note_on_c, 9, 38, 100
10, 40805, Note_on_c, 9, 82, 69
10, 40818, Note_off_c, 9, 82, 88
10, 40818, Note_off_c, 9, 42, 84
10, 40826, Note_off_c, 9, 38, 62
10, 40833, Note_off_c, 9, 36, 46
10, 40848, Note_on_c, 9, 42, 63
10, 40852, Note_on_c, 9, 82, 67
10, 40865, Note_off_c, 9, 82, 90
10, 40867, Note_off_c, 9, 42, 96
10, 40872, Note_on_c, 9, 38, 70
10, 40891, Note_off_c, 9, 38, 73
10, 40896, Note_on_c, 9, 42, 52
10, 40896, Note_on_c, 9, 36, 121
10, 40898, Note_on_c, 9, 82, 63
10, 40911, Note_off_c, 9, 82, 88
10, 40915, Note_off_c, 9, 42, 94
10, 40921, Note_off_c, 9, 36, 70
10, 40944, Note_on_c, 9, 82, 64
10, 40944, Note_on_c, 9, 42, 58
10, 40958, Note_off_c, 9, 82, 94
10, 40961, Note_off_c, 9, 42, 84
10, 40986, Note_off_c, 9, 47, 115
10, 40992, Note_on_c, 9, 42, 63
10, 40992, Note_on_c, 9, 38, 105
10, 40994, Note_on_c, 9, 82, 71
10, 41006, Note_off_c, 9, 82, 92
10, 41008, Note_off_c, 9, 42, 92
10, 41018, Note_off_c, 9, 38, 54
10, 41040, Note_on_c, 9, 82, 64
10, 41040, Note_on_c, 9, 42, 58
10, 41040, Note_on_c, 9, 47, 127
10, 41053, Note_off_c, 9, 82, 88
10, 41057, Note_off_c, 9, 42, 96
10, 41088, Note_on_c, 9, 36, 122
10, 41088, Note_on_c, 9, 42, 71
10, 41090, Note_on_c, 9, 82, 69
10, 41102, Note_off_c, 9, 82, 92
10, 41105, Note_off_c, 9, 42, 90
10, 41107, Note_off_c, 9, 36, 86
10, 41136, Note_on_c, 9, 36, 118
10, 41136, Note_on_c, 9, 42, 60
10, 41139, Note_on_c, 9, 82, 69
10, 41150, Note_off_c, 9, 82, 94
10, 41152, Note_off_c, 9, 42, 90
10, 41152, Note_off_c, 9, 36, 106
10, 41184, Note_on_c, 9, 42, 67
10, 41184, Note_on_c, 9, 36, 111
10, 41184, Note_on_c, 9, 38, 96
10, 41188, Note_on_c, 9, 82, 71
10, 41200, Note_off_c, 9, 82, 86
10, 41203, Note_off_c, 9, 42, 88
10, 41205, Note_off_c, 9, 38, 55
10, 41223, Note_off_c, 9, 36, 66
10, 41232, Note_on_c, 9, 42, 58
10, 41235, Note_on_c, 9, 82, 67
10, 41247, Note_off_c, 9, 42, 94
10, 41250, Note_off_c, 9, 82, 94
10, 41256, Note_on_c, 9, 38, 70
10, 41273, Note_off_c, 9, 38, 88
10, 41280, Note_on_c, 9, 42, 57
10, 41280, Note_on_c, 9, 36, 113
10, 41284, Note_on_c, 9, 82, 67
10, 41297, Note_off_c, 9, 82, 92
10, 41297, Note_off_c, 9, 42, 88
10, 41309, Note_off_c, 9, 36, 69
10, 41328, Note_on_c, 9, 42, 63
10, 41330, Note_on_c, 9, 82, 66
10, 41341, Note_off_c, 9, 42, 92
10, 41343, Note_off_c, 9, 82, 90
10, 41365, Note_off_c, 9, 47, 106
10, 41376, Note_on_c, 9, 42, 63
10, 41376, Note_on_c, 9, 38, 100
10, 41378, Note_on_c, 9, 82, 66
10, 41391, Note_off_c, 9, 82, 82
10, 41392, Note_off_c, 9, 42, 88
10, 41397, Note_off_c, 9, 38, 70
10, 41424, Note_on_c, 9, 47, 127
10, 41424, Note_on_c, 9, 42, 58
10, 41426, Note_on_c, 9, 82, 64
10, 41440, Note_off_c, 9, 42, 92
10, 41441, Note_off_c, 9, 82, 90
10, 41472, Note_on_c, 9, 82, 67
10, 41472, Note_on_c, 9, 42, 61
10, 41472, Note_on_c, 9, 36, 118
10, 41485, Note_off_c, 9, 82, 96
10, 41488, Note_off_c, 9, 42, 94
10, 41489, Note_off_c, 9, 36, 84
10, 41519, Note_on_c, 9, 82, 64
10, 41520, Note_on_c, 9, 42, 61
10, 41520, Note_on_c, 9, 36, 109
10, 41530, Note_off_c, 9, 82, 86
10, 41534, Note_off_c, 9, 36, 101
10, 41538, Note_off_c, 9, 42, 94
10, 41566, Note_on_c, 9, 82, 69
10, 41568, Note_on_c, 9, 42, 64
10, 41568, Note_on_c, 9, 36, 115
10, 41568, Note_on_c, 9, 38, 100
10, 41579, Note_off_c, 9, 82, 96
10, 41587, Note_off_c, 9, 42, 92
10, 41592, Note_off_c, 9, 38, 63
10, 41596, Note_off_c, 9, 36, 47
10, 41616, Note_on_c, 9, 42, 55
10, 41618, Note_on_c, 9, 82, 71
10, 41632, Note_off_c, 9, 82, 92
10, 41633, Note_off_c, 9, 42, 86
10, 41640, Note_on_c, 9, 38, 70
10, 41657, Note_off_c, 9, 38, 88
10, 41664, Note_on_c, 9, 42, 61
10, 41664, Note_on_c, 9, 36, 122
10, 41666, Note_on_c, 9, 82, 69
10, 41680, Note_off_c, 9, 82, 96
10, 41681, Note_off_c, 9, 42, 99
10, 41683, Note_off_c, 9, 36, 67
10, 41712, Note_on_c, 9, 42, 58
10, 41717, Note_on_c, 9, 82, 69
10, 41729, Note_off_c, 9, 82, 88
10, 41730, Note_off_c, 9, 42, 92
10, 41760, Note_off_c, 9, 47, 118
10, 41760, Note_on_c, 9, 42, 60
10, 41760, Note_on_c, 9, 38, 100
10, 41762, Note_on_c, 9, 82, 71
10, 41775, Note_off_c, 9, 82, 84
10, 41777, Note_off_c, 9, 42, 92
10, 41782, Note_off_c, 9, 38, 62
10, 41808, Note_on_c, 9, 42, 58
10, 41808, Note_on_c, 9, 47, 127
10, 41812, Note_on_c, 9, 82, 69
10, 41825, Note_off_c, 9, 42, 92
10, 41827, Note_off_c, 9, 82, 88
10, 41856, Note_on_c, 9, 42, 63
10, 41856, Note_on_c, 9, 36, 122
10, 41859, Note_on_c, 9, 82, 69
10, 41872, Note_off_c, 9, 42, 96
10, 41873, Note_off_c, 9, 82, 92
10, 41875, Note_off_c, 9, 36, 92
10, 41904, Note_on_c, 9, 36, 109
10, 41904, Note_on_c, 9, 42, 55
10, 41907, Note_on_c, 9, 82, 69
10, 41918, Note_off_c, 9, 42, 94
10, 41919, Note_off_c, 9, 36, 80
10, 41921, Note_off_c, 9, 82, 92
10, 41952, Note_on_c, 9, 42, 66
10, 41952, Note_on_c, 9, 36, 122
10, 41952, Note_on_c, 9, 38, 100
10, 41955, Note_on_c, 9, 82, 66
10, 41967, Note_off_c, 9, 42, 96
10, 41968, Note_off_c, 9, 82, 90
10, 41974, Note_off_c, 9, 36, 62
10, 41976, Note_off_c, 9, 38, 58
10, 42000, Note_on_c, 9, 42, 58
10, 42004, Note_on_c, 9, 82, 69
10, 42013, Note_off_c, 9, 42, 96
10, 42017, Note_off_c, 9, 82, 82
10, 42024, Note_on_c, 9, 38, 70
10, 42045, Note_off_c, 9, 38, 53
10, 42048, Note_on_c, 9, 82, 74
10, 42048, Note_on_c, 9, 42, 63
10, 42048, Note_on_c, 9, 36, 122
10, 42062, Note_off_c, 9, 82, 92
10, 42064, Note_off_c, 9, 42, 90
10, 42071, Note_off_c, 9, 36, 61
10, 42096, Note_on_c, 9, 82, 69
10, 42096, Note_on_c, 9, 46, 90
10, 42108, Note_off_c, 9, 46, 92
10, 42111, Note_off_c, 9, 82, 82
10, 42115, Note_off_c, 9, 47, 94
10, 42143, Note_on_c, 9, 57, 74
10, 42144, Note_on_c, 9, 38, 100
10, 42144, Note_on_c, 9, 42, 66
10, 42146, Note_on_c, 9, 82, 71
10, 42158, Note_off_c, 9, 82, 86
10, 42160, Note_off_c, 9, 42, 96
10, 42170, Note_off_c, 9, 38, 57
10, 42190, Note_on_c, 9, 52, 50
10, 42192, Note_on_c, 9, 47, 127
10, 42192, Note_on_c, 9, 42, 66
10, 42196, Note_on_c, 9, 82, 71
10, 42207, Note_off_c, 9, 82, 84
10, 42210, Note_off_c, 9, 42, 103
10, 42240, Note_on_c, 9, 36, 122
10, 42240, Note_on_c, 9, 42, 69
10, 42241, Note_off_c, 9, 47, 108
10, 42243, Note_on_c, 9, 82, 64
10, 42250, Note_off_c, 9, 57, 79
10, 42256, Note_off_c, 9, 82, 80
10, 42257, Note_off_c, 9, 36, 88
10, 42258, Note_off_c, 9, 42, 99
10, 42283, Note_off_c, 9, 52, 99
10, 42288, Note_on_c, 9, 36, 118
10, 42288, Note_on_c, 9, 42, 64
10, 42291, Note_on_c, 9, 82, 64
10, 42305, Note_off_c, 9, 36, 99
10, 42306, Note_off_c, 9, 82, 77
10, 42306, Note_off_c, 9, 42, 99
10, 42336, Note_on_c, 9, 36, 122
10, 42336, Note_on_c, 9, 42, 69
10, 42336, Note_on_c, 9, 38, 92
10, 42339, Note_on_c, 9, 82, 61
10, 42354, Note_off_c, 9, 82, 80
10, 42355, Note_off_c, 9, 42, 101
10, 42359, Note_off_c, 9, 38, 84
10, 42363, Note_off_c, 9, 36, 53
10, 42384, Note_on_c, 9, 42, 64
10, 42389, Note_on_c, 9, 82, 61
10, 42401, Note_off_c, 9, 42, 99
10, 42404, Note_off_c, 9, 82, 84
10, 42408, Note_on_c, 9, 38, 70
10, 42424, Note_off_c, 9, 38, 99
10, 42432, Note_on_c, 9, 36, 122
10, 42432, Note_on_c, 9, 42, 56
10, 42435, Note_on_c, 9, 82, 64
10, 42448, Note_off_c, 9, 42, 96
10, 42449, Note_off_c, 9, 82, 80
10, 42458, Note_off_c, 9, 36, 35
10, 42480, Note_on_c, 9, 42, 60
10, 42482, Note_on_c, 9, 82, 69
10, 42496, Note_off_c, 9, 82, 90
10, 42499, Note_off_c, 9, 42, 96
10, 42528, Note_on_c, 9, 42, 63
10, 42528, Note_on_c, 9, 38, 105
10, 42532, Note_on_c, 9, 82, 66
10, 42545, Note_off_c, 9, 82, 90
10, 42547, Note_off_c, 9, 42, 90
10, 42549, Note_off_c, 9, 38, 67
10, 42576, Note_on_c, 9, 47, 124
10, 42576, Note_on_c, 9, 42, 52
10, 42582, Note_on_c, 9, 82, 66
10, 42594, Note_off_c, 9, 82, 92
10, 42594, Note_off_c, 9, 42, 101
10, 42624, Note_on_c, 9, 42, 61
10, 42624, Note_on_c, 9, 36, 122
10, 42627, Note_on_c, 9, 82, 64
10, 42640, Note_off_c, 9, 82, 90
10, 42641, Note_off_c, 9, 36, 106
10, 42644, Note_off_c, 9, 42, 94
10, 42672, Note_on_c, 9, 42, 63
10, 42672, Note_on_c, 9, 36, 115
10, 42675, Note_on_c, 9, 82, 66
10, 42687, Note_off_c, 9, 82, 90
10, 42687, Note_off_c, 9, 36, 101
10, 42690, Note_off_c, 9, 42, 94
10, 42720, Note_on_c, 9, 42, 63
10, 42720, Note_on_c, 9, 36, 122
10, 42720, Note_on_c, 9, 38, 96
10, 42723, Note_on_c, 9, 82, 66
10, 42736, Note_off_c, 9, 82, 92
10, 42737, Note_off_c, 9, 42, 94
10, 42742, Note_off_c, 9, 36, 66
10, 42745, Note_off_c, 9, 38, 67
10, 42768, Note_on_c, 9, 42, 63
10, 42771, Note_on_c, 9, 82, 66
10, 42783, Note_off_c, 9, 42, 92
10, 42784, Note_off_c, 9, 82, 88
10, 42792, Note_on_c, 9, 38, 70
10, 42812, Note_off_c, 9, 38, 77
10, 42816, Note_on_c, 9, 42, 64
10, 42816, Note_on_c, 9, 36, 122
10, 42818, Note_on_c, 9, 82, 64
10, 42831, Note_off_c, 9, 82, 90
10, 42834, Note_off_c, 9, 42, 88
10, 42838, Note_off_c, 9, 36, 52
10, 42864, Note_on_c, 9, 42, 63
10, 42866, Note_on_c, 9, 82, 67
10, 42879, Note_off_c, 9, 82, 90
10, 42882, Note_off_c, 9, 42, 90
10, 42912, Note_on_c, 9, 38, 105
10, 42912, Note_on_c, 9, 42, 64
10, 42913, Note_off_c, 9, 47, 99
10, 42915, Note_on_c, 9, 82, 66
10, 42929, Note_off_c, 9, 82, 86
10, 42931, Note_off_c, 9, 42, 92
10, 42937, Note_off_c, 9, 38, 69
10, 42960, Note_on_c, 9, 47, 124
10, 42960, Note_on_c, 9, 42, 51
10, 42964, Note_on_c, 9, 82, 69
10, 42976, Note_off_c, 9, 42, 94
10, 42978, Note_off_c, 9, 82, 90
10, 43008, Note_on_c, 9, 42, 61
10, 43008, Note_on_c, 9, 36, 122
10, 43010, Note_on_c, 9, 82, 67
10, 43024, Note_off_c, 9, 82, 96
10, 43025, Note_off_c, 9, 36, 96
10, 43027, Note_off_c, 9, 42, 94
10, 43056, Note_on_c, 9, 42, 60
10, 43056, Note_on_c, 9, 36, 113
10, 43060, Note_on_c, 9, 82, 61
10, 43071, Note_off_c, 9, 82, 103
10, 43073, Note_off_c, 9, 36, 111
10, 43074, Note_off_c, 9, 42, 90
10, 43104, Note_on_c, 9, 42, 63
10, 43104, Note_on_c, 9, 36, 118
10, 43104, Note_on_c, 9, 38, 100
10, 43107, Note_on_c, 9, 82, 67
10, 43119, Note_off_c, 9, 82, 92
10, 43124, Note_off_c, 9, 42, 96
10, 43127, Note_off_c, 9, 36, 77
10, 43131, Note_off_c, 9, 38, 70
10, 43152, Note_on_c, 9, 82, 74
10, 43152, Note_on_c, 9, 42, 63
10, 43166, Note_off_c, 9, 82, 94
10, 43169, Note_off_c, 9, 42, 101
10, 43176, Note_on_c, 9, 38, 70
10, 43197, Note_off_c, 9, 38, 82
10, 43200, Note_on_c, 9, 82, 67
10, 43200, Note_on_c, 9, 42, 66
10, 43200, Note_on_c, 9, 36, 122
10, 43212, Note_off_c, 9, 82, 88
10, 43216, Note_off_c, 9, 42, 94
10, 43226, Note_off_c, 9, 36, 62
10, 43248, Note_on_c, 9, 42, 60
10, 43250, Note_on_c, 9, 82, 66
10, 43262, Note_off_c, 9, 82, 63
10, 43265, Note_off_c, 9, 42, 92
10, 43296, Note_on_c, 9, 42, 64
10, 43296, Note_on_c, 9, 38, 105
10, 43299, Note_off_c, 9, 47, 111
10, 43299, Note_on_c, 9, 82, 64
10, 43311, Note_off_c, 9, 82, 92
10, 43312, Note_off_c, 9, 42, 88
10, 43320, Note_off_c, 9, 38, 62
10, 43344, Note_on_c, 9, 47, 124
10, 43344, Note_on_c, 9, 42, 61
10, 43348, Note_on_c, 9, 82, 66
10, 43359, Note_off_c, 9, 82, 84
10, 43359, Note_off_c, 9, 42, 99
10, 43392, Note_on_c, 9, 36, 122
10, 43392, Note_on_c, 9, 42, 67
10, 43395, Note_on_c, 9, 82, 71
10, 43407, Note_off_c, 9, 82, 90
10, 43407, Note_off_c, 9, 42, 86
10, 43410, Note_off_c, 9, 36, 99
10, 43440, Note_on_c, 9, 82, 69
10, 43440, Note_on_c, 9, 36, 115
10, 43440, Note_on_c, 9, 42, 61
10, 43453, Note_off_c, 9, 82, 82
10, 43455, Note_off_c, 9, 42, 96
10, 43457, Note_off_c, 9, 36, 106
10, 43488, Note_on_c, 9, 36, 122
10, 43488, Note_on_c, 9, 42, 67
10, 43488, Note_on_c, 9, 38, 100
10, 43491, Note_on_c, 9, 82, 67
10, 43502, Note_off_c, 9, 82, 79
10, 43505, Note_off_c, 9, 42, 84
10, 43513, Note_off_c, 9, 38, 57
10, 43517, Note_off_c, 9, 36, 46
10, 43536, Note_on_c, 9, 42, 56
10, 43540, Note_on_c, 9, 82, 71
10, 43550, Note_off_c, 9, 42, 92
10, 43551, Note_off_c, 9, 82, 88
10, 43560, Note_on_c, 9, 38, 70
10, 43580, Note_off_c, 9, 38, 75
10, 43584, Note_on_c, 9, 36, 122
10, 43584, Note_on_c, 9, 42, 64
10, 43586, Note_on_c, 9, 82, 66
10, 43599, Note_off_c, 9, 82, 82
10, 43601, Note_off_c, 9, 42, 90
10, 43609, Note_off_c, 9, 36, 63
10, 43632, Note_on_c, 9, 42, 58
10, 43635, Note_on_c, 9, 82, 69
10, 43648, Note_off_c, 9, 82, 86
10, 43649, Note_off_c, 9, 42, 94
10, 43680, Note_off_c, 9, 47, 118
10, 43680, Note_on_c, 9, 42, 64
10, 43680, Note_on_c, 9, 38, 100
10, 43684, Note_on_c, 9, 82, 69
10, 43694, Note_off_c, 9, 82, 94
10, 43699, Note_off_c, 9, 42, 96
10, 43705, Note_off_c, 9, 38, 57
10, 43728, Note_on_c, 9, 42, 58
10, 43728, Note_on_c, 9, 47, 127
10, 43731, Note_on_c, 9, 82, 69
10, 43743, Note_off_c, 9, 82, 79
10, 43744, Note_off_c, 9, 42, 103
10, 43776, Note_on_c, 9, 36, 122
10, 43776, Note_on_c, 9, 42, 67
10, 43781, Note_on_c, 9, 82, 67
10, 43793, Note_off_c, 9, 82, 80
10, 43793, Note_off_c, 9, 42, 88
10, 43796, Note_off_c, 9, 36, 90
10, 43824, Note_on_c, 9, 36, 118
10, 43824, Note_on_c, 9, 42, 58
10, 43827, Note_on_c, 9, 82, 69
10, 43840, Note_off_c, 9, 36, 92
10, 43841, Note_off_c, 9, 82, 101
10, 43841, Note_off_c, 9, 42, 99
10, 43872, Note_on_c, 9, 36, 121
10, 43872, Note_on_c, 9, 42, 61
10, 43872, Note_on_c, 9, 38, 100
10, 43877, Note_on_c, 9, 82, 69
10, 43890, Note_off_c, 9, 82, 88
10, 43890, Note_off_c, 9, 42, 84
10, 43898, Note_off_c, 9, 38, 62
10, 43905, Note_off_c, 9, 36, 46
10, 43920, Note_on_c, 9, 42, 63
10, 43924, Note_on_c, 9, 82, 67
10, 43937, Note_off_c, 9, 82, 90
10, 43939, Note_off_c, 9, 42, 96
10, 43944, Note_on_c, 9, 38, 70
10, 43963, Note_off_c, 9, 38, 73
10, 43968, Note_on_c, 9, 42, 52
10, 43968, Note_on_c, 9, 36, 121
10, 43970, Note_on_c, 9, 82, 63
10, 43983, Note_off_c, 9, 82, 88
10, 43987, Note_off_c, 9, 42, 94
10, 43993, Note_off_c, 9, 36, 70
10, 44016, Note_on_c, 9, 82, 64
10, 44016, Note_on_c, 9, 42, 58
10, 44030, Note_off_c, 9, 82, 94
10, 44033, Note_off_c, 9, 42, 84
10, 44058, Note_off_c, 9, 47, 115
10, 44064, Note_on_c, 9, 42, 63
10, 44064, Note_on_c, 9, 38, 105
10, 44066, Note_on_c, 9, 82, 71
10, 44078, Note_off_c, 9, 82, 92
10, 44080, Note_off_c, 9, 42, 92
10, 44090, Note_off_c, 9, 38, 54
10, 44112, Note_on_c, 9, 82, 64
10, 44112, Note_on_c, 9, 42, 58
10, 44112, Note_on_c, 9, 47, 127
10, 44125, Note_off_c, 9, 82, 88
10, 44129, Note_off_c, 9, 42, 96
10, 44160, Note_on_c, 9, 36, 122
10, 44160, Note_on_c, 9, 42, 71
10, 44162, Note_on_c, 9, 82, 69
10, 44174, Note_off_c, 9, 82, 92
10, 44177, Note_off_c, 9, 42, 90
10, 44179, Note_off_c, 9, 36, 86
10, 44208, Note_on_c, 9, 36, 118
10, 44208, Note_on_c, 9, 42, 60
10, 44211, Note_on_c, 9, 82, 69
10, 44222, Note_off_c, 9, 82, 94
10, 44224, Note_off_c, 9, 42, 90
10, 44224, Note_off_c, 9, 36, 106
10, 44256, Note_on_c, 9, 42, 67
10, 44256, Note_on_c, 9, 36, 111
10, 44256, Note_on_c, 9, 38, 96
10, 44260, Note_on_c, 9, 82, 71
10, 44272, Note_off_c, 9, 82, 86
10, 44275, Note_off_c, 9, 42, 88
10, 44277, Note_off_c, 9, 38, 55
10, 44295, Note_off_c, 9, 36, 66
10, 44304, Note_on_c, 9, 42, 58
10, 44307, Note_on_c, 9, 82, 67
10, 44319, Note_off_c, 9, 42, 94
10, 44322, Note_off_c, 9, 82, 94
10, 44328, Note_on_c, 9, 38, 70
10, 44345, Note_off_c, 9, 38, 88
10, 44352, Note_on_c, 9, 42, 57
10, 44352, Note_on_c, 9, 36, 113
10, 44356, Note_on_c, 9, 82, 67
10, 44369, Note_off_c, 9, 82, 92
10, 44369, Note_off_c, 9, 42, 88
10, 44381, Note_off_c, 9, 36, 69
10, 44400, Note_on_c, 9, 42, 63
10, 44402, Note_on_c, 9, 82, 66
10, 44413, Note_off_c, 9, 42, 92
10, 44415, Note_off_c, 9, 82, 90
10, 44437, Note_off_c, 9, 47, 106
10, 44448, Note_on_c, 9, 42, 63
10, 44448, Note_on_c, 9, 38, 100
10, 44450, Note_on_c, 9, 82, 66
10, 44463, Note_off_c, 9, 82, 82
10, 44464, Note_off_c, 9, 42, 88
10, 44469, Note_off_c, 9, 38, 70
10, 44496, Note_on_c, 9, 47, 127
10, 44496, Note_on_c, 9, 42, 58
10, 44498, Note_on_c, 9, 82, 64
10, 44512, Note_off_c, 9, 42, 92
10, 44513, Note_off_c, 9, 82, 90
10, 44544, Note_on_c, 9, 82, 67
10, 44544, Note_on_c, 9, 42, 61
10, 44544, Note_on_c, 9, 36, 118
10, 44557, Note_off_c, 9, 82, 96
10, 44560, Note_off_c, 9, 42, 94
10, 44561, Note_off_c, 9, 36, 84
10, 44591, Note_on_c, 9, 82, 64
10, 44592, Note_on_c, 9, 42, 61
10, 44592, Note_on_c, 9, 36, 109
10, 44602, Note_off_c, 9, 82, 86
10, 44606, Note_off_c, 9, 36, 101
10, 44610, Note_off_c, 9, 42, 94
10, 44638, Note_on_c, 9, 82, 69
10, 44640, Note_on_c, 9, 42, 64
10, 44640, Note_on_c, 9, 36, 115
10, 44640, Note_on_c, 9, 38, 100
10, 44651, Note_off_c, 9, 82, 96
10, 44659, Note_off_c, 9, 42, 92
10, 44664, Note_off_c, 9, 38, 63
10, 44668, Note_off_c, 9, 36, 47
10, 44688, Note_on_c, 9, 42, 55
10, 44690, Note_on_c, 9, 82, 71
10, 44704, Note_off_c, 9, 82, 92
10, 44705, Note_off_c, 9, 42, 86
10, 44712, Note_on_c, 9, 38, 70
10, 44729, Note_off_c, 9, 38, 88
10, 44736, Note_on_c, 9, 42, 61
10, 44736, Note_on_c, 9, 36, 122
10, 44738, Note_on_c, 9, 82, 69
10, 44752, Note_off_c, 9, 82, 96
10, 44753, Note_off_c, 9, 42, 99
10, 44755, Note_off_c, 9, 36, 67
10, 44784, Note_on_c, 9, 42, 58
10, 44789, Note_on_c, 9, 82, 69
10, 44801, Note_off_c, 9, 82, 88
10, 44802, Note_off_c, 9, 42, 92
10, 44832, Note_off_c, 9, 47, 118
10, 44832, Note_on_c, 9, 42, 60
10, 44832, Note_on_c, 9, 38, 100
10, 44834, Note_on_c, 9, 82, 71
10, 44847, Note_off_c, 9, 82, 84
10, 44849, Note_off_c, 9, 42, 92
10, 44854, Note_off_c, 9, 38, 62
10, 44880, Note_on_c, 9, 42, 58
10, 44880, Note_on_c, 9, 47, 127
10, 44884, Note_on_c, 9, 82, 69
10, 44897, Note_off_c, 9, 42, 92
10, 44899, Note_off_c, 9, 82, 88
10, 44928, Note_on_c, 9, 42, 63
10, 44928, Note_on_c, 9, 36, 122
10, 44931, Note_on_c, 9, 82, 69
10, 44944, Note_off_c, 9, 42, 96
10, 44945, Note_off_c, 9, 82, 92
10, 44947, Note_off_c, 9, 36, 92
10, 44976, Note_on_c, 9, 36, 109
10, 44976, Note_on_c, 9, 42, 55
10, 44979, Note_on_c, 9, 82, 69
10, 44990, Note_off_c, 9, 42, 94
10, 44991, Note_off_c, 9, 36, 80
10, 44993, Note_off_c, 9, 82, 92
10, 45024, Note_on_c, 9, 42, 66
10, 45024, Note_on_c, 9, 36, 122
10, 45024, Note_on_c, 9, 38, 100
10, 45027, Note_on_c, 9, 82, 66
10, 45039, Note_off_c, 9, 42, 96
10, 45040, Note_off_c, 9, 82, 90
10, 45046, Note_off_c, 9, 36, 62
10, 45048, Note_off_c, 9, 38, 58
10, 45072, Note_on_c, 9, 42, 58
10, 45076, Note_on_c, 9, 82, 69
10, 45085, Note_off_c, 9, 42, 96
10, 45089, Note_off_c, 9, 82, 82
10, 45096, Note_on_c, 9, 38, 70
10, 45117, Note_off_c, 9, 38, 53
10, 45120, Note_on_c, 9, 82, 74
10, 45120, Note_on_c, 9, 42, 63
10, 45120, Note_on_c, 9, 36, 122
10, 45134, Note_off_c, 9, 82, 92
10, 45136, Note_off_c, 9, 42, 90
10, 45143, Note_off_c, 9, 36, 61
10, 45168, Note_on_c, 9, 82, 69
10, 45168, Note_on_c, 9, 46, 90
10, 45180, Note_off_c, 9, 46, 92
10, 45183, Note_off_c, 9, 82, 82
10, 45187, Note_off_c, 9, 47, 94
10, 45215, Note_on_c, 9, 57, 100
10, 45216, Note_on_c, 9, 38, 100
10, 45216, Note_on_c, 9, 42, 66
10, 45218, Note_on_c, 9, 82, 71
10, 45230, Note_off_c, 9, 82, 86
10, 45232, Note_off_c, 9, 42, 96
10, 45235, Note_off_c, 9, 57, 79
10, 45242, Note_off_c, 9, 38, 57
10, 45262, Note_on_c, 9, 52, 50
10, 45264, Note_on_c, 9, 57, 96
10, 45264, Note_on_c, 9, 47, 127
10, 45264, Note_on_c, 9, 42, 66
10, 45268, Note_on_c, 9, 82, 71
10, 45279, Note_off_c, 9, 82, 84
10, 45282, Note_off_c, 9, 42, 103
10, 45312, Note_on_c, 9, 36, 122
10, 45312, Note_on_c, 9, 42, 69
10, 45313, Note_off_c, 9, 47, 108
10, 45315, Note_on_c, 9, 82, 64
10, 45328, Note_off_c, 9, 82, 80
10, 45329, Note_off_c, 9, 36, 88
10, 45330, Note_off_c, 9, 42, 99
10, 45355, Note_off_c, 9, 52, 99
10, 45360, Note_on_c, 9, 36, 118
10, 45360, Note_on_c, 9, 42, 64
10, 45363, Note_on_c, 9, 82, 64
10, 45377, Note_off_c, 9, 36, 99
10, 45378, Note_off_c, 9, 82, 77
10, 45378, Note_off_c, 9, 42, 99
10, 45397, Note_off_c, 9, 57, 69
10, 45408, Note_on_c, 9, 36, 122
10, 45408, Note_on_c, 9, 42, 69
10, 45408, Note_on_c, 9, 38, 92
10, 45411, Note_on_c, 9, 82, 61
10, 45426, Note_off_c, 9, 82, 80
10, 45427, Note_off_c, 9, 42, 101
10, 45431, Note_off_c, 9, 38, 84
10, 45435, Note_off_c, 9, 36, 53
10, 45456, Note_on_c, 9, 42, 64
10, 45461, Note_on_c, 9, 82, 61
10, 45473, Note_off_c, 9, 42, 99
10, 45476, Note_off_c, 9, 82, 84
10, 45480, Note_on_c, 9, 38, 70
10, 45496, Note_off_c, 9, 38, 99
10, 45504, Note_on_c, 9, 36, 122
10, 45504, Note_on_c, 9, 42, 56
10, 45507, Note_on_c, 9, 82, 64
10, 45520, Note_off_c, 9, 42, 96
10, 45521, Note_off_c, 9, 82, 80
10, 45530, Note_off_c, 9, 36, 35
10, 45552, Note_on_c, 9, 42, 60
10, 45554, Note_on_c, 9, 82, 69
10, 45568, Note_off_c, 9, 82, 90
10, 45571, Note_off_c, 9, 42, 96
10, 45600, Note_on_c, 9, 42, 63
10, 45600, Note_on_c, 9, 38, 105
10, 45604, Note_on_c, 9, 82, 66
10, 45617, Note_off_c, 9, 82, 90
10, 45619, Note_off_c, 9, 42, 90
10, 45621, Note_off_c, 9, 38, 67
10, 45648, Note_on_c, 9, 47, 124
10, 45648, Note_on_c, 9, 42, 52
10, 45654, Note_on_c, 9, 82, 66
10, 45666, Note_off_c, 9, 82, 92
10, 45666, Note_off_c, 9, 42, 101
10, 45696, Note_on_c, 9, 42, 61
10, 45696, Note_on_c, 9, 36, 122
10, 45699, Note_on_c, 9, 82, 64
10, 45712, Note_off_c, 9, 82, 90
10, 45713, Note_off_c, 9, 36, 106
10, 45716, Note_off_c, 9, 42, 94
10, 45744, Note_on_c, 9, 42, 63
10, 45744, Note_on_c, 9, 36, 115
10, 45747, Note_on_c, 9, 82, 66
10, 45759, Note_off_c, 9, 82, 90
10, 45759, Note_off_c, 9, 36, 101
10, 45762, Note_off_c, 9, 42, 94
10, 45792, Note_on_c, 9, 42, 63
10, 45792, Note_on_c, 9, 36, 122
10, 45792, Note_on_c, 9, 38, 96
10, 45795, Note_on_c, 9, 82, 66
10, 45808, Note_off_c, 9, 82, 92
10, 45809, Note_off_c, 9, 42, 94
10, 45814, Note_off_c, 9, 36, 66
10, 45817, Note_off_c, 9, 38, 67
10, 45840, Note_on_c, 9, 42, 63
10, 45843, Note_on_c, 9, 82, 66
10, 45855, Note_off_c, 9, 42, 92
10, 45856, Note_off_c, 9, 82, 88
10, 45864, Note_on_c, 9, 38, 70
10, 45884, Note_off_c, 9, 38, 77
10, 45888, Note_on_c, 9, 42, 64
10, 45888, Note_on_c, 9, 36, 122
10, 45890, Note_on_c, 9, 82, 64
10, 45903, Note_off_c, 9, 82, 90
10, 45906, Note_off_c, 9, 42, 88
10, 45910, Note_off_c, 9, 36, 52
10, 45936, Note_on_c, 9, 42, 63
10, 45938, Note_on_c, 9, 82, 67
10, 45951, Note_off_c, 9, 82, 90
10, 45954, Note_off_c, 9, 42, 90
10, 45984, Note_on_c, 9, 38, 105
10, 45984, Note_on_c, 9, 42, 64
10, 45985, Note_off_c, 9, 47, 99
10, 45987, Note_on_c, 9, 82, 66
10, 46001, Note_off_c, 9, 82, 86
10, 46003, Note_off_c, 9, 42, 92
10, 46009, Note_off_c, 9, 38, 69
10, 46032, Note_on_c, 9, 47, 124
10, 46032, Note_on_c, 9, 42, 51
10, 46036, Note_on_c, 9, 82, 69
10, 46048, Note_off_c, 9, 42, 94
10, 46050, Note_off_c, 9, 82, 90
10, 46080, Note_on_c, 9, 42, 61
10, 46080, Note_on_c, 9, 36, 122
10, 46082, Note_on_c, 9, 82, 67
10, 46096, Note_off_c, 9, 82, 96
10, 46097, Note_off_c, 9, 36, 96
10, 46099, Note_off_c, 9, 42, 94
10, 46128, Note_on_c, 9, 42, 60
10, 46128, Note_on_c, 9, 36, 113
10, 46132, Note_on_c, 9, 82, 61
10, 46143, Note_off_c, 9, 82, 103
10, 46145, Note_off_c, 9, 36, 111
10, 46146, Note_off_c, 9, 42, 90
10, 46176, Note_on_c, 9, 42, 63
10, 46176, Note_on_c, 9, 36, 118
10, 46176, Note_on_c, 9, 38, 100
10, 46179, Note_on_c, 9, 82, 67
10, 46191, Note_off_c, 9, 82, 92
10, 46196, Note_off_c, 9, 42, 96
10, 46199, Note_off_c, 9, 36, 77
10, 46203, Note_off_c, 9, 38, 70
10, 46224, Note_on_c, 9, 82, 74
10, 46224, Note_on_c, 9, 42, 63
10, 46238, Note_off_c, 9, 82, 94
10, 46241, Note_off_c, 9, 42, 101
10, 46248, Note_on_c, 9, 38, 70
10, 46269, Note_off_c, 9, 38, 82
10, 46272, Note_on_c, 9, 82, 67
10, 46272, Note_on_c, 9, 42, 66
10, 46272, Note_on_c, 9, 36, 122
10, 46284, Note_off_c, 9, 82, 88
10, 46288, Note_off_c, 9, 42, 94
10, 46298, Note_off_c, 9, 36, 62
10, 46320, Note_on_c, 9, 42, 60
10, 46322, Note_on_c, 9, 82, 66
10, 46334, Note_off_c, 9, 82, 63
10, 46337, Note_off_c, 9, 42, 92
10, 46368, Note_on_c, 9, 42, 64
10, 46368, Note_on_c, 9, 38, 105
10, 46371, Note_off_c, 9, 47, 111
10, 46371, Note_on_c, 9, 82, 64
10, 46383, Note_off_c, 9, 82, 92
10, 46384, Note_off_c, 9, 42, 88
10, 46392, Note_off_c, 9, 38, 62
10, 46416, Note_on_c, 9, 47, 124
10, 46416, Note_on_c, 9, 42, 61
10, 46420, Note_on_c, 9, 82, 66
10, 46431, Note_off_c, 9, 82, 84
10, 46431, Note_off_c, 9, 42, 99
10, 46464, Note_on_c, 9, 36, 122
10, 46464, Note_on_c, 9, 42, 67
10, 46467, Note_on_c, 9, 82, 71
10, 46479, Note_off_c, 9, 82, 90
10, 46479, Note_off_c, 9, 42, 86
10, 46482, Note_off_c, 9, 36, 99
10, 46512, Note_on_c, 9, 82, 69
10, 46512, Note_on_c, 9, 36, 115
10, 46512, Note_on_c, 9, 42, 61
10, 46525, Note_off_c, 9, 82, 82
10, 46527, Note_off_c, 9, 42, 96
10, 46529, Note_off_c, 9, 36, 106
10, 46560, Note_on_c, 9, 36, 122
10, 46560, Note_on_c, 9, 42, 67
10, 46560, Note_on_c, 9, 38, 100
10, 46563, Note_on_c, 9, 82, 67
10, 46574, Note_off_c, 9, 82, 79
10, 46577, Note_off_c, 9, 42, 84
10, 46585, Note_off_c, 9, 38, 57
10, 46589, Note_off_c, 9, 36, 46
10, 46608, Note_on_c, 9, 42, 56
10, 46612, Note_on_c, 9, 82, 71
10, 46622, Note_off_c, 9, 42, 92
10, 46623, Note_off_c, 9, 82, 88
10, 46632, Note_on_c, 9, 38, 70
10, 46652, Note_off_c, 9, 38, 75
10, 46656, Note_on_c, 9, 36, 122
10, 46656, Note_on_c, 9, 42, 64
10, 46658, Note_on_c, 9, 82, 66
10, 46671, Note_off_c, 9, 82, 82
10, 46673, Note_off_c, 9, 42, 90
10, 46681, Note_off_c, 9, 36, 63
10, 46704, Note_on_c, 9, 42, 58
10, 46707, Note_on_c, 9, 82, 69
10, 46720, Note_off_c, 9, 82, 86
10, 46721, Note_off_c, 9, 42, 94
10, 46752, Note_off_c, 9, 47, 118
10, 46752, Note_on_c, 9, 42, 64
10, 46752, Note_on_c, 9, 38, 100
10, 46756, Note_on_c, 9, 82, 69
10, 46766, Note_off_c, 9, 82, 94
10, 46771, Note_off_c, 9, 42, 96
10, 46777, Note_off_c, 9, 38, 57
10, 46800, Note_on_c, 9, 42, 58
10, 46800, Note_on_c, 9, 47, 127
10, 46803, Note_on_c, 9, 82, 69
10, 46815, Note_off_c, 9, 82, 79
10, 46816, Note_off_c, 9, 42, 103
10, 46848, Note_on_c, 9, 36, 122
10, 46848, Note_on_c, 9, 42, 67
10, 46853, Note_on_c, 9, 82, 67
10, 46865, Note_off_c, 9, 82, 80
10, 46865, Note_off_c, 9, 42, 88
10, 46868, Note_off_c, 9, 36, 90
10, 46896, Note_on_c, 9, 36, 118
10, 46896, Note_on_c, 9, 42, 58
10, 46899, Note_on_c, 9, 82, 69
10, 46912, Note_off_c, 9, 36, 92
10, 46913, Note_off_c, 9, 82, 101
10, 46913, Note_off_c, 9, 42, 99
10, 46944, Note_on_c, 9, 36, 121
10, 46944, Note_on_c, 9, 42, 61
10, 46944, Note_on_c, 9, 38, 100
10, 46949, Note_on_c, 9, 82, 69
10, 46962, Note_off_c, 9, 82, 88
10, 46962, Note_off_c, 9, 42, 84
10, 46970, Note_off_c, 9, 38, 62
10, 46977, Note_off_c, 9, 36, 46
10, 46992, Note_on_c, 9, 42, 63
10, 46996, Note_on_c, 9, 82, 67
10, 47009, Note_off_c, 9, 82, 90
10, 47011, Note_off_c, 9, 42, 96
10, 47016, Note_on_c, 9, 38, 70
10, 47035, Note_off_c, 9, 38, 73
10, 47040, Note_on_c, 9, 42, 52
10, 47040, Note_on_c, 9, 36, 121
10, 47042, Note_on_c, 9, 82, 63
10, 47055, Note_off_c, 9, 82, 88
10, 47059, Note_off_c, 9, 42, 94
10, 47065, Note_off_c, 9, 36, 70
10, 47088, Note_on_c, 9, 82, 64
10, 47088, Note_on_c, 9, 42, 58
10, 47102, Note_off_c, 9, 82, 94
10, 47105, Note_off_c, 9, 42, 84
10, 47130, Note_off_c, 9, 47, 115
10, 47136, Note_on_c, 9, 42, 63
10, 47136, Note_on_c, 9, 38, 105
10, 47138, Note_on_c, 9, 82, 71
10, 47150, Note_off_c, 9, 82, 92
10, 47152, Note_off_c, 9, 42, 92
10, 47162, Note_off_c, 9, 38, 54
10, 47184, Note_on_c, 9, 82, 64
10, 47184, Note_on_c, 9, 42, 58
10, 47184, Note_on_c, 9, 47, 127
10, 47197, Note_off_c, 9, 82, 88
10, 47201, Note_off_c, 9, 42, 96
10, 47232, Note_on_c, 9, 36, 122
10, 47232, Note_on_c, 9, 42, 71
10, 47234, Note_on_c, 9, 82, 69
10, 47246, Note_off_c, 9, 82, 92
10, 47249, Note_off_c, 9, 42, 90
10, 47251, Note_off_c, 9, 36, 86
10, 47280, Note_on_c, 9, 36, 118
10, 47280, Note_on_c, 9, 42, 60
10, 47283, Note_on_c, 9, 82, 69
10, 47294, Note_off_c, 9, 82, 94
10, 47296, Note_off_c, 9, 42, 90
10, 47296, Note_off_c, 9, 36, 106
10, 47328, Note_on_c, 9, 42, 67
10, 47328, Note_on_c, 9, 36, 111
10, 47328, Note_on_c, 9, 38, 96
10, 47332, Note_on_c, 9, 82, 71
10, 47344, Note_off_c, 9, 82, 86
10, 47347, Note_off_c, 9, 42, 88
10, 47349, Note_off_c, 9, 38, 55
10, 47367, Note_off_c, 9, 36, 66
10, 47376, Note_on_c, 9, 42, 58
10, 47379, Note_on_c, 9, 82, 67
10, 47391, Note_off_c, 9, 42, 94
10, 47394, Note_off_c, 9, 82, 94
10, 47400, Note_on_c, 9, 38, 70
10, 47417, Note_off_c, 9, 38, 88
10, 47424, Note_on_c, 9, 42, 57
10, 47424, Note_on_c, 9, 36, 113
10, 47428, Note_on_c, 9, 82, 67
10, 47441, Note_off_c, 9, 82, 92
10, 47441, Note_off_c, 9, 42, 88
10, 47453, Note_off_c, 9, 36, 69
10, 47472, Note_on_c, 9, 42, 63
10, 47474, Note_on_c, 9, 82, 66
10, 47485, Note_off_c, 9, 42, 92
10, 47487, Note_off_c, 9, 82, 90
10, 47509, Note_off_c, 9, 47, 106
10, 47520, Note_on_c, 9, 42, 63
10, 47520, Note_on_c, 9, 38, 100
10, 47522, Note_on_c, 9, 82, 66
10, 47535, Note_off_c, 9, 82, 82
10, 47536, Note_off_c, 9, 42, 88
10, 47541, Note_off_c, 9, 38, 70
10, 47568, Note_on_c, 9, 47, 127
10, 47568, Note_on_c, 9, 42, 58
10, 47570, Note_on_c, 9, 82, 64
10, 47584, Note_off_c, 9, 42, 92
10, 47585, Note_off_c, 9, 82, 90
10, 47616, Note_on_c, 9, 82, 67
10, 47616, Note_on_c, 9, 42, 61
10, 47616, Note_on_c, 9, 36, 118
10, 47629, Note_off_c, 9, 82, 96
10, 47632, Note_off_c, 9, 42, 94
10, 47633, Note_off_c, 9, 36, 84
10, 47663, Note_on_c, 9, 82, 64
10, 47664, Note_on_c, 9, 42, 61
10, 47664, Note_on_c, 9, 36, 109
10, 47674, Note_off_c, 9, 82, 86
10, 47678, Note_off_c, 9, 36, 101
10, 47682, Note_off_c, 9, 42, 94
10, 47710, Note_on_c, 9, 82, 69
10, 47712, Note_on_c, 9, 42, 64
10, 47712, Note_on_c, 9, 36, 115
10, 47712, Note_on_c, 9, 38, 100
10, 47723, Note_off_c, 9, 82, 96
10, 47731, Note_off_c, 9, 42, 92
10, 47736, Note_off_c, 9, 38, 63
10, 47740, Note_off_c, 9, 36, 47
10, 47760, Note_on_c, 9, 42, 55
10, 47762, Note_on_c, 9, 82, 71
10, 47776, Note_off_c, 9, 82, 92
10, 47777, Note_off_c, 9, 42, 86
10, 47784, Note_on_c, 9, 38, 70
10, 47801, Note_off_c, 9, 38, 88
10, 47808, Note_on_c, 9, 42, 61
10, 47808, Note_on_c, 9, 36, 122
10, 47810, Note_on_c, 9, 82, 69
10, 47824, Note_off_c, 9, 82, 96
10, 47825, Note_off_c, 9, 42, 99
10, 47827, Note_off_c, 9, 36, 67
10, 47856, Note_on_c, 9, 42, 58
10, 47861, Note_on_c, 9, 82, 69
10, 47873, Note_off_c, 9, 82, 88
10, 47874, Note_off_c, 9, 42, 92
10, 47904, Note_off_c, 9, 47, 118
10, 47904, Note_on_c, 9, 42, 60
10, 47904, Note_on_c, 9, 38, 100
10, 47906, Note_on_c, 9, 82, 71
10, 47919, Note_off_c, 9, 82, 84
10, 47921, Note_off_c, 9, 42, 92
10, 47926, Note_off_c, 9, 38, 62
10, 47952, Note_on_c, 9, 42, 58
10, 47952, Note_on_c, 9, 47, 127
10, 47956, Note_on_c, 9, 82, 69
10, 47969, Note_off_c, 9, 42, 92
10, 47971, Note_off_c, 9, 82, 88
10, 48000, Note_on_c, 9, 42, 63
10, 48000, Note_on_c, 9, 36, 122
10, 48003, Note_on_c, 9, 82, 69
10, 48016, Note_off_c, 9, 42, 96
10, 48017, Note_off_c, 9, 82, 92
10, 48019, Note_off_c, 9, 36, 92
10, 48048, Note_on_c, 9, 36, 109
10, 48048, Note_on_c, 9, 42, 55
10, 48051, Note_on_c, 9, 82, 69
10, 48062, Note_off_c, 9, 42, 94
10, 48063, Note_off_c, 9, 36, 80
10, 48065, Note_off_c, 9, 82, 92
10, 48096, Note_on_c, 9, 42, 66
10, 48096, Note_on_c, 9, 36, 122
10, 48096, Note_on_c, 9, 38, 100
10, 48099, Note_on_c, 9, 82, 66
10, 48111, Note_off_c, 9, 42, 96
10, 48112, Note_off_c, 9, 82, 90
10, 48118, Note_off_c, 9, 36, 62
10, 48120, Note_off_c, 9, 38, 58
10, 48144, Note_on_c, 9, 42, 58
10, 48148, Note_on_c, 9, 82, 69
10, 48157, Note_off_c, 9, 42, 96
10, 48161, Note_off_c, 9, 82, 82
10, 48168, Note_on_c, 9, 38, 70
10, 48189, Note_off_c, 9, 38, 53
10, 48192, Note_on_c, 9, 82, 74
10, 48192, Note_on_c, 9, 42, 63
10, 48192, Note_on_c, 9, 36, 122
10, 48206, Note_off_c, 9, 82, 92
10, 48208, Note_off_c, 9, 42, 90
10, 48215, Note_off_c, 9, 36, 61
10, 48240, Note_on_c, 9, 82, 69
10, 48240, Note_on_c, 9, 46, 90
10, 48252, Note_off_c, 9, 46, 92
10, 48255, Note_off_c, 9, 82, 82
10, 48259, Note_off_c, 9, 47, 94
10, 48287, Note_on_c, 9, 57, 74
10, 48288, Note_on_c, 9, 38, 100
10, 48288, Note_on_c, 9, 42, 66
10, 48290, Note_on_c, 9, 82, 71
10, 48302, Note_off_c, 9, 82, 86
10, 48304, Note_off_c, 9, 42, 96
10, 48314, Note_off_c, 9, 38, 57
10, 48334, Note_on_c, 9, 52, 50
10, 48336, Note_on_c, 9, 47, 127
10, 48336, Note_on_c, 9, 42, 66
10, 48340, Note_on_c, 9, 82, 71
10, 48351, Note_off_c, 9, 82, 84
10, 48354, Note_off_c, 9, 42, 103
10, 48384, Note_on_c, 9, 49, 121
10, 48384, Note_on_c, 9, 36, 120
10, 48385, Note_off_c, 9, 47, 108
10, 48394, Note_off_c, 9, 57, 79
10, 48427, Note_off_c, 9, 52, 99
10, 49125, Note_on_c, 9, 48, 105
10, 49136, Note_off_c, 9, 36, 111
10, 49138, Note_off_c, 9, 49, 108
10, 49138, Note_on_c, 9, 47, 80
10, 49148, Note_off_c, 9, 48, 122
10, 49150, Note_on_c, 9, 41, 105
10, 49151, Note_on_c, 9, 45, 120
10, 49152, Note_on_c, 9, 57, 96
10, 49152, Note_on_c, 9, 36, 100
10, 49159, Note_off_c, 9, 47, 118
10, 49172, Note_off_c, 9, 45, 106
10, 49173, Note_off_c, 9, 41, 99
10, 49591, Note_off_c, 9, 57, 69
10, 49597, Note_off_c, 9, 36, 106
10, 49920, End_track
11, 0, Start_track
11, 0, Program_c, 10, 0
11, 24, Control_c, 10, 1, 0
11, 48, Control_c, 10, 7, 100
11, 72, Control_c, 10, 10, 65
11, 96, Control_c, 10, 11, 127
11, 120, Control_c, 10, 91, 30
11, 144, Pitch_bend_c, 10, 8192
11, 384, End_track
12, 0, Start_track
12, 0, Program_c, 11, 0
12, 24, Control_c, 11, 1, 0
12, 48, Control_c, 11, 7, 100
12, 72, Control_c, 11, 10, 65
12, 96, Control_c, 11, 11, 127
12, 120, Control_c, 11, 91, 30
12, 144, Pitch_bend_c, 11, 8192
12, 384, End_track
13, 0, Start_track
13, 0, Program_c, 12, 0
13, 24, Control_c, 12, 1, 0
13, 48, Control_c, 12, 7, 100
13, 72, Control_c, 12, 10, 65
13, 96, Control_c, 12, 11, 127
13, 120, Control_c, 12, 91, 30
13, 144, Pitch_bend_c, 12, 8192
13, 384, End_track
14, 0, Start_track
14, 0, Program_c, 13, 0
14, 24, Control_c, 13, 1, 0
14, 48, Control_c, 13, 7, 100
14, 72, Control_c, 13, 10, 65
14, 96, Control_c, 13, 11, 127
14, 120, Control_c, 13, 91, 30
14, 144, Pitch_bend_c, 13, 8192
14, 384, End_track
15, 0, Start_track
15, 0, Program_c, 14, 61
15, 24, Control_c, 14, 1, 0
15, 48, Control_c, 14, 7, 100
15, 72, Control_c, 14, 10, 65
15, 96, Control_c, 14, 11, 127
15, 120, Control_c, 14, 91, 80
15, 144, Pitch_bend_c, 14, 8192
15, 8496, Note_on_c, 14, 59, 90
15, 8496, Note_on_c, 14, 62, 112
15, 8546, Note_off_c, 14, 59, 106
15, 8558, Note_off_c, 14, 62, 115
15, 8568, Note_on_c, 14, 59, 95
15, 8568, Note_on_c, 14, 62, 109
15, 8577, Note_off_c, 14, 62, 124
15, 8578, Note_off_c, 14, 59, 96
15, 8592, Note_on_c, 14, 62, 105
15, 8592, Note_on_c, 14, 59, 95
15, 8600, Channel_aftertouch_c, 14, 1
15, 8601, Channel_aftertouch_c, 14, 0
15, 8604, Channel_aftertouch_c, 14, 5
15, 8606, Channel_aftertouch_c, 14, 10
15, 8607, Channel_aftertouch_c, 14, 1
15, 8609, Channel_aftertouch_c, 14, 0
15, 8631, Note_off_c, 14, 62, 66
15, 8635, Note_off_c, 14, 59, 96
15, 8640, Note_on_c, 14, 64, 109
15, 8640, Note_on_c, 14, 61, 101
15, 8700, Note_off_c, 14, 61, 61
15, 8712, Note_on_c, 14, 62, 85
15, 8712, Note_on_c, 14, 66, 101
15, 8719, Note_off_c, 14, 64, 103
15, 8743, Note_off_c, 14, 66, 103
15, 8743, Note_off_c, 14, 62, 56
15, 8784, Note_on_c, 14, 66, 106
15, 8784, Note_on_c, 14, 62, 95
15, 8875, Note_off_c, 14, 62, 75
15, 8880, Note_on_c, 14, 54, 94
15, 8880, Note_on_c, 14, 57, 109
15, 8885, Note_off_c, 14, 66, 106
15, 8891, Channel_aftertouch_c, 14, 3
15, 8892, Channel_aftertouch_c, 14, 0
15, 8932, Note_off_c, 14, 57, 113
15, 8940, Note_off_c, 14, 54, 124
15, 8952, Note_on_c, 14, 57, 105
15, 8952, Note_on_c, 14, 54, 78
15, 8963, Note_off_c, 14, 57, 118
15, 8965, Note_off_c, 14, 54, 124
15, 8976, Note_on_c, 14, 57, 105
15, 8976, Note_on_c, 14, 54, 78
15, 8981, Channel_aftertouch_c, 14, 3
15, 8982, Channel_aftertouch_c, 14, 0
15, 8984, Channel_aftertouch_c, 14, 2
15, 8985, Channel_aftertouch_c, 14, 0
15, 8986, Note_off_c, 14, 54, 127
15, 8989, Note_off_c, 14, 57, 126
15, 9024, Note_on_c, 14, 54, 94
15, 9024, Note_on_c, 14, 57, 112
15, 9027, Channel_aftertouch_c, 14, 6
15, 9029, Channel_aftertouch_c, 14, 11
15, 9030, Channel_aftertouch_c, 14, 14
15, 9032, Channel_aftertouch_c, 14, 10
15, 9033, Channel_aftertouch_c, 14, 3
15, 9035, Channel_aftertouch_c, 14, 1
15, 9036, Channel_aftertouch_c, 14, 0
15, 9068, Note_off_c, 14, 54, 113
15, 9072, Note_on_c, 14, 55, 85
15, 9072, Note_on_c, 14, 59, 112
15, 9076, Note_off_c, 14, 57, 84
15, 9088, Note_off_c, 14, 59, 124
15, 9091, Note_off_c, 14, 55, 108
15, 9120, Note_on_c, 14, 59, 112
15, 9120, Note_on_c, 14, 55, 85
15, 9132, Note_off_c, 14, 55, 108
15, 9134, Note_off_c, 14, 59, 122
15, 9168, Note_on_c, 14, 55, 90
15, 9168, Note_on_c, 14, 59, 112
15, 9231, Note_off_c, 14, 59, 118
15, 9234, Note_off_c, 14, 55, 118
15, 9264, Note_on_c, 14, 59, 95
15, 9264, Note_on_c, 14, 62, 112
15, 9319, Note_off_c, 14, 62, 80
15, 9322, Note_off_c, 14, 59, 108
15, 9336, Note_on_c, 14, 62, 109
15, 9336, Note_on_c, 14, 59, 81
15, 9347, Note_off_c, 14, 59, 124
15, 9352, Note_off_c, 14, 62, 99
15, 9360, Note_on_c, 14, 62, 109
15, 9360, Channel_aftertouch_c, 14, 2
15, 9360, Note_on_c, 14, 59, 95
15, 9363, Channel_aftertouch_c, 14, 0
15, 9393, Note_off_c, 14, 62, 124
15, 9406, Note_off_c, 14, 59, 108
15, 9408, Note_on_c, 14, 64, 109
15, 9408, Note_on_c, 14, 61, 101
15, 9414, Channel_aftertouch_c, 14, 12
15, 9416, Channel_aftertouch_c, 14, 19
15, 9419, Channel_aftertouch_c, 14, 17
15, 9420, Channel_aftertouch_c, 14, 14
15, 9422, Channel_aftertouch_c, 14, 10
15, 9423, Channel_aftertouch_c, 14, 7
15, 9425, Channel_aftertouch_c, 14, 5
15, 9426, Channel_aftertouch_c, 14, 0
15, 9469, Note_off_c, 14, 61, 88
15, 9478, Note_off_c, 14, 64, 108
15, 9480, Note_on_c, 14, 62, 77
15, 9480, Note_on_c, 14, 66, 110
15, 9512, Note_off_c, 14, 62, 75
15, 9521, Note_off_c, 14, 66, 108
15, 9552, Note_on_c, 14, 62, 85
15, 9552, Note_on_c, 14, 66, 106
15, 9647, Note_off_c, 14, 62, 90
15, 9648, Note_on_c, 14, 54, 101
15, 9648, Note_on_c, 14, 57, 109
15, 9654, Note_off_c, 14, 66, 101
15, 9659, Channel_aftertouch_c, 14, 2
15, 9660, Channel_aftertouch_c, 14, 1
15, 9662, Channel_aftertouch_c, 14, 0
15, 9697, Note_off_c, 14, 57, 118
15, 9704, Note_off_c, 14, 54, 113
15, 9720, Note_on_c, 14, 54, 86
15, 9720, Note_on_c, 14, 57, 109
15, 9730, Channel_aftertouch_c, 14, 3
15, 9731, Channel_aftertouch_c, 14, 0
15, 9734, Note_off_c, 14, 54, 127
15, 9735, Note_off_c, 14, 57, 115
15, 9744, Note_on_c, 14, 57, 109
15, 9744, Note_on_c, 14, 54, 78
15, 9757, Note_off_c, 14, 54, 127
15, 9762, Note_off_c, 14, 57, 126
15, 9792, Note_on_c, 14, 54, 94
15, 9792, Note_on_c, 14, 57, 109
15, 9792, Note_on_c, 14, 58, 63
15, 9794, Note_off_c, 14, 58, 122
15, 9797, Channel_aftertouch_c, 14, 1
15, 9799, Channel_aftertouch_c, 14, 3
15, 9800, Channel_aftertouch_c, 14, 0
15, 9840, Note_on_c, 14, 55, 85
15, 9840, Note_on_c, 14, 59, 105
15, 9842, Note_off_c, 14, 54, 103
15, 9845, Note_off_c, 14, 57, 118
15, 9856, Note_off_c, 14, 59, 126
15, 9859, Note_off_c, 14, 55, 108
15, 9888, Note_on_c, 14, 59, 109
15, 9888, Note_on_c, 14, 55, 90
15, 9903, Note_off_c, 14, 55, 111
15, 9903, Note_off_c, 14, 59, 118
15, 9936, Note_on_c, 14, 55, 100
15, 9936, Note_on_c, 14, 59, 112
15, 9981, Note_off_c, 14, 55, 118
15, 10003, Note_off_c, 14, 59, 120
15, 10032, Note_on_c, 14, 62, 109
15, 10032, Note_on_c, 14, 59, 63
15, 10075, Note_off_c, 14, 59, 88
15, 10097, Note_off_c, 14, 62, 86
15, 10104, Note_on_c, 14, 62, 109
15, 10104, Note_on_c, 14, 59, 85
15, 10112, Note_off_c, 14, 59, 120
15, 10123, Note_off_c, 14, 62, 94
15, 10128, Note_on_c, 14, 62, 109
15, 10128, Note_on_c, 14, 59, 100
15, 10150, Note_off_c, 14, 62, 115
15, 10171, Note_off_c, 14, 59, 103
15, 10176, Note_on_c, 14, 61, 94
15, 10176, Note_on_c, 14, 64, 112
15, 10239, Note_off_c, 14, 61, 84
15, 10247, Note_off_c, 14, 64, 94
15, 10248, Note_on_c, 14, 62, 90
15, 10248, Note_on_c, 14, 66, 106
15, 10281, Note_off_c, 14, 66, 106
15, 10288, Note_off_c, 14, 62, 57
15, 10320, Note_on_c, 14, 66, 110
15, 10320, Note_on_c, 14, 62, 95
15, 10411, Note_off_c, 14, 62, 79
15, 10415, Note_off_c, 14, 66, 82
15, 10416, Note_on_c, 14, 54, 94
15, 10416, Note_on_c, 14, 57, 109
15, 10426, Channel_aftertouch_c, 14, 1
15, 10428, Channel_aftertouch_c, 14, 3
15, 10429, Channel_aftertouch_c, 14, 0
15, 10466, Note_off_c, 14, 57, 122
15, 10474, Note_off_c, 14, 54, 113
15, 10488, Note_on_c, 14, 57, 105
15, 10488, Note_on_c, 14, 54, 94
15, 10495, Channel_aftertouch_c, 14, 6
15, 10496, Channel_aftertouch_c, 14, 0
15, 10501, Note_off_c, 14, 54, 126
15, 10504, Note_off_c, 14, 57, 101
15, 10512, Note_on_c, 14, 57, 109
15, 10512, Note_on_c, 14, 54, 78
15, 10525, Note_off_c, 14, 54, 127
15, 10529, Note_off_c, 14, 57, 124
15, 10560, Note_on_c, 14, 54, 94
15, 10560, Note_on_c, 14, 57, 109
15, 10607, Note_off_c, 14, 54, 96
15, 10608, Note_off_c, 14, 57, 115
15, 10608, Note_on_c, 14, 59, 95
15, 10608, Note_on_c, 14, 55, 85
15, 10625, Note_off_c, 14, 55, 108
15, 10625, Note_off_c, 14, 59, 122
15, 10656, Note_on_c, 14, 55, 85
15, 10656, Note_on_c, 14, 59, 112
15, 10671, Note_off_c, 14, 59, 126
15, 10675, Note_off_c, 14, 55, 106
15, 10704, Note_on_c, 14, 59, 109
15, 10704, Note_on_c, 14, 55, 95
15, 10762, Note_off_c, 14, 55, 111
15, 10787, Note_off_c, 14, 59, 73
15, 10800, Note_on_c, 14, 59, 100
15, 10800, Note_on_c, 14, 62, 105
15, 10854, Note_off_c, 14, 62, 90
15, 10854, Note_off_c, 14, 59, 113
15, 10872, Note_on_c, 14, 59, 90
15, 10872, Note_on_c, 14, 62, 105
15, 10882, Note_off_c, 14, 59, 118
15, 10890, Note_off_c, 14, 62, 69
15, 10896, Note_on_c, 14, 62, 109
15, 10896, Note_on_c, 14, 59, 95
15, 10923, Note_off_c, 14, 62, 115
15, 10944, Note_off_c, 14, 59, 96
15, 10944, Note_on_c, 14, 61, 101
15, 10944, Note_on_c, 14, 64, 109
15, 10949, Channel_aftertouch_c, 14, 5
15, 10950, Channel_aftertouch_c, 14, 12
15, 10952, Channel_aftertouch_c, 14, 10
15, 10953, Channel_aftertouch_c, 14, 7
15, 10956, Channel_aftertouch_c, 14, 2
15, 10958, Channel_aftertouch_c, 14, 0
15, 11016, Note_off_c, 14, 61, 101
15, 11016, Note_on_c, 14, 66, 101
15, 11016, Note_on_c, 14, 62, 90
15, 11017, Note_off_c, 14, 64, 62
15, 11039, Note_off_c, 14, 62, 86
15, 11055, Note_off_c, 14, 66, 101
15, 11088, Note_on_c, 14, 66, 106
15, 11088, Note_on_c, 14, 62, 81
15, 11177, Note_off_c, 14, 62, 90
15, 11183, Note_off_c, 14, 66, 96
15, 11184, Note_on_c, 14, 54, 101
15, 11184, Note_on_c, 14, 57, 112
15, 11191, Channel_aftertouch_c, 14, 15
15, 11192, Channel_aftertouch_c, 14, 9
15, 11194, Channel_aftertouch_c, 14, 0
15, 11235, Note_off_c, 14, 57, 96
15, 11242, Note_off_c, 14, 54, 120
15, 11256, Note_on_c, 14, 57, 109
15, 11256, Note_on_c, 14, 54, 94
15, 11265, Channel_aftertouch_c, 14, 3
15, 11266, Channel_aftertouch_c, 14, 0
15, 11268, Note_off_c, 14, 54, 127
15, 11271, Note_off_c, 14, 57, 106
15, 11280, Note_on_c, 14, 57, 109
15, 11280, Note_on_c, 14, 54, 101
15, 11294, Note_off_c, 14, 54, 127
15, 11295, Note_off_c, 14, 57, 126
15, 11328, Note_on_c, 14, 54, 101
15, 11328, Note_on_c, 14, 57, 109
15, 11333, Channel_aftertouch_c, 14, 1
15, 11334, Channel_aftertouch_c, 14, 8
15, 11336, Channel_aftertouch_c, 14, 2
15, 11337, Channel_aftertouch_c, 14, 0
15, 11376, Note_off_c, 14, 54, 99
15, 11376, Note_on_c, 14, 55, 105
15, 11376, Note_on_c, 14, 59, 105
15, 11380, Note_off_c, 14, 57, 115
15, 11391, Note_off_c, 14, 59, 127
15, 11394, Note_off_c, 14, 55, 111
15, 11424, Note_on_c, 14, 55, 100
15, 11424, Note_on_c, 14, 59, 112
15, 11439, Note_off_c, 14, 59, 124
15, 11441, Note_off_c, 14, 55, 108
15, 11472, Note_on_c, 14, 55, 105
15, 11472, Note_on_c, 14, 59, 112
15, 11511, Note_off_c, 14, 59, 94
15, 11517, Note_off_c, 14, 55, 113
15, 11520, Note_on_c, 14, 57, 89
15, 11520, Note_on_c, 14, 52, 96
15, 11590, Note_off_c, 14, 52, 84
15, 11595, Note_off_c, 14, 57, 65
15, 14640, Note_on_c, 14, 59, 90
15, 14640, Note_on_c, 14, 62, 112
15, 14690, Note_off_c, 14, 59, 106
15, 14702, Note_off_c, 14, 62, 115
15, 14712, Note_on_c, 14, 59, 95
15, 14712, Note_on_c, 14, 62, 109
15, 14721, Note_off_c, 14, 62, 124
15, 14722, Note_off_c, 14, 59, 96
15, 14736, Note_on_c, 14, 62, 105
15, 14736, Note_on_c, 14, 59, 95
15, 14744, Channel_aftertouch_c, 14, 1
15, 14745, Channel_aftertouch_c, 14, 0
15, 14748, Channel_aftertouch_c, 14, 5
15, 14750, Channel_aftertouch_c, 14, 10
15, 14751, Channel_aftertouch_c, 14, 1
15, 14753, Channel_aftertouch_c, 14, 0
15, 14775, Note_off_c, 14, 62, 66
15, 14779, Note_off_c, 14, 59, 96
15, 14784, Note_on_c, 14, 64, 109
15, 14784, Note_on_c, 14, 61, 101
15, 14844, Note_off_c, 14, 61, 61
15, 14856, Note_on_c, 14, 62, 85
15, 14856, Note_on_c, 14, 66, 101
15, 14863, Note_off_c, 14, 64, 103
15, 14887, Note_off_c, 14, 66, 103
15, 14887, Note_off_c, 14, 62, 56
15, 14928, Note_on_c, 14, 66, 106
15, 14928, Note_on_c, 14, 62, 95
15, 15019, Note_off_c, 14, 62, 75
15, 15024, Note_on_c, 14, 54, 94
15, 15024, Note_on_c, 14, 57, 109
15, 15029, Note_off_c, 14, 66, 106
15, 15035, Channel_aftertouch_c, 14, 3
15, 15036, Channel_aftertouch_c, 14, 0
15, 15076, Note_off_c, 14, 57, 113
15, 15084, Note_off_c, 14, 54, 124
15, 15096, Note_on_c, 14, 57, 105
15, 15096, Note_on_c, 14, 54, 78
15, 15107, Note_off_c, 14, 57, 118
15, 15109, Note_off_c, 14, 54, 124
15, 15120, Note_on_c, 14, 57, 105
15, 15120, Note_on_c, 14, 54, 78
15, 15125, Channel_aftertouch_c, 14, 3
15, 15126, Channel_aftertouch_c, 14, 0
15, 15128, Channel_aftertouch_c, 14, 2
15, 15129, Channel_aftertouch_c, 14, 0
15, 15130, Note_off_c, 14, 54, 127
15, 15133, Note_off_c, 14, 57, 126
15, 15168, Note_on_c, 14, 54, 94
15, 15168, Note_on_c, 14, 57, 112
15, 15171, Channel_aftertouch_c, 14, 6
15, 15173, Channel_aftertouch_c, 14, 11
15, 15174, Channel_aftertouch_c, 14, 14
15, 15176, Channel_aftertouch_c, 14, 10
15, 15177, Channel_aftertouch_c, 14, 3
15, 15179, Channel_aftertouch_c, 14, 1
15, 15180, Channel_aftertouch_c, 14, 0
15, 15212, Note_off_c, 14, 54, 113
15, 15216, Note_on_c, 14, 55, 85
15, 15216, Note_on_c, 14, 59, 112
15, 15220, Note_off_c, 14, 57, 84
15, 15232, Note_off_c, 14, 59, 124
15, 15235, Note_off_c, 14, 55, 108
15, 15264, Note_on_c, 14, 59, 112
15, 15264, Note_on_c, 14, 55, 85
15, 15276, Note_off_c, 14, 55, 108
15, 15278, Note_off_c, 14, 59, 122
15, 15312, Note_on_c, 14, 55, 90
15, 15312, Note_on_c, 14, 59, 112
15, 15375, Note_off_c, 14, 59, 118
15, 15378, Note_off_c, 14, 55, 118
15, 15408, Note_on_c, 14, 59, 95
15, 15408, Note_on_c, 14, 62, 112
15, 15463, Note_off_c, 14, 62, 80
15, 15466, Note_off_c, 14, 59, 108
15, 15480, Note_on_c, 14, 62, 109
15, 15480, Note_on_c, 14, 59, 81
15, 15491, Note_off_c, 14, 59, 124
15, 15496, Note_off_c, 14, 62, 99
15, 15504, Note_on_c, 14, 62, 109
15, 15504, Channel_aftertouch_c, 14, 2
15, 15504, Note_on_c, 14, 59, 95
15, 15507, Channel_aftertouch_c, 14, 0
15, 15537, Note_off_c, 14, 62, 124
15, 15550, Note_off_c, 14, 59, 108
15, 15552, Note_on_c, 14, 64, 109
15, 15552, Note_on_c, 14, 61, 101
15, 15558, Channel_aftertouch_c, 14, 12
15, 15560, Channel_aftertouch_c, 14, 19
15, 15563, Channel_aftertouch_c, 14, 17
15, 15564, Channel_aftertouch_c, 14, 14
15, 15566, Channel_aftertouch_c, 14, 10
15, 15567, Channel_aftertouch_c, 14, 7
15, 15569, Channel_aftertouch_c, 14, 5
15, 15570, Channel_aftertouch_c, 14, 0
15, 15613, Note_off_c, 14, 61, 88
15, 15622, Note_off_c, 14, 64, 108
15, 15624, Note_on_c, 14, 62, 77
15, 15624, Note_on_c, 14, 66, 110
15, 15656, Note_off_c, 14, 62, 75
15, 15665, Note_off_c, 14, 66, 108
15, 15696, Note_on_c, 14, 62, 85
15, 15696, Note_on_c, 14, 66, 106
15, 15791, Note_off_c, 14, 62, 90
15, 15792, Note_on_c, 14, 54, 101
15, 15792, Note_on_c, 14, 57, 109
15, 15798, Note_off_c, 14, 66, 101
15, 15803, Channel_aftertouch_c, 14, 2
15, 15804, Channel_aftertouch_c, 14, 1
15, 15806, Channel_aftertouch_c, 14, 0
15, 15841, Note_off_c, 14, 57, 118
15, 15848, Note_off_c, 14, 54, 113
15, 15864, Note_on_c, 14, 54, 86
15, 15864, Note_on_c, 14, 57, 109
15, 15874, Channel_aftertouch_c, 14, 3
15, 15875, Channel_aftertouch_c, 14, 0
15, 15878, Note_off_c, 14, 54, 127
15, 15879, Note_off_c, 14, 57, 115
15, 15888, Note_on_c, 14, 57, 109
15, 15888, Note_on_c, 14, 54, 78
15, 15901, Note_off_c, 14, 54, 127
15, 15906, Note_off_c, 14, 57, 126
15, 15936, Note_on_c, 14, 54, 94
15, 15936, Note_on_c, 14, 57, 109
15, 15936, Note_on_c, 14, 58, 63
15, 15938, Note_off_c, 14, 58, 122
15, 15941, Channel_aftertouch_c, 14, 1
15, 15943, Channel_aftertouch_c, 14, 3
15, 15944, Channel_aftertouch_c, 14, 0
15, 15984, Note_on_c, 14, 55, 85
15, 15984, Note_on_c, 14, 59, 105
15, 15986, Note_off_c, 14, 54, 103
15, 15989, Note_off_c, 14, 57, 118
15, 16000, Note_off_c, 14, 59, 126
15, 16003, Note_off_c, 14, 55, 108
15, 16032, Note_on_c, 14, 59, 109
15, 16032, Note_on_c, 14, 55, 90
15, 16047, Note_off_c, 14, 55, 111
15, 16047, Note_off_c, 14, 59, 118
15, 16080, Note_on_c, 14, 55, 100
15, 16080, Note_on_c, 14, 59, 112
15, 16125, Note_off_c, 14, 55, 118
15, 16147, Note_off_c, 14, 59, 120
15, 16176, Note_on_c, 14, 62, 109
15, 16176, Note_on_c, 14, 59, 63
15, 16219, Note_off_c, 14, 59, 88
15, 16241, Note_off_c, 14, 62, 86
15, 16248, Note_on_c, 14, 62, 109
15, 16248, Note_on_c, 14, 59, 85
15, 16256, Note_off_c, 14, 59, 120
15, 16267, Note_off_c, 14, 62, 94
15, 16272, Note_on_c, 14, 62, 109
15, 16272, Note_on_c, 14, 59, 100
15, 16294, Note_off_c, 14, 62, 115
15, 16315, Note_off_c, 14, 59, 103
15, 16320, Note_on_c, 14, 61, 94
15, 16320, Note_on_c, 14, 64, 112
15, 16383, Note_off_c, 14, 61, 84
15, 16391, Note_off_c, 14, 64, 94
15, 16392, Note_on_c, 14, 62, 90
15, 16392, Note_on_c, 14, 66, 106
15, 16425, Note_off_c, 14, 66, 106
15, 16432, Note_off_c, 14, 62, 57
15, 16464, Note_on_c, 14, 66, 110
15, 16464, Note_on_c, 14, 62, 95
15, 16555, Note_off_c, 14, 62, 79
15, 16559, Note_off_c, 14, 66, 82
15, 16560, Note_on_c, 14, 54, 94
15, 16560, Note_on_c, 14, 57, 109
15, 16570, Channel_aftertouch_c, 14, 1
15, 16572, Channel_aftertouch_c, 14, 3
15, 16573, Channel_aftertouch_c, 14, 0
15, 16610, Note_off_c, 14, 57, 122
15, 16618, Note_off_c, 14, 54, 113
15, 16632, Note_on_c, 14, 57, 105
15, 16632, Note_on_c, 14, 54, 94
15, 16639, Channel_aftertouch_c, 14, 6
15, 16640, Channel_aftertouch_c, 14, 0
15, 16645, Note_off_c, 14, 54, 126
15, 16648, Note_off_c, 14, 57, 101
15, 16656, Note_on_c, 14, 57, 109
15, 16656, Note_on_c, 14, 54, 78
15, 16669, Note_off_c, 14, 54, 127
15, 16673, Note_off_c, 14, 57, 124
15, 16704, Note_on_c, 14, 54, 94
15, 16704, Note_on_c, 14, 57, 109
15, 16751, Note_off_c, 14, 54, 96
15, 16752, Note_off_c, 14, 57, 115
15, 16752, Note_on_c, 14, 59, 95
15, 16752, Note_on_c, 14, 55, 85
15, 16769, Note_off_c, 14, 55, 108
15, 16769, Note_off_c, 14, 59, 122
15, 16800, Note_on_c, 14, 55, 85
15, 16800, Note_on_c, 14, 59, 112
15, 16815, Note_off_c, 14, 59, 126
15, 16819, Note_off_c, 14, 55, 106
15, 16848, Note_on_c, 14, 59, 109
15, 16848, Note_on_c, 14, 55, 95
15, 16906, Note_off_c, 14, 55, 111
15, 16931, Note_off_c, 14, 59, 73
15, 16944, Note_on_c, 14, 59, 100
15, 16944, Note_on_c, 14, 62, 105
15, 16998, Note_off_c, 14, 62, 90
15, 16998, Note_off_c, 14, 59, 113
15, 17016, Note_on_c, 14, 59, 90
15, 17016, Note_on_c, 14, 62, 105
15, 17026, Note_off_c, 14, 59, 118
15, 17034, Note_off_c, 14, 62, 69
15, 17040, Note_on_c, 14, 62, 109
15, 17040, Note_on_c, 14, 59, 95
15, 17067, Note_off_c, 14, 62, 115
15, 17088, Note_off_c, 14, 59, 96
15, 17088, Note_on_c, 14, 61, 101
15, 17088, Note_on_c, 14, 64, 109
15, 17093, Channel_aftertouch_c, 14, 5
15, 17094, Channel_aftertouch_c, 14, 12
15, 17096, Channel_aftertouch_c, 14, 10
15, 17097, Channel_aftertouch_c, 14, 7
15, 17100, Channel_aftertouch_c, 14, 2
15, 17102, Channel_aftertouch_c, 14, 0
15, 17160, Note_off_c, 14, 61, 101
15, 17160, Note_on_c, 14, 66, 101
15, 17160, Note_on_c, 14, 62, 90
15, 17161, Note_off_c, 14, 64, 62
15, 17183, Note_off_c, 14, 62, 86
15, 17199, Note_off_c, 14, 66, 101
15, 17232, Note_on_c, 14, 66, 106
15, 17232, Note_on_c, 14, 62, 81
15, 17321, Note_off_c, 14, 62, 90
15, 17327, Note_off_c, 14, 66, 96
15, 17328, Note_on_c, 14, 54, 101
15, 17328, Note_on_c, 14, 57, 112
15, 17335, Channel_aftertouch_c, 14, 15
15, 17336, Channel_aftertouch_c, 14, 9
15, 17338, Channel_aftertouch_c, 14, 0
15, 17379, Note_off_c, 14, 57, 96
15, 17386, Note_off_c, 14, 54, 120
15, 17400, Note_on_c, 14, 57, 109
15, 17400, Note_on_c, 14, 54, 94
15, 17409, Channel_aftertouch_c, 14, 3
15, 17410, Channel_aftertouch_c, 14, 0
15, 17412, Note_off_c, 14, 54, 127
15, 17415, Note_off_c, 14, 57, 106
15, 17424, Note_on_c, 14, 57, 109
15, 17424, Note_on_c, 14, 54, 101
15, 17438, Note_off_c, 14, 54, 127
15, 17439, Note_off_c, 14, 57, 126
15, 17472, Note_on_c, 14, 54, 101
15, 17472, Note_on_c, 14, 57, 109
15, 17477, Channel_aftertouch_c, 14, 1
15, 17478, Channel_aftertouch_c, 14, 8
15, 17480, Channel_aftertouch_c, 14, 2
15, 17481, Channel_aftertouch_c, 14, 0
15, 17520, Note_off_c, 14, 54, 99
15, 17520, Note_on_c, 14, 55, 105
15, 17520, Note_on_c, 14, 59, 105
15, 17524, Note_off_c, 14, 57, 115
15, 17535, Note_off_c, 14, 59, 127
15, 17538, Note_off_c, 14, 55, 111
15, 17568, Note_on_c, 14, 55, 100
15, 17568, Note_on_c, 14, 59, 112
15, 17583, Note_off_c, 14, 59, 124
15, 17585, Note_off_c, 14, 55, 108
15, 17616, Note_on_c, 14, 55, 105
15, 17616, Note_on_c, 14, 59, 112
15, 17655, Note_off_c, 14, 59, 94
15, 17661, Note_off_c, 14, 55, 113
15, 17664, Note_on_c, 14, 57, 89
15, 17664, Note_on_c, 14, 52, 92
15, 17712, Note_on_c, 14, 74, 65
15, 17734, Note_off_c, 14, 52, 86
15, 17736, Note_off_c, 14, 57, 88
15, 18027, Note_off_c, 14, 74, 55
15, 18096, Note_on_c, 14, 74, 65
15, 18409, Note_off_c, 14, 74, 75
15, 18480, Note_on_c, 14, 74, 65
15, 18802, Note_off_c, 14, 74, 86
15, 18864, Note_on_c, 14, 74, 65
15, 19174, Note_off_c, 14, 74, 73
15, 19248, Note_on_c, 14, 74, 65
15, 19557, Note_off_c, 14, 74, 79
15, 19632, Note_on_c, 14, 74, 65
15, 19938, Note_off_c, 14, 74, 86
15, 20016, Note_on_c, 14, 74, 65
15, 20327, Note_off_c, 14, 74, 77
15, 20400, Note_on_c, 14, 74, 65
15, 20654, Note_off_c, 14, 74, 88
15, 23856, Note_on_c, 14, 59, 90
15, 23856, Note_on_c, 14, 62, 112
15, 23906, Note_off_c, 14, 59, 106
15, 23918, Note_off_c, 14, 62, 115
15, 23928, Note_on_c, 14, 59, 95
15, 23928, Note_on_c, 14, 62, 109
15, 23937, Note_off_c, 14, 62, 124
15, 23938, Note_off_c, 14, 59, 96
15, 23952, Note_on_c, 14, 62, 105
15, 23952, Note_on_c, 14, 59, 95
15, 23960, Channel_aftertouch_c, 14, 1
15, 23961, Channel_aftertouch_c, 14, 0
15, 23964, Channel_aftertouch_c, 14, 5
15, 23966, Channel_aftertouch_c, 14, 10
15, 23967, Channel_aftertouch_c, 14, 1
15, 23969, Channel_aftertouch_c, 14, 0
15, 23991, Note_off_c, 14, 62, 66
15, 23995, Note_off_c, 14, 59, 96
15, 24000, Note_on_c, 14, 64, 109
15, 24000, Note_on_c, 14, 61, 101
15, 24060, Note_off_c, 14, 61, 61
15, 24072, Note_on_c, 14, 62, 85
15, 24072, Note_on_c, 14, 66, 101
15, 24079, Note_off_c, 14, 64, 103
15, 24103, Note_off_c, 14, 66, 103
15, 24103, Note_off_c, 14, 62, 56
15, 24144, Note_on_c, 14, 66, 106
15, 24144, Note_on_c, 14, 62, 95
15, 24235, Note_off_c, 14, 62, 75
15, 24240, Note_on_c, 14, 54, 94
15, 24240, Note_on_c, 14, 57, 109
15, 24245, Note_off_c, 14, 66, 106
15, 24251, Channel_aftertouch_c, 14, 3
15, 24252, Channel_aftertouch_c, 14, 0
15, 24292, Note_off_c, 14, 57, 113
15, 24300, Note_off_c, 14, 54, 124
15, 24312, Note_on_c, 14, 57, 105
15, 24312, Note_on_c, 14, 54, 78
15, 24323, Note_off_c, 14, 57, 118
15, 24325, Note_off_c, 14, 54, 124
15, 24336, Note_on_c, 14, 57, 105
15, 24336, Note_on_c, 14, 54, 78
15, 24341, Channel_aftertouch_c, 14, 3
15, 24342, Channel_aftertouch_c, 14, 0
15, 24344, Channel_aftertouch_c, 14, 2
15, 24345, Channel_aftertouch_c, 14, 0
15, 24346, Note_off_c, 14, 54, 127
15, 24349, Note_off_c, 14, 57, 126
15, 24384, Note_on_c, 14, 54, 94
15, 24384, Note_on_c, 14, 57, 112
15, 24387, Channel_aftertouch_c, 14, 6
15, 24389, Channel_aftertouch_c, 14, 11
15, 24390, Channel_aftertouch_c, 14, 14
15, 24392, Channel_aftertouch_c, 14, 10
15, 24393, Channel_aftertouch_c, 14, 3
15, 24395, Channel_aftertouch_c, 14, 1
15, 24396, Channel_aftertouch_c, 14, 0
15, 24428, Note_off_c, 14, 54, 113
15, 24432, Note_on_c, 14, 55, 85
15, 24432, Note_on_c, 14, 59, 112
15, 24436, Note_off_c, 14, 57, 84
15, 24448, Note_off_c, 14, 59, 124
15, 24451, Note_off_c, 14, 55, 108
15, 24480, Note_on_c, 14, 59, 112
15, 24480, Note_on_c, 14, 55, 85
15, 24492, Note_off_c, 14, 55, 108
15, 24494, Note_off_c, 14, 59, 122
15, 24528, Note_on_c, 14, 55, 90
15, 24528, Note_on_c, 14, 59, 112
15, 24591, Note_off_c, 14, 59, 118
15, 24594, Note_off_c, 14, 55, 118
15, 24624, Note_on_c, 14, 59, 95
15, 24624, Note_on_c, 14, 62, 112
15, 24679, Note_off_c, 14, 62, 80
15, 24682, Note_off_c, 14, 59, 108
15, 24696, Note_on_c, 14, 62, 109
15, 24696, Note_on_c, 14, 59, 81
15, 24707, Note_off_c, 14, 59, 124
15, 24712, Note_off_c, 14, 62, 99
15, 24720, Note_on_c, 14, 62, 109
15, 24720, Channel_aftertouch_c, 14, 2
15, 24720, Note_on_c, 14, 59, 95
15, 24723, Channel_aftertouch_c, 14, 0
15, 24753, Note_off_c, 14, 62, 124
15, 24766, Note_off_c, 14, 59, 108
15, 24768, Note_on_c, 14, 64, 109
15, 24768, Note_on_c, 14, 61, 101
15, 24774, Channel_aftertouch_c, 14, 12
15, 24776, Channel_aftertouch_c, 14, 19
15, 24779, Channel_aftertouch_c, 14, 17
15, 24780, Channel_aftertouch_c, 14, 14
15, 24782, Channel_aftertouch_c, 14, 10
15, 24783, Channel_aftertouch_c, 14, 7
15, 24785, Channel_aftertouch_c, 14, 5
15, 24786, Channel_aftertouch_c, 14, 0
15, 24829, Note_off_c, 14, 61, 88
15, 24838, Note_off_c, 14, 64, 108
15, 24840, Note_on_c, 14, 62, 77
15, 24840, Note_on_c, 14, 66, 110
15, 24872, Note_off_c, 14, 62, 75
15, 24881, Note_off_c, 14, 66, 108
15, 24912, Note_on_c, 14, 62, 85
15, 24912, Note_on_c, 14, 66, 106
15, 25007, Note_off_c, 14, 62, 90
15, 25008, Note_on_c, 14, 54, 101
15, 25008, Note_on_c, 14, 57, 109
15, 25014, Note_off_c, 14, 66, 101
15, 25019, Channel_aftertouch_c, 14, 2
15, 25020, Channel_aftertouch_c, 14, 1
15, 25022, Channel_aftertouch_c, 14, 0
15, 25057, Note_off_c, 14, 57, 118
15, 25064, Note_off_c, 14, 54, 113
15, 25080, Note_on_c, 14, 54, 86
15, 25080, Note_on_c, 14, 57, 109
15, 25090, Channel_aftertouch_c, 14, 3
15, 25091, Channel_aftertouch_c, 14, 0
15, 25094, Note_off_c, 14, 54, 127
15, 25095, Note_off_c, 14, 57, 115
15, 25104, Note_on_c, 14, 57, 109
15, 25104, Note_on_c, 14, 54, 78
15, 25117, Note_off_c, 14, 54, 127
15, 25122, Note_off_c, 14, 57, 126
15, 25152, Note_on_c, 14, 54, 94
15, 25152, Note_on_c, 14, 57, 109
15, 25152, Note_on_c, 14, 58, 63
15, 25154, Note_off_c, 14, 58, 122
15, 25157, Channel_aftertouch_c, 14, 1
15, 25159, Channel_aftertouch_c, 14, 3
15, 25160, Channel_aftertouch_c, 14, 0
15, 25200, Note_on_c, 14, 55, 85
15, 25200, Note_on_c, 14, 59, 105
15, 25202, Note_off_c, 14, 54, 103
15, 25205, Note_off_c, 14, 57, 118
15, 25216, Note_off_c, 14, 59, 126
15, 25219, Note_off_c, 14, 55, 108
15, 25248, Note_on_c, 14, 59, 109
15, 25248, Note_on_c, 14, 55, 90
15, 25263, Note_off_c, 14, 55, 111
15, 25263, Note_off_c, 14, 59, 118
15, 25296, Note_on_c, 14, 55, 100
15, 25296, Note_on_c, 14, 59, 112
15, 25341, Note_off_c, 14, 55, 118
15, 25363, Note_off_c, 14, 59, 120
15, 25392, Note_on_c, 14, 62, 109
15, 25392, Note_on_c, 14, 59, 63
15, 25435, Note_off_c, 14, 59, 88
15, 25457, Note_off_c, 14, 62, 86
15, 25464, Note_on_c, 14, 62, 109
15, 25464, Note_on_c, 14, 59, 85
15, 25472, Note_off_c, 14, 59, 120
15, 25483, Note_off_c, 14, 62, 94
15, 25488, Note_on_c, 14, 62, 109
15, 25488, Note_on_c, 14, 59, 100
15, 25510, Note_off_c, 14, 62, 115
15, 25531, Note_off_c, 14, 59, 103
15, 25536, Note_on_c, 14, 61, 94
15, 25536, Note_on_c, 14, 64, 112
15, 25599, Note_off_c, 14, 61, 84
15, 25607, Note_off_c, 14, 64, 94
15, 25608, Note_on_c, 14, 62, 90
15, 25608, Note_on_c, 14, 66, 106
15, 25641, Note_off_c, 14, 66, 106
15, 25648, Note_off_c, 14, 62, 57
15, 25680, Note_on_c, 14, 66, 110
15, 25680, Note_on_c, 14, 62, 95
15, 25771, Note_off_c, 14, 62, 79
15, 25775, Note_off_c, 14, 66, 82
15, 25776, Note_on_c, 14, 54, 94
15, 25776, Note_on_c, 14, 57, 109
15, 25786, Channel_aftertouch_c, 14, 1
15, 25788, Channel_aftertouch_c, 14, 3
15, 25789, Channel_aftertouch_c, 14, 0
15, 25826, Note_off_c, 14, 57, 122
15, 25834, Note_off_c, 14, 54, 113
15, 25848, Note_on_c, 14, 57, 105
15, 25848, Note_on_c, 14, 54, 94
15, 25855, Channel_aftertouch_c, 14, 6
15, 25856, Channel_aftertouch_c, 14, 0
15, 25861, Note_off_c, 14, 54, 126
15, 25864, Note_off_c, 14, 57, 101
15, 25872, Note_on_c, 14, 57, 109
15, 25872, Note_on_c, 14, 54, 78
15, 25885, Note_off_c, 14, 54, 127
15, 25889, Note_off_c, 14, 57, 124
15, 25920, Note_on_c, 14, 54, 94
15, 25920, Note_on_c, 14, 57, 109
15, 25967, Note_off_c, 14, 54, 96
15, 25968, Note_off_c, 14, 57, 115
15, 25968, Note_on_c, 14, 59, 95
15, 25968, Note_on_c, 14, 55, 85
15, 25985, Note_off_c, 14, 55, 108
15, 25985, Note_off_c, 14, 59, 122
15, 26016, Note_on_c, 14, 55, 85
15, 26016, Note_on_c, 14, 59, 112
15, 26031, Note_off_c, 14, 59, 126
15, 26035, Note_off_c, 14, 55, 106
15, 26064, Note_on_c, 14, 59, 109
15, 26064, Note_on_c, 14, 55, 95
15, 26122, Note_off_c, 14, 55, 111
15, 26147, Note_off_c, 14, 59, 73
15, 26160, Note_on_c, 14, 59, 100
15, 26160, Note_on_c, 14, 62, 105
15, 26214, Note_off_c, 14, 62, 90
15, 26214, Note_off_c, 14, 59, 113
15, 26232, Note_on_c, 14, 59, 90
15, 26232, Note_on_c, 14, 62, 105
15, 26242, Note_off_c, 14, 59, 118
15, 26250, Note_off_c, 14, 62, 69
15, 26256, Note_on_c, 14, 62, 109
15, 26256, Note_on_c, 14, 59, 95
15, 26283, Note_off_c, 14, 62, 115
15, 26304, Note_off_c, 14, 59, 96
15, 26304, Note_on_c, 14, 61, 101
15, 26304, Note_on_c, 14, 64, 109
15, 26309, Channel_aftertouch_c, 14, 5
15, 26310, Channel_aftertouch_c, 14, 12
15, 26312, Channel_aftertouch_c, 14, 10
15, 26313, Channel_aftertouch_c, 14, 7
15, 26316, Channel_aftertouch_c, 14, 2
15, 26318, Channel_aftertouch_c, 14, 0
15, 26376, Note_off_c, 14, 61, 101
15, 26376, Note_on_c, 14, 66, 101
15, 26376, Note_on_c, 14, 62, 90
15, 26377, Note_off_c, 14, 64, 62
15, 26399, Note_off_c, 14, 62, 86
15, 26415, Note_off_c, 14, 66, 101
15, 26448, Note_on_c, 14, 66, 106
15, 26448, Note_on_c, 14, 62, 81
15, 26537, Note_off_c, 14, 62, 90
15, 26543, Note_off_c, 14, 66, 96
15, 26544, Note_on_c, 14, 54, 101
15, 26544, Note_on_c, 14, 57, 112
15, 26551, Channel_aftertouch_c, 14, 15
15, 26552, Channel_aftertouch_c, 14, 9
15, 26554, Channel_aftertouch_c, 14, 0
15, 26595, Note_off_c, 14, 57, 96
15, 26602, Note_off_c, 14, 54, 120
15, 26616, Note_on_c, 14, 57, 109
15, 26616, Note_on_c, 14, 54, 94
15, 26625, Channel_aftertouch_c, 14, 3
15, 26626, Channel_aftertouch_c, 14, 0
15, 26628, Note_off_c, 14, 54, 127
15, 26631, Note_off_c, 14, 57, 106
15, 26640, Note_on_c, 14, 57, 109
15, 26640, Note_on_c, 14, 54, 101
15, 26654, Note_off_c, 14, 54, 127
15, 26655, Note_off_c, 14, 57, 126
15, 26688, Note_on_c, 14, 54, 101
15, 26688, Note_on_c, 14, 57, 109
15, 26693, Channel_aftertouch_c, 14, 1
15, 26694, Channel_aftertouch_c, 14, 8
15, 26696, Channel_aftertouch_c, 14, 2
15, 26697, Channel_aftertouch_c, 14, 0
15, 26736, Note_off_c, 14, 54, 99
15, 26736, Note_on_c, 14, 55, 105
15, 26736, Note_on_c, 14, 59, 105
15, 26740, Note_off_c, 14, 57, 115
15, 26751, Note_off_c, 14, 59, 127
15, 26754, Note_off_c, 14, 55, 111
15, 26784, Note_on_c, 14, 55, 100
15, 26784, Note_on_c, 14, 59, 112
15, 26799, Note_off_c, 14, 59, 124
15, 26801, Note_off_c, 14, 55, 108
15, 26832, Note_on_c, 14, 55, 105
15, 26832, Note_on_c, 14, 59, 112
15, 26871, Note_off_c, 14, 59, 94
15, 26877, Note_off_c, 14, 55, 113
15, 26928, Note_on_c, 14, 59, 90
15, 26928, Note_on_c, 14, 62, 112
15, 26978, Note_off_c, 14, 59, 106
15, 26990, Note_off_c, 14, 62, 115
15, 27000, Note_on_c, 14, 59, 95
15, 27000, Note_on_c, 14, 62, 109
15, 27009, Note_off_c, 14, 62, 124
15, 27010, Note_off_c, 14, 59, 96
15, 27024, Note_on_c, 14, 62, 105
15, 27024, Note_on_c, 14, 59, 95
15, 27032, Channel_aftertouch_c, 14, 1
15, 27033, Channel_aftertouch_c, 14, 0
15, 27036, Channel_aftertouch_c, 14, 5
15, 27038, Channel_aftertouch_c, 14, 10
15, 27039, Channel_aftertouch_c, 14, 1
15, 27041, Channel_aftertouch_c, 14, 0
15, 27063, Note_off_c, 14, 62, 66
15, 27067, Note_off_c, 14, 59, 96
15, 27072, Note_on_c, 14, 64, 109
15, 27072, Note_on_c, 14, 61, 101
15, 27132, Note_off_c, 14, 61, 61
15, 27144, Note_on_c, 14, 62, 85
15, 27144, Note_on_c, 14, 66, 101
15, 27151, Note_off_c, 14, 64, 103
15, 27175, Note_off_c, 14, 66, 103
15, 27175, Note_off_c, 14, 62, 56
15, 27216, Note_on_c, 14, 66, 106
15, 27216, Note_on_c, 14, 62, 95
15, 27307, Note_off_c, 14, 62, 75
15, 27312, Note_on_c, 14, 54, 94
15, 27312, Note_on_c, 14, 57, 109
15, 27317, Note_off_c, 14, 66, 106
15, 27323, Channel_aftertouch_c, 14, 3
15, 27324, Channel_aftertouch_c, 14, 0
15, 27364, Note_off_c, 14, 57, 113
15, 27372, Note_off_c, 14, 54, 124
15, 27384, Note_on_c, 14, 57, 105
15, 27384, Note_on_c, 14, 54, 78
15, 27395, Note_off_c, 14, 57, 118
15, 27397, Note_off_c, 14, 54, 124
15, 27408, Note_on_c, 14, 57, 105
15, 27408, Note_on_c, 14, 54, 78
15, 27413, Channel_aftertouch_c, 14, 3
15, 27414, Channel_aftertouch_c, 14, 0
15, 27416, Channel_aftertouch_c, 14, 2
15, 27417, Channel_aftertouch_c, 14, 0
15, 27418, Note_off_c, 14, 54, 127
15, 27421, Note_off_c, 14, 57, 126
15, 27456, Note_on_c, 14, 54, 94
15, 27456, Note_on_c, 14, 57, 112
15, 27459, Channel_aftertouch_c, 14, 6
15, 27461, Channel_aftertouch_c, 14, 11
15, 27462, Channel_aftertouch_c, 14, 14
15, 27464, Channel_aftertouch_c, 14, 10
15, 27465, Channel_aftertouch_c, 14, 3
15, 27467, Channel_aftertouch_c, 14, 1
15, 27468, Channel_aftertouch_c, 14, 0
15, 27500, Note_off_c, 14, 54, 113
15, 27504, Note_on_c, 14, 55, 85
15, 27504, Note_on_c, 14, 59, 112
15, 27508, Note_off_c, 14, 57, 84
15, 27520, Note_off_c, 14, 59, 124
15, 27523, Note_off_c, 14, 55, 108
15, 27552, Note_on_c, 14, 59, 112
15, 27552, Note_on_c, 14, 55, 85
15, 27564, Note_off_c, 14, 55, 108
15, 27566, Note_off_c, 14, 59, 122
15, 27600, Note_on_c, 14, 55, 90
15, 27600, Note_on_c, 14, 59, 112
15, 27663, Note_off_c, 14, 59, 118
15, 27666, Note_off_c, 14, 55, 118
15, 27696, Note_on_c, 14, 59, 95
15, 27696, Note_on_c, 14, 62, 112
15, 27751, Note_off_c, 14, 62, 80
15, 27754, Note_off_c, 14, 59, 108
15, 27768, Note_on_c, 14, 62, 109
15, 27768, Note_on_c, 14, 59, 81
15, 27779, Note_off_c, 14, 59, 124
15, 27784, Note_off_c, 14, 62, 99
15, 27792, Note_on_c, 14, 62, 109
15, 27792, Channel_aftertouch_c, 14, 2
15, 27792, Note_on_c, 14, 59, 95
15, 27795, Channel_aftertouch_c, 14, 0
15, 27825, Note_off_c, 14, 62, 124
15, 27838, Note_off_c, 14, 59, 108
15, 27840, Note_on_c, 14, 64, 109
15, 27840, Note_on_c, 14, 61, 101
15, 27846, Channel_aftertouch_c, 14, 12
15, 27848, Channel_aftertouch_c, 14, 19
15, 27851, Channel_aftertouch_c, 14, 17
15, 27852, Channel_aftertouch_c, 14, 14
15, 27854, Channel_aftertouch_c, 14, 10
15, 27855, Channel_aftertouch_c, 14, 7
15, 27857, Channel_aftertouch_c, 14, 5
15, 27858, Channel_aftertouch_c, 14, 0
15, 27901, Note_off_c, 14, 61, 88
15, 27910, Note_off_c, 14, 64, 108
15, 27912, Note_on_c, 14, 62, 77
15, 27912, Note_on_c, 14, 66, 110
15, 27944, Note_off_c, 14, 62, 75
15, 27953, Note_off_c, 14, 66, 108
15, 27984, Note_on_c, 14, 62, 85
15, 27984, Note_on_c, 14, 66, 106
15, 28079, Note_off_c, 14, 62, 90
15, 28080, Note_on_c, 14, 54, 101
15, 28080, Note_on_c, 14, 57, 109
15, 28086, Note_off_c, 14, 66, 101
15, 28091, Channel_aftertouch_c, 14, 2
15, 28092, Channel_aftertouch_c, 14, 1
15, 28094, Channel_aftertouch_c, 14, 0
15, 28129, Note_off_c, 14, 57, 118
15, 28136, Note_off_c, 14, 54, 113
15, 28152, Note_on_c, 14, 54, 86
15, 28152, Note_on_c, 14, 57, 109
15, 28162, Channel_aftertouch_c, 14, 3
15, 28163, Channel_aftertouch_c, 14, 0
15, 28166, Note_off_c, 14, 54, 127
15, 28167, Note_off_c, 14, 57, 115
15, 28176, Note_on_c, 14, 57, 109
15, 28176, Note_on_c, 14, 54, 78
15, 28189, Note_off_c, 14, 54, 127
15, 28194, Note_off_c, 14, 57, 126
15, 28224, Note_on_c, 14, 54, 94
15, 28224, Note_on_c, 14, 57, 109
15, 28224, Note_on_c, 14, 58, 63
15, 28226, Note_off_c, 14, 58, 122
15, 28229, Channel_aftertouch_c, 14, 1
15, 28231, Channel_aftertouch_c, 14, 3
15, 28232, Channel_aftertouch_c, 14, 0
15, 28272, Note_on_c, 14, 55, 85
15, 28272, Note_on_c, 14, 59, 105
15, 28274, Note_off_c, 14, 54, 103
15, 28277, Note_off_c, 14, 57, 118
15, 28288, Note_off_c, 14, 59, 126
15, 28291, Note_off_c, 14, 55, 108
15, 28320, Note_on_c, 14, 59, 109
15, 28320, Note_on_c, 14, 55, 90
15, 28335, Note_off_c, 14, 55, 111
15, 28335, Note_off_c, 14, 59, 118
15, 28368, Note_on_c, 14, 55, 100
15, 28368, Note_on_c, 14, 59, 112
15, 28413, Note_off_c, 14, 55, 118
15, 28435, Note_off_c, 14, 59, 120
15, 28464, Note_on_c, 14, 62, 109
15, 28464, Note_on_c, 14, 59, 63
15, 28507, Note_off_c, 14, 59, 88
15, 28529, Note_off_c, 14, 62, 86
15, 28536, Note_on_c, 14, 62, 109
15, 28536, Note_on_c, 14, 59, 85
15, 28544, Note_off_c, 14, 59, 120
15, 28555, Note_off_c, 14, 62, 94
15, 28560, Note_on_c, 14, 62, 109
15, 28560, Note_on_c, 14, 59, 100
15, 28582, Note_off_c, 14, 62, 115
15, 28603, Note_off_c, 14, 59, 103
15, 28608, Note_on_c, 14, 61, 94
15, 28608, Note_on_c, 14, 64, 112
15, 28671, Note_off_c, 14, 61, 84
15, 28679, Note_off_c, 14, 64, 94
15, 28680, Note_on_c, 14, 62, 90
15, 28680, Note_on_c, 14, 66, 106
15, 28713, Note_off_c, 14, 66, 106
15, 28720, Note_off_c, 14, 62, 57
15, 28752, Note_on_c, 14, 66, 110
15, 28752, Note_on_c, 14, 62, 95
15, 28843, Note_off_c, 14, 62, 79
15, 28847, Note_off_c, 14, 66, 82
15, 28848, Note_on_c, 14, 54, 94
15, 28848, Note_on_c, 14, 57, 109
15, 28858, Channel_aftertouch_c, 14, 1
15, 28860, Channel_aftertouch_c, 14, 3
15, 28861, Channel_aftertouch_c, 14, 0
15, 28898, Note_off_c, 14, 57, 122
15, 28906, Note_off_c, 14, 54, 113
15, 28920, Note_on_c, 14, 57, 105
15, 28920, Note_on_c, 14, 54, 94
15, 28927, Channel_aftertouch_c, 14, 6
15, 28928, Channel_aftertouch_c, 14, 0
15, 28933, Note_off_c, 14, 54, 126
15, 28936, Note_off_c, 14, 57, 101
15, 28944, Note_on_c, 14, 57, 109
15, 28944, Note_on_c, 14, 54, 78
15, 28957, Note_off_c, 14, 54, 127
15, 28961, Note_off_c, 14, 57, 124
15, 28992, Note_on_c, 14, 54, 94
15, 28992, Note_on_c, 14, 57, 109
15, 29039, Note_off_c, 14, 54, 96
15, 29040, Note_off_c, 14, 57, 115
15, 29040, Note_on_c, 14, 59, 95
15, 29040, Note_on_c, 14, 55, 85
15, 29057, Note_off_c, 14, 55, 108
15, 29057, Note_off_c, 14, 59, 122
15, 29088, Note_on_c, 14, 55, 85
15, 29088, Note_on_c, 14, 59, 112
15, 29103, Note_off_c, 14, 59, 126
15, 29107, Note_off_c, 14, 55, 106
15, 29136, Note_on_c, 14, 59, 109
15, 29136, Note_on_c, 14, 55, 95
15, 29194, Note_off_c, 14, 55, 111
15, 29219, Note_off_c, 14, 59, 73
15, 29232, Note_on_c, 14, 59, 100
15, 29232, Note_on_c, 14, 62, 105
15, 29286, Note_off_c, 14, 62, 90
15, 29286, Note_off_c, 14, 59, 113
15, 29304, Note_on_c, 14, 59, 90
15, 29304, Note_on_c, 14, 62, 105
15, 29314, Note_off_c, 14, 59, 118
15, 29322, Note_off_c, 14, 62, 69
15, 29328, Note_on_c, 14, 62, 109
15, 29328, Note_on_c, 14, 59, 95
15, 29355, Note_off_c, 14, 62, 115
15, 29376, Note_off_c, 14, 59, 96
15, 29376, Note_on_c, 14, 61, 101
15, 29376, Note_on_c, 14, 64, 109
15, 29381, Channel_aftertouch_c, 14, 5
15, 29382, Channel_aftertouch_c, 14, 12
15, 29384, Channel_aftertouch_c, 14, 10
15, 29385, Channel_aftertouch_c, 14, 7
15, 29388, Channel_aftertouch_c, 14, 2
15, 29390, Channel_aftertouch_c, 14, 0
15, 29448, Note_off_c, 14, 61, 101
15, 29448, Note_on_c, 14, 66, 101
15, 29448, Note_on_c, 14, 62, 90
15, 29449, Note_off_c, 14, 64, 62
15, 29471, Note_off_c, 14, 62, 86
15, 29487, Note_off_c, 14, 66, 101
15, 29520, Note_on_c, 14, 66, 106
15, 29520, Note_on_c, 14, 62, 81
15, 29609, Note_off_c, 14, 62, 90
15, 29615, Note_off_c, 14, 66, 96
15, 29616, Note_on_c, 14, 54, 101
15, 29616, Note_on_c, 14, 57, 112
15, 29623, Channel_aftertouch_c, 14, 15
15, 29624, Channel_aftertouch_c, 14, 9
15, 29626, Channel_aftertouch_c, 14, 0
15, 29667, Note_off_c, 14, 57, 96
15, 29674, Note_off_c, 14, 54, 120
15, 29688, Note_on_c, 14, 57, 109
15, 29688, Note_on_c, 14, 54, 94
15, 29697, Channel_aftertouch_c, 14, 3
15, 29698, Channel_aftertouch_c, 14, 0
15, 29700, Note_off_c, 14, 54, 127
15, 29703, Note_off_c, 14, 57, 106
15, 29712, Note_on_c, 14, 57, 109
15, 29712, Note_on_c, 14, 54, 101
15, 29726, Note_off_c, 14, 54, 127
15, 29727, Note_off_c, 14, 57, 126
15, 29760, Note_on_c, 14, 54, 101
15, 29760, Note_on_c, 14, 57, 109
15, 29765, Channel_aftertouch_c, 14, 1
15, 29766, Channel_aftertouch_c, 14, 8
15, 29768, Channel_aftertouch_c, 14, 2
15, 29769, Channel_aftertouch_c, 14, 0
15, 29808, Note_off_c, 14, 54, 99
15, 29808, Note_on_c, 14, 55, 105
15, 29808, Note_on_c, 14, 59, 105
15, 29812, Note_off_c, 14, 57, 115
15, 29823, Note_off_c, 14, 59, 127
15, 29826, Note_off_c, 14, 55, 111
15, 29856, Note_on_c, 14, 55, 100
15, 29856, Note_on_c, 14, 59, 112
15, 29871, Note_off_c, 14, 59, 124
15, 29873, Note_off_c, 14, 55, 108
15, 29904, Note_on_c, 14, 55, 105
15, 29904, Note_on_c, 14, 59, 112
15, 29943, Note_off_c, 14, 59, 94
15, 29949, Note_off_c, 14, 55, 113
15, 29952, Note_on_c, 14, 57, 89
15, 29952, Note_on_c, 14, 52, 96
15, 30022, Note_off_c, 14, 52, 84
15, 30027, Note_off_c, 14, 57, 65
15, 33072, Note_on_c, 14, 59, 90
15, 33072, Note_on_c, 14, 62, 112
15, 33122, Note_off_c, 14, 59, 106
15, 33134, Note_off_c, 14, 62, 115
15, 33144, Note_on_c, 14, 59, 95
15, 33144, Note_on_c, 14, 62, 109
15, 33153, Note_off_c, 14, 62, 124
15, 33154, Note_off_c, 14, 59, 96
15, 33168, Note_on_c, 14, 62, 105
15, 33168, Note_on_c, 14, 59, 95
15, 33176, Channel_aftertouch_c, 14, 1
15, 33177, Channel_aftertouch_c, 14, 0
15, 33180, Channel_aftertouch_c, 14, 5
15, 33182, Channel_aftertouch_c, 14, 10
15, 33183, Channel_aftertouch_c, 14, 1
15, 33185, Channel_aftertouch_c, 14, 0
15, 33207, Note_off_c, 14, 62, 66
15, 33211, Note_off_c, 14, 59, 96
15, 33216, Note_on_c, 14, 64, 109
15, 33216, Note_on_c, 14, 61, 101
15, 33276, Note_off_c, 14, 61, 61
15, 33288, Note_on_c, 14, 62, 85
15, 33288, Note_on_c, 14, 66, 101
15, 33295, Note_off_c, 14, 64, 103
15, 33319, Note_off_c, 14, 66, 103
15, 33319, Note_off_c, 14, 62, 56
15, 33360, Note_on_c, 14, 66, 106
15, 33360, Note_on_c, 14, 62, 95
15, 33451, Note_off_c, 14, 62, 75
15, 33456, Note_on_c, 14, 54, 94
15, 33456, Note_on_c, 14, 57, 109
15, 33461, Note_off_c, 14, 66, 106
15, 33467, Channel_aftertouch_c, 14, 3
15, 33468, Channel_aftertouch_c, 14, 0
15, 33508, Note_off_c, 14, 57, 113
15, 33516, Note_off_c, 14, 54, 124
15, 33528, Note_on_c, 14, 57, 105
15, 33528, Note_on_c, 14, 54, 78
15, 33539, Note_off_c, 14, 57, 118
15, 33541, Note_off_c, 14, 54, 124
15, 33552, Note_on_c, 14, 57, 105
15, 33552, Note_on_c, 14, 54, 78
15, 33557, Channel_aftertouch_c, 14, 3
15, 33558, Channel_aftertouch_c, 14, 0
15, 33560, Channel_aftertouch_c, 14, 2
15, 33561, Channel_aftertouch_c, 14, 0
15, 33562, Note_off_c, 14, 54, 127
15, 33565, Note_off_c, 14, 57, 126
15, 33600, Note_on_c, 14, 54, 94
15, 33600, Note_on_c, 14, 57, 112
15, 33603, Channel_aftertouch_c, 14, 6
15, 33605, Channel_aftertouch_c, 14, 11
15, 33606, Channel_aftertouch_c, 14, 14
15, 33608, Channel_aftertouch_c, 14, 10
15, 33609, Channel_aftertouch_c, 14, 3
15, 33611, Channel_aftertouch_c, 14, 1
15, 33612, Channel_aftertouch_c, 14, 0
15, 33644, Note_off_c, 14, 54, 113
15, 33648, Note_on_c, 14, 55, 85
15, 33648, Note_on_c, 14, 59, 112
15, 33652, Note_off_c, 14, 57, 84
15, 33664, Note_off_c, 14, 59, 124
15, 33667, Note_off_c, 14, 55, 108
15, 33696, Note_on_c, 14, 59, 112
15, 33696, Note_on_c, 14, 55, 85
15, 33708, Note_off_c, 14, 55, 108
15, 33710, Note_off_c, 14, 59, 122
15, 33744, Note_on_c, 14, 55, 90
15, 33744, Note_on_c, 14, 59, 112
15, 33807, Note_off_c, 14, 59, 118
15, 33810, Note_off_c, 14, 55, 118
15, 33840, Note_on_c, 14, 59, 95
15, 33840, Note_on_c, 14, 62, 112
15, 33895, Note_off_c, 14, 62, 80
15, 33898, Note_off_c, 14, 59, 108
15, 33912, Note_on_c, 14, 62, 109
15, 33912, Note_on_c, 14, 59, 81
15, 33923, Note_off_c, 14, 59, 124
15, 33928, Note_off_c, 14, 62, 99
15, 33936, Note_on_c, 14, 62, 109
15, 33936, Channel_aftertouch_c, 14, 2
15, 33936, Note_on_c, 14, 59, 95
15, 33939, Channel_aftertouch_c, 14, 0
15, 33969, Note_off_c, 14, 62, 124
15, 33982, Note_off_c, 14, 59, 108
15, 33984, Note_on_c, 14, 64, 109
15, 33984, Note_on_c, 14, 61, 101
15, 33990, Channel_aftertouch_c, 14, 12
15, 33992, Channel_aftertouch_c, 14, 19
15, 33995, Channel_aftertouch_c, 14, 17
15, 33996, Channel_aftertouch_c, 14, 14
15, 33998, Channel_aftertouch_c, 14, 10
15, 33999, Channel_aftertouch_c, 14, 7
15, 34001, Channel_aftertouch_c, 14, 5
15, 34002, Channel_aftertouch_c, 14, 0
15, 34045, Note_off_c, 14, 61, 88
15, 34054, Note_off_c, 14, 64, 108
15, 34056, Note_on_c, 14, 62, 77
15, 34056, Note_on_c, 14, 66, 110
15, 34088, Note_off_c, 14, 62, 75
15, 34097, Note_off_c, 14, 66, 108
15, 34128, Note_on_c, 14, 62, 85
15, 34128, Note_on_c, 14, 66, 106
15, 34223, Note_off_c, 14, 62, 90
15, 34224, Note_on_c, 14, 54, 101
15, 34224, Note_on_c, 14, 57, 109
15, 34230, Note_off_c, 14, 66, 101
15, 34235, Channel_aftertouch_c, 14, 2
15, 34236, Channel_aftertouch_c, 14, 1
15, 34238, Channel_aftertouch_c, 14, 0
15, 34273, Note_off_c, 14, 57, 118
15, 34280, Note_off_c, 14, 54, 113
15, 34296, Note_on_c, 14, 54, 86
15, 34296, Note_on_c, 14, 57, 109
15, 34306, Channel_aftertouch_c, 14, 3
15, 34307, Channel_aftertouch_c, 14, 0
15, 34310, Note_off_c, 14, 54, 127
15, 34311, Note_off_c, 14, 57, 115
15, 34320, Note_on_c, 14, 57, 109
15, 34320, Note_on_c, 14, 54, 78
15, 34333, Note_off_c, 14, 54, 127
15, 34338, Note_off_c, 14, 57, 126
15, 34368, Note_on_c, 14, 54, 94
15, 34368, Note_on_c, 14, 57, 109
15, 34368, Note_on_c, 14, 58, 63
15, 34370, Note_off_c, 14, 58, 122
15, 34373, Channel_aftertouch_c, 14, 1
15, 34375, Channel_aftertouch_c, 14, 3
15, 34376, Channel_aftertouch_c, 14, 0
15, 34416, Note_on_c, 14, 55, 85
15, 34416, Note_on_c, 14, 59, 105
15, 34418, Note_off_c, 14, 54, 103
15, 34421, Note_off_c, 14, 57, 118
15, 34432, Note_off_c, 14, 59, 126
15, 34435, Note_off_c, 14, 55, 108
15, 34464, Note_on_c, 14, 59, 109
15, 34464, Note_on_c, 14, 55, 90
15, 34479, Note_off_c, 14, 55, 111
15, 34479, Note_off_c, 14, 59, 118
15, 34512, Note_on_c, 14, 55, 100
15, 34512, Note_on_c, 14, 59, 112
15, 34557, Note_off_c, 14, 55, 118
15, 34579, Note_off_c, 14, 59, 120
15, 34608, Note_on_c, 14, 62, 109
15, 34608, Note_on_c, 14, 59, 63
15, 34651, Note_off_c, 14, 59, 88
15, 34673, Note_off_c, 14, 62, 86
15, 34680, Note_on_c, 14, 62, 109
15, 34680, Note_on_c, 14, 59, 85
15, 34688, Note_off_c, 14, 59, 120
15, 34699, Note_off_c, 14, 62, 94
15, 34704, Note_on_c, 14, 62, 109
15, 34704, Note_on_c, 14, 59, 100
15, 34726, Note_off_c, 14, 62, 115
15, 34747, Note_off_c, 14, 59, 103
15, 34752, Note_on_c, 14, 61, 94
15, 34752, Note_on_c, 14, 64, 112
15, 34815, Note_off_c, 14, 61, 84
15, 34823, Note_off_c, 14, 64, 94
15, 34824, Note_on_c, 14, 62, 90
15, 34824, Note_on_c, 14, 66, 106
15, 34857, Note_off_c, 14, 66, 106
15, 34864, Note_off_c, 14, 62, 57
15, 34896, Note_on_c, 14, 66, 110
15, 34896, Note_on_c, 14, 62, 95
15, 34987, Note_off_c, 14, 62, 79
15, 34991, Note_off_c, 14, 66, 82
15, 34992, Note_on_c, 14, 54, 94
15, 34992, Note_on_c, 14, 57, 109
15, 35002, Channel_aftertouch_c, 14, 1
15, 35004, Channel_aftertouch_c, 14, 3
15, 35005, Channel_aftertouch_c, 14, 0
15, 35042, Note_off_c, 14, 57, 122
15, 35050, Note_off_c, 14, 54, 113
15, 35064, Note_on_c, 14, 57, 105
15, 35064, Note_on_c, 14, 54, 94
15, 35071, Channel_aftertouch_c, 14, 6
15, 35072, Channel_aftertouch_c, 14, 0
15, 35077, Note_off_c, 14, 54, 126
15, 35080, Note_off_c, 14, 57, 101
15, 35088, Note_on_c, 14, 57, 109
15, 35088, Note_on_c, 14, 54, 78
15, 35101, Note_off_c, 14, 54, 127
15, 35105, Note_off_c, 14, 57, 124
15, 35136, Note_on_c, 14, 54, 94
15, 35136, Note_on_c, 14, 57, 109
15, 35183, Note_off_c, 14, 54, 96
15, 35184, Note_off_c, 14, 57, 115
15, 35184, Note_on_c, 14, 59, 95
15, 35184, Note_on_c, 14, 55, 85
15, 35201, Note_off_c, 14, 55, 108
15, 35201, Note_off_c, 14, 59, 122
15, 35232, Note_on_c, 14, 55, 85
15, 35232, Note_on_c, 14, 59, 112
15, 35247, Note_off_c, 14, 59, 126
15, 35251, Note_off_c, 14, 55, 106
15, 35280, Note_on_c, 14, 59, 109
15, 35280, Note_on_c, 14, 55, 95
15, 35338, Note_off_c, 14, 55, 111
15, 35363, Note_off_c, 14, 59, 73
15, 35376, Note_on_c, 14, 59, 100
15, 35376, Note_on_c, 14, 62, 105
15, 35430, Note_off_c, 14, 62, 90
15, 35430, Note_off_c, 14, 59, 113
15, 35448, Note_on_c, 14, 59, 90
15, 35448, Note_on_c, 14, 62, 105
15, 35458, Note_off_c, 14, 59, 118
15, 35466, Note_off_c, 14, 62, 69
15, 35472, Note_on_c, 14, 62, 109
15, 35472, Note_on_c, 14, 59, 95
15, 35499, Note_off_c, 14, 62, 115
15, 35520, Note_off_c, 14, 59, 96
15, 35520, Note_on_c, 14, 61, 101
15, 35520, Note_on_c, 14, 64, 109
15, 35525, Channel_aftertouch_c, 14, 5
15, 35526, Channel_aftertouch_c, 14, 12
15, 35528, Channel_aftertouch_c, 14, 10
15, 35529, Channel_aftertouch_c, 14, 7
15, 35532, Channel_aftertouch_c, 14, 2
15, 35534, Channel_aftertouch_c, 14, 0
15, 35592, Note_off_c, 14, 61, 101
15, 35592, Note_on_c, 14, 66, 101
15, 35592, Note_on_c, 14, 62, 90
15, 35593, Note_off_c, 14, 64, 62
15, 35615, Note_off_c, 14, 62, 86
15, 35631, Note_off_c, 14, 66, 101
15, 35664, Note_on_c, 14, 66, 106
15, 35664, Note_on_c, 14, 62, 81
15, 35753, Note_off_c, 14, 62, 90
15, 35759, Note_off_c, 14, 66, 96
15, 35760, Note_on_c, 14, 54, 101
15, 35760, Note_on_c, 14, 57, 112
15, 35767, Channel_aftertouch_c, 14, 15
15, 35768, Channel_aftertouch_c, 14, 9
15, 35770, Channel_aftertouch_c, 14, 0
15, 35811, Note_off_c, 14, 57, 96
15, 35818, Note_off_c, 14, 54, 120
15, 35832, Note_on_c, 14, 57, 109
15, 35832, Note_on_c, 14, 54, 94
15, 35841, Channel_aftertouch_c, 14, 3
15, 35842, Channel_aftertouch_c, 14, 0
15, 35844, Note_off_c, 14, 54, 127
15, 35847, Note_off_c, 14, 57, 106
15, 35856, Note_on_c, 14, 57, 109
15, 35856, Note_on_c, 14, 54, 101
15, 35870, Note_off_c, 14, 54, 127
15, 35871, Note_off_c, 14, 57, 126
15, 35904, Note_on_c, 14, 54, 101
15, 35904, Note_on_c, 14, 57, 109
15, 35909, Channel_aftertouch_c, 14, 1
15, 35910, Channel_aftertouch_c, 14, 8
15, 35912, Channel_aftertouch_c, 14, 2
15, 35913, Channel_aftertouch_c, 14, 0
15, 35952, Note_off_c, 14, 54, 99
15, 35952, Note_on_c, 14, 55, 105
15, 35952, Note_on_c, 14, 59, 105
15, 35956, Note_off_c, 14, 57, 115
15, 35967, Note_off_c, 14, 59, 127
15, 35970, Note_off_c, 14, 55, 111
15, 36000, Note_on_c, 14, 55, 100
15, 36000, Note_on_c, 14, 59, 112
15, 36015, Note_off_c, 14, 59, 124
15, 36017, Note_off_c, 14, 55, 108
15, 36048, Note_on_c, 14, 55, 105
15, 36048, Note_on_c, 14, 59, 112
15, 36087, Note_off_c, 14, 59, 94
15, 36093, Note_off_c, 14, 55, 113
15, 36144, Note_on_c, 14, 59, 90
15, 36144, Note_on_c, 14, 62, 112
15, 36194, Note_off_c, 14, 59, 106
15, 36206, Note_off_c, 14, 62, 115
15, 36216, Note_on_c, 14, 59, 95
15, 36216, Note_on_c, 14, 62, 109
15, 36225, Note_off_c, 14, 62, 124
15, 36226, Note_off_c, 14, 59, 96
15, 36240, Note_on_c, 14, 62, 105
15, 36240, Note_on_c, 14, 59, 95
15, 36248, Channel_aftertouch_c, 14, 1
15, 36249, Channel_aftertouch_c, 14, 0
15, 36252, Channel_aftertouch_c, 14, 5
15, 36254, Channel_aftertouch_c, 14, 10
15, 36255, Channel_aftertouch_c, 14, 1
15, 36257, Channel_aftertouch_c, 14, 0
15, 36279, Note_off_c, 14, 62, 66
15, 36283, Note_off_c, 14, 59, 96
15, 36288, Note_on_c, 14, 64, 109
15, 36288, Note_on_c, 14, 61, 101
15, 36348, Note_off_c, 14, 61, 61
15, 36360, Note_on_c, 14, 62, 85
15, 36360, Note_on_c, 14, 66, 101
15, 36367, Note_off_c, 14, 64, 103
15, 36391, Note_off_c, 14, 66, 103
15, 36391, Note_off_c, 14, 62, 56
15, 36432, Note_on_c, 14, 66, 106
15, 36432, Note_on_c, 14, 62, 95
15, 36523, Note_off_c, 14, 62, 75
15, 36528, Note_on_c, 14, 54, 94
15, 36528, Note_on_c, 14, 57, 109
15, 36533, Note_off_c, 14, 66, 106
15, 36539, Channel_aftertouch_c, 14, 3
15, 36540, Channel_aftertouch_c, 14, 0
15, 36580, Note_off_c, 14, 57, 113
15, 36588, Note_off_c, 14, 54, 124
15, 36600, Note_on_c, 14, 57, 105
15, 36600, Note_on_c, 14, 54, 78
15, 36611, Note_off_c, 14, 57, 118
15, 36613, Note_off_c, 14, 54, 124
15, 36624, Note_on_c, 14, 57, 105
15, 36624, Note_on_c, 14, 54, 78
15, 36629, Channel_aftertouch_c, 14, 3
15, 36630, Channel_aftertouch_c, 14, 0
15, 36632, Channel_aftertouch_c, 14, 2
15, 36633, Channel_aftertouch_c, 14, 0
15, 36634, Note_off_c, 14, 54, 127
15, 36637, Note_off_c, 14, 57, 126
15, 36672, Note_on_c, 14, 54, 94
15, 36672, Note_on_c, 14, 57, 112
15, 36675, Channel_aftertouch_c, 14, 6
15, 36677, Channel_aftertouch_c, 14, 11
15, 36678, Channel_aftertouch_c, 14, 14
15, 36680, Channel_aftertouch_c, 14, 10
15, 36681, Channel_aftertouch_c, 14, 3
15, 36683, Channel_aftertouch_c, 14, 1
15, 36684, Channel_aftertouch_c, 14, 0
15, 36716, Note_off_c, 14, 54, 113
15, 36720, Note_on_c, 14, 55, 85
15, 36720, Note_on_c, 14, 59, 112
15, 36724, Note_off_c, 14, 57, 84
15, 36736, Note_off_c, 14, 59, 124
15, 36739, Note_off_c, 14, 55, 108
15, 36768, Note_on_c, 14, 59, 112
15, 36768, Note_on_c, 14, 55, 85
15, 36780, Note_off_c, 14, 55, 108
15, 36782, Note_off_c, 14, 59, 122
15, 36816, Note_on_c, 14, 55, 90
15, 36816, Note_on_c, 14, 59, 112
15, 36879, Note_off_c, 14, 59, 118
15, 36882, Note_off_c, 14, 55, 118
15, 36912, Note_on_c, 14, 59, 95
15, 36912, Note_on_c, 14, 62, 112
15, 36967, Note_off_c, 14, 62, 80
15, 36970, Note_off_c, 14, 59, 108
15, 36984, Note_on_c, 14, 62, 109
15, 36984, Note_on_c, 14, 59, 81
15, 36995, Note_off_c, 14, 59, 124
15, 37000, Note_off_c, 14, 62, 99
15, 37008, Note_on_c, 14, 62, 109
15, 37008, Channel_aftertouch_c, 14, 2
15, 37008, Note_on_c, 14, 59, 95
15, 37011, Channel_aftertouch_c, 14, 0
15, 37041, Note_off_c, 14, 62, 124
15, 37054, Note_off_c, 14, 59, 108
15, 37056, Note_on_c, 14, 64, 109
15, 37056, Note_on_c, 14, 61, 101
15, 37062, Channel_aftertouch_c, 14, 12
15, 37064, Channel_aftertouch_c, 14, 19
15, 37067, Channel_aftertouch_c, 14, 17
15, 37068, Channel_aftertouch_c, 14, 14
15, 37070, Channel_aftertouch_c, 14, 10
15, 37071, Channel_aftertouch_c, 14, 7
15, 37073, Channel_aftertouch_c, 14, 5
15, 37074, Channel_aftertouch_c, 14, 0
15, 37117, Note_off_c, 14, 61, 88
15, 37126, Note_off_c, 14, 64, 108
15, 37128, Note_on_c, 14, 62, 77
15, 37128, Note_on_c, 14, 66, 110
15, 37160, Note_off_c, 14, 62, 75
15, 37169, Note_off_c, 14, 66, 108
15, 37200, Note_on_c, 14, 62, 85
15, 37200, Note_on_c, 14, 66, 106
15, 37295, Note_off_c, 14, 62, 90
15, 37296, Note_on_c, 14, 54, 101
15, 37296, Note_on_c, 14, 57, 109
15, 37302, Note_off_c, 14, 66, 101
15, 37307, Channel_aftertouch_c, 14, 2
15, 37308, Channel_aftertouch_c, 14, 1
15, 37310, Channel_aftertouch_c, 14, 0
15, 37345, Note_off_c, 14, 57, 118
15, 37352, Note_off_c, 14, 54, 113
15, 37368, Note_on_c, 14, 54, 86
15, 37368, Note_on_c, 14, 57, 109
15, 37378, Channel_aftertouch_c, 14, 3
15, 37379, Channel_aftertouch_c, 14, 0
15, 37382, Note_off_c, 14, 54, 127
15, 37383, Note_off_c, 14, 57, 115
15, 37392, Note_on_c, 14, 57, 109
15, 37392, Note_on_c, 14, 54, 78
15, 37405, Note_off_c, 14, 54, 127
15, 37410, Note_off_c, 14, 57, 126
15, 37440, Note_on_c, 14, 54, 94
15, 37440, Note_on_c, 14, 57, 109
15, 37440, Note_on_c, 14, 58, 63
15, 37442, Note_off_c, 14, 58, 122
15, 37445, Channel_aftertouch_c, 14, 1
15, 37447, Channel_aftertouch_c, 14, 3
15, 37448, Channel_aftertouch_c, 14, 0
15, 37488, Note_on_c, 14, 55, 85
15, 37488, Note_on_c, 14, 59, 105
15, 37490, Note_off_c, 14, 54, 103
15, 37493, Note_off_c, 14, 57, 118
15, 37504, Note_off_c, 14, 59, 126
15, 37507, Note_off_c, 14, 55, 108
15, 37536, Note_on_c, 14, 59, 109
15, 37536, Note_on_c, 14, 55, 90
15, 37551, Note_off_c, 14, 55, 111
15, 37551, Note_off_c, 14, 59, 118
15, 37584, Note_on_c, 14, 55, 100
15, 37584, Note_on_c, 14, 59, 112
15, 37629, Note_off_c, 14, 55, 118
15, 37651, Note_off_c, 14, 59, 120
15, 37680, Note_on_c, 14, 62, 109
15, 37680, Note_on_c, 14, 59, 63
15, 37723, Note_off_c, 14, 59, 88
15, 37745, Note_off_c, 14, 62, 86
15, 37752, Note_on_c, 14, 62, 109
15, 37752, Note_on_c, 14, 59, 85
15, 37760, Note_off_c, 14, 59, 120
15, 37771, Note_off_c, 14, 62, 94
15, 37776, Note_on_c, 14, 62, 109
15, 37776, Note_on_c, 14, 59, 100
15, 37798, Note_off_c, 14, 62, 115
15, 37819, Note_off_c, 14, 59, 103
15, 37824, Note_on_c, 14, 61, 94
15, 37824, Note_on_c, 14, 64, 112
15, 37887, Note_off_c, 14, 61, 84
15, 37895, Note_off_c, 14, 64, 94
15, 37896, Note_on_c, 14, 62, 90
15, 37896, Note_on_c, 14, 66, 106
15, 37929, Note_off_c, 14, 66, 106
15, 37936, Note_off_c, 14, 62, 57
15, 37968, Note_on_c, 14, 66, 110
15, 37968, Note_on_c, 14, 62, 95
15, 38059, Note_off_c, 14, 62, 79
15, 38063, Note_off_c, 14, 66, 82
15, 38064, Note_on_c, 14, 54, 94
15, 38064, Note_on_c, 14, 57, 109
15, 38074, Channel_aftertouch_c, 14, 1
15, 38076, Channel_aftertouch_c, 14, 3
15, 38077, Channel_aftertouch_c, 14, 0
15, 38114, Note_off_c, 14, 57, 122
15, 38122, Note_off_c, 14, 54, 113
15, 38136, Note_on_c, 14, 57, 105
15, 38136, Note_on_c, 14, 54, 94
15, 38143, Channel_aftertouch_c, 14, 6
15, 38144, Channel_aftertouch_c, 14, 0
15, 38149, Note_off_c, 14, 54, 126
15, 38152, Note_off_c, 14, 57, 101
15, 38160, Note_on_c, 14, 57, 109
15, 38160, Note_on_c, 14, 54, 78
15, 38173, Note_off_c, 14, 54, 127
15, 38177, Note_off_c, 14, 57, 124
15, 38208, Note_on_c, 14, 54, 94
15, 38208, Note_on_c, 14, 57, 109
15, 38255, Note_off_c, 14, 54, 96
15, 38256, Note_off_c, 14, 57, 115
15, 38256, Note_on_c, 14, 59, 95
15, 38256, Note_on_c, 14, 55, 85
15, 38273, Note_off_c, 14, 55, 108
15, 38273, Note_off_c, 14, 59, 122
15, 38304, Note_on_c, 14, 55, 85
15, 38304, Note_on_c, 14, 59, 112
15, 38319, Note_off_c, 14, 59, 126
15, 38323, Note_off_c, 14, 55, 106
15, 38352, Note_on_c, 14, 59, 109
15, 38352, Note_on_c, 14, 55, 95
15, 38410, Note_off_c, 14, 55, 111
15, 38435, Note_off_c, 14, 59, 73
15, 38448, Note_on_c, 14, 59, 100
15, 38448, Note_on_c, 14, 62, 105
15, 38502, Note_off_c, 14, 62, 90
15, 38502, Note_off_c, 14, 59, 113
15, 38520, Note_on_c, 14, 59, 90
15, 38520, Note_on_c, 14, 62, 105
15, 38530, Note_off_c, 14, 59, 118
15, 38538, Note_off_c, 14, 62, 69
15, 38544, Note_on_c, 14, 62, 109
15, 38544, Note_on_c, 14, 59, 95
15, 38571, Note_off_c, 14, 62, 115
15, 38592, Note_off_c, 14, 59, 96
15, 38592, Note_on_c, 14, 61, 101
15, 38592, Note_on_c, 14, 64, 109
15, 38597, Channel_aftertouch_c, 14, 5
15, 38598, Channel_aftertouch_c, 14, 12
15, 38600, Channel_aftertouch_c, 14, 10
15, 38601, Channel_aftertouch_c, 14, 7
15, 38604, Channel_aftertouch_c, 14, 2
15, 38606, Channel_aftertouch_c, 14, 0
15, 38664, Note_off_c, 14, 61, 101
15, 38664, Note_on_c, 14, 66, 101
15, 38664, Note_on_c, 14, 62, 90
15, 38665, Note_off_c, 14, 64, 62
15, 38687, Note_off_c, 14, 62, 86
15, 38703, Note_off_c, 14, 66, 101
15, 38736, Note_on_c, 14, 66, 106
15, 38736, Note_on_c, 14, 62, 81
15, 38825, Note_off_c, 14, 62, 90
15, 38831, Note_off_c, 14, 66, 96
15, 38832, Note_on_c, 14, 54, 101
15, 38832, Note_on_c, 14, 57, 112
15, 38839, Channel_aftertouch_c, 14, 15
15, 38840, Channel_aftertouch_c, 14, 9
15, 38842, Channel_aftertouch_c, 14, 0
15, 38883, Note_off_c, 14, 57, 96
15, 38890, Note_off_c, 14, 54, 120
15, 38904, Note_on_c, 14, 57, 109
15, 38904, Note_on_c, 14, 54, 94
15, 38913, Channel_aftertouch_c, 14, 3
15, 38914, Channel_aftertouch_c, 14, 0
15, 38916, Note_off_c, 14, 54, 127
15, 38919, Note_off_c, 14, 57, 106
15, 38928, Note_on_c, 14, 57, 109
15, 38928, Note_on_c, 14, 54, 101
15, 38942, Note_off_c, 14, 54, 127
15, 38943, Note_off_c, 14, 57, 126
15, 38976, Note_on_c, 14, 54, 101
15, 38976, Note_on_c, 14, 57, 109
15, 38981, Channel_aftertouch_c, 14, 1
15, 38982, Channel_aftertouch_c, 14, 8
15, 38984, Channel_aftertouch_c, 14, 2
15, 38985, Channel_aftertouch_c, 14, 0
15, 39024, Note_off_c, 14, 54, 99
15, 39024, Note_on_c, 14, 55, 105
15, 39024, Note_on_c, 14, 59, 105
15, 39028, Note_off_c, 14, 57, 115
15, 39039, Note_off_c, 14, 59, 127
15, 39042, Note_off_c, 14, 55, 111
15, 39072, Note_on_c, 14, 55, 100
15, 39072, Note_on_c, 14, 59, 112
15, 39087, Note_off_c, 14, 59, 124
15, 39089, Note_off_c, 14, 55, 108
15, 39120, Note_on_c, 14, 55, 105
15, 39120, Note_on_c, 14, 59, 112
15, 39159, Note_off_c, 14, 59, 94
15, 39165, Note_off_c, 14, 55, 113
15, 45360, Note_on_c, 14, 57, 115
15, 45360, Note_on_c, 14, 62, 127
15, 45408, Note_off_c, 14, 62, 118
15, 45415, Note_off_c, 14, 57, 111
15, 45432, Note_on_c, 14, 57, 105
15, 45432, Note_on_c, 14, 62, 124
15, 45441, Note_off_c, 14, 62, 120
15, 45442, Note_off_c, 14, 57, 122
15, 45456, Note_on_c, 14, 57, 115
15, 45456, Note_on_c, 14, 62, 120
15, 45502, Note_off_c, 14, 62, 103
15, 45504, Note_on_c, 14, 61, 116
15, 45504, Note_on_c, 14, 64, 127
15, 45507, Note_off_c, 14, 57, 82
15, 45574, Note_off_c, 14, 64, 99
15, 45574, Note_off_c, 14, 61, 111
15, 45576, Note_on_c, 14, 62, 100
15, 45576, Note_on_c, 14, 66, 121
15, 45626, Note_off_c, 14, 62, 103
15, 45627, Note_off_c, 14, 66, 108
15, 45648, Note_on_c, 14, 62, 115
15, 45648, Note_on_c, 14, 66, 121
15, 45986, Note_off_c, 14, 66, 41
15, 46053, Note_off_c, 14, 62, 52
15, 46128, Note_on_c, 14, 57, 115
15, 46128, Note_on_c, 14, 62, 120
15, 46179, Note_off_c, 14, 62, 103
15, 46180, Note_off_c, 14, 57, 94
15, 46200, Note_on_c, 14, 57, 110
15, 46200, Note_on_c, 14, 62, 120
15, 46210, Note_off_c, 14, 62, 118
15, 46210, Note_off_c, 14, 57, 124
15, 46224, Note_on_c, 14, 62, 124
15, 46224, Note_on_c, 14, 57, 110
15, 46232, Channel_aftertouch_c, 14, 2
15, 46233, Channel_aftertouch_c, 14, 4
15, 46235, Channel_aftertouch_c, 14, 0
15, 46268, Note_off_c, 14, 62, 120
15, 46272, Note_off_c, 14, 57, 101
15, 46272, Note_on_c, 14, 61, 121
15, 46272, Note_on_c, 14, 64, 127
15, 46344, Note_on_c, 14, 62, 115
15, 46344, Note_on_c, 14, 66, 121
15, 46348, Note_off_c, 14, 61, 101
15, 46352, Note_off_c, 14, 64, 118
15, 46406, Note_off_c, 14, 66, 106
15, 46408, Note_off_c, 14, 62, 101
15, 46416, Note_on_c, 14, 55, 110
15, 46416, Note_on_c, 14, 60, 124
15, 46783, Note_off_c, 14, 60, 61
15, 46837, Note_off_c, 14, 55, 96
15, 46896, Note_on_c, 14, 57, 120
15, 46896, Note_on_c, 14, 62, 120
15, 46944, Note_off_c, 14, 62, 115
15, 46949, Note_off_c, 14, 57, 99
15, 46968, Note_on_c, 14, 57, 100
15, 46968, Note_on_c, 14, 62, 124
15, 46978, Note_off_c, 14, 62, 124
15, 46980, Note_off_c, 14, 57, 111
15, 46992, Note_on_c, 14, 57, 100
15, 46992, Note_on_c, 14, 62, 124
15, 46994, Channel_aftertouch_c, 14, 8
15, 46995, Channel_aftertouch_c, 14, 12
15, 46997, Channel_aftertouch_c, 14, 38
15, 46998, Channel_aftertouch_c, 14, 41
15, 47000, Channel_aftertouch_c, 14, 24
15, 47001, Channel_aftertouch_c, 14, 9
15, 47003, Channel_aftertouch_c, 14, 0
15, 47035, Note_off_c, 14, 62, 96
15, 47040, Note_off_c, 14, 57, 79
15, 47040, Note_on_c, 14, 61, 109
15, 47040, Note_on_c, 14, 64, 127
15, 47109, Note_off_c, 14, 61, 108
15, 47112, Note_on_c, 14, 62, 105
15, 47112, Note_on_c, 14, 66, 125
15, 47116, Note_off_c, 14, 64, 118
15, 47162, Note_off_c, 14, 66, 113
15, 47163, Note_off_c, 14, 62, 108
15, 47184, Note_on_c, 14, 62, 105
15, 47184, Note_on_c, 14, 66, 121
15, 47543, Note_off_c, 14, 66, 48
15, 47565, Note_off_c, 14, 62, 55
15, 47664, Note_on_c, 14, 62, 124
15, 47664, Note_on_c, 14, 57, 110
15, 47713, Note_off_c, 14, 57, 106
15, 47715, Note_off_c, 14, 62, 115
15, 47736, Note_on_c, 14, 57, 105
15, 47736, Note_on_c, 14, 62, 120
15, 47746, Note_off_c, 14, 62, 122
15, 47747, Note_off_c, 14, 57, 120
15, 47760, Note_on_c, 14, 57, 110
15, 47760, Note_on_c, 14, 62, 120
15, 47763, Channel_aftertouch_c, 14, 9
15, 47765, Channel_aftertouch_c, 14, 7
15, 47766, Channel_aftertouch_c, 14, 0
15, 47808, Note_on_c, 14, 64, 127
15, 47808, Note_on_c, 14, 61, 116
15, 47813, Note_off_c, 14, 57, 79
15, 47813, Channel_aftertouch_c, 14, 1
15, 47815, Note_off_c, 14, 62, 96
15, 47815, Channel_aftertouch_c, 14, 0
15, 47869, Note_off_c, 14, 61, 90
15, 47876, Note_off_c, 14, 64, 127
15, 47880, Note_on_c, 14, 62, 110
15, 47880, Note_on_c, 14, 66, 125
15, 47930, Note_off_c, 14, 66, 124
15, 47946, Note_off_c, 14, 62, 103
15, 47952, Note_on_c, 14, 55, 105
15, 47952, Note_on_c, 14, 66, 125
15, 48126, Note_off_c, 14, 55, 111
15, 48144, Note_on_c, 14, 55, 92
15, 48144, Note_on_c, 14, 64, 124
15, 48148, Note_off_c, 14, 66, 106
15, 48192, Note_on_c, 14, 66, 125
15, 48192, Note_on_c, 14, 57, 115
15, 48195, Note_off_c, 14, 64, 106
15, 48198, Note_off_c, 14, 55, 111
15, 48238, Note_off_c, 14, 57, 92
15, 48240, Note_on_c, 14, 55, 100
15, 48240, Note_on_c, 14, 64, 124
15, 48246, Note_off_c, 14, 66, 106
15, 48288, Note_on_c, 14, 57, 105
15, 48288, Note_on_c, 14, 66, 121
15, 48289, Note_off_c, 14, 64, 111
15, 48293, Note_off_c, 14, 55, 106
15, 48312, Note_on_c, 14, 64, 120
15, 48312, Note_on_c, 14, 55, 100
15, 48314, Note_off_c, 14, 66, 106
15, 48316, Channel_aftertouch_c, 14, 8
15, 48318, Note_off_c, 14, 57, 90
15, 48318, Channel_aftertouch_c, 14, 10
15, 48319, Channel_aftertouch_c, 14, 11
15, 48321, Channel_aftertouch_c, 14, 0
15, 48331, Note_off_c, 14, 64, 126
15, 48333, Note_off_c, 14, 55, 96
15, 48336, Note_on_c, 14, 62, 124
15, 48336, Note_on_c, 14, 54, 109
15, 48341, Channel_aftertouch_c, 14, 7
15, 48342, Channel_aftertouch_c, 14, 11
15, 48344, Channel_aftertouch_c, 14, 3
15, 48345, Channel_aftertouch_c, 14, 0
15, 49137, Note_off_c, 14, 54, 126
15, 49147, Note_off_c, 14, 62, 113
15, 49536, End_track
16, 0, Start_track
16, 0, Program_c, 15, 0
16, 24, Control_c, 15, 1, 0
16, 48, Control_c, 15, 7, 100
16, 72, Control_c, 15, 10, 65
16, 96, Control_c, 15, 11, 127
16, 120, Control_c, 15, 91, 30
16, 144, Pitch_bend_c, 15, 8192
16, 384, End_track
0, 0, End_of_file
