0, 0, Header, 1, 8, 480
1, 0, Start_track
1, 0, Tempo, 714285
1, 0, Title_t, "On Your Own"
1, 0, Time_signature, 4, 2, 10, 230
1, 0, End_track
2, 0, Start_track
2, 0, Title_t, "Graham (Disto Guitar)"
2, 0, Control_c, 1, 100, 0
2, 0, Control_c, 1, 101, 0
2, 0, Control_c, 1, 6, 12
2, 0, Pitch_bend_c, 1, 8192
2, 0, Control_c, 1, 101, 0
2, 0, Control_c, 1, 100, 1
2, 0, Control_c, 1, 6, 64
2, 0, Control_c, 1, 38, 0
2, 0, Control_c, 1, 101, 127
2, 0, Control_c, 1, 100, 127
2, 0, Control_c, 0, 100, 0
2, 0, Control_c, 0, 101, 0
2, 0, Control_c, 0, 6, 12
2, 0, Pitch_bend_c, 0, 8192
2, 0, Control_c, 0, 101, 0
2, 0, Control_c, 0, 100, 1
2, 0, Control_c, 0, 6, 64
2, 0, Control_c, 0, 38, 0
2, 0, Control_c, 0, 101, 127
2, 0, Control_c, 0, 100, 127
2, 0, Control_c, 1, 101, 0
2, 0, Control_c, 1, 100, 2
2, 0, Control_c, 1, 6, 64
2, 0, Control_c, 1, 101, 127
2, 0, Control_c, 1, 100, 127
2, 0, Control_c, 0, 101, 0
2, 0, Control_c, 0, 100, 2
2, 0, Control_c, 0, 6, 64
2, 0, Control_c, 0, 101, 127
2, 0, Control_c, 0, 100, 127
2, 0, Program_c, 1, 30
2, 0, Program_c, 0, 30
2, 0, Control_c, 1, 0, 0
2, 0, Control_c, 0, 0, 0
2, 0, Control_c, 1, 7, 104
2, 0, Control_c, 0, 7, 104
2, 0, Control_c, 1, 10, 0
2, 0, Control_c, 0, 10, 0
2, 0, Control_c, 1, 93, 0
2, 0, Control_c, 0, 93, 0
2, 0, Control_c, 1, 91, 0
2, 0, Control_c, 0, 91, 0
2, 0, Control_c, 1, 92, 0
2, 0, Control_c, 0, 92, 0
2, 0, Control_c, 1, 95, 0
2, 0, Control_c, 0, 95, 0
2, 9120, Note_on_c, 0, 49, 95
2, 9120, Note_on_c, 0, 44, 95
2, 9120, Note_on_c, 0, 39, 95
2, 9140, Note_off_c, 0, 49, 80
2, 9140, Note_off_c, 0, 44, 80
2, 9140, Note_off_c, 0, 39, 80
2, 9360, Note_on_c, 0, 49, 95
2, 9360, Note_on_c, 0, 44, 95
2, 9360, Note_on_c, 0, 39, 95
2, 9380, Note_off_c, 0, 49, 80
2, 9380, Note_off_c, 0, 44, 80
2, 9380, Note_off_c, 0, 39, 80
2, 9480, Note_on_c, 0, 49, 95
2, 9480, Note_on_c, 0, 44, 95
2, 9480, Note_on_c, 0, 39, 95
2, 9500, Note_off_c, 0, 49, 80
2, 9500, Note_off_c, 0, 44, 80
2, 9500, Note_off_c, 0, 39, 80
2, 9600, Note_on_c, 0, 66, 95
2, 9600, Note_on_c, 0, 62, 95
2, 9600, Note_on_c, 0, 57, 95
2, 9720, Note_off_c, 0, 66, 80
2, 9720, Note_off_c, 0, 62, 80
2, 9720, Note_off_c, 0, 57, 80
2, 9720, Note_on_c, 0, 63, 76
2, 9840, Note_off_c, 0, 63, 80
2, 9840, Note_on_c, 0, 62, 95
2, 9960, Note_off_c, 0, 62, 80
2, 9960, Note_on_c, 0, 63, 76
2, 10080, Note_off_c, 0, 63, 80
2, 10080, Note_on_c, 0, 71, 95
2, 10080, Note_on_c, 0, 66, 95
2, 10200, Note_off_c, 0, 71, 80
2, 10200, Note_off_c, 0, 66, 80
2, 10440, Note_on_c, 0, 55, 95
2, 10560, Note_off_c, 0, 55, 80
2, 10560, Note_on_c, 0, 56, 76
2, 10680, Note_off_c, 0, 56, 80
2, 10680, Note_on_c, 0, 64, 95
2, 10680, Note_on_c, 0, 59, 95
2, 10800, Note_off_c, 0, 64, 80
2, 10800, Note_off_c, 0, 59, 80
2, 11280, Note_on_c, 0, 66, 95
2, 11280, Note_on_c, 0, 61, 95
2, 11280, Note_on_c, 0, 58, 95
2, 11280, Note_on_c, 0, 54, 95
2, 11280, Note_on_c, 0, 49, 95
2, 13440, Note_off_c, 0, 66, 80
2, 13440, Note_off_c, 0, 61, 80
2, 13440, Note_off_c, 0, 58, 80
2, 13440, Note_off_c, 0, 54, 80
2, 13440, Note_off_c, 0, 49, 80
2, 13440, Note_on_c, 0, 66, 95
2, 13440, Note_on_c, 0, 62, 95
2, 13440, Note_on_c, 0, 57, 95
2, 13560, Note_off_c, 0, 66, 80
2, 13560, Note_off_c, 0, 62, 80
2, 13560, Note_off_c, 0, 57, 80
2, 13560, Note_on_c, 0, 63, 76
2, 13680, Note_off_c, 0, 63, 80
2, 13680, Note_on_c, 0, 62, 95
2, 13800, Note_off_c, 0, 62, 80
2, 13800, Note_on_c, 0, 63, 76
2, 13920, Note_off_c, 0, 63, 80
2, 13920, Note_on_c, 0, 71, 95
2, 13920, Note_on_c, 0, 66, 95
2, 14040, Note_off_c, 0, 71, 80
2, 14040, Note_off_c, 0, 66, 80
2, 14280, Note_on_c, 0, 55, 95
2, 14400, Note_off_c, 0, 55, 80
2, 14400, Note_on_c, 0, 56, 76
2, 14520, Note_off_c, 0, 56, 80
2, 14520, Note_on_c, 0, 64, 95
2, 14520, Note_on_c, 0, 59, 95
2, 14640, Note_off_c, 0, 64, 80
2, 14640, Note_off_c, 0, 59, 80
2, 15120, Note_on_c, 0, 66, 95
2, 15120, Note_on_c, 0, 61, 95
2, 15120, Note_on_c, 0, 58, 95
2, 15120, Note_on_c, 0, 54, 95
2, 15120, Note_on_c, 0, 49, 95
2, 17280, Note_off_c, 0, 66, 80
2, 17280, Note_off_c, 0, 61, 80
2, 17280, Note_off_c, 0, 58, 80
2, 17280, Note_off_c, 0, 54, 80
2, 17280, Note_off_c, 0, 49, 80
2, 17280, Note_on_c, 0, 66, 95
2, 17280, Note_on_c, 0, 62, 95
2, 17280, Note_on_c, 0, 57, 95
2, 17400, Note_off_c, 0, 66, 80
2, 17400, Note_off_c, 0, 62, 80
2, 17400, Note_off_c, 0, 57, 80
2, 17400, Note_on_c, 0, 63, 76
2, 17520, Note_off_c, 0, 63, 80
2, 17520, Note_on_c, 0, 62, 95
2, 17640, Note_off_c, 0, 62, 80
2, 17640, Note_on_c, 0, 63, 76
2, 17760, Note_off_c, 0, 63, 80
2, 17760, Note_on_c, 0, 71, 95
2, 17760, Note_on_c, 0, 66, 95
2, 17880, Note_off_c, 0, 71, 80
2, 17880, Note_off_c, 0, 66, 80
2, 18120, Note_on_c, 0, 55, 95
2, 18240, Note_off_c, 0, 55, 80
2, 18240, Note_on_c, 0, 56, 76
2, 18360, Note_off_c, 0, 56, 80
2, 18360, Note_on_c, 0, 64, 95
2, 18360, Note_on_c, 0, 59, 95
2, 18480, Note_off_c, 0, 64, 80
2, 18480, Note_off_c, 0, 59, 80
2, 18960, Note_on_c, 0, 66, 95
2, 18960, Note_on_c, 0, 61, 95
2, 18960, Note_on_c, 0, 58, 95
2, 18960, Note_on_c, 0, 54, 95
2, 18960, Note_on_c, 0, 49, 95
2, 21120, Note_off_c, 0, 66, 80
2, 21120, Note_off_c, 0, 61, 80
2, 21120, Note_off_c, 0, 58, 80
2, 21120, Note_off_c, 0, 54, 80
2, 21120, Note_off_c, 0, 49, 80
2, 21120, Note_on_c, 0, 66, 95
2, 21120, Note_on_c, 0, 62, 95
2, 21120, Note_on_c, 0, 57, 95
2, 21240, Note_off_c, 0, 66, 80
2, 21240, Note_off_c, 0, 62, 80
2, 21240, Note_off_c, 0, 57, 80
2, 21240, Note_on_c, 0, 63, 76
2, 21360, Note_off_c, 0, 63, 80
2, 21360, Note_on_c, 0, 62, 95
2, 21480, Note_off_c, 0, 62, 80
2, 21480, Note_on_c, 0, 63, 76
2, 21600, Note_off_c, 0, 63, 80
2, 21600, Note_on_c, 0, 71, 95
2, 21600, Note_on_c, 0, 66, 95
2, 21720, Note_off_c, 0, 71, 80
2, 21720, Note_off_c, 0, 66, 80
2, 21960, Note_on_c, 0, 55, 95
2, 22080, Note_off_c, 0, 55, 80
2, 22080, Note_on_c, 0, 56, 76
2, 22200, Note_off_c, 0, 56, 80
2, 22200, Note_on_c, 0, 64, 95
2, 22200, Note_on_c, 0, 59, 95
2, 22320, Note_off_c, 0, 64, 80
2, 22320, Note_off_c, 0, 59, 80
2, 22800, Note_on_c, 0, 66, 95
2, 22800, Note_on_c, 0, 61, 95
2, 22800, Note_on_c, 0, 58, 95
2, 22800, Note_on_c, 0, 54, 95
2, 22800, Note_on_c, 0, 49, 95
2, 24960, Note_off_c, 0, 66, 80
2, 24960, Note_off_c, 0, 61, 80
2, 24960, Note_off_c, 0, 58, 80
2, 24960, Note_off_c, 0, 54, 80
2, 24960, Note_off_c, 0, 49, 80
2, 24960, Note_on_c, 0, 66, 95
2, 24960, Note_on_c, 0, 62, 95
2, 24960, Note_on_c, 0, 57, 95
2, 25080, Note_off_c, 0, 66, 80
2, 25080, Note_off_c, 0, 62, 80
2, 25080, Note_off_c, 0, 57, 80
2, 25080, Note_on_c, 0, 63, 76
2, 25200, Note_off_c, 0, 63, 80
2, 25200, Note_on_c, 0, 62, 95
2, 25320, Note_off_c, 0, 62, 80
2, 25320, Note_on_c, 0, 63, 76
2, 25440, Note_off_c, 0, 63, 80
2, 25440, Note_on_c, 0, 71, 95
2, 25440, Note_on_c, 0, 66, 95
2, 25560, Note_off_c, 0, 71, 80
2, 25560, Note_off_c, 0, 66, 80
2, 25800, Note_on_c, 0, 55, 95
2, 25920, Note_off_c, 0, 55, 80
2, 25920, Note_on_c, 0, 56, 76
2, 26040, Note_off_c, 0, 56, 80
2, 26040, Note_on_c, 0, 64, 95
2, 26040, Note_on_c, 0, 59, 95
2, 26160, Note_off_c, 0, 64, 80
2, 26160, Note_off_c, 0, 59, 80
2, 26640, Note_on_c, 0, 66, 95
2, 26640, Note_on_c, 0, 61, 95
2, 26640, Note_on_c, 0, 58, 95
2, 26640, Note_on_c, 0, 54, 95
2, 26640, Note_on_c, 0, 49, 95
2, 28800, Note_off_c, 0, 66, 80
2, 28800, Note_off_c, 0, 61, 80
2, 28800, Note_off_c, 0, 58, 80
2, 28800, Note_off_c, 0, 54, 80
2, 28800, Note_off_c, 0, 49, 80
2, 28800, Note_on_c, 0, 66, 95
2, 28800, Note_on_c, 0, 62, 95
2, 28800, Note_on_c, 0, 57, 95
2, 28920, Note_off_c, 0, 66, 80
2, 28920, Note_off_c, 0, 62, 80
2, 28920, Note_off_c, 0, 57, 80
2, 28920, Note_on_c, 0, 63, 76
2, 29040, Note_off_c, 0, 63, 80
2, 29040, Note_on_c, 0, 62, 95
2, 29160, Note_off_c, 0, 62, 80
2, 29160, Note_on_c, 0, 63, 76
2, 29280, Note_off_c, 0, 63, 80
2, 29280, Note_on_c, 0, 71, 95
2, 29280, Note_on_c, 0, 66, 95
2, 29400, Note_off_c, 0, 71, 80
2, 29400, Note_off_c, 0, 66, 80
2, 29640, Note_on_c, 0, 55, 95
2, 29760, Note_off_c, 0, 55, 80
2, 29760, Note_on_c, 0, 56, 76
2, 29880, Note_off_c, 0, 56, 80
2, 29880, Note_on_c, 0, 64, 95
2, 29880, Note_on_c, 0, 59, 95
2, 30000, Note_off_c, 0, 64, 80
2, 30000, Note_off_c, 0, 59, 80
2, 30480, Note_on_c, 0, 66, 95
2, 30480, Note_on_c, 0, 61, 95
2, 30480, Note_on_c, 0, 58, 95
2, 30480, Note_on_c, 0, 54, 95
2, 30480, Note_on_c, 0, 49, 95
2, 32640, Note_off_c, 0, 66, 80
2, 32640, Note_off_c, 0, 61, 80
2, 32640, Note_off_c, 0, 58, 80
2, 32640, Note_off_c, 0, 54, 80
2, 32640, Note_off_c, 0, 49, 80
2, 32640, Note_on_c, 0, 66, 95
2, 32640, Note_on_c, 0, 62, 95
2, 32640, Note_on_c, 0, 57, 95
2, 32760, Note_off_c, 0, 66, 80
2, 32760, Note_off_c, 0, 62, 80
2, 32760, Note_off_c, 0, 57, 80
2, 32760, Note_on_c, 0, 63, 76
2, 32880, Note_off_c, 0, 63, 80
2, 32880, Note_on_c, 0, 62, 95
2, 33000, Note_off_c, 0, 62, 80
2, 33000, Note_on_c, 0, 63, 76
2, 33120, Note_off_c, 0, 63, 80
2, 33120, Note_on_c, 0, 66, 95
2, 33120, Note_on_c, 0, 63, 95
2, 33120, Note_on_c, 0, 57, 95
2, 33240, Note_off_c, 0, 66, 80
2, 33240, Note_off_c, 0, 63, 80
2, 33240, Note_off_c, 0, 57, 80
2, 33480, Note_on_c, 0, 64, 95
2, 33480, Note_on_c, 0, 61, 95
2, 33480, Note_on_c, 0, 57, 95
2, 33600, Note_off_c, 0, 64, 80
2, 33600, Note_off_c, 0, 61, 80
2, 33600, Note_off_c, 0, 57, 80
2, 33600, Note_on_c, 0, 64, 95
2, 33600, Note_on_c, 0, 61, 95
2, 33600, Note_on_c, 0, 57, 95
2, 33840, Note_off_c, 0, 64, 80
2, 33840, Note_off_c, 0, 61, 80
2, 33840, Note_off_c, 0, 57, 80
2, 34320, Note_on_c, 0, 59, 95
2, 34320, Note_on_c, 0, 55, 95
2, 34560, Note_off_c, 0, 59, 80
2, 34560, Note_off_c, 0, 55, 80
2, 34560, Note_on_c, 0, 56, 95
2, 34560, Note_on_c, 0, 52, 95
2, 34560, Note_on_c, 0, 47, 95
2, 34560, Note_on_c, 0, 40, 95
2, 35040, Note_off_c, 0, 56, 80
2, 35040, Note_off_c, 0, 52, 80
2, 35040, Note_off_c, 0, 47, 80
2, 35040, Note_off_c, 0, 40, 80
2, 35280, Note_on_c, 0, 58, 95
2, 35280, Note_on_c, 0, 54, 95
2, 35280, Note_on_c, 0, 49, 95
2, 35280, Note_on_c, 0, 44, 95
2, 35300, Note_off_c, 0, 58, 80
2, 35300, Note_off_c, 0, 54, 80
2, 35300, Note_off_c, 0, 49, 80
2, 35300, Note_off_c, 0, 44, 80
2, 35400, Note_on_c, 0, 66, 95
2, 35400, Note_on_c, 0, 61, 95
2, 35400, Note_on_c, 0, 58, 95
2, 35400, Note_on_c, 0, 54, 95
2, 35400, Note_on_c, 0, 49, 95
2, 36000, Note_off_c, 0, 66, 80
2, 36000, Note_off_c, 0, 61, 80
2, 36000, Note_off_c, 0, 58, 80
2, 36000, Note_off_c, 0, 54, 80
2, 36000, Note_off_c, 0, 49, 80
2, 36000, Note_on_c, 0, 66, 95
2, 36000, Note_on_c, 0, 61, 95
2, 36000, Note_on_c, 0, 58, 95
2, 36000, Note_on_c, 0, 52, 95
2, 36000, Note_on_c, 0, 49, 95
2, 36480, Note_off_c, 0, 66, 80
2, 36480, Note_off_c, 0, 61, 80
2, 36480, Note_off_c, 0, 58, 80
2, 36480, Note_off_c, 0, 52, 80
2, 36480, Note_off_c, 0, 49, 80
2, 36480, Note_on_c, 0, 66, 95
2, 36480, Note_on_c, 0, 62, 95
2, 36480, Note_on_c, 0, 57, 95
2, 36600, Note_off_c, 0, 66, 80
2, 36600, Note_off_c, 0, 62, 80
2, 36600, Note_off_c, 0, 57, 80
2, 36600, Note_on_c, 0, 63, 76
2, 36720, Note_off_c, 0, 63, 80
2, 36720, Note_on_c, 0, 62, 95
2, 36840, Note_off_c, 0, 62, 80
2, 36840, Note_on_c, 0, 63, 76
2, 36960, Note_off_c, 0, 63, 80
2, 36960, Note_on_c, 0, 71, 95
2, 36960, Note_on_c, 0, 66, 95
2, 37080, Note_off_c, 0, 71, 80
2, 37080, Note_off_c, 0, 66, 80
2, 37320, Note_on_c, 0, 50, 95
2, 37440, Note_off_c, 0, 50, 80
2, 37440, Note_on_c, 0, 52, 76
2, 37560, Note_off_c, 0, 52, 80
2, 37560, Note_on_c, 0, 59, 95
2, 37560, Note_on_c, 0, 56, 95
2, 37680, Note_off_c, 0, 59, 80
2, 37680, Note_off_c, 0, 56, 80
2, 38160, Note_on_c, 0, 54, 95
2, 38160, Note_on_c, 0, 49, 95
2, 38160, Note_on_c, 0, 42, 95
2, 38280, Note_off_c, 0, 54, 80
2, 38280, Note_off_c, 0, 49, 80
2, 38280, Note_off_c, 0, 42, 80
2, 38280, Note_on_c, 0, 54, 95
2, 38280, Note_on_c, 0, 49, 95
2, 38280, Note_on_c, 0, 42, 95
2, 38400, Note_off_c, 0, 54, 80
2, 38400, Note_off_c, 0, 49, 80
2, 38400, Note_off_c, 0, 42, 80
2, 38400, Note_on_c, 0, 66, 95
2, 38400, Note_on_c, 0, 61, 95
2, 38400, Note_on_c, 0, 58, 95
2, 38400, Note_on_c, 0, 54, 95
2, 38400, Note_on_c, 0, 49, 95
2, 38400, Note_on_c, 0, 42, 95
2, 40320, Note_off_c, 0, 66, 80
2, 40320, Note_off_c, 0, 61, 80
2, 40320, Note_off_c, 0, 58, 80
2, 40320, Note_off_c, 0, 54, 80
2, 40320, Note_off_c, 0, 49, 80
2, 40320, Note_off_c, 0, 42, 80
2, 40320, Note_on_c, 0, 66, 95
2, 40320, Note_on_c, 0, 62, 95
2, 40320, Note_on_c, 0, 57, 95
2, 40440, Note_off_c, 0, 66, 80
2, 40440, Note_off_c, 0, 62, 80
2, 40440, Note_off_c, 0, 57, 80
2, 40440, Note_on_c, 0, 63, 76
2, 40560, Note_off_c, 0, 63, 80
2, 40560, Note_on_c, 0, 62, 95
2, 40680, Note_off_c, 0, 62, 80
2, 40680, Note_on_c, 0, 63, 76
2, 40800, Note_off_c, 0, 63, 80
2, 40800, Note_on_c, 0, 66, 95
2, 40800, Note_on_c, 0, 63, 95
2, 40800, Note_on_c, 0, 57, 95
2, 40920, Note_off_c, 0, 66, 80
2, 40920, Note_off_c, 0, 63, 80
2, 40920, Note_off_c, 0, 57, 80
2, 41160, Note_on_c, 0, 50, 95
2, 41280, Note_off_c, 0, 50, 80
2, 41280, Note_on_c, 0, 52, 76
2, 41400, Note_off_c, 0, 52, 80
2, 41400, Note_on_c, 0, 59, 95
2, 41400, Note_on_c, 0, 56, 95
2, 41400, Note_on_c, 0, 52, 95
2, 41520, Note_off_c, 0, 59, 80
2, 41520, Note_off_c, 0, 56, 80
2, 41520, Note_off_c, 0, 52, 80
2, 42000, Note_on_c, 0, 66, 95
2, 42000, Note_on_c, 0, 61, 95
2, 42000, Note_on_c, 0, 58, 95
2, 42000, Note_on_c, 0, 54, 95
2, 42000, Note_on_c, 0, 49, 95
2, 44160, Note_off_c, 0, 66, 80
2, 44160, Note_off_c, 0, 61, 80
2, 44160, Note_off_c, 0, 58, 80
2, 44160, Note_off_c, 0, 54, 80
2, 44160, Note_off_c, 0, 49, 80
2, 44160, Note_on_c, 0, 66, 95
2, 44160, Note_on_c, 0, 62, 95
2, 44160, Note_on_c, 0, 57, 95
2, 44280, Note_off_c, 0, 66, 80
2, 44280, Note_off_c, 0, 62, 80
2, 44280, Note_off_c, 0, 57, 80
2, 44280, Note_on_c, 0, 63, 76
2, 44400, Note_off_c, 0, 63, 80
2, 44400, Note_on_c, 0, 62, 95
2, 44520, Note_off_c, 0, 62, 80
2, 44520, Note_on_c, 0, 63, 76
2, 44640, Note_off_c, 0, 63, 80
2, 44640, Note_on_c, 0, 66, 95
2, 44640, Note_on_c, 0, 63, 95
2, 44640, Note_on_c, 0, 57, 95
2, 44760, Note_off_c, 0, 66, 80
2, 44760, Note_off_c, 0, 63, 80
2, 44760, Note_off_c, 0, 57, 80
2, 45000, Note_on_c, 0, 50, 95
2, 45120, Note_off_c, 0, 50, 80
2, 45120, Note_on_c, 0, 52, 76
2, 45240, Note_off_c, 0, 52, 80
2, 45240, Note_on_c, 0, 59, 95
2, 45240, Note_on_c, 0, 56, 95
2, 45240, Note_on_c, 0, 52, 95
2, 45360, Note_off_c, 0, 59, 80
2, 45360, Note_off_c, 0, 56, 80
2, 45360, Note_off_c, 0, 52, 80
2, 45840, Note_on_c, 0, 66, 95
2, 45840, Note_on_c, 0, 61, 95
2, 45840, Note_on_c, 0, 58, 95
2, 45840, Note_on_c, 0, 54, 95
2, 45840, Note_on_c, 0, 49, 95
2, 48000, Note_off_c, 0, 66, 80
2, 48000, Note_off_c, 0, 61, 80
2, 48000, Note_off_c, 0, 58, 80
2, 48000, Note_off_c, 0, 54, 80
2, 48000, Note_off_c, 0, 49, 80
2, 48000, Note_on_c, 0, 66, 95
2, 48000, Note_on_c, 0, 62, 95
2, 48000, Note_on_c, 0, 57, 95
2, 48120, Note_off_c, 0, 66, 80
2, 48120, Note_off_c, 0, 62, 80
2, 48120, Note_off_c, 0, 57, 80
2, 48120, Note_on_c, 0, 63, 76
2, 48240, Note_off_c, 0, 63, 80
2, 48240, Note_on_c, 0, 62, 95
2, 48360, Note_off_c, 0, 62, 80
2, 48360, Note_on_c, 0, 63, 76
2, 48480, Note_off_c, 0, 63, 80
2, 48480, Note_on_c, 0, 66, 95
2, 48480, Note_on_c, 0, 63, 95
2, 48480, Note_on_c, 0, 57, 95
2, 48600, Note_off_c, 0, 66, 80
2, 48600, Note_off_c, 0, 63, 80
2, 48600, Note_off_c, 0, 57, 80
2, 48840, Note_on_c, 0, 64, 95
2, 48840, Note_on_c, 0, 61, 95
2, 48840, Note_on_c, 0, 57, 95
2, 48960, Note_off_c, 0, 64, 80
2, 48960, Note_off_c, 0, 61, 80
2, 48960, Note_off_c, 0, 57, 80
2, 48960, Note_on_c, 0, 64, 95
2, 48960, Note_on_c, 0, 61, 95
2, 48960, Note_on_c, 0, 57, 95
2, 49200, Note_off_c, 0, 64, 80
2, 49200, Note_off_c, 0, 61, 80
2, 49200, Note_off_c, 0, 57, 80
2, 49680, Note_on_c, 0, 59, 95
2, 49680, Note_on_c, 0, 55, 95
2, 49920, Note_off_c, 0, 59, 80
2, 49920, Note_off_c, 0, 55, 80
2, 49920, Note_on_c, 0, 59, 95
2, 49920, Note_on_c, 0, 56, 95
2, 50280, Note_off_c, 0, 59, 80
2, 50280, Note_off_c, 0, 56, 80
2, 50280, Note_on_c, 0, 55, 95
2, 50640, Note_off_c, 0, 55, 80
2, 50640, Note_on_c, 0, 50, 95
2, 50880, Note_off_c, 0, 50, 80
2, 50880, Note_on_c, 0, 58, 95
2, 51600, Note_off_c, 0, 58, 80
2, 51600, Note_on_c, 0, 55, 95
2, 51840, Note_off_c, 0, 55, 80
2, 51840, Note_on_c, 0, 45, 95
2, 52320, Note_off_c, 0, 45, 80
2, 52320, Note_on_c, 0, 71, 95
2, 52320, Note_on_c, 0, 66, 95
2, 52440, Note_off_c, 0, 71, 80
2, 52440, Note_off_c, 0, 66, 80
2, 52680, Note_on_c, 0, 55, 95
2, 52800, Note_off_c, 0, 55, 80
2, 52800, Note_on_c, 0, 56, 76
2, 52920, Note_off_c, 0, 56, 80
2, 52920, Note_on_c, 0, 64, 95
2, 52920, Note_on_c, 0, 59, 95
2, 53040, Note_off_c, 0, 64, 80
2, 53040, Note_off_c, 0, 59, 80
2, 53520, Note_on_c, 0, 56, 95
2, 53520, Note_on_c, 0, 52, 95
2, 53520, Note_on_c, 0, 47, 95
2, 53520, Note_on_c, 0, 40, 95
2, 53640, Note_off_c, 0, 56, 80
2, 53640, Note_off_c, 0, 52, 80
2, 53640, Note_off_c, 0, 47, 80
2, 53640, Note_off_c, 0, 40, 80
2, 53640, Note_on_c, 0, 56, 95
2, 53640, Note_on_c, 0, 52, 95
2, 53640, Note_on_c, 0, 47, 95
2, 53640, Note_on_c, 0, 40, 95
2, 53760, Note_off_c, 0, 56, 80
2, 53760, Note_off_c, 0, 52, 80
2, 53760, Note_off_c, 0, 47, 80
2, 53760, Note_off_c, 0, 40, 80
2, 53760, Note_on_c, 0, 66, 95
2, 53760, Note_on_c, 0, 61, 95
2, 53760, Note_on_c, 0, 58, 95
2, 53760, Note_on_c, 0, 54, 95
2, 53760, Note_on_c, 0, 49, 95
2, 53760, Note_on_c, 0, 42, 95
2, 54480, Note_off_c, 0, 66, 80
2, 54480, Note_off_c, 0, 61, 80
2, 54480, Note_off_c, 0, 58, 80
2, 54480, Note_off_c, 0, 54, 80
2, 54480, Note_off_c, 0, 49, 80
2, 54480, Note_off_c, 0, 42, 80
2, 54480, Note_on_c, 0, 64, 95
2, 54480, Note_on_c, 0, 59, 95
2, 54480, Note_on_c, 0, 56, 95
2, 54480, Note_on_c, 0, 52, 95
2, 54600, Note_off_c, 0, 64, 80
2, 54600, Note_off_c, 0, 59, 80
2, 54600, Note_off_c, 0, 56, 80
2, 54600, Note_off_c, 0, 52, 80
2, 54600, Note_on_c, 0, 64, 95
2, 54600, Note_on_c, 0, 59, 95
2, 54600, Note_on_c, 0, 56, 95
2, 54600, Note_on_c, 0, 52, 95
2, 54720, Note_off_c, 0, 64, 80
2, 54720, Note_off_c, 0, 59, 80
2, 54720, Note_off_c, 0, 56, 80
2, 54720, Note_off_c, 0, 52, 80
2, 54720, Note_on_c, 0, 64, 95
2, 54720, Note_on_c, 0, 59, 95
2, 54720, Note_on_c, 0, 56, 95
2, 54720, Note_on_c, 0, 52, 95
2, 55560, Note_off_c, 0, 64, 80
2, 55560, Note_off_c, 0, 59, 80
2, 55560, Note_off_c, 0, 56, 80
2, 55560, Note_off_c, 0, 52, 80
2, 55560, Note_on_c, 0, 64, 95
2, 55560, Note_on_c, 0, 61, 95
2, 55560, Note_on_c, 0, 58, 95
2, 55560, Note_on_c, 0, 54, 95
2, 55560, Note_on_c, 0, 49, 95
2, 55560, Note_on_c, 0, 42, 95
2, 55680, Note_off_c, 0, 64, 80
2, 55680, Note_off_c, 0, 61, 80
2, 55680, Note_off_c, 0, 58, 80
2, 55680, Note_off_c, 0, 54, 80
2, 55680, Note_off_c, 0, 49, 80
2, 55680, Note_off_c, 0, 42, 80
2, 55680, Note_on_c, 0, 64, 95
2, 55680, Note_on_c, 0, 61, 95
2, 55680, Note_on_c, 0, 58, 95
2, 55680, Note_on_c, 0, 54, 95
2, 55680, Note_on_c, 0, 49, 95
2, 55680, Note_on_c, 0, 42, 95
2, 56400, Note_off_c, 0, 64, 80
2, 56400, Note_off_c, 0, 61, 80
2, 56400, Note_off_c, 0, 58, 80
2, 56400, Note_off_c, 0, 54, 80
2, 56400, Note_off_c, 0, 49, 80
2, 56400, Note_off_c, 0, 42, 80
2, 56400, Note_on_c, 0, 64, 95
2, 56400, Note_on_c, 0, 61, 95
2, 56400, Note_on_c, 0, 58, 95
2, 56400, Note_on_c, 0, 54, 95
2, 56400, Note_on_c, 0, 49, 95
2, 56400, Note_on_c, 0, 42, 95
2, 56520, Note_off_c, 0, 64, 80
2, 56520, Note_off_c, 0, 61, 80
2, 56520, Note_off_c, 0, 58, 80
2, 56520, Note_off_c, 0, 54, 80
2, 56520, Note_off_c, 0, 49, 80
2, 56520, Note_off_c, 0, 42, 80
2, 56520, Note_on_c, 0, 64, 95
2, 56520, Note_on_c, 0, 61, 95
2, 56520, Note_on_c, 0, 58, 95
2, 56520, Note_on_c, 0, 54, 95
2, 56520, Note_on_c, 0, 49, 95
2, 56520, Note_on_c, 0, 42, 95
2, 56640, Note_off_c, 0, 64, 80
2, 56640, Note_off_c, 0, 61, 80
2, 56640, Note_off_c, 0, 58, 80
2, 56640, Note_off_c, 0, 54, 80
2, 56640, Note_off_c, 0, 49, 80
2, 56640, Note_off_c, 0, 42, 80
2, 56640, Note_on_c, 0, 64, 95
2, 56640, Note_on_c, 0, 59, 95
2, 56640, Note_on_c, 0, 56, 95
2, 56640, Note_on_c, 0, 52, 95
2, 56640, Note_on_c, 0, 47, 95
2, 56640, Note_on_c, 0, 40, 95
2, 57360, Note_off_c, 0, 64, 80
2, 57360, Note_off_c, 0, 59, 80
2, 57360, Note_off_c, 0, 56, 80
2, 57360, Note_off_c, 0, 52, 80
2, 57360, Note_off_c, 0, 47, 80
2, 57360, Note_off_c, 0, 40, 80
2, 57360, Note_on_c, 0, 64, 95
2, 57360, Note_on_c, 0, 59, 95
2, 57360, Note_on_c, 0, 56, 95
2, 57360, Note_on_c, 0, 52, 95
2, 57360, Note_on_c, 0, 47, 95
2, 57360, Note_on_c, 0, 40, 95
2, 57480, Note_off_c, 0, 64, 80
2, 57480, Note_off_c, 0, 59, 80
2, 57480, Note_off_c, 0, 56, 80
2, 57480, Note_off_c, 0, 52, 80
2, 57480, Note_off_c, 0, 47, 80
2, 57480, Note_off_c, 0, 40, 80
2, 57480, Note_on_c, 0, 64, 95
2, 57480, Note_on_c, 0, 59, 95
2, 57480, Note_on_c, 0, 56, 95
2, 57480, Note_on_c, 0, 52, 95
2, 57480, Note_on_c, 0, 47, 95
2, 57480, Note_on_c, 0, 40, 95
2, 57600, Note_off_c, 0, 64, 80
2, 57600, Note_off_c, 0, 59, 80
2, 57600, Note_off_c, 0, 56, 80
2, 57600, Note_off_c, 0, 52, 80
2, 57600, Note_off_c, 0, 47, 80
2, 57600, Note_off_c, 0, 40, 80
2, 57600, Note_on_c, 0, 59, 95
2, 57600, Note_on_c, 0, 54, 95
2, 57600, Note_on_c, 0, 47, 95
2, 57720, Note_off_c, 0, 59, 80
2, 57720, Note_off_c, 0, 54, 80
2, 57720, Note_off_c, 0, 47, 80
2, 57960, Note_on_c, 0, 59, 95
2, 57960, Note_on_c, 0, 54, 95
2, 57960, Note_on_c, 0, 47, 95
2, 58080, Note_off_c, 0, 59, 80
2, 58080, Note_off_c, 0, 54, 80
2, 58080, Note_off_c, 0, 47, 80
2, 58080, Note_on_c, 0, 59, 95
2, 58080, Note_on_c, 0, 54, 95
2, 58080, Note_on_c, 0, 47, 95
2, 58320, Note_off_c, 0, 59, 80
2, 58320, Note_off_c, 0, 54, 80
2, 58320, Note_off_c, 0, 47, 80
2, 58320, Note_on_c, 0, 64, 95
2, 58320, Note_on_c, 0, 59, 95
2, 58560, Note_off_c, 0, 64, 80
2, 58560, Note_off_c, 0, 59, 80
2, 58560, Note_on_c, 0, 64, 95
2, 58560, Note_on_c, 0, 59, 95
2, 58560, Note_on_c, 0, 52, 95
2, 58680, Note_off_c, 0, 64, 80
2, 58680, Note_off_c, 0, 59, 80
2, 58680, Note_off_c, 0, 52, 80
2, 58920, Note_on_c, 0, 64, 95
2, 58920, Note_on_c, 0, 59, 95
2, 58920, Note_on_c, 0, 52, 95
2, 59040, Note_off_c, 0, 64, 80
2, 59040, Note_off_c, 0, 59, 80
2, 59040, Note_off_c, 0, 52, 80
2, 59040, Note_on_c, 0, 64, 95
2, 59040, Note_on_c, 0, 59, 95
2, 59040, Note_on_c, 0, 52, 95
2, 59280, Note_off_c, 0, 64, 80
2, 59280, Note_off_c, 0, 59, 80
2, 59280, Note_off_c, 0, 52, 80
2, 59280, Note_on_c, 0, 64, 95
2, 59280, Note_on_c, 0, 59, 95
2, 59520, Note_off_c, 0, 64, 80
2, 59520, Note_off_c, 0, 59, 80
2, 59520, Note_on_c, 0, 66, 95
2, 59520, Note_on_c, 0, 61, 95
2, 59520, Note_on_c, 0, 54, 95
2, 59640, Note_off_c, 0, 66, 80
2, 59640, Note_off_c, 0, 61, 80
2, 59640, Note_off_c, 0, 54, 80
2, 59880, Note_on_c, 0, 66, 95
2, 59880, Note_on_c, 0, 61, 95
2, 59880, Note_on_c, 0, 54, 95
2, 60000, Note_off_c, 0, 66, 80
2, 60000, Note_off_c, 0, 61, 80
2, 60000, Note_off_c, 0, 54, 80
2, 60000, Note_on_c, 0, 66, 95
2, 60000, Note_on_c, 0, 61, 95
2, 60000, Note_on_c, 0, 54, 95
2, 60240, Note_off_c, 0, 66, 80
2, 60240, Note_off_c, 0, 61, 80
2, 60240, Note_off_c, 0, 54, 80
2, 60240, Note_on_c, 0, 64, 95
2, 60240, Note_on_c, 0, 59, 95
2, 60480, Note_off_c, 0, 64, 80
2, 60480, Note_off_c, 0, 59, 80
2, 60480, Note_on_c, 0, 64, 95
2, 60480, Note_on_c, 0, 59, 95
2, 60480, Note_on_c, 0, 52, 95
2, 60600, Note_off_c, 0, 64, 80
2, 60600, Note_off_c, 0, 59, 80
2, 60600, Note_off_c, 0, 52, 80
2, 60840, Note_on_c, 0, 64, 95
2, 60840, Note_on_c, 0, 59, 95
2, 60840, Note_on_c, 0, 52, 95
2, 60960, Note_off_c, 0, 64, 80
2, 60960, Note_off_c, 0, 59, 80
2, 60960, Note_off_c, 0, 52, 80
2, 60960, Note_on_c, 0, 64, 95
2, 60960, Note_on_c, 0, 59, 95
2, 60960, Note_on_c, 0, 52, 95
2, 61200, Note_off_c, 0, 64, 80
2, 61200, Note_off_c, 0, 59, 80
2, 61200, Note_off_c, 0, 52, 80
2, 61200, Note_on_c, 0, 64, 95
2, 61200, Note_on_c, 0, 59, 95
2, 61440, Note_off_c, 0, 64, 80
2, 61440, Note_off_c, 0, 59, 80
2, 61440, Note_on_c, 0, 59, 95
2, 61440, Note_on_c, 0, 54, 95
2, 61440, Note_on_c, 0, 47, 95
2, 61560, Note_off_c, 0, 59, 80
2, 61560, Note_off_c, 0, 54, 80
2, 61560, Note_off_c, 0, 47, 80
2, 61800, Note_on_c, 0, 59, 95
2, 61800, Note_on_c, 0, 54, 95
2, 61800, Note_on_c, 0, 47, 95
2, 61920, Note_off_c, 0, 59, 80
2, 61920, Note_off_c, 0, 54, 80
2, 61920, Note_off_c, 0, 47, 80
2, 61920, Note_on_c, 0, 59, 95
2, 61920, Note_on_c, 0, 54, 95
2, 61920, Note_on_c, 0, 47, 95
2, 62160, Note_off_c, 0, 59, 80
2, 62160, Note_off_c, 0, 54, 80
2, 62160, Note_off_c, 0, 47, 80
2, 62160, Note_on_c, 0, 64, 95
2, 62160, Note_on_c, 0, 59, 95
2, 62400, Note_off_c, 0, 64, 80
2, 62400, Note_off_c, 0, 59, 80
2, 62400, Note_on_c, 0, 64, 95
2, 62400, Note_on_c, 0, 59, 95
2, 62400, Note_on_c, 0, 52, 95
2, 62520, Note_off_c, 0, 64, 80
2, 62520, Note_off_c, 0, 59, 80
2, 62520, Note_off_c, 0, 52, 80
2, 62760, Note_on_c, 0, 64, 95
2, 62760, Note_on_c, 0, 59, 95
2, 62760, Note_on_c, 0, 52, 95
2, 62880, Note_off_c, 0, 64, 80
2, 62880, Note_off_c, 0, 59, 80
2, 62880, Note_off_c, 0, 52, 80
2, 62880, Note_on_c, 0, 64, 95
2, 62880, Note_on_c, 0, 59, 95
2, 62880, Note_on_c, 0, 52, 95
2, 63120, Note_off_c, 0, 64, 80
2, 63120, Note_off_c, 0, 59, 80
2, 63120, Note_off_c, 0, 52, 80
2, 63120, Note_on_c, 0, 64, 95
2, 63120, Note_on_c, 0, 59, 95
2, 63360, Note_off_c, 0, 64, 80
2, 63360, Note_off_c, 0, 59, 80
2, 63360, Note_on_c, 0, 66, 95
2, 63360, Note_on_c, 0, 61, 95
2, 63360, Note_on_c, 0, 54, 95
2, 63480, Note_off_c, 0, 66, 80
2, 63480, Note_off_c, 0, 61, 80
2, 63480, Note_off_c, 0, 54, 80
2, 63720, Note_on_c, 0, 66, 95
2, 63720, Note_on_c, 0, 61, 95
2, 63720, Note_on_c, 0, 54, 95
2, 63840, Note_off_c, 0, 66, 80
2, 63840, Note_off_c, 0, 61, 80
2, 63840, Note_off_c, 0, 54, 80
2, 63840, Note_on_c, 0, 66, 95
2, 63840, Note_on_c, 0, 61, 95
2, 63840, Note_on_c, 0, 54, 95
2, 64080, Note_off_c, 0, 66, 80
2, 64080, Note_off_c, 0, 61, 80
2, 64080, Note_off_c, 0, 54, 80
2, 64080, Note_on_c, 0, 64, 95
2, 64080, Note_on_c, 0, 59, 95
2, 64320, Note_off_c, 0, 64, 80
2, 64320, Note_off_c, 0, 59, 80
2, 64320, Note_on_c, 0, 64, 95
2, 64320, Note_on_c, 0, 59, 95
2, 64320, Note_on_c, 0, 52, 95
2, 64440, Note_off_c, 0, 64, 80
2, 64440, Note_off_c, 0, 59, 80
2, 64440, Note_off_c, 0, 52, 80
2, 64680, Note_on_c, 0, 64, 95
2, 64680, Note_on_c, 0, 59, 95
2, 64680, Note_on_c, 0, 52, 95
2, 64800, Note_off_c, 0, 64, 80
2, 64800, Note_off_c, 0, 59, 80
2, 64800, Note_off_c, 0, 52, 80
2, 64800, Note_on_c, 0, 64, 95
2, 64800, Note_on_c, 0, 59, 95
2, 64800, Note_on_c, 0, 52, 95
2, 65040, Note_off_c, 0, 64, 80
2, 65040, Note_off_c, 0, 59, 80
2, 65040, Note_off_c, 0, 52, 80
2, 65040, Note_on_c, 0, 64, 95
2, 65040, Note_on_c, 0, 59, 95
2, 65280, Note_off_c, 0, 64, 80
2, 65280, Note_off_c, 0, 59, 80
2, 65280, Note_on_c, 0, 59, 95
2, 65280, Note_on_c, 0, 54, 95
2, 65280, Note_on_c, 0, 47, 95
2, 65400, Note_off_c, 0, 59, 80
2, 65400, Note_off_c, 0, 54, 80
2, 65400, Note_off_c, 0, 47, 80
2, 65640, Note_on_c, 0, 59, 95
2, 65640, Note_on_c, 0, 54, 95
2, 65640, Note_on_c, 0, 47, 95
2, 65760, Note_off_c, 0, 59, 80
2, 65760, Note_off_c, 0, 54, 80
2, 65760, Note_off_c, 0, 47, 80
2, 65760, Note_on_c, 0, 59, 95
2, 65760, Note_on_c, 0, 54, 95
2, 65760, Note_on_c, 0, 47, 95
2, 66000, Note_off_c, 0, 59, 80
2, 66000, Note_off_c, 0, 54, 80
2, 66000, Note_off_c, 0, 47, 80
2, 66000, Note_on_c, 0, 57, 95
2, 66060, Note_off_c, 0, 57, 80
2, 66060, Note_on_c, 0, 59, 76
2, 66120, Note_off_c, 0, 59, 80
2, 66120, Note_on_c, 0, 57, 76
2, 66180, Note_off_c, 0, 57, 80
2, 66180, Note_on_c, 0, 50, 76
2, 66240, Note_off_c, 0, 50, 80
2, 66240, Note_on_c, 0, 57, 95
2, 66240, Note_on_c, 0, 52, 95
2, 66240, Note_on_c, 0, 45, 95
2, 66360, Note_off_c, 0, 57, 80
2, 66360, Note_off_c, 0, 52, 80
2, 66360, Note_off_c, 0, 45, 80
2, 66360, Note_on_c, 0, 57, 95
2, 66360, Note_on_c, 0, 52, 95
2, 66360, Note_on_c, 0, 45, 95
2, 66480, Note_off_c, 0, 57, 80
2, 66480, Note_off_c, 0, 52, 80
2, 66480, Note_off_c, 0, 45, 80
2, 66600, Note_on_c, 0, 57, 95
2, 66600, Note_on_c, 0, 52, 95
2, 66600, Note_on_c, 0, 45, 95
2, 66720, Note_off_c, 0, 57, 80
2, 66720, Note_off_c, 0, 52, 80
2, 66720, Note_off_c, 0, 45, 80
2, 66720, Note_on_c, 0, 57, 95
2, 66720, Note_on_c, 0, 52, 95
2, 66720, Note_on_c, 0, 45, 95
2, 66960, Note_off_c, 0, 57, 80
2, 66960, Note_off_c, 0, 52, 80
2, 66960, Note_off_c, 0, 45, 80
2, 66960, Note_on_c, 0, 57, 95
2, 67020, Note_off_c, 0, 57, 80
2, 67020, Note_on_c, 0, 59, 76
2, 67080, Note_off_c, 0, 59, 80
2, 67080, Note_on_c, 0, 57, 76
2, 67140, Note_off_c, 0, 57, 80
2, 67140, Note_on_c, 0, 50, 76
2, 67200, Note_off_c, 0, 50, 80
2, 67200, Note_on_c, 0, 64, 95
2, 67200, Note_on_c, 0, 59, 95
2, 67200, Note_on_c, 0, 52, 95
2, 67320, Note_off_c, 0, 64, 80
2, 67320, Note_off_c, 0, 59, 80
2, 67320, Note_off_c, 0, 52, 80
2, 67320, Note_on_c, 0, 64, 95
2, 67320, Note_on_c, 0, 59, 95
2, 67320, Note_on_c, 0, 52, 95
2, 67440, Note_off_c, 0, 64, 80
2, 67440, Note_off_c, 0, 59, 80
2, 67440, Note_off_c, 0, 52, 80
2, 67560, Note_on_c, 0, 64, 95
2, 67560, Note_on_c, 0, 59, 95
2, 67560, Note_on_c, 0, 52, 95
2, 67680, Note_off_c, 0, 64, 80
2, 67680, Note_off_c, 0, 59, 80
2, 67680, Note_off_c, 0, 52, 80
2, 67680, Note_on_c, 0, 64, 95
2, 67680, Note_on_c, 0, 59, 95
2, 67680, Note_on_c, 0, 52, 95
2, 67920, Note_off_c, 0, 64, 80
2, 67920, Note_off_c, 0, 59, 80
2, 67920, Note_off_c, 0, 52, 80
2, 67920, Note_on_c, 0, 64, 95
2, 67920, Note_on_c, 0, 59, 95
2, 67920, Note_on_c, 0, 52, 95
2, 68160, Note_off_c, 0, 64, 80
2, 68160, Note_off_c, 0, 59, 80
2, 68160, Note_off_c, 0, 52, 80
2, 68160, Note_on_c, 0, 66, 95
2, 68160, Note_on_c, 0, 61, 95
2, 68160, Note_on_c, 0, 54, 95
2, 68280, Note_off_c, 0, 66, 80
2, 68280, Note_off_c, 0, 61, 80
2, 68280, Note_off_c, 0, 54, 80
2, 68280, Note_on_c, 0, 66, 95
2, 68280, Note_on_c, 0, 61, 95
2, 68280, Note_on_c, 0, 54, 95
2, 68400, Note_off_c, 0, 66, 80
2, 68400, Note_off_c, 0, 61, 80
2, 68400, Note_off_c, 0, 54, 80
2, 68520, Note_on_c, 0, 66, 95
2, 68520, Note_on_c, 0, 61, 95
2, 68520, Note_on_c, 0, 54, 95
2, 68640, Note_off_c, 0, 66, 80
2, 68640, Note_off_c, 0, 61, 80
2, 68640, Note_off_c, 0, 54, 80
2, 68640, Note_on_c, 0, 66, 95
2, 68640, Note_on_c, 0, 61, 95
2, 68640, Note_on_c, 0, 54, 95
2, 68880, Note_off_c, 0, 66, 80
2, 68880, Note_off_c, 0, 61, 80
2, 68880, Note_off_c, 0, 54, 80
2, 68880, Note_on_c, 0, 57, 95
2, 68940, Note_off_c, 0, 57, 80
2, 68940, Note_on_c, 0, 59, 76
2, 69000, Note_off_c, 0, 59, 80
2, 69000, Note_on_c, 0, 57, 76
2, 69060, Note_off_c, 0, 57, 80
2, 69060, Note_on_c, 0, 50, 76
2, 69120, Note_off_c, 0, 50, 80
2, 69120, Note_on_c, 0, 59, 95
2, 69120, Note_on_c, 0, 54, 95
2, 69120, Note_on_c, 0, 47, 95
2, 69240, Note_off_c, 0, 59, 80
2, 69240, Note_off_c, 0, 54, 80
2, 69240, Note_off_c, 0, 47, 80
2, 69480, Note_on_c, 0, 59, 95
2, 69480, Note_on_c, 0, 54, 95
2, 69480, Note_on_c, 0, 47, 95
2, 69600, Note_off_c, 0, 59, 80
2, 69600, Note_off_c, 0, 54, 80
2, 69600, Note_off_c, 0, 47, 80
2, 69600, Note_on_c, 0, 59, 95
2, 69600, Note_on_c, 0, 54, 95
2, 69600, Note_on_c, 0, 47, 95
2, 69840, Note_off_c, 0, 59, 80
2, 69840, Note_off_c, 0, 54, 80
2, 69840, Note_off_c, 0, 47, 80
2, 69840, Note_on_c, 0, 64, 95
2, 69840, Note_on_c, 0, 59, 95
2, 70080, Note_off_c, 0, 64, 80
2, 70080, Note_off_c, 0, 59, 80
2, 70080, Note_on_c, 0, 64, 95
2, 70080, Note_on_c, 0, 59, 95
2, 70080, Note_on_c, 0, 52, 95
2, 70200, Note_off_c, 0, 64, 80
2, 70200, Note_off_c, 0, 59, 80
2, 70200, Note_off_c, 0, 52, 80
2, 70440, Note_on_c, 0, 64, 95
2, 70440, Note_on_c, 0, 59, 95
2, 70440, Note_on_c, 0, 52, 95
2, 70560, Note_off_c, 0, 64, 80
2, 70560, Note_off_c, 0, 59, 80
2, 70560, Note_off_c, 0, 52, 80
2, 70560, Note_on_c, 0, 64, 95
2, 70560, Note_on_c, 0, 59, 95
2, 70560, Note_on_c, 0, 52, 95
2, 70800, Note_off_c, 0, 64, 80
2, 70800, Note_off_c, 0, 59, 80
2, 70800, Note_off_c, 0, 52, 80
2, 70800, Note_on_c, 0, 64, 95
2, 70800, Note_on_c, 0, 59, 95
2, 71040, Note_off_c, 0, 64, 80
2, 71040, Note_off_c, 0, 59, 80
2, 71040, Note_on_c, 0, 54, 95
2, 71040, Note_on_c, 0, 49, 95
2, 71040, Note_on_c, 0, 42, 95
2, 72000, Note_off_c, 0, 54, 80
2, 72000, Note_off_c, 0, 49, 80
2, 72000, Note_off_c, 0, 42, 80
2, 72000, Note_on_c, 0, 52, 95
2, 72000, Note_on_c, 0, 47, 95
2, 72000, Note_on_c, 0, 40, 95
2, 72960, Note_off_c, 0, 52, 80
2, 72960, Note_off_c, 0, 47, 80
2, 72960, Note_off_c, 0, 40, 80
2, 72960, Note_on_c, 0, 66, 95
2, 72960, Note_on_c, 0, 62, 95
2, 72960, Note_on_c, 0, 57, 95
2, 73080, Note_off_c, 0, 66, 80
2, 73080, Note_off_c, 0, 62, 80
2, 73080, Note_off_c, 0, 57, 80
2, 73080, Note_on_c, 0, 63, 76
2, 73200, Note_off_c, 0, 63, 80
2, 73200, Note_on_c, 0, 62, 95
2, 73320, Note_off_c, 0, 62, 80
2, 73320, Note_on_c, 0, 63, 76
2, 73440, Note_off_c, 0, 63, 80
2, 73440, Note_on_c, 0, 66, 95
2, 73440, Note_on_c, 0, 63, 95
2, 73440, Note_on_c, 0, 57, 95
2, 73560, Note_off_c, 0, 66, 80
2, 73560, Note_off_c, 0, 63, 80
2, 73560, Note_off_c, 0, 57, 80
2, 73800, Note_on_c, 0, 50, 95
2, 73920, Note_off_c, 0, 50, 80
2, 73920, Note_on_c, 0, 52, 76
2, 74040, Note_off_c, 0, 52, 80
2, 74040, Note_on_c, 0, 59, 95
2, 74040, Note_on_c, 0, 56, 95
2, 74040, Note_on_c, 0, 52, 95
2, 74160, Note_off_c, 0, 59, 80
2, 74160, Note_off_c, 0, 56, 80
2, 74160, Note_off_c, 0, 52, 80
2, 74640, Note_on_c, 0, 66, 95
2, 74640, Note_on_c, 0, 61, 95
2, 74640, Note_on_c, 0, 58, 95
2, 74640, Note_on_c, 0, 54, 95
2, 74640, Note_on_c, 0, 49, 95
2, 76800, Note_off_c, 0, 66, 80
2, 76800, Note_off_c, 0, 61, 80
2, 76800, Note_off_c, 0, 58, 80
2, 76800, Note_off_c, 0, 54, 80
2, 76800, Note_off_c, 0, 49, 80
2, 76800, Note_on_c, 0, 66, 95
2, 76800, Note_on_c, 0, 62, 95
2, 76800, Note_on_c, 0, 57, 95
2, 76920, Note_off_c, 0, 66, 80
2, 76920, Note_off_c, 0, 62, 80
2, 76920, Note_off_c, 0, 57, 80
2, 76920, Note_on_c, 0, 63, 76
2, 77040, Note_off_c, 0, 63, 80
2, 77040, Note_on_c, 0, 62, 95
2, 77160, Note_off_c, 0, 62, 80
2, 77160, Note_on_c, 0, 63, 76
2, 77280, Note_off_c, 0, 63, 80
2, 77280, Note_on_c, 0, 66, 95
2, 77280, Note_on_c, 0, 63, 95
2, 77280, Note_on_c, 0, 57, 95
2, 77400, Note_off_c, 0, 66, 80
2, 77400, Note_off_c, 0, 63, 80
2, 77400, Note_off_c, 0, 57, 80
2, 77640, Note_on_c, 0, 50, 95
2, 77760, Note_off_c, 0, 50, 80
2, 77760, Note_on_c, 0, 52, 76
2, 77880, Note_off_c, 0, 52, 80
2, 77880, Note_on_c, 0, 59, 95
2, 77880, Note_on_c, 0, 56, 95
2, 77880, Note_on_c, 0, 52, 95
2, 78000, Note_off_c, 0, 59, 80
2, 78000, Note_off_c, 0, 56, 80
2, 78000, Note_off_c, 0, 52, 80
2, 78600, Note_on_c, 0, 61, 95
2, 78600, Note_on_c, 0, 58, 95
2, 78600, Note_on_c, 0, 54, 95
2, 78600, Note_on_c, 0, 49, 95
2, 78720, Note_off_c, 0, 61, 80
2, 78720, Note_off_c, 0, 58, 80
2, 78720, Note_off_c, 0, 54, 80
2, 78720, Note_off_c, 0, 49, 80
2, 78720, Note_on_c, 0, 61, 95
2, 78720, Note_on_c, 0, 58, 95
2, 78720, Note_on_c, 0, 54, 95
2, 78720, Note_on_c, 0, 49, 95
2, 80640, Note_off_c, 0, 61, 80
2, 80640, Note_off_c, 0, 58, 80
2, 80640, Note_off_c, 0, 54, 80
2, 80640, Note_off_c, 0, 49, 80
2, 81600, Note_on_c, 0, 52, 95
2, 81600, Note_on_c, 0, 45, 95
2, 81660, Note_off_c, 0, 52, 80
2, 81660, Note_off_c, 0, 45, 80
2, 81840, Note_on_c, 0, 52, 95
2, 81840, Note_on_c, 0, 45, 95
2, 81900, Note_off_c, 0, 52, 80
2, 81900, Note_off_c, 0, 45, 80
2, 82080, Note_on_c, 0, 52, 95
2, 82080, Note_on_c, 0, 45, 95
2, 82320, Note_off_c, 0, 52, 80
2, 82320, Note_off_c, 0, 45, 80
2, 82320, Note_on_c, 0, 52, 95
2, 82320, Note_on_c, 0, 45, 95
2, 82560, Note_off_c, 0, 52, 80
2, 82560, Note_off_c, 0, 45, 80
2, 82560, Note_on_c, 0, 52, 95
2, 82560, Note_on_c, 0, 46, 95
2, 82800, Note_off_c, 0, 52, 80
2, 82800, Note_off_c, 0, 46, 80
2, 82800, Note_on_c, 0, 40, 95
2, 82860, Note_off_c, 0, 40, 80
2, 83040, Note_on_c, 0, 52, 95
2, 83040, Note_on_c, 0, 45, 95
2, 83100, Note_off_c, 0, 52, 80
2, 83100, Note_off_c, 0, 45, 80
2, 83280, Note_on_c, 0, 52, 95
2, 83280, Note_on_c, 0, 45, 95
2, 83310, Note_off_c, 0, 52, 80
2, 83310, Note_off_c, 0, 45, 80
2, 83400, Note_on_c, 0, 52, 95
2, 83400, Note_on_c, 0, 45, 95
2, 83430, Note_off_c, 0, 52, 80
2, 83430, Note_off_c, 0, 45, 80
2, 83520, Note_on_c, 1, 54, 95
2, 83588, Pitch_bend_c, 1, 7552
2, 83593, Pitch_bend_c, 1, 6784
2, 83599, Pitch_bend_c, 1, 6144
2, 83604, Pitch_bend_c, 1, 5504
2, 83610, Note_off_c, 1, 54, 80
2, 83610, Pitch_bend_c, 1, 8192
2, 83610, Note_on_c, 0, 49, 76
2, 83640, Note_off_c, 0, 49, 80
2, 83640, Note_on_c, 0, 45, 95
2, 83640, Note_on_c, 0, 40, 95
2, 83670, Note_off_c, 0, 45, 80
2, 83670, Note_off_c, 0, 40, 80
2, 83760, Note_on_c, 0, 45, 95
2, 83760, Note_on_c, 0, 40, 95
2, 83820, Note_off_c, 0, 45, 80
2, 83820, Note_off_c, 0, 40, 80
2, 84000, Note_on_c, 0, 45, 95
2, 84000, Note_on_c, 0, 40, 95
2, 84060, Note_off_c, 0, 45, 80
2, 84060, Note_off_c, 0, 40, 80
2, 84240, Note_on_c, 0, 45, 95
2, 84240, Note_on_c, 0, 40, 95
2, 84300, Note_off_c, 0, 45, 80
2, 84300, Note_off_c, 0, 40, 80
2, 84480, Note_on_c, 0, 66, 95
2, 84480, Note_on_c, 0, 62, 95
2, 84480, Note_on_c, 0, 57, 95
2, 84600, Note_off_c, 0, 66, 80
2, 84600, Note_off_c, 0, 62, 80
2, 84600, Note_off_c, 0, 57, 80
2, 84600, Note_on_c, 0, 63, 76
2, 84720, Note_off_c, 0, 63, 80
2, 84720, Note_on_c, 0, 62, 95
2, 84840, Note_off_c, 0, 62, 80
2, 84840, Note_on_c, 0, 63, 76
2, 84960, Note_off_c, 0, 63, 80
2, 84960, Note_on_c, 0, 66, 95
2, 84960, Note_on_c, 0, 63, 95
2, 84960, Note_on_c, 0, 57, 95
2, 85080, Note_off_c, 0, 66, 80
2, 85080, Note_off_c, 0, 63, 80
2, 85080, Note_off_c, 0, 57, 80
2, 85320, Note_on_c, 0, 50, 95
2, 85440, Note_off_c, 0, 50, 80
2, 85440, Note_on_c, 0, 52, 76
2, 85560, Note_off_c, 0, 52, 80
2, 85560, Note_on_c, 0, 59, 95
2, 85560, Note_on_c, 0, 56, 95
2, 85560, Note_on_c, 0, 52, 95
2, 85680, Note_off_c, 0, 59, 80
2, 85680, Note_off_c, 0, 56, 80
2, 85680, Note_off_c, 0, 52, 80
2, 86160, Note_on_c, 0, 66, 95
2, 86160, Note_on_c, 0, 61, 95
2, 86160, Note_on_c, 0, 58, 95
2, 86160, Note_on_c, 0, 54, 95
2, 86160, Note_on_c, 0, 49, 95
2, 88320, Note_off_c, 0, 66, 80
2, 88320, Note_off_c, 0, 61, 80
2, 88320, Note_off_c, 0, 58, 80
2, 88320, Note_off_c, 0, 54, 80
2, 88320, Note_off_c, 0, 49, 80
2, 88320, Note_on_c, 0, 66, 95
2, 88320, Note_on_c, 0, 62, 95
2, 88320, Note_on_c, 0, 57, 95
2, 88440, Note_off_c, 0, 66, 80
2, 88440, Note_off_c, 0, 62, 80
2, 88440, Note_off_c, 0, 57, 80
2, 88440, Note_on_c, 0, 63, 76
2, 88560, Note_off_c, 0, 63, 80
2, 88560, Note_on_c, 0, 62, 95
2, 88680, Note_off_c, 0, 62, 80
2, 88680, Note_on_c, 0, 63, 76
2, 88800, Note_off_c, 0, 63, 80
2, 88800, Note_on_c, 0, 66, 95
2, 88800, Note_on_c, 0, 63, 95
2, 88800, Note_on_c, 0, 57, 95
2, 88920, Note_off_c, 0, 66, 80
2, 88920, Note_off_c, 0, 63, 80
2, 88920, Note_off_c, 0, 57, 80
2, 89160, Note_on_c, 0, 50, 95
2, 89280, Note_off_c, 0, 50, 80
2, 89280, Note_on_c, 0, 52, 76
2, 89400, Note_off_c, 0, 52, 80
2, 89400, Note_on_c, 0, 59, 95
2, 89400, Note_on_c, 0, 56, 95
2, 89400, Note_on_c, 0, 52, 95
2, 89520, Note_off_c, 0, 59, 80
2, 89520, Note_off_c, 0, 56, 80
2, 89520, Note_off_c, 0, 52, 80
2, 90000, Note_on_c, 0, 66, 95
2, 90000, Note_on_c, 0, 61, 95
2, 90000, Note_on_c, 0, 58, 95
2, 90000, Note_on_c, 0, 54, 95
2, 90000, Note_on_c, 0, 49, 95
2, 92160, Note_off_c, 0, 66, 80
2, 92160, Note_off_c, 0, 61, 80
2, 92160, Note_off_c, 0, 58, 80
2, 92160, Note_off_c, 0, 54, 80
2, 92160, Note_off_c, 0, 49, 80
2, 92160, Note_on_c, 0, 66, 95
2, 92160, Note_on_c, 0, 62, 95
2, 92160, Note_on_c, 0, 57, 95
2, 92280, Note_off_c, 0, 66, 80
2, 92280, Note_off_c, 0, 62, 80
2, 92280, Note_off_c, 0, 57, 80
2, 92280, Note_on_c, 0, 63, 76
2, 92400, Note_off_c, 0, 63, 80
2, 92400, Note_on_c, 0, 62, 95
2, 92520, Note_off_c, 0, 62, 80
2, 92520, Note_on_c, 0, 63, 76
2, 92640, Note_off_c, 0, 63, 80
2, 92640, Note_on_c, 0, 66, 95
2, 92640, Note_on_c, 0, 63, 95
2, 92640, Note_on_c, 0, 57, 95
2, 92760, Note_off_c, 0, 66, 80
2, 92760, Note_off_c, 0, 63, 80
2, 92760, Note_off_c, 0, 57, 80
2, 93000, Note_on_c, 0, 64, 95
2, 93000, Note_on_c, 0, 61, 95
2, 93000, Note_on_c, 0, 57, 95
2, 93120, Note_off_c, 0, 64, 80
2, 93120, Note_off_c, 0, 61, 80
2, 93120, Note_off_c, 0, 57, 80
2, 93120, Note_on_c, 0, 64, 95
2, 93120, Note_on_c, 0, 61, 95
2, 93120, Note_on_c, 0, 57, 95
2, 93360, Note_off_c, 0, 64, 80
2, 93360, Note_off_c, 0, 61, 80
2, 93360, Note_off_c, 0, 57, 80
2, 93840, Note_on_c, 0, 59, 95
2, 93840, Note_on_c, 0, 55, 95
2, 94080, Note_off_c, 0, 59, 80
2, 94080, Note_off_c, 0, 55, 80
2, 94080, Note_on_c, 0, 59, 95
2, 94080, Note_on_c, 0, 56, 95
2, 94440, Note_off_c, 0, 59, 80
2, 94440, Note_off_c, 0, 56, 80
2, 94440, Note_on_c, 0, 55, 95
2, 94800, Note_off_c, 0, 55, 80
2, 94800, Note_on_c, 0, 50, 95
2, 95040, Note_off_c, 0, 50, 80
2, 95040, Note_on_c, 0, 58, 95
2, 95760, Note_off_c, 0, 58, 80
2, 95760, Note_on_c, 0, 55, 95
2, 96000, Note_off_c, 0, 55, 80
2, 96000, Note_on_c, 0, 45, 95
2, 96480, Note_off_c, 0, 45, 80
2, 96480, Note_on_c, 0, 71, 95
2, 96480, Note_on_c, 0, 66, 95
2, 96600, Note_off_c, 0, 71, 80
2, 96600, Note_off_c, 0, 66, 80
2, 96840, Note_on_c, 0, 55, 95
2, 96960, Note_off_c, 0, 55, 80
2, 96960, Note_on_c, 0, 56, 76
2, 97080, Note_off_c, 0, 56, 80
2, 97080, Note_on_c, 0, 64, 95
2, 97080, Note_on_c, 0, 59, 95
2, 97200, Note_off_c, 0, 64, 80
2, 97200, Note_off_c, 0, 59, 80
2, 97680, Note_on_c, 0, 56, 95
2, 97680, Note_on_c, 0, 52, 95
2, 97680, Note_on_c, 0, 47, 95
2, 97680, Note_on_c, 0, 40, 95
2, 97800, Note_off_c, 0, 56, 80
2, 97800, Note_off_c, 0, 52, 80
2, 97800, Note_off_c, 0, 47, 80
2, 97800, Note_off_c, 0, 40, 80
2, 97800, Note_on_c, 0, 56, 95
2, 97800, Note_on_c, 0, 52, 95
2, 97800, Note_on_c, 0, 47, 95
2, 97800, Note_on_c, 0, 40, 95
2, 97920, Note_off_c, 0, 56, 80
2, 97920, Note_off_c, 0, 52, 80
2, 97920, Note_off_c, 0, 47, 80
2, 97920, Note_off_c, 0, 40, 80
2, 97920, Note_on_c, 0, 66, 95
2, 97920, Note_on_c, 0, 61, 95
2, 97920, Note_on_c, 0, 58, 95
2, 97920, Note_on_c, 0, 54, 95
2, 97920, Note_on_c, 0, 49, 95
2, 97920, Note_on_c, 0, 42, 95
2, 98640, Note_off_c, 0, 66, 80
2, 98640, Note_off_c, 0, 61, 80
2, 98640, Note_off_c, 0, 58, 80
2, 98640, Note_off_c, 0, 54, 80
2, 98640, Note_off_c, 0, 49, 80
2, 98640, Note_off_c, 0, 42, 80
2, 98640, Note_on_c, 0, 64, 95
2, 98640, Note_on_c, 0, 59, 95
2, 98640, Note_on_c, 0, 56, 95
2, 98640, Note_on_c, 0, 52, 95
2, 98760, Note_off_c, 0, 64, 80
2, 98760, Note_off_c, 0, 59, 80
2, 98760, Note_off_c, 0, 56, 80
2, 98760, Note_off_c, 0, 52, 80
2, 98760, Note_on_c, 0, 64, 95
2, 98760, Note_on_c, 0, 59, 95
2, 98760, Note_on_c, 0, 56, 95
2, 98760, Note_on_c, 0, 52, 95
2, 98880, Note_off_c, 0, 64, 80
2, 98880, Note_off_c, 0, 59, 80
2, 98880, Note_off_c, 0, 56, 80
2, 98880, Note_off_c, 0, 52, 80
2, 98880, Note_on_c, 0, 64, 95
2, 98880, Note_on_c, 0, 59, 95
2, 98880, Note_on_c, 0, 56, 95
2, 98880, Note_on_c, 0, 52, 95
2, 99720, Note_off_c, 0, 64, 80
2, 99720, Note_off_c, 0, 59, 80
2, 99720, Note_off_c, 0, 56, 80
2, 99720, Note_off_c, 0, 52, 80
2, 99720, Note_on_c, 0, 64, 95
2, 99720, Note_on_c, 0, 61, 95
2, 99720, Note_on_c, 0, 58, 95
2, 99720, Note_on_c, 0, 54, 95
2, 99720, Note_on_c, 0, 49, 95
2, 99720, Note_on_c, 0, 42, 95
2, 99840, Note_off_c, 0, 64, 80
2, 99840, Note_off_c, 0, 61, 80
2, 99840, Note_off_c, 0, 58, 80
2, 99840, Note_off_c, 0, 54, 80
2, 99840, Note_off_c, 0, 49, 80
2, 99840, Note_off_c, 0, 42, 80
2, 99840, Note_on_c, 0, 64, 95
2, 99840, Note_on_c, 0, 61, 95
2, 99840, Note_on_c, 0, 58, 95
2, 99840, Note_on_c, 0, 54, 95
2, 99840, Note_on_c, 0, 49, 95
2, 99840, Note_on_c, 0, 42, 95
2, 100560, Note_off_c, 0, 64, 80
2, 100560, Note_off_c, 0, 61, 80
2, 100560, Note_off_c, 0, 58, 80
2, 100560, Note_off_c, 0, 54, 80
2, 100560, Note_off_c, 0, 49, 80
2, 100560, Note_off_c, 0, 42, 80
2, 100560, Note_on_c, 0, 64, 95
2, 100560, Note_on_c, 0, 61, 95
2, 100560, Note_on_c, 0, 58, 95
2, 100560, Note_on_c, 0, 54, 95
2, 100560, Note_on_c, 0, 49, 95
2, 100560, Note_on_c, 0, 42, 95
2, 100680, Note_off_c, 0, 64, 80
2, 100680, Note_off_c, 0, 61, 80
2, 100680, Note_off_c, 0, 58, 80
2, 100680, Note_off_c, 0, 54, 80
2, 100680, Note_off_c, 0, 49, 80
2, 100680, Note_off_c, 0, 42, 80
2, 100680, Note_on_c, 0, 64, 95
2, 100680, Note_on_c, 0, 61, 95
2, 100680, Note_on_c, 0, 58, 95
2, 100680, Note_on_c, 0, 54, 95
2, 100680, Note_on_c, 0, 49, 95
2, 100680, Note_on_c, 0, 42, 95
2, 100800, Note_off_c, 0, 64, 80
2, 100800, Note_off_c, 0, 61, 80
2, 100800, Note_off_c, 0, 58, 80
2, 100800, Note_off_c, 0, 54, 80
2, 100800, Note_off_c, 0, 49, 80
2, 100800, Note_off_c, 0, 42, 80
2, 100800, Note_on_c, 0, 64, 95
2, 100800, Note_on_c, 0, 59, 95
2, 100800, Note_on_c, 0, 56, 95
2, 100800, Note_on_c, 0, 52, 95
2, 100800, Note_on_c, 0, 47, 95
2, 100800, Note_on_c, 0, 40, 95
2, 101520, Note_off_c, 0, 64, 80
2, 101520, Note_off_c, 0, 59, 80
2, 101520, Note_off_c, 0, 56, 80
2, 101520, Note_off_c, 0, 52, 80
2, 101520, Note_off_c, 0, 47, 80
2, 101520, Note_off_c, 0, 40, 80
2, 101520, Note_on_c, 0, 64, 95
2, 101520, Note_on_c, 0, 59, 95
2, 101520, Note_on_c, 0, 56, 95
2, 101520, Note_on_c, 0, 52, 95
2, 101520, Note_on_c, 0, 47, 95
2, 101520, Note_on_c, 0, 40, 95
2, 101640, Note_off_c, 0, 64, 80
2, 101640, Note_off_c, 0, 59, 80
2, 101640, Note_off_c, 0, 56, 80
2, 101640, Note_off_c, 0, 52, 80
2, 101640, Note_off_c, 0, 47, 80
2, 101640, Note_off_c, 0, 40, 80
2, 101640, Note_on_c, 0, 64, 95
2, 101640, Note_on_c, 0, 59, 95
2, 101640, Note_on_c, 0, 56, 95
2, 101640, Note_on_c, 0, 52, 95
2, 101640, Note_on_c, 0, 47, 95
2, 101640, Note_on_c, 0, 40, 95
2, 101760, Note_off_c, 0, 64, 80
2, 101760, Note_off_c, 0, 59, 80
2, 101760, Note_off_c, 0, 56, 80
2, 101760, Note_off_c, 0, 52, 80
2, 101760, Note_off_c, 0, 47, 80
2, 101760, Note_off_c, 0, 40, 80
2, 101760, Note_on_c, 0, 59, 95
2, 101760, Note_on_c, 0, 54, 95
2, 101760, Note_on_c, 0, 47, 95
2, 101880, Note_off_c, 0, 59, 80
2, 101880, Note_off_c, 0, 54, 80
2, 101880, Note_off_c, 0, 47, 80
2, 102120, Note_on_c, 0, 59, 95
2, 102120, Note_on_c, 0, 54, 95
2, 102120, Note_on_c, 0, 47, 95
2, 102240, Note_off_c, 0, 59, 80
2, 102240, Note_off_c, 0, 54, 80
2, 102240, Note_off_c, 0, 47, 80
2, 102240, Note_on_c, 0, 59, 95
2, 102240, Note_on_c, 0, 54, 95
2, 102240, Note_on_c, 0, 47, 95
2, 102480, Note_off_c, 0, 59, 80
2, 102480, Note_off_c, 0, 54, 80
2, 102480, Note_off_c, 0, 47, 80
2, 102480, Note_on_c, 0, 64, 95
2, 102480, Note_on_c, 0, 59, 95
2, 102720, Note_off_c, 0, 64, 80
2, 102720, Note_off_c, 0, 59, 80
2, 102720, Note_on_c, 0, 64, 95
2, 102720, Note_on_c, 0, 59, 95
2, 102720, Note_on_c, 0, 52, 95
2, 102840, Note_off_c, 0, 64, 80
2, 102840, Note_off_c, 0, 59, 80
2, 102840, Note_off_c, 0, 52, 80
2, 103080, Note_on_c, 0, 64, 95
2, 103080, Note_on_c, 0, 59, 95
2, 103080, Note_on_c, 0, 52, 95
2, 103200, Note_off_c, 0, 64, 80
2, 103200, Note_off_c, 0, 59, 80
2, 103200, Note_off_c, 0, 52, 80
2, 103200, Note_on_c, 0, 64, 95
2, 103200, Note_on_c, 0, 59, 95
2, 103200, Note_on_c, 0, 52, 95
2, 103440, Note_off_c, 0, 64, 80
2, 103440, Note_off_c, 0, 59, 80
2, 103440, Note_off_c, 0, 52, 80
2, 103440, Note_on_c, 0, 64, 95
2, 103440, Note_on_c, 0, 59, 95
2, 103680, Note_off_c, 0, 64, 80
2, 103680, Note_off_c, 0, 59, 80
2, 103680, Note_on_c, 0, 66, 95
2, 103680, Note_on_c, 0, 61, 95
2, 103680, Note_on_c, 0, 54, 95
2, 103800, Note_off_c, 0, 66, 80
2, 103800, Note_off_c, 0, 61, 80
2, 103800, Note_off_c, 0, 54, 80
2, 104040, Note_on_c, 0, 66, 95
2, 104040, Note_on_c, 0, 61, 95
2, 104040, Note_on_c, 0, 54, 95
2, 104160, Note_off_c, 0, 66, 80
2, 104160, Note_off_c, 0, 61, 80
2, 104160, Note_off_c, 0, 54, 80
2, 104160, Note_on_c, 0, 66, 95
2, 104160, Note_on_c, 0, 61, 95
2, 104160, Note_on_c, 0, 54, 95
2, 104400, Note_off_c, 0, 66, 80
2, 104400, Note_off_c, 0, 61, 80
2, 104400, Note_off_c, 0, 54, 80
2, 104400, Note_on_c, 0, 64, 95
2, 104400, Note_on_c, 0, 59, 95
2, 104640, Note_off_c, 0, 64, 80
2, 104640, Note_off_c, 0, 59, 80
2, 104640, Note_on_c, 0, 64, 95
2, 104640, Note_on_c, 0, 59, 95
2, 104640, Note_on_c, 0, 52, 95
2, 104760, Note_off_c, 0, 64, 80
2, 104760, Note_off_c, 0, 59, 80
2, 104760, Note_off_c, 0, 52, 80
2, 105000, Note_on_c, 0, 64, 95
2, 105000, Note_on_c, 0, 59, 95
2, 105000, Note_on_c, 0, 52, 95
2, 105120, Note_off_c, 0, 64, 80
2, 105120, Note_off_c, 0, 59, 80
2, 105120, Note_off_c, 0, 52, 80
2, 105120, Note_on_c, 0, 64, 95
2, 105120, Note_on_c, 0, 59, 95
2, 105120, Note_on_c, 0, 52, 95
2, 105360, Note_off_c, 0, 64, 80
2, 105360, Note_off_c, 0, 59, 80
2, 105360, Note_off_c, 0, 52, 80
2, 105360, Note_on_c, 0, 64, 95
2, 105360, Note_on_c, 0, 59, 95
2, 105600, Note_off_c, 0, 64, 80
2, 105600, Note_off_c, 0, 59, 80
2, 105600, Note_on_c, 0, 59, 95
2, 105600, Note_on_c, 0, 54, 95
2, 105600, Note_on_c, 0, 47, 95
2, 105720, Note_off_c, 0, 59, 80
2, 105720, Note_off_c, 0, 54, 80
2, 105720, Note_off_c, 0, 47, 80
2, 105960, Note_on_c, 0, 59, 95
2, 105960, Note_on_c, 0, 54, 95
2, 105960, Note_on_c, 0, 47, 95
2, 106080, Note_off_c, 0, 59, 80
2, 106080, Note_off_c, 0, 54, 80
2, 106080, Note_off_c, 0, 47, 80
2, 106080, Note_on_c, 0, 59, 95
2, 106080, Note_on_c, 0, 54, 95
2, 106080, Note_on_c, 0, 47, 95
2, 106320, Note_off_c, 0, 59, 80
2, 106320, Note_off_c, 0, 54, 80
2, 106320, Note_off_c, 0, 47, 80
2, 106320, Note_on_c, 0, 64, 95
2, 106320, Note_on_c, 0, 59, 95
2, 106560, Note_off_c, 0, 64, 80
2, 106560, Note_off_c, 0, 59, 80
2, 106560, Note_on_c, 0, 64, 95
2, 106560, Note_on_c, 0, 59, 95
2, 106560, Note_on_c, 0, 52, 95
2, 106680, Note_off_c, 0, 64, 80
2, 106680, Note_off_c, 0, 59, 80
2, 106680, Note_off_c, 0, 52, 80
2, 106920, Note_on_c, 0, 64, 95
2, 106920, Note_on_c, 0, 59, 95
2, 106920, Note_on_c, 0, 52, 95
2, 107040, Note_off_c, 0, 64, 80
2, 107040, Note_off_c, 0, 59, 80
2, 107040, Note_off_c, 0, 52, 80
2, 107040, Note_on_c, 0, 64, 95
2, 107040, Note_on_c, 0, 59, 95
2, 107040, Note_on_c, 0, 52, 95
2, 107280, Note_off_c, 0, 64, 80
2, 107280, Note_off_c, 0, 59, 80
2, 107280, Note_off_c, 0, 52, 80
2, 107280, Note_on_c, 0, 64, 95
2, 107280, Note_on_c, 0, 59, 95
2, 107520, Note_off_c, 0, 64, 80
2, 107520, Note_off_c, 0, 59, 80
2, 107520, Note_on_c, 0, 66, 95
2, 107520, Note_on_c, 0, 61, 95
2, 107520, Note_on_c, 0, 54, 95
2, 107640, Note_off_c, 0, 66, 80
2, 107640, Note_off_c, 0, 61, 80
2, 107640, Note_off_c, 0, 54, 80
2, 107880, Note_on_c, 0, 66, 95
2, 107880, Note_on_c, 0, 61, 95
2, 107880, Note_on_c, 0, 54, 95
2, 108000, Note_off_c, 0, 66, 80
2, 108000, Note_off_c, 0, 61, 80
2, 108000, Note_off_c, 0, 54, 80
2, 108000, Note_on_c, 0, 66, 95
2, 108000, Note_on_c, 0, 61, 95
2, 108000, Note_on_c, 0, 54, 95
2, 108240, Note_off_c, 0, 66, 80
2, 108240, Note_off_c, 0, 61, 80
2, 108240, Note_off_c, 0, 54, 80
2, 108240, Note_on_c, 0, 64, 95
2, 108240, Note_on_c, 0, 59, 95
2, 108480, Note_off_c, 0, 64, 80
2, 108480, Note_off_c, 0, 59, 80
2, 108480, Note_on_c, 0, 64, 95
2, 108480, Note_on_c, 0, 59, 95
2, 108480, Note_on_c, 0, 52, 95
2, 108600, Note_off_c, 0, 64, 80
2, 108600, Note_off_c, 0, 59, 80
2, 108600, Note_off_c, 0, 52, 80
2, 108840, Note_on_c, 0, 64, 95
2, 108840, Note_on_c, 0, 59, 95
2, 108840, Note_on_c, 0, 52, 95
2, 108960, Note_off_c, 0, 64, 80
2, 108960, Note_off_c, 0, 59, 80
2, 108960, Note_off_c, 0, 52, 80
2, 108960, Note_on_c, 0, 64, 95
2, 108960, Note_on_c, 0, 59, 95
2, 108960, Note_on_c, 0, 52, 95
2, 109200, Note_off_c, 0, 64, 80
2, 109200, Note_off_c, 0, 59, 80
2, 109200, Note_off_c, 0, 52, 80
2, 109200, Note_on_c, 0, 64, 95
2, 109200, Note_on_c, 0, 59, 95
2, 109440, Note_off_c, 0, 64, 80
2, 109440, Note_off_c, 0, 59, 80
2, 109440, Note_on_c, 0, 59, 95
2, 109440, Note_on_c, 0, 54, 95
2, 109440, Note_on_c, 0, 47, 95
2, 109560, Note_off_c, 0, 59, 80
2, 109560, Note_off_c, 0, 54, 80
2, 109560, Note_off_c, 0, 47, 80
2, 109800, Note_on_c, 0, 59, 95
2, 109800, Note_on_c, 0, 54, 95
2, 109800, Note_on_c, 0, 47, 95
2, 109920, Note_off_c, 0, 59, 80
2, 109920, Note_off_c, 0, 54, 80
2, 109920, Note_off_c, 0, 47, 80
2, 109920, Note_on_c, 0, 59, 95
2, 109920, Note_on_c, 0, 54, 95
2, 109920, Note_on_c, 0, 47, 95
2, 110160, Note_off_c, 0, 59, 80
2, 110160, Note_off_c, 0, 54, 80
2, 110160, Note_off_c, 0, 47, 80
2, 110160, Note_on_c, 0, 57, 95
2, 110220, Note_off_c, 0, 57, 80
2, 110220, Note_on_c, 0, 59, 76
2, 110280, Note_off_c, 0, 59, 80
2, 110280, Note_on_c, 0, 57, 76
2, 110340, Note_off_c, 0, 57, 80
2, 110340, Note_on_c, 0, 50, 76
2, 110400, Note_off_c, 0, 50, 80
2, 110400, Note_on_c, 0, 57, 95
2, 110400, Note_on_c, 0, 52, 95
2, 110400, Note_on_c, 0, 45, 95
2, 110520, Note_off_c, 0, 57, 80
2, 110520, Note_off_c, 0, 52, 80
2, 110520, Note_off_c, 0, 45, 80
2, 110520, Note_on_c, 0, 57, 95
2, 110520, Note_on_c, 0, 52, 95
2, 110520, Note_on_c, 0, 45, 95
2, 110640, Note_off_c, 0, 57, 80
2, 110640, Note_off_c, 0, 52, 80
2, 110640, Note_off_c, 0, 45, 80
2, 110760, Note_on_c, 0, 57, 95
2, 110760, Note_on_c, 0, 52, 95
2, 110760, Note_on_c, 0, 45, 95
2, 110880, Note_off_c, 0, 57, 80
2, 110880, Note_off_c, 0, 52, 80
2, 110880, Note_off_c, 0, 45, 80
2, 110880, Note_on_c, 0, 57, 95
2, 110880, Note_on_c, 0, 52, 95
2, 110880, Note_on_c, 0, 45, 95
2, 111120, Note_off_c, 0, 57, 80
2, 111120, Note_off_c, 0, 52, 80
2, 111120, Note_off_c, 0, 45, 80
2, 111120, Note_on_c, 0, 57, 95
2, 111180, Note_off_c, 0, 57, 80
2, 111180, Note_on_c, 0, 59, 76
2, 111240, Note_off_c, 0, 59, 80
2, 111240, Note_on_c, 0, 57, 76
2, 111300, Note_off_c, 0, 57, 80
2, 111300, Note_on_c, 0, 50, 76
2, 111360, Note_off_c, 0, 50, 80
2, 111360, Note_on_c, 0, 64, 95
2, 111360, Note_on_c, 0, 59, 95
2, 111360, Note_on_c, 0, 52, 95
2, 111480, Note_off_c, 0, 64, 80
2, 111480, Note_off_c, 0, 59, 80
2, 111480, Note_off_c, 0, 52, 80
2, 111480, Note_on_c, 0, 64, 95
2, 111480, Note_on_c, 0, 59, 95
2, 111480, Note_on_c, 0, 52, 95
2, 111600, Note_off_c, 0, 64, 80
2, 111600, Note_off_c, 0, 59, 80
2, 111600, Note_off_c, 0, 52, 80
2, 111720, Note_on_c, 0, 64, 95
2, 111720, Note_on_c, 0, 59, 95
2, 111720, Note_on_c, 0, 52, 95
2, 111840, Note_off_c, 0, 64, 80
2, 111840, Note_off_c, 0, 59, 80
2, 111840, Note_off_c, 0, 52, 80
2, 111840, Note_on_c, 0, 64, 95
2, 111840, Note_on_c, 0, 59, 95
2, 111840, Note_on_c, 0, 52, 95
2, 112080, Note_off_c, 0, 64, 80
2, 112080, Note_off_c, 0, 59, 80
2, 112080, Note_off_c, 0, 52, 80
2, 112080, Note_on_c, 0, 64, 95
2, 112080, Note_on_c, 0, 59, 95
2, 112080, Note_on_c, 0, 52, 95
2, 112320, Note_off_c, 0, 64, 80
2, 112320, Note_off_c, 0, 59, 80
2, 112320, Note_off_c, 0, 52, 80
2, 112320, Note_on_c, 0, 66, 95
2, 112320, Note_on_c, 0, 61, 95
2, 112320, Note_on_c, 0, 54, 95
2, 112440, Note_off_c, 0, 66, 80
2, 112440, Note_off_c, 0, 61, 80
2, 112440, Note_off_c, 0, 54, 80
2, 112440, Note_on_c, 0, 66, 95
2, 112440, Note_on_c, 0, 61, 95
2, 112440, Note_on_c, 0, 54, 95
2, 112560, Note_off_c, 0, 66, 80
2, 112560, Note_off_c, 0, 61, 80
2, 112560, Note_off_c, 0, 54, 80
2, 112680, Note_on_c, 0, 66, 95
2, 112680, Note_on_c, 0, 61, 95
2, 112680, Note_on_c, 0, 54, 95
2, 112800, Note_off_c, 0, 66, 80
2, 112800, Note_off_c, 0, 61, 80
2, 112800, Note_off_c, 0, 54, 80
2, 112800, Note_on_c, 0, 66, 95
2, 112800, Note_on_c, 0, 61, 95
2, 112800, Note_on_c, 0, 54, 95
2, 113040, Note_off_c, 0, 66, 80
2, 113040, Note_off_c, 0, 61, 80
2, 113040, Note_off_c, 0, 54, 80
2, 113040, Note_on_c, 0, 57, 95
2, 113100, Note_off_c, 0, 57, 80
2, 113100, Note_on_c, 0, 59, 76
2, 113160, Note_off_c, 0, 59, 80
2, 113160, Note_on_c, 0, 57, 76
2, 113220, Note_off_c, 0, 57, 80
2, 113220, Note_on_c, 0, 50, 76
2, 113280, Note_off_c, 0, 50, 80
2, 113280, Note_on_c, 0, 59, 95
2, 113280, Note_on_c, 0, 54, 95
2, 113280, Note_on_c, 0, 47, 95
2, 113400, Note_off_c, 0, 59, 80
2, 113400, Note_off_c, 0, 54, 80
2, 113400, Note_off_c, 0, 47, 80
2, 113640, Note_on_c, 0, 59, 95
2, 113640, Note_on_c, 0, 54, 95
2, 113640, Note_on_c, 0, 47, 95
2, 113760, Note_off_c, 0, 59, 80
2, 113760, Note_off_c, 0, 54, 80
2, 113760, Note_off_c, 0, 47, 80
2, 113760, Note_on_c, 0, 59, 95
2, 113760, Note_on_c, 0, 54, 95
2, 113760, Note_on_c, 0, 47, 95
2, 114000, Note_off_c, 0, 59, 80
2, 114000, Note_off_c, 0, 54, 80
2, 114000, Note_off_c, 0, 47, 80
2, 114000, Note_on_c, 0, 64, 95
2, 114000, Note_on_c, 0, 59, 95
2, 114240, Note_off_c, 0, 64, 80
2, 114240, Note_off_c, 0, 59, 80
2, 114240, Note_on_c, 0, 64, 95
2, 114240, Note_on_c, 0, 59, 95
2, 114240, Note_on_c, 0, 52, 95
2, 114360, Note_off_c, 0, 64, 80
2, 114360, Note_off_c, 0, 59, 80
2, 114360, Note_off_c, 0, 52, 80
2, 114600, Note_on_c, 0, 64, 95
2, 114600, Note_on_c, 0, 59, 95
2, 114600, Note_on_c, 0, 52, 95
2, 114720, Note_off_c, 0, 64, 80
2, 114720, Note_off_c, 0, 59, 80
2, 114720, Note_off_c, 0, 52, 80
2, 114720, Note_on_c, 0, 64, 95
2, 114720, Note_on_c, 0, 59, 95
2, 114720, Note_on_c, 0, 52, 95
2, 114960, Note_off_c, 0, 64, 80
2, 114960, Note_off_c, 0, 59, 80
2, 114960, Note_off_c, 0, 52, 80
2, 114960, Note_on_c, 0, 64, 95
2, 114960, Note_on_c, 0, 59, 95
2, 115200, Note_off_c, 0, 64, 80
2, 115200, Note_off_c, 0, 59, 80
2, 115200, Note_on_c, 0, 54, 95
2, 115200, Note_on_c, 0, 49, 95
2, 115200, Note_on_c, 0, 42, 95
2, 116160, Note_off_c, 0, 54, 80
2, 116160, Note_off_c, 0, 49, 80
2, 116160, Note_off_c, 0, 42, 80
2, 116160, Note_on_c, 0, 52, 95
2, 116160, Note_on_c, 0, 47, 95
2, 116160, Note_on_c, 0, 40, 95
2, 117120, Note_off_c, 0, 52, 80
2, 117120, Note_off_c, 0, 47, 80
2, 117120, Note_off_c, 0, 40, 80
2, 117120, Note_on_c, 0, 66, 95
2, 117120, Note_on_c, 0, 62, 95
2, 117120, Note_on_c, 0, 57, 95
2, 117240, Note_off_c, 0, 66, 80
2, 117240, Note_off_c, 0, 62, 80
2, 117240, Note_off_c, 0, 57, 80
2, 117240, Note_on_c, 0, 63, 76
2, 117360, Note_off_c, 0, 63, 80
2, 117360, Note_on_c, 0, 62, 95
2, 117480, Note_off_c, 0, 62, 80
2, 117480, Note_on_c, 0, 63, 76
2, 117600, Note_off_c, 0, 63, 80
2, 117600, Note_on_c, 0, 66, 95
2, 117600, Note_on_c, 0, 63, 95
2, 117600, Note_on_c, 0, 57, 95
2, 117720, Note_off_c, 0, 66, 80
2, 117720, Note_off_c, 0, 63, 80
2, 117720, Note_off_c, 0, 57, 80
2, 117960, Note_on_c, 0, 50, 95
2, 118080, Note_off_c, 0, 50, 80
2, 118080, Note_on_c, 0, 52, 76
2, 118200, Note_off_c, 0, 52, 80
2, 118200, Note_on_c, 0, 59, 95
2, 118200, Note_on_c, 0, 56, 95
2, 118200, Note_on_c, 0, 52, 95
2, 118320, Note_off_c, 0, 59, 80
2, 118320, Note_off_c, 0, 56, 80
2, 118320, Note_off_c, 0, 52, 80
2, 118800, Note_on_c, 0, 66, 95
2, 118800, Note_on_c, 0, 61, 95
2, 118800, Note_on_c, 0, 58, 95
2, 118800, Note_on_c, 0, 54, 95
2, 118800, Note_on_c, 0, 49, 95
2, 120960, Note_off_c, 0, 66, 80
2, 120960, Note_off_c, 0, 61, 80
2, 120960, Note_off_c, 0, 58, 80
2, 120960, Note_off_c, 0, 54, 80
2, 120960, Note_off_c, 0, 49, 80
2, 120960, Note_on_c, 0, 66, 95
2, 120960, Note_on_c, 0, 62, 95
2, 120960, Note_on_c, 0, 57, 95
2, 121080, Note_off_c, 0, 66, 80
2, 121080, Note_off_c, 0, 62, 80
2, 121080, Note_off_c, 0, 57, 80
2, 121080, Note_on_c, 0, 63, 76
2, 121200, Note_off_c, 0, 63, 80
2, 121200, Note_on_c, 0, 62, 95
2, 121320, Note_off_c, 0, 62, 80
2, 121320, Note_on_c, 0, 63, 76
2, 121440, Note_off_c, 0, 63, 80
2, 121440, Note_on_c, 0, 66, 95
2, 121440, Note_on_c, 0, 63, 95
2, 121440, Note_on_c, 0, 57, 95
2, 121560, Note_off_c, 0, 66, 80
2, 121560, Note_off_c, 0, 63, 80
2, 121560, Note_off_c, 0, 57, 80
2, 121800, Note_on_c, 0, 50, 95
2, 121920, Note_off_c, 0, 50, 80
2, 121920, Note_on_c, 0, 52, 76
2, 122040, Note_off_c, 0, 52, 80
2, 122040, Note_on_c, 0, 59, 95
2, 122040, Note_on_c, 0, 56, 95
2, 122040, Note_on_c, 0, 52, 95
2, 122160, Note_off_c, 0, 59, 80
2, 122160, Note_off_c, 0, 56, 80
2, 122160, Note_off_c, 0, 52, 80
2, 122640, Note_on_c, 0, 66, 95
2, 122640, Note_on_c, 0, 61, 95
2, 122640, Note_on_c, 0, 58, 95
2, 122640, Note_on_c, 0, 54, 95
2, 122640, Note_on_c, 0, 49, 95
2, 123840, Note_off_c, 0, 66, 80
2, 123840, Note_off_c, 0, 61, 80
2, 123840, Note_off_c, 0, 58, 80
2, 123840, Note_off_c, 0, 54, 80
2, 123840, Note_off_c, 0, 49, 80
2, 123840, Note_on_c, 0, 64, 95
2, 123840, Note_on_c, 0, 59, 95
2, 123840, Note_on_c, 0, 55, 95
2, 123840, Note_on_c, 0, 50, 95
2, 124800, Note_off_c, 0, 64, 80
2, 124800, Note_off_c, 0, 59, 80
2, 124800, Note_off_c, 0, 55, 80
2, 124800, Note_off_c, 0, 50, 80
2, 124920, Note_on_c, 0, 66, 95
2, 124920, Note_on_c, 0, 62, 95
2, 125040, Note_off_c, 0, 66, 80
2, 125040, Note_off_c, 0, 62, 80
2, 125040, Note_on_c, 0, 63, 76
2, 125280, Note_off_c, 0, 63, 80
2, 125280, Note_on_c, 0, 66, 95
2, 125280, Note_on_c, 0, 62, 95
2, 125400, Note_off_c, 0, 66, 80
2, 125400, Note_off_c, 0, 62, 80
2, 125640, Note_on_c, 0, 55, 95
2, 125760, Note_off_c, 0, 55, 80
2, 125760, Note_on_c, 0, 57, 76
2, 125880, Note_off_c, 0, 57, 80
2, 125880, Note_on_c, 0, 61, 95
2, 126480, Note_off_c, 0, 61, 80
2, 126480, Note_on_c, 0, 59, 95
2, 127200, Note_off_c, 0, 59, 80
2, 127200, Note_on_c, 0, 57, 95
2, 127440, Note_off_c, 0, 57, 80
2, 127440, Note_on_c, 1, 57, 95
2, 127440, Pitch_bend_c, 1, 8192
2, 127536, Pitch_bend_c, 1, 8320
2, 127616, Pitch_bend_c, 1, 8448
2, 127664, Pitch_bend_c, 1, 8576
2, 127712, Pitch_bend_c, 1, 8704
2, 127744, Pitch_bend_c, 1, 8832
2, 128160, Note_off_c, 1, 57, 80
2, 128160, Pitch_bend_c, 1, 8192
2, 128160, Note_on_c, 1, 57, 95
2, 128160, Pitch_bend_c, 1, 8192
2, 128176, Pitch_bend_c, 1, 8320
2, 128192, Pitch_bend_c, 1, 8448
2, 128208, Pitch_bend_c, 1, 8704
2, 128224, Pitch_bend_c, 1, 8832
2, 128304, Pitch_bend_c, 1, 8576
2, 128320, Pitch_bend_c, 1, 8320
2, 128336, Pitch_bend_c, 1, 8192
2, 128400, Note_off_c, 1, 57, 80
2, 128400, Pitch_bend_c, 1, 8192
2, 128400, Note_on_c, 0, 50, 95
2, 128640, Note_off_c, 0, 50, 80
2, 128640, Note_on_c, 0, 66, 95
2, 128640, Note_on_c, 0, 62, 95
2, 128640, Note_on_c, 0, 57, 95
2, 128760, Note_off_c, 0, 66, 80
2, 128760, Note_off_c, 0, 62, 80
2, 128760, Note_off_c, 0, 57, 80
2, 128760, Note_on_c, 0, 63, 76
2, 128880, Note_off_c, 0, 63, 80
2, 128880, Note_on_c, 0, 62, 95
2, 129000, Note_off_c, 0, 62, 80
2, 129000, Note_on_c, 0, 63, 76
2, 129120, Note_off_c, 0, 63, 80
2, 129120, Note_on_c, 0, 66, 95
2, 129120, Note_on_c, 0, 63, 95
2, 129120, Note_on_c, 0, 57, 95
2, 129240, Note_off_c, 0, 66, 80
2, 129240, Note_off_c, 0, 63, 80
2, 129240, Note_off_c, 0, 57, 80
2, 129480, Note_on_c, 0, 50, 95
2, 129600, Note_off_c, 0, 50, 80
2, 129600, Note_on_c, 0, 52, 76
2, 129720, Note_off_c, 0, 52, 80
2, 129720, Note_on_c, 0, 59, 95
2, 129720, Note_on_c, 0, 56, 95
2, 129720, Note_on_c, 0, 52, 95
2, 129840, Note_off_c, 0, 59, 80
2, 129840, Note_off_c, 0, 56, 80
2, 129840, Note_off_c, 0, 52, 80
2, 130320, Note_on_c, 0, 66, 95
2, 130320, Note_on_c, 0, 61, 95
2, 130320, Note_on_c, 0, 58, 95
2, 130320, Note_on_c, 0, 54, 95
2, 130320, Note_on_c, 0, 49, 95
2, 131040, Note_off_c, 0, 66, 80
2, 131040, Note_off_c, 0, 61, 80
2, 131040, Note_off_c, 0, 58, 80
2, 131040, Note_off_c, 0, 54, 80
2, 131040, Note_off_c, 0, 49, 80
2, 131040, Note_on_c, 0, 49, 95
2, 131040, Note_on_c, 0, 42, 95
2, 131280, Note_off_c, 0, 49, 80
2, 131280, Note_off_c, 0, 42, 80
2, 131280, Note_on_c, 0, 49, 95
2, 131280, Note_on_c, 0, 42, 95
2, 131400, Note_off_c, 0, 49, 80
2, 131400, Note_off_c, 0, 42, 80
2, 131400, Note_on_c, 0, 49, 95
2, 131400, Note_on_c, 0, 42, 95
2, 131520, Note_off_c, 0, 49, 80
2, 131520, Note_off_c, 0, 42, 80
2, 131520, Note_on_c, 0, 40, 95
2, 132000, Note_off_c, 0, 40, 80
2, 132000, Note_on_c, 0, 52, 95
2, 132000, Note_on_c, 0, 40, 95
2, 132240, Note_off_c, 0, 52, 80
2, 132240, Note_off_c, 0, 40, 80
2, 132240, Note_on_c, 0, 52, 95
2, 132240, Note_on_c, 0, 40, 95
2, 132480, Note_off_c, 0, 52, 80
2, 132480, Note_off_c, 0, 40, 80
2, 132480, Note_on_c, 0, 58, 95
2, 132480, Note_on_c, 0, 54, 95
2, 132480, Note_on_c, 0, 49, 95
2, 132480, Note_on_c, 0, 42, 95
2, 132720, Note_off_c, 0, 58, 80
2, 132720, Note_off_c, 0, 54, 80
2, 132720, Note_off_c, 0, 49, 80
2, 132720, Note_off_c, 0, 42, 80
2, 132720, Note_on_c, 0, 58, 95
2, 132720, Note_on_c, 0, 54, 95
2, 132720, Note_on_c, 0, 49, 95
2, 132720, Note_on_c, 0, 42, 95
2, 132840, Note_off_c, 0, 58, 80
2, 132840, Note_off_c, 0, 54, 80
2, 132840, Note_off_c, 0, 49, 80
2, 132840, Note_off_c, 0, 42, 80
2, 132840, Note_on_c, 0, 57, 95
2, 132840, Note_on_c, 0, 52, 95
2, 132960, Note_off_c, 0, 57, 80
2, 132960, Note_off_c, 0, 52, 80
2, 132960, Note_on_c, 0, 54, 95
2, 132960, Note_on_c, 0, 49, 95
2, 133200, Note_off_c, 0, 54, 80
2, 133200, Note_off_c, 0, 49, 80
2, 133200, Note_on_c, 0, 54, 95
2, 133200, Note_on_c, 0, 47, 95
2, 133440, Note_off_c, 0, 54, 80
2, 133440, Note_off_c, 0, 47, 80
2, 133440, Note_on_c, 0, 42, 95
2, 133560, Note_off_c, 0, 42, 80
2, 133560, Note_on_c, 0, 41, 95
2, 133680, Note_off_c, 0, 41, 80
2, 133680, Note_on_c, 0, 57, 95
2, 133680, Note_on_c, 0, 52, 95
2, 133680, Note_on_c, 0, 40, 95
2, 133920, Note_off_c, 0, 57, 80
2, 133920, Note_off_c, 0, 52, 80
2, 133920, Note_off_c, 0, 40, 80
2, 133920, Note_on_c, 0, 64, 95
2, 133920, Note_on_c, 0, 59, 95
2, 133920, Note_on_c, 0, 55, 95
2, 133920, Note_on_c, 0, 52, 95
2, 134160, Note_off_c, 0, 64, 80
2, 134160, Note_off_c, 0, 59, 80
2, 134160, Note_off_c, 0, 55, 80
2, 134160, Note_off_c, 0, 52, 80
2, 134160, Note_on_c, 0, 64, 95
2, 134160, Note_on_c, 0, 59, 95
2, 134160, Note_on_c, 0, 55, 95
2, 134160, Note_on_c, 0, 52, 95
2, 134280, Note_off_c, 0, 64, 80
2, 134280, Note_off_c, 0, 59, 80
2, 134280, Note_off_c, 0, 55, 80
2, 134280, Note_off_c, 0, 52, 80
2, 134280, Note_on_c, 0, 64, 95
2, 134280, Note_on_c, 0, 59, 95
2, 134280, Note_on_c, 0, 55, 95
2, 134280, Note_on_c, 0, 52, 95
2, 134400, Note_off_c, 0, 64, 80
2, 134400, Note_off_c, 0, 59, 80
2, 134400, Note_off_c, 0, 55, 80
2, 134400, Note_off_c, 0, 52, 80
2, 134400, Note_on_c, 0, 59, 95
2, 134400, Note_on_c, 0, 54, 95
2, 134400, Note_on_c, 0, 47, 95
2, 134520, Note_off_c, 0, 59, 80
2, 134520, Note_off_c, 0, 54, 80
2, 134520, Note_off_c, 0, 47, 80
2, 134760, Note_on_c, 0, 59, 95
2, 134760, Note_on_c, 0, 54, 95
2, 134760, Note_on_c, 0, 47, 95
2, 134880, Note_off_c, 0, 59, 80
2, 134880, Note_off_c, 0, 54, 80
2, 134880, Note_off_c, 0, 47, 80
2, 134880, Note_on_c, 0, 59, 95
2, 134880, Note_on_c, 0, 54, 95
2, 134880, Note_on_c, 0, 47, 95
2, 135120, Note_off_c, 0, 59, 80
2, 135120, Note_off_c, 0, 54, 80
2, 135120, Note_off_c, 0, 47, 80
2, 135120, Note_on_c, 0, 64, 95
2, 135120, Note_on_c, 0, 59, 95
2, 135360, Note_off_c, 0, 64, 80
2, 135360, Note_off_c, 0, 59, 80
2, 135360, Note_on_c, 0, 64, 95
2, 135360, Note_on_c, 0, 59, 95
2, 135360, Note_on_c, 0, 52, 95
2, 135480, Note_off_c, 0, 64, 80
2, 135480, Note_off_c, 0, 59, 80
2, 135480, Note_off_c, 0, 52, 80
2, 135720, Note_on_c, 0, 64, 95
2, 135720, Note_on_c, 0, 59, 95
2, 135720, Note_on_c, 0, 52, 95
2, 135840, Note_off_c, 0, 64, 80
2, 135840, Note_off_c, 0, 59, 80
2, 135840, Note_off_c, 0, 52, 80
2, 135840, Note_on_c, 0, 64, 95
2, 135840, Note_on_c, 0, 59, 95
2, 135840, Note_on_c, 0, 52, 95
2, 136080, Note_off_c, 0, 64, 80
2, 136080, Note_off_c, 0, 59, 80
2, 136080, Note_off_c, 0, 52, 80
2, 136080, Note_on_c, 0, 64, 95
2, 136080, Note_on_c, 0, 59, 95
2, 136320, Note_off_c, 0, 64, 80
2, 136320, Note_off_c, 0, 59, 80
2, 136320, Note_on_c, 0, 66, 95
2, 136320, Note_on_c, 0, 61, 95
2, 136320, Note_on_c, 0, 54, 95
2, 136440, Note_off_c, 0, 66, 80
2, 136440, Note_off_c, 0, 61, 80
2, 136440, Note_off_c, 0, 54, 80
2, 136680, Note_on_c, 0, 66, 95
2, 136680, Note_on_c, 0, 61, 95
2, 136680, Note_on_c, 0, 54, 95
2, 136800, Note_off_c, 0, 66, 80
2, 136800, Note_off_c, 0, 61, 80
2, 136800, Note_off_c, 0, 54, 80
2, 136800, Note_on_c, 0, 66, 95
2, 136800, Note_on_c, 0, 61, 95
2, 136800, Note_on_c, 0, 54, 95
2, 137040, Note_off_c, 0, 66, 80
2, 137040, Note_off_c, 0, 61, 80
2, 137040, Note_off_c, 0, 54, 80
2, 137040, Note_on_c, 0, 64, 95
2, 137040, Note_on_c, 0, 59, 95
2, 137280, Note_off_c, 0, 64, 80
2, 137280, Note_off_c, 0, 59, 80
2, 137280, Note_on_c, 0, 64, 95
2, 137280, Note_on_c, 0, 59, 95
2, 137280, Note_on_c, 0, 52, 95
2, 137400, Note_off_c, 0, 64, 80
2, 137400, Note_off_c, 0, 59, 80
2, 137400, Note_off_c, 0, 52, 80
2, 137640, Note_on_c, 0, 64, 95
2, 137640, Note_on_c, 0, 59, 95
2, 137640, Note_on_c, 0, 52, 95
2, 137760, Note_off_c, 0, 64, 80
2, 137760, Note_off_c, 0, 59, 80
2, 137760, Note_off_c, 0, 52, 80
2, 137760, Note_on_c, 0, 64, 95
2, 137760, Note_on_c, 0, 59, 95
2, 137760, Note_on_c, 0, 52, 95
2, 138000, Note_off_c, 0, 64, 80
2, 138000, Note_off_c, 0, 59, 80
2, 138000, Note_off_c, 0, 52, 80
2, 138000, Note_on_c, 0, 64, 95
2, 138000, Note_on_c, 0, 59, 95
2, 138240, Note_off_c, 0, 64, 80
2, 138240, Note_off_c, 0, 59, 80
2, 138240, Note_on_c, 0, 59, 95
2, 138240, Note_on_c, 0, 54, 95
2, 138240, Note_on_c, 0, 47, 95
2, 138360, Note_off_c, 0, 59, 80
2, 138360, Note_off_c, 0, 54, 80
2, 138360, Note_off_c, 0, 47, 80
2, 138600, Note_on_c, 0, 59, 95
2, 138600, Note_on_c, 0, 54, 95
2, 138600, Note_on_c, 0, 47, 95
2, 138720, Note_off_c, 0, 59, 80
2, 138720, Note_off_c, 0, 54, 80
2, 138720, Note_off_c, 0, 47, 80
2, 138720, Note_on_c, 0, 59, 95
2, 138720, Note_on_c, 0, 54, 95
2, 138720, Note_on_c, 0, 47, 95
2, 138960, Note_off_c, 0, 59, 80
2, 138960, Note_off_c, 0, 54, 80
2, 138960, Note_off_c, 0, 47, 80
2, 138960, Note_on_c, 0, 64, 95
2, 138960, Note_on_c, 0, 59, 95
2, 139200, Note_off_c, 0, 64, 80
2, 139200, Note_off_c, 0, 59, 80
2, 139200, Note_on_c, 0, 64, 95
2, 139200, Note_on_c, 0, 59, 95
2, 139200, Note_on_c, 0, 52, 95
2, 139320, Note_off_c, 0, 64, 80
2, 139320, Note_off_c, 0, 59, 80
2, 139320, Note_off_c, 0, 52, 80
2, 139560, Note_on_c, 0, 64, 95
2, 139560, Note_on_c, 0, 59, 95
2, 139560, Note_on_c, 0, 52, 95
2, 139680, Note_off_c, 0, 64, 80
2, 139680, Note_off_c, 0, 59, 80
2, 139680, Note_off_c, 0, 52, 80
2, 139680, Note_on_c, 0, 64, 95
2, 139680, Note_on_c, 0, 59, 95
2, 139680, Note_on_c, 0, 52, 95
2, 139920, Note_off_c, 0, 64, 80
2, 139920, Note_off_c, 0, 59, 80
2, 139920, Note_off_c, 0, 52, 80
2, 139920, Note_on_c, 0, 64, 95
2, 139920, Note_on_c, 0, 59, 95
2, 140160, Note_off_c, 0, 64, 80
2, 140160, Note_off_c, 0, 59, 80
2, 140160, Note_on_c, 0, 66, 95
2, 140160, Note_on_c, 0, 61, 95
2, 140160, Note_on_c, 0, 54, 95
2, 140280, Note_off_c, 0, 66, 80
2, 140280, Note_off_c, 0, 61, 80
2, 140280, Note_off_c, 0, 54, 80
2, 140520, Note_on_c, 0, 66, 95
2, 140520, Note_on_c, 0, 61, 95
2, 140520, Note_on_c, 0, 54, 95
2, 140640, Note_off_c, 0, 66, 80
2, 140640, Note_off_c, 0, 61, 80
2, 140640, Note_off_c, 0, 54, 80
2, 140640, Note_on_c, 0, 66, 95
2, 140640, Note_on_c, 0, 61, 95
2, 140640, Note_on_c, 0, 54, 95
2, 140880, Note_off_c, 0, 66, 80
2, 140880, Note_off_c, 0, 61, 80
2, 140880, Note_off_c, 0, 54, 80
2, 140880, Note_on_c, 0, 64, 95
2, 140880, Note_on_c, 0, 59, 95
2, 141120, Note_off_c, 0, 64, 80
2, 141120, Note_off_c, 0, 59, 80
2, 141120, Note_on_c, 0, 64, 95
2, 141120, Note_on_c, 0, 59, 95
2, 141120, Note_on_c, 0, 52, 95
2, 141240, Note_off_c, 0, 64, 80
2, 141240, Note_off_c, 0, 59, 80
2, 141240, Note_off_c, 0, 52, 80
2, 141480, Note_on_c, 0, 64, 95
2, 141480, Note_on_c, 0, 59, 95
2, 141480, Note_on_c, 0, 52, 95
2, 141600, Note_off_c, 0, 64, 80
2, 141600, Note_off_c, 0, 59, 80
2, 141600, Note_off_c, 0, 52, 80
2, 141600, Note_on_c, 0, 64, 95
2, 141600, Note_on_c, 0, 59, 95
2, 141600, Note_on_c, 0, 52, 95
2, 141840, Note_off_c, 0, 64, 80
2, 141840, Note_off_c, 0, 59, 80
2, 141840, Note_off_c, 0, 52, 80
2, 141840, Note_on_c, 0, 64, 95
2, 141840, Note_on_c, 0, 59, 95
2, 142080, Note_off_c, 0, 64, 80
2, 142080, Note_off_c, 0, 59, 80
2, 142080, Note_on_c, 0, 59, 95
2, 142080, Note_on_c, 0, 54, 95
2, 142080, Note_on_c, 0, 47, 95
2, 142200, Note_off_c, 0, 59, 80
2, 142200, Note_off_c, 0, 54, 80
2, 142200, Note_off_c, 0, 47, 80
2, 142440, Note_on_c, 0, 59, 95
2, 142440, Note_on_c, 0, 54, 95
2, 142440, Note_on_c, 0, 47, 95
2, 142560, Note_off_c, 0, 59, 80
2, 142560, Note_off_c, 0, 54, 80
2, 142560, Note_off_c, 0, 47, 80
2, 142560, Note_on_c, 0, 59, 95
2, 142560, Note_on_c, 0, 54, 95
2, 142560, Note_on_c, 0, 47, 95
2, 142800, Note_off_c, 0, 59, 80
2, 142800, Note_off_c, 0, 54, 80
2, 142800, Note_off_c, 0, 47, 80
2, 142800, Note_on_c, 0, 57, 95
2, 142860, Note_off_c, 0, 57, 80
2, 142860, Note_on_c, 0, 59, 76
2, 142920, Note_off_c, 0, 59, 80
2, 142920, Note_on_c, 0, 57, 76
2, 142980, Note_off_c, 0, 57, 80
2, 142980, Note_on_c, 0, 50, 76
2, 143040, Note_off_c, 0, 50, 80
2, 143040, Note_on_c, 0, 57, 95
2, 143040, Note_on_c, 0, 52, 95
2, 143040, Note_on_c, 0, 45, 95
2, 143160, Note_off_c, 0, 57, 80
2, 143160, Note_off_c, 0, 52, 80
2, 143160, Note_off_c, 0, 45, 80
2, 143160, Note_on_c, 0, 57, 95
2, 143160, Note_on_c, 0, 52, 95
2, 143160, Note_on_c, 0, 45, 95
2, 143280, Note_off_c, 0, 57, 80
2, 143280, Note_off_c, 0, 52, 80
2, 143280, Note_off_c, 0, 45, 80
2, 143400, Note_on_c, 0, 57, 95
2, 143400, Note_on_c, 0, 52, 95
2, 143400, Note_on_c, 0, 45, 95
2, 143520, Note_off_c, 0, 57, 80
2, 143520, Note_off_c, 0, 52, 80
2, 143520, Note_off_c, 0, 45, 80
2, 143520, Note_on_c, 0, 57, 95
2, 143520, Note_on_c, 0, 52, 95
2, 143520, Note_on_c, 0, 45, 95
2, 143760, Note_off_c, 0, 57, 80
2, 143760, Note_off_c, 0, 52, 80
2, 143760, Note_off_c, 0, 45, 80
2, 143760, Note_on_c, 0, 57, 95
2, 143820, Note_off_c, 0, 57, 80
2, 143820, Note_on_c, 0, 59, 76
2, 143880, Note_off_c, 0, 59, 80
2, 143880, Note_on_c, 0, 57, 76
2, 143940, Note_off_c, 0, 57, 80
2, 143940, Note_on_c, 0, 50, 76
2, 144000, Note_off_c, 0, 50, 80
2, 144000, Note_on_c, 0, 64, 95
2, 144000, Note_on_c, 0, 59, 95
2, 144000, Note_on_c, 0, 52, 95
2, 144120, Note_off_c, 0, 64, 80
2, 144120, Note_off_c, 0, 59, 80
2, 144120, Note_off_c, 0, 52, 80
2, 144120, Note_on_c, 0, 64, 95
2, 144120, Note_on_c, 0, 59, 95
2, 144120, Note_on_c, 0, 52, 95
2, 144240, Note_off_c, 0, 64, 80
2, 144240, Note_off_c, 0, 59, 80
2, 144240, Note_off_c, 0, 52, 80
2, 144360, Note_on_c, 0, 64, 95
2, 144360, Note_on_c, 0, 59, 95
2, 144360, Note_on_c, 0, 52, 95
2, 144480, Note_off_c, 0, 64, 80
2, 144480, Note_off_c, 0, 59, 80
2, 144480, Note_off_c, 0, 52, 80
2, 144480, Note_on_c, 0, 64, 95
2, 144480, Note_on_c, 0, 59, 95
2, 144480, Note_on_c, 0, 52, 95
2, 144720, Note_off_c, 0, 64, 80
2, 144720, Note_off_c, 0, 59, 80
2, 144720, Note_off_c, 0, 52, 80
2, 144720, Note_on_c, 0, 64, 95
2, 144720, Note_on_c, 0, 59, 95
2, 144720, Note_on_c, 0, 52, 95
2, 144960, Note_off_c, 0, 64, 80
2, 144960, Note_off_c, 0, 59, 80
2, 144960, Note_off_c, 0, 52, 80
2, 144960, Note_on_c, 0, 66, 95
2, 144960, Note_on_c, 0, 61, 95
2, 144960, Note_on_c, 0, 54, 95
2, 145080, Note_off_c, 0, 66, 80
2, 145080, Note_off_c, 0, 61, 80
2, 145080, Note_off_c, 0, 54, 80
2, 145080, Note_on_c, 0, 66, 95
2, 145080, Note_on_c, 0, 61, 95
2, 145080, Note_on_c, 0, 54, 95
2, 145200, Note_off_c, 0, 66, 80
2, 145200, Note_off_c, 0, 61, 80
2, 145200, Note_off_c, 0, 54, 80
2, 145320, Note_on_c, 0, 66, 95
2, 145320, Note_on_c, 0, 61, 95
2, 145320, Note_on_c, 0, 54, 95
2, 145440, Note_off_c, 0, 66, 80
2, 145440, Note_off_c, 0, 61, 80
2, 145440, Note_off_c, 0, 54, 80
2, 145440, Note_on_c, 0, 66, 95
2, 145440, Note_on_c, 0, 61, 95
2, 145440, Note_on_c, 0, 54, 95
2, 145680, Note_off_c, 0, 66, 80
2, 145680, Note_off_c, 0, 61, 80
2, 145680, Note_off_c, 0, 54, 80
2, 145680, Note_on_c, 0, 57, 95
2, 145740, Note_off_c, 0, 57, 80
2, 145740, Note_on_c, 0, 59, 76
2, 145800, Note_off_c, 0, 59, 80
2, 145800, Note_on_c, 0, 57, 76
2, 145860, Note_off_c, 0, 57, 80
2, 145860, Note_on_c, 0, 50, 76
2, 145920, Note_off_c, 0, 50, 80
2, 145920, Note_on_c, 0, 59, 95
2, 145920, Note_on_c, 0, 54, 95
2, 145920, Note_on_c, 0, 47, 95
2, 146040, Note_off_c, 0, 59, 80
2, 146040, Note_off_c, 0, 54, 80
2, 146040, Note_off_c, 0, 47, 80
2, 146280, Note_on_c, 0, 59, 95
2, 146280, Note_on_c, 0, 54, 95
2, 146280, Note_on_c, 0, 47, 95
2, 146400, Note_off_c, 0, 59, 80
2, 146400, Note_off_c, 0, 54, 80
2, 146400, Note_off_c, 0, 47, 80
2, 146400, Note_on_c, 0, 59, 95
2, 146400, Note_on_c, 0, 54, 95
2, 146400, Note_on_c, 0, 47, 95
2, 146640, Note_off_c, 0, 59, 80
2, 146640, Note_off_c, 0, 54, 80
2, 146640, Note_off_c, 0, 47, 80
2, 146640, Note_on_c, 0, 64, 95
2, 146640, Note_on_c, 0, 59, 95
2, 146880, Note_off_c, 0, 64, 80
2, 146880, Note_off_c, 0, 59, 80
2, 146880, Note_on_c, 0, 64, 95
2, 146880, Note_on_c, 0, 59, 95
2, 146880, Note_on_c, 0, 52, 95
2, 147000, Note_off_c, 0, 64, 80
2, 147000, Note_off_c, 0, 59, 80
2, 147000, Note_off_c, 0, 52, 80
2, 147240, Note_on_c, 0, 64, 95
2, 147240, Note_on_c, 0, 59, 95
2, 147240, Note_on_c, 0, 52, 95
2, 147360, Note_off_c, 0, 64, 80
2, 147360, Note_off_c, 0, 59, 80
2, 147360, Note_off_c, 0, 52, 80
2, 147360, Note_on_c, 0, 64, 95
2, 147360, Note_on_c, 0, 59, 95
2, 147360, Note_on_c, 0, 52, 95
2, 147600, Note_off_c, 0, 64, 80
2, 147600, Note_off_c, 0, 59, 80
2, 147600, Note_off_c, 0, 52, 80
2, 147600, Note_on_c, 0, 64, 95
2, 147600, Note_on_c, 0, 59, 95
2, 147840, Note_off_c, 0, 64, 80
2, 147840, Note_off_c, 0, 59, 80
2, 147840, Note_on_c, 0, 54, 95
2, 147840, Note_on_c, 0, 49, 95
2, 147840, Note_on_c, 0, 42, 95
2, 148800, Note_off_c, 0, 54, 80
2, 148800, Note_off_c, 0, 49, 80
2, 148800, Note_off_c, 0, 42, 80
2, 148800, Note_on_c, 0, 52, 95
2, 148800, Note_on_c, 0, 47, 95
2, 148800, Note_on_c, 0, 40, 95
2, 149760, Note_off_c, 0, 52, 80
2, 149760, Note_off_c, 0, 47, 80
2, 149760, Note_off_c, 0, 40, 80
2, 149760, Note_on_c, 0, 66, 95
2, 149760, Note_on_c, 0, 62, 95
2, 149760, Note_on_c, 0, 57, 95
2, 149880, Note_off_c, 0, 66, 80
2, 149880, Note_off_c, 0, 62, 80
2, 149880, Note_off_c, 0, 57, 80
2, 149880, Note_on_c, 0, 63, 76
2, 150000, Note_off_c, 0, 63, 80
2, 150000, Note_on_c, 0, 62, 95
2, 150120, Note_off_c, 0, 62, 80
2, 150120, Note_on_c, 0, 63, 76
2, 150240, Note_off_c, 0, 63, 80
2, 150240, Note_on_c, 0, 66, 95
2, 150240, Note_on_c, 0, 63, 95
2, 150240, Note_on_c, 0, 57, 95
2, 150360, Note_off_c, 0, 66, 80
2, 150360, Note_off_c, 0, 63, 80
2, 150360, Note_off_c, 0, 57, 80
2, 150600, Note_on_c, 0, 50, 95
2, 150720, Note_off_c, 0, 50, 80
2, 150720, Note_on_c, 0, 52, 76
2, 150840, Note_off_c, 0, 52, 80
2, 150840, Note_on_c, 0, 59, 95
2, 150840, Note_on_c, 0, 56, 95
2, 150840, Note_on_c, 0, 52, 95
2, 150960, Note_off_c, 0, 59, 80
2, 150960, Note_off_c, 0, 56, 80
2, 150960, Note_off_c, 0, 52, 80
2, 151440, Note_on_c, 0, 66, 95
2, 151440, Note_on_c, 0, 61, 95
2, 151440, Note_on_c, 0, 58, 95
2, 151440, Note_on_c, 0, 54, 95
2, 151440, Note_on_c, 0, 49, 95
2, 153600, Note_off_c, 0, 66, 80
2, 153600, Note_off_c, 0, 61, 80
2, 153600, Note_off_c, 0, 58, 80
2, 153600, Note_off_c, 0, 54, 80
2, 153600, Note_off_c, 0, 49, 80
2, 153600, Note_on_c, 0, 66, 95
2, 153600, Note_on_c, 0, 62, 95
2, 153600, Note_on_c, 0, 57, 95
2, 153720, Note_off_c, 0, 66, 80
2, 153720, Note_off_c, 0, 62, 80
2, 153720, Note_off_c, 0, 57, 80
2, 153720, Note_on_c, 0, 63, 76
2, 153840, Note_off_c, 0, 63, 80
2, 153840, Note_on_c, 0, 62, 95
2, 153960, Note_off_c, 0, 62, 80
2, 153960, Note_on_c, 0, 63, 76
2, 154080, Note_off_c, 0, 63, 80
2, 154080, Note_on_c, 0, 66, 95
2, 154080, Note_on_c, 0, 63, 95
2, 154080, Note_on_c, 0, 57, 95
2, 154200, Note_off_c, 0, 66, 80
2, 154200, Note_off_c, 0, 63, 80
2, 154200, Note_off_c, 0, 57, 80
2, 154440, Note_on_c, 0, 50, 95
2, 154560, Note_off_c, 0, 50, 80
2, 154560, Note_on_c, 0, 52, 76
2, 154680, Note_off_c, 0, 52, 80
2, 154680, Note_on_c, 0, 59, 95
2, 154680, Note_on_c, 0, 56, 95
2, 154680, Note_on_c, 0, 52, 95
2, 154800, Note_off_c, 0, 59, 80
2, 154800, Note_off_c, 0, 56, 80
2, 154800, Note_off_c, 0, 52, 80
2, 155400, Note_on_c, 0, 61, 95
2, 155400, Note_on_c, 0, 58, 95
2, 155400, Note_on_c, 0, 54, 95
2, 155400, Note_on_c, 0, 49, 95
2, 155520, Note_off_c, 0, 61, 80
2, 155520, Note_off_c, 0, 58, 80
2, 155520, Note_off_c, 0, 54, 80
2, 155520, Note_off_c, 0, 49, 80
2, 155520, Note_on_c, 0, 61, 95
2, 155520, Note_on_c, 0, 58, 95
2, 155520, Note_on_c, 0, 54, 95
2, 155520, Note_on_c, 0, 49, 95
2, 157440, Note_off_c, 0, 61, 80
2, 157440, Note_off_c, 0, 58, 80
2, 157440, Note_off_c, 0, 54, 80
2, 157440, Note_off_c, 0, 49, 80
2, 157440, Note_on_c, 0, 66, 95
2, 157440, Note_on_c, 0, 62, 95
2, 157440, Note_on_c, 0, 57, 95
2, 157560, Note_off_c, 0, 66, 80
2, 157560, Note_off_c, 0, 62, 80
2, 157560, Note_off_c, 0, 57, 80
2, 157560, Note_on_c, 0, 63, 76
2, 157680, Note_off_c, 0, 63, 80
2, 157680, Note_on_c, 0, 62, 95
2, 157800, Note_off_c, 0, 62, 80
2, 157800, Note_on_c, 0, 63, 76
2, 157920, Note_off_c, 0, 63, 80
2, 157920, Note_on_c, 0, 66, 95
2, 157920, Note_on_c, 0, 63, 95
2, 157920, Note_on_c, 0, 57, 95
2, 158040, Note_off_c, 0, 66, 80
2, 158040, Note_off_c, 0, 63, 80
2, 158040, Note_off_c, 0, 57, 80
2, 158280, Note_on_c, 0, 50, 95
2, 158400, Note_off_c, 0, 50, 80
2, 158400, Note_on_c, 0, 52, 76
2, 158520, Note_off_c, 0, 52, 80
2, 158520, Note_on_c, 0, 59, 95
2, 158520, Note_on_c, 0, 56, 95
2, 158520, Note_on_c, 0, 52, 95
2, 158640, Note_off_c, 0, 59, 80
2, 158640, Note_off_c, 0, 56, 80
2, 158640, Note_off_c, 0, 52, 80
2, 159120, Note_on_c, 0, 66, 95
2, 159120, Note_on_c, 0, 61, 95
2, 159120, Note_on_c, 0, 58, 95
2, 159120, Note_on_c, 0, 54, 95
2, 159120, Note_on_c, 0, 49, 95
2, 161280, Note_off_c, 0, 66, 80
2, 161280, Note_off_c, 0, 61, 80
2, 161280, Note_off_c, 0, 58, 80
2, 161280, Note_off_c, 0, 54, 80
2, 161280, Note_off_c, 0, 49, 80
2, 161280, Note_on_c, 0, 66, 95
2, 161280, Note_on_c, 0, 62, 95
2, 161280, Note_on_c, 0, 57, 95
2, 161400, Note_off_c, 0, 66, 80
2, 161400, Note_off_c, 0, 62, 80
2, 161400, Note_off_c, 0, 57, 80
2, 161400, Note_on_c, 0, 63, 76
2, 161520, Note_off_c, 0, 63, 80
2, 161520, Note_on_c, 0, 62, 95
2, 161640, Note_off_c, 0, 62, 80
2, 161640, Note_on_c, 0, 63, 76
2, 161760, Note_off_c, 0, 63, 80
2, 161760, Note_on_c, 0, 66, 95
2, 161760, Note_on_c, 0, 63, 95
2, 161760, Note_on_c, 0, 57, 95
2, 161880, Note_off_c, 0, 66, 80
2, 161880, Note_off_c, 0, 63, 80
2, 161880, Note_off_c, 0, 57, 80
2, 162120, Note_on_c, 0, 50, 95
2, 162240, Note_off_c, 0, 50, 80
2, 162240, Note_on_c, 0, 52, 76
2, 162360, Note_off_c, 0, 52, 80
2, 162360, Note_on_c, 0, 59, 95
2, 162360, Note_on_c, 0, 56, 95
2, 162360, Note_on_c, 0, 52, 95
2, 162480, Note_off_c, 0, 59, 80
2, 162480, Note_off_c, 0, 56, 80
2, 162480, Note_off_c, 0, 52, 80
2, 162960, Note_on_c, 0, 66, 95
2, 162960, Note_on_c, 0, 61, 95
2, 162960, Note_on_c, 0, 58, 95
2, 162960, Note_on_c, 0, 54, 95
2, 162960, Note_on_c, 0, 49, 95
2, 165120, Note_off_c, 0, 66, 80
2, 165120, Note_off_c, 0, 61, 80
2, 165120, Note_off_c, 0, 58, 80
2, 165120, Note_off_c, 0, 54, 80
2, 165120, Note_off_c, 0, 49, 80
2, 165120, End_track
3, 0, Start_track
3, 0, Title_t, "Effect (Disto Guitar)"
3, 0, Control_c, 3, 100, 0
3, 0, Control_c, 3, 101, 0
3, 0, Control_c, 3, 6, 12
3, 0, Pitch_bend_c, 3, 8192
3, 0, Control_c, 3, 101, 0
3, 0, Control_c, 3, 100, 1
3, 0, Control_c, 3, 6, 64
3, 0, Control_c, 3, 38, 0
3, 0, Control_c, 3, 101, 127
3, 0, Control_c, 3, 100, 127
3, 0, Control_c, 2, 100, 0
3, 0, Control_c, 2, 101, 0
3, 0, Control_c, 2, 6, 12
3, 0, Pitch_bend_c, 2, 8192
3, 0, Control_c, 2, 101, 0
3, 0, Control_c, 2, 100, 1
3, 0, Control_c, 2, 6, 64
3, 0, Control_c, 2, 38, 0
3, 0, Control_c, 2, 101, 127
3, 0, Control_c, 2, 100, 127
3, 0, Control_c, 3, 101, 0
3, 0, Control_c, 3, 100, 2
3, 0, Control_c, 3, 6, 64
3, 0, Control_c, 3, 101, 127
3, 0, Control_c, 3, 100, 127
3, 0, Control_c, 2, 101, 0
3, 0, Control_c, 2, 100, 2
3, 0, Control_c, 2, 6, 64
3, 0, Control_c, 2, 101, 127
3, 0, Control_c, 2, 100, 127
3, 0, Program_c, 3, 29
3, 0, Program_c, 2, 29
3, 0, Control_c, 3, 0, 0
3, 0, Control_c, 2, 0, 0
3, 0, Control_c, 3, 7, 80
3, 0, Control_c, 2, 7, 80
3, 0, Control_c, 3, 10, 64
3, 0, Control_c, 2, 10, 64
3, 0, Control_c, 3, 93, 0
3, 0, Control_c, 2, 93, 0
3, 0, Control_c, 3, 91, 0
3, 0, Control_c, 2, 91, 0
3, 0, Control_c, 3, 92, 0
3, 0, Control_c, 2, 92, 0
3, 0, Control_c, 3, 95, 0
3, 0, Control_c, 2, 95, 0
3, 12480, Note_on_c, 2, 63, 95
3, 12480, Note_on_c, 2, 58, 95
3, 12480, Note_on_c, 2, 54, 95
3, 12500, Note_off_c, 2, 63, 80
3, 12500, Note_off_c, 2, 58, 80
3, 12500, Note_off_c, 2, 54, 80
3, 12510, Note_on_c, 2, 63, 95
3, 12510, Note_on_c, 2, 58, 95
3, 12510, Note_on_c, 2, 54, 95
3, 12530, Note_off_c, 2, 63, 80
3, 12530, Note_off_c, 2, 58, 80
3, 12530, Note_off_c, 2, 54, 80
3, 12540, Note_on_c, 2, 63, 95
3, 12540, Note_on_c, 2, 58, 95
3, 12540, Note_on_c, 2, 54, 95
3, 12560, Note_off_c, 2, 63, 80
3, 12560, Note_off_c, 2, 58, 80
3, 12560, Note_off_c, 2, 54, 80
3, 12570, Note_on_c, 2, 63, 95
3, 12570, Note_on_c, 2, 58, 95
3, 12570, Note_on_c, 2, 54, 95
3, 12590, Note_off_c, 2, 63, 80
3, 12590, Note_off_c, 2, 58, 80
3, 12590, Note_off_c, 2, 54, 80
3, 12600, Note_on_c, 2, 63, 95
3, 12600, Note_on_c, 2, 58, 95
3, 12600, Note_on_c, 2, 54, 95
3, 12620, Note_off_c, 2, 63, 80
3, 12620, Note_off_c, 2, 58, 80
3, 12620, Note_off_c, 2, 54, 80
3, 12630, Note_on_c, 2, 63, 95
3, 12630, Note_on_c, 2, 58, 95
3, 12630, Note_on_c, 2, 54, 95
3, 12650, Note_off_c, 2, 63, 80
3, 12650, Note_off_c, 2, 58, 80
3, 12650, Note_off_c, 2, 54, 80
3, 12660, Note_on_c, 2, 63, 95
3, 12660, Note_on_c, 2, 58, 95
3, 12660, Note_on_c, 2, 54, 95
3, 12680, Note_off_c, 2, 63, 80
3, 12680, Note_off_c, 2, 58, 80
3, 12680, Note_off_c, 2, 54, 80
3, 12690, Note_on_c, 2, 63, 95
3, 12690, Note_on_c, 2, 58, 95
3, 12690, Note_on_c, 2, 54, 95
3, 12710, Note_off_c, 2, 63, 80
3, 12710, Note_off_c, 2, 58, 80
3, 12710, Note_off_c, 2, 54, 80
3, 12720, Note_on_c, 2, 63, 95
3, 12720, Note_on_c, 2, 58, 95
3, 12720, Note_on_c, 2, 54, 95
3, 12740, Note_off_c, 2, 63, 80
3, 12740, Note_off_c, 2, 58, 80
3, 12740, Note_off_c, 2, 54, 80
3, 12750, Note_on_c, 2, 63, 95
3, 12750, Note_on_c, 2, 58, 95
3, 12750, Note_on_c, 2, 54, 95
3, 12770, Note_off_c, 2, 63, 80
3, 12770, Note_off_c, 2, 58, 80
3, 12770, Note_off_c, 2, 54, 80
3, 12780, Note_on_c, 2, 63, 95
3, 12780, Note_on_c, 2, 58, 95
3, 12780, Note_on_c, 2, 54, 95
3, 12800, Note_off_c, 2, 63, 80
3, 12800, Note_off_c, 2, 58, 80
3, 12800, Note_off_c, 2, 54, 80
3, 12810, Note_on_c, 2, 63, 95
3, 12810, Note_on_c, 2, 58, 95
3, 12810, Note_on_c, 2, 54, 95
3, 12830, Note_off_c, 2, 63, 80
3, 12830, Note_off_c, 2, 58, 80
3, 12830, Note_off_c, 2, 54, 80
3, 12840, Note_on_c, 2, 63, 95
3, 12840, Note_on_c, 2, 58, 95
3, 12840, Note_on_c, 2, 54, 95
3, 12860, Note_off_c, 2, 63, 80
3, 12860, Note_off_c, 2, 58, 80
3, 12860, Note_off_c, 2, 54, 80
3, 12870, Note_on_c, 2, 63, 95
3, 12870, Note_on_c, 2, 58, 95
3, 12870, Note_on_c, 2, 54, 95
3, 12890, Note_off_c, 2, 63, 80
3, 12890, Note_off_c, 2, 58, 80
3, 12890, Note_off_c, 2, 54, 80
3, 12900, Note_on_c, 2, 63, 95
3, 12900, Note_on_c, 2, 58, 95
3, 12900, Note_on_c, 2, 54, 95
3, 12920, Note_off_c, 2, 63, 80
3, 12920, Note_off_c, 2, 58, 80
3, 12920, Note_off_c, 2, 54, 80
3, 12930, Note_on_c, 2, 63, 95
3, 12930, Note_on_c, 2, 58, 95
3, 12930, Note_on_c, 2, 54, 95
3, 12950, Note_off_c, 2, 63, 80
3, 12950, Note_off_c, 2, 58, 80
3, 12950, Note_off_c, 2, 54, 80
3, 12960, Note_on_c, 2, 63, 95
3, 12960, Note_on_c, 2, 58, 95
3, 12960, Note_on_c, 2, 54, 95
3, 12980, Note_off_c, 2, 63, 80
3, 12980, Note_off_c, 2, 58, 80
3, 12980, Note_off_c, 2, 54, 80
3, 12990, Note_on_c, 2, 63, 95
3, 12990, Note_on_c, 2, 58, 95
3, 12990, Note_on_c, 2, 54, 95
3, 13010, Note_off_c, 2, 63, 80
3, 13010, Note_off_c, 2, 58, 80
3, 13010, Note_off_c, 2, 54, 80
3, 13020, Note_on_c, 2, 63, 95
3, 13020, Note_on_c, 2, 58, 95
3, 13020, Note_on_c, 2, 54, 95
3, 13040, Note_off_c, 2, 63, 80
3, 13040, Note_off_c, 2, 58, 80
3, 13040, Note_off_c, 2, 54, 80
3, 13050, Note_on_c, 2, 63, 95
3, 13050, Note_on_c, 2, 58, 95
3, 13050, Note_on_c, 2, 54, 95
3, 13070, Note_off_c, 2, 63, 80
3, 13070, Note_off_c, 2, 58, 80
3, 13070, Note_off_c, 2, 54, 80
3, 13080, Note_on_c, 2, 63, 95
3, 13080, Note_on_c, 2, 58, 95
3, 13080, Note_on_c, 2, 54, 95
3, 13100, Note_off_c, 2, 63, 80
3, 13100, Note_off_c, 2, 58, 80
3, 13100, Note_off_c, 2, 54, 80
3, 13110, Note_on_c, 2, 63, 95
3, 13110, Note_on_c, 2, 58, 95
3, 13110, Note_on_c, 2, 54, 95
3, 13130, Note_off_c, 2, 63, 80
3, 13130, Note_off_c, 2, 58, 80
3, 13130, Note_off_c, 2, 54, 80
3, 13140, Note_on_c, 2, 63, 95
3, 13140, Note_on_c, 2, 58, 95
3, 13140, Note_on_c, 2, 54, 95
3, 13160, Note_off_c, 2, 63, 80
3, 13160, Note_off_c, 2, 58, 80
3, 13160, Note_off_c, 2, 54, 80
3, 13170, Note_on_c, 2, 63, 95
3, 13170, Note_on_c, 2, 58, 95
3, 13170, Note_on_c, 2, 54, 95
3, 13190, Note_off_c, 2, 63, 80
3, 13190, Note_off_c, 2, 58, 80
3, 13190, Note_off_c, 2, 54, 80
3, 13200, Note_on_c, 2, 63, 95
3, 13200, Note_on_c, 2, 58, 95
3, 13200, Note_on_c, 2, 54, 95
3, 13220, Note_off_c, 2, 63, 80
3, 13220, Note_off_c, 2, 58, 80
3, 13220, Note_off_c, 2, 54, 80
3, 13230, Note_on_c, 2, 63, 95
3, 13230, Note_on_c, 2, 58, 95
3, 13230, Note_on_c, 2, 54, 95
3, 13250, Note_off_c, 2, 63, 80
3, 13250, Note_off_c, 2, 58, 80
3, 13250, Note_off_c, 2, 54, 80
3, 13260, Note_on_c, 2, 63, 95
3, 13260, Note_on_c, 2, 58, 95
3, 13260, Note_on_c, 2, 54, 95
3, 13280, Note_off_c, 2, 63, 80
3, 13280, Note_off_c, 2, 58, 80
3, 13280, Note_off_c, 2, 54, 80
3, 13290, Note_on_c, 2, 63, 95
3, 13290, Note_on_c, 2, 58, 95
3, 13290, Note_on_c, 2, 54, 95
3, 13310, Note_off_c, 2, 63, 80
3, 13310, Note_off_c, 2, 58, 80
3, 13310, Note_off_c, 2, 54, 80
3, 13320, Note_on_c, 2, 63, 95
3, 13320, Note_on_c, 2, 58, 95
3, 13320, Note_on_c, 2, 54, 95
3, 13340, Note_off_c, 2, 63, 80
3, 13340, Note_off_c, 2, 58, 80
3, 13340, Note_off_c, 2, 54, 80
3, 13350, Note_on_c, 2, 63, 95
3, 13350, Note_on_c, 2, 58, 95
3, 13350, Note_on_c, 2, 54, 95
3, 13370, Note_off_c, 2, 63, 80
3, 13370, Note_off_c, 2, 58, 80
3, 13370, Note_off_c, 2, 54, 80
3, 13380, Note_on_c, 2, 63, 95
3, 13380, Note_on_c, 2, 58, 95
3, 13380, Note_on_c, 2, 54, 95
3, 13400, Note_off_c, 2, 63, 80
3, 13400, Note_off_c, 2, 58, 80
3, 13400, Note_off_c, 2, 54, 80
3, 13410, Note_on_c, 2, 63, 95
3, 13410, Note_on_c, 2, 58, 95
3, 13410, Note_on_c, 2, 54, 95
3, 13430, Note_off_c, 2, 63, 80
3, 13430, Note_off_c, 2, 58, 80
3, 13430, Note_off_c, 2, 54, 80
3, 16320, Note_on_c, 2, 63, 95
3, 16320, Note_on_c, 2, 58, 95
3, 16320, Note_on_c, 2, 54, 95
3, 16340, Note_off_c, 2, 63, 80
3, 16340, Note_off_c, 2, 58, 80
3, 16340, Note_off_c, 2, 54, 80
3, 16350, Note_on_c, 2, 63, 95
3, 16350, Note_on_c, 2, 58, 95
3, 16350, Note_on_c, 2, 54, 95
3, 16370, Note_off_c, 2, 63, 80
3, 16370, Note_off_c, 2, 58, 80
3, 16370, Note_off_c, 2, 54, 80
3, 16380, Note_on_c, 2, 63, 95
3, 16380, Note_on_c, 2, 58, 95
3, 16380, Note_on_c, 2, 54, 95
3, 16400, Note_off_c, 2, 63, 80
3, 16400, Note_off_c, 2, 58, 80
3, 16400, Note_off_c, 2, 54, 80
3, 16410, Note_on_c, 2, 63, 95
3, 16410, Note_on_c, 2, 58, 95
3, 16410, Note_on_c, 2, 54, 95
3, 16430, Note_off_c, 2, 63, 80
3, 16430, Note_off_c, 2, 58, 80
3, 16430, Note_off_c, 2, 54, 80
3, 16440, Note_on_c, 2, 63, 95
3, 16440, Note_on_c, 2, 58, 95
3, 16440, Note_on_c, 2, 54, 95
3, 16460, Note_off_c, 2, 63, 80
3, 16460, Note_off_c, 2, 58, 80
3, 16460, Note_off_c, 2, 54, 80
3, 16470, Note_on_c, 2, 63, 95
3, 16470, Note_on_c, 2, 58, 95
3, 16470, Note_on_c, 2, 54, 95
3, 16490, Note_off_c, 2, 63, 80
3, 16490, Note_off_c, 2, 58, 80
3, 16490, Note_off_c, 2, 54, 80
3, 16500, Note_on_c, 2, 63, 95
3, 16500, Note_on_c, 2, 58, 95
3, 16500, Note_on_c, 2, 54, 95
3, 16520, Note_off_c, 2, 63, 80
3, 16520, Note_off_c, 2, 58, 80
3, 16520, Note_off_c, 2, 54, 80
3, 16530, Note_on_c, 2, 63, 95
3, 16530, Note_on_c, 2, 58, 95
3, 16530, Note_on_c, 2, 54, 95
3, 16550, Note_off_c, 2, 63, 80
3, 16550, Note_off_c, 2, 58, 80
3, 16550, Note_off_c, 2, 54, 80
3, 16560, Note_on_c, 2, 63, 95
3, 16560, Note_on_c, 2, 58, 95
3, 16560, Note_on_c, 2, 54, 95
3, 16580, Note_off_c, 2, 63, 80
3, 16580, Note_off_c, 2, 58, 80
3, 16580, Note_off_c, 2, 54, 80
3, 16590, Note_on_c, 2, 63, 95
3, 16590, Note_on_c, 2, 58, 95
3, 16590, Note_on_c, 2, 54, 95
3, 16610, Note_off_c, 2, 63, 80
3, 16610, Note_off_c, 2, 58, 80
3, 16610, Note_off_c, 2, 54, 80
3, 16620, Note_on_c, 2, 63, 95
3, 16620, Note_on_c, 2, 58, 95
3, 16620, Note_on_c, 2, 54, 95
3, 16640, Note_off_c, 2, 63, 80
3, 16640, Note_off_c, 2, 58, 80
3, 16640, Note_off_c, 2, 54, 80
3, 16650, Note_on_c, 2, 63, 95
3, 16650, Note_on_c, 2, 58, 95
3, 16650, Note_on_c, 2, 54, 95
3, 16670, Note_off_c, 2, 63, 80
3, 16670, Note_off_c, 2, 58, 80
3, 16670, Note_off_c, 2, 54, 80
3, 16680, Note_on_c, 2, 63, 95
3, 16680, Note_on_c, 2, 58, 95
3, 16680, Note_on_c, 2, 54, 95
3, 16700, Note_off_c, 2, 63, 80
3, 16700, Note_off_c, 2, 58, 80
3, 16700, Note_off_c, 2, 54, 80
3, 16710, Note_on_c, 2, 63, 95
3, 16710, Note_on_c, 2, 58, 95
3, 16710, Note_on_c, 2, 54, 95
3, 16730, Note_off_c, 2, 63, 80
3, 16730, Note_off_c, 2, 58, 80
3, 16730, Note_off_c, 2, 54, 80
3, 16740, Note_on_c, 2, 63, 95
3, 16740, Note_on_c, 2, 58, 95
3, 16740, Note_on_c, 2, 54, 95
3, 16760, Note_off_c, 2, 63, 80
3, 16760, Note_off_c, 2, 58, 80
3, 16760, Note_off_c, 2, 54, 80
3, 16770, Note_on_c, 2, 63, 95
3, 16770, Note_on_c, 2, 58, 95
3, 16770, Note_on_c, 2, 54, 95
3, 16790, Note_off_c, 2, 63, 80
3, 16790, Note_off_c, 2, 58, 80
3, 16790, Note_off_c, 2, 54, 80
3, 16800, Note_on_c, 2, 63, 95
3, 16800, Note_on_c, 2, 58, 95
3, 16800, Note_on_c, 2, 54, 95
3, 16820, Note_off_c, 2, 63, 80
3, 16820, Note_off_c, 2, 58, 80
3, 16820, Note_off_c, 2, 54, 80
3, 16830, Note_on_c, 2, 63, 95
3, 16830, Note_on_c, 2, 58, 95
3, 16830, Note_on_c, 2, 54, 95
3, 16850, Note_off_c, 2, 63, 80
3, 16850, Note_off_c, 2, 58, 80
3, 16850, Note_off_c, 2, 54, 80
3, 16860, Note_on_c, 2, 63, 95
3, 16860, Note_on_c, 2, 58, 95
3, 16860, Note_on_c, 2, 54, 95
3, 16880, Note_off_c, 2, 63, 80
3, 16880, Note_off_c, 2, 58, 80
3, 16880, Note_off_c, 2, 54, 80
3, 16890, Note_on_c, 2, 63, 95
3, 16890, Note_on_c, 2, 58, 95
3, 16890, Note_on_c, 2, 54, 95
3, 16910, Note_off_c, 2, 63, 80
3, 16910, Note_off_c, 2, 58, 80
3, 16910, Note_off_c, 2, 54, 80
3, 16920, Note_on_c, 2, 63, 95
3, 16920, Note_on_c, 2, 58, 95
3, 16920, Note_on_c, 2, 54, 95
3, 16940, Note_off_c, 2, 63, 80
3, 16940, Note_off_c, 2, 58, 80
3, 16940, Note_off_c, 2, 54, 80
3, 16950, Note_on_c, 2, 63, 95
3, 16950, Note_on_c, 2, 58, 95
3, 16950, Note_on_c, 2, 54, 95
3, 16970, Note_off_c, 2, 63, 80
3, 16970, Note_off_c, 2, 58, 80
3, 16970, Note_off_c, 2, 54, 80
3, 16980, Note_on_c, 2, 63, 95
3, 16980, Note_on_c, 2, 58, 95
3, 16980, Note_on_c, 2, 54, 95
3, 17000, Note_off_c, 2, 63, 80
3, 17000, Note_off_c, 2, 58, 80
3, 17000, Note_off_c, 2, 54, 80
3, 17010, Note_on_c, 2, 63, 95
3, 17010, Note_on_c, 2, 58, 95
3, 17010, Note_on_c, 2, 54, 95
3, 17030, Note_off_c, 2, 63, 80
3, 17030, Note_off_c, 2, 58, 80
3, 17030, Note_off_c, 2, 54, 80
3, 17040, Note_on_c, 2, 63, 95
3, 17040, Note_on_c, 2, 58, 95
3, 17040, Note_on_c, 2, 54, 95
3, 17060, Note_off_c, 2, 63, 80
3, 17060, Note_off_c, 2, 58, 80
3, 17060, Note_off_c, 2, 54, 80
3, 17070, Note_on_c, 2, 63, 95
3, 17070, Note_on_c, 2, 58, 95
3, 17070, Note_on_c, 2, 54, 95
3, 17090, Note_off_c, 2, 63, 80
3, 17090, Note_off_c, 2, 58, 80
3, 17090, Note_off_c, 2, 54, 80
3, 17100, Note_on_c, 2, 63, 95
3, 17100, Note_on_c, 2, 58, 95
3, 17100, Note_on_c, 2, 54, 95
3, 17120, Note_off_c, 2, 63, 80
3, 17120, Note_off_c, 2, 58, 80
3, 17120, Note_off_c, 2, 54, 80
3, 17130, Note_on_c, 2, 63, 95
3, 17130, Note_on_c, 2, 58, 95
3, 17130, Note_on_c, 2, 54, 95
3, 17150, Note_off_c, 2, 63, 80
3, 17150, Note_off_c, 2, 58, 80
3, 17150, Note_off_c, 2, 54, 80
3, 17160, Note_on_c, 2, 63, 95
3, 17160, Note_on_c, 2, 58, 95
3, 17160, Note_on_c, 2, 54, 95
3, 17180, Note_off_c, 2, 63, 80
3, 17180, Note_off_c, 2, 58, 80
3, 17180, Note_off_c, 2, 54, 80
3, 17190, Note_on_c, 2, 63, 95
3, 17190, Note_on_c, 2, 58, 95
3, 17190, Note_on_c, 2, 54, 95
3, 17210, Note_off_c, 2, 63, 80
3, 17210, Note_off_c, 2, 58, 80
3, 17210, Note_off_c, 2, 54, 80
3, 17220, Note_on_c, 2, 63, 95
3, 17220, Note_on_c, 2, 58, 95
3, 17220, Note_on_c, 2, 54, 95
3, 17240, Note_off_c, 2, 63, 80
3, 17240, Note_off_c, 2, 58, 80
3, 17240, Note_off_c, 2, 54, 80
3, 17250, Note_on_c, 2, 63, 95
3, 17250, Note_on_c, 2, 58, 95
3, 17250, Note_on_c, 2, 54, 95
3, 17270, Note_off_c, 2, 63, 80
3, 17270, Note_off_c, 2, 58, 80
3, 17270, Note_off_c, 2, 54, 80
3, 20160, Note_on_c, 2, 63, 95
3, 20160, Note_on_c, 2, 58, 95
3, 20160, Note_on_c, 2, 54, 95
3, 20180, Note_off_c, 2, 63, 80
3, 20180, Note_off_c, 2, 58, 80
3, 20180, Note_off_c, 2, 54, 80
3, 20190, Note_on_c, 2, 63, 95
3, 20190, Note_on_c, 2, 58, 95
3, 20190, Note_on_c, 2, 54, 95
3, 20210, Note_off_c, 2, 63, 80
3, 20210, Note_off_c, 2, 58, 80
3, 20210, Note_off_c, 2, 54, 80
3, 20220, Note_on_c, 2, 63, 95
3, 20220, Note_on_c, 2, 58, 95
3, 20220, Note_on_c, 2, 54, 95
3, 20240, Note_off_c, 2, 63, 80
3, 20240, Note_off_c, 2, 58, 80
3, 20240, Note_off_c, 2, 54, 80
3, 20250, Note_on_c, 2, 63, 95
3, 20250, Note_on_c, 2, 58, 95
3, 20250, Note_on_c, 2, 54, 95
3, 20270, Note_off_c, 2, 63, 80
3, 20270, Note_off_c, 2, 58, 80
3, 20270, Note_off_c, 2, 54, 80
3, 20280, Note_on_c, 2, 63, 95
3, 20280, Note_on_c, 2, 58, 95
3, 20280, Note_on_c, 2, 54, 95
3, 20300, Note_off_c, 2, 63, 80
3, 20300, Note_off_c, 2, 58, 80
3, 20300, Note_off_c, 2, 54, 80
3, 20310, Note_on_c, 2, 63, 95
3, 20310, Note_on_c, 2, 58, 95
3, 20310, Note_on_c, 2, 54, 95
3, 20330, Note_off_c, 2, 63, 80
3, 20330, Note_off_c, 2, 58, 80
3, 20330, Note_off_c, 2, 54, 80
3, 20340, Note_on_c, 2, 63, 95
3, 20340, Note_on_c, 2, 58, 95
3, 20340, Note_on_c, 2, 54, 95
3, 20360, Note_off_c, 2, 63, 80
3, 20360, Note_off_c, 2, 58, 80
3, 20360, Note_off_c, 2, 54, 80
3, 20370, Note_on_c, 2, 63, 95
3, 20370, Note_on_c, 2, 58, 95
3, 20370, Note_on_c, 2, 54, 95
3, 20390, Note_off_c, 2, 63, 80
3, 20390, Note_off_c, 2, 58, 80
3, 20390, Note_off_c, 2, 54, 80
3, 20400, Note_on_c, 2, 63, 95
3, 20400, Note_on_c, 2, 58, 95
3, 20400, Note_on_c, 2, 54, 95
3, 20420, Note_off_c, 2, 63, 80
3, 20420, Note_off_c, 2, 58, 80
3, 20420, Note_off_c, 2, 54, 80
3, 20430, Note_on_c, 2, 63, 95
3, 20430, Note_on_c, 2, 58, 95
3, 20430, Note_on_c, 2, 54, 95
3, 20450, Note_off_c, 2, 63, 80
3, 20450, Note_off_c, 2, 58, 80
3, 20450, Note_off_c, 2, 54, 80
3, 20460, Note_on_c, 2, 63, 95
3, 20460, Note_on_c, 2, 58, 95
3, 20460, Note_on_c, 2, 54, 95
3, 20480, Note_off_c, 2, 63, 80
3, 20480, Note_off_c, 2, 58, 80
3, 20480, Note_off_c, 2, 54, 80
3, 20490, Note_on_c, 2, 63, 95
3, 20490, Note_on_c, 2, 58, 95
3, 20490, Note_on_c, 2, 54, 95
3, 20510, Note_off_c, 2, 63, 80
3, 20510, Note_off_c, 2, 58, 80
3, 20510, Note_off_c, 2, 54, 80
3, 20520, Note_on_c, 2, 63, 95
3, 20520, Note_on_c, 2, 58, 95
3, 20520, Note_on_c, 2, 54, 95
3, 20540, Note_off_c, 2, 63, 80
3, 20540, Note_off_c, 2, 58, 80
3, 20540, Note_off_c, 2, 54, 80
3, 20550, Note_on_c, 2, 63, 95
3, 20550, Note_on_c, 2, 58, 95
3, 20550, Note_on_c, 2, 54, 95
3, 20570, Note_off_c, 2, 63, 80
3, 20570, Note_off_c, 2, 58, 80
3, 20570, Note_off_c, 2, 54, 80
3, 20580, Note_on_c, 2, 63, 95
3, 20580, Note_on_c, 2, 58, 95
3, 20580, Note_on_c, 2, 54, 95
3, 20600, Note_off_c, 2, 63, 80
3, 20600, Note_off_c, 2, 58, 80
3, 20600, Note_off_c, 2, 54, 80
3, 20610, Note_on_c, 2, 63, 95
3, 20610, Note_on_c, 2, 58, 95
3, 20610, Note_on_c, 2, 54, 95
3, 20630, Note_off_c, 2, 63, 80
3, 20630, Note_off_c, 2, 58, 80
3, 20630, Note_off_c, 2, 54, 80
3, 20640, Note_on_c, 2, 63, 95
3, 20640, Note_on_c, 2, 58, 95
3, 20640, Note_on_c, 2, 54, 95
3, 20660, Note_off_c, 2, 63, 80
3, 20660, Note_off_c, 2, 58, 80
3, 20660, Note_off_c, 2, 54, 80
3, 20670, Note_on_c, 2, 63, 95
3, 20670, Note_on_c, 2, 58, 95
3, 20670, Note_on_c, 2, 54, 95
3, 20690, Note_off_c, 2, 63, 80
3, 20690, Note_off_c, 2, 58, 80
3, 20690, Note_off_c, 2, 54, 80
3, 20700, Note_on_c, 2, 63, 95
3, 20700, Note_on_c, 2, 58, 95
3, 20700, Note_on_c, 2, 54, 95
3, 20720, Note_off_c, 2, 63, 80
3, 20720, Note_off_c, 2, 58, 80
3, 20720, Note_off_c, 2, 54, 80
3, 20730, Note_on_c, 2, 63, 95
3, 20730, Note_on_c, 2, 58, 95
3, 20730, Note_on_c, 2, 54, 95
3, 20750, Note_off_c, 2, 63, 80
3, 20750, Note_off_c, 2, 58, 80
3, 20750, Note_off_c, 2, 54, 80
3, 20760, Note_on_c, 2, 63, 95
3, 20760, Note_on_c, 2, 58, 95
3, 20760, Note_on_c, 2, 54, 95
3, 20780, Note_off_c, 2, 63, 80
3, 20780, Note_off_c, 2, 58, 80
3, 20780, Note_off_c, 2, 54, 80
3, 20790, Note_on_c, 2, 63, 95
3, 20790, Note_on_c, 2, 58, 95
3, 20790, Note_on_c, 2, 54, 95
3, 20810, Note_off_c, 2, 63, 80
3, 20810, Note_off_c, 2, 58, 80
3, 20810, Note_off_c, 2, 54, 80
3, 20820, Note_on_c, 2, 63, 95
3, 20820, Note_on_c, 2, 58, 95
3, 20820, Note_on_c, 2, 54, 95
3, 20840, Note_off_c, 2, 63, 80
3, 20840, Note_off_c, 2, 58, 80
3, 20840, Note_off_c, 2, 54, 80
3, 20850, Note_on_c, 2, 63, 95
3, 20850, Note_on_c, 2, 58, 95
3, 20850, Note_on_c, 2, 54, 95
3, 20870, Note_off_c, 2, 63, 80
3, 20870, Note_off_c, 2, 58, 80
3, 20870, Note_off_c, 2, 54, 80
3, 20880, Note_on_c, 2, 63, 95
3, 20880, Note_on_c, 2, 58, 95
3, 20880, Note_on_c, 2, 54, 95
3, 20900, Note_off_c, 2, 63, 80
3, 20900, Note_off_c, 2, 58, 80
3, 20900, Note_off_c, 2, 54, 80
3, 20910, Note_on_c, 2, 63, 95
3, 20910, Note_on_c, 2, 58, 95
3, 20910, Note_on_c, 2, 54, 95
3, 20930, Note_off_c, 2, 63, 80
3, 20930, Note_off_c, 2, 58, 80
3, 20930, Note_off_c, 2, 54, 80
3, 20940, Note_on_c, 2, 63, 95
3, 20940, Note_on_c, 2, 58, 95
3, 20940, Note_on_c, 2, 54, 95
3, 20960, Note_off_c, 2, 63, 80
3, 20960, Note_off_c, 2, 58, 80
3, 20960, Note_off_c, 2, 54, 80
3, 20970, Note_on_c, 2, 63, 95
3, 20970, Note_on_c, 2, 58, 95
3, 20970, Note_on_c, 2, 54, 95
3, 20990, Note_off_c, 2, 63, 80
3, 20990, Note_off_c, 2, 58, 80
3, 20990, Note_off_c, 2, 54, 80
3, 21000, Note_on_c, 2, 63, 95
3, 21000, Note_on_c, 2, 58, 95
3, 21000, Note_on_c, 2, 54, 95
3, 21020, Note_off_c, 2, 63, 80
3, 21020, Note_off_c, 2, 58, 80
3, 21020, Note_off_c, 2, 54, 80
3, 21030, Note_on_c, 2, 63, 95
3, 21030, Note_on_c, 2, 58, 95
3, 21030, Note_on_c, 2, 54, 95
3, 21050, Note_off_c, 2, 63, 80
3, 21050, Note_off_c, 2, 58, 80
3, 21050, Note_off_c, 2, 54, 80
3, 21060, Note_on_c, 2, 63, 95
3, 21060, Note_on_c, 2, 58, 95
3, 21060, Note_on_c, 2, 54, 95
3, 21080, Note_off_c, 2, 63, 80
3, 21080, Note_off_c, 2, 58, 80
3, 21080, Note_off_c, 2, 54, 80
3, 21090, Note_on_c, 2, 63, 95
3, 21090, Note_on_c, 2, 58, 95
3, 21090, Note_on_c, 2, 54, 95
3, 21110, Note_off_c, 2, 63, 80
3, 21110, Note_off_c, 2, 58, 80
3, 21110, Note_off_c, 2, 54, 80
3, 24000, Note_on_c, 2, 63, 95
3, 24000, Note_on_c, 2, 58, 95
3, 24000, Note_on_c, 2, 54, 95
3, 24020, Note_off_c, 2, 63, 80
3, 24020, Note_off_c, 2, 58, 80
3, 24020, Note_off_c, 2, 54, 80
3, 24030, Note_on_c, 2, 63, 95
3, 24030, Note_on_c, 2, 58, 95
3, 24030, Note_on_c, 2, 54, 95
3, 24050, Note_off_c, 2, 63, 80
3, 24050, Note_off_c, 2, 58, 80
3, 24050, Note_off_c, 2, 54, 80
3, 24060, Note_on_c, 2, 63, 95
3, 24060, Note_on_c, 2, 58, 95
3, 24060, Note_on_c, 2, 54, 95
3, 24080, Note_off_c, 2, 63, 80
3, 24080, Note_off_c, 2, 58, 80
3, 24080, Note_off_c, 2, 54, 80
3, 24090, Note_on_c, 2, 63, 95
3, 24090, Note_on_c, 2, 58, 95
3, 24090, Note_on_c, 2, 54, 95
3, 24110, Note_off_c, 2, 63, 80
3, 24110, Note_off_c, 2, 58, 80
3, 24110, Note_off_c, 2, 54, 80
3, 24120, Note_on_c, 2, 63, 95
3, 24120, Note_on_c, 2, 58, 95
3, 24120, Note_on_c, 2, 54, 95
3, 24140, Note_off_c, 2, 63, 80
3, 24140, Note_off_c, 2, 58, 80
3, 24140, Note_off_c, 2, 54, 80
3, 24150, Note_on_c, 2, 63, 95
3, 24150, Note_on_c, 2, 58, 95
3, 24150, Note_on_c, 2, 54, 95
3, 24170, Note_off_c, 2, 63, 80
3, 24170, Note_off_c, 2, 58, 80
3, 24170, Note_off_c, 2, 54, 80
3, 24180, Note_on_c, 2, 63, 95
3, 24180, Note_on_c, 2, 58, 95
3, 24180, Note_on_c, 2, 54, 95
3, 24200, Note_off_c, 2, 63, 80
3, 24200, Note_off_c, 2, 58, 80
3, 24200, Note_off_c, 2, 54, 80
3, 24210, Note_on_c, 2, 63, 95
3, 24210, Note_on_c, 2, 58, 95
3, 24210, Note_on_c, 2, 54, 95
3, 24230, Note_off_c, 2, 63, 80
3, 24230, Note_off_c, 2, 58, 80
3, 24230, Note_off_c, 2, 54, 80
3, 24240, Note_on_c, 2, 63, 95
3, 24240, Note_on_c, 2, 58, 95
3, 24240, Note_on_c, 2, 54, 95
3, 24260, Note_off_c, 2, 63, 80
3, 24260, Note_off_c, 2, 58, 80
3, 24260, Note_off_c, 2, 54, 80
3, 24270, Note_on_c, 2, 63, 95
3, 24270, Note_on_c, 2, 58, 95
3, 24270, Note_on_c, 2, 54, 95
3, 24290, Note_off_c, 2, 63, 80
3, 24290, Note_off_c, 2, 58, 80
3, 24290, Note_off_c, 2, 54, 80
3, 24300, Note_on_c, 2, 63, 95
3, 24300, Note_on_c, 2, 58, 95
3, 24300, Note_on_c, 2, 54, 95
3, 24320, Note_off_c, 2, 63, 80
3, 24320, Note_off_c, 2, 58, 80
3, 24320, Note_off_c, 2, 54, 80
3, 24330, Note_on_c, 2, 63, 95
3, 24330, Note_on_c, 2, 58, 95
3, 24330, Note_on_c, 2, 54, 95
3, 24350, Note_off_c, 2, 63, 80
3, 24350, Note_off_c, 2, 58, 80
3, 24350, Note_off_c, 2, 54, 80
3, 24360, Note_on_c, 2, 63, 95
3, 24360, Note_on_c, 2, 58, 95
3, 24360, Note_on_c, 2, 54, 95
3, 24380, Note_off_c, 2, 63, 80
3, 24380, Note_off_c, 2, 58, 80
3, 24380, Note_off_c, 2, 54, 80
3, 24390, Note_on_c, 2, 63, 95
3, 24390, Note_on_c, 2, 58, 95
3, 24390, Note_on_c, 2, 54, 95
3, 24410, Note_off_c, 2, 63, 80
3, 24410, Note_off_c, 2, 58, 80
3, 24410, Note_off_c, 2, 54, 80
3, 24420, Note_on_c, 2, 63, 95
3, 24420, Note_on_c, 2, 58, 95
3, 24420, Note_on_c, 2, 54, 95
3, 24440, Note_off_c, 2, 63, 80
3, 24440, Note_off_c, 2, 58, 80
3, 24440, Note_off_c, 2, 54, 80
3, 24450, Note_on_c, 2, 63, 95
3, 24450, Note_on_c, 2, 58, 95
3, 24450, Note_on_c, 2, 54, 95
3, 24470, Note_off_c, 2, 63, 80
3, 24470, Note_off_c, 2, 58, 80
3, 24470, Note_off_c, 2, 54, 80
3, 24480, Note_on_c, 2, 63, 95
3, 24480, Note_on_c, 2, 58, 95
3, 24480, Note_on_c, 2, 54, 95
3, 24500, Note_off_c, 2, 63, 80
3, 24500, Note_off_c, 2, 58, 80
3, 24500, Note_off_c, 2, 54, 80
3, 24510, Note_on_c, 2, 63, 95
3, 24510, Note_on_c, 2, 58, 95
3, 24510, Note_on_c, 2, 54, 95
3, 24530, Note_off_c, 2, 63, 80
3, 24530, Note_off_c, 2, 58, 80
3, 24530, Note_off_c, 2, 54, 80
3, 24540, Note_on_c, 2, 63, 95
3, 24540, Note_on_c, 2, 58, 95
3, 24540, Note_on_c, 2, 54, 95
3, 24560, Note_off_c, 2, 63, 80
3, 24560, Note_off_c, 2, 58, 80
3, 24560, Note_off_c, 2, 54, 80
3, 24570, Note_on_c, 2, 63, 95
3, 24570, Note_on_c, 2, 58, 95
3, 24570, Note_on_c, 2, 54, 95
3, 24590, Note_off_c, 2, 63, 80
3, 24590, Note_off_c, 2, 58, 80
3, 24590, Note_off_c, 2, 54, 80
3, 24600, Note_on_c, 2, 63, 95
3, 24600, Note_on_c, 2, 58, 95
3, 24600, Note_on_c, 2, 54, 95
3, 24620, Note_off_c, 2, 63, 80
3, 24620, Note_off_c, 2, 58, 80
3, 24620, Note_off_c, 2, 54, 80
3, 24630, Note_on_c, 2, 63, 95
3, 24630, Note_on_c, 2, 58, 95
3, 24630, Note_on_c, 2, 54, 95
3, 24650, Note_off_c, 2, 63, 80
3, 24650, Note_off_c, 2, 58, 80
3, 24650, Note_off_c, 2, 54, 80
3, 24660, Note_on_c, 2, 63, 95
3, 24660, Note_on_c, 2, 58, 95
3, 24660, Note_on_c, 2, 54, 95
3, 24680, Note_off_c, 2, 63, 80
3, 24680, Note_off_c, 2, 58, 80
3, 24680, Note_off_c, 2, 54, 80
3, 24690, Note_on_c, 2, 63, 95
3, 24690, Note_on_c, 2, 58, 95
3, 24690, Note_on_c, 2, 54, 95
3, 24710, Note_off_c, 2, 63, 80
3, 24710, Note_off_c, 2, 58, 80
3, 24710, Note_off_c, 2, 54, 80
3, 24720, Note_on_c, 2, 63, 95
3, 24720, Note_on_c, 2, 58, 95
3, 24720, Note_on_c, 2, 54, 95
3, 24740, Note_off_c, 2, 63, 80
3, 24740, Note_off_c, 2, 58, 80
3, 24740, Note_off_c, 2, 54, 80
3, 24750, Note_on_c, 2, 63, 95
3, 24750, Note_on_c, 2, 58, 95
3, 24750, Note_on_c, 2, 54, 95
3, 24770, Note_off_c, 2, 63, 80
3, 24770, Note_off_c, 2, 58, 80
3, 24770, Note_off_c, 2, 54, 80
3, 24780, Note_on_c, 2, 63, 95
3, 24780, Note_on_c, 2, 58, 95
3, 24780, Note_on_c, 2, 54, 95
3, 24800, Note_off_c, 2, 63, 80
3, 24800, Note_off_c, 2, 58, 80
3, 24800, Note_off_c, 2, 54, 80
3, 24810, Note_on_c, 2, 63, 95
3, 24810, Note_on_c, 2, 58, 95
3, 24810, Note_on_c, 2, 54, 95
3, 24830, Note_off_c, 2, 63, 80
3, 24830, Note_off_c, 2, 58, 80
3, 24830, Note_off_c, 2, 54, 80
3, 24840, Note_on_c, 2, 63, 95
3, 24840, Note_on_c, 2, 58, 95
3, 24840, Note_on_c, 2, 54, 95
3, 24860, Note_off_c, 2, 63, 80
3, 24860, Note_off_c, 2, 58, 80
3, 24860, Note_off_c, 2, 54, 80
3, 24870, Note_on_c, 2, 63, 95
3, 24870, Note_on_c, 2, 58, 95
3, 24870, Note_on_c, 2, 54, 95
3, 24890, Note_off_c, 2, 63, 80
3, 24890, Note_off_c, 2, 58, 80
3, 24890, Note_off_c, 2, 54, 80
3, 24900, Note_on_c, 2, 63, 95
3, 24900, Note_on_c, 2, 58, 95
3, 24900, Note_on_c, 2, 54, 95
3, 24920, Note_off_c, 2, 63, 80
3, 24920, Note_off_c, 2, 58, 80
3, 24920, Note_off_c, 2, 54, 80
3, 24930, Note_on_c, 2, 63, 95
3, 24930, Note_on_c, 2, 58, 95
3, 24930, Note_on_c, 2, 54, 95
3, 24950, Note_off_c, 2, 63, 80
3, 24950, Note_off_c, 2, 58, 80
3, 24950, Note_off_c, 2, 54, 80
3, 27840, Note_on_c, 2, 63, 95
3, 27840, Note_on_c, 2, 58, 95
3, 27840, Note_on_c, 2, 54, 95
3, 27860, Note_off_c, 2, 63, 80
3, 27860, Note_off_c, 2, 58, 80
3, 27860, Note_off_c, 2, 54, 80
3, 27870, Note_on_c, 2, 63, 95
3, 27870, Note_on_c, 2, 58, 95
3, 27870, Note_on_c, 2, 54, 95
3, 27890, Note_off_c, 2, 63, 80
3, 27890, Note_off_c, 2, 58, 80
3, 27890, Note_off_c, 2, 54, 80
3, 27900, Note_on_c, 2, 63, 95
3, 27900, Note_on_c, 2, 58, 95
3, 27900, Note_on_c, 2, 54, 95
3, 27920, Note_off_c, 2, 63, 80
3, 27920, Note_off_c, 2, 58, 80
3, 27920, Note_off_c, 2, 54, 80
3, 27930, Note_on_c, 2, 63, 95
3, 27930, Note_on_c, 2, 58, 95
3, 27930, Note_on_c, 2, 54, 95
3, 27950, Note_off_c, 2, 63, 80
3, 27950, Note_off_c, 2, 58, 80
3, 27950, Note_off_c, 2, 54, 80
3, 27960, Note_on_c, 2, 63, 95
3, 27960, Note_on_c, 2, 58, 95
3, 27960, Note_on_c, 2, 54, 95
3, 27980, Note_off_c, 2, 63, 80
3, 27980, Note_off_c, 2, 58, 80
3, 27980, Note_off_c, 2, 54, 80
3, 27990, Note_on_c, 2, 63, 95
3, 27990, Note_on_c, 2, 58, 95
3, 27990, Note_on_c, 2, 54, 95
3, 28010, Note_off_c, 2, 63, 80
3, 28010, Note_off_c, 2, 58, 80
3, 28010, Note_off_c, 2, 54, 80
3, 28020, Note_on_c, 2, 63, 95
3, 28020, Note_on_c, 2, 58, 95
3, 28020, Note_on_c, 2, 54, 95
3, 28040, Note_off_c, 2, 63, 80
3, 28040, Note_off_c, 2, 58, 80
3, 28040, Note_off_c, 2, 54, 80
3, 28050, Note_on_c, 2, 63, 95
3, 28050, Note_on_c, 2, 58, 95
3, 28050, Note_on_c, 2, 54, 95
3, 28070, Note_off_c, 2, 63, 80
3, 28070, Note_off_c, 2, 58, 80
3, 28070, Note_off_c, 2, 54, 80
3, 28080, Note_on_c, 2, 63, 95
3, 28080, Note_on_c, 2, 58, 95
3, 28080, Note_on_c, 2, 54, 95
3, 28100, Note_off_c, 2, 63, 80
3, 28100, Note_off_c, 2, 58, 80
3, 28100, Note_off_c, 2, 54, 80
3, 28110, Note_on_c, 2, 63, 95
3, 28110, Note_on_c, 2, 58, 95
3, 28110, Note_on_c, 2, 54, 95
3, 28130, Note_off_c, 2, 63, 80
3, 28130, Note_off_c, 2, 58, 80
3, 28130, Note_off_c, 2, 54, 80
3, 28140, Note_on_c, 2, 63, 95
3, 28140, Note_on_c, 2, 58, 95
3, 28140, Note_on_c, 2, 54, 95
3, 28160, Note_off_c, 2, 63, 80
3, 28160, Note_off_c, 2, 58, 80
3, 28160, Note_off_c, 2, 54, 80
3, 28170, Note_on_c, 2, 63, 95
3, 28170, Note_on_c, 2, 58, 95
3, 28170, Note_on_c, 2, 54, 95
3, 28190, Note_off_c, 2, 63, 80
3, 28190, Note_off_c, 2, 58, 80
3, 28190, Note_off_c, 2, 54, 80
3, 28200, Note_on_c, 2, 63, 95
3, 28200, Note_on_c, 2, 58, 95
3, 28200, Note_on_c, 2, 54, 95
3, 28220, Note_off_c, 2, 63, 80
3, 28220, Note_off_c, 2, 58, 80
3, 28220, Note_off_c, 2, 54, 80
3, 28230, Note_on_c, 2, 63, 95
3, 28230, Note_on_c, 2, 58, 95
3, 28230, Note_on_c, 2, 54, 95
3, 28250, Note_off_c, 2, 63, 80
3, 28250, Note_off_c, 2, 58, 80
3, 28250, Note_off_c, 2, 54, 80
3, 28260, Note_on_c, 2, 63, 95
3, 28260, Note_on_c, 2, 58, 95
3, 28260, Note_on_c, 2, 54, 95
3, 28280, Note_off_c, 2, 63, 80
3, 28280, Note_off_c, 2, 58, 80
3, 28280, Note_off_c, 2, 54, 80
3, 28290, Note_on_c, 2, 63, 95
3, 28290, Note_on_c, 2, 58, 95
3, 28290, Note_on_c, 2, 54, 95
3, 28310, Note_off_c, 2, 63, 80
3, 28310, Note_off_c, 2, 58, 80
3, 28310, Note_off_c, 2, 54, 80
3, 28320, Note_on_c, 2, 63, 95
3, 28320, Note_on_c, 2, 58, 95
3, 28320, Note_on_c, 2, 54, 95
3, 28340, Note_off_c, 2, 63, 80
3, 28340, Note_off_c, 2, 58, 80
3, 28340, Note_off_c, 2, 54, 80
3, 28350, Note_on_c, 2, 63, 95
3, 28350, Note_on_c, 2, 58, 95
3, 28350, Note_on_c, 2, 54, 95
3, 28370, Note_off_c, 2, 63, 80
3, 28370, Note_off_c, 2, 58, 80
3, 28370, Note_off_c, 2, 54, 80
3, 28380, Note_on_c, 2, 63, 95
3, 28380, Note_on_c, 2, 58, 95
3, 28380, Note_on_c, 2, 54, 95
3, 28400, Note_off_c, 2, 63, 80
3, 28400, Note_off_c, 2, 58, 80
3, 28400, Note_off_c, 2, 54, 80
3, 28410, Note_on_c, 2, 63, 95
3, 28410, Note_on_c, 2, 58, 95
3, 28410, Note_on_c, 2, 54, 95
3, 28430, Note_off_c, 2, 63, 80
3, 28430, Note_off_c, 2, 58, 80
3, 28430, Note_off_c, 2, 54, 80
3, 28440, Note_on_c, 2, 63, 95
3, 28440, Note_on_c, 2, 58, 95
3, 28440, Note_on_c, 2, 54, 95
3, 28460, Note_off_c, 2, 63, 80
3, 28460, Note_off_c, 2, 58, 80
3, 28460, Note_off_c, 2, 54, 80
3, 28470, Note_on_c, 2, 63, 95
3, 28470, Note_on_c, 2, 58, 95
3, 28470, Note_on_c, 2, 54, 95
3, 28490, Note_off_c, 2, 63, 80
3, 28490, Note_off_c, 2, 58, 80
3, 28490, Note_off_c, 2, 54, 80
3, 28500, Note_on_c, 2, 63, 95
3, 28500, Note_on_c, 2, 58, 95
3, 28500, Note_on_c, 2, 54, 95
3, 28520, Note_off_c, 2, 63, 80
3, 28520, Note_off_c, 2, 58, 80
3, 28520, Note_off_c, 2, 54, 80
3, 28530, Note_on_c, 2, 63, 95
3, 28530, Note_on_c, 2, 58, 95
3, 28530, Note_on_c, 2, 54, 95
3, 28550, Note_off_c, 2, 63, 80
3, 28550, Note_off_c, 2, 58, 80
3, 28550, Note_off_c, 2, 54, 80
3, 28560, Note_on_c, 2, 63, 95
3, 28560, Note_on_c, 2, 58, 95
3, 28560, Note_on_c, 2, 54, 95
3, 28580, Note_off_c, 2, 63, 80
3, 28580, Note_off_c, 2, 58, 80
3, 28580, Note_off_c, 2, 54, 80
3, 28590, Note_on_c, 2, 63, 95
3, 28590, Note_on_c, 2, 58, 95
3, 28590, Note_on_c, 2, 54, 95
3, 28610, Note_off_c, 2, 63, 80
3, 28610, Note_off_c, 2, 58, 80
3, 28610, Note_off_c, 2, 54, 80
3, 28620, Note_on_c, 2, 63, 95
3, 28620, Note_on_c, 2, 58, 95
3, 28620, Note_on_c, 2, 54, 95
3, 28640, Note_off_c, 2, 63, 80
3, 28640, Note_off_c, 2, 58, 80
3, 28640, Note_off_c, 2, 54, 80
3, 28650, Note_on_c, 2, 63, 95
3, 28650, Note_on_c, 2, 58, 95
3, 28650, Note_on_c, 2, 54, 95
3, 28670, Note_off_c, 2, 63, 80
3, 28670, Note_off_c, 2, 58, 80
3, 28670, Note_off_c, 2, 54, 80
3, 28680, Note_on_c, 2, 63, 95
3, 28680, Note_on_c, 2, 58, 95
3, 28680, Note_on_c, 2, 54, 95
3, 28700, Note_off_c, 2, 63, 80
3, 28700, Note_off_c, 2, 58, 80
3, 28700, Note_off_c, 2, 54, 80
3, 28710, Note_on_c, 2, 63, 95
3, 28710, Note_on_c, 2, 58, 95
3, 28710, Note_on_c, 2, 54, 95
3, 28730, Note_off_c, 2, 63, 80
3, 28730, Note_off_c, 2, 58, 80
3, 28730, Note_off_c, 2, 54, 80
3, 28740, Note_on_c, 2, 63, 95
3, 28740, Note_on_c, 2, 58, 95
3, 28740, Note_on_c, 2, 54, 95
3, 28760, Note_off_c, 2, 63, 80
3, 28760, Note_off_c, 2, 58, 80
3, 28760, Note_off_c, 2, 54, 80
3, 28770, Note_on_c, 2, 63, 95
3, 28770, Note_on_c, 2, 58, 95
3, 28770, Note_on_c, 2, 54, 95
3, 28790, Note_off_c, 2, 63, 80
3, 28790, Note_off_c, 2, 58, 80
3, 28790, Note_off_c, 2, 54, 80
3, 31680, Note_on_c, 2, 63, 95
3, 31680, Note_on_c, 2, 58, 95
3, 31680, Note_on_c, 2, 54, 95
3, 31700, Note_off_c, 2, 63, 80
3, 31700, Note_off_c, 2, 58, 80
3, 31700, Note_off_c, 2, 54, 80
3, 31710, Note_on_c, 2, 63, 95
3, 31710, Note_on_c, 2, 58, 95
3, 31710, Note_on_c, 2, 54, 95
3, 31730, Note_off_c, 2, 63, 80
3, 31730, Note_off_c, 2, 58, 80
3, 31730, Note_off_c, 2, 54, 80
3, 31740, Note_on_c, 2, 63, 95
3, 31740, Note_on_c, 2, 58, 95
3, 31740, Note_on_c, 2, 54, 95
3, 31760, Note_off_c, 2, 63, 80
3, 31760, Note_off_c, 2, 58, 80
3, 31760, Note_off_c, 2, 54, 80
3, 31770, Note_on_c, 2, 63, 95
3, 31770, Note_on_c, 2, 58, 95
3, 31770, Note_on_c, 2, 54, 95
3, 31790, Note_off_c, 2, 63, 80
3, 31790, Note_off_c, 2, 58, 80
3, 31790, Note_off_c, 2, 54, 80
3, 31800, Note_on_c, 2, 63, 95
3, 31800, Note_on_c, 2, 58, 95
3, 31800, Note_on_c, 2, 54, 95
3, 31820, Note_off_c, 2, 63, 80
3, 31820, Note_off_c, 2, 58, 80
3, 31820, Note_off_c, 2, 54, 80
3, 31830, Note_on_c, 2, 63, 95
3, 31830, Note_on_c, 2, 58, 95
3, 31830, Note_on_c, 2, 54, 95
3, 31850, Note_off_c, 2, 63, 80
3, 31850, Note_off_c, 2, 58, 80
3, 31850, Note_off_c, 2, 54, 80
3, 31860, Note_on_c, 2, 63, 95
3, 31860, Note_on_c, 2, 58, 95
3, 31860, Note_on_c, 2, 54, 95
3, 31880, Note_off_c, 2, 63, 80
3, 31880, Note_off_c, 2, 58, 80
3, 31880, Note_off_c, 2, 54, 80
3, 31890, Note_on_c, 2, 63, 95
3, 31890, Note_on_c, 2, 58, 95
3, 31890, Note_on_c, 2, 54, 95
3, 31910, Note_off_c, 2, 63, 80
3, 31910, Note_off_c, 2, 58, 80
3, 31910, Note_off_c, 2, 54, 80
3, 31920, Note_on_c, 2, 63, 95
3, 31920, Note_on_c, 2, 58, 95
3, 31920, Note_on_c, 2, 54, 95
3, 31940, Note_off_c, 2, 63, 80
3, 31940, Note_off_c, 2, 58, 80
3, 31940, Note_off_c, 2, 54, 80
3, 31950, Note_on_c, 2, 63, 95
3, 31950, Note_on_c, 2, 58, 95
3, 31950, Note_on_c, 2, 54, 95
3, 31970, Note_off_c, 2, 63, 80
3, 31970, Note_off_c, 2, 58, 80
3, 31970, Note_off_c, 2, 54, 80
3, 31980, Note_on_c, 2, 63, 95
3, 31980, Note_on_c, 2, 58, 95
3, 31980, Note_on_c, 2, 54, 95
3, 32000, Note_off_c, 2, 63, 80
3, 32000, Note_off_c, 2, 58, 80
3, 32000, Note_off_c, 2, 54, 80
3, 32010, Note_on_c, 2, 63, 95
3, 32010, Note_on_c, 2, 58, 95
3, 32010, Note_on_c, 2, 54, 95
3, 32030, Note_off_c, 2, 63, 80
3, 32030, Note_off_c, 2, 58, 80
3, 32030, Note_off_c, 2, 54, 80
3, 32040, Note_on_c, 2, 63, 95
3, 32040, Note_on_c, 2, 58, 95
3, 32040, Note_on_c, 2, 54, 95
3, 32060, Note_off_c, 2, 63, 80
3, 32060, Note_off_c, 2, 58, 80
3, 32060, Note_off_c, 2, 54, 80
3, 32070, Note_on_c, 2, 63, 95
3, 32070, Note_on_c, 2, 58, 95
3, 32070, Note_on_c, 2, 54, 95
3, 32090, Note_off_c, 2, 63, 80
3, 32090, Note_off_c, 2, 58, 80
3, 32090, Note_off_c, 2, 54, 80
3, 32100, Note_on_c, 2, 63, 95
3, 32100, Note_on_c, 2, 58, 95
3, 32100, Note_on_c, 2, 54, 95
3, 32120, Note_off_c, 2, 63, 80
3, 32120, Note_off_c, 2, 58, 80
3, 32120, Note_off_c, 2, 54, 80
3, 32130, Note_on_c, 2, 63, 95
3, 32130, Note_on_c, 2, 58, 95
3, 32130, Note_on_c, 2, 54, 95
3, 32150, Note_off_c, 2, 63, 80
3, 32150, Note_off_c, 2, 58, 80
3, 32150, Note_off_c, 2, 54, 80
3, 32160, Note_on_c, 2, 63, 95
3, 32160, Note_on_c, 2, 58, 95
3, 32160, Note_on_c, 2, 54, 95
3, 32180, Note_off_c, 2, 63, 80
3, 32180, Note_off_c, 2, 58, 80
3, 32180, Note_off_c, 2, 54, 80
3, 32190, Note_on_c, 2, 63, 95
3, 32190, Note_on_c, 2, 58, 95
3, 32190, Note_on_c, 2, 54, 95
3, 32210, Note_off_c, 2, 63, 80
3, 32210, Note_off_c, 2, 58, 80
3, 32210, Note_off_c, 2, 54, 80
3, 32220, Note_on_c, 2, 63, 95
3, 32220, Note_on_c, 2, 58, 95
3, 32220, Note_on_c, 2, 54, 95
3, 32240, Note_off_c, 2, 63, 80
3, 32240, Note_off_c, 2, 58, 80
3, 32240, Note_off_c, 2, 54, 80
3, 32250, Note_on_c, 2, 63, 95
3, 32250, Note_on_c, 2, 58, 95
3, 32250, Note_on_c, 2, 54, 95
3, 32270, Note_off_c, 2, 63, 80
3, 32270, Note_off_c, 2, 58, 80
3, 32270, Note_off_c, 2, 54, 80
3, 32280, Note_on_c, 2, 63, 95
3, 32280, Note_on_c, 2, 58, 95
3, 32280, Note_on_c, 2, 54, 95
3, 32300, Note_off_c, 2, 63, 80
3, 32300, Note_off_c, 2, 58, 80
3, 32300, Note_off_c, 2, 54, 80
3, 32310, Note_on_c, 2, 63, 95
3, 32310, Note_on_c, 2, 58, 95
3, 32310, Note_on_c, 2, 54, 95
3, 32330, Note_off_c, 2, 63, 80
3, 32330, Note_off_c, 2, 58, 80
3, 32330, Note_off_c, 2, 54, 80
3, 32340, Note_on_c, 2, 63, 95
3, 32340, Note_on_c, 2, 58, 95
3, 32340, Note_on_c, 2, 54, 95
3, 32360, Note_off_c, 2, 63, 80
3, 32360, Note_off_c, 2, 58, 80
3, 32360, Note_off_c, 2, 54, 80
3, 32370, Note_on_c, 2, 63, 95
3, 32370, Note_on_c, 2, 58, 95
3, 32370, Note_on_c, 2, 54, 95
3, 32390, Note_off_c, 2, 63, 80
3, 32390, Note_off_c, 2, 58, 80
3, 32390, Note_off_c, 2, 54, 80
3, 32400, Note_on_c, 2, 63, 95
3, 32400, Note_on_c, 2, 58, 95
3, 32400, Note_on_c, 2, 54, 95
3, 32420, Note_off_c, 2, 63, 80
3, 32420, Note_off_c, 2, 58, 80
3, 32420, Note_off_c, 2, 54, 80
3, 32430, Note_on_c, 2, 63, 95
3, 32430, Note_on_c, 2, 58, 95
3, 32430, Note_on_c, 2, 54, 95
3, 32450, Note_off_c, 2, 63, 80
3, 32450, Note_off_c, 2, 58, 80
3, 32450, Note_off_c, 2, 54, 80
3, 32460, Note_on_c, 2, 63, 95
3, 32460, Note_on_c, 2, 58, 95
3, 32460, Note_on_c, 2, 54, 95
3, 32480, Note_off_c, 2, 63, 80
3, 32480, Note_off_c, 2, 58, 80
3, 32480, Note_off_c, 2, 54, 80
3, 32490, Note_on_c, 2, 63, 95
3, 32490, Note_on_c, 2, 58, 95
3, 32490, Note_on_c, 2, 54, 95
3, 32510, Note_off_c, 2, 63, 80
3, 32510, Note_off_c, 2, 58, 80
3, 32510, Note_off_c, 2, 54, 80
3, 32520, Note_on_c, 2, 63, 95
3, 32520, Note_on_c, 2, 58, 95
3, 32520, Note_on_c, 2, 54, 95
3, 32540, Note_off_c, 2, 63, 80
3, 32540, Note_off_c, 2, 58, 80
3, 32540, Note_off_c, 2, 54, 80
3, 32550, Note_on_c, 2, 63, 95
3, 32550, Note_on_c, 2, 58, 95
3, 32550, Note_on_c, 2, 54, 95
3, 32570, Note_off_c, 2, 63, 80
3, 32570, Note_off_c, 2, 58, 80
3, 32570, Note_off_c, 2, 54, 80
3, 32580, Note_on_c, 2, 63, 95
3, 32580, Note_on_c, 2, 58, 95
3, 32580, Note_on_c, 2, 54, 95
3, 32600, Note_off_c, 2, 63, 80
3, 32600, Note_off_c, 2, 58, 80
3, 32600, Note_off_c, 2, 54, 80
3, 32610, Note_on_c, 2, 63, 95
3, 32610, Note_on_c, 2, 58, 95
3, 32610, Note_on_c, 2, 54, 95
3, 32630, Note_off_c, 2, 63, 80
3, 32630, Note_off_c, 2, 58, 80
3, 32630, Note_off_c, 2, 54, 80
3, 39360, Note_on_c, 2, 63, 95
3, 39360, Note_on_c, 2, 58, 95
3, 39360, Note_on_c, 2, 54, 95
3, 39380, Note_off_c, 2, 63, 80
3, 39380, Note_off_c, 2, 58, 80
3, 39380, Note_off_c, 2, 54, 80
3, 39390, Note_on_c, 2, 63, 95
3, 39390, Note_on_c, 2, 58, 95
3, 39390, Note_on_c, 2, 54, 95
3, 39410, Note_off_c, 2, 63, 80
3, 39410, Note_off_c, 2, 58, 80
3, 39410, Note_off_c, 2, 54, 80
3, 39420, Note_on_c, 2, 63, 95
3, 39420, Note_on_c, 2, 58, 95
3, 39420, Note_on_c, 2, 54, 95
3, 39440, Note_off_c, 2, 63, 80
3, 39440, Note_off_c, 2, 58, 80
3, 39440, Note_off_c, 2, 54, 80
3, 39450, Note_on_c, 2, 63, 95
3, 39450, Note_on_c, 2, 58, 95
3, 39450, Note_on_c, 2, 54, 95
3, 39470, Note_off_c, 2, 63, 80
3, 39470, Note_off_c, 2, 58, 80
3, 39470, Note_off_c, 2, 54, 80
3, 39480, Note_on_c, 2, 63, 95
3, 39480, Note_on_c, 2, 58, 95
3, 39480, Note_on_c, 2, 54, 95
3, 39500, Note_off_c, 2, 63, 80
3, 39500, Note_off_c, 2, 58, 80
3, 39500, Note_off_c, 2, 54, 80
3, 39510, Note_on_c, 2, 63, 95
3, 39510, Note_on_c, 2, 58, 95
3, 39510, Note_on_c, 2, 54, 95
3, 39530, Note_off_c, 2, 63, 80
3, 39530, Note_off_c, 2, 58, 80
3, 39530, Note_off_c, 2, 54, 80
3, 39540, Note_on_c, 2, 63, 95
3, 39540, Note_on_c, 2, 58, 95
3, 39540, Note_on_c, 2, 54, 95
3, 39560, Note_off_c, 2, 63, 80
3, 39560, Note_off_c, 2, 58, 80
3, 39560, Note_off_c, 2, 54, 80
3, 39570, Note_on_c, 2, 63, 95
3, 39570, Note_on_c, 2, 58, 95
3, 39570, Note_on_c, 2, 54, 95
3, 39590, Note_off_c, 2, 63, 80
3, 39590, Note_off_c, 2, 58, 80
3, 39590, Note_off_c, 2, 54, 80
3, 39600, Note_on_c, 2, 63, 95
3, 39600, Note_on_c, 2, 58, 95
3, 39600, Note_on_c, 2, 54, 95
3, 39620, Note_off_c, 2, 63, 80
3, 39620, Note_off_c, 2, 58, 80
3, 39620, Note_off_c, 2, 54, 80
3, 39630, Note_on_c, 2, 63, 95
3, 39630, Note_on_c, 2, 58, 95
3, 39630, Note_on_c, 2, 54, 95
3, 39650, Note_off_c, 2, 63, 80
3, 39650, Note_off_c, 2, 58, 80
3, 39650, Note_off_c, 2, 54, 80
3, 39660, Note_on_c, 2, 63, 95
3, 39660, Note_on_c, 2, 58, 95
3, 39660, Note_on_c, 2, 54, 95
3, 39680, Note_off_c, 2, 63, 80
3, 39680, Note_off_c, 2, 58, 80
3, 39680, Note_off_c, 2, 54, 80
3, 39690, Note_on_c, 2, 63, 95
3, 39690, Note_on_c, 2, 58, 95
3, 39690, Note_on_c, 2, 54, 95
3, 39710, Note_off_c, 2, 63, 80
3, 39710, Note_off_c, 2, 58, 80
3, 39710, Note_off_c, 2, 54, 80
3, 39720, Note_on_c, 2, 63, 95
3, 39720, Note_on_c, 2, 58, 95
3, 39720, Note_on_c, 2, 54, 95
3, 39740, Note_off_c, 2, 63, 80
3, 39740, Note_off_c, 2, 58, 80
3, 39740, Note_off_c, 2, 54, 80
3, 39750, Note_on_c, 2, 63, 95
3, 39750, Note_on_c, 2, 58, 95
3, 39750, Note_on_c, 2, 54, 95
3, 39770, Note_off_c, 2, 63, 80
3, 39770, Note_off_c, 2, 58, 80
3, 39770, Note_off_c, 2, 54, 80
3, 39780, Note_on_c, 2, 63, 95
3, 39780, Note_on_c, 2, 58, 95
3, 39780, Note_on_c, 2, 54, 95
3, 39800, Note_off_c, 2, 63, 80
3, 39800, Note_off_c, 2, 58, 80
3, 39800, Note_off_c, 2, 54, 80
3, 39810, Note_on_c, 2, 63, 95
3, 39810, Note_on_c, 2, 58, 95
3, 39810, Note_on_c, 2, 54, 95
3, 39830, Note_off_c, 2, 63, 80
3, 39830, Note_off_c, 2, 58, 80
3, 39830, Note_off_c, 2, 54, 80
3, 39840, Note_on_c, 2, 63, 95
3, 39840, Note_on_c, 2, 58, 95
3, 39840, Note_on_c, 2, 54, 95
3, 39860, Note_off_c, 2, 63, 80
3, 39860, Note_off_c, 2, 58, 80
3, 39860, Note_off_c, 2, 54, 80
3, 39870, Note_on_c, 2, 63, 95
3, 39870, Note_on_c, 2, 58, 95
3, 39870, Note_on_c, 2, 54, 95
3, 39890, Note_off_c, 2, 63, 80
3, 39890, Note_off_c, 2, 58, 80
3, 39890, Note_off_c, 2, 54, 80
3, 39900, Note_on_c, 2, 63, 95
3, 39900, Note_on_c, 2, 58, 95
3, 39900, Note_on_c, 2, 54, 95
3, 39920, Note_off_c, 2, 63, 80
3, 39920, Note_off_c, 2, 58, 80
3, 39920, Note_off_c, 2, 54, 80
3, 39930, Note_on_c, 2, 63, 95
3, 39930, Note_on_c, 2, 58, 95
3, 39930, Note_on_c, 2, 54, 95
3, 39950, Note_off_c, 2, 63, 80
3, 39950, Note_off_c, 2, 58, 80
3, 39950, Note_off_c, 2, 54, 80
3, 39960, Note_on_c, 2, 63, 95
3, 39960, Note_on_c, 2, 58, 95
3, 39960, Note_on_c, 2, 54, 95
3, 39980, Note_off_c, 2, 63, 80
3, 39980, Note_off_c, 2, 58, 80
3, 39980, Note_off_c, 2, 54, 80
3, 39990, Note_on_c, 2, 63, 95
3, 39990, Note_on_c, 2, 58, 95
3, 39990, Note_on_c, 2, 54, 95
3, 40010, Note_off_c, 2, 63, 80
3, 40010, Note_off_c, 2, 58, 80
3, 40010, Note_off_c, 2, 54, 80
3, 40020, Note_on_c, 2, 63, 95
3, 40020, Note_on_c, 2, 58, 95
3, 40020, Note_on_c, 2, 54, 95
3, 40040, Note_off_c, 2, 63, 80
3, 40040, Note_off_c, 2, 58, 80
3, 40040, Note_off_c, 2, 54, 80
3, 40050, Note_on_c, 2, 63, 95
3, 40050, Note_on_c, 2, 58, 95
3, 40050, Note_on_c, 2, 54, 95
3, 40070, Note_off_c, 2, 63, 80
3, 40070, Note_off_c, 2, 58, 80
3, 40070, Note_off_c, 2, 54, 80
3, 40080, Note_on_c, 2, 63, 95
3, 40080, Note_on_c, 2, 58, 95
3, 40080, Note_on_c, 2, 54, 95
3, 40100, Note_off_c, 2, 63, 80
3, 40100, Note_off_c, 2, 58, 80
3, 40100, Note_off_c, 2, 54, 80
3, 40110, Note_on_c, 2, 63, 95
3, 40110, Note_on_c, 2, 58, 95
3, 40110, Note_on_c, 2, 54, 95
3, 40130, Note_off_c, 2, 63, 80
3, 40130, Note_off_c, 2, 58, 80
3, 40130, Note_off_c, 2, 54, 80
3, 40140, Note_on_c, 2, 63, 95
3, 40140, Note_on_c, 2, 58, 95
3, 40140, Note_on_c, 2, 54, 95
3, 40160, Note_off_c, 2, 63, 80
3, 40160, Note_off_c, 2, 58, 80
3, 40160, Note_off_c, 2, 54, 80
3, 40170, Note_on_c, 2, 63, 95
3, 40170, Note_on_c, 2, 58, 95
3, 40170, Note_on_c, 2, 54, 95
3, 40190, Note_off_c, 2, 63, 80
3, 40190, Note_off_c, 2, 58, 80
3, 40190, Note_off_c, 2, 54, 80
3, 40200, Note_on_c, 2, 63, 95
3, 40200, Note_on_c, 2, 58, 95
3, 40200, Note_on_c, 2, 54, 95
3, 40220, Note_off_c, 2, 63, 80
3, 40220, Note_off_c, 2, 58, 80
3, 40220, Note_off_c, 2, 54, 80
3, 40230, Note_on_c, 2, 63, 95
3, 40230, Note_on_c, 2, 58, 95
3, 40230, Note_on_c, 2, 54, 95
3, 40250, Note_off_c, 2, 63, 80
3, 40250, Note_off_c, 2, 58, 80
3, 40250, Note_off_c, 2, 54, 80
3, 40260, Note_on_c, 2, 63, 95
3, 40260, Note_on_c, 2, 58, 95
3, 40260, Note_on_c, 2, 54, 95
3, 40280, Note_off_c, 2, 63, 80
3, 40280, Note_off_c, 2, 58, 80
3, 40280, Note_off_c, 2, 54, 80
3, 40290, Note_on_c, 2, 63, 95
3, 40290, Note_on_c, 2, 58, 95
3, 40290, Note_on_c, 2, 54, 95
3, 40310, Note_off_c, 2, 63, 80
3, 40310, Note_off_c, 2, 58, 80
3, 40310, Note_off_c, 2, 54, 80
3, 43200, Note_on_c, 2, 63, 95
3, 43200, Note_on_c, 2, 58, 95
3, 43200, Note_on_c, 2, 54, 95
3, 43220, Note_off_c, 2, 63, 80
3, 43220, Note_off_c, 2, 58, 80
3, 43220, Note_off_c, 2, 54, 80
3, 43230, Note_on_c, 2, 63, 95
3, 43230, Note_on_c, 2, 58, 95
3, 43230, Note_on_c, 2, 54, 95
3, 43250, Note_off_c, 2, 63, 80
3, 43250, Note_off_c, 2, 58, 80
3, 43250, Note_off_c, 2, 54, 80
3, 43260, Note_on_c, 2, 63, 95
3, 43260, Note_on_c, 2, 58, 95
3, 43260, Note_on_c, 2, 54, 95
3, 43280, Note_off_c, 2, 63, 80
3, 43280, Note_off_c, 2, 58, 80
3, 43280, Note_off_c, 2, 54, 80
3, 43290, Note_on_c, 2, 63, 95
3, 43290, Note_on_c, 2, 58, 95
3, 43290, Note_on_c, 2, 54, 95
3, 43310, Note_off_c, 2, 63, 80
3, 43310, Note_off_c, 2, 58, 80
3, 43310, Note_off_c, 2, 54, 80
3, 43320, Note_on_c, 2, 63, 95
3, 43320, Note_on_c, 2, 58, 95
3, 43320, Note_on_c, 2, 54, 95
3, 43340, Note_off_c, 2, 63, 80
3, 43340, Note_off_c, 2, 58, 80
3, 43340, Note_off_c, 2, 54, 80
3, 43350, Note_on_c, 2, 63, 95
3, 43350, Note_on_c, 2, 58, 95
3, 43350, Note_on_c, 2, 54, 95
3, 43370, Note_off_c, 2, 63, 80
3, 43370, Note_off_c, 2, 58, 80
3, 43370, Note_off_c, 2, 54, 80
3, 43380, Note_on_c, 2, 63, 95
3, 43380, Note_on_c, 2, 58, 95
3, 43380, Note_on_c, 2, 54, 95
3, 43400, Note_off_c, 2, 63, 80
3, 43400, Note_off_c, 2, 58, 80
3, 43400, Note_off_c, 2, 54, 80
3, 43410, Note_on_c, 2, 63, 95
3, 43410, Note_on_c, 2, 58, 95
3, 43410, Note_on_c, 2, 54, 95
3, 43430, Note_off_c, 2, 63, 80
3, 43430, Note_off_c, 2, 58, 80
3, 43430, Note_off_c, 2, 54, 80
3, 43440, Note_on_c, 2, 63, 95
3, 43440, Note_on_c, 2, 58, 95
3, 43440, Note_on_c, 2, 54, 95
3, 43460, Note_off_c, 2, 63, 80
3, 43460, Note_off_c, 2, 58, 80
3, 43460, Note_off_c, 2, 54, 80
3, 43470, Note_on_c, 2, 63, 95
3, 43470, Note_on_c, 2, 58, 95
3, 43470, Note_on_c, 2, 54, 95
3, 43490, Note_off_c, 2, 63, 80
3, 43490, Note_off_c, 2, 58, 80
3, 43490, Note_off_c, 2, 54, 80
3, 43500, Note_on_c, 2, 63, 95
3, 43500, Note_on_c, 2, 58, 95
3, 43500, Note_on_c, 2, 54, 95
3, 43520, Note_off_c, 2, 63, 80
3, 43520, Note_off_c, 2, 58, 80
3, 43520, Note_off_c, 2, 54, 80
3, 43530, Note_on_c, 2, 63, 95
3, 43530, Note_on_c, 2, 58, 95
3, 43530, Note_on_c, 2, 54, 95
3, 43550, Note_off_c, 2, 63, 80
3, 43550, Note_off_c, 2, 58, 80
3, 43550, Note_off_c, 2, 54, 80
3, 43560, Note_on_c, 2, 63, 95
3, 43560, Note_on_c, 2, 58, 95
3, 43560, Note_on_c, 2, 54, 95
3, 43580, Note_off_c, 2, 63, 80
3, 43580, Note_off_c, 2, 58, 80
3, 43580, Note_off_c, 2, 54, 80
3, 43590, Note_on_c, 2, 63, 95
3, 43590, Note_on_c, 2, 58, 95
3, 43590, Note_on_c, 2, 54, 95
3, 43610, Note_off_c, 2, 63, 80
3, 43610, Note_off_c, 2, 58, 80
3, 43610, Note_off_c, 2, 54, 80
3, 43620, Note_on_c, 2, 63, 95
3, 43620, Note_on_c, 2, 58, 95
3, 43620, Note_on_c, 2, 54, 95
3, 43640, Note_off_c, 2, 63, 80
3, 43640, Note_off_c, 2, 58, 80
3, 43640, Note_off_c, 2, 54, 80
3, 43650, Note_on_c, 2, 63, 95
3, 43650, Note_on_c, 2, 58, 95
3, 43650, Note_on_c, 2, 54, 95
3, 43670, Note_off_c, 2, 63, 80
3, 43670, Note_off_c, 2, 58, 80
3, 43670, Note_off_c, 2, 54, 80
3, 43680, Note_on_c, 2, 63, 95
3, 43680, Note_on_c, 2, 58, 95
3, 43680, Note_on_c, 2, 54, 95
3, 43700, Note_off_c, 2, 63, 80
3, 43700, Note_off_c, 2, 58, 80
3, 43700, Note_off_c, 2, 54, 80
3, 43710, Note_on_c, 2, 63, 95
3, 43710, Note_on_c, 2, 58, 95
3, 43710, Note_on_c, 2, 54, 95
3, 43730, Note_off_c, 2, 63, 80
3, 43730, Note_off_c, 2, 58, 80
3, 43730, Note_off_c, 2, 54, 80
3, 43740, Note_on_c, 2, 63, 95
3, 43740, Note_on_c, 2, 58, 95
3, 43740, Note_on_c, 2, 54, 95
3, 43760, Note_off_c, 2, 63, 80
3, 43760, Note_off_c, 2, 58, 80
3, 43760, Note_off_c, 2, 54, 80
3, 43770, Note_on_c, 2, 63, 95
3, 43770, Note_on_c, 2, 58, 95
3, 43770, Note_on_c, 2, 54, 95
3, 43790, Note_off_c, 2, 63, 80
3, 43790, Note_off_c, 2, 58, 80
3, 43790, Note_off_c, 2, 54, 80
3, 43800, Note_on_c, 2, 63, 95
3, 43800, Note_on_c, 2, 58, 95
3, 43800, Note_on_c, 2, 54, 95
3, 43820, Note_off_c, 2, 63, 80
3, 43820, Note_off_c, 2, 58, 80
3, 43820, Note_off_c, 2, 54, 80
3, 43830, Note_on_c, 2, 63, 95
3, 43830, Note_on_c, 2, 58, 95
3, 43830, Note_on_c, 2, 54, 95
3, 43850, Note_off_c, 2, 63, 80
3, 43850, Note_off_c, 2, 58, 80
3, 43850, Note_off_c, 2, 54, 80
3, 43860, Note_on_c, 2, 63, 95
3, 43860, Note_on_c, 2, 58, 95
3, 43860, Note_on_c, 2, 54, 95
3, 43880, Note_off_c, 2, 63, 80
3, 43880, Note_off_c, 2, 58, 80
3, 43880, Note_off_c, 2, 54, 80
3, 43890, Note_on_c, 2, 63, 95
3, 43890, Note_on_c, 2, 58, 95
3, 43890, Note_on_c, 2, 54, 95
3, 43910, Note_off_c, 2, 63, 80
3, 43910, Note_off_c, 2, 58, 80
3, 43910, Note_off_c, 2, 54, 80
3, 43920, Note_on_c, 2, 63, 95
3, 43920, Note_on_c, 2, 58, 95
3, 43920, Note_on_c, 2, 54, 95
3, 43940, Note_off_c, 2, 63, 80
3, 43940, Note_off_c, 2, 58, 80
3, 43940, Note_off_c, 2, 54, 80
3, 43950, Note_on_c, 2, 63, 95
3, 43950, Note_on_c, 2, 58, 95
3, 43950, Note_on_c, 2, 54, 95
3, 43970, Note_off_c, 2, 63, 80
3, 43970, Note_off_c, 2, 58, 80
3, 43970, Note_off_c, 2, 54, 80
3, 43980, Note_on_c, 2, 63, 95
3, 43980, Note_on_c, 2, 58, 95
3, 43980, Note_on_c, 2, 54, 95
3, 44000, Note_off_c, 2, 63, 80
3, 44000, Note_off_c, 2, 58, 80
3, 44000, Note_off_c, 2, 54, 80
3, 44010, Note_on_c, 2, 63, 95
3, 44010, Note_on_c, 2, 58, 95
3, 44010, Note_on_c, 2, 54, 95
3, 44030, Note_off_c, 2, 63, 80
3, 44030, Note_off_c, 2, 58, 80
3, 44030, Note_off_c, 2, 54, 80
3, 44040, Note_on_c, 2, 63, 95
3, 44040, Note_on_c, 2, 58, 95
3, 44040, Note_on_c, 2, 54, 95
3, 44060, Note_off_c, 2, 63, 80
3, 44060, Note_off_c, 2, 58, 80
3, 44060, Note_off_c, 2, 54, 80
3, 44070, Note_on_c, 2, 63, 95
3, 44070, Note_on_c, 2, 58, 95
3, 44070, Note_on_c, 2, 54, 95
3, 44090, Note_off_c, 2, 63, 80
3, 44090, Note_off_c, 2, 58, 80
3, 44090, Note_off_c, 2, 54, 80
3, 44100, Note_on_c, 2, 63, 95
3, 44100, Note_on_c, 2, 58, 95
3, 44100, Note_on_c, 2, 54, 95
3, 44120, Note_off_c, 2, 63, 80
3, 44120, Note_off_c, 2, 58, 80
3, 44120, Note_off_c, 2, 54, 80
3, 44130, Note_on_c, 2, 63, 95
3, 44130, Note_on_c, 2, 58, 95
3, 44130, Note_on_c, 2, 54, 95
3, 44150, Note_off_c, 2, 63, 80
3, 44150, Note_off_c, 2, 58, 80
3, 44150, Note_off_c, 2, 54, 80
3, 47040, Note_on_c, 2, 63, 95
3, 47040, Note_on_c, 2, 58, 95
3, 47040, Note_on_c, 2, 54, 95
3, 47060, Note_off_c, 2, 63, 80
3, 47060, Note_off_c, 2, 58, 80
3, 47060, Note_off_c, 2, 54, 80
3, 47070, Note_on_c, 2, 63, 95
3, 47070, Note_on_c, 2, 58, 95
3, 47070, Note_on_c, 2, 54, 95
3, 47090, Note_off_c, 2, 63, 80
3, 47090, Note_off_c, 2, 58, 80
3, 47090, Note_off_c, 2, 54, 80
3, 47100, Note_on_c, 2, 63, 95
3, 47100, Note_on_c, 2, 58, 95
3, 47100, Note_on_c, 2, 54, 95
3, 47120, Note_off_c, 2, 63, 80
3, 47120, Note_off_c, 2, 58, 80
3, 47120, Note_off_c, 2, 54, 80
3, 47130, Note_on_c, 2, 63, 95
3, 47130, Note_on_c, 2, 58, 95
3, 47130, Note_on_c, 2, 54, 95
3, 47150, Note_off_c, 2, 63, 80
3, 47150, Note_off_c, 2, 58, 80
3, 47150, Note_off_c, 2, 54, 80
3, 47160, Note_on_c, 2, 63, 95
3, 47160, Note_on_c, 2, 58, 95
3, 47160, Note_on_c, 2, 54, 95
3, 47180, Note_off_c, 2, 63, 80
3, 47180, Note_off_c, 2, 58, 80
3, 47180, Note_off_c, 2, 54, 80
3, 47190, Note_on_c, 2, 63, 95
3, 47190, Note_on_c, 2, 58, 95
3, 47190, Note_on_c, 2, 54, 95
3, 47210, Note_off_c, 2, 63, 80
3, 47210, Note_off_c, 2, 58, 80
3, 47210, Note_off_c, 2, 54, 80
3, 47220, Note_on_c, 2, 63, 95
3, 47220, Note_on_c, 2, 58, 95
3, 47220, Note_on_c, 2, 54, 95
3, 47240, Note_off_c, 2, 63, 80
3, 47240, Note_off_c, 2, 58, 80
3, 47240, Note_off_c, 2, 54, 80
3, 47250, Note_on_c, 2, 63, 95
3, 47250, Note_on_c, 2, 58, 95
3, 47250, Note_on_c, 2, 54, 95
3, 47270, Note_off_c, 2, 63, 80
3, 47270, Note_off_c, 2, 58, 80
3, 47270, Note_off_c, 2, 54, 80
3, 47280, Note_on_c, 2, 63, 95
3, 47280, Note_on_c, 2, 58, 95
3, 47280, Note_on_c, 2, 54, 95
3, 47300, Note_off_c, 2, 63, 80
3, 47300, Note_off_c, 2, 58, 80
3, 47300, Note_off_c, 2, 54, 80
3, 47310, Note_on_c, 2, 63, 95
3, 47310, Note_on_c, 2, 58, 95
3, 47310, Note_on_c, 2, 54, 95
3, 47330, Note_off_c, 2, 63, 80
3, 47330, Note_off_c, 2, 58, 80
3, 47330, Note_off_c, 2, 54, 80
3, 47340, Note_on_c, 2, 63, 95
3, 47340, Note_on_c, 2, 58, 95
3, 47340, Note_on_c, 2, 54, 95
3, 47360, Note_off_c, 2, 63, 80
3, 47360, Note_off_c, 2, 58, 80
3, 47360, Note_off_c, 2, 54, 80
3, 47370, Note_on_c, 2, 63, 95
3, 47370, Note_on_c, 2, 58, 95
3, 47370, Note_on_c, 2, 54, 95
3, 47390, Note_off_c, 2, 63, 80
3, 47390, Note_off_c, 2, 58, 80
3, 47390, Note_off_c, 2, 54, 80
3, 47400, Note_on_c, 2, 63, 95
3, 47400, Note_on_c, 2, 58, 95
3, 47400, Note_on_c, 2, 54, 95
3, 47420, Note_off_c, 2, 63, 80
3, 47420, Note_off_c, 2, 58, 80
3, 47420, Note_off_c, 2, 54, 80
3, 47430, Note_on_c, 2, 63, 95
3, 47430, Note_on_c, 2, 58, 95
3, 47430, Note_on_c, 2, 54, 95
3, 47450, Note_off_c, 2, 63, 80
3, 47450, Note_off_c, 2, 58, 80
3, 47450, Note_off_c, 2, 54, 80
3, 47460, Note_on_c, 2, 63, 95
3, 47460, Note_on_c, 2, 58, 95
3, 47460, Note_on_c, 2, 54, 95
3, 47480, Note_off_c, 2, 63, 80
3, 47480, Note_off_c, 2, 58, 80
3, 47480, Note_off_c, 2, 54, 80
3, 47490, Note_on_c, 2, 63, 95
3, 47490, Note_on_c, 2, 58, 95
3, 47490, Note_on_c, 2, 54, 95
3, 47510, Note_off_c, 2, 63, 80
3, 47510, Note_off_c, 2, 58, 80
3, 47510, Note_off_c, 2, 54, 80
3, 47520, Note_on_c, 2, 63, 95
3, 47520, Note_on_c, 2, 58, 95
3, 47520, Note_on_c, 2, 54, 95
3, 47540, Note_off_c, 2, 63, 80
3, 47540, Note_off_c, 2, 58, 80
3, 47540, Note_off_c, 2, 54, 80
3, 47550, Note_on_c, 2, 63, 95
3, 47550, Note_on_c, 2, 58, 95
3, 47550, Note_on_c, 2, 54, 95
3, 47570, Note_off_c, 2, 63, 80
3, 47570, Note_off_c, 2, 58, 80
3, 47570, Note_off_c, 2, 54, 80
3, 47580, Note_on_c, 2, 63, 95
3, 47580, Note_on_c, 2, 58, 95
3, 47580, Note_on_c, 2, 54, 95
3, 47600, Note_off_c, 2, 63, 80
3, 47600, Note_off_c, 2, 58, 80
3, 47600, Note_off_c, 2, 54, 80
3, 47610, Note_on_c, 2, 63, 95
3, 47610, Note_on_c, 2, 58, 95
3, 47610, Note_on_c, 2, 54, 95
3, 47630, Note_off_c, 2, 63, 80
3, 47630, Note_off_c, 2, 58, 80
3, 47630, Note_off_c, 2, 54, 80
3, 47640, Note_on_c, 2, 63, 95
3, 47640, Note_on_c, 2, 58, 95
3, 47640, Note_on_c, 2, 54, 95
3, 47660, Note_off_c, 2, 63, 80
3, 47660, Note_off_c, 2, 58, 80
3, 47660, Note_off_c, 2, 54, 80
3, 47670, Note_on_c, 2, 63, 95
3, 47670, Note_on_c, 2, 58, 95
3, 47670, Note_on_c, 2, 54, 95
3, 47690, Note_off_c, 2, 63, 80
3, 47690, Note_off_c, 2, 58, 80
3, 47690, Note_off_c, 2, 54, 80
3, 47700, Note_on_c, 2, 63, 95
3, 47700, Note_on_c, 2, 58, 95
3, 47700, Note_on_c, 2, 54, 95
3, 47720, Note_off_c, 2, 63, 80
3, 47720, Note_off_c, 2, 58, 80
3, 47720, Note_off_c, 2, 54, 80
3, 47730, Note_on_c, 2, 63, 95
3, 47730, Note_on_c, 2, 58, 95
3, 47730, Note_on_c, 2, 54, 95
3, 47750, Note_off_c, 2, 63, 80
3, 47750, Note_off_c, 2, 58, 80
3, 47750, Note_off_c, 2, 54, 80
3, 47760, Note_on_c, 2, 63, 95
3, 47760, Note_on_c, 2, 58, 95
3, 47760, Note_on_c, 2, 54, 95
3, 47780, Note_off_c, 2, 63, 80
3, 47780, Note_off_c, 2, 58, 80
3, 47780, Note_off_c, 2, 54, 80
3, 47790, Note_on_c, 2, 63, 95
3, 47790, Note_on_c, 2, 58, 95
3, 47790, Note_on_c, 2, 54, 95
3, 47810, Note_off_c, 2, 63, 80
3, 47810, Note_off_c, 2, 58, 80
3, 47810, Note_off_c, 2, 54, 80
3, 47820, Note_on_c, 2, 63, 95
3, 47820, Note_on_c, 2, 58, 95
3, 47820, Note_on_c, 2, 54, 95
3, 47840, Note_off_c, 2, 63, 80
3, 47840, Note_off_c, 2, 58, 80
3, 47840, Note_off_c, 2, 54, 80
3, 47850, Note_on_c, 2, 63, 95
3, 47850, Note_on_c, 2, 58, 95
3, 47850, Note_on_c, 2, 54, 95
3, 47870, Note_off_c, 2, 63, 80
3, 47870, Note_off_c, 2, 58, 80
3, 47870, Note_off_c, 2, 54, 80
3, 47880, Note_on_c, 2, 63, 95
3, 47880, Note_on_c, 2, 58, 95
3, 47880, Note_on_c, 2, 54, 95
3, 47900, Note_off_c, 2, 63, 80
3, 47900, Note_off_c, 2, 58, 80
3, 47900, Note_off_c, 2, 54, 80
3, 47910, Note_on_c, 2, 63, 95
3, 47910, Note_on_c, 2, 58, 95
3, 47910, Note_on_c, 2, 54, 95
3, 47930, Note_off_c, 2, 63, 80
3, 47930, Note_off_c, 2, 58, 80
3, 47930, Note_off_c, 2, 54, 80
3, 47940, Note_on_c, 2, 63, 95
3, 47940, Note_on_c, 2, 58, 95
3, 47940, Note_on_c, 2, 54, 95
3, 47960, Note_off_c, 2, 63, 80
3, 47960, Note_off_c, 2, 58, 80
3, 47960, Note_off_c, 2, 54, 80
3, 47970, Note_on_c, 2, 63, 95
3, 47970, Note_on_c, 2, 58, 95
3, 47970, Note_on_c, 2, 54, 95
3, 47990, Note_off_c, 2, 63, 80
3, 47990, Note_off_c, 2, 58, 80
3, 47990, Note_off_c, 2, 54, 80
3, 87360, Note_on_c, 2, 63, 95
3, 87360, Note_on_c, 2, 58, 95
3, 87360, Note_on_c, 2, 54, 95
3, 87380, Note_off_c, 2, 63, 80
3, 87380, Note_off_c, 2, 58, 80
3, 87380, Note_off_c, 2, 54, 80
3, 87390, Note_on_c, 2, 63, 95
3, 87390, Note_on_c, 2, 58, 95
3, 87390, Note_on_c, 2, 54, 95
3, 87410, Note_off_c, 2, 63, 80
3, 87410, Note_off_c, 2, 58, 80
3, 87410, Note_off_c, 2, 54, 80
3, 87420, Note_on_c, 2, 63, 95
3, 87420, Note_on_c, 2, 58, 95
3, 87420, Note_on_c, 2, 54, 95
3, 87440, Note_off_c, 2, 63, 80
3, 87440, Note_off_c, 2, 58, 80
3, 87440, Note_off_c, 2, 54, 80
3, 87450, Note_on_c, 2, 63, 95
3, 87450, Note_on_c, 2, 58, 95
3, 87450, Note_on_c, 2, 54, 95
3, 87470, Note_off_c, 2, 63, 80
3, 87470, Note_off_c, 2, 58, 80
3, 87470, Note_off_c, 2, 54, 80
3, 87480, Note_on_c, 2, 63, 95
3, 87480, Note_on_c, 2, 58, 95
3, 87480, Note_on_c, 2, 54, 95
3, 87500, Note_off_c, 2, 63, 80
3, 87500, Note_off_c, 2, 58, 80
3, 87500, Note_off_c, 2, 54, 80
3, 87510, Note_on_c, 2, 63, 95
3, 87510, Note_on_c, 2, 58, 95
3, 87510, Note_on_c, 2, 54, 95
3, 87530, Note_off_c, 2, 63, 80
3, 87530, Note_off_c, 2, 58, 80
3, 87530, Note_off_c, 2, 54, 80
3, 87540, Note_on_c, 2, 63, 95
3, 87540, Note_on_c, 2, 58, 95
3, 87540, Note_on_c, 2, 54, 95
3, 87560, Note_off_c, 2, 63, 80
3, 87560, Note_off_c, 2, 58, 80
3, 87560, Note_off_c, 2, 54, 80
3, 87570, Note_on_c, 2, 63, 95
3, 87570, Note_on_c, 2, 58, 95
3, 87570, Note_on_c, 2, 54, 95
3, 87590, Note_off_c, 2, 63, 80
3, 87590, Note_off_c, 2, 58, 80
3, 87590, Note_off_c, 2, 54, 80
3, 87600, Note_on_c, 2, 63, 95
3, 87600, Note_on_c, 2, 58, 95
3, 87600, Note_on_c, 2, 54, 95
3, 87620, Note_off_c, 2, 63, 80
3, 87620, Note_off_c, 2, 58, 80
3, 87620, Note_off_c, 2, 54, 80
3, 87630, Note_on_c, 2, 63, 95
3, 87630, Note_on_c, 2, 58, 95
3, 87630, Note_on_c, 2, 54, 95
3, 87650, Note_off_c, 2, 63, 80
3, 87650, Note_off_c, 2, 58, 80
3, 87650, Note_off_c, 2, 54, 80
3, 87660, Note_on_c, 2, 63, 95
3, 87660, Note_on_c, 2, 58, 95
3, 87660, Note_on_c, 2, 54, 95
3, 87680, Note_off_c, 2, 63, 80
3, 87680, Note_off_c, 2, 58, 80
3, 87680, Note_off_c, 2, 54, 80
3, 87690, Note_on_c, 2, 63, 95
3, 87690, Note_on_c, 2, 58, 95
3, 87690, Note_on_c, 2, 54, 95
3, 87710, Note_off_c, 2, 63, 80
3, 87710, Note_off_c, 2, 58, 80
3, 87710, Note_off_c, 2, 54, 80
3, 87720, Note_on_c, 2, 63, 95
3, 87720, Note_on_c, 2, 58, 95
3, 87720, Note_on_c, 2, 54, 95
3, 87740, Note_off_c, 2, 63, 80
3, 87740, Note_off_c, 2, 58, 80
3, 87740, Note_off_c, 2, 54, 80
3, 87750, Note_on_c, 2, 63, 95
3, 87750, Note_on_c, 2, 58, 95
3, 87750, Note_on_c, 2, 54, 95
3, 87770, Note_off_c, 2, 63, 80
3, 87770, Note_off_c, 2, 58, 80
3, 87770, Note_off_c, 2, 54, 80
3, 87780, Note_on_c, 2, 63, 95
3, 87780, Note_on_c, 2, 58, 95
3, 87780, Note_on_c, 2, 54, 95
3, 87800, Note_off_c, 2, 63, 80
3, 87800, Note_off_c, 2, 58, 80
3, 87800, Note_off_c, 2, 54, 80
3, 87810, Note_on_c, 2, 63, 95
3, 87810, Note_on_c, 2, 58, 95
3, 87810, Note_on_c, 2, 54, 95
3, 87830, Note_off_c, 2, 63, 80
3, 87830, Note_off_c, 2, 58, 80
3, 87830, Note_off_c, 2, 54, 80
3, 87840, Note_on_c, 2, 63, 95
3, 87840, Note_on_c, 2, 58, 95
3, 87840, Note_on_c, 2, 54, 95
3, 87860, Note_off_c, 2, 63, 80
3, 87860, Note_off_c, 2, 58, 80
3, 87860, Note_off_c, 2, 54, 80
3, 87870, Note_on_c, 2, 63, 95
3, 87870, Note_on_c, 2, 58, 95
3, 87870, Note_on_c, 2, 54, 95
3, 87890, Note_off_c, 2, 63, 80
3, 87890, Note_off_c, 2, 58, 80
3, 87890, Note_off_c, 2, 54, 80
3, 87900, Note_on_c, 2, 63, 95
3, 87900, Note_on_c, 2, 58, 95
3, 87900, Note_on_c, 2, 54, 95
3, 87920, Note_off_c, 2, 63, 80
3, 87920, Note_off_c, 2, 58, 80
3, 87920, Note_off_c, 2, 54, 80
3, 87930, Note_on_c, 2, 63, 95
3, 87930, Note_on_c, 2, 58, 95
3, 87930, Note_on_c, 2, 54, 95
3, 87950, Note_off_c, 2, 63, 80
3, 87950, Note_off_c, 2, 58, 80
3, 87950, Note_off_c, 2, 54, 80
3, 87960, Note_on_c, 2, 63, 95
3, 87960, Note_on_c, 2, 58, 95
3, 87960, Note_on_c, 2, 54, 95
3, 87980, Note_off_c, 2, 63, 80
3, 87980, Note_off_c, 2, 58, 80
3, 87980, Note_off_c, 2, 54, 80
3, 87990, Note_on_c, 2, 63, 95
3, 87990, Note_on_c, 2, 58, 95
3, 87990, Note_on_c, 2, 54, 95
3, 88010, Note_off_c, 2, 63, 80
3, 88010, Note_off_c, 2, 58, 80
3, 88010, Note_off_c, 2, 54, 80
3, 88020, Note_on_c, 2, 63, 95
3, 88020, Note_on_c, 2, 58, 95
3, 88020, Note_on_c, 2, 54, 95
3, 88040, Note_off_c, 2, 63, 80
3, 88040, Note_off_c, 2, 58, 80
3, 88040, Note_off_c, 2, 54, 80
3, 88050, Note_on_c, 2, 63, 95
3, 88050, Note_on_c, 2, 58, 95
3, 88050, Note_on_c, 2, 54, 95
3, 88070, Note_off_c, 2, 63, 80
3, 88070, Note_off_c, 2, 58, 80
3, 88070, Note_off_c, 2, 54, 80
3, 88080, Note_on_c, 2, 63, 95
3, 88080, Note_on_c, 2, 58, 95
3, 88080, Note_on_c, 2, 54, 95
3, 88100, Note_off_c, 2, 63, 80
3, 88100, Note_off_c, 2, 58, 80
3, 88100, Note_off_c, 2, 54, 80
3, 88110, Note_on_c, 2, 63, 95
3, 88110, Note_on_c, 2, 58, 95
3, 88110, Note_on_c, 2, 54, 95
3, 88130, Note_off_c, 2, 63, 80
3, 88130, Note_off_c, 2, 58, 80
3, 88130, Note_off_c, 2, 54, 80
3, 88140, Note_on_c, 2, 63, 95
3, 88140, Note_on_c, 2, 58, 95
3, 88140, Note_on_c, 2, 54, 95
3, 88160, Note_off_c, 2, 63, 80
3, 88160, Note_off_c, 2, 58, 80
3, 88160, Note_off_c, 2, 54, 80
3, 88170, Note_on_c, 2, 63, 95
3, 88170, Note_on_c, 2, 58, 95
3, 88170, Note_on_c, 2, 54, 95
3, 88190, Note_off_c, 2, 63, 80
3, 88190, Note_off_c, 2, 58, 80
3, 88190, Note_off_c, 2, 54, 80
3, 88200, Note_on_c, 2, 63, 95
3, 88200, Note_on_c, 2, 58, 95
3, 88200, Note_on_c, 2, 54, 95
3, 88220, Note_off_c, 2, 63, 80
3, 88220, Note_off_c, 2, 58, 80
3, 88220, Note_off_c, 2, 54, 80
3, 88230, Note_on_c, 2, 63, 95
3, 88230, Note_on_c, 2, 58, 95
3, 88230, Note_on_c, 2, 54, 95
3, 88250, Note_off_c, 2, 63, 80
3, 88250, Note_off_c, 2, 58, 80
3, 88250, Note_off_c, 2, 54, 80
3, 88260, Note_on_c, 2, 63, 95
3, 88260, Note_on_c, 2, 58, 95
3, 88260, Note_on_c, 2, 54, 95
3, 88280, Note_off_c, 2, 63, 80
3, 88280, Note_off_c, 2, 58, 80
3, 88280, Note_off_c, 2, 54, 80
3, 88290, Note_on_c, 2, 63, 95
3, 88290, Note_on_c, 2, 58, 95
3, 88290, Note_on_c, 2, 54, 95
3, 88310, Note_off_c, 2, 63, 80
3, 88310, Note_off_c, 2, 58, 80
3, 88310, Note_off_c, 2, 54, 80
3, 91200, Note_on_c, 2, 63, 95
3, 91200, Note_on_c, 2, 58, 95
3, 91200, Note_on_c, 2, 54, 95
3, 91220, Note_off_c, 2, 63, 80
3, 91220, Note_off_c, 2, 58, 80
3, 91220, Note_off_c, 2, 54, 80
3, 91230, Note_on_c, 2, 63, 95
3, 91230, Note_on_c, 2, 58, 95
3, 91230, Note_on_c, 2, 54, 95
3, 91250, Note_off_c, 2, 63, 80
3, 91250, Note_off_c, 2, 58, 80
3, 91250, Note_off_c, 2, 54, 80
3, 91260, Note_on_c, 2, 63, 95
3, 91260, Note_on_c, 2, 58, 95
3, 91260, Note_on_c, 2, 54, 95
3, 91280, Note_off_c, 2, 63, 80
3, 91280, Note_off_c, 2, 58, 80
3, 91280, Note_off_c, 2, 54, 80
3, 91290, Note_on_c, 2, 63, 95
3, 91290, Note_on_c, 2, 58, 95
3, 91290, Note_on_c, 2, 54, 95
3, 91310, Note_off_c, 2, 63, 80
3, 91310, Note_off_c, 2, 58, 80
3, 91310, Note_off_c, 2, 54, 80
3, 91320, Note_on_c, 2, 63, 95
3, 91320, Note_on_c, 2, 58, 95
3, 91320, Note_on_c, 2, 54, 95
3, 91340, Note_off_c, 2, 63, 80
3, 91340, Note_off_c, 2, 58, 80
3, 91340, Note_off_c, 2, 54, 80
3, 91350, Note_on_c, 2, 63, 95
3, 91350, Note_on_c, 2, 58, 95
3, 91350, Note_on_c, 2, 54, 95
3, 91370, Note_off_c, 2, 63, 80
3, 91370, Note_off_c, 2, 58, 80
3, 91370, Note_off_c, 2, 54, 80
3, 91380, Note_on_c, 2, 63, 95
3, 91380, Note_on_c, 2, 58, 95
3, 91380, Note_on_c, 2, 54, 95
3, 91400, Note_off_c, 2, 63, 80
3, 91400, Note_off_c, 2, 58, 80
3, 91400, Note_off_c, 2, 54, 80
3, 91410, Note_on_c, 2, 63, 95
3, 91410, Note_on_c, 2, 58, 95
3, 91410, Note_on_c, 2, 54, 95
3, 91430, Note_off_c, 2, 63, 80
3, 91430, Note_off_c, 2, 58, 80
3, 91430, Note_off_c, 2, 54, 80
3, 91440, Note_on_c, 2, 63, 95
3, 91440, Note_on_c, 2, 58, 95
3, 91440, Note_on_c, 2, 54, 95
3, 91460, Note_off_c, 2, 63, 80
3, 91460, Note_off_c, 2, 58, 80
3, 91460, Note_off_c, 2, 54, 80
3, 91470, Note_on_c, 2, 63, 95
3, 91470, Note_on_c, 2, 58, 95
3, 91470, Note_on_c, 2, 54, 95
3, 91490, Note_off_c, 2, 63, 80
3, 91490, Note_off_c, 2, 58, 80
3, 91490, Note_off_c, 2, 54, 80
3, 91500, Note_on_c, 2, 63, 95
3, 91500, Note_on_c, 2, 58, 95
3, 91500, Note_on_c, 2, 54, 95
3, 91520, Note_off_c, 2, 63, 80
3, 91520, Note_off_c, 2, 58, 80
3, 91520, Note_off_c, 2, 54, 80
3, 91530, Note_on_c, 2, 63, 95
3, 91530, Note_on_c, 2, 58, 95
3, 91530, Note_on_c, 2, 54, 95
3, 91550, Note_off_c, 2, 63, 80
3, 91550, Note_off_c, 2, 58, 80
3, 91550, Note_off_c, 2, 54, 80
3, 91560, Note_on_c, 2, 63, 95
3, 91560, Note_on_c, 2, 58, 95
3, 91560, Note_on_c, 2, 54, 95
3, 91580, Note_off_c, 2, 63, 80
3, 91580, Note_off_c, 2, 58, 80
3, 91580, Note_off_c, 2, 54, 80
3, 91590, Note_on_c, 2, 63, 95
3, 91590, Note_on_c, 2, 58, 95
3, 91590, Note_on_c, 2, 54, 95
3, 91610, Note_off_c, 2, 63, 80
3, 91610, Note_off_c, 2, 58, 80
3, 91610, Note_off_c, 2, 54, 80
3, 91620, Note_on_c, 2, 63, 95
3, 91620, Note_on_c, 2, 58, 95
3, 91620, Note_on_c, 2, 54, 95
3, 91640, Note_off_c, 2, 63, 80
3, 91640, Note_off_c, 2, 58, 80
3, 91640, Note_off_c, 2, 54, 80
3, 91650, Note_on_c, 2, 63, 95
3, 91650, Note_on_c, 2, 58, 95
3, 91650, Note_on_c, 2, 54, 95
3, 91670, Note_off_c, 2, 63, 80
3, 91670, Note_off_c, 2, 58, 80
3, 91670, Note_off_c, 2, 54, 80
3, 91680, Note_on_c, 2, 63, 95
3, 91680, Note_on_c, 2, 58, 95
3, 91680, Note_on_c, 2, 54, 95
3, 91700, Note_off_c, 2, 63, 80
3, 91700, Note_off_c, 2, 58, 80
3, 91700, Note_off_c, 2, 54, 80
3, 91710, Note_on_c, 2, 63, 95
3, 91710, Note_on_c, 2, 58, 95
3, 91710, Note_on_c, 2, 54, 95
3, 91730, Note_off_c, 2, 63, 80
3, 91730, Note_off_c, 2, 58, 80
3, 91730, Note_off_c, 2, 54, 80
3, 91740, Note_on_c, 2, 63, 95
3, 91740, Note_on_c, 2, 58, 95
3, 91740, Note_on_c, 2, 54, 95
3, 91760, Note_off_c, 2, 63, 80
3, 91760, Note_off_c, 2, 58, 80
3, 91760, Note_off_c, 2, 54, 80
3, 91770, Note_on_c, 2, 63, 95
3, 91770, Note_on_c, 2, 58, 95
3, 91770, Note_on_c, 2, 54, 95
3, 91790, Note_off_c, 2, 63, 80
3, 91790, Note_off_c, 2, 58, 80
3, 91790, Note_off_c, 2, 54, 80
3, 91800, Note_on_c, 2, 63, 95
3, 91800, Note_on_c, 2, 58, 95
3, 91800, Note_on_c, 2, 54, 95
3, 91820, Note_off_c, 2, 63, 80
3, 91820, Note_off_c, 2, 58, 80
3, 91820, Note_off_c, 2, 54, 80
3, 91830, Note_on_c, 2, 63, 95
3, 91830, Note_on_c, 2, 58, 95
3, 91830, Note_on_c, 2, 54, 95
3, 91850, Note_off_c, 2, 63, 80
3, 91850, Note_off_c, 2, 58, 80
3, 91850, Note_off_c, 2, 54, 80
3, 91860, Note_on_c, 2, 63, 95
3, 91860, Note_on_c, 2, 58, 95
3, 91860, Note_on_c, 2, 54, 95
3, 91880, Note_off_c, 2, 63, 80
3, 91880, Note_off_c, 2, 58, 80
3, 91880, Note_off_c, 2, 54, 80
3, 91890, Note_on_c, 2, 63, 95
3, 91890, Note_on_c, 2, 58, 95
3, 91890, Note_on_c, 2, 54, 95
3, 91910, Note_off_c, 2, 63, 80
3, 91910, Note_off_c, 2, 58, 80
3, 91910, Note_off_c, 2, 54, 80
3, 91920, Note_on_c, 2, 63, 95
3, 91920, Note_on_c, 2, 58, 95
3, 91920, Note_on_c, 2, 54, 95
3, 91940, Note_off_c, 2, 63, 80
3, 91940, Note_off_c, 2, 58, 80
3, 91940, Note_off_c, 2, 54, 80
3, 91950, Note_on_c, 2, 63, 95
3, 91950, Note_on_c, 2, 58, 95
3, 91950, Note_on_c, 2, 54, 95
3, 91970, Note_off_c, 2, 63, 80
3, 91970, Note_off_c, 2, 58, 80
3, 91970, Note_off_c, 2, 54, 80
3, 91980, Note_on_c, 2, 63, 95
3, 91980, Note_on_c, 2, 58, 95
3, 91980, Note_on_c, 2, 54, 95
3, 92000, Note_off_c, 2, 63, 80
3, 92000, Note_off_c, 2, 58, 80
3, 92000, Note_off_c, 2, 54, 80
3, 92010, Note_on_c, 2, 63, 95
3, 92010, Note_on_c, 2, 58, 95
3, 92010, Note_on_c, 2, 54, 95
3, 92030, Note_off_c, 2, 63, 80
3, 92030, Note_off_c, 2, 58, 80
3, 92030, Note_off_c, 2, 54, 80
3, 92040, Note_on_c, 2, 63, 95
3, 92040, Note_on_c, 2, 58, 95
3, 92040, Note_on_c, 2, 54, 95
3, 92060, Note_off_c, 2, 63, 80
3, 92060, Note_off_c, 2, 58, 80
3, 92060, Note_off_c, 2, 54, 80
3, 92070, Note_on_c, 2, 63, 95
3, 92070, Note_on_c, 2, 58, 95
3, 92070, Note_on_c, 2, 54, 95
3, 92090, Note_off_c, 2, 63, 80
3, 92090, Note_off_c, 2, 58, 80
3, 92090, Note_off_c, 2, 54, 80
3, 92100, Note_on_c, 2, 63, 95
3, 92100, Note_on_c, 2, 58, 95
3, 92100, Note_on_c, 2, 54, 95
3, 92120, Note_off_c, 2, 63, 80
3, 92120, Note_off_c, 2, 58, 80
3, 92120, Note_off_c, 2, 54, 80
3, 92130, Note_on_c, 2, 63, 95
3, 92130, Note_on_c, 2, 58, 95
3, 92130, Note_on_c, 2, 54, 95
3, 92150, Note_off_c, 2, 63, 80
3, 92150, Note_off_c, 2, 58, 80
3, 92150, Note_off_c, 2, 54, 80
3, 92150, End_track
4, 0, Start_track
4, 0, Title_t, "Damon (Organ)"
4, 0, Control_c, 5, 100, 0
4, 0, Control_c, 5, 101, 0
4, 0, Control_c, 5, 6, 12
4, 0, Pitch_bend_c, 5, 8192
4, 0, Control_c, 5, 101, 0
4, 0, Control_c, 5, 100, 1
4, 0, Control_c, 5, 6, 64
4, 0, Control_c, 5, 38, 0
4, 0, Control_c, 5, 101, 127
4, 0, Control_c, 5, 100, 127
4, 0, Control_c, 4, 100, 0
4, 0, Control_c, 4, 101, 0
4, 0, Control_c, 4, 6, 12
4, 0, Pitch_bend_c, 4, 8192
4, 0, Control_c, 4, 101, 0
4, 0, Control_c, 4, 100, 1
4, 0, Control_c, 4, 6, 64
4, 0, Control_c, 4, 38, 0
4, 0, Control_c, 4, 101, 127
4, 0, Control_c, 4, 100, 127
4, 0, Control_c, 5, 101, 0
4, 0, Control_c, 5, 100, 2
4, 0, Control_c, 5, 6, 64
4, 0, Control_c, 5, 101, 127
4, 0, Control_c, 5, 100, 127
4, 0, Control_c, 4, 101, 0
4, 0, Control_c, 4, 100, 2
4, 0, Control_c, 4, 6, 64
4, 0, Control_c, 4, 101, 127
4, 0, Control_c, 4, 100, 127
4, 0, Program_c, 5, 16
4, 0, Program_c, 4, 16
4, 0, Control_c, 5, 0, 0
4, 0, Control_c, 4, 0, 0
4, 0, Control_c, 5, 7, 127
4, 0, Control_c, 4, 7, 127
4, 0, Control_c, 5, 10, 64
4, 0, Control_c, 4, 10, 64
4, 0, Control_c, 5, 93, 0
4, 0, Control_c, 4, 93, 0
4, 0, Control_c, 5, 91, 0
4, 0, Control_c, 4, 91, 0
4, 0, Control_c, 5, 92, 0
4, 0, Control_c, 4, 92, 0
4, 0, Control_c, 5, 95, 0
4, 0, Control_c, 4, 95, 0
4, 24480, Note_on_c, 4, 63, 95
4, 24720, Note_off_c, 4, 63, 80
4, 24720, Note_on_c, 4, 63, 95
4, 24840, Note_off_c, 4, 63, 80
4, 24840, Note_on_c, 4, 63, 95
4, 25200, Note_off_c, 4, 63, 80
4, 25200, Note_on_c, 4, 63, 95
4, 25440, Note_off_c, 4, 63, 80
4, 25440, Note_on_c, 4, 63, 95
4, 25680, Note_off_c, 4, 63, 80
4, 25680, Note_on_c, 4, 64, 95
4, 25800, Note_off_c, 4, 64, 80
4, 25800, Note_on_c, 4, 66, 95
4, 26160, Note_off_c, 4, 66, 80
4, 26160, Note_on_c, 4, 59, 95
4, 26280, Note_off_c, 4, 59, 80
4, 26280, Note_on_c, 4, 64, 95
4, 26640, Note_off_c, 4, 64, 80
4, 26640, Note_on_c, 4, 59, 95
4, 26760, Note_off_c, 4, 59, 80
4, 26760, Note_on_c, 4, 63, 95
4, 26880, Note_off_c, 4, 63, 80
4, 26880, Note_on_c, 4, 61, 95
4, 27840, Note_off_c, 4, 61, 80
4, 28560, Note_on_c, 4, 59, 95
4, 28680, Note_off_c, 4, 59, 80
4, 28680, Note_on_c, 4, 63, 95
4, 29040, Note_off_c, 4, 63, 80
4, 29040, Note_on_c, 4, 63, 95
4, 29160, Note_off_c, 4, 63, 80
4, 29160, Note_on_c, 4, 63, 95
4, 29400, Note_off_c, 4, 63, 80
4, 29400, Note_on_c, 4, 64, 95
4, 29760, Note_off_c, 4, 64, 80
4, 29760, Note_on_c, 4, 66, 95
4, 30000, Note_off_c, 4, 66, 80
4, 30000, Note_on_c, 4, 59, 95
4, 30240, Note_off_c, 4, 59, 80
4, 30240, Note_on_c, 4, 63, 95
4, 30360, Note_off_c, 4, 63, 80
4, 30360, Note_on_c, 4, 63, 95
4, 30480, Note_off_c, 4, 63, 80
4, 30480, Note_on_c, 4, 61, 95
4, 31200, Note_off_c, 4, 61, 80
4, 32160, Note_on_c, 4, 63, 95
4, 32400, Note_off_c, 4, 63, 80
4, 32400, Note_on_c, 4, 63, 95
4, 32520, Note_off_c, 4, 63, 80
4, 32520, Note_on_c, 4, 63, 95
4, 33120, Note_off_c, 4, 63, 80
4, 33120, Note_on_c, 4, 63, 95
4, 33360, Note_off_c, 4, 63, 80
4, 33360, Note_on_c, 4, 59, 95
4, 33480, Note_off_c, 4, 59, 80
4, 33480, Note_on_c, 4, 57, 95
4, 34080, Note_off_c, 4, 57, 80
4, 34080, Note_on_c, 4, 63, 95
4, 34320, Note_off_c, 4, 63, 80
4, 34320, Note_on_c, 4, 57, 95
4, 34440, Note_off_c, 4, 57, 80
4, 34440, Note_on_c, 4, 57, 95
4, 34560, Note_off_c, 4, 57, 80
4, 34560, Note_on_c, 4, 56, 95
4, 35040, Note_off_c, 4, 56, 80
4, 36000, Note_on_c, 4, 63, 95
4, 36240, Note_off_c, 4, 63, 80
4, 36240, Note_on_c, 4, 63, 95
4, 36360, Note_off_c, 4, 63, 80
4, 36360, Note_on_c, 4, 63, 95
4, 36600, Note_off_c, 4, 63, 80
4, 36600, Note_on_c, 4, 63, 95
4, 36840, Note_off_c, 4, 63, 80
4, 36840, Note_on_c, 4, 59, 95
4, 36960, Note_off_c, 4, 59, 80
4, 36960, Note_on_c, 4, 54, 95
4, 37200, Note_off_c, 4, 54, 80
4, 37200, Note_on_c, 4, 54, 95
4, 37320, Note_off_c, 4, 54, 80
4, 37320, Note_on_c, 4, 66, 95
4, 37560, Note_off_c, 4, 66, 80
4, 37560, Note_on_c, 4, 54, 95
4, 37920, Note_off_c, 4, 54, 80
4, 37920, Note_on_c, 4, 64, 95
4, 38040, Note_off_c, 4, 64, 80
4, 38040, Note_on_c, 4, 63, 95
4, 38160, Note_off_c, 4, 63, 80
4, 38160, Note_on_c, 4, 61, 95
4, 38880, Note_off_c, 4, 61, 80
4, 39840, Note_on_c, 4, 64, 95
4, 40080, Note_off_c, 4, 64, 80
4, 40080, Note_on_c, 4, 64, 95
4, 40200, Note_off_c, 4, 64, 80
4, 40200, Note_on_c, 4, 63, 95
4, 40560, Note_off_c, 4, 63, 80
4, 40560, Note_on_c, 4, 63, 95
4, 40680, Note_off_c, 4, 63, 80
4, 40680, Note_on_c, 4, 63, 95
4, 41040, Note_off_c, 4, 63, 80
4, 41040, Note_on_c, 4, 63, 95
4, 41160, Note_off_c, 4, 63, 80
4, 41160, Note_on_c, 4, 66, 95
4, 41400, Note_off_c, 4, 66, 80
4, 41400, Note_on_c, 4, 64, 95
4, 41520, Note_off_c, 4, 64, 80
4, 41520, Note_on_c, 4, 66, 95
4, 41640, Note_off_c, 4, 66, 80
4, 41640, Note_on_c, 4, 64, 95
4, 41760, Note_off_c, 4, 64, 80
4, 41760, Note_on_c, 4, 66, 95
4, 42000, Note_off_c, 4, 66, 80
4, 42000, Note_on_c, 4, 64, 95
4, 42120, Note_off_c, 4, 64, 80
4, 42120, Note_on_c, 4, 64, 95
4, 42360, Note_off_c, 4, 64, 80
4, 42360, Note_on_c, 4, 61, 95
4, 42720, Note_off_c, 4, 61, 80
4, 43680, Note_on_c, 4, 63, 95
4, 43800, Note_off_c, 4, 63, 80
4, 43800, Note_on_c, 4, 63, 95
4, 43920, Note_off_c, 4, 63, 80
4, 43920, Note_on_c, 4, 63, 95
4, 44640, Note_off_c, 4, 63, 80
4, 44640, Note_on_c, 4, 63, 95
4, 44880, Note_off_c, 4, 63, 80
4, 44880, Note_on_c, 4, 54, 95
4, 45000, Note_off_c, 4, 54, 80
4, 45000, Note_on_c, 4, 63, 95
4, 45240, Note_off_c, 4, 63, 80
4, 45240, Note_on_c, 4, 59, 95
4, 45480, Note_off_c, 4, 59, 80
4, 45480, Note_on_c, 4, 59, 95
4, 45600, Note_off_c, 4, 59, 80
4, 45600, Note_on_c, 4, 59, 95
4, 45840, Note_off_c, 4, 59, 80
4, 45840, Note_on_c, 4, 59, 95
4, 45960, Note_off_c, 4, 59, 80
4, 45960, Note_on_c, 4, 61, 95
4, 46200, Note_off_c, 4, 61, 80
4, 46200, Note_on_c, 4, 58, 95
4, 46560, Note_off_c, 4, 58, 80
4, 47520, Note_on_c, 4, 63, 95
4, 47640, Note_off_c, 4, 63, 80
4, 47640, Note_on_c, 4, 63, 95
4, 47760, Note_off_c, 4, 63, 80
4, 47760, Note_on_c, 4, 63, 95
4, 48480, Note_off_c, 4, 63, 80
4, 48480, Note_on_c, 4, 63, 95
4, 48720, Note_off_c, 4, 63, 80
4, 48720, Note_on_c, 4, 54, 95
4, 48960, Note_off_c, 4, 54, 80
4, 48960, Note_on_c, 4, 63, 95
4, 49200, Note_off_c, 4, 63, 80
4, 49200, Note_on_c, 4, 59, 95
4, 49440, Note_off_c, 4, 59, 80
4, 49440, Note_on_c, 4, 63, 95
4, 49680, Note_off_c, 4, 63, 80
4, 49680, Note_on_c, 4, 59, 95
4, 49800, Note_off_c, 4, 59, 80
4, 49800, Note_on_c, 4, 61, 95
4, 50040, Note_off_c, 4, 61, 80
4, 50040, Note_on_c, 4, 57, 95
4, 50400, Note_off_c, 4, 57, 80
4, 51360, Note_on_c, 4, 63, 95
4, 51480, Note_off_c, 4, 63, 80
4, 51480, Note_on_c, 4, 63, 95
4, 51600, Note_off_c, 4, 63, 80
4, 51600, Note_on_c, 4, 63, 95
4, 52320, Note_off_c, 4, 63, 80
4, 52320, Note_on_c, 4, 63, 95
4, 52440, Note_off_c, 4, 63, 80
4, 52440, Note_on_c, 4, 64, 95
4, 52560, Note_off_c, 4, 64, 80
4, 52560, Note_on_c, 4, 66, 95
4, 53280, Note_off_c, 4, 66, 80
4, 53280, Note_on_c, 4, 64, 95
4, 53400, Note_off_c, 4, 64, 80
4, 53400, Note_on_c, 4, 63, 95
4, 53520, Note_off_c, 4, 63, 80
4, 53520, Note_on_c, 4, 61, 95
4, 54240, Note_off_c, 4, 61, 80
4, 54960, Note_on_c, 4, 63, 95
4, 55080, Note_off_c, 4, 63, 80
4, 55080, Note_on_c, 4, 63, 95
4, 55200, Note_off_c, 4, 63, 80
4, 55200, Note_on_c, 4, 63, 95
4, 55440, Note_off_c, 4, 63, 80
4, 55440, Note_on_c, 4, 59, 95
4, 55560, Note_off_c, 4, 59, 80
4, 55560, Note_on_c, 4, 61, 95
4, 56160, Note_off_c, 4, 61, 80
4, 56880, Note_on_c, 4, 66, 95
4, 57000, Note_off_c, 4, 66, 80
4, 57000, Note_on_c, 4, 66, 95
4, 57240, Note_off_c, 4, 66, 80
4, 57240, Note_on_c, 4, 66, 95
4, 57480, Note_off_c, 4, 66, 80
4, 57480, Note_on_c, 4, 66, 95
4, 57840, Note_off_c, 4, 66, 80
4, 57840, Note_on_c, 4, 66, 95
4, 57960, Note_off_c, 4, 66, 80
4, 57960, Note_on_c, 4, 66, 95
4, 58200, Note_off_c, 4, 66, 80
4, 58200, Note_on_c, 4, 66, 95
4, 58320, Note_off_c, 4, 66, 80
4, 58320, Note_on_c, 4, 66, 95
4, 58440, Note_off_c, 4, 66, 80
4, 58440, Note_on_c, 4, 66, 95
4, 58800, Note_off_c, 4, 66, 80
4, 58800, Note_on_c, 4, 66, 95
4, 58920, Note_off_c, 4, 66, 80
4, 58920, Note_on_c, 4, 66, 95
4, 59160, Note_off_c, 4, 66, 80
4, 59160, Note_on_c, 4, 66, 95
4, 59400, Note_off_c, 4, 66, 80
4, 59400, Note_on_c, 4, 66, 95
4, 59640, Note_off_c, 4, 66, 80
4, 59640, Note_on_c, 4, 66, 95
4, 59760, Note_off_c, 4, 66, 80
4, 59760, Note_on_c, 4, 66, 95
4, 59880, Note_off_c, 4, 66, 80
4, 59880, Note_on_c, 4, 66, 95
4, 60120, Note_off_c, 4, 66, 80
4, 60120, Note_on_c, 4, 66, 95
4, 60360, Note_off_c, 4, 66, 80
4, 60360, Note_on_c, 4, 66, 95
4, 60600, Note_off_c, 4, 66, 80
4, 60600, Note_on_c, 4, 66, 95
4, 60840, Note_off_c, 4, 66, 80
4, 60840, Note_on_c, 4, 66, 95
4, 61080, Note_off_c, 4, 66, 80
4, 61080, Note_on_c, 4, 66, 95
4, 61320, Note_off_c, 4, 66, 80
4, 61320, Note_on_c, 4, 66, 95
4, 61560, Note_off_c, 4, 66, 80
4, 61560, Note_on_c, 4, 64, 95
4, 61680, Note_off_c, 4, 64, 80
4, 61680, Note_on_c, 4, 66, 95
4, 61800, Note_off_c, 4, 66, 80
4, 61800, Note_on_c, 4, 64, 95
4, 61920, Note_off_c, 4, 64, 80
4, 61920, Note_on_c, 4, 66, 95
4, 62160, Note_off_c, 4, 66, 80
4, 62160, Note_on_c, 4, 64, 95
4, 62280, Note_off_c, 4, 64, 80
4, 62280, Note_on_c, 4, 66, 95
4, 62520, Note_off_c, 4, 66, 80
4, 62520, Note_on_c, 4, 64, 95
4, 62640, Note_off_c, 4, 64, 80
4, 62640, Note_on_c, 4, 66, 95
4, 62760, Note_off_c, 4, 66, 80
4, 62760, Note_on_c, 4, 66, 95
4, 63000, Note_off_c, 4, 66, 80
4, 63000, Note_on_c, 4, 66, 95
4, 63240, Note_off_c, 4, 66, 80
4, 63240, Note_on_c, 4, 66, 95
4, 63480, Note_off_c, 4, 66, 80
4, 63480, Note_on_c, 4, 61, 95
4, 63600, Note_off_c, 4, 61, 80
4, 63600, Note_on_c, 4, 66, 95
4, 63720, Note_off_c, 4, 66, 80
4, 63720, Note_on_c, 4, 66, 95
4, 63960, Note_off_c, 4, 66, 80
4, 63960, Note_on_c, 4, 66, 95
4, 64200, Note_off_c, 4, 66, 80
4, 64200, Note_on_c, 4, 66, 95
4, 64440, Note_off_c, 4, 66, 80
4, 64440, Note_on_c, 4, 61, 95
4, 64560, Note_off_c, 4, 61, 80
4, 64560, Note_on_c, 4, 66, 95
4, 64680, Note_off_c, 4, 66, 80
4, 64680, Note_on_c, 4, 66, 95
4, 64920, Note_off_c, 4, 66, 80
4, 64920, Note_on_c, 4, 66, 95
4, 65160, Note_off_c, 4, 66, 80
4, 65160, Note_on_c, 4, 66, 95
4, 65400, Note_off_c, 4, 66, 80
4, 65400, Note_on_c, 4, 66, 95
4, 65640, Note_off_c, 4, 66, 80
4, 65640, Note_on_c, 4, 66, 95
4, 65880, Note_off_c, 4, 66, 80
4, 65880, Note_on_c, 4, 66, 95
4, 66120, Note_off_c, 4, 66, 80
4, 66120, Note_on_c, 4, 68, 95
4, 66360, Note_off_c, 4, 68, 80
4, 66360, Note_on_c, 4, 66, 95
4, 66600, Note_off_c, 4, 66, 80
4, 66600, Note_on_c, 4, 66, 95
4, 66840, Note_off_c, 4, 66, 80
4, 66840, Note_on_c, 4, 66, 95
4, 67080, Note_off_c, 4, 66, 80
4, 67080, Note_on_c, 4, 66, 95
4, 67320, Note_off_c, 4, 66, 80
4, 67320, Note_on_c, 4, 59, 95
4, 67560, Note_off_c, 4, 59, 80
4, 67560, Note_on_c, 4, 59, 95
4, 67800, Note_off_c, 4, 59, 80
4, 67800, Note_on_c, 4, 59, 95
4, 68040, Note_off_c, 4, 59, 80
4, 68040, Note_on_c, 4, 61, 95
4, 68640, Note_off_c, 4, 61, 80
4, 68640, Note_on_c, 4, 63, 95
4, 68880, Note_off_c, 4, 63, 80
4, 68880, Note_on_c, 4, 63, 95
4, 69000, Note_off_c, 4, 63, 80
4, 69000, Note_on_c, 4, 63, 95
4, 69600, Note_off_c, 4, 63, 80
4, 69600, Note_on_c, 4, 59, 95
4, 69840, Note_off_c, 4, 59, 80
4, 69840, Note_on_c, 4, 59, 95
4, 69960, Note_off_c, 4, 59, 80
4, 69960, Note_on_c, 4, 61, 95
4, 70560, Note_off_c, 4, 61, 80
4, 70560, Note_on_c, 4, 63, 95
4, 70680, Note_off_c, 4, 63, 80
4, 70680, Note_on_c, 4, 59, 95
4, 70800, Note_off_c, 4, 59, 80
4, 70800, Note_on_c, 4, 59, 95
4, 70920, Note_off_c, 4, 59, 80
4, 70920, Note_on_c, 4, 61, 95
4, 71520, Note_off_c, 4, 61, 80
4, 72120, Note_on_c, 4, 63, 95
4, 72240, Note_off_c, 4, 63, 80
4, 72240, Note_on_c, 4, 66, 95
4, 72360, Note_off_c, 4, 66, 80
4, 72360, Note_on_c, 4, 63, 95
4, 72480, Note_off_c, 4, 63, 80
4, 72480, Note_on_c, 4, 66, 95
4, 72720, Note_off_c, 4, 66, 80
4, 72720, Note_on_c, 4, 63, 95
4, 72840, Note_off_c, 4, 63, 80
4, 72840, Note_on_c, 4, 66, 95
4, 73800, Note_off_c, 4, 66, 80
4, 73800, Note_on_c, 4, 68, 95
4, 73920, Note_off_c, 4, 68, 80
4, 73920, Note_on_c, 4, 63, 95
4, 74040, Note_off_c, 4, 63, 80
4, 74040, Note_on_c, 4, 61, 95
4, 74160, Note_off_c, 4, 61, 80
4, 74160, Note_on_c, 4, 59, 95
4, 74760, Note_off_c, 4, 59, 80
4, 74760, Note_on_c, 4, 61, 95
4, 75360, Note_off_c, 4, 61, 80
4, 76080, Note_on_c, 4, 66, 95
4, 76200, Note_off_c, 4, 66, 80
4, 76200, Note_on_c, 4, 63, 95
4, 76320, Note_off_c, 4, 63, 80
4, 76320, Note_on_c, 4, 66, 95
4, 76560, Note_off_c, 4, 66, 80
4, 76560, Note_on_c, 4, 63, 95
4, 76680, Note_off_c, 4, 63, 80
4, 76680, Note_on_c, 4, 66, 95
4, 77640, Note_off_c, 4, 66, 80
4, 77640, Note_on_c, 4, 68, 95
4, 77760, Note_off_c, 4, 68, 80
4, 77760, Note_on_c, 4, 63, 95
4, 77880, Note_off_c, 4, 63, 80
4, 77880, Note_on_c, 4, 61, 95
4, 78000, Note_off_c, 4, 61, 80
4, 78000, Note_on_c, 4, 59, 95
4, 78600, Note_off_c, 4, 59, 80
4, 78600, Note_on_c, 4, 61, 95
4, 79200, Note_off_c, 4, 61, 80
4, 84000, Note_on_c, 4, 63, 95
4, 84240, Note_off_c, 4, 63, 80
4, 84240, Note_on_c, 4, 63, 95
4, 84360, Note_off_c, 4, 63, 80
4, 84360, Note_on_c, 4, 63, 95
4, 84720, Note_off_c, 4, 63, 80
4, 84720, Note_on_c, 4, 63, 95
4, 84960, Note_off_c, 4, 63, 80
4, 84960, Note_on_c, 4, 63, 95
4, 85200, Note_off_c, 4, 63, 80
4, 85200, Note_on_c, 4, 63, 95
4, 85320, Note_off_c, 4, 63, 80
4, 85320, Note_on_c, 4, 66, 95
4, 85560, Note_off_c, 4, 66, 80
4, 85560, Note_on_c, 4, 59, 95
4, 85920, Note_off_c, 4, 59, 80
4, 85920, Note_on_c, 4, 63, 95
4, 86160, Note_off_c, 4, 63, 80
4, 86160, Note_on_c, 4, 59, 95
4, 86280, Note_off_c, 4, 59, 80
4, 86280, Note_on_c, 4, 61, 95
4, 86520, Note_off_c, 4, 61, 80
4, 86520, Note_on_c, 4, 58, 95
4, 86880, Note_off_c, 4, 58, 80
4, 88080, Note_on_c, 4, 63, 95
4, 88200, Note_off_c, 4, 63, 80
4, 88200, Note_on_c, 4, 63, 95
4, 88560, Note_off_c, 4, 63, 80
4, 88560, Note_on_c, 4, 63, 95
4, 88680, Note_off_c, 4, 63, 80
4, 88680, Note_on_c, 4, 63, 95
4, 88920, Note_off_c, 4, 63, 80
4, 88920, Note_on_c, 4, 64, 95
4, 89280, Note_off_c, 4, 64, 80
4, 89280, Note_on_c, 4, 66, 95
4, 89400, Note_off_c, 4, 66, 80
4, 89400, Note_on_c, 4, 59, 95
4, 89760, Note_off_c, 4, 59, 80
4, 89760, Note_on_c, 4, 63, 95
4, 89880, Note_off_c, 4, 63, 80
4, 89880, Note_on_c, 4, 63, 95
4, 90000, Note_off_c, 4, 63, 80
4, 90000, Note_on_c, 4, 61, 95
4, 90720, Note_off_c, 4, 61, 80
4, 91680, Note_on_c, 4, 63, 95
4, 91800, Note_off_c, 4, 63, 80
4, 91800, Note_on_c, 4, 63, 95
4, 91920, Note_off_c, 4, 63, 80
4, 91920, Note_on_c, 4, 63, 95
4, 92400, Note_off_c, 4, 63, 80
4, 92400, Note_on_c, 4, 59, 95
4, 92640, Note_off_c, 4, 59, 80
4, 92640, Note_on_c, 4, 63, 95
4, 92880, Note_off_c, 4, 63, 80
4, 92880, Note_on_c, 4, 59, 95
4, 93120, Note_off_c, 4, 59, 80
4, 93120, Note_on_c, 4, 57, 95
4, 93360, Note_off_c, 4, 57, 80
4, 93360, Note_on_c, 4, 57, 95
4, 93600, Note_off_c, 4, 57, 80
4, 93600, Note_on_c, 4, 63, 95
4, 93840, Note_off_c, 4, 63, 80
4, 93840, Note_on_c, 4, 59, 95
4, 93960, Note_off_c, 4, 59, 80
4, 93960, Note_on_c, 4, 57, 95
4, 94200, Note_off_c, 4, 57, 80
4, 94200, Note_on_c, 4, 52, 95
4, 94560, Note_off_c, 4, 52, 80
4, 95640, Note_on_c, 4, 63, 95
4, 95760, Note_off_c, 4, 63, 80
4, 95760, Note_on_c, 4, 63, 95
4, 96120, Note_off_c, 4, 63, 80
4, 96120, Note_on_c, 4, 63, 95
4, 96360, Note_off_c, 4, 63, 80
4, 96360, Note_on_c, 4, 63, 95
4, 96600, Note_off_c, 4, 63, 80
4, 96600, Note_on_c, 4, 63, 95
4, 96840, Note_off_c, 4, 63, 80
4, 96840, Note_on_c, 4, 64, 95
4, 96960, Note_off_c, 4, 64, 80
4, 96960, Note_on_c, 4, 66, 95
4, 97200, Note_off_c, 4, 66, 80
4, 97200, Note_on_c, 4, 66, 95
4, 97440, Note_off_c, 4, 66, 80
4, 97440, Note_on_c, 4, 64, 95
4, 97680, Note_off_c, 4, 64, 80
4, 97680, Note_on_c, 4, 63, 95
4, 97800, Note_off_c, 4, 63, 80
4, 97800, Note_on_c, 4, 61, 95
4, 98400, Note_off_c, 4, 61, 80
4, 99120, Note_on_c, 4, 59, 95
4, 99240, Note_off_c, 4, 59, 80
4, 99240, Note_on_c, 4, 59, 95
4, 99360, Note_off_c, 4, 59, 80
4, 99360, Note_on_c, 4, 63, 95
4, 99600, Note_off_c, 4, 63, 80
4, 99600, Note_on_c, 4, 59, 95
4, 99720, Note_off_c, 4, 59, 80
4, 99720, Note_on_c, 4, 66, 95
4, 100320, Note_off_c, 4, 66, 80
4, 101040, Note_on_c, 4, 66, 95
4, 101160, Note_off_c, 4, 66, 80
4, 101160, Note_on_c, 4, 66, 95
4, 101400, Note_off_c, 4, 66, 80
4, 101400, Note_on_c, 4, 66, 95
4, 101640, Note_off_c, 4, 66, 80
4, 101640, Note_on_c, 4, 66, 95
4, 102000, Note_off_c, 4, 66, 80
4, 102000, Note_on_c, 4, 66, 95
4, 102120, Note_off_c, 4, 66, 80
4, 102120, Note_on_c, 4, 66, 95
4, 102360, Note_off_c, 4, 66, 80
4, 102360, Note_on_c, 4, 66, 95
4, 102480, Note_off_c, 4, 66, 80
4, 102480, Note_on_c, 4, 66, 95
4, 102600, Note_off_c, 4, 66, 80
4, 102600, Note_on_c, 4, 66, 95
4, 102960, Note_off_c, 4, 66, 80
4, 102960, Note_on_c, 4, 66, 95
4, 103080, Note_off_c, 4, 66, 80
4, 103080, Note_on_c, 4, 66, 95
4, 103320, Note_off_c, 4, 66, 80
4, 103320, Note_on_c, 4, 66, 95
4, 103560, Note_off_c, 4, 66, 80
4, 103560, Note_on_c, 4, 66, 95
4, 103800, Note_off_c, 4, 66, 80
4, 103800, Note_on_c, 4, 66, 95
4, 103920, Note_off_c, 4, 66, 80
4, 103920, Note_on_c, 4, 66, 95
4, 104040, Note_off_c, 4, 66, 80
4, 104040, Note_on_c, 4, 66, 95
4, 104280, Note_off_c, 4, 66, 80
4, 104280, Note_on_c, 4, 66, 95
4, 104520, Note_off_c, 4, 66, 80
4, 104520, Note_on_c, 4, 66, 95
4, 104760, Note_off_c, 4, 66, 80
4, 104760, Note_on_c, 4, 66, 95
4, 105000, Note_off_c, 4, 66, 80
4, 105000, Note_on_c, 4, 66, 95
4, 105240, Note_off_c, 4, 66, 80
4, 105240, Note_on_c, 4, 66, 95
4, 105480, Note_off_c, 4, 66, 80
4, 105480, Note_on_c, 4, 66, 95
4, 105720, Note_off_c, 4, 66, 80
4, 105720, Note_on_c, 4, 64, 95
4, 105840, Note_off_c, 4, 64, 80
4, 105840, Note_on_c, 4, 66, 95
4, 105960, Note_off_c, 4, 66, 80
4, 105960, Note_on_c, 4, 64, 95
4, 106080, Note_off_c, 4, 64, 80
4, 106080, Note_on_c, 4, 66, 95
4, 106320, Note_off_c, 4, 66, 80
4, 106320, Note_on_c, 4, 64, 95
4, 106440, Note_off_c, 4, 64, 80
4, 106440, Note_on_c, 4, 66, 95
4, 106680, Note_off_c, 4, 66, 80
4, 106680, Note_on_c, 4, 64, 95
4, 106800, Note_off_c, 4, 64, 80
4, 106800, Note_on_c, 4, 66, 95
4, 106920, Note_off_c, 4, 66, 80
4, 106920, Note_on_c, 4, 66, 95
4, 107160, Note_off_c, 4, 66, 80
4, 107160, Note_on_c, 4, 66, 95
4, 107400, Note_off_c, 4, 66, 80
4, 107400, Note_on_c, 4, 66, 95
4, 107640, Note_off_c, 4, 66, 80
4, 107640, Note_on_c, 4, 61, 95
4, 107760, Note_off_c, 4, 61, 80
4, 107760, Note_on_c, 4, 66, 95
4, 107880, Note_off_c, 4, 66, 80
4, 107880, Note_on_c, 4, 66, 95
4, 108120, Note_off_c, 4, 66, 80
4, 108120, Note_on_c, 4, 66, 95
4, 108360, Note_off_c, 4, 66, 80
4, 108360, Note_on_c, 4, 66, 95
4, 108600, Note_off_c, 4, 66, 80
4, 108600, Note_on_c, 4, 61, 95
4, 108720, Note_off_c, 4, 61, 80
4, 108720, Note_on_c, 4, 66, 95
4, 108840, Note_off_c, 4, 66, 80
4, 108840, Note_on_c, 4, 66, 95
4, 109080, Note_off_c, 4, 66, 80
4, 109080, Note_on_c, 4, 66, 95
4, 109320, Note_off_c, 4, 66, 80
4, 109320, Note_on_c, 4, 66, 95
4, 109560, Note_off_c, 4, 66, 80
4, 109560, Note_on_c, 4, 66, 95
4, 109800, Note_off_c, 4, 66, 80
4, 109800, Note_on_c, 4, 66, 95
4, 110040, Note_off_c, 4, 66, 80
4, 110040, Note_on_c, 4, 66, 95
4, 110280, Note_off_c, 4, 66, 80
4, 110280, Note_on_c, 4, 68, 95
4, 110520, Note_off_c, 4, 68, 80
4, 110520, Note_on_c, 4, 66, 95
4, 110760, Note_off_c, 4, 66, 80
4, 110760, Note_on_c, 4, 66, 95
4, 111000, Note_off_c, 4, 66, 80
4, 111000, Note_on_c, 4, 66, 95
4, 111240, Note_off_c, 4, 66, 80
4, 111240, Note_on_c, 4, 66, 95
4, 111480, Note_off_c, 4, 66, 80
4, 111480, Note_on_c, 4, 59, 95
4, 111720, Note_off_c, 4, 59, 80
4, 111720, Note_on_c, 4, 59, 95
4, 111960, Note_off_c, 4, 59, 80
4, 111960, Note_on_c, 4, 59, 95
4, 112200, Note_off_c, 4, 59, 80
4, 112200, Note_on_c, 4, 61, 95
4, 112800, Note_off_c, 4, 61, 80
4, 112800, Note_on_c, 4, 63, 95
4, 113040, Note_off_c, 4, 63, 80
4, 113040, Note_on_c, 4, 63, 95
4, 113160, Note_off_c, 4, 63, 80
4, 113160, Note_on_c, 4, 63, 95
4, 113760, Note_off_c, 4, 63, 80
4, 113760, Note_on_c, 4, 59, 95
4, 114000, Note_off_c, 4, 59, 80
4, 114000, Note_on_c, 4, 59, 95
4, 114120, Note_off_c, 4, 59, 80
4, 114120, Note_on_c, 4, 61, 95
4, 114720, Note_off_c, 4, 61, 80
4, 114720, Note_on_c, 4, 63, 95
4, 114840, Note_off_c, 4, 63, 80
4, 114840, Note_on_c, 4, 59, 95
4, 114960, Note_off_c, 4, 59, 80
4, 114960, Note_on_c, 4, 59, 95
4, 115080, Note_off_c, 4, 59, 80
4, 115080, Note_on_c, 4, 61, 95
4, 115680, Note_off_c, 4, 61, 80
4, 116280, Note_on_c, 4, 63, 95
4, 116400, Note_off_c, 4, 63, 80
4, 116400, Note_on_c, 4, 66, 95
4, 116520, Note_off_c, 4, 66, 80
4, 116520, Note_on_c, 4, 63, 95
4, 116640, Note_off_c, 4, 63, 80
4, 116640, Note_on_c, 4, 66, 95
4, 116880, Note_off_c, 4, 66, 80
4, 116880, Note_on_c, 4, 63, 95
4, 117000, Note_off_c, 4, 63, 80
4, 117000, Note_on_c, 4, 66, 95
4, 117600, Note_off_c, 4, 66, 80
4, 117600, Note_on_c, 4, 63, 95
4, 117840, Note_off_c, 4, 63, 80
4, 117840, Note_on_c, 4, 64, 95
4, 117960, Note_off_c, 4, 64, 80
4, 117960, Note_on_c, 4, 66, 95
4, 118560, Note_off_c, 4, 66, 80
4, 118560, Note_on_c, 4, 64, 95
4, 118800, Note_off_c, 4, 64, 80
4, 118800, Note_on_c, 4, 63, 95
4, 118920, Note_off_c, 4, 63, 80
4, 118920, Note_on_c, 4, 63, 95
4, 119160, Note_off_c, 4, 63, 80
4, 119160, Note_on_c, 4, 61, 95
4, 119520, Note_off_c, 4, 61, 80
4, 120960, Note_on_c, 4, 63, 95
4, 121440, Note_off_c, 4, 63, 80
4, 121440, Note_on_c, 4, 63, 95
4, 121680, Note_off_c, 4, 63, 80
4, 121680, Note_on_c, 4, 64, 95
4, 121800, Note_off_c, 4, 64, 80
4, 121800, Note_on_c, 4, 66, 95
4, 122400, Note_off_c, 4, 66, 80
4, 122400, Note_on_c, 4, 64, 95
4, 122640, Note_off_c, 4, 64, 80
4, 122640, Note_on_c, 4, 63, 95
4, 122760, Note_off_c, 4, 63, 80
4, 122760, Note_on_c, 4, 61, 95
4, 123360, Note_off_c, 4, 61, 80
4, 124800, Note_on_c, 4, 63, 95
4, 125280, Note_off_c, 4, 63, 80
4, 125280, Note_on_c, 4, 63, 95
4, 125520, Note_off_c, 4, 63, 80
4, 125520, Note_on_c, 4, 63, 95
4, 125640, Note_off_c, 4, 63, 80
4, 125640, Note_on_c, 4, 64, 95
4, 126240, Note_off_c, 4, 64, 80
4, 126240, Note_on_c, 4, 61, 95
4, 126480, Note_off_c, 4, 61, 80
4, 126480, Note_on_c, 4, 59, 95
4, 126600, Note_off_c, 4, 59, 80
4, 126600, Note_on_c, 4, 61, 95
4, 126840, Note_off_c, 4, 61, 80
4, 126840, Note_on_c, 4, 59, 95
4, 127200, Note_off_c, 4, 59, 80
4, 128640, Note_on_c, 4, 63, 95
4, 129120, Note_off_c, 4, 63, 80
4, 129120, Note_on_c, 4, 63, 95
4, 129360, Note_off_c, 4, 63, 80
4, 129360, Note_on_c, 4, 64, 95
4, 129480, Note_off_c, 4, 64, 80
4, 129480, Note_on_c, 4, 66, 95
4, 130080, Note_off_c, 4, 66, 80
4, 130080, Note_on_c, 4, 64, 95
4, 130320, Note_off_c, 4, 64, 80
4, 130320, Note_on_c, 4, 63, 95
4, 130440, Note_off_c, 4, 63, 80
4, 130440, Note_on_c, 4, 61, 95
4, 131040, Note_off_c, 4, 61, 80
4, 132000, Note_on_c, 4, 63, 95
4, 132240, Note_off_c, 4, 63, 80
4, 132240, Note_on_c, 4, 59, 95
4, 132360, Note_off_c, 4, 59, 80
4, 132360, Note_on_c, 4, 61, 95
4, 132960, Note_off_c, 4, 61, 80
4, 133680, Note_on_c, 4, 66, 95
4, 133800, Note_off_c, 4, 66, 80
4, 133800, Note_on_c, 4, 66, 95
4, 134040, Note_off_c, 4, 66, 80
4, 134040, Note_on_c, 4, 66, 95
4, 134280, Note_off_c, 4, 66, 80
4, 134280, Note_on_c, 4, 66, 95
4, 134640, Note_off_c, 4, 66, 80
4, 134640, Note_on_c, 4, 66, 95
4, 134760, Note_off_c, 4, 66, 80
4, 134760, Note_on_c, 4, 66, 95
4, 135000, Note_off_c, 4, 66, 80
4, 135000, Note_on_c, 4, 66, 95
4, 135120, Note_off_c, 4, 66, 80
4, 135120, Note_on_c, 4, 66, 95
4, 135240, Note_off_c, 4, 66, 80
4, 135240, Note_on_c, 4, 66, 95
4, 135600, Note_off_c, 4, 66, 80
4, 135600, Note_on_c, 4, 66, 95
4, 135720, Note_off_c, 4, 66, 80
4, 135720, Note_on_c, 4, 66, 95
4, 135960, Note_off_c, 4, 66, 80
4, 135960, Note_on_c, 4, 66, 95
4, 136200, Note_off_c, 4, 66, 80
4, 136200, Note_on_c, 4, 66, 95
4, 136440, Note_off_c, 4, 66, 80
4, 136440, Note_on_c, 4, 66, 95
4, 136560, Note_off_c, 4, 66, 80
4, 136560, Note_on_c, 4, 66, 95
4, 136680, Note_off_c, 4, 66, 80
4, 136680, Note_on_c, 4, 66, 95
4, 136920, Note_off_c, 4, 66, 80
4, 136920, Note_on_c, 4, 66, 95
4, 137160, Note_off_c, 4, 66, 80
4, 137160, Note_on_c, 4, 66, 95
4, 137400, Note_off_c, 4, 66, 80
4, 137400, Note_on_c, 4, 66, 95
4, 137640, Note_off_c, 4, 66, 80
4, 137640, Note_on_c, 4, 66, 95
4, 137880, Note_off_c, 4, 66, 80
4, 137880, Note_on_c, 4, 66, 95
4, 138120, Note_off_c, 4, 66, 80
4, 138120, Note_on_c, 4, 66, 95
4, 138360, Note_off_c, 4, 66, 80
4, 138360, Note_on_c, 4, 64, 95
4, 138480, Note_off_c, 4, 64, 80
4, 138480, Note_on_c, 4, 66, 95
4, 138600, Note_off_c, 4, 66, 80
4, 138600, Note_on_c, 4, 64, 95
4, 138720, Note_off_c, 4, 64, 80
4, 138720, Note_on_c, 4, 66, 95
4, 138960, Note_off_c, 4, 66, 80
4, 138960, Note_on_c, 4, 64, 95
4, 139080, Note_off_c, 4, 64, 80
4, 139080, Note_on_c, 4, 66, 95
4, 139320, Note_off_c, 4, 66, 80
4, 139320, Note_on_c, 4, 64, 95
4, 139440, Note_off_c, 4, 64, 80
4, 139440, Note_on_c, 4, 66, 95
4, 139560, Note_off_c, 4, 66, 80
4, 139560, Note_on_c, 4, 66, 95
4, 139800, Note_off_c, 4, 66, 80
4, 139800, Note_on_c, 4, 66, 95
4, 140040, Note_off_c, 4, 66, 80
4, 140040, Note_on_c, 4, 66, 95
4, 140280, Note_off_c, 4, 66, 80
4, 140280, Note_on_c, 4, 61, 95
4, 140400, Note_off_c, 4, 61, 80
4, 140400, Note_on_c, 4, 66, 95
4, 140520, Note_off_c, 4, 66, 80
4, 140520, Note_on_c, 4, 66, 95
4, 140760, Note_off_c, 4, 66, 80
4, 140760, Note_on_c, 4, 66, 95
4, 141000, Note_off_c, 4, 66, 80
4, 141000, Note_on_c, 4, 66, 95
4, 141240, Note_off_c, 4, 66, 80
4, 141240, Note_on_c, 4, 61, 95
4, 141360, Note_off_c, 4, 61, 80
4, 141360, Note_on_c, 4, 66, 95
4, 141480, Note_off_c, 4, 66, 80
4, 141480, Note_on_c, 4, 66, 95
4, 141720, Note_off_c, 4, 66, 80
4, 141720, Note_on_c, 4, 66, 95
4, 141960, Note_off_c, 4, 66, 80
4, 141960, Note_on_c, 4, 66, 95
4, 142200, Note_off_c, 4, 66, 80
4, 142200, Note_on_c, 4, 66, 95
4, 142440, Note_off_c, 4, 66, 80
4, 142440, Note_on_c, 4, 66, 95
4, 142680, Note_off_c, 4, 66, 80
4, 142680, Note_on_c, 4, 66, 95
4, 142920, Note_off_c, 4, 66, 80
4, 142920, Note_on_c, 4, 68, 95
4, 143160, Note_off_c, 4, 68, 80
4, 143160, Note_on_c, 4, 66, 95
4, 143400, Note_off_c, 4, 66, 80
4, 143400, Note_on_c, 4, 66, 95
4, 143640, Note_off_c, 4, 66, 80
4, 143640, Note_on_c, 4, 66, 95
4, 143880, Note_off_c, 4, 66, 80
4, 143880, Note_on_c, 4, 66, 95
4, 144120, Note_off_c, 4, 66, 80
4, 144120, Note_on_c, 4, 59, 95
4, 144360, Note_off_c, 4, 59, 80
4, 144360, Note_on_c, 4, 59, 95
4, 144600, Note_off_c, 4, 59, 80
4, 144600, Note_on_c, 4, 59, 95
4, 144840, Note_off_c, 4, 59, 80
4, 144840, Note_on_c, 4, 61, 95
4, 145440, Note_off_c, 4, 61, 80
4, 145440, Note_on_c, 4, 63, 95
4, 145680, Note_off_c, 4, 63, 80
4, 145680, Note_on_c, 4, 63, 95
4, 145800, Note_off_c, 4, 63, 80
4, 145800, Note_on_c, 4, 63, 95
4, 146400, Note_off_c, 4, 63, 80
4, 146400, Note_on_c, 4, 59, 95
4, 146640, Note_off_c, 4, 59, 80
4, 146640, Note_on_c, 4, 59, 95
4, 146760, Note_off_c, 4, 59, 80
4, 146760, Note_on_c, 4, 61, 95
4, 147360, Note_off_c, 4, 61, 80
4, 147360, Note_on_c, 4, 63, 95
4, 147480, Note_off_c, 4, 63, 80
4, 147480, Note_on_c, 4, 59, 95
4, 147600, Note_off_c, 4, 59, 80
4, 147600, Note_on_c, 4, 59, 95
4, 147720, Note_off_c, 4, 59, 80
4, 147720, Note_on_c, 4, 61, 95
4, 148320, Note_off_c, 4, 61, 80
4, 148920, Note_on_c, 4, 63, 95
4, 149040, Note_off_c, 4, 63, 80
4, 149040, Note_on_c, 4, 66, 95
4, 149160, Note_off_c, 4, 66, 80
4, 149160, Note_on_c, 4, 63, 95
4, 149280, Note_off_c, 4, 63, 80
4, 149280, Note_on_c, 4, 66, 95
4, 149520, Note_off_c, 4, 66, 80
4, 149520, Note_on_c, 4, 63, 95
4, 149640, Note_off_c, 4, 63, 80
4, 149640, Note_on_c, 4, 66, 95
4, 150600, Note_off_c, 4, 66, 80
4, 150600, Note_on_c, 4, 68, 95
4, 150720, Note_off_c, 4, 68, 80
4, 150720, Note_on_c, 4, 63, 95
4, 150840, Note_off_c, 4, 63, 80
4, 150840, Note_on_c, 4, 61, 95
4, 150960, Note_off_c, 4, 61, 80
4, 150960, Note_on_c, 4, 59, 95
4, 151560, Note_off_c, 4, 59, 80
4, 151560, Note_on_c, 4, 61, 95
4, 152160, Note_off_c, 4, 61, 80
4, 152880, Note_on_c, 4, 66, 95
4, 153000, Note_off_c, 4, 66, 80
4, 153000, Note_on_c, 4, 63, 95
4, 153120, Note_off_c, 4, 63, 80
4, 153120, Note_on_c, 4, 66, 95
4, 153360, Note_off_c, 4, 66, 80
4, 153360, Note_on_c, 4, 63, 95
4, 153480, Note_off_c, 4, 63, 80
4, 153480, Note_on_c, 4, 66, 95
4, 154440, Note_off_c, 4, 66, 80
4, 154440, Note_on_c, 4, 68, 95
4, 154560, Note_off_c, 4, 68, 80
4, 154560, Note_on_c, 4, 63, 95
4, 154680, Note_off_c, 4, 63, 80
4, 154680, Note_on_c, 4, 61, 95
4, 154800, Note_off_c, 4, 61, 80
4, 154800, Note_on_c, 4, 59, 95
4, 155400, Note_off_c, 4, 59, 80
4, 155400, Note_on_c, 4, 61, 95
4, 156000, Note_off_c, 4, 61, 80
4, 156720, Note_on_c, 4, 66, 95
4, 156840, Note_off_c, 4, 66, 80
4, 156840, Note_on_c, 4, 63, 95
4, 156960, Note_off_c, 4, 63, 80
4, 156960, Note_on_c, 4, 66, 95
4, 157200, Note_off_c, 4, 66, 80
4, 157200, Note_on_c, 4, 63, 95
4, 157320, Note_off_c, 4, 63, 80
4, 157320, Note_on_c, 4, 66, 95
4, 158280, Note_off_c, 4, 66, 80
4, 158280, Note_on_c, 4, 68, 95
4, 158400, Note_off_c, 4, 68, 80
4, 158400, Note_on_c, 4, 63, 95
4, 158520, Note_off_c, 4, 63, 80
4, 158520, Note_on_c, 4, 61, 95
4, 158640, Note_off_c, 4, 61, 80
4, 158640, Note_on_c, 4, 59, 95
4, 159240, Note_off_c, 4, 59, 80
4, 159240, Note_on_c, 4, 61, 95
4, 159840, Note_off_c, 4, 61, 80
4, 160560, Note_on_c, 4, 66, 95
4, 160680, Note_off_c, 4, 66, 80
4, 160680, Note_on_c, 4, 63, 95
4, 160800, Note_off_c, 4, 63, 80
4, 160800, Note_on_c, 4, 66, 95
4, 161040, Note_off_c, 4, 66, 80
4, 161040, Note_on_c, 4, 63, 95
4, 161160, Note_off_c, 4, 63, 80
4, 161160, Note_on_c, 4, 66, 95
4, 162120, Note_off_c, 4, 66, 80
4, 162120, Note_on_c, 4, 68, 95
4, 162240, Note_off_c, 4, 68, 80
4, 162240, Note_on_c, 4, 63, 95
4, 162360, Note_off_c, 4, 63, 80
4, 162360, Note_on_c, 4, 61, 95
4, 162480, Note_off_c, 4, 61, 80
4, 162480, Note_on_c, 4, 59, 95
4, 163080, Note_off_c, 4, 59, 80
4, 163080, Note_on_c, 4, 61, 95
4, 163680, Note_off_c, 4, 61, 80
4, 163680, End_track
5, 0, Start_track
5, 0, Title_t, "Bass"
5, 0, Control_c, 7, 100, 0
5, 0, Control_c, 7, 101, 0
5, 0, Control_c, 7, 6, 12
5, 0, Pitch_bend_c, 7, 8192
5, 0, Control_c, 7, 101, 0
5, 0, Control_c, 7, 100, 1
5, 0, Control_c, 7, 6, 64
5, 0, Control_c, 7, 38, 0
5, 0, Control_c, 7, 101, 127
5, 0, Control_c, 7, 100, 127
5, 0, Control_c, 6, 100, 0
5, 0, Control_c, 6, 101, 0
5, 0, Control_c, 6, 6, 12
5, 0, Pitch_bend_c, 6, 8192
5, 0, Control_c, 6, 101, 0
5, 0, Control_c, 6, 100, 1
5, 0, Control_c, 6, 6, 64
5, 0, Control_c, 6, 38, 0
5, 0, Control_c, 6, 101, 127
5, 0, Control_c, 6, 100, 127
5, 0, Control_c, 7, 101, 0
5, 0, Control_c, 7, 100, 2
5, 0, Control_c, 7, 6, 64
5, 0, Control_c, 7, 101, 127
5, 0, Control_c, 7, 100, 127
5, 0, Control_c, 6, 101, 0
5, 0, Control_c, 6, 100, 2
5, 0, Control_c, 6, 6, 64
5, 0, Control_c, 6, 101, 127
5, 0, Control_c, 6, 100, 127
5, 0, Program_c, 7, 33
5, 0, Program_c, 6, 33
5, 0, Control_c, 7, 0, 0
5, 0, Control_c, 6, 0, 0
5, 0, Control_c, 7, 7, 80
5, 0, Control_c, 6, 7, 80
5, 0, Control_c, 7, 10, 64
5, 0, Control_c, 6, 10, 64
5, 0, Control_c, 7, 93, 0
5, 0, Control_c, 6, 93, 0
5, 0, Control_c, 7, 91, 0
5, 0, Control_c, 6, 91, 0
5, 0, Control_c, 7, 92, 0
5, 0, Control_c, 6, 92, 0
5, 0, Control_c, 7, 95, 0
5, 0, Control_c, 6, 95, 0
5, 24960, Note_on_c, 6, 35, 95
5, 25920, Note_off_c, 6, 35, 80
5, 25920, Note_on_c, 6, 28, 95
5, 26880, Note_off_c, 6, 28, 80
5, 26880, Note_on_c, 6, 30, 95
5, 27840, Note_off_c, 6, 30, 80
5, 27840, Note_on_c, 6, 28, 95
5, 28800, Note_off_c, 6, 28, 80
5, 28800, Note_on_c, 6, 35, 95
5, 29760, Note_off_c, 6, 35, 80
5, 29760, Note_on_c, 6, 28, 95
5, 30720, Note_off_c, 6, 28, 80
5, 30720, Note_on_c, 6, 30, 95
5, 31680, Note_off_c, 6, 30, 80
5, 31680, Note_on_c, 6, 28, 95
5, 32640, Note_off_c, 6, 28, 80
5, 32640, Note_on_c, 6, 35, 95
5, 33600, Note_off_c, 6, 35, 80
5, 33600, Note_on_c, 6, 33, 95
5, 34560, Note_off_c, 6, 33, 80
5, 34560, Note_on_c, 6, 28, 95
5, 35520, Note_off_c, 6, 28, 80
5, 35520, Note_on_c, 6, 30, 95
5, 36480, Note_off_c, 6, 30, 80
5, 36480, Note_on_c, 6, 35, 95
5, 37440, Note_off_c, 6, 35, 80
5, 37440, Note_on_c, 6, 28, 95
5, 38400, Note_off_c, 6, 28, 80
5, 38400, Note_on_c, 6, 30, 95
5, 39360, Note_off_c, 6, 30, 80
5, 39360, Note_on_c, 6, 28, 95
5, 40320, Note_off_c, 6, 28, 80
5, 40320, Note_on_c, 6, 35, 95
5, 41280, Note_off_c, 6, 35, 80
5, 41280, Note_on_c, 6, 28, 95
5, 42240, Note_off_c, 6, 28, 80
5, 42240, Note_on_c, 6, 30, 95
5, 43200, Note_off_c, 6, 30, 80
5, 43200, Note_on_c, 6, 28, 95
5, 44160, Note_off_c, 6, 28, 80
5, 44160, Note_on_c, 6, 35, 95
5, 45120, Note_off_c, 6, 35, 80
5, 45120, Note_on_c, 6, 28, 95
5, 46080, Note_off_c, 6, 28, 80
5, 46080, Note_on_c, 6, 30, 95
5, 47040, Note_off_c, 6, 30, 80
5, 47040, Note_on_c, 6, 28, 95
5, 48000, Note_off_c, 6, 28, 80
5, 48000, Note_on_c, 6, 35, 95
5, 48960, Note_off_c, 6, 35, 80
5, 48960, Note_on_c, 6, 33, 95
5, 49920, Note_off_c, 6, 33, 80
5, 49920, Note_on_c, 6, 28, 95
5, 50880, Note_off_c, 6, 28, 80
5, 50880, Note_on_c, 6, 30, 95
5, 51840, Note_off_c, 6, 30, 80
5, 51840, Note_on_c, 6, 35, 95
5, 52800, Note_off_c, 6, 35, 80
5, 52800, Note_on_c, 6, 28, 95
5, 53760, Note_off_c, 6, 28, 80
5, 53760, Note_on_c, 6, 30, 95
5, 54720, Note_off_c, 6, 30, 80
5, 54720, Note_on_c, 6, 28, 95
5, 55680, Note_off_c, 6, 28, 80
5, 55680, Note_on_c, 6, 30, 95
5, 56640, Note_off_c, 6, 30, 80
5, 56640, Note_on_c, 6, 28, 95
5, 57600, Note_off_c, 6, 28, 80
5, 57600, Note_on_c, 6, 35, 95
5, 58080, Note_off_c, 6, 35, 80
5, 58080, Note_on_c, 6, 35, 95
5, 58560, Note_off_c, 6, 35, 80
5, 58560, Note_on_c, 6, 28, 95
5, 59040, Note_off_c, 6, 28, 80
5, 59040, Note_on_c, 6, 28, 95
5, 59520, Note_off_c, 6, 28, 80
5, 59520, Note_on_c, 6, 30, 95
5, 60000, Note_off_c, 6, 30, 80
5, 60000, Note_on_c, 6, 30, 95
5, 60480, Note_off_c, 6, 30, 80
5, 60480, Note_on_c, 6, 28, 95
5, 60960, Note_off_c, 6, 28, 80
5, 60960, Note_on_c, 6, 28, 95
5, 61440, Note_off_c, 6, 28, 80
5, 61440, Note_on_c, 6, 35, 95
5, 61920, Note_off_c, 6, 35, 80
5, 61920, Note_on_c, 6, 35, 95
5, 62400, Note_off_c, 6, 35, 80
5, 62400, Note_on_c, 6, 28, 95
5, 62880, Note_off_c, 6, 28, 80
5, 62880, Note_on_c, 6, 28, 95
5, 63360, Note_off_c, 6, 28, 80
5, 63360, Note_on_c, 6, 30, 95
5, 63840, Note_off_c, 6, 30, 80
5, 63840, Note_on_c, 6, 30, 95
5, 64320, Note_off_c, 6, 30, 80
5, 64320, Note_on_c, 6, 28, 95
5, 64800, Note_off_c, 6, 28, 80
5, 64800, Note_on_c, 6, 28, 95
5, 65280, Note_off_c, 6, 28, 80
5, 65280, Note_on_c, 6, 35, 95
5, 65760, Note_off_c, 6, 35, 80
5, 65760, Note_on_c, 6, 35, 95
5, 66240, Note_off_c, 6, 35, 80
5, 66240, Note_on_c, 6, 33, 95
5, 66720, Note_off_c, 6, 33, 80
5, 66720, Note_on_c, 6, 33, 95
5, 67200, Note_off_c, 6, 33, 80
5, 67200, Note_on_c, 6, 28, 95
5, 67680, Note_off_c, 6, 28, 80
5, 67680, Note_on_c, 6, 28, 95
5, 68160, Note_off_c, 6, 28, 80
5, 68160, Note_on_c, 6, 30, 95
5, 68640, Note_off_c, 6, 30, 80
5, 68640, Note_on_c, 6, 30, 95
5, 69120, Note_off_c, 6, 30, 80
5, 69120, Note_on_c, 6, 35, 95
5, 69600, Note_off_c, 6, 35, 80
5, 69600, Note_on_c, 6, 35, 95
5, 70080, Note_off_c, 6, 35, 80
5, 70080, Note_on_c, 6, 28, 95
5, 70560, Note_off_c, 6, 28, 80
5, 70560, Note_on_c, 6, 28, 95
5, 71040, Note_off_c, 6, 28, 80
5, 71040, Note_on_c, 6, 30, 95
5, 71520, Note_off_c, 6, 30, 80
5, 71520, Note_on_c, 6, 30, 95
5, 72000, Note_off_c, 6, 30, 80
5, 72000, Note_on_c, 6, 28, 95
5, 72480, Note_off_c, 6, 28, 80
5, 72480, Note_on_c, 6, 28, 95
5, 72960, Note_off_c, 6, 28, 80
5, 72960, Note_on_c, 6, 35, 95
5, 73440, Note_off_c, 6, 35, 80
5, 73440, Note_on_c, 6, 35, 95
5, 73920, Note_off_c, 6, 35, 80
5, 73920, Note_on_c, 6, 28, 95
5, 74400, Note_off_c, 6, 28, 80
5, 74400, Note_on_c, 6, 28, 95
5, 74880, Note_off_c, 6, 28, 80
5, 74880, Note_on_c, 6, 30, 95
5, 75360, Note_off_c, 6, 30, 80
5, 75360, Note_on_c, 6, 30, 95
5, 75840, Note_off_c, 6, 30, 80
5, 75840, Note_on_c, 6, 28, 95
5, 76320, Note_off_c, 6, 28, 80
5, 76320, Note_on_c, 6, 28, 95
5, 76800, Note_off_c, 6, 28, 80
5, 76800, Note_on_c, 6, 35, 95
5, 77280, Note_off_c, 6, 35, 80
5, 77280, Note_on_c, 6, 35, 95
5, 77760, Note_off_c, 6, 35, 80
5, 77760, Note_on_c, 6, 28, 95
5, 78240, Note_off_c, 6, 28, 80
5, 78240, Note_on_c, 6, 28, 95
5, 78720, Note_off_c, 6, 28, 80
5, 78720, Note_on_c, 6, 30, 95
5, 80640, Note_off_c, 6, 30, 80
5, 80640, Note_on_c, 6, 35, 95
5, 81120, Note_off_c, 6, 35, 80
5, 81120, Note_on_c, 6, 35, 95
5, 81600, Note_off_c, 6, 35, 80
5, 81600, Note_on_c, 6, 35, 95
5, 82080, Note_off_c, 6, 35, 80
5, 82080, Note_on_c, 6, 35, 95
5, 82560, Note_off_c, 6, 35, 80
5, 82560, Note_on_c, 6, 35, 95
5, 83040, Note_off_c, 6, 35, 80
5, 83040, Note_on_c, 6, 35, 95
5, 83520, Note_off_c, 6, 35, 80
5, 83520, Note_on_c, 6, 35, 95
5, 84000, Note_off_c, 6, 35, 80
5, 84000, Note_on_c, 6, 35, 95
5, 84480, Note_off_c, 6, 35, 80
5, 84480, Note_on_c, 6, 35, 95
5, 85440, Note_off_c, 6, 35, 80
5, 85440, Note_on_c, 6, 28, 95
5, 86400, Note_off_c, 6, 28, 80
5, 86400, Note_on_c, 6, 30, 95
5, 87360, Note_off_c, 6, 30, 80
5, 87360, Note_on_c, 6, 28, 95
5, 88320, Note_off_c, 6, 28, 80
5, 88320, Note_on_c, 6, 35, 95
5, 89280, Note_off_c, 6, 35, 80
5, 89280, Note_on_c, 6, 28, 95
5, 90240, Note_off_c, 6, 28, 80
5, 90240, Note_on_c, 6, 30, 95
5, 91200, Note_off_c, 6, 30, 80
5, 91200, Note_on_c, 6, 28, 95
5, 92160, Note_off_c, 6, 28, 80
5, 92160, Note_on_c, 6, 35, 95
5, 93120, Note_off_c, 6, 35, 80
5, 93120, Note_on_c, 6, 33, 95
5, 94080, Note_off_c, 6, 33, 80
5, 94080, Note_on_c, 6, 28, 95
5, 95040, Note_off_c, 6, 28, 80
5, 95040, Note_on_c, 6, 30, 95
5, 96000, Note_off_c, 6, 30, 80
5, 96000, Note_on_c, 6, 35, 95
5, 96960, Note_off_c, 6, 35, 80
5, 96960, Note_on_c, 6, 28, 95
5, 97920, Note_off_c, 6, 28, 80
5, 97920, Note_on_c, 6, 30, 95
5, 98880, Note_off_c, 6, 30, 80
5, 98880, Note_on_c, 6, 28, 95
5, 99840, Note_off_c, 6, 28, 80
5, 99840, Note_on_c, 6, 30, 95
5, 100800, Note_off_c, 6, 30, 80
5, 100800, Note_on_c, 6, 28, 95
5, 101760, Note_off_c, 6, 28, 80
5, 101760, Note_on_c, 6, 35, 95
5, 102240, Note_off_c, 6, 35, 80
5, 102240, Note_on_c, 6, 35, 95
5, 102720, Note_off_c, 6, 35, 80
5, 102720, Note_on_c, 6, 28, 95
5, 103200, Note_off_c, 6, 28, 80
5, 103200, Note_on_c, 6, 28, 95
5, 103680, Note_off_c, 6, 28, 80
5, 103680, Note_on_c, 6, 30, 95
5, 104160, Note_off_c, 6, 30, 80
5, 104160, Note_on_c, 6, 30, 95
5, 104640, Note_off_c, 6, 30, 80
5, 104640, Note_on_c, 6, 28, 95
5, 105120, Note_off_c, 6, 28, 80
5, 105120, Note_on_c, 6, 28, 95
5, 105600, Note_off_c, 6, 28, 80
5, 105600, Note_on_c, 6, 35, 95
5, 106080, Note_off_c, 6, 35, 80
5, 106080, Note_on_c, 6, 35, 95
5, 106560, Note_off_c, 6, 35, 80
5, 106560, Note_on_c, 6, 28, 95
5, 107040, Note_off_c, 6, 28, 80
5, 107040, Note_on_c, 6, 28, 95
5, 107520, Note_off_c, 6, 28, 80
5, 107520, Note_on_c, 6, 30, 95
5, 108000, Note_off_c, 6, 30, 80
5, 108000, Note_on_c, 6, 30, 95
5, 108480, Note_off_c, 6, 30, 80
5, 108480, Note_on_c, 6, 28, 95
5, 108960, Note_off_c, 6, 28, 80
5, 108960, Note_on_c, 6, 28, 95
5, 109440, Note_off_c, 6, 28, 80
5, 109440, Note_on_c, 6, 35, 95
5, 109920, Note_off_c, 6, 35, 80
5, 109920, Note_on_c, 6, 35, 95
5, 110400, Note_off_c, 6, 35, 80
5, 110400, Note_on_c, 6, 33, 95
5, 110880, Note_off_c, 6, 33, 80
5, 110880, Note_on_c, 6, 33, 95
5, 111360, Note_off_c, 6, 33, 80
5, 111360, Note_on_c, 6, 28, 95
5, 111840, Note_off_c, 6, 28, 80
5, 111840, Note_on_c, 6, 28, 95
5, 112320, Note_off_c, 6, 28, 80
5, 112320, Note_on_c, 6, 30, 95
5, 112800, Note_off_c, 6, 30, 80
5, 112800, Note_on_c, 6, 30, 95
5, 113280, Note_off_c, 6, 30, 80
5, 113280, Note_on_c, 6, 35, 95
5, 113760, Note_off_c, 6, 35, 80
5, 113760, Note_on_c, 6, 35, 95
5, 114240, Note_off_c, 6, 35, 80
5, 114240, Note_on_c, 6, 28, 95
5, 114720, Note_off_c, 6, 28, 80
5, 114720, Note_on_c, 6, 28, 95
5, 115200, Note_off_c, 6, 28, 80
5, 115200, Note_on_c, 6, 30, 95
5, 115680, Note_off_c, 6, 30, 80
5, 115680, Note_on_c, 6, 30, 95
5, 116160, Note_off_c, 6, 30, 80
5, 116160, Note_on_c, 6, 28, 95
5, 116640, Note_off_c, 6, 28, 80
5, 116640, Note_on_c, 6, 28, 95
5, 117120, Note_off_c, 6, 28, 80
5, 117120, Note_on_c, 6, 35, 95
5, 117600, Note_off_c, 6, 35, 80
5, 117600, Note_on_c, 6, 35, 95
5, 118080, Note_off_c, 6, 35, 80
5, 118080, Note_on_c, 6, 28, 95
5, 118560, Note_off_c, 6, 28, 80
5, 118560, Note_on_c, 6, 28, 95
5, 119040, Note_off_c, 6, 28, 80
5, 119040, Note_on_c, 6, 30, 95
5, 119520, Note_off_c, 6, 30, 80
5, 119520, Note_on_c, 6, 30, 95
5, 120000, Note_off_c, 6, 30, 80
5, 120000, Note_on_c, 6, 28, 95
5, 120480, Note_off_c, 6, 28, 80
5, 120480, Note_on_c, 6, 28, 95
5, 120960, Note_off_c, 6, 28, 80
5, 120960, Note_on_c, 6, 35, 95
5, 121440, Note_off_c, 6, 35, 80
5, 121440, Note_on_c, 6, 35, 95
5, 121920, Note_off_c, 6, 35, 80
5, 121920, Note_on_c, 6, 28, 95
5, 122400, Note_off_c, 6, 28, 80
5, 122400, Note_on_c, 6, 28, 95
5, 122880, Note_off_c, 6, 28, 80
5, 122880, Note_on_c, 6, 30, 95
5, 123360, Note_off_c, 6, 30, 80
5, 123360, Note_on_c, 6, 30, 95
5, 123840, Note_off_c, 6, 30, 80
5, 123840, Note_on_c, 6, 28, 95
5, 124320, Note_off_c, 6, 28, 80
5, 124320, Note_on_c, 6, 28, 95
5, 124800, Note_off_c, 6, 28, 80
5, 124800, Note_on_c, 6, 35, 95
5, 125280, Note_off_c, 6, 35, 80
5, 125280, Note_on_c, 6, 35, 95
5, 125760, Note_off_c, 6, 35, 80
5, 125760, Note_on_c, 6, 33, 95
5, 126240, Note_off_c, 6, 33, 80
5, 126240, Note_on_c, 6, 33, 95
5, 126720, Note_off_c, 6, 33, 80
5, 126720, Note_on_c, 6, 28, 95
5, 127200, Note_off_c, 6, 28, 80
5, 127200, Note_on_c, 6, 28, 95
5, 127680, Note_off_c, 6, 28, 80
5, 127680, Note_on_c, 6, 30, 95
5, 128160, Note_off_c, 6, 30, 80
5, 128160, Note_on_c, 6, 30, 95
5, 128640, Note_off_c, 6, 30, 80
5, 128640, Note_on_c, 6, 35, 95
5, 129120, Note_off_c, 6, 35, 80
5, 129120, Note_on_c, 6, 35, 95
5, 129600, Note_off_c, 6, 35, 80
5, 129600, Note_on_c, 6, 28, 95
5, 130080, Note_off_c, 6, 28, 80
5, 130080, Note_on_c, 6, 28, 95
5, 130560, Note_off_c, 6, 28, 80
5, 130560, Note_on_c, 6, 30, 95
5, 131040, Note_off_c, 6, 30, 80
5, 131040, Note_on_c, 6, 30, 95
5, 131520, Note_off_c, 6, 30, 80
5, 131520, Note_on_c, 6, 28, 95
5, 132000, Note_off_c, 6, 28, 80
5, 132000, Note_on_c, 6, 28, 95
5, 132480, Note_off_c, 6, 28, 80
5, 132480, Note_on_c, 6, 30, 95
5, 132960, Note_off_c, 6, 30, 80
5, 132960, Note_on_c, 6, 30, 95
5, 133440, Note_off_c, 6, 30, 80
5, 133440, Note_on_c, 6, 28, 95
5, 133920, Note_off_c, 6, 28, 80
5, 133920, Note_on_c, 6, 28, 95
5, 134400, Note_off_c, 6, 28, 80
5, 134400, Note_on_c, 6, 35, 95
5, 134880, Note_off_c, 6, 35, 80
5, 134880, Note_on_c, 6, 35, 95
5, 135360, Note_off_c, 6, 35, 80
5, 135360, Note_on_c, 6, 28, 95
5, 135840, Note_off_c, 6, 28, 80
5, 135840, Note_on_c, 6, 28, 95
5, 136320, Note_off_c, 6, 28, 80
5, 136320, Note_on_c, 6, 30, 95
5, 136800, Note_off_c, 6, 30, 80
5, 136800, Note_on_c, 6, 30, 95
5, 137280, Note_off_c, 6, 30, 80
5, 137280, Note_on_c, 6, 28, 95
5, 137760, Note_off_c, 6, 28, 80
5, 137760, Note_on_c, 6, 28, 95
5, 138240, Note_off_c, 6, 28, 80
5, 138240, Note_on_c, 6, 35, 95
5, 138720, Note_off_c, 6, 35, 80
5, 138720, Note_on_c, 6, 35, 95
5, 139200, Note_off_c, 6, 35, 80
5, 139200, Note_on_c, 6, 28, 95
5, 139680, Note_off_c, 6, 28, 80
5, 139680, Note_on_c, 6, 28, 95
5, 140160, Note_off_c, 6, 28, 80
5, 140160, Note_on_c, 6, 30, 95
5, 140640, Note_off_c, 6, 30, 80
5, 140640, Note_on_c, 6, 30, 95
5, 141120, Note_off_c, 6, 30, 80
5, 141120, Note_on_c, 6, 28, 95
5, 141600, Note_off_c, 6, 28, 80
5, 141600, Note_on_c, 6, 28, 95
5, 142080, Note_off_c, 6, 28, 80
5, 142080, Note_on_c, 6, 35, 95
5, 142560, Note_off_c, 6, 35, 80
5, 142560, Note_on_c, 6, 35, 95
5, 143040, Note_off_c, 6, 35, 80
5, 143040, Note_on_c, 6, 33, 95
5, 143520, Note_off_c, 6, 33, 80
5, 143520, Note_on_c, 6, 33, 95
5, 144000, Note_off_c, 6, 33, 80
5, 144000, Note_on_c, 6, 28, 95
5, 144480, Note_off_c, 6, 28, 80
5, 144480, Note_on_c, 6, 28, 95
5, 144960, Note_off_c, 6, 28, 80
5, 144960, Note_on_c, 6, 30, 95
5, 145440, Note_off_c, 6, 30, 80
5, 145440, Note_on_c, 6, 30, 95
5, 145920, Note_off_c, 6, 30, 80
5, 145920, Note_on_c, 6, 35, 95
5, 146400, Note_off_c, 6, 35, 80
5, 146400, Note_on_c, 6, 35, 95
5, 146880, Note_off_c, 6, 35, 80
5, 146880, Note_on_c, 6, 28, 95
5, 147360, Note_off_c, 6, 28, 80
5, 147360, Note_on_c, 6, 28, 95
5, 147840, Note_off_c, 6, 28, 80
5, 147840, Note_on_c, 6, 30, 95
5, 148320, Note_off_c, 6, 30, 80
5, 148320, Note_on_c, 6, 30, 95
5, 148800, Note_off_c, 6, 30, 80
5, 148800, Note_on_c, 6, 28, 95
5, 149280, Note_off_c, 6, 28, 80
5, 149280, Note_on_c, 6, 28, 95
5, 149760, Note_off_c, 6, 28, 80
5, 149760, Note_on_c, 6, 35, 95
5, 150240, Note_off_c, 6, 35, 80
5, 150240, Note_on_c, 6, 35, 95
5, 150720, Note_off_c, 6, 35, 80
5, 150720, Note_on_c, 6, 28, 95
5, 151200, Note_off_c, 6, 28, 80
5, 151200, Note_on_c, 6, 28, 95
5, 151680, Note_off_c, 6, 28, 80
5, 151680, Note_on_c, 6, 30, 95
5, 152160, Note_off_c, 6, 30, 80
5, 152160, Note_on_c, 6, 30, 95
5, 152640, Note_off_c, 6, 30, 80
5, 152640, Note_on_c, 6, 28, 95
5, 153120, Note_off_c, 6, 28, 80
5, 153120, Note_on_c, 6, 28, 95
5, 153600, Note_off_c, 6, 28, 80
5, 153600, Note_on_c, 6, 35, 95
5, 154080, Note_off_c, 6, 35, 80
5, 154080, Note_on_c, 6, 35, 95
5, 154560, Note_off_c, 6, 35, 80
5, 154560, Note_on_c, 6, 28, 95
5, 155040, Note_off_c, 6, 28, 80
5, 155040, Note_on_c, 6, 28, 95
5, 155520, Note_off_c, 6, 28, 80
5, 155520, Note_on_c, 6, 30, 95
5, 156000, Note_off_c, 6, 30, 80
5, 156000, Note_on_c, 6, 30, 95
5, 156480, Note_off_c, 6, 30, 80
5, 156480, Note_on_c, 6, 28, 95
5, 156960, Note_off_c, 6, 28, 80
5, 156960, Note_on_c, 6, 28, 95
5, 157440, Note_off_c, 6, 28, 80
5, 157440, Note_on_c, 6, 35, 95
5, 157920, Note_off_c, 6, 35, 80
5, 157920, Note_on_c, 6, 35, 95
5, 158400, Note_off_c, 6, 35, 80
5, 158400, Note_on_c, 6, 28, 95
5, 158880, Note_off_c, 6, 28, 80
5, 158880, Note_on_c, 6, 28, 95
5, 159360, Note_off_c, 6, 28, 80
5, 159360, Note_on_c, 6, 30, 95
5, 159840, Note_off_c, 6, 30, 80
5, 159840, Note_on_c, 6, 30, 95
5, 160320, Note_off_c, 6, 30, 80
5, 160320, Note_on_c, 6, 28, 95
5, 160800, Note_off_c, 6, 28, 80
5, 160800, Note_on_c, 6, 28, 95
5, 161280, Note_off_c, 6, 28, 80
5, 161280, Note_on_c, 6, 35, 95
5, 161760, Note_off_c, 6, 35, 80
5, 161760, Note_on_c, 6, 35, 95
5, 162240, Note_off_c, 6, 35, 80
5, 162240, Note_on_c, 6, 28, 95
5, 162720, Note_off_c, 6, 28, 80
5, 162720, Note_on_c, 6, 28, 95
5, 163200, Note_off_c, 6, 28, 80
5, 163200, Note_on_c, 6, 30, 95
5, 163680, Note_off_c, 6, 30, 80
5, 163680, Note_on_c, 6, 30, 95
5, 164160, Note_off_c, 6, 30, 80
5, 164160, Note_on_c, 6, 28, 95
5, 164640, Note_off_c, 6, 28, 80
5, 164640, Note_on_c, 6, 28, 95
5, 165120, Note_off_c, 6, 28, 80
5, 165120, End_track
6, 0, Start_track
6, 0, Title_t, "Acoustic Guitar"
6, 0, Control_c, 11, 100, 0
6, 0, Control_c, 11, 101, 0
6, 0, Control_c, 11, 6, 12
6, 0, Pitch_bend_c, 11, 8192
6, 0, Control_c, 11, 101, 0
6, 0, Control_c, 11, 100, 1
6, 0, Control_c, 11, 6, 64
6, 0, Control_c, 11, 38, 0
6, 0, Control_c, 11, 101, 127
6, 0, Control_c, 11, 100, 127
6, 0, Control_c, 10, 100, 0
6, 0, Control_c, 10, 101, 0
6, 0, Control_c, 10, 6, 12
6, 0, Pitch_bend_c, 10, 8192
6, 0, Control_c, 10, 101, 0
6, 0, Control_c, 10, 100, 1
6, 0, Control_c, 10, 6, 64
6, 0, Control_c, 10, 38, 0
6, 0, Control_c, 10, 101, 127
6, 0, Control_c, 10, 100, 127
6, 0, Control_c, 11, 101, 0
6, 0, Control_c, 11, 100, 2
6, 0, Control_c, 11, 6, 64
6, 0, Control_c, 11, 101, 127
6, 0, Control_c, 11, 100, 127
6, 0, Control_c, 10, 101, 0
6, 0, Control_c, 10, 100, 2
6, 0, Control_c, 10, 6, 64
6, 0, Control_c, 10, 101, 127
6, 0, Control_c, 10, 100, 127
6, 0, Program_c, 11, 25
6, 0, Program_c, 10, 25
6, 0, Control_c, 11, 0, 0
6, 0, Control_c, 10, 0, 0
6, 0, Control_c, 11, 7, 104
6, 0, Control_c, 10, 7, 104
6, 0, Control_c, 11, 10, 127
6, 0, Control_c, 10, 10, 127
6, 0, Control_c, 11, 93, 0
6, 0, Control_c, 10, 93, 0
6, 0, Control_c, 11, 91, 0
6, 0, Control_c, 10, 91, 0
6, 0, Control_c, 11, 92, 0
6, 0, Control_c, 10, 92, 0
6, 0, Control_c, 11, 95, 0
6, 0, Control_c, 10, 95, 0
6, 16800, Note_on_c, 10, 66, 95
6, 16800, Note_on_c, 10, 61, 95
6, 16800, Note_on_c, 10, 58, 95
6, 16800, Note_on_c, 10, 54, 95
6, 16920, Note_off_c, 10, 66, 80
6, 16920, Note_off_c, 10, 61, 80
6, 16920, Note_off_c, 10, 58, 80
6, 16920, Note_off_c, 10, 54, 80
6, 16920, Note_on_c, 10, 66, 95
6, 16920, Note_on_c, 10, 61, 95
6, 16920, Note_on_c, 10, 58, 95
6, 16920, Note_on_c, 10, 54, 95
6, 17040, Note_off_c, 10, 66, 80
6, 17040, Note_off_c, 10, 61, 80
6, 17040, Note_off_c, 10, 58, 80
6, 17040, Note_off_c, 10, 54, 80
6, 17040, Note_on_c, 10, 66, 95
6, 17040, Note_on_c, 10, 61, 95
6, 17040, Note_on_c, 10, 58, 95
6, 17040, Note_on_c, 10, 54, 95
6, 17160, Note_off_c, 10, 66, 80
6, 17160, Note_off_c, 10, 61, 80
6, 17160, Note_off_c, 10, 58, 80
6, 17160, Note_off_c, 10, 54, 80
6, 17160, Note_on_c, 10, 66, 95
6, 17160, Note_on_c, 10, 61, 95
6, 17160, Note_on_c, 10, 58, 95
6, 17160, Note_on_c, 10, 54, 95
6, 17280, Note_off_c, 10, 66, 80
6, 17280, Note_off_c, 10, 61, 80
6, 17280, Note_off_c, 10, 58, 80
6, 17280, Note_off_c, 10, 54, 80
6, 17280, Note_on_c, 10, 71, 95
6, 17280, Note_on_c, 10, 66, 95
6, 17280, Note_on_c, 10, 63, 95
6, 17280, Note_on_c, 10, 59, 95
6, 17280, Note_on_c, 10, 54, 95
6, 17280, Note_on_c, 10, 47, 95
6, 17760, Note_off_c, 10, 71, 80
6, 17760, Note_off_c, 10, 66, 80
6, 17760, Note_off_c, 10, 63, 80
6, 17760, Note_off_c, 10, 59, 80
6, 17760, Note_off_c, 10, 54, 80
6, 17760, Note_off_c, 10, 47, 80
6, 17760, Note_on_c, 10, 71, 95
6, 17760, Note_on_c, 10, 66, 95
6, 17760, Note_on_c, 10, 63, 95
6, 17760, Note_on_c, 10, 59, 95
6, 17760, Note_on_c, 10, 54, 95
6, 17760, Note_on_c, 10, 47, 95
6, 18000, Note_off_c, 10, 71, 80
6, 18000, Note_off_c, 10, 66, 80
6, 18000, Note_off_c, 10, 63, 80
6, 18000, Note_off_c, 10, 59, 80
6, 18000, Note_off_c, 10, 54, 80
6, 18000, Note_off_c, 10, 47, 80
6, 18000, Note_on_c, 10, 71, 95
6, 18000, Note_on_c, 10, 66, 95
6, 18000, Note_on_c, 10, 63, 95
6, 18000, Note_on_c, 10, 59, 95
6, 18000, Note_on_c, 10, 54, 95
6, 18000, Note_on_c, 10, 47, 95
6, 18120, Note_off_c, 10, 71, 80
6, 18120, Note_off_c, 10, 66, 80
6, 18120, Note_off_c, 10, 63, 80
6, 18120, Note_off_c, 10, 59, 80
6, 18120, Note_off_c, 10, 54, 80
6, 18120, Note_off_c, 10, 47, 80
6, 18120, Note_on_c, 10, 71, 95
6, 18120, Note_on_c, 10, 66, 95
6, 18120, Note_on_c, 10, 63, 95
6, 18120, Note_on_c, 10, 59, 95
6, 18120, Note_on_c, 10, 54, 95
6, 18120, Note_on_c, 10, 47, 95
6, 18240, Note_off_c, 10, 71, 80
6, 18240, Note_off_c, 10, 66, 80
6, 18240, Note_off_c, 10, 63, 80
6, 18240, Note_off_c, 10, 59, 80
6, 18240, Note_off_c, 10, 54, 80
6, 18240, Note_off_c, 10, 47, 80
6, 18240, Note_on_c, 10, 64, 95
6, 18240, Note_on_c, 10, 59, 95
6, 18240, Note_on_c, 10, 56, 95
6, 18240, Note_on_c, 10, 52, 95
6, 18240, Note_on_c, 10, 47, 95
6, 18240, Note_on_c, 10, 40, 95
6, 18360, Note_off_c, 10, 64, 80
6, 18360, Note_off_c, 10, 59, 80
6, 18360, Note_off_c, 10, 56, 80
6, 18360, Note_off_c, 10, 52, 80
6, 18360, Note_off_c, 10, 47, 80
6, 18360, Note_off_c, 10, 40, 80
6, 18360, Note_on_c, 10, 64, 95
6, 18360, Note_on_c, 10, 59, 95
6, 18360, Note_on_c, 10, 56, 95
6, 18360, Note_on_c, 10, 52, 95
6, 18360, Note_on_c, 10, 47, 95
6, 18360, Note_on_c, 10, 40, 95
6, 18480, Note_off_c, 10, 64, 80
6, 18480, Note_off_c, 10, 59, 80
6, 18480, Note_off_c, 10, 56, 80
6, 18480, Note_off_c, 10, 52, 80
6, 18480, Note_off_c, 10, 47, 80
6, 18480, Note_off_c, 10, 40, 80
6, 18480, Note_on_c, 10, 64, 95
6, 18480, Note_on_c, 10, 59, 95
6, 18480, Note_on_c, 10, 56, 95
6, 18480, Note_on_c, 10, 52, 95
6, 18480, Note_on_c, 10, 47, 95
6, 18480, Note_on_c, 10, 40, 95
6, 18720, Note_off_c, 10, 64, 80
6, 18720, Note_off_c, 10, 59, 80
6, 18720, Note_off_c, 10, 56, 80
6, 18720, Note_off_c, 10, 52, 80
6, 18720, Note_off_c, 10, 47, 80
6, 18720, Note_off_c, 10, 40, 80
6, 18720, Note_on_c, 10, 64, 95
6, 18720, Note_on_c, 10, 59, 95
6, 18720, Note_on_c, 10, 56, 95
6, 18720, Note_on_c, 10, 52, 95
6, 18720, Note_on_c, 10, 47, 95
6, 18720, Note_on_c, 10, 40, 95
6, 19080, Note_off_c, 10, 64, 80
6, 19080, Note_off_c, 10, 59, 80
6, 19080, Note_off_c, 10, 56, 80
6, 19080, Note_off_c, 10, 52, 80
6, 19080, Note_off_c, 10, 47, 80
6, 19080, Note_off_c, 10, 40, 80
6, 19080, Note_on_c, 10, 64, 95
6, 19080, Note_on_c, 10, 59, 95
6, 19080, Note_on_c, 10, 56, 95
6, 19080, Note_on_c, 10, 52, 95
6, 19080, Note_on_c, 10, 47, 95
6, 19080, Note_on_c, 10, 40, 95
6, 19200, Note_off_c, 10, 64, 80
6, 19200, Note_off_c, 10, 59, 80
6, 19200, Note_off_c, 10, 56, 80
6, 19200, Note_off_c, 10, 52, 80
6, 19200, Note_off_c, 10, 47, 80
6, 19200, Note_off_c, 10, 40, 80
6, 19200, Note_on_c, 10, 66, 95
6, 19200, Note_on_c, 10, 61, 95
6, 19200, Note_on_c, 10, 58, 95
6, 19200, Note_on_c, 10, 54, 95
6, 19200, Note_on_c, 10, 49, 95
6, 19200, Note_on_c, 10, 42, 95
6, 19320, Note_off_c, 10, 66, 80
6, 19320, Note_off_c, 10, 61, 80
6, 19320, Note_off_c, 10, 58, 80
6, 19320, Note_off_c, 10, 54, 80
6, 19320, Note_off_c, 10, 49, 80
6, 19320, Note_off_c, 10, 42, 80
6, 19320, Note_on_c, 10, 66, 95
6, 19320, Note_on_c, 10, 61, 95
6, 19320, Note_on_c, 10, 58, 95
6, 19320, Note_on_c, 10, 54, 95
6, 19320, Note_on_c, 10, 49, 95
6, 19320, Note_on_c, 10, 42, 95
6, 19440, Note_off_c, 10, 66, 80
6, 19440, Note_off_c, 10, 61, 80
6, 19440, Note_off_c, 10, 58, 80
6, 19440, Note_off_c, 10, 54, 80
6, 19440, Note_off_c, 10, 49, 80
6, 19440, Note_off_c, 10, 42, 80
6, 19440, Note_on_c, 10, 66, 95
6, 19440, Note_on_c, 10, 61, 95
6, 19440, Note_on_c, 10, 58, 95
6, 19440, Note_on_c, 10, 54, 95
6, 19440, Note_on_c, 10, 49, 95
6, 19440, Note_on_c, 10, 42, 95
6, 19680, Note_off_c, 10, 66, 80
6, 19680, Note_off_c, 10, 61, 80
6, 19680, Note_off_c, 10, 58, 80
6, 19680, Note_off_c, 10, 54, 80
6, 19680, Note_off_c, 10, 49, 80
6, 19680, Note_off_c, 10, 42, 80
6, 19680, Note_on_c, 10, 66, 95
6, 19680, Note_on_c, 10, 61, 95
6, 19680, Note_on_c, 10, 58, 95
6, 19680, Note_on_c, 10, 54, 95
6, 19680, Note_on_c, 10, 49, 95
6, 19680, Note_on_c, 10, 42, 95
6, 20040, Note_off_c, 10, 66, 80
6, 20040, Note_off_c, 10, 61, 80
6, 20040, Note_off_c, 10, 58, 80
6, 20040, Note_off_c, 10, 54, 80
6, 20040, Note_off_c, 10, 49, 80
6, 20040, Note_off_c, 10, 42, 80
6, 20040, Note_on_c, 10, 66, 95
6, 20040, Note_on_c, 10, 61, 95
6, 20040, Note_on_c, 10, 58, 95
6, 20040, Note_on_c, 10, 54, 95
6, 20040, Note_on_c, 10, 49, 95
6, 20040, Note_on_c, 10, 42, 95
6, 20160, Note_off_c, 10, 66, 80
6, 20160, Note_off_c, 10, 61, 80
6, 20160, Note_off_c, 10, 58, 80
6, 20160, Note_off_c, 10, 54, 80
6, 20160, Note_off_c, 10, 49, 80
6, 20160, Note_off_c, 10, 42, 80
6, 20160, Note_on_c, 10, 64, 95
6, 20160, Note_on_c, 10, 59, 95
6, 20160, Note_on_c, 10, 56, 95
6, 20160, Note_on_c, 10, 52, 95
6, 20160, Note_on_c, 10, 47, 95
6, 20160, Note_on_c, 10, 40, 95
6, 20280, Note_off_c, 10, 64, 80
6, 20280, Note_off_c, 10, 59, 80
6, 20280, Note_off_c, 10, 56, 80
6, 20280, Note_off_c, 10, 52, 80
6, 20280, Note_off_c, 10, 47, 80
6, 20280, Note_off_c, 10, 40, 80
6, 20280, Note_on_c, 10, 64, 95
6, 20280, Note_on_c, 10, 59, 95
6, 20280, Note_on_c, 10, 56, 95
6, 20280, Note_on_c, 10, 52, 95
6, 20280, Note_on_c, 10, 47, 95
6, 20280, Note_on_c, 10, 40, 95
6, 20400, Note_off_c, 10, 64, 80
6, 20400, Note_off_c, 10, 59, 80
6, 20400, Note_off_c, 10, 56, 80
6, 20400, Note_off_c, 10, 52, 80
6, 20400, Note_off_c, 10, 47, 80
6, 20400, Note_off_c, 10, 40, 80
6, 20400, Note_on_c, 10, 64, 95
6, 20400, Note_on_c, 10, 59, 95
6, 20400, Note_on_c, 10, 56, 95
6, 20400, Note_on_c, 10, 52, 95
6, 20400, Note_on_c, 10, 47, 95
6, 20400, Note_on_c, 10, 40, 95
6, 20640, Note_off_c, 10, 64, 80
6, 20640, Note_off_c, 10, 59, 80
6, 20640, Note_off_c, 10, 56, 80
6, 20640, Note_off_c, 10, 52, 80
6, 20640, Note_off_c, 10, 47, 80
6, 20640, Note_off_c, 10, 40, 80
6, 20640, Note_on_c, 10, 64, 95
6, 20640, Note_on_c, 10, 59, 95
6, 20640, Note_on_c, 10, 56, 95
6, 20640, Note_on_c, 10, 52, 95
6, 20640, Note_on_c, 10, 47, 95
6, 20640, Note_on_c, 10, 40, 95
6, 20880, Note_off_c, 10, 64, 80
6, 20880, Note_off_c, 10, 59, 80
6, 20880, Note_off_c, 10, 56, 80
6, 20880, Note_off_c, 10, 52, 80
6, 20880, Note_off_c, 10, 47, 80
6, 20880, Note_off_c, 10, 40, 80
6, 20880, Note_on_c, 10, 64, 95
6, 20880, Note_on_c, 10, 59, 95
6, 20880, Note_on_c, 10, 56, 95
6, 20880, Note_on_c, 10, 52, 95
6, 20880, Note_on_c, 10, 47, 95
6, 20880, Note_on_c, 10, 40, 95
6, 21000, Note_off_c, 10, 64, 80
6, 21000, Note_off_c, 10, 59, 80
6, 21000, Note_off_c, 10, 56, 80
6, 21000, Note_off_c, 10, 52, 80
6, 21000, Note_off_c, 10, 47, 80
6, 21000, Note_off_c, 10, 40, 80
6, 21000, Note_on_c, 10, 64, 95
6, 21000, Note_on_c, 10, 59, 95
6, 21000, Note_on_c, 10, 56, 95
6, 21000, Note_on_c, 10, 52, 95
6, 21000, Note_on_c, 10, 47, 95
6, 21000, Note_on_c, 10, 40, 95
6, 21120, Note_off_c, 10, 64, 80
6, 21120, Note_off_c, 10, 59, 80
6, 21120, Note_off_c, 10, 56, 80
6, 21120, Note_off_c, 10, 52, 80
6, 21120, Note_off_c, 10, 47, 80
6, 21120, Note_off_c, 10, 40, 80
6, 21120, Note_on_c, 10, 71, 95
6, 21120, Note_on_c, 10, 66, 95
6, 21120, Note_on_c, 10, 63, 95
6, 21120, Note_on_c, 10, 59, 95
6, 21120, Note_on_c, 10, 54, 95
6, 21120, Note_on_c, 10, 47, 95
6, 21600, Note_off_c, 10, 71, 80
6, 21600, Note_off_c, 10, 66, 80
6, 21600, Note_off_c, 10, 63, 80
6, 21600, Note_off_c, 10, 59, 80
6, 21600, Note_off_c, 10, 54, 80
6, 21600, Note_off_c, 10, 47, 80
6, 21600, Note_on_c, 10, 71, 95
6, 21600, Note_on_c, 10, 66, 95
6, 21600, Note_on_c, 10, 63, 95
6, 21600, Note_on_c, 10, 59, 95
6, 21600, Note_on_c, 10, 54, 95
6, 21600, Note_on_c, 10, 47, 95
6, 21840, Note_off_c, 10, 71, 80
6, 21840, Note_off_c, 10, 66, 80
6, 21840, Note_off_c, 10, 63, 80
6, 21840, Note_off_c, 10, 59, 80
6, 21840, Note_off_c, 10, 54, 80
6, 21840, Note_off_c, 10, 47, 80
6, 21840, Note_on_c, 10, 71, 95
6, 21840, Note_on_c, 10, 66, 95
6, 21840, Note_on_c, 10, 63, 95
6, 21840, Note_on_c, 10, 59, 95
6, 21840, Note_on_c, 10, 54, 95
6, 21840, Note_on_c, 10, 47, 95
6, 21960, Note_off_c, 10, 71, 80
6, 21960, Note_off_c, 10, 66, 80
6, 21960, Note_off_c, 10, 63, 80
6, 21960, Note_off_c, 10, 59, 80
6, 21960, Note_off_c, 10, 54, 80
6, 21960, Note_off_c, 10, 47, 80
6, 21960, Note_on_c, 10, 71, 95
6, 21960, Note_on_c, 10, 66, 95
6, 21960, Note_on_c, 10, 63, 95
6, 21960, Note_on_c, 10, 59, 95
6, 21960, Note_on_c, 10, 54, 95
6, 21960, Note_on_c, 10, 47, 95
6, 22080, Note_off_c, 10, 71, 80
6, 22080, Note_off_c, 10, 66, 80
6, 22080, Note_off_c, 10, 63, 80
6, 22080, Note_off_c, 10, 59, 80
6, 22080, Note_off_c, 10, 54, 80
6, 22080, Note_off_c, 10, 47, 80
6, 22080, Note_on_c, 10, 64, 95
6, 22080, Note_on_c, 10, 59, 95
6, 22080, Note_on_c, 10, 56, 95
6, 22080, Note_on_c, 10, 52, 95
6, 22080, Note_on_c, 10, 47, 95
6, 22080, Note_on_c, 10, 40, 95
6, 22200, Note_off_c, 10, 64, 80
6, 22200, Note_off_c, 10, 59, 80
6, 22200, Note_off_c, 10, 56, 80
6, 22200, Note_off_c, 10, 52, 80
6, 22200, Note_off_c, 10, 47, 80
6, 22200, Note_off_c, 10, 40, 80
6, 22200, Note_on_c, 10, 64, 95
6, 22200, Note_on_c, 10, 59, 95
6, 22200, Note_on_c, 10, 56, 95
6, 22200, Note_on_c, 10, 52, 95
6, 22200, Note_on_c, 10, 47, 95
6, 22200, Note_on_c, 10, 40, 95
6, 22320, Note_off_c, 10, 64, 80
6, 22320, Note_off_c, 10, 59, 80
6, 22320, Note_off_c, 10, 56, 80
6, 22320, Note_off_c, 10, 52, 80
6, 22320, Note_off_c, 10, 47, 80
6, 22320, Note_off_c, 10, 40, 80
6, 22320, Note_on_c, 10, 64, 95
6, 22320, Note_on_c, 10, 59, 95
6, 22320, Note_on_c, 10, 56, 95
6, 22320, Note_on_c, 10, 52, 95
6, 22320, Note_on_c, 10, 47, 95
6, 22320, Note_on_c, 10, 40, 95
6, 22560, Note_off_c, 10, 64, 80
6, 22560, Note_off_c, 10, 59, 80
6, 22560, Note_off_c, 10, 56, 80
6, 22560, Note_off_c, 10, 52, 80
6, 22560, Note_off_c, 10, 47, 80
6, 22560, Note_off_c, 10, 40, 80
6, 22560, Note_on_c, 10, 64, 95
6, 22560, Note_on_c, 10, 59, 95
6, 22560, Note_on_c, 10, 56, 95
6, 22560, Note_on_c, 10, 52, 95
6, 22560, Note_on_c, 10, 47, 95
6, 22560, Note_on_c, 10, 40, 95
6, 22920, Note_off_c, 10, 64, 80
6, 22920, Note_off_c, 10, 59, 80
6, 22920, Note_off_c, 10, 56, 80
6, 22920, Note_off_c, 10, 52, 80
6, 22920, Note_off_c, 10, 47, 80
6, 22920, Note_off_c, 10, 40, 80
6, 22920, Note_on_c, 10, 64, 95
6, 22920, Note_on_c, 10, 59, 95
6, 22920, Note_on_c, 10, 56, 95
6, 22920, Note_on_c, 10, 52, 95
6, 22920, Note_on_c, 10, 47, 95
6, 22920, Note_on_c, 10, 40, 95
6, 23040, Note_off_c, 10, 64, 80
6, 23040, Note_off_c, 10, 59, 80
6, 23040, Note_off_c, 10, 56, 80
6, 23040, Note_off_c, 10, 52, 80
6, 23040, Note_off_c, 10, 47, 80
6, 23040, Note_off_c, 10, 40, 80
6, 23040, Note_on_c, 10, 66, 95
6, 23040, Note_on_c, 10, 61, 95
6, 23040, Note_on_c, 10, 58, 95
6, 23040, Note_on_c, 10, 54, 95
6, 23040, Note_on_c, 10, 49, 95
6, 23040, Note_on_c, 10, 42, 95
6, 23160, Note_off_c, 10, 66, 80
6, 23160, Note_off_c, 10, 61, 80
6, 23160, Note_off_c, 10, 58, 80
6, 23160, Note_off_c, 10, 54, 80
6, 23160, Note_off_c, 10, 49, 80
6, 23160, Note_off_c, 10, 42, 80
6, 23160, Note_on_c, 10, 66, 95
6, 23160, Note_on_c, 10, 61, 95
6, 23160, Note_on_c, 10, 58, 95
6, 23160, Note_on_c, 10, 54, 95
6, 23160, Note_on_c, 10, 49, 95
6, 23160, Note_on_c, 10, 42, 95
6, 23280, Note_off_c, 10, 66, 80
6, 23280, Note_off_c, 10, 61, 80
6, 23280, Note_off_c, 10, 58, 80
6, 23280, Note_off_c, 10, 54, 80
6, 23280, Note_off_c, 10, 49, 80
6, 23280, Note_off_c, 10, 42, 80
6, 23280, Note_on_c, 10, 66, 95
6, 23280, Note_on_c, 10, 61, 95
6, 23280, Note_on_c, 10, 58, 95
6, 23280, Note_on_c, 10, 54, 95
6, 23280, Note_on_c, 10, 49, 95
6, 23280, Note_on_c, 10, 42, 95
6, 23520, Note_off_c, 10, 66, 80
6, 23520, Note_off_c, 10, 61, 80
6, 23520, Note_off_c, 10, 58, 80
6, 23520, Note_off_c, 10, 54, 80
6, 23520, Note_off_c, 10, 49, 80
6, 23520, Note_off_c, 10, 42, 80
6, 23520, Note_on_c, 10, 66, 95
6, 23520, Note_on_c, 10, 61, 95
6, 23520, Note_on_c, 10, 58, 95
6, 23520, Note_on_c, 10, 54, 95
6, 23520, Note_on_c, 10, 49, 95
6, 23520, Note_on_c, 10, 42, 95
6, 23880, Note_off_c, 10, 66, 80
6, 23880, Note_off_c, 10, 61, 80
6, 23880, Note_off_c, 10, 58, 80
6, 23880, Note_off_c, 10, 54, 80
6, 23880, Note_off_c, 10, 49, 80
6, 23880, Note_off_c, 10, 42, 80
6, 23880, Note_on_c, 10, 66, 95
6, 23880, Note_on_c, 10, 61, 95
6, 23880, Note_on_c, 10, 58, 95
6, 23880, Note_on_c, 10, 54, 95
6, 23880, Note_on_c, 10, 49, 95
6, 23880, Note_on_c, 10, 42, 95
6, 24000, Note_off_c, 10, 66, 80
6, 24000, Note_off_c, 10, 61, 80
6, 24000, Note_off_c, 10, 58, 80
6, 24000, Note_off_c, 10, 54, 80
6, 24000, Note_off_c, 10, 49, 80
6, 24000, Note_off_c, 10, 42, 80
6, 24000, Note_on_c, 10, 64, 95
6, 24000, Note_on_c, 10, 59, 95
6, 24000, Note_on_c, 10, 56, 95
6, 24000, Note_on_c, 10, 52, 95
6, 24000, Note_on_c, 10, 47, 95
6, 24000, Note_on_c, 10, 40, 95
6, 24120, Note_off_c, 10, 64, 80
6, 24120, Note_off_c, 10, 59, 80
6, 24120, Note_off_c, 10, 56, 80
6, 24120, Note_off_c, 10, 52, 80
6, 24120, Note_off_c, 10, 47, 80
6, 24120, Note_off_c, 10, 40, 80
6, 24120, Note_on_c, 10, 64, 95
6, 24120, Note_on_c, 10, 59, 95
6, 24120, Note_on_c, 10, 56, 95
6, 24120, Note_on_c, 10, 52, 95
6, 24120, Note_on_c, 10, 47, 95
6, 24120, Note_on_c, 10, 40, 95
6, 24240, Note_off_c, 10, 64, 80
6, 24240, Note_off_c, 10, 59, 80
6, 24240, Note_off_c, 10, 56, 80
6, 24240, Note_off_c, 10, 52, 80
6, 24240, Note_off_c, 10, 47, 80
6, 24240, Note_off_c, 10, 40, 80
6, 24240, Note_on_c, 10, 64, 95
6, 24240, Note_on_c, 10, 59, 95
6, 24240, Note_on_c, 10, 56, 95
6, 24240, Note_on_c, 10, 52, 95
6, 24240, Note_on_c, 10, 47, 95
6, 24240, Note_on_c, 10, 40, 95
6, 24480, Note_off_c, 10, 64, 80
6, 24480, Note_off_c, 10, 59, 80
6, 24480, Note_off_c, 10, 56, 80
6, 24480, Note_off_c, 10, 52, 80
6, 24480, Note_off_c, 10, 47, 80
6, 24480, Note_off_c, 10, 40, 80
6, 24480, Note_on_c, 10, 64, 95
6, 24480, Note_on_c, 10, 59, 95
6, 24480, Note_on_c, 10, 56, 95
6, 24480, Note_on_c, 10, 52, 95
6, 24480, Note_on_c, 10, 47, 95
6, 24480, Note_on_c, 10, 40, 95
6, 24720, Note_off_c, 10, 64, 80
6, 24720, Note_off_c, 10, 59, 80
6, 24720, Note_off_c, 10, 56, 80
6, 24720, Note_off_c, 10, 52, 80
6, 24720, Note_off_c, 10, 47, 80
6, 24720, Note_off_c, 10, 40, 80
6, 24720, Note_on_c, 10, 64, 95
6, 24720, Note_on_c, 10, 59, 95
6, 24720, Note_on_c, 10, 56, 95
6, 24720, Note_on_c, 10, 52, 95
6, 24720, Note_on_c, 10, 47, 95
6, 24720, Note_on_c, 10, 40, 95
6, 24840, Note_off_c, 10, 64, 80
6, 24840, Note_off_c, 10, 59, 80
6, 24840, Note_off_c, 10, 56, 80
6, 24840, Note_off_c, 10, 52, 80
6, 24840, Note_off_c, 10, 47, 80
6, 24840, Note_off_c, 10, 40, 80
6, 24840, Note_on_c, 10, 64, 95
6, 24840, Note_on_c, 10, 59, 95
6, 24840, Note_on_c, 10, 56, 95
6, 24840, Note_on_c, 10, 52, 95
6, 24840, Note_on_c, 10, 47, 95
6, 24840, Note_on_c, 10, 40, 95
6, 24960, Note_off_c, 10, 64, 80
6, 24960, Note_off_c, 10, 59, 80
6, 24960, Note_off_c, 10, 56, 80
6, 24960, Note_off_c, 10, 52, 80
6, 24960, Note_off_c, 10, 47, 80
6, 24960, Note_off_c, 10, 40, 80
6, 24960, Note_on_c, 10, 71, 95
6, 24960, Note_on_c, 10, 66, 95
6, 24960, Note_on_c, 10, 63, 95
6, 24960, Note_on_c, 10, 59, 95
6, 24960, Note_on_c, 10, 54, 95
6, 24960, Note_on_c, 10, 47, 95
6, 25440, Note_off_c, 10, 71, 80
6, 25440, Note_off_c, 10, 66, 80
6, 25440, Note_off_c, 10, 63, 80
6, 25440, Note_off_c, 10, 59, 80
6, 25440, Note_off_c, 10, 54, 80
6, 25440, Note_off_c, 10, 47, 80
6, 25440, Note_on_c, 10, 71, 95
6, 25440, Note_on_c, 10, 66, 95
6, 25440, Note_on_c, 10, 63, 95
6, 25440, Note_on_c, 10, 59, 95
6, 25440, Note_on_c, 10, 54, 95
6, 25440, Note_on_c, 10, 47, 95
6, 25680, Note_off_c, 10, 71, 80
6, 25680, Note_off_c, 10, 66, 80
6, 25680, Note_off_c, 10, 63, 80
6, 25680, Note_off_c, 10, 59, 80
6, 25680, Note_off_c, 10, 54, 80
6, 25680, Note_off_c, 10, 47, 80
6, 25680, Note_on_c, 10, 71, 95
6, 25680, Note_on_c, 10, 66, 95
6, 25680, Note_on_c, 10, 63, 95
6, 25680, Note_on_c, 10, 59, 95
6, 25680, Note_on_c, 10, 54, 95
6, 25680, Note_on_c, 10, 47, 95
6, 25800, Note_off_c, 10, 71, 80
6, 25800, Note_off_c, 10, 66, 80
6, 25800, Note_off_c, 10, 63, 80
6, 25800, Note_off_c, 10, 59, 80
6, 25800, Note_off_c, 10, 54, 80
6, 25800, Note_off_c, 10, 47, 80
6, 25800, Note_on_c, 10, 71, 95
6, 25800, Note_on_c, 10, 66, 95
6, 25800, Note_on_c, 10, 63, 95
6, 25800, Note_on_c, 10, 59, 95
6, 25800, Note_on_c, 10, 54, 95
6, 25800, Note_on_c, 10, 47, 95
6, 25920, Note_off_c, 10, 71, 80
6, 25920, Note_off_c, 10, 66, 80
6, 25920, Note_off_c, 10, 63, 80
6, 25920, Note_off_c, 10, 59, 80
6, 25920, Note_off_c, 10, 54, 80
6, 25920, Note_off_c, 10, 47, 80
6, 25920, Note_on_c, 10, 64, 95
6, 25920, Note_on_c, 10, 59, 95
6, 25920, Note_on_c, 10, 56, 95
6, 25920, Note_on_c, 10, 52, 95
6, 25920, Note_on_c, 10, 47, 95
6, 25920, Note_on_c, 10, 40, 95
6, 26040, Note_off_c, 10, 64, 80
6, 26040, Note_off_c, 10, 59, 80
6, 26040, Note_off_c, 10, 56, 80
6, 26040, Note_off_c, 10, 52, 80
6, 26040, Note_off_c, 10, 47, 80
6, 26040, Note_off_c, 10, 40, 80
6, 26040, Note_on_c, 10, 64, 95
6, 26040, Note_on_c, 10, 59, 95
6, 26040, Note_on_c, 10, 56, 95
6, 26040, Note_on_c, 10, 52, 95
6, 26040, Note_on_c, 10, 47, 95
6, 26040, Note_on_c, 10, 40, 95
6, 26160, Note_off_c, 10, 64, 80
6, 26160, Note_off_c, 10, 59, 80
6, 26160, Note_off_c, 10, 56, 80
6, 26160, Note_off_c, 10, 52, 80
6, 26160, Note_off_c, 10, 47, 80
6, 26160, Note_off_c, 10, 40, 80
6, 26160, Note_on_c, 10, 64, 95
6, 26160, Note_on_c, 10, 59, 95
6, 26160, Note_on_c, 10, 56, 95
6, 26160, Note_on_c, 10, 52, 95
6, 26160, Note_on_c, 10, 47, 95
6, 26160, Note_on_c, 10, 40, 95
6, 26400, Note_off_c, 10, 64, 80
6, 26400, Note_off_c, 10, 59, 80
6, 26400, Note_off_c, 10, 56, 80
6, 26400, Note_off_c, 10, 52, 80
6, 26400, Note_off_c, 10, 47, 80
6, 26400, Note_off_c, 10, 40, 80
6, 26400, Note_on_c, 10, 64, 95
6, 26400, Note_on_c, 10, 59, 95
6, 26400, Note_on_c, 10, 56, 95
6, 26400, Note_on_c, 10, 52, 95
6, 26400, Note_on_c, 10, 47, 95
6, 26400, Note_on_c, 10, 40, 95
6, 26760, Note_off_c, 10, 64, 80
6, 26760, Note_off_c, 10, 59, 80
6, 26760, Note_off_c, 10, 56, 80
6, 26760, Note_off_c, 10, 52, 80
6, 26760, Note_off_c, 10, 47, 80
6, 26760, Note_off_c, 10, 40, 80
6, 26760, Note_on_c, 10, 64, 95
6, 26760, Note_on_c, 10, 59, 95
6, 26760, Note_on_c, 10, 56, 95
6, 26760, Note_on_c, 10, 52, 95
6, 26760, Note_on_c, 10, 47, 95
6, 26760, Note_on_c, 10, 40, 95
6, 26880, Note_off_c, 10, 64, 80
6, 26880, Note_off_c, 10, 59, 80
6, 26880, Note_off_c, 10, 56, 80
6, 26880, Note_off_c, 10, 52, 80
6, 26880, Note_off_c, 10, 47, 80
6, 26880, Note_off_c, 10, 40, 80
6, 26880, Note_on_c, 10, 66, 95
6, 26880, Note_on_c, 10, 61, 95
6, 26880, Note_on_c, 10, 58, 95
6, 26880, Note_on_c, 10, 54, 95
6, 26880, Note_on_c, 10, 49, 95
6, 26880, Note_on_c, 10, 42, 95
6, 27000, Note_off_c, 10, 66, 80
6, 27000, Note_off_c, 10, 61, 80
6, 27000, Note_off_c, 10, 58, 80
6, 27000, Note_off_c, 10, 54, 80
6, 27000, Note_off_c, 10, 49, 80
6, 27000, Note_off_c, 10, 42, 80
6, 27000, Note_on_c, 10, 66, 95
6, 27000, Note_on_c, 10, 61, 95
6, 27000, Note_on_c, 10, 58, 95
6, 27000, Note_on_c, 10, 54, 95
6, 27000, Note_on_c, 10, 49, 95
6, 27000, Note_on_c, 10, 42, 95
6, 27120, Note_off_c, 10, 66, 80
6, 27120, Note_off_c, 10, 61, 80
6, 27120, Note_off_c, 10, 58, 80
6, 27120, Note_off_c, 10, 54, 80
6, 27120, Note_off_c, 10, 49, 80
6, 27120, Note_off_c, 10, 42, 80
6, 27120, Note_on_c, 10, 66, 95
6, 27120, Note_on_c, 10, 61, 95
6, 27120, Note_on_c, 10, 58, 95
6, 27120, Note_on_c, 10, 54, 95
6, 27120, Note_on_c, 10, 49, 95
6, 27120, Note_on_c, 10, 42, 95
6, 27360, Note_off_c, 10, 66, 80
6, 27360, Note_off_c, 10, 61, 80
6, 27360, Note_off_c, 10, 58, 80
6, 27360, Note_off_c, 10, 54, 80
6, 27360, Note_off_c, 10, 49, 80
6, 27360, Note_off_c, 10, 42, 80
6, 27360, Note_on_c, 10, 66, 95
6, 27360, Note_on_c, 10, 61, 95
6, 27360, Note_on_c, 10, 58, 95
6, 27360, Note_on_c, 10, 54, 95
6, 27360, Note_on_c, 10, 49, 95
6, 27360, Note_on_c, 10, 42, 95
6, 27720, Note_off_c, 10, 66, 80
6, 27720, Note_off_c, 10, 61, 80
6, 27720, Note_off_c, 10, 58, 80
6, 27720, Note_off_c, 10, 54, 80
6, 27720, Note_off_c, 10, 49, 80
6, 27720, Note_off_c, 10, 42, 80
6, 27720, Note_on_c, 10, 66, 95
6, 27720, Note_on_c, 10, 61, 95
6, 27720, Note_on_c, 10, 58, 95
6, 27720, Note_on_c, 10, 54, 95
6, 27720, Note_on_c, 10, 49, 95
6, 27720, Note_on_c, 10, 42, 95
6, 27840, Note_off_c, 10, 66, 80
6, 27840, Note_off_c, 10, 61, 80
6, 27840, Note_off_c, 10, 58, 80
6, 27840, Note_off_c, 10, 54, 80
6, 27840, Note_off_c, 10, 49, 80
6, 27840, Note_off_c, 10, 42, 80
6, 27840, Note_on_c, 10, 64, 95
6, 27840, Note_on_c, 10, 59, 95
6, 27840, Note_on_c, 10, 56, 95
6, 27840, Note_on_c, 10, 52, 95
6, 27840, Note_on_c, 10, 47, 95
6, 27840, Note_on_c, 10, 40, 95
6, 27960, Note_off_c, 10, 64, 80
6, 27960, Note_off_c, 10, 59, 80
6, 27960, Note_off_c, 10, 56, 80
6, 27960, Note_off_c, 10, 52, 80
6, 27960, Note_off_c, 10, 47, 80
6, 27960, Note_off_c, 10, 40, 80
6, 27960, Note_on_c, 10, 64, 95
6, 27960, Note_on_c, 10, 59, 95
6, 27960, Note_on_c, 10, 56, 95
6, 27960, Note_on_c, 10, 52, 95
6, 27960, Note_on_c, 10, 47, 95
6, 27960, Note_on_c, 10, 40, 95
6, 28080, Note_off_c, 10, 64, 80
6, 28080, Note_off_c, 10, 59, 80
6, 28080, Note_off_c, 10, 56, 80
6, 28080, Note_off_c, 10, 52, 80
6, 28080, Note_off_c, 10, 47, 80
6, 28080, Note_off_c, 10, 40, 80
6, 28080, Note_on_c, 10, 64, 95
6, 28080, Note_on_c, 10, 59, 95
6, 28080, Note_on_c, 10, 56, 95
6, 28080, Note_on_c, 10, 52, 95
6, 28080, Note_on_c, 10, 47, 95
6, 28080, Note_on_c, 10, 40, 95
6, 28320, Note_off_c, 10, 64, 80
6, 28320, Note_off_c, 10, 59, 80
6, 28320, Note_off_c, 10, 56, 80
6, 28320, Note_off_c, 10, 52, 80
6, 28320, Note_off_c, 10, 47, 80
6, 28320, Note_off_c, 10, 40, 80
6, 28320, Note_on_c, 10, 64, 95
6, 28320, Note_on_c, 10, 59, 95
6, 28320, Note_on_c, 10, 56, 95
6, 28320, Note_on_c, 10, 52, 95
6, 28320, Note_on_c, 10, 47, 95
6, 28320, Note_on_c, 10, 40, 95
6, 28560, Note_off_c, 10, 64, 80
6, 28560, Note_off_c, 10, 59, 80
6, 28560, Note_off_c, 10, 56, 80
6, 28560, Note_off_c, 10, 52, 80
6, 28560, Note_off_c, 10, 47, 80
6, 28560, Note_off_c, 10, 40, 80
6, 28560, Note_on_c, 10, 64, 95
6, 28560, Note_on_c, 10, 59, 95
6, 28560, Note_on_c, 10, 56, 95
6, 28560, Note_on_c, 10, 52, 95
6, 28560, Note_on_c, 10, 47, 95
6, 28560, Note_on_c, 10, 40, 95
6, 28680, Note_off_c, 10, 64, 80
6, 28680, Note_off_c, 10, 59, 80
6, 28680, Note_off_c, 10, 56, 80
6, 28680, Note_off_c, 10, 52, 80
6, 28680, Note_off_c, 10, 47, 80
6, 28680, Note_off_c, 10, 40, 80
6, 28680, Note_on_c, 10, 64, 95
6, 28680, Note_on_c, 10, 59, 95
6, 28680, Note_on_c, 10, 56, 95
6, 28680, Note_on_c, 10, 52, 95
6, 28680, Note_on_c, 10, 47, 95
6, 28680, Note_on_c, 10, 40, 95
6, 28800, Note_off_c, 10, 64, 80
6, 28800, Note_off_c, 10, 59, 80
6, 28800, Note_off_c, 10, 56, 80
6, 28800, Note_off_c, 10, 52, 80
6, 28800, Note_off_c, 10, 47, 80
6, 28800, Note_off_c, 10, 40, 80
6, 28800, Note_on_c, 10, 71, 95
6, 28800, Note_on_c, 10, 66, 95
6, 28800, Note_on_c, 10, 63, 95
6, 28800, Note_on_c, 10, 59, 95
6, 28800, Note_on_c, 10, 54, 95
6, 28800, Note_on_c, 10, 47, 95
6, 29280, Note_off_c, 10, 71, 80
6, 29280, Note_off_c, 10, 66, 80
6, 29280, Note_off_c, 10, 63, 80
6, 29280, Note_off_c, 10, 59, 80
6, 29280, Note_off_c, 10, 54, 80
6, 29280, Note_off_c, 10, 47, 80
6, 29280, Note_on_c, 10, 71, 95
6, 29280, Note_on_c, 10, 66, 95
6, 29280, Note_on_c, 10, 63, 95
6, 29280, Note_on_c, 10, 59, 95
6, 29280, Note_on_c, 10, 54, 95
6, 29280, Note_on_c, 10, 47, 95
6, 29520, Note_off_c, 10, 71, 80
6, 29520, Note_off_c, 10, 66, 80
6, 29520, Note_off_c, 10, 63, 80
6, 29520, Note_off_c, 10, 59, 80
6, 29520, Note_off_c, 10, 54, 80
6, 29520, Note_off_c, 10, 47, 80
6, 29520, Note_on_c, 10, 71, 95
6, 29520, Note_on_c, 10, 66, 95
6, 29520, Note_on_c, 10, 63, 95
6, 29520, Note_on_c, 10, 59, 95
6, 29520, Note_on_c, 10, 54, 95
6, 29520, Note_on_c, 10, 47, 95
6, 29640, Note_off_c, 10, 71, 80
6, 29640, Note_off_c, 10, 66, 80
6, 29640, Note_off_c, 10, 63, 80
6, 29640, Note_off_c, 10, 59, 80
6, 29640, Note_off_c, 10, 54, 80
6, 29640, Note_off_c, 10, 47, 80
6, 29640, Note_on_c, 10, 71, 95
6, 29640, Note_on_c, 10, 66, 95
6, 29640, Note_on_c, 10, 63, 95
6, 29640, Note_on_c, 10, 59, 95
6, 29640, Note_on_c, 10, 54, 95
6, 29640, Note_on_c, 10, 47, 95
6, 29760, Note_off_c, 10, 71, 80
6, 29760, Note_off_c, 10, 66, 80
6, 29760, Note_off_c, 10, 63, 80
6, 29760, Note_off_c, 10, 59, 80
6, 29760, Note_off_c, 10, 54, 80
6, 29760, Note_off_c, 10, 47, 80
6, 29760, Note_on_c, 10, 64, 95
6, 29760, Note_on_c, 10, 59, 95
6, 29760, Note_on_c, 10, 56, 95
6, 29760, Note_on_c, 10, 52, 95
6, 29760, Note_on_c, 10, 47, 95
6, 29760, Note_on_c, 10, 40, 95
6, 29880, Note_off_c, 10, 64, 80
6, 29880, Note_off_c, 10, 59, 80
6, 29880, Note_off_c, 10, 56, 80
6, 29880, Note_off_c, 10, 52, 80
6, 29880, Note_off_c, 10, 47, 80
6, 29880, Note_off_c, 10, 40, 80
6, 29880, Note_on_c, 10, 64, 95
6, 29880, Note_on_c, 10, 59, 95
6, 29880, Note_on_c, 10, 56, 95
6, 29880, Note_on_c, 10, 52, 95
6, 29880, Note_on_c, 10, 47, 95
6, 29880, Note_on_c, 10, 40, 95
6, 30000, Note_off_c, 10, 64, 80
6, 30000, Note_off_c, 10, 59, 80
6, 30000, Note_off_c, 10, 56, 80
6, 30000, Note_off_c, 10, 52, 80
6, 30000, Note_off_c, 10, 47, 80
6, 30000, Note_off_c, 10, 40, 80
6, 30000, Note_on_c, 10, 64, 95
6, 30000, Note_on_c, 10, 59, 95
6, 30000, Note_on_c, 10, 56, 95
6, 30000, Note_on_c, 10, 52, 95
6, 30000, Note_on_c, 10, 47, 95
6, 30000, Note_on_c, 10, 40, 95
6, 30240, Note_off_c, 10, 64, 80
6, 30240, Note_off_c, 10, 59, 80
6, 30240, Note_off_c, 10, 56, 80
6, 30240, Note_off_c, 10, 52, 80
6, 30240, Note_off_c, 10, 47, 80
6, 30240, Note_off_c, 10, 40, 80
6, 30240, Note_on_c, 10, 64, 95
6, 30240, Note_on_c, 10, 59, 95
6, 30240, Note_on_c, 10, 56, 95
6, 30240, Note_on_c, 10, 52, 95
6, 30240, Note_on_c, 10, 47, 95
6, 30240, Note_on_c, 10, 40, 95
6, 30600, Note_off_c, 10, 64, 80
6, 30600, Note_off_c, 10, 59, 80
6, 30600, Note_off_c, 10, 56, 80
6, 30600, Note_off_c, 10, 52, 80
6, 30600, Note_off_c, 10, 47, 80
6, 30600, Note_off_c, 10, 40, 80
6, 30600, Note_on_c, 10, 64, 95
6, 30600, Note_on_c, 10, 59, 95
6, 30600, Note_on_c, 10, 56, 95
6, 30600, Note_on_c, 10, 52, 95
6, 30600, Note_on_c, 10, 47, 95
6, 30600, Note_on_c, 10, 40, 95
6, 30720, Note_off_c, 10, 64, 80
6, 30720, Note_off_c, 10, 59, 80
6, 30720, Note_off_c, 10, 56, 80
6, 30720, Note_off_c, 10, 52, 80
6, 30720, Note_off_c, 10, 47, 80
6, 30720, Note_off_c, 10, 40, 80
6, 30720, Note_on_c, 10, 66, 95
6, 30720, Note_on_c, 10, 61, 95
6, 30720, Note_on_c, 10, 58, 95
6, 30720, Note_on_c, 10, 54, 95
6, 30720, Note_on_c, 10, 49, 95
6, 30720, Note_on_c, 10, 42, 95
6, 30840, Note_off_c, 10, 66, 80
6, 30840, Note_off_c, 10, 61, 80
6, 30840, Note_off_c, 10, 58, 80
6, 30840, Note_off_c, 10, 54, 80
6, 30840, Note_off_c, 10, 49, 80
6, 30840, Note_off_c, 10, 42, 80
6, 30840, Note_on_c, 10, 66, 95
6, 30840, Note_on_c, 10, 61, 95
6, 30840, Note_on_c, 10, 58, 95
6, 30840, Note_on_c, 10, 54, 95
6, 30840, Note_on_c, 10, 49, 95
6, 30840, Note_on_c, 10, 42, 95
6, 30960, Note_off_c, 10, 66, 80
6, 30960, Note_off_c, 10, 61, 80
6, 30960, Note_off_c, 10, 58, 80
6, 30960, Note_off_c, 10, 54, 80
6, 30960, Note_off_c, 10, 49, 80
6, 30960, Note_off_c, 10, 42, 80
6, 30960, Note_on_c, 10, 66, 95
6, 30960, Note_on_c, 10, 61, 95
6, 30960, Note_on_c, 10, 58, 95
6, 30960, Note_on_c, 10, 54, 95
6, 30960, Note_on_c, 10, 49, 95
6, 30960, Note_on_c, 10, 42, 95
6, 31200, Note_off_c, 10, 66, 80
6, 31200, Note_off_c, 10, 61, 80
6, 31200, Note_off_c, 10, 58, 80
6, 31200, Note_off_c, 10, 54, 80
6, 31200, Note_off_c, 10, 49, 80
6, 31200, Note_off_c, 10, 42, 80
6, 31200, Note_on_c, 10, 66, 95
6, 31200, Note_on_c, 10, 61, 95
6, 31200, Note_on_c, 10, 58, 95
6, 31200, Note_on_c, 10, 54, 95
6, 31200, Note_on_c, 10, 49, 95
6, 31200, Note_on_c, 10, 42, 95
6, 31560, Note_off_c, 10, 66, 80
6, 31560, Note_off_c, 10, 61, 80
6, 31560, Note_off_c, 10, 58, 80
6, 31560, Note_off_c, 10, 54, 80
6, 31560, Note_off_c, 10, 49, 80
6, 31560, Note_off_c, 10, 42, 80
6, 31560, Note_on_c, 10, 66, 95
6, 31560, Note_on_c, 10, 61, 95
6, 31560, Note_on_c, 10, 58, 95
6, 31560, Note_on_c, 10, 54, 95
6, 31560, Note_on_c, 10, 49, 95
6, 31560, Note_on_c, 10, 42, 95
6, 31680, Note_off_c, 10, 66, 80
6, 31680, Note_off_c, 10, 61, 80
6, 31680, Note_off_c, 10, 58, 80
6, 31680, Note_off_c, 10, 54, 80
6, 31680, Note_off_c, 10, 49, 80
6, 31680, Note_off_c, 10, 42, 80
6, 31680, Note_on_c, 10, 64, 95
6, 31680, Note_on_c, 10, 59, 95
6, 31680, Note_on_c, 10, 56, 95
6, 31680, Note_on_c, 10, 52, 95
6, 31680, Note_on_c, 10, 47, 95
6, 31680, Note_on_c, 10, 40, 95
6, 31800, Note_off_c, 10, 64, 80
6, 31800, Note_off_c, 10, 59, 80
6, 31800, Note_off_c, 10, 56, 80
6, 31800, Note_off_c, 10, 52, 80
6, 31800, Note_off_c, 10, 47, 80
6, 31800, Note_off_c, 10, 40, 80
6, 31800, Note_on_c, 10, 64, 95
6, 31800, Note_on_c, 10, 59, 95
6, 31800, Note_on_c, 10, 56, 95
6, 31800, Note_on_c, 10, 52, 95
6, 31800, Note_on_c, 10, 47, 95
6, 31800, Note_on_c, 10, 40, 95
6, 31920, Note_off_c, 10, 64, 80
6, 31920, Note_off_c, 10, 59, 80
6, 31920, Note_off_c, 10, 56, 80
6, 31920, Note_off_c, 10, 52, 80
6, 31920, Note_off_c, 10, 47, 80
6, 31920, Note_off_c, 10, 40, 80
6, 31920, Note_on_c, 10, 64, 95
6, 31920, Note_on_c, 10, 59, 95
6, 31920, Note_on_c, 10, 56, 95
6, 31920, Note_on_c, 10, 52, 95
6, 31920, Note_on_c, 10, 47, 95
6, 31920, Note_on_c, 10, 40, 95
6, 32160, Note_off_c, 10, 64, 80
6, 32160, Note_off_c, 10, 59, 80
6, 32160, Note_off_c, 10, 56, 80
6, 32160, Note_off_c, 10, 52, 80
6, 32160, Note_off_c, 10, 47, 80
6, 32160, Note_off_c, 10, 40, 80
6, 32160, Note_on_c, 10, 64, 95
6, 32160, Note_on_c, 10, 59, 95
6, 32160, Note_on_c, 10, 56, 95
6, 32160, Note_on_c, 10, 52, 95
6, 32160, Note_on_c, 10, 47, 95
6, 32160, Note_on_c, 10, 40, 95
6, 32400, Note_off_c, 10, 64, 80
6, 32400, Note_off_c, 10, 59, 80
6, 32400, Note_off_c, 10, 56, 80
6, 32400, Note_off_c, 10, 52, 80
6, 32400, Note_off_c, 10, 47, 80
6, 32400, Note_off_c, 10, 40, 80
6, 32400, Note_on_c, 10, 64, 95
6, 32400, Note_on_c, 10, 59, 95
6, 32400, Note_on_c, 10, 56, 95
6, 32400, Note_on_c, 10, 52, 95
6, 32400, Note_on_c, 10, 47, 95
6, 32400, Note_on_c, 10, 40, 95
6, 32520, Note_off_c, 10, 64, 80
6, 32520, Note_off_c, 10, 59, 80
6, 32520, Note_off_c, 10, 56, 80
6, 32520, Note_off_c, 10, 52, 80
6, 32520, Note_off_c, 10, 47, 80
6, 32520, Note_off_c, 10, 40, 80
6, 32520, Note_on_c, 10, 64, 95
6, 32520, Note_on_c, 10, 59, 95
6, 32520, Note_on_c, 10, 56, 95
6, 32520, Note_on_c, 10, 52, 95
6, 32520, Note_on_c, 10, 47, 95
6, 32520, Note_on_c, 10, 40, 95
6, 32640, Note_off_c, 10, 64, 80
6, 32640, Note_off_c, 10, 59, 80
6, 32640, Note_off_c, 10, 56, 80
6, 32640, Note_off_c, 10, 52, 80
6, 32640, Note_off_c, 10, 47, 80
6, 32640, Note_off_c, 10, 40, 80
6, 32640, Note_on_c, 10, 71, 95
6, 32640, Note_on_c, 10, 66, 95
6, 32640, Note_on_c, 10, 63, 95
6, 32640, Note_on_c, 10, 59, 95
6, 32640, Note_on_c, 10, 54, 95
6, 32640, Note_on_c, 10, 47, 95
6, 33120, Note_off_c, 10, 71, 80
6, 33120, Note_off_c, 10, 66, 80
6, 33120, Note_off_c, 10, 63, 80
6, 33120, Note_off_c, 10, 59, 80
6, 33120, Note_off_c, 10, 54, 80
6, 33120, Note_off_c, 10, 47, 80
6, 33120, Note_on_c, 10, 71, 95
6, 33120, Note_on_c, 10, 66, 95
6, 33120, Note_on_c, 10, 63, 95
6, 33120, Note_on_c, 10, 59, 95
6, 33120, Note_on_c, 10, 54, 95
6, 33120, Note_on_c, 10, 47, 95
6, 33360, Note_off_c, 10, 71, 80
6, 33360, Note_off_c, 10, 66, 80
6, 33360, Note_off_c, 10, 63, 80
6, 33360, Note_off_c, 10, 59, 80
6, 33360, Note_off_c, 10, 54, 80
6, 33360, Note_off_c, 10, 47, 80
6, 33360, Note_on_c, 10, 71, 95
6, 33360, Note_on_c, 10, 66, 95
6, 33360, Note_on_c, 10, 63, 95
6, 33360, Note_on_c, 10, 59, 95
6, 33360, Note_on_c, 10, 54, 95
6, 33360, Note_on_c, 10, 47, 95
6, 33480, Note_off_c, 10, 71, 80
6, 33480, Note_off_c, 10, 66, 80
6, 33480, Note_off_c, 10, 63, 80
6, 33480, Note_off_c, 10, 59, 80
6, 33480, Note_off_c, 10, 54, 80
6, 33480, Note_off_c, 10, 47, 80
6, 33480, Note_on_c, 10, 71, 95
6, 33480, Note_on_c, 10, 66, 95
6, 33480, Note_on_c, 10, 63, 95
6, 33480, Note_on_c, 10, 59, 95
6, 33480, Note_on_c, 10, 54, 95
6, 33480, Note_on_c, 10, 47, 95
6, 33600, Note_off_c, 10, 71, 80
6, 33600, Note_off_c, 10, 66, 80
6, 33600, Note_off_c, 10, 63, 80
6, 33600, Note_off_c, 10, 59, 80
6, 33600, Note_off_c, 10, 54, 80
6, 33600, Note_off_c, 10, 47, 80
6, 33600, Note_on_c, 10, 69, 95
6, 33600, Note_on_c, 10, 64, 95
6, 33600, Note_on_c, 10, 61, 95
6, 33600, Note_on_c, 10, 57, 95
6, 33600, Note_on_c, 10, 52, 95
6, 33600, Note_on_c, 10, 45, 95
6, 33720, Note_off_c, 10, 69, 80
6, 33720, Note_off_c, 10, 64, 80
6, 33720, Note_off_c, 10, 61, 80
6, 33720, Note_off_c, 10, 57, 80
6, 33720, Note_off_c, 10, 52, 80
6, 33720, Note_off_c, 10, 45, 80
6, 33720, Note_on_c, 10, 69, 95
6, 33720, Note_on_c, 10, 64, 95
6, 33720, Note_on_c, 10, 61, 95
6, 33720, Note_on_c, 10, 57, 95
6, 33720, Note_on_c, 10, 52, 95
6, 33720, Note_on_c, 10, 45, 95
6, 33840, Note_off_c, 10, 69, 80
6, 33840, Note_off_c, 10, 64, 80
6, 33840, Note_off_c, 10, 61, 80
6, 33840, Note_off_c, 10, 57, 80
6, 33840, Note_off_c, 10, 52, 80
6, 33840, Note_off_c, 10, 45, 80
6, 33840, Note_on_c, 10, 69, 95
6, 33840, Note_on_c, 10, 64, 95
6, 33840, Note_on_c, 10, 61, 95
6, 33840, Note_on_c, 10, 57, 95
6, 33840, Note_on_c, 10, 52, 95
6, 33840, Note_on_c, 10, 45, 95
6, 34080, Note_off_c, 10, 69, 80
6, 34080, Note_off_c, 10, 64, 80
6, 34080, Note_off_c, 10, 61, 80
6, 34080, Note_off_c, 10, 57, 80
6, 34080, Note_off_c, 10, 52, 80
6, 34080, Note_off_c, 10, 45, 80
6, 34080, Note_on_c, 10, 69, 95
6, 34080, Note_on_c, 10, 64, 95
6, 34080, Note_on_c, 10, 61, 95
6, 34080, Note_on_c, 10, 57, 95
6, 34080, Note_on_c, 10, 52, 95
6, 34080, Note_on_c, 10, 45, 95
6, 34440, Note_off_c, 10, 69, 80
6, 34440, Note_off_c, 10, 64, 80
6, 34440, Note_off_c, 10, 61, 80
6, 34440, Note_off_c, 10, 57, 80
6, 34440, Note_off_c, 10, 52, 80
6, 34440, Note_off_c, 10, 45, 80
6, 34440, Note_on_c, 10, 69, 95
6, 34440, Note_on_c, 10, 64, 95
6, 34440, Note_on_c, 10, 61, 95
6, 34440, Note_on_c, 10, 57, 95
6, 34440, Note_on_c, 10, 52, 95
6, 34440, Note_on_c, 10, 45, 95
6, 34560, Note_off_c, 10, 69, 80
6, 34560, Note_off_c, 10, 64, 80
6, 34560, Note_off_c, 10, 61, 80
6, 34560, Note_off_c, 10, 57, 80
6, 34560, Note_off_c, 10, 52, 80
6, 34560, Note_off_c, 10, 45, 80
6, 34560, Note_on_c, 10, 64, 95
6, 34560, Note_on_c, 10, 59, 95
6, 34560, Note_on_c, 10, 56, 95
6, 34560, Note_on_c, 10, 52, 95
6, 34560, Note_on_c, 10, 47, 95
6, 34560, Note_on_c, 10, 40, 95
6, 34680, Note_off_c, 10, 64, 80
6, 34680, Note_off_c, 10, 59, 80
6, 34680, Note_off_c, 10, 56, 80
6, 34680, Note_off_c, 10, 52, 80
6, 34680, Note_off_c, 10, 47, 80
6, 34680, Note_off_c, 10, 40, 80
6, 34680, Note_on_c, 10, 64, 95
6, 34680, Note_on_c, 10, 59, 95
6, 34680, Note_on_c, 10, 56, 95
6, 34680, Note_on_c, 10, 52, 95
6, 34680, Note_on_c, 10, 47, 95
6, 34680, Note_on_c, 10, 40, 95
6, 34800, Note_off_c, 10, 64, 80
6, 34800, Note_off_c, 10, 59, 80
6, 34800, Note_off_c, 10, 56, 80
6, 34800, Note_off_c, 10, 52, 80
6, 34800, Note_off_c, 10, 47, 80
6, 34800, Note_off_c, 10, 40, 80
6, 34800, Note_on_c, 10, 64, 95
6, 34800, Note_on_c, 10, 59, 95
6, 34800, Note_on_c, 10, 56, 95
6, 34800, Note_on_c, 10, 52, 95
6, 34800, Note_on_c, 10, 47, 95
6, 34800, Note_on_c, 10, 40, 95
6, 35040, Note_off_c, 10, 64, 80
6, 35040, Note_off_c, 10, 59, 80
6, 35040, Note_off_c, 10, 56, 80
6, 35040, Note_off_c, 10, 52, 80
6, 35040, Note_off_c, 10, 47, 80
6, 35040, Note_off_c, 10, 40, 80
6, 35040, Note_on_c, 10, 64, 95
6, 35040, Note_on_c, 10, 59, 95
6, 35040, Note_on_c, 10, 56, 95
6, 35040, Note_on_c, 10, 52, 95
6, 35040, Note_on_c, 10, 47, 95
6, 35040, Note_on_c, 10, 40, 95
6, 35400, Note_off_c, 10, 64, 80
6, 35400, Note_off_c, 10, 59, 80
6, 35400, Note_off_c, 10, 56, 80
6, 35400, Note_off_c, 10, 52, 80
6, 35400, Note_off_c, 10, 47, 80
6, 35400, Note_off_c, 10, 40, 80
6, 35400, Note_on_c, 10, 64, 95
6, 35400, Note_on_c, 10, 59, 95
6, 35400, Note_on_c, 10, 56, 95
6, 35400, Note_on_c, 10, 52, 95
6, 35400, Note_on_c, 10, 47, 95
6, 35400, Note_on_c, 10, 40, 95
6, 35520, Note_off_c, 10, 64, 80
6, 35520, Note_off_c, 10, 59, 80
6, 35520, Note_off_c, 10, 56, 80
6, 35520, Note_off_c, 10, 52, 80
6, 35520, Note_off_c, 10, 47, 80
6, 35520, Note_off_c, 10, 40, 80
6, 35520, Note_on_c, 10, 66, 95
6, 35520, Note_on_c, 10, 61, 95
6, 35520, Note_on_c, 10, 58, 95
6, 35520, Note_on_c, 10, 54, 95
6, 35520, Note_on_c, 10, 49, 95
6, 35520, Note_on_c, 10, 42, 95
6, 35640, Note_off_c, 10, 66, 80
6, 35640, Note_off_c, 10, 61, 80
6, 35640, Note_off_c, 10, 58, 80
6, 35640, Note_off_c, 10, 54, 80
6, 35640, Note_off_c, 10, 49, 80
6, 35640, Note_off_c, 10, 42, 80
6, 35640, Note_on_c, 10, 66, 95
6, 35640, Note_on_c, 10, 61, 95
6, 35640, Note_on_c, 10, 58, 95
6, 35640, Note_on_c, 10, 54, 95
6, 35640, Note_on_c, 10, 49, 95
6, 35640, Note_on_c, 10, 42, 95
6, 35760, Note_off_c, 10, 66, 80
6, 35760, Note_off_c, 10, 61, 80
6, 35760, Note_off_c, 10, 58, 80
6, 35760, Note_off_c, 10, 54, 80
6, 35760, Note_off_c, 10, 49, 80
6, 35760, Note_off_c, 10, 42, 80
6, 35760, Note_on_c, 10, 66, 95
6, 35760, Note_on_c, 10, 61, 95
6, 35760, Note_on_c, 10, 58, 95
6, 35760, Note_on_c, 10, 54, 95
6, 35760, Note_on_c, 10, 49, 95
6, 35760, Note_on_c, 10, 42, 95
6, 36000, Note_off_c, 10, 66, 80
6, 36000, Note_off_c, 10, 61, 80
6, 36000, Note_off_c, 10, 58, 80
6, 36000, Note_off_c, 10, 54, 80
6, 36000, Note_off_c, 10, 49, 80
6, 36000, Note_off_c, 10, 42, 80
6, 36000, Note_on_c, 10, 66, 95
6, 36000, Note_on_c, 10, 61, 95
6, 36000, Note_on_c, 10, 58, 95
6, 36000, Note_on_c, 10, 54, 95
6, 36000, Note_on_c, 10, 49, 95
6, 36000, Note_on_c, 10, 42, 95
6, 36240, Note_off_c, 10, 66, 80
6, 36240, Note_off_c, 10, 61, 80
6, 36240, Note_off_c, 10, 58, 80
6, 36240, Note_off_c, 10, 54, 80
6, 36240, Note_off_c, 10, 49, 80
6, 36240, Note_off_c, 10, 42, 80
6, 36240, Note_on_c, 10, 66, 95
6, 36240, Note_on_c, 10, 61, 95
6, 36240, Note_on_c, 10, 58, 95
6, 36240, Note_on_c, 10, 54, 95
6, 36240, Note_on_c, 10, 49, 95
6, 36240, Note_on_c, 10, 42, 95
6, 36360, Note_off_c, 10, 66, 80
6, 36360, Note_off_c, 10, 61, 80
6, 36360, Note_off_c, 10, 58, 80
6, 36360, Note_off_c, 10, 54, 80
6, 36360, Note_off_c, 10, 49, 80
6, 36360, Note_off_c, 10, 42, 80
6, 36360, Note_on_c, 10, 66, 95
6, 36360, Note_on_c, 10, 61, 95
6, 36360, Note_on_c, 10, 58, 95
6, 36360, Note_on_c, 10, 54, 95
6, 36360, Note_on_c, 10, 49, 95
6, 36360, Note_on_c, 10, 42, 95
6, 36480, Note_off_c, 10, 66, 80
6, 36480, Note_off_c, 10, 61, 80
6, 36480, Note_off_c, 10, 58, 80
6, 36480, Note_off_c, 10, 54, 80
6, 36480, Note_off_c, 10, 49, 80
6, 36480, Note_off_c, 10, 42, 80
6, 36480, Note_on_c, 10, 71, 95
6, 36480, Note_on_c, 10, 66, 95
6, 36480, Note_on_c, 10, 63, 95
6, 36480, Note_on_c, 10, 59, 95
6, 36480, Note_on_c, 10, 54, 95
6, 36480, Note_on_c, 10, 47, 95
6, 36960, Note_off_c, 10, 71, 80
6, 36960, Note_off_c, 10, 66, 80
6, 36960, Note_off_c, 10, 63, 80
6, 36960, Note_off_c, 10, 59, 80
6, 36960, Note_off_c, 10, 54, 80
6, 36960, Note_off_c, 10, 47, 80
6, 36960, Note_on_c, 10, 71, 95
6, 36960, Note_on_c, 10, 66, 95
6, 36960, Note_on_c, 10, 63, 95
6, 36960, Note_on_c, 10, 59, 95
6, 36960, Note_on_c, 10, 54, 95
6, 36960, Note_on_c, 10, 47, 95
6, 37200, Note_off_c, 10, 71, 80
6, 37200, Note_off_c, 10, 66, 80
6, 37200, Note_off_c, 10, 63, 80
6, 37200, Note_off_c, 10, 59, 80
6, 37200, Note_off_c, 10, 54, 80
6, 37200, Note_off_c, 10, 47, 80
6, 37200, Note_on_c, 10, 71, 95
6, 37200, Note_on_c, 10, 66, 95
6, 37200, Note_on_c, 10, 63, 95
6, 37200, Note_on_c, 10, 59, 95
6, 37200, Note_on_c, 10, 54, 95
6, 37200, Note_on_c, 10, 47, 95
6, 37320, Note_off_c, 10, 71, 80
6, 37320, Note_off_c, 10, 66, 80
6, 37320, Note_off_c, 10, 63, 80
6, 37320, Note_off_c, 10, 59, 80
6, 37320, Note_off_c, 10, 54, 80
6, 37320, Note_off_c, 10, 47, 80
6, 37320, Note_on_c, 10, 71, 95
6, 37320, Note_on_c, 10, 66, 95
6, 37320, Note_on_c, 10, 63, 95
6, 37320, Note_on_c, 10, 59, 95
6, 37320, Note_on_c, 10, 54, 95
6, 37320, Note_on_c, 10, 47, 95
6, 37440, Note_off_c, 10, 71, 80
6, 37440, Note_off_c, 10, 66, 80
6, 37440, Note_off_c, 10, 63, 80
6, 37440, Note_off_c, 10, 59, 80
6, 37440, Note_off_c, 10, 54, 80
6, 37440, Note_off_c, 10, 47, 80
6, 37440, Note_on_c, 10, 64, 95
6, 37440, Note_on_c, 10, 59, 95
6, 37440, Note_on_c, 10, 56, 95
6, 37440, Note_on_c, 10, 52, 95
6, 37440, Note_on_c, 10, 47, 95
6, 37440, Note_on_c, 10, 40, 95
6, 37560, Note_off_c, 10, 64, 80
6, 37560, Note_off_c, 10, 59, 80
6, 37560, Note_off_c, 10, 56, 80
6, 37560, Note_off_c, 10, 52, 80
6, 37560, Note_off_c, 10, 47, 80
6, 37560, Note_off_c, 10, 40, 80
6, 37560, Note_on_c, 10, 64, 95
6, 37560, Note_on_c, 10, 59, 95
6, 37560, Note_on_c, 10, 56, 95
6, 37560, Note_on_c, 10, 52, 95
6, 37560, Note_on_c, 10, 47, 95
6, 37560, Note_on_c, 10, 40, 95
6, 37680, Note_off_c, 10, 64, 80
6, 37680, Note_off_c, 10, 59, 80
6, 37680, Note_off_c, 10, 56, 80
6, 37680, Note_off_c, 10, 52, 80
6, 37680, Note_off_c, 10, 47, 80
6, 37680, Note_off_c, 10, 40, 80
6, 37680, Note_on_c, 10, 64, 95
6, 37680, Note_on_c, 10, 59, 95
6, 37680, Note_on_c, 10, 56, 95
6, 37680, Note_on_c, 10, 52, 95
6, 37680, Note_on_c, 10, 47, 95
6, 37680, Note_on_c, 10, 40, 95
6, 37920, Note_off_c, 10, 64, 80
6, 37920, Note_off_c, 10, 59, 80
6, 37920, Note_off_c, 10, 56, 80
6, 37920, Note_off_c, 10, 52, 80
6, 37920, Note_off_c, 10, 47, 80
6, 37920, Note_off_c, 10, 40, 80
6, 37920, Note_on_c, 10, 64, 95
6, 37920, Note_on_c, 10, 59, 95
6, 37920, Note_on_c, 10, 56, 95
6, 37920, Note_on_c, 10, 52, 95
6, 37920, Note_on_c, 10, 47, 95
6, 37920, Note_on_c, 10, 40, 95
6, 38280, Note_off_c, 10, 64, 80
6, 38280, Note_off_c, 10, 59, 80
6, 38280, Note_off_c, 10, 56, 80
6, 38280, Note_off_c, 10, 52, 80
6, 38280, Note_off_c, 10, 47, 80
6, 38280, Note_off_c, 10, 40, 80
6, 38280, Note_on_c, 10, 64, 95
6, 38280, Note_on_c, 10, 59, 95
6, 38280, Note_on_c, 10, 56, 95
6, 38280, Note_on_c, 10, 52, 95
6, 38280, Note_on_c, 10, 47, 95
6, 38280, Note_on_c, 10, 40, 95
6, 38400, Note_off_c, 10, 64, 80
6, 38400, Note_off_c, 10, 59, 80
6, 38400, Note_off_c, 10, 56, 80
6, 38400, Note_off_c, 10, 52, 80
6, 38400, Note_off_c, 10, 47, 80
6, 38400, Note_off_c, 10, 40, 80
6, 38400, Note_on_c, 10, 66, 95
6, 38400, Note_on_c, 10, 61, 95
6, 38400, Note_on_c, 10, 58, 95
6, 38400, Note_on_c, 10, 54, 95
6, 38400, Note_on_c, 10, 49, 95
6, 38400, Note_on_c, 10, 42, 95
6, 38520, Note_off_c, 10, 66, 80
6, 38520, Note_off_c, 10, 61, 80
6, 38520, Note_off_c, 10, 58, 80
6, 38520, Note_off_c, 10, 54, 80
6, 38520, Note_off_c, 10, 49, 80
6, 38520, Note_off_c, 10, 42, 80
6, 38520, Note_on_c, 10, 66, 95
6, 38520, Note_on_c, 10, 61, 95
6, 38520, Note_on_c, 10, 58, 95
6, 38520, Note_on_c, 10, 54, 95
6, 38520, Note_on_c, 10, 49, 95
6, 38520, Note_on_c, 10, 42, 95
6, 38640, Note_off_c, 10, 66, 80
6, 38640, Note_off_c, 10, 61, 80
6, 38640, Note_off_c, 10, 58, 80
6, 38640, Note_off_c, 10, 54, 80
6, 38640, Note_off_c, 10, 49, 80
6, 38640, Note_off_c, 10, 42, 80
6, 38640, Note_on_c, 10, 66, 95
6, 38640, Note_on_c, 10, 61, 95
6, 38640, Note_on_c, 10, 58, 95
6, 38640, Note_on_c, 10, 54, 95
6, 38640, Note_on_c, 10, 49, 95
6, 38640, Note_on_c, 10, 42, 95
6, 38880, Note_off_c, 10, 66, 80
6, 38880, Note_off_c, 10, 61, 80
6, 38880, Note_off_c, 10, 58, 80
6, 38880, Note_off_c, 10, 54, 80
6, 38880, Note_off_c, 10, 49, 80
6, 38880, Note_off_c, 10, 42, 80
6, 38880, Note_on_c, 10, 66, 95
6, 38880, Note_on_c, 10, 61, 95
6, 38880, Note_on_c, 10, 58, 95
6, 38880, Note_on_c, 10, 54, 95
6, 38880, Note_on_c, 10, 49, 95
6, 38880, Note_on_c, 10, 42, 95
6, 39240, Note_off_c, 10, 66, 80
6, 39240, Note_off_c, 10, 61, 80
6, 39240, Note_off_c, 10, 58, 80
6, 39240, Note_off_c, 10, 54, 80
6, 39240, Note_off_c, 10, 49, 80
6, 39240, Note_off_c, 10, 42, 80
6, 39240, Note_on_c, 10, 66, 95
6, 39240, Note_on_c, 10, 61, 95
6, 39240, Note_on_c, 10, 58, 95
6, 39240, Note_on_c, 10, 54, 95
6, 39240, Note_on_c, 10, 49, 95
6, 39240, Note_on_c, 10, 42, 95
6, 39360, Note_off_c, 10, 66, 80
6, 39360, Note_off_c, 10, 61, 80
6, 39360, Note_off_c, 10, 58, 80
6, 39360, Note_off_c, 10, 54, 80
6, 39360, Note_off_c, 10, 49, 80
6, 39360, Note_off_c, 10, 42, 80
6, 39360, Note_on_c, 10, 64, 95
6, 39360, Note_on_c, 10, 59, 95
6, 39360, Note_on_c, 10, 56, 95
6, 39360, Note_on_c, 10, 52, 95
6, 39360, Note_on_c, 10, 47, 95
6, 39360, Note_on_c, 10, 40, 95
6, 39480, Note_off_c, 10, 64, 80
6, 39480, Note_off_c, 10, 59, 80
6, 39480, Note_off_c, 10, 56, 80
6, 39480, Note_off_c, 10, 52, 80
6, 39480, Note_off_c, 10, 47, 80
6, 39480, Note_off_c, 10, 40, 80
6, 39480, Note_on_c, 10, 64, 95
6, 39480, Note_on_c, 10, 59, 95
6, 39480, Note_on_c, 10, 56, 95
6, 39480, Note_on_c, 10, 52, 95
6, 39480, Note_on_c, 10, 47, 95
6, 39480, Note_on_c, 10, 40, 95
6, 39600, Note_off_c, 10, 64, 80
6, 39600, Note_off_c, 10, 59, 80
6, 39600, Note_off_c, 10, 56, 80
6, 39600, Note_off_c, 10, 52, 80
6, 39600, Note_off_c, 10, 47, 80
6, 39600, Note_off_c, 10, 40, 80
6, 39600, Note_on_c, 10, 64, 95
6, 39600, Note_on_c, 10, 59, 95
6, 39600, Note_on_c, 10, 56, 95
6, 39600, Note_on_c, 10, 52, 95
6, 39600, Note_on_c, 10, 47, 95
6, 39600, Note_on_c, 10, 40, 95
6, 39840, Note_off_c, 10, 64, 80
6, 39840, Note_off_c, 10, 59, 80
6, 39840, Note_off_c, 10, 56, 80
6, 39840, Note_off_c, 10, 52, 80
6, 39840, Note_off_c, 10, 47, 80
6, 39840, Note_off_c, 10, 40, 80
6, 39840, Note_on_c, 10, 64, 95
6, 39840, Note_on_c, 10, 59, 95
6, 39840, Note_on_c, 10, 56, 95
6, 39840, Note_on_c, 10, 52, 95
6, 39840, Note_on_c, 10, 47, 95
6, 39840, Note_on_c, 10, 40, 95
6, 40080, Note_off_c, 10, 64, 80
6, 40080, Note_off_c, 10, 59, 80
6, 40080, Note_off_c, 10, 56, 80
6, 40080, Note_off_c, 10, 52, 80
6, 40080, Note_off_c, 10, 47, 80
6, 40080, Note_off_c, 10, 40, 80
6, 40080, Note_on_c, 10, 64, 95
6, 40080, Note_on_c, 10, 59, 95
6, 40080, Note_on_c, 10, 56, 95
6, 40080, Note_on_c, 10, 52, 95
6, 40080, Note_on_c, 10, 47, 95
6, 40080, Note_on_c, 10, 40, 95
6, 40200, Note_off_c, 10, 64, 80
6, 40200, Note_off_c, 10, 59, 80
6, 40200, Note_off_c, 10, 56, 80
6, 40200, Note_off_c, 10, 52, 80
6, 40200, Note_off_c, 10, 47, 80
6, 40200, Note_off_c, 10, 40, 80
6, 40200, Note_on_c, 10, 64, 95
6, 40200, Note_on_c, 10, 59, 95
6, 40200, Note_on_c, 10, 56, 95
6, 40200, Note_on_c, 10, 52, 95
6, 40200, Note_on_c, 10, 47, 95
6, 40200, Note_on_c, 10, 40, 95
6, 40320, Note_off_c, 10, 64, 80
6, 40320, Note_off_c, 10, 59, 80
6, 40320, Note_off_c, 10, 56, 80
6, 40320, Note_off_c, 10, 52, 80
6, 40320, Note_off_c, 10, 47, 80
6, 40320, Note_off_c, 10, 40, 80
6, 40320, Note_on_c, 10, 71, 95
6, 40320, Note_on_c, 10, 66, 95
6, 40320, Note_on_c, 10, 63, 95
6, 40320, Note_on_c, 10, 59, 95
6, 40320, Note_on_c, 10, 54, 95
6, 40320, Note_on_c, 10, 47, 95
6, 40800, Note_off_c, 10, 71, 80
6, 40800, Note_off_c, 10, 66, 80
6, 40800, Note_off_c, 10, 63, 80
6, 40800, Note_off_c, 10, 59, 80
6, 40800, Note_off_c, 10, 54, 80
6, 40800, Note_off_c, 10, 47, 80
6, 40800, Note_on_c, 10, 71, 95
6, 40800, Note_on_c, 10, 66, 95
6, 40800, Note_on_c, 10, 63, 95
6, 40800, Note_on_c, 10, 59, 95
6, 40800, Note_on_c, 10, 54, 95
6, 40800, Note_on_c, 10, 47, 95
6, 41040, Note_off_c, 10, 71, 80
6, 41040, Note_off_c, 10, 66, 80
6, 41040, Note_off_c, 10, 63, 80
6, 41040, Note_off_c, 10, 59, 80
6, 41040, Note_off_c, 10, 54, 80
6, 41040, Note_off_c, 10, 47, 80
6, 41040, Note_on_c, 10, 71, 95
6, 41040, Note_on_c, 10, 66, 95
6, 41040, Note_on_c, 10, 63, 95
6, 41040, Note_on_c, 10, 59, 95
6, 41040, Note_on_c, 10, 54, 95
6, 41040, Note_on_c, 10, 47, 95
6, 41160, Note_off_c, 10, 71, 80
6, 41160, Note_off_c, 10, 66, 80
6, 41160, Note_off_c, 10, 63, 80
6, 41160, Note_off_c, 10, 59, 80
6, 41160, Note_off_c, 10, 54, 80
6, 41160, Note_off_c, 10, 47, 80
6, 41160, Note_on_c, 10, 71, 95
6, 41160, Note_on_c, 10, 66, 95
6, 41160, Note_on_c, 10, 63, 95
6, 41160, Note_on_c, 10, 59, 95
6, 41160, Note_on_c, 10, 54, 95
6, 41160, Note_on_c, 10, 47, 95
6, 41280, Note_off_c, 10, 71, 80
6, 41280, Note_off_c, 10, 66, 80
6, 41280, Note_off_c, 10, 63, 80
6, 41280, Note_off_c, 10, 59, 80
6, 41280, Note_off_c, 10, 54, 80
6, 41280, Note_off_c, 10, 47, 80
6, 41280, Note_on_c, 10, 64, 95
6, 41280, Note_on_c, 10, 59, 95
6, 41280, Note_on_c, 10, 56, 95
6, 41280, Note_on_c, 10, 52, 95
6, 41280, Note_on_c, 10, 47, 95
6, 41280, Note_on_c, 10, 40, 95
6, 41400, Note_off_c, 10, 64, 80
6, 41400, Note_off_c, 10, 59, 80
6, 41400, Note_off_c, 10, 56, 80
6, 41400, Note_off_c, 10, 52, 80
6, 41400, Note_off_c, 10, 47, 80
6, 41400, Note_off_c, 10, 40, 80
6, 41400, Note_on_c, 10, 64, 95
6, 41400, Note_on_c, 10, 59, 95
6, 41400, Note_on_c, 10, 56, 95
6, 41400, Note_on_c, 10, 52, 95
6, 41400, Note_on_c, 10, 47, 95
6, 41400, Note_on_c, 10, 40, 95
6, 41520, Note_off_c, 10, 64, 80
6, 41520, Note_off_c, 10, 59, 80
6, 41520, Note_off_c, 10, 56, 80
6, 41520, Note_off_c, 10, 52, 80
6, 41520, Note_off_c, 10, 47, 80
6, 41520, Note_off_c, 10, 40, 80
6, 41520, Note_on_c, 10, 64, 95
6, 41520, Note_on_c, 10, 59, 95
6, 41520, Note_on_c, 10, 56, 95
6, 41520, Note_on_c, 10, 52, 95
6, 41520, Note_on_c, 10, 47, 95
6, 41520, Note_on_c, 10, 40, 95
6, 41760, Note_off_c, 10, 64, 80
6, 41760, Note_off_c, 10, 59, 80
6, 41760, Note_off_c, 10, 56, 80
6, 41760, Note_off_c, 10, 52, 80
6, 41760, Note_off_c, 10, 47, 80
6, 41760, Note_off_c, 10, 40, 80
6, 41760, Note_on_c, 10, 64, 95
6, 41760, Note_on_c, 10, 59, 95
6, 41760, Note_on_c, 10, 56, 95
6, 41760, Note_on_c, 10, 52, 95
6, 41760, Note_on_c, 10, 47, 95
6, 41760, Note_on_c, 10, 40, 95
6, 42120, Note_off_c, 10, 64, 80
6, 42120, Note_off_c, 10, 59, 80
6, 42120, Note_off_c, 10, 56, 80
6, 42120, Note_off_c, 10, 52, 80
6, 42120, Note_off_c, 10, 47, 80
6, 42120, Note_off_c, 10, 40, 80
6, 42120, Note_on_c, 10, 64, 95
6, 42120, Note_on_c, 10, 59, 95
6, 42120, Note_on_c, 10, 56, 95
6, 42120, Note_on_c, 10, 52, 95
6, 42120, Note_on_c, 10, 47, 95
6, 42120, Note_on_c, 10, 40, 95
6, 42240, Note_off_c, 10, 64, 80
6, 42240, Note_off_c, 10, 59, 80
6, 42240, Note_off_c, 10, 56, 80
6, 42240, Note_off_c, 10, 52, 80
6, 42240, Note_off_c, 10, 47, 80
6, 42240, Note_off_c, 10, 40, 80
6, 42240, Note_on_c, 10, 66, 95
6, 42240, Note_on_c, 10, 61, 95
6, 42240, Note_on_c, 10, 58, 95
6, 42240, Note_on_c, 10, 54, 95
6, 42240, Note_on_c, 10, 49, 95
6, 42240, Note_on_c, 10, 42, 95
6, 42360, Note_off_c, 10, 66, 80
6, 42360, Note_off_c, 10, 61, 80
6, 42360, Note_off_c, 10, 58, 80
6, 42360, Note_off_c, 10, 54, 80
6, 42360, Note_off_c, 10, 49, 80
6, 42360, Note_off_c, 10, 42, 80
6, 42360, Note_on_c, 10, 66, 95
6, 42360, Note_on_c, 10, 61, 95
6, 42360, Note_on_c, 10, 58, 95
6, 42360, Note_on_c, 10, 54, 95
6, 42360, Note_on_c, 10, 49, 95
6, 42360, Note_on_c, 10, 42, 95
6, 42480, Note_off_c, 10, 66, 80
6, 42480, Note_off_c, 10, 61, 80
6, 42480, Note_off_c, 10, 58, 80
6, 42480, Note_off_c, 10, 54, 80
6, 42480, Note_off_c, 10, 49, 80
6, 42480, Note_off_c, 10, 42, 80
6, 42480, Note_on_c, 10, 66, 95
6, 42480, Note_on_c, 10, 61, 95
6, 42480, Note_on_c, 10, 58, 95
6, 42480, Note_on_c, 10, 54, 95
6, 42480, Note_on_c, 10, 49, 95
6, 42480, Note_on_c, 10, 42, 95
6, 42720, Note_off_c, 10, 66, 80
6, 42720, Note_off_c, 10, 61, 80
6, 42720, Note_off_c, 10, 58, 80
6, 42720, Note_off_c, 10, 54, 80
6, 42720, Note_off_c, 10, 49, 80
6, 42720, Note_off_c, 10, 42, 80
6, 42720, Note_on_c, 10, 66, 95
6, 42720, Note_on_c, 10, 61, 95
6, 42720, Note_on_c, 10, 58, 95
6, 42720, Note_on_c, 10, 54, 95
6, 42720, Note_on_c, 10, 49, 95
6, 42720, Note_on_c, 10, 42, 95
6, 43080, Note_off_c, 10, 66, 80
6, 43080, Note_off_c, 10, 61, 80
6, 43080, Note_off_c, 10, 58, 80
6, 43080, Note_off_c, 10, 54, 80
6, 43080, Note_off_c, 10, 49, 80
6, 43080, Note_off_c, 10, 42, 80
6, 43080, Note_on_c, 10, 66, 95
6, 43080, Note_on_c, 10, 61, 95
6, 43080, Note_on_c, 10, 58, 95
6, 43080, Note_on_c, 10, 54, 95
6, 43080, Note_on_c, 10, 49, 95
6, 43080, Note_on_c, 10, 42, 95
6, 43200, Note_off_c, 10, 66, 80
6, 43200, Note_off_c, 10, 61, 80
6, 43200, Note_off_c, 10, 58, 80
6, 43200, Note_off_c, 10, 54, 80
6, 43200, Note_off_c, 10, 49, 80
6, 43200, Note_off_c, 10, 42, 80
6, 43200, Note_on_c, 10, 64, 95
6, 43200, Note_on_c, 10, 59, 95
6, 43200, Note_on_c, 10, 56, 95
6, 43200, Note_on_c, 10, 52, 95
6, 43200, Note_on_c, 10, 47, 95
6, 43200, Note_on_c, 10, 40, 95
6, 43320, Note_off_c, 10, 64, 80
6, 43320, Note_off_c, 10, 59, 80
6, 43320, Note_off_c, 10, 56, 80
6, 43320, Note_off_c, 10, 52, 80
6, 43320, Note_off_c, 10, 47, 80
6, 43320, Note_off_c, 10, 40, 80
6, 43320, Note_on_c, 10, 64, 95
6, 43320, Note_on_c, 10, 59, 95
6, 43320, Note_on_c, 10, 56, 95
6, 43320, Note_on_c, 10, 52, 95
6, 43320, Note_on_c, 10, 47, 95
6, 43320, Note_on_c, 10, 40, 95
6, 43440, Note_off_c, 10, 64, 80
6, 43440, Note_off_c, 10, 59, 80
6, 43440, Note_off_c, 10, 56, 80
6, 43440, Note_off_c, 10, 52, 80
6, 43440, Note_off_c, 10, 47, 80
6, 43440, Note_off_c, 10, 40, 80
6, 43440, Note_on_c, 10, 64, 95
6, 43440, Note_on_c, 10, 59, 95
6, 43440, Note_on_c, 10, 56, 95
6, 43440, Note_on_c, 10, 52, 95
6, 43440, Note_on_c, 10, 47, 95
6, 43440, Note_on_c, 10, 40, 95
6, 43680, Note_off_c, 10, 64, 80
6, 43680, Note_off_c, 10, 59, 80
6, 43680, Note_off_c, 10, 56, 80
6, 43680, Note_off_c, 10, 52, 80
6, 43680, Note_off_c, 10, 47, 80
6, 43680, Note_off_c, 10, 40, 80
6, 43680, Note_on_c, 10, 64, 95
6, 43680, Note_on_c, 10, 59, 95
6, 43680, Note_on_c, 10, 56, 95
6, 43680, Note_on_c, 10, 52, 95
6, 43680, Note_on_c, 10, 47, 95
6, 43680, Note_on_c, 10, 40, 95
6, 43920, Note_off_c, 10, 64, 80
6, 43920, Note_off_c, 10, 59, 80
6, 43920, Note_off_c, 10, 56, 80
6, 43920, Note_off_c, 10, 52, 80
6, 43920, Note_off_c, 10, 47, 80
6, 43920, Note_off_c, 10, 40, 80
6, 43920, Note_on_c, 10, 64, 95
6, 43920, Note_on_c, 10, 59, 95
6, 43920, Note_on_c, 10, 56, 95
6, 43920, Note_on_c, 10, 52, 95
6, 43920, Note_on_c, 10, 47, 95
6, 43920, Note_on_c, 10, 40, 95
6, 44040, Note_off_c, 10, 64, 80
6, 44040, Note_off_c, 10, 59, 80
6, 44040, Note_off_c, 10, 56, 80
6, 44040, Note_off_c, 10, 52, 80
6, 44040, Note_off_c, 10, 47, 80
6, 44040, Note_off_c, 10, 40, 80
6, 44040, Note_on_c, 10, 64, 95
6, 44040, Note_on_c, 10, 59, 95
6, 44040, Note_on_c, 10, 56, 95
6, 44040, Note_on_c, 10, 52, 95
6, 44040, Note_on_c, 10, 47, 95
6, 44040, Note_on_c, 10, 40, 95
6, 44160, Note_off_c, 10, 64, 80
6, 44160, Note_off_c, 10, 59, 80
6, 44160, Note_off_c, 10, 56, 80
6, 44160, Note_off_c, 10, 52, 80
6, 44160, Note_off_c, 10, 47, 80
6, 44160, Note_off_c, 10, 40, 80
6, 44160, Note_on_c, 10, 71, 95
6, 44160, Note_on_c, 10, 66, 95
6, 44160, Note_on_c, 10, 63, 95
6, 44160, Note_on_c, 10, 59, 95
6, 44160, Note_on_c, 10, 54, 95
6, 44160, Note_on_c, 10, 47, 95
6, 44640, Note_off_c, 10, 71, 80
6, 44640, Note_off_c, 10, 66, 80
6, 44640, Note_off_c, 10, 63, 80
6, 44640, Note_off_c, 10, 59, 80
6, 44640, Note_off_c, 10, 54, 80
6, 44640, Note_off_c, 10, 47, 80
6, 44640, Note_on_c, 10, 71, 95
6, 44640, Note_on_c, 10, 66, 95
6, 44640, Note_on_c, 10, 63, 95
6, 44640, Note_on_c, 10, 59, 95
6, 44640, Note_on_c, 10, 54, 95
6, 44640, Note_on_c, 10, 47, 95
6, 44880, Note_off_c, 10, 71, 80
6, 44880, Note_off_c, 10, 66, 80
6, 44880, Note_off_c, 10, 63, 80
6, 44880, Note_off_c, 10, 59, 80
6, 44880, Note_off_c, 10, 54, 80
6, 44880, Note_off_c, 10, 47, 80
6, 44880, Note_on_c, 10, 71, 95
6, 44880, Note_on_c, 10, 66, 95
6, 44880, Note_on_c, 10, 63, 95
6, 44880, Note_on_c, 10, 59, 95
6, 44880, Note_on_c, 10, 54, 95
6, 44880, Note_on_c, 10, 47, 95
6, 45000, Note_off_c, 10, 71, 80
6, 45000, Note_off_c, 10, 66, 80
6, 45000, Note_off_c, 10, 63, 80
6, 45000, Note_off_c, 10, 59, 80
6, 45000, Note_off_c, 10, 54, 80
6, 45000, Note_off_c, 10, 47, 80
6, 45000, Note_on_c, 10, 71, 95
6, 45000, Note_on_c, 10, 66, 95
6, 45000, Note_on_c, 10, 63, 95
6, 45000, Note_on_c, 10, 59, 95
6, 45000, Note_on_c, 10, 54, 95
6, 45000, Note_on_c, 10, 47, 95
6, 45120, Note_off_c, 10, 71, 80
6, 45120, Note_off_c, 10, 66, 80
6, 45120, Note_off_c, 10, 63, 80
6, 45120, Note_off_c, 10, 59, 80
6, 45120, Note_off_c, 10, 54, 80
6, 45120, Note_off_c, 10, 47, 80
6, 45120, Note_on_c, 10, 64, 95
6, 45120, Note_on_c, 10, 59, 95
6, 45120, Note_on_c, 10, 56, 95
6, 45120, Note_on_c, 10, 52, 95
6, 45120, Note_on_c, 10, 47, 95
6, 45120, Note_on_c, 10, 40, 95
6, 45240, Note_off_c, 10, 64, 80
6, 45240, Note_off_c, 10, 59, 80
6, 45240, Note_off_c, 10, 56, 80
6, 45240, Note_off_c, 10, 52, 80
6, 45240, Note_off_c, 10, 47, 80
6, 45240, Note_off_c, 10, 40, 80
6, 45240, Note_on_c, 10, 64, 95
6, 45240, Note_on_c, 10, 59, 95
6, 45240, Note_on_c, 10, 56, 95
6, 45240, Note_on_c, 10, 52, 95
6, 45240, Note_on_c, 10, 47, 95
6, 45240, Note_on_c, 10, 40, 95
6, 45360, Note_off_c, 10, 64, 80
6, 45360, Note_off_c, 10, 59, 80
6, 45360, Note_off_c, 10, 56, 80
6, 45360, Note_off_c, 10, 52, 80
6, 45360, Note_off_c, 10, 47, 80
6, 45360, Note_off_c, 10, 40, 80
6, 45360, Note_on_c, 10, 64, 95
6, 45360, Note_on_c, 10, 59, 95
6, 45360, Note_on_c, 10, 56, 95
6, 45360, Note_on_c, 10, 52, 95
6, 45360, Note_on_c, 10, 47, 95
6, 45360, Note_on_c, 10, 40, 95
6, 45600, Note_off_c, 10, 64, 80
6, 45600, Note_off_c, 10, 59, 80
6, 45600, Note_off_c, 10, 56, 80
6, 45600, Note_off_c, 10, 52, 80
6, 45600, Note_off_c, 10, 47, 80
6, 45600, Note_off_c, 10, 40, 80
6, 45600, Note_on_c, 10, 64, 95
6, 45600, Note_on_c, 10, 59, 95
6, 45600, Note_on_c, 10, 56, 95
6, 45600, Note_on_c, 10, 52, 95
6, 45600, Note_on_c, 10, 47, 95
6, 45600, Note_on_c, 10, 40, 95
6, 45960, Note_off_c, 10, 64, 80
6, 45960, Note_off_c, 10, 59, 80
6, 45960, Note_off_c, 10, 56, 80
6, 45960, Note_off_c, 10, 52, 80
6, 45960, Note_off_c, 10, 47, 80
6, 45960, Note_off_c, 10, 40, 80
6, 45960, Note_on_c, 10, 64, 95
6, 45960, Note_on_c, 10, 59, 95
6, 45960, Note_on_c, 10, 56, 95
6, 45960, Note_on_c, 10, 52, 95
6, 45960, Note_on_c, 10, 47, 95
6, 45960, Note_on_c, 10, 40, 95
6, 46080, Note_off_c, 10, 64, 80
6, 46080, Note_off_c, 10, 59, 80
6, 46080, Note_off_c, 10, 56, 80
6, 46080, Note_off_c, 10, 52, 80
6, 46080, Note_off_c, 10, 47, 80
6, 46080, Note_off_c, 10, 40, 80
6, 46080, Note_on_c, 10, 66, 95
6, 46080, Note_on_c, 10, 61, 95
6, 46080, Note_on_c, 10, 58, 95
6, 46080, Note_on_c, 10, 54, 95
6, 46080, Note_on_c, 10, 49, 95
6, 46080, Note_on_c, 10, 42, 95
6, 46200, Note_off_c, 10, 66, 80
6, 46200, Note_off_c, 10, 61, 80
6, 46200, Note_off_c, 10, 58, 80
6, 46200, Note_off_c, 10, 54, 80
6, 46200, Note_off_c, 10, 49, 80
6, 46200, Note_off_c, 10, 42, 80
6, 46200, Note_on_c, 10, 66, 95
6, 46200, Note_on_c, 10, 61, 95
6, 46200, Note_on_c, 10, 58, 95
6, 46200, Note_on_c, 10, 54, 95
6, 46200, Note_on_c, 10, 49, 95
6, 46200, Note_on_c, 10, 42, 95
6, 46320, Note_off_c, 10, 66, 80
6, 46320, Note_off_c, 10, 61, 80
6, 46320, Note_off_c, 10, 58, 80
6, 46320, Note_off_c, 10, 54, 80
6, 46320, Note_off_c, 10, 49, 80
6, 46320, Note_off_c, 10, 42, 80
6, 46320, Note_on_c, 10, 66, 95
6, 46320, Note_on_c, 10, 61, 95
6, 46320, Note_on_c, 10, 58, 95
6, 46320, Note_on_c, 10, 54, 95
6, 46320, Note_on_c, 10, 49, 95
6, 46320, Note_on_c, 10, 42, 95
6, 46560, Note_off_c, 10, 66, 80
6, 46560, Note_off_c, 10, 61, 80
6, 46560, Note_off_c, 10, 58, 80
6, 46560, Note_off_c, 10, 54, 80
6, 46560, Note_off_c, 10, 49, 80
6, 46560, Note_off_c, 10, 42, 80
6, 46560, Note_on_c, 10, 66, 95
6, 46560, Note_on_c, 10, 61, 95
6, 46560, Note_on_c, 10, 58, 95
6, 46560, Note_on_c, 10, 54, 95
6, 46560, Note_on_c, 10, 49, 95
6, 46560, Note_on_c, 10, 42, 95
6, 46920, Note_off_c, 10, 66, 80
6, 46920, Note_off_c, 10, 61, 80
6, 46920, Note_off_c, 10, 58, 80
6, 46920, Note_off_c, 10, 54, 80
6, 46920, Note_off_c, 10, 49, 80
6, 46920, Note_off_c, 10, 42, 80
6, 46920, Note_on_c, 10, 66, 95
6, 46920, Note_on_c, 10, 61, 95
6, 46920, Note_on_c, 10, 58, 95
6, 46920, Note_on_c, 10, 54, 95
6, 46920, Note_on_c, 10, 49, 95
6, 46920, Note_on_c, 10, 42, 95
6, 47040, Note_off_c, 10, 66, 80
6, 47040, Note_off_c, 10, 61, 80
6, 47040, Note_off_c, 10, 58, 80
6, 47040, Note_off_c, 10, 54, 80
6, 47040, Note_off_c, 10, 49, 80
6, 47040, Note_off_c, 10, 42, 80
6, 47040, Note_on_c, 10, 64, 95
6, 47040, Note_on_c, 10, 59, 95
6, 47040, Note_on_c, 10, 56, 95
6, 47040, Note_on_c, 10, 52, 95
6, 47040, Note_on_c, 10, 47, 95
6, 47040, Note_on_c, 10, 40, 95
6, 47160, Note_off_c, 10, 64, 80
6, 47160, Note_off_c, 10, 59, 80
6, 47160, Note_off_c, 10, 56, 80
6, 47160, Note_off_c, 10, 52, 80
6, 47160, Note_off_c, 10, 47, 80
6, 47160, Note_off_c, 10, 40, 80
6, 47160, Note_on_c, 10, 64, 95
6, 47160, Note_on_c, 10, 59, 95
6, 47160, Note_on_c, 10, 56, 95
6, 47160, Note_on_c, 10, 52, 95
6, 47160, Note_on_c, 10, 47, 95
6, 47160, Note_on_c, 10, 40, 95
6, 47280, Note_off_c, 10, 64, 80
6, 47280, Note_off_c, 10, 59, 80
6, 47280, Note_off_c, 10, 56, 80
6, 47280, Note_off_c, 10, 52, 80
6, 47280, Note_off_c, 10, 47, 80
6, 47280, Note_off_c, 10, 40, 80
6, 47280, Note_on_c, 10, 64, 95
6, 47280, Note_on_c, 10, 59, 95
6, 47280, Note_on_c, 10, 56, 95
6, 47280, Note_on_c, 10, 52, 95
6, 47280, Note_on_c, 10, 47, 95
6, 47280, Note_on_c, 10, 40, 95
6, 47520, Note_off_c, 10, 64, 80
6, 47520, Note_off_c, 10, 59, 80
6, 47520, Note_off_c, 10, 56, 80
6, 47520, Note_off_c, 10, 52, 80
6, 47520, Note_off_c, 10, 47, 80
6, 47520, Note_off_c, 10, 40, 80
6, 47520, Note_on_c, 10, 64, 95
6, 47520, Note_on_c, 10, 59, 95
6, 47520, Note_on_c, 10, 56, 95
6, 47520, Note_on_c, 10, 52, 95
6, 47520, Note_on_c, 10, 47, 95
6, 47520, Note_on_c, 10, 40, 95
6, 47760, Note_off_c, 10, 64, 80
6, 47760, Note_off_c, 10, 59, 80
6, 47760, Note_off_c, 10, 56, 80
6, 47760, Note_off_c, 10, 52, 80
6, 47760, Note_off_c, 10, 47, 80
6, 47760, Note_off_c, 10, 40, 80
6, 47760, Note_on_c, 10, 64, 95
6, 47760, Note_on_c, 10, 59, 95
6, 47760, Note_on_c, 10, 56, 95
6, 47760, Note_on_c, 10, 52, 95
6, 47760, Note_on_c, 10, 47, 95
6, 47760, Note_on_c, 10, 40, 95
6, 47880, Note_off_c, 10, 64, 80
6, 47880, Note_off_c, 10, 59, 80
6, 47880, Note_off_c, 10, 56, 80
6, 47880, Note_off_c, 10, 52, 80
6, 47880, Note_off_c, 10, 47, 80
6, 47880, Note_off_c, 10, 40, 80
6, 47880, Note_on_c, 10, 64, 95
6, 47880, Note_on_c, 10, 59, 95
6, 47880, Note_on_c, 10, 56, 95
6, 47880, Note_on_c, 10, 52, 95
6, 47880, Note_on_c, 10, 47, 95
6, 47880, Note_on_c, 10, 40, 95
6, 48000, Note_off_c, 10, 64, 80
6, 48000, Note_off_c, 10, 59, 80
6, 48000, Note_off_c, 10, 56, 80
6, 48000, Note_off_c, 10, 52, 80
6, 48000, Note_off_c, 10, 47, 80
6, 48000, Note_off_c, 10, 40, 80
6, 48000, Note_on_c, 10, 71, 95
6, 48000, Note_on_c, 10, 66, 95
6, 48000, Note_on_c, 10, 63, 95
6, 48000, Note_on_c, 10, 59, 95
6, 48000, Note_on_c, 10, 54, 95
6, 48000, Note_on_c, 10, 47, 95
6, 48480, Note_off_c, 10, 71, 80
6, 48480, Note_off_c, 10, 66, 80
6, 48480, Note_off_c, 10, 63, 80
6, 48480, Note_off_c, 10, 59, 80
6, 48480, Note_off_c, 10, 54, 80
6, 48480, Note_off_c, 10, 47, 80
6, 48480, Note_on_c, 10, 71, 95
6, 48480, Note_on_c, 10, 66, 95
6, 48480, Note_on_c, 10, 63, 95
6, 48480, Note_on_c, 10, 59, 95
6, 48480, Note_on_c, 10, 54, 95
6, 48480, Note_on_c, 10, 47, 95
6, 48720, Note_off_c, 10, 71, 80
6, 48720, Note_off_c, 10, 66, 80
6, 48720, Note_off_c, 10, 63, 80
6, 48720, Note_off_c, 10, 59, 80
6, 48720, Note_off_c, 10, 54, 80
6, 48720, Note_off_c, 10, 47, 80
6, 48720, Note_on_c, 10, 71, 95
6, 48720, Note_on_c, 10, 66, 95
6, 48720, Note_on_c, 10, 63, 95
6, 48720, Note_on_c, 10, 59, 95
6, 48720, Note_on_c, 10, 54, 95
6, 48720, Note_on_c, 10, 47, 95
6, 48840, Note_off_c, 10, 71, 80
6, 48840, Note_off_c, 10, 66, 80
6, 48840, Note_off_c, 10, 63, 80
6, 48840, Note_off_c, 10, 59, 80
6, 48840, Note_off_c, 10, 54, 80
6, 48840, Note_off_c, 10, 47, 80
6, 48840, Note_on_c, 10, 71, 95
6, 48840, Note_on_c, 10, 66, 95
6, 48840, Note_on_c, 10, 63, 95
6, 48840, Note_on_c, 10, 59, 95
6, 48840, Note_on_c, 10, 54, 95
6, 48840, Note_on_c, 10, 47, 95
6, 48960, Note_off_c, 10, 71, 80
6, 48960, Note_off_c, 10, 66, 80
6, 48960, Note_off_c, 10, 63, 80
6, 48960, Note_off_c, 10, 59, 80
6, 48960, Note_off_c, 10, 54, 80
6, 48960, Note_off_c, 10, 47, 80
6, 48960, Note_on_c, 10, 69, 95
6, 48960, Note_on_c, 10, 64, 95
6, 48960, Note_on_c, 10, 61, 95
6, 48960, Note_on_c, 10, 57, 95
6, 48960, Note_on_c, 10, 52, 95
6, 48960, Note_on_c, 10, 45, 95
6, 49080, Note_off_c, 10, 69, 80
6, 49080, Note_off_c, 10, 64, 80
6, 49080, Note_off_c, 10, 61, 80
6, 49080, Note_off_c, 10, 57, 80
6, 49080, Note_off_c, 10, 52, 80
6, 49080, Note_off_c, 10, 45, 80
6, 49080, Note_on_c, 10, 69, 95
6, 49080, Note_on_c, 10, 64, 95
6, 49080, Note_on_c, 10, 61, 95
6, 49080, Note_on_c, 10, 57, 95
6, 49080, Note_on_c, 10, 52, 95
6, 49080, Note_on_c, 10, 45, 95
6, 49200, Note_off_c, 10, 69, 80
6, 49200, Note_off_c, 10, 64, 80
6, 49200, Note_off_c, 10, 61, 80
6, 49200, Note_off_c, 10, 57, 80
6, 49200, Note_off_c, 10, 52, 80
6, 49200, Note_off_c, 10, 45, 80
6, 49200, Note_on_c, 10, 69, 95
6, 49200, Note_on_c, 10, 64, 95
6, 49200, Note_on_c, 10, 61, 95
6, 49200, Note_on_c, 10, 57, 95
6, 49200, Note_on_c, 10, 52, 95
6, 49200, Note_on_c, 10, 45, 95
6, 49440, Note_off_c, 10, 69, 80
6, 49440, Note_off_c, 10, 64, 80
6, 49440, Note_off_c, 10, 61, 80
6, 49440, Note_off_c, 10, 57, 80
6, 49440, Note_off_c, 10, 52, 80
6, 49440, Note_off_c, 10, 45, 80
6, 49440, Note_on_c, 10, 69, 95
6, 49440, Note_on_c, 10, 64, 95
6, 49440, Note_on_c, 10, 61, 95
6, 49440, Note_on_c, 10, 57, 95
6, 49440, Note_on_c, 10, 52, 95
6, 49440, Note_on_c, 10, 45, 95
6, 49800, Note_off_c, 10, 69, 80
6, 49800, Note_off_c, 10, 64, 80
6, 49800, Note_off_c, 10, 61, 80
6, 49800, Note_off_c, 10, 57, 80
6, 49800, Note_off_c, 10, 52, 80
6, 49800, Note_off_c, 10, 45, 80
6, 49800, Note_on_c, 10, 69, 95
6, 49800, Note_on_c, 10, 64, 95
6, 49800, Note_on_c, 10, 61, 95
6, 49800, Note_on_c, 10, 57, 95
6, 49800, Note_on_c, 10, 52, 95
6, 49800, Note_on_c, 10, 45, 95
6, 49920, Note_off_c, 10, 69, 80
6, 49920, Note_off_c, 10, 64, 80
6, 49920, Note_off_c, 10, 61, 80
6, 49920, Note_off_c, 10, 57, 80
6, 49920, Note_off_c, 10, 52, 80
6, 49920, Note_off_c, 10, 45, 80
6, 49920, Note_on_c, 10, 64, 95
6, 49920, Note_on_c, 10, 59, 95
6, 49920, Note_on_c, 10, 56, 95
6, 49920, Note_on_c, 10, 52, 95
6, 49920, Note_on_c, 10, 47, 95
6, 49920, Note_on_c, 10, 40, 95
6, 50040, Note_off_c, 10, 64, 80
6, 50040, Note_off_c, 10, 59, 80
6, 50040, Note_off_c, 10, 56, 80
6, 50040, Note_off_c, 10, 52, 80
6, 50040, Note_off_c, 10, 47, 80
6, 50040, Note_off_c, 10, 40, 80
6, 50040, Note_on_c, 10, 64, 95
6, 50040, Note_on_c, 10, 59, 95
6, 50040, Note_on_c, 10, 56, 95
6, 50040, Note_on_c, 10, 52, 95
6, 50040, Note_on_c, 10, 47, 95
6, 50040, Note_on_c, 10, 40, 95
6, 50160, Note_off_c, 10, 64, 80
6, 50160, Note_off_c, 10, 59, 80
6, 50160, Note_off_c, 10, 56, 80
6, 50160, Note_off_c, 10, 52, 80
6, 50160, Note_off_c, 10, 47, 80
6, 50160, Note_off_c, 10, 40, 80
6, 50160, Note_on_c, 10, 64, 95
6, 50160, Note_on_c, 10, 59, 95
6, 50160, Note_on_c, 10, 56, 95
6, 50160, Note_on_c, 10, 52, 95
6, 50160, Note_on_c, 10, 47, 95
6, 50160, Note_on_c, 10, 40, 95
6, 50400, Note_off_c, 10, 64, 80
6, 50400, Note_off_c, 10, 59, 80
6, 50400, Note_off_c, 10, 56, 80
6, 50400, Note_off_c, 10, 52, 80
6, 50400, Note_off_c, 10, 47, 80
6, 50400, Note_off_c, 10, 40, 80
6, 50400, Note_on_c, 10, 64, 95
6, 50400, Note_on_c, 10, 59, 95
6, 50400, Note_on_c, 10, 56, 95
6, 50400, Note_on_c, 10, 52, 95
6, 50400, Note_on_c, 10, 47, 95
6, 50400, Note_on_c, 10, 40, 95
6, 50760, Note_off_c, 10, 64, 80
6, 50760, Note_off_c, 10, 59, 80
6, 50760, Note_off_c, 10, 56, 80
6, 50760, Note_off_c, 10, 52, 80
6, 50760, Note_off_c, 10, 47, 80
6, 50760, Note_off_c, 10, 40, 80
6, 50760, Note_on_c, 10, 64, 95
6, 50760, Note_on_c, 10, 59, 95
6, 50760, Note_on_c, 10, 56, 95
6, 50760, Note_on_c, 10, 52, 95
6, 50760, Note_on_c, 10, 47, 95
6, 50760, Note_on_c, 10, 40, 95
6, 50880, Note_off_c, 10, 64, 80
6, 50880, Note_off_c, 10, 59, 80
6, 50880, Note_off_c, 10, 56, 80
6, 50880, Note_off_c, 10, 52, 80
6, 50880, Note_off_c, 10, 47, 80
6, 50880, Note_off_c, 10, 40, 80
6, 50880, Note_on_c, 10, 66, 95
6, 50880, Note_on_c, 10, 61, 95
6, 50880, Note_on_c, 10, 58, 95
6, 50880, Note_on_c, 10, 54, 95
6, 50880, Note_on_c, 10, 49, 95
6, 50880, Note_on_c, 10, 42, 95
6, 51000, Note_off_c, 10, 66, 80
6, 51000, Note_off_c, 10, 61, 80
6, 51000, Note_off_c, 10, 58, 80
6, 51000, Note_off_c, 10, 54, 80
6, 51000, Note_off_c, 10, 49, 80
6, 51000, Note_off_c, 10, 42, 80
6, 51000, Note_on_c, 10, 66, 95
6, 51000, Note_on_c, 10, 61, 95
6, 51000, Note_on_c, 10, 58, 95
6, 51000, Note_on_c, 10, 54, 95
6, 51000, Note_on_c, 10, 49, 95
6, 51000, Note_on_c, 10, 42, 95
6, 51120, Note_off_c, 10, 66, 80
6, 51120, Note_off_c, 10, 61, 80
6, 51120, Note_off_c, 10, 58, 80
6, 51120, Note_off_c, 10, 54, 80
6, 51120, Note_off_c, 10, 49, 80
6, 51120, Note_off_c, 10, 42, 80
6, 51120, Note_on_c, 10, 66, 95
6, 51120, Note_on_c, 10, 61, 95
6, 51120, Note_on_c, 10, 58, 95
6, 51120, Note_on_c, 10, 54, 95
6, 51120, Note_on_c, 10, 49, 95
6, 51120, Note_on_c, 10, 42, 95
6, 51360, Note_off_c, 10, 66, 80
6, 51360, Note_off_c, 10, 61, 80
6, 51360, Note_off_c, 10, 58, 80
6, 51360, Note_off_c, 10, 54, 80
6, 51360, Note_off_c, 10, 49, 80
6, 51360, Note_off_c, 10, 42, 80
6, 51360, Note_on_c, 10, 66, 95
6, 51360, Note_on_c, 10, 61, 95
6, 51360, Note_on_c, 10, 58, 95
6, 51360, Note_on_c, 10, 54, 95
6, 51360, Note_on_c, 10, 49, 95
6, 51360, Note_on_c, 10, 42, 95
6, 51600, Note_off_c, 10, 66, 80
6, 51600, Note_off_c, 10, 61, 80
6, 51600, Note_off_c, 10, 58, 80
6, 51600, Note_off_c, 10, 54, 80
6, 51600, Note_off_c, 10, 49, 80
6, 51600, Note_off_c, 10, 42, 80
6, 51600, Note_on_c, 10, 66, 95
6, 51600, Note_on_c, 10, 61, 95
6, 51600, Note_on_c, 10, 58, 95
6, 51600, Note_on_c, 10, 54, 95
6, 51600, Note_on_c, 10, 49, 95
6, 51600, Note_on_c, 10, 42, 95
6, 51720, Note_off_c, 10, 66, 80
6, 51720, Note_off_c, 10, 61, 80
6, 51720, Note_off_c, 10, 58, 80
6, 51720, Note_off_c, 10, 54, 80
6, 51720, Note_off_c, 10, 49, 80
6, 51720, Note_off_c, 10, 42, 80
6, 51720, Note_on_c, 10, 66, 95
6, 51720, Note_on_c, 10, 61, 95
6, 51720, Note_on_c, 10, 58, 95
6, 51720, Note_on_c, 10, 54, 95
6, 51720, Note_on_c, 10, 49, 95
6, 51720, Note_on_c, 10, 42, 95
6, 51840, Note_off_c, 10, 66, 80
6, 51840, Note_off_c, 10, 61, 80
6, 51840, Note_off_c, 10, 58, 80
6, 51840, Note_off_c, 10, 54, 80
6, 51840, Note_off_c, 10, 49, 80
6, 51840, Note_off_c, 10, 42, 80
6, 51840, Note_on_c, 10, 71, 95
6, 51840, Note_on_c, 10, 66, 95
6, 51840, Note_on_c, 10, 63, 95
6, 51840, Note_on_c, 10, 59, 95
6, 51840, Note_on_c, 10, 54, 95
6, 51840, Note_on_c, 10, 47, 95
6, 52320, Note_off_c, 10, 71, 80
6, 52320, Note_off_c, 10, 66, 80
6, 52320, Note_off_c, 10, 63, 80
6, 52320, Note_off_c, 10, 59, 80
6, 52320, Note_off_c, 10, 54, 80
6, 52320, Note_off_c, 10, 47, 80
6, 52320, Note_on_c, 10, 71, 95
6, 52320, Note_on_c, 10, 66, 95
6, 52320, Note_on_c, 10, 63, 95
6, 52320, Note_on_c, 10, 59, 95
6, 52320, Note_on_c, 10, 54, 95
6, 52320, Note_on_c, 10, 47, 95
6, 52560, Note_off_c, 10, 71, 80
6, 52560, Note_off_c, 10, 66, 80
6, 52560, Note_off_c, 10, 63, 80
6, 52560, Note_off_c, 10, 59, 80
6, 52560, Note_off_c, 10, 54, 80
6, 52560, Note_off_c, 10, 47, 80
6, 52560, Note_on_c, 10, 71, 95
6, 52560, Note_on_c, 10, 66, 95
6, 52560, Note_on_c, 10, 63, 95
6, 52560, Note_on_c, 10, 59, 95
6, 52560, Note_on_c, 10, 54, 95
6, 52560, Note_on_c, 10, 47, 95
6, 52680, Note_off_c, 10, 71, 80
6, 52680, Note_off_c, 10, 66, 80
6, 52680, Note_off_c, 10, 63, 80
6, 52680, Note_off_c, 10, 59, 80
6, 52680, Note_off_c, 10, 54, 80
6, 52680, Note_off_c, 10, 47, 80
6, 52680, Note_on_c, 10, 71, 95
6, 52680, Note_on_c, 10, 66, 95
6, 52680, Note_on_c, 10, 63, 95
6, 52680, Note_on_c, 10, 59, 95
6, 52680, Note_on_c, 10, 54, 95
6, 52680, Note_on_c, 10, 47, 95
6, 52800, Note_off_c, 10, 71, 80
6, 52800, Note_off_c, 10, 66, 80
6, 52800, Note_off_c, 10, 63, 80
6, 52800, Note_off_c, 10, 59, 80
6, 52800, Note_off_c, 10, 54, 80
6, 52800, Note_off_c, 10, 47, 80
6, 52800, Note_on_c, 10, 64, 95
6, 52800, Note_on_c, 10, 59, 95
6, 52800, Note_on_c, 10, 56, 95
6, 52800, Note_on_c, 10, 52, 95
6, 52800, Note_on_c, 10, 47, 95
6, 52800, Note_on_c, 10, 40, 95
6, 52920, Note_off_c, 10, 64, 80
6, 52920, Note_off_c, 10, 59, 80
6, 52920, Note_off_c, 10, 56, 80
6, 52920, Note_off_c, 10, 52, 80
6, 52920, Note_off_c, 10, 47, 80
6, 52920, Note_off_c, 10, 40, 80
6, 52920, Note_on_c, 10, 64, 95
6, 52920, Note_on_c, 10, 59, 95
6, 52920, Note_on_c, 10, 56, 95
6, 52920, Note_on_c, 10, 52, 95
6, 52920, Note_on_c, 10, 47, 95
6, 52920, Note_on_c, 10, 40, 95
6, 53040, Note_off_c, 10, 64, 80
6, 53040, Note_off_c, 10, 59, 80
6, 53040, Note_off_c, 10, 56, 80
6, 53040, Note_off_c, 10, 52, 80
6, 53040, Note_off_c, 10, 47, 80
6, 53040, Note_off_c, 10, 40, 80
6, 53040, Note_on_c, 10, 64, 95
6, 53040, Note_on_c, 10, 59, 95
6, 53040, Note_on_c, 10, 56, 95
6, 53040, Note_on_c, 10, 52, 95
6, 53040, Note_on_c, 10, 47, 95
6, 53040, Note_on_c, 10, 40, 95
6, 53280, Note_off_c, 10, 64, 80
6, 53280, Note_off_c, 10, 59, 80
6, 53280, Note_off_c, 10, 56, 80
6, 53280, Note_off_c, 10, 52, 80
6, 53280, Note_off_c, 10, 47, 80
6, 53280, Note_off_c, 10, 40, 80
6, 53280, Note_on_c, 10, 64, 95
6, 53280, Note_on_c, 10, 59, 95
6, 53280, Note_on_c, 10, 56, 95
6, 53280, Note_on_c, 10, 52, 95
6, 53280, Note_on_c, 10, 47, 95
6, 53280, Note_on_c, 10, 40, 95
6, 53640, Note_off_c, 10, 64, 80
6, 53640, Note_off_c, 10, 59, 80
6, 53640, Note_off_c, 10, 56, 80
6, 53640, Note_off_c, 10, 52, 80
6, 53640, Note_off_c, 10, 47, 80
6, 53640, Note_off_c, 10, 40, 80
6, 53640, Note_on_c, 10, 64, 95
6, 53640, Note_on_c, 10, 59, 95
6, 53640, Note_on_c, 10, 56, 95
6, 53640, Note_on_c, 10, 52, 95
6, 53640, Note_on_c, 10, 47, 95
6, 53640, Note_on_c, 10, 40, 95
6, 53760, Note_off_c, 10, 64, 80
6, 53760, Note_off_c, 10, 59, 80
6, 53760, Note_off_c, 10, 56, 80
6, 53760, Note_off_c, 10, 52, 80
6, 53760, Note_off_c, 10, 47, 80
6, 53760, Note_off_c, 10, 40, 80
6, 53760, Note_on_c, 10, 66, 95
6, 53760, Note_on_c, 10, 61, 95
6, 53760, Note_on_c, 10, 58, 95
6, 53760, Note_on_c, 10, 54, 95
6, 53760, Note_on_c, 10, 49, 95
6, 53760, Note_on_c, 10, 42, 95
6, 53880, Note_off_c, 10, 66, 80
6, 53880, Note_off_c, 10, 61, 80
6, 53880, Note_off_c, 10, 58, 80
6, 53880, Note_off_c, 10, 54, 80
6, 53880, Note_off_c, 10, 49, 80
6, 53880, Note_off_c, 10, 42, 80
6, 53880, Note_on_c, 10, 66, 95
6, 53880, Note_on_c, 10, 61, 95
6, 53880, Note_on_c, 10, 58, 95
6, 53880, Note_on_c, 10, 54, 95
6, 53880, Note_on_c, 10, 49, 95
6, 53880, Note_on_c, 10, 42, 95
6, 54000, Note_off_c, 10, 66, 80
6, 54000, Note_off_c, 10, 61, 80
6, 54000, Note_off_c, 10, 58, 80
6, 54000, Note_off_c, 10, 54, 80
6, 54000, Note_off_c, 10, 49, 80
6, 54000, Note_off_c, 10, 42, 80
6, 54000, Note_on_c, 10, 66, 95
6, 54000, Note_on_c, 10, 61, 95
6, 54000, Note_on_c, 10, 58, 95
6, 54000, Note_on_c, 10, 54, 95
6, 54000, Note_on_c, 10, 49, 95
6, 54000, Note_on_c, 10, 42, 95
6, 54240, Note_off_c, 10, 66, 80
6, 54240, Note_off_c, 10, 61, 80
6, 54240, Note_off_c, 10, 58, 80
6, 54240, Note_off_c, 10, 54, 80
6, 54240, Note_off_c, 10, 49, 80
6, 54240, Note_off_c, 10, 42, 80
6, 54240, Note_on_c, 10, 66, 95
6, 54240, Note_on_c, 10, 61, 95
6, 54240, Note_on_c, 10, 58, 95
6, 54240, Note_on_c, 10, 54, 95
6, 54240, Note_on_c, 10, 49, 95
6, 54240, Note_on_c, 10, 42, 95
6, 54600, Note_off_c, 10, 66, 80
6, 54600, Note_off_c, 10, 61, 80
6, 54600, Note_off_c, 10, 58, 80
6, 54600, Note_off_c, 10, 54, 80
6, 54600, Note_off_c, 10, 49, 80
6, 54600, Note_off_c, 10, 42, 80
6, 54600, Note_on_c, 10, 66, 95
6, 54600, Note_on_c, 10, 61, 95
6, 54600, Note_on_c, 10, 58, 95
6, 54600, Note_on_c, 10, 54, 95
6, 54600, Note_on_c, 10, 49, 95
6, 54600, Note_on_c, 10, 42, 95
6, 54720, Note_off_c, 10, 66, 80
6, 54720, Note_off_c, 10, 61, 80
6, 54720, Note_off_c, 10, 58, 80
6, 54720, Note_off_c, 10, 54, 80
6, 54720, Note_off_c, 10, 49, 80
6, 54720, Note_off_c, 10, 42, 80
6, 54720, Note_on_c, 10, 64, 95
6, 54720, Note_on_c, 10, 59, 95
6, 54720, Note_on_c, 10, 56, 95
6, 54720, Note_on_c, 10, 52, 95
6, 54720, Note_on_c, 10, 47, 95
6, 54720, Note_on_c, 10, 40, 95
6, 54840, Note_off_c, 10, 64, 80
6, 54840, Note_off_c, 10, 59, 80
6, 54840, Note_off_c, 10, 56, 80
6, 54840, Note_off_c, 10, 52, 80
6, 54840, Note_off_c, 10, 47, 80
6, 54840, Note_off_c, 10, 40, 80
6, 54840, Note_on_c, 10, 64, 95
6, 54840, Note_on_c, 10, 59, 95
6, 54840, Note_on_c, 10, 56, 95
6, 54840, Note_on_c, 10, 52, 95
6, 54840, Note_on_c, 10, 47, 95
6, 54840, Note_on_c, 10, 40, 95
6, 54960, Note_off_c, 10, 64, 80
6, 54960, Note_off_c, 10, 59, 80
6, 54960, Note_off_c, 10, 56, 80
6, 54960, Note_off_c, 10, 52, 80
6, 54960, Note_off_c, 10, 47, 80
6, 54960, Note_off_c, 10, 40, 80
6, 54960, Note_on_c, 10, 64, 95
6, 54960, Note_on_c, 10, 59, 95
6, 54960, Note_on_c, 10, 56, 95
6, 54960, Note_on_c, 10, 52, 95
6, 54960, Note_on_c, 10, 47, 95
6, 54960, Note_on_c, 10, 40, 95
6, 55200, Note_off_c, 10, 64, 80
6, 55200, Note_off_c, 10, 59, 80
6, 55200, Note_off_c, 10, 56, 80
6, 55200, Note_off_c, 10, 52, 80
6, 55200, Note_off_c, 10, 47, 80
6, 55200, Note_off_c, 10, 40, 80
6, 55200, Note_on_c, 10, 64, 95
6, 55200, Note_on_c, 10, 59, 95
6, 55200, Note_on_c, 10, 56, 95
6, 55200, Note_on_c, 10, 52, 95
6, 55200, Note_on_c, 10, 47, 95
6, 55200, Note_on_c, 10, 40, 95
6, 55440, Note_off_c, 10, 64, 80
6, 55440, Note_off_c, 10, 59, 80
6, 55440, Note_off_c, 10, 56, 80
6, 55440, Note_off_c, 10, 52, 80
6, 55440, Note_off_c, 10, 47, 80
6, 55440, Note_off_c, 10, 40, 80
6, 55440, Note_on_c, 10, 64, 95
6, 55440, Note_on_c, 10, 59, 95
6, 55440, Note_on_c, 10, 56, 95
6, 55440, Note_on_c, 10, 52, 95
6, 55440, Note_on_c, 10, 47, 95
6, 55440, Note_on_c, 10, 40, 95
6, 55560, Note_off_c, 10, 64, 80
6, 55560, Note_off_c, 10, 59, 80
6, 55560, Note_off_c, 10, 56, 80
6, 55560, Note_off_c, 10, 52, 80
6, 55560, Note_off_c, 10, 47, 80
6, 55560, Note_off_c, 10, 40, 80
6, 55560, Note_on_c, 10, 64, 95
6, 55560, Note_on_c, 10, 59, 95
6, 55560, Note_on_c, 10, 56, 95
6, 55560, Note_on_c, 10, 52, 95
6, 55560, Note_on_c, 10, 47, 95
6, 55560, Note_on_c, 10, 40, 95
6, 55680, Note_off_c, 10, 64, 80
6, 55680, Note_off_c, 10, 59, 80
6, 55680, Note_off_c, 10, 56, 80
6, 55680, Note_off_c, 10, 52, 80
6, 55680, Note_off_c, 10, 47, 80
6, 55680, Note_off_c, 10, 40, 80
6, 55680, Note_on_c, 10, 66, 95
6, 55680, Note_on_c, 10, 61, 95
6, 55680, Note_on_c, 10, 58, 95
6, 55680, Note_on_c, 10, 54, 95
6, 55680, Note_on_c, 10, 49, 95
6, 55680, Note_on_c, 10, 42, 95
6, 55800, Note_off_c, 10, 66, 80
6, 55800, Note_off_c, 10, 61, 80
6, 55800, Note_off_c, 10, 58, 80
6, 55800, Note_off_c, 10, 54, 80
6, 55800, Note_off_c, 10, 49, 80
6, 55800, Note_off_c, 10, 42, 80
6, 55800, Note_on_c, 10, 66, 95
6, 55800, Note_on_c, 10, 61, 95
6, 55800, Note_on_c, 10, 58, 95
6, 55800, Note_on_c, 10, 54, 95
6, 55800, Note_on_c, 10, 49, 95
6, 55800, Note_on_c, 10, 42, 95
6, 55920, Note_off_c, 10, 66, 80
6, 55920, Note_off_c, 10, 61, 80
6, 55920, Note_off_c, 10, 58, 80
6, 55920, Note_off_c, 10, 54, 80
6, 55920, Note_off_c, 10, 49, 80
6, 55920, Note_off_c, 10, 42, 80
6, 55920, Note_on_c, 10, 66, 95
6, 55920, Note_on_c, 10, 61, 95
6, 55920, Note_on_c, 10, 58, 95
6, 55920, Note_on_c, 10, 54, 95
6, 55920, Note_on_c, 10, 49, 95
6, 55920, Note_on_c, 10, 42, 95
6, 56160, Note_off_c, 10, 66, 80
6, 56160, Note_off_c, 10, 61, 80
6, 56160, Note_off_c, 10, 58, 80
6, 56160, Note_off_c, 10, 54, 80
6, 56160, Note_off_c, 10, 49, 80
6, 56160, Note_off_c, 10, 42, 80
6, 56160, Note_on_c, 10, 66, 95
6, 56160, Note_on_c, 10, 61, 95
6, 56160, Note_on_c, 10, 58, 95
6, 56160, Note_on_c, 10, 54, 95
6, 56160, Note_on_c, 10, 49, 95
6, 56160, Note_on_c, 10, 42, 95
6, 56520, Note_off_c, 10, 66, 80
6, 56520, Note_off_c, 10, 61, 80
6, 56520, Note_off_c, 10, 58, 80
6, 56520, Note_off_c, 10, 54, 80
6, 56520, Note_off_c, 10, 49, 80
6, 56520, Note_off_c, 10, 42, 80
6, 56520, Note_on_c, 10, 66, 95
6, 56520, Note_on_c, 10, 61, 95
6, 56520, Note_on_c, 10, 58, 95
6, 56520, Note_on_c, 10, 54, 95
6, 56520, Note_on_c, 10, 49, 95
6, 56520, Note_on_c, 10, 42, 95
6, 56640, Note_off_c, 10, 66, 80
6, 56640, Note_off_c, 10, 61, 80
6, 56640, Note_off_c, 10, 58, 80
6, 56640, Note_off_c, 10, 54, 80
6, 56640, Note_off_c, 10, 49, 80
6, 56640, Note_off_c, 10, 42, 80
6, 56640, Note_on_c, 10, 64, 95
6, 56640, Note_on_c, 10, 59, 95
6, 56640, Note_on_c, 10, 56, 95
6, 56640, Note_on_c, 10, 52, 95
6, 56640, Note_on_c, 10, 47, 95
6, 56640, Note_on_c, 10, 40, 95
6, 56760, Note_off_c, 10, 64, 80
6, 56760, Note_off_c, 10, 59, 80
6, 56760, Note_off_c, 10, 56, 80
6, 56760, Note_off_c, 10, 52, 80
6, 56760, Note_off_c, 10, 47, 80
6, 56760, Note_off_c, 10, 40, 80
6, 56760, Note_on_c, 10, 64, 95
6, 56760, Note_on_c, 10, 59, 95
6, 56760, Note_on_c, 10, 56, 95
6, 56760, Note_on_c, 10, 52, 95
6, 56760, Note_on_c, 10, 47, 95
6, 56760, Note_on_c, 10, 40, 95
6, 56880, Note_off_c, 10, 64, 80
6, 56880, Note_off_c, 10, 59, 80
6, 56880, Note_off_c, 10, 56, 80
6, 56880, Note_off_c, 10, 52, 80
6, 56880, Note_off_c, 10, 47, 80
6, 56880, Note_off_c, 10, 40, 80
6, 56880, Note_on_c, 10, 64, 95
6, 56880, Note_on_c, 10, 59, 95
6, 56880, Note_on_c, 10, 56, 95
6, 56880, Note_on_c, 10, 52, 95
6, 56880, Note_on_c, 10, 47, 95
6, 56880, Note_on_c, 10, 40, 95
6, 57120, Note_off_c, 10, 64, 80
6, 57120, Note_off_c, 10, 59, 80
6, 57120, Note_off_c, 10, 56, 80
6, 57120, Note_off_c, 10, 52, 80
6, 57120, Note_off_c, 10, 47, 80
6, 57120, Note_off_c, 10, 40, 80
6, 57120, Note_on_c, 10, 64, 95
6, 57120, Note_on_c, 10, 59, 95
6, 57120, Note_on_c, 10, 56, 95
6, 57120, Note_on_c, 10, 52, 95
6, 57120, Note_on_c, 10, 47, 95
6, 57120, Note_on_c, 10, 40, 95
6, 57360, Note_off_c, 10, 64, 80
6, 57360, Note_off_c, 10, 59, 80
6, 57360, Note_off_c, 10, 56, 80
6, 57360, Note_off_c, 10, 52, 80
6, 57360, Note_off_c, 10, 47, 80
6, 57360, Note_off_c, 10, 40, 80
6, 57360, Note_on_c, 10, 64, 95
6, 57360, Note_on_c, 10, 59, 95
6, 57360, Note_on_c, 10, 56, 95
6, 57360, Note_on_c, 10, 52, 95
6, 57360, Note_on_c, 10, 47, 95
6, 57360, Note_on_c, 10, 40, 95
6, 57480, Note_off_c, 10, 64, 80
6, 57480, Note_off_c, 10, 59, 80
6, 57480, Note_off_c, 10, 56, 80
6, 57480, Note_off_c, 10, 52, 80
6, 57480, Note_off_c, 10, 47, 80
6, 57480, Note_off_c, 10, 40, 80
6, 57480, Note_on_c, 10, 64, 95
6, 57480, Note_on_c, 10, 59, 95
6, 57480, Note_on_c, 10, 56, 95
6, 57480, Note_on_c, 10, 52, 95
6, 57480, Note_on_c, 10, 47, 95
6, 57480, Note_on_c, 10, 40, 95
6, 57600, Note_off_c, 10, 64, 80
6, 57600, Note_off_c, 10, 59, 80
6, 57600, Note_off_c, 10, 56, 80
6, 57600, Note_off_c, 10, 52, 80
6, 57600, Note_off_c, 10, 47, 80
6, 57600, Note_off_c, 10, 40, 80
6, 57600, Note_on_c, 10, 71, 95
6, 57600, Note_on_c, 10, 66, 95
6, 57600, Note_on_c, 10, 63, 95
6, 57600, Note_on_c, 10, 59, 95
6, 57600, Note_on_c, 10, 54, 95
6, 57600, Note_on_c, 10, 47, 95
6, 58080, Note_off_c, 10, 71, 80
6, 58080, Note_off_c, 10, 66, 80
6, 58080, Note_off_c, 10, 63, 80
6, 58080, Note_off_c, 10, 59, 80
6, 58080, Note_off_c, 10, 54, 80
6, 58080, Note_off_c, 10, 47, 80
6, 58080, Note_on_c, 10, 71, 95
6, 58080, Note_on_c, 10, 66, 95
6, 58080, Note_on_c, 10, 63, 95
6, 58080, Note_on_c, 10, 59, 95
6, 58080, Note_on_c, 10, 54, 95
6, 58080, Note_on_c, 10, 47, 95
6, 58320, Note_off_c, 10, 71, 80
6, 58320, Note_off_c, 10, 66, 80
6, 58320, Note_off_c, 10, 63, 80
6, 58320, Note_off_c, 10, 59, 80
6, 58320, Note_off_c, 10, 54, 80
6, 58320, Note_off_c, 10, 47, 80
6, 58320, Note_on_c, 10, 71, 95
6, 58320, Note_on_c, 10, 66, 95
6, 58320, Note_on_c, 10, 63, 95
6, 58320, Note_on_c, 10, 59, 95
6, 58320, Note_on_c, 10, 54, 95
6, 58320, Note_on_c, 10, 47, 95
6, 58440, Note_off_c, 10, 71, 80
6, 58440, Note_off_c, 10, 66, 80
6, 58440, Note_off_c, 10, 63, 80
6, 58440, Note_off_c, 10, 59, 80
6, 58440, Note_off_c, 10, 54, 80
6, 58440, Note_off_c, 10, 47, 80
6, 58440, Note_on_c, 10, 71, 95
6, 58440, Note_on_c, 10, 66, 95
6, 58440, Note_on_c, 10, 63, 95
6, 58440, Note_on_c, 10, 59, 95
6, 58440, Note_on_c, 10, 54, 95
6, 58440, Note_on_c, 10, 47, 95
6, 58560, Note_off_c, 10, 71, 80
6, 58560, Note_off_c, 10, 66, 80
6, 58560, Note_off_c, 10, 63, 80
6, 58560, Note_off_c, 10, 59, 80
6, 58560, Note_off_c, 10, 54, 80
6, 58560, Note_off_c, 10, 47, 80
6, 58560, Note_on_c, 10, 64, 95
6, 58560, Note_on_c, 10, 59, 95
6, 58560, Note_on_c, 10, 56, 95
6, 58560, Note_on_c, 10, 52, 95
6, 58560, Note_on_c, 10, 47, 95
6, 58560, Note_on_c, 10, 40, 95
6, 58680, Note_off_c, 10, 64, 80
6, 58680, Note_off_c, 10, 59, 80
6, 58680, Note_off_c, 10, 56, 80
6, 58680, Note_off_c, 10, 52, 80
6, 58680, Note_off_c, 10, 47, 80
6, 58680, Note_off_c, 10, 40, 80
6, 58680, Note_on_c, 10, 64, 95
6, 58680, Note_on_c, 10, 59, 95
6, 58680, Note_on_c, 10, 56, 95
6, 58680, Note_on_c, 10, 52, 95
6, 58680, Note_on_c, 10, 47, 95
6, 58680, Note_on_c, 10, 40, 95
6, 58800, Note_off_c, 10, 64, 80
6, 58800, Note_off_c, 10, 59, 80
6, 58800, Note_off_c, 10, 56, 80
6, 58800, Note_off_c, 10, 52, 80
6, 58800, Note_off_c, 10, 47, 80
6, 58800, Note_off_c, 10, 40, 80
6, 58800, Note_on_c, 10, 64, 95
6, 58800, Note_on_c, 10, 59, 95
6, 58800, Note_on_c, 10, 56, 95
6, 58800, Note_on_c, 10, 52, 95
6, 58800, Note_on_c, 10, 47, 95
6, 58800, Note_on_c, 10, 40, 95
6, 59040, Note_off_c, 10, 64, 80
6, 59040, Note_off_c, 10, 59, 80
6, 59040, Note_off_c, 10, 56, 80
6, 59040, Note_off_c, 10, 52, 80
6, 59040, Note_off_c, 10, 47, 80
6, 59040, Note_off_c, 10, 40, 80
6, 59040, Note_on_c, 10, 64, 95
6, 59040, Note_on_c, 10, 59, 95
6, 59040, Note_on_c, 10, 56, 95
6, 59040, Note_on_c, 10, 52, 95
6, 59040, Note_on_c, 10, 47, 95
6, 59040, Note_on_c, 10, 40, 95
6, 59400, Note_off_c, 10, 64, 80
6, 59400, Note_off_c, 10, 59, 80
6, 59400, Note_off_c, 10, 56, 80
6, 59400, Note_off_c, 10, 52, 80
6, 59400, Note_off_c, 10, 47, 80
6, 59400, Note_off_c, 10, 40, 80
6, 59400, Note_on_c, 10, 64, 95
6, 59400, Note_on_c, 10, 59, 95
6, 59400, Note_on_c, 10, 56, 95
6, 59400, Note_on_c, 10, 52, 95
6, 59400, Note_on_c, 10, 47, 95
6, 59400, Note_on_c, 10, 40, 95
6, 59520, Note_off_c, 10, 64, 80
6, 59520, Note_off_c, 10, 59, 80
6, 59520, Note_off_c, 10, 56, 80
6, 59520, Note_off_c, 10, 52, 80
6, 59520, Note_off_c, 10, 47, 80
6, 59520, Note_off_c, 10, 40, 80
6, 59520, Note_on_c, 10, 66, 95
6, 59520, Note_on_c, 10, 61, 95
6, 59520, Note_on_c, 10, 58, 95
6, 59520, Note_on_c, 10, 54, 95
6, 59520, Note_on_c, 10, 49, 95
6, 59520, Note_on_c, 10, 42, 95
6, 59640, Note_off_c, 10, 66, 80
6, 59640, Note_off_c, 10, 61, 80
6, 59640, Note_off_c, 10, 58, 80
6, 59640, Note_off_c, 10, 54, 80
6, 59640, Note_off_c, 10, 49, 80
6, 59640, Note_off_c, 10, 42, 80
6, 59640, Note_on_c, 10, 66, 95
6, 59640, Note_on_c, 10, 61, 95
6, 59640, Note_on_c, 10, 58, 95
6, 59640, Note_on_c, 10, 54, 95
6, 59640, Note_on_c, 10, 49, 95
6, 59640, Note_on_c, 10, 42, 95
6, 59760, Note_off_c, 10, 66, 80
6, 59760, Note_off_c, 10, 61, 80
6, 59760, Note_off_c, 10, 58, 80
6, 59760, Note_off_c, 10, 54, 80
6, 59760, Note_off_c, 10, 49, 80
6, 59760, Note_off_c, 10, 42, 80
6, 59760, Note_on_c, 10, 66, 95
6, 59760, Note_on_c, 10, 61, 95
6, 59760, Note_on_c, 10, 58, 95
6, 59760, Note_on_c, 10, 54, 95
6, 59760, Note_on_c, 10, 49, 95
6, 59760, Note_on_c, 10, 42, 95
6, 60000, Note_off_c, 10, 66, 80
6, 60000, Note_off_c, 10, 61, 80
6, 60000, Note_off_c, 10, 58, 80
6, 60000, Note_off_c, 10, 54, 80
6, 60000, Note_off_c, 10, 49, 80
6, 60000, Note_off_c, 10, 42, 80
6, 60000, Note_on_c, 10, 66, 95
6, 60000, Note_on_c, 10, 61, 95
6, 60000, Note_on_c, 10, 58, 95
6, 60000, Note_on_c, 10, 54, 95
6, 60000, Note_on_c, 10, 49, 95
6, 60000, Note_on_c, 10, 42, 95
6, 60360, Note_off_c, 10, 66, 80
6, 60360, Note_off_c, 10, 61, 80
6, 60360, Note_off_c, 10, 58, 80
6, 60360, Note_off_c, 10, 54, 80
6, 60360, Note_off_c, 10, 49, 80
6, 60360, Note_off_c, 10, 42, 80
6, 60360, Note_on_c, 10, 66, 95
6, 60360, Note_on_c, 10, 61, 95
6, 60360, Note_on_c, 10, 58, 95
6, 60360, Note_on_c, 10, 54, 95
6, 60360, Note_on_c, 10, 49, 95
6, 60360, Note_on_c, 10, 42, 95
6, 60480, Note_off_c, 10, 66, 80
6, 60480, Note_off_c, 10, 61, 80
6, 60480, Note_off_c, 10, 58, 80
6, 60480, Note_off_c, 10, 54, 80
6, 60480, Note_off_c, 10, 49, 80
6, 60480, Note_off_c, 10, 42, 80
6, 60480, Note_on_c, 10, 64, 95
6, 60480, Note_on_c, 10, 59, 95
6, 60480, Note_on_c, 10, 56, 95
6, 60480, Note_on_c, 10, 52, 95
6, 60480, Note_on_c, 10, 47, 95
6, 60480, Note_on_c, 10, 40, 95
6, 60600, Note_off_c, 10, 64, 80
6, 60600, Note_off_c, 10, 59, 80
6, 60600, Note_off_c, 10, 56, 80
6, 60600, Note_off_c, 10, 52, 80
6, 60600, Note_off_c, 10, 47, 80
6, 60600, Note_off_c, 10, 40, 80
6, 60600, Note_on_c, 10, 64, 95
6, 60600, Note_on_c, 10, 59, 95
6, 60600, Note_on_c, 10, 56, 95
6, 60600, Note_on_c, 10, 52, 95
6, 60600, Note_on_c, 10, 47, 95
6, 60600, Note_on_c, 10, 40, 95
6, 60720, Note_off_c, 10, 64, 80
6, 60720, Note_off_c, 10, 59, 80
6, 60720, Note_off_c, 10, 56, 80
6, 60720, Note_off_c, 10, 52, 80
6, 60720, Note_off_c, 10, 47, 80
6, 60720, Note_off_c, 10, 40, 80
6, 60720, Note_on_c, 10, 64, 95
6, 60720, Note_on_c, 10, 59, 95
6, 60720, Note_on_c, 10, 56, 95
6, 60720, Note_on_c, 10, 52, 95
6, 60720, Note_on_c, 10, 47, 95
6, 60720, Note_on_c, 10, 40, 95
6, 60960, Note_off_c, 10, 64, 80
6, 60960, Note_off_c, 10, 59, 80
6, 60960, Note_off_c, 10, 56, 80
6, 60960, Note_off_c, 10, 52, 80
6, 60960, Note_off_c, 10, 47, 80
6, 60960, Note_off_c, 10, 40, 80
6, 60960, Note_on_c, 10, 64, 95
6, 60960, Note_on_c, 10, 59, 95
6, 60960, Note_on_c, 10, 56, 95
6, 60960, Note_on_c, 10, 52, 95
6, 60960, Note_on_c, 10, 47, 95
6, 60960, Note_on_c, 10, 40, 95
6, 61200, Note_off_c, 10, 64, 80
6, 61200, Note_off_c, 10, 59, 80
6, 61200, Note_off_c, 10, 56, 80
6, 61200, Note_off_c, 10, 52, 80
6, 61200, Note_off_c, 10, 47, 80
6, 61200, Note_off_c, 10, 40, 80
6, 61200, Note_on_c, 10, 64, 95
6, 61200, Note_on_c, 10, 59, 95
6, 61200, Note_on_c, 10, 56, 95
6, 61200, Note_on_c, 10, 52, 95
6, 61200, Note_on_c, 10, 47, 95
6, 61200, Note_on_c, 10, 40, 95
6, 61320, Note_off_c, 10, 64, 80
6, 61320, Note_off_c, 10, 59, 80
6, 61320, Note_off_c, 10, 56, 80
6, 61320, Note_off_c, 10, 52, 80
6, 61320, Note_off_c, 10, 47, 80
6, 61320, Note_off_c, 10, 40, 80
6, 61320, Note_on_c, 10, 64, 95
6, 61320, Note_on_c, 10, 59, 95
6, 61320, Note_on_c, 10, 56, 95
6, 61320, Note_on_c, 10, 52, 95
6, 61320, Note_on_c, 10, 47, 95
6, 61320, Note_on_c, 10, 40, 95
6, 61440, Note_off_c, 10, 64, 80
6, 61440, Note_off_c, 10, 59, 80
6, 61440, Note_off_c, 10, 56, 80
6, 61440, Note_off_c, 10, 52, 80
6, 61440, Note_off_c, 10, 47, 80
6, 61440, Note_off_c, 10, 40, 80
6, 61440, Note_on_c, 10, 71, 95
6, 61440, Note_on_c, 10, 66, 95
6, 61440, Note_on_c, 10, 63, 95
6, 61440, Note_on_c, 10, 59, 95
6, 61440, Note_on_c, 10, 54, 95
6, 61440, Note_on_c, 10, 47, 95
6, 61920, Note_off_c, 10, 71, 80
6, 61920, Note_off_c, 10, 66, 80
6, 61920, Note_off_c, 10, 63, 80
6, 61920, Note_off_c, 10, 59, 80
6, 61920, Note_off_c, 10, 54, 80
6, 61920, Note_off_c, 10, 47, 80
6, 61920, Note_on_c, 10, 71, 95
6, 61920, Note_on_c, 10, 66, 95
6, 61920, Note_on_c, 10, 63, 95
6, 61920, Note_on_c, 10, 59, 95
6, 61920, Note_on_c, 10, 54, 95
6, 61920, Note_on_c, 10, 47, 95
6, 62160, Note_off_c, 10, 71, 80
6, 62160, Note_off_c, 10, 66, 80
6, 62160, Note_off_c, 10, 63, 80
6, 62160, Note_off_c, 10, 59, 80
6, 62160, Note_off_c, 10, 54, 80
6, 62160, Note_off_c, 10, 47, 80
6, 62160, Note_on_c, 10, 71, 95
6, 62160, Note_on_c, 10, 66, 95
6, 62160, Note_on_c, 10, 63, 95
6, 62160, Note_on_c, 10, 59, 95
6, 62160, Note_on_c, 10, 54, 95
6, 62160, Note_on_c, 10, 47, 95
6, 62280, Note_off_c, 10, 71, 80
6, 62280, Note_off_c, 10, 66, 80
6, 62280, Note_off_c, 10, 63, 80
6, 62280, Note_off_c, 10, 59, 80
6, 62280, Note_off_c, 10, 54, 80
6, 62280, Note_off_c, 10, 47, 80
6, 62280, Note_on_c, 10, 71, 95
6, 62280, Note_on_c, 10, 66, 95
6, 62280, Note_on_c, 10, 63, 95
6, 62280, Note_on_c, 10, 59, 95
6, 62280, Note_on_c, 10, 54, 95
6, 62280, Note_on_c, 10, 47, 95
6, 62400, Note_off_c, 10, 71, 80
6, 62400, Note_off_c, 10, 66, 80
6, 62400, Note_off_c, 10, 63, 80
6, 62400, Note_off_c, 10, 59, 80
6, 62400, Note_off_c, 10, 54, 80
6, 62400, Note_off_c, 10, 47, 80
6, 62400, Note_on_c, 10, 64, 95
6, 62400, Note_on_c, 10, 59, 95
6, 62400, Note_on_c, 10, 56, 95
6, 62400, Note_on_c, 10, 52, 95
6, 62400, Note_on_c, 10, 47, 95
6, 62400, Note_on_c, 10, 40, 95
6, 62520, Note_off_c, 10, 64, 80
6, 62520, Note_off_c, 10, 59, 80
6, 62520, Note_off_c, 10, 56, 80
6, 62520, Note_off_c, 10, 52, 80
6, 62520, Note_off_c, 10, 47, 80
6, 62520, Note_off_c, 10, 40, 80
6, 62520, Note_on_c, 10, 64, 95
6, 62520, Note_on_c, 10, 59, 95
6, 62520, Note_on_c, 10, 56, 95
6, 62520, Note_on_c, 10, 52, 95
6, 62520, Note_on_c, 10, 47, 95
6, 62520, Note_on_c, 10, 40, 95
6, 62640, Note_off_c, 10, 64, 80
6, 62640, Note_off_c, 10, 59, 80
6, 62640, Note_off_c, 10, 56, 80
6, 62640, Note_off_c, 10, 52, 80
6, 62640, Note_off_c, 10, 47, 80
6, 62640, Note_off_c, 10, 40, 80
6, 62640, Note_on_c, 10, 64, 95
6, 62640, Note_on_c, 10, 59, 95
6, 62640, Note_on_c, 10, 56, 95
6, 62640, Note_on_c, 10, 52, 95
6, 62640, Note_on_c, 10, 47, 95
6, 62640, Note_on_c, 10, 40, 95
6, 62880, Note_off_c, 10, 64, 80
6, 62880, Note_off_c, 10, 59, 80
6, 62880, Note_off_c, 10, 56, 80
6, 62880, Note_off_c, 10, 52, 80
6, 62880, Note_off_c, 10, 47, 80
6, 62880, Note_off_c, 10, 40, 80
6, 62880, Note_on_c, 10, 64, 95
6, 62880, Note_on_c, 10, 59, 95
6, 62880, Note_on_c, 10, 56, 95
6, 62880, Note_on_c, 10, 52, 95
6, 62880, Note_on_c, 10, 47, 95
6, 62880, Note_on_c, 10, 40, 95
6, 63240, Note_off_c, 10, 64, 80
6, 63240, Note_off_c, 10, 59, 80
6, 63240, Note_off_c, 10, 56, 80
6, 63240, Note_off_c, 10, 52, 80
6, 63240, Note_off_c, 10, 47, 80
6, 63240, Note_off_c, 10, 40, 80
6, 63240, Note_on_c, 10, 64, 95
6, 63240, Note_on_c, 10, 59, 95
6, 63240, Note_on_c, 10, 56, 95
6, 63240, Note_on_c, 10, 52, 95
6, 63240, Note_on_c, 10, 47, 95
6, 63240, Note_on_c, 10, 40, 95
6, 63360, Note_off_c, 10, 64, 80
6, 63360, Note_off_c, 10, 59, 80
6, 63360, Note_off_c, 10, 56, 80
6, 63360, Note_off_c, 10, 52, 80
6, 63360, Note_off_c, 10, 47, 80
6, 63360, Note_off_c, 10, 40, 80
6, 63360, Note_on_c, 10, 66, 95
6, 63360, Note_on_c, 10, 61, 95
6, 63360, Note_on_c, 10, 58, 95
6, 63360, Note_on_c, 10, 54, 95
6, 63360, Note_on_c, 10, 49, 95
6, 63360, Note_on_c, 10, 42, 95
6, 63480, Note_off_c, 10, 66, 80
6, 63480, Note_off_c, 10, 61, 80
6, 63480, Note_off_c, 10, 58, 80
6, 63480, Note_off_c, 10, 54, 80
6, 63480, Note_off_c, 10, 49, 80
6, 63480, Note_off_c, 10, 42, 80
6, 63480, Note_on_c, 10, 66, 95
6, 63480, Note_on_c, 10, 61, 95
6, 63480, Note_on_c, 10, 58, 95
6, 63480, Note_on_c, 10, 54, 95
6, 63480, Note_on_c, 10, 49, 95
6, 63480, Note_on_c, 10, 42, 95
6, 63600, Note_off_c, 10, 66, 80
6, 63600, Note_off_c, 10, 61, 80
6, 63600, Note_off_c, 10, 58, 80
6, 63600, Note_off_c, 10, 54, 80
6, 63600, Note_off_c, 10, 49, 80
6, 63600, Note_off_c, 10, 42, 80
6, 63600, Note_on_c, 10, 66, 95
6, 63600, Note_on_c, 10, 61, 95
6, 63600, Note_on_c, 10, 58, 95
6, 63600, Note_on_c, 10, 54, 95
6, 63600, Note_on_c, 10, 49, 95
6, 63600, Note_on_c, 10, 42, 95
6, 63840, Note_off_c, 10, 66, 80
6, 63840, Note_off_c, 10, 61, 80
6, 63840, Note_off_c, 10, 58, 80
6, 63840, Note_off_c, 10, 54, 80
6, 63840, Note_off_c, 10, 49, 80
6, 63840, Note_off_c, 10, 42, 80
6, 63840, Note_on_c, 10, 66, 95
6, 63840, Note_on_c, 10, 61, 95
6, 63840, Note_on_c, 10, 58, 95
6, 63840, Note_on_c, 10, 54, 95
6, 63840, Note_on_c, 10, 49, 95
6, 63840, Note_on_c, 10, 42, 95
6, 64200, Note_off_c, 10, 66, 80
6, 64200, Note_off_c, 10, 61, 80
6, 64200, Note_off_c, 10, 58, 80
6, 64200, Note_off_c, 10, 54, 80
6, 64200, Note_off_c, 10, 49, 80
6, 64200, Note_off_c, 10, 42, 80
6, 64200, Note_on_c, 10, 66, 95
6, 64200, Note_on_c, 10, 61, 95
6, 64200, Note_on_c, 10, 58, 95
6, 64200, Note_on_c, 10, 54, 95
6, 64200, Note_on_c, 10, 49, 95
6, 64200, Note_on_c, 10, 42, 95
6, 64320, Note_off_c, 10, 66, 80
6, 64320, Note_off_c, 10, 61, 80
6, 64320, Note_off_c, 10, 58, 80
6, 64320, Note_off_c, 10, 54, 80
6, 64320, Note_off_c, 10, 49, 80
6, 64320, Note_off_c, 10, 42, 80
6, 64320, Note_on_c, 10, 64, 95
6, 64320, Note_on_c, 10, 59, 95
6, 64320, Note_on_c, 10, 56, 95
6, 64320, Note_on_c, 10, 52, 95
6, 64320, Note_on_c, 10, 47, 95
6, 64320, Note_on_c, 10, 40, 95
6, 64440, Note_off_c, 10, 64, 80
6, 64440, Note_off_c, 10, 59, 80
6, 64440, Note_off_c, 10, 56, 80
6, 64440, Note_off_c, 10, 52, 80
6, 64440, Note_off_c, 10, 47, 80
6, 64440, Note_off_c, 10, 40, 80
6, 64440, Note_on_c, 10, 64, 95
6, 64440, Note_on_c, 10, 59, 95
6, 64440, Note_on_c, 10, 56, 95
6, 64440, Note_on_c, 10, 52, 95
6, 64440, Note_on_c, 10, 47, 95
6, 64440, Note_on_c, 10, 40, 95
6, 64560, Note_off_c, 10, 64, 80
6, 64560, Note_off_c, 10, 59, 80
6, 64560, Note_off_c, 10, 56, 80
6, 64560, Note_off_c, 10, 52, 80
6, 64560, Note_off_c, 10, 47, 80
6, 64560, Note_off_c, 10, 40, 80
6, 64560, Note_on_c, 10, 64, 95
6, 64560, Note_on_c, 10, 59, 95
6, 64560, Note_on_c, 10, 56, 95
6, 64560, Note_on_c, 10, 52, 95
6, 64560, Note_on_c, 10, 47, 95
6, 64560, Note_on_c, 10, 40, 95
6, 64800, Note_off_c, 10, 64, 80
6, 64800, Note_off_c, 10, 59, 80
6, 64800, Note_off_c, 10, 56, 80
6, 64800, Note_off_c, 10, 52, 80
6, 64800, Note_off_c, 10, 47, 80
6, 64800, Note_off_c, 10, 40, 80
6, 64800, Note_on_c, 10, 64, 95
6, 64800, Note_on_c, 10, 59, 95
6, 64800, Note_on_c, 10, 56, 95
6, 64800, Note_on_c, 10, 52, 95
6, 64800, Note_on_c, 10, 47, 95
6, 64800, Note_on_c, 10, 40, 95
6, 65040, Note_off_c, 10, 64, 80
6, 65040, Note_off_c, 10, 59, 80
6, 65040, Note_off_c, 10, 56, 80
6, 65040, Note_off_c, 10, 52, 80
6, 65040, Note_off_c, 10, 47, 80
6, 65040, Note_off_c, 10, 40, 80
6, 65040, Note_on_c, 10, 64, 95
6, 65040, Note_on_c, 10, 59, 95
6, 65040, Note_on_c, 10, 56, 95
6, 65040, Note_on_c, 10, 52, 95
6, 65040, Note_on_c, 10, 47, 95
6, 65040, Note_on_c, 10, 40, 95
6, 65160, Note_off_c, 10, 64, 80
6, 65160, Note_off_c, 10, 59, 80
6, 65160, Note_off_c, 10, 56, 80
6, 65160, Note_off_c, 10, 52, 80
6, 65160, Note_off_c, 10, 47, 80
6, 65160, Note_off_c, 10, 40, 80
6, 65160, Note_on_c, 10, 64, 95
6, 65160, Note_on_c, 10, 59, 95
6, 65160, Note_on_c, 10, 56, 95
6, 65160, Note_on_c, 10, 52, 95
6, 65160, Note_on_c, 10, 47, 95
6, 65160, Note_on_c, 10, 40, 95
6, 65280, Note_off_c, 10, 64, 80
6, 65280, Note_off_c, 10, 59, 80
6, 65280, Note_off_c, 10, 56, 80
6, 65280, Note_off_c, 10, 52, 80
6, 65280, Note_off_c, 10, 47, 80
6, 65280, Note_off_c, 10, 40, 80
6, 65280, Note_on_c, 10, 71, 95
6, 65280, Note_on_c, 10, 66, 95
6, 65280, Note_on_c, 10, 63, 95
6, 65280, Note_on_c, 10, 59, 95
6, 65280, Note_on_c, 10, 54, 95
6, 65280, Note_on_c, 10, 47, 95
6, 65760, Note_off_c, 10, 71, 80
6, 65760, Note_off_c, 10, 66, 80
6, 65760, Note_off_c, 10, 63, 80
6, 65760, Note_off_c, 10, 59, 80
6, 65760, Note_off_c, 10, 54, 80
6, 65760, Note_off_c, 10, 47, 80
6, 65760, Note_on_c, 10, 71, 95
6, 65760, Note_on_c, 10, 66, 95
6, 65760, Note_on_c, 10, 63, 95
6, 65760, Note_on_c, 10, 59, 95
6, 65760, Note_on_c, 10, 54, 95
6, 65760, Note_on_c, 10, 47, 95
6, 66000, Note_off_c, 10, 71, 80
6, 66000, Note_off_c, 10, 66, 80
6, 66000, Note_off_c, 10, 63, 80
6, 66000, Note_off_c, 10, 59, 80
6, 66000, Note_off_c, 10, 54, 80
6, 66000, Note_off_c, 10, 47, 80
6, 66000, Note_on_c, 10, 71, 95
6, 66000, Note_on_c, 10, 66, 95
6, 66000, Note_on_c, 10, 63, 95
6, 66000, Note_on_c, 10, 59, 95
6, 66000, Note_on_c, 10, 54, 95
6, 66000, Note_on_c, 10, 47, 95
6, 66120, Note_off_c, 10, 71, 80
6, 66120, Note_off_c, 10, 66, 80
6, 66120, Note_off_c, 10, 63, 80
6, 66120, Note_off_c, 10, 59, 80
6, 66120, Note_off_c, 10, 54, 80
6, 66120, Note_off_c, 10, 47, 80
6, 66120, Note_on_c, 10, 71, 95
6, 66120, Note_on_c, 10, 66, 95
6, 66120, Note_on_c, 10, 63, 95
6, 66120, Note_on_c, 10, 59, 95
6, 66120, Note_on_c, 10, 54, 95
6, 66120, Note_on_c, 10, 47, 95
6, 66240, Note_off_c, 10, 71, 80
6, 66240, Note_off_c, 10, 66, 80
6, 66240, Note_off_c, 10, 63, 80
6, 66240, Note_off_c, 10, 59, 80
6, 66240, Note_off_c, 10, 54, 80
6, 66240, Note_off_c, 10, 47, 80
6, 66240, Note_on_c, 10, 69, 95
6, 66240, Note_on_c, 10, 64, 95
6, 66240, Note_on_c, 10, 61, 95
6, 66240, Note_on_c, 10, 57, 95
6, 66240, Note_on_c, 10, 52, 95
6, 66240, Note_on_c, 10, 45, 95
6, 66360, Note_off_c, 10, 69, 80
6, 66360, Note_off_c, 10, 64, 80
6, 66360, Note_off_c, 10, 61, 80
6, 66360, Note_off_c, 10, 57, 80
6, 66360, Note_off_c, 10, 52, 80
6, 66360, Note_off_c, 10, 45, 80
6, 66360, Note_on_c, 10, 69, 95
6, 66360, Note_on_c, 10, 64, 95
6, 66360, Note_on_c, 10, 61, 95
6, 66360, Note_on_c, 10, 57, 95
6, 66360, Note_on_c, 10, 52, 95
6, 66360, Note_on_c, 10, 45, 95
6, 66480, Note_off_c, 10, 69, 80
6, 66480, Note_off_c, 10, 64, 80
6, 66480, Note_off_c, 10, 61, 80
6, 66480, Note_off_c, 10, 57, 80
6, 66480, Note_off_c, 10, 52, 80
6, 66480, Note_off_c, 10, 45, 80
6, 66480, Note_on_c, 10, 69, 95
6, 66480, Note_on_c, 10, 64, 95
6, 66480, Note_on_c, 10, 61, 95
6, 66480, Note_on_c, 10, 57, 95
6, 66480, Note_on_c, 10, 52, 95
6, 66480, Note_on_c, 10, 45, 95
6, 66720, Note_off_c, 10, 69, 80
6, 66720, Note_off_c, 10, 64, 80
6, 66720, Note_off_c, 10, 61, 80
6, 66720, Note_off_c, 10, 57, 80
6, 66720, Note_off_c, 10, 52, 80
6, 66720, Note_off_c, 10, 45, 80
6, 66720, Note_on_c, 10, 69, 95
6, 66720, Note_on_c, 10, 64, 95
6, 66720, Note_on_c, 10, 61, 95
6, 66720, Note_on_c, 10, 57, 95
6, 66720, Note_on_c, 10, 52, 95
6, 66720, Note_on_c, 10, 45, 95
6, 67080, Note_off_c, 10, 69, 80
6, 67080, Note_off_c, 10, 64, 80
6, 67080, Note_off_c, 10, 61, 80
6, 67080, Note_off_c, 10, 57, 80
6, 67080, Note_off_c, 10, 52, 80
6, 67080, Note_off_c, 10, 45, 80
6, 67080, Note_on_c, 10, 69, 95
6, 67080, Note_on_c, 10, 64, 95
6, 67080, Note_on_c, 10, 61, 95
6, 67080, Note_on_c, 10, 57, 95
6, 67080, Note_on_c, 10, 52, 95
6, 67080, Note_on_c, 10, 45, 95
6, 67200, Note_off_c, 10, 69, 80
6, 67200, Note_off_c, 10, 64, 80
6, 67200, Note_off_c, 10, 61, 80
6, 67200, Note_off_c, 10, 57, 80
6, 67200, Note_off_c, 10, 52, 80
6, 67200, Note_off_c, 10, 45, 80
6, 67200, Note_on_c, 10, 64, 95
6, 67200, Note_on_c, 10, 59, 95
6, 67200, Note_on_c, 10, 56, 95
6, 67200, Note_on_c, 10, 52, 95
6, 67200, Note_on_c, 10, 47, 95
6, 67200, Note_on_c, 10, 40, 95
6, 67320, Note_off_c, 10, 64, 80
6, 67320, Note_off_c, 10, 59, 80
6, 67320, Note_off_c, 10, 56, 80
6, 67320, Note_off_c, 10, 52, 80
6, 67320, Note_off_c, 10, 47, 80
6, 67320, Note_off_c, 10, 40, 80
6, 67320, Note_on_c, 10, 64, 95
6, 67320, Note_on_c, 10, 59, 95
6, 67320, Note_on_c, 10, 56, 95
6, 67320, Note_on_c, 10, 52, 95
6, 67320, Note_on_c, 10, 47, 95
6, 67320, Note_on_c, 10, 40, 95
6, 67440, Note_off_c, 10, 64, 80
6, 67440, Note_off_c, 10, 59, 80
6, 67440, Note_off_c, 10, 56, 80
6, 67440, Note_off_c, 10, 52, 80
6, 67440, Note_off_c, 10, 47, 80
6, 67440, Note_off_c, 10, 40, 80
6, 67440, Note_on_c, 10, 64, 95
6, 67440, Note_on_c, 10, 59, 95
6, 67440, Note_on_c, 10, 56, 95
6, 67440, Note_on_c, 10, 52, 95
6, 67440, Note_on_c, 10, 47, 95
6, 67440, Note_on_c, 10, 40, 95
6, 67680, Note_off_c, 10, 64, 80
6, 67680, Note_off_c, 10, 59, 80
6, 67680, Note_off_c, 10, 56, 80
6, 67680, Note_off_c, 10, 52, 80
6, 67680, Note_off_c, 10, 47, 80
6, 67680, Note_off_c, 10, 40, 80
6, 67680, Note_on_c, 10, 64, 95
6, 67680, Note_on_c, 10, 59, 95
6, 67680, Note_on_c, 10, 56, 95
6, 67680, Note_on_c, 10, 52, 95
6, 67680, Note_on_c, 10, 47, 95
6, 67680, Note_on_c, 10, 40, 95
6, 68040, Note_off_c, 10, 64, 80
6, 68040, Note_off_c, 10, 59, 80
6, 68040, Note_off_c, 10, 56, 80
6, 68040, Note_off_c, 10, 52, 80
6, 68040, Note_off_c, 10, 47, 80
6, 68040, Note_off_c, 10, 40, 80
6, 68040, Note_on_c, 10, 64, 95
6, 68040, Note_on_c, 10, 59, 95
6, 68040, Note_on_c, 10, 56, 95
6, 68040, Note_on_c, 10, 52, 95
6, 68040, Note_on_c, 10, 47, 95
6, 68040, Note_on_c, 10, 40, 95
6, 68160, Note_off_c, 10, 64, 80
6, 68160, Note_off_c, 10, 59, 80
6, 68160, Note_off_c, 10, 56, 80
6, 68160, Note_off_c, 10, 52, 80
6, 68160, Note_off_c, 10, 47, 80
6, 68160, Note_off_c, 10, 40, 80
6, 68160, Note_on_c, 10, 66, 95
6, 68160, Note_on_c, 10, 61, 95
6, 68160, Note_on_c, 10, 58, 95
6, 68160, Note_on_c, 10, 54, 95
6, 68160, Note_on_c, 10, 49, 95
6, 68160, Note_on_c, 10, 42, 95
6, 68280, Note_off_c, 10, 66, 80
6, 68280, Note_off_c, 10, 61, 80
6, 68280, Note_off_c, 10, 58, 80
6, 68280, Note_off_c, 10, 54, 80
6, 68280, Note_off_c, 10, 49, 80
6, 68280, Note_off_c, 10, 42, 80
6, 68280, Note_on_c, 10, 66, 95
6, 68280, Note_on_c, 10, 61, 95
6, 68280, Note_on_c, 10, 58, 95
6, 68280, Note_on_c, 10, 54, 95
6, 68280, Note_on_c, 10, 49, 95
6, 68280, Note_on_c, 10, 42, 95
6, 68400, Note_off_c, 10, 66, 80
6, 68400, Note_off_c, 10, 61, 80
6, 68400, Note_off_c, 10, 58, 80
6, 68400, Note_off_c, 10, 54, 80
6, 68400, Note_off_c, 10, 49, 80
6, 68400, Note_off_c, 10, 42, 80
6, 68400, Note_on_c, 10, 66, 95
6, 68400, Note_on_c, 10, 61, 95
6, 68400, Note_on_c, 10, 58, 95
6, 68400, Note_on_c, 10, 54, 95
6, 68400, Note_on_c, 10, 49, 95
6, 68400, Note_on_c, 10, 42, 95
6, 68640, Note_off_c, 10, 66, 80
6, 68640, Note_off_c, 10, 61, 80
6, 68640, Note_off_c, 10, 58, 80
6, 68640, Note_off_c, 10, 54, 80
6, 68640, Note_off_c, 10, 49, 80
6, 68640, Note_off_c, 10, 42, 80
6, 68640, Note_on_c, 10, 66, 95
6, 68640, Note_on_c, 10, 61, 95
6, 68640, Note_on_c, 10, 58, 95
6, 68640, Note_on_c, 10, 54, 95
6, 68640, Note_on_c, 10, 49, 95
6, 68640, Note_on_c, 10, 42, 95
6, 68880, Note_off_c, 10, 66, 80
6, 68880, Note_off_c, 10, 61, 80
6, 68880, Note_off_c, 10, 58, 80
6, 68880, Note_off_c, 10, 54, 80
6, 68880, Note_off_c, 10, 49, 80
6, 68880, Note_off_c, 10, 42, 80
6, 68880, Note_on_c, 10, 66, 95
6, 68880, Note_on_c, 10, 61, 95
6, 68880, Note_on_c, 10, 58, 95
6, 68880, Note_on_c, 10, 54, 95
6, 68880, Note_on_c, 10, 49, 95
6, 68880, Note_on_c, 10, 42, 95
6, 69000, Note_off_c, 10, 66, 80
6, 69000, Note_off_c, 10, 61, 80
6, 69000, Note_off_c, 10, 58, 80
6, 69000, Note_off_c, 10, 54, 80
6, 69000, Note_off_c, 10, 49, 80
6, 69000, Note_off_c, 10, 42, 80
6, 69000, Note_on_c, 10, 66, 95
6, 69000, Note_on_c, 10, 61, 95
6, 69000, Note_on_c, 10, 58, 95
6, 69000, Note_on_c, 10, 54, 95
6, 69000, Note_on_c, 10, 49, 95
6, 69000, Note_on_c, 10, 42, 95
6, 69120, Note_off_c, 10, 66, 80
6, 69120, Note_off_c, 10, 61, 80
6, 69120, Note_off_c, 10, 58, 80
6, 69120, Note_off_c, 10, 54, 80
6, 69120, Note_off_c, 10, 49, 80
6, 69120, Note_off_c, 10, 42, 80
6, 69120, Note_on_c, 10, 71, 95
6, 69120, Note_on_c, 10, 66, 95
6, 69120, Note_on_c, 10, 63, 95
6, 69120, Note_on_c, 10, 59, 95
6, 69120, Note_on_c, 10, 54, 95
6, 69120, Note_on_c, 10, 47, 95
6, 69600, Note_off_c, 10, 71, 80
6, 69600, Note_off_c, 10, 66, 80
6, 69600, Note_off_c, 10, 63, 80
6, 69600, Note_off_c, 10, 59, 80
6, 69600, Note_off_c, 10, 54, 80
6, 69600, Note_off_c, 10, 47, 80
6, 69600, Note_on_c, 10, 71, 95
6, 69600, Note_on_c, 10, 66, 95
6, 69600, Note_on_c, 10, 63, 95
6, 69600, Note_on_c, 10, 59, 95
6, 69600, Note_on_c, 10, 54, 95
6, 69600, Note_on_c, 10, 47, 95
6, 69840, Note_off_c, 10, 71, 80
6, 69840, Note_off_c, 10, 66, 80
6, 69840, Note_off_c, 10, 63, 80
6, 69840, Note_off_c, 10, 59, 80
6, 69840, Note_off_c, 10, 54, 80
6, 69840, Note_off_c, 10, 47, 80
6, 69840, Note_on_c, 10, 71, 95
6, 69840, Note_on_c, 10, 66, 95
6, 69840, Note_on_c, 10, 63, 95
6, 69840, Note_on_c, 10, 59, 95
6, 69840, Note_on_c, 10, 54, 95
6, 69840, Note_on_c, 10, 47, 95
6, 69960, Note_off_c, 10, 71, 80
6, 69960, Note_off_c, 10, 66, 80
6, 69960, Note_off_c, 10, 63, 80
6, 69960, Note_off_c, 10, 59, 80
6, 69960, Note_off_c, 10, 54, 80
6, 69960, Note_off_c, 10, 47, 80
6, 69960, Note_on_c, 10, 71, 95
6, 69960, Note_on_c, 10, 66, 95
6, 69960, Note_on_c, 10, 63, 95
6, 69960, Note_on_c, 10, 59, 95
6, 69960, Note_on_c, 10, 54, 95
6, 69960, Note_on_c, 10, 47, 95
6, 70080, Note_off_c, 10, 71, 80
6, 70080, Note_off_c, 10, 66, 80
6, 70080, Note_off_c, 10, 63, 80
6, 70080, Note_off_c, 10, 59, 80
6, 70080, Note_off_c, 10, 54, 80
6, 70080, Note_off_c, 10, 47, 80
6, 70080, Note_on_c, 10, 64, 95
6, 70080, Note_on_c, 10, 59, 95
6, 70080, Note_on_c, 10, 56, 95
6, 70080, Note_on_c, 10, 52, 95
6, 70080, Note_on_c, 10, 47, 95
6, 70080, Note_on_c, 10, 40, 95
6, 70200, Note_off_c, 10, 64, 80
6, 70200, Note_off_c, 10, 59, 80
6, 70200, Note_off_c, 10, 56, 80
6, 70200, Note_off_c, 10, 52, 80
6, 70200, Note_off_c, 10, 47, 80
6, 70200, Note_off_c, 10, 40, 80
6, 70200, Note_on_c, 10, 64, 95
6, 70200, Note_on_c, 10, 59, 95
6, 70200, Note_on_c, 10, 56, 95
6, 70200, Note_on_c, 10, 52, 95
6, 70200, Note_on_c, 10, 47, 95
6, 70200, Note_on_c, 10, 40, 95
6, 70320, Note_off_c, 10, 64, 80
6, 70320, Note_off_c, 10, 59, 80
6, 70320, Note_off_c, 10, 56, 80
6, 70320, Note_off_c, 10, 52, 80
6, 70320, Note_off_c, 10, 47, 80
6, 70320, Note_off_c, 10, 40, 80
6, 70320, Note_on_c, 10, 64, 95
6, 70320, Note_on_c, 10, 59, 95
6, 70320, Note_on_c, 10, 56, 95
6, 70320, Note_on_c, 10, 52, 95
6, 70320, Note_on_c, 10, 47, 95
6, 70320, Note_on_c, 10, 40, 95
6, 70560, Note_off_c, 10, 64, 80
6, 70560, Note_off_c, 10, 59, 80
6, 70560, Note_off_c, 10, 56, 80
6, 70560, Note_off_c, 10, 52, 80
6, 70560, Note_off_c, 10, 47, 80
6, 70560, Note_off_c, 10, 40, 80
6, 70560, Note_on_c, 10, 64, 95
6, 70560, Note_on_c, 10, 59, 95
6, 70560, Note_on_c, 10, 56, 95
6, 70560, Note_on_c, 10, 52, 95
6, 70560, Note_on_c, 10, 47, 95
6, 70560, Note_on_c, 10, 40, 95
6, 70920, Note_off_c, 10, 64, 80
6, 70920, Note_off_c, 10, 59, 80
6, 70920, Note_off_c, 10, 56, 80
6, 70920, Note_off_c, 10, 52, 80
6, 70920, Note_off_c, 10, 47, 80
6, 70920, Note_off_c, 10, 40, 80
6, 70920, Note_on_c, 10, 64, 95
6, 70920, Note_on_c, 10, 59, 95
6, 70920, Note_on_c, 10, 56, 95
6, 70920, Note_on_c, 10, 52, 95
6, 70920, Note_on_c, 10, 47, 95
6, 70920, Note_on_c, 10, 40, 95
6, 71040, Note_off_c, 10, 64, 80
6, 71040, Note_off_c, 10, 59, 80
6, 71040, Note_off_c, 10, 56, 80
6, 71040, Note_off_c, 10, 52, 80
6, 71040, Note_off_c, 10, 47, 80
6, 71040, Note_off_c, 10, 40, 80
6, 71040, Note_on_c, 10, 66, 95
6, 71040, Note_on_c, 10, 61, 95
6, 71040, Note_on_c, 10, 58, 95
6, 71040, Note_on_c, 10, 54, 95
6, 71040, Note_on_c, 10, 49, 95
6, 71040, Note_on_c, 10, 42, 95
6, 71160, Note_off_c, 10, 66, 80
6, 71160, Note_off_c, 10, 61, 80
6, 71160, Note_off_c, 10, 58, 80
6, 71160, Note_off_c, 10, 54, 80
6, 71160, Note_off_c, 10, 49, 80
6, 71160, Note_off_c, 10, 42, 80
6, 71160, Note_on_c, 10, 66, 95
6, 71160, Note_on_c, 10, 61, 95
6, 71160, Note_on_c, 10, 58, 95
6, 71160, Note_on_c, 10, 54, 95
6, 71160, Note_on_c, 10, 49, 95
6, 71160, Note_on_c, 10, 42, 95
6, 71280, Note_off_c, 10, 66, 80
6, 71280, Note_off_c, 10, 61, 80
6, 71280, Note_off_c, 10, 58, 80
6, 71280, Note_off_c, 10, 54, 80
6, 71280, Note_off_c, 10, 49, 80
6, 71280, Note_off_c, 10, 42, 80
6, 71280, Note_on_c, 10, 66, 95
6, 71280, Note_on_c, 10, 61, 95
6, 71280, Note_on_c, 10, 58, 95
6, 71280, Note_on_c, 10, 54, 95
6, 71280, Note_on_c, 10, 49, 95
6, 71280, Note_on_c, 10, 42, 95
6, 71520, Note_off_c, 10, 66, 80
6, 71520, Note_off_c, 10, 61, 80
6, 71520, Note_off_c, 10, 58, 80
6, 71520, Note_off_c, 10, 54, 80
6, 71520, Note_off_c, 10, 49, 80
6, 71520, Note_off_c, 10, 42, 80
6, 71520, Note_on_c, 10, 66, 95
6, 71520, Note_on_c, 10, 61, 95
6, 71520, Note_on_c, 10, 58, 95
6, 71520, Note_on_c, 10, 54, 95
6, 71520, Note_on_c, 10, 49, 95
6, 71520, Note_on_c, 10, 42, 95
6, 71880, Note_off_c, 10, 66, 80
6, 71880, Note_off_c, 10, 61, 80
6, 71880, Note_off_c, 10, 58, 80
6, 71880, Note_off_c, 10, 54, 80
6, 71880, Note_off_c, 10, 49, 80
6, 71880, Note_off_c, 10, 42, 80
6, 71880, Note_on_c, 10, 66, 95
6, 71880, Note_on_c, 10, 61, 95
6, 71880, Note_on_c, 10, 58, 95
6, 71880, Note_on_c, 10, 54, 95
6, 71880, Note_on_c, 10, 49, 95
6, 71880, Note_on_c, 10, 42, 95
6, 72000, Note_off_c, 10, 66, 80
6, 72000, Note_off_c, 10, 61, 80
6, 72000, Note_off_c, 10, 58, 80
6, 72000, Note_off_c, 10, 54, 80
6, 72000, Note_off_c, 10, 49, 80
6, 72000, Note_off_c, 10, 42, 80
6, 72000, Note_on_c, 10, 64, 95
6, 72000, Note_on_c, 10, 59, 95
6, 72000, Note_on_c, 10, 56, 95
6, 72000, Note_on_c, 10, 52, 95
6, 72000, Note_on_c, 10, 47, 95
6, 72000, Note_on_c, 10, 40, 95
6, 72120, Note_off_c, 10, 64, 80
6, 72120, Note_off_c, 10, 59, 80
6, 72120, Note_off_c, 10, 56, 80
6, 72120, Note_off_c, 10, 52, 80
6, 72120, Note_off_c, 10, 47, 80
6, 72120, Note_off_c, 10, 40, 80
6, 72120, Note_on_c, 10, 64, 95
6, 72120, Note_on_c, 10, 59, 95
6, 72120, Note_on_c, 10, 56, 95
6, 72120, Note_on_c, 10, 52, 95
6, 72120, Note_on_c, 10, 47, 95
6, 72120, Note_on_c, 10, 40, 95
6, 72240, Note_off_c, 10, 64, 80
6, 72240, Note_off_c, 10, 59, 80
6, 72240, Note_off_c, 10, 56, 80
6, 72240, Note_off_c, 10, 52, 80
6, 72240, Note_off_c, 10, 47, 80
6, 72240, Note_off_c, 10, 40, 80
6, 72240, Note_on_c, 10, 64, 95
6, 72240, Note_on_c, 10, 59, 95
6, 72240, Note_on_c, 10, 56, 95
6, 72240, Note_on_c, 10, 52, 95
6, 72240, Note_on_c, 10, 47, 95
6, 72240, Note_on_c, 10, 40, 95
6, 72480, Note_off_c, 10, 64, 80
6, 72480, Note_off_c, 10, 59, 80
6, 72480, Note_off_c, 10, 56, 80
6, 72480, Note_off_c, 10, 52, 80
6, 72480, Note_off_c, 10, 47, 80
6, 72480, Note_off_c, 10, 40, 80
6, 72480, Note_on_c, 10, 64, 95
6, 72480, Note_on_c, 10, 59, 95
6, 72480, Note_on_c, 10, 56, 95
6, 72480, Note_on_c, 10, 52, 95
6, 72480, Note_on_c, 10, 47, 95
6, 72480, Note_on_c, 10, 40, 95
6, 72720, Note_off_c, 10, 64, 80
6, 72720, Note_off_c, 10, 59, 80
6, 72720, Note_off_c, 10, 56, 80
6, 72720, Note_off_c, 10, 52, 80
6, 72720, Note_off_c, 10, 47, 80
6, 72720, Note_off_c, 10, 40, 80
6, 72720, Note_on_c, 10, 64, 95
6, 72720, Note_on_c, 10, 59, 95
6, 72720, Note_on_c, 10, 56, 95
6, 72720, Note_on_c, 10, 52, 95
6, 72720, Note_on_c, 10, 47, 95
6, 72720, Note_on_c, 10, 40, 95
6, 72840, Note_off_c, 10, 64, 80
6, 72840, Note_off_c, 10, 59, 80
6, 72840, Note_off_c, 10, 56, 80
6, 72840, Note_off_c, 10, 52, 80
6, 72840, Note_off_c, 10, 47, 80
6, 72840, Note_off_c, 10, 40, 80
6, 72840, Note_on_c, 10, 64, 95
6, 72840, Note_on_c, 10, 59, 95
6, 72840, Note_on_c, 10, 56, 95
6, 72840, Note_on_c, 10, 52, 95
6, 72840, Note_on_c, 10, 47, 95
6, 72840, Note_on_c, 10, 40, 95
6, 72960, Note_off_c, 10, 64, 80
6, 72960, Note_off_c, 10, 59, 80
6, 72960, Note_off_c, 10, 56, 80
6, 72960, Note_off_c, 10, 52, 80
6, 72960, Note_off_c, 10, 47, 80
6, 72960, Note_off_c, 10, 40, 80
6, 72960, Note_on_c, 10, 71, 95
6, 72960, Note_on_c, 10, 66, 95
6, 72960, Note_on_c, 10, 63, 95
6, 72960, Note_on_c, 10, 59, 95
6, 72960, Note_on_c, 10, 54, 95
6, 72960, Note_on_c, 10, 47, 95
6, 73440, Note_off_c, 10, 71, 80
6, 73440, Note_off_c, 10, 66, 80
6, 73440, Note_off_c, 10, 63, 80
6, 73440, Note_off_c, 10, 59, 80
6, 73440, Note_off_c, 10, 54, 80
6, 73440, Note_off_c, 10, 47, 80
6, 73440, Note_on_c, 10, 71, 95
6, 73440, Note_on_c, 10, 66, 95
6, 73440, Note_on_c, 10, 63, 95
6, 73440, Note_on_c, 10, 59, 95
6, 73440, Note_on_c, 10, 54, 95
6, 73440, Note_on_c, 10, 47, 95
6, 73680, Note_off_c, 10, 71, 80
6, 73680, Note_off_c, 10, 66, 80
6, 73680, Note_off_c, 10, 63, 80
6, 73680, Note_off_c, 10, 59, 80
6, 73680, Note_off_c, 10, 54, 80
6, 73680, Note_off_c, 10, 47, 80
6, 73680, Note_on_c, 10, 71, 95
6, 73680, Note_on_c, 10, 66, 95
6, 73680, Note_on_c, 10, 63, 95
6, 73680, Note_on_c, 10, 59, 95
6, 73680, Note_on_c, 10, 54, 95
6, 73680, Note_on_c, 10, 47, 95
6, 73800, Note_off_c, 10, 71, 80
6, 73800, Note_off_c, 10, 66, 80
6, 73800, Note_off_c, 10, 63, 80
6, 73800, Note_off_c, 10, 59, 80
6, 73800, Note_off_c, 10, 54, 80
6, 73800, Note_off_c, 10, 47, 80
6, 73800, Note_on_c, 10, 71, 95
6, 73800, Note_on_c, 10, 66, 95
6, 73800, Note_on_c, 10, 63, 95
6, 73800, Note_on_c, 10, 59, 95
6, 73800, Note_on_c, 10, 54, 95
6, 73800, Note_on_c, 10, 47, 95
6, 73920, Note_off_c, 10, 71, 80
6, 73920, Note_off_c, 10, 66, 80
6, 73920, Note_off_c, 10, 63, 80
6, 73920, Note_off_c, 10, 59, 80
6, 73920, Note_off_c, 10, 54, 80
6, 73920, Note_off_c, 10, 47, 80
6, 73920, Note_on_c, 10, 64, 95
6, 73920, Note_on_c, 10, 59, 95
6, 73920, Note_on_c, 10, 56, 95
6, 73920, Note_on_c, 10, 52, 95
6, 73920, Note_on_c, 10, 47, 95
6, 73920, Note_on_c, 10, 40, 95
6, 74040, Note_off_c, 10, 64, 80
6, 74040, Note_off_c, 10, 59, 80
6, 74040, Note_off_c, 10, 56, 80
6, 74040, Note_off_c, 10, 52, 80
6, 74040, Note_off_c, 10, 47, 80
6, 74040, Note_off_c, 10, 40, 80
6, 74040, Note_on_c, 10, 64, 95
6, 74040, Note_on_c, 10, 59, 95
6, 74040, Note_on_c, 10, 56, 95
6, 74040, Note_on_c, 10, 52, 95
6, 74040, Note_on_c, 10, 47, 95
6, 74040, Note_on_c, 10, 40, 95
6, 74160, Note_off_c, 10, 64, 80
6, 74160, Note_off_c, 10, 59, 80
6, 74160, Note_off_c, 10, 56, 80
6, 74160, Note_off_c, 10, 52, 80
6, 74160, Note_off_c, 10, 47, 80
6, 74160, Note_off_c, 10, 40, 80
6, 74160, Note_on_c, 10, 64, 95
6, 74160, Note_on_c, 10, 59, 95
6, 74160, Note_on_c, 10, 56, 95
6, 74160, Note_on_c, 10, 52, 95
6, 74160, Note_on_c, 10, 47, 95
6, 74160, Note_on_c, 10, 40, 95
6, 74400, Note_off_c, 10, 64, 80
6, 74400, Note_off_c, 10, 59, 80
6, 74400, Note_off_c, 10, 56, 80
6, 74400, Note_off_c, 10, 52, 80
6, 74400, Note_off_c, 10, 47, 80
6, 74400, Note_off_c, 10, 40, 80
6, 74400, Note_on_c, 10, 64, 95
6, 74400, Note_on_c, 10, 59, 95
6, 74400, Note_on_c, 10, 56, 95
6, 74400, Note_on_c, 10, 52, 95
6, 74400, Note_on_c, 10, 47, 95
6, 74400, Note_on_c, 10, 40, 95
6, 74760, Note_off_c, 10, 64, 80
6, 74760, Note_off_c, 10, 59, 80
6, 74760, Note_off_c, 10, 56, 80
6, 74760, Note_off_c, 10, 52, 80
6, 74760, Note_off_c, 10, 47, 80
6, 74760, Note_off_c, 10, 40, 80
6, 74760, Note_on_c, 10, 64, 95
6, 74760, Note_on_c, 10, 59, 95
6, 74760, Note_on_c, 10, 56, 95
6, 74760, Note_on_c, 10, 52, 95
6, 74760, Note_on_c, 10, 47, 95
6, 74760, Note_on_c, 10, 40, 95
6, 74880, Note_off_c, 10, 64, 80
6, 74880, Note_off_c, 10, 59, 80
6, 74880, Note_off_c, 10, 56, 80
6, 74880, Note_off_c, 10, 52, 80
6, 74880, Note_off_c, 10, 47, 80
6, 74880, Note_off_c, 10, 40, 80
6, 74880, Note_on_c, 10, 66, 95
6, 74880, Note_on_c, 10, 61, 95
6, 74880, Note_on_c, 10, 58, 95
6, 74880, Note_on_c, 10, 54, 95
6, 74880, Note_on_c, 10, 49, 95
6, 74880, Note_on_c, 10, 42, 95
6, 75000, Note_off_c, 10, 66, 80
6, 75000, Note_off_c, 10, 61, 80
6, 75000, Note_off_c, 10, 58, 80
6, 75000, Note_off_c, 10, 54, 80
6, 75000, Note_off_c, 10, 49, 80
6, 75000, Note_off_c, 10, 42, 80
6, 75000, Note_on_c, 10, 66, 95
6, 75000, Note_on_c, 10, 61, 95
6, 75000, Note_on_c, 10, 58, 95
6, 75000, Note_on_c, 10, 54, 95
6, 75000, Note_on_c, 10, 49, 95
6, 75000, Note_on_c, 10, 42, 95
6, 75120, Note_off_c, 10, 66, 80
6, 75120, Note_off_c, 10, 61, 80
6, 75120, Note_off_c, 10, 58, 80
6, 75120, Note_off_c, 10, 54, 80
6, 75120, Note_off_c, 10, 49, 80
6, 75120, Note_off_c, 10, 42, 80
6, 75120, Note_on_c, 10, 66, 95
6, 75120, Note_on_c, 10, 61, 95
6, 75120, Note_on_c, 10, 58, 95
6, 75120, Note_on_c, 10, 54, 95
6, 75120, Note_on_c, 10, 49, 95
6, 75120, Note_on_c, 10, 42, 95
6, 75360, Note_off_c, 10, 66, 80
6, 75360, Note_off_c, 10, 61, 80
6, 75360, Note_off_c, 10, 58, 80
6, 75360, Note_off_c, 10, 54, 80
6, 75360, Note_off_c, 10, 49, 80
6, 75360, Note_off_c, 10, 42, 80
6, 75360, Note_on_c, 10, 66, 95
6, 75360, Note_on_c, 10, 61, 95
6, 75360, Note_on_c, 10, 58, 95
6, 75360, Note_on_c, 10, 54, 95
6, 75360, Note_on_c, 10, 49, 95
6, 75360, Note_on_c, 10, 42, 95
6, 75720, Note_off_c, 10, 66, 80
6, 75720, Note_off_c, 10, 61, 80
6, 75720, Note_off_c, 10, 58, 80
6, 75720, Note_off_c, 10, 54, 80
6, 75720, Note_off_c, 10, 49, 80
6, 75720, Note_off_c, 10, 42, 80
6, 75720, Note_on_c, 10, 66, 95
6, 75720, Note_on_c, 10, 61, 95
6, 75720, Note_on_c, 10, 58, 95
6, 75720, Note_on_c, 10, 54, 95
6, 75720, Note_on_c, 10, 49, 95
6, 75720, Note_on_c, 10, 42, 95
6, 75840, Note_off_c, 10, 66, 80
6, 75840, Note_off_c, 10, 61, 80
6, 75840, Note_off_c, 10, 58, 80
6, 75840, Note_off_c, 10, 54, 80
6, 75840, Note_off_c, 10, 49, 80
6, 75840, Note_off_c, 10, 42, 80
6, 75840, Note_on_c, 10, 64, 95
6, 75840, Note_on_c, 10, 59, 95
6, 75840, Note_on_c, 10, 56, 95
6, 75840, Note_on_c, 10, 52, 95
6, 75840, Note_on_c, 10, 47, 95
6, 75840, Note_on_c, 10, 40, 95
6, 75960, Note_off_c, 10, 64, 80
6, 75960, Note_off_c, 10, 59, 80
6, 75960, Note_off_c, 10, 56, 80
6, 75960, Note_off_c, 10, 52, 80
6, 75960, Note_off_c, 10, 47, 80
6, 75960, Note_off_c, 10, 40, 80
6, 75960, Note_on_c, 10, 64, 95
6, 75960, Note_on_c, 10, 59, 95
6, 75960, Note_on_c, 10, 56, 95
6, 75960, Note_on_c, 10, 52, 95
6, 75960, Note_on_c, 10, 47, 95
6, 75960, Note_on_c, 10, 40, 95
6, 76080, Note_off_c, 10, 64, 80
6, 76080, Note_off_c, 10, 59, 80
6, 76080, Note_off_c, 10, 56, 80
6, 76080, Note_off_c, 10, 52, 80
6, 76080, Note_off_c, 10, 47, 80
6, 76080, Note_off_c, 10, 40, 80
6, 76080, Note_on_c, 10, 64, 95
6, 76080, Note_on_c, 10, 59, 95
6, 76080, Note_on_c, 10, 56, 95
6, 76080, Note_on_c, 10, 52, 95
6, 76080, Note_on_c, 10, 47, 95
6, 76080, Note_on_c, 10, 40, 95
6, 76320, Note_off_c, 10, 64, 80
6, 76320, Note_off_c, 10, 59, 80
6, 76320, Note_off_c, 10, 56, 80
6, 76320, Note_off_c, 10, 52, 80
6, 76320, Note_off_c, 10, 47, 80
6, 76320, Note_off_c, 10, 40, 80
6, 76320, Note_on_c, 10, 64, 95
6, 76320, Note_on_c, 10, 59, 95
6, 76320, Note_on_c, 10, 56, 95
6, 76320, Note_on_c, 10, 52, 95
6, 76320, Note_on_c, 10, 47, 95
6, 76320, Note_on_c, 10, 40, 95
6, 76560, Note_off_c, 10, 64, 80
6, 76560, Note_off_c, 10, 59, 80
6, 76560, Note_off_c, 10, 56, 80
6, 76560, Note_off_c, 10, 52, 80
6, 76560, Note_off_c, 10, 47, 80
6, 76560, Note_off_c, 10, 40, 80
6, 76560, Note_on_c, 10, 64, 95
6, 76560, Note_on_c, 10, 59, 95
6, 76560, Note_on_c, 10, 56, 95
6, 76560, Note_on_c, 10, 52, 95
6, 76560, Note_on_c, 10, 47, 95
6, 76560, Note_on_c, 10, 40, 95
6, 76680, Note_off_c, 10, 64, 80
6, 76680, Note_off_c, 10, 59, 80
6, 76680, Note_off_c, 10, 56, 80
6, 76680, Note_off_c, 10, 52, 80
6, 76680, Note_off_c, 10, 47, 80
6, 76680, Note_off_c, 10, 40, 80
6, 76680, Note_on_c, 10, 64, 95
6, 76680, Note_on_c, 10, 59, 95
6, 76680, Note_on_c, 10, 56, 95
6, 76680, Note_on_c, 10, 52, 95
6, 76680, Note_on_c, 10, 47, 95
6, 76680, Note_on_c, 10, 40, 95
6, 76800, Note_off_c, 10, 64, 80
6, 76800, Note_off_c, 10, 59, 80
6, 76800, Note_off_c, 10, 56, 80
6, 76800, Note_off_c, 10, 52, 80
6, 76800, Note_off_c, 10, 47, 80
6, 76800, Note_off_c, 10, 40, 80
6, 76800, Note_on_c, 10, 71, 95
6, 76800, Note_on_c, 10, 66, 95
6, 76800, Note_on_c, 10, 63, 95
6, 76800, Note_on_c, 10, 59, 95
6, 76800, Note_on_c, 10, 54, 95
6, 76800, Note_on_c, 10, 47, 95
6, 77280, Note_off_c, 10, 71, 80
6, 77280, Note_off_c, 10, 66, 80
6, 77280, Note_off_c, 10, 63, 80
6, 77280, Note_off_c, 10, 59, 80
6, 77280, Note_off_c, 10, 54, 80
6, 77280, Note_off_c, 10, 47, 80
6, 77280, Note_on_c, 10, 71, 95
6, 77280, Note_on_c, 10, 66, 95
6, 77280, Note_on_c, 10, 63, 95
6, 77280, Note_on_c, 10, 59, 95
6, 77280, Note_on_c, 10, 54, 95
6, 77280, Note_on_c, 10, 47, 95
6, 77520, Note_off_c, 10, 71, 80
6, 77520, Note_off_c, 10, 66, 80
6, 77520, Note_off_c, 10, 63, 80
6, 77520, Note_off_c, 10, 59, 80
6, 77520, Note_off_c, 10, 54, 80
6, 77520, Note_off_c, 10, 47, 80
6, 77520, Note_on_c, 10, 71, 95
6, 77520, Note_on_c, 10, 66, 95
6, 77520, Note_on_c, 10, 63, 95
6, 77520, Note_on_c, 10, 59, 95
6, 77520, Note_on_c, 10, 54, 95
6, 77520, Note_on_c, 10, 47, 95
6, 77640, Note_off_c, 10, 71, 80
6, 77640, Note_off_c, 10, 66, 80
6, 77640, Note_off_c, 10, 63, 80
6, 77640, Note_off_c, 10, 59, 80
6, 77640, Note_off_c, 10, 54, 80
6, 77640, Note_off_c, 10, 47, 80
6, 77640, Note_on_c, 10, 71, 95
6, 77640, Note_on_c, 10, 66, 95
6, 77640, Note_on_c, 10, 63, 95
6, 77640, Note_on_c, 10, 59, 95
6, 77640, Note_on_c, 10, 54, 95
6, 77640, Note_on_c, 10, 47, 95
6, 77760, Note_off_c, 10, 71, 80
6, 77760, Note_off_c, 10, 66, 80
6, 77760, Note_off_c, 10, 63, 80
6, 77760, Note_off_c, 10, 59, 80
6, 77760, Note_off_c, 10, 54, 80
6, 77760, Note_off_c, 10, 47, 80
6, 77760, Note_on_c, 10, 64, 95
6, 77760, Note_on_c, 10, 59, 95
6, 77760, Note_on_c, 10, 56, 95
6, 77760, Note_on_c, 10, 52, 95
6, 77760, Note_on_c, 10, 47, 95
6, 77760, Note_on_c, 10, 40, 95
6, 77880, Note_off_c, 10, 64, 80
6, 77880, Note_off_c, 10, 59, 80
6, 77880, Note_off_c, 10, 56, 80
6, 77880, Note_off_c, 10, 52, 80
6, 77880, Note_off_c, 10, 47, 80
6, 77880, Note_off_c, 10, 40, 80
6, 77880, Note_on_c, 10, 64, 95
6, 77880, Note_on_c, 10, 59, 95
6, 77880, Note_on_c, 10, 56, 95
6, 77880, Note_on_c, 10, 52, 95
6, 77880, Note_on_c, 10, 47, 95
6, 77880, Note_on_c, 10, 40, 95
6, 78000, Note_off_c, 10, 64, 80
6, 78000, Note_off_c, 10, 59, 80
6, 78000, Note_off_c, 10, 56, 80
6, 78000, Note_off_c, 10, 52, 80
6, 78000, Note_off_c, 10, 47, 80
6, 78000, Note_off_c, 10, 40, 80
6, 78000, Note_on_c, 10, 64, 95
6, 78000, Note_on_c, 10, 59, 95
6, 78000, Note_on_c, 10, 56, 95
6, 78000, Note_on_c, 10, 52, 95
6, 78000, Note_on_c, 10, 47, 95
6, 78000, Note_on_c, 10, 40, 95
6, 78240, Note_off_c, 10, 64, 80
6, 78240, Note_off_c, 10, 59, 80
6, 78240, Note_off_c, 10, 56, 80
6, 78240, Note_off_c, 10, 52, 80
6, 78240, Note_off_c, 10, 47, 80
6, 78240, Note_off_c, 10, 40, 80
6, 78240, Note_on_c, 10, 64, 95
6, 78240, Note_on_c, 10, 59, 95
6, 78240, Note_on_c, 10, 56, 95
6, 78240, Note_on_c, 10, 52, 95
6, 78240, Note_on_c, 10, 47, 95
6, 78240, Note_on_c, 10, 40, 95
6, 78600, Note_off_c, 10, 64, 80
6, 78600, Note_off_c, 10, 59, 80
6, 78600, Note_off_c, 10, 56, 80
6, 78600, Note_off_c, 10, 52, 80
6, 78600, Note_off_c, 10, 47, 80
6, 78600, Note_off_c, 10, 40, 80
6, 78600, Note_on_c, 10, 64, 95
6, 78600, Note_on_c, 10, 59, 95
6, 78600, Note_on_c, 10, 56, 95
6, 78600, Note_on_c, 10, 52, 95
6, 78600, Note_on_c, 10, 47, 95
6, 78600, Note_on_c, 10, 40, 95
6, 78720, Note_off_c, 10, 64, 80
6, 78720, Note_off_c, 10, 59, 80
6, 78720, Note_off_c, 10, 56, 80
6, 78720, Note_off_c, 10, 52, 80
6, 78720, Note_off_c, 10, 47, 80
6, 78720, Note_off_c, 10, 40, 80
6, 78720, Note_on_c, 10, 66, 95
6, 78720, Note_on_c, 10, 61, 95
6, 78720, Note_on_c, 10, 58, 95
6, 78720, Note_on_c, 10, 54, 95
6, 78720, Note_on_c, 10, 49, 95
6, 78720, Note_on_c, 10, 42, 95
6, 80640, Note_off_c, 10, 66, 80
6, 80640, Note_off_c, 10, 61, 80
6, 80640, Note_off_c, 10, 58, 80
6, 80640, Note_off_c, 10, 54, 80
6, 80640, Note_off_c, 10, 49, 80
6, 80640, Note_off_c, 10, 42, 80
6, 84480, Note_on_c, 10, 71, 95
6, 84480, Note_on_c, 10, 66, 95
6, 84480, Note_on_c, 10, 63, 95
6, 84480, Note_on_c, 10, 59, 95
6, 84480, Note_on_c, 10, 54, 95
6, 84480, Note_on_c, 10, 47, 95
6, 84960, Note_off_c, 10, 71, 80
6, 84960, Note_off_c, 10, 66, 80
6, 84960, Note_off_c, 10, 63, 80
6, 84960, Note_off_c, 10, 59, 80
6, 84960, Note_off_c, 10, 54, 80
6, 84960, Note_off_c, 10, 47, 80
6, 84960, Note_on_c, 10, 71, 95
6, 84960, Note_on_c, 10, 66, 95
6, 84960, Note_on_c, 10, 63, 95
6, 84960, Note_on_c, 10, 59, 95
6, 84960, Note_on_c, 10, 54, 95
6, 84960, Note_on_c, 10, 47, 95
6, 85200, Note_off_c, 10, 71, 80
6, 85200, Note_off_c, 10, 66, 80
6, 85200, Note_off_c, 10, 63, 80
6, 85200, Note_off_c, 10, 59, 80
6, 85200, Note_off_c, 10, 54, 80
6, 85200, Note_off_c, 10, 47, 80
6, 85200, Note_on_c, 10, 71, 95
6, 85200, Note_on_c, 10, 66, 95
6, 85200, Note_on_c, 10, 63, 95
6, 85200, Note_on_c, 10, 59, 95
6, 85200, Note_on_c, 10, 54, 95
6, 85200, Note_on_c, 10, 47, 95
6, 85320, Note_off_c, 10, 71, 80
6, 85320, Note_off_c, 10, 66, 80
6, 85320, Note_off_c, 10, 63, 80
6, 85320, Note_off_c, 10, 59, 80
6, 85320, Note_off_c, 10, 54, 80
6, 85320, Note_off_c, 10, 47, 80
6, 85320, Note_on_c, 10, 71, 95
6, 85320, Note_on_c, 10, 66, 95
6, 85320, Note_on_c, 10, 63, 95
6, 85320, Note_on_c, 10, 59, 95
6, 85320, Note_on_c, 10, 54, 95
6, 85320, Note_on_c, 10, 47, 95
6, 85440, Note_off_c, 10, 71, 80
6, 85440, Note_off_c, 10, 66, 80
6, 85440, Note_off_c, 10, 63, 80
6, 85440, Note_off_c, 10, 59, 80
6, 85440, Note_off_c, 10, 54, 80
6, 85440, Note_off_c, 10, 47, 80
6, 85440, Note_on_c, 10, 64, 95
6, 85440, Note_on_c, 10, 59, 95
6, 85440, Note_on_c, 10, 56, 95
6, 85440, Note_on_c, 10, 52, 95
6, 85440, Note_on_c, 10, 47, 95
6, 85440, Note_on_c, 10, 40, 95
6, 85560, Note_off_c, 10, 64, 80
6, 85560, Note_off_c, 10, 59, 80
6, 85560, Note_off_c, 10, 56, 80
6, 85560, Note_off_c, 10, 52, 80
6, 85560, Note_off_c, 10, 47, 80
6, 85560, Note_off_c, 10, 40, 80
6, 85560, Note_on_c, 10, 64, 95
6, 85560, Note_on_c, 10, 59, 95
6, 85560, Note_on_c, 10, 56, 95
6, 85560, Note_on_c, 10, 52, 95
6, 85560, Note_on_c, 10, 47, 95
6, 85560, Note_on_c, 10, 40, 95
6, 85680, Note_off_c, 10, 64, 80
6, 85680, Note_off_c, 10, 59, 80
6, 85680, Note_off_c, 10, 56, 80
6, 85680, Note_off_c, 10, 52, 80
6, 85680, Note_off_c, 10, 47, 80
6, 85680, Note_off_c, 10, 40, 80
6, 85680, Note_on_c, 10, 64, 95
6, 85680, Note_on_c, 10, 59, 95
6, 85680, Note_on_c, 10, 56, 95
6, 85680, Note_on_c, 10, 52, 95
6, 85680, Note_on_c, 10, 47, 95
6, 85680, Note_on_c, 10, 40, 95
6, 85920, Note_off_c, 10, 64, 80
6, 85920, Note_off_c, 10, 59, 80
6, 85920, Note_off_c, 10, 56, 80
6, 85920, Note_off_c, 10, 52, 80
6, 85920, Note_off_c, 10, 47, 80
6, 85920, Note_off_c, 10, 40, 80
6, 85920, Note_on_c, 10, 64, 95
6, 85920, Note_on_c, 10, 59, 95
6, 85920, Note_on_c, 10, 56, 95
6, 85920, Note_on_c, 10, 52, 95
6, 85920, Note_on_c, 10, 47, 95
6, 85920, Note_on_c, 10, 40, 95
6, 86280, Note_off_c, 10, 64, 80
6, 86280, Note_off_c, 10, 59, 80
6, 86280, Note_off_c, 10, 56, 80
6, 86280, Note_off_c, 10, 52, 80
6, 86280, Note_off_c, 10, 47, 80
6, 86280, Note_off_c, 10, 40, 80
6, 86280, Note_on_c, 10, 64, 95
6, 86280, Note_on_c, 10, 59, 95
6, 86280, Note_on_c, 10, 56, 95
6, 86280, Note_on_c, 10, 52, 95
6, 86280, Note_on_c, 10, 47, 95
6, 86280, Note_on_c, 10, 40, 95
6, 86400, Note_off_c, 10, 64, 80
6, 86400, Note_off_c, 10, 59, 80
6, 86400, Note_off_c, 10, 56, 80
6, 86400, Note_off_c, 10, 52, 80
6, 86400, Note_off_c, 10, 47, 80
6, 86400, Note_off_c, 10, 40, 80
6, 86400, Note_on_c, 10, 66, 95
6, 86400, Note_on_c, 10, 61, 95
6, 86400, Note_on_c, 10, 58, 95
6, 86400, Note_on_c, 10, 54, 95
6, 86400, Note_on_c, 10, 49, 95
6, 86400, Note_on_c, 10, 42, 95
6, 86520, Note_off_c, 10, 66, 80
6, 86520, Note_off_c, 10, 61, 80
6, 86520, Note_off_c, 10, 58, 80
6, 86520, Note_off_c, 10, 54, 80
6, 86520, Note_off_c, 10, 49, 80
6, 86520, Note_off_c, 10, 42, 80
6, 86520, Note_on_c, 10, 66, 95
6, 86520, Note_on_c, 10, 61, 95
6, 86520, Note_on_c, 10, 58, 95
6, 86520, Note_on_c, 10, 54, 95
6, 86520, Note_on_c, 10, 49, 95
6, 86520, Note_on_c, 10, 42, 95
6, 86640, Note_off_c, 10, 66, 80
6, 86640, Note_off_c, 10, 61, 80
6, 86640, Note_off_c, 10, 58, 80
6, 86640, Note_off_c, 10, 54, 80
6, 86640, Note_off_c, 10, 49, 80
6, 86640, Note_off_c, 10, 42, 80
6, 86640, Note_on_c, 10, 66, 95
6, 86640, Note_on_c, 10, 61, 95
6, 86640, Note_on_c, 10, 58, 95
6, 86640, Note_on_c, 10, 54, 95
6, 86640, Note_on_c, 10, 49, 95
6, 86640, Note_on_c, 10, 42, 95
6, 86880, Note_off_c, 10, 66, 80
6, 86880, Note_off_c, 10, 61, 80
6, 86880, Note_off_c, 10, 58, 80
6, 86880, Note_off_c, 10, 54, 80
6, 86880, Note_off_c, 10, 49, 80
6, 86880, Note_off_c, 10, 42, 80
6, 86880, Note_on_c, 10, 66, 95
6, 86880, Note_on_c, 10, 61, 95
6, 86880, Note_on_c, 10, 58, 95
6, 86880, Note_on_c, 10, 54, 95
6, 86880, Note_on_c, 10, 49, 95
6, 86880, Note_on_c, 10, 42, 95
6, 87240, Note_off_c, 10, 66, 80
6, 87240, Note_off_c, 10, 61, 80
6, 87240, Note_off_c, 10, 58, 80
6, 87240, Note_off_c, 10, 54, 80
6, 87240, Note_off_c, 10, 49, 80
6, 87240, Note_off_c, 10, 42, 80
6, 87240, Note_on_c, 10, 66, 95
6, 87240, Note_on_c, 10, 61, 95
6, 87240, Note_on_c, 10, 58, 95
6, 87240, Note_on_c, 10, 54, 95
6, 87240, Note_on_c, 10, 49, 95
6, 87240, Note_on_c, 10, 42, 95
6, 87360, Note_off_c, 10, 66, 80
6, 87360, Note_off_c, 10, 61, 80
6, 87360, Note_off_c, 10, 58, 80
6, 87360, Note_off_c, 10, 54, 80
6, 87360, Note_off_c, 10, 49, 80
6, 87360, Note_off_c, 10, 42, 80
6, 87360, Note_on_c, 10, 64, 95
6, 87360, Note_on_c, 10, 59, 95
6, 87360, Note_on_c, 10, 56, 95
6, 87360, Note_on_c, 10, 52, 95
6, 87360, Note_on_c, 10, 47, 95
6, 87360, Note_on_c, 10, 40, 95
6, 87480, Note_off_c, 10, 64, 80
6, 87480, Note_off_c, 10, 59, 80
6, 87480, Note_off_c, 10, 56, 80
6, 87480, Note_off_c, 10, 52, 80
6, 87480, Note_off_c, 10, 47, 80
6, 87480, Note_off_c, 10, 40, 80
6, 87480, Note_on_c, 10, 64, 95
6, 87480, Note_on_c, 10, 59, 95
6, 87480, Note_on_c, 10, 56, 95
6, 87480, Note_on_c, 10, 52, 95
6, 87480, Note_on_c, 10, 47, 95
6, 87480, Note_on_c, 10, 40, 95
6, 87600, Note_off_c, 10, 64, 80
6, 87600, Note_off_c, 10, 59, 80
6, 87600, Note_off_c, 10, 56, 80
6, 87600, Note_off_c, 10, 52, 80
6, 87600, Note_off_c, 10, 47, 80
6, 87600, Note_off_c, 10, 40, 80
6, 87600, Note_on_c, 10, 64, 95
6, 87600, Note_on_c, 10, 59, 95
6, 87600, Note_on_c, 10, 56, 95
6, 87600, Note_on_c, 10, 52, 95
6, 87600, Note_on_c, 10, 47, 95
6, 87600, Note_on_c, 10, 40, 95
6, 87840, Note_off_c, 10, 64, 80
6, 87840, Note_off_c, 10, 59, 80
6, 87840, Note_off_c, 10, 56, 80
6, 87840, Note_off_c, 10, 52, 80
6, 87840, Note_off_c, 10, 47, 80
6, 87840, Note_off_c, 10, 40, 80
6, 87840, Note_on_c, 10, 64, 95
6, 87840, Note_on_c, 10, 59, 95
6, 87840, Note_on_c, 10, 56, 95
6, 87840, Note_on_c, 10, 52, 95
6, 87840, Note_on_c, 10, 47, 95
6, 87840, Note_on_c, 10, 40, 95
6, 88080, Note_off_c, 10, 64, 80
6, 88080, Note_off_c, 10, 59, 80
6, 88080, Note_off_c, 10, 56, 80
6, 88080, Note_off_c, 10, 52, 80
6, 88080, Note_off_c, 10, 47, 80
6, 88080, Note_off_c, 10, 40, 80
6, 88080, Note_on_c, 10, 64, 95
6, 88080, Note_on_c, 10, 59, 95
6, 88080, Note_on_c, 10, 56, 95
6, 88080, Note_on_c, 10, 52, 95
6, 88080, Note_on_c, 10, 47, 95
6, 88080, Note_on_c, 10, 40, 95
6, 88200, Note_off_c, 10, 64, 80
6, 88200, Note_off_c, 10, 59, 80
6, 88200, Note_off_c, 10, 56, 80
6, 88200, Note_off_c, 10, 52, 80
6, 88200, Note_off_c, 10, 47, 80
6, 88200, Note_off_c, 10, 40, 80
6, 88200, Note_on_c, 10, 64, 95
6, 88200, Note_on_c, 10, 59, 95
6, 88200, Note_on_c, 10, 56, 95
6, 88200, Note_on_c, 10, 52, 95
6, 88200, Note_on_c, 10, 47, 95
6, 88200, Note_on_c, 10, 40, 95
6, 88320, Note_off_c, 10, 64, 80
6, 88320, Note_off_c, 10, 59, 80
6, 88320, Note_off_c, 10, 56, 80
6, 88320, Note_off_c, 10, 52, 80
6, 88320, Note_off_c, 10, 47, 80
6, 88320, Note_off_c, 10, 40, 80
6, 88320, Note_on_c, 10, 71, 95
6, 88320, Note_on_c, 10, 66, 95
6, 88320, Note_on_c, 10, 63, 95
6, 88320, Note_on_c, 10, 59, 95
6, 88320, Note_on_c, 10, 54, 95
6, 88320, Note_on_c, 10, 47, 95
6, 88800, Note_off_c, 10, 71, 80
6, 88800, Note_off_c, 10, 66, 80
6, 88800, Note_off_c, 10, 63, 80
6, 88800, Note_off_c, 10, 59, 80
6, 88800, Note_off_c, 10, 54, 80
6, 88800, Note_off_c, 10, 47, 80
6, 88800, Note_on_c, 10, 71, 95
6, 88800, Note_on_c, 10, 66, 95
6, 88800, Note_on_c, 10, 63, 95
6, 88800, Note_on_c, 10, 59, 95
6, 88800, Note_on_c, 10, 54, 95
6, 88800, Note_on_c, 10, 47, 95
6, 89040, Note_off_c, 10, 71, 80
6, 89040, Note_off_c, 10, 66, 80
6, 89040, Note_off_c, 10, 63, 80
6, 89040, Note_off_c, 10, 59, 80
6, 89040, Note_off_c, 10, 54, 80
6, 89040, Note_off_c, 10, 47, 80
6, 89040, Note_on_c, 10, 71, 95
6, 89040, Note_on_c, 10, 66, 95
6, 89040, Note_on_c, 10, 63, 95
6, 89040, Note_on_c, 10, 59, 95
6, 89040, Note_on_c, 10, 54, 95
6, 89040, Note_on_c, 10, 47, 95
6, 89160, Note_off_c, 10, 71, 80
6, 89160, Note_off_c, 10, 66, 80
6, 89160, Note_off_c, 10, 63, 80
6, 89160, Note_off_c, 10, 59, 80
6, 89160, Note_off_c, 10, 54, 80
6, 89160, Note_off_c, 10, 47, 80
6, 89160, Note_on_c, 10, 71, 95
6, 89160, Note_on_c, 10, 66, 95
6, 89160, Note_on_c, 10, 63, 95
6, 89160, Note_on_c, 10, 59, 95
6, 89160, Note_on_c, 10, 54, 95
6, 89160, Note_on_c, 10, 47, 95
6, 89280, Note_off_c, 10, 71, 80
6, 89280, Note_off_c, 10, 66, 80
6, 89280, Note_off_c, 10, 63, 80
6, 89280, Note_off_c, 10, 59, 80
6, 89280, Note_off_c, 10, 54, 80
6, 89280, Note_off_c, 10, 47, 80
6, 89280, Note_on_c, 10, 64, 95
6, 89280, Note_on_c, 10, 59, 95
6, 89280, Note_on_c, 10, 56, 95
6, 89280, Note_on_c, 10, 52, 95
6, 89280, Note_on_c, 10, 47, 95
6, 89280, Note_on_c, 10, 40, 95
6, 89400, Note_off_c, 10, 64, 80
6, 89400, Note_off_c, 10, 59, 80
6, 89400, Note_off_c, 10, 56, 80
6, 89400, Note_off_c, 10, 52, 80
6, 89400, Note_off_c, 10, 47, 80
6, 89400, Note_off_c, 10, 40, 80
6, 89400, Note_on_c, 10, 64, 95
6, 89400, Note_on_c, 10, 59, 95
6, 89400, Note_on_c, 10, 56, 95
6, 89400, Note_on_c, 10, 52, 95
6, 89400, Note_on_c, 10, 47, 95
6, 89400, Note_on_c, 10, 40, 95
6, 89520, Note_off_c, 10, 64, 80
6, 89520, Note_off_c, 10, 59, 80
6, 89520, Note_off_c, 10, 56, 80
6, 89520, Note_off_c, 10, 52, 80
6, 89520, Note_off_c, 10, 47, 80
6, 89520, Note_off_c, 10, 40, 80
6, 89520, Note_on_c, 10, 64, 95
6, 89520, Note_on_c, 10, 59, 95
6, 89520, Note_on_c, 10, 56, 95
6, 89520, Note_on_c, 10, 52, 95
6, 89520, Note_on_c, 10, 47, 95
6, 89520, Note_on_c, 10, 40, 95
6, 89760, Note_off_c, 10, 64, 80
6, 89760, Note_off_c, 10, 59, 80
6, 89760, Note_off_c, 10, 56, 80
6, 89760, Note_off_c, 10, 52, 80
6, 89760, Note_off_c, 10, 47, 80
6, 89760, Note_off_c, 10, 40, 80
6, 89760, Note_on_c, 10, 64, 95
6, 89760, Note_on_c, 10, 59, 95
6, 89760, Note_on_c, 10, 56, 95
6, 89760, Note_on_c, 10, 52, 95
6, 89760, Note_on_c, 10, 47, 95
6, 89760, Note_on_c, 10, 40, 95
6, 90120, Note_off_c, 10, 64, 80
6, 90120, Note_off_c, 10, 59, 80
6, 90120, Note_off_c, 10, 56, 80
6, 90120, Note_off_c, 10, 52, 80
6, 90120, Note_off_c, 10, 47, 80
6, 90120, Note_off_c, 10, 40, 80
6, 90120, Note_on_c, 10, 64, 95
6, 90120, Note_on_c, 10, 59, 95
6, 90120, Note_on_c, 10, 56, 95
6, 90120, Note_on_c, 10, 52, 95
6, 90120, Note_on_c, 10, 47, 95
6, 90120, Note_on_c, 10, 40, 95
6, 90240, Note_off_c, 10, 64, 80
6, 90240, Note_off_c, 10, 59, 80
6, 90240, Note_off_c, 10, 56, 80
6, 90240, Note_off_c, 10, 52, 80
6, 90240, Note_off_c, 10, 47, 80
6, 90240, Note_off_c, 10, 40, 80
6, 90240, Note_on_c, 10, 66, 95
6, 90240, Note_on_c, 10, 61, 95
6, 90240, Note_on_c, 10, 58, 95
6, 90240, Note_on_c, 10, 54, 95
6, 90240, Note_on_c, 10, 49, 95
6, 90240, Note_on_c, 10, 42, 95
6, 90360, Note_off_c, 10, 66, 80
6, 90360, Note_off_c, 10, 61, 80
6, 90360, Note_off_c, 10, 58, 80
6, 90360, Note_off_c, 10, 54, 80
6, 90360, Note_off_c, 10, 49, 80
6, 90360, Note_off_c, 10, 42, 80
6, 90360, Note_on_c, 10, 66, 95
6, 90360, Note_on_c, 10, 61, 95
6, 90360, Note_on_c, 10, 58, 95
6, 90360, Note_on_c, 10, 54, 95
6, 90360, Note_on_c, 10, 49, 95
6, 90360, Note_on_c, 10, 42, 95
6, 90480, Note_off_c, 10, 66, 80
6, 90480, Note_off_c, 10, 61, 80
6, 90480, Note_off_c, 10, 58, 80
6, 90480, Note_off_c, 10, 54, 80
6, 90480, Note_off_c, 10, 49, 80
6, 90480, Note_off_c, 10, 42, 80
6, 90480, Note_on_c, 10, 66, 95
6, 90480, Note_on_c, 10, 61, 95
6, 90480, Note_on_c, 10, 58, 95
6, 90480, Note_on_c, 10, 54, 95
6, 90480, Note_on_c, 10, 49, 95
6, 90480, Note_on_c, 10, 42, 95
6, 90720, Note_off_c, 10, 66, 80
6, 90720, Note_off_c, 10, 61, 80
6, 90720, Note_off_c, 10, 58, 80
6, 90720, Note_off_c, 10, 54, 80
6, 90720, Note_off_c, 10, 49, 80
6, 90720, Note_off_c, 10, 42, 80
6, 90720, Note_on_c, 10, 66, 95
6, 90720, Note_on_c, 10, 61, 95
6, 90720, Note_on_c, 10, 58, 95
6, 90720, Note_on_c, 10, 54, 95
6, 90720, Note_on_c, 10, 49, 95
6, 90720, Note_on_c, 10, 42, 95
6, 91080, Note_off_c, 10, 66, 80
6, 91080, Note_off_c, 10, 61, 80
6, 91080, Note_off_c, 10, 58, 80
6, 91080, Note_off_c, 10, 54, 80
6, 91080, Note_off_c, 10, 49, 80
6, 91080, Note_off_c, 10, 42, 80
6, 91080, Note_on_c, 10, 66, 95
6, 91080, Note_on_c, 10, 61, 95
6, 91080, Note_on_c, 10, 58, 95
6, 91080, Note_on_c, 10, 54, 95
6, 91080, Note_on_c, 10, 49, 95
6, 91080, Note_on_c, 10, 42, 95
6, 91200, Note_off_c, 10, 66, 80
6, 91200, Note_off_c, 10, 61, 80
6, 91200, Note_off_c, 10, 58, 80
6, 91200, Note_off_c, 10, 54, 80
6, 91200, Note_off_c, 10, 49, 80
6, 91200, Note_off_c, 10, 42, 80
6, 91200, Note_on_c, 10, 64, 95
6, 91200, Note_on_c, 10, 59, 95
6, 91200, Note_on_c, 10, 56, 95
6, 91200, Note_on_c, 10, 52, 95
6, 91200, Note_on_c, 10, 47, 95
6, 91200, Note_on_c, 10, 40, 95
6, 91320, Note_off_c, 10, 64, 80
6, 91320, Note_off_c, 10, 59, 80
6, 91320, Note_off_c, 10, 56, 80
6, 91320, Note_off_c, 10, 52, 80
6, 91320, Note_off_c, 10, 47, 80
6, 91320, Note_off_c, 10, 40, 80
6, 91320, Note_on_c, 10, 64, 95
6, 91320, Note_on_c, 10, 59, 95
6, 91320, Note_on_c, 10, 56, 95
6, 91320, Note_on_c, 10, 52, 95
6, 91320, Note_on_c, 10, 47, 95
6, 91320, Note_on_c, 10, 40, 95
6, 91440, Note_off_c, 10, 64, 80
6, 91440, Note_off_c, 10, 59, 80
6, 91440, Note_off_c, 10, 56, 80
6, 91440, Note_off_c, 10, 52, 80
6, 91440, Note_off_c, 10, 47, 80
6, 91440, Note_off_c, 10, 40, 80
6, 91440, Note_on_c, 10, 64, 95
6, 91440, Note_on_c, 10, 59, 95
6, 91440, Note_on_c, 10, 56, 95
6, 91440, Note_on_c, 10, 52, 95
6, 91440, Note_on_c, 10, 47, 95
6, 91440, Note_on_c, 10, 40, 95
6, 91680, Note_off_c, 10, 64, 80
6, 91680, Note_off_c, 10, 59, 80
6, 91680, Note_off_c, 10, 56, 80
6, 91680, Note_off_c, 10, 52, 80
6, 91680, Note_off_c, 10, 47, 80
6, 91680, Note_off_c, 10, 40, 80
6, 91680, Note_on_c, 10, 64, 95
6, 91680, Note_on_c, 10, 59, 95
6, 91680, Note_on_c, 10, 56, 95
6, 91680, Note_on_c, 10, 52, 95
6, 91680, Note_on_c, 10, 47, 95
6, 91680, Note_on_c, 10, 40, 95
6, 91920, Note_off_c, 10, 64, 80
6, 91920, Note_off_c, 10, 59, 80
6, 91920, Note_off_c, 10, 56, 80
6, 91920, Note_off_c, 10, 52, 80
6, 91920, Note_off_c, 10, 47, 80
6, 91920, Note_off_c, 10, 40, 80
6, 91920, Note_on_c, 10, 64, 95
6, 91920, Note_on_c, 10, 59, 95
6, 91920, Note_on_c, 10, 56, 95
6, 91920, Note_on_c, 10, 52, 95
6, 91920, Note_on_c, 10, 47, 95
6, 91920, Note_on_c, 10, 40, 95
6, 92040, Note_off_c, 10, 64, 80
6, 92040, Note_off_c, 10, 59, 80
6, 92040, Note_off_c, 10, 56, 80
6, 92040, Note_off_c, 10, 52, 80
6, 92040, Note_off_c, 10, 47, 80
6, 92040, Note_off_c, 10, 40, 80
6, 92040, Note_on_c, 10, 64, 95
6, 92040, Note_on_c, 10, 59, 95
6, 92040, Note_on_c, 10, 56, 95
6, 92040, Note_on_c, 10, 52, 95
6, 92040, Note_on_c, 10, 47, 95
6, 92040, Note_on_c, 10, 40, 95
6, 92160, Note_off_c, 10, 64, 80
6, 92160, Note_off_c, 10, 59, 80
6, 92160, Note_off_c, 10, 56, 80
6, 92160, Note_off_c, 10, 52, 80
6, 92160, Note_off_c, 10, 47, 80
6, 92160, Note_off_c, 10, 40, 80
6, 92160, Note_on_c, 10, 71, 95
6, 92160, Note_on_c, 10, 66, 95
6, 92160, Note_on_c, 10, 63, 95
6, 92160, Note_on_c, 10, 59, 95
6, 92160, Note_on_c, 10, 54, 95
6, 92160, Note_on_c, 10, 47, 95
6, 92640, Note_off_c, 10, 71, 80
6, 92640, Note_off_c, 10, 66, 80
6, 92640, Note_off_c, 10, 63, 80
6, 92640, Note_off_c, 10, 59, 80
6, 92640, Note_off_c, 10, 54, 80
6, 92640, Note_off_c, 10, 47, 80
6, 92640, Note_on_c, 10, 71, 95
6, 92640, Note_on_c, 10, 66, 95
6, 92640, Note_on_c, 10, 63, 95
6, 92640, Note_on_c, 10, 59, 95
6, 92640, Note_on_c, 10, 54, 95
6, 92640, Note_on_c, 10, 47, 95
6, 92880, Note_off_c, 10, 71, 80
6, 92880, Note_off_c, 10, 66, 80
6, 92880, Note_off_c, 10, 63, 80
6, 92880, Note_off_c, 10, 59, 80
6, 92880, Note_off_c, 10, 54, 80
6, 92880, Note_off_c, 10, 47, 80
6, 92880, Note_on_c, 10, 71, 95
6, 92880, Note_on_c, 10, 66, 95
6, 92880, Note_on_c, 10, 63, 95
6, 92880, Note_on_c, 10, 59, 95
6, 92880, Note_on_c, 10, 54, 95
6, 92880, Note_on_c, 10, 47, 95
6, 93000, Note_off_c, 10, 71, 80
6, 93000, Note_off_c, 10, 66, 80
6, 93000, Note_off_c, 10, 63, 80
6, 93000, Note_off_c, 10, 59, 80
6, 93000, Note_off_c, 10, 54, 80
6, 93000, Note_off_c, 10, 47, 80
6, 93000, Note_on_c, 10, 71, 95
6, 93000, Note_on_c, 10, 66, 95
6, 93000, Note_on_c, 10, 63, 95
6, 93000, Note_on_c, 10, 59, 95
6, 93000, Note_on_c, 10, 54, 95
6, 93000, Note_on_c, 10, 47, 95
6, 93120, Note_off_c, 10, 71, 80
6, 93120, Note_off_c, 10, 66, 80
6, 93120, Note_off_c, 10, 63, 80
6, 93120, Note_off_c, 10, 59, 80
6, 93120, Note_off_c, 10, 54, 80
6, 93120, Note_off_c, 10, 47, 80
6, 93120, Note_on_c, 10, 69, 95
6, 93120, Note_on_c, 10, 64, 95
6, 93120, Note_on_c, 10, 61, 95
6, 93120, Note_on_c, 10, 57, 95
6, 93120, Note_on_c, 10, 52, 95
6, 93120, Note_on_c, 10, 45, 95
6, 93240, Note_off_c, 10, 69, 80
6, 93240, Note_off_c, 10, 64, 80
6, 93240, Note_off_c, 10, 61, 80
6, 93240, Note_off_c, 10, 57, 80
6, 93240, Note_off_c, 10, 52, 80
6, 93240, Note_off_c, 10, 45, 80
6, 93240, Note_on_c, 10, 69, 95
6, 93240, Note_on_c, 10, 64, 95
6, 93240, Note_on_c, 10, 61, 95
6, 93240, Note_on_c, 10, 57, 95
6, 93240, Note_on_c, 10, 52, 95
6, 93240, Note_on_c, 10, 45, 95
6, 93360, Note_off_c, 10, 69, 80
6, 93360, Note_off_c, 10, 64, 80
6, 93360, Note_off_c, 10, 61, 80
6, 93360, Note_off_c, 10, 57, 80
6, 93360, Note_off_c, 10, 52, 80
6, 93360, Note_off_c, 10, 45, 80
6, 93360, Note_on_c, 10, 69, 95
6, 93360, Note_on_c, 10, 64, 95
6, 93360, Note_on_c, 10, 61, 95
6, 93360, Note_on_c, 10, 57, 95
6, 93360, Note_on_c, 10, 52, 95
6, 93360, Note_on_c, 10, 45, 95
6, 93600, Note_off_c, 10, 69, 80
6, 93600, Note_off_c, 10, 64, 80
6, 93600, Note_off_c, 10, 61, 80
6, 93600, Note_off_c, 10, 57, 80
6, 93600, Note_off_c, 10, 52, 80
6, 93600, Note_off_c, 10, 45, 80
6, 93600, Note_on_c, 10, 69, 95
6, 93600, Note_on_c, 10, 64, 95
6, 93600, Note_on_c, 10, 61, 95
6, 93600, Note_on_c, 10, 57, 95
6, 93600, Note_on_c, 10, 52, 95
6, 93600, Note_on_c, 10, 45, 95
6, 93960, Note_off_c, 10, 69, 80
6, 93960, Note_off_c, 10, 64, 80
6, 93960, Note_off_c, 10, 61, 80
6, 93960, Note_off_c, 10, 57, 80
6, 93960, Note_off_c, 10, 52, 80
6, 93960, Note_off_c, 10, 45, 80
6, 93960, Note_on_c, 10, 69, 95
6, 93960, Note_on_c, 10, 64, 95
6, 93960, Note_on_c, 10, 61, 95
6, 93960, Note_on_c, 10, 57, 95
6, 93960, Note_on_c, 10, 52, 95
6, 93960, Note_on_c, 10, 45, 95
6, 94080, Note_off_c, 10, 69, 80
6, 94080, Note_off_c, 10, 64, 80
6, 94080, Note_off_c, 10, 61, 80
6, 94080, Note_off_c, 10, 57, 80
6, 94080, Note_off_c, 10, 52, 80
6, 94080, Note_off_c, 10, 45, 80
6, 94080, Note_on_c, 10, 64, 95
6, 94080, Note_on_c, 10, 59, 95
6, 94080, Note_on_c, 10, 56, 95
6, 94080, Note_on_c, 10, 52, 95
6, 94080, Note_on_c, 10, 47, 95
6, 94080, Note_on_c, 10, 40, 95
6, 94200, Note_off_c, 10, 64, 80
6, 94200, Note_off_c, 10, 59, 80
6, 94200, Note_off_c, 10, 56, 80
6, 94200, Note_off_c, 10, 52, 80
6, 94200, Note_off_c, 10, 47, 80
6, 94200, Note_off_c, 10, 40, 80
6, 94200, Note_on_c, 10, 64, 95
6, 94200, Note_on_c, 10, 59, 95
6, 94200, Note_on_c, 10, 56, 95
6, 94200, Note_on_c, 10, 52, 95
6, 94200, Note_on_c, 10, 47, 95
6, 94200, Note_on_c, 10, 40, 95
6, 94320, Note_off_c, 10, 64, 80
6, 94320, Note_off_c, 10, 59, 80
6, 94320, Note_off_c, 10, 56, 80
6, 94320, Note_off_c, 10, 52, 80
6, 94320, Note_off_c, 10, 47, 80
6, 94320, Note_off_c, 10, 40, 80
6, 94320, Note_on_c, 10, 64, 95
6, 94320, Note_on_c, 10, 59, 95
6, 94320, Note_on_c, 10, 56, 95
6, 94320, Note_on_c, 10, 52, 95
6, 94320, Note_on_c, 10, 47, 95
6, 94320, Note_on_c, 10, 40, 95
6, 94560, Note_off_c, 10, 64, 80
6, 94560, Note_off_c, 10, 59, 80
6, 94560, Note_off_c, 10, 56, 80
6, 94560, Note_off_c, 10, 52, 80
6, 94560, Note_off_c, 10, 47, 80
6, 94560, Note_off_c, 10, 40, 80
6, 94560, Note_on_c, 10, 64, 95
6, 94560, Note_on_c, 10, 59, 95
6, 94560, Note_on_c, 10, 56, 95
6, 94560, Note_on_c, 10, 52, 95
6, 94560, Note_on_c, 10, 47, 95
6, 94560, Note_on_c, 10, 40, 95
6, 94920, Note_off_c, 10, 64, 80
6, 94920, Note_off_c, 10, 59, 80
6, 94920, Note_off_c, 10, 56, 80
6, 94920, Note_off_c, 10, 52, 80
6, 94920, Note_off_c, 10, 47, 80
6, 94920, Note_off_c, 10, 40, 80
6, 94920, Note_on_c, 10, 64, 95
6, 94920, Note_on_c, 10, 59, 95
6, 94920, Note_on_c, 10, 56, 95
6, 94920, Note_on_c, 10, 52, 95
6, 94920, Note_on_c, 10, 47, 95
6, 94920, Note_on_c, 10, 40, 95
6, 95040, Note_off_c, 10, 64, 80
6, 95040, Note_off_c, 10, 59, 80
6, 95040, Note_off_c, 10, 56, 80
6, 95040, Note_off_c, 10, 52, 80
6, 95040, Note_off_c, 10, 47, 80
6, 95040, Note_off_c, 10, 40, 80
6, 95040, Note_on_c, 10, 66, 95
6, 95040, Note_on_c, 10, 61, 95
6, 95040, Note_on_c, 10, 58, 95
6, 95040, Note_on_c, 10, 54, 95
6, 95040, Note_on_c, 10, 49, 95
6, 95040, Note_on_c, 10, 42, 95
6, 95160, Note_off_c, 10, 66, 80
6, 95160, Note_off_c, 10, 61, 80
6, 95160, Note_off_c, 10, 58, 80
6, 95160, Note_off_c, 10, 54, 80
6, 95160, Note_off_c, 10, 49, 80
6, 95160, Note_off_c, 10, 42, 80
6, 95160, Note_on_c, 10, 66, 95
6, 95160, Note_on_c, 10, 61, 95
6, 95160, Note_on_c, 10, 58, 95
6, 95160, Note_on_c, 10, 54, 95
6, 95160, Note_on_c, 10, 49, 95
6, 95160, Note_on_c, 10, 42, 95
6, 95280, Note_off_c, 10, 66, 80
6, 95280, Note_off_c, 10, 61, 80
6, 95280, Note_off_c, 10, 58, 80
6, 95280, Note_off_c, 10, 54, 80
6, 95280, Note_off_c, 10, 49, 80
6, 95280, Note_off_c, 10, 42, 80
6, 95280, Note_on_c, 10, 66, 95
6, 95280, Note_on_c, 10, 61, 95
6, 95280, Note_on_c, 10, 58, 95
6, 95280, Note_on_c, 10, 54, 95
6, 95280, Note_on_c, 10, 49, 95
6, 95280, Note_on_c, 10, 42, 95
6, 95520, Note_off_c, 10, 66, 80
6, 95520, Note_off_c, 10, 61, 80
6, 95520, Note_off_c, 10, 58, 80
6, 95520, Note_off_c, 10, 54, 80
6, 95520, Note_off_c, 10, 49, 80
6, 95520, Note_off_c, 10, 42, 80
6, 95520, Note_on_c, 10, 66, 95
6, 95520, Note_on_c, 10, 61, 95
6, 95520, Note_on_c, 10, 58, 95
6, 95520, Note_on_c, 10, 54, 95
6, 95520, Note_on_c, 10, 49, 95
6, 95520, Note_on_c, 10, 42, 95
6, 95760, Note_off_c, 10, 66, 80
6, 95760, Note_off_c, 10, 61, 80
6, 95760, Note_off_c, 10, 58, 80
6, 95760, Note_off_c, 10, 54, 80
6, 95760, Note_off_c, 10, 49, 80
6, 95760, Note_off_c, 10, 42, 80
6, 95760, Note_on_c, 10, 66, 95
6, 95760, Note_on_c, 10, 61, 95
6, 95760, Note_on_c, 10, 58, 95
6, 95760, Note_on_c, 10, 54, 95
6, 95760, Note_on_c, 10, 49, 95
6, 95760, Note_on_c, 10, 42, 95
6, 95880, Note_off_c, 10, 66, 80
6, 95880, Note_off_c, 10, 61, 80
6, 95880, Note_off_c, 10, 58, 80
6, 95880, Note_off_c, 10, 54, 80
6, 95880, Note_off_c, 10, 49, 80
6, 95880, Note_off_c, 10, 42, 80
6, 95880, Note_on_c, 10, 66, 95
6, 95880, Note_on_c, 10, 61, 95
6, 95880, Note_on_c, 10, 58, 95
6, 95880, Note_on_c, 10, 54, 95
6, 95880, Note_on_c, 10, 49, 95
6, 95880, Note_on_c, 10, 42, 95
6, 96000, Note_off_c, 10, 66, 80
6, 96000, Note_off_c, 10, 61, 80
6, 96000, Note_off_c, 10, 58, 80
6, 96000, Note_off_c, 10, 54, 80
6, 96000, Note_off_c, 10, 49, 80
6, 96000, Note_off_c, 10, 42, 80
6, 96000, Note_on_c, 10, 71, 95
6, 96000, Note_on_c, 10, 66, 95
6, 96000, Note_on_c, 10, 63, 95
6, 96000, Note_on_c, 10, 59, 95
6, 96000, Note_on_c, 10, 54, 95
6, 96000, Note_on_c, 10, 47, 95
6, 96480, Note_off_c, 10, 71, 80
6, 96480, Note_off_c, 10, 66, 80
6, 96480, Note_off_c, 10, 63, 80
6, 96480, Note_off_c, 10, 59, 80
6, 96480, Note_off_c, 10, 54, 80
6, 96480, Note_off_c, 10, 47, 80
6, 96480, Note_on_c, 10, 71, 95
6, 96480, Note_on_c, 10, 66, 95
6, 96480, Note_on_c, 10, 63, 95
6, 96480, Note_on_c, 10, 59, 95
6, 96480, Note_on_c, 10, 54, 95
6, 96480, Note_on_c, 10, 47, 95
6, 96720, Note_off_c, 10, 71, 80
6, 96720, Note_off_c, 10, 66, 80
6, 96720, Note_off_c, 10, 63, 80
6, 96720, Note_off_c, 10, 59, 80
6, 96720, Note_off_c, 10, 54, 80
6, 96720, Note_off_c, 10, 47, 80
6, 96720, Note_on_c, 10, 71, 95
6, 96720, Note_on_c, 10, 66, 95
6, 96720, Note_on_c, 10, 63, 95
6, 96720, Note_on_c, 10, 59, 95
6, 96720, Note_on_c, 10, 54, 95
6, 96720, Note_on_c, 10, 47, 95
6, 96840, Note_off_c, 10, 71, 80
6, 96840, Note_off_c, 10, 66, 80
6, 96840, Note_off_c, 10, 63, 80
6, 96840, Note_off_c, 10, 59, 80
6, 96840, Note_off_c, 10, 54, 80
6, 96840, Note_off_c, 10, 47, 80
6, 96840, Note_on_c, 10, 71, 95
6, 96840, Note_on_c, 10, 66, 95
6, 96840, Note_on_c, 10, 63, 95
6, 96840, Note_on_c, 10, 59, 95
6, 96840, Note_on_c, 10, 54, 95
6, 96840, Note_on_c, 10, 47, 95
6, 96960, Note_off_c, 10, 71, 80
6, 96960, Note_off_c, 10, 66, 80
6, 96960, Note_off_c, 10, 63, 80
6, 96960, Note_off_c, 10, 59, 80
6, 96960, Note_off_c, 10, 54, 80
6, 96960, Note_off_c, 10, 47, 80
6, 96960, Note_on_c, 10, 64, 95
6, 96960, Note_on_c, 10, 59, 95
6, 96960, Note_on_c, 10, 56, 95
6, 96960, Note_on_c, 10, 52, 95
6, 96960, Note_on_c, 10, 47, 95
6, 96960, Note_on_c, 10, 40, 95
6, 97080, Note_off_c, 10, 64, 80
6, 97080, Note_off_c, 10, 59, 80
6, 97080, Note_off_c, 10, 56, 80
6, 97080, Note_off_c, 10, 52, 80
6, 97080, Note_off_c, 10, 47, 80
6, 97080, Note_off_c, 10, 40, 80
6, 97080, Note_on_c, 10, 64, 95
6, 97080, Note_on_c, 10, 59, 95
6, 97080, Note_on_c, 10, 56, 95
6, 97080, Note_on_c, 10, 52, 95
6, 97080, Note_on_c, 10, 47, 95
6, 97080, Note_on_c, 10, 40, 95
6, 97200, Note_off_c, 10, 64, 80
6, 97200, Note_off_c, 10, 59, 80
6, 97200, Note_off_c, 10, 56, 80
6, 97200, Note_off_c, 10, 52, 80
6, 97200, Note_off_c, 10, 47, 80
6, 97200, Note_off_c, 10, 40, 80
6, 97200, Note_on_c, 10, 64, 95
6, 97200, Note_on_c, 10, 59, 95
6, 97200, Note_on_c, 10, 56, 95
6, 97200, Note_on_c, 10, 52, 95
6, 97200, Note_on_c, 10, 47, 95
6, 97200, Note_on_c, 10, 40, 95
6, 97440, Note_off_c, 10, 64, 80
6, 97440, Note_off_c, 10, 59, 80
6, 97440, Note_off_c, 10, 56, 80
6, 97440, Note_off_c, 10, 52, 80
6, 97440, Note_off_c, 10, 47, 80
6, 97440, Note_off_c, 10, 40, 80
6, 97440, Note_on_c, 10, 64, 95
6, 97440, Note_on_c, 10, 59, 95
6, 97440, Note_on_c, 10, 56, 95
6, 97440, Note_on_c, 10, 52, 95
6, 97440, Note_on_c, 10, 47, 95
6, 97440, Note_on_c, 10, 40, 95
6, 97800, Note_off_c, 10, 64, 80
6, 97800, Note_off_c, 10, 59, 80
6, 97800, Note_off_c, 10, 56, 80
6, 97800, Note_off_c, 10, 52, 80
6, 97800, Note_off_c, 10, 47, 80
6, 97800, Note_off_c, 10, 40, 80
6, 97800, Note_on_c, 10, 64, 95
6, 97800, Note_on_c, 10, 59, 95
6, 97800, Note_on_c, 10, 56, 95
6, 97800, Note_on_c, 10, 52, 95
6, 97800, Note_on_c, 10, 47, 95
6, 97800, Note_on_c, 10, 40, 95
6, 97920, Note_off_c, 10, 64, 80
6, 97920, Note_off_c, 10, 59, 80
6, 97920, Note_off_c, 10, 56, 80
6, 97920, Note_off_c, 10, 52, 80
6, 97920, Note_off_c, 10, 47, 80
6, 97920, Note_off_c, 10, 40, 80
6, 97920, Note_on_c, 10, 66, 95
6, 97920, Note_on_c, 10, 61, 95
6, 97920, Note_on_c, 10, 58, 95
6, 97920, Note_on_c, 10, 54, 95
6, 97920, Note_on_c, 10, 49, 95
6, 97920, Note_on_c, 10, 42, 95
6, 98040, Note_off_c, 10, 66, 80
6, 98040, Note_off_c, 10, 61, 80
6, 98040, Note_off_c, 10, 58, 80
6, 98040, Note_off_c, 10, 54, 80
6, 98040, Note_off_c, 10, 49, 80
6, 98040, Note_off_c, 10, 42, 80
6, 98040, Note_on_c, 10, 66, 95
6, 98040, Note_on_c, 10, 61, 95
6, 98040, Note_on_c, 10, 58, 95
6, 98040, Note_on_c, 10, 54, 95
6, 98040, Note_on_c, 10, 49, 95
6, 98040, Note_on_c, 10, 42, 95
6, 98160, Note_off_c, 10, 66, 80
6, 98160, Note_off_c, 10, 61, 80
6, 98160, Note_off_c, 10, 58, 80
6, 98160, Note_off_c, 10, 54, 80
6, 98160, Note_off_c, 10, 49, 80
6, 98160, Note_off_c, 10, 42, 80
6, 98160, Note_on_c, 10, 66, 95
6, 98160, Note_on_c, 10, 61, 95
6, 98160, Note_on_c, 10, 58, 95
6, 98160, Note_on_c, 10, 54, 95
6, 98160, Note_on_c, 10, 49, 95
6, 98160, Note_on_c, 10, 42, 95
6, 98400, Note_off_c, 10, 66, 80
6, 98400, Note_off_c, 10, 61, 80
6, 98400, Note_off_c, 10, 58, 80
6, 98400, Note_off_c, 10, 54, 80
6, 98400, Note_off_c, 10, 49, 80
6, 98400, Note_off_c, 10, 42, 80
6, 98400, Note_on_c, 10, 66, 95
6, 98400, Note_on_c, 10, 61, 95
6, 98400, Note_on_c, 10, 58, 95
6, 98400, Note_on_c, 10, 54, 95
6, 98400, Note_on_c, 10, 49, 95
6, 98400, Note_on_c, 10, 42, 95
6, 98760, Note_off_c, 10, 66, 80
6, 98760, Note_off_c, 10, 61, 80
6, 98760, Note_off_c, 10, 58, 80
6, 98760, Note_off_c, 10, 54, 80
6, 98760, Note_off_c, 10, 49, 80
6, 98760, Note_off_c, 10, 42, 80
6, 98760, Note_on_c, 10, 66, 95
6, 98760, Note_on_c, 10, 61, 95
6, 98760, Note_on_c, 10, 58, 95
6, 98760, Note_on_c, 10, 54, 95
6, 98760, Note_on_c, 10, 49, 95
6, 98760, Note_on_c, 10, 42, 95
6, 98880, Note_off_c, 10, 66, 80
6, 98880, Note_off_c, 10, 61, 80
6, 98880, Note_off_c, 10, 58, 80
6, 98880, Note_off_c, 10, 54, 80
6, 98880, Note_off_c, 10, 49, 80
6, 98880, Note_off_c, 10, 42, 80
6, 98880, Note_on_c, 10, 64, 95
6, 98880, Note_on_c, 10, 59, 95
6, 98880, Note_on_c, 10, 56, 95
6, 98880, Note_on_c, 10, 52, 95
6, 98880, Note_on_c, 10, 47, 95
6, 98880, Note_on_c, 10, 40, 95
6, 99000, Note_off_c, 10, 64, 80
6, 99000, Note_off_c, 10, 59, 80
6, 99000, Note_off_c, 10, 56, 80
6, 99000, Note_off_c, 10, 52, 80
6, 99000, Note_off_c, 10, 47, 80
6, 99000, Note_off_c, 10, 40, 80
6, 99000, Note_on_c, 10, 64, 95
6, 99000, Note_on_c, 10, 59, 95
6, 99000, Note_on_c, 10, 56, 95
6, 99000, Note_on_c, 10, 52, 95
6, 99000, Note_on_c, 10, 47, 95
6, 99000, Note_on_c, 10, 40, 95
6, 99120, Note_off_c, 10, 64, 80
6, 99120, Note_off_c, 10, 59, 80
6, 99120, Note_off_c, 10, 56, 80
6, 99120, Note_off_c, 10, 52, 80
6, 99120, Note_off_c, 10, 47, 80
6, 99120, Note_off_c, 10, 40, 80
6, 99120, Note_on_c, 10, 64, 95
6, 99120, Note_on_c, 10, 59, 95
6, 99120, Note_on_c, 10, 56, 95
6, 99120, Note_on_c, 10, 52, 95
6, 99120, Note_on_c, 10, 47, 95
6, 99120, Note_on_c, 10, 40, 95
6, 99360, Note_off_c, 10, 64, 80
6, 99360, Note_off_c, 10, 59, 80
6, 99360, Note_off_c, 10, 56, 80
6, 99360, Note_off_c, 10, 52, 80
6, 99360, Note_off_c, 10, 47, 80
6, 99360, Note_off_c, 10, 40, 80
6, 99360, Note_on_c, 10, 64, 95
6, 99360, Note_on_c, 10, 59, 95
6, 99360, Note_on_c, 10, 56, 95
6, 99360, Note_on_c, 10, 52, 95
6, 99360, Note_on_c, 10, 47, 95
6, 99360, Note_on_c, 10, 40, 95
6, 99600, Note_off_c, 10, 64, 80
6, 99600, Note_off_c, 10, 59, 80
6, 99600, Note_off_c, 10, 56, 80
6, 99600, Note_off_c, 10, 52, 80
6, 99600, Note_off_c, 10, 47, 80
6, 99600, Note_off_c, 10, 40, 80
6, 99600, Note_on_c, 10, 64, 95
6, 99600, Note_on_c, 10, 59, 95
6, 99600, Note_on_c, 10, 56, 95
6, 99600, Note_on_c, 10, 52, 95
6, 99600, Note_on_c, 10, 47, 95
6, 99600, Note_on_c, 10, 40, 95
6, 99720, Note_off_c, 10, 64, 80
6, 99720, Note_off_c, 10, 59, 80
6, 99720, Note_off_c, 10, 56, 80
6, 99720, Note_off_c, 10, 52, 80
6, 99720, Note_off_c, 10, 47, 80
6, 99720, Note_off_c, 10, 40, 80
6, 99720, Note_on_c, 10, 64, 95
6, 99720, Note_on_c, 10, 59, 95
6, 99720, Note_on_c, 10, 56, 95
6, 99720, Note_on_c, 10, 52, 95
6, 99720, Note_on_c, 10, 47, 95
6, 99720, Note_on_c, 10, 40, 95
6, 99840, Note_off_c, 10, 64, 80
6, 99840, Note_off_c, 10, 59, 80
6, 99840, Note_off_c, 10, 56, 80
6, 99840, Note_off_c, 10, 52, 80
6, 99840, Note_off_c, 10, 47, 80
6, 99840, Note_off_c, 10, 40, 80
6, 99840, Note_on_c, 10, 66, 95
6, 99840, Note_on_c, 10, 61, 95
6, 99840, Note_on_c, 10, 58, 95
6, 99840, Note_on_c, 10, 54, 95
6, 99840, Note_on_c, 10, 49, 95
6, 99840, Note_on_c, 10, 42, 95
6, 99960, Note_off_c, 10, 66, 80
6, 99960, Note_off_c, 10, 61, 80
6, 99960, Note_off_c, 10, 58, 80
6, 99960, Note_off_c, 10, 54, 80
6, 99960, Note_off_c, 10, 49, 80
6, 99960, Note_off_c, 10, 42, 80
6, 99960, Note_on_c, 10, 66, 95
6, 99960, Note_on_c, 10, 61, 95
6, 99960, Note_on_c, 10, 58, 95
6, 99960, Note_on_c, 10, 54, 95
6, 99960, Note_on_c, 10, 49, 95
6, 99960, Note_on_c, 10, 42, 95
6, 100080, Note_off_c, 10, 66, 80
6, 100080, Note_off_c, 10, 61, 80
6, 100080, Note_off_c, 10, 58, 80
6, 100080, Note_off_c, 10, 54, 80
6, 100080, Note_off_c, 10, 49, 80
6, 100080, Note_off_c, 10, 42, 80
6, 100080, Note_on_c, 10, 66, 95
6, 100080, Note_on_c, 10, 61, 95
6, 100080, Note_on_c, 10, 58, 95
6, 100080, Note_on_c, 10, 54, 95
6, 100080, Note_on_c, 10, 49, 95
6, 100080, Note_on_c, 10, 42, 95
6, 100320, Note_off_c, 10, 66, 80
6, 100320, Note_off_c, 10, 61, 80
6, 100320, Note_off_c, 10, 58, 80
6, 100320, Note_off_c, 10, 54, 80
6, 100320, Note_off_c, 10, 49, 80
6, 100320, Note_off_c, 10, 42, 80
6, 100320, Note_on_c, 10, 66, 95
6, 100320, Note_on_c, 10, 61, 95
6, 100320, Note_on_c, 10, 58, 95
6, 100320, Note_on_c, 10, 54, 95
6, 100320, Note_on_c, 10, 49, 95
6, 100320, Note_on_c, 10, 42, 95
6, 100680, Note_off_c, 10, 66, 80
6, 100680, Note_off_c, 10, 61, 80
6, 100680, Note_off_c, 10, 58, 80
6, 100680, Note_off_c, 10, 54, 80
6, 100680, Note_off_c, 10, 49, 80
6, 100680, Note_off_c, 10, 42, 80
6, 100680, Note_on_c, 10, 66, 95
6, 100680, Note_on_c, 10, 61, 95
6, 100680, Note_on_c, 10, 58, 95
6, 100680, Note_on_c, 10, 54, 95
6, 100680, Note_on_c, 10, 49, 95
6, 100680, Note_on_c, 10, 42, 95
6, 100800, Note_off_c, 10, 66, 80
6, 100800, Note_off_c, 10, 61, 80
6, 100800, Note_off_c, 10, 58, 80
6, 100800, Note_off_c, 10, 54, 80
6, 100800, Note_off_c, 10, 49, 80
6, 100800, Note_off_c, 10, 42, 80
6, 100800, Note_on_c, 10, 64, 95
6, 100800, Note_on_c, 10, 59, 95
6, 100800, Note_on_c, 10, 56, 95
6, 100800, Note_on_c, 10, 52, 95
6, 100800, Note_on_c, 10, 47, 95
6, 100800, Note_on_c, 10, 40, 95
6, 100920, Note_off_c, 10, 64, 80
6, 100920, Note_off_c, 10, 59, 80
6, 100920, Note_off_c, 10, 56, 80
6, 100920, Note_off_c, 10, 52, 80
6, 100920, Note_off_c, 10, 47, 80
6, 100920, Note_off_c, 10, 40, 80
6, 100920, Note_on_c, 10, 64, 95
6, 100920, Note_on_c, 10, 59, 95
6, 100920, Note_on_c, 10, 56, 95
6, 100920, Note_on_c, 10, 52, 95
6, 100920, Note_on_c, 10, 47, 95
6, 100920, Note_on_c, 10, 40, 95
6, 101040, Note_off_c, 10, 64, 80
6, 101040, Note_off_c, 10, 59, 80
6, 101040, Note_off_c, 10, 56, 80
6, 101040, Note_off_c, 10, 52, 80
6, 101040, Note_off_c, 10, 47, 80
6, 101040, Note_off_c, 10, 40, 80
6, 101040, Note_on_c, 10, 64, 95
6, 101040, Note_on_c, 10, 59, 95
6, 101040, Note_on_c, 10, 56, 95
6, 101040, Note_on_c, 10, 52, 95
6, 101040, Note_on_c, 10, 47, 95
6, 101040, Note_on_c, 10, 40, 95
6, 101280, Note_off_c, 10, 64, 80
6, 101280, Note_off_c, 10, 59, 80
6, 101280, Note_off_c, 10, 56, 80
6, 101280, Note_off_c, 10, 52, 80
6, 101280, Note_off_c, 10, 47, 80
6, 101280, Note_off_c, 10, 40, 80
6, 101280, Note_on_c, 10, 64, 95
6, 101280, Note_on_c, 10, 59, 95
6, 101280, Note_on_c, 10, 56, 95
6, 101280, Note_on_c, 10, 52, 95
6, 101280, Note_on_c, 10, 47, 95
6, 101280, Note_on_c, 10, 40, 95
6, 101520, Note_off_c, 10, 64, 80
6, 101520, Note_off_c, 10, 59, 80
6, 101520, Note_off_c, 10, 56, 80
6, 101520, Note_off_c, 10, 52, 80
6, 101520, Note_off_c, 10, 47, 80
6, 101520, Note_off_c, 10, 40, 80
6, 101520, Note_on_c, 10, 64, 95
6, 101520, Note_on_c, 10, 59, 95
6, 101520, Note_on_c, 10, 56, 95
6, 101520, Note_on_c, 10, 52, 95
6, 101520, Note_on_c, 10, 47, 95
6, 101520, Note_on_c, 10, 40, 95
6, 101640, Note_off_c, 10, 64, 80
6, 101640, Note_off_c, 10, 59, 80
6, 101640, Note_off_c, 10, 56, 80
6, 101640, Note_off_c, 10, 52, 80
6, 101640, Note_off_c, 10, 47, 80
6, 101640, Note_off_c, 10, 40, 80
6, 101640, Note_on_c, 10, 64, 95
6, 101640, Note_on_c, 10, 59, 95
6, 101640, Note_on_c, 10, 56, 95
6, 101640, Note_on_c, 10, 52, 95
6, 101640, Note_on_c, 10, 47, 95
6, 101640, Note_on_c, 10, 40, 95
6, 101760, Note_off_c, 10, 64, 80
6, 101760, Note_off_c, 10, 59, 80
6, 101760, Note_off_c, 10, 56, 80
6, 101760, Note_off_c, 10, 52, 80
6, 101760, Note_off_c, 10, 47, 80
6, 101760, Note_off_c, 10, 40, 80
6, 101760, Note_on_c, 10, 71, 95
6, 101760, Note_on_c, 10, 66, 95
6, 101760, Note_on_c, 10, 63, 95
6, 101760, Note_on_c, 10, 59, 95
6, 101760, Note_on_c, 10, 54, 95
6, 101760, Note_on_c, 10, 47, 95
6, 102240, Note_off_c, 10, 71, 80
6, 102240, Note_off_c, 10, 66, 80
6, 102240, Note_off_c, 10, 63, 80
6, 102240, Note_off_c, 10, 59, 80
6, 102240, Note_off_c, 10, 54, 80
6, 102240, Note_off_c, 10, 47, 80
6, 102240, Note_on_c, 10, 71, 95
6, 102240, Note_on_c, 10, 66, 95
6, 102240, Note_on_c, 10, 63, 95
6, 102240, Note_on_c, 10, 59, 95
6, 102240, Note_on_c, 10, 54, 95
6, 102240, Note_on_c, 10, 47, 95
6, 102480, Note_off_c, 10, 71, 80
6, 102480, Note_off_c, 10, 66, 80
6, 102480, Note_off_c, 10, 63, 80
6, 102480, Note_off_c, 10, 59, 80
6, 102480, Note_off_c, 10, 54, 80
6, 102480, Note_off_c, 10, 47, 80
6, 102480, Note_on_c, 10, 71, 95
6, 102480, Note_on_c, 10, 66, 95
6, 102480, Note_on_c, 10, 63, 95
6, 102480, Note_on_c, 10, 59, 95
6, 102480, Note_on_c, 10, 54, 95
6, 102480, Note_on_c, 10, 47, 95
6, 102600, Note_off_c, 10, 71, 80
6, 102600, Note_off_c, 10, 66, 80
6, 102600, Note_off_c, 10, 63, 80
6, 102600, Note_off_c, 10, 59, 80
6, 102600, Note_off_c, 10, 54, 80
6, 102600, Note_off_c, 10, 47, 80
6, 102600, Note_on_c, 10, 71, 95
6, 102600, Note_on_c, 10, 66, 95
6, 102600, Note_on_c, 10, 63, 95
6, 102600, Note_on_c, 10, 59, 95
6, 102600, Note_on_c, 10, 54, 95
6, 102600, Note_on_c, 10, 47, 95
6, 102720, Note_off_c, 10, 71, 80
6, 102720, Note_off_c, 10, 66, 80
6, 102720, Note_off_c, 10, 63, 80
6, 102720, Note_off_c, 10, 59, 80
6, 102720, Note_off_c, 10, 54, 80
6, 102720, Note_off_c, 10, 47, 80
6, 102720, Note_on_c, 10, 64, 95
6, 102720, Note_on_c, 10, 59, 95
6, 102720, Note_on_c, 10, 56, 95
6, 102720, Note_on_c, 10, 52, 95
6, 102720, Note_on_c, 10, 47, 95
6, 102720, Note_on_c, 10, 40, 95
6, 102840, Note_off_c, 10, 64, 80
6, 102840, Note_off_c, 10, 59, 80
6, 102840, Note_off_c, 10, 56, 80
6, 102840, Note_off_c, 10, 52, 80
6, 102840, Note_off_c, 10, 47, 80
6, 102840, Note_off_c, 10, 40, 80
6, 102840, Note_on_c, 10, 64, 95
6, 102840, Note_on_c, 10, 59, 95
6, 102840, Note_on_c, 10, 56, 95
6, 102840, Note_on_c, 10, 52, 95
6, 102840, Note_on_c, 10, 47, 95
6, 102840, Note_on_c, 10, 40, 95
6, 102960, Note_off_c, 10, 64, 80
6, 102960, Note_off_c, 10, 59, 80
6, 102960, Note_off_c, 10, 56, 80
6, 102960, Note_off_c, 10, 52, 80
6, 102960, Note_off_c, 10, 47, 80
6, 102960, Note_off_c, 10, 40, 80
6, 102960, Note_on_c, 10, 64, 95
6, 102960, Note_on_c, 10, 59, 95
6, 102960, Note_on_c, 10, 56, 95
6, 102960, Note_on_c, 10, 52, 95
6, 102960, Note_on_c, 10, 47, 95
6, 102960, Note_on_c, 10, 40, 95
6, 103200, Note_off_c, 10, 64, 80
6, 103200, Note_off_c, 10, 59, 80
6, 103200, Note_off_c, 10, 56, 80
6, 103200, Note_off_c, 10, 52, 80
6, 103200, Note_off_c, 10, 47, 80
6, 103200, Note_off_c, 10, 40, 80
6, 103200, Note_on_c, 10, 64, 95
6, 103200, Note_on_c, 10, 59, 95
6, 103200, Note_on_c, 10, 56, 95
6, 103200, Note_on_c, 10, 52, 95
6, 103200, Note_on_c, 10, 47, 95
6, 103200, Note_on_c, 10, 40, 95
6, 103560, Note_off_c, 10, 64, 80
6, 103560, Note_off_c, 10, 59, 80
6, 103560, Note_off_c, 10, 56, 80
6, 103560, Note_off_c, 10, 52, 80
6, 103560, Note_off_c, 10, 47, 80
6, 103560, Note_off_c, 10, 40, 80
6, 103560, Note_on_c, 10, 64, 95
6, 103560, Note_on_c, 10, 59, 95
6, 103560, Note_on_c, 10, 56, 95
6, 103560, Note_on_c, 10, 52, 95
6, 103560, Note_on_c, 10, 47, 95
6, 103560, Note_on_c, 10, 40, 95
6, 103680, Note_off_c, 10, 64, 80
6, 103680, Note_off_c, 10, 59, 80
6, 103680, Note_off_c, 10, 56, 80
6, 103680, Note_off_c, 10, 52, 80
6, 103680, Note_off_c, 10, 47, 80
6, 103680, Note_off_c, 10, 40, 80
6, 103680, Note_on_c, 10, 66, 95
6, 103680, Note_on_c, 10, 61, 95
6, 103680, Note_on_c, 10, 58, 95
6, 103680, Note_on_c, 10, 54, 95
6, 103680, Note_on_c, 10, 49, 95
6, 103680, Note_on_c, 10, 42, 95
6, 103800, Note_off_c, 10, 66, 80
6, 103800, Note_off_c, 10, 61, 80
6, 103800, Note_off_c, 10, 58, 80
6, 103800, Note_off_c, 10, 54, 80
6, 103800, Note_off_c, 10, 49, 80
6, 103800, Note_off_c, 10, 42, 80
6, 103800, Note_on_c, 10, 66, 95
6, 103800, Note_on_c, 10, 61, 95
6, 103800, Note_on_c, 10, 58, 95
6, 103800, Note_on_c, 10, 54, 95
6, 103800, Note_on_c, 10, 49, 95
6, 103800, Note_on_c, 10, 42, 95
6, 103920, Note_off_c, 10, 66, 80
6, 103920, Note_off_c, 10, 61, 80
6, 103920, Note_off_c, 10, 58, 80
6, 103920, Note_off_c, 10, 54, 80
6, 103920, Note_off_c, 10, 49, 80
6, 103920, Note_off_c, 10, 42, 80
6, 103920, Note_on_c, 10, 66, 95
6, 103920, Note_on_c, 10, 61, 95
6, 103920, Note_on_c, 10, 58, 95
6, 103920, Note_on_c, 10, 54, 95
6, 103920, Note_on_c, 10, 49, 95
6, 103920, Note_on_c, 10, 42, 95
6, 104160, Note_off_c, 10, 66, 80
6, 104160, Note_off_c, 10, 61, 80
6, 104160, Note_off_c, 10, 58, 80
6, 104160, Note_off_c, 10, 54, 80
6, 104160, Note_off_c, 10, 49, 80
6, 104160, Note_off_c, 10, 42, 80
6, 104160, Note_on_c, 10, 66, 95
6, 104160, Note_on_c, 10, 61, 95
6, 104160, Note_on_c, 10, 58, 95
6, 104160, Note_on_c, 10, 54, 95
6, 104160, Note_on_c, 10, 49, 95
6, 104160, Note_on_c, 10, 42, 95
6, 104520, Note_off_c, 10, 66, 80
6, 104520, Note_off_c, 10, 61, 80
6, 104520, Note_off_c, 10, 58, 80
6, 104520, Note_off_c, 10, 54, 80
6, 104520, Note_off_c, 10, 49, 80
6, 104520, Note_off_c, 10, 42, 80
6, 104520, Note_on_c, 10, 66, 95
6, 104520, Note_on_c, 10, 61, 95
6, 104520, Note_on_c, 10, 58, 95
6, 104520, Note_on_c, 10, 54, 95
6, 104520, Note_on_c, 10, 49, 95
6, 104520, Note_on_c, 10, 42, 95
6, 104640, Note_off_c, 10, 66, 80
6, 104640, Note_off_c, 10, 61, 80
6, 104640, Note_off_c, 10, 58, 80
6, 104640, Note_off_c, 10, 54, 80
6, 104640, Note_off_c, 10, 49, 80
6, 104640, Note_off_c, 10, 42, 80
6, 104640, Note_on_c, 10, 64, 95
6, 104640, Note_on_c, 10, 59, 95
6, 104640, Note_on_c, 10, 56, 95
6, 104640, Note_on_c, 10, 52, 95
6, 104640, Note_on_c, 10, 47, 95
6, 104640, Note_on_c, 10, 40, 95
6, 104760, Note_off_c, 10, 64, 80
6, 104760, Note_off_c, 10, 59, 80
6, 104760, Note_off_c, 10, 56, 80
6, 104760, Note_off_c, 10, 52, 80
6, 104760, Note_off_c, 10, 47, 80
6, 104760, Note_off_c, 10, 40, 80
6, 104760, Note_on_c, 10, 64, 95
6, 104760, Note_on_c, 10, 59, 95
6, 104760, Note_on_c, 10, 56, 95
6, 104760, Note_on_c, 10, 52, 95
6, 104760, Note_on_c, 10, 47, 95
6, 104760, Note_on_c, 10, 40, 95
6, 104880, Note_off_c, 10, 64, 80
6, 104880, Note_off_c, 10, 59, 80
6, 104880, Note_off_c, 10, 56, 80
6, 104880, Note_off_c, 10, 52, 80
6, 104880, Note_off_c, 10, 47, 80
6, 104880, Note_off_c, 10, 40, 80
6, 104880, Note_on_c, 10, 64, 95
6, 104880, Note_on_c, 10, 59, 95
6, 104880, Note_on_c, 10, 56, 95
6, 104880, Note_on_c, 10, 52, 95
6, 104880, Note_on_c, 10, 47, 95
6, 104880, Note_on_c, 10, 40, 95
6, 105120, Note_off_c, 10, 64, 80
6, 105120, Note_off_c, 10, 59, 80
6, 105120, Note_off_c, 10, 56, 80
6, 105120, Note_off_c, 10, 52, 80
6, 105120, Note_off_c, 10, 47, 80
6, 105120, Note_off_c, 10, 40, 80
6, 105120, Note_on_c, 10, 64, 95
6, 105120, Note_on_c, 10, 59, 95
6, 105120, Note_on_c, 10, 56, 95
6, 105120, Note_on_c, 10, 52, 95
6, 105120, Note_on_c, 10, 47, 95
6, 105120, Note_on_c, 10, 40, 95
6, 105360, Note_off_c, 10, 64, 80
6, 105360, Note_off_c, 10, 59, 80
6, 105360, Note_off_c, 10, 56, 80
6, 105360, Note_off_c, 10, 52, 80
6, 105360, Note_off_c, 10, 47, 80
6, 105360, Note_off_c, 10, 40, 80
6, 105360, Note_on_c, 10, 64, 95
6, 105360, Note_on_c, 10, 59, 95
6, 105360, Note_on_c, 10, 56, 95
6, 105360, Note_on_c, 10, 52, 95
6, 105360, Note_on_c, 10, 47, 95
6, 105360, Note_on_c, 10, 40, 95
6, 105480, Note_off_c, 10, 64, 80
6, 105480, Note_off_c, 10, 59, 80
6, 105480, Note_off_c, 10, 56, 80
6, 105480, Note_off_c, 10, 52, 80
6, 105480, Note_off_c, 10, 47, 80
6, 105480, Note_off_c, 10, 40, 80
6, 105480, Note_on_c, 10, 64, 95
6, 105480, Note_on_c, 10, 59, 95
6, 105480, Note_on_c, 10, 56, 95
6, 105480, Note_on_c, 10, 52, 95
6, 105480, Note_on_c, 10, 47, 95
6, 105480, Note_on_c, 10, 40, 95
6, 105600, Note_off_c, 10, 64, 80
6, 105600, Note_off_c, 10, 59, 80
6, 105600, Note_off_c, 10, 56, 80
6, 105600, Note_off_c, 10, 52, 80
6, 105600, Note_off_c, 10, 47, 80
6, 105600, Note_off_c, 10, 40, 80
6, 105600, Note_on_c, 10, 71, 95
6, 105600, Note_on_c, 10, 66, 95
6, 105600, Note_on_c, 10, 63, 95
6, 105600, Note_on_c, 10, 59, 95
6, 105600, Note_on_c, 10, 54, 95
6, 105600, Note_on_c, 10, 47, 95
6, 106080, Note_off_c, 10, 71, 80
6, 106080, Note_off_c, 10, 66, 80
6, 106080, Note_off_c, 10, 63, 80
6, 106080, Note_off_c, 10, 59, 80
6, 106080, Note_off_c, 10, 54, 80
6, 106080, Note_off_c, 10, 47, 80
6, 106080, Note_on_c, 10, 71, 95
6, 106080, Note_on_c, 10, 66, 95
6, 106080, Note_on_c, 10, 63, 95
6, 106080, Note_on_c, 10, 59, 95
6, 106080, Note_on_c, 10, 54, 95
6, 106080, Note_on_c, 10, 47, 95
6, 106320, Note_off_c, 10, 71, 80
6, 106320, Note_off_c, 10, 66, 80
6, 106320, Note_off_c, 10, 63, 80
6, 106320, Note_off_c, 10, 59, 80
6, 106320, Note_off_c, 10, 54, 80
6, 106320, Note_off_c, 10, 47, 80
6, 106320, Note_on_c, 10, 71, 95
6, 106320, Note_on_c, 10, 66, 95
6, 106320, Note_on_c, 10, 63, 95
6, 106320, Note_on_c, 10, 59, 95
6, 106320, Note_on_c, 10, 54, 95
6, 106320, Note_on_c, 10, 47, 95
6, 106440, Note_off_c, 10, 71, 80
6, 106440, Note_off_c, 10, 66, 80
6, 106440, Note_off_c, 10, 63, 80
6, 106440, Note_off_c, 10, 59, 80
6, 106440, Note_off_c, 10, 54, 80
6, 106440, Note_off_c, 10, 47, 80
6, 106440, Note_on_c, 10, 71, 95
6, 106440, Note_on_c, 10, 66, 95
6, 106440, Note_on_c, 10, 63, 95
6, 106440, Note_on_c, 10, 59, 95
6, 106440, Note_on_c, 10, 54, 95
6, 106440, Note_on_c, 10, 47, 95
6, 106560, Note_off_c, 10, 71, 80
6, 106560, Note_off_c, 10, 66, 80
6, 106560, Note_off_c, 10, 63, 80
6, 106560, Note_off_c, 10, 59, 80
6, 106560, Note_off_c, 10, 54, 80
6, 106560, Note_off_c, 10, 47, 80
6, 106560, Note_on_c, 10, 64, 95
6, 106560, Note_on_c, 10, 59, 95
6, 106560, Note_on_c, 10, 56, 95
6, 106560, Note_on_c, 10, 52, 95
6, 106560, Note_on_c, 10, 47, 95
6, 106560, Note_on_c, 10, 40, 95
6, 106680, Note_off_c, 10, 64, 80
6, 106680, Note_off_c, 10, 59, 80
6, 106680, Note_off_c, 10, 56, 80
6, 106680, Note_off_c, 10, 52, 80
6, 106680, Note_off_c, 10, 47, 80
6, 106680, Note_off_c, 10, 40, 80
6, 106680, Note_on_c, 10, 64, 95
6, 106680, Note_on_c, 10, 59, 95
6, 106680, Note_on_c, 10, 56, 95
6, 106680, Note_on_c, 10, 52, 95
6, 106680, Note_on_c, 10, 47, 95
6, 106680, Note_on_c, 10, 40, 95
6, 106800, Note_off_c, 10, 64, 80
6, 106800, Note_off_c, 10, 59, 80
6, 106800, Note_off_c, 10, 56, 80
6, 106800, Note_off_c, 10, 52, 80
6, 106800, Note_off_c, 10, 47, 80
6, 106800, Note_off_c, 10, 40, 80
6, 106800, Note_on_c, 10, 64, 95
6, 106800, Note_on_c, 10, 59, 95
6, 106800, Note_on_c, 10, 56, 95
6, 106800, Note_on_c, 10, 52, 95
6, 106800, Note_on_c, 10, 47, 95
6, 106800, Note_on_c, 10, 40, 95
6, 107040, Note_off_c, 10, 64, 80
6, 107040, Note_off_c, 10, 59, 80
6, 107040, Note_off_c, 10, 56, 80
6, 107040, Note_off_c, 10, 52, 80
6, 107040, Note_off_c, 10, 47, 80
6, 107040, Note_off_c, 10, 40, 80
6, 107040, Note_on_c, 10, 64, 95
6, 107040, Note_on_c, 10, 59, 95
6, 107040, Note_on_c, 10, 56, 95
6, 107040, Note_on_c, 10, 52, 95
6, 107040, Note_on_c, 10, 47, 95
6, 107040, Note_on_c, 10, 40, 95
6, 107400, Note_off_c, 10, 64, 80
6, 107400, Note_off_c, 10, 59, 80
6, 107400, Note_off_c, 10, 56, 80
6, 107400, Note_off_c, 10, 52, 80
6, 107400, Note_off_c, 10, 47, 80
6, 107400, Note_off_c, 10, 40, 80
6, 107400, Note_on_c, 10, 64, 95
6, 107400, Note_on_c, 10, 59, 95
6, 107400, Note_on_c, 10, 56, 95
6, 107400, Note_on_c, 10, 52, 95
6, 107400, Note_on_c, 10, 47, 95
6, 107400, Note_on_c, 10, 40, 95
6, 107520, Note_off_c, 10, 64, 80
6, 107520, Note_off_c, 10, 59, 80
6, 107520, Note_off_c, 10, 56, 80
6, 107520, Note_off_c, 10, 52, 80
6, 107520, Note_off_c, 10, 47, 80
6, 107520, Note_off_c, 10, 40, 80
6, 107520, Note_on_c, 10, 66, 95
6, 107520, Note_on_c, 10, 61, 95
6, 107520, Note_on_c, 10, 58, 95
6, 107520, Note_on_c, 10, 54, 95
6, 107520, Note_on_c, 10, 49, 95
6, 107520, Note_on_c, 10, 42, 95
6, 107640, Note_off_c, 10, 66, 80
6, 107640, Note_off_c, 10, 61, 80
6, 107640, Note_off_c, 10, 58, 80
6, 107640, Note_off_c, 10, 54, 80
6, 107640, Note_off_c, 10, 49, 80
6, 107640, Note_off_c, 10, 42, 80
6, 107640, Note_on_c, 10, 66, 95
6, 107640, Note_on_c, 10, 61, 95
6, 107640, Note_on_c, 10, 58, 95
6, 107640, Note_on_c, 10, 54, 95
6, 107640, Note_on_c, 10, 49, 95
6, 107640, Note_on_c, 10, 42, 95
6, 107760, Note_off_c, 10, 66, 80
6, 107760, Note_off_c, 10, 61, 80
6, 107760, Note_off_c, 10, 58, 80
6, 107760, Note_off_c, 10, 54, 80
6, 107760, Note_off_c, 10, 49, 80
6, 107760, Note_off_c, 10, 42, 80
6, 107760, Note_on_c, 10, 66, 95
6, 107760, Note_on_c, 10, 61, 95
6, 107760, Note_on_c, 10, 58, 95
6, 107760, Note_on_c, 10, 54, 95
6, 107760, Note_on_c, 10, 49, 95
6, 107760, Note_on_c, 10, 42, 95
6, 108000, Note_off_c, 10, 66, 80
6, 108000, Note_off_c, 10, 61, 80
6, 108000, Note_off_c, 10, 58, 80
6, 108000, Note_off_c, 10, 54, 80
6, 108000, Note_off_c, 10, 49, 80
6, 108000, Note_off_c, 10, 42, 80
6, 108000, Note_on_c, 10, 66, 95
6, 108000, Note_on_c, 10, 61, 95
6, 108000, Note_on_c, 10, 58, 95
6, 108000, Note_on_c, 10, 54, 95
6, 108000, Note_on_c, 10, 49, 95
6, 108000, Note_on_c, 10, 42, 95
6, 108360, Note_off_c, 10, 66, 80
6, 108360, Note_off_c, 10, 61, 80
6, 108360, Note_off_c, 10, 58, 80
6, 108360, Note_off_c, 10, 54, 80
6, 108360, Note_off_c, 10, 49, 80
6, 108360, Note_off_c, 10, 42, 80
6, 108360, Note_on_c, 10, 66, 95
6, 108360, Note_on_c, 10, 61, 95
6, 108360, Note_on_c, 10, 58, 95
6, 108360, Note_on_c, 10, 54, 95
6, 108360, Note_on_c, 10, 49, 95
6, 108360, Note_on_c, 10, 42, 95
6, 108480, Note_off_c, 10, 66, 80
6, 108480, Note_off_c, 10, 61, 80
6, 108480, Note_off_c, 10, 58, 80
6, 108480, Note_off_c, 10, 54, 80
6, 108480, Note_off_c, 10, 49, 80
6, 108480, Note_off_c, 10, 42, 80
6, 108480, Note_on_c, 10, 64, 95
6, 108480, Note_on_c, 10, 59, 95
6, 108480, Note_on_c, 10, 56, 95
6, 108480, Note_on_c, 10, 52, 95
6, 108480, Note_on_c, 10, 47, 95
6, 108480, Note_on_c, 10, 40, 95
6, 108600, Note_off_c, 10, 64, 80
6, 108600, Note_off_c, 10, 59, 80
6, 108600, Note_off_c, 10, 56, 80
6, 108600, Note_off_c, 10, 52, 80
6, 108600, Note_off_c, 10, 47, 80
6, 108600, Note_off_c, 10, 40, 80
6, 108600, Note_on_c, 10, 64, 95
6, 108600, Note_on_c, 10, 59, 95
6, 108600, Note_on_c, 10, 56, 95
6, 108600, Note_on_c, 10, 52, 95
6, 108600, Note_on_c, 10, 47, 95
6, 108600, Note_on_c, 10, 40, 95
6, 108720, Note_off_c, 10, 64, 80
6, 108720, Note_off_c, 10, 59, 80
6, 108720, Note_off_c, 10, 56, 80
6, 108720, Note_off_c, 10, 52, 80
6, 108720, Note_off_c, 10, 47, 80
6, 108720, Note_off_c, 10, 40, 80
6, 108720, Note_on_c, 10, 64, 95
6, 108720, Note_on_c, 10, 59, 95
6, 108720, Note_on_c, 10, 56, 95
6, 108720, Note_on_c, 10, 52, 95
6, 108720, Note_on_c, 10, 47, 95
6, 108720, Note_on_c, 10, 40, 95
6, 108960, Note_off_c, 10, 64, 80
6, 108960, Note_off_c, 10, 59, 80
6, 108960, Note_off_c, 10, 56, 80
6, 108960, Note_off_c, 10, 52, 80
6, 108960, Note_off_c, 10, 47, 80
6, 108960, Note_off_c, 10, 40, 80
6, 108960, Note_on_c, 10, 64, 95
6, 108960, Note_on_c, 10, 59, 95
6, 108960, Note_on_c, 10, 56, 95
6, 108960, Note_on_c, 10, 52, 95
6, 108960, Note_on_c, 10, 47, 95
6, 108960, Note_on_c, 10, 40, 95
6, 109200, Note_off_c, 10, 64, 80
6, 109200, Note_off_c, 10, 59, 80
6, 109200, Note_off_c, 10, 56, 80
6, 109200, Note_off_c, 10, 52, 80
6, 109200, Note_off_c, 10, 47, 80
6, 109200, Note_off_c, 10, 40, 80
6, 109200, Note_on_c, 10, 64, 95
6, 109200, Note_on_c, 10, 59, 95
6, 109200, Note_on_c, 10, 56, 95
6, 109200, Note_on_c, 10, 52, 95
6, 109200, Note_on_c, 10, 47, 95
6, 109200, Note_on_c, 10, 40, 95
6, 109320, Note_off_c, 10, 64, 80
6, 109320, Note_off_c, 10, 59, 80
6, 109320, Note_off_c, 10, 56, 80
6, 109320, Note_off_c, 10, 52, 80
6, 109320, Note_off_c, 10, 47, 80
6, 109320, Note_off_c, 10, 40, 80
6, 109320, Note_on_c, 10, 64, 95
6, 109320, Note_on_c, 10, 59, 95
6, 109320, Note_on_c, 10, 56, 95
6, 109320, Note_on_c, 10, 52, 95
6, 109320, Note_on_c, 10, 47, 95
6, 109320, Note_on_c, 10, 40, 95
6, 109440, Note_off_c, 10, 64, 80
6, 109440, Note_off_c, 10, 59, 80
6, 109440, Note_off_c, 10, 56, 80
6, 109440, Note_off_c, 10, 52, 80
6, 109440, Note_off_c, 10, 47, 80
6, 109440, Note_off_c, 10, 40, 80
6, 109440, Note_on_c, 10, 71, 95
6, 109440, Note_on_c, 10, 66, 95
6, 109440, Note_on_c, 10, 63, 95
6, 109440, Note_on_c, 10, 59, 95
6, 109440, Note_on_c, 10, 54, 95
6, 109440, Note_on_c, 10, 47, 95
6, 109920, Note_off_c, 10, 71, 80
6, 109920, Note_off_c, 10, 66, 80
6, 109920, Note_off_c, 10, 63, 80
6, 109920, Note_off_c, 10, 59, 80
6, 109920, Note_off_c, 10, 54, 80
6, 109920, Note_off_c, 10, 47, 80
6, 109920, Note_on_c, 10, 71, 95
6, 109920, Note_on_c, 10, 66, 95
6, 109920, Note_on_c, 10, 63, 95
6, 109920, Note_on_c, 10, 59, 95
6, 109920, Note_on_c, 10, 54, 95
6, 109920, Note_on_c, 10, 47, 95
6, 110160, Note_off_c, 10, 71, 80
6, 110160, Note_off_c, 10, 66, 80
6, 110160, Note_off_c, 10, 63, 80
6, 110160, Note_off_c, 10, 59, 80
6, 110160, Note_off_c, 10, 54, 80
6, 110160, Note_off_c, 10, 47, 80
6, 110160, Note_on_c, 10, 71, 95
6, 110160, Note_on_c, 10, 66, 95
6, 110160, Note_on_c, 10, 63, 95
6, 110160, Note_on_c, 10, 59, 95
6, 110160, Note_on_c, 10, 54, 95
6, 110160, Note_on_c, 10, 47, 95
6, 110280, Note_off_c, 10, 71, 80
6, 110280, Note_off_c, 10, 66, 80
6, 110280, Note_off_c, 10, 63, 80
6, 110280, Note_off_c, 10, 59, 80
6, 110280, Note_off_c, 10, 54, 80
6, 110280, Note_off_c, 10, 47, 80
6, 110280, Note_on_c, 10, 71, 95
6, 110280, Note_on_c, 10, 66, 95
6, 110280, Note_on_c, 10, 63, 95
6, 110280, Note_on_c, 10, 59, 95
6, 110280, Note_on_c, 10, 54, 95
6, 110280, Note_on_c, 10, 47, 95
6, 110400, Note_off_c, 10, 71, 80
6, 110400, Note_off_c, 10, 66, 80
6, 110400, Note_off_c, 10, 63, 80
6, 110400, Note_off_c, 10, 59, 80
6, 110400, Note_off_c, 10, 54, 80
6, 110400, Note_off_c, 10, 47, 80
6, 110400, Note_on_c, 10, 69, 95
6, 110400, Note_on_c, 10, 64, 95
6, 110400, Note_on_c, 10, 61, 95
6, 110400, Note_on_c, 10, 57, 95
6, 110400, Note_on_c, 10, 52, 95
6, 110400, Note_on_c, 10, 45, 95
6, 110520, Note_off_c, 10, 69, 80
6, 110520, Note_off_c, 10, 64, 80
6, 110520, Note_off_c, 10, 61, 80
6, 110520, Note_off_c, 10, 57, 80
6, 110520, Note_off_c, 10, 52, 80
6, 110520, Note_off_c, 10, 45, 80
6, 110520, Note_on_c, 10, 69, 95
6, 110520, Note_on_c, 10, 64, 95
6, 110520, Note_on_c, 10, 61, 95
6, 110520, Note_on_c, 10, 57, 95
6, 110520, Note_on_c, 10, 52, 95
6, 110520, Note_on_c, 10, 45, 95
6, 110640, Note_off_c, 10, 69, 80
6, 110640, Note_off_c, 10, 64, 80
6, 110640, Note_off_c, 10, 61, 80
6, 110640, Note_off_c, 10, 57, 80
6, 110640, Note_off_c, 10, 52, 80
6, 110640, Note_off_c, 10, 45, 80
6, 110640, Note_on_c, 10, 69, 95
6, 110640, Note_on_c, 10, 64, 95
6, 110640, Note_on_c, 10, 61, 95
6, 110640, Note_on_c, 10, 57, 95
6, 110640, Note_on_c, 10, 52, 95
6, 110640, Note_on_c, 10, 45, 95
6, 110880, Note_off_c, 10, 69, 80
6, 110880, Note_off_c, 10, 64, 80
6, 110880, Note_off_c, 10, 61, 80
6, 110880, Note_off_c, 10, 57, 80
6, 110880, Note_off_c, 10, 52, 80
6, 110880, Note_off_c, 10, 45, 80
6, 110880, Note_on_c, 10, 69, 95
6, 110880, Note_on_c, 10, 64, 95
6, 110880, Note_on_c, 10, 61, 95
6, 110880, Note_on_c, 10, 57, 95
6, 110880, Note_on_c, 10, 52, 95
6, 110880, Note_on_c, 10, 45, 95
6, 111240, Note_off_c, 10, 69, 80
6, 111240, Note_off_c, 10, 64, 80
6, 111240, Note_off_c, 10, 61, 80
6, 111240, Note_off_c, 10, 57, 80
6, 111240, Note_off_c, 10, 52, 80
6, 111240, Note_off_c, 10, 45, 80
6, 111240, Note_on_c, 10, 69, 95
6, 111240, Note_on_c, 10, 64, 95
6, 111240, Note_on_c, 10, 61, 95
6, 111240, Note_on_c, 10, 57, 95
6, 111240, Note_on_c, 10, 52, 95
6, 111240, Note_on_c, 10, 45, 95
6, 111360, Note_off_c, 10, 69, 80
6, 111360, Note_off_c, 10, 64, 80
6, 111360, Note_off_c, 10, 61, 80
6, 111360, Note_off_c, 10, 57, 80
6, 111360, Note_off_c, 10, 52, 80
6, 111360, Note_off_c, 10, 45, 80
6, 111360, Note_on_c, 10, 64, 95
6, 111360, Note_on_c, 10, 59, 95
6, 111360, Note_on_c, 10, 56, 95
6, 111360, Note_on_c, 10, 52, 95
6, 111360, Note_on_c, 10, 47, 95
6, 111360, Note_on_c, 10, 40, 95
6, 111480, Note_off_c, 10, 64, 80
6, 111480, Note_off_c, 10, 59, 80
6, 111480, Note_off_c, 10, 56, 80
6, 111480, Note_off_c, 10, 52, 80
6, 111480, Note_off_c, 10, 47, 80
6, 111480, Note_off_c, 10, 40, 80
6, 111480, Note_on_c, 10, 64, 95
6, 111480, Note_on_c, 10, 59, 95
6, 111480, Note_on_c, 10, 56, 95
6, 111480, Note_on_c, 10, 52, 95
6, 111480, Note_on_c, 10, 47, 95
6, 111480, Note_on_c, 10, 40, 95
6, 111600, Note_off_c, 10, 64, 80
6, 111600, Note_off_c, 10, 59, 80
6, 111600, Note_off_c, 10, 56, 80
6, 111600, Note_off_c, 10, 52, 80
6, 111600, Note_off_c, 10, 47, 80
6, 111600, Note_off_c, 10, 40, 80
6, 111600, Note_on_c, 10, 64, 95
6, 111600, Note_on_c, 10, 59, 95
6, 111600, Note_on_c, 10, 56, 95
6, 111600, Note_on_c, 10, 52, 95
6, 111600, Note_on_c, 10, 47, 95
6, 111600, Note_on_c, 10, 40, 95
6, 111840, Note_off_c, 10, 64, 80
6, 111840, Note_off_c, 10, 59, 80
6, 111840, Note_off_c, 10, 56, 80
6, 111840, Note_off_c, 10, 52, 80
6, 111840, Note_off_c, 10, 47, 80
6, 111840, Note_off_c, 10, 40, 80
6, 111840, Note_on_c, 10, 64, 95
6, 111840, Note_on_c, 10, 59, 95
6, 111840, Note_on_c, 10, 56, 95
6, 111840, Note_on_c, 10, 52, 95
6, 111840, Note_on_c, 10, 47, 95
6, 111840, Note_on_c, 10, 40, 95
6, 112200, Note_off_c, 10, 64, 80
6, 112200, Note_off_c, 10, 59, 80
6, 112200, Note_off_c, 10, 56, 80
6, 112200, Note_off_c, 10, 52, 80
6, 112200, Note_off_c, 10, 47, 80
6, 112200, Note_off_c, 10, 40, 80
6, 112200, Note_on_c, 10, 64, 95
6, 112200, Note_on_c, 10, 59, 95
6, 112200, Note_on_c, 10, 56, 95
6, 112200, Note_on_c, 10, 52, 95
6, 112200, Note_on_c, 10, 47, 95
6, 112200, Note_on_c, 10, 40, 95
6, 112320, Note_off_c, 10, 64, 80
6, 112320, Note_off_c, 10, 59, 80
6, 112320, Note_off_c, 10, 56, 80
6, 112320, Note_off_c, 10, 52, 80
6, 112320, Note_off_c, 10, 47, 80
6, 112320, Note_off_c, 10, 40, 80
6, 112320, Note_on_c, 10, 66, 95
6, 112320, Note_on_c, 10, 61, 95
6, 112320, Note_on_c, 10, 58, 95
6, 112320, Note_on_c, 10, 54, 95
6, 112320, Note_on_c, 10, 49, 95
6, 112320, Note_on_c, 10, 42, 95
6, 112440, Note_off_c, 10, 66, 80
6, 112440, Note_off_c, 10, 61, 80
6, 112440, Note_off_c, 10, 58, 80
6, 112440, Note_off_c, 10, 54, 80
6, 112440, Note_off_c, 10, 49, 80
6, 112440, Note_off_c, 10, 42, 80
6, 112440, Note_on_c, 10, 66, 95
6, 112440, Note_on_c, 10, 61, 95
6, 112440, Note_on_c, 10, 58, 95
6, 112440, Note_on_c, 10, 54, 95
6, 112440, Note_on_c, 10, 49, 95
6, 112440, Note_on_c, 10, 42, 95
6, 112560, Note_off_c, 10, 66, 80
6, 112560, Note_off_c, 10, 61, 80
6, 112560, Note_off_c, 10, 58, 80
6, 112560, Note_off_c, 10, 54, 80
6, 112560, Note_off_c, 10, 49, 80
6, 112560, Note_off_c, 10, 42, 80
6, 112560, Note_on_c, 10, 66, 95
6, 112560, Note_on_c, 10, 61, 95
6, 112560, Note_on_c, 10, 58, 95
6, 112560, Note_on_c, 10, 54, 95
6, 112560, Note_on_c, 10, 49, 95
6, 112560, Note_on_c, 10, 42, 95
6, 112800, Note_off_c, 10, 66, 80
6, 112800, Note_off_c, 10, 61, 80
6, 112800, Note_off_c, 10, 58, 80
6, 112800, Note_off_c, 10, 54, 80
6, 112800, Note_off_c, 10, 49, 80
6, 112800, Note_off_c, 10, 42, 80
6, 112800, Note_on_c, 10, 66, 95
6, 112800, Note_on_c, 10, 61, 95
6, 112800, Note_on_c, 10, 58, 95
6, 112800, Note_on_c, 10, 54, 95
6, 112800, Note_on_c, 10, 49, 95
6, 112800, Note_on_c, 10, 42, 95
6, 113040, Note_off_c, 10, 66, 80
6, 113040, Note_off_c, 10, 61, 80
6, 113040, Note_off_c, 10, 58, 80
6, 113040, Note_off_c, 10, 54, 80
6, 113040, Note_off_c, 10, 49, 80
6, 113040, Note_off_c, 10, 42, 80
6, 113040, Note_on_c, 10, 66, 95
6, 113040, Note_on_c, 10, 61, 95
6, 113040, Note_on_c, 10, 58, 95
6, 113040, Note_on_c, 10, 54, 95
6, 113040, Note_on_c, 10, 49, 95
6, 113040, Note_on_c, 10, 42, 95
6, 113160, Note_off_c, 10, 66, 80
6, 113160, Note_off_c, 10, 61, 80
6, 113160, Note_off_c, 10, 58, 80
6, 113160, Note_off_c, 10, 54, 80
6, 113160, Note_off_c, 10, 49, 80
6, 113160, Note_off_c, 10, 42, 80
6, 113160, Note_on_c, 10, 66, 95
6, 113160, Note_on_c, 10, 61, 95
6, 113160, Note_on_c, 10, 58, 95
6, 113160, Note_on_c, 10, 54, 95
6, 113160, Note_on_c, 10, 49, 95
6, 113160, Note_on_c, 10, 42, 95
6, 113280, Note_off_c, 10, 66, 80
6, 113280, Note_off_c, 10, 61, 80
6, 113280, Note_off_c, 10, 58, 80
6, 113280, Note_off_c, 10, 54, 80
6, 113280, Note_off_c, 10, 49, 80
6, 113280, Note_off_c, 10, 42, 80
6, 113280, Note_on_c, 10, 71, 95
6, 113280, Note_on_c, 10, 66, 95
6, 113280, Note_on_c, 10, 63, 95
6, 113280, Note_on_c, 10, 59, 95
6, 113280, Note_on_c, 10, 54, 95
6, 113280, Note_on_c, 10, 47, 95
6, 113760, Note_off_c, 10, 71, 80
6, 113760, Note_off_c, 10, 66, 80
6, 113760, Note_off_c, 10, 63, 80
6, 113760, Note_off_c, 10, 59, 80
6, 113760, Note_off_c, 10, 54, 80
6, 113760, Note_off_c, 10, 47, 80
6, 113760, Note_on_c, 10, 71, 95
6, 113760, Note_on_c, 10, 66, 95
6, 113760, Note_on_c, 10, 63, 95
6, 113760, Note_on_c, 10, 59, 95
6, 113760, Note_on_c, 10, 54, 95
6, 113760, Note_on_c, 10, 47, 95
6, 114000, Note_off_c, 10, 71, 80
6, 114000, Note_off_c, 10, 66, 80
6, 114000, Note_off_c, 10, 63, 80
6, 114000, Note_off_c, 10, 59, 80
6, 114000, Note_off_c, 10, 54, 80
6, 114000, Note_off_c, 10, 47, 80
6, 114000, Note_on_c, 10, 71, 95
6, 114000, Note_on_c, 10, 66, 95
6, 114000, Note_on_c, 10, 63, 95
6, 114000, Note_on_c, 10, 59, 95
6, 114000, Note_on_c, 10, 54, 95
6, 114000, Note_on_c, 10, 47, 95
6, 114120, Note_off_c, 10, 71, 80
6, 114120, Note_off_c, 10, 66, 80
6, 114120, Note_off_c, 10, 63, 80
6, 114120, Note_off_c, 10, 59, 80
6, 114120, Note_off_c, 10, 54, 80
6, 114120, Note_off_c, 10, 47, 80
6, 114120, Note_on_c, 10, 71, 95
6, 114120, Note_on_c, 10, 66, 95
6, 114120, Note_on_c, 10, 63, 95
6, 114120, Note_on_c, 10, 59, 95
6, 114120, Note_on_c, 10, 54, 95
6, 114120, Note_on_c, 10, 47, 95
6, 114240, Note_off_c, 10, 71, 80
6, 114240, Note_off_c, 10, 66, 80
6, 114240, Note_off_c, 10, 63, 80
6, 114240, Note_off_c, 10, 59, 80
6, 114240, Note_off_c, 10, 54, 80
6, 114240, Note_off_c, 10, 47, 80
6, 114240, Note_on_c, 10, 64, 95
6, 114240, Note_on_c, 10, 59, 95
6, 114240, Note_on_c, 10, 56, 95
6, 114240, Note_on_c, 10, 52, 95
6, 114240, Note_on_c, 10, 47, 95
6, 114240, Note_on_c, 10, 40, 95
6, 114360, Note_off_c, 10, 64, 80
6, 114360, Note_off_c, 10, 59, 80
6, 114360, Note_off_c, 10, 56, 80
6, 114360, Note_off_c, 10, 52, 80
6, 114360, Note_off_c, 10, 47, 80
6, 114360, Note_off_c, 10, 40, 80
6, 114360, Note_on_c, 10, 64, 95
6, 114360, Note_on_c, 10, 59, 95
6, 114360, Note_on_c, 10, 56, 95
6, 114360, Note_on_c, 10, 52, 95
6, 114360, Note_on_c, 10, 47, 95
6, 114360, Note_on_c, 10, 40, 95
6, 114480, Note_off_c, 10, 64, 80
6, 114480, Note_off_c, 10, 59, 80
6, 114480, Note_off_c, 10, 56, 80
6, 114480, Note_off_c, 10, 52, 80
6, 114480, Note_off_c, 10, 47, 80
6, 114480, Note_off_c, 10, 40, 80
6, 114480, Note_on_c, 10, 64, 95
6, 114480, Note_on_c, 10, 59, 95
6, 114480, Note_on_c, 10, 56, 95
6, 114480, Note_on_c, 10, 52, 95
6, 114480, Note_on_c, 10, 47, 95
6, 114480, Note_on_c, 10, 40, 95
6, 114720, Note_off_c, 10, 64, 80
6, 114720, Note_off_c, 10, 59, 80
6, 114720, Note_off_c, 10, 56, 80
6, 114720, Note_off_c, 10, 52, 80
6, 114720, Note_off_c, 10, 47, 80
6, 114720, Note_off_c, 10, 40, 80
6, 114720, Note_on_c, 10, 64, 95
6, 114720, Note_on_c, 10, 59, 95
6, 114720, Note_on_c, 10, 56, 95
6, 114720, Note_on_c, 10, 52, 95
6, 114720, Note_on_c, 10, 47, 95
6, 114720, Note_on_c, 10, 40, 95
6, 115080, Note_off_c, 10, 64, 80
6, 115080, Note_off_c, 10, 59, 80
6, 115080, Note_off_c, 10, 56, 80
6, 115080, Note_off_c, 10, 52, 80
6, 115080, Note_off_c, 10, 47, 80
6, 115080, Note_off_c, 10, 40, 80
6, 115080, Note_on_c, 10, 64, 95
6, 115080, Note_on_c, 10, 59, 95
6, 115080, Note_on_c, 10, 56, 95
6, 115080, Note_on_c, 10, 52, 95
6, 115080, Note_on_c, 10, 47, 95
6, 115080, Note_on_c, 10, 40, 95
6, 115200, Note_off_c, 10, 64, 80
6, 115200, Note_off_c, 10, 59, 80
6, 115200, Note_off_c, 10, 56, 80
6, 115200, Note_off_c, 10, 52, 80
6, 115200, Note_off_c, 10, 47, 80
6, 115200, Note_off_c, 10, 40, 80
6, 115200, Note_on_c, 10, 66, 95
6, 115200, Note_on_c, 10, 61, 95
6, 115200, Note_on_c, 10, 58, 95
6, 115200, Note_on_c, 10, 54, 95
6, 115200, Note_on_c, 10, 49, 95
6, 115200, Note_on_c, 10, 42, 95
6, 115320, Note_off_c, 10, 66, 80
6, 115320, Note_off_c, 10, 61, 80
6, 115320, Note_off_c, 10, 58, 80
6, 115320, Note_off_c, 10, 54, 80
6, 115320, Note_off_c, 10, 49, 80
6, 115320, Note_off_c, 10, 42, 80
6, 115320, Note_on_c, 10, 66, 95
6, 115320, Note_on_c, 10, 61, 95
6, 115320, Note_on_c, 10, 58, 95
6, 115320, Note_on_c, 10, 54, 95
6, 115320, Note_on_c, 10, 49, 95
6, 115320, Note_on_c, 10, 42, 95
6, 115440, Note_off_c, 10, 66, 80
6, 115440, Note_off_c, 10, 61, 80
6, 115440, Note_off_c, 10, 58, 80
6, 115440, Note_off_c, 10, 54, 80
6, 115440, Note_off_c, 10, 49, 80
6, 115440, Note_off_c, 10, 42, 80
6, 115440, Note_on_c, 10, 66, 95
6, 115440, Note_on_c, 10, 61, 95
6, 115440, Note_on_c, 10, 58, 95
6, 115440, Note_on_c, 10, 54, 95
6, 115440, Note_on_c, 10, 49, 95
6, 115440, Note_on_c, 10, 42, 95
6, 115680, Note_off_c, 10, 66, 80
6, 115680, Note_off_c, 10, 61, 80
6, 115680, Note_off_c, 10, 58, 80
6, 115680, Note_off_c, 10, 54, 80
6, 115680, Note_off_c, 10, 49, 80
6, 115680, Note_off_c, 10, 42, 80
6, 115680, Note_on_c, 10, 66, 95
6, 115680, Note_on_c, 10, 61, 95
6, 115680, Note_on_c, 10, 58, 95
6, 115680, Note_on_c, 10, 54, 95
6, 115680, Note_on_c, 10, 49, 95
6, 115680, Note_on_c, 10, 42, 95
6, 116040, Note_off_c, 10, 66, 80
6, 116040, Note_off_c, 10, 61, 80
6, 116040, Note_off_c, 10, 58, 80
6, 116040, Note_off_c, 10, 54, 80
6, 116040, Note_off_c, 10, 49, 80
6, 116040, Note_off_c, 10, 42, 80
6, 116040, Note_on_c, 10, 66, 95
6, 116040, Note_on_c, 10, 61, 95
6, 116040, Note_on_c, 10, 58, 95
6, 116040, Note_on_c, 10, 54, 95
6, 116040, Note_on_c, 10, 49, 95
6, 116040, Note_on_c, 10, 42, 95
6, 116160, Note_off_c, 10, 66, 80
6, 116160, Note_off_c, 10, 61, 80
6, 116160, Note_off_c, 10, 58, 80
6, 116160, Note_off_c, 10, 54, 80
6, 116160, Note_off_c, 10, 49, 80
6, 116160, Note_off_c, 10, 42, 80
6, 116160, Note_on_c, 10, 64, 95
6, 116160, Note_on_c, 10, 59, 95
6, 116160, Note_on_c, 10, 56, 95
6, 116160, Note_on_c, 10, 52, 95
6, 116160, Note_on_c, 10, 47, 95
6, 116160, Note_on_c, 10, 40, 95
6, 116280, Note_off_c, 10, 64, 80
6, 116280, Note_off_c, 10, 59, 80
6, 116280, Note_off_c, 10, 56, 80
6, 116280, Note_off_c, 10, 52, 80
6, 116280, Note_off_c, 10, 47, 80
6, 116280, Note_off_c, 10, 40, 80
6, 116280, Note_on_c, 10, 64, 95
6, 116280, Note_on_c, 10, 59, 95
6, 116280, Note_on_c, 10, 56, 95
6, 116280, Note_on_c, 10, 52, 95
6, 116280, Note_on_c, 10, 47, 95
6, 116280, Note_on_c, 10, 40, 95
6, 116400, Note_off_c, 10, 64, 80
6, 116400, Note_off_c, 10, 59, 80
6, 116400, Note_off_c, 10, 56, 80
6, 116400, Note_off_c, 10, 52, 80
6, 116400, Note_off_c, 10, 47, 80
6, 116400, Note_off_c, 10, 40, 80
6, 116400, Note_on_c, 10, 64, 95
6, 116400, Note_on_c, 10, 59, 95
6, 116400, Note_on_c, 10, 56, 95
6, 116400, Note_on_c, 10, 52, 95
6, 116400, Note_on_c, 10, 47, 95
6, 116400, Note_on_c, 10, 40, 95
6, 116640, Note_off_c, 10, 64, 80
6, 116640, Note_off_c, 10, 59, 80
6, 116640, Note_off_c, 10, 56, 80
6, 116640, Note_off_c, 10, 52, 80
6, 116640, Note_off_c, 10, 47, 80
6, 116640, Note_off_c, 10, 40, 80
6, 116640, Note_on_c, 10, 64, 95
6, 116640, Note_on_c, 10, 59, 95
6, 116640, Note_on_c, 10, 56, 95
6, 116640, Note_on_c, 10, 52, 95
6, 116640, Note_on_c, 10, 47, 95
6, 116640, Note_on_c, 10, 40, 95
6, 116880, Note_off_c, 10, 64, 80
6, 116880, Note_off_c, 10, 59, 80
6, 116880, Note_off_c, 10, 56, 80
6, 116880, Note_off_c, 10, 52, 80
6, 116880, Note_off_c, 10, 47, 80
6, 116880, Note_off_c, 10, 40, 80
6, 116880, Note_on_c, 10, 64, 95
6, 116880, Note_on_c, 10, 59, 95
6, 116880, Note_on_c, 10, 56, 95
6, 116880, Note_on_c, 10, 52, 95
6, 116880, Note_on_c, 10, 47, 95
6, 116880, Note_on_c, 10, 40, 95
6, 117000, Note_off_c, 10, 64, 80
6, 117000, Note_off_c, 10, 59, 80
6, 117000, Note_off_c, 10, 56, 80
6, 117000, Note_off_c, 10, 52, 80
6, 117000, Note_off_c, 10, 47, 80
6, 117000, Note_off_c, 10, 40, 80
6, 117000, Note_on_c, 10, 64, 95
6, 117000, Note_on_c, 10, 59, 95
6, 117000, Note_on_c, 10, 56, 95
6, 117000, Note_on_c, 10, 52, 95
6, 117000, Note_on_c, 10, 47, 95
6, 117000, Note_on_c, 10, 40, 95
6, 117120, Note_off_c, 10, 64, 80
6, 117120, Note_off_c, 10, 59, 80
6, 117120, Note_off_c, 10, 56, 80
6, 117120, Note_off_c, 10, 52, 80
6, 117120, Note_off_c, 10, 47, 80
6, 117120, Note_off_c, 10, 40, 80
6, 117120, Note_on_c, 10, 71, 95
6, 117120, Note_on_c, 10, 66, 95
6, 117120, Note_on_c, 10, 63, 95
6, 117120, Note_on_c, 10, 59, 95
6, 117120, Note_on_c, 10, 54, 95
6, 117120, Note_on_c, 10, 47, 95
6, 117600, Note_off_c, 10, 71, 80
6, 117600, Note_off_c, 10, 66, 80
6, 117600, Note_off_c, 10, 63, 80
6, 117600, Note_off_c, 10, 59, 80
6, 117600, Note_off_c, 10, 54, 80
6, 117600, Note_off_c, 10, 47, 80
6, 117600, Note_on_c, 10, 71, 95
6, 117600, Note_on_c, 10, 66, 95
6, 117600, Note_on_c, 10, 63, 95
6, 117600, Note_on_c, 10, 59, 95
6, 117600, Note_on_c, 10, 54, 95
6, 117600, Note_on_c, 10, 47, 95
6, 117840, Note_off_c, 10, 71, 80
6, 117840, Note_off_c, 10, 66, 80
6, 117840, Note_off_c, 10, 63, 80
6, 117840, Note_off_c, 10, 59, 80
6, 117840, Note_off_c, 10, 54, 80
6, 117840, Note_off_c, 10, 47, 80
6, 117840, Note_on_c, 10, 71, 95
6, 117840, Note_on_c, 10, 66, 95
6, 117840, Note_on_c, 10, 63, 95
6, 117840, Note_on_c, 10, 59, 95
6, 117840, Note_on_c, 10, 54, 95
6, 117840, Note_on_c, 10, 47, 95
6, 117960, Note_off_c, 10, 71, 80
6, 117960, Note_off_c, 10, 66, 80
6, 117960, Note_off_c, 10, 63, 80
6, 117960, Note_off_c, 10, 59, 80
6, 117960, Note_off_c, 10, 54, 80
6, 117960, Note_off_c, 10, 47, 80
6, 117960, Note_on_c, 10, 71, 95
6, 117960, Note_on_c, 10, 66, 95
6, 117960, Note_on_c, 10, 63, 95
6, 117960, Note_on_c, 10, 59, 95
6, 117960, Note_on_c, 10, 54, 95
6, 117960, Note_on_c, 10, 47, 95
6, 118080, Note_off_c, 10, 71, 80
6, 118080, Note_off_c, 10, 66, 80
6, 118080, Note_off_c, 10, 63, 80
6, 118080, Note_off_c, 10, 59, 80
6, 118080, Note_off_c, 10, 54, 80
6, 118080, Note_off_c, 10, 47, 80
6, 118080, Note_on_c, 10, 64, 95
6, 118080, Note_on_c, 10, 59, 95
6, 118080, Note_on_c, 10, 56, 95
6, 118080, Note_on_c, 10, 52, 95
6, 118080, Note_on_c, 10, 47, 95
6, 118080, Note_on_c, 10, 40, 95
6, 118200, Note_off_c, 10, 64, 80
6, 118200, Note_off_c, 10, 59, 80
6, 118200, Note_off_c, 10, 56, 80
6, 118200, Note_off_c, 10, 52, 80
6, 118200, Note_off_c, 10, 47, 80
6, 118200, Note_off_c, 10, 40, 80
6, 118200, Note_on_c, 10, 64, 95
6, 118200, Note_on_c, 10, 59, 95
6, 118200, Note_on_c, 10, 56, 95
6, 118200, Note_on_c, 10, 52, 95
6, 118200, Note_on_c, 10, 47, 95
6, 118200, Note_on_c, 10, 40, 95
6, 118320, Note_off_c, 10, 64, 80
6, 118320, Note_off_c, 10, 59, 80
6, 118320, Note_off_c, 10, 56, 80
6, 118320, Note_off_c, 10, 52, 80
6, 118320, Note_off_c, 10, 47, 80
6, 118320, Note_off_c, 10, 40, 80
6, 118320, Note_on_c, 10, 64, 95
6, 118320, Note_on_c, 10, 59, 95
6, 118320, Note_on_c, 10, 56, 95
6, 118320, Note_on_c, 10, 52, 95
6, 118320, Note_on_c, 10, 47, 95
6, 118320, Note_on_c, 10, 40, 95
6, 118560, Note_off_c, 10, 64, 80
6, 118560, Note_off_c, 10, 59, 80
6, 118560, Note_off_c, 10, 56, 80
6, 118560, Note_off_c, 10, 52, 80
6, 118560, Note_off_c, 10, 47, 80
6, 118560, Note_off_c, 10, 40, 80
6, 118560, Note_on_c, 10, 64, 95
6, 118560, Note_on_c, 10, 59, 95
6, 118560, Note_on_c, 10, 56, 95
6, 118560, Note_on_c, 10, 52, 95
6, 118560, Note_on_c, 10, 47, 95
6, 118560, Note_on_c, 10, 40, 95
6, 118920, Note_off_c, 10, 64, 80
6, 118920, Note_off_c, 10, 59, 80
6, 118920, Note_off_c, 10, 56, 80
6, 118920, Note_off_c, 10, 52, 80
6, 118920, Note_off_c, 10, 47, 80
6, 118920, Note_off_c, 10, 40, 80
6, 118920, Note_on_c, 10, 64, 95
6, 118920, Note_on_c, 10, 59, 95
6, 118920, Note_on_c, 10, 56, 95
6, 118920, Note_on_c, 10, 52, 95
6, 118920, Note_on_c, 10, 47, 95
6, 118920, Note_on_c, 10, 40, 95
6, 119040, Note_off_c, 10, 64, 80
6, 119040, Note_off_c, 10, 59, 80
6, 119040, Note_off_c, 10, 56, 80
6, 119040, Note_off_c, 10, 52, 80
6, 119040, Note_off_c, 10, 47, 80
6, 119040, Note_off_c, 10, 40, 80
6, 119040, Note_on_c, 10, 66, 95
6, 119040, Note_on_c, 10, 61, 95
6, 119040, Note_on_c, 10, 58, 95
6, 119040, Note_on_c, 10, 54, 95
6, 119040, Note_on_c, 10, 49, 95
6, 119040, Note_on_c, 10, 42, 95
6, 119160, Note_off_c, 10, 66, 80
6, 119160, Note_off_c, 10, 61, 80
6, 119160, Note_off_c, 10, 58, 80
6, 119160, Note_off_c, 10, 54, 80
6, 119160, Note_off_c, 10, 49, 80
6, 119160, Note_off_c, 10, 42, 80
6, 119160, Note_on_c, 10, 66, 95
6, 119160, Note_on_c, 10, 61, 95
6, 119160, Note_on_c, 10, 58, 95
6, 119160, Note_on_c, 10, 54, 95
6, 119160, Note_on_c, 10, 49, 95
6, 119160, Note_on_c, 10, 42, 95
6, 119280, Note_off_c, 10, 66, 80
6, 119280, Note_off_c, 10, 61, 80
6, 119280, Note_off_c, 10, 58, 80
6, 119280, Note_off_c, 10, 54, 80
6, 119280, Note_off_c, 10, 49, 80
6, 119280, Note_off_c, 10, 42, 80
6, 119280, Note_on_c, 10, 66, 95
6, 119280, Note_on_c, 10, 61, 95
6, 119280, Note_on_c, 10, 58, 95
6, 119280, Note_on_c, 10, 54, 95
6, 119280, Note_on_c, 10, 49, 95
6, 119280, Note_on_c, 10, 42, 95
6, 119520, Note_off_c, 10, 66, 80
6, 119520, Note_off_c, 10, 61, 80
6, 119520, Note_off_c, 10, 58, 80
6, 119520, Note_off_c, 10, 54, 80
6, 119520, Note_off_c, 10, 49, 80
6, 119520, Note_off_c, 10, 42, 80
6, 119520, Note_on_c, 10, 66, 95
6, 119520, Note_on_c, 10, 61, 95
6, 119520, Note_on_c, 10, 58, 95
6, 119520, Note_on_c, 10, 54, 95
6, 119520, Note_on_c, 10, 49, 95
6, 119520, Note_on_c, 10, 42, 95
6, 119880, Note_off_c, 10, 66, 80
6, 119880, Note_off_c, 10, 61, 80
6, 119880, Note_off_c, 10, 58, 80
6, 119880, Note_off_c, 10, 54, 80
6, 119880, Note_off_c, 10, 49, 80
6, 119880, Note_off_c, 10, 42, 80
6, 119880, Note_on_c, 10, 66, 95
6, 119880, Note_on_c, 10, 61, 95
6, 119880, Note_on_c, 10, 58, 95
6, 119880, Note_on_c, 10, 54, 95
6, 119880, Note_on_c, 10, 49, 95
6, 119880, Note_on_c, 10, 42, 95
6, 120000, Note_off_c, 10, 66, 80
6, 120000, Note_off_c, 10, 61, 80
6, 120000, Note_off_c, 10, 58, 80
6, 120000, Note_off_c, 10, 54, 80
6, 120000, Note_off_c, 10, 49, 80
6, 120000, Note_off_c, 10, 42, 80
6, 120000, Note_on_c, 10, 64, 95
6, 120000, Note_on_c, 10, 59, 95
6, 120000, Note_on_c, 10, 56, 95
6, 120000, Note_on_c, 10, 52, 95
6, 120000, Note_on_c, 10, 47, 95
6, 120000, Note_on_c, 10, 40, 95
6, 120120, Note_off_c, 10, 64, 80
6, 120120, Note_off_c, 10, 59, 80
6, 120120, Note_off_c, 10, 56, 80
6, 120120, Note_off_c, 10, 52, 80
6, 120120, Note_off_c, 10, 47, 80
6, 120120, Note_off_c, 10, 40, 80
6, 120120, Note_on_c, 10, 64, 95
6, 120120, Note_on_c, 10, 59, 95
6, 120120, Note_on_c, 10, 56, 95
6, 120120, Note_on_c, 10, 52, 95
6, 120120, Note_on_c, 10, 47, 95
6, 120120, Note_on_c, 10, 40, 95
6, 120240, Note_off_c, 10, 64, 80
6, 120240, Note_off_c, 10, 59, 80
6, 120240, Note_off_c, 10, 56, 80
6, 120240, Note_off_c, 10, 52, 80
6, 120240, Note_off_c, 10, 47, 80
6, 120240, Note_off_c, 10, 40, 80
6, 120240, Note_on_c, 10, 64, 95
6, 120240, Note_on_c, 10, 59, 95
6, 120240, Note_on_c, 10, 56, 95
6, 120240, Note_on_c, 10, 52, 95
6, 120240, Note_on_c, 10, 47, 95
6, 120240, Note_on_c, 10, 40, 95
6, 120480, Note_off_c, 10, 64, 80
6, 120480, Note_off_c, 10, 59, 80
6, 120480, Note_off_c, 10, 56, 80
6, 120480, Note_off_c, 10, 52, 80
6, 120480, Note_off_c, 10, 47, 80
6, 120480, Note_off_c, 10, 40, 80
6, 120480, Note_on_c, 10, 64, 95
6, 120480, Note_on_c, 10, 59, 95
6, 120480, Note_on_c, 10, 56, 95
6, 120480, Note_on_c, 10, 52, 95
6, 120480, Note_on_c, 10, 47, 95
6, 120480, Note_on_c, 10, 40, 95
6, 120720, Note_off_c, 10, 64, 80
6, 120720, Note_off_c, 10, 59, 80
6, 120720, Note_off_c, 10, 56, 80
6, 120720, Note_off_c, 10, 52, 80
6, 120720, Note_off_c, 10, 47, 80
6, 120720, Note_off_c, 10, 40, 80
6, 120720, Note_on_c, 10, 64, 95
6, 120720, Note_on_c, 10, 59, 95
6, 120720, Note_on_c, 10, 56, 95
6, 120720, Note_on_c, 10, 52, 95
6, 120720, Note_on_c, 10, 47, 95
6, 120720, Note_on_c, 10, 40, 95
6, 120840, Note_off_c, 10, 64, 80
6, 120840, Note_off_c, 10, 59, 80
6, 120840, Note_off_c, 10, 56, 80
6, 120840, Note_off_c, 10, 52, 80
6, 120840, Note_off_c, 10, 47, 80
6, 120840, Note_off_c, 10, 40, 80
6, 120840, Note_on_c, 10, 64, 95
6, 120840, Note_on_c, 10, 59, 95
6, 120840, Note_on_c, 10, 56, 95
6, 120840, Note_on_c, 10, 52, 95
6, 120840, Note_on_c, 10, 47, 95
6, 120840, Note_on_c, 10, 40, 95
6, 120960, Note_off_c, 10, 64, 80
6, 120960, Note_off_c, 10, 59, 80
6, 120960, Note_off_c, 10, 56, 80
6, 120960, Note_off_c, 10, 52, 80
6, 120960, Note_off_c, 10, 47, 80
6, 120960, Note_off_c, 10, 40, 80
6, 120960, Note_on_c, 10, 71, 95
6, 120960, Note_on_c, 10, 66, 95
6, 120960, Note_on_c, 10, 63, 95
6, 120960, Note_on_c, 10, 59, 95
6, 120960, Note_on_c, 10, 54, 95
6, 120960, Note_on_c, 10, 47, 95
6, 121440, Note_off_c, 10, 71, 80
6, 121440, Note_off_c, 10, 66, 80
6, 121440, Note_off_c, 10, 63, 80
6, 121440, Note_off_c, 10, 59, 80
6, 121440, Note_off_c, 10, 54, 80
6, 121440, Note_off_c, 10, 47, 80
6, 121440, Note_on_c, 10, 71, 95
6, 121440, Note_on_c, 10, 66, 95
6, 121440, Note_on_c, 10, 63, 95
6, 121440, Note_on_c, 10, 59, 95
6, 121440, Note_on_c, 10, 54, 95
6, 121440, Note_on_c, 10, 47, 95
6, 121680, Note_off_c, 10, 71, 80
6, 121680, Note_off_c, 10, 66, 80
6, 121680, Note_off_c, 10, 63, 80
6, 121680, Note_off_c, 10, 59, 80
6, 121680, Note_off_c, 10, 54, 80
6, 121680, Note_off_c, 10, 47, 80
6, 121680, Note_on_c, 10, 71, 95
6, 121680, Note_on_c, 10, 66, 95
6, 121680, Note_on_c, 10, 63, 95
6, 121680, Note_on_c, 10, 59, 95
6, 121680, Note_on_c, 10, 54, 95
6, 121680, Note_on_c, 10, 47, 95
6, 121800, Note_off_c, 10, 71, 80
6, 121800, Note_off_c, 10, 66, 80
6, 121800, Note_off_c, 10, 63, 80
6, 121800, Note_off_c, 10, 59, 80
6, 121800, Note_off_c, 10, 54, 80
6, 121800, Note_off_c, 10, 47, 80
6, 121800, Note_on_c, 10, 71, 95
6, 121800, Note_on_c, 10, 66, 95
6, 121800, Note_on_c, 10, 63, 95
6, 121800, Note_on_c, 10, 59, 95
6, 121800, Note_on_c, 10, 54, 95
6, 121800, Note_on_c, 10, 47, 95
6, 121920, Note_off_c, 10, 71, 80
6, 121920, Note_off_c, 10, 66, 80
6, 121920, Note_off_c, 10, 63, 80
6, 121920, Note_off_c, 10, 59, 80
6, 121920, Note_off_c, 10, 54, 80
6, 121920, Note_off_c, 10, 47, 80
6, 121920, Note_on_c, 10, 64, 95
6, 121920, Note_on_c, 10, 59, 95
6, 121920, Note_on_c, 10, 56, 95
6, 121920, Note_on_c, 10, 52, 95
6, 121920, Note_on_c, 10, 47, 95
6, 121920, Note_on_c, 10, 40, 95
6, 122040, Note_off_c, 10, 64, 80
6, 122040, Note_off_c, 10, 59, 80
6, 122040, Note_off_c, 10, 56, 80
6, 122040, Note_off_c, 10, 52, 80
6, 122040, Note_off_c, 10, 47, 80
6, 122040, Note_off_c, 10, 40, 80
6, 122040, Note_on_c, 10, 64, 95
6, 122040, Note_on_c, 10, 59, 95
6, 122040, Note_on_c, 10, 56, 95
6, 122040, Note_on_c, 10, 52, 95
6, 122040, Note_on_c, 10, 47, 95
6, 122040, Note_on_c, 10, 40, 95
6, 122160, Note_off_c, 10, 64, 80
6, 122160, Note_off_c, 10, 59, 80
6, 122160, Note_off_c, 10, 56, 80
6, 122160, Note_off_c, 10, 52, 80
6, 122160, Note_off_c, 10, 47, 80
6, 122160, Note_off_c, 10, 40, 80
6, 122160, Note_on_c, 10, 64, 95
6, 122160, Note_on_c, 10, 59, 95
6, 122160, Note_on_c, 10, 56, 95
6, 122160, Note_on_c, 10, 52, 95
6, 122160, Note_on_c, 10, 47, 95
6, 122160, Note_on_c, 10, 40, 95
6, 122400, Note_off_c, 10, 64, 80
6, 122400, Note_off_c, 10, 59, 80
6, 122400, Note_off_c, 10, 56, 80
6, 122400, Note_off_c, 10, 52, 80
6, 122400, Note_off_c, 10, 47, 80
6, 122400, Note_off_c, 10, 40, 80
6, 122400, Note_on_c, 10, 64, 95
6, 122400, Note_on_c, 10, 59, 95
6, 122400, Note_on_c, 10, 56, 95
6, 122400, Note_on_c, 10, 52, 95
6, 122400, Note_on_c, 10, 47, 95
6, 122400, Note_on_c, 10, 40, 95
6, 122760, Note_off_c, 10, 64, 80
6, 122760, Note_off_c, 10, 59, 80
6, 122760, Note_off_c, 10, 56, 80
6, 122760, Note_off_c, 10, 52, 80
6, 122760, Note_off_c, 10, 47, 80
6, 122760, Note_off_c, 10, 40, 80
6, 122760, Note_on_c, 10, 64, 95
6, 122760, Note_on_c, 10, 59, 95
6, 122760, Note_on_c, 10, 56, 95
6, 122760, Note_on_c, 10, 52, 95
6, 122760, Note_on_c, 10, 47, 95
6, 122760, Note_on_c, 10, 40, 95
6, 122880, Note_off_c, 10, 64, 80
6, 122880, Note_off_c, 10, 59, 80
6, 122880, Note_off_c, 10, 56, 80
6, 122880, Note_off_c, 10, 52, 80
6, 122880, Note_off_c, 10, 47, 80
6, 122880, Note_off_c, 10, 40, 80
6, 122880, Note_on_c, 10, 66, 95
6, 122880, Note_on_c, 10, 61, 95
6, 122880, Note_on_c, 10, 58, 95
6, 122880, Note_on_c, 10, 54, 95
6, 122880, Note_on_c, 10, 49, 95
6, 122880, Note_on_c, 10, 42, 95
6, 123000, Note_off_c, 10, 66, 80
6, 123000, Note_off_c, 10, 61, 80
6, 123000, Note_off_c, 10, 58, 80
6, 123000, Note_off_c, 10, 54, 80
6, 123000, Note_off_c, 10, 49, 80
6, 123000, Note_off_c, 10, 42, 80
6, 123000, Note_on_c, 10, 66, 95
6, 123000, Note_on_c, 10, 61, 95
6, 123000, Note_on_c, 10, 58, 95
6, 123000, Note_on_c, 10, 54, 95
6, 123000, Note_on_c, 10, 49, 95
6, 123000, Note_on_c, 10, 42, 95
6, 123120, Note_off_c, 10, 66, 80
6, 123120, Note_off_c, 10, 61, 80
6, 123120, Note_off_c, 10, 58, 80
6, 123120, Note_off_c, 10, 54, 80
6, 123120, Note_off_c, 10, 49, 80
6, 123120, Note_off_c, 10, 42, 80
6, 123120, Note_on_c, 10, 66, 95
6, 123120, Note_on_c, 10, 61, 95
6, 123120, Note_on_c, 10, 58, 95
6, 123120, Note_on_c, 10, 54, 95
6, 123120, Note_on_c, 10, 49, 95
6, 123120, Note_on_c, 10, 42, 95
6, 123360, Note_off_c, 10, 66, 80
6, 123360, Note_off_c, 10, 61, 80
6, 123360, Note_off_c, 10, 58, 80
6, 123360, Note_off_c, 10, 54, 80
6, 123360, Note_off_c, 10, 49, 80
6, 123360, Note_off_c, 10, 42, 80
6, 123360, Note_on_c, 10, 66, 95
6, 123360, Note_on_c, 10, 61, 95
6, 123360, Note_on_c, 10, 58, 95
6, 123360, Note_on_c, 10, 54, 95
6, 123360, Note_on_c, 10, 49, 95
6, 123360, Note_on_c, 10, 42, 95
6, 123720, Note_off_c, 10, 66, 80
6, 123720, Note_off_c, 10, 61, 80
6, 123720, Note_off_c, 10, 58, 80
6, 123720, Note_off_c, 10, 54, 80
6, 123720, Note_off_c, 10, 49, 80
6, 123720, Note_off_c, 10, 42, 80
6, 123720, Note_on_c, 10, 66, 95
6, 123720, Note_on_c, 10, 61, 95
6, 123720, Note_on_c, 10, 58, 95
6, 123720, Note_on_c, 10, 54, 95
6, 123720, Note_on_c, 10, 49, 95
6, 123720, Note_on_c, 10, 42, 95
6, 123840, Note_off_c, 10, 66, 80
6, 123840, Note_off_c, 10, 61, 80
6, 123840, Note_off_c, 10, 58, 80
6, 123840, Note_off_c, 10, 54, 80
6, 123840, Note_off_c, 10, 49, 80
6, 123840, Note_off_c, 10, 42, 80
6, 123840, Note_on_c, 10, 64, 95
6, 123840, Note_on_c, 10, 59, 95
6, 123840, Note_on_c, 10, 56, 95
6, 123840, Note_on_c, 10, 52, 95
6, 123840, Note_on_c, 10, 47, 95
6, 123840, Note_on_c, 10, 40, 95
6, 123960, Note_off_c, 10, 64, 80
6, 123960, Note_off_c, 10, 59, 80
6, 123960, Note_off_c, 10, 56, 80
6, 123960, Note_off_c, 10, 52, 80
6, 123960, Note_off_c, 10, 47, 80
6, 123960, Note_off_c, 10, 40, 80
6, 123960, Note_on_c, 10, 64, 95
6, 123960, Note_on_c, 10, 59, 95
6, 123960, Note_on_c, 10, 56, 95
6, 123960, Note_on_c, 10, 52, 95
6, 123960, Note_on_c, 10, 47, 95
6, 123960, Note_on_c, 10, 40, 95
6, 124080, Note_off_c, 10, 64, 80
6, 124080, Note_off_c, 10, 59, 80
6, 124080, Note_off_c, 10, 56, 80
6, 124080, Note_off_c, 10, 52, 80
6, 124080, Note_off_c, 10, 47, 80
6, 124080, Note_off_c, 10, 40, 80
6, 124080, Note_on_c, 10, 64, 95
6, 124080, Note_on_c, 10, 59, 95
6, 124080, Note_on_c, 10, 56, 95
6, 124080, Note_on_c, 10, 52, 95
6, 124080, Note_on_c, 10, 47, 95
6, 124080, Note_on_c, 10, 40, 95
6, 124320, Note_off_c, 10, 64, 80
6, 124320, Note_off_c, 10, 59, 80
6, 124320, Note_off_c, 10, 56, 80
6, 124320, Note_off_c, 10, 52, 80
6, 124320, Note_off_c, 10, 47, 80
6, 124320, Note_off_c, 10, 40, 80
6, 124320, Note_on_c, 10, 64, 95
6, 124320, Note_on_c, 10, 59, 95
6, 124320, Note_on_c, 10, 56, 95
6, 124320, Note_on_c, 10, 52, 95
6, 124320, Note_on_c, 10, 47, 95
6, 124320, Note_on_c, 10, 40, 95
6, 124560, Note_off_c, 10, 64, 80
6, 124560, Note_off_c, 10, 59, 80
6, 124560, Note_off_c, 10, 56, 80
6, 124560, Note_off_c, 10, 52, 80
6, 124560, Note_off_c, 10, 47, 80
6, 124560, Note_off_c, 10, 40, 80
6, 124560, Note_on_c, 10, 64, 95
6, 124560, Note_on_c, 10, 59, 95
6, 124560, Note_on_c, 10, 56, 95
6, 124560, Note_on_c, 10, 52, 95
6, 124560, Note_on_c, 10, 47, 95
6, 124560, Note_on_c, 10, 40, 95
6, 124680, Note_off_c, 10, 64, 80
6, 124680, Note_off_c, 10, 59, 80
6, 124680, Note_off_c, 10, 56, 80
6, 124680, Note_off_c, 10, 52, 80
6, 124680, Note_off_c, 10, 47, 80
6, 124680, Note_off_c, 10, 40, 80
6, 124680, Note_on_c, 10, 64, 95
6, 124680, Note_on_c, 10, 59, 95
6, 124680, Note_on_c, 10, 56, 95
6, 124680, Note_on_c, 10, 52, 95
6, 124680, Note_on_c, 10, 47, 95
6, 124680, Note_on_c, 10, 40, 95
6, 124800, Note_off_c, 10, 64, 80
6, 124800, Note_off_c, 10, 59, 80
6, 124800, Note_off_c, 10, 56, 80
6, 124800, Note_off_c, 10, 52, 80
6, 124800, Note_off_c, 10, 47, 80
6, 124800, Note_off_c, 10, 40, 80
6, 124800, Note_on_c, 10, 71, 95
6, 124800, Note_on_c, 10, 66, 95
6, 124800, Note_on_c, 10, 63, 95
6, 124800, Note_on_c, 10, 59, 95
6, 124800, Note_on_c, 10, 54, 95
6, 124800, Note_on_c, 10, 47, 95
6, 125280, Note_off_c, 10, 71, 80
6, 125280, Note_off_c, 10, 66, 80
6, 125280, Note_off_c, 10, 63, 80
6, 125280, Note_off_c, 10, 59, 80
6, 125280, Note_off_c, 10, 54, 80
6, 125280, Note_off_c, 10, 47, 80
6, 125280, Note_on_c, 10, 71, 95
6, 125280, Note_on_c, 10, 66, 95
6, 125280, Note_on_c, 10, 63, 95
6, 125280, Note_on_c, 10, 59, 95
6, 125280, Note_on_c, 10, 54, 95
6, 125280, Note_on_c, 10, 47, 95
6, 125520, Note_off_c, 10, 71, 80
6, 125520, Note_off_c, 10, 66, 80
6, 125520, Note_off_c, 10, 63, 80
6, 125520, Note_off_c, 10, 59, 80
6, 125520, Note_off_c, 10, 54, 80
6, 125520, Note_off_c, 10, 47, 80
6, 125520, Note_on_c, 10, 71, 95
6, 125520, Note_on_c, 10, 66, 95
6, 125520, Note_on_c, 10, 63, 95
6, 125520, Note_on_c, 10, 59, 95
6, 125520, Note_on_c, 10, 54, 95
6, 125520, Note_on_c, 10, 47, 95
6, 125640, Note_off_c, 10, 71, 80
6, 125640, Note_off_c, 10, 66, 80
6, 125640, Note_off_c, 10, 63, 80
6, 125640, Note_off_c, 10, 59, 80
6, 125640, Note_off_c, 10, 54, 80
6, 125640, Note_off_c, 10, 47, 80
6, 125640, Note_on_c, 10, 71, 95
6, 125640, Note_on_c, 10, 66, 95
6, 125640, Note_on_c, 10, 63, 95
6, 125640, Note_on_c, 10, 59, 95
6, 125640, Note_on_c, 10, 54, 95
6, 125640, Note_on_c, 10, 47, 95
6, 125760, Note_off_c, 10, 71, 80
6, 125760, Note_off_c, 10, 66, 80
6, 125760, Note_off_c, 10, 63, 80
6, 125760, Note_off_c, 10, 59, 80
6, 125760, Note_off_c, 10, 54, 80
6, 125760, Note_off_c, 10, 47, 80
6, 125760, Note_on_c, 10, 69, 95
6, 125760, Note_on_c, 10, 64, 95
6, 125760, Note_on_c, 10, 61, 95
6, 125760, Note_on_c, 10, 57, 95
6, 125760, Note_on_c, 10, 52, 95
6, 125760, Note_on_c, 10, 45, 95
6, 125880, Note_off_c, 10, 69, 80
6, 125880, Note_off_c, 10, 64, 80
6, 125880, Note_off_c, 10, 61, 80
6, 125880, Note_off_c, 10, 57, 80
6, 125880, Note_off_c, 10, 52, 80
6, 125880, Note_off_c, 10, 45, 80
6, 125880, Note_on_c, 10, 69, 95
6, 125880, Note_on_c, 10, 64, 95
6, 125880, Note_on_c, 10, 61, 95
6, 125880, Note_on_c, 10, 57, 95
6, 125880, Note_on_c, 10, 52, 95
6, 125880, Note_on_c, 10, 45, 95
6, 126000, Note_off_c, 10, 69, 80
6, 126000, Note_off_c, 10, 64, 80
6, 126000, Note_off_c, 10, 61, 80
6, 126000, Note_off_c, 10, 57, 80
6, 126000, Note_off_c, 10, 52, 80
6, 126000, Note_off_c, 10, 45, 80
6, 126000, Note_on_c, 10, 69, 95
6, 126000, Note_on_c, 10, 64, 95
6, 126000, Note_on_c, 10, 61, 95
6, 126000, Note_on_c, 10, 57, 95
6, 126000, Note_on_c, 10, 52, 95
6, 126000, Note_on_c, 10, 45, 95
6, 126240, Note_off_c, 10, 69, 80
6, 126240, Note_off_c, 10, 64, 80
6, 126240, Note_off_c, 10, 61, 80
6, 126240, Note_off_c, 10, 57, 80
6, 126240, Note_off_c, 10, 52, 80
6, 126240, Note_off_c, 10, 45, 80
6, 126240, Note_on_c, 10, 69, 95
6, 126240, Note_on_c, 10, 64, 95
6, 126240, Note_on_c, 10, 61, 95
6, 126240, Note_on_c, 10, 57, 95
6, 126240, Note_on_c, 10, 52, 95
6, 126240, Note_on_c, 10, 45, 95
6, 126600, Note_off_c, 10, 69, 80
6, 126600, Note_off_c, 10, 64, 80
6, 126600, Note_off_c, 10, 61, 80
6, 126600, Note_off_c, 10, 57, 80
6, 126600, Note_off_c, 10, 52, 80
6, 126600, Note_off_c, 10, 45, 80
6, 126600, Note_on_c, 10, 69, 95
6, 126600, Note_on_c, 10, 64, 95
6, 126600, Note_on_c, 10, 61, 95
6, 126600, Note_on_c, 10, 57, 95
6, 126600, Note_on_c, 10, 52, 95
6, 126600, Note_on_c, 10, 45, 95
6, 126720, Note_off_c, 10, 69, 80
6, 126720, Note_off_c, 10, 64, 80
6, 126720, Note_off_c, 10, 61, 80
6, 126720, Note_off_c, 10, 57, 80
6, 126720, Note_off_c, 10, 52, 80
6, 126720, Note_off_c, 10, 45, 80
6, 126720, Note_on_c, 10, 64, 95
6, 126720, Note_on_c, 10, 59, 95
6, 126720, Note_on_c, 10, 56, 95
6, 126720, Note_on_c, 10, 52, 95
6, 126720, Note_on_c, 10, 47, 95
6, 126720, Note_on_c, 10, 40, 95
6, 126840, Note_off_c, 10, 64, 80
6, 126840, Note_off_c, 10, 59, 80
6, 126840, Note_off_c, 10, 56, 80
6, 126840, Note_off_c, 10, 52, 80
6, 126840, Note_off_c, 10, 47, 80
6, 126840, Note_off_c, 10, 40, 80
6, 126840, Note_on_c, 10, 64, 95
6, 126840, Note_on_c, 10, 59, 95
6, 126840, Note_on_c, 10, 56, 95
6, 126840, Note_on_c, 10, 52, 95
6, 126840, Note_on_c, 10, 47, 95
6, 126840, Note_on_c, 10, 40, 95
6, 126960, Note_off_c, 10, 64, 80
6, 126960, Note_off_c, 10, 59, 80
6, 126960, Note_off_c, 10, 56, 80
6, 126960, Note_off_c, 10, 52, 80
6, 126960, Note_off_c, 10, 47, 80
6, 126960, Note_off_c, 10, 40, 80
6, 126960, Note_on_c, 10, 64, 95
6, 126960, Note_on_c, 10, 59, 95
6, 126960, Note_on_c, 10, 56, 95
6, 126960, Note_on_c, 10, 52, 95
6, 126960, Note_on_c, 10, 47, 95
6, 126960, Note_on_c, 10, 40, 95
6, 127200, Note_off_c, 10, 64, 80
6, 127200, Note_off_c, 10, 59, 80
6, 127200, Note_off_c, 10, 56, 80
6, 127200, Note_off_c, 10, 52, 80
6, 127200, Note_off_c, 10, 47, 80
6, 127200, Note_off_c, 10, 40, 80
6, 127200, Note_on_c, 10, 64, 95
6, 127200, Note_on_c, 10, 59, 95
6, 127200, Note_on_c, 10, 56, 95
6, 127200, Note_on_c, 10, 52, 95
6, 127200, Note_on_c, 10, 47, 95
6, 127200, Note_on_c, 10, 40, 95
6, 127560, Note_off_c, 10, 64, 80
6, 127560, Note_off_c, 10, 59, 80
6, 127560, Note_off_c, 10, 56, 80
6, 127560, Note_off_c, 10, 52, 80
6, 127560, Note_off_c, 10, 47, 80
6, 127560, Note_off_c, 10, 40, 80
6, 127560, Note_on_c, 10, 64, 95
6, 127560, Note_on_c, 10, 59, 95
6, 127560, Note_on_c, 10, 56, 95
6, 127560, Note_on_c, 10, 52, 95
6, 127560, Note_on_c, 10, 47, 95
6, 127560, Note_on_c, 10, 40, 95
6, 127680, Note_off_c, 10, 64, 80
6, 127680, Note_off_c, 10, 59, 80
6, 127680, Note_off_c, 10, 56, 80
6, 127680, Note_off_c, 10, 52, 80
6, 127680, Note_off_c, 10, 47, 80
6, 127680, Note_off_c, 10, 40, 80
6, 127680, Note_on_c, 10, 66, 95
6, 127680, Note_on_c, 10, 61, 95
6, 127680, Note_on_c, 10, 58, 95
6, 127680, Note_on_c, 10, 54, 95
6, 127680, Note_on_c, 10, 49, 95
6, 127680, Note_on_c, 10, 42, 95
6, 127800, Note_off_c, 10, 66, 80
6, 127800, Note_off_c, 10, 61, 80
6, 127800, Note_off_c, 10, 58, 80
6, 127800, Note_off_c, 10, 54, 80
6, 127800, Note_off_c, 10, 49, 80
6, 127800, Note_off_c, 10, 42, 80
6, 127800, Note_on_c, 10, 66, 95
6, 127800, Note_on_c, 10, 61, 95
6, 127800, Note_on_c, 10, 58, 95
6, 127800, Note_on_c, 10, 54, 95
6, 127800, Note_on_c, 10, 49, 95
6, 127800, Note_on_c, 10, 42, 95
6, 127920, Note_off_c, 10, 66, 80
6, 127920, Note_off_c, 10, 61, 80
6, 127920, Note_off_c, 10, 58, 80
6, 127920, Note_off_c, 10, 54, 80
6, 127920, Note_off_c, 10, 49, 80
6, 127920, Note_off_c, 10, 42, 80
6, 127920, Note_on_c, 10, 66, 95
6, 127920, Note_on_c, 10, 61, 95
6, 127920, Note_on_c, 10, 58, 95
6, 127920, Note_on_c, 10, 54, 95
6, 127920, Note_on_c, 10, 49, 95
6, 127920, Note_on_c, 10, 42, 95
6, 128160, Note_off_c, 10, 66, 80
6, 128160, Note_off_c, 10, 61, 80
6, 128160, Note_off_c, 10, 58, 80
6, 128160, Note_off_c, 10, 54, 80
6, 128160, Note_off_c, 10, 49, 80
6, 128160, Note_off_c, 10, 42, 80
6, 128160, Note_on_c, 10, 66, 95
6, 128160, Note_on_c, 10, 61, 95
6, 128160, Note_on_c, 10, 58, 95
6, 128160, Note_on_c, 10, 54, 95
6, 128160, Note_on_c, 10, 49, 95
6, 128160, Note_on_c, 10, 42, 95
6, 128400, Note_off_c, 10, 66, 80
6, 128400, Note_off_c, 10, 61, 80
6, 128400, Note_off_c, 10, 58, 80
6, 128400, Note_off_c, 10, 54, 80
6, 128400, Note_off_c, 10, 49, 80
6, 128400, Note_off_c, 10, 42, 80
6, 128400, Note_on_c, 10, 66, 95
6, 128400, Note_on_c, 10, 61, 95
6, 128400, Note_on_c, 10, 58, 95
6, 128400, Note_on_c, 10, 54, 95
6, 128400, Note_on_c, 10, 49, 95
6, 128400, Note_on_c, 10, 42, 95
6, 128520, Note_off_c, 10, 66, 80
6, 128520, Note_off_c, 10, 61, 80
6, 128520, Note_off_c, 10, 58, 80
6, 128520, Note_off_c, 10, 54, 80
6, 128520, Note_off_c, 10, 49, 80
6, 128520, Note_off_c, 10, 42, 80
6, 128520, Note_on_c, 10, 66, 95
6, 128520, Note_on_c, 10, 61, 95
6, 128520, Note_on_c, 10, 58, 95
6, 128520, Note_on_c, 10, 54, 95
6, 128520, Note_on_c, 10, 49, 95
6, 128520, Note_on_c, 10, 42, 95
6, 128640, Note_off_c, 10, 66, 80
6, 128640, Note_off_c, 10, 61, 80
6, 128640, Note_off_c, 10, 58, 80
6, 128640, Note_off_c, 10, 54, 80
6, 128640, Note_off_c, 10, 49, 80
6, 128640, Note_off_c, 10, 42, 80
6, 128640, Note_on_c, 10, 71, 95
6, 128640, Note_on_c, 10, 66, 95
6, 128640, Note_on_c, 10, 63, 95
6, 128640, Note_on_c, 10, 59, 95
6, 128640, Note_on_c, 10, 54, 95
6, 128640, Note_on_c, 10, 47, 95
6, 129120, Note_off_c, 10, 71, 80
6, 129120, Note_off_c, 10, 66, 80
6, 129120, Note_off_c, 10, 63, 80
6, 129120, Note_off_c, 10, 59, 80
6, 129120, Note_off_c, 10, 54, 80
6, 129120, Note_off_c, 10, 47, 80
6, 129120, Note_on_c, 10, 71, 95
6, 129120, Note_on_c, 10, 66, 95
6, 129120, Note_on_c, 10, 63, 95
6, 129120, Note_on_c, 10, 59, 95
6, 129120, Note_on_c, 10, 54, 95
6, 129120, Note_on_c, 10, 47, 95
6, 129360, Note_off_c, 10, 71, 80
6, 129360, Note_off_c, 10, 66, 80
6, 129360, Note_off_c, 10, 63, 80
6, 129360, Note_off_c, 10, 59, 80
6, 129360, Note_off_c, 10, 54, 80
6, 129360, Note_off_c, 10, 47, 80
6, 129360, Note_on_c, 10, 71, 95
6, 129360, Note_on_c, 10, 66, 95
6, 129360, Note_on_c, 10, 63, 95
6, 129360, Note_on_c, 10, 59, 95
6, 129360, Note_on_c, 10, 54, 95
6, 129360, Note_on_c, 10, 47, 95
6, 129480, Note_off_c, 10, 71, 80
6, 129480, Note_off_c, 10, 66, 80
6, 129480, Note_off_c, 10, 63, 80
6, 129480, Note_off_c, 10, 59, 80
6, 129480, Note_off_c, 10, 54, 80
6, 129480, Note_off_c, 10, 47, 80
6, 129480, Note_on_c, 10, 71, 95
6, 129480, Note_on_c, 10, 66, 95
6, 129480, Note_on_c, 10, 63, 95
6, 129480, Note_on_c, 10, 59, 95
6, 129480, Note_on_c, 10, 54, 95
6, 129480, Note_on_c, 10, 47, 95
6, 129600, Note_off_c, 10, 71, 80
6, 129600, Note_off_c, 10, 66, 80
6, 129600, Note_off_c, 10, 63, 80
6, 129600, Note_off_c, 10, 59, 80
6, 129600, Note_off_c, 10, 54, 80
6, 129600, Note_off_c, 10, 47, 80
6, 129600, Note_on_c, 10, 64, 95
6, 129600, Note_on_c, 10, 59, 95
6, 129600, Note_on_c, 10, 56, 95
6, 129600, Note_on_c, 10, 52, 95
6, 129600, Note_on_c, 10, 47, 95
6, 129600, Note_on_c, 10, 40, 95
6, 129720, Note_off_c, 10, 64, 80
6, 129720, Note_off_c, 10, 59, 80
6, 129720, Note_off_c, 10, 56, 80
6, 129720, Note_off_c, 10, 52, 80
6, 129720, Note_off_c, 10, 47, 80
6, 129720, Note_off_c, 10, 40, 80
6, 129720, Note_on_c, 10, 64, 95
6, 129720, Note_on_c, 10, 59, 95
6, 129720, Note_on_c, 10, 56, 95
6, 129720, Note_on_c, 10, 52, 95
6, 129720, Note_on_c, 10, 47, 95
6, 129720, Note_on_c, 10, 40, 95
6, 129840, Note_off_c, 10, 64, 80
6, 129840, Note_off_c, 10, 59, 80
6, 129840, Note_off_c, 10, 56, 80
6, 129840, Note_off_c, 10, 52, 80
6, 129840, Note_off_c, 10, 47, 80
6, 129840, Note_off_c, 10, 40, 80
6, 129840, Note_on_c, 10, 64, 95
6, 129840, Note_on_c, 10, 59, 95
6, 129840, Note_on_c, 10, 56, 95
6, 129840, Note_on_c, 10, 52, 95
6, 129840, Note_on_c, 10, 47, 95
6, 129840, Note_on_c, 10, 40, 95
6, 130080, Note_off_c, 10, 64, 80
6, 130080, Note_off_c, 10, 59, 80
6, 130080, Note_off_c, 10, 56, 80
6, 130080, Note_off_c, 10, 52, 80
6, 130080, Note_off_c, 10, 47, 80
6, 130080, Note_off_c, 10, 40, 80
6, 130080, Note_on_c, 10, 64, 95
6, 130080, Note_on_c, 10, 59, 95
6, 130080, Note_on_c, 10, 56, 95
6, 130080, Note_on_c, 10, 52, 95
6, 130080, Note_on_c, 10, 47, 95
6, 130080, Note_on_c, 10, 40, 95
6, 130440, Note_off_c, 10, 64, 80
6, 130440, Note_off_c, 10, 59, 80
6, 130440, Note_off_c, 10, 56, 80
6, 130440, Note_off_c, 10, 52, 80
6, 130440, Note_off_c, 10, 47, 80
6, 130440, Note_off_c, 10, 40, 80
6, 130440, Note_on_c, 10, 64, 95
6, 130440, Note_on_c, 10, 59, 95
6, 130440, Note_on_c, 10, 56, 95
6, 130440, Note_on_c, 10, 52, 95
6, 130440, Note_on_c, 10, 47, 95
6, 130440, Note_on_c, 10, 40, 95
6, 130560, Note_off_c, 10, 64, 80
6, 130560, Note_off_c, 10, 59, 80
6, 130560, Note_off_c, 10, 56, 80
6, 130560, Note_off_c, 10, 52, 80
6, 130560, Note_off_c, 10, 47, 80
6, 130560, Note_off_c, 10, 40, 80
6, 130560, Note_on_c, 10, 66, 95
6, 130560, Note_on_c, 10, 61, 95
6, 130560, Note_on_c, 10, 58, 95
6, 130560, Note_on_c, 10, 54, 95
6, 130560, Note_on_c, 10, 49, 95
6, 130560, Note_on_c, 10, 42, 95
6, 130680, Note_off_c, 10, 66, 80
6, 130680, Note_off_c, 10, 61, 80
6, 130680, Note_off_c, 10, 58, 80
6, 130680, Note_off_c, 10, 54, 80
6, 130680, Note_off_c, 10, 49, 80
6, 130680, Note_off_c, 10, 42, 80
6, 130680, Note_on_c, 10, 66, 95
6, 130680, Note_on_c, 10, 61, 95
6, 130680, Note_on_c, 10, 58, 95
6, 130680, Note_on_c, 10, 54, 95
6, 130680, Note_on_c, 10, 49, 95
6, 130680, Note_on_c, 10, 42, 95
6, 130800, Note_off_c, 10, 66, 80
6, 130800, Note_off_c, 10, 61, 80
6, 130800, Note_off_c, 10, 58, 80
6, 130800, Note_off_c, 10, 54, 80
6, 130800, Note_off_c, 10, 49, 80
6, 130800, Note_off_c, 10, 42, 80
6, 130800, Note_on_c, 10, 66, 95
6, 130800, Note_on_c, 10, 61, 95
6, 130800, Note_on_c, 10, 58, 95
6, 130800, Note_on_c, 10, 54, 95
6, 130800, Note_on_c, 10, 49, 95
6, 130800, Note_on_c, 10, 42, 95
6, 131040, Note_off_c, 10, 66, 80
6, 131040, Note_off_c, 10, 61, 80
6, 131040, Note_off_c, 10, 58, 80
6, 131040, Note_off_c, 10, 54, 80
6, 131040, Note_off_c, 10, 49, 80
6, 131040, Note_off_c, 10, 42, 80
6, 131040, Note_on_c, 10, 66, 95
6, 131040, Note_on_c, 10, 61, 95
6, 131040, Note_on_c, 10, 58, 95
6, 131040, Note_on_c, 10, 54, 95
6, 131040, Note_on_c, 10, 49, 95
6, 131040, Note_on_c, 10, 42, 95
6, 131400, Note_off_c, 10, 66, 80
6, 131400, Note_off_c, 10, 61, 80
6, 131400, Note_off_c, 10, 58, 80
6, 131400, Note_off_c, 10, 54, 80
6, 131400, Note_off_c, 10, 49, 80
6, 131400, Note_off_c, 10, 42, 80
6, 131400, Note_on_c, 10, 66, 95
6, 131400, Note_on_c, 10, 61, 95
6, 131400, Note_on_c, 10, 58, 95
6, 131400, Note_on_c, 10, 54, 95
6, 131400, Note_on_c, 10, 49, 95
6, 131400, Note_on_c, 10, 42, 95
6, 131520, Note_off_c, 10, 66, 80
6, 131520, Note_off_c, 10, 61, 80
6, 131520, Note_off_c, 10, 58, 80
6, 131520, Note_off_c, 10, 54, 80
6, 131520, Note_off_c, 10, 49, 80
6, 131520, Note_off_c, 10, 42, 80
6, 131520, Note_on_c, 10, 64, 95
6, 131520, Note_on_c, 10, 59, 95
6, 131520, Note_on_c, 10, 56, 95
6, 131520, Note_on_c, 10, 52, 95
6, 131520, Note_on_c, 10, 47, 95
6, 131520, Note_on_c, 10, 40, 95
6, 131640, Note_off_c, 10, 64, 80
6, 131640, Note_off_c, 10, 59, 80
6, 131640, Note_off_c, 10, 56, 80
6, 131640, Note_off_c, 10, 52, 80
6, 131640, Note_off_c, 10, 47, 80
6, 131640, Note_off_c, 10, 40, 80
6, 131640, Note_on_c, 10, 64, 95
6, 131640, Note_on_c, 10, 59, 95
6, 131640, Note_on_c, 10, 56, 95
6, 131640, Note_on_c, 10, 52, 95
6, 131640, Note_on_c, 10, 47, 95
6, 131640, Note_on_c, 10, 40, 95
6, 131760, Note_off_c, 10, 64, 80
6, 131760, Note_off_c, 10, 59, 80
6, 131760, Note_off_c, 10, 56, 80
6, 131760, Note_off_c, 10, 52, 80
6, 131760, Note_off_c, 10, 47, 80
6, 131760, Note_off_c, 10, 40, 80
6, 131760, Note_on_c, 10, 64, 95
6, 131760, Note_on_c, 10, 59, 95
6, 131760, Note_on_c, 10, 56, 95
6, 131760, Note_on_c, 10, 52, 95
6, 131760, Note_on_c, 10, 47, 95
6, 131760, Note_on_c, 10, 40, 95
6, 132000, Note_off_c, 10, 64, 80
6, 132000, Note_off_c, 10, 59, 80
6, 132000, Note_off_c, 10, 56, 80
6, 132000, Note_off_c, 10, 52, 80
6, 132000, Note_off_c, 10, 47, 80
6, 132000, Note_off_c, 10, 40, 80
6, 132000, Note_on_c, 10, 64, 95
6, 132000, Note_on_c, 10, 59, 95
6, 132000, Note_on_c, 10, 56, 95
6, 132000, Note_on_c, 10, 52, 95
6, 132000, Note_on_c, 10, 47, 95
6, 132000, Note_on_c, 10, 40, 95
6, 132240, Note_off_c, 10, 64, 80
6, 132240, Note_off_c, 10, 59, 80
6, 132240, Note_off_c, 10, 56, 80
6, 132240, Note_off_c, 10, 52, 80
6, 132240, Note_off_c, 10, 47, 80
6, 132240, Note_off_c, 10, 40, 80
6, 132240, Note_on_c, 10, 64, 95
6, 132240, Note_on_c, 10, 59, 95
6, 132240, Note_on_c, 10, 56, 95
6, 132240, Note_on_c, 10, 52, 95
6, 132240, Note_on_c, 10, 47, 95
6, 132240, Note_on_c, 10, 40, 95
6, 132360, Note_off_c, 10, 64, 80
6, 132360, Note_off_c, 10, 59, 80
6, 132360, Note_off_c, 10, 56, 80
6, 132360, Note_off_c, 10, 52, 80
6, 132360, Note_off_c, 10, 47, 80
6, 132360, Note_off_c, 10, 40, 80
6, 132360, Note_on_c, 10, 64, 95
6, 132360, Note_on_c, 10, 59, 95
6, 132360, Note_on_c, 10, 56, 95
6, 132360, Note_on_c, 10, 52, 95
6, 132360, Note_on_c, 10, 47, 95
6, 132360, Note_on_c, 10, 40, 95
6, 132480, Note_off_c, 10, 64, 80
6, 132480, Note_off_c, 10, 59, 80
6, 132480, Note_off_c, 10, 56, 80
6, 132480, Note_off_c, 10, 52, 80
6, 132480, Note_off_c, 10, 47, 80
6, 132480, Note_off_c, 10, 40, 80
6, 132480, Note_on_c, 10, 66, 95
6, 132480, Note_on_c, 10, 61, 95
6, 132480, Note_on_c, 10, 58, 95
6, 132480, Note_on_c, 10, 54, 95
6, 132480, Note_on_c, 10, 49, 95
6, 132480, Note_on_c, 10, 42, 95
6, 132600, Note_off_c, 10, 66, 80
6, 132600, Note_off_c, 10, 61, 80
6, 132600, Note_off_c, 10, 58, 80
6, 132600, Note_off_c, 10, 54, 80
6, 132600, Note_off_c, 10, 49, 80
6, 132600, Note_off_c, 10, 42, 80
6, 132600, Note_on_c, 10, 66, 95
6, 132600, Note_on_c, 10, 61, 95
6, 132600, Note_on_c, 10, 58, 95
6, 132600, Note_on_c, 10, 54, 95
6, 132600, Note_on_c, 10, 49, 95
6, 132600, Note_on_c, 10, 42, 95
6, 132720, Note_off_c, 10, 66, 80
6, 132720, Note_off_c, 10, 61, 80
6, 132720, Note_off_c, 10, 58, 80
6, 132720, Note_off_c, 10, 54, 80
6, 132720, Note_off_c, 10, 49, 80
6, 132720, Note_off_c, 10, 42, 80
6, 132720, Note_on_c, 10, 66, 95
6, 132720, Note_on_c, 10, 61, 95
6, 132720, Note_on_c, 10, 58, 95
6, 132720, Note_on_c, 10, 54, 95
6, 132720, Note_on_c, 10, 49, 95
6, 132720, Note_on_c, 10, 42, 95
6, 132960, Note_off_c, 10, 66, 80
6, 132960, Note_off_c, 10, 61, 80
6, 132960, Note_off_c, 10, 58, 80
6, 132960, Note_off_c, 10, 54, 80
6, 132960, Note_off_c, 10, 49, 80
6, 132960, Note_off_c, 10, 42, 80
6, 132960, Note_on_c, 10, 66, 95
6, 132960, Note_on_c, 10, 61, 95
6, 132960, Note_on_c, 10, 58, 95
6, 132960, Note_on_c, 10, 54, 95
6, 132960, Note_on_c, 10, 49, 95
6, 132960, Note_on_c, 10, 42, 95
6, 133320, Note_off_c, 10, 66, 80
6, 133320, Note_off_c, 10, 61, 80
6, 133320, Note_off_c, 10, 58, 80
6, 133320, Note_off_c, 10, 54, 80
6, 133320, Note_off_c, 10, 49, 80
6, 133320, Note_off_c, 10, 42, 80
6, 133320, Note_on_c, 10, 66, 95
6, 133320, Note_on_c, 10, 61, 95
6, 133320, Note_on_c, 10, 58, 95
6, 133320, Note_on_c, 10, 54, 95
6, 133320, Note_on_c, 10, 49, 95
6, 133320, Note_on_c, 10, 42, 95
6, 133440, Note_off_c, 10, 66, 80
6, 133440, Note_off_c, 10, 61, 80
6, 133440, Note_off_c, 10, 58, 80
6, 133440, Note_off_c, 10, 54, 80
6, 133440, Note_off_c, 10, 49, 80
6, 133440, Note_off_c, 10, 42, 80
6, 133440, Note_on_c, 10, 64, 95
6, 133440, Note_on_c, 10, 59, 95
6, 133440, Note_on_c, 10, 56, 95
6, 133440, Note_on_c, 10, 52, 95
6, 133440, Note_on_c, 10, 47, 95
6, 133440, Note_on_c, 10, 40, 95
6, 133560, Note_off_c, 10, 64, 80
6, 133560, Note_off_c, 10, 59, 80
6, 133560, Note_off_c, 10, 56, 80
6, 133560, Note_off_c, 10, 52, 80
6, 133560, Note_off_c, 10, 47, 80
6, 133560, Note_off_c, 10, 40, 80
6, 133560, Note_on_c, 10, 64, 95
6, 133560, Note_on_c, 10, 59, 95
6, 133560, Note_on_c, 10, 56, 95
6, 133560, Note_on_c, 10, 52, 95
6, 133560, Note_on_c, 10, 47, 95
6, 133560, Note_on_c, 10, 40, 95
6, 133680, Note_off_c, 10, 64, 80
6, 133680, Note_off_c, 10, 59, 80
6, 133680, Note_off_c, 10, 56, 80
6, 133680, Note_off_c, 10, 52, 80
6, 133680, Note_off_c, 10, 47, 80
6, 133680, Note_off_c, 10, 40, 80
6, 133680, Note_on_c, 10, 64, 95
6, 133680, Note_on_c, 10, 59, 95
6, 133680, Note_on_c, 10, 56, 95
6, 133680, Note_on_c, 10, 52, 95
6, 133680, Note_on_c, 10, 47, 95
6, 133680, Note_on_c, 10, 40, 95
6, 133920, Note_off_c, 10, 64, 80
6, 133920, Note_off_c, 10, 59, 80
6, 133920, Note_off_c, 10, 56, 80
6, 133920, Note_off_c, 10, 52, 80
6, 133920, Note_off_c, 10, 47, 80
6, 133920, Note_off_c, 10, 40, 80
6, 133920, Note_on_c, 10, 64, 95
6, 133920, Note_on_c, 10, 59, 95
6, 133920, Note_on_c, 10, 56, 95
6, 133920, Note_on_c, 10, 52, 95
6, 133920, Note_on_c, 10, 47, 95
6, 133920, Note_on_c, 10, 40, 95
6, 134160, Note_off_c, 10, 64, 80
6, 134160, Note_off_c, 10, 59, 80
6, 134160, Note_off_c, 10, 56, 80
6, 134160, Note_off_c, 10, 52, 80
6, 134160, Note_off_c, 10, 47, 80
6, 134160, Note_off_c, 10, 40, 80
6, 134160, Note_on_c, 10, 64, 95
6, 134160, Note_on_c, 10, 59, 95
6, 134160, Note_on_c, 10, 56, 95
6, 134160, Note_on_c, 10, 52, 95
6, 134160, Note_on_c, 10, 47, 95
6, 134160, Note_on_c, 10, 40, 95
6, 134280, Note_off_c, 10, 64, 80
6, 134280, Note_off_c, 10, 59, 80
6, 134280, Note_off_c, 10, 56, 80
6, 134280, Note_off_c, 10, 52, 80
6, 134280, Note_off_c, 10, 47, 80
6, 134280, Note_off_c, 10, 40, 80
6, 134280, Note_on_c, 10, 64, 95
6, 134280, Note_on_c, 10, 59, 95
6, 134280, Note_on_c, 10, 56, 95
6, 134280, Note_on_c, 10, 52, 95
6, 134280, Note_on_c, 10, 47, 95
6, 134280, Note_on_c, 10, 40, 95
6, 134400, Note_off_c, 10, 64, 80
6, 134400, Note_off_c, 10, 59, 80
6, 134400, Note_off_c, 10, 56, 80
6, 134400, Note_off_c, 10, 52, 80
6, 134400, Note_off_c, 10, 47, 80
6, 134400, Note_off_c, 10, 40, 80
6, 134400, Note_on_c, 10, 71, 95
6, 134400, Note_on_c, 10, 66, 95
6, 134400, Note_on_c, 10, 63, 95
6, 134400, Note_on_c, 10, 59, 95
6, 134400, Note_on_c, 10, 54, 95
6, 134400, Note_on_c, 10, 47, 95
6, 134880, Note_off_c, 10, 71, 80
6, 134880, Note_off_c, 10, 66, 80
6, 134880, Note_off_c, 10, 63, 80
6, 134880, Note_off_c, 10, 59, 80
6, 134880, Note_off_c, 10, 54, 80
6, 134880, Note_off_c, 10, 47, 80
6, 134880, Note_on_c, 10, 71, 95
6, 134880, Note_on_c, 10, 66, 95
6, 134880, Note_on_c, 10, 63, 95
6, 134880, Note_on_c, 10, 59, 95
6, 134880, Note_on_c, 10, 54, 95
6, 134880, Note_on_c, 10, 47, 95
6, 135120, Note_off_c, 10, 71, 80
6, 135120, Note_off_c, 10, 66, 80
6, 135120, Note_off_c, 10, 63, 80
6, 135120, Note_off_c, 10, 59, 80
6, 135120, Note_off_c, 10, 54, 80
6, 135120, Note_off_c, 10, 47, 80
6, 135120, Note_on_c, 10, 71, 95
6, 135120, Note_on_c, 10, 66, 95
6, 135120, Note_on_c, 10, 63, 95
6, 135120, Note_on_c, 10, 59, 95
6, 135120, Note_on_c, 10, 54, 95
6, 135120, Note_on_c, 10, 47, 95
6, 135240, Note_off_c, 10, 71, 80
6, 135240, Note_off_c, 10, 66, 80
6, 135240, Note_off_c, 10, 63, 80
6, 135240, Note_off_c, 10, 59, 80
6, 135240, Note_off_c, 10, 54, 80
6, 135240, Note_off_c, 10, 47, 80
6, 135240, Note_on_c, 10, 71, 95
6, 135240, Note_on_c, 10, 66, 95
6, 135240, Note_on_c, 10, 63, 95
6, 135240, Note_on_c, 10, 59, 95
6, 135240, Note_on_c, 10, 54, 95
6, 135240, Note_on_c, 10, 47, 95
6, 135360, Note_off_c, 10, 71, 80
6, 135360, Note_off_c, 10, 66, 80
6, 135360, Note_off_c, 10, 63, 80
6, 135360, Note_off_c, 10, 59, 80
6, 135360, Note_off_c, 10, 54, 80
6, 135360, Note_off_c, 10, 47, 80
6, 135360, Note_on_c, 10, 64, 95
6, 135360, Note_on_c, 10, 59, 95
6, 135360, Note_on_c, 10, 56, 95
6, 135360, Note_on_c, 10, 52, 95
6, 135360, Note_on_c, 10, 47, 95
6, 135360, Note_on_c, 10, 40, 95
6, 135480, Note_off_c, 10, 64, 80
6, 135480, Note_off_c, 10, 59, 80
6, 135480, Note_off_c, 10, 56, 80
6, 135480, Note_off_c, 10, 52, 80
6, 135480, Note_off_c, 10, 47, 80
6, 135480, Note_off_c, 10, 40, 80
6, 135480, Note_on_c, 10, 64, 95
6, 135480, Note_on_c, 10, 59, 95
6, 135480, Note_on_c, 10, 56, 95
6, 135480, Note_on_c, 10, 52, 95
6, 135480, Note_on_c, 10, 47, 95
6, 135480, Note_on_c, 10, 40, 95
6, 135600, Note_off_c, 10, 64, 80
6, 135600, Note_off_c, 10, 59, 80
6, 135600, Note_off_c, 10, 56, 80
6, 135600, Note_off_c, 10, 52, 80
6, 135600, Note_off_c, 10, 47, 80
6, 135600, Note_off_c, 10, 40, 80
6, 135600, Note_on_c, 10, 64, 95
6, 135600, Note_on_c, 10, 59, 95
6, 135600, Note_on_c, 10, 56, 95
6, 135600, Note_on_c, 10, 52, 95
6, 135600, Note_on_c, 10, 47, 95
6, 135600, Note_on_c, 10, 40, 95
6, 135840, Note_off_c, 10, 64, 80
6, 135840, Note_off_c, 10, 59, 80
6, 135840, Note_off_c, 10, 56, 80
6, 135840, Note_off_c, 10, 52, 80
6, 135840, Note_off_c, 10, 47, 80
6, 135840, Note_off_c, 10, 40, 80
6, 135840, Note_on_c, 10, 64, 95
6, 135840, Note_on_c, 10, 59, 95
6, 135840, Note_on_c, 10, 56, 95
6, 135840, Note_on_c, 10, 52, 95
6, 135840, Note_on_c, 10, 47, 95
6, 135840, Note_on_c, 10, 40, 95
6, 136200, Note_off_c, 10, 64, 80
6, 136200, Note_off_c, 10, 59, 80
6, 136200, Note_off_c, 10, 56, 80
6, 136200, Note_off_c, 10, 52, 80
6, 136200, Note_off_c, 10, 47, 80
6, 136200, Note_off_c, 10, 40, 80
6, 136200, Note_on_c, 10, 64, 95
6, 136200, Note_on_c, 10, 59, 95
6, 136200, Note_on_c, 10, 56, 95
6, 136200, Note_on_c, 10, 52, 95
6, 136200, Note_on_c, 10, 47, 95
6, 136200, Note_on_c, 10, 40, 95
6, 136320, Note_off_c, 10, 64, 80
6, 136320, Note_off_c, 10, 59, 80
6, 136320, Note_off_c, 10, 56, 80
6, 136320, Note_off_c, 10, 52, 80
6, 136320, Note_off_c, 10, 47, 80
6, 136320, Note_off_c, 10, 40, 80
6, 136320, Note_on_c, 10, 66, 95
6, 136320, Note_on_c, 10, 61, 95
6, 136320, Note_on_c, 10, 58, 95
6, 136320, Note_on_c, 10, 54, 95
6, 136320, Note_on_c, 10, 49, 95
6, 136320, Note_on_c, 10, 42, 95
6, 136440, Note_off_c, 10, 66, 80
6, 136440, Note_off_c, 10, 61, 80
6, 136440, Note_off_c, 10, 58, 80
6, 136440, Note_off_c, 10, 54, 80
6, 136440, Note_off_c, 10, 49, 80
6, 136440, Note_off_c, 10, 42, 80
6, 136440, Note_on_c, 10, 66, 95
6, 136440, Note_on_c, 10, 61, 95
6, 136440, Note_on_c, 10, 58, 95
6, 136440, Note_on_c, 10, 54, 95
6, 136440, Note_on_c, 10, 49, 95
6, 136440, Note_on_c, 10, 42, 95
6, 136560, Note_off_c, 10, 66, 80
6, 136560, Note_off_c, 10, 61, 80
6, 136560, Note_off_c, 10, 58, 80
6, 136560, Note_off_c, 10, 54, 80
6, 136560, Note_off_c, 10, 49, 80
6, 136560, Note_off_c, 10, 42, 80
6, 136560, Note_on_c, 10, 66, 95
6, 136560, Note_on_c, 10, 61, 95
6, 136560, Note_on_c, 10, 58, 95
6, 136560, Note_on_c, 10, 54, 95
6, 136560, Note_on_c, 10, 49, 95
6, 136560, Note_on_c, 10, 42, 95
6, 136800, Note_off_c, 10, 66, 80
6, 136800, Note_off_c, 10, 61, 80
6, 136800, Note_off_c, 10, 58, 80
6, 136800, Note_off_c, 10, 54, 80
6, 136800, Note_off_c, 10, 49, 80
6, 136800, Note_off_c, 10, 42, 80
6, 136800, Note_on_c, 10, 66, 95
6, 136800, Note_on_c, 10, 61, 95
6, 136800, Note_on_c, 10, 58, 95
6, 136800, Note_on_c, 10, 54, 95
6, 136800, Note_on_c, 10, 49, 95
6, 136800, Note_on_c, 10, 42, 95
6, 137160, Note_off_c, 10, 66, 80
6, 137160, Note_off_c, 10, 61, 80
6, 137160, Note_off_c, 10, 58, 80
6, 137160, Note_off_c, 10, 54, 80
6, 137160, Note_off_c, 10, 49, 80
6, 137160, Note_off_c, 10, 42, 80
6, 137160, Note_on_c, 10, 66, 95
6, 137160, Note_on_c, 10, 61, 95
6, 137160, Note_on_c, 10, 58, 95
6, 137160, Note_on_c, 10, 54, 95
6, 137160, Note_on_c, 10, 49, 95
6, 137160, Note_on_c, 10, 42, 95
6, 137280, Note_off_c, 10, 66, 80
6, 137280, Note_off_c, 10, 61, 80
6, 137280, Note_off_c, 10, 58, 80
6, 137280, Note_off_c, 10, 54, 80
6, 137280, Note_off_c, 10, 49, 80
6, 137280, Note_off_c, 10, 42, 80
6, 137280, Note_on_c, 10, 64, 95
6, 137280, Note_on_c, 10, 59, 95
6, 137280, Note_on_c, 10, 56, 95
6, 137280, Note_on_c, 10, 52, 95
6, 137280, Note_on_c, 10, 47, 95
6, 137280, Note_on_c, 10, 40, 95
6, 137400, Note_off_c, 10, 64, 80
6, 137400, Note_off_c, 10, 59, 80
6, 137400, Note_off_c, 10, 56, 80
6, 137400, Note_off_c, 10, 52, 80
6, 137400, Note_off_c, 10, 47, 80
6, 137400, Note_off_c, 10, 40, 80
6, 137400, Note_on_c, 10, 64, 95
6, 137400, Note_on_c, 10, 59, 95
6, 137400, Note_on_c, 10, 56, 95
6, 137400, Note_on_c, 10, 52, 95
6, 137400, Note_on_c, 10, 47, 95
6, 137400, Note_on_c, 10, 40, 95
6, 137520, Note_off_c, 10, 64, 80
6, 137520, Note_off_c, 10, 59, 80
6, 137520, Note_off_c, 10, 56, 80
6, 137520, Note_off_c, 10, 52, 80
6, 137520, Note_off_c, 10, 47, 80
6, 137520, Note_off_c, 10, 40, 80
6, 137520, Note_on_c, 10, 64, 95
6, 137520, Note_on_c, 10, 59, 95
6, 137520, Note_on_c, 10, 56, 95
6, 137520, Note_on_c, 10, 52, 95
6, 137520, Note_on_c, 10, 47, 95
6, 137520, Note_on_c, 10, 40, 95
6, 137760, Note_off_c, 10, 64, 80
6, 137760, Note_off_c, 10, 59, 80
6, 137760, Note_off_c, 10, 56, 80
6, 137760, Note_off_c, 10, 52, 80
6, 137760, Note_off_c, 10, 47, 80
6, 137760, Note_off_c, 10, 40, 80
6, 137760, Note_on_c, 10, 64, 95
6, 137760, Note_on_c, 10, 59, 95
6, 137760, Note_on_c, 10, 56, 95
6, 137760, Note_on_c, 10, 52, 95
6, 137760, Note_on_c, 10, 47, 95
6, 137760, Note_on_c, 10, 40, 95
6, 138000, Note_off_c, 10, 64, 80
6, 138000, Note_off_c, 10, 59, 80
6, 138000, Note_off_c, 10, 56, 80
6, 138000, Note_off_c, 10, 52, 80
6, 138000, Note_off_c, 10, 47, 80
6, 138000, Note_off_c, 10, 40, 80
6, 138000, Note_on_c, 10, 64, 95
6, 138000, Note_on_c, 10, 59, 95
6, 138000, Note_on_c, 10, 56, 95
6, 138000, Note_on_c, 10, 52, 95
6, 138000, Note_on_c, 10, 47, 95
6, 138000, Note_on_c, 10, 40, 95
6, 138120, Note_off_c, 10, 64, 80
6, 138120, Note_off_c, 10, 59, 80
6, 138120, Note_off_c, 10, 56, 80
6, 138120, Note_off_c, 10, 52, 80
6, 138120, Note_off_c, 10, 47, 80
6, 138120, Note_off_c, 10, 40, 80
6, 138120, Note_on_c, 10, 64, 95
6, 138120, Note_on_c, 10, 59, 95
6, 138120, Note_on_c, 10, 56, 95
6, 138120, Note_on_c, 10, 52, 95
6, 138120, Note_on_c, 10, 47, 95
6, 138120, Note_on_c, 10, 40, 95
6, 138240, Note_off_c, 10, 64, 80
6, 138240, Note_off_c, 10, 59, 80
6, 138240, Note_off_c, 10, 56, 80
6, 138240, Note_off_c, 10, 52, 80
6, 138240, Note_off_c, 10, 47, 80
6, 138240, Note_off_c, 10, 40, 80
6, 138240, Note_on_c, 10, 71, 95
6, 138240, Note_on_c, 10, 66, 95
6, 138240, Note_on_c, 10, 63, 95
6, 138240, Note_on_c, 10, 59, 95
6, 138240, Note_on_c, 10, 54, 95
6, 138240, Note_on_c, 10, 47, 95
6, 138720, Note_off_c, 10, 71, 80
6, 138720, Note_off_c, 10, 66, 80
6, 138720, Note_off_c, 10, 63, 80
6, 138720, Note_off_c, 10, 59, 80
6, 138720, Note_off_c, 10, 54, 80
6, 138720, Note_off_c, 10, 47, 80
6, 138720, Note_on_c, 10, 71, 95
6, 138720, Note_on_c, 10, 66, 95
6, 138720, Note_on_c, 10, 63, 95
6, 138720, Note_on_c, 10, 59, 95
6, 138720, Note_on_c, 10, 54, 95
6, 138720, Note_on_c, 10, 47, 95
6, 138960, Note_off_c, 10, 71, 80
6, 138960, Note_off_c, 10, 66, 80
6, 138960, Note_off_c, 10, 63, 80
6, 138960, Note_off_c, 10, 59, 80
6, 138960, Note_off_c, 10, 54, 80
6, 138960, Note_off_c, 10, 47, 80
6, 138960, Note_on_c, 10, 71, 95
6, 138960, Note_on_c, 10, 66, 95
6, 138960, Note_on_c, 10, 63, 95
6, 138960, Note_on_c, 10, 59, 95
6, 138960, Note_on_c, 10, 54, 95
6, 138960, Note_on_c, 10, 47, 95
6, 139080, Note_off_c, 10, 71, 80
6, 139080, Note_off_c, 10, 66, 80
6, 139080, Note_off_c, 10, 63, 80
6, 139080, Note_off_c, 10, 59, 80
6, 139080, Note_off_c, 10, 54, 80
6, 139080, Note_off_c, 10, 47, 80
6, 139080, Note_on_c, 10, 71, 95
6, 139080, Note_on_c, 10, 66, 95
6, 139080, Note_on_c, 10, 63, 95
6, 139080, Note_on_c, 10, 59, 95
6, 139080, Note_on_c, 10, 54, 95
6, 139080, Note_on_c, 10, 47, 95
6, 139200, Note_off_c, 10, 71, 80
6, 139200, Note_off_c, 10, 66, 80
6, 139200, Note_off_c, 10, 63, 80
6, 139200, Note_off_c, 10, 59, 80
6, 139200, Note_off_c, 10, 54, 80
6, 139200, Note_off_c, 10, 47, 80
6, 139200, Note_on_c, 10, 64, 95
6, 139200, Note_on_c, 10, 59, 95
6, 139200, Note_on_c, 10, 56, 95
6, 139200, Note_on_c, 10, 52, 95
6, 139200, Note_on_c, 10, 47, 95
6, 139200, Note_on_c, 10, 40, 95
6, 139320, Note_off_c, 10, 64, 80
6, 139320, Note_off_c, 10, 59, 80
6, 139320, Note_off_c, 10, 56, 80
6, 139320, Note_off_c, 10, 52, 80
6, 139320, Note_off_c, 10, 47, 80
6, 139320, Note_off_c, 10, 40, 80
6, 139320, Note_on_c, 10, 64, 95
6, 139320, Note_on_c, 10, 59, 95
6, 139320, Note_on_c, 10, 56, 95
6, 139320, Note_on_c, 10, 52, 95
6, 139320, Note_on_c, 10, 47, 95
6, 139320, Note_on_c, 10, 40, 95
6, 139440, Note_off_c, 10, 64, 80
6, 139440, Note_off_c, 10, 59, 80
6, 139440, Note_off_c, 10, 56, 80
6, 139440, Note_off_c, 10, 52, 80
6, 139440, Note_off_c, 10, 47, 80
6, 139440, Note_off_c, 10, 40, 80
6, 139440, Note_on_c, 10, 64, 95
6, 139440, Note_on_c, 10, 59, 95
6, 139440, Note_on_c, 10, 56, 95
6, 139440, Note_on_c, 10, 52, 95
6, 139440, Note_on_c, 10, 47, 95
6, 139440, Note_on_c, 10, 40, 95
6, 139680, Note_off_c, 10, 64, 80
6, 139680, Note_off_c, 10, 59, 80
6, 139680, Note_off_c, 10, 56, 80
6, 139680, Note_off_c, 10, 52, 80
6, 139680, Note_off_c, 10, 47, 80
6, 139680, Note_off_c, 10, 40, 80
6, 139680, Note_on_c, 10, 64, 95
6, 139680, Note_on_c, 10, 59, 95
6, 139680, Note_on_c, 10, 56, 95
6, 139680, Note_on_c, 10, 52, 95
6, 139680, Note_on_c, 10, 47, 95
6, 139680, Note_on_c, 10, 40, 95
6, 140040, Note_off_c, 10, 64, 80
6, 140040, Note_off_c, 10, 59, 80
6, 140040, Note_off_c, 10, 56, 80
6, 140040, Note_off_c, 10, 52, 80
6, 140040, Note_off_c, 10, 47, 80
6, 140040, Note_off_c, 10, 40, 80
6, 140040, Note_on_c, 10, 64, 95
6, 140040, Note_on_c, 10, 59, 95
6, 140040, Note_on_c, 10, 56, 95
6, 140040, Note_on_c, 10, 52, 95
6, 140040, Note_on_c, 10, 47, 95
6, 140040, Note_on_c, 10, 40, 95
6, 140160, Note_off_c, 10, 64, 80
6, 140160, Note_off_c, 10, 59, 80
6, 140160, Note_off_c, 10, 56, 80
6, 140160, Note_off_c, 10, 52, 80
6, 140160, Note_off_c, 10, 47, 80
6, 140160, Note_off_c, 10, 40, 80
6, 140160, Note_on_c, 10, 66, 95
6, 140160, Note_on_c, 10, 61, 95
6, 140160, Note_on_c, 10, 58, 95
6, 140160, Note_on_c, 10, 54, 95
6, 140160, Note_on_c, 10, 49, 95
6, 140160, Note_on_c, 10, 42, 95
6, 140280, Note_off_c, 10, 66, 80
6, 140280, Note_off_c, 10, 61, 80
6, 140280, Note_off_c, 10, 58, 80
6, 140280, Note_off_c, 10, 54, 80
6, 140280, Note_off_c, 10, 49, 80
6, 140280, Note_off_c, 10, 42, 80
6, 140280, Note_on_c, 10, 66, 95
6, 140280, Note_on_c, 10, 61, 95
6, 140280, Note_on_c, 10, 58, 95
6, 140280, Note_on_c, 10, 54, 95
6, 140280, Note_on_c, 10, 49, 95
6, 140280, Note_on_c, 10, 42, 95
6, 140400, Note_off_c, 10, 66, 80
6, 140400, Note_off_c, 10, 61, 80
6, 140400, Note_off_c, 10, 58, 80
6, 140400, Note_off_c, 10, 54, 80
6, 140400, Note_off_c, 10, 49, 80
6, 140400, Note_off_c, 10, 42, 80
6, 140400, Note_on_c, 10, 66, 95
6, 140400, Note_on_c, 10, 61, 95
6, 140400, Note_on_c, 10, 58, 95
6, 140400, Note_on_c, 10, 54, 95
6, 140400, Note_on_c, 10, 49, 95
6, 140400, Note_on_c, 10, 42, 95
6, 140640, Note_off_c, 10, 66, 80
6, 140640, Note_off_c, 10, 61, 80
6, 140640, Note_off_c, 10, 58, 80
6, 140640, Note_off_c, 10, 54, 80
6, 140640, Note_off_c, 10, 49, 80
6, 140640, Note_off_c, 10, 42, 80
6, 140640, Note_on_c, 10, 66, 95
6, 140640, Note_on_c, 10, 61, 95
6, 140640, Note_on_c, 10, 58, 95
6, 140640, Note_on_c, 10, 54, 95
6, 140640, Note_on_c, 10, 49, 95
6, 140640, Note_on_c, 10, 42, 95
6, 141000, Note_off_c, 10, 66, 80
6, 141000, Note_off_c, 10, 61, 80
6, 141000, Note_off_c, 10, 58, 80
6, 141000, Note_off_c, 10, 54, 80
6, 141000, Note_off_c, 10, 49, 80
6, 141000, Note_off_c, 10, 42, 80
6, 141000, Note_on_c, 10, 66, 95
6, 141000, Note_on_c, 10, 61, 95
6, 141000, Note_on_c, 10, 58, 95
6, 141000, Note_on_c, 10, 54, 95
6, 141000, Note_on_c, 10, 49, 95
6, 141000, Note_on_c, 10, 42, 95
6, 141120, Note_off_c, 10, 66, 80
6, 141120, Note_off_c, 10, 61, 80
6, 141120, Note_off_c, 10, 58, 80
6, 141120, Note_off_c, 10, 54, 80
6, 141120, Note_off_c, 10, 49, 80
6, 141120, Note_off_c, 10, 42, 80
6, 141120, Note_on_c, 10, 64, 95
6, 141120, Note_on_c, 10, 59, 95
6, 141120, Note_on_c, 10, 56, 95
6, 141120, Note_on_c, 10, 52, 95
6, 141120, Note_on_c, 10, 47, 95
6, 141120, Note_on_c, 10, 40, 95
6, 141240, Note_off_c, 10, 64, 80
6, 141240, Note_off_c, 10, 59, 80
6, 141240, Note_off_c, 10, 56, 80
6, 141240, Note_off_c, 10, 52, 80
6, 141240, Note_off_c, 10, 47, 80
6, 141240, Note_off_c, 10, 40, 80
6, 141240, Note_on_c, 10, 64, 95
6, 141240, Note_on_c, 10, 59, 95
6, 141240, Note_on_c, 10, 56, 95
6, 141240, Note_on_c, 10, 52, 95
6, 141240, Note_on_c, 10, 47, 95
6, 141240, Note_on_c, 10, 40, 95
6, 141360, Note_off_c, 10, 64, 80
6, 141360, Note_off_c, 10, 59, 80
6, 141360, Note_off_c, 10, 56, 80
6, 141360, Note_off_c, 10, 52, 80
6, 141360, Note_off_c, 10, 47, 80
6, 141360, Note_off_c, 10, 40, 80
6, 141360, Note_on_c, 10, 64, 95
6, 141360, Note_on_c, 10, 59, 95
6, 141360, Note_on_c, 10, 56, 95
6, 141360, Note_on_c, 10, 52, 95
6, 141360, Note_on_c, 10, 47, 95
6, 141360, Note_on_c, 10, 40, 95
6, 141600, Note_off_c, 10, 64, 80
6, 141600, Note_off_c, 10, 59, 80
6, 141600, Note_off_c, 10, 56, 80
6, 141600, Note_off_c, 10, 52, 80
6, 141600, Note_off_c, 10, 47, 80
6, 141600, Note_off_c, 10, 40, 80
6, 141600, Note_on_c, 10, 64, 95
6, 141600, Note_on_c, 10, 59, 95
6, 141600, Note_on_c, 10, 56, 95
6, 141600, Note_on_c, 10, 52, 95
6, 141600, Note_on_c, 10, 47, 95
6, 141600, Note_on_c, 10, 40, 95
6, 141840, Note_off_c, 10, 64, 80
6, 141840, Note_off_c, 10, 59, 80
6, 141840, Note_off_c, 10, 56, 80
6, 141840, Note_off_c, 10, 52, 80
6, 141840, Note_off_c, 10, 47, 80
6, 141840, Note_off_c, 10, 40, 80
6, 141840, Note_on_c, 10, 64, 95
6, 141840, Note_on_c, 10, 59, 95
6, 141840, Note_on_c, 10, 56, 95
6, 141840, Note_on_c, 10, 52, 95
6, 141840, Note_on_c, 10, 47, 95
6, 141840, Note_on_c, 10, 40, 95
6, 141960, Note_off_c, 10, 64, 80
6, 141960, Note_off_c, 10, 59, 80
6, 141960, Note_off_c, 10, 56, 80
6, 141960, Note_off_c, 10, 52, 80
6, 141960, Note_off_c, 10, 47, 80
6, 141960, Note_off_c, 10, 40, 80
6, 141960, Note_on_c, 10, 64, 95
6, 141960, Note_on_c, 10, 59, 95
6, 141960, Note_on_c, 10, 56, 95
6, 141960, Note_on_c, 10, 52, 95
6, 141960, Note_on_c, 10, 47, 95
6, 141960, Note_on_c, 10, 40, 95
6, 142080, Note_off_c, 10, 64, 80
6, 142080, Note_off_c, 10, 59, 80
6, 142080, Note_off_c, 10, 56, 80
6, 142080, Note_off_c, 10, 52, 80
6, 142080, Note_off_c, 10, 47, 80
6, 142080, Note_off_c, 10, 40, 80
6, 142080, Note_on_c, 10, 71, 95
6, 142080, Note_on_c, 10, 66, 95
6, 142080, Note_on_c, 10, 63, 95
6, 142080, Note_on_c, 10, 59, 95
6, 142080, Note_on_c, 10, 54, 95
6, 142080, Note_on_c, 10, 47, 95
6, 142560, Note_off_c, 10, 71, 80
6, 142560, Note_off_c, 10, 66, 80
6, 142560, Note_off_c, 10, 63, 80
6, 142560, Note_off_c, 10, 59, 80
6, 142560, Note_off_c, 10, 54, 80
6, 142560, Note_off_c, 10, 47, 80
6, 142560, Note_on_c, 10, 71, 95
6, 142560, Note_on_c, 10, 66, 95
6, 142560, Note_on_c, 10, 63, 95
6, 142560, Note_on_c, 10, 59, 95
6, 142560, Note_on_c, 10, 54, 95
6, 142560, Note_on_c, 10, 47, 95
6, 142800, Note_off_c, 10, 71, 80
6, 142800, Note_off_c, 10, 66, 80
6, 142800, Note_off_c, 10, 63, 80
6, 142800, Note_off_c, 10, 59, 80
6, 142800, Note_off_c, 10, 54, 80
6, 142800, Note_off_c, 10, 47, 80
6, 142800, Note_on_c, 10, 71, 95
6, 142800, Note_on_c, 10, 66, 95
6, 142800, Note_on_c, 10, 63, 95
6, 142800, Note_on_c, 10, 59, 95
6, 142800, Note_on_c, 10, 54, 95
6, 142800, Note_on_c, 10, 47, 95
6, 142920, Note_off_c, 10, 71, 80
6, 142920, Note_off_c, 10, 66, 80
6, 142920, Note_off_c, 10, 63, 80
6, 142920, Note_off_c, 10, 59, 80
6, 142920, Note_off_c, 10, 54, 80
6, 142920, Note_off_c, 10, 47, 80
6, 142920, Note_on_c, 10, 71, 95
6, 142920, Note_on_c, 10, 66, 95
6, 142920, Note_on_c, 10, 63, 95
6, 142920, Note_on_c, 10, 59, 95
6, 142920, Note_on_c, 10, 54, 95
6, 142920, Note_on_c, 10, 47, 95
6, 143040, Note_off_c, 10, 71, 80
6, 143040, Note_off_c, 10, 66, 80
6, 143040, Note_off_c, 10, 63, 80
6, 143040, Note_off_c, 10, 59, 80
6, 143040, Note_off_c, 10, 54, 80
6, 143040, Note_off_c, 10, 47, 80
6, 143040, Note_on_c, 10, 69, 95
6, 143040, Note_on_c, 10, 64, 95
6, 143040, Note_on_c, 10, 61, 95
6, 143040, Note_on_c, 10, 57, 95
6, 143040, Note_on_c, 10, 52, 95
6, 143040, Note_on_c, 10, 45, 95
6, 143160, Note_off_c, 10, 69, 80
6, 143160, Note_off_c, 10, 64, 80
6, 143160, Note_off_c, 10, 61, 80
6, 143160, Note_off_c, 10, 57, 80
6, 143160, Note_off_c, 10, 52, 80
6, 143160, Note_off_c, 10, 45, 80
6, 143160, Note_on_c, 10, 69, 95
6, 143160, Note_on_c, 10, 64, 95
6, 143160, Note_on_c, 10, 61, 95
6, 143160, Note_on_c, 10, 57, 95
6, 143160, Note_on_c, 10, 52, 95
6, 143160, Note_on_c, 10, 45, 95
6, 143280, Note_off_c, 10, 69, 80
6, 143280, Note_off_c, 10, 64, 80
6, 143280, Note_off_c, 10, 61, 80
6, 143280, Note_off_c, 10, 57, 80
6, 143280, Note_off_c, 10, 52, 80
6, 143280, Note_off_c, 10, 45, 80
6, 143280, Note_on_c, 10, 69, 95
6, 143280, Note_on_c, 10, 64, 95
6, 143280, Note_on_c, 10, 61, 95
6, 143280, Note_on_c, 10, 57, 95
6, 143280, Note_on_c, 10, 52, 95
6, 143280, Note_on_c, 10, 45, 95
6, 143520, Note_off_c, 10, 69, 80
6, 143520, Note_off_c, 10, 64, 80
6, 143520, Note_off_c, 10, 61, 80
6, 143520, Note_off_c, 10, 57, 80
6, 143520, Note_off_c, 10, 52, 80
6, 143520, Note_off_c, 10, 45, 80
6, 143520, Note_on_c, 10, 69, 95
6, 143520, Note_on_c, 10, 64, 95
6, 143520, Note_on_c, 10, 61, 95
6, 143520, Note_on_c, 10, 57, 95
6, 143520, Note_on_c, 10, 52, 95
6, 143520, Note_on_c, 10, 45, 95
6, 143880, Note_off_c, 10, 69, 80
6, 143880, Note_off_c, 10, 64, 80
6, 143880, Note_off_c, 10, 61, 80
6, 143880, Note_off_c, 10, 57, 80
6, 143880, Note_off_c, 10, 52, 80
6, 143880, Note_off_c, 10, 45, 80
6, 143880, Note_on_c, 10, 69, 95
6, 143880, Note_on_c, 10, 64, 95
6, 143880, Note_on_c, 10, 61, 95
6, 143880, Note_on_c, 10, 57, 95
6, 143880, Note_on_c, 10, 52, 95
6, 143880, Note_on_c, 10, 45, 95
6, 144000, Note_off_c, 10, 69, 80
6, 144000, Note_off_c, 10, 64, 80
6, 144000, Note_off_c, 10, 61, 80
6, 144000, Note_off_c, 10, 57, 80
6, 144000, Note_off_c, 10, 52, 80
6, 144000, Note_off_c, 10, 45, 80
6, 144000, Note_on_c, 10, 64, 95
6, 144000, Note_on_c, 10, 59, 95
6, 144000, Note_on_c, 10, 56, 95
6, 144000, Note_on_c, 10, 52, 95
6, 144000, Note_on_c, 10, 47, 95
6, 144000, Note_on_c, 10, 40, 95
6, 144120, Note_off_c, 10, 64, 80
6, 144120, Note_off_c, 10, 59, 80
6, 144120, Note_off_c, 10, 56, 80
6, 144120, Note_off_c, 10, 52, 80
6, 144120, Note_off_c, 10, 47, 80
6, 144120, Note_off_c, 10, 40, 80
6, 144120, Note_on_c, 10, 64, 95
6, 144120, Note_on_c, 10, 59, 95
6, 144120, Note_on_c, 10, 56, 95
6, 144120, Note_on_c, 10, 52, 95
6, 144120, Note_on_c, 10, 47, 95
6, 144120, Note_on_c, 10, 40, 95
6, 144240, Note_off_c, 10, 64, 80
6, 144240, Note_off_c, 10, 59, 80
6, 144240, Note_off_c, 10, 56, 80
6, 144240, Note_off_c, 10, 52, 80
6, 144240, Note_off_c, 10, 47, 80
6, 144240, Note_off_c, 10, 40, 80
6, 144240, Note_on_c, 10, 64, 95
6, 144240, Note_on_c, 10, 59, 95
6, 144240, Note_on_c, 10, 56, 95
6, 144240, Note_on_c, 10, 52, 95
6, 144240, Note_on_c, 10, 47, 95
6, 144240, Note_on_c, 10, 40, 95
6, 144480, Note_off_c, 10, 64, 80
6, 144480, Note_off_c, 10, 59, 80
6, 144480, Note_off_c, 10, 56, 80
6, 144480, Note_off_c, 10, 52, 80
6, 144480, Note_off_c, 10, 47, 80
6, 144480, Note_off_c, 10, 40, 80
6, 144480, Note_on_c, 10, 64, 95
6, 144480, Note_on_c, 10, 59, 95
6, 144480, Note_on_c, 10, 56, 95
6, 144480, Note_on_c, 10, 52, 95
6, 144480, Note_on_c, 10, 47, 95
6, 144480, Note_on_c, 10, 40, 95
6, 144840, Note_off_c, 10, 64, 80
6, 144840, Note_off_c, 10, 59, 80
6, 144840, Note_off_c, 10, 56, 80
6, 144840, Note_off_c, 10, 52, 80
6, 144840, Note_off_c, 10, 47, 80
6, 144840, Note_off_c, 10, 40, 80
6, 144840, Note_on_c, 10, 64, 95
6, 144840, Note_on_c, 10, 59, 95
6, 144840, Note_on_c, 10, 56, 95
6, 144840, Note_on_c, 10, 52, 95
6, 144840, Note_on_c, 10, 47, 95
6, 144840, Note_on_c, 10, 40, 95
6, 144960, Note_off_c, 10, 64, 80
6, 144960, Note_off_c, 10, 59, 80
6, 144960, Note_off_c, 10, 56, 80
6, 144960, Note_off_c, 10, 52, 80
6, 144960, Note_off_c, 10, 47, 80
6, 144960, Note_off_c, 10, 40, 80
6, 144960, Note_on_c, 10, 66, 95
6, 144960, Note_on_c, 10, 61, 95
6, 144960, Note_on_c, 10, 58, 95
6, 144960, Note_on_c, 10, 54, 95
6, 144960, Note_on_c, 10, 49, 95
6, 144960, Note_on_c, 10, 42, 95
6, 145080, Note_off_c, 10, 66, 80
6, 145080, Note_off_c, 10, 61, 80
6, 145080, Note_off_c, 10, 58, 80
6, 145080, Note_off_c, 10, 54, 80
6, 145080, Note_off_c, 10, 49, 80
6, 145080, Note_off_c, 10, 42, 80
6, 145080, Note_on_c, 10, 66, 95
6, 145080, Note_on_c, 10, 61, 95
6, 145080, Note_on_c, 10, 58, 95
6, 145080, Note_on_c, 10, 54, 95
6, 145080, Note_on_c, 10, 49, 95
6, 145080, Note_on_c, 10, 42, 95
6, 145200, Note_off_c, 10, 66, 80
6, 145200, Note_off_c, 10, 61, 80
6, 145200, Note_off_c, 10, 58, 80
6, 145200, Note_off_c, 10, 54, 80
6, 145200, Note_off_c, 10, 49, 80
6, 145200, Note_off_c, 10, 42, 80
6, 145200, Note_on_c, 10, 66, 95
6, 145200, Note_on_c, 10, 61, 95
6, 145200, Note_on_c, 10, 58, 95
6, 145200, Note_on_c, 10, 54, 95
6, 145200, Note_on_c, 10, 49, 95
6, 145200, Note_on_c, 10, 42, 95
6, 145440, Note_off_c, 10, 66, 80
6, 145440, Note_off_c, 10, 61, 80
6, 145440, Note_off_c, 10, 58, 80
6, 145440, Note_off_c, 10, 54, 80
6, 145440, Note_off_c, 10, 49, 80
6, 145440, Note_off_c, 10, 42, 80
6, 145440, Note_on_c, 10, 66, 95
6, 145440, Note_on_c, 10, 61, 95
6, 145440, Note_on_c, 10, 58, 95
6, 145440, Note_on_c, 10, 54, 95
6, 145440, Note_on_c, 10, 49, 95
6, 145440, Note_on_c, 10, 42, 95
6, 145680, Note_off_c, 10, 66, 80
6, 145680, Note_off_c, 10, 61, 80
6, 145680, Note_off_c, 10, 58, 80
6, 145680, Note_off_c, 10, 54, 80
6, 145680, Note_off_c, 10, 49, 80
6, 145680, Note_off_c, 10, 42, 80
6, 145680, Note_on_c, 10, 66, 95
6, 145680, Note_on_c, 10, 61, 95
6, 145680, Note_on_c, 10, 58, 95
6, 145680, Note_on_c, 10, 54, 95
6, 145680, Note_on_c, 10, 49, 95
6, 145680, Note_on_c, 10, 42, 95
6, 145800, Note_off_c, 10, 66, 80
6, 145800, Note_off_c, 10, 61, 80
6, 145800, Note_off_c, 10, 58, 80
6, 145800, Note_off_c, 10, 54, 80
6, 145800, Note_off_c, 10, 49, 80
6, 145800, Note_off_c, 10, 42, 80
6, 145800, Note_on_c, 10, 66, 95
6, 145800, Note_on_c, 10, 61, 95
6, 145800, Note_on_c, 10, 58, 95
6, 145800, Note_on_c, 10, 54, 95
6, 145800, Note_on_c, 10, 49, 95
6, 145800, Note_on_c, 10, 42, 95
6, 145920, Note_off_c, 10, 66, 80
6, 145920, Note_off_c, 10, 61, 80
6, 145920, Note_off_c, 10, 58, 80
6, 145920, Note_off_c, 10, 54, 80
6, 145920, Note_off_c, 10, 49, 80
6, 145920, Note_off_c, 10, 42, 80
6, 145920, Note_on_c, 10, 71, 95
6, 145920, Note_on_c, 10, 66, 95
6, 145920, Note_on_c, 10, 63, 95
6, 145920, Note_on_c, 10, 59, 95
6, 145920, Note_on_c, 10, 54, 95
6, 145920, Note_on_c, 10, 47, 95
6, 146400, Note_off_c, 10, 71, 80
6, 146400, Note_off_c, 10, 66, 80
6, 146400, Note_off_c, 10, 63, 80
6, 146400, Note_off_c, 10, 59, 80
6, 146400, Note_off_c, 10, 54, 80
6, 146400, Note_off_c, 10, 47, 80
6, 146400, Note_on_c, 10, 71, 95
6, 146400, Note_on_c, 10, 66, 95
6, 146400, Note_on_c, 10, 63, 95
6, 146400, Note_on_c, 10, 59, 95
6, 146400, Note_on_c, 10, 54, 95
6, 146400, Note_on_c, 10, 47, 95
6, 146640, Note_off_c, 10, 71, 80
6, 146640, Note_off_c, 10, 66, 80
6, 146640, Note_off_c, 10, 63, 80
6, 146640, Note_off_c, 10, 59, 80
6, 146640, Note_off_c, 10, 54, 80
6, 146640, Note_off_c, 10, 47, 80
6, 146640, Note_on_c, 10, 71, 95
6, 146640, Note_on_c, 10, 66, 95
6, 146640, Note_on_c, 10, 63, 95
6, 146640, Note_on_c, 10, 59, 95
6, 146640, Note_on_c, 10, 54, 95
6, 146640, Note_on_c, 10, 47, 95
6, 146760, Note_off_c, 10, 71, 80
6, 146760, Note_off_c, 10, 66, 80
6, 146760, Note_off_c, 10, 63, 80
6, 146760, Note_off_c, 10, 59, 80
6, 146760, Note_off_c, 10, 54, 80
6, 146760, Note_off_c, 10, 47, 80
6, 146760, Note_on_c, 10, 71, 95
6, 146760, Note_on_c, 10, 66, 95
6, 146760, Note_on_c, 10, 63, 95
6, 146760, Note_on_c, 10, 59, 95
6, 146760, Note_on_c, 10, 54, 95
6, 146760, Note_on_c, 10, 47, 95
6, 146880, Note_off_c, 10, 71, 80
6, 146880, Note_off_c, 10, 66, 80
6, 146880, Note_off_c, 10, 63, 80
6, 146880, Note_off_c, 10, 59, 80
6, 146880, Note_off_c, 10, 54, 80
6, 146880, Note_off_c, 10, 47, 80
6, 146880, Note_on_c, 10, 64, 95
6, 146880, Note_on_c, 10, 59, 95
6, 146880, Note_on_c, 10, 56, 95
6, 146880, Note_on_c, 10, 52, 95
6, 146880, Note_on_c, 10, 47, 95
6, 146880, Note_on_c, 10, 40, 95
6, 147000, Note_off_c, 10, 64, 80
6, 147000, Note_off_c, 10, 59, 80
6, 147000, Note_off_c, 10, 56, 80
6, 147000, Note_off_c, 10, 52, 80
6, 147000, Note_off_c, 10, 47, 80
6, 147000, Note_off_c, 10, 40, 80
6, 147000, Note_on_c, 10, 64, 95
6, 147000, Note_on_c, 10, 59, 95
6, 147000, Note_on_c, 10, 56, 95
6, 147000, Note_on_c, 10, 52, 95
6, 147000, Note_on_c, 10, 47, 95
6, 147000, Note_on_c, 10, 40, 95
6, 147120, Note_off_c, 10, 64, 80
6, 147120, Note_off_c, 10, 59, 80
6, 147120, Note_off_c, 10, 56, 80
6, 147120, Note_off_c, 10, 52, 80
6, 147120, Note_off_c, 10, 47, 80
6, 147120, Note_off_c, 10, 40, 80
6, 147120, Note_on_c, 10, 64, 95
6, 147120, Note_on_c, 10, 59, 95
6, 147120, Note_on_c, 10, 56, 95
6, 147120, Note_on_c, 10, 52, 95
6, 147120, Note_on_c, 10, 47, 95
6, 147120, Note_on_c, 10, 40, 95
6, 147360, Note_off_c, 10, 64, 80
6, 147360, Note_off_c, 10, 59, 80
6, 147360, Note_off_c, 10, 56, 80
6, 147360, Note_off_c, 10, 52, 80
6, 147360, Note_off_c, 10, 47, 80
6, 147360, Note_off_c, 10, 40, 80
6, 147360, Note_on_c, 10, 64, 95
6, 147360, Note_on_c, 10, 59, 95
6, 147360, Note_on_c, 10, 56, 95
6, 147360, Note_on_c, 10, 52, 95
6, 147360, Note_on_c, 10, 47, 95
6, 147360, Note_on_c, 10, 40, 95
6, 147720, Note_off_c, 10, 64, 80
6, 147720, Note_off_c, 10, 59, 80
6, 147720, Note_off_c, 10, 56, 80
6, 147720, Note_off_c, 10, 52, 80
6, 147720, Note_off_c, 10, 47, 80
6, 147720, Note_off_c, 10, 40, 80
6, 147720, Note_on_c, 10, 64, 95
6, 147720, Note_on_c, 10, 59, 95
6, 147720, Note_on_c, 10, 56, 95
6, 147720, Note_on_c, 10, 52, 95
6, 147720, Note_on_c, 10, 47, 95
6, 147720, Note_on_c, 10, 40, 95
6, 147840, Note_off_c, 10, 64, 80
6, 147840, Note_off_c, 10, 59, 80
6, 147840, Note_off_c, 10, 56, 80
6, 147840, Note_off_c, 10, 52, 80
6, 147840, Note_off_c, 10, 47, 80
6, 147840, Note_off_c, 10, 40, 80
6, 147840, Note_on_c, 10, 66, 95
6, 147840, Note_on_c, 10, 61, 95
6, 147840, Note_on_c, 10, 58, 95
6, 147840, Note_on_c, 10, 54, 95
6, 147840, Note_on_c, 10, 49, 95
6, 147840, Note_on_c, 10, 42, 95
6, 147960, Note_off_c, 10, 66, 80
6, 147960, Note_off_c, 10, 61, 80
6, 147960, Note_off_c, 10, 58, 80
6, 147960, Note_off_c, 10, 54, 80
6, 147960, Note_off_c, 10, 49, 80
6, 147960, Note_off_c, 10, 42, 80
6, 147960, Note_on_c, 10, 66, 95
6, 147960, Note_on_c, 10, 61, 95
6, 147960, Note_on_c, 10, 58, 95
6, 147960, Note_on_c, 10, 54, 95
6, 147960, Note_on_c, 10, 49, 95
6, 147960, Note_on_c, 10, 42, 95
6, 148080, Note_off_c, 10, 66, 80
6, 148080, Note_off_c, 10, 61, 80
6, 148080, Note_off_c, 10, 58, 80
6, 148080, Note_off_c, 10, 54, 80
6, 148080, Note_off_c, 10, 49, 80
6, 148080, Note_off_c, 10, 42, 80
6, 148080, Note_on_c, 10, 66, 95
6, 148080, Note_on_c, 10, 61, 95
6, 148080, Note_on_c, 10, 58, 95
6, 148080, Note_on_c, 10, 54, 95
6, 148080, Note_on_c, 10, 49, 95
6, 148080, Note_on_c, 10, 42, 95
6, 148320, Note_off_c, 10, 66, 80
6, 148320, Note_off_c, 10, 61, 80
6, 148320, Note_off_c, 10, 58, 80
6, 148320, Note_off_c, 10, 54, 80
6, 148320, Note_off_c, 10, 49, 80
6, 148320, Note_off_c, 10, 42, 80
6, 148320, Note_on_c, 10, 66, 95
6, 148320, Note_on_c, 10, 61, 95
6, 148320, Note_on_c, 10, 58, 95
6, 148320, Note_on_c, 10, 54, 95
6, 148320, Note_on_c, 10, 49, 95
6, 148320, Note_on_c, 10, 42, 95
6, 148680, Note_off_c, 10, 66, 80
6, 148680, Note_off_c, 10, 61, 80
6, 148680, Note_off_c, 10, 58, 80
6, 148680, Note_off_c, 10, 54, 80
6, 148680, Note_off_c, 10, 49, 80
6, 148680, Note_off_c, 10, 42, 80
6, 148680, Note_on_c, 10, 66, 95
6, 148680, Note_on_c, 10, 61, 95
6, 148680, Note_on_c, 10, 58, 95
6, 148680, Note_on_c, 10, 54, 95
6, 148680, Note_on_c, 10, 49, 95
6, 148680, Note_on_c, 10, 42, 95
6, 148800, Note_off_c, 10, 66, 80
6, 148800, Note_off_c, 10, 61, 80
6, 148800, Note_off_c, 10, 58, 80
6, 148800, Note_off_c, 10, 54, 80
6, 148800, Note_off_c, 10, 49, 80
6, 148800, Note_off_c, 10, 42, 80
6, 148800, Note_on_c, 10, 64, 95
6, 148800, Note_on_c, 10, 59, 95
6, 148800, Note_on_c, 10, 56, 95
6, 148800, Note_on_c, 10, 52, 95
6, 148800, Note_on_c, 10, 47, 95
6, 148800, Note_on_c, 10, 40, 95
6, 148920, Note_off_c, 10, 64, 80
6, 148920, Note_off_c, 10, 59, 80
6, 148920, Note_off_c, 10, 56, 80
6, 148920, Note_off_c, 10, 52, 80
6, 148920, Note_off_c, 10, 47, 80
6, 148920, Note_off_c, 10, 40, 80
6, 148920, Note_on_c, 10, 64, 95
6, 148920, Note_on_c, 10, 59, 95
6, 148920, Note_on_c, 10, 56, 95
6, 148920, Note_on_c, 10, 52, 95
6, 148920, Note_on_c, 10, 47, 95
6, 148920, Note_on_c, 10, 40, 95
6, 149040, Note_off_c, 10, 64, 80
6, 149040, Note_off_c, 10, 59, 80
6, 149040, Note_off_c, 10, 56, 80
6, 149040, Note_off_c, 10, 52, 80
6, 149040, Note_off_c, 10, 47, 80
6, 149040, Note_off_c, 10, 40, 80
6, 149040, Note_on_c, 10, 64, 95
6, 149040, Note_on_c, 10, 59, 95
6, 149040, Note_on_c, 10, 56, 95
6, 149040, Note_on_c, 10, 52, 95
6, 149040, Note_on_c, 10, 47, 95
6, 149040, Note_on_c, 10, 40, 95
6, 149280, Note_off_c, 10, 64, 80
6, 149280, Note_off_c, 10, 59, 80
6, 149280, Note_off_c, 10, 56, 80
6, 149280, Note_off_c, 10, 52, 80
6, 149280, Note_off_c, 10, 47, 80
6, 149280, Note_off_c, 10, 40, 80
6, 149280, Note_on_c, 10, 64, 95
6, 149280, Note_on_c, 10, 59, 95
6, 149280, Note_on_c, 10, 56, 95
6, 149280, Note_on_c, 10, 52, 95
6, 149280, Note_on_c, 10, 47, 95
6, 149280, Note_on_c, 10, 40, 95
6, 149520, Note_off_c, 10, 64, 80
6, 149520, Note_off_c, 10, 59, 80
6, 149520, Note_off_c, 10, 56, 80
6, 149520, Note_off_c, 10, 52, 80
6, 149520, Note_off_c, 10, 47, 80
6, 149520, Note_off_c, 10, 40, 80
6, 149520, Note_on_c, 10, 64, 95
6, 149520, Note_on_c, 10, 59, 95
6, 149520, Note_on_c, 10, 56, 95
6, 149520, Note_on_c, 10, 52, 95
6, 149520, Note_on_c, 10, 47, 95
6, 149520, Note_on_c, 10, 40, 95
6, 149640, Note_off_c, 10, 64, 80
6, 149640, Note_off_c, 10, 59, 80
6, 149640, Note_off_c, 10, 56, 80
6, 149640, Note_off_c, 10, 52, 80
6, 149640, Note_off_c, 10, 47, 80
6, 149640, Note_off_c, 10, 40, 80
6, 149640, Note_on_c, 10, 64, 95
6, 149640, Note_on_c, 10, 59, 95
6, 149640, Note_on_c, 10, 56, 95
6, 149640, Note_on_c, 10, 52, 95
6, 149640, Note_on_c, 10, 47, 95
6, 149640, Note_on_c, 10, 40, 95
6, 149760, Note_off_c, 10, 64, 80
6, 149760, Note_off_c, 10, 59, 80
6, 149760, Note_off_c, 10, 56, 80
6, 149760, Note_off_c, 10, 52, 80
6, 149760, Note_off_c, 10, 47, 80
6, 149760, Note_off_c, 10, 40, 80
6, 149760, Note_on_c, 10, 71, 95
6, 149760, Note_on_c, 10, 66, 95
6, 149760, Note_on_c, 10, 63, 95
6, 149760, Note_on_c, 10, 59, 95
6, 149760, Note_on_c, 10, 54, 95
6, 149760, Note_on_c, 10, 47, 95
6, 150240, Note_off_c, 10, 71, 80
6, 150240, Note_off_c, 10, 66, 80
6, 150240, Note_off_c, 10, 63, 80
6, 150240, Note_off_c, 10, 59, 80
6, 150240, Note_off_c, 10, 54, 80
6, 150240, Note_off_c, 10, 47, 80
6, 150240, Note_on_c, 10, 71, 95
6, 150240, Note_on_c, 10, 66, 95
6, 150240, Note_on_c, 10, 63, 95
6, 150240, Note_on_c, 10, 59, 95
6, 150240, Note_on_c, 10, 54, 95
6, 150240, Note_on_c, 10, 47, 95
6, 150480, Note_off_c, 10, 71, 80
6, 150480, Note_off_c, 10, 66, 80
6, 150480, Note_off_c, 10, 63, 80
6, 150480, Note_off_c, 10, 59, 80
6, 150480, Note_off_c, 10, 54, 80
6, 150480, Note_off_c, 10, 47, 80
6, 150480, Note_on_c, 10, 71, 95
6, 150480, Note_on_c, 10, 66, 95
6, 150480, Note_on_c, 10, 63, 95
6, 150480, Note_on_c, 10, 59, 95
6, 150480, Note_on_c, 10, 54, 95
6, 150480, Note_on_c, 10, 47, 95
6, 150600, Note_off_c, 10, 71, 80
6, 150600, Note_off_c, 10, 66, 80
6, 150600, Note_off_c, 10, 63, 80
6, 150600, Note_off_c, 10, 59, 80
6, 150600, Note_off_c, 10, 54, 80
6, 150600, Note_off_c, 10, 47, 80
6, 150600, Note_on_c, 10, 71, 95
6, 150600, Note_on_c, 10, 66, 95
6, 150600, Note_on_c, 10, 63, 95
6, 150600, Note_on_c, 10, 59, 95
6, 150600, Note_on_c, 10, 54, 95
6, 150600, Note_on_c, 10, 47, 95
6, 150720, Note_off_c, 10, 71, 80
6, 150720, Note_off_c, 10, 66, 80
6, 150720, Note_off_c, 10, 63, 80
6, 150720, Note_off_c, 10, 59, 80
6, 150720, Note_off_c, 10, 54, 80
6, 150720, Note_off_c, 10, 47, 80
6, 150720, Note_on_c, 10, 64, 95
6, 150720, Note_on_c, 10, 59, 95
6, 150720, Note_on_c, 10, 56, 95
6, 150720, Note_on_c, 10, 52, 95
6, 150720, Note_on_c, 10, 47, 95
6, 150720, Note_on_c, 10, 40, 95
6, 150840, Note_off_c, 10, 64, 80
6, 150840, Note_off_c, 10, 59, 80
6, 150840, Note_off_c, 10, 56, 80
6, 150840, Note_off_c, 10, 52, 80
6, 150840, Note_off_c, 10, 47, 80
6, 150840, Note_off_c, 10, 40, 80
6, 150840, Note_on_c, 10, 64, 95
6, 150840, Note_on_c, 10, 59, 95
6, 150840, Note_on_c, 10, 56, 95
6, 150840, Note_on_c, 10, 52, 95
6, 150840, Note_on_c, 10, 47, 95
6, 150840, Note_on_c, 10, 40, 95
6, 150960, Note_off_c, 10, 64, 80
6, 150960, Note_off_c, 10, 59, 80
6, 150960, Note_off_c, 10, 56, 80
6, 150960, Note_off_c, 10, 52, 80
6, 150960, Note_off_c, 10, 47, 80
6, 150960, Note_off_c, 10, 40, 80
6, 150960, Note_on_c, 10, 64, 95
6, 150960, Note_on_c, 10, 59, 95
6, 150960, Note_on_c, 10, 56, 95
6, 150960, Note_on_c, 10, 52, 95
6, 150960, Note_on_c, 10, 47, 95
6, 150960, Note_on_c, 10, 40, 95
6, 151200, Note_off_c, 10, 64, 80
6, 151200, Note_off_c, 10, 59, 80
6, 151200, Note_off_c, 10, 56, 80
6, 151200, Note_off_c, 10, 52, 80
6, 151200, Note_off_c, 10, 47, 80
6, 151200, Note_off_c, 10, 40, 80
6, 151200, Note_on_c, 10, 64, 95
6, 151200, Note_on_c, 10, 59, 95
6, 151200, Note_on_c, 10, 56, 95
6, 151200, Note_on_c, 10, 52, 95
6, 151200, Note_on_c, 10, 47, 95
6, 151200, Note_on_c, 10, 40, 95
6, 151560, Note_off_c, 10, 64, 80
6, 151560, Note_off_c, 10, 59, 80
6, 151560, Note_off_c, 10, 56, 80
6, 151560, Note_off_c, 10, 52, 80
6, 151560, Note_off_c, 10, 47, 80
6, 151560, Note_off_c, 10, 40, 80
6, 151560, Note_on_c, 10, 64, 95
6, 151560, Note_on_c, 10, 59, 95
6, 151560, Note_on_c, 10, 56, 95
6, 151560, Note_on_c, 10, 52, 95
6, 151560, Note_on_c, 10, 47, 95
6, 151560, Note_on_c, 10, 40, 95
6, 151680, Note_off_c, 10, 64, 80
6, 151680, Note_off_c, 10, 59, 80
6, 151680, Note_off_c, 10, 56, 80
6, 151680, Note_off_c, 10, 52, 80
6, 151680, Note_off_c, 10, 47, 80
6, 151680, Note_off_c, 10, 40, 80
6, 151680, Note_on_c, 10, 66, 95
6, 151680, Note_on_c, 10, 61, 95
6, 151680, Note_on_c, 10, 58, 95
6, 151680, Note_on_c, 10, 54, 95
6, 151680, Note_on_c, 10, 49, 95
6, 151680, Note_on_c, 10, 42, 95
6, 151800, Note_off_c, 10, 66, 80
6, 151800, Note_off_c, 10, 61, 80
6, 151800, Note_off_c, 10, 58, 80
6, 151800, Note_off_c, 10, 54, 80
6, 151800, Note_off_c, 10, 49, 80
6, 151800, Note_off_c, 10, 42, 80
6, 151800, Note_on_c, 10, 66, 95
6, 151800, Note_on_c, 10, 61, 95
6, 151800, Note_on_c, 10, 58, 95
6, 151800, Note_on_c, 10, 54, 95
6, 151800, Note_on_c, 10, 49, 95
6, 151800, Note_on_c, 10, 42, 95
6, 151920, Note_off_c, 10, 66, 80
6, 151920, Note_off_c, 10, 61, 80
6, 151920, Note_off_c, 10, 58, 80
6, 151920, Note_off_c, 10, 54, 80
6, 151920, Note_off_c, 10, 49, 80
6, 151920, Note_off_c, 10, 42, 80
6, 151920, Note_on_c, 10, 66, 95
6, 151920, Note_on_c, 10, 61, 95
6, 151920, Note_on_c, 10, 58, 95
6, 151920, Note_on_c, 10, 54, 95
6, 151920, Note_on_c, 10, 49, 95
6, 151920, Note_on_c, 10, 42, 95
6, 152160, Note_off_c, 10, 66, 80
6, 152160, Note_off_c, 10, 61, 80
6, 152160, Note_off_c, 10, 58, 80
6, 152160, Note_off_c, 10, 54, 80
6, 152160, Note_off_c, 10, 49, 80
6, 152160, Note_off_c, 10, 42, 80
6, 152160, Note_on_c, 10, 66, 95
6, 152160, Note_on_c, 10, 61, 95
6, 152160, Note_on_c, 10, 58, 95
6, 152160, Note_on_c, 10, 54, 95
6, 152160, Note_on_c, 10, 49, 95
6, 152160, Note_on_c, 10, 42, 95
6, 152520, Note_off_c, 10, 66, 80
6, 152520, Note_off_c, 10, 61, 80
6, 152520, Note_off_c, 10, 58, 80
6, 152520, Note_off_c, 10, 54, 80
6, 152520, Note_off_c, 10, 49, 80
6, 152520, Note_off_c, 10, 42, 80
6, 152520, Note_on_c, 10, 66, 95
6, 152520, Note_on_c, 10, 61, 95
6, 152520, Note_on_c, 10, 58, 95
6, 152520, Note_on_c, 10, 54, 95
6, 152520, Note_on_c, 10, 49, 95
6, 152520, Note_on_c, 10, 42, 95
6, 152640, Note_off_c, 10, 66, 80
6, 152640, Note_off_c, 10, 61, 80
6, 152640, Note_off_c, 10, 58, 80
6, 152640, Note_off_c, 10, 54, 80
6, 152640, Note_off_c, 10, 49, 80
6, 152640, Note_off_c, 10, 42, 80
6, 152640, Note_on_c, 10, 64, 95
6, 152640, Note_on_c, 10, 59, 95
6, 152640, Note_on_c, 10, 56, 95
6, 152640, Note_on_c, 10, 52, 95
6, 152640, Note_on_c, 10, 47, 95
6, 152640, Note_on_c, 10, 40, 95
6, 152760, Note_off_c, 10, 64, 80
6, 152760, Note_off_c, 10, 59, 80
6, 152760, Note_off_c, 10, 56, 80
6, 152760, Note_off_c, 10, 52, 80
6, 152760, Note_off_c, 10, 47, 80
6, 152760, Note_off_c, 10, 40, 80
6, 152760, Note_on_c, 10, 64, 95
6, 152760, Note_on_c, 10, 59, 95
6, 152760, Note_on_c, 10, 56, 95
6, 152760, Note_on_c, 10, 52, 95
6, 152760, Note_on_c, 10, 47, 95
6, 152760, Note_on_c, 10, 40, 95
6, 152880, Note_off_c, 10, 64, 80
6, 152880, Note_off_c, 10, 59, 80
6, 152880, Note_off_c, 10, 56, 80
6, 152880, Note_off_c, 10, 52, 80
6, 152880, Note_off_c, 10, 47, 80
6, 152880, Note_off_c, 10, 40, 80
6, 152880, Note_on_c, 10, 64, 95
6, 152880, Note_on_c, 10, 59, 95
6, 152880, Note_on_c, 10, 56, 95
6, 152880, Note_on_c, 10, 52, 95
6, 152880, Note_on_c, 10, 47, 95
6, 152880, Note_on_c, 10, 40, 95
6, 153120, Note_off_c, 10, 64, 80
6, 153120, Note_off_c, 10, 59, 80
6, 153120, Note_off_c, 10, 56, 80
6, 153120, Note_off_c, 10, 52, 80
6, 153120, Note_off_c, 10, 47, 80
6, 153120, Note_off_c, 10, 40, 80
6, 153120, Note_on_c, 10, 64, 95
6, 153120, Note_on_c, 10, 59, 95
6, 153120, Note_on_c, 10, 56, 95
6, 153120, Note_on_c, 10, 52, 95
6, 153120, Note_on_c, 10, 47, 95
6, 153120, Note_on_c, 10, 40, 95
6, 153360, Note_off_c, 10, 64, 80
6, 153360, Note_off_c, 10, 59, 80
6, 153360, Note_off_c, 10, 56, 80
6, 153360, Note_off_c, 10, 52, 80
6, 153360, Note_off_c, 10, 47, 80
6, 153360, Note_off_c, 10, 40, 80
6, 153360, Note_on_c, 10, 64, 95
6, 153360, Note_on_c, 10, 59, 95
6, 153360, Note_on_c, 10, 56, 95
6, 153360, Note_on_c, 10, 52, 95
6, 153360, Note_on_c, 10, 47, 95
6, 153360, Note_on_c, 10, 40, 95
6, 153480, Note_off_c, 10, 64, 80
6, 153480, Note_off_c, 10, 59, 80
6, 153480, Note_off_c, 10, 56, 80
6, 153480, Note_off_c, 10, 52, 80
6, 153480, Note_off_c, 10, 47, 80
6, 153480, Note_off_c, 10, 40, 80
6, 153480, Note_on_c, 10, 64, 95
6, 153480, Note_on_c, 10, 59, 95
6, 153480, Note_on_c, 10, 56, 95
6, 153480, Note_on_c, 10, 52, 95
6, 153480, Note_on_c, 10, 47, 95
6, 153480, Note_on_c, 10, 40, 95
6, 153600, Note_off_c, 10, 64, 80
6, 153600, Note_off_c, 10, 59, 80
6, 153600, Note_off_c, 10, 56, 80
6, 153600, Note_off_c, 10, 52, 80
6, 153600, Note_off_c, 10, 47, 80
6, 153600, Note_off_c, 10, 40, 80
6, 153600, Note_on_c, 10, 71, 95
6, 153600, Note_on_c, 10, 66, 95
6, 153600, Note_on_c, 10, 63, 95
6, 153600, Note_on_c, 10, 59, 95
6, 153600, Note_on_c, 10, 54, 95
6, 153600, Note_on_c, 10, 47, 95
6, 154080, Note_off_c, 10, 71, 80
6, 154080, Note_off_c, 10, 66, 80
6, 154080, Note_off_c, 10, 63, 80
6, 154080, Note_off_c, 10, 59, 80
6, 154080, Note_off_c, 10, 54, 80
6, 154080, Note_off_c, 10, 47, 80
6, 154080, Note_on_c, 10, 71, 95
6, 154080, Note_on_c, 10, 66, 95
6, 154080, Note_on_c, 10, 63, 95
6, 154080, Note_on_c, 10, 59, 95
6, 154080, Note_on_c, 10, 54, 95
6, 154080, Note_on_c, 10, 47, 95
6, 154320, Note_off_c, 10, 71, 80
6, 154320, Note_off_c, 10, 66, 80
6, 154320, Note_off_c, 10, 63, 80
6, 154320, Note_off_c, 10, 59, 80
6, 154320, Note_off_c, 10, 54, 80
6, 154320, Note_off_c, 10, 47, 80
6, 154320, Note_on_c, 10, 71, 95
6, 154320, Note_on_c, 10, 66, 95
6, 154320, Note_on_c, 10, 63, 95
6, 154320, Note_on_c, 10, 59, 95
6, 154320, Note_on_c, 10, 54, 95
6, 154320, Note_on_c, 10, 47, 95
6, 154440, Note_off_c, 10, 71, 80
6, 154440, Note_off_c, 10, 66, 80
6, 154440, Note_off_c, 10, 63, 80
6, 154440, Note_off_c, 10, 59, 80
6, 154440, Note_off_c, 10, 54, 80
6, 154440, Note_off_c, 10, 47, 80
6, 154440, Note_on_c, 10, 71, 95
6, 154440, Note_on_c, 10, 66, 95
6, 154440, Note_on_c, 10, 63, 95
6, 154440, Note_on_c, 10, 59, 95
6, 154440, Note_on_c, 10, 54, 95
6, 154440, Note_on_c, 10, 47, 95
6, 154560, Note_off_c, 10, 71, 80
6, 154560, Note_off_c, 10, 66, 80
6, 154560, Note_off_c, 10, 63, 80
6, 154560, Note_off_c, 10, 59, 80
6, 154560, Note_off_c, 10, 54, 80
6, 154560, Note_off_c, 10, 47, 80
6, 154560, Note_on_c, 10, 64, 95
6, 154560, Note_on_c, 10, 59, 95
6, 154560, Note_on_c, 10, 56, 95
6, 154560, Note_on_c, 10, 52, 95
6, 154560, Note_on_c, 10, 47, 95
6, 154560, Note_on_c, 10, 40, 95
6, 154680, Note_off_c, 10, 64, 80
6, 154680, Note_off_c, 10, 59, 80
6, 154680, Note_off_c, 10, 56, 80
6, 154680, Note_off_c, 10, 52, 80
6, 154680, Note_off_c, 10, 47, 80
6, 154680, Note_off_c, 10, 40, 80
6, 154680, Note_on_c, 10, 64, 95
6, 154680, Note_on_c, 10, 59, 95
6, 154680, Note_on_c, 10, 56, 95
6, 154680, Note_on_c, 10, 52, 95
6, 154680, Note_on_c, 10, 47, 95
6, 154680, Note_on_c, 10, 40, 95
6, 154800, Note_off_c, 10, 64, 80
6, 154800, Note_off_c, 10, 59, 80
6, 154800, Note_off_c, 10, 56, 80
6, 154800, Note_off_c, 10, 52, 80
6, 154800, Note_off_c, 10, 47, 80
6, 154800, Note_off_c, 10, 40, 80
6, 154800, Note_on_c, 10, 64, 95
6, 154800, Note_on_c, 10, 59, 95
6, 154800, Note_on_c, 10, 56, 95
6, 154800, Note_on_c, 10, 52, 95
6, 154800, Note_on_c, 10, 47, 95
6, 154800, Note_on_c, 10, 40, 95
6, 155040, Note_off_c, 10, 64, 80
6, 155040, Note_off_c, 10, 59, 80
6, 155040, Note_off_c, 10, 56, 80
6, 155040, Note_off_c, 10, 52, 80
6, 155040, Note_off_c, 10, 47, 80
6, 155040, Note_off_c, 10, 40, 80
6, 155040, Note_on_c, 10, 64, 95
6, 155040, Note_on_c, 10, 59, 95
6, 155040, Note_on_c, 10, 56, 95
6, 155040, Note_on_c, 10, 52, 95
6, 155040, Note_on_c, 10, 47, 95
6, 155040, Note_on_c, 10, 40, 95
6, 155400, Note_off_c, 10, 64, 80
6, 155400, Note_off_c, 10, 59, 80
6, 155400, Note_off_c, 10, 56, 80
6, 155400, Note_off_c, 10, 52, 80
6, 155400, Note_off_c, 10, 47, 80
6, 155400, Note_off_c, 10, 40, 80
6, 155400, Note_on_c, 10, 64, 95
6, 155400, Note_on_c, 10, 59, 95
6, 155400, Note_on_c, 10, 56, 95
6, 155400, Note_on_c, 10, 52, 95
6, 155400, Note_on_c, 10, 47, 95
6, 155400, Note_on_c, 10, 40, 95
6, 155520, Note_off_c, 10, 64, 80
6, 155520, Note_off_c, 10, 59, 80
6, 155520, Note_off_c, 10, 56, 80
6, 155520, Note_off_c, 10, 52, 80
6, 155520, Note_off_c, 10, 47, 80
6, 155520, Note_off_c, 10, 40, 80
6, 155520, Note_on_c, 10, 66, 95
6, 155520, Note_on_c, 10, 61, 95
6, 155520, Note_on_c, 10, 58, 95
6, 155520, Note_on_c, 10, 54, 95
6, 155520, Note_on_c, 10, 49, 95
6, 155520, Note_on_c, 10, 42, 95
6, 155640, Note_off_c, 10, 66, 80
6, 155640, Note_off_c, 10, 61, 80
6, 155640, Note_off_c, 10, 58, 80
6, 155640, Note_off_c, 10, 54, 80
6, 155640, Note_off_c, 10, 49, 80
6, 155640, Note_off_c, 10, 42, 80
6, 155640, Note_on_c, 10, 66, 95
6, 155640, Note_on_c, 10, 61, 95
6, 155640, Note_on_c, 10, 58, 95
6, 155640, Note_on_c, 10, 54, 95
6, 155640, Note_on_c, 10, 49, 95
6, 155640, Note_on_c, 10, 42, 95
6, 155760, Note_off_c, 10, 66, 80
6, 155760, Note_off_c, 10, 61, 80
6, 155760, Note_off_c, 10, 58, 80
6, 155760, Note_off_c, 10, 54, 80
6, 155760, Note_off_c, 10, 49, 80
6, 155760, Note_off_c, 10, 42, 80
6, 155760, Note_on_c, 10, 66, 95
6, 155760, Note_on_c, 10, 61, 95
6, 155760, Note_on_c, 10, 58, 95
6, 155760, Note_on_c, 10, 54, 95
6, 155760, Note_on_c, 10, 49, 95
6, 155760, Note_on_c, 10, 42, 95
6, 156000, Note_off_c, 10, 66, 80
6, 156000, Note_off_c, 10, 61, 80
6, 156000, Note_off_c, 10, 58, 80
6, 156000, Note_off_c, 10, 54, 80
6, 156000, Note_off_c, 10, 49, 80
6, 156000, Note_off_c, 10, 42, 80
6, 156000, Note_on_c, 10, 66, 95
6, 156000, Note_on_c, 10, 61, 95
6, 156000, Note_on_c, 10, 58, 95
6, 156000, Note_on_c, 10, 54, 95
6, 156000, Note_on_c, 10, 49, 95
6, 156000, Note_on_c, 10, 42, 95
6, 156360, Note_off_c, 10, 66, 80
6, 156360, Note_off_c, 10, 61, 80
6, 156360, Note_off_c, 10, 58, 80
6, 156360, Note_off_c, 10, 54, 80
6, 156360, Note_off_c, 10, 49, 80
6, 156360, Note_off_c, 10, 42, 80
6, 156360, Note_on_c, 10, 66, 95
6, 156360, Note_on_c, 10, 61, 95
6, 156360, Note_on_c, 10, 58, 95
6, 156360, Note_on_c, 10, 54, 95
6, 156360, Note_on_c, 10, 49, 95
6, 156360, Note_on_c, 10, 42, 95
6, 156480, Note_off_c, 10, 66, 80
6, 156480, Note_off_c, 10, 61, 80
6, 156480, Note_off_c, 10, 58, 80
6, 156480, Note_off_c, 10, 54, 80
6, 156480, Note_off_c, 10, 49, 80
6, 156480, Note_off_c, 10, 42, 80
6, 156480, Note_on_c, 10, 64, 95
6, 156480, Note_on_c, 10, 59, 95
6, 156480, Note_on_c, 10, 56, 95
6, 156480, Note_on_c, 10, 52, 95
6, 156480, Note_on_c, 10, 47, 95
6, 156480, Note_on_c, 10, 40, 95
6, 156600, Note_off_c, 10, 64, 80
6, 156600, Note_off_c, 10, 59, 80
6, 156600, Note_off_c, 10, 56, 80
6, 156600, Note_off_c, 10, 52, 80
6, 156600, Note_off_c, 10, 47, 80
6, 156600, Note_off_c, 10, 40, 80
6, 156600, Note_on_c, 10, 64, 95
6, 156600, Note_on_c, 10, 59, 95
6, 156600, Note_on_c, 10, 56, 95
6, 156600, Note_on_c, 10, 52, 95
6, 156600, Note_on_c, 10, 47, 95
6, 156600, Note_on_c, 10, 40, 95
6, 156720, Note_off_c, 10, 64, 80
6, 156720, Note_off_c, 10, 59, 80
6, 156720, Note_off_c, 10, 56, 80
6, 156720, Note_off_c, 10, 52, 80
6, 156720, Note_off_c, 10, 47, 80
6, 156720, Note_off_c, 10, 40, 80
6, 156720, Note_on_c, 10, 64, 95
6, 156720, Note_on_c, 10, 59, 95
6, 156720, Note_on_c, 10, 56, 95
6, 156720, Note_on_c, 10, 52, 95
6, 156720, Note_on_c, 10, 47, 95
6, 156720, Note_on_c, 10, 40, 95
6, 156960, Note_off_c, 10, 64, 80
6, 156960, Note_off_c, 10, 59, 80
6, 156960, Note_off_c, 10, 56, 80
6, 156960, Note_off_c, 10, 52, 80
6, 156960, Note_off_c, 10, 47, 80
6, 156960, Note_off_c, 10, 40, 80
6, 156960, Note_on_c, 10, 64, 95
6, 156960, Note_on_c, 10, 59, 95
6, 156960, Note_on_c, 10, 56, 95
6, 156960, Note_on_c, 10, 52, 95
6, 156960, Note_on_c, 10, 47, 95
6, 156960, Note_on_c, 10, 40, 95
6, 157200, Note_off_c, 10, 64, 80
6, 157200, Note_off_c, 10, 59, 80
6, 157200, Note_off_c, 10, 56, 80
6, 157200, Note_off_c, 10, 52, 80
6, 157200, Note_off_c, 10, 47, 80
6, 157200, Note_off_c, 10, 40, 80
6, 157200, Note_on_c, 10, 64, 95
6, 157200, Note_on_c, 10, 59, 95
6, 157200, Note_on_c, 10, 56, 95
6, 157200, Note_on_c, 10, 52, 95
6, 157200, Note_on_c, 10, 47, 95
6, 157200, Note_on_c, 10, 40, 95
6, 157320, Note_off_c, 10, 64, 80
6, 157320, Note_off_c, 10, 59, 80
6, 157320, Note_off_c, 10, 56, 80
6, 157320, Note_off_c, 10, 52, 80
6, 157320, Note_off_c, 10, 47, 80
6, 157320, Note_off_c, 10, 40, 80
6, 157320, Note_on_c, 10, 64, 95
6, 157320, Note_on_c, 10, 59, 95
6, 157320, Note_on_c, 10, 56, 95
6, 157320, Note_on_c, 10, 52, 95
6, 157320, Note_on_c, 10, 47, 95
6, 157320, Note_on_c, 10, 40, 95
6, 157440, Note_off_c, 10, 64, 80
6, 157440, Note_off_c, 10, 59, 80
6, 157440, Note_off_c, 10, 56, 80
6, 157440, Note_off_c, 10, 52, 80
6, 157440, Note_off_c, 10, 47, 80
6, 157440, Note_off_c, 10, 40, 80
6, 157440, Note_on_c, 10, 71, 95
6, 157440, Note_on_c, 10, 66, 95
6, 157440, Note_on_c, 10, 63, 95
6, 157440, Note_on_c, 10, 59, 95
6, 157440, Note_on_c, 10, 54, 95
6, 157440, Note_on_c, 10, 47, 95
6, 157920, Note_off_c, 10, 71, 80
6, 157920, Note_off_c, 10, 66, 80
6, 157920, Note_off_c, 10, 63, 80
6, 157920, Note_off_c, 10, 59, 80
6, 157920, Note_off_c, 10, 54, 80
6, 157920, Note_off_c, 10, 47, 80
6, 157920, Note_on_c, 10, 71, 95
6, 157920, Note_on_c, 10, 66, 95
6, 157920, Note_on_c, 10, 63, 95
6, 157920, Note_on_c, 10, 59, 95
6, 157920, Note_on_c, 10, 54, 95
6, 157920, Note_on_c, 10, 47, 95
6, 158160, Note_off_c, 10, 71, 80
6, 158160, Note_off_c, 10, 66, 80
6, 158160, Note_off_c, 10, 63, 80
6, 158160, Note_off_c, 10, 59, 80
6, 158160, Note_off_c, 10, 54, 80
6, 158160, Note_off_c, 10, 47, 80
6, 158160, Note_on_c, 10, 71, 95
6, 158160, Note_on_c, 10, 66, 95
6, 158160, Note_on_c, 10, 63, 95
6, 158160, Note_on_c, 10, 59, 95
6, 158160, Note_on_c, 10, 54, 95
6, 158160, Note_on_c, 10, 47, 95
6, 158280, Note_off_c, 10, 71, 80
6, 158280, Note_off_c, 10, 66, 80
6, 158280, Note_off_c, 10, 63, 80
6, 158280, Note_off_c, 10, 59, 80
6, 158280, Note_off_c, 10, 54, 80
6, 158280, Note_off_c, 10, 47, 80
6, 158280, Note_on_c, 10, 71, 95
6, 158280, Note_on_c, 10, 66, 95
6, 158280, Note_on_c, 10, 63, 95
6, 158280, Note_on_c, 10, 59, 95
6, 158280, Note_on_c, 10, 54, 95
6, 158280, Note_on_c, 10, 47, 95
6, 158400, Note_off_c, 10, 71, 80
6, 158400, Note_off_c, 10, 66, 80
6, 158400, Note_off_c, 10, 63, 80
6, 158400, Note_off_c, 10, 59, 80
6, 158400, Note_off_c, 10, 54, 80
6, 158400, Note_off_c, 10, 47, 80
6, 158400, Note_on_c, 10, 64, 95
6, 158400, Note_on_c, 10, 59, 95
6, 158400, Note_on_c, 10, 56, 95
6, 158400, Note_on_c, 10, 52, 95
6, 158400, Note_on_c, 10, 47, 95
6, 158400, Note_on_c, 10, 40, 95
6, 158520, Note_off_c, 10, 64, 80
6, 158520, Note_off_c, 10, 59, 80
6, 158520, Note_off_c, 10, 56, 80
6, 158520, Note_off_c, 10, 52, 80
6, 158520, Note_off_c, 10, 47, 80
6, 158520, Note_off_c, 10, 40, 80
6, 158520, Note_on_c, 10, 64, 95
6, 158520, Note_on_c, 10, 59, 95
6, 158520, Note_on_c, 10, 56, 95
6, 158520, Note_on_c, 10, 52, 95
6, 158520, Note_on_c, 10, 47, 95
6, 158520, Note_on_c, 10, 40, 95
6, 158640, Note_off_c, 10, 64, 80
6, 158640, Note_off_c, 10, 59, 80
6, 158640, Note_off_c, 10, 56, 80
6, 158640, Note_off_c, 10, 52, 80
6, 158640, Note_off_c, 10, 47, 80
6, 158640, Note_off_c, 10, 40, 80
6, 158640, Note_on_c, 10, 64, 95
6, 158640, Note_on_c, 10, 59, 95
6, 158640, Note_on_c, 10, 56, 95
6, 158640, Note_on_c, 10, 52, 95
6, 158640, Note_on_c, 10, 47, 95
6, 158640, Note_on_c, 10, 40, 95
6, 158880, Note_off_c, 10, 64, 80
6, 158880, Note_off_c, 10, 59, 80
6, 158880, Note_off_c, 10, 56, 80
6, 158880, Note_off_c, 10, 52, 80
6, 158880, Note_off_c, 10, 47, 80
6, 158880, Note_off_c, 10, 40, 80
6, 158880, Note_on_c, 10, 64, 95
6, 158880, Note_on_c, 10, 59, 95
6, 158880, Note_on_c, 10, 56, 95
6, 158880, Note_on_c, 10, 52, 95
6, 158880, Note_on_c, 10, 47, 95
6, 158880, Note_on_c, 10, 40, 95
6, 159240, Note_off_c, 10, 64, 80
6, 159240, Note_off_c, 10, 59, 80
6, 159240, Note_off_c, 10, 56, 80
6, 159240, Note_off_c, 10, 52, 80
6, 159240, Note_off_c, 10, 47, 80
6, 159240, Note_off_c, 10, 40, 80
6, 159240, Note_on_c, 10, 64, 95
6, 159240, Note_on_c, 10, 59, 95
6, 159240, Note_on_c, 10, 56, 95
6, 159240, Note_on_c, 10, 52, 95
6, 159240, Note_on_c, 10, 47, 95
6, 159240, Note_on_c, 10, 40, 95
6, 159360, Note_off_c, 10, 64, 80
6, 159360, Note_off_c, 10, 59, 80
6, 159360, Note_off_c, 10, 56, 80
6, 159360, Note_off_c, 10, 52, 80
6, 159360, Note_off_c, 10, 47, 80
6, 159360, Note_off_c, 10, 40, 80
6, 159360, Note_on_c, 10, 66, 95
6, 159360, Note_on_c, 10, 61, 95
6, 159360, Note_on_c, 10, 58, 95
6, 159360, Note_on_c, 10, 54, 95
6, 159360, Note_on_c, 10, 49, 95
6, 159360, Note_on_c, 10, 42, 95
6, 159480, Note_off_c, 10, 66, 80
6, 159480, Note_off_c, 10, 61, 80
6, 159480, Note_off_c, 10, 58, 80
6, 159480, Note_off_c, 10, 54, 80
6, 159480, Note_off_c, 10, 49, 80
6, 159480, Note_off_c, 10, 42, 80
6, 159480, Note_on_c, 10, 66, 95
6, 159480, Note_on_c, 10, 61, 95
6, 159480, Note_on_c, 10, 58, 95
6, 159480, Note_on_c, 10, 54, 95
6, 159480, Note_on_c, 10, 49, 95
6, 159480, Note_on_c, 10, 42, 95
6, 159600, Note_off_c, 10, 66, 80
6, 159600, Note_off_c, 10, 61, 80
6, 159600, Note_off_c, 10, 58, 80
6, 159600, Note_off_c, 10, 54, 80
6, 159600, Note_off_c, 10, 49, 80
6, 159600, Note_off_c, 10, 42, 80
6, 159600, Note_on_c, 10, 66, 95
6, 159600, Note_on_c, 10, 61, 95
6, 159600, Note_on_c, 10, 58, 95
6, 159600, Note_on_c, 10, 54, 95
6, 159600, Note_on_c, 10, 49, 95
6, 159600, Note_on_c, 10, 42, 95
6, 159840, Note_off_c, 10, 66, 80
6, 159840, Note_off_c, 10, 61, 80
6, 159840, Note_off_c, 10, 58, 80
6, 159840, Note_off_c, 10, 54, 80
6, 159840, Note_off_c, 10, 49, 80
6, 159840, Note_off_c, 10, 42, 80
6, 159840, Note_on_c, 10, 66, 95
6, 159840, Note_on_c, 10, 61, 95
6, 159840, Note_on_c, 10, 58, 95
6, 159840, Note_on_c, 10, 54, 95
6, 159840, Note_on_c, 10, 49, 95
6, 159840, Note_on_c, 10, 42, 95
6, 160200, Note_off_c, 10, 66, 80
6, 160200, Note_off_c, 10, 61, 80
6, 160200, Note_off_c, 10, 58, 80
6, 160200, Note_off_c, 10, 54, 80
6, 160200, Note_off_c, 10, 49, 80
6, 160200, Note_off_c, 10, 42, 80
6, 160200, Note_on_c, 10, 66, 95
6, 160200, Note_on_c, 10, 61, 95
6, 160200, Note_on_c, 10, 58, 95
6, 160200, Note_on_c, 10, 54, 95
6, 160200, Note_on_c, 10, 49, 95
6, 160200, Note_on_c, 10, 42, 95
6, 160320, Note_off_c, 10, 66, 80
6, 160320, Note_off_c, 10, 61, 80
6, 160320, Note_off_c, 10, 58, 80
6, 160320, Note_off_c, 10, 54, 80
6, 160320, Note_off_c, 10, 49, 80
6, 160320, Note_off_c, 10, 42, 80
6, 160320, Note_on_c, 10, 64, 95
6, 160320, Note_on_c, 10, 59, 95
6, 160320, Note_on_c, 10, 56, 95
6, 160320, Note_on_c, 10, 52, 95
6, 160320, Note_on_c, 10, 47, 95
6, 160320, Note_on_c, 10, 40, 95
6, 160440, Note_off_c, 10, 64, 80
6, 160440, Note_off_c, 10, 59, 80
6, 160440, Note_off_c, 10, 56, 80
6, 160440, Note_off_c, 10, 52, 80
6, 160440, Note_off_c, 10, 47, 80
6, 160440, Note_off_c, 10, 40, 80
6, 160440, Note_on_c, 10, 64, 95
6, 160440, Note_on_c, 10, 59, 95
6, 160440, Note_on_c, 10, 56, 95
6, 160440, Note_on_c, 10, 52, 95
6, 160440, Note_on_c, 10, 47, 95
6, 160440, Note_on_c, 10, 40, 95
6, 160560, Note_off_c, 10, 64, 80
6, 160560, Note_off_c, 10, 59, 80
6, 160560, Note_off_c, 10, 56, 80
6, 160560, Note_off_c, 10, 52, 80
6, 160560, Note_off_c, 10, 47, 80
6, 160560, Note_off_c, 10, 40, 80
6, 160560, Note_on_c, 10, 64, 95
6, 160560, Note_on_c, 10, 59, 95
6, 160560, Note_on_c, 10, 56, 95
6, 160560, Note_on_c, 10, 52, 95
6, 160560, Note_on_c, 10, 47, 95
6, 160560, Note_on_c, 10, 40, 95
6, 160800, Note_off_c, 10, 64, 80
6, 160800, Note_off_c, 10, 59, 80
6, 160800, Note_off_c, 10, 56, 80
6, 160800, Note_off_c, 10, 52, 80
6, 160800, Note_off_c, 10, 47, 80
6, 160800, Note_off_c, 10, 40, 80
6, 160800, Note_on_c, 10, 64, 95
6, 160800, Note_on_c, 10, 59, 95
6, 160800, Note_on_c, 10, 56, 95
6, 160800, Note_on_c, 10, 52, 95
6, 160800, Note_on_c, 10, 47, 95
6, 160800, Note_on_c, 10, 40, 95
6, 161040, Note_off_c, 10, 64, 80
6, 161040, Note_off_c, 10, 59, 80
6, 161040, Note_off_c, 10, 56, 80
6, 161040, Note_off_c, 10, 52, 80
6, 161040, Note_off_c, 10, 47, 80
6, 161040, Note_off_c, 10, 40, 80
6, 161040, Note_on_c, 10, 64, 95
6, 161040, Note_on_c, 10, 59, 95
6, 161040, Note_on_c, 10, 56, 95
6, 161040, Note_on_c, 10, 52, 95
6, 161040, Note_on_c, 10, 47, 95
6, 161040, Note_on_c, 10, 40, 95
6, 161160, Note_off_c, 10, 64, 80
6, 161160, Note_off_c, 10, 59, 80
6, 161160, Note_off_c, 10, 56, 80
6, 161160, Note_off_c, 10, 52, 80
6, 161160, Note_off_c, 10, 47, 80
6, 161160, Note_off_c, 10, 40, 80
6, 161160, Note_on_c, 10, 64, 95
6, 161160, Note_on_c, 10, 59, 95
6, 161160, Note_on_c, 10, 56, 95
6, 161160, Note_on_c, 10, 52, 95
6, 161160, Note_on_c, 10, 47, 95
6, 161160, Note_on_c, 10, 40, 95
6, 161280, Note_off_c, 10, 64, 80
6, 161280, Note_off_c, 10, 59, 80
6, 161280, Note_off_c, 10, 56, 80
6, 161280, Note_off_c, 10, 52, 80
6, 161280, Note_off_c, 10, 47, 80
6, 161280, Note_off_c, 10, 40, 80
6, 161280, Note_on_c, 10, 71, 95
6, 161280, Note_on_c, 10, 66, 95
6, 161280, Note_on_c, 10, 63, 95
6, 161280, Note_on_c, 10, 59, 95
6, 161280, Note_on_c, 10, 54, 95
6, 161280, Note_on_c, 10, 47, 95
6, 161760, Note_off_c, 10, 71, 80
6, 161760, Note_off_c, 10, 66, 80
6, 161760, Note_off_c, 10, 63, 80
6, 161760, Note_off_c, 10, 59, 80
6, 161760, Note_off_c, 10, 54, 80
6, 161760, Note_off_c, 10, 47, 80
6, 161760, Note_on_c, 10, 71, 95
6, 161760, Note_on_c, 10, 66, 95
6, 161760, Note_on_c, 10, 63, 95
6, 161760, Note_on_c, 10, 59, 95
6, 161760, Note_on_c, 10, 54, 95
6, 161760, Note_on_c, 10, 47, 95
6, 162000, Note_off_c, 10, 71, 80
6, 162000, Note_off_c, 10, 66, 80
6, 162000, Note_off_c, 10, 63, 80
6, 162000, Note_off_c, 10, 59, 80
6, 162000, Note_off_c, 10, 54, 80
6, 162000, Note_off_c, 10, 47, 80
6, 162000, Note_on_c, 10, 71, 95
6, 162000, Note_on_c, 10, 66, 95
6, 162000, Note_on_c, 10, 63, 95
6, 162000, Note_on_c, 10, 59, 95
6, 162000, Note_on_c, 10, 54, 95
6, 162000, Note_on_c, 10, 47, 95
6, 162120, Note_off_c, 10, 71, 80
6, 162120, Note_off_c, 10, 66, 80
6, 162120, Note_off_c, 10, 63, 80
6, 162120, Note_off_c, 10, 59, 80
6, 162120, Note_off_c, 10, 54, 80
6, 162120, Note_off_c, 10, 47, 80
6, 162120, Note_on_c, 10, 71, 95
6, 162120, Note_on_c, 10, 66, 95
6, 162120, Note_on_c, 10, 63, 95
6, 162120, Note_on_c, 10, 59, 95
6, 162120, Note_on_c, 10, 54, 95
6, 162120, Note_on_c, 10, 47, 95
6, 162240, Note_off_c, 10, 71, 80
6, 162240, Note_off_c, 10, 66, 80
6, 162240, Note_off_c, 10, 63, 80
6, 162240, Note_off_c, 10, 59, 80
6, 162240, Note_off_c, 10, 54, 80
6, 162240, Note_off_c, 10, 47, 80
6, 162240, Note_on_c, 10, 64, 95
6, 162240, Note_on_c, 10, 59, 95
6, 162240, Note_on_c, 10, 56, 95
6, 162240, Note_on_c, 10, 52, 95
6, 162240, Note_on_c, 10, 47, 95
6, 162240, Note_on_c, 10, 40, 95
6, 162360, Note_off_c, 10, 64, 80
6, 162360, Note_off_c, 10, 59, 80
6, 162360, Note_off_c, 10, 56, 80
6, 162360, Note_off_c, 10, 52, 80
6, 162360, Note_off_c, 10, 47, 80
6, 162360, Note_off_c, 10, 40, 80
6, 162360, Note_on_c, 10, 64, 95
6, 162360, Note_on_c, 10, 59, 95
6, 162360, Note_on_c, 10, 56, 95
6, 162360, Note_on_c, 10, 52, 95
6, 162360, Note_on_c, 10, 47, 95
6, 162360, Note_on_c, 10, 40, 95
6, 162480, Note_off_c, 10, 64, 80
6, 162480, Note_off_c, 10, 59, 80
6, 162480, Note_off_c, 10, 56, 80
6, 162480, Note_off_c, 10, 52, 80
6, 162480, Note_off_c, 10, 47, 80
6, 162480, Note_off_c, 10, 40, 80
6, 162480, Note_on_c, 10, 64, 95
6, 162480, Note_on_c, 10, 59, 95
6, 162480, Note_on_c, 10, 56, 95
6, 162480, Note_on_c, 10, 52, 95
6, 162480, Note_on_c, 10, 47, 95
6, 162480, Note_on_c, 10, 40, 95
6, 162720, Note_off_c, 10, 64, 80
6, 162720, Note_off_c, 10, 59, 80
6, 162720, Note_off_c, 10, 56, 80
6, 162720, Note_off_c, 10, 52, 80
6, 162720, Note_off_c, 10, 47, 80
6, 162720, Note_off_c, 10, 40, 80
6, 162720, Note_on_c, 10, 64, 95
6, 162720, Note_on_c, 10, 59, 95
6, 162720, Note_on_c, 10, 56, 95
6, 162720, Note_on_c, 10, 52, 95
6, 162720, Note_on_c, 10, 47, 95
6, 162720, Note_on_c, 10, 40, 95
6, 163080, Note_off_c, 10, 64, 80
6, 163080, Note_off_c, 10, 59, 80
6, 163080, Note_off_c, 10, 56, 80
6, 163080, Note_off_c, 10, 52, 80
6, 163080, Note_off_c, 10, 47, 80
6, 163080, Note_off_c, 10, 40, 80
6, 163080, Note_on_c, 10, 64, 95
6, 163080, Note_on_c, 10, 59, 95
6, 163080, Note_on_c, 10, 56, 95
6, 163080, Note_on_c, 10, 52, 95
6, 163080, Note_on_c, 10, 47, 95
6, 163080, Note_on_c, 10, 40, 95
6, 163200, Note_off_c, 10, 64, 80
6, 163200, Note_off_c, 10, 59, 80
6, 163200, Note_off_c, 10, 56, 80
6, 163200, Note_off_c, 10, 52, 80
6, 163200, Note_off_c, 10, 47, 80
6, 163200, Note_off_c, 10, 40, 80
6, 163200, Note_on_c, 10, 66, 95
6, 163200, Note_on_c, 10, 61, 95
6, 163200, Note_on_c, 10, 58, 95
6, 163200, Note_on_c, 10, 54, 95
6, 163200, Note_on_c, 10, 49, 95
6, 163200, Note_on_c, 10, 42, 95
6, 165120, Note_off_c, 10, 66, 80
6, 165120, Note_off_c, 10, 61, 80
6, 165120, Note_off_c, 10, 58, 80
6, 165120, Note_off_c, 10, 54, 80
6, 165120, Note_off_c, 10, 49, 80
6, 165120, Note_off_c, 10, 42, 80
6, 165120, End_track
7, 0, Start_track
7, 0, Title_t, "Bleeps"
7, 0, Control_c, 15, 100, 0
7, 0, Control_c, 15, 101, 0
7, 0, Control_c, 15, 6, 12
7, 0, Pitch_bend_c, 15, 8192
7, 0, Control_c, 15, 101, 0
7, 0, Control_c, 15, 100, 1
7, 0, Control_c, 15, 6, 64
7, 0, Control_c, 15, 38, 0
7, 0, Control_c, 15, 101, 127
7, 0, Control_c, 15, 100, 127
7, 0, Control_c, 14, 100, 0
7, 0, Control_c, 14, 101, 0
7, 0, Control_c, 14, 6, 12
7, 0, Pitch_bend_c, 14, 8192
7, 0, Control_c, 14, 101, 0
7, 0, Control_c, 14, 100, 1
7, 0, Control_c, 14, 6, 64
7, 0, Control_c, 14, 38, 0
7, 0, Control_c, 14, 101, 127
7, 0, Control_c, 14, 100, 127
7, 0, Control_c, 15, 101, 0
7, 0, Control_c, 15, 100, 2
7, 0, Control_c, 15, 6, 64
7, 0, Control_c, 15, 101, 127
7, 0, Control_c, 15, 100, 127
7, 0, Control_c, 14, 101, 0
7, 0, Control_c, 14, 100, 2
7, 0, Control_c, 14, 6, 64
7, 0, Control_c, 14, 101, 127
7, 0, Control_c, 14, 100, 127
7, 0, Program_c, 15, 84
7, 0, Program_c, 14, 84
7, 0, Control_c, 15, 0, 0
7, 0, Control_c, 14, 0, 0
7, 0, Control_c, 15, 7, 64
7, 0, Control_c, 14, 7, 64
7, 0, Control_c, 15, 10, 64
7, 0, Control_c, 14, 10, 64
7, 0, Control_c, 15, 93, 0
7, 0, Control_c, 14, 93, 0
7, 0, Control_c, 15, 91, 0
7, 0, Control_c, 14, 91, 0
7, 0, Control_c, 15, 92, 0
7, 0, Control_c, 14, 92, 0
7, 0, Control_c, 15, 95, 0
7, 0, Control_c, 14, 95, 0
7, 480, Note_on_c, 14, 72, 95
7, 600, Note_off_c, 14, 72, 80
7, 960, Note_on_c, 14, 72, 95
7, 1080, Note_off_c, 14, 72, 80
7, 1440, Note_on_c, 14, 72, 95
7, 1560, Note_off_c, 14, 72, 80
7, 1920, Note_on_c, 14, 59, 95
7, 1980, Note_off_c, 14, 59, 80
7, 2040, Note_on_c, 14, 59, 95
7, 2100, Note_off_c, 14, 59, 80
7, 2160, Note_on_c, 14, 59, 95
7, 2220, Note_off_c, 14, 59, 80
7, 2280, Note_on_c, 14, 59, 95
7, 2340, Note_off_c, 14, 59, 80
7, 2400, Note_on_c, 14, 59, 95
7, 2460, Note_off_c, 14, 59, 80
7, 2520, Note_on_c, 14, 59, 95
7, 2580, Note_off_c, 14, 59, 80
7, 2640, Note_on_c, 14, 59, 95
7, 2700, Note_off_c, 14, 59, 80
7, 2760, Note_on_c, 14, 59, 95
7, 2820, Note_off_c, 14, 59, 80
7, 2880, Note_on_c, 14, 59, 95
7, 2940, Note_off_c, 14, 59, 80
7, 3000, Note_on_c, 14, 59, 95
7, 3060, Note_off_c, 14, 59, 80
7, 3120, Note_on_c, 14, 59, 95
7, 3180, Note_off_c, 14, 59, 80
7, 3240, Note_on_c, 14, 59, 95
7, 3300, Note_off_c, 14, 59, 80
7, 3360, Note_on_c, 14, 59, 95
7, 3420, Note_off_c, 14, 59, 80
7, 3480, Note_on_c, 14, 59, 95
7, 3540, Note_off_c, 14, 59, 80
7, 3600, Note_on_c, 14, 59, 95
7, 3660, Note_off_c, 14, 59, 80
7, 3720, Note_on_c, 14, 59, 95
7, 3780, Note_off_c, 14, 59, 80
7, 3840, Note_on_c, 14, 59, 95
7, 3900, Note_off_c, 14, 59, 80
7, 3960, Note_on_c, 14, 59, 95
7, 4020, Note_off_c, 14, 59, 80
7, 4080, Note_on_c, 14, 59, 95
7, 4140, Note_off_c, 14, 59, 80
7, 4200, Note_on_c, 14, 59, 95
7, 4260, Note_off_c, 14, 59, 80
7, 4320, Note_on_c, 14, 59, 95
7, 4380, Note_off_c, 14, 59, 80
7, 4440, Note_on_c, 14, 59, 95
7, 4500, Note_off_c, 14, 59, 80
7, 4560, Note_on_c, 14, 59, 95
7, 4620, Note_off_c, 14, 59, 80
7, 4680, Note_on_c, 14, 59, 95
7, 4740, Note_off_c, 14, 59, 80
7, 4800, Note_on_c, 14, 59, 95
7, 4860, Note_off_c, 14, 59, 80
7, 4920, Note_on_c, 14, 59, 95
7, 4980, Note_off_c, 14, 59, 80
7, 5040, Note_on_c, 14, 59, 95
7, 5100, Note_off_c, 14, 59, 80
7, 5160, Note_on_c, 14, 59, 95
7, 5220, Note_off_c, 14, 59, 80
7, 5280, Note_on_c, 14, 59, 95
7, 5340, Note_off_c, 14, 59, 80
7, 5400, Note_on_c, 14, 59, 95
7, 5460, Note_off_c, 14, 59, 80
7, 5520, Note_on_c, 14, 59, 95
7, 5580, Note_off_c, 14, 59, 80
7, 5640, Note_on_c, 14, 59, 95
7, 5700, Note_off_c, 14, 59, 80
7, 5760, Note_on_c, 14, 59, 95
7, 5820, Note_off_c, 14, 59, 80
7, 5880, Note_on_c, 14, 59, 95
7, 5940, Note_off_c, 14, 59, 80
7, 6000, Note_on_c, 14, 59, 95
7, 6060, Note_off_c, 14, 59, 80
7, 6120, Note_on_c, 14, 59, 95
7, 6180, Note_off_c, 14, 59, 80
7, 6240, Note_on_c, 14, 59, 95
7, 6300, Note_off_c, 14, 59, 80
7, 6360, Note_on_c, 14, 59, 95
7, 6420, Note_off_c, 14, 59, 80
7, 6480, Note_on_c, 14, 59, 95
7, 6540, Note_off_c, 14, 59, 80
7, 6600, Note_on_c, 14, 59, 95
7, 6660, Note_off_c, 14, 59, 80
7, 6720, Note_on_c, 14, 59, 95
7, 6780, Note_off_c, 14, 59, 80
7, 6840, Note_on_c, 14, 59, 95
7, 6900, Note_off_c, 14, 59, 80
7, 6960, Note_on_c, 14, 59, 95
7, 7020, Note_off_c, 14, 59, 80
7, 7080, Note_on_c, 14, 59, 95
7, 7140, Note_off_c, 14, 59, 80
7, 7200, Note_on_c, 14, 59, 95
7, 7260, Note_off_c, 14, 59, 80
7, 7320, Note_on_c, 14, 59, 95
7, 7380, Note_off_c, 14, 59, 80
7, 7440, Note_on_c, 14, 59, 95
7, 7500, Note_off_c, 14, 59, 80
7, 7560, Note_on_c, 14, 59, 95
7, 7620, Note_off_c, 14, 59, 80
7, 7680, Note_on_c, 14, 59, 95
7, 7740, Note_off_c, 14, 59, 80
7, 7800, Note_on_c, 14, 59, 95
7, 7860, Note_off_c, 14, 59, 80
7, 7920, Note_on_c, 14, 59, 95
7, 7980, Note_off_c, 14, 59, 80
7, 8040, Note_on_c, 14, 59, 95
7, 8100, Note_off_c, 14, 59, 80
7, 8160, Note_on_c, 14, 59, 95
7, 8220, Note_off_c, 14, 59, 80
7, 8280, Note_on_c, 14, 59, 95
7, 8340, Note_off_c, 14, 59, 80
7, 8400, Note_on_c, 14, 59, 95
7, 8460, Note_off_c, 14, 59, 80
7, 8520, Note_on_c, 14, 59, 95
7, 8580, Note_off_c, 14, 59, 80
7, 8640, Note_on_c, 14, 59, 95
7, 8700, Note_off_c, 14, 59, 80
7, 8760, Note_on_c, 14, 59, 95
7, 8820, Note_off_c, 14, 59, 80
7, 8880, Note_on_c, 14, 59, 95
7, 8940, Note_off_c, 14, 59, 80
7, 9000, Note_on_c, 14, 59, 95
7, 9060, Note_off_c, 14, 59, 80
7, 9120, Note_on_c, 14, 59, 95
7, 9180, Note_off_c, 14, 59, 80
7, 9240, Note_on_c, 14, 59, 95
7, 9300, Note_off_c, 14, 59, 80
7, 9360, Note_on_c, 14, 59, 95
7, 9420, Note_off_c, 14, 59, 80
7, 9480, Note_on_c, 14, 59, 95
7, 9540, Note_off_c, 14, 59, 80
7, 9600, Note_on_c, 14, 59, 95
7, 9660, Note_off_c, 14, 59, 80
7, 9720, Note_on_c, 14, 59, 95
7, 9780, Note_off_c, 14, 59, 80
7, 9840, Note_on_c, 14, 59, 95
7, 9900, Note_off_c, 14, 59, 80
7, 9960, Note_on_c, 14, 59, 95
7, 10020, Note_off_c, 14, 59, 80
7, 10080, Note_on_c, 14, 59, 95
7, 10140, Note_off_c, 14, 59, 80
7, 10200, Note_on_c, 14, 59, 95
7, 10260, Note_off_c, 14, 59, 80
7, 10320, Note_on_c, 14, 59, 95
7, 10380, Note_off_c, 14, 59, 80
7, 10440, Note_on_c, 14, 59, 95
7, 10500, Note_off_c, 14, 59, 80
7, 10560, Note_on_c, 14, 59, 95
7, 10620, Note_off_c, 14, 59, 80
7, 10680, Note_on_c, 14, 59, 95
7, 10740, Note_off_c, 14, 59, 80
7, 10800, Note_on_c, 14, 59, 95
7, 10860, Note_off_c, 14, 59, 80
7, 10920, Note_on_c, 14, 59, 95
7, 10980, Note_off_c, 14, 59, 80
7, 11040, Note_on_c, 14, 59, 95
7, 11100, Note_off_c, 14, 59, 80
7, 11160, Note_on_c, 14, 59, 95
7, 11220, Note_off_c, 14, 59, 80
7, 11280, Note_on_c, 14, 59, 95
7, 11340, Note_off_c, 14, 59, 80
7, 11400, Note_on_c, 14, 59, 95
7, 11460, Note_off_c, 14, 59, 80
7, 11520, Note_on_c, 14, 59, 95
7, 11580, Note_off_c, 14, 59, 80
7, 11640, Note_on_c, 14, 59, 95
7, 11700, Note_off_c, 14, 59, 80
7, 11760, Note_on_c, 14, 59, 95
7, 11820, Note_off_c, 14, 59, 80
7, 11880, Note_on_c, 14, 59, 95
7, 11940, Note_off_c, 14, 59, 80
7, 12000, Note_on_c, 14, 59, 95
7, 12060, Note_off_c, 14, 59, 80
7, 12120, Note_on_c, 14, 59, 95
7, 12180, Note_off_c, 14, 59, 80
7, 12240, Note_on_c, 14, 59, 95
7, 12300, Note_off_c, 14, 59, 80
7, 12360, Note_on_c, 14, 59, 95
7, 12420, Note_off_c, 14, 59, 80
7, 12480, Note_on_c, 14, 59, 95
7, 12540, Note_off_c, 14, 59, 80
7, 12600, Note_on_c, 14, 59, 95
7, 12660, Note_off_c, 14, 59, 80
7, 12720, Note_on_c, 14, 59, 95
7, 12780, Note_off_c, 14, 59, 80
7, 12840, Note_on_c, 14, 59, 95
7, 12900, Note_off_c, 14, 59, 80
7, 12960, Note_on_c, 14, 59, 95
7, 13020, Note_off_c, 14, 59, 80
7, 13080, Note_on_c, 14, 59, 95
7, 13140, Note_off_c, 14, 59, 80
7, 13200, Note_on_c, 14, 59, 95
7, 13260, Note_off_c, 14, 59, 80
7, 13320, Note_on_c, 14, 59, 95
7, 13380, Note_off_c, 14, 59, 80
7, 13440, Note_on_c, 14, 59, 95
7, 13500, Note_off_c, 14, 59, 80
7, 13560, Note_on_c, 14, 59, 95
7, 13620, Note_off_c, 14, 59, 80
7, 13680, Note_on_c, 14, 59, 95
7, 13740, Note_off_c, 14, 59, 80
7, 13800, Note_on_c, 14, 59, 95
7, 13860, Note_off_c, 14, 59, 80
7, 13920, Note_on_c, 14, 59, 95
7, 13980, Note_off_c, 14, 59, 80
7, 14040, Note_on_c, 14, 59, 95
7, 14100, Note_off_c, 14, 59, 80
7, 14160, Note_on_c, 14, 59, 95
7, 14220, Note_off_c, 14, 59, 80
7, 14280, Note_on_c, 14, 59, 95
7, 14340, Note_off_c, 14, 59, 80
7, 14400, Note_on_c, 14, 59, 95
7, 14460, Note_off_c, 14, 59, 80
7, 14520, Note_on_c, 14, 59, 95
7, 14580, Note_off_c, 14, 59, 80
7, 14640, Note_on_c, 14, 59, 95
7, 14700, Note_off_c, 14, 59, 80
7, 14760, Note_on_c, 14, 59, 95
7, 14820, Note_off_c, 14, 59, 80
7, 14880, Note_on_c, 14, 59, 95
7, 14940, Note_off_c, 14, 59, 80
7, 15000, Note_on_c, 14, 59, 95
7, 15060, Note_off_c, 14, 59, 80
7, 15120, Note_on_c, 14, 59, 95
7, 15180, Note_off_c, 14, 59, 80
7, 15240, Note_on_c, 14, 59, 95
7, 15300, Note_off_c, 14, 59, 80
7, 15360, Note_on_c, 14, 59, 95
7, 15420, Note_off_c, 14, 59, 80
7, 15480, Note_on_c, 14, 59, 95
7, 15540, Note_off_c, 14, 59, 80
7, 15600, Note_on_c, 14, 59, 95
7, 15660, Note_off_c, 14, 59, 80
7, 15720, Note_on_c, 14, 59, 95
7, 15780, Note_off_c, 14, 59, 80
7, 15840, Note_on_c, 14, 59, 95
7, 15900, Note_off_c, 14, 59, 80
7, 15960, Note_on_c, 14, 59, 95
7, 16020, Note_off_c, 14, 59, 80
7, 16080, Note_on_c, 14, 59, 95
7, 16140, Note_off_c, 14, 59, 80
7, 16200, Note_on_c, 14, 59, 95
7, 16260, Note_off_c, 14, 59, 80
7, 16320, Note_on_c, 14, 59, 95
7, 16380, Note_off_c, 14, 59, 80
7, 16440, Note_on_c, 14, 59, 95
7, 16500, Note_off_c, 14, 59, 80
7, 16560, Note_on_c, 14, 59, 95
7, 16620, Note_off_c, 14, 59, 80
7, 16680, Note_on_c, 14, 59, 95
7, 16740, Note_off_c, 14, 59, 80
7, 16800, Note_on_c, 14, 59, 95
7, 16860, Note_off_c, 14, 59, 80
7, 16920, Note_on_c, 14, 59, 95
7, 16980, Note_off_c, 14, 59, 80
7, 17040, Note_on_c, 14, 59, 95
7, 17100, Note_off_c, 14, 59, 80
7, 17160, Note_on_c, 14, 59, 95
7, 17220, Note_off_c, 14, 59, 80
7, 17280, Note_on_c, 14, 59, 95
7, 17340, Note_off_c, 14, 59, 80
7, 17400, Note_on_c, 14, 59, 95
7, 17460, Note_off_c, 14, 59, 80
7, 17520, Note_on_c, 14, 59, 95
7, 17580, Note_off_c, 14, 59, 80
7, 17640, Note_on_c, 14, 59, 95
7, 17700, Note_off_c, 14, 59, 80
7, 17760, Note_on_c, 14, 59, 95
7, 17820, Note_off_c, 14, 59, 80
7, 17880, Note_on_c, 14, 59, 95
7, 17940, Note_off_c, 14, 59, 80
7, 18000, Note_on_c, 14, 59, 95
7, 18060, Note_off_c, 14, 59, 80
7, 18120, Note_on_c, 14, 59, 95
7, 18180, Note_off_c, 14, 59, 80
7, 18240, Note_on_c, 14, 59, 95
7, 18300, Note_off_c, 14, 59, 80
7, 18360, Note_on_c, 14, 59, 95
7, 18420, Note_off_c, 14, 59, 80
7, 18480, Note_on_c, 14, 59, 95
7, 18540, Note_off_c, 14, 59, 80
7, 18600, Note_on_c, 14, 59, 95
7, 18660, Note_off_c, 14, 59, 80
7, 18720, Note_on_c, 14, 59, 95
7, 18780, Note_off_c, 14, 59, 80
7, 18840, Note_on_c, 14, 59, 95
7, 18900, Note_off_c, 14, 59, 80
7, 18960, Note_on_c, 14, 59, 95
7, 19020, Note_off_c, 14, 59, 80
7, 19080, Note_on_c, 14, 59, 95
7, 19140, Note_off_c, 14, 59, 80
7, 19200, Note_on_c, 14, 59, 95
7, 19260, Note_off_c, 14, 59, 80
7, 19320, Note_on_c, 14, 59, 95
7, 19380, Note_off_c, 14, 59, 80
7, 19440, Note_on_c, 14, 59, 95
7, 19500, Note_off_c, 14, 59, 80
7, 19560, Note_on_c, 14, 59, 95
7, 19620, Note_off_c, 14, 59, 80
7, 19680, Note_on_c, 14, 59, 95
7, 19740, Note_off_c, 14, 59, 80
7, 19800, Note_on_c, 14, 59, 95
7, 19860, Note_off_c, 14, 59, 80
7, 19920, Note_on_c, 14, 59, 95
7, 19980, Note_off_c, 14, 59, 80
7, 20040, Note_on_c, 14, 59, 95
7, 20100, Note_off_c, 14, 59, 80
7, 20160, Note_on_c, 14, 59, 95
7, 20220, Note_off_c, 14, 59, 80
7, 20280, Note_on_c, 14, 59, 95
7, 20340, Note_off_c, 14, 59, 80
7, 20400, Note_on_c, 14, 59, 95
7, 20460, Note_off_c, 14, 59, 80
7, 20520, Note_on_c, 14, 59, 95
7, 20580, Note_off_c, 14, 59, 80
7, 20640, Note_on_c, 14, 59, 95
7, 20700, Note_off_c, 14, 59, 80
7, 20760, Note_on_c, 14, 59, 95
7, 20820, Note_off_c, 14, 59, 80
7, 20880, Note_on_c, 14, 59, 95
7, 20940, Note_off_c, 14, 59, 80
7, 21000, Note_on_c, 14, 59, 95
7, 21060, Note_off_c, 14, 59, 80
7, 21120, Note_on_c, 14, 59, 95
7, 21180, Note_off_c, 14, 59, 80
7, 21240, Note_on_c, 14, 59, 95
7, 21300, Note_off_c, 14, 59, 80
7, 21360, Note_on_c, 14, 59, 95
7, 21420, Note_off_c, 14, 59, 80
7, 21480, Note_on_c, 14, 59, 95
7, 21540, Note_off_c, 14, 59, 80
7, 21600, Note_on_c, 14, 59, 95
7, 21660, Note_off_c, 14, 59, 80
7, 21720, Note_on_c, 14, 59, 95
7, 21780, Note_off_c, 14, 59, 80
7, 21840, Note_on_c, 14, 59, 95
7, 21900, Note_off_c, 14, 59, 80
7, 21960, Note_on_c, 14, 59, 95
7, 22020, Note_off_c, 14, 59, 80
7, 22080, Note_on_c, 14, 59, 95
7, 22140, Note_off_c, 14, 59, 80
7, 22200, Note_on_c, 14, 59, 95
7, 22260, Note_off_c, 14, 59, 80
7, 22320, Note_on_c, 14, 59, 95
7, 22380, Note_off_c, 14, 59, 80
7, 22440, Note_on_c, 14, 59, 95
7, 22500, Note_off_c, 14, 59, 80
7, 22560, Note_on_c, 14, 59, 95
7, 22620, Note_off_c, 14, 59, 80
7, 22680, Note_on_c, 14, 59, 95
7, 22740, Note_off_c, 14, 59, 80
7, 22800, Note_on_c, 14, 59, 95
7, 22860, Note_off_c, 14, 59, 80
7, 22920, Note_on_c, 14, 59, 95
7, 22980, Note_off_c, 14, 59, 80
7, 23040, Note_on_c, 14, 59, 95
7, 23100, Note_off_c, 14, 59, 80
7, 23160, Note_on_c, 14, 59, 95
7, 23220, Note_off_c, 14, 59, 80
7, 23280, Note_on_c, 14, 59, 95
7, 23340, Note_off_c, 14, 59, 80
7, 23400, Note_on_c, 14, 59, 95
7, 23460, Note_off_c, 14, 59, 80
7, 23520, Note_on_c, 14, 59, 95
7, 23580, Note_off_c, 14, 59, 80
7, 23640, Note_on_c, 14, 59, 95
7, 23700, Note_off_c, 14, 59, 80
7, 23760, Note_on_c, 14, 59, 95
7, 23820, Note_off_c, 14, 59, 80
7, 23880, Note_on_c, 14, 59, 95
7, 23940, Note_off_c, 14, 59, 80
7, 24000, Note_on_c, 14, 59, 95
7, 24060, Note_off_c, 14, 59, 80
7, 24120, Note_on_c, 14, 59, 95
7, 24180, Note_off_c, 14, 59, 80
7, 24240, Note_on_c, 14, 59, 95
7, 24300, Note_off_c, 14, 59, 80
7, 24360, Note_on_c, 14, 59, 95
7, 24420, Note_off_c, 14, 59, 80
7, 24480, Note_on_c, 14, 59, 95
7, 24540, Note_off_c, 14, 59, 80
7, 24600, Note_on_c, 14, 59, 95
7, 24660, Note_off_c, 14, 59, 80
7, 24720, Note_on_c, 14, 59, 95
7, 24780, Note_off_c, 14, 59, 80
7, 24840, Note_on_c, 14, 59, 95
7, 24900, Note_off_c, 14, 59, 80
7, 24960, Note_on_c, 14, 59, 95
7, 25020, Note_off_c, 14, 59, 80
7, 25080, Note_on_c, 14, 59, 95
7, 25140, Note_off_c, 14, 59, 80
7, 25200, Note_on_c, 14, 59, 95
7, 25260, Note_off_c, 14, 59, 80
7, 25320, Note_on_c, 14, 59, 95
7, 25380, Note_off_c, 14, 59, 80
7, 25440, Note_on_c, 14, 59, 95
7, 25500, Note_off_c, 14, 59, 80
7, 25560, Note_on_c, 14, 59, 95
7, 25620, Note_off_c, 14, 59, 80
7, 25680, Note_on_c, 14, 59, 95
7, 25740, Note_off_c, 14, 59, 80
7, 25800, Note_on_c, 14, 59, 95
7, 25860, Note_off_c, 14, 59, 80
7, 25920, Note_on_c, 14, 59, 95
7, 25980, Note_off_c, 14, 59, 80
7, 26040, Note_on_c, 14, 59, 95
7, 26100, Note_off_c, 14, 59, 80
7, 26160, Note_on_c, 14, 59, 95
7, 26220, Note_off_c, 14, 59, 80
7, 26280, Note_on_c, 14, 59, 95
7, 26340, Note_off_c, 14, 59, 80
7, 26400, Note_on_c, 14, 59, 95
7, 26460, Note_off_c, 14, 59, 80
7, 26520, Note_on_c, 14, 59, 95
7, 26580, Note_off_c, 14, 59, 80
7, 26640, Note_on_c, 14, 59, 95
7, 26700, Note_off_c, 14, 59, 80
7, 26760, Note_on_c, 14, 59, 95
7, 26820, Note_off_c, 14, 59, 80
7, 26880, Note_on_c, 14, 59, 95
7, 26940, Note_off_c, 14, 59, 80
7, 27000, Note_on_c, 14, 59, 95
7, 27060, Note_off_c, 14, 59, 80
7, 27120, Note_on_c, 14, 59, 95
7, 27180, Note_off_c, 14, 59, 80
7, 27240, Note_on_c, 14, 59, 95
7, 27300, Note_off_c, 14, 59, 80
7, 27360, Note_on_c, 14, 59, 95
7, 27420, Note_off_c, 14, 59, 80
7, 27480, Note_on_c, 14, 59, 95
7, 27540, Note_off_c, 14, 59, 80
7, 27600, Note_on_c, 14, 59, 95
7, 27660, Note_off_c, 14, 59, 80
7, 27720, Note_on_c, 14, 59, 95
7, 27780, Note_off_c, 14, 59, 80
7, 27840, Note_on_c, 14, 59, 95
7, 27900, Note_off_c, 14, 59, 80
7, 27960, Note_on_c, 14, 59, 95
7, 28020, Note_off_c, 14, 59, 80
7, 28080, Note_on_c, 14, 59, 95
7, 28140, Note_off_c, 14, 59, 80
7, 28200, Note_on_c, 14, 59, 95
7, 28260, Note_off_c, 14, 59, 80
7, 28320, Note_on_c, 14, 59, 95
7, 28380, Note_off_c, 14, 59, 80
7, 28440, Note_on_c, 14, 59, 95
7, 28500, Note_off_c, 14, 59, 80
7, 28560, Note_on_c, 14, 59, 95
7, 28620, Note_off_c, 14, 59, 80
7, 28680, Note_on_c, 14, 59, 95
7, 28740, Note_off_c, 14, 59, 80
7, 28800, Note_on_c, 14, 59, 95
7, 28860, Note_off_c, 14, 59, 80
7, 28920, Note_on_c, 14, 59, 95
7, 28980, Note_off_c, 14, 59, 80
7, 29040, Note_on_c, 14, 59, 95
7, 29100, Note_off_c, 14, 59, 80
7, 29160, Note_on_c, 14, 59, 95
7, 29220, Note_off_c, 14, 59, 80
7, 29280, Note_on_c, 14, 59, 95
7, 29340, Note_off_c, 14, 59, 80
7, 29400, Note_on_c, 14, 59, 95
7, 29460, Note_off_c, 14, 59, 80
7, 29520, Note_on_c, 14, 59, 95
7, 29580, Note_off_c, 14, 59, 80
7, 29640, Note_on_c, 14, 59, 95
7, 29700, Note_off_c, 14, 59, 80
7, 29760, Note_on_c, 14, 59, 95
7, 29820, Note_off_c, 14, 59, 80
7, 29880, Note_on_c, 14, 59, 95
7, 29940, Note_off_c, 14, 59, 80
7, 30000, Note_on_c, 14, 59, 95
7, 30060, Note_off_c, 14, 59, 80
7, 30120, Note_on_c, 14, 59, 95
7, 30180, Note_off_c, 14, 59, 80
7, 30240, Note_on_c, 14, 59, 95
7, 30300, Note_off_c, 14, 59, 80
7, 30360, Note_on_c, 14, 59, 95
7, 30420, Note_off_c, 14, 59, 80
7, 30480, Note_on_c, 14, 59, 95
7, 30540, Note_off_c, 14, 59, 80
7, 30600, Note_on_c, 14, 59, 95
7, 30660, Note_off_c, 14, 59, 80
7, 30720, Note_on_c, 14, 59, 95
7, 30780, Note_off_c, 14, 59, 80
7, 30840, Note_on_c, 14, 59, 95
7, 30900, Note_off_c, 14, 59, 80
7, 30960, Note_on_c, 14, 59, 95
7, 31020, Note_off_c, 14, 59, 80
7, 31080, Note_on_c, 14, 59, 95
7, 31140, Note_off_c, 14, 59, 80
7, 31200, Note_on_c, 14, 59, 95
7, 31260, Note_off_c, 14, 59, 80
7, 31320, Note_on_c, 14, 59, 95
7, 31380, Note_off_c, 14, 59, 80
7, 31440, Note_on_c, 14, 59, 95
7, 31500, Note_off_c, 14, 59, 80
7, 31560, Note_on_c, 14, 59, 95
7, 31620, Note_off_c, 14, 59, 80
7, 31680, Note_on_c, 14, 59, 95
7, 31740, Note_off_c, 14, 59, 80
7, 31800, Note_on_c, 14, 59, 95
7, 31860, Note_off_c, 14, 59, 80
7, 31920, Note_on_c, 14, 59, 95
7, 31980, Note_off_c, 14, 59, 80
7, 32040, Note_on_c, 14, 59, 95
7, 32100, Note_off_c, 14, 59, 80
7, 32160, Note_on_c, 14, 59, 95
7, 32220, Note_off_c, 14, 59, 80
7, 32280, Note_on_c, 14, 59, 95
7, 32340, Note_off_c, 14, 59, 80
7, 32400, Note_on_c, 14, 59, 95
7, 32460, Note_off_c, 14, 59, 80
7, 32520, Note_on_c, 14, 59, 95
7, 32580, Note_off_c, 14, 59, 80
7, 32640, Note_on_c, 14, 59, 95
7, 32700, Note_off_c, 14, 59, 80
7, 32760, Note_on_c, 14, 59, 95
7, 32820, Note_off_c, 14, 59, 80
7, 32880, Note_on_c, 14, 59, 95
7, 32940, Note_off_c, 14, 59, 80
7, 33000, Note_on_c, 14, 59, 95
7, 33060, Note_off_c, 14, 59, 80
7, 33120, Note_on_c, 14, 59, 95
7, 33180, Note_off_c, 14, 59, 80
7, 33240, Note_on_c, 14, 59, 95
7, 33300, Note_off_c, 14, 59, 80
7, 33360, Note_on_c, 14, 59, 95
7, 33420, Note_off_c, 14, 59, 80
7, 33480, Note_on_c, 14, 59, 95
7, 33540, Note_off_c, 14, 59, 80
7, 33600, Note_on_c, 14, 59, 95
7, 33660, Note_off_c, 14, 59, 80
7, 33720, Note_on_c, 14, 59, 95
7, 33780, Note_off_c, 14, 59, 80
7, 33840, Note_on_c, 14, 59, 95
7, 33900, Note_off_c, 14, 59, 80
7, 33960, Note_on_c, 14, 59, 95
7, 34020, Note_off_c, 14, 59, 80
7, 34080, Note_on_c, 14, 59, 95
7, 34140, Note_off_c, 14, 59, 80
7, 34200, Note_on_c, 14, 59, 95
7, 34260, Note_off_c, 14, 59, 80
7, 34320, Note_on_c, 14, 59, 95
7, 34380, Note_off_c, 14, 59, 80
7, 34440, Note_on_c, 14, 59, 95
7, 34500, Note_off_c, 14, 59, 80
7, 34560, Note_on_c, 14, 59, 95
7, 34620, Note_off_c, 14, 59, 80
7, 34680, Note_on_c, 14, 59, 95
7, 34740, Note_off_c, 14, 59, 80
7, 34800, Note_on_c, 14, 59, 95
7, 34860, Note_off_c, 14, 59, 80
7, 34920, Note_on_c, 14, 59, 95
7, 34980, Note_off_c, 14, 59, 80
7, 35040, Note_on_c, 14, 59, 95
7, 35100, Note_off_c, 14, 59, 80
7, 35160, Note_on_c, 14, 59, 95
7, 35220, Note_off_c, 14, 59, 80
7, 35280, Note_on_c, 14, 59, 95
7, 35340, Note_off_c, 14, 59, 80
7, 35400, Note_on_c, 14, 59, 95
7, 35460, Note_off_c, 14, 59, 80
7, 35520, Note_on_c, 14, 59, 95
7, 35580, Note_off_c, 14, 59, 80
7, 35640, Note_on_c, 14, 59, 95
7, 35700, Note_off_c, 14, 59, 80
7, 35760, Note_on_c, 14, 59, 95
7, 35820, Note_off_c, 14, 59, 80
7, 35880, Note_on_c, 14, 59, 95
7, 35940, Note_off_c, 14, 59, 80
7, 36000, Note_on_c, 14, 59, 95
7, 36060, Note_off_c, 14, 59, 80
7, 36120, Note_on_c, 14, 59, 95
7, 36180, Note_off_c, 14, 59, 80
7, 36240, Note_on_c, 14, 59, 95
7, 36300, Note_off_c, 14, 59, 80
7, 36360, Note_on_c, 14, 59, 95
7, 36420, Note_off_c, 14, 59, 80
7, 36480, Note_on_c, 14, 59, 95
7, 36540, Note_off_c, 14, 59, 80
7, 36600, Note_on_c, 14, 59, 95
7, 36660, Note_off_c, 14, 59, 80
7, 36720, Note_on_c, 14, 59, 95
7, 36780, Note_off_c, 14, 59, 80
7, 36840, Note_on_c, 14, 59, 95
7, 36900, Note_off_c, 14, 59, 80
7, 36960, Note_on_c, 14, 59, 95
7, 37020, Note_off_c, 14, 59, 80
7, 37080, Note_on_c, 14, 59, 95
7, 37140, Note_off_c, 14, 59, 80
7, 37200, Note_on_c, 14, 59, 95
7, 37260, Note_off_c, 14, 59, 80
7, 37320, Note_on_c, 14, 59, 95
7, 37380, Note_off_c, 14, 59, 80
7, 37440, Note_on_c, 14, 59, 95
7, 37500, Note_off_c, 14, 59, 80
7, 37560, Note_on_c, 14, 59, 95
7, 37620, Note_off_c, 14, 59, 80
7, 37680, Note_on_c, 14, 59, 95
7, 37740, Note_off_c, 14, 59, 80
7, 37800, Note_on_c, 14, 59, 95
7, 37860, Note_off_c, 14, 59, 80
7, 37920, Note_on_c, 14, 59, 95
7, 37980, Note_off_c, 14, 59, 80
7, 38040, Note_on_c, 14, 59, 95
7, 38100, Note_off_c, 14, 59, 80
7, 38160, Note_on_c, 14, 59, 95
7, 38220, Note_off_c, 14, 59, 80
7, 38280, Note_on_c, 14, 59, 95
7, 38340, Note_off_c, 14, 59, 80
7, 38400, Note_on_c, 14, 59, 95
7, 38460, Note_off_c, 14, 59, 80
7, 38520, Note_on_c, 14, 59, 95
7, 38580, Note_off_c, 14, 59, 80
7, 38640, Note_on_c, 14, 59, 95
7, 38700, Note_off_c, 14, 59, 80
7, 38760, Note_on_c, 14, 59, 95
7, 38820, Note_off_c, 14, 59, 80
7, 38880, Note_on_c, 14, 59, 95
7, 38940, Note_off_c, 14, 59, 80
7, 39000, Note_on_c, 14, 59, 95
7, 39060, Note_off_c, 14, 59, 80
7, 39120, Note_on_c, 14, 59, 95
7, 39180, Note_off_c, 14, 59, 80
7, 39240, Note_on_c, 14, 59, 95
7, 39300, Note_off_c, 14, 59, 80
7, 39360, Note_on_c, 14, 59, 95
7, 39420, Note_off_c, 14, 59, 80
7, 39480, Note_on_c, 14, 59, 95
7, 39540, Note_off_c, 14, 59, 80
7, 39600, Note_on_c, 14, 59, 95
7, 39660, Note_off_c, 14, 59, 80
7, 39720, Note_on_c, 14, 59, 95
7, 39780, Note_off_c, 14, 59, 80
7, 39840, Note_on_c, 14, 59, 95
7, 39900, Note_off_c, 14, 59, 80
7, 39960, Note_on_c, 14, 59, 95
7, 40020, Note_off_c, 14, 59, 80
7, 40080, Note_on_c, 14, 59, 95
7, 40140, Note_off_c, 14, 59, 80
7, 40200, Note_on_c, 14, 59, 95
7, 40260, Note_off_c, 14, 59, 80
7, 40320, Note_on_c, 14, 59, 95
7, 40380, Note_off_c, 14, 59, 80
7, 40440, Note_on_c, 14, 59, 95
7, 40500, Note_off_c, 14, 59, 80
7, 40560, Note_on_c, 14, 59, 95
7, 40620, Note_off_c, 14, 59, 80
7, 40680, Note_on_c, 14, 59, 95
7, 40740, Note_off_c, 14, 59, 80
7, 40800, Note_on_c, 14, 59, 95
7, 40860, Note_off_c, 14, 59, 80
7, 40920, Note_on_c, 14, 59, 95
7, 40980, Note_off_c, 14, 59, 80
7, 41040, Note_on_c, 14, 59, 95
7, 41100, Note_off_c, 14, 59, 80
7, 41160, Note_on_c, 14, 59, 95
7, 41220, Note_off_c, 14, 59, 80
7, 41280, Note_on_c, 14, 59, 95
7, 41340, Note_off_c, 14, 59, 80
7, 41400, Note_on_c, 14, 59, 95
7, 41460, Note_off_c, 14, 59, 80
7, 41520, Note_on_c, 14, 59, 95
7, 41580, Note_off_c, 14, 59, 80
7, 41640, Note_on_c, 14, 59, 95
7, 41700, Note_off_c, 14, 59, 80
7, 41760, Note_on_c, 14, 59, 95
7, 41820, Note_off_c, 14, 59, 80
7, 41880, Note_on_c, 14, 59, 95
7, 41940, Note_off_c, 14, 59, 80
7, 42000, Note_on_c, 14, 59, 95
7, 42060, Note_off_c, 14, 59, 80
7, 42120, Note_on_c, 14, 59, 95
7, 42180, Note_off_c, 14, 59, 80
7, 42240, Note_on_c, 14, 59, 95
7, 42300, Note_off_c, 14, 59, 80
7, 42360, Note_on_c, 14, 59, 95
7, 42420, Note_off_c, 14, 59, 80
7, 42480, Note_on_c, 14, 59, 95
7, 42540, Note_off_c, 14, 59, 80
7, 42600, Note_on_c, 14, 59, 95
7, 42660, Note_off_c, 14, 59, 80
7, 42720, Note_on_c, 14, 59, 95
7, 42780, Note_off_c, 14, 59, 80
7, 42840, Note_on_c, 14, 59, 95
7, 42900, Note_off_c, 14, 59, 80
7, 42960, Note_on_c, 14, 59, 95
7, 43020, Note_off_c, 14, 59, 80
7, 43080, Note_on_c, 14, 59, 95
7, 43140, Note_off_c, 14, 59, 80
7, 43200, Note_on_c, 14, 59, 95
7, 43260, Note_off_c, 14, 59, 80
7, 43320, Note_on_c, 14, 59, 95
7, 43380, Note_off_c, 14, 59, 80
7, 43440, Note_on_c, 14, 59, 95
7, 43500, Note_off_c, 14, 59, 80
7, 43560, Note_on_c, 14, 59, 95
7, 43620, Note_off_c, 14, 59, 80
7, 43680, Note_on_c, 14, 59, 95
7, 43740, Note_off_c, 14, 59, 80
7, 43800, Note_on_c, 14, 59, 95
7, 43860, Note_off_c, 14, 59, 80
7, 43920, Note_on_c, 14, 59, 95
7, 43980, Note_off_c, 14, 59, 80
7, 44040, Note_on_c, 14, 59, 95
7, 44100, Note_off_c, 14, 59, 80
7, 44160, Note_on_c, 14, 59, 95
7, 44220, Note_off_c, 14, 59, 80
7, 44280, Note_on_c, 14, 59, 95
7, 44340, Note_off_c, 14, 59, 80
7, 44400, Note_on_c, 14, 59, 95
7, 44460, Note_off_c, 14, 59, 80
7, 44520, Note_on_c, 14, 59, 95
7, 44580, Note_off_c, 14, 59, 80
7, 44640, Note_on_c, 14, 59, 95
7, 44700, Note_off_c, 14, 59, 80
7, 44760, Note_on_c, 14, 59, 95
7, 44820, Note_off_c, 14, 59, 80
7, 44880, Note_on_c, 14, 59, 95
7, 44940, Note_off_c, 14, 59, 80
7, 45000, Note_on_c, 14, 59, 95
7, 45060, Note_off_c, 14, 59, 80
7, 45120, Note_on_c, 14, 59, 95
7, 45180, Note_off_c, 14, 59, 80
7, 45240, Note_on_c, 14, 59, 95
7, 45300, Note_off_c, 14, 59, 80
7, 45360, Note_on_c, 14, 59, 95
7, 45420, Note_off_c, 14, 59, 80
7, 45480, Note_on_c, 14, 59, 95
7, 45540, Note_off_c, 14, 59, 80
7, 45600, Note_on_c, 14, 59, 95
7, 45660, Note_off_c, 14, 59, 80
7, 45720, Note_on_c, 14, 59, 95
7, 45780, Note_off_c, 14, 59, 80
7, 45840, Note_on_c, 14, 59, 95
7, 45900, Note_off_c, 14, 59, 80
7, 45960, Note_on_c, 14, 59, 95
7, 46020, Note_off_c, 14, 59, 80
7, 46080, Note_on_c, 14, 59, 95
7, 46140, Note_off_c, 14, 59, 80
7, 46200, Note_on_c, 14, 59, 95
7, 46260, Note_off_c, 14, 59, 80
7, 46320, Note_on_c, 14, 59, 95
7, 46380, Note_off_c, 14, 59, 80
7, 46440, Note_on_c, 14, 59, 95
7, 46500, Note_off_c, 14, 59, 80
7, 46560, Note_on_c, 14, 59, 95
7, 46620, Note_off_c, 14, 59, 80
7, 46680, Note_on_c, 14, 59, 95
7, 46740, Note_off_c, 14, 59, 80
7, 46800, Note_on_c, 14, 59, 95
7, 46860, Note_off_c, 14, 59, 80
7, 46920, Note_on_c, 14, 59, 95
7, 46980, Note_off_c, 14, 59, 80
7, 47040, Note_on_c, 14, 59, 95
7, 47100, Note_off_c, 14, 59, 80
7, 47160, Note_on_c, 14, 59, 95
7, 47220, Note_off_c, 14, 59, 80
7, 47280, Note_on_c, 14, 59, 95
7, 47340, Note_off_c, 14, 59, 80
7, 47400, Note_on_c, 14, 59, 95
7, 47460, Note_off_c, 14, 59, 80
7, 47520, Note_on_c, 14, 59, 95
7, 47580, Note_off_c, 14, 59, 80
7, 47640, Note_on_c, 14, 59, 95
7, 47700, Note_off_c, 14, 59, 80
7, 47760, Note_on_c, 14, 59, 95
7, 47820, Note_off_c, 14, 59, 80
7, 47880, Note_on_c, 14, 59, 95
7, 47940, Note_off_c, 14, 59, 80
7, 48000, Note_on_c, 14, 59, 95
7, 48060, Note_off_c, 14, 59, 80
7, 48120, Note_on_c, 14, 59, 95
7, 48180, Note_off_c, 14, 59, 80
7, 48240, Note_on_c, 14, 59, 95
7, 48300, Note_off_c, 14, 59, 80
7, 48360, Note_on_c, 14, 59, 95
7, 48420, Note_off_c, 14, 59, 80
7, 48480, Note_on_c, 14, 59, 95
7, 48540, Note_off_c, 14, 59, 80
7, 48600, Note_on_c, 14, 59, 95
7, 48660, Note_off_c, 14, 59, 80
7, 48720, Note_on_c, 14, 59, 95
7, 48780, Note_off_c, 14, 59, 80
7, 48840, Note_on_c, 14, 59, 95
7, 48900, Note_off_c, 14, 59, 80
7, 48960, Note_on_c, 14, 59, 95
7, 49020, Note_off_c, 14, 59, 80
7, 49080, Note_on_c, 14, 59, 95
7, 49140, Note_off_c, 14, 59, 80
7, 49200, Note_on_c, 14, 59, 95
7, 49260, Note_off_c, 14, 59, 80
7, 49320, Note_on_c, 14, 59, 95
7, 49380, Note_off_c, 14, 59, 80
7, 49440, Note_on_c, 14, 59, 95
7, 49500, Note_off_c, 14, 59, 80
7, 49560, Note_on_c, 14, 59, 95
7, 49620, Note_off_c, 14, 59, 80
7, 49680, Note_on_c, 14, 59, 95
7, 49740, Note_off_c, 14, 59, 80
7, 49800, Note_on_c, 14, 59, 95
7, 49860, Note_off_c, 14, 59, 80
7, 49920, Note_on_c, 14, 59, 95
7, 49980, Note_off_c, 14, 59, 80
7, 50040, Note_on_c, 14, 59, 95
7, 50100, Note_off_c, 14, 59, 80
7, 50160, Note_on_c, 14, 59, 95
7, 50220, Note_off_c, 14, 59, 80
7, 50280, Note_on_c, 14, 59, 95
7, 50340, Note_off_c, 14, 59, 80
7, 50400, Note_on_c, 14, 59, 95
7, 50460, Note_off_c, 14, 59, 80
7, 50520, Note_on_c, 14, 59, 95
7, 50580, Note_off_c, 14, 59, 80
7, 50640, Note_on_c, 14, 59, 95
7, 50700, Note_off_c, 14, 59, 80
7, 50760, Note_on_c, 14, 59, 95
7, 50820, Note_off_c, 14, 59, 80
7, 50880, Note_on_c, 14, 59, 95
7, 50940, Note_off_c, 14, 59, 80
7, 51000, Note_on_c, 14, 59, 95
7, 51060, Note_off_c, 14, 59, 80
7, 51120, Note_on_c, 14, 59, 95
7, 51180, Note_off_c, 14, 59, 80
7, 51240, Note_on_c, 14, 59, 95
7, 51300, Note_off_c, 14, 59, 80
7, 51360, Note_on_c, 14, 59, 95
7, 51420, Note_off_c, 14, 59, 80
7, 51480, Note_on_c, 14, 59, 95
7, 51540, Note_off_c, 14, 59, 80
7, 51600, Note_on_c, 14, 59, 95
7, 51660, Note_off_c, 14, 59, 80
7, 51720, Note_on_c, 14, 59, 95
7, 51780, Note_off_c, 14, 59, 80
7, 51840, Note_on_c, 14, 59, 95
7, 51900, Note_off_c, 14, 59, 80
7, 51960, Note_on_c, 14, 59, 95
7, 52020, Note_off_c, 14, 59, 80
7, 52080, Note_on_c, 14, 59, 95
7, 52140, Note_off_c, 14, 59, 80
7, 52200, Note_on_c, 14, 59, 95
7, 52260, Note_off_c, 14, 59, 80
7, 52320, Note_on_c, 14, 59, 95
7, 52380, Note_off_c, 14, 59, 80
7, 52440, Note_on_c, 14, 59, 95
7, 52500, Note_off_c, 14, 59, 80
7, 52560, Note_on_c, 14, 59, 95
7, 52620, Note_off_c, 14, 59, 80
7, 52680, Note_on_c, 14, 59, 95
7, 52740, Note_off_c, 14, 59, 80
7, 52800, Note_on_c, 14, 59, 95
7, 52860, Note_off_c, 14, 59, 80
7, 52920, Note_on_c, 14, 59, 95
7, 52980, Note_off_c, 14, 59, 80
7, 53040, Note_on_c, 14, 59, 95
7, 53100, Note_off_c, 14, 59, 80
7, 53160, Note_on_c, 14, 59, 95
7, 53220, Note_off_c, 14, 59, 80
7, 53280, Note_on_c, 14, 59, 95
7, 53340, Note_off_c, 14, 59, 80
7, 53400, Note_on_c, 14, 59, 95
7, 53460, Note_off_c, 14, 59, 80
7, 53520, Note_on_c, 14, 59, 95
7, 53580, Note_off_c, 14, 59, 80
7, 53640, Note_on_c, 14, 59, 95
7, 53700, Note_off_c, 14, 59, 80
7, 53760, Note_on_c, 14, 59, 95
7, 53820, Note_off_c, 14, 59, 80
7, 53880, Note_on_c, 14, 59, 95
7, 53940, Note_off_c, 14, 59, 80
7, 54000, Note_on_c, 14, 59, 95
7, 54060, Note_off_c, 14, 59, 80
7, 54120, Note_on_c, 14, 59, 95
7, 54180, Note_off_c, 14, 59, 80
7, 54240, Note_on_c, 14, 59, 95
7, 54300, Note_off_c, 14, 59, 80
7, 54360, Note_on_c, 14, 59, 95
7, 54420, Note_off_c, 14, 59, 80
7, 54480, Note_on_c, 14, 59, 95
7, 54540, Note_off_c, 14, 59, 80
7, 54600, Note_on_c, 14, 59, 95
7, 54660, Note_off_c, 14, 59, 80
7, 54720, Note_on_c, 14, 59, 95
7, 54780, Note_off_c, 14, 59, 80
7, 54840, Note_on_c, 14, 59, 95
7, 54900, Note_off_c, 14, 59, 80
7, 54960, Note_on_c, 14, 59, 95
7, 55020, Note_off_c, 14, 59, 80
7, 55080, Note_on_c, 14, 59, 95
7, 55140, Note_off_c, 14, 59, 80
7, 55200, Note_on_c, 14, 59, 95
7, 55260, Note_off_c, 14, 59, 80
7, 55320, Note_on_c, 14, 59, 95
7, 55380, Note_off_c, 14, 59, 80
7, 55440, Note_on_c, 14, 59, 95
7, 55500, Note_off_c, 14, 59, 80
7, 55560, Note_on_c, 14, 59, 95
7, 55620, Note_off_c, 14, 59, 80
7, 55680, Note_on_c, 14, 59, 95
7, 55740, Note_off_c, 14, 59, 80
7, 55800, Note_on_c, 14, 59, 95
7, 55860, Note_off_c, 14, 59, 80
7, 55920, Note_on_c, 14, 59, 95
7, 55980, Note_off_c, 14, 59, 80
7, 56040, Note_on_c, 14, 59, 95
7, 56100, Note_off_c, 14, 59, 80
7, 56160, Note_on_c, 14, 59, 95
7, 56220, Note_off_c, 14, 59, 80
7, 56280, Note_on_c, 14, 59, 95
7, 56340, Note_off_c, 14, 59, 80
7, 56400, Note_on_c, 14, 59, 95
7, 56460, Note_off_c, 14, 59, 80
7, 56520, Note_on_c, 14, 59, 95
7, 56580, Note_off_c, 14, 59, 80
7, 56640, Note_on_c, 14, 59, 95
7, 56700, Note_off_c, 14, 59, 80
7, 56760, Note_on_c, 14, 59, 95
7, 56820, Note_off_c, 14, 59, 80
7, 56880, Note_on_c, 14, 59, 95
7, 56940, Note_off_c, 14, 59, 80
7, 57000, Note_on_c, 14, 59, 95
7, 57060, Note_off_c, 14, 59, 80
7, 57120, Note_on_c, 14, 59, 95
7, 57180, Note_off_c, 14, 59, 80
7, 57240, Note_on_c, 14, 59, 95
7, 57300, Note_off_c, 14, 59, 80
7, 57360, Note_on_c, 14, 59, 95
7, 57420, Note_off_c, 14, 59, 80
7, 57480, Note_on_c, 14, 59, 95
7, 57540, Note_off_c, 14, 59, 80
7, 57600, Note_on_c, 14, 59, 95
7, 57660, Note_off_c, 14, 59, 80
7, 57720, Note_on_c, 14, 59, 95
7, 57780, Note_off_c, 14, 59, 80
7, 57840, Note_on_c, 14, 59, 95
7, 57900, Note_off_c, 14, 59, 80
7, 57960, Note_on_c, 14, 59, 95
7, 58020, Note_off_c, 14, 59, 80
7, 58080, Note_on_c, 14, 59, 95
7, 58140, Note_off_c, 14, 59, 80
7, 58200, Note_on_c, 14, 59, 95
7, 58260, Note_off_c, 14, 59, 80
7, 58320, Note_on_c, 14, 59, 95
7, 58380, Note_off_c, 14, 59, 80
7, 58440, Note_on_c, 14, 59, 95
7, 58500, Note_off_c, 14, 59, 80
7, 58560, Note_on_c, 14, 59, 95
7, 58620, Note_off_c, 14, 59, 80
7, 58680, Note_on_c, 14, 59, 95
7, 58740, Note_off_c, 14, 59, 80
7, 58800, Note_on_c, 14, 59, 95
7, 58860, Note_off_c, 14, 59, 80
7, 58920, Note_on_c, 14, 59, 95
7, 58980, Note_off_c, 14, 59, 80
7, 59040, Note_on_c, 14, 59, 95
7, 59100, Note_off_c, 14, 59, 80
7, 59160, Note_on_c, 14, 59, 95
7, 59220, Note_off_c, 14, 59, 80
7, 59280, Note_on_c, 14, 59, 95
7, 59340, Note_off_c, 14, 59, 80
7, 59400, Note_on_c, 14, 59, 95
7, 59460, Note_off_c, 14, 59, 80
7, 59520, Note_on_c, 14, 59, 95
7, 59580, Note_off_c, 14, 59, 80
7, 59640, Note_on_c, 14, 59, 95
7, 59700, Note_off_c, 14, 59, 80
7, 59760, Note_on_c, 14, 59, 95
7, 59820, Note_off_c, 14, 59, 80
7, 59880, Note_on_c, 14, 59, 95
7, 59940, Note_off_c, 14, 59, 80
7, 60000, Note_on_c, 14, 59, 95
7, 60060, Note_off_c, 14, 59, 80
7, 60120, Note_on_c, 14, 59, 95
7, 60180, Note_off_c, 14, 59, 80
7, 60240, Note_on_c, 14, 59, 95
7, 60300, Note_off_c, 14, 59, 80
7, 60360, Note_on_c, 14, 59, 95
7, 60420, Note_off_c, 14, 59, 80
7, 60480, Note_on_c, 14, 59, 95
7, 60540, Note_off_c, 14, 59, 80
7, 60600, Note_on_c, 14, 59, 95
7, 60660, Note_off_c, 14, 59, 80
7, 60720, Note_on_c, 14, 59, 95
7, 60780, Note_off_c, 14, 59, 80
7, 60840, Note_on_c, 14, 59, 95
7, 60900, Note_off_c, 14, 59, 80
7, 60960, Note_on_c, 14, 59, 95
7, 61020, Note_off_c, 14, 59, 80
7, 61080, Note_on_c, 14, 59, 95
7, 61140, Note_off_c, 14, 59, 80
7, 61200, Note_on_c, 14, 59, 95
7, 61260, Note_off_c, 14, 59, 80
7, 61320, Note_on_c, 14, 59, 95
7, 61380, Note_off_c, 14, 59, 80
7, 61440, Note_on_c, 14, 59, 95
7, 61500, Note_off_c, 14, 59, 80
7, 61560, Note_on_c, 14, 59, 95
7, 61620, Note_off_c, 14, 59, 80
7, 61680, Note_on_c, 14, 59, 95
7, 61740, Note_off_c, 14, 59, 80
7, 61800, Note_on_c, 14, 59, 95
7, 61860, Note_off_c, 14, 59, 80
7, 61920, Note_on_c, 14, 59, 95
7, 61980, Note_off_c, 14, 59, 80
7, 62040, Note_on_c, 14, 59, 95
7, 62100, Note_off_c, 14, 59, 80
7, 62160, Note_on_c, 14, 59, 95
7, 62220, Note_off_c, 14, 59, 80
7, 62280, Note_on_c, 14, 59, 95
7, 62340, Note_off_c, 14, 59, 80
7, 62400, Note_on_c, 14, 59, 95
7, 62460, Note_off_c, 14, 59, 80
7, 62520, Note_on_c, 14, 59, 95
7, 62580, Note_off_c, 14, 59, 80
7, 62640, Note_on_c, 14, 59, 95
7, 62700, Note_off_c, 14, 59, 80
7, 62760, Note_on_c, 14, 59, 95
7, 62820, Note_off_c, 14, 59, 80
7, 62880, Note_on_c, 14, 59, 95
7, 62940, Note_off_c, 14, 59, 80
7, 63000, Note_on_c, 14, 59, 95
7, 63060, Note_off_c, 14, 59, 80
7, 63120, Note_on_c, 14, 59, 95
7, 63180, Note_off_c, 14, 59, 80
7, 63240, Note_on_c, 14, 59, 95
7, 63300, Note_off_c, 14, 59, 80
7, 63360, Note_on_c, 14, 59, 95
7, 63420, Note_off_c, 14, 59, 80
7, 63480, Note_on_c, 14, 59, 95
7, 63540, Note_off_c, 14, 59, 80
7, 63600, Note_on_c, 14, 59, 95
7, 63660, Note_off_c, 14, 59, 80
7, 63720, Note_on_c, 14, 59, 95
7, 63780, Note_off_c, 14, 59, 80
7, 63840, Note_on_c, 14, 59, 95
7, 63900, Note_off_c, 14, 59, 80
7, 63960, Note_on_c, 14, 59, 95
7, 64020, Note_off_c, 14, 59, 80
7, 64080, Note_on_c, 14, 59, 95
7, 64140, Note_off_c, 14, 59, 80
7, 64200, Note_on_c, 14, 59, 95
7, 64260, Note_off_c, 14, 59, 80
7, 64320, Note_on_c, 14, 59, 95
7, 64380, Note_off_c, 14, 59, 80
7, 64440, Note_on_c, 14, 59, 95
7, 64500, Note_off_c, 14, 59, 80
7, 64560, Note_on_c, 14, 59, 95
7, 64620, Note_off_c, 14, 59, 80
7, 64680, Note_on_c, 14, 59, 95
7, 64740, Note_off_c, 14, 59, 80
7, 64800, Note_on_c, 14, 59, 95
7, 64860, Note_off_c, 14, 59, 80
7, 64920, Note_on_c, 14, 59, 95
7, 64980, Note_off_c, 14, 59, 80
7, 65040, Note_on_c, 14, 59, 95
7, 65100, Note_off_c, 14, 59, 80
7, 65160, Note_on_c, 14, 59, 95
7, 65220, Note_off_c, 14, 59, 80
7, 65280, Note_on_c, 14, 59, 95
7, 65340, Note_off_c, 14, 59, 80
7, 65400, Note_on_c, 14, 59, 95
7, 65460, Note_off_c, 14, 59, 80
7, 65520, Note_on_c, 14, 59, 95
7, 65580, Note_off_c, 14, 59, 80
7, 65640, Note_on_c, 14, 59, 95
7, 65700, Note_off_c, 14, 59, 80
7, 65760, Note_on_c, 14, 59, 95
7, 65820, Note_off_c, 14, 59, 80
7, 65880, Note_on_c, 14, 59, 95
7, 65940, Note_off_c, 14, 59, 80
7, 66000, Note_on_c, 14, 59, 95
7, 66060, Note_off_c, 14, 59, 80
7, 66120, Note_on_c, 14, 59, 95
7, 66180, Note_off_c, 14, 59, 80
7, 66240, Note_on_c, 14, 59, 95
7, 66300, Note_off_c, 14, 59, 80
7, 66360, Note_on_c, 14, 59, 95
7, 66420, Note_off_c, 14, 59, 80
7, 66480, Note_on_c, 14, 59, 95
7, 66540, Note_off_c, 14, 59, 80
7, 66600, Note_on_c, 14, 59, 95
7, 66660, Note_off_c, 14, 59, 80
7, 66720, Note_on_c, 14, 59, 95
7, 66780, Note_off_c, 14, 59, 80
7, 66840, Note_on_c, 14, 59, 95
7, 66900, Note_off_c, 14, 59, 80
7, 66960, Note_on_c, 14, 59, 95
7, 67020, Note_off_c, 14, 59, 80
7, 67080, Note_on_c, 14, 59, 95
7, 67140, Note_off_c, 14, 59, 80
7, 67200, Note_on_c, 14, 59, 95
7, 67260, Note_off_c, 14, 59, 80
7, 67320, Note_on_c, 14, 59, 95
7, 67380, Note_off_c, 14, 59, 80
7, 67440, Note_on_c, 14, 59, 95
7, 67500, Note_off_c, 14, 59, 80
7, 67560, Note_on_c, 14, 59, 95
7, 67620, Note_off_c, 14, 59, 80
7, 67680, Note_on_c, 14, 59, 95
7, 67740, Note_off_c, 14, 59, 80
7, 67800, Note_on_c, 14, 59, 95
7, 67860, Note_off_c, 14, 59, 80
7, 67920, Note_on_c, 14, 59, 95
7, 67980, Note_off_c, 14, 59, 80
7, 68040, Note_on_c, 14, 59, 95
7, 68100, Note_off_c, 14, 59, 80
7, 68160, Note_on_c, 14, 59, 95
7, 68220, Note_off_c, 14, 59, 80
7, 68280, Note_on_c, 14, 59, 95
7, 68340, Note_off_c, 14, 59, 80
7, 68400, Note_on_c, 14, 59, 95
7, 68460, Note_off_c, 14, 59, 80
7, 68520, Note_on_c, 14, 59, 95
7, 68580, Note_off_c, 14, 59, 80
7, 68640, Note_on_c, 14, 59, 95
7, 68700, Note_off_c, 14, 59, 80
7, 68760, Note_on_c, 14, 59, 95
7, 68820, Note_off_c, 14, 59, 80
7, 68880, Note_on_c, 14, 59, 95
7, 68940, Note_off_c, 14, 59, 80
7, 69000, Note_on_c, 14, 59, 95
7, 69060, Note_off_c, 14, 59, 80
7, 69120, Note_on_c, 14, 59, 95
7, 69180, Note_off_c, 14, 59, 80
7, 69240, Note_on_c, 14, 59, 95
7, 69300, Note_off_c, 14, 59, 80
7, 69360, Note_on_c, 14, 59, 95
7, 69420, Note_off_c, 14, 59, 80
7, 69480, Note_on_c, 14, 59, 95
7, 69540, Note_off_c, 14, 59, 80
7, 69600, Note_on_c, 14, 59, 95
7, 69660, Note_off_c, 14, 59, 80
7, 69720, Note_on_c, 14, 59, 95
7, 69780, Note_off_c, 14, 59, 80
7, 69840, Note_on_c, 14, 59, 95
7, 69900, Note_off_c, 14, 59, 80
7, 69960, Note_on_c, 14, 59, 95
7, 70020, Note_off_c, 14, 59, 80
7, 70080, Note_on_c, 14, 59, 95
7, 70140, Note_off_c, 14, 59, 80
7, 70200, Note_on_c, 14, 59, 95
7, 70260, Note_off_c, 14, 59, 80
7, 70320, Note_on_c, 14, 59, 95
7, 70380, Note_off_c, 14, 59, 80
7, 70440, Note_on_c, 14, 59, 95
7, 70500, Note_off_c, 14, 59, 80
7, 70560, Note_on_c, 14, 59, 95
7, 70620, Note_off_c, 14, 59, 80
7, 70680, Note_on_c, 14, 59, 95
7, 70740, Note_off_c, 14, 59, 80
7, 70800, Note_on_c, 14, 59, 95
7, 70860, Note_off_c, 14, 59, 80
7, 70920, Note_on_c, 14, 59, 95
7, 70980, Note_off_c, 14, 59, 80
7, 71040, Note_on_c, 14, 59, 95
7, 71100, Note_off_c, 14, 59, 80
7, 71160, Note_on_c, 14, 59, 95
7, 71220, Note_off_c, 14, 59, 80
7, 71280, Note_on_c, 14, 59, 95
7, 71340, Note_off_c, 14, 59, 80
7, 71400, Note_on_c, 14, 59, 95
7, 71460, Note_off_c, 14, 59, 80
7, 71520, Note_on_c, 14, 59, 95
7, 71580, Note_off_c, 14, 59, 80
7, 71640, Note_on_c, 14, 59, 95
7, 71700, Note_off_c, 14, 59, 80
7, 71760, Note_on_c, 14, 59, 95
7, 71820, Note_off_c, 14, 59, 80
7, 71880, Note_on_c, 14, 59, 95
7, 71940, Note_off_c, 14, 59, 80
7, 72000, Note_on_c, 14, 59, 95
7, 72060, Note_off_c, 14, 59, 80
7, 72120, Note_on_c, 14, 59, 95
7, 72180, Note_off_c, 14, 59, 80
7, 72240, Note_on_c, 14, 59, 95
7, 72300, Note_off_c, 14, 59, 80
7, 72360, Note_on_c, 14, 59, 95
7, 72420, Note_off_c, 14, 59, 80
7, 72480, Note_on_c, 14, 59, 95
7, 72540, Note_off_c, 14, 59, 80
7, 72600, Note_on_c, 14, 59, 95
7, 72660, Note_off_c, 14, 59, 80
7, 72720, Note_on_c, 14, 59, 95
7, 72780, Note_off_c, 14, 59, 80
7, 72840, Note_on_c, 14, 59, 95
7, 72900, Note_off_c, 14, 59, 80
7, 72960, Note_on_c, 14, 59, 95
7, 73020, Note_off_c, 14, 59, 80
7, 73080, Note_on_c, 14, 59, 95
7, 73140, Note_off_c, 14, 59, 80
7, 73200, Note_on_c, 14, 59, 95
7, 73260, Note_off_c, 14, 59, 80
7, 73320, Note_on_c, 14, 59, 95
7, 73380, Note_off_c, 14, 59, 80
7, 73440, Note_on_c, 14, 59, 95
7, 73500, Note_off_c, 14, 59, 80
7, 73560, Note_on_c, 14, 59, 95
7, 73620, Note_off_c, 14, 59, 80
7, 73680, Note_on_c, 14, 59, 95
7, 73740, Note_off_c, 14, 59, 80
7, 73800, Note_on_c, 14, 59, 95
7, 73860, Note_off_c, 14, 59, 80
7, 73920, Note_on_c, 14, 59, 95
7, 73980, Note_off_c, 14, 59, 80
7, 74040, Note_on_c, 14, 59, 95
7, 74100, Note_off_c, 14, 59, 80
7, 74160, Note_on_c, 14, 59, 95
7, 74220, Note_off_c, 14, 59, 80
7, 74280, Note_on_c, 14, 59, 95
7, 74340, Note_off_c, 14, 59, 80
7, 74400, Note_on_c, 14, 59, 95
7, 74460, Note_off_c, 14, 59, 80
7, 74520, Note_on_c, 14, 59, 95
7, 74580, Note_off_c, 14, 59, 80
7, 74640, Note_on_c, 14, 59, 95
7, 74700, Note_off_c, 14, 59, 80
7, 74760, Note_on_c, 14, 59, 95
7, 74820, Note_off_c, 14, 59, 80
7, 74880, Note_on_c, 14, 59, 95
7, 74940, Note_off_c, 14, 59, 80
7, 75000, Note_on_c, 14, 59, 95
7, 75060, Note_off_c, 14, 59, 80
7, 75120, Note_on_c, 14, 59, 95
7, 75180, Note_off_c, 14, 59, 80
7, 75240, Note_on_c, 14, 59, 95
7, 75300, Note_off_c, 14, 59, 80
7, 75360, Note_on_c, 14, 59, 95
7, 75420, Note_off_c, 14, 59, 80
7, 75480, Note_on_c, 14, 59, 95
7, 75540, Note_off_c, 14, 59, 80
7, 75600, Note_on_c, 14, 59, 95
7, 75660, Note_off_c, 14, 59, 80
7, 75720, Note_on_c, 14, 59, 95
7, 75780, Note_off_c, 14, 59, 80
7, 75840, Note_on_c, 14, 59, 95
7, 75900, Note_off_c, 14, 59, 80
7, 75960, Note_on_c, 14, 59, 95
7, 76020, Note_off_c, 14, 59, 80
7, 76080, Note_on_c, 14, 59, 95
7, 76140, Note_off_c, 14, 59, 80
7, 76200, Note_on_c, 14, 59, 95
7, 76260, Note_off_c, 14, 59, 80
7, 76320, Note_on_c, 14, 59, 95
7, 76380, Note_off_c, 14, 59, 80
7, 76440, Note_on_c, 14, 59, 95
7, 76500, Note_off_c, 14, 59, 80
7, 76560, Note_on_c, 14, 59, 95
7, 76620, Note_off_c, 14, 59, 80
7, 76680, Note_on_c, 14, 59, 95
7, 76740, Note_off_c, 14, 59, 80
7, 76800, Note_on_c, 14, 59, 95
7, 76860, Note_off_c, 14, 59, 80
7, 76920, Note_on_c, 14, 59, 95
7, 76980, Note_off_c, 14, 59, 80
7, 77040, Note_on_c, 14, 59, 95
7, 77100, Note_off_c, 14, 59, 80
7, 77160, Note_on_c, 14, 59, 95
7, 77220, Note_off_c, 14, 59, 80
7, 77280, Note_on_c, 14, 59, 95
7, 77340, Note_off_c, 14, 59, 80
7, 77400, Note_on_c, 14, 59, 95
7, 77460, Note_off_c, 14, 59, 80
7, 77520, Note_on_c, 14, 59, 95
7, 77580, Note_off_c, 14, 59, 80
7, 77640, Note_on_c, 14, 59, 95
7, 77700, Note_off_c, 14, 59, 80
7, 77760, Note_on_c, 14, 59, 95
7, 77820, Note_off_c, 14, 59, 80
7, 77880, Note_on_c, 14, 59, 95
7, 77940, Note_off_c, 14, 59, 80
7, 78000, Note_on_c, 14, 59, 95
7, 78060, Note_off_c, 14, 59, 80
7, 78120, Note_on_c, 14, 59, 95
7, 78180, Note_off_c, 14, 59, 80
7, 78240, Note_on_c, 14, 59, 95
7, 78300, Note_off_c, 14, 59, 80
7, 78360, Note_on_c, 14, 59, 95
7, 78420, Note_off_c, 14, 59, 80
7, 78480, Note_on_c, 14, 59, 95
7, 78540, Note_off_c, 14, 59, 80
7, 78600, Note_on_c, 14, 59, 95
7, 78660, Note_off_c, 14, 59, 80
7, 78720, Note_on_c, 14, 59, 95
7, 78780, Note_off_c, 14, 59, 80
7, 78840, Note_on_c, 14, 59, 95
7, 78900, Note_off_c, 14, 59, 80
7, 78960, Note_on_c, 14, 59, 95
7, 79020, Note_off_c, 14, 59, 80
7, 79080, Note_on_c, 14, 59, 95
7, 79140, Note_off_c, 14, 59, 80
7, 79200, Note_on_c, 14, 59, 95
7, 79260, Note_off_c, 14, 59, 80
7, 79320, Note_on_c, 14, 59, 95
7, 79380, Note_off_c, 14, 59, 80
7, 79440, Note_on_c, 14, 59, 95
7, 79500, Note_off_c, 14, 59, 80
7, 79560, Note_on_c, 14, 59, 95
7, 79620, Note_off_c, 14, 59, 80
7, 79680, Note_on_c, 14, 59, 95
7, 79740, Note_off_c, 14, 59, 80
7, 79800, Note_on_c, 14, 59, 95
7, 79860, Note_off_c, 14, 59, 80
7, 79920, Note_on_c, 14, 59, 95
7, 79980, Note_off_c, 14, 59, 80
7, 80040, Note_on_c, 14, 59, 95
7, 80100, Note_off_c, 14, 59, 80
7, 80160, Note_on_c, 14, 59, 95
7, 80220, Note_off_c, 14, 59, 80
7, 80280, Note_on_c, 14, 59, 95
7, 80340, Note_off_c, 14, 59, 80
7, 80400, Note_on_c, 14, 59, 95
7, 80460, Note_off_c, 14, 59, 80
7, 80520, Note_on_c, 14, 59, 95
7, 80580, Note_off_c, 14, 59, 80
7, 80640, Note_on_c, 14, 59, 95
7, 80700, Note_off_c, 14, 59, 80
7, 80760, Note_on_c, 14, 59, 95
7, 80820, Note_off_c, 14, 59, 80
7, 80880, Note_on_c, 14, 59, 95
7, 80940, Note_off_c, 14, 59, 80
7, 81000, Note_on_c, 14, 59, 95
7, 81060, Note_off_c, 14, 59, 80
7, 81120, Note_on_c, 14, 59, 95
7, 81180, Note_off_c, 14, 59, 80
7, 81240, Note_on_c, 14, 59, 95
7, 81300, Note_off_c, 14, 59, 80
7, 81360, Note_on_c, 14, 59, 95
7, 81420, Note_off_c, 14, 59, 80
7, 81480, Note_on_c, 14, 59, 95
7, 81540, Note_off_c, 14, 59, 80
7, 81600, Note_on_c, 14, 59, 95
7, 81660, Note_off_c, 14, 59, 80
7, 81720, Note_on_c, 14, 59, 95
7, 81780, Note_off_c, 14, 59, 80
7, 81840, Note_on_c, 14, 59, 95
7, 81900, Note_off_c, 14, 59, 80
7, 81960, Note_on_c, 14, 59, 95
7, 82020, Note_off_c, 14, 59, 80
7, 82080, Note_on_c, 14, 59, 95
7, 82140, Note_off_c, 14, 59, 80
7, 82200, Note_on_c, 14, 59, 95
7, 82260, Note_off_c, 14, 59, 80
7, 82320, Note_on_c, 14, 59, 95
7, 82380, Note_off_c, 14, 59, 80
7, 82440, Note_on_c, 14, 59, 95
7, 82500, Note_off_c, 14, 59, 80
7, 82560, Note_on_c, 14, 59, 95
7, 82620, Note_off_c, 14, 59, 80
7, 82680, Note_on_c, 14, 59, 95
7, 82740, Note_off_c, 14, 59, 80
7, 82800, Note_on_c, 14, 59, 95
7, 82860, Note_off_c, 14, 59, 80
7, 82920, Note_on_c, 14, 59, 95
7, 82980, Note_off_c, 14, 59, 80
7, 83040, Note_on_c, 14, 59, 95
7, 83100, Note_off_c, 14, 59, 80
7, 83160, Note_on_c, 14, 59, 95
7, 83220, Note_off_c, 14, 59, 80
7, 83280, Note_on_c, 14, 59, 95
7, 83340, Note_off_c, 14, 59, 80
7, 83400, Note_on_c, 14, 59, 95
7, 83460, Note_off_c, 14, 59, 80
7, 83520, Note_on_c, 14, 59, 95
7, 83580, Note_off_c, 14, 59, 80
7, 83640, Note_on_c, 14, 59, 95
7, 83700, Note_off_c, 14, 59, 80
7, 83760, Note_on_c, 14, 59, 95
7, 83820, Note_off_c, 14, 59, 80
7, 83880, Note_on_c, 14, 59, 95
7, 83940, Note_off_c, 14, 59, 80
7, 84000, Note_on_c, 14, 59, 95
7, 84060, Note_off_c, 14, 59, 80
7, 84120, Note_on_c, 14, 59, 95
7, 84180, Note_off_c, 14, 59, 80
7, 84240, Note_on_c, 14, 59, 95
7, 84300, Note_off_c, 14, 59, 80
7, 84360, Note_on_c, 14, 59, 95
7, 84420, Note_off_c, 14, 59, 80
7, 84480, Note_on_c, 14, 59, 95
7, 84540, Note_off_c, 14, 59, 80
7, 84600, Note_on_c, 14, 59, 95
7, 84660, Note_off_c, 14, 59, 80
7, 84720, Note_on_c, 14, 59, 95
7, 84780, Note_off_c, 14, 59, 80
7, 84840, Note_on_c, 14, 59, 95
7, 84900, Note_off_c, 14, 59, 80
7, 84960, Note_on_c, 14, 59, 95
7, 85020, Note_off_c, 14, 59, 80
7, 85080, Note_on_c, 14, 59, 95
7, 85140, Note_off_c, 14, 59, 80
7, 85200, Note_on_c, 14, 59, 95
7, 85260, Note_off_c, 14, 59, 80
7, 85320, Note_on_c, 14, 59, 95
7, 85380, Note_off_c, 14, 59, 80
7, 85440, Note_on_c, 14, 59, 95
7, 85500, Note_off_c, 14, 59, 80
7, 85560, Note_on_c, 14, 59, 95
7, 85620, Note_off_c, 14, 59, 80
7, 85680, Note_on_c, 14, 59, 95
7, 85740, Note_off_c, 14, 59, 80
7, 85800, Note_on_c, 14, 59, 95
7, 85860, Note_off_c, 14, 59, 80
7, 85920, Note_on_c, 14, 59, 95
7, 85980, Note_off_c, 14, 59, 80
7, 86040, Note_on_c, 14, 59, 95
7, 86100, Note_off_c, 14, 59, 80
7, 86160, Note_on_c, 14, 59, 95
7, 86220, Note_off_c, 14, 59, 80
7, 86280, Note_on_c, 14, 59, 95
7, 86340, Note_off_c, 14, 59, 80
7, 86400, Note_on_c, 14, 59, 95
7, 86460, Note_off_c, 14, 59, 80
7, 86520, Note_on_c, 14, 59, 95
7, 86580, Note_off_c, 14, 59, 80
7, 86640, Note_on_c, 14, 59, 95
7, 86700, Note_off_c, 14, 59, 80
7, 86760, Note_on_c, 14, 59, 95
7, 86820, Note_off_c, 14, 59, 80
7, 86880, Note_on_c, 14, 59, 95
7, 86940, Note_off_c, 14, 59, 80
7, 87000, Note_on_c, 14, 59, 95
7, 87060, Note_off_c, 14, 59, 80
7, 87120, Note_on_c, 14, 59, 95
7, 87180, Note_off_c, 14, 59, 80
7, 87240, Note_on_c, 14, 59, 95
7, 87300, Note_off_c, 14, 59, 80
7, 87360, Note_on_c, 14, 59, 95
7, 87420, Note_off_c, 14, 59, 80
7, 87480, Note_on_c, 14, 59, 95
7, 87540, Note_off_c, 14, 59, 80
7, 87600, Note_on_c, 14, 59, 95
7, 87660, Note_off_c, 14, 59, 80
7, 87720, Note_on_c, 14, 59, 95
7, 87780, Note_off_c, 14, 59, 80
7, 87840, Note_on_c, 14, 59, 95
7, 87900, Note_off_c, 14, 59, 80
7, 87960, Note_on_c, 14, 59, 95
7, 88020, Note_off_c, 14, 59, 80
7, 88080, Note_on_c, 14, 59, 95
7, 88140, Note_off_c, 14, 59, 80
7, 88200, Note_on_c, 14, 59, 95
7, 88260, Note_off_c, 14, 59, 80
7, 88320, Note_on_c, 14, 59, 95
7, 88380, Note_off_c, 14, 59, 80
7, 88440, Note_on_c, 14, 59, 95
7, 88500, Note_off_c, 14, 59, 80
7, 88560, Note_on_c, 14, 59, 95
7, 88620, Note_off_c, 14, 59, 80
7, 88680, Note_on_c, 14, 59, 95
7, 88740, Note_off_c, 14, 59, 80
7, 88800, Note_on_c, 14, 59, 95
7, 88860, Note_off_c, 14, 59, 80
7, 88920, Note_on_c, 14, 59, 95
7, 88980, Note_off_c, 14, 59, 80
7, 89040, Note_on_c, 14, 59, 95
7, 89100, Note_off_c, 14, 59, 80
7, 89160, Note_on_c, 14, 59, 95
7, 89220, Note_off_c, 14, 59, 80
7, 89280, Note_on_c, 14, 59, 95
7, 89340, Note_off_c, 14, 59, 80
7, 89400, Note_on_c, 14, 59, 95
7, 89460, Note_off_c, 14, 59, 80
7, 89520, Note_on_c, 14, 59, 95
7, 89580, Note_off_c, 14, 59, 80
7, 89640, Note_on_c, 14, 59, 95
7, 89700, Note_off_c, 14, 59, 80
7, 89760, Note_on_c, 14, 59, 95
7, 89820, Note_off_c, 14, 59, 80
7, 89880, Note_on_c, 14, 59, 95
7, 89940, Note_off_c, 14, 59, 80
7, 90000, Note_on_c, 14, 59, 95
7, 90060, Note_off_c, 14, 59, 80
7, 90120, Note_on_c, 14, 59, 95
7, 90180, Note_off_c, 14, 59, 80
7, 90240, Note_on_c, 14, 59, 95
7, 90300, Note_off_c, 14, 59, 80
7, 90360, Note_on_c, 14, 59, 95
7, 90420, Note_off_c, 14, 59, 80
7, 90480, Note_on_c, 14, 59, 95
7, 90540, Note_off_c, 14, 59, 80
7, 90600, Note_on_c, 14, 59, 95
7, 90660, Note_off_c, 14, 59, 80
7, 90720, Note_on_c, 14, 59, 95
7, 90780, Note_off_c, 14, 59, 80
7, 90840, Note_on_c, 14, 59, 95
7, 90900, Note_off_c, 14, 59, 80
7, 90960, Note_on_c, 14, 59, 95
7, 91020, Note_off_c, 14, 59, 80
7, 91080, Note_on_c, 14, 59, 95
7, 91140, Note_off_c, 14, 59, 80
7, 91200, Note_on_c, 14, 59, 95
7, 91260, Note_off_c, 14, 59, 80
7, 91320, Note_on_c, 14, 59, 95
7, 91380, Note_off_c, 14, 59, 80
7, 91440, Note_on_c, 14, 59, 95
7, 91500, Note_off_c, 14, 59, 80
7, 91560, Note_on_c, 14, 59, 95
7, 91620, Note_off_c, 14, 59, 80
7, 91680, Note_on_c, 14, 59, 95
7, 91740, Note_off_c, 14, 59, 80
7, 91800, Note_on_c, 14, 59, 95
7, 91860, Note_off_c, 14, 59, 80
7, 91920, Note_on_c, 14, 59, 95
7, 91980, Note_off_c, 14, 59, 80
7, 92040, Note_on_c, 14, 59, 95
7, 92100, Note_off_c, 14, 59, 80
7, 92160, Note_on_c, 14, 59, 95
7, 92220, Note_off_c, 14, 59, 80
7, 92280, Note_on_c, 14, 59, 95
7, 92340, Note_off_c, 14, 59, 80
7, 92400, Note_on_c, 14, 59, 95
7, 92460, Note_off_c, 14, 59, 80
7, 92520, Note_on_c, 14, 59, 95
7, 92580, Note_off_c, 14, 59, 80
7, 92640, Note_on_c, 14, 59, 95
7, 92700, Note_off_c, 14, 59, 80
7, 92760, Note_on_c, 14, 59, 95
7, 92820, Note_off_c, 14, 59, 80
7, 92880, Note_on_c, 14, 59, 95
7, 92940, Note_off_c, 14, 59, 80
7, 93000, Note_on_c, 14, 59, 95
7, 93060, Note_off_c, 14, 59, 80
7, 93120, Note_on_c, 14, 59, 95
7, 93180, Note_off_c, 14, 59, 80
7, 93240, Note_on_c, 14, 59, 95
7, 93300, Note_off_c, 14, 59, 80
7, 93360, Note_on_c, 14, 59, 95
7, 93420, Note_off_c, 14, 59, 80
7, 93480, Note_on_c, 14, 59, 95
7, 93540, Note_off_c, 14, 59, 80
7, 93600, Note_on_c, 14, 59, 95
7, 93660, Note_off_c, 14, 59, 80
7, 93720, Note_on_c, 14, 59, 95
7, 93780, Note_off_c, 14, 59, 80
7, 93840, Note_on_c, 14, 59, 95
7, 93900, Note_off_c, 14, 59, 80
7, 93960, Note_on_c, 14, 59, 95
7, 94020, Note_off_c, 14, 59, 80
7, 94080, Note_on_c, 14, 59, 95
7, 94140, Note_off_c, 14, 59, 80
7, 94200, Note_on_c, 14, 59, 95
7, 94260, Note_off_c, 14, 59, 80
7, 94320, Note_on_c, 14, 59, 95
7, 94380, Note_off_c, 14, 59, 80
7, 94440, Note_on_c, 14, 59, 95
7, 94500, Note_off_c, 14, 59, 80
7, 94560, Note_on_c, 14, 59, 95
7, 94620, Note_off_c, 14, 59, 80
7, 94680, Note_on_c, 14, 59, 95
7, 94740, Note_off_c, 14, 59, 80
7, 94800, Note_on_c, 14, 59, 95
7, 94860, Note_off_c, 14, 59, 80
7, 94920, Note_on_c, 14, 59, 95
7, 94980, Note_off_c, 14, 59, 80
7, 95040, Note_on_c, 14, 59, 95
7, 95100, Note_off_c, 14, 59, 80
7, 95160, Note_on_c, 14, 59, 95
7, 95220, Note_off_c, 14, 59, 80
7, 95280, Note_on_c, 14, 59, 95
7, 95340, Note_off_c, 14, 59, 80
7, 95400, Note_on_c, 14, 59, 95
7, 95460, Note_off_c, 14, 59, 80
7, 95520, Note_on_c, 14, 59, 95
7, 95580, Note_off_c, 14, 59, 80
7, 95640, Note_on_c, 14, 59, 95
7, 95700, Note_off_c, 14, 59, 80
7, 95760, Note_on_c, 14, 59, 95
7, 95820, Note_off_c, 14, 59, 80
7, 95880, Note_on_c, 14, 59, 95
7, 95940, Note_off_c, 14, 59, 80
7, 96000, Note_on_c, 14, 59, 95
7, 96060, Note_off_c, 14, 59, 80
7, 96120, Note_on_c, 14, 59, 95
7, 96180, Note_off_c, 14, 59, 80
7, 96240, Note_on_c, 14, 59, 95
7, 96300, Note_off_c, 14, 59, 80
7, 96360, Note_on_c, 14, 59, 95
7, 96420, Note_off_c, 14, 59, 80
7, 96480, Note_on_c, 14, 59, 95
7, 96540, Note_off_c, 14, 59, 80
7, 96600, Note_on_c, 14, 59, 95
7, 96660, Note_off_c, 14, 59, 80
7, 96720, Note_on_c, 14, 59, 95
7, 96780, Note_off_c, 14, 59, 80
7, 96840, Note_on_c, 14, 59, 95
7, 96900, Note_off_c, 14, 59, 80
7, 96960, Note_on_c, 14, 59, 95
7, 97020, Note_off_c, 14, 59, 80
7, 97080, Note_on_c, 14, 59, 95
7, 97140, Note_off_c, 14, 59, 80
7, 97200, Note_on_c, 14, 59, 95
7, 97260, Note_off_c, 14, 59, 80
7, 97320, Note_on_c, 14, 59, 95
7, 97380, Note_off_c, 14, 59, 80
7, 97440, Note_on_c, 14, 59, 95
7, 97500, Note_off_c, 14, 59, 80
7, 97560, Note_on_c, 14, 59, 95
7, 97620, Note_off_c, 14, 59, 80
7, 97680, Note_on_c, 14, 59, 95
7, 97740, Note_off_c, 14, 59, 80
7, 97800, Note_on_c, 14, 59, 95
7, 97860, Note_off_c, 14, 59, 80
7, 97920, Note_on_c, 14, 59, 95
7, 97980, Note_off_c, 14, 59, 80
7, 98040, Note_on_c, 14, 59, 95
7, 98100, Note_off_c, 14, 59, 80
7, 98160, Note_on_c, 14, 59, 95
7, 98220, Note_off_c, 14, 59, 80
7, 98280, Note_on_c, 14, 59, 95
7, 98340, Note_off_c, 14, 59, 80
7, 98400, Note_on_c, 14, 59, 95
7, 98460, Note_off_c, 14, 59, 80
7, 98520, Note_on_c, 14, 59, 95
7, 98580, Note_off_c, 14, 59, 80
7, 98640, Note_on_c, 14, 59, 95
7, 98700, Note_off_c, 14, 59, 80
7, 98760, Note_on_c, 14, 59, 95
7, 98820, Note_off_c, 14, 59, 80
7, 98880, Note_on_c, 14, 59, 95
7, 98940, Note_off_c, 14, 59, 80
7, 99000, Note_on_c, 14, 59, 95
7, 99060, Note_off_c, 14, 59, 80
7, 99120, Note_on_c, 14, 59, 95
7, 99180, Note_off_c, 14, 59, 80
7, 99240, Note_on_c, 14, 59, 95
7, 99300, Note_off_c, 14, 59, 80
7, 99360, Note_on_c, 14, 59, 95
7, 99420, Note_off_c, 14, 59, 80
7, 99480, Note_on_c, 14, 59, 95
7, 99540, Note_off_c, 14, 59, 80
7, 99600, Note_on_c, 14, 59, 95
7, 99660, Note_off_c, 14, 59, 80
7, 99720, Note_on_c, 14, 59, 95
7, 99780, Note_off_c, 14, 59, 80
7, 99840, Note_on_c, 14, 59, 95
7, 99900, Note_off_c, 14, 59, 80
7, 99960, Note_on_c, 14, 59, 95
7, 100020, Note_off_c, 14, 59, 80
7, 100080, Note_on_c, 14, 59, 95
7, 100140, Note_off_c, 14, 59, 80
7, 100200, Note_on_c, 14, 59, 95
7, 100260, Note_off_c, 14, 59, 80
7, 100320, Note_on_c, 14, 59, 95
7, 100380, Note_off_c, 14, 59, 80
7, 100440, Note_on_c, 14, 59, 95
7, 100500, Note_off_c, 14, 59, 80
7, 100560, Note_on_c, 14, 59, 95
7, 100620, Note_off_c, 14, 59, 80
7, 100680, Note_on_c, 14, 59, 95
7, 100740, Note_off_c, 14, 59, 80
7, 100800, Note_on_c, 14, 59, 95
7, 100860, Note_off_c, 14, 59, 80
7, 100920, Note_on_c, 14, 59, 95
7, 100980, Note_off_c, 14, 59, 80
7, 101040, Note_on_c, 14, 59, 95
7, 101100, Note_off_c, 14, 59, 80
7, 101160, Note_on_c, 14, 59, 95
7, 101220, Note_off_c, 14, 59, 80
7, 101280, Note_on_c, 14, 59, 95
7, 101340, Note_off_c, 14, 59, 80
7, 101400, Note_on_c, 14, 59, 95
7, 101460, Note_off_c, 14, 59, 80
7, 101520, Note_on_c, 14, 59, 95
7, 101580, Note_off_c, 14, 59, 80
7, 101640, Note_on_c, 14, 59, 95
7, 101700, Note_off_c, 14, 59, 80
7, 101760, Note_on_c, 14, 59, 95
7, 101820, Note_off_c, 14, 59, 80
7, 101880, Note_on_c, 14, 59, 95
7, 101940, Note_off_c, 14, 59, 80
7, 102000, Note_on_c, 14, 59, 95
7, 102060, Note_off_c, 14, 59, 80
7, 102120, Note_on_c, 14, 59, 95
7, 102180, Note_off_c, 14, 59, 80
7, 102240, Note_on_c, 14, 59, 95
7, 102300, Note_off_c, 14, 59, 80
7, 102360, Note_on_c, 14, 59, 95
7, 102420, Note_off_c, 14, 59, 80
7, 102480, Note_on_c, 14, 59, 95
7, 102540, Note_off_c, 14, 59, 80
7, 102600, Note_on_c, 14, 59, 95
7, 102660, Note_off_c, 14, 59, 80
7, 102720, Note_on_c, 14, 59, 95
7, 102780, Note_off_c, 14, 59, 80
7, 102840, Note_on_c, 14, 59, 95
7, 102900, Note_off_c, 14, 59, 80
7, 102960, Note_on_c, 14, 59, 95
7, 103020, Note_off_c, 14, 59, 80
7, 103080, Note_on_c, 14, 59, 95
7, 103140, Note_off_c, 14, 59, 80
7, 103200, Note_on_c, 14, 59, 95
7, 103260, Note_off_c, 14, 59, 80
7, 103320, Note_on_c, 14, 59, 95
7, 103380, Note_off_c, 14, 59, 80
7, 103440, Note_on_c, 14, 59, 95
7, 103500, Note_off_c, 14, 59, 80
7, 103560, Note_on_c, 14, 59, 95
7, 103620, Note_off_c, 14, 59, 80
7, 103680, Note_on_c, 14, 59, 95
7, 103740, Note_off_c, 14, 59, 80
7, 103800, Note_on_c, 14, 59, 95
7, 103860, Note_off_c, 14, 59, 80
7, 103920, Note_on_c, 14, 59, 95
7, 103980, Note_off_c, 14, 59, 80
7, 104040, Note_on_c, 14, 59, 95
7, 104100, Note_off_c, 14, 59, 80
7, 104160, Note_on_c, 14, 59, 95
7, 104220, Note_off_c, 14, 59, 80
7, 104280, Note_on_c, 14, 59, 95
7, 104340, Note_off_c, 14, 59, 80
7, 104400, Note_on_c, 14, 59, 95
7, 104460, Note_off_c, 14, 59, 80
7, 104520, Note_on_c, 14, 59, 95
7, 104580, Note_off_c, 14, 59, 80
7, 104640, Note_on_c, 14, 59, 95
7, 104700, Note_off_c, 14, 59, 80
7, 104760, Note_on_c, 14, 59, 95
7, 104820, Note_off_c, 14, 59, 80
7, 104880, Note_on_c, 14, 59, 95
7, 104940, Note_off_c, 14, 59, 80
7, 105000, Note_on_c, 14, 59, 95
7, 105060, Note_off_c, 14, 59, 80
7, 105120, Note_on_c, 14, 59, 95
7, 105180, Note_off_c, 14, 59, 80
7, 105240, Note_on_c, 14, 59, 95
7, 105300, Note_off_c, 14, 59, 80
7, 105360, Note_on_c, 14, 59, 95
7, 105420, Note_off_c, 14, 59, 80
7, 105480, Note_on_c, 14, 59, 95
7, 105540, Note_off_c, 14, 59, 80
7, 105600, Note_on_c, 14, 59, 95
7, 105660, Note_off_c, 14, 59, 80
7, 105720, Note_on_c, 14, 59, 95
7, 105780, Note_off_c, 14, 59, 80
7, 105840, Note_on_c, 14, 59, 95
7, 105900, Note_off_c, 14, 59, 80
7, 105960, Note_on_c, 14, 59, 95
7, 106020, Note_off_c, 14, 59, 80
7, 106080, Note_on_c, 14, 59, 95
7, 106140, Note_off_c, 14, 59, 80
7, 106200, Note_on_c, 14, 59, 95
7, 106260, Note_off_c, 14, 59, 80
7, 106320, Note_on_c, 14, 59, 95
7, 106380, Note_off_c, 14, 59, 80
7, 106440, Note_on_c, 14, 59, 95
7, 106500, Note_off_c, 14, 59, 80
7, 106560, Note_on_c, 14, 59, 95
7, 106620, Note_off_c, 14, 59, 80
7, 106680, Note_on_c, 14, 59, 95
7, 106740, Note_off_c, 14, 59, 80
7, 106800, Note_on_c, 14, 59, 95
7, 106860, Note_off_c, 14, 59, 80
7, 106920, Note_on_c, 14, 59, 95
7, 106980, Note_off_c, 14, 59, 80
7, 107040, Note_on_c, 14, 59, 95
7, 107100, Note_off_c, 14, 59, 80
7, 107160, Note_on_c, 14, 59, 95
7, 107220, Note_off_c, 14, 59, 80
7, 107280, Note_on_c, 14, 59, 95
7, 107340, Note_off_c, 14, 59, 80
7, 107400, Note_on_c, 14, 59, 95
7, 107460, Note_off_c, 14, 59, 80
7, 107520, Note_on_c, 14, 59, 95
7, 107580, Note_off_c, 14, 59, 80
7, 107640, Note_on_c, 14, 59, 95
7, 107700, Note_off_c, 14, 59, 80
7, 107760, Note_on_c, 14, 59, 95
7, 107820, Note_off_c, 14, 59, 80
7, 107880, Note_on_c, 14, 59, 95
7, 107940, Note_off_c, 14, 59, 80
7, 108000, Note_on_c, 14, 59, 95
7, 108060, Note_off_c, 14, 59, 80
7, 108120, Note_on_c, 14, 59, 95
7, 108180, Note_off_c, 14, 59, 80
7, 108240, Note_on_c, 14, 59, 95
7, 108300, Note_off_c, 14, 59, 80
7, 108360, Note_on_c, 14, 59, 95
7, 108420, Note_off_c, 14, 59, 80
7, 108480, Note_on_c, 14, 59, 95
7, 108540, Note_off_c, 14, 59, 80
7, 108600, Note_on_c, 14, 59, 95
7, 108660, Note_off_c, 14, 59, 80
7, 108720, Note_on_c, 14, 59, 95
7, 108780, Note_off_c, 14, 59, 80
7, 108840, Note_on_c, 14, 59, 95
7, 108900, Note_off_c, 14, 59, 80
7, 108960, Note_on_c, 14, 59, 95
7, 109020, Note_off_c, 14, 59, 80
7, 109080, Note_on_c, 14, 59, 95
7, 109140, Note_off_c, 14, 59, 80
7, 109200, Note_on_c, 14, 59, 95
7, 109260, Note_off_c, 14, 59, 80
7, 109320, Note_on_c, 14, 59, 95
7, 109380, Note_off_c, 14, 59, 80
7, 109440, Note_on_c, 14, 59, 95
7, 109500, Note_off_c, 14, 59, 80
7, 109560, Note_on_c, 14, 59, 95
7, 109620, Note_off_c, 14, 59, 80
7, 109680, Note_on_c, 14, 59, 95
7, 109740, Note_off_c, 14, 59, 80
7, 109800, Note_on_c, 14, 59, 95
7, 109860, Note_off_c, 14, 59, 80
7, 109920, Note_on_c, 14, 59, 95
7, 109980, Note_off_c, 14, 59, 80
7, 110040, Note_on_c, 14, 59, 95
7, 110100, Note_off_c, 14, 59, 80
7, 110160, Note_on_c, 14, 59, 95
7, 110220, Note_off_c, 14, 59, 80
7, 110280, Note_on_c, 14, 59, 95
7, 110340, Note_off_c, 14, 59, 80
7, 110400, Note_on_c, 14, 59, 95
7, 110460, Note_off_c, 14, 59, 80
7, 110520, Note_on_c, 14, 59, 95
7, 110580, Note_off_c, 14, 59, 80
7, 110640, Note_on_c, 14, 59, 95
7, 110700, Note_off_c, 14, 59, 80
7, 110760, Note_on_c, 14, 59, 95
7, 110820, Note_off_c, 14, 59, 80
7, 110880, Note_on_c, 14, 59, 95
7, 110940, Note_off_c, 14, 59, 80
7, 111000, Note_on_c, 14, 59, 95
7, 111060, Note_off_c, 14, 59, 80
7, 111120, Note_on_c, 14, 59, 95
7, 111180, Note_off_c, 14, 59, 80
7, 111240, Note_on_c, 14, 59, 95
7, 111300, Note_off_c, 14, 59, 80
7, 111360, Note_on_c, 14, 59, 95
7, 111420, Note_off_c, 14, 59, 80
7, 111480, Note_on_c, 14, 59, 95
7, 111540, Note_off_c, 14, 59, 80
7, 111600, Note_on_c, 14, 59, 95
7, 111660, Note_off_c, 14, 59, 80
7, 111720, Note_on_c, 14, 59, 95
7, 111780, Note_off_c, 14, 59, 80
7, 111840, Note_on_c, 14, 59, 95
7, 111900, Note_off_c, 14, 59, 80
7, 111960, Note_on_c, 14, 59, 95
7, 112020, Note_off_c, 14, 59, 80
7, 112080, Note_on_c, 14, 59, 95
7, 112140, Note_off_c, 14, 59, 80
7, 112200, Note_on_c, 14, 59, 95
7, 112260, Note_off_c, 14, 59, 80
7, 112320, Note_on_c, 14, 59, 95
7, 112380, Note_off_c, 14, 59, 80
7, 112440, Note_on_c, 14, 59, 95
7, 112500, Note_off_c, 14, 59, 80
7, 112560, Note_on_c, 14, 59, 95
7, 112620, Note_off_c, 14, 59, 80
7, 112680, Note_on_c, 14, 59, 95
7, 112740, Note_off_c, 14, 59, 80
7, 112800, Note_on_c, 14, 59, 95
7, 112860, Note_off_c, 14, 59, 80
7, 112920, Note_on_c, 14, 59, 95
7, 112980, Note_off_c, 14, 59, 80
7, 113040, Note_on_c, 14, 59, 95
7, 113100, Note_off_c, 14, 59, 80
7, 113160, Note_on_c, 14, 59, 95
7, 113220, Note_off_c, 14, 59, 80
7, 113280, Note_on_c, 14, 59, 95
7, 113340, Note_off_c, 14, 59, 80
7, 113400, Note_on_c, 14, 59, 95
7, 113460, Note_off_c, 14, 59, 80
7, 113520, Note_on_c, 14, 59, 95
7, 113580, Note_off_c, 14, 59, 80
7, 113640, Note_on_c, 14, 59, 95
7, 113700, Note_off_c, 14, 59, 80
7, 113760, Note_on_c, 14, 59, 95
7, 113820, Note_off_c, 14, 59, 80
7, 113880, Note_on_c, 14, 59, 95
7, 113940, Note_off_c, 14, 59, 80
7, 114000, Note_on_c, 14, 59, 95
7, 114060, Note_off_c, 14, 59, 80
7, 114120, Note_on_c, 14, 59, 95
7, 114180, Note_off_c, 14, 59, 80
7, 114240, Note_on_c, 14, 59, 95
7, 114300, Note_off_c, 14, 59, 80
7, 114360, Note_on_c, 14, 59, 95
7, 114420, Note_off_c, 14, 59, 80
7, 114480, Note_on_c, 14, 59, 95
7, 114540, Note_off_c, 14, 59, 80
7, 114600, Note_on_c, 14, 59, 95
7, 114660, Note_off_c, 14, 59, 80
7, 114720, Note_on_c, 14, 59, 95
7, 114780, Note_off_c, 14, 59, 80
7, 114840, Note_on_c, 14, 59, 95
7, 114900, Note_off_c, 14, 59, 80
7, 114960, Note_on_c, 14, 59, 95
7, 115020, Note_off_c, 14, 59, 80
7, 115080, Note_on_c, 14, 59, 95
7, 115140, Note_off_c, 14, 59, 80
7, 115200, Note_on_c, 14, 59, 95
7, 115260, Note_off_c, 14, 59, 80
7, 115320, Note_on_c, 14, 59, 95
7, 115380, Note_off_c, 14, 59, 80
7, 115440, Note_on_c, 14, 59, 95
7, 115500, Note_off_c, 14, 59, 80
7, 115560, Note_on_c, 14, 59, 95
7, 115620, Note_off_c, 14, 59, 80
7, 115680, Note_on_c, 14, 59, 95
7, 115740, Note_off_c, 14, 59, 80
7, 115800, Note_on_c, 14, 59, 95
7, 115860, Note_off_c, 14, 59, 80
7, 115920, Note_on_c, 14, 59, 95
7, 115980, Note_off_c, 14, 59, 80
7, 116040, Note_on_c, 14, 59, 95
7, 116100, Note_off_c, 14, 59, 80
7, 116160, Note_on_c, 14, 59, 95
7, 116220, Note_off_c, 14, 59, 80
7, 116280, Note_on_c, 14, 59, 95
7, 116340, Note_off_c, 14, 59, 80
7, 116400, Note_on_c, 14, 59, 95
7, 116460, Note_off_c, 14, 59, 80
7, 116520, Note_on_c, 14, 59, 95
7, 116580, Note_off_c, 14, 59, 80
7, 116640, Note_on_c, 14, 59, 95
7, 116700, Note_off_c, 14, 59, 80
7, 116760, Note_on_c, 14, 59, 95
7, 116820, Note_off_c, 14, 59, 80
7, 116880, Note_on_c, 14, 59, 95
7, 116940, Note_off_c, 14, 59, 80
7, 117000, Note_on_c, 14, 59, 95
7, 117060, Note_off_c, 14, 59, 80
7, 117120, Note_on_c, 14, 59, 95
7, 117180, Note_off_c, 14, 59, 80
7, 117240, Note_on_c, 14, 59, 95
7, 117300, Note_off_c, 14, 59, 80
7, 117360, Note_on_c, 14, 59, 95
7, 117420, Note_off_c, 14, 59, 80
7, 117480, Note_on_c, 14, 59, 95
7, 117540, Note_off_c, 14, 59, 80
7, 117600, Note_on_c, 14, 59, 95
7, 117660, Note_off_c, 14, 59, 80
7, 117720, Note_on_c, 14, 59, 95
7, 117780, Note_off_c, 14, 59, 80
7, 117840, Note_on_c, 14, 59, 95
7, 117900, Note_off_c, 14, 59, 80
7, 117960, Note_on_c, 14, 59, 95
7, 118020, Note_off_c, 14, 59, 80
7, 118080, Note_on_c, 14, 59, 95
7, 118140, Note_off_c, 14, 59, 80
7, 118200, Note_on_c, 14, 59, 95
7, 118260, Note_off_c, 14, 59, 80
7, 118320, Note_on_c, 14, 59, 95
7, 118380, Note_off_c, 14, 59, 80
7, 118440, Note_on_c, 14, 59, 95
7, 118500, Note_off_c, 14, 59, 80
7, 118560, Note_on_c, 14, 59, 95
7, 118620, Note_off_c, 14, 59, 80
7, 118680, Note_on_c, 14, 59, 95
7, 118740, Note_off_c, 14, 59, 80
7, 118800, Note_on_c, 14, 59, 95
7, 118860, Note_off_c, 14, 59, 80
7, 118920, Note_on_c, 14, 59, 95
7, 118980, Note_off_c, 14, 59, 80
7, 119040, Note_on_c, 14, 59, 95
7, 119100, Note_off_c, 14, 59, 80
7, 119160, Note_on_c, 14, 59, 95
7, 119220, Note_off_c, 14, 59, 80
7, 119280, Note_on_c, 14, 59, 95
7, 119340, Note_off_c, 14, 59, 80
7, 119400, Note_on_c, 14, 59, 95
7, 119460, Note_off_c, 14, 59, 80
7, 119520, Note_on_c, 14, 59, 95
7, 119580, Note_off_c, 14, 59, 80
7, 119640, Note_on_c, 14, 59, 95
7, 119700, Note_off_c, 14, 59, 80
7, 119760, Note_on_c, 14, 59, 95
7, 119820, Note_off_c, 14, 59, 80
7, 119880, Note_on_c, 14, 59, 95
7, 119940, Note_off_c, 14, 59, 80
7, 120000, Note_on_c, 14, 59, 95
7, 120060, Note_off_c, 14, 59, 80
7, 120120, Note_on_c, 14, 59, 95
7, 120180, Note_off_c, 14, 59, 80
7, 120240, Note_on_c, 14, 59, 95
7, 120300, Note_off_c, 14, 59, 80
7, 120360, Note_on_c, 14, 59, 95
7, 120420, Note_off_c, 14, 59, 80
7, 120480, Note_on_c, 14, 59, 95
7, 120540, Note_off_c, 14, 59, 80
7, 120600, Note_on_c, 14, 59, 95
7, 120660, Note_off_c, 14, 59, 80
7, 120720, Note_on_c, 14, 59, 95
7, 120780, Note_off_c, 14, 59, 80
7, 120840, Note_on_c, 14, 59, 95
7, 120900, Note_off_c, 14, 59, 80
7, 120960, Note_on_c, 14, 59, 95
7, 121020, Note_off_c, 14, 59, 80
7, 121080, Note_on_c, 14, 59, 95
7, 121140, Note_off_c, 14, 59, 80
7, 121200, Note_on_c, 14, 59, 95
7, 121260, Note_off_c, 14, 59, 80
7, 121320, Note_on_c, 14, 59, 95
7, 121380, Note_off_c, 14, 59, 80
7, 121440, Note_on_c, 14, 59, 95
7, 121500, Note_off_c, 14, 59, 80
7, 121560, Note_on_c, 14, 59, 95
7, 121620, Note_off_c, 14, 59, 80
7, 121680, Note_on_c, 14, 59, 95
7, 121740, Note_off_c, 14, 59, 80
7, 121800, Note_on_c, 14, 59, 95
7, 121860, Note_off_c, 14, 59, 80
7, 121920, Note_on_c, 14, 59, 95
7, 121980, Note_off_c, 14, 59, 80
7, 122040, Note_on_c, 14, 59, 95
7, 122100, Note_off_c, 14, 59, 80
7, 122160, Note_on_c, 14, 59, 95
7, 122220, Note_off_c, 14, 59, 80
7, 122280, Note_on_c, 14, 59, 95
7, 122340, Note_off_c, 14, 59, 80
7, 122400, Note_on_c, 14, 59, 95
7, 122460, Note_off_c, 14, 59, 80
7, 122520, Note_on_c, 14, 59, 95
7, 122580, Note_off_c, 14, 59, 80
7, 122640, Note_on_c, 14, 59, 95
7, 122700, Note_off_c, 14, 59, 80
7, 122760, Note_on_c, 14, 59, 95
7, 122820, Note_off_c, 14, 59, 80
7, 122880, Note_on_c, 14, 59, 95
7, 122940, Note_off_c, 14, 59, 80
7, 123000, Note_on_c, 14, 59, 95
7, 123060, Note_off_c, 14, 59, 80
7, 123120, Note_on_c, 14, 59, 95
7, 123180, Note_off_c, 14, 59, 80
7, 123240, Note_on_c, 14, 59, 95
7, 123300, Note_off_c, 14, 59, 80
7, 123360, Note_on_c, 14, 59, 95
7, 123420, Note_off_c, 14, 59, 80
7, 123480, Note_on_c, 14, 59, 95
7, 123540, Note_off_c, 14, 59, 80
7, 123600, Note_on_c, 14, 59, 95
7, 123660, Note_off_c, 14, 59, 80
7, 123720, Note_on_c, 14, 59, 95
7, 123780, Note_off_c, 14, 59, 80
7, 123840, Note_on_c, 14, 59, 95
7, 123900, Note_off_c, 14, 59, 80
7, 123960, Note_on_c, 14, 59, 95
7, 124020, Note_off_c, 14, 59, 80
7, 124080, Note_on_c, 14, 59, 95
7, 124140, Note_off_c, 14, 59, 80
7, 124200, Note_on_c, 14, 59, 95
7, 124260, Note_off_c, 14, 59, 80
7, 124320, Note_on_c, 14, 59, 95
7, 124380, Note_off_c, 14, 59, 80
7, 124440, Note_on_c, 14, 59, 95
7, 124500, Note_off_c, 14, 59, 80
7, 124560, Note_on_c, 14, 59, 95
7, 124620, Note_off_c, 14, 59, 80
7, 124680, Note_on_c, 14, 59, 95
7, 124740, Note_off_c, 14, 59, 80
7, 124800, Note_on_c, 14, 59, 95
7, 124860, Note_off_c, 14, 59, 80
7, 124920, Note_on_c, 14, 59, 95
7, 124980, Note_off_c, 14, 59, 80
7, 125040, Note_on_c, 14, 59, 95
7, 125100, Note_off_c, 14, 59, 80
7, 125160, Note_on_c, 14, 59, 95
7, 125220, Note_off_c, 14, 59, 80
7, 125280, Note_on_c, 14, 59, 95
7, 125340, Note_off_c, 14, 59, 80
7, 125400, Note_on_c, 14, 59, 95
7, 125460, Note_off_c, 14, 59, 80
7, 125520, Note_on_c, 14, 59, 95
7, 125580, Note_off_c, 14, 59, 80
7, 125640, Note_on_c, 14, 59, 95
7, 125700, Note_off_c, 14, 59, 80
7, 125760, Note_on_c, 14, 59, 95
7, 125820, Note_off_c, 14, 59, 80
7, 125880, Note_on_c, 14, 59, 95
7, 125940, Note_off_c, 14, 59, 80
7, 126000, Note_on_c, 14, 59, 95
7, 126060, Note_off_c, 14, 59, 80
7, 126120, Note_on_c, 14, 59, 95
7, 126180, Note_off_c, 14, 59, 80
7, 126240, Note_on_c, 14, 59, 95
7, 126300, Note_off_c, 14, 59, 80
7, 126360, Note_on_c, 14, 59, 95
7, 126420, Note_off_c, 14, 59, 80
7, 126480, Note_on_c, 14, 59, 95
7, 126540, Note_off_c, 14, 59, 80
7, 126600, Note_on_c, 14, 59, 95
7, 126660, Note_off_c, 14, 59, 80
7, 126720, Note_on_c, 14, 59, 95
7, 126780, Note_off_c, 14, 59, 80
7, 126840, Note_on_c, 14, 59, 95
7, 126900, Note_off_c, 14, 59, 80
7, 126960, Note_on_c, 14, 59, 95
7, 127020, Note_off_c, 14, 59, 80
7, 127080, Note_on_c, 14, 59, 95
7, 127140, Note_off_c, 14, 59, 80
7, 127200, Note_on_c, 14, 59, 95
7, 127260, Note_off_c, 14, 59, 80
7, 127320, Note_on_c, 14, 59, 95
7, 127380, Note_off_c, 14, 59, 80
7, 127440, Note_on_c, 14, 59, 95
7, 127500, Note_off_c, 14, 59, 80
7, 127560, Note_on_c, 14, 59, 95
7, 127620, Note_off_c, 14, 59, 80
7, 127680, Note_on_c, 14, 59, 95
7, 127740, Note_off_c, 14, 59, 80
7, 127800, Note_on_c, 14, 59, 95
7, 127860, Note_off_c, 14, 59, 80
7, 127920, Note_on_c, 14, 59, 95
7, 127980, Note_off_c, 14, 59, 80
7, 128040, Note_on_c, 14, 59, 95
7, 128100, Note_off_c, 14, 59, 80
7, 128160, Note_on_c, 14, 59, 95
7, 128220, Note_off_c, 14, 59, 80
7, 128280, Note_on_c, 14, 59, 95
7, 128340, Note_off_c, 14, 59, 80
7, 128400, Note_on_c, 14, 59, 95
7, 128460, Note_off_c, 14, 59, 80
7, 128520, Note_on_c, 14, 59, 95
7, 128580, Note_off_c, 14, 59, 80
7, 128640, Note_on_c, 14, 59, 95
7, 128700, Note_off_c, 14, 59, 80
7, 128760, Note_on_c, 14, 59, 95
7, 128820, Note_off_c, 14, 59, 80
7, 128880, Note_on_c, 14, 59, 95
7, 128940, Note_off_c, 14, 59, 80
7, 129000, Note_on_c, 14, 59, 95
7, 129060, Note_off_c, 14, 59, 80
7, 129120, Note_on_c, 14, 59, 95
7, 129180, Note_off_c, 14, 59, 80
7, 129240, Note_on_c, 14, 59, 95
7, 129300, Note_off_c, 14, 59, 80
7, 129360, Note_on_c, 14, 59, 95
7, 129420, Note_off_c, 14, 59, 80
7, 129480, Note_on_c, 14, 59, 95
7, 129540, Note_off_c, 14, 59, 80
7, 129600, Note_on_c, 14, 59, 95
7, 129660, Note_off_c, 14, 59, 80
7, 129720, Note_on_c, 14, 59, 95
7, 129780, Note_off_c, 14, 59, 80
7, 129840, Note_on_c, 14, 59, 95
7, 129900, Note_off_c, 14, 59, 80
7, 129960, Note_on_c, 14, 59, 95
7, 130020, Note_off_c, 14, 59, 80
7, 130080, Note_on_c, 14, 59, 95
7, 130140, Note_off_c, 14, 59, 80
7, 130200, Note_on_c, 14, 59, 95
7, 130260, Note_off_c, 14, 59, 80
7, 130320, Note_on_c, 14, 59, 95
7, 130380, Note_off_c, 14, 59, 80
7, 130440, Note_on_c, 14, 59, 95
7, 130500, Note_off_c, 14, 59, 80
7, 130560, Note_on_c, 14, 59, 95
7, 130620, Note_off_c, 14, 59, 80
7, 130680, Note_on_c, 14, 59, 95
7, 130740, Note_off_c, 14, 59, 80
7, 130800, Note_on_c, 14, 59, 95
7, 130860, Note_off_c, 14, 59, 80
7, 130920, Note_on_c, 14, 59, 95
7, 130980, Note_off_c, 14, 59, 80
7, 131040, Note_on_c, 14, 59, 95
7, 131100, Note_off_c, 14, 59, 80
7, 131160, Note_on_c, 14, 59, 95
7, 131220, Note_off_c, 14, 59, 80
7, 131280, Note_on_c, 14, 59, 95
7, 131340, Note_off_c, 14, 59, 80
7, 131400, Note_on_c, 14, 59, 95
7, 131460, Note_off_c, 14, 59, 80
7, 131520, Note_on_c, 14, 59, 95
7, 131580, Note_off_c, 14, 59, 80
7, 131640, Note_on_c, 14, 59, 95
7, 131700, Note_off_c, 14, 59, 80
7, 131760, Note_on_c, 14, 59, 95
7, 131820, Note_off_c, 14, 59, 80
7, 131880, Note_on_c, 14, 59, 95
7, 131940, Note_off_c, 14, 59, 80
7, 132000, Note_on_c, 14, 59, 95
7, 132060, Note_off_c, 14, 59, 80
7, 132120, Note_on_c, 14, 59, 95
7, 132180, Note_off_c, 14, 59, 80
7, 132240, Note_on_c, 14, 59, 95
7, 132300, Note_off_c, 14, 59, 80
7, 132360, Note_on_c, 14, 59, 95
7, 132420, Note_off_c, 14, 59, 80
7, 132480, Note_on_c, 14, 59, 95
7, 132540, Note_off_c, 14, 59, 80
7, 132600, Note_on_c, 14, 59, 95
7, 132660, Note_off_c, 14, 59, 80
7, 132720, Note_on_c, 14, 59, 95
7, 132780, Note_off_c, 14, 59, 80
7, 132840, Note_on_c, 14, 59, 95
7, 132900, Note_off_c, 14, 59, 80
7, 132960, Note_on_c, 14, 59, 95
7, 133020, Note_off_c, 14, 59, 80
7, 133080, Note_on_c, 14, 59, 95
7, 133140, Note_off_c, 14, 59, 80
7, 133200, Note_on_c, 14, 59, 95
7, 133260, Note_off_c, 14, 59, 80
7, 133320, Note_on_c, 14, 59, 95
7, 133380, Note_off_c, 14, 59, 80
7, 133440, Note_on_c, 14, 59, 95
7, 133500, Note_off_c, 14, 59, 80
7, 133560, Note_on_c, 14, 59, 95
7, 133620, Note_off_c, 14, 59, 80
7, 133680, Note_on_c, 14, 59, 95
7, 133740, Note_off_c, 14, 59, 80
7, 133800, Note_on_c, 14, 59, 95
7, 133860, Note_off_c, 14, 59, 80
7, 133920, Note_on_c, 14, 59, 95
7, 133980, Note_off_c, 14, 59, 80
7, 134040, Note_on_c, 14, 59, 95
7, 134100, Note_off_c, 14, 59, 80
7, 134160, Note_on_c, 14, 59, 95
7, 134220, Note_off_c, 14, 59, 80
7, 134280, Note_on_c, 14, 59, 95
7, 134340, Note_off_c, 14, 59, 80
7, 134400, Note_on_c, 14, 59, 95
7, 134460, Note_off_c, 14, 59, 80
7, 134520, Note_on_c, 14, 59, 95
7, 134580, Note_off_c, 14, 59, 80
7, 134640, Note_on_c, 14, 59, 95
7, 134700, Note_off_c, 14, 59, 80
7, 134760, Note_on_c, 14, 59, 95
7, 134820, Note_off_c, 14, 59, 80
7, 134880, Note_on_c, 14, 59, 95
7, 134940, Note_off_c, 14, 59, 80
7, 135000, Note_on_c, 14, 59, 95
7, 135060, Note_off_c, 14, 59, 80
7, 135120, Note_on_c, 14, 59, 95
7, 135180, Note_off_c, 14, 59, 80
7, 135240, Note_on_c, 14, 59, 95
7, 135300, Note_off_c, 14, 59, 80
7, 135360, Note_on_c, 14, 59, 95
7, 135420, Note_off_c, 14, 59, 80
7, 135480, Note_on_c, 14, 59, 95
7, 135540, Note_off_c, 14, 59, 80
7, 135600, Note_on_c, 14, 59, 95
7, 135660, Note_off_c, 14, 59, 80
7, 135720, Note_on_c, 14, 59, 95
7, 135780, Note_off_c, 14, 59, 80
7, 135840, Note_on_c, 14, 59, 95
7, 135900, Note_off_c, 14, 59, 80
7, 135960, Note_on_c, 14, 59, 95
7, 136020, Note_off_c, 14, 59, 80
7, 136080, Note_on_c, 14, 59, 95
7, 136140, Note_off_c, 14, 59, 80
7, 136200, Note_on_c, 14, 59, 95
7, 136260, Note_off_c, 14, 59, 80
7, 136320, Note_on_c, 14, 59, 95
7, 136380, Note_off_c, 14, 59, 80
7, 136440, Note_on_c, 14, 59, 95
7, 136500, Note_off_c, 14, 59, 80
7, 136560, Note_on_c, 14, 59, 95
7, 136620, Note_off_c, 14, 59, 80
7, 136680, Note_on_c, 14, 59, 95
7, 136740, Note_off_c, 14, 59, 80
7, 136800, Note_on_c, 14, 59, 95
7, 136860, Note_off_c, 14, 59, 80
7, 136920, Note_on_c, 14, 59, 95
7, 136980, Note_off_c, 14, 59, 80
7, 137040, Note_on_c, 14, 59, 95
7, 137100, Note_off_c, 14, 59, 80
7, 137160, Note_on_c, 14, 59, 95
7, 137220, Note_off_c, 14, 59, 80
7, 137280, Note_on_c, 14, 59, 95
7, 137340, Note_off_c, 14, 59, 80
7, 137400, Note_on_c, 14, 59, 95
7, 137460, Note_off_c, 14, 59, 80
7, 137520, Note_on_c, 14, 59, 95
7, 137580, Note_off_c, 14, 59, 80
7, 137640, Note_on_c, 14, 59, 95
7, 137700, Note_off_c, 14, 59, 80
7, 137760, Note_on_c, 14, 59, 95
7, 137820, Note_off_c, 14, 59, 80
7, 137880, Note_on_c, 14, 59, 95
7, 137940, Note_off_c, 14, 59, 80
7, 138000, Note_on_c, 14, 59, 95
7, 138060, Note_off_c, 14, 59, 80
7, 138120, Note_on_c, 14, 59, 95
7, 138180, Note_off_c, 14, 59, 80
7, 138240, Note_on_c, 14, 59, 95
7, 138300, Note_off_c, 14, 59, 80
7, 138360, Note_on_c, 14, 59, 95
7, 138420, Note_off_c, 14, 59, 80
7, 138480, Note_on_c, 14, 59, 95
7, 138540, Note_off_c, 14, 59, 80
7, 138600, Note_on_c, 14, 59, 95
7, 138660, Note_off_c, 14, 59, 80
7, 138720, Note_on_c, 14, 59, 95
7, 138780, Note_off_c, 14, 59, 80
7, 138840, Note_on_c, 14, 59, 95
7, 138900, Note_off_c, 14, 59, 80
7, 138960, Note_on_c, 14, 59, 95
7, 139020, Note_off_c, 14, 59, 80
7, 139080, Note_on_c, 14, 59, 95
7, 139140, Note_off_c, 14, 59, 80
7, 139200, Note_on_c, 14, 59, 95
7, 139260, Note_off_c, 14, 59, 80
7, 139320, Note_on_c, 14, 59, 95
7, 139380, Note_off_c, 14, 59, 80
7, 139440, Note_on_c, 14, 59, 95
7, 139500, Note_off_c, 14, 59, 80
7, 139560, Note_on_c, 14, 59, 95
7, 139620, Note_off_c, 14, 59, 80
7, 139680, Note_on_c, 14, 59, 95
7, 139740, Note_off_c, 14, 59, 80
7, 139800, Note_on_c, 14, 59, 95
7, 139860, Note_off_c, 14, 59, 80
7, 139920, Note_on_c, 14, 59, 95
7, 139980, Note_off_c, 14, 59, 80
7, 140040, Note_on_c, 14, 59, 95
7, 140100, Note_off_c, 14, 59, 80
7, 140160, Note_on_c, 14, 59, 95
7, 140220, Note_off_c, 14, 59, 80
7, 140280, Note_on_c, 14, 59, 95
7, 140340, Note_off_c, 14, 59, 80
7, 140400, Note_on_c, 14, 59, 95
7, 140460, Note_off_c, 14, 59, 80
7, 140520, Note_on_c, 14, 59, 95
7, 140580, Note_off_c, 14, 59, 80
7, 140640, Note_on_c, 14, 59, 95
7, 140700, Note_off_c, 14, 59, 80
7, 140760, Note_on_c, 14, 59, 95
7, 140820, Note_off_c, 14, 59, 80
7, 140880, Note_on_c, 14, 59, 95
7, 140940, Note_off_c, 14, 59, 80
7, 141000, Note_on_c, 14, 59, 95
7, 141060, Note_off_c, 14, 59, 80
7, 141120, Note_on_c, 14, 59, 95
7, 141180, Note_off_c, 14, 59, 80
7, 141240, Note_on_c, 14, 59, 95
7, 141300, Note_off_c, 14, 59, 80
7, 141360, Note_on_c, 14, 59, 95
7, 141420, Note_off_c, 14, 59, 80
7, 141480, Note_on_c, 14, 59, 95
7, 141540, Note_off_c, 14, 59, 80
7, 141600, Note_on_c, 14, 59, 95
7, 141660, Note_off_c, 14, 59, 80
7, 141720, Note_on_c, 14, 59, 95
7, 141780, Note_off_c, 14, 59, 80
7, 141840, Note_on_c, 14, 59, 95
7, 141900, Note_off_c, 14, 59, 80
7, 141960, Note_on_c, 14, 59, 95
7, 142020, Note_off_c, 14, 59, 80
7, 142080, Note_on_c, 14, 59, 95
7, 142140, Note_off_c, 14, 59, 80
7, 142200, Note_on_c, 14, 59, 95
7, 142260, Note_off_c, 14, 59, 80
7, 142320, Note_on_c, 14, 59, 95
7, 142380, Note_off_c, 14, 59, 80
7, 142440, Note_on_c, 14, 59, 95
7, 142500, Note_off_c, 14, 59, 80
7, 142560, Note_on_c, 14, 59, 95
7, 142620, Note_off_c, 14, 59, 80
7, 142680, Note_on_c, 14, 59, 95
7, 142740, Note_off_c, 14, 59, 80
7, 142800, Note_on_c, 14, 59, 95
7, 142860, Note_off_c, 14, 59, 80
7, 142920, Note_on_c, 14, 59, 95
7, 142980, Note_off_c, 14, 59, 80
7, 143040, Note_on_c, 14, 59, 95
7, 143100, Note_off_c, 14, 59, 80
7, 143160, Note_on_c, 14, 59, 95
7, 143220, Note_off_c, 14, 59, 80
7, 143280, Note_on_c, 14, 59, 95
7, 143340, Note_off_c, 14, 59, 80
7, 143400, Note_on_c, 14, 59, 95
7, 143460, Note_off_c, 14, 59, 80
7, 143520, Note_on_c, 14, 59, 95
7, 143580, Note_off_c, 14, 59, 80
7, 143640, Note_on_c, 14, 59, 95
7, 143700, Note_off_c, 14, 59, 80
7, 143760, Note_on_c, 14, 59, 95
7, 143820, Note_off_c, 14, 59, 80
7, 143880, Note_on_c, 14, 59, 95
7, 143940, Note_off_c, 14, 59, 80
7, 144000, Note_on_c, 14, 59, 95
7, 144060, Note_off_c, 14, 59, 80
7, 144120, Note_on_c, 14, 59, 95
7, 144180, Note_off_c, 14, 59, 80
7, 144240, Note_on_c, 14, 59, 95
7, 144300, Note_off_c, 14, 59, 80
7, 144360, Note_on_c, 14, 59, 95
7, 144420, Note_off_c, 14, 59, 80
7, 144480, Note_on_c, 14, 59, 95
7, 144540, Note_off_c, 14, 59, 80
7, 144600, Note_on_c, 14, 59, 95
7, 144660, Note_off_c, 14, 59, 80
7, 144720, Note_on_c, 14, 59, 95
7, 144780, Note_off_c, 14, 59, 80
7, 144840, Note_on_c, 14, 59, 95
7, 144900, Note_off_c, 14, 59, 80
7, 144960, Note_on_c, 14, 59, 95
7, 145020, Note_off_c, 14, 59, 80
7, 145080, Note_on_c, 14, 59, 95
7, 145140, Note_off_c, 14, 59, 80
7, 145200, Note_on_c, 14, 59, 95
7, 145260, Note_off_c, 14, 59, 80
7, 145320, Note_on_c, 14, 59, 95
7, 145380, Note_off_c, 14, 59, 80
7, 145440, Note_on_c, 14, 59, 95
7, 145500, Note_off_c, 14, 59, 80
7, 145560, Note_on_c, 14, 59, 95
7, 145620, Note_off_c, 14, 59, 80
7, 145680, Note_on_c, 14, 59, 95
7, 145740, Note_off_c, 14, 59, 80
7, 145800, Note_on_c, 14, 59, 95
7, 145860, Note_off_c, 14, 59, 80
7, 145920, Note_on_c, 14, 59, 95
7, 145980, Note_off_c, 14, 59, 80
7, 146040, Note_on_c, 14, 59, 95
7, 146100, Note_off_c, 14, 59, 80
7, 146160, Note_on_c, 14, 59, 95
7, 146220, Note_off_c, 14, 59, 80
7, 146280, Note_on_c, 14, 59, 95
7, 146340, Note_off_c, 14, 59, 80
7, 146400, Note_on_c, 14, 59, 95
7, 146460, Note_off_c, 14, 59, 80
7, 146520, Note_on_c, 14, 59, 95
7, 146580, Note_off_c, 14, 59, 80
7, 146640, Note_on_c, 14, 59, 95
7, 146700, Note_off_c, 14, 59, 80
7, 146760, Note_on_c, 14, 59, 95
7, 146820, Note_off_c, 14, 59, 80
7, 146880, Note_on_c, 14, 59, 95
7, 146940, Note_off_c, 14, 59, 80
7, 147000, Note_on_c, 14, 59, 95
7, 147060, Note_off_c, 14, 59, 80
7, 147120, Note_on_c, 14, 59, 95
7, 147180, Note_off_c, 14, 59, 80
7, 147240, Note_on_c, 14, 59, 95
7, 147300, Note_off_c, 14, 59, 80
7, 147360, Note_on_c, 14, 59, 95
7, 147420, Note_off_c, 14, 59, 80
7, 147480, Note_on_c, 14, 59, 95
7, 147540, Note_off_c, 14, 59, 80
7, 147600, Note_on_c, 14, 59, 95
7, 147660, Note_off_c, 14, 59, 80
7, 147720, Note_on_c, 14, 59, 95
7, 147780, Note_off_c, 14, 59, 80
7, 147840, Note_on_c, 14, 59, 95
7, 147900, Note_off_c, 14, 59, 80
7, 147960, Note_on_c, 14, 59, 95
7, 148020, Note_off_c, 14, 59, 80
7, 148080, Note_on_c, 14, 59, 95
7, 148140, Note_off_c, 14, 59, 80
7, 148200, Note_on_c, 14, 59, 95
7, 148260, Note_off_c, 14, 59, 80
7, 148320, Note_on_c, 14, 59, 95
7, 148380, Note_off_c, 14, 59, 80
7, 148440, Note_on_c, 14, 59, 95
7, 148500, Note_off_c, 14, 59, 80
7, 148560, Note_on_c, 14, 59, 95
7, 148620, Note_off_c, 14, 59, 80
7, 148680, Note_on_c, 14, 59, 95
7, 148740, Note_off_c, 14, 59, 80
7, 148800, Note_on_c, 14, 59, 95
7, 148860, Note_off_c, 14, 59, 80
7, 148920, Note_on_c, 14, 59, 95
7, 148980, Note_off_c, 14, 59, 80
7, 149040, Note_on_c, 14, 59, 95
7, 149100, Note_off_c, 14, 59, 80
7, 149160, Note_on_c, 14, 59, 95
7, 149220, Note_off_c, 14, 59, 80
7, 149280, Note_on_c, 14, 59, 95
7, 149340, Note_off_c, 14, 59, 80
7, 149400, Note_on_c, 14, 59, 95
7, 149460, Note_off_c, 14, 59, 80
7, 149520, Note_on_c, 14, 59, 95
7, 149580, Note_off_c, 14, 59, 80
7, 149640, Note_on_c, 14, 59, 95
7, 149700, Note_off_c, 14, 59, 80
7, 149760, Note_on_c, 14, 59, 95
7, 149820, Note_off_c, 14, 59, 80
7, 149880, Note_on_c, 14, 59, 95
7, 149940, Note_off_c, 14, 59, 80
7, 150000, Note_on_c, 14, 59, 95
7, 150060, Note_off_c, 14, 59, 80
7, 150120, Note_on_c, 14, 59, 95
7, 150180, Note_off_c, 14, 59, 80
7, 150240, Note_on_c, 14, 59, 95
7, 150300, Note_off_c, 14, 59, 80
7, 150360, Note_on_c, 14, 59, 95
7, 150420, Note_off_c, 14, 59, 80
7, 150480, Note_on_c, 14, 59, 95
7, 150540, Note_off_c, 14, 59, 80
7, 150600, Note_on_c, 14, 59, 95
7, 150660, Note_off_c, 14, 59, 80
7, 150720, Note_on_c, 14, 59, 95
7, 150780, Note_off_c, 14, 59, 80
7, 150840, Note_on_c, 14, 59, 95
7, 150900, Note_off_c, 14, 59, 80
7, 150960, Note_on_c, 14, 59, 95
7, 151020, Note_off_c, 14, 59, 80
7, 151080, Note_on_c, 14, 59, 95
7, 151140, Note_off_c, 14, 59, 80
7, 151200, Note_on_c, 14, 59, 95
7, 151260, Note_off_c, 14, 59, 80
7, 151320, Note_on_c, 14, 59, 95
7, 151380, Note_off_c, 14, 59, 80
7, 151440, Note_on_c, 14, 59, 95
7, 151500, Note_off_c, 14, 59, 80
7, 151560, Note_on_c, 14, 59, 95
7, 151620, Note_off_c, 14, 59, 80
7, 151680, Note_on_c, 14, 59, 95
7, 151740, Note_off_c, 14, 59, 80
7, 151800, Note_on_c, 14, 59, 95
7, 151860, Note_off_c, 14, 59, 80
7, 151920, Note_on_c, 14, 59, 95
7, 151980, Note_off_c, 14, 59, 80
7, 152040, Note_on_c, 14, 59, 95
7, 152100, Note_off_c, 14, 59, 80
7, 152160, Note_on_c, 14, 59, 95
7, 152220, Note_off_c, 14, 59, 80
7, 152280, Note_on_c, 14, 59, 95
7, 152340, Note_off_c, 14, 59, 80
7, 152400, Note_on_c, 14, 59, 95
7, 152460, Note_off_c, 14, 59, 80
7, 152520, Note_on_c, 14, 59, 95
7, 152580, Note_off_c, 14, 59, 80
7, 152640, Note_on_c, 14, 59, 95
7, 152700, Note_off_c, 14, 59, 80
7, 152760, Note_on_c, 14, 59, 95
7, 152820, Note_off_c, 14, 59, 80
7, 152880, Note_on_c, 14, 59, 95
7, 152940, Note_off_c, 14, 59, 80
7, 153000, Note_on_c, 14, 59, 95
7, 153060, Note_off_c, 14, 59, 80
7, 153120, Note_on_c, 14, 59, 95
7, 153180, Note_off_c, 14, 59, 80
7, 153240, Note_on_c, 14, 59, 95
7, 153300, Note_off_c, 14, 59, 80
7, 153360, Note_on_c, 14, 59, 95
7, 153420, Note_off_c, 14, 59, 80
7, 153480, Note_on_c, 14, 59, 95
7, 153540, Note_off_c, 14, 59, 80
7, 153600, Note_on_c, 14, 59, 95
7, 153660, Note_off_c, 14, 59, 80
7, 153720, Note_on_c, 14, 59, 95
7, 153780, Note_off_c, 14, 59, 80
7, 153840, Note_on_c, 14, 59, 95
7, 153900, Note_off_c, 14, 59, 80
7, 153960, Note_on_c, 14, 59, 95
7, 154020, Note_off_c, 14, 59, 80
7, 154080, Note_on_c, 14, 59, 95
7, 154140, Note_off_c, 14, 59, 80
7, 154200, Note_on_c, 14, 59, 95
7, 154260, Note_off_c, 14, 59, 80
7, 154320, Note_on_c, 14, 59, 95
7, 154380, Note_off_c, 14, 59, 80
7, 154440, Note_on_c, 14, 59, 95
7, 154500, Note_off_c, 14, 59, 80
7, 154560, Note_on_c, 14, 59, 95
7, 154620, Note_off_c, 14, 59, 80
7, 154680, Note_on_c, 14, 59, 95
7, 154740, Note_off_c, 14, 59, 80
7, 154800, Note_on_c, 14, 59, 95
7, 154860, Note_off_c, 14, 59, 80
7, 154920, Note_on_c, 14, 59, 95
7, 154980, Note_off_c, 14, 59, 80
7, 155040, Note_on_c, 14, 59, 95
7, 155100, Note_off_c, 14, 59, 80
7, 155160, Note_on_c, 14, 59, 95
7, 155220, Note_off_c, 14, 59, 80
7, 155280, Note_on_c, 14, 59, 95
7, 155340, Note_off_c, 14, 59, 80
7, 155400, Note_on_c, 14, 59, 95
7, 155460, Note_off_c, 14, 59, 80
7, 155520, Note_on_c, 14, 59, 95
7, 155580, Note_off_c, 14, 59, 80
7, 155640, Note_on_c, 14, 59, 95
7, 155700, Note_off_c, 14, 59, 80
7, 155760, Note_on_c, 14, 59, 95
7, 155820, Note_off_c, 14, 59, 80
7, 155880, Note_on_c, 14, 59, 95
7, 155940, Note_off_c, 14, 59, 80
7, 156000, Note_on_c, 14, 59, 95
7, 156060, Note_off_c, 14, 59, 80
7, 156120, Note_on_c, 14, 59, 95
7, 156180, Note_off_c, 14, 59, 80
7, 156240, Note_on_c, 14, 59, 95
7, 156300, Note_off_c, 14, 59, 80
7, 156360, Note_on_c, 14, 59, 95
7, 156420, Note_off_c, 14, 59, 80
7, 156480, Note_on_c, 14, 59, 95
7, 156540, Note_off_c, 14, 59, 80
7, 156600, Note_on_c, 14, 59, 95
7, 156660, Note_off_c, 14, 59, 80
7, 156720, Note_on_c, 14, 59, 95
7, 156780, Note_off_c, 14, 59, 80
7, 156840, Note_on_c, 14, 59, 95
7, 156900, Note_off_c, 14, 59, 80
7, 156960, Note_on_c, 14, 59, 95
7, 157020, Note_off_c, 14, 59, 80
7, 157080, Note_on_c, 14, 59, 95
7, 157140, Note_off_c, 14, 59, 80
7, 157200, Note_on_c, 14, 59, 95
7, 157260, Note_off_c, 14, 59, 80
7, 157320, Note_on_c, 14, 59, 95
7, 157380, Note_off_c, 14, 59, 80
7, 157440, Note_on_c, 14, 59, 95
7, 157500, Note_off_c, 14, 59, 80
7, 157560, Note_on_c, 14, 59, 95
7, 157620, Note_off_c, 14, 59, 80
7, 157680, Note_on_c, 14, 59, 95
7, 157740, Note_off_c, 14, 59, 80
7, 157800, Note_on_c, 14, 59, 95
7, 157860, Note_off_c, 14, 59, 80
7, 157920, Note_on_c, 14, 59, 95
7, 157980, Note_off_c, 14, 59, 80
7, 158040, Note_on_c, 14, 59, 95
7, 158100, Note_off_c, 14, 59, 80
7, 158160, Note_on_c, 14, 59, 95
7, 158220, Note_off_c, 14, 59, 80
7, 158280, Note_on_c, 14, 59, 95
7, 158340, Note_off_c, 14, 59, 80
7, 158400, Note_on_c, 14, 59, 95
7, 158460, Note_off_c, 14, 59, 80
7, 158520, Note_on_c, 14, 59, 95
7, 158580, Note_off_c, 14, 59, 80
7, 158640, Note_on_c, 14, 59, 95
7, 158700, Note_off_c, 14, 59, 80
7, 158760, Note_on_c, 14, 59, 95
7, 158820, Note_off_c, 14, 59, 80
7, 158880, Note_on_c, 14, 59, 95
7, 158940, Note_off_c, 14, 59, 80
7, 159000, Note_on_c, 14, 59, 95
7, 159060, Note_off_c, 14, 59, 80
7, 159120, Note_on_c, 14, 59, 95
7, 159180, Note_off_c, 14, 59, 80
7, 159240, Note_on_c, 14, 59, 95
7, 159300, Note_off_c, 14, 59, 80
7, 159360, Note_on_c, 14, 59, 95
7, 159420, Note_off_c, 14, 59, 80
7, 159480, Note_on_c, 14, 59, 95
7, 159540, Note_off_c, 14, 59, 80
7, 159600, Note_on_c, 14, 59, 95
7, 159660, Note_off_c, 14, 59, 80
7, 159720, Note_on_c, 14, 59, 95
7, 159780, Note_off_c, 14, 59, 80
7, 159840, Note_on_c, 14, 59, 95
7, 159900, Note_off_c, 14, 59, 80
7, 159960, Note_on_c, 14, 59, 95
7, 160020, Note_off_c, 14, 59, 80
7, 160080, Note_on_c, 14, 59, 95
7, 160140, Note_off_c, 14, 59, 80
7, 160200, Note_on_c, 14, 59, 95
7, 160260, Note_off_c, 14, 59, 80
7, 160320, Note_on_c, 14, 59, 95
7, 160380, Note_off_c, 14, 59, 80
7, 160440, Note_on_c, 14, 59, 95
7, 160500, Note_off_c, 14, 59, 80
7, 160560, Note_on_c, 14, 59, 95
7, 160620, Note_off_c, 14, 59, 80
7, 160680, Note_on_c, 14, 59, 95
7, 160740, Note_off_c, 14, 59, 80
7, 160800, Note_on_c, 14, 59, 95
7, 160860, Note_off_c, 14, 59, 80
7, 160920, Note_on_c, 14, 59, 95
7, 160980, Note_off_c, 14, 59, 80
7, 161040, Note_on_c, 14, 59, 95
7, 161100, Note_off_c, 14, 59, 80
7, 161160, Note_on_c, 14, 59, 95
7, 161220, Note_off_c, 14, 59, 80
7, 161280, Note_on_c, 14, 59, 95
7, 161340, Note_off_c, 14, 59, 80
7, 161400, Note_on_c, 14, 59, 95
7, 161460, Note_off_c, 14, 59, 80
7, 161520, Note_on_c, 14, 59, 95
7, 161580, Note_off_c, 14, 59, 80
7, 161640, Note_on_c, 14, 59, 95
7, 161700, Note_off_c, 14, 59, 80
7, 161760, Note_on_c, 14, 59, 95
7, 161820, Note_off_c, 14, 59, 80
7, 161880, Note_on_c, 14, 59, 95
7, 161940, Note_off_c, 14, 59, 80
7, 162000, Note_on_c, 14, 59, 95
7, 162060, Note_off_c, 14, 59, 80
7, 162120, Note_on_c, 14, 59, 95
7, 162180, Note_off_c, 14, 59, 80
7, 162240, Note_on_c, 14, 59, 95
7, 162300, Note_off_c, 14, 59, 80
7, 162360, Note_on_c, 14, 59, 95
7, 162420, Note_off_c, 14, 59, 80
7, 162480, Note_on_c, 14, 59, 95
7, 162540, Note_off_c, 14, 59, 80
7, 162600, Note_on_c, 14, 59, 95
7, 162660, Note_off_c, 14, 59, 80
7, 162720, Note_on_c, 14, 59, 95
7, 162780, Note_off_c, 14, 59, 80
7, 162840, Note_on_c, 14, 59, 95
7, 162900, Note_off_c, 14, 59, 80
7, 162960, Note_on_c, 14, 59, 95
7, 163020, Note_off_c, 14, 59, 80
7, 163080, Note_on_c, 14, 59, 95
7, 163140, Note_off_c, 14, 59, 80
7, 163200, Note_on_c, 14, 59, 95
7, 163260, Note_off_c, 14, 59, 80
7, 163320, Note_on_c, 14, 59, 95
7, 163380, Note_off_c, 14, 59, 80
7, 163440, Note_on_c, 14, 59, 95
7, 163500, Note_off_c, 14, 59, 80
7, 163560, Note_on_c, 14, 59, 95
7, 163620, Note_off_c, 14, 59, 80
7, 163680, Note_on_c, 14, 59, 95
7, 163740, Note_off_c, 14, 59, 80
7, 163800, Note_on_c, 14, 59, 95
7, 163860, Note_off_c, 14, 59, 80
7, 163920, Note_on_c, 14, 59, 95
7, 163980, Note_off_c, 14, 59, 80
7, 164040, Note_on_c, 14, 59, 95
7, 164100, Note_off_c, 14, 59, 80
7, 164160, Note_on_c, 14, 59, 95
7, 164220, Note_off_c, 14, 59, 80
7, 164280, Note_on_c, 14, 59, 95
7, 164340, Note_off_c, 14, 59, 80
7, 164400, Note_on_c, 14, 59, 95
7, 164460, Note_off_c, 14, 59, 80
7, 164520, Note_on_c, 14, 59, 95
7, 164580, Note_off_c, 14, 59, 80
7, 164640, Note_on_c, 14, 59, 95
7, 164700, Note_off_c, 14, 59, 80
7, 164760, Note_on_c, 14, 59, 95
7, 164820, Note_off_c, 14, 59, 80
7, 164880, Note_on_c, 14, 59, 95
7, 164940, Note_off_c, 14, 59, 80
7, 165000, Note_on_c, 14, 59, 95
7, 165060, Note_off_c, 14, 59, 80
7, 165120, Note_on_c, 14, 59, 95
7, 165180, Note_off_c, 14, 59, 80
7, 165240, Note_on_c, 14, 59, 95
7, 165300, Note_off_c, 14, 59, 80
7, 165360, Note_on_c, 14, 59, 95
7, 165420, Note_off_c, 14, 59, 80
7, 165480, Note_on_c, 14, 59, 95
7, 165540, Note_off_c, 14, 59, 80
7, 165600, Note_on_c, 14, 59, 95
7, 165660, Note_off_c, 14, 59, 80
7, 165720, Note_on_c, 14, 59, 95
7, 165780, Note_off_c, 14, 59, 80
7, 165840, Note_on_c, 14, 59, 95
7, 165900, Note_off_c, 14, 59, 80
7, 165960, Note_on_c, 14, 59, 95
7, 166020, Note_off_c, 14, 59, 80
7, 166080, Note_on_c, 14, 59, 95
7, 166140, Note_off_c, 14, 59, 80
7, 166200, Note_on_c, 14, 59, 95
7, 166260, Note_off_c, 14, 59, 80
7, 166320, Note_on_c, 14, 59, 95
7, 166380, Note_off_c, 14, 59, 80
7, 166440, Note_on_c, 14, 59, 95
7, 166500, Note_off_c, 14, 59, 80
7, 166560, Note_on_c, 14, 59, 95
7, 166620, Note_off_c, 14, 59, 80
7, 166680, Note_on_c, 14, 59, 95
7, 166740, Note_off_c, 14, 59, 80
7, 166800, Note_on_c, 14, 59, 95
7, 166860, Note_off_c, 14, 59, 80
7, 166920, Note_on_c, 14, 59, 95
7, 166980, Note_off_c, 14, 59, 80
7, 167040, Note_on_c, 14, 59, 95
7, 167100, Note_off_c, 14, 59, 80
7, 167160, Note_on_c, 14, 59, 95
7, 167220, Note_off_c, 14, 59, 80
7, 167280, Note_on_c, 14, 59, 95
7, 167340, Note_off_c, 14, 59, 80
7, 167400, Note_on_c, 14, 59, 95
7, 167460, Note_off_c, 14, 59, 80
7, 167520, Note_on_c, 14, 59, 95
7, 167580, Note_off_c, 14, 59, 80
7, 167640, Note_on_c, 14, 59, 95
7, 167700, Note_off_c, 14, 59, 80
7, 167760, Note_on_c, 14, 59, 95
7, 167820, Note_off_c, 14, 59, 80
7, 167880, Note_on_c, 14, 59, 95
7, 167940, Note_off_c, 14, 59, 80
7, 168000, Note_on_c, 14, 59, 95
7, 168060, Note_off_c, 14, 59, 80
7, 168120, Note_on_c, 14, 59, 95
7, 168180, Note_off_c, 14, 59, 80
7, 168240, Note_on_c, 14, 59, 95
7, 168300, Note_off_c, 14, 59, 80
7, 168360, Note_on_c, 14, 59, 95
7, 168420, Note_off_c, 14, 59, 80
7, 168480, Note_on_c, 14, 59, 95
7, 168540, Note_off_c, 14, 59, 80
7, 168600, Note_on_c, 14, 59, 95
7, 168660, Note_off_c, 14, 59, 80
7, 168720, Note_on_c, 14, 59, 95
7, 168780, Note_off_c, 14, 59, 80
7, 168840, Note_on_c, 14, 59, 95
7, 168900, Note_off_c, 14, 59, 80
7, 168960, Note_on_c, 14, 59, 95
7, 169020, Note_off_c, 14, 59, 80
7, 169080, Note_on_c, 14, 59, 95
7, 169140, Note_off_c, 14, 59, 80
7, 169200, Note_on_c, 14, 59, 95
7, 169260, Note_off_c, 14, 59, 80
7, 169320, Note_on_c, 14, 59, 95
7, 169380, Note_off_c, 14, 59, 80
7, 169440, Note_on_c, 14, 59, 95
7, 169500, Note_off_c, 14, 59, 80
7, 169560, Note_on_c, 14, 59, 95
7, 169620, Note_off_c, 14, 59, 80
7, 169680, Note_on_c, 14, 59, 95
7, 169740, Note_off_c, 14, 59, 80
7, 169800, Note_on_c, 14, 59, 95
7, 169860, Note_off_c, 14, 59, 80
7, 169920, Note_on_c, 14, 59, 95
7, 169980, Note_off_c, 14, 59, 80
7, 170040, Note_on_c, 14, 59, 95
7, 170100, Note_off_c, 14, 59, 80
7, 170160, Note_on_c, 14, 59, 95
7, 170220, Note_off_c, 14, 59, 80
7, 170280, Note_on_c, 14, 59, 95
7, 170340, Note_off_c, 14, 59, 80
7, 170400, Note_on_c, 14, 59, 95
7, 170460, Note_off_c, 14, 59, 80
7, 170520, Note_on_c, 14, 59, 95
7, 170580, Note_off_c, 14, 59, 80
7, 170640, Note_on_c, 14, 59, 95
7, 170700, Note_off_c, 14, 59, 80
7, 170760, Note_on_c, 14, 59, 95
7, 170820, Note_off_c, 14, 59, 80
7, 170880, Note_on_c, 14, 59, 95
7, 170940, Note_off_c, 14, 59, 80
7, 171000, Note_on_c, 14, 59, 95
7, 171060, Note_off_c, 14, 59, 80
7, 171120, Note_on_c, 14, 59, 95
7, 171180, Note_off_c, 14, 59, 80
7, 171240, Note_on_c, 14, 59, 95
7, 171300, Note_off_c, 14, 59, 80
7, 171360, Note_on_c, 14, 59, 95
7, 171420, Note_off_c, 14, 59, 80
7, 171480, Note_on_c, 14, 59, 95
7, 171540, Note_off_c, 14, 59, 80
7, 171600, Note_on_c, 14, 59, 95
7, 171660, Note_off_c, 14, 59, 80
7, 171720, Note_on_c, 14, 59, 95
7, 171780, Note_off_c, 14, 59, 80
7, 171840, Note_on_c, 14, 59, 95
7, 171900, Note_off_c, 14, 59, 80
7, 171960, Note_on_c, 14, 59, 95
7, 172020, Note_off_c, 14, 59, 80
7, 172080, Note_on_c, 14, 59, 95
7, 172140, Note_off_c, 14, 59, 80
7, 172200, Note_on_c, 14, 59, 95
7, 172260, Note_off_c, 14, 59, 80
7, 172320, Note_on_c, 14, 59, 95
7, 172380, Note_off_c, 14, 59, 80
7, 172440, Note_on_c, 14, 59, 95
7, 172500, Note_off_c, 14, 59, 80
7, 172560, Note_on_c, 14, 59, 95
7, 172620, Note_off_c, 14, 59, 80
7, 172680, Note_on_c, 14, 59, 95
7, 172740, Note_off_c, 14, 59, 80
7, 172740, End_track
8, 0, Start_track
8, 0, Title_t, "Drums"
8, 0, Control_c, 9, 100, 0
8, 0, Control_c, 9, 101, 0
8, 0, Control_c, 9, 6, 12
8, 0, Pitch_bend_c, 9, 8192
8, 0, Control_c, 9, 101, 0
8, 0, Control_c, 9, 100, 1
8, 0, Control_c, 9, 6, 64
8, 0, Control_c, 9, 38, 0
8, 0, Control_c, 9, 101, 127
8, 0, Control_c, 9, 100, 127
8, 0, Program_c, 9, 24
8, 0, Control_c, 9, 0, 0
8, 0, Control_c, 9, 7, 127
8, 0, Control_c, 9, 10, 64
8, 0, Control_c, 9, 93, 0
8, 0, Control_c, 9, 91, 0
8, 0, Control_c, 9, 92, 0
8, 0, Control_c, 9, 95, 0
8, 0, Note_on_c, 9, 46, 95
8, 120, Note_off_c, 9, 46, 80
8, 120, Note_on_c, 9, 46, 95
8, 240, Note_off_c, 9, 46, 80
8, 240, Note_on_c, 9, 46, 95
8, 360, Note_off_c, 9, 46, 80
8, 360, Note_on_c, 9, 46, 95
8, 480, Note_off_c, 9, 46, 80
8, 480, Note_on_c, 9, 46, 95
8, 600, Note_off_c, 9, 46, 80
8, 600, Note_on_c, 9, 46, 95
8, 720, Note_off_c, 9, 46, 80
8, 720, Note_on_c, 9, 46, 95
8, 960, Note_off_c, 9, 46, 80
8, 960, Note_on_c, 9, 46, 95
8, 1440, Note_off_c, 9, 46, 80
8, 1440, Note_on_c, 9, 46, 95
8, 1920, Note_off_c, 9, 46, 80
8, 1920, Note_on_c, 9, 46, 95
8, 2040, Note_off_c, 9, 46, 80
8, 2040, Note_on_c, 9, 46, 95
8, 2160, Note_off_c, 9, 46, 80
8, 2160, Note_on_c, 9, 46, 95
8, 2280, Note_off_c, 9, 46, 80
8, 2280, Note_on_c, 9, 46, 95
8, 2400, Note_off_c, 9, 46, 80
8, 2400, Note_on_c, 9, 46, 95
8, 2880, Note_off_c, 9, 46, 80
8, 2880, Note_on_c, 9, 46, 95
8, 3000, Note_off_c, 9, 46, 80
8, 3000, Note_on_c, 9, 46, 95
8, 3120, Note_off_c, 9, 46, 80
8, 3120, Note_on_c, 9, 46, 95
8, 3240, Note_off_c, 9, 46, 80
8, 3240, Note_on_c, 9, 46, 95
8, 3360, Note_off_c, 9, 46, 80
8, 3360, Note_on_c, 9, 46, 95
8, 3840, Note_off_c, 9, 46, 80
8, 3840, Note_on_c, 9, 46, 95
8, 3960, Note_off_c, 9, 46, 80
8, 3960, Note_on_c, 9, 46, 95
8, 4080, Note_off_c, 9, 46, 80
8, 4080, Note_on_c, 9, 46, 95
8, 4200, Note_off_c, 9, 46, 80
8, 4200, Note_on_c, 9, 46, 95
8, 4320, Note_off_c, 9, 46, 80
8, 4320, Note_on_c, 9, 46, 95
8, 4800, Note_off_c, 9, 46, 80
8, 4800, Note_on_c, 9, 46, 95
8, 4920, Note_off_c, 9, 46, 80
8, 4920, Note_on_c, 9, 46, 95
8, 5040, Note_off_c, 9, 46, 80
8, 5040, Note_on_c, 9, 46, 95
8, 5160, Note_off_c, 9, 46, 80
8, 5160, Note_on_c, 9, 46, 95
8, 5280, Note_off_c, 9, 46, 80
8, 5280, Note_on_c, 9, 46, 95
8, 5760, Note_off_c, 9, 46, 80
8, 5760, Note_on_c, 9, 46, 95
8, 5760, Note_on_c, 9, 36, 95
8, 5880, Note_off_c, 9, 46, 80
8, 5880, Note_off_c, 9, 36, 80
8, 5880, Note_on_c, 9, 46, 95
8, 6000, Note_off_c, 9, 46, 80
8, 6000, Note_on_c, 9, 46, 95
8, 6120, Note_off_c, 9, 46, 80
8, 6120, Note_on_c, 9, 46, 95
8, 6240, Note_off_c, 9, 46, 80
8, 6240, Note_on_c, 9, 46, 95
8, 6240, Note_on_c, 9, 36, 95
8, 6720, Note_off_c, 9, 46, 80
8, 6720, Note_off_c, 9, 36, 80
8, 6720, Note_on_c, 9, 46, 95
8, 6720, Note_on_c, 9, 36, 95
8, 6840, Note_off_c, 9, 46, 80
8, 6840, Note_off_c, 9, 36, 80
8, 6840, Note_on_c, 9, 46, 95
8, 6960, Note_off_c, 9, 46, 80
8, 6960, Note_on_c, 9, 46, 95
8, 7080, Note_off_c, 9, 46, 80
8, 7080, Note_on_c, 9, 46, 95
8, 7200, Note_off_c, 9, 46, 80
8, 7200, Note_on_c, 9, 46, 95
8, 7200, Note_on_c, 9, 36, 95
8, 7680, Note_off_c, 9, 46, 80
8, 7680, Note_off_c, 9, 36, 80
8, 7680, Note_on_c, 9, 46, 95
8, 7680, Note_on_c, 9, 36, 95
8, 7800, Note_off_c, 9, 46, 80
8, 7800, Note_off_c, 9, 36, 80
8, 7800, Note_on_c, 9, 46, 95
8, 7920, Note_off_c, 9, 46, 80
8, 7920, Note_on_c, 9, 46, 95
8, 8040, Note_off_c, 9, 46, 80
8, 8040, Note_on_c, 9, 46, 95
8, 8160, Note_off_c, 9, 46, 80
8, 8160, Note_on_c, 9, 46, 95
8, 8160, Note_on_c, 9, 36, 95
8, 8640, Note_off_c, 9, 46, 80
8, 8640, Note_off_c, 9, 36, 80
8, 8640, Note_on_c, 9, 46, 95
8, 8640, Note_on_c, 9, 36, 95
8, 8760, Note_off_c, 9, 46, 80
8, 8760, Note_off_c, 9, 36, 80
8, 8760, Note_on_c, 9, 46, 95
8, 8880, Note_off_c, 9, 46, 80
8, 8880, Note_on_c, 9, 46, 95
8, 9000, Note_off_c, 9, 46, 80
8, 9000, Note_on_c, 9, 46, 95
8, 9120, Note_off_c, 9, 46, 80
8, 9120, Note_on_c, 9, 46, 95
8, 9120, Note_on_c, 9, 36, 95
8, 9600, Note_off_c, 9, 46, 80
8, 9600, Note_off_c, 9, 36, 80
8, 9600, Note_on_c, 9, 46, 95
8, 9600, Note_on_c, 9, 36, 95
8, 9720, Note_off_c, 9, 46, 80
8, 9720, Note_off_c, 9, 36, 80
8, 9720, Note_on_c, 9, 46, 95
8, 9840, Note_off_c, 9, 46, 80
8, 9840, Note_on_c, 9, 46, 95
8, 9960, Note_off_c, 9, 46, 80
8, 9960, Note_on_c, 9, 46, 95
8, 10080, Note_off_c, 9, 46, 80
8, 10080, Note_on_c, 9, 46, 95
8, 10080, Note_on_c, 9, 36, 95
8, 10560, Note_off_c, 9, 46, 80
8, 10560, Note_off_c, 9, 36, 80
8, 10560, Note_on_c, 9, 46, 95
8, 10560, Note_on_c, 9, 36, 95
8, 10680, Note_off_c, 9, 46, 80
8, 10680, Note_off_c, 9, 36, 80
8, 10680, Note_on_c, 9, 46, 95
8, 10800, Note_off_c, 9, 46, 80
8, 10800, Note_on_c, 9, 46, 95
8, 10920, Note_off_c, 9, 46, 80
8, 10920, Note_on_c, 9, 46, 95
8, 11040, Note_off_c, 9, 46, 80
8, 11040, Note_on_c, 9, 46, 95
8, 11040, Note_on_c, 9, 36, 95
8, 11520, Note_off_c, 9, 46, 80
8, 11520, Note_off_c, 9, 36, 80
8, 11520, Note_on_c, 9, 46, 95
8, 11520, Note_on_c, 9, 36, 95
8, 11640, Note_off_c, 9, 46, 80
8, 11640, Note_off_c, 9, 36, 80
8, 11640, Note_on_c, 9, 46, 95
8, 11760, Note_off_c, 9, 46, 80
8, 11760, Note_on_c, 9, 46, 95
8, 11880, Note_off_c, 9, 46, 80
8, 11880, Note_on_c, 9, 46, 95
8, 12000, Note_off_c, 9, 46, 80
8, 12000, Note_on_c, 9, 46, 95
8, 12000, Note_on_c, 9, 36, 95
8, 12480, Note_off_c, 9, 46, 80
8, 12480, Note_off_c, 9, 36, 80
8, 12480, Note_on_c, 9, 46, 95
8, 12480, Note_on_c, 9, 36, 95
8, 12600, Note_off_c, 9, 46, 80
8, 12600, Note_off_c, 9, 36, 80
8, 12600, Note_on_c, 9, 46, 95
8, 12720, Note_off_c, 9, 46, 80
8, 12720, Note_on_c, 9, 46, 95
8, 12840, Note_off_c, 9, 46, 80
8, 12840, Note_on_c, 9, 46, 95
8, 12960, Note_off_c, 9, 46, 80
8, 12960, Note_on_c, 9, 46, 95
8, 12960, Note_on_c, 9, 36, 95
8, 13440, Note_off_c, 9, 46, 80
8, 13440, Note_off_c, 9, 36, 80
8, 13440, Note_on_c, 9, 46, 95
8, 13440, Note_on_c, 9, 36, 95
8, 13560, Note_off_c, 9, 46, 80
8, 13560, Note_off_c, 9, 36, 80
8, 13560, Note_on_c, 9, 46, 95
8, 13680, Note_off_c, 9, 46, 80
8, 13680, Note_on_c, 9, 46, 95
8, 13800, Note_off_c, 9, 46, 80
8, 13800, Note_on_c, 9, 46, 95
8, 13920, Note_off_c, 9, 46, 80
8, 13920, Note_on_c, 9, 46, 95
8, 13920, Note_on_c, 9, 36, 95
8, 14400, Note_off_c, 9, 46, 80
8, 14400, Note_off_c, 9, 36, 80
8, 14400, Note_on_c, 9, 46, 95
8, 14400, Note_on_c, 9, 36, 95
8, 14520, Note_off_c, 9, 46, 80
8, 14520, Note_off_c, 9, 36, 80
8, 14520, Note_on_c, 9, 46, 95
8, 14640, Note_off_c, 9, 46, 80
8, 14640, Note_on_c, 9, 46, 95
8, 14760, Note_off_c, 9, 46, 80
8, 14760, Note_on_c, 9, 46, 95
8, 14880, Note_off_c, 9, 46, 80
8, 14880, Note_on_c, 9, 46, 95
8, 14880, Note_on_c, 9, 36, 95
8, 15360, Note_off_c, 9, 46, 80
8, 15360, Note_off_c, 9, 36, 80
8, 15360, Note_on_c, 9, 46, 95
8, 15360, Note_on_c, 9, 36, 95
8, 15480, Note_off_c, 9, 46, 80
8, 15480, Note_off_c, 9, 36, 80
8, 15480, Note_on_c, 9, 46, 95
8, 15600, Note_off_c, 9, 46, 80
8, 15600, Note_on_c, 9, 46, 95
8, 15720, Note_off_c, 9, 46, 80
8, 15720, Note_on_c, 9, 46, 95
8, 15840, Note_off_c, 9, 46, 80
8, 15840, Note_on_c, 9, 46, 95
8, 15840, Note_on_c, 9, 36, 95
8, 16320, Note_off_c, 9, 46, 80
8, 16320, Note_off_c, 9, 36, 80
8, 16320, Note_on_c, 9, 46, 95
8, 16320, Note_on_c, 9, 36, 95
8, 16440, Note_off_c, 9, 46, 80
8, 16440, Note_off_c, 9, 36, 80
8, 16440, Note_on_c, 9, 46, 95
8, 16560, Note_off_c, 9, 46, 80
8, 16560, Note_on_c, 9, 46, 95
8, 16680, Note_off_c, 9, 46, 80
8, 16680, Note_on_c, 9, 46, 95
8, 16800, Note_off_c, 9, 46, 80
8, 16800, Note_on_c, 9, 46, 95
8, 16800, Note_on_c, 9, 36, 95
8, 17280, Note_off_c, 9, 46, 80
8, 17280, Note_off_c, 9, 36, 80
8, 17280, Note_on_c, 9, 46, 95
8, 17280, Note_on_c, 9, 36, 95
8, 17400, Note_off_c, 9, 46, 80
8, 17400, Note_off_c, 9, 36, 80
8, 17400, Note_on_c, 9, 46, 95
8, 17520, Note_off_c, 9, 46, 80
8, 17520, Note_on_c, 9, 46, 95
8, 17640, Note_off_c, 9, 46, 80
8, 17640, Note_on_c, 9, 46, 95
8, 17760, Note_off_c, 9, 46, 80
8, 17760, Note_on_c, 9, 46, 95
8, 17760, Note_on_c, 9, 36, 95
8, 18240, Note_off_c, 9, 46, 80
8, 18240, Note_off_c, 9, 36, 80
8, 18240, Note_on_c, 9, 46, 95
8, 18240, Note_on_c, 9, 36, 95
8, 18360, Note_off_c, 9, 46, 80
8, 18360, Note_off_c, 9, 36, 80
8, 18360, Note_on_c, 9, 46, 95
8, 18480, Note_off_c, 9, 46, 80
8, 18480, Note_on_c, 9, 46, 95
8, 18600, Note_off_c, 9, 46, 80
8, 18600, Note_on_c, 9, 46, 95
8, 18720, Note_off_c, 9, 46, 80
8, 18720, Note_on_c, 9, 46, 95
8, 18720, Note_on_c, 9, 36, 95
8, 19200, Note_off_c, 9, 46, 80
8, 19200, Note_off_c, 9, 36, 80
8, 19200, Note_on_c, 9, 46, 95
8, 19200, Note_on_c, 9, 36, 95
8, 19320, Note_off_c, 9, 46, 80
8, 19320, Note_off_c, 9, 36, 80
8, 19320, Note_on_c, 9, 46, 95
8, 19440, Note_off_c, 9, 46, 80
8, 19440, Note_on_c, 9, 46, 95
8, 19560, Note_off_c, 9, 46, 80
8, 19560, Note_on_c, 9, 46, 95
8, 19680, Note_off_c, 9, 46, 80
8, 19680, Note_on_c, 9, 46, 95
8, 19680, Note_on_c, 9, 36, 95
8, 20160, Note_off_c, 9, 46, 80
8, 20160, Note_off_c, 9, 36, 80
8, 20160, Note_on_c, 9, 46, 95
8, 20160, Note_on_c, 9, 36, 95
8, 20280, Note_off_c, 9, 46, 80
8, 20280, Note_off_c, 9, 36, 80
8, 20280, Note_on_c, 9, 46, 95
8, 20400, Note_off_c, 9, 46, 80
8, 20400, Note_on_c, 9, 46, 95
8, 20520, Note_off_c, 9, 46, 80
8, 20520, Note_on_c, 9, 46, 95
8, 20640, Note_off_c, 9, 46, 80
8, 20640, Note_on_c, 9, 46, 95
8, 20640, Note_on_c, 9, 36, 95
8, 21120, Note_off_c, 9, 46, 80
8, 21120, Note_off_c, 9, 36, 80
8, 21120, Note_on_c, 9, 46, 95
8, 21120, Note_on_c, 9, 36, 95
8, 21240, Note_off_c, 9, 46, 80
8, 21240, Note_off_c, 9, 36, 80
8, 21240, Note_on_c, 9, 46, 95
8, 21360, Note_off_c, 9, 46, 80
8, 21360, Note_on_c, 9, 46, 95
8, 21480, Note_off_c, 9, 46, 80
8, 21480, Note_on_c, 9, 46, 95
8, 21600, Note_off_c, 9, 46, 80
8, 21600, Note_on_c, 9, 46, 95
8, 21600, Note_on_c, 9, 36, 95
8, 22080, Note_off_c, 9, 46, 80
8, 22080, Note_off_c, 9, 36, 80
8, 22080, Note_on_c, 9, 46, 95
8, 22080, Note_on_c, 9, 36, 95
8, 22200, Note_off_c, 9, 46, 80
8, 22200, Note_off_c, 9, 36, 80
8, 22200, Note_on_c, 9, 46, 95
8, 22320, Note_off_c, 9, 46, 80
8, 22320, Note_on_c, 9, 46, 95
8, 22440, Note_off_c, 9, 46, 80
8, 22440, Note_on_c, 9, 46, 95
8, 22560, Note_off_c, 9, 46, 80
8, 22560, Note_on_c, 9, 46, 95
8, 22560, Note_on_c, 9, 36, 95
8, 23040, Note_off_c, 9, 46, 80
8, 23040, Note_off_c, 9, 36, 80
8, 23040, Note_on_c, 9, 46, 95
8, 23040, Note_on_c, 9, 36, 95
8, 23160, Note_off_c, 9, 46, 80
8, 23160, Note_off_c, 9, 36, 80
8, 23160, Note_on_c, 9, 46, 95
8, 23280, Note_off_c, 9, 46, 80
8, 23280, Note_on_c, 9, 46, 95
8, 23400, Note_off_c, 9, 46, 80
8, 23400, Note_on_c, 9, 46, 95
8, 23520, Note_off_c, 9, 46, 80
8, 23520, Note_on_c, 9, 46, 95
8, 23520, Note_on_c, 9, 36, 95
8, 24000, Note_off_c, 9, 46, 80
8, 24000, Note_off_c, 9, 36, 80
8, 24000, Note_on_c, 9, 46, 95
8, 24000, Note_on_c, 9, 36, 95
8, 24120, Note_off_c, 9, 46, 80
8, 24120, Note_off_c, 9, 36, 80
8, 24120, Note_on_c, 9, 46, 95
8, 24240, Note_off_c, 9, 46, 80
8, 24240, Note_on_c, 9, 46, 95
8, 24360, Note_off_c, 9, 46, 80
8, 24360, Note_on_c, 9, 46, 95
8, 24480, Note_off_c, 9, 46, 80
8, 24480, Note_on_c, 9, 46, 95
8, 24480, Note_on_c, 9, 36, 95
8, 24960, Note_off_c, 9, 46, 80
8, 24960, Note_off_c, 9, 36, 80
8, 24960, Note_on_c, 9, 46, 95
8, 24960, Note_on_c, 9, 36, 95
8, 25080, Note_off_c, 9, 46, 80
8, 25080, Note_off_c, 9, 36, 80
8, 25080, Note_on_c, 9, 46, 95
8, 25200, Note_off_c, 9, 46, 80
8, 25200, Note_on_c, 9, 46, 95
8, 25320, Note_off_c, 9, 46, 80
8, 25320, Note_on_c, 9, 46, 95
8, 25440, Note_off_c, 9, 46, 80
8, 25440, Note_on_c, 9, 46, 95
8, 25440, Note_on_c, 9, 36, 95
8, 25920, Note_off_c, 9, 46, 80
8, 25920, Note_off_c, 9, 36, 80
8, 25920, Note_on_c, 9, 46, 95
8, 25920, Note_on_c, 9, 36, 95
8, 26040, Note_off_c, 9, 46, 80
8, 26040, Note_off_c, 9, 36, 80
8, 26040, Note_on_c, 9, 46, 95
8, 26160, Note_off_c, 9, 46, 80
8, 26160, Note_on_c, 9, 46, 95
8, 26280, Note_off_c, 9, 46, 80
8, 26280, Note_on_c, 9, 46, 95
8, 26400, Note_off_c, 9, 46, 80
8, 26400, Note_on_c, 9, 46, 95
8, 26400, Note_on_c, 9, 36, 95
8, 26880, Note_off_c, 9, 46, 80
8, 26880, Note_off_c, 9, 36, 80
8, 26880, Note_on_c, 9, 46, 95
8, 26880, Note_on_c, 9, 36, 95
8, 27000, Note_off_c, 9, 46, 80
8, 27000, Note_off_c, 9, 36, 80
8, 27000, Note_on_c, 9, 46, 95
8, 27120, Note_off_c, 9, 46, 80
8, 27120, Note_on_c, 9, 46, 95
8, 27240, Note_off_c, 9, 46, 80
8, 27240, Note_on_c, 9, 46, 95
8, 27360, Note_off_c, 9, 46, 80
8, 27360, Note_on_c, 9, 46, 95
8, 27360, Note_on_c, 9, 36, 95
8, 27840, Note_off_c, 9, 46, 80
8, 27840, Note_off_c, 9, 36, 80
8, 27840, Note_on_c, 9, 46, 95
8, 27840, Note_on_c, 9, 36, 95
8, 27960, Note_off_c, 9, 46, 80
8, 27960, Note_off_c, 9, 36, 80
8, 27960, Note_on_c, 9, 46, 95
8, 28080, Note_off_c, 9, 46, 80
8, 28080, Note_on_c, 9, 46, 95
8, 28200, Note_off_c, 9, 46, 80
8, 28200, Note_on_c, 9, 46, 95
8, 28320, Note_off_c, 9, 46, 80
8, 28320, Note_on_c, 9, 46, 95
8, 28320, Note_on_c, 9, 36, 95
8, 28800, Note_off_c, 9, 46, 80
8, 28800, Note_off_c, 9, 36, 80
8, 28800, Note_on_c, 9, 46, 95
8, 28800, Note_on_c, 9, 36, 95
8, 28920, Note_off_c, 9, 46, 80
8, 28920, Note_off_c, 9, 36, 80
8, 28920, Note_on_c, 9, 46, 95
8, 29040, Note_off_c, 9, 46, 80
8, 29040, Note_on_c, 9, 46, 95
8, 29160, Note_off_c, 9, 46, 80
8, 29160, Note_on_c, 9, 46, 95
8, 29280, Note_off_c, 9, 46, 80
8, 29280, Note_on_c, 9, 46, 95
8, 29280, Note_on_c, 9, 36, 95
8, 29760, Note_off_c, 9, 46, 80
8, 29760, Note_off_c, 9, 36, 80
8, 29760, Note_on_c, 9, 46, 95
8, 29760, Note_on_c, 9, 36, 95
8, 29880, Note_off_c, 9, 46, 80
8, 29880, Note_off_c, 9, 36, 80
8, 29880, Note_on_c, 9, 46, 95
8, 30000, Note_off_c, 9, 46, 80
8, 30000, Note_on_c, 9, 46, 95
8, 30120, Note_off_c, 9, 46, 80
8, 30120, Note_on_c, 9, 46, 95
8, 30240, Note_off_c, 9, 46, 80
8, 30240, Note_on_c, 9, 46, 95
8, 30240, Note_on_c, 9, 36, 95
8, 30720, Note_off_c, 9, 46, 80
8, 30720, Note_off_c, 9, 36, 80
8, 30720, Note_on_c, 9, 46, 95
8, 30720, Note_on_c, 9, 36, 95
8, 30840, Note_off_c, 9, 46, 80
8, 30840, Note_off_c, 9, 36, 80
8, 30840, Note_on_c, 9, 46, 95
8, 30960, Note_off_c, 9, 46, 80
8, 30960, Note_on_c, 9, 46, 95
8, 31080, Note_off_c, 9, 46, 80
8, 31080, Note_on_c, 9, 46, 95
8, 31200, Note_off_c, 9, 46, 80
8, 31200, Note_on_c, 9, 46, 95
8, 31200, Note_on_c, 9, 36, 95
8, 31680, Note_off_c, 9, 46, 80
8, 31680, Note_off_c, 9, 36, 80
8, 31680, Note_on_c, 9, 46, 95
8, 31680, Note_on_c, 9, 36, 95
8, 31800, Note_off_c, 9, 46, 80
8, 31800, Note_off_c, 9, 36, 80
8, 31800, Note_on_c, 9, 46, 95
8, 31920, Note_off_c, 9, 46, 80
8, 31920, Note_on_c, 9, 46, 95
8, 32040, Note_off_c, 9, 46, 80
8, 32040, Note_on_c, 9, 46, 95
8, 32160, Note_off_c, 9, 46, 80
8, 32160, Note_on_c, 9, 46, 95
8, 32160, Note_on_c, 9, 36, 95
8, 32640, Note_off_c, 9, 46, 80
8, 32640, Note_off_c, 9, 36, 80
8, 32640, Note_on_c, 9, 46, 95
8, 32640, Note_on_c, 9, 36, 95
8, 32760, Note_off_c, 9, 46, 80
8, 32760, Note_off_c, 9, 36, 80
8, 32760, Note_on_c, 9, 46, 95
8, 32880, Note_off_c, 9, 46, 80
8, 32880, Note_on_c, 9, 46, 95
8, 33000, Note_off_c, 9, 46, 80
8, 33000, Note_on_c, 9, 46, 95
8, 33120, Note_off_c, 9, 46, 80
8, 33120, Note_on_c, 9, 46, 95
8, 33120, Note_on_c, 9, 36, 95
8, 33600, Note_off_c, 9, 46, 80
8, 33600, Note_off_c, 9, 36, 80
8, 33600, Note_on_c, 9, 46, 95
8, 33600, Note_on_c, 9, 36, 95
8, 33720, Note_off_c, 9, 46, 80
8, 33720, Note_off_c, 9, 36, 80
8, 33720, Note_on_c, 9, 46, 95
8, 33840, Note_off_c, 9, 46, 80
8, 33840, Note_on_c, 9, 46, 95
8, 33960, Note_off_c, 9, 46, 80
8, 33960, Note_on_c, 9, 46, 95
8, 34080, Note_off_c, 9, 46, 80
8, 34080, Note_on_c, 9, 46, 95
8, 34080, Note_on_c, 9, 36, 95
8, 34560, Note_off_c, 9, 46, 80
8, 34560, Note_off_c, 9, 36, 80
8, 34560, Note_on_c, 9, 46, 95
8, 34560, Note_on_c, 9, 36, 95
8, 34680, Note_off_c, 9, 46, 80
8, 34680, Note_off_c, 9, 36, 80
8, 34680, Note_on_c, 9, 46, 95
8, 34800, Note_off_c, 9, 46, 80
8, 34800, Note_on_c, 9, 46, 95
8, 34920, Note_off_c, 9, 46, 80
8, 34920, Note_on_c, 9, 46, 95
8, 35040, Note_off_c, 9, 46, 80
8, 35040, Note_on_c, 9, 46, 95
8, 35040, Note_on_c, 9, 36, 95
8, 35520, Note_off_c, 9, 46, 80
8, 35520, Note_off_c, 9, 36, 80
8, 35520, Note_on_c, 9, 46, 95
8, 35520, Note_on_c, 9, 36, 95
8, 35640, Note_off_c, 9, 46, 80
8, 35640, Note_off_c, 9, 36, 80
8, 35640, Note_on_c, 9, 46, 95
8, 35760, Note_off_c, 9, 46, 80
8, 35760, Note_on_c, 9, 46, 95
8, 35880, Note_off_c, 9, 46, 80
8, 35880, Note_on_c, 9, 46, 95
8, 36000, Note_off_c, 9, 46, 80
8, 36000, Note_on_c, 9, 46, 95
8, 36000, Note_on_c, 9, 36, 95
8, 36480, Note_off_c, 9, 46, 80
8, 36480, Note_off_c, 9, 36, 80
8, 36480, Note_on_c, 9, 46, 95
8, 36480, Note_on_c, 9, 36, 95
8, 36600, Note_off_c, 9, 46, 80
8, 36600, Note_off_c, 9, 36, 80
8, 36600, Note_on_c, 9, 46, 95
8, 36720, Note_off_c, 9, 46, 80
8, 36720, Note_on_c, 9, 46, 95
8, 36840, Note_off_c, 9, 46, 80
8, 36840, Note_on_c, 9, 46, 95
8, 36960, Note_off_c, 9, 46, 80
8, 36960, Note_on_c, 9, 46, 95
8, 36960, Note_on_c, 9, 36, 95
8, 37440, Note_off_c, 9, 46, 80
8, 37440, Note_off_c, 9, 36, 80
8, 37440, Note_on_c, 9, 46, 95
8, 37440, Note_on_c, 9, 36, 95
8, 37560, Note_off_c, 9, 46, 80
8, 37560, Note_off_c, 9, 36, 80
8, 37560, Note_on_c, 9, 46, 95
8, 37680, Note_off_c, 9, 46, 80
8, 37680, Note_on_c, 9, 46, 95
8, 37800, Note_off_c, 9, 46, 80
8, 37800, Note_on_c, 9, 46, 95
8, 37920, Note_off_c, 9, 46, 80
8, 37920, Note_on_c, 9, 46, 95
8, 37920, Note_on_c, 9, 36, 95
8, 38400, Note_off_c, 9, 46, 80
8, 38400, Note_off_c, 9, 36, 80
8, 38400, Note_on_c, 9, 46, 95
8, 38400, Note_on_c, 9, 36, 95
8, 38520, Note_off_c, 9, 46, 80
8, 38520, Note_off_c, 9, 36, 80
8, 38520, Note_on_c, 9, 46, 95
8, 38640, Note_off_c, 9, 46, 80
8, 38640, Note_on_c, 9, 46, 95
8, 38760, Note_off_c, 9, 46, 80
8, 38760, Note_on_c, 9, 46, 95
8, 38880, Note_off_c, 9, 46, 80
8, 38880, Note_on_c, 9, 46, 95
8, 38880, Note_on_c, 9, 36, 95
8, 39360, Note_off_c, 9, 46, 80
8, 39360, Note_off_c, 9, 36, 80
8, 39360, Note_on_c, 9, 46, 95
8, 39360, Note_on_c, 9, 36, 95
8, 39480, Note_off_c, 9, 46, 80
8, 39480, Note_off_c, 9, 36, 80
8, 39480, Note_on_c, 9, 46, 95
8, 39600, Note_off_c, 9, 46, 80
8, 39600, Note_on_c, 9, 46, 95
8, 39720, Note_off_c, 9, 46, 80
8, 39720, Note_on_c, 9, 46, 95
8, 39840, Note_off_c, 9, 46, 80
8, 39840, Note_on_c, 9, 46, 95
8, 39840, Note_on_c, 9, 36, 95
8, 40320, Note_off_c, 9, 46, 80
8, 40320, Note_off_c, 9, 36, 80
8, 40320, Note_on_c, 9, 46, 95
8, 40320, Note_on_c, 9, 36, 95
8, 40440, Note_off_c, 9, 46, 80
8, 40440, Note_off_c, 9, 36, 80
8, 40440, Note_on_c, 9, 46, 95
8, 40560, Note_off_c, 9, 46, 80
8, 40560, Note_on_c, 9, 46, 95
8, 40680, Note_off_c, 9, 46, 80
8, 40680, Note_on_c, 9, 46, 95
8, 40800, Note_off_c, 9, 46, 80
8, 40800, Note_on_c, 9, 46, 95
8, 40800, Note_on_c, 9, 36, 95
8, 41280, Note_off_c, 9, 46, 80
8, 41280, Note_off_c, 9, 36, 80
8, 41280, Note_on_c, 9, 46, 95
8, 41280, Note_on_c, 9, 36, 95
8, 41400, Note_off_c, 9, 46, 80
8, 41400, Note_off_c, 9, 36, 80
8, 41400, Note_on_c, 9, 46, 95
8, 41520, Note_off_c, 9, 46, 80
8, 41520, Note_on_c, 9, 46, 95
8, 41640, Note_off_c, 9, 46, 80
8, 41640, Note_on_c, 9, 46, 95
8, 41760, Note_off_c, 9, 46, 80
8, 41760, Note_on_c, 9, 46, 95
8, 41760, Note_on_c, 9, 36, 95
8, 42240, Note_off_c, 9, 46, 80
8, 42240, Note_off_c, 9, 36, 80
8, 42240, Note_on_c, 9, 46, 95
8, 42240, Note_on_c, 9, 36, 95
8, 42360, Note_off_c, 9, 46, 80
8, 42360, Note_off_c, 9, 36, 80
8, 42360, Note_on_c, 9, 46, 95
8, 42480, Note_off_c, 9, 46, 80
8, 42480, Note_on_c, 9, 46, 95
8, 42600, Note_off_c, 9, 46, 80
8, 42600, Note_on_c, 9, 46, 95
8, 42720, Note_off_c, 9, 46, 80
8, 42720, Note_on_c, 9, 46, 95
8, 42720, Note_on_c, 9, 36, 95
8, 43200, Note_off_c, 9, 46, 80
8, 43200, Note_off_c, 9, 36, 80
8, 43200, Note_on_c, 9, 46, 95
8, 43200, Note_on_c, 9, 36, 95
8, 43320, Note_off_c, 9, 46, 80
8, 43320, Note_off_c, 9, 36, 80
8, 43320, Note_on_c, 9, 46, 95
8, 43440, Note_off_c, 9, 46, 80
8, 43440, Note_on_c, 9, 46, 95
8, 43560, Note_off_c, 9, 46, 80
8, 43560, Note_on_c, 9, 46, 95
8, 43680, Note_off_c, 9, 46, 80
8, 43680, Note_on_c, 9, 46, 95
8, 43680, Note_on_c, 9, 36, 95
8, 44160, Note_off_c, 9, 46, 80
8, 44160, Note_off_c, 9, 36, 80
8, 44160, Note_on_c, 9, 46, 95
8, 44160, Note_on_c, 9, 36, 95
8, 44280, Note_off_c, 9, 46, 80
8, 44280, Note_off_c, 9, 36, 80
8, 44280, Note_on_c, 9, 46, 95
8, 44400, Note_off_c, 9, 46, 80
8, 44400, Note_on_c, 9, 46, 95
8, 44520, Note_off_c, 9, 46, 80
8, 44520, Note_on_c, 9, 46, 95
8, 44640, Note_off_c, 9, 46, 80
8, 44640, Note_on_c, 9, 46, 95
8, 44640, Note_on_c, 9, 36, 95
8, 45120, Note_off_c, 9, 46, 80
8, 45120, Note_off_c, 9, 36, 80
8, 45120, Note_on_c, 9, 46, 95
8, 45120, Note_on_c, 9, 36, 95
8, 45240, Note_off_c, 9, 46, 80
8, 45240, Note_off_c, 9, 36, 80
8, 45240, Note_on_c, 9, 46, 95
8, 45360, Note_off_c, 9, 46, 80
8, 45360, Note_on_c, 9, 46, 95
8, 45480, Note_off_c, 9, 46, 80
8, 45480, Note_on_c, 9, 46, 95
8, 45600, Note_off_c, 9, 46, 80
8, 45600, Note_on_c, 9, 46, 95
8, 45600, Note_on_c, 9, 36, 95
8, 46080, Note_off_c, 9, 46, 80
8, 46080, Note_off_c, 9, 36, 80
8, 46080, Note_on_c, 9, 46, 95
8, 46080, Note_on_c, 9, 36, 95
8, 46200, Note_off_c, 9, 46, 80
8, 46200, Note_off_c, 9, 36, 80
8, 46200, Note_on_c, 9, 46, 95
8, 46320, Note_off_c, 9, 46, 80
8, 46320, Note_on_c, 9, 46, 95
8, 46440, Note_off_c, 9, 46, 80
8, 46440, Note_on_c, 9, 46, 95
8, 46560, Note_off_c, 9, 46, 80
8, 46560, Note_on_c, 9, 46, 95
8, 46560, Note_on_c, 9, 36, 95
8, 47040, Note_off_c, 9, 46, 80
8, 47040, Note_off_c, 9, 36, 80
8, 47040, Note_on_c, 9, 46, 95
8, 47040, Note_on_c, 9, 36, 95
8, 47160, Note_off_c, 9, 46, 80
8, 47160, Note_off_c, 9, 36, 80
8, 47160, Note_on_c, 9, 46, 95
8, 47280, Note_off_c, 9, 46, 80
8, 47280, Note_on_c, 9, 46, 95
8, 47400, Note_off_c, 9, 46, 80
8, 47400, Note_on_c, 9, 46, 95
8, 47520, Note_off_c, 9, 46, 80
8, 47520, Note_on_c, 9, 46, 95
8, 47520, Note_on_c, 9, 36, 95
8, 48000, Note_off_c, 9, 46, 80
8, 48000, Note_off_c, 9, 36, 80
8, 48000, Note_on_c, 9, 46, 95
8, 48000, Note_on_c, 9, 36, 95
8, 48120, Note_off_c, 9, 46, 80
8, 48120, Note_off_c, 9, 36, 80
8, 48120, Note_on_c, 9, 46, 95
8, 48240, Note_off_c, 9, 46, 80
8, 48240, Note_on_c, 9, 46, 95
8, 48360, Note_off_c, 9, 46, 80
8, 48360, Note_on_c, 9, 46, 95
8, 48480, Note_off_c, 9, 46, 80
8, 48480, Note_on_c, 9, 46, 95
8, 48480, Note_on_c, 9, 36, 95
8, 48960, Note_off_c, 9, 46, 80
8, 48960, Note_off_c, 9, 36, 80
8, 48960, Note_on_c, 9, 46, 95
8, 48960, Note_on_c, 9, 36, 95
8, 49080, Note_off_c, 9, 46, 80
8, 49080, Note_off_c, 9, 36, 80
8, 49080, Note_on_c, 9, 46, 95
8, 49200, Note_off_c, 9, 46, 80
8, 49200, Note_on_c, 9, 46, 95
8, 49320, Note_off_c, 9, 46, 80
8, 49320, Note_on_c, 9, 46, 95
8, 49440, Note_off_c, 9, 46, 80
8, 49440, Note_on_c, 9, 46, 95
8, 49440, Note_on_c, 9, 36, 95
8, 49920, Note_off_c, 9, 46, 80
8, 49920, Note_off_c, 9, 36, 80
8, 49920, Note_on_c, 9, 46, 95
8, 49920, Note_on_c, 9, 36, 95
8, 50040, Note_off_c, 9, 46, 80
8, 50040, Note_off_c, 9, 36, 80
8, 50040, Note_on_c, 9, 46, 95
8, 50160, Note_off_c, 9, 46, 80
8, 50160, Note_on_c, 9, 46, 95
8, 50280, Note_off_c, 9, 46, 80
8, 50280, Note_on_c, 9, 46, 95
8, 50400, Note_off_c, 9, 46, 80
8, 50400, Note_on_c, 9, 46, 95
8, 50400, Note_on_c, 9, 36, 95
8, 50880, Note_off_c, 9, 46, 80
8, 50880, Note_off_c, 9, 36, 80
8, 50880, Note_on_c, 9, 46, 95
8, 50880, Note_on_c, 9, 36, 95
8, 51000, Note_off_c, 9, 46, 80
8, 51000, Note_off_c, 9, 36, 80
8, 51000, Note_on_c, 9, 46, 95
8, 51120, Note_off_c, 9, 46, 80
8, 51120, Note_on_c, 9, 46, 95
8, 51240, Note_off_c, 9, 46, 80
8, 51240, Note_on_c, 9, 46, 95
8, 51360, Note_off_c, 9, 46, 80
8, 51360, Note_on_c, 9, 46, 95
8, 51360, Note_on_c, 9, 36, 95
8, 51840, Note_off_c, 9, 46, 80
8, 51840, Note_off_c, 9, 36, 80
8, 51840, Note_on_c, 9, 46, 95
8, 51840, Note_on_c, 9, 36, 95
8, 51960, Note_off_c, 9, 46, 80
8, 51960, Note_off_c, 9, 36, 80
8, 51960, Note_on_c, 9, 46, 95
8, 52080, Note_off_c, 9, 46, 80
8, 52080, Note_on_c, 9, 46, 95
8, 52200, Note_off_c, 9, 46, 80
8, 52200, Note_on_c, 9, 46, 95
8, 52320, Note_off_c, 9, 46, 80
8, 52320, Note_on_c, 9, 46, 95
8, 52320, Note_on_c, 9, 36, 95
8, 52800, Note_off_c, 9, 46, 80
8, 52800, Note_off_c, 9, 36, 80
8, 52800, Note_on_c, 9, 46, 95
8, 52800, Note_on_c, 9, 36, 95
8, 52920, Note_off_c, 9, 46, 80
8, 52920, Note_off_c, 9, 36, 80
8, 52920, Note_on_c, 9, 46, 95
8, 53040, Note_off_c, 9, 46, 80
8, 53040, Note_on_c, 9, 46, 95
8, 53160, Note_off_c, 9, 46, 80
8, 53160, Note_on_c, 9, 46, 95
8, 53280, Note_off_c, 9, 46, 80
8, 53280, Note_on_c, 9, 46, 95
8, 53280, Note_on_c, 9, 36, 95
8, 53760, Note_off_c, 9, 46, 80
8, 53760, Note_off_c, 9, 36, 80
8, 53760, Note_on_c, 9, 46, 95
8, 53760, Note_on_c, 9, 36, 95
8, 53880, Note_off_c, 9, 46, 80
8, 53880, Note_off_c, 9, 36, 80
8, 53880, Note_on_c, 9, 46, 95
8, 54000, Note_off_c, 9, 46, 80
8, 54000, Note_on_c, 9, 46, 95
8, 54120, Note_off_c, 9, 46, 80
8, 54120, Note_on_c, 9, 46, 95
8, 54240, Note_off_c, 9, 46, 80
8, 54240, Note_on_c, 9, 46, 95
8, 54240, Note_on_c, 9, 36, 95
8, 54720, Note_off_c, 9, 46, 80
8, 54720, Note_off_c, 9, 36, 80
8, 54720, Note_on_c, 9, 46, 95
8, 54720, Note_on_c, 9, 36, 95
8, 54840, Note_off_c, 9, 46, 80
8, 54840, Note_off_c, 9, 36, 80
8, 54840, Note_on_c, 9, 46, 95
8, 54960, Note_off_c, 9, 46, 80
8, 54960, Note_on_c, 9, 46, 95
8, 55080, Note_off_c, 9, 46, 80
8, 55080, Note_on_c, 9, 46, 95
8, 55200, Note_off_c, 9, 46, 80
8, 55200, Note_on_c, 9, 46, 95
8, 55200, Note_on_c, 9, 36, 95
8, 55680, Note_off_c, 9, 46, 80
8, 55680, Note_off_c, 9, 36, 80
8, 55680, Note_on_c, 9, 46, 95
8, 55680, Note_on_c, 9, 36, 95
8, 55800, Note_off_c, 9, 46, 80
8, 55800, Note_off_c, 9, 36, 80
8, 55800, Note_on_c, 9, 46, 95
8, 55920, Note_off_c, 9, 46, 80
8, 55920, Note_on_c, 9, 46, 95
8, 56040, Note_off_c, 9, 46, 80
8, 56040, Note_on_c, 9, 46, 95
8, 56160, Note_off_c, 9, 46, 80
8, 56160, Note_on_c, 9, 46, 95
8, 56160, Note_on_c, 9, 36, 95
8, 56640, Note_off_c, 9, 46, 80
8, 56640, Note_off_c, 9, 36, 80
8, 56640, Note_on_c, 9, 46, 95
8, 56640, Note_on_c, 9, 36, 95
8, 56760, Note_off_c, 9, 46, 80
8, 56760, Note_off_c, 9, 36, 80
8, 56760, Note_on_c, 9, 46, 95
8, 56880, Note_off_c, 9, 46, 80
8, 56880, Note_on_c, 9, 46, 95
8, 57000, Note_off_c, 9, 46, 80
8, 57000, Note_on_c, 9, 46, 95
8, 57120, Note_off_c, 9, 46, 80
8, 57120, Note_on_c, 9, 46, 95
8, 57120, Note_on_c, 9, 36, 95
8, 57600, Note_off_c, 9, 46, 80
8, 57600, Note_off_c, 9, 36, 80
8, 57600, Note_on_c, 9, 46, 95
8, 57600, Note_on_c, 9, 36, 95
8, 57720, Note_off_c, 9, 46, 80
8, 57720, Note_off_c, 9, 36, 80
8, 57720, Note_on_c, 9, 46, 95
8, 57840, Note_off_c, 9, 46, 80
8, 57840, Note_on_c, 9, 46, 95
8, 57960, Note_off_c, 9, 46, 80
8, 57960, Note_on_c, 9, 46, 95
8, 58080, Note_off_c, 9, 46, 80
8, 58080, Note_on_c, 9, 42, 95
8, 58080, Note_on_c, 9, 38, 95
8, 58080, Note_on_c, 9, 36, 95
8, 58320, Note_off_c, 9, 42, 80
8, 58320, Note_off_c, 9, 38, 80
8, 58320, Note_off_c, 9, 36, 80
8, 58320, Note_on_c, 9, 42, 95
8, 58560, Note_off_c, 9, 42, 80
8, 58560, Note_on_c, 9, 46, 95
8, 58560, Note_on_c, 9, 36, 95
8, 58680, Note_off_c, 9, 46, 80
8, 58680, Note_off_c, 9, 36, 80
8, 58680, Note_on_c, 9, 46, 95
8, 58800, Note_off_c, 9, 46, 80
8, 58800, Note_on_c, 9, 46, 95
8, 58920, Note_off_c, 9, 46, 80
8, 58920, Note_on_c, 9, 46, 95
8, 59040, Note_off_c, 9, 46, 80
8, 59040, Note_on_c, 9, 42, 95
8, 59040, Note_on_c, 9, 38, 95
8, 59040, Note_on_c, 9, 36, 95
8, 59280, Note_off_c, 9, 42, 80
8, 59280, Note_off_c, 9, 38, 80
8, 59280, Note_off_c, 9, 36, 80
8, 59280, Note_on_c, 9, 42, 95
8, 59520, Note_off_c, 9, 42, 80
8, 59520, Note_on_c, 9, 46, 95
8, 59520, Note_on_c, 9, 36, 95
8, 59640, Note_off_c, 9, 46, 80
8, 59640, Note_off_c, 9, 36, 80
8, 59640, Note_on_c, 9, 46, 95
8, 59760, Note_off_c, 9, 46, 80
8, 59760, Note_on_c, 9, 46, 95
8, 59880, Note_off_c, 9, 46, 80
8, 59880, Note_on_c, 9, 46, 95
8, 60000, Note_off_c, 9, 46, 80
8, 60000, Note_on_c, 9, 42, 95
8, 60000, Note_on_c, 9, 38, 95
8, 60000, Note_on_c, 9, 36, 95
8, 60240, Note_off_c, 9, 42, 80
8, 60240, Note_off_c, 9, 38, 80
8, 60240, Note_off_c, 9, 36, 80
8, 60240, Note_on_c, 9, 42, 95
8, 60480, Note_off_c, 9, 42, 80
8, 60480, Note_on_c, 9, 46, 95
8, 60480, Note_on_c, 9, 36, 95
8, 60600, Note_off_c, 9, 46, 80
8, 60600, Note_off_c, 9, 36, 80
8, 60600, Note_on_c, 9, 46, 95
8, 60720, Note_off_c, 9, 46, 80
8, 60720, Note_on_c, 9, 46, 95
8, 60840, Note_off_c, 9, 46, 80
8, 60840, Note_on_c, 9, 46, 95
8, 60960, Note_off_c, 9, 46, 80
8, 60960, Note_on_c, 9, 42, 95
8, 60960, Note_on_c, 9, 38, 95
8, 60960, Note_on_c, 9, 36, 95
8, 61200, Note_off_c, 9, 42, 80
8, 61200, Note_off_c, 9, 38, 80
8, 61200, Note_off_c, 9, 36, 80
8, 61200, Note_on_c, 9, 42, 95
8, 61440, Note_off_c, 9, 42, 80
8, 61440, Note_on_c, 9, 46, 95
8, 61440, Note_on_c, 9, 36, 95
8, 61560, Note_off_c, 9, 46, 80
8, 61560, Note_off_c, 9, 36, 80
8, 61560, Note_on_c, 9, 46, 95
8, 61680, Note_off_c, 9, 46, 80
8, 61680, Note_on_c, 9, 46, 95
8, 61800, Note_off_c, 9, 46, 80
8, 61800, Note_on_c, 9, 46, 95
8, 61920, Note_off_c, 9, 46, 80
8, 61920, Note_on_c, 9, 42, 95
8, 61920, Note_on_c, 9, 38, 95
8, 61920, Note_on_c, 9, 36, 95
8, 62160, Note_off_c, 9, 42, 80
8, 62160, Note_off_c, 9, 38, 80
8, 62160, Note_off_c, 9, 36, 80
8, 62160, Note_on_c, 9, 42, 95
8, 62400, Note_off_c, 9, 42, 80
8, 62400, Note_on_c, 9, 46, 95
8, 62400, Note_on_c, 9, 36, 95
8, 62520, Note_off_c, 9, 46, 80
8, 62520, Note_off_c, 9, 36, 80
8, 62520, Note_on_c, 9, 46, 95
8, 62640, Note_off_c, 9, 46, 80
8, 62640, Note_on_c, 9, 46, 95
8, 62760, Note_off_c, 9, 46, 80
8, 62760, Note_on_c, 9, 46, 95
8, 62880, Note_off_c, 9, 46, 80
8, 62880, Note_on_c, 9, 42, 95
8, 62880, Note_on_c, 9, 38, 95
8, 62880, Note_on_c, 9, 36, 95
8, 63120, Note_off_c, 9, 42, 80
8, 63120, Note_off_c, 9, 38, 80
8, 63120, Note_off_c, 9, 36, 80
8, 63120, Note_on_c, 9, 42, 95
8, 63360, Note_off_c, 9, 42, 80
8, 63360, Note_on_c, 9, 46, 95
8, 63360, Note_on_c, 9, 36, 95
8, 63480, Note_off_c, 9, 46, 80
8, 63480, Note_off_c, 9, 36, 80
8, 63480, Note_on_c, 9, 46, 95
8, 63600, Note_off_c, 9, 46, 80
8, 63600, Note_on_c, 9, 46, 95
8, 63720, Note_off_c, 9, 46, 80
8, 63720, Note_on_c, 9, 46, 95
8, 63840, Note_off_c, 9, 46, 80
8, 63840, Note_on_c, 9, 42, 95
8, 63840, Note_on_c, 9, 38, 95
8, 63840, Note_on_c, 9, 36, 95
8, 64080, Note_off_c, 9, 42, 80
8, 64080, Note_off_c, 9, 38, 80
8, 64080, Note_off_c, 9, 36, 80
8, 64080, Note_on_c, 9, 42, 95
8, 64320, Note_off_c, 9, 42, 80
8, 64320, Note_on_c, 9, 46, 95
8, 64320, Note_on_c, 9, 36, 95
8, 64440, Note_off_c, 9, 46, 80
8, 64440, Note_off_c, 9, 36, 80
8, 64440, Note_on_c, 9, 46, 95
8, 64560, Note_off_c, 9, 46, 80
8, 64560, Note_on_c, 9, 46, 95
8, 64680, Note_off_c, 9, 46, 80
8, 64680, Note_on_c, 9, 46, 95
8, 64800, Note_off_c, 9, 46, 80
8, 64800, Note_on_c, 9, 42, 95
8, 64800, Note_on_c, 9, 38, 95
8, 64800, Note_on_c, 9, 36, 95
8, 65040, Note_off_c, 9, 42, 80
8, 65040, Note_off_c, 9, 38, 80
8, 65040, Note_off_c, 9, 36, 80
8, 65040, Note_on_c, 9, 42, 95
8, 65280, Note_off_c, 9, 42, 80
8, 65280, Note_on_c, 9, 46, 95
8, 65280, Note_on_c, 9, 36, 95
8, 65400, Note_off_c, 9, 46, 80
8, 65400, Note_off_c, 9, 36, 80
8, 65400, Note_on_c, 9, 46, 95
8, 65520, Note_off_c, 9, 46, 80
8, 65520, Note_on_c, 9, 46, 95
8, 65640, Note_off_c, 9, 46, 80
8, 65640, Note_on_c, 9, 46, 95
8, 65760, Note_off_c, 9, 46, 80
8, 65760, Note_on_c, 9, 42, 95
8, 65760, Note_on_c, 9, 38, 95
8, 65760, Note_on_c, 9, 36, 95
8, 66000, Note_off_c, 9, 42, 80
8, 66000, Note_off_c, 9, 38, 80
8, 66000, Note_off_c, 9, 36, 80
8, 66000, Note_on_c, 9, 42, 95
8, 66240, Note_off_c, 9, 42, 80
8, 66240, Note_on_c, 9, 46, 95
8, 66240, Note_on_c, 9, 36, 95
8, 66360, Note_off_c, 9, 46, 80
8, 66360, Note_off_c, 9, 36, 80
8, 66360, Note_on_c, 9, 46, 95
8, 66480, Note_off_c, 9, 46, 80
8, 66480, Note_on_c, 9, 46, 95
8, 66600, Note_off_c, 9, 46, 80
8, 66600, Note_on_c, 9, 46, 95
8, 66720, Note_off_c, 9, 46, 80
8, 66720, Note_on_c, 9, 42, 95
8, 66720, Note_on_c, 9, 38, 95
8, 66720, Note_on_c, 9, 36, 95
8, 66960, Note_off_c, 9, 42, 80
8, 66960, Note_off_c, 9, 38, 80
8, 66960, Note_off_c, 9, 36, 80
8, 66960, Note_on_c, 9, 42, 95
8, 67200, Note_off_c, 9, 42, 80
8, 67200, Note_on_c, 9, 46, 95
8, 67200, Note_on_c, 9, 36, 95
8, 67320, Note_off_c, 9, 46, 80
8, 67320, Note_off_c, 9, 36, 80
8, 67320, Note_on_c, 9, 46, 95
8, 67440, Note_off_c, 9, 46, 80
8, 67440, Note_on_c, 9, 46, 95
8, 67560, Note_off_c, 9, 46, 80
8, 67560, Note_on_c, 9, 46, 95
8, 67680, Note_off_c, 9, 46, 80
8, 67680, Note_on_c, 9, 42, 95
8, 67680, Note_on_c, 9, 38, 95
8, 67680, Note_on_c, 9, 36, 95
8, 67920, Note_off_c, 9, 42, 80
8, 67920, Note_off_c, 9, 38, 80
8, 67920, Note_off_c, 9, 36, 80
8, 67920, Note_on_c, 9, 42, 95
8, 68160, Note_off_c, 9, 42, 80
8, 68160, Note_on_c, 9, 46, 95
8, 68160, Note_on_c, 9, 36, 95
8, 68280, Note_off_c, 9, 46, 80
8, 68280, Note_off_c, 9, 36, 80
8, 68280, Note_on_c, 9, 46, 95
8, 68400, Note_off_c, 9, 46, 80
8, 68400, Note_on_c, 9, 46, 95
8, 68520, Note_off_c, 9, 46, 80
8, 68520, Note_on_c, 9, 46, 95
8, 68640, Note_off_c, 9, 46, 80
8, 68640, Note_on_c, 9, 42, 95
8, 68640, Note_on_c, 9, 38, 95
8, 68640, Note_on_c, 9, 36, 95
8, 68880, Note_off_c, 9, 42, 80
8, 68880, Note_off_c, 9, 38, 80
8, 68880, Note_off_c, 9, 36, 80
8, 68880, Note_on_c, 9, 42, 95
8, 69120, Note_off_c, 9, 42, 80
8, 69120, Note_on_c, 9, 46, 95
8, 69120, Note_on_c, 9, 36, 95
8, 69240, Note_off_c, 9, 46, 80
8, 69240, Note_off_c, 9, 36, 80
8, 69240, Note_on_c, 9, 46, 95
8, 69360, Note_off_c, 9, 46, 80
8, 69360, Note_on_c, 9, 46, 95
8, 69480, Note_off_c, 9, 46, 80
8, 69480, Note_on_c, 9, 46, 95
8, 69600, Note_off_c, 9, 46, 80
8, 69600, Note_on_c, 9, 42, 95
8, 69600, Note_on_c, 9, 38, 95
8, 69600, Note_on_c, 9, 36, 95
8, 69840, Note_off_c, 9, 42, 80
8, 69840, Note_off_c, 9, 38, 80
8, 69840, Note_off_c, 9, 36, 80
8, 69840, Note_on_c, 9, 42, 95
8, 70080, Note_off_c, 9, 42, 80
8, 70080, Note_on_c, 9, 46, 95
8, 70080, Note_on_c, 9, 36, 95
8, 70200, Note_off_c, 9, 46, 80
8, 70200, Note_off_c, 9, 36, 80
8, 70200, Note_on_c, 9, 46, 95
8, 70320, Note_off_c, 9, 46, 80
8, 70320, Note_on_c, 9, 46, 95
8, 70440, Note_off_c, 9, 46, 80
8, 70440, Note_on_c, 9, 46, 95
8, 70560, Note_off_c, 9, 46, 80
8, 70560, Note_on_c, 9, 42, 95
8, 70560, Note_on_c, 9, 38, 95
8, 70560, Note_on_c, 9, 36, 95
8, 70800, Note_off_c, 9, 42, 80
8, 70800, Note_off_c, 9, 38, 80
8, 70800, Note_off_c, 9, 36, 80
8, 70800, Note_on_c, 9, 42, 95
8, 71040, Note_off_c, 9, 42, 80
8, 71040, Note_on_c, 9, 46, 95
8, 71040, Note_on_c, 9, 36, 95
8, 71160, Note_off_c, 9, 46, 80
8, 71160, Note_off_c, 9, 36, 80
8, 71160, Note_on_c, 9, 46, 95
8, 71280, Note_off_c, 9, 46, 80
8, 71280, Note_on_c, 9, 46, 95
8, 71400, Note_off_c, 9, 46, 80
8, 71400, Note_on_c, 9, 46, 95
8, 71520, Note_off_c, 9, 46, 80
8, 71520, Note_on_c, 9, 42, 95
8, 71520, Note_on_c, 9, 38, 95
8, 71520, Note_on_c, 9, 36, 95
8, 71760, Note_off_c, 9, 42, 80
8, 71760, Note_off_c, 9, 38, 80
8, 71760, Note_off_c, 9, 36, 80
8, 71760, Note_on_c, 9, 42, 95
8, 72000, Note_off_c, 9, 42, 80
8, 72000, Note_on_c, 9, 46, 95
8, 72000, Note_on_c, 9, 36, 95
8, 72120, Note_off_c, 9, 46, 80
8, 72120, Note_off_c, 9, 36, 80
8, 72120, Note_on_c, 9, 46, 95
8, 72240, Note_off_c, 9, 46, 80
8, 72240, Note_on_c, 9, 46, 95
8, 72360, Note_off_c, 9, 46, 80
8, 72360, Note_on_c, 9, 46, 95
8, 72480, Note_off_c, 9, 46, 80
8, 72480, Note_on_c, 9, 42, 95
8, 72480, Note_on_c, 9, 38, 95
8, 72480, Note_on_c, 9, 36, 95
8, 72720, Note_off_c, 9, 42, 80
8, 72720, Note_off_c, 9, 38, 80
8, 72720, Note_off_c, 9, 36, 80
8, 72720, Note_on_c, 9, 42, 95
8, 72960, Note_off_c, 9, 42, 80
8, 72960, Note_on_c, 9, 46, 95
8, 72960, Note_on_c, 9, 36, 95
8, 73080, Note_off_c, 9, 46, 80
8, 73080, Note_off_c, 9, 36, 80
8, 73080, Note_on_c, 9, 46, 95
8, 73200, Note_off_c, 9, 46, 80
8, 73200, Note_on_c, 9, 46, 95
8, 73320, Note_off_c, 9, 46, 80
8, 73320, Note_on_c, 9, 46, 95
8, 73440, Note_off_c, 9, 46, 80
8, 73440, Note_on_c, 9, 42, 95
8, 73440, Note_on_c, 9, 38, 95
8, 73440, Note_on_c, 9, 36, 95
8, 73680, Note_off_c, 9, 42, 80
8, 73680, Note_off_c, 9, 38, 80
8, 73680, Note_off_c, 9, 36, 80
8, 73680, Note_on_c, 9, 42, 95
8, 73920, Note_off_c, 9, 42, 80
8, 73920, Note_on_c, 9, 46, 95
8, 73920, Note_on_c, 9, 36, 95
8, 74040, Note_off_c, 9, 46, 80
8, 74040, Note_off_c, 9, 36, 80
8, 74040, Note_on_c, 9, 46, 95
8, 74160, Note_off_c, 9, 46, 80
8, 74160, Note_on_c, 9, 46, 95
8, 74280, Note_off_c, 9, 46, 80
8, 74280, Note_on_c, 9, 46, 95
8, 74400, Note_off_c, 9, 46, 80
8, 74400, Note_on_c, 9, 42, 95
8, 74400, Note_on_c, 9, 38, 95
8, 74400, Note_on_c, 9, 36, 95
8, 74640, Note_off_c, 9, 42, 80
8, 74640, Note_off_c, 9, 38, 80
8, 74640, Note_off_c, 9, 36, 80
8, 74640, Note_on_c, 9, 42, 95
8, 74880, Note_off_c, 9, 42, 80
8, 74880, Note_on_c, 9, 46, 95
8, 74880, Note_on_c, 9, 36, 95
8, 75000, Note_off_c, 9, 46, 80
8, 75000, Note_off_c, 9, 36, 80
8, 75000, Note_on_c, 9, 46, 95
8, 75120, Note_off_c, 9, 46, 80
8, 75120, Note_on_c, 9, 46, 95
8, 75240, Note_off_c, 9, 46, 80
8, 75240, Note_on_c, 9, 46, 95
8, 75360, Note_off_c, 9, 46, 80
8, 75360, Note_on_c, 9, 42, 95
8, 75360, Note_on_c, 9, 38, 95
8, 75360, Note_on_c, 9, 36, 95
8, 75600, Note_off_c, 9, 42, 80
8, 75600, Note_off_c, 9, 38, 80
8, 75600, Note_off_c, 9, 36, 80
8, 75600, Note_on_c, 9, 42, 95
8, 75840, Note_off_c, 9, 42, 80
8, 75840, Note_on_c, 9, 46, 95
8, 75840, Note_on_c, 9, 36, 95
8, 75960, Note_off_c, 9, 46, 80
8, 75960, Note_off_c, 9, 36, 80
8, 75960, Note_on_c, 9, 46, 95
8, 76080, Note_off_c, 9, 46, 80
8, 76080, Note_on_c, 9, 46, 95
8, 76200, Note_off_c, 9, 46, 80
8, 76200, Note_on_c, 9, 46, 95
8, 76320, Note_off_c, 9, 46, 80
8, 76320, Note_on_c, 9, 42, 95
8, 76320, Note_on_c, 9, 38, 95
8, 76320, Note_on_c, 9, 36, 95
8, 76560, Note_off_c, 9, 42, 80
8, 76560, Note_off_c, 9, 38, 80
8, 76560, Note_off_c, 9, 36, 80
8, 76560, Note_on_c, 9, 42, 95
8, 76800, Note_off_c, 9, 42, 80
8, 76800, Note_on_c, 9, 46, 95
8, 76800, Note_on_c, 9, 36, 95
8, 76920, Note_off_c, 9, 46, 80
8, 76920, Note_off_c, 9, 36, 80
8, 76920, Note_on_c, 9, 46, 95
8, 77040, Note_off_c, 9, 46, 80
8, 77040, Note_on_c, 9, 46, 95
8, 77160, Note_off_c, 9, 46, 80
8, 77160, Note_on_c, 9, 46, 95
8, 77280, Note_off_c, 9, 46, 80
8, 77280, Note_on_c, 9, 42, 95
8, 77280, Note_on_c, 9, 38, 95
8, 77280, Note_on_c, 9, 36, 95
8, 77520, Note_off_c, 9, 42, 80
8, 77520, Note_off_c, 9, 38, 80
8, 77520, Note_off_c, 9, 36, 80
8, 77520, Note_on_c, 9, 42, 95
8, 77760, Note_off_c, 9, 42, 80
8, 77760, Note_on_c, 9, 46, 95
8, 77760, Note_on_c, 9, 36, 95
8, 77880, Note_off_c, 9, 46, 80
8, 77880, Note_off_c, 9, 36, 80
8, 77880, Note_on_c, 9, 46, 95
8, 78000, Note_off_c, 9, 46, 80
8, 78000, Note_on_c, 9, 46, 95
8, 78120, Note_off_c, 9, 46, 80
8, 78120, Note_on_c, 9, 46, 95
8, 78240, Note_off_c, 9, 46, 80
8, 78240, Note_on_c, 9, 42, 95
8, 78240, Note_on_c, 9, 38, 95
8, 78240, Note_on_c, 9, 36, 95
8, 78480, Note_off_c, 9, 42, 80
8, 78480, Note_off_c, 9, 38, 80
8, 78480, Note_off_c, 9, 36, 80
8, 78480, Note_on_c, 9, 42, 95
8, 78720, Note_off_c, 9, 42, 80
8, 78720, Note_on_c, 9, 46, 95
8, 78720, Note_on_c, 9, 36, 95
8, 78780, Note_off_c, 9, 46, 80
8, 78780, Note_off_c, 9, 36, 80
8, 78780, Note_on_c, 9, 46, 95
8, 78840, Note_off_c, 9, 46, 80
8, 78840, Note_on_c, 9, 46, 95
8, 78900, Note_off_c, 9, 46, 80
8, 78900, Note_on_c, 9, 46, 95
8, 78960, Note_off_c, 9, 46, 80
8, 78960, Note_on_c, 9, 46, 95
8, 79020, Note_off_c, 9, 46, 80
8, 79020, Note_on_c, 9, 46, 95
8, 79080, Note_off_c, 9, 46, 80
8, 79080, Note_on_c, 9, 46, 95
8, 79140, Note_off_c, 9, 46, 80
8, 79140, Note_on_c, 9, 46, 95
8, 79200, Note_off_c, 9, 46, 80
8, 79200, Note_on_c, 9, 42, 95
8, 79200, Note_on_c, 9, 36, 95
8, 79440, Note_off_c, 9, 42, 80
8, 79440, Note_off_c, 9, 36, 80
8, 79440, Note_on_c, 9, 42, 95
8, 79560, Note_off_c, 9, 42, 80
8, 79560, Note_on_c, 9, 42, 95
8, 79680, Note_off_c, 9, 42, 80
8, 79680, Note_on_c, 9, 46, 95
8, 79680, Note_on_c, 9, 36, 95
8, 79740, Note_off_c, 9, 46, 80
8, 79740, Note_off_c, 9, 36, 80
8, 79740, Note_on_c, 9, 46, 95
8, 79800, Note_off_c, 9, 46, 80
8, 79800, Note_on_c, 9, 46, 95
8, 79860, Note_off_c, 9, 46, 80
8, 79860, Note_on_c, 9, 46, 95
8, 79920, Note_off_c, 9, 46, 80
8, 79920, Note_on_c, 9, 46, 95
8, 79980, Note_off_c, 9, 46, 80
8, 79980, Note_on_c, 9, 46, 95
8, 80040, Note_off_c, 9, 46, 80
8, 80040, Note_on_c, 9, 46, 95
8, 80100, Note_off_c, 9, 46, 80
8, 80100, Note_on_c, 9, 46, 95
8, 80160, Note_off_c, 9, 46, 80
8, 80160, Note_on_c, 9, 42, 95
8, 80160, Note_on_c, 9, 36, 95
8, 80400, Note_off_c, 9, 42, 80
8, 80400, Note_off_c, 9, 36, 80
8, 80400, Note_on_c, 9, 42, 95
8, 80520, Note_off_c, 9, 42, 80
8, 80520, Note_on_c, 9, 42, 95
8, 80640, Note_off_c, 9, 42, 80
8, 80640, Note_on_c, 9, 46, 95
8, 80640, Note_on_c, 9, 36, 95
8, 80700, Note_off_c, 9, 46, 80
8, 80700, Note_off_c, 9, 36, 80
8, 80700, Note_on_c, 9, 46, 95
8, 80760, Note_off_c, 9, 46, 80
8, 80760, Note_on_c, 9, 46, 95
8, 80820, Note_off_c, 9, 46, 80
8, 80820, Note_on_c, 9, 46, 95
8, 80880, Note_off_c, 9, 46, 80
8, 80880, Note_on_c, 9, 46, 95
8, 80940, Note_off_c, 9, 46, 80
8, 80940, Note_on_c, 9, 46, 95
8, 81000, Note_off_c, 9, 46, 80
8, 81000, Note_on_c, 9, 46, 95
8, 81060, Note_off_c, 9, 46, 80
8, 81060, Note_on_c, 9, 46, 95
8, 81120, Note_off_c, 9, 46, 80
8, 81120, Note_on_c, 9, 42, 95
8, 81120, Note_on_c, 9, 36, 95
8, 81360, Note_off_c, 9, 42, 80
8, 81360, Note_off_c, 9, 36, 80
8, 81360, Note_on_c, 9, 42, 95
8, 81480, Note_off_c, 9, 42, 80
8, 81480, Note_on_c, 9, 42, 95
8, 81600, Note_off_c, 9, 42, 80
8, 81600, Note_on_c, 9, 46, 95
8, 81600, Note_on_c, 9, 36, 95
8, 81660, Note_off_c, 9, 46, 80
8, 81660, Note_off_c, 9, 36, 80
8, 81660, Note_on_c, 9, 46, 95
8, 81720, Note_off_c, 9, 46, 80
8, 81720, Note_on_c, 9, 46, 95
8, 81780, Note_off_c, 9, 46, 80
8, 81780, Note_on_c, 9, 46, 95
8, 81840, Note_off_c, 9, 46, 80
8, 81840, Note_on_c, 9, 46, 95
8, 81900, Note_off_c, 9, 46, 80
8, 81900, Note_on_c, 9, 46, 95
8, 81960, Note_off_c, 9, 46, 80
8, 81960, Note_on_c, 9, 46, 95
8, 82020, Note_off_c, 9, 46, 80
8, 82020, Note_on_c, 9, 46, 95
8, 82080, Note_off_c, 9, 46, 80
8, 82080, Note_on_c, 9, 42, 95
8, 82080, Note_on_c, 9, 36, 95
8, 82320, Note_off_c, 9, 42, 80
8, 82320, Note_off_c, 9, 36, 80
8, 82320, Note_on_c, 9, 42, 95
8, 82440, Note_off_c, 9, 42, 80
8, 82440, Note_on_c, 9, 42, 95
8, 82560, Note_off_c, 9, 42, 80
8, 82560, Note_on_c, 9, 46, 95
8, 82560, Note_on_c, 9, 36, 95
8, 82620, Note_off_c, 9, 46, 80
8, 82620, Note_off_c, 9, 36, 80
8, 82620, Note_on_c, 9, 46, 95
8, 82680, Note_off_c, 9, 46, 80
8, 82680, Note_on_c, 9, 46, 95
8, 82740, Note_off_c, 9, 46, 80
8, 82740, Note_on_c, 9, 46, 95
8, 82800, Note_off_c, 9, 46, 80
8, 82800, Note_on_c, 9, 46, 95
8, 82860, Note_off_c, 9, 46, 80
8, 82860, Note_on_c, 9, 46, 95
8, 82920, Note_off_c, 9, 46, 80
8, 82920, Note_on_c, 9, 46, 95
8, 82980, Note_off_c, 9, 46, 80
8, 82980, Note_on_c, 9, 46, 95
8, 83040, Note_off_c, 9, 46, 80
8, 83040, Note_on_c, 9, 42, 95
8, 83040, Note_on_c, 9, 36, 95
8, 83280, Note_off_c, 9, 42, 80
8, 83280, Note_off_c, 9, 36, 80
8, 83280, Note_on_c, 9, 42, 95
8, 83400, Note_off_c, 9, 42, 80
8, 83400, Note_on_c, 9, 42, 95
8, 83520, Note_off_c, 9, 42, 80
8, 83520, Note_on_c, 9, 46, 95
8, 83520, Note_on_c, 9, 36, 95
8, 83580, Note_off_c, 9, 46, 80
8, 83580, Note_off_c, 9, 36, 80
8, 83580, Note_on_c, 9, 46, 95
8, 83640, Note_off_c, 9, 46, 80
8, 83640, Note_on_c, 9, 46, 95
8, 83700, Note_off_c, 9, 46, 80
8, 83700, Note_on_c, 9, 46, 95
8, 83760, Note_off_c, 9, 46, 80
8, 83760, Note_on_c, 9, 46, 95
8, 83820, Note_off_c, 9, 46, 80
8, 83820, Note_on_c, 9, 46, 95
8, 83880, Note_off_c, 9, 46, 80
8, 83880, Note_on_c, 9, 46, 95
8, 83940, Note_off_c, 9, 46, 80
8, 83940, Note_on_c, 9, 46, 95
8, 84000, Note_off_c, 9, 46, 80
8, 84000, Note_on_c, 9, 42, 95
8, 84000, Note_on_c, 9, 36, 95
8, 84240, Note_off_c, 9, 42, 80
8, 84240, Note_off_c, 9, 36, 80
8, 84240, Note_on_c, 9, 42, 95
8, 84360, Note_off_c, 9, 42, 80
8, 84360, Note_on_c, 9, 42, 95
8, 84480, Note_off_c, 9, 42, 80
8, 84480, Note_on_c, 9, 42, 95
8, 84480, Note_on_c, 9, 36, 95
8, 84720, Note_off_c, 9, 42, 80
8, 84720, Note_off_c, 9, 36, 80
8, 84720, Note_on_c, 9, 42, 95
8, 84960, Note_off_c, 9, 42, 80
8, 84960, Note_on_c, 9, 42, 95
8, 84960, Note_on_c, 9, 38, 95
8, 84960, Note_on_c, 9, 36, 95
8, 85200, Note_off_c, 9, 42, 80
8, 85200, Note_off_c, 9, 38, 80
8, 85200, Note_off_c, 9, 36, 80
8, 85200, Note_on_c, 9, 42, 95
8, 85440, Note_off_c, 9, 42, 80
8, 85440, Note_on_c, 9, 42, 95
8, 85440, Note_on_c, 9, 36, 95
8, 85680, Note_off_c, 9, 42, 80
8, 85680, Note_off_c, 9, 36, 80
8, 85680, Note_on_c, 9, 42, 95
8, 85920, Note_off_c, 9, 42, 80
8, 85920, Note_on_c, 9, 42, 95
8, 85920, Note_on_c, 9, 38, 95
8, 85920, Note_on_c, 9, 36, 95
8, 86160, Note_off_c, 9, 42, 80
8, 86160, Note_off_c, 9, 38, 80
8, 86160, Note_off_c, 9, 36, 80
8, 86160, Note_on_c, 9, 42, 95
8, 86400, Note_off_c, 9, 42, 80
8, 86400, Note_on_c, 9, 42, 95
8, 86400, Note_on_c, 9, 36, 95
8, 86640, Note_off_c, 9, 42, 80
8, 86640, Note_off_c, 9, 36, 80
8, 86640, Note_on_c, 9, 42, 95
8, 86880, Note_off_c, 9, 42, 80
8, 86880, Note_on_c, 9, 42, 95
8, 86880, Note_on_c, 9, 38, 95
8, 86880, Note_on_c, 9, 36, 95
8, 87120, Note_off_c, 9, 42, 80
8, 87120, Note_off_c, 9, 38, 80
8, 87120, Note_off_c, 9, 36, 80
8, 87120, Note_on_c, 9, 42, 95
8, 87360, Note_off_c, 9, 42, 80
8, 87360, Note_on_c, 9, 42, 95
8, 87360, Note_on_c, 9, 36, 95
8, 87600, Note_off_c, 9, 42, 80
8, 87600, Note_off_c, 9, 36, 80
8, 87600, Note_on_c, 9, 42, 95
8, 87840, Note_off_c, 9, 42, 80
8, 87840, Note_on_c, 9, 42, 95
8, 87840, Note_on_c, 9, 38, 95
8, 87840, Note_on_c, 9, 36, 95
8, 88080, Note_off_c, 9, 42, 80
8, 88080, Note_off_c, 9, 38, 80
8, 88080, Note_off_c, 9, 36, 80
8, 88080, Note_on_c, 9, 42, 95
8, 88320, Note_off_c, 9, 42, 80
8, 88320, Note_on_c, 9, 42, 95
8, 88320, Note_on_c, 9, 36, 95
8, 88560, Note_off_c, 9, 42, 80
8, 88560, Note_off_c, 9, 36, 80
8, 88560, Note_on_c, 9, 42, 95
8, 88800, Note_off_c, 9, 42, 80
8, 88800, Note_on_c, 9, 42, 95
8, 88800, Note_on_c, 9, 38, 95
8, 88800, Note_on_c, 9, 36, 95
8, 89040, Note_off_c, 9, 42, 80
8, 89040, Note_off_c, 9, 38, 80
8, 89040, Note_off_c, 9, 36, 80
8, 89040, Note_on_c, 9, 42, 95
8, 89280, Note_off_c, 9, 42, 80
8, 89280, Note_on_c, 9, 42, 95
8, 89280, Note_on_c, 9, 36, 95
8, 89520, Note_off_c, 9, 42, 80
8, 89520, Note_off_c, 9, 36, 80
8, 89520, Note_on_c, 9, 42, 95
8, 89760, Note_off_c, 9, 42, 80
8, 89760, Note_on_c, 9, 42, 95
8, 89760, Note_on_c, 9, 38, 95
8, 89760, Note_on_c, 9, 36, 95
8, 90000, Note_off_c, 9, 42, 80
8, 90000, Note_off_c, 9, 38, 80
8, 90000, Note_off_c, 9, 36, 80
8, 90000, Note_on_c, 9, 42, 95
8, 90240, Note_off_c, 9, 42, 80
8, 90240, Note_on_c, 9, 42, 95
8, 90240, Note_on_c, 9, 36, 95
8, 90480, Note_off_c, 9, 42, 80
8, 90480, Note_off_c, 9, 36, 80
8, 90480, Note_on_c, 9, 42, 95
8, 90720, Note_off_c, 9, 42, 80
8, 90720, Note_on_c, 9, 42, 95
8, 90720, Note_on_c, 9, 38, 95
8, 90720, Note_on_c, 9, 36, 95
8, 90960, Note_off_c, 9, 42, 80
8, 90960, Note_off_c, 9, 38, 80
8, 90960, Note_off_c, 9, 36, 80
8, 90960, Note_on_c, 9, 42, 95
8, 91200, Note_off_c, 9, 42, 80
8, 91200, Note_on_c, 9, 42, 95
8, 91200, Note_on_c, 9, 36, 95
8, 91440, Note_off_c, 9, 42, 80
8, 91440, Note_off_c, 9, 36, 80
8, 91440, Note_on_c, 9, 42, 95
8, 91680, Note_off_c, 9, 42, 80
8, 91680, Note_on_c, 9, 42, 95
8, 91680, Note_on_c, 9, 38, 95
8, 91680, Note_on_c, 9, 36, 95
8, 91920, Note_off_c, 9, 42, 80
8, 91920, Note_off_c, 9, 38, 80
8, 91920, Note_off_c, 9, 36, 80
8, 91920, Note_on_c, 9, 42, 95
8, 92160, Note_off_c, 9, 42, 80
8, 92160, Note_on_c, 9, 42, 95
8, 92160, Note_on_c, 9, 36, 95
8, 92400, Note_off_c, 9, 42, 80
8, 92400, Note_off_c, 9, 36, 80
8, 92400, Note_on_c, 9, 42, 95
8, 92640, Note_off_c, 9, 42, 80
8, 92640, Note_on_c, 9, 42, 95
8, 92640, Note_on_c, 9, 38, 95
8, 92640, Note_on_c, 9, 36, 95
8, 92880, Note_off_c, 9, 42, 80
8, 92880, Note_off_c, 9, 38, 80
8, 92880, Note_off_c, 9, 36, 80
8, 92880, Note_on_c, 9, 42, 95
8, 93120, Note_off_c, 9, 42, 80
8, 93120, Note_on_c, 9, 42, 95
8, 93120, Note_on_c, 9, 36, 95
8, 93360, Note_off_c, 9, 42, 80
8, 93360, Note_off_c, 9, 36, 80
8, 93360, Note_on_c, 9, 42, 95
8, 93600, Note_off_c, 9, 42, 80
8, 93600, Note_on_c, 9, 42, 95
8, 93600, Note_on_c, 9, 38, 95
8, 93600, Note_on_c, 9, 36, 95
8, 93840, Note_off_c, 9, 42, 80
8, 93840, Note_off_c, 9, 38, 80
8, 93840, Note_off_c, 9, 36, 80
8, 93840, Note_on_c, 9, 42, 95
8, 94080, Note_off_c, 9, 42, 80
8, 94080, Note_on_c, 9, 42, 95
8, 94080, Note_on_c, 9, 36, 95
8, 94320, Note_off_c, 9, 42, 80
8, 94320, Note_off_c, 9, 36, 80
8, 94320, Note_on_c, 9, 42, 95
8, 94560, Note_off_c, 9, 42, 80
8, 94560, Note_on_c, 9, 42, 95
8, 94560, Note_on_c, 9, 38, 95
8, 94560, Note_on_c, 9, 36, 95
8, 94800, Note_off_c, 9, 42, 80
8, 94800, Note_off_c, 9, 38, 80
8, 94800, Note_off_c, 9, 36, 80
8, 94800, Note_on_c, 9, 42, 95
8, 95040, Note_off_c, 9, 42, 80
8, 95040, Note_on_c, 9, 42, 95
8, 95040, Note_on_c, 9, 36, 95
8, 95280, Note_off_c, 9, 42, 80
8, 95280, Note_off_c, 9, 36, 80
8, 95280, Note_on_c, 9, 42, 95
8, 95520, Note_off_c, 9, 42, 80
8, 95520, Note_on_c, 9, 42, 95
8, 95520, Note_on_c, 9, 38, 95
8, 95520, Note_on_c, 9, 36, 95
8, 95760, Note_off_c, 9, 42, 80
8, 95760, Note_off_c, 9, 38, 80
8, 95760, Note_off_c, 9, 36, 80
8, 95760, Note_on_c, 9, 42, 95
8, 96000, Note_off_c, 9, 42, 80
8, 96000, Note_on_c, 9, 42, 95
8, 96000, Note_on_c, 9, 36, 95
8, 96240, Note_off_c, 9, 42, 80
8, 96240, Note_off_c, 9, 36, 80
8, 96240, Note_on_c, 9, 42, 95
8, 96480, Note_off_c, 9, 42, 80
8, 96480, Note_on_c, 9, 42, 95
8, 96480, Note_on_c, 9, 38, 95
8, 96480, Note_on_c, 9, 36, 95
8, 96720, Note_off_c, 9, 42, 80
8, 96720, Note_off_c, 9, 38, 80
8, 96720, Note_off_c, 9, 36, 80
8, 96720, Note_on_c, 9, 42, 95
8, 96960, Note_off_c, 9, 42, 80
8, 96960, Note_on_c, 9, 42, 95
8, 96960, Note_on_c, 9, 36, 95
8, 97200, Note_off_c, 9, 42, 80
8, 97200, Note_off_c, 9, 36, 80
8, 97200, Note_on_c, 9, 42, 95
8, 97440, Note_off_c, 9, 42, 80
8, 97440, Note_on_c, 9, 42, 95
8, 97440, Note_on_c, 9, 38, 95
8, 97440, Note_on_c, 9, 36, 95
8, 97680, Note_off_c, 9, 42, 80
8, 97680, Note_off_c, 9, 38, 80
8, 97680, Note_off_c, 9, 36, 80
8, 97680, Note_on_c, 9, 42, 95
8, 97920, Note_off_c, 9, 42, 80
8, 97920, Note_on_c, 9, 42, 95
8, 97920, Note_on_c, 9, 36, 95
8, 98160, Note_off_c, 9, 42, 80
8, 98160, Note_off_c, 9, 36, 80
8, 98160, Note_on_c, 9, 42, 95
8, 98400, Note_off_c, 9, 42, 80
8, 98400, Note_on_c, 9, 42, 95
8, 98400, Note_on_c, 9, 38, 95
8, 98400, Note_on_c, 9, 36, 95
8, 98640, Note_off_c, 9, 42, 80
8, 98640, Note_off_c, 9, 38, 80
8, 98640, Note_off_c, 9, 36, 80
8, 98640, Note_on_c, 9, 42, 95
8, 98880, Note_off_c, 9, 42, 80
8, 98880, Note_on_c, 9, 42, 95
8, 98880, Note_on_c, 9, 36, 95
8, 99120, Note_off_c, 9, 42, 80
8, 99120, Note_off_c, 9, 36, 80
8, 99120, Note_on_c, 9, 42, 95
8, 99360, Note_off_c, 9, 42, 80
8, 99360, Note_on_c, 9, 42, 95
8, 99360, Note_on_c, 9, 38, 95
8, 99360, Note_on_c, 9, 36, 95
8, 99600, Note_off_c, 9, 42, 80
8, 99600, Note_off_c, 9, 38, 80
8, 99600, Note_off_c, 9, 36, 80
8, 99600, Note_on_c, 9, 42, 95
8, 99840, Note_off_c, 9, 42, 80
8, 99840, Note_on_c, 9, 42, 95
8, 99840, Note_on_c, 9, 36, 95
8, 100080, Note_off_c, 9, 42, 80
8, 100080, Note_off_c, 9, 36, 80
8, 100080, Note_on_c, 9, 42, 95
8, 100320, Note_off_c, 9, 42, 80
8, 100320, Note_on_c, 9, 42, 95
8, 100320, Note_on_c, 9, 38, 95
8, 100320, Note_on_c, 9, 36, 95
8, 100560, Note_off_c, 9, 42, 80
8, 100560, Note_off_c, 9, 38, 80
8, 100560, Note_off_c, 9, 36, 80
8, 100560, Note_on_c, 9, 42, 95
8, 100800, Note_off_c, 9, 42, 80
8, 100800, Note_on_c, 9, 42, 95
8, 100800, Note_on_c, 9, 36, 95
8, 101040, Note_off_c, 9, 42, 80
8, 101040, Note_off_c, 9, 36, 80
8, 101040, Note_on_c, 9, 42, 95
8, 101280, Note_off_c, 9, 42, 80
8, 101280, Note_on_c, 9, 42, 95
8, 101280, Note_on_c, 9, 38, 95
8, 101280, Note_on_c, 9, 36, 95
8, 101520, Note_off_c, 9, 42, 80
8, 101520, Note_off_c, 9, 38, 80
8, 101520, Note_off_c, 9, 36, 80
8, 101520, Note_on_c, 9, 42, 95
8, 101760, Note_off_c, 9, 42, 80
8, 101760, Note_on_c, 9, 42, 95
8, 101760, Note_on_c, 9, 36, 95
8, 102000, Note_off_c, 9, 42, 80
8, 102000, Note_off_c, 9, 36, 80
8, 102000, Note_on_c, 9, 42, 95
8, 102240, Note_off_c, 9, 42, 80
8, 102240, Note_on_c, 9, 42, 95
8, 102240, Note_on_c, 9, 38, 95
8, 102240, Note_on_c, 9, 36, 95
8, 102480, Note_off_c, 9, 42, 80
8, 102480, Note_off_c, 9, 38, 80
8, 102480, Note_off_c, 9, 36, 80
8, 102480, Note_on_c, 9, 42, 95
8, 102720, Note_off_c, 9, 42, 80
8, 102720, Note_on_c, 9, 42, 95
8, 102720, Note_on_c, 9, 36, 95
8, 102960, Note_off_c, 9, 42, 80
8, 102960, Note_off_c, 9, 36, 80
8, 102960, Note_on_c, 9, 42, 95
8, 103200, Note_off_c, 9, 42, 80
8, 103200, Note_on_c, 9, 42, 95
8, 103200, Note_on_c, 9, 38, 95
8, 103200, Note_on_c, 9, 36, 95
8, 103440, Note_off_c, 9, 42, 80
8, 103440, Note_off_c, 9, 38, 80
8, 103440, Note_off_c, 9, 36, 80
8, 103440, Note_on_c, 9, 42, 95
8, 103680, Note_off_c, 9, 42, 80
8, 103680, Note_on_c, 9, 42, 95
8, 103680, Note_on_c, 9, 36, 95
8, 103920, Note_off_c, 9, 42, 80
8, 103920, Note_off_c, 9, 36, 80
8, 103920, Note_on_c, 9, 42, 95
8, 104160, Note_off_c, 9, 42, 80
8, 104160, Note_on_c, 9, 42, 95
8, 104160, Note_on_c, 9, 38, 95
8, 104160, Note_on_c, 9, 36, 95
8, 104400, Note_off_c, 9, 42, 80
8, 104400, Note_off_c, 9, 38, 80
8, 104400, Note_off_c, 9, 36, 80
8, 104400, Note_on_c, 9, 42, 95
8, 104640, Note_off_c, 9, 42, 80
8, 104640, Note_on_c, 9, 42, 95
8, 104640, Note_on_c, 9, 36, 95
8, 104880, Note_off_c, 9, 42, 80
8, 104880, Note_off_c, 9, 36, 80
8, 104880, Note_on_c, 9, 42, 95
8, 105120, Note_off_c, 9, 42, 80
8, 105120, Note_on_c, 9, 42, 95
8, 105120, Note_on_c, 9, 38, 95
8, 105120, Note_on_c, 9, 36, 95
8, 105360, Note_off_c, 9, 42, 80
8, 105360, Note_off_c, 9, 38, 80
8, 105360, Note_off_c, 9, 36, 80
8, 105360, Note_on_c, 9, 42, 95
8, 105600, Note_off_c, 9, 42, 80
8, 105600, Note_on_c, 9, 42, 95
8, 105600, Note_on_c, 9, 36, 95
8, 105840, Note_off_c, 9, 42, 80
8, 105840, Note_off_c, 9, 36, 80
8, 105840, Note_on_c, 9, 42, 95
8, 106080, Note_off_c, 9, 42, 80
8, 106080, Note_on_c, 9, 42, 95
8, 106080, Note_on_c, 9, 38, 95
8, 106080, Note_on_c, 9, 36, 95
8, 106320, Note_off_c, 9, 42, 80
8, 106320, Note_off_c, 9, 38, 80
8, 106320, Note_off_c, 9, 36, 80
8, 106320, Note_on_c, 9, 42, 95
8, 106560, Note_off_c, 9, 42, 80
8, 106560, Note_on_c, 9, 42, 95
8, 106560, Note_on_c, 9, 36, 95
8, 106800, Note_off_c, 9, 42, 80
8, 106800, Note_off_c, 9, 36, 80
8, 106800, Note_on_c, 9, 42, 95
8, 107040, Note_off_c, 9, 42, 80
8, 107040, Note_on_c, 9, 42, 95
8, 107040, Note_on_c, 9, 38, 95
8, 107040, Note_on_c, 9, 36, 95
8, 107280, Note_off_c, 9, 42, 80
8, 107280, Note_off_c, 9, 38, 80
8, 107280, Note_off_c, 9, 36, 80
8, 107280, Note_on_c, 9, 42, 95
8, 107520, Note_off_c, 9, 42, 80
8, 107520, Note_on_c, 9, 42, 95
8, 107520, Note_on_c, 9, 36, 95
8, 107760, Note_off_c, 9, 42, 80
8, 107760, Note_off_c, 9, 36, 80
8, 107760, Note_on_c, 9, 42, 95
8, 108000, Note_off_c, 9, 42, 80
8, 108000, Note_on_c, 9, 42, 95
8, 108000, Note_on_c, 9, 38, 95
8, 108000, Note_on_c, 9, 36, 95
8, 108240, Note_off_c, 9, 42, 80
8, 108240, Note_off_c, 9, 38, 80
8, 108240, Note_off_c, 9, 36, 80
8, 108240, Note_on_c, 9, 42, 95
8, 108480, Note_off_c, 9, 42, 80
8, 108480, Note_on_c, 9, 42, 95
8, 108480, Note_on_c, 9, 36, 95
8, 108720, Note_off_c, 9, 42, 80
8, 108720, Note_off_c, 9, 36, 80
8, 108720, Note_on_c, 9, 42, 95
8, 108960, Note_off_c, 9, 42, 80
8, 108960, Note_on_c, 9, 42, 95
8, 108960, Note_on_c, 9, 38, 95
8, 108960, Note_on_c, 9, 36, 95
8, 109200, Note_off_c, 9, 42, 80
8, 109200, Note_off_c, 9, 38, 80
8, 109200, Note_off_c, 9, 36, 80
8, 109200, Note_on_c, 9, 42, 95
8, 109440, Note_off_c, 9, 42, 80
8, 109440, Note_on_c, 9, 42, 95
8, 109440, Note_on_c, 9, 36, 95
8, 109680, Note_off_c, 9, 42, 80
8, 109680, Note_off_c, 9, 36, 80
8, 109680, Note_on_c, 9, 42, 95
8, 109920, Note_off_c, 9, 42, 80
8, 109920, Note_on_c, 9, 42, 95
8, 109920, Note_on_c, 9, 38, 95
8, 109920, Note_on_c, 9, 36, 95
8, 110160, Note_off_c, 9, 42, 80
8, 110160, Note_off_c, 9, 38, 80
8, 110160, Note_off_c, 9, 36, 80
8, 110160, Note_on_c, 9, 42, 95
8, 110400, Note_off_c, 9, 42, 80
8, 110400, Note_on_c, 9, 42, 95
8, 110400, Note_on_c, 9, 36, 95
8, 110640, Note_off_c, 9, 42, 80
8, 110640, Note_off_c, 9, 36, 80
8, 110640, Note_on_c, 9, 42, 95
8, 110880, Note_off_c, 9, 42, 80
8, 110880, Note_on_c, 9, 42, 95
8, 110880, Note_on_c, 9, 38, 95
8, 110880, Note_on_c, 9, 36, 95
8, 111120, Note_off_c, 9, 42, 80
8, 111120, Note_off_c, 9, 38, 80
8, 111120, Note_off_c, 9, 36, 80
8, 111120, Note_on_c, 9, 42, 95
8, 111360, Note_off_c, 9, 42, 80
8, 111360, Note_on_c, 9, 42, 95
8, 111360, Note_on_c, 9, 36, 95
8, 111600, Note_off_c, 9, 42, 80
8, 111600, Note_off_c, 9, 36, 80
8, 111600, Note_on_c, 9, 42, 95
8, 111840, Note_off_c, 9, 42, 80
8, 111840, Note_on_c, 9, 42, 95
8, 111840, Note_on_c, 9, 38, 95
8, 111840, Note_on_c, 9, 36, 95
8, 112080, Note_off_c, 9, 42, 80
8, 112080, Note_off_c, 9, 38, 80
8, 112080, Note_off_c, 9, 36, 80
8, 112080, Note_on_c, 9, 42, 95
8, 112320, Note_off_c, 9, 42, 80
8, 112320, Note_on_c, 9, 42, 95
8, 112320, Note_on_c, 9, 36, 95
8, 112560, Note_off_c, 9, 42, 80
8, 112560, Note_off_c, 9, 36, 80
8, 112560, Note_on_c, 9, 42, 95
8, 112800, Note_off_c, 9, 42, 80
8, 112800, Note_on_c, 9, 42, 95
8, 112800, Note_on_c, 9, 38, 95
8, 112800, Note_on_c, 9, 36, 95
8, 113040, Note_off_c, 9, 42, 80
8, 113040, Note_off_c, 9, 38, 80
8, 113040, Note_off_c, 9, 36, 80
8, 113040, Note_on_c, 9, 42, 95
8, 113280, Note_off_c, 9, 42, 80
8, 113280, Note_on_c, 9, 42, 95
8, 113280, Note_on_c, 9, 36, 95
8, 113520, Note_off_c, 9, 42, 80
8, 113520, Note_off_c, 9, 36, 80
8, 113520, Note_on_c, 9, 42, 95
8, 113760, Note_off_c, 9, 42, 80
8, 113760, Note_on_c, 9, 42, 95
8, 113760, Note_on_c, 9, 38, 95
8, 113760, Note_on_c, 9, 36, 95
8, 114000, Note_off_c, 9, 42, 80
8, 114000, Note_off_c, 9, 38, 80
8, 114000, Note_off_c, 9, 36, 80
8, 114000, Note_on_c, 9, 42, 95
8, 114240, Note_off_c, 9, 42, 80
8, 114240, Note_on_c, 9, 42, 95
8, 114240, Note_on_c, 9, 36, 95
8, 114480, Note_off_c, 9, 42, 80
8, 114480, Note_off_c, 9, 36, 80
8, 114480, Note_on_c, 9, 42, 95
8, 114720, Note_off_c, 9, 42, 80
8, 114720, Note_on_c, 9, 42, 95
8, 114720, Note_on_c, 9, 38, 95
8, 114720, Note_on_c, 9, 36, 95
8, 114960, Note_off_c, 9, 42, 80
8, 114960, Note_off_c, 9, 38, 80
8, 114960, Note_off_c, 9, 36, 80
8, 114960, Note_on_c, 9, 42, 95
8, 115200, Note_off_c, 9, 42, 80
8, 115200, Note_on_c, 9, 42, 95
8, 115200, Note_on_c, 9, 36, 95
8, 115440, Note_off_c, 9, 42, 80
8, 115440, Note_off_c, 9, 36, 80
8, 115440, Note_on_c, 9, 42, 95
8, 115680, Note_off_c, 9, 42, 80
8, 115680, Note_on_c, 9, 42, 95
8, 115680, Note_on_c, 9, 38, 95
8, 115680, Note_on_c, 9, 36, 95
8, 115920, Note_off_c, 9, 42, 80
8, 115920, Note_off_c, 9, 38, 80
8, 115920, Note_off_c, 9, 36, 80
8, 115920, Note_on_c, 9, 42, 95
8, 116160, Note_off_c, 9, 42, 80
8, 116160, Note_on_c, 9, 42, 95
8, 116160, Note_on_c, 9, 36, 95
8, 116400, Note_off_c, 9, 42, 80
8, 116400, Note_off_c, 9, 36, 80
8, 116400, Note_on_c, 9, 42, 95
8, 116640, Note_off_c, 9, 42, 80
8, 116640, Note_on_c, 9, 42, 95
8, 116640, Note_on_c, 9, 38, 95
8, 116640, Note_on_c, 9, 36, 95
8, 116880, Note_off_c, 9, 42, 80
8, 116880, Note_off_c, 9, 38, 80
8, 116880, Note_off_c, 9, 36, 80
8, 116880, Note_on_c, 9, 42, 95
8, 117120, Note_off_c, 9, 42, 80
8, 117120, Note_on_c, 9, 42, 95
8, 117120, Note_on_c, 9, 36, 95
8, 117360, Note_off_c, 9, 42, 80
8, 117360, Note_off_c, 9, 36, 80
8, 117360, Note_on_c, 9, 42, 95
8, 117600, Note_off_c, 9, 42, 80
8, 117600, Note_on_c, 9, 42, 95
8, 117600, Note_on_c, 9, 38, 95
8, 117600, Note_on_c, 9, 36, 95
8, 117840, Note_off_c, 9, 42, 80
8, 117840, Note_off_c, 9, 38, 80
8, 117840, Note_off_c, 9, 36, 80
8, 117840, Note_on_c, 9, 42, 95
8, 118080, Note_off_c, 9, 42, 80
8, 118080, Note_on_c, 9, 42, 95
8, 118080, Note_on_c, 9, 36, 95
8, 118320, Note_off_c, 9, 42, 80
8, 118320, Note_off_c, 9, 36, 80
8, 118320, Note_on_c, 9, 42, 95
8, 118560, Note_off_c, 9, 42, 80
8, 118560, Note_on_c, 9, 42, 95
8, 118560, Note_on_c, 9, 38, 95
8, 118560, Note_on_c, 9, 36, 95
8, 118800, Note_off_c, 9, 42, 80
8, 118800, Note_off_c, 9, 38, 80
8, 118800, Note_off_c, 9, 36, 80
8, 118800, Note_on_c, 9, 42, 95
8, 119040, Note_off_c, 9, 42, 80
8, 119040, Note_on_c, 9, 42, 95
8, 119040, Note_on_c, 9, 36, 95
8, 119280, Note_off_c, 9, 42, 80
8, 119280, Note_off_c, 9, 36, 80
8, 119280, Note_on_c, 9, 42, 95
8, 119520, Note_off_c, 9, 42, 80
8, 119520, Note_on_c, 9, 42, 95
8, 119520, Note_on_c, 9, 38, 95
8, 119520, Note_on_c, 9, 36, 95
8, 119760, Note_off_c, 9, 42, 80
8, 119760, Note_off_c, 9, 38, 80
8, 119760, Note_off_c, 9, 36, 80
8, 119760, Note_on_c, 9, 42, 95
8, 120000, Note_off_c, 9, 42, 80
8, 120000, Note_on_c, 9, 42, 95
8, 120000, Note_on_c, 9, 36, 95
8, 120240, Note_off_c, 9, 42, 80
8, 120240, Note_off_c, 9, 36, 80
8, 120240, Note_on_c, 9, 42, 95
8, 120480, Note_off_c, 9, 42, 80
8, 120480, Note_on_c, 9, 42, 95
8, 120480, Note_on_c, 9, 38, 95
8, 120480, Note_on_c, 9, 36, 95
8, 120720, Note_off_c, 9, 42, 80
8, 120720, Note_off_c, 9, 38, 80
8, 120720, Note_off_c, 9, 36, 80
8, 120720, Note_on_c, 9, 42, 95
8, 120960, Note_off_c, 9, 42, 80
8, 120960, Note_on_c, 9, 42, 95
8, 120960, Note_on_c, 9, 36, 95
8, 121200, Note_off_c, 9, 42, 80
8, 121200, Note_off_c, 9, 36, 80
8, 121200, Note_on_c, 9, 42, 95
8, 121440, Note_off_c, 9, 42, 80
8, 121440, Note_on_c, 9, 42, 95
8, 121440, Note_on_c, 9, 38, 95
8, 121440, Note_on_c, 9, 36, 95
8, 121680, Note_off_c, 9, 42, 80
8, 121680, Note_off_c, 9, 38, 80
8, 121680, Note_off_c, 9, 36, 80
8, 121680, Note_on_c, 9, 42, 95
8, 121920, Note_off_c, 9, 42, 80
8, 121920, Note_on_c, 9, 42, 95
8, 121920, Note_on_c, 9, 36, 95
8, 122160, Note_off_c, 9, 42, 80
8, 122160, Note_off_c, 9, 36, 80
8, 122160, Note_on_c, 9, 42, 95
8, 122400, Note_off_c, 9, 42, 80
8, 122400, Note_on_c, 9, 42, 95
8, 122400, Note_on_c, 9, 38, 95
8, 122400, Note_on_c, 9, 36, 95
8, 122640, Note_off_c, 9, 42, 80
8, 122640, Note_off_c, 9, 38, 80
8, 122640, Note_off_c, 9, 36, 80
8, 122640, Note_on_c, 9, 42, 95
8, 122880, Note_off_c, 9, 42, 80
8, 122880, Note_on_c, 9, 42, 95
8, 122880, Note_on_c, 9, 36, 95
8, 123120, Note_off_c, 9, 42, 80
8, 123120, Note_off_c, 9, 36, 80
8, 123120, Note_on_c, 9, 42, 95
8, 123360, Note_off_c, 9, 42, 80
8, 123360, Note_on_c, 9, 42, 95
8, 123360, Note_on_c, 9, 38, 95
8, 123360, Note_on_c, 9, 36, 95
8, 123600, Note_off_c, 9, 42, 80
8, 123600, Note_off_c, 9, 38, 80
8, 123600, Note_off_c, 9, 36, 80
8, 123600, Note_on_c, 9, 42, 95
8, 123840, Note_off_c, 9, 42, 80
8, 123840, Note_on_c, 9, 42, 95
8, 123840, Note_on_c, 9, 36, 95
8, 124080, Note_off_c, 9, 42, 80
8, 124080, Note_off_c, 9, 36, 80
8, 124080, Note_on_c, 9, 42, 95
8, 124320, Note_off_c, 9, 42, 80
8, 124320, Note_on_c, 9, 42, 95
8, 124320, Note_on_c, 9, 38, 95
8, 124320, Note_on_c, 9, 36, 95
8, 124560, Note_off_c, 9, 42, 80
8, 124560, Note_off_c, 9, 38, 80
8, 124560, Note_off_c, 9, 36, 80
8, 124560, Note_on_c, 9, 42, 95
8, 124800, Note_off_c, 9, 42, 80
8, 124800, Note_on_c, 9, 42, 95
8, 124800, Note_on_c, 9, 36, 95
8, 125040, Note_off_c, 9, 42, 80
8, 125040, Note_off_c, 9, 36, 80
8, 125040, Note_on_c, 9, 42, 95
8, 125280, Note_off_c, 9, 42, 80
8, 125280, Note_on_c, 9, 42, 95
8, 125280, Note_on_c, 9, 38, 95
8, 125280, Note_on_c, 9, 36, 95
8, 125520, Note_off_c, 9, 42, 80
8, 125520, Note_off_c, 9, 38, 80
8, 125520, Note_off_c, 9, 36, 80
8, 125520, Note_on_c, 9, 42, 95
8, 125760, Note_off_c, 9, 42, 80
8, 125760, Note_on_c, 9, 42, 95
8, 125760, Note_on_c, 9, 36, 95
8, 126000, Note_off_c, 9, 42, 80
8, 126000, Note_off_c, 9, 36, 80
8, 126000, Note_on_c, 9, 42, 95
8, 126240, Note_off_c, 9, 42, 80
8, 126240, Note_on_c, 9, 42, 95
8, 126240, Note_on_c, 9, 38, 95
8, 126240, Note_on_c, 9, 36, 95
8, 126480, Note_off_c, 9, 42, 80
8, 126480, Note_off_c, 9, 38, 80
8, 126480, Note_off_c, 9, 36, 80
8, 126480, Note_on_c, 9, 42, 95
8, 126720, Note_off_c, 9, 42, 80
8, 126720, Note_on_c, 9, 42, 95
8, 126720, Note_on_c, 9, 36, 95
8, 126960, Note_off_c, 9, 42, 80
8, 126960, Note_off_c, 9, 36, 80
8, 126960, Note_on_c, 9, 42, 95
8, 127200, Note_off_c, 9, 42, 80
8, 127200, Note_on_c, 9, 42, 95
8, 127200, Note_on_c, 9, 38, 95
8, 127200, Note_on_c, 9, 36, 95
8, 127440, Note_off_c, 9, 42, 80
8, 127440, Note_off_c, 9, 38, 80
8, 127440, Note_off_c, 9, 36, 80
8, 127440, Note_on_c, 9, 42, 95
8, 127680, Note_off_c, 9, 42, 80
8, 127680, Note_on_c, 9, 42, 95
8, 127680, Note_on_c, 9, 36, 95
8, 127920, Note_off_c, 9, 42, 80
8, 127920, Note_off_c, 9, 36, 80
8, 127920, Note_on_c, 9, 42, 95
8, 128160, Note_off_c, 9, 42, 80
8, 128160, Note_on_c, 9, 42, 95
8, 128160, Note_on_c, 9, 38, 95
8, 128160, Note_on_c, 9, 36, 95
8, 128400, Note_off_c, 9, 42, 80
8, 128400, Note_off_c, 9, 38, 80
8, 128400, Note_off_c, 9, 36, 80
8, 128400, Note_on_c, 9, 42, 95
8, 128640, Note_off_c, 9, 42, 80
8, 128640, Note_on_c, 9, 42, 95
8, 128640, Note_on_c, 9, 36, 95
8, 128880, Note_off_c, 9, 42, 80
8, 128880, Note_off_c, 9, 36, 80
8, 128880, Note_on_c, 9, 42, 95
8, 129120, Note_off_c, 9, 42, 80
8, 129120, Note_on_c, 9, 42, 95
8, 129120, Note_on_c, 9, 38, 95
8, 129120, Note_on_c, 9, 36, 95
8, 129360, Note_off_c, 9, 42, 80
8, 129360, Note_off_c, 9, 38, 80
8, 129360, Note_off_c, 9, 36, 80
8, 129360, Note_on_c, 9, 42, 95
8, 129600, Note_off_c, 9, 42, 80
8, 129600, Note_on_c, 9, 42, 95
8, 129600, Note_on_c, 9, 36, 95
8, 129840, Note_off_c, 9, 42, 80
8, 129840, Note_off_c, 9, 36, 80
8, 129840, Note_on_c, 9, 42, 95
8, 130080, Note_off_c, 9, 42, 80
8, 130080, Note_on_c, 9, 42, 95
8, 130080, Note_on_c, 9, 38, 95
8, 130080, Note_on_c, 9, 36, 95
8, 130320, Note_off_c, 9, 42, 80
8, 130320, Note_off_c, 9, 38, 80
8, 130320, Note_off_c, 9, 36, 80
8, 130320, Note_on_c, 9, 42, 95
8, 130560, Note_off_c, 9, 42, 80
8, 130560, Note_on_c, 9, 42, 95
8, 130560, Note_on_c, 9, 36, 95
8, 130800, Note_off_c, 9, 42, 80
8, 130800, Note_off_c, 9, 36, 80
8, 130800, Note_on_c, 9, 42, 95
8, 131040, Note_off_c, 9, 42, 80
8, 131040, Note_on_c, 9, 42, 95
8, 131040, Note_on_c, 9, 38, 95
8, 131040, Note_on_c, 9, 36, 95
8, 131280, Note_off_c, 9, 42, 80
8, 131280, Note_off_c, 9, 38, 80
8, 131280, Note_off_c, 9, 36, 80
8, 131280, Note_on_c, 9, 42, 95
8, 131520, Note_off_c, 9, 42, 80
8, 131520, Note_on_c, 9, 42, 95
8, 131520, Note_on_c, 9, 36, 95
8, 131760, Note_off_c, 9, 42, 80
8, 131760, Note_off_c, 9, 36, 80
8, 131760, Note_on_c, 9, 42, 95
8, 132000, Note_off_c, 9, 42, 80
8, 132000, Note_on_c, 9, 42, 95
8, 132000, Note_on_c, 9, 38, 95
8, 132000, Note_on_c, 9, 36, 95
8, 132240, Note_off_c, 9, 42, 80
8, 132240, Note_off_c, 9, 38, 80
8, 132240, Note_off_c, 9, 36, 80
8, 132240, Note_on_c, 9, 42, 95
8, 132480, Note_off_c, 9, 42, 80
8, 132480, Note_on_c, 9, 42, 95
8, 132480, Note_on_c, 9, 36, 95
8, 132720, Note_off_c, 9, 42, 80
8, 132720, Note_off_c, 9, 36, 80
8, 132720, Note_on_c, 9, 42, 95
8, 132960, Note_off_c, 9, 42, 80
8, 132960, Note_on_c, 9, 42, 95
8, 132960, Note_on_c, 9, 38, 95
8, 132960, Note_on_c, 9, 36, 95
8, 133200, Note_off_c, 9, 42, 80
8, 133200, Note_off_c, 9, 38, 80
8, 133200, Note_off_c, 9, 36, 80
8, 133200, Note_on_c, 9, 42, 95
8, 133440, Note_off_c, 9, 42, 80
8, 133440, Note_on_c, 9, 42, 95
8, 133440, Note_on_c, 9, 36, 95
8, 133680, Note_off_c, 9, 42, 80
8, 133680, Note_off_c, 9, 36, 80
8, 133680, Note_on_c, 9, 42, 95
8, 133920, Note_off_c, 9, 42, 80
8, 133920, Note_on_c, 9, 42, 95
8, 133920, Note_on_c, 9, 38, 95
8, 133920, Note_on_c, 9, 36, 95
8, 134160, Note_off_c, 9, 42, 80
8, 134160, Note_off_c, 9, 38, 80
8, 134160, Note_off_c, 9, 36, 80
8, 134160, Note_on_c, 9, 42, 95
8, 134400, Note_off_c, 9, 42, 80
8, 134400, Note_on_c, 9, 42, 95
8, 134400, Note_on_c, 9, 36, 95
8, 134640, Note_off_c, 9, 42, 80
8, 134640, Note_off_c, 9, 36, 80
8, 134640, Note_on_c, 9, 42, 95
8, 134880, Note_off_c, 9, 42, 80
8, 134880, Note_on_c, 9, 42, 95
8, 134880, Note_on_c, 9, 38, 95
8, 134880, Note_on_c, 9, 36, 95
8, 135120, Note_off_c, 9, 42, 80
8, 135120, Note_off_c, 9, 38, 80
8, 135120, Note_off_c, 9, 36, 80
8, 135120, Note_on_c, 9, 42, 95
8, 135360, Note_off_c, 9, 42, 80
8, 135360, Note_on_c, 9, 42, 95
8, 135360, Note_on_c, 9, 36, 95
8, 135600, Note_off_c, 9, 42, 80
8, 135600, Note_off_c, 9, 36, 80
8, 135600, Note_on_c, 9, 42, 95
8, 135840, Note_off_c, 9, 42, 80
8, 135840, Note_on_c, 9, 42, 95
8, 135840, Note_on_c, 9, 38, 95
8, 135840, Note_on_c, 9, 36, 95
8, 136080, Note_off_c, 9, 42, 80
8, 136080, Note_off_c, 9, 38, 80
8, 136080, Note_off_c, 9, 36, 80
8, 136080, Note_on_c, 9, 42, 95
8, 136320, Note_off_c, 9, 42, 80
8, 136320, Note_on_c, 9, 42, 95
8, 136320, Note_on_c, 9, 36, 95
8, 136560, Note_off_c, 9, 42, 80
8, 136560, Note_off_c, 9, 36, 80
8, 136560, Note_on_c, 9, 42, 95
8, 136800, Note_off_c, 9, 42, 80
8, 136800, Note_on_c, 9, 42, 95
8, 136800, Note_on_c, 9, 38, 95
8, 136800, Note_on_c, 9, 36, 95
8, 137040, Note_off_c, 9, 42, 80
8, 137040, Note_off_c, 9, 38, 80
8, 137040, Note_off_c, 9, 36, 80
8, 137040, Note_on_c, 9, 42, 95
8, 137280, Note_off_c, 9, 42, 80
8, 137280, Note_on_c, 9, 42, 95
8, 137280, Note_on_c, 9, 36, 95
8, 137520, Note_off_c, 9, 42, 80
8, 137520, Note_off_c, 9, 36, 80
8, 137520, Note_on_c, 9, 42, 95
8, 137760, Note_off_c, 9, 42, 80
8, 137760, Note_on_c, 9, 42, 95
8, 137760, Note_on_c, 9, 38, 95
8, 137760, Note_on_c, 9, 36, 95
8, 138000, Note_off_c, 9, 42, 80
8, 138000, Note_off_c, 9, 38, 80
8, 138000, Note_off_c, 9, 36, 80
8, 138000, Note_on_c, 9, 42, 95
8, 138240, Note_off_c, 9, 42, 80
8, 138240, Note_on_c, 9, 42, 95
8, 138240, Note_on_c, 9, 36, 95
8, 138480, Note_off_c, 9, 42, 80
8, 138480, Note_off_c, 9, 36, 80
8, 138480, Note_on_c, 9, 42, 95
8, 138720, Note_off_c, 9, 42, 80
8, 138720, Note_on_c, 9, 42, 95
8, 138720, Note_on_c, 9, 38, 95
8, 138720, Note_on_c, 9, 36, 95
8, 138960, Note_off_c, 9, 42, 80
8, 138960, Note_off_c, 9, 38, 80
8, 138960, Note_off_c, 9, 36, 80
8, 138960, Note_on_c, 9, 42, 95
8, 139200, Note_off_c, 9, 42, 80
8, 139200, Note_on_c, 9, 42, 95
8, 139200, Note_on_c, 9, 36, 95
8, 139440, Note_off_c, 9, 42, 80
8, 139440, Note_off_c, 9, 36, 80
8, 139440, Note_on_c, 9, 42, 95
8, 139680, Note_off_c, 9, 42, 80
8, 139680, Note_on_c, 9, 42, 95
8, 139680, Note_on_c, 9, 38, 95
8, 139680, Note_on_c, 9, 36, 95
8, 139920, Note_off_c, 9, 42, 80
8, 139920, Note_off_c, 9, 38, 80
8, 139920, Note_off_c, 9, 36, 80
8, 139920, Note_on_c, 9, 42, 95
8, 140160, Note_off_c, 9, 42, 80
8, 140160, Note_on_c, 9, 42, 95
8, 140160, Note_on_c, 9, 36, 95
8, 140400, Note_off_c, 9, 42, 80
8, 140400, Note_off_c, 9, 36, 80
8, 140400, Note_on_c, 9, 42, 95
8, 140640, Note_off_c, 9, 42, 80
8, 140640, Note_on_c, 9, 42, 95
8, 140640, Note_on_c, 9, 38, 95
8, 140640, Note_on_c, 9, 36, 95
8, 140880, Note_off_c, 9, 42, 80
8, 140880, Note_off_c, 9, 38, 80
8, 140880, Note_off_c, 9, 36, 80
8, 140880, Note_on_c, 9, 42, 95
8, 141120, Note_off_c, 9, 42, 80
8, 141120, Note_on_c, 9, 42, 95
8, 141120, Note_on_c, 9, 36, 95
8, 141360, Note_off_c, 9, 42, 80
8, 141360, Note_off_c, 9, 36, 80
8, 141360, Note_on_c, 9, 42, 95
8, 141600, Note_off_c, 9, 42, 80
8, 141600, Note_on_c, 9, 42, 95
8, 141600, Note_on_c, 9, 38, 95
8, 141600, Note_on_c, 9, 36, 95
8, 141840, Note_off_c, 9, 42, 80
8, 141840, Note_off_c, 9, 38, 80
8, 141840, Note_off_c, 9, 36, 80
8, 141840, Note_on_c, 9, 42, 95
8, 142080, Note_off_c, 9, 42, 80
8, 142080, Note_on_c, 9, 42, 95
8, 142080, Note_on_c, 9, 36, 95
8, 142320, Note_off_c, 9, 42, 80
8, 142320, Note_off_c, 9, 36, 80
8, 142320, Note_on_c, 9, 42, 95
8, 142560, Note_off_c, 9, 42, 80
8, 142560, Note_on_c, 9, 42, 95
8, 142560, Note_on_c, 9, 38, 95
8, 142560, Note_on_c, 9, 36, 95
8, 142800, Note_off_c, 9, 42, 80
8, 142800, Note_off_c, 9, 38, 80
8, 142800, Note_off_c, 9, 36, 80
8, 142800, Note_on_c, 9, 42, 95
8, 143040, Note_off_c, 9, 42, 80
8, 143040, Note_on_c, 9, 42, 95
8, 143040, Note_on_c, 9, 36, 95
8, 143280, Note_off_c, 9, 42, 80
8, 143280, Note_off_c, 9, 36, 80
8, 143280, Note_on_c, 9, 42, 95
8, 143520, Note_off_c, 9, 42, 80
8, 143520, Note_on_c, 9, 42, 95
8, 143520, Note_on_c, 9, 38, 95
8, 143520, Note_on_c, 9, 36, 95
8, 143760, Note_off_c, 9, 42, 80
8, 143760, Note_off_c, 9, 38, 80
8, 143760, Note_off_c, 9, 36, 80
8, 143760, Note_on_c, 9, 42, 95
8, 144000, Note_off_c, 9, 42, 80
8, 144000, Note_on_c, 9, 42, 95
8, 144000, Note_on_c, 9, 36, 95
8, 144240, Note_off_c, 9, 42, 80
8, 144240, Note_off_c, 9, 36, 80
8, 144240, Note_on_c, 9, 42, 95
8, 144480, Note_off_c, 9, 42, 80
8, 144480, Note_on_c, 9, 42, 95
8, 144480, Note_on_c, 9, 38, 95
8, 144480, Note_on_c, 9, 36, 95
8, 144720, Note_off_c, 9, 42, 80
8, 144720, Note_off_c, 9, 38, 80
8, 144720, Note_off_c, 9, 36, 80
8, 144720, Note_on_c, 9, 42, 95
8, 144960, Note_off_c, 9, 42, 80
8, 144960, Note_on_c, 9, 42, 95
8, 144960, Note_on_c, 9, 36, 95
8, 145200, Note_off_c, 9, 42, 80
8, 145200, Note_off_c, 9, 36, 80
8, 145200, Note_on_c, 9, 42, 95
8, 145440, Note_off_c, 9, 42, 80
8, 145440, Note_on_c, 9, 42, 95
8, 145440, Note_on_c, 9, 38, 95
8, 145440, Note_on_c, 9, 36, 95
8, 145680, Note_off_c, 9, 42, 80
8, 145680, Note_off_c, 9, 38, 80
8, 145680, Note_off_c, 9, 36, 80
8, 145680, Note_on_c, 9, 42, 95
8, 145920, Note_off_c, 9, 42, 80
8, 145920, Note_on_c, 9, 42, 95
8, 145920, Note_on_c, 9, 36, 95
8, 146160, Note_off_c, 9, 42, 80
8, 146160, Note_off_c, 9, 36, 80
8, 146160, Note_on_c, 9, 42, 95
8, 146400, Note_off_c, 9, 42, 80
8, 146400, Note_on_c, 9, 42, 95
8, 146400, Note_on_c, 9, 38, 95
8, 146400, Note_on_c, 9, 36, 95
8, 146640, Note_off_c, 9, 42, 80
8, 146640, Note_off_c, 9, 38, 80
8, 146640, Note_off_c, 9, 36, 80
8, 146640, Note_on_c, 9, 42, 95
8, 146880, Note_off_c, 9, 42, 80
8, 146880, Note_on_c, 9, 42, 95
8, 146880, Note_on_c, 9, 36, 95
8, 147120, Note_off_c, 9, 42, 80
8, 147120, Note_off_c, 9, 36, 80
8, 147120, Note_on_c, 9, 42, 95
8, 147360, Note_off_c, 9, 42, 80
8, 147360, Note_on_c, 9, 42, 95
8, 147360, Note_on_c, 9, 38, 95
8, 147360, Note_on_c, 9, 36, 95
8, 147600, Note_off_c, 9, 42, 80
8, 147600, Note_off_c, 9, 38, 80
8, 147600, Note_off_c, 9, 36, 80
8, 147600, Note_on_c, 9, 42, 95
8, 147840, Note_off_c, 9, 42, 80
8, 147840, Note_on_c, 9, 42, 95
8, 147840, Note_on_c, 9, 36, 95
8, 148080, Note_off_c, 9, 42, 80
8, 148080, Note_off_c, 9, 36, 80
8, 148080, Note_on_c, 9, 42, 95
8, 148320, Note_off_c, 9, 42, 80
8, 148320, Note_on_c, 9, 42, 95
8, 148320, Note_on_c, 9, 38, 95
8, 148320, Note_on_c, 9, 36, 95
8, 148560, Note_off_c, 9, 42, 80
8, 148560, Note_off_c, 9, 38, 80
8, 148560, Note_off_c, 9, 36, 80
8, 148560, Note_on_c, 9, 42, 95
8, 148800, Note_off_c, 9, 42, 80
8, 148800, Note_on_c, 9, 42, 95
8, 148800, Note_on_c, 9, 36, 95
8, 149040, Note_off_c, 9, 42, 80
8, 149040, Note_off_c, 9, 36, 80
8, 149040, Note_on_c, 9, 42, 95
8, 149280, Note_off_c, 9, 42, 80
8, 149280, Note_on_c, 9, 42, 95
8, 149280, Note_on_c, 9, 38, 95
8, 149280, Note_on_c, 9, 36, 95
8, 149520, Note_off_c, 9, 42, 80
8, 149520, Note_off_c, 9, 38, 80
8, 149520, Note_off_c, 9, 36, 80
8, 149520, Note_on_c, 9, 42, 95
8, 149760, Note_off_c, 9, 42, 80
8, 149760, Note_on_c, 9, 42, 95
8, 149760, Note_on_c, 9, 36, 95
8, 150000, Note_off_c, 9, 42, 80
8, 150000, Note_off_c, 9, 36, 80
8, 150000, Note_on_c, 9, 42, 95
8, 150240, Note_off_c, 9, 42, 80
8, 150240, Note_on_c, 9, 42, 95
8, 150240, Note_on_c, 9, 38, 95
8, 150240, Note_on_c, 9, 36, 95
8, 150480, Note_off_c, 9, 42, 80
8, 150480, Note_off_c, 9, 38, 80
8, 150480, Note_off_c, 9, 36, 80
8, 150480, Note_on_c, 9, 42, 95
8, 150720, Note_off_c, 9, 42, 80
8, 150720, Note_on_c, 9, 42, 95
8, 150720, Note_on_c, 9, 36, 95
8, 150960, Note_off_c, 9, 42, 80
8, 150960, Note_off_c, 9, 36, 80
8, 150960, Note_on_c, 9, 42, 95
8, 151200, Note_off_c, 9, 42, 80
8, 151200, Note_on_c, 9, 42, 95
8, 151200, Note_on_c, 9, 38, 95
8, 151200, Note_on_c, 9, 36, 95
8, 151440, Note_off_c, 9, 42, 80
8, 151440, Note_off_c, 9, 38, 80
8, 151440, Note_off_c, 9, 36, 80
8, 151440, Note_on_c, 9, 42, 95
8, 151680, Note_off_c, 9, 42, 80
8, 151680, Note_on_c, 9, 42, 95
8, 151680, Note_on_c, 9, 36, 95
8, 151920, Note_off_c, 9, 42, 80
8, 151920, Note_off_c, 9, 36, 80
8, 151920, Note_on_c, 9, 42, 95
8, 152160, Note_off_c, 9, 42, 80
8, 152160, Note_on_c, 9, 42, 95
8, 152160, Note_on_c, 9, 38, 95
8, 152160, Note_on_c, 9, 36, 95
8, 152400, Note_off_c, 9, 42, 80
8, 152400, Note_off_c, 9, 38, 80
8, 152400, Note_off_c, 9, 36, 80
8, 152400, Note_on_c, 9, 42, 95
8, 152640, Note_off_c, 9, 42, 80
8, 152640, Note_on_c, 9, 42, 95
8, 152640, Note_on_c, 9, 36, 95
8, 152880, Note_off_c, 9, 42, 80
8, 152880, Note_off_c, 9, 36, 80
8, 152880, Note_on_c, 9, 42, 95
8, 153120, Note_off_c, 9, 42, 80
8, 153120, Note_on_c, 9, 42, 95
8, 153120, Note_on_c, 9, 38, 95
8, 153120, Note_on_c, 9, 36, 95
8, 153360, Note_off_c, 9, 42, 80
8, 153360, Note_off_c, 9, 38, 80
8, 153360, Note_off_c, 9, 36, 80
8, 153360, Note_on_c, 9, 42, 95
8, 153600, Note_off_c, 9, 42, 80
8, 153600, Note_on_c, 9, 42, 95
8, 153600, Note_on_c, 9, 36, 95
8, 153840, Note_off_c, 9, 42, 80
8, 153840, Note_off_c, 9, 36, 80
8, 153840, Note_on_c, 9, 42, 95
8, 154080, Note_off_c, 9, 42, 80
8, 154080, Note_on_c, 9, 42, 95
8, 154080, Note_on_c, 9, 38, 95
8, 154080, Note_on_c, 9, 36, 95
8, 154320, Note_off_c, 9, 42, 80
8, 154320, Note_off_c, 9, 38, 80
8, 154320, Note_off_c, 9, 36, 80
8, 154320, Note_on_c, 9, 42, 95
8, 154560, Note_off_c, 9, 42, 80
8, 154560, Note_on_c, 9, 42, 95
8, 154560, Note_on_c, 9, 36, 95
8, 154800, Note_off_c, 9, 42, 80
8, 154800, Note_off_c, 9, 36, 80
8, 154800, Note_on_c, 9, 42, 95
8, 155040, Note_off_c, 9, 42, 80
8, 155040, Note_on_c, 9, 42, 95
8, 155040, Note_on_c, 9, 38, 95
8, 155040, Note_on_c, 9, 36, 95
8, 155280, Note_off_c, 9, 42, 80
8, 155280, Note_off_c, 9, 38, 80
8, 155280, Note_off_c, 9, 36, 80
8, 155280, Note_on_c, 9, 42, 95
8, 155520, Note_off_c, 9, 42, 80
8, 155520, Note_on_c, 9, 42, 95
8, 155520, Note_on_c, 9, 36, 95
8, 155760, Note_off_c, 9, 42, 80
8, 155760, Note_off_c, 9, 36, 80
8, 155760, Note_on_c, 9, 42, 95
8, 156000, Note_off_c, 9, 42, 80
8, 156000, Note_on_c, 9, 42, 95
8, 156000, Note_on_c, 9, 38, 95
8, 156000, Note_on_c, 9, 36, 95
8, 156240, Note_off_c, 9, 42, 80
8, 156240, Note_off_c, 9, 38, 80
8, 156240, Note_off_c, 9, 36, 80
8, 156240, Note_on_c, 9, 42, 95
8, 156480, Note_off_c, 9, 42, 80
8, 156480, Note_on_c, 9, 42, 95
8, 156480, Note_on_c, 9, 36, 95
8, 156720, Note_off_c, 9, 42, 80
8, 156720, Note_off_c, 9, 36, 80
8, 156720, Note_on_c, 9, 42, 95
8, 156960, Note_off_c, 9, 42, 80
8, 156960, Note_on_c, 9, 42, 95
8, 156960, Note_on_c, 9, 38, 95
8, 156960, Note_on_c, 9, 36, 95
8, 157200, Note_off_c, 9, 42, 80
8, 157200, Note_off_c, 9, 38, 80
8, 157200, Note_off_c, 9, 36, 80
8, 157200, Note_on_c, 9, 42, 95
8, 157440, Note_off_c, 9, 42, 80
8, 157440, Note_on_c, 9, 42, 95
8, 157440, Note_on_c, 9, 36, 95
8, 157680, Note_off_c, 9, 42, 80
8, 157680, Note_off_c, 9, 36, 80
8, 157680, Note_on_c, 9, 42, 95
8, 157920, Note_off_c, 9, 42, 80
8, 157920, Note_on_c, 9, 42, 95
8, 157920, Note_on_c, 9, 38, 95
8, 157920, Note_on_c, 9, 36, 95
8, 158160, Note_off_c, 9, 42, 80
8, 158160, Note_off_c, 9, 38, 80
8, 158160, Note_off_c, 9, 36, 80
8, 158160, Note_on_c, 9, 42, 95
8, 158400, Note_off_c, 9, 42, 80
8, 158400, Note_on_c, 9, 42, 95
8, 158400, Note_on_c, 9, 36, 95
8, 158640, Note_off_c, 9, 42, 80
8, 158640, Note_off_c, 9, 36, 80
8, 158640, Note_on_c, 9, 42, 95
8, 158880, Note_off_c, 9, 42, 80
8, 158880, Note_on_c, 9, 42, 95
8, 158880, Note_on_c, 9, 38, 95
8, 158880, Note_on_c, 9, 36, 95
8, 159120, Note_off_c, 9, 42, 80
8, 159120, Note_off_c, 9, 38, 80
8, 159120, Note_off_c, 9, 36, 80
8, 159120, Note_on_c, 9, 42, 95
8, 159360, Note_off_c, 9, 42, 80
8, 159360, Note_on_c, 9, 42, 95
8, 159360, Note_on_c, 9, 36, 95
8, 159600, Note_off_c, 9, 42, 80
8, 159600, Note_off_c, 9, 36, 80
8, 159600, Note_on_c, 9, 42, 95
8, 159840, Note_off_c, 9, 42, 80
8, 159840, Note_on_c, 9, 42, 95
8, 159840, Note_on_c, 9, 38, 95
8, 159840, Note_on_c, 9, 36, 95
8, 160080, Note_off_c, 9, 42, 80
8, 160080, Note_off_c, 9, 38, 80
8, 160080, Note_off_c, 9, 36, 80
8, 160080, Note_on_c, 9, 42, 95
8, 160320, Note_off_c, 9, 42, 80
8, 160320, Note_on_c, 9, 42, 95
8, 160320, Note_on_c, 9, 36, 95
8, 160560, Note_off_c, 9, 42, 80
8, 160560, Note_off_c, 9, 36, 80
8, 160560, Note_on_c, 9, 42, 95
8, 160800, Note_off_c, 9, 42, 80
8, 160800, Note_on_c, 9, 42, 95
8, 160800, Note_on_c, 9, 38, 95
8, 160800, Note_on_c, 9, 36, 95
8, 161040, Note_off_c, 9, 42, 80
8, 161040, Note_off_c, 9, 38, 80
8, 161040, Note_off_c, 9, 36, 80
8, 161040, Note_on_c, 9, 42, 95
8, 161280, Note_off_c, 9, 42, 80
8, 161280, Note_on_c, 9, 42, 95
8, 161280, Note_on_c, 9, 36, 95
8, 161520, Note_off_c, 9, 42, 80
8, 161520, Note_off_c, 9, 36, 80
8, 161520, Note_on_c, 9, 42, 95
8, 161760, Note_off_c, 9, 42, 80
8, 161760, Note_on_c, 9, 42, 95
8, 161760, Note_on_c, 9, 38, 95
8, 161760, Note_on_c, 9, 36, 95
8, 162000, Note_off_c, 9, 42, 80
8, 162000, Note_off_c, 9, 38, 80
8, 162000, Note_off_c, 9, 36, 80
8, 162000, Note_on_c, 9, 42, 95
8, 162240, Note_off_c, 9, 42, 80
8, 162240, Note_on_c, 9, 42, 95
8, 162240, Note_on_c, 9, 36, 95
8, 162480, Note_off_c, 9, 42, 80
8, 162480, Note_off_c, 9, 36, 80
8, 162480, Note_on_c, 9, 42, 95
8, 162720, Note_off_c, 9, 42, 80
8, 162720, Note_on_c, 9, 42, 95
8, 162720, Note_on_c, 9, 38, 95
8, 162720, Note_on_c, 9, 36, 95
8, 162960, Note_off_c, 9, 42, 80
8, 162960, Note_off_c, 9, 38, 80
8, 162960, Note_off_c, 9, 36, 80
8, 162960, Note_on_c, 9, 42, 95
8, 163200, Note_off_c, 9, 42, 80
8, 163200, Note_on_c, 9, 46, 95
8, 163200, Note_on_c, 9, 36, 95
8, 163260, Note_off_c, 9, 46, 80
8, 163260, Note_off_c, 9, 36, 80
8, 163260, Note_on_c, 9, 46, 95
8, 163320, Note_off_c, 9, 46, 80
8, 163320, Note_on_c, 9, 46, 95
8, 163380, Note_off_c, 9, 46, 80
8, 163380, Note_on_c, 9, 46, 95
8, 163440, Note_off_c, 9, 46, 80
8, 163440, Note_on_c, 9, 46, 95
8, 163500, Note_off_c, 9, 46, 80
8, 163500, Note_on_c, 9, 46, 95
8, 163560, Note_off_c, 9, 46, 80
8, 163560, Note_on_c, 9, 46, 95
8, 163620, Note_off_c, 9, 46, 80
8, 163620, Note_on_c, 9, 46, 95
8, 163680, Note_off_c, 9, 46, 80
8, 163680, Note_on_c, 9, 42, 95
8, 163680, Note_on_c, 9, 36, 95
8, 163920, Note_off_c, 9, 42, 80
8, 163920, Note_off_c, 9, 36, 80
8, 163920, Note_on_c, 9, 42, 95
8, 164040, Note_off_c, 9, 42, 80
8, 164040, Note_on_c, 9, 42, 95
8, 164160, Note_off_c, 9, 42, 80
8, 164160, Note_on_c, 9, 46, 95
8, 164160, Note_on_c, 9, 36, 95
8, 164220, Note_off_c, 9, 46, 80
8, 164220, Note_off_c, 9, 36, 80
8, 164220, Note_on_c, 9, 46, 95
8, 164280, Note_off_c, 9, 46, 80
8, 164280, Note_on_c, 9, 46, 95
8, 164340, Note_off_c, 9, 46, 80
8, 164340, Note_on_c, 9, 46, 95
8, 164400, Note_off_c, 9, 46, 80
8, 164400, Note_on_c, 9, 46, 95
8, 164460, Note_off_c, 9, 46, 80
8, 164460, Note_on_c, 9, 46, 95
8, 164520, Note_off_c, 9, 46, 80
8, 164520, Note_on_c, 9, 46, 95
8, 164580, Note_off_c, 9, 46, 80
8, 164580, Note_on_c, 9, 46, 95
8, 164640, Note_off_c, 9, 46, 80
8, 164640, Note_on_c, 9, 42, 95
8, 164640, Note_on_c, 9, 36, 95
8, 164880, Note_off_c, 9, 42, 80
8, 164880, Note_off_c, 9, 36, 80
8, 164880, Note_on_c, 9, 42, 95
8, 165000, Note_off_c, 9, 42, 80
8, 165000, Note_on_c, 9, 42, 95
8, 165120, Note_off_c, 9, 42, 80
8, 165120, Note_on_c, 9, 46, 95
8, 165120, Note_on_c, 9, 36, 95
8, 165180, Note_off_c, 9, 46, 80
8, 165180, Note_off_c, 9, 36, 80
8, 165180, Note_on_c, 9, 46, 95
8, 165240, Note_off_c, 9, 46, 80
8, 165240, Note_on_c, 9, 46, 95
8, 165300, Note_off_c, 9, 46, 80
8, 165300, Note_on_c, 9, 46, 95
8, 165360, Note_off_c, 9, 46, 80
8, 165360, Note_on_c, 9, 46, 95
8, 165420, Note_off_c, 9, 46, 80
8, 165420, Note_on_c, 9, 46, 95
8, 165480, Note_off_c, 9, 46, 80
8, 165480, Note_on_c, 9, 46, 95
8, 165540, Note_off_c, 9, 46, 80
8, 165540, Note_on_c, 9, 46, 95
8, 165600, Note_off_c, 9, 46, 80
8, 165600, Note_on_c, 9, 42, 95
8, 165600, Note_on_c, 9, 36, 95
8, 165840, Note_off_c, 9, 42, 80
8, 165840, Note_off_c, 9, 36, 80
8, 165840, Note_on_c, 9, 42, 95
8, 165960, Note_off_c, 9, 42, 80
8, 165960, Note_on_c, 9, 42, 95
8, 166080, Note_off_c, 9, 42, 80
8, 166080, Note_on_c, 9, 46, 95
8, 166080, Note_on_c, 9, 36, 95
8, 166140, Note_off_c, 9, 46, 80
8, 166140, Note_off_c, 9, 36, 80
8, 166140, Note_on_c, 9, 46, 95
8, 166200, Note_off_c, 9, 46, 80
8, 166200, Note_on_c, 9, 46, 95
8, 166260, Note_off_c, 9, 46, 80
8, 166260, Note_on_c, 9, 46, 95
8, 166320, Note_off_c, 9, 46, 80
8, 166320, Note_on_c, 9, 46, 95
8, 166380, Note_off_c, 9, 46, 80
8, 166380, Note_on_c, 9, 46, 95
8, 166440, Note_off_c, 9, 46, 80
8, 166440, Note_on_c, 9, 46, 95
8, 166500, Note_off_c, 9, 46, 80
8, 166500, Note_on_c, 9, 46, 95
8, 166560, Note_off_c, 9, 46, 80
8, 166560, Note_on_c, 9, 42, 95
8, 166560, Note_on_c, 9, 36, 95
8, 166800, Note_off_c, 9, 42, 80
8, 166800, Note_off_c, 9, 36, 80
8, 166800, Note_on_c, 9, 42, 95
8, 166920, Note_off_c, 9, 42, 80
8, 166920, Note_on_c, 9, 42, 95
8, 167040, Note_off_c, 9, 42, 80
8, 167040, Note_on_c, 9, 46, 95
8, 167040, Note_on_c, 9, 36, 95
8, 167100, Note_off_c, 9, 46, 80
8, 167100, Note_off_c, 9, 36, 80
8, 167100, Note_on_c, 9, 46, 95
8, 167160, Note_off_c, 9, 46, 80
8, 167160, Note_on_c, 9, 46, 95
8, 167220, Note_off_c, 9, 46, 80
8, 167220, Note_on_c, 9, 46, 95
8, 167280, Note_off_c, 9, 46, 80
8, 167280, Note_on_c, 9, 46, 95
8, 167340, Note_off_c, 9, 46, 80
8, 167340, Note_on_c, 9, 46, 95
8, 167400, Note_off_c, 9, 46, 80
8, 167400, Note_on_c, 9, 46, 95
8, 167460, Note_off_c, 9, 46, 80
8, 167460, Note_on_c, 9, 46, 95
8, 167520, Note_off_c, 9, 46, 80
8, 167520, Note_on_c, 9, 42, 95
8, 167520, Note_on_c, 9, 36, 95
8, 167760, Note_off_c, 9, 42, 80
8, 167760, Note_off_c, 9, 36, 80
8, 167760, Note_on_c, 9, 42, 95
8, 167880, Note_off_c, 9, 42, 80
8, 167880, Note_on_c, 9, 42, 95
8, 168000, Note_off_c, 9, 42, 80
8, 168000, Note_on_c, 9, 46, 95
8, 168000, Note_on_c, 9, 36, 95
8, 168060, Note_off_c, 9, 46, 80
8, 168060, Note_off_c, 9, 36, 80
8, 168060, Note_on_c, 9, 46, 95
8, 168120, Note_off_c, 9, 46, 80
8, 168120, Note_on_c, 9, 46, 95
8, 168180, Note_off_c, 9, 46, 80
8, 168180, Note_on_c, 9, 46, 95
8, 168240, Note_off_c, 9, 46, 80
8, 168240, Note_on_c, 9, 46, 95
8, 168300, Note_off_c, 9, 46, 80
8, 168300, Note_on_c, 9, 46, 95
8, 168360, Note_off_c, 9, 46, 80
8, 168360, Note_on_c, 9, 46, 95
8, 168420, Note_off_c, 9, 46, 80
8, 168420, Note_on_c, 9, 46, 95
8, 168480, Note_off_c, 9, 46, 80
8, 168480, Note_on_c, 9, 42, 95
8, 168480, Note_on_c, 9, 36, 95
8, 168720, Note_off_c, 9, 42, 80
8, 168720, Note_off_c, 9, 36, 80
8, 168720, Note_on_c, 9, 42, 95
8, 168840, Note_off_c, 9, 42, 80
8, 168840, Note_on_c, 9, 42, 95
8, 168960, Note_off_c, 9, 42, 80
8, 168960, Note_on_c, 9, 46, 95
8, 168960, Note_on_c, 9, 36, 95
8, 169020, Note_off_c, 9, 46, 80
8, 169020, Note_off_c, 9, 36, 80
8, 169020, Note_on_c, 9, 46, 95
8, 169080, Note_off_c, 9, 46, 80
8, 169080, Note_on_c, 9, 46, 95
8, 169140, Note_off_c, 9, 46, 80
8, 169140, Note_on_c, 9, 46, 95
8, 169200, Note_off_c, 9, 46, 80
8, 169200, Note_on_c, 9, 46, 95
8, 169260, Note_off_c, 9, 46, 80
8, 169260, Note_on_c, 9, 46, 95
8, 169320, Note_off_c, 9, 46, 80
8, 169320, Note_on_c, 9, 46, 95
8, 169380, Note_off_c, 9, 46, 80
8, 169380, Note_on_c, 9, 46, 95
8, 169440, Note_off_c, 9, 46, 80
8, 169440, Note_on_c, 9, 42, 95
8, 169440, Note_on_c, 9, 36, 95
8, 169680, Note_off_c, 9, 42, 80
8, 169680, Note_off_c, 9, 36, 80
8, 169680, Note_on_c, 9, 42, 95
8, 169800, Note_off_c, 9, 42, 80
8, 169800, Note_on_c, 9, 42, 95
8, 169920, Note_off_c, 9, 42, 80
8, 169920, Note_on_c, 9, 46, 95
8, 169920, Note_on_c, 9, 36, 95
8, 169980, Note_off_c, 9, 46, 80
8, 169980, Note_off_c, 9, 36, 80
8, 169980, Note_on_c, 9, 46, 95
8, 170040, Note_off_c, 9, 46, 80
8, 170040, Note_on_c, 9, 46, 95
8, 170100, Note_off_c, 9, 46, 80
8, 170100, Note_on_c, 9, 46, 95
8, 170160, Note_off_c, 9, 46, 80
8, 170160, Note_on_c, 9, 46, 95
8, 170220, Note_off_c, 9, 46, 80
8, 170220, Note_on_c, 9, 46, 95
8, 170280, Note_off_c, 9, 46, 80
8, 170280, Note_on_c, 9, 46, 95
8, 170340, Note_off_c, 9, 46, 80
8, 170340, Note_on_c, 9, 46, 95
8, 170400, Note_off_c, 9, 46, 80
8, 170400, Note_on_c, 9, 42, 95
8, 170400, Note_on_c, 9, 36, 95
8, 170640, Note_off_c, 9, 42, 80
8, 170640, Note_off_c, 9, 36, 80
8, 170640, Note_on_c, 9, 42, 95
8, 170760, Note_off_c, 9, 42, 80
8, 170760, Note_on_c, 9, 42, 95
8, 170880, Note_off_c, 9, 42, 80
8, 170880, Note_on_c, 9, 46, 95
8, 170880, Note_on_c, 9, 36, 95
8, 170940, Note_off_c, 9, 46, 80
8, 170940, Note_off_c, 9, 36, 80
8, 170940, Note_on_c, 9, 46, 95
8, 171000, Note_off_c, 9, 46, 80
8, 171000, Note_on_c, 9, 46, 95
8, 171060, Note_off_c, 9, 46, 80
8, 171060, Note_on_c, 9, 46, 95
8, 171120, Note_off_c, 9, 46, 80
8, 171120, Note_on_c, 9, 46, 95
8, 171180, Note_off_c, 9, 46, 80
8, 171180, Note_on_c, 9, 46, 95
8, 171240, Note_off_c, 9, 46, 80
8, 171240, Note_on_c, 9, 46, 95
8, 171300, Note_off_c, 9, 46, 80
8, 171300, Note_on_c, 9, 46, 95
8, 171360, Note_off_c, 9, 46, 80
8, 171360, Note_on_c, 9, 42, 95
8, 171360, Note_on_c, 9, 36, 95
8, 171600, Note_off_c, 9, 42, 80
8, 171600, Note_off_c, 9, 36, 80
8, 171600, Note_on_c, 9, 42, 95
8, 171720, Note_off_c, 9, 42, 80
8, 171720, Note_on_c, 9, 42, 95
8, 171840, Note_off_c, 9, 42, 80
8, 171840, Note_on_c, 9, 46, 95
8, 171840, Note_on_c, 9, 36, 95
8, 171900, Note_off_c, 9, 46, 80
8, 171900, Note_off_c, 9, 36, 80
8, 171900, Note_on_c, 9, 46, 95
8, 171960, Note_off_c, 9, 46, 80
8, 171960, Note_on_c, 9, 46, 95
8, 172020, Note_off_c, 9, 46, 80
8, 172020, Note_on_c, 9, 46, 95
8, 172080, Note_off_c, 9, 46, 80
8, 172080, Note_on_c, 9, 46, 95
8, 172140, Note_off_c, 9, 46, 80
8, 172140, Note_on_c, 9, 46, 95
8, 172200, Note_off_c, 9, 46, 80
8, 172200, Note_on_c, 9, 46, 95
8, 172260, Note_off_c, 9, 46, 80
8, 172260, Note_on_c, 9, 46, 95
8, 172320, Note_off_c, 9, 46, 80
8, 172320, Note_on_c, 9, 42, 95
8, 172320, Note_on_c, 9, 36, 95
8, 172560, Note_off_c, 9, 42, 80
8, 172560, Note_off_c, 9, 36, 80
8, 172560, Note_on_c, 9, 42, 95
8, 172680, Note_off_c, 9, 42, 80
8, 172680, Note_on_c, 9, 42, 95
8, 172800, Note_off_c, 9, 42, 80
8, 172800, End_track
0, 0, End_of_file
