0, 0, Header, 1, 11, 384
1, 0, Start_track
1, 0, Tempo, 416660
1, 0, Time_signature, 4, 2, 24, 8
1, 1536, Time_signature, 4, 2, 24, 8
1, 10752, Tempo, 389610
1, 176640, End_track
2, 0, Start_track
2, 0, Title_t, "MIDI"
2, 0, Control_c, 1, 7, 120
2, 0, Program_c, 1, 32
2, 412, Program_c, 1, 32
2, 416, Control_c, 1, 7, 120
2, 416, Control_c, 1, 10, 64
2, 416, Control_c, 1, 11, 127
2, 420, Control_c, 1, 91, 80
2, 420, Control_c, 1, 93, 0
2, 13824, Note_on_c, 1, 40, 96
2, 13968, Note_off_c, 1, 40, 64
2, 14016, Note_on_c, 1, 40, 77
2, 14188, Note_off_c, 1, 40, 64
2, 14208, Note_on_c, 1, 35, 89
2, 14380, Note_off_c, 1, 35, 64
2, 14400, Note_on_c, 1, 40, 92
2, 14724, Note_off_c, 1, 40, 64
2, 14784, Note_on_c, 1, 40, 84
2, 14976, Note_off_c, 1, 40, 64
2, 14976, Note_on_c, 1, 35, 92
2, 15168, Note_on_c, 1, 40, 85
2, 15204, Note_off_c, 1, 35, 64
2, 15484, Note_off_c, 1, 40, 64
2, 15552, Note_on_c, 1, 40, 77
2, 15744, Note_off_c, 1, 40, 64
2, 15744, Note_on_c, 1, 35, 88
2, 15936, Note_on_c, 1, 40, 87
2, 15968, Note_off_c, 1, 35, 64
2, 16260, Note_off_c, 1, 40, 64
2, 16320, Note_on_c, 1, 40, 75
2, 16504, Note_off_c, 1, 40, 64
2, 16512, Note_on_c, 1, 35, 89
2, 16704, Note_on_c, 1, 40, 85
2, 16744, Note_off_c, 1, 35, 64
2, 17024, Note_off_c, 1, 40, 64
2, 17088, Note_on_c, 1, 40, 76
2, 17280, Note_on_c, 1, 35, 85
2, 17292, Note_off_c, 1, 40, 64
2, 17472, Note_on_c, 1, 40, 83
2, 17516, Note_off_c, 1, 35, 64
2, 17760, Note_off_c, 1, 40, 64
2, 17856, Note_on_c, 1, 40, 85
2, 18048, Note_on_c, 1, 35, 87
2, 18068, Note_off_c, 1, 40, 64
2, 18240, Note_on_c, 1, 40, 83
2, 18272, Note_off_c, 1, 35, 64
2, 18532, Note_off_c, 1, 40, 64
2, 18624, Note_on_c, 1, 40, 84
2, 18816, Note_on_c, 1, 35, 87
2, 18832, Note_off_c, 1, 40, 64
2, 19008, Note_on_c, 1, 40, 83
2, 19064, Note_off_c, 1, 35, 64
2, 19272, Note_off_c, 1, 40, 64
2, 19392, Note_on_c, 1, 40, 79
2, 19584, Note_on_c, 1, 35, 87
2, 19628, Note_off_c, 1, 40, 64
2, 19708, Note_off_c, 1, 35, 64
2, 19776, Note_on_c, 1, 40, 89
2, 19968, Note_off_c, 1, 40, 64
2, 19968, Note_on_c, 1, 35, 98
2, 20160, Note_on_c, 1, 42, 88
2, 20204, Note_off_c, 1, 35, 64
2, 20416, Note_off_c, 1, 42, 64
2, 20544, Note_on_c, 1, 42, 88
2, 20736, Note_on_c, 1, 35, 93
2, 20752, Note_off_c, 1, 42, 64
2, 20928, Note_on_c, 1, 42, 90
2, 20964, Note_off_c, 1, 35, 64
2, 21180, Note_off_c, 1, 42, 64
2, 21312, Note_on_c, 1, 42, 88
2, 21504, Note_on_c, 1, 35, 95
2, 21512, Note_off_c, 1, 42, 64
2, 21696, Note_on_c, 1, 42, 89
2, 21736, Note_off_c, 1, 35, 64
2, 21920, Note_off_c, 1, 42, 64
2, 22080, Note_on_c, 1, 42, 86
2, 22252, Note_off_c, 1, 42, 64
2, 22272, Note_on_c, 1, 35, 88
2, 22464, Note_on_c, 1, 43, 97
2, 22500, Note_off_c, 1, 35, 64
2, 22704, Note_off_c, 1, 43, 64
2, 22848, Note_on_c, 1, 42, 76
2, 23036, Note_off_c, 1, 42, 64
2, 23040, Note_on_c, 1, 40, 85
2, 23168, Note_off_c, 1, 40, 64
2, 23232, Note_on_c, 1, 40, 76
2, 23424, Note_on_c, 1, 35, 85
2, 23436, Note_off_c, 1, 40, 64
2, 23616, Note_on_c, 1, 40, 83
2, 23660, Note_off_c, 1, 35, 64
2, 23904, Note_off_c, 1, 40, 64
2, 24000, Note_on_c, 1, 40, 85
2, 24192, Note_on_c, 1, 35, 87
2, 24212, Note_off_c, 1, 40, 64
2, 24384, Note_on_c, 1, 40, 83
2, 24416, Note_off_c, 1, 35, 64
2, 24676, Note_off_c, 1, 40, 64
2, 24768, Note_on_c, 1, 40, 84
2, 24960, Note_on_c, 1, 35, 87
2, 24976, Note_off_c, 1, 40, 64
2, 25152, Note_on_c, 1, 40, 83
2, 25208, Note_off_c, 1, 35, 64
2, 25416, Note_off_c, 1, 40, 64
2, 25536, Note_on_c, 1, 40, 79
2, 25728, Note_on_c, 1, 35, 87
2, 25772, Note_off_c, 1, 40, 64
2, 25852, Note_off_c, 1, 35, 64
2, 25920, Note_on_c, 1, 40, 89
2, 26112, Note_off_c, 1, 40, 64
2, 26112, Note_on_c, 1, 35, 98
2, 26304, Note_on_c, 1, 42, 88
2, 26348, Note_off_c, 1, 35, 64
2, 26560, Note_off_c, 1, 42, 64
2, 26688, Note_on_c, 1, 42, 88
2, 26880, Note_on_c, 1, 35, 93
2, 26896, Note_off_c, 1, 42, 64
2, 27072, Note_on_c, 1, 42, 90
2, 27108, Note_off_c, 1, 35, 64
2, 27324, Note_off_c, 1, 42, 64
2, 27456, Note_on_c, 1, 42, 88
2, 27648, Note_on_c, 1, 35, 95
2, 27656, Note_off_c, 1, 42, 64
2, 27840, Note_on_c, 1, 42, 89
2, 27880, Note_off_c, 1, 35, 64
2, 28064, Note_off_c, 1, 42, 64
2, 28224, Note_on_c, 1, 42, 86
2, 28396, Note_off_c, 1, 42, 64
2, 28416, Note_on_c, 1, 35, 88
2, 28608, Note_on_c, 1, 43, 97
2, 28644, Note_off_c, 1, 35, 64
2, 28848, Note_off_c, 1, 43, 64
2, 28992, Note_on_c, 1, 42, 76
2, 29180, Note_off_c, 1, 42, 64
2, 29184, Note_on_c, 1, 40, 101
2, 29460, Note_off_c, 1, 40, 64
2, 29568, Note_on_c, 1, 40, 103
2, 29876, Note_off_c, 1, 40, 64
2, 29952, Note_on_c, 1, 38, 106
2, 30244, Note_off_c, 1, 38, 64
2, 30336, Note_on_c, 1, 38, 97
2, 30612, Note_off_c, 1, 38, 64
2, 30720, Note_on_c, 1, 31, 102
2, 31004, Note_off_c, 1, 31, 64
2, 31104, Note_on_c, 1, 31, 100
2, 31376, Note_off_c, 1, 31, 64
2, 31488, Note_on_c, 1, 38, 102
2, 31752, Note_off_c, 1, 38, 64
2, 31872, Note_on_c, 1, 38, 109
2, 32108, Note_off_c, 1, 38, 64
2, 32256, Note_on_c, 1, 40, 92
2, 32376, Note_off_c, 1, 40, 64
2, 32448, Note_on_c, 1, 40, 87
2, 32616, Note_off_c, 1, 40, 64
2, 32640, Note_on_c, 1, 35, 94
2, 32764, Note_off_c, 1, 35, 64
2, 32832, Note_on_c, 1, 40, 89
2, 32960, Note_off_c, 1, 40, 64
2, 33024, Note_on_c, 1, 40, 88
2, 33148, Note_off_c, 1, 40, 64
2, 33216, Note_on_c, 1, 40, 88
2, 33372, Note_off_c, 1, 40, 64
2, 33408, Note_on_c, 1, 35, 100
2, 33552, Note_off_c, 1, 35, 64
2, 33600, Note_on_c, 1, 40, 93
2, 33712, Note_off_c, 1, 40, 64
2, 33792, Note_on_c, 1, 40, 93
2, 33908, Note_off_c, 1, 40, 64
2, 33984, Note_on_c, 1, 40, 92
2, 34144, Note_off_c, 1, 40, 64
2, 34176, Note_on_c, 1, 35, 98
2, 34300, Note_off_c, 1, 35, 64
2, 34368, Note_on_c, 1, 40, 92
2, 34492, Note_off_c, 1, 40, 64
2, 34560, Note_on_c, 1, 40, 93
2, 34672, Note_off_c, 1, 40, 64
2, 34752, Note_on_c, 1, 40, 90
2, 34904, Note_off_c, 1, 40, 64
2, 34944, Note_on_c, 1, 35, 95
2, 35064, Note_off_c, 1, 35, 64
2, 35136, Note_on_c, 1, 40, 96
2, 35288, Note_off_c, 1, 40, 64
2, 35328, Note_on_c, 1, 40, 101
2, 35604, Note_off_c, 1, 40, 64
2, 35712, Note_on_c, 1, 40, 103
2, 36020, Note_off_c, 1, 40, 64
2, 36096, Note_on_c, 1, 38, 106
2, 36388, Note_off_c, 1, 38, 64
2, 36480, Note_on_c, 1, 38, 97
2, 36756, Note_off_c, 1, 38, 64
2, 36864, Note_on_c, 1, 31, 102
2, 37148, Note_off_c, 1, 31, 64
2, 37248, Note_on_c, 1, 31, 100
2, 37520, Note_off_c, 1, 31, 64
2, 37632, Note_on_c, 1, 38, 102
2, 37896, Note_off_c, 1, 38, 64
2, 38016, Note_on_c, 1, 38, 109
2, 38252, Note_off_c, 1, 38, 64
2, 38400, Note_on_c, 1, 33, 104
2, 38688, Note_off_c, 1, 33, 64
2, 38784, Note_on_c, 1, 33, 100
2, 39104, Note_off_c, 1, 33, 64
2, 39168, Note_on_c, 1, 33, 94
2, 39432, Note_off_c, 1, 33, 64
2, 39552, Note_on_c, 1, 33, 100
2, 39820, Note_off_c, 1, 33, 64
2, 39936, Note_on_c, 1, 35, 98
2, 40240, Note_off_c, 1, 35, 64
2, 40320, Note_on_c, 1, 35, 98
2, 40612, Note_off_c, 1, 35, 64
2, 40704, Note_on_c, 1, 35, 100
2, 40968, Note_off_c, 1, 35, 64
2, 41088, Note_on_c, 1, 35, 103
2, 41244, Note_off_c, 1, 35, 64
2, 41472, Note_on_c, 1, 40, 85
2, 41600, Note_off_c, 1, 40, 64
2, 41664, Note_on_c, 1, 40, 76
2, 41856, Note_on_c, 1, 35, 85
2, 41868, Note_off_c, 1, 40, 64
2, 42048, Note_on_c, 1, 40, 83
2, 42092, Note_off_c, 1, 35, 64
2, 42336, Note_off_c, 1, 40, 64
2, 42432, Note_on_c, 1, 40, 85
2, 42624, Note_on_c, 1, 35, 87
2, 42644, Note_off_c, 1, 40, 64
2, 42816, Note_on_c, 1, 40, 83
2, 42848, Note_off_c, 1, 35, 64
2, 43108, Note_off_c, 1, 40, 64
2, 43200, Note_on_c, 1, 40, 84
2, 43392, Note_on_c, 1, 35, 87
2, 43408, Note_off_c, 1, 40, 64
2, 43584, Note_on_c, 1, 40, 83
2, 43640, Note_off_c, 1, 35, 64
2, 43848, Note_off_c, 1, 40, 64
2, 43968, Note_on_c, 1, 40, 79
2, 44160, Note_on_c, 1, 35, 87
2, 44204, Note_off_c, 1, 40, 64
2, 44284, Note_off_c, 1, 35, 64
2, 44352, Note_on_c, 1, 40, 89
2, 44544, Note_off_c, 1, 40, 64
2, 44544, Note_on_c, 1, 35, 98
2, 44736, Note_on_c, 1, 42, 88
2, 44780, Note_off_c, 1, 35, 64
2, 44992, Note_off_c, 1, 42, 64
2, 45120, Note_on_c, 1, 42, 88
2, 45312, Note_on_c, 1, 35, 93
2, 45328, Note_off_c, 1, 42, 64
2, 45504, Note_on_c, 1, 42, 90
2, 45540, Note_off_c, 1, 35, 64
2, 45756, Note_off_c, 1, 42, 64
2, 45888, Note_on_c, 1, 42, 88
2, 46080, Note_on_c, 1, 35, 95
2, 46088, Note_off_c, 1, 42, 64
2, 46272, Note_on_c, 1, 42, 89
2, 46312, Note_off_c, 1, 35, 64
2, 46496, Note_off_c, 1, 42, 64
2, 46656, Note_on_c, 1, 42, 86
2, 46828, Note_off_c, 1, 42, 64
2, 46848, Note_on_c, 1, 35, 88
2, 47040, Note_on_c, 1, 43, 97
2, 47076, Note_off_c, 1, 35, 64
2, 47280, Note_off_c, 1, 43, 64
2, 47424, Note_on_c, 1, 42, 76
2, 47612, Note_off_c, 1, 42, 64
2, 47616, Note_on_c, 1, 40, 85
2, 47744, Note_off_c, 1, 40, 64
2, 47808, Note_on_c, 1, 40, 76
2, 48000, Note_on_c, 1, 35, 85
2, 48012, Note_off_c, 1, 40, 64
2, 48192, Note_on_c, 1, 40, 83
2, 48236, Note_off_c, 1, 35, 64
2, 48480, Note_off_c, 1, 40, 64
2, 48576, Note_on_c, 1, 40, 85
2, 48768, Note_on_c, 1, 35, 87
2, 48788, Note_off_c, 1, 40, 64
2, 48960, Note_on_c, 1, 40, 83
2, 48992, Note_off_c, 1, 35, 64
2, 49252, Note_off_c, 1, 40, 64
2, 49344, Note_on_c, 1, 40, 84
2, 49536, Note_on_c, 1, 35, 87
2, 49552, Note_off_c, 1, 40, 64
2, 49728, Note_on_c, 1, 40, 83
2, 49784, Note_off_c, 1, 35, 64
2, 49992, Note_off_c, 1, 40, 64
2, 50112, Note_on_c, 1, 40, 79
2, 50304, Note_on_c, 1, 35, 87
2, 50348, Note_off_c, 1, 40, 64
2, 50428, Note_off_c, 1, 35, 64
2, 50496, Note_on_c, 1, 40, 89
2, 50688, Note_off_c, 1, 40, 64
2, 50688, Note_on_c, 1, 35, 98
2, 50880, Note_on_c, 1, 42, 88
2, 50924, Note_off_c, 1, 35, 64
2, 51136, Note_off_c, 1, 42, 64
2, 51264, Note_on_c, 1, 42, 88
2, 51456, Note_on_c, 1, 35, 93
2, 51472, Note_off_c, 1, 42, 64
2, 51648, Note_on_c, 1, 42, 90
2, 51684, Note_off_c, 1, 35, 64
2, 51900, Note_off_c, 1, 42, 64
2, 52032, Note_on_c, 1, 42, 88
2, 52224, Note_on_c, 1, 35, 95
2, 52232, Note_off_c, 1, 42, 64
2, 52416, Note_on_c, 1, 42, 89
2, 52456, Note_off_c, 1, 35, 64
2, 52640, Note_off_c, 1, 42, 64
2, 52800, Note_on_c, 1, 42, 86
2, 52972, Note_off_c, 1, 42, 64
2, 52992, Note_on_c, 1, 35, 88
2, 53184, Note_on_c, 1, 43, 97
2, 53220, Note_off_c, 1, 35, 64
2, 53424, Note_off_c, 1, 43, 64
2, 53568, Note_on_c, 1, 42, 76
2, 53756, Note_off_c, 1, 42, 64
2, 53760, Note_on_c, 1, 40, 101
2, 54036, Note_off_c, 1, 40, 64
2, 54144, Note_on_c, 1, 40, 103
2, 54452, Note_off_c, 1, 40, 64
2, 54528, Note_on_c, 1, 38, 106
2, 54820, Note_off_c, 1, 38, 64
2, 54912, Note_on_c, 1, 38, 97
2, 55188, Note_off_c, 1, 38, 64
2, 55296, Note_on_c, 1, 31, 102
2, 55580, Note_off_c, 1, 31, 64
2, 55680, Note_on_c, 1, 31, 100
2, 55952, Note_off_c, 1, 31, 64
2, 56064, Note_on_c, 1, 38, 102
2, 56328, Note_off_c, 1, 38, 64
2, 56448, Note_on_c, 1, 38, 109
2, 56684, Note_off_c, 1, 38, 64
2, 56832, Note_on_c, 1, 40, 92
2, 56952, Note_off_c, 1, 40, 64
2, 57024, Note_on_c, 1, 40, 87
2, 57192, Note_off_c, 1, 40, 64
2, 57216, Note_on_c, 1, 35, 94
2, 57340, Note_off_c, 1, 35, 64
2, 57408, Note_on_c, 1, 40, 89
2, 57536, Note_off_c, 1, 40, 64
2, 57600, Note_on_c, 1, 40, 88
2, 57724, Note_off_c, 1, 40, 64
2, 57792, Note_on_c, 1, 40, 88
2, 57948, Note_off_c, 1, 40, 64
2, 57984, Note_on_c, 1, 35, 100
2, 58128, Note_off_c, 1, 35, 64
2, 58176, Note_on_c, 1, 40, 93
2, 58288, Note_off_c, 1, 40, 64
2, 58368, Note_on_c, 1, 40, 93
2, 58484, Note_off_c, 1, 40, 64
2, 58560, Note_on_c, 1, 40, 92
2, 58720, Note_off_c, 1, 40, 64
2, 58752, Note_on_c, 1, 35, 98
2, 58876, Note_off_c, 1, 35, 64
2, 58944, Note_on_c, 1, 40, 92
2, 59068, Note_off_c, 1, 40, 64
2, 59136, Note_on_c, 1, 40, 93
2, 59248, Note_off_c, 1, 40, 64
2, 59328, Note_on_c, 1, 40, 90
2, 59480, Note_off_c, 1, 40, 64
2, 59520, Note_on_c, 1, 35, 95
2, 59640, Note_off_c, 1, 35, 64
2, 59712, Note_on_c, 1, 40, 96
2, 59864, Note_off_c, 1, 40, 64
2, 59904, Note_on_c, 1, 40, 101
2, 60180, Note_off_c, 1, 40, 64
2, 60288, Note_on_c, 1, 40, 103
2, 60596, Note_off_c, 1, 40, 64
2, 60672, Note_on_c, 1, 38, 106
2, 60964, Note_off_c, 1, 38, 64
2, 61056, Note_on_c, 1, 38, 97
2, 61332, Note_off_c, 1, 38, 64
2, 61440, Note_on_c, 1, 31, 102
2, 61724, Note_off_c, 1, 31, 64
2, 61824, Note_on_c, 1, 31, 100
2, 62096, Note_off_c, 1, 31, 64
2, 62208, Note_on_c, 1, 38, 102
2, 62472, Note_off_c, 1, 38, 64
2, 62592, Note_on_c, 1, 38, 109
2, 62828, Note_off_c, 1, 38, 64
2, 62976, Note_on_c, 1, 33, 104
2, 63264, Note_off_c, 1, 33, 64
2, 63360, Note_on_c, 1, 33, 100
2, 63680, Note_off_c, 1, 33, 64
2, 63744, Note_on_c, 1, 33, 94
2, 64008, Note_off_c, 1, 33, 64
2, 64128, Note_on_c, 1, 33, 100
2, 64396, Note_off_c, 1, 33, 64
2, 64512, Note_on_c, 1, 35, 98
2, 64816, Note_off_c, 1, 35, 64
2, 64896, Note_on_c, 1, 35, 98
2, 65188, Note_off_c, 1, 35, 64
2, 65280, Note_on_c, 1, 35, 100
2, 65544, Note_off_c, 1, 35, 64
2, 65664, Note_on_c, 1, 35, 103
2, 65820, Note_off_c, 1, 35, 64
2, 66048, Note_on_c, 1, 40, 85
2, 66176, Note_off_c, 1, 40, 64
2, 66240, Note_on_c, 1, 40, 76
2, 66432, Note_on_c, 1, 35, 85
2, 66444, Note_off_c, 1, 40, 64
2, 66624, Note_on_c, 1, 40, 83
2, 66668, Note_off_c, 1, 35, 64
2, 66912, Note_off_c, 1, 40, 64
2, 67008, Note_on_c, 1, 40, 85
2, 67200, Note_on_c, 1, 35, 87
2, 67220, Note_off_c, 1, 40, 64
2, 67392, Note_on_c, 1, 40, 83
2, 67424, Note_off_c, 1, 35, 64
2, 67684, Note_off_c, 1, 40, 64
2, 67776, Note_on_c, 1, 40, 84
2, 67968, Note_on_c, 1, 35, 87
2, 67984, Note_off_c, 1, 40, 64
2, 68160, Note_on_c, 1, 40, 83
2, 68216, Note_off_c, 1, 35, 64
2, 68424, Note_off_c, 1, 40, 64
2, 68544, Note_on_c, 1, 40, 79
2, 68736, Note_on_c, 1, 35, 87
2, 68780, Note_off_c, 1, 40, 64
2, 68860, Note_off_c, 1, 35, 64
2, 68928, Note_on_c, 1, 40, 89
2, 69120, Note_off_c, 1, 40, 64
2, 69120, Note_on_c, 1, 35, 98
2, 69312, Note_on_c, 1, 42, 88
2, 69356, Note_off_c, 1, 35, 64
2, 69568, Note_off_c, 1, 42, 64
2, 69696, Note_on_c, 1, 42, 88
2, 69888, Note_on_c, 1, 35, 93
2, 69904, Note_off_c, 1, 42, 64
2, 70080, Note_on_c, 1, 42, 90
2, 70116, Note_off_c, 1, 35, 64
2, 70332, Note_off_c, 1, 42, 64
2, 70464, Note_on_c, 1, 42, 88
2, 70656, Note_on_c, 1, 35, 95
2, 70664, Note_off_c, 1, 42, 64
2, 70848, Note_on_c, 1, 42, 89
2, 70888, Note_off_c, 1, 35, 64
2, 71072, Note_off_c, 1, 42, 64
2, 71232, Note_on_c, 1, 42, 86
2, 71404, Note_off_c, 1, 42, 64
2, 71424, Note_on_c, 1, 35, 88
2, 71616, Note_on_c, 1, 43, 97
2, 71652, Note_off_c, 1, 35, 64
2, 71856, Note_off_c, 1, 43, 64
2, 72000, Note_on_c, 1, 42, 76
2, 72188, Note_off_c, 1, 42, 64
2, 72192, Note_on_c, 1, 40, 85
2, 72320, Note_off_c, 1, 40, 64
2, 72384, Note_on_c, 1, 40, 76
2, 72576, Note_on_c, 1, 35, 85
2, 72588, Note_off_c, 1, 40, 64
2, 72768, Note_on_c, 1, 40, 83
2, 72812, Note_off_c, 1, 35, 64
2, 73056, Note_off_c, 1, 40, 64
2, 73152, Note_on_c, 1, 40, 85
2, 73344, Note_on_c, 1, 35, 87
2, 73364, Note_off_c, 1, 40, 64
2, 73536, Note_on_c, 1, 40, 83
2, 73568, Note_off_c, 1, 35, 64
2, 73828, Note_off_c, 1, 40, 64
2, 73920, Note_on_c, 1, 40, 84
2, 74112, Note_on_c, 1, 35, 87
2, 74128, Note_off_c, 1, 40, 64
2, 74304, Note_on_c, 1, 40, 83
2, 74360, Note_off_c, 1, 35, 64
2, 74568, Note_off_c, 1, 40, 64
2, 74688, Note_on_c, 1, 40, 79
2, 74880, Note_on_c, 1, 35, 87
2, 74924, Note_off_c, 1, 40, 64
2, 75004, Note_off_c, 1, 35, 64
2, 75072, Note_on_c, 1, 40, 89
2, 75264, Note_off_c, 1, 40, 64
2, 75264, Note_on_c, 1, 35, 98
2, 75456, Note_on_c, 1, 42, 88
2, 75500, Note_off_c, 1, 35, 64
2, 75712, Note_off_c, 1, 42, 64
2, 75840, Note_on_c, 1, 42, 88
2, 76032, Note_on_c, 1, 35, 93
2, 76048, Note_off_c, 1, 42, 64
2, 76224, Note_on_c, 1, 42, 90
2, 76260, Note_off_c, 1, 35, 64
2, 76476, Note_off_c, 1, 42, 64
2, 76608, Note_on_c, 1, 42, 88
2, 76800, Note_on_c, 1, 35, 95
2, 76808, Note_off_c, 1, 42, 64
2, 76992, Note_on_c, 1, 42, 89
2, 77032, Note_off_c, 1, 35, 64
2, 77216, Note_off_c, 1, 42, 64
2, 77376, Note_on_c, 1, 42, 86
2, 77548, Note_off_c, 1, 42, 64
2, 77568, Note_on_c, 1, 35, 88
2, 77760, Note_on_c, 1, 43, 97
2, 77796, Note_off_c, 1, 35, 64
2, 78000, Note_off_c, 1, 43, 64
2, 78144, Note_on_c, 1, 42, 76
2, 78332, Note_off_c, 1, 42, 64
2, 78336, Note_on_c, 1, 40, 101
2, 78612, Note_off_c, 1, 40, 64
2, 78720, Note_on_c, 1, 40, 103
2, 79028, Note_off_c, 1, 40, 64
2, 79104, Note_on_c, 1, 38, 106
2, 79396, Note_off_c, 1, 38, 64
2, 79488, Note_on_c, 1, 38, 97
2, 79764, Note_off_c, 1, 38, 64
2, 79872, Note_on_c, 1, 31, 102
2, 80156, Note_off_c, 1, 31, 64
2, 80256, Note_on_c, 1, 31, 100
2, 80528, Note_off_c, 1, 31, 64
2, 80640, Note_on_c, 1, 38, 102
2, 80904, Note_off_c, 1, 38, 64
2, 81024, Note_on_c, 1, 38, 109
2, 81260, Note_off_c, 1, 38, 64
2, 81408, Note_on_c, 1, 40, 92
2, 81528, Note_off_c, 1, 40, 64
2, 81600, Note_on_c, 1, 40, 87
2, 81768, Note_off_c, 1, 40, 64
2, 81792, Note_on_c, 1, 35, 94
2, 81916, Note_off_c, 1, 35, 64
2, 81984, Note_on_c, 1, 40, 89
2, 82112, Note_off_c, 1, 40, 64
2, 82176, Note_on_c, 1, 40, 88
2, 82300, Note_off_c, 1, 40, 64
2, 82368, Note_on_c, 1, 40, 88
2, 82524, Note_off_c, 1, 40, 64
2, 82560, Note_on_c, 1, 35, 100
2, 82704, Note_off_c, 1, 35, 64
2, 82752, Note_on_c, 1, 40, 93
2, 82864, Note_off_c, 1, 40, 64
2, 82944, Note_on_c, 1, 40, 93
2, 83060, Note_off_c, 1, 40, 64
2, 83136, Note_on_c, 1, 40, 92
2, 83296, Note_off_c, 1, 40, 64
2, 83328, Note_on_c, 1, 35, 98
2, 83452, Note_off_c, 1, 35, 64
2, 83520, Note_on_c, 1, 40, 92
2, 83644, Note_off_c, 1, 40, 64
2, 83712, Note_on_c, 1, 40, 93
2, 83824, Note_off_c, 1, 40, 64
2, 83904, Note_on_c, 1, 40, 90
2, 84056, Note_off_c, 1, 40, 64
2, 84096, Note_on_c, 1, 35, 95
2, 84216, Note_off_c, 1, 35, 64
2, 84288, Note_on_c, 1, 40, 96
2, 84440, Note_off_c, 1, 40, 64
2, 84480, Note_on_c, 1, 40, 101
2, 84756, Note_off_c, 1, 40, 64
2, 84864, Note_on_c, 1, 40, 103
2, 85172, Note_off_c, 1, 40, 64
2, 85248, Note_on_c, 1, 38, 106
2, 85540, Note_off_c, 1, 38, 64
2, 85632, Note_on_c, 1, 38, 97
2, 85908, Note_off_c, 1, 38, 64
2, 86016, Note_on_c, 1, 31, 102
2, 86300, Note_off_c, 1, 31, 64
2, 86400, Note_on_c, 1, 31, 100
2, 86672, Note_off_c, 1, 31, 64
2, 86784, Note_on_c, 1, 38, 102
2, 87048, Note_off_c, 1, 38, 64
2, 87168, Note_on_c, 1, 38, 109
2, 87404, Note_off_c, 1, 38, 64
2, 87552, Note_on_c, 1, 33, 104
2, 87840, Note_off_c, 1, 33, 64
2, 87936, Note_on_c, 1, 33, 100
2, 88256, Note_off_c, 1, 33, 64
2, 88320, Note_on_c, 1, 33, 94
2, 88584, Note_off_c, 1, 33, 64
2, 88704, Note_on_c, 1, 33, 100
2, 88972, Note_off_c, 1, 33, 64
2, 89088, Note_on_c, 1, 35, 98
2, 89392, Note_off_c, 1, 35, 64
2, 89472, Note_on_c, 1, 35, 98
2, 89764, Note_off_c, 1, 35, 64
2, 89856, Note_on_c, 1, 35, 100
2, 90120, Note_off_c, 1, 35, 64
2, 90240, Note_on_c, 1, 35, 103
2, 90396, Note_off_c, 1, 35, 64
2, 90624, Note_on_c, 1, 28, 98
2, 92784, Note_off_c, 1, 28, 64
2, 93696, Note_on_c, 1, 35, 98
2, 95856, Note_off_c, 1, 35, 64
2, 96768, Note_on_c, 1, 28, 98
2, 98928, Note_off_c, 1, 28, 64
2, 99840, Note_on_c, 1, 35, 98
2, 102000, Note_off_c, 1, 35, 64
2, 102912, Note_on_c, 1, 40, 101
2, 103188, Note_off_c, 1, 40, 64
2, 103296, Note_on_c, 1, 40, 103
2, 103604, Note_off_c, 1, 40, 64
2, 103680, Note_on_c, 1, 38, 106
2, 103972, Note_off_c, 1, 38, 64
2, 104064, Note_on_c, 1, 38, 97
2, 104340, Note_off_c, 1, 38, 64
2, 104448, Note_on_c, 1, 31, 102
2, 104732, Note_off_c, 1, 31, 64
2, 104832, Note_on_c, 1, 31, 100
2, 105104, Note_off_c, 1, 31, 64
2, 105216, Note_on_c, 1, 38, 102
2, 105480, Note_off_c, 1, 38, 64
2, 105600, Note_on_c, 1, 38, 109
2, 105836, Note_off_c, 1, 38, 64
2, 105984, Note_on_c, 1, 40, 92
2, 106104, Note_off_c, 1, 40, 64
2, 106176, Note_on_c, 1, 40, 87
2, 106344, Note_off_c, 1, 40, 64
2, 106368, Note_on_c, 1, 35, 94
2, 106492, Note_off_c, 1, 35, 64
2, 106560, Note_on_c, 1, 40, 89
2, 106688, Note_off_c, 1, 40, 64
2, 106752, Note_on_c, 1, 40, 88
2, 106876, Note_off_c, 1, 40, 64
2, 106944, Note_on_c, 1, 40, 88
2, 107100, Note_off_c, 1, 40, 64
2, 107136, Note_on_c, 1, 35, 100
2, 107280, Note_off_c, 1, 35, 64
2, 107328, Note_on_c, 1, 40, 93
2, 107440, Note_off_c, 1, 40, 64
2, 107520, Note_on_c, 1, 40, 93
2, 107636, Note_off_c, 1, 40, 64
2, 107712, Note_on_c, 1, 40, 92
2, 107872, Note_off_c, 1, 40, 64
2, 107904, Note_on_c, 1, 35, 98
2, 108028, Note_off_c, 1, 35, 64
2, 108096, Note_on_c, 1, 40, 92
2, 108220, Note_off_c, 1, 40, 64
2, 108288, Note_on_c, 1, 40, 93
2, 108400, Note_off_c, 1, 40, 64
2, 108480, Note_on_c, 1, 40, 90
2, 108632, Note_off_c, 1, 40, 64
2, 108672, Note_on_c, 1, 35, 95
2, 108792, Note_off_c, 1, 35, 64
2, 108864, Note_on_c, 1, 40, 96
2, 109016, Note_off_c, 1, 40, 64
2, 109056, Note_on_c, 1, 40, 101
2, 109332, Note_off_c, 1, 40, 64
2, 109440, Note_on_c, 1, 40, 103
2, 109748, Note_off_c, 1, 40, 64
2, 109824, Note_on_c, 1, 38, 106
2, 110116, Note_off_c, 1, 38, 64
2, 110208, Note_on_c, 1, 38, 97
2, 110484, Note_off_c, 1, 38, 64
2, 110592, Note_on_c, 1, 31, 102
2, 110876, Note_off_c, 1, 31, 64
2, 110976, Note_on_c, 1, 31, 100
2, 111248, Note_off_c, 1, 31, 64
2, 111360, Note_on_c, 1, 38, 102
2, 111624, Note_off_c, 1, 38, 64
2, 111744, Note_on_c, 1, 38, 109
2, 111980, Note_off_c, 1, 38, 64
2, 112128, Note_on_c, 1, 33, 104
2, 112416, Note_off_c, 1, 33, 64
2, 112512, Note_on_c, 1, 33, 100
2, 112832, Note_off_c, 1, 33, 64
2, 112896, Note_on_c, 1, 33, 94
2, 113160, Note_off_c, 1, 33, 64
2, 113280, Note_on_c, 1, 33, 100
2, 113548, Note_off_c, 1, 33, 64
2, 113664, Note_on_c, 1, 35, 98
2, 113968, Note_off_c, 1, 35, 64
2, 114048, Note_on_c, 1, 35, 98
2, 114340, Note_off_c, 1, 35, 64
2, 114432, Note_on_c, 1, 35, 100
2, 114696, Note_off_c, 1, 35, 64
2, 114816, Note_on_c, 1, 35, 103
2, 114972, Note_off_c, 1, 35, 64
2, 115200, Note_on_c, 1, 40, 85
2, 115328, Note_off_c, 1, 40, 64
2, 115392, Note_on_c, 1, 40, 76
2, 115584, Note_on_c, 1, 35, 85
2, 115596, Note_off_c, 1, 40, 64
2, 115776, Note_on_c, 1, 40, 83
2, 115820, Note_off_c, 1, 35, 64
2, 116064, Note_off_c, 1, 40, 64
2, 116160, Note_on_c, 1, 40, 85
2, 116352, Note_on_c, 1, 35, 87
2, 116372, Note_off_c, 1, 40, 64
2, 116544, Note_on_c, 1, 40, 83
2, 116576, Note_off_c, 1, 35, 64
2, 116836, Note_off_c, 1, 40, 64
2, 116928, Note_on_c, 1, 40, 84
2, 117120, Note_on_c, 1, 35, 87
2, 117136, Note_off_c, 1, 40, 64
2, 117312, Note_on_c, 1, 40, 83
2, 117368, Note_off_c, 1, 35, 64
2, 117576, Note_off_c, 1, 40, 64
2, 117696, Note_on_c, 1, 40, 79
2, 117888, Note_on_c, 1, 35, 87
2, 117932, Note_off_c, 1, 40, 64
2, 118012, Note_off_c, 1, 35, 64
2, 118080, Note_on_c, 1, 40, 89
2, 118272, Note_off_c, 1, 40, 64
2, 118272, Note_on_c, 1, 35, 98
2, 118464, Note_on_c, 1, 42, 88
2, 118508, Note_off_c, 1, 35, 64
2, 118720, Note_off_c, 1, 42, 64
2, 118848, Note_on_c, 1, 42, 88
2, 119040, Note_on_c, 1, 35, 93
2, 119056, Note_off_c, 1, 42, 64
2, 119232, Note_on_c, 1, 42, 90
2, 119268, Note_off_c, 1, 35, 64
2, 119484, Note_off_c, 1, 42, 64
2, 119616, Note_on_c, 1, 42, 88
2, 119808, Note_on_c, 1, 35, 95
2, 119816, Note_off_c, 1, 42, 64
2, 120000, Note_on_c, 1, 42, 89
2, 120040, Note_off_c, 1, 35, 64
2, 120224, Note_off_c, 1, 42, 64
2, 120384, Note_on_c, 1, 42, 86
2, 120556, Note_off_c, 1, 42, 64
2, 120576, Note_on_c, 1, 35, 88
2, 120768, Note_on_c, 1, 43, 97
2, 120804, Note_off_c, 1, 35, 64
2, 121008, Note_off_c, 1, 43, 64
2, 121152, Note_on_c, 1, 42, 76
2, 121340, Note_off_c, 1, 42, 64
2, 121344, Note_on_c, 1, 40, 85
2, 121472, Note_off_c, 1, 40, 64
2, 121536, Note_on_c, 1, 40, 76
2, 121728, Note_on_c, 1, 35, 85
2, 121740, Note_off_c, 1, 40, 64
2, 121920, Note_on_c, 1, 40, 83
2, 121964, Note_off_c, 1, 35, 64
2, 122208, Note_off_c, 1, 40, 64
2, 122304, Note_on_c, 1, 40, 85
2, 122496, Note_on_c, 1, 35, 87
2, 122516, Note_off_c, 1, 40, 64
2, 122688, Note_on_c, 1, 40, 83
2, 122720, Note_off_c, 1, 35, 64
2, 122980, Note_off_c, 1, 40, 64
2, 123072, Note_on_c, 1, 40, 84
2, 123264, Note_on_c, 1, 35, 87
2, 123280, Note_off_c, 1, 40, 64
2, 123456, Note_on_c, 1, 40, 83
2, 123512, Note_off_c, 1, 35, 64
2, 123720, Note_off_c, 1, 40, 64
2, 123840, Note_on_c, 1, 40, 79
2, 124032, Note_on_c, 1, 35, 87
2, 124076, Note_off_c, 1, 40, 64
2, 124156, Note_off_c, 1, 35, 64
2, 124224, Note_on_c, 1, 40, 89
2, 124416, Note_off_c, 1, 40, 64
2, 124416, Note_on_c, 1, 35, 98
2, 124608, Note_on_c, 1, 42, 88
2, 124652, Note_off_c, 1, 35, 64
2, 124864, Note_off_c, 1, 42, 64
2, 124992, Note_on_c, 1, 42, 88
2, 125184, Note_on_c, 1, 35, 93
2, 125200, Note_off_c, 1, 42, 64
2, 125376, Note_on_c, 1, 42, 90
2, 125412, Note_off_c, 1, 35, 64
2, 125628, Note_off_c, 1, 42, 64
2, 125760, Note_on_c, 1, 42, 88
2, 125952, Note_on_c, 1, 35, 95
2, 125960, Note_off_c, 1, 42, 64
2, 126144, Note_on_c, 1, 42, 89
2, 126184, Note_off_c, 1, 35, 64
2, 126368, Note_off_c, 1, 42, 64
2, 126528, Note_on_c, 1, 42, 86
2, 126700, Note_off_c, 1, 42, 64
2, 126720, Note_on_c, 1, 35, 88
2, 126912, Note_on_c, 1, 43, 97
2, 126948, Note_off_c, 1, 35, 64
2, 127152, Note_off_c, 1, 43, 64
2, 127296, Note_on_c, 1, 42, 76
2, 127484, Note_off_c, 1, 42, 64
2, 127488, Note_on_c, 1, 40, 101
2, 127764, Note_off_c, 1, 40, 64
2, 127872, Note_on_c, 1, 40, 103
2, 128180, Note_off_c, 1, 40, 64
2, 128256, Note_on_c, 1, 38, 106
2, 128548, Note_off_c, 1, 38, 64
2, 128640, Note_on_c, 1, 38, 97
2, 128916, Note_off_c, 1, 38, 64
2, 129024, Note_on_c, 1, 31, 102
2, 129308, Note_off_c, 1, 31, 64
2, 129408, Note_on_c, 1, 31, 100
2, 129680, Note_off_c, 1, 31, 64
2, 129792, Note_on_c, 1, 38, 102
2, 130056, Note_off_c, 1, 38, 64
2, 130176, Note_on_c, 1, 38, 109
2, 130412, Note_off_c, 1, 38, 64
2, 130560, Note_on_c, 1, 40, 92
2, 130680, Note_off_c, 1, 40, 64
2, 130752, Note_on_c, 1, 40, 87
2, 130920, Note_off_c, 1, 40, 64
2, 130944, Note_on_c, 1, 35, 94
2, 131068, Note_off_c, 1, 35, 64
2, 131136, Note_on_c, 1, 40, 89
2, 131264, Note_off_c, 1, 40, 64
2, 131328, Note_on_c, 1, 40, 88
2, 131452, Note_off_c, 1, 40, 64
2, 131520, Note_on_c, 1, 40, 88
2, 131676, Note_off_c, 1, 40, 64
2, 131712, Note_on_c, 1, 35, 100
2, 131856, Note_off_c, 1, 35, 64
2, 131904, Note_on_c, 1, 40, 93
2, 132016, Note_off_c, 1, 40, 64
2, 132096, Note_on_c, 1, 40, 93
2, 132212, Note_off_c, 1, 40, 64
2, 132288, Note_on_c, 1, 40, 92
2, 132448, Note_off_c, 1, 40, 64
2, 132480, Note_on_c, 1, 35, 98
2, 132604, Note_off_c, 1, 35, 64
2, 132672, Note_on_c, 1, 40, 92
2, 132796, Note_off_c, 1, 40, 64
2, 132864, Note_on_c, 1, 40, 93
2, 132976, Note_off_c, 1, 40, 64
2, 133056, Note_on_c, 1, 40, 90
2, 133208, Note_off_c, 1, 40, 64
2, 133248, Note_on_c, 1, 35, 95
2, 133368, Note_off_c, 1, 35, 64
2, 133440, Note_on_c, 1, 40, 96
2, 133592, Note_off_c, 1, 40, 64
2, 133632, Note_on_c, 1, 40, 101
2, 133908, Note_off_c, 1, 40, 64
2, 134016, Note_on_c, 1, 40, 103
2, 134324, Note_off_c, 1, 40, 64
2, 134400, Note_on_c, 1, 38, 106
2, 134692, Note_off_c, 1, 38, 64
2, 134784, Note_on_c, 1, 38, 97
2, 135060, Note_off_c, 1, 38, 64
2, 135168, Note_on_c, 1, 31, 102
2, 135452, Note_off_c, 1, 31, 64
2, 135552, Note_on_c, 1, 31, 100
2, 135824, Note_off_c, 1, 31, 64
2, 135936, Note_on_c, 1, 38, 102
2, 136200, Note_off_c, 1, 38, 64
2, 136320, Note_on_c, 1, 38, 109
2, 136556, Note_off_c, 1, 38, 64
2, 136704, Note_on_c, 1, 33, 104
2, 136992, Note_off_c, 1, 33, 64
2, 137088, Note_on_c, 1, 33, 100
2, 137408, Note_off_c, 1, 33, 64
2, 137472, Note_on_c, 1, 33, 94
2, 137736, Note_off_c, 1, 33, 64
2, 137856, Note_on_c, 1, 33, 100
2, 138124, Note_off_c, 1, 33, 64
2, 138240, Note_on_c, 1, 35, 98
2, 138544, Note_off_c, 1, 35, 64
2, 138624, Note_on_c, 1, 35, 98
2, 138916, Note_off_c, 1, 35, 64
2, 139008, Note_on_c, 1, 35, 100
2, 139272, Note_off_c, 1, 35, 64
2, 139392, Note_on_c, 1, 35, 103
2, 139548, Note_off_c, 1, 35, 64
2, 139776, Note_on_c, 1, 40, 85
2, 139904, Note_off_c, 1, 40, 64
2, 139968, Note_on_c, 1, 40, 76
2, 140160, Note_on_c, 1, 35, 85
2, 140172, Note_off_c, 1, 40, 64
2, 140352, Note_on_c, 1, 40, 83
2, 140396, Note_off_c, 1, 35, 64
2, 140640, Note_off_c, 1, 40, 64
2, 140736, Note_on_c, 1, 40, 85
2, 140928, Note_on_c, 1, 35, 87
2, 140948, Note_off_c, 1, 40, 64
2, 141120, Note_on_c, 1, 40, 83
2, 141152, Note_off_c, 1, 35, 64
2, 141412, Note_off_c, 1, 40, 64
2, 141504, Note_on_c, 1, 40, 84
2, 141696, Note_on_c, 1, 35, 87
2, 141712, Note_off_c, 1, 40, 64
2, 141888, Note_on_c, 1, 40, 83
2, 141944, Note_off_c, 1, 35, 64
2, 142152, Note_off_c, 1, 40, 64
2, 142272, Note_on_c, 1, 40, 79
2, 142464, Note_on_c, 1, 35, 87
2, 142508, Note_off_c, 1, 40, 64
2, 142588, Note_off_c, 1, 35, 64
2, 142656, Note_on_c, 1, 40, 89
2, 142848, Note_off_c, 1, 40, 64
2, 142848, Note_on_c, 1, 35, 98
2, 143040, Note_on_c, 1, 42, 88
2, 143084, Note_off_c, 1, 35, 64
2, 143296, Note_off_c, 1, 42, 64
2, 143424, Note_on_c, 1, 42, 88
2, 143616, Note_on_c, 1, 35, 93
2, 143632, Note_off_c, 1, 42, 64
2, 143808, Note_on_c, 1, 42, 90
2, 143844, Note_off_c, 1, 35, 64
2, 144060, Note_off_c, 1, 42, 64
2, 144192, Note_on_c, 1, 42, 88
2, 144384, Note_on_c, 1, 35, 95
2, 144392, Note_off_c, 1, 42, 64
2, 144576, Note_on_c, 1, 42, 89
2, 144616, Note_off_c, 1, 35, 64
2, 144800, Note_off_c, 1, 42, 64
2, 144960, Note_on_c, 1, 42, 86
2, 145132, Note_off_c, 1, 42, 64
2, 145152, Note_on_c, 1, 35, 88
2, 145344, Note_on_c, 1, 43, 97
2, 145380, Note_off_c, 1, 35, 64
2, 145584, Note_off_c, 1, 43, 64
2, 145728, Note_on_c, 1, 42, 76
2, 145916, Note_off_c, 1, 42, 64
2, 145920, Note_on_c, 1, 40, 85
2, 146048, Note_off_c, 1, 40, 64
2, 146112, Note_on_c, 1, 40, 76
2, 146304, Note_on_c, 1, 35, 85
2, 146316, Note_off_c, 1, 40, 64
2, 146496, Note_on_c, 1, 40, 83
2, 146540, Note_off_c, 1, 35, 64
2, 146784, Note_off_c, 1, 40, 64
2, 146880, Note_on_c, 1, 40, 85
2, 147072, Note_on_c, 1, 35, 87
2, 147092, Note_off_c, 1, 40, 64
2, 147264, Note_on_c, 1, 40, 83
2, 147296, Note_off_c, 1, 35, 64
2, 147556, Note_off_c, 1, 40, 64
2, 147648, Note_on_c, 1, 40, 84
2, 147840, Note_on_c, 1, 35, 87
2, 147856, Note_off_c, 1, 40, 64
2, 148032, Note_on_c, 1, 40, 83
2, 148088, Note_off_c, 1, 35, 64
2, 148296, Note_off_c, 1, 40, 64
2, 148416, Note_on_c, 1, 40, 79
2, 148608, Note_on_c, 1, 35, 87
2, 148652, Note_off_c, 1, 40, 64
2, 148732, Note_off_c, 1, 35, 64
2, 148800, Note_on_c, 1, 40, 89
2, 148992, Note_off_c, 1, 40, 64
2, 148992, Note_on_c, 1, 35, 98
2, 149184, Note_on_c, 1, 42, 88
2, 149228, Note_off_c, 1, 35, 64
2, 149440, Note_off_c, 1, 42, 64
2, 149568, Note_on_c, 1, 42, 88
2, 149760, Note_on_c, 1, 35, 93
2, 149776, Note_off_c, 1, 42, 64
2, 149952, Note_on_c, 1, 42, 90
2, 149988, Note_off_c, 1, 35, 64
2, 150204, Note_off_c, 1, 42, 64
2, 150336, Note_on_c, 1, 42, 88
2, 150528, Note_on_c, 1, 35, 95
2, 150536, Note_off_c, 1, 42, 64
2, 150720, Note_on_c, 1, 42, 89
2, 150760, Note_off_c, 1, 35, 64
2, 150944, Note_off_c, 1, 42, 64
2, 151104, Note_on_c, 1, 42, 86
2, 151276, Note_off_c, 1, 42, 64
2, 151296, Note_on_c, 1, 35, 88
2, 151488, Note_on_c, 1, 42, 97
2, 151524, Note_off_c, 1, 35, 64
2, 151728, Note_off_c, 1, 42, 64
2, 151872, Note_on_c, 1, 42, 76
2, 152060, Note_off_c, 1, 42, 64
2, 152064, Note_on_c, 1, 40, 85
2, 152192, Note_off_c, 1, 40, 64
2, 152256, Note_on_c, 1, 40, 76
2, 152448, Note_on_c, 1, 35, 85
2, 152460, Note_off_c, 1, 40, 64
2, 152640, Note_on_c, 1, 40, 83
2, 152684, Note_off_c, 1, 35, 64
2, 152928, Note_off_c, 1, 40, 64
2, 153024, Note_on_c, 1, 40, 85
2, 153216, Note_on_c, 1, 35, 87
2, 153236, Note_off_c, 1, 40, 64
2, 153408, Note_on_c, 1, 40, 83
2, 153440, Note_off_c, 1, 35, 64
2, 153700, Note_off_c, 1, 40, 64
2, 153792, Note_on_c, 1, 40, 84
2, 153984, Note_on_c, 1, 35, 87
2, 154000, Note_off_c, 1, 40, 64
2, 154176, Note_on_c, 1, 40, 83
2, 154232, Note_off_c, 1, 35, 64
2, 154440, Note_off_c, 1, 40, 64
2, 154560, Note_on_c, 1, 40, 79
2, 154752, Note_on_c, 1, 35, 87
2, 154796, Note_off_c, 1, 40, 64
2, 154876, Note_off_c, 1, 35, 64
2, 154944, Note_on_c, 1, 40, 89
2, 155136, Note_off_c, 1, 40, 64
2, 155136, Note_on_c, 1, 35, 98
2, 155328, Note_on_c, 1, 42, 88
2, 155372, Note_off_c, 1, 35, 64
2, 155584, Note_off_c, 1, 42, 64
2, 155712, Note_on_c, 1, 42, 88
2, 155904, Note_on_c, 1, 35, 93
2, 155920, Note_off_c, 1, 42, 64
2, 156096, Note_on_c, 1, 42, 90
2, 156132, Note_off_c, 1, 35, 64
2, 156348, Note_off_c, 1, 42, 64
2, 156480, Note_on_c, 1, 42, 88
2, 156672, Note_on_c, 1, 35, 95
2, 156680, Note_off_c, 1, 42, 64
2, 156864, Note_on_c, 1, 42, 89
2, 156904, Note_off_c, 1, 35, 64
2, 157088, Note_off_c, 1, 42, 64
2, 157248, Note_on_c, 1, 42, 86
2, 157420, Note_off_c, 1, 42, 64
2, 157440, Note_on_c, 1, 35, 88
2, 157632, Note_on_c, 1, 42, 97
2, 157668, Note_off_c, 1, 35, 64
2, 157872, Note_off_c, 1, 42, 64
2, 158016, Note_on_c, 1, 42, 76
2, 158204, Note_off_c, 1, 42, 64
2, 158208, Note_on_c, 1, 40, 85
2, 158336, Note_off_c, 1, 40, 64
2, 158400, Note_on_c, 1, 40, 76
2, 158592, Note_on_c, 1, 35, 85
2, 158604, Note_off_c, 1, 40, 64
2, 158784, Note_on_c, 1, 40, 83
2, 158828, Note_off_c, 1, 35, 64
2, 159072, Note_off_c, 1, 40, 64
2, 159168, Note_on_c, 1, 40, 85
2, 159360, Note_on_c, 1, 35, 87
2, 159380, Note_off_c, 1, 40, 64
2, 159552, Note_on_c, 1, 40, 83
2, 159584, Note_off_c, 1, 35, 64
2, 159844, Note_off_c, 1, 40, 64
2, 159936, Note_on_c, 1, 40, 84
2, 160128, Note_on_c, 1, 35, 87
2, 160144, Note_off_c, 1, 40, 64
2, 160320, Note_on_c, 1, 40, 83
2, 160376, Note_off_c, 1, 35, 64
2, 160584, Note_off_c, 1, 40, 64
2, 160704, Note_on_c, 1, 40, 79
2, 160896, Note_on_c, 1, 35, 87
2, 160940, Note_off_c, 1, 40, 64
2, 161020, Note_off_c, 1, 35, 64
2, 161088, Note_on_c, 1, 40, 89
2, 161280, Note_off_c, 1, 40, 64
2, 161280, Note_on_c, 1, 35, 98
2, 161472, Note_on_c, 1, 42, 88
2, 161516, Note_off_c, 1, 35, 64
2, 161728, Note_off_c, 1, 42, 64
2, 161856, Note_on_c, 1, 42, 88
2, 162048, Note_on_c, 1, 35, 93
2, 162064, Note_off_c, 1, 42, 64
2, 162240, Note_on_c, 1, 42, 90
2, 162276, Note_off_c, 1, 35, 64
2, 162492, Note_off_c, 1, 42, 64
2, 162624, Note_on_c, 1, 42, 88
2, 162816, Note_on_c, 1, 35, 95
2, 162824, Note_off_c, 1, 42, 64
2, 163008, Note_on_c, 1, 42, 89
2, 163048, Note_off_c, 1, 35, 64
2, 163232, Note_off_c, 1, 42, 64
2, 163392, Note_on_c, 1, 42, 86
2, 163564, Note_off_c, 1, 42, 64
2, 163584, Note_on_c, 1, 35, 88
2, 163776, Note_on_c, 1, 42, 97
2, 163812, Note_off_c, 1, 35, 64
2, 164016, Note_off_c, 1, 42, 64
2, 164160, Note_on_c, 1, 42, 76
2, 164348, Note_off_c, 1, 42, 64
2, 164352, Control_c, 1, 11, 126
2, 164352, Note_on_c, 1, 40, 85
2, 164480, Note_off_c, 1, 40, 64
2, 164496, Control_c, 1, 11, 125
2, 164544, Note_on_c, 1, 40, 76
2, 164592, Control_c, 1, 11, 124
2, 164688, Control_c, 1, 11, 123
2, 164736, Note_on_c, 1, 35, 85
2, 164748, Note_off_c, 1, 40, 64
2, 164784, Control_c, 1, 11, 122
2, 164880, Control_c, 1, 11, 121
2, 164928, Note_on_c, 1, 40, 83
2, 164972, Note_off_c, 1, 35, 64
2, 164976, Control_c, 1, 11, 120
2, 165072, Control_c, 1, 11, 119
2, 165168, Control_c, 1, 11, 118
2, 165216, Note_off_c, 1, 40, 64
2, 165264, Control_c, 1, 11, 117
2, 165312, Note_on_c, 1, 40, 85
2, 165360, Control_c, 1, 11, 116
2, 165456, Control_c, 1, 11, 115
2, 165504, Note_on_c, 1, 35, 87
2, 165524, Note_off_c, 1, 40, 64
2, 165552, Control_c, 1, 11, 114
2, 165648, Control_c, 1, 11, 113
2, 165696, Note_on_c, 1, 40, 83
2, 165728, Note_off_c, 1, 35, 64
2, 165744, Control_c, 1, 11, 112
2, 165840, Control_c, 1, 11, 111
2, 165936, Control_c, 1, 11, 110
2, 165988, Note_off_c, 1, 40, 64
2, 166032, Control_c, 1, 11, 109
2, 166080, Note_on_c, 1, 40, 84
2, 166128, Control_c, 1, 11, 108
2, 166224, Control_c, 1, 11, 107
2, 166272, Note_on_c, 1, 35, 87
2, 166288, Note_off_c, 1, 40, 64
2, 166320, Control_c, 1, 11, 106
2, 166416, Control_c, 1, 11, 105
2, 166464, Note_on_c, 1, 40, 83
2, 166512, Control_c, 1, 11, 104
2, 166520, Note_off_c, 1, 35, 64
2, 166608, Control_c, 1, 11, 103
2, 166704, Control_c, 1, 11, 102
2, 166728, Note_off_c, 1, 40, 64
2, 166800, Control_c, 1, 11, 101
2, 166848, Note_on_c, 1, 40, 79
2, 166896, Control_c, 1, 11, 100
2, 166992, Control_c, 1, 11, 99
2, 167040, Note_on_c, 1, 35, 87
2, 167084, Note_off_c, 1, 40, 64
2, 167088, Control_c, 1, 11, 98
2, 167164, Note_off_c, 1, 35, 64
2, 167184, Control_c, 1, 11, 97
2, 167232, Note_on_c, 1, 40, 89
2, 167280, Control_c, 1, 11, 96
2, 167376, Control_c, 1, 11, 95
2, 167424, Note_off_c, 1, 40, 64
2, 167424, Note_on_c, 1, 35, 98
2, 167472, Control_c, 1, 11, 94
2, 167568, Control_c, 1, 11, 93
2, 167616, Note_on_c, 1, 42, 88
2, 167660, Note_off_c, 1, 35, 64
2, 167664, Control_c, 1, 11, 92
2, 167760, Control_c, 1, 11, 91
2, 167856, Control_c, 1, 11, 90
2, 167872, Note_off_c, 1, 42, 64
2, 167952, Control_c, 1, 11, 89
2, 168000, Note_on_c, 1, 42, 88
2, 168048, Control_c, 1, 11, 88
2, 168144, Control_c, 1, 11, 87
2, 168192, Note_on_c, 1, 35, 93
2, 168208, Note_off_c, 1, 42, 64
2, 168240, Control_c, 1, 11, 86
2, 168336, Control_c, 1, 11, 85
2, 168384, Note_on_c, 1, 42, 90
2, 168420, Note_off_c, 1, 35, 64
2, 168432, Control_c, 1, 11, 84
2, 168528, Control_c, 1, 11, 83
2, 168624, Control_c, 1, 11, 82
2, 168636, Note_off_c, 1, 42, 64
2, 168720, Control_c, 1, 11, 81
2, 168768, Note_on_c, 1, 42, 88
2, 168816, Control_c, 1, 11, 80
2, 168912, Control_c, 1, 11, 79
2, 168960, Note_on_c, 1, 35, 95
2, 168968, Note_off_c, 1, 42, 64
2, 169008, Control_c, 1, 11, 78
2, 169104, Control_c, 1, 11, 77
2, 169152, Note_on_c, 1, 42, 89
2, 169192, Note_off_c, 1, 35, 64
2, 169200, Control_c, 1, 11, 76
2, 169296, Control_c, 1, 11, 75
2, 169376, Note_off_c, 1, 42, 64
2, 169392, Control_c, 1, 11, 74
2, 169488, Control_c, 1, 11, 73
2, 169536, Note_on_c, 1, 42, 86
2, 169584, Control_c, 1, 11, 72
2, 169680, Control_c, 1, 11, 71
2, 169708, Note_off_c, 1, 42, 64
2, 169728, Note_on_c, 1, 35, 88
2, 169776, Control_c, 1, 11, 70
2, 169872, Control_c, 1, 11, 69
2, 169920, Note_on_c, 1, 42, 97
2, 169956, Note_off_c, 1, 35, 64
2, 169968, Control_c, 1, 11, 68
2, 170064, Control_c, 1, 11, 67
2, 170160, Note_off_c, 1, 42, 64
2, 170160, Control_c, 1, 11, 66
2, 170256, Control_c, 1, 11, 65
2, 170304, Note_on_c, 1, 42, 76
2, 170352, Control_c, 1, 11, 64
2, 170448, Control_c, 1, 11, 63
2, 170492, Note_off_c, 1, 42, 64
2, 170496, Note_on_c, 1, 40, 85
2, 170544, Control_c, 1, 11, 62
2, 170624, Note_off_c, 1, 40, 64
2, 170688, Control_c, 1, 11, 61
2, 170688, Note_on_c, 1, 40, 76
2, 170784, Control_c, 1, 11, 60
2, 170880, Control_c, 1, 11, 59
2, 170880, Note_on_c, 1, 35, 85
2, 170892, Note_off_c, 1, 40, 64
2, 170976, Control_c, 1, 11, 58
2, 171072, Control_c, 1, 11, 57
2, 171072, Note_on_c, 1, 40, 83
2, 171116, Note_off_c, 1, 35, 64
2, 171168, Control_c, 1, 11, 56
2, 171264, Control_c, 1, 11, 55
2, 171360, Note_off_c, 1, 40, 64
2, 171360, Control_c, 1, 11, 54
2, 171456, Control_c, 1, 11, 53
2, 171456, Note_on_c, 1, 40, 85
2, 171552, Control_c, 1, 11, 52
2, 171648, Control_c, 1, 11, 51
2, 171648, Note_on_c, 1, 35, 87
2, 171668, Note_off_c, 1, 40, 64
2, 171744, Control_c, 1, 11, 50
2, 171840, Control_c, 1, 11, 49
2, 171840, Note_on_c, 1, 40, 83
2, 171872, Note_off_c, 1, 35, 64
2, 171936, Control_c, 1, 11, 48
2, 172032, Control_c, 1, 11, 47
2, 172128, Control_c, 1, 11, 46
2, 172132, Note_off_c, 1, 40, 64
2, 172224, Control_c, 1, 11, 45
2, 172224, Note_on_c, 1, 40, 84
2, 172320, Control_c, 1, 11, 44
2, 172416, Control_c, 1, 11, 43
2, 172416, Note_on_c, 1, 35, 87
2, 172432, Note_off_c, 1, 40, 64
2, 172512, Control_c, 1, 11, 42
2, 172608, Control_c, 1, 11, 41
2, 172608, Note_on_c, 1, 40, 83
2, 172664, Note_off_c, 1, 35, 64
2, 172704, Control_c, 1, 11, 40
2, 172800, Control_c, 1, 11, 39
2, 172872, Note_off_c, 1, 40, 64
2, 172896, Control_c, 1, 11, 38
2, 172992, Control_c, 1, 11, 37
2, 172992, Note_on_c, 1, 40, 79
2, 173088, Control_c, 1, 11, 36
2, 173184, Control_c, 1, 11, 35
2, 173184, Note_on_c, 1, 35, 87
2, 173228, Note_off_c, 1, 40, 64
2, 173280, Control_c, 1, 11, 34
2, 173308, Note_off_c, 1, 35, 64
2, 173376, Control_c, 1, 11, 33
2, 173376, Note_on_c, 1, 40, 89
2, 173472, Control_c, 1, 11, 32
2, 173568, Note_off_c, 1, 40, 64
2, 173568, Control_c, 1, 11, 31
2, 173568, Note_on_c, 1, 35, 98
2, 173664, Control_c, 1, 11, 30
2, 173760, Control_c, 1, 11, 29
2, 173760, Note_on_c, 1, 42, 88
2, 173804, Note_off_c, 1, 35, 64
2, 173856, Control_c, 1, 11, 28
2, 173952, Control_c, 1, 11, 27
2, 174016, Note_off_c, 1, 42, 64
2, 174048, Control_c, 1, 11, 26
2, 174144, Control_c, 1, 11, 25
2, 174144, Note_on_c, 1, 42, 88
2, 174240, Control_c, 1, 11, 24
2, 174336, Control_c, 1, 11, 23
2, 174336, Note_on_c, 1, 35, 93
2, 174352, Note_off_c, 1, 42, 64
2, 174432, Control_c, 1, 11, 22
2, 174528, Control_c, 1, 11, 21
2, 174528, Note_on_c, 1, 42, 90
2, 174564, Note_off_c, 1, 35, 64
2, 174624, Control_c, 1, 11, 20
2, 174720, Control_c, 1, 11, 19
2, 174780, Note_off_c, 1, 42, 64
2, 174816, Control_c, 1, 11, 18
2, 174912, Control_c, 1, 11, 17
2, 174912, Note_on_c, 1, 42, 88
2, 175008, Control_c, 1, 11, 16
2, 175104, Control_c, 1, 11, 15
2, 175104, Note_on_c, 1, 35, 95
2, 175112, Note_off_c, 1, 42, 64
2, 175200, Control_c, 1, 11, 14
2, 175296, Control_c, 1, 11, 13
2, 175296, Note_on_c, 1, 42, 89
2, 175336, Note_off_c, 1, 35, 64
2, 175392, Control_c, 1, 11, 12
2, 175488, Control_c, 1, 11, 11
2, 175520, Note_off_c, 1, 42, 64
2, 175584, Control_c, 1, 11, 10
2, 175680, Control_c, 1, 11, 9
2, 175680, Note_on_c, 1, 42, 86
2, 175776, Control_c, 1, 11, 8
2, 175852, Note_off_c, 1, 42, 64
2, 175872, Control_c, 1, 11, 7
2, 175872, Note_on_c, 1, 35, 88
2, 175968, Control_c, 1, 11, 6
2, 176064, Control_c, 1, 11, 5
2, 176064, Note_on_c, 1, 42, 97
2, 176100, Note_off_c, 1, 35, 64
2, 176160, Control_c, 1, 11, 4
2, 176256, Control_c, 1, 11, 3
2, 176304, Note_off_c, 1, 42, 64
2, 176352, Control_c, 1, 11, 2
2, 176448, Control_c, 1, 11, 1
2, 176448, Note_on_c, 1, 42, 76
2, 176544, Control_c, 1, 11, 0
2, 176636, Note_off_c, 1, 42, 64
2, 176640, End_track
3, 0, Start_track
3, 0, Title_t, "MIDI"
3, 0, Control_c, 2, 7, 115
3, 0, Program_c, 2, 27
3, 432, Program_c, 2, 27
3, 436, Control_c, 2, 7, 115
3, 436, Control_c, 2, 10, 94
3, 436, Control_c, 2, 11, 127
3, 440, Control_c, 2, 91, 80
3, 440, Control_c, 2, 93, 15
3, 3424, Note_on_c, 2, 64, 73
3, 3648, Note_on_c, 2, 52, 30
3, 3812, Note_off_c, 2, 52, 64
3, 3824, Note_on_c, 2, 66, 86
3, 3860, Note_off_c, 2, 64, 64
3, 4032, Note_on_c, 2, 52, 40
3, 4228, Note_on_c, 2, 67, 83
3, 4280, Note_off_c, 2, 66, 64
3, 4328, Note_off_c, 2, 52, 64
3, 4412, Note_on_c, 2, 52, 56
3, 4612, Note_on_c, 2, 69, 86
3, 4620, Note_off_c, 2, 67, 64
3, 4744, Note_off_c, 2, 52, 64
3, 4804, Note_on_c, 2, 52, 52
3, 4988, Note_on_c, 2, 67, 70
3, 5052, Note_off_c, 2, 69, 64
3, 5128, Note_off_c, 2, 52, 64
3, 5188, Note_on_c, 2, 59, 66
3, 5376, Note_on_c, 2, 66, 59
3, 5400, Note_off_c, 2, 67, 64
3, 5536, Note_off_c, 2, 59, 64
3, 5568, Note_on_c, 2, 59, 25
3, 5768, Note_on_c, 2, 64, 64
3, 5852, Note_off_c, 2, 66, 64
3, 6092, Note_off_c, 2, 64, 64
3, 6164, Note_on_c, 2, 64, 70
3, 6484, Note_off_c, 2, 59, 64
3, 6536, Note_on_c, 2, 52, 15
3, 6580, Note_on_c, 2, 63, 51
3, 6616, Note_off_c, 2, 64, 64
3, 6984, Note_on_c, 2, 64, 53
3, 7048, Note_off_c, 2, 63, 64
3, 7460, Note_on_c, 2, 66, 39
3, 7488, Note_off_c, 2, 52, 64
3, 8544, Note_off_c, 2, 64, 64
3, 8548, Note_on_c, 2, 61, 63
3, 8552, Note_off_c, 2, 66, 64
3, 8640, Note_on_c, 2, 63, 72
3, 8684, Note_off_c, 2, 61, 64
3, 8736, Note_on_c, 2, 64, 63
3, 8776, Note_off_c, 2, 63, 64
3, 8828, Note_on_c, 2, 66, 89
3, 8852, Note_off_c, 2, 64, 64
3, 9344, Note_on_c, 2, 64, 53
3, 9408, Note_off_c, 2, 66, 64
3, 9448, Note_on_c, 2, 63, 54
3, 9480, Note_off_c, 2, 64, 64
3, 9548, Note_on_c, 2, 61, 47
3, 9552, Note_off_c, 2, 63, 64
3, 9652, Note_off_c, 2, 61, 64
3, 9652, Note_on_c, 2, 63, 37
3, 11032, Note_off_c, 2, 63, 64
3, 13656, Note_on_c, 2, 52, 54
3, 13696, Note_on_c, 2, 55, 71
3, 13756, Note_on_c, 2, 59, 52
3, 13816, Note_on_c, 2, 64, 63
3, 15232, Note_off_c, 2, 55, 64
3, 15276, Note_off_c, 2, 59, 64
3, 15304, Note_off_c, 2, 64, 64
3, 15344, Note_off_c, 2, 52, 64
3, 16708, Note_on_c, 2, 52, 56
3, 16748, Note_on_c, 2, 55, 73
3, 16844, Note_on_c, 2, 59, 57
3, 16936, Note_on_c, 2, 64, 53
3, 17696, Note_off_c, 2, 52, 64
3, 17712, Note_off_c, 2, 55, 64
3, 17748, Note_off_c, 2, 59, 64
3, 17784, Note_off_c, 2, 64, 64
3, 29036, Note_on_c, 2, 52, 61
3, 29060, Note_on_c, 2, 55, 79
3, 29120, Note_on_c, 2, 59, 71
3, 29164, Note_on_c, 2, 64, 73
3, 29688, Note_off_c, 2, 55, 64
3, 29708, Note_off_c, 2, 52, 64
3, 29732, Note_off_c, 2, 64, 64
3, 29732, Note_off_c, 2, 59, 64
3, 32016, Note_on_c, 2, 52, 61
3, 32044, Note_on_c, 2, 55, 75
3, 32108, Note_on_c, 2, 59, 68
3, 32176, Note_on_c, 2, 64, 67
3, 32220, Note_off_c, 2, 52, 64
3, 33648, Note_off_c, 2, 55, 64
3, 33700, Note_off_c, 2, 59, 64
3, 33740, Note_off_c, 2, 64, 64
3, 35180, Note_on_c, 2, 52, 61
3, 35204, Note_on_c, 2, 55, 79
3, 35264, Note_on_c, 2, 59, 71
3, 35308, Note_on_c, 2, 64, 73
3, 35832, Note_off_c, 2, 55, 64
3, 35852, Note_off_c, 2, 52, 64
3, 35876, Note_off_c, 2, 64, 64
3, 35876, Note_off_c, 2, 59, 64
3, 38268, Note_on_c, 2, 52, 63
3, 38304, Note_on_c, 2, 57, 71
3, 38368, Note_on_c, 2, 61, 62
3, 38496, Note_on_c, 2, 64, 30
3, 39496, Note_off_c, 2, 52, 64
3, 39500, Note_off_c, 2, 57, 64
3, 39572, Note_off_c, 2, 61, 64
3, 39616, Note_off_c, 2, 64, 64
3, 39764, Note_on_c, 2, 54, 69
3, 39844, Note_on_c, 2, 59, 64
3, 39908, Note_on_c, 2, 63, 58
3, 40860, Note_off_c, 2, 54, 64
3, 40996, Note_off_c, 2, 59, 64
3, 41024, Note_off_c, 2, 63, 64
3, 41472, Note_on_c, 2, 59, 57
3, 41472, Note_on_c, 2, 55, 73
3, 41472, Note_on_c, 2, 52, 56
3, 41512, Note_on_c, 2, 64, 53
3, 42272, Note_off_c, 2, 52, 64
3, 42288, Note_off_c, 2, 55, 64
3, 42324, Note_off_c, 2, 59, 64
3, 42360, Note_off_c, 2, 64, 64
3, 53612, Note_on_c, 2, 52, 61
3, 53636, Note_on_c, 2, 55, 79
3, 53696, Note_on_c, 2, 59, 71
3, 53740, Note_on_c, 2, 64, 73
3, 54264, Note_off_c, 2, 55, 64
3, 54284, Note_off_c, 2, 52, 64
3, 54308, Note_off_c, 2, 64, 64
3, 54308, Note_off_c, 2, 59, 64
3, 56592, Note_on_c, 2, 52, 61
3, 56620, Note_on_c, 2, 55, 75
3, 56684, Note_on_c, 2, 59, 68
3, 56752, Note_on_c, 2, 64, 67
3, 56796, Note_off_c, 2, 52, 64
3, 58224, Note_off_c, 2, 55, 64
3, 58276, Note_off_c, 2, 59, 64
3, 58316, Note_off_c, 2, 64, 64
3, 59756, Note_on_c, 2, 52, 61
3, 59780, Note_on_c, 2, 55, 79
3, 59840, Note_on_c, 2, 59, 71
3, 59884, Note_on_c, 2, 64, 73
3, 60408, Note_off_c, 2, 55, 64
3, 60428, Note_off_c, 2, 52, 64
3, 60452, Note_off_c, 2, 64, 64
3, 60452, Note_off_c, 2, 59, 64
3, 62844, Note_on_c, 2, 52, 63
3, 62880, Note_on_c, 2, 57, 71
3, 62944, Note_on_c, 2, 61, 62
3, 63072, Note_on_c, 2, 64, 30
3, 64072, Note_off_c, 2, 52, 64
3, 64076, Note_off_c, 2, 57, 64
3, 64148, Note_off_c, 2, 61, 64
3, 64192, Note_off_c, 2, 64, 64
3, 64340, Note_on_c, 2, 54, 69
3, 64420, Note_on_c, 2, 59, 64
3, 64484, Note_on_c, 2, 63, 58
3, 65436, Note_off_c, 2, 54, 64
3, 65572, Note_off_c, 2, 59, 64
3, 65600, Note_off_c, 2, 63, 64
3, 66048, Note_on_c, 2, 59, 57
3, 66048, Note_on_c, 2, 55, 73
3, 66048, Note_on_c, 2, 52, 56
3, 66088, Note_on_c, 2, 64, 53
3, 66848, Note_off_c, 2, 52, 64
3, 66864, Note_off_c, 2, 55, 64
3, 66900, Note_off_c, 2, 59, 64
3, 66936, Note_off_c, 2, 64, 64
3, 78188, Note_on_c, 2, 52, 61
3, 78212, Note_on_c, 2, 55, 79
3, 78272, Note_on_c, 2, 59, 71
3, 78316, Note_on_c, 2, 64, 73
3, 78840, Note_off_c, 2, 55, 64
3, 78860, Note_off_c, 2, 52, 64
3, 78884, Note_off_c, 2, 64, 64
3, 78884, Note_off_c, 2, 59, 64
3, 81168, Note_on_c, 2, 52, 61
3, 81196, Note_on_c, 2, 55, 75
3, 81260, Note_on_c, 2, 59, 68
3, 81328, Note_on_c, 2, 64, 67
3, 81372, Note_off_c, 2, 52, 64
3, 82800, Note_off_c, 2, 55, 64
3, 82852, Note_off_c, 2, 59, 64
3, 82892, Note_off_c, 2, 64, 64
3, 84332, Note_on_c, 2, 52, 61
3, 84356, Note_on_c, 2, 55, 79
3, 84416, Note_on_c, 2, 59, 71
3, 84460, Note_on_c, 2, 64, 73
3, 84984, Note_off_c, 2, 55, 64
3, 85004, Note_off_c, 2, 52, 64
3, 85028, Note_off_c, 2, 64, 64
3, 85028, Note_off_c, 2, 59, 64
3, 87420, Note_on_c, 2, 52, 63
3, 87456, Note_on_c, 2, 57, 71
3, 87520, Note_on_c, 2, 61, 62
3, 87648, Note_on_c, 2, 64, 30
3, 88648, Note_off_c, 2, 52, 64
3, 88652, Note_off_c, 2, 57, 64
3, 88724, Note_off_c, 2, 61, 64
3, 88768, Note_off_c, 2, 64, 64
3, 88916, Note_on_c, 2, 54, 69
3, 88996, Note_on_c, 2, 59, 64
3, 89060, Note_on_c, 2, 63, 58
3, 90012, Note_off_c, 2, 54, 64
3, 90148, Note_off_c, 2, 59, 64
3, 90176, Note_off_c, 2, 63, 64
3, 102912, Note_on_c, 2, 64, 73
3, 102912, Note_on_c, 2, 59, 71
3, 102912, Note_on_c, 2, 55, 79
3, 102912, Note_on_c, 2, 52, 61
3, 103416, Note_off_c, 2, 55, 64
3, 103436, Note_off_c, 2, 52, 64
3, 103460, Note_off_c, 2, 59, 64
3, 103460, Note_off_c, 2, 64, 64
3, 105744, Note_on_c, 2, 52, 61
3, 105772, Note_on_c, 2, 55, 75
3, 105836, Note_on_c, 2, 59, 68
3, 105904, Note_on_c, 2, 64, 67
3, 105948, Note_off_c, 2, 52, 64
3, 107376, Note_off_c, 2, 55, 64
3, 107428, Note_off_c, 2, 59, 64
3, 107468, Note_off_c, 2, 64, 64
3, 108908, Note_on_c, 2, 52, 61
3, 108932, Note_on_c, 2, 55, 79
3, 108992, Note_on_c, 2, 59, 71
3, 109036, Note_on_c, 2, 64, 73
3, 109560, Note_off_c, 2, 55, 64
3, 109580, Note_off_c, 2, 52, 64
3, 109604, Note_off_c, 2, 64, 64
3, 109604, Note_off_c, 2, 59, 64
3, 111996, Note_on_c, 2, 52, 63
3, 112032, Note_on_c, 2, 57, 71
3, 112096, Note_on_c, 2, 61, 62
3, 112224, Note_on_c, 2, 64, 30
3, 113224, Note_off_c, 2, 52, 64
3, 113228, Note_off_c, 2, 57, 64
3, 113300, Note_off_c, 2, 61, 64
3, 113344, Note_off_c, 2, 64, 64
3, 113492, Note_on_c, 2, 54, 69
3, 113572, Note_on_c, 2, 59, 64
3, 113636, Note_on_c, 2, 63, 58
3, 114588, Note_off_c, 2, 54, 64
3, 114724, Note_off_c, 2, 59, 64
3, 114752, Note_off_c, 2, 63, 64
3, 115200, Note_on_c, 2, 59, 57
3, 115200, Note_on_c, 2, 55, 73
3, 115200, Note_on_c, 2, 52, 56
3, 115240, Note_on_c, 2, 64, 53
3, 116000, Note_off_c, 2, 52, 64
3, 116016, Note_off_c, 2, 55, 64
3, 116052, Note_off_c, 2, 59, 64
3, 116088, Note_off_c, 2, 64, 64
3, 127340, Note_on_c, 2, 52, 61
3, 127364, Note_on_c, 2, 55, 79
3, 127424, Note_on_c, 2, 59, 71
3, 127468, Note_on_c, 2, 64, 73
3, 127992, Note_off_c, 2, 55, 64
3, 128012, Note_off_c, 2, 52, 64
3, 128036, Note_off_c, 2, 64, 64
3, 128036, Note_off_c, 2, 59, 64
3, 130320, Note_on_c, 2, 52, 61
3, 130348, Note_on_c, 2, 55, 75
3, 130412, Note_on_c, 2, 59, 68
3, 130480, Note_on_c, 2, 64, 67
3, 130524, Note_off_c, 2, 52, 64
3, 131952, Note_off_c, 2, 55, 64
3, 132004, Note_off_c, 2, 59, 64
3, 132044, Note_off_c, 2, 64, 64
3, 133484, Note_on_c, 2, 52, 61
3, 133508, Note_on_c, 2, 55, 79
3, 133568, Note_on_c, 2, 59, 71
3, 133612, Note_on_c, 2, 64, 73
3, 134136, Note_off_c, 2, 55, 64
3, 134156, Note_off_c, 2, 52, 64
3, 134180, Note_off_c, 2, 64, 64
3, 134180, Note_off_c, 2, 59, 64
3, 136572, Note_on_c, 2, 52, 63
3, 136608, Note_on_c, 2, 57, 71
3, 136672, Note_on_c, 2, 61, 62
3, 136800, Note_on_c, 2, 64, 30
3, 137800, Note_off_c, 2, 52, 64
3, 137804, Note_off_c, 2, 57, 64
3, 137876, Note_off_c, 2, 61, 64
3, 137920, Note_off_c, 2, 64, 64
3, 138068, Note_on_c, 2, 54, 69
3, 138148, Note_on_c, 2, 59, 64
3, 138212, Note_on_c, 2, 63, 58
3, 139164, Note_off_c, 2, 54, 64
3, 139300, Note_off_c, 2, 59, 64
3, 139328, Note_off_c, 2, 63, 64
3, 139776, Note_on_c, 2, 59, 57
3, 139776, Note_on_c, 2, 55, 73
3, 139776, Note_on_c, 2, 52, 56
3, 139816, Note_on_c, 2, 64, 53
3, 140576, Note_off_c, 2, 52, 64
3, 140592, Note_off_c, 2, 55, 64
3, 140628, Note_off_c, 2, 59, 64
3, 140664, Note_off_c, 2, 64, 64
3, 145920, Note_on_c, 2, 59, 57
3, 145920, Note_on_c, 2, 55, 73
3, 145920, Note_on_c, 2, 52, 56
3, 145960, Note_on_c, 2, 64, 53
3, 146720, Note_off_c, 2, 52, 64
3, 146736, Note_off_c, 2, 55, 64
3, 146772, Note_off_c, 2, 59, 64
3, 146808, Note_off_c, 2, 64, 64
3, 152064, Note_on_c, 2, 59, 57
3, 152064, Note_on_c, 2, 55, 73
3, 152064, Note_on_c, 2, 52, 56
3, 152104, Note_on_c, 2, 64, 53
3, 152864, Note_off_c, 2, 52, 64
3, 152880, Note_off_c, 2, 55, 64
3, 152916, Note_off_c, 2, 59, 64
3, 152952, Note_off_c, 2, 64, 64
3, 158208, Note_on_c, 2, 59, 57
3, 158208, Note_on_c, 2, 55, 73
3, 158208, Note_on_c, 2, 52, 56
3, 158248, Note_on_c, 2, 64, 53
3, 159008, Note_off_c, 2, 52, 64
3, 159024, Note_off_c, 2, 55, 64
3, 159060, Note_off_c, 2, 59, 64
3, 159096, Note_off_c, 2, 64, 64
3, 164352, Control_c, 2, 11, 126
3, 164352, Note_on_c, 2, 59, 57
3, 164352, Note_on_c, 2, 55, 73
3, 164352, Note_on_c, 2, 52, 56
3, 164392, Note_on_c, 2, 64, 53
3, 164496, Control_c, 2, 11, 125
3, 164592, Control_c, 2, 11, 124
3, 164688, Control_c, 2, 11, 123
3, 164784, Control_c, 2, 11, 122
3, 164880, Control_c, 2, 11, 121
3, 164976, Control_c, 2, 11, 120
3, 165072, Control_c, 2, 11, 119
3, 165152, Note_off_c, 2, 52, 64
3, 165168, Note_off_c, 2, 55, 64
3, 165168, Control_c, 2, 11, 118
3, 165204, Note_off_c, 2, 59, 64
3, 165240, Note_off_c, 2, 64, 64
3, 165264, Control_c, 2, 11, 117
3, 165360, Control_c, 2, 11, 116
3, 165456, Control_c, 2, 11, 115
3, 165552, Control_c, 2, 11, 114
3, 165648, Control_c, 2, 11, 113
3, 165744, Control_c, 2, 11, 112
3, 165840, Control_c, 2, 11, 111
3, 165936, Control_c, 2, 11, 110
3, 166032, Control_c, 2, 11, 109
3, 166128, Control_c, 2, 11, 108
3, 166224, Control_c, 2, 11, 107
3, 166320, Control_c, 2, 11, 106
3, 166416, Control_c, 2, 11, 105
3, 166512, Control_c, 2, 11, 104
3, 166608, Control_c, 2, 11, 103
3, 166704, Control_c, 2, 11, 102
3, 166800, Control_c, 2, 11, 101
3, 166896, Control_c, 2, 11, 100
3, 166992, Control_c, 2, 11, 99
3, 167088, Control_c, 2, 11, 98
3, 167184, Control_c, 2, 11, 97
3, 167280, Control_c, 2, 11, 96
3, 167376, Control_c, 2, 11, 95
3, 167472, Control_c, 2, 11, 94
3, 167568, Control_c, 2, 11, 93
3, 167664, Control_c, 2, 11, 92
3, 167760, Control_c, 2, 11, 91
3, 167856, Control_c, 2, 11, 90
3, 167952, Control_c, 2, 11, 89
3, 168048, Control_c, 2, 11, 88
3, 168144, Control_c, 2, 11, 87
3, 168240, Control_c, 2, 11, 86
3, 168336, Control_c, 2, 11, 85
3, 168432, Control_c, 2, 11, 84
3, 168528, Control_c, 2, 11, 83
3, 168624, Control_c, 2, 11, 82
3, 168720, Control_c, 2, 11, 81
3, 168816, Control_c, 2, 11, 80
3, 168912, Control_c, 2, 11, 79
3, 169008, Control_c, 2, 11, 78
3, 169104, Control_c, 2, 11, 77
3, 169200, Control_c, 2, 11, 76
3, 169296, Control_c, 2, 11, 75
3, 169392, Control_c, 2, 11, 74
3, 169488, Control_c, 2, 11, 73
3, 169584, Control_c, 2, 11, 72
3, 169680, Control_c, 2, 11, 71
3, 169776, Control_c, 2, 11, 70
3, 169872, Control_c, 2, 11, 69
3, 169968, Control_c, 2, 11, 68
3, 170064, Control_c, 2, 11, 67
3, 170160, Control_c, 2, 11, 66
3, 170256, Control_c, 2, 11, 65
3, 170352, Control_c, 2, 11, 64
3, 170448, Control_c, 2, 11, 63
3, 170496, Note_on_c, 2, 59, 57
3, 170496, Note_on_c, 2, 55, 73
3, 170496, Note_on_c, 2, 52, 56
3, 170536, Note_on_c, 2, 64, 53
3, 170544, Control_c, 2, 11, 62
3, 170688, Control_c, 2, 11, 61
3, 170784, Control_c, 2, 11, 60
3, 170880, Control_c, 2, 11, 59
3, 170976, Control_c, 2, 11, 58
3, 171072, Control_c, 2, 11, 57
3, 171168, Control_c, 2, 11, 56
3, 171264, Control_c, 2, 11, 55
3, 171296, Note_off_c, 2, 52, 64
3, 171312, Note_off_c, 2, 55, 64
3, 171348, Note_off_c, 2, 59, 64
3, 171360, Control_c, 2, 11, 54
3, 171384, Note_off_c, 2, 64, 64
3, 171456, Control_c, 2, 11, 53
3, 171552, Control_c, 2, 11, 52
3, 171648, Control_c, 2, 11, 51
3, 171744, Control_c, 2, 11, 50
3, 171840, Control_c, 2, 11, 49
3, 171936, Control_c, 2, 11, 48
3, 172032, Control_c, 2, 11, 47
3, 172128, Control_c, 2, 11, 46
3, 172224, Control_c, 2, 11, 45
3, 172320, Control_c, 2, 11, 44
3, 172416, Control_c, 2, 11, 43
3, 172512, Control_c, 2, 11, 42
3, 172608, Control_c, 2, 11, 41
3, 172704, Control_c, 2, 11, 40
3, 172800, Control_c, 2, 11, 39
3, 172896, Control_c, 2, 11, 38
3, 172992, Control_c, 2, 11, 37
3, 173088, Control_c, 2, 11, 36
3, 173184, Control_c, 2, 11, 35
3, 173280, Control_c, 2, 11, 34
3, 173376, Control_c, 2, 11, 33
3, 173472, Control_c, 2, 11, 32
3, 173568, Control_c, 2, 11, 31
3, 173664, Control_c, 2, 11, 30
3, 173760, Control_c, 2, 11, 29
3, 173856, Control_c, 2, 11, 28
3, 173952, Control_c, 2, 11, 27
3, 174048, Control_c, 2, 11, 26
3, 174144, Control_c, 2, 11, 25
3, 174240, Control_c, 2, 11, 24
3, 174336, Control_c, 2, 11, 23
3, 174432, Control_c, 2, 11, 22
3, 174528, Control_c, 2, 11, 21
3, 174624, Control_c, 2, 11, 20
3, 174720, Control_c, 2, 11, 19
3, 174816, Control_c, 2, 11, 18
3, 174912, Control_c, 2, 11, 17
3, 175008, Control_c, 2, 11, 16
3, 175104, Control_c, 2, 11, 15
3, 175200, Control_c, 2, 11, 14
3, 175296, Control_c, 2, 11, 13
3, 175392, Control_c, 2, 11, 12
3, 175488, Control_c, 2, 11, 11
3, 175584, Control_c, 2, 11, 10
3, 175680, Control_c, 2, 11, 9
3, 175776, Control_c, 2, 11, 8
3, 175872, Control_c, 2, 11, 7
3, 175968, Control_c, 2, 11, 6
3, 176064, Control_c, 2, 11, 5
3, 176160, Control_c, 2, 11, 4
3, 176256, Control_c, 2, 11, 3
3, 176352, Control_c, 2, 11, 2
3, 176448, Control_c, 2, 11, 1
3, 176544, Control_c, 2, 11, 0
3, 176640, End_track
4, 0, Start_track
4, 0, Title_t, "MIDI"
4, 0, Control_c, 3, 7, 115
4, 0, Program_c, 3, 27
4, 452, Program_c, 3, 27
4, 456, Control_c, 3, 7, 115
4, 456, Control_c, 3, 10, 64
4, 456, Control_c, 3, 11, 127
4, 460, Control_c, 3, 91, 80
4, 460, Control_c, 3, 93, 0
4, 17280, Note_on_c, 3, 40, 117
4, 17664, Note_off_c, 3, 40, 64
4, 17664, Note_on_c, 3, 42, 117
4, 18048, Note_off_c, 3, 42, 64
4, 18048, Note_on_c, 3, 43, 117
4, 18432, Note_off_c, 3, 43, 64
4, 18432, Note_on_c, 3, 45, 117
4, 18816, Note_off_c, 3, 45, 64
4, 18816, Note_on_c, 3, 43, 117
4, 19200, Note_off_c, 3, 43, 64
4, 19200, Note_on_c, 3, 42, 89
4, 19584, Note_off_c, 3, 42, 64
4, 19584, Note_on_c, 3, 40, 115
4, 19968, Note_off_c, 3, 40, 64
4, 19968, Note_on_c, 3, 40, 110
4, 20352, Note_off_c, 3, 40, 64
4, 20352, Note_on_c, 3, 39, 101
4, 20736, Note_off_c, 3, 39, 64
4, 20736, Note_on_c, 3, 40, 110
4, 21120, Note_off_c, 3, 40, 64
4, 21120, Note_on_c, 3, 42, 115
4, 21504, Note_off_c, 3, 42, 64
4, 21504, Note_on_c, 3, 40, 115
4, 21696, Note_on_c, 3, 39, 101
4, 21704, Note_off_c, 3, 40, 64
4, 22612, Note_off_c, 3, 39, 64
4, 23424, Note_on_c, 3, 40, 117
4, 23808, Note_off_c, 3, 40, 64
4, 23808, Note_on_c, 3, 42, 117
4, 24192, Note_off_c, 3, 42, 64
4, 24192, Note_on_c, 3, 43, 117
4, 24576, Note_off_c, 3, 43, 64
4, 24576, Note_on_c, 3, 45, 101
4, 24768, Note_off_c, 3, 45, 64
4, 24768, Note_on_c, 3, 43, 117
4, 25152, Note_off_c, 3, 43, 64
4, 25152, Note_on_c, 3, 42, 110
4, 25536, Note_off_c, 3, 42, 64
4, 25536, Note_on_c, 3, 40, 117
4, 25852, Note_off_c, 3, 40, 64
4, 25920, Note_on_c, 3, 40, 110
4, 26304, Note_off_c, 3, 40, 64
4, 26304, Note_on_c, 3, 39, 97
4, 26688, Note_off_c, 3, 39, 64
4, 26688, Note_on_c, 3, 40, 115
4, 27072, Note_off_c, 3, 40, 64
4, 27072, Note_on_c, 3, 42, 115
4, 27456, Note_off_c, 3, 42, 64
4, 27456, Note_on_c, 3, 40, 110
4, 27840, Note_off_c, 3, 40, 64
4, 27840, Note_on_c, 3, 39, 84
4, 28924, Note_off_c, 3, 39, 64
4, 29568, Note_on_c, 3, 52, 117
4, 29832, Note_off_c, 3, 52, 64
4, 29952, Note_on_c, 3, 50, 117
4, 30292, Note_off_c, 3, 50, 64
4, 30336, Note_on_c, 3, 50, 117
4, 30464, Note_off_c, 3, 50, 64
4, 30720, Note_on_c, 3, 43, 105
4, 31040, Note_off_c, 3, 43, 64
4, 31104, Note_on_c, 3, 43, 105
4, 31296, Note_off_c, 3, 43, 64
4, 31296, Note_on_c, 3, 45, 111
4, 31488, Note_off_c, 3, 45, 64
4, 31680, Note_on_c, 3, 45, 117
4, 31808, Note_off_c, 3, 45, 64
4, 32064, Note_on_c, 3, 47, 117
4, 32504, Note_off_c, 3, 47, 64
4, 32640, Note_on_c, 3, 47, 117
4, 32872, Note_off_c, 3, 47, 64
4, 33024, Note_on_c, 3, 47, 117
4, 33216, Note_off_c, 3, 47, 64
4, 33216, Note_on_c, 3, 45, 86
4, 33408, Note_off_c, 3, 45, 64
4, 33408, Note_on_c, 3, 43, 101
4, 33536, Note_off_c, 3, 43, 64
4, 33600, Note_on_c, 3, 47, 117
4, 34912, Note_off_c, 3, 47, 64
4, 35712, Note_on_c, 3, 52, 117
4, 35976, Note_off_c, 3, 52, 64
4, 36096, Note_on_c, 3, 50, 117
4, 36436, Note_off_c, 3, 50, 64
4, 36480, Note_on_c, 3, 50, 117
4, 36608, Note_off_c, 3, 50, 64
4, 36864, Note_on_c, 3, 43, 117
4, 37184, Note_off_c, 3, 43, 64
4, 37248, Note_on_c, 3, 43, 101
4, 37368, Note_off_c, 3, 43, 64
4, 37440, Note_on_c, 3, 45, 111
4, 37760, Note_off_c, 3, 45, 64
4, 37824, Note_on_c, 3, 45, 117
4, 38016, Note_off_c, 3, 45, 64
4, 38208, Note_on_c, 3, 47, 117
4, 38428, Note_off_c, 3, 47, 64
4, 38592, Note_on_c, 3, 47, 117
4, 38972, Note_off_c, 3, 47, 64
4, 39168, Note_on_c, 3, 47, 117
4, 39360, Note_off_c, 3, 47, 64
4, 39360, Note_on_c, 3, 45, 78
4, 39552, Note_off_c, 3, 45, 64
4, 39552, Note_on_c, 3, 43, 101
4, 39684, Note_off_c, 3, 43, 64
4, 39744, Note_on_c, 3, 47, 117
4, 41240, Note_off_c, 3, 47, 64
4, 41856, Note_on_c, 3, 40, 115
4, 42240, Note_off_c, 3, 40, 64
4, 42240, Note_on_c, 3, 42, 94
4, 42624, Note_off_c, 3, 42, 64
4, 42624, Note_on_c, 3, 43, 105
4, 43008, Note_off_c, 3, 43, 64
4, 43008, Note_on_c, 3, 45, 97
4, 43200, Note_off_c, 3, 45, 64
4, 43200, Note_on_c, 3, 43, 93
4, 43584, Note_off_c, 3, 43, 64
4, 43584, Note_on_c, 3, 42, 92
4, 43968, Note_on_c, 3, 40, 97
4, 43988, Note_off_c, 3, 42, 64
4, 44256, Note_off_c, 3, 40, 64
4, 44352, Note_on_c, 3, 40, 115
4, 44736, Note_off_c, 3, 40, 64
4, 44736, Note_on_c, 3, 39, 110
4, 44996, Note_off_c, 3, 39, 64
4, 45120, Note_on_c, 3, 40, 110
4, 45380, Note_off_c, 3, 40, 64
4, 45504, Note_on_c, 3, 42, 115
4, 45852, Note_off_c, 3, 42, 64
4, 46080, Note_on_c, 3, 40, 117
4, 46272, Note_off_c, 3, 40, 64
4, 46272, Note_on_c, 3, 39, 79
4, 47340, Note_off_c, 3, 39, 64
4, 48000, Note_on_c, 3, 40, 115
4, 48384, Note_off_c, 3, 40, 64
4, 48384, Note_on_c, 3, 42, 101
4, 48768, Note_off_c, 3, 42, 64
4, 48768, Note_on_c, 3, 43, 101
4, 48960, Note_off_c, 3, 43, 64
4, 49152, Note_on_c, 3, 45, 105
4, 49344, Note_off_c, 3, 45, 64
4, 49344, Note_on_c, 3, 43, 83
4, 49728, Note_off_c, 3, 43, 64
4, 49728, Note_on_c, 3, 42, 94
4, 50112, Note_off_c, 3, 42, 64
4, 50112, Note_on_c, 3, 40, 105
4, 50304, Note_off_c, 3, 40, 64
4, 50496, Note_on_c, 3, 40, 110
4, 50880, Note_on_c, 3, 39, 110
4, 50900, Note_off_c, 3, 40, 64
4, 51208, Note_off_c, 3, 39, 64
4, 51264, Note_on_c, 3, 40, 115
4, 51648, Note_off_c, 3, 40, 64
4, 51648, Note_on_c, 3, 42, 115
4, 51936, Note_off_c, 3, 42, 64
4, 52032, Note_on_c, 3, 40, 117
4, 52224, Note_on_c, 3, 39, 97
4, 52228, Note_off_c, 3, 40, 64
4, 53512, Note_off_c, 3, 39, 64
4, 54144, Note_on_c, 3, 52, 117
4, 54336, Note_off_c, 3, 52, 64
4, 54528, Note_on_c, 3, 50, 117
4, 54868, Note_off_c, 3, 50, 64
4, 54912, Note_on_c, 3, 50, 111
4, 55012, Note_off_c, 3, 50, 64
4, 55104, Note_on_c, 3, 50, 80
4, 55208, Note_off_c, 3, 50, 64
4, 55296, Note_on_c, 3, 43, 111
4, 55580, Note_off_c, 3, 43, 64
4, 55680, Note_on_c, 3, 43, 101
4, 55768, Note_off_c, 3, 43, 64
4, 55872, Note_on_c, 3, 45, 117
4, 56104, Note_off_c, 3, 45, 64
4, 56256, Note_on_c, 3, 45, 117
4, 56448, Note_off_c, 3, 45, 64
4, 56640, Note_on_c, 3, 47, 117
4, 57116, Note_off_c, 3, 47, 64
4, 57216, Note_on_c, 3, 47, 117
4, 57412, Note_off_c, 3, 47, 64
4, 57600, Note_on_c, 3, 47, 117
4, 57792, Note_off_c, 3, 47, 64
4, 57792, Note_on_c, 3, 45, 90
4, 57984, Note_off_c, 3, 45, 64
4, 57984, Note_on_c, 3, 43, 97
4, 58088, Note_off_c, 3, 43, 64
4, 58176, Note_on_c, 3, 47, 117
4, 59564, Note_off_c, 3, 47, 64
4, 60288, Note_on_c, 3, 52, 117
4, 60396, Note_off_c, 3, 52, 64
4, 60480, Note_on_c, 3, 52, 101
4, 60612, Note_off_c, 3, 52, 64
4, 60672, Note_on_c, 3, 50, 117
4, 61000, Note_off_c, 3, 50, 64
4, 61056, Note_on_c, 3, 50, 117
4, 61200, Note_off_c, 3, 50, 64
4, 61248, Note_on_c, 3, 43, 111
4, 61508, Note_off_c, 3, 43, 64
4, 61632, Note_on_c, 3, 43, 105
4, 62144, Note_off_c, 3, 43, 64
4, 62208, Note_on_c, 3, 45, 117
4, 62444, Note_off_c, 3, 45, 64
4, 62592, Note_on_c, 3, 45, 117
4, 62796, Note_off_c, 3, 45, 64
4, 62976, Note_on_c, 3, 47, 117
4, 63264, Note_off_c, 3, 47, 64
4, 63360, Note_on_c, 3, 47, 115
4, 63456, Note_off_c, 3, 47, 64
4, 63744, Note_on_c, 3, 47, 117
4, 63936, Note_off_c, 3, 47, 64
4, 63936, Note_on_c, 3, 45, 88
4, 64128, Note_off_c, 3, 45, 64
4, 64128, Note_on_c, 3, 43, 117
4, 64232, Note_off_c, 3, 43, 64
4, 64320, Note_on_c, 3, 47, 117
4, 65800, Note_off_c, 3, 47, 64
4, 66432, Note_on_c, 3, 40, 115
4, 66816, Note_off_c, 3, 40, 64
4, 66816, Note_on_c, 3, 42, 110
4, 67200, Note_off_c, 3, 42, 64
4, 67200, Note_on_c, 3, 43, 111
4, 67584, Note_off_c, 3, 43, 64
4, 67584, Note_on_c, 3, 45, 111
4, 67968, Note_off_c, 3, 45, 64
4, 67968, Note_on_c, 3, 43, 97
4, 68352, Note_off_c, 3, 43, 64
4, 68352, Note_on_c, 3, 42, 92
4, 68736, Note_off_c, 3, 42, 64
4, 68736, Note_on_c, 3, 40, 110
4, 69024, Note_off_c, 3, 40, 64
4, 69120, Note_on_c, 3, 40, 115
4, 69504, Note_off_c, 3, 40, 64
4, 69504, Note_on_c, 3, 39, 97
4, 69792, Note_off_c, 3, 39, 64
4, 69888, Note_on_c, 3, 40, 105
4, 70272, Note_off_c, 3, 40, 64
4, 70272, Note_on_c, 3, 42, 97
4, 70544, Note_off_c, 3, 42, 64
4, 70656, Note_on_c, 3, 40, 117
4, 70848, Note_on_c, 3, 39, 89
4, 70888, Note_off_c, 3, 40, 64
4, 71972, Note_off_c, 3, 39, 64
4, 72576, Note_on_c, 3, 40, 115
4, 72960, Note_off_c, 3, 40, 64
4, 72960, Note_on_c, 3, 42, 110
4, 73344, Note_off_c, 3, 42, 64
4, 73344, Note_on_c, 3, 43, 111
4, 73632, Note_off_c, 3, 43, 64
4, 73728, Note_on_c, 3, 45, 105
4, 74112, Note_off_c, 3, 45, 64
4, 74112, Note_on_c, 3, 43, 117
4, 74496, Note_off_c, 3, 43, 64
4, 74496, Note_on_c, 3, 42, 97
4, 74880, Note_off_c, 3, 42, 64
4, 74880, Note_on_c, 3, 40, 92
4, 75264, Note_off_c, 3, 40, 64
4, 75264, Note_on_c, 3, 40, 110
4, 75456, Note_on_c, 3, 39, 101
4, 75460, Note_off_c, 3, 40, 64
4, 76032, Note_on_c, 3, 40, 110
4, 76068, Note_off_c, 3, 39, 64
4, 76224, Note_off_c, 3, 40, 64
4, 76416, Note_on_c, 3, 42, 117
4, 76676, Note_off_c, 3, 42, 64
4, 76800, Note_on_c, 3, 40, 117
4, 76992, Note_on_c, 3, 39, 105
4, 77036, Note_off_c, 3, 40, 64
4, 78116, Note_off_c, 3, 39, 64
4, 78720, Note_on_c, 3, 52, 117
4, 78824, Note_off_c, 3, 52, 64
4, 78912, Note_on_c, 3, 52, 101
4, 79040, Note_off_c, 3, 52, 64
4, 79104, Note_on_c, 3, 50, 117
4, 79376, Note_off_c, 3, 50, 64
4, 79488, Note_on_c, 3, 50, 117
4, 79584, Note_off_c, 3, 50, 64
4, 79872, Note_on_c, 3, 43, 101
4, 80184, Note_off_c, 3, 43, 64
4, 80256, Note_on_c, 3, 43, 101
4, 80372, Note_off_c, 3, 43, 64
4, 80448, Note_on_c, 3, 45, 105
4, 80920, Note_off_c, 3, 45, 64
4, 81024, Note_on_c, 3, 45, 117
4, 81216, Note_off_c, 3, 45, 64
4, 81216, Note_on_c, 3, 47, 115
4, 81412, Note_off_c, 3, 47, 64
4, 81600, Note_on_c, 3, 47, 117
4, 81824, Note_off_c, 3, 47, 64
4, 81984, Note_on_c, 3, 47, 117
4, 82032, Note_off_c, 3, 47, 64
4, 82176, Note_on_c, 3, 47, 115
4, 82368, Note_off_c, 3, 47, 64
4, 82368, Note_on_c, 3, 45, 82
4, 82560, Note_on_c, 3, 43, 93
4, 82576, Note_off_c, 3, 45, 64
4, 82676, Note_off_c, 3, 43, 64
4, 82752, Note_on_c, 3, 47, 101
4, 83756, Note_off_c, 3, 47, 64
4, 84672, Note_on_c, 3, 52, 115
4, 84720, Note_off_c, 3, 52, 64
4, 84864, Note_on_c, 3, 52, 115
4, 85160, Note_off_c, 3, 52, 64
4, 85248, Note_on_c, 3, 50, 117
4, 85548, Note_off_c, 3, 50, 64
4, 85632, Note_on_c, 3, 50, 117
4, 85800, Note_off_c, 3, 50, 64
4, 86016, Note_on_c, 3, 43, 105
4, 86280, Note_off_c, 3, 43, 64
4, 86400, Note_on_c, 3, 43, 111
4, 86504, Note_off_c, 3, 43, 64
4, 86592, Note_on_c, 3, 45, 117
4, 86760, Note_off_c, 3, 45, 64
4, 86976, Note_on_c, 3, 45, 117
4, 87196, Note_off_c, 3, 45, 64
4, 87360, Note_on_c, 3, 47, 117
4, 87792, Note_off_c, 3, 47, 64
4, 87936, Note_on_c, 3, 47, 117
4, 88156, Note_off_c, 3, 47, 64
4, 88320, Note_on_c, 3, 47, 117
4, 88512, Note_off_c, 3, 47, 64
4, 88512, Note_on_c, 3, 45, 97
4, 88704, Note_off_c, 3, 45, 64
4, 88704, Note_on_c, 3, 43, 105
4, 88808, Note_off_c, 3, 43, 64
4, 88896, Note_on_c, 3, 47, 117
4, 90368, Note_off_c, 3, 47, 64
4, 91008, Note_on_c, 3, 40, 105
4, 91392, Note_off_c, 3, 40, 64
4, 91392, Note_on_c, 3, 42, 101
4, 91776, Note_off_c, 3, 42, 64
4, 91776, Note_on_c, 3, 43, 97
4, 92016, Note_off_c, 3, 43, 64
4, 92160, Note_on_c, 3, 45, 101
4, 92352, Note_on_c, 3, 43, 101
4, 92380, Note_off_c, 3, 45, 64
4, 92832, Note_off_c, 3, 43, 64
4, 92928, Note_on_c, 3, 42, 85
4, 93312, Note_off_c, 3, 42, 64
4, 93312, Note_on_c, 3, 40, 97
4, 93696, Note_off_c, 3, 40, 64
4, 93696, Note_on_c, 3, 40, 92
4, 94080, Note_off_c, 3, 40, 64
4, 94080, Note_on_c, 3, 39, 85
4, 94464, Note_off_c, 3, 39, 64
4, 94464, Note_on_c, 3, 40, 97
4, 94848, Note_off_c, 3, 40, 64
4, 94848, Note_on_c, 3, 42, 87
4, 95040, Note_off_c, 3, 42, 64
4, 95232, Note_on_c, 3, 40, 105
4, 95424, Note_on_c, 3, 39, 87
4, 95456, Note_off_c, 3, 40, 64
4, 96676, Note_off_c, 3, 39, 64
4, 97152, Note_on_c, 3, 40, 105
4, 97536, Note_off_c, 3, 40, 64
4, 97536, Note_on_c, 3, 42, 105
4, 97920, Note_off_c, 3, 42, 64
4, 97920, Note_on_c, 3, 43, 97
4, 98304, Note_off_c, 3, 43, 64
4, 98304, Note_on_c, 3, 45, 88
4, 98496, Note_off_c, 3, 45, 64
4, 98496, Note_on_c, 3, 43, 97
4, 99072, Note_on_c, 3, 42, 89
4, 99088, Note_off_c, 3, 43, 64
4, 99456, Note_off_c, 3, 42, 64
4, 99456, Note_on_c, 3, 40, 94
4, 99768, Note_off_c, 3, 40, 64
4, 99840, Note_on_c, 3, 40, 105
4, 100224, Note_off_c, 3, 40, 64
4, 100224, Note_on_c, 3, 39, 87
4, 100608, Note_on_c, 3, 40, 97
4, 100640, Note_off_c, 3, 39, 64
4, 100896, Note_off_c, 3, 40, 64
4, 100992, Note_on_c, 3, 42, 101
4, 101316, Note_off_c, 3, 42, 64
4, 101376, Note_on_c, 3, 40, 110
4, 101568, Note_off_c, 3, 40, 64
4, 101568, Note_on_c, 3, 39, 105
4, 102744, Note_off_c, 3, 39, 64
4, 103296, Note_on_c, 3, 52, 117
4, 103560, Note_off_c, 3, 52, 64
4, 103680, Note_on_c, 3, 50, 117
4, 103980, Note_off_c, 3, 50, 64
4, 104064, Note_on_c, 3, 50, 117
4, 104256, Note_off_c, 3, 50, 64
4, 104448, Note_on_c, 3, 43, 105
4, 104748, Note_off_c, 3, 43, 64
4, 104832, Note_on_c, 3, 43, 111
4, 104964, Note_off_c, 3, 43, 64
4, 105024, Note_on_c, 3, 45, 105
4, 105228, Note_off_c, 3, 45, 64
4, 105408, Note_on_c, 3, 45, 117
4, 105644, Note_off_c, 3, 45, 64
4, 105792, Note_on_c, 3, 47, 117
4, 106256, Note_off_c, 3, 47, 64
4, 106368, Note_on_c, 3, 47, 105
4, 106560, Note_off_c, 3, 47, 64
4, 106752, Note_on_c, 3, 47, 117
4, 106944, Note_off_c, 3, 47, 64
4, 106944, Note_on_c, 3, 45, 88
4, 107136, Note_off_c, 3, 45, 64
4, 107136, Note_on_c, 3, 43, 105
4, 107240, Note_off_c, 3, 43, 64
4, 107328, Note_on_c, 3, 47, 117
4, 108584, Note_off_c, 3, 47, 64
4, 109440, Note_on_c, 3, 52, 117
4, 109668, Note_off_c, 3, 52, 64
4, 109824, Note_on_c, 3, 50, 117
4, 110156, Note_off_c, 3, 50, 64
4, 110208, Note_on_c, 3, 50, 117
4, 110420, Note_off_c, 3, 50, 64
4, 110592, Note_on_c, 3, 43, 117
4, 110904, Note_off_c, 3, 43, 64
4, 110976, Note_on_c, 3, 43, 101
4, 111096, Note_off_c, 3, 43, 64
4, 111168, Note_on_c, 3, 45, 111
4, 111440, Note_off_c, 3, 45, 64
4, 111552, Note_on_c, 3, 45, 117
4, 112064, Note_off_c, 3, 45, 64
4, 112128, Note_on_c, 3, 47, 117
4, 112364, Note_off_c, 3, 47, 64
4, 112512, Note_on_c, 3, 47, 117
4, 112708, Note_off_c, 3, 47, 64
4, 112896, Note_on_c, 3, 47, 117
4, 113088, Note_off_c, 3, 47, 64
4, 113088, Note_on_c, 3, 45, 101
4, 113280, Note_off_c, 3, 45, 64
4, 113280, Note_on_c, 3, 43, 111
4, 113396, Note_off_c, 3, 43, 64
4, 113472, Note_on_c, 3, 47, 117
4, 114944, Note_off_c, 3, 47, 64
4, 115584, Note_on_c, 3, 40, 117
4, 115968, Note_off_c, 3, 40, 64
4, 115968, Note_on_c, 3, 42, 117
4, 116352, Note_off_c, 3, 42, 64
4, 116352, Note_on_c, 3, 43, 117
4, 116736, Note_off_c, 3, 43, 64
4, 116736, Note_on_c, 3, 45, 117
4, 117120, Note_off_c, 3, 45, 64
4, 117120, Note_on_c, 3, 43, 117
4, 117504, Note_off_c, 3, 43, 64
4, 117504, Note_on_c, 3, 42, 89
4, 117888, Note_off_c, 3, 42, 64
4, 117888, Note_on_c, 3, 40, 115
4, 118272, Note_off_c, 3, 40, 64
4, 118272, Note_on_c, 3, 40, 110
4, 118656, Note_off_c, 3, 40, 64
4, 118656, Note_on_c, 3, 39, 101
4, 119040, Note_off_c, 3, 39, 64
4, 119040, Note_on_c, 3, 40, 110
4, 119424, Note_off_c, 3, 40, 64
4, 119424, Note_on_c, 3, 42, 115
4, 119808, Note_off_c, 3, 42, 64
4, 119808, Note_on_c, 3, 40, 115
4, 120000, Note_on_c, 3, 39, 101
4, 120008, Note_off_c, 3, 40, 64
4, 120916, Note_off_c, 3, 39, 64
4, 121728, Note_on_c, 3, 40, 117
4, 122112, Note_off_c, 3, 40, 64
4, 122112, Note_on_c, 3, 42, 117
4, 122496, Note_off_c, 3, 42, 64
4, 122496, Note_on_c, 3, 43, 117
4, 122880, Note_off_c, 3, 43, 64
4, 122880, Note_on_c, 3, 45, 101
4, 123072, Note_off_c, 3, 45, 64
4, 123072, Note_on_c, 3, 43, 117
4, 123456, Note_off_c, 3, 43, 64
4, 123456, Note_on_c, 3, 42, 110
4, 123840, Note_off_c, 3, 42, 64
4, 123840, Note_on_c, 3, 40, 117
4, 124156, Note_off_c, 3, 40, 64
4, 124224, Note_on_c, 3, 40, 110
4, 124608, Note_off_c, 3, 40, 64
4, 124608, Note_on_c, 3, 39, 97
4, 124992, Note_off_c, 3, 39, 64
4, 124992, Note_on_c, 3, 40, 115
4, 125376, Note_off_c, 3, 40, 64
4, 125376, Note_on_c, 3, 42, 115
4, 125760, Note_off_c, 3, 42, 64
4, 125760, Note_on_c, 3, 40, 110
4, 126144, Note_off_c, 3, 40, 64
4, 126144, Note_on_c, 3, 39, 84
4, 127228, Note_off_c, 3, 39, 64
4, 127872, Note_on_c, 3, 52, 117
4, 128136, Note_off_c, 3, 52, 64
4, 128256, Note_on_c, 3, 50, 117
4, 128596, Note_off_c, 3, 50, 64
4, 128640, Note_on_c, 3, 50, 117
4, 128768, Note_off_c, 3, 50, 64
4, 129024, Note_on_c, 3, 43, 105
4, 129344, Note_off_c, 3, 43, 64
4, 129408, Note_on_c, 3, 43, 105
4, 129600, Note_off_c, 3, 43, 64
4, 129600, Note_on_c, 3, 45, 111
4, 129792, Note_off_c, 3, 45, 64
4, 129984, Note_on_c, 3, 45, 117
4, 130112, Note_off_c, 3, 45, 64
4, 130368, Note_on_c, 3, 47, 117
4, 130808, Note_off_c, 3, 47, 64
4, 130944, Note_on_c, 3, 47, 117
4, 131176, Note_off_c, 3, 47, 64
4, 131328, Note_on_c, 3, 47, 117
4, 131520, Note_off_c, 3, 47, 64
4, 131520, Note_on_c, 3, 45, 86
4, 131712, Note_off_c, 3, 45, 64
4, 131712, Note_on_c, 3, 43, 101
4, 131840, Note_off_c, 3, 43, 64
4, 131904, Note_on_c, 3, 47, 117
4, 133216, Note_off_c, 3, 47, 64
4, 134016, Note_on_c, 3, 52, 117
4, 134280, Note_off_c, 3, 52, 64
4, 134400, Note_on_c, 3, 50, 117
4, 134740, Note_off_c, 3, 50, 64
4, 134784, Note_on_c, 3, 50, 117
4, 134912, Note_off_c, 3, 50, 64
4, 135168, Note_on_c, 3, 43, 117
4, 135488, Note_off_c, 3, 43, 64
4, 135552, Note_on_c, 3, 43, 101
4, 135672, Note_off_c, 3, 43, 64
4, 135744, Note_on_c, 3, 45, 111
4, 136064, Note_off_c, 3, 45, 64
4, 136128, Note_on_c, 3, 45, 117
4, 136320, Note_off_c, 3, 45, 64
4, 136512, Note_on_c, 3, 47, 117
4, 136732, Note_off_c, 3, 47, 64
4, 136896, Note_on_c, 3, 47, 117
4, 137276, Note_off_c, 3, 47, 64
4, 137472, Note_on_c, 3, 47, 117
4, 137664, Note_off_c, 3, 47, 64
4, 137664, Note_on_c, 3, 45, 78
4, 137856, Note_off_c, 3, 45, 64
4, 137856, Note_on_c, 3, 43, 101
4, 137988, Note_off_c, 3, 43, 64
4, 138048, Note_on_c, 3, 47, 117
4, 139544, Note_off_c, 3, 47, 64
4, 139776, End_track
5, 0, Start_track
5, 0, Title_t, "MIDI"
5, 0, Control_c, 4, 7, 67
5, 0, Program_c, 4, 27
5, 472, Program_c, 4, 27
5, 476, Control_c, 4, 7, 67
5, 476, Control_c, 4, 10, 74
5, 476, Control_c, 4, 11, 127
5, 480, Control_c, 4, 91, 80
5, 480, Control_c, 4, 93, 0
5, 14012, Note_on_c, 4, 64, 73
5, 14012, Note_on_c, 4, 55, 71
5, 14016, Note_on_c, 4, 59, 70
5, 14160, Note_off_c, 4, 55, 64
5, 14176, Note_off_c, 4, 59, 64
5, 14192, Note_off_c, 4, 64, 64
5, 14392, Note_on_c, 4, 64, 70
5, 14396, Note_on_c, 4, 55, 65
5, 14396, Note_on_c, 4, 59, 66
5, 14564, Note_off_c, 4, 55, 64
5, 14576, Note_off_c, 4, 59, 64
5, 14580, Note_off_c, 4, 64, 64
5, 14780, Note_on_c, 4, 59, 70
5, 14780, Note_on_c, 4, 64, 66
5, 14780, Note_on_c, 4, 55, 66
5, 14940, Note_off_c, 4, 55, 64
5, 14964, Note_off_c, 4, 64, 64
5, 14964, Note_off_c, 4, 59, 64
5, 15164, Note_on_c, 4, 59, 65
5, 15164, Note_on_c, 4, 64, 64
5, 15168, Note_on_c, 4, 55, 61
5, 15316, Note_off_c, 4, 55, 64
5, 15344, Note_off_c, 4, 59, 64
5, 15348, Note_off_c, 4, 64, 64
5, 15548, Note_on_c, 4, 64, 67
5, 15548, Note_on_c, 4, 55, 65
5, 15548, Note_on_c, 4, 59, 64
5, 15708, Note_off_c, 4, 55, 64
5, 15732, Note_off_c, 4, 59, 64
5, 15744, Note_off_c, 4, 64, 64
5, 15936, Note_on_c, 4, 55, 67
5, 15936, Note_on_c, 4, 64, 63
5, 15936, Note_on_c, 4, 59, 63
5, 16064, Note_off_c, 4, 55, 64
5, 16092, Note_off_c, 4, 59, 64
5, 16112, Note_off_c, 4, 64, 64
5, 16316, Note_on_c, 4, 64, 64
5, 16320, Note_on_c, 4, 55, 61
5, 16320, Note_on_c, 4, 59, 63
5, 16476, Note_off_c, 4, 55, 64
5, 16504, Note_off_c, 4, 59, 64
5, 16520, Note_off_c, 4, 64, 64
5, 16700, Note_on_c, 4, 64, 66
5, 16700, Note_on_c, 4, 55, 67
5, 16704, Note_on_c, 4, 59, 66
5, 16860, Note_off_c, 4, 55, 64
5, 16888, Note_off_c, 4, 59, 64
5, 16896, Note_off_c, 4, 64, 64
5, 17088, Note_on_c, 4, 55, 70
5, 17088, Note_on_c, 4, 59, 70
5, 17088, Note_on_c, 4, 64, 67
5, 17252, Note_off_c, 4, 55, 64
5, 17272, Note_off_c, 4, 59, 64
5, 17276, Note_off_c, 4, 64, 64
5, 17472, Note_on_c, 4, 64, 65
5, 17472, Note_on_c, 4, 55, 65
5, 17472, Note_on_c, 4, 59, 64
5, 17600, Note_off_c, 4, 55, 64
5, 17636, Note_off_c, 4, 59, 64
5, 17656, Note_off_c, 4, 64, 64
5, 17856, Note_on_c, 4, 64, 64
5, 17856, Note_on_c, 4, 55, 65
5, 17856, Note_on_c, 4, 59, 66
5, 18012, Note_off_c, 4, 55, 64
5, 18032, Note_off_c, 4, 59, 64
5, 18036, Note_off_c, 4, 64, 64
5, 18240, Note_on_c, 4, 64, 70
5, 18240, Note_on_c, 4, 55, 70
5, 18240, Note_on_c, 4, 59, 64
5, 18404, Note_off_c, 4, 55, 64
5, 18408, Note_off_c, 4, 59, 64
5, 18420, Note_off_c, 4, 64, 64
5, 18624, Note_on_c, 4, 64, 73
5, 18624, Note_on_c, 4, 55, 73
5, 18624, Note_on_c, 4, 59, 68
5, 18764, Note_off_c, 4, 55, 64
5, 18784, Note_off_c, 4, 59, 64
5, 18796, Note_off_c, 4, 64, 64
5, 19008, Note_on_c, 4, 55, 78
5, 19008, Note_on_c, 4, 64, 74
5, 19012, Note_on_c, 4, 59, 69
5, 19148, Note_off_c, 4, 55, 64
5, 19160, Note_off_c, 4, 59, 64
5, 19184, Note_off_c, 4, 64, 64
5, 19392, Note_on_c, 4, 64, 75
5, 19392, Note_on_c, 4, 55, 75
5, 19392, Note_on_c, 4, 59, 70
5, 19552, Note_off_c, 4, 55, 64
5, 19564, Note_off_c, 4, 59, 64
5, 19588, Note_off_c, 4, 64, 64
5, 19776, Note_on_c, 4, 55, 76
5, 19776, Note_on_c, 4, 64, 75
5, 19776, Note_on_c, 4, 59, 74
5, 19932, Note_off_c, 4, 59, 64
5, 19932, Note_off_c, 4, 55, 64
5, 19960, Note_off_c, 4, 64, 64
5, 20156, Note_on_c, 4, 63, 70
5, 20156, Note_on_c, 4, 66, 77
5, 20156, Note_on_c, 4, 59, 78
5, 20348, Note_off_c, 4, 59, 64
5, 20368, Note_off_c, 4, 66, 64
5, 20372, Note_off_c, 4, 63, 64
5, 20544, Note_on_c, 4, 66, 80
5, 20544, Note_on_c, 4, 59, 81
5, 20544, Note_on_c, 4, 63, 65
5, 20732, Note_off_c, 4, 59, 64
5, 20744, Note_off_c, 4, 63, 64
5, 20748, Note_off_c, 4, 66, 64
5, 20928, Note_on_c, 4, 66, 76
5, 20928, Note_on_c, 4, 59, 76
5, 20928, Note_on_c, 4, 63, 66
5, 21112, Note_off_c, 4, 59, 64
5, 21124, Note_off_c, 4, 63, 64
5, 21136, Note_off_c, 4, 66, 64
5, 21312, Note_on_c, 4, 66, 82
5, 21312, Note_on_c, 4, 59, 78
5, 21312, Note_on_c, 4, 63, 72
5, 21464, Note_off_c, 4, 59, 64
5, 21480, Note_off_c, 4, 63, 64
5, 21492, Note_off_c, 4, 66, 64
5, 21692, Note_on_c, 4, 66, 81
5, 21696, Note_on_c, 4, 63, 73
5, 21696, Note_on_c, 4, 59, 74
5, 21876, Note_off_c, 4, 59, 64
5, 21900, Note_off_c, 4, 63, 64
5, 21908, Note_off_c, 4, 66, 64
5, 22080, Note_on_c, 4, 59, 74
5, 22080, Note_on_c, 4, 63, 74
5, 22080, Note_on_c, 4, 66, 74
5, 22260, Note_off_c, 4, 66, 64
5, 22260, Note_off_c, 4, 63, 64
5, 22260, Note_off_c, 4, 59, 64
5, 22464, Note_on_c, 4, 67, 97
5, 22464, Note_on_c, 4, 64, 83
5, 22464, Note_on_c, 4, 59, 89
5, 22644, Note_off_c, 4, 67, 64
5, 22664, Note_off_c, 4, 59, 64
5, 22664, Note_off_c, 4, 64, 64
5, 22848, Note_on_c, 4, 59, 77
5, 22848, Note_on_c, 4, 66, 82
5, 22848, Note_on_c, 4, 63, 82
5, 23028, Note_off_c, 4, 59, 64
5, 23040, Note_off_c, 4, 63, 64
5, 23040, Note_off_c, 4, 66, 64
5, 23232, Note_on_c, 4, 55, 70
5, 23232, Note_on_c, 4, 59, 70
5, 23232, Note_on_c, 4, 64, 67
5, 23396, Note_off_c, 4, 55, 64
5, 23416, Note_off_c, 4, 59, 64
5, 23420, Note_off_c, 4, 64, 64
5, 23616, Note_on_c, 4, 64, 65
5, 23616, Note_on_c, 4, 55, 65
5, 23616, Note_on_c, 4, 59, 64
5, 23744, Note_off_c, 4, 55, 64
5, 23780, Note_off_c, 4, 59, 64
5, 23800, Note_off_c, 4, 64, 64
5, 24000, Note_on_c, 4, 64, 64
5, 24000, Note_on_c, 4, 55, 65
5, 24000, Note_on_c, 4, 59, 66
5, 24156, Note_off_c, 4, 55, 64
5, 24176, Note_off_c, 4, 59, 64
5, 24180, Note_off_c, 4, 64, 64
5, 24384, Note_on_c, 4, 64, 70
5, 24384, Note_on_c, 4, 55, 70
5, 24384, Note_on_c, 4, 59, 64
5, 24548, Note_off_c, 4, 55, 64
5, 24552, Note_off_c, 4, 59, 64
5, 24564, Note_off_c, 4, 64, 64
5, 24768, Note_on_c, 4, 64, 73
5, 24768, Note_on_c, 4, 55, 73
5, 24768, Note_on_c, 4, 59, 68
5, 24908, Note_off_c, 4, 55, 64
5, 24928, Note_off_c, 4, 59, 64
5, 24940, Note_off_c, 4, 64, 64
5, 25152, Note_on_c, 4, 55, 78
5, 25152, Note_on_c, 4, 64, 74
5, 25156, Note_on_c, 4, 59, 69
5, 25292, Note_off_c, 4, 55, 64
5, 25304, Note_off_c, 4, 59, 64
5, 25328, Note_off_c, 4, 64, 64
5, 25536, Note_on_c, 4, 64, 75
5, 25536, Note_on_c, 4, 55, 75
5, 25536, Note_on_c, 4, 59, 70
5, 25696, Note_off_c, 4, 55, 64
5, 25708, Note_off_c, 4, 59, 64
5, 25732, Note_off_c, 4, 64, 64
5, 25920, Note_on_c, 4, 55, 76
5, 25920, Note_on_c, 4, 64, 75
5, 25920, Note_on_c, 4, 59, 74
5, 26076, Note_off_c, 4, 59, 64
5, 26076, Note_off_c, 4, 55, 64
5, 26104, Note_off_c, 4, 64, 64
5, 26300, Note_on_c, 4, 63, 70
5, 26300, Note_on_c, 4, 66, 77
5, 26300, Note_on_c, 4, 59, 78
5, 26492, Note_off_c, 4, 59, 64
5, 26512, Note_off_c, 4, 66, 64
5, 26516, Note_off_c, 4, 63, 64
5, 26688, Note_on_c, 4, 66, 80
5, 26688, Note_on_c, 4, 59, 81
5, 26688, Note_on_c, 4, 63, 65
5, 26876, Note_off_c, 4, 59, 64
5, 26888, Note_off_c, 4, 63, 64
5, 26892, Note_off_c, 4, 66, 64
5, 27072, Note_on_c, 4, 66, 76
5, 27072, Note_on_c, 4, 59, 76
5, 27072, Note_on_c, 4, 63, 66
5, 27256, Note_off_c, 4, 59, 64
5, 27268, Note_off_c, 4, 63, 64
5, 27280, Note_off_c, 4, 66, 64
5, 27456, Note_on_c, 4, 66, 82
5, 27456, Note_on_c, 4, 59, 78
5, 27456, Note_on_c, 4, 63, 72
5, 27608, Note_off_c, 4, 59, 64
5, 27624, Note_off_c, 4, 63, 64
5, 27636, Note_off_c, 4, 66, 64
5, 27836, Note_on_c, 4, 66, 81
5, 27840, Note_on_c, 4, 63, 73
5, 27840, Note_on_c, 4, 59, 74
5, 28020, Note_off_c, 4, 59, 64
5, 28044, Note_off_c, 4, 63, 64
5, 28052, Note_off_c, 4, 66, 64
5, 28224, Note_on_c, 4, 59, 74
5, 28224, Note_on_c, 4, 63, 74
5, 28224, Note_on_c, 4, 66, 74
5, 28404, Note_off_c, 4, 66, 64
5, 28404, Note_off_c, 4, 63, 64
5, 28404, Note_off_c, 4, 59, 64
5, 28608, Note_on_c, 4, 67, 97
5, 28608, Note_on_c, 4, 64, 83
5, 28608, Note_on_c, 4, 59, 89
5, 28788, Note_off_c, 4, 67, 64
5, 28808, Note_off_c, 4, 59, 64
5, 28808, Note_off_c, 4, 64, 64
5, 28992, Note_on_c, 4, 59, 77
5, 28992, Note_on_c, 4, 66, 82
5, 28992, Note_on_c, 4, 63, 82
5, 29172, Note_off_c, 4, 59, 64
5, 29184, Note_off_c, 4, 63, 64
5, 29184, Note_off_c, 4, 66, 64
5, 41664, Note_on_c, 4, 55, 70
5, 41664, Note_on_c, 4, 59, 70
5, 41664, Note_on_c, 4, 64, 67
5, 41828, Note_off_c, 4, 55, 64
5, 41848, Note_off_c, 4, 59, 64
5, 41852, Note_off_c, 4, 64, 64
5, 42048, Note_on_c, 4, 64, 65
5, 42048, Note_on_c, 4, 55, 65
5, 42048, Note_on_c, 4, 59, 64
5, 42176, Note_off_c, 4, 55, 64
5, 42212, Note_off_c, 4, 59, 64
5, 42232, Note_off_c, 4, 64, 64
5, 42432, Note_on_c, 4, 64, 64
5, 42432, Note_on_c, 4, 55, 65
5, 42432, Note_on_c, 4, 59, 66
5, 42588, Note_off_c, 4, 55, 64
5, 42608, Note_off_c, 4, 59, 64
5, 42612, Note_off_c, 4, 64, 64
5, 42816, Note_on_c, 4, 64, 70
5, 42816, Note_on_c, 4, 55, 70
5, 42816, Note_on_c, 4, 59, 64
5, 42980, Note_off_c, 4, 55, 64
5, 42984, Note_off_c, 4, 59, 64
5, 42996, Note_off_c, 4, 64, 64
5, 43200, Note_on_c, 4, 64, 73
5, 43200, Note_on_c, 4, 55, 73
5, 43200, Note_on_c, 4, 59, 68
5, 43340, Note_off_c, 4, 55, 64
5, 43360, Note_off_c, 4, 59, 64
5, 43372, Note_off_c, 4, 64, 64
5, 43584, Note_on_c, 4, 55, 78
5, 43584, Note_on_c, 4, 64, 74
5, 43588, Note_on_c, 4, 59, 69
5, 43724, Note_off_c, 4, 55, 64
5, 43736, Note_off_c, 4, 59, 64
5, 43760, Note_off_c, 4, 64, 64
5, 43968, Note_on_c, 4, 64, 75
5, 43968, Note_on_c, 4, 55, 75
5, 43968, Note_on_c, 4, 59, 70
5, 44128, Note_off_c, 4, 55, 64
5, 44140, Note_off_c, 4, 59, 64
5, 44164, Note_off_c, 4, 64, 64
5, 44352, Note_on_c, 4, 55, 76
5, 44352, Note_on_c, 4, 64, 75
5, 44352, Note_on_c, 4, 59, 74
5, 44508, Note_off_c, 4, 59, 64
5, 44508, Note_off_c, 4, 55, 64
5, 44536, Note_off_c, 4, 64, 64
5, 44732, Note_on_c, 4, 63, 70
5, 44732, Note_on_c, 4, 66, 77
5, 44732, Note_on_c, 4, 59, 78
5, 44924, Note_off_c, 4, 59, 64
5, 44944, Note_off_c, 4, 66, 64
5, 44948, Note_off_c, 4, 63, 64
5, 45120, Note_on_c, 4, 66, 80
5, 45120, Note_on_c, 4, 59, 81
5, 45120, Note_on_c, 4, 63, 65
5, 45308, Note_off_c, 4, 59, 64
5, 45320, Note_off_c, 4, 63, 64
5, 45324, Note_off_c, 4, 66, 64
5, 45504, Note_on_c, 4, 66, 76
5, 45504, Note_on_c, 4, 59, 76
5, 45504, Note_on_c, 4, 63, 66
5, 45688, Note_off_c, 4, 59, 64
5, 45700, Note_off_c, 4, 63, 64
5, 45712, Note_off_c, 4, 66, 64
5, 45888, Note_on_c, 4, 66, 82
5, 45888, Note_on_c, 4, 59, 78
5, 45888, Note_on_c, 4, 63, 72
5, 46040, Note_off_c, 4, 59, 64
5, 46056, Note_off_c, 4, 63, 64
5, 46068, Note_off_c, 4, 66, 64
5, 46268, Note_on_c, 4, 66, 81
5, 46272, Note_on_c, 4, 63, 73
5, 46272, Note_on_c, 4, 59, 74
5, 46452, Note_off_c, 4, 59, 64
5, 46476, Note_off_c, 4, 63, 64
5, 46484, Note_off_c, 4, 66, 64
5, 46656, Note_on_c, 4, 59, 74
5, 46656, Note_on_c, 4, 63, 74
5, 46656, Note_on_c, 4, 66, 74
5, 46836, Note_off_c, 4, 66, 64
5, 46836, Note_off_c, 4, 63, 64
5, 46836, Note_off_c, 4, 59, 64
5, 47040, Note_on_c, 4, 67, 97
5, 47040, Note_on_c, 4, 64, 83
5, 47040, Note_on_c, 4, 59, 89
5, 47220, Note_off_c, 4, 67, 64
5, 47240, Note_off_c, 4, 59, 64
5, 47240, Note_off_c, 4, 64, 64
5, 47424, Note_on_c, 4, 59, 77
5, 47424, Note_on_c, 4, 66, 82
5, 47424, Note_on_c, 4, 63, 82
5, 47604, Note_off_c, 4, 59, 64
5, 47616, Note_off_c, 4, 63, 64
5, 47616, Note_off_c, 4, 66, 64
5, 47808, Note_on_c, 4, 55, 70
5, 47808, Note_on_c, 4, 59, 70
5, 47808, Note_on_c, 4, 64, 67
5, 47972, Note_off_c, 4, 55, 64
5, 47992, Note_off_c, 4, 59, 64
5, 47996, Note_off_c, 4, 64, 64
5, 48192, Note_on_c, 4, 64, 65
5, 48192, Note_on_c, 4, 55, 65
5, 48192, Note_on_c, 4, 59, 64
5, 48320, Note_off_c, 4, 55, 64
5, 48356, Note_off_c, 4, 59, 64
5, 48376, Note_off_c, 4, 64, 64
5, 48576, Note_on_c, 4, 64, 64
5, 48576, Note_on_c, 4, 55, 65
5, 48576, Note_on_c, 4, 59, 66
5, 48732, Note_off_c, 4, 55, 64
5, 48752, Note_off_c, 4, 59, 64
5, 48756, Note_off_c, 4, 64, 64
5, 48960, Note_on_c, 4, 64, 70
5, 48960, Note_on_c, 4, 55, 70
5, 48960, Note_on_c, 4, 59, 64
5, 49124, Note_off_c, 4, 55, 64
5, 49128, Note_off_c, 4, 59, 64
5, 49140, Note_off_c, 4, 64, 64
5, 49344, Note_on_c, 4, 64, 73
5, 49344, Note_on_c, 4, 55, 73
5, 49344, Note_on_c, 4, 59, 68
5, 49484, Note_off_c, 4, 55, 64
5, 49504, Note_off_c, 4, 59, 64
5, 49516, Note_off_c, 4, 64, 64
5, 49728, Note_on_c, 4, 55, 78
5, 49728, Note_on_c, 4, 64, 74
5, 49732, Note_on_c, 4, 59, 69
5, 49868, Note_off_c, 4, 55, 64
5, 49880, Note_off_c, 4, 59, 64
5, 49904, Note_off_c, 4, 64, 64
5, 50112, Note_on_c, 4, 64, 75
5, 50112, Note_on_c, 4, 55, 75
5, 50112, Note_on_c, 4, 59, 70
5, 50272, Note_off_c, 4, 55, 64
5, 50284, Note_off_c, 4, 59, 64
5, 50308, Note_off_c, 4, 64, 64
5, 50496, Note_on_c, 4, 55, 76
5, 50496, Note_on_c, 4, 64, 75
5, 50496, Note_on_c, 4, 59, 74
5, 50652, Note_off_c, 4, 59, 64
5, 50652, Note_off_c, 4, 55, 64
5, 50680, Note_off_c, 4, 64, 64
5, 50876, Note_on_c, 4, 63, 70
5, 50876, Note_on_c, 4, 66, 77
5, 50876, Note_on_c, 4, 59, 78
5, 51068, Note_off_c, 4, 59, 64
5, 51088, Note_off_c, 4, 66, 64
5, 51092, Note_off_c, 4, 63, 64
5, 51264, Note_on_c, 4, 66, 80
5, 51264, Note_on_c, 4, 59, 81
5, 51264, Note_on_c, 4, 63, 65
5, 51452, Note_off_c, 4, 59, 64
5, 51464, Note_off_c, 4, 63, 64
5, 51468, Note_off_c, 4, 66, 64
5, 51648, Note_on_c, 4, 66, 76
5, 51648, Note_on_c, 4, 59, 76
5, 51648, Note_on_c, 4, 63, 66
5, 51832, Note_off_c, 4, 59, 64
5, 51844, Note_off_c, 4, 63, 64
5, 51856, Note_off_c, 4, 66, 64
5, 52032, Note_on_c, 4, 66, 82
5, 52032, Note_on_c, 4, 59, 78
5, 52032, Note_on_c, 4, 63, 72
5, 52184, Note_off_c, 4, 59, 64
5, 52200, Note_off_c, 4, 63, 64
5, 52212, Note_off_c, 4, 66, 64
5, 52412, Note_on_c, 4, 66, 81
5, 52416, Note_on_c, 4, 63, 73
5, 52416, Note_on_c, 4, 59, 74
5, 52596, Note_off_c, 4, 59, 64
5, 52620, Note_off_c, 4, 63, 64
5, 52628, Note_off_c, 4, 66, 64
5, 52800, Note_on_c, 4, 59, 74
5, 52800, Note_on_c, 4, 63, 74
5, 52800, Note_on_c, 4, 66, 74
5, 52980, Note_off_c, 4, 66, 64
5, 52980, Note_off_c, 4, 63, 64
5, 52980, Note_off_c, 4, 59, 64
5, 53184, Note_on_c, 4, 67, 97
5, 53184, Note_on_c, 4, 64, 83
5, 53184, Note_on_c, 4, 59, 89
5, 53364, Note_off_c, 4, 67, 64
5, 53384, Note_off_c, 4, 59, 64
5, 53384, Note_off_c, 4, 64, 64
5, 53568, Note_on_c, 4, 59, 77
5, 53568, Note_on_c, 4, 66, 82
5, 53568, Note_on_c, 4, 63, 82
5, 53748, Note_off_c, 4, 59, 64
5, 53760, Note_off_c, 4, 63, 64
5, 53760, Note_off_c, 4, 66, 64
5, 66240, Note_on_c, 4, 55, 70
5, 66240, Note_on_c, 4, 59, 70
5, 66240, Note_on_c, 4, 64, 67
5, 66404, Note_off_c, 4, 55, 64
5, 66424, Note_off_c, 4, 59, 64
5, 66428, Note_off_c, 4, 64, 64
5, 66624, Note_on_c, 4, 64, 65
5, 66624, Note_on_c, 4, 55, 65
5, 66624, Note_on_c, 4, 59, 64
5, 66752, Note_off_c, 4, 55, 64
5, 66788, Note_off_c, 4, 59, 64
5, 66808, Note_off_c, 4, 64, 64
5, 67008, Note_on_c, 4, 64, 64
5, 67008, Note_on_c, 4, 55, 65
5, 67008, Note_on_c, 4, 59, 66
5, 67164, Note_off_c, 4, 55, 64
5, 67184, Note_off_c, 4, 59, 64
5, 67188, Note_off_c, 4, 64, 64
5, 67392, Note_on_c, 4, 64, 70
5, 67392, Note_on_c, 4, 55, 70
5, 67392, Note_on_c, 4, 59, 64
5, 67556, Note_off_c, 4, 55, 64
5, 67560, Note_off_c, 4, 59, 64
5, 67572, Note_off_c, 4, 64, 64
5, 67776, Note_on_c, 4, 64, 73
5, 67776, Note_on_c, 4, 55, 73
5, 67776, Note_on_c, 4, 59, 68
5, 67916, Note_off_c, 4, 55, 64
5, 67936, Note_off_c, 4, 59, 64
5, 67948, Note_off_c, 4, 64, 64
5, 68160, Note_on_c, 4, 55, 78
5, 68160, Note_on_c, 4, 64, 74
5, 68164, Note_on_c, 4, 59, 69
5, 68300, Note_off_c, 4, 55, 64
5, 68312, Note_off_c, 4, 59, 64
5, 68336, Note_off_c, 4, 64, 64
5, 68544, Note_on_c, 4, 64, 75
5, 68544, Note_on_c, 4, 55, 75
5, 68544, Note_on_c, 4, 59, 70
5, 68704, Note_off_c, 4, 55, 64
5, 68716, Note_off_c, 4, 59, 64
5, 68740, Note_off_c, 4, 64, 64
5, 68928, Note_on_c, 4, 55, 76
5, 68928, Note_on_c, 4, 64, 75
5, 68928, Note_on_c, 4, 59, 74
5, 69084, Note_off_c, 4, 59, 64
5, 69084, Note_off_c, 4, 55, 64
5, 69112, Note_off_c, 4, 64, 64
5, 69308, Note_on_c, 4, 63, 70
5, 69308, Note_on_c, 4, 66, 77
5, 69308, Note_on_c, 4, 59, 78
5, 69500, Note_off_c, 4, 59, 64
5, 69520, Note_off_c, 4, 66, 64
5, 69524, Note_off_c, 4, 63, 64
5, 69696, Note_on_c, 4, 66, 80
5, 69696, Note_on_c, 4, 59, 81
5, 69696, Note_on_c, 4, 63, 65
5, 69884, Note_off_c, 4, 59, 64
5, 69896, Note_off_c, 4, 63, 64
5, 69900, Note_off_c, 4, 66, 64
5, 70080, Note_on_c, 4, 66, 76
5, 70080, Note_on_c, 4, 59, 76
5, 70080, Note_on_c, 4, 63, 66
5, 70264, Note_off_c, 4, 59, 64
5, 70276, Note_off_c, 4, 63, 64
5, 70288, Note_off_c, 4, 66, 64
5, 70464, Note_on_c, 4, 66, 82
5, 70464, Note_on_c, 4, 59, 78
5, 70464, Note_on_c, 4, 63, 72
5, 70616, Note_off_c, 4, 59, 64
5, 70632, Note_off_c, 4, 63, 64
5, 70644, Note_off_c, 4, 66, 64
5, 70844, Note_on_c, 4, 66, 81
5, 70848, Note_on_c, 4, 63, 73
5, 70848, Note_on_c, 4, 59, 74
5, 71028, Note_off_c, 4, 59, 64
5, 71052, Note_off_c, 4, 63, 64
5, 71060, Note_off_c, 4, 66, 64
5, 71232, Note_on_c, 4, 59, 74
5, 71232, Note_on_c, 4, 63, 74
5, 71232, Note_on_c, 4, 66, 74
5, 71412, Note_off_c, 4, 66, 64
5, 71412, Note_off_c, 4, 63, 64
5, 71412, Note_off_c, 4, 59, 64
5, 71616, Note_on_c, 4, 67, 97
5, 71616, Note_on_c, 4, 64, 83
5, 71616, Note_on_c, 4, 59, 89
5, 71796, Note_off_c, 4, 67, 64
5, 71816, Note_off_c, 4, 59, 64
5, 71816, Note_off_c, 4, 64, 64
5, 72000, Note_on_c, 4, 59, 77
5, 72000, Note_on_c, 4, 66, 82
5, 72000, Note_on_c, 4, 63, 82
5, 72180, Note_off_c, 4, 59, 64
5, 72192, Note_off_c, 4, 63, 64
5, 72192, Note_off_c, 4, 66, 64
5, 72384, Note_on_c, 4, 55, 70
5, 72384, Note_on_c, 4, 59, 70
5, 72384, Note_on_c, 4, 64, 67
5, 72548, Note_off_c, 4, 55, 64
5, 72568, Note_off_c, 4, 59, 64
5, 72572, Note_off_c, 4, 64, 64
5, 72768, Note_on_c, 4, 64, 65
5, 72768, Note_on_c, 4, 55, 65
5, 72768, Note_on_c, 4, 59, 64
5, 72896, Note_off_c, 4, 55, 64
5, 72932, Note_off_c, 4, 59, 64
5, 72952, Note_off_c, 4, 64, 64
5, 73152, Note_on_c, 4, 64, 64
5, 73152, Note_on_c, 4, 55, 65
5, 73152, Note_on_c, 4, 59, 66
5, 73308, Note_off_c, 4, 55, 64
5, 73328, Note_off_c, 4, 59, 64
5, 73332, Note_off_c, 4, 64, 64
5, 73536, Note_on_c, 4, 64, 70
5, 73536, Note_on_c, 4, 55, 70
5, 73536, Note_on_c, 4, 59, 64
5, 73700, Note_off_c, 4, 55, 64
5, 73704, Note_off_c, 4, 59, 64
5, 73716, Note_off_c, 4, 64, 64
5, 73920, Note_on_c, 4, 64, 73
5, 73920, Note_on_c, 4, 55, 73
5, 73920, Note_on_c, 4, 59, 68
5, 74060, Note_off_c, 4, 55, 64
5, 74080, Note_off_c, 4, 59, 64
5, 74092, Note_off_c, 4, 64, 64
5, 74304, Note_on_c, 4, 55, 78
5, 74304, Note_on_c, 4, 64, 74
5, 74308, Note_on_c, 4, 59, 69
5, 74444, Note_off_c, 4, 55, 64
5, 74456, Note_off_c, 4, 59, 64
5, 74480, Note_off_c, 4, 64, 64
5, 74688, Note_on_c, 4, 64, 75
5, 74688, Note_on_c, 4, 55, 75
5, 74688, Note_on_c, 4, 59, 70
5, 74848, Note_off_c, 4, 55, 64
5, 74860, Note_off_c, 4, 59, 64
5, 74884, Note_off_c, 4, 64, 64
5, 75072, Note_on_c, 4, 55, 76
5, 75072, Note_on_c, 4, 64, 75
5, 75072, Note_on_c, 4, 59, 74
5, 75228, Note_off_c, 4, 59, 64
5, 75228, Note_off_c, 4, 55, 64
5, 75256, Note_off_c, 4, 64, 64
5, 75452, Note_on_c, 4, 63, 70
5, 75452, Note_on_c, 4, 66, 77
5, 75452, Note_on_c, 4, 59, 78
5, 75644, Note_off_c, 4, 59, 64
5, 75664, Note_off_c, 4, 66, 64
5, 75668, Note_off_c, 4, 63, 64
5, 75840, Note_on_c, 4, 66, 80
5, 75840, Note_on_c, 4, 59, 81
5, 75840, Note_on_c, 4, 63, 65
5, 76028, Note_off_c, 4, 59, 64
5, 76040, Note_off_c, 4, 63, 64
5, 76044, Note_off_c, 4, 66, 64
5, 76224, Note_on_c, 4, 66, 76
5, 76224, Note_on_c, 4, 59, 76
5, 76224, Note_on_c, 4, 63, 66
5, 76408, Note_off_c, 4, 59, 64
5, 76420, Note_off_c, 4, 63, 64
5, 76432, Note_off_c, 4, 66, 64
5, 76608, Note_on_c, 4, 66, 82
5, 76608, Note_on_c, 4, 59, 78
5, 76608, Note_on_c, 4, 63, 72
5, 76760, Note_off_c, 4, 59, 64
5, 76776, Note_off_c, 4, 63, 64
5, 76788, Note_off_c, 4, 66, 64
5, 76988, Note_on_c, 4, 66, 81
5, 76992, Note_on_c, 4, 63, 73
5, 76992, Note_on_c, 4, 59, 74
5, 77172, Note_off_c, 4, 59, 64
5, 77196, Note_off_c, 4, 63, 64
5, 77204, Note_off_c, 4, 66, 64
5, 77376, Note_on_c, 4, 59, 74
5, 77376, Note_on_c, 4, 63, 74
5, 77376, Note_on_c, 4, 66, 74
5, 77556, Note_off_c, 4, 66, 64
5, 77556, Note_off_c, 4, 63, 64
5, 77556, Note_off_c, 4, 59, 64
5, 77760, Note_on_c, 4, 67, 97
5, 77760, Note_on_c, 4, 64, 83
5, 77760, Note_on_c, 4, 59, 89
5, 77940, Note_off_c, 4, 67, 64
5, 77960, Note_off_c, 4, 59, 64
5, 77960, Note_off_c, 4, 64, 64
5, 78144, Note_on_c, 4, 59, 77
5, 78144, Note_on_c, 4, 66, 82
5, 78144, Note_on_c, 4, 63, 82
5, 78324, Note_off_c, 4, 59, 64
5, 78336, Note_off_c, 4, 63, 64
5, 78336, Note_off_c, 4, 66, 64
5, 90332, Note_on_c, 4, 52, 45
5, 90384, Note_on_c, 4, 55, 66
5, 90468, Note_on_c, 4, 59, 56
5, 90560, Note_on_c, 4, 64, 71
5, 93236, Note_off_c, 4, 64, 64
5, 93280, Note_off_c, 4, 55, 64
5, 93312, Note_off_c, 4, 52, 64
5, 93368, Note_off_c, 4, 59, 64
5, 93488, Note_on_c, 4, 51, 57
5, 93544, Note_on_c, 4, 54, 60
5, 93600, Note_on_c, 4, 59, 46
5, 93676, Note_on_c, 4, 63, 64
5, 96272, Note_off_c, 4, 54, 64
5, 96308, Note_off_c, 4, 51, 64
5, 96356, Note_off_c, 4, 63, 64
5, 96396, Note_off_c, 4, 59, 64
5, 96600, Note_on_c, 4, 52, 53
5, 96656, Note_on_c, 4, 55, 65
5, 96748, Note_on_c, 4, 59, 45
5, 96828, Note_on_c, 4, 64, 64
5, 99448, Note_off_c, 4, 64, 64
5, 99492, Note_off_c, 4, 55, 64
5, 99500, Note_off_c, 4, 52, 64
5, 99560, Note_off_c, 4, 59, 64
5, 99660, Note_on_c, 4, 51, 59
5, 99732, Note_on_c, 4, 54, 55
5, 99796, Note_on_c, 4, 59, 53
5, 99860, Note_on_c, 4, 63, 65
5, 102140, Note_off_c, 4, 51, 64
5, 102188, Note_off_c, 4, 54, 64
5, 102216, Note_off_c, 4, 63, 64
5, 102220, Note_off_c, 4, 59, 64
5, 114908, Note_on_c, 4, 52, 45
5, 114960, Note_on_c, 4, 55, 66
5, 115044, Note_on_c, 4, 59, 56
5, 115200, Note_off_c, 4, 59, 64
5, 115200, Note_off_c, 4, 55, 64
5, 115200, Note_off_c, 4, 52, 64
5, 115392, Note_on_c, 4, 55, 70
5, 115392, Note_on_c, 4, 59, 70
5, 115392, Note_on_c, 4, 64, 67
5, 115556, Note_off_c, 4, 55, 64
5, 115576, Note_off_c, 4, 59, 64
5, 115580, Note_off_c, 4, 64, 64
5, 115776, Note_on_c, 4, 64, 65
5, 115776, Note_on_c, 4, 55, 65
5, 115776, Note_on_c, 4, 59, 64
5, 115904, Note_off_c, 4, 55, 64
5, 115940, Note_off_c, 4, 59, 64
5, 115960, Note_off_c, 4, 64, 64
5, 116160, Note_on_c, 4, 64, 64
5, 116160, Note_on_c, 4, 55, 65
5, 116160, Note_on_c, 4, 59, 66
5, 116316, Note_off_c, 4, 55, 64
5, 116336, Note_off_c, 4, 59, 64
5, 116340, Note_off_c, 4, 64, 64
5, 116544, Note_on_c, 4, 64, 70
5, 116544, Note_on_c, 4, 55, 70
5, 116544, Note_on_c, 4, 59, 64
5, 116708, Note_off_c, 4, 55, 64
5, 116712, Note_off_c, 4, 59, 64
5, 116724, Note_off_c, 4, 64, 64
5, 116928, Note_on_c, 4, 64, 73
5, 116928, Note_on_c, 4, 55, 73
5, 116928, Note_on_c, 4, 59, 68
5, 117068, Note_off_c, 4, 55, 64
5, 117088, Note_off_c, 4, 59, 64
5, 117100, Note_off_c, 4, 64, 64
5, 117312, Note_on_c, 4, 55, 78
5, 117312, Note_on_c, 4, 64, 74
5, 117316, Note_on_c, 4, 59, 69
5, 117452, Note_off_c, 4, 55, 64
5, 117464, Note_off_c, 4, 59, 64
5, 117488, Note_off_c, 4, 64, 64
5, 117696, Note_on_c, 4, 64, 75
5, 117696, Note_on_c, 4, 55, 75
5, 117696, Note_on_c, 4, 59, 70
5, 117856, Note_off_c, 4, 55, 64
5, 117868, Note_off_c, 4, 59, 64
5, 117892, Note_off_c, 4, 64, 64
5, 118080, Note_on_c, 4, 55, 76
5, 118080, Note_on_c, 4, 64, 75
5, 118080, Note_on_c, 4, 59, 74
5, 118236, Note_off_c, 4, 59, 64
5, 118236, Note_off_c, 4, 55, 64
5, 118264, Note_off_c, 4, 64, 64
5, 118460, Note_on_c, 4, 63, 70
5, 118460, Note_on_c, 4, 66, 77
5, 118460, Note_on_c, 4, 59, 78
5, 118652, Note_off_c, 4, 59, 64
5, 118672, Note_off_c, 4, 66, 64
5, 118676, Note_off_c, 4, 63, 64
5, 118848, Note_on_c, 4, 66, 80
5, 118848, Note_on_c, 4, 59, 81
5, 118848, Note_on_c, 4, 63, 65
5, 119036, Note_off_c, 4, 59, 64
5, 119048, Note_off_c, 4, 63, 64
5, 119052, Note_off_c, 4, 66, 64
5, 119232, Note_on_c, 4, 66, 76
5, 119232, Note_on_c, 4, 59, 76
5, 119232, Note_on_c, 4, 63, 66
5, 119416, Note_off_c, 4, 59, 64
5, 119428, Note_off_c, 4, 63, 64
5, 119440, Note_off_c, 4, 66, 64
5, 119616, Note_on_c, 4, 66, 82
5, 119616, Note_on_c, 4, 59, 78
5, 119616, Note_on_c, 4, 63, 72
5, 119768, Note_off_c, 4, 59, 64
5, 119784, Note_off_c, 4, 63, 64
5, 119796, Note_off_c, 4, 66, 64
5, 119996, Note_on_c, 4, 66, 81
5, 120000, Note_on_c, 4, 63, 73
5, 120000, Note_on_c, 4, 59, 74
5, 120180, Note_off_c, 4, 59, 64
5, 120204, Note_off_c, 4, 63, 64
5, 120212, Note_off_c, 4, 66, 64
5, 120384, Note_on_c, 4, 59, 74
5, 120384, Note_on_c, 4, 63, 74
5, 120384, Note_on_c, 4, 66, 74
5, 120564, Note_off_c, 4, 66, 64
5, 120564, Note_off_c, 4, 63, 64
5, 120564, Note_off_c, 4, 59, 64
5, 120768, Note_on_c, 4, 67, 97
5, 120768, Note_on_c, 4, 64, 83
5, 120768, Note_on_c, 4, 59, 89
5, 120948, Note_off_c, 4, 67, 64
5, 120968, Note_off_c, 4, 59, 64
5, 120968, Note_off_c, 4, 64, 64
5, 121152, Note_on_c, 4, 59, 77
5, 121152, Note_on_c, 4, 66, 82
5, 121152, Note_on_c, 4, 63, 82
5, 121332, Note_off_c, 4, 59, 64
5, 121344, Note_off_c, 4, 63, 64
5, 121344, Note_off_c, 4, 66, 64
5, 121536, Note_on_c, 4, 55, 70
5, 121536, Note_on_c, 4, 59, 70
5, 121536, Note_on_c, 4, 64, 67
5, 121700, Note_off_c, 4, 55, 64
5, 121720, Note_off_c, 4, 59, 64
5, 121724, Note_off_c, 4, 64, 64
5, 121920, Note_on_c, 4, 64, 65
5, 121920, Note_on_c, 4, 55, 65
5, 121920, Note_on_c, 4, 59, 64
5, 122048, Note_off_c, 4, 55, 64
5, 122084, Note_off_c, 4, 59, 64
5, 122104, Note_off_c, 4, 64, 64
5, 122304, Note_on_c, 4, 64, 64
5, 122304, Note_on_c, 4, 55, 65
5, 122304, Note_on_c, 4, 59, 66
5, 122460, Note_off_c, 4, 55, 64
5, 122480, Note_off_c, 4, 59, 64
5, 122484, Note_off_c, 4, 64, 64
5, 122688, Note_on_c, 4, 64, 70
5, 122688, Note_on_c, 4, 55, 70
5, 122688, Note_on_c, 4, 59, 64
5, 122852, Note_off_c, 4, 55, 64
5, 122856, Note_off_c, 4, 59, 64
5, 122868, Note_off_c, 4, 64, 64
5, 123072, Note_on_c, 4, 64, 73
5, 123072, Note_on_c, 4, 55, 73
5, 123072, Note_on_c, 4, 59, 68
5, 123212, Note_off_c, 4, 55, 64
5, 123232, Note_off_c, 4, 59, 64
5, 123244, Note_off_c, 4, 64, 64
5, 123456, Note_on_c, 4, 55, 78
5, 123456, Note_on_c, 4, 64, 74
5, 123460, Note_on_c, 4, 59, 69
5, 123596, Note_off_c, 4, 55, 64
5, 123608, Note_off_c, 4, 59, 64
5, 123632, Note_off_c, 4, 64, 64
5, 123840, Note_on_c, 4, 64, 75
5, 123840, Note_on_c, 4, 55, 75
5, 123840, Note_on_c, 4, 59, 70
5, 124000, Note_off_c, 4, 55, 64
5, 124012, Note_off_c, 4, 59, 64
5, 124036, Note_off_c, 4, 64, 64
5, 124224, Note_on_c, 4, 55, 76
5, 124224, Note_on_c, 4, 64, 75
5, 124224, Note_on_c, 4, 59, 74
5, 124380, Note_off_c, 4, 59, 64
5, 124380, Note_off_c, 4, 55, 64
5, 124408, Note_off_c, 4, 64, 64
5, 124604, Note_on_c, 4, 63, 70
5, 124604, Note_on_c, 4, 66, 77
5, 124604, Note_on_c, 4, 59, 78
5, 124796, Note_off_c, 4, 59, 64
5, 124816, Note_off_c, 4, 66, 64
5, 124820, Note_off_c, 4, 63, 64
5, 124992, Note_on_c, 4, 66, 80
5, 124992, Note_on_c, 4, 59, 81
5, 124992, Note_on_c, 4, 63, 65
5, 125180, Note_off_c, 4, 59, 64
5, 125192, Note_off_c, 4, 63, 64
5, 125196, Note_off_c, 4, 66, 64
5, 125376, Note_on_c, 4, 66, 76
5, 125376, Note_on_c, 4, 59, 76
5, 125376, Note_on_c, 4, 63, 66
5, 125560, Note_off_c, 4, 59, 64
5, 125572, Note_off_c, 4, 63, 64
5, 125584, Note_off_c, 4, 66, 64
5, 125760, Note_on_c, 4, 66, 82
5, 125760, Note_on_c, 4, 59, 78
5, 125760, Note_on_c, 4, 63, 72
5, 125912, Note_off_c, 4, 59, 64
5, 125928, Note_off_c, 4, 63, 64
5, 125940, Note_off_c, 4, 66, 64
5, 126140, Note_on_c, 4, 66, 81
5, 126144, Note_on_c, 4, 63, 73
5, 126144, Note_on_c, 4, 59, 74
5, 126324, Note_off_c, 4, 59, 64
5, 126348, Note_off_c, 4, 63, 64
5, 126356, Note_off_c, 4, 66, 64
5, 126528, Note_on_c, 4, 59, 74
5, 126528, Note_on_c, 4, 63, 74
5, 126528, Note_on_c, 4, 66, 74
5, 126708, Note_off_c, 4, 66, 64
5, 126708, Note_off_c, 4, 63, 64
5, 126708, Note_off_c, 4, 59, 64
5, 126912, Note_on_c, 4, 67, 97
5, 126912, Note_on_c, 4, 64, 83
5, 126912, Note_on_c, 4, 59, 89
5, 127092, Note_off_c, 4, 67, 64
5, 127112, Note_off_c, 4, 59, 64
5, 127112, Note_off_c, 4, 64, 64
5, 127296, Note_on_c, 4, 59, 77
5, 127296, Note_on_c, 4, 66, 82
5, 127296, Note_on_c, 4, 63, 82
5, 127476, Note_off_c, 4, 59, 64
5, 127488, Note_off_c, 4, 63, 64
5, 127488, Note_off_c, 4, 66, 64
5, 139484, Note_on_c, 4, 52, 45
5, 139536, Note_on_c, 4, 55, 66
5, 139620, Note_on_c, 4, 59, 56
5, 139776, Note_off_c, 4, 59, 64
5, 139776, Note_off_c, 4, 55, 64
5, 139776, Note_off_c, 4, 52, 64
5, 139968, Note_on_c, 4, 55, 70
5, 139968, Note_on_c, 4, 59, 70
5, 139968, Note_on_c, 4, 64, 67
5, 140132, Note_off_c, 4, 55, 64
5, 140152, Note_off_c, 4, 59, 64
5, 140156, Note_off_c, 4, 64, 64
5, 140352, Note_on_c, 4, 64, 65
5, 140352, Note_on_c, 4, 55, 65
5, 140352, Note_on_c, 4, 59, 64
5, 140480, Note_off_c, 4, 55, 64
5, 140516, Note_off_c, 4, 59, 64
5, 140536, Note_off_c, 4, 64, 64
5, 140736, Note_on_c, 4, 64, 64
5, 140736, Note_on_c, 4, 55, 65
5, 140736, Note_on_c, 4, 59, 66
5, 140892, Note_off_c, 4, 55, 64
5, 140912, Note_off_c, 4, 59, 64
5, 140916, Note_off_c, 4, 64, 64
5, 141120, Note_on_c, 4, 64, 70
5, 141120, Note_on_c, 4, 55, 70
5, 141120, Note_on_c, 4, 59, 64
5, 141284, Note_off_c, 4, 55, 64
5, 141288, Note_off_c, 4, 59, 64
5, 141300, Note_off_c, 4, 64, 64
5, 141504, Note_on_c, 4, 64, 73
5, 141504, Note_on_c, 4, 55, 73
5, 141504, Note_on_c, 4, 59, 68
5, 141644, Note_off_c, 4, 55, 64
5, 141664, Note_off_c, 4, 59, 64
5, 141676, Note_off_c, 4, 64, 64
5, 141888, Note_on_c, 4, 55, 78
5, 141888, Note_on_c, 4, 64, 74
5, 141892, Note_on_c, 4, 59, 69
5, 142028, Note_off_c, 4, 55, 64
5, 142040, Note_off_c, 4, 59, 64
5, 142064, Note_off_c, 4, 64, 64
5, 142272, Note_on_c, 4, 64, 75
5, 142272, Note_on_c, 4, 55, 75
5, 142272, Note_on_c, 4, 59, 70
5, 142432, Note_off_c, 4, 55, 64
5, 142444, Note_off_c, 4, 59, 64
5, 142468, Note_off_c, 4, 64, 64
5, 142656, Note_on_c, 4, 55, 76
5, 142656, Note_on_c, 4, 64, 75
5, 142656, Note_on_c, 4, 59, 74
5, 142812, Note_off_c, 4, 59, 64
5, 142812, Note_off_c, 4, 55, 64
5, 142840, Note_off_c, 4, 64, 64
5, 143036, Note_on_c, 4, 63, 70
5, 143036, Note_on_c, 4, 66, 77
5, 143036, Note_on_c, 4, 59, 78
5, 143228, Note_off_c, 4, 59, 64
5, 143248, Note_off_c, 4, 66, 64
5, 143252, Note_off_c, 4, 63, 64
5, 143424, Note_on_c, 4, 66, 80
5, 143424, Note_on_c, 4, 59, 81
5, 143424, Note_on_c, 4, 63, 65
5, 143612, Note_off_c, 4, 59, 64
5, 143624, Note_off_c, 4, 63, 64
5, 143628, Note_off_c, 4, 66, 64
5, 143808, Note_on_c, 4, 66, 76
5, 143808, Note_on_c, 4, 59, 76
5, 143808, Note_on_c, 4, 63, 66
5, 143992, Note_off_c, 4, 59, 64
5, 144004, Note_off_c, 4, 63, 64
5, 144016, Note_off_c, 4, 66, 64
5, 144192, Note_on_c, 4, 66, 82
5, 144192, Note_on_c, 4, 59, 78
5, 144192, Note_on_c, 4, 63, 72
5, 144344, Note_off_c, 4, 59, 64
5, 144360, Note_off_c, 4, 63, 64
5, 144372, Note_off_c, 4, 66, 64
5, 144572, Note_on_c, 4, 66, 81
5, 144576, Note_on_c, 4, 63, 73
5, 144576, Note_on_c, 4, 59, 74
5, 144756, Note_off_c, 4, 59, 64
5, 144780, Note_off_c, 4, 63, 64
5, 144788, Note_off_c, 4, 66, 64
5, 144960, Note_on_c, 4, 59, 74
5, 144960, Note_on_c, 4, 63, 74
5, 144960, Note_on_c, 4, 66, 74
5, 145140, Note_off_c, 4, 66, 64
5, 145140, Note_off_c, 4, 63, 64
5, 145140, Note_off_c, 4, 59, 64
5, 145344, Note_on_c, 4, 67, 97
5, 145344, Note_on_c, 4, 64, 83
5, 145344, Note_on_c, 4, 59, 89
5, 145524, Note_off_c, 4, 67, 64
5, 145544, Note_off_c, 4, 59, 64
5, 145544, Note_off_c, 4, 64, 64
5, 145728, Note_on_c, 4, 59, 77
5, 145728, Note_on_c, 4, 66, 82
5, 145728, Note_on_c, 4, 63, 82
5, 145908, Note_off_c, 4, 59, 64
5, 145920, Note_off_c, 4, 63, 64
5, 145920, Note_off_c, 4, 66, 64
5, 164352, Control_c, 4, 11, 126
5, 164496, Control_c, 4, 11, 125
5, 164592, Control_c, 4, 11, 124
5, 164688, Control_c, 4, 11, 123
5, 164784, Control_c, 4, 11, 122
5, 164880, Control_c, 4, 11, 121
5, 164976, Control_c, 4, 11, 120
5, 165072, Control_c, 4, 11, 119
5, 165168, Control_c, 4, 11, 118
5, 165264, Control_c, 4, 11, 117
5, 165360, Control_c, 4, 11, 116
5, 165456, Control_c, 4, 11, 115
5, 165552, Control_c, 4, 11, 114
5, 165648, Control_c, 4, 11, 113
5, 165744, Control_c, 4, 11, 112
5, 165840, Control_c, 4, 11, 111
5, 165936, Control_c, 4, 11, 110
5, 166032, Control_c, 4, 11, 109
5, 166128, Control_c, 4, 11, 108
5, 166224, Control_c, 4, 11, 107
5, 166320, Control_c, 4, 11, 106
5, 166416, Control_c, 4, 11, 105
5, 166512, Control_c, 4, 11, 104
5, 166608, Control_c, 4, 11, 103
5, 166704, Control_c, 4, 11, 102
5, 166800, Control_c, 4, 11, 101
5, 166896, Control_c, 4, 11, 100
5, 166992, Control_c, 4, 11, 99
5, 167088, Control_c, 4, 11, 98
5, 167184, Control_c, 4, 11, 97
5, 167280, Control_c, 4, 11, 96
5, 167376, Control_c, 4, 11, 95
5, 167472, Control_c, 4, 11, 94
5, 167568, Control_c, 4, 11, 93
5, 167664, Control_c, 4, 11, 92
5, 167760, Control_c, 4, 11, 91
5, 167856, Control_c, 4, 11, 90
5, 167952, Control_c, 4, 11, 89
5, 168048, Control_c, 4, 11, 88
5, 168144, Control_c, 4, 11, 87
5, 168240, Control_c, 4, 11, 86
5, 168336, Control_c, 4, 11, 85
5, 168432, Control_c, 4, 11, 84
5, 168528, Control_c, 4, 11, 83
5, 168624, Control_c, 4, 11, 82
5, 168720, Control_c, 4, 11, 81
5, 168816, Control_c, 4, 11, 80
5, 168912, Control_c, 4, 11, 79
5, 169008, Control_c, 4, 11, 78
5, 169104, Control_c, 4, 11, 77
5, 169200, Control_c, 4, 11, 76
5, 169296, Control_c, 4, 11, 75
5, 169392, Control_c, 4, 11, 74
5, 169488, Control_c, 4, 11, 73
5, 169584, Control_c, 4, 11, 72
5, 169680, Control_c, 4, 11, 71
5, 169776, Control_c, 4, 11, 70
5, 169872, Control_c, 4, 11, 69
5, 169968, Control_c, 4, 11, 68
5, 170064, Control_c, 4, 11, 67
5, 170160, Control_c, 4, 11, 66
5, 170256, Control_c, 4, 11, 65
5, 170352, Control_c, 4, 11, 64
5, 170448, Control_c, 4, 11, 63
5, 170544, Control_c, 4, 11, 62
5, 170688, Control_c, 4, 11, 61
5, 170784, Control_c, 4, 11, 60
5, 170880, Control_c, 4, 11, 59
5, 170976, Control_c, 4, 11, 58
5, 171072, Control_c, 4, 11, 57
5, 171168, Control_c, 4, 11, 56
5, 171264, Control_c, 4, 11, 55
5, 171360, Control_c, 4, 11, 54
5, 171456, Control_c, 4, 11, 53
5, 171552, Control_c, 4, 11, 52
5, 171648, Control_c, 4, 11, 51
5, 171744, Control_c, 4, 11, 50
5, 171840, Control_c, 4, 11, 49
5, 171936, Control_c, 4, 11, 48
5, 172032, Control_c, 4, 11, 47
5, 172128, Control_c, 4, 11, 46
5, 172224, Control_c, 4, 11, 45
5, 172320, Control_c, 4, 11, 44
5, 172416, Control_c, 4, 11, 43
5, 172512, Control_c, 4, 11, 42
5, 172608, Control_c, 4, 11, 41
5, 172704, Control_c, 4, 11, 40
5, 172800, Control_c, 4, 11, 39
5, 172896, Control_c, 4, 11, 38
5, 172992, Control_c, 4, 11, 37
5, 173088, Control_c, 4, 11, 36
5, 173184, Control_c, 4, 11, 35
5, 173280, Control_c, 4, 11, 34
5, 173376, Control_c, 4, 11, 33
5, 173472, Control_c, 4, 11, 32
5, 173568, Control_c, 4, 11, 31
5, 173664, Control_c, 4, 11, 30
5, 173760, Control_c, 4, 11, 29
5, 173856, Control_c, 4, 11, 28
5, 173952, Control_c, 4, 11, 27
5, 174048, Control_c, 4, 11, 26
5, 174144, Control_c, 4, 11, 25
5, 174240, Control_c, 4, 11, 24
5, 174336, Control_c, 4, 11, 23
5, 174432, Control_c, 4, 11, 22
5, 174528, Control_c, 4, 11, 21
5, 174624, Control_c, 4, 11, 20
5, 174720, Control_c, 4, 11, 19
5, 174816, Control_c, 4, 11, 18
5, 174912, Control_c, 4, 11, 17
5, 175008, Control_c, 4, 11, 16
5, 175104, Control_c, 4, 11, 15
5, 175200, Control_c, 4, 11, 14
5, 175296, Control_c, 4, 11, 13
5, 175392, Control_c, 4, 11, 12
5, 175488, Control_c, 4, 11, 11
5, 175584, Control_c, 4, 11, 10
5, 175680, Control_c, 4, 11, 9
5, 175776, Control_c, 4, 11, 8
5, 175872, Control_c, 4, 11, 7
5, 175968, Control_c, 4, 11, 6
5, 176064, Control_c, 4, 11, 5
5, 176160, Control_c, 4, 11, 4
5, 176256, Control_c, 4, 11, 3
5, 176352, Control_c, 4, 11, 2
5, 176448, Control_c, 4, 11, 1
5, 176544, Control_c, 4, 11, 0
5, 176640, End_track
6, 0, Start_track
6, 0, Title_t, "MIDI"
6, 0, Control_c, 5, 7, 112
6, 0, Program_c, 5, 25
6, 492, Program_c, 5, 25
6, 496, Control_c, 5, 7, 112
6, 496, Control_c, 5, 10, 89
6, 496, Control_c, 5, 11, 127
6, 500, Control_c, 5, 91, 60
6, 500, Control_c, 5, 93, 0
6, 16896, Control_c, 5, 64, 127
6, 17232, Control_c, 5, 64, 0
6, 17280, Control_c, 5, 64, 127
6, 17280, Note_on_c, 5, 64, 68
6, 17288, Note_off_c, 5, 64, 64
6, 17616, Control_c, 5, 64, 0
6, 17664, Control_c, 5, 64, 127
6, 17664, Note_on_c, 5, 66, 70
6, 17672, Note_off_c, 5, 66, 64
6, 18000, Control_c, 5, 64, 0
6, 18048, Control_c, 5, 64, 127
6, 18048, Note_on_c, 5, 67, 73
6, 18056, Note_off_c, 5, 67, 64
6, 18384, Control_c, 5, 64, 0
6, 18432, Control_c, 5, 64, 127
6, 18432, Note_on_c, 5, 69, 71
6, 18440, Note_off_c, 5, 69, 64
6, 18768, Control_c, 5, 64, 0
6, 18816, Control_c, 5, 64, 127
6, 18816, Note_on_c, 5, 67, 70
6, 18824, Note_off_c, 5, 67, 64
6, 19152, Control_c, 5, 64, 0
6, 19200, Control_c, 5, 64, 127
6, 19200, Note_on_c, 5, 66, 61
6, 19208, Note_off_c, 5, 66, 64
6, 19536, Control_c, 5, 64, 0
6, 19584, Control_c, 5, 64, 127
6, 19584, Note_on_c, 5, 64, 63
6, 19592, Note_off_c, 5, 64, 64
6, 19920, Control_c, 5, 64, 0
6, 19968, Control_c, 5, 64, 127
6, 19968, Note_on_c, 5, 64, 76
6, 19976, Note_off_c, 5, 64, 64
6, 20304, Control_c, 5, 64, 0
6, 20352, Control_c, 5, 64, 127
6, 20352, Note_on_c, 5, 63, 64
6, 20360, Note_off_c, 5, 63, 64
6, 20688, Control_c, 5, 64, 0
6, 20736, Control_c, 5, 64, 127
6, 20736, Note_on_c, 5, 64, 65
6, 20744, Note_off_c, 5, 64, 64
6, 21072, Control_c, 5, 64, 0
6, 21120, Control_c, 5, 64, 127
6, 21120, Note_on_c, 5, 66, 60
6, 21128, Note_off_c, 5, 66, 64
6, 21456, Control_c, 5, 64, 0
6, 21504, Control_c, 5, 64, 127
6, 21504, Note_on_c, 5, 64, 68
6, 21512, Note_off_c, 5, 64, 64
6, 21840, Control_c, 5, 64, 0
6, 21888, Control_c, 5, 64, 127
6, 21888, Note_on_c, 5, 63, 60
6, 21896, Note_off_c, 5, 63, 64
6, 22224, Control_c, 5, 64, 0
6, 22272, Control_c, 5, 64, 127
6, 22272, Note_on_c, 5, 61, 59
6, 22280, Note_off_c, 5, 61, 64
6, 22368, Control_c, 5, 64, 0
6, 22400, Control_c, 5, 64, 127
6, 22400, Note_on_c, 5, 63, 58
6, 22408, Note_off_c, 5, 63, 64
6, 22992, Control_c, 5, 64, 0
6, 23040, Control_c, 5, 64, 127
6, 23376, Control_c, 5, 64, 0
6, 23424, Control_c, 5, 64, 127
6, 23424, Note_on_c, 5, 64, 68
6, 23432, Note_off_c, 5, 64, 64
6, 23760, Control_c, 5, 64, 0
6, 23808, Control_c, 5, 64, 127
6, 23808, Note_on_c, 5, 66, 70
6, 23816, Note_off_c, 5, 66, 64
6, 24144, Control_c, 5, 64, 0
6, 24192, Control_c, 5, 64, 127
6, 24192, Note_on_c, 5, 67, 73
6, 24200, Note_off_c, 5, 67, 64
6, 24528, Control_c, 5, 64, 0
6, 24576, Control_c, 5, 64, 127
6, 24576, Note_on_c, 5, 69, 71
6, 24584, Note_off_c, 5, 69, 64
6, 24912, Control_c, 5, 64, 0
6, 24960, Control_c, 5, 64, 127
6, 24960, Note_on_c, 5, 67, 70
6, 24968, Note_off_c, 5, 67, 64
6, 25296, Control_c, 5, 64, 0
6, 25344, Control_c, 5, 64, 127
6, 25344, Note_on_c, 5, 66, 61
6, 25352, Note_off_c, 5, 66, 64
6, 25680, Control_c, 5, 64, 0
6, 25728, Control_c, 5, 64, 127
6, 25728, Note_on_c, 5, 64, 63
6, 25736, Note_off_c, 5, 64, 64
6, 26064, Control_c, 5, 64, 0
6, 26112, Control_c, 5, 64, 127
6, 26112, Note_on_c, 5, 64, 76
6, 26120, Note_off_c, 5, 64, 64
6, 26448, Control_c, 5, 64, 0
6, 26496, Control_c, 5, 64, 127
6, 26496, Note_on_c, 5, 63, 64
6, 26504, Note_off_c, 5, 63, 64
6, 26832, Control_c, 5, 64, 0
6, 26880, Control_c, 5, 64, 127
6, 26880, Note_on_c, 5, 64, 65
6, 26888, Note_off_c, 5, 64, 64
6, 27216, Control_c, 5, 64, 0
6, 27264, Control_c, 5, 64, 127
6, 27264, Note_on_c, 5, 66, 60
6, 27272, Note_off_c, 5, 66, 64
6, 27600, Control_c, 5, 64, 0
6, 27648, Control_c, 5, 64, 127
6, 27648, Note_on_c, 5, 64, 68
6, 27656, Note_off_c, 5, 64, 64
6, 27984, Control_c, 5, 64, 0
6, 28032, Control_c, 5, 64, 127
6, 28032, Note_on_c, 5, 63, 60
6, 28040, Note_off_c, 5, 63, 64
6, 28368, Control_c, 5, 64, 0
6, 28416, Control_c, 5, 64, 127
6, 28416, Note_on_c, 5, 61, 59
6, 28424, Note_off_c, 5, 61, 64
6, 28512, Control_c, 5, 64, 0
6, 28544, Control_c, 5, 64, 127
6, 28544, Note_on_c, 5, 63, 58
6, 28552, Note_off_c, 5, 63, 64
6, 29136, Control_c, 5, 64, 0
6, 41472, Control_c, 5, 64, 127
6, 41808, Control_c, 5, 64, 0
6, 41856, Control_c, 5, 64, 127
6, 41856, Note_on_c, 5, 64, 68
6, 41864, Note_off_c, 5, 64, 64
6, 42192, Control_c, 5, 64, 0
6, 42240, Control_c, 5, 64, 127
6, 42240, Note_on_c, 5, 66, 70
6, 42248, Note_off_c, 5, 66, 64
6, 42576, Control_c, 5, 64, 0
6, 42624, Control_c, 5, 64, 127
6, 42624, Note_on_c, 5, 67, 73
6, 42632, Note_off_c, 5, 67, 64
6, 42960, Control_c, 5, 64, 0
6, 43008, Control_c, 5, 64, 127
6, 43008, Note_on_c, 5, 69, 71
6, 43016, Note_off_c, 5, 69, 64
6, 43344, Control_c, 5, 64, 0
6, 43392, Control_c, 5, 64, 127
6, 43392, Note_on_c, 5, 67, 70
6, 43400, Note_off_c, 5, 67, 64
6, 43728, Control_c, 5, 64, 0
6, 43776, Control_c, 5, 64, 127
6, 43776, Note_on_c, 5, 66, 61
6, 43784, Note_off_c, 5, 66, 64
6, 44112, Control_c, 5, 64, 0
6, 44160, Control_c, 5, 64, 127
6, 44160, Note_on_c, 5, 64, 63
6, 44168, Note_off_c, 5, 64, 64
6, 44496, Control_c, 5, 64, 0
6, 44544, Control_c, 5, 64, 127
6, 44544, Note_on_c, 5, 64, 76
6, 44552, Note_off_c, 5, 64, 64
6, 44880, Control_c, 5, 64, 0
6, 44928, Control_c, 5, 64, 127
6, 44928, Note_on_c, 5, 63, 64
6, 44936, Note_off_c, 5, 63, 64
6, 45264, Control_c, 5, 64, 0
6, 45312, Control_c, 5, 64, 127
6, 45312, Note_on_c, 5, 64, 65
6, 45320, Note_off_c, 5, 64, 64
6, 45648, Control_c, 5, 64, 0
6, 45696, Control_c, 5, 64, 127
6, 45696, Note_on_c, 5, 66, 60
6, 45704, Note_off_c, 5, 66, 64
6, 46032, Control_c, 5, 64, 0
6, 46080, Control_c, 5, 64, 127
6, 46080, Note_on_c, 5, 64, 68
6, 46088, Note_off_c, 5, 64, 64
6, 46416, Control_c, 5, 64, 0
6, 46464, Control_c, 5, 64, 127
6, 46464, Note_on_c, 5, 63, 60
6, 46472, Note_off_c, 5, 63, 64
6, 46800, Control_c, 5, 64, 0
6, 46848, Control_c, 5, 64, 127
6, 46848, Note_on_c, 5, 61, 59
6, 46856, Note_off_c, 5, 61, 64
6, 46944, Control_c, 5, 64, 0
6, 46976, Control_c, 5, 64, 127
6, 46976, Note_on_c, 5, 63, 58
6, 46984, Note_off_c, 5, 63, 64
6, 47568, Control_c, 5, 64, 0
6, 47616, Control_c, 5, 64, 127
6, 47952, Control_c, 5, 64, 0
6, 48000, Control_c, 5, 64, 127
6, 48000, Note_on_c, 5, 64, 68
6, 48008, Note_off_c, 5, 64, 64
6, 48336, Control_c, 5, 64, 0
6, 48384, Control_c, 5, 64, 127
6, 48384, Note_on_c, 5, 66, 70
6, 48392, Note_off_c, 5, 66, 64
6, 48720, Control_c, 5, 64, 0
6, 48768, Control_c, 5, 64, 127
6, 48768, Note_on_c, 5, 67, 73
6, 48776, Note_off_c, 5, 67, 64
6, 49104, Control_c, 5, 64, 0
6, 49152, Control_c, 5, 64, 127
6, 49152, Note_on_c, 5, 69, 71
6, 49160, Note_off_c, 5, 69, 64
6, 49488, Control_c, 5, 64, 0
6, 49536, Control_c, 5, 64, 127
6, 49536, Note_on_c, 5, 67, 70
6, 49544, Note_off_c, 5, 67, 64
6, 49872, Control_c, 5, 64, 0
6, 49920, Control_c, 5, 64, 127
6, 49920, Note_on_c, 5, 66, 61
6, 49928, Note_off_c, 5, 66, 64
6, 50256, Control_c, 5, 64, 0
6, 50304, Control_c, 5, 64, 127
6, 50304, Note_on_c, 5, 64, 63
6, 50312, Note_off_c, 5, 64, 64
6, 50640, Control_c, 5, 64, 0
6, 50688, Control_c, 5, 64, 127
6, 50688, Note_on_c, 5, 64, 76
6, 50696, Note_off_c, 5, 64, 64
6, 51024, Control_c, 5, 64, 0
6, 51072, Control_c, 5, 64, 127
6, 51072, Note_on_c, 5, 63, 64
6, 51080, Note_off_c, 5, 63, 64
6, 51408, Control_c, 5, 64, 0
6, 51456, Control_c, 5, 64, 127
6, 51456, Note_on_c, 5, 64, 65
6, 51464, Note_off_c, 5, 64, 64
6, 51792, Control_c, 5, 64, 0
6, 51840, Control_c, 5, 64, 127
6, 51840, Note_on_c, 5, 66, 60
6, 51848, Note_off_c, 5, 66, 64
6, 52176, Control_c, 5, 64, 0
6, 52224, Control_c, 5, 64, 127
6, 52224, Note_on_c, 5, 64, 68
6, 52232, Note_off_c, 5, 64, 64
6, 52560, Control_c, 5, 64, 0
6, 52608, Control_c, 5, 64, 127
6, 52608, Note_on_c, 5, 63, 60
6, 52616, Note_off_c, 5, 63, 64
6, 52944, Control_c, 5, 64, 0
6, 52992, Control_c, 5, 64, 127
6, 52992, Note_on_c, 5, 61, 59
6, 53000, Note_off_c, 5, 61, 64
6, 53088, Control_c, 5, 64, 0
6, 53120, Control_c, 5, 64, 127
6, 53120, Note_on_c, 5, 63, 58
6, 53128, Note_off_c, 5, 63, 64
6, 53712, Control_c, 5, 64, 0
6, 66048, Control_c, 5, 64, 127
6, 66384, Control_c, 5, 64, 0
6, 66432, Control_c, 5, 64, 127
6, 66432, Note_on_c, 5, 64, 68
6, 66440, Note_off_c, 5, 64, 64
6, 66768, Control_c, 5, 64, 0
6, 66816, Control_c, 5, 64, 127
6, 66816, Note_on_c, 5, 66, 70
6, 66824, Note_off_c, 5, 66, 64
6, 67152, Control_c, 5, 64, 0
6, 67200, Control_c, 5, 64, 127
6, 67200, Note_on_c, 5, 67, 73
6, 67208, Note_off_c, 5, 67, 64
6, 67536, Control_c, 5, 64, 0
6, 67584, Control_c, 5, 64, 127
6, 67584, Note_on_c, 5, 69, 71
6, 67592, Note_off_c, 5, 69, 64
6, 67920, Control_c, 5, 64, 0
6, 67968, Control_c, 5, 64, 127
6, 67968, Note_on_c, 5, 67, 70
6, 67976, Note_off_c, 5, 67, 64
6, 68304, Control_c, 5, 64, 0
6, 68352, Control_c, 5, 64, 127
6, 68352, Note_on_c, 5, 66, 61
6, 68360, Note_off_c, 5, 66, 64
6, 68688, Control_c, 5, 64, 0
6, 68736, Control_c, 5, 64, 127
6, 68736, Note_on_c, 5, 64, 63
6, 68744, Note_off_c, 5, 64, 64
6, 69072, Control_c, 5, 64, 0
6, 69120, Control_c, 5, 64, 127
6, 69120, Note_on_c, 5, 64, 76
6, 69128, Note_off_c, 5, 64, 64
6, 69456, Control_c, 5, 64, 0
6, 69504, Control_c, 5, 64, 127
6, 69504, Note_on_c, 5, 63, 64
6, 69512, Note_off_c, 5, 63, 64
6, 69840, Control_c, 5, 64, 0
6, 69888, Control_c, 5, 64, 127
6, 69888, Note_on_c, 5, 64, 65
6, 69896, Note_off_c, 5, 64, 64
6, 70224, Control_c, 5, 64, 0
6, 70272, Control_c, 5, 64, 127
6, 70272, Note_on_c, 5, 66, 60
6, 70280, Note_off_c, 5, 66, 64
6, 70608, Control_c, 5, 64, 0
6, 70656, Control_c, 5, 64, 127
6, 70656, Note_on_c, 5, 64, 68
6, 70664, Note_off_c, 5, 64, 64
6, 70992, Control_c, 5, 64, 0
6, 71040, Control_c, 5, 64, 127
6, 71040, Note_on_c, 5, 63, 60
6, 71048, Note_off_c, 5, 63, 64
6, 71376, Control_c, 5, 64, 0
6, 71424, Control_c, 5, 64, 127
6, 71424, Note_on_c, 5, 61, 59
6, 71432, Note_off_c, 5, 61, 64
6, 71520, Control_c, 5, 64, 0
6, 71552, Control_c, 5, 64, 127
6, 71552, Note_on_c, 5, 63, 58
6, 71560, Note_off_c, 5, 63, 64
6, 72144, Control_c, 5, 64, 0
6, 72192, Control_c, 5, 64, 127
6, 72528, Control_c, 5, 64, 0
6, 72576, Control_c, 5, 64, 127
6, 72576, Note_on_c, 5, 64, 68
6, 72584, Note_off_c, 5, 64, 64
6, 72912, Control_c, 5, 64, 0
6, 72960, Control_c, 5, 64, 127
6, 72960, Note_on_c, 5, 66, 70
6, 72968, Note_off_c, 5, 66, 64
6, 73296, Control_c, 5, 64, 0
6, 73344, Control_c, 5, 64, 127
6, 73344, Note_on_c, 5, 67, 73
6, 73352, Note_off_c, 5, 67, 64
6, 73680, Control_c, 5, 64, 0
6, 73728, Control_c, 5, 64, 127
6, 73728, Note_on_c, 5, 69, 71
6, 73736, Note_off_c, 5, 69, 64
6, 74064, Control_c, 5, 64, 0
6, 74112, Control_c, 5, 64, 127
6, 74112, Note_on_c, 5, 67, 70
6, 74120, Note_off_c, 5, 67, 64
6, 74448, Control_c, 5, 64, 0
6, 74496, Control_c, 5, 64, 127
6, 74496, Note_on_c, 5, 66, 61
6, 74504, Note_off_c, 5, 66, 64
6, 74832, Control_c, 5, 64, 0
6, 74880, Control_c, 5, 64, 127
6, 74880, Note_on_c, 5, 64, 63
6, 74888, Note_off_c, 5, 64, 64
6, 75216, Control_c, 5, 64, 0
6, 75264, Control_c, 5, 64, 127
6, 75264, Note_on_c, 5, 64, 76
6, 75272, Note_off_c, 5, 64, 64
6, 75600, Control_c, 5, 64, 0
6, 75648, Control_c, 5, 64, 127
6, 75648, Note_on_c, 5, 63, 64
6, 75656, Note_off_c, 5, 63, 64
6, 75984, Control_c, 5, 64, 0
6, 76032, Control_c, 5, 64, 127
6, 76032, Note_on_c, 5, 64, 65
6, 76040, Note_off_c, 5, 64, 64
6, 76368, Control_c, 5, 64, 0
6, 76416, Control_c, 5, 64, 127
6, 76416, Note_on_c, 5, 66, 60
6, 76424, Note_off_c, 5, 66, 64
6, 76752, Control_c, 5, 64, 0
6, 76800, Control_c, 5, 64, 127
6, 76800, Note_on_c, 5, 64, 68
6, 76808, Note_off_c, 5, 64, 64
6, 77136, Control_c, 5, 64, 0
6, 77184, Control_c, 5, 64, 127
6, 77184, Note_on_c, 5, 63, 60
6, 77192, Note_off_c, 5, 63, 64
6, 77520, Control_c, 5, 64, 0
6, 77568, Control_c, 5, 64, 127
6, 77568, Note_on_c, 5, 61, 59
6, 77576, Note_off_c, 5, 61, 64
6, 77664, Control_c, 5, 64, 0
6, 77696, Control_c, 5, 64, 127
6, 77696, Note_on_c, 5, 63, 58
6, 77704, Note_off_c, 5, 63, 64
6, 78288, Control_c, 5, 64, 0
6, 90624, Control_c, 5, 64, 127
6, 90960, Control_c, 5, 64, 0
6, 91008, Control_c, 5, 64, 127
6, 91008, Note_on_c, 5, 64, 68
6, 91016, Note_off_c, 5, 64, 64
6, 91344, Control_c, 5, 64, 0
6, 91392, Control_c, 5, 64, 127
6, 91392, Note_on_c, 5, 66, 70
6, 91400, Note_off_c, 5, 66, 64
6, 91728, Control_c, 5, 64, 0
6, 91776, Control_c, 5, 64, 127
6, 91776, Note_on_c, 5, 67, 73
6, 91784, Note_off_c, 5, 67, 64
6, 92112, Control_c, 5, 64, 0
6, 92160, Control_c, 5, 64, 127
6, 92160, Note_on_c, 5, 69, 71
6, 92168, Note_off_c, 5, 69, 64
6, 92496, Control_c, 5, 64, 0
6, 92544, Control_c, 5, 64, 127
6, 92544, Note_on_c, 5, 67, 70
6, 92552, Note_off_c, 5, 67, 64
6, 92880, Control_c, 5, 64, 0
6, 92928, Control_c, 5, 64, 127
6, 92928, Note_on_c, 5, 66, 61
6, 92936, Note_off_c, 5, 66, 64
6, 93264, Control_c, 5, 64, 0
6, 93312, Control_c, 5, 64, 127
6, 93312, Note_on_c, 5, 64, 63
6, 93320, Note_off_c, 5, 64, 64
6, 93648, Control_c, 5, 64, 0
6, 93696, Control_c, 5, 64, 127
6, 93696, Note_on_c, 5, 64, 76
6, 93704, Note_off_c, 5, 64, 64
6, 94032, Control_c, 5, 64, 0
6, 94080, Control_c, 5, 64, 127
6, 94080, Note_on_c, 5, 63, 64
6, 94088, Note_off_c, 5, 63, 64
6, 94416, Control_c, 5, 64, 0
6, 94464, Control_c, 5, 64, 127
6, 94464, Note_on_c, 5, 64, 65
6, 94472, Note_off_c, 5, 64, 64
6, 94800, Control_c, 5, 64, 0
6, 94848, Control_c, 5, 64, 127
6, 94848, Note_on_c, 5, 66, 60
6, 94856, Note_off_c, 5, 66, 64
6, 95184, Control_c, 5, 64, 0
6, 95232, Control_c, 5, 64, 127
6, 95232, Note_on_c, 5, 64, 68
6, 95240, Note_off_c, 5, 64, 64
6, 95568, Control_c, 5, 64, 0
6, 95616, Control_c, 5, 64, 127
6, 95616, Note_on_c, 5, 63, 60
6, 95624, Note_off_c, 5, 63, 64
6, 95952, Control_c, 5, 64, 0
6, 96000, Control_c, 5, 64, 127
6, 96000, Note_on_c, 5, 61, 59
6, 96008, Note_off_c, 5, 61, 64
6, 96096, Control_c, 5, 64, 0
6, 96128, Control_c, 5, 64, 127
6, 96128, Note_on_c, 5, 63, 58
6, 96136, Note_off_c, 5, 63, 64
6, 96720, Control_c, 5, 64, 0
6, 96768, Control_c, 5, 64, 127
6, 97104, Control_c, 5, 64, 0
6, 97152, Control_c, 5, 64, 127
6, 97152, Note_on_c, 5, 64, 68
6, 97160, Note_off_c, 5, 64, 64
6, 97488, Control_c, 5, 64, 0
6, 97536, Control_c, 5, 64, 127
6, 97536, Note_on_c, 5, 66, 70
6, 97544, Note_off_c, 5, 66, 64
6, 97872, Control_c, 5, 64, 0
6, 97920, Control_c, 5, 64, 127
6, 97920, Note_on_c, 5, 67, 73
6, 97928, Note_off_c, 5, 67, 64
6, 98256, Control_c, 5, 64, 0
6, 98304, Control_c, 5, 64, 127
6, 98304, Note_on_c, 5, 69, 71
6, 98312, Note_off_c, 5, 69, 64
6, 98640, Control_c, 5, 64, 0
6, 98688, Control_c, 5, 64, 127
6, 98688, Note_on_c, 5, 67, 70
6, 98696, Note_off_c, 5, 67, 64
6, 99024, Control_c, 5, 64, 0
6, 99072, Control_c, 5, 64, 127
6, 99072, Note_on_c, 5, 66, 61
6, 99080, Note_off_c, 5, 66, 64
6, 99408, Control_c, 5, 64, 0
6, 99456, Control_c, 5, 64, 127
6, 99456, Note_on_c, 5, 64, 63
6, 99464, Note_off_c, 5, 64, 64
6, 99792, Control_c, 5, 64, 0
6, 99840, Control_c, 5, 64, 127
6, 99840, Note_on_c, 5, 64, 76
6, 99848, Note_off_c, 5, 64, 64
6, 100176, Control_c, 5, 64, 0
6, 100224, Control_c, 5, 64, 127
6, 100224, Note_on_c, 5, 63, 64
6, 100232, Note_off_c, 5, 63, 64
6, 100560, Control_c, 5, 64, 0
6, 100608, Control_c, 5, 64, 127
6, 100608, Note_on_c, 5, 64, 65
6, 100616, Note_off_c, 5, 64, 64
6, 100944, Control_c, 5, 64, 0
6, 100992, Control_c, 5, 64, 127
6, 100992, Note_on_c, 5, 66, 60
6, 101000, Note_off_c, 5, 66, 64
6, 101328, Control_c, 5, 64, 0
6, 101376, Control_c, 5, 64, 127
6, 101376, Note_on_c, 5, 64, 68
6, 101384, Note_off_c, 5, 64, 64
6, 101712, Control_c, 5, 64, 0
6, 101760, Control_c, 5, 64, 127
6, 101760, Note_on_c, 5, 63, 60
6, 101768, Note_off_c, 5, 63, 64
6, 102096, Control_c, 5, 64, 0
6, 102144, Control_c, 5, 64, 127
6, 102144, Note_on_c, 5, 61, 59
6, 102152, Note_off_c, 5, 61, 64
6, 102240, Control_c, 5, 64, 0
6, 102272, Control_c, 5, 64, 127
6, 102272, Note_on_c, 5, 63, 58
6, 102280, Note_off_c, 5, 63, 64
6, 102864, Control_c, 5, 64, 0
6, 115200, Control_c, 5, 64, 127
6, 115536, Control_c, 5, 64, 0
6, 115584, Control_c, 5, 64, 127
6, 115584, Note_on_c, 5, 64, 68
6, 115592, Note_off_c, 5, 64, 64
6, 115920, Control_c, 5, 64, 0
6, 115968, Control_c, 5, 64, 127
6, 115968, Note_on_c, 5, 66, 70
6, 115976, Note_off_c, 5, 66, 64
6, 116304, Control_c, 5, 64, 0
6, 116352, Control_c, 5, 64, 127
6, 116352, Note_on_c, 5, 67, 73
6, 116360, Note_off_c, 5, 67, 64
6, 116688, Control_c, 5, 64, 0
6, 116736, Control_c, 5, 64, 127
6, 116736, Note_on_c, 5, 69, 71
6, 116744, Note_off_c, 5, 69, 64
6, 117072, Control_c, 5, 64, 0
6, 117120, Control_c, 5, 64, 127
6, 117120, Note_on_c, 5, 67, 70
6, 117128, Note_off_c, 5, 67, 64
6, 117456, Control_c, 5, 64, 0
6, 117504, Control_c, 5, 64, 127
6, 117504, Note_on_c, 5, 66, 61
6, 117512, Note_off_c, 5, 66, 64
6, 117840, Control_c, 5, 64, 0
6, 117888, Control_c, 5, 64, 127
6, 117888, Note_on_c, 5, 64, 63
6, 117896, Note_off_c, 5, 64, 64
6, 118224, Control_c, 5, 64, 0
6, 118272, Control_c, 5, 64, 127
6, 118272, Note_on_c, 5, 64, 76
6, 118280, Note_off_c, 5, 64, 64
6, 118608, Control_c, 5, 64, 0
6, 118656, Control_c, 5, 64, 127
6, 118656, Note_on_c, 5, 63, 64
6, 118664, Note_off_c, 5, 63, 64
6, 118992, Control_c, 5, 64, 0
6, 119040, Control_c, 5, 64, 127
6, 119040, Note_on_c, 5, 64, 65
6, 119048, Note_off_c, 5, 64, 64
6, 119376, Control_c, 5, 64, 0
6, 119424, Control_c, 5, 64, 127
6, 119424, Note_on_c, 5, 66, 60
6, 119432, Note_off_c, 5, 66, 64
6, 119760, Control_c, 5, 64, 0
6, 119808, Control_c, 5, 64, 127
6, 119808, Note_on_c, 5, 64, 68
6, 119816, Note_off_c, 5, 64, 64
6, 120144, Control_c, 5, 64, 0
6, 120192, Control_c, 5, 64, 127
6, 120192, Note_on_c, 5, 63, 60
6, 120200, Note_off_c, 5, 63, 64
6, 120528, Control_c, 5, 64, 0
6, 120576, Control_c, 5, 64, 127
6, 120576, Note_on_c, 5, 61, 59
6, 120584, Note_off_c, 5, 61, 64
6, 120672, Control_c, 5, 64, 0
6, 120704, Control_c, 5, 64, 127
6, 120704, Note_on_c, 5, 63, 58
6, 120712, Note_off_c, 5, 63, 64
6, 121296, Control_c, 5, 64, 0
6, 121344, Control_c, 5, 64, 127
6, 121680, Control_c, 5, 64, 0
6, 121728, Control_c, 5, 64, 127
6, 121728, Note_on_c, 5, 64, 68
6, 121736, Note_off_c, 5, 64, 64
6, 122064, Control_c, 5, 64, 0
6, 122112, Control_c, 5, 64, 127
6, 122112, Note_on_c, 5, 66, 70
6, 122120, Note_off_c, 5, 66, 64
6, 122448, Control_c, 5, 64, 0
6, 122496, Control_c, 5, 64, 127
6, 122496, Note_on_c, 5, 67, 73
6, 122504, Note_off_c, 5, 67, 64
6, 122832, Control_c, 5, 64, 0
6, 122880, Control_c, 5, 64, 127
6, 122880, Note_on_c, 5, 69, 71
6, 122888, Note_off_c, 5, 69, 64
6, 123216, Control_c, 5, 64, 0
6, 123264, Control_c, 5, 64, 127
6, 123264, Note_on_c, 5, 67, 70
6, 123272, Note_off_c, 5, 67, 64
6, 123600, Control_c, 5, 64, 0
6, 123648, Control_c, 5, 64, 127
6, 123648, Note_on_c, 5, 66, 61
6, 123656, Note_off_c, 5, 66, 64
6, 123984, Control_c, 5, 64, 0
6, 124032, Control_c, 5, 64, 127
6, 124032, Note_on_c, 5, 64, 63
6, 124040, Note_off_c, 5, 64, 64
6, 124368, Control_c, 5, 64, 0
6, 124416, Control_c, 5, 64, 127
6, 124416, Note_on_c, 5, 64, 76
6, 124424, Note_off_c, 5, 64, 64
6, 124752, Control_c, 5, 64, 0
6, 124800, Control_c, 5, 64, 127
6, 124800, Note_on_c, 5, 63, 64
6, 124808, Note_off_c, 5, 63, 64
6, 125136, Control_c, 5, 64, 0
6, 125184, Control_c, 5, 64, 127
6, 125184, Note_on_c, 5, 64, 65
6, 125192, Note_off_c, 5, 64, 64
6, 125520, Control_c, 5, 64, 0
6, 125568, Control_c, 5, 64, 127
6, 125568, Note_on_c, 5, 66, 60
6, 125576, Note_off_c, 5, 66, 64
6, 125904, Control_c, 5, 64, 0
6, 125952, Control_c, 5, 64, 127
6, 125952, Note_on_c, 5, 64, 68
6, 125960, Note_off_c, 5, 64, 64
6, 126288, Control_c, 5, 64, 0
6, 126336, Control_c, 5, 64, 127
6, 126336, Note_on_c, 5, 63, 60
6, 126344, Note_off_c, 5, 63, 64
6, 126672, Control_c, 5, 64, 0
6, 126720, Control_c, 5, 64, 127
6, 126720, Note_on_c, 5, 61, 59
6, 126728, Note_off_c, 5, 61, 64
6, 126816, Control_c, 5, 64, 0
6, 126848, Control_c, 5, 64, 127
6, 126848, Note_on_c, 5, 63, 58
6, 126856, Note_off_c, 5, 63, 64
6, 127440, Control_c, 5, 64, 0
6, 139776, Control_c, 5, 64, 127
6, 140112, Control_c, 5, 64, 0
6, 140160, Control_c, 5, 64, 127
6, 140160, Note_on_c, 5, 64, 68
6, 140168, Note_off_c, 5, 64, 64
6, 140496, Control_c, 5, 64, 0
6, 140544, Control_c, 5, 64, 127
6, 140544, Note_on_c, 5, 66, 70
6, 140552, Note_off_c, 5, 66, 64
6, 140880, Control_c, 5, 64, 0
6, 140928, Control_c, 5, 64, 127
6, 140928, Note_on_c, 5, 67, 73
6, 140936, Note_off_c, 5, 67, 64
6, 141264, Control_c, 5, 64, 0
6, 141312, Control_c, 5, 64, 127
6, 141312, Note_on_c, 5, 69, 71
6, 141320, Note_off_c, 5, 69, 64
6, 141648, Control_c, 5, 64, 0
6, 141696, Control_c, 5, 64, 127
6, 141696, Note_on_c, 5, 67, 70
6, 141704, Note_off_c, 5, 67, 64
6, 142032, Control_c, 5, 64, 0
6, 142080, Control_c, 5, 64, 127
6, 142080, Note_on_c, 5, 66, 61
6, 142088, Note_off_c, 5, 66, 64
6, 142416, Control_c, 5, 64, 0
6, 142464, Control_c, 5, 64, 127
6, 142464, Note_on_c, 5, 64, 63
6, 142472, Note_off_c, 5, 64, 64
6, 142800, Control_c, 5, 64, 0
6, 142848, Control_c, 5, 64, 127
6, 142848, Note_on_c, 5, 64, 76
6, 142856, Note_off_c, 5, 64, 64
6, 143184, Control_c, 5, 64, 0
6, 143232, Control_c, 5, 64, 127
6, 143232, Note_on_c, 5, 63, 64
6, 143240, Note_off_c, 5, 63, 64
6, 143568, Control_c, 5, 64, 0
6, 143616, Control_c, 5, 64, 127
6, 143616, Note_on_c, 5, 64, 65
6, 143624, Note_off_c, 5, 64, 64
6, 143952, Control_c, 5, 64, 0
6, 144000, Control_c, 5, 64, 127
6, 144000, Note_on_c, 5, 66, 60
6, 144008, Note_off_c, 5, 66, 64
6, 144336, Control_c, 5, 64, 0
6, 144384, Control_c, 5, 64, 127
6, 144384, Note_on_c, 5, 64, 68
6, 144392, Note_off_c, 5, 64, 64
6, 144720, Control_c, 5, 64, 0
6, 144768, Control_c, 5, 64, 127
6, 144768, Note_on_c, 5, 63, 60
6, 144776, Note_off_c, 5, 63, 64
6, 145104, Control_c, 5, 64, 0
6, 145152, Control_c, 5, 64, 127
6, 145152, Note_on_c, 5, 61, 59
6, 145160, Note_off_c, 5, 61, 64
6, 145248, Control_c, 5, 64, 0
6, 145280, Control_c, 5, 64, 127
6, 145280, Note_on_c, 5, 63, 58
6, 145288, Note_off_c, 5, 63, 64
6, 145872, Control_c, 5, 64, 0
6, 145920, Control_c, 5, 64, 127
6, 146256, Control_c, 5, 64, 0
6, 146304, Control_c, 5, 64, 127
6, 146304, Note_on_c, 5, 64, 68
6, 146312, Note_off_c, 5, 64, 64
6, 146640, Control_c, 5, 64, 0
6, 146688, Control_c, 5, 64, 127
6, 146688, Note_on_c, 5, 66, 70
6, 146696, Note_off_c, 5, 66, 64
6, 147024, Control_c, 5, 64, 0
6, 147072, Control_c, 5, 64, 127
6, 147072, Note_on_c, 5, 67, 73
6, 147080, Note_off_c, 5, 67, 64
6, 147408, Control_c, 5, 64, 0
6, 147456, Control_c, 5, 64, 127
6, 147456, Note_on_c, 5, 69, 71
6, 147464, Note_off_c, 5, 69, 64
6, 147792, Control_c, 5, 64, 0
6, 147840, Control_c, 5, 64, 127
6, 147840, Note_on_c, 5, 67, 70
6, 147848, Note_off_c, 5, 67, 64
6, 148176, Control_c, 5, 64, 0
6, 148224, Control_c, 5, 64, 127
6, 148224, Note_on_c, 5, 66, 61
6, 148232, Note_off_c, 5, 66, 64
6, 148560, Control_c, 5, 64, 0
6, 148608, Control_c, 5, 64, 127
6, 148608, Note_on_c, 5, 64, 63
6, 148616, Note_off_c, 5, 64, 64
6, 148944, Control_c, 5, 64, 0
6, 148992, Control_c, 5, 64, 127
6, 148992, Note_on_c, 5, 64, 76
6, 149000, Note_off_c, 5, 64, 64
6, 149328, Control_c, 5, 64, 0
6, 149376, Control_c, 5, 64, 127
6, 149376, Note_on_c, 5, 63, 64
6, 149384, Note_off_c, 5, 63, 64
6, 149712, Control_c, 5, 64, 0
6, 149760, Control_c, 5, 64, 127
6, 149760, Note_on_c, 5, 64, 65
6, 149768, Note_off_c, 5, 64, 64
6, 150096, Control_c, 5, 64, 0
6, 150144, Control_c, 5, 64, 127
6, 150144, Note_on_c, 5, 66, 60
6, 150152, Note_off_c, 5, 66, 64
6, 150480, Control_c, 5, 64, 0
6, 150528, Control_c, 5, 64, 127
6, 150528, Note_on_c, 5, 64, 68
6, 150536, Note_off_c, 5, 64, 64
6, 150864, Control_c, 5, 64, 0
6, 150912, Control_c, 5, 64, 127
6, 150912, Note_on_c, 5, 63, 60
6, 150920, Note_off_c, 5, 63, 64
6, 151248, Control_c, 5, 64, 0
6, 151296, Control_c, 5, 64, 127
6, 151296, Note_on_c, 5, 61, 59
6, 151304, Note_off_c, 5, 61, 64
6, 151392, Control_c, 5, 64, 0
6, 151424, Control_c, 5, 64, 127
6, 151424, Note_on_c, 5, 63, 58
6, 151432, Note_off_c, 5, 63, 64
6, 152016, Control_c, 5, 64, 0
6, 152064, Control_c, 5, 64, 127
6, 152400, Control_c, 5, 64, 0
6, 152448, Control_c, 5, 64, 127
6, 152448, Note_on_c, 5, 64, 68
6, 152456, Note_off_c, 5, 64, 64
6, 152784, Control_c, 5, 64, 0
6, 152832, Control_c, 5, 64, 127
6, 152832, Note_on_c, 5, 66, 70
6, 152840, Note_off_c, 5, 66, 64
6, 153168, Control_c, 5, 64, 0
6, 153216, Control_c, 5, 64, 127
6, 153216, Note_on_c, 5, 67, 73
6, 153224, Note_off_c, 5, 67, 64
6, 153552, Control_c, 5, 64, 0
6, 153600, Control_c, 5, 64, 127
6, 153600, Note_on_c, 5, 69, 71
6, 153608, Note_off_c, 5, 69, 64
6, 153936, Control_c, 5, 64, 0
6, 153984, Control_c, 5, 64, 127
6, 153984, Note_on_c, 5, 67, 70
6, 153992, Note_off_c, 5, 67, 64
6, 154320, Control_c, 5, 64, 0
6, 154368, Control_c, 5, 64, 127
6, 154368, Note_on_c, 5, 66, 61
6, 154376, Note_off_c, 5, 66, 64
6, 154704, Control_c, 5, 64, 0
6, 154752, Control_c, 5, 64, 127
6, 154752, Note_on_c, 5, 64, 63
6, 154760, Note_off_c, 5, 64, 64
6, 155088, Control_c, 5, 64, 0
6, 155136, Control_c, 5, 64, 127
6, 155136, Note_on_c, 5, 64, 76
6, 155144, Note_off_c, 5, 64, 64
6, 155472, Control_c, 5, 64, 0
6, 155520, Control_c, 5, 64, 127
6, 155520, Note_on_c, 5, 63, 64
6, 155528, Note_off_c, 5, 63, 64
6, 155856, Control_c, 5, 64, 0
6, 155904, Control_c, 5, 64, 127
6, 155904, Note_on_c, 5, 64, 65
6, 155912, Note_off_c, 5, 64, 64
6, 156240, Control_c, 5, 64, 0
6, 156288, Control_c, 5, 64, 127
6, 156288, Note_on_c, 5, 66, 60
6, 156296, Note_off_c, 5, 66, 64
6, 156624, Control_c, 5, 64, 0
6, 156672, Control_c, 5, 64, 127
6, 156672, Note_on_c, 5, 64, 68
6, 156680, Note_off_c, 5, 64, 64
6, 157008, Control_c, 5, 64, 0
6, 157056, Control_c, 5, 64, 127
6, 157056, Note_on_c, 5, 63, 60
6, 157064, Note_off_c, 5, 63, 64
6, 157392, Control_c, 5, 64, 0
6, 157440, Control_c, 5, 64, 127
6, 157440, Note_on_c, 5, 61, 59
6, 157448, Note_off_c, 5, 61, 64
6, 157536, Control_c, 5, 64, 0
6, 157568, Control_c, 5, 64, 127
6, 157568, Note_on_c, 5, 63, 58
6, 157576, Note_off_c, 5, 63, 64
6, 158160, Control_c, 5, 64, 0
6, 158208, Control_c, 5, 64, 127
6, 158544, Control_c, 5, 64, 0
6, 158592, Control_c, 5, 64, 127
6, 158592, Note_on_c, 5, 64, 68
6, 158600, Note_off_c, 5, 64, 64
6, 158928, Control_c, 5, 64, 0
6, 158976, Control_c, 5, 64, 127
6, 158976, Note_on_c, 5, 66, 70
6, 158984, Note_off_c, 5, 66, 64
6, 159312, Control_c, 5, 64, 0
6, 159360, Control_c, 5, 64, 127
6, 159360, Note_on_c, 5, 67, 73
6, 159368, Note_off_c, 5, 67, 64
6, 159696, Control_c, 5, 64, 0
6, 159744, Control_c, 5, 64, 127
6, 159744, Note_on_c, 5, 69, 71
6, 159752, Note_off_c, 5, 69, 64
6, 160080, Control_c, 5, 64, 0
6, 160128, Control_c, 5, 64, 127
6, 160128, Note_on_c, 5, 67, 70
6, 160136, Note_off_c, 5, 67, 64
6, 160464, Control_c, 5, 64, 0
6, 160512, Control_c, 5, 64, 127
6, 160512, Note_on_c, 5, 66, 61
6, 160520, Note_off_c, 5, 66, 64
6, 160848, Control_c, 5, 64, 0
6, 160896, Control_c, 5, 64, 127
6, 160896, Note_on_c, 5, 64, 63
6, 160904, Note_off_c, 5, 64, 64
6, 161232, Control_c, 5, 64, 0
6, 161280, Control_c, 5, 64, 127
6, 161280, Note_on_c, 5, 64, 76
6, 161288, Note_off_c, 5, 64, 64
6, 161616, Control_c, 5, 64, 0
6, 161664, Control_c, 5, 64, 127
6, 161664, Note_on_c, 5, 63, 64
6, 161672, Note_off_c, 5, 63, 64
6, 162000, Control_c, 5, 64, 0
6, 162048, Control_c, 5, 64, 127
6, 162048, Note_on_c, 5, 64, 65
6, 162056, Note_off_c, 5, 64, 64
6, 162384, Control_c, 5, 64, 0
6, 162432, Control_c, 5, 64, 127
6, 162432, Note_on_c, 5, 66, 60
6, 162440, Note_off_c, 5, 66, 64
6, 162768, Control_c, 5, 64, 0
6, 162816, Control_c, 5, 64, 127
6, 162816, Note_on_c, 5, 64, 68
6, 162824, Note_off_c, 5, 64, 64
6, 163152, Control_c, 5, 64, 0
6, 163200, Control_c, 5, 64, 127
6, 163200, Note_on_c, 5, 63, 60
6, 163208, Note_off_c, 5, 63, 64
6, 163536, Control_c, 5, 64, 0
6, 163584, Control_c, 5, 64, 127
6, 163584, Note_on_c, 5, 61, 59
6, 163592, Note_off_c, 5, 61, 64
6, 163680, Control_c, 5, 64, 0
6, 163712, Control_c, 5, 64, 127
6, 163712, Note_on_c, 5, 63, 58
6, 163720, Note_off_c, 5, 63, 64
6, 164304, Control_c, 5, 64, 0
6, 164352, Control_c, 5, 64, 127
6, 164352, Control_c, 5, 11, 126
6, 164496, Control_c, 5, 11, 125
6, 164592, Control_c, 5, 11, 124
6, 164688, Control_c, 5, 64, 0
6, 164688, Control_c, 5, 11, 123
6, 164736, Control_c, 5, 64, 127
6, 164736, Note_on_c, 5, 64, 68
6, 164744, Note_off_c, 5, 64, 64
6, 164784, Control_c, 5, 11, 122
6, 164880, Control_c, 5, 11, 121
6, 164976, Control_c, 5, 11, 120
6, 165072, Control_c, 5, 64, 0
6, 165072, Control_c, 5, 11, 119
6, 165120, Control_c, 5, 64, 127
6, 165120, Note_on_c, 5, 66, 70
6, 165128, Note_off_c, 5, 66, 64
6, 165168, Control_c, 5, 11, 118
6, 165264, Control_c, 5, 11, 117
6, 165360, Control_c, 5, 11, 116
6, 165456, Control_c, 5, 64, 0
6, 165456, Control_c, 5, 11, 115
6, 165504, Control_c, 5, 64, 127
6, 165504, Note_on_c, 5, 67, 73
6, 165512, Note_off_c, 5, 67, 64
6, 165552, Control_c, 5, 11, 114
6, 165648, Control_c, 5, 11, 113
6, 165744, Control_c, 5, 11, 112
6, 165840, Control_c, 5, 64, 0
6, 165840, Control_c, 5, 11, 111
6, 165888, Control_c, 5, 64, 127
6, 165888, Note_on_c, 5, 69, 71
6, 165896, Note_off_c, 5, 69, 64
6, 165936, Control_c, 5, 11, 110
6, 166032, Control_c, 5, 11, 109
6, 166128, Control_c, 5, 11, 108
6, 166224, Control_c, 5, 64, 0
6, 166224, Control_c, 5, 11, 107
6, 166272, Control_c, 5, 64, 127
6, 166272, Note_on_c, 5, 67, 70
6, 166280, Note_off_c, 5, 67, 64
6, 166320, Control_c, 5, 11, 106
6, 166416, Control_c, 5, 11, 105
6, 166512, Control_c, 5, 11, 104
6, 166608, Control_c, 5, 64, 0
6, 166608, Control_c, 5, 11, 103
6, 166656, Control_c, 5, 64, 127
6, 166656, Note_on_c, 5, 66, 61
6, 166664, Note_off_c, 5, 66, 64
6, 166704, Control_c, 5, 11, 102
6, 166800, Control_c, 5, 11, 101
6, 166896, Control_c, 5, 11, 100
6, 166992, Control_c, 5, 64, 0
6, 166992, Control_c, 5, 11, 99
6, 167040, Control_c, 5, 64, 127
6, 167040, Note_on_c, 5, 64, 63
6, 167048, Note_off_c, 5, 64, 64
6, 167088, Control_c, 5, 11, 98
6, 167184, Control_c, 5, 11, 97
6, 167280, Control_c, 5, 11, 96
6, 167376, Control_c, 5, 64, 0
6, 167376, Control_c, 5, 11, 95
6, 167424, Control_c, 5, 64, 127
6, 167424, Note_on_c, 5, 64, 76
6, 167432, Note_off_c, 5, 64, 64
6, 167472, Control_c, 5, 11, 94
6, 167568, Control_c, 5, 11, 93
6, 167664, Control_c, 5, 11, 92
6, 167760, Control_c, 5, 64, 0
6, 167760, Control_c, 5, 11, 91
6, 167808, Control_c, 5, 64, 127
6, 167808, Note_on_c, 5, 63, 64
6, 167816, Note_off_c, 5, 63, 64
6, 167856, Control_c, 5, 11, 90
6, 167952, Control_c, 5, 11, 89
6, 168048, Control_c, 5, 11, 88
6, 168144, Control_c, 5, 64, 0
6, 168144, Control_c, 5, 11, 87
6, 168192, Control_c, 5, 64, 127
6, 168192, Note_on_c, 5, 64, 65
6, 168200, Note_off_c, 5, 64, 64
6, 168240, Control_c, 5, 11, 86
6, 168336, Control_c, 5, 11, 85
6, 168432, Control_c, 5, 11, 84
6, 168528, Control_c, 5, 64, 0
6, 168528, Control_c, 5, 11, 83
6, 168576, Control_c, 5, 64, 127
6, 168576, Note_on_c, 5, 66, 60
6, 168584, Note_off_c, 5, 66, 64
6, 168624, Control_c, 5, 11, 82
6, 168720, Control_c, 5, 11, 81
6, 168816, Control_c, 5, 11, 80
6, 168912, Control_c, 5, 64, 0
6, 168912, Control_c, 5, 11, 79
6, 168960, Control_c, 5, 64, 127
6, 168960, Note_on_c, 5, 64, 68
6, 168968, Note_off_c, 5, 64, 64
6, 169008, Control_c, 5, 11, 78
6, 169104, Control_c, 5, 11, 77
6, 169200, Control_c, 5, 11, 76
6, 169296, Control_c, 5, 64, 0
6, 169296, Control_c, 5, 11, 75
6, 169344, Control_c, 5, 64, 127
6, 169344, Note_on_c, 5, 63, 60
6, 169352, Note_off_c, 5, 63, 64
6, 169392, Control_c, 5, 11, 74
6, 169488, Control_c, 5, 11, 73
6, 169584, Control_c, 5, 11, 72
6, 169680, Control_c, 5, 64, 0
6, 169680, Control_c, 5, 11, 71
6, 169728, Control_c, 5, 64, 127
6, 169728, Note_on_c, 5, 61, 59
6, 169736, Note_off_c, 5, 61, 64
6, 169776, Control_c, 5, 11, 70
6, 169824, Control_c, 5, 64, 0
6, 169856, Control_c, 5, 64, 127
6, 169856, Note_on_c, 5, 63, 58
6, 169864, Note_off_c, 5, 63, 64
6, 169872, Control_c, 5, 11, 69
6, 169968, Control_c, 5, 11, 68
6, 170064, Control_c, 5, 11, 67
6, 170160, Control_c, 5, 11, 66
6, 170256, Control_c, 5, 11, 65
6, 170352, Control_c, 5, 11, 64
6, 170448, Control_c, 5, 64, 0
6, 170448, Control_c, 5, 11, 63
6, 170496, Control_c, 5, 64, 127
6, 170544, Control_c, 5, 11, 62
6, 170688, Control_c, 5, 11, 61
6, 170784, Control_c, 5, 11, 60
6, 170832, Control_c, 5, 64, 0
6, 170880, Control_c, 5, 64, 127
6, 170880, Control_c, 5, 11, 59
6, 170880, Note_on_c, 5, 64, 68
6, 170888, Note_off_c, 5, 64, 64
6, 170976, Control_c, 5, 11, 58
6, 171072, Control_c, 5, 11, 57
6, 171168, Control_c, 5, 11, 56
6, 171216, Control_c, 5, 64, 0
6, 171264, Control_c, 5, 64, 127
6, 171264, Control_c, 5, 11, 55
6, 171264, Note_on_c, 5, 66, 70
6, 171272, Note_off_c, 5, 66, 64
6, 171360, Control_c, 5, 11, 54
6, 171456, Control_c, 5, 11, 53
6, 171552, Control_c, 5, 11, 52
6, 171600, Control_c, 5, 64, 0
6, 171648, Control_c, 5, 64, 127
6, 171648, Control_c, 5, 11, 51
6, 171648, Note_on_c, 5, 67, 73
6, 171656, Note_off_c, 5, 67, 64
6, 171744, Control_c, 5, 11, 50
6, 171840, Control_c, 5, 11, 49
6, 171936, Control_c, 5, 11, 48
6, 171984, Control_c, 5, 64, 0
6, 172032, Control_c, 5, 64, 127
6, 172032, Control_c, 5, 11, 47
6, 172032, Note_on_c, 5, 69, 71
6, 172040, Note_off_c, 5, 69, 64
6, 172128, Control_c, 5, 11, 46
6, 172224, Control_c, 5, 11, 45
6, 172320, Control_c, 5, 11, 44
6, 172368, Control_c, 5, 64, 0
6, 172416, Control_c, 5, 64, 127
6, 172416, Control_c, 5, 11, 43
6, 172416, Note_on_c, 5, 67, 70
6, 172424, Note_off_c, 5, 67, 64
6, 172512, Control_c, 5, 11, 42
6, 172608, Control_c, 5, 11, 41
6, 172704, Control_c, 5, 11, 40
6, 172752, Control_c, 5, 64, 0
6, 172800, Control_c, 5, 64, 127
6, 172800, Control_c, 5, 11, 39
6, 172800, Note_on_c, 5, 66, 61
6, 172808, Note_off_c, 5, 66, 64
6, 172896, Control_c, 5, 11, 38
6, 172992, Control_c, 5, 11, 37
6, 173088, Control_c, 5, 11, 36
6, 173136, Control_c, 5, 64, 0
6, 173184, Control_c, 5, 64, 127
6, 173184, Control_c, 5, 11, 35
6, 173184, Note_on_c, 5, 64, 63
6, 173192, Note_off_c, 5, 64, 64
6, 173280, Control_c, 5, 11, 34
6, 173376, Control_c, 5, 11, 33
6, 173472, Control_c, 5, 11, 32
6, 173520, Control_c, 5, 64, 0
6, 173568, Control_c, 5, 64, 127
6, 173568, Control_c, 5, 11, 31
6, 173568, Note_on_c, 5, 64, 76
6, 173576, Note_off_c, 5, 64, 64
6, 173664, Control_c, 5, 11, 30
6, 173760, Control_c, 5, 11, 29
6, 173856, Control_c, 5, 11, 28
6, 173904, Control_c, 5, 64, 0
6, 173952, Control_c, 5, 64, 127
6, 173952, Control_c, 5, 11, 27
6, 173952, Note_on_c, 5, 63, 64
6, 173960, Note_off_c, 5, 63, 64
6, 174048, Control_c, 5, 11, 26
6, 174144, Control_c, 5, 11, 25
6, 174240, Control_c, 5, 11, 24
6, 174288, Control_c, 5, 64, 0
6, 174336, Control_c, 5, 64, 127
6, 174336, Control_c, 5, 11, 23
6, 174336, Note_on_c, 5, 64, 65
6, 174344, Note_off_c, 5, 64, 64
6, 174432, Control_c, 5, 11, 22
6, 174528, Control_c, 5, 11, 21
6, 174624, Control_c, 5, 11, 20
6, 174672, Control_c, 5, 64, 0
6, 174720, Control_c, 5, 64, 127
6, 174720, Control_c, 5, 11, 19
6, 174720, Note_on_c, 5, 66, 60
6, 174728, Note_off_c, 5, 66, 64
6, 174816, Control_c, 5, 11, 18
6, 174912, Control_c, 5, 11, 17
6, 175008, Control_c, 5, 11, 16
6, 175056, Control_c, 5, 64, 0
6, 175104, Control_c, 5, 64, 127
6, 175104, Control_c, 5, 11, 15
6, 175104, Note_on_c, 5, 64, 68
6, 175112, Note_off_c, 5, 64, 64
6, 175200, Control_c, 5, 11, 14
6, 175296, Control_c, 5, 11, 13
6, 175392, Control_c, 5, 11, 12
6, 175440, Control_c, 5, 64, 0
6, 175488, Control_c, 5, 64, 127
6, 175488, Control_c, 5, 11, 11
6, 175488, Note_on_c, 5, 63, 60
6, 175496, Note_off_c, 5, 63, 64
6, 175584, Control_c, 5, 11, 10
6, 175680, Control_c, 5, 11, 9
6, 175776, Control_c, 5, 11, 8
6, 175824, Control_c, 5, 64, 0
6, 175872, Control_c, 5, 64, 127
6, 175872, Control_c, 5, 11, 7
6, 175872, Note_on_c, 5, 61, 59
6, 175880, Note_off_c, 5, 61, 64
6, 175968, Control_c, 5, 64, 0
6, 175968, Control_c, 5, 11, 6
6, 176000, Control_c, 5, 64, 127
6, 176000, Note_on_c, 5, 63, 58
6, 176008, Note_off_c, 5, 63, 64
6, 176064, Control_c, 5, 11, 5
6, 176160, Control_c, 5, 11, 4
6, 176256, Control_c, 5, 11, 3
6, 176352, Control_c, 5, 11, 2
6, 176448, Control_c, 5, 11, 1
6, 176544, Control_c, 5, 11, 0
6, 176592, Control_c, 5, 64, 0
6, 176640, End_track
7, 0, Start_track
7, 0, Title_t, "MIDI"
7, 0, Control_c, 6, 7, 90
7, 0, Program_c, 6, 27
7, 512, Program_c, 6, 27
7, 516, Control_c, 6, 7, 90
7, 516, Control_c, 6, 10, 44
7, 516, Control_c, 6, 11, 127
7, 520, Control_c, 6, 91, 30
7, 520, Control_c, 6, 93, 0
7, 13824, Control_c, 6, 64, 127
7, 13824, Note_on_c, 6, 64, 49
7, 13824, Note_on_c, 6, 55, 53
7, 13824, Note_on_c, 6, 59, 56
7, 13832, Note_off_c, 6, 59, 64
7, 13832, Note_off_c, 6, 55, 64
7, 13832, Note_off_c, 6, 64, 64
7, 14016, Note_on_c, 6, 64, 41
7, 14016, Note_on_c, 6, 55, 41
7, 14016, Note_on_c, 6, 59, 41
7, 14024, Note_off_c, 6, 59, 64
7, 14024, Note_off_c, 6, 55, 64
7, 14024, Note_off_c, 6, 64, 64
7, 14208, Note_on_c, 6, 64, 55
7, 14208, Note_on_c, 6, 55, 60
7, 14208, Note_on_c, 6, 59, 59
7, 14216, Note_off_c, 6, 59, 64
7, 14216, Note_off_c, 6, 55, 64
7, 14216, Note_off_c, 6, 64, 64
7, 14400, Note_on_c, 6, 59, 41
7, 14400, Note_on_c, 6, 55, 41
7, 14408, Note_off_c, 6, 55, 64
7, 14408, Note_off_c, 6, 59, 64
7, 14592, Note_on_c, 6, 59, 47
7, 14592, Note_on_c, 6, 55, 50
7, 14592, Note_on_c, 6, 64, 45
7, 14600, Note_off_c, 6, 64, 64
7, 14600, Note_off_c, 6, 55, 64
7, 14600, Note_off_c, 6, 59, 64
7, 14784, Note_on_c, 6, 59, 41
7, 14784, Note_on_c, 6, 64, 41
7, 14784, Note_on_c, 6, 55, 41
7, 14792, Note_off_c, 6, 55, 64
7, 14792, Note_off_c, 6, 64, 64
7, 14792, Note_off_c, 6, 59, 64
7, 14976, Note_on_c, 6, 64, 42
7, 14976, Note_on_c, 6, 55, 50
7, 14976, Note_on_c, 6, 59, 45
7, 14984, Note_off_c, 6, 59, 64
7, 14984, Note_off_c, 6, 55, 64
7, 14984, Note_off_c, 6, 64, 64
7, 15168, Note_on_c, 6, 59, 41
7, 15168, Note_on_c, 6, 64, 41
7, 15168, Note_on_c, 6, 55, 41
7, 15176, Note_off_c, 6, 55, 64
7, 15176, Note_off_c, 6, 64, 64
7, 15176, Note_off_c, 6, 59, 64
7, 15336, Control_c, 6, 64, 0
7, 15360, Control_c, 6, 64, 127
7, 15360, Note_on_c, 6, 55, 47
7, 15360, Note_on_c, 6, 64, 44
7, 15360, Note_on_c, 6, 59, 53
7, 15368, Note_off_c, 6, 59, 64
7, 15368, Note_off_c, 6, 64, 64
7, 15368, Note_off_c, 6, 55, 64
7, 15552, Note_on_c, 6, 59, 41
7, 15552, Note_on_c, 6, 55, 41
7, 15552, Note_on_c, 6, 64, 41
7, 15560, Note_off_c, 6, 64, 64
7, 15560, Note_off_c, 6, 55, 64
7, 15560, Note_off_c, 6, 59, 64
7, 15744, Note_on_c, 6, 55, 50
7, 15744, Note_on_c, 6, 64, 44
7, 15744, Note_on_c, 6, 59, 55
7, 15752, Note_off_c, 6, 59, 64
7, 15752, Note_off_c, 6, 64, 64
7, 15752, Note_off_c, 6, 55, 64
7, 15936, Note_on_c, 6, 59, 41
7, 15936, Note_on_c, 6, 64, 41
7, 15936, Note_on_c, 6, 55, 41
7, 15944, Note_off_c, 6, 55, 64
7, 15944, Note_off_c, 6, 64, 64
7, 15944, Note_off_c, 6, 59, 64
7, 16128, Note_on_c, 6, 64, 41
7, 16128, Note_on_c, 6, 55, 41
7, 16128, Note_on_c, 6, 59, 50
7, 16136, Note_off_c, 6, 59, 64
7, 16136, Note_off_c, 6, 55, 64
7, 16136, Note_off_c, 6, 64, 64
7, 16320, Note_on_c, 6, 59, 41
7, 16320, Note_on_c, 6, 64, 41
7, 16320, Note_on_c, 6, 55, 41
7, 16328, Note_off_c, 6, 55, 64
7, 16328, Note_off_c, 6, 64, 64
7, 16328, Note_off_c, 6, 59, 64
7, 16512, Note_on_c, 6, 55, 50
7, 16512, Note_on_c, 6, 59, 48
7, 16512, Note_on_c, 6, 64, 46
7, 16520, Note_off_c, 6, 64, 64
7, 16520, Note_off_c, 6, 59, 64
7, 16520, Note_off_c, 6, 55, 64
7, 16704, Note_on_c, 6, 59, 41
7, 16704, Note_on_c, 6, 64, 41
7, 16712, Note_off_c, 6, 64, 64
7, 16712, Note_off_c, 6, 59, 64
7, 16872, Control_c, 6, 64, 0
7, 16896, Control_c, 6, 64, 127
7, 16896, Note_on_c, 6, 64, 44
7, 16896, Note_on_c, 6, 55, 53
7, 16896, Note_on_c, 6, 59, 52
7, 16904, Note_off_c, 6, 59, 64
7, 16904, Note_off_c, 6, 55, 64
7, 16904, Note_off_c, 6, 64, 64
7, 17088, Note_on_c, 6, 59, 41
7, 17088, Note_on_c, 6, 64, 41
7, 17088, Note_on_c, 6, 55, 41
7, 17096, Note_off_c, 6, 55, 64
7, 17096, Note_off_c, 6, 64, 64
7, 17096, Note_off_c, 6, 59, 64
7, 17280, Note_on_c, 6, 64, 41
7, 17280, Note_on_c, 6, 55, 45
7, 17280, Note_on_c, 6, 59, 42
7, 17288, Note_off_c, 6, 59, 64
7, 17288, Note_off_c, 6, 55, 64
7, 17288, Note_off_c, 6, 64, 64
7, 17472, Note_on_c, 6, 64, 41
7, 17472, Note_on_c, 6, 59, 41
7, 17472, Note_on_c, 6, 55, 41
7, 17480, Note_off_c, 6, 55, 64
7, 17480, Note_off_c, 6, 59, 64
7, 17480, Note_off_c, 6, 64, 64
7, 17664, Note_on_c, 6, 55, 46
7, 17664, Note_on_c, 6, 64, 41
7, 17664, Note_on_c, 6, 59, 49
7, 17672, Note_off_c, 6, 59, 64
7, 17672, Note_off_c, 6, 64, 64
7, 17672, Note_off_c, 6, 55, 64
7, 17856, Note_on_c, 6, 64, 41
7, 17856, Note_on_c, 6, 59, 41
7, 17856, Note_on_c, 6, 55, 41
7, 17864, Note_off_c, 6, 55, 64
7, 17864, Note_off_c, 6, 59, 64
7, 17864, Note_off_c, 6, 64, 64
7, 18048, Note_on_c, 6, 55, 45
7, 18048, Note_on_c, 6, 64, 41
7, 18048, Note_on_c, 6, 59, 54
7, 18056, Note_off_c, 6, 59, 64
7, 18056, Note_off_c, 6, 64, 64
7, 18056, Note_off_c, 6, 55, 64
7, 18240, Note_on_c, 6, 64, 41
7, 18240, Note_on_c, 6, 59, 41
7, 18240, Note_on_c, 6, 55, 41
7, 18248, Note_off_c, 6, 55, 64
7, 18248, Note_off_c, 6, 59, 64
7, 18248, Note_off_c, 6, 64, 64
7, 18408, Control_c, 6, 64, 0
7, 18432, Control_c, 6, 64, 127
7, 18432, Note_on_c, 6, 64, 48
7, 18432, Note_on_c, 6, 55, 50
7, 18432, Note_on_c, 6, 59, 56
7, 18440, Note_off_c, 6, 59, 64
7, 18440, Note_off_c, 6, 55, 64
7, 18440, Note_off_c, 6, 64, 64
7, 18624, Note_on_c, 6, 55, 41
7, 18624, Note_on_c, 6, 59, 41
7, 18624, Note_on_c, 6, 64, 41
7, 18632, Note_off_c, 6, 64, 64
7, 18632, Note_off_c, 6, 59, 64
7, 18632, Note_off_c, 6, 55, 64
7, 18816, Note_on_c, 6, 55, 42
7, 18816, Note_on_c, 6, 64, 41
7, 18816, Note_on_c, 6, 59, 45
7, 18824, Note_off_c, 6, 59, 64
7, 18824, Note_off_c, 6, 64, 64
7, 18824, Note_off_c, 6, 55, 64
7, 19008, Note_on_c, 6, 64, 41
7, 19008, Note_on_c, 6, 55, 41
7, 19008, Note_on_c, 6, 59, 41
7, 19016, Note_off_c, 6, 59, 64
7, 19016, Note_off_c, 6, 55, 64
7, 19016, Note_off_c, 6, 64, 64
7, 19200, Note_on_c, 6, 55, 45
7, 19200, Note_on_c, 6, 64, 41
7, 19200, Note_on_c, 6, 59, 48
7, 19208, Note_off_c, 6, 59, 64
7, 19208, Note_off_c, 6, 64, 64
7, 19208, Note_off_c, 6, 55, 64
7, 19392, Note_on_c, 6, 55, 41
7, 19392, Note_on_c, 6, 59, 41
7, 19392, Note_on_c, 6, 64, 41
7, 19400, Note_off_c, 6, 64, 64
7, 19400, Note_off_c, 6, 59, 64
7, 19400, Note_off_c, 6, 55, 64
7, 19584, Note_on_c, 6, 64, 41
7, 19584, Note_on_c, 6, 55, 41
7, 19584, Note_on_c, 6, 59, 44
7, 19592, Note_off_c, 6, 59, 64
7, 19592, Note_off_c, 6, 55, 64
7, 19592, Note_off_c, 6, 64, 64
7, 19776, Note_on_c, 6, 64, 41
7, 19776, Note_on_c, 6, 55, 41
7, 19776, Note_on_c, 6, 59, 41
7, 19784, Note_off_c, 6, 59, 64
7, 19784, Note_off_c, 6, 55, 64
7, 19784, Note_off_c, 6, 64, 64
7, 19944, Control_c, 6, 64, 0
7, 19968, Control_c, 6, 64, 127
7, 19968, Note_on_c, 6, 63, 41
7, 19968, Note_on_c, 6, 59, 44
7, 19968, Note_on_c, 6, 54, 43
7, 19976, Note_off_c, 6, 54, 64
7, 19976, Note_off_c, 6, 59, 64
7, 19976, Note_off_c, 6, 63, 64
7, 20160, Note_on_c, 6, 63, 41
7, 20160, Note_on_c, 6, 59, 41
7, 20160, Note_on_c, 6, 54, 41
7, 20168, Note_off_c, 6, 54, 64
7, 20168, Note_off_c, 6, 59, 64
7, 20168, Note_off_c, 6, 63, 64
7, 20352, Note_on_c, 6, 63, 44
7, 20352, Note_on_c, 6, 54, 45
7, 20352, Note_on_c, 6, 59, 46
7, 20360, Note_off_c, 6, 59, 64
7, 20360, Note_off_c, 6, 54, 64
7, 20360, Note_off_c, 6, 63, 64
7, 20544, Note_on_c, 6, 63, 41
7, 20544, Note_on_c, 6, 59, 41
7, 20544, Note_on_c, 6, 54, 41
7, 20552, Note_off_c, 6, 54, 64
7, 20552, Note_off_c, 6, 59, 64
7, 20552, Note_off_c, 6, 63, 64
7, 20736, Note_on_c, 6, 63, 41
7, 20736, Note_on_c, 6, 54, 42
7, 20736, Note_on_c, 6, 59, 41
7, 20744, Note_off_c, 6, 59, 64
7, 20744, Note_off_c, 6, 54, 64
7, 20744, Note_off_c, 6, 63, 64
7, 20928, Note_on_c, 6, 63, 41
7, 20928, Note_on_c, 6, 59, 41
7, 20928, Note_on_c, 6, 54, 41
7, 20936, Note_off_c, 6, 54, 64
7, 20936, Note_off_c, 6, 59, 64
7, 20936, Note_off_c, 6, 63, 64
7, 21120, Note_on_c, 6, 63, 41
7, 21120, Note_on_c, 6, 54, 41
7, 21120, Note_on_c, 6, 59, 49
7, 21128, Note_off_c, 6, 59, 64
7, 21128, Note_off_c, 6, 54, 64
7, 21128, Note_off_c, 6, 63, 64
7, 21312, Note_on_c, 6, 63, 41
7, 21312, Note_on_c, 6, 59, 41
7, 21320, Note_off_c, 6, 59, 64
7, 21320, Note_off_c, 6, 63, 64
7, 21408, Note_on_c, 6, 54, 41
7, 21416, Note_off_c, 6, 54, 64
7, 21480, Control_c, 6, 64, 0
7, 21504, Control_c, 6, 64, 127
7, 21504, Note_on_c, 6, 63, 44
7, 21504, Note_on_c, 6, 54, 44
7, 21504, Note_on_c, 6, 59, 45
7, 21512, Note_off_c, 6, 59, 64
7, 21512, Note_off_c, 6, 54, 64
7, 21512, Note_off_c, 6, 63, 64
7, 21696, Note_on_c, 6, 59, 41
7, 21696, Note_on_c, 6, 63, 41
7, 21696, Note_on_c, 6, 54, 41
7, 21704, Note_off_c, 6, 54, 64
7, 21704, Note_off_c, 6, 63, 64
7, 21704, Note_off_c, 6, 59, 64
7, 21888, Note_on_c, 6, 63, 51
7, 21888, Note_on_c, 6, 54, 41
7, 21888, Note_on_c, 6, 59, 41
7, 21896, Note_off_c, 6, 59, 64
7, 21896, Note_off_c, 6, 54, 64
7, 21896, Note_off_c, 6, 63, 64
7, 22080, Note_on_c, 6, 63, 41
7, 22080, Note_on_c, 6, 54, 41
7, 22080, Note_on_c, 6, 59, 41
7, 22088, Note_off_c, 6, 59, 64
7, 22088, Note_off_c, 6, 54, 64
7, 22088, Note_off_c, 6, 63, 64
7, 22224, Control_c, 6, 64, 0
7, 22272, Control_c, 6, 64, 127
7, 22272, Note_on_c, 6, 59, 52
7, 22272, Note_on_c, 6, 64, 51
7, 22272, Note_on_c, 6, 55, 57
7, 22280, Note_off_c, 6, 55, 64
7, 22280, Note_off_c, 6, 64, 64
7, 22280, Note_off_c, 6, 59, 64
7, 22464, Note_on_c, 6, 64, 41
7, 22464, Note_on_c, 6, 55, 41
7, 22464, Note_on_c, 6, 59, 41
7, 22472, Note_off_c, 6, 59, 64
7, 22472, Note_off_c, 6, 55, 64
7, 22472, Note_off_c, 6, 64, 64
7, 22608, Control_c, 6, 64, 0
7, 22656, Control_c, 6, 64, 127
7, 22656, Note_on_c, 6, 63, 41
7, 22656, Note_on_c, 6, 59, 44
7, 22656, Note_on_c, 6, 54, 45
7, 22664, Note_off_c, 6, 54, 64
7, 22664, Note_off_c, 6, 59, 64
7, 22664, Note_off_c, 6, 63, 64
7, 22848, Note_on_c, 6, 63, 41
7, 22848, Note_on_c, 6, 54, 41
7, 22848, Note_on_c, 6, 59, 41
7, 22856, Note_off_c, 6, 59, 64
7, 22856, Note_off_c, 6, 54, 64
7, 22856, Note_off_c, 6, 63, 64
7, 23016, Control_c, 6, 64, 0
7, 23040, Control_c, 6, 64, 127
7, 23040, Note_on_c, 6, 64, 44
7, 23040, Note_on_c, 6, 55, 53
7, 23040, Note_on_c, 6, 59, 52
7, 23048, Note_off_c, 6, 59, 64
7, 23048, Note_off_c, 6, 55, 64
7, 23048, Note_off_c, 6, 64, 64
7, 23232, Note_on_c, 6, 59, 41
7, 23232, Note_on_c, 6, 64, 41
7, 23232, Note_on_c, 6, 55, 41
7, 23240, Note_off_c, 6, 55, 64
7, 23240, Note_off_c, 6, 64, 64
7, 23240, Note_off_c, 6, 59, 64
7, 23424, Note_on_c, 6, 64, 41
7, 23424, Note_on_c, 6, 55, 45
7, 23424, Note_on_c, 6, 59, 42
7, 23432, Note_off_c, 6, 59, 64
7, 23432, Note_off_c, 6, 55, 64
7, 23432, Note_off_c, 6, 64, 64
7, 23616, Note_on_c, 6, 64, 41
7, 23616, Note_on_c, 6, 59, 41
7, 23616, Note_on_c, 6, 55, 41
7, 23624, Note_off_c, 6, 55, 64
7, 23624, Note_off_c, 6, 59, 64
7, 23624, Note_off_c, 6, 64, 64
7, 23808, Note_on_c, 6, 55, 46
7, 23808, Note_on_c, 6, 64, 41
7, 23808, Note_on_c, 6, 59, 49
7, 23816, Note_off_c, 6, 59, 64
7, 23816, Note_off_c, 6, 64, 64
7, 23816, Note_off_c, 6, 55, 64
7, 24000, Note_on_c, 6, 64, 41
7, 24000, Note_on_c, 6, 59, 41
7, 24000, Note_on_c, 6, 55, 41
7, 24008, Note_off_c, 6, 55, 64
7, 24008, Note_off_c, 6, 59, 64
7, 24008, Note_off_c, 6, 64, 64
7, 24192, Note_on_c, 6, 55, 45
7, 24192, Note_on_c, 6, 64, 41
7, 24192, Note_on_c, 6, 59, 54
7, 24200, Note_off_c, 6, 59, 64
7, 24200, Note_off_c, 6, 64, 64
7, 24200, Note_off_c, 6, 55, 64
7, 24384, Note_on_c, 6, 64, 41
7, 24384, Note_on_c, 6, 59, 41
7, 24384, Note_on_c, 6, 55, 41
7, 24392, Note_off_c, 6, 55, 64
7, 24392, Note_off_c, 6, 59, 64
7, 24392, Note_off_c, 6, 64, 64
7, 24552, Control_c, 6, 64, 0
7, 24576, Control_c, 6, 64, 127
7, 24576, Note_on_c, 6, 64, 48
7, 24576, Note_on_c, 6, 55, 50
7, 24576, Note_on_c, 6, 59, 56
7, 24584, Note_off_c, 6, 59, 64
7, 24584, Note_off_c, 6, 55, 64
7, 24584, Note_off_c, 6, 64, 64
7, 24768, Note_on_c, 6, 55, 41
7, 24768, Note_on_c, 6, 59, 41
7, 24768, Note_on_c, 6, 64, 41
7, 24776, Note_off_c, 6, 64, 64
7, 24776, Note_off_c, 6, 59, 64
7, 24776, Note_off_c, 6, 55, 64
7, 24960, Note_on_c, 6, 55, 42
7, 24960, Note_on_c, 6, 64, 41
7, 24960, Note_on_c, 6, 59, 45
7, 24968, Note_off_c, 6, 59, 64
7, 24968, Note_off_c, 6, 64, 64
7, 24968, Note_off_c, 6, 55, 64
7, 25152, Note_on_c, 6, 64, 41
7, 25152, Note_on_c, 6, 55, 41
7, 25152, Note_on_c, 6, 59, 41
7, 25160, Note_off_c, 6, 59, 64
7, 25160, Note_off_c, 6, 55, 64
7, 25160, Note_off_c, 6, 64, 64
7, 25344, Note_on_c, 6, 55, 45
7, 25344, Note_on_c, 6, 64, 41
7, 25344, Note_on_c, 6, 59, 48
7, 25352, Note_off_c, 6, 59, 64
7, 25352, Note_off_c, 6, 64, 64
7, 25352, Note_off_c, 6, 55, 64
7, 25536, Note_on_c, 6, 55, 41
7, 25536, Note_on_c, 6, 59, 41
7, 25536, Note_on_c, 6, 64, 41
7, 25544, Note_off_c, 6, 64, 64
7, 25544, Note_off_c, 6, 59, 64
7, 25544, Note_off_c, 6, 55, 64
7, 25728, Note_on_c, 6, 64, 41
7, 25728, Note_on_c, 6, 55, 41
7, 25728, Note_on_c, 6, 59, 44
7, 25736, Note_off_c, 6, 59, 64
7, 25736, Note_off_c, 6, 55, 64
7, 25736, Note_off_c, 6, 64, 64
7, 25920, Note_on_c, 6, 64, 41
7, 25920, Note_on_c, 6, 55, 41
7, 25920, Note_on_c, 6, 59, 41
7, 25928, Note_off_c, 6, 59, 64
7, 25928, Note_off_c, 6, 55, 64
7, 25928, Note_off_c, 6, 64, 64
7, 26088, Control_c, 6, 64, 0
7, 26112, Control_c, 6, 64, 127
7, 26112, Note_on_c, 6, 63, 41
7, 26112, Note_on_c, 6, 59, 44
7, 26112, Note_on_c, 6, 54, 43
7, 26120, Note_off_c, 6, 54, 64
7, 26120, Note_off_c, 6, 59, 64
7, 26120, Note_off_c, 6, 63, 64
7, 26304, Note_on_c, 6, 63, 41
7, 26304, Note_on_c, 6, 59, 41
7, 26304, Note_on_c, 6, 54, 41
7, 26312, Note_off_c, 6, 54, 64
7, 26312, Note_off_c, 6, 59, 64
7, 26312, Note_off_c, 6, 63, 64
7, 26496, Note_on_c, 6, 63, 44
7, 26496, Note_on_c, 6, 54, 45
7, 26496, Note_on_c, 6, 59, 46
7, 26504, Note_off_c, 6, 59, 64
7, 26504, Note_off_c, 6, 54, 64
7, 26504, Note_off_c, 6, 63, 64
7, 26688, Note_on_c, 6, 63, 41
7, 26688, Note_on_c, 6, 59, 41
7, 26688, Note_on_c, 6, 54, 41
7, 26696, Note_off_c, 6, 54, 64
7, 26696, Note_off_c, 6, 59, 64
7, 26696, Note_off_c, 6, 63, 64
7, 26880, Note_on_c, 6, 63, 41
7, 26880, Note_on_c, 6, 54, 42
7, 26880, Note_on_c, 6, 59, 41
7, 26888, Note_off_c, 6, 59, 64
7, 26888, Note_off_c, 6, 54, 64
7, 26888, Note_off_c, 6, 63, 64
7, 27072, Note_on_c, 6, 63, 41
7, 27072, Note_on_c, 6, 59, 41
7, 27072, Note_on_c, 6, 54, 41
7, 27080, Note_off_c, 6, 54, 64
7, 27080, Note_off_c, 6, 59, 64
7, 27080, Note_off_c, 6, 63, 64
7, 27264, Note_on_c, 6, 63, 41
7, 27264, Note_on_c, 6, 54, 41
7, 27264, Note_on_c, 6, 59, 49
7, 27272, Note_off_c, 6, 59, 64
7, 27272, Note_off_c, 6, 54, 64
7, 27272, Note_off_c, 6, 63, 64
7, 27456, Note_on_c, 6, 63, 41
7, 27456, Note_on_c, 6, 59, 41
7, 27464, Note_off_c, 6, 59, 64
7, 27464, Note_off_c, 6, 63, 64
7, 27552, Note_on_c, 6, 54, 41
7, 27560, Note_off_c, 6, 54, 64
7, 27624, Control_c, 6, 64, 0
7, 27648, Control_c, 6, 64, 127
7, 27648, Note_on_c, 6, 63, 44
7, 27648, Note_on_c, 6, 54, 44
7, 27648, Note_on_c, 6, 59, 45
7, 27656, Note_off_c, 6, 59, 64
7, 27656, Note_off_c, 6, 54, 64
7, 27656, Note_off_c, 6, 63, 64
7, 27840, Note_on_c, 6, 59, 41
7, 27840, Note_on_c, 6, 63, 41
7, 27840, Note_on_c, 6, 54, 41
7, 27848, Note_off_c, 6, 54, 64
7, 27848, Note_off_c, 6, 63, 64
7, 27848, Note_off_c, 6, 59, 64
7, 28032, Note_on_c, 6, 63, 51
7, 28032, Note_on_c, 6, 54, 41
7, 28032, Note_on_c, 6, 59, 41
7, 28040, Note_off_c, 6, 59, 64
7, 28040, Note_off_c, 6, 54, 64
7, 28040, Note_off_c, 6, 63, 64
7, 28224, Note_on_c, 6, 63, 41
7, 28224, Note_on_c, 6, 54, 41
7, 28224, Note_on_c, 6, 59, 41
7, 28232, Note_off_c, 6, 59, 64
7, 28232, Note_off_c, 6, 54, 64
7, 28232, Note_off_c, 6, 63, 64
7, 28368, Control_c, 6, 64, 0
7, 28416, Control_c, 6, 64, 127
7, 28416, Note_on_c, 6, 59, 52
7, 28416, Note_on_c, 6, 64, 51
7, 28416, Note_on_c, 6, 55, 57
7, 28424, Note_off_c, 6, 55, 64
7, 28424, Note_off_c, 6, 64, 64
7, 28424, Note_off_c, 6, 59, 64
7, 28608, Note_on_c, 6, 64, 41
7, 28608, Note_on_c, 6, 55, 41
7, 28608, Note_on_c, 6, 59, 41
7, 28616, Note_off_c, 6, 59, 64
7, 28616, Note_off_c, 6, 55, 64
7, 28616, Note_off_c, 6, 64, 64
7, 28752, Control_c, 6, 64, 0
7, 28800, Control_c, 6, 64, 127
7, 28800, Note_on_c, 6, 63, 41
7, 28800, Note_on_c, 6, 59, 44
7, 28800, Note_on_c, 6, 54, 45
7, 28808, Note_off_c, 6, 54, 64
7, 28808, Note_off_c, 6, 59, 64
7, 28808, Note_off_c, 6, 63, 64
7, 28992, Note_on_c, 6, 63, 41
7, 28992, Note_on_c, 6, 54, 41
7, 28992, Note_on_c, 6, 59, 41
7, 29000, Note_off_c, 6, 59, 64
7, 29000, Note_off_c, 6, 54, 64
7, 29000, Note_off_c, 6, 63, 64
7, 29160, Control_c, 6, 64, 0
7, 29184, Control_c, 6, 64, 127
7, 29184, Note_on_c, 6, 64, 49
7, 29184, Note_on_c, 6, 55, 53
7, 29184, Note_on_c, 6, 59, 56
7, 29192, Note_off_c, 6, 59, 64
7, 29192, Note_off_c, 6, 55, 64
7, 29192, Note_off_c, 6, 64, 64
7, 29376, Note_on_c, 6, 64, 41
7, 29376, Note_on_c, 6, 55, 41
7, 29376, Note_on_c, 6, 59, 41
7, 29384, Note_off_c, 6, 59, 64
7, 29384, Note_off_c, 6, 55, 64
7, 29384, Note_off_c, 6, 64, 64
7, 29568, Note_on_c, 6, 64, 55
7, 29568, Note_on_c, 6, 55, 60
7, 29568, Note_on_c, 6, 59, 59
7, 29576, Note_off_c, 6, 59, 64
7, 29576, Note_off_c, 6, 55, 64
7, 29576, Note_off_c, 6, 64, 64
7, 29760, Note_on_c, 6, 59, 41
7, 29760, Note_on_c, 6, 55, 41
7, 29768, Note_off_c, 6, 55, 64
7, 29768, Note_off_c, 6, 59, 64
7, 29904, Control_c, 6, 64, 0
7, 29952, Control_c, 6, 64, 127
7, 29952, Note_on_c, 6, 62, 45
7, 29952, Note_on_c, 6, 54, 50
7, 29952, Note_on_c, 6, 57, 47
7, 29960, Note_off_c, 6, 57, 64
7, 29960, Note_off_c, 6, 54, 64
7, 29960, Note_off_c, 6, 62, 64
7, 30144, Note_on_c, 6, 62, 41
7, 30144, Note_on_c, 6, 57, 41
7, 30144, Note_on_c, 6, 54, 41
7, 30152, Note_off_c, 6, 54, 64
7, 30152, Note_off_c, 6, 57, 64
7, 30152, Note_off_c, 6, 62, 64
7, 30336, Note_on_c, 6, 62, 42
7, 30336, Note_on_c, 6, 54, 50
7, 30336, Note_on_c, 6, 57, 45
7, 30344, Note_off_c, 6, 57, 64
7, 30344, Note_off_c, 6, 54, 64
7, 30344, Note_off_c, 6, 62, 64
7, 30528, Note_on_c, 6, 62, 41
7, 30528, Note_on_c, 6, 57, 41
7, 30528, Note_on_c, 6, 54, 41
7, 30536, Note_off_c, 6, 54, 64
7, 30536, Note_off_c, 6, 57, 64
7, 30536, Note_off_c, 6, 62, 64
7, 30696, Control_c, 6, 64, 0
7, 30720, Control_c, 6, 64, 127
7, 30720, Note_on_c, 6, 55, 53
7, 30720, Note_on_c, 6, 59, 56
7, 30720, Note_on_c, 6, 62, 49
7, 30728, Note_off_c, 6, 62, 64
7, 30728, Note_off_c, 6, 59, 64
7, 30728, Note_off_c, 6, 55, 64
7, 30912, Note_on_c, 6, 55, 41
7, 30912, Note_on_c, 6, 59, 41
7, 30912, Note_on_c, 6, 62, 41
7, 30920, Note_off_c, 6, 62, 64
7, 30920, Note_off_c, 6, 59, 64
7, 30920, Note_off_c, 6, 55, 64
7, 31104, Note_on_c, 6, 55, 60
7, 31104, Note_on_c, 6, 59, 59
7, 31104, Note_on_c, 6, 62, 55
7, 31112, Note_off_c, 6, 62, 64
7, 31112, Note_off_c, 6, 59, 64
7, 31112, Note_off_c, 6, 55, 64
7, 31296, Note_on_c, 6, 59, 41
7, 31296, Note_on_c, 6, 55, 41
7, 31304, Note_off_c, 6, 55, 64
7, 31304, Note_off_c, 6, 59, 64
7, 31440, Control_c, 6, 64, 0
7, 31488, Control_c, 6, 64, 127
7, 31488, Note_on_c, 6, 66, 45
7, 31488, Note_on_c, 6, 57, 47
7, 31488, Note_on_c, 6, 62, 50
7, 31496, Note_off_c, 6, 62, 64
7, 31496, Note_off_c, 6, 57, 64
7, 31496, Note_off_c, 6, 66, 64
7, 31680, Note_on_c, 6, 66, 41
7, 31680, Note_on_c, 6, 57, 41
7, 31680, Note_on_c, 6, 62, 41
7, 31688, Note_off_c, 6, 62, 64
7, 31688, Note_off_c, 6, 57, 64
7, 31688, Note_off_c, 6, 66, 64
7, 31872, Note_on_c, 6, 66, 42
7, 31872, Note_on_c, 6, 57, 45
7, 31872, Note_on_c, 6, 62, 50
7, 31880, Note_off_c, 6, 62, 64
7, 31880, Note_off_c, 6, 57, 64
7, 31880, Note_off_c, 6, 66, 64
7, 32064, Note_on_c, 6, 66, 41
7, 32064, Note_on_c, 6, 57, 41
7, 32064, Note_on_c, 6, 62, 41
7, 32072, Note_off_c, 6, 62, 64
7, 32072, Note_off_c, 6, 57, 64
7, 32072, Note_off_c, 6, 66, 64
7, 32232, Control_c, 6, 64, 0
7, 32256, Control_c, 6, 64, 127
7, 32256, Note_on_c, 6, 64, 49
7, 32256, Note_on_c, 6, 55, 53
7, 32256, Note_on_c, 6, 59, 56
7, 32264, Note_off_c, 6, 59, 64
7, 32264, Note_off_c, 6, 55, 64
7, 32264, Note_off_c, 6, 64, 64
7, 32448, Note_on_c, 6, 64, 41
7, 32448, Note_on_c, 6, 55, 41
7, 32448, Note_on_c, 6, 59, 41
7, 32456, Note_off_c, 6, 59, 64
7, 32456, Note_off_c, 6, 55, 64
7, 32456, Note_off_c, 6, 64, 64
7, 32640, Note_on_c, 6, 64, 55
7, 32640, Note_on_c, 6, 55, 60
7, 32640, Note_on_c, 6, 59, 59
7, 32648, Note_off_c, 6, 59, 64
7, 32648, Note_off_c, 6, 55, 64
7, 32648, Note_off_c, 6, 64, 64
7, 32832, Note_on_c, 6, 59, 41
7, 32832, Note_on_c, 6, 55, 41
7, 32840, Note_off_c, 6, 55, 64
7, 32840, Note_off_c, 6, 59, 64
7, 33024, Note_on_c, 6, 59, 47
7, 33024, Note_on_c, 6, 55, 50
7, 33024, Note_on_c, 6, 64, 45
7, 33032, Note_off_c, 6, 64, 64
7, 33032, Note_off_c, 6, 55, 64
7, 33032, Note_off_c, 6, 59, 64
7, 33216, Note_on_c, 6, 59, 41
7, 33216, Note_on_c, 6, 64, 41
7, 33216, Note_on_c, 6, 55, 41
7, 33224, Note_off_c, 6, 55, 64
7, 33224, Note_off_c, 6, 64, 64
7, 33224, Note_off_c, 6, 59, 64
7, 33408, Note_on_c, 6, 64, 42
7, 33408, Note_on_c, 6, 55, 50
7, 33408, Note_on_c, 6, 59, 45
7, 33416, Note_off_c, 6, 59, 64
7, 33416, Note_off_c, 6, 55, 64
7, 33416, Note_off_c, 6, 64, 64
7, 33600, Note_on_c, 6, 59, 41
7, 33600, Note_on_c, 6, 64, 41
7, 33600, Note_on_c, 6, 55, 41
7, 33608, Note_off_c, 6, 55, 64
7, 33608, Note_off_c, 6, 64, 64
7, 33608, Note_off_c, 6, 59, 64
7, 33768, Control_c, 6, 64, 0
7, 33792, Control_c, 6, 64, 127
7, 33792, Note_on_c, 6, 64, 49
7, 33792, Note_on_c, 6, 55, 53
7, 33792, Note_on_c, 6, 59, 56
7, 33800, Note_off_c, 6, 59, 64
7, 33800, Note_off_c, 6, 55, 64
7, 33800, Note_off_c, 6, 64, 64
7, 33984, Note_on_c, 6, 64, 41
7, 33984, Note_on_c, 6, 55, 41
7, 33984, Note_on_c, 6, 59, 41
7, 33992, Note_off_c, 6, 59, 64
7, 33992, Note_off_c, 6, 55, 64
7, 33992, Note_off_c, 6, 64, 64
7, 34176, Note_on_c, 6, 64, 55
7, 34176, Note_on_c, 6, 55, 60
7, 34176, Note_on_c, 6, 59, 59
7, 34184, Note_off_c, 6, 59, 64
7, 34184, Note_off_c, 6, 55, 64
7, 34184, Note_off_c, 6, 64, 64
7, 34368, Note_on_c, 6, 59, 41
7, 34368, Note_on_c, 6, 55, 41
7, 34376, Note_off_c, 6, 55, 64
7, 34376, Note_off_c, 6, 59, 64
7, 34560, Note_on_c, 6, 59, 47
7, 34560, Note_on_c, 6, 55, 50
7, 34560, Note_on_c, 6, 64, 45
7, 34568, Note_off_c, 6, 64, 64
7, 34568, Note_off_c, 6, 55, 64
7, 34568, Note_off_c, 6, 59, 64
7, 34752, Note_on_c, 6, 59, 41
7, 34752, Note_on_c, 6, 64, 41
7, 34752, Note_on_c, 6, 55, 41
7, 34760, Note_off_c, 6, 55, 64
7, 34760, Note_off_c, 6, 64, 64
7, 34760, Note_off_c, 6, 59, 64
7, 34944, Note_on_c, 6, 64, 42
7, 34944, Note_on_c, 6, 55, 50
7, 34944, Note_on_c, 6, 59, 45
7, 34952, Note_off_c, 6, 59, 64
7, 34952, Note_off_c, 6, 55, 64
7, 34952, Note_off_c, 6, 64, 64
7, 35136, Note_on_c, 6, 59, 41
7, 35136, Note_on_c, 6, 64, 41
7, 35136, Note_on_c, 6, 55, 41
7, 35144, Note_off_c, 6, 55, 64
7, 35144, Note_off_c, 6, 64, 64
7, 35144, Note_off_c, 6, 59, 64
7, 35304, Control_c, 6, 64, 0
7, 35328, Control_c, 6, 64, 127
7, 35328, Note_on_c, 6, 64, 49
7, 35328, Note_on_c, 6, 55, 53
7, 35328, Note_on_c, 6, 59, 56
7, 35336, Note_off_c, 6, 59, 64
7, 35336, Note_off_c, 6, 55, 64
7, 35336, Note_off_c, 6, 64, 64
7, 35520, Note_on_c, 6, 64, 41
7, 35520, Note_on_c, 6, 55, 41
7, 35520, Note_on_c, 6, 59, 41
7, 35528, Note_off_c, 6, 59, 64
7, 35528, Note_off_c, 6, 55, 64
7, 35528, Note_off_c, 6, 64, 64
7, 35712, Note_on_c, 6, 64, 55
7, 35712, Note_on_c, 6, 55, 60
7, 35712, Note_on_c, 6, 59, 59
7, 35720, Note_off_c, 6, 59, 64
7, 35720, Note_off_c, 6, 55, 64
7, 35720, Note_off_c, 6, 64, 64
7, 35904, Note_on_c, 6, 59, 41
7, 35904, Note_on_c, 6, 55, 41
7, 35912, Note_off_c, 6, 55, 64
7, 35912, Note_off_c, 6, 59, 64
7, 36048, Control_c, 6, 64, 0
7, 36096, Control_c, 6, 64, 127
7, 36096, Note_on_c, 6, 62, 45
7, 36096, Note_on_c, 6, 54, 50
7, 36096, Note_on_c, 6, 57, 47
7, 36104, Note_off_c, 6, 57, 64
7, 36104, Note_off_c, 6, 54, 64
7, 36104, Note_off_c, 6, 62, 64
7, 36288, Note_on_c, 6, 62, 41
7, 36288, Note_on_c, 6, 57, 41
7, 36288, Note_on_c, 6, 54, 41
7, 36296, Note_off_c, 6, 54, 64
7, 36296, Note_off_c, 6, 57, 64
7, 36296, Note_off_c, 6, 62, 64
7, 36480, Note_on_c, 6, 62, 42
7, 36480, Note_on_c, 6, 54, 50
7, 36480, Note_on_c, 6, 57, 45
7, 36488, Note_off_c, 6, 57, 64
7, 36488, Note_off_c, 6, 54, 64
7, 36488, Note_off_c, 6, 62, 64
7, 36672, Note_on_c, 6, 62, 41
7, 36672, Note_on_c, 6, 57, 41
7, 36672, Note_on_c, 6, 54, 41
7, 36680, Note_off_c, 6, 54, 64
7, 36680, Note_off_c, 6, 57, 64
7, 36680, Note_off_c, 6, 62, 64
7, 36840, Control_c, 6, 64, 0
7, 36864, Control_c, 6, 64, 127
7, 36864, Note_on_c, 6, 55, 53
7, 36864, Note_on_c, 6, 59, 56
7, 36864, Note_on_c, 6, 62, 49
7, 36872, Note_off_c, 6, 62, 64
7, 36872, Note_off_c, 6, 59, 64
7, 36872, Note_off_c, 6, 55, 64
7, 37056, Note_on_c, 6, 55, 41
7, 37056, Note_on_c, 6, 59, 41
7, 37056, Note_on_c, 6, 62, 41
7, 37064, Note_off_c, 6, 62, 64
7, 37064, Note_off_c, 6, 59, 64
7, 37064, Note_off_c, 6, 55, 64
7, 37248, Note_on_c, 6, 55, 60
7, 37248, Note_on_c, 6, 59, 59
7, 37248, Note_on_c, 6, 62, 55
7, 37256, Note_off_c, 6, 62, 64
7, 37256, Note_off_c, 6, 59, 64
7, 37256, Note_off_c, 6, 55, 64
7, 37440, Note_on_c, 6, 59, 41
7, 37440, Note_on_c, 6, 55, 41
7, 37448, Note_off_c, 6, 55, 64
7, 37448, Note_off_c, 6, 59, 64
7, 37584, Control_c, 6, 64, 0
7, 37632, Control_c, 6, 64, 127
7, 37632, Note_on_c, 6, 66, 45
7, 37632, Note_on_c, 6, 57, 47
7, 37632, Note_on_c, 6, 62, 50
7, 37640, Note_off_c, 6, 62, 64
7, 37640, Note_off_c, 6, 57, 64
7, 37640, Note_off_c, 6, 66, 64
7, 37824, Note_on_c, 6, 66, 41
7, 37824, Note_on_c, 6, 57, 41
7, 37824, Note_on_c, 6, 62, 41
7, 37832, Note_off_c, 6, 62, 64
7, 37832, Note_off_c, 6, 57, 64
7, 37832, Note_off_c, 6, 66, 64
7, 38016, Note_on_c, 6, 66, 42
7, 38016, Note_on_c, 6, 57, 45
7, 38016, Note_on_c, 6, 62, 50
7, 38024, Note_off_c, 6, 62, 64
7, 38024, Note_off_c, 6, 57, 64
7, 38024, Note_off_c, 6, 66, 64
7, 38208, Note_on_c, 6, 66, 41
7, 38208, Note_on_c, 6, 57, 41
7, 38208, Note_on_c, 6, 62, 41
7, 38216, Note_off_c, 6, 62, 64
7, 38216, Note_off_c, 6, 57, 64
7, 38216, Note_off_c, 6, 66, 64
7, 38376, Control_c, 6, 64, 0
7, 38400, Control_c, 6, 64, 127
7, 38400, Note_on_c, 6, 61, 49
7, 38400, Note_on_c, 6, 52, 53
7, 38400, Note_on_c, 6, 57, 56
7, 38408, Note_off_c, 6, 57, 64
7, 38408, Note_off_c, 6, 52, 64
7, 38408, Note_off_c, 6, 61, 64
7, 38592, Note_on_c, 6, 61, 41
7, 38592, Note_on_c, 6, 52, 41
7, 38592, Note_on_c, 6, 57, 41
7, 38600, Note_off_c, 6, 57, 64
7, 38600, Note_off_c, 6, 52, 64
7, 38600, Note_off_c, 6, 61, 64
7, 38784, Note_on_c, 6, 61, 55
7, 38784, Note_on_c, 6, 52, 60
7, 38784, Note_on_c, 6, 57, 59
7, 38792, Note_off_c, 6, 57, 64
7, 38792, Note_off_c, 6, 52, 64
7, 38792, Note_off_c, 6, 61, 64
7, 38976, Note_on_c, 6, 52, 41
7, 38976, Note_on_c, 6, 57, 41
7, 38984, Note_off_c, 6, 57, 64
7, 38984, Note_off_c, 6, 52, 64
7, 39168, Note_on_c, 6, 52, 50
7, 39168, Note_on_c, 6, 61, 45
7, 39168, Note_on_c, 6, 57, 47
7, 39176, Note_off_c, 6, 57, 64
7, 39176, Note_off_c, 6, 61, 64
7, 39176, Note_off_c, 6, 52, 64
7, 39360, Note_on_c, 6, 61, 41
7, 39360, Note_on_c, 6, 52, 41
7, 39360, Note_on_c, 6, 57, 41
7, 39368, Note_off_c, 6, 57, 64
7, 39368, Note_off_c, 6, 52, 64
7, 39368, Note_off_c, 6, 61, 64
7, 39552, Note_on_c, 6, 61, 42
7, 39552, Note_on_c, 6, 52, 50
7, 39552, Note_on_c, 6, 57, 45
7, 39560, Note_off_c, 6, 57, 64
7, 39560, Note_off_c, 6, 52, 64
7, 39560, Note_off_c, 6, 61, 64
7, 39744, Note_on_c, 6, 61, 41
7, 39744, Note_on_c, 6, 52, 41
7, 39744, Note_on_c, 6, 57, 41
7, 39752, Note_off_c, 6, 57, 64
7, 39752, Note_off_c, 6, 52, 64
7, 39752, Note_off_c, 6, 61, 64
7, 39912, Control_c, 6, 64, 0
7, 39936, Control_c, 6, 64, 127
7, 39936, Note_on_c, 6, 63, 49
7, 39936, Note_on_c, 6, 54, 53
7, 39936, Note_on_c, 6, 59, 56
7, 39944, Note_off_c, 6, 59, 64
7, 39944, Note_off_c, 6, 54, 64
7, 39944, Note_off_c, 6, 63, 64
7, 40128, Note_on_c, 6, 63, 41
7, 40128, Note_on_c, 6, 54, 41
7, 40128, Note_on_c, 6, 59, 41
7, 40136, Note_off_c, 6, 59, 64
7, 40136, Note_off_c, 6, 54, 64
7, 40136, Note_off_c, 6, 63, 64
7, 40320, Note_on_c, 6, 63, 55
7, 40320, Note_on_c, 6, 54, 60
7, 40320, Note_on_c, 6, 59, 59
7, 40328, Note_off_c, 6, 59, 64
7, 40328, Note_off_c, 6, 54, 64
7, 40328, Note_off_c, 6, 63, 64
7, 40512, Note_on_c, 6, 54, 41
7, 40512, Note_on_c, 6, 59, 41
7, 40520, Note_off_c, 6, 59, 64
7, 40520, Note_off_c, 6, 54, 64
7, 40704, Note_on_c, 6, 54, 50
7, 40704, Note_on_c, 6, 63, 45
7, 40704, Note_on_c, 6, 59, 47
7, 40712, Note_off_c, 6, 59, 64
7, 40712, Note_off_c, 6, 63, 64
7, 40712, Note_off_c, 6, 54, 64
7, 40896, Note_on_c, 6, 63, 41
7, 40896, Note_on_c, 6, 54, 41
7, 40896, Note_on_c, 6, 59, 41
7, 40904, Note_off_c, 6, 59, 64
7, 40904, Note_off_c, 6, 54, 64
7, 40904, Note_off_c, 6, 63, 64
7, 41088, Note_on_c, 6, 63, 42
7, 41088, Note_on_c, 6, 54, 50
7, 41088, Note_on_c, 6, 59, 45
7, 41096, Note_off_c, 6, 59, 64
7, 41096, Note_off_c, 6, 54, 64
7, 41096, Note_off_c, 6, 63, 64
7, 41280, Note_on_c, 6, 63, 41
7, 41280, Note_on_c, 6, 54, 41
7, 41280, Note_on_c, 6, 59, 41
7, 41288, Note_off_c, 6, 59, 64
7, 41288, Note_off_c, 6, 54, 64
7, 41288, Note_off_c, 6, 63, 64
7, 41448, Control_c, 6, 64, 0
7, 41472, Control_c, 6, 64, 127
7, 41472, Note_on_c, 6, 64, 44
7, 41472, Note_on_c, 6, 55, 53
7, 41472, Note_on_c, 6, 59, 52
7, 41480, Note_off_c, 6, 59, 64
7, 41480, Note_off_c, 6, 55, 64
7, 41480, Note_off_c, 6, 64, 64
7, 41664, Note_on_c, 6, 59, 41
7, 41664, Note_on_c, 6, 64, 41
7, 41664, Note_on_c, 6, 55, 41
7, 41672, Note_off_c, 6, 55, 64
7, 41672, Note_off_c, 6, 64, 64
7, 41672, Note_off_c, 6, 59, 64
7, 41856, Note_on_c, 6, 64, 41
7, 41856, Note_on_c, 6, 55, 45
7, 41856, Note_on_c, 6, 59, 42
7, 41864, Note_off_c, 6, 59, 64
7, 41864, Note_off_c, 6, 55, 64
7, 41864, Note_off_c, 6, 64, 64
7, 42048, Note_on_c, 6, 64, 41
7, 42048, Note_on_c, 6, 59, 41
7, 42048, Note_on_c, 6, 55, 41
7, 42056, Note_off_c, 6, 55, 64
7, 42056, Note_off_c, 6, 59, 64
7, 42056, Note_off_c, 6, 64, 64
7, 42240, Note_on_c, 6, 55, 46
7, 42240, Note_on_c, 6, 64, 41
7, 42240, Note_on_c, 6, 59, 49
7, 42248, Note_off_c, 6, 59, 64
7, 42248, Note_off_c, 6, 64, 64
7, 42248, Note_off_c, 6, 55, 64
7, 42432, Note_on_c, 6, 64, 41
7, 42432, Note_on_c, 6, 59, 41
7, 42432, Note_on_c, 6, 55, 41
7, 42440, Note_off_c, 6, 55, 64
7, 42440, Note_off_c, 6, 59, 64
7, 42440, Note_off_c, 6, 64, 64
7, 42624, Note_on_c, 6, 55, 45
7, 42624, Note_on_c, 6, 64, 41
7, 42624, Note_on_c, 6, 59, 54
7, 42632, Note_off_c, 6, 59, 64
7, 42632, Note_off_c, 6, 64, 64
7, 42632, Note_off_c, 6, 55, 64
7, 42816, Note_on_c, 6, 64, 41
7, 42816, Note_on_c, 6, 59, 41
7, 42816, Note_on_c, 6, 55, 41
7, 42824, Note_off_c, 6, 55, 64
7, 42824, Note_off_c, 6, 59, 64
7, 42824, Note_off_c, 6, 64, 64
7, 42984, Control_c, 6, 64, 0
7, 43008, Control_c, 6, 64, 127
7, 43008, Note_on_c, 6, 64, 48
7, 43008, Note_on_c, 6, 55, 50
7, 43008, Note_on_c, 6, 59, 56
7, 43016, Note_off_c, 6, 59, 64
7, 43016, Note_off_c, 6, 55, 64
7, 43016, Note_off_c, 6, 64, 64
7, 43200, Note_on_c, 6, 55, 41
7, 43200, Note_on_c, 6, 59, 41
7, 43200, Note_on_c, 6, 64, 41
7, 43208, Note_off_c, 6, 64, 64
7, 43208, Note_off_c, 6, 59, 64
7, 43208, Note_off_c, 6, 55, 64
7, 43392, Note_on_c, 6, 55, 42
7, 43392, Note_on_c, 6, 64, 41
7, 43392, Note_on_c, 6, 59, 45
7, 43400, Note_off_c, 6, 59, 64
7, 43400, Note_off_c, 6, 64, 64
7, 43400, Note_off_c, 6, 55, 64
7, 43584, Note_on_c, 6, 64, 41
7, 43584, Note_on_c, 6, 55, 41
7, 43584, Note_on_c, 6, 59, 41
7, 43592, Note_off_c, 6, 59, 64
7, 43592, Note_off_c, 6, 55, 64
7, 43592, Note_off_c, 6, 64, 64
7, 43776, Note_on_c, 6, 55, 45
7, 43776, Note_on_c, 6, 64, 41
7, 43776, Note_on_c, 6, 59, 48
7, 43784, Note_off_c, 6, 59, 64
7, 43784, Note_off_c, 6, 64, 64
7, 43784, Note_off_c, 6, 55, 64
7, 43968, Note_on_c, 6, 55, 41
7, 43968, Note_on_c, 6, 59, 41
7, 43968, Note_on_c, 6, 64, 41
7, 43976, Note_off_c, 6, 64, 64
7, 43976, Note_off_c, 6, 59, 64
7, 43976, Note_off_c, 6, 55, 64
7, 44160, Note_on_c, 6, 64, 41
7, 44160, Note_on_c, 6, 55, 41
7, 44160, Note_on_c, 6, 59, 44
7, 44168, Note_off_c, 6, 59, 64
7, 44168, Note_off_c, 6, 55, 64
7, 44168, Note_off_c, 6, 64, 64
7, 44352, Note_on_c, 6, 64, 41
7, 44352, Note_on_c, 6, 55, 41
7, 44352, Note_on_c, 6, 59, 41
7, 44360, Note_off_c, 6, 59, 64
7, 44360, Note_off_c, 6, 55, 64
7, 44360, Note_off_c, 6, 64, 64
7, 44520, Control_c, 6, 64, 0
7, 44544, Control_c, 6, 64, 127
7, 44544, Note_on_c, 6, 63, 41
7, 44544, Note_on_c, 6, 59, 44
7, 44544, Note_on_c, 6, 54, 43
7, 44552, Note_off_c, 6, 54, 64
7, 44552, Note_off_c, 6, 59, 64
7, 44552, Note_off_c, 6, 63, 64
7, 44736, Note_on_c, 6, 63, 41
7, 44736, Note_on_c, 6, 59, 41
7, 44736, Note_on_c, 6, 54, 41
7, 44744, Note_off_c, 6, 54, 64
7, 44744, Note_off_c, 6, 59, 64
7, 44744, Note_off_c, 6, 63, 64
7, 44928, Note_on_c, 6, 63, 44
7, 44928, Note_on_c, 6, 54, 45
7, 44928, Note_on_c, 6, 59, 46
7, 44936, Note_off_c, 6, 59, 64
7, 44936, Note_off_c, 6, 54, 64
7, 44936, Note_off_c, 6, 63, 64
7, 45120, Note_on_c, 6, 63, 41
7, 45120, Note_on_c, 6, 59, 41
7, 45120, Note_on_c, 6, 54, 41
7, 45128, Note_off_c, 6, 54, 64
7, 45128, Note_off_c, 6, 59, 64
7, 45128, Note_off_c, 6, 63, 64
7, 45312, Note_on_c, 6, 63, 41
7, 45312, Note_on_c, 6, 54, 42
7, 45312, Note_on_c, 6, 59, 41
7, 45320, Note_off_c, 6, 59, 64
7, 45320, Note_off_c, 6, 54, 64
7, 45320, Note_off_c, 6, 63, 64
7, 45504, Note_on_c, 6, 63, 41
7, 45504, Note_on_c, 6, 59, 41
7, 45504, Note_on_c, 6, 54, 41
7, 45512, Note_off_c, 6, 54, 64
7, 45512, Note_off_c, 6, 59, 64
7, 45512, Note_off_c, 6, 63, 64
7, 45696, Note_on_c, 6, 63, 41
7, 45696, Note_on_c, 6, 54, 41
7, 45696, Note_on_c, 6, 59, 49
7, 45704, Note_off_c, 6, 59, 64
7, 45704, Note_off_c, 6, 54, 64
7, 45704, Note_off_c, 6, 63, 64
7, 45888, Note_on_c, 6, 63, 41
7, 45888, Note_on_c, 6, 59, 41
7, 45896, Note_off_c, 6, 59, 64
7, 45896, Note_off_c, 6, 63, 64
7, 45984, Note_on_c, 6, 54, 41
7, 45992, Note_off_c, 6, 54, 64
7, 46056, Control_c, 6, 64, 0
7, 46080, Control_c, 6, 64, 127
7, 46080, Note_on_c, 6, 63, 44
7, 46080, Note_on_c, 6, 54, 44
7, 46080, Note_on_c, 6, 59, 45
7, 46088, Note_off_c, 6, 59, 64
7, 46088, Note_off_c, 6, 54, 64
7, 46088, Note_off_c, 6, 63, 64
7, 46272, Note_on_c, 6, 59, 41
7, 46272, Note_on_c, 6, 63, 41
7, 46272, Note_on_c, 6, 54, 41
7, 46280, Note_off_c, 6, 54, 64
7, 46280, Note_off_c, 6, 63, 64
7, 46280, Note_off_c, 6, 59, 64
7, 46464, Note_on_c, 6, 63, 51
7, 46464, Note_on_c, 6, 54, 41
7, 46464, Note_on_c, 6, 59, 41
7, 46472, Note_off_c, 6, 59, 64
7, 46472, Note_off_c, 6, 54, 64
7, 46472, Note_off_c, 6, 63, 64
7, 46656, Note_on_c, 6, 63, 41
7, 46656, Note_on_c, 6, 54, 41
7, 46656, Note_on_c, 6, 59, 41
7, 46664, Note_off_c, 6, 59, 64
7, 46664, Note_off_c, 6, 54, 64
7, 46664, Note_off_c, 6, 63, 64
7, 46800, Control_c, 6, 64, 0
7, 46848, Control_c, 6, 64, 127
7, 46848, Note_on_c, 6, 59, 52
7, 46848, Note_on_c, 6, 64, 51
7, 46848, Note_on_c, 6, 55, 57
7, 46856, Note_off_c, 6, 55, 64
7, 46856, Note_off_c, 6, 64, 64
7, 46856, Note_off_c, 6, 59, 64
7, 47040, Note_on_c, 6, 64, 41
7, 47040, Note_on_c, 6, 55, 41
7, 47040, Note_on_c, 6, 59, 41
7, 47048, Note_off_c, 6, 59, 64
7, 47048, Note_off_c, 6, 55, 64
7, 47048, Note_off_c, 6, 64, 64
7, 47184, Control_c, 6, 64, 0
7, 47232, Control_c, 6, 64, 127
7, 47232, Note_on_c, 6, 63, 41
7, 47232, Note_on_c, 6, 59, 44
7, 47232, Note_on_c, 6, 54, 45
7, 47240, Note_off_c, 6, 54, 64
7, 47240, Note_off_c, 6, 59, 64
7, 47240, Note_off_c, 6, 63, 64
7, 47424, Note_on_c, 6, 63, 41
7, 47424, Note_on_c, 6, 54, 41
7, 47424, Note_on_c, 6, 59, 41
7, 47432, Note_off_c, 6, 59, 64
7, 47432, Note_off_c, 6, 54, 64
7, 47432, Note_off_c, 6, 63, 64
7, 47592, Control_c, 6, 64, 0
7, 47616, Control_c, 6, 64, 127
7, 47616, Note_on_c, 6, 64, 44
7, 47616, Note_on_c, 6, 55, 53
7, 47616, Note_on_c, 6, 59, 52
7, 47624, Note_off_c, 6, 59, 64
7, 47624, Note_off_c, 6, 55, 64
7, 47624, Note_off_c, 6, 64, 64
7, 47808, Note_on_c, 6, 59, 41
7, 47808, Note_on_c, 6, 64, 41
7, 47808, Note_on_c, 6, 55, 41
7, 47816, Note_off_c, 6, 55, 64
7, 47816, Note_off_c, 6, 64, 64
7, 47816, Note_off_c, 6, 59, 64
7, 48000, Note_on_c, 6, 64, 41
7, 48000, Note_on_c, 6, 55, 45
7, 48000, Note_on_c, 6, 59, 42
7, 48008, Note_off_c, 6, 59, 64
7, 48008, Note_off_c, 6, 55, 64
7, 48008, Note_off_c, 6, 64, 64
7, 48192, Note_on_c, 6, 64, 41
7, 48192, Note_on_c, 6, 59, 41
7, 48192, Note_on_c, 6, 55, 41
7, 48200, Note_off_c, 6, 55, 64
7, 48200, Note_off_c, 6, 59, 64
7, 48200, Note_off_c, 6, 64, 64
7, 48384, Note_on_c, 6, 55, 46
7, 48384, Note_on_c, 6, 64, 41
7, 48384, Note_on_c, 6, 59, 49
7, 48392, Note_off_c, 6, 59, 64
7, 48392, Note_off_c, 6, 64, 64
7, 48392, Note_off_c, 6, 55, 64
7, 48576, Note_on_c, 6, 64, 41
7, 48576, Note_on_c, 6, 59, 41
7, 48576, Note_on_c, 6, 55, 41
7, 48584, Note_off_c, 6, 55, 64
7, 48584, Note_off_c, 6, 59, 64
7, 48584, Note_off_c, 6, 64, 64
7, 48768, Note_on_c, 6, 55, 45
7, 48768, Note_on_c, 6, 64, 41
7, 48768, Note_on_c, 6, 59, 54
7, 48776, Note_off_c, 6, 59, 64
7, 48776, Note_off_c, 6, 64, 64
7, 48776, Note_off_c, 6, 55, 64
7, 48960, Note_on_c, 6, 64, 41
7, 48960, Note_on_c, 6, 59, 41
7, 48960, Note_on_c, 6, 55, 41
7, 48968, Note_off_c, 6, 55, 64
7, 48968, Note_off_c, 6, 59, 64
7, 48968, Note_off_c, 6, 64, 64
7, 49128, Control_c, 6, 64, 0
7, 49152, Control_c, 6, 64, 127
7, 49152, Note_on_c, 6, 64, 48
7, 49152, Note_on_c, 6, 55, 50
7, 49152, Note_on_c, 6, 59, 56
7, 49160, Note_off_c, 6, 59, 64
7, 49160, Note_off_c, 6, 55, 64
7, 49160, Note_off_c, 6, 64, 64
7, 49344, Note_on_c, 6, 55, 41
7, 49344, Note_on_c, 6, 59, 41
7, 49344, Note_on_c, 6, 64, 41
7, 49352, Note_off_c, 6, 64, 64
7, 49352, Note_off_c, 6, 59, 64
7, 49352, Note_off_c, 6, 55, 64
7, 49536, Note_on_c, 6, 55, 42
7, 49536, Note_on_c, 6, 64, 41
7, 49536, Note_on_c, 6, 59, 45
7, 49544, Note_off_c, 6, 59, 64
7, 49544, Note_off_c, 6, 64, 64
7, 49544, Note_off_c, 6, 55, 64
7, 49728, Note_on_c, 6, 64, 41
7, 49728, Note_on_c, 6, 55, 41
7, 49728, Note_on_c, 6, 59, 41
7, 49736, Note_off_c, 6, 59, 64
7, 49736, Note_off_c, 6, 55, 64
7, 49736, Note_off_c, 6, 64, 64
7, 49920, Note_on_c, 6, 55, 45
7, 49920, Note_on_c, 6, 64, 41
7, 49920, Note_on_c, 6, 59, 48
7, 49928, Note_off_c, 6, 59, 64
7, 49928, Note_off_c, 6, 64, 64
7, 49928, Note_off_c, 6, 55, 64
7, 50112, Note_on_c, 6, 55, 41
7, 50112, Note_on_c, 6, 59, 41
7, 50112, Note_on_c, 6, 64, 41
7, 50120, Note_off_c, 6, 64, 64
7, 50120, Note_off_c, 6, 59, 64
7, 50120, Note_off_c, 6, 55, 64
7, 50304, Note_on_c, 6, 64, 41
7, 50304, Note_on_c, 6, 55, 41
7, 50304, Note_on_c, 6, 59, 44
7, 50312, Note_off_c, 6, 59, 64
7, 50312, Note_off_c, 6, 55, 64
7, 50312, Note_off_c, 6, 64, 64
7, 50496, Note_on_c, 6, 64, 41
7, 50496, Note_on_c, 6, 55, 41
7, 50496, Note_on_c, 6, 59, 41
7, 50504, Note_off_c, 6, 59, 64
7, 50504, Note_off_c, 6, 55, 64
7, 50504, Note_off_c, 6, 64, 64
7, 50664, Control_c, 6, 64, 0
7, 50688, Control_c, 6, 64, 127
7, 50688, Note_on_c, 6, 63, 41
7, 50688, Note_on_c, 6, 59, 44
7, 50688, Note_on_c, 6, 54, 43
7, 50696, Note_off_c, 6, 54, 64
7, 50696, Note_off_c, 6, 59, 64
7, 50696, Note_off_c, 6, 63, 64
7, 50880, Note_on_c, 6, 63, 41
7, 50880, Note_on_c, 6, 59, 41
7, 50880, Note_on_c, 6, 54, 41
7, 50888, Note_off_c, 6, 54, 64
7, 50888, Note_off_c, 6, 59, 64
7, 50888, Note_off_c, 6, 63, 64
7, 51072, Note_on_c, 6, 63, 44
7, 51072, Note_on_c, 6, 54, 45
7, 51072, Note_on_c, 6, 59, 46
7, 51080, Note_off_c, 6, 59, 64
7, 51080, Note_off_c, 6, 54, 64
7, 51080, Note_off_c, 6, 63, 64
7, 51264, Note_on_c, 6, 63, 41
7, 51264, Note_on_c, 6, 59, 41
7, 51264, Note_on_c, 6, 54, 41
7, 51272, Note_off_c, 6, 54, 64
7, 51272, Note_off_c, 6, 59, 64
7, 51272, Note_off_c, 6, 63, 64
7, 51456, Note_on_c, 6, 63, 41
7, 51456, Note_on_c, 6, 54, 42
7, 51456, Note_on_c, 6, 59, 41
7, 51464, Note_off_c, 6, 59, 64
7, 51464, Note_off_c, 6, 54, 64
7, 51464, Note_off_c, 6, 63, 64
7, 51648, Note_on_c, 6, 63, 41
7, 51648, Note_on_c, 6, 59, 41
7, 51648, Note_on_c, 6, 54, 41
7, 51656, Note_off_c, 6, 54, 64
7, 51656, Note_off_c, 6, 59, 64
7, 51656, Note_off_c, 6, 63, 64
7, 51840, Note_on_c, 6, 63, 41
7, 51840, Note_on_c, 6, 54, 41
7, 51840, Note_on_c, 6, 59, 49
7, 51848, Note_off_c, 6, 59, 64
7, 51848, Note_off_c, 6, 54, 64
7, 51848, Note_off_c, 6, 63, 64
7, 52032, Note_on_c, 6, 63, 41
7, 52032, Note_on_c, 6, 59, 41
7, 52040, Note_off_c, 6, 59, 64
7, 52040, Note_off_c, 6, 63, 64
7, 52128, Note_on_c, 6, 54, 41
7, 52136, Note_off_c, 6, 54, 64
7, 52200, Control_c, 6, 64, 0
7, 52224, Control_c, 6, 64, 127
7, 52224, Note_on_c, 6, 63, 44
7, 52224, Note_on_c, 6, 54, 44
7, 52224, Note_on_c, 6, 59, 45
7, 52232, Note_off_c, 6, 59, 64
7, 52232, Note_off_c, 6, 54, 64
7, 52232, Note_off_c, 6, 63, 64
7, 52416, Note_on_c, 6, 59, 41
7, 52416, Note_on_c, 6, 63, 41
7, 52416, Note_on_c, 6, 54, 41
7, 52424, Note_off_c, 6, 54, 64
7, 52424, Note_off_c, 6, 63, 64
7, 52424, Note_off_c, 6, 59, 64
7, 52608, Note_on_c, 6, 63, 51
7, 52608, Note_on_c, 6, 54, 41
7, 52608, Note_on_c, 6, 59, 41
7, 52616, Note_off_c, 6, 59, 64
7, 52616, Note_off_c, 6, 54, 64
7, 52616, Note_off_c, 6, 63, 64
7, 52800, Note_on_c, 6, 63, 41
7, 52800, Note_on_c, 6, 54, 41
7, 52800, Note_on_c, 6, 59, 41
7, 52808, Note_off_c, 6, 59, 64
7, 52808, Note_off_c, 6, 54, 64
7, 52808, Note_off_c, 6, 63, 64
7, 52944, Control_c, 6, 64, 0
7, 52992, Control_c, 6, 64, 127
7, 52992, Note_on_c, 6, 59, 52
7, 52992, Note_on_c, 6, 64, 51
7, 52992, Note_on_c, 6, 55, 57
7, 53000, Note_off_c, 6, 55, 64
7, 53000, Note_off_c, 6, 64, 64
7, 53000, Note_off_c, 6, 59, 64
7, 53184, Note_on_c, 6, 64, 41
7, 53184, Note_on_c, 6, 55, 41
7, 53184, Note_on_c, 6, 59, 41
7, 53192, Note_off_c, 6, 59, 64
7, 53192, Note_off_c, 6, 55, 64
7, 53192, Note_off_c, 6, 64, 64
7, 53328, Control_c, 6, 64, 0
7, 53376, Control_c, 6, 64, 127
7, 53376, Note_on_c, 6, 63, 41
7, 53376, Note_on_c, 6, 59, 44
7, 53376, Note_on_c, 6, 54, 45
7, 53384, Note_off_c, 6, 54, 64
7, 53384, Note_off_c, 6, 59, 64
7, 53384, Note_off_c, 6, 63, 64
7, 53568, Note_on_c, 6, 63, 41
7, 53568, Note_on_c, 6, 54, 41
7, 53568, Note_on_c, 6, 59, 41
7, 53576, Note_off_c, 6, 59, 64
7, 53576, Note_off_c, 6, 54, 64
7, 53576, Note_off_c, 6, 63, 64
7, 53736, Control_c, 6, 64, 0
7, 53760, Control_c, 6, 64, 127
7, 53760, Note_on_c, 6, 64, 49
7, 53760, Note_on_c, 6, 55, 53
7, 53760, Note_on_c, 6, 59, 56
7, 53768, Note_off_c, 6, 59, 64
7, 53768, Note_off_c, 6, 55, 64
7, 53768, Note_off_c, 6, 64, 64
7, 53952, Note_on_c, 6, 64, 41
7, 53952, Note_on_c, 6, 55, 41
7, 53952, Note_on_c, 6, 59, 41
7, 53960, Note_off_c, 6, 59, 64
7, 53960, Note_off_c, 6, 55, 64
7, 53960, Note_off_c, 6, 64, 64
7, 54144, Note_on_c, 6, 64, 55
7, 54144, Note_on_c, 6, 55, 60
7, 54144, Note_on_c, 6, 59, 59
7, 54152, Note_off_c, 6, 59, 64
7, 54152, Note_off_c, 6, 55, 64
7, 54152, Note_off_c, 6, 64, 64
7, 54336, Note_on_c, 6, 59, 41
7, 54336, Note_on_c, 6, 55, 41
7, 54344, Note_off_c, 6, 55, 64
7, 54344, Note_off_c, 6, 59, 64
7, 54480, Control_c, 6, 64, 0
7, 54528, Control_c, 6, 64, 127
7, 54528, Note_on_c, 6, 62, 45
7, 54528, Note_on_c, 6, 54, 50
7, 54528, Note_on_c, 6, 57, 47
7, 54536, Note_off_c, 6, 57, 64
7, 54536, Note_off_c, 6, 54, 64
7, 54536, Note_off_c, 6, 62, 64
7, 54720, Note_on_c, 6, 62, 41
7, 54720, Note_on_c, 6, 57, 41
7, 54720, Note_on_c, 6, 54, 41
7, 54728, Note_off_c, 6, 54, 64
7, 54728, Note_off_c, 6, 57, 64
7, 54728, Note_off_c, 6, 62, 64
7, 54912, Note_on_c, 6, 62, 42
7, 54912, Note_on_c, 6, 54, 50
7, 54912, Note_on_c, 6, 57, 45
7, 54920, Note_off_c, 6, 57, 64
7, 54920, Note_off_c, 6, 54, 64
7, 54920, Note_off_c, 6, 62, 64
7, 55104, Note_on_c, 6, 62, 41
7, 55104, Note_on_c, 6, 57, 41
7, 55104, Note_on_c, 6, 54, 41
7, 55112, Note_off_c, 6, 54, 64
7, 55112, Note_off_c, 6, 57, 64
7, 55112, Note_off_c, 6, 62, 64
7, 55272, Control_c, 6, 64, 0
7, 55296, Control_c, 6, 64, 127
7, 55296, Note_on_c, 6, 55, 53
7, 55296, Note_on_c, 6, 59, 56
7, 55296, Note_on_c, 6, 62, 49
7, 55304, Note_off_c, 6, 62, 64
7, 55304, Note_off_c, 6, 59, 64
7, 55304, Note_off_c, 6, 55, 64
7, 55488, Note_on_c, 6, 55, 41
7, 55488, Note_on_c, 6, 59, 41
7, 55488, Note_on_c, 6, 62, 41
7, 55496, Note_off_c, 6, 62, 64
7, 55496, Note_off_c, 6, 59, 64
7, 55496, Note_off_c, 6, 55, 64
7, 55680, Note_on_c, 6, 55, 60
7, 55680, Note_on_c, 6, 59, 59
7, 55680, Note_on_c, 6, 62, 55
7, 55688, Note_off_c, 6, 62, 64
7, 55688, Note_off_c, 6, 59, 64
7, 55688, Note_off_c, 6, 55, 64
7, 55872, Note_on_c, 6, 59, 41
7, 55872, Note_on_c, 6, 55, 41
7, 55880, Note_off_c, 6, 55, 64
7, 55880, Note_off_c, 6, 59, 64
7, 56016, Control_c, 6, 64, 0
7, 56064, Control_c, 6, 64, 127
7, 56064, Note_on_c, 6, 66, 45
7, 56064, Note_on_c, 6, 57, 47
7, 56064, Note_on_c, 6, 62, 50
7, 56072, Note_off_c, 6, 62, 64
7, 56072, Note_off_c, 6, 57, 64
7, 56072, Note_off_c, 6, 66, 64
7, 56256, Note_on_c, 6, 66, 41
7, 56256, Note_on_c, 6, 57, 41
7, 56256, Note_on_c, 6, 62, 41
7, 56264, Note_off_c, 6, 62, 64
7, 56264, Note_off_c, 6, 57, 64
7, 56264, Note_off_c, 6, 66, 64
7, 56448, Note_on_c, 6, 66, 42
7, 56448, Note_on_c, 6, 57, 45
7, 56448, Note_on_c, 6, 62, 50
7, 56456, Note_off_c, 6, 62, 64
7, 56456, Note_off_c, 6, 57, 64
7, 56456, Note_off_c, 6, 66, 64
7, 56640, Note_on_c, 6, 66, 41
7, 56640, Note_on_c, 6, 57, 41
7, 56640, Note_on_c, 6, 62, 41
7, 56648, Note_off_c, 6, 62, 64
7, 56648, Note_off_c, 6, 57, 64
7, 56648, Note_off_c, 6, 66, 64
7, 56808, Control_c, 6, 64, 0
7, 56832, Control_c, 6, 64, 127
7, 56832, Note_on_c, 6, 64, 49
7, 56832, Note_on_c, 6, 55, 53
7, 56832, Note_on_c, 6, 59, 56
7, 56840, Note_off_c, 6, 59, 64
7, 56840, Note_off_c, 6, 55, 64
7, 56840, Note_off_c, 6, 64, 64
7, 57024, Note_on_c, 6, 64, 41
7, 57024, Note_on_c, 6, 55, 41
7, 57024, Note_on_c, 6, 59, 41
7, 57032, Note_off_c, 6, 59, 64
7, 57032, Note_off_c, 6, 55, 64
7, 57032, Note_off_c, 6, 64, 64
7, 57216, Note_on_c, 6, 64, 55
7, 57216, Note_on_c, 6, 55, 60
7, 57216, Note_on_c, 6, 59, 59
7, 57224, Note_off_c, 6, 59, 64
7, 57224, Note_off_c, 6, 55, 64
7, 57224, Note_off_c, 6, 64, 64
7, 57408, Note_on_c, 6, 59, 41
7, 57408, Note_on_c, 6, 55, 41
7, 57416, Note_off_c, 6, 55, 64
7, 57416, Note_off_c, 6, 59, 64
7, 57600, Note_on_c, 6, 59, 47
7, 57600, Note_on_c, 6, 55, 50
7, 57600, Note_on_c, 6, 64, 45
7, 57608, Note_off_c, 6, 64, 64
7, 57608, Note_off_c, 6, 55, 64
7, 57608, Note_off_c, 6, 59, 64
7, 57792, Note_on_c, 6, 59, 41
7, 57792, Note_on_c, 6, 64, 41
7, 57792, Note_on_c, 6, 55, 41
7, 57800, Note_off_c, 6, 55, 64
7, 57800, Note_off_c, 6, 64, 64
7, 57800, Note_off_c, 6, 59, 64
7, 57984, Note_on_c, 6, 64, 42
7, 57984, Note_on_c, 6, 55, 50
7, 57984, Note_on_c, 6, 59, 45
7, 57992, Note_off_c, 6, 59, 64
7, 57992, Note_off_c, 6, 55, 64
7, 57992, Note_off_c, 6, 64, 64
7, 58176, Note_on_c, 6, 59, 41
7, 58176, Note_on_c, 6, 64, 41
7, 58176, Note_on_c, 6, 55, 41
7, 58184, Note_off_c, 6, 55, 64
7, 58184, Note_off_c, 6, 64, 64
7, 58184, Note_off_c, 6, 59, 64
7, 58344, Control_c, 6, 64, 0
7, 58368, Control_c, 6, 64, 127
7, 58368, Note_on_c, 6, 64, 49
7, 58368, Note_on_c, 6, 55, 53
7, 58368, Note_on_c, 6, 59, 56
7, 58376, Note_off_c, 6, 59, 64
7, 58376, Note_off_c, 6, 55, 64
7, 58376, Note_off_c, 6, 64, 64
7, 58560, Note_on_c, 6, 64, 41
7, 58560, Note_on_c, 6, 55, 41
7, 58560, Note_on_c, 6, 59, 41
7, 58568, Note_off_c, 6, 59, 64
7, 58568, Note_off_c, 6, 55, 64
7, 58568, Note_off_c, 6, 64, 64
7, 58752, Note_on_c, 6, 64, 55
7, 58752, Note_on_c, 6, 55, 60
7, 58752, Note_on_c, 6, 59, 59
7, 58760, Note_off_c, 6, 59, 64
7, 58760, Note_off_c, 6, 55, 64
7, 58760, Note_off_c, 6, 64, 64
7, 58944, Note_on_c, 6, 59, 41
7, 58944, Note_on_c, 6, 55, 41
7, 58952, Note_off_c, 6, 55, 64
7, 58952, Note_off_c, 6, 59, 64
7, 59136, Note_on_c, 6, 59, 47
7, 59136, Note_on_c, 6, 55, 50
7, 59136, Note_on_c, 6, 64, 45
7, 59144, Note_off_c, 6, 64, 64
7, 59144, Note_off_c, 6, 55, 64
7, 59144, Note_off_c, 6, 59, 64
7, 59328, Note_on_c, 6, 59, 41
7, 59328, Note_on_c, 6, 64, 41
7, 59328, Note_on_c, 6, 55, 41
7, 59336, Note_off_c, 6, 55, 64
7, 59336, Note_off_c, 6, 64, 64
7, 59336, Note_off_c, 6, 59, 64
7, 59520, Note_on_c, 6, 64, 42
7, 59520, Note_on_c, 6, 55, 50
7, 59520, Note_on_c, 6, 59, 45
7, 59528, Note_off_c, 6, 59, 64
7, 59528, Note_off_c, 6, 55, 64
7, 59528, Note_off_c, 6, 64, 64
7, 59712, Note_on_c, 6, 59, 41
7, 59712, Note_on_c, 6, 64, 41
7, 59712, Note_on_c, 6, 55, 41
7, 59720, Note_off_c, 6, 55, 64
7, 59720, Note_off_c, 6, 64, 64
7, 59720, Note_off_c, 6, 59, 64
7, 59880, Control_c, 6, 64, 0
7, 59904, Control_c, 6, 64, 127
7, 59904, Note_on_c, 6, 64, 49
7, 59904, Note_on_c, 6, 55, 53
7, 59904, Note_on_c, 6, 59, 56
7, 59912, Note_off_c, 6, 59, 64
7, 59912, Note_off_c, 6, 55, 64
7, 59912, Note_off_c, 6, 64, 64
7, 60096, Note_on_c, 6, 64, 41
7, 60096, Note_on_c, 6, 55, 41
7, 60096, Note_on_c, 6, 59, 41
7, 60104, Note_off_c, 6, 59, 64
7, 60104, Note_off_c, 6, 55, 64
7, 60104, Note_off_c, 6, 64, 64
7, 60288, Note_on_c, 6, 64, 55
7, 60288, Note_on_c, 6, 55, 60
7, 60288, Note_on_c, 6, 59, 59
7, 60296, Note_off_c, 6, 59, 64
7, 60296, Note_off_c, 6, 55, 64
7, 60296, Note_off_c, 6, 64, 64
7, 60480, Note_on_c, 6, 59, 41
7, 60480, Note_on_c, 6, 55, 41
7, 60488, Note_off_c, 6, 55, 64
7, 60488, Note_off_c, 6, 59, 64
7, 60624, Control_c, 6, 64, 0
7, 60672, Control_c, 6, 64, 127
7, 60672, Note_on_c, 6, 62, 45
7, 60672, Note_on_c, 6, 54, 50
7, 60672, Note_on_c, 6, 57, 47
7, 60680, Note_off_c, 6, 57, 64
7, 60680, Note_off_c, 6, 54, 64
7, 60680, Note_off_c, 6, 62, 64
7, 60864, Note_on_c, 6, 62, 41
7, 60864, Note_on_c, 6, 57, 41
7, 60864, Note_on_c, 6, 54, 41
7, 60872, Note_off_c, 6, 54, 64
7, 60872, Note_off_c, 6, 57, 64
7, 60872, Note_off_c, 6, 62, 64
7, 61056, Note_on_c, 6, 62, 42
7, 61056, Note_on_c, 6, 54, 50
7, 61056, Note_on_c, 6, 57, 45
7, 61064, Note_off_c, 6, 57, 64
7, 61064, Note_off_c, 6, 54, 64
7, 61064, Note_off_c, 6, 62, 64
7, 61248, Note_on_c, 6, 62, 41
7, 61248, Note_on_c, 6, 57, 41
7, 61248, Note_on_c, 6, 54, 41
7, 61256, Note_off_c, 6, 54, 64
7, 61256, Note_off_c, 6, 57, 64
7, 61256, Note_off_c, 6, 62, 64
7, 61416, Control_c, 6, 64, 0
7, 61440, Control_c, 6, 64, 127
7, 61440, Note_on_c, 6, 55, 53
7, 61440, Note_on_c, 6, 59, 56
7, 61440, Note_on_c, 6, 62, 49
7, 61448, Note_off_c, 6, 62, 64
7, 61448, Note_off_c, 6, 59, 64
7, 61448, Note_off_c, 6, 55, 64
7, 61632, Note_on_c, 6, 55, 41
7, 61632, Note_on_c, 6, 59, 41
7, 61632, Note_on_c, 6, 62, 41
7, 61640, Note_off_c, 6, 62, 64
7, 61640, Note_off_c, 6, 59, 64
7, 61640, Note_off_c, 6, 55, 64
7, 61824, Note_on_c, 6, 55, 60
7, 61824, Note_on_c, 6, 59, 59
7, 61824, Note_on_c, 6, 62, 55
7, 61832, Note_off_c, 6, 62, 64
7, 61832, Note_off_c, 6, 59, 64
7, 61832, Note_off_c, 6, 55, 64
7, 62016, Note_on_c, 6, 59, 41
7, 62016, Note_on_c, 6, 55, 41
7, 62024, Note_off_c, 6, 55, 64
7, 62024, Note_off_c, 6, 59, 64
7, 62160, Control_c, 6, 64, 0
7, 62208, Control_c, 6, 64, 127
7, 62208, Note_on_c, 6, 66, 45
7, 62208, Note_on_c, 6, 57, 47
7, 62208, Note_on_c, 6, 62, 50
7, 62216, Note_off_c, 6, 62, 64
7, 62216, Note_off_c, 6, 57, 64
7, 62216, Note_off_c, 6, 66, 64
7, 62400, Note_on_c, 6, 66, 41
7, 62400, Note_on_c, 6, 57, 41
7, 62400, Note_on_c, 6, 62, 41
7, 62408, Note_off_c, 6, 62, 64
7, 62408, Note_off_c, 6, 57, 64
7, 62408, Note_off_c, 6, 66, 64
7, 62592, Note_on_c, 6, 66, 42
7, 62592, Note_on_c, 6, 57, 45
7, 62592, Note_on_c, 6, 62, 50
7, 62600, Note_off_c, 6, 62, 64
7, 62600, Note_off_c, 6, 57, 64
7, 62600, Note_off_c, 6, 66, 64
7, 62784, Note_on_c, 6, 66, 41
7, 62784, Note_on_c, 6, 57, 41
7, 62784, Note_on_c, 6, 62, 41
7, 62792, Note_off_c, 6, 62, 64
7, 62792, Note_off_c, 6, 57, 64
7, 62792, Note_off_c, 6, 66, 64
7, 62952, Control_c, 6, 64, 0
7, 62976, Control_c, 6, 64, 127
7, 62976, Note_on_c, 6, 61, 49
7, 62976, Note_on_c, 6, 52, 53
7, 62976, Note_on_c, 6, 57, 56
7, 62984, Note_off_c, 6, 57, 64
7, 62984, Note_off_c, 6, 52, 64
7, 62984, Note_off_c, 6, 61, 64
7, 63168, Note_on_c, 6, 61, 41
7, 63168, Note_on_c, 6, 52, 41
7, 63168, Note_on_c, 6, 57, 41
7, 63176, Note_off_c, 6, 57, 64
7, 63176, Note_off_c, 6, 52, 64
7, 63176, Note_off_c, 6, 61, 64
7, 63360, Note_on_c, 6, 61, 55
7, 63360, Note_on_c, 6, 52, 60
7, 63360, Note_on_c, 6, 57, 59
7, 63368, Note_off_c, 6, 57, 64
7, 63368, Note_off_c, 6, 52, 64
7, 63368, Note_off_c, 6, 61, 64
7, 63552, Note_on_c, 6, 52, 41
7, 63552, Note_on_c, 6, 57, 41
7, 63560, Note_off_c, 6, 57, 64
7, 63560, Note_off_c, 6, 52, 64
7, 63744, Note_on_c, 6, 52, 50
7, 63744, Note_on_c, 6, 61, 45
7, 63744, Note_on_c, 6, 57, 47
7, 63752, Note_off_c, 6, 57, 64
7, 63752, Note_off_c, 6, 61, 64
7, 63752, Note_off_c, 6, 52, 64
7, 63936, Note_on_c, 6, 61, 41
7, 63936, Note_on_c, 6, 52, 41
7, 63936, Note_on_c, 6, 57, 41
7, 63944, Note_off_c, 6, 57, 64
7, 63944, Note_off_c, 6, 52, 64
7, 63944, Note_off_c, 6, 61, 64
7, 64128, Note_on_c, 6, 61, 42
7, 64128, Note_on_c, 6, 52, 50
7, 64128, Note_on_c, 6, 57, 45
7, 64136, Note_off_c, 6, 57, 64
7, 64136, Note_off_c, 6, 52, 64
7, 64136, Note_off_c, 6, 61, 64
7, 64320, Note_on_c, 6, 61, 41
7, 64320, Note_on_c, 6, 52, 41
7, 64320, Note_on_c, 6, 57, 41
7, 64328, Note_off_c, 6, 57, 64
7, 64328, Note_off_c, 6, 52, 64
7, 64328, Note_off_c, 6, 61, 64
7, 64488, Control_c, 6, 64, 0
7, 64512, Control_c, 6, 64, 127
7, 64512, Note_on_c, 6, 63, 49
7, 64512, Note_on_c, 6, 54, 53
7, 64512, Note_on_c, 6, 59, 56
7, 64520, Note_off_c, 6, 59, 64
7, 64520, Note_off_c, 6, 54, 64
7, 64520, Note_off_c, 6, 63, 64
7, 64704, Note_on_c, 6, 63, 41
7, 64704, Note_on_c, 6, 54, 41
7, 64704, Note_on_c, 6, 59, 41
7, 64712, Note_off_c, 6, 59, 64
7, 64712, Note_off_c, 6, 54, 64
7, 64712, Note_off_c, 6, 63, 64
7, 64896, Note_on_c, 6, 63, 55
7, 64896, Note_on_c, 6, 54, 60
7, 64896, Note_on_c, 6, 59, 59
7, 64904, Note_off_c, 6, 59, 64
7, 64904, Note_off_c, 6, 54, 64
7, 64904, Note_off_c, 6, 63, 64
7, 65088, Note_on_c, 6, 54, 41
7, 65088, Note_on_c, 6, 59, 41
7, 65096, Note_off_c, 6, 59, 64
7, 65096, Note_off_c, 6, 54, 64
7, 65280, Note_on_c, 6, 54, 50
7, 65280, Note_on_c, 6, 63, 45
7, 65280, Note_on_c, 6, 59, 47
7, 65288, Note_off_c, 6, 59, 64
7, 65288, Note_off_c, 6, 63, 64
7, 65288, Note_off_c, 6, 54, 64
7, 65472, Note_on_c, 6, 63, 41
7, 65472, Note_on_c, 6, 54, 41
7, 65472, Note_on_c, 6, 59, 41
7, 65480, Note_off_c, 6, 59, 64
7, 65480, Note_off_c, 6, 54, 64
7, 65480, Note_off_c, 6, 63, 64
7, 65664, Note_on_c, 6, 63, 42
7, 65664, Note_on_c, 6, 54, 50
7, 65664, Note_on_c, 6, 59, 45
7, 65672, Note_off_c, 6, 59, 64
7, 65672, Note_off_c, 6, 54, 64
7, 65672, Note_off_c, 6, 63, 64
7, 65856, Note_on_c, 6, 63, 41
7, 65856, Note_on_c, 6, 54, 41
7, 65856, Note_on_c, 6, 59, 41
7, 65864, Note_off_c, 6, 59, 64
7, 65864, Note_off_c, 6, 54, 64
7, 65864, Note_off_c, 6, 63, 64
7, 66024, Control_c, 6, 64, 0
7, 66048, Control_c, 6, 64, 127
7, 66048, Note_on_c, 6, 64, 44
7, 66048, Note_on_c, 6, 55, 53
7, 66048, Note_on_c, 6, 59, 52
7, 66056, Note_off_c, 6, 59, 64
7, 66056, Note_off_c, 6, 55, 64
7, 66056, Note_off_c, 6, 64, 64
7, 66240, Note_on_c, 6, 59, 41
7, 66240, Note_on_c, 6, 64, 41
7, 66240, Note_on_c, 6, 55, 41
7, 66248, Note_off_c, 6, 55, 64
7, 66248, Note_off_c, 6, 64, 64
7, 66248, Note_off_c, 6, 59, 64
7, 66432, Note_on_c, 6, 64, 41
7, 66432, Note_on_c, 6, 55, 45
7, 66432, Note_on_c, 6, 59, 42
7, 66440, Note_off_c, 6, 59, 64
7, 66440, Note_off_c, 6, 55, 64
7, 66440, Note_off_c, 6, 64, 64
7, 66624, Note_on_c, 6, 64, 41
7, 66624, Note_on_c, 6, 59, 41
7, 66624, Note_on_c, 6, 55, 41
7, 66632, Note_off_c, 6, 55, 64
7, 66632, Note_off_c, 6, 59, 64
7, 66632, Note_off_c, 6, 64, 64
7, 66816, Note_on_c, 6, 55, 46
7, 66816, Note_on_c, 6, 64, 41
7, 66816, Note_on_c, 6, 59, 49
7, 66824, Note_off_c, 6, 59, 64
7, 66824, Note_off_c, 6, 64, 64
7, 66824, Note_off_c, 6, 55, 64
7, 67008, Note_on_c, 6, 64, 41
7, 67008, Note_on_c, 6, 59, 41
7, 67008, Note_on_c, 6, 55, 41
7, 67016, Note_off_c, 6, 55, 64
7, 67016, Note_off_c, 6, 59, 64
7, 67016, Note_off_c, 6, 64, 64
7, 67200, Note_on_c, 6, 55, 45
7, 67200, Note_on_c, 6, 64, 41
7, 67200, Note_on_c, 6, 59, 54
7, 67208, Note_off_c, 6, 59, 64
7, 67208, Note_off_c, 6, 64, 64
7, 67208, Note_off_c, 6, 55, 64
7, 67392, Note_on_c, 6, 64, 41
7, 67392, Note_on_c, 6, 59, 41
7, 67392, Note_on_c, 6, 55, 41
7, 67400, Note_off_c, 6, 55, 64
7, 67400, Note_off_c, 6, 59, 64
7, 67400, Note_off_c, 6, 64, 64
7, 67560, Control_c, 6, 64, 0
7, 67584, Control_c, 6, 64, 127
7, 67584, Note_on_c, 6, 64, 48
7, 67584, Note_on_c, 6, 55, 50
7, 67584, Note_on_c, 6, 59, 56
7, 67592, Note_off_c, 6, 59, 64
7, 67592, Note_off_c, 6, 55, 64
7, 67592, Note_off_c, 6, 64, 64
7, 67776, Note_on_c, 6, 55, 41
7, 67776, Note_on_c, 6, 59, 41
7, 67776, Note_on_c, 6, 64, 41
7, 67784, Note_off_c, 6, 64, 64
7, 67784, Note_off_c, 6, 59, 64
7, 67784, Note_off_c, 6, 55, 64
7, 67968, Note_on_c, 6, 55, 42
7, 67968, Note_on_c, 6, 64, 41
7, 67968, Note_on_c, 6, 59, 45
7, 67976, Note_off_c, 6, 59, 64
7, 67976, Note_off_c, 6, 64, 64
7, 67976, Note_off_c, 6, 55, 64
7, 68160, Note_on_c, 6, 64, 41
7, 68160, Note_on_c, 6, 55, 41
7, 68160, Note_on_c, 6, 59, 41
7, 68168, Note_off_c, 6, 59, 64
7, 68168, Note_off_c, 6, 55, 64
7, 68168, Note_off_c, 6, 64, 64
7, 68352, Note_on_c, 6, 55, 45
7, 68352, Note_on_c, 6, 64, 41
7, 68352, Note_on_c, 6, 59, 48
7, 68360, Note_off_c, 6, 59, 64
7, 68360, Note_off_c, 6, 64, 64
7, 68360, Note_off_c, 6, 55, 64
7, 68544, Note_on_c, 6, 55, 41
7, 68544, Note_on_c, 6, 59, 41
7, 68544, Note_on_c, 6, 64, 41
7, 68552, Note_off_c, 6, 64, 64
7, 68552, Note_off_c, 6, 59, 64
7, 68552, Note_off_c, 6, 55, 64
7, 68736, Note_on_c, 6, 64, 41
7, 68736, Note_on_c, 6, 55, 41
7, 68736, Note_on_c, 6, 59, 44
7, 68744, Note_off_c, 6, 59, 64
7, 68744, Note_off_c, 6, 55, 64
7, 68744, Note_off_c, 6, 64, 64
7, 68928, Note_on_c, 6, 64, 41
7, 68928, Note_on_c, 6, 55, 41
7, 68928, Note_on_c, 6, 59, 41
7, 68936, Note_off_c, 6, 59, 64
7, 68936, Note_off_c, 6, 55, 64
7, 68936, Note_off_c, 6, 64, 64
7, 69096, Control_c, 6, 64, 0
7, 69120, Control_c, 6, 64, 127
7, 69120, Note_on_c, 6, 63, 41
7, 69120, Note_on_c, 6, 59, 44
7, 69120, Note_on_c, 6, 54, 43
7, 69128, Note_off_c, 6, 54, 64
7, 69128, Note_off_c, 6, 59, 64
7, 69128, Note_off_c, 6, 63, 64
7, 69312, Note_on_c, 6, 63, 41
7, 69312, Note_on_c, 6, 59, 41
7, 69312, Note_on_c, 6, 54, 41
7, 69320, Note_off_c, 6, 54, 64
7, 69320, Note_off_c, 6, 59, 64
7, 69320, Note_off_c, 6, 63, 64
7, 69504, Note_on_c, 6, 63, 44
7, 69504, Note_on_c, 6, 54, 45
7, 69504, Note_on_c, 6, 59, 46
7, 69512, Note_off_c, 6, 59, 64
7, 69512, Note_off_c, 6, 54, 64
7, 69512, Note_off_c, 6, 63, 64
7, 69696, Note_on_c, 6, 63, 41
7, 69696, Note_on_c, 6, 59, 41
7, 69696, Note_on_c, 6, 54, 41
7, 69704, Note_off_c, 6, 54, 64
7, 69704, Note_off_c, 6, 59, 64
7, 69704, Note_off_c, 6, 63, 64
7, 69888, Note_on_c, 6, 63, 41
7, 69888, Note_on_c, 6, 54, 42
7, 69888, Note_on_c, 6, 59, 41
7, 69896, Note_off_c, 6, 59, 64
7, 69896, Note_off_c, 6, 54, 64
7, 69896, Note_off_c, 6, 63, 64
7, 70080, Note_on_c, 6, 63, 41
7, 70080, Note_on_c, 6, 59, 41
7, 70080, Note_on_c, 6, 54, 41
7, 70088, Note_off_c, 6, 54, 64
7, 70088, Note_off_c, 6, 59, 64
7, 70088, Note_off_c, 6, 63, 64
7, 70272, Note_on_c, 6, 63, 41
7, 70272, Note_on_c, 6, 54, 41
7, 70272, Note_on_c, 6, 59, 49
7, 70280, Note_off_c, 6, 59, 64
7, 70280, Note_off_c, 6, 54, 64
7, 70280, Note_off_c, 6, 63, 64
7, 70464, Note_on_c, 6, 63, 41
7, 70464, Note_on_c, 6, 59, 41
7, 70472, Note_off_c, 6, 59, 64
7, 70472, Note_off_c, 6, 63, 64
7, 70560, Note_on_c, 6, 54, 41
7, 70568, Note_off_c, 6, 54, 64
7, 70632, Control_c, 6, 64, 0
7, 70656, Control_c, 6, 64, 127
7, 70656, Note_on_c, 6, 63, 44
7, 70656, Note_on_c, 6, 54, 44
7, 70656, Note_on_c, 6, 59, 45
7, 70664, Note_off_c, 6, 59, 64
7, 70664, Note_off_c, 6, 54, 64
7, 70664, Note_off_c, 6, 63, 64
7, 70848, Note_on_c, 6, 59, 41
7, 70848, Note_on_c, 6, 63, 41
7, 70848, Note_on_c, 6, 54, 41
7, 70856, Note_off_c, 6, 54, 64
7, 70856, Note_off_c, 6, 63, 64
7, 70856, Note_off_c, 6, 59, 64
7, 71040, Note_on_c, 6, 63, 51
7, 71040, Note_on_c, 6, 54, 41
7, 71040, Note_on_c, 6, 59, 41
7, 71048, Note_off_c, 6, 59, 64
7, 71048, Note_off_c, 6, 54, 64
7, 71048, Note_off_c, 6, 63, 64
7, 71232, Note_on_c, 6, 63, 41
7, 71232, Note_on_c, 6, 54, 41
7, 71232, Note_on_c, 6, 59, 41
7, 71240, Note_off_c, 6, 59, 64
7, 71240, Note_off_c, 6, 54, 64
7, 71240, Note_off_c, 6, 63, 64
7, 71376, Control_c, 6, 64, 0
7, 71424, Control_c, 6, 64, 127
7, 71424, Note_on_c, 6, 59, 52
7, 71424, Note_on_c, 6, 64, 51
7, 71424, Note_on_c, 6, 55, 57
7, 71432, Note_off_c, 6, 55, 64
7, 71432, Note_off_c, 6, 64, 64
7, 71432, Note_off_c, 6, 59, 64
7, 71616, Note_on_c, 6, 64, 41
7, 71616, Note_on_c, 6, 55, 41
7, 71616, Note_on_c, 6, 59, 41
7, 71624, Note_off_c, 6, 59, 64
7, 71624, Note_off_c, 6, 55, 64
7, 71624, Note_off_c, 6, 64, 64
7, 71760, Control_c, 6, 64, 0
7, 71808, Control_c, 6, 64, 127
7, 71808, Note_on_c, 6, 63, 41
7, 71808, Note_on_c, 6, 59, 44
7, 71808, Note_on_c, 6, 54, 45
7, 71816, Note_off_c, 6, 54, 64
7, 71816, Note_off_c, 6, 59, 64
7, 71816, Note_off_c, 6, 63, 64
7, 72000, Note_on_c, 6, 63, 41
7, 72000, Note_on_c, 6, 54, 41
7, 72000, Note_on_c, 6, 59, 41
7, 72008, Note_off_c, 6, 59, 64
7, 72008, Note_off_c, 6, 54, 64
7, 72008, Note_off_c, 6, 63, 64
7, 72168, Control_c, 6, 64, 0
7, 72192, Control_c, 6, 64, 127
7, 72192, Note_on_c, 6, 64, 44
7, 72192, Note_on_c, 6, 55, 53
7, 72192, Note_on_c, 6, 59, 52
7, 72200, Note_off_c, 6, 59, 64
7, 72200, Note_off_c, 6, 55, 64
7, 72200, Note_off_c, 6, 64, 64
7, 72384, Note_on_c, 6, 59, 41
7, 72384, Note_on_c, 6, 64, 41
7, 72384, Note_on_c, 6, 55, 41
7, 72392, Note_off_c, 6, 55, 64
7, 72392, Note_off_c, 6, 64, 64
7, 72392, Note_off_c, 6, 59, 64
7, 72576, Note_on_c, 6, 64, 41
7, 72576, Note_on_c, 6, 55, 45
7, 72576, Note_on_c, 6, 59, 42
7, 72584, Note_off_c, 6, 59, 64
7, 72584, Note_off_c, 6, 55, 64
7, 72584, Note_off_c, 6, 64, 64
7, 72768, Note_on_c, 6, 64, 41
7, 72768, Note_on_c, 6, 59, 41
7, 72768, Note_on_c, 6, 55, 41
7, 72776, Note_off_c, 6, 55, 64
7, 72776, Note_off_c, 6, 59, 64
7, 72776, Note_off_c, 6, 64, 64
7, 72960, Note_on_c, 6, 55, 46
7, 72960, Note_on_c, 6, 64, 41
7, 72960, Note_on_c, 6, 59, 49
7, 72968, Note_off_c, 6, 59, 64
7, 72968, Note_off_c, 6, 64, 64
7, 72968, Note_off_c, 6, 55, 64
7, 73152, Note_on_c, 6, 64, 41
7, 73152, Note_on_c, 6, 59, 41
7, 73152, Note_on_c, 6, 55, 41
7, 73160, Note_off_c, 6, 55, 64
7, 73160, Note_off_c, 6, 59, 64
7, 73160, Note_off_c, 6, 64, 64
7, 73344, Note_on_c, 6, 55, 45
7, 73344, Note_on_c, 6, 64, 41
7, 73344, Note_on_c, 6, 59, 54
7, 73352, Note_off_c, 6, 59, 64
7, 73352, Note_off_c, 6, 64, 64
7, 73352, Note_off_c, 6, 55, 64
7, 73536, Note_on_c, 6, 64, 41
7, 73536, Note_on_c, 6, 59, 41
7, 73536, Note_on_c, 6, 55, 41
7, 73544, Note_off_c, 6, 55, 64
7, 73544, Note_off_c, 6, 59, 64
7, 73544, Note_off_c, 6, 64, 64
7, 73704, Control_c, 6, 64, 0
7, 73728, Control_c, 6, 64, 127
7, 73728, Note_on_c, 6, 64, 48
7, 73728, Note_on_c, 6, 55, 50
7, 73728, Note_on_c, 6, 59, 56
7, 73736, Note_off_c, 6, 59, 64
7, 73736, Note_off_c, 6, 55, 64
7, 73736, Note_off_c, 6, 64, 64
7, 73920, Note_on_c, 6, 55, 41
7, 73920, Note_on_c, 6, 59, 41
7, 73920, Note_on_c, 6, 64, 41
7, 73928, Note_off_c, 6, 64, 64
7, 73928, Note_off_c, 6, 59, 64
7, 73928, Note_off_c, 6, 55, 64
7, 74112, Note_on_c, 6, 55, 42
7, 74112, Note_on_c, 6, 64, 41
7, 74112, Note_on_c, 6, 59, 45
7, 74120, Note_off_c, 6, 59, 64
7, 74120, Note_off_c, 6, 64, 64
7, 74120, Note_off_c, 6, 55, 64
7, 74304, Note_on_c, 6, 64, 41
7, 74304, Note_on_c, 6, 55, 41
7, 74304, Note_on_c, 6, 59, 41
7, 74312, Note_off_c, 6, 59, 64
7, 74312, Note_off_c, 6, 55, 64
7, 74312, Note_off_c, 6, 64, 64
7, 74496, Note_on_c, 6, 55, 45
7, 74496, Note_on_c, 6, 64, 41
7, 74496, Note_on_c, 6, 59, 48
7, 74504, Note_off_c, 6, 59, 64
7, 74504, Note_off_c, 6, 64, 64
7, 74504, Note_off_c, 6, 55, 64
7, 74688, Note_on_c, 6, 55, 41
7, 74688, Note_on_c, 6, 59, 41
7, 74688, Note_on_c, 6, 64, 41
7, 74696, Note_off_c, 6, 64, 64
7, 74696, Note_off_c, 6, 59, 64
7, 74696, Note_off_c, 6, 55, 64
7, 74880, Note_on_c, 6, 64, 41
7, 74880, Note_on_c, 6, 55, 41
7, 74880, Note_on_c, 6, 59, 44
7, 74888, Note_off_c, 6, 59, 64
7, 74888, Note_off_c, 6, 55, 64
7, 74888, Note_off_c, 6, 64, 64
7, 75072, Note_on_c, 6, 64, 41
7, 75072, Note_on_c, 6, 55, 41
7, 75072, Note_on_c, 6, 59, 41
7, 75080, Note_off_c, 6, 59, 64
7, 75080, Note_off_c, 6, 55, 64
7, 75080, Note_off_c, 6, 64, 64
7, 75240, Control_c, 6, 64, 0
7, 75264, Control_c, 6, 64, 127
7, 75264, Note_on_c, 6, 63, 41
7, 75264, Note_on_c, 6, 59, 44
7, 75264, Note_on_c, 6, 54, 43
7, 75272, Note_off_c, 6, 54, 64
7, 75272, Note_off_c, 6, 59, 64
7, 75272, Note_off_c, 6, 63, 64
7, 75456, Note_on_c, 6, 63, 41
7, 75456, Note_on_c, 6, 59, 41
7, 75456, Note_on_c, 6, 54, 41
7, 75464, Note_off_c, 6, 54, 64
7, 75464, Note_off_c, 6, 59, 64
7, 75464, Note_off_c, 6, 63, 64
7, 75648, Note_on_c, 6, 63, 44
7, 75648, Note_on_c, 6, 54, 45
7, 75648, Note_on_c, 6, 59, 46
7, 75656, Note_off_c, 6, 59, 64
7, 75656, Note_off_c, 6, 54, 64
7, 75656, Note_off_c, 6, 63, 64
7, 75840, Note_on_c, 6, 63, 41
7, 75840, Note_on_c, 6, 59, 41
7, 75840, Note_on_c, 6, 54, 41
7, 75848, Note_off_c, 6, 54, 64
7, 75848, Note_off_c, 6, 59, 64
7, 75848, Note_off_c, 6, 63, 64
7, 76032, Note_on_c, 6, 63, 41
7, 76032, Note_on_c, 6, 54, 42
7, 76032, Note_on_c, 6, 59, 41
7, 76040, Note_off_c, 6, 59, 64
7, 76040, Note_off_c, 6, 54, 64
7, 76040, Note_off_c, 6, 63, 64
7, 76224, Note_on_c, 6, 63, 41
7, 76224, Note_on_c, 6, 59, 41
7, 76224, Note_on_c, 6, 54, 41
7, 76232, Note_off_c, 6, 54, 64
7, 76232, Note_off_c, 6, 59, 64
7, 76232, Note_off_c, 6, 63, 64
7, 76416, Note_on_c, 6, 63, 41
7, 76416, Note_on_c, 6, 54, 41
7, 76416, Note_on_c, 6, 59, 49
7, 76424, Note_off_c, 6, 59, 64
7, 76424, Note_off_c, 6, 54, 64
7, 76424, Note_off_c, 6, 63, 64
7, 76608, Note_on_c, 6, 63, 41
7, 76608, Note_on_c, 6, 59, 41
7, 76616, Note_off_c, 6, 59, 64
7, 76616, Note_off_c, 6, 63, 64
7, 76704, Note_on_c, 6, 54, 41
7, 76712, Note_off_c, 6, 54, 64
7, 76776, Control_c, 6, 64, 0
7, 76800, Control_c, 6, 64, 127
7, 76800, Note_on_c, 6, 63, 44
7, 76800, Note_on_c, 6, 54, 44
7, 76800, Note_on_c, 6, 59, 45
7, 76808, Note_off_c, 6, 59, 64
7, 76808, Note_off_c, 6, 54, 64
7, 76808, Note_off_c, 6, 63, 64
7, 76992, Note_on_c, 6, 59, 41
7, 76992, Note_on_c, 6, 63, 41
7, 76992, Note_on_c, 6, 54, 41
7, 77000, Note_off_c, 6, 54, 64
7, 77000, Note_off_c, 6, 63, 64
7, 77000, Note_off_c, 6, 59, 64
7, 77184, Note_on_c, 6, 63, 51
7, 77184, Note_on_c, 6, 54, 41
7, 77184, Note_on_c, 6, 59, 41
7, 77192, Note_off_c, 6, 59, 64
7, 77192, Note_off_c, 6, 54, 64
7, 77192, Note_off_c, 6, 63, 64
7, 77376, Note_on_c, 6, 63, 41
7, 77376, Note_on_c, 6, 54, 41
7, 77376, Note_on_c, 6, 59, 41
7, 77384, Note_off_c, 6, 59, 64
7, 77384, Note_off_c, 6, 54, 64
7, 77384, Note_off_c, 6, 63, 64
7, 77520, Control_c, 6, 64, 0
7, 77568, Control_c, 6, 64, 127
7, 77568, Note_on_c, 6, 59, 52
7, 77568, Note_on_c, 6, 64, 51
7, 77568, Note_on_c, 6, 55, 57
7, 77576, Note_off_c, 6, 55, 64
7, 77576, Note_off_c, 6, 64, 64
7, 77576, Note_off_c, 6, 59, 64
7, 77760, Note_on_c, 6, 64, 41
7, 77760, Note_on_c, 6, 55, 41
7, 77760, Note_on_c, 6, 59, 41
7, 77768, Note_off_c, 6, 59, 64
7, 77768, Note_off_c, 6, 55, 64
7, 77768, Note_off_c, 6, 64, 64
7, 77904, Control_c, 6, 64, 0
7, 77952, Control_c, 6, 64, 127
7, 77952, Note_on_c, 6, 63, 41
7, 77952, Note_on_c, 6, 59, 44
7, 77952, Note_on_c, 6, 54, 45
7, 77960, Note_off_c, 6, 54, 64
7, 77960, Note_off_c, 6, 59, 64
7, 77960, Note_off_c, 6, 63, 64
7, 78144, Note_on_c, 6, 63, 41
7, 78144, Note_on_c, 6, 54, 41
7, 78144, Note_on_c, 6, 59, 41
7, 78152, Note_off_c, 6, 59, 64
7, 78152, Note_off_c, 6, 54, 64
7, 78152, Note_off_c, 6, 63, 64
7, 78312, Control_c, 6, 64, 0
7, 78336, Control_c, 6, 64, 127
7, 78336, Note_on_c, 6, 64, 49
7, 78336, Note_on_c, 6, 55, 53
7, 78336, Note_on_c, 6, 59, 56
7, 78344, Note_off_c, 6, 59, 64
7, 78344, Note_off_c, 6, 55, 64
7, 78344, Note_off_c, 6, 64, 64
7, 78528, Note_on_c, 6, 64, 41
7, 78528, Note_on_c, 6, 55, 41
7, 78528, Note_on_c, 6, 59, 41
7, 78536, Note_off_c, 6, 59, 64
7, 78536, Note_off_c, 6, 55, 64
7, 78536, Note_off_c, 6, 64, 64
7, 78720, Note_on_c, 6, 64, 55
7, 78720, Note_on_c, 6, 55, 60
7, 78720, Note_on_c, 6, 59, 59
7, 78728, Note_off_c, 6, 59, 64
7, 78728, Note_off_c, 6, 55, 64
7, 78728, Note_off_c, 6, 64, 64
7, 78912, Note_on_c, 6, 59, 41
7, 78912, Note_on_c, 6, 55, 41
7, 78920, Note_off_c, 6, 55, 64
7, 78920, Note_off_c, 6, 59, 64
7, 79056, Control_c, 6, 64, 0
7, 79104, Control_c, 6, 64, 127
7, 79104, Note_on_c, 6, 62, 45
7, 79104, Note_on_c, 6, 54, 50
7, 79104, Note_on_c, 6, 57, 47
7, 79112, Note_off_c, 6, 57, 64
7, 79112, Note_off_c, 6, 54, 64
7, 79112, Note_off_c, 6, 62, 64
7, 79296, Note_on_c, 6, 62, 41
7, 79296, Note_on_c, 6, 57, 41
7, 79296, Note_on_c, 6, 54, 41
7, 79304, Note_off_c, 6, 54, 64
7, 79304, Note_off_c, 6, 57, 64
7, 79304, Note_off_c, 6, 62, 64
7, 79488, Note_on_c, 6, 62, 42
7, 79488, Note_on_c, 6, 54, 50
7, 79488, Note_on_c, 6, 57, 45
7, 79496, Note_off_c, 6, 57, 64
7, 79496, Note_off_c, 6, 54, 64
7, 79496, Note_off_c, 6, 62, 64
7, 79680, Note_on_c, 6, 62, 41
7, 79680, Note_on_c, 6, 57, 41
7, 79680, Note_on_c, 6, 54, 41
7, 79688, Note_off_c, 6, 54, 64
7, 79688, Note_off_c, 6, 57, 64
7, 79688, Note_off_c, 6, 62, 64
7, 79848, Control_c, 6, 64, 0
7, 79872, Control_c, 6, 64, 127
7, 79872, Note_on_c, 6, 55, 53
7, 79872, Note_on_c, 6, 59, 56
7, 79872, Note_on_c, 6, 62, 49
7, 79880, Note_off_c, 6, 62, 64
7, 79880, Note_off_c, 6, 59, 64
7, 79880, Note_off_c, 6, 55, 64
7, 80064, Note_on_c, 6, 55, 41
7, 80064, Note_on_c, 6, 59, 41
7, 80064, Note_on_c, 6, 62, 41
7, 80072, Note_off_c, 6, 62, 64
7, 80072, Note_off_c, 6, 59, 64
7, 80072, Note_off_c, 6, 55, 64
7, 80256, Note_on_c, 6, 55, 60
7, 80256, Note_on_c, 6, 59, 59
7, 80256, Note_on_c, 6, 62, 55
7, 80264, Note_off_c, 6, 62, 64
7, 80264, Note_off_c, 6, 59, 64
7, 80264, Note_off_c, 6, 55, 64
7, 80448, Note_on_c, 6, 59, 41
7, 80448, Note_on_c, 6, 55, 41
7, 80456, Note_off_c, 6, 55, 64
7, 80456, Note_off_c, 6, 59, 64
7, 80592, Control_c, 6, 64, 0
7, 80640, Control_c, 6, 64, 127
7, 80640, Note_on_c, 6, 66, 45
7, 80640, Note_on_c, 6, 57, 47
7, 80640, Note_on_c, 6, 62, 50
7, 80648, Note_off_c, 6, 62, 64
7, 80648, Note_off_c, 6, 57, 64
7, 80648, Note_off_c, 6, 66, 64
7, 80832, Note_on_c, 6, 66, 41
7, 80832, Note_on_c, 6, 57, 41
7, 80832, Note_on_c, 6, 62, 41
7, 80840, Note_off_c, 6, 62, 64
7, 80840, Note_off_c, 6, 57, 64
7, 80840, Note_off_c, 6, 66, 64
7, 81024, Note_on_c, 6, 66, 42
7, 81024, Note_on_c, 6, 57, 45
7, 81024, Note_on_c, 6, 62, 50
7, 81032, Note_off_c, 6, 62, 64
7, 81032, Note_off_c, 6, 57, 64
7, 81032, Note_off_c, 6, 66, 64
7, 81216, Note_on_c, 6, 66, 41
7, 81216, Note_on_c, 6, 57, 41
7, 81216, Note_on_c, 6, 62, 41
7, 81224, Note_off_c, 6, 62, 64
7, 81224, Note_off_c, 6, 57, 64
7, 81224, Note_off_c, 6, 66, 64
7, 81384, Control_c, 6, 64, 0
7, 81408, Control_c, 6, 64, 127
7, 81408, Note_on_c, 6, 64, 49
7, 81408, Note_on_c, 6, 55, 53
7, 81408, Note_on_c, 6, 59, 56
7, 81416, Note_off_c, 6, 59, 64
7, 81416, Note_off_c, 6, 55, 64
7, 81416, Note_off_c, 6, 64, 64
7, 81600, Note_on_c, 6, 64, 41
7, 81600, Note_on_c, 6, 55, 41
7, 81600, Note_on_c, 6, 59, 41
7, 81608, Note_off_c, 6, 59, 64
7, 81608, Note_off_c, 6, 55, 64
7, 81608, Note_off_c, 6, 64, 64
7, 81792, Note_on_c, 6, 64, 55
7, 81792, Note_on_c, 6, 55, 60
7, 81792, Note_on_c, 6, 59, 59
7, 81800, Note_off_c, 6, 59, 64
7, 81800, Note_off_c, 6, 55, 64
7, 81800, Note_off_c, 6, 64, 64
7, 81984, Note_on_c, 6, 59, 41
7, 81984, Note_on_c, 6, 55, 41
7, 81992, Note_off_c, 6, 55, 64
7, 81992, Note_off_c, 6, 59, 64
7, 82176, Note_on_c, 6, 59, 47
7, 82176, Note_on_c, 6, 55, 50
7, 82176, Note_on_c, 6, 64, 45
7, 82184, Note_off_c, 6, 64, 64
7, 82184, Note_off_c, 6, 55, 64
7, 82184, Note_off_c, 6, 59, 64
7, 82368, Note_on_c, 6, 59, 41
7, 82368, Note_on_c, 6, 64, 41
7, 82368, Note_on_c, 6, 55, 41
7, 82376, Note_off_c, 6, 55, 64
7, 82376, Note_off_c, 6, 64, 64
7, 82376, Note_off_c, 6, 59, 64
7, 82560, Note_on_c, 6, 64, 42
7, 82560, Note_on_c, 6, 55, 50
7, 82560, Note_on_c, 6, 59, 45
7, 82568, Note_off_c, 6, 59, 64
7, 82568, Note_off_c, 6, 55, 64
7, 82568, Note_off_c, 6, 64, 64
7, 82752, Note_on_c, 6, 59, 41
7, 82752, Note_on_c, 6, 64, 41
7, 82752, Note_on_c, 6, 55, 41
7, 82760, Note_off_c, 6, 55, 64
7, 82760, Note_off_c, 6, 64, 64
7, 82760, Note_off_c, 6, 59, 64
7, 82920, Control_c, 6, 64, 0
7, 82944, Control_c, 6, 64, 127
7, 82944, Note_on_c, 6, 64, 49
7, 82944, Note_on_c, 6, 55, 53
7, 82944, Note_on_c, 6, 59, 56
7, 82952, Note_off_c, 6, 59, 64
7, 82952, Note_off_c, 6, 55, 64
7, 82952, Note_off_c, 6, 64, 64
7, 83136, Note_on_c, 6, 64, 41
7, 83136, Note_on_c, 6, 55, 41
7, 83136, Note_on_c, 6, 59, 41
7, 83144, Note_off_c, 6, 59, 64
7, 83144, Note_off_c, 6, 55, 64
7, 83144, Note_off_c, 6, 64, 64
7, 83328, Note_on_c, 6, 64, 55
7, 83328, Note_on_c, 6, 55, 60
7, 83328, Note_on_c, 6, 59, 59
7, 83336, Note_off_c, 6, 59, 64
7, 83336, Note_off_c, 6, 55, 64
7, 83336, Note_off_c, 6, 64, 64
7, 83520, Note_on_c, 6, 59, 41
7, 83520, Note_on_c, 6, 55, 41
7, 83528, Note_off_c, 6, 55, 64
7, 83528, Note_off_c, 6, 59, 64
7, 83712, Note_on_c, 6, 59, 47
7, 83712, Note_on_c, 6, 55, 50
7, 83712, Note_on_c, 6, 64, 45
7, 83720, Note_off_c, 6, 64, 64
7, 83720, Note_off_c, 6, 55, 64
7, 83720, Note_off_c, 6, 59, 64
7, 83904, Note_on_c, 6, 59, 41
7, 83904, Note_on_c, 6, 64, 41
7, 83904, Note_on_c, 6, 55, 41
7, 83912, Note_off_c, 6, 55, 64
7, 83912, Note_off_c, 6, 64, 64
7, 83912, Note_off_c, 6, 59, 64
7, 84096, Note_on_c, 6, 64, 42
7, 84096, Note_on_c, 6, 55, 50
7, 84096, Note_on_c, 6, 59, 45
7, 84104, Note_off_c, 6, 59, 64
7, 84104, Note_off_c, 6, 55, 64
7, 84104, Note_off_c, 6, 64, 64
7, 84288, Note_on_c, 6, 59, 41
7, 84288, Note_on_c, 6, 64, 41
7, 84288, Note_on_c, 6, 55, 41
7, 84296, Note_off_c, 6, 55, 64
7, 84296, Note_off_c, 6, 64, 64
7, 84296, Note_off_c, 6, 59, 64
7, 84456, Control_c, 6, 64, 0
7, 84480, Control_c, 6, 64, 127
7, 84480, Note_on_c, 6, 64, 49
7, 84480, Note_on_c, 6, 55, 53
7, 84480, Note_on_c, 6, 59, 56
7, 84488, Note_off_c, 6, 59, 64
7, 84488, Note_off_c, 6, 55, 64
7, 84488, Note_off_c, 6, 64, 64
7, 84672, Note_on_c, 6, 64, 41
7, 84672, Note_on_c, 6, 55, 41
7, 84672, Note_on_c, 6, 59, 41
7, 84680, Note_off_c, 6, 59, 64
7, 84680, Note_off_c, 6, 55, 64
7, 84680, Note_off_c, 6, 64, 64
7, 84864, Note_on_c, 6, 64, 55
7, 84864, Note_on_c, 6, 55, 60
7, 84864, Note_on_c, 6, 59, 59
7, 84872, Note_off_c, 6, 59, 64
7, 84872, Note_off_c, 6, 55, 64
7, 84872, Note_off_c, 6, 64, 64
7, 85056, Note_on_c, 6, 59, 41
7, 85056, Note_on_c, 6, 55, 41
7, 85064, Note_off_c, 6, 55, 64
7, 85064, Note_off_c, 6, 59, 64
7, 85200, Control_c, 6, 64, 0
7, 85248, Control_c, 6, 64, 127
7, 85248, Note_on_c, 6, 62, 45
7, 85248, Note_on_c, 6, 54, 50
7, 85248, Note_on_c, 6, 57, 47
7, 85256, Note_off_c, 6, 57, 64
7, 85256, Note_off_c, 6, 54, 64
7, 85256, Note_off_c, 6, 62, 64
7, 85440, Note_on_c, 6, 62, 41
7, 85440, Note_on_c, 6, 57, 41
7, 85440, Note_on_c, 6, 54, 41
7, 85448, Note_off_c, 6, 54, 64
7, 85448, Note_off_c, 6, 57, 64
7, 85448, Note_off_c, 6, 62, 64
7, 85632, Note_on_c, 6, 62, 42
7, 85632, Note_on_c, 6, 54, 50
7, 85632, Note_on_c, 6, 57, 45
7, 85640, Note_off_c, 6, 57, 64
7, 85640, Note_off_c, 6, 54, 64
7, 85640, Note_off_c, 6, 62, 64
7, 85824, Note_on_c, 6, 62, 41
7, 85824, Note_on_c, 6, 57, 41
7, 85824, Note_on_c, 6, 54, 41
7, 85832, Note_off_c, 6, 54, 64
7, 85832, Note_off_c, 6, 57, 64
7, 85832, Note_off_c, 6, 62, 64
7, 85992, Control_c, 6, 64, 0
7, 86016, Control_c, 6, 64, 127
7, 86016, Note_on_c, 6, 55, 53
7, 86016, Note_on_c, 6, 59, 56
7, 86016, Note_on_c, 6, 62, 49
7, 86024, Note_off_c, 6, 62, 64
7, 86024, Note_off_c, 6, 59, 64
7, 86024, Note_off_c, 6, 55, 64
7, 86208, Note_on_c, 6, 55, 41
7, 86208, Note_on_c, 6, 59, 41
7, 86208, Note_on_c, 6, 62, 41
7, 86216, Note_off_c, 6, 62, 64
7, 86216, Note_off_c, 6, 59, 64
7, 86216, Note_off_c, 6, 55, 64
7, 86400, Note_on_c, 6, 55, 60
7, 86400, Note_on_c, 6, 59, 59
7, 86400, Note_on_c, 6, 62, 55
7, 86408, Note_off_c, 6, 62, 64
7, 86408, Note_off_c, 6, 59, 64
7, 86408, Note_off_c, 6, 55, 64
7, 86592, Note_on_c, 6, 59, 41
7, 86592, Note_on_c, 6, 55, 41
7, 86600, Note_off_c, 6, 55, 64
7, 86600, Note_off_c, 6, 59, 64
7, 86736, Control_c, 6, 64, 0
7, 86784, Control_c, 6, 64, 127
7, 86784, Note_on_c, 6, 66, 45
7, 86784, Note_on_c, 6, 57, 47
7, 86784, Note_on_c, 6, 62, 50
7, 86792, Note_off_c, 6, 62, 64
7, 86792, Note_off_c, 6, 57, 64
7, 86792, Note_off_c, 6, 66, 64
7, 86976, Note_on_c, 6, 66, 41
7, 86976, Note_on_c, 6, 57, 41
7, 86976, Note_on_c, 6, 62, 41
7, 86984, Note_off_c, 6, 62, 64
7, 86984, Note_off_c, 6, 57, 64
7, 86984, Note_off_c, 6, 66, 64
7, 87168, Note_on_c, 6, 66, 42
7, 87168, Note_on_c, 6, 57, 45
7, 87168, Note_on_c, 6, 62, 50
7, 87176, Note_off_c, 6, 62, 64
7, 87176, Note_off_c, 6, 57, 64
7, 87176, Note_off_c, 6, 66, 64
7, 87360, Note_on_c, 6, 66, 41
7, 87360, Note_on_c, 6, 57, 41
7, 87360, Note_on_c, 6, 62, 41
7, 87368, Note_off_c, 6, 62, 64
7, 87368, Note_off_c, 6, 57, 64
7, 87368, Note_off_c, 6, 66, 64
7, 87528, Control_c, 6, 64, 0
7, 87552, Control_c, 6, 64, 127
7, 87552, Note_on_c, 6, 61, 49
7, 87552, Note_on_c, 6, 52, 53
7, 87552, Note_on_c, 6, 57, 56
7, 87560, Note_off_c, 6, 57, 64
7, 87560, Note_off_c, 6, 52, 64
7, 87560, Note_off_c, 6, 61, 64
7, 87744, Note_on_c, 6, 61, 41
7, 87744, Note_on_c, 6, 52, 41
7, 87744, Note_on_c, 6, 57, 41
7, 87752, Note_off_c, 6, 57, 64
7, 87752, Note_off_c, 6, 52, 64
7, 87752, Note_off_c, 6, 61, 64
7, 87936, Note_on_c, 6, 61, 55
7, 87936, Note_on_c, 6, 52, 60
7, 87936, Note_on_c, 6, 57, 59
7, 87944, Note_off_c, 6, 57, 64
7, 87944, Note_off_c, 6, 52, 64
7, 87944, Note_off_c, 6, 61, 64
7, 88128, Note_on_c, 6, 52, 41
7, 88128, Note_on_c, 6, 57, 41
7, 88136, Note_off_c, 6, 57, 64
7, 88136, Note_off_c, 6, 52, 64
7, 88320, Note_on_c, 6, 52, 50
7, 88320, Note_on_c, 6, 61, 45
7, 88320, Note_on_c, 6, 57, 47
7, 88328, Note_off_c, 6, 57, 64
7, 88328, Note_off_c, 6, 61, 64
7, 88328, Note_off_c, 6, 52, 64
7, 88512, Note_on_c, 6, 61, 41
7, 88512, Note_on_c, 6, 52, 41
7, 88512, Note_on_c, 6, 57, 41
7, 88520, Note_off_c, 6, 57, 64
7, 88520, Note_off_c, 6, 52, 64
7, 88520, Note_off_c, 6, 61, 64
7, 88704, Note_on_c, 6, 61, 42
7, 88704, Note_on_c, 6, 52, 50
7, 88704, Note_on_c, 6, 57, 45
7, 88712, Note_off_c, 6, 57, 64
7, 88712, Note_off_c, 6, 52, 64
7, 88712, Note_off_c, 6, 61, 64
7, 88896, Note_on_c, 6, 61, 41
7, 88896, Note_on_c, 6, 52, 41
7, 88896, Note_on_c, 6, 57, 41
7, 88904, Note_off_c, 6, 57, 64
7, 88904, Note_off_c, 6, 52, 64
7, 88904, Note_off_c, 6, 61, 64
7, 89064, Control_c, 6, 64, 0
7, 89088, Control_c, 6, 64, 127
7, 89088, Note_on_c, 6, 63, 49
7, 89088, Note_on_c, 6, 54, 53
7, 89088, Note_on_c, 6, 59, 56
7, 89096, Note_off_c, 6, 59, 64
7, 89096, Note_off_c, 6, 54, 64
7, 89096, Note_off_c, 6, 63, 64
7, 89280, Note_on_c, 6, 63, 41
7, 89280, Note_on_c, 6, 54, 41
7, 89280, Note_on_c, 6, 59, 41
7, 89288, Note_off_c, 6, 59, 64
7, 89288, Note_off_c, 6, 54, 64
7, 89288, Note_off_c, 6, 63, 64
7, 89472, Note_on_c, 6, 63, 55
7, 89472, Note_on_c, 6, 54, 60
7, 89472, Note_on_c, 6, 59, 59
7, 89480, Note_off_c, 6, 59, 64
7, 89480, Note_off_c, 6, 54, 64
7, 89480, Note_off_c, 6, 63, 64
7, 89664, Note_on_c, 6, 54, 41
7, 89664, Note_on_c, 6, 59, 41
7, 89672, Note_off_c, 6, 59, 64
7, 89672, Note_off_c, 6, 54, 64
7, 89856, Note_on_c, 6, 54, 50
7, 89856, Note_on_c, 6, 63, 45
7, 89856, Note_on_c, 6, 59, 47
7, 89864, Note_off_c, 6, 59, 64
7, 89864, Note_off_c, 6, 63, 64
7, 89864, Note_off_c, 6, 54, 64
7, 90048, Note_on_c, 6, 63, 41
7, 90048, Note_on_c, 6, 54, 41
7, 90048, Note_on_c, 6, 59, 41
7, 90056, Note_off_c, 6, 59, 64
7, 90056, Note_off_c, 6, 54, 64
7, 90056, Note_off_c, 6, 63, 64
7, 90240, Note_on_c, 6, 63, 42
7, 90240, Note_on_c, 6, 54, 50
7, 90240, Note_on_c, 6, 59, 45
7, 90248, Note_off_c, 6, 59, 64
7, 90248, Note_off_c, 6, 54, 64
7, 90248, Note_off_c, 6, 63, 64
7, 90432, Note_on_c, 6, 63, 41
7, 90432, Note_on_c, 6, 54, 41
7, 90432, Note_on_c, 6, 59, 41
7, 90440, Note_off_c, 6, 59, 64
7, 90440, Note_off_c, 6, 54, 64
7, 90440, Note_off_c, 6, 63, 64
7, 90600, Control_c, 6, 64, 0
7, 102912, Control_c, 6, 64, 127
7, 102912, Note_on_c, 6, 64, 49
7, 102912, Note_on_c, 6, 55, 53
7, 102912, Note_on_c, 6, 59, 56
7, 102920, Note_off_c, 6, 59, 64
7, 102920, Note_off_c, 6, 55, 64
7, 102920, Note_off_c, 6, 64, 64
7, 103104, Note_on_c, 6, 64, 41
7, 103104, Note_on_c, 6, 55, 41
7, 103104, Note_on_c, 6, 59, 41
7, 103112, Note_off_c, 6, 59, 64
7, 103112, Note_off_c, 6, 55, 64
7, 103112, Note_off_c, 6, 64, 64
7, 103296, Note_on_c, 6, 64, 55
7, 103296, Note_on_c, 6, 55, 60
7, 103296, Note_on_c, 6, 59, 59
7, 103304, Note_off_c, 6, 59, 64
7, 103304, Note_off_c, 6, 55, 64
7, 103304, Note_off_c, 6, 64, 64
7, 103488, Note_on_c, 6, 59, 41
7, 103488, Note_on_c, 6, 55, 41
7, 103496, Note_off_c, 6, 55, 64
7, 103496, Note_off_c, 6, 59, 64
7, 103632, Control_c, 6, 64, 0
7, 103680, Control_c, 6, 64, 127
7, 103680, Note_on_c, 6, 62, 45
7, 103680, Note_on_c, 6, 54, 50
7, 103680, Note_on_c, 6, 57, 47
7, 103688, Note_off_c, 6, 57, 64
7, 103688, Note_off_c, 6, 54, 64
7, 103688, Note_off_c, 6, 62, 64
7, 103872, Note_on_c, 6, 62, 41
7, 103872, Note_on_c, 6, 57, 41
7, 103872, Note_on_c, 6, 54, 41
7, 103880, Note_off_c, 6, 54, 64
7, 103880, Note_off_c, 6, 57, 64
7, 103880, Note_off_c, 6, 62, 64
7, 104064, Note_on_c, 6, 62, 42
7, 104064, Note_on_c, 6, 54, 50
7, 104064, Note_on_c, 6, 57, 45
7, 104072, Note_off_c, 6, 57, 64
7, 104072, Note_off_c, 6, 54, 64
7, 104072, Note_off_c, 6, 62, 64
7, 104256, Note_on_c, 6, 62, 41
7, 104256, Note_on_c, 6, 57, 41
7, 104256, Note_on_c, 6, 54, 41
7, 104264, Note_off_c, 6, 54, 64
7, 104264, Note_off_c, 6, 57, 64
7, 104264, Note_off_c, 6, 62, 64
7, 104424, Control_c, 6, 64, 0
7, 104448, Control_c, 6, 64, 127
7, 104448, Note_on_c, 6, 55, 53
7, 104448, Note_on_c, 6, 59, 56
7, 104448, Note_on_c, 6, 62, 49
7, 104456, Note_off_c, 6, 62, 64
7, 104456, Note_off_c, 6, 59, 64
7, 104456, Note_off_c, 6, 55, 64
7, 104640, Note_on_c, 6, 55, 41
7, 104640, Note_on_c, 6, 59, 41
7, 104640, Note_on_c, 6, 62, 41
7, 104648, Note_off_c, 6, 62, 64
7, 104648, Note_off_c, 6, 59, 64
7, 104648, Note_off_c, 6, 55, 64
7, 104832, Note_on_c, 6, 55, 60
7, 104832, Note_on_c, 6, 59, 59
7, 104832, Note_on_c, 6, 62, 55
7, 104840, Note_off_c, 6, 62, 64
7, 104840, Note_off_c, 6, 59, 64
7, 104840, Note_off_c, 6, 55, 64
7, 105024, Note_on_c, 6, 59, 41
7, 105024, Note_on_c, 6, 55, 41
7, 105032, Note_off_c, 6, 55, 64
7, 105032, Note_off_c, 6, 59, 64
7, 105168, Control_c, 6, 64, 0
7, 105216, Control_c, 6, 64, 127
7, 105216, Note_on_c, 6, 66, 45
7, 105216, Note_on_c, 6, 57, 47
7, 105216, Note_on_c, 6, 62, 50
7, 105224, Note_off_c, 6, 62, 64
7, 105224, Note_off_c, 6, 57, 64
7, 105224, Note_off_c, 6, 66, 64
7, 105408, Note_on_c, 6, 66, 41
7, 105408, Note_on_c, 6, 57, 41
7, 105408, Note_on_c, 6, 62, 41
7, 105416, Note_off_c, 6, 62, 64
7, 105416, Note_off_c, 6, 57, 64
7, 105416, Note_off_c, 6, 66, 64
7, 105600, Note_on_c, 6, 66, 42
7, 105600, Note_on_c, 6, 57, 45
7, 105600, Note_on_c, 6, 62, 50
7, 105608, Note_off_c, 6, 62, 64
7, 105608, Note_off_c, 6, 57, 64
7, 105608, Note_off_c, 6, 66, 64
7, 105792, Note_on_c, 6, 66, 41
7, 105792, Note_on_c, 6, 57, 41
7, 105792, Note_on_c, 6, 62, 41
7, 105800, Note_off_c, 6, 62, 64
7, 105800, Note_off_c, 6, 57, 64
7, 105800, Note_off_c, 6, 66, 64
7, 105960, Control_c, 6, 64, 0
7, 105984, Control_c, 6, 64, 127
7, 105984, Note_on_c, 6, 64, 49
7, 105984, Note_on_c, 6, 55, 53
7, 105984, Note_on_c, 6, 59, 56
7, 105992, Note_off_c, 6, 59, 64
7, 105992, Note_off_c, 6, 55, 64
7, 105992, Note_off_c, 6, 64, 64
7, 106176, Note_on_c, 6, 64, 41
7, 106176, Note_on_c, 6, 55, 41
7, 106176, Note_on_c, 6, 59, 41
7, 106184, Note_off_c, 6, 59, 64
7, 106184, Note_off_c, 6, 55, 64
7, 106184, Note_off_c, 6, 64, 64
7, 106368, Note_on_c, 6, 64, 55
7, 106368, Note_on_c, 6, 55, 60
7, 106368, Note_on_c, 6, 59, 59
7, 106376, Note_off_c, 6, 59, 64
7, 106376, Note_off_c, 6, 55, 64
7, 106376, Note_off_c, 6, 64, 64
7, 106560, Note_on_c, 6, 59, 41
7, 106560, Note_on_c, 6, 55, 41
7, 106568, Note_off_c, 6, 55, 64
7, 106568, Note_off_c, 6, 59, 64
7, 106752, Note_on_c, 6, 59, 47
7, 106752, Note_on_c, 6, 55, 50
7, 106752, Note_on_c, 6, 64, 45
7, 106760, Note_off_c, 6, 64, 64
7, 106760, Note_off_c, 6, 55, 64
7, 106760, Note_off_c, 6, 59, 64
7, 106944, Note_on_c, 6, 59, 41
7, 106944, Note_on_c, 6, 64, 41
7, 106944, Note_on_c, 6, 55, 41
7, 106952, Note_off_c, 6, 55, 64
7, 106952, Note_off_c, 6, 64, 64
7, 106952, Note_off_c, 6, 59, 64
7, 107136, Note_on_c, 6, 64, 42
7, 107136, Note_on_c, 6, 55, 50
7, 107136, Note_on_c, 6, 59, 45
7, 107144, Note_off_c, 6, 59, 64
7, 107144, Note_off_c, 6, 55, 64
7, 107144, Note_off_c, 6, 64, 64
7, 107328, Note_on_c, 6, 59, 41
7, 107328, Note_on_c, 6, 64, 41
7, 107328, Note_on_c, 6, 55, 41
7, 107336, Note_off_c, 6, 55, 64
7, 107336, Note_off_c, 6, 64, 64
7, 107336, Note_off_c, 6, 59, 64
7, 107496, Control_c, 6, 64, 0
7, 107520, Control_c, 6, 64, 127
7, 107520, Note_on_c, 6, 64, 49
7, 107520, Note_on_c, 6, 55, 53
7, 107520, Note_on_c, 6, 59, 56
7, 107528, Note_off_c, 6, 59, 64
7, 107528, Note_off_c, 6, 55, 64
7, 107528, Note_off_c, 6, 64, 64
7, 107712, Note_on_c, 6, 64, 41
7, 107712, Note_on_c, 6, 55, 41
7, 107712, Note_on_c, 6, 59, 41
7, 107720, Note_off_c, 6, 59, 64
7, 107720, Note_off_c, 6, 55, 64
7, 107720, Note_off_c, 6, 64, 64
7, 107904, Note_on_c, 6, 64, 55
7, 107904, Note_on_c, 6, 55, 60
7, 107904, Note_on_c, 6, 59, 59
7, 107912, Note_off_c, 6, 59, 64
7, 107912, Note_off_c, 6, 55, 64
7, 107912, Note_off_c, 6, 64, 64
7, 108096, Note_on_c, 6, 59, 41
7, 108096, Note_on_c, 6, 55, 41
7, 108104, Note_off_c, 6, 55, 64
7, 108104, Note_off_c, 6, 59, 64
7, 108288, Note_on_c, 6, 59, 47
7, 108288, Note_on_c, 6, 55, 50
7, 108288, Note_on_c, 6, 64, 45
7, 108296, Note_off_c, 6, 64, 64
7, 108296, Note_off_c, 6, 55, 64
7, 108296, Note_off_c, 6, 59, 64
7, 108480, Note_on_c, 6, 59, 41
7, 108480, Note_on_c, 6, 64, 41
7, 108480, Note_on_c, 6, 55, 41
7, 108488, Note_off_c, 6, 55, 64
7, 108488, Note_off_c, 6, 64, 64
7, 108488, Note_off_c, 6, 59, 64
7, 108672, Note_on_c, 6, 64, 42
7, 108672, Note_on_c, 6, 55, 50
7, 108672, Note_on_c, 6, 59, 45
7, 108680, Note_off_c, 6, 59, 64
7, 108680, Note_off_c, 6, 55, 64
7, 108680, Note_off_c, 6, 64, 64
7, 108864, Note_on_c, 6, 59, 41
7, 108864, Note_on_c, 6, 64, 41
7, 108864, Note_on_c, 6, 55, 41
7, 108872, Note_off_c, 6, 55, 64
7, 108872, Note_off_c, 6, 64, 64
7, 108872, Note_off_c, 6, 59, 64
7, 109032, Control_c, 6, 64, 0
7, 109056, Control_c, 6, 64, 127
7, 109056, Note_on_c, 6, 64, 49
7, 109056, Note_on_c, 6, 55, 53
7, 109056, Note_on_c, 6, 59, 56
7, 109064, Note_off_c, 6, 59, 64
7, 109064, Note_off_c, 6, 55, 64
7, 109064, Note_off_c, 6, 64, 64
7, 109248, Note_on_c, 6, 64, 41
7, 109248, Note_on_c, 6, 55, 41
7, 109248, Note_on_c, 6, 59, 41
7, 109256, Note_off_c, 6, 59, 64
7, 109256, Note_off_c, 6, 55, 64
7, 109256, Note_off_c, 6, 64, 64
7, 109440, Note_on_c, 6, 64, 55
7, 109440, Note_on_c, 6, 55, 60
7, 109440, Note_on_c, 6, 59, 59
7, 109448, Note_off_c, 6, 59, 64
7, 109448, Note_off_c, 6, 55, 64
7, 109448, Note_off_c, 6, 64, 64
7, 109632, Note_on_c, 6, 59, 41
7, 109632, Note_on_c, 6, 55, 41
7, 109640, Note_off_c, 6, 55, 64
7, 109640, Note_off_c, 6, 59, 64
7, 109776, Control_c, 6, 64, 0
7, 109824, Control_c, 6, 64, 127
7, 109824, Note_on_c, 6, 62, 45
7, 109824, Note_on_c, 6, 54, 50
7, 109824, Note_on_c, 6, 57, 47
7, 109832, Note_off_c, 6, 57, 64
7, 109832, Note_off_c, 6, 54, 64
7, 109832, Note_off_c, 6, 62, 64
7, 110016, Note_on_c, 6, 62, 41
7, 110016, Note_on_c, 6, 57, 41
7, 110016, Note_on_c, 6, 54, 41
7, 110024, Note_off_c, 6, 54, 64
7, 110024, Note_off_c, 6, 57, 64
7, 110024, Note_off_c, 6, 62, 64
7, 110208, Note_on_c, 6, 62, 42
7, 110208, Note_on_c, 6, 54, 50
7, 110208, Note_on_c, 6, 57, 45
7, 110216, Note_off_c, 6, 57, 64
7, 110216, Note_off_c, 6, 54, 64
7, 110216, Note_off_c, 6, 62, 64
7, 110400, Note_on_c, 6, 62, 41
7, 110400, Note_on_c, 6, 57, 41
7, 110400, Note_on_c, 6, 54, 41
7, 110408, Note_off_c, 6, 54, 64
7, 110408, Note_off_c, 6, 57, 64
7, 110408, Note_off_c, 6, 62, 64
7, 110568, Control_c, 6, 64, 0
7, 110592, Control_c, 6, 64, 127
7, 110592, Note_on_c, 6, 55, 53
7, 110592, Note_on_c, 6, 59, 56
7, 110592, Note_on_c, 6, 62, 49
7, 110600, Note_off_c, 6, 62, 64
7, 110600, Note_off_c, 6, 59, 64
7, 110600, Note_off_c, 6, 55, 64
7, 110784, Note_on_c, 6, 55, 41
7, 110784, Note_on_c, 6, 59, 41
7, 110784, Note_on_c, 6, 62, 41
7, 110792, Note_off_c, 6, 62, 64
7, 110792, Note_off_c, 6, 59, 64
7, 110792, Note_off_c, 6, 55, 64
7, 110976, Note_on_c, 6, 55, 60
7, 110976, Note_on_c, 6, 59, 59
7, 110976, Note_on_c, 6, 62, 55
7, 110984, Note_off_c, 6, 62, 64
7, 110984, Note_off_c, 6, 59, 64
7, 110984, Note_off_c, 6, 55, 64
7, 111168, Note_on_c, 6, 59, 41
7, 111168, Note_on_c, 6, 55, 41
7, 111176, Note_off_c, 6, 55, 64
7, 111176, Note_off_c, 6, 59, 64
7, 111312, Control_c, 6, 64, 0
7, 111360, Control_c, 6, 64, 127
7, 111360, Note_on_c, 6, 66, 45
7, 111360, Note_on_c, 6, 57, 47
7, 111360, Note_on_c, 6, 62, 50
7, 111368, Note_off_c, 6, 62, 64
7, 111368, Note_off_c, 6, 57, 64
7, 111368, Note_off_c, 6, 66, 64
7, 111552, Note_on_c, 6, 66, 41
7, 111552, Note_on_c, 6, 57, 41
7, 111552, Note_on_c, 6, 62, 41
7, 111560, Note_off_c, 6, 62, 64
7, 111560, Note_off_c, 6, 57, 64
7, 111560, Note_off_c, 6, 66, 64
7, 111744, Note_on_c, 6, 66, 42
7, 111744, Note_on_c, 6, 57, 45
7, 111744, Note_on_c, 6, 62, 50
7, 111752, Note_off_c, 6, 62, 64
7, 111752, Note_off_c, 6, 57, 64
7, 111752, Note_off_c, 6, 66, 64
7, 111936, Note_on_c, 6, 66, 41
7, 111936, Note_on_c, 6, 57, 41
7, 111936, Note_on_c, 6, 62, 41
7, 111944, Note_off_c, 6, 62, 64
7, 111944, Note_off_c, 6, 57, 64
7, 111944, Note_off_c, 6, 66, 64
7, 112104, Control_c, 6, 64, 0
7, 112128, Control_c, 6, 64, 127
7, 112128, Note_on_c, 6, 61, 49
7, 112128, Note_on_c, 6, 52, 53
7, 112128, Note_on_c, 6, 57, 56
7, 112136, Note_off_c, 6, 57, 64
7, 112136, Note_off_c, 6, 52, 64
7, 112136, Note_off_c, 6, 61, 64
7, 112320, Note_on_c, 6, 61, 41
7, 112320, Note_on_c, 6, 52, 41
7, 112320, Note_on_c, 6, 57, 41
7, 112328, Note_off_c, 6, 57, 64
7, 112328, Note_off_c, 6, 52, 64
7, 112328, Note_off_c, 6, 61, 64
7, 112512, Note_on_c, 6, 61, 55
7, 112512, Note_on_c, 6, 52, 60
7, 112512, Note_on_c, 6, 57, 59
7, 112520, Note_off_c, 6, 57, 64
7, 112520, Note_off_c, 6, 52, 64
7, 112520, Note_off_c, 6, 61, 64
7, 112704, Note_on_c, 6, 52, 41
7, 112704, Note_on_c, 6, 57, 41
7, 112712, Note_off_c, 6, 57, 64
7, 112712, Note_off_c, 6, 52, 64
7, 112896, Note_on_c, 6, 52, 50
7, 112896, Note_on_c, 6, 61, 45
7, 112896, Note_on_c, 6, 57, 47
7, 112904, Note_off_c, 6, 57, 64
7, 112904, Note_off_c, 6, 61, 64
7, 112904, Note_off_c, 6, 52, 64
7, 113088, Note_on_c, 6, 61, 41
7, 113088, Note_on_c, 6, 52, 41
7, 113088, Note_on_c, 6, 57, 41
7, 113096, Note_off_c, 6, 57, 64
7, 113096, Note_off_c, 6, 52, 64
7, 113096, Note_off_c, 6, 61, 64
7, 113280, Note_on_c, 6, 61, 42
7, 113280, Note_on_c, 6, 52, 50
7, 113280, Note_on_c, 6, 57, 45
7, 113288, Note_off_c, 6, 57, 64
7, 113288, Note_off_c, 6, 52, 64
7, 113288, Note_off_c, 6, 61, 64
7, 113472, Note_on_c, 6, 61, 41
7, 113472, Note_on_c, 6, 52, 41
7, 113472, Note_on_c, 6, 57, 41
7, 113480, Note_off_c, 6, 57, 64
7, 113480, Note_off_c, 6, 52, 64
7, 113480, Note_off_c, 6, 61, 64
7, 113640, Control_c, 6, 64, 0
7, 113664, Control_c, 6, 64, 127
7, 113664, Note_on_c, 6, 63, 49
7, 113664, Note_on_c, 6, 54, 53
7, 113664, Note_on_c, 6, 59, 56
7, 113672, Note_off_c, 6, 59, 64
7, 113672, Note_off_c, 6, 54, 64
7, 113672, Note_off_c, 6, 63, 64
7, 113856, Note_on_c, 6, 63, 41
7, 113856, Note_on_c, 6, 54, 41
7, 113856, Note_on_c, 6, 59, 41
7, 113864, Note_off_c, 6, 59, 64
7, 113864, Note_off_c, 6, 54, 64
7, 113864, Note_off_c, 6, 63, 64
7, 114048, Note_on_c, 6, 63, 55
7, 114048, Note_on_c, 6, 54, 60
7, 114048, Note_on_c, 6, 59, 59
7, 114056, Note_off_c, 6, 59, 64
7, 114056, Note_off_c, 6, 54, 64
7, 114056, Note_off_c, 6, 63, 64
7, 114240, Note_on_c, 6, 54, 41
7, 114240, Note_on_c, 6, 59, 41
7, 114248, Note_off_c, 6, 59, 64
7, 114248, Note_off_c, 6, 54, 64
7, 114432, Note_on_c, 6, 54, 50
7, 114432, Note_on_c, 6, 63, 45
7, 114432, Note_on_c, 6, 59, 47
7, 114440, Note_off_c, 6, 59, 64
7, 114440, Note_off_c, 6, 63, 64
7, 114440, Note_off_c, 6, 54, 64
7, 114624, Note_on_c, 6, 63, 41
7, 114624, Note_on_c, 6, 54, 41
7, 114624, Note_on_c, 6, 59, 41
7, 114632, Note_off_c, 6, 59, 64
7, 114632, Note_off_c, 6, 54, 64
7, 114632, Note_off_c, 6, 63, 64
7, 114816, Note_on_c, 6, 63, 42
7, 114816, Note_on_c, 6, 54, 50
7, 114816, Note_on_c, 6, 59, 45
7, 114824, Note_off_c, 6, 59, 64
7, 114824, Note_off_c, 6, 54, 64
7, 114824, Note_off_c, 6, 63, 64
7, 115008, Note_on_c, 6, 63, 41
7, 115008, Note_on_c, 6, 54, 41
7, 115008, Note_on_c, 6, 59, 41
7, 115016, Note_off_c, 6, 59, 64
7, 115016, Note_off_c, 6, 54, 64
7, 115016, Note_off_c, 6, 63, 64
7, 115176, Control_c, 6, 64, 0
7, 115200, Control_c, 6, 64, 127
7, 115200, Note_on_c, 6, 64, 44
7, 115200, Note_on_c, 6, 55, 53
7, 115200, Note_on_c, 6, 59, 52
7, 115208, Note_off_c, 6, 59, 64
7, 115208, Note_off_c, 6, 55, 64
7, 115208, Note_off_c, 6, 64, 64
7, 115392, Note_on_c, 6, 59, 41
7, 115392, Note_on_c, 6, 64, 41
7, 115392, Note_on_c, 6, 55, 41
7, 115400, Note_off_c, 6, 55, 64
7, 115400, Note_off_c, 6, 64, 64
7, 115400, Note_off_c, 6, 59, 64
7, 115584, Note_on_c, 6, 64, 41
7, 115584, Note_on_c, 6, 55, 45
7, 115584, Note_on_c, 6, 59, 42
7, 115592, Note_off_c, 6, 59, 64
7, 115592, Note_off_c, 6, 55, 64
7, 115592, Note_off_c, 6, 64, 64
7, 115776, Note_on_c, 6, 64, 41
7, 115776, Note_on_c, 6, 59, 41
7, 115776, Note_on_c, 6, 55, 41
7, 115784, Note_off_c, 6, 55, 64
7, 115784, Note_off_c, 6, 59, 64
7, 115784, Note_off_c, 6, 64, 64
7, 115968, Note_on_c, 6, 55, 46
7, 115968, Note_on_c, 6, 64, 41
7, 115968, Note_on_c, 6, 59, 49
7, 115976, Note_off_c, 6, 59, 64
7, 115976, Note_off_c, 6, 64, 64
7, 115976, Note_off_c, 6, 55, 64
7, 116160, Note_on_c, 6, 64, 41
7, 116160, Note_on_c, 6, 59, 41
7, 116160, Note_on_c, 6, 55, 41
7, 116168, Note_off_c, 6, 55, 64
7, 116168, Note_off_c, 6, 59, 64
7, 116168, Note_off_c, 6, 64, 64
7, 116352, Note_on_c, 6, 55, 45
7, 116352, Note_on_c, 6, 64, 41
7, 116352, Note_on_c, 6, 59, 54
7, 116360, Note_off_c, 6, 59, 64
7, 116360, Note_off_c, 6, 64, 64
7, 116360, Note_off_c, 6, 55, 64
7, 116544, Note_on_c, 6, 64, 41
7, 116544, Note_on_c, 6, 59, 41
7, 116544, Note_on_c, 6, 55, 41
7, 116552, Note_off_c, 6, 55, 64
7, 116552, Note_off_c, 6, 59, 64
7, 116552, Note_off_c, 6, 64, 64
7, 116712, Control_c, 6, 64, 0
7, 116736, Control_c, 6, 64, 127
7, 116736, Note_on_c, 6, 64, 48
7, 116736, Note_on_c, 6, 55, 50
7, 116736, Note_on_c, 6, 59, 56
7, 116744, Note_off_c, 6, 59, 64
7, 116744, Note_off_c, 6, 55, 64
7, 116744, Note_off_c, 6, 64, 64
7, 116928, Note_on_c, 6, 55, 41
7, 116928, Note_on_c, 6, 59, 41
7, 116928, Note_on_c, 6, 64, 41
7, 116936, Note_off_c, 6, 64, 64
7, 116936, Note_off_c, 6, 59, 64
7, 116936, Note_off_c, 6, 55, 64
7, 117120, Note_on_c, 6, 55, 42
7, 117120, Note_on_c, 6, 64, 41
7, 117120, Note_on_c, 6, 59, 45
7, 117128, Note_off_c, 6, 59, 64
7, 117128, Note_off_c, 6, 64, 64
7, 117128, Note_off_c, 6, 55, 64
7, 117312, Note_on_c, 6, 64, 41
7, 117312, Note_on_c, 6, 55, 41
7, 117312, Note_on_c, 6, 59, 41
7, 117320, Note_off_c, 6, 59, 64
7, 117320, Note_off_c, 6, 55, 64
7, 117320, Note_off_c, 6, 64, 64
7, 117504, Note_on_c, 6, 55, 45
7, 117504, Note_on_c, 6, 64, 41
7, 117504, Note_on_c, 6, 59, 48
7, 117512, Note_off_c, 6, 59, 64
7, 117512, Note_off_c, 6, 64, 64
7, 117512, Note_off_c, 6, 55, 64
7, 117696, Note_on_c, 6, 55, 41
7, 117696, Note_on_c, 6, 59, 41
7, 117696, Note_on_c, 6, 64, 41
7, 117704, Note_off_c, 6, 64, 64
7, 117704, Note_off_c, 6, 59, 64
7, 117704, Note_off_c, 6, 55, 64
7, 117888, Note_on_c, 6, 64, 41
7, 117888, Note_on_c, 6, 55, 41
7, 117888, Note_on_c, 6, 59, 44
7, 117896, Note_off_c, 6, 59, 64
7, 117896, Note_off_c, 6, 55, 64
7, 117896, Note_off_c, 6, 64, 64
7, 118080, Note_on_c, 6, 64, 41
7, 118080, Note_on_c, 6, 55, 41
7, 118080, Note_on_c, 6, 59, 41
7, 118088, Note_off_c, 6, 59, 64
7, 118088, Note_off_c, 6, 55, 64
7, 118088, Note_off_c, 6, 64, 64
7, 118248, Control_c, 6, 64, 0
7, 118272, Control_c, 6, 64, 127
7, 118272, Note_on_c, 6, 63, 41
7, 118272, Note_on_c, 6, 59, 44
7, 118272, Note_on_c, 6, 54, 43
7, 118280, Note_off_c, 6, 54, 64
7, 118280, Note_off_c, 6, 59, 64
7, 118280, Note_off_c, 6, 63, 64
7, 118464, Note_on_c, 6, 63, 41
7, 118464, Note_on_c, 6, 59, 41
7, 118464, Note_on_c, 6, 54, 41
7, 118472, Note_off_c, 6, 54, 64
7, 118472, Note_off_c, 6, 59, 64
7, 118472, Note_off_c, 6, 63, 64
7, 118656, Note_on_c, 6, 63, 44
7, 118656, Note_on_c, 6, 54, 45
7, 118656, Note_on_c, 6, 59, 46
7, 118664, Note_off_c, 6, 59, 64
7, 118664, Note_off_c, 6, 54, 64
7, 118664, Note_off_c, 6, 63, 64
7, 118848, Note_on_c, 6, 63, 41
7, 118848, Note_on_c, 6, 59, 41
7, 118848, Note_on_c, 6, 54, 41
7, 118856, Note_off_c, 6, 54, 64
7, 118856, Note_off_c, 6, 59, 64
7, 118856, Note_off_c, 6, 63, 64
7, 119040, Note_on_c, 6, 63, 41
7, 119040, Note_on_c, 6, 54, 42
7, 119040, Note_on_c, 6, 59, 41
7, 119048, Note_off_c, 6, 59, 64
7, 119048, Note_off_c, 6, 54, 64
7, 119048, Note_off_c, 6, 63, 64
7, 119232, Note_on_c, 6, 63, 41
7, 119232, Note_on_c, 6, 59, 41
7, 119232, Note_on_c, 6, 54, 41
7, 119240, Note_off_c, 6, 54, 64
7, 119240, Note_off_c, 6, 59, 64
7, 119240, Note_off_c, 6, 63, 64
7, 119424, Note_on_c, 6, 63, 41
7, 119424, Note_on_c, 6, 54, 41
7, 119424, Note_on_c, 6, 59, 49
7, 119432, Note_off_c, 6, 59, 64
7, 119432, Note_off_c, 6, 54, 64
7, 119432, Note_off_c, 6, 63, 64
7, 119616, Note_on_c, 6, 63, 41
7, 119616, Note_on_c, 6, 59, 41
7, 119624, Note_off_c, 6, 59, 64
7, 119624, Note_off_c, 6, 63, 64
7, 119712, Note_on_c, 6, 54, 41
7, 119720, Note_off_c, 6, 54, 64
7, 119784, Control_c, 6, 64, 0
7, 119808, Control_c, 6, 64, 127
7, 119808, Note_on_c, 6, 63, 44
7, 119808, Note_on_c, 6, 54, 44
7, 119808, Note_on_c, 6, 59, 45
7, 119816, Note_off_c, 6, 59, 64
7, 119816, Note_off_c, 6, 54, 64
7, 119816, Note_off_c, 6, 63, 64
7, 120000, Note_on_c, 6, 59, 41
7, 120000, Note_on_c, 6, 63, 41
7, 120000, Note_on_c, 6, 54, 41
7, 120008, Note_off_c, 6, 54, 64
7, 120008, Note_off_c, 6, 63, 64
7, 120008, Note_off_c, 6, 59, 64
7, 120192, Note_on_c, 6, 63, 51
7, 120192, Note_on_c, 6, 54, 41
7, 120192, Note_on_c, 6, 59, 41
7, 120200, Note_off_c, 6, 59, 64
7, 120200, Note_off_c, 6, 54, 64
7, 120200, Note_off_c, 6, 63, 64
7, 120384, Note_on_c, 6, 63, 41
7, 120384, Note_on_c, 6, 54, 41
7, 120384, Note_on_c, 6, 59, 41
7, 120392, Note_off_c, 6, 59, 64
7, 120392, Note_off_c, 6, 54, 64
7, 120392, Note_off_c, 6, 63, 64
7, 120528, Control_c, 6, 64, 0
7, 120576, Control_c, 6, 64, 127
7, 120576, Note_on_c, 6, 59, 52
7, 120576, Note_on_c, 6, 64, 51
7, 120576, Note_on_c, 6, 55, 57
7, 120584, Note_off_c, 6, 55, 64
7, 120584, Note_off_c, 6, 64, 64
7, 120584, Note_off_c, 6, 59, 64
7, 120768, Note_on_c, 6, 64, 41
7, 120768, Note_on_c, 6, 55, 41
7, 120768, Note_on_c, 6, 59, 41
7, 120776, Note_off_c, 6, 59, 64
7, 120776, Note_off_c, 6, 55, 64
7, 120776, Note_off_c, 6, 64, 64
7, 120912, Control_c, 6, 64, 0
7, 120960, Control_c, 6, 64, 127
7, 120960, Note_on_c, 6, 63, 41
7, 120960, Note_on_c, 6, 59, 44
7, 120960, Note_on_c, 6, 54, 45
7, 120968, Note_off_c, 6, 54, 64
7, 120968, Note_off_c, 6, 59, 64
7, 120968, Note_off_c, 6, 63, 64
7, 121152, Note_on_c, 6, 63, 41
7, 121152, Note_on_c, 6, 54, 41
7, 121152, Note_on_c, 6, 59, 41
7, 121160, Note_off_c, 6, 59, 64
7, 121160, Note_off_c, 6, 54, 64
7, 121160, Note_off_c, 6, 63, 64
7, 121320, Control_c, 6, 64, 0
7, 121344, Control_c, 6, 64, 127
7, 121344, Note_on_c, 6, 64, 44
7, 121344, Note_on_c, 6, 55, 53
7, 121344, Note_on_c, 6, 59, 52
7, 121352, Note_off_c, 6, 59, 64
7, 121352, Note_off_c, 6, 55, 64
7, 121352, Note_off_c, 6, 64, 64
7, 121536, Note_on_c, 6, 59, 41
7, 121536, Note_on_c, 6, 64, 41
7, 121536, Note_on_c, 6, 55, 41
7, 121544, Note_off_c, 6, 55, 64
7, 121544, Note_off_c, 6, 64, 64
7, 121544, Note_off_c, 6, 59, 64
7, 121728, Note_on_c, 6, 64, 41
7, 121728, Note_on_c, 6, 55, 45
7, 121728, Note_on_c, 6, 59, 42
7, 121736, Note_off_c, 6, 59, 64
7, 121736, Note_off_c, 6, 55, 64
7, 121736, Note_off_c, 6, 64, 64
7, 121920, Note_on_c, 6, 64, 41
7, 121920, Note_on_c, 6, 59, 41
7, 121920, Note_on_c, 6, 55, 41
7, 121928, Note_off_c, 6, 55, 64
7, 121928, Note_off_c, 6, 59, 64
7, 121928, Note_off_c, 6, 64, 64
7, 122112, Note_on_c, 6, 55, 46
7, 122112, Note_on_c, 6, 64, 41
7, 122112, Note_on_c, 6, 59, 49
7, 122120, Note_off_c, 6, 59, 64
7, 122120, Note_off_c, 6, 64, 64
7, 122120, Note_off_c, 6, 55, 64
7, 122304, Note_on_c, 6, 64, 41
7, 122304, Note_on_c, 6, 59, 41
7, 122304, Note_on_c, 6, 55, 41
7, 122312, Note_off_c, 6, 55, 64
7, 122312, Note_off_c, 6, 59, 64
7, 122312, Note_off_c, 6, 64, 64
7, 122496, Note_on_c, 6, 55, 45
7, 122496, Note_on_c, 6, 64, 41
7, 122496, Note_on_c, 6, 59, 54
7, 122504, Note_off_c, 6, 59, 64
7, 122504, Note_off_c, 6, 64, 64
7, 122504, Note_off_c, 6, 55, 64
7, 122688, Note_on_c, 6, 64, 41
7, 122688, Note_on_c, 6, 59, 41
7, 122688, Note_on_c, 6, 55, 41
7, 122696, Note_off_c, 6, 55, 64
7, 122696, Note_off_c, 6, 59, 64
7, 122696, Note_off_c, 6, 64, 64
7, 122856, Control_c, 6, 64, 0
7, 122880, Control_c, 6, 64, 127
7, 122880, Note_on_c, 6, 64, 48
7, 122880, Note_on_c, 6, 55, 50
7, 122880, Note_on_c, 6, 59, 56
7, 122888, Note_off_c, 6, 59, 64
7, 122888, Note_off_c, 6, 55, 64
7, 122888, Note_off_c, 6, 64, 64
7, 123072, Note_on_c, 6, 55, 41
7, 123072, Note_on_c, 6, 59, 41
7, 123072, Note_on_c, 6, 64, 41
7, 123080, Note_off_c, 6, 64, 64
7, 123080, Note_off_c, 6, 59, 64
7, 123080, Note_off_c, 6, 55, 64
7, 123264, Note_on_c, 6, 55, 42
7, 123264, Note_on_c, 6, 64, 41
7, 123264, Note_on_c, 6, 59, 45
7, 123272, Note_off_c, 6, 59, 64
7, 123272, Note_off_c, 6, 64, 64
7, 123272, Note_off_c, 6, 55, 64
7, 123456, Note_on_c, 6, 64, 41
7, 123456, Note_on_c, 6, 55, 41
7, 123456, Note_on_c, 6, 59, 41
7, 123464, Note_off_c, 6, 59, 64
7, 123464, Note_off_c, 6, 55, 64
7, 123464, Note_off_c, 6, 64, 64
7, 123648, Note_on_c, 6, 55, 45
7, 123648, Note_on_c, 6, 64, 41
7, 123648, Note_on_c, 6, 59, 48
7, 123656, Note_off_c, 6, 59, 64
7, 123656, Note_off_c, 6, 64, 64
7, 123656, Note_off_c, 6, 55, 64
7, 123840, Note_on_c, 6, 55, 41
7, 123840, Note_on_c, 6, 59, 41
7, 123840, Note_on_c, 6, 64, 41
7, 123848, Note_off_c, 6, 64, 64
7, 123848, Note_off_c, 6, 59, 64
7, 123848, Note_off_c, 6, 55, 64
7, 124032, Note_on_c, 6, 64, 41
7, 124032, Note_on_c, 6, 55, 41
7, 124032, Note_on_c, 6, 59, 44
7, 124040, Note_off_c, 6, 59, 64
7, 124040, Note_off_c, 6, 55, 64
7, 124040, Note_off_c, 6, 64, 64
7, 124224, Note_on_c, 6, 64, 41
7, 124224, Note_on_c, 6, 55, 41
7, 124224, Note_on_c, 6, 59, 41
7, 124232, Note_off_c, 6, 59, 64
7, 124232, Note_off_c, 6, 55, 64
7, 124232, Note_off_c, 6, 64, 64
7, 124392, Control_c, 6, 64, 0
7, 124416, Control_c, 6, 64, 127
7, 124416, Note_on_c, 6, 63, 41
7, 124416, Note_on_c, 6, 59, 44
7, 124416, Note_on_c, 6, 54, 43
7, 124424, Note_off_c, 6, 54, 64
7, 124424, Note_off_c, 6, 59, 64
7, 124424, Note_off_c, 6, 63, 64
7, 124608, Note_on_c, 6, 63, 41
7, 124608, Note_on_c, 6, 59, 41
7, 124608, Note_on_c, 6, 54, 41
7, 124616, Note_off_c, 6, 54, 64
7, 124616, Note_off_c, 6, 59, 64
7, 124616, Note_off_c, 6, 63, 64
7, 124800, Note_on_c, 6, 63, 44
7, 124800, Note_on_c, 6, 54, 45
7, 124800, Note_on_c, 6, 59, 46
7, 124808, Note_off_c, 6, 59, 64
7, 124808, Note_off_c, 6, 54, 64
7, 124808, Note_off_c, 6, 63, 64
7, 124992, Note_on_c, 6, 63, 41
7, 124992, Note_on_c, 6, 59, 41
7, 124992, Note_on_c, 6, 54, 41
7, 125000, Note_off_c, 6, 54, 64
7, 125000, Note_off_c, 6, 59, 64
7, 125000, Note_off_c, 6, 63, 64
7, 125184, Note_on_c, 6, 63, 41
7, 125184, Note_on_c, 6, 54, 42
7, 125184, Note_on_c, 6, 59, 41
7, 125192, Note_off_c, 6, 59, 64
7, 125192, Note_off_c, 6, 54, 64
7, 125192, Note_off_c, 6, 63, 64
7, 125376, Note_on_c, 6, 63, 41
7, 125376, Note_on_c, 6, 59, 41
7, 125376, Note_on_c, 6, 54, 41
7, 125384, Note_off_c, 6, 54, 64
7, 125384, Note_off_c, 6, 59, 64
7, 125384, Note_off_c, 6, 63, 64
7, 125568, Note_on_c, 6, 63, 41
7, 125568, Note_on_c, 6, 54, 41
7, 125568, Note_on_c, 6, 59, 49
7, 125576, Note_off_c, 6, 59, 64
7, 125576, Note_off_c, 6, 54, 64
7, 125576, Note_off_c, 6, 63, 64
7, 125760, Note_on_c, 6, 63, 41
7, 125760, Note_on_c, 6, 59, 41
7, 125768, Note_off_c, 6, 59, 64
7, 125768, Note_off_c, 6, 63, 64
7, 125856, Note_on_c, 6, 54, 41
7, 125864, Note_off_c, 6, 54, 64
7, 125928, Control_c, 6, 64, 0
7, 125952, Control_c, 6, 64, 127
7, 125952, Note_on_c, 6, 63, 44
7, 125952, Note_on_c, 6, 54, 44
7, 125952, Note_on_c, 6, 59, 45
7, 125960, Note_off_c, 6, 59, 64
7, 125960, Note_off_c, 6, 54, 64
7, 125960, Note_off_c, 6, 63, 64
7, 126144, Note_on_c, 6, 59, 41
7, 126144, Note_on_c, 6, 63, 41
7, 126144, Note_on_c, 6, 54, 41
7, 126152, Note_off_c, 6, 54, 64
7, 126152, Note_off_c, 6, 63, 64
7, 126152, Note_off_c, 6, 59, 64
7, 126336, Note_on_c, 6, 63, 51
7, 126336, Note_on_c, 6, 54, 41
7, 126336, Note_on_c, 6, 59, 41
7, 126344, Note_off_c, 6, 59, 64
7, 126344, Note_off_c, 6, 54, 64
7, 126344, Note_off_c, 6, 63, 64
7, 126528, Note_on_c, 6, 63, 41
7, 126528, Note_on_c, 6, 54, 41
7, 126528, Note_on_c, 6, 59, 41
7, 126536, Note_off_c, 6, 59, 64
7, 126536, Note_off_c, 6, 54, 64
7, 126536, Note_off_c, 6, 63, 64
7, 126672, Control_c, 6, 64, 0
7, 126720, Control_c, 6, 64, 127
7, 126720, Note_on_c, 6, 59, 52
7, 126720, Note_on_c, 6, 64, 51
7, 126720, Note_on_c, 6, 55, 57
7, 126728, Note_off_c, 6, 55, 64
7, 126728, Note_off_c, 6, 64, 64
7, 126728, Note_off_c, 6, 59, 64
7, 126912, Note_on_c, 6, 64, 41
7, 126912, Note_on_c, 6, 55, 41
7, 126912, Note_on_c, 6, 59, 41
7, 126920, Note_off_c, 6, 59, 64
7, 126920, Note_off_c, 6, 55, 64
7, 126920, Note_off_c, 6, 64, 64
7, 127056, Control_c, 6, 64, 0
7, 127104, Control_c, 6, 64, 127
7, 127104, Note_on_c, 6, 63, 41
7, 127104, Note_on_c, 6, 59, 44
7, 127104, Note_on_c, 6, 54, 45
7, 127112, Note_off_c, 6, 54, 64
7, 127112, Note_off_c, 6, 59, 64
7, 127112, Note_off_c, 6, 63, 64
7, 127296, Note_on_c, 6, 63, 41
7, 127296, Note_on_c, 6, 54, 41
7, 127296, Note_on_c, 6, 59, 41
7, 127304, Note_off_c, 6, 59, 64
7, 127304, Note_off_c, 6, 54, 64
7, 127304, Note_off_c, 6, 63, 64
7, 127464, Control_c, 6, 64, 0
7, 127488, Control_c, 6, 64, 127
7, 127488, Note_on_c, 6, 64, 49
7, 127488, Note_on_c, 6, 55, 53
7, 127488, Note_on_c, 6, 59, 56
7, 127496, Note_off_c, 6, 59, 64
7, 127496, Note_off_c, 6, 55, 64
7, 127496, Note_off_c, 6, 64, 64
7, 127680, Note_on_c, 6, 64, 41
7, 127680, Note_on_c, 6, 55, 41
7, 127680, Note_on_c, 6, 59, 41
7, 127688, Note_off_c, 6, 59, 64
7, 127688, Note_off_c, 6, 55, 64
7, 127688, Note_off_c, 6, 64, 64
7, 127872, Note_on_c, 6, 64, 55
7, 127872, Note_on_c, 6, 55, 60
7, 127872, Note_on_c, 6, 59, 59
7, 127880, Note_off_c, 6, 59, 64
7, 127880, Note_off_c, 6, 55, 64
7, 127880, Note_off_c, 6, 64, 64
7, 128064, Note_on_c, 6, 59, 41
7, 128064, Note_on_c, 6, 55, 41
7, 128072, Note_off_c, 6, 55, 64
7, 128072, Note_off_c, 6, 59, 64
7, 128208, Control_c, 6, 64, 0
7, 128256, Control_c, 6, 64, 127
7, 128256, Note_on_c, 6, 62, 45
7, 128256, Note_on_c, 6, 54, 50
7, 128256, Note_on_c, 6, 57, 47
7, 128264, Note_off_c, 6, 57, 64
7, 128264, Note_off_c, 6, 54, 64
7, 128264, Note_off_c, 6, 62, 64
7, 128448, Note_on_c, 6, 62, 41
7, 128448, Note_on_c, 6, 57, 41
7, 128448, Note_on_c, 6, 54, 41
7, 128456, Note_off_c, 6, 54, 64
7, 128456, Note_off_c, 6, 57, 64
7, 128456, Note_off_c, 6, 62, 64
7, 128640, Note_on_c, 6, 62, 42
7, 128640, Note_on_c, 6, 54, 50
7, 128640, Note_on_c, 6, 57, 45
7, 128648, Note_off_c, 6, 57, 64
7, 128648, Note_off_c, 6, 54, 64
7, 128648, Note_off_c, 6, 62, 64
7, 128832, Note_on_c, 6, 62, 41
7, 128832, Note_on_c, 6, 57, 41
7, 128832, Note_on_c, 6, 54, 41
7, 128840, Note_off_c, 6, 54, 64
7, 128840, Note_off_c, 6, 57, 64
7, 128840, Note_off_c, 6, 62, 64
7, 129000, Control_c, 6, 64, 0
7, 129024, Control_c, 6, 64, 127
7, 129024, Note_on_c, 6, 55, 53
7, 129024, Note_on_c, 6, 59, 56
7, 129024, Note_on_c, 6, 62, 49
7, 129032, Note_off_c, 6, 62, 64
7, 129032, Note_off_c, 6, 59, 64
7, 129032, Note_off_c, 6, 55, 64
7, 129216, Note_on_c, 6, 55, 41
7, 129216, Note_on_c, 6, 59, 41
7, 129216, Note_on_c, 6, 62, 41
7, 129224, Note_off_c, 6, 62, 64
7, 129224, Note_off_c, 6, 59, 64
7, 129224, Note_off_c, 6, 55, 64
7, 129408, Note_on_c, 6, 55, 60
7, 129408, Note_on_c, 6, 59, 59
7, 129408, Note_on_c, 6, 62, 55
7, 129416, Note_off_c, 6, 62, 64
7, 129416, Note_off_c, 6, 59, 64
7, 129416, Note_off_c, 6, 55, 64
7, 129600, Note_on_c, 6, 59, 41
7, 129600, Note_on_c, 6, 55, 41
7, 129608, Note_off_c, 6, 55, 64
7, 129608, Note_off_c, 6, 59, 64
7, 129744, Control_c, 6, 64, 0
7, 129792, Control_c, 6, 64, 127
7, 129792, Note_on_c, 6, 66, 45
7, 129792, Note_on_c, 6, 57, 47
7, 129792, Note_on_c, 6, 62, 50
7, 129800, Note_off_c, 6, 62, 64
7, 129800, Note_off_c, 6, 57, 64
7, 129800, Note_off_c, 6, 66, 64
7, 129984, Note_on_c, 6, 66, 41
7, 129984, Note_on_c, 6, 57, 41
7, 129984, Note_on_c, 6, 62, 41
7, 129992, Note_off_c, 6, 62, 64
7, 129992, Note_off_c, 6, 57, 64
7, 129992, Note_off_c, 6, 66, 64
7, 130176, Note_on_c, 6, 66, 42
7, 130176, Note_on_c, 6, 57, 45
7, 130176, Note_on_c, 6, 62, 50
7, 130184, Note_off_c, 6, 62, 64
7, 130184, Note_off_c, 6, 57, 64
7, 130184, Note_off_c, 6, 66, 64
7, 130368, Note_on_c, 6, 66, 41
7, 130368, Note_on_c, 6, 57, 41
7, 130368, Note_on_c, 6, 62, 41
7, 130376, Note_off_c, 6, 62, 64
7, 130376, Note_off_c, 6, 57, 64
7, 130376, Note_off_c, 6, 66, 64
7, 130536, Control_c, 6, 64, 0
7, 130560, Control_c, 6, 64, 127
7, 130560, Note_on_c, 6, 64, 49
7, 130560, Note_on_c, 6, 55, 53
7, 130560, Note_on_c, 6, 59, 56
7, 130568, Note_off_c, 6, 59, 64
7, 130568, Note_off_c, 6, 55, 64
7, 130568, Note_off_c, 6, 64, 64
7, 130752, Note_on_c, 6, 64, 41
7, 130752, Note_on_c, 6, 55, 41
7, 130752, Note_on_c, 6, 59, 41
7, 130760, Note_off_c, 6, 59, 64
7, 130760, Note_off_c, 6, 55, 64
7, 130760, Note_off_c, 6, 64, 64
7, 130944, Note_on_c, 6, 64, 55
7, 130944, Note_on_c, 6, 55, 60
7, 130944, Note_on_c, 6, 59, 59
7, 130952, Note_off_c, 6, 59, 64
7, 130952, Note_off_c, 6, 55, 64
7, 130952, Note_off_c, 6, 64, 64
7, 131136, Note_on_c, 6, 59, 41
7, 131136, Note_on_c, 6, 55, 41
7, 131144, Note_off_c, 6, 55, 64
7, 131144, Note_off_c, 6, 59, 64
7, 131328, Note_on_c, 6, 59, 47
7, 131328, Note_on_c, 6, 55, 50
7, 131328, Note_on_c, 6, 64, 45
7, 131336, Note_off_c, 6, 64, 64
7, 131336, Note_off_c, 6, 55, 64
7, 131336, Note_off_c, 6, 59, 64
7, 131520, Note_on_c, 6, 59, 41
7, 131520, Note_on_c, 6, 64, 41
7, 131520, Note_on_c, 6, 55, 41
7, 131528, Note_off_c, 6, 55, 64
7, 131528, Note_off_c, 6, 64, 64
7, 131528, Note_off_c, 6, 59, 64
7, 131712, Note_on_c, 6, 64, 42
7, 131712, Note_on_c, 6, 55, 50
7, 131712, Note_on_c, 6, 59, 45
7, 131720, Note_off_c, 6, 59, 64
7, 131720, Note_off_c, 6, 55, 64
7, 131720, Note_off_c, 6, 64, 64
7, 131904, Note_on_c, 6, 59, 41
7, 131904, Note_on_c, 6, 64, 41
7, 131904, Note_on_c, 6, 55, 41
7, 131912, Note_off_c, 6, 55, 64
7, 131912, Note_off_c, 6, 64, 64
7, 131912, Note_off_c, 6, 59, 64
7, 132072, Control_c, 6, 64, 0
7, 132096, Control_c, 6, 64, 127
7, 132096, Note_on_c, 6, 64, 49
7, 132096, Note_on_c, 6, 55, 53
7, 132096, Note_on_c, 6, 59, 56
7, 132104, Note_off_c, 6, 59, 64
7, 132104, Note_off_c, 6, 55, 64
7, 132104, Note_off_c, 6, 64, 64
7, 132288, Note_on_c, 6, 64, 41
7, 132288, Note_on_c, 6, 55, 41
7, 132288, Note_on_c, 6, 59, 41
7, 132296, Note_off_c, 6, 59, 64
7, 132296, Note_off_c, 6, 55, 64
7, 132296, Note_off_c, 6, 64, 64
7, 132480, Note_on_c, 6, 64, 55
7, 132480, Note_on_c, 6, 55, 60
7, 132480, Note_on_c, 6, 59, 59
7, 132488, Note_off_c, 6, 59, 64
7, 132488, Note_off_c, 6, 55, 64
7, 132488, Note_off_c, 6, 64, 64
7, 132672, Note_on_c, 6, 59, 41
7, 132672, Note_on_c, 6, 55, 41
7, 132680, Note_off_c, 6, 55, 64
7, 132680, Note_off_c, 6, 59, 64
7, 132864, Note_on_c, 6, 59, 47
7, 132864, Note_on_c, 6, 55, 50
7, 132864, Note_on_c, 6, 64, 45
7, 132872, Note_off_c, 6, 64, 64
7, 132872, Note_off_c, 6, 55, 64
7, 132872, Note_off_c, 6, 59, 64
7, 133056, Note_on_c, 6, 59, 41
7, 133056, Note_on_c, 6, 64, 41
7, 133056, Note_on_c, 6, 55, 41
7, 133064, Note_off_c, 6, 55, 64
7, 133064, Note_off_c, 6, 64, 64
7, 133064, Note_off_c, 6, 59, 64
7, 133248, Note_on_c, 6, 64, 42
7, 133248, Note_on_c, 6, 55, 50
7, 133248, Note_on_c, 6, 59, 45
7, 133256, Note_off_c, 6, 59, 64
7, 133256, Note_off_c, 6, 55, 64
7, 133256, Note_off_c, 6, 64, 64
7, 133440, Note_on_c, 6, 59, 41
7, 133440, Note_on_c, 6, 64, 41
7, 133440, Note_on_c, 6, 55, 41
7, 133448, Note_off_c, 6, 55, 64
7, 133448, Note_off_c, 6, 64, 64
7, 133448, Note_off_c, 6, 59, 64
7, 133608, Control_c, 6, 64, 0
7, 133632, Control_c, 6, 64, 127
7, 133632, Note_on_c, 6, 64, 49
7, 133632, Note_on_c, 6, 55, 53
7, 133632, Note_on_c, 6, 59, 56
7, 133640, Note_off_c, 6, 59, 64
7, 133640, Note_off_c, 6, 55, 64
7, 133640, Note_off_c, 6, 64, 64
7, 133824, Note_on_c, 6, 64, 41
7, 133824, Note_on_c, 6, 55, 41
7, 133824, Note_on_c, 6, 59, 41
7, 133832, Note_off_c, 6, 59, 64
7, 133832, Note_off_c, 6, 55, 64
7, 133832, Note_off_c, 6, 64, 64
7, 134016, Note_on_c, 6, 64, 55
7, 134016, Note_on_c, 6, 55, 60
7, 134016, Note_on_c, 6, 59, 59
7, 134024, Note_off_c, 6, 59, 64
7, 134024, Note_off_c, 6, 55, 64
7, 134024, Note_off_c, 6, 64, 64
7, 134208, Note_on_c, 6, 59, 41
7, 134208, Note_on_c, 6, 55, 41
7, 134216, Note_off_c, 6, 55, 64
7, 134216, Note_off_c, 6, 59, 64
7, 134352, Control_c, 6, 64, 0
7, 134400, Control_c, 6, 64, 127
7, 134400, Note_on_c, 6, 62, 45
7, 134400, Note_on_c, 6, 54, 50
7, 134400, Note_on_c, 6, 57, 47
7, 134408, Note_off_c, 6, 57, 64
7, 134408, Note_off_c, 6, 54, 64
7, 134408, Note_off_c, 6, 62, 64
7, 134592, Note_on_c, 6, 62, 41
7, 134592, Note_on_c, 6, 57, 41
7, 134592, Note_on_c, 6, 54, 41
7, 134600, Note_off_c, 6, 54, 64
7, 134600, Note_off_c, 6, 57, 64
7, 134600, Note_off_c, 6, 62, 64
7, 134784, Note_on_c, 6, 62, 42
7, 134784, Note_on_c, 6, 54, 50
7, 134784, Note_on_c, 6, 57, 45
7, 134792, Note_off_c, 6, 57, 64
7, 134792, Note_off_c, 6, 54, 64
7, 134792, Note_off_c, 6, 62, 64
7, 134976, Note_on_c, 6, 62, 41
7, 134976, Note_on_c, 6, 57, 41
7, 134976, Note_on_c, 6, 54, 41
7, 134984, Note_off_c, 6, 54, 64
7, 134984, Note_off_c, 6, 57, 64
7, 134984, Note_off_c, 6, 62, 64
7, 135144, Control_c, 6, 64, 0
7, 135168, Control_c, 6, 64, 127
7, 135168, Note_on_c, 6, 55, 53
7, 135168, Note_on_c, 6, 59, 56
7, 135168, Note_on_c, 6, 62, 49
7, 135176, Note_off_c, 6, 62, 64
7, 135176, Note_off_c, 6, 59, 64
7, 135176, Note_off_c, 6, 55, 64
7, 135360, Note_on_c, 6, 55, 41
7, 135360, Note_on_c, 6, 59, 41
7, 135360, Note_on_c, 6, 62, 41
7, 135368, Note_off_c, 6, 62, 64
7, 135368, Note_off_c, 6, 59, 64
7, 135368, Note_off_c, 6, 55, 64
7, 135552, Note_on_c, 6, 55, 60
7, 135552, Note_on_c, 6, 59, 59
7, 135552, Note_on_c, 6, 62, 55
7, 135560, Note_off_c, 6, 62, 64
7, 135560, Note_off_c, 6, 59, 64
7, 135560, Note_off_c, 6, 55, 64
7, 135744, Note_on_c, 6, 59, 41
7, 135744, Note_on_c, 6, 55, 41
7, 135752, Note_off_c, 6, 55, 64
7, 135752, Note_off_c, 6, 59, 64
7, 135888, Control_c, 6, 64, 0
7, 135936, Control_c, 6, 64, 127
7, 135936, Note_on_c, 6, 66, 45
7, 135936, Note_on_c, 6, 57, 47
7, 135936, Note_on_c, 6, 62, 50
7, 135944, Note_off_c, 6, 62, 64
7, 135944, Note_off_c, 6, 57, 64
7, 135944, Note_off_c, 6, 66, 64
7, 136128, Note_on_c, 6, 66, 41
7, 136128, Note_on_c, 6, 57, 41
7, 136128, Note_on_c, 6, 62, 41
7, 136136, Note_off_c, 6, 62, 64
7, 136136, Note_off_c, 6, 57, 64
7, 136136, Note_off_c, 6, 66, 64
7, 136320, Note_on_c, 6, 66, 42
7, 136320, Note_on_c, 6, 57, 45
7, 136320, Note_on_c, 6, 62, 50
7, 136328, Note_off_c, 6, 62, 64
7, 136328, Note_off_c, 6, 57, 64
7, 136328, Note_off_c, 6, 66, 64
7, 136512, Note_on_c, 6, 66, 41
7, 136512, Note_on_c, 6, 57, 41
7, 136512, Note_on_c, 6, 62, 41
7, 136520, Note_off_c, 6, 62, 64
7, 136520, Note_off_c, 6, 57, 64
7, 136520, Note_off_c, 6, 66, 64
7, 136680, Control_c, 6, 64, 0
7, 136704, Control_c, 6, 64, 127
7, 136704, Note_on_c, 6, 61, 49
7, 136704, Note_on_c, 6, 52, 53
7, 136704, Note_on_c, 6, 57, 56
7, 136712, Note_off_c, 6, 57, 64
7, 136712, Note_off_c, 6, 52, 64
7, 136712, Note_off_c, 6, 61, 64
7, 136896, Note_on_c, 6, 61, 41
7, 136896, Note_on_c, 6, 52, 41
7, 136896, Note_on_c, 6, 57, 41
7, 136904, Note_off_c, 6, 57, 64
7, 136904, Note_off_c, 6, 52, 64
7, 136904, Note_off_c, 6, 61, 64
7, 137088, Note_on_c, 6, 61, 55
7, 137088, Note_on_c, 6, 52, 60
7, 137088, Note_on_c, 6, 57, 59
7, 137096, Note_off_c, 6, 57, 64
7, 137096, Note_off_c, 6, 52, 64
7, 137096, Note_off_c, 6, 61, 64
7, 137280, Note_on_c, 6, 52, 41
7, 137280, Note_on_c, 6, 57, 41
7, 137288, Note_off_c, 6, 57, 64
7, 137288, Note_off_c, 6, 52, 64
7, 137472, Note_on_c, 6, 52, 50
7, 137472, Note_on_c, 6, 61, 45
7, 137472, Note_on_c, 6, 57, 47
7, 137480, Note_off_c, 6, 57, 64
7, 137480, Note_off_c, 6, 61, 64
7, 137480, Note_off_c, 6, 52, 64
7, 137664, Note_on_c, 6, 61, 41
7, 137664, Note_on_c, 6, 52, 41
7, 137664, Note_on_c, 6, 57, 41
7, 137672, Note_off_c, 6, 57, 64
7, 137672, Note_off_c, 6, 52, 64
7, 137672, Note_off_c, 6, 61, 64
7, 137856, Note_on_c, 6, 61, 42
7, 137856, Note_on_c, 6, 52, 50
7, 137856, Note_on_c, 6, 57, 45
7, 137864, Note_off_c, 6, 57, 64
7, 137864, Note_off_c, 6, 52, 64
7, 137864, Note_off_c, 6, 61, 64
7, 138048, Note_on_c, 6, 61, 41
7, 138048, Note_on_c, 6, 52, 41
7, 138048, Note_on_c, 6, 57, 41
7, 138056, Note_off_c, 6, 57, 64
7, 138056, Note_off_c, 6, 52, 64
7, 138056, Note_off_c, 6, 61, 64
7, 138216, Control_c, 6, 64, 0
7, 138240, Control_c, 6, 64, 127
7, 138240, Note_on_c, 6, 63, 49
7, 138240, Note_on_c, 6, 54, 53
7, 138240, Note_on_c, 6, 59, 56
7, 138248, Note_off_c, 6, 59, 64
7, 138248, Note_off_c, 6, 54, 64
7, 138248, Note_off_c, 6, 63, 64
7, 138432, Note_on_c, 6, 63, 41
7, 138432, Note_on_c, 6, 54, 41
7, 138432, Note_on_c, 6, 59, 41
7, 138440, Note_off_c, 6, 59, 64
7, 138440, Note_off_c, 6, 54, 64
7, 138440, Note_off_c, 6, 63, 64
7, 138624, Note_on_c, 6, 63, 55
7, 138624, Note_on_c, 6, 54, 60
7, 138624, Note_on_c, 6, 59, 59
7, 138632, Note_off_c, 6, 59, 64
7, 138632, Note_off_c, 6, 54, 64
7, 138632, Note_off_c, 6, 63, 64
7, 138816, Note_on_c, 6, 54, 41
7, 138816, Note_on_c, 6, 59, 41
7, 138824, Note_off_c, 6, 59, 64
7, 138824, Note_off_c, 6, 54, 64
7, 139008, Note_on_c, 6, 54, 50
7, 139008, Note_on_c, 6, 63, 45
7, 139008, Note_on_c, 6, 59, 47
7, 139016, Note_off_c, 6, 59, 64
7, 139016, Note_off_c, 6, 63, 64
7, 139016, Note_off_c, 6, 54, 64
7, 139200, Note_on_c, 6, 63, 41
7, 139200, Note_on_c, 6, 54, 41
7, 139200, Note_on_c, 6, 59, 41
7, 139208, Note_off_c, 6, 59, 64
7, 139208, Note_off_c, 6, 54, 64
7, 139208, Note_off_c, 6, 63, 64
7, 139392, Note_on_c, 6, 63, 42
7, 139392, Note_on_c, 6, 54, 50
7, 139392, Note_on_c, 6, 59, 45
7, 139400, Note_off_c, 6, 59, 64
7, 139400, Note_off_c, 6, 54, 64
7, 139400, Note_off_c, 6, 63, 64
7, 139584, Note_on_c, 6, 63, 41
7, 139584, Note_on_c, 6, 54, 41
7, 139584, Note_on_c, 6, 59, 41
7, 139592, Note_off_c, 6, 59, 64
7, 139592, Note_off_c, 6, 54, 64
7, 139592, Note_off_c, 6, 63, 64
7, 139752, Control_c, 6, 64, 0
7, 139776, Control_c, 6, 64, 127
7, 139776, Note_on_c, 6, 64, 44
7, 139776, Note_on_c, 6, 55, 53
7, 139776, Note_on_c, 6, 59, 52
7, 139784, Note_off_c, 6, 59, 64
7, 139784, Note_off_c, 6, 55, 64
7, 139784, Note_off_c, 6, 64, 64
7, 139968, Note_on_c, 6, 59, 41
7, 139968, Note_on_c, 6, 64, 41
7, 139968, Note_on_c, 6, 55, 41
7, 139976, Note_off_c, 6, 55, 64
7, 139976, Note_off_c, 6, 64, 64
7, 139976, Note_off_c, 6, 59, 64
7, 140160, Note_on_c, 6, 64, 41
7, 140160, Note_on_c, 6, 55, 45
7, 140160, Note_on_c, 6, 59, 42
7, 140168, Note_off_c, 6, 59, 64
7, 140168, Note_off_c, 6, 55, 64
7, 140168, Note_off_c, 6, 64, 64
7, 140352, Note_on_c, 6, 64, 41
7, 140352, Note_on_c, 6, 59, 41
7, 140352, Note_on_c, 6, 55, 41
7, 140360, Note_off_c, 6, 55, 64
7, 140360, Note_off_c, 6, 59, 64
7, 140360, Note_off_c, 6, 64, 64
7, 140544, Note_on_c, 6, 55, 46
7, 140544, Note_on_c, 6, 64, 41
7, 140544, Note_on_c, 6, 59, 49
7, 140552, Note_off_c, 6, 59, 64
7, 140552, Note_off_c, 6, 64, 64
7, 140552, Note_off_c, 6, 55, 64
7, 140736, Note_on_c, 6, 64, 41
7, 140736, Note_on_c, 6, 59, 41
7, 140736, Note_on_c, 6, 55, 41
7, 140744, Note_off_c, 6, 55, 64
7, 140744, Note_off_c, 6, 59, 64
7, 140744, Note_off_c, 6, 64, 64
7, 140928, Note_on_c, 6, 55, 45
7, 140928, Note_on_c, 6, 64, 41
7, 140928, Note_on_c, 6, 59, 54
7, 140936, Note_off_c, 6, 59, 64
7, 140936, Note_off_c, 6, 64, 64
7, 140936, Note_off_c, 6, 55, 64
7, 141120, Note_on_c, 6, 64, 41
7, 141120, Note_on_c, 6, 59, 41
7, 141120, Note_on_c, 6, 55, 41
7, 141128, Note_off_c, 6, 55, 64
7, 141128, Note_off_c, 6, 59, 64
7, 141128, Note_off_c, 6, 64, 64
7, 141288, Control_c, 6, 64, 0
7, 141312, Control_c, 6, 64, 127
7, 141312, Note_on_c, 6, 64, 48
7, 141312, Note_on_c, 6, 55, 50
7, 141312, Note_on_c, 6, 59, 56
7, 141320, Note_off_c, 6, 59, 64
7, 141320, Note_off_c, 6, 55, 64
7, 141320, Note_off_c, 6, 64, 64
7, 141504, Note_on_c, 6, 55, 41
7, 141504, Note_on_c, 6, 59, 41
7, 141504, Note_on_c, 6, 64, 41
7, 141512, Note_off_c, 6, 64, 64
7, 141512, Note_off_c, 6, 59, 64
7, 141512, Note_off_c, 6, 55, 64
7, 141696, Note_on_c, 6, 55, 42
7, 141696, Note_on_c, 6, 64, 41
7, 141696, Note_on_c, 6, 59, 45
7, 141704, Note_off_c, 6, 59, 64
7, 141704, Note_off_c, 6, 64, 64
7, 141704, Note_off_c, 6, 55, 64
7, 141888, Note_on_c, 6, 64, 41
7, 141888, Note_on_c, 6, 55, 41
7, 141888, Note_on_c, 6, 59, 41
7, 141896, Note_off_c, 6, 59, 64
7, 141896, Note_off_c, 6, 55, 64
7, 141896, Note_off_c, 6, 64, 64
7, 142080, Note_on_c, 6, 55, 45
7, 142080, Note_on_c, 6, 64, 41
7, 142080, Note_on_c, 6, 59, 48
7, 142088, Note_off_c, 6, 59, 64
7, 142088, Note_off_c, 6, 64, 64
7, 142088, Note_off_c, 6, 55, 64
7, 142272, Note_on_c, 6, 55, 41
7, 142272, Note_on_c, 6, 59, 41
7, 142272, Note_on_c, 6, 64, 41
7, 142280, Note_off_c, 6, 64, 64
7, 142280, Note_off_c, 6, 59, 64
7, 142280, Note_off_c, 6, 55, 64
7, 142464, Note_on_c, 6, 64, 41
7, 142464, Note_on_c, 6, 55, 41
7, 142464, Note_on_c, 6, 59, 44
7, 142472, Note_off_c, 6, 59, 64
7, 142472, Note_off_c, 6, 55, 64
7, 142472, Note_off_c, 6, 64, 64
7, 142656, Note_on_c, 6, 64, 41
7, 142656, Note_on_c, 6, 55, 41
7, 142656, Note_on_c, 6, 59, 41
7, 142664, Note_off_c, 6, 59, 64
7, 142664, Note_off_c, 6, 55, 64
7, 142664, Note_off_c, 6, 64, 64
7, 142824, Control_c, 6, 64, 0
7, 142848, Control_c, 6, 64, 127
7, 142848, Note_on_c, 6, 63, 41
7, 142848, Note_on_c, 6, 59, 44
7, 142848, Note_on_c, 6, 54, 43
7, 142856, Note_off_c, 6, 54, 64
7, 142856, Note_off_c, 6, 59, 64
7, 142856, Note_off_c, 6, 63, 64
7, 143040, Note_on_c, 6, 63, 41
7, 143040, Note_on_c, 6, 59, 41
7, 143040, Note_on_c, 6, 54, 41
7, 143048, Note_off_c, 6, 54, 64
7, 143048, Note_off_c, 6, 59, 64
7, 143048, Note_off_c, 6, 63, 64
7, 143232, Note_on_c, 6, 63, 44
7, 143232, Note_on_c, 6, 54, 45
7, 143232, Note_on_c, 6, 59, 46
7, 143240, Note_off_c, 6, 59, 64
7, 143240, Note_off_c, 6, 54, 64
7, 143240, Note_off_c, 6, 63, 64
7, 143424, Note_on_c, 6, 63, 41
7, 143424, Note_on_c, 6, 59, 41
7, 143424, Note_on_c, 6, 54, 41
7, 143432, Note_off_c, 6, 54, 64
7, 143432, Note_off_c, 6, 59, 64
7, 143432, Note_off_c, 6, 63, 64
7, 143616, Note_on_c, 6, 63, 41
7, 143616, Note_on_c, 6, 54, 42
7, 143616, Note_on_c, 6, 59, 41
7, 143624, Note_off_c, 6, 59, 64
7, 143624, Note_off_c, 6, 54, 64
7, 143624, Note_off_c, 6, 63, 64
7, 143808, Note_on_c, 6, 63, 41
7, 143808, Note_on_c, 6, 59, 41
7, 143808, Note_on_c, 6, 54, 41
7, 143816, Note_off_c, 6, 54, 64
7, 143816, Note_off_c, 6, 59, 64
7, 143816, Note_off_c, 6, 63, 64
7, 144000, Note_on_c, 6, 63, 41
7, 144000, Note_on_c, 6, 54, 41
7, 144000, Note_on_c, 6, 59, 49
7, 144008, Note_off_c, 6, 59, 64
7, 144008, Note_off_c, 6, 54, 64
7, 144008, Note_off_c, 6, 63, 64
7, 144192, Note_on_c, 6, 63, 41
7, 144192, Note_on_c, 6, 59, 41
7, 144200, Note_off_c, 6, 59, 64
7, 144200, Note_off_c, 6, 63, 64
7, 144288, Note_on_c, 6, 54, 41
7, 144296, Note_off_c, 6, 54, 64
7, 144360, Control_c, 6, 64, 0
7, 144384, Control_c, 6, 64, 127
7, 144384, Note_on_c, 6, 63, 44
7, 144384, Note_on_c, 6, 54, 44
7, 144384, Note_on_c, 6, 59, 45
7, 144392, Note_off_c, 6, 59, 64
7, 144392, Note_off_c, 6, 54, 64
7, 144392, Note_off_c, 6, 63, 64
7, 144576, Note_on_c, 6, 59, 41
7, 144576, Note_on_c, 6, 63, 41
7, 144576, Note_on_c, 6, 54, 41
7, 144584, Note_off_c, 6, 54, 64
7, 144584, Note_off_c, 6, 63, 64
7, 144584, Note_off_c, 6, 59, 64
7, 144768, Note_on_c, 6, 63, 51
7, 144768, Note_on_c, 6, 54, 41
7, 144768, Note_on_c, 6, 59, 41
7, 144776, Note_off_c, 6, 59, 64
7, 144776, Note_off_c, 6, 54, 64
7, 144776, Note_off_c, 6, 63, 64
7, 144960, Note_on_c, 6, 63, 41
7, 144960, Note_on_c, 6, 54, 41
7, 144960, Note_on_c, 6, 59, 41
7, 144968, Note_off_c, 6, 59, 64
7, 144968, Note_off_c, 6, 54, 64
7, 144968, Note_off_c, 6, 63, 64
7, 145104, Control_c, 6, 64, 0
7, 145152, Control_c, 6, 64, 127
7, 145152, Note_on_c, 6, 59, 52
7, 145152, Note_on_c, 6, 64, 51
7, 145152, Note_on_c, 6, 55, 57
7, 145160, Note_off_c, 6, 55, 64
7, 145160, Note_off_c, 6, 64, 64
7, 145160, Note_off_c, 6, 59, 64
7, 145344, Note_on_c, 6, 64, 41
7, 145344, Note_on_c, 6, 55, 41
7, 145344, Note_on_c, 6, 59, 41
7, 145352, Note_off_c, 6, 59, 64
7, 145352, Note_off_c, 6, 55, 64
7, 145352, Note_off_c, 6, 64, 64
7, 145488, Control_c, 6, 64, 0
7, 145536, Control_c, 6, 64, 127
7, 145536, Note_on_c, 6, 63, 41
7, 145536, Note_on_c, 6, 59, 44
7, 145536, Note_on_c, 6, 54, 45
7, 145544, Note_off_c, 6, 54, 64
7, 145544, Note_off_c, 6, 59, 64
7, 145544, Note_off_c, 6, 63, 64
7, 145728, Note_on_c, 6, 63, 41
7, 145728, Note_on_c, 6, 54, 41
7, 145728, Note_on_c, 6, 59, 41
7, 145736, Note_off_c, 6, 59, 64
7, 145736, Note_off_c, 6, 54, 64
7, 145736, Note_off_c, 6, 63, 64
7, 145896, Control_c, 6, 64, 0
7, 145920, Note_on_c, 6, 64, 90
7, 145920, Note_on_c, 6, 59, 93
7, 145920, Note_on_c, 6, 55, 98
7, 145980, Note_off_c, 6, 55, 64
7, 145992, Note_off_c, 6, 59, 64
7, 146024, Note_off_c, 6, 64, 64
7, 146304, Note_on_c, 6, 55, 76
7, 146304, Note_on_c, 6, 64, 60
7, 146304, Note_on_c, 6, 59, 72
7, 146340, Note_off_c, 6, 55, 64
7, 146352, Note_off_c, 6, 59, 64
7, 146356, Note_off_c, 6, 64, 64
7, 146432, Note_on_c, 6, 59, 75
7, 146432, Note_on_c, 6, 55, 61
7, 146432, Note_on_c, 6, 64, 78
7, 146488, Note_off_c, 6, 55, 64
7, 146496, Note_off_c, 6, 64, 64
7, 146500, Note_off_c, 6, 59, 64
7, 146560, Note_on_c, 6, 55, 83
7, 146560, Note_on_c, 6, 64, 82
7, 146560, Note_on_c, 6, 59, 85
7, 146624, Note_off_c, 6, 55, 64
7, 146628, Note_off_c, 6, 59, 64
7, 146636, Note_off_c, 6, 64, 64
7, 146688, Note_on_c, 6, 55, 81
7, 146688, Note_on_c, 6, 64, 89
7, 146688, Note_on_c, 6, 59, 88
7, 146756, Note_off_c, 6, 55, 64
7, 146764, Note_off_c, 6, 59, 64
7, 146784, Note_off_c, 6, 64, 64
7, 147072, Note_on_c, 6, 55, 81
7, 147072, Note_on_c, 6, 59, 80
7, 147072, Note_on_c, 6, 64, 69
7, 147112, Note_off_c, 6, 59, 64
7, 147112, Note_off_c, 6, 55, 64
7, 147124, Note_off_c, 6, 64, 64
7, 147200, Note_on_c, 6, 64, 81
7, 147200, Note_on_c, 6, 55, 66
7, 147200, Note_on_c, 6, 59, 77
7, 147256, Note_off_c, 6, 59, 64
7, 147264, Note_off_c, 6, 55, 64
7, 147280, Note_off_c, 6, 64, 64
7, 147328, Note_on_c, 6, 55, 69
7, 147328, Note_on_c, 6, 59, 84
7, 147328, Note_on_c, 6, 64, 72
7, 147392, Note_off_c, 6, 55, 64
7, 147396, Note_off_c, 6, 59, 64
7, 147400, Note_off_c, 6, 64, 64
7, 147456, Note_on_c, 6, 64, 87
7, 147456, Note_on_c, 6, 55, 81
7, 147456, Note_on_c, 6, 59, 87
7, 147520, Note_off_c, 6, 59, 64
7, 147532, Note_off_c, 6, 55, 64
7, 147552, Note_off_c, 6, 64, 64
7, 147840, Note_on_c, 6, 55, 82
7, 147840, Note_on_c, 6, 59, 72
7, 147840, Note_on_c, 6, 64, 71
7, 147876, Note_off_c, 6, 59, 64
7, 147880, Note_off_c, 6, 55, 64
7, 147892, Note_off_c, 6, 64, 64
7, 147968, Note_on_c, 6, 64, 74
7, 147968, Note_on_c, 6, 55, 66
7, 147968, Note_on_c, 6, 59, 72
7, 148032, Note_off_c, 6, 55, 64
7, 148036, Note_off_c, 6, 59, 64
7, 148048, Note_off_c, 6, 64, 64
7, 148096, Note_on_c, 6, 64, 72
7, 148096, Note_on_c, 6, 55, 70
7, 148096, Note_on_c, 6, 59, 69
7, 148140, Note_off_c, 6, 59, 64
7, 148152, Note_off_c, 6, 55, 64
7, 148160, Note_off_c, 6, 64, 64
7, 148224, Note_on_c, 6, 64, 70
7, 148224, Note_on_c, 6, 55, 74
7, 148224, Note_on_c, 6, 59, 85
7, 148288, Note_off_c, 6, 55, 64
7, 148300, Note_off_c, 6, 59, 64
7, 148332, Note_off_c, 6, 64, 64
7, 148608, Note_on_c, 6, 64, 92
7, 148608, Note_on_c, 6, 55, 95
7, 148608, Note_on_c, 6, 59, 86
7, 148692, Note_off_c, 6, 59, 64
7, 148696, Note_off_c, 6, 55, 64
7, 148712, Note_off_c, 6, 64, 64
7, 148992, Note_on_c, 6, 63, 90
7, 148992, Note_on_c, 6, 54, 92
7, 148992, Note_on_c, 6, 59, 87
7, 149072, Note_off_c, 6, 59, 64
7, 149076, Note_off_c, 6, 54, 64
7, 149088, Note_off_c, 6, 63, 64
7, 149376, Note_on_c, 6, 54, 85
7, 149376, Note_on_c, 6, 63, 79
7, 149376, Note_on_c, 6, 59, 82
7, 149440, Note_off_c, 6, 59, 64
7, 149448, Note_off_c, 6, 63, 64
7, 149448, Note_off_c, 6, 54, 64
7, 149504, Note_on_c, 6, 54, 80
7, 149504, Note_on_c, 6, 63, 80
7, 149504, Note_on_c, 6, 59, 81
7, 149572, Note_off_c, 6, 59, 64
7, 149572, Note_off_c, 6, 54, 64
7, 149580, Note_off_c, 6, 63, 64
7, 149632, Note_on_c, 6, 54, 70
7, 149632, Note_on_c, 6, 59, 80
7, 149632, Note_on_c, 6, 63, 53
7, 149684, Note_off_c, 6, 63, 64
7, 149696, Note_off_c, 6, 59, 64
7, 149700, Note_off_c, 6, 54, 64
7, 149760, Note_on_c, 6, 63, 86
7, 149760, Note_on_c, 6, 54, 85
7, 149760, Note_on_c, 6, 59, 92
7, 149828, Note_off_c, 6, 59, 64
7, 149832, Note_off_c, 6, 54, 64
7, 149848, Note_off_c, 6, 63, 64
7, 150144, Note_on_c, 6, 54, 86
7, 150144, Note_on_c, 6, 59, 86
7, 150144, Note_on_c, 6, 63, 82
7, 150204, Note_off_c, 6, 63, 64
7, 150204, Note_off_c, 6, 59, 64
7, 150216, Note_off_c, 6, 54, 64
7, 150272, Note_on_c, 6, 63, 84
7, 150272, Note_on_c, 6, 54, 78
7, 150272, Note_on_c, 6, 59, 78
7, 150328, Note_off_c, 6, 59, 64
7, 150340, Note_off_c, 6, 54, 64
7, 150356, Note_off_c, 6, 63, 64
7, 150400, Note_on_c, 6, 63, 68
7, 150400, Note_on_c, 6, 54, 66
7, 150400, Note_on_c, 6, 59, 85
7, 150468, Note_off_c, 6, 59, 64
7, 150472, Note_off_c, 6, 54, 64
7, 150476, Note_off_c, 6, 63, 64
7, 150528, Note_on_c, 6, 63, 84
7, 150528, Note_on_c, 6, 54, 80
7, 150528, Note_on_c, 6, 59, 94
7, 150596, Note_off_c, 6, 59, 64
7, 150604, Note_off_c, 6, 54, 64
7, 150632, Note_off_c, 6, 63, 64
7, 150912, Note_on_c, 6, 63, 82
7, 150912, Note_on_c, 6, 59, 83
7, 150912, Note_on_c, 6, 54, 81
7, 150956, Note_off_c, 6, 59, 64
7, 150960, Note_off_c, 6, 54, 64
7, 150976, Note_off_c, 6, 63, 64
7, 151040, Note_on_c, 6, 63, 76
7, 151040, Note_on_c, 6, 54, 68
7, 151040, Note_on_c, 6, 59, 79
7, 151104, Note_off_c, 6, 59, 64
7, 151112, Note_off_c, 6, 54, 64
7, 151120, Note_off_c, 6, 63, 64
7, 151168, Note_on_c, 6, 54, 72
7, 151168, Note_on_c, 6, 63, 64
7, 151168, Note_on_c, 6, 59, 84
7, 151236, Note_off_c, 6, 59, 64
7, 151244, Note_off_c, 6, 63, 64
7, 151244, Note_off_c, 6, 54, 64
7, 151296, Note_on_c, 6, 63, 68
7, 151296, Note_on_c, 6, 54, 75
7, 151296, Note_on_c, 6, 59, 79
7, 151344, Note_off_c, 6, 59, 64
7, 151360, Note_off_c, 6, 63, 64
7, 151372, Note_off_c, 6, 54, 64
7, 151424, Note_on_c, 6, 63, 39
7, 151424, Note_on_c, 6, 54, 70
7, 151424, Note_on_c, 6, 59, 86
7, 151488, Note_off_c, 6, 63, 64
7, 151496, Note_off_c, 6, 59, 64
7, 151500, Note_off_c, 6, 54, 64
7, 151552, Note_on_c, 6, 54, 72
7, 151552, Note_on_c, 6, 63, 79
7, 151552, Note_on_c, 6, 59, 90
7, 151620, Note_off_c, 6, 59, 64
7, 151632, Note_off_c, 6, 54, 64
7, 151644, Note_off_c, 6, 63, 64
7, 151680, Note_on_c, 6, 54, 71
7, 151680, Note_on_c, 6, 63, 83
7, 151680, Note_on_c, 6, 59, 89
7, 151744, Note_off_c, 6, 59, 64
7, 151756, Note_off_c, 6, 54, 64
7, 151760, Note_off_c, 6, 63, 64
7, 151808, Note_on_c, 6, 63, 76
7, 151808, Note_on_c, 6, 54, 73
7, 151808, Note_on_c, 6, 59, 75
7, 151844, Note_off_c, 6, 59, 64
7, 151872, Note_off_c, 6, 54, 64
7, 151888, Note_off_c, 6, 63, 64
7, 151936, Note_on_c, 6, 63, 84
7, 151936, Note_on_c, 6, 54, 79
7, 151936, Note_on_c, 6, 59, 84
7, 152000, Note_off_c, 6, 59, 64
7, 152000, Note_off_c, 6, 54, 64
7, 152016, Note_off_c, 6, 63, 64
7, 152064, Note_on_c, 6, 64, 95
7, 152064, Note_on_c, 6, 59, 98
7, 152064, Note_on_c, 6, 55, 90
7, 152120, Note_off_c, 6, 55, 64
7, 152148, Note_off_c, 6, 59, 64
7, 152180, Note_off_c, 6, 64, 64
7, 152448, Note_on_c, 6, 55, 87
7, 152448, Note_on_c, 6, 59, 85
7, 152448, Note_on_c, 6, 64, 71
7, 152512, Note_off_c, 6, 55, 64
7, 152516, Note_off_c, 6, 64, 64
7, 152516, Note_off_c, 6, 59, 64
7, 152576, Note_on_c, 6, 55, 74
7, 152576, Note_on_c, 6, 64, 79
7, 152576, Note_on_c, 6, 59, 80
7, 152640, Note_off_c, 6, 59, 64
7, 152644, Note_off_c, 6, 55, 64
7, 152660, Note_off_c, 6, 64, 64
7, 152704, Note_on_c, 6, 55, 72
7, 152704, Note_on_c, 6, 64, 64
7, 152704, Note_on_c, 6, 59, 79
7, 152768, Note_off_c, 6, 59, 64
7, 152768, Note_off_c, 6, 55, 64
7, 152776, Note_off_c, 6, 64, 64
7, 152832, Note_on_c, 6, 55, 93
7, 152832, Note_on_c, 6, 64, 95
7, 152832, Note_on_c, 6, 59, 96
7, 152908, Note_off_c, 6, 59, 64
7, 152908, Note_off_c, 6, 55, 64
7, 152916, Note_off_c, 6, 64, 64
7, 153216, Note_on_c, 6, 55, 89
7, 153216, Note_on_c, 6, 59, 84
7, 153216, Note_on_c, 6, 64, 79
7, 153260, Note_off_c, 6, 59, 64
7, 153260, Note_off_c, 6, 55, 64
7, 153264, Note_off_c, 6, 64, 64
7, 153344, Note_on_c, 6, 55, 77
7, 153344, Note_on_c, 6, 64, 74
7, 153344, Note_on_c, 6, 59, 81
7, 153396, Note_off_c, 6, 59, 64
7, 153408, Note_off_c, 6, 64, 64
7, 153408, Note_off_c, 6, 55, 64
7, 153472, Note_on_c, 6, 55, 75
7, 153472, Note_on_c, 6, 59, 86
7, 153472, Note_on_c, 6, 64, 72
7, 153540, Note_off_c, 6, 55, 64
7, 153544, Note_off_c, 6, 64, 64
7, 153544, Note_off_c, 6, 59, 64
7, 153600, Note_on_c, 6, 55, 91
7, 153600, Note_on_c, 6, 64, 87
7, 153600, Note_on_c, 6, 59, 94
7, 153672, Note_off_c, 6, 55, 64
7, 153684, Note_off_c, 6, 59, 64
7, 153696, Note_off_c, 6, 64, 64
7, 153984, Note_on_c, 6, 55, 92
7, 153984, Note_on_c, 6, 59, 88
7, 153984, Note_on_c, 6, 64, 63
7, 154032, Note_off_c, 6, 64, 64
7, 154044, Note_off_c, 6, 59, 64
7, 154044, Note_off_c, 6, 55, 64
7, 154112, Note_on_c, 6, 64, 70
7, 154112, Note_on_c, 6, 55, 79
7, 154112, Note_on_c, 6, 59, 82
7, 154172, Note_off_c, 6, 55, 64
7, 154176, Note_off_c, 6, 59, 64
7, 154192, Note_off_c, 6, 64, 64
7, 154240, Note_on_c, 6, 55, 81
7, 154240, Note_on_c, 6, 64, 82
7, 154240, Note_on_c, 6, 59, 83
7, 154300, Note_off_c, 6, 55, 64
7, 154304, Note_off_c, 6, 59, 64
7, 154316, Note_off_c, 6, 64, 64
7, 154368, Note_on_c, 6, 55, 76
7, 154368, Note_on_c, 6, 64, 77
7, 154368, Note_on_c, 6, 59, 85
7, 154436, Note_off_c, 6, 59, 64
7, 154448, Note_off_c, 6, 64, 64
7, 154448, Note_off_c, 6, 55, 64
7, 154496, Note_on_c, 6, 55, 80
7, 154496, Note_on_c, 6, 59, 78
7, 154496, Note_on_c, 6, 64, 62
7, 154560, Note_off_c, 6, 64, 64
7, 154568, Note_off_c, 6, 59, 64
7, 154568, Note_off_c, 6, 55, 64
7, 154624, Note_on_c, 6, 55, 82
7, 154624, Note_on_c, 6, 64, 72
7, 154624, Note_on_c, 6, 59, 83
7, 154684, Note_off_c, 6, 55, 64
7, 154688, Note_off_c, 6, 59, 64
7, 154704, Note_off_c, 6, 64, 64
7, 154752, Note_on_c, 6, 64, 81
7, 154752, Note_on_c, 6, 55, 78
7, 154752, Note_on_c, 6, 59, 83
7, 154812, Note_off_c, 6, 55, 64
7, 154816, Note_off_c, 6, 59, 64
7, 154828, Note_off_c, 6, 64, 64
7, 154880, Note_on_c, 6, 55, 76
7, 154880, Note_on_c, 6, 64, 78
7, 154880, Note_on_c, 6, 59, 85
7, 154944, Note_off_c, 6, 59, 64
7, 154944, Note_off_c, 6, 55, 64
7, 154964, Note_off_c, 6, 64, 64
7, 155008, Note_on_c, 6, 64, 63
7, 155008, Note_on_c, 6, 55, 65
7, 155008, Note_on_c, 6, 59, 86
7, 155084, Note_off_c, 6, 59, 64
7, 155088, Note_off_c, 6, 55, 64
7, 155092, Note_off_c, 6, 64, 64
7, 155136, Note_on_c, 6, 63, 90
7, 155136, Note_on_c, 6, 54, 92
7, 155136, Note_on_c, 6, 59, 87
7, 155216, Note_off_c, 6, 59, 64
7, 155220, Note_off_c, 6, 54, 64
7, 155232, Note_off_c, 6, 63, 64
7, 155520, Note_on_c, 6, 54, 85
7, 155520, Note_on_c, 6, 63, 79
7, 155520, Note_on_c, 6, 59, 82
7, 155584, Note_off_c, 6, 59, 64
7, 155592, Note_off_c, 6, 63, 64
7, 155592, Note_off_c, 6, 54, 64
7, 155648, Note_on_c, 6, 54, 80
7, 155648, Note_on_c, 6, 63, 80
7, 155648, Note_on_c, 6, 59, 81
7, 155716, Note_off_c, 6, 59, 64
7, 155716, Note_off_c, 6, 54, 64
7, 155724, Note_off_c, 6, 63, 64
7, 155776, Note_on_c, 6, 54, 70
7, 155776, Note_on_c, 6, 59, 80
7, 155776, Note_on_c, 6, 63, 53
7, 155828, Note_off_c, 6, 63, 64
7, 155840, Note_off_c, 6, 59, 64
7, 155844, Note_off_c, 6, 54, 64
7, 155904, Note_on_c, 6, 63, 86
7, 155904, Note_on_c, 6, 54, 85
7, 155904, Note_on_c, 6, 59, 92
7, 155972, Note_off_c, 6, 59, 64
7, 155976, Note_off_c, 6, 54, 64
7, 155992, Note_off_c, 6, 63, 64
7, 156288, Note_on_c, 6, 54, 86
7, 156288, Note_on_c, 6, 59, 86
7, 156288, Note_on_c, 6, 63, 82
7, 156348, Note_off_c, 6, 63, 64
7, 156348, Note_off_c, 6, 59, 64
7, 156360, Note_off_c, 6, 54, 64
7, 156416, Note_on_c, 6, 63, 84
7, 156416, Note_on_c, 6, 54, 78
7, 156416, Note_on_c, 6, 59, 78
7, 156472, Note_off_c, 6, 59, 64
7, 156484, Note_off_c, 6, 54, 64
7, 156500, Note_off_c, 6, 63, 64
7, 156544, Note_on_c, 6, 63, 68
7, 156544, Note_on_c, 6, 54, 66
7, 156544, Note_on_c, 6, 59, 85
7, 156612, Note_off_c, 6, 59, 64
7, 156616, Note_off_c, 6, 54, 64
7, 156620, Note_off_c, 6, 63, 64
7, 156672, Note_on_c, 6, 63, 84
7, 156672, Note_on_c, 6, 54, 80
7, 156672, Note_on_c, 6, 59, 94
7, 156740, Note_off_c, 6, 59, 64
7, 156748, Note_off_c, 6, 54, 64
7, 156776, Note_off_c, 6, 63, 64
7, 157056, Note_on_c, 6, 63, 82
7, 157056, Note_on_c, 6, 59, 83
7, 157056, Note_on_c, 6, 54, 81
7, 157100, Note_off_c, 6, 59, 64
7, 157104, Note_off_c, 6, 54, 64
7, 157120, Note_off_c, 6, 63, 64
7, 157184, Note_on_c, 6, 63, 76
7, 157184, Note_on_c, 6, 54, 68
7, 157184, Note_on_c, 6, 59, 79
7, 157248, Note_off_c, 6, 59, 64
7, 157256, Note_off_c, 6, 54, 64
7, 157264, Note_off_c, 6, 63, 64
7, 157312, Note_on_c, 6, 54, 72
7, 157312, Note_on_c, 6, 63, 64
7, 157312, Note_on_c, 6, 59, 84
7, 157380, Note_off_c, 6, 59, 64
7, 157388, Note_off_c, 6, 63, 64
7, 157388, Note_off_c, 6, 54, 64
7, 157440, Note_on_c, 6, 63, 68
7, 157440, Note_on_c, 6, 54, 75
7, 157440, Note_on_c, 6, 59, 79
7, 157488, Note_off_c, 6, 59, 64
7, 157504, Note_off_c, 6, 63, 64
7, 157516, Note_off_c, 6, 54, 64
7, 157568, Note_on_c, 6, 63, 39
7, 157568, Note_on_c, 6, 54, 70
7, 157568, Note_on_c, 6, 59, 86
7, 157632, Note_off_c, 6, 63, 64
7, 157640, Note_off_c, 6, 59, 64
7, 157644, Note_off_c, 6, 54, 64
7, 157696, Note_on_c, 6, 54, 72
7, 157696, Note_on_c, 6, 63, 79
7, 157696, Note_on_c, 6, 59, 90
7, 157764, Note_off_c, 6, 59, 64
7, 157776, Note_off_c, 6, 54, 64
7, 157788, Note_off_c, 6, 63, 64
7, 157824, Note_on_c, 6, 54, 71
7, 157824, Note_on_c, 6, 63, 83
7, 157824, Note_on_c, 6, 59, 89
7, 157888, Note_off_c, 6, 59, 64
7, 157900, Note_off_c, 6, 54, 64
7, 157904, Note_off_c, 6, 63, 64
7, 157952, Note_on_c, 6, 63, 76
7, 157952, Note_on_c, 6, 54, 73
7, 157952, Note_on_c, 6, 59, 75
7, 157988, Note_off_c, 6, 59, 64
7, 158016, Note_off_c, 6, 54, 64
7, 158032, Note_off_c, 6, 63, 64
7, 158080, Note_on_c, 6, 63, 84
7, 158080, Note_on_c, 6, 54, 79
7, 158080, Note_on_c, 6, 59, 84
7, 158144, Note_off_c, 6, 59, 64
7, 158144, Note_off_c, 6, 54, 64
7, 158160, Note_off_c, 6, 63, 64
7, 158208, Note_on_c, 6, 64, 95
7, 158208, Note_on_c, 6, 59, 98
7, 158208, Note_on_c, 6, 55, 90
7, 158264, Note_off_c, 6, 55, 64
7, 158292, Note_off_c, 6, 59, 64
7, 158324, Note_off_c, 6, 64, 64
7, 158592, Note_on_c, 6, 55, 87
7, 158592, Note_on_c, 6, 59, 85
7, 158592, Note_on_c, 6, 64, 71
7, 158656, Note_off_c, 6, 55, 64
7, 158660, Note_off_c, 6, 64, 64
7, 158660, Note_off_c, 6, 59, 64
7, 158720, Note_on_c, 6, 55, 74
7, 158720, Note_on_c, 6, 64, 79
7, 158720, Note_on_c, 6, 59, 80
7, 158784, Note_off_c, 6, 59, 64
7, 158788, Note_off_c, 6, 55, 64
7, 158804, Note_off_c, 6, 64, 64
7, 158848, Note_on_c, 6, 55, 72
7, 158848, Note_on_c, 6, 64, 64
7, 158848, Note_on_c, 6, 59, 79
7, 158912, Note_off_c, 6, 59, 64
7, 158912, Note_off_c, 6, 55, 64
7, 158920, Note_off_c, 6, 64, 64
7, 158976, Note_on_c, 6, 55, 93
7, 158976, Note_on_c, 6, 64, 95
7, 158976, Note_on_c, 6, 59, 96
7, 159052, Note_off_c, 6, 59, 64
7, 159052, Note_off_c, 6, 55, 64
7, 159060, Note_off_c, 6, 64, 64
7, 159360, Note_on_c, 6, 55, 89
7, 159360, Note_on_c, 6, 59, 84
7, 159360, Note_on_c, 6, 64, 79
7, 159404, Note_off_c, 6, 59, 64
7, 159404, Note_off_c, 6, 55, 64
7, 159408, Note_off_c, 6, 64, 64
7, 159488, Note_on_c, 6, 55, 77
7, 159488, Note_on_c, 6, 64, 74
7, 159488, Note_on_c, 6, 59, 81
7, 159540, Note_off_c, 6, 59, 64
7, 159552, Note_off_c, 6, 64, 64
7, 159552, Note_off_c, 6, 55, 64
7, 159616, Note_on_c, 6, 55, 75
7, 159616, Note_on_c, 6, 59, 86
7, 159616, Note_on_c, 6, 64, 72
7, 159684, Note_off_c, 6, 55, 64
7, 159688, Note_off_c, 6, 64, 64
7, 159688, Note_off_c, 6, 59, 64
7, 159744, Note_on_c, 6, 55, 91
7, 159744, Note_on_c, 6, 64, 87
7, 159744, Note_on_c, 6, 59, 94
7, 159816, Note_off_c, 6, 55, 64
7, 159828, Note_off_c, 6, 59, 64
7, 159840, Note_off_c, 6, 64, 64
7, 160128, Note_on_c, 6, 55, 92
7, 160128, Note_on_c, 6, 59, 88
7, 160128, Note_on_c, 6, 64, 63
7, 160176, Note_off_c, 6, 64, 64
7, 160188, Note_off_c, 6, 59, 64
7, 160188, Note_off_c, 6, 55, 64
7, 160256, Note_on_c, 6, 64, 70
7, 160256, Note_on_c, 6, 55, 79
7, 160256, Note_on_c, 6, 59, 82
7, 160316, Note_off_c, 6, 55, 64
7, 160320, Note_off_c, 6, 59, 64
7, 160336, Note_off_c, 6, 64, 64
7, 160384, Note_on_c, 6, 55, 81
7, 160384, Note_on_c, 6, 64, 82
7, 160384, Note_on_c, 6, 59, 83
7, 160444, Note_off_c, 6, 55, 64
7, 160448, Note_off_c, 6, 59, 64
7, 160460, Note_off_c, 6, 64, 64
7, 160512, Note_on_c, 6, 55, 76
7, 160512, Note_on_c, 6, 64, 77
7, 160512, Note_on_c, 6, 59, 85
7, 160580, Note_off_c, 6, 59, 64
7, 160592, Note_off_c, 6, 64, 64
7, 160592, Note_off_c, 6, 55, 64
7, 160640, Note_on_c, 6, 55, 80
7, 160640, Note_on_c, 6, 59, 78
7, 160640, Note_on_c, 6, 64, 62
7, 160704, Note_off_c, 6, 64, 64
7, 160712, Note_off_c, 6, 59, 64
7, 160712, Note_off_c, 6, 55, 64
7, 160768, Note_on_c, 6, 55, 82
7, 160768, Note_on_c, 6, 64, 72
7, 160768, Note_on_c, 6, 59, 83
7, 160828, Note_off_c, 6, 55, 64
7, 160832, Note_off_c, 6, 59, 64
7, 160848, Note_off_c, 6, 64, 64
7, 160896, Note_on_c, 6, 64, 81
7, 160896, Note_on_c, 6, 55, 78
7, 160896, Note_on_c, 6, 59, 83
7, 160956, Note_off_c, 6, 55, 64
7, 160960, Note_off_c, 6, 59, 64
7, 160972, Note_off_c, 6, 64, 64
7, 161024, Note_on_c, 6, 55, 76
7, 161024, Note_on_c, 6, 64, 78
7, 161024, Note_on_c, 6, 59, 85
7, 161088, Note_off_c, 6, 59, 64
7, 161088, Note_off_c, 6, 55, 64
7, 161108, Note_off_c, 6, 64, 64
7, 161152, Note_on_c, 6, 64, 63
7, 161152, Note_on_c, 6, 55, 65
7, 161152, Note_on_c, 6, 59, 86
7, 161228, Note_off_c, 6, 59, 64
7, 161232, Note_off_c, 6, 55, 64
7, 161236, Note_off_c, 6, 64, 64
7, 161280, Note_on_c, 6, 63, 90
7, 161280, Note_on_c, 6, 54, 92
7, 161280, Note_on_c, 6, 59, 87
7, 161360, Note_off_c, 6, 59, 64
7, 161364, Note_off_c, 6, 54, 64
7, 161376, Note_off_c, 6, 63, 64
7, 161664, Note_on_c, 6, 54, 85
7, 161664, Note_on_c, 6, 63, 79
7, 161664, Note_on_c, 6, 59, 82
7, 161728, Note_off_c, 6, 59, 64
7, 161736, Note_off_c, 6, 63, 64
7, 161736, Note_off_c, 6, 54, 64
7, 161792, Note_on_c, 6, 54, 80
7, 161792, Note_on_c, 6, 63, 80
7, 161792, Note_on_c, 6, 59, 81
7, 161860, Note_off_c, 6, 59, 64
7, 161860, Note_off_c, 6, 54, 64
7, 161868, Note_off_c, 6, 63, 64
7, 161920, Note_on_c, 6, 54, 70
7, 161920, Note_on_c, 6, 59, 80
7, 161920, Note_on_c, 6, 63, 53
7, 161972, Note_off_c, 6, 63, 64
7, 161984, Note_off_c, 6, 59, 64
7, 161988, Note_off_c, 6, 54, 64
7, 162048, Note_on_c, 6, 63, 86
7, 162048, Note_on_c, 6, 54, 85
7, 162048, Note_on_c, 6, 59, 92
7, 162116, Note_off_c, 6, 59, 64
7, 162120, Note_off_c, 6, 54, 64
7, 162136, Note_off_c, 6, 63, 64
7, 162432, Note_on_c, 6, 54, 86
7, 162432, Note_on_c, 6, 59, 86
7, 162432, Note_on_c, 6, 63, 82
7, 162492, Note_off_c, 6, 63, 64
7, 162492, Note_off_c, 6, 59, 64
7, 162504, Note_off_c, 6, 54, 64
7, 162560, Note_on_c, 6, 63, 84
7, 162560, Note_on_c, 6, 54, 78
7, 162560, Note_on_c, 6, 59, 78
7, 162616, Note_off_c, 6, 59, 64
7, 162628, Note_off_c, 6, 54, 64
7, 162644, Note_off_c, 6, 63, 64
7, 162688, Note_on_c, 6, 63, 68
7, 162688, Note_on_c, 6, 54, 66
7, 162688, Note_on_c, 6, 59, 85
7, 162756, Note_off_c, 6, 59, 64
7, 162760, Note_off_c, 6, 54, 64
7, 162764, Note_off_c, 6, 63, 64
7, 162816, Note_on_c, 6, 63, 84
7, 162816, Note_on_c, 6, 54, 80
7, 162816, Note_on_c, 6, 59, 94
7, 162884, Note_off_c, 6, 59, 64
7, 162892, Note_off_c, 6, 54, 64
7, 162920, Note_off_c, 6, 63, 64
7, 163200, Note_on_c, 6, 63, 82
7, 163200, Note_on_c, 6, 59, 83
7, 163200, Note_on_c, 6, 54, 81
7, 163244, Note_off_c, 6, 59, 64
7, 163248, Note_off_c, 6, 54, 64
7, 163264, Note_off_c, 6, 63, 64
7, 163328, Note_on_c, 6, 63, 76
7, 163328, Note_on_c, 6, 54, 68
7, 163328, Note_on_c, 6, 59, 79
7, 163392, Note_off_c, 6, 59, 64
7, 163400, Note_off_c, 6, 54, 64
7, 163408, Note_off_c, 6, 63, 64
7, 163456, Note_on_c, 6, 54, 72
7, 163456, Note_on_c, 6, 63, 64
7, 163456, Note_on_c, 6, 59, 84
7, 163524, Note_off_c, 6, 59, 64
7, 163532, Note_off_c, 6, 63, 64
7, 163532, Note_off_c, 6, 54, 64
7, 163584, Note_on_c, 6, 63, 68
7, 163584, Note_on_c, 6, 54, 75
7, 163584, Note_on_c, 6, 59, 79
7, 163632, Note_off_c, 6, 59, 64
7, 163648, Note_off_c, 6, 63, 64
7, 163660, Note_off_c, 6, 54, 64
7, 163712, Note_on_c, 6, 63, 39
7, 163712, Note_on_c, 6, 54, 70
7, 163712, Note_on_c, 6, 59, 86
7, 163776, Note_off_c, 6, 63, 64
7, 163784, Note_off_c, 6, 59, 64
7, 163788, Note_off_c, 6, 54, 64
7, 163840, Note_on_c, 6, 54, 72
7, 163840, Note_on_c, 6, 63, 79
7, 163840, Note_on_c, 6, 59, 90
7, 163908, Note_off_c, 6, 59, 64
7, 163920, Note_off_c, 6, 54, 64
7, 163932, Note_off_c, 6, 63, 64
7, 163968, Note_on_c, 6, 54, 71
7, 163968, Note_on_c, 6, 63, 83
7, 163968, Note_on_c, 6, 59, 89
7, 164032, Note_off_c, 6, 59, 64
7, 164044, Note_off_c, 6, 54, 64
7, 164048, Note_off_c, 6, 63, 64
7, 164096, Note_on_c, 6, 63, 76
7, 164096, Note_on_c, 6, 54, 73
7, 164096, Note_on_c, 6, 59, 75
7, 164132, Note_off_c, 6, 59, 64
7, 164160, Note_off_c, 6, 54, 64
7, 164176, Note_off_c, 6, 63, 64
7, 164224, Note_on_c, 6, 63, 84
7, 164224, Note_on_c, 6, 54, 79
7, 164224, Note_on_c, 6, 59, 84
7, 164288, Note_off_c, 6, 59, 64
7, 164288, Note_off_c, 6, 54, 64
7, 164304, Note_off_c, 6, 63, 64
7, 164352, Control_c, 6, 11, 126
7, 164352, Note_on_c, 6, 64, 95
7, 164352, Note_on_c, 6, 59, 98
7, 164352, Note_on_c, 6, 55, 90
7, 164408, Note_off_c, 6, 55, 64
7, 164436, Note_off_c, 6, 59, 64
7, 164468, Note_off_c, 6, 64, 64
7, 164496, Control_c, 6, 11, 125
7, 164592, Control_c, 6, 11, 124
7, 164688, Control_c, 6, 11, 123
7, 164736, Note_on_c, 6, 55, 87
7, 164736, Note_on_c, 6, 59, 85
7, 164736, Note_on_c, 6, 64, 71
7, 164784, Control_c, 6, 11, 122
7, 164800, Note_off_c, 6, 55, 64
7, 164804, Note_off_c, 6, 64, 64
7, 164804, Note_off_c, 6, 59, 64
7, 164864, Note_on_c, 6, 55, 74
7, 164864, Note_on_c, 6, 64, 79
7, 164864, Note_on_c, 6, 59, 80
7, 164880, Control_c, 6, 11, 121
7, 164928, Note_off_c, 6, 59, 64
7, 164932, Note_off_c, 6, 55, 64
7, 164948, Note_off_c, 6, 64, 64
7, 164976, Control_c, 6, 11, 120
7, 164992, Note_on_c, 6, 55, 72
7, 164992, Note_on_c, 6, 64, 64
7, 164992, Note_on_c, 6, 59, 79
7, 165056, Note_off_c, 6, 59, 64
7, 165056, Note_off_c, 6, 55, 64
7, 165064, Note_off_c, 6, 64, 64
7, 165072, Control_c, 6, 11, 119
7, 165120, Note_on_c, 6, 55, 93
7, 165120, Note_on_c, 6, 64, 95
7, 165120, Note_on_c, 6, 59, 96
7, 165168, Control_c, 6, 11, 118
7, 165196, Note_off_c, 6, 59, 64
7, 165196, Note_off_c, 6, 55, 64
7, 165204, Note_off_c, 6, 64, 64
7, 165264, Control_c, 6, 11, 117
7, 165360, Control_c, 6, 11, 116
7, 165456, Control_c, 6, 11, 115
7, 165504, Note_on_c, 6, 55, 89
7, 165504, Note_on_c, 6, 59, 84
7, 165504, Note_on_c, 6, 64, 79
7, 165548, Note_off_c, 6, 59, 64
7, 165548, Note_off_c, 6, 55, 64
7, 165552, Note_off_c, 6, 64, 64
7, 165552, Control_c, 6, 11, 114
7, 165632, Note_on_c, 6, 55, 77
7, 165632, Note_on_c, 6, 64, 74
7, 165632, Note_on_c, 6, 59, 81
7, 165648, Control_c, 6, 11, 113
7, 165684, Note_off_c, 6, 59, 64
7, 165696, Note_off_c, 6, 64, 64
7, 165696, Note_off_c, 6, 55, 64
7, 165744, Control_c, 6, 11, 112
7, 165760, Note_on_c, 6, 55, 75
7, 165760, Note_on_c, 6, 59, 86
7, 165760, Note_on_c, 6, 64, 72
7, 165828, Note_off_c, 6, 55, 64
7, 165832, Note_off_c, 6, 64, 64
7, 165832, Note_off_c, 6, 59, 64
7, 165840, Control_c, 6, 11, 111
7, 165888, Note_on_c, 6, 55, 91
7, 165888, Note_on_c, 6, 64, 87
7, 165888, Note_on_c, 6, 59, 94
7, 165936, Control_c, 6, 11, 110
7, 165960, Note_off_c, 6, 55, 64
7, 165972, Note_off_c, 6, 59, 64
7, 165984, Note_off_c, 6, 64, 64
7, 166032, Control_c, 6, 11, 109
7, 166128, Control_c, 6, 11, 108
7, 166224, Control_c, 6, 11, 107
7, 166272, Note_on_c, 6, 55, 92
7, 166272, Note_on_c, 6, 59, 88
7, 166272, Note_on_c, 6, 64, 63
7, 166320, Note_off_c, 6, 64, 64
7, 166320, Control_c, 6, 11, 106
7, 166332, Note_off_c, 6, 59, 64
7, 166332, Note_off_c, 6, 55, 64
7, 166400, Note_on_c, 6, 64, 70
7, 166400, Note_on_c, 6, 55, 79
7, 166400, Note_on_c, 6, 59, 82
7, 166416, Control_c, 6, 11, 105
7, 166460, Note_off_c, 6, 55, 64
7, 166464, Note_off_c, 6, 59, 64
7, 166480, Note_off_c, 6, 64, 64
7, 166512, Control_c, 6, 11, 104
7, 166528, Note_on_c, 6, 55, 81
7, 166528, Note_on_c, 6, 64, 82
7, 166528, Note_on_c, 6, 59, 83
7, 166588, Note_off_c, 6, 55, 64
7, 166592, Note_off_c, 6, 59, 64
7, 166604, Note_off_c, 6, 64, 64
7, 166608, Control_c, 6, 11, 103
7, 166656, Note_on_c, 6, 55, 76
7, 166656, Note_on_c, 6, 64, 77
7, 166656, Note_on_c, 6, 59, 85
7, 166704, Control_c, 6, 11, 102
7, 166724, Note_off_c, 6, 59, 64
7, 166736, Note_off_c, 6, 64, 64
7, 166736, Note_off_c, 6, 55, 64
7, 166784, Note_on_c, 6, 55, 80
7, 166784, Note_on_c, 6, 59, 78
7, 166784, Note_on_c, 6, 64, 62
7, 166800, Control_c, 6, 11, 101
7, 166848, Note_off_c, 6, 64, 64
7, 166856, Note_off_c, 6, 59, 64
7, 166856, Note_off_c, 6, 55, 64
7, 166896, Control_c, 6, 11, 100
7, 166912, Note_on_c, 6, 55, 82
7, 166912, Note_on_c, 6, 64, 72
7, 166912, Note_on_c, 6, 59, 83
7, 166972, Note_off_c, 6, 55, 64
7, 166976, Note_off_c, 6, 59, 64
7, 166992, Note_off_c, 6, 64, 64
7, 166992, Control_c, 6, 11, 99
7, 167040, Note_on_c, 6, 64, 81
7, 167040, Note_on_c, 6, 55, 78
7, 167040, Note_on_c, 6, 59, 83
7, 167088, Control_c, 6, 11, 98
7, 167100, Note_off_c, 6, 55, 64
7, 167104, Note_off_c, 6, 59, 64
7, 167116, Note_off_c, 6, 64, 64
7, 167168, Note_on_c, 6, 55, 76
7, 167168, Note_on_c, 6, 64, 78
7, 167168, Note_on_c, 6, 59, 85
7, 167184, Control_c, 6, 11, 97
7, 167232, Note_off_c, 6, 59, 64
7, 167232, Note_off_c, 6, 55, 64
7, 167252, Note_off_c, 6, 64, 64
7, 167280, Control_c, 6, 11, 96
7, 167296, Note_on_c, 6, 64, 63
7, 167296, Note_on_c, 6, 55, 65
7, 167296, Note_on_c, 6, 59, 86
7, 167372, Note_off_c, 6, 59, 64
7, 167376, Note_off_c, 6, 55, 64
7, 167376, Control_c, 6, 11, 95
7, 167380, Note_off_c, 6, 64, 64
7, 167424, Note_on_c, 6, 63, 90
7, 167424, Note_on_c, 6, 54, 92
7, 167424, Note_on_c, 6, 59, 87
7, 167472, Control_c, 6, 11, 94
7, 167504, Note_off_c, 6, 59, 64
7, 167508, Note_off_c, 6, 54, 64
7, 167520, Note_off_c, 6, 63, 64
7, 167568, Control_c, 6, 11, 93
7, 167664, Control_c, 6, 11, 92
7, 167760, Control_c, 6, 11, 91
7, 167808, Note_on_c, 6, 54, 85
7, 167808, Note_on_c, 6, 63, 79
7, 167808, Note_on_c, 6, 59, 82
7, 167856, Control_c, 6, 11, 90
7, 167872, Note_off_c, 6, 59, 64
7, 167880, Note_off_c, 6, 63, 64
7, 167880, Note_off_c, 6, 54, 64
7, 167936, Note_on_c, 6, 54, 80
7, 167936, Note_on_c, 6, 63, 80
7, 167936, Note_on_c, 6, 59, 81
7, 167952, Control_c, 6, 11, 89
7, 168004, Note_off_c, 6, 59, 64
7, 168004, Note_off_c, 6, 54, 64
7, 168012, Note_off_c, 6, 63, 64
7, 168048, Control_c, 6, 11, 88
7, 168064, Note_on_c, 6, 54, 70
7, 168064, Note_on_c, 6, 59, 80
7, 168064, Note_on_c, 6, 63, 53
7, 168116, Note_off_c, 6, 63, 64
7, 168128, Note_off_c, 6, 59, 64
7, 168132, Note_off_c, 6, 54, 64
7, 168144, Control_c, 6, 11, 87
7, 168192, Note_on_c, 6, 63, 86
7, 168192, Note_on_c, 6, 54, 85
7, 168192, Note_on_c, 6, 59, 92
7, 168240, Control_c, 6, 11, 86
7, 168260, Note_off_c, 6, 59, 64
7, 168264, Note_off_c, 6, 54, 64
7, 168280, Note_off_c, 6, 63, 64
7, 168336, Control_c, 6, 11, 85
7, 168432, Control_c, 6, 11, 84
7, 168528, Control_c, 6, 11, 83
7, 168576, Note_on_c, 6, 54, 86
7, 168576, Note_on_c, 6, 59, 86
7, 168576, Note_on_c, 6, 63, 82
7, 168624, Control_c, 6, 11, 82
7, 168636, Note_off_c, 6, 63, 64
7, 168636, Note_off_c, 6, 59, 64
7, 168648, Note_off_c, 6, 54, 64
7, 168704, Note_on_c, 6, 63, 84
7, 168704, Note_on_c, 6, 54, 78
7, 168704, Note_on_c, 6, 59, 78
7, 168720, Control_c, 6, 11, 81
7, 168760, Note_off_c, 6, 59, 64
7, 168772, Note_off_c, 6, 54, 64
7, 168788, Note_off_c, 6, 63, 64
7, 168816, Control_c, 6, 11, 80
7, 168832, Note_on_c, 6, 63, 68
7, 168832, Note_on_c, 6, 54, 66
7, 168832, Note_on_c, 6, 59, 85
7, 168900, Note_off_c, 6, 59, 64
7, 168904, Note_off_c, 6, 54, 64
7, 168908, Note_off_c, 6, 63, 64
7, 168912, Control_c, 6, 11, 79
7, 168960, Note_on_c, 6, 63, 84
7, 168960, Note_on_c, 6, 54, 80
7, 168960, Note_on_c, 6, 59, 94
7, 169008, Control_c, 6, 11, 78
7, 169028, Note_off_c, 6, 59, 64
7, 169036, Note_off_c, 6, 54, 64
7, 169064, Note_off_c, 6, 63, 64
7, 169104, Control_c, 6, 11, 77
7, 169200, Control_c, 6, 11, 76
7, 169296, Control_c, 6, 11, 75
7, 169344, Note_on_c, 6, 63, 82
7, 169344, Note_on_c, 6, 59, 83
7, 169344, Note_on_c, 6, 54, 81
7, 169388, Note_off_c, 6, 59, 64
7, 169392, Note_off_c, 6, 54, 64
7, 169392, Control_c, 6, 11, 74
7, 169408, Note_off_c, 6, 63, 64
7, 169472, Note_on_c, 6, 63, 76
7, 169472, Note_on_c, 6, 54, 68
7, 169472, Note_on_c, 6, 59, 79
7, 169488, Control_c, 6, 11, 73
7, 169536, Note_off_c, 6, 59, 64
7, 169544, Note_off_c, 6, 54, 64
7, 169552, Note_off_c, 6, 63, 64
7, 169584, Control_c, 6, 11, 72
7, 169600, Note_on_c, 6, 54, 72
7, 169600, Note_on_c, 6, 63, 64
7, 169600, Note_on_c, 6, 59, 84
7, 169668, Note_off_c, 6, 59, 64
7, 169676, Note_off_c, 6, 63, 64
7, 169676, Note_off_c, 6, 54, 64
7, 169680, Control_c, 6, 11, 71
7, 169728, Note_on_c, 6, 63, 68
7, 169728, Note_on_c, 6, 54, 75
7, 169728, Note_on_c, 6, 59, 79
7, 169776, Note_off_c, 6, 59, 64
7, 169776, Control_c, 6, 11, 70
7, 169792, Note_off_c, 6, 63, 64
7, 169804, Note_off_c, 6, 54, 64
7, 169856, Note_on_c, 6, 63, 39
7, 169856, Note_on_c, 6, 54, 70
7, 169856, Note_on_c, 6, 59, 86
7, 169872, Control_c, 6, 11, 69
7, 169920, Note_off_c, 6, 63, 64
7, 169928, Note_off_c, 6, 59, 64
7, 169932, Note_off_c, 6, 54, 64
7, 169968, Control_c, 6, 11, 68
7, 169984, Note_on_c, 6, 54, 72
7, 169984, Note_on_c, 6, 63, 79
7, 169984, Note_on_c, 6, 59, 90
7, 170052, Note_off_c, 6, 59, 64
7, 170064, Note_off_c, 6, 54, 64
7, 170064, Control_c, 6, 11, 67
7, 170076, Note_off_c, 6, 63, 64
7, 170112, Note_on_c, 6, 54, 71
7, 170112, Note_on_c, 6, 63, 83
7, 170112, Note_on_c, 6, 59, 89
7, 170160, Control_c, 6, 11, 66
7, 170176, Note_off_c, 6, 59, 64
7, 170188, Note_off_c, 6, 54, 64
7, 170192, Note_off_c, 6, 63, 64
7, 170240, Note_on_c, 6, 63, 76
7, 170240, Note_on_c, 6, 54, 73
7, 170240, Note_on_c, 6, 59, 75
7, 170256, Control_c, 6, 11, 65
7, 170276, Note_off_c, 6, 59, 64
7, 170304, Note_off_c, 6, 54, 64
7, 170320, Note_off_c, 6, 63, 64
7, 170352, Control_c, 6, 11, 64
7, 170368, Note_on_c, 6, 63, 84
7, 170368, Note_on_c, 6, 54, 79
7, 170368, Note_on_c, 6, 59, 84
7, 170432, Note_off_c, 6, 59, 64
7, 170432, Note_off_c, 6, 54, 64
7, 170448, Note_off_c, 6, 63, 64
7, 170448, Control_c, 6, 11, 63
7, 170496, Note_on_c, 6, 64, 95
7, 170496, Note_on_c, 6, 59, 98
7, 170496, Note_on_c, 6, 55, 90
7, 170544, Control_c, 6, 11, 62
7, 170552, Note_off_c, 6, 55, 64
7, 170580, Note_off_c, 6, 59, 64
7, 170612, Note_off_c, 6, 64, 64
7, 170688, Control_c, 6, 11, 61
7, 170784, Control_c, 6, 11, 60
7, 170880, Control_c, 6, 11, 59
7, 170880, Note_on_c, 6, 55, 87
7, 170880, Note_on_c, 6, 59, 85
7, 170880, Note_on_c, 6, 64, 71
7, 170944, Note_off_c, 6, 55, 64
7, 170948, Note_off_c, 6, 64, 64
7, 170948, Note_off_c, 6, 59, 64
7, 170976, Control_c, 6, 11, 58
7, 171008, Note_on_c, 6, 55, 74
7, 171008, Note_on_c, 6, 64, 79
7, 171008, Note_on_c, 6, 59, 80
7, 171072, Note_off_c, 6, 59, 64
7, 171072, Control_c, 6, 11, 57
7, 171076, Note_off_c, 6, 55, 64
7, 171092, Note_off_c, 6, 64, 64
7, 171136, Note_on_c, 6, 55, 72
7, 171136, Note_on_c, 6, 64, 64
7, 171136, Note_on_c, 6, 59, 79
7, 171168, Control_c, 6, 11, 56
7, 171200, Note_off_c, 6, 59, 64
7, 171200, Note_off_c, 6, 55, 64
7, 171208, Note_off_c, 6, 64, 64
7, 171264, Control_c, 6, 11, 55
7, 171264, Note_on_c, 6, 55, 93
7, 171264, Note_on_c, 6, 64, 95
7, 171264, Note_on_c, 6, 59, 96
7, 171340, Note_off_c, 6, 59, 64
7, 171340, Note_off_c, 6, 55, 64
7, 171348, Note_off_c, 6, 64, 64
7, 171360, Control_c, 6, 11, 54
7, 171456, Control_c, 6, 11, 53
7, 171552, Control_c, 6, 11, 52
7, 171648, Control_c, 6, 11, 51
7, 171648, Note_on_c, 6, 55, 89
7, 171648, Note_on_c, 6, 59, 84
7, 171648, Note_on_c, 6, 64, 79
7, 171692, Note_off_c, 6, 59, 64
7, 171692, Note_off_c, 6, 55, 64
7, 171696, Note_off_c, 6, 64, 64
7, 171744, Control_c, 6, 11, 50
7, 171776, Note_on_c, 6, 55, 77
7, 171776, Note_on_c, 6, 64, 74
7, 171776, Note_on_c, 6, 59, 81
7, 171828, Note_off_c, 6, 59, 64
7, 171840, Note_off_c, 6, 64, 64
7, 171840, Note_off_c, 6, 55, 64
7, 171840, Control_c, 6, 11, 49
7, 171904, Note_on_c, 6, 55, 75
7, 171904, Note_on_c, 6, 59, 86
7, 171904, Note_on_c, 6, 64, 72
7, 171936, Control_c, 6, 11, 48
7, 171972, Note_off_c, 6, 55, 64
7, 171976, Note_off_c, 6, 64, 64
7, 171976, Note_off_c, 6, 59, 64
7, 172032, Control_c, 6, 11, 47
7, 172032, Note_on_c, 6, 55, 91
7, 172032, Note_on_c, 6, 64, 87
7, 172032, Note_on_c, 6, 59, 94
7, 172104, Note_off_c, 6, 55, 64
7, 172116, Note_off_c, 6, 59, 64
7, 172128, Note_off_c, 6, 64, 64
7, 172128, Control_c, 6, 11, 46
7, 172224, Control_c, 6, 11, 45
7, 172320, Control_c, 6, 11, 44
7, 172416, Control_c, 6, 11, 43
7, 172416, Note_on_c, 6, 55, 92
7, 172416, Note_on_c, 6, 59, 88
7, 172416, Note_on_c, 6, 64, 63
7, 172464, Note_off_c, 6, 64, 64
7, 172476, Note_off_c, 6, 59, 64
7, 172476, Note_off_c, 6, 55, 64
7, 172512, Control_c, 6, 11, 42
7, 172544, Note_on_c, 6, 64, 70
7, 172544, Note_on_c, 6, 55, 79
7, 172544, Note_on_c, 6, 59, 82
7, 172604, Note_off_c, 6, 55, 64
7, 172608, Note_off_c, 6, 59, 64
7, 172608, Control_c, 6, 11, 41
7, 172624, Note_off_c, 6, 64, 64
7, 172672, Note_on_c, 6, 55, 81
7, 172672, Note_on_c, 6, 64, 82
7, 172672, Note_on_c, 6, 59, 83
7, 172704, Control_c, 6, 11, 40
7, 172732, Note_off_c, 6, 55, 64
7, 172736, Note_off_c, 6, 59, 64
7, 172748, Note_off_c, 6, 64, 64
7, 172800, Control_c, 6, 11, 39
7, 172800, Note_on_c, 6, 55, 76
7, 172800, Note_on_c, 6, 64, 77
7, 172800, Note_on_c, 6, 59, 85
7, 172868, Note_off_c, 6, 59, 64
7, 172880, Note_off_c, 6, 64, 64
7, 172880, Note_off_c, 6, 55, 64
7, 172896, Control_c, 6, 11, 38
7, 172928, Note_on_c, 6, 55, 80
7, 172928, Note_on_c, 6, 59, 78
7, 172928, Note_on_c, 6, 64, 62
7, 172992, Note_off_c, 6, 64, 64
7, 172992, Control_c, 6, 11, 37
7, 173000, Note_off_c, 6, 59, 64
7, 173000, Note_off_c, 6, 55, 64
7, 173056, Note_on_c, 6, 55, 82
7, 173056, Note_on_c, 6, 64, 72
7, 173056, Note_on_c, 6, 59, 83
7, 173088, Control_c, 6, 11, 36
7, 173116, Note_off_c, 6, 55, 64
7, 173120, Note_off_c, 6, 59, 64
7, 173136, Note_off_c, 6, 64, 64
7, 173184, Control_c, 6, 11, 35
7, 173184, Note_on_c, 6, 64, 81
7, 173184, Note_on_c, 6, 55, 78
7, 173184, Note_on_c, 6, 59, 83
7, 173244, Note_off_c, 6, 55, 64
7, 173248, Note_off_c, 6, 59, 64
7, 173260, Note_off_c, 6, 64, 64
7, 173280, Control_c, 6, 11, 34
7, 173312, Note_on_c, 6, 55, 76
7, 173312, Note_on_c, 6, 64, 78
7, 173312, Note_on_c, 6, 59, 85
7, 173376, Note_off_c, 6, 59, 64
7, 173376, Note_off_c, 6, 55, 64
7, 173376, Control_c, 6, 11, 33
7, 173396, Note_off_c, 6, 64, 64
7, 173440, Note_on_c, 6, 64, 63
7, 173440, Note_on_c, 6, 55, 65
7, 173440, Note_on_c, 6, 59, 86
7, 173472, Control_c, 6, 11, 32
7, 173516, Note_off_c, 6, 59, 64
7, 173520, Note_off_c, 6, 55, 64
7, 173524, Note_off_c, 6, 64, 64
7, 173568, Control_c, 6, 11, 31
7, 173568, Note_on_c, 6, 63, 90
7, 173568, Note_on_c, 6, 54, 92
7, 173568, Note_on_c, 6, 59, 87
7, 173648, Note_off_c, 6, 59, 64
7, 173652, Note_off_c, 6, 54, 64
7, 173664, Note_off_c, 6, 63, 64
7, 173664, Control_c, 6, 11, 30
7, 173760, Control_c, 6, 11, 29
7, 173856, Control_c, 6, 11, 28
7, 173952, Control_c, 6, 11, 27
7, 173952, Note_on_c, 6, 54, 85
7, 173952, Note_on_c, 6, 63, 79
7, 173952, Note_on_c, 6, 59, 82
7, 174016, Note_off_c, 6, 59, 64
7, 174024, Note_off_c, 6, 63, 64
7, 174024, Note_off_c, 6, 54, 64
7, 174048, Control_c, 6, 11, 26
7, 174080, Note_on_c, 6, 54, 80
7, 174080, Note_on_c, 6, 63, 80
7, 174080, Note_on_c, 6, 59, 81
7, 174144, Control_c, 6, 11, 25
7, 174148, Note_off_c, 6, 59, 64
7, 174148, Note_off_c, 6, 54, 64
7, 174156, Note_off_c, 6, 63, 64
7, 174208, Note_on_c, 6, 54, 70
7, 174208, Note_on_c, 6, 59, 80
7, 174208, Note_on_c, 6, 63, 53
7, 174240, Control_c, 6, 11, 24
7, 174260, Note_off_c, 6, 63, 64
7, 174272, Note_off_c, 6, 59, 64
7, 174276, Note_off_c, 6, 54, 64
7, 174336, Control_c, 6, 11, 23
7, 174336, Note_on_c, 6, 63, 86
7, 174336, Note_on_c, 6, 54, 85
7, 174336, Note_on_c, 6, 59, 92
7, 174404, Note_off_c, 6, 59, 64
7, 174408, Note_off_c, 6, 54, 64
7, 174424, Note_off_c, 6, 63, 64
7, 174432, Control_c, 6, 11, 22
7, 174528, Control_c, 6, 11, 21
7, 174624, Control_c, 6, 11, 20
7, 174720, Control_c, 6, 11, 19
7, 174720, Note_on_c, 6, 54, 86
7, 174720, Note_on_c, 6, 59, 86
7, 174720, Note_on_c, 6, 63, 82
7, 174780, Note_off_c, 6, 63, 64
7, 174780, Note_off_c, 6, 59, 64
7, 174792, Note_off_c, 6, 54, 64
7, 174816, Control_c, 6, 11, 18
7, 174848, Note_on_c, 6, 63, 84
7, 174848, Note_on_c, 6, 54, 78
7, 174848, Note_on_c, 6, 59, 78
7, 174904, Note_off_c, 6, 59, 64
7, 174912, Control_c, 6, 11, 17
7, 174916, Note_off_c, 6, 54, 64
7, 174932, Note_off_c, 6, 63, 64
7, 174976, Note_on_c, 6, 63, 68
7, 174976, Note_on_c, 6, 54, 66
7, 174976, Note_on_c, 6, 59, 85
7, 175008, Control_c, 6, 11, 16
7, 175044, Note_off_c, 6, 59, 64
7, 175048, Note_off_c, 6, 54, 64
7, 175052, Note_off_c, 6, 63, 64
7, 175104, Control_c, 6, 11, 15
7, 175104, Note_on_c, 6, 63, 84
7, 175104, Note_on_c, 6, 54, 80
7, 175104, Note_on_c, 6, 59, 94
7, 175172, Note_off_c, 6, 59, 64
7, 175180, Note_off_c, 6, 54, 64
7, 175200, Control_c, 6, 11, 14
7, 175208, Note_off_c, 6, 63, 64
7, 175296, Control_c, 6, 11, 13
7, 175392, Control_c, 6, 11, 12
7, 175488, Control_c, 6, 11, 11
7, 175488, Note_on_c, 6, 63, 82
7, 175488, Note_on_c, 6, 59, 83
7, 175488, Note_on_c, 6, 54, 81
7, 175532, Note_off_c, 6, 59, 64
7, 175536, Note_off_c, 6, 54, 64
7, 175552, Note_off_c, 6, 63, 64
7, 175584, Control_c, 6, 11, 10
7, 175616, Note_on_c, 6, 63, 76
7, 175616, Note_on_c, 6, 54, 68
7, 175616, Note_on_c, 6, 59, 79
7, 175680, Note_off_c, 6, 59, 64
7, 175680, Control_c, 6, 11, 9
7, 175688, Note_off_c, 6, 54, 64
7, 175696, Note_off_c, 6, 63, 64
7, 175744, Note_on_c, 6, 54, 72
7, 175744, Note_on_c, 6, 63, 64
7, 175744, Note_on_c, 6, 59, 84
7, 175776, Control_c, 6, 11, 8
7, 175812, Note_off_c, 6, 59, 64
7, 175820, Note_off_c, 6, 63, 64
7, 175820, Note_off_c, 6, 54, 64
7, 175872, Control_c, 6, 11, 7
7, 175872, Note_on_c, 6, 63, 68
7, 175872, Note_on_c, 6, 54, 75
7, 175872, Note_on_c, 6, 59, 79
7, 175920, Note_off_c, 6, 59, 64
7, 175936, Note_off_c, 6, 63, 64
7, 175948, Note_off_c, 6, 54, 64
7, 175968, Control_c, 6, 11, 6
7, 176000, Note_on_c, 6, 63, 39
7, 176000, Note_on_c, 6, 54, 70
7, 176000, Note_on_c, 6, 59, 86
7, 176064, Note_off_c, 6, 63, 64
7, 176064, Control_c, 6, 11, 5
7, 176072, Note_off_c, 6, 59, 64
7, 176076, Note_off_c, 6, 54, 64
7, 176128, Note_on_c, 6, 54, 72
7, 176128, Note_on_c, 6, 63, 79
7, 176128, Note_on_c, 6, 59, 90
7, 176160, Control_c, 6, 11, 4
7, 176196, Note_off_c, 6, 59, 64
7, 176208, Note_off_c, 6, 54, 64
7, 176220, Note_off_c, 6, 63, 64
7, 176256, Control_c, 6, 11, 3
7, 176256, Note_on_c, 6, 54, 71
7, 176256, Note_on_c, 6, 63, 83
7, 176256, Note_on_c, 6, 59, 89
7, 176320, Note_off_c, 6, 59, 64
7, 176332, Note_off_c, 6, 54, 64
7, 176336, Note_off_c, 6, 63, 64
7, 176352, Control_c, 6, 11, 2
7, 176384, Note_on_c, 6, 63, 76
7, 176384, Note_on_c, 6, 54, 73
7, 176384, Note_on_c, 6, 59, 75
7, 176420, Note_off_c, 6, 59, 64
7, 176448, Note_off_c, 6, 54, 64
7, 176448, Control_c, 6, 11, 1
7, 176464, Note_off_c, 6, 63, 64
7, 176512, Note_on_c, 6, 63, 84
7, 176512, Note_on_c, 6, 54, 79
7, 176512, Note_on_c, 6, 59, 84
7, 176544, Control_c, 6, 11, 0
7, 176576, Note_off_c, 6, 59, 64
7, 176576, Note_off_c, 6, 54, 64
7, 176592, Note_off_c, 6, 63, 64
7, 176640, End_track
8, 0, Start_track
8, 0, Title_t, "MIDI"
8, 0, Control_c, 7, 7, 90
8, 0, Program_c, 7, 104
8, 532, Program_c, 7, 104
8, 536, Control_c, 7, 7, 90
8, 536, Control_c, 7, 10, 34
8, 536, Control_c, 7, 11, 127
8, 540, Control_c, 7, 91, 60
8, 540, Control_c, 7, 93, 0
8, 17280, Note_on_c, 7, 64, 85
8, 17476, Note_off_c, 7, 64, 64
8, 17664, Note_on_c, 7, 66, 83
8, 17912, Note_off_c, 7, 66, 64
8, 18048, Note_on_c, 7, 67, 90
8, 18304, Note_off_c, 7, 67, 64
8, 18432, Note_on_c, 7, 69, 89
8, 18716, Note_off_c, 7, 69, 64
8, 18816, Note_on_c, 7, 67, 89
8, 19052, Note_off_c, 7, 67, 64
8, 19200, Note_on_c, 7, 66, 81
8, 19444, Note_off_c, 7, 66, 64
8, 19584, Note_on_c, 7, 64, 82
8, 19828, Note_off_c, 7, 64, 64
8, 19968, Note_on_c, 7, 64, 79
8, 19992, Pitch_bend_c, 7, 9444
8, 20008, Pitch_bend_c, 7, 11757
8, 20020, Pitch_bend_c, 7, 13621
8, 20032, Pitch_bend_c, 7, 14809
8, 20044, Pitch_bend_c, 7, 15066
8, 20060, Pitch_bend_c, 7, 14167
8, 20072, Pitch_bend_c, 7, 12368
8, 20088, Pitch_bend_c, 7, 10151
8, 20100, Pitch_bend_c, 7, 9091
8, 20112, Pitch_bend_c, 7, 8545
8, 20128, Pitch_bend_c, 7, 8256
8, 20140, Pitch_bend_c, 7, 8192
8, 20248, Note_off_c, 7, 64, 64
8, 20352, Note_on_c, 7, 63, 78
8, 20568, Note_off_c, 7, 63, 64
8, 20736, Note_on_c, 7, 64, 77
8, 20932, Note_off_c, 7, 64, 64
8, 21120, Note_on_c, 7, 66, 81
8, 21364, Note_off_c, 7, 66, 64
8, 21504, Note_on_c, 7, 64, 79
8, 21736, Note_off_c, 7, 64, 64
8, 21888, Note_on_c, 7, 63, 77
8, 21912, Pitch_bend_c, 7, 9444
8, 21928, Pitch_bend_c, 7, 11757
8, 21940, Pitch_bend_c, 7, 13621
8, 21952, Pitch_bend_c, 7, 14809
8, 21964, Pitch_bend_c, 7, 15066
8, 21980, Pitch_bend_c, 7, 14167
8, 21992, Pitch_bend_c, 7, 12368
8, 22008, Pitch_bend_c, 7, 10151
8, 22020, Pitch_bend_c, 7, 9091
8, 22032, Pitch_bend_c, 7, 8545
8, 22048, Pitch_bend_c, 7, 8256
8, 22060, Pitch_bend_c, 7, 8192
8, 22088, Note_off_c, 7, 63, 64
8, 22272, Note_on_c, 7, 61, 72
8, 22320, Note_off_c, 7, 61, 64
8, 22368, Note_on_c, 7, 63, 81
8, 22892, Note_off_c, 7, 63, 64
8, 23424, Note_on_c, 7, 64, 85
8, 23620, Note_off_c, 7, 64, 64
8, 23808, Note_on_c, 7, 66, 83
8, 24056, Note_off_c, 7, 66, 64
8, 24192, Note_on_c, 7, 67, 90
8, 24448, Note_off_c, 7, 67, 64
8, 24576, Note_on_c, 7, 69, 89
8, 24860, Note_off_c, 7, 69, 64
8, 24960, Note_on_c, 7, 67, 89
8, 25196, Note_off_c, 7, 67, 64
8, 25344, Note_on_c, 7, 66, 81
8, 25588, Note_off_c, 7, 66, 64
8, 25728, Note_on_c, 7, 64, 82
8, 25972, Note_off_c, 7, 64, 64
8, 26112, Note_on_c, 7, 64, 79
8, 26136, Pitch_bend_c, 7, 9444
8, 26152, Pitch_bend_c, 7, 11757
8, 26164, Pitch_bend_c, 7, 13621
8, 26176, Pitch_bend_c, 7, 14809
8, 26188, Pitch_bend_c, 7, 15066
8, 26204, Pitch_bend_c, 7, 14167
8, 26216, Pitch_bend_c, 7, 12368
8, 26232, Pitch_bend_c, 7, 10151
8, 26244, Pitch_bend_c, 7, 9091
8, 26256, Pitch_bend_c, 7, 8545
8, 26272, Pitch_bend_c, 7, 8256
8, 26284, Pitch_bend_c, 7, 8192
8, 26392, Note_off_c, 7, 64, 64
8, 26496, Note_on_c, 7, 63, 78
8, 26712, Note_off_c, 7, 63, 64
8, 26880, Note_on_c, 7, 64, 77
8, 27076, Note_off_c, 7, 64, 64
8, 27264, Note_on_c, 7, 66, 81
8, 27508, Note_off_c, 7, 66, 64
8, 27648, Note_on_c, 7, 64, 79
8, 27880, Note_off_c, 7, 64, 64
8, 28032, Note_on_c, 7, 63, 77
8, 28056, Pitch_bend_c, 7, 9444
8, 28072, Pitch_bend_c, 7, 11757
8, 28084, Pitch_bend_c, 7, 13621
8, 28096, Pitch_bend_c, 7, 14809
8, 28108, Pitch_bend_c, 7, 15066
8, 28124, Pitch_bend_c, 7, 14167
8, 28136, Pitch_bend_c, 7, 12368
8, 28152, Pitch_bend_c, 7, 10151
8, 28164, Pitch_bend_c, 7, 9091
8, 28176, Pitch_bend_c, 7, 8545
8, 28192, Pitch_bend_c, 7, 8256
8, 28204, Pitch_bend_c, 7, 8192
8, 28232, Note_off_c, 7, 63, 64
8, 28416, Note_on_c, 7, 61, 72
8, 28464, Note_off_c, 7, 61, 64
8, 28512, Note_on_c, 7, 63, 81
8, 29036, Note_off_c, 7, 63, 64
8, 41856, Note_on_c, 7, 64, 85
8, 42052, Note_off_c, 7, 64, 64
8, 42240, Note_on_c, 7, 66, 83
8, 42488, Note_off_c, 7, 66, 64
8, 42624, Note_on_c, 7, 67, 90
8, 42880, Note_off_c, 7, 67, 64
8, 43008, Note_on_c, 7, 69, 89
8, 43292, Note_off_c, 7, 69, 64
8, 43392, Note_on_c, 7, 67, 89
8, 43628, Note_off_c, 7, 67, 64
8, 43776, Note_on_c, 7, 66, 81
8, 44020, Note_off_c, 7, 66, 64
8, 44160, Note_on_c, 7, 64, 82
8, 44404, Note_off_c, 7, 64, 64
8, 44544, Note_on_c, 7, 64, 79
8, 44568, Pitch_bend_c, 7, 9444
8, 44584, Pitch_bend_c, 7, 11757
8, 44596, Pitch_bend_c, 7, 13621
8, 44608, Pitch_bend_c, 7, 14809
8, 44620, Pitch_bend_c, 7, 15066
8, 44636, Pitch_bend_c, 7, 14167
8, 44648, Pitch_bend_c, 7, 12368
8, 44664, Pitch_bend_c, 7, 10151
8, 44676, Pitch_bend_c, 7, 9091
8, 44688, Pitch_bend_c, 7, 8545
8, 44704, Pitch_bend_c, 7, 8256
8, 44716, Pitch_bend_c, 7, 8192
8, 44824, Note_off_c, 7, 64, 64
8, 44928, Note_on_c, 7, 63, 78
8, 45144, Note_off_c, 7, 63, 64
8, 45312, Note_on_c, 7, 64, 77
8, 45508, Note_off_c, 7, 64, 64
8, 45696, Note_on_c, 7, 66, 81
8, 45940, Note_off_c, 7, 66, 64
8, 46080, Note_on_c, 7, 64, 79
8, 46312, Note_off_c, 7, 64, 64
8, 46464, Note_on_c, 7, 63, 77
8, 46488, Pitch_bend_c, 7, 9444
8, 46504, Pitch_bend_c, 7, 11757
8, 46516, Pitch_bend_c, 7, 13621
8, 46528, Pitch_bend_c, 7, 14809
8, 46540, Pitch_bend_c, 7, 15066
8, 46556, Pitch_bend_c, 7, 14167
8, 46568, Pitch_bend_c, 7, 12368
8, 46584, Pitch_bend_c, 7, 10151
8, 46596, Pitch_bend_c, 7, 9091
8, 46608, Pitch_bend_c, 7, 8545
8, 46624, Pitch_bend_c, 7, 8256
8, 46636, Pitch_bend_c, 7, 8192
8, 46664, Note_off_c, 7, 63, 64
8, 46848, Note_on_c, 7, 61, 72
8, 46896, Note_off_c, 7, 61, 64
8, 46944, Note_on_c, 7, 63, 81
8, 47468, Note_off_c, 7, 63, 64
8, 48000, Note_on_c, 7, 64, 85
8, 48196, Note_off_c, 7, 64, 64
8, 48384, Note_on_c, 7, 66, 83
8, 48632, Note_off_c, 7, 66, 64
8, 48768, Note_on_c, 7, 67, 90
8, 49024, Note_off_c, 7, 67, 64
8, 49152, Note_on_c, 7, 69, 89
8, 49436, Note_off_c, 7, 69, 64
8, 49536, Note_on_c, 7, 67, 89
8, 49772, Note_off_c, 7, 67, 64
8, 49920, Note_on_c, 7, 66, 81
8, 50164, Note_off_c, 7, 66, 64
8, 50304, Note_on_c, 7, 64, 82
8, 50548, Note_off_c, 7, 64, 64
8, 50688, Note_on_c, 7, 64, 79
8, 50712, Pitch_bend_c, 7, 9444
8, 50728, Pitch_bend_c, 7, 11757
8, 50740, Pitch_bend_c, 7, 13621
8, 50752, Pitch_bend_c, 7, 14809
8, 50764, Pitch_bend_c, 7, 15066
8, 50780, Pitch_bend_c, 7, 14167
8, 50792, Pitch_bend_c, 7, 12368
8, 50808, Pitch_bend_c, 7, 10151
8, 50820, Pitch_bend_c, 7, 9091
8, 50832, Pitch_bend_c, 7, 8545
8, 50848, Pitch_bend_c, 7, 8256
8, 50860, Pitch_bend_c, 7, 8192
8, 50968, Note_off_c, 7, 64, 64
8, 51072, Note_on_c, 7, 63, 78
8, 51288, Note_off_c, 7, 63, 64
8, 51456, Note_on_c, 7, 64, 77
8, 51652, Note_off_c, 7, 64, 64
8, 51840, Note_on_c, 7, 66, 81
8, 52084, Note_off_c, 7, 66, 64
8, 52224, Note_on_c, 7, 64, 79
8, 52456, Note_off_c, 7, 64, 64
8, 52608, Note_on_c, 7, 63, 77
8, 52632, Pitch_bend_c, 7, 9444
8, 52648, Pitch_bend_c, 7, 11757
8, 52660, Pitch_bend_c, 7, 13621
8, 52672, Pitch_bend_c, 7, 14809
8, 52684, Pitch_bend_c, 7, 15066
8, 52700, Pitch_bend_c, 7, 14167
8, 52712, Pitch_bend_c, 7, 12368
8, 52728, Pitch_bend_c, 7, 10151
8, 52740, Pitch_bend_c, 7, 9091
8, 52752, Pitch_bend_c, 7, 8545
8, 52768, Pitch_bend_c, 7, 8256
8, 52780, Pitch_bend_c, 7, 8192
8, 52808, Note_off_c, 7, 63, 64
8, 52992, Note_on_c, 7, 61, 72
8, 53040, Note_off_c, 7, 61, 64
8, 53088, Note_on_c, 7, 63, 81
8, 53612, Note_off_c, 7, 63, 64
8, 66432, Note_on_c, 7, 64, 85
8, 66628, Note_off_c, 7, 64, 64
8, 66816, Note_on_c, 7, 66, 83
8, 67064, Note_off_c, 7, 66, 64
8, 67200, Note_on_c, 7, 67, 90
8, 67456, Note_off_c, 7, 67, 64
8, 67584, Note_on_c, 7, 69, 89
8, 67868, Note_off_c, 7, 69, 64
8, 67968, Note_on_c, 7, 67, 89
8, 68204, Note_off_c, 7, 67, 64
8, 68352, Note_on_c, 7, 66, 81
8, 68596, Note_off_c, 7, 66, 64
8, 68736, Note_on_c, 7, 64, 82
8, 68980, Note_off_c, 7, 64, 64
8, 69120, Note_on_c, 7, 64, 79
8, 69144, Pitch_bend_c, 7, 9444
8, 69160, Pitch_bend_c, 7, 11757
8, 69172, Pitch_bend_c, 7, 13621
8, 69184, Pitch_bend_c, 7, 14809
8, 69196, Pitch_bend_c, 7, 15066
8, 69212, Pitch_bend_c, 7, 14167
8, 69224, Pitch_bend_c, 7, 12368
8, 69240, Pitch_bend_c, 7, 10151
8, 69252, Pitch_bend_c, 7, 9091
8, 69264, Pitch_bend_c, 7, 8545
8, 69280, Pitch_bend_c, 7, 8256
8, 69292, Pitch_bend_c, 7, 8192
8, 69400, Note_off_c, 7, 64, 64
8, 69504, Note_on_c, 7, 63, 78
8, 69720, Note_off_c, 7, 63, 64
8, 69888, Note_on_c, 7, 64, 77
8, 70084, Note_off_c, 7, 64, 64
8, 70272, Note_on_c, 7, 66, 81
8, 70516, Note_off_c, 7, 66, 64
8, 70656, Note_on_c, 7, 64, 79
8, 70888, Note_off_c, 7, 64, 64
8, 71040, Note_on_c, 7, 63, 77
8, 71064, Pitch_bend_c, 7, 9444
8, 71080, Pitch_bend_c, 7, 11757
8, 71092, Pitch_bend_c, 7, 13621
8, 71104, Pitch_bend_c, 7, 14809
8, 71116, Pitch_bend_c, 7, 15066
8, 71132, Pitch_bend_c, 7, 14167
8, 71144, Pitch_bend_c, 7, 12368
8, 71160, Pitch_bend_c, 7, 10151
8, 71172, Pitch_bend_c, 7, 9091
8, 71184, Pitch_bend_c, 7, 8545
8, 71200, Pitch_bend_c, 7, 8256
8, 71212, Pitch_bend_c, 7, 8192
8, 71240, Note_off_c, 7, 63, 64
8, 71424, Note_on_c, 7, 61, 72
8, 71472, Note_off_c, 7, 61, 64
8, 71520, Note_on_c, 7, 63, 81
8, 72044, Note_off_c, 7, 63, 64
8, 72576, Note_on_c, 7, 64, 85
8, 72772, Note_off_c, 7, 64, 64
8, 72960, Note_on_c, 7, 66, 83
8, 73208, Note_off_c, 7, 66, 64
8, 73344, Note_on_c, 7, 67, 90
8, 73600, Note_off_c, 7, 67, 64
8, 73728, Note_on_c, 7, 69, 89
8, 74012, Note_off_c, 7, 69, 64
8, 74112, Note_on_c, 7, 67, 89
8, 74348, Note_off_c, 7, 67, 64
8, 74496, Note_on_c, 7, 66, 81
8, 74740, Note_off_c, 7, 66, 64
8, 74880, Note_on_c, 7, 64, 82
8, 75124, Note_off_c, 7, 64, 64
8, 75264, Note_on_c, 7, 64, 79
8, 75288, Pitch_bend_c, 7, 9444
8, 75304, Pitch_bend_c, 7, 11757
8, 75316, Pitch_bend_c, 7, 13621
8, 75328, Pitch_bend_c, 7, 14809
8, 75340, Pitch_bend_c, 7, 15066
8, 75356, Pitch_bend_c, 7, 14167
8, 75368, Pitch_bend_c, 7, 12368
8, 75384, Pitch_bend_c, 7, 10151
8, 75396, Pitch_bend_c, 7, 9091
8, 75408, Pitch_bend_c, 7, 8545
8, 75424, Pitch_bend_c, 7, 8256
8, 75436, Pitch_bend_c, 7, 8192
8, 75544, Note_off_c, 7, 64, 64
8, 75648, Note_on_c, 7, 63, 78
8, 75864, Note_off_c, 7, 63, 64
8, 76032, Note_on_c, 7, 64, 77
8, 76228, Note_off_c, 7, 64, 64
8, 76416, Note_on_c, 7, 66, 81
8, 76660, Note_off_c, 7, 66, 64
8, 76800, Note_on_c, 7, 64, 79
8, 77032, Note_off_c, 7, 64, 64
8, 77184, Note_on_c, 7, 63, 77
8, 77208, Pitch_bend_c, 7, 9444
8, 77224, Pitch_bend_c, 7, 11757
8, 77236, Pitch_bend_c, 7, 13621
8, 77248, Pitch_bend_c, 7, 14809
8, 77260, Pitch_bend_c, 7, 15066
8, 77276, Pitch_bend_c, 7, 14167
8, 77288, Pitch_bend_c, 7, 12368
8, 77304, Pitch_bend_c, 7, 10151
8, 77316, Pitch_bend_c, 7, 9091
8, 77328, Pitch_bend_c, 7, 8545
8, 77344, Pitch_bend_c, 7, 8256
8, 77356, Pitch_bend_c, 7, 8192
8, 77384, Note_off_c, 7, 63, 64
8, 77568, Note_on_c, 7, 61, 72
8, 77616, Note_off_c, 7, 61, 64
8, 77664, Note_on_c, 7, 63, 81
8, 78188, Note_off_c, 7, 63, 64
8, 91008, Note_on_c, 7, 64, 85
8, 91204, Note_off_c, 7, 64, 64
8, 91392, Note_on_c, 7, 66, 83
8, 91640, Note_off_c, 7, 66, 64
8, 91776, Note_on_c, 7, 67, 90
8, 92032, Note_off_c, 7, 67, 64
8, 92160, Note_on_c, 7, 69, 89
8, 92444, Note_off_c, 7, 69, 64
8, 92544, Note_on_c, 7, 67, 89
8, 92780, Note_off_c, 7, 67, 64
8, 92928, Note_on_c, 7, 66, 81
8, 93172, Note_off_c, 7, 66, 64
8, 93312, Note_on_c, 7, 64, 82
8, 93556, Note_off_c, 7, 64, 64
8, 93696, Note_on_c, 7, 64, 79
8, 93720, Pitch_bend_c, 7, 9444
8, 93736, Pitch_bend_c, 7, 11757
8, 93748, Pitch_bend_c, 7, 13621
8, 93760, Pitch_bend_c, 7, 14809
8, 93772, Pitch_bend_c, 7, 15066
8, 93788, Pitch_bend_c, 7, 14167
8, 93800, Pitch_bend_c, 7, 12368
8, 93816, Pitch_bend_c, 7, 10151
8, 93828, Pitch_bend_c, 7, 9091
8, 93840, Pitch_bend_c, 7, 8545
8, 93856, Pitch_bend_c, 7, 8256
8, 93868, Pitch_bend_c, 7, 8192
8, 93976, Note_off_c, 7, 64, 64
8, 94080, Note_on_c, 7, 63, 78
8, 94296, Note_off_c, 7, 63, 64
8, 94464, Note_on_c, 7, 64, 77
8, 94660, Note_off_c, 7, 64, 64
8, 94848, Note_on_c, 7, 66, 81
8, 95092, Note_off_c, 7, 66, 64
8, 95232, Note_on_c, 7, 64, 79
8, 95464, Note_off_c, 7, 64, 64
8, 95616, Note_on_c, 7, 63, 77
8, 95640, Pitch_bend_c, 7, 9444
8, 95656, Pitch_bend_c, 7, 11757
8, 95668, Pitch_bend_c, 7, 13621
8, 95680, Pitch_bend_c, 7, 14809
8, 95692, Pitch_bend_c, 7, 15066
8, 95708, Pitch_bend_c, 7, 14167
8, 95720, Pitch_bend_c, 7, 12368
8, 95736, Pitch_bend_c, 7, 10151
8, 95748, Pitch_bend_c, 7, 9091
8, 95760, Pitch_bend_c, 7, 8545
8, 95776, Pitch_bend_c, 7, 8256
8, 95788, Pitch_bend_c, 7, 8192
8, 95816, Note_off_c, 7, 63, 64
8, 96000, Note_on_c, 7, 61, 72
8, 96048, Note_off_c, 7, 61, 64
8, 96096, Note_on_c, 7, 63, 81
8, 96620, Note_off_c, 7, 63, 64
8, 97152, Note_on_c, 7, 64, 85
8, 97348, Note_off_c, 7, 64, 64
8, 97536, Note_on_c, 7, 66, 83
8, 97784, Note_off_c, 7, 66, 64
8, 97920, Note_on_c, 7, 67, 90
8, 98176, Note_off_c, 7, 67, 64
8, 98304, Note_on_c, 7, 69, 89
8, 98588, Note_off_c, 7, 69, 64
8, 98688, Note_on_c, 7, 67, 89
8, 98924, Note_off_c, 7, 67, 64
8, 99072, Note_on_c, 7, 66, 81
8, 99316, Note_off_c, 7, 66, 64
8, 99456, Note_on_c, 7, 64, 82
8, 99700, Note_off_c, 7, 64, 64
8, 99840, Note_on_c, 7, 64, 79
8, 99864, Pitch_bend_c, 7, 9444
8, 99880, Pitch_bend_c, 7, 11757
8, 99892, Pitch_bend_c, 7, 13621
8, 99904, Pitch_bend_c, 7, 14809
8, 99916, Pitch_bend_c, 7, 15066
8, 99932, Pitch_bend_c, 7, 14167
8, 99944, Pitch_bend_c, 7, 12368
8, 99960, Pitch_bend_c, 7, 10151
8, 99972, Pitch_bend_c, 7, 9091
8, 99984, Pitch_bend_c, 7, 8545
8, 100000, Pitch_bend_c, 7, 8256
8, 100012, Pitch_bend_c, 7, 8192
8, 100120, Note_off_c, 7, 64, 64
8, 100224, Note_on_c, 7, 63, 78
8, 100440, Note_off_c, 7, 63, 64
8, 100608, Note_on_c, 7, 64, 77
8, 100804, Note_off_c, 7, 64, 64
8, 100992, Note_on_c, 7, 66, 81
8, 101236, Note_off_c, 7, 66, 64
8, 101376, Note_on_c, 7, 64, 79
8, 101608, Note_off_c, 7, 64, 64
8, 101760, Note_on_c, 7, 63, 77
8, 101784, Pitch_bend_c, 7, 9444
8, 101800, Pitch_bend_c, 7, 11757
8, 101812, Pitch_bend_c, 7, 13621
8, 101824, Pitch_bend_c, 7, 14809
8, 101836, Pitch_bend_c, 7, 15066
8, 101852, Pitch_bend_c, 7, 14167
8, 101864, Pitch_bend_c, 7, 12368
8, 101880, Pitch_bend_c, 7, 10151
8, 101892, Pitch_bend_c, 7, 9091
8, 101904, Pitch_bend_c, 7, 8545
8, 101920, Pitch_bend_c, 7, 8256
8, 101932, Pitch_bend_c, 7, 8192
8, 101960, Note_off_c, 7, 63, 64
8, 102144, Note_on_c, 7, 61, 72
8, 102192, Note_off_c, 7, 61, 64
8, 102240, Note_on_c, 7, 63, 81
8, 102764, Note_off_c, 7, 63, 64
8, 115584, Note_on_c, 7, 64, 85
8, 115780, Note_off_c, 7, 64, 64
8, 115968, Note_on_c, 7, 66, 83
8, 116216, Note_off_c, 7, 66, 64
8, 116352, Note_on_c, 7, 67, 90
8, 116608, Note_off_c, 7, 67, 64
8, 116736, Note_on_c, 7, 69, 89
8, 117020, Note_off_c, 7, 69, 64
8, 117120, Note_on_c, 7, 67, 89
8, 117356, Note_off_c, 7, 67, 64
8, 117504, Note_on_c, 7, 66, 81
8, 117748, Note_off_c, 7, 66, 64
8, 117888, Note_on_c, 7, 64, 82
8, 118132, Note_off_c, 7, 64, 64
8, 118272, Note_on_c, 7, 64, 79
8, 118296, Pitch_bend_c, 7, 9444
8, 118312, Pitch_bend_c, 7, 11757
8, 118324, Pitch_bend_c, 7, 13621
8, 118336, Pitch_bend_c, 7, 14809
8, 118348, Pitch_bend_c, 7, 15066
8, 118364, Pitch_bend_c, 7, 14167
8, 118376, Pitch_bend_c, 7, 12368
8, 118392, Pitch_bend_c, 7, 10151
8, 118404, Pitch_bend_c, 7, 9091
8, 118416, Pitch_bend_c, 7, 8545
8, 118432, Pitch_bend_c, 7, 8256
8, 118444, Pitch_bend_c, 7, 8192
8, 118552, Note_off_c, 7, 64, 64
8, 118656, Note_on_c, 7, 63, 78
8, 118872, Note_off_c, 7, 63, 64
8, 119040, Note_on_c, 7, 64, 77
8, 119236, Note_off_c, 7, 64, 64
8, 119424, Note_on_c, 7, 66, 81
8, 119668, Note_off_c, 7, 66, 64
8, 119808, Note_on_c, 7, 64, 79
8, 120040, Note_off_c, 7, 64, 64
8, 120192, Note_on_c, 7, 63, 77
8, 120216, Pitch_bend_c, 7, 9444
8, 120232, Pitch_bend_c, 7, 11757
8, 120244, Pitch_bend_c, 7, 13621
8, 120256, Pitch_bend_c, 7, 14809
8, 120268, Pitch_bend_c, 7, 15066
8, 120284, Pitch_bend_c, 7, 14167
8, 120296, Pitch_bend_c, 7, 12368
8, 120312, Pitch_bend_c, 7, 10151
8, 120324, Pitch_bend_c, 7, 9091
8, 120336, Pitch_bend_c, 7, 8545
8, 120352, Pitch_bend_c, 7, 8256
8, 120364, Pitch_bend_c, 7, 8192
8, 120392, Note_off_c, 7, 63, 64
8, 120576, Note_on_c, 7, 61, 72
8, 120624, Note_off_c, 7, 61, 64
8, 120672, Note_on_c, 7, 63, 81
8, 121196, Note_off_c, 7, 63, 64
8, 121728, Note_on_c, 7, 64, 85
8, 121924, Note_off_c, 7, 64, 64
8, 122112, Note_on_c, 7, 66, 83
8, 122360, Note_off_c, 7, 66, 64
8, 122496, Note_on_c, 7, 67, 90
8, 122752, Note_off_c, 7, 67, 64
8, 122880, Note_on_c, 7, 69, 89
8, 123164, Note_off_c, 7, 69, 64
8, 123264, Note_on_c, 7, 67, 89
8, 123500, Note_off_c, 7, 67, 64
8, 123648, Note_on_c, 7, 66, 81
8, 123892, Note_off_c, 7, 66, 64
8, 124032, Note_on_c, 7, 64, 82
8, 124276, Note_off_c, 7, 64, 64
8, 124416, Note_on_c, 7, 64, 79
8, 124440, Pitch_bend_c, 7, 9444
8, 124456, Pitch_bend_c, 7, 11757
8, 124468, Pitch_bend_c, 7, 13621
8, 124480, Pitch_bend_c, 7, 14809
8, 124492, Pitch_bend_c, 7, 15066
8, 124508, Pitch_bend_c, 7, 14167
8, 124520, Pitch_bend_c, 7, 12368
8, 124536, Pitch_bend_c, 7, 10151
8, 124548, Pitch_bend_c, 7, 9091
8, 124560, Pitch_bend_c, 7, 8545
8, 124576, Pitch_bend_c, 7, 8256
8, 124588, Pitch_bend_c, 7, 8192
8, 124696, Note_off_c, 7, 64, 64
8, 124800, Note_on_c, 7, 63, 78
8, 125016, Note_off_c, 7, 63, 64
8, 125184, Note_on_c, 7, 64, 77
8, 125380, Note_off_c, 7, 64, 64
8, 125568, Note_on_c, 7, 66, 81
8, 125812, Note_off_c, 7, 66, 64
8, 125952, Note_on_c, 7, 64, 79
8, 126184, Note_off_c, 7, 64, 64
8, 126336, Note_on_c, 7, 63, 77
8, 126360, Pitch_bend_c, 7, 9444
8, 126376, Pitch_bend_c, 7, 11757
8, 126388, Pitch_bend_c, 7, 13621
8, 126400, Pitch_bend_c, 7, 14809
8, 126412, Pitch_bend_c, 7, 15066
8, 126428, Pitch_bend_c, 7, 14167
8, 126440, Pitch_bend_c, 7, 12368
8, 126456, Pitch_bend_c, 7, 10151
8, 126468, Pitch_bend_c, 7, 9091
8, 126480, Pitch_bend_c, 7, 8545
8, 126496, Pitch_bend_c, 7, 8256
8, 126508, Pitch_bend_c, 7, 8192
8, 126536, Note_off_c, 7, 63, 64
8, 126720, Note_on_c, 7, 61, 72
8, 126768, Note_off_c, 7, 61, 64
8, 126816, Note_on_c, 7, 63, 81
8, 127340, Note_off_c, 7, 63, 64
8, 140160, Note_on_c, 7, 64, 85
8, 140356, Note_off_c, 7, 64, 64
8, 140544, Note_on_c, 7, 66, 83
8, 140792, Note_off_c, 7, 66, 64
8, 140928, Note_on_c, 7, 67, 90
8, 141184, Note_off_c, 7, 67, 64
8, 141312, Note_on_c, 7, 69, 89
8, 141596, Note_off_c, 7, 69, 64
8, 141696, Note_on_c, 7, 67, 89
8, 141932, Note_off_c, 7, 67, 64
8, 142080, Note_on_c, 7, 66, 81
8, 142324, Note_off_c, 7, 66, 64
8, 142464, Note_on_c, 7, 64, 82
8, 142708, Note_off_c, 7, 64, 64
8, 142848, Note_on_c, 7, 64, 79
8, 142872, Pitch_bend_c, 7, 9444
8, 142888, Pitch_bend_c, 7, 11757
8, 142900, Pitch_bend_c, 7, 13621
8, 142912, Pitch_bend_c, 7, 14809
8, 142924, Pitch_bend_c, 7, 15066
8, 142940, Pitch_bend_c, 7, 14167
8, 142952, Pitch_bend_c, 7, 12368
8, 142968, Pitch_bend_c, 7, 10151
8, 142980, Pitch_bend_c, 7, 9091
8, 142992, Pitch_bend_c, 7, 8545
8, 143008, Pitch_bend_c, 7, 8256
8, 143020, Pitch_bend_c, 7, 8192
8, 143128, Note_off_c, 7, 64, 64
8, 143232, Note_on_c, 7, 63, 78
8, 143448, Note_off_c, 7, 63, 64
8, 143616, Note_on_c, 7, 64, 77
8, 143812, Note_off_c, 7, 64, 64
8, 144000, Note_on_c, 7, 66, 81
8, 144244, Note_off_c, 7, 66, 64
8, 144384, Note_on_c, 7, 64, 79
8, 144616, Note_off_c, 7, 64, 64
8, 144768, Note_on_c, 7, 63, 77
8, 144792, Pitch_bend_c, 7, 9444
8, 144808, Pitch_bend_c, 7, 11757
8, 144820, Pitch_bend_c, 7, 13621
8, 144832, Pitch_bend_c, 7, 14809
8, 144844, Pitch_bend_c, 7, 15066
8, 144860, Pitch_bend_c, 7, 14167
8, 144872, Pitch_bend_c, 7, 12368
8, 144888, Pitch_bend_c, 7, 10151
8, 144900, Pitch_bend_c, 7, 9091
8, 144912, Pitch_bend_c, 7, 8545
8, 144928, Pitch_bend_c, 7, 8256
8, 144940, Pitch_bend_c, 7, 8192
8, 144968, Note_off_c, 7, 63, 64
8, 145152, Note_on_c, 7, 61, 72
8, 145200, Note_off_c, 7, 61, 64
8, 145248, Note_on_c, 7, 63, 81
8, 145772, Note_off_c, 7, 63, 64
8, 146304, Note_on_c, 7, 64, 85
8, 146500, Note_off_c, 7, 64, 64
8, 146688, Note_on_c, 7, 66, 83
8, 146936, Note_off_c, 7, 66, 64
8, 147072, Note_on_c, 7, 67, 90
8, 147328, Note_off_c, 7, 67, 64
8, 147456, Note_on_c, 7, 69, 89
8, 147740, Note_off_c, 7, 69, 64
8, 147840, Note_on_c, 7, 67, 89
8, 148076, Note_off_c, 7, 67, 64
8, 148224, Note_on_c, 7, 66, 81
8, 148468, Note_off_c, 7, 66, 64
8, 148608, Note_on_c, 7, 64, 82
8, 148852, Note_off_c, 7, 64, 64
8, 148992, Note_on_c, 7, 64, 79
8, 149016, Pitch_bend_c, 7, 9444
8, 149032, Pitch_bend_c, 7, 11757
8, 149044, Pitch_bend_c, 7, 13621
8, 149056, Pitch_bend_c, 7, 14809
8, 149068, Pitch_bend_c, 7, 15066
8, 149084, Pitch_bend_c, 7, 14167
8, 149096, Pitch_bend_c, 7, 12368
8, 149112, Pitch_bend_c, 7, 10151
8, 149124, Pitch_bend_c, 7, 9091
8, 149136, Pitch_bend_c, 7, 8545
8, 149152, Pitch_bend_c, 7, 8256
8, 149164, Pitch_bend_c, 7, 8192
8, 149272, Note_off_c, 7, 64, 64
8, 149376, Note_on_c, 7, 63, 78
8, 149592, Note_off_c, 7, 63, 64
8, 149760, Note_on_c, 7, 64, 77
8, 149956, Note_off_c, 7, 64, 64
8, 150144, Note_on_c, 7, 66, 81
8, 150388, Note_off_c, 7, 66, 64
8, 150528, Note_on_c, 7, 64, 79
8, 150760, Note_off_c, 7, 64, 64
8, 150912, Note_on_c, 7, 63, 77
8, 150936, Pitch_bend_c, 7, 9444
8, 150952, Pitch_bend_c, 7, 11757
8, 150964, Pitch_bend_c, 7, 13621
8, 150976, Pitch_bend_c, 7, 14809
8, 150988, Pitch_bend_c, 7, 15066
8, 151004, Pitch_bend_c, 7, 14167
8, 151016, Pitch_bend_c, 7, 12368
8, 151032, Pitch_bend_c, 7, 10151
8, 151044, Pitch_bend_c, 7, 9091
8, 151056, Pitch_bend_c, 7, 8545
8, 151072, Pitch_bend_c, 7, 8256
8, 151084, Pitch_bend_c, 7, 8192
8, 151112, Note_off_c, 7, 63, 64
8, 151296, Note_on_c, 7, 61, 72
8, 151344, Note_off_c, 7, 61, 64
8, 151392, Note_on_c, 7, 63, 81
8, 151916, Note_off_c, 7, 63, 64
8, 152448, Note_on_c, 7, 64, 85
8, 152644, Note_off_c, 7, 64, 64
8, 152832, Note_on_c, 7, 66, 83
8, 153080, Note_off_c, 7, 66, 64
8, 153216, Note_on_c, 7, 67, 90
8, 153472, Note_off_c, 7, 67, 64
8, 153600, Note_on_c, 7, 69, 89
8, 153884, Note_off_c, 7, 69, 64
8, 153984, Note_on_c, 7, 67, 89
8, 154220, Note_off_c, 7, 67, 64
8, 154368, Note_on_c, 7, 66, 81
8, 154612, Note_off_c, 7, 66, 64
8, 154752, Note_on_c, 7, 64, 82
8, 154996, Note_off_c, 7, 64, 64
8, 155136, Note_on_c, 7, 64, 79
8, 155160, Pitch_bend_c, 7, 9444
8, 155176, Pitch_bend_c, 7, 11757
8, 155188, Pitch_bend_c, 7, 13621
8, 155200, Pitch_bend_c, 7, 14809
8, 155212, Pitch_bend_c, 7, 15066
8, 155228, Pitch_bend_c, 7, 14167
8, 155240, Pitch_bend_c, 7, 12368
8, 155256, Pitch_bend_c, 7, 10151
8, 155268, Pitch_bend_c, 7, 9091
8, 155280, Pitch_bend_c, 7, 8545
8, 155296, Pitch_bend_c, 7, 8256
8, 155308, Pitch_bend_c, 7, 8192
8, 155416, Note_off_c, 7, 64, 64
8, 155520, Note_on_c, 7, 63, 78
8, 155736, Note_off_c, 7, 63, 64
8, 155904, Note_on_c, 7, 64, 77
8, 156100, Note_off_c, 7, 64, 64
8, 156288, Note_on_c, 7, 66, 81
8, 156532, Note_off_c, 7, 66, 64
8, 156672, Note_on_c, 7, 64, 79
8, 156904, Note_off_c, 7, 64, 64
8, 157056, Note_on_c, 7, 63, 77
8, 157080, Pitch_bend_c, 7, 9444
8, 157096, Pitch_bend_c, 7, 11757
8, 157108, Pitch_bend_c, 7, 13621
8, 157120, Pitch_bend_c, 7, 14809
8, 157132, Pitch_bend_c, 7, 15066
8, 157148, Pitch_bend_c, 7, 14167
8, 157160, Pitch_bend_c, 7, 12368
8, 157176, Pitch_bend_c, 7, 10151
8, 157188, Pitch_bend_c, 7, 9091
8, 157200, Pitch_bend_c, 7, 8545
8, 157216, Pitch_bend_c, 7, 8256
8, 157228, Pitch_bend_c, 7, 8192
8, 157256, Note_off_c, 7, 63, 64
8, 157440, Note_on_c, 7, 61, 72
8, 157488, Note_off_c, 7, 61, 64
8, 157536, Note_on_c, 7, 63, 81
8, 158060, Note_off_c, 7, 63, 64
8, 158592, Note_on_c, 7, 64, 85
8, 158788, Note_off_c, 7, 64, 64
8, 158976, Note_on_c, 7, 66, 83
8, 159224, Note_off_c, 7, 66, 64
8, 159360, Note_on_c, 7, 67, 90
8, 159616, Note_off_c, 7, 67, 64
8, 159744, Note_on_c, 7, 69, 89
8, 160028, Note_off_c, 7, 69, 64
8, 160128, Note_on_c, 7, 67, 89
8, 160364, Note_off_c, 7, 67, 64
8, 160512, Note_on_c, 7, 66, 81
8, 160756, Note_off_c, 7, 66, 64
8, 160896, Note_on_c, 7, 64, 82
8, 161140, Note_off_c, 7, 64, 64
8, 161280, Note_on_c, 7, 64, 79
8, 161304, Pitch_bend_c, 7, 9444
8, 161320, Pitch_bend_c, 7, 11757
8, 161332, Pitch_bend_c, 7, 13621
8, 161344, Pitch_bend_c, 7, 14809
8, 161356, Pitch_bend_c, 7, 15066
8, 161372, Pitch_bend_c, 7, 14167
8, 161384, Pitch_bend_c, 7, 12368
8, 161400, Pitch_bend_c, 7, 10151
8, 161412, Pitch_bend_c, 7, 9091
8, 161424, Pitch_bend_c, 7, 8545
8, 161440, Pitch_bend_c, 7, 8256
8, 161452, Pitch_bend_c, 7, 8192
8, 161560, Note_off_c, 7, 64, 64
8, 161664, Note_on_c, 7, 63, 78
8, 161880, Note_off_c, 7, 63, 64
8, 162048, Note_on_c, 7, 64, 77
8, 162244, Note_off_c, 7, 64, 64
8, 162432, Note_on_c, 7, 66, 81
8, 162676, Note_off_c, 7, 66, 64
8, 162816, Note_on_c, 7, 64, 79
8, 163048, Note_off_c, 7, 64, 64
8, 163200, Note_on_c, 7, 63, 77
8, 163224, Pitch_bend_c, 7, 9444
8, 163240, Pitch_bend_c, 7, 11757
8, 163252, Pitch_bend_c, 7, 13621
8, 163264, Pitch_bend_c, 7, 14809
8, 163276, Pitch_bend_c, 7, 15066
8, 163292, Pitch_bend_c, 7, 14167
8, 163304, Pitch_bend_c, 7, 12368
8, 163320, Pitch_bend_c, 7, 10151
8, 163332, Pitch_bend_c, 7, 9091
8, 163344, Pitch_bend_c, 7, 8545
8, 163360, Pitch_bend_c, 7, 8256
8, 163372, Pitch_bend_c, 7, 8192
8, 163400, Note_off_c, 7, 63, 64
8, 163584, Note_on_c, 7, 61, 72
8, 163632, Note_off_c, 7, 61, 64
8, 163680, Note_on_c, 7, 63, 81
8, 164204, Note_off_c, 7, 63, 64
8, 164352, Control_c, 7, 11, 126
8, 164496, Control_c, 7, 11, 125
8, 164592, Control_c, 7, 11, 124
8, 164688, Control_c, 7, 11, 123
8, 164736, Note_on_c, 7, 64, 85
8, 164784, Control_c, 7, 11, 122
8, 164880, Control_c, 7, 11, 121
8, 164932, Note_off_c, 7, 64, 64
8, 164976, Control_c, 7, 11, 120
8, 165072, Control_c, 7, 11, 119
8, 165120, Note_on_c, 7, 66, 83
8, 165168, Control_c, 7, 11, 118
8, 165264, Control_c, 7, 11, 117
8, 165360, Control_c, 7, 11, 116
8, 165368, Note_off_c, 7, 66, 64
8, 165456, Control_c, 7, 11, 115
8, 165504, Note_on_c, 7, 67, 90
8, 165552, Control_c, 7, 11, 114
8, 165648, Control_c, 7, 11, 113
8, 165744, Control_c, 7, 11, 112
8, 165760, Note_off_c, 7, 67, 64
8, 165840, Control_c, 7, 11, 111
8, 165888, Note_on_c, 7, 69, 89
8, 165936, Control_c, 7, 11, 110
8, 166032, Control_c, 7, 11, 109
8, 166128, Control_c, 7, 11, 108
8, 166172, Note_off_c, 7, 69, 64
8, 166224, Control_c, 7, 11, 107
8, 166272, Note_on_c, 7, 67, 89
8, 166320, Control_c, 7, 11, 106
8, 166416, Control_c, 7, 11, 105
8, 166508, Note_off_c, 7, 67, 64
8, 166512, Control_c, 7, 11, 104
8, 166608, Control_c, 7, 11, 103
8, 166656, Note_on_c, 7, 66, 81
8, 166704, Control_c, 7, 11, 102
8, 166800, Control_c, 7, 11, 101
8, 166896, Control_c, 7, 11, 100
8, 166900, Note_off_c, 7, 66, 64
8, 166992, Control_c, 7, 11, 99
8, 167040, Note_on_c, 7, 64, 82
8, 167088, Control_c, 7, 11, 98
8, 167184, Control_c, 7, 11, 97
8, 167280, Control_c, 7, 11, 96
8, 167284, Note_off_c, 7, 64, 64
8, 167376, Control_c, 7, 11, 95
8, 167424, Note_on_c, 7, 64, 79
8, 167448, Pitch_bend_c, 7, 9444
8, 167464, Pitch_bend_c, 7, 11757
8, 167472, Control_c, 7, 11, 94
8, 167476, Pitch_bend_c, 7, 13621
8, 167488, Pitch_bend_c, 7, 14809
8, 167500, Pitch_bend_c, 7, 15066
8, 167516, Pitch_bend_c, 7, 14167
8, 167528, Pitch_bend_c, 7, 12368
8, 167544, Pitch_bend_c, 7, 10151
8, 167556, Pitch_bend_c, 7, 9091
8, 167568, Control_c, 7, 11, 93
8, 167568, Pitch_bend_c, 7, 8545
8, 167584, Pitch_bend_c, 7, 8256
8, 167596, Pitch_bend_c, 7, 8192
8, 167664, Control_c, 7, 11, 92
8, 167704, Note_off_c, 7, 64, 64
8, 167760, Control_c, 7, 11, 91
8, 167808, Note_on_c, 7, 63, 78
8, 167856, Control_c, 7, 11, 90
8, 167952, Control_c, 7, 11, 89
8, 168024, Note_off_c, 7, 63, 64
8, 168048, Control_c, 7, 11, 88
8, 168144, Control_c, 7, 11, 87
8, 168192, Note_on_c, 7, 64, 77
8, 168240, Control_c, 7, 11, 86
8, 168336, Control_c, 7, 11, 85
8, 168388, Note_off_c, 7, 64, 64
8, 168432, Control_c, 7, 11, 84
8, 168528, Control_c, 7, 11, 83
8, 168576, Note_on_c, 7, 66, 81
8, 168624, Control_c, 7, 11, 82
8, 168720, Control_c, 7, 11, 81
8, 168816, Control_c, 7, 11, 80
8, 168820, Note_off_c, 7, 66, 64
8, 168912, Control_c, 7, 11, 79
8, 168960, Note_on_c, 7, 64, 79
8, 169008, Control_c, 7, 11, 78
8, 169104, Control_c, 7, 11, 77
8, 169192, Note_off_c, 7, 64, 64
8, 169200, Control_c, 7, 11, 76
8, 169296, Control_c, 7, 11, 75
8, 169344, Note_on_c, 7, 63, 77
8, 169368, Pitch_bend_c, 7, 9444
8, 169384, Pitch_bend_c, 7, 11757
8, 169392, Control_c, 7, 11, 74
8, 169396, Pitch_bend_c, 7, 13621
8, 169408, Pitch_bend_c, 7, 14809
8, 169420, Pitch_bend_c, 7, 15066
8, 169436, Pitch_bend_c, 7, 14167
8, 169448, Pitch_bend_c, 7, 12368
8, 169464, Pitch_bend_c, 7, 10151
8, 169476, Pitch_bend_c, 7, 9091
8, 169488, Control_c, 7, 11, 73
8, 169488, Pitch_bend_c, 7, 8545
8, 169504, Pitch_bend_c, 7, 8256
8, 169516, Pitch_bend_c, 7, 8192
8, 169544, Note_off_c, 7, 63, 64
8, 169584, Control_c, 7, 11, 72
8, 169680, Control_c, 7, 11, 71
8, 169728, Note_on_c, 7, 61, 72
8, 169776, Note_off_c, 7, 61, 64
8, 169776, Control_c, 7, 11, 70
8, 169824, Note_on_c, 7, 63, 81
8, 169872, Control_c, 7, 11, 69
8, 169968, Control_c, 7, 11, 68
8, 170064, Control_c, 7, 11, 67
8, 170160, Control_c, 7, 11, 66
8, 170256, Control_c, 7, 11, 65
8, 170348, Note_off_c, 7, 63, 64
8, 170352, Control_c, 7, 11, 64
8, 170448, Control_c, 7, 11, 63
8, 170544, Control_c, 7, 11, 62
8, 170688, Control_c, 7, 11, 61
8, 170784, Control_c, 7, 11, 60
8, 170880, Control_c, 7, 11, 59
8, 170880, Note_on_c, 7, 64, 85
8, 170976, Control_c, 7, 11, 58
8, 171072, Control_c, 7, 11, 57
8, 171076, Note_off_c, 7, 64, 64
8, 171168, Control_c, 7, 11, 56
8, 171264, Control_c, 7, 11, 55
8, 171264, Note_on_c, 7, 66, 83
8, 171360, Control_c, 7, 11, 54
8, 171456, Control_c, 7, 11, 53
8, 171512, Note_off_c, 7, 66, 64
8, 171552, Control_c, 7, 11, 52
8, 171648, Control_c, 7, 11, 51
8, 171648, Note_on_c, 7, 67, 90
8, 171744, Control_c, 7, 11, 50
8, 171840, Control_c, 7, 11, 49
8, 171904, Note_off_c, 7, 67, 64
8, 171936, Control_c, 7, 11, 48
8, 172032, Control_c, 7, 11, 47
8, 172032, Note_on_c, 7, 69, 89
8, 172128, Control_c, 7, 11, 46
8, 172224, Control_c, 7, 11, 45
8, 172316, Note_off_c, 7, 69, 64
8, 172320, Control_c, 7, 11, 44
8, 172416, Control_c, 7, 11, 43
8, 172416, Note_on_c, 7, 67, 89
8, 172512, Control_c, 7, 11, 42
8, 172608, Control_c, 7, 11, 41
8, 172652, Note_off_c, 7, 67, 64
8, 172704, Control_c, 7, 11, 40
8, 172800, Control_c, 7, 11, 39
8, 172800, Note_on_c, 7, 66, 81
8, 172896, Control_c, 7, 11, 38
8, 172992, Control_c, 7, 11, 37
8, 173044, Note_off_c, 7, 66, 64
8, 173088, Control_c, 7, 11, 36
8, 173184, Control_c, 7, 11, 35
8, 173184, Note_on_c, 7, 64, 82
8, 173280, Control_c, 7, 11, 34
8, 173376, Control_c, 7, 11, 33
8, 173428, Note_off_c, 7, 64, 64
8, 173472, Control_c, 7, 11, 32
8, 173568, Control_c, 7, 11, 31
8, 173568, Note_on_c, 7, 64, 79
8, 173592, Pitch_bend_c, 7, 9444
8, 173608, Pitch_bend_c, 7, 11757
8, 173620, Pitch_bend_c, 7, 13621
8, 173632, Pitch_bend_c, 7, 14809
8, 173644, Pitch_bend_c, 7, 15066
8, 173660, Pitch_bend_c, 7, 14167
8, 173664, Control_c, 7, 11, 30
8, 173672, Pitch_bend_c, 7, 12368
8, 173688, Pitch_bend_c, 7, 10151
8, 173700, Pitch_bend_c, 7, 9091
8, 173712, Pitch_bend_c, 7, 8545
8, 173728, Pitch_bend_c, 7, 8256
8, 173740, Pitch_bend_c, 7, 8192
8, 173760, Control_c, 7, 11, 29
8, 173848, Note_off_c, 7, 64, 64
8, 173856, Control_c, 7, 11, 28
8, 173952, Control_c, 7, 11, 27
8, 173952, Note_on_c, 7, 63, 78
8, 174048, Control_c, 7, 11, 26
8, 174144, Control_c, 7, 11, 25
8, 174168, Note_off_c, 7, 63, 64
8, 174240, Control_c, 7, 11, 24
8, 174336, Control_c, 7, 11, 23
8, 174336, Note_on_c, 7, 64, 77
8, 174432, Control_c, 7, 11, 22
8, 174528, Control_c, 7, 11, 21
8, 174532, Note_off_c, 7, 64, 64
8, 174624, Control_c, 7, 11, 20
8, 174720, Control_c, 7, 11, 19
8, 174720, Note_on_c, 7, 66, 81
8, 174816, Control_c, 7, 11, 18
8, 174912, Control_c, 7, 11, 17
8, 174964, Note_off_c, 7, 66, 64
8, 175008, Control_c, 7, 11, 16
8, 175104, Control_c, 7, 11, 15
8, 175104, Note_on_c, 7, 64, 79
8, 175200, Control_c, 7, 11, 14
8, 175296, Control_c, 7, 11, 13
8, 175336, Note_off_c, 7, 64, 64
8, 175392, Control_c, 7, 11, 12
8, 175488, Control_c, 7, 11, 11
8, 175488, Note_on_c, 7, 63, 77
8, 175512, Pitch_bend_c, 7, 9444
8, 175528, Pitch_bend_c, 7, 11757
8, 175540, Pitch_bend_c, 7, 13621
8, 175552, Pitch_bend_c, 7, 14809
8, 175564, Pitch_bend_c, 7, 15066
8, 175580, Pitch_bend_c, 7, 14167
8, 175584, Control_c, 7, 11, 10
8, 175592, Pitch_bend_c, 7, 12368
8, 175608, Pitch_bend_c, 7, 10151
8, 175620, Pitch_bend_c, 7, 9091
8, 175632, Pitch_bend_c, 7, 8545
8, 175648, Pitch_bend_c, 7, 8256
8, 175660, Pitch_bend_c, 7, 8192
8, 175680, Control_c, 7, 11, 9
8, 175688, Note_off_c, 7, 63, 64
8, 175776, Control_c, 7, 11, 8
8, 175872, Control_c, 7, 11, 7
8, 175872, Note_on_c, 7, 61, 72
8, 175920, Note_off_c, 7, 61, 64
8, 175968, Control_c, 7, 11, 6
8, 175968, Note_on_c, 7, 63, 81
8, 176064, Control_c, 7, 11, 5
8, 176160, Control_c, 7, 11, 4
8, 176256, Control_c, 7, 11, 3
8, 176352, Control_c, 7, 11, 2
8, 176448, Control_c, 7, 11, 1
8, 176492, Note_off_c, 7, 63, 64
8, 176544, Control_c, 7, 11, 0
8, 176640, End_track
9, 0, Start_track
9, 0, Title_t, "MIDI"
9, 0, Control_c, 8, 7, 85
9, 0, Program_c, 8, 30
9, 552, Program_c, 8, 30
9, 556, Control_c, 8, 7, 85
9, 556, Control_c, 8, 10, 54
9, 556, Control_c, 8, 11, 127
9, 560, Control_c, 8, 91, 80
9, 560, Control_c, 8, 93, 0
9, 29568, Note_on_c, 8, 64, 98
9, 29568, Note_on_c, 8, 67, 102
9, 29568, Note_on_c, 8, 59, 96
9, 29628, Note_off_c, 8, 59, 64
9, 29628, Note_off_c, 8, 67, 64
9, 29632, Note_off_c, 8, 64, 64
9, 29952, Note_on_c, 8, 66, 88
9, 29952, Note_on_c, 8, 57, 100
9, 29952, Note_on_c, 8, 62, 95
9, 30320, Note_off_c, 8, 62, 64
9, 30320, Note_off_c, 8, 57, 64
9, 30320, Note_off_c, 8, 66, 64
9, 30912, Note_on_c, 8, 55, 100
9, 30912, Note_on_c, 8, 62, 95
9, 30912, Note_on_c, 8, 59, 92
9, 30964, Note_off_c, 8, 59, 64
9, 30964, Note_off_c, 8, 55, 64
9, 30984, Note_off_c, 8, 62, 64
9, 31488, Note_on_c, 8, 66, 89
9, 31488, Note_on_c, 8, 57, 105
9, 31488, Note_on_c, 8, 62, 99
9, 31856, Note_off_c, 8, 62, 64
9, 31856, Note_off_c, 8, 57, 64
9, 31912, Note_off_c, 8, 66, 64
9, 32640, Note_on_c, 8, 67, 97
9, 32640, Note_on_c, 8, 59, 87
9, 32640, Note_on_c, 8, 64, 81
9, 32684, Note_off_c, 8, 64, 64
9, 32688, Note_off_c, 8, 59, 64
9, 32692, Note_off_c, 8, 67, 64
9, 33024, Note_on_c, 8, 67, 95
9, 33024, Note_on_c, 8, 59, 92
9, 33024, Note_on_c, 8, 64, 84
9, 33152, Note_off_c, 8, 67, 64
9, 33216, Note_on_c, 8, 67, 90
9, 33300, Note_off_c, 8, 67, 64
9, 33324, Note_off_c, 8, 64, 64
9, 33324, Note_off_c, 8, 59, 64
9, 33600, Note_on_c, 8, 64, 81
9, 33600, Note_on_c, 8, 67, 81
9, 33600, Note_on_c, 8, 59, 81
9, 33644, Note_off_c, 8, 59, 64
9, 33644, Note_off_c, 8, 67, 64
9, 33644, Note_off_c, 8, 64, 64
9, 34176, Note_on_c, 8, 67, 97
9, 34176, Note_on_c, 8, 59, 87
9, 34176, Note_on_c, 8, 64, 81
9, 34220, Note_off_c, 8, 64, 64
9, 34224, Note_off_c, 8, 59, 64
9, 34228, Note_off_c, 8, 67, 64
9, 34560, Note_on_c, 8, 67, 95
9, 34560, Note_on_c, 8, 59, 92
9, 34560, Note_on_c, 8, 64, 84
9, 34688, Note_off_c, 8, 67, 64
9, 34752, Note_on_c, 8, 67, 90
9, 34836, Note_off_c, 8, 67, 64
9, 34860, Note_off_c, 8, 64, 64
9, 34860, Note_off_c, 8, 59, 64
9, 35712, Note_on_c, 8, 64, 98
9, 35712, Note_on_c, 8, 67, 102
9, 35712, Note_on_c, 8, 59, 96
9, 35772, Note_off_c, 8, 59, 64
9, 35772, Note_off_c, 8, 67, 64
9, 35776, Note_off_c, 8, 64, 64
9, 36096, Note_on_c, 8, 66, 88
9, 36096, Note_on_c, 8, 57, 100
9, 36096, Note_on_c, 8, 62, 95
9, 36464, Note_off_c, 8, 62, 64
9, 36464, Note_off_c, 8, 57, 64
9, 36464, Note_off_c, 8, 66, 64
9, 37056, Note_on_c, 8, 55, 100
9, 37056, Note_on_c, 8, 62, 95
9, 37056, Note_on_c, 8, 59, 92
9, 37108, Note_off_c, 8, 59, 64
9, 37108, Note_off_c, 8, 55, 64
9, 37128, Note_off_c, 8, 62, 64
9, 37632, Note_on_c, 8, 66, 89
9, 37632, Note_on_c, 8, 57, 105
9, 37632, Note_on_c, 8, 62, 99
9, 38000, Note_off_c, 8, 62, 64
9, 38000, Note_off_c, 8, 57, 64
9, 38056, Note_off_c, 8, 66, 64
9, 38400, Note_on_c, 8, 57, 46
9, 38784, Note_on_c, 8, 69, 102
9, 38784, Note_on_c, 8, 64, 90
9, 38876, Note_off_c, 8, 64, 64
9, 38896, Note_off_c, 8, 69, 64
9, 39168, Note_off_c, 8, 57, 64
9, 39168, Note_on_c, 8, 69, 101
9, 39168, Note_on_c, 8, 64, 92
9, 39264, Note_on_c, 8, 57, 44
9, 39292, Note_off_c, 8, 69, 64
9, 39304, Note_off_c, 8, 64, 64
9, 39316, Note_off_c, 8, 57, 64
9, 39360, Note_on_c, 8, 69, 90
9, 39360, Note_on_c, 8, 64, 83
9, 39572, Note_off_c, 8, 69, 64
9, 39600, Note_off_c, 8, 64, 64
9, 39744, Note_on_c, 8, 64, 39
9, 39744, Note_on_c, 8, 59, 74
9, 39792, Note_off_c, 8, 64, 64
9, 39920, Note_off_c, 8, 59, 64
9, 39936, Note_on_c, 8, 59, 74
9, 40320, Note_on_c, 8, 71, 100
9, 40484, Note_off_c, 8, 71, 64
9, 40704, Note_on_c, 8, 71, 98
9, 40704, Note_on_c, 8, 66, 89
9, 40784, Note_off_c, 8, 66, 64
9, 40832, Note_off_c, 8, 71, 64
9, 40896, Note_on_c, 8, 71, 85
9, 40896, Note_on_c, 8, 66, 75
9, 41024, Note_off_c, 8, 66, 64
9, 41072, Note_off_c, 8, 59, 64
9, 41084, Note_off_c, 8, 71, 64
9, 53760, Note_on_c, 8, 52, 90
9, 54144, Note_on_c, 8, 64, 93
9, 54144, Note_on_c, 8, 67, 101
9, 54144, Note_on_c, 8, 59, 92
9, 54160, Note_off_c, 8, 52, 64
9, 54236, Note_off_c, 8, 67, 64
9, 54236, Note_off_c, 8, 64, 64
9, 54252, Note_off_c, 8, 59, 64
9, 54528, Note_on_c, 8, 66, 92
9, 54528, Note_on_c, 8, 57, 100
9, 54528, Note_on_c, 8, 62, 92
9, 54940, Note_off_c, 8, 57, 64
9, 55024, Note_off_c, 8, 66, 64
9, 55068, Note_off_c, 8, 62, 64
9, 55296, Note_on_c, 8, 67, 101
9, 55296, Note_on_c, 8, 62, 99
9, 55296, Note_on_c, 8, 59, 93
9, 55616, Note_off_c, 8, 59, 64
9, 55664, Note_off_c, 8, 62, 64
9, 55732, Note_off_c, 8, 67, 64
9, 56064, Note_on_c, 8, 66, 86
9, 56064, Note_on_c, 8, 57, 100
9, 56064, Note_on_c, 8, 62, 91
9, 56432, Note_off_c, 8, 57, 64
9, 56480, Note_off_c, 8, 62, 64
9, 56528, Note_off_c, 8, 66, 64
9, 57216, Note_on_c, 8, 67, 101
9, 57216, Note_on_c, 8, 59, 92
9, 57216, Note_on_c, 8, 64, 82
9, 57268, Note_off_c, 8, 59, 64
9, 57276, Note_off_c, 8, 64, 64
9, 57284, Note_off_c, 8, 67, 64
9, 57600, Note_on_c, 8, 59, 90
9, 57600, Note_on_c, 8, 64, 90
9, 57600, Note_on_c, 8, 67, 100
9, 57680, Note_off_c, 8, 64, 64
9, 57740, Note_off_c, 8, 67, 64
9, 57792, Note_on_c, 8, 64, 65
9, 57792, Note_on_c, 8, 67, 95
9, 57920, Note_off_c, 8, 67, 64
9, 57920, Note_off_c, 8, 64, 64
9, 57928, Note_off_c, 8, 59, 64
9, 58176, Note_on_c, 8, 67, 99
9, 58176, Note_on_c, 8, 64, 90
9, 58176, Note_on_c, 8, 59, 94
9, 58488, Note_off_c, 8, 59, 64
9, 58544, Note_off_c, 8, 67, 64
9, 58560, Note_on_c, 8, 66, 75
9, 58668, Note_off_c, 8, 64, 64
9, 58692, Note_off_c, 8, 66, 64
9, 58752, Note_on_c, 8, 67, 94
9, 58752, Note_on_c, 8, 64, 70
9, 58752, Note_on_c, 8, 59, 71
9, 58860, Note_off_c, 8, 59, 64
9, 58872, Note_off_c, 8, 67, 64
9, 58944, Note_on_c, 8, 69, 88
9, 59040, Note_off_c, 8, 64, 64
9, 59060, Note_off_c, 8, 69, 64
9, 59136, Note_on_c, 8, 67, 95
9, 59136, Note_on_c, 8, 64, 62
9, 59136, Note_on_c, 8, 59, 84
9, 59324, Note_off_c, 8, 67, 64
9, 59328, Note_on_c, 8, 66, 66
9, 59384, Note_off_c, 8, 59, 64
9, 59404, Note_off_c, 8, 64, 64
9, 59488, Note_off_c, 8, 66, 64
9, 59520, Note_on_c, 8, 67, 90
9, 59520, Note_on_c, 8, 64, 71
9, 59612, Note_off_c, 8, 64, 64
9, 59616, Note_off_c, 8, 67, 64
9, 59712, Note_on_c, 8, 67, 92
9, 59712, Note_on_c, 8, 64, 84
9, 59832, Note_off_c, 8, 64, 64
9, 59848, Note_off_c, 8, 67, 64
9, 59904, Note_on_c, 8, 52, 84
9, 60240, Note_off_c, 8, 52, 64
9, 60288, Note_on_c, 8, 67, 100
9, 60288, Note_on_c, 8, 64, 94
9, 60288, Note_on_c, 8, 59, 89
9, 60376, Note_off_c, 8, 64, 64
9, 60376, Note_off_c, 8, 67, 64
9, 60388, Note_off_c, 8, 59, 64
9, 60672, Note_on_c, 8, 66, 94
9, 60672, Note_on_c, 8, 57, 100
9, 60672, Note_on_c, 8, 62, 93
9, 60940, Note_off_c, 8, 57, 64
9, 61056, Note_on_c, 8, 57, 53
9, 61120, Note_off_c, 8, 57, 64
9, 61248, Note_on_c, 8, 57, 68
9, 61316, Note_off_c, 8, 62, 64
9, 61364, Note_off_c, 8, 57, 64
9, 61368, Note_off_c, 8, 66, 64
9, 61440, Note_on_c, 8, 52, 59
9, 61504, Note_off_c, 8, 52, 64
9, 61824, Note_on_c, 8, 67, 101
9, 61824, Note_on_c, 8, 59, 96
9, 61824, Note_on_c, 8, 62, 98
9, 61920, Note_off_c, 8, 62, 64
9, 61940, Note_off_c, 8, 67, 64
9, 61944, Note_off_c, 8, 59, 64
9, 62208, Note_on_c, 8, 66, 88
9, 62208, Note_on_c, 8, 62, 92
9, 62208, Note_on_c, 8, 57, 98
9, 62640, Note_off_c, 8, 57, 64
9, 62672, Note_off_c, 8, 62, 64
9, 62728, Note_off_c, 8, 66, 64
9, 62976, Note_on_c, 8, 57, 46
9, 63360, Note_on_c, 8, 69, 102
9, 63360, Note_on_c, 8, 64, 90
9, 63452, Note_off_c, 8, 64, 64
9, 63472, Note_off_c, 8, 69, 64
9, 63744, Note_off_c, 8, 57, 64
9, 63744, Note_on_c, 8, 69, 101
9, 63744, Note_on_c, 8, 64, 92
9, 63840, Note_on_c, 8, 57, 44
9, 63868, Note_off_c, 8, 69, 64
9, 63880, Note_off_c, 8, 64, 64
9, 63892, Note_off_c, 8, 57, 64
9, 63936, Note_on_c, 8, 69, 90
9, 63936, Note_on_c, 8, 64, 83
9, 64148, Note_off_c, 8, 69, 64
9, 64176, Note_off_c, 8, 64, 64
9, 64320, Note_on_c, 8, 64, 39
9, 64320, Note_on_c, 8, 59, 74
9, 64368, Note_off_c, 8, 64, 64
9, 64896, Note_on_c, 8, 66, 94
9, 64896, Note_on_c, 8, 71, 100
9, 65052, Note_off_c, 8, 66, 64
9, 65060, Note_off_c, 8, 71, 64
9, 65280, Note_on_c, 8, 71, 98
9, 65280, Note_on_c, 8, 66, 89
9, 65408, Note_off_c, 8, 66, 64
9, 65408, Note_off_c, 8, 71, 64
9, 65472, Note_on_c, 8, 71, 85
9, 65472, Note_on_c, 8, 66, 75
9, 65648, Note_off_c, 8, 66, 64
9, 65648, Note_off_c, 8, 59, 64
9, 65660, Note_off_c, 8, 71, 64
9, 78336, Note_on_c, 8, 52, 90
9, 78720, Note_on_c, 8, 64, 93
9, 78720, Note_on_c, 8, 67, 101
9, 78720, Note_on_c, 8, 59, 92
9, 78736, Note_off_c, 8, 52, 64
9, 78812, Note_off_c, 8, 67, 64
9, 78812, Note_off_c, 8, 64, 64
9, 78828, Note_off_c, 8, 59, 64
9, 79104, Note_on_c, 8, 66, 92
9, 79104, Note_on_c, 8, 57, 100
9, 79104, Note_on_c, 8, 62, 92
9, 79516, Note_off_c, 8, 57, 64
9, 79600, Note_off_c, 8, 66, 64
9, 79644, Note_off_c, 8, 62, 64
9, 80256, Note_on_c, 8, 62, 99
9, 80256, Note_on_c, 8, 59, 93
9, 80256, Note_on_c, 8, 67, 101
9, 80384, Note_off_c, 8, 59, 64
9, 80384, Note_off_c, 8, 62, 64
9, 80432, Note_off_c, 8, 67, 64
9, 80640, Note_on_c, 8, 66, 86
9, 80640, Note_on_c, 8, 57, 100
9, 80640, Note_on_c, 8, 62, 91
9, 81008, Note_off_c, 8, 57, 64
9, 81056, Note_off_c, 8, 62, 64
9, 81104, Note_off_c, 8, 66, 64
9, 81792, Note_on_c, 8, 67, 101
9, 81792, Note_on_c, 8, 59, 92
9, 81792, Note_on_c, 8, 64, 82
9, 81844, Note_off_c, 8, 59, 64
9, 81852, Note_off_c, 8, 64, 64
9, 81860, Note_off_c, 8, 67, 64
9, 82176, Note_on_c, 8, 59, 90
9, 82176, Note_on_c, 8, 64, 90
9, 82176, Note_on_c, 8, 67, 100
9, 82256, Note_off_c, 8, 64, 64
9, 82316, Note_off_c, 8, 67, 64
9, 82368, Note_on_c, 8, 64, 65
9, 82368, Note_on_c, 8, 67, 95
9, 82496, Note_off_c, 8, 67, 64
9, 82496, Note_off_c, 8, 64, 64
9, 82504, Note_off_c, 8, 59, 64
9, 82752, Note_on_c, 8, 67, 99
9, 82752, Note_on_c, 8, 64, 90
9, 82752, Note_on_c, 8, 59, 94
9, 83064, Note_off_c, 8, 59, 64
9, 83120, Note_off_c, 8, 67, 64
9, 83136, Note_on_c, 8, 66, 75
9, 83244, Note_off_c, 8, 64, 64
9, 83268, Note_off_c, 8, 66, 64
9, 83328, Note_on_c, 8, 67, 94
9, 83328, Note_on_c, 8, 64, 70
9, 83328, Note_on_c, 8, 59, 71
9, 83436, Note_off_c, 8, 59, 64
9, 83448, Note_off_c, 8, 67, 64
9, 83520, Note_on_c, 8, 69, 88
9, 83616, Note_off_c, 8, 64, 64
9, 83636, Note_off_c, 8, 69, 64
9, 83712, Note_on_c, 8, 67, 95
9, 83712, Note_on_c, 8, 64, 62
9, 83712, Note_on_c, 8, 59, 84
9, 83900, Note_off_c, 8, 67, 64
9, 83904, Note_on_c, 8, 66, 66
9, 83960, Note_off_c, 8, 59, 64
9, 83980, Note_off_c, 8, 64, 64
9, 84064, Note_off_c, 8, 66, 64
9, 84096, Note_on_c, 8, 67, 90
9, 84096, Note_on_c, 8, 64, 71
9, 84188, Note_off_c, 8, 64, 64
9, 84192, Note_off_c, 8, 67, 64
9, 84288, Note_on_c, 8, 67, 92
9, 84288, Note_on_c, 8, 64, 84
9, 84408, Note_off_c, 8, 64, 64
9, 84424, Note_off_c, 8, 67, 64
9, 84480, Note_on_c, 8, 52, 84
9, 84816, Note_off_c, 8, 52, 64
9, 84864, Note_on_c, 8, 67, 100
9, 84864, Note_on_c, 8, 64, 94
9, 84864, Note_on_c, 8, 59, 89
9, 84952, Note_off_c, 8, 64, 64
9, 84952, Note_off_c, 8, 67, 64
9, 84964, Note_off_c, 8, 59, 64
9, 85248, Note_on_c, 8, 66, 94
9, 85248, Note_on_c, 8, 57, 100
9, 85248, Note_on_c, 8, 62, 93
9, 85516, Note_off_c, 8, 57, 64
9, 85632, Note_on_c, 8, 57, 53
9, 85696, Note_off_c, 8, 57, 64
9, 85824, Note_on_c, 8, 57, 68
9, 85892, Note_off_c, 8, 62, 64
9, 85940, Note_off_c, 8, 57, 64
9, 85944, Note_off_c, 8, 66, 64
9, 86016, Note_on_c, 8, 52, 59
9, 86080, Note_off_c, 8, 52, 64
9, 86400, Note_on_c, 8, 67, 101
9, 86400, Note_on_c, 8, 59, 96
9, 86400, Note_on_c, 8, 62, 98
9, 86496, Note_off_c, 8, 62, 64
9, 86516, Note_off_c, 8, 67, 64
9, 86520, Note_off_c, 8, 59, 64
9, 86784, Note_on_c, 8, 66, 88
9, 86784, Note_on_c, 8, 62, 92
9, 86784, Note_on_c, 8, 57, 98
9, 87216, Note_off_c, 8, 57, 64
9, 87248, Note_off_c, 8, 62, 64
9, 87304, Note_off_c, 8, 66, 64
9, 87552, Note_on_c, 8, 57, 46
9, 87936, Note_on_c, 8, 69, 102
9, 87936, Note_on_c, 8, 64, 90
9, 88028, Note_off_c, 8, 64, 64
9, 88048, Note_off_c, 8, 69, 64
9, 88320, Note_off_c, 8, 57, 64
9, 88320, Note_on_c, 8, 69, 101
9, 88320, Note_on_c, 8, 64, 92
9, 88416, Note_on_c, 8, 57, 44
9, 88444, Note_off_c, 8, 69, 64
9, 88456, Note_off_c, 8, 64, 64
9, 88468, Note_off_c, 8, 57, 64
9, 88512, Note_on_c, 8, 69, 90
9, 88512, Note_on_c, 8, 64, 83
9, 88724, Note_off_c, 8, 69, 64
9, 88752, Note_off_c, 8, 64, 64
9, 88896, Note_on_c, 8, 64, 39
9, 88896, Note_on_c, 8, 59, 74
9, 88944, Note_off_c, 8, 64, 64
9, 89472, Note_on_c, 8, 66, 94
9, 89472, Note_on_c, 8, 71, 100
9, 89628, Note_off_c, 8, 66, 64
9, 89636, Note_off_c, 8, 71, 64
9, 89856, Note_on_c, 8, 71, 98
9, 89856, Note_on_c, 8, 66, 89
9, 89936, Note_off_c, 8, 66, 64
9, 89936, Note_off_c, 8, 71, 64
9, 90048, Note_on_c, 8, 71, 85
9, 90048, Note_on_c, 8, 66, 75
9, 90224, Note_off_c, 8, 66, 64
9, 90224, Note_off_c, 8, 59, 64
9, 90236, Note_off_c, 8, 71, 64
9, 102912, Note_on_c, 8, 52, 90
9, 103296, Note_on_c, 8, 64, 93
9, 103296, Note_on_c, 8, 67, 101
9, 103296, Note_on_c, 8, 59, 92
9, 103312, Note_off_c, 8, 52, 64
9, 103388, Note_off_c, 8, 67, 64
9, 103388, Note_off_c, 8, 64, 64
9, 103404, Note_off_c, 8, 59, 64
9, 103680, Note_on_c, 8, 66, 92
9, 103680, Note_on_c, 8, 57, 100
9, 103680, Note_on_c, 8, 62, 92
9, 104092, Note_off_c, 8, 57, 64
9, 104176, Note_off_c, 8, 66, 64
9, 104220, Note_off_c, 8, 62, 64
9, 104832, Note_on_c, 8, 62, 99
9, 104832, Note_on_c, 8, 59, 93
9, 104832, Note_on_c, 8, 67, 101
9, 104960, Note_off_c, 8, 59, 64
9, 104960, Note_off_c, 8, 62, 64
9, 105008, Note_off_c, 8, 67, 64
9, 105216, Note_on_c, 8, 66, 86
9, 105216, Note_on_c, 8, 57, 100
9, 105216, Note_on_c, 8, 62, 91
9, 105584, Note_off_c, 8, 57, 64
9, 105632, Note_off_c, 8, 62, 64
9, 105680, Note_off_c, 8, 66, 64
9, 106368, Note_on_c, 8, 67, 101
9, 106368, Note_on_c, 8, 59, 92
9, 106368, Note_on_c, 8, 64, 82
9, 106420, Note_off_c, 8, 59, 64
9, 106428, Note_off_c, 8, 64, 64
9, 106436, Note_off_c, 8, 67, 64
9, 106752, Note_on_c, 8, 59, 90
9, 106752, Note_on_c, 8, 64, 90
9, 106752, Note_on_c, 8, 67, 100
9, 106832, Note_off_c, 8, 64, 64
9, 106892, Note_off_c, 8, 67, 64
9, 106944, Note_on_c, 8, 64, 65
9, 106944, Note_on_c, 8, 67, 95
9, 107072, Note_off_c, 8, 67, 64
9, 107072, Note_off_c, 8, 64, 64
9, 107080, Note_off_c, 8, 59, 64
9, 107328, Note_on_c, 8, 67, 99
9, 107328, Note_on_c, 8, 64, 90
9, 107328, Note_on_c, 8, 59, 94
9, 107640, Note_off_c, 8, 59, 64
9, 107696, Note_off_c, 8, 67, 64
9, 107712, Note_on_c, 8, 66, 75
9, 107820, Note_off_c, 8, 64, 64
9, 107844, Note_off_c, 8, 66, 64
9, 107904, Note_on_c, 8, 67, 94
9, 107904, Note_on_c, 8, 64, 70
9, 107904, Note_on_c, 8, 59, 71
9, 108012, Note_off_c, 8, 59, 64
9, 108024, Note_off_c, 8, 67, 64
9, 108096, Note_on_c, 8, 69, 88
9, 108192, Note_off_c, 8, 64, 64
9, 108212, Note_off_c, 8, 69, 64
9, 108288, Note_on_c, 8, 67, 95
9, 108288, Note_on_c, 8, 64, 62
9, 108288, Note_on_c, 8, 59, 84
9, 108476, Note_off_c, 8, 67, 64
9, 108480, Note_on_c, 8, 66, 66
9, 108536, Note_off_c, 8, 59, 64
9, 108556, Note_off_c, 8, 64, 64
9, 108640, Note_off_c, 8, 66, 64
9, 108672, Note_on_c, 8, 67, 90
9, 108672, Note_on_c, 8, 64, 71
9, 108764, Note_off_c, 8, 64, 64
9, 108768, Note_off_c, 8, 67, 64
9, 108864, Note_on_c, 8, 67, 92
9, 108864, Note_on_c, 8, 64, 84
9, 108984, Note_off_c, 8, 64, 64
9, 109000, Note_off_c, 8, 67, 64
9, 109056, Note_on_c, 8, 52, 84
9, 109392, Note_off_c, 8, 52, 64
9, 109440, Note_on_c, 8, 67, 100
9, 109440, Note_on_c, 8, 64, 94
9, 109440, Note_on_c, 8, 59, 89
9, 109528, Note_off_c, 8, 64, 64
9, 109528, Note_off_c, 8, 67, 64
9, 109540, Note_off_c, 8, 59, 64
9, 109824, Note_on_c, 8, 66, 94
9, 109824, Note_on_c, 8, 57, 100
9, 109824, Note_on_c, 8, 62, 93
9, 110092, Note_off_c, 8, 57, 64
9, 110208, Note_on_c, 8, 57, 53
9, 110272, Note_off_c, 8, 57, 64
9, 110400, Note_on_c, 8, 57, 68
9, 110468, Note_off_c, 8, 62, 64
9, 110516, Note_off_c, 8, 57, 64
9, 110520, Note_off_c, 8, 66, 64
9, 110592, Note_on_c, 8, 52, 59
9, 110656, Note_off_c, 8, 52, 64
9, 110976, Note_on_c, 8, 67, 101
9, 110976, Note_on_c, 8, 59, 96
9, 110976, Note_on_c, 8, 62, 98
9, 111072, Note_off_c, 8, 62, 64
9, 111092, Note_off_c, 8, 67, 64
9, 111096, Note_off_c, 8, 59, 64
9, 111360, Note_on_c, 8, 66, 88
9, 111360, Note_on_c, 8, 62, 92
9, 111360, Note_on_c, 8, 57, 98
9, 111792, Note_off_c, 8, 57, 64
9, 111824, Note_off_c, 8, 62, 64
9, 111880, Note_off_c, 8, 66, 64
9, 112128, Note_on_c, 8, 57, 46
9, 112512, Note_on_c, 8, 69, 102
9, 112512, Note_on_c, 8, 64, 90
9, 112604, Note_off_c, 8, 64, 64
9, 112624, Note_off_c, 8, 69, 64
9, 112896, Note_off_c, 8, 57, 64
9, 112896, Note_on_c, 8, 69, 101
9, 112896, Note_on_c, 8, 64, 92
9, 112992, Note_on_c, 8, 57, 44
9, 113020, Note_off_c, 8, 69, 64
9, 113032, Note_off_c, 8, 64, 64
9, 113044, Note_off_c, 8, 57, 64
9, 113088, Note_on_c, 8, 69, 90
9, 113088, Note_on_c, 8, 64, 83
9, 113300, Note_off_c, 8, 69, 64
9, 113328, Note_off_c, 8, 64, 64
9, 113472, Note_on_c, 8, 64, 39
9, 113472, Note_on_c, 8, 59, 74
9, 113520, Note_off_c, 8, 64, 64
9, 114048, Note_on_c, 8, 66, 94
9, 114048, Note_on_c, 8, 71, 100
9, 114204, Note_off_c, 8, 66, 64
9, 114212, Note_off_c, 8, 71, 64
9, 114432, Note_on_c, 8, 71, 98
9, 114432, Note_on_c, 8, 66, 89
9, 114512, Note_off_c, 8, 66, 64
9, 114560, Note_off_c, 8, 71, 64
9, 114624, Note_on_c, 8, 71, 85
9, 114624, Note_on_c, 8, 66, 75
9, 114800, Note_off_c, 8, 66, 64
9, 114800, Note_off_c, 8, 59, 64
9, 114812, Note_off_c, 8, 71, 64
9, 127488, Note_on_c, 8, 52, 90
9, 127872, Note_on_c, 8, 64, 93
9, 127872, Note_on_c, 8, 67, 101
9, 127872, Note_on_c, 8, 59, 92
9, 127888, Note_off_c, 8, 52, 64
9, 127964, Note_off_c, 8, 67, 64
9, 127964, Note_off_c, 8, 64, 64
9, 127980, Note_off_c, 8, 59, 64
9, 128256, Note_on_c, 8, 66, 92
9, 128256, Note_on_c, 8, 57, 100
9, 128256, Note_on_c, 8, 62, 92
9, 128668, Note_off_c, 8, 57, 64
9, 128752, Note_off_c, 8, 66, 64
9, 128796, Note_off_c, 8, 62, 64
9, 129408, Note_on_c, 8, 62, 99
9, 129408, Note_on_c, 8, 59, 93
9, 129408, Note_on_c, 8, 67, 101
9, 129536, Note_off_c, 8, 59, 64
9, 129536, Note_off_c, 8, 62, 64
9, 129584, Note_off_c, 8, 67, 64
9, 129792, Note_on_c, 8, 66, 86
9, 129792, Note_on_c, 8, 57, 100
9, 129792, Note_on_c, 8, 62, 91
9, 130160, Note_off_c, 8, 57, 64
9, 130208, Note_off_c, 8, 62, 64
9, 130256, Note_off_c, 8, 66, 64
9, 130944, Note_on_c, 8, 67, 101
9, 130944, Note_on_c, 8, 59, 92
9, 130944, Note_on_c, 8, 64, 82
9, 130996, Note_off_c, 8, 59, 64
9, 131004, Note_off_c, 8, 64, 64
9, 131012, Note_off_c, 8, 67, 64
9, 131328, Note_on_c, 8, 59, 90
9, 131328, Note_on_c, 8, 64, 90
9, 131328, Note_on_c, 8, 67, 100
9, 131408, Note_off_c, 8, 64, 64
9, 131468, Note_off_c, 8, 67, 64
9, 131520, Note_on_c, 8, 64, 65
9, 131520, Note_on_c, 8, 67, 95
9, 131648, Note_off_c, 8, 67, 64
9, 131648, Note_off_c, 8, 64, 64
9, 131656, Note_off_c, 8, 59, 64
9, 131904, Note_on_c, 8, 67, 99
9, 131904, Note_on_c, 8, 64, 90
9, 131904, Note_on_c, 8, 59, 94
9, 132216, Note_off_c, 8, 59, 64
9, 132272, Note_off_c, 8, 67, 64
9, 132288, Note_on_c, 8, 66, 75
9, 132396, Note_off_c, 8, 64, 64
9, 132420, Note_off_c, 8, 66, 64
9, 132480, Note_on_c, 8, 67, 94
9, 132480, Note_on_c, 8, 64, 70
9, 132480, Note_on_c, 8, 59, 71
9, 132588, Note_off_c, 8, 59, 64
9, 132600, Note_off_c, 8, 67, 64
9, 132672, Note_on_c, 8, 69, 88
9, 132768, Note_off_c, 8, 64, 64
9, 132788, Note_off_c, 8, 69, 64
9, 132864, Note_on_c, 8, 67, 95
9, 132864, Note_on_c, 8, 64, 62
9, 132864, Note_on_c, 8, 59, 84
9, 133052, Note_off_c, 8, 67, 64
9, 133056, Note_on_c, 8, 66, 66
9, 133112, Note_off_c, 8, 59, 64
9, 133132, Note_off_c, 8, 64, 64
9, 133216, Note_off_c, 8, 66, 64
9, 133248, Note_on_c, 8, 67, 90
9, 133248, Note_on_c, 8, 64, 71
9, 133340, Note_off_c, 8, 64, 64
9, 133344, Note_off_c, 8, 67, 64
9, 133440, Note_on_c, 8, 67, 92
9, 133440, Note_on_c, 8, 64, 84
9, 133560, Note_off_c, 8, 64, 64
9, 133576, Note_off_c, 8, 67, 64
9, 133632, Note_on_c, 8, 52, 84
9, 133968, Note_off_c, 8, 52, 64
9, 134016, Note_on_c, 8, 67, 100
9, 134016, Note_on_c, 8, 64, 94
9, 134016, Note_on_c, 8, 59, 89
9, 134104, Note_off_c, 8, 64, 64
9, 134104, Note_off_c, 8, 67, 64
9, 134116, Note_off_c, 8, 59, 64
9, 134400, Note_on_c, 8, 66, 94
9, 134400, Note_on_c, 8, 57, 100
9, 134400, Note_on_c, 8, 62, 93
9, 134668, Note_off_c, 8, 57, 64
9, 134784, Note_on_c, 8, 57, 53
9, 134848, Note_off_c, 8, 57, 64
9, 134976, Note_on_c, 8, 57, 68
9, 135044, Note_off_c, 8, 62, 64
9, 135092, Note_off_c, 8, 57, 64
9, 135096, Note_off_c, 8, 66, 64
9, 135168, Note_on_c, 8, 52, 59
9, 135232, Note_off_c, 8, 52, 64
9, 135552, Note_on_c, 8, 67, 101
9, 135552, Note_on_c, 8, 59, 96
9, 135552, Note_on_c, 8, 62, 98
9, 135648, Note_off_c, 8, 62, 64
9, 135668, Note_off_c, 8, 67, 64
9, 135672, Note_off_c, 8, 59, 64
9, 135936, Note_on_c, 8, 66, 88
9, 135936, Note_on_c, 8, 62, 92
9, 135936, Note_on_c, 8, 57, 98
9, 136368, Note_off_c, 8, 57, 64
9, 136400, Note_off_c, 8, 62, 64
9, 136456, Note_off_c, 8, 66, 64
9, 136704, Note_on_c, 8, 57, 46
9, 137088, Note_on_c, 8, 69, 102
9, 137088, Note_on_c, 8, 64, 90
9, 137180, Note_off_c, 8, 64, 64
9, 137200, Note_off_c, 8, 69, 64
9, 137472, Note_off_c, 8, 57, 64
9, 137472, Note_on_c, 8, 69, 101
9, 137472, Note_on_c, 8, 64, 92
9, 137568, Note_on_c, 8, 57, 44
9, 137596, Note_off_c, 8, 69, 64
9, 137608, Note_off_c, 8, 64, 64
9, 137620, Note_off_c, 8, 57, 64
9, 137664, Note_on_c, 8, 69, 90
9, 137664, Note_on_c, 8, 64, 83
9, 137876, Note_off_c, 8, 69, 64
9, 137904, Note_off_c, 8, 64, 64
9, 138048, Note_on_c, 8, 64, 39
9, 138048, Note_on_c, 8, 59, 74
9, 138096, Note_off_c, 8, 64, 64
9, 138624, Note_on_c, 8, 66, 94
9, 138624, Note_on_c, 8, 71, 100
9, 138780, Note_off_c, 8, 66, 64
9, 138788, Note_off_c, 8, 71, 64
9, 139008, Note_on_c, 8, 71, 98
9, 139008, Note_on_c, 8, 66, 89
9, 139088, Note_off_c, 8, 66, 64
9, 139136, Note_off_c, 8, 71, 64
9, 139200, Note_on_c, 8, 71, 85
9, 139200, Note_on_c, 8, 66, 75
9, 139376, Note_off_c, 8, 66, 64
9, 139376, Note_off_c, 8, 59, 64
9, 139388, Note_off_c, 8, 71, 64
9, 158592, Note_on_c, 8, 67, 100
9, 158592, Note_on_c, 8, 64, 83
9, 158680, Note_off_c, 8, 67, 64
9, 158692, Note_off_c, 8, 64, 64
9, 158976, Note_on_c, 8, 67, 93
9, 158976, Note_on_c, 8, 64, 78
9, 159152, Note_off_c, 8, 67, 64
9, 159168, Note_on_c, 8, 67, 92
9, 159312, Note_off_c, 8, 67, 64
9, 159364, Note_off_c, 8, 64, 64
9, 159552, Note_on_c, 8, 67, 94
9, 159552, Note_on_c, 8, 64, 81
9, 159984, Note_off_c, 8, 67, 64
9, 159992, Note_off_c, 8, 64, 64
9, 160128, Note_on_c, 8, 64, 72
9, 160128, Note_on_c, 8, 67, 92
9, 160248, Note_off_c, 8, 67, 64
9, 160260, Note_off_c, 8, 64, 64
9, 160512, Note_on_c, 8, 64, 79
9, 160512, Note_on_c, 8, 67, 95
9, 160612, Note_off_c, 8, 67, 64
9, 160624, Note_off_c, 8, 64, 64
9, 160704, Note_on_c, 8, 64, 71
9, 160704, Note_on_c, 8, 67, 91
9, 160868, Note_off_c, 8, 67, 64
9, 160868, Note_off_c, 8, 64, 64
9, 161088, Note_on_c, 8, 71, 87
9, 161088, Note_on_c, 8, 66, 84
9, 161536, Note_off_c, 8, 66, 64
9, 161544, Note_off_c, 8, 71, 64
9, 161664, Note_on_c, 8, 66, 84
9, 161664, Note_on_c, 8, 71, 87
9, 161808, Note_off_c, 8, 66, 64
9, 161820, Note_off_c, 8, 71, 64
9, 162048, Note_on_c, 8, 66, 86
9, 162048, Note_on_c, 8, 71, 88
9, 162152, Note_off_c, 8, 66, 64
9, 162168, Note_off_c, 8, 71, 64
9, 162240, Note_on_c, 8, 71, 78
9, 162240, Note_on_c, 8, 66, 78
9, 162364, Note_off_c, 8, 66, 64
9, 162388, Note_off_c, 8, 71, 64
9, 162624, Note_on_c, 8, 71, 92
9, 162624, Note_on_c, 8, 66, 88
9, 163084, Note_off_c, 8, 66, 64
9, 163096, Note_off_c, 8, 71, 64
9, 163200, Note_on_c, 8, 71, 85
9, 163200, Note_on_c, 8, 66, 83
9, 163308, Note_off_c, 8, 66, 64
9, 163340, Note_off_c, 8, 71, 64
9, 163584, Note_on_c, 8, 71, 87
9, 163584, Note_on_c, 8, 66, 86
9, 163688, Note_off_c, 8, 66, 64
9, 163704, Note_off_c, 8, 71, 64
9, 163776, Note_on_c, 8, 71, 89
9, 163776, Note_on_c, 8, 66, 90
9, 163888, Note_off_c, 8, 66, 64
9, 163924, Note_off_c, 8, 71, 64
9, 164352, Control_c, 8, 11, 126
9, 164496, Control_c, 8, 11, 125
9, 164592, Control_c, 8, 11, 124
9, 164688, Control_c, 8, 11, 123
9, 164736, Note_on_c, 8, 67, 100
9, 164736, Note_on_c, 8, 64, 83
9, 164784, Control_c, 8, 11, 122
9, 164824, Note_off_c, 8, 67, 64
9, 164836, Note_off_c, 8, 64, 64
9, 164880, Control_c, 8, 11, 121
9, 164976, Control_c, 8, 11, 120
9, 165072, Control_c, 8, 11, 119
9, 165120, Note_on_c, 8, 67, 93
9, 165120, Note_on_c, 8, 64, 78
9, 165168, Control_c, 8, 11, 118
9, 165264, Control_c, 8, 11, 117
9, 165296, Note_off_c, 8, 67, 64
9, 165312, Note_on_c, 8, 67, 92
9, 165360, Control_c, 8, 11, 116
9, 165456, Note_off_c, 8, 67, 64
9, 165456, Control_c, 8, 11, 115
9, 165508, Note_off_c, 8, 64, 64
9, 165552, Control_c, 8, 11, 114
9, 165648, Control_c, 8, 11, 113
9, 165696, Note_on_c, 8, 67, 94
9, 165696, Note_on_c, 8, 64, 81
9, 165744, Control_c, 8, 11, 112
9, 165840, Control_c, 8, 11, 111
9, 165936, Control_c, 8, 11, 110
9, 166032, Control_c, 8, 11, 109
9, 166128, Note_off_c, 8, 67, 64
9, 166128, Control_c, 8, 11, 108
9, 166136, Note_off_c, 8, 64, 64
9, 166224, Control_c, 8, 11, 107
9, 166272, Note_on_c, 8, 64, 72
9, 166272, Note_on_c, 8, 67, 92
9, 166320, Control_c, 8, 11, 106
9, 166392, Note_off_c, 8, 67, 64
9, 166404, Note_off_c, 8, 64, 64
9, 166416, Control_c, 8, 11, 105
9, 166512, Control_c, 8, 11, 104
9, 166608, Control_c, 8, 11, 103
9, 166656, Note_on_c, 8, 64, 79
9, 166656, Note_on_c, 8, 67, 95
9, 166704, Control_c, 8, 11, 102
9, 166756, Note_off_c, 8, 67, 64
9, 166768, Note_off_c, 8, 64, 64
9, 166800, Control_c, 8, 11, 101
9, 166848, Note_on_c, 8, 64, 71
9, 166848, Note_on_c, 8, 67, 91
9, 166896, Control_c, 8, 11, 100
9, 166992, Control_c, 8, 11, 99
9, 167012, Note_off_c, 8, 67, 64
9, 167012, Note_off_c, 8, 64, 64
9, 167088, Control_c, 8, 11, 98
9, 167184, Control_c, 8, 11, 97
9, 167232, Note_on_c, 8, 71, 87
9, 167232, Note_on_c, 8, 66, 84
9, 167280, Control_c, 8, 11, 96
9, 167376, Control_c, 8, 11, 95
9, 167472, Control_c, 8, 11, 94
9, 167568, Control_c, 8, 11, 93
9, 167664, Control_c, 8, 11, 92
9, 167680, Note_off_c, 8, 66, 64
9, 167688, Note_off_c, 8, 71, 64
9, 167760, Control_c, 8, 11, 91
9, 167808, Note_on_c, 8, 66, 84
9, 167808, Note_on_c, 8, 71, 87
9, 167856, Control_c, 8, 11, 90
9, 167952, Note_off_c, 8, 66, 64
9, 167952, Control_c, 8, 11, 89
9, 167964, Note_off_c, 8, 71, 64
9, 168048, Control_c, 8, 11, 88
9, 168144, Control_c, 8, 11, 87
9, 168192, Note_on_c, 8, 66, 86
9, 168192, Note_on_c, 8, 71, 88
9, 168240, Control_c, 8, 11, 86
9, 168296, Note_off_c, 8, 66, 64
9, 168312, Note_off_c, 8, 71, 64
9, 168336, Control_c, 8, 11, 85
9, 168384, Note_on_c, 8, 71, 78
9, 168384, Note_on_c, 8, 66, 78
9, 168432, Control_c, 8, 11, 84
9, 168508, Note_off_c, 8, 66, 64
9, 168528, Control_c, 8, 11, 83
9, 168532, Note_off_c, 8, 71, 64
9, 168624, Control_c, 8, 11, 82
9, 168720, Control_c, 8, 11, 81
9, 168768, Note_on_c, 8, 71, 92
9, 168768, Note_on_c, 8, 66, 88
9, 168816, Control_c, 8, 11, 80
9, 168912, Control_c, 8, 11, 79
9, 169008, Control_c, 8, 11, 78
9, 169104, Control_c, 8, 11, 77
9, 169200, Control_c, 8, 11, 76
9, 169228, Note_off_c, 8, 66, 64
9, 169240, Note_off_c, 8, 71, 64
9, 169296, Control_c, 8, 11, 75
9, 169344, Note_on_c, 8, 71, 85
9, 169344, Note_on_c, 8, 66, 83
9, 169392, Control_c, 8, 11, 74
9, 169452, Note_off_c, 8, 66, 64
9, 169484, Note_off_c, 8, 71, 64
9, 169488, Control_c, 8, 11, 73
9, 169584, Control_c, 8, 11, 72
9, 169680, Control_c, 8, 11, 71
9, 169728, Note_on_c, 8, 71, 87
9, 169728, Note_on_c, 8, 66, 86
9, 169776, Control_c, 8, 11, 70
9, 169832, Note_off_c, 8, 66, 64
9, 169848, Note_off_c, 8, 71, 64
9, 169872, Control_c, 8, 11, 69
9, 169920, Note_on_c, 8, 71, 89
9, 169920, Note_on_c, 8, 66, 90
9, 169968, Control_c, 8, 11, 68
9, 170032, Note_off_c, 8, 66, 64
9, 170064, Control_c, 8, 11, 67
9, 170068, Note_off_c, 8, 71, 64
9, 170160, Control_c, 8, 11, 66
9, 170256, Control_c, 8, 11, 65
9, 170352, Control_c, 8, 11, 64
9, 170448, Control_c, 8, 11, 63
9, 170544, Control_c, 8, 11, 62
9, 170688, Control_c, 8, 11, 61
9, 170784, Control_c, 8, 11, 60
9, 170880, Control_c, 8, 11, 59
9, 170880, Note_on_c, 8, 67, 100
9, 170880, Note_on_c, 8, 64, 83
9, 170968, Note_off_c, 8, 67, 64
9, 170976, Control_c, 8, 11, 58
9, 170980, Note_off_c, 8, 64, 64
9, 171072, Control_c, 8, 11, 57
9, 171168, Control_c, 8, 11, 56
9, 171264, Control_c, 8, 11, 55
9, 171264, Note_on_c, 8, 67, 93
9, 171264, Note_on_c, 8, 64, 78
9, 171360, Control_c, 8, 11, 54
9, 171440, Note_off_c, 8, 67, 64
9, 171456, Control_c, 8, 11, 53
9, 171456, Note_on_c, 8, 67, 92
9, 171552, Control_c, 8, 11, 52
9, 171600, Note_off_c, 8, 67, 64
9, 171648, Control_c, 8, 11, 51
9, 171652, Note_off_c, 8, 64, 64
9, 171744, Control_c, 8, 11, 50
9, 171840, Control_c, 8, 11, 49
9, 171840, Note_on_c, 8, 67, 94
9, 171840, Note_on_c, 8, 64, 81
9, 171936, Control_c, 8, 11, 48
9, 172032, Control_c, 8, 11, 47
9, 172128, Control_c, 8, 11, 46
9, 172224, Control_c, 8, 11, 45
9, 172272, Note_off_c, 8, 67, 64
9, 172280, Note_off_c, 8, 64, 64
9, 172320, Control_c, 8, 11, 44
9, 172416, Control_c, 8, 11, 43
9, 172416, Note_on_c, 8, 64, 72
9, 172416, Note_on_c, 8, 67, 92
9, 172512, Control_c, 8, 11, 42
9, 172536, Note_off_c, 8, 67, 64
9, 172548, Note_off_c, 8, 64, 64
9, 172608, Control_c, 8, 11, 41
9, 172704, Control_c, 8, 11, 40
9, 172800, Control_c, 8, 11, 39
9, 172800, Note_on_c, 8, 64, 79
9, 172800, Note_on_c, 8, 67, 95
9, 172896, Control_c, 8, 11, 38
9, 172900, Note_off_c, 8, 67, 64
9, 172912, Note_off_c, 8, 64, 64
9, 172992, Control_c, 8, 11, 37
9, 172992, Note_on_c, 8, 64, 71
9, 172992, Note_on_c, 8, 67, 91
9, 173088, Control_c, 8, 11, 36
9, 173156, Note_off_c, 8, 67, 64
9, 173156, Note_off_c, 8, 64, 64
9, 173184, Control_c, 8, 11, 35
9, 173280, Control_c, 8, 11, 34
9, 173376, Control_c, 8, 11, 33
9, 173376, Note_on_c, 8, 71, 87
9, 173376, Note_on_c, 8, 66, 84
9, 173472, Control_c, 8, 11, 32
9, 173568, Control_c, 8, 11, 31
9, 173664, Control_c, 8, 11, 30
9, 173760, Control_c, 8, 11, 29
9, 173824, Note_off_c, 8, 66, 64
9, 173832, Note_off_c, 8, 71, 64
9, 173856, Control_c, 8, 11, 28
9, 173952, Control_c, 8, 11, 27
9, 173952, Note_on_c, 8, 66, 84
9, 173952, Note_on_c, 8, 71, 87
9, 174048, Control_c, 8, 11, 26
9, 174096, Note_off_c, 8, 66, 64
9, 174108, Note_off_c, 8, 71, 64
9, 174144, Control_c, 8, 11, 25
9, 174240, Control_c, 8, 11, 24
9, 174336, Control_c, 8, 11, 23
9, 174336, Note_on_c, 8, 66, 86
9, 174336, Note_on_c, 8, 71, 88
9, 174432, Control_c, 8, 11, 22
9, 174440, Note_off_c, 8, 66, 64
9, 174456, Note_off_c, 8, 71, 64
9, 174528, Control_c, 8, 11, 21
9, 174528, Note_on_c, 8, 71, 78
9, 174528, Note_on_c, 8, 66, 78
9, 174624, Control_c, 8, 11, 20
9, 174652, Note_off_c, 8, 66, 64
9, 174676, Note_off_c, 8, 71, 64
9, 174720, Control_c, 8, 11, 19
9, 174816, Control_c, 8, 11, 18
9, 174912, Control_c, 8, 11, 17
9, 174912, Note_on_c, 8, 71, 92
9, 174912, Note_on_c, 8, 66, 88
9, 175008, Control_c, 8, 11, 16
9, 175104, Control_c, 8, 11, 15
9, 175200, Control_c, 8, 11, 14
9, 175296, Control_c, 8, 11, 13
9, 175372, Note_off_c, 8, 66, 64
9, 175384, Note_off_c, 8, 71, 64
9, 175392, Control_c, 8, 11, 12
9, 175488, Control_c, 8, 11, 11
9, 175488, Note_on_c, 8, 71, 85
9, 175488, Note_on_c, 8, 66, 83
9, 175584, Control_c, 8, 11, 10
9, 175596, Note_off_c, 8, 66, 64
9, 175628, Note_off_c, 8, 71, 64
9, 175680, Control_c, 8, 11, 9
9, 175776, Control_c, 8, 11, 8
9, 175872, Control_c, 8, 11, 7
9, 175872, Note_on_c, 8, 71, 87
9, 175872, Note_on_c, 8, 66, 86
9, 175968, Control_c, 8, 11, 6
9, 175976, Note_off_c, 8, 66, 64
9, 175992, Note_off_c, 8, 71, 64
9, 176064, Control_c, 8, 11, 5
9, 176064, Note_on_c, 8, 71, 89
9, 176064, Note_on_c, 8, 66, 90
9, 176160, Control_c, 8, 11, 4
9, 176176, Note_off_c, 8, 66, 64
9, 176212, Note_off_c, 8, 71, 64
9, 176256, Control_c, 8, 11, 3
9, 176352, Control_c, 8, 11, 2
9, 176448, Control_c, 8, 11, 1
9, 176544, Control_c, 8, 11, 0
9, 176640, End_track
10, 0, Start_track
10, 0, Title_t, "MIDI"
10, 0, Control_c, 9, 7, 100
10, 576, Control_c, 9, 7, 100
10, 576, Control_c, 9, 11, 127
10, 580, Control_c, 9, 91, 60
10, 580, Control_c, 9, 93, 0
10, 1536, Note_on_c, 9, 44, 122
10, 1540, Note_off_c, 9, 44, 64
10, 1920, Note_on_c, 9, 44, 122
10, 1924, Note_off_c, 9, 44, 64
10, 2304, Note_on_c, 9, 44, 122
10, 2308, Note_off_c, 9, 44, 64
10, 2688, Note_on_c, 9, 44, 122
10, 2692, Note_off_c, 9, 44, 64
10, 10752, Note_on_c, 9, 45, 110
10, 10752, Note_on_c, 9, 40, 117
10, 10752, Note_on_c, 9, 35, 117
10, 10756, Note_off_c, 9, 35, 64
10, 10756, Note_off_c, 9, 40, 92
10, 10756, Note_off_c, 9, 45, 92
10, 10944, Note_on_c, 9, 45, 60
10, 10948, Note_off_c, 9, 45, 92
10, 11136, Note_on_c, 9, 45, 110
10, 11136, Note_on_c, 9, 40, 117
10, 11136, Note_on_c, 9, 35, 117
10, 11140, Note_off_c, 9, 35, 64
10, 11140, Note_off_c, 9, 40, 92
10, 11140, Note_off_c, 9, 45, 92
10, 11328, Note_on_c, 9, 45, 60
10, 11332, Note_off_c, 9, 45, 92
10, 11520, Note_on_c, 9, 45, 110
10, 11520, Note_on_c, 9, 40, 117
10, 11520, Note_on_c, 9, 35, 117
10, 11524, Note_off_c, 9, 35, 64
10, 11524, Note_off_c, 9, 40, 92
10, 11524, Note_off_c, 9, 45, 92
10, 11712, Note_on_c, 9, 45, 60
10, 11716, Note_off_c, 9, 45, 92
10, 11904, Note_on_c, 9, 45, 110
10, 11904, Note_on_c, 9, 40, 117
10, 11904, Note_on_c, 9, 35, 117
10, 11908, Note_off_c, 9, 35, 64
10, 11908, Note_off_c, 9, 40, 92
10, 11908, Note_off_c, 9, 45, 92
10, 12096, Note_on_c, 9, 45, 60
10, 12100, Note_off_c, 9, 45, 92
10, 12288, Note_on_c, 9, 45, 110
10, 12288, Note_on_c, 9, 40, 117
10, 12288, Note_on_c, 9, 35, 117
10, 12292, Note_off_c, 9, 35, 64
10, 12292, Note_off_c, 9, 40, 92
10, 12292, Note_off_c, 9, 45, 92
10, 12480, Note_on_c, 9, 45, 60
10, 12484, Note_off_c, 9, 45, 92
10, 12672, Note_on_c, 9, 45, 110
10, 12672, Note_on_c, 9, 40, 117
10, 12672, Note_on_c, 9, 35, 117
10, 12676, Note_off_c, 9, 35, 64
10, 12676, Note_off_c, 9, 40, 92
10, 12676, Note_off_c, 9, 45, 92
10, 12864, Note_on_c, 9, 45, 60
10, 12868, Note_off_c, 9, 45, 92
10, 13056, Note_on_c, 9, 45, 110
10, 13056, Note_on_c, 9, 40, 117
10, 13056, Note_on_c, 9, 35, 117
10, 13060, Note_off_c, 9, 35, 64
10, 13060, Note_off_c, 9, 40, 92
10, 13060, Note_off_c, 9, 45, 92
10, 13248, Note_on_c, 9, 45, 60
10, 13252, Note_off_c, 9, 45, 92
10, 13440, Note_on_c, 9, 45, 110
10, 13440, Note_on_c, 9, 40, 117
10, 13440, Note_on_c, 9, 35, 117
10, 13444, Note_off_c, 9, 35, 64
10, 13444, Note_off_c, 9, 40, 92
10, 13444, Note_off_c, 9, 45, 92
10, 13632, Note_on_c, 9, 45, 60
10, 13636, Note_off_c, 9, 45, 92
10, 13824, Note_on_c, 9, 45, 110
10, 13824, Note_on_c, 9, 40, 117
10, 13824, Note_on_c, 9, 35, 117
10, 13828, Note_off_c, 9, 35, 64
10, 13828, Note_off_c, 9, 40, 92
10, 13828, Note_off_c, 9, 45, 92
10, 14016, Note_on_c, 9, 45, 60
10, 14020, Note_off_c, 9, 45, 92
10, 14208, Note_on_c, 9, 45, 110
10, 14208, Note_on_c, 9, 40, 117
10, 14208, Note_on_c, 9, 35, 117
10, 14212, Note_off_c, 9, 35, 64
10, 14212, Note_off_c, 9, 40, 92
10, 14212, Note_off_c, 9, 45, 92
10, 14400, Note_on_c, 9, 45, 60
10, 14404, Note_off_c, 9, 45, 92
10, 14592, Note_on_c, 9, 45, 110
10, 14592, Note_on_c, 9, 40, 117
10, 14592, Note_on_c, 9, 35, 117
10, 14596, Note_off_c, 9, 35, 64
10, 14596, Note_off_c, 9, 40, 92
10, 14596, Note_off_c, 9, 45, 92
10, 14784, Note_on_c, 9, 45, 60
10, 14788, Note_off_c, 9, 45, 92
10, 14976, Note_on_c, 9, 45, 110
10, 14976, Note_on_c, 9, 40, 117
10, 14976, Note_on_c, 9, 35, 117
10, 14980, Note_off_c, 9, 35, 64
10, 14980, Note_off_c, 9, 40, 92
10, 14980, Note_off_c, 9, 45, 92
10, 15168, Note_on_c, 9, 45, 60
10, 15172, Note_off_c, 9, 45, 92
10, 15360, Note_on_c, 9, 45, 110
10, 15360, Note_on_c, 9, 40, 117
10, 15360, Note_on_c, 9, 35, 117
10, 15364, Note_off_c, 9, 35, 64
10, 15364, Note_off_c, 9, 40, 92
10, 15364, Note_off_c, 9, 45, 92
10, 15552, Note_on_c, 9, 45, 60
10, 15556, Note_off_c, 9, 45, 92
10, 15744, Note_on_c, 9, 45, 110
10, 15744, Note_on_c, 9, 40, 117
10, 15744, Note_on_c, 9, 35, 117
10, 15748, Note_off_c, 9, 35, 64
10, 15748, Note_off_c, 9, 40, 92
10, 15748, Note_off_c, 9, 45, 92
10, 15936, Note_on_c, 9, 45, 60
10, 15940, Note_off_c, 9, 45, 92
10, 16128, Note_on_c, 9, 45, 110
10, 16128, Note_on_c, 9, 40, 117
10, 16128, Note_on_c, 9, 35, 117
10, 16132, Note_off_c, 9, 35, 64
10, 16132, Note_off_c, 9, 40, 92
10, 16132, Note_off_c, 9, 45, 92
10, 16320, Note_on_c, 9, 45, 60
10, 16324, Note_off_c, 9, 45, 92
10, 16512, Note_on_c, 9, 45, 110
10, 16512, Note_on_c, 9, 40, 117
10, 16512, Note_on_c, 9, 35, 117
10, 16516, Note_off_c, 9, 35, 64
10, 16516, Note_off_c, 9, 40, 92
10, 16516, Note_off_c, 9, 45, 92
10, 16704, Note_on_c, 9, 45, 60
10, 16708, Note_off_c, 9, 45, 92
10, 16896, Note_on_c, 9, 45, 110
10, 16896, Note_on_c, 9, 40, 117
10, 16896, Note_on_c, 9, 35, 117
10, 16896, Note_on_c, 9, 85, 71
10, 16900, Note_off_c, 9, 85, 64
10, 16900, Note_off_c, 9, 35, 64
10, 16900, Note_off_c, 9, 40, 92
10, 16900, Note_off_c, 9, 45, 92
10, 17088, Note_on_c, 9, 45, 60
10, 17088, Note_on_c, 9, 85, 60
10, 17092, Note_off_c, 9, 85, 64
10, 17092, Note_off_c, 9, 45, 92
10, 17184, Note_on_c, 9, 85, 57
10, 17188, Note_off_c, 9, 85, 64
10, 17280, Note_on_c, 9, 45, 110
10, 17280, Note_on_c, 9, 40, 117
10, 17280, Note_on_c, 9, 35, 117
10, 17280, Note_on_c, 9, 85, 66
10, 17284, Note_off_c, 9, 85, 64
10, 17284, Note_off_c, 9, 35, 64
10, 17284, Note_off_c, 9, 40, 92
10, 17284, Note_off_c, 9, 45, 92
10, 17472, Note_on_c, 9, 45, 60
10, 17472, Note_on_c, 9, 85, 63
10, 17476, Note_off_c, 9, 85, 64
10, 17476, Note_off_c, 9, 45, 92
10, 17568, Note_on_c, 9, 85, 55
10, 17572, Note_off_c, 9, 85, 64
10, 17664, Note_on_c, 9, 45, 110
10, 17664, Note_on_c, 9, 40, 117
10, 17664, Note_on_c, 9, 35, 117
10, 17664, Note_on_c, 9, 85, 55
10, 17668, Note_off_c, 9, 85, 64
10, 17668, Note_off_c, 9, 35, 64
10, 17668, Note_off_c, 9, 40, 92
10, 17668, Note_off_c, 9, 45, 92
10, 17856, Note_on_c, 9, 45, 60
10, 17856, Note_on_c, 9, 85, 63
10, 17860, Note_off_c, 9, 85, 64
10, 17860, Note_off_c, 9, 45, 92
10, 17952, Note_on_c, 9, 85, 56
10, 17956, Note_off_c, 9, 85, 64
10, 18048, Note_on_c, 9, 45, 110
10, 18048, Note_on_c, 9, 40, 117
10, 18048, Note_on_c, 9, 35, 117
10, 18048, Note_on_c, 9, 85, 58
10, 18052, Note_off_c, 9, 85, 64
10, 18052, Note_off_c, 9, 35, 64
10, 18052, Note_off_c, 9, 40, 92
10, 18052, Note_off_c, 9, 45, 92
10, 18240, Note_on_c, 9, 45, 60
10, 18240, Note_on_c, 9, 85, 60
10, 18244, Note_off_c, 9, 85, 64
10, 18244, Note_off_c, 9, 45, 92
10, 18336, Note_on_c, 9, 85, 55
10, 18340, Note_off_c, 9, 85, 64
10, 18432, Note_on_c, 9, 45, 110
10, 18432, Note_on_c, 9, 40, 117
10, 18432, Note_on_c, 9, 35, 117
10, 18432, Note_on_c, 9, 85, 71
10, 18436, Note_off_c, 9, 85, 64
10, 18436, Note_off_c, 9, 35, 64
10, 18436, Note_off_c, 9, 40, 92
10, 18436, Note_off_c, 9, 45, 92
10, 18624, Note_on_c, 9, 45, 60
10, 18624, Note_on_c, 9, 85, 60
10, 18628, Note_off_c, 9, 85, 64
10, 18628, Note_off_c, 9, 45, 92
10, 18720, Note_on_c, 9, 85, 57
10, 18724, Note_off_c, 9, 85, 64
10, 18816, Note_on_c, 9, 45, 110
10, 18816, Note_on_c, 9, 40, 117
10, 18816, Note_on_c, 9, 35, 117
10, 18816, Note_on_c, 9, 85, 66
10, 18820, Note_off_c, 9, 85, 64
10, 18820, Note_off_c, 9, 35, 64
10, 18820, Note_off_c, 9, 40, 92
10, 18820, Note_off_c, 9, 45, 92
10, 19008, Note_on_c, 9, 45, 60
10, 19008, Note_on_c, 9, 85, 63
10, 19012, Note_off_c, 9, 85, 64
10, 19012, Note_off_c, 9, 45, 92
10, 19104, Note_on_c, 9, 85, 55
10, 19108, Note_off_c, 9, 85, 64
10, 19200, Note_on_c, 9, 45, 110
10, 19200, Note_on_c, 9, 40, 117
10, 19200, Note_on_c, 9, 35, 117
10, 19200, Note_on_c, 9, 85, 55
10, 19204, Note_off_c, 9, 85, 64
10, 19204, Note_off_c, 9, 35, 64
10, 19204, Note_off_c, 9, 40, 92
10, 19204, Note_off_c, 9, 45, 92
10, 19392, Note_on_c, 9, 45, 60
10, 19392, Note_on_c, 9, 85, 63
10, 19396, Note_off_c, 9, 85, 64
10, 19396, Note_off_c, 9, 45, 92
10, 19488, Note_on_c, 9, 85, 56
10, 19492, Note_off_c, 9, 85, 64
10, 19584, Note_on_c, 9, 45, 110
10, 19584, Note_on_c, 9, 40, 117
10, 19584, Note_on_c, 9, 35, 117
10, 19584, Note_on_c, 9, 85, 58
10, 19588, Note_off_c, 9, 85, 64
10, 19588, Note_off_c, 9, 35, 64
10, 19588, Note_off_c, 9, 40, 92
10, 19588, Note_off_c, 9, 45, 92
10, 19776, Note_on_c, 9, 45, 60
10, 19776, Note_on_c, 9, 85, 60
10, 19780, Note_off_c, 9, 85, 64
10, 19780, Note_off_c, 9, 45, 92
10, 19872, Note_on_c, 9, 85, 55
10, 19876, Note_off_c, 9, 85, 64
10, 19968, Note_on_c, 9, 45, 110
10, 19968, Note_on_c, 9, 40, 117
10, 19968, Note_on_c, 9, 35, 117
10, 19968, Note_on_c, 9, 85, 71
10, 19972, Note_off_c, 9, 85, 64
10, 19972, Note_off_c, 9, 35, 64
10, 19972, Note_off_c, 9, 40, 92
10, 19972, Note_off_c, 9, 45, 92
10, 20160, Note_on_c, 9, 45, 60
10, 20160, Note_on_c, 9, 85, 60
10, 20164, Note_off_c, 9, 85, 64
10, 20164, Note_off_c, 9, 45, 92
10, 20256, Note_on_c, 9, 85, 57
10, 20260, Note_off_c, 9, 85, 64
10, 20352, Note_on_c, 9, 45, 110
10, 20352, Note_on_c, 9, 40, 117
10, 20352, Note_on_c, 9, 35, 117
10, 20352, Note_on_c, 9, 85, 66
10, 20356, Note_off_c, 9, 85, 64
10, 20356, Note_off_c, 9, 35, 64
10, 20356, Note_off_c, 9, 40, 92
10, 20356, Note_off_c, 9, 45, 92
10, 20544, Note_on_c, 9, 45, 60
10, 20544, Note_on_c, 9, 85, 63
10, 20548, Note_off_c, 9, 85, 64
10, 20548, Note_off_c, 9, 45, 92
10, 20640, Note_on_c, 9, 85, 55
10, 20644, Note_off_c, 9, 85, 64
10, 20736, Note_on_c, 9, 45, 110
10, 20736, Note_on_c, 9, 40, 117
10, 20736, Note_on_c, 9, 35, 117
10, 20736, Note_on_c, 9, 85, 55
10, 20740, Note_off_c, 9, 85, 64
10, 20740, Note_off_c, 9, 35, 64
10, 20740, Note_off_c, 9, 40, 92
10, 20740, Note_off_c, 9, 45, 92
10, 20928, Note_on_c, 9, 45, 60
10, 20928, Note_on_c, 9, 85, 63
10, 20932, Note_off_c, 9, 85, 64
10, 20932, Note_off_c, 9, 45, 92
10, 21024, Note_on_c, 9, 85, 56
10, 21028, Note_off_c, 9, 85, 64
10, 21120, Note_on_c, 9, 45, 110
10, 21120, Note_on_c, 9, 40, 117
10, 21120, Note_on_c, 9, 35, 117
10, 21120, Note_on_c, 9, 85, 58
10, 21124, Note_off_c, 9, 85, 64
10, 21124, Note_off_c, 9, 35, 64
10, 21124, Note_off_c, 9, 40, 92
10, 21124, Note_off_c, 9, 45, 92
10, 21312, Note_on_c, 9, 45, 60
10, 21312, Note_on_c, 9, 85, 60
10, 21316, Note_off_c, 9, 85, 64
10, 21316, Note_off_c, 9, 45, 92
10, 21408, Note_on_c, 9, 85, 55
10, 21412, Note_off_c, 9, 85, 64
10, 21504, Note_on_c, 9, 45, 110
10, 21504, Note_on_c, 9, 40, 117
10, 21504, Note_on_c, 9, 35, 117
10, 21504, Note_on_c, 9, 85, 71
10, 21508, Note_off_c, 9, 85, 64
10, 21508, Note_off_c, 9, 35, 64
10, 21508, Note_off_c, 9, 40, 92
10, 21508, Note_off_c, 9, 45, 92
10, 21696, Note_on_c, 9, 45, 60
10, 21696, Note_on_c, 9, 85, 60
10, 21700, Note_off_c, 9, 85, 64
10, 21700, Note_off_c, 9, 45, 92
10, 21792, Note_on_c, 9, 85, 57
10, 21796, Note_off_c, 9, 85, 64
10, 21888, Note_on_c, 9, 45, 110
10, 21888, Note_on_c, 9, 40, 117
10, 21888, Note_on_c, 9, 35, 117
10, 21888, Note_on_c, 9, 85, 66
10, 21892, Note_off_c, 9, 85, 64
10, 21892, Note_off_c, 9, 35, 64
10, 21892, Note_off_c, 9, 40, 92
10, 21892, Note_off_c, 9, 45, 92
10, 22080, Note_on_c, 9, 45, 60
10, 22080, Note_on_c, 9, 85, 63
10, 22084, Note_off_c, 9, 85, 64
10, 22084, Note_off_c, 9, 45, 92
10, 22176, Note_on_c, 9, 85, 55
10, 22180, Note_off_c, 9, 85, 64
10, 22272, Note_on_c, 9, 45, 110
10, 22272, Note_on_c, 9, 40, 117
10, 22272, Note_on_c, 9, 35, 117
10, 22272, Note_on_c, 9, 85, 55
10, 22276, Note_off_c, 9, 85, 64
10, 22276, Note_off_c, 9, 35, 64
10, 22276, Note_off_c, 9, 40, 92
10, 22276, Note_off_c, 9, 45, 92
10, 22464, Note_on_c, 9, 45, 60
10, 22464, Note_on_c, 9, 85, 63
10, 22468, Note_off_c, 9, 85, 64
10, 22468, Note_off_c, 9, 45, 92
10, 22560, Note_on_c, 9, 85, 56
10, 22564, Note_off_c, 9, 85, 64
10, 22656, Note_on_c, 9, 45, 110
10, 22656, Note_on_c, 9, 40, 117
10, 22656, Note_on_c, 9, 35, 117
10, 22656, Note_on_c, 9, 85, 58
10, 22660, Note_off_c, 9, 85, 64
10, 22660, Note_off_c, 9, 35, 64
10, 22660, Note_off_c, 9, 40, 92
10, 22660, Note_off_c, 9, 45, 92
10, 22848, Note_on_c, 9, 45, 60
10, 22848, Note_on_c, 9, 85, 60
10, 22852, Note_off_c, 9, 85, 64
10, 22852, Note_off_c, 9, 45, 92
10, 22944, Note_on_c, 9, 85, 55
10, 22948, Note_off_c, 9, 85, 64
10, 23040, Note_on_c, 9, 45, 110
10, 23040, Note_on_c, 9, 40, 117
10, 23040, Note_on_c, 9, 35, 117
10, 23040, Note_on_c, 9, 85, 71
10, 23044, Note_off_c, 9, 85, 64
10, 23044, Note_off_c, 9, 35, 64
10, 23044, Note_off_c, 9, 40, 92
10, 23044, Note_off_c, 9, 45, 92
10, 23232, Note_on_c, 9, 45, 60
10, 23232, Note_on_c, 9, 85, 60
10, 23236, Note_off_c, 9, 85, 64
10, 23236, Note_off_c, 9, 45, 92
10, 23328, Note_on_c, 9, 85, 57
10, 23332, Note_off_c, 9, 85, 64
10, 23424, Note_on_c, 9, 45, 110
10, 23424, Note_on_c, 9, 40, 117
10, 23424, Note_on_c, 9, 35, 117
10, 23424, Note_on_c, 9, 85, 66
10, 23428, Note_off_c, 9, 85, 64
10, 23428, Note_off_c, 9, 35, 64
10, 23428, Note_off_c, 9, 40, 92
10, 23428, Note_off_c, 9, 45, 92
10, 23616, Note_on_c, 9, 45, 60
10, 23616, Note_on_c, 9, 85, 63
10, 23620, Note_off_c, 9, 85, 64
10, 23620, Note_off_c, 9, 45, 92
10, 23712, Note_on_c, 9, 85, 55
10, 23716, Note_off_c, 9, 85, 64
10, 23808, Note_on_c, 9, 45, 110
10, 23808, Note_on_c, 9, 40, 117
10, 23808, Note_on_c, 9, 35, 117
10, 23808, Note_on_c, 9, 85, 55
10, 23812, Note_off_c, 9, 85, 64
10, 23812, Note_off_c, 9, 35, 64
10, 23812, Note_off_c, 9, 40, 92
10, 23812, Note_off_c, 9, 45, 92
10, 24000, Note_on_c, 9, 45, 60
10, 24000, Note_on_c, 9, 85, 63
10, 24004, Note_off_c, 9, 85, 64
10, 24004, Note_off_c, 9, 45, 92
10, 24096, Note_on_c, 9, 85, 56
10, 24100, Note_off_c, 9, 85, 64
10, 24192, Note_on_c, 9, 45, 110
10, 24192, Note_on_c, 9, 40, 117
10, 24192, Note_on_c, 9, 35, 117
10, 24192, Note_on_c, 9, 85, 58
10, 24196, Note_off_c, 9, 85, 64
10, 24196, Note_off_c, 9, 35, 64
10, 24196, Note_off_c, 9, 40, 92
10, 24196, Note_off_c, 9, 45, 92
10, 24384, Note_on_c, 9, 45, 60
10, 24384, Note_on_c, 9, 85, 60
10, 24388, Note_off_c, 9, 85, 64
10, 24388, Note_off_c, 9, 45, 92
10, 24480, Note_on_c, 9, 85, 55
10, 24484, Note_off_c, 9, 85, 64
10, 24576, Note_on_c, 9, 45, 110
10, 24576, Note_on_c, 9, 40, 117
10, 24576, Note_on_c, 9, 35, 117
10, 24576, Note_on_c, 9, 85, 71
10, 24580, Note_off_c, 9, 85, 64
10, 24580, Note_off_c, 9, 35, 64
10, 24580, Note_off_c, 9, 40, 92
10, 24580, Note_off_c, 9, 45, 92
10, 24768, Note_on_c, 9, 45, 60
10, 24768, Note_on_c, 9, 85, 60
10, 24772, Note_off_c, 9, 85, 64
10, 24772, Note_off_c, 9, 45, 92
10, 24864, Note_on_c, 9, 85, 57
10, 24868, Note_off_c, 9, 85, 64
10, 24960, Note_on_c, 9, 45, 110
10, 24960, Note_on_c, 9, 40, 117
10, 24960, Note_on_c, 9, 35, 117
10, 24960, Note_on_c, 9, 85, 66
10, 24964, Note_off_c, 9, 85, 64
10, 24964, Note_off_c, 9, 35, 64
10, 24964, Note_off_c, 9, 40, 92
10, 24964, Note_off_c, 9, 45, 92
10, 25152, Note_on_c, 9, 45, 60
10, 25152, Note_on_c, 9, 85, 63
10, 25156, Note_off_c, 9, 85, 64
10, 25156, Note_off_c, 9, 45, 92
10, 25248, Note_on_c, 9, 85, 55
10, 25252, Note_off_c, 9, 85, 64
10, 25344, Note_on_c, 9, 45, 110
10, 25344, Note_on_c, 9, 40, 117
10, 25344, Note_on_c, 9, 35, 117
10, 25344, Note_on_c, 9, 85, 55
10, 25348, Note_off_c, 9, 85, 64
10, 25348, Note_off_c, 9, 35, 64
10, 25348, Note_off_c, 9, 40, 92
10, 25348, Note_off_c, 9, 45, 92
10, 25536, Note_on_c, 9, 45, 60
10, 25536, Note_on_c, 9, 85, 63
10, 25540, Note_off_c, 9, 85, 64
10, 25540, Note_off_c, 9, 45, 92
10, 25632, Note_on_c, 9, 85, 56
10, 25636, Note_off_c, 9, 85, 64
10, 25728, Note_on_c, 9, 45, 110
10, 25728, Note_on_c, 9, 40, 117
10, 25728, Note_on_c, 9, 35, 117
10, 25728, Note_on_c, 9, 85, 58
10, 25732, Note_off_c, 9, 85, 64
10, 25732, Note_off_c, 9, 35, 64
10, 25732, Note_off_c, 9, 40, 92
10, 25732, Note_off_c, 9, 45, 92
10, 25920, Note_on_c, 9, 45, 60
10, 25920, Note_on_c, 9, 85, 60
10, 25924, Note_off_c, 9, 85, 64
10, 25924, Note_off_c, 9, 45, 92
10, 26016, Note_on_c, 9, 85, 55
10, 26020, Note_off_c, 9, 85, 64
10, 26112, Note_on_c, 9, 45, 110
10, 26112, Note_on_c, 9, 40, 117
10, 26112, Note_on_c, 9, 35, 117
10, 26112, Note_on_c, 9, 85, 71
10, 26116, Note_off_c, 9, 85, 64
10, 26116, Note_off_c, 9, 35, 64
10, 26116, Note_off_c, 9, 40, 92
10, 26116, Note_off_c, 9, 45, 92
10, 26304, Note_on_c, 9, 45, 60
10, 26304, Note_on_c, 9, 85, 60
10, 26308, Note_off_c, 9, 85, 64
10, 26308, Note_off_c, 9, 45, 92
10, 26400, Note_on_c, 9, 85, 57
10, 26404, Note_off_c, 9, 85, 64
10, 26496, Note_on_c, 9, 45, 110
10, 26496, Note_on_c, 9, 40, 117
10, 26496, Note_on_c, 9, 35, 117
10, 26496, Note_on_c, 9, 85, 66
10, 26500, Note_off_c, 9, 85, 64
10, 26500, Note_off_c, 9, 35, 64
10, 26500, Note_off_c, 9, 40, 92
10, 26500, Note_off_c, 9, 45, 92
10, 26688, Note_on_c, 9, 45, 60
10, 26688, Note_on_c, 9, 85, 63
10, 26692, Note_off_c, 9, 85, 64
10, 26692, Note_off_c, 9, 45, 92
10, 26784, Note_on_c, 9, 85, 55
10, 26788, Note_off_c, 9, 85, 64
10, 26880, Note_on_c, 9, 45, 110
10, 26880, Note_on_c, 9, 40, 117
10, 26880, Note_on_c, 9, 35, 117
10, 26880, Note_on_c, 9, 85, 55
10, 26884, Note_off_c, 9, 85, 64
10, 26884, Note_off_c, 9, 35, 64
10, 26884, Note_off_c, 9, 40, 92
10, 26884, Note_off_c, 9, 45, 92
10, 27072, Note_on_c, 9, 45, 60
10, 27072, Note_on_c, 9, 85, 63
10, 27076, Note_off_c, 9, 85, 64
10, 27076, Note_off_c, 9, 45, 92
10, 27168, Note_on_c, 9, 85, 56
10, 27172, Note_off_c, 9, 85, 64
10, 27264, Note_on_c, 9, 45, 110
10, 27264, Note_on_c, 9, 40, 117
10, 27264, Note_on_c, 9, 35, 117
10, 27264, Note_on_c, 9, 85, 58
10, 27268, Note_off_c, 9, 85, 64
10, 27268, Note_off_c, 9, 35, 64
10, 27268, Note_off_c, 9, 40, 92
10, 27268, Note_off_c, 9, 45, 92
10, 27456, Note_on_c, 9, 45, 60
10, 27456, Note_on_c, 9, 85, 60
10, 27460, Note_off_c, 9, 85, 64
10, 27460, Note_off_c, 9, 45, 92
10, 27552, Note_on_c, 9, 85, 55
10, 27556, Note_off_c, 9, 85, 64
10, 27648, Note_on_c, 9, 45, 110
10, 27648, Note_on_c, 9, 40, 117
10, 27648, Note_on_c, 9, 35, 117
10, 27648, Note_on_c, 9, 85, 71
10, 27652, Note_off_c, 9, 85, 64
10, 27652, Note_off_c, 9, 35, 64
10, 27652, Note_off_c, 9, 40, 92
10, 27652, Note_off_c, 9, 45, 92
10, 27840, Note_on_c, 9, 45, 60
10, 27840, Note_on_c, 9, 85, 60
10, 27844, Note_off_c, 9, 85, 64
10, 27844, Note_off_c, 9, 45, 92
10, 27936, Note_on_c, 9, 85, 57
10, 27940, Note_off_c, 9, 85, 64
10, 28032, Note_on_c, 9, 45, 110
10, 28032, Note_on_c, 9, 40, 117
10, 28032, Note_on_c, 9, 35, 117
10, 28032, Note_on_c, 9, 85, 66
10, 28036, Note_off_c, 9, 85, 64
10, 28036, Note_off_c, 9, 35, 64
10, 28036, Note_off_c, 9, 40, 92
10, 28036, Note_off_c, 9, 45, 92
10, 28224, Note_on_c, 9, 45, 60
10, 28224, Note_on_c, 9, 85, 63
10, 28228, Note_off_c, 9, 85, 64
10, 28228, Note_off_c, 9, 45, 92
10, 28320, Note_on_c, 9, 85, 55
10, 28324, Note_off_c, 9, 85, 64
10, 28416, Note_on_c, 9, 45, 110
10, 28416, Note_on_c, 9, 40, 117
10, 28416, Note_on_c, 9, 35, 117
10, 28416, Note_on_c, 9, 85, 55
10, 28420, Note_off_c, 9, 85, 64
10, 28420, Note_off_c, 9, 35, 64
10, 28420, Note_off_c, 9, 40, 92
10, 28420, Note_off_c, 9, 45, 92
10, 28608, Note_on_c, 9, 45, 60
10, 28608, Note_on_c, 9, 85, 63
10, 28612, Note_off_c, 9, 85, 64
10, 28612, Note_off_c, 9, 45, 92
10, 28704, Note_on_c, 9, 85, 56
10, 28708, Note_off_c, 9, 85, 64
10, 28800, Note_on_c, 9, 45, 110
10, 28800, Note_on_c, 9, 40, 117
10, 28800, Note_on_c, 9, 35, 117
10, 28800, Note_on_c, 9, 85, 58
10, 28804, Note_off_c, 9, 85, 64
10, 28804, Note_off_c, 9, 35, 64
10, 28804, Note_off_c, 9, 40, 92
10, 28804, Note_off_c, 9, 45, 92
10, 28992, Note_on_c, 9, 45, 60
10, 28992, Note_on_c, 9, 85, 60
10, 28996, Note_off_c, 9, 85, 64
10, 28996, Note_off_c, 9, 45, 92
10, 29088, Note_on_c, 9, 85, 55
10, 29092, Note_off_c, 9, 85, 64
10, 29184, Note_on_c, 9, 35, 108
10, 29184, Note_on_c, 9, 49, 117
10, 29184, Note_on_c, 9, 85, 56
10, 29188, Note_off_c, 9, 85, 64
10, 29188, Note_off_c, 9, 49, 64
10, 29188, Note_off_c, 9, 35, 64
10, 29204, Note_on_c, 9, 46, 80
10, 29208, Note_off_c, 9, 46, 64
10, 29376, Note_on_c, 9, 85, 45
10, 29380, Note_off_c, 9, 85, 64
10, 29472, Note_on_c, 9, 85, 42
10, 29476, Note_off_c, 9, 85, 64
10, 29568, Note_on_c, 9, 40, 117
10, 29568, Note_on_c, 9, 35, 107
10, 29568, Note_on_c, 9, 85, 51
10, 29572, Note_off_c, 9, 85, 64
10, 29572, Note_off_c, 9, 35, 64
10, 29572, Note_off_c, 9, 40, 92
10, 29584, Note_on_c, 9, 46, 117
10, 29588, Note_off_c, 9, 46, 64
10, 29760, Note_on_c, 9, 85, 48
10, 29764, Note_off_c, 9, 85, 64
10, 29856, Note_on_c, 9, 85, 40
10, 29860, Note_off_c, 9, 85, 64
10, 29952, Note_on_c, 9, 35, 108
10, 29952, Note_on_c, 9, 85, 40
10, 29956, Note_off_c, 9, 85, 64
10, 29956, Note_off_c, 9, 35, 64
10, 29972, Note_on_c, 9, 46, 70
10, 29976, Note_off_c, 9, 46, 64
10, 30144, Note_on_c, 9, 85, 48
10, 30148, Note_off_c, 9, 85, 64
10, 30240, Note_on_c, 9, 85, 41
10, 30244, Note_off_c, 9, 85, 64
10, 30316, Note_on_c, 9, 46, 117
10, 30324, Note_off_c, 9, 46, 64
10, 30336, Note_on_c, 9, 40, 117
10, 30336, Note_on_c, 9, 35, 98
10, 30336, Note_on_c, 9, 85, 43
10, 30340, Note_off_c, 9, 85, 64
10, 30340, Note_off_c, 9, 35, 64
10, 30340, Note_off_c, 9, 40, 92
10, 30528, Note_on_c, 9, 35, 95
10, 30528, Note_on_c, 9, 85, 45
10, 30532, Note_off_c, 9, 85, 64
10, 30532, Note_off_c, 9, 35, 64
10, 30624, Note_on_c, 9, 85, 40
10, 30628, Note_off_c, 9, 85, 64
10, 30720, Note_on_c, 9, 35, 108
10, 30720, Note_on_c, 9, 85, 56
10, 30724, Note_off_c, 9, 85, 64
10, 30724, Note_off_c, 9, 35, 64
10, 30732, Note_on_c, 9, 46, 80
10, 30736, Note_off_c, 9, 46, 64
10, 30912, Note_on_c, 9, 85, 45
10, 30916, Note_off_c, 9, 85, 64
10, 31008, Note_on_c, 9, 85, 42
10, 31012, Note_off_c, 9, 85, 64
10, 31088, Note_on_c, 9, 46, 117
10, 31092, Note_off_c, 9, 46, 64
10, 31104, Note_on_c, 9, 40, 117
10, 31104, Note_on_c, 9, 35, 108
10, 31104, Note_on_c, 9, 85, 51
10, 31108, Note_off_c, 9, 85, 64
10, 31108, Note_off_c, 9, 35, 64
10, 31108, Note_off_c, 9, 40, 92
10, 31296, Note_on_c, 9, 85, 48
10, 31300, Note_off_c, 9, 85, 64
10, 31392, Note_on_c, 9, 85, 40
10, 31396, Note_off_c, 9, 85, 64
10, 31488, Note_on_c, 9, 35, 109
10, 31488, Note_on_c, 9, 85, 40
10, 31492, Note_off_c, 9, 85, 64
10, 31492, Note_off_c, 9, 35, 64
10, 31504, Note_on_c, 9, 46, 70
10, 31508, Note_off_c, 9, 46, 64
10, 31680, Note_on_c, 9, 85, 48
10, 31684, Note_off_c, 9, 85, 64
10, 31776, Note_on_c, 9, 85, 41
10, 31780, Note_off_c, 9, 85, 64
10, 31848, Note_on_c, 9, 46, 117
10, 31856, Note_off_c, 9, 46, 64
10, 31872, Note_on_c, 9, 40, 117
10, 31872, Note_on_c, 9, 35, 105
10, 31872, Note_on_c, 9, 85, 43
10, 31876, Note_off_c, 9, 85, 64
10, 31876, Note_off_c, 9, 35, 64
10, 31876, Note_off_c, 9, 40, 92
10, 32064, Note_on_c, 9, 35, 100
10, 32064, Note_on_c, 9, 85, 45
10, 32068, Note_off_c, 9, 85, 64
10, 32068, Note_off_c, 9, 35, 64
10, 32160, Note_on_c, 9, 85, 40
10, 32164, Note_off_c, 9, 85, 64
10, 32256, Note_on_c, 9, 35, 105
10, 32256, Note_on_c, 9, 85, 56
10, 32260, Note_off_c, 9, 85, 64
10, 32260, Note_off_c, 9, 35, 64
10, 32264, Note_on_c, 9, 46, 79
10, 32268, Note_off_c, 9, 46, 64
10, 32448, Note_on_c, 9, 85, 45
10, 32452, Note_off_c, 9, 85, 64
10, 32544, Note_on_c, 9, 85, 42
10, 32548, Note_off_c, 9, 85, 64
10, 32612, Note_on_c, 9, 46, 117
10, 32620, Note_off_c, 9, 46, 64
10, 32640, Note_on_c, 9, 40, 117
10, 32640, Note_on_c, 9, 35, 107
10, 32640, Note_on_c, 9, 85, 51
10, 32644, Note_off_c, 9, 85, 64
10, 32644, Note_off_c, 9, 35, 64
10, 32644, Note_off_c, 9, 40, 92
10, 32832, Note_on_c, 9, 85, 48
10, 32836, Note_off_c, 9, 85, 64
10, 32928, Note_on_c, 9, 85, 40
10, 32932, Note_off_c, 9, 85, 64
10, 33024, Note_on_c, 9, 35, 108
10, 33024, Note_on_c, 9, 85, 40
10, 33028, Note_off_c, 9, 85, 64
10, 33028, Note_off_c, 9, 35, 64
10, 33028, Note_on_c, 9, 46, 82
10, 33036, Note_off_c, 9, 46, 64
10, 33216, Note_on_c, 9, 85, 48
10, 33220, Note_off_c, 9, 85, 64
10, 33312, Note_on_c, 9, 85, 41
10, 33316, Note_off_c, 9, 85, 64
10, 33376, Note_on_c, 9, 46, 117
10, 33380, Note_off_c, 9, 46, 64
10, 33408, Note_on_c, 9, 40, 117
10, 33408, Note_on_c, 9, 35, 108
10, 33408, Note_on_c, 9, 85, 43
10, 33412, Note_off_c, 9, 85, 64
10, 33412, Note_off_c, 9, 35, 64
10, 33412, Note_off_c, 9, 40, 92
10, 33600, Note_on_c, 9, 85, 45
10, 33604, Note_off_c, 9, 85, 64
10, 33696, Note_on_c, 9, 85, 40
10, 33700, Note_off_c, 9, 85, 64
10, 33776, Note_on_c, 9, 46, 79
10, 33780, Note_off_c, 9, 46, 64
10, 33792, Note_on_c, 9, 35, 108
10, 33792, Note_on_c, 9, 85, 56
10, 33796, Note_off_c, 9, 85, 64
10, 33796, Note_off_c, 9, 35, 64
10, 33984, Note_on_c, 9, 85, 45
10, 33988, Note_off_c, 9, 85, 64
10, 34080, Note_on_c, 9, 85, 42
10, 34084, Note_off_c, 9, 85, 64
10, 34148, Note_on_c, 9, 46, 117
10, 34152, Note_off_c, 9, 46, 64
10, 34176, Note_on_c, 9, 35, 108
10, 34176, Note_on_c, 9, 45, 82
10, 34176, Note_on_c, 9, 85, 51
10, 34180, Note_off_c, 9, 85, 64
10, 34180, Note_off_c, 9, 45, 64
10, 34180, Note_off_c, 9, 35, 64
10, 34368, Note_on_c, 9, 85, 48
10, 34372, Note_off_c, 9, 85, 64
10, 34464, Note_on_c, 9, 85, 40
10, 34468, Note_off_c, 9, 85, 64
10, 34560, Note_on_c, 9, 35, 109
10, 34560, Note_on_c, 9, 45, 103
10, 34560, Note_on_c, 9, 85, 40
10, 34564, Note_off_c, 9, 85, 64
10, 34564, Note_off_c, 9, 45, 64
10, 34564, Note_off_c, 9, 35, 64
10, 34572, Note_on_c, 9, 46, 70
10, 34580, Note_off_c, 9, 46, 64
10, 34752, Note_on_c, 9, 43, 41
10, 34752, Note_on_c, 9, 45, 90
10, 34752, Note_on_c, 9, 85, 48
10, 34756, Note_off_c, 9, 85, 64
10, 34756, Note_off_c, 9, 45, 64
10, 34756, Note_off_c, 9, 43, 64
10, 34848, Note_on_c, 9, 43, 85
10, 34848, Note_on_c, 9, 85, 41
10, 34852, Note_off_c, 9, 85, 64
10, 34852, Note_off_c, 9, 43, 64
10, 34912, Note_on_c, 9, 46, 117
10, 34920, Note_off_c, 9, 46, 64
10, 34944, Note_on_c, 9, 35, 108
10, 34944, Note_on_c, 9, 85, 43
10, 34948, Note_off_c, 9, 85, 64
10, 34948, Note_off_c, 9, 35, 64
10, 35136, Note_on_c, 9, 43, 111
10, 35136, Note_on_c, 9, 85, 45
10, 35140, Note_off_c, 9, 85, 64
10, 35140, Note_off_c, 9, 43, 64
10, 35232, Note_on_c, 9, 85, 40
10, 35236, Note_off_c, 9, 85, 64
10, 35328, Note_on_c, 9, 35, 108
10, 35328, Note_on_c, 9, 49, 117
10, 35328, Note_on_c, 9, 85, 56
10, 35332, Note_off_c, 9, 85, 64
10, 35332, Note_off_c, 9, 49, 64
10, 35332, Note_off_c, 9, 35, 64
10, 35348, Note_on_c, 9, 46, 80
10, 35352, Note_off_c, 9, 46, 64
10, 35520, Note_on_c, 9, 85, 45
10, 35524, Note_off_c, 9, 85, 64
10, 35616, Note_on_c, 9, 85, 42
10, 35620, Note_off_c, 9, 85, 64
10, 35712, Note_on_c, 9, 40, 117
10, 35712, Note_on_c, 9, 35, 107
10, 35712, Note_on_c, 9, 85, 51
10, 35716, Note_off_c, 9, 85, 64
10, 35716, Note_off_c, 9, 35, 64
10, 35716, Note_off_c, 9, 40, 92
10, 35728, Note_on_c, 9, 46, 117
10, 35732, Note_off_c, 9, 46, 64
10, 35904, Note_on_c, 9, 85, 48
10, 35908, Note_off_c, 9, 85, 64
10, 36000, Note_on_c, 9, 85, 40
10, 36004, Note_off_c, 9, 85, 64
10, 36096, Note_on_c, 9, 35, 108
10, 36096, Note_on_c, 9, 85, 40
10, 36100, Note_off_c, 9, 85, 64
10, 36100, Note_off_c, 9, 35, 64
10, 36116, Note_on_c, 9, 46, 70
10, 36120, Note_off_c, 9, 46, 64
10, 36288, Note_on_c, 9, 85, 48
10, 36292, Note_off_c, 9, 85, 64
10, 36384, Note_on_c, 9, 85, 41
10, 36388, Note_off_c, 9, 85, 64
10, 36460, Note_on_c, 9, 46, 117
10, 36468, Note_off_c, 9, 46, 64
10, 36480, Note_on_c, 9, 40, 117
10, 36480, Note_on_c, 9, 35, 98
10, 36480, Note_on_c, 9, 85, 43
10, 36484, Note_off_c, 9, 85, 64
10, 36484, Note_off_c, 9, 35, 64
10, 36484, Note_off_c, 9, 40, 92
10, 36672, Note_on_c, 9, 35, 95
10, 36672, Note_on_c, 9, 85, 45
10, 36676, Note_off_c, 9, 85, 64
10, 36676, Note_off_c, 9, 35, 64
10, 36768, Note_on_c, 9, 85, 40
10, 36772, Note_off_c, 9, 85, 64
10, 36864, Note_on_c, 9, 35, 108
10, 36864, Note_on_c, 9, 85, 56
10, 36868, Note_off_c, 9, 85, 64
10, 36868, Note_off_c, 9, 35, 64
10, 36876, Note_on_c, 9, 46, 80
10, 36880, Note_off_c, 9, 46, 64
10, 37056, Note_on_c, 9, 85, 45
10, 37060, Note_off_c, 9, 85, 64
10, 37152, Note_on_c, 9, 85, 42
10, 37156, Note_off_c, 9, 85, 64
10, 37232, Note_on_c, 9, 46, 117
10, 37236, Note_off_c, 9, 46, 64
10, 37248, Note_on_c, 9, 40, 117
10, 37248, Note_on_c, 9, 35, 108
10, 37248, Note_on_c, 9, 85, 51
10, 37252, Note_off_c, 9, 85, 64
10, 37252, Note_off_c, 9, 35, 64
10, 37252, Note_off_c, 9, 40, 92
10, 37440, Note_on_c, 9, 85, 48
10, 37444, Note_off_c, 9, 85, 64
10, 37536, Note_on_c, 9, 85, 40
10, 37540, Note_off_c, 9, 85, 64
10, 37632, Note_on_c, 9, 35, 109
10, 37632, Note_on_c, 9, 85, 40
10, 37636, Note_off_c, 9, 85, 64
10, 37636, Note_off_c, 9, 35, 64
10, 37648, Note_on_c, 9, 46, 70
10, 37652, Note_off_c, 9, 46, 64
10, 37824, Note_on_c, 9, 85, 48
10, 37828, Note_off_c, 9, 85, 64
10, 37920, Note_on_c, 9, 85, 41
10, 37924, Note_off_c, 9, 85, 64
10, 37992, Note_on_c, 9, 46, 117
10, 38000, Note_off_c, 9, 46, 64
10, 38016, Note_on_c, 9, 40, 117
10, 38016, Note_on_c, 9, 35, 105
10, 38016, Note_on_c, 9, 85, 43
10, 38020, Note_off_c, 9, 85, 64
10, 38020, Note_off_c, 9, 35, 64
10, 38020, Note_off_c, 9, 40, 92
10, 38208, Note_on_c, 9, 35, 100
10, 38208, Note_on_c, 9, 85, 45
10, 38212, Note_off_c, 9, 85, 64
10, 38212, Note_off_c, 9, 35, 64
10, 38304, Note_on_c, 9, 85, 40
10, 38308, Note_off_c, 9, 85, 64
10, 38400, Note_on_c, 9, 35, 105
10, 38400, Note_on_c, 9, 85, 56
10, 38404, Note_off_c, 9, 85, 64
10, 38404, Note_off_c, 9, 35, 64
10, 38408, Note_on_c, 9, 46, 79
10, 38412, Note_off_c, 9, 46, 64
10, 38592, Note_on_c, 9, 85, 45
10, 38596, Note_off_c, 9, 85, 64
10, 38688, Note_on_c, 9, 85, 42
10, 38692, Note_off_c, 9, 85, 64
10, 38756, Note_on_c, 9, 46, 117
10, 38764, Note_off_c, 9, 46, 64
10, 38784, Note_on_c, 9, 40, 117
10, 38784, Note_on_c, 9, 35, 107
10, 38784, Note_on_c, 9, 85, 51
10, 38788, Note_off_c, 9, 85, 64
10, 38788, Note_off_c, 9, 35, 64
10, 38788, Note_off_c, 9, 40, 92
10, 38976, Note_on_c, 9, 85, 48
10, 38980, Note_off_c, 9, 85, 64
10, 39072, Note_on_c, 9, 85, 40
10, 39076, Note_off_c, 9, 85, 64
10, 39168, Note_on_c, 9, 35, 108
10, 39168, Note_on_c, 9, 85, 40
10, 39172, Note_off_c, 9, 85, 64
10, 39172, Note_off_c, 9, 35, 64
10, 39172, Note_on_c, 9, 46, 82
10, 39180, Note_off_c, 9, 46, 64
10, 39360, Note_on_c, 9, 85, 48
10, 39364, Note_off_c, 9, 85, 64
10, 39456, Note_on_c, 9, 85, 41
10, 39460, Note_off_c, 9, 85, 64
10, 39520, Note_on_c, 9, 46, 117
10, 39524, Note_off_c, 9, 46, 64
10, 39552, Note_on_c, 9, 40, 117
10, 39552, Note_on_c, 9, 35, 108
10, 39552, Note_on_c, 9, 85, 43
10, 39556, Note_off_c, 9, 85, 64
10, 39556, Note_off_c, 9, 35, 64
10, 39556, Note_off_c, 9, 40, 92
10, 39744, Note_on_c, 9, 85, 45
10, 39748, Note_off_c, 9, 85, 64
10, 39840, Note_on_c, 9, 85, 40
10, 39844, Note_off_c, 9, 85, 64
10, 39920, Note_on_c, 9, 46, 79
10, 39924, Note_off_c, 9, 46, 64
10, 39936, Note_on_c, 9, 35, 108
10, 39936, Note_on_c, 9, 85, 56
10, 39940, Note_off_c, 9, 85, 64
10, 39940, Note_off_c, 9, 35, 64
10, 40128, Note_on_c, 9, 85, 45
10, 40132, Note_off_c, 9, 85, 64
10, 40224, Note_on_c, 9, 85, 42
10, 40228, Note_off_c, 9, 85, 64
10, 40292, Note_on_c, 9, 46, 117
10, 40296, Note_off_c, 9, 46, 64
10, 40320, Note_on_c, 9, 40, 117
10, 40320, Note_on_c, 9, 35, 108
10, 40320, Note_on_c, 9, 47, 99
10, 40320, Note_on_c, 9, 85, 51
10, 40324, Note_off_c, 9, 85, 64
10, 40324, Note_off_c, 9, 47, 64
10, 40324, Note_off_c, 9, 35, 64
10, 40324, Note_off_c, 9, 40, 92
10, 40512, Note_on_c, 9, 47, 96
10, 40512, Note_on_c, 9, 85, 48
10, 40516, Note_off_c, 9, 85, 64
10, 40516, Note_off_c, 9, 47, 64
10, 40608, Note_on_c, 9, 85, 40
10, 40612, Note_off_c, 9, 85, 64
10, 40704, Note_on_c, 9, 35, 109
10, 40704, Note_on_c, 9, 85, 40
10, 40708, Note_off_c, 9, 85, 64
10, 40708, Note_off_c, 9, 35, 64
10, 40716, Note_on_c, 9, 46, 70
10, 40724, Note_off_c, 9, 46, 64
10, 40896, Note_on_c, 9, 41, 95
10, 40896, Note_on_c, 9, 85, 48
10, 40900, Note_off_c, 9, 85, 64
10, 40900, Note_off_c, 9, 41, 64
10, 40992, Note_on_c, 9, 85, 41
10, 40996, Note_off_c, 9, 85, 64
10, 41056, Note_on_c, 9, 46, 117
10, 41064, Note_off_c, 9, 46, 64
10, 41088, Note_on_c, 9, 35, 108
10, 41088, Note_on_c, 9, 47, 104
10, 41088, Note_on_c, 9, 85, 43
10, 41092, Note_off_c, 9, 85, 64
10, 41092, Note_off_c, 9, 47, 64
10, 41092, Note_off_c, 9, 35, 64
10, 41280, Note_on_c, 9, 47, 94
10, 41280, Note_on_c, 9, 85, 45
10, 41284, Note_off_c, 9, 85, 64
10, 41284, Note_off_c, 9, 47, 64
10, 41376, Note_on_c, 9, 85, 40
10, 41380, Note_off_c, 9, 85, 64
10, 41472, Note_on_c, 9, 45, 110
10, 41472, Note_on_c, 9, 40, 117
10, 41472, Note_on_c, 9, 35, 117
10, 41472, Note_on_c, 9, 85, 71
10, 41476, Note_off_c, 9, 85, 64
10, 41476, Note_off_c, 9, 35, 64
10, 41476, Note_off_c, 9, 40, 92
10, 41476, Note_off_c, 9, 45, 92
10, 41664, Note_on_c, 9, 45, 60
10, 41664, Note_on_c, 9, 85, 60
10, 41668, Note_off_c, 9, 85, 64
10, 41668, Note_off_c, 9, 45, 92
10, 41760, Note_on_c, 9, 85, 57
10, 41764, Note_off_c, 9, 85, 64
10, 41856, Note_on_c, 9, 45, 110
10, 41856, Note_on_c, 9, 40, 117
10, 41856, Note_on_c, 9, 35, 117
10, 41856, Note_on_c, 9, 85, 66
10, 41860, Note_off_c, 9, 85, 64
10, 41860, Note_off_c, 9, 35, 64
10, 41860, Note_off_c, 9, 40, 92
10, 41860, Note_off_c, 9, 45, 92
10, 42048, Note_on_c, 9, 45, 60
10, 42048, Note_on_c, 9, 85, 63
10, 42052, Note_off_c, 9, 85, 64
10, 42052, Note_off_c, 9, 45, 92
10, 42144, Note_on_c, 9, 85, 55
10, 42148, Note_off_c, 9, 85, 64
10, 42240, Note_on_c, 9, 45, 110
10, 42240, Note_on_c, 9, 40, 117
10, 42240, Note_on_c, 9, 35, 117
10, 42240, Note_on_c, 9, 85, 55
10, 42244, Note_off_c, 9, 85, 64
10, 42244, Note_off_c, 9, 35, 64
10, 42244, Note_off_c, 9, 40, 92
10, 42244, Note_off_c, 9, 45, 92
10, 42432, Note_on_c, 9, 45, 60
10, 42432, Note_on_c, 9, 85, 63
10, 42436, Note_off_c, 9, 85, 64
10, 42436, Note_off_c, 9, 45, 92
10, 42528, Note_on_c, 9, 85, 56
10, 42532, Note_off_c, 9, 85, 64
10, 42624, Note_on_c, 9, 45, 110
10, 42624, Note_on_c, 9, 40, 117
10, 42624, Note_on_c, 9, 35, 117
10, 42624, Note_on_c, 9, 85, 58
10, 42628, Note_off_c, 9, 85, 64
10, 42628, Note_off_c, 9, 35, 64
10, 42628, Note_off_c, 9, 40, 92
10, 42628, Note_off_c, 9, 45, 92
10, 42816, Note_on_c, 9, 45, 60
10, 42816, Note_on_c, 9, 85, 60
10, 42820, Note_off_c, 9, 85, 64
10, 42820, Note_off_c, 9, 45, 92
10, 42912, Note_on_c, 9, 85, 55
10, 42916, Note_off_c, 9, 85, 64
10, 43008, Note_on_c, 9, 45, 110
10, 43008, Note_on_c, 9, 40, 117
10, 43008, Note_on_c, 9, 35, 117
10, 43008, Note_on_c, 9, 85, 71
10, 43012, Note_off_c, 9, 85, 64
10, 43012, Note_off_c, 9, 35, 64
10, 43012, Note_off_c, 9, 40, 92
10, 43012, Note_off_c, 9, 45, 92
10, 43200, Note_on_c, 9, 45, 60
10, 43200, Note_on_c, 9, 85, 60
10, 43204, Note_off_c, 9, 85, 64
10, 43204, Note_off_c, 9, 45, 92
10, 43296, Note_on_c, 9, 85, 57
10, 43300, Note_off_c, 9, 85, 64
10, 43392, Note_on_c, 9, 45, 110
10, 43392, Note_on_c, 9, 40, 117
10, 43392, Note_on_c, 9, 35, 117
10, 43392, Note_on_c, 9, 85, 66
10, 43396, Note_off_c, 9, 85, 64
10, 43396, Note_off_c, 9, 35, 64
10, 43396, Note_off_c, 9, 40, 92
10, 43396, Note_off_c, 9, 45, 92
10, 43584, Note_on_c, 9, 45, 60
10, 43584, Note_on_c, 9, 85, 63
10, 43588, Note_off_c, 9, 85, 64
10, 43588, Note_off_c, 9, 45, 92
10, 43680, Note_on_c, 9, 85, 55
10, 43684, Note_off_c, 9, 85, 64
10, 43776, Note_on_c, 9, 45, 110
10, 43776, Note_on_c, 9, 40, 117
10, 43776, Note_on_c, 9, 35, 117
10, 43776, Note_on_c, 9, 85, 55
10, 43780, Note_off_c, 9, 85, 64
10, 43780, Note_off_c, 9, 35, 64
10, 43780, Note_off_c, 9, 40, 92
10, 43780, Note_off_c, 9, 45, 92
10, 43968, Note_on_c, 9, 45, 60
10, 43968, Note_on_c, 9, 85, 63
10, 43972, Note_off_c, 9, 85, 64
10, 43972, Note_off_c, 9, 45, 92
10, 44064, Note_on_c, 9, 85, 56
10, 44068, Note_off_c, 9, 85, 64
10, 44160, Note_on_c, 9, 45, 110
10, 44160, Note_on_c, 9, 40, 117
10, 44160, Note_on_c, 9, 35, 117
10, 44160, Note_on_c, 9, 85, 58
10, 44164, Note_off_c, 9, 85, 64
10, 44164, Note_off_c, 9, 35, 64
10, 44164, Note_off_c, 9, 40, 92
10, 44164, Note_off_c, 9, 45, 92
10, 44352, Note_on_c, 9, 45, 60
10, 44352, Note_on_c, 9, 85, 60
10, 44356, Note_off_c, 9, 85, 64
10, 44356, Note_off_c, 9, 45, 92
10, 44448, Note_on_c, 9, 85, 55
10, 44452, Note_off_c, 9, 85, 64
10, 44544, Note_on_c, 9, 45, 110
10, 44544, Note_on_c, 9, 40, 117
10, 44544, Note_on_c, 9, 35, 117
10, 44544, Note_on_c, 9, 85, 71
10, 44548, Note_off_c, 9, 85, 64
10, 44548, Note_off_c, 9, 35, 64
10, 44548, Note_off_c, 9, 40, 92
10, 44548, Note_off_c, 9, 45, 92
10, 44736, Note_on_c, 9, 45, 60
10, 44736, Note_on_c, 9, 85, 60
10, 44740, Note_off_c, 9, 85, 64
10, 44740, Note_off_c, 9, 45, 92
10, 44832, Note_on_c, 9, 85, 57
10, 44836, Note_off_c, 9, 85, 64
10, 44928, Note_on_c, 9, 45, 110
10, 44928, Note_on_c, 9, 40, 117
10, 44928, Note_on_c, 9, 35, 117
10, 44928, Note_on_c, 9, 85, 66
10, 44932, Note_off_c, 9, 85, 64
10, 44932, Note_off_c, 9, 35, 64
10, 44932, Note_off_c, 9, 40, 92
10, 44932, Note_off_c, 9, 45, 92
10, 45120, Note_on_c, 9, 45, 60
10, 45120, Note_on_c, 9, 85, 63
10, 45124, Note_off_c, 9, 85, 64
10, 45124, Note_off_c, 9, 45, 92
10, 45216, Note_on_c, 9, 85, 55
10, 45220, Note_off_c, 9, 85, 64
10, 45312, Note_on_c, 9, 45, 110
10, 45312, Note_on_c, 9, 40, 117
10, 45312, Note_on_c, 9, 35, 117
10, 45312, Note_on_c, 9, 85, 55
10, 45316, Note_off_c, 9, 85, 64
10, 45316, Note_off_c, 9, 35, 64
10, 45316, Note_off_c, 9, 40, 92
10, 45316, Note_off_c, 9, 45, 92
10, 45504, Note_on_c, 9, 45, 60
10, 45504, Note_on_c, 9, 85, 63
10, 45508, Note_off_c, 9, 85, 64
10, 45508, Note_off_c, 9, 45, 92
10, 45600, Note_on_c, 9, 85, 56
10, 45604, Note_off_c, 9, 85, 64
10, 45696, Note_on_c, 9, 45, 110
10, 45696, Note_on_c, 9, 40, 117
10, 45696, Note_on_c, 9, 35, 117
10, 45696, Note_on_c, 9, 85, 58
10, 45700, Note_off_c, 9, 85, 64
10, 45700, Note_off_c, 9, 35, 64
10, 45700, Note_off_c, 9, 40, 92
10, 45700, Note_off_c, 9, 45, 92
10, 45888, Note_on_c, 9, 45, 60
10, 45888, Note_on_c, 9, 85, 60
10, 45892, Note_off_c, 9, 85, 64
10, 45892, Note_off_c, 9, 45, 92
10, 45984, Note_on_c, 9, 85, 55
10, 45988, Note_off_c, 9, 85, 64
10, 46080, Note_on_c, 9, 45, 110
10, 46080, Note_on_c, 9, 40, 117
10, 46080, Note_on_c, 9, 35, 117
10, 46080, Note_on_c, 9, 85, 71
10, 46084, Note_off_c, 9, 85, 64
10, 46084, Note_off_c, 9, 35, 64
10, 46084, Note_off_c, 9, 40, 92
10, 46084, Note_off_c, 9, 45, 92
10, 46272, Note_on_c, 9, 45, 60
10, 46272, Note_on_c, 9, 85, 60
10, 46276, Note_off_c, 9, 85, 64
10, 46276, Note_off_c, 9, 45, 92
10, 46368, Note_on_c, 9, 85, 57
10, 46372, Note_off_c, 9, 85, 64
10, 46464, Note_on_c, 9, 45, 110
10, 46464, Note_on_c, 9, 40, 117
10, 46464, Note_on_c, 9, 35, 117
10, 46464, Note_on_c, 9, 85, 66
10, 46468, Note_off_c, 9, 85, 64
10, 46468, Note_off_c, 9, 35, 64
10, 46468, Note_off_c, 9, 40, 92
10, 46468, Note_off_c, 9, 45, 92
10, 46656, Note_on_c, 9, 45, 60
10, 46656, Note_on_c, 9, 85, 63
10, 46660, Note_off_c, 9, 85, 64
10, 46660, Note_off_c, 9, 45, 92
10, 46752, Note_on_c, 9, 85, 55
10, 46756, Note_off_c, 9, 85, 64
10, 46848, Note_on_c, 9, 45, 110
10, 46848, Note_on_c, 9, 40, 117
10, 46848, Note_on_c, 9, 35, 117
10, 46848, Note_on_c, 9, 85, 55
10, 46852, Note_off_c, 9, 85, 64
10, 46852, Note_off_c, 9, 35, 64
10, 46852, Note_off_c, 9, 40, 92
10, 46852, Note_off_c, 9, 45, 92
10, 47040, Note_on_c, 9, 45, 60
10, 47040, Note_on_c, 9, 85, 63
10, 47044, Note_off_c, 9, 85, 64
10, 47044, Note_off_c, 9, 45, 92
10, 47136, Note_on_c, 9, 85, 56
10, 47140, Note_off_c, 9, 85, 64
10, 47232, Note_on_c, 9, 45, 110
10, 47232, Note_on_c, 9, 40, 117
10, 47232, Note_on_c, 9, 35, 117
10, 47232, Note_on_c, 9, 85, 58
10, 47236, Note_off_c, 9, 85, 64
10, 47236, Note_off_c, 9, 35, 64
10, 47236, Note_off_c, 9, 40, 92
10, 47236, Note_off_c, 9, 45, 92
10, 47424, Note_on_c, 9, 45, 60
10, 47424, Note_on_c, 9, 85, 60
10, 47428, Note_off_c, 9, 85, 64
10, 47428, Note_off_c, 9, 45, 92
10, 47520, Note_on_c, 9, 85, 55
10, 47524, Note_off_c, 9, 85, 64
10, 47616, Note_on_c, 9, 45, 110
10, 47616, Note_on_c, 9, 40, 117
10, 47616, Note_on_c, 9, 35, 117
10, 47616, Note_on_c, 9, 85, 71
10, 47620, Note_off_c, 9, 85, 64
10, 47620, Note_off_c, 9, 35, 64
10, 47620, Note_off_c, 9, 40, 92
10, 47620, Note_off_c, 9, 45, 92
10, 47808, Note_on_c, 9, 45, 60
10, 47808, Note_on_c, 9, 85, 60
10, 47812, Note_off_c, 9, 85, 64
10, 47812, Note_off_c, 9, 45, 92
10, 47904, Note_on_c, 9, 85, 57
10, 47908, Note_off_c, 9, 85, 64
10, 48000, Note_on_c, 9, 45, 110
10, 48000, Note_on_c, 9, 40, 117
10, 48000, Note_on_c, 9, 35, 117
10, 48000, Note_on_c, 9, 85, 66
10, 48004, Note_off_c, 9, 85, 64
10, 48004, Note_off_c, 9, 35, 64
10, 48004, Note_off_c, 9, 40, 92
10, 48004, Note_off_c, 9, 45, 92
10, 48192, Note_on_c, 9, 45, 60
10, 48192, Note_on_c, 9, 85, 63
10, 48196, Note_off_c, 9, 85, 64
10, 48196, Note_off_c, 9, 45, 92
10, 48288, Note_on_c, 9, 85, 55
10, 48292, Note_off_c, 9, 85, 64
10, 48384, Note_on_c, 9, 45, 110
10, 48384, Note_on_c, 9, 40, 117
10, 48384, Note_on_c, 9, 35, 117
10, 48384, Note_on_c, 9, 85, 55
10, 48388, Note_off_c, 9, 85, 64
10, 48388, Note_off_c, 9, 35, 64
10, 48388, Note_off_c, 9, 40, 92
10, 48388, Note_off_c, 9, 45, 92
10, 48576, Note_on_c, 9, 45, 60
10, 48576, Note_on_c, 9, 85, 63
10, 48580, Note_off_c, 9, 85, 64
10, 48580, Note_off_c, 9, 45, 92
10, 48672, Note_on_c, 9, 85, 56
10, 48676, Note_off_c, 9, 85, 64
10, 48768, Note_on_c, 9, 45, 110
10, 48768, Note_on_c, 9, 40, 117
10, 48768, Note_on_c, 9, 35, 117
10, 48768, Note_on_c, 9, 85, 58
10, 48772, Note_off_c, 9, 85, 64
10, 48772, Note_off_c, 9, 35, 64
10, 48772, Note_off_c, 9, 40, 92
10, 48772, Note_off_c, 9, 45, 92
10, 48960, Note_on_c, 9, 45, 60
10, 48960, Note_on_c, 9, 85, 60
10, 48964, Note_off_c, 9, 85, 64
10, 48964, Note_off_c, 9, 45, 92
10, 49056, Note_on_c, 9, 85, 55
10, 49060, Note_off_c, 9, 85, 64
10, 49152, Note_on_c, 9, 45, 110
10, 49152, Note_on_c, 9, 40, 117
10, 49152, Note_on_c, 9, 35, 117
10, 49152, Note_on_c, 9, 85, 71
10, 49156, Note_off_c, 9, 85, 64
10, 49156, Note_off_c, 9, 35, 64
10, 49156, Note_off_c, 9, 40, 92
10, 49156, Note_off_c, 9, 45, 92
10, 49344, Note_on_c, 9, 45, 60
10, 49344, Note_on_c, 9, 85, 60
10, 49348, Note_off_c, 9, 85, 64
10, 49348, Note_off_c, 9, 45, 92
10, 49440, Note_on_c, 9, 85, 57
10, 49444, Note_off_c, 9, 85, 64
10, 49536, Note_on_c, 9, 45, 110
10, 49536, Note_on_c, 9, 40, 117
10, 49536, Note_on_c, 9, 35, 117
10, 49536, Note_on_c, 9, 85, 66
10, 49540, Note_off_c, 9, 85, 64
10, 49540, Note_off_c, 9, 35, 64
10, 49540, Note_off_c, 9, 40, 92
10, 49540, Note_off_c, 9, 45, 92
10, 49728, Note_on_c, 9, 45, 60
10, 49728, Note_on_c, 9, 85, 63
10, 49732, Note_off_c, 9, 85, 64
10, 49732, Note_off_c, 9, 45, 92
10, 49824, Note_on_c, 9, 85, 55
10, 49828, Note_off_c, 9, 85, 64
10, 49920, Note_on_c, 9, 45, 110
10, 49920, Note_on_c, 9, 40, 117
10, 49920, Note_on_c, 9, 35, 117
10, 49920, Note_on_c, 9, 85, 55
10, 49924, Note_off_c, 9, 85, 64
10, 49924, Note_off_c, 9, 35, 64
10, 49924, Note_off_c, 9, 40, 92
10, 49924, Note_off_c, 9, 45, 92
10, 50112, Note_on_c, 9, 45, 60
10, 50112, Note_on_c, 9, 85, 63
10, 50116, Note_off_c, 9, 85, 64
10, 50116, Note_off_c, 9, 45, 92
10, 50208, Note_on_c, 9, 85, 56
10, 50212, Note_off_c, 9, 85, 64
10, 50304, Note_on_c, 9, 45, 110
10, 50304, Note_on_c, 9, 40, 117
10, 50304, Note_on_c, 9, 35, 117
10, 50304, Note_on_c, 9, 85, 58
10, 50308, Note_off_c, 9, 85, 64
10, 50308, Note_off_c, 9, 35, 64
10, 50308, Note_off_c, 9, 40, 92
10, 50308, Note_off_c, 9, 45, 92
10, 50496, Note_on_c, 9, 45, 60
10, 50496, Note_on_c, 9, 85, 60
10, 50500, Note_off_c, 9, 85, 64
10, 50500, Note_off_c, 9, 45, 92
10, 50592, Note_on_c, 9, 85, 55
10, 50596, Note_off_c, 9, 85, 64
10, 50688, Note_on_c, 9, 45, 110
10, 50688, Note_on_c, 9, 40, 117
10, 50688, Note_on_c, 9, 35, 117
10, 50688, Note_on_c, 9, 85, 71
10, 50692, Note_off_c, 9, 85, 64
10, 50692, Note_off_c, 9, 35, 64
10, 50692, Note_off_c, 9, 40, 92
10, 50692, Note_off_c, 9, 45, 92
10, 50880, Note_on_c, 9, 45, 60
10, 50880, Note_on_c, 9, 85, 60
10, 50884, Note_off_c, 9, 85, 64
10, 50884, Note_off_c, 9, 45, 92
10, 50976, Note_on_c, 9, 85, 57
10, 50980, Note_off_c, 9, 85, 64
10, 51072, Note_on_c, 9, 45, 110
10, 51072, Note_on_c, 9, 40, 117
10, 51072, Note_on_c, 9, 35, 117
10, 51072, Note_on_c, 9, 85, 66
10, 51076, Note_off_c, 9, 85, 64
10, 51076, Note_off_c, 9, 35, 64
10, 51076, Note_off_c, 9, 40, 92
10, 51076, Note_off_c, 9, 45, 92
10, 51264, Note_on_c, 9, 45, 60
10, 51264, Note_on_c, 9, 85, 63
10, 51268, Note_off_c, 9, 85, 64
10, 51268, Note_off_c, 9, 45, 92
10, 51360, Note_on_c, 9, 85, 55
10, 51364, Note_off_c, 9, 85, 64
10, 51456, Note_on_c, 9, 45, 110
10, 51456, Note_on_c, 9, 40, 117
10, 51456, Note_on_c, 9, 35, 117
10, 51456, Note_on_c, 9, 85, 55
10, 51460, Note_off_c, 9, 85, 64
10, 51460, Note_off_c, 9, 35, 64
10, 51460, Note_off_c, 9, 40, 92
10, 51460, Note_off_c, 9, 45, 92
10, 51648, Note_on_c, 9, 45, 60
10, 51648, Note_on_c, 9, 85, 63
10, 51652, Note_off_c, 9, 85, 64
10, 51652, Note_off_c, 9, 45, 92
10, 51744, Note_on_c, 9, 85, 56
10, 51748, Note_off_c, 9, 85, 64
10, 51840, Note_on_c, 9, 45, 110
10, 51840, Note_on_c, 9, 40, 117
10, 51840, Note_on_c, 9, 35, 117
10, 51840, Note_on_c, 9, 85, 58
10, 51844, Note_off_c, 9, 85, 64
10, 51844, Note_off_c, 9, 35, 64
10, 51844, Note_off_c, 9, 40, 92
10, 51844, Note_off_c, 9, 45, 92
10, 52032, Note_on_c, 9, 45, 60
10, 52032, Note_on_c, 9, 85, 60
10, 52036, Note_off_c, 9, 85, 64
10, 52036, Note_off_c, 9, 45, 92
10, 52128, Note_on_c, 9, 85, 55
10, 52132, Note_off_c, 9, 85, 64
10, 52224, Note_on_c, 9, 45, 110
10, 52224, Note_on_c, 9, 40, 117
10, 52224, Note_on_c, 9, 35, 117
10, 52224, Note_on_c, 9, 85, 71
10, 52228, Note_off_c, 9, 85, 64
10, 52228, Note_off_c, 9, 35, 64
10, 52228, Note_off_c, 9, 40, 92
10, 52228, Note_off_c, 9, 45, 92
10, 52416, Note_on_c, 9, 45, 60
10, 52416, Note_on_c, 9, 85, 60
10, 52420, Note_off_c, 9, 85, 64
10, 52420, Note_off_c, 9, 45, 92
10, 52512, Note_on_c, 9, 85, 57
10, 52516, Note_off_c, 9, 85, 64
10, 52608, Note_on_c, 9, 45, 110
10, 52608, Note_on_c, 9, 40, 117
10, 52608, Note_on_c, 9, 35, 117
10, 52608, Note_on_c, 9, 85, 66
10, 52612, Note_off_c, 9, 85, 64
10, 52612, Note_off_c, 9, 35, 64
10, 52612, Note_off_c, 9, 40, 92
10, 52612, Note_off_c, 9, 45, 92
10, 52800, Note_on_c, 9, 45, 60
10, 52800, Note_on_c, 9, 85, 63
10, 52804, Note_off_c, 9, 85, 64
10, 52804, Note_off_c, 9, 45, 92
10, 52896, Note_on_c, 9, 85, 55
10, 52900, Note_off_c, 9, 85, 64
10, 52992, Note_on_c, 9, 45, 110
10, 52992, Note_on_c, 9, 40, 117
10, 52992, Note_on_c, 9, 35, 117
10, 52992, Note_on_c, 9, 85, 55
10, 52996, Note_off_c, 9, 85, 64
10, 52996, Note_off_c, 9, 35, 64
10, 52996, Note_off_c, 9, 40, 92
10, 52996, Note_off_c, 9, 45, 92
10, 53184, Note_on_c, 9, 45, 60
10, 53184, Note_on_c, 9, 85, 63
10, 53188, Note_off_c, 9, 85, 64
10, 53188, Note_off_c, 9, 45, 92
10, 53280, Note_on_c, 9, 85, 56
10, 53284, Note_off_c, 9, 85, 64
10, 53376, Note_on_c, 9, 45, 110
10, 53376, Note_on_c, 9, 40, 117
10, 53376, Note_on_c, 9, 35, 117
10, 53376, Note_on_c, 9, 85, 58
10, 53380, Note_off_c, 9, 85, 64
10, 53380, Note_off_c, 9, 35, 64
10, 53380, Note_off_c, 9, 40, 92
10, 53380, Note_off_c, 9, 45, 92
10, 53568, Note_on_c, 9, 45, 60
10, 53568, Note_on_c, 9, 85, 60
10, 53572, Note_off_c, 9, 85, 64
10, 53572, Note_off_c, 9, 45, 92
10, 53664, Note_on_c, 9, 85, 55
10, 53668, Note_off_c, 9, 85, 64
10, 53760, Note_on_c, 9, 35, 108
10, 53760, Note_on_c, 9, 49, 117
10, 53760, Note_on_c, 9, 85, 56
10, 53764, Note_off_c, 9, 85, 64
10, 53764, Note_off_c, 9, 49, 64
10, 53764, Note_off_c, 9, 35, 64
10, 53780, Note_on_c, 9, 46, 80
10, 53784, Note_off_c, 9, 46, 64
10, 53952, Note_on_c, 9, 85, 45
10, 53956, Note_off_c, 9, 85, 64
10, 54048, Note_on_c, 9, 85, 42
10, 54052, Note_off_c, 9, 85, 64
10, 54144, Note_on_c, 9, 40, 117
10, 54144, Note_on_c, 9, 35, 107
10, 54144, Note_on_c, 9, 85, 51
10, 54148, Note_off_c, 9, 85, 64
10, 54148, Note_off_c, 9, 35, 64
10, 54148, Note_off_c, 9, 40, 92
10, 54160, Note_on_c, 9, 46, 117
10, 54164, Note_off_c, 9, 46, 64
10, 54336, Note_on_c, 9, 85, 48
10, 54340, Note_off_c, 9, 85, 64
10, 54432, Note_on_c, 9, 85, 40
10, 54436, Note_off_c, 9, 85, 64
10, 54528, Note_on_c, 9, 35, 108
10, 54528, Note_on_c, 9, 85, 40
10, 54532, Note_off_c, 9, 85, 64
10, 54532, Note_off_c, 9, 35, 64
10, 54548, Note_on_c, 9, 46, 70
10, 54552, Note_off_c, 9, 46, 64
10, 54720, Note_on_c, 9, 85, 48
10, 54724, Note_off_c, 9, 85, 64
10, 54816, Note_on_c, 9, 85, 41
10, 54820, Note_off_c, 9, 85, 64
10, 54892, Note_on_c, 9, 46, 117
10, 54900, Note_off_c, 9, 46, 64
10, 54912, Note_on_c, 9, 40, 117
10, 54912, Note_on_c, 9, 35, 98
10, 54912, Note_on_c, 9, 85, 43
10, 54916, Note_off_c, 9, 85, 64
10, 54916, Note_off_c, 9, 35, 64
10, 54916, Note_off_c, 9, 40, 92
10, 55104, Note_on_c, 9, 35, 95
10, 55104, Note_on_c, 9, 85, 45
10, 55108, Note_off_c, 9, 85, 64
10, 55108, Note_off_c, 9, 35, 64
10, 55200, Note_on_c, 9, 85, 40
10, 55204, Note_off_c, 9, 85, 64
10, 55296, Note_on_c, 9, 35, 108
10, 55296, Note_on_c, 9, 85, 56
10, 55300, Note_off_c, 9, 85, 64
10, 55300, Note_off_c, 9, 35, 64
10, 55308, Note_on_c, 9, 46, 80
10, 55312, Note_off_c, 9, 46, 64
10, 55488, Note_on_c, 9, 85, 45
10, 55492, Note_off_c, 9, 85, 64
10, 55584, Note_on_c, 9, 85, 42
10, 55588, Note_off_c, 9, 85, 64
10, 55664, Note_on_c, 9, 46, 117
10, 55668, Note_off_c, 9, 46, 64
10, 55680, Note_on_c, 9, 40, 117
10, 55680, Note_on_c, 9, 35, 108
10, 55680, Note_on_c, 9, 85, 51
10, 55684, Note_off_c, 9, 85, 64
10, 55684, Note_off_c, 9, 35, 64
10, 55684, Note_off_c, 9, 40, 92
10, 55872, Note_on_c, 9, 85, 48
10, 55876, Note_off_c, 9, 85, 64
10, 55968, Note_on_c, 9, 85, 40
10, 55972, Note_off_c, 9, 85, 64
10, 56064, Note_on_c, 9, 35, 109
10, 56064, Note_on_c, 9, 85, 40
10, 56068, Note_off_c, 9, 85, 64
10, 56068, Note_off_c, 9, 35, 64
10, 56080, Note_on_c, 9, 46, 70
10, 56084, Note_off_c, 9, 46, 64
10, 56256, Note_on_c, 9, 85, 48
10, 56260, Note_off_c, 9, 85, 64
10, 56352, Note_on_c, 9, 85, 41
10, 56356, Note_off_c, 9, 85, 64
10, 56424, Note_on_c, 9, 46, 117
10, 56432, Note_off_c, 9, 46, 64
10, 56448, Note_on_c, 9, 40, 117
10, 56448, Note_on_c, 9, 35, 105
10, 56448, Note_on_c, 9, 85, 43
10, 56452, Note_off_c, 9, 85, 64
10, 56452, Note_off_c, 9, 35, 64
10, 56452, Note_off_c, 9, 40, 92
10, 56640, Note_on_c, 9, 35, 100
10, 56640, Note_on_c, 9, 85, 45
10, 56644, Note_off_c, 9, 85, 64
10, 56644, Note_off_c, 9, 35, 64
10, 56736, Note_on_c, 9, 85, 40
10, 56740, Note_off_c, 9, 85, 64
10, 56832, Note_on_c, 9, 35, 105
10, 56832, Note_on_c, 9, 85, 56
10, 56836, Note_off_c, 9, 85, 64
10, 56836, Note_off_c, 9, 35, 64
10, 56840, Note_on_c, 9, 46, 79
10, 56844, Note_off_c, 9, 46, 64
10, 57024, Note_on_c, 9, 85, 45
10, 57028, Note_off_c, 9, 85, 64
10, 57120, Note_on_c, 9, 85, 42
10, 57124, Note_off_c, 9, 85, 64
10, 57188, Note_on_c, 9, 46, 117
10, 57196, Note_off_c, 9, 46, 64
10, 57216, Note_on_c, 9, 40, 117
10, 57216, Note_on_c, 9, 35, 107
10, 57216, Note_on_c, 9, 85, 51
10, 57220, Note_off_c, 9, 85, 64
10, 57220, Note_off_c, 9, 35, 64
10, 57220, Note_off_c, 9, 40, 92
10, 57408, Note_on_c, 9, 85, 48
10, 57412, Note_off_c, 9, 85, 64
10, 57504, Note_on_c, 9, 85, 40
10, 57508, Note_off_c, 9, 85, 64
10, 57600, Note_on_c, 9, 35, 108
10, 57600, Note_on_c, 9, 85, 40
10, 57604, Note_off_c, 9, 85, 64
10, 57604, Note_off_c, 9, 35, 64
10, 57604, Note_on_c, 9, 46, 82
10, 57612, Note_off_c, 9, 46, 64
10, 57792, Note_on_c, 9, 85, 48
10, 57796, Note_off_c, 9, 85, 64
10, 57888, Note_on_c, 9, 85, 41
10, 57892, Note_off_c, 9, 85, 64
10, 57952, Note_on_c, 9, 46, 117
10, 57956, Note_off_c, 9, 46, 64
10, 57984, Note_on_c, 9, 40, 117
10, 57984, Note_on_c, 9, 35, 108
10, 57984, Note_on_c, 9, 85, 43
10, 57988, Note_off_c, 9, 85, 64
10, 57988, Note_off_c, 9, 35, 64
10, 57988, Note_off_c, 9, 40, 92
10, 58176, Note_on_c, 9, 85, 45
10, 58180, Note_off_c, 9, 85, 64
10, 58272, Note_on_c, 9, 85, 40
10, 58276, Note_off_c, 9, 85, 64
10, 58352, Note_on_c, 9, 46, 79
10, 58356, Note_off_c, 9, 46, 64
10, 58368, Note_on_c, 9, 35, 108
10, 58368, Note_on_c, 9, 85, 56
10, 58372, Note_off_c, 9, 85, 64
10, 58372, Note_off_c, 9, 35, 64
10, 58560, Note_on_c, 9, 85, 45
10, 58564, Note_off_c, 9, 85, 64
10, 58656, Note_on_c, 9, 85, 42
10, 58660, Note_off_c, 9, 85, 64
10, 58724, Note_on_c, 9, 46, 117
10, 58728, Note_off_c, 9, 46, 64
10, 58752, Note_on_c, 9, 35, 108
10, 58752, Note_on_c, 9, 45, 82
10, 58752, Note_on_c, 9, 85, 51
10, 58756, Note_off_c, 9, 85, 64
10, 58756, Note_off_c, 9, 45, 64
10, 58756, Note_off_c, 9, 35, 64
10, 58944, Note_on_c, 9, 85, 48
10, 58948, Note_off_c, 9, 85, 64
10, 59040, Note_on_c, 9, 85, 40
10, 59044, Note_off_c, 9, 85, 64
10, 59136, Note_on_c, 9, 35, 109
10, 59136, Note_on_c, 9, 45, 103
10, 59136, Note_on_c, 9, 85, 40
10, 59140, Note_off_c, 9, 85, 64
10, 59140, Note_off_c, 9, 45, 64
10, 59140, Note_off_c, 9, 35, 64
10, 59148, Note_on_c, 9, 46, 70
10, 59156, Note_off_c, 9, 46, 64
10, 59328, Note_on_c, 9, 43, 41
10, 59328, Note_on_c, 9, 45, 90
10, 59328, Note_on_c, 9, 85, 48
10, 59332, Note_off_c, 9, 85, 64
10, 59332, Note_off_c, 9, 45, 64
10, 59332, Note_off_c, 9, 43, 64
10, 59424, Note_on_c, 9, 43, 85
10, 59424, Note_on_c, 9, 85, 41
10, 59428, Note_off_c, 9, 85, 64
10, 59428, Note_off_c, 9, 43, 64
10, 59488, Note_on_c, 9, 46, 117
10, 59496, Note_off_c, 9, 46, 64
10, 59520, Note_on_c, 9, 35, 108
10, 59520, Note_on_c, 9, 85, 43
10, 59524, Note_off_c, 9, 85, 64
10, 59524, Note_off_c, 9, 35, 64
10, 59712, Note_on_c, 9, 43, 111
10, 59712, Note_on_c, 9, 85, 45
10, 59716, Note_off_c, 9, 85, 64
10, 59716, Note_off_c, 9, 43, 64
10, 59808, Note_on_c, 9, 85, 40
10, 59812, Note_off_c, 9, 85, 64
10, 59904, Note_on_c, 9, 35, 108
10, 59904, Note_on_c, 9, 49, 117
10, 59904, Note_on_c, 9, 85, 56
10, 59908, Note_off_c, 9, 85, 64
10, 59908, Note_off_c, 9, 49, 64
10, 59908, Note_off_c, 9, 35, 64
10, 59924, Note_on_c, 9, 46, 80
10, 59928, Note_off_c, 9, 46, 64
10, 60096, Note_on_c, 9, 85, 45
10, 60100, Note_off_c, 9, 85, 64
10, 60192, Note_on_c, 9, 85, 42
10, 60196, Note_off_c, 9, 85, 64
10, 60288, Note_on_c, 9, 40, 117
10, 60288, Note_on_c, 9, 35, 107
10, 60288, Note_on_c, 9, 85, 51
10, 60292, Note_off_c, 9, 85, 64
10, 60292, Note_off_c, 9, 35, 64
10, 60292, Note_off_c, 9, 40, 92
10, 60304, Note_on_c, 9, 46, 117
10, 60308, Note_off_c, 9, 46, 64
10, 60480, Note_on_c, 9, 85, 48
10, 60484, Note_off_c, 9, 85, 64
10, 60576, Note_on_c, 9, 85, 40
10, 60580, Note_off_c, 9, 85, 64
10, 60672, Note_on_c, 9, 35, 108
10, 60672, Note_on_c, 9, 85, 40
10, 60676, Note_off_c, 9, 85, 64
10, 60676, Note_off_c, 9, 35, 64
10, 60692, Note_on_c, 9, 46, 70
10, 60696, Note_off_c, 9, 46, 64
10, 60864, Note_on_c, 9, 85, 48
10, 60868, Note_off_c, 9, 85, 64
10, 60960, Note_on_c, 9, 85, 41
10, 60964, Note_off_c, 9, 85, 64
10, 61036, Note_on_c, 9, 46, 117
10, 61044, Note_off_c, 9, 46, 64
10, 61056, Note_on_c, 9, 40, 117
10, 61056, Note_on_c, 9, 35, 98
10, 61056, Note_on_c, 9, 85, 43
10, 61060, Note_off_c, 9, 85, 64
10, 61060, Note_off_c, 9, 35, 64
10, 61060, Note_off_c, 9, 40, 92
10, 61248, Note_on_c, 9, 35, 95
10, 61248, Note_on_c, 9, 85, 45
10, 61252, Note_off_c, 9, 85, 64
10, 61252, Note_off_c, 9, 35, 64
10, 61344, Note_on_c, 9, 85, 40
10, 61348, Note_off_c, 9, 85, 64
10, 61440, Note_on_c, 9, 35, 108
10, 61440, Note_on_c, 9, 85, 56
10, 61444, Note_off_c, 9, 85, 64
10, 61444, Note_off_c, 9, 35, 64
10, 61452, Note_on_c, 9, 46, 80
10, 61456, Note_off_c, 9, 46, 64
10, 61632, Note_on_c, 9, 85, 45
10, 61636, Note_off_c, 9, 85, 64
10, 61728, Note_on_c, 9, 85, 42
10, 61732, Note_off_c, 9, 85, 64
10, 61808, Note_on_c, 9, 46, 117
10, 61812, Note_off_c, 9, 46, 64
10, 61824, Note_on_c, 9, 40, 117
10, 61824, Note_on_c, 9, 35, 108
10, 61824, Note_on_c, 9, 85, 51
10, 61828, Note_off_c, 9, 85, 64
10, 61828, Note_off_c, 9, 35, 64
10, 61828, Note_off_c, 9, 40, 92
10, 62016, Note_on_c, 9, 85, 48
10, 62020, Note_off_c, 9, 85, 64
10, 62112, Note_on_c, 9, 85, 40
10, 62116, Note_off_c, 9, 85, 64
10, 62208, Note_on_c, 9, 35, 109
10, 62208, Note_on_c, 9, 85, 40
10, 62212, Note_off_c, 9, 85, 64
10, 62212, Note_off_c, 9, 35, 64
10, 62224, Note_on_c, 9, 46, 70
10, 62228, Note_off_c, 9, 46, 64
10, 62400, Note_on_c, 9, 85, 48
10, 62404, Note_off_c, 9, 85, 64
10, 62496, Note_on_c, 9, 85, 41
10, 62500, Note_off_c, 9, 85, 64
10, 62568, Note_on_c, 9, 46, 117
10, 62576, Note_off_c, 9, 46, 64
10, 62592, Note_on_c, 9, 40, 117
10, 62592, Note_on_c, 9, 35, 105
10, 62592, Note_on_c, 9, 85, 43
10, 62596, Note_off_c, 9, 85, 64
10, 62596, Note_off_c, 9, 35, 64
10, 62596, Note_off_c, 9, 40, 92
10, 62784, Note_on_c, 9, 35, 100
10, 62784, Note_on_c, 9, 85, 45
10, 62788, Note_off_c, 9, 85, 64
10, 62788, Note_off_c, 9, 35, 64
10, 62880, Note_on_c, 9, 85, 40
10, 62884, Note_off_c, 9, 85, 64
10, 62976, Note_on_c, 9, 35, 105
10, 62976, Note_on_c, 9, 85, 56
10, 62980, Note_off_c, 9, 85, 64
10, 62980, Note_off_c, 9, 35, 64
10, 62984, Note_on_c, 9, 46, 79
10, 62988, Note_off_c, 9, 46, 64
10, 63168, Note_on_c, 9, 85, 45
10, 63172, Note_off_c, 9, 85, 64
10, 63264, Note_on_c, 9, 85, 42
10, 63268, Note_off_c, 9, 85, 64
10, 63332, Note_on_c, 9, 46, 117
10, 63340, Note_off_c, 9, 46, 64
10, 63360, Note_on_c, 9, 40, 117
10, 63360, Note_on_c, 9, 35, 107
10, 63360, Note_on_c, 9, 85, 51
10, 63364, Note_off_c, 9, 85, 64
10, 63364, Note_off_c, 9, 35, 64
10, 63364, Note_off_c, 9, 40, 92
10, 63552, Note_on_c, 9, 85, 48
10, 63556, Note_off_c, 9, 85, 64
10, 63648, Note_on_c, 9, 85, 40
10, 63652, Note_off_c, 9, 85, 64
10, 63744, Note_on_c, 9, 35, 108
10, 63744, Note_on_c, 9, 85, 40
10, 63748, Note_off_c, 9, 85, 64
10, 63748, Note_off_c, 9, 35, 64
10, 63748, Note_on_c, 9, 46, 82
10, 63756, Note_off_c, 9, 46, 64
10, 63936, Note_on_c, 9, 85, 48
10, 63940, Note_off_c, 9, 85, 64
10, 64032, Note_on_c, 9, 85, 41
10, 64036, Note_off_c, 9, 85, 64
10, 64096, Note_on_c, 9, 46, 117
10, 64100, Note_off_c, 9, 46, 64
10, 64128, Note_on_c, 9, 40, 117
10, 64128, Note_on_c, 9, 35, 108
10, 64128, Note_on_c, 9, 85, 43
10, 64132, Note_off_c, 9, 85, 64
10, 64132, Note_off_c, 9, 35, 64
10, 64132, Note_off_c, 9, 40, 92
10, 64320, Note_on_c, 9, 85, 45
10, 64324, Note_off_c, 9, 85, 64
10, 64416, Note_on_c, 9, 85, 40
10, 64420, Note_off_c, 9, 85, 64
10, 64496, Note_on_c, 9, 46, 79
10, 64500, Note_off_c, 9, 46, 64
10, 64512, Note_on_c, 9, 35, 108
10, 64512, Note_on_c, 9, 85, 56
10, 64516, Note_off_c, 9, 85, 64
10, 64516, Note_off_c, 9, 35, 64
10, 64704, Note_on_c, 9, 85, 45
10, 64708, Note_off_c, 9, 85, 64
10, 64800, Note_on_c, 9, 85, 42
10, 64804, Note_off_c, 9, 85, 64
10, 64868, Note_on_c, 9, 46, 117
10, 64872, Note_off_c, 9, 46, 64
10, 64896, Note_on_c, 9, 40, 117
10, 64896, Note_on_c, 9, 35, 108
10, 64896, Note_on_c, 9, 47, 99
10, 64896, Note_on_c, 9, 85, 51
10, 64900, Note_off_c, 9, 85, 64
10, 64900, Note_off_c, 9, 47, 64
10, 64900, Note_off_c, 9, 35, 64
10, 64900, Note_off_c, 9, 40, 92
10, 65088, Note_on_c, 9, 47, 96
10, 65088, Note_on_c, 9, 85, 48
10, 65092, Note_off_c, 9, 85, 64
10, 65092, Note_off_c, 9, 47, 64
10, 65184, Note_on_c, 9, 85, 40
10, 65188, Note_off_c, 9, 85, 64
10, 65280, Note_on_c, 9, 35, 109
10, 65280, Note_on_c, 9, 85, 40
10, 65284, Note_off_c, 9, 85, 64
10, 65284, Note_off_c, 9, 35, 64
10, 65292, Note_on_c, 9, 46, 70
10, 65300, Note_off_c, 9, 46, 64
10, 65472, Note_on_c, 9, 41, 95
10, 65472, Note_on_c, 9, 85, 48
10, 65476, Note_off_c, 9, 85, 64
10, 65476, Note_off_c, 9, 41, 64
10, 65568, Note_on_c, 9, 85, 41
10, 65572, Note_off_c, 9, 85, 64
10, 65632, Note_on_c, 9, 46, 117
10, 65640, Note_off_c, 9, 46, 64
10, 65664, Note_on_c, 9, 35, 108
10, 65664, Note_on_c, 9, 47, 104
10, 65664, Note_on_c, 9, 85, 43
10, 65668, Note_off_c, 9, 85, 64
10, 65668, Note_off_c, 9, 47, 64
10, 65668, Note_off_c, 9, 35, 64
10, 65856, Note_on_c, 9, 47, 94
10, 65856, Note_on_c, 9, 85, 45
10, 65860, Note_off_c, 9, 85, 64
10, 65860, Note_off_c, 9, 47, 64
10, 65952, Note_on_c, 9, 85, 40
10, 65956, Note_off_c, 9, 85, 64
10, 66048, Note_on_c, 9, 45, 110
10, 66048, Note_on_c, 9, 40, 117
10, 66048, Note_on_c, 9, 35, 117
10, 66048, Note_on_c, 9, 85, 71
10, 66052, Note_off_c, 9, 85, 64
10, 66052, Note_off_c, 9, 35, 64
10, 66052, Note_off_c, 9, 40, 92
10, 66052, Note_off_c, 9, 45, 92
10, 66240, Note_on_c, 9, 45, 60
10, 66240, Note_on_c, 9, 85, 60
10, 66244, Note_off_c, 9, 85, 64
10, 66244, Note_off_c, 9, 45, 92
10, 66336, Note_on_c, 9, 85, 57
10, 66340, Note_off_c, 9, 85, 64
10, 66432, Note_on_c, 9, 45, 110
10, 66432, Note_on_c, 9, 40, 117
10, 66432, Note_on_c, 9, 35, 117
10, 66432, Note_on_c, 9, 85, 66
10, 66436, Note_off_c, 9, 85, 64
10, 66436, Note_off_c, 9, 35, 64
10, 66436, Note_off_c, 9, 40, 92
10, 66436, Note_off_c, 9, 45, 92
10, 66624, Note_on_c, 9, 45, 60
10, 66624, Note_on_c, 9, 85, 63
10, 66628, Note_off_c, 9, 85, 64
10, 66628, Note_off_c, 9, 45, 92
10, 66720, Note_on_c, 9, 85, 55
10, 66724, Note_off_c, 9, 85, 64
10, 66816, Note_on_c, 9, 45, 110
10, 66816, Note_on_c, 9, 40, 117
10, 66816, Note_on_c, 9, 35, 117
10, 66816, Note_on_c, 9, 85, 55
10, 66820, Note_off_c, 9, 85, 64
10, 66820, Note_off_c, 9, 35, 64
10, 66820, Note_off_c, 9, 40, 92
10, 66820, Note_off_c, 9, 45, 92
10, 67008, Note_on_c, 9, 45, 60
10, 67008, Note_on_c, 9, 85, 63
10, 67012, Note_off_c, 9, 85, 64
10, 67012, Note_off_c, 9, 45, 92
10, 67104, Note_on_c, 9, 85, 56
10, 67108, Note_off_c, 9, 85, 64
10, 67200, Note_on_c, 9, 45, 110
10, 67200, Note_on_c, 9, 40, 117
10, 67200, Note_on_c, 9, 35, 117
10, 67200, Note_on_c, 9, 85, 58
10, 67204, Note_off_c, 9, 85, 64
10, 67204, Note_off_c, 9, 35, 64
10, 67204, Note_off_c, 9, 40, 92
10, 67204, Note_off_c, 9, 45, 92
10, 67392, Note_on_c, 9, 45, 60
10, 67392, Note_on_c, 9, 85, 60
10, 67396, Note_off_c, 9, 85, 64
10, 67396, Note_off_c, 9, 45, 92
10, 67488, Note_on_c, 9, 85, 55
10, 67492, Note_off_c, 9, 85, 64
10, 67584, Note_on_c, 9, 45, 110
10, 67584, Note_on_c, 9, 40, 117
10, 67584, Note_on_c, 9, 35, 117
10, 67584, Note_on_c, 9, 85, 71
10, 67588, Note_off_c, 9, 85, 64
10, 67588, Note_off_c, 9, 35, 64
10, 67588, Note_off_c, 9, 40, 92
10, 67588, Note_off_c, 9, 45, 92
10, 67776, Note_on_c, 9, 45, 60
10, 67776, Note_on_c, 9, 85, 60
10, 67780, Note_off_c, 9, 85, 64
10, 67780, Note_off_c, 9, 45, 92
10, 67872, Note_on_c, 9, 85, 57
10, 67876, Note_off_c, 9, 85, 64
10, 67968, Note_on_c, 9, 45, 110
10, 67968, Note_on_c, 9, 40, 117
10, 67968, Note_on_c, 9, 35, 117
10, 67968, Note_on_c, 9, 85, 66
10, 67972, Note_off_c, 9, 85, 64
10, 67972, Note_off_c, 9, 35, 64
10, 67972, Note_off_c, 9, 40, 92
10, 67972, Note_off_c, 9, 45, 92
10, 68160, Note_on_c, 9, 45, 60
10, 68160, Note_on_c, 9, 85, 63
10, 68164, Note_off_c, 9, 85, 64
10, 68164, Note_off_c, 9, 45, 92
10, 68256, Note_on_c, 9, 85, 55
10, 68260, Note_off_c, 9, 85, 64
10, 68352, Note_on_c, 9, 45, 110
10, 68352, Note_on_c, 9, 40, 117
10, 68352, Note_on_c, 9, 35, 117
10, 68352, Note_on_c, 9, 85, 55
10, 68356, Note_off_c, 9, 85, 64
10, 68356, Note_off_c, 9, 35, 64
10, 68356, Note_off_c, 9, 40, 92
10, 68356, Note_off_c, 9, 45, 92
10, 68544, Note_on_c, 9, 45, 60
10, 68544, Note_on_c, 9, 85, 63
10, 68548, Note_off_c, 9, 85, 64
10, 68548, Note_off_c, 9, 45, 92
10, 68640, Note_on_c, 9, 85, 56
10, 68644, Note_off_c, 9, 85, 64
10, 68736, Note_on_c, 9, 45, 110
10, 68736, Note_on_c, 9, 40, 117
10, 68736, Note_on_c, 9, 35, 117
10, 68736, Note_on_c, 9, 85, 58
10, 68740, Note_off_c, 9, 85, 64
10, 68740, Note_off_c, 9, 35, 64
10, 68740, Note_off_c, 9, 40, 92
10, 68740, Note_off_c, 9, 45, 92
10, 68928, Note_on_c, 9, 45, 60
10, 68928, Note_on_c, 9, 85, 60
10, 68932, Note_off_c, 9, 85, 64
10, 68932, Note_off_c, 9, 45, 92
10, 69024, Note_on_c, 9, 85, 55
10, 69028, Note_off_c, 9, 85, 64
10, 69120, Note_on_c, 9, 45, 110
10, 69120, Note_on_c, 9, 40, 117
10, 69120, Note_on_c, 9, 35, 117
10, 69120, Note_on_c, 9, 85, 71
10, 69124, Note_off_c, 9, 85, 64
10, 69124, Note_off_c, 9, 35, 64
10, 69124, Note_off_c, 9, 40, 92
10, 69124, Note_off_c, 9, 45, 92
10, 69312, Note_on_c, 9, 45, 60
10, 69312, Note_on_c, 9, 85, 60
10, 69316, Note_off_c, 9, 85, 64
10, 69316, Note_off_c, 9, 45, 92
10, 69408, Note_on_c, 9, 85, 57
10, 69412, Note_off_c, 9, 85, 64
10, 69504, Note_on_c, 9, 45, 110
10, 69504, Note_on_c, 9, 40, 117
10, 69504, Note_on_c, 9, 35, 117
10, 69504, Note_on_c, 9, 85, 66
10, 69508, Note_off_c, 9, 85, 64
10, 69508, Note_off_c, 9, 35, 64
10, 69508, Note_off_c, 9, 40, 92
10, 69508, Note_off_c, 9, 45, 92
10, 69696, Note_on_c, 9, 45, 60
10, 69696, Note_on_c, 9, 85, 63
10, 69700, Note_off_c, 9, 85, 64
10, 69700, Note_off_c, 9, 45, 92
10, 69792, Note_on_c, 9, 85, 55
10, 69796, Note_off_c, 9, 85, 64
10, 69888, Note_on_c, 9, 45, 110
10, 69888, Note_on_c, 9, 40, 117
10, 69888, Note_on_c, 9, 35, 117
10, 69888, Note_on_c, 9, 85, 55
10, 69892, Note_off_c, 9, 85, 64
10, 69892, Note_off_c, 9, 35, 64
10, 69892, Note_off_c, 9, 40, 92
10, 69892, Note_off_c, 9, 45, 92
10, 70080, Note_on_c, 9, 45, 60
10, 70080, Note_on_c, 9, 85, 63
10, 70084, Note_off_c, 9, 85, 64
10, 70084, Note_off_c, 9, 45, 92
10, 70176, Note_on_c, 9, 85, 56
10, 70180, Note_off_c, 9, 85, 64
10, 70272, Note_on_c, 9, 45, 110
10, 70272, Note_on_c, 9, 40, 117
10, 70272, Note_on_c, 9, 35, 117
10, 70272, Note_on_c, 9, 85, 58
10, 70276, Note_off_c, 9, 85, 64
10, 70276, Note_off_c, 9, 35, 64
10, 70276, Note_off_c, 9, 40, 92
10, 70276, Note_off_c, 9, 45, 92
10, 70464, Note_on_c, 9, 45, 60
10, 70464, Note_on_c, 9, 85, 60
10, 70468, Note_off_c, 9, 85, 64
10, 70468, Note_off_c, 9, 45, 92
10, 70560, Note_on_c, 9, 85, 55
10, 70564, Note_off_c, 9, 85, 64
10, 70656, Note_on_c, 9, 45, 110
10, 70656, Note_on_c, 9, 40, 117
10, 70656, Note_on_c, 9, 35, 117
10, 70656, Note_on_c, 9, 85, 71
10, 70660, Note_off_c, 9, 85, 64
10, 70660, Note_off_c, 9, 35, 64
10, 70660, Note_off_c, 9, 40, 92
10, 70660, Note_off_c, 9, 45, 92
10, 70848, Note_on_c, 9, 45, 60
10, 70848, Note_on_c, 9, 85, 60
10, 70852, Note_off_c, 9, 85, 64
10, 70852, Note_off_c, 9, 45, 92
10, 70944, Note_on_c, 9, 85, 57
10, 70948, Note_off_c, 9, 85, 64
10, 71040, Note_on_c, 9, 45, 110
10, 71040, Note_on_c, 9, 40, 117
10, 71040, Note_on_c, 9, 35, 117
10, 71040, Note_on_c, 9, 85, 66
10, 71044, Note_off_c, 9, 85, 64
10, 71044, Note_off_c, 9, 35, 64
10, 71044, Note_off_c, 9, 40, 92
10, 71044, Note_off_c, 9, 45, 92
10, 71232, Note_on_c, 9, 45, 60
10, 71232, Note_on_c, 9, 85, 63
10, 71236, Note_off_c, 9, 85, 64
10, 71236, Note_off_c, 9, 45, 92
10, 71328, Note_on_c, 9, 85, 55
10, 71332, Note_off_c, 9, 85, 64
10, 71424, Note_on_c, 9, 45, 110
10, 71424, Note_on_c, 9, 40, 117
10, 71424, Note_on_c, 9, 35, 117
10, 71424, Note_on_c, 9, 85, 55
10, 71428, Note_off_c, 9, 85, 64
10, 71428, Note_off_c, 9, 35, 64
10, 71428, Note_off_c, 9, 40, 92
10, 71428, Note_off_c, 9, 45, 92
10, 71616, Note_on_c, 9, 45, 60
10, 71616, Note_on_c, 9, 85, 63
10, 71620, Note_off_c, 9, 85, 64
10, 71620, Note_off_c, 9, 45, 92
10, 71712, Note_on_c, 9, 85, 56
10, 71716, Note_off_c, 9, 85, 64
10, 71808, Note_on_c, 9, 45, 110
10, 71808, Note_on_c, 9, 40, 117
10, 71808, Note_on_c, 9, 35, 117
10, 71808, Note_on_c, 9, 85, 58
10, 71812, Note_off_c, 9, 85, 64
10, 71812, Note_off_c, 9, 35, 64
10, 71812, Note_off_c, 9, 40, 92
10, 71812, Note_off_c, 9, 45, 92
10, 72000, Note_on_c, 9, 45, 60
10, 72000, Note_on_c, 9, 85, 60
10, 72004, Note_off_c, 9, 85, 64
10, 72004, Note_off_c, 9, 45, 92
10, 72096, Note_on_c, 9, 85, 55
10, 72100, Note_off_c, 9, 85, 64
10, 72192, Note_on_c, 9, 45, 110
10, 72192, Note_on_c, 9, 40, 117
10, 72192, Note_on_c, 9, 35, 117
10, 72192, Note_on_c, 9, 85, 71
10, 72196, Note_off_c, 9, 85, 64
10, 72196, Note_off_c, 9, 35, 64
10, 72196, Note_off_c, 9, 40, 92
10, 72196, Note_off_c, 9, 45, 92
10, 72384, Note_on_c, 9, 45, 60
10, 72384, Note_on_c, 9, 85, 60
10, 72388, Note_off_c, 9, 85, 64
10, 72388, Note_off_c, 9, 45, 92
10, 72480, Note_on_c, 9, 85, 57
10, 72484, Note_off_c, 9, 85, 64
10, 72576, Note_on_c, 9, 45, 110
10, 72576, Note_on_c, 9, 40, 117
10, 72576, Note_on_c, 9, 35, 117
10, 72576, Note_on_c, 9, 85, 66
10, 72580, Note_off_c, 9, 85, 64
10, 72580, Note_off_c, 9, 35, 64
10, 72580, Note_off_c, 9, 40, 92
10, 72580, Note_off_c, 9, 45, 92
10, 72768, Note_on_c, 9, 45, 60
10, 72768, Note_on_c, 9, 85, 63
10, 72772, Note_off_c, 9, 85, 64
10, 72772, Note_off_c, 9, 45, 92
10, 72864, Note_on_c, 9, 85, 55
10, 72868, Note_off_c, 9, 85, 64
10, 72960, Note_on_c, 9, 45, 110
10, 72960, Note_on_c, 9, 40, 117
10, 72960, Note_on_c, 9, 35, 117
10, 72960, Note_on_c, 9, 85, 55
10, 72964, Note_off_c, 9, 85, 64
10, 72964, Note_off_c, 9, 35, 64
10, 72964, Note_off_c, 9, 40, 92
10, 72964, Note_off_c, 9, 45, 92
10, 73152, Note_on_c, 9, 45, 60
10, 73152, Note_on_c, 9, 85, 63
10, 73156, Note_off_c, 9, 85, 64
10, 73156, Note_off_c, 9, 45, 92
10, 73248, Note_on_c, 9, 85, 56
10, 73252, Note_off_c, 9, 85, 64
10, 73344, Note_on_c, 9, 45, 110
10, 73344, Note_on_c, 9, 40, 117
10, 73344, Note_on_c, 9, 35, 117
10, 73344, Note_on_c, 9, 85, 58
10, 73348, Note_off_c, 9, 85, 64
10, 73348, Note_off_c, 9, 35, 64
10, 73348, Note_off_c, 9, 40, 92
10, 73348, Note_off_c, 9, 45, 92
10, 73536, Note_on_c, 9, 45, 60
10, 73536, Note_on_c, 9, 85, 60
10, 73540, Note_off_c, 9, 85, 64
10, 73540, Note_off_c, 9, 45, 92
10, 73632, Note_on_c, 9, 85, 55
10, 73636, Note_off_c, 9, 85, 64
10, 73728, Note_on_c, 9, 45, 110
10, 73728, Note_on_c, 9, 40, 117
10, 73728, Note_on_c, 9, 35, 117
10, 73728, Note_on_c, 9, 85, 71
10, 73732, Note_off_c, 9, 85, 64
10, 73732, Note_off_c, 9, 35, 64
10, 73732, Note_off_c, 9, 40, 92
10, 73732, Note_off_c, 9, 45, 92
10, 73920, Note_on_c, 9, 45, 60
10, 73920, Note_on_c, 9, 85, 60
10, 73924, Note_off_c, 9, 85, 64
10, 73924, Note_off_c, 9, 45, 92
10, 74016, Note_on_c, 9, 85, 57
10, 74020, Note_off_c, 9, 85, 64
10, 74112, Note_on_c, 9, 45, 110
10, 74112, Note_on_c, 9, 40, 117
10, 74112, Note_on_c, 9, 35, 117
10, 74112, Note_on_c, 9, 85, 66
10, 74116, Note_off_c, 9, 85, 64
10, 74116, Note_off_c, 9, 35, 64
10, 74116, Note_off_c, 9, 40, 92
10, 74116, Note_off_c, 9, 45, 92
10, 74304, Note_on_c, 9, 45, 60
10, 74304, Note_on_c, 9, 85, 63
10, 74308, Note_off_c, 9, 85, 64
10, 74308, Note_off_c, 9, 45, 92
10, 74400, Note_on_c, 9, 85, 55
10, 74404, Note_off_c, 9, 85, 64
10, 74496, Note_on_c, 9, 45, 110
10, 74496, Note_on_c, 9, 40, 117
10, 74496, Note_on_c, 9, 35, 117
10, 74496, Note_on_c, 9, 85, 55
10, 74500, Note_off_c, 9, 85, 64
10, 74500, Note_off_c, 9, 35, 64
10, 74500, Note_off_c, 9, 40, 92
10, 74500, Note_off_c, 9, 45, 92
10, 74688, Note_on_c, 9, 45, 60
10, 74688, Note_on_c, 9, 85, 63
10, 74692, Note_off_c, 9, 85, 64
10, 74692, Note_off_c, 9, 45, 92
10, 74784, Note_on_c, 9, 85, 56
10, 74788, Note_off_c, 9, 85, 64
10, 74880, Note_on_c, 9, 45, 110
10, 74880, Note_on_c, 9, 40, 117
10, 74880, Note_on_c, 9, 35, 117
10, 74880, Note_on_c, 9, 85, 58
10, 74884, Note_off_c, 9, 85, 64
10, 74884, Note_off_c, 9, 35, 64
10, 74884, Note_off_c, 9, 40, 92
10, 74884, Note_off_c, 9, 45, 92
10, 75072, Note_on_c, 9, 45, 60
10, 75072, Note_on_c, 9, 85, 60
10, 75076, Note_off_c, 9, 85, 64
10, 75076, Note_off_c, 9, 45, 92
10, 75168, Note_on_c, 9, 85, 55
10, 75172, Note_off_c, 9, 85, 64
10, 75264, Note_on_c, 9, 45, 110
10, 75264, Note_on_c, 9, 40, 117
10, 75264, Note_on_c, 9, 35, 117
10, 75264, Note_on_c, 9, 85, 71
10, 75268, Note_off_c, 9, 85, 64
10, 75268, Note_off_c, 9, 35, 64
10, 75268, Note_off_c, 9, 40, 92
10, 75268, Note_off_c, 9, 45, 92
10, 75456, Note_on_c, 9, 45, 60
10, 75456, Note_on_c, 9, 85, 60
10, 75460, Note_off_c, 9, 85, 64
10, 75460, Note_off_c, 9, 45, 92
10, 75552, Note_on_c, 9, 85, 57
10, 75556, Note_off_c, 9, 85, 64
10, 75648, Note_on_c, 9, 45, 110
10, 75648, Note_on_c, 9, 40, 117
10, 75648, Note_on_c, 9, 35, 117
10, 75648, Note_on_c, 9, 85, 66
10, 75652, Note_off_c, 9, 85, 64
10, 75652, Note_off_c, 9, 35, 64
10, 75652, Note_off_c, 9, 40, 92
10, 75652, Note_off_c, 9, 45, 92
10, 75840, Note_on_c, 9, 45, 60
10, 75840, Note_on_c, 9, 85, 63
10, 75844, Note_off_c, 9, 85, 64
10, 75844, Note_off_c, 9, 45, 92
10, 75936, Note_on_c, 9, 85, 55
10, 75940, Note_off_c, 9, 85, 64
10, 76032, Note_on_c, 9, 45, 110
10, 76032, Note_on_c, 9, 40, 117
10, 76032, Note_on_c, 9, 35, 117
10, 76032, Note_on_c, 9, 85, 55
10, 76036, Note_off_c, 9, 85, 64
10, 76036, Note_off_c, 9, 35, 64
10, 76036, Note_off_c, 9, 40, 92
10, 76036, Note_off_c, 9, 45, 92
10, 76224, Note_on_c, 9, 45, 60
10, 76224, Note_on_c, 9, 85, 63
10, 76228, Note_off_c, 9, 85, 64
10, 76228, Note_off_c, 9, 45, 92
10, 76320, Note_on_c, 9, 85, 56
10, 76324, Note_off_c, 9, 85, 64
10, 76416, Note_on_c, 9, 45, 110
10, 76416, Note_on_c, 9, 40, 117
10, 76416, Note_on_c, 9, 35, 117
10, 76416, Note_on_c, 9, 85, 58
10, 76420, Note_off_c, 9, 85, 64
10, 76420, Note_off_c, 9, 35, 64
10, 76420, Note_off_c, 9, 40, 92
10, 76420, Note_off_c, 9, 45, 92
10, 76608, Note_on_c, 9, 45, 60
10, 76608, Note_on_c, 9, 85, 60
10, 76612, Note_off_c, 9, 85, 64
10, 76612, Note_off_c, 9, 45, 92
10, 76704, Note_on_c, 9, 85, 55
10, 76708, Note_off_c, 9, 85, 64
10, 76800, Note_on_c, 9, 45, 110
10, 76800, Note_on_c, 9, 40, 117
10, 76800, Note_on_c, 9, 35, 117
10, 76800, Note_on_c, 9, 85, 71
10, 76804, Note_off_c, 9, 85, 64
10, 76804, Note_off_c, 9, 35, 64
10, 76804, Note_off_c, 9, 40, 92
10, 76804, Note_off_c, 9, 45, 92
10, 76992, Note_on_c, 9, 45, 60
10, 76992, Note_on_c, 9, 85, 60
10, 76996, Note_off_c, 9, 85, 64
10, 76996, Note_off_c, 9, 45, 92
10, 77088, Note_on_c, 9, 85, 57
10, 77092, Note_off_c, 9, 85, 64
10, 77184, Note_on_c, 9, 45, 110
10, 77184, Note_on_c, 9, 40, 117
10, 77184, Note_on_c, 9, 35, 117
10, 77184, Note_on_c, 9, 85, 66
10, 77188, Note_off_c, 9, 85, 64
10, 77188, Note_off_c, 9, 35, 64
10, 77188, Note_off_c, 9, 40, 92
10, 77188, Note_off_c, 9, 45, 92
10, 77376, Note_on_c, 9, 45, 60
10, 77376, Note_on_c, 9, 85, 63
10, 77380, Note_off_c, 9, 85, 64
10, 77380, Note_off_c, 9, 45, 92
10, 77472, Note_on_c, 9, 85, 55
10, 77476, Note_off_c, 9, 85, 64
10, 77568, Note_on_c, 9, 45, 110
10, 77568, Note_on_c, 9, 40, 117
10, 77568, Note_on_c, 9, 35, 117
10, 77568, Note_on_c, 9, 85, 55
10, 77572, Note_off_c, 9, 85, 64
10, 77572, Note_off_c, 9, 35, 64
10, 77572, Note_off_c, 9, 40, 92
10, 77572, Note_off_c, 9, 45, 92
10, 77760, Note_on_c, 9, 45, 60
10, 77760, Note_on_c, 9, 85, 63
10, 77764, Note_off_c, 9, 85, 64
10, 77764, Note_off_c, 9, 45, 92
10, 77856, Note_on_c, 9, 85, 56
10, 77860, Note_off_c, 9, 85, 64
10, 77952, Note_on_c, 9, 45, 110
10, 77952, Note_on_c, 9, 40, 117
10, 77952, Note_on_c, 9, 35, 117
10, 77952, Note_on_c, 9, 85, 58
10, 77956, Note_off_c, 9, 85, 64
10, 77956, Note_off_c, 9, 35, 64
10, 77956, Note_off_c, 9, 40, 92
10, 77956, Note_off_c, 9, 45, 92
10, 78144, Note_on_c, 9, 45, 60
10, 78144, Note_on_c, 9, 85, 60
10, 78148, Note_off_c, 9, 85, 64
10, 78148, Note_off_c, 9, 45, 92
10, 78240, Note_on_c, 9, 85, 55
10, 78244, Note_off_c, 9, 85, 64
10, 78336, Note_on_c, 9, 35, 108
10, 78336, Note_on_c, 9, 49, 117
10, 78336, Note_on_c, 9, 85, 56
10, 78340, Note_off_c, 9, 85, 64
10, 78340, Note_off_c, 9, 49, 64
10, 78340, Note_off_c, 9, 35, 64
10, 78356, Note_on_c, 9, 46, 80
10, 78360, Note_off_c, 9, 46, 64
10, 78528, Note_on_c, 9, 85, 45
10, 78532, Note_off_c, 9, 85, 64
10, 78624, Note_on_c, 9, 85, 42
10, 78628, Note_off_c, 9, 85, 64
10, 78720, Note_on_c, 9, 40, 117
10, 78720, Note_on_c, 9, 35, 107
10, 78720, Note_on_c, 9, 85, 51
10, 78724, Note_off_c, 9, 85, 64
10, 78724, Note_off_c, 9, 35, 64
10, 78724, Note_off_c, 9, 40, 92
10, 78736, Note_on_c, 9, 46, 117
10, 78740, Note_off_c, 9, 46, 64
10, 78912, Note_on_c, 9, 85, 48
10, 78916, Note_off_c, 9, 85, 64
10, 79008, Note_on_c, 9, 85, 40
10, 79012, Note_off_c, 9, 85, 64
10, 79104, Note_on_c, 9, 35, 108
10, 79104, Note_on_c, 9, 85, 40
10, 79108, Note_off_c, 9, 85, 64
10, 79108, Note_off_c, 9, 35, 64
10, 79124, Note_on_c, 9, 46, 70
10, 79128, Note_off_c, 9, 46, 64
10, 79296, Note_on_c, 9, 85, 48
10, 79300, Note_off_c, 9, 85, 64
10, 79392, Note_on_c, 9, 85, 41
10, 79396, Note_off_c, 9, 85, 64
10, 79468, Note_on_c, 9, 46, 117
10, 79476, Note_off_c, 9, 46, 64
10, 79488, Note_on_c, 9, 40, 117
10, 79488, Note_on_c, 9, 35, 98
10, 79488, Note_on_c, 9, 85, 43
10, 79492, Note_off_c, 9, 85, 64
10, 79492, Note_off_c, 9, 35, 64
10, 79492, Note_off_c, 9, 40, 92
10, 79680, Note_on_c, 9, 35, 95
10, 79680, Note_on_c, 9, 85, 45
10, 79684, Note_off_c, 9, 85, 64
10, 79684, Note_off_c, 9, 35, 64
10, 79776, Note_on_c, 9, 85, 40
10, 79780, Note_off_c, 9, 85, 64
10, 79872, Note_on_c, 9, 35, 108
10, 79872, Note_on_c, 9, 85, 56
10, 79876, Note_off_c, 9, 85, 64
10, 79876, Note_off_c, 9, 35, 64
10, 79884, Note_on_c, 9, 46, 80
10, 79888, Note_off_c, 9, 46, 64
10, 80064, Note_on_c, 9, 85, 45
10, 80068, Note_off_c, 9, 85, 64
10, 80160, Note_on_c, 9, 85, 42
10, 80164, Note_off_c, 9, 85, 64
10, 80240, Note_on_c, 9, 46, 117
10, 80244, Note_off_c, 9, 46, 64
10, 80256, Note_on_c, 9, 40, 117
10, 80256, Note_on_c, 9, 35, 108
10, 80256, Note_on_c, 9, 85, 51
10, 80260, Note_off_c, 9, 85, 64
10, 80260, Note_off_c, 9, 35, 64
10, 80260, Note_off_c, 9, 40, 92
10, 80448, Note_on_c, 9, 85, 48
10, 80452, Note_off_c, 9, 85, 64
10, 80544, Note_on_c, 9, 85, 40
10, 80548, Note_off_c, 9, 85, 64
10, 80640, Note_on_c, 9, 35, 109
10, 80640, Note_on_c, 9, 85, 40
10, 80644, Note_off_c, 9, 85, 64
10, 80644, Note_off_c, 9, 35, 64
10, 80656, Note_on_c, 9, 46, 70
10, 80660, Note_off_c, 9, 46, 64
10, 80832, Note_on_c, 9, 85, 48
10, 80836, Note_off_c, 9, 85, 64
10, 80928, Note_on_c, 9, 85, 41
10, 80932, Note_off_c, 9, 85, 64
10, 81000, Note_on_c, 9, 46, 117
10, 81008, Note_off_c, 9, 46, 64
10, 81024, Note_on_c, 9, 40, 117
10, 81024, Note_on_c, 9, 35, 105
10, 81024, Note_on_c, 9, 85, 43
10, 81028, Note_off_c, 9, 85, 64
10, 81028, Note_off_c, 9, 35, 64
10, 81028, Note_off_c, 9, 40, 92
10, 81216, Note_on_c, 9, 35, 100
10, 81216, Note_on_c, 9, 85, 45
10, 81220, Note_off_c, 9, 85, 64
10, 81220, Note_off_c, 9, 35, 64
10, 81312, Note_on_c, 9, 85, 40
10, 81316, Note_off_c, 9, 85, 64
10, 81408, Note_on_c, 9, 35, 105
10, 81408, Note_on_c, 9, 85, 56
10, 81412, Note_off_c, 9, 85, 64
10, 81412, Note_off_c, 9, 35, 64
10, 81416, Note_on_c, 9, 46, 79
10, 81420, Note_off_c, 9, 46, 64
10, 81600, Note_on_c, 9, 85, 45
10, 81604, Note_off_c, 9, 85, 64
10, 81696, Note_on_c, 9, 85, 42
10, 81700, Note_off_c, 9, 85, 64
10, 81764, Note_on_c, 9, 46, 117
10, 81772, Note_off_c, 9, 46, 64
10, 81792, Note_on_c, 9, 40, 117
10, 81792, Note_on_c, 9, 35, 107
10, 81792, Note_on_c, 9, 85, 51
10, 81796, Note_off_c, 9, 85, 64
10, 81796, Note_off_c, 9, 35, 64
10, 81796, Note_off_c, 9, 40, 92
10, 81984, Note_on_c, 9, 85, 48
10, 81988, Note_off_c, 9, 85, 64
10, 82080, Note_on_c, 9, 85, 40
10, 82084, Note_off_c, 9, 85, 64
10, 82176, Note_on_c, 9, 35, 108
10, 82176, Note_on_c, 9, 85, 40
10, 82180, Note_off_c, 9, 85, 64
10, 82180, Note_off_c, 9, 35, 64
10, 82180, Note_on_c, 9, 46, 82
10, 82188, Note_off_c, 9, 46, 64
10, 82368, Note_on_c, 9, 85, 48
10, 82372, Note_off_c, 9, 85, 64
10, 82464, Note_on_c, 9, 85, 41
10, 82468, Note_off_c, 9, 85, 64
10, 82528, Note_on_c, 9, 46, 117
10, 82532, Note_off_c, 9, 46, 64
10, 82560, Note_on_c, 9, 40, 117
10, 82560, Note_on_c, 9, 35, 108
10, 82560, Note_on_c, 9, 85, 43
10, 82564, Note_off_c, 9, 85, 64
10, 82564, Note_off_c, 9, 35, 64
10, 82564, Note_off_c, 9, 40, 92
10, 82752, Note_on_c, 9, 85, 45
10, 82756, Note_off_c, 9, 85, 64
10, 82848, Note_on_c, 9, 85, 40
10, 82852, Note_off_c, 9, 85, 64
10, 82928, Note_on_c, 9, 46, 79
10, 82932, Note_off_c, 9, 46, 64
10, 82944, Note_on_c, 9, 35, 108
10, 82944, Note_on_c, 9, 85, 56
10, 82948, Note_off_c, 9, 85, 64
10, 82948, Note_off_c, 9, 35, 64
10, 83136, Note_on_c, 9, 85, 45
10, 83140, Note_off_c, 9, 85, 64
10, 83232, Note_on_c, 9, 85, 42
10, 83236, Note_off_c, 9, 85, 64
10, 83300, Note_on_c, 9, 46, 117
10, 83304, Note_off_c, 9, 46, 64
10, 83328, Note_on_c, 9, 35, 108
10, 83328, Note_on_c, 9, 45, 82
10, 83328, Note_on_c, 9, 85, 51
10, 83332, Note_off_c, 9, 85, 64
10, 83332, Note_off_c, 9, 45, 64
10, 83332, Note_off_c, 9, 35, 64
10, 83520, Note_on_c, 9, 85, 48
10, 83524, Note_off_c, 9, 85, 64
10, 83616, Note_on_c, 9, 85, 40
10, 83620, Note_off_c, 9, 85, 64
10, 83712, Note_on_c, 9, 35, 109
10, 83712, Note_on_c, 9, 45, 103
10, 83712, Note_on_c, 9, 85, 40
10, 83716, Note_off_c, 9, 85, 64
10, 83716, Note_off_c, 9, 45, 64
10, 83716, Note_off_c, 9, 35, 64
10, 83724, Note_on_c, 9, 46, 70
10, 83732, Note_off_c, 9, 46, 64
10, 83904, Note_on_c, 9, 43, 41
10, 83904, Note_on_c, 9, 45, 90
10, 83904, Note_on_c, 9, 85, 48
10, 83908, Note_off_c, 9, 85, 64
10, 83908, Note_off_c, 9, 45, 64
10, 83908, Note_off_c, 9, 43, 64
10, 84000, Note_on_c, 9, 43, 85
10, 84000, Note_on_c, 9, 85, 41
10, 84004, Note_off_c, 9, 85, 64
10, 84004, Note_off_c, 9, 43, 64
10, 84064, Note_on_c, 9, 46, 117
10, 84072, Note_off_c, 9, 46, 64
10, 84096, Note_on_c, 9, 35, 108
10, 84096, Note_on_c, 9, 85, 43
10, 84100, Note_off_c, 9, 85, 64
10, 84100, Note_off_c, 9, 35, 64
10, 84288, Note_on_c, 9, 43, 111
10, 84288, Note_on_c, 9, 85, 45
10, 84292, Note_off_c, 9, 85, 64
10, 84292, Note_off_c, 9, 43, 64
10, 84384, Note_on_c, 9, 85, 40
10, 84388, Note_off_c, 9, 85, 64
10, 84480, Note_on_c, 9, 35, 108
10, 84480, Note_on_c, 9, 49, 117
10, 84480, Note_on_c, 9, 85, 56
10, 84484, Note_off_c, 9, 85, 64
10, 84484, Note_off_c, 9, 49, 64
10, 84484, Note_off_c, 9, 35, 64
10, 84500, Note_on_c, 9, 46, 80
10, 84504, Note_off_c, 9, 46, 64
10, 84672, Note_on_c, 9, 85, 45
10, 84676, Note_off_c, 9, 85, 64
10, 84768, Note_on_c, 9, 85, 42
10, 84772, Note_off_c, 9, 85, 64
10, 84864, Note_on_c, 9, 40, 117
10, 84864, Note_on_c, 9, 35, 107
10, 84864, Note_on_c, 9, 85, 51
10, 84868, Note_off_c, 9, 85, 64
10, 84868, Note_off_c, 9, 35, 64
10, 84868, Note_off_c, 9, 40, 92
10, 84880, Note_on_c, 9, 46, 117
10, 84884, Note_off_c, 9, 46, 64
10, 85056, Note_on_c, 9, 85, 48
10, 85060, Note_off_c, 9, 85, 64
10, 85152, Note_on_c, 9, 85, 40
10, 85156, Note_off_c, 9, 85, 64
10, 85248, Note_on_c, 9, 35, 108
10, 85248, Note_on_c, 9, 85, 40
10, 85252, Note_off_c, 9, 85, 64
10, 85252, Note_off_c, 9, 35, 64
10, 85268, Note_on_c, 9, 46, 70
10, 85272, Note_off_c, 9, 46, 64
10, 85440, Note_on_c, 9, 85, 48
10, 85444, Note_off_c, 9, 85, 64
10, 85536, Note_on_c, 9, 85, 41
10, 85540, Note_off_c, 9, 85, 64
10, 85612, Note_on_c, 9, 46, 117
10, 85620, Note_off_c, 9, 46, 64
10, 85632, Note_on_c, 9, 40, 117
10, 85632, Note_on_c, 9, 35, 98
10, 85632, Note_on_c, 9, 85, 43
10, 85636, Note_off_c, 9, 85, 64
10, 85636, Note_off_c, 9, 35, 64
10, 85636, Note_off_c, 9, 40, 92
10, 85824, Note_on_c, 9, 35, 95
10, 85824, Note_on_c, 9, 85, 45
10, 85828, Note_off_c, 9, 85, 64
10, 85828, Note_off_c, 9, 35, 64
10, 85920, Note_on_c, 9, 85, 40
10, 85924, Note_off_c, 9, 85, 64
10, 86016, Note_on_c, 9, 35, 108
10, 86016, Note_on_c, 9, 85, 56
10, 86020, Note_off_c, 9, 85, 64
10, 86020, Note_off_c, 9, 35, 64
10, 86028, Note_on_c, 9, 46, 80
10, 86032, Note_off_c, 9, 46, 64
10, 86208, Note_on_c, 9, 85, 45
10, 86212, Note_off_c, 9, 85, 64
10, 86304, Note_on_c, 9, 85, 42
10, 86308, Note_off_c, 9, 85, 64
10, 86384, Note_on_c, 9, 46, 117
10, 86388, Note_off_c, 9, 46, 64
10, 86400, Note_on_c, 9, 40, 117
10, 86400, Note_on_c, 9, 35, 108
10, 86400, Note_on_c, 9, 85, 51
10, 86404, Note_off_c, 9, 85, 64
10, 86404, Note_off_c, 9, 35, 64
10, 86404, Note_off_c, 9, 40, 92
10, 86592, Note_on_c, 9, 85, 48
10, 86596, Note_off_c, 9, 85, 64
10, 86688, Note_on_c, 9, 85, 40
10, 86692, Note_off_c, 9, 85, 64
10, 86784, Note_on_c, 9, 35, 109
10, 86784, Note_on_c, 9, 85, 40
10, 86788, Note_off_c, 9, 85, 64
10, 86788, Note_off_c, 9, 35, 64
10, 86800, Note_on_c, 9, 46, 70
10, 86804, Note_off_c, 9, 46, 64
10, 86976, Note_on_c, 9, 85, 48
10, 86980, Note_off_c, 9, 85, 64
10, 87072, Note_on_c, 9, 85, 41
10, 87076, Note_off_c, 9, 85, 64
10, 87144, Note_on_c, 9, 46, 117
10, 87152, Note_off_c, 9, 46, 64
10, 87168, Note_on_c, 9, 40, 117
10, 87168, Note_on_c, 9, 35, 105
10, 87168, Note_on_c, 9, 85, 43
10, 87172, Note_off_c, 9, 85, 64
10, 87172, Note_off_c, 9, 35, 64
10, 87172, Note_off_c, 9, 40, 92
10, 87360, Note_on_c, 9, 35, 100
10, 87360, Note_on_c, 9, 85, 45
10, 87364, Note_off_c, 9, 85, 64
10, 87364, Note_off_c, 9, 35, 64
10, 87456, Note_on_c, 9, 85, 40
10, 87460, Note_off_c, 9, 85, 64
10, 87552, Note_on_c, 9, 35, 105
10, 87552, Note_on_c, 9, 85, 56
10, 87556, Note_off_c, 9, 85, 64
10, 87556, Note_off_c, 9, 35, 64
10, 87560, Note_on_c, 9, 46, 79
10, 87564, Note_off_c, 9, 46, 64
10, 87744, Note_on_c, 9, 85, 45
10, 87748, Note_off_c, 9, 85, 64
10, 87840, Note_on_c, 9, 85, 42
10, 87844, Note_off_c, 9, 85, 64
10, 87908, Note_on_c, 9, 46, 117
10, 87916, Note_off_c, 9, 46, 64
10, 87936, Note_on_c, 9, 40, 117
10, 87936, Note_on_c, 9, 35, 107
10, 87936, Note_on_c, 9, 85, 51
10, 87940, Note_off_c, 9, 85, 64
10, 87940, Note_off_c, 9, 35, 64
10, 87940, Note_off_c, 9, 40, 92
10, 88128, Note_on_c, 9, 85, 48
10, 88132, Note_off_c, 9, 85, 64
10, 88224, Note_on_c, 9, 85, 40
10, 88228, Note_off_c, 9, 85, 64
10, 88320, Note_on_c, 9, 35, 108
10, 88320, Note_on_c, 9, 85, 40
10, 88324, Note_off_c, 9, 85, 64
10, 88324, Note_off_c, 9, 35, 64
10, 88324, Note_on_c, 9, 46, 82
10, 88332, Note_off_c, 9, 46, 64
10, 88512, Note_on_c, 9, 85, 48
10, 88516, Note_off_c, 9, 85, 64
10, 88608, Note_on_c, 9, 85, 41
10, 88612, Note_off_c, 9, 85, 64
10, 88672, Note_on_c, 9, 46, 117
10, 88676, Note_off_c, 9, 46, 64
10, 88704, Note_on_c, 9, 40, 117
10, 88704, Note_on_c, 9, 35, 108
10, 88704, Note_on_c, 9, 85, 43
10, 88708, Note_off_c, 9, 85, 64
10, 88708, Note_off_c, 9, 35, 64
10, 88708, Note_off_c, 9, 40, 92
10, 88896, Note_on_c, 9, 85, 45
10, 88900, Note_off_c, 9, 85, 64
10, 88992, Note_on_c, 9, 85, 40
10, 88996, Note_off_c, 9, 85, 64
10, 89072, Note_on_c, 9, 46, 79
10, 89076, Note_off_c, 9, 46, 64
10, 89088, Note_on_c, 9, 35, 108
10, 89088, Note_on_c, 9, 85, 56
10, 89092, Note_off_c, 9, 85, 64
10, 89092, Note_off_c, 9, 35, 64
10, 89280, Note_on_c, 9, 85, 45
10, 89284, Note_off_c, 9, 85, 64
10, 89376, Note_on_c, 9, 85, 42
10, 89380, Note_off_c, 9, 85, 64
10, 89444, Note_on_c, 9, 46, 117
10, 89448, Note_off_c, 9, 46, 64
10, 89472, Note_on_c, 9, 40, 117
10, 89472, Note_on_c, 9, 35, 108
10, 89472, Note_on_c, 9, 45, 82
10, 89472, Note_on_c, 9, 85, 51
10, 89476, Note_off_c, 9, 85, 64
10, 89476, Note_off_c, 9, 45, 64
10, 89476, Note_off_c, 9, 35, 64
10, 89476, Note_off_c, 9, 40, 92
10, 89664, Note_on_c, 9, 85, 48
10, 89668, Note_off_c, 9, 85, 64
10, 89760, Note_on_c, 9, 85, 40
10, 89764, Note_off_c, 9, 85, 64
10, 89856, Note_on_c, 9, 35, 109
10, 89856, Note_on_c, 9, 45, 103
10, 89856, Note_on_c, 9, 85, 40
10, 89860, Note_off_c, 9, 85, 64
10, 89860, Note_off_c, 9, 45, 64
10, 89860, Note_off_c, 9, 35, 64
10, 89868, Note_on_c, 9, 46, 70
10, 89876, Note_off_c, 9, 46, 64
10, 90048, Note_on_c, 9, 43, 41
10, 90048, Note_on_c, 9, 45, 90
10, 90048, Note_on_c, 9, 85, 48
10, 90052, Note_off_c, 9, 85, 64
10, 90052, Note_off_c, 9, 45, 64
10, 90052, Note_off_c, 9, 43, 64
10, 90144, Note_on_c, 9, 43, 85
10, 90144, Note_on_c, 9, 85, 41
10, 90148, Note_off_c, 9, 85, 64
10, 90148, Note_off_c, 9, 43, 64
10, 90208, Note_on_c, 9, 46, 117
10, 90216, Note_off_c, 9, 46, 64
10, 90240, Note_on_c, 9, 35, 108
10, 90240, Note_on_c, 9, 85, 43
10, 90244, Note_off_c, 9, 85, 64
10, 90244, Note_off_c, 9, 35, 64
10, 90432, Note_on_c, 9, 43, 111
10, 90432, Note_on_c, 9, 85, 45
10, 90436, Note_off_c, 9, 85, 64
10, 90436, Note_off_c, 9, 43, 64
10, 90528, Note_on_c, 9, 85, 40
10, 90532, Note_off_c, 9, 85, 64
10, 90624, Note_on_c, 9, 35, 108
10, 90624, Note_on_c, 9, 49, 117
10, 90624, Note_on_c, 9, 46, 1
10, 90628, Note_off_c, 9, 46, 64
10, 90628, Note_off_c, 9, 49, 64
10, 90628, Note_off_c, 9, 35, 64
10, 90720, Note_on_c, 9, 46, 1
10, 90724, Note_off_c, 9, 46, 64
10, 90816, Note_on_c, 9, 46, 1
10, 90820, Note_off_c, 9, 46, 64
10, 90912, Note_on_c, 9, 46, 1
10, 90916, Note_off_c, 9, 46, 64
10, 91008, Note_on_c, 9, 46, 1
10, 91012, Note_off_c, 9, 46, 64
10, 91104, Note_on_c, 9, 46, 1
10, 91108, Note_off_c, 9, 46, 64
10, 91200, Note_on_c, 9, 46, 1
10, 91204, Note_off_c, 9, 46, 64
10, 91296, Note_on_c, 9, 46, 1
10, 91300, Note_off_c, 9, 46, 64
10, 91392, Note_on_c, 9, 46, 1
10, 91396, Note_off_c, 9, 46, 64
10, 91488, Note_on_c, 9, 46, 1
10, 91492, Note_off_c, 9, 46, 64
10, 91584, Note_on_c, 9, 46, 1
10, 91588, Note_off_c, 9, 46, 64
10, 91680, Note_on_c, 9, 46, 1
10, 91684, Note_off_c, 9, 46, 64
10, 91776, Note_on_c, 9, 46, 1
10, 91780, Note_off_c, 9, 46, 64
10, 91872, Note_on_c, 9, 46, 1
10, 91876, Note_off_c, 9, 46, 64
10, 91968, Note_on_c, 9, 46, 1
10, 91972, Note_off_c, 9, 46, 64
10, 92064, Note_on_c, 9, 46, 1
10, 92068, Note_off_c, 9, 46, 64
10, 92160, Note_on_c, 9, 46, 1
10, 92164, Note_off_c, 9, 46, 64
10, 92256, Note_on_c, 9, 46, 1
10, 92260, Note_off_c, 9, 46, 64
10, 92352, Note_on_c, 9, 46, 1
10, 92356, Note_off_c, 9, 46, 64
10, 92448, Note_on_c, 9, 46, 1
10, 92452, Note_off_c, 9, 46, 64
10, 92544, Note_on_c, 9, 46, 1
10, 92548, Note_off_c, 9, 46, 64
10, 92640, Note_on_c, 9, 46, 1
10, 92644, Note_off_c, 9, 46, 64
10, 92736, Note_on_c, 9, 46, 1
10, 92740, Note_off_c, 9, 46, 64
10, 92832, Note_on_c, 9, 46, 2
10, 92836, Note_off_c, 9, 46, 64
10, 92928, Note_on_c, 9, 46, 2
10, 92932, Note_off_c, 9, 46, 64
10, 93024, Note_on_c, 9, 46, 3
10, 93028, Note_off_c, 9, 46, 64
10, 93120, Note_on_c, 9, 46, 3
10, 93124, Note_off_c, 9, 46, 64
10, 93216, Note_on_c, 9, 46, 4
10, 93220, Note_off_c, 9, 46, 64
10, 93312, Note_on_c, 9, 46, 4
10, 93316, Note_off_c, 9, 46, 64
10, 93408, Note_on_c, 9, 46, 5
10, 93412, Note_off_c, 9, 46, 64
10, 93504, Note_on_c, 9, 46, 6
10, 93508, Note_off_c, 9, 46, 64
10, 93600, Note_on_c, 9, 46, 6
10, 93604, Note_off_c, 9, 46, 64
10, 93696, Note_on_c, 9, 46, 7
10, 93700, Note_off_c, 9, 46, 64
10, 93792, Note_on_c, 9, 46, 7
10, 93796, Note_off_c, 9, 46, 64
10, 93888, Note_on_c, 9, 46, 8
10, 93892, Note_off_c, 9, 46, 64
10, 93984, Note_on_c, 9, 46, 8
10, 93988, Note_off_c, 9, 46, 64
10, 94080, Note_on_c, 9, 46, 9
10, 94084, Note_off_c, 9, 46, 64
10, 94176, Note_on_c, 9, 46, 9
10, 94180, Note_off_c, 9, 46, 64
10, 94272, Note_on_c, 9, 46, 10
10, 94276, Note_off_c, 9, 46, 64
10, 94368, Note_on_c, 9, 46, 10
10, 94372, Note_off_c, 9, 46, 64
10, 94464, Note_on_c, 9, 46, 11
10, 94468, Note_off_c, 9, 46, 64
10, 94560, Note_on_c, 9, 46, 11
10, 94564, Note_off_c, 9, 46, 64
10, 94656, Note_on_c, 9, 46, 12
10, 94660, Note_off_c, 9, 46, 64
10, 94752, Note_on_c, 9, 46, 13
10, 94756, Note_off_c, 9, 46, 64
10, 94848, Note_on_c, 9, 46, 13
10, 94852, Note_off_c, 9, 46, 64
10, 94944, Note_on_c, 9, 46, 14
10, 94948, Note_off_c, 9, 46, 64
10, 95040, Note_on_c, 9, 46, 14
10, 95044, Note_off_c, 9, 46, 64
10, 95136, Note_on_c, 9, 46, 15
10, 95140, Note_off_c, 9, 46, 64
10, 95232, Note_on_c, 9, 46, 15
10, 95236, Note_off_c, 9, 46, 64
10, 95328, Note_on_c, 9, 46, 16
10, 95332, Note_off_c, 9, 46, 64
10, 95424, Note_on_c, 9, 46, 16
10, 95428, Note_off_c, 9, 46, 64
10, 95520, Note_on_c, 9, 46, 17
10, 95524, Note_off_c, 9, 46, 64
10, 95616, Note_on_c, 9, 46, 17
10, 95620, Note_off_c, 9, 46, 64
10, 95712, Note_on_c, 9, 46, 18
10, 95716, Note_off_c, 9, 46, 64
10, 95808, Note_on_c, 9, 46, 18
10, 95812, Note_off_c, 9, 46, 64
10, 95904, Note_on_c, 9, 46, 19
10, 95908, Note_off_c, 9, 46, 64
10, 96000, Note_on_c, 9, 46, 19
10, 96004, Note_off_c, 9, 46, 64
10, 96096, Note_on_c, 9, 46, 20
10, 96100, Note_off_c, 9, 46, 64
10, 96192, Note_on_c, 9, 46, 21
10, 96196, Note_off_c, 9, 46, 64
10, 96288, Note_on_c, 9, 46, 21
10, 96292, Note_off_c, 9, 46, 64
10, 96384, Note_on_c, 9, 46, 22
10, 96388, Note_off_c, 9, 46, 64
10, 96480, Note_on_c, 9, 46, 22
10, 96484, Note_off_c, 9, 46, 64
10, 96576, Note_on_c, 9, 46, 23
10, 96580, Note_off_c, 9, 46, 64
10, 96672, Note_on_c, 9, 46, 23
10, 96676, Note_off_c, 9, 46, 64
10, 96768, Note_on_c, 9, 46, 24
10, 96772, Note_off_c, 9, 46, 64
10, 96864, Note_on_c, 9, 46, 24
10, 96868, Note_off_c, 9, 46, 64
10, 96960, Note_on_c, 9, 46, 25
10, 96964, Note_off_c, 9, 46, 64
10, 97056, Note_on_c, 9, 46, 25
10, 97060, Note_off_c, 9, 46, 64
10, 97152, Note_on_c, 9, 46, 26
10, 97156, Note_off_c, 9, 46, 64
10, 97248, Note_on_c, 9, 46, 26
10, 97252, Note_off_c, 9, 46, 64
10, 97344, Note_on_c, 9, 46, 27
10, 97348, Note_off_c, 9, 46, 64
10, 97440, Note_on_c, 9, 46, 28
10, 97444, Note_off_c, 9, 46, 64
10, 97536, Note_on_c, 9, 46, 28
10, 97540, Note_off_c, 9, 46, 64
10, 97632, Note_on_c, 9, 46, 29
10, 97636, Note_off_c, 9, 46, 64
10, 97728, Note_on_c, 9, 46, 29
10, 97732, Note_off_c, 9, 46, 64
10, 97824, Note_on_c, 9, 46, 30
10, 97828, Note_off_c, 9, 46, 64
10, 97920, Note_on_c, 9, 46, 30
10, 97924, Note_off_c, 9, 46, 64
10, 98016, Note_on_c, 9, 46, 31
10, 98020, Note_off_c, 9, 46, 64
10, 98112, Note_on_c, 9, 46, 31
10, 98116, Note_off_c, 9, 46, 64
10, 98208, Note_on_c, 9, 46, 32
10, 98212, Note_off_c, 9, 46, 64
10, 98304, Note_on_c, 9, 46, 32
10, 98308, Note_off_c, 9, 46, 64
10, 98400, Note_on_c, 9, 46, 33
10, 98404, Note_off_c, 9, 46, 64
10, 98496, Note_on_c, 9, 46, 33
10, 98500, Note_off_c, 9, 46, 64
10, 98592, Note_on_c, 9, 46, 34
10, 98596, Note_off_c, 9, 46, 64
10, 98688, Note_on_c, 9, 46, 34
10, 98692, Note_off_c, 9, 46, 64
10, 98784, Note_on_c, 9, 46, 35
10, 98788, Note_off_c, 9, 46, 64
10, 98880, Note_on_c, 9, 46, 36
10, 98884, Note_off_c, 9, 46, 64
10, 98976, Note_on_c, 9, 46, 36
10, 98980, Note_off_c, 9, 46, 64
10, 99072, Note_on_c, 9, 46, 37
10, 99076, Note_off_c, 9, 46, 64
10, 99168, Note_on_c, 9, 46, 37
10, 99172, Note_off_c, 9, 46, 64
10, 99264, Note_on_c, 9, 46, 38
10, 99268, Note_off_c, 9, 46, 64
10, 99360, Note_on_c, 9, 46, 38
10, 99364, Note_off_c, 9, 46, 64
10, 99456, Note_on_c, 9, 46, 39
10, 99460, Note_off_c, 9, 46, 64
10, 99552, Note_on_c, 9, 46, 39
10, 99556, Note_off_c, 9, 46, 64
10, 99648, Note_on_c, 9, 46, 40
10, 99652, Note_off_c, 9, 46, 64
10, 99744, Note_on_c, 9, 46, 40
10, 99748, Note_off_c, 9, 46, 64
10, 99840, Note_on_c, 9, 46, 41
10, 99844, Note_off_c, 9, 46, 64
10, 99936, Note_on_c, 9, 46, 41
10, 99940, Note_off_c, 9, 46, 64
10, 100032, Note_on_c, 9, 46, 42
10, 100036, Note_off_c, 9, 46, 64
10, 100128, Note_on_c, 9, 46, 43
10, 100132, Note_off_c, 9, 46, 64
10, 100224, Note_on_c, 9, 46, 43
10, 100228, Note_off_c, 9, 46, 64
10, 100320, Note_on_c, 9, 46, 44
10, 100324, Note_off_c, 9, 46, 64
10, 100416, Note_on_c, 9, 46, 44
10, 100420, Note_off_c, 9, 46, 64
10, 100512, Note_on_c, 9, 46, 45
10, 100516, Note_off_c, 9, 46, 64
10, 100608, Note_on_c, 9, 46, 45
10, 100612, Note_off_c, 9, 46, 64
10, 100704, Note_on_c, 9, 46, 46
10, 100708, Note_off_c, 9, 46, 64
10, 100800, Note_on_c, 9, 46, 46
10, 100804, Note_off_c, 9, 46, 64
10, 100896, Note_on_c, 9, 46, 47
10, 100900, Note_off_c, 9, 46, 64
10, 100992, Note_on_c, 9, 48, 117
10, 100992, Note_on_c, 9, 46, 47
10, 100996, Note_off_c, 9, 46, 64
10, 100996, Note_off_c, 9, 48, 64
10, 101088, Note_on_c, 9, 46, 48
10, 101092, Note_off_c, 9, 46, 64
10, 101184, Note_on_c, 9, 46, 48
10, 101188, Note_off_c, 9, 46, 64
10, 101280, Note_on_c, 9, 46, 49
10, 101284, Note_off_c, 9, 46, 64
10, 101376, Note_on_c, 9, 46, 113
10, 101376, Note_on_c, 9, 43, 117
10, 101380, Note_off_c, 9, 43, 64
10, 101380, Note_off_c, 9, 46, 64
10, 101760, Note_on_c, 9, 45, 117
10, 101764, Note_off_c, 9, 45, 64
10, 102144, Note_on_c, 9, 46, 117
10, 102144, Note_on_c, 9, 40, 117
10, 102148, Note_off_c, 9, 40, 64
10, 102148, Note_off_c, 9, 46, 64
10, 102528, Note_on_c, 9, 46, 114
10, 102528, Note_on_c, 9, 40, 97
10, 102532, Note_off_c, 9, 40, 64
10, 102532, Note_off_c, 9, 46, 64
10, 102720, Note_on_c, 9, 46, 117
10, 102720, Note_on_c, 9, 40, 117
10, 102724, Note_off_c, 9, 40, 64
10, 102724, Note_off_c, 9, 46, 64
10, 102912, Note_on_c, 9, 35, 108
10, 102912, Note_on_c, 9, 49, 117
10, 102912, Note_on_c, 9, 85, 56
10, 102916, Note_off_c, 9, 85, 64
10, 102916, Note_off_c, 9, 49, 64
10, 102916, Note_off_c, 9, 35, 64
10, 102932, Note_on_c, 9, 46, 80
10, 102936, Note_off_c, 9, 46, 64
10, 103104, Note_on_c, 9, 85, 45
10, 103108, Note_off_c, 9, 85, 64
10, 103200, Note_on_c, 9, 85, 42
10, 103204, Note_off_c, 9, 85, 64
10, 103296, Note_on_c, 9, 40, 117
10, 103296, Note_on_c, 9, 35, 107
10, 103296, Note_on_c, 9, 85, 51
10, 103300, Note_off_c, 9, 85, 64
10, 103300, Note_off_c, 9, 35, 64
10, 103300, Note_off_c, 9, 40, 92
10, 103312, Note_on_c, 9, 46, 117
10, 103316, Note_off_c, 9, 46, 64
10, 103488, Note_on_c, 9, 85, 48
10, 103492, Note_off_c, 9, 85, 64
10, 103584, Note_on_c, 9, 85, 40
10, 103588, Note_off_c, 9, 85, 64
10, 103680, Note_on_c, 9, 35, 108
10, 103680, Note_on_c, 9, 85, 40
10, 103684, Note_off_c, 9, 85, 64
10, 103684, Note_off_c, 9, 35, 64
10, 103700, Note_on_c, 9, 46, 70
10, 103704, Note_off_c, 9, 46, 64
10, 103872, Note_on_c, 9, 85, 48
10, 103876, Note_off_c, 9, 85, 64
10, 103968, Note_on_c, 9, 85, 41
10, 103972, Note_off_c, 9, 85, 64
10, 104044, Note_on_c, 9, 46, 117
10, 104052, Note_off_c, 9, 46, 64
10, 104064, Note_on_c, 9, 40, 117
10, 104064, Note_on_c, 9, 35, 98
10, 104064, Note_on_c, 9, 85, 43
10, 104068, Note_off_c, 9, 85, 64
10, 104068, Note_off_c, 9, 35, 64
10, 104068, Note_off_c, 9, 40, 92
10, 104256, Note_on_c, 9, 35, 95
10, 104256, Note_on_c, 9, 85, 45
10, 104260, Note_off_c, 9, 85, 64
10, 104260, Note_off_c, 9, 35, 64
10, 104352, Note_on_c, 9, 85, 40
10, 104356, Note_off_c, 9, 85, 64
10, 104448, Note_on_c, 9, 35, 108
10, 104448, Note_on_c, 9, 85, 56
10, 104452, Note_off_c, 9, 85, 64
10, 104452, Note_off_c, 9, 35, 64
10, 104460, Note_on_c, 9, 46, 80
10, 104464, Note_off_c, 9, 46, 64
10, 104640, Note_on_c, 9, 85, 45
10, 104644, Note_off_c, 9, 85, 64
10, 104736, Note_on_c, 9, 85, 42
10, 104740, Note_off_c, 9, 85, 64
10, 104816, Note_on_c, 9, 46, 117
10, 104820, Note_off_c, 9, 46, 64
10, 104832, Note_on_c, 9, 40, 117
10, 104832, Note_on_c, 9, 35, 108
10, 104832, Note_on_c, 9, 85, 51
10, 104836, Note_off_c, 9, 85, 64
10, 104836, Note_off_c, 9, 35, 64
10, 104836, Note_off_c, 9, 40, 92
10, 105024, Note_on_c, 9, 85, 48
10, 105028, Note_off_c, 9, 85, 64
10, 105120, Note_on_c, 9, 85, 40
10, 105124, Note_off_c, 9, 85, 64
10, 105216, Note_on_c, 9, 35, 109
10, 105216, Note_on_c, 9, 85, 40
10, 105220, Note_off_c, 9, 85, 64
10, 105220, Note_off_c, 9, 35, 64
10, 105232, Note_on_c, 9, 46, 70
10, 105236, Note_off_c, 9, 46, 64
10, 105408, Note_on_c, 9, 85, 48
10, 105412, Note_off_c, 9, 85, 64
10, 105504, Note_on_c, 9, 85, 41
10, 105508, Note_off_c, 9, 85, 64
10, 105576, Note_on_c, 9, 46, 117
10, 105584, Note_off_c, 9, 46, 64
10, 105600, Note_on_c, 9, 40, 117
10, 105600, Note_on_c, 9, 35, 105
10, 105600, Note_on_c, 9, 85, 43
10, 105604, Note_off_c, 9, 85, 64
10, 105604, Note_off_c, 9, 35, 64
10, 105604, Note_off_c, 9, 40, 92
10, 105792, Note_on_c, 9, 35, 100
10, 105792, Note_on_c, 9, 85, 45
10, 105796, Note_off_c, 9, 85, 64
10, 105796, Note_off_c, 9, 35, 64
10, 105888, Note_on_c, 9, 85, 40
10, 105892, Note_off_c, 9, 85, 64
10, 105984, Note_on_c, 9, 35, 105
10, 105984, Note_on_c, 9, 85, 56
10, 105988, Note_off_c, 9, 85, 64
10, 105988, Note_off_c, 9, 35, 64
10, 105992, Note_on_c, 9, 46, 79
10, 105996, Note_off_c, 9, 46, 64
10, 106176, Note_on_c, 9, 85, 45
10, 106180, Note_off_c, 9, 85, 64
10, 106272, Note_on_c, 9, 85, 42
10, 106276, Note_off_c, 9, 85, 64
10, 106340, Note_on_c, 9, 46, 117
10, 106348, Note_off_c, 9, 46, 64
10, 106368, Note_on_c, 9, 40, 117
10, 106368, Note_on_c, 9, 35, 107
10, 106368, Note_on_c, 9, 85, 51
10, 106372, Note_off_c, 9, 85, 64
10, 106372, Note_off_c, 9, 35, 64
10, 106372, Note_off_c, 9, 40, 92
10, 106560, Note_on_c, 9, 85, 48
10, 106564, Note_off_c, 9, 85, 64
10, 106656, Note_on_c, 9, 85, 40
10, 106660, Note_off_c, 9, 85, 64
10, 106752, Note_on_c, 9, 35, 108
10, 106752, Note_on_c, 9, 85, 40
10, 106756, Note_off_c, 9, 85, 64
10, 106756, Note_off_c, 9, 35, 64
10, 106756, Note_on_c, 9, 46, 82
10, 106764, Note_off_c, 9, 46, 64
10, 106944, Note_on_c, 9, 85, 48
10, 106948, Note_off_c, 9, 85, 64
10, 107040, Note_on_c, 9, 85, 41
10, 107044, Note_off_c, 9, 85, 64
10, 107104, Note_on_c, 9, 46, 117
10, 107108, Note_off_c, 9, 46, 64
10, 107136, Note_on_c, 9, 40, 117
10, 107136, Note_on_c, 9, 35, 108
10, 107136, Note_on_c, 9, 85, 43
10, 107140, Note_off_c, 9, 85, 64
10, 107140, Note_off_c, 9, 35, 64
10, 107140, Note_off_c, 9, 40, 92
10, 107328, Note_on_c, 9, 85, 45
10, 107332, Note_off_c, 9, 85, 64
10, 107424, Note_on_c, 9, 85, 40
10, 107428, Note_off_c, 9, 85, 64
10, 107504, Note_on_c, 9, 46, 79
10, 107508, Note_off_c, 9, 46, 64
10, 107520, Note_on_c, 9, 35, 108
10, 107520, Note_on_c, 9, 85, 56
10, 107524, Note_off_c, 9, 85, 64
10, 107524, Note_off_c, 9, 35, 64
10, 107712, Note_on_c, 9, 85, 45
10, 107716, Note_off_c, 9, 85, 64
10, 107808, Note_on_c, 9, 85, 42
10, 107812, Note_off_c, 9, 85, 64
10, 107876, Note_on_c, 9, 46, 117
10, 107880, Note_off_c, 9, 46, 64
10, 107904, Note_on_c, 9, 35, 108
10, 107904, Note_on_c, 9, 45, 82
10, 107904, Note_on_c, 9, 85, 51
10, 107908, Note_off_c, 9, 85, 64
10, 107908, Note_off_c, 9, 45, 64
10, 107908, Note_off_c, 9, 35, 64
10, 108096, Note_on_c, 9, 85, 48
10, 108100, Note_off_c, 9, 85, 64
10, 108192, Note_on_c, 9, 85, 40
10, 108196, Note_off_c, 9, 85, 64
10, 108288, Note_on_c, 9, 35, 109
10, 108288, Note_on_c, 9, 45, 103
10, 108288, Note_on_c, 9, 85, 40
10, 108292, Note_off_c, 9, 85, 64
10, 108292, Note_off_c, 9, 45, 64
10, 108292, Note_off_c, 9, 35, 64
10, 108300, Note_on_c, 9, 46, 70
10, 108308, Note_off_c, 9, 46, 64
10, 108480, Note_on_c, 9, 43, 41
10, 108480, Note_on_c, 9, 45, 90
10, 108480, Note_on_c, 9, 85, 48
10, 108484, Note_off_c, 9, 85, 64
10, 108484, Note_off_c, 9, 45, 64
10, 108484, Note_off_c, 9, 43, 64
10, 108576, Note_on_c, 9, 43, 85
10, 108576, Note_on_c, 9, 85, 41
10, 108580, Note_off_c, 9, 85, 64
10, 108580, Note_off_c, 9, 43, 64
10, 108640, Note_on_c, 9, 46, 117
10, 108648, Note_off_c, 9, 46, 64
10, 108672, Note_on_c, 9, 35, 108
10, 108672, Note_on_c, 9, 85, 43
10, 108676, Note_off_c, 9, 85, 64
10, 108676, Note_off_c, 9, 35, 64
10, 108864, Note_on_c, 9, 43, 111
10, 108864, Note_on_c, 9, 85, 45
10, 108868, Note_off_c, 9, 85, 64
10, 108868, Note_off_c, 9, 43, 64
10, 108960, Note_on_c, 9, 85, 40
10, 108964, Note_off_c, 9, 85, 64
10, 109056, Note_on_c, 9, 35, 108
10, 109056, Note_on_c, 9, 49, 117
10, 109056, Note_on_c, 9, 85, 56
10, 109060, Note_off_c, 9, 85, 64
10, 109060, Note_off_c, 9, 49, 64
10, 109060, Note_off_c, 9, 35, 64
10, 109076, Note_on_c, 9, 46, 80
10, 109080, Note_off_c, 9, 46, 64
10, 109248, Note_on_c, 9, 85, 45
10, 109252, Note_off_c, 9, 85, 64
10, 109344, Note_on_c, 9, 85, 42
10, 109348, Note_off_c, 9, 85, 64
10, 109440, Note_on_c, 9, 40, 117
10, 109440, Note_on_c, 9, 35, 107
10, 109440, Note_on_c, 9, 85, 51
10, 109444, Note_off_c, 9, 85, 64
10, 109444, Note_off_c, 9, 35, 64
10, 109444, Note_off_c, 9, 40, 92
10, 109456, Note_on_c, 9, 46, 117
10, 109460, Note_off_c, 9, 46, 64
10, 109632, Note_on_c, 9, 85, 48
10, 109636, Note_off_c, 9, 85, 64
10, 109728, Note_on_c, 9, 85, 40
10, 109732, Note_off_c, 9, 85, 64
10, 109824, Note_on_c, 9, 35, 108
10, 109824, Note_on_c, 9, 85, 40
10, 109828, Note_off_c, 9, 85, 64
10, 109828, Note_off_c, 9, 35, 64
10, 109844, Note_on_c, 9, 46, 70
10, 109848, Note_off_c, 9, 46, 64
10, 110016, Note_on_c, 9, 85, 48
10, 110020, Note_off_c, 9, 85, 64
10, 110112, Note_on_c, 9, 85, 41
10, 110116, Note_off_c, 9, 85, 64
10, 110188, Note_on_c, 9, 46, 117
10, 110196, Note_off_c, 9, 46, 64
10, 110208, Note_on_c, 9, 40, 117
10, 110208, Note_on_c, 9, 35, 98
10, 110208, Note_on_c, 9, 85, 43
10, 110212, Note_off_c, 9, 85, 64
10, 110212, Note_off_c, 9, 35, 64
10, 110212, Note_off_c, 9, 40, 92
10, 110400, Note_on_c, 9, 35, 95
10, 110400, Note_on_c, 9, 85, 45
10, 110404, Note_off_c, 9, 85, 64
10, 110404, Note_off_c, 9, 35, 64
10, 110496, Note_on_c, 9, 85, 40
10, 110500, Note_off_c, 9, 85, 64
10, 110592, Note_on_c, 9, 35, 108
10, 110592, Note_on_c, 9, 85, 56
10, 110596, Note_off_c, 9, 85, 64
10, 110596, Note_off_c, 9, 35, 64
10, 110604, Note_on_c, 9, 46, 80
10, 110608, Note_off_c, 9, 46, 64
10, 110784, Note_on_c, 9, 85, 45
10, 110788, Note_off_c, 9, 85, 64
10, 110880, Note_on_c, 9, 85, 42
10, 110884, Note_off_c, 9, 85, 64
10, 110960, Note_on_c, 9, 46, 117
10, 110964, Note_off_c, 9, 46, 64
10, 110976, Note_on_c, 9, 40, 117
10, 110976, Note_on_c, 9, 35, 108
10, 110976, Note_on_c, 9, 85, 51
10, 110980, Note_off_c, 9, 85, 64
10, 110980, Note_off_c, 9, 35, 64
10, 110980, Note_off_c, 9, 40, 92
10, 111168, Note_on_c, 9, 85, 48
10, 111172, Note_off_c, 9, 85, 64
10, 111264, Note_on_c, 9, 85, 40
10, 111268, Note_off_c, 9, 85, 64
10, 111360, Note_on_c, 9, 35, 109
10, 111360, Note_on_c, 9, 85, 40
10, 111364, Note_off_c, 9, 85, 64
10, 111364, Note_off_c, 9, 35, 64
10, 111376, Note_on_c, 9, 46, 70
10, 111380, Note_off_c, 9, 46, 64
10, 111552, Note_on_c, 9, 85, 48
10, 111556, Note_off_c, 9, 85, 64
10, 111648, Note_on_c, 9, 85, 41
10, 111652, Note_off_c, 9, 85, 64
10, 111720, Note_on_c, 9, 46, 117
10, 111728, Note_off_c, 9, 46, 64
10, 111744, Note_on_c, 9, 40, 117
10, 111744, Note_on_c, 9, 35, 105
10, 111744, Note_on_c, 9, 85, 43
10, 111748, Note_off_c, 9, 85, 64
10, 111748, Note_off_c, 9, 35, 64
10, 111748, Note_off_c, 9, 40, 92
10, 111936, Note_on_c, 9, 35, 100
10, 111936, Note_on_c, 9, 85, 45
10, 111940, Note_off_c, 9, 85, 64
10, 111940, Note_off_c, 9, 35, 64
10, 112032, Note_on_c, 9, 85, 40
10, 112036, Note_off_c, 9, 85, 64
10, 112128, Note_on_c, 9, 35, 105
10, 112128, Note_on_c, 9, 85, 56
10, 112132, Note_off_c, 9, 85, 64
10, 112132, Note_off_c, 9, 35, 64
10, 112136, Note_on_c, 9, 46, 79
10, 112140, Note_off_c, 9, 46, 64
10, 112320, Note_on_c, 9, 85, 45
10, 112324, Note_off_c, 9, 85, 64
10, 112416, Note_on_c, 9, 85, 42
10, 112420, Note_off_c, 9, 85, 64
10, 112484, Note_on_c, 9, 46, 117
10, 112492, Note_off_c, 9, 46, 64
10, 112512, Note_on_c, 9, 40, 117
10, 112512, Note_on_c, 9, 35, 107
10, 112512, Note_on_c, 9, 85, 51
10, 112516, Note_off_c, 9, 85, 64
10, 112516, Note_off_c, 9, 35, 64
10, 112516, Note_off_c, 9, 40, 92
10, 112704, Note_on_c, 9, 85, 48
10, 112708, Note_off_c, 9, 85, 64
10, 112800, Note_on_c, 9, 85, 40
10, 112804, Note_off_c, 9, 85, 64
10, 112896, Note_on_c, 9, 35, 108
10, 112896, Note_on_c, 9, 85, 40
10, 112900, Note_off_c, 9, 85, 64
10, 112900, Note_off_c, 9, 35, 64
10, 112900, Note_on_c, 9, 46, 82
10, 112908, Note_off_c, 9, 46, 64
10, 113088, Note_on_c, 9, 85, 48
10, 113092, Note_off_c, 9, 85, 64
10, 113184, Note_on_c, 9, 85, 41
10, 113188, Note_off_c, 9, 85, 64
10, 113248, Note_on_c, 9, 46, 117
10, 113252, Note_off_c, 9, 46, 64
10, 113280, Note_on_c, 9, 40, 117
10, 113280, Note_on_c, 9, 35, 108
10, 113280, Note_on_c, 9, 85, 43
10, 113284, Note_off_c, 9, 85, 64
10, 113284, Note_off_c, 9, 35, 64
10, 113284, Note_off_c, 9, 40, 92
10, 113472, Note_on_c, 9, 85, 45
10, 113476, Note_off_c, 9, 85, 64
10, 113568, Note_on_c, 9, 85, 40
10, 113572, Note_off_c, 9, 85, 64
10, 113648, Note_on_c, 9, 46, 79
10, 113652, Note_off_c, 9, 46, 64
10, 113664, Note_on_c, 9, 35, 108
10, 113664, Note_on_c, 9, 85, 56
10, 113668, Note_off_c, 9, 85, 64
10, 113668, Note_off_c, 9, 35, 64
10, 113856, Note_on_c, 9, 85, 45
10, 113860, Note_off_c, 9, 85, 64
10, 113952, Note_on_c, 9, 85, 42
10, 113956, Note_off_c, 9, 85, 64
10, 114020, Note_on_c, 9, 46, 117
10, 114024, Note_off_c, 9, 46, 64
10, 114048, Note_on_c, 9, 40, 117
10, 114048, Note_on_c, 9, 35, 108
10, 114048, Note_on_c, 9, 45, 82
10, 114048, Note_on_c, 9, 85, 51
10, 114052, Note_off_c, 9, 85, 64
10, 114052, Note_off_c, 9, 45, 64
10, 114052, Note_off_c, 9, 35, 64
10, 114052, Note_off_c, 9, 40, 92
10, 114240, Note_on_c, 9, 85, 48
10, 114244, Note_off_c, 9, 85, 64
10, 114336, Note_on_c, 9, 85, 40
10, 114340, Note_off_c, 9, 85, 64
10, 114432, Note_on_c, 9, 35, 109
10, 114432, Note_on_c, 9, 45, 103
10, 114432, Note_on_c, 9, 85, 40
10, 114436, Note_off_c, 9, 85, 64
10, 114436, Note_off_c, 9, 45, 64
10, 114436, Note_off_c, 9, 35, 64
10, 114444, Note_on_c, 9, 46, 70
10, 114452, Note_off_c, 9, 46, 64
10, 114624, Note_on_c, 9, 43, 41
10, 114624, Note_on_c, 9, 45, 90
10, 114624, Note_on_c, 9, 85, 48
10, 114628, Note_off_c, 9, 85, 64
10, 114628, Note_off_c, 9, 45, 64
10, 114628, Note_off_c, 9, 43, 64
10, 114720, Note_on_c, 9, 43, 85
10, 114720, Note_on_c, 9, 85, 41
10, 114724, Note_off_c, 9, 85, 64
10, 114724, Note_off_c, 9, 43, 64
10, 114784, Note_on_c, 9, 46, 117
10, 114792, Note_off_c, 9, 46, 64
10, 114816, Note_on_c, 9, 35, 108
10, 114816, Note_on_c, 9, 85, 43
10, 114820, Note_off_c, 9, 85, 64
10, 114820, Note_off_c, 9, 35, 64
10, 115008, Note_on_c, 9, 43, 111
10, 115008, Note_on_c, 9, 85, 45
10, 115012, Note_off_c, 9, 85, 64
10, 115012, Note_off_c, 9, 43, 64
10, 115104, Note_on_c, 9, 85, 40
10, 115108, Note_off_c, 9, 85, 64
10, 115200, Note_on_c, 9, 45, 110
10, 115200, Note_on_c, 9, 40, 117
10, 115200, Note_on_c, 9, 35, 117
10, 115200, Note_on_c, 9, 85, 71
10, 115204, Note_off_c, 9, 85, 64
10, 115204, Note_off_c, 9, 35, 64
10, 115204, Note_off_c, 9, 40, 92
10, 115204, Note_off_c, 9, 45, 92
10, 115392, Note_on_c, 9, 45, 60
10, 115392, Note_on_c, 9, 85, 60
10, 115396, Note_off_c, 9, 85, 64
10, 115396, Note_off_c, 9, 45, 92
10, 115488, Note_on_c, 9, 85, 57
10, 115492, Note_off_c, 9, 85, 64
10, 115584, Note_on_c, 9, 45, 110
10, 115584, Note_on_c, 9, 40, 117
10, 115584, Note_on_c, 9, 35, 117
10, 115584, Note_on_c, 9, 85, 66
10, 115588, Note_off_c, 9, 85, 64
10, 115588, Note_off_c, 9, 35, 64
10, 115588, Note_off_c, 9, 40, 92
10, 115588, Note_off_c, 9, 45, 92
10, 115776, Note_on_c, 9, 45, 60
10, 115776, Note_on_c, 9, 85, 63
10, 115780, Note_off_c, 9, 85, 64
10, 115780, Note_off_c, 9, 45, 92
10, 115872, Note_on_c, 9, 85, 55
10, 115876, Note_off_c, 9, 85, 64
10, 115968, Note_on_c, 9, 45, 110
10, 115968, Note_on_c, 9, 40, 117
10, 115968, Note_on_c, 9, 35, 117
10, 115968, Note_on_c, 9, 85, 55
10, 115972, Note_off_c, 9, 85, 64
10, 115972, Note_off_c, 9, 35, 64
10, 115972, Note_off_c, 9, 40, 92
10, 115972, Note_off_c, 9, 45, 92
10, 116160, Note_on_c, 9, 45, 60
10, 116160, Note_on_c, 9, 85, 63
10, 116164, Note_off_c, 9, 85, 64
10, 116164, Note_off_c, 9, 45, 92
10, 116256, Note_on_c, 9, 85, 56
10, 116260, Note_off_c, 9, 85, 64
10, 116352, Note_on_c, 9, 45, 110
10, 116352, Note_on_c, 9, 40, 117
10, 116352, Note_on_c, 9, 35, 117
10, 116352, Note_on_c, 9, 85, 58
10, 116356, Note_off_c, 9, 85, 64
10, 116356, Note_off_c, 9, 35, 64
10, 116356, Note_off_c, 9, 40, 92
10, 116356, Note_off_c, 9, 45, 92
10, 116544, Note_on_c, 9, 45, 60
10, 116544, Note_on_c, 9, 85, 60
10, 116548, Note_off_c, 9, 85, 64
10, 116548, Note_off_c, 9, 45, 92
10, 116640, Note_on_c, 9, 85, 55
10, 116644, Note_off_c, 9, 85, 64
10, 116736, Note_on_c, 9, 45, 110
10, 116736, Note_on_c, 9, 40, 117
10, 116736, Note_on_c, 9, 35, 117
10, 116736, Note_on_c, 9, 85, 71
10, 116740, Note_off_c, 9, 85, 64
10, 116740, Note_off_c, 9, 35, 64
10, 116740, Note_off_c, 9, 40, 92
10, 116740, Note_off_c, 9, 45, 92
10, 116928, Note_on_c, 9, 45, 60
10, 116928, Note_on_c, 9, 85, 60
10, 116932, Note_off_c, 9, 85, 64
10, 116932, Note_off_c, 9, 45, 92
10, 117024, Note_on_c, 9, 85, 57
10, 117028, Note_off_c, 9, 85, 64
10, 117120, Note_on_c, 9, 45, 110
10, 117120, Note_on_c, 9, 40, 117
10, 117120, Note_on_c, 9, 35, 117
10, 117120, Note_on_c, 9, 85, 66
10, 117124, Note_off_c, 9, 85, 64
10, 117124, Note_off_c, 9, 35, 64
10, 117124, Note_off_c, 9, 40, 92
10, 117124, Note_off_c, 9, 45, 92
10, 117312, Note_on_c, 9, 45, 60
10, 117312, Note_on_c, 9, 85, 63
10, 117316, Note_off_c, 9, 85, 64
10, 117316, Note_off_c, 9, 45, 92
10, 117408, Note_on_c, 9, 85, 55
10, 117412, Note_off_c, 9, 85, 64
10, 117504, Note_on_c, 9, 45, 110
10, 117504, Note_on_c, 9, 40, 117
10, 117504, Note_on_c, 9, 35, 117
10, 117504, Note_on_c, 9, 85, 55
10, 117508, Note_off_c, 9, 85, 64
10, 117508, Note_off_c, 9, 35, 64
10, 117508, Note_off_c, 9, 40, 92
10, 117508, Note_off_c, 9, 45, 92
10, 117696, Note_on_c, 9, 45, 60
10, 117696, Note_on_c, 9, 85, 63
10, 117700, Note_off_c, 9, 85, 64
10, 117700, Note_off_c, 9, 45, 92
10, 117792, Note_on_c, 9, 85, 56
10, 117796, Note_off_c, 9, 85, 64
10, 117888, Note_on_c, 9, 45, 110
10, 117888, Note_on_c, 9, 40, 117
10, 117888, Note_on_c, 9, 35, 117
10, 117888, Note_on_c, 9, 85, 58
10, 117892, Note_off_c, 9, 85, 64
10, 117892, Note_off_c, 9, 35, 64
10, 117892, Note_off_c, 9, 40, 92
10, 117892, Note_off_c, 9, 45, 92
10, 118080, Note_on_c, 9, 45, 60
10, 118080, Note_on_c, 9, 85, 60
10, 118084, Note_off_c, 9, 85, 64
10, 118084, Note_off_c, 9, 45, 92
10, 118176, Note_on_c, 9, 85, 55
10, 118180, Note_off_c, 9, 85, 64
10, 118272, Note_on_c, 9, 45, 110
10, 118272, Note_on_c, 9, 40, 117
10, 118272, Note_on_c, 9, 35, 117
10, 118272, Note_on_c, 9, 85, 71
10, 118276, Note_off_c, 9, 85, 64
10, 118276, Note_off_c, 9, 35, 64
10, 118276, Note_off_c, 9, 40, 92
10, 118276, Note_off_c, 9, 45, 92
10, 118464, Note_on_c, 9, 45, 60
10, 118464, Note_on_c, 9, 85, 60
10, 118468, Note_off_c, 9, 85, 64
10, 118468, Note_off_c, 9, 45, 92
10, 118560, Note_on_c, 9, 85, 57
10, 118564, Note_off_c, 9, 85, 64
10, 118656, Note_on_c, 9, 45, 110
10, 118656, Note_on_c, 9, 40, 117
10, 118656, Note_on_c, 9, 35, 117
10, 118656, Note_on_c, 9, 85, 66
10, 118660, Note_off_c, 9, 85, 64
10, 118660, Note_off_c, 9, 35, 64
10, 118660, Note_off_c, 9, 40, 92
10, 118660, Note_off_c, 9, 45, 92
10, 118848, Note_on_c, 9, 45, 60
10, 118848, Note_on_c, 9, 85, 63
10, 118852, Note_off_c, 9, 85, 64
10, 118852, Note_off_c, 9, 45, 92
10, 118944, Note_on_c, 9, 85, 55
10, 118948, Note_off_c, 9, 85, 64
10, 119040, Note_on_c, 9, 45, 110
10, 119040, Note_on_c, 9, 40, 117
10, 119040, Note_on_c, 9, 35, 117
10, 119040, Note_on_c, 9, 85, 55
10, 119044, Note_off_c, 9, 85, 64
10, 119044, Note_off_c, 9, 35, 64
10, 119044, Note_off_c, 9, 40, 92
10, 119044, Note_off_c, 9, 45, 92
10, 119232, Note_on_c, 9, 45, 60
10, 119232, Note_on_c, 9, 85, 63
10, 119236, Note_off_c, 9, 85, 64
10, 119236, Note_off_c, 9, 45, 92
10, 119328, Note_on_c, 9, 85, 56
10, 119332, Note_off_c, 9, 85, 64
10, 119424, Note_on_c, 9, 45, 110
10, 119424, Note_on_c, 9, 40, 117
10, 119424, Note_on_c, 9, 35, 117
10, 119424, Note_on_c, 9, 85, 58
10, 119428, Note_off_c, 9, 85, 64
10, 119428, Note_off_c, 9, 35, 64
10, 119428, Note_off_c, 9, 40, 92
10, 119428, Note_off_c, 9, 45, 92
10, 119616, Note_on_c, 9, 45, 60
10, 119616, Note_on_c, 9, 85, 60
10, 119620, Note_off_c, 9, 85, 64
10, 119620, Note_off_c, 9, 45, 92
10, 119712, Note_on_c, 9, 85, 55
10, 119716, Note_off_c, 9, 85, 64
10, 119808, Note_on_c, 9, 45, 110
10, 119808, Note_on_c, 9, 40, 117
10, 119808, Note_on_c, 9, 35, 117
10, 119808, Note_on_c, 9, 85, 71
10, 119812, Note_off_c, 9, 85, 64
10, 119812, Note_off_c, 9, 35, 64
10, 119812, Note_off_c, 9, 40, 92
10, 119812, Note_off_c, 9, 45, 92
10, 120000, Note_on_c, 9, 45, 60
10, 120000, Note_on_c, 9, 85, 60
10, 120004, Note_off_c, 9, 85, 64
10, 120004, Note_off_c, 9, 45, 92
10, 120096, Note_on_c, 9, 85, 57
10, 120100, Note_off_c, 9, 85, 64
10, 120192, Note_on_c, 9, 45, 110
10, 120192, Note_on_c, 9, 40, 117
10, 120192, Note_on_c, 9, 35, 117
10, 120192, Note_on_c, 9, 85, 66
10, 120196, Note_off_c, 9, 85, 64
10, 120196, Note_off_c, 9, 35, 64
10, 120196, Note_off_c, 9, 40, 92
10, 120196, Note_off_c, 9, 45, 92
10, 120384, Note_on_c, 9, 45, 60
10, 120384, Note_on_c, 9, 85, 63
10, 120388, Note_off_c, 9, 85, 64
10, 120388, Note_off_c, 9, 45, 92
10, 120480, Note_on_c, 9, 85, 55
10, 120484, Note_off_c, 9, 85, 64
10, 120576, Note_on_c, 9, 45, 110
10, 120576, Note_on_c, 9, 40, 117
10, 120576, Note_on_c, 9, 35, 117
10, 120576, Note_on_c, 9, 85, 55
10, 120580, Note_off_c, 9, 85, 64
10, 120580, Note_off_c, 9, 35, 64
10, 120580, Note_off_c, 9, 40, 92
10, 120580, Note_off_c, 9, 45, 92
10, 120768, Note_on_c, 9, 45, 60
10, 120768, Note_on_c, 9, 85, 63
10, 120772, Note_off_c, 9, 85, 64
10, 120772, Note_off_c, 9, 45, 92
10, 120864, Note_on_c, 9, 85, 56
10, 120868, Note_off_c, 9, 85, 64
10, 120960, Note_on_c, 9, 45, 110
10, 120960, Note_on_c, 9, 40, 117
10, 120960, Note_on_c, 9, 35, 117
10, 120960, Note_on_c, 9, 85, 58
10, 120964, Note_off_c, 9, 85, 64
10, 120964, Note_off_c, 9, 35, 64
10, 120964, Note_off_c, 9, 40, 92
10, 120964, Note_off_c, 9, 45, 92
10, 121152, Note_on_c, 9, 45, 60
10, 121152, Note_on_c, 9, 85, 60
10, 121156, Note_off_c, 9, 85, 64
10, 121156, Note_off_c, 9, 45, 92
10, 121248, Note_on_c, 9, 85, 55
10, 121252, Note_off_c, 9, 85, 64
10, 121344, Note_on_c, 9, 45, 110
10, 121344, Note_on_c, 9, 40, 117
10, 121344, Note_on_c, 9, 35, 117
10, 121344, Note_on_c, 9, 85, 71
10, 121348, Note_off_c, 9, 85, 64
10, 121348, Note_off_c, 9, 35, 64
10, 121348, Note_off_c, 9, 40, 92
10, 121348, Note_off_c, 9, 45, 92
10, 121536, Note_on_c, 9, 45, 60
10, 121536, Note_on_c, 9, 85, 60
10, 121540, Note_off_c, 9, 85, 64
10, 121540, Note_off_c, 9, 45, 92
10, 121632, Note_on_c, 9, 85, 57
10, 121636, Note_off_c, 9, 85, 64
10, 121728, Note_on_c, 9, 45, 110
10, 121728, Note_on_c, 9, 40, 117
10, 121728, Note_on_c, 9, 35, 117
10, 121728, Note_on_c, 9, 85, 66
10, 121732, Note_off_c, 9, 85, 64
10, 121732, Note_off_c, 9, 35, 64
10, 121732, Note_off_c, 9, 40, 92
10, 121732, Note_off_c, 9, 45, 92
10, 121920, Note_on_c, 9, 45, 60
10, 121920, Note_on_c, 9, 85, 63
10, 121924, Note_off_c, 9, 85, 64
10, 121924, Note_off_c, 9, 45, 92
10, 122016, Note_on_c, 9, 85, 55
10, 122020, Note_off_c, 9, 85, 64
10, 122112, Note_on_c, 9, 45, 110
10, 122112, Note_on_c, 9, 40, 117
10, 122112, Note_on_c, 9, 35, 117
10, 122112, Note_on_c, 9, 85, 55
10, 122116, Note_off_c, 9, 85, 64
10, 122116, Note_off_c, 9, 35, 64
10, 122116, Note_off_c, 9, 40, 92
10, 122116, Note_off_c, 9, 45, 92
10, 122304, Note_on_c, 9, 45, 60
10, 122304, Note_on_c, 9, 85, 63
10, 122308, Note_off_c, 9, 85, 64
10, 122308, Note_off_c, 9, 45, 92
10, 122400, Note_on_c, 9, 85, 56
10, 122404, Note_off_c, 9, 85, 64
10, 122496, Note_on_c, 9, 45, 110
10, 122496, Note_on_c, 9, 40, 117
10, 122496, Note_on_c, 9, 35, 117
10, 122496, Note_on_c, 9, 85, 58
10, 122500, Note_off_c, 9, 85, 64
10, 122500, Note_off_c, 9, 35, 64
10, 122500, Note_off_c, 9, 40, 92
10, 122500, Note_off_c, 9, 45, 92
10, 122688, Note_on_c, 9, 45, 60
10, 122688, Note_on_c, 9, 85, 60
10, 122692, Note_off_c, 9, 85, 64
10, 122692, Note_off_c, 9, 45, 92
10, 122784, Note_on_c, 9, 85, 55
10, 122788, Note_off_c, 9, 85, 64
10, 122880, Note_on_c, 9, 45, 110
10, 122880, Note_on_c, 9, 40, 117
10, 122880, Note_on_c, 9, 35, 117
10, 122880, Note_on_c, 9, 85, 71
10, 122884, Note_off_c, 9, 85, 64
10, 122884, Note_off_c, 9, 35, 64
10, 122884, Note_off_c, 9, 40, 92
10, 122884, Note_off_c, 9, 45, 92
10, 123072, Note_on_c, 9, 45, 60
10, 123072, Note_on_c, 9, 85, 60
10, 123076, Note_off_c, 9, 85, 64
10, 123076, Note_off_c, 9, 45, 92
10, 123168, Note_on_c, 9, 85, 57
10, 123172, Note_off_c, 9, 85, 64
10, 123264, Note_on_c, 9, 45, 110
10, 123264, Note_on_c, 9, 40, 117
10, 123264, Note_on_c, 9, 35, 117
10, 123264, Note_on_c, 9, 85, 66
10, 123268, Note_off_c, 9, 85, 64
10, 123268, Note_off_c, 9, 35, 64
10, 123268, Note_off_c, 9, 40, 92
10, 123268, Note_off_c, 9, 45, 92
10, 123456, Note_on_c, 9, 45, 60
10, 123456, Note_on_c, 9, 85, 63
10, 123460, Note_off_c, 9, 85, 64
10, 123460, Note_off_c, 9, 45, 92
10, 123552, Note_on_c, 9, 85, 55
10, 123556, Note_off_c, 9, 85, 64
10, 123648, Note_on_c, 9, 45, 110
10, 123648, Note_on_c, 9, 40, 117
10, 123648, Note_on_c, 9, 35, 117
10, 123648, Note_on_c, 9, 85, 55
10, 123652, Note_off_c, 9, 85, 64
10, 123652, Note_off_c, 9, 35, 64
10, 123652, Note_off_c, 9, 40, 92
10, 123652, Note_off_c, 9, 45, 92
10, 123840, Note_on_c, 9, 45, 60
10, 123840, Note_on_c, 9, 85, 63
10, 123844, Note_off_c, 9, 85, 64
10, 123844, Note_off_c, 9, 45, 92
10, 123936, Note_on_c, 9, 85, 56
10, 123940, Note_off_c, 9, 85, 64
10, 124032, Note_on_c, 9, 45, 110
10, 124032, Note_on_c, 9, 40, 117
10, 124032, Note_on_c, 9, 35, 117
10, 124032, Note_on_c, 9, 85, 58
10, 124036, Note_off_c, 9, 85, 64
10, 124036, Note_off_c, 9, 35, 64
10, 124036, Note_off_c, 9, 40, 92
10, 124036, Note_off_c, 9, 45, 92
10, 124224, Note_on_c, 9, 45, 60
10, 124224, Note_on_c, 9, 85, 60
10, 124228, Note_off_c, 9, 85, 64
10, 124228, Note_off_c, 9, 45, 92
10, 124320, Note_on_c, 9, 85, 55
10, 124324, Note_off_c, 9, 85, 64
10, 124416, Note_on_c, 9, 45, 110
10, 124416, Note_on_c, 9, 40, 117
10, 124416, Note_on_c, 9, 35, 117
10, 124416, Note_on_c, 9, 85, 71
10, 124420, Note_off_c, 9, 85, 64
10, 124420, Note_off_c, 9, 35, 64
10, 124420, Note_off_c, 9, 40, 92
10, 124420, Note_off_c, 9, 45, 92
10, 124608, Note_on_c, 9, 45, 60
10, 124608, Note_on_c, 9, 85, 60
10, 124612, Note_off_c, 9, 85, 64
10, 124612, Note_off_c, 9, 45, 92
10, 124704, Note_on_c, 9, 85, 57
10, 124708, Note_off_c, 9, 85, 64
10, 124800, Note_on_c, 9, 45, 110
10, 124800, Note_on_c, 9, 40, 117
10, 124800, Note_on_c, 9, 35, 117
10, 124800, Note_on_c, 9, 85, 66
10, 124804, Note_off_c, 9, 85, 64
10, 124804, Note_off_c, 9, 35, 64
10, 124804, Note_off_c, 9, 40, 92
10, 124804, Note_off_c, 9, 45, 92
10, 124992, Note_on_c, 9, 45, 60
10, 124992, Note_on_c, 9, 85, 63
10, 124996, Note_off_c, 9, 85, 64
10, 124996, Note_off_c, 9, 45, 92
10, 125088, Note_on_c, 9, 85, 55
10, 125092, Note_off_c, 9, 85, 64
10, 125184, Note_on_c, 9, 45, 110
10, 125184, Note_on_c, 9, 40, 117
10, 125184, Note_on_c, 9, 35, 117
10, 125184, Note_on_c, 9, 85, 55
10, 125188, Note_off_c, 9, 85, 64
10, 125188, Note_off_c, 9, 35, 64
10, 125188, Note_off_c, 9, 40, 92
10, 125188, Note_off_c, 9, 45, 92
10, 125376, Note_on_c, 9, 45, 60
10, 125376, Note_on_c, 9, 85, 63
10, 125380, Note_off_c, 9, 85, 64
10, 125380, Note_off_c, 9, 45, 92
10, 125472, Note_on_c, 9, 85, 56
10, 125476, Note_off_c, 9, 85, 64
10, 125568, Note_on_c, 9, 45, 110
10, 125568, Note_on_c, 9, 40, 117
10, 125568, Note_on_c, 9, 35, 117
10, 125568, Note_on_c, 9, 85, 58
10, 125572, Note_off_c, 9, 85, 64
10, 125572, Note_off_c, 9, 35, 64
10, 125572, Note_off_c, 9, 40, 92
10, 125572, Note_off_c, 9, 45, 92
10, 125760, Note_on_c, 9, 45, 60
10, 125760, Note_on_c, 9, 85, 60
10, 125764, Note_off_c, 9, 85, 64
10, 125764, Note_off_c, 9, 45, 92
10, 125856, Note_on_c, 9, 85, 55
10, 125860, Note_off_c, 9, 85, 64
10, 125952, Note_on_c, 9, 45, 110
10, 125952, Note_on_c, 9, 40, 117
10, 125952, Note_on_c, 9, 35, 117
10, 125952, Note_on_c, 9, 85, 71
10, 125956, Note_off_c, 9, 85, 64
10, 125956, Note_off_c, 9, 35, 64
10, 125956, Note_off_c, 9, 40, 92
10, 125956, Note_off_c, 9, 45, 92
10, 126144, Note_on_c, 9, 45, 60
10, 126144, Note_on_c, 9, 85, 60
10, 126148, Note_off_c, 9, 85, 64
10, 126148, Note_off_c, 9, 45, 92
10, 126240, Note_on_c, 9, 85, 57
10, 126244, Note_off_c, 9, 85, 64
10, 126336, Note_on_c, 9, 45, 110
10, 126336, Note_on_c, 9, 40, 117
10, 126336, Note_on_c, 9, 35, 117
10, 126336, Note_on_c, 9, 85, 66
10, 126340, Note_off_c, 9, 85, 64
10, 126340, Note_off_c, 9, 35, 64
10, 126340, Note_off_c, 9, 40, 92
10, 126340, Note_off_c, 9, 45, 92
10, 126528, Note_on_c, 9, 45, 60
10, 126528, Note_on_c, 9, 85, 63
10, 126532, Note_off_c, 9, 85, 64
10, 126532, Note_off_c, 9, 45, 92
10, 126624, Note_on_c, 9, 85, 55
10, 126628, Note_off_c, 9, 85, 64
10, 126720, Note_on_c, 9, 45, 110
10, 126720, Note_on_c, 9, 40, 117
10, 126720, Note_on_c, 9, 35, 117
10, 126720, Note_on_c, 9, 85, 55
10, 126724, Note_off_c, 9, 85, 64
10, 126724, Note_off_c, 9, 35, 64
10, 126724, Note_off_c, 9, 40, 92
10, 126724, Note_off_c, 9, 45, 92
10, 126912, Note_on_c, 9, 45, 60
10, 126912, Note_on_c, 9, 85, 63
10, 126916, Note_off_c, 9, 85, 64
10, 126916, Note_off_c, 9, 45, 92
10, 127008, Note_on_c, 9, 85, 56
10, 127012, Note_off_c, 9, 85, 64
10, 127104, Note_on_c, 9, 45, 110
10, 127104, Note_on_c, 9, 40, 117
10, 127104, Note_on_c, 9, 35, 117
10, 127104, Note_on_c, 9, 85, 58
10, 127108, Note_off_c, 9, 85, 64
10, 127108, Note_off_c, 9, 35, 64
10, 127108, Note_off_c, 9, 40, 92
10, 127108, Note_off_c, 9, 45, 92
10, 127296, Note_on_c, 9, 45, 60
10, 127296, Note_on_c, 9, 85, 60
10, 127300, Note_off_c, 9, 85, 64
10, 127300, Note_off_c, 9, 45, 92
10, 127392, Note_on_c, 9, 85, 55
10, 127396, Note_off_c, 9, 85, 64
10, 127488, Note_on_c, 9, 35, 108
10, 127488, Note_on_c, 9, 49, 117
10, 127488, Note_on_c, 9, 85, 56
10, 127492, Note_off_c, 9, 85, 64
10, 127492, Note_off_c, 9, 49, 64
10, 127492, Note_off_c, 9, 35, 64
10, 127508, Note_on_c, 9, 46, 80
10, 127512, Note_off_c, 9, 46, 64
10, 127680, Note_on_c, 9, 85, 45
10, 127684, Note_off_c, 9, 85, 64
10, 127776, Note_on_c, 9, 85, 42
10, 127780, Note_off_c, 9, 85, 64
10, 127872, Note_on_c, 9, 40, 117
10, 127872, Note_on_c, 9, 35, 107
10, 127872, Note_on_c, 9, 85, 51
10, 127876, Note_off_c, 9, 85, 64
10, 127876, Note_off_c, 9, 35, 64
10, 127876, Note_off_c, 9, 40, 92
10, 127888, Note_on_c, 9, 46, 117
10, 127892, Note_off_c, 9, 46, 64
10, 128064, Note_on_c, 9, 85, 48
10, 128068, Note_off_c, 9, 85, 64
10, 128160, Note_on_c, 9, 85, 40
10, 128164, Note_off_c, 9, 85, 64
10, 128256, Note_on_c, 9, 35, 108
10, 128256, Note_on_c, 9, 85, 40
10, 128260, Note_off_c, 9, 85, 64
10, 128260, Note_off_c, 9, 35, 64
10, 128276, Note_on_c, 9, 46, 70
10, 128280, Note_off_c, 9, 46, 64
10, 128448, Note_on_c, 9, 85, 48
10, 128452, Note_off_c, 9, 85, 64
10, 128544, Note_on_c, 9, 85, 41
10, 128548, Note_off_c, 9, 85, 64
10, 128620, Note_on_c, 9, 46, 117
10, 128628, Note_off_c, 9, 46, 64
10, 128640, Note_on_c, 9, 40, 117
10, 128640, Note_on_c, 9, 35, 98
10, 128640, Note_on_c, 9, 85, 43
10, 128644, Note_off_c, 9, 85, 64
10, 128644, Note_off_c, 9, 35, 64
10, 128644, Note_off_c, 9, 40, 92
10, 128832, Note_on_c, 9, 35, 95
10, 128832, Note_on_c, 9, 85, 45
10, 128836, Note_off_c, 9, 85, 64
10, 128836, Note_off_c, 9, 35, 64
10, 128928, Note_on_c, 9, 85, 40
10, 128932, Note_off_c, 9, 85, 64
10, 129024, Note_on_c, 9, 35, 108
10, 129024, Note_on_c, 9, 85, 56
10, 129028, Note_off_c, 9, 85, 64
10, 129028, Note_off_c, 9, 35, 64
10, 129036, Note_on_c, 9, 46, 80
10, 129040, Note_off_c, 9, 46, 64
10, 129216, Note_on_c, 9, 85, 45
10, 129220, Note_off_c, 9, 85, 64
10, 129312, Note_on_c, 9, 85, 42
10, 129316, Note_off_c, 9, 85, 64
10, 129392, Note_on_c, 9, 46, 117
10, 129396, Note_off_c, 9, 46, 64
10, 129408, Note_on_c, 9, 40, 117
10, 129408, Note_on_c, 9, 35, 108
10, 129408, Note_on_c, 9, 85, 51
10, 129412, Note_off_c, 9, 85, 64
10, 129412, Note_off_c, 9, 35, 64
10, 129412, Note_off_c, 9, 40, 92
10, 129600, Note_on_c, 9, 85, 48
10, 129604, Note_off_c, 9, 85, 64
10, 129696, Note_on_c, 9, 85, 40
10, 129700, Note_off_c, 9, 85, 64
10, 129792, Note_on_c, 9, 35, 109
10, 129792, Note_on_c, 9, 85, 40
10, 129796, Note_off_c, 9, 85, 64
10, 129796, Note_off_c, 9, 35, 64
10, 129808, Note_on_c, 9, 46, 70
10, 129812, Note_off_c, 9, 46, 64
10, 129984, Note_on_c, 9, 85, 48
10, 129988, Note_off_c, 9, 85, 64
10, 130080, Note_on_c, 9, 85, 41
10, 130084, Note_off_c, 9, 85, 64
10, 130152, Note_on_c, 9, 46, 117
10, 130160, Note_off_c, 9, 46, 64
10, 130176, Note_on_c, 9, 40, 117
10, 130176, Note_on_c, 9, 35, 105
10, 130176, Note_on_c, 9, 85, 43
10, 130180, Note_off_c, 9, 85, 64
10, 130180, Note_off_c, 9, 35, 64
10, 130180, Note_off_c, 9, 40, 92
10, 130368, Note_on_c, 9, 35, 100
10, 130368, Note_on_c, 9, 85, 45
10, 130372, Note_off_c, 9, 85, 64
10, 130372, Note_off_c, 9, 35, 64
10, 130464, Note_on_c, 9, 85, 40
10, 130468, Note_off_c, 9, 85, 64
10, 130560, Note_on_c, 9, 35, 105
10, 130560, Note_on_c, 9, 85, 56
10, 130564, Note_off_c, 9, 85, 64
10, 130564, Note_off_c, 9, 35, 64
10, 130568, Note_on_c, 9, 46, 79
10, 130572, Note_off_c, 9, 46, 64
10, 130752, Note_on_c, 9, 85, 45
10, 130756, Note_off_c, 9, 85, 64
10, 130848, Note_on_c, 9, 85, 42
10, 130852, Note_off_c, 9, 85, 64
10, 130916, Note_on_c, 9, 46, 117
10, 130924, Note_off_c, 9, 46, 64
10, 130944, Note_on_c, 9, 40, 117
10, 130944, Note_on_c, 9, 35, 107
10, 130944, Note_on_c, 9, 85, 51
10, 130948, Note_off_c, 9, 85, 64
10, 130948, Note_off_c, 9, 35, 64
10, 130948, Note_off_c, 9, 40, 92
10, 131136, Note_on_c, 9, 85, 48
10, 131140, Note_off_c, 9, 85, 64
10, 131232, Note_on_c, 9, 85, 40
10, 131236, Note_off_c, 9, 85, 64
10, 131328, Note_on_c, 9, 35, 108
10, 131328, Note_on_c, 9, 85, 40
10, 131332, Note_off_c, 9, 85, 64
10, 131332, Note_off_c, 9, 35, 64
10, 131332, Note_on_c, 9, 46, 82
10, 131340, Note_off_c, 9, 46, 64
10, 131520, Note_on_c, 9, 85, 48
10, 131524, Note_off_c, 9, 85, 64
10, 131616, Note_on_c, 9, 85, 41
10, 131620, Note_off_c, 9, 85, 64
10, 131680, Note_on_c, 9, 46, 117
10, 131684, Note_off_c, 9, 46, 64
10, 131712, Note_on_c, 9, 40, 117
10, 131712, Note_on_c, 9, 35, 108
10, 131712, Note_on_c, 9, 85, 43
10, 131716, Note_off_c, 9, 85, 64
10, 131716, Note_off_c, 9, 35, 64
10, 131716, Note_off_c, 9, 40, 92
10, 131904, Note_on_c, 9, 85, 45
10, 131908, Note_off_c, 9, 85, 64
10, 132000, Note_on_c, 9, 85, 40
10, 132004, Note_off_c, 9, 85, 64
10, 132080, Note_on_c, 9, 46, 79
10, 132084, Note_off_c, 9, 46, 64
10, 132096, Note_on_c, 9, 35, 108
10, 132096, Note_on_c, 9, 85, 56
10, 132100, Note_off_c, 9, 85, 64
10, 132100, Note_off_c, 9, 35, 64
10, 132288, Note_on_c, 9, 85, 45
10, 132292, Note_off_c, 9, 85, 64
10, 132384, Note_on_c, 9, 85, 42
10, 132388, Note_off_c, 9, 85, 64
10, 132452, Note_on_c, 9, 46, 117
10, 132456, Note_off_c, 9, 46, 64
10, 132480, Note_on_c, 9, 35, 108
10, 132480, Note_on_c, 9, 45, 82
10, 132480, Note_on_c, 9, 85, 51
10, 132484, Note_off_c, 9, 85, 64
10, 132484, Note_off_c, 9, 45, 64
10, 132484, Note_off_c, 9, 35, 64
10, 132672, Note_on_c, 9, 85, 48
10, 132676, Note_off_c, 9, 85, 64
10, 132768, Note_on_c, 9, 85, 40
10, 132772, Note_off_c, 9, 85, 64
10, 132864, Note_on_c, 9, 35, 109
10, 132864, Note_on_c, 9, 45, 103
10, 132864, Note_on_c, 9, 85, 40
10, 132868, Note_off_c, 9, 85, 64
10, 132868, Note_off_c, 9, 45, 64
10, 132868, Note_off_c, 9, 35, 64
10, 132876, Note_on_c, 9, 46, 70
10, 132884, Note_off_c, 9, 46, 64
10, 133056, Note_on_c, 9, 43, 41
10, 133056, Note_on_c, 9, 45, 90
10, 133056, Note_on_c, 9, 85, 48
10, 133060, Note_off_c, 9, 85, 64
10, 133060, Note_off_c, 9, 45, 64
10, 133060, Note_off_c, 9, 43, 64
10, 133152, Note_on_c, 9, 43, 85
10, 133152, Note_on_c, 9, 85, 41
10, 133156, Note_off_c, 9, 85, 64
10, 133156, Note_off_c, 9, 43, 64
10, 133216, Note_on_c, 9, 46, 117
10, 133224, Note_off_c, 9, 46, 64
10, 133248, Note_on_c, 9, 35, 108
10, 133248, Note_on_c, 9, 85, 43
10, 133252, Note_off_c, 9, 85, 64
10, 133252, Note_off_c, 9, 35, 64
10, 133440, Note_on_c, 9, 43, 111
10, 133440, Note_on_c, 9, 85, 45
10, 133444, Note_off_c, 9, 85, 64
10, 133444, Note_off_c, 9, 43, 64
10, 133536, Note_on_c, 9, 85, 40
10, 133540, Note_off_c, 9, 85, 64
10, 133632, Note_on_c, 9, 35, 108
10, 133632, Note_on_c, 9, 49, 117
10, 133632, Note_on_c, 9, 85, 56
10, 133636, Note_off_c, 9, 85, 64
10, 133636, Note_off_c, 9, 49, 64
10, 133636, Note_off_c, 9, 35, 64
10, 133652, Note_on_c, 9, 46, 80
10, 133656, Note_off_c, 9, 46, 64
10, 133824, Note_on_c, 9, 85, 45
10, 133828, Note_off_c, 9, 85, 64
10, 133920, Note_on_c, 9, 85, 42
10, 133924, Note_off_c, 9, 85, 64
10, 134016, Note_on_c, 9, 40, 117
10, 134016, Note_on_c, 9, 35, 107
10, 134016, Note_on_c, 9, 85, 51
10, 134020, Note_off_c, 9, 85, 64
10, 134020, Note_off_c, 9, 35, 64
10, 134020, Note_off_c, 9, 40, 92
10, 134032, Note_on_c, 9, 46, 117
10, 134036, Note_off_c, 9, 46, 64
10, 134208, Note_on_c, 9, 85, 48
10, 134212, Note_off_c, 9, 85, 64
10, 134304, Note_on_c, 9, 85, 40
10, 134308, Note_off_c, 9, 85, 64
10, 134400, Note_on_c, 9, 35, 108
10, 134400, Note_on_c, 9, 85, 40
10, 134404, Note_off_c, 9, 85, 64
10, 134404, Note_off_c, 9, 35, 64
10, 134420, Note_on_c, 9, 46, 70
10, 134424, Note_off_c, 9, 46, 64
10, 134592, Note_on_c, 9, 85, 48
10, 134596, Note_off_c, 9, 85, 64
10, 134688, Note_on_c, 9, 85, 41
10, 134692, Note_off_c, 9, 85, 64
10, 134764, Note_on_c, 9, 46, 117
10, 134772, Note_off_c, 9, 46, 64
10, 134784, Note_on_c, 9, 40, 117
10, 134784, Note_on_c, 9, 35, 98
10, 134784, Note_on_c, 9, 85, 43
10, 134788, Note_off_c, 9, 85, 64
10, 134788, Note_off_c, 9, 35, 64
10, 134788, Note_off_c, 9, 40, 92
10, 134976, Note_on_c, 9, 35, 95
10, 134976, Note_on_c, 9, 85, 45
10, 134980, Note_off_c, 9, 85, 64
10, 134980, Note_off_c, 9, 35, 64
10, 135072, Note_on_c, 9, 85, 40
10, 135076, Note_off_c, 9, 85, 64
10, 135168, Note_on_c, 9, 35, 108
10, 135168, Note_on_c, 9, 85, 56
10, 135172, Note_off_c, 9, 85, 64
10, 135172, Note_off_c, 9, 35, 64
10, 135180, Note_on_c, 9, 46, 80
10, 135184, Note_off_c, 9, 46, 64
10, 135360, Note_on_c, 9, 85, 45
10, 135364, Note_off_c, 9, 85, 64
10, 135456, Note_on_c, 9, 85, 42
10, 135460, Note_off_c, 9, 85, 64
10, 135536, Note_on_c, 9, 46, 117
10, 135540, Note_off_c, 9, 46, 64
10, 135552, Note_on_c, 9, 40, 117
10, 135552, Note_on_c, 9, 35, 108
10, 135552, Note_on_c, 9, 85, 51
10, 135556, Note_off_c, 9, 85, 64
10, 135556, Note_off_c, 9, 35, 64
10, 135556, Note_off_c, 9, 40, 92
10, 135744, Note_on_c, 9, 85, 48
10, 135748, Note_off_c, 9, 85, 64
10, 135840, Note_on_c, 9, 85, 40
10, 135844, Note_off_c, 9, 85, 64
10, 135936, Note_on_c, 9, 35, 109
10, 135936, Note_on_c, 9, 85, 40
10, 135940, Note_off_c, 9, 85, 64
10, 135940, Note_off_c, 9, 35, 64
10, 135952, Note_on_c, 9, 46, 70
10, 135956, Note_off_c, 9, 46, 64
10, 136128, Note_on_c, 9, 85, 48
10, 136132, Note_off_c, 9, 85, 64
10, 136224, Note_on_c, 9, 85, 41
10, 136228, Note_off_c, 9, 85, 64
10, 136296, Note_on_c, 9, 46, 117
10, 136304, Note_off_c, 9, 46, 64
10, 136320, Note_on_c, 9, 40, 117
10, 136320, Note_on_c, 9, 35, 105
10, 136320, Note_on_c, 9, 85, 43
10, 136324, Note_off_c, 9, 85, 64
10, 136324, Note_off_c, 9, 35, 64
10, 136324, Note_off_c, 9, 40, 92
10, 136512, Note_on_c, 9, 35, 100
10, 136512, Note_on_c, 9, 85, 45
10, 136516, Note_off_c, 9, 85, 64
10, 136516, Note_off_c, 9, 35, 64
10, 136608, Note_on_c, 9, 85, 40
10, 136612, Note_off_c, 9, 85, 64
10, 136704, Note_on_c, 9, 35, 105
10, 136704, Note_on_c, 9, 85, 56
10, 136708, Note_off_c, 9, 85, 64
10, 136708, Note_off_c, 9, 35, 64
10, 136712, Note_on_c, 9, 46, 79
10, 136716, Note_off_c, 9, 46, 64
10, 136896, Note_on_c, 9, 85, 45
10, 136900, Note_off_c, 9, 85, 64
10, 136992, Note_on_c, 9, 85, 42
10, 136996, Note_off_c, 9, 85, 64
10, 137060, Note_on_c, 9, 46, 117
10, 137068, Note_off_c, 9, 46, 64
10, 137088, Note_on_c, 9, 40, 117
10, 137088, Note_on_c, 9, 35, 107
10, 137088, Note_on_c, 9, 85, 51
10, 137092, Note_off_c, 9, 85, 64
10, 137092, Note_off_c, 9, 35, 64
10, 137092, Note_off_c, 9, 40, 92
10, 137280, Note_on_c, 9, 85, 48
10, 137284, Note_off_c, 9, 85, 64
10, 137376, Note_on_c, 9, 85, 40
10, 137380, Note_off_c, 9, 85, 64
10, 137472, Note_on_c, 9, 35, 108
10, 137472, Note_on_c, 9, 85, 40
10, 137476, Note_off_c, 9, 85, 64
10, 137476, Note_off_c, 9, 35, 64
10, 137476, Note_on_c, 9, 46, 82
10, 137484, Note_off_c, 9, 46, 64
10, 137664, Note_on_c, 9, 85, 48
10, 137668, Note_off_c, 9, 85, 64
10, 137760, Note_on_c, 9, 85, 41
10, 137764, Note_off_c, 9, 85, 64
10, 137824, Note_on_c, 9, 46, 117
10, 137828, Note_off_c, 9, 46, 64
10, 137856, Note_on_c, 9, 40, 117
10, 137856, Note_on_c, 9, 35, 108
10, 137856, Note_on_c, 9, 85, 43
10, 137860, Note_off_c, 9, 85, 64
10, 137860, Note_off_c, 9, 35, 64
10, 137860, Note_off_c, 9, 40, 92
10, 138048, Note_on_c, 9, 85, 45
10, 138052, Note_off_c, 9, 85, 64
10, 138144, Note_on_c, 9, 85, 40
10, 138148, Note_off_c, 9, 85, 64
10, 138224, Note_on_c, 9, 46, 79
10, 138228, Note_off_c, 9, 46, 64
10, 138240, Note_on_c, 9, 35, 108
10, 138240, Note_on_c, 9, 85, 56
10, 138244, Note_off_c, 9, 85, 64
10, 138244, Note_off_c, 9, 35, 64
10, 138432, Note_on_c, 9, 85, 45
10, 138436, Note_off_c, 9, 85, 64
10, 138528, Note_on_c, 9, 85, 42
10, 138532, Note_off_c, 9, 85, 64
10, 138596, Note_on_c, 9, 46, 117
10, 138600, Note_off_c, 9, 46, 64
10, 138624, Note_on_c, 9, 40, 117
10, 138624, Note_on_c, 9, 35, 108
10, 138624, Note_on_c, 9, 45, 82
10, 138624, Note_on_c, 9, 85, 51
10, 138628, Note_off_c, 9, 85, 64
10, 138628, Note_off_c, 9, 45, 64
10, 138628, Note_off_c, 9, 35, 64
10, 138628, Note_off_c, 9, 40, 92
10, 138816, Note_on_c, 9, 85, 48
10, 138820, Note_off_c, 9, 85, 64
10, 138912, Note_on_c, 9, 85, 40
10, 138916, Note_off_c, 9, 85, 64
10, 139008, Note_on_c, 9, 35, 109
10, 139008, Note_on_c, 9, 45, 103
10, 139008, Note_on_c, 9, 85, 40
10, 139012, Note_off_c, 9, 85, 64
10, 139012, Note_off_c, 9, 45, 64
10, 139012, Note_off_c, 9, 35, 64
10, 139020, Note_on_c, 9, 46, 70
10, 139028, Note_off_c, 9, 46, 64
10, 139200, Note_on_c, 9, 43, 41
10, 139200, Note_on_c, 9, 45, 90
10, 139200, Note_on_c, 9, 85, 48
10, 139204, Note_off_c, 9, 85, 64
10, 139204, Note_off_c, 9, 45, 64
10, 139204, Note_off_c, 9, 43, 64
10, 139296, Note_on_c, 9, 43, 85
10, 139296, Note_on_c, 9, 85, 41
10, 139300, Note_off_c, 9, 85, 64
10, 139300, Note_off_c, 9, 43, 64
10, 139360, Note_on_c, 9, 46, 117
10, 139368, Note_off_c, 9, 46, 64
10, 139392, Note_on_c, 9, 35, 108
10, 139392, Note_on_c, 9, 85, 43
10, 139396, Note_off_c, 9, 85, 64
10, 139396, Note_off_c, 9, 35, 64
10, 139584, Note_on_c, 9, 43, 111
10, 139584, Note_on_c, 9, 85, 45
10, 139588, Note_off_c, 9, 85, 64
10, 139588, Note_off_c, 9, 43, 64
10, 139680, Note_on_c, 9, 85, 40
10, 139684, Note_off_c, 9, 85, 64
10, 139776, Note_on_c, 9, 45, 110
10, 139776, Note_on_c, 9, 40, 117
10, 139776, Note_on_c, 9, 35, 117
10, 139776, Note_on_c, 9, 49, 117
10, 139776, Note_on_c, 9, 85, 71
10, 139780, Note_off_c, 9, 85, 64
10, 139780, Note_off_c, 9, 49, 64
10, 139780, Note_off_c, 9, 35, 64
10, 139780, Note_off_c, 9, 40, 92
10, 139780, Note_off_c, 9, 45, 92
10, 139968, Note_on_c, 9, 45, 60
10, 139968, Note_on_c, 9, 85, 60
10, 139972, Note_off_c, 9, 85, 64
10, 139972, Note_off_c, 9, 45, 92
10, 140064, Note_on_c, 9, 85, 57
10, 140068, Note_off_c, 9, 85, 64
10, 140160, Note_on_c, 9, 45, 110
10, 140160, Note_on_c, 9, 40, 117
10, 140160, Note_on_c, 9, 35, 117
10, 140160, Note_on_c, 9, 85, 66
10, 140164, Note_off_c, 9, 85, 64
10, 140164, Note_off_c, 9, 35, 64
10, 140164, Note_off_c, 9, 40, 92
10, 140164, Note_off_c, 9, 45, 92
10, 140352, Note_on_c, 9, 45, 60
10, 140352, Note_on_c, 9, 85, 63
10, 140356, Note_off_c, 9, 85, 64
10, 140356, Note_off_c, 9, 45, 92
10, 140448, Note_on_c, 9, 85, 55
10, 140452, Note_off_c, 9, 85, 64
10, 140544, Note_on_c, 9, 45, 110
10, 140544, Note_on_c, 9, 40, 117
10, 140544, Note_on_c, 9, 35, 117
10, 140544, Note_on_c, 9, 85, 55
10, 140548, Note_off_c, 9, 85, 64
10, 140548, Note_off_c, 9, 35, 64
10, 140548, Note_off_c, 9, 40, 92
10, 140548, Note_off_c, 9, 45, 92
10, 140736, Note_on_c, 9, 45, 60
10, 140736, Note_on_c, 9, 85, 63
10, 140740, Note_off_c, 9, 85, 64
10, 140740, Note_off_c, 9, 45, 92
10, 140832, Note_on_c, 9, 85, 56
10, 140836, Note_off_c, 9, 85, 64
10, 140928, Note_on_c, 9, 45, 110
10, 140928, Note_on_c, 9, 40, 117
10, 140928, Note_on_c, 9, 35, 117
10, 140928, Note_on_c, 9, 85, 58
10, 140932, Note_off_c, 9, 85, 64
10, 140932, Note_off_c, 9, 35, 64
10, 140932, Note_off_c, 9, 40, 92
10, 140932, Note_off_c, 9, 45, 92
10, 141120, Note_on_c, 9, 45, 60
10, 141120, Note_on_c, 9, 85, 60
10, 141124, Note_off_c, 9, 85, 64
10, 141124, Note_off_c, 9, 45, 92
10, 141216, Note_on_c, 9, 85, 55
10, 141220, Note_off_c, 9, 85, 64
10, 141312, Note_on_c, 9, 45, 110
10, 141312, Note_on_c, 9, 40, 117
10, 141312, Note_on_c, 9, 35, 117
10, 141312, Note_on_c, 9, 85, 71
10, 141316, Note_off_c, 9, 85, 64
10, 141316, Note_off_c, 9, 35, 64
10, 141316, Note_off_c, 9, 40, 92
10, 141316, Note_off_c, 9, 45, 92
10, 141504, Note_on_c, 9, 45, 60
10, 141504, Note_on_c, 9, 85, 60
10, 141508, Note_off_c, 9, 85, 64
10, 141508, Note_off_c, 9, 45, 92
10, 141600, Note_on_c, 9, 85, 57
10, 141604, Note_off_c, 9, 85, 64
10, 141696, Note_on_c, 9, 45, 110
10, 141696, Note_on_c, 9, 40, 117
10, 141696, Note_on_c, 9, 35, 117
10, 141696, Note_on_c, 9, 85, 66
10, 141700, Note_off_c, 9, 85, 64
10, 141700, Note_off_c, 9, 35, 64
10, 141700, Note_off_c, 9, 40, 92
10, 141700, Note_off_c, 9, 45, 92
10, 141888, Note_on_c, 9, 45, 60
10, 141888, Note_on_c, 9, 85, 63
10, 141892, Note_off_c, 9, 85, 64
10, 141892, Note_off_c, 9, 45, 92
10, 141984, Note_on_c, 9, 85, 55
10, 141988, Note_off_c, 9, 85, 64
10, 142080, Note_on_c, 9, 45, 110
10, 142080, Note_on_c, 9, 40, 117
10, 142080, Note_on_c, 9, 35, 117
10, 142080, Note_on_c, 9, 85, 55
10, 142084, Note_off_c, 9, 85, 64
10, 142084, Note_off_c, 9, 35, 64
10, 142084, Note_off_c, 9, 40, 92
10, 142084, Note_off_c, 9, 45, 92
10, 142272, Note_on_c, 9, 45, 60
10, 142272, Note_on_c, 9, 85, 63
10, 142276, Note_off_c, 9, 85, 64
10, 142276, Note_off_c, 9, 45, 92
10, 142368, Note_on_c, 9, 85, 56
10, 142372, Note_off_c, 9, 85, 64
10, 142464, Note_on_c, 9, 45, 110
10, 142464, Note_on_c, 9, 40, 117
10, 142464, Note_on_c, 9, 35, 117
10, 142464, Note_on_c, 9, 85, 58
10, 142468, Note_off_c, 9, 85, 64
10, 142468, Note_off_c, 9, 35, 64
10, 142468, Note_off_c, 9, 40, 92
10, 142468, Note_off_c, 9, 45, 92
10, 142656, Note_on_c, 9, 45, 60
10, 142656, Note_on_c, 9, 85, 60
10, 142660, Note_off_c, 9, 85, 64
10, 142660, Note_off_c, 9, 45, 92
10, 142752, Note_on_c, 9, 85, 55
10, 142756, Note_off_c, 9, 85, 64
10, 142848, Note_on_c, 9, 45, 110
10, 142848, Note_on_c, 9, 40, 117
10, 142848, Note_on_c, 9, 35, 117
10, 142848, Note_on_c, 9, 85, 71
10, 142852, Note_off_c, 9, 85, 64
10, 142852, Note_off_c, 9, 35, 64
10, 142852, Note_off_c, 9, 40, 92
10, 142852, Note_off_c, 9, 45, 92
10, 143040, Note_on_c, 9, 45, 60
10, 143040, Note_on_c, 9, 85, 60
10, 143044, Note_off_c, 9, 85, 64
10, 143044, Note_off_c, 9, 45, 92
10, 143136, Note_on_c, 9, 85, 57
10, 143140, Note_off_c, 9, 85, 64
10, 143232, Note_on_c, 9, 45, 110
10, 143232, Note_on_c, 9, 40, 117
10, 143232, Note_on_c, 9, 35, 117
10, 143232, Note_on_c, 9, 85, 66
10, 143236, Note_off_c, 9, 85, 64
10, 143236, Note_off_c, 9, 35, 64
10, 143236, Note_off_c, 9, 40, 92
10, 143236, Note_off_c, 9, 45, 92
10, 143424, Note_on_c, 9, 45, 60
10, 143424, Note_on_c, 9, 85, 63
10, 143428, Note_off_c, 9, 85, 64
10, 143428, Note_off_c, 9, 45, 92
10, 143520, Note_on_c, 9, 85, 55
10, 143524, Note_off_c, 9, 85, 64
10, 143616, Note_on_c, 9, 45, 110
10, 143616, Note_on_c, 9, 40, 117
10, 143616, Note_on_c, 9, 35, 117
10, 143616, Note_on_c, 9, 85, 55
10, 143620, Note_off_c, 9, 85, 64
10, 143620, Note_off_c, 9, 35, 64
10, 143620, Note_off_c, 9, 40, 92
10, 143620, Note_off_c, 9, 45, 92
10, 143808, Note_on_c, 9, 45, 60
10, 143808, Note_on_c, 9, 85, 63
10, 143812, Note_off_c, 9, 85, 64
10, 143812, Note_off_c, 9, 45, 92
10, 143904, Note_on_c, 9, 85, 56
10, 143908, Note_off_c, 9, 85, 64
10, 144000, Note_on_c, 9, 45, 110
10, 144000, Note_on_c, 9, 40, 117
10, 144000, Note_on_c, 9, 35, 117
10, 144000, Note_on_c, 9, 85, 58
10, 144004, Note_off_c, 9, 85, 64
10, 144004, Note_off_c, 9, 35, 64
10, 144004, Note_off_c, 9, 40, 92
10, 144004, Note_off_c, 9, 45, 92
10, 144192, Note_on_c, 9, 45, 60
10, 144192, Note_on_c, 9, 85, 60
10, 144196, Note_off_c, 9, 85, 64
10, 144196, Note_off_c, 9, 45, 92
10, 144288, Note_on_c, 9, 85, 55
10, 144292, Note_off_c, 9, 85, 64
10, 144384, Note_on_c, 9, 45, 110
10, 144384, Note_on_c, 9, 40, 117
10, 144384, Note_on_c, 9, 35, 117
10, 144384, Note_on_c, 9, 85, 71
10, 144388, Note_off_c, 9, 85, 64
10, 144388, Note_off_c, 9, 35, 64
10, 144388, Note_off_c, 9, 40, 92
10, 144388, Note_off_c, 9, 45, 92
10, 144576, Note_on_c, 9, 45, 60
10, 144576, Note_on_c, 9, 85, 60
10, 144580, Note_off_c, 9, 85, 64
10, 144580, Note_off_c, 9, 45, 92
10, 144672, Note_on_c, 9, 85, 57
10, 144676, Note_off_c, 9, 85, 64
10, 144768, Note_on_c, 9, 45, 110
10, 144768, Note_on_c, 9, 40, 117
10, 144768, Note_on_c, 9, 35, 117
10, 144768, Note_on_c, 9, 85, 66
10, 144772, Note_off_c, 9, 85, 64
10, 144772, Note_off_c, 9, 35, 64
10, 144772, Note_off_c, 9, 40, 92
10, 144772, Note_off_c, 9, 45, 92
10, 144960, Note_on_c, 9, 45, 60
10, 144960, Note_on_c, 9, 85, 63
10, 144964, Note_off_c, 9, 85, 64
10, 144964, Note_off_c, 9, 45, 92
10, 145056, Note_on_c, 9, 85, 55
10, 145060, Note_off_c, 9, 85, 64
10, 145152, Note_on_c, 9, 45, 110
10, 145152, Note_on_c, 9, 40, 117
10, 145152, Note_on_c, 9, 35, 117
10, 145152, Note_on_c, 9, 85, 55
10, 145156, Note_off_c, 9, 85, 64
10, 145156, Note_off_c, 9, 35, 64
10, 145156, Note_off_c, 9, 40, 92
10, 145156, Note_off_c, 9, 45, 92
10, 145344, Note_on_c, 9, 45, 60
10, 145344, Note_on_c, 9, 85, 63
10, 145348, Note_off_c, 9, 85, 64
10, 145348, Note_off_c, 9, 45, 92
10, 145440, Note_on_c, 9, 85, 56
10, 145444, Note_off_c, 9, 85, 64
10, 145536, Note_on_c, 9, 45, 110
10, 145536, Note_on_c, 9, 40, 117
10, 145536, Note_on_c, 9, 35, 117
10, 145536, Note_on_c, 9, 85, 58
10, 145540, Note_off_c, 9, 85, 64
10, 145540, Note_off_c, 9, 35, 64
10, 145540, Note_off_c, 9, 40, 92
10, 145540, Note_off_c, 9, 45, 92
10, 145728, Note_on_c, 9, 45, 60
10, 145728, Note_on_c, 9, 85, 60
10, 145732, Note_off_c, 9, 85, 64
10, 145732, Note_off_c, 9, 45, 92
10, 145824, Note_on_c, 9, 85, 55
10, 145828, Note_off_c, 9, 85, 64
10, 145920, Note_on_c, 9, 45, 110
10, 145920, Note_on_c, 9, 40, 117
10, 145920, Note_on_c, 9, 35, 117
10, 145920, Note_on_c, 9, 85, 82
10, 145924, Note_off_c, 9, 85, 64
10, 145924, Note_off_c, 9, 35, 64
10, 145924, Note_off_c, 9, 40, 92
10, 145924, Note_off_c, 9, 45, 92
10, 146112, Note_on_c, 9, 45, 60
10, 146116, Note_off_c, 9, 45, 92
10, 146304, Note_on_c, 9, 45, 110
10, 146304, Note_on_c, 9, 40, 117
10, 146304, Note_on_c, 9, 35, 117
10, 146304, Note_on_c, 9, 85, 72
10, 146308, Note_off_c, 9, 85, 64
10, 146308, Note_off_c, 9, 35, 64
10, 146308, Note_off_c, 9, 40, 92
10, 146308, Note_off_c, 9, 45, 92
10, 146432, Note_on_c, 9, 85, 76
10, 146436, Note_off_c, 9, 85, 64
10, 146496, Note_on_c, 9, 45, 60
10, 146500, Note_off_c, 9, 45, 92
10, 146560, Note_on_c, 9, 85, 71
10, 146564, Note_off_c, 9, 85, 64
10, 146688, Note_on_c, 9, 45, 110
10, 146688, Note_on_c, 9, 40, 117
10, 146688, Note_on_c, 9, 35, 117
10, 146688, Note_on_c, 9, 85, 72
10, 146692, Note_off_c, 9, 85, 64
10, 146692, Note_off_c, 9, 35, 64
10, 146692, Note_off_c, 9, 40, 92
10, 146692, Note_off_c, 9, 45, 92
10, 146880, Note_on_c, 9, 45, 60
10, 146884, Note_off_c, 9, 45, 92
10, 147072, Note_on_c, 9, 45, 110
10, 147072, Note_on_c, 9, 40, 117
10, 147072, Note_on_c, 9, 35, 117
10, 147072, Note_on_c, 9, 85, 74
10, 147076, Note_off_c, 9, 85, 64
10, 147076, Note_off_c, 9, 35, 64
10, 147076, Note_off_c, 9, 40, 92
10, 147076, Note_off_c, 9, 45, 92
10, 147200, Note_on_c, 9, 85, 70
10, 147204, Note_off_c, 9, 85, 64
10, 147264, Note_on_c, 9, 45, 60
10, 147268, Note_off_c, 9, 45, 92
10, 147328, Note_on_c, 9, 85, 73
10, 147332, Note_off_c, 9, 85, 64
10, 147456, Note_on_c, 9, 45, 110
10, 147456, Note_on_c, 9, 40, 117
10, 147456, Note_on_c, 9, 35, 117
10, 147456, Note_on_c, 9, 85, 72
10, 147460, Note_off_c, 9, 85, 64
10, 147460, Note_off_c, 9, 35, 64
10, 147460, Note_off_c, 9, 40, 92
10, 147460, Note_off_c, 9, 45, 92
10, 147648, Note_on_c, 9, 45, 60
10, 147652, Note_off_c, 9, 45, 92
10, 147840, Note_on_c, 9, 45, 110
10, 147840, Note_on_c, 9, 40, 117
10, 147840, Note_on_c, 9, 35, 117
10, 147840, Note_on_c, 9, 85, 74
10, 147844, Note_off_c, 9, 85, 64
10, 147844, Note_off_c, 9, 35, 64
10, 147844, Note_off_c, 9, 40, 92
10, 147844, Note_off_c, 9, 45, 92
10, 147968, Note_on_c, 9, 85, 66
10, 147972, Note_off_c, 9, 85, 64
10, 148032, Note_on_c, 9, 45, 60
10, 148036, Note_off_c, 9, 45, 92
10, 148096, Note_on_c, 9, 85, 72
10, 148100, Note_off_c, 9, 85, 64
10, 148224, Note_on_c, 9, 45, 110
10, 148224, Note_on_c, 9, 40, 117
10, 148224, Note_on_c, 9, 35, 117
10, 148224, Note_on_c, 9, 85, 78
10, 148228, Note_off_c, 9, 85, 64
10, 148228, Note_off_c, 9, 35, 64
10, 148228, Note_off_c, 9, 40, 92
10, 148228, Note_off_c, 9, 45, 92
10, 148416, Note_on_c, 9, 45, 60
10, 148420, Note_off_c, 9, 45, 92
10, 148608, Note_on_c, 9, 45, 110
10, 148608, Note_on_c, 9, 40, 117
10, 148608, Note_on_c, 9, 35, 117
10, 148608, Note_on_c, 9, 85, 79
10, 148612, Note_off_c, 9, 85, 64
10, 148612, Note_off_c, 9, 35, 64
10, 148612, Note_off_c, 9, 40, 92
10, 148612, Note_off_c, 9, 45, 92
10, 148800, Note_on_c, 9, 45, 60
10, 148804, Note_off_c, 9, 45, 92
10, 148992, Note_on_c, 9, 45, 110
10, 148992, Note_on_c, 9, 40, 117
10, 148992, Note_on_c, 9, 35, 117
10, 148992, Note_on_c, 9, 85, 82
10, 148996, Note_off_c, 9, 85, 64
10, 148996, Note_off_c, 9, 35, 64
10, 148996, Note_off_c, 9, 40, 92
10, 148996, Note_off_c, 9, 45, 92
10, 149184, Note_on_c, 9, 45, 60
10, 149188, Note_off_c, 9, 45, 92
10, 149376, Note_on_c, 9, 45, 110
10, 149376, Note_on_c, 9, 40, 117
10, 149376, Note_on_c, 9, 35, 117
10, 149376, Note_on_c, 9, 85, 72
10, 149380, Note_off_c, 9, 85, 64
10, 149380, Note_off_c, 9, 35, 64
10, 149380, Note_off_c, 9, 40, 92
10, 149380, Note_off_c, 9, 45, 92
10, 149504, Note_on_c, 9, 85, 76
10, 149508, Note_off_c, 9, 85, 64
10, 149568, Note_on_c, 9, 45, 60
10, 149572, Note_off_c, 9, 45, 92
10, 149632, Note_on_c, 9, 85, 74
10, 149636, Note_off_c, 9, 85, 64
10, 149760, Note_on_c, 9, 45, 110
10, 149760, Note_on_c, 9, 40, 117
10, 149760, Note_on_c, 9, 35, 117
10, 149760, Note_on_c, 9, 85, 77
10, 149764, Note_off_c, 9, 85, 64
10, 149764, Note_off_c, 9, 35, 64
10, 149764, Note_off_c, 9, 40, 92
10, 149764, Note_off_c, 9, 45, 92
10, 149952, Note_on_c, 9, 45, 60
10, 149956, Note_off_c, 9, 45, 92
10, 150144, Note_on_c, 9, 45, 110
10, 150144, Note_on_c, 9, 40, 117
10, 150144, Note_on_c, 9, 35, 117
10, 150144, Note_on_c, 9, 85, 74
10, 150148, Note_off_c, 9, 85, 64
10, 150148, Note_off_c, 9, 35, 64
10, 150148, Note_off_c, 9, 40, 92
10, 150148, Note_off_c, 9, 45, 92
10, 150272, Note_on_c, 9, 85, 71
10, 150276, Note_off_c, 9, 85, 64
10, 150336, Note_on_c, 9, 45, 60
10, 150340, Note_off_c, 9, 45, 92
10, 150400, Note_on_c, 9, 85, 73
10, 150404, Note_off_c, 9, 85, 64
10, 150528, Note_on_c, 9, 45, 110
10, 150528, Note_on_c, 9, 40, 117
10, 150528, Note_on_c, 9, 35, 117
10, 150528, Note_on_c, 9, 85, 78
10, 150532, Note_off_c, 9, 85, 64
10, 150532, Note_off_c, 9, 35, 64
10, 150532, Note_off_c, 9, 40, 92
10, 150532, Note_off_c, 9, 45, 92
10, 150720, Note_on_c, 9, 45, 60
10, 150724, Note_off_c, 9, 45, 92
10, 150912, Note_on_c, 9, 45, 110
10, 150912, Note_on_c, 9, 40, 117
10, 150912, Note_on_c, 9, 35, 117
10, 150912, Note_on_c, 9, 85, 77
10, 150916, Note_off_c, 9, 85, 64
10, 150916, Note_off_c, 9, 35, 64
10, 150916, Note_off_c, 9, 40, 92
10, 150916, Note_off_c, 9, 45, 92
10, 151040, Note_on_c, 9, 85, 70
10, 151044, Note_off_c, 9, 85, 64
10, 151104, Note_on_c, 9, 45, 60
10, 151108, Note_off_c, 9, 45, 92
10, 151168, Note_on_c, 9, 85, 73
10, 151172, Note_off_c, 9, 85, 64
10, 151296, Note_on_c, 9, 45, 110
10, 151296, Note_on_c, 9, 40, 117
10, 151296, Note_on_c, 9, 35, 117
10, 151296, Note_on_c, 9, 85, 67
10, 151300, Note_off_c, 9, 85, 64
10, 151300, Note_off_c, 9, 35, 64
10, 151300, Note_off_c, 9, 40, 92
10, 151300, Note_off_c, 9, 45, 92
10, 151424, Note_on_c, 9, 85, 74
10, 151428, Note_off_c, 9, 85, 64
10, 151488, Note_on_c, 9, 45, 60
10, 151492, Note_off_c, 9, 45, 92
10, 151552, Note_on_c, 9, 85, 67
10, 151556, Note_off_c, 9, 85, 64
10, 151680, Note_on_c, 9, 45, 110
10, 151680, Note_on_c, 9, 40, 117
10, 151680, Note_on_c, 9, 35, 117
10, 151680, Note_on_c, 9, 85, 74
10, 151684, Note_off_c, 9, 85, 64
10, 151684, Note_off_c, 9, 35, 64
10, 151684, Note_off_c, 9, 40, 92
10, 151684, Note_off_c, 9, 45, 92
10, 151808, Note_on_c, 9, 85, 69
10, 151812, Note_off_c, 9, 85, 64
10, 151872, Note_on_c, 9, 45, 60
10, 151876, Note_off_c, 9, 45, 92
10, 151936, Note_on_c, 9, 85, 74
10, 151940, Note_off_c, 9, 85, 64
10, 152064, Note_on_c, 9, 45, 110
10, 152064, Note_on_c, 9, 40, 117
10, 152064, Note_on_c, 9, 35, 117
10, 152064, Note_on_c, 9, 85, 82
10, 152068, Note_off_c, 9, 85, 64
10, 152068, Note_off_c, 9, 35, 64
10, 152068, Note_off_c, 9, 40, 92
10, 152068, Note_off_c, 9, 45, 92
10, 152256, Note_on_c, 9, 45, 60
10, 152260, Note_off_c, 9, 45, 92
10, 152448, Note_on_c, 9, 45, 110
10, 152448, Note_on_c, 9, 40, 117
10, 152448, Note_on_c, 9, 35, 117
10, 152448, Note_on_c, 9, 85, 72
10, 152452, Note_off_c, 9, 85, 64
10, 152452, Note_off_c, 9, 35, 64
10, 152452, Note_off_c, 9, 40, 92
10, 152452, Note_off_c, 9, 45, 92
10, 152576, Note_on_c, 9, 85, 76
10, 152580, Note_off_c, 9, 85, 64
10, 152640, Note_on_c, 9, 45, 60
10, 152644, Note_off_c, 9, 45, 92
10, 152704, Note_on_c, 9, 85, 74
10, 152708, Note_off_c, 9, 85, 64
10, 152832, Note_on_c, 9, 45, 110
10, 152832, Note_on_c, 9, 40, 117
10, 152832, Note_on_c, 9, 35, 117
10, 152832, Note_on_c, 9, 85, 77
10, 152836, Note_off_c, 9, 85, 64
10, 152836, Note_off_c, 9, 35, 64
10, 152836, Note_off_c, 9, 40, 92
10, 152836, Note_off_c, 9, 45, 92
10, 153024, Note_on_c, 9, 45, 60
10, 153028, Note_off_c, 9, 45, 92
10, 153216, Note_on_c, 9, 45, 110
10, 153216, Note_on_c, 9, 40, 117
10, 153216, Note_on_c, 9, 35, 117
10, 153216, Note_on_c, 9, 85, 74
10, 153220, Note_off_c, 9, 85, 64
10, 153220, Note_off_c, 9, 35, 64
10, 153220, Note_off_c, 9, 40, 92
10, 153220, Note_off_c, 9, 45, 92
10, 153344, Note_on_c, 9, 85, 71
10, 153348, Note_off_c, 9, 85, 64
10, 153408, Note_on_c, 9, 45, 60
10, 153412, Note_off_c, 9, 45, 92
10, 153472, Note_on_c, 9, 85, 73
10, 153476, Note_off_c, 9, 85, 64
10, 153600, Note_on_c, 9, 45, 110
10, 153600, Note_on_c, 9, 40, 117
10, 153600, Note_on_c, 9, 35, 117
10, 153600, Note_on_c, 9, 85, 78
10, 153604, Note_off_c, 9, 85, 64
10, 153604, Note_off_c, 9, 35, 64
10, 153604, Note_off_c, 9, 40, 92
10, 153604, Note_off_c, 9, 45, 92
10, 153792, Note_on_c, 9, 45, 60
10, 153796, Note_off_c, 9, 45, 92
10, 153984, Note_on_c, 9, 45, 110
10, 153984, Note_on_c, 9, 40, 117
10, 153984, Note_on_c, 9, 35, 117
10, 153984, Note_on_c, 9, 85, 77
10, 153988, Note_off_c, 9, 85, 64
10, 153988, Note_off_c, 9, 35, 64
10, 153988, Note_off_c, 9, 40, 92
10, 153988, Note_off_c, 9, 45, 92
10, 154112, Note_on_c, 9, 85, 70
10, 154116, Note_off_c, 9, 85, 64
10, 154176, Note_on_c, 9, 45, 60
10, 154180, Note_off_c, 9, 45, 92
10, 154240, Note_on_c, 9, 85, 73
10, 154244, Note_off_c, 9, 85, 64
10, 154368, Note_on_c, 9, 45, 110
10, 154368, Note_on_c, 9, 40, 117
10, 154368, Note_on_c, 9, 35, 117
10, 154368, Note_on_c, 9, 85, 67
10, 154372, Note_off_c, 9, 85, 64
10, 154372, Note_off_c, 9, 35, 64
10, 154372, Note_off_c, 9, 40, 92
10, 154372, Note_off_c, 9, 45, 92
10, 154496, Note_on_c, 9, 85, 74
10, 154500, Note_off_c, 9, 85, 64
10, 154560, Note_on_c, 9, 45, 60
10, 154564, Note_off_c, 9, 45, 92
10, 154624, Note_on_c, 9, 85, 67
10, 154628, Note_off_c, 9, 85, 64
10, 154752, Note_on_c, 9, 45, 110
10, 154752, Note_on_c, 9, 40, 117
10, 154752, Note_on_c, 9, 35, 117
10, 154752, Note_on_c, 9, 85, 74
10, 154756, Note_off_c, 9, 85, 64
10, 154756, Note_off_c, 9, 35, 64
10, 154756, Note_off_c, 9, 40, 92
10, 154756, Note_off_c, 9, 45, 92
10, 154880, Note_on_c, 9, 85, 69
10, 154884, Note_off_c, 9, 85, 64
10, 154944, Note_on_c, 9, 45, 60
10, 154948, Note_off_c, 9, 45, 92
10, 155008, Note_on_c, 9, 85, 74
10, 155012, Note_off_c, 9, 85, 64
10, 155136, Note_on_c, 9, 45, 110
10, 155136, Note_on_c, 9, 40, 117
10, 155136, Note_on_c, 9, 35, 117
10, 155136, Note_on_c, 9, 85, 82
10, 155140, Note_off_c, 9, 85, 64
10, 155140, Note_off_c, 9, 35, 64
10, 155140, Note_off_c, 9, 40, 92
10, 155140, Note_off_c, 9, 45, 92
10, 155328, Note_on_c, 9, 45, 60
10, 155332, Note_off_c, 9, 45, 92
10, 155520, Note_on_c, 9, 45, 110
10, 155520, Note_on_c, 9, 40, 117
10, 155520, Note_on_c, 9, 35, 117
10, 155520, Note_on_c, 9, 85, 72
10, 155524, Note_off_c, 9, 85, 64
10, 155524, Note_off_c, 9, 35, 64
10, 155524, Note_off_c, 9, 40, 92
10, 155524, Note_off_c, 9, 45, 92
10, 155648, Note_on_c, 9, 85, 76
10, 155652, Note_off_c, 9, 85, 64
10, 155712, Note_on_c, 9, 45, 60
10, 155716, Note_off_c, 9, 45, 92
10, 155776, Note_on_c, 9, 85, 74
10, 155780, Note_off_c, 9, 85, 64
10, 155904, Note_on_c, 9, 45, 110
10, 155904, Note_on_c, 9, 40, 117
10, 155904, Note_on_c, 9, 35, 117
10, 155904, Note_on_c, 9, 85, 77
10, 155908, Note_off_c, 9, 85, 64
10, 155908, Note_off_c, 9, 35, 64
10, 155908, Note_off_c, 9, 40, 92
10, 155908, Note_off_c, 9, 45, 92
10, 156096, Note_on_c, 9, 45, 60
10, 156100, Note_off_c, 9, 45, 92
10, 156288, Note_on_c, 9, 45, 110
10, 156288, Note_on_c, 9, 40, 117
10, 156288, Note_on_c, 9, 35, 117
10, 156288, Note_on_c, 9, 85, 74
10, 156292, Note_off_c, 9, 85, 64
10, 156292, Note_off_c, 9, 35, 64
10, 156292, Note_off_c, 9, 40, 92
10, 156292, Note_off_c, 9, 45, 92
10, 156416, Note_on_c, 9, 85, 71
10, 156420, Note_off_c, 9, 85, 64
10, 156480, Note_on_c, 9, 45, 60
10, 156484, Note_off_c, 9, 45, 92
10, 156544, Note_on_c, 9, 85, 73
10, 156548, Note_off_c, 9, 85, 64
10, 156672, Note_on_c, 9, 45, 110
10, 156672, Note_on_c, 9, 40, 117
10, 156672, Note_on_c, 9, 35, 117
10, 156672, Note_on_c, 9, 85, 78
10, 156676, Note_off_c, 9, 85, 64
10, 156676, Note_off_c, 9, 35, 64
10, 156676, Note_off_c, 9, 40, 92
10, 156676, Note_off_c, 9, 45, 92
10, 156864, Note_on_c, 9, 45, 60
10, 156868, Note_off_c, 9, 45, 92
10, 157056, Note_on_c, 9, 45, 110
10, 157056, Note_on_c, 9, 40, 117
10, 157056, Note_on_c, 9, 35, 117
10, 157056, Note_on_c, 9, 85, 77
10, 157060, Note_off_c, 9, 85, 64
10, 157060, Note_off_c, 9, 35, 64
10, 157060, Note_off_c, 9, 40, 92
10, 157060, Note_off_c, 9, 45, 92
10, 157184, Note_on_c, 9, 85, 70
10, 157188, Note_off_c, 9, 85, 64
10, 157248, Note_on_c, 9, 45, 60
10, 157252, Note_off_c, 9, 45, 92
10, 157312, Note_on_c, 9, 85, 73
10, 157316, Note_off_c, 9, 85, 64
10, 157440, Note_on_c, 9, 45, 110
10, 157440, Note_on_c, 9, 40, 117
10, 157440, Note_on_c, 9, 35, 117
10, 157440, Note_on_c, 9, 85, 67
10, 157444, Note_off_c, 9, 85, 64
10, 157444, Note_off_c, 9, 35, 64
10, 157444, Note_off_c, 9, 40, 92
10, 157444, Note_off_c, 9, 45, 92
10, 157568, Note_on_c, 9, 85, 74
10, 157572, Note_off_c, 9, 85, 64
10, 157632, Note_on_c, 9, 45, 60
10, 157636, Note_off_c, 9, 45, 92
10, 157696, Note_on_c, 9, 85, 67
10, 157700, Note_off_c, 9, 85, 64
10, 157824, Note_on_c, 9, 45, 110
10, 157824, Note_on_c, 9, 40, 117
10, 157824, Note_on_c, 9, 35, 117
10, 157824, Note_on_c, 9, 85, 74
10, 157828, Note_off_c, 9, 85, 64
10, 157828, Note_off_c, 9, 35, 64
10, 157828, Note_off_c, 9, 40, 92
10, 157828, Note_off_c, 9, 45, 92
10, 157952, Note_on_c, 9, 85, 69
10, 157956, Note_off_c, 9, 85, 64
10, 158016, Note_on_c, 9, 45, 60
10, 158020, Note_off_c, 9, 45, 92
10, 158080, Note_on_c, 9, 85, 74
10, 158084, Note_off_c, 9, 85, 64
10, 158208, Note_on_c, 9, 45, 110
10, 158208, Note_on_c, 9, 40, 117
10, 158208, Note_on_c, 9, 35, 117
10, 158208, Note_on_c, 9, 85, 82
10, 158212, Note_off_c, 9, 85, 64
10, 158212, Note_off_c, 9, 35, 64
10, 158212, Note_off_c, 9, 40, 92
10, 158212, Note_off_c, 9, 45, 92
10, 158400, Note_on_c, 9, 45, 60
10, 158404, Note_off_c, 9, 45, 92
10, 158592, Note_on_c, 9, 45, 110
10, 158592, Note_on_c, 9, 40, 117
10, 158592, Note_on_c, 9, 35, 117
10, 158592, Note_on_c, 9, 85, 72
10, 158596, Note_off_c, 9, 85, 64
10, 158596, Note_off_c, 9, 35, 64
10, 158596, Note_off_c, 9, 40, 92
10, 158596, Note_off_c, 9, 45, 92
10, 158720, Note_on_c, 9, 85, 76
10, 158724, Note_off_c, 9, 85, 64
10, 158784, Note_on_c, 9, 45, 60
10, 158788, Note_off_c, 9, 45, 92
10, 158848, Note_on_c, 9, 85, 74
10, 158852, Note_off_c, 9, 85, 64
10, 158976, Note_on_c, 9, 45, 110
10, 158976, Note_on_c, 9, 40, 117
10, 158976, Note_on_c, 9, 35, 117
10, 158976, Note_on_c, 9, 85, 77
10, 158980, Note_off_c, 9, 85, 64
10, 158980, Note_off_c, 9, 35, 64
10, 158980, Note_off_c, 9, 40, 92
10, 158980, Note_off_c, 9, 45, 92
10, 159168, Note_on_c, 9, 45, 60
10, 159172, Note_off_c, 9, 45, 92
10, 159360, Note_on_c, 9, 45, 110
10, 159360, Note_on_c, 9, 40, 117
10, 159360, Note_on_c, 9, 35, 117
10, 159360, Note_on_c, 9, 85, 74
10, 159364, Note_off_c, 9, 85, 64
10, 159364, Note_off_c, 9, 35, 64
10, 159364, Note_off_c, 9, 40, 92
10, 159364, Note_off_c, 9, 45, 92
10, 159488, Note_on_c, 9, 85, 71
10, 159492, Note_off_c, 9, 85, 64
10, 159552, Note_on_c, 9, 45, 60
10, 159556, Note_off_c, 9, 45, 92
10, 159616, Note_on_c, 9, 85, 73
10, 159620, Note_off_c, 9, 85, 64
10, 159744, Note_on_c, 9, 45, 110
10, 159744, Note_on_c, 9, 40, 117
10, 159744, Note_on_c, 9, 35, 117
10, 159744, Note_on_c, 9, 85, 78
10, 159748, Note_off_c, 9, 85, 64
10, 159748, Note_off_c, 9, 35, 64
10, 159748, Note_off_c, 9, 40, 92
10, 159748, Note_off_c, 9, 45, 92
10, 159936, Note_on_c, 9, 45, 60
10, 159940, Note_off_c, 9, 45, 92
10, 160128, Note_on_c, 9, 45, 110
10, 160128, Note_on_c, 9, 40, 117
10, 160128, Note_on_c, 9, 35, 117
10, 160128, Note_on_c, 9, 85, 77
10, 160132, Note_off_c, 9, 85, 64
10, 160132, Note_off_c, 9, 35, 64
10, 160132, Note_off_c, 9, 40, 92
10, 160132, Note_off_c, 9, 45, 92
10, 160256, Note_on_c, 9, 85, 70
10, 160260, Note_off_c, 9, 85, 64
10, 160320, Note_on_c, 9, 45, 60
10, 160324, Note_off_c, 9, 45, 92
10, 160384, Note_on_c, 9, 85, 73
10, 160388, Note_off_c, 9, 85, 64
10, 160512, Note_on_c, 9, 45, 110
10, 160512, Note_on_c, 9, 40, 117
10, 160512, Note_on_c, 9, 35, 117
10, 160512, Note_on_c, 9, 85, 67
10, 160516, Note_off_c, 9, 85, 64
10, 160516, Note_off_c, 9, 35, 64
10, 160516, Note_off_c, 9, 40, 92
10, 160516, Note_off_c, 9, 45, 92
10, 160640, Note_on_c, 9, 85, 74
10, 160644, Note_off_c, 9, 85, 64
10, 160704, Note_on_c, 9, 45, 60
10, 160708, Note_off_c, 9, 45, 92
10, 160768, Note_on_c, 9, 85, 67
10, 160772, Note_off_c, 9, 85, 64
10, 160896, Note_on_c, 9, 45, 110
10, 160896, Note_on_c, 9, 40, 117
10, 160896, Note_on_c, 9, 35, 117
10, 160896, Note_on_c, 9, 85, 74
10, 160900, Note_off_c, 9, 85, 64
10, 160900, Note_off_c, 9, 35, 64
10, 160900, Note_off_c, 9, 40, 92
10, 160900, Note_off_c, 9, 45, 92
10, 161024, Note_on_c, 9, 85, 69
10, 161028, Note_off_c, 9, 85, 64
10, 161088, Note_on_c, 9, 45, 60
10, 161092, Note_off_c, 9, 45, 92
10, 161152, Note_on_c, 9, 85, 74
10, 161156, Note_off_c, 9, 85, 64
10, 161280, Note_on_c, 9, 45, 110
10, 161280, Note_on_c, 9, 40, 117
10, 161280, Note_on_c, 9, 35, 117
10, 161280, Note_on_c, 9, 85, 82
10, 161284, Note_off_c, 9, 85, 64
10, 161284, Note_off_c, 9, 35, 64
10, 161284, Note_off_c, 9, 40, 92
10, 161284, Note_off_c, 9, 45, 92
10, 161472, Note_on_c, 9, 45, 60
10, 161476, Note_off_c, 9, 45, 92
10, 161664, Note_on_c, 9, 45, 110
10, 161664, Note_on_c, 9, 40, 117
10, 161664, Note_on_c, 9, 35, 117
10, 161664, Note_on_c, 9, 85, 72
10, 161668, Note_off_c, 9, 85, 64
10, 161668, Note_off_c, 9, 35, 64
10, 161668, Note_off_c, 9, 40, 92
10, 161668, Note_off_c, 9, 45, 92
10, 161792, Note_on_c, 9, 85, 76
10, 161796, Note_off_c, 9, 85, 64
10, 161856, Note_on_c, 9, 45, 60
10, 161860, Note_off_c, 9, 45, 92
10, 161920, Note_on_c, 9, 85, 74
10, 161924, Note_off_c, 9, 85, 64
10, 162048, Note_on_c, 9, 45, 110
10, 162048, Note_on_c, 9, 40, 117
10, 162048, Note_on_c, 9, 35, 117
10, 162048, Note_on_c, 9, 85, 77
10, 162052, Note_off_c, 9, 85, 64
10, 162052, Note_off_c, 9, 35, 64
10, 162052, Note_off_c, 9, 40, 92
10, 162052, Note_off_c, 9, 45, 92
10, 162240, Note_on_c, 9, 45, 60
10, 162244, Note_off_c, 9, 45, 92
10, 162432, Note_on_c, 9, 45, 110
10, 162432, Note_on_c, 9, 40, 117
10, 162432, Note_on_c, 9, 35, 117
10, 162432, Note_on_c, 9, 85, 74
10, 162436, Note_off_c, 9, 85, 64
10, 162436, Note_off_c, 9, 35, 64
10, 162436, Note_off_c, 9, 40, 92
10, 162436, Note_off_c, 9, 45, 92
10, 162560, Note_on_c, 9, 85, 71
10, 162564, Note_off_c, 9, 85, 64
10, 162624, Note_on_c, 9, 45, 60
10, 162628, Note_off_c, 9, 45, 92
10, 162688, Note_on_c, 9, 85, 73
10, 162692, Note_off_c, 9, 85, 64
10, 162816, Note_on_c, 9, 45, 110
10, 162816, Note_on_c, 9, 40, 117
10, 162816, Note_on_c, 9, 35, 117
10, 162816, Note_on_c, 9, 85, 78
10, 162820, Note_off_c, 9, 85, 64
10, 162820, Note_off_c, 9, 35, 64
10, 162820, Note_off_c, 9, 40, 92
10, 162820, Note_off_c, 9, 45, 92
10, 163008, Note_on_c, 9, 45, 60
10, 163012, Note_off_c, 9, 45, 92
10, 163200, Note_on_c, 9, 45, 110
10, 163200, Note_on_c, 9, 40, 117
10, 163200, Note_on_c, 9, 35, 117
10, 163200, Note_on_c, 9, 85, 77
10, 163204, Note_off_c, 9, 85, 64
10, 163204, Note_off_c, 9, 35, 64
10, 163204, Note_off_c, 9, 40, 92
10, 163204, Note_off_c, 9, 45, 92
10, 163328, Note_on_c, 9, 85, 70
10, 163332, Note_off_c, 9, 85, 64
10, 163392, Note_on_c, 9, 45, 60
10, 163396, Note_off_c, 9, 45, 92
10, 163456, Note_on_c, 9, 85, 73
10, 163460, Note_off_c, 9, 85, 64
10, 163584, Note_on_c, 9, 45, 110
10, 163584, Note_on_c, 9, 40, 117
10, 163584, Note_on_c, 9, 35, 117
10, 163584, Note_on_c, 9, 85, 67
10, 163588, Note_off_c, 9, 85, 64
10, 163588, Note_off_c, 9, 35, 64
10, 163588, Note_off_c, 9, 40, 92
10, 163588, Note_off_c, 9, 45, 92
10, 163712, Note_on_c, 9, 85, 74
10, 163716, Note_off_c, 9, 85, 64
10, 163776, Note_on_c, 9, 45, 60
10, 163780, Note_off_c, 9, 45, 92
10, 163840, Note_on_c, 9, 85, 67
10, 163844, Note_off_c, 9, 85, 64
10, 163968, Note_on_c, 9, 45, 110
10, 163968, Note_on_c, 9, 40, 117
10, 163968, Note_on_c, 9, 35, 117
10, 163968, Note_on_c, 9, 85, 74
10, 163972, Note_off_c, 9, 85, 64
10, 163972, Note_off_c, 9, 35, 64
10, 163972, Note_off_c, 9, 40, 92
10, 163972, Note_off_c, 9, 45, 92
10, 164096, Note_on_c, 9, 85, 69
10, 164100, Note_off_c, 9, 85, 64
10, 164160, Note_on_c, 9, 45, 60
10, 164164, Note_off_c, 9, 45, 92
10, 164224, Note_on_c, 9, 85, 74
10, 164228, Note_off_c, 9, 85, 64
10, 164352, Note_on_c, 9, 45, 110
10, 164352, Note_on_c, 9, 40, 117
10, 164352, Note_on_c, 9, 35, 117
10, 164352, Note_on_c, 9, 85, 82
10, 164352, Control_c, 9, 11, 126
10, 164356, Note_off_c, 9, 85, 64
10, 164356, Note_off_c, 9, 35, 64
10, 164356, Note_off_c, 9, 40, 92
10, 164356, Note_off_c, 9, 45, 92
10, 164496, Control_c, 9, 11, 125
10, 164544, Note_on_c, 9, 45, 60
10, 164548, Note_off_c, 9, 45, 92
10, 164592, Control_c, 9, 11, 124
10, 164688, Control_c, 9, 11, 123
10, 164736, Note_on_c, 9, 45, 110
10, 164736, Note_on_c, 9, 40, 117
10, 164736, Note_on_c, 9, 35, 117
10, 164736, Note_on_c, 9, 85, 72
10, 164740, Note_off_c, 9, 85, 64
10, 164740, Note_off_c, 9, 35, 64
10, 164740, Note_off_c, 9, 40, 92
10, 164740, Note_off_c, 9, 45, 92
10, 164784, Control_c, 9, 11, 122
10, 164864, Note_on_c, 9, 85, 76
10, 164868, Note_off_c, 9, 85, 64
10, 164880, Control_c, 9, 11, 121
10, 164928, Note_on_c, 9, 45, 60
10, 164932, Note_off_c, 9, 45, 92
10, 164976, Control_c, 9, 11, 120
10, 164992, Note_on_c, 9, 85, 74
10, 164996, Note_off_c, 9, 85, 64
10, 165072, Control_c, 9, 11, 119
10, 165120, Note_on_c, 9, 45, 110
10, 165120, Note_on_c, 9, 40, 117
10, 165120, Note_on_c, 9, 35, 117
10, 165120, Note_on_c, 9, 85, 77
10, 165124, Note_off_c, 9, 85, 64
10, 165124, Note_off_c, 9, 35, 64
10, 165124, Note_off_c, 9, 40, 92
10, 165124, Note_off_c, 9, 45, 92
10, 165168, Control_c, 9, 11, 118
10, 165264, Control_c, 9, 11, 117
10, 165312, Note_on_c, 9, 45, 60
10, 165316, Note_off_c, 9, 45, 92
10, 165360, Control_c, 9, 11, 116
10, 165456, Control_c, 9, 11, 115
10, 165504, Note_on_c, 9, 45, 110
10, 165504, Note_on_c, 9, 40, 117
10, 165504, Note_on_c, 9, 35, 117
10, 165504, Note_on_c, 9, 85, 74
10, 165508, Note_off_c, 9, 85, 64
10, 165508, Note_off_c, 9, 35, 64
10, 165508, Note_off_c, 9, 40, 92
10, 165508, Note_off_c, 9, 45, 92
10, 165552, Control_c, 9, 11, 114
10, 165632, Note_on_c, 9, 85, 71
10, 165636, Note_off_c, 9, 85, 64
10, 165648, Control_c, 9, 11, 113
10, 165696, Note_on_c, 9, 45, 60
10, 165700, Note_off_c, 9, 45, 92
10, 165744, Control_c, 9, 11, 112
10, 165760, Note_on_c, 9, 85, 73
10, 165764, Note_off_c, 9, 85, 64
10, 165840, Control_c, 9, 11, 111
10, 165888, Note_on_c, 9, 45, 110
10, 165888, Note_on_c, 9, 40, 117
10, 165888, Note_on_c, 9, 35, 117
10, 165888, Note_on_c, 9, 85, 78
10, 165892, Note_off_c, 9, 85, 64
10, 165892, Note_off_c, 9, 35, 64
10, 165892, Note_off_c, 9, 40, 92
10, 165892, Note_off_c, 9, 45, 92
10, 165936, Control_c, 9, 11, 110
10, 166032, Control_c, 9, 11, 109
10, 166080, Note_on_c, 9, 45, 60
10, 166084, Note_off_c, 9, 45, 92
10, 166128, Control_c, 9, 11, 108
10, 166224, Control_c, 9, 11, 107
10, 166272, Note_on_c, 9, 45, 110
10, 166272, Note_on_c, 9, 40, 117
10, 166272, Note_on_c, 9, 35, 117
10, 166272, Note_on_c, 9, 85, 77
10, 166276, Note_off_c, 9, 85, 64
10, 166276, Note_off_c, 9, 35, 64
10, 166276, Note_off_c, 9, 40, 92
10, 166276, Note_off_c, 9, 45, 92
10, 166320, Control_c, 9, 11, 106
10, 166400, Note_on_c, 9, 85, 70
10, 166404, Note_off_c, 9, 85, 64
10, 166416, Control_c, 9, 11, 105
10, 166464, Note_on_c, 9, 45, 60
10, 166468, Note_off_c, 9, 45, 92
10, 166512, Control_c, 9, 11, 104
10, 166528, Note_on_c, 9, 85, 73
10, 166532, Note_off_c, 9, 85, 64
10, 166608, Control_c, 9, 11, 103
10, 166656, Note_on_c, 9, 45, 110
10, 166656, Note_on_c, 9, 40, 117
10, 166656, Note_on_c, 9, 35, 117
10, 166656, Note_on_c, 9, 85, 67
10, 166660, Note_off_c, 9, 85, 64
10, 166660, Note_off_c, 9, 35, 64
10, 166660, Note_off_c, 9, 40, 92
10, 166660, Note_off_c, 9, 45, 92
10, 166704, Control_c, 9, 11, 102
10, 166784, Note_on_c, 9, 85, 74
10, 166788, Note_off_c, 9, 85, 64
10, 166800, Control_c, 9, 11, 101
10, 166848, Note_on_c, 9, 45, 60
10, 166852, Note_off_c, 9, 45, 92
10, 166896, Control_c, 9, 11, 100
10, 166912, Note_on_c, 9, 85, 67
10, 166916, Note_off_c, 9, 85, 64
10, 166992, Control_c, 9, 11, 99
10, 167040, Note_on_c, 9, 45, 110
10, 167040, Note_on_c, 9, 40, 117
10, 167040, Note_on_c, 9, 35, 117
10, 167040, Note_on_c, 9, 85, 74
10, 167044, Note_off_c, 9, 85, 64
10, 167044, Note_off_c, 9, 35, 64
10, 167044, Note_off_c, 9, 40, 92
10, 167044, Note_off_c, 9, 45, 92
10, 167088, Control_c, 9, 11, 98
10, 167168, Note_on_c, 9, 85, 69
10, 167172, Note_off_c, 9, 85, 64
10, 167184, Control_c, 9, 11, 97
10, 167232, Note_on_c, 9, 45, 60
10, 167236, Note_off_c, 9, 45, 92
10, 167280, Control_c, 9, 11, 96
10, 167296, Note_on_c, 9, 85, 74
10, 167300, Note_off_c, 9, 85, 64
10, 167376, Control_c, 9, 11, 95
10, 167424, Note_on_c, 9, 45, 110
10, 167424, Note_on_c, 9, 40, 117
10, 167424, Note_on_c, 9, 35, 117
10, 167424, Note_on_c, 9, 85, 82
10, 167428, Note_off_c, 9, 85, 64
10, 167428, Note_off_c, 9, 35, 64
10, 167428, Note_off_c, 9, 40, 92
10, 167428, Note_off_c, 9, 45, 92
10, 167472, Control_c, 9, 11, 94
10, 167568, Control_c, 9, 11, 93
10, 167616, Note_on_c, 9, 45, 60
10, 167620, Note_off_c, 9, 45, 92
10, 167664, Control_c, 9, 11, 92
10, 167760, Control_c, 9, 11, 91
10, 167808, Note_on_c, 9, 45, 110
10, 167808, Note_on_c, 9, 40, 117
10, 167808, Note_on_c, 9, 35, 117
10, 167808, Note_on_c, 9, 85, 72
10, 167812, Note_off_c, 9, 85, 64
10, 167812, Note_off_c, 9, 35, 64
10, 167812, Note_off_c, 9, 40, 92
10, 167812, Note_off_c, 9, 45, 92
10, 167856, Control_c, 9, 11, 90
10, 167936, Note_on_c, 9, 85, 76
10, 167940, Note_off_c, 9, 85, 64
10, 167952, Control_c, 9, 11, 89
10, 168000, Note_on_c, 9, 45, 60
10, 168004, Note_off_c, 9, 45, 92
10, 168048, Control_c, 9, 11, 88
10, 168064, Note_on_c, 9, 85, 74
10, 168068, Note_off_c, 9, 85, 64
10, 168144, Control_c, 9, 11, 87
10, 168192, Note_on_c, 9, 45, 110
10, 168192, Note_on_c, 9, 40, 117
10, 168192, Note_on_c, 9, 35, 117
10, 168192, Note_on_c, 9, 85, 77
10, 168196, Note_off_c, 9, 85, 64
10, 168196, Note_off_c, 9, 35, 64
10, 168196, Note_off_c, 9, 40, 92
10, 168196, Note_off_c, 9, 45, 92
10, 168240, Control_c, 9, 11, 86
10, 168336, Control_c, 9, 11, 85
10, 168384, Note_on_c, 9, 45, 60
10, 168388, Note_off_c, 9, 45, 92
10, 168432, Control_c, 9, 11, 84
10, 168528, Control_c, 9, 11, 83
10, 168576, Note_on_c, 9, 45, 110
10, 168576, Note_on_c, 9, 40, 117
10, 168576, Note_on_c, 9, 35, 117
10, 168576, Note_on_c, 9, 85, 74
10, 168580, Note_off_c, 9, 85, 64
10, 168580, Note_off_c, 9, 35, 64
10, 168580, Note_off_c, 9, 40, 92
10, 168580, Note_off_c, 9, 45, 92
10, 168624, Control_c, 9, 11, 82
10, 168704, Note_on_c, 9, 85, 71
10, 168708, Note_off_c, 9, 85, 64
10, 168720, Control_c, 9, 11, 81
10, 168768, Note_on_c, 9, 45, 60
10, 168772, Note_off_c, 9, 45, 92
10, 168816, Control_c, 9, 11, 80
10, 168832, Note_on_c, 9, 85, 73
10, 168836, Note_off_c, 9, 85, 64
10, 168912, Control_c, 9, 11, 79
10, 168960, Note_on_c, 9, 45, 110
10, 168960, Note_on_c, 9, 40, 117
10, 168960, Note_on_c, 9, 35, 117
10, 168960, Note_on_c, 9, 85, 78
10, 168964, Note_off_c, 9, 85, 64
10, 168964, Note_off_c, 9, 35, 64
10, 168964, Note_off_c, 9, 40, 92
10, 168964, Note_off_c, 9, 45, 92
10, 169008, Control_c, 9, 11, 78
10, 169104, Control_c, 9, 11, 77
10, 169152, Note_on_c, 9, 45, 60
10, 169156, Note_off_c, 9, 45, 92
10, 169200, Control_c, 9, 11, 76
10, 169296, Control_c, 9, 11, 75
10, 169344, Note_on_c, 9, 45, 110
10, 169344, Note_on_c, 9, 40, 117
10, 169344, Note_on_c, 9, 35, 117
10, 169344, Note_on_c, 9, 85, 77
10, 169348, Note_off_c, 9, 85, 64
10, 169348, Note_off_c, 9, 35, 64
10, 169348, Note_off_c, 9, 40, 92
10, 169348, Note_off_c, 9, 45, 92
10, 169392, Control_c, 9, 11, 74
10, 169472, Note_on_c, 9, 85, 70
10, 169476, Note_off_c, 9, 85, 64
10, 169488, Control_c, 9, 11, 73
10, 169536, Note_on_c, 9, 45, 60
10, 169540, Note_off_c, 9, 45, 92
10, 169584, Control_c, 9, 11, 72
10, 169600, Note_on_c, 9, 85, 73
10, 169604, Note_off_c, 9, 85, 64
10, 169680, Control_c, 9, 11, 71
10, 169728, Note_on_c, 9, 45, 110
10, 169728, Note_on_c, 9, 40, 117
10, 169728, Note_on_c, 9, 35, 117
10, 169728, Note_on_c, 9, 85, 67
10, 169732, Note_off_c, 9, 85, 64
10, 169732, Note_off_c, 9, 35, 64
10, 169732, Note_off_c, 9, 40, 92
10, 169732, Note_off_c, 9, 45, 92
10, 169776, Control_c, 9, 11, 70
10, 169856, Note_on_c, 9, 85, 74
10, 169860, Note_off_c, 9, 85, 64
10, 169872, Control_c, 9, 11, 69
10, 169920, Note_on_c, 9, 45, 60
10, 169924, Note_off_c, 9, 45, 92
10, 169968, Control_c, 9, 11, 68
10, 169984, Note_on_c, 9, 85, 67
10, 169988, Note_off_c, 9, 85, 64
10, 170064, Control_c, 9, 11, 67
10, 170112, Note_on_c, 9, 45, 110
10, 170112, Note_on_c, 9, 40, 117
10, 170112, Note_on_c, 9, 35, 117
10, 170112, Note_on_c, 9, 85, 74
10, 170116, Note_off_c, 9, 85, 64
10, 170116, Note_off_c, 9, 35, 64
10, 170116, Note_off_c, 9, 40, 92
10, 170116, Note_off_c, 9, 45, 92
10, 170160, Control_c, 9, 11, 66
10, 170240, Note_on_c, 9, 85, 69
10, 170244, Note_off_c, 9, 85, 64
10, 170256, Control_c, 9, 11, 65
10, 170304, Note_on_c, 9, 45, 60
10, 170308, Note_off_c, 9, 45, 92
10, 170352, Control_c, 9, 11, 64
10, 170368, Note_on_c, 9, 85, 74
10, 170372, Note_off_c, 9, 85, 64
10, 170448, Control_c, 9, 11, 63
10, 170496, Note_on_c, 9, 45, 110
10, 170496, Note_on_c, 9, 40, 117
10, 170496, Note_on_c, 9, 35, 117
10, 170496, Note_on_c, 9, 85, 82
10, 170500, Note_off_c, 9, 85, 64
10, 170500, Note_off_c, 9, 35, 64
10, 170500, Note_off_c, 9, 40, 92
10, 170500, Note_off_c, 9, 45, 92
10, 170544, Control_c, 9, 11, 62
10, 170688, Note_on_c, 9, 45, 60
10, 170688, Control_c, 9, 11, 61
10, 170692, Note_off_c, 9, 45, 92
10, 170784, Control_c, 9, 11, 60
10, 170880, Note_on_c, 9, 45, 110
10, 170880, Note_on_c, 9, 40, 117
10, 170880, Note_on_c, 9, 35, 117
10, 170880, Note_on_c, 9, 85, 72
10, 170880, Control_c, 9, 11, 59
10, 170884, Note_off_c, 9, 85, 64
10, 170884, Note_off_c, 9, 35, 64
10, 170884, Note_off_c, 9, 40, 92
10, 170884, Note_off_c, 9, 45, 92
10, 170976, Control_c, 9, 11, 58
10, 171008, Note_on_c, 9, 85, 76
10, 171012, Note_off_c, 9, 85, 64
10, 171072, Note_on_c, 9, 45, 60
10, 171072, Control_c, 9, 11, 57
10, 171076, Note_off_c, 9, 45, 92
10, 171136, Note_on_c, 9, 85, 74
10, 171140, Note_off_c, 9, 85, 64
10, 171168, Control_c, 9, 11, 56
10, 171264, Note_on_c, 9, 45, 110
10, 171264, Note_on_c, 9, 40, 117
10, 171264, Note_on_c, 9, 35, 117
10, 171264, Note_on_c, 9, 85, 77
10, 171264, Control_c, 9, 11, 55
10, 171268, Note_off_c, 9, 85, 64
10, 171268, Note_off_c, 9, 35, 64
10, 171268, Note_off_c, 9, 40, 92
10, 171268, Note_off_c, 9, 45, 92
10, 171360, Control_c, 9, 11, 54
10, 171456, Note_on_c, 9, 45, 60
10, 171456, Control_c, 9, 11, 53
10, 171460, Note_off_c, 9, 45, 92
10, 171552, Control_c, 9, 11, 52
10, 171648, Note_on_c, 9, 45, 110
10, 171648, Note_on_c, 9, 40, 117
10, 171648, Note_on_c, 9, 35, 117
10, 171648, Note_on_c, 9, 85, 74
10, 171648, Control_c, 9, 11, 51
10, 171652, Note_off_c, 9, 85, 64
10, 171652, Note_off_c, 9, 35, 64
10, 171652, Note_off_c, 9, 40, 92
10, 171652, Note_off_c, 9, 45, 92
10, 171744, Control_c, 9, 11, 50
10, 171776, Note_on_c, 9, 85, 71
10, 171780, Note_off_c, 9, 85, 64
10, 171840, Note_on_c, 9, 45, 60
10, 171840, Control_c, 9, 11, 49
10, 171844, Note_off_c, 9, 45, 92
10, 171904, Note_on_c, 9, 85, 73
10, 171908, Note_off_c, 9, 85, 64
10, 171936, Control_c, 9, 11, 48
10, 172032, Note_on_c, 9, 45, 110
10, 172032, Note_on_c, 9, 40, 117
10, 172032, Note_on_c, 9, 35, 117
10, 172032, Note_on_c, 9, 85, 78
10, 172032, Control_c, 9, 11, 47
10, 172036, Note_off_c, 9, 85, 64
10, 172036, Note_off_c, 9, 35, 64
10, 172036, Note_off_c, 9, 40, 92
10, 172036, Note_off_c, 9, 45, 92
10, 172128, Control_c, 9, 11, 46
10, 172224, Note_on_c, 9, 45, 60
10, 172224, Control_c, 9, 11, 45
10, 172228, Note_off_c, 9, 45, 92
10, 172320, Control_c, 9, 11, 44
10, 172416, Note_on_c, 9, 45, 110
10, 172416, Note_on_c, 9, 40, 117
10, 172416, Note_on_c, 9, 35, 117
10, 172416, Note_on_c, 9, 85, 77
10, 172416, Control_c, 9, 11, 43
10, 172420, Note_off_c, 9, 85, 64
10, 172420, Note_off_c, 9, 35, 64
10, 172420, Note_off_c, 9, 40, 92
10, 172420, Note_off_c, 9, 45, 92
10, 172512, Control_c, 9, 11, 42
10, 172544, Note_on_c, 9, 85, 70
10, 172548, Note_off_c, 9, 85, 64
10, 172608, Note_on_c, 9, 45, 60
10, 172608, Control_c, 9, 11, 41
10, 172612, Note_off_c, 9, 45, 92
10, 172672, Note_on_c, 9, 85, 73
10, 172676, Note_off_c, 9, 85, 64
10, 172704, Control_c, 9, 11, 40
10, 172800, Note_on_c, 9, 45, 110
10, 172800, Note_on_c, 9, 40, 117
10, 172800, Note_on_c, 9, 35, 117
10, 172800, Note_on_c, 9, 85, 67
10, 172800, Control_c, 9, 11, 39
10, 172804, Note_off_c, 9, 85, 64
10, 172804, Note_off_c, 9, 35, 64
10, 172804, Note_off_c, 9, 40, 92
10, 172804, Note_off_c, 9, 45, 92
10, 172896, Control_c, 9, 11, 38
10, 172928, Note_on_c, 9, 85, 74
10, 172932, Note_off_c, 9, 85, 64
10, 172992, Note_on_c, 9, 45, 60
10, 172992, Control_c, 9, 11, 37
10, 172996, Note_off_c, 9, 45, 92
10, 173056, Note_on_c, 9, 85, 67
10, 173060, Note_off_c, 9, 85, 64
10, 173088, Control_c, 9, 11, 36
10, 173184, Note_on_c, 9, 45, 110
10, 173184, Note_on_c, 9, 40, 117
10, 173184, Note_on_c, 9, 35, 117
10, 173184, Note_on_c, 9, 85, 74
10, 173184, Control_c, 9, 11, 35
10, 173188, Note_off_c, 9, 85, 64
10, 173188, Note_off_c, 9, 35, 64
10, 173188, Note_off_c, 9, 40, 92
10, 173188, Note_off_c, 9, 45, 92
10, 173280, Control_c, 9, 11, 34
10, 173312, Note_on_c, 9, 85, 69
10, 173316, Note_off_c, 9, 85, 64
10, 173376, Note_on_c, 9, 45, 60
10, 173376, Control_c, 9, 11, 33
10, 173380, Note_off_c, 9, 45, 92
10, 173440, Note_on_c, 9, 85, 74
10, 173444, Note_off_c, 9, 85, 64
10, 173472, Control_c, 9, 11, 32
10, 173568, Note_on_c, 9, 45, 110
10, 173568, Note_on_c, 9, 40, 117
10, 173568, Note_on_c, 9, 35, 117
10, 173568, Note_on_c, 9, 85, 82
10, 173568, Control_c, 9, 11, 31
10, 173572, Note_off_c, 9, 85, 64
10, 173572, Note_off_c, 9, 35, 64
10, 173572, Note_off_c, 9, 40, 92
10, 173572, Note_off_c, 9, 45, 92
10, 173664, Control_c, 9, 11, 30
10, 173760, Note_on_c, 9, 45, 60
10, 173760, Control_c, 9, 11, 29
10, 173764, Note_off_c, 9, 45, 92
10, 173856, Control_c, 9, 11, 28
10, 173952, Note_on_c, 9, 45, 110
10, 173952, Note_on_c, 9, 40, 117
10, 173952, Note_on_c, 9, 35, 117
10, 173952, Note_on_c, 9, 85, 72
10, 173952, Control_c, 9, 11, 27
10, 173956, Note_off_c, 9, 85, 64
10, 173956, Note_off_c, 9, 35, 64
10, 173956, Note_off_c, 9, 40, 92
10, 173956, Note_off_c, 9, 45, 92
10, 174048, Control_c, 9, 11, 26
10, 174080, Note_on_c, 9, 85, 76
10, 174084, Note_off_c, 9, 85, 64
10, 174144, Note_on_c, 9, 45, 60
10, 174144, Control_c, 9, 11, 25
10, 174148, Note_off_c, 9, 45, 92
10, 174208, Note_on_c, 9, 85, 74
10, 174212, Note_off_c, 9, 85, 64
10, 174240, Control_c, 9, 11, 24
10, 174336, Note_on_c, 9, 45, 110
10, 174336, Note_on_c, 9, 40, 117
10, 174336, Note_on_c, 9, 35, 117
10, 174336, Note_on_c, 9, 85, 77
10, 174336, Control_c, 9, 11, 23
10, 174340, Note_off_c, 9, 85, 64
10, 174340, Note_off_c, 9, 35, 64
10, 174340, Note_off_c, 9, 40, 92
10, 174340, Note_off_c, 9, 45, 92
10, 174432, Control_c, 9, 11, 22
10, 174528, Note_on_c, 9, 45, 60
10, 174528, Control_c, 9, 11, 21
10, 174532, Note_off_c, 9, 45, 92
10, 174624, Control_c, 9, 11, 20
10, 174720, Note_on_c, 9, 45, 110
10, 174720, Note_on_c, 9, 40, 117
10, 174720, Note_on_c, 9, 35, 117
10, 174720, Note_on_c, 9, 85, 74
10, 174720, Control_c, 9, 11, 19
10, 174724, Note_off_c, 9, 85, 64
10, 174724, Note_off_c, 9, 35, 64
10, 174724, Note_off_c, 9, 40, 92
10, 174724, Note_off_c, 9, 45, 92
10, 174816, Control_c, 9, 11, 18
10, 174848, Note_on_c, 9, 85, 71
10, 174852, Note_off_c, 9, 85, 64
10, 174912, Note_on_c, 9, 45, 60
10, 174912, Control_c, 9, 11, 17
10, 174916, Note_off_c, 9, 45, 92
10, 174976, Note_on_c, 9, 85, 73
10, 174980, Note_off_c, 9, 85, 64
10, 175008, Control_c, 9, 11, 16
10, 175104, Note_on_c, 9, 45, 110
10, 175104, Note_on_c, 9, 40, 117
10, 175104, Note_on_c, 9, 35, 117
10, 175104, Note_on_c, 9, 85, 78
10, 175104, Control_c, 9, 11, 15
10, 175108, Note_off_c, 9, 85, 64
10, 175108, Note_off_c, 9, 35, 64
10, 175108, Note_off_c, 9, 40, 92
10, 175108, Note_off_c, 9, 45, 92
10, 175200, Control_c, 9, 11, 14
10, 175296, Note_on_c, 9, 45, 60
10, 175296, Control_c, 9, 11, 13
10, 175300, Note_off_c, 9, 45, 92
10, 175392, Control_c, 9, 11, 12
10, 175488, Note_on_c, 9, 45, 110
10, 175488, Note_on_c, 9, 40, 117
10, 175488, Note_on_c, 9, 35, 117
10, 175488, Note_on_c, 9, 85, 77
10, 175488, Control_c, 9, 11, 11
10, 175492, Note_off_c, 9, 85, 64
10, 175492, Note_off_c, 9, 35, 64
10, 175492, Note_off_c, 9, 40, 92
10, 175492, Note_off_c, 9, 45, 92
10, 175584, Control_c, 9, 11, 10
10, 175616, Note_on_c, 9, 85, 70
10, 175620, Note_off_c, 9, 85, 64
10, 175680, Note_on_c, 9, 45, 60
10, 175680, Control_c, 9, 11, 9
10, 175684, Note_off_c, 9, 45, 92
10, 175744, Note_on_c, 9, 85, 73
10, 175748, Note_off_c, 9, 85, 64
10, 175776, Control_c, 9, 11, 8
10, 175872, Note_on_c, 9, 45, 110
10, 175872, Note_on_c, 9, 40, 117
10, 175872, Note_on_c, 9, 35, 117
10, 175872, Note_on_c, 9, 85, 67
10, 175872, Control_c, 9, 11, 7
10, 175876, Note_off_c, 9, 85, 64
10, 175876, Note_off_c, 9, 35, 64
10, 175876, Note_off_c, 9, 40, 92
10, 175876, Note_off_c, 9, 45, 92
10, 175968, Control_c, 9, 11, 6
10, 176000, Note_on_c, 9, 85, 74
10, 176004, Note_off_c, 9, 85, 64
10, 176064, Note_on_c, 9, 45, 60
10, 176064, Control_c, 9, 11, 5
10, 176068, Note_off_c, 9, 45, 92
10, 176128, Note_on_c, 9, 85, 67
10, 176132, Note_off_c, 9, 85, 64
10, 176160, Control_c, 9, 11, 4
10, 176256, Note_on_c, 9, 45, 110
10, 176256, Note_on_c, 9, 40, 117
10, 176256, Note_on_c, 9, 35, 117
10, 176256, Note_on_c, 9, 85, 74
10, 176256, Control_c, 9, 11, 3
10, 176260, Note_off_c, 9, 85, 64
10, 176260, Note_off_c, 9, 35, 64
10, 176260, Note_off_c, 9, 40, 92
10, 176260, Note_off_c, 9, 45, 92
10, 176352, Control_c, 9, 11, 2
10, 176384, Note_on_c, 9, 85, 69
10, 176388, Note_off_c, 9, 85, 64
10, 176448, Note_on_c, 9, 45, 60
10, 176448, Control_c, 9, 11, 1
10, 176452, Note_off_c, 9, 45, 92
10, 176512, Note_on_c, 9, 85, 74
10, 176516, Note_off_c, 9, 85, 64
10, 176544, Control_c, 9, 11, 0
10, 176640, End_track
11, 0, Start_track
11, 0, Title_t, "MIDI"
11, 0, Control_c, 10, 7, 110
11, 0, Program_c, 10, 52
11, 592, Program_c, 10, 52
11, 596, Control_c, 10, 7, 110
11, 596, Control_c, 10, 10, 74
11, 596, Control_c, 10, 11, 127
11, 600, Control_c, 10, 91, 60
11, 600, Control_c, 10, 93, 0
11, 140176, Note_on_c, 10, 52, 93
11, 140576, Note_on_c, 10, 54, 94
11, 140612, Note_off_c, 10, 52, 64
11, 140952, Note_on_c, 10, 55, 94
11, 140976, Note_off_c, 10, 54, 64
11, 141348, Note_on_c, 10, 57, 92
11, 141364, Note_off_c, 10, 55, 64
11, 141712, Note_on_c, 10, 55, 88
11, 141736, Note_off_c, 10, 57, 64
11, 142084, Note_off_c, 10, 55, 64
11, 142088, Note_on_c, 10, 54, 83
11, 142476, Note_on_c, 10, 52, 93
11, 142524, Note_off_c, 10, 54, 64
11, 142816, Note_off_c, 10, 52, 64
11, 142860, Note_on_c, 10, 52, 92
11, 143248, Note_on_c, 10, 51, 92
11, 143260, Note_off_c, 10, 52, 64
11, 143644, Note_on_c, 10, 52, 87
11, 143684, Note_off_c, 10, 51, 64
11, 144024, Note_on_c, 10, 54, 84
11, 144036, Note_off_c, 10, 52, 64
11, 144396, Note_on_c, 10, 52, 90
11, 144428, Note_off_c, 10, 54, 64
11, 144496, Note_on_c, 10, 51, 88
11, 144536, Note_off_c, 10, 52, 64
11, 145760, Note_off_c, 10, 51, 64
11, 146320, Note_on_c, 10, 52, 93
11, 146720, Note_on_c, 10, 54, 94
11, 146756, Note_off_c, 10, 52, 64
11, 147096, Note_on_c, 10, 55, 94
11, 147120, Note_off_c, 10, 54, 64
11, 147492, Note_on_c, 10, 57, 92
11, 147508, Note_off_c, 10, 55, 64
11, 147856, Note_on_c, 10, 55, 88
11, 147880, Note_off_c, 10, 57, 64
11, 148228, Note_off_c, 10, 55, 64
11, 148232, Note_on_c, 10, 54, 83
11, 148620, Note_on_c, 10, 52, 93
11, 148668, Note_off_c, 10, 54, 64
11, 148960, Note_off_c, 10, 52, 64
11, 149004, Note_on_c, 10, 52, 92
11, 149392, Note_on_c, 10, 51, 92
11, 149404, Note_off_c, 10, 52, 64
11, 149788, Note_on_c, 10, 52, 87
11, 149828, Note_off_c, 10, 51, 64
11, 150168, Note_on_c, 10, 54, 84
11, 150180, Note_off_c, 10, 52, 64
11, 150540, Note_on_c, 10, 52, 90
11, 150572, Note_off_c, 10, 54, 64
11, 150640, Note_on_c, 10, 51, 88
11, 150680, Note_off_c, 10, 52, 64
11, 151904, Note_off_c, 10, 51, 64
11, 152464, Note_on_c, 10, 52, 93
11, 152864, Note_on_c, 10, 54, 94
11, 152900, Note_off_c, 10, 52, 64
11, 153240, Note_on_c, 10, 55, 94
11, 153264, Note_off_c, 10, 54, 64
11, 153636, Note_on_c, 10, 57, 92
11, 153652, Note_off_c, 10, 55, 64
11, 154000, Note_on_c, 10, 55, 88
11, 154024, Note_off_c, 10, 57, 64
11, 154372, Note_off_c, 10, 55, 64
11, 154376, Note_on_c, 10, 54, 83
11, 154764, Note_on_c, 10, 52, 93
11, 154812, Note_off_c, 10, 54, 64
11, 155104, Note_off_c, 10, 52, 64
11, 155148, Note_on_c, 10, 52, 92
11, 155536, Note_on_c, 10, 51, 92
11, 155548, Note_off_c, 10, 52, 64
11, 155932, Note_on_c, 10, 52, 87
11, 155972, Note_off_c, 10, 51, 64
11, 156312, Note_on_c, 10, 54, 84
11, 156324, Note_off_c, 10, 52, 64
11, 156684, Note_on_c, 10, 52, 90
11, 156716, Note_off_c, 10, 54, 64
11, 156784, Note_on_c, 10, 51, 88
11, 156824, Note_off_c, 10, 52, 64
11, 158048, Note_off_c, 10, 51, 64
11, 158608, Note_on_c, 10, 52, 93
11, 159008, Note_on_c, 10, 54, 94
11, 159044, Note_off_c, 10, 52, 64
11, 159384, Note_on_c, 10, 55, 94
11, 159408, Note_off_c, 10, 54, 64
11, 159780, Note_on_c, 10, 57, 92
11, 159796, Note_off_c, 10, 55, 64
11, 160144, Note_on_c, 10, 55, 88
11, 160168, Note_off_c, 10, 57, 64
11, 160516, Note_off_c, 10, 55, 64
11, 160520, Note_on_c, 10, 54, 83
11, 160908, Note_on_c, 10, 52, 93
11, 160956, Note_off_c, 10, 54, 64
11, 161248, Note_off_c, 10, 52, 64
11, 161292, Note_on_c, 10, 52, 92
11, 161680, Note_on_c, 10, 51, 92
11, 161692, Note_off_c, 10, 52, 64
11, 162076, Note_on_c, 10, 52, 87
11, 162116, Note_off_c, 10, 51, 64
11, 162456, Note_on_c, 10, 54, 84
11, 162468, Note_off_c, 10, 52, 64
11, 162828, Note_on_c, 10, 52, 90
11, 162860, Note_off_c, 10, 54, 64
11, 162928, Note_on_c, 10, 51, 88
11, 162968, Note_off_c, 10, 52, 64
11, 164192, Note_off_c, 10, 51, 64
11, 164352, Control_c, 10, 11, 126
11, 164496, Control_c, 10, 11, 125
11, 164592, Control_c, 10, 11, 124
11, 164688, Control_c, 10, 11, 123
11, 164752, Note_on_c, 10, 52, 93
11, 164784, Control_c, 10, 11, 122
11, 164880, Control_c, 10, 11, 121
11, 164976, Control_c, 10, 11, 120
11, 165072, Control_c, 10, 11, 119
11, 165152, Note_on_c, 10, 54, 94
11, 165168, Control_c, 10, 11, 118
11, 165188, Note_off_c, 10, 52, 64
11, 165264, Control_c, 10, 11, 117
11, 165360, Control_c, 10, 11, 116
11, 165456, Control_c, 10, 11, 115
11, 165528, Note_on_c, 10, 55, 94
11, 165552, Note_off_c, 10, 54, 64
11, 165552, Control_c, 10, 11, 114
11, 165648, Control_c, 10, 11, 113
11, 165744, Control_c, 10, 11, 112
11, 165840, Control_c, 10, 11, 111
11, 165924, Note_on_c, 10, 57, 92
11, 165936, Control_c, 10, 11, 110
11, 165940, Note_off_c, 10, 55, 64
11, 166032, Control_c, 10, 11, 109
11, 166128, Control_c, 10, 11, 108
11, 166224, Control_c, 10, 11, 107
11, 166288, Note_on_c, 10, 55, 88
11, 166312, Note_off_c, 10, 57, 64
11, 166320, Control_c, 10, 11, 106
11, 166416, Control_c, 10, 11, 105
11, 166512, Control_c, 10, 11, 104
11, 166608, Control_c, 10, 11, 103
11, 166660, Note_off_c, 10, 55, 64
11, 166664, Note_on_c, 10, 54, 83
11, 166704, Control_c, 10, 11, 102
11, 166800, Control_c, 10, 11, 101
11, 166896, Control_c, 10, 11, 100
11, 166992, Control_c, 10, 11, 99
11, 167052, Note_on_c, 10, 52, 93
11, 167088, Control_c, 10, 11, 98
11, 167100, Note_off_c, 10, 54, 64
11, 167184, Control_c, 10, 11, 97
11, 167280, Control_c, 10, 11, 96
11, 167376, Control_c, 10, 11, 95
11, 167392, Note_off_c, 10, 52, 64
11, 167436, Note_on_c, 10, 52, 92
11, 167472, Control_c, 10, 11, 94
11, 167568, Control_c, 10, 11, 93
11, 167664, Control_c, 10, 11, 92
11, 167760, Control_c, 10, 11, 91
11, 167824, Note_on_c, 10, 51, 92
11, 167836, Note_off_c, 10, 52, 64
11, 167856, Control_c, 10, 11, 90
11, 167952, Control_c, 10, 11, 89
11, 168048, Control_c, 10, 11, 88
11, 168144, Control_c, 10, 11, 87
11, 168220, Note_on_c, 10, 52, 87
11, 168240, Control_c, 10, 11, 86
11, 168260, Note_off_c, 10, 51, 64
11, 168336, Control_c, 10, 11, 85
11, 168432, Control_c, 10, 11, 84
11, 168528, Control_c, 10, 11, 83
11, 168600, Note_on_c, 10, 54, 84
11, 168612, Note_off_c, 10, 52, 64
11, 168624, Control_c, 10, 11, 82
11, 168720, Control_c, 10, 11, 81
11, 168816, Control_c, 10, 11, 80
11, 168912, Control_c, 10, 11, 79
11, 168972, Note_on_c, 10, 52, 90
11, 169004, Note_off_c, 10, 54, 64
11, 169008, Control_c, 10, 11, 78
11, 169072, Note_on_c, 10, 51, 88
11, 169104, Control_c, 10, 11, 77
11, 169112, Note_off_c, 10, 52, 64
11, 169200, Control_c, 10, 11, 76
11, 169296, Control_c, 10, 11, 75
11, 169392, Control_c, 10, 11, 74
11, 169488, Control_c, 10, 11, 73
11, 169584, Control_c, 10, 11, 72
11, 169680, Control_c, 10, 11, 71
11, 169776, Control_c, 10, 11, 70
11, 169872, Control_c, 10, 11, 69
11, 169968, Control_c, 10, 11, 68
11, 170064, Control_c, 10, 11, 67
11, 170160, Control_c, 10, 11, 66
11, 170256, Control_c, 10, 11, 65
11, 170336, Note_off_c, 10, 51, 64
11, 170352, Control_c, 10, 11, 64
11, 170448, Control_c, 10, 11, 63
11, 170544, Control_c, 10, 11, 62
11, 170688, Control_c, 10, 11, 61
11, 170784, Control_c, 10, 11, 60
11, 170880, Control_c, 10, 11, 59
11, 170896, Note_on_c, 10, 52, 93
11, 170976, Control_c, 10, 11, 58
11, 171072, Control_c, 10, 11, 57
11, 171168, Control_c, 10, 11, 56
11, 171264, Control_c, 10, 11, 55
11, 171296, Note_on_c, 10, 54, 94
11, 171332, Note_off_c, 10, 52, 64
11, 171360, Control_c, 10, 11, 54
11, 171456, Control_c, 10, 11, 53
11, 171552, Control_c, 10, 11, 52
11, 171648, Control_c, 10, 11, 51
11, 171672, Note_on_c, 10, 55, 94
11, 171696, Note_off_c, 10, 54, 64
11, 171744, Control_c, 10, 11, 50
11, 171840, Control_c, 10, 11, 49
11, 171936, Control_c, 10, 11, 48
11, 172032, Control_c, 10, 11, 47
11, 172068, Note_on_c, 10, 57, 92
11, 172084, Note_off_c, 10, 55, 64
11, 172128, Control_c, 10, 11, 46
11, 172224, Control_c, 10, 11, 45
11, 172320, Control_c, 10, 11, 44
11, 172416, Control_c, 10, 11, 43
11, 172432, Note_on_c, 10, 55, 88
11, 172456, Note_off_c, 10, 57, 64
11, 172512, Control_c, 10, 11, 42
11, 172608, Control_c, 10, 11, 41
11, 172704, Control_c, 10, 11, 40
11, 172800, Control_c, 10, 11, 39
11, 172804, Note_off_c, 10, 55, 64
11, 172808, Note_on_c, 10, 54, 83
11, 172896, Control_c, 10, 11, 38
11, 172992, Control_c, 10, 11, 37
11, 173088, Control_c, 10, 11, 36
11, 173184, Control_c, 10, 11, 35
11, 173196, Note_on_c, 10, 52, 93
11, 173244, Note_off_c, 10, 54, 64
11, 173280, Control_c, 10, 11, 34
11, 173376, Control_c, 10, 11, 33
11, 173472, Control_c, 10, 11, 32
11, 173536, Note_off_c, 10, 52, 64
11, 173568, Control_c, 10, 11, 31
11, 173580, Note_on_c, 10, 52, 92
11, 173664, Control_c, 10, 11, 30
11, 173760, Control_c, 10, 11, 29
11, 173856, Control_c, 10, 11, 28
11, 173952, Control_c, 10, 11, 27
11, 173968, Note_on_c, 10, 51, 92
11, 173980, Note_off_c, 10, 52, 64
11, 174048, Control_c, 10, 11, 26
11, 174144, Control_c, 10, 11, 25
11, 174240, Control_c, 10, 11, 24
11, 174336, Control_c, 10, 11, 23
11, 174364, Note_on_c, 10, 52, 87
11, 174404, Note_off_c, 10, 51, 64
11, 174432, Control_c, 10, 11, 22
11, 174528, Control_c, 10, 11, 21
11, 174624, Control_c, 10, 11, 20
11, 174720, Control_c, 10, 11, 19
11, 174744, Note_on_c, 10, 54, 84
11, 174756, Note_off_c, 10, 52, 64
11, 174816, Control_c, 10, 11, 18
11, 174912, Control_c, 10, 11, 17
11, 175008, Control_c, 10, 11, 16
11, 175104, Control_c, 10, 11, 15
11, 175116, Note_on_c, 10, 52, 90
11, 175148, Note_off_c, 10, 54, 64
11, 175200, Control_c, 10, 11, 14
11, 175216, Note_on_c, 10, 51, 88
11, 175256, Note_off_c, 10, 52, 64
11, 175296, Control_c, 10, 11, 13
11, 175392, Control_c, 10, 11, 12
11, 175488, Control_c, 10, 11, 11
11, 175584, Control_c, 10, 11, 10
11, 175680, Control_c, 10, 11, 9
11, 175776, Control_c, 10, 11, 8
11, 175872, Control_c, 10, 11, 7
11, 175968, Control_c, 10, 11, 6
11, 176064, Control_c, 10, 11, 5
11, 176160, Control_c, 10, 11, 4
11, 176256, Control_c, 10, 11, 3
11, 176352, Control_c, 10, 11, 2
11, 176448, Control_c, 10, 11, 1
11, 176480, Note_off_c, 10, 51, 64
11, 176544, Control_c, 10, 11, 0
11, 176640, End_track
0, 0, End_of_file
