0, 0, Header, 1, 10, 192
1, 0, Start_track
1, 0, Tempo, 461538
1, 0, Time_signature, 4, 2, 24, 8
1, 0, Key_signature, 0, "major"
1, 0, End_track
2, 0, Start_track
2, 0, Title_t, "piano"
2, 0, Channel_prefix, 0
2, 0, Control_c, 0, 7, 127
2, 0, Control_c, 0, 10, 64
2, 0, Program_c, 0, 2
2, 768, Note_on_c, 0, 36, 124
2, 864, Note_on_c, 0, 41, 123
2, 880, Note_off_c, 0, 36, 64
2, 960, Note_on_c, 0, 43, 127
2, 976, Note_off_c, 0, 41, 64
2, 1822, Note_off_c, 0, 43, 64
2, 1824, Note_on_c, 0, 36, 120
2, 2008, Note_off_c, 0, 36, 64
2, 2016, Note_on_c, 0, 41, 120
2, 2112, Note_on_c, 0, 43, 125
2, 2121, Note_off_c, 0, 41, 64
2, 2243, Note_off_c, 0, 43, 64
2, 2304, Note_on_c, 0, 31, 124
2, 2400, Note_on_c, 0, 36, 119
2, 2408, Note_off_c, 0, 31, 64
2, 2496, Note_on_c, 0, 38, 123
2, 2512, Note_off_c, 0, 36, 64
2, 3360, Note_on_c, 0, 31, 122
2, 3369, Note_off_c, 0, 38, 64
2, 3552, Note_on_c, 0, 36, 120
2, 3556, Note_off_c, 0, 31, 64
2, 3648, Note_on_c, 0, 38, 124
2, 3665, Note_off_c, 0, 36, 64
2, 3795, Note_off_c, 0, 38, 64
2, 3840, Note_on_c, 0, 36, 121
2, 3936, Note_on_c, 0, 41, 122
2, 3960, Note_off_c, 0, 36, 64
2, 4032, Note_on_c, 0, 43, 125
2, 4051, Note_off_c, 0, 41, 64
2, 4896, Note_off_c, 0, 43, 64
2, 4896, Note_on_c, 0, 36, 121
2, 5080, Note_off_c, 0, 36, 64
2, 5088, Note_on_c, 0, 41, 121
2, 5184, Note_on_c, 0, 43, 123
2, 5209, Note_off_c, 0, 41, 64
2, 5289, Note_off_c, 0, 43, 64
2, 5376, Note_on_c, 0, 31, 124
2, 5472, Note_on_c, 0, 36, 120
2, 5475, Note_off_c, 0, 31, 64
2, 5568, Note_on_c, 0, 38, 125
2, 5590, Note_off_c, 0, 36, 64
2, 6432, Note_on_c, 0, 31, 121
2, 6459, Note_off_c, 0, 38, 64
2, 6620, Note_off_c, 0, 31, 64
2, 6624, Note_on_c, 0, 36, 118
2, 6720, Note_on_c, 0, 38, 126
2, 6737, Note_off_c, 0, 36, 64
2, 6886, Note_off_c, 0, 38, 64
2, 6912, Control_c, 0, 7, 100
2, 6912, Note_on_c, 0, 36, 124
2, 7008, Note_on_c, 0, 41, 123
2, 7024, Note_off_c, 0, 36, 64
2, 7104, Note_on_c, 0, 43, 127
2, 7120, Note_off_c, 0, 41, 64
2, 7966, Note_off_c, 0, 43, 64
2, 7968, Note_on_c, 0, 36, 120
2, 8152, Note_off_c, 0, 36, 64
2, 8160, Note_on_c, 0, 41, 120
2, 8256, Note_on_c, 0, 43, 125
2, 8265, Note_off_c, 0, 41, 64
2, 8387, Note_off_c, 0, 43, 64
2, 8448, Note_on_c, 0, 31, 124
2, 8544, Note_on_c, 0, 36, 119
2, 8552, Note_off_c, 0, 31, 64
2, 8640, Note_on_c, 0, 38, 123
2, 8656, Note_off_c, 0, 36, 64
2, 9504, Note_on_c, 0, 31, 122
2, 9513, Note_off_c, 0, 38, 64
2, 9696, Note_on_c, 0, 36, 120
2, 9700, Note_off_c, 0, 31, 64
2, 9792, Note_on_c, 0, 38, 124
2, 9809, Note_off_c, 0, 36, 64
2, 9939, Note_off_c, 0, 38, 64
2, 9984, Note_on_c, 0, 36, 121
2, 10080, Note_on_c, 0, 41, 122
2, 10104, Note_off_c, 0, 36, 64
2, 10176, Note_on_c, 0, 43, 125
2, 10195, Note_off_c, 0, 41, 64
2, 11040, Note_off_c, 0, 43, 64
2, 11040, Note_on_c, 0, 36, 121
2, 11224, Note_off_c, 0, 36, 64
2, 11232, Note_on_c, 0, 41, 121
2, 11328, Note_on_c, 0, 43, 123
2, 11353, Note_off_c, 0, 41, 64
2, 11433, Note_off_c, 0, 43, 64
2, 11520, Note_on_c, 0, 31, 124
2, 11616, Note_on_c, 0, 36, 120
2, 11619, Note_off_c, 0, 31, 64
2, 11712, Note_on_c, 0, 38, 125
2, 11734, Note_off_c, 0, 36, 64
2, 12576, Note_on_c, 0, 31, 121
2, 12603, Note_off_c, 0, 38, 64
2, 12764, Note_off_c, 0, 31, 64
2, 12768, Note_on_c, 0, 36, 118
2, 12864, Note_on_c, 0, 38, 126
2, 12881, Note_off_c, 0, 36, 64
2, 13030, Note_off_c, 0, 38, 64
2, 13056, Note_on_c, 0, 36, 124
2, 13152, Note_on_c, 0, 41, 123
2, 13168, Note_off_c, 0, 36, 64
2, 13248, Note_on_c, 0, 43, 127
2, 13264, Note_off_c, 0, 41, 64
2, 14110, Note_off_c, 0, 43, 64
2, 14112, Note_on_c, 0, 36, 120
2, 14296, Note_off_c, 0, 36, 64
2, 14304, Note_on_c, 0, 41, 120
2, 14400, Note_on_c, 0, 43, 125
2, 14409, Note_off_c, 0, 41, 64
2, 14531, Note_off_c, 0, 43, 64
2, 14592, Note_on_c, 0, 31, 124
2, 14688, Note_on_c, 0, 36, 119
2, 14696, Note_off_c, 0, 31, 64
2, 14784, Note_on_c, 0, 38, 123
2, 14800, Note_off_c, 0, 36, 64
2, 15648, Note_on_c, 0, 31, 122
2, 15657, Note_off_c, 0, 38, 64
2, 15840, Note_on_c, 0, 36, 120
2, 15844, Note_off_c, 0, 31, 64
2, 15936, Note_on_c, 0, 38, 124
2, 15953, Note_off_c, 0, 36, 64
2, 16083, Note_off_c, 0, 38, 64
2, 16128, Note_on_c, 0, 36, 121
2, 16224, Note_on_c, 0, 41, 122
2, 16248, Note_off_c, 0, 36, 64
2, 16320, Note_on_c, 0, 43, 125
2, 16339, Note_off_c, 0, 41, 64
2, 17184, Note_off_c, 0, 43, 64
2, 17184, Note_on_c, 0, 36, 121
2, 17368, Note_off_c, 0, 36, 64
2, 17376, Note_on_c, 0, 41, 121
2, 17472, Note_on_c, 0, 43, 123
2, 17497, Note_off_c, 0, 41, 64
2, 17577, Note_off_c, 0, 43, 64
2, 17664, Note_on_c, 0, 31, 124
2, 17760, Note_on_c, 0, 36, 120
2, 17763, Note_off_c, 0, 31, 64
2, 17856, Note_on_c, 0, 38, 125
2, 17878, Note_off_c, 0, 36, 64
2, 18747, Note_off_c, 0, 38, 64
2, 19200, Note_on_c, 0, 48, 118
2, 19200, Note_on_c, 0, 53, 117
2, 19200, Note_on_c, 0, 65, 119
2, 19200, Note_on_c, 0, 45, 119
2, 19200, Note_on_c, 0, 57, 116
2, 19200, Note_on_c, 0, 60, 119
2, 19360, Note_off_c, 0, 57, 64
2, 19392, Note_on_c, 0, 57, 117
2, 19433, Note_off_c, 0, 60, 64
2, 19444, Note_off_c, 0, 65, 64
2, 19446, Note_off_c, 0, 45, 64
2, 19451, Note_off_c, 0, 53, 64
2, 19454, Note_off_c, 0, 48, 64
2, 19488, Note_on_c, 0, 48, 118
2, 19488, Note_on_c, 0, 53, 114
2, 19488, Note_on_c, 0, 45, 120
2, 19488, Note_on_c, 0, 65, 121
2, 19488, Note_on_c, 0, 60, 121
2, 19657, Note_off_c, 0, 57, 64
2, 19680, Note_on_c, 0, 57, 118
2, 19748, Note_off_c, 0, 53, 64
2, 19776, Note_on_c, 0, 53, 120
2, 19822, Note_off_c, 0, 60, 64
2, 19872, Note_on_c, 0, 60, 121
2, 19913, Note_off_c, 0, 53, 64
2, 19924, Note_off_c, 0, 65, 64
2, 19940, Note_off_c, 0, 45, 64
2, 19953, Note_off_c, 0, 60, 64
2, 19968, Note_on_c, 0, 65, 111
2, 19968, Note_on_c, 0, 45, 118
2, 19968, Note_on_c, 0, 60, 115
2, 19968, Note_on_c, 0, 53, 115
2, 20224, Note_off_c, 0, 60, 64
2, 20225, Note_off_c, 0, 53, 64
2, 20228, Note_off_c, 0, 45, 64
2, 20228, Note_off_c, 0, 57, 64
2, 20235, Note_off_c, 0, 65, 64
2, 20238, Note_off_c, 0, 48, 64
2, 20256, Note_on_c, 0, 53, 121
2, 20256, Note_on_c, 0, 65, 114
2, 20256, Note_on_c, 0, 57, 112
2, 20256, Note_on_c, 0, 60, 120
2, 20256, Note_on_c, 0, 48, 120
2, 20256, Note_on_c, 0, 45, 120
2, 20508, Note_off_c, 0, 57, 64
2, 20544, Note_on_c, 0, 57, 121
2, 20590, Note_off_c, 0, 60, 64
2, 20616, Note_off_c, 0, 65, 64
2, 20627, Note_off_c, 0, 53, 64
2, 20638, Note_off_c, 0, 48, 64
2, 20644, Note_off_c, 0, 57, 64
2, 20649, Note_off_c, 0, 45, 64
2, 20736, Note_on_c, 0, 55, 119
2, 20736, Note_on_c, 0, 59, 120
2, 20736, Note_on_c, 0, 62, 123
2, 20736, Note_on_c, 0, 43, 115
2, 20736, Note_on_c, 0, 47, 119
2, 20736, Note_on_c, 0, 50, 117
2, 20971, Note_off_c, 0, 62, 64
2, 20974, Note_off_c, 0, 59, 64
2, 20982, Note_off_c, 0, 50, 64
2, 20984, Note_off_c, 0, 47, 64
2, 20985, Note_off_c, 0, 43, 64
2, 20996, Note_off_c, 0, 55, 64
2, 21024, Note_on_c, 0, 47, 120
2, 21024, Note_on_c, 0, 55, 119
2, 21024, Note_on_c, 0, 59, 122
2, 21024, Note_on_c, 0, 43, 122
2, 21024, Note_on_c, 0, 50, 117
2, 21024, Note_on_c, 0, 62, 122
2, 21281, Note_off_c, 0, 50, 64
2, 21312, Note_on_c, 0, 50, 121
2, 21353, Note_off_c, 0, 55, 64
2, 21408, Note_on_c, 0, 55, 121
2, 21432, Note_off_c, 0, 62, 64
2, 21435, Note_off_c, 0, 59, 64
2, 21451, Note_off_c, 0, 50, 64
2, 21460, Note_off_c, 0, 43, 64
2, 21464, Note_off_c, 0, 47, 64
2, 21504, Note_on_c, 0, 43, 121
2, 21504, Note_on_c, 0, 59, 123
2, 21504, Note_on_c, 0, 47, 120
2, 21504, Note_on_c, 0, 50, 118
2, 21504, Note_on_c, 0, 62, 124
2, 21739, Note_off_c, 0, 59, 64
2, 21740, Note_off_c, 0, 62, 64
2, 21748, Note_off_c, 0, 50, 64
2, 21752, Note_off_c, 0, 47, 64
2, 21755, Note_off_c, 0, 43, 64
2, 21764, Note_off_c, 0, 55, 64
2, 21792, Note_on_c, 0, 43, 122
2, 21792, Note_on_c, 0, 50, 118
2, 21792, Note_on_c, 0, 47, 121
2, 21792, Note_on_c, 0, 55, 120
2, 21792, Note_on_c, 0, 59, 123
2, 21792, Note_on_c, 0, 62, 123
2, 22126, Note_off_c, 0, 47, 64
2, 22129, Note_off_c, 0, 43, 64
2, 22131, Note_off_c, 0, 62, 64
2, 22132, Note_off_c, 0, 59, 64
2, 22142, Note_off_c, 0, 50, 64
2, 22142, Note_off_c, 0, 55, 64
2, 22272, Note_on_c, 0, 65, 122
2, 22272, Note_on_c, 0, 53, 121
2, 22272, Note_on_c, 0, 57, 122
2, 22272, Note_on_c, 0, 45, 117
2, 22272, Note_on_c, 0, 48, 122
2, 22272, Note_on_c, 0, 60, 123
2, 22491, Note_off_c, 0, 60, 64
2, 22504, Note_off_c, 0, 48, 64
2, 22504, Note_off_c, 0, 53, 64
2, 22504, Note_off_c, 0, 65, 64
2, 22505, Note_off_c, 0, 45, 64
2, 22507, Note_off_c, 0, 57, 64
2, 22560, Note_on_c, 0, 48, 120
2, 22560, Note_on_c, 0, 53, 120
2, 22560, Note_on_c, 0, 45, 120
2, 22560, Note_on_c, 0, 65, 122
2, 22560, Note_on_c, 0, 57, 121
2, 22560, Note_on_c, 0, 60, 123
2, 22723, Note_off_c, 0, 57, 64
2, 22752, Note_on_c, 0, 57, 121
2, 22811, Note_off_c, 0, 53, 64
2, 22848, Note_on_c, 0, 53, 123
2, 22908, Note_off_c, 0, 60, 64
2, 22944, Note_on_c, 0, 60, 122
2, 22960, Note_off_c, 0, 53, 64
2, 22984, Note_off_c, 0, 65, 64
2, 22984, Note_off_c, 0, 60, 64
2, 22990, Note_off_c, 0, 48, 64
2, 22993, Note_off_c, 0, 45, 64
2, 23000, Note_off_c, 0, 57, 64
2, 23040, Note_on_c, 0, 55, 122
2, 23040, Note_on_c, 0, 59, 121
2, 23040, Note_on_c, 0, 62, 120
2, 23040, Note_on_c, 0, 47, 123
2, 23040, Note_on_c, 0, 43, 121
2, 23040, Note_on_c, 0, 50, 121
2, 23270, Note_off_c, 0, 62, 64
2, 23275, Note_off_c, 0, 59, 64
2, 23286, Note_off_c, 0, 55, 64
2, 23286, Note_off_c, 0, 50, 64
2, 23294, Note_off_c, 0, 47, 64
2, 23294, Note_off_c, 0, 43, 64
2, 23328, Note_on_c, 0, 50, 120
2, 23328, Note_on_c, 0, 47, 122
2, 23328, Note_on_c, 0, 43, 123
2, 23328, Note_on_c, 0, 55, 122
2, 23328, Note_on_c, 0, 59, 123
2, 23328, Note_on_c, 0, 62, 123
2, 23587, Note_off_c, 0, 43, 64
2, 23587, Note_off_c, 0, 47, 64
2, 23587, Note_off_c, 0, 50, 64
2, 23616, Note_on_c, 0, 47, 121
2, 23616, Note_on_c, 0, 50, 120
2, 23616, Note_on_c, 0, 43, 123
2, 23633, Note_off_c, 0, 55, 64
2, 23712, Note_on_c, 0, 55, 122
2, 23721, Note_off_c, 0, 43, 64
2, 23723, Note_off_c, 0, 47, 64
2, 23726, Note_off_c, 0, 59, 64
2, 23728, Note_off_c, 0, 62, 64
2, 23734, Note_off_c, 0, 50, 64
2, 23750, Note_off_c, 0, 55, 64
2, 23808, Note_on_c, 0, 48, 122
2, 23808, Note_on_c, 0, 53, 123
2, 23808, Note_on_c, 0, 57, 122
2, 23808, Note_on_c, 0, 45, 120
2, 23808, Note_on_c, 0, 65, 123
2, 23808, Note_on_c, 0, 60, 120
2, 24043, Note_off_c, 0, 60, 64
2, 24056, Note_off_c, 0, 65, 64
2, 24059, Note_off_c, 0, 53, 64
2, 24064, Note_off_c, 0, 48, 64
2, 24064, Note_off_c, 0, 45, 64
2, 24070, Note_off_c, 0, 57, 64
2, 24096, Note_on_c, 0, 60, 122
2, 24096, Note_on_c, 0, 53, 121
2, 24096, Note_on_c, 0, 45, 122
2, 24096, Note_on_c, 0, 57, 120
2, 24096, Note_on_c, 0, 65, 120
2, 24096, Note_on_c, 0, 48, 121
2, 24240, Note_off_c, 0, 57, 64
2, 24288, Note_on_c, 0, 57, 120
2, 24323, Note_off_c, 0, 53, 64
2, 24384, Note_off_c, 0, 60, 64
2, 24384, Note_on_c, 0, 53, 121
2, 24480, Note_on_c, 0, 60, 120
2, 24481, Note_off_c, 0, 53, 64
2, 24483, Note_off_c, 0, 65, 64
2, 24484, Note_off_c, 0, 48, 64
2, 24488, Note_off_c, 0, 45, 64
2, 24504, Note_off_c, 0, 57, 64
2, 24510, Note_off_c, 0, 60, 64
2, 24576, Note_on_c, 0, 55, 122
2, 24576, Note_on_c, 0, 59, 121
2, 24576, Note_on_c, 0, 43, 122
2, 24576, Note_on_c, 0, 47, 124
2, 24576, Note_on_c, 0, 50, 122
2, 24576, Note_on_c, 0, 62, 121
2, 24808, Note_off_c, 0, 62, 64
2, 24817, Note_off_c, 0, 59, 64
2, 24825, Note_off_c, 0, 50, 64
2, 24828, Note_off_c, 0, 55, 64
2, 24835, Note_off_c, 0, 47, 64
2, 24838, Note_off_c, 0, 43, 64
2, 24864, Note_on_c, 0, 47, 122
2, 24864, Note_on_c, 0, 59, 122
2, 24864, Note_on_c, 0, 55, 121
2, 24864, Note_on_c, 0, 50, 121
2, 24864, Note_on_c, 0, 43, 123
2, 24912, Note_on_c, 0, 62, 123
2, 24998, Note_off_c, 0, 55, 64
2, 25056, Note_on_c, 0, 55, 121
2, 25102, Note_off_c, 0, 50, 64
2, 25152, Note_on_c, 0, 50, 122
2, 25169, Note_off_c, 0, 59, 64
2, 25238, Note_off_c, 0, 47, 64
2, 25238, Note_off_c, 0, 43, 64
2, 25248, Note_on_c, 0, 59, 122
2, 25256, Note_off_c, 0, 50, 64
2, 25259, Note_off_c, 0, 55, 64
2, 25281, Note_off_c, 0, 59, 64
2, 25292, Note_off_c, 0, 62, 64
2, 25344, Note_on_c, 0, 48, 122
2, 25344, Note_on_c, 0, 53, 122
2, 25344, Note_on_c, 0, 45, 120
2, 25344, Note_on_c, 0, 57, 121
2, 25344, Note_on_c, 0, 60, 121
2, 25344, Note_on_c, 0, 65, 123
2, 25576, Note_off_c, 0, 60, 64
2, 25577, Note_off_c, 0, 65, 64
2, 25588, Note_off_c, 0, 57, 64
2, 25593, Note_off_c, 0, 53, 64
2, 25600, Note_off_c, 0, 48, 64
2, 25600, Note_off_c, 0, 45, 64
2, 25632, Note_on_c, 0, 48, 122
2, 25632, Note_on_c, 0, 53, 120
2, 25632, Note_on_c, 0, 45, 123
2, 25632, Note_on_c, 0, 65, 122
2, 25632, Note_on_c, 0, 57, 122
2, 25632, Note_on_c, 0, 60, 123
2, 25777, Note_off_c, 0, 57, 64
2, 25824, Note_on_c, 0, 57, 121
2, 25862, Note_off_c, 0, 53, 64
2, 25912, Note_off_c, 0, 60, 64
2, 25920, Note_on_c, 0, 53, 120
2, 26012, Note_off_c, 0, 53, 64
2, 26016, Note_off_c, 0, 65, 64
2, 26016, Note_on_c, 0, 60, 121
2, 26020, Note_off_c, 0, 48, 64
2, 26038, Note_off_c, 0, 45, 64
2, 26038, Note_off_c, 0, 57, 64
2, 26049, Note_off_c, 0, 60, 64
2, 26112, Note_on_c, 0, 55, 120
2, 26112, Note_on_c, 0, 59, 119
2, 26112, Note_on_c, 0, 43, 122
2, 26112, Note_on_c, 0, 47, 123
2, 26112, Note_on_c, 0, 50, 122
2, 26112, Note_on_c, 0, 62, 121
2, 26355, Note_off_c, 0, 62, 64
2, 26360, Note_off_c, 0, 50, 64
2, 26361, Note_off_c, 0, 59, 64
2, 26363, Note_off_c, 0, 55, 64
2, 26369, Note_off_c, 0, 47, 64
2, 26371, Note_off_c, 0, 43, 64
2, 26400, Note_on_c, 0, 47, 121
2, 26400, Note_on_c, 0, 50, 120
2, 26400, Note_on_c, 0, 43, 123
2, 26400, Note_on_c, 0, 59, 122
2, 26400, Note_on_c, 0, 55, 121
2, 26400, Note_on_c, 0, 62, 122
2, 26531, Note_off_c, 0, 55, 64
2, 26592, Note_on_c, 0, 55, 121
2, 26630, Note_off_c, 0, 50, 64
2, 26688, Note_on_c, 0, 50, 121
2, 26692, Note_off_c, 0, 59, 64
2, 26780, Note_off_c, 0, 43, 64
2, 26782, Note_off_c, 0, 47, 64
2, 26784, Note_off_c, 0, 62, 64
2, 26784, Note_on_c, 0, 59, 122
2, 26798, Note_off_c, 0, 55, 64
2, 26800, Note_off_c, 0, 50, 64
2, 26822, Note_off_c, 0, 59, 64
2, 26880, Note_on_c, 0, 45, 119
2, 26880, Note_on_c, 0, 53, 122
2, 26880, Note_on_c, 0, 48, 121
2, 26880, Note_on_c, 0, 57, 121
2, 26880, Note_on_c, 0, 65, 123
2, 26880, Note_on_c, 0, 60, 121
2, 27108, Note_off_c, 0, 60, 64
2, 27113, Note_off_c, 0, 65, 64
2, 27120, Note_off_c, 0, 57, 64
2, 27121, Note_off_c, 0, 53, 64
2, 27134, Note_off_c, 0, 45, 64
2, 27134, Note_off_c, 0, 48, 64
2, 27168, Note_on_c, 0, 65, 122
2, 27168, Note_on_c, 0, 48, 121
2, 27168, Note_on_c, 0, 45, 121
2, 27168, Note_on_c, 0, 57, 122
2, 27168, Note_on_c, 0, 60, 123
2, 27168, Note_on_c, 0, 53, 118
2, 27321, Note_off_c, 0, 57, 64
2, 27360, Note_on_c, 0, 57, 121
2, 27409, Note_off_c, 0, 53, 64
2, 27456, Note_on_c, 0, 53, 122
2, 27465, Note_off_c, 0, 60, 64
2, 27552, Note_on_c, 0, 60, 122
2, 27558, Note_off_c, 0, 53, 64
2, 27572, Note_off_c, 0, 48, 64
2, 27580, Note_off_c, 0, 65, 64
2, 27582, Note_off_c, 0, 45, 64
2, 27582, Note_off_c, 0, 57, 64
2, 27592, Note_off_c, 0, 60, 64
2, 27648, Note_on_c, 0, 59, 119
2, 27648, Note_on_c, 0, 47, 122
2, 27648, Note_on_c, 0, 55, 118
2, 27648, Note_on_c, 0, 43, 121
2, 27648, Note_on_c, 0, 50, 121
2, 27648, Note_on_c, 0, 62, 120
2, 27876, Note_off_c, 0, 62, 64
2, 27889, Note_off_c, 0, 50, 64
2, 27889, Note_off_c, 0, 59, 64
2, 27894, Note_off_c, 0, 47, 64
2, 27894, Note_off_c, 0, 43, 64
2, 27896, Note_off_c, 0, 55, 64
2, 27936, Note_on_c, 0, 47, 121
2, 27936, Note_on_c, 0, 59, 122
2, 27936, Note_on_c, 0, 55, 120
2, 27936, Note_on_c, 0, 50, 119
2, 27936, Note_on_c, 0, 43, 123
2, 27936, Note_on_c, 0, 62, 123
2, 28296, Note_off_c, 0, 55, 64
2, 28304, Note_off_c, 0, 62, 64
2, 28307, Note_off_c, 0, 59, 64
2, 28321, Note_off_c, 0, 50, 64
2, 28323, Note_off_c, 0, 47, 64
2, 28328, Note_off_c, 0, 43, 64
2, 28416, Control_c, 0, 7, 100
2, 28416, Note_on_c, 0, 36, 124
2, 28512, Note_on_c, 0, 41, 123
2, 28528, Note_off_c, 0, 36, 64
2, 28608, Note_on_c, 0, 43, 127
2, 28624, Note_off_c, 0, 41, 64
2, 29470, Note_off_c, 0, 43, 64
2, 29472, Note_on_c, 0, 36, 120
2, 29656, Note_off_c, 0, 36, 64
2, 29664, Note_on_c, 0, 41, 120
2, 29760, Note_on_c, 0, 43, 125
2, 29769, Note_off_c, 0, 41, 64
2, 29891, Note_off_c, 0, 43, 64
2, 29952, Note_on_c, 0, 31, 124
2, 30048, Note_on_c, 0, 36, 119
2, 30056, Note_off_c, 0, 31, 64
2, 30144, Note_on_c, 0, 38, 123
2, 30160, Note_off_c, 0, 36, 64
2, 31008, Note_on_c, 0, 31, 122
2, 31017, Note_off_c, 0, 38, 64
2, 31200, Note_on_c, 0, 36, 120
2, 31204, Note_off_c, 0, 31, 64
2, 31296, Note_on_c, 0, 38, 124
2, 31313, Note_off_c, 0, 36, 64
2, 31443, Note_off_c, 0, 38, 64
2, 31488, Note_on_c, 0, 36, 121
2, 31584, Note_on_c, 0, 41, 122
2, 31608, Note_off_c, 0, 36, 64
2, 31680, Note_on_c, 0, 43, 125
2, 31699, Note_off_c, 0, 41, 64
2, 32544, Note_off_c, 0, 43, 64
2, 32544, Note_on_c, 0, 36, 121
2, 32728, Note_off_c, 0, 36, 64
2, 32736, Note_on_c, 0, 41, 121
2, 32832, Note_on_c, 0, 43, 123
2, 32857, Note_off_c, 0, 41, 64
2, 32937, Note_off_c, 0, 43, 64
2, 33024, Note_on_c, 0, 31, 124
2, 33120, Note_on_c, 0, 36, 120
2, 33123, Note_off_c, 0, 31, 64
2, 33216, Note_on_c, 0, 38, 125
2, 33238, Note_off_c, 0, 36, 64
2, 34080, Note_on_c, 0, 31, 121
2, 34107, Note_off_c, 0, 38, 64
2, 34268, Note_off_c, 0, 31, 64
2, 34272, Note_on_c, 0, 36, 118
2, 34368, Note_on_c, 0, 38, 126
2, 34385, Note_off_c, 0, 36, 64
2, 34534, Note_off_c, 0, 38, 64
2, 34560, Note_on_c, 0, 36, 124
2, 34656, Note_on_c, 0, 41, 123
2, 34672, Note_off_c, 0, 36, 64
2, 34752, Note_on_c, 0, 43, 127
2, 34768, Note_off_c, 0, 41, 64
2, 35614, Note_off_c, 0, 43, 64
2, 35616, Note_on_c, 0, 36, 120
2, 35800, Note_off_c, 0, 36, 64
2, 35808, Note_on_c, 0, 41, 120
2, 35904, Note_on_c, 0, 43, 125
2, 35913, Note_off_c, 0, 41, 64
2, 36035, Note_off_c, 0, 43, 64
2, 36096, Note_on_c, 0, 31, 124
2, 36192, Note_on_c, 0, 36, 119
2, 36200, Note_off_c, 0, 31, 64
2, 36288, Note_on_c, 0, 38, 123
2, 36304, Note_off_c, 0, 36, 64
2, 37152, Note_on_c, 0, 31, 122
2, 37161, Note_off_c, 0, 38, 64
2, 37344, Note_on_c, 0, 36, 120
2, 37348, Note_off_c, 0, 31, 64
2, 37440, Note_on_c, 0, 38, 124
2, 37457, Note_off_c, 0, 36, 64
2, 37587, Note_off_c, 0, 38, 64
2, 37632, Note_on_c, 0, 36, 121
2, 37728, Note_on_c, 0, 41, 122
2, 37752, Note_off_c, 0, 36, 64
2, 37824, Note_on_c, 0, 43, 125
2, 37843, Note_off_c, 0, 41, 64
2, 38688, Note_off_c, 0, 43, 64
2, 38688, Note_on_c, 0, 36, 121
2, 38872, Note_off_c, 0, 36, 64
2, 38880, Note_on_c, 0, 41, 121
2, 38976, Note_on_c, 0, 43, 123
2, 39001, Note_off_c, 0, 41, 64
2, 39081, Note_off_c, 0, 43, 64
2, 39168, Note_on_c, 0, 31, 124
2, 39264, Note_on_c, 0, 36, 120
2, 39267, Note_off_c, 0, 31, 64
2, 39360, Note_on_c, 0, 38, 125
2, 39382, Note_off_c, 0, 36, 64
2, 40251, Note_off_c, 0, 38, 64
2, 40704, Note_on_c, 0, 48, 118
2, 40704, Note_on_c, 0, 53, 117
2, 40704, Note_on_c, 0, 65, 119
2, 40704, Note_on_c, 0, 45, 119
2, 40704, Note_on_c, 0, 57, 116
2, 40704, Note_on_c, 0, 60, 119
2, 40864, Note_off_c, 0, 57, 64
2, 40896, Note_on_c, 0, 57, 117
2, 40937, Note_off_c, 0, 60, 64
2, 40948, Note_off_c, 0, 65, 64
2, 40950, Note_off_c, 0, 45, 64
2, 40955, Note_off_c, 0, 53, 64
2, 40958, Note_off_c, 0, 48, 64
2, 40992, Note_on_c, 0, 48, 118
2, 40992, Note_on_c, 0, 53, 114
2, 40992, Note_on_c, 0, 45, 120
2, 40992, Note_on_c, 0, 65, 121
2, 40992, Note_on_c, 0, 60, 121
2, 41161, Note_off_c, 0, 57, 64
2, 41184, Note_on_c, 0, 57, 118
2, 41252, Note_off_c, 0, 53, 64
2, 41280, Note_on_c, 0, 53, 120
2, 41326, Note_off_c, 0, 60, 64
2, 41376, Note_on_c, 0, 60, 121
2, 41417, Note_off_c, 0, 53, 64
2, 41428, Note_off_c, 0, 65, 64
2, 41444, Note_off_c, 0, 45, 64
2, 41457, Note_off_c, 0, 60, 64
2, 41472, Note_on_c, 0, 65, 111
2, 41472, Note_on_c, 0, 45, 118
2, 41472, Note_on_c, 0, 60, 115
2, 41472, Note_on_c, 0, 53, 115
2, 41728, Note_off_c, 0, 60, 64
2, 41729, Note_off_c, 0, 53, 64
2, 41732, Note_off_c, 0, 45, 64
2, 41732, Note_off_c, 0, 57, 64
2, 41739, Note_off_c, 0, 65, 64
2, 41742, Note_off_c, 0, 48, 64
2, 41760, Note_on_c, 0, 53, 121
2, 41760, Note_on_c, 0, 65, 114
2, 41760, Note_on_c, 0, 57, 112
2, 41760, Note_on_c, 0, 60, 120
2, 41760, Note_on_c, 0, 48, 120
2, 41760, Note_on_c, 0, 45, 120
2, 42012, Note_off_c, 0, 57, 64
2, 42048, Note_on_c, 0, 57, 121
2, 42094, Note_off_c, 0, 60, 64
2, 42120, Note_off_c, 0, 65, 64
2, 42131, Note_off_c, 0, 53, 64
2, 42142, Note_off_c, 0, 48, 64
2, 42148, Note_off_c, 0, 57, 64
2, 42153, Note_off_c, 0, 45, 64
2, 42240, Note_on_c, 0, 55, 119
2, 42240, Note_on_c, 0, 59, 120
2, 42240, Note_on_c, 0, 62, 123
2, 42240, Note_on_c, 0, 43, 115
2, 42240, Note_on_c, 0, 47, 119
2, 42240, Note_on_c, 0, 50, 117
2, 42475, Note_off_c, 0, 62, 64
2, 42478, Note_off_c, 0, 59, 64
2, 42486, Note_off_c, 0, 50, 64
2, 42488, Note_off_c, 0, 47, 64
2, 42489, Note_off_c, 0, 43, 64
2, 42500, Note_off_c, 0, 55, 64
2, 42528, Note_on_c, 0, 47, 120
2, 42528, Note_on_c, 0, 55, 119
2, 42528, Note_on_c, 0, 59, 122
2, 42528, Note_on_c, 0, 43, 122
2, 42528, Note_on_c, 0, 50, 117
2, 42528, Note_on_c, 0, 62, 122
2, 42785, Note_off_c, 0, 50, 64
2, 42816, Note_on_c, 0, 50, 121
2, 42857, Note_off_c, 0, 55, 64
2, 42912, Note_on_c, 0, 55, 121
2, 42936, Note_off_c, 0, 62, 64
2, 42939, Note_off_c, 0, 59, 64
2, 42955, Note_off_c, 0, 50, 64
2, 42964, Note_off_c, 0, 43, 64
2, 42968, Note_off_c, 0, 47, 64
2, 43008, Note_on_c, 0, 43, 121
2, 43008, Note_on_c, 0, 59, 123
2, 43008, Note_on_c, 0, 47, 120
2, 43008, Note_on_c, 0, 50, 118
2, 43008, Note_on_c, 0, 62, 124
2, 43243, Note_off_c, 0, 59, 64
2, 43244, Note_off_c, 0, 62, 64
2, 43252, Note_off_c, 0, 50, 64
2, 43256, Note_off_c, 0, 47, 64
2, 43259, Note_off_c, 0, 43, 64
2, 43268, Note_off_c, 0, 55, 64
2, 43296, Note_on_c, 0, 43, 122
2, 43296, Note_on_c, 0, 50, 118
2, 43296, Note_on_c, 0, 47, 121
2, 43296, Note_on_c, 0, 55, 120
2, 43296, Note_on_c, 0, 59, 123
2, 43296, Note_on_c, 0, 62, 123
2, 43630, Note_off_c, 0, 47, 64
2, 43633, Note_off_c, 0, 43, 64
2, 43635, Note_off_c, 0, 62, 64
2, 43636, Note_off_c, 0, 59, 64
2, 43646, Note_off_c, 0, 50, 64
2, 43646, Note_off_c, 0, 55, 64
2, 43776, Note_on_c, 0, 65, 122
2, 43776, Note_on_c, 0, 53, 121
2, 43776, Note_on_c, 0, 57, 122
2, 43776, Note_on_c, 0, 45, 117
2, 43776, Note_on_c, 0, 48, 122
2, 43776, Note_on_c, 0, 60, 123
2, 43995, Note_off_c, 0, 60, 64
2, 44008, Note_off_c, 0, 48, 64
2, 44008, Note_off_c, 0, 53, 64
2, 44008, Note_off_c, 0, 65, 64
2, 44009, Note_off_c, 0, 45, 64
2, 44011, Note_off_c, 0, 57, 64
2, 44064, Note_on_c, 0, 48, 120
2, 44064, Note_on_c, 0, 53, 120
2, 44064, Note_on_c, 0, 45, 120
2, 44064, Note_on_c, 0, 65, 122
2, 44064, Note_on_c, 0, 57, 121
2, 44064, Note_on_c, 0, 60, 123
2, 44227, Note_off_c, 0, 57, 64
2, 44256, Note_on_c, 0, 57, 121
2, 44315, Note_off_c, 0, 53, 64
2, 44352, Note_on_c, 0, 53, 123
2, 44412, Note_off_c, 0, 60, 64
2, 44448, Note_on_c, 0, 60, 122
2, 44464, Note_off_c, 0, 53, 64
2, 44488, Note_off_c, 0, 65, 64
2, 44488, Note_off_c, 0, 60, 64
2, 44494, Note_off_c, 0, 48, 64
2, 44497, Note_off_c, 0, 45, 64
2, 44504, Note_off_c, 0, 57, 64
2, 44544, Note_on_c, 0, 55, 122
2, 44544, Note_on_c, 0, 59, 121
2, 44544, Note_on_c, 0, 62, 120
2, 44544, Note_on_c, 0, 47, 123
2, 44544, Note_on_c, 0, 43, 121
2, 44544, Note_on_c, 0, 50, 121
2, 44774, Note_off_c, 0, 62, 64
2, 44779, Note_off_c, 0, 59, 64
2, 44790, Note_off_c, 0, 55, 64
2, 44790, Note_off_c, 0, 50, 64
2, 44798, Note_off_c, 0, 47, 64
2, 44798, Note_off_c, 0, 43, 64
2, 44832, Note_on_c, 0, 50, 120
2, 44832, Note_on_c, 0, 47, 122
2, 44832, Note_on_c, 0, 43, 123
2, 44832, Note_on_c, 0, 55, 122
2, 44832, Note_on_c, 0, 59, 123
2, 44832, Note_on_c, 0, 62, 123
2, 45091, Note_off_c, 0, 43, 64
2, 45091, Note_off_c, 0, 47, 64
2, 45091, Note_off_c, 0, 50, 64
2, 45120, Note_on_c, 0, 47, 121
2, 45120, Note_on_c, 0, 50, 120
2, 45120, Note_on_c, 0, 43, 123
2, 45137, Note_off_c, 0, 55, 64
2, 45216, Note_on_c, 0, 55, 122
2, 45225, Note_off_c, 0, 43, 64
2, 45227, Note_off_c, 0, 47, 64
2, 45230, Note_off_c, 0, 59, 64
2, 45232, Note_off_c, 0, 62, 64
2, 45238, Note_off_c, 0, 50, 64
2, 45254, Note_off_c, 0, 55, 64
2, 45312, Note_on_c, 0, 48, 122
2, 45312, Note_on_c, 0, 53, 123
2, 45312, Note_on_c, 0, 57, 122
2, 45312, Note_on_c, 0, 45, 120
2, 45312, Note_on_c, 0, 65, 123
2, 45312, Note_on_c, 0, 60, 120
2, 45547, Note_off_c, 0, 60, 64
2, 45560, Note_off_c, 0, 65, 64
2, 45563, Note_off_c, 0, 53, 64
2, 45568, Note_off_c, 0, 48, 64
2, 45568, Note_off_c, 0, 45, 64
2, 45574, Note_off_c, 0, 57, 64
2, 45600, Note_on_c, 0, 60, 122
2, 45600, Note_on_c, 0, 53, 121
2, 45600, Note_on_c, 0, 45, 122
2, 45600, Note_on_c, 0, 57, 120
2, 45600, Note_on_c, 0, 65, 120
2, 45600, Note_on_c, 0, 48, 121
2, 45744, Note_off_c, 0, 57, 64
2, 45792, Note_on_c, 0, 57, 120
2, 45827, Note_off_c, 0, 53, 64
2, 45888, Note_off_c, 0, 60, 64
2, 45888, Note_on_c, 0, 53, 121
2, 45984, Note_on_c, 0, 60, 120
2, 45985, Note_off_c, 0, 53, 64
2, 45987, Note_off_c, 0, 65, 64
2, 45988, Note_off_c, 0, 48, 64
2, 45992, Note_off_c, 0, 45, 64
2, 46008, Note_off_c, 0, 57, 64
2, 46014, Note_off_c, 0, 60, 64
2, 46080, Note_on_c, 0, 55, 122
2, 46080, Note_on_c, 0, 59, 121
2, 46080, Note_on_c, 0, 43, 122
2, 46080, Note_on_c, 0, 47, 124
2, 46080, Note_on_c, 0, 50, 122
2, 46080, Note_on_c, 0, 62, 121
2, 46312, Note_off_c, 0, 62, 64
2, 46321, Note_off_c, 0, 59, 64
2, 46329, Note_off_c, 0, 50, 64
2, 46332, Note_off_c, 0, 55, 64
2, 46339, Note_off_c, 0, 47, 64
2, 46342, Note_off_c, 0, 43, 64
2, 46368, Note_on_c, 0, 47, 122
2, 46368, Note_on_c, 0, 59, 122
2, 46368, Note_on_c, 0, 55, 121
2, 46368, Note_on_c, 0, 50, 121
2, 46368, Note_on_c, 0, 43, 123
2, 46416, Note_on_c, 0, 62, 123
2, 46502, Note_off_c, 0, 55, 64
2, 46560, Note_on_c, 0, 55, 121
2, 46606, Note_off_c, 0, 50, 64
2, 46656, Note_on_c, 0, 50, 122
2, 46673, Note_off_c, 0, 59, 64
2, 46742, Note_off_c, 0, 47, 64
2, 46742, Note_off_c, 0, 43, 64
2, 46752, Note_on_c, 0, 59, 122
2, 46760, Note_off_c, 0, 50, 64
2, 46763, Note_off_c, 0, 55, 64
2, 46785, Note_off_c, 0, 59, 64
2, 46796, Note_off_c, 0, 62, 64
2, 46848, Note_on_c, 0, 48, 122
2, 46848, Note_on_c, 0, 53, 122
2, 46848, Note_on_c, 0, 45, 120
2, 46848, Note_on_c, 0, 57, 121
2, 46848, Note_on_c, 0, 60, 121
2, 46848, Note_on_c, 0, 65, 123
2, 47080, Note_off_c, 0, 60, 64
2, 47081, Note_off_c, 0, 65, 64
2, 47092, Note_off_c, 0, 57, 64
2, 47097, Note_off_c, 0, 53, 64
2, 47104, Note_off_c, 0, 48, 64
2, 47104, Note_off_c, 0, 45, 64
2, 47136, Note_on_c, 0, 48, 122
2, 47136, Note_on_c, 0, 53, 120
2, 47136, Note_on_c, 0, 45, 123
2, 47136, Note_on_c, 0, 65, 122
2, 47136, Note_on_c, 0, 57, 122
2, 47136, Note_on_c, 0, 60, 123
2, 47281, Note_off_c, 0, 57, 64
2, 47328, Note_on_c, 0, 57, 121
2, 47366, Note_off_c, 0, 53, 64
2, 47416, Note_off_c, 0, 60, 64
2, 47424, Note_on_c, 0, 53, 120
2, 47516, Note_off_c, 0, 53, 64
2, 47520, Note_off_c, 0, 65, 64
2, 47520, Note_on_c, 0, 60, 121
2, 47524, Note_off_c, 0, 48, 64
2, 47542, Note_off_c, 0, 45, 64
2, 47542, Note_off_c, 0, 57, 64
2, 47553, Note_off_c, 0, 60, 64
2, 47616, Note_on_c, 0, 55, 120
2, 47616, Note_on_c, 0, 59, 119
2, 47616, Note_on_c, 0, 43, 122
2, 47616, Note_on_c, 0, 47, 123
2, 47616, Note_on_c, 0, 50, 122
2, 47616, Note_on_c, 0, 62, 121
2, 47859, Note_off_c, 0, 62, 64
2, 47864, Note_off_c, 0, 50, 64
2, 47865, Note_off_c, 0, 59, 64
2, 47867, Note_off_c, 0, 55, 64
2, 47873, Note_off_c, 0, 47, 64
2, 47875, Note_off_c, 0, 43, 64
2, 47904, Note_on_c, 0, 47, 121
2, 47904, Note_on_c, 0, 50, 120
2, 47904, Note_on_c, 0, 43, 123
2, 47904, Note_on_c, 0, 59, 122
2, 47904, Note_on_c, 0, 55, 121
2, 47904, Note_on_c, 0, 62, 122
2, 48035, Note_off_c, 0, 55, 64
2, 48096, Note_on_c, 0, 55, 121
2, 48134, Note_off_c, 0, 50, 64
2, 48192, Note_on_c, 0, 50, 121
2, 48196, Note_off_c, 0, 59, 64
2, 48284, Note_off_c, 0, 43, 64
2, 48286, Note_off_c, 0, 47, 64
2, 48288, Note_off_c, 0, 62, 64
2, 48288, Note_on_c, 0, 59, 122
2, 48302, Note_off_c, 0, 55, 64
2, 48304, Note_off_c, 0, 50, 64
2, 48326, Note_off_c, 0, 59, 64
2, 48384, Note_on_c, 0, 45, 119
2, 48384, Note_on_c, 0, 53, 122
2, 48384, Note_on_c, 0, 48, 121
2, 48384, Note_on_c, 0, 57, 121
2, 48384, Note_on_c, 0, 65, 123
2, 48384, Note_on_c, 0, 60, 121
2, 48612, Note_off_c, 0, 60, 64
2, 48617, Note_off_c, 0, 65, 64
2, 48624, Note_off_c, 0, 57, 64
2, 48625, Note_off_c, 0, 53, 64
2, 48638, Note_off_c, 0, 45, 64
2, 48638, Note_off_c, 0, 48, 64
2, 48672, Note_on_c, 0, 65, 122
2, 48672, Note_on_c, 0, 48, 121
2, 48672, Note_on_c, 0, 45, 121
2, 48672, Note_on_c, 0, 57, 122
2, 48672, Note_on_c, 0, 60, 123
2, 48672, Note_on_c, 0, 53, 118
2, 48825, Note_off_c, 0, 57, 64
2, 48864, Note_on_c, 0, 57, 121
2, 48913, Note_off_c, 0, 53, 64
2, 48960, Note_on_c, 0, 53, 122
2, 48969, Note_off_c, 0, 60, 64
2, 49056, Note_on_c, 0, 60, 122
2, 49062, Note_off_c, 0, 53, 64
2, 49076, Note_off_c, 0, 48, 64
2, 49084, Note_off_c, 0, 65, 64
2, 49086, Note_off_c, 0, 45, 64
2, 49086, Note_off_c, 0, 57, 64
2, 49096, Note_off_c, 0, 60, 64
2, 49152, Note_on_c, 0, 59, 119
2, 49152, Note_on_c, 0, 47, 122
2, 49152, Note_on_c, 0, 55, 118
2, 49152, Note_on_c, 0, 43, 121
2, 49152, Note_on_c, 0, 50, 121
2, 49152, Note_on_c, 0, 62, 120
2, 49380, Note_off_c, 0, 62, 64
2, 49393, Note_off_c, 0, 50, 64
2, 49393, Note_off_c, 0, 59, 64
2, 49398, Note_off_c, 0, 47, 64
2, 49398, Note_off_c, 0, 43, 64
2, 49400, Note_off_c, 0, 55, 64
2, 49440, Note_on_c, 0, 47, 121
2, 49440, Note_on_c, 0, 59, 122
2, 49440, Note_on_c, 0, 55, 120
2, 49440, Note_on_c, 0, 50, 119
2, 49440, Note_on_c, 0, 43, 123
2, 49440, Note_on_c, 0, 62, 123
2, 49800, Note_off_c, 0, 55, 64
2, 49808, Note_off_c, 0, 62, 64
2, 49811, Note_off_c, 0, 59, 64
2, 49825, Note_off_c, 0, 50, 64
2, 49827, Note_off_c, 0, 47, 64
2, 49832, Note_off_c, 0, 43, 64
2, 56832, Note_on_c, 0, 36, 124
2, 56928, Note_on_c, 0, 41, 123
2, 56944, Note_off_c, 0, 36, 64
2, 57024, Note_on_c, 0, 43, 127
2, 57040, Note_off_c, 0, 41, 64
2, 57886, Note_off_c, 0, 43, 64
2, 57888, Note_on_c, 0, 36, 120
2, 58072, Note_off_c, 0, 36, 64
2, 58080, Note_on_c, 0, 41, 120
2, 58176, Note_on_c, 0, 43, 125
2, 58185, Note_off_c, 0, 41, 64
2, 58307, Note_off_c, 0, 43, 64
2, 58368, Note_on_c, 0, 31, 124
2, 58464, Note_on_c, 0, 36, 119
2, 58472, Note_off_c, 0, 31, 64
2, 58560, Note_on_c, 0, 38, 123
2, 58576, Note_off_c, 0, 36, 64
2, 59424, Note_on_c, 0, 31, 122
2, 59433, Note_off_c, 0, 38, 64
2, 59616, Note_on_c, 0, 36, 120
2, 59620, Note_off_c, 0, 31, 64
2, 59712, Note_on_c, 0, 38, 124
2, 59729, Note_off_c, 0, 36, 64
2, 59859, Note_off_c, 0, 38, 64
2, 59904, Note_on_c, 0, 36, 121
2, 60000, Note_on_c, 0, 41, 122
2, 60024, Note_off_c, 0, 36, 64
2, 60096, Note_on_c, 0, 43, 125
2, 60115, Note_off_c, 0, 41, 64
2, 60960, Note_off_c, 0, 43, 64
2, 60960, Note_on_c, 0, 36, 121
2, 61144, Note_off_c, 0, 36, 64
2, 61152, Note_on_c, 0, 41, 121
2, 61248, Note_on_c, 0, 43, 123
2, 61273, Note_off_c, 0, 41, 64
2, 61353, Note_off_c, 0, 43, 64
2, 61440, Note_on_c, 0, 31, 124
2, 61536, Note_on_c, 0, 36, 120
2, 61539, Note_off_c, 0, 31, 64
2, 61632, Note_on_c, 0, 38, 125
2, 61654, Note_off_c, 0, 36, 64
2, 62496, Note_on_c, 0, 31, 121
2, 62523, Note_off_c, 0, 38, 64
2, 62684, Note_off_c, 0, 31, 64
2, 62688, Note_on_c, 0, 36, 118
2, 62784, Note_on_c, 0, 38, 126
2, 62801, Note_off_c, 0, 36, 64
2, 62950, Note_off_c, 0, 38, 64
2, 62976, Note_on_c, 0, 36, 124
2, 63072, Note_on_c, 0, 41, 123
2, 63088, Note_off_c, 0, 36, 64
2, 63168, Note_on_c, 0, 43, 127
2, 63184, Note_off_c, 0, 41, 64
2, 64030, Note_off_c, 0, 43, 64
2, 64032, Note_on_c, 0, 36, 120
2, 64216, Note_off_c, 0, 36, 64
2, 64224, Note_on_c, 0, 41, 120
2, 64320, Note_on_c, 0, 43, 125
2, 64329, Note_off_c, 0, 41, 64
2, 64451, Note_off_c, 0, 43, 64
2, 64512, Note_on_c, 0, 31, 124
2, 64608, Note_on_c, 0, 36, 119
2, 64616, Note_off_c, 0, 31, 64
2, 64704, Note_on_c, 0, 38, 123
2, 64720, Note_off_c, 0, 36, 64
2, 65568, Note_on_c, 0, 31, 122
2, 65577, Note_off_c, 0, 38, 64
2, 65760, Note_on_c, 0, 36, 120
2, 65764, Note_off_c, 0, 31, 64
2, 65856, Note_on_c, 0, 38, 124
2, 65873, Note_off_c, 0, 36, 64
2, 66003, Note_off_c, 0, 38, 64
2, 66048, Note_on_c, 0, 36, 121
2, 66144, Note_on_c, 0, 41, 122
2, 66168, Note_off_c, 0, 36, 64
2, 66240, Note_on_c, 0, 43, 125
2, 66259, Note_off_c, 0, 41, 64
2, 67104, Note_off_c, 0, 43, 64
2, 67104, Note_on_c, 0, 36, 121
2, 67288, Note_off_c, 0, 36, 64
2, 67296, Note_on_c, 0, 41, 121
2, 67392, Note_on_c, 0, 43, 123
2, 67417, Note_off_c, 0, 41, 64
2, 67497, Note_off_c, 0, 43, 64
2, 67584, Note_on_c, 0, 31, 124
2, 67680, Note_on_c, 0, 36, 120
2, 67683, Note_off_c, 0, 31, 64
2, 67776, Note_on_c, 0, 38, 125
2, 67798, Note_off_c, 0, 36, 64
2, 68667, Note_off_c, 0, 38, 64
2, 69120, Note_on_c, 0, 48, 118
2, 69120, Note_on_c, 0, 53, 117
2, 69120, Note_on_c, 0, 65, 119
2, 69120, Note_on_c, 0, 45, 119
2, 69120, Note_on_c, 0, 57, 116
2, 69120, Note_on_c, 0, 60, 119
2, 69280, Note_off_c, 0, 57, 64
2, 69312, Note_on_c, 0, 57, 117
2, 69353, Note_off_c, 0, 60, 64
2, 69364, Note_off_c, 0, 65, 64
2, 69366, Note_off_c, 0, 45, 64
2, 69371, Note_off_c, 0, 53, 64
2, 69374, Note_off_c, 0, 48, 64
2, 69408, Note_on_c, 0, 48, 118
2, 69408, Note_on_c, 0, 53, 114
2, 69408, Note_on_c, 0, 45, 120
2, 69408, Note_on_c, 0, 65, 121
2, 69408, Note_on_c, 0, 60, 121
2, 69577, Note_off_c, 0, 57, 64
2, 69600, Note_on_c, 0, 57, 118
2, 69668, Note_off_c, 0, 53, 64
2, 69696, Note_on_c, 0, 53, 120
2, 69742, Note_off_c, 0, 60, 64
2, 69792, Note_on_c, 0, 60, 121
2, 69833, Note_off_c, 0, 53, 64
2, 69844, Note_off_c, 0, 65, 64
2, 69860, Note_off_c, 0, 45, 64
2, 69873, Note_off_c, 0, 60, 64
2, 69888, Note_on_c, 0, 65, 111
2, 69888, Note_on_c, 0, 45, 118
2, 69888, Note_on_c, 0, 60, 115
2, 69888, Note_on_c, 0, 53, 115
2, 70144, Note_off_c, 0, 60, 64
2, 70145, Note_off_c, 0, 53, 64
2, 70148, Note_off_c, 0, 45, 64
2, 70148, Note_off_c, 0, 57, 64
2, 70155, Note_off_c, 0, 65, 64
2, 70158, Note_off_c, 0, 48, 64
2, 70176, Note_on_c, 0, 53, 121
2, 70176, Note_on_c, 0, 65, 114
2, 70176, Note_on_c, 0, 57, 112
2, 70176, Note_on_c, 0, 60, 120
2, 70176, Note_on_c, 0, 48, 120
2, 70176, Note_on_c, 0, 45, 120
2, 70428, Note_off_c, 0, 57, 64
2, 70464, Note_on_c, 0, 57, 121
2, 70510, Note_off_c, 0, 60, 64
2, 70536, Note_off_c, 0, 65, 64
2, 70547, Note_off_c, 0, 53, 64
2, 70558, Note_off_c, 0, 48, 64
2, 70564, Note_off_c, 0, 57, 64
2, 70569, Note_off_c, 0, 45, 64
2, 70656, Note_on_c, 0, 55, 119
2, 70656, Note_on_c, 0, 59, 120
2, 70656, Note_on_c, 0, 62, 123
2, 70656, Note_on_c, 0, 43, 115
2, 70656, Note_on_c, 0, 47, 119
2, 70656, Note_on_c, 0, 50, 117
2, 70891, Note_off_c, 0, 62, 64
2, 70894, Note_off_c, 0, 59, 64
2, 70902, Note_off_c, 0, 50, 64
2, 70904, Note_off_c, 0, 47, 64
2, 70905, Note_off_c, 0, 43, 64
2, 70916, Note_off_c, 0, 55, 64
2, 70944, Note_on_c, 0, 47, 120
2, 70944, Note_on_c, 0, 55, 119
2, 70944, Note_on_c, 0, 59, 122
2, 70944, Note_on_c, 0, 43, 122
2, 70944, Note_on_c, 0, 50, 117
2, 70944, Note_on_c, 0, 62, 122
2, 71201, Note_off_c, 0, 50, 64
2, 71232, Note_on_c, 0, 50, 121
2, 71273, Note_off_c, 0, 55, 64
2, 71328, Note_on_c, 0, 55, 121
2, 71352, Note_off_c, 0, 62, 64
2, 71355, Note_off_c, 0, 59, 64
2, 71371, Note_off_c, 0, 50, 64
2, 71380, Note_off_c, 0, 43, 64
2, 71384, Note_off_c, 0, 47, 64
2, 71424, Note_on_c, 0, 43, 121
2, 71424, Note_on_c, 0, 59, 123
2, 71424, Note_on_c, 0, 47, 120
2, 71424, Note_on_c, 0, 50, 118
2, 71424, Note_on_c, 0, 62, 124
2, 71659, Note_off_c, 0, 59, 64
2, 71660, Note_off_c, 0, 62, 64
2, 71668, Note_off_c, 0, 50, 64
2, 71672, Note_off_c, 0, 47, 64
2, 71675, Note_off_c, 0, 43, 64
2, 71684, Note_off_c, 0, 55, 64
2, 71712, Note_on_c, 0, 43, 122
2, 71712, Note_on_c, 0, 50, 118
2, 71712, Note_on_c, 0, 47, 121
2, 71712, Note_on_c, 0, 55, 120
2, 71712, Note_on_c, 0, 59, 123
2, 71712, Note_on_c, 0, 62, 123
2, 72046, Note_off_c, 0, 47, 64
2, 72049, Note_off_c, 0, 43, 64
2, 72051, Note_off_c, 0, 62, 64
2, 72052, Note_off_c, 0, 59, 64
2, 72062, Note_off_c, 0, 50, 64
2, 72062, Note_off_c, 0, 55, 64
2, 72192, Note_on_c, 0, 65, 122
2, 72192, Note_on_c, 0, 53, 121
2, 72192, Note_on_c, 0, 57, 122
2, 72192, Note_on_c, 0, 45, 117
2, 72192, Note_on_c, 0, 48, 122
2, 72192, Note_on_c, 0, 60, 123
2, 72411, Note_off_c, 0, 60, 64
2, 72424, Note_off_c, 0, 48, 64
2, 72424, Note_off_c, 0, 53, 64
2, 72424, Note_off_c, 0, 65, 64
2, 72425, Note_off_c, 0, 45, 64
2, 72427, Note_off_c, 0, 57, 64
2, 72480, Note_on_c, 0, 48, 120
2, 72480, Note_on_c, 0, 53, 120
2, 72480, Note_on_c, 0, 45, 120
2, 72480, Note_on_c, 0, 65, 122
2, 72480, Note_on_c, 0, 57, 121
2, 72480, Note_on_c, 0, 60, 123
2, 72643, Note_off_c, 0, 57, 64
2, 72672, Note_on_c, 0, 57, 121
2, 72731, Note_off_c, 0, 53, 64
2, 72768, Note_on_c, 0, 53, 123
2, 72828, Note_off_c, 0, 60, 64
2, 72864, Note_on_c, 0, 60, 122
2, 72880, Note_off_c, 0, 53, 64
2, 72904, Note_off_c, 0, 65, 64
2, 72904, Note_off_c, 0, 60, 64
2, 72910, Note_off_c, 0, 48, 64
2, 72913, Note_off_c, 0, 45, 64
2, 72920, Note_off_c, 0, 57, 64
2, 72960, Note_on_c, 0, 55, 122
2, 72960, Note_on_c, 0, 59, 121
2, 72960, Note_on_c, 0, 62, 120
2, 72960, Note_on_c, 0, 47, 123
2, 72960, Note_on_c, 0, 43, 121
2, 72960, Note_on_c, 0, 50, 121
2, 73190, Note_off_c, 0, 62, 64
2, 73195, Note_off_c, 0, 59, 64
2, 73206, Note_off_c, 0, 55, 64
2, 73206, Note_off_c, 0, 50, 64
2, 73214, Note_off_c, 0, 47, 64
2, 73214, Note_off_c, 0, 43, 64
2, 73248, Note_on_c, 0, 50, 120
2, 73248, Note_on_c, 0, 47, 122
2, 73248, Note_on_c, 0, 43, 123
2, 73248, Note_on_c, 0, 55, 122
2, 73248, Note_on_c, 0, 59, 123
2, 73248, Note_on_c, 0, 62, 123
2, 73507, Note_off_c, 0, 43, 64
2, 73507, Note_off_c, 0, 47, 64
2, 73507, Note_off_c, 0, 50, 64
2, 73536, Note_on_c, 0, 47, 121
2, 73536, Note_on_c, 0, 50, 120
2, 73536, Note_on_c, 0, 43, 123
2, 73553, Note_off_c, 0, 55, 64
2, 73632, Note_on_c, 0, 55, 122
2, 73641, Note_off_c, 0, 43, 64
2, 73643, Note_off_c, 0, 47, 64
2, 73646, Note_off_c, 0, 59, 64
2, 73648, Note_off_c, 0, 62, 64
2, 73654, Note_off_c, 0, 50, 64
2, 73670, Note_off_c, 0, 55, 64
2, 73728, Note_on_c, 0, 48, 122
2, 73728, Note_on_c, 0, 53, 123
2, 73728, Note_on_c, 0, 57, 122
2, 73728, Note_on_c, 0, 45, 120
2, 73728, Note_on_c, 0, 65, 123
2, 73728, Note_on_c, 0, 60, 120
2, 73963, Note_off_c, 0, 60, 64
2, 73976, Note_off_c, 0, 65, 64
2, 73979, Note_off_c, 0, 53, 64
2, 73984, Note_off_c, 0, 48, 64
2, 73984, Note_off_c, 0, 45, 64
2, 73990, Note_off_c, 0, 57, 64
2, 74016, Note_on_c, 0, 60, 122
2, 74016, Note_on_c, 0, 53, 121
2, 74016, Note_on_c, 0, 45, 122
2, 74016, Note_on_c, 0, 57, 120
2, 74016, Note_on_c, 0, 65, 120
2, 74016, Note_on_c, 0, 48, 121
2, 74160, Note_off_c, 0, 57, 64
2, 74208, Note_on_c, 0, 57, 120
2, 74243, Note_off_c, 0, 53, 64
2, 74304, Note_off_c, 0, 60, 64
2, 74304, Note_on_c, 0, 53, 121
2, 74400, Note_on_c, 0, 60, 120
2, 74401, Note_off_c, 0, 53, 64
2, 74403, Note_off_c, 0, 65, 64
2, 74404, Note_off_c, 0, 48, 64
2, 74408, Note_off_c, 0, 45, 64
2, 74424, Note_off_c, 0, 57, 64
2, 74430, Note_off_c, 0, 60, 64
2, 74496, Note_on_c, 0, 55, 122
2, 74496, Note_on_c, 0, 59, 121
2, 74496, Note_on_c, 0, 43, 122
2, 74496, Note_on_c, 0, 47, 124
2, 74496, Note_on_c, 0, 50, 122
2, 74496, Note_on_c, 0, 62, 121
2, 74728, Note_off_c, 0, 62, 64
2, 74737, Note_off_c, 0, 59, 64
2, 74745, Note_off_c, 0, 50, 64
2, 74748, Note_off_c, 0, 55, 64
2, 74755, Note_off_c, 0, 47, 64
2, 74758, Note_off_c, 0, 43, 64
2, 74784, Note_on_c, 0, 47, 122
2, 74784, Note_on_c, 0, 59, 122
2, 74784, Note_on_c, 0, 55, 121
2, 74784, Note_on_c, 0, 50, 121
2, 74784, Note_on_c, 0, 43, 123
2, 74832, Note_on_c, 0, 62, 123
2, 74918, Note_off_c, 0, 55, 64
2, 74976, Note_on_c, 0, 55, 121
2, 75022, Note_off_c, 0, 50, 64
2, 75072, Note_on_c, 0, 50, 122
2, 75089, Note_off_c, 0, 59, 64
2, 75158, Note_off_c, 0, 47, 64
2, 75158, Note_off_c, 0, 43, 64
2, 75168, Note_on_c, 0, 59, 122
2, 75176, Note_off_c, 0, 50, 64
2, 75179, Note_off_c, 0, 55, 64
2, 75201, Note_off_c, 0, 59, 64
2, 75212, Note_off_c, 0, 62, 64
2, 75264, Note_on_c, 0, 48, 122
2, 75264, Note_on_c, 0, 53, 122
2, 75264, Note_on_c, 0, 45, 120
2, 75264, Note_on_c, 0, 57, 121
2, 75264, Note_on_c, 0, 60, 121
2, 75264, Note_on_c, 0, 65, 123
2, 75496, Note_off_c, 0, 60, 64
2, 75497, Note_off_c, 0, 65, 64
2, 75508, Note_off_c, 0, 57, 64
2, 75513, Note_off_c, 0, 53, 64
2, 75520, Note_off_c, 0, 48, 64
2, 75520, Note_off_c, 0, 45, 64
2, 75552, Note_on_c, 0, 48, 122
2, 75552, Note_on_c, 0, 53, 120
2, 75552, Note_on_c, 0, 45, 123
2, 75552, Note_on_c, 0, 65, 122
2, 75552, Note_on_c, 0, 57, 122
2, 75552, Note_on_c, 0, 60, 123
2, 75697, Note_off_c, 0, 57, 64
2, 75744, Note_on_c, 0, 57, 121
2, 75782, Note_off_c, 0, 53, 64
2, 75832, Note_off_c, 0, 60, 64
2, 75840, Note_on_c, 0, 53, 120
2, 75932, Note_off_c, 0, 53, 64
2, 75936, Note_off_c, 0, 65, 64
2, 75936, Note_on_c, 0, 60, 121
2, 75940, Note_off_c, 0, 48, 64
2, 75958, Note_off_c, 0, 45, 64
2, 75958, Note_off_c, 0, 57, 64
2, 75969, Note_off_c, 0, 60, 64
2, 76032, Note_on_c, 0, 55, 120
2, 76032, Note_on_c, 0, 59, 119
2, 76032, Note_on_c, 0, 43, 122
2, 76032, Note_on_c, 0, 47, 123
2, 76032, Note_on_c, 0, 50, 122
2, 76032, Note_on_c, 0, 62, 121
2, 76275, Note_off_c, 0, 62, 64
2, 76280, Note_off_c, 0, 50, 64
2, 76281, Note_off_c, 0, 59, 64
2, 76283, Note_off_c, 0, 55, 64
2, 76289, Note_off_c, 0, 47, 64
2, 76291, Note_off_c, 0, 43, 64
2, 76320, Note_on_c, 0, 47, 121
2, 76320, Note_on_c, 0, 50, 120
2, 76320, Note_on_c, 0, 43, 123
2, 76320, Note_on_c, 0, 59, 122
2, 76320, Note_on_c, 0, 55, 121
2, 76320, Note_on_c, 0, 62, 122
2, 76451, Note_off_c, 0, 55, 64
2, 76512, Note_on_c, 0, 55, 121
2, 76550, Note_off_c, 0, 50, 64
2, 76608, Note_on_c, 0, 50, 121
2, 76612, Note_off_c, 0, 59, 64
2, 76700, Note_off_c, 0, 43, 64
2, 76702, Note_off_c, 0, 47, 64
2, 76704, Note_off_c, 0, 62, 64
2, 76704, Note_on_c, 0, 59, 122
2, 76718, Note_off_c, 0, 55, 64
2, 76720, Note_off_c, 0, 50, 64
2, 76742, Note_off_c, 0, 59, 64
2, 76800, Note_on_c, 0, 45, 119
2, 76800, Note_on_c, 0, 53, 122
2, 76800, Note_on_c, 0, 48, 121
2, 76800, Note_on_c, 0, 57, 121
2, 76800, Note_on_c, 0, 65, 123
2, 76800, Note_on_c, 0, 60, 121
2, 77028, Note_off_c, 0, 60, 64
2, 77033, Note_off_c, 0, 65, 64
2, 77040, Note_off_c, 0, 57, 64
2, 77041, Note_off_c, 0, 53, 64
2, 77054, Note_off_c, 0, 45, 64
2, 77054, Note_off_c, 0, 48, 64
2, 77088, Note_on_c, 0, 65, 122
2, 77088, Note_on_c, 0, 48, 121
2, 77088, Note_on_c, 0, 45, 121
2, 77088, Note_on_c, 0, 57, 122
2, 77088, Note_on_c, 0, 60, 123
2, 77088, Note_on_c, 0, 53, 118
2, 77241, Note_off_c, 0, 57, 64
2, 77280, Note_on_c, 0, 57, 121
2, 77329, Note_off_c, 0, 53, 64
2, 77376, Note_on_c, 0, 53, 122
2, 77385, Note_off_c, 0, 60, 64
2, 77472, Note_on_c, 0, 60, 122
2, 77478, Note_off_c, 0, 53, 64
2, 77492, Note_off_c, 0, 48, 64
2, 77500, Note_off_c, 0, 65, 64
2, 77502, Note_off_c, 0, 45, 64
2, 77502, Note_off_c, 0, 57, 64
2, 77512, Note_off_c, 0, 60, 64
2, 77568, Note_on_c, 0, 59, 119
2, 77568, Note_on_c, 0, 47, 122
2, 77568, Note_on_c, 0, 55, 118
2, 77568, Note_on_c, 0, 43, 121
2, 77568, Note_on_c, 0, 50, 121
2, 77568, Note_on_c, 0, 62, 120
2, 77796, Note_off_c, 0, 62, 64
2, 77809, Note_off_c, 0, 50, 64
2, 77809, Note_off_c, 0, 59, 64
2, 77814, Note_off_c, 0, 47, 64
2, 77814, Note_off_c, 0, 43, 64
2, 77816, Note_off_c, 0, 55, 64
2, 77856, Note_on_c, 0, 47, 121
2, 77856, Note_on_c, 0, 59, 122
2, 77856, Note_on_c, 0, 55, 120
2, 77856, Note_on_c, 0, 50, 119
2, 77856, Note_on_c, 0, 43, 123
2, 77856, Note_on_c, 0, 62, 123
2, 78216, Note_off_c, 0, 55, 64
2, 78224, Note_off_c, 0, 62, 64
2, 78227, Note_off_c, 0, 59, 64
2, 78241, Note_off_c, 0, 50, 64
2, 78243, Note_off_c, 0, 47, 64
2, 78248, Note_off_c, 0, 43, 64
2, 84480, Note_on_c, 0, 48, 118
2, 84480, Note_on_c, 0, 53, 117
2, 84480, Note_on_c, 0, 65, 119
2, 84480, Note_on_c, 0, 45, 119
2, 84480, Note_on_c, 0, 57, 116
2, 84480, Note_on_c, 0, 60, 119
2, 84640, Note_off_c, 0, 57, 64
2, 84672, Note_on_c, 0, 57, 117
2, 84713, Note_off_c, 0, 60, 64
2, 84724, Note_off_c, 0, 65, 64
2, 84726, Note_off_c, 0, 45, 64
2, 84731, Note_off_c, 0, 53, 64
2, 84734, Note_off_c, 0, 48, 64
2, 84768, Note_on_c, 0, 48, 118
2, 84768, Note_on_c, 0, 53, 114
2, 84768, Note_on_c, 0, 45, 120
2, 84768, Note_on_c, 0, 65, 121
2, 84768, Note_on_c, 0, 60, 121
2, 84937, Note_off_c, 0, 57, 64
2, 84960, Note_on_c, 0, 57, 118
2, 85028, Note_off_c, 0, 53, 64
2, 85056, Note_on_c, 0, 53, 120
2, 85102, Note_off_c, 0, 60, 64
2, 85152, Note_on_c, 0, 60, 121
2, 85193, Note_off_c, 0, 53, 64
2, 85204, Note_off_c, 0, 65, 64
2, 85220, Note_off_c, 0, 45, 64
2, 85233, Note_off_c, 0, 60, 64
2, 85248, Note_on_c, 0, 65, 111
2, 85248, Note_on_c, 0, 45, 118
2, 85248, Note_on_c, 0, 60, 115
2, 85248, Note_on_c, 0, 53, 115
2, 85504, Note_off_c, 0, 60, 64
2, 85505, Note_off_c, 0, 53, 64
2, 85508, Note_off_c, 0, 45, 64
2, 85508, Note_off_c, 0, 57, 64
2, 85515, Note_off_c, 0, 65, 64
2, 85518, Note_off_c, 0, 48, 64
2, 85536, Note_on_c, 0, 53, 121
2, 85536, Note_on_c, 0, 65, 114
2, 85536, Note_on_c, 0, 57, 112
2, 85536, Note_on_c, 0, 60, 120
2, 85536, Note_on_c, 0, 48, 120
2, 85536, Note_on_c, 0, 45, 120
2, 85788, Note_off_c, 0, 57, 64
2, 85824, Note_on_c, 0, 57, 121
2, 85870, Note_off_c, 0, 60, 64
2, 85896, Note_off_c, 0, 65, 64
2, 85907, Note_off_c, 0, 53, 64
2, 85918, Note_off_c, 0, 48, 64
2, 85924, Note_off_c, 0, 57, 64
2, 85929, Note_off_c, 0, 45, 64
2, 86016, Note_on_c, 0, 55, 119
2, 86016, Note_on_c, 0, 59, 120
2, 86016, Note_on_c, 0, 62, 123
2, 86016, Note_on_c, 0, 43, 115
2, 86016, Note_on_c, 0, 47, 119
2, 86016, Note_on_c, 0, 50, 117
2, 86251, Note_off_c, 0, 62, 64
2, 86254, Note_off_c, 0, 59, 64
2, 86262, Note_off_c, 0, 50, 64
2, 86264, Note_off_c, 0, 47, 64
2, 86265, Note_off_c, 0, 43, 64
2, 86276, Note_off_c, 0, 55, 64
2, 86304, Note_on_c, 0, 47, 120
2, 86304, Note_on_c, 0, 55, 119
2, 86304, Note_on_c, 0, 59, 122
2, 86304, Note_on_c, 0, 43, 122
2, 86304, Note_on_c, 0, 50, 117
2, 86304, Note_on_c, 0, 62, 122
2, 86561, Note_off_c, 0, 50, 64
2, 86592, Note_on_c, 0, 50, 121
2, 86633, Note_off_c, 0, 55, 64
2, 86688, Note_on_c, 0, 55, 121
2, 86712, Note_off_c, 0, 62, 64
2, 86715, Note_off_c, 0, 59, 64
2, 86731, Note_off_c, 0, 50, 64
2, 86740, Note_off_c, 0, 43, 64
2, 86744, Note_off_c, 0, 47, 64
2, 86784, Note_on_c, 0, 43, 121
2, 86784, Note_on_c, 0, 59, 123
2, 86784, Note_on_c, 0, 47, 120
2, 86784, Note_on_c, 0, 50, 118
2, 86784, Note_on_c, 0, 62, 124
2, 87019, Note_off_c, 0, 59, 64
2, 87020, Note_off_c, 0, 62, 64
2, 87028, Note_off_c, 0, 50, 64
2, 87032, Note_off_c, 0, 47, 64
2, 87035, Note_off_c, 0, 43, 64
2, 87044, Note_off_c, 0, 55, 64
2, 87072, Note_on_c, 0, 43, 122
2, 87072, Note_on_c, 0, 50, 118
2, 87072, Note_on_c, 0, 47, 121
2, 87072, Note_on_c, 0, 55, 120
2, 87072, Note_on_c, 0, 59, 123
2, 87072, Note_on_c, 0, 62, 123
2, 87406, Note_off_c, 0, 47, 64
2, 87409, Note_off_c, 0, 43, 64
2, 87411, Note_off_c, 0, 62, 64
2, 87412, Note_off_c, 0, 59, 64
2, 87422, Note_off_c, 0, 50, 64
2, 87422, Note_off_c, 0, 55, 64
2, 87552, Note_on_c, 0, 65, 122
2, 87552, Note_on_c, 0, 53, 121
2, 87552, Note_on_c, 0, 57, 122
2, 87552, Note_on_c, 0, 45, 117
2, 87552, Note_on_c, 0, 48, 122
2, 87552, Note_on_c, 0, 60, 123
2, 87771, Note_off_c, 0, 60, 64
2, 87784, Note_off_c, 0, 48, 64
2, 87784, Note_off_c, 0, 53, 64
2, 87784, Note_off_c, 0, 65, 64
2, 87785, Note_off_c, 0, 45, 64
2, 87787, Note_off_c, 0, 57, 64
2, 87840, Note_on_c, 0, 48, 120
2, 87840, Note_on_c, 0, 53, 120
2, 87840, Note_on_c, 0, 45, 120
2, 87840, Note_on_c, 0, 65, 122
2, 87840, Note_on_c, 0, 57, 121
2, 87840, Note_on_c, 0, 60, 123
2, 88003, Note_off_c, 0, 57, 64
2, 88032, Note_on_c, 0, 57, 121
2, 88091, Note_off_c, 0, 53, 64
2, 88128, Note_on_c, 0, 53, 123
2, 88188, Note_off_c, 0, 60, 64
2, 88224, Note_on_c, 0, 60, 122
2, 88240, Note_off_c, 0, 53, 64
2, 88264, Note_off_c, 0, 65, 64
2, 88264, Note_off_c, 0, 60, 64
2, 88270, Note_off_c, 0, 48, 64
2, 88273, Note_off_c, 0, 45, 64
2, 88280, Note_off_c, 0, 57, 64
2, 88320, Note_on_c, 0, 55, 122
2, 88320, Note_on_c, 0, 59, 121
2, 88320, Note_on_c, 0, 62, 120
2, 88320, Note_on_c, 0, 47, 123
2, 88320, Note_on_c, 0, 43, 121
2, 88320, Note_on_c, 0, 50, 121
2, 88550, Note_off_c, 0, 62, 64
2, 88555, Note_off_c, 0, 59, 64
2, 88566, Note_off_c, 0, 55, 64
2, 88566, Note_off_c, 0, 50, 64
2, 88574, Note_off_c, 0, 47, 64
2, 88574, Note_off_c, 0, 43, 64
2, 88608, Note_on_c, 0, 50, 120
2, 88608, Note_on_c, 0, 47, 122
2, 88608, Note_on_c, 0, 43, 123
2, 88608, Note_on_c, 0, 55, 122
2, 88608, Note_on_c, 0, 59, 123
2, 88608, Note_on_c, 0, 62, 123
2, 88867, Note_off_c, 0, 43, 64
2, 88867, Note_off_c, 0, 47, 64
2, 88867, Note_off_c, 0, 50, 64
2, 88896, Note_on_c, 0, 47, 121
2, 88896, Note_on_c, 0, 50, 120
2, 88896, Note_on_c, 0, 43, 123
2, 88913, Note_off_c, 0, 55, 64
2, 88992, Note_on_c, 0, 55, 122
2, 89001, Note_off_c, 0, 43, 64
2, 89003, Note_off_c, 0, 47, 64
2, 89006, Note_off_c, 0, 59, 64
2, 89008, Note_off_c, 0, 62, 64
2, 89014, Note_off_c, 0, 50, 64
2, 89030, Note_off_c, 0, 55, 64
2, 89088, Note_on_c, 0, 48, 122
2, 89088, Note_on_c, 0, 53, 123
2, 89088, Note_on_c, 0, 57, 122
2, 89088, Note_on_c, 0, 45, 120
2, 89088, Note_on_c, 0, 65, 123
2, 89088, Note_on_c, 0, 60, 120
2, 89323, Note_off_c, 0, 60, 64
2, 89336, Note_off_c, 0, 65, 64
2, 89339, Note_off_c, 0, 53, 64
2, 89344, Note_off_c, 0, 48, 64
2, 89344, Note_off_c, 0, 45, 64
2, 89350, Note_off_c, 0, 57, 64
2, 89376, Note_on_c, 0, 60, 122
2, 89376, Note_on_c, 0, 53, 121
2, 89376, Note_on_c, 0, 45, 122
2, 89376, Note_on_c, 0, 57, 120
2, 89376, Note_on_c, 0, 65, 120
2, 89376, Note_on_c, 0, 48, 121
2, 89520, Note_off_c, 0, 57, 64
2, 89568, Note_on_c, 0, 57, 120
2, 89603, Note_off_c, 0, 53, 64
2, 89664, Note_off_c, 0, 60, 64
2, 89664, Note_on_c, 0, 53, 121
2, 89760, Note_on_c, 0, 60, 120
2, 89761, Note_off_c, 0, 53, 64
2, 89763, Note_off_c, 0, 65, 64
2, 89764, Note_off_c, 0, 48, 64
2, 89768, Note_off_c, 0, 45, 64
2, 89784, Note_off_c, 0, 57, 64
2, 89790, Note_off_c, 0, 60, 64
2, 89856, Note_on_c, 0, 55, 122
2, 89856, Note_on_c, 0, 59, 121
2, 89856, Note_on_c, 0, 43, 122
2, 89856, Note_on_c, 0, 47, 124
2, 89856, Note_on_c, 0, 50, 122
2, 89856, Note_on_c, 0, 62, 121
2, 90088, Note_off_c, 0, 62, 64
2, 90097, Note_off_c, 0, 59, 64
2, 90105, Note_off_c, 0, 50, 64
2, 90108, Note_off_c, 0, 55, 64
2, 90115, Note_off_c, 0, 47, 64
2, 90118, Note_off_c, 0, 43, 64
2, 90144, Note_on_c, 0, 47, 122
2, 90144, Note_on_c, 0, 59, 122
2, 90144, Note_on_c, 0, 55, 121
2, 90144, Note_on_c, 0, 50, 121
2, 90144, Note_on_c, 0, 43, 123
2, 90192, Note_on_c, 0, 62, 123
2, 90278, Note_off_c, 0, 55, 64
2, 90336, Note_on_c, 0, 55, 121
2, 90382, Note_off_c, 0, 50, 64
2, 90432, Note_on_c, 0, 50, 122
2, 90449, Note_off_c, 0, 59, 64
2, 90518, Note_off_c, 0, 47, 64
2, 90518, Note_off_c, 0, 43, 64
2, 90528, Note_on_c, 0, 59, 122
2, 90536, Note_off_c, 0, 50, 64
2, 90539, Note_off_c, 0, 55, 64
2, 90561, Note_off_c, 0, 59, 64
2, 90572, Note_off_c, 0, 62, 64
2, 90624, Note_on_c, 0, 48, 122
2, 90624, Note_on_c, 0, 53, 122
2, 90624, Note_on_c, 0, 45, 120
2, 90624, Note_on_c, 0, 57, 121
2, 90624, Note_on_c, 0, 60, 121
2, 90624, Note_on_c, 0, 65, 123
2, 90856, Note_off_c, 0, 60, 64
2, 90857, Note_off_c, 0, 65, 64
2, 90868, Note_off_c, 0, 57, 64
2, 90873, Note_off_c, 0, 53, 64
2, 90880, Note_off_c, 0, 48, 64
2, 90880, Note_off_c, 0, 45, 64
2, 90912, Note_on_c, 0, 48, 122
2, 90912, Note_on_c, 0, 53, 120
2, 90912, Note_on_c, 0, 45, 123
2, 90912, Note_on_c, 0, 65, 122
2, 90912, Note_on_c, 0, 57, 122
2, 90912, Note_on_c, 0, 60, 123
2, 91057, Note_off_c, 0, 57, 64
2, 91104, Note_on_c, 0, 57, 121
2, 91142, Note_off_c, 0, 53, 64
2, 91192, Note_off_c, 0, 60, 64
2, 91200, Note_on_c, 0, 53, 120
2, 91292, Note_off_c, 0, 53, 64
2, 91296, Note_off_c, 0, 65, 64
2, 91296, Note_on_c, 0, 60, 121
2, 91300, Note_off_c, 0, 48, 64
2, 91318, Note_off_c, 0, 45, 64
2, 91318, Note_off_c, 0, 57, 64
2, 91329, Note_off_c, 0, 60, 64
2, 91392, Note_on_c, 0, 55, 120
2, 91392, Note_on_c, 0, 59, 119
2, 91392, Note_on_c, 0, 43, 122
2, 91392, Note_on_c, 0, 47, 123
2, 91392, Note_on_c, 0, 50, 122
2, 91392, Note_on_c, 0, 62, 121
2, 91635, Note_off_c, 0, 62, 64
2, 91640, Note_off_c, 0, 50, 64
2, 91641, Note_off_c, 0, 59, 64
2, 91643, Note_off_c, 0, 55, 64
2, 91649, Note_off_c, 0, 47, 64
2, 91651, Note_off_c, 0, 43, 64
2, 91680, Note_on_c, 0, 47, 121
2, 91680, Note_on_c, 0, 50, 120
2, 91680, Note_on_c, 0, 43, 123
2, 91680, Note_on_c, 0, 59, 122
2, 91680, Note_on_c, 0, 55, 121
2, 91680, Note_on_c, 0, 62, 122
2, 91811, Note_off_c, 0, 55, 64
2, 91872, Note_on_c, 0, 55, 121
2, 91910, Note_off_c, 0, 50, 64
2, 91968, Note_on_c, 0, 50, 121
2, 91972, Note_off_c, 0, 59, 64
2, 92060, Note_off_c, 0, 43, 64
2, 92062, Note_off_c, 0, 47, 64
2, 92064, Note_off_c, 0, 62, 64
2, 92064, Note_on_c, 0, 59, 122
2, 92078, Note_off_c, 0, 55, 64
2, 92080, Note_off_c, 0, 50, 64
2, 92102, Note_off_c, 0, 59, 64
2, 92160, Note_on_c, 0, 45, 119
2, 92160, Note_on_c, 0, 53, 122
2, 92160, Note_on_c, 0, 48, 121
2, 92160, Note_on_c, 0, 57, 121
2, 92160, Note_on_c, 0, 65, 123
2, 92160, Note_on_c, 0, 60, 121
2, 92388, Note_off_c, 0, 60, 64
2, 92393, Note_off_c, 0, 65, 64
2, 92400, Note_off_c, 0, 57, 64
2, 92401, Note_off_c, 0, 53, 64
2, 92414, Note_off_c, 0, 45, 64
2, 92414, Note_off_c, 0, 48, 64
2, 92448, Note_on_c, 0, 65, 122
2, 92448, Note_on_c, 0, 48, 121
2, 92448, Note_on_c, 0, 45, 121
2, 92448, Note_on_c, 0, 57, 122
2, 92448, Note_on_c, 0, 60, 123
2, 92448, Note_on_c, 0, 53, 118
2, 92601, Note_off_c, 0, 57, 64
2, 92640, Note_on_c, 0, 57, 121
2, 92689, Note_off_c, 0, 53, 64
2, 92736, Note_on_c, 0, 53, 122
2, 92745, Note_off_c, 0, 60, 64
2, 92832, Note_on_c, 0, 60, 122
2, 92838, Note_off_c, 0, 53, 64
2, 92852, Note_off_c, 0, 48, 64
2, 92860, Note_off_c, 0, 65, 64
2, 92862, Note_off_c, 0, 45, 64
2, 92862, Note_off_c, 0, 57, 64
2, 92872, Note_off_c, 0, 60, 64
2, 92928, Note_on_c, 0, 59, 119
2, 92928, Note_on_c, 0, 47, 122
2, 92928, Note_on_c, 0, 55, 118
2, 92928, Note_on_c, 0, 43, 121
2, 92928, Note_on_c, 0, 50, 121
2, 92928, Note_on_c, 0, 62, 120
2, 93156, Note_off_c, 0, 62, 64
2, 93169, Note_off_c, 0, 50, 64
2, 93169, Note_off_c, 0, 59, 64
2, 93174, Note_off_c, 0, 47, 64
2, 93174, Note_off_c, 0, 43, 64
2, 93176, Note_off_c, 0, 55, 64
2, 93216, Note_on_c, 0, 47, 121
2, 93216, Note_on_c, 0, 59, 122
2, 93216, Note_on_c, 0, 55, 120
2, 93216, Note_on_c, 0, 50, 119
2, 93216, Note_on_c, 0, 43, 123
2, 93216, Note_on_c, 0, 62, 123
2, 93576, Note_off_c, 0, 55, 64
2, 93584, Note_off_c, 0, 62, 64
2, 93587, Note_off_c, 0, 59, 64
2, 93601, Note_off_c, 0, 50, 64
2, 93603, Note_off_c, 0, 47, 64
2, 93608, Note_off_c, 0, 43, 64
2, 93696, Note_on_c, 0, 65, 122
2, 93696, Note_on_c, 0, 53, 121
2, 93696, Note_on_c, 0, 57, 122
2, 93696, Note_on_c, 0, 45, 117
2, 93696, Note_on_c, 0, 48, 122
2, 93696, Note_on_c, 0, 60, 123
2, 93915, Note_off_c, 0, 60, 64
2, 93928, Note_off_c, 0, 48, 64
2, 93928, Note_off_c, 0, 53, 64
2, 93928, Note_off_c, 0, 65, 64
2, 93929, Note_off_c, 0, 45, 64
2, 93931, Note_off_c, 0, 57, 64
2, 93984, Note_on_c, 0, 48, 120
2, 93984, Note_on_c, 0, 53, 120
2, 93984, Note_on_c, 0, 45, 120
2, 93984, Note_on_c, 0, 65, 122
2, 93984, Note_on_c, 0, 57, 121
2, 93984, Note_on_c, 0, 60, 123
2, 94147, Note_off_c, 0, 57, 64
2, 94176, Note_on_c, 0, 57, 121
2, 94235, Note_off_c, 0, 53, 64
2, 94272, Note_on_c, 0, 53, 123
2, 94332, Note_off_c, 0, 60, 64
2, 94368, Note_on_c, 0, 60, 122
2, 94384, Note_off_c, 0, 53, 64
2, 94408, Note_off_c, 0, 65, 64
2, 94408, Note_off_c, 0, 60, 64
2, 94414, Note_off_c, 0, 48, 64
2, 94417, Note_off_c, 0, 45, 64
2, 94424, Note_off_c, 0, 57, 64
2, 94464, Note_on_c, 0, 55, 122
2, 94464, Note_on_c, 0, 59, 121
2, 94464, Note_on_c, 0, 62, 120
2, 94464, Note_on_c, 0, 47, 123
2, 94464, Note_on_c, 0, 43, 121
2, 94464, Note_on_c, 0, 50, 121
2, 94694, Note_off_c, 0, 62, 64
2, 94699, Note_off_c, 0, 59, 64
2, 94710, Note_off_c, 0, 55, 64
2, 94710, Note_off_c, 0, 50, 64
2, 94718, Note_off_c, 0, 47, 64
2, 94718, Note_off_c, 0, 43, 64
2, 94752, Note_on_c, 0, 50, 120
2, 94752, Note_on_c, 0, 47, 122
2, 94752, Note_on_c, 0, 43, 123
2, 94752, Note_on_c, 0, 55, 122
2, 94752, Note_on_c, 0, 59, 123
2, 94752, Note_on_c, 0, 62, 123
2, 95011, Note_off_c, 0, 43, 64
2, 95011, Note_off_c, 0, 47, 64
2, 95011, Note_off_c, 0, 50, 64
2, 95040, Note_on_c, 0, 47, 121
2, 95040, Note_on_c, 0, 50, 120
2, 95040, Note_on_c, 0, 43, 123
2, 95057, Note_off_c, 0, 55, 64
2, 95136, Note_on_c, 0, 55, 122
2, 95145, Note_off_c, 0, 43, 64
2, 95147, Note_off_c, 0, 47, 64
2, 95150, Note_off_c, 0, 59, 64
2, 95152, Note_off_c, 0, 62, 64
2, 95158, Note_off_c, 0, 50, 64
2, 95174, Note_off_c, 0, 55, 64
2, 95232, Note_on_c, 0, 48, 122
2, 95232, Note_on_c, 0, 53, 123
2, 95232, Note_on_c, 0, 57, 122
2, 95232, Note_on_c, 0, 45, 120
2, 95232, Note_on_c, 0, 65, 123
2, 95232, Note_on_c, 0, 60, 120
2, 95467, Note_off_c, 0, 60, 64
2, 95480, Note_off_c, 0, 65, 64
2, 95483, Note_off_c, 0, 53, 64
2, 95488, Note_off_c, 0, 48, 64
2, 95488, Note_off_c, 0, 45, 64
2, 95494, Note_off_c, 0, 57, 64
2, 95520, Note_on_c, 0, 60, 122
2, 95520, Note_on_c, 0, 53, 121
2, 95520, Note_on_c, 0, 45, 122
2, 95520, Note_on_c, 0, 57, 120
2, 95520, Note_on_c, 0, 65, 120
2, 95520, Note_on_c, 0, 48, 121
2, 95664, Note_off_c, 0, 57, 64
2, 95712, Note_on_c, 0, 57, 120
2, 95747, Note_off_c, 0, 53, 64
2, 95808, Note_off_c, 0, 60, 64
2, 95808, Note_on_c, 0, 53, 121
2, 95904, Note_on_c, 0, 60, 120
2, 95905, Note_off_c, 0, 53, 64
2, 95907, Note_off_c, 0, 65, 64
2, 95908, Note_off_c, 0, 48, 64
2, 95912, Note_off_c, 0, 45, 64
2, 95928, Note_off_c, 0, 57, 64
2, 95934, Note_off_c, 0, 60, 64
2, 96000, Note_on_c, 0, 55, 122
2, 96000, Note_on_c, 0, 59, 121
2, 96000, Note_on_c, 0, 43, 122
2, 96000, Note_on_c, 0, 47, 124
2, 96000, Note_on_c, 0, 50, 122
2, 96000, Note_on_c, 0, 62, 121
2, 96232, Note_off_c, 0, 62, 64
2, 96241, Note_off_c, 0, 59, 64
2, 96249, Note_off_c, 0, 50, 64
2, 96252, Note_off_c, 0, 55, 64
2, 96259, Note_off_c, 0, 47, 64
2, 96262, Note_off_c, 0, 43, 64
2, 96288, Note_on_c, 0, 47, 122
2, 96288, Note_on_c, 0, 59, 122
2, 96288, Note_on_c, 0, 55, 121
2, 96288, Note_on_c, 0, 50, 121
2, 96288, Note_on_c, 0, 43, 123
2, 96336, Note_on_c, 0, 62, 123
2, 96422, Note_off_c, 0, 55, 64
2, 96480, Note_on_c, 0, 55, 121
2, 96526, Note_off_c, 0, 50, 64
2, 96576, Note_on_c, 0, 50, 122
2, 96593, Note_off_c, 0, 59, 64
2, 96662, Note_off_c, 0, 47, 64
2, 96662, Note_off_c, 0, 43, 64
2, 96672, Note_on_c, 0, 59, 122
2, 96680, Note_off_c, 0, 50, 64
2, 96683, Note_off_c, 0, 55, 64
2, 96705, Note_off_c, 0, 59, 64
2, 96716, Note_off_c, 0, 62, 64
2, 96768, Note_on_c, 0, 48, 122
2, 96768, Note_on_c, 0, 53, 122
2, 96768, Note_on_c, 0, 45, 120
2, 96768, Note_on_c, 0, 57, 121
2, 96768, Note_on_c, 0, 60, 121
2, 96768, Note_on_c, 0, 65, 123
2, 97000, Note_off_c, 0, 60, 64
2, 97001, Note_off_c, 0, 65, 64
2, 97012, Note_off_c, 0, 57, 64
2, 97017, Note_off_c, 0, 53, 64
2, 97024, Note_off_c, 0, 48, 64
2, 97024, Note_off_c, 0, 45, 64
2, 97056, Note_on_c, 0, 48, 122
2, 97056, Note_on_c, 0, 53, 120
2, 97056, Note_on_c, 0, 45, 123
2, 97056, Note_on_c, 0, 65, 122
2, 97056, Note_on_c, 0, 57, 122
2, 97056, Note_on_c, 0, 60, 123
2, 97201, Note_off_c, 0, 57, 64
2, 97248, Note_on_c, 0, 57, 121
2, 97286, Note_off_c, 0, 53, 64
2, 97336, Note_off_c, 0, 60, 64
2, 97344, Note_on_c, 0, 53, 120
2, 97436, Note_off_c, 0, 53, 64
2, 97440, Note_off_c, 0, 65, 64
2, 97440, Note_on_c, 0, 60, 121
2, 97444, Note_off_c, 0, 48, 64
2, 97462, Note_off_c, 0, 45, 64
2, 97462, Note_off_c, 0, 57, 64
2, 97473, Note_off_c, 0, 60, 64
2, 97536, Note_on_c, 0, 55, 120
2, 97536, Note_on_c, 0, 59, 119
2, 97536, Note_on_c, 0, 43, 122
2, 97536, Note_on_c, 0, 47, 123
2, 97536, Note_on_c, 0, 50, 122
2, 97536, Note_on_c, 0, 62, 121
2, 97779, Note_off_c, 0, 62, 64
2, 97784, Note_off_c, 0, 50, 64
2, 97785, Note_off_c, 0, 59, 64
2, 97787, Note_off_c, 0, 55, 64
2, 97793, Note_off_c, 0, 47, 64
2, 97795, Note_off_c, 0, 43, 64
2, 97824, Note_on_c, 0, 47, 121
2, 97824, Note_on_c, 0, 50, 120
2, 97824, Note_on_c, 0, 43, 123
2, 97824, Note_on_c, 0, 59, 122
2, 97824, Note_on_c, 0, 55, 121
2, 97824, Note_on_c, 0, 62, 122
2, 97955, Note_off_c, 0, 55, 64
2, 98016, Note_on_c, 0, 55, 121
2, 98054, Note_off_c, 0, 50, 64
2, 98112, Note_on_c, 0, 50, 121
2, 98116, Note_off_c, 0, 59, 64
2, 98204, Note_off_c, 0, 43, 64
2, 98206, Note_off_c, 0, 47, 64
2, 98208, Note_off_c, 0, 62, 64
2, 98208, Note_on_c, 0, 59, 122
2, 98222, Note_off_c, 0, 55, 64
2, 98224, Note_off_c, 0, 50, 64
2, 98246, Note_off_c, 0, 59, 64
2, 98304, Note_on_c, 0, 45, 119
2, 98304, Note_on_c, 0, 53, 122
2, 98304, Note_on_c, 0, 48, 121
2, 98304, Note_on_c, 0, 57, 121
2, 98304, Note_on_c, 0, 65, 123
2, 98304, Note_on_c, 0, 60, 121
2, 98532, Note_off_c, 0, 60, 64
2, 98537, Note_off_c, 0, 65, 64
2, 98544, Note_off_c, 0, 57, 64
2, 98545, Note_off_c, 0, 53, 64
2, 98558, Note_off_c, 0, 45, 64
2, 98558, Note_off_c, 0, 48, 64
2, 98592, Note_on_c, 0, 65, 122
2, 98592, Note_on_c, 0, 48, 121
2, 98592, Note_on_c, 0, 45, 121
2, 98592, Note_on_c, 0, 57, 122
2, 98592, Note_on_c, 0, 60, 123
2, 98592, Note_on_c, 0, 53, 118
2, 98745, Note_off_c, 0, 57, 64
2, 98784, Note_on_c, 0, 57, 121
2, 98833, Note_off_c, 0, 53, 64
2, 98880, Note_on_c, 0, 53, 122
2, 98889, Note_off_c, 0, 60, 64
2, 98976, Note_on_c, 0, 60, 122
2, 98982, Note_off_c, 0, 53, 64
2, 98996, Note_off_c, 0, 48, 64
2, 99004, Note_off_c, 0, 65, 64
2, 99006, Note_off_c, 0, 45, 64
2, 99006, Note_off_c, 0, 57, 64
2, 99016, Note_off_c, 0, 60, 64
2, 99072, Note_on_c, 0, 59, 119
2, 99072, Note_on_c, 0, 47, 122
2, 99072, Note_on_c, 0, 55, 118
2, 99072, Note_on_c, 0, 43, 121
2, 99072, Note_on_c, 0, 50, 121
2, 99072, Note_on_c, 0, 62, 120
2, 99300, Note_off_c, 0, 62, 64
2, 99313, Note_off_c, 0, 50, 64
2, 99313, Note_off_c, 0, 59, 64
2, 99318, Note_off_c, 0, 47, 64
2, 99318, Note_off_c, 0, 43, 64
2, 99320, Note_off_c, 0, 55, 64
2, 99360, Note_on_c, 0, 47, 121
2, 99360, Note_on_c, 0, 59, 122
2, 99360, Note_on_c, 0, 55, 120
2, 99360, Note_on_c, 0, 50, 119
2, 99360, Note_on_c, 0, 43, 123
2, 99360, Note_on_c, 0, 62, 123
2, 99720, Note_off_c, 0, 55, 64
2, 99728, Note_off_c, 0, 62, 64
2, 99731, Note_off_c, 0, 59, 64
2, 99745, Note_off_c, 0, 50, 64
2, 99747, Note_off_c, 0, 47, 64
2, 99752, Note_off_c, 0, 43, 64
2, 99752, End_track
3, 0, Start_track
3, 0, Title_t, "clean guitar"
3, 0, Channel_prefix, 3
3, 0, Control_c, 3, 7, 120
3, 0, Control_c, 3, 10, 64
3, 0, Program_c, 3, 27
3, 6912, Note_on_c, 3, 48, 124
3, 7008, Note_on_c, 3, 53, 123
3, 7024, Note_off_c, 3, 48, 64
3, 7104, Note_on_c, 3, 55, 127
3, 7120, Note_off_c, 3, 53, 64
3, 7966, Note_off_c, 3, 55, 64
3, 7968, Note_on_c, 3, 48, 120
3, 8152, Note_off_c, 3, 48, 64
3, 8160, Note_on_c, 3, 53, 120
3, 8256, Note_on_c, 3, 55, 125
3, 8265, Note_off_c, 3, 53, 64
3, 8387, Note_off_c, 3, 55, 64
3, 8448, Note_on_c, 3, 43, 124
3, 8544, Note_on_c, 3, 48, 119
3, 8552, Note_off_c, 3, 43, 64
3, 8640, Note_on_c, 3, 50, 123
3, 8656, Note_off_c, 3, 48, 64
3, 9504, Note_on_c, 3, 43, 122
3, 9513, Note_off_c, 3, 50, 64
3, 9696, Note_on_c, 3, 48, 120
3, 9700, Note_off_c, 3, 43, 64
3, 9792, Note_on_c, 3, 50, 124
3, 9809, Note_off_c, 3, 48, 64
3, 9939, Note_off_c, 3, 50, 64
3, 9984, Note_on_c, 3, 48, 121
3, 10080, Note_on_c, 3, 53, 122
3, 10104, Note_off_c, 3, 48, 64
3, 10176, Note_on_c, 3, 55, 125
3, 10195, Note_off_c, 3, 53, 64
3, 11040, Note_off_c, 3, 55, 64
3, 11040, Note_on_c, 3, 48, 121
3, 11224, Note_off_c, 3, 48, 64
3, 11232, Note_on_c, 3, 53, 121
3, 11328, Note_on_c, 3, 55, 123
3, 11353, Note_off_c, 3, 53, 64
3, 11433, Note_off_c, 3, 55, 64
3, 11520, Note_on_c, 3, 43, 124
3, 11616, Note_on_c, 3, 48, 120
3, 11619, Note_off_c, 3, 43, 64
3, 11712, Note_on_c, 3, 50, 125
3, 11734, Note_off_c, 3, 48, 64
3, 12576, Note_on_c, 3, 43, 121
3, 12603, Note_off_c, 3, 50, 64
3, 12764, Note_off_c, 3, 43, 64
3, 12768, Note_on_c, 3, 48, 118
3, 12864, Note_on_c, 3, 50, 126
3, 12881, Note_off_c, 3, 48, 64
3, 13030, Note_off_c, 3, 50, 64
3, 13056, Note_on_c, 3, 48, 124
3, 13152, Note_on_c, 3, 53, 123
3, 13168, Note_off_c, 3, 48, 64
3, 13248, Note_on_c, 3, 55, 127
3, 13264, Note_off_c, 3, 53, 64
3, 14110, Note_off_c, 3, 55, 64
3, 14112, Note_on_c, 3, 48, 120
3, 14296, Note_off_c, 3, 48, 64
3, 14304, Note_on_c, 3, 53, 120
3, 14400, Note_on_c, 3, 55, 125
3, 14409, Note_off_c, 3, 53, 64
3, 14531, Note_off_c, 3, 55, 64
3, 14592, Note_on_c, 3, 43, 124
3, 14688, Note_on_c, 3, 48, 119
3, 14696, Note_off_c, 3, 43, 64
3, 14784, Note_on_c, 3, 50, 123
3, 14800, Note_off_c, 3, 48, 64
3, 15648, Note_on_c, 3, 43, 122
3, 15657, Note_off_c, 3, 50, 64
3, 15840, Note_on_c, 3, 48, 120
3, 15844, Note_off_c, 3, 43, 64
3, 15936, Note_on_c, 3, 50, 124
3, 15953, Note_off_c, 3, 48, 64
3, 16083, Note_off_c, 3, 50, 64
3, 16128, Note_on_c, 3, 48, 121
3, 16224, Note_on_c, 3, 53, 122
3, 16248, Note_off_c, 3, 48, 64
3, 16320, Note_on_c, 3, 55, 125
3, 16339, Note_off_c, 3, 53, 64
3, 17184, Note_off_c, 3, 55, 64
3, 17184, Note_on_c, 3, 48, 121
3, 17368, Note_off_c, 3, 48, 64
3, 17376, Note_on_c, 3, 53, 121
3, 17472, Note_on_c, 3, 55, 123
3, 17497, Note_off_c, 3, 53, 64
3, 17577, Note_off_c, 3, 55, 64
3, 17664, Note_on_c, 3, 43, 124
3, 17760, Note_on_c, 3, 48, 120
3, 17763, Note_off_c, 3, 43, 64
3, 17856, Note_on_c, 3, 50, 125
3, 17878, Note_off_c, 3, 48, 64
3, 18747, Note_off_c, 3, 50, 64
3, 18816, Note_on_c, 3, 52, 118
3, 18816, Note_on_c, 3, 55, 116
3, 18816, Note_on_c, 3, 48, 120
3, 18816, Note_on_c, 3, 43, 120
3, 18816, Note_on_c, 3, 64, 121
3, 18856, Note_off_c, 3, 64, 64
3, 18857, Note_off_c, 3, 43, 64
3, 18857, Note_off_c, 3, 48, 64
3, 18857, Note_off_c, 3, 55, 64
3, 18864, Note_off_c, 3, 52, 64
3, 18912, Note_on_c, 3, 64, 120
3, 18912, Note_on_c, 3, 60, 120
3, 18912, Note_on_c, 3, 48, 115
3, 18912, Note_on_c, 3, 55, 114
3, 18912, Note_on_c, 3, 52, 111
3, 18912, Note_on_c, 3, 43, 111
3, 18912, Note_on_c, 3, 48, 118
3, 18947, Note_off_c, 3, 43, 64
3, 18953, Note_off_c, 3, 52, 64
3, 18953, Note_off_c, 3, 48, 64
3, 18953, Note_off_c, 3, 60, 64
3, 18956, Note_off_c, 3, 55, 64
3, 18958, Note_off_c, 3, 64, 64
3, 19008, Note_on_c, 3, 52, 111
3, 19008, Note_on_c, 3, 48, 114
3, 19008, Note_on_c, 3, 55, 116
3, 19008, Note_on_c, 3, 43, 113
3, 19008, Note_on_c, 3, 64, 121
3, 19008, Note_on_c, 3, 60, 121
3, 19025, Note_off_c, 3, 48, 64
3, 19043, Note_off_c, 3, 43, 64
3, 19046, Note_off_c, 3, 48, 64
3, 19048, Note_off_c, 3, 60, 64
3, 19051, Note_off_c, 3, 52, 64
3, 19051, Note_off_c, 3, 64, 64
3, 19052, Note_off_c, 3, 55, 64
3, 19104, Note_on_c, 3, 52, 113
3, 19104, Note_on_c, 3, 48, 117
3, 19104, Note_on_c, 3, 43, 112
3, 19104, Note_on_c, 3, 55, 117
3, 19104, Note_on_c, 3, 64, 121
3, 19104, Note_on_c, 3, 60, 121
3, 19126, Note_off_c, 3, 43, 64
3, 19140, Note_off_c, 3, 60, 64
3, 19144, Note_off_c, 3, 55, 64
3, 19147, Note_off_c, 3, 48, 64
3, 19148, Note_off_c, 3, 64, 64
3, 19150, Note_off_c, 3, 52, 64
3, 19200, Note_on_c, 3, 48, 118
3, 19200, Note_on_c, 3, 57, 119
3, 19200, Note_on_c, 3, 65, 123
3, 19200, Note_on_c, 3, 45, 120
3, 19200, Note_on_c, 3, 60, 123
3, 19200, Note_on_c, 3, 53, 114
3, 19417, Note_off_c, 3, 60, 64
3, 19422, Note_off_c, 3, 65, 64
3, 19438, Note_off_c, 3, 45, 64
3, 19441, Note_off_c, 3, 57, 64
3, 19443, Note_off_c, 3, 53, 64
3, 19448, Note_off_c, 3, 48, 64
3, 19488, Note_on_c, 3, 53, 118
3, 19488, Note_on_c, 3, 45, 120
3, 19488, Note_on_c, 3, 48, 119
3, 19488, Note_on_c, 3, 65, 122
3, 19488, Note_on_c, 3, 57, 121
3, 19488, Note_on_c, 3, 60, 122
3, 19734, Note_off_c, 3, 45, 64
3, 19740, Note_off_c, 3, 53, 64
3, 19740, Note_off_c, 3, 48, 64
3, 19776, Note_on_c, 3, 48, 120
3, 19776, Note_on_c, 3, 53, 116
3, 19776, Note_on_c, 3, 45, 122
3, 19806, Note_off_c, 3, 57, 64
3, 19872, Note_on_c, 3, 57, 118
3, 19881, Note_off_c, 3, 60, 64
3, 19886, Note_off_c, 3, 65, 64
3, 19910, Note_off_c, 3, 45, 64
3, 19913, Note_off_c, 3, 53, 64
3, 19920, Note_off_c, 3, 48, 64
3, 19968, Note_on_c, 3, 60, 123
3, 19968, Note_on_c, 3, 65, 122
3, 19968, Note_on_c, 3, 48, 119
3, 19968, Note_on_c, 3, 45, 120
3, 19968, Note_on_c, 3, 53, 117
3, 20209, Note_off_c, 3, 60, 64
3, 20220, Note_off_c, 3, 53, 64
3, 20222, Note_off_c, 3, 45, 64
3, 20227, Note_off_c, 3, 48, 64
3, 20230, Note_off_c, 3, 65, 64
3, 20233, Note_off_c, 3, 57, 64
3, 20256, Note_on_c, 3, 48, 120
3, 20256, Note_on_c, 3, 53, 117
3, 20256, Note_on_c, 3, 65, 121
3, 20256, Note_on_c, 3, 45, 122
3, 20256, Note_on_c, 3, 57, 121
3, 20256, Note_on_c, 3, 60, 122
3, 20507, Note_off_c, 3, 53, 64
3, 20508, Note_off_c, 3, 45, 64
3, 20515, Note_off_c, 3, 48, 64
3, 20544, Note_on_c, 3, 48, 121
3, 20544, Note_on_c, 3, 53, 119
3, 20544, Note_on_c, 3, 45, 123
3, 20555, Note_off_c, 3, 57, 64
3, 20628, Note_off_c, 3, 53, 64
3, 20640, Note_on_c, 3, 57, 118
3, 20643, Note_off_c, 3, 60, 64
3, 20643, Note_off_c, 3, 48, 64
3, 20646, Note_off_c, 3, 65, 64
3, 20648, Note_off_c, 3, 45, 64
3, 20676, Note_off_c, 3, 57, 64
3, 20736, Note_on_c, 3, 43, 120
3, 20736, Note_on_c, 3, 47, 120
3, 20736, Note_on_c, 3, 55, 122
3, 20736, Note_on_c, 3, 50, 118
3, 20736, Note_on_c, 3, 59, 118
3, 20736, Note_on_c, 3, 62, 120
3, 20977, Note_off_c, 3, 62, 64
3, 20984, Note_off_c, 3, 59, 64
3, 20988, Note_off_c, 3, 43, 64
3, 20992, Note_off_c, 3, 50, 64
3, 20995, Note_off_c, 3, 55, 64
3, 20996, Note_off_c, 3, 47, 64
3, 21024, Note_on_c, 3, 50, 117
3, 21024, Note_on_c, 3, 47, 121
3, 21024, Note_on_c, 3, 43, 122
3, 21024, Note_on_c, 3, 55, 121
3, 21024, Note_on_c, 3, 59, 122
3, 21024, Note_on_c, 3, 62, 122
3, 21265, Note_off_c, 3, 43, 64
3, 21270, Note_off_c, 3, 47, 64
3, 21275, Note_off_c, 3, 50, 64
3, 21312, Note_on_c, 3, 50, 118
3, 21312, Note_on_c, 3, 47, 120
3, 21312, Note_on_c, 3, 43, 122
3, 21326, Note_off_c, 3, 55, 64
3, 21408, Note_on_c, 3, 55, 120
3, 21424, Note_off_c, 3, 62, 64
3, 21433, Note_off_c, 3, 59, 64
3, 21454, Note_off_c, 3, 43, 64
3, 21460, Note_off_c, 3, 50, 64
3, 21464, Note_off_c, 3, 47, 64
3, 21504, Note_on_c, 3, 50, 119
3, 21504, Note_on_c, 3, 47, 120
3, 21504, Note_on_c, 3, 43, 121
3, 21504, Note_on_c, 3, 59, 122
3, 21504, Note_on_c, 3, 62, 123
3, 21868, Note_off_c, 3, 43, 64
3, 21880, Note_off_c, 3, 47, 64
3, 21891, Note_off_c, 3, 50, 64
3, 22008, Note_off_c, 3, 62, 64
3, 22033, Note_off_c, 3, 59, 64
3, 22060, Note_off_c, 3, 55, 64
3, 22272, Note_on_c, 3, 41, 118
3, 22272, Note_on_c, 3, 57, 120
3, 22272, Note_on_c, 3, 65, 120
3, 22272, Note_on_c, 3, 60, 123
3, 22272, Note_on_c, 3, 53, 121
3, 22313, Note_off_c, 3, 60, 64
3, 22318, Note_off_c, 3, 57, 64
3, 22334, Note_off_c, 3, 65, 64
3, 22368, Note_on_c, 3, 65, 119
3, 22368, Note_on_c, 3, 57, 120
3, 22368, Note_on_c, 3, 60, 123
3, 22409, Note_off_c, 3, 60, 64
3, 22411, Note_off_c, 3, 57, 64
3, 22414, Note_off_c, 3, 65, 64
3, 22464, Note_on_c, 3, 57, 119
3, 22464, Note_on_c, 3, 65, 120
3, 22464, Note_on_c, 3, 60, 122
3, 22504, Note_off_c, 3, 60, 64
3, 22508, Note_off_c, 3, 65, 64
3, 22512, Note_off_c, 3, 57, 64
3, 22560, Note_on_c, 3, 65, 118
3, 22560, Note_on_c, 3, 57, 119
3, 22560, Note_on_c, 3, 60, 122
3, 22560, Note_on_c, 3, 36, 120
3, 22560, Note_on_c, 3, 48, 120
3, 22563, Note_off_c, 3, 53, 64
3, 22569, Note_off_c, 3, 41, 64
3, 22598, Note_off_c, 3, 60, 64
3, 22606, Note_off_c, 3, 65, 64
3, 22608, Note_off_c, 3, 57, 64
3, 22656, Note_on_c, 3, 65, 119
3, 22656, Note_on_c, 3, 57, 117
3, 22656, Note_on_c, 3, 60, 122
3, 22697, Note_off_c, 3, 60, 64
3, 22704, Note_off_c, 3, 57, 64
3, 22705, Note_off_c, 3, 65, 64
3, 22752, Note_on_c, 3, 65, 117
3, 22752, Note_on_c, 3, 57, 118
3, 22752, Note_on_c, 3, 60, 121
3, 22788, Note_off_c, 3, 60, 64
3, 22798, Note_off_c, 3, 57, 64
3, 22798, Note_off_c, 3, 65, 64
3, 22848, Note_on_c, 3, 65, 118
3, 22848, Note_on_c, 3, 57, 116
3, 22848, Note_on_c, 3, 60, 122
3, 22891, Note_off_c, 3, 60, 64
3, 22892, Note_off_c, 3, 57, 64
3, 22902, Note_off_c, 3, 65, 64
3, 22921, Note_off_c, 3, 36, 64
3, 22940, Note_off_c, 3, 48, 64
3, 22944, Note_on_c, 3, 65, 117
3, 22944, Note_on_c, 3, 57, 117
3, 22944, Note_on_c, 3, 60, 121
3, 22982, Note_off_c, 3, 60, 64
3, 22988, Note_off_c, 3, 65, 64
3, 22992, Note_off_c, 3, 57, 64
3, 23040, Note_on_c, 3, 43, 117
3, 23040, Note_on_c, 3, 55, 122
3, 23040, Note_on_c, 3, 59, 119
3, 23040, Note_on_c, 3, 55, 120
3, 23084, Note_off_c, 3, 59, 64
3, 23088, Note_off_c, 3, 55, 64
3, 23088, Note_on_c, 3, 62, 105
3, 23123, Note_off_c, 3, 62, 64
3, 23136, Note_on_c, 3, 55, 118
3, 23136, Note_on_c, 3, 62, 121
3, 23136, Note_on_c, 3, 59, 120
3, 23180, Note_off_c, 3, 59, 64
3, 23182, Note_off_c, 3, 62, 64
3, 23187, Note_off_c, 3, 55, 64
3, 23232, Note_on_c, 3, 55, 118
3, 23232, Note_on_c, 3, 62, 121
3, 23232, Note_on_c, 3, 59, 120
3, 23273, Note_off_c, 3, 59, 64
3, 23275, Note_off_c, 3, 62, 64
3, 23280, Note_off_c, 3, 55, 64
3, 23328, Note_on_c, 3, 55, 119
3, 23328, Note_on_c, 3, 62, 121
3, 23328, Note_on_c, 3, 59, 121
3, 23328, Note_on_c, 3, 38, 120
3, 23328, Note_on_c, 3, 50, 120
3, 23344, Note_off_c, 3, 43, 64
3, 23353, Note_off_c, 3, 55, 64
3, 23372, Note_off_c, 3, 59, 64
3, 23376, Note_off_c, 3, 62, 64
3, 23377, Note_off_c, 3, 55, 64
3, 23424, Note_on_c, 3, 55, 118
3, 23424, Note_on_c, 3, 62, 121
3, 23424, Note_on_c, 3, 59, 120
3, 23468, Note_off_c, 3, 59, 64
3, 23475, Note_off_c, 3, 62, 64
3, 23476, Note_off_c, 3, 55, 64
3, 23520, Note_on_c, 3, 55, 119
3, 23520, Note_on_c, 3, 62, 121
3, 23520, Note_on_c, 3, 59, 120
3, 23563, Note_off_c, 3, 59, 64
3, 23571, Note_off_c, 3, 62, 64
3, 23571, Note_off_c, 3, 55, 64
3, 23616, Note_on_c, 3, 62, 120
3, 23616, Note_on_c, 3, 55, 117
3, 23616, Note_on_c, 3, 59, 119
3, 23662, Note_off_c, 3, 59, 64
3, 23665, Note_off_c, 3, 55, 64
3, 23670, Note_off_c, 3, 62, 64
3, 23680, Note_off_c, 3, 50, 64
3, 23705, Note_off_c, 3, 38, 64
3, 23712, Note_on_c, 3, 55, 119
3, 23712, Note_on_c, 3, 62, 122
3, 23712, Note_on_c, 3, 59, 120
3, 23740, Note_off_c, 3, 59, 64
3, 23750, Note_off_c, 3, 55, 64
3, 23752, Note_off_c, 3, 62, 64
3, 23808, Note_on_c, 3, 65, 122
3, 23808, Note_on_c, 3, 57, 117
3, 23808, Note_on_c, 3, 60, 118
3, 23808, Note_on_c, 3, 41, 117
3, 23808, Note_on_c, 3, 53, 122
3, 23862, Note_off_c, 3, 60, 64
3, 23865, Note_off_c, 3, 57, 64
3, 23868, Note_off_c, 3, 65, 64
3, 23904, Note_on_c, 3, 57, 118
3, 23904, Note_on_c, 3, 65, 115
3, 23904, Note_on_c, 3, 60, 121
3, 23950, Note_off_c, 3, 60, 64
3, 23950, Note_off_c, 3, 65, 64
3, 23958, Note_off_c, 3, 57, 64
3, 24000, Note_on_c, 3, 65, 116
3, 24000, Note_on_c, 3, 60, 121
3, 24000, Note_on_c, 3, 57, 116
3, 24044, Note_off_c, 3, 57, 64
3, 24044, Note_off_c, 3, 60, 64
3, 24052, Note_off_c, 3, 65, 64
3, 24096, Note_on_c, 3, 65, 116
3, 24096, Note_on_c, 3, 60, 121
3, 24096, Note_on_c, 3, 57, 119
3, 24096, Note_on_c, 3, 36, 119
3, 24096, Note_on_c, 3, 48, 121
3, 24099, Note_off_c, 3, 41, 64
3, 24116, Note_off_c, 3, 53, 64
3, 24139, Note_off_c, 3, 60, 64
3, 24144, Note_off_c, 3, 57, 64
3, 24147, Note_off_c, 3, 65, 64
3, 24192, Note_on_c, 3, 65, 116
3, 24192, Note_on_c, 3, 60, 121
3, 24192, Note_on_c, 3, 57, 117
3, 24235, Note_off_c, 3, 60, 64
3, 24236, Note_off_c, 3, 57, 64
3, 24243, Note_off_c, 3, 65, 64
3, 24288, Note_on_c, 3, 65, 119
3, 24288, Note_on_c, 3, 57, 116
3, 24288, Note_on_c, 3, 60, 120
3, 24324, Note_off_c, 3, 60, 64
3, 24331, Note_off_c, 3, 57, 64
3, 24340, Note_off_c, 3, 65, 64
3, 24384, Note_on_c, 3, 65, 118
3, 24384, Note_on_c, 3, 60, 120
3, 24384, Note_on_c, 3, 57, 115
3, 24428, Note_off_c, 3, 60, 64
3, 24435, Note_off_c, 3, 57, 64
3, 24438, Note_off_c, 3, 65, 64
3, 24443, Note_off_c, 3, 36, 64
3, 24457, Note_off_c, 3, 48, 64
3, 24480, Note_on_c, 3, 65, 117
3, 24480, Note_on_c, 3, 60, 122
3, 24480, Note_on_c, 3, 57, 116
3, 24518, Note_off_c, 3, 60, 64
3, 24523, Note_off_c, 3, 65, 64
3, 24523, Note_off_c, 3, 57, 64
3, 24576, Note_on_c, 3, 43, 120
3, 24576, Note_on_c, 3, 55, 121
3, 24576, Note_on_c, 3, 59, 117
3, 24576, Note_on_c, 3, 55, 117
3, 24576, Note_on_c, 3, 62, 116
3, 24614, Note_off_c, 3, 62, 64
3, 24625, Note_off_c, 3, 59, 64
3, 24625, Note_off_c, 3, 55, 64
3, 24672, Note_on_c, 3, 59, 120
3, 24672, Note_on_c, 3, 55, 117
3, 24672, Note_on_c, 3, 62, 120
3, 24716, Note_off_c, 3, 62, 64
3, 24718, Note_off_c, 3, 55, 64
3, 24720, Note_off_c, 3, 59, 64
3, 24768, Note_on_c, 3, 59, 120
3, 24768, Note_on_c, 3, 55, 117
3, 24768, Note_on_c, 3, 62, 120
3, 24811, Note_off_c, 3, 62, 64
3, 24817, Note_off_c, 3, 59, 64
3, 24819, Note_off_c, 3, 55, 64
3, 24864, Note_on_c, 3, 38, 119
3, 24864, Note_on_c, 3, 59, 120
3, 24864, Note_on_c, 3, 55, 117
3, 24864, Note_on_c, 3, 62, 120
3, 24864, Note_on_c, 3, 50, 120
3, 24872, Note_off_c, 3, 43, 64
3, 24880, Note_off_c, 3, 55, 64
3, 24907, Note_off_c, 3, 62, 64
3, 24910, Note_off_c, 3, 59, 64
3, 24913, Note_off_c, 3, 55, 64
3, 24960, Note_on_c, 3, 59, 120
3, 24960, Note_on_c, 3, 62, 120
3, 24960, Note_on_c, 3, 55, 116
3, 25004, Note_off_c, 3, 62, 64
3, 25006, Note_off_c, 3, 59, 64
3, 25009, Note_off_c, 3, 55, 64
3, 25056, Note_on_c, 3, 55, 118
3, 25056, Note_on_c, 3, 59, 120
3, 25056, Note_on_c, 3, 62, 120
3, 25097, Note_off_c, 3, 62, 64
3, 25099, Note_off_c, 3, 59, 64
3, 25104, Note_off_c, 3, 55, 64
3, 25152, Note_on_c, 3, 59, 120
3, 25152, Note_on_c, 3, 62, 121
3, 25152, Note_on_c, 3, 55, 117
3, 25200, Note_off_c, 3, 62, 64
3, 25201, Note_off_c, 3, 59, 64
3, 25203, Note_off_c, 3, 55, 64
3, 25206, Note_off_c, 3, 50, 64
3, 25228, Note_off_c, 3, 38, 64
3, 25248, Note_on_c, 3, 55, 119
3, 25248, Note_on_c, 3, 62, 120
3, 25248, Note_on_c, 3, 59, 119
3, 25284, Note_off_c, 3, 59, 64
3, 25288, Note_off_c, 3, 62, 64
3, 25291, Note_off_c, 3, 55, 64
3, 25344, Note_on_c, 3, 41, 117
3, 25344, Note_on_c, 3, 65, 122
3, 25344, Note_on_c, 3, 57, 118
3, 25344, Note_on_c, 3, 60, 118
3, 25344, Note_on_c, 3, 53, 123
3, 25390, Note_off_c, 3, 60, 64
3, 25396, Note_off_c, 3, 57, 64
3, 25398, Note_off_c, 3, 65, 64
3, 25440, Note_on_c, 3, 57, 118
3, 25440, Note_on_c, 3, 65, 113
3, 25440, Note_on_c, 3, 60, 121
3, 25481, Note_off_c, 3, 60, 64
3, 25481, Note_off_c, 3, 65, 64
3, 25491, Note_off_c, 3, 57, 64
3, 25536, Note_on_c, 3, 65, 115
3, 25536, Note_on_c, 3, 57, 115
3, 25536, Note_on_c, 3, 60, 121
3, 25576, Note_off_c, 3, 60, 64
3, 25579, Note_off_c, 3, 57, 64
3, 25582, Note_off_c, 3, 65, 64
3, 25628, Note_off_c, 3, 41, 64
3, 25632, Note_on_c, 3, 36, 120
3, 25632, Note_on_c, 3, 65, 113
3, 25632, Note_on_c, 3, 57, 117
3, 25632, Note_on_c, 3, 60, 121
3, 25632, Note_on_c, 3, 48, 119
3, 25635, Note_off_c, 3, 53, 64
3, 25670, Note_off_c, 3, 60, 64
3, 25680, Note_off_c, 3, 65, 64
3, 25680, Note_off_c, 3, 57, 64
3, 25728, Note_on_c, 3, 65, 115
3, 25728, Note_on_c, 3, 60, 121
3, 25728, Note_on_c, 3, 57, 116
3, 25768, Note_off_c, 3, 60, 64
3, 25769, Note_off_c, 3, 57, 64
3, 25779, Note_off_c, 3, 65, 64
3, 25824, Note_on_c, 3, 65, 115
3, 25824, Note_on_c, 3, 60, 120
3, 25824, Note_on_c, 3, 57, 117
3, 25864, Note_off_c, 3, 60, 64
3, 25868, Note_off_c, 3, 57, 64
3, 25875, Note_off_c, 3, 65, 64
3, 25920, Note_on_c, 3, 65, 111
3, 25920, Note_on_c, 3, 57, 115
3, 25920, Note_on_c, 3, 60, 118
3, 25950, Note_off_c, 3, 36, 64
3, 25960, Note_off_c, 3, 48, 64
3, 25961, Note_off_c, 3, 60, 64
3, 25971, Note_off_c, 3, 57, 64
3, 25974, Note_off_c, 3, 65, 64
3, 26016, Note_on_c, 3, 65, 117
3, 26016, Note_on_c, 3, 60, 121
3, 26016, Note_on_c, 3, 57, 115
3, 26054, Note_off_c, 3, 60, 64
3, 26057, Note_off_c, 3, 65, 64
3, 26059, Note_off_c, 3, 57, 64
3, 26112, Note_on_c, 3, 43, 119
3, 26112, Note_on_c, 3, 55, 118
3, 26112, Note_on_c, 3, 59, 117
3, 26112, Note_on_c, 3, 62, 116
3, 26112, Note_on_c, 3, 55, 122
3, 26147, Note_off_c, 3, 62, 64
3, 26158, Note_off_c, 3, 59, 64
3, 26163, Note_off_c, 3, 55, 64
3, 26208, Note_on_c, 3, 59, 121
3, 26208, Note_on_c, 3, 55, 117
3, 26208, Note_on_c, 3, 62, 121
3, 26252, Note_off_c, 3, 62, 64
3, 26252, Note_off_c, 3, 59, 64
3, 26257, Note_off_c, 3, 55, 64
3, 26304, Note_on_c, 3, 55, 117
3, 26304, Note_on_c, 3, 59, 120
3, 26304, Note_on_c, 3, 62, 120
3, 26345, Note_off_c, 3, 62, 64
3, 26347, Note_off_c, 3, 59, 64
3, 26356, Note_off_c, 3, 55, 64
3, 26396, Note_off_c, 3, 43, 64
3, 26400, Note_on_c, 3, 59, 119
3, 26400, Note_on_c, 3, 55, 117
3, 26400, Note_on_c, 3, 62, 120
3, 26400, Note_on_c, 3, 38, 117
3, 26400, Note_on_c, 3, 50, 120
3, 26414, Note_off_c, 3, 55, 64
3, 26438, Note_off_c, 3, 62, 64
3, 26440, Note_off_c, 3, 59, 64
3, 26443, Note_off_c, 3, 55, 64
3, 26496, Note_on_c, 3, 55, 117
3, 26496, Note_on_c, 3, 59, 119
3, 26496, Note_on_c, 3, 62, 120
3, 26537, Note_off_c, 3, 62, 64
3, 26539, Note_off_c, 3, 59, 64
3, 26545, Note_off_c, 3, 55, 64
3, 26592, Note_on_c, 3, 62, 119
3, 26592, Note_on_c, 3, 59, 119
3, 26592, Note_on_c, 3, 55, 114
3, 26633, Note_off_c, 3, 59, 64
3, 26636, Note_off_c, 3, 62, 64
3, 26636, Note_off_c, 3, 55, 64
3, 26688, Note_on_c, 3, 62, 120
3, 26688, Note_on_c, 3, 59, 119
3, 26688, Note_on_c, 3, 55, 115
3, 26718, Note_off_c, 3, 50, 64
3, 26731, Note_off_c, 3, 59, 64
3, 26732, Note_off_c, 3, 38, 64
3, 26736, Note_off_c, 3, 62, 64
3, 26736, Note_off_c, 3, 55, 64
3, 26784, Note_on_c, 3, 62, 120
3, 26784, Note_on_c, 3, 55, 117
3, 26784, Note_on_c, 3, 59, 120
3, 26820, Note_off_c, 3, 59, 64
3, 26825, Note_off_c, 3, 55, 64
3, 26828, Note_off_c, 3, 62, 64
3, 26880, Note_on_c, 3, 41, 115
3, 26880, Note_on_c, 3, 53, 122
3, 26880, Note_on_c, 3, 65, 121
3, 26880, Note_on_c, 3, 57, 117
3, 26880, Note_on_c, 3, 60, 119
3, 26926, Note_off_c, 3, 60, 64
3, 26931, Note_off_c, 3, 57, 64
3, 26931, Note_off_c, 3, 65, 64
3, 26976, Note_on_c, 3, 65, 116
3, 26976, Note_on_c, 3, 57, 118
3, 26976, Note_on_c, 3, 60, 121
3, 27017, Note_off_c, 3, 60, 64
3, 27027, Note_off_c, 3, 65, 64
3, 27028, Note_off_c, 3, 57, 64
3, 27072, Note_on_c, 3, 65, 114
3, 27072, Note_on_c, 3, 57, 112
3, 27072, Note_on_c, 3, 60, 121
3, 27115, Note_off_c, 3, 60, 64
3, 27124, Note_off_c, 3, 57, 64
3, 27126, Note_off_c, 3, 65, 64
3, 27168, Note_on_c, 3, 65, 111
3, 27168, Note_on_c, 3, 57, 115
3, 27168, Note_on_c, 3, 60, 121
3, 27168, Note_on_c, 3, 36, 118
3, 27168, Note_on_c, 3, 48, 119
3, 27182, Note_off_c, 3, 53, 64
3, 27182, Note_off_c, 3, 41, 64
3, 27212, Note_off_c, 3, 60, 64
3, 27217, Note_off_c, 3, 65, 64
3, 27222, Note_off_c, 3, 57, 64
3, 27264, Note_on_c, 3, 65, 115
3, 27264, Note_on_c, 3, 57, 113
3, 27264, Note_on_c, 3, 60, 120
3, 27305, Note_off_c, 3, 60, 64
3, 27312, Note_off_c, 3, 57, 64
3, 27313, Note_off_c, 3, 65, 64
3, 27360, Note_on_c, 3, 60, 120
3, 27360, Note_on_c, 3, 57, 117
3, 27360, Note_on_c, 3, 65, 114
3, 27403, Note_off_c, 3, 65, 64
3, 27403, Note_off_c, 3, 60, 64
3, 27409, Note_off_c, 3, 57, 64
3, 27456, Note_on_c, 3, 65, 112
3, 27456, Note_on_c, 3, 57, 114
3, 27456, Note_on_c, 3, 60, 121
3, 27491, Note_off_c, 3, 36, 64
3, 27497, Note_off_c, 3, 60, 64
3, 27505, Note_off_c, 3, 57, 64
3, 27508, Note_off_c, 3, 48, 64
3, 27508, Note_off_c, 3, 65, 64
3, 27552, Note_on_c, 3, 65, 113
3, 27552, Note_on_c, 3, 60, 121
3, 27552, Note_on_c, 3, 57, 114
3, 27588, Note_off_c, 3, 60, 64
3, 27595, Note_off_c, 3, 65, 64
3, 27596, Note_off_c, 3, 57, 64
3, 27648, Note_on_c, 3, 55, 118
3, 27648, Note_on_c, 3, 59, 119
3, 27648, Note_on_c, 3, 62, 117
3, 27648, Note_on_c, 3, 55, 123
3, 27648, Note_on_c, 3, 43, 120
3, 27694, Note_off_c, 3, 62, 64
3, 27696, Note_off_c, 3, 59, 64
3, 27700, Note_off_c, 3, 55, 64
3, 27744, Note_on_c, 3, 59, 120
3, 27744, Note_on_c, 3, 62, 120
3, 27744, Note_on_c, 3, 55, 115
3, 27784, Note_off_c, 3, 62, 64
3, 27787, Note_off_c, 3, 59, 64
3, 27790, Note_off_c, 3, 55, 64
3, 27840, Note_on_c, 3, 55, 113
3, 27840, Note_on_c, 3, 59, 117
3, 27840, Note_on_c, 3, 62, 118
3, 27878, Note_off_c, 3, 62, 64
3, 27883, Note_off_c, 3, 59, 64
3, 27889, Note_off_c, 3, 55, 64
3, 27921, Note_off_c, 3, 43, 64
3, 27934, Note_off_c, 3, 55, 64
3, 27936, Note_on_c, 3, 38, 120
3, 27936, Note_on_c, 3, 55, 115
3, 27936, Note_on_c, 3, 59, 119
3, 27936, Note_on_c, 3, 62, 119
3, 27936, Note_on_c, 3, 50, 120
3, 27976, Note_off_c, 3, 62, 64
3, 27979, Note_off_c, 3, 59, 64
3, 27985, Note_off_c, 3, 55, 64
3, 28032, Note_on_c, 3, 55, 118
3, 28032, Note_on_c, 3, 59, 120
3, 28032, Note_on_c, 3, 62, 120
3, 28073, Note_off_c, 3, 62, 64
3, 28073, Note_off_c, 3, 59, 64
3, 28076, Note_off_c, 3, 55, 64
3, 28128, Note_on_c, 3, 62, 120
3, 28128, Note_on_c, 3, 55, 117
3, 28128, Note_on_c, 3, 59, 119
3, 28171, Note_off_c, 3, 59, 64
3, 28171, Note_off_c, 3, 62, 64
3, 28176, Note_off_c, 3, 55, 64
3, 28224, Note_on_c, 3, 55, 115
3, 28224, Note_on_c, 3, 62, 120
3, 28224, Note_on_c, 3, 59, 120
3, 28244, Note_off_c, 3, 50, 64
3, 28262, Note_off_c, 3, 38, 64
3, 28268, Note_off_c, 3, 59, 64
3, 28270, Note_off_c, 3, 62, 64
3, 28275, Note_off_c, 3, 55, 64
3, 28320, Note_on_c, 3, 55, 119
3, 28320, Note_on_c, 3, 62, 121
3, 28320, Note_on_c, 3, 59, 121
3, 28376, Note_off_c, 3, 59, 64
3, 28382, Note_off_c, 3, 55, 64
3, 28385, Note_off_c, 3, 62, 64
3, 28416, Note_on_c, 3, 48, 124
3, 28512, Note_on_c, 3, 53, 123
3, 28528, Note_off_c, 3, 48, 64
3, 28608, Note_on_c, 3, 55, 127
3, 28624, Note_off_c, 3, 53, 64
3, 29470, Note_off_c, 3, 55, 64
3, 29472, Note_on_c, 3, 48, 120
3, 29656, Note_off_c, 3, 48, 64
3, 29664, Note_on_c, 3, 53, 120
3, 29760, Note_on_c, 3, 55, 125
3, 29769, Note_off_c, 3, 53, 64
3, 29891, Note_off_c, 3, 55, 64
3, 29952, Note_on_c, 3, 43, 124
3, 30048, Note_on_c, 3, 48, 119
3, 30056, Note_off_c, 3, 43, 64
3, 30144, Note_on_c, 3, 50, 123
3, 30160, Note_off_c, 3, 48, 64
3, 31008, Note_on_c, 3, 43, 122
3, 31017, Note_off_c, 3, 50, 64
3, 31200, Note_on_c, 3, 48, 120
3, 31204, Note_off_c, 3, 43, 64
3, 31296, Note_on_c, 3, 50, 124
3, 31313, Note_off_c, 3, 48, 64
3, 31443, Note_off_c, 3, 50, 64
3, 31488, Note_on_c, 3, 48, 121
3, 31584, Note_on_c, 3, 53, 122
3, 31608, Note_off_c, 3, 48, 64
3, 31680, Note_on_c, 3, 55, 125
3, 31699, Note_off_c, 3, 53, 64
3, 32544, Note_off_c, 3, 55, 64
3, 32544, Note_on_c, 3, 48, 121
3, 32728, Note_off_c, 3, 48, 64
3, 32736, Note_on_c, 3, 53, 121
3, 32832, Note_on_c, 3, 55, 123
3, 32857, Note_off_c, 3, 53, 64
3, 32937, Note_off_c, 3, 55, 64
3, 33024, Note_on_c, 3, 43, 124
3, 33120, Note_on_c, 3, 48, 120
3, 33123, Note_off_c, 3, 43, 64
3, 33216, Note_on_c, 3, 50, 125
3, 33238, Note_off_c, 3, 48, 64
3, 34080, Note_on_c, 3, 43, 121
3, 34107, Note_off_c, 3, 50, 64
3, 34268, Note_off_c, 3, 43, 64
3, 34272, Note_on_c, 3, 48, 118
3, 34368, Note_on_c, 3, 50, 126
3, 34385, Note_off_c, 3, 48, 64
3, 34534, Note_off_c, 3, 50, 64
3, 34560, Note_on_c, 3, 48, 124
3, 34656, Note_on_c, 3, 53, 123
3, 34672, Note_off_c, 3, 48, 64
3, 34752, Note_on_c, 3, 55, 127
3, 34768, Note_off_c, 3, 53, 64
3, 35614, Note_off_c, 3, 55, 64
3, 35616, Note_on_c, 3, 48, 120
3, 35800, Note_off_c, 3, 48, 64
3, 35808, Note_on_c, 3, 53, 120
3, 35904, Note_on_c, 3, 55, 125
3, 35913, Note_off_c, 3, 53, 64
3, 36035, Note_off_c, 3, 55, 64
3, 36096, Note_on_c, 3, 43, 124
3, 36192, Note_on_c, 3, 48, 119
3, 36200, Note_off_c, 3, 43, 64
3, 36288, Note_on_c, 3, 50, 123
3, 36304, Note_off_c, 3, 48, 64
3, 37152, Note_on_c, 3, 43, 122
3, 37161, Note_off_c, 3, 50, 64
3, 37344, Note_on_c, 3, 48, 120
3, 37348, Note_off_c, 3, 43, 64
3, 37440, Note_on_c, 3, 50, 124
3, 37457, Note_off_c, 3, 48, 64
3, 37587, Note_off_c, 3, 50, 64
3, 37632, Note_on_c, 3, 48, 121
3, 37728, Note_on_c, 3, 53, 122
3, 37752, Note_off_c, 3, 48, 64
3, 37824, Note_on_c, 3, 55, 125
3, 37843, Note_off_c, 3, 53, 64
3, 38688, Note_off_c, 3, 55, 64
3, 38688, Note_on_c, 3, 48, 121
3, 38872, Note_off_c, 3, 48, 64
3, 38880, Note_on_c, 3, 53, 121
3, 38976, Note_on_c, 3, 55, 123
3, 39001, Note_off_c, 3, 53, 64
3, 39081, Note_off_c, 3, 55, 64
3, 39168, Note_on_c, 3, 43, 124
3, 39264, Note_on_c, 3, 48, 120
3, 39267, Note_off_c, 3, 43, 64
3, 39360, Note_on_c, 3, 50, 125
3, 39382, Note_off_c, 3, 48, 64
3, 40251, Note_off_c, 3, 50, 64
3, 40320, Note_on_c, 3, 52, 118
3, 40320, Note_on_c, 3, 55, 116
3, 40320, Note_on_c, 3, 48, 120
3, 40320, Note_on_c, 3, 43, 120
3, 40320, Note_on_c, 3, 64, 121
3, 40360, Note_off_c, 3, 64, 64
3, 40361, Note_off_c, 3, 43, 64
3, 40361, Note_off_c, 3, 48, 64
3, 40361, Note_off_c, 3, 55, 64
3, 40368, Note_off_c, 3, 52, 64
3, 40416, Note_on_c, 3, 64, 120
3, 40416, Note_on_c, 3, 60, 120
3, 40416, Note_on_c, 3, 48, 115
3, 40416, Note_on_c, 3, 55, 114
3, 40416, Note_on_c, 3, 52, 111
3, 40416, Note_on_c, 3, 43, 111
3, 40416, Note_on_c, 3, 48, 118
3, 40451, Note_off_c, 3, 43, 64
3, 40457, Note_off_c, 3, 52, 64
3, 40457, Note_off_c, 3, 48, 64
3, 40457, Note_off_c, 3, 60, 64
3, 40460, Note_off_c, 3, 55, 64
3, 40462, Note_off_c, 3, 64, 64
3, 40512, Note_on_c, 3, 52, 111
3, 40512, Note_on_c, 3, 48, 114
3, 40512, Note_on_c, 3, 55, 116
3, 40512, Note_on_c, 3, 43, 113
3, 40512, Note_on_c, 3, 64, 121
3, 40512, Note_on_c, 3, 60, 121
3, 40529, Note_off_c, 3, 48, 64
3, 40547, Note_off_c, 3, 43, 64
3, 40550, Note_off_c, 3, 48, 64
3, 40552, Note_off_c, 3, 60, 64
3, 40555, Note_off_c, 3, 52, 64
3, 40555, Note_off_c, 3, 64, 64
3, 40556, Note_off_c, 3, 55, 64
3, 40608, Note_on_c, 3, 52, 113
3, 40608, Note_on_c, 3, 48, 117
3, 40608, Note_on_c, 3, 43, 112
3, 40608, Note_on_c, 3, 55, 117
3, 40608, Note_on_c, 3, 64, 121
3, 40608, Note_on_c, 3, 60, 121
3, 40630, Note_off_c, 3, 43, 64
3, 40644, Note_off_c, 3, 60, 64
3, 40648, Note_off_c, 3, 55, 64
3, 40651, Note_off_c, 3, 48, 64
3, 40652, Note_off_c, 3, 64, 64
3, 40654, Note_off_c, 3, 52, 64
3, 40704, Note_on_c, 3, 48, 118
3, 40704, Note_on_c, 3, 57, 119
3, 40704, Note_on_c, 3, 65, 123
3, 40704, Note_on_c, 3, 45, 120
3, 40704, Note_on_c, 3, 60, 123
3, 40704, Note_on_c, 3, 53, 114
3, 40921, Note_off_c, 3, 60, 64
3, 40926, Note_off_c, 3, 65, 64
3, 40942, Note_off_c, 3, 45, 64
3, 40945, Note_off_c, 3, 57, 64
3, 40947, Note_off_c, 3, 53, 64
3, 40952, Note_off_c, 3, 48, 64
3, 40992, Note_on_c, 3, 53, 118
3, 40992, Note_on_c, 3, 45, 120
3, 40992, Note_on_c, 3, 48, 119
3, 40992, Note_on_c, 3, 65, 122
3, 40992, Note_on_c, 3, 57, 121
3, 40992, Note_on_c, 3, 60, 122
3, 41238, Note_off_c, 3, 45, 64
3, 41244, Note_off_c, 3, 53, 64
3, 41244, Note_off_c, 3, 48, 64
3, 41280, Note_on_c, 3, 48, 120
3, 41280, Note_on_c, 3, 53, 116
3, 41280, Note_on_c, 3, 45, 122
3, 41310, Note_off_c, 3, 57, 64
3, 41376, Note_on_c, 3, 57, 118
3, 41385, Note_off_c, 3, 60, 64
3, 41390, Note_off_c, 3, 65, 64
3, 41414, Note_off_c, 3, 45, 64
3, 41417, Note_off_c, 3, 53, 64
3, 41424, Note_off_c, 3, 48, 64
3, 41472, Note_on_c, 3, 60, 123
3, 41472, Note_on_c, 3, 65, 122
3, 41472, Note_on_c, 3, 48, 119
3, 41472, Note_on_c, 3, 45, 120
3, 41472, Note_on_c, 3, 53, 117
3, 41713, Note_off_c, 3, 60, 64
3, 41724, Note_off_c, 3, 53, 64
3, 41726, Note_off_c, 3, 45, 64
3, 41731, Note_off_c, 3, 48, 64
3, 41734, Note_off_c, 3, 65, 64
3, 41737, Note_off_c, 3, 57, 64
3, 41760, Note_on_c, 3, 48, 120
3, 41760, Note_on_c, 3, 53, 117
3, 41760, Note_on_c, 3, 65, 121
3, 41760, Note_on_c, 3, 45, 122
3, 41760, Note_on_c, 3, 57, 121
3, 41760, Note_on_c, 3, 60, 122
3, 42011, Note_off_c, 3, 53, 64
3, 42012, Note_off_c, 3, 45, 64
3, 42019, Note_off_c, 3, 48, 64
3, 42048, Note_on_c, 3, 48, 121
3, 42048, Note_on_c, 3, 53, 119
3, 42048, Note_on_c, 3, 45, 123
3, 42059, Note_off_c, 3, 57, 64
3, 42132, Note_off_c, 3, 53, 64
3, 42144, Note_on_c, 3, 57, 118
3, 42147, Note_off_c, 3, 60, 64
3, 42147, Note_off_c, 3, 48, 64
3, 42150, Note_off_c, 3, 65, 64
3, 42152, Note_off_c, 3, 45, 64
3, 42180, Note_off_c, 3, 57, 64
3, 42240, Note_on_c, 3, 43, 120
3, 42240, Note_on_c, 3, 47, 120
3, 42240, Note_on_c, 3, 55, 122
3, 42240, Note_on_c, 3, 50, 118
3, 42240, Note_on_c, 3, 59, 118
3, 42240, Note_on_c, 3, 62, 120
3, 42481, Note_off_c, 3, 62, 64
3, 42488, Note_off_c, 3, 59, 64
3, 42492, Note_off_c, 3, 43, 64
3, 42496, Note_off_c, 3, 50, 64
3, 42499, Note_off_c, 3, 55, 64
3, 42500, Note_off_c, 3, 47, 64
3, 42528, Note_on_c, 3, 50, 117
3, 42528, Note_on_c, 3, 47, 121
3, 42528, Note_on_c, 3, 43, 122
3, 42528, Note_on_c, 3, 55, 121
3, 42528, Note_on_c, 3, 59, 122
3, 42528, Note_on_c, 3, 62, 122
3, 42769, Note_off_c, 3, 43, 64
3, 42774, Note_off_c, 3, 47, 64
3, 42779, Note_off_c, 3, 50, 64
3, 42816, Note_on_c, 3, 50, 118
3, 42816, Note_on_c, 3, 47, 120
3, 42816, Note_on_c, 3, 43, 122
3, 42830, Note_off_c, 3, 55, 64
3, 42912, Note_on_c, 3, 55, 120
3, 42928, Note_off_c, 3, 62, 64
3, 42937, Note_off_c, 3, 59, 64
3, 42958, Note_off_c, 3, 43, 64
3, 42964, Note_off_c, 3, 50, 64
3, 42968, Note_off_c, 3, 47, 64
3, 43008, Note_on_c, 3, 50, 119
3, 43008, Note_on_c, 3, 47, 120
3, 43008, Note_on_c, 3, 43, 121
3, 43008, Note_on_c, 3, 59, 122
3, 43008, Note_on_c, 3, 62, 123
3, 43372, Note_off_c, 3, 43, 64
3, 43384, Note_off_c, 3, 47, 64
3, 43395, Note_off_c, 3, 50, 64
3, 43512, Note_off_c, 3, 62, 64
3, 43537, Note_off_c, 3, 59, 64
3, 43564, Note_off_c, 3, 55, 64
3, 43776, Note_on_c, 3, 41, 118
3, 43776, Note_on_c, 3, 57, 120
3, 43776, Note_on_c, 3, 65, 120
3, 43776, Note_on_c, 3, 60, 123
3, 43776, Note_on_c, 3, 53, 121
3, 43817, Note_off_c, 3, 60, 64
3, 43822, Note_off_c, 3, 57, 64
3, 43838, Note_off_c, 3, 65, 64
3, 43872, Note_on_c, 3, 65, 119
3, 43872, Note_on_c, 3, 57, 120
3, 43872, Note_on_c, 3, 60, 123
3, 43913, Note_off_c, 3, 60, 64
3, 43915, Note_off_c, 3, 57, 64
3, 43918, Note_off_c, 3, 65, 64
3, 43968, Note_on_c, 3, 57, 119
3, 43968, Note_on_c, 3, 65, 120
3, 43968, Note_on_c, 3, 60, 122
3, 44008, Note_off_c, 3, 60, 64
3, 44012, Note_off_c, 3, 65, 64
3, 44016, Note_off_c, 3, 57, 64
3, 44064, Note_on_c, 3, 65, 118
3, 44064, Note_on_c, 3, 57, 119
3, 44064, Note_on_c, 3, 60, 122
3, 44064, Note_on_c, 3, 36, 120
3, 44064, Note_on_c, 3, 48, 120
3, 44067, Note_off_c, 3, 53, 64
3, 44073, Note_off_c, 3, 41, 64
3, 44102, Note_off_c, 3, 60, 64
3, 44110, Note_off_c, 3, 65, 64
3, 44112, Note_off_c, 3, 57, 64
3, 44160, Note_on_c, 3, 65, 119
3, 44160, Note_on_c, 3, 57, 117
3, 44160, Note_on_c, 3, 60, 122
3, 44201, Note_off_c, 3, 60, 64
3, 44208, Note_off_c, 3, 57, 64
3, 44209, Note_off_c, 3, 65, 64
3, 44256, Note_on_c, 3, 65, 117
3, 44256, Note_on_c, 3, 57, 118
3, 44256, Note_on_c, 3, 60, 121
3, 44292, Note_off_c, 3, 60, 64
3, 44302, Note_off_c, 3, 57, 64
3, 44302, Note_off_c, 3, 65, 64
3, 44352, Note_on_c, 3, 65, 118
3, 44352, Note_on_c, 3, 57, 116
3, 44352, Note_on_c, 3, 60, 122
3, 44395, Note_off_c, 3, 60, 64
3, 44396, Note_off_c, 3, 57, 64
3, 44406, Note_off_c, 3, 65, 64
3, 44425, Note_off_c, 3, 36, 64
3, 44444, Note_off_c, 3, 48, 64
3, 44448, Note_on_c, 3, 65, 117
3, 44448, Note_on_c, 3, 57, 117
3, 44448, Note_on_c, 3, 60, 121
3, 44486, Note_off_c, 3, 60, 64
3, 44492, Note_off_c, 3, 65, 64
3, 44496, Note_off_c, 3, 57, 64
3, 44544, Note_on_c, 3, 43, 117
3, 44544, Note_on_c, 3, 55, 122
3, 44544, Note_on_c, 3, 59, 119
3, 44544, Note_on_c, 3, 55, 120
3, 44588, Note_off_c, 3, 59, 64
3, 44592, Note_off_c, 3, 55, 64
3, 44592, Note_on_c, 3, 62, 105
3, 44627, Note_off_c, 3, 62, 64
3, 44640, Note_on_c, 3, 55, 118
3, 44640, Note_on_c, 3, 62, 121
3, 44640, Note_on_c, 3, 59, 120
3, 44684, Note_off_c, 3, 59, 64
3, 44686, Note_off_c, 3, 62, 64
3, 44691, Note_off_c, 3, 55, 64
3, 44736, Note_on_c, 3, 55, 118
3, 44736, Note_on_c, 3, 62, 121
3, 44736, Note_on_c, 3, 59, 120
3, 44777, Note_off_c, 3, 59, 64
3, 44779, Note_off_c, 3, 62, 64
3, 44784, Note_off_c, 3, 55, 64
3, 44832, Note_on_c, 3, 55, 119
3, 44832, Note_on_c, 3, 62, 121
3, 44832, Note_on_c, 3, 59, 121
3, 44832, Note_on_c, 3, 38, 120
3, 44832, Note_on_c, 3, 50, 120
3, 44848, Note_off_c, 3, 43, 64
3, 44857, Note_off_c, 3, 55, 64
3, 44876, Note_off_c, 3, 59, 64
3, 44880, Note_off_c, 3, 62, 64
3, 44881, Note_off_c, 3, 55, 64
3, 44928, Note_on_c, 3, 55, 118
3, 44928, Note_on_c, 3, 62, 121
3, 44928, Note_on_c, 3, 59, 120
3, 44972, Note_off_c, 3, 59, 64
3, 44979, Note_off_c, 3, 62, 64
3, 44980, Note_off_c, 3, 55, 64
3, 45024, Note_on_c, 3, 55, 119
3, 45024, Note_on_c, 3, 62, 121
3, 45024, Note_on_c, 3, 59, 120
3, 45067, Note_off_c, 3, 59, 64
3, 45075, Note_off_c, 3, 62, 64
3, 45075, Note_off_c, 3, 55, 64
3, 45120, Note_on_c, 3, 62, 120
3, 45120, Note_on_c, 3, 55, 117
3, 45120, Note_on_c, 3, 59, 119
3, 45166, Note_off_c, 3, 59, 64
3, 45169, Note_off_c, 3, 55, 64
3, 45174, Note_off_c, 3, 62, 64
3, 45184, Note_off_c, 3, 50, 64
3, 45209, Note_off_c, 3, 38, 64
3, 45216, Note_on_c, 3, 55, 119
3, 45216, Note_on_c, 3, 62, 122
3, 45216, Note_on_c, 3, 59, 120
3, 45244, Note_off_c, 3, 59, 64
3, 45254, Note_off_c, 3, 55, 64
3, 45256, Note_off_c, 3, 62, 64
3, 45312, Note_on_c, 3, 65, 122
3, 45312, Note_on_c, 3, 57, 117
3, 45312, Note_on_c, 3, 60, 118
3, 45312, Note_on_c, 3, 41, 117
3, 45312, Note_on_c, 3, 53, 122
3, 45366, Note_off_c, 3, 60, 64
3, 45369, Note_off_c, 3, 57, 64
3, 45372, Note_off_c, 3, 65, 64
3, 45408, Note_on_c, 3, 57, 118
3, 45408, Note_on_c, 3, 65, 115
3, 45408, Note_on_c, 3, 60, 121
3, 45454, Note_off_c, 3, 60, 64
3, 45454, Note_off_c, 3, 65, 64
3, 45462, Note_off_c, 3, 57, 64
3, 45504, Note_on_c, 3, 65, 116
3, 45504, Note_on_c, 3, 60, 121
3, 45504, Note_on_c, 3, 57, 116
3, 45548, Note_off_c, 3, 57, 64
3, 45548, Note_off_c, 3, 60, 64
3, 45556, Note_off_c, 3, 65, 64
3, 45600, Note_on_c, 3, 65, 116
3, 45600, Note_on_c, 3, 60, 121
3, 45600, Note_on_c, 3, 57, 119
3, 45600, Note_on_c, 3, 36, 119
3, 45600, Note_on_c, 3, 48, 121
3, 45603, Note_off_c, 3, 41, 64
3, 45620, Note_off_c, 3, 53, 64
3, 45643, Note_off_c, 3, 60, 64
3, 45648, Note_off_c, 3, 57, 64
3, 45651, Note_off_c, 3, 65, 64
3, 45696, Note_on_c, 3, 65, 116
3, 45696, Note_on_c, 3, 60, 121
3, 45696, Note_on_c, 3, 57, 117
3, 45739, Note_off_c, 3, 60, 64
3, 45740, Note_off_c, 3, 57, 64
3, 45747, Note_off_c, 3, 65, 64
3, 45792, Note_on_c, 3, 65, 119
3, 45792, Note_on_c, 3, 57, 116
3, 45792, Note_on_c, 3, 60, 120
3, 45828, Note_off_c, 3, 60, 64
3, 45835, Note_off_c, 3, 57, 64
3, 45844, Note_off_c, 3, 65, 64
3, 45888, Note_on_c, 3, 65, 118
3, 45888, Note_on_c, 3, 60, 120
3, 45888, Note_on_c, 3, 57, 115
3, 45932, Note_off_c, 3, 60, 64
3, 45939, Note_off_c, 3, 57, 64
3, 45942, Note_off_c, 3, 65, 64
3, 45947, Note_off_c, 3, 36, 64
3, 45961, Note_off_c, 3, 48, 64
3, 45984, Note_on_c, 3, 65, 117
3, 45984, Note_on_c, 3, 60, 122
3, 45984, Note_on_c, 3, 57, 116
3, 46022, Note_off_c, 3, 60, 64
3, 46027, Note_off_c, 3, 65, 64
3, 46027, Note_off_c, 3, 57, 64
3, 46080, Note_on_c, 3, 43, 120
3, 46080, Note_on_c, 3, 55, 121
3, 46080, Note_on_c, 3, 59, 117
3, 46080, Note_on_c, 3, 55, 117
3, 46080, Note_on_c, 3, 62, 116
3, 46118, Note_off_c, 3, 62, 64
3, 46129, Note_off_c, 3, 59, 64
3, 46129, Note_off_c, 3, 55, 64
3, 46176, Note_on_c, 3, 59, 120
3, 46176, Note_on_c, 3, 55, 117
3, 46176, Note_on_c, 3, 62, 120
3, 46220, Note_off_c, 3, 62, 64
3, 46222, Note_off_c, 3, 55, 64
3, 46224, Note_off_c, 3, 59, 64
3, 46272, Note_on_c, 3, 59, 120
3, 46272, Note_on_c, 3, 55, 117
3, 46272, Note_on_c, 3, 62, 120
3, 46315, Note_off_c, 3, 62, 64
3, 46321, Note_off_c, 3, 59, 64
3, 46323, Note_off_c, 3, 55, 64
3, 46368, Note_on_c, 3, 38, 119
3, 46368, Note_on_c, 3, 59, 120
3, 46368, Note_on_c, 3, 55, 117
3, 46368, Note_on_c, 3, 62, 120
3, 46368, Note_on_c, 3, 50, 120
3, 46376, Note_off_c, 3, 43, 64
3, 46384, Note_off_c, 3, 55, 64
3, 46411, Note_off_c, 3, 62, 64
3, 46414, Note_off_c, 3, 59, 64
3, 46417, Note_off_c, 3, 55, 64
3, 46464, Note_on_c, 3, 59, 120
3, 46464, Note_on_c, 3, 62, 120
3, 46464, Note_on_c, 3, 55, 116
3, 46508, Note_off_c, 3, 62, 64
3, 46510, Note_off_c, 3, 59, 64
3, 46513, Note_off_c, 3, 55, 64
3, 46560, Note_on_c, 3, 55, 118
3, 46560, Note_on_c, 3, 59, 120
3, 46560, Note_on_c, 3, 62, 120
3, 46601, Note_off_c, 3, 62, 64
3, 46603, Note_off_c, 3, 59, 64
3, 46608, Note_off_c, 3, 55, 64
3, 46656, Note_on_c, 3, 59, 120
3, 46656, Note_on_c, 3, 62, 121
3, 46656, Note_on_c, 3, 55, 117
3, 46704, Note_off_c, 3, 62, 64
3, 46705, Note_off_c, 3, 59, 64
3, 46707, Note_off_c, 3, 55, 64
3, 46710, Note_off_c, 3, 50, 64
3, 46732, Note_off_c, 3, 38, 64
3, 46752, Note_on_c, 3, 55, 119
3, 46752, Note_on_c, 3, 62, 120
3, 46752, Note_on_c, 3, 59, 119
3, 46788, Note_off_c, 3, 59, 64
3, 46792, Note_off_c, 3, 62, 64
3, 46795, Note_off_c, 3, 55, 64
3, 46848, Note_on_c, 3, 41, 117
3, 46848, Note_on_c, 3, 65, 122
3, 46848, Note_on_c, 3, 57, 118
3, 46848, Note_on_c, 3, 60, 118
3, 46848, Note_on_c, 3, 53, 123
3, 46894, Note_off_c, 3, 60, 64
3, 46900, Note_off_c, 3, 57, 64
3, 46902, Note_off_c, 3, 65, 64
3, 46944, Note_on_c, 3, 57, 118
3, 46944, Note_on_c, 3, 65, 113
3, 46944, Note_on_c, 3, 60, 121
3, 46985, Note_off_c, 3, 60, 64
3, 46985, Note_off_c, 3, 65, 64
3, 46995, Note_off_c, 3, 57, 64
3, 47040, Note_on_c, 3, 65, 115
3, 47040, Note_on_c, 3, 57, 115
3, 47040, Note_on_c, 3, 60, 121
3, 47080, Note_off_c, 3, 60, 64
3, 47083, Note_off_c, 3, 57, 64
3, 47086, Note_off_c, 3, 65, 64
3, 47132, Note_off_c, 3, 41, 64
3, 47136, Note_on_c, 3, 36, 120
3, 47136, Note_on_c, 3, 65, 113
3, 47136, Note_on_c, 3, 57, 117
3, 47136, Note_on_c, 3, 60, 121
3, 47136, Note_on_c, 3, 48, 119
3, 47139, Note_off_c, 3, 53, 64
3, 47174, Note_off_c, 3, 60, 64
3, 47184, Note_off_c, 3, 65, 64
3, 47184, Note_off_c, 3, 57, 64
3, 47232, Note_on_c, 3, 65, 115
3, 47232, Note_on_c, 3, 60, 121
3, 47232, Note_on_c, 3, 57, 116
3, 47272, Note_off_c, 3, 60, 64
3, 47273, Note_off_c, 3, 57, 64
3, 47283, Note_off_c, 3, 65, 64
3, 47328, Note_on_c, 3, 65, 115
3, 47328, Note_on_c, 3, 60, 120
3, 47328, Note_on_c, 3, 57, 117
3, 47368, Note_off_c, 3, 60, 64
3, 47372, Note_off_c, 3, 57, 64
3, 47379, Note_off_c, 3, 65, 64
3, 47424, Note_on_c, 3, 65, 111
3, 47424, Note_on_c, 3, 57, 115
3, 47424, Note_on_c, 3, 60, 118
3, 47454, Note_off_c, 3, 36, 64
3, 47464, Note_off_c, 3, 48, 64
3, 47465, Note_off_c, 3, 60, 64
3, 47475, Note_off_c, 3, 57, 64
3, 47478, Note_off_c, 3, 65, 64
3, 47520, Note_on_c, 3, 65, 117
3, 47520, Note_on_c, 3, 60, 121
3, 47520, Note_on_c, 3, 57, 115
3, 47558, Note_off_c, 3, 60, 64
3, 47561, Note_off_c, 3, 65, 64
3, 47563, Note_off_c, 3, 57, 64
3, 47616, Note_on_c, 3, 43, 119
3, 47616, Note_on_c, 3, 55, 118
3, 47616, Note_on_c, 3, 59, 117
3, 47616, Note_on_c, 3, 62, 116
3, 47616, Note_on_c, 3, 55, 122
3, 47651, Note_off_c, 3, 62, 64
3, 47662, Note_off_c, 3, 59, 64
3, 47667, Note_off_c, 3, 55, 64
3, 47712, Note_on_c, 3, 59, 121
3, 47712, Note_on_c, 3, 55, 117
3, 47712, Note_on_c, 3, 62, 121
3, 47756, Note_off_c, 3, 62, 64
3, 47756, Note_off_c, 3, 59, 64
3, 47761, Note_off_c, 3, 55, 64
3, 47808, Note_on_c, 3, 55, 117
3, 47808, Note_on_c, 3, 59, 120
3, 47808, Note_on_c, 3, 62, 120
3, 47849, Note_off_c, 3, 62, 64
3, 47851, Note_off_c, 3, 59, 64
3, 47860, Note_off_c, 3, 55, 64
3, 47900, Note_off_c, 3, 43, 64
3, 47904, Note_on_c, 3, 59, 119
3, 47904, Note_on_c, 3, 55, 117
3, 47904, Note_on_c, 3, 62, 120
3, 47904, Note_on_c, 3, 38, 117
3, 47904, Note_on_c, 3, 50, 120
3, 47918, Note_off_c, 3, 55, 64
3, 47942, Note_off_c, 3, 62, 64
3, 47944, Note_off_c, 3, 59, 64
3, 47947, Note_off_c, 3, 55, 64
3, 48000, Note_on_c, 3, 55, 117
3, 48000, Note_on_c, 3, 59, 119
3, 48000, Note_on_c, 3, 62, 120
3, 48041, Note_off_c, 3, 62, 64
3, 48043, Note_off_c, 3, 59, 64
3, 48049, Note_off_c, 3, 55, 64
3, 48096, Note_on_c, 3, 62, 119
3, 48096, Note_on_c, 3, 59, 119
3, 48096, Note_on_c, 3, 55, 114
3, 48137, Note_off_c, 3, 59, 64
3, 48140, Note_off_c, 3, 62, 64
3, 48140, Note_off_c, 3, 55, 64
3, 48192, Note_on_c, 3, 62, 120
3, 48192, Note_on_c, 3, 59, 119
3, 48192, Note_on_c, 3, 55, 115
3, 48222, Note_off_c, 3, 50, 64
3, 48235, Note_off_c, 3, 59, 64
3, 48236, Note_off_c, 3, 38, 64
3, 48240, Note_off_c, 3, 62, 64
3, 48240, Note_off_c, 3, 55, 64
3, 48288, Note_on_c, 3, 62, 120
3, 48288, Note_on_c, 3, 55, 117
3, 48288, Note_on_c, 3, 59, 120
3, 48324, Note_off_c, 3, 59, 64
3, 48329, Note_off_c, 3, 55, 64
3, 48332, Note_off_c, 3, 62, 64
3, 48384, Note_on_c, 3, 41, 115
3, 48384, Note_on_c, 3, 53, 122
3, 48384, Note_on_c, 3, 65, 121
3, 48384, Note_on_c, 3, 57, 117
3, 48384, Note_on_c, 3, 60, 119
3, 48430, Note_off_c, 3, 60, 64
3, 48435, Note_off_c, 3, 57, 64
3, 48435, Note_off_c, 3, 65, 64
3, 48480, Note_on_c, 3, 65, 116
3, 48480, Note_on_c, 3, 57, 118
3, 48480, Note_on_c, 3, 60, 121
3, 48521, Note_off_c, 3, 60, 64
3, 48531, Note_off_c, 3, 65, 64
3, 48532, Note_off_c, 3, 57, 64
3, 48576, Note_on_c, 3, 65, 114
3, 48576, Note_on_c, 3, 57, 112
3, 48576, Note_on_c, 3, 60, 121
3, 48619, Note_off_c, 3, 60, 64
3, 48628, Note_off_c, 3, 57, 64
3, 48630, Note_off_c, 3, 65, 64
3, 48672, Note_on_c, 3, 65, 111
3, 48672, Note_on_c, 3, 57, 115
3, 48672, Note_on_c, 3, 60, 121
3, 48672, Note_on_c, 3, 36, 118
3, 48672, Note_on_c, 3, 48, 119
3, 48686, Note_off_c, 3, 53, 64
3, 48686, Note_off_c, 3, 41, 64
3, 48716, Note_off_c, 3, 60, 64
3, 48721, Note_off_c, 3, 65, 64
3, 48726, Note_off_c, 3, 57, 64
3, 48768, Note_on_c, 3, 65, 115
3, 48768, Note_on_c, 3, 57, 113
3, 48768, Note_on_c, 3, 60, 120
3, 48809, Note_off_c, 3, 60, 64
3, 48816, Note_off_c, 3, 57, 64
3, 48817, Note_off_c, 3, 65, 64
3, 48864, Note_on_c, 3, 60, 120
3, 48864, Note_on_c, 3, 57, 117
3, 48864, Note_on_c, 3, 65, 114
3, 48907, Note_off_c, 3, 65, 64
3, 48907, Note_off_c, 3, 60, 64
3, 48913, Note_off_c, 3, 57, 64
3, 48960, Note_on_c, 3, 65, 112
3, 48960, Note_on_c, 3, 57, 114
3, 48960, Note_on_c, 3, 60, 121
3, 48995, Note_off_c, 3, 36, 64
3, 49001, Note_off_c, 3, 60, 64
3, 49009, Note_off_c, 3, 57, 64
3, 49012, Note_off_c, 3, 48, 64
3, 49012, Note_off_c, 3, 65, 64
3, 49056, Note_on_c, 3, 65, 113
3, 49056, Note_on_c, 3, 60, 121
3, 49056, Note_on_c, 3, 57, 114
3, 49092, Note_off_c, 3, 60, 64
3, 49099, Note_off_c, 3, 65, 64
3, 49100, Note_off_c, 3, 57, 64
3, 49152, Note_on_c, 3, 55, 118
3, 49152, Note_on_c, 3, 59, 119
3, 49152, Note_on_c, 3, 62, 117
3, 49152, Note_on_c, 3, 55, 123
3, 49152, Note_on_c, 3, 43, 120
3, 49198, Note_off_c, 3, 62, 64
3, 49200, Note_off_c, 3, 59, 64
3, 49204, Note_off_c, 3, 55, 64
3, 49248, Note_on_c, 3, 59, 120
3, 49248, Note_on_c, 3, 62, 120
3, 49248, Note_on_c, 3, 55, 115
3, 49288, Note_off_c, 3, 62, 64
3, 49291, Note_off_c, 3, 59, 64
3, 49294, Note_off_c, 3, 55, 64
3, 49344, Note_on_c, 3, 55, 113
3, 49344, Note_on_c, 3, 59, 117
3, 49344, Note_on_c, 3, 62, 118
3, 49382, Note_off_c, 3, 62, 64
3, 49387, Note_off_c, 3, 59, 64
3, 49393, Note_off_c, 3, 55, 64
3, 49425, Note_off_c, 3, 43, 64
3, 49438, Note_off_c, 3, 55, 64
3, 49440, Note_on_c, 3, 38, 120
3, 49440, Note_on_c, 3, 55, 115
3, 49440, Note_on_c, 3, 59, 119
3, 49440, Note_on_c, 3, 62, 119
3, 49440, Note_on_c, 3, 50, 120
3, 49480, Note_off_c, 3, 62, 64
3, 49483, Note_off_c, 3, 59, 64
3, 49489, Note_off_c, 3, 55, 64
3, 49536, Note_on_c, 3, 55, 118
3, 49536, Note_on_c, 3, 59, 120
3, 49536, Note_on_c, 3, 62, 120
3, 49577, Note_off_c, 3, 62, 64
3, 49577, Note_off_c, 3, 59, 64
3, 49580, Note_off_c, 3, 55, 64
3, 49632, Note_on_c, 3, 62, 120
3, 49632, Note_on_c, 3, 55, 117
3, 49632, Note_on_c, 3, 59, 119
3, 49675, Note_off_c, 3, 59, 64
3, 49675, Note_off_c, 3, 62, 64
3, 49680, Note_off_c, 3, 55, 64
3, 49728, Note_on_c, 3, 55, 115
3, 49728, Note_on_c, 3, 62, 120
3, 49728, Note_on_c, 3, 59, 120
3, 49748, Note_off_c, 3, 50, 64
3, 49766, Note_off_c, 3, 38, 64
3, 49772, Note_off_c, 3, 59, 64
3, 49774, Note_off_c, 3, 62, 64
3, 49779, Note_off_c, 3, 55, 64
3, 49824, Note_on_c, 3, 55, 119
3, 49824, Note_on_c, 3, 62, 121
3, 49824, Note_on_c, 3, 59, 121
3, 49880, Note_off_c, 3, 59, 64
3, 49886, Note_off_c, 3, 55, 64
3, 49889, Note_off_c, 3, 62, 64
3, 49920, Note_on_c, 3, 52, 117
3, 49920, Note_on_c, 3, 48, 120
3, 49920, Note_on_c, 3, 43, 106
3, 49920, Note_on_c, 3, 60, 122
3, 49920, Note_on_c, 3, 64, 122
3, 49920, Note_on_c, 3, 55, 121
3, 49940, Note_off_c, 3, 55, 64
3, 49974, Note_off_c, 3, 60, 64
3, 49977, Note_off_c, 3, 48, 64
3, 49979, Note_off_c, 3, 43, 64
3, 49982, Note_off_c, 3, 64, 64
3, 49990, Note_off_c, 3, 52, 64
3, 50112, Note_on_c, 3, 55, 120
3, 50112, Note_on_c, 3, 52, 119
3, 50112, Note_on_c, 3, 48, 121
3, 50112, Note_on_c, 3, 60, 123
3, 50112, Note_on_c, 3, 43, 121
3, 50112, Note_on_c, 3, 64, 123
3, 50177, Note_off_c, 3, 43, 64
3, 50179, Note_off_c, 3, 60, 64
3, 50180, Note_off_c, 3, 48, 64
3, 50184, Note_off_c, 3, 52, 64
3, 50188, Note_off_c, 3, 55, 64
3, 50200, Note_off_c, 3, 64, 64
3, 50304, Note_on_c, 3, 55, 120
3, 50304, Note_on_c, 3, 48, 121
3, 50304, Note_on_c, 3, 52, 120
3, 50304, Note_on_c, 3, 43, 121
3, 50304, Note_on_c, 3, 60, 123
3, 50304, Note_on_c, 3, 64, 123
3, 50363, Note_off_c, 3, 60, 64
3, 50371, Note_off_c, 3, 64, 64
3, 50372, Note_off_c, 3, 48, 64
3, 50374, Note_off_c, 3, 43, 64
3, 50376, Note_off_c, 3, 55, 64
3, 50376, Note_off_c, 3, 52, 64
3, 50496, Note_on_c, 3, 55, 121
3, 50496, Note_on_c, 3, 64, 124
3, 50496, Note_on_c, 3, 60, 123
3, 50496, Note_on_c, 3, 48, 120
3, 50496, Note_on_c, 3, 52, 118
3, 50496, Note_on_c, 3, 43, 121
3, 50560, Note_off_c, 3, 43, 64
3, 50561, Note_off_c, 3, 48, 64
3, 50561, Note_off_c, 3, 60, 64
3, 50564, Note_off_c, 3, 52, 64
3, 50571, Note_off_c, 3, 55, 64
3, 50574, Note_off_c, 3, 64, 64
3, 50688, Note_on_c, 3, 55, 121
3, 50688, Note_on_c, 3, 48, 122
3, 50688, Note_on_c, 3, 43, 121
3, 50688, Note_on_c, 3, 52, 119
3, 50688, Note_on_c, 3, 60, 124
3, 50688, Note_on_c, 3, 64, 123
3, 50752, Note_off_c, 3, 60, 64
3, 50758, Note_off_c, 3, 64, 64
3, 50764, Note_off_c, 3, 55, 64
3, 50768, Note_off_c, 3, 43, 64
3, 50768, Note_off_c, 3, 52, 64
3, 50774, Note_off_c, 3, 48, 64
3, 50880, Note_on_c, 3, 55, 120
3, 50880, Note_on_c, 3, 64, 123
3, 50880, Note_on_c, 3, 48, 122
3, 50880, Note_on_c, 3, 52, 119
3, 50880, Note_on_c, 3, 60, 124
3, 50880, Note_on_c, 3, 43, 121
3, 50944, Note_off_c, 3, 60, 64
3, 50952, Note_off_c, 3, 55, 64
3, 50955, Note_off_c, 3, 43, 64
3, 50958, Note_off_c, 3, 64, 64
3, 50960, Note_off_c, 3, 52, 64
3, 50961, Note_off_c, 3, 48, 64
3, 51072, Note_on_c, 3, 48, 122
3, 51072, Note_on_c, 3, 52, 120
3, 51072, Note_on_c, 3, 43, 121
3, 51072, Note_on_c, 3, 55, 120
3, 51072, Note_on_c, 3, 64, 123
3, 51072, Note_on_c, 3, 60, 123
3, 51139, Note_off_c, 3, 60, 64
3, 51148, Note_off_c, 3, 52, 64
3, 51152, Note_off_c, 3, 48, 64
3, 51152, Note_off_c, 3, 43, 64
3, 51155, Note_off_c, 3, 55, 64
3, 51172, Note_off_c, 3, 64, 64
3, 51264, Note_on_c, 3, 64, 123
3, 51264, Note_on_c, 3, 55, 119
3, 51264, Note_on_c, 3, 52, 121
3, 51264, Note_on_c, 3, 60, 123
3, 51264, Note_on_c, 3, 48, 123
3, 51264, Note_on_c, 3, 43, 121
3, 51318, Note_off_c, 3, 60, 64
3, 51323, Note_off_c, 3, 52, 64
3, 51324, Note_off_c, 3, 48, 64
3, 51329, Note_off_c, 3, 64, 64
3, 51332, Note_off_c, 3, 55, 64
3, 51334, Note_off_c, 3, 43, 64
3, 51456, Note_on_c, 3, 46, 125
3, 51456, Note_on_c, 3, 41, 120
3, 51456, Note_on_c, 3, 50, 114
3, 51456, Note_on_c, 3, 58, 127
3, 51456, Note_on_c, 3, 53, 120
3, 51456, Note_on_c, 3, 62, 123
3, 51518, Note_off_c, 3, 41, 64
3, 51520, Note_off_c, 3, 58, 64
3, 51521, Note_off_c, 3, 46, 64
3, 51529, Note_off_c, 3, 50, 64
3, 51531, Note_off_c, 3, 53, 64
3, 51532, Note_off_c, 3, 62, 64
3, 51648, Note_on_c, 3, 41, 120
3, 51648, Note_on_c, 3, 46, 127
3, 51648, Note_on_c, 3, 50, 118
3, 51648, Note_on_c, 3, 58, 127
3, 51648, Note_on_c, 3, 53, 119
3, 51648, Note_on_c, 3, 62, 123
3, 51721, Note_off_c, 3, 46, 64
3, 51723, Note_off_c, 3, 50, 64
3, 51723, Note_off_c, 3, 58, 64
3, 51724, Note_off_c, 3, 62, 64
3, 51728, Note_off_c, 3, 41, 64
3, 51742, Note_off_c, 3, 53, 64
3, 51840, Note_on_c, 3, 46, 126
3, 51840, Note_on_c, 3, 58, 126
3, 51840, Note_on_c, 3, 50, 118
3, 51840, Note_on_c, 3, 41, 120
3, 51840, Note_on_c, 3, 53, 118
3, 51840, Note_on_c, 3, 62, 124
3, 51908, Note_off_c, 3, 41, 64
3, 51908, Note_off_c, 3, 58, 64
3, 51912, Note_off_c, 3, 46, 64
3, 51915, Note_off_c, 3, 50, 64
3, 51915, Note_off_c, 3, 53, 64
3, 51920, Note_off_c, 3, 62, 64
3, 52032, Note_on_c, 3, 46, 126
3, 52032, Note_on_c, 3, 58, 127
3, 52032, Note_on_c, 3, 53, 120
3, 52032, Note_on_c, 3, 41, 118
3, 52032, Note_on_c, 3, 50, 118
3, 52032, Note_on_c, 3, 62, 124
3, 52083, Note_off_c, 3, 41, 64
3, 52097, Note_off_c, 3, 58, 64
3, 52099, Note_off_c, 3, 46, 64
3, 52100, Note_off_c, 3, 53, 64
3, 52102, Note_off_c, 3, 50, 64
3, 52105, Note_off_c, 3, 62, 64
3, 52224, Note_on_c, 3, 55, 121
3, 52224, Note_on_c, 3, 59, 124
3, 52224, Note_on_c, 3, 47, 121
3, 52224, Note_on_c, 3, 43, 121
3, 52224, Note_on_c, 3, 50, 118
3, 52224, Note_on_c, 3, 62, 123
3, 52286, Note_off_c, 3, 62, 64
3, 52286, Note_off_c, 3, 59, 64
3, 52291, Note_off_c, 3, 55, 64
3, 52300, Note_off_c, 3, 47, 64
3, 52302, Note_off_c, 3, 43, 64
3, 52304, Note_off_c, 3, 50, 64
3, 52416, Note_on_c, 3, 47, 122
3, 52416, Note_on_c, 3, 50, 119
3, 52416, Note_on_c, 3, 43, 122
3, 52416, Note_on_c, 3, 55, 120
3, 52416, Note_on_c, 3, 59, 124
3, 52416, Note_on_c, 3, 62, 124
3, 52478, Note_off_c, 3, 59, 64
3, 52486, Note_off_c, 3, 55, 64
3, 52488, Note_off_c, 3, 43, 64
3, 52488, Note_off_c, 3, 47, 64
3, 52488, Note_off_c, 3, 62, 64
3, 52491, Note_off_c, 3, 50, 64
3, 52608, Note_on_c, 3, 62, 124
3, 52608, Note_on_c, 3, 59, 124
3, 52608, Note_on_c, 3, 55, 119
3, 52608, Note_on_c, 3, 47, 122
3, 52608, Note_on_c, 3, 50, 118
3, 52608, Note_on_c, 3, 43, 122
3, 52670, Note_off_c, 3, 59, 64
3, 52672, Note_off_c, 3, 62, 64
3, 52672, Note_off_c, 3, 55, 64
3, 52678, Note_off_c, 3, 50, 64
3, 52678, Note_off_c, 3, 43, 64
3, 52681, Note_off_c, 3, 47, 64
3, 52800, Note_on_c, 3, 55, 121
3, 52800, Note_on_c, 3, 47, 123
3, 52800, Note_on_c, 3, 50, 119
3, 52800, Note_on_c, 3, 43, 123
3, 52800, Note_on_c, 3, 59, 124
3, 52800, Note_on_c, 3, 62, 124
3, 52843, Note_off_c, 3, 62, 64
3, 52844, Note_off_c, 3, 59, 64
3, 52854, Note_off_c, 3, 55, 64
3, 52889, Note_off_c, 3, 47, 64
3, 52896, Note_off_c, 3, 43, 64
3, 52896, Note_on_c, 3, 55, 120
3, 52896, Note_on_c, 3, 59, 122
3, 52896, Note_on_c, 3, 62, 122
3, 52899, Note_off_c, 3, 50, 64
3, 52937, Note_off_c, 3, 62, 64
3, 52940, Note_off_c, 3, 59, 64
3, 52947, Note_off_c, 3, 55, 64
3, 52992, Note_on_c, 3, 48, 124
3, 52992, Note_on_c, 3, 52, 122
3, 52992, Note_on_c, 3, 43, 122
3, 52992, Note_on_c, 3, 60, 123
3, 52992, Note_on_c, 3, 55, 121
3, 52992, Note_on_c, 3, 64, 123
3, 53065, Note_off_c, 3, 64, 64
3, 53065, Note_off_c, 3, 60, 64
3, 53068, Note_off_c, 3, 43, 64
3, 53070, Note_off_c, 3, 52, 64
3, 53072, Note_off_c, 3, 48, 64
3, 53076, Note_off_c, 3, 55, 64
3, 53184, Note_on_c, 3, 52, 123
3, 53184, Note_on_c, 3, 48, 124
3, 53184, Note_on_c, 3, 43, 123
3, 53184, Note_on_c, 3, 55, 121
3, 53184, Note_on_c, 3, 64, 123
3, 53184, Note_on_c, 3, 60, 122
3, 53244, Note_off_c, 3, 60, 64
3, 53248, Note_off_c, 3, 64, 64
3, 53259, Note_off_c, 3, 43, 64
3, 53259, Note_off_c, 3, 48, 64
3, 53259, Note_off_c, 3, 52, 64
3, 53260, Note_off_c, 3, 55, 64
3, 53376, Note_on_c, 3, 48, 121
3, 53376, Note_on_c, 3, 43, 122
3, 53376, Note_on_c, 3, 52, 118
3, 53376, Note_on_c, 3, 55, 120
3, 53376, Note_on_c, 3, 64, 123
3, 53376, Note_on_c, 3, 60, 123
3, 53440, Note_off_c, 3, 60, 64
3, 53446, Note_off_c, 3, 64, 64
3, 53451, Note_off_c, 3, 55, 64
3, 53452, Note_off_c, 3, 52, 64
3, 53454, Note_off_c, 3, 48, 64
3, 53456, Note_off_c, 3, 43, 64
3, 53568, Note_on_c, 3, 43, 120
3, 53568, Note_on_c, 3, 48, 122
3, 53568, Note_on_c, 3, 52, 120
3, 53568, Note_on_c, 3, 64, 123
3, 53568, Note_on_c, 3, 55, 119
3, 53568, Note_on_c, 3, 60, 124
3, 53644, Note_off_c, 3, 60, 64
3, 53644, Note_off_c, 3, 52, 64
3, 53646, Note_off_c, 3, 48, 64
3, 53654, Note_off_c, 3, 43, 64
3, 53656, Note_off_c, 3, 64, 64
3, 53662, Note_off_c, 3, 55, 64
3, 53760, Note_on_c, 3, 55, 121
3, 53760, Note_on_c, 3, 43, 120
3, 53760, Note_on_c, 3, 52, 120
3, 53760, Note_on_c, 3, 48, 123
3, 53760, Note_on_c, 3, 64, 122
3, 53760, Note_on_c, 3, 60, 124
3, 53827, Note_off_c, 3, 60, 64
3, 53840, Note_off_c, 3, 64, 64
3, 53843, Note_off_c, 3, 52, 64
3, 53843, Note_off_c, 3, 55, 64
3, 53844, Note_off_c, 3, 48, 64
3, 53846, Note_off_c, 3, 43, 64
3, 53952, Note_on_c, 3, 43, 121
3, 53952, Note_on_c, 3, 52, 118
3, 53952, Note_on_c, 3, 48, 122
3, 53952, Note_on_c, 3, 55, 120
3, 53952, Note_on_c, 3, 64, 121
3, 53952, Note_on_c, 3, 60, 124
3, 54019, Note_off_c, 3, 60, 64
3, 54028, Note_off_c, 3, 64, 64
3, 54032, Note_off_c, 3, 55, 64
3, 54033, Note_off_c, 3, 52, 64
3, 54036, Note_off_c, 3, 48, 64
3, 54038, Note_off_c, 3, 43, 64
3, 54144, Note_on_c, 3, 52, 119
3, 54144, Note_on_c, 3, 43, 121
3, 54144, Note_on_c, 3, 48, 123
3, 54144, Note_on_c, 3, 64, 121
3, 54144, Note_on_c, 3, 55, 120
3, 54144, Note_on_c, 3, 60, 124
3, 54209, Note_off_c, 3, 60, 64
3, 54217, Note_off_c, 3, 55, 64
3, 54224, Note_off_c, 3, 64, 64
3, 54225, Note_off_c, 3, 48, 64
3, 54225, Note_off_c, 3, 52, 64
3, 54227, Note_off_c, 3, 43, 64
3, 54336, Note_on_c, 3, 52, 120
3, 54336, Note_on_c, 3, 48, 122
3, 54336, Note_on_c, 3, 64, 120
3, 54336, Note_on_c, 3, 55, 120
3, 54336, Note_on_c, 3, 60, 124
3, 54336, Note_on_c, 3, 43, 122
3, 54393, Note_off_c, 3, 64, 64
3, 54396, Note_off_c, 3, 60, 64
3, 54401, Note_off_c, 3, 52, 64
3, 54403, Note_off_c, 3, 48, 64
3, 54411, Note_off_c, 3, 55, 64
3, 54412, Note_off_c, 3, 43, 64
3, 54528, Note_on_c, 3, 41, 115
3, 54528, Note_on_c, 3, 46, 123
3, 54528, Note_on_c, 3, 50, 117
3, 54528, Note_on_c, 3, 58, 127
3, 54528, Note_on_c, 3, 53, 120
3, 54528, Note_on_c, 3, 62, 125
3, 54596, Note_off_c, 3, 46, 64
3, 54598, Note_off_c, 3, 41, 64
3, 54598, Note_off_c, 3, 58, 64
3, 54603, Note_off_c, 3, 62, 64
3, 54604, Note_off_c, 3, 50, 64
3, 54606, Note_off_c, 3, 53, 64
3, 54720, Note_on_c, 3, 41, 119
3, 54720, Note_on_c, 3, 46, 126
3, 54720, Note_on_c, 3, 58, 126
3, 54720, Note_on_c, 3, 50, 115
3, 54720, Note_on_c, 3, 53, 118
3, 54720, Note_on_c, 3, 62, 123
3, 54795, Note_off_c, 3, 58, 64
3, 54800, Note_off_c, 3, 46, 64
3, 54800, Note_off_c, 3, 41, 64
3, 54800, Note_off_c, 3, 50, 64
3, 54800, Note_off_c, 3, 62, 64
3, 54801, Note_off_c, 3, 53, 64
3, 54912, Note_on_c, 3, 41, 121
3, 54912, Note_on_c, 3, 46, 126
3, 54912, Note_on_c, 3, 50, 119
3, 54912, Note_on_c, 3, 58, 126
3, 54912, Note_on_c, 3, 53, 119
3, 54912, Note_on_c, 3, 62, 124
3, 54984, Note_off_c, 3, 58, 64
3, 54988, Note_off_c, 3, 46, 64
3, 54988, Note_off_c, 3, 41, 64
3, 54988, Note_off_c, 3, 62, 64
3, 54990, Note_off_c, 3, 50, 64
3, 54990, Note_off_c, 3, 53, 64
3, 55104, Note_on_c, 3, 46, 125
3, 55104, Note_on_c, 3, 41, 119
3, 55104, Note_on_c, 3, 50, 118
3, 55104, Note_on_c, 3, 58, 126
3, 55104, Note_on_c, 3, 53, 120
3, 55104, Note_on_c, 3, 62, 124
3, 55169, Note_off_c, 3, 53, 64
3, 55169, Note_off_c, 3, 58, 64
3, 55177, Note_off_c, 3, 41, 64
3, 55179, Note_off_c, 3, 50, 64
3, 55179, Note_off_c, 3, 62, 64
3, 55184, Note_off_c, 3, 46, 64
3, 55200, Note_on_c, 3, 43, 124
3, 55200, Note_on_c, 3, 47, 124
3, 55200, Note_on_c, 3, 50, 124
3, 55248, Note_off_c, 3, 50, 64
3, 55248, Note_off_c, 3, 47, 64
3, 55248, Note_off_c, 3, 43, 64
3, 55248, Note_on_c, 3, 55, 124
3, 55248, Note_on_c, 3, 59, 124
3, 55248, Note_on_c, 3, 62, 124
3, 55296, Note_off_c, 3, 59, 64
3, 55296, Note_off_c, 3, 55, 64
3, 55296, Note_on_c, 3, 55, 124
3, 55296, Note_on_c, 3, 43, 124
3, 55296, Note_on_c, 3, 50, 125
3, 55296, Note_on_c, 3, 47, 126
3, 55296, Note_on_c, 3, 59, 125
3, 55296, Note_on_c, 3, 62, 125
3, 55297, Note_off_c, 3, 62, 64
3, 55936, Note_off_c, 3, 59, 64
3, 55939, Note_off_c, 3, 55, 64
3, 55940, Note_off_c, 3, 62, 64
3, 55950, Note_off_c, 3, 47, 64
3, 55961, Note_off_c, 3, 43, 64
3, 55963, Note_off_c, 3, 50, 64
3, 56832, Note_on_c, 3, 48, 124
3, 56928, Note_on_c, 3, 53, 123
3, 56944, Note_off_c, 3, 48, 64
3, 57024, Note_on_c, 3, 55, 127
3, 57040, Note_off_c, 3, 53, 64
3, 57886, Note_off_c, 3, 55, 64
3, 57888, Note_on_c, 3, 48, 120
3, 58072, Note_off_c, 3, 48, 64
3, 58080, Note_on_c, 3, 53, 120
3, 58176, Note_on_c, 3, 55, 125
3, 58185, Note_off_c, 3, 53, 64
3, 58307, Note_off_c, 3, 55, 64
3, 58368, Note_on_c, 3, 43, 124
3, 58464, Note_on_c, 3, 48, 119
3, 58472, Note_off_c, 3, 43, 64
3, 58560, Note_on_c, 3, 50, 123
3, 58576, Note_off_c, 3, 48, 64
3, 59424, Note_on_c, 3, 43, 122
3, 59433, Note_off_c, 3, 50, 64
3, 59616, Note_on_c, 3, 48, 120
3, 59620, Note_off_c, 3, 43, 64
3, 59712, Note_on_c, 3, 50, 124
3, 59729, Note_off_c, 3, 48, 64
3, 59859, Note_off_c, 3, 50, 64
3, 59904, Note_on_c, 3, 48, 121
3, 60000, Note_on_c, 3, 53, 122
3, 60024, Note_off_c, 3, 48, 64
3, 60096, Note_on_c, 3, 55, 125
3, 60115, Note_off_c, 3, 53, 64
3, 60960, Note_off_c, 3, 55, 64
3, 60960, Note_on_c, 3, 48, 121
3, 61144, Note_off_c, 3, 48, 64
3, 61152, Note_on_c, 3, 53, 121
3, 61248, Note_on_c, 3, 55, 123
3, 61273, Note_off_c, 3, 53, 64
3, 61353, Note_off_c, 3, 55, 64
3, 61440, Note_on_c, 3, 43, 124
3, 61536, Note_on_c, 3, 48, 120
3, 61539, Note_off_c, 3, 43, 64
3, 61632, Note_on_c, 3, 50, 125
3, 61654, Note_off_c, 3, 48, 64
3, 62496, Note_on_c, 3, 43, 121
3, 62523, Note_off_c, 3, 50, 64
3, 62684, Note_off_c, 3, 43, 64
3, 62688, Note_on_c, 3, 48, 118
3, 62784, Note_on_c, 3, 50, 126
3, 62801, Note_off_c, 3, 48, 64
3, 62950, Note_off_c, 3, 50, 64
3, 62976, Note_on_c, 3, 48, 124
3, 63072, Note_on_c, 3, 53, 123
3, 63088, Note_off_c, 3, 48, 64
3, 63168, Note_on_c, 3, 55, 127
3, 63184, Note_off_c, 3, 53, 64
3, 64030, Note_off_c, 3, 55, 64
3, 64032, Note_on_c, 3, 48, 120
3, 64216, Note_off_c, 3, 48, 64
3, 64224, Note_on_c, 3, 53, 120
3, 64320, Note_on_c, 3, 55, 125
3, 64329, Note_off_c, 3, 53, 64
3, 64451, Note_off_c, 3, 55, 64
3, 64512, Note_on_c, 3, 43, 124
3, 64608, Note_on_c, 3, 48, 119
3, 64616, Note_off_c, 3, 43, 64
3, 64704, Note_on_c, 3, 50, 123
3, 64720, Note_off_c, 3, 48, 64
3, 65568, Note_on_c, 3, 43, 122
3, 65577, Note_off_c, 3, 50, 64
3, 65760, Note_on_c, 3, 48, 120
3, 65764, Note_off_c, 3, 43, 64
3, 65856, Note_on_c, 3, 50, 124
3, 65873, Note_off_c, 3, 48, 64
3, 66003, Note_off_c, 3, 50, 64
3, 66048, Note_on_c, 3, 48, 121
3, 66144, Note_on_c, 3, 53, 122
3, 66168, Note_off_c, 3, 48, 64
3, 66240, Note_on_c, 3, 55, 125
3, 66259, Note_off_c, 3, 53, 64
3, 67104, Note_off_c, 3, 55, 64
3, 67104, Note_on_c, 3, 48, 121
3, 67288, Note_off_c, 3, 48, 64
3, 67296, Note_on_c, 3, 53, 121
3, 67392, Note_on_c, 3, 55, 123
3, 67417, Note_off_c, 3, 53, 64
3, 67497, Note_off_c, 3, 55, 64
3, 67584, Note_on_c, 3, 43, 124
3, 67680, Note_on_c, 3, 48, 120
3, 67683, Note_off_c, 3, 43, 64
3, 67776, Note_on_c, 3, 50, 125
3, 67798, Note_off_c, 3, 48, 64
3, 68667, Note_off_c, 3, 50, 64
3, 68736, Note_on_c, 3, 52, 118
3, 68736, Note_on_c, 3, 55, 116
3, 68736, Note_on_c, 3, 48, 120
3, 68736, Note_on_c, 3, 43, 120
3, 68736, Note_on_c, 3, 64, 121
3, 68776, Note_off_c, 3, 64, 64
3, 68777, Note_off_c, 3, 43, 64
3, 68777, Note_off_c, 3, 48, 64
3, 68777, Note_off_c, 3, 55, 64
3, 68784, Note_off_c, 3, 52, 64
3, 68832, Note_on_c, 3, 64, 120
3, 68832, Note_on_c, 3, 60, 120
3, 68832, Note_on_c, 3, 48, 115
3, 68832, Note_on_c, 3, 55, 114
3, 68832, Note_on_c, 3, 52, 111
3, 68832, Note_on_c, 3, 43, 111
3, 68832, Note_on_c, 3, 48, 118
3, 68867, Note_off_c, 3, 43, 64
3, 68873, Note_off_c, 3, 52, 64
3, 68873, Note_off_c, 3, 48, 64
3, 68873, Note_off_c, 3, 60, 64
3, 68876, Note_off_c, 3, 55, 64
3, 68878, Note_off_c, 3, 64, 64
3, 68928, Note_on_c, 3, 52, 111
3, 68928, Note_on_c, 3, 48, 114
3, 68928, Note_on_c, 3, 55, 116
3, 68928, Note_on_c, 3, 43, 113
3, 68928, Note_on_c, 3, 64, 121
3, 68928, Note_on_c, 3, 60, 121
3, 68945, Note_off_c, 3, 48, 64
3, 68963, Note_off_c, 3, 43, 64
3, 68966, Note_off_c, 3, 48, 64
3, 68968, Note_off_c, 3, 60, 64
3, 68971, Note_off_c, 3, 52, 64
3, 68971, Note_off_c, 3, 64, 64
3, 68972, Note_off_c, 3, 55, 64
3, 69024, Note_on_c, 3, 52, 113
3, 69024, Note_on_c, 3, 48, 117
3, 69024, Note_on_c, 3, 43, 112
3, 69024, Note_on_c, 3, 55, 117
3, 69024, Note_on_c, 3, 64, 121
3, 69024, Note_on_c, 3, 60, 121
3, 69046, Note_off_c, 3, 43, 64
3, 69060, Note_off_c, 3, 60, 64
3, 69064, Note_off_c, 3, 55, 64
3, 69067, Note_off_c, 3, 48, 64
3, 69068, Note_off_c, 3, 64, 64
3, 69070, Note_off_c, 3, 52, 64
3, 69120, Note_on_c, 3, 48, 118
3, 69120, Note_on_c, 3, 57, 119
3, 69120, Note_on_c, 3, 65, 123
3, 69120, Note_on_c, 3, 45, 120
3, 69120, Note_on_c, 3, 60, 123
3, 69120, Note_on_c, 3, 53, 114
3, 69337, Note_off_c, 3, 60, 64
3, 69342, Note_off_c, 3, 65, 64
3, 69358, Note_off_c, 3, 45, 64
3, 69361, Note_off_c, 3, 57, 64
3, 69363, Note_off_c, 3, 53, 64
3, 69368, Note_off_c, 3, 48, 64
3, 69408, Note_on_c, 3, 53, 118
3, 69408, Note_on_c, 3, 45, 120
3, 69408, Note_on_c, 3, 48, 119
3, 69408, Note_on_c, 3, 65, 122
3, 69408, Note_on_c, 3, 57, 121
3, 69408, Note_on_c, 3, 60, 122
3, 69654, Note_off_c, 3, 45, 64
3, 69660, Note_off_c, 3, 53, 64
3, 69660, Note_off_c, 3, 48, 64
3, 69696, Note_on_c, 3, 48, 120
3, 69696, Note_on_c, 3, 53, 116
3, 69696, Note_on_c, 3, 45, 122
3, 69726, Note_off_c, 3, 57, 64
3, 69792, Note_on_c, 3, 57, 118
3, 69801, Note_off_c, 3, 60, 64
3, 69806, Note_off_c, 3, 65, 64
3, 69830, Note_off_c, 3, 45, 64
3, 69833, Note_off_c, 3, 53, 64
3, 69840, Note_off_c, 3, 48, 64
3, 69888, Note_on_c, 3, 60, 123
3, 69888, Note_on_c, 3, 65, 122
3, 69888, Note_on_c, 3, 48, 119
3, 69888, Note_on_c, 3, 45, 120
3, 69888, Note_on_c, 3, 53, 117
3, 70129, Note_off_c, 3, 60, 64
3, 70140, Note_off_c, 3, 53, 64
3, 70142, Note_off_c, 3, 45, 64
3, 70147, Note_off_c, 3, 48, 64
3, 70150, Note_off_c, 3, 65, 64
3, 70153, Note_off_c, 3, 57, 64
3, 70176, Note_on_c, 3, 48, 120
3, 70176, Note_on_c, 3, 53, 117
3, 70176, Note_on_c, 3, 65, 121
3, 70176, Note_on_c, 3, 45, 122
3, 70176, Note_on_c, 3, 57, 121
3, 70176, Note_on_c, 3, 60, 122
3, 70427, Note_off_c, 3, 53, 64
3, 70428, Note_off_c, 3, 45, 64
3, 70435, Note_off_c, 3, 48, 64
3, 70464, Note_on_c, 3, 48, 121
3, 70464, Note_on_c, 3, 53, 119
3, 70464, Note_on_c, 3, 45, 123
3, 70475, Note_off_c, 3, 57, 64
3, 70548, Note_off_c, 3, 53, 64
3, 70560, Note_on_c, 3, 57, 118
3, 70563, Note_off_c, 3, 60, 64
3, 70563, Note_off_c, 3, 48, 64
3, 70566, Note_off_c, 3, 65, 64
3, 70568, Note_off_c, 3, 45, 64
3, 70596, Note_off_c, 3, 57, 64
3, 70656, Note_on_c, 3, 43, 120
3, 70656, Note_on_c, 3, 47, 120
3, 70656, Note_on_c, 3, 55, 122
3, 70656, Note_on_c, 3, 50, 118
3, 70656, Note_on_c, 3, 59, 118
3, 70656, Note_on_c, 3, 62, 120
3, 70897, Note_off_c, 3, 62, 64
3, 70904, Note_off_c, 3, 59, 64
3, 70908, Note_off_c, 3, 43, 64
3, 70912, Note_off_c, 3, 50, 64
3, 70915, Note_off_c, 3, 55, 64
3, 70916, Note_off_c, 3, 47, 64
3, 70944, Note_on_c, 3, 50, 117
3, 70944, Note_on_c, 3, 47, 121
3, 70944, Note_on_c, 3, 43, 122
3, 70944, Note_on_c, 3, 55, 121
3, 70944, Note_on_c, 3, 59, 122
3, 70944, Note_on_c, 3, 62, 122
3, 71185, Note_off_c, 3, 43, 64
3, 71190, Note_off_c, 3, 47, 64
3, 71195, Note_off_c, 3, 50, 64
3, 71232, Note_on_c, 3, 50, 118
3, 71232, Note_on_c, 3, 47, 120
3, 71232, Note_on_c, 3, 43, 122
3, 71246, Note_off_c, 3, 55, 64
3, 71328, Note_on_c, 3, 55, 120
3, 71344, Note_off_c, 3, 62, 64
3, 71353, Note_off_c, 3, 59, 64
3, 71374, Note_off_c, 3, 43, 64
3, 71380, Note_off_c, 3, 50, 64
3, 71384, Note_off_c, 3, 47, 64
3, 71424, Note_on_c, 3, 50, 119
3, 71424, Note_on_c, 3, 47, 120
3, 71424, Note_on_c, 3, 43, 121
3, 71424, Note_on_c, 3, 59, 122
3, 71424, Note_on_c, 3, 62, 123
3, 71788, Note_off_c, 3, 43, 64
3, 71800, Note_off_c, 3, 47, 64
3, 71811, Note_off_c, 3, 50, 64
3, 71928, Note_off_c, 3, 62, 64
3, 71953, Note_off_c, 3, 59, 64
3, 71980, Note_off_c, 3, 55, 64
3, 72192, Note_on_c, 3, 41, 118
3, 72192, Note_on_c, 3, 57, 120
3, 72192, Note_on_c, 3, 65, 120
3, 72192, Note_on_c, 3, 60, 123
3, 72192, Note_on_c, 3, 53, 121
3, 72233, Note_off_c, 3, 60, 64
3, 72238, Note_off_c, 3, 57, 64
3, 72254, Note_off_c, 3, 65, 64
3, 72288, Note_on_c, 3, 65, 119
3, 72288, Note_on_c, 3, 57, 120
3, 72288, Note_on_c, 3, 60, 123
3, 72329, Note_off_c, 3, 60, 64
3, 72331, Note_off_c, 3, 57, 64
3, 72334, Note_off_c, 3, 65, 64
3, 72384, Note_on_c, 3, 57, 119
3, 72384, Note_on_c, 3, 65, 120
3, 72384, Note_on_c, 3, 60, 122
3, 72424, Note_off_c, 3, 60, 64
3, 72428, Note_off_c, 3, 65, 64
3, 72432, Note_off_c, 3, 57, 64
3, 72480, Note_on_c, 3, 65, 118
3, 72480, Note_on_c, 3, 57, 119
3, 72480, Note_on_c, 3, 60, 122
3, 72480, Note_on_c, 3, 36, 120
3, 72480, Note_on_c, 3, 48, 120
3, 72483, Note_off_c, 3, 53, 64
3, 72489, Note_off_c, 3, 41, 64
3, 72518, Note_off_c, 3, 60, 64
3, 72526, Note_off_c, 3, 65, 64
3, 72528, Note_off_c, 3, 57, 64
3, 72576, Note_on_c, 3, 65, 119
3, 72576, Note_on_c, 3, 57, 117
3, 72576, Note_on_c, 3, 60, 122
3, 72617, Note_off_c, 3, 60, 64
3, 72624, Note_off_c, 3, 57, 64
3, 72625, Note_off_c, 3, 65, 64
3, 72672, Note_on_c, 3, 65, 117
3, 72672, Note_on_c, 3, 57, 118
3, 72672, Note_on_c, 3, 60, 121
3, 72708, Note_off_c, 3, 60, 64
3, 72718, Note_off_c, 3, 57, 64
3, 72718, Note_off_c, 3, 65, 64
3, 72768, Note_on_c, 3, 65, 118
3, 72768, Note_on_c, 3, 57, 116
3, 72768, Note_on_c, 3, 60, 122
3, 72811, Note_off_c, 3, 60, 64
3, 72812, Note_off_c, 3, 57, 64
3, 72822, Note_off_c, 3, 65, 64
3, 72841, Note_off_c, 3, 36, 64
3, 72860, Note_off_c, 3, 48, 64
3, 72864, Note_on_c, 3, 65, 117
3, 72864, Note_on_c, 3, 57, 117
3, 72864, Note_on_c, 3, 60, 121
3, 72902, Note_off_c, 3, 60, 64
3, 72908, Note_off_c, 3, 65, 64
3, 72912, Note_off_c, 3, 57, 64
3, 72960, Note_on_c, 3, 43, 117
3, 72960, Note_on_c, 3, 55, 122
3, 72960, Note_on_c, 3, 59, 119
3, 72960, Note_on_c, 3, 55, 120
3, 73004, Note_off_c, 3, 59, 64
3, 73008, Note_off_c, 3, 55, 64
3, 73008, Note_on_c, 3, 62, 105
3, 73043, Note_off_c, 3, 62, 64
3, 73056, Note_on_c, 3, 55, 118
3, 73056, Note_on_c, 3, 62, 121
3, 73056, Note_on_c, 3, 59, 120
3, 73100, Note_off_c, 3, 59, 64
3, 73102, Note_off_c, 3, 62, 64
3, 73107, Note_off_c, 3, 55, 64
3, 73152, Note_on_c, 3, 55, 118
3, 73152, Note_on_c, 3, 62, 121
3, 73152, Note_on_c, 3, 59, 120
3, 73193, Note_off_c, 3, 59, 64
3, 73195, Note_off_c, 3, 62, 64
3, 73200, Note_off_c, 3, 55, 64
3, 73248, Note_on_c, 3, 55, 119
3, 73248, Note_on_c, 3, 62, 121
3, 73248, Note_on_c, 3, 59, 121
3, 73248, Note_on_c, 3, 38, 120
3, 73248, Note_on_c, 3, 50, 120
3, 73264, Note_off_c, 3, 43, 64
3, 73273, Note_off_c, 3, 55, 64
3, 73292, Note_off_c, 3, 59, 64
3, 73296, Note_off_c, 3, 62, 64
3, 73297, Note_off_c, 3, 55, 64
3, 73344, Note_on_c, 3, 55, 118
3, 73344, Note_on_c, 3, 62, 121
3, 73344, Note_on_c, 3, 59, 120
3, 73388, Note_off_c, 3, 59, 64
3, 73395, Note_off_c, 3, 62, 64
3, 73396, Note_off_c, 3, 55, 64
3, 73440, Note_on_c, 3, 55, 119
3, 73440, Note_on_c, 3, 62, 121
3, 73440, Note_on_c, 3, 59, 120
3, 73483, Note_off_c, 3, 59, 64
3, 73491, Note_off_c, 3, 62, 64
3, 73491, Note_off_c, 3, 55, 64
3, 73536, Note_on_c, 3, 62, 120
3, 73536, Note_on_c, 3, 55, 117
3, 73536, Note_on_c, 3, 59, 119
3, 73582, Note_off_c, 3, 59, 64
3, 73585, Note_off_c, 3, 55, 64
3, 73590, Note_off_c, 3, 62, 64
3, 73600, Note_off_c, 3, 50, 64
3, 73625, Note_off_c, 3, 38, 64
3, 73632, Note_on_c, 3, 55, 119
3, 73632, Note_on_c, 3, 62, 122
3, 73632, Note_on_c, 3, 59, 120
3, 73660, Note_off_c, 3, 59, 64
3, 73670, Note_off_c, 3, 55, 64
3, 73672, Note_off_c, 3, 62, 64
3, 73728, Note_on_c, 3, 65, 122
3, 73728, Note_on_c, 3, 57, 117
3, 73728, Note_on_c, 3, 60, 118
3, 73728, Note_on_c, 3, 41, 117
3, 73728, Note_on_c, 3, 53, 122
3, 73782, Note_off_c, 3, 60, 64
3, 73785, Note_off_c, 3, 57, 64
3, 73788, Note_off_c, 3, 65, 64
3, 73824, Note_on_c, 3, 57, 118
3, 73824, Note_on_c, 3, 65, 115
3, 73824, Note_on_c, 3, 60, 121
3, 73870, Note_off_c, 3, 60, 64
3, 73870, Note_off_c, 3, 65, 64
3, 73878, Note_off_c, 3, 57, 64
3, 73920, Note_on_c, 3, 65, 116
3, 73920, Note_on_c, 3, 60, 121
3, 73920, Note_on_c, 3, 57, 116
3, 73964, Note_off_c, 3, 57, 64
3, 73964, Note_off_c, 3, 60, 64
3, 73972, Note_off_c, 3, 65, 64
3, 74016, Note_on_c, 3, 65, 116
3, 74016, Note_on_c, 3, 60, 121
3, 74016, Note_on_c, 3, 57, 119
3, 74016, Note_on_c, 3, 36, 119
3, 74016, Note_on_c, 3, 48, 121
3, 74019, Note_off_c, 3, 41, 64
3, 74036, Note_off_c, 3, 53, 64
3, 74059, Note_off_c, 3, 60, 64
3, 74064, Note_off_c, 3, 57, 64
3, 74067, Note_off_c, 3, 65, 64
3, 74112, Note_on_c, 3, 65, 116
3, 74112, Note_on_c, 3, 60, 121
3, 74112, Note_on_c, 3, 57, 117
3, 74155, Note_off_c, 3, 60, 64
3, 74156, Note_off_c, 3, 57, 64
3, 74163, Note_off_c, 3, 65, 64
3, 74208, Note_on_c, 3, 65, 119
3, 74208, Note_on_c, 3, 57, 116
3, 74208, Note_on_c, 3, 60, 120
3, 74244, Note_off_c, 3, 60, 64
3, 74251, Note_off_c, 3, 57, 64
3, 74260, Note_off_c, 3, 65, 64
3, 74304, Note_on_c, 3, 65, 118
3, 74304, Note_on_c, 3, 60, 120
3, 74304, Note_on_c, 3, 57, 115
3, 74348, Note_off_c, 3, 60, 64
3, 74355, Note_off_c, 3, 57, 64
3, 74358, Note_off_c, 3, 65, 64
3, 74363, Note_off_c, 3, 36, 64
3, 74377, Note_off_c, 3, 48, 64
3, 74400, Note_on_c, 3, 65, 117
3, 74400, Note_on_c, 3, 60, 122
3, 74400, Note_on_c, 3, 57, 116
3, 74438, Note_off_c, 3, 60, 64
3, 74443, Note_off_c, 3, 65, 64
3, 74443, Note_off_c, 3, 57, 64
3, 74496, Note_on_c, 3, 43, 120
3, 74496, Note_on_c, 3, 55, 121
3, 74496, Note_on_c, 3, 59, 117
3, 74496, Note_on_c, 3, 55, 117
3, 74496, Note_on_c, 3, 62, 116
3, 74534, Note_off_c, 3, 62, 64
3, 74545, Note_off_c, 3, 59, 64
3, 74545, Note_off_c, 3, 55, 64
3, 74592, Note_on_c, 3, 59, 120
3, 74592, Note_on_c, 3, 55, 117
3, 74592, Note_on_c, 3, 62, 120
3, 74636, Note_off_c, 3, 62, 64
3, 74638, Note_off_c, 3, 55, 64
3, 74640, Note_off_c, 3, 59, 64
3, 74688, Note_on_c, 3, 59, 120
3, 74688, Note_on_c, 3, 55, 117
3, 74688, Note_on_c, 3, 62, 120
3, 74731, Note_off_c, 3, 62, 64
3, 74737, Note_off_c, 3, 59, 64
3, 74739, Note_off_c, 3, 55, 64
3, 74784, Note_on_c, 3, 38, 119
3, 74784, Note_on_c, 3, 59, 120
3, 74784, Note_on_c, 3, 55, 117
3, 74784, Note_on_c, 3, 62, 120
3, 74784, Note_on_c, 3, 50, 120
3, 74792, Note_off_c, 3, 43, 64
3, 74800, Note_off_c, 3, 55, 64
3, 74827, Note_off_c, 3, 62, 64
3, 74830, Note_off_c, 3, 59, 64
3, 74833, Note_off_c, 3, 55, 64
3, 74880, Note_on_c, 3, 59, 120
3, 74880, Note_on_c, 3, 62, 120
3, 74880, Note_on_c, 3, 55, 116
3, 74924, Note_off_c, 3, 62, 64
3, 74926, Note_off_c, 3, 59, 64
3, 74929, Note_off_c, 3, 55, 64
3, 74976, Note_on_c, 3, 55, 118
3, 74976, Note_on_c, 3, 59, 120
3, 74976, Note_on_c, 3, 62, 120
3, 75017, Note_off_c, 3, 62, 64
3, 75019, Note_off_c, 3, 59, 64
3, 75024, Note_off_c, 3, 55, 64
3, 75072, Note_on_c, 3, 59, 120
3, 75072, Note_on_c, 3, 62, 121
3, 75072, Note_on_c, 3, 55, 117
3, 75120, Note_off_c, 3, 62, 64
3, 75121, Note_off_c, 3, 59, 64
3, 75123, Note_off_c, 3, 55, 64
3, 75126, Note_off_c, 3, 50, 64
3, 75148, Note_off_c, 3, 38, 64
3, 75168, Note_on_c, 3, 55, 119
3, 75168, Note_on_c, 3, 62, 120
3, 75168, Note_on_c, 3, 59, 119
3, 75204, Note_off_c, 3, 59, 64
3, 75208, Note_off_c, 3, 62, 64
3, 75211, Note_off_c, 3, 55, 64
3, 75264, Note_on_c, 3, 41, 117
3, 75264, Note_on_c, 3, 65, 122
3, 75264, Note_on_c, 3, 57, 118
3, 75264, Note_on_c, 3, 60, 118
3, 75264, Note_on_c, 3, 53, 123
3, 75310, Note_off_c, 3, 60, 64
3, 75316, Note_off_c, 3, 57, 64
3, 75318, Note_off_c, 3, 65, 64
3, 75360, Note_on_c, 3, 57, 118
3, 75360, Note_on_c, 3, 65, 113
3, 75360, Note_on_c, 3, 60, 121
3, 75401, Note_off_c, 3, 60, 64
3, 75401, Note_off_c, 3, 65, 64
3, 75411, Note_off_c, 3, 57, 64
3, 75456, Note_on_c, 3, 65, 115
3, 75456, Note_on_c, 3, 57, 115
3, 75456, Note_on_c, 3, 60, 121
3, 75496, Note_off_c, 3, 60, 64
3, 75499, Note_off_c, 3, 57, 64
3, 75502, Note_off_c, 3, 65, 64
3, 75548, Note_off_c, 3, 41, 64
3, 75552, Note_on_c, 3, 36, 120
3, 75552, Note_on_c, 3, 65, 113
3, 75552, Note_on_c, 3, 57, 117
3, 75552, Note_on_c, 3, 60, 121
3, 75552, Note_on_c, 3, 48, 119
3, 75555, Note_off_c, 3, 53, 64
3, 75590, Note_off_c, 3, 60, 64
3, 75600, Note_off_c, 3, 65, 64
3, 75600, Note_off_c, 3, 57, 64
3, 75648, Note_on_c, 3, 65, 115
3, 75648, Note_on_c, 3, 60, 121
3, 75648, Note_on_c, 3, 57, 116
3, 75688, Note_off_c, 3, 60, 64
3, 75689, Note_off_c, 3, 57, 64
3, 75699, Note_off_c, 3, 65, 64
3, 75744, Note_on_c, 3, 65, 115
3, 75744, Note_on_c, 3, 60, 120
3, 75744, Note_on_c, 3, 57, 117
3, 75784, Note_off_c, 3, 60, 64
3, 75788, Note_off_c, 3, 57, 64
3, 75795, Note_off_c, 3, 65, 64
3, 75840, Note_on_c, 3, 65, 111
3, 75840, Note_on_c, 3, 57, 115
3, 75840, Note_on_c, 3, 60, 118
3, 75870, Note_off_c, 3, 36, 64
3, 75880, Note_off_c, 3, 48, 64
3, 75881, Note_off_c, 3, 60, 64
3, 75891, Note_off_c, 3, 57, 64
3, 75894, Note_off_c, 3, 65, 64
3, 75936, Note_on_c, 3, 65, 117
3, 75936, Note_on_c, 3, 60, 121
3, 75936, Note_on_c, 3, 57, 115
3, 75974, Note_off_c, 3, 60, 64
3, 75977, Note_off_c, 3, 65, 64
3, 75979, Note_off_c, 3, 57, 64
3, 76032, Note_on_c, 3, 43, 119
3, 76032, Note_on_c, 3, 55, 118
3, 76032, Note_on_c, 3, 59, 117
3, 76032, Note_on_c, 3, 62, 116
3, 76032, Note_on_c, 3, 55, 122
3, 76067, Note_off_c, 3, 62, 64
3, 76078, Note_off_c, 3, 59, 64
3, 76083, Note_off_c, 3, 55, 64
3, 76128, Note_on_c, 3, 59, 121
3, 76128, Note_on_c, 3, 55, 117
3, 76128, Note_on_c, 3, 62, 121
3, 76172, Note_off_c, 3, 62, 64
3, 76172, Note_off_c, 3, 59, 64
3, 76177, Note_off_c, 3, 55, 64
3, 76224, Note_on_c, 3, 55, 117
3, 76224, Note_on_c, 3, 59, 120
3, 76224, Note_on_c, 3, 62, 120
3, 76265, Note_off_c, 3, 62, 64
3, 76267, Note_off_c, 3, 59, 64
3, 76276, Note_off_c, 3, 55, 64
3, 76316, Note_off_c, 3, 43, 64
3, 76320, Note_on_c, 3, 59, 119
3, 76320, Note_on_c, 3, 55, 117
3, 76320, Note_on_c, 3, 62, 120
3, 76320, Note_on_c, 3, 38, 117
3, 76320, Note_on_c, 3, 50, 120
3, 76334, Note_off_c, 3, 55, 64
3, 76358, Note_off_c, 3, 62, 64
3, 76360, Note_off_c, 3, 59, 64
3, 76363, Note_off_c, 3, 55, 64
3, 76416, Note_on_c, 3, 55, 117
3, 76416, Note_on_c, 3, 59, 119
3, 76416, Note_on_c, 3, 62, 120
3, 76457, Note_off_c, 3, 62, 64
3, 76459, Note_off_c, 3, 59, 64
3, 76465, Note_off_c, 3, 55, 64
3, 76512, Note_on_c, 3, 62, 119
3, 76512, Note_on_c, 3, 59, 119
3, 76512, Note_on_c, 3, 55, 114
3, 76553, Note_off_c, 3, 59, 64
3, 76556, Note_off_c, 3, 62, 64
3, 76556, Note_off_c, 3, 55, 64
3, 76608, Note_on_c, 3, 62, 120
3, 76608, Note_on_c, 3, 59, 119
3, 76608, Note_on_c, 3, 55, 115
3, 76638, Note_off_c, 3, 50, 64
3, 76651, Note_off_c, 3, 59, 64
3, 76652, Note_off_c, 3, 38, 64
3, 76656, Note_off_c, 3, 62, 64
3, 76656, Note_off_c, 3, 55, 64
3, 76704, Note_on_c, 3, 62, 120
3, 76704, Note_on_c, 3, 55, 117
3, 76704, Note_on_c, 3, 59, 120
3, 76740, Note_off_c, 3, 59, 64
3, 76745, Note_off_c, 3, 55, 64
3, 76748, Note_off_c, 3, 62, 64
3, 76800, Note_on_c, 3, 41, 115
3, 76800, Note_on_c, 3, 53, 122
3, 76800, Note_on_c, 3, 65, 121
3, 76800, Note_on_c, 3, 57, 117
3, 76800, Note_on_c, 3, 60, 119
3, 76846, Note_off_c, 3, 60, 64
3, 76851, Note_off_c, 3, 57, 64
3, 76851, Note_off_c, 3, 65, 64
3, 76896, Note_on_c, 3, 65, 116
3, 76896, Note_on_c, 3, 57, 118
3, 76896, Note_on_c, 3, 60, 121
3, 76937, Note_off_c, 3, 60, 64
3, 76947, Note_off_c, 3, 65, 64
3, 76948, Note_off_c, 3, 57, 64
3, 76992, Note_on_c, 3, 65, 114
3, 76992, Note_on_c, 3, 57, 112
3, 76992, Note_on_c, 3, 60, 121
3, 77035, Note_off_c, 3, 60, 64
3, 77044, Note_off_c, 3, 57, 64
3, 77046, Note_off_c, 3, 65, 64
3, 77088, Note_on_c, 3, 65, 111
3, 77088, Note_on_c, 3, 57, 115
3, 77088, Note_on_c, 3, 60, 121
3, 77088, Note_on_c, 3, 36, 118
3, 77088, Note_on_c, 3, 48, 119
3, 77102, Note_off_c, 3, 53, 64
3, 77102, Note_off_c, 3, 41, 64
3, 77132, Note_off_c, 3, 60, 64
3, 77137, Note_off_c, 3, 65, 64
3, 77142, Note_off_c, 3, 57, 64
3, 77184, Note_on_c, 3, 65, 115
3, 77184, Note_on_c, 3, 57, 113
3, 77184, Note_on_c, 3, 60, 120
3, 77225, Note_off_c, 3, 60, 64
3, 77232, Note_off_c, 3, 57, 64
3, 77233, Note_off_c, 3, 65, 64
3, 77280, Note_on_c, 3, 60, 120
3, 77280, Note_on_c, 3, 57, 117
3, 77280, Note_on_c, 3, 65, 114
3, 77323, Note_off_c, 3, 65, 64
3, 77323, Note_off_c, 3, 60, 64
3, 77329, Note_off_c, 3, 57, 64
3, 77376, Note_on_c, 3, 65, 112
3, 77376, Note_on_c, 3, 57, 114
3, 77376, Note_on_c, 3, 60, 121
3, 77411, Note_off_c, 3, 36, 64
3, 77417, Note_off_c, 3, 60, 64
3, 77425, Note_off_c, 3, 57, 64
3, 77428, Note_off_c, 3, 48, 64
3, 77428, Note_off_c, 3, 65, 64
3, 77472, Note_on_c, 3, 65, 113
3, 77472, Note_on_c, 3, 60, 121
3, 77472, Note_on_c, 3, 57, 114
3, 77508, Note_off_c, 3, 60, 64
3, 77515, Note_off_c, 3, 65, 64
3, 77516, Note_off_c, 3, 57, 64
3, 77568, Note_on_c, 3, 55, 118
3, 77568, Note_on_c, 3, 59, 119
3, 77568, Note_on_c, 3, 62, 117
3, 77568, Note_on_c, 3, 55, 123
3, 77568, Note_on_c, 3, 43, 120
3, 77614, Note_off_c, 3, 62, 64
3, 77616, Note_off_c, 3, 59, 64
3, 77620, Note_off_c, 3, 55, 64
3, 77664, Note_on_c, 3, 59, 120
3, 77664, Note_on_c, 3, 62, 120
3, 77664, Note_on_c, 3, 55, 115
3, 77704, Note_off_c, 3, 62, 64
3, 77707, Note_off_c, 3, 59, 64
3, 77710, Note_off_c, 3, 55, 64
3, 77760, Note_on_c, 3, 55, 113
3, 77760, Note_on_c, 3, 59, 117
3, 77760, Note_on_c, 3, 62, 118
3, 77798, Note_off_c, 3, 62, 64
3, 77803, Note_off_c, 3, 59, 64
3, 77809, Note_off_c, 3, 55, 64
3, 77841, Note_off_c, 3, 43, 64
3, 77854, Note_off_c, 3, 55, 64
3, 77856, Note_on_c, 3, 38, 120
3, 77856, Note_on_c, 3, 55, 115
3, 77856, Note_on_c, 3, 59, 119
3, 77856, Note_on_c, 3, 62, 119
3, 77856, Note_on_c, 3, 50, 120
3, 77896, Note_off_c, 3, 62, 64
3, 77899, Note_off_c, 3, 59, 64
3, 77905, Note_off_c, 3, 55, 64
3, 77952, Note_on_c, 3, 55, 118
3, 77952, Note_on_c, 3, 59, 120
3, 77952, Note_on_c, 3, 62, 120
3, 77993, Note_off_c, 3, 62, 64
3, 77993, Note_off_c, 3, 59, 64
3, 77996, Note_off_c, 3, 55, 64
3, 78048, Note_on_c, 3, 62, 120
3, 78048, Note_on_c, 3, 55, 117
3, 78048, Note_on_c, 3, 59, 119
3, 78091, Note_off_c, 3, 59, 64
3, 78091, Note_off_c, 3, 62, 64
3, 78096, Note_off_c, 3, 55, 64
3, 78144, Note_on_c, 3, 55, 115
3, 78144, Note_on_c, 3, 62, 120
3, 78144, Note_on_c, 3, 59, 120
3, 78164, Note_off_c, 3, 50, 64
3, 78182, Note_off_c, 3, 38, 64
3, 78188, Note_off_c, 3, 59, 64
3, 78190, Note_off_c, 3, 62, 64
3, 78195, Note_off_c, 3, 55, 64
3, 78240, Note_on_c, 3, 55, 119
3, 78240, Note_on_c, 3, 62, 121
3, 78240, Note_on_c, 3, 59, 121
3, 78296, Note_off_c, 3, 59, 64
3, 78302, Note_off_c, 3, 55, 64
3, 78305, Note_off_c, 3, 62, 64
3, 78336, Note_on_c, 3, 52, 117
3, 78336, Note_on_c, 3, 48, 120
3, 78336, Note_on_c, 3, 43, 106
3, 78336, Note_on_c, 3, 60, 122
3, 78336, Note_on_c, 3, 64, 122
3, 78336, Note_on_c, 3, 55, 121
3, 78356, Note_off_c, 3, 55, 64
3, 78390, Note_off_c, 3, 60, 64
3, 78393, Note_off_c, 3, 48, 64
3, 78395, Note_off_c, 3, 43, 64
3, 78398, Note_off_c, 3, 64, 64
3, 78406, Note_off_c, 3, 52, 64
3, 78528, Note_on_c, 3, 55, 120
3, 78528, Note_on_c, 3, 52, 119
3, 78528, Note_on_c, 3, 48, 121
3, 78528, Note_on_c, 3, 60, 123
3, 78528, Note_on_c, 3, 43, 121
3, 78528, Note_on_c, 3, 64, 123
3, 78593, Note_off_c, 3, 43, 64
3, 78595, Note_off_c, 3, 60, 64
3, 78596, Note_off_c, 3, 48, 64
3, 78600, Note_off_c, 3, 52, 64
3, 78604, Note_off_c, 3, 55, 64
3, 78616, Note_off_c, 3, 64, 64
3, 78720, Note_on_c, 3, 55, 120
3, 78720, Note_on_c, 3, 48, 121
3, 78720, Note_on_c, 3, 52, 120
3, 78720, Note_on_c, 3, 43, 121
3, 78720, Note_on_c, 3, 60, 123
3, 78720, Note_on_c, 3, 64, 123
3, 78779, Note_off_c, 3, 60, 64
3, 78787, Note_off_c, 3, 64, 64
3, 78788, Note_off_c, 3, 48, 64
3, 78790, Note_off_c, 3, 43, 64
3, 78792, Note_off_c, 3, 55, 64
3, 78792, Note_off_c, 3, 52, 64
3, 78912, Note_on_c, 3, 55, 121
3, 78912, Note_on_c, 3, 64, 124
3, 78912, Note_on_c, 3, 60, 123
3, 78912, Note_on_c, 3, 48, 120
3, 78912, Note_on_c, 3, 52, 118
3, 78912, Note_on_c, 3, 43, 121
3, 78976, Note_off_c, 3, 43, 64
3, 78977, Note_off_c, 3, 48, 64
3, 78977, Note_off_c, 3, 60, 64
3, 78980, Note_off_c, 3, 52, 64
3, 78987, Note_off_c, 3, 55, 64
3, 78990, Note_off_c, 3, 64, 64
3, 79104, Note_on_c, 3, 55, 121
3, 79104, Note_on_c, 3, 48, 122
3, 79104, Note_on_c, 3, 43, 121
3, 79104, Note_on_c, 3, 52, 119
3, 79104, Note_on_c, 3, 60, 124
3, 79104, Note_on_c, 3, 64, 123
3, 79168, Note_off_c, 3, 60, 64
3, 79174, Note_off_c, 3, 64, 64
3, 79180, Note_off_c, 3, 55, 64
3, 79184, Note_off_c, 3, 43, 64
3, 79184, Note_off_c, 3, 52, 64
3, 79190, Note_off_c, 3, 48, 64
3, 79296, Note_on_c, 3, 55, 120
3, 79296, Note_on_c, 3, 64, 123
3, 79296, Note_on_c, 3, 48, 122
3, 79296, Note_on_c, 3, 52, 119
3, 79296, Note_on_c, 3, 60, 124
3, 79296, Note_on_c, 3, 43, 121
3, 79360, Note_off_c, 3, 60, 64
3, 79368, Note_off_c, 3, 55, 64
3, 79371, Note_off_c, 3, 43, 64
3, 79374, Note_off_c, 3, 64, 64
3, 79376, Note_off_c, 3, 52, 64
3, 79377, Note_off_c, 3, 48, 64
3, 79488, Note_on_c, 3, 48, 122
3, 79488, Note_on_c, 3, 52, 120
3, 79488, Note_on_c, 3, 43, 121
3, 79488, Note_on_c, 3, 55, 120
3, 79488, Note_on_c, 3, 64, 123
3, 79488, Note_on_c, 3, 60, 123
3, 79555, Note_off_c, 3, 60, 64
3, 79564, Note_off_c, 3, 52, 64
3, 79568, Note_off_c, 3, 48, 64
3, 79568, Note_off_c, 3, 43, 64
3, 79571, Note_off_c, 3, 55, 64
3, 79588, Note_off_c, 3, 64, 64
3, 79680, Note_on_c, 3, 64, 123
3, 79680, Note_on_c, 3, 55, 119
3, 79680, Note_on_c, 3, 52, 121
3, 79680, Note_on_c, 3, 60, 123
3, 79680, Note_on_c, 3, 48, 123
3, 79680, Note_on_c, 3, 43, 121
3, 79734, Note_off_c, 3, 60, 64
3, 79739, Note_off_c, 3, 52, 64
3, 79740, Note_off_c, 3, 48, 64
3, 79745, Note_off_c, 3, 64, 64
3, 79748, Note_off_c, 3, 55, 64
3, 79750, Note_off_c, 3, 43, 64
3, 79872, Note_on_c, 3, 46, 125
3, 79872, Note_on_c, 3, 41, 120
3, 79872, Note_on_c, 3, 50, 114
3, 79872, Note_on_c, 3, 58, 127
3, 79872, Note_on_c, 3, 53, 120
3, 79872, Note_on_c, 3, 62, 123
3, 79934, Note_off_c, 3, 41, 64
3, 79936, Note_off_c, 3, 58, 64
3, 79937, Note_off_c, 3, 46, 64
3, 79945, Note_off_c, 3, 50, 64
3, 79947, Note_off_c, 3, 53, 64
3, 79948, Note_off_c, 3, 62, 64
3, 80064, Note_on_c, 3, 41, 120
3, 80064, Note_on_c, 3, 46, 127
3, 80064, Note_on_c, 3, 50, 118
3, 80064, Note_on_c, 3, 58, 127
3, 80064, Note_on_c, 3, 53, 119
3, 80064, Note_on_c, 3, 62, 123
3, 80137, Note_off_c, 3, 46, 64
3, 80139, Note_off_c, 3, 50, 64
3, 80139, Note_off_c, 3, 58, 64
3, 80140, Note_off_c, 3, 62, 64
3, 80144, Note_off_c, 3, 41, 64
3, 80158, Note_off_c, 3, 53, 64
3, 80256, Note_on_c, 3, 46, 126
3, 80256, Note_on_c, 3, 58, 126
3, 80256, Note_on_c, 3, 50, 118
3, 80256, Note_on_c, 3, 41, 120
3, 80256, Note_on_c, 3, 53, 118
3, 80256, Note_on_c, 3, 62, 124
3, 80324, Note_off_c, 3, 41, 64
3, 80324, Note_off_c, 3, 58, 64
3, 80328, Note_off_c, 3, 46, 64
3, 80331, Note_off_c, 3, 50, 64
3, 80331, Note_off_c, 3, 53, 64
3, 80336, Note_off_c, 3, 62, 64
3, 80448, Note_on_c, 3, 46, 126
3, 80448, Note_on_c, 3, 58, 127
3, 80448, Note_on_c, 3, 53, 120
3, 80448, Note_on_c, 3, 41, 118
3, 80448, Note_on_c, 3, 50, 118
3, 80448, Note_on_c, 3, 62, 124
3, 80499, Note_off_c, 3, 41, 64
3, 80513, Note_off_c, 3, 58, 64
3, 80515, Note_off_c, 3, 46, 64
3, 80516, Note_off_c, 3, 53, 64
3, 80518, Note_off_c, 3, 50, 64
3, 80521, Note_off_c, 3, 62, 64
3, 80640, Note_on_c, 3, 55, 121
3, 80640, Note_on_c, 3, 59, 124
3, 80640, Note_on_c, 3, 47, 121
3, 80640, Note_on_c, 3, 43, 121
3, 80640, Note_on_c, 3, 50, 118
3, 80640, Note_on_c, 3, 62, 123
3, 80702, Note_off_c, 3, 62, 64
3, 80702, Note_off_c, 3, 59, 64
3, 80707, Note_off_c, 3, 55, 64
3, 80716, Note_off_c, 3, 47, 64
3, 80718, Note_off_c, 3, 43, 64
3, 80720, Note_off_c, 3, 50, 64
3, 80832, Note_on_c, 3, 47, 122
3, 80832, Note_on_c, 3, 50, 119
3, 80832, Note_on_c, 3, 43, 122
3, 80832, Note_on_c, 3, 55, 120
3, 80832, Note_on_c, 3, 59, 124
3, 80832, Note_on_c, 3, 62, 124
3, 80894, Note_off_c, 3, 59, 64
3, 80902, Note_off_c, 3, 55, 64
3, 80904, Note_off_c, 3, 43, 64
3, 80904, Note_off_c, 3, 47, 64
3, 80904, Note_off_c, 3, 62, 64
3, 80907, Note_off_c, 3, 50, 64
3, 81024, Note_on_c, 3, 62, 124
3, 81024, Note_on_c, 3, 59, 124
3, 81024, Note_on_c, 3, 55, 119
3, 81024, Note_on_c, 3, 47, 122
3, 81024, Note_on_c, 3, 50, 118
3, 81024, Note_on_c, 3, 43, 122
3, 81086, Note_off_c, 3, 59, 64
3, 81088, Note_off_c, 3, 62, 64
3, 81088, Note_off_c, 3, 55, 64
3, 81094, Note_off_c, 3, 50, 64
3, 81094, Note_off_c, 3, 43, 64
3, 81097, Note_off_c, 3, 47, 64
3, 81216, Note_on_c, 3, 55, 121
3, 81216, Note_on_c, 3, 47, 123
3, 81216, Note_on_c, 3, 50, 119
3, 81216, Note_on_c, 3, 43, 123
3, 81216, Note_on_c, 3, 59, 124
3, 81216, Note_on_c, 3, 62, 124
3, 81259, Note_off_c, 3, 62, 64
3, 81260, Note_off_c, 3, 59, 64
3, 81270, Note_off_c, 3, 55, 64
3, 81305, Note_off_c, 3, 47, 64
3, 81312, Note_off_c, 3, 43, 64
3, 81312, Note_on_c, 3, 55, 120
3, 81312, Note_on_c, 3, 59, 122
3, 81312, Note_on_c, 3, 62, 122
3, 81315, Note_off_c, 3, 50, 64
3, 81353, Note_off_c, 3, 62, 64
3, 81356, Note_off_c, 3, 59, 64
3, 81363, Note_off_c, 3, 55, 64
3, 81408, Note_on_c, 3, 48, 124
3, 81408, Note_on_c, 3, 52, 122
3, 81408, Note_on_c, 3, 43, 122
3, 81408, Note_on_c, 3, 60, 123
3, 81408, Note_on_c, 3, 55, 121
3, 81408, Note_on_c, 3, 64, 123
3, 81481, Note_off_c, 3, 64, 64
3, 81481, Note_off_c, 3, 60, 64
3, 81484, Note_off_c, 3, 43, 64
3, 81486, Note_off_c, 3, 52, 64
3, 81488, Note_off_c, 3, 48, 64
3, 81492, Note_off_c, 3, 55, 64
3, 81600, Note_on_c, 3, 52, 123
3, 81600, Note_on_c, 3, 48, 124
3, 81600, Note_on_c, 3, 43, 123
3, 81600, Note_on_c, 3, 55, 121
3, 81600, Note_on_c, 3, 64, 123
3, 81600, Note_on_c, 3, 60, 122
3, 81660, Note_off_c, 3, 60, 64
3, 81664, Note_off_c, 3, 64, 64
3, 81675, Note_off_c, 3, 43, 64
3, 81675, Note_off_c, 3, 48, 64
3, 81675, Note_off_c, 3, 52, 64
3, 81676, Note_off_c, 3, 55, 64
3, 81792, Note_on_c, 3, 48, 121
3, 81792, Note_on_c, 3, 43, 122
3, 81792, Note_on_c, 3, 52, 118
3, 81792, Note_on_c, 3, 55, 120
3, 81792, Note_on_c, 3, 64, 123
3, 81792, Note_on_c, 3, 60, 123
3, 81856, Note_off_c, 3, 60, 64
3, 81862, Note_off_c, 3, 64, 64
3, 81867, Note_off_c, 3, 55, 64
3, 81868, Note_off_c, 3, 52, 64
3, 81870, Note_off_c, 3, 48, 64
3, 81872, Note_off_c, 3, 43, 64
3, 81984, Note_on_c, 3, 43, 120
3, 81984, Note_on_c, 3, 48, 122
3, 81984, Note_on_c, 3, 52, 120
3, 81984, Note_on_c, 3, 64, 123
3, 81984, Note_on_c, 3, 55, 119
3, 81984, Note_on_c, 3, 60, 124
3, 82060, Note_off_c, 3, 60, 64
3, 82060, Note_off_c, 3, 52, 64
3, 82062, Note_off_c, 3, 48, 64
3, 82070, Note_off_c, 3, 43, 64
3, 82072, Note_off_c, 3, 64, 64
3, 82078, Note_off_c, 3, 55, 64
3, 82176, Note_on_c, 3, 55, 121
3, 82176, Note_on_c, 3, 43, 120
3, 82176, Note_on_c, 3, 52, 120
3, 82176, Note_on_c, 3, 48, 123
3, 82176, Note_on_c, 3, 64, 122
3, 82176, Note_on_c, 3, 60, 124
3, 82243, Note_off_c, 3, 60, 64
3, 82256, Note_off_c, 3, 64, 64
3, 82259, Note_off_c, 3, 52, 64
3, 82259, Note_off_c, 3, 55, 64
3, 82260, Note_off_c, 3, 48, 64
3, 82262, Note_off_c, 3, 43, 64
3, 82368, Note_on_c, 3, 43, 121
3, 82368, Note_on_c, 3, 52, 118
3, 82368, Note_on_c, 3, 48, 122
3, 82368, Note_on_c, 3, 55, 120
3, 82368, Note_on_c, 3, 64, 121
3, 82368, Note_on_c, 3, 60, 124
3, 82435, Note_off_c, 3, 60, 64
3, 82444, Note_off_c, 3, 64, 64
3, 82448, Note_off_c, 3, 55, 64
3, 82449, Note_off_c, 3, 52, 64
3, 82452, Note_off_c, 3, 48, 64
3, 82454, Note_off_c, 3, 43, 64
3, 82560, Note_on_c, 3, 52, 119
3, 82560, Note_on_c, 3, 43, 121
3, 82560, Note_on_c, 3, 48, 123
3, 82560, Note_on_c, 3, 64, 121
3, 82560, Note_on_c, 3, 55, 120
3, 82560, Note_on_c, 3, 60, 124
3, 82625, Note_off_c, 3, 60, 64
3, 82633, Note_off_c, 3, 55, 64
3, 82640, Note_off_c, 3, 64, 64
3, 82641, Note_off_c, 3, 48, 64
3, 82641, Note_off_c, 3, 52, 64
3, 82643, Note_off_c, 3, 43, 64
3, 82752, Note_on_c, 3, 52, 120
3, 82752, Note_on_c, 3, 48, 122
3, 82752, Note_on_c, 3, 64, 120
3, 82752, Note_on_c, 3, 55, 120
3, 82752, Note_on_c, 3, 60, 124
3, 82752, Note_on_c, 3, 43, 122
3, 82809, Note_off_c, 3, 64, 64
3, 82812, Note_off_c, 3, 60, 64
3, 82817, Note_off_c, 3, 52, 64
3, 82819, Note_off_c, 3, 48, 64
3, 82827, Note_off_c, 3, 55, 64
3, 82828, Note_off_c, 3, 43, 64
3, 82944, Note_on_c, 3, 41, 115
3, 82944, Note_on_c, 3, 46, 123
3, 82944, Note_on_c, 3, 50, 117
3, 82944, Note_on_c, 3, 58, 127
3, 82944, Note_on_c, 3, 53, 120
3, 82944, Note_on_c, 3, 62, 125
3, 83012, Note_off_c, 3, 46, 64
3, 83014, Note_off_c, 3, 41, 64
3, 83014, Note_off_c, 3, 58, 64
3, 83019, Note_off_c, 3, 62, 64
3, 83020, Note_off_c, 3, 50, 64
3, 83022, Note_off_c, 3, 53, 64
3, 83136, Note_on_c, 3, 41, 119
3, 83136, Note_on_c, 3, 46, 126
3, 83136, Note_on_c, 3, 58, 126
3, 83136, Note_on_c, 3, 50, 115
3, 83136, Note_on_c, 3, 53, 118
3, 83136, Note_on_c, 3, 62, 123
3, 83211, Note_off_c, 3, 58, 64
3, 83216, Note_off_c, 3, 46, 64
3, 83216, Note_off_c, 3, 41, 64
3, 83216, Note_off_c, 3, 50, 64
3, 83216, Note_off_c, 3, 62, 64
3, 83217, Note_off_c, 3, 53, 64
3, 83328, Note_on_c, 3, 41, 121
3, 83328, Note_on_c, 3, 46, 126
3, 83328, Note_on_c, 3, 50, 119
3, 83328, Note_on_c, 3, 58, 126
3, 83328, Note_on_c, 3, 53, 119
3, 83328, Note_on_c, 3, 62, 124
3, 83400, Note_off_c, 3, 58, 64
3, 83404, Note_off_c, 3, 46, 64
3, 83404, Note_off_c, 3, 41, 64
3, 83404, Note_off_c, 3, 62, 64
3, 83406, Note_off_c, 3, 50, 64
3, 83406, Note_off_c, 3, 53, 64
3, 83520, Note_on_c, 3, 46, 125
3, 83520, Note_on_c, 3, 41, 119
3, 83520, Note_on_c, 3, 50, 118
3, 83520, Note_on_c, 3, 58, 126
3, 83520, Note_on_c, 3, 53, 120
3, 83520, Note_on_c, 3, 62, 124
3, 83585, Note_off_c, 3, 53, 64
3, 83585, Note_off_c, 3, 58, 64
3, 83593, Note_off_c, 3, 41, 64
3, 83595, Note_off_c, 3, 50, 64
3, 83595, Note_off_c, 3, 62, 64
3, 83600, Note_off_c, 3, 46, 64
3, 83616, Note_on_c, 3, 43, 124
3, 83616, Note_on_c, 3, 47, 124
3, 83616, Note_on_c, 3, 50, 124
3, 83664, Note_off_c, 3, 50, 64
3, 83664, Note_off_c, 3, 47, 64
3, 83664, Note_off_c, 3, 43, 64
3, 83664, Note_on_c, 3, 55, 124
3, 83664, Note_on_c, 3, 59, 124
3, 83664, Note_on_c, 3, 62, 124
3, 83712, Note_off_c, 3, 59, 64
3, 83712, Note_off_c, 3, 55, 64
3, 83712, Note_on_c, 3, 55, 121
3, 83712, Note_on_c, 3, 59, 124
3, 83712, Note_on_c, 3, 47, 121
3, 83712, Note_on_c, 3, 43, 121
3, 83712, Note_on_c, 3, 50, 118
3, 83712, Note_on_c, 3, 62, 123
3, 83713, Note_off_c, 3, 62, 64
3, 83774, Note_off_c, 3, 59, 64
3, 83774, Note_off_c, 3, 62, 64
3, 83779, Note_off_c, 3, 55, 64
3, 83788, Note_off_c, 3, 47, 64
3, 83790, Note_off_c, 3, 43, 64
3, 83792, Note_off_c, 3, 50, 64
3, 83904, Note_on_c, 3, 47, 122
3, 83904, Note_on_c, 3, 50, 119
3, 83904, Note_on_c, 3, 43, 122
3, 83904, Note_on_c, 3, 55, 120
3, 83904, Note_on_c, 3, 59, 124
3, 83904, Note_on_c, 3, 62, 124
3, 83966, Note_off_c, 3, 59, 64
3, 83974, Note_off_c, 3, 55, 64
3, 83976, Note_off_c, 3, 43, 64
3, 83976, Note_off_c, 3, 47, 64
3, 83976, Note_off_c, 3, 62, 64
3, 83979, Note_off_c, 3, 50, 64
3, 84096, Note_on_c, 3, 62, 124
3, 84096, Note_on_c, 3, 59, 124
3, 84096, Note_on_c, 3, 55, 119
3, 84096, Note_on_c, 3, 47, 122
3, 84096, Note_on_c, 3, 50, 118
3, 84096, Note_on_c, 3, 43, 122
3, 84158, Note_off_c, 3, 59, 64
3, 84160, Note_off_c, 3, 62, 64
3, 84160, Note_off_c, 3, 55, 64
3, 84166, Note_off_c, 3, 50, 64
3, 84166, Note_off_c, 3, 43, 64
3, 84169, Note_off_c, 3, 47, 64
3, 84288, Note_on_c, 3, 55, 121
3, 84288, Note_on_c, 3, 47, 123
3, 84288, Note_on_c, 3, 50, 119
3, 84288, Note_on_c, 3, 43, 123
3, 84288, Note_on_c, 3, 59, 124
3, 84288, Note_on_c, 3, 62, 124
3, 84331, Note_off_c, 3, 62, 64
3, 84332, Note_off_c, 3, 59, 64
3, 84342, Note_off_c, 3, 55, 64
3, 84377, Note_off_c, 3, 47, 64
3, 84384, Note_off_c, 3, 43, 64
3, 84384, Note_on_c, 3, 55, 120
3, 84384, Note_on_c, 3, 59, 122
3, 84384, Note_on_c, 3, 62, 122
3, 84387, Note_off_c, 3, 50, 64
3, 84425, Note_off_c, 3, 62, 64
3, 84428, Note_off_c, 3, 59, 64
3, 84435, Note_off_c, 3, 55, 64
3, 84480, Note_on_c, 3, 48, 118
3, 84480, Note_on_c, 3, 57, 119
3, 84480, Note_on_c, 3, 65, 123
3, 84480, Note_on_c, 3, 45, 120
3, 84480, Note_on_c, 3, 60, 123
3, 84480, Note_on_c, 3, 53, 114
3, 84697, Note_off_c, 3, 60, 64
3, 84702, Note_off_c, 3, 65, 64
3, 84718, Note_off_c, 3, 45, 64
3, 84721, Note_off_c, 3, 57, 64
3, 84723, Note_off_c, 3, 53, 64
3, 84728, Note_off_c, 3, 48, 64
3, 84768, Note_on_c, 3, 53, 118
3, 84768, Note_on_c, 3, 45, 120
3, 84768, Note_on_c, 3, 48, 119
3, 84768, Note_on_c, 3, 65, 122
3, 84768, Note_on_c, 3, 57, 121
3, 84768, Note_on_c, 3, 60, 122
3, 85014, Note_off_c, 3, 45, 64
3, 85020, Note_off_c, 3, 53, 64
3, 85020, Note_off_c, 3, 48, 64
3, 85056, Note_on_c, 3, 48, 120
3, 85056, Note_on_c, 3, 53, 116
3, 85056, Note_on_c, 3, 45, 122
3, 85086, Note_off_c, 3, 57, 64
3, 85152, Note_on_c, 3, 57, 118
3, 85161, Note_off_c, 3, 60, 64
3, 85166, Note_off_c, 3, 65, 64
3, 85190, Note_off_c, 3, 45, 64
3, 85193, Note_off_c, 3, 53, 64
3, 85200, Note_off_c, 3, 48, 64
3, 85248, Note_on_c, 3, 60, 123
3, 85248, Note_on_c, 3, 65, 122
3, 85248, Note_on_c, 3, 48, 119
3, 85248, Note_on_c, 3, 45, 120
3, 85248, Note_on_c, 3, 53, 117
3, 85489, Note_off_c, 3, 60, 64
3, 85500, Note_off_c, 3, 53, 64
3, 85502, Note_off_c, 3, 45, 64
3, 85507, Note_off_c, 3, 48, 64
3, 85510, Note_off_c, 3, 65, 64
3, 85513, Note_off_c, 3, 57, 64
3, 85536, Note_on_c, 3, 48, 120
3, 85536, Note_on_c, 3, 53, 117
3, 85536, Note_on_c, 3, 65, 121
3, 85536, Note_on_c, 3, 45, 122
3, 85536, Note_on_c, 3, 57, 121
3, 85536, Note_on_c, 3, 60, 122
3, 85787, Note_off_c, 3, 53, 64
3, 85788, Note_off_c, 3, 45, 64
3, 85795, Note_off_c, 3, 48, 64
3, 85824, Note_on_c, 3, 48, 121
3, 85824, Note_on_c, 3, 53, 119
3, 85824, Note_on_c, 3, 45, 123
3, 85835, Note_off_c, 3, 57, 64
3, 85908, Note_off_c, 3, 53, 64
3, 85920, Note_on_c, 3, 57, 118
3, 85923, Note_off_c, 3, 60, 64
3, 85923, Note_off_c, 3, 48, 64
3, 85926, Note_off_c, 3, 65, 64
3, 85928, Note_off_c, 3, 45, 64
3, 85956, Note_off_c, 3, 57, 64
3, 86016, Note_on_c, 3, 43, 120
3, 86016, Note_on_c, 3, 47, 120
3, 86016, Note_on_c, 3, 55, 122
3, 86016, Note_on_c, 3, 50, 118
3, 86016, Note_on_c, 3, 59, 118
3, 86016, Note_on_c, 3, 62, 120
3, 86257, Note_off_c, 3, 62, 64
3, 86264, Note_off_c, 3, 59, 64
3, 86268, Note_off_c, 3, 43, 64
3, 86272, Note_off_c, 3, 50, 64
3, 86275, Note_off_c, 3, 55, 64
3, 86276, Note_off_c, 3, 47, 64
3, 86304, Note_on_c, 3, 50, 117
3, 86304, Note_on_c, 3, 47, 121
3, 86304, Note_on_c, 3, 43, 122
3, 86304, Note_on_c, 3, 55, 121
3, 86304, Note_on_c, 3, 59, 122
3, 86304, Note_on_c, 3, 62, 122
3, 86545, Note_off_c, 3, 43, 64
3, 86550, Note_off_c, 3, 47, 64
3, 86555, Note_off_c, 3, 50, 64
3, 86592, Note_on_c, 3, 50, 118
3, 86592, Note_on_c, 3, 47, 120
3, 86592, Note_on_c, 3, 43, 122
3, 86606, Note_off_c, 3, 55, 64
3, 86688, Note_on_c, 3, 55, 120
3, 86704, Note_off_c, 3, 62, 64
3, 86713, Note_off_c, 3, 59, 64
3, 86734, Note_off_c, 3, 43, 64
3, 86740, Note_off_c, 3, 50, 64
3, 86744, Note_off_c, 3, 47, 64
3, 86784, Note_on_c, 3, 50, 119
3, 86784, Note_on_c, 3, 47, 120
3, 86784, Note_on_c, 3, 43, 121
3, 86784, Note_on_c, 3, 59, 122
3, 86784, Note_on_c, 3, 62, 123
3, 87148, Note_off_c, 3, 43, 64
3, 87160, Note_off_c, 3, 47, 64
3, 87171, Note_off_c, 3, 50, 64
3, 87288, Note_off_c, 3, 62, 64
3, 87313, Note_off_c, 3, 59, 64
3, 87340, Note_off_c, 3, 55, 64
3, 87552, Note_on_c, 3, 41, 118
3, 87552, Note_on_c, 3, 57, 120
3, 87552, Note_on_c, 3, 65, 120
3, 87552, Note_on_c, 3, 60, 123
3, 87552, Note_on_c, 3, 53, 121
3, 87593, Note_off_c, 3, 60, 64
3, 87598, Note_off_c, 3, 57, 64
3, 87614, Note_off_c, 3, 65, 64
3, 87648, Note_on_c, 3, 65, 119
3, 87648, Note_on_c, 3, 57, 120
3, 87648, Note_on_c, 3, 60, 123
3, 87689, Note_off_c, 3, 60, 64
3, 87691, Note_off_c, 3, 57, 64
3, 87694, Note_off_c, 3, 65, 64
3, 87744, Note_on_c, 3, 57, 119
3, 87744, Note_on_c, 3, 65, 120
3, 87744, Note_on_c, 3, 60, 122
3, 87784, Note_off_c, 3, 60, 64
3, 87788, Note_off_c, 3, 65, 64
3, 87792, Note_off_c, 3, 57, 64
3, 87840, Note_on_c, 3, 65, 118
3, 87840, Note_on_c, 3, 57, 119
3, 87840, Note_on_c, 3, 60, 122
3, 87840, Note_on_c, 3, 36, 120
3, 87840, Note_on_c, 3, 48, 120
3, 87843, Note_off_c, 3, 53, 64
3, 87849, Note_off_c, 3, 41, 64
3, 87878, Note_off_c, 3, 60, 64
3, 87886, Note_off_c, 3, 65, 64
3, 87888, Note_off_c, 3, 57, 64
3, 87936, Note_on_c, 3, 65, 119
3, 87936, Note_on_c, 3, 57, 117
3, 87936, Note_on_c, 3, 60, 122
3, 87977, Note_off_c, 3, 60, 64
3, 87984, Note_off_c, 3, 57, 64
3, 87985, Note_off_c, 3, 65, 64
3, 88032, Note_on_c, 3, 65, 117
3, 88032, Note_on_c, 3, 57, 118
3, 88032, Note_on_c, 3, 60, 121
3, 88068, Note_off_c, 3, 60, 64
3, 88078, Note_off_c, 3, 57, 64
3, 88078, Note_off_c, 3, 65, 64
3, 88128, Note_on_c, 3, 65, 118
3, 88128, Note_on_c, 3, 57, 116
3, 88128, Note_on_c, 3, 60, 122
3, 88171, Note_off_c, 3, 60, 64
3, 88172, Note_off_c, 3, 57, 64
3, 88182, Note_off_c, 3, 65, 64
3, 88201, Note_off_c, 3, 36, 64
3, 88220, Note_off_c, 3, 48, 64
3, 88224, Note_on_c, 3, 65, 117
3, 88224, Note_on_c, 3, 57, 117
3, 88224, Note_on_c, 3, 60, 121
3, 88262, Note_off_c, 3, 60, 64
3, 88268, Note_off_c, 3, 65, 64
3, 88272, Note_off_c, 3, 57, 64
3, 88320, Note_on_c, 3, 43, 117
3, 88320, Note_on_c, 3, 55, 122
3, 88320, Note_on_c, 3, 59, 119
3, 88320, Note_on_c, 3, 55, 120
3, 88364, Note_off_c, 3, 59, 64
3, 88368, Note_off_c, 3, 55, 64
3, 88368, Note_on_c, 3, 62, 105
3, 88403, Note_off_c, 3, 62, 64
3, 88416, Note_on_c, 3, 55, 118
3, 88416, Note_on_c, 3, 62, 121
3, 88416, Note_on_c, 3, 59, 120
3, 88460, Note_off_c, 3, 59, 64
3, 88462, Note_off_c, 3, 62, 64
3, 88467, Note_off_c, 3, 55, 64
3, 88512, Note_on_c, 3, 55, 118
3, 88512, Note_on_c, 3, 62, 121
3, 88512, Note_on_c, 3, 59, 120
3, 88553, Note_off_c, 3, 59, 64
3, 88555, Note_off_c, 3, 62, 64
3, 88560, Note_off_c, 3, 55, 64
3, 88608, Note_on_c, 3, 55, 119
3, 88608, Note_on_c, 3, 62, 121
3, 88608, Note_on_c, 3, 59, 121
3, 88608, Note_on_c, 3, 38, 120
3, 88608, Note_on_c, 3, 50, 120
3, 88624, Note_off_c, 3, 43, 64
3, 88633, Note_off_c, 3, 55, 64
3, 88652, Note_off_c, 3, 59, 64
3, 88656, Note_off_c, 3, 62, 64
3, 88657, Note_off_c, 3, 55, 64
3, 88704, Note_on_c, 3, 55, 118
3, 88704, Note_on_c, 3, 62, 121
3, 88704, Note_on_c, 3, 59, 120
3, 88748, Note_off_c, 3, 59, 64
3, 88755, Note_off_c, 3, 62, 64
3, 88756, Note_off_c, 3, 55, 64
3, 88800, Note_on_c, 3, 55, 119
3, 88800, Note_on_c, 3, 62, 121
3, 88800, Note_on_c, 3, 59, 120
3, 88843, Note_off_c, 3, 59, 64
3, 88851, Note_off_c, 3, 62, 64
3, 88851, Note_off_c, 3, 55, 64
3, 88896, Note_on_c, 3, 62, 120
3, 88896, Note_on_c, 3, 55, 117
3, 88896, Note_on_c, 3, 59, 119
3, 88942, Note_off_c, 3, 59, 64
3, 88945, Note_off_c, 3, 55, 64
3, 88950, Note_off_c, 3, 62, 64
3, 88960, Note_off_c, 3, 50, 64
3, 88985, Note_off_c, 3, 38, 64
3, 88992, Note_on_c, 3, 55, 119
3, 88992, Note_on_c, 3, 62, 122
3, 88992, Note_on_c, 3, 59, 120
3, 89020, Note_off_c, 3, 59, 64
3, 89030, Note_off_c, 3, 55, 64
3, 89032, Note_off_c, 3, 62, 64
3, 89088, Note_on_c, 3, 65, 122
3, 89088, Note_on_c, 3, 57, 117
3, 89088, Note_on_c, 3, 60, 118
3, 89088, Note_on_c, 3, 41, 117
3, 89088, Note_on_c, 3, 53, 122
3, 89142, Note_off_c, 3, 60, 64
3, 89145, Note_off_c, 3, 57, 64
3, 89148, Note_off_c, 3, 65, 64
3, 89184, Note_on_c, 3, 57, 118
3, 89184, Note_on_c, 3, 65, 115
3, 89184, Note_on_c, 3, 60, 121
3, 89230, Note_off_c, 3, 60, 64
3, 89230, Note_off_c, 3, 65, 64
3, 89238, Note_off_c, 3, 57, 64
3, 89280, Note_on_c, 3, 65, 116
3, 89280, Note_on_c, 3, 60, 121
3, 89280, Note_on_c, 3, 57, 116
3, 89324, Note_off_c, 3, 57, 64
3, 89324, Note_off_c, 3, 60, 64
3, 89332, Note_off_c, 3, 65, 64
3, 89376, Note_on_c, 3, 65, 116
3, 89376, Note_on_c, 3, 60, 121
3, 89376, Note_on_c, 3, 57, 119
3, 89376, Note_on_c, 3, 36, 119
3, 89376, Note_on_c, 3, 48, 121
3, 89379, Note_off_c, 3, 41, 64
3, 89396, Note_off_c, 3, 53, 64
3, 89419, Note_off_c, 3, 60, 64
3, 89424, Note_off_c, 3, 57, 64
3, 89427, Note_off_c, 3, 65, 64
3, 89472, Note_on_c, 3, 65, 116
3, 89472, Note_on_c, 3, 60, 121
3, 89472, Note_on_c, 3, 57, 117
3, 89515, Note_off_c, 3, 60, 64
3, 89516, Note_off_c, 3, 57, 64
3, 89523, Note_off_c, 3, 65, 64
3, 89568, Note_on_c, 3, 65, 119
3, 89568, Note_on_c, 3, 57, 116
3, 89568, Note_on_c, 3, 60, 120
3, 89604, Note_off_c, 3, 60, 64
3, 89611, Note_off_c, 3, 57, 64
3, 89620, Note_off_c, 3, 65, 64
3, 89664, Note_on_c, 3, 65, 118
3, 89664, Note_on_c, 3, 60, 120
3, 89664, Note_on_c, 3, 57, 115
3, 89708, Note_off_c, 3, 60, 64
3, 89715, Note_off_c, 3, 57, 64
3, 89718, Note_off_c, 3, 65, 64
3, 89723, Note_off_c, 3, 36, 64
3, 89737, Note_off_c, 3, 48, 64
3, 89760, Note_on_c, 3, 65, 117
3, 89760, Note_on_c, 3, 60, 122
3, 89760, Note_on_c, 3, 57, 116
3, 89798, Note_off_c, 3, 60, 64
3, 89803, Note_off_c, 3, 65, 64
3, 89803, Note_off_c, 3, 57, 64
3, 89856, Note_on_c, 3, 43, 120
3, 89856, Note_on_c, 3, 55, 121
3, 89856, Note_on_c, 3, 59, 117
3, 89856, Note_on_c, 3, 55, 117
3, 89856, Note_on_c, 3, 62, 116
3, 89894, Note_off_c, 3, 62, 64
3, 89905, Note_off_c, 3, 59, 64
3, 89905, Note_off_c, 3, 55, 64
3, 89952, Note_on_c, 3, 59, 120
3, 89952, Note_on_c, 3, 55, 117
3, 89952, Note_on_c, 3, 62, 120
3, 89996, Note_off_c, 3, 62, 64
3, 89998, Note_off_c, 3, 55, 64
3, 90000, Note_off_c, 3, 59, 64
3, 90048, Note_on_c, 3, 59, 120
3, 90048, Note_on_c, 3, 55, 117
3, 90048, Note_on_c, 3, 62, 120
3, 90091, Note_off_c, 3, 62, 64
3, 90097, Note_off_c, 3, 59, 64
3, 90099, Note_off_c, 3, 55, 64
3, 90144, Note_on_c, 3, 38, 119
3, 90144, Note_on_c, 3, 59, 120
3, 90144, Note_on_c, 3, 55, 117
3, 90144, Note_on_c, 3, 62, 120
3, 90144, Note_on_c, 3, 50, 120
3, 90152, Note_off_c, 3, 43, 64
3, 90160, Note_off_c, 3, 55, 64
3, 90187, Note_off_c, 3, 62, 64
3, 90190, Note_off_c, 3, 59, 64
3, 90193, Note_off_c, 3, 55, 64
3, 90240, Note_on_c, 3, 59, 120
3, 90240, Note_on_c, 3, 62, 120
3, 90240, Note_on_c, 3, 55, 116
3, 90284, Note_off_c, 3, 62, 64
3, 90286, Note_off_c, 3, 59, 64
3, 90289, Note_off_c, 3, 55, 64
3, 90336, Note_on_c, 3, 55, 118
3, 90336, Note_on_c, 3, 59, 120
3, 90336, Note_on_c, 3, 62, 120
3, 90377, Note_off_c, 3, 62, 64
3, 90379, Note_off_c, 3, 59, 64
3, 90384, Note_off_c, 3, 55, 64
3, 90432, Note_on_c, 3, 59, 120
3, 90432, Note_on_c, 3, 62, 121
3, 90432, Note_on_c, 3, 55, 117
3, 90480, Note_off_c, 3, 62, 64
3, 90481, Note_off_c, 3, 59, 64
3, 90483, Note_off_c, 3, 55, 64
3, 90486, Note_off_c, 3, 50, 64
3, 90508, Note_off_c, 3, 38, 64
3, 90528, Note_on_c, 3, 55, 119
3, 90528, Note_on_c, 3, 62, 120
3, 90528, Note_on_c, 3, 59, 119
3, 90564, Note_off_c, 3, 59, 64
3, 90568, Note_off_c, 3, 62, 64
3, 90571, Note_off_c, 3, 55, 64
3, 90624, Note_on_c, 3, 41, 117
3, 90624, Note_on_c, 3, 65, 122
3, 90624, Note_on_c, 3, 57, 118
3, 90624, Note_on_c, 3, 60, 118
3, 90624, Note_on_c, 3, 53, 123
3, 90670, Note_off_c, 3, 60, 64
3, 90676, Note_off_c, 3, 57, 64
3, 90678, Note_off_c, 3, 65, 64
3, 90720, Note_on_c, 3, 57, 118
3, 90720, Note_on_c, 3, 65, 113
3, 90720, Note_on_c, 3, 60, 121
3, 90761, Note_off_c, 3, 60, 64
3, 90761, Note_off_c, 3, 65, 64
3, 90771, Note_off_c, 3, 57, 64
3, 90816, Note_on_c, 3, 65, 115
3, 90816, Note_on_c, 3, 57, 115
3, 90816, Note_on_c, 3, 60, 121
3, 90856, Note_off_c, 3, 60, 64
3, 90859, Note_off_c, 3, 57, 64
3, 90862, Note_off_c, 3, 65, 64
3, 90908, Note_off_c, 3, 41, 64
3, 90912, Note_on_c, 3, 36, 120
3, 90912, Note_on_c, 3, 65, 113
3, 90912, Note_on_c, 3, 57, 117
3, 90912, Note_on_c, 3, 60, 121
3, 90912, Note_on_c, 3, 48, 119
3, 90915, Note_off_c, 3, 53, 64
3, 90950, Note_off_c, 3, 60, 64
3, 90960, Note_off_c, 3, 65, 64
3, 90960, Note_off_c, 3, 57, 64
3, 91008, Note_on_c, 3, 65, 115
3, 91008, Note_on_c, 3, 60, 121
3, 91008, Note_on_c, 3, 57, 116
3, 91048, Note_off_c, 3, 60, 64
3, 91049, Note_off_c, 3, 57, 64
3, 91059, Note_off_c, 3, 65, 64
3, 91104, Note_on_c, 3, 65, 115
3, 91104, Note_on_c, 3, 60, 120
3, 91104, Note_on_c, 3, 57, 117
3, 91144, Note_off_c, 3, 60, 64
3, 91148, Note_off_c, 3, 57, 64
3, 91155, Note_off_c, 3, 65, 64
3, 91200, Note_on_c, 3, 65, 111
3, 91200, Note_on_c, 3, 57, 115
3, 91200, Note_on_c, 3, 60, 118
3, 91230, Note_off_c, 3, 36, 64
3, 91240, Note_off_c, 3, 48, 64
3, 91241, Note_off_c, 3, 60, 64
3, 91251, Note_off_c, 3, 57, 64
3, 91254, Note_off_c, 3, 65, 64
3, 91296, Note_on_c, 3, 65, 117
3, 91296, Note_on_c, 3, 60, 121
3, 91296, Note_on_c, 3, 57, 115
3, 91334, Note_off_c, 3, 60, 64
3, 91337, Note_off_c, 3, 65, 64
3, 91339, Note_off_c, 3, 57, 64
3, 91392, Note_on_c, 3, 43, 119
3, 91392, Note_on_c, 3, 55, 118
3, 91392, Note_on_c, 3, 59, 117
3, 91392, Note_on_c, 3, 62, 116
3, 91392, Note_on_c, 3, 55, 122
3, 91427, Note_off_c, 3, 62, 64
3, 91438, Note_off_c, 3, 59, 64
3, 91443, Note_off_c, 3, 55, 64
3, 91488, Note_on_c, 3, 59, 121
3, 91488, Note_on_c, 3, 55, 117
3, 91488, Note_on_c, 3, 62, 121
3, 91532, Note_off_c, 3, 62, 64
3, 91532, Note_off_c, 3, 59, 64
3, 91537, Note_off_c, 3, 55, 64
3, 91584, Note_on_c, 3, 55, 117
3, 91584, Note_on_c, 3, 59, 120
3, 91584, Note_on_c, 3, 62, 120
3, 91625, Note_off_c, 3, 62, 64
3, 91627, Note_off_c, 3, 59, 64
3, 91636, Note_off_c, 3, 55, 64
3, 91676, Note_off_c, 3, 43, 64
3, 91680, Note_on_c, 3, 59, 119
3, 91680, Note_on_c, 3, 55, 117
3, 91680, Note_on_c, 3, 62, 120
3, 91680, Note_on_c, 3, 38, 117
3, 91680, Note_on_c, 3, 50, 120
3, 91694, Note_off_c, 3, 55, 64
3, 91718, Note_off_c, 3, 62, 64
3, 91720, Note_off_c, 3, 59, 64
3, 91723, Note_off_c, 3, 55, 64
3, 91776, Note_on_c, 3, 55, 117
3, 91776, Note_on_c, 3, 59, 119
3, 91776, Note_on_c, 3, 62, 120
3, 91817, Note_off_c, 3, 62, 64
3, 91819, Note_off_c, 3, 59, 64
3, 91825, Note_off_c, 3, 55, 64
3, 91872, Note_on_c, 3, 62, 119
3, 91872, Note_on_c, 3, 59, 119
3, 91872, Note_on_c, 3, 55, 114
3, 91913, Note_off_c, 3, 59, 64
3, 91916, Note_off_c, 3, 62, 64
3, 91916, Note_off_c, 3, 55, 64
3, 91968, Note_on_c, 3, 62, 120
3, 91968, Note_on_c, 3, 59, 119
3, 91968, Note_on_c, 3, 55, 115
3, 91998, Note_off_c, 3, 50, 64
3, 92011, Note_off_c, 3, 59, 64
3, 92012, Note_off_c, 3, 38, 64
3, 92016, Note_off_c, 3, 62, 64
3, 92016, Note_off_c, 3, 55, 64
3, 92064, Note_on_c, 3, 62, 120
3, 92064, Note_on_c, 3, 55, 117
3, 92064, Note_on_c, 3, 59, 120
3, 92100, Note_off_c, 3, 59, 64
3, 92105, Note_off_c, 3, 55, 64
3, 92108, Note_off_c, 3, 62, 64
3, 92160, Note_on_c, 3, 41, 115
3, 92160, Note_on_c, 3, 53, 122
3, 92160, Note_on_c, 3, 65, 121
3, 92160, Note_on_c, 3, 57, 117
3, 92160, Note_on_c, 3, 60, 119
3, 92206, Note_off_c, 3, 60, 64
3, 92211, Note_off_c, 3, 57, 64
3, 92211, Note_off_c, 3, 65, 64
3, 92256, Note_on_c, 3, 65, 116
3, 92256, Note_on_c, 3, 57, 118
3, 92256, Note_on_c, 3, 60, 121
3, 92297, Note_off_c, 3, 60, 64
3, 92307, Note_off_c, 3, 65, 64
3, 92308, Note_off_c, 3, 57, 64
3, 92352, Note_on_c, 3, 65, 114
3, 92352, Note_on_c, 3, 57, 112
3, 92352, Note_on_c, 3, 60, 121
3, 92395, Note_off_c, 3, 60, 64
3, 92404, Note_off_c, 3, 57, 64
3, 92406, Note_off_c, 3, 65, 64
3, 92448, Note_on_c, 3, 65, 111
3, 92448, Note_on_c, 3, 57, 115
3, 92448, Note_on_c, 3, 60, 121
3, 92448, Note_on_c, 3, 36, 118
3, 92448, Note_on_c, 3, 48, 119
3, 92462, Note_off_c, 3, 53, 64
3, 92462, Note_off_c, 3, 41, 64
3, 92492, Note_off_c, 3, 60, 64
3, 92497, Note_off_c, 3, 65, 64
3, 92502, Note_off_c, 3, 57, 64
3, 92544, Note_on_c, 3, 65, 115
3, 92544, Note_on_c, 3, 57, 113
3, 92544, Note_on_c, 3, 60, 120
3, 92585, Note_off_c, 3, 60, 64
3, 92592, Note_off_c, 3, 57, 64
3, 92593, Note_off_c, 3, 65, 64
3, 92640, Note_on_c, 3, 60, 120
3, 92640, Note_on_c, 3, 57, 117
3, 92640, Note_on_c, 3, 65, 114
3, 92683, Note_off_c, 3, 65, 64
3, 92683, Note_off_c, 3, 60, 64
3, 92689, Note_off_c, 3, 57, 64
3, 92736, Note_on_c, 3, 65, 112
3, 92736, Note_on_c, 3, 57, 114
3, 92736, Note_on_c, 3, 60, 121
3, 92771, Note_off_c, 3, 36, 64
3, 92777, Note_off_c, 3, 60, 64
3, 92785, Note_off_c, 3, 57, 64
3, 92788, Note_off_c, 3, 48, 64
3, 92788, Note_off_c, 3, 65, 64
3, 92832, Note_on_c, 3, 65, 113
3, 92832, Note_on_c, 3, 60, 121
3, 92832, Note_on_c, 3, 57, 114
3, 92868, Note_off_c, 3, 60, 64
3, 92875, Note_off_c, 3, 65, 64
3, 92876, Note_off_c, 3, 57, 64
3, 92928, Note_on_c, 3, 55, 118
3, 92928, Note_on_c, 3, 59, 119
3, 92928, Note_on_c, 3, 62, 117
3, 92928, Note_on_c, 3, 55, 123
3, 92928, Note_on_c, 3, 43, 120
3, 92974, Note_off_c, 3, 62, 64
3, 92976, Note_off_c, 3, 59, 64
3, 92980, Note_off_c, 3, 55, 64
3, 93024, Note_on_c, 3, 59, 120
3, 93024, Note_on_c, 3, 62, 120
3, 93024, Note_on_c, 3, 55, 115
3, 93064, Note_off_c, 3, 62, 64
3, 93067, Note_off_c, 3, 59, 64
3, 93070, Note_off_c, 3, 55, 64
3, 93120, Note_on_c, 3, 55, 113
3, 93120, Note_on_c, 3, 59, 117
3, 93120, Note_on_c, 3, 62, 118
3, 93158, Note_off_c, 3, 62, 64
3, 93163, Note_off_c, 3, 59, 64
3, 93169, Note_off_c, 3, 55, 64
3, 93201, Note_off_c, 3, 43, 64
3, 93214, Note_off_c, 3, 55, 64
3, 93216, Note_on_c, 3, 38, 120
3, 93216, Note_on_c, 3, 55, 115
3, 93216, Note_on_c, 3, 59, 119
3, 93216, Note_on_c, 3, 62, 119
3, 93216, Note_on_c, 3, 50, 120
3, 93256, Note_off_c, 3, 62, 64
3, 93259, Note_off_c, 3, 59, 64
3, 93265, Note_off_c, 3, 55, 64
3, 93312, Note_on_c, 3, 55, 118
3, 93312, Note_on_c, 3, 59, 120
3, 93312, Note_on_c, 3, 62, 120
3, 93353, Note_off_c, 3, 62, 64
3, 93353, Note_off_c, 3, 59, 64
3, 93356, Note_off_c, 3, 55, 64
3, 93408, Note_on_c, 3, 62, 120
3, 93408, Note_on_c, 3, 55, 117
3, 93408, Note_on_c, 3, 59, 119
3, 93451, Note_off_c, 3, 59, 64
3, 93451, Note_off_c, 3, 62, 64
3, 93456, Note_off_c, 3, 55, 64
3, 93504, Note_on_c, 3, 55, 115
3, 93504, Note_on_c, 3, 62, 120
3, 93504, Note_on_c, 3, 59, 120
3, 93524, Note_off_c, 3, 50, 64
3, 93542, Note_off_c, 3, 38, 64
3, 93548, Note_off_c, 3, 59, 64
3, 93550, Note_off_c, 3, 62, 64
3, 93555, Note_off_c, 3, 55, 64
3, 93600, Note_on_c, 3, 55, 119
3, 93600, Note_on_c, 3, 62, 121
3, 93600, Note_on_c, 3, 59, 121
3, 93656, Note_off_c, 3, 59, 64
3, 93662, Note_off_c, 3, 55, 64
3, 93665, Note_off_c, 3, 62, 64
3, 93696, Note_on_c, 3, 41, 118
3, 93696, Note_on_c, 3, 57, 120
3, 93696, Note_on_c, 3, 65, 120
3, 93696, Note_on_c, 3, 60, 123
3, 93696, Note_on_c, 3, 53, 121
3, 93737, Note_off_c, 3, 60, 64
3, 93742, Note_off_c, 3, 57, 64
3, 93758, Note_off_c, 3, 65, 64
3, 93792, Note_on_c, 3, 65, 119
3, 93792, Note_on_c, 3, 57, 120
3, 93792, Note_on_c, 3, 60, 123
3, 93833, Note_off_c, 3, 60, 64
3, 93835, Note_off_c, 3, 57, 64
3, 93838, Note_off_c, 3, 65, 64
3, 93888, Note_on_c, 3, 57, 119
3, 93888, Note_on_c, 3, 65, 120
3, 93888, Note_on_c, 3, 60, 122
3, 93928, Note_off_c, 3, 60, 64
3, 93932, Note_off_c, 3, 65, 64
3, 93936, Note_off_c, 3, 57, 64
3, 93984, Note_on_c, 3, 65, 118
3, 93984, Note_on_c, 3, 57, 119
3, 93984, Note_on_c, 3, 60, 122
3, 93984, Note_on_c, 3, 36, 120
3, 93984, Note_on_c, 3, 48, 120
3, 93987, Note_off_c, 3, 53, 64
3, 93993, Note_off_c, 3, 41, 64
3, 94022, Note_off_c, 3, 60, 64
3, 94030, Note_off_c, 3, 65, 64
3, 94032, Note_off_c, 3, 57, 64
3, 94080, Note_on_c, 3, 65, 119
3, 94080, Note_on_c, 3, 57, 117
3, 94080, Note_on_c, 3, 60, 122
3, 94121, Note_off_c, 3, 60, 64
3, 94128, Note_off_c, 3, 57, 64
3, 94129, Note_off_c, 3, 65, 64
3, 94176, Note_on_c, 3, 65, 117
3, 94176, Note_on_c, 3, 57, 118
3, 94176, Note_on_c, 3, 60, 121
3, 94212, Note_off_c, 3, 60, 64
3, 94222, Note_off_c, 3, 57, 64
3, 94222, Note_off_c, 3, 65, 64
3, 94272, Note_on_c, 3, 65, 118
3, 94272, Note_on_c, 3, 57, 116
3, 94272, Note_on_c, 3, 60, 122
3, 94315, Note_off_c, 3, 60, 64
3, 94316, Note_off_c, 3, 57, 64
3, 94326, Note_off_c, 3, 65, 64
3, 94345, Note_off_c, 3, 36, 64
3, 94364, Note_off_c, 3, 48, 64
3, 94368, Note_on_c, 3, 65, 117
3, 94368, Note_on_c, 3, 57, 117
3, 94368, Note_on_c, 3, 60, 121
3, 94406, Note_off_c, 3, 60, 64
3, 94412, Note_off_c, 3, 65, 64
3, 94416, Note_off_c, 3, 57, 64
3, 94464, Note_on_c, 3, 43, 117
3, 94464, Note_on_c, 3, 55, 122
3, 94464, Note_on_c, 3, 59, 119
3, 94464, Note_on_c, 3, 55, 120
3, 94508, Note_off_c, 3, 59, 64
3, 94512, Note_off_c, 3, 55, 64
3, 94512, Note_on_c, 3, 62, 105
3, 94547, Note_off_c, 3, 62, 64
3, 94560, Note_on_c, 3, 55, 118
3, 94560, Note_on_c, 3, 62, 121
3, 94560, Note_on_c, 3, 59, 120
3, 94604, Note_off_c, 3, 59, 64
3, 94606, Note_off_c, 3, 62, 64
3, 94611, Note_off_c, 3, 55, 64
3, 94656, Note_on_c, 3, 55, 118
3, 94656, Note_on_c, 3, 62, 121
3, 94656, Note_on_c, 3, 59, 120
3, 94697, Note_off_c, 3, 59, 64
3, 94699, Note_off_c, 3, 62, 64
3, 94704, Note_off_c, 3, 55, 64
3, 94752, Note_on_c, 3, 55, 119
3, 94752, Note_on_c, 3, 62, 121
3, 94752, Note_on_c, 3, 59, 121
3, 94752, Note_on_c, 3, 38, 120
3, 94752, Note_on_c, 3, 50, 120
3, 94768, Note_off_c, 3, 43, 64
3, 94777, Note_off_c, 3, 55, 64
3, 94796, Note_off_c, 3, 59, 64
3, 94800, Note_off_c, 3, 62, 64
3, 94801, Note_off_c, 3, 55, 64
3, 94848, Note_on_c, 3, 55, 118
3, 94848, Note_on_c, 3, 62, 121
3, 94848, Note_on_c, 3, 59, 120
3, 94892, Note_off_c, 3, 59, 64
3, 94899, Note_off_c, 3, 62, 64
3, 94900, Note_off_c, 3, 55, 64
3, 94944, Note_on_c, 3, 55, 119
3, 94944, Note_on_c, 3, 62, 121
3, 94944, Note_on_c, 3, 59, 120
3, 94987, Note_off_c, 3, 59, 64
3, 94995, Note_off_c, 3, 62, 64
3, 94995, Note_off_c, 3, 55, 64
3, 95040, Note_on_c, 3, 62, 120
3, 95040, Note_on_c, 3, 55, 117
3, 95040, Note_on_c, 3, 59, 119
3, 95086, Note_off_c, 3, 59, 64
3, 95089, Note_off_c, 3, 55, 64
3, 95094, Note_off_c, 3, 62, 64
3, 95104, Note_off_c, 3, 50, 64
3, 95129, Note_off_c, 3, 38, 64
3, 95136, Note_on_c, 3, 55, 119
3, 95136, Note_on_c, 3, 62, 122
3, 95136, Note_on_c, 3, 59, 120
3, 95164, Note_off_c, 3, 59, 64
3, 95174, Note_off_c, 3, 55, 64
3, 95176, Note_off_c, 3, 62, 64
3, 95232, Note_on_c, 3, 65, 122
3, 95232, Note_on_c, 3, 57, 117
3, 95232, Note_on_c, 3, 60, 118
3, 95232, Note_on_c, 3, 41, 117
3, 95232, Note_on_c, 3, 53, 122
3, 95286, Note_off_c, 3, 60, 64
3, 95289, Note_off_c, 3, 57, 64
3, 95292, Note_off_c, 3, 65, 64
3, 95328, Note_on_c, 3, 57, 118
3, 95328, Note_on_c, 3, 65, 115
3, 95328, Note_on_c, 3, 60, 121
3, 95374, Note_off_c, 3, 60, 64
3, 95374, Note_off_c, 3, 65, 64
3, 95382, Note_off_c, 3, 57, 64
3, 95424, Note_on_c, 3, 65, 116
3, 95424, Note_on_c, 3, 60, 121
3, 95424, Note_on_c, 3, 57, 116
3, 95468, Note_off_c, 3, 57, 64
3, 95468, Note_off_c, 3, 60, 64
3, 95476, Note_off_c, 3, 65, 64
3, 95520, Note_on_c, 3, 65, 116
3, 95520, Note_on_c, 3, 60, 121
3, 95520, Note_on_c, 3, 57, 119
3, 95520, Note_on_c, 3, 36, 119
3, 95520, Note_on_c, 3, 48, 121
3, 95523, Note_off_c, 3, 41, 64
3, 95540, Note_off_c, 3, 53, 64
3, 95563, Note_off_c, 3, 60, 64
3, 95568, Note_off_c, 3, 57, 64
3, 95571, Note_off_c, 3, 65, 64
3, 95616, Note_on_c, 3, 65, 116
3, 95616, Note_on_c, 3, 60, 121
3, 95616, Note_on_c, 3, 57, 117
3, 95659, Note_off_c, 3, 60, 64
3, 95660, Note_off_c, 3, 57, 64
3, 95667, Note_off_c, 3, 65, 64
3, 95712, Note_on_c, 3, 65, 119
3, 95712, Note_on_c, 3, 57, 116
3, 95712, Note_on_c, 3, 60, 120
3, 95748, Note_off_c, 3, 60, 64
3, 95755, Note_off_c, 3, 57, 64
3, 95764, Note_off_c, 3, 65, 64
3, 95808, Note_on_c, 3, 65, 118
3, 95808, Note_on_c, 3, 60, 120
3, 95808, Note_on_c, 3, 57, 115
3, 95852, Note_off_c, 3, 60, 64
3, 95859, Note_off_c, 3, 57, 64
3, 95862, Note_off_c, 3, 65, 64
3, 95867, Note_off_c, 3, 36, 64
3, 95881, Note_off_c, 3, 48, 64
3, 95904, Note_on_c, 3, 65, 117
3, 95904, Note_on_c, 3, 60, 122
3, 95904, Note_on_c, 3, 57, 116
3, 95942, Note_off_c, 3, 60, 64
3, 95947, Note_off_c, 3, 65, 64
3, 95947, Note_off_c, 3, 57, 64
3, 96000, Note_on_c, 3, 43, 120
3, 96000, Note_on_c, 3, 55, 121
3, 96000, Note_on_c, 3, 59, 117
3, 96000, Note_on_c, 3, 55, 117
3, 96000, Note_on_c, 3, 62, 116
3, 96038, Note_off_c, 3, 62, 64
3, 96049, Note_off_c, 3, 59, 64
3, 96049, Note_off_c, 3, 55, 64
3, 96096, Note_on_c, 3, 59, 120
3, 96096, Note_on_c, 3, 55, 117
3, 96096, Note_on_c, 3, 62, 120
3, 96140, Note_off_c, 3, 62, 64
3, 96142, Note_off_c, 3, 55, 64
3, 96144, Note_off_c, 3, 59, 64
3, 96192, Note_on_c, 3, 59, 120
3, 96192, Note_on_c, 3, 55, 117
3, 96192, Note_on_c, 3, 62, 120
3, 96235, Note_off_c, 3, 62, 64
3, 96241, Note_off_c, 3, 59, 64
3, 96243, Note_off_c, 3, 55, 64
3, 96288, Note_on_c, 3, 38, 119
3, 96288, Note_on_c, 3, 59, 120
3, 96288, Note_on_c, 3, 55, 117
3, 96288, Note_on_c, 3, 62, 120
3, 96288, Note_on_c, 3, 50, 120
3, 96296, Note_off_c, 3, 43, 64
3, 96304, Note_off_c, 3, 55, 64
3, 96331, Note_off_c, 3, 62, 64
3, 96334, Note_off_c, 3, 59, 64
3, 96337, Note_off_c, 3, 55, 64
3, 96384, Note_on_c, 3, 59, 120
3, 96384, Note_on_c, 3, 62, 120
3, 96384, Note_on_c, 3, 55, 116
3, 96428, Note_off_c, 3, 62, 64
3, 96430, Note_off_c, 3, 59, 64
3, 96433, Note_off_c, 3, 55, 64
3, 96480, Note_on_c, 3, 55, 118
3, 96480, Note_on_c, 3, 59, 120
3, 96480, Note_on_c, 3, 62, 120
3, 96521, Note_off_c, 3, 62, 64
3, 96523, Note_off_c, 3, 59, 64
3, 96528, Note_off_c, 3, 55, 64
3, 96576, Note_on_c, 3, 59, 120
3, 96576, Note_on_c, 3, 62, 121
3, 96576, Note_on_c, 3, 55, 117
3, 96624, Note_off_c, 3, 62, 64
3, 96625, Note_off_c, 3, 59, 64
3, 96627, Note_off_c, 3, 55, 64
3, 96630, Note_off_c, 3, 50, 64
3, 96652, Note_off_c, 3, 38, 64
3, 96672, Note_on_c, 3, 55, 119
3, 96672, Note_on_c, 3, 62, 120
3, 96672, Note_on_c, 3, 59, 119
3, 96708, Note_off_c, 3, 59, 64
3, 96712, Note_off_c, 3, 62, 64
3, 96715, Note_off_c, 3, 55, 64
3, 96768, Note_on_c, 3, 41, 117
3, 96768, Note_on_c, 3, 65, 122
3, 96768, Note_on_c, 3, 57, 118
3, 96768, Note_on_c, 3, 60, 118
3, 96768, Note_on_c, 3, 53, 123
3, 96814, Note_off_c, 3, 60, 64
3, 96820, Note_off_c, 3, 57, 64
3, 96822, Note_off_c, 3, 65, 64
3, 96864, Note_on_c, 3, 57, 118
3, 96864, Note_on_c, 3, 65, 113
3, 96864, Note_on_c, 3, 60, 121
3, 96905, Note_off_c, 3, 60, 64
3, 96905, Note_off_c, 3, 65, 64
3, 96915, Note_off_c, 3, 57, 64
3, 96960, Note_on_c, 3, 65, 115
3, 96960, Note_on_c, 3, 57, 115
3, 96960, Note_on_c, 3, 60, 121
3, 97000, Note_off_c, 3, 60, 64
3, 97003, Note_off_c, 3, 57, 64
3, 97006, Note_off_c, 3, 65, 64
3, 97052, Note_off_c, 3, 41, 64
3, 97056, Note_on_c, 3, 36, 120
3, 97056, Note_on_c, 3, 65, 113
3, 97056, Note_on_c, 3, 57, 117
3, 97056, Note_on_c, 3, 60, 121
3, 97056, Note_on_c, 3, 48, 119
3, 97059, Note_off_c, 3, 53, 64
3, 97094, Note_off_c, 3, 60, 64
3, 97104, Note_off_c, 3, 65, 64
3, 97104, Note_off_c, 3, 57, 64
3, 97152, Note_on_c, 3, 65, 115
3, 97152, Note_on_c, 3, 60, 121
3, 97152, Note_on_c, 3, 57, 116
3, 97192, Note_off_c, 3, 60, 64
3, 97193, Note_off_c, 3, 57, 64
3, 97203, Note_off_c, 3, 65, 64
3, 97248, Note_on_c, 3, 65, 115
3, 97248, Note_on_c, 3, 60, 120
3, 97248, Note_on_c, 3, 57, 117
3, 97288, Note_off_c, 3, 60, 64
3, 97292, Note_off_c, 3, 57, 64
3, 97299, Note_off_c, 3, 65, 64
3, 97344, Note_on_c, 3, 65, 111
3, 97344, Note_on_c, 3, 57, 115
3, 97344, Note_on_c, 3, 60, 118
3, 97374, Note_off_c, 3, 36, 64
3, 97384, Note_off_c, 3, 48, 64
3, 97385, Note_off_c, 3, 60, 64
3, 97395, Note_off_c, 3, 57, 64
3, 97398, Note_off_c, 3, 65, 64
3, 97440, Note_on_c, 3, 65, 117
3, 97440, Note_on_c, 3, 60, 121
3, 97440, Note_on_c, 3, 57, 115
3, 97478, Note_off_c, 3, 60, 64
3, 97481, Note_off_c, 3, 65, 64
3, 97483, Note_off_c, 3, 57, 64
3, 97536, Note_on_c, 3, 43, 119
3, 97536, Note_on_c, 3, 55, 118
3, 97536, Note_on_c, 3, 59, 117
3, 97536, Note_on_c, 3, 62, 116
3, 97536, Note_on_c, 3, 55, 122
3, 97571, Note_off_c, 3, 62, 64
3, 97582, Note_off_c, 3, 59, 64
3, 97587, Note_off_c, 3, 55, 64
3, 97632, Note_on_c, 3, 59, 121
3, 97632, Note_on_c, 3, 55, 117
3, 97632, Note_on_c, 3, 62, 121
3, 97676, Note_off_c, 3, 62, 64
3, 97676, Note_off_c, 3, 59, 64
3, 97681, Note_off_c, 3, 55, 64
3, 97728, Note_on_c, 3, 55, 117
3, 97728, Note_on_c, 3, 59, 120
3, 97728, Note_on_c, 3, 62, 120
3, 97769, Note_off_c, 3, 62, 64
3, 97771, Note_off_c, 3, 59, 64
3, 97780, Note_off_c, 3, 55, 64
3, 97820, Note_off_c, 3, 43, 64
3, 97824, Note_on_c, 3, 59, 119
3, 97824, Note_on_c, 3, 55, 117
3, 97824, Note_on_c, 3, 62, 120
3, 97824, Note_on_c, 3, 38, 117
3, 97824, Note_on_c, 3, 50, 120
3, 97838, Note_off_c, 3, 55, 64
3, 97862, Note_off_c, 3, 62, 64
3, 97864, Note_off_c, 3, 59, 64
3, 97867, Note_off_c, 3, 55, 64
3, 97920, Note_on_c, 3, 55, 117
3, 97920, Note_on_c, 3, 59, 119
3, 97920, Note_on_c, 3, 62, 120
3, 97961, Note_off_c, 3, 62, 64
3, 97963, Note_off_c, 3, 59, 64
3, 97969, Note_off_c, 3, 55, 64
3, 98016, Note_on_c, 3, 62, 119
3, 98016, Note_on_c, 3, 59, 119
3, 98016, Note_on_c, 3, 55, 114
3, 98057, Note_off_c, 3, 59, 64
3, 98060, Note_off_c, 3, 62, 64
3, 98060, Note_off_c, 3, 55, 64
3, 98112, Note_on_c, 3, 62, 120
3, 98112, Note_on_c, 3, 59, 119
3, 98112, Note_on_c, 3, 55, 115
3, 98142, Note_off_c, 3, 50, 64
3, 98155, Note_off_c, 3, 59, 64
3, 98156, Note_off_c, 3, 38, 64
3, 98160, Note_off_c, 3, 62, 64
3, 98160, Note_off_c, 3, 55, 64
3, 98208, Note_on_c, 3, 62, 120
3, 98208, Note_on_c, 3, 55, 117
3, 98208, Note_on_c, 3, 59, 120
3, 98244, Note_off_c, 3, 59, 64
3, 98249, Note_off_c, 3, 55, 64
3, 98252, Note_off_c, 3, 62, 64
3, 98304, Note_on_c, 3, 41, 115
3, 98304, Note_on_c, 3, 53, 122
3, 98304, Note_on_c, 3, 65, 121
3, 98304, Note_on_c, 3, 57, 117
3, 98304, Note_on_c, 3, 60, 119
3, 98350, Note_off_c, 3, 60, 64
3, 98355, Note_off_c, 3, 57, 64
3, 98355, Note_off_c, 3, 65, 64
3, 98400, Note_on_c, 3, 65, 116
3, 98400, Note_on_c, 3, 57, 118
3, 98400, Note_on_c, 3, 60, 121
3, 98441, Note_off_c, 3, 60, 64
3, 98451, Note_off_c, 3, 65, 64
3, 98452, Note_off_c, 3, 57, 64
3, 98496, Note_on_c, 3, 65, 114
3, 98496, Note_on_c, 3, 57, 112
3, 98496, Note_on_c, 3, 60, 121
3, 98539, Note_off_c, 3, 60, 64
3, 98548, Note_off_c, 3, 57, 64
3, 98550, Note_off_c, 3, 65, 64
3, 98592, Note_on_c, 3, 65, 111
3, 98592, Note_on_c, 3, 57, 115
3, 98592, Note_on_c, 3, 60, 121
3, 98592, Note_on_c, 3, 36, 118
3, 98592, Note_on_c, 3, 48, 119
3, 98606, Note_off_c, 3, 53, 64
3, 98606, Note_off_c, 3, 41, 64
3, 98636, Note_off_c, 3, 60, 64
3, 98641, Note_off_c, 3, 65, 64
3, 98646, Note_off_c, 3, 57, 64
3, 98688, Note_on_c, 3, 65, 115
3, 98688, Note_on_c, 3, 57, 113
3, 98688, Note_on_c, 3, 60, 120
3, 98729, Note_off_c, 3, 60, 64
3, 98736, Note_off_c, 3, 57, 64
3, 98737, Note_off_c, 3, 65, 64
3, 98784, Note_on_c, 3, 60, 120
3, 98784, Note_on_c, 3, 57, 117
3, 98784, Note_on_c, 3, 65, 114
3, 98827, Note_off_c, 3, 65, 64
3, 98827, Note_off_c, 3, 60, 64
3, 98833, Note_off_c, 3, 57, 64
3, 98880, Note_on_c, 3, 65, 112
3, 98880, Note_on_c, 3, 57, 114
3, 98880, Note_on_c, 3, 60, 121
3, 98915, Note_off_c, 3, 36, 64
3, 98921, Note_off_c, 3, 60, 64
3, 98929, Note_off_c, 3, 57, 64
3, 98932, Note_off_c, 3, 48, 64
3, 98932, Note_off_c, 3, 65, 64
3, 98976, Note_on_c, 3, 65, 113
3, 98976, Note_on_c, 3, 60, 121
3, 98976, Note_on_c, 3, 57, 114
3, 99012, Note_off_c, 3, 60, 64
3, 99019, Note_off_c, 3, 65, 64
3, 99020, Note_off_c, 3, 57, 64
3, 99072, Note_on_c, 3, 55, 118
3, 99072, Note_on_c, 3, 59, 119
3, 99072, Note_on_c, 3, 62, 117
3, 99072, Note_on_c, 3, 55, 123
3, 99072, Note_on_c, 3, 43, 120
3, 99118, Note_off_c, 3, 62, 64
3, 99120, Note_off_c, 3, 59, 64
3, 99124, Note_off_c, 3, 55, 64
3, 99168, Note_on_c, 3, 59, 120
3, 99168, Note_on_c, 3, 62, 120
3, 99168, Note_on_c, 3, 55, 115
3, 99208, Note_off_c, 3, 62, 64
3, 99211, Note_off_c, 3, 59, 64
3, 99214, Note_off_c, 3, 55, 64
3, 99264, Note_on_c, 3, 55, 113
3, 99264, Note_on_c, 3, 59, 117
3, 99264, Note_on_c, 3, 62, 118
3, 99302, Note_off_c, 3, 62, 64
3, 99307, Note_off_c, 3, 59, 64
3, 99313, Note_off_c, 3, 55, 64
3, 99345, Note_off_c, 3, 43, 64
3, 99358, Note_off_c, 3, 55, 64
3, 99360, Note_on_c, 3, 38, 120
3, 99360, Note_on_c, 3, 55, 115
3, 99360, Note_on_c, 3, 59, 119
3, 99360, Note_on_c, 3, 62, 119
3, 99360, Note_on_c, 3, 50, 120
3, 99400, Note_off_c, 3, 62, 64
3, 99403, Note_off_c, 3, 59, 64
3, 99409, Note_off_c, 3, 55, 64
3, 99456, Note_on_c, 3, 55, 118
3, 99456, Note_on_c, 3, 59, 120
3, 99456, Note_on_c, 3, 62, 120
3, 99497, Note_off_c, 3, 62, 64
3, 99497, Note_off_c, 3, 59, 64
3, 99500, Note_off_c, 3, 55, 64
3, 99552, Note_on_c, 3, 62, 120
3, 99552, Note_on_c, 3, 55, 117
3, 99552, Note_on_c, 3, 59, 119
3, 99595, Note_off_c, 3, 59, 64
3, 99595, Note_off_c, 3, 62, 64
3, 99600, Note_off_c, 3, 55, 64
3, 99648, Note_on_c, 3, 55, 115
3, 99648, Note_on_c, 3, 62, 120
3, 99648, Note_on_c, 3, 59, 120
3, 99668, Note_off_c, 3, 50, 64
3, 99686, Note_off_c, 3, 38, 64
3, 99692, Note_off_c, 3, 59, 64
3, 99694, Note_off_c, 3, 62, 64
3, 99699, Note_off_c, 3, 55, 64
3, 99744, Note_on_c, 3, 55, 119
3, 99744, Note_on_c, 3, 62, 121
3, 99744, Note_on_c, 3, 59, 121
3, 99800, Note_off_c, 3, 59, 64
3, 99806, Note_off_c, 3, 55, 64
3, 99809, Note_off_c, 3, 62, 64
3, 99844, Note_on_c, 3, 48, 116
3, 99944, Note_on_c, 3, 53, 109
3, 100044, Note_on_c, 3, 55, 115
3, 100176, Note_off_c, 3, 53, 64
3, 100230, Note_on_c, 3, 53, 96
3, 100846, Note_off_c, 3, 53, 64
3, 100856, Note_off_c, 3, 48, 64
3, 100864, Note_off_c, 3, 55, 64
3, 100864, End_track
4, 0, Start_track
4, 0, Title_t, "bass"
4, 0, Channel_prefix, 2
4, 0, Control_c, 2, 7, 115
4, 0, Control_c, 2, 10, 64
4, 0, Program_c, 2, 32
4, 19200, Note_on_c, 2, 41, 119
4, 19459, Note_off_c, 2, 41, 64
4, 19488, Note_on_c, 2, 36, 119
4, 19795, Note_off_c, 2, 36, 64
4, 19872, Note_on_c, 2, 36, 115
4, 19968, Note_on_c, 2, 41, 118
4, 19969, Note_off_c, 2, 36, 64
4, 20227, Note_off_c, 2, 41, 64
4, 20256, Note_on_c, 2, 36, 115
4, 20548, Note_off_c, 2, 36, 64
4, 20640, Note_on_c, 2, 36, 116
4, 20736, Note_on_c, 2, 43, 120
4, 20740, Note_off_c, 2, 36, 64
4, 20987, Note_off_c, 2, 43, 64
4, 21024, Note_on_c, 2, 38, 121
4, 21321, Note_off_c, 2, 38, 64
4, 21408, Note_on_c, 2, 38, 117
4, 21497, Note_off_c, 2, 38, 64
4, 21504, Note_on_c, 2, 43, 119
4, 21766, Note_off_c, 2, 43, 64
4, 22272, Note_on_c, 2, 41, 120
4, 22512, Note_off_c, 2, 41, 64
4, 22560, Note_on_c, 2, 41, 122
4, 22905, Note_off_c, 2, 41, 64
4, 22944, Note_on_c, 2, 36, 119
4, 23040, Note_on_c, 2, 43, 120
4, 23043, Note_off_c, 2, 36, 64
4, 23268, Note_off_c, 2, 43, 64
4, 23328, Note_on_c, 2, 43, 120
4, 23782, Note_off_c, 2, 43, 64
4, 23808, Note_on_c, 2, 41, 119
4, 24065, Note_off_c, 2, 41, 64
4, 24096, Note_on_c, 2, 41, 121
4, 24345, Note_off_c, 2, 41, 64
4, 24384, Note_on_c, 2, 41, 120
4, 24553, Note_off_c, 2, 41, 64
4, 24576, Note_on_c, 2, 43, 119
4, 24825, Note_off_c, 2, 43, 64
4, 24864, Note_on_c, 2, 43, 118
4, 25187, Note_off_c, 2, 43, 64
4, 25248, Note_on_c, 2, 36, 114
4, 25344, Note_on_c, 2, 41, 112
4, 25350, Note_off_c, 2, 36, 64
4, 25595, Note_off_c, 2, 41, 64
4, 25632, Note_on_c, 2, 41, 120
4, 25876, Note_off_c, 2, 41, 64
4, 25920, Note_on_c, 2, 41, 122
4, 26112, Note_on_c, 2, 43, 119
4, 26123, Note_off_c, 2, 41, 64
4, 26358, Note_off_c, 2, 43, 64
4, 26400, Note_on_c, 2, 43, 118
4, 26809, Note_off_c, 2, 43, 64
4, 26880, Note_on_c, 2, 41, 120
4, 27139, Note_off_c, 2, 41, 64
4, 27168, Note_on_c, 2, 41, 121
4, 27401, Note_off_c, 2, 41, 64
4, 27456, Note_on_c, 2, 41, 121
4, 27616, Note_off_c, 2, 41, 64
4, 27648, Note_on_c, 2, 43, 114
4, 27904, Note_off_c, 2, 43, 64
4, 27936, Note_on_c, 2, 43, 118
4, 28299, Note_off_c, 2, 43, 64
4, 40704, Note_on_c, 2, 41, 119
4, 40963, Note_off_c, 2, 41, 64
4, 40992, Note_on_c, 2, 36, 119
4, 41299, Note_off_c, 2, 36, 64
4, 41376, Note_on_c, 2, 36, 115
4, 41472, Note_on_c, 2, 41, 118
4, 41473, Note_off_c, 2, 36, 64
4, 41731, Note_off_c, 2, 41, 64
4, 41760, Note_on_c, 2, 36, 115
4, 42052, Note_off_c, 2, 36, 64
4, 42144, Note_on_c, 2, 36, 116
4, 42240, Note_on_c, 2, 43, 120
4, 42244, Note_off_c, 2, 36, 64
4, 42491, Note_off_c, 2, 43, 64
4, 42528, Note_on_c, 2, 38, 121
4, 42825, Note_off_c, 2, 38, 64
4, 42912, Note_on_c, 2, 38, 117
4, 43001, Note_off_c, 2, 38, 64
4, 43008, Note_on_c, 2, 43, 119
4, 43270, Note_off_c, 2, 43, 64
4, 43776, Note_on_c, 2, 41, 120
4, 44016, Note_off_c, 2, 41, 64
4, 44064, Note_on_c, 2, 41, 122
4, 44409, Note_off_c, 2, 41, 64
4, 44448, Note_on_c, 2, 36, 119
4, 44544, Note_on_c, 2, 43, 120
4, 44547, Note_off_c, 2, 36, 64
4, 44772, Note_off_c, 2, 43, 64
4, 44832, Note_on_c, 2, 43, 120
4, 45286, Note_off_c, 2, 43, 64
4, 45312, Note_on_c, 2, 41, 119
4, 45569, Note_off_c, 2, 41, 64
4, 45600, Note_on_c, 2, 41, 121
4, 45849, Note_off_c, 2, 41, 64
4, 45888, Note_on_c, 2, 41, 120
4, 46057, Note_off_c, 2, 41, 64
4, 46080, Note_on_c, 2, 43, 119
4, 46329, Note_off_c, 2, 43, 64
4, 46368, Note_on_c, 2, 43, 118
4, 46691, Note_off_c, 2, 43, 64
4, 46752, Note_on_c, 2, 36, 114
4, 46848, Note_on_c, 2, 41, 112
4, 46854, Note_off_c, 2, 36, 64
4, 47099, Note_off_c, 2, 41, 64
4, 47136, Note_on_c, 2, 41, 120
4, 47380, Note_off_c, 2, 41, 64
4, 47424, Note_on_c, 2, 41, 122
4, 47616, Note_on_c, 2, 43, 119
4, 47627, Note_off_c, 2, 41, 64
4, 47862, Note_off_c, 2, 43, 64
4, 47904, Note_on_c, 2, 43, 118
4, 48313, Note_off_c, 2, 43, 64
4, 48384, Note_on_c, 2, 41, 120
4, 48643, Note_off_c, 2, 41, 64
4, 48672, Note_on_c, 2, 41, 121
4, 48905, Note_off_c, 2, 41, 64
4, 48960, Note_on_c, 2, 41, 121
4, 49120, Note_off_c, 2, 41, 64
4, 49152, Note_on_c, 2, 43, 114
4, 49408, Note_off_c, 2, 43, 64
4, 49440, Note_on_c, 2, 43, 118
4, 49803, Note_off_c, 2, 43, 64
4, 49920, Note_on_c, 2, 36, 122
4, 50014, Note_off_c, 2, 36, 64
4, 50112, Note_on_c, 2, 36, 122
4, 50219, Note_off_c, 2, 36, 64
4, 50304, Note_on_c, 2, 36, 121
4, 50404, Note_off_c, 2, 36, 64
4, 50496, Note_on_c, 2, 36, 121
4, 50593, Note_off_c, 2, 36, 64
4, 50688, Note_on_c, 2, 35, 120
4, 50796, Note_off_c, 2, 35, 64
4, 50880, Note_on_c, 2, 35, 122
4, 50987, Note_off_c, 2, 35, 64
4, 51072, Note_on_c, 2, 35, 123
4, 51163, Note_off_c, 2, 35, 64
4, 51264, Note_on_c, 2, 35, 124
4, 51345, Note_off_c, 2, 35, 64
4, 51456, Note_on_c, 2, 34, 127
4, 51545, Note_off_c, 2, 34, 64
4, 51648, Note_on_c, 2, 34, 127
4, 51739, Note_off_c, 2, 34, 64
4, 51840, Note_on_c, 2, 34, 127
4, 51924, Note_off_c, 2, 34, 64
4, 52032, Note_on_c, 2, 34, 127
4, 52137, Note_off_c, 2, 34, 64
4, 52224, Note_on_c, 2, 31, 124
4, 52323, Note_off_c, 2, 31, 64
4, 52416, Note_on_c, 2, 31, 123
4, 52518, Note_off_c, 2, 31, 64
4, 52608, Note_on_c, 2, 31, 122
4, 52696, Note_off_c, 2, 31, 64
4, 52800, Note_on_c, 2, 31, 122
4, 52908, Note_off_c, 2, 31, 64
4, 52992, Note_on_c, 2, 36, 120
4, 53104, Note_off_c, 2, 36, 64
4, 53184, Note_on_c, 2, 36, 121
4, 53292, Note_off_c, 2, 36, 64
4, 53376, Note_on_c, 2, 36, 120
4, 53486, Note_off_c, 2, 36, 64
4, 53568, Note_on_c, 2, 36, 120
4, 53678, Note_off_c, 2, 36, 64
4, 53760, Note_on_c, 2, 35, 123
4, 53857, Note_off_c, 2, 35, 64
4, 53952, Note_on_c, 2, 35, 122
4, 54062, Note_off_c, 2, 35, 64
4, 54144, Note_on_c, 2, 35, 123
4, 54249, Note_off_c, 2, 35, 64
4, 54336, Note_on_c, 2, 35, 123
4, 54424, Note_off_c, 2, 35, 64
4, 54528, Note_on_c, 2, 34, 127
4, 54627, Note_off_c, 2, 34, 64
4, 54720, Note_on_c, 2, 34, 127
4, 54819, Note_off_c, 2, 34, 64
4, 54912, Note_on_c, 2, 34, 126
4, 55011, Note_off_c, 2, 34, 64
4, 55104, Note_on_c, 2, 34, 127
4, 55214, Note_off_c, 2, 34, 64
4, 55296, Note_on_c, 2, 31, 124
4, 55488, Note_off_c, 2, 31, 64
4, 69120, Note_on_c, 2, 41, 119
4, 69379, Note_off_c, 2, 41, 64
4, 69408, Note_on_c, 2, 36, 119
4, 69715, Note_off_c, 2, 36, 64
4, 69792, Note_on_c, 2, 36, 115
4, 69888, Note_on_c, 2, 41, 118
4, 69889, Note_off_c, 2, 36, 64
4, 70147, Note_off_c, 2, 41, 64
4, 70176, Note_on_c, 2, 36, 115
4, 70468, Note_off_c, 2, 36, 64
4, 70560, Note_on_c, 2, 36, 116
4, 70656, Note_on_c, 2, 43, 120
4, 70660, Note_off_c, 2, 36, 64
4, 70907, Note_off_c, 2, 43, 64
4, 70944, Note_on_c, 2, 38, 121
4, 71241, Note_off_c, 2, 38, 64
4, 71328, Note_on_c, 2, 38, 117
4, 71417, Note_off_c, 2, 38, 64
4, 71424, Note_on_c, 2, 43, 119
4, 71686, Note_off_c, 2, 43, 64
4, 72192, Note_on_c, 2, 41, 120
4, 72432, Note_off_c, 2, 41, 64
4, 72480, Note_on_c, 2, 41, 122
4, 72825, Note_off_c, 2, 41, 64
4, 72864, Note_on_c, 2, 36, 119
4, 72960, Note_on_c, 2, 43, 120
4, 72963, Note_off_c, 2, 36, 64
4, 73188, Note_off_c, 2, 43, 64
4, 73248, Note_on_c, 2, 43, 120
4, 73702, Note_off_c, 2, 43, 64
4, 73728, Note_on_c, 2, 41, 119
4, 73985, Note_off_c, 2, 41, 64
4, 74016, Note_on_c, 2, 41, 121
4, 74265, Note_off_c, 2, 41, 64
4, 74304, Note_on_c, 2, 41, 120
4, 74473, Note_off_c, 2, 41, 64
4, 74496, Note_on_c, 2, 43, 119
4, 74745, Note_off_c, 2, 43, 64
4, 74784, Note_on_c, 2, 43, 118
4, 75107, Note_off_c, 2, 43, 64
4, 75168, Note_on_c, 2, 36, 114
4, 75264, Note_on_c, 2, 41, 112
4, 75270, Note_off_c, 2, 36, 64
4, 75515, Note_off_c, 2, 41, 64
4, 75552, Note_on_c, 2, 41, 120
4, 75796, Note_off_c, 2, 41, 64
4, 75840, Note_on_c, 2, 41, 122
4, 76032, Note_on_c, 2, 43, 119
4, 76043, Note_off_c, 2, 41, 64
4, 76278, Note_off_c, 2, 43, 64
4, 76320, Note_on_c, 2, 43, 118
4, 76729, Note_off_c, 2, 43, 64
4, 76800, Note_on_c, 2, 41, 120
4, 77059, Note_off_c, 2, 41, 64
4, 77088, Note_on_c, 2, 41, 121
4, 77321, Note_off_c, 2, 41, 64
4, 77376, Note_on_c, 2, 41, 121
4, 77536, Note_off_c, 2, 41, 64
4, 77568, Note_on_c, 2, 43, 114
4, 77824, Note_off_c, 2, 43, 64
4, 77856, Note_on_c, 2, 43, 118
4, 78219, Note_off_c, 2, 43, 64
4, 78336, Note_on_c, 2, 36, 122
4, 78430, Note_off_c, 2, 36, 64
4, 78528, Note_on_c, 2, 36, 122
4, 78635, Note_off_c, 2, 36, 64
4, 78720, Note_on_c, 2, 36, 121
4, 78820, Note_off_c, 2, 36, 64
4, 78912, Note_on_c, 2, 36, 121
4, 79009, Note_off_c, 2, 36, 64
4, 79104, Note_on_c, 2, 35, 120
4, 79212, Note_off_c, 2, 35, 64
4, 79296, Note_on_c, 2, 35, 122
4, 79403, Note_off_c, 2, 35, 64
4, 79488, Note_on_c, 2, 35, 123
4, 79579, Note_off_c, 2, 35, 64
4, 79680, Note_on_c, 2, 35, 124
4, 79761, Note_off_c, 2, 35, 64
4, 79872, Note_on_c, 2, 34, 127
4, 79961, Note_off_c, 2, 34, 64
4, 80064, Note_on_c, 2, 34, 127
4, 80155, Note_off_c, 2, 34, 64
4, 80256, Note_on_c, 2, 34, 127
4, 80340, Note_off_c, 2, 34, 64
4, 80448, Note_on_c, 2, 34, 127
4, 80553, Note_off_c, 2, 34, 64
4, 80640, Note_on_c, 2, 31, 124
4, 80739, Note_off_c, 2, 31, 64
4, 80832, Note_on_c, 2, 31, 123
4, 80934, Note_off_c, 2, 31, 64
4, 81024, Note_on_c, 2, 31, 122
4, 81112, Note_off_c, 2, 31, 64
4, 81216, Note_on_c, 2, 31, 122
4, 81324, Note_off_c, 2, 31, 64
4, 81408, Note_on_c, 2, 36, 120
4, 81520, Note_off_c, 2, 36, 64
4, 81600, Note_on_c, 2, 36, 121
4, 81708, Note_off_c, 2, 36, 64
4, 81792, Note_on_c, 2, 36, 120
4, 81902, Note_off_c, 2, 36, 64
4, 81984, Note_on_c, 2, 36, 120
4, 82094, Note_off_c, 2, 36, 64
4, 82176, Note_on_c, 2, 35, 123
4, 82273, Note_off_c, 2, 35, 64
4, 82368, Note_on_c, 2, 35, 122
4, 82478, Note_off_c, 2, 35, 64
4, 82560, Note_on_c, 2, 35, 123
4, 82665, Note_off_c, 2, 35, 64
4, 82752, Note_on_c, 2, 35, 123
4, 82840, Note_off_c, 2, 35, 64
4, 82944, Note_on_c, 2, 34, 127
4, 83043, Note_off_c, 2, 34, 64
4, 83136, Note_on_c, 2, 34, 127
4, 83235, Note_off_c, 2, 34, 64
4, 83328, Note_on_c, 2, 34, 126
4, 83427, Note_off_c, 2, 34, 64
4, 83520, Note_on_c, 2, 34, 127
4, 83630, Note_off_c, 2, 34, 64
4, 83712, Note_on_c, 2, 31, 124
4, 83811, Note_off_c, 2, 31, 64
4, 83904, Note_on_c, 2, 31, 123
4, 84006, Note_off_c, 2, 31, 64
4, 84096, Note_on_c, 2, 31, 122
4, 84184, Note_off_c, 2, 31, 64
4, 84288, Note_on_c, 2, 31, 122
4, 84396, Note_off_c, 2, 31, 64
4, 84480, Note_on_c, 2, 41, 119
4, 84739, Note_off_c, 2, 41, 64
4, 84768, Note_on_c, 2, 36, 119
4, 85075, Note_off_c, 2, 36, 64
4, 85152, Note_on_c, 2, 36, 115
4, 85248, Note_on_c, 2, 41, 118
4, 85249, Note_off_c, 2, 36, 64
4, 85507, Note_off_c, 2, 41, 64
4, 85536, Note_on_c, 2, 36, 115
4, 85828, Note_off_c, 2, 36, 64
4, 85920, Note_on_c, 2, 36, 116
4, 86016, Note_on_c, 2, 43, 120
4, 86020, Note_off_c, 2, 36, 64
4, 86267, Note_off_c, 2, 43, 64
4, 86304, Note_on_c, 2, 38, 121
4, 86601, Note_off_c, 2, 38, 64
4, 86688, Note_on_c, 2, 38, 117
4, 86777, Note_off_c, 2, 38, 64
4, 86784, Note_on_c, 2, 43, 119
4, 87046, Note_off_c, 2, 43, 64
4, 87552, Note_on_c, 2, 41, 120
4, 87792, Note_off_c, 2, 41, 64
4, 87840, Note_on_c, 2, 41, 122
4, 88185, Note_off_c, 2, 41, 64
4, 88224, Note_on_c, 2, 36, 119
4, 88320, Note_on_c, 2, 43, 120
4, 88323, Note_off_c, 2, 36, 64
4, 88548, Note_off_c, 2, 43, 64
4, 88608, Note_on_c, 2, 43, 120
4, 89062, Note_off_c, 2, 43, 64
4, 89088, Note_on_c, 2, 41, 119
4, 89345, Note_off_c, 2, 41, 64
4, 89376, Note_on_c, 2, 41, 121
4, 89625, Note_off_c, 2, 41, 64
4, 89664, Note_on_c, 2, 41, 120
4, 89833, Note_off_c, 2, 41, 64
4, 89856, Note_on_c, 2, 43, 119
4, 90105, Note_off_c, 2, 43, 64
4, 90144, Note_on_c, 2, 43, 118
4, 90467, Note_off_c, 2, 43, 64
4, 90528, Note_on_c, 2, 36, 114
4, 90624, Note_on_c, 2, 41, 112
4, 90630, Note_off_c, 2, 36, 64
4, 90875, Note_off_c, 2, 41, 64
4, 90912, Note_on_c, 2, 41, 120
4, 91156, Note_off_c, 2, 41, 64
4, 91200, Note_on_c, 2, 41, 122
4, 91392, Note_on_c, 2, 43, 119
4, 91403, Note_off_c, 2, 41, 64
4, 91638, Note_off_c, 2, 43, 64
4, 91680, Note_on_c, 2, 43, 118
4, 92089, Note_off_c, 2, 43, 64
4, 92160, Note_on_c, 2, 41, 120
4, 92419, Note_off_c, 2, 41, 64
4, 92448, Note_on_c, 2, 41, 121
4, 92681, Note_off_c, 2, 41, 64
4, 92736, Note_on_c, 2, 41, 121
4, 92896, Note_off_c, 2, 41, 64
4, 92928, Note_on_c, 2, 43, 114
4, 93184, Note_off_c, 2, 43, 64
4, 93216, Note_on_c, 2, 43, 118
4, 93579, Note_off_c, 2, 43, 64
4, 93696, Note_on_c, 2, 41, 120
4, 93936, Note_off_c, 2, 41, 64
4, 93984, Note_on_c, 2, 41, 122
4, 94329, Note_off_c, 2, 41, 64
4, 94368, Note_on_c, 2, 36, 119
4, 94464, Note_on_c, 2, 43, 120
4, 94467, Note_off_c, 2, 36, 64
4, 94692, Note_off_c, 2, 43, 64
4, 94752, Note_on_c, 2, 43, 120
4, 95206, Note_off_c, 2, 43, 64
4, 95232, Note_on_c, 2, 41, 119
4, 95489, Note_off_c, 2, 41, 64
4, 95520, Note_on_c, 2, 41, 121
4, 95769, Note_off_c, 2, 41, 64
4, 95808, Note_on_c, 2, 41, 120
4, 95977, Note_off_c, 2, 41, 64
4, 96000, Note_on_c, 2, 43, 119
4, 96249, Note_off_c, 2, 43, 64
4, 96288, Note_on_c, 2, 43, 118
4, 96611, Note_off_c, 2, 43, 64
4, 96672, Note_on_c, 2, 36, 114
4, 96768, Note_on_c, 2, 41, 112
4, 96774, Note_off_c, 2, 36, 64
4, 97019, Note_off_c, 2, 41, 64
4, 97056, Note_on_c, 2, 41, 120
4, 97300, Note_off_c, 2, 41, 64
4, 97344, Note_on_c, 2, 41, 122
4, 97536, Note_on_c, 2, 43, 119
4, 97547, Note_off_c, 2, 41, 64
4, 97782, Note_off_c, 2, 43, 64
4, 97824, Note_on_c, 2, 43, 118
4, 98233, Note_off_c, 2, 43, 64
4, 98304, Note_on_c, 2, 41, 120
4, 98563, Note_off_c, 2, 41, 64
4, 98592, Note_on_c, 2, 41, 121
4, 98825, Note_off_c, 2, 41, 64
4, 98880, Note_on_c, 2, 41, 121
4, 99040, Note_off_c, 2, 41, 64
4, 99072, Note_on_c, 2, 43, 114
4, 99328, Note_off_c, 2, 43, 64
4, 99360, Note_on_c, 2, 43, 118
4, 99723, Note_off_c, 2, 43, 64
4, 99840, Note_on_c, 2, 36, 118
4, 100203, Note_off_c, 2, 36, 64
4, 100203, End_track
5, 0, Start_track
5, 0, Title_t, "vocals"
5, 0, Channel_prefix, 1
5, 0, Control_c, 1, 7, 127
5, 0, Control_c, 1, 10, 64
5, 0, Program_c, 1, 65
5, 6816, Note_on_c, 1, 67, 117
5, 6878, Note_off_c, 1, 67, 64
5, 6912, Note_on_c, 1, 72, 124
5, 7019, Note_off_c, 1, 72, 64
5, 7104, Note_on_c, 1, 72, 120
5, 7164, Note_off_c, 1, 72, 64
5, 7200, Note_on_c, 1, 72, 121
5, 7284, Note_off_c, 1, 72, 64
5, 8352, Note_on_c, 1, 67, 113
5, 8424, Note_off_c, 1, 67, 64
5, 8448, Note_on_c, 1, 69, 120
5, 8534, Note_off_c, 1, 69, 64
5, 8544, Note_on_c, 1, 67, 114
5, 8598, Note_off_c, 1, 67, 64
5, 8736, Note_on_c, 1, 67, 113
5, 8862, Note_off_c, 1, 67, 64
5, 10176, Note_on_c, 1, 71, 120
5, 10251, Note_off_c, 1, 71, 64
5, 10368, Note_on_c, 1, 72, 120
5, 10459, Note_off_c, 1, 72, 64
5, 10752, Note_on_c, 1, 72, 115
5, 10796, Note_off_c, 1, 72, 64
5, 10848, Note_on_c, 1, 72, 117
5, 10921, Note_off_c, 1, 72, 64
5, 11040, Note_on_c, 1, 74, 120
5, 11128, Note_off_c, 1, 74, 64
5, 11232, Note_on_c, 1, 72, 119
5, 11355, Note_off_c, 1, 72, 64
5, 11712, Note_on_c, 1, 71, 119
5, 11795, Note_off_c, 1, 71, 64
5, 11904, Note_on_c, 1, 69, 119
5, 12003, Note_off_c, 1, 69, 64
5, 12288, Note_on_c, 1, 69, 118
5, 12358, Note_off_c, 1, 69, 64
5, 12384, Note_on_c, 1, 67, 116
5, 12481, Note_off_c, 1, 67, 64
5, 12576, Note_on_c, 1, 67, 113
5, 12707, Note_off_c, 1, 67, 64
5, 13056, Note_on_c, 1, 71, 119
5, 13116, Note_off_c, 1, 71, 64
5, 13152, Note_on_c, 1, 72, 121
5, 13235, Note_off_c, 1, 72, 64
5, 13344, Note_on_c, 1, 72, 118
5, 13472, Note_off_c, 1, 72, 64
5, 13536, Note_on_c, 1, 72, 108
5, 13624, Note_off_c, 1, 72, 64
5, 13728, Note_on_c, 1, 74, 115
5, 13828, Note_off_c, 1, 74, 64
5, 13920, Note_on_c, 1, 72, 116
5, 14014, Note_off_c, 1, 72, 64
5, 14112, Note_on_c, 1, 72, 117
5, 14228, Note_off_c, 1, 72, 64
5, 14592, Note_on_c, 1, 69, 118
5, 14662, Note_off_c, 1, 69, 64
5, 14688, Note_on_c, 1, 67, 113
5, 14785, Note_off_c, 1, 67, 64
5, 14880, Note_on_c, 1, 67, 112
5, 14992, Note_off_c, 1, 67, 64
5, 15264, Note_on_c, 1, 69, 117
5, 15420, Note_off_c, 1, 69, 64
5, 15456, Note_on_c, 1, 67, 115
5, 15571, Note_off_c, 1, 67, 64
5, 15648, Note_on_c, 1, 62, 109
5, 15875, Note_off_c, 1, 62, 64
5, 16128, Note_on_c, 1, 71, 118
5, 16184, Note_off_c, 1, 71, 64
5, 16224, Note_on_c, 1, 72, 117
5, 16299, Note_off_c, 1, 72, 64
5, 16416, Note_on_c, 1, 72, 117
5, 16536, Note_off_c, 1, 72, 64
5, 16896, Note_on_c, 1, 72, 117
5, 16945, Note_off_c, 1, 72, 64
5, 16992, Note_on_c, 1, 72, 115
5, 17075, Note_off_c, 1, 72, 64
5, 17184, Note_on_c, 1, 74, 114
5, 17275, Note_off_c, 1, 74, 64
5, 17376, Note_on_c, 1, 72, 118
5, 17512, Note_off_c, 1, 72, 64
5, 17856, Note_on_c, 1, 69, 117
5, 17956, Note_off_c, 1, 69, 64
5, 18048, Note_on_c, 1, 67, 121
5, 18163, Note_off_c, 1, 67, 64
5, 18432, Note_on_c, 1, 69, 121
5, 18497, Note_off_c, 1, 69, 64
5, 18528, Note_on_c, 1, 67, 119
5, 18630, Note_off_c, 1, 67, 64
5, 18720, Note_on_c, 1, 67, 120
5, 18955, Note_off_c, 1, 67, 64
5, 19584, Note_on_c, 1, 72, 122
5, 19659, Note_off_c, 1, 72, 64
5, 19680, Note_on_c, 1, 74, 123
5, 19796, Note_off_c, 1, 74, 64
5, 19872, Note_on_c, 1, 74, 123
5, 21088, Note_off_c, 1, 74, 64
5, 21120, Note_on_c, 1, 74, 121
5, 21182, Note_off_c, 1, 74, 64
5, 21216, Note_on_c, 1, 74, 122
5, 21355, Note_off_c, 1, 74, 64
5, 21408, Note_on_c, 1, 76, 123
5, 21548, Note_off_c, 1, 76, 64
5, 21600, Note_on_c, 1, 74, 122
5, 22083, Note_off_c, 1, 74, 64
5, 22656, Note_on_c, 1, 72, 121
5, 22742, Note_off_c, 1, 72, 64
5, 22752, Note_on_c, 1, 74, 122
5, 22860, Note_off_c, 1, 74, 64
5, 22944, Note_on_c, 1, 74, 121
5, 23692, Note_off_c, 1, 74, 64
5, 24192, Note_on_c, 1, 72, 121
5, 24281, Note_off_c, 1, 72, 64
5, 24288, Note_on_c, 1, 74, 122
5, 24419, Note_off_c, 1, 74, 64
5, 24480, Note_on_c, 1, 74, 122
5, 25289, Note_off_c, 1, 74, 64
5, 25728, Note_on_c, 1, 72, 120
5, 25792, Note_off_c, 1, 72, 64
5, 25824, Note_on_c, 1, 74, 123
5, 25956, Note_off_c, 1, 74, 64
5, 26016, Note_on_c, 1, 76, 122
5, 26153, Note_off_c, 1, 76, 64
5, 26208, Note_on_c, 1, 74, 121
5, 26859, Note_off_c, 1, 74, 64
5, 27264, Note_on_c, 1, 72, 119
5, 27328, Note_off_c, 1, 72, 64
5, 27360, Note_on_c, 1, 74, 121
5, 27486, Note_off_c, 1, 74, 64
5, 27552, Note_on_c, 1, 76, 123
5, 27691, Note_off_c, 1, 76, 64
5, 27744, Note_on_c, 1, 74, 121
5, 28320, Note_on_c, 1, 67, 117
5, 28380, Note_off_c, 1, 74, 64
5, 28382, Note_off_c, 1, 67, 64
5, 28416, Note_on_c, 1, 72, 124
5, 28523, Note_off_c, 1, 72, 64
5, 28608, Note_on_c, 1, 72, 120
5, 28668, Note_off_c, 1, 72, 64
5, 28704, Note_on_c, 1, 72, 121
5, 28788, Note_off_c, 1, 72, 64
5, 29856, Note_on_c, 1, 67, 113
5, 29928, Note_off_c, 1, 67, 64
5, 29952, Note_on_c, 1, 69, 120
5, 30038, Note_off_c, 1, 69, 64
5, 30048, Note_on_c, 1, 67, 114
5, 30102, Note_off_c, 1, 67, 64
5, 30240, Note_on_c, 1, 67, 113
5, 30366, Note_off_c, 1, 67, 64
5, 31680, Note_on_c, 1, 71, 120
5, 31755, Note_off_c, 1, 71, 64
5, 31872, Note_on_c, 1, 72, 120
5, 31963, Note_off_c, 1, 72, 64
5, 32256, Note_on_c, 1, 72, 115
5, 32300, Note_off_c, 1, 72, 64
5, 32352, Note_on_c, 1, 72, 117
5, 32425, Note_off_c, 1, 72, 64
5, 32544, Note_on_c, 1, 74, 120
5, 32632, Note_off_c, 1, 74, 64
5, 32736, Note_on_c, 1, 72, 119
5, 32859, Note_off_c, 1, 72, 64
5, 33216, Note_on_c, 1, 71, 119
5, 33299, Note_off_c, 1, 71, 64
5, 33408, Note_on_c, 1, 69, 119
5, 33507, Note_off_c, 1, 69, 64
5, 33792, Note_on_c, 1, 69, 118
5, 33862, Note_off_c, 1, 69, 64
5, 33888, Note_on_c, 1, 67, 116
5, 33985, Note_off_c, 1, 67, 64
5, 34080, Note_on_c, 1, 67, 113
5, 34211, Note_off_c, 1, 67, 64
5, 34560, Note_on_c, 1, 71, 119
5, 34620, Note_off_c, 1, 71, 64
5, 34656, Note_on_c, 1, 72, 121
5, 34739, Note_off_c, 1, 72, 64
5, 34848, Note_on_c, 1, 72, 118
5, 34976, Note_off_c, 1, 72, 64
5, 35040, Note_on_c, 1, 72, 108
5, 35128, Note_off_c, 1, 72, 64
5, 35232, Note_on_c, 1, 74, 115
5, 35332, Note_off_c, 1, 74, 64
5, 35424, Note_on_c, 1, 72, 116
5, 35518, Note_off_c, 1, 72, 64
5, 35616, Note_on_c, 1, 72, 117
5, 35732, Note_off_c, 1, 72, 64
5, 36096, Note_on_c, 1, 69, 118
5, 36166, Note_off_c, 1, 69, 64
5, 36192, Note_on_c, 1, 67, 113
5, 36289, Note_off_c, 1, 67, 64
5, 36384, Note_on_c, 1, 67, 112
5, 36496, Note_off_c, 1, 67, 64
5, 36768, Note_on_c, 1, 69, 117
5, 36924, Note_off_c, 1, 69, 64
5, 36960, Note_on_c, 1, 67, 115
5, 37075, Note_off_c, 1, 67, 64
5, 37152, Note_on_c, 1, 62, 109
5, 37379, Note_off_c, 1, 62, 64
5, 37632, Note_on_c, 1, 71, 118
5, 37688, Note_off_c, 1, 71, 64
5, 37728, Note_on_c, 1, 72, 117
5, 37803, Note_off_c, 1, 72, 64
5, 37920, Note_on_c, 1, 72, 117
5, 38040, Note_off_c, 1, 72, 64
5, 38400, Note_on_c, 1, 72, 117
5, 38449, Note_off_c, 1, 72, 64
5, 38496, Note_on_c, 1, 72, 115
5, 38579, Note_off_c, 1, 72, 64
5, 38688, Note_on_c, 1, 74, 114
5, 38779, Note_off_c, 1, 74, 64
5, 38880, Note_on_c, 1, 72, 118
5, 39016, Note_off_c, 1, 72, 64
5, 39360, Note_on_c, 1, 69, 117
5, 39460, Note_off_c, 1, 69, 64
5, 39552, Note_on_c, 1, 67, 121
5, 39667, Note_off_c, 1, 67, 64
5, 39936, Note_on_c, 1, 69, 121
5, 40001, Note_off_c, 1, 69, 64
5, 40032, Note_on_c, 1, 67, 119
5, 40134, Note_off_c, 1, 67, 64
5, 40224, Note_on_c, 1, 67, 120
5, 40459, Note_off_c, 1, 67, 64
5, 41088, Note_on_c, 1, 72, 122
5, 41163, Note_off_c, 1, 72, 64
5, 41184, Note_on_c, 1, 74, 123
5, 41300, Note_off_c, 1, 74, 64
5, 41376, Note_on_c, 1, 74, 123
5, 42592, Note_off_c, 1, 74, 64
5, 42624, Note_on_c, 1, 74, 121
5, 42686, Note_off_c, 1, 74, 64
5, 42720, Note_on_c, 1, 74, 122
5, 42859, Note_off_c, 1, 74, 64
5, 42912, Note_on_c, 1, 76, 123
5, 43052, Note_off_c, 1, 76, 64
5, 43104, Note_on_c, 1, 74, 122
5, 43587, Note_off_c, 1, 74, 64
5, 44160, Note_on_c, 1, 72, 121
5, 44246, Note_off_c, 1, 72, 64
5, 44256, Note_on_c, 1, 74, 122
5, 44364, Note_off_c, 1, 74, 64
5, 44448, Note_on_c, 1, 74, 121
5, 45196, Note_off_c, 1, 74, 64
5, 45696, Note_on_c, 1, 72, 121
5, 45785, Note_off_c, 1, 72, 64
5, 45792, Note_on_c, 1, 74, 122
5, 45923, Note_off_c, 1, 74, 64
5, 45984, Note_on_c, 1, 74, 122
5, 46793, Note_off_c, 1, 74, 64
5, 47232, Note_on_c, 1, 72, 120
5, 47296, Note_off_c, 1, 72, 64
5, 47328, Note_on_c, 1, 74, 123
5, 47460, Note_off_c, 1, 74, 64
5, 47520, Note_on_c, 1, 76, 122
5, 47657, Note_off_c, 1, 76, 64
5, 47712, Note_on_c, 1, 74, 121
5, 48363, Note_off_c, 1, 74, 64
5, 48768, Note_on_c, 1, 72, 119
5, 48832, Note_off_c, 1, 72, 64
5, 48864, Note_on_c, 1, 74, 121
5, 48990, Note_off_c, 1, 74, 64
5, 49056, Note_on_c, 1, 76, 123
5, 49195, Note_off_c, 1, 76, 64
5, 49248, Note_on_c, 1, 74, 121
5, 49884, Note_off_c, 1, 74, 64
5, 50304, Note_on_c, 1, 72, 119
5, 50360, Note_off_c, 1, 72, 64
5, 50400, Note_on_c, 1, 72, 119
5, 50592, Note_on_c, 1, 74, 121
5, 50608, Note_off_c, 1, 72, 64
5, 51360, Note_on_c, 1, 72, 121
5, 51369, Note_off_c, 1, 74, 64
5, 52152, Note_off_c, 1, 72, 64
5, 52608, Note_on_c, 1, 77, 122
5, 52686, Note_off_c, 1, 77, 64
5, 52704, Note_on_c, 1, 76, 119
5, 52896, Note_on_c, 1, 72, 120
5, 52918, Note_off_c, 1, 76, 64
5, 53313, Note_off_c, 1, 72, 64
5, 53376, Note_on_c, 1, 72, 117
5, 53457, Note_off_c, 1, 72, 64
5, 53472, Note_on_c, 1, 72, 117
5, 53620, Note_off_c, 1, 72, 64
5, 53664, Note_on_c, 1, 74, 119
5, 54144, Note_on_c, 1, 77, 124
5, 54217, Note_off_c, 1, 77, 64
5, 54240, Note_on_c, 1, 76, 123
5, 54411, Note_off_c, 1, 76, 64
5, 54432, Note_on_c, 1, 72, 122
5, 54528, Note_on_c, 1, 72, 108
5, 54561, Note_off_c, 1, 74, 64
5, 55041, Note_off_c, 1, 72, 64
5, 55188, Note_off_c, 1, 72, 64
5, 56736, Note_on_c, 1, 67, 117
5, 56798, Note_off_c, 1, 67, 64
5, 56832, Note_on_c, 1, 72, 124
5, 56939, Note_off_c, 1, 72, 64
5, 57024, Note_on_c, 1, 72, 120
5, 57084, Note_off_c, 1, 72, 64
5, 57120, Note_on_c, 1, 72, 121
5, 57204, Note_off_c, 1, 72, 64
5, 58272, Note_on_c, 1, 67, 113
5, 58344, Note_off_c, 1, 67, 64
5, 58368, Note_on_c, 1, 69, 120
5, 58454, Note_off_c, 1, 69, 64
5, 58464, Note_on_c, 1, 67, 114
5, 58518, Note_off_c, 1, 67, 64
5, 58656, Note_on_c, 1, 67, 113
5, 58782, Note_off_c, 1, 67, 64
5, 60096, Note_on_c, 1, 71, 120
5, 60171, Note_off_c, 1, 71, 64
5, 60288, Note_on_c, 1, 72, 120
5, 60379, Note_off_c, 1, 72, 64
5, 60672, Note_on_c, 1, 72, 115
5, 60716, Note_off_c, 1, 72, 64
5, 60768, Note_on_c, 1, 72, 117
5, 60841, Note_off_c, 1, 72, 64
5, 60960, Note_on_c, 1, 74, 120
5, 61048, Note_off_c, 1, 74, 64
5, 61152, Note_on_c, 1, 72, 119
5, 61275, Note_off_c, 1, 72, 64
5, 61632, Note_on_c, 1, 71, 119
5, 61715, Note_off_c, 1, 71, 64
5, 61824, Note_on_c, 1, 69, 119
5, 61923, Note_off_c, 1, 69, 64
5, 62208, Note_on_c, 1, 69, 118
5, 62278, Note_off_c, 1, 69, 64
5, 62304, Note_on_c, 1, 67, 116
5, 62401, Note_off_c, 1, 67, 64
5, 62496, Note_on_c, 1, 67, 113
5, 62627, Note_off_c, 1, 67, 64
5, 62976, Note_on_c, 1, 71, 119
5, 63036, Note_off_c, 1, 71, 64
5, 63072, Note_on_c, 1, 72, 121
5, 63155, Note_off_c, 1, 72, 64
5, 63264, Note_on_c, 1, 72, 118
5, 63392, Note_off_c, 1, 72, 64
5, 63456, Note_on_c, 1, 72, 108
5, 63544, Note_off_c, 1, 72, 64
5, 63648, Note_on_c, 1, 74, 115
5, 63748, Note_off_c, 1, 74, 64
5, 63840, Note_on_c, 1, 72, 116
5, 63934, Note_off_c, 1, 72, 64
5, 64032, Note_on_c, 1, 72, 117
5, 64148, Note_off_c, 1, 72, 64
5, 64512, Note_on_c, 1, 69, 118
5, 64582, Note_off_c, 1, 69, 64
5, 64608, Note_on_c, 1, 67, 113
5, 64705, Note_off_c, 1, 67, 64
5, 64800, Note_on_c, 1, 67, 112
5, 64912, Note_off_c, 1, 67, 64
5, 65184, Note_on_c, 1, 69, 117
5, 65340, Note_off_c, 1, 69, 64
5, 65376, Note_on_c, 1, 67, 115
5, 65491, Note_off_c, 1, 67, 64
5, 65568, Note_on_c, 1, 62, 109
5, 65795, Note_off_c, 1, 62, 64
5, 66048, Note_on_c, 1, 71, 118
5, 66104, Note_off_c, 1, 71, 64
5, 66144, Note_on_c, 1, 72, 117
5, 66219, Note_off_c, 1, 72, 64
5, 66336, Note_on_c, 1, 72, 117
5, 66456, Note_off_c, 1, 72, 64
5, 66816, Note_on_c, 1, 72, 117
5, 66865, Note_off_c, 1, 72, 64
5, 66912, Note_on_c, 1, 72, 115
5, 66995, Note_off_c, 1, 72, 64
5, 67104, Note_on_c, 1, 74, 114
5, 67195, Note_off_c, 1, 74, 64
5, 67296, Note_on_c, 1, 72, 118
5, 67432, Note_off_c, 1, 72, 64
5, 67776, Note_on_c, 1, 69, 117
5, 67876, Note_off_c, 1, 69, 64
5, 67968, Note_on_c, 1, 67, 121
5, 68083, Note_off_c, 1, 67, 64
5, 68352, Note_on_c, 1, 69, 121
5, 68417, Note_off_c, 1, 69, 64
5, 68448, Note_on_c, 1, 67, 119
5, 68550, Note_off_c, 1, 67, 64
5, 68640, Note_on_c, 1, 67, 120
5, 68875, Note_off_c, 1, 67, 64
5, 69504, Note_on_c, 1, 72, 122
5, 69579, Note_off_c, 1, 72, 64
5, 69600, Note_on_c, 1, 74, 123
5, 69716, Note_off_c, 1, 74, 64
5, 69792, Note_on_c, 1, 74, 123
5, 71008, Note_off_c, 1, 74, 64
5, 71040, Note_on_c, 1, 74, 121
5, 71102, Note_off_c, 1, 74, 64
5, 71136, Note_on_c, 1, 74, 122
5, 71275, Note_off_c, 1, 74, 64
5, 71328, Note_on_c, 1, 76, 123
5, 71468, Note_off_c, 1, 76, 64
5, 71520, Note_on_c, 1, 74, 122
5, 72003, Note_off_c, 1, 74, 64
5, 72576, Note_on_c, 1, 72, 121
5, 72662, Note_off_c, 1, 72, 64
5, 72672, Note_on_c, 1, 74, 122
5, 72780, Note_off_c, 1, 74, 64
5, 72864, Note_on_c, 1, 74, 121
5, 73612, Note_off_c, 1, 74, 64
5, 74112, Note_on_c, 1, 72, 121
5, 74201, Note_off_c, 1, 72, 64
5, 74208, Note_on_c, 1, 74, 122
5, 74339, Note_off_c, 1, 74, 64
5, 74400, Note_on_c, 1, 74, 122
5, 75209, Note_off_c, 1, 74, 64
5, 75648, Note_on_c, 1, 72, 120
5, 75712, Note_off_c, 1, 72, 64
5, 75744, Note_on_c, 1, 74, 123
5, 75876, Note_off_c, 1, 74, 64
5, 75936, Note_on_c, 1, 76, 122
5, 76073, Note_off_c, 1, 76, 64
5, 76128, Note_on_c, 1, 74, 121
5, 76779, Note_off_c, 1, 74, 64
5, 77184, Note_on_c, 1, 72, 119
5, 77248, Note_off_c, 1, 72, 64
5, 77280, Note_on_c, 1, 74, 121
5, 77406, Note_off_c, 1, 74, 64
5, 77472, Note_on_c, 1, 76, 123
5, 77611, Note_off_c, 1, 76, 64
5, 77664, Note_on_c, 1, 74, 121
5, 78300, Note_off_c, 1, 74, 64
5, 78720, Note_on_c, 1, 72, 119
5, 78776, Note_off_c, 1, 72, 64
5, 78816, Note_on_c, 1, 72, 119
5, 79008, Note_on_c, 1, 74, 121
5, 79024, Note_off_c, 1, 72, 64
5, 79776, Note_on_c, 1, 72, 121
5, 79785, Note_off_c, 1, 74, 64
5, 80568, Note_off_c, 1, 72, 64
5, 81024, Note_on_c, 1, 77, 122
5, 81102, Note_off_c, 1, 77, 64
5, 81120, Note_on_c, 1, 76, 119
5, 81312, Note_on_c, 1, 72, 120
5, 81334, Note_off_c, 1, 76, 64
5, 81729, Note_off_c, 1, 72, 64
5, 81792, Note_on_c, 1, 72, 117
5, 81873, Note_off_c, 1, 72, 64
5, 81888, Note_on_c, 1, 72, 117
5, 82036, Note_off_c, 1, 72, 64
5, 82080, Note_on_c, 1, 74, 119
5, 82560, Note_on_c, 1, 77, 124
5, 82633, Note_off_c, 1, 77, 64
5, 82656, Note_on_c, 1, 76, 123
5, 82827, Note_off_c, 1, 76, 64
5, 82848, Note_on_c, 1, 72, 122
5, 82944, Note_on_c, 1, 72, 108
5, 82977, Note_off_c, 1, 74, 64
5, 83457, Note_off_c, 1, 72, 64
5, 83604, Note_off_c, 1, 72, 64
5, 84864, Note_on_c, 1, 74, 122
5, 84932, Note_off_c, 1, 74, 64
5, 84960, Note_on_c, 1, 74, 123
5, 85108, Note_off_c, 1, 74, 64
5, 85152, Note_on_c, 1, 72, 123
5, 85310, Note_off_c, 1, 72, 64
5, 85344, Note_on_c, 1, 67, 122
5, 86051, Note_off_c, 1, 67, 64
5, 86400, Note_on_c, 1, 74, 121
5, 86462, Note_off_c, 1, 74, 64
5, 86496, Note_on_c, 1, 74, 122
5, 86635, Note_off_c, 1, 74, 64
5, 86688, Note_on_c, 1, 76, 123
5, 86828, Note_off_c, 1, 76, 64
5, 86880, Note_on_c, 1, 74, 122
5, 87363, Note_off_c, 1, 74, 64
5, 87936, Note_on_c, 1, 72, 121
5, 88022, Note_off_c, 1, 72, 64
5, 88032, Note_on_c, 1, 74, 122
5, 88140, Note_off_c, 1, 74, 64
5, 88224, Note_on_c, 1, 74, 121
5, 88972, Note_off_c, 1, 74, 64
5, 89472, Note_on_c, 1, 72, 121
5, 89561, Note_off_c, 1, 72, 64
5, 89568, Note_on_c, 1, 74, 122
5, 89699, Note_off_c, 1, 74, 64
5, 89760, Note_on_c, 1, 74, 122
5, 90569, Note_off_c, 1, 74, 64
5, 91008, Note_on_c, 1, 72, 120
5, 91072, Note_off_c, 1, 72, 64
5, 91104, Note_on_c, 1, 74, 123
5, 91236, Note_off_c, 1, 74, 64
5, 91296, Note_on_c, 1, 76, 122
5, 91433, Note_off_c, 1, 76, 64
5, 91488, Note_on_c, 1, 74, 121
5, 92139, Note_off_c, 1, 74, 64
5, 92544, Note_on_c, 1, 72, 119
5, 92608, Note_off_c, 1, 72, 64
5, 92640, Note_on_c, 1, 74, 121
5, 92766, Note_off_c, 1, 74, 64
5, 92832, Note_on_c, 1, 76, 123
5, 92971, Note_off_c, 1, 76, 64
5, 93024, Note_on_c, 1, 74, 121
5, 93660, Note_off_c, 1, 74, 64
5, 94080, Note_on_c, 1, 72, 121
5, 94166, Note_off_c, 1, 72, 64
5, 94176, Note_on_c, 1, 74, 122
5, 94284, Note_off_c, 1, 74, 64
5, 94368, Note_on_c, 1, 74, 121
5, 95116, Note_off_c, 1, 74, 64
5, 95616, Note_on_c, 1, 72, 121
5, 95705, Note_off_c, 1, 72, 64
5, 95712, Note_on_c, 1, 74, 122
5, 95843, Note_off_c, 1, 74, 64
5, 95904, Note_on_c, 1, 74, 122
5, 96713, Note_off_c, 1, 74, 64
5, 97152, Note_on_c, 1, 72, 120
5, 97216, Note_off_c, 1, 72, 64
5, 97248, Note_on_c, 1, 74, 123
5, 97380, Note_off_c, 1, 74, 64
5, 97440, Note_on_c, 1, 76, 122
5, 97577, Note_off_c, 1, 76, 64
5, 97632, Note_on_c, 1, 74, 121
5, 98283, Note_off_c, 1, 74, 64
5, 98688, Note_on_c, 1, 72, 119
5, 98752, Note_off_c, 1, 72, 64
5, 98784, Note_on_c, 1, 74, 121
5, 98910, Note_off_c, 1, 74, 64
5, 98976, Note_on_c, 1, 76, 123
5, 99115, Note_off_c, 1, 76, 64
5, 99168, Note_on_c, 1, 74, 121
5, 99804, Note_off_c, 1, 74, 64
5, 99804, End_track
6, 0, Start_track
6, 0, Title_t, "backing vocals"
6, 0, Channel_prefix, 4
6, 0, Control_c, 4, 7, 100
6, 0, Control_c, 4, 10, 64
6, 0, Program_c, 4, 52
6, 44544, Note_on_c, 4, 62, 120
6, 44832, Note_on_c, 4, 76, 123
6, 44998, Note_off_c, 4, 76, 64
6, 45024, Note_on_c, 4, 74, 122
6, 45166, Note_off_c, 4, 74, 64
6, 45216, Note_on_c, 4, 74, 122
6, 45296, Note_off_c, 4, 62, 64
6, 45312, Note_on_c, 4, 72, 123
6, 45318, Note_off_c, 4, 74, 64
6, 45939, Note_off_c, 4, 72, 64
6, 46080, Note_on_c, 4, 62, 118
6, 46368, Note_on_c, 4, 76, 116
6, 46560, Note_on_c, 4, 74, 122
6, 46563, Note_off_c, 4, 76, 64
6, 46702, Note_off_c, 4, 74, 64
6, 46752, Note_on_c, 4, 74, 121
6, 46848, Note_on_c, 4, 72, 120
6, 46849, Note_off_c, 4, 62, 64
6, 46875, Note_off_c, 4, 74, 64
6, 47452, Note_off_c, 4, 72, 64
6, 47616, Note_on_c, 4, 62, 118
6, 47904, Note_on_c, 4, 76, 121
6, 48094, Note_off_c, 4, 76, 64
6, 48096, Note_on_c, 4, 74, 121
6, 48236, Note_off_c, 4, 74, 64
6, 48288, Note_on_c, 4, 74, 120
6, 48372, Note_off_c, 4, 62, 64
6, 48384, Note_on_c, 4, 72, 119
6, 48396, Note_off_c, 4, 74, 64
6, 49020, Note_off_c, 4, 72, 64
6, 49152, Note_on_c, 4, 62, 116
6, 49747, Note_off_c, 4, 62, 64
6, 49920, Note_on_c, 4, 48, 121
6, 50688, Note_on_c, 4, 47, 123
6, 50710, Note_off_c, 4, 48, 64
6, 51456, Note_on_c, 4, 46, 127
6, 51470, Note_off_c, 4, 47, 64
6, 52224, Note_on_c, 4, 43, 124
6, 52225, Note_off_c, 4, 46, 64
6, 52992, Note_on_c, 4, 48, 122
6, 53008, Note_off_c, 4, 43, 64
6, 53760, Note_on_c, 4, 47, 123
6, 53769, Note_off_c, 4, 48, 64
6, 54528, Note_on_c, 4, 46, 127
6, 54548, Note_off_c, 4, 47, 64
6, 55296, Note_on_c, 4, 43, 124
6, 55300, Note_off_c, 4, 46, 64
6, 55848, Note_off_c, 4, 43, 64
6, 72960, Note_on_c, 4, 62, 120
6, 73248, Note_on_c, 4, 76, 123
6, 73414, Note_off_c, 4, 76, 64
6, 73440, Note_on_c, 4, 74, 122
6, 73582, Note_off_c, 4, 74, 64
6, 73632, Note_on_c, 4, 74, 122
6, 73712, Note_off_c, 4, 62, 64
6, 73728, Note_on_c, 4, 72, 123
6, 73734, Note_off_c, 4, 74, 64
6, 74355, Note_off_c, 4, 72, 64
6, 74496, Note_on_c, 4, 62, 118
6, 74784, Note_on_c, 4, 76, 116
6, 74976, Note_on_c, 4, 74, 122
6, 74979, Note_off_c, 4, 76, 64
6, 75118, Note_off_c, 4, 74, 64
6, 75168, Note_on_c, 4, 74, 121
6, 75264, Note_on_c, 4, 72, 120
6, 75265, Note_off_c, 4, 62, 64
6, 75291, Note_off_c, 4, 74, 64
6, 75868, Note_off_c, 4, 72, 64
6, 76032, Note_on_c, 4, 62, 118
6, 76320, Note_on_c, 4, 76, 121
6, 76510, Note_off_c, 4, 76, 64
6, 76512, Note_on_c, 4, 74, 121
6, 76652, Note_off_c, 4, 74, 64
6, 76704, Note_on_c, 4, 74, 120
6, 76788, Note_off_c, 4, 62, 64
6, 76800, Note_on_c, 4, 72, 119
6, 76812, Note_off_c, 4, 74, 64
6, 77436, Note_off_c, 4, 72, 64
6, 77568, Note_on_c, 4, 62, 116
6, 78163, Note_off_c, 4, 62, 64
6, 78336, Note_on_c, 4, 48, 121
6, 79104, Note_on_c, 4, 47, 123
6, 79126, Note_off_c, 4, 48, 64
6, 79872, Note_on_c, 4, 46, 127
6, 79886, Note_off_c, 4, 47, 64
6, 80640, Note_on_c, 4, 43, 124
6, 80641, Note_off_c, 4, 46, 64
6, 81408, Note_on_c, 4, 48, 122
6, 81424, Note_off_c, 4, 43, 64
6, 82176, Note_on_c, 4, 47, 123
6, 82185, Note_off_c, 4, 48, 64
6, 82944, Note_on_c, 4, 46, 127
6, 82964, Note_off_c, 4, 47, 64
6, 83712, Note_on_c, 4, 43, 124
6, 83716, Note_off_c, 4, 46, 64
6, 84264, Note_off_c, 4, 43, 64
6, 88320, Note_on_c, 4, 62, 120
6, 88608, Note_on_c, 4, 76, 123
6, 88774, Note_off_c, 4, 76, 64
6, 88800, Note_on_c, 4, 74, 122
6, 88942, Note_off_c, 4, 74, 64
6, 88992, Note_on_c, 4, 74, 122
6, 89072, Note_off_c, 4, 62, 64
6, 89088, Note_on_c, 4, 72, 123
6, 89094, Note_off_c, 4, 74, 64
6, 89715, Note_off_c, 4, 72, 64
6, 89856, Note_on_c, 4, 62, 118
6, 90144, Note_on_c, 4, 76, 116
6, 90336, Note_on_c, 4, 74, 122
6, 90339, Note_off_c, 4, 76, 64
6, 90478, Note_off_c, 4, 74, 64
6, 90528, Note_on_c, 4, 74, 121
6, 90624, Note_on_c, 4, 72, 120
6, 90625, Note_off_c, 4, 62, 64
6, 90651, Note_off_c, 4, 74, 64
6, 91228, Note_off_c, 4, 72, 64
6, 91392, Note_on_c, 4, 62, 118
6, 91680, Note_on_c, 4, 76, 121
6, 91870, Note_off_c, 4, 76, 64
6, 91872, Note_on_c, 4, 74, 121
6, 92012, Note_off_c, 4, 74, 64
6, 92064, Note_on_c, 4, 74, 120
6, 92148, Note_off_c, 4, 62, 64
6, 92160, Note_on_c, 4, 72, 119
6, 92172, Note_off_c, 4, 74, 64
6, 92796, Note_off_c, 4, 72, 64
6, 92928, Note_on_c, 4, 62, 116
6, 93523, Note_off_c, 4, 62, 64
6, 94464, Note_on_c, 4, 62, 120
6, 94752, Note_on_c, 4, 76, 123
6, 94918, Note_off_c, 4, 76, 64
6, 94944, Note_on_c, 4, 74, 122
6, 95086, Note_off_c, 4, 74, 64
6, 95136, Note_on_c, 4, 74, 122
6, 95216, Note_off_c, 4, 62, 64
6, 95232, Note_on_c, 4, 72, 123
6, 95238, Note_off_c, 4, 74, 64
6, 95859, Note_off_c, 4, 72, 64
6, 96000, Note_on_c, 4, 62, 118
6, 96288, Note_on_c, 4, 76, 116
6, 96480, Note_on_c, 4, 74, 122
6, 96483, Note_off_c, 4, 76, 64
6, 96622, Note_off_c, 4, 74, 64
6, 96672, Note_on_c, 4, 74, 121
6, 96768, Note_on_c, 4, 72, 120
6, 96769, Note_off_c, 4, 62, 64
6, 96795, Note_off_c, 4, 74, 64
6, 97372, Note_off_c, 4, 72, 64
6, 97536, Note_on_c, 4, 62, 118
6, 97824, Note_on_c, 4, 76, 121
6, 98014, Note_off_c, 4, 76, 64
6, 98016, Note_on_c, 4, 74, 121
6, 98156, Note_off_c, 4, 74, 64
6, 98208, Note_on_c, 4, 74, 120
6, 98292, Note_off_c, 4, 62, 64
6, 98304, Note_on_c, 4, 72, 119
6, 98316, Note_off_c, 4, 74, 64
6, 98940, Note_off_c, 4, 72, 64
6, 99072, Note_on_c, 4, 62, 116
6, 99667, Note_off_c, 4, 62, 64
6, 99667, End_track
7, 0, Start_track
7, 0, Title_t, "drums"
7, 0, Channel_prefix, 9
7, 0, Control_c, 9, 7, 120
7, 0, Control_c, 9, 10, 64
7, 0, Program_c, 9, 0
7, 768, Note_on_c, 9, 36, 100
7, 816, Note_off_c, 9, 36, 64
7, 960, Note_on_c, 9, 36, 100
7, 1008, Note_off_c, 9, 36, 64
7, 1152, Note_on_c, 9, 36, 100
7, 1200, Note_off_c, 9, 36, 64
7, 1344, Note_on_c, 9, 36, 100
7, 1392, Note_off_c, 9, 36, 64
7, 1536, Note_on_c, 9, 36, 100
7, 1584, Note_off_c, 9, 36, 64
7, 1728, Note_on_c, 9, 36, 100
7, 1776, Note_off_c, 9, 36, 64
7, 1920, Note_on_c, 9, 36, 100
7, 1968, Note_off_c, 9, 36, 64
7, 2112, Note_on_c, 9, 36, 100
7, 2160, Note_off_c, 9, 36, 64
7, 2304, Note_on_c, 9, 36, 100
7, 2352, Note_off_c, 9, 36, 64
7, 2496, Note_on_c, 9, 36, 100
7, 2544, Note_off_c, 9, 36, 64
7, 2688, Note_on_c, 9, 36, 100
7, 2736, Note_off_c, 9, 36, 64
7, 2880, Note_on_c, 9, 36, 100
7, 2928, Note_off_c, 9, 36, 64
7, 3072, Note_on_c, 9, 36, 100
7, 3120, Note_off_c, 9, 36, 64
7, 3264, Note_on_c, 9, 36, 100
7, 3312, Note_off_c, 9, 36, 64
7, 3456, Note_on_c, 9, 36, 100
7, 3504, Note_off_c, 9, 36, 64
7, 3648, Note_on_c, 9, 36, 100
7, 3696, Note_off_c, 9, 36, 64
7, 3744, Note_on_c, 9, 46, 90
7, 3840, Note_on_c, 9, 36, 100
7, 3840, Note_on_c, 9, 44, 80
7, 3864, Note_off_c, 9, 46, 64
7, 3888, Note_off_c, 9, 36, 64
7, 3955, Note_off_c, 9, 44, 64
7, 4032, Note_on_c, 9, 36, 100
7, 4080, Note_off_c, 9, 36, 64
7, 4224, Note_on_c, 9, 36, 100
7, 4272, Note_off_c, 9, 36, 64
7, 4416, Note_on_c, 9, 36, 100
7, 4464, Note_off_c, 9, 36, 64
7, 4608, Note_on_c, 9, 36, 100
7, 4656, Note_off_c, 9, 36, 64
7, 4800, Note_on_c, 9, 36, 100
7, 4848, Note_off_c, 9, 36, 64
7, 4992, Note_on_c, 9, 36, 100
7, 5040, Note_off_c, 9, 36, 64
7, 5184, Note_on_c, 9, 36, 100
7, 5232, Note_off_c, 9, 36, 64
7, 5376, Note_on_c, 9, 36, 100
7, 5424, Note_off_c, 9, 36, 64
7, 5568, Note_on_c, 9, 36, 100
7, 5616, Note_off_c, 9, 36, 64
7, 5760, Note_on_c, 9, 36, 100
7, 5808, Note_off_c, 9, 36, 64
7, 5952, Note_on_c, 9, 36, 100
7, 6000, Note_off_c, 9, 36, 64
7, 6144, Note_on_c, 9, 36, 100
7, 6192, Note_off_c, 9, 36, 64
7, 6336, Note_on_c, 9, 36, 100
7, 6384, Note_off_c, 9, 36, 64
7, 6528, Note_on_c, 9, 36, 100
7, 6576, Note_off_c, 9, 36, 64
7, 6720, Note_on_c, 9, 36, 100
7, 6768, Note_off_c, 9, 36, 64
7, 6912, Note_on_c, 9, 36, 100
7, 6912, Note_on_c, 9, 65, 124
7, 6960, Note_off_c, 9, 36, 64
7, 7038, Note_off_c, 9, 65, 64
7, 7104, Note_on_c, 9, 65, 124
7, 7104, Note_on_c, 9, 36, 100
7, 7152, Note_off_c, 9, 36, 64
7, 7225, Note_off_c, 9, 65, 64
7, 7296, Note_on_c, 9, 36, 100
7, 7296, Note_on_c, 9, 65, 123
7, 7296, Note_on_c, 9, 80, 87
7, 7344, Note_off_c, 9, 36, 64
7, 7456, Note_off_c, 9, 80, 64
7, 7488, Note_on_c, 9, 36, 100
7, 7536, Note_off_c, 9, 36, 64
7, 7680, Note_on_c, 9, 36, 100
7, 7728, Note_off_c, 9, 36, 64
7, 7872, Note_on_c, 9, 36, 100
7, 7920, Note_off_c, 9, 36, 64
7, 8064, Note_on_c, 9, 36, 100
7, 8112, Note_off_c, 9, 36, 64
7, 8256, Note_on_c, 9, 36, 100
7, 8304, Note_off_c, 9, 36, 64
7, 8336, Note_off_c, 9, 65, 64
7, 8448, Note_on_c, 9, 65, 123
7, 8448, Note_on_c, 9, 36, 100
7, 8496, Note_off_c, 9, 36, 64
7, 8572, Note_off_c, 9, 65, 64
7, 8640, Note_on_c, 9, 36, 100
7, 8640, Note_on_c, 9, 65, 122
7, 8688, Note_off_c, 9, 36, 64
7, 8761, Note_off_c, 9, 65, 64
7, 8832, Note_on_c, 9, 36, 100
7, 8832, Note_on_c, 9, 65, 122
7, 8832, Note_on_c, 9, 80, 82
7, 8880, Note_off_c, 9, 36, 64
7, 8934, Note_off_c, 9, 80, 64
7, 9024, Note_on_c, 9, 36, 100
7, 9072, Note_off_c, 9, 36, 64
7, 9216, Note_on_c, 9, 36, 100
7, 9264, Note_off_c, 9, 36, 64
7, 9408, Note_on_c, 9, 36, 100
7, 9456, Note_off_c, 9, 36, 64
7, 9600, Note_on_c, 9, 36, 100
7, 9648, Note_off_c, 9, 36, 64
7, 9792, Note_on_c, 9, 36, 100
7, 9840, Note_off_c, 9, 36, 64
7, 9931, Note_off_c, 9, 65, 64
7, 9984, Note_on_c, 9, 65, 119
7, 9984, Note_on_c, 9, 36, 100
7, 10032, Note_off_c, 9, 36, 64
7, 10139, Note_off_c, 9, 65, 64
7, 10176, Note_on_c, 9, 65, 124
7, 10176, Note_on_c, 9, 36, 100
7, 10224, Note_off_c, 9, 36, 64
7, 10313, Note_off_c, 9, 65, 64
7, 10368, Note_on_c, 9, 36, 100
7, 10368, Note_on_c, 9, 68, 127
7, 10368, Note_on_c, 9, 80, 79
7, 10416, Note_off_c, 9, 36, 64
7, 10494, Note_off_c, 9, 80, 64
7, 10555, Note_off_c, 9, 68, 64
7, 10560, Note_on_c, 9, 36, 100
7, 10608, Note_off_c, 9, 36, 64
7, 10752, Note_on_c, 9, 36, 100
7, 10800, Note_off_c, 9, 36, 64
7, 10944, Note_on_c, 9, 36, 100
7, 10992, Note_off_c, 9, 36, 64
7, 11136, Note_on_c, 9, 36, 100
7, 11184, Note_off_c, 9, 36, 64
7, 11328, Note_on_c, 9, 36, 100
7, 11376, Note_off_c, 9, 36, 64
7, 11520, Note_on_c, 9, 36, 100
7, 11520, Note_on_c, 9, 65, 124
7, 11568, Note_off_c, 9, 36, 64
7, 11638, Note_off_c, 9, 65, 64
7, 11712, Note_on_c, 9, 36, 100
7, 11712, Note_on_c, 9, 65, 122
7, 11760, Note_off_c, 9, 36, 64
7, 11833, Note_off_c, 9, 65, 64
7, 11904, Note_on_c, 9, 80, 75
7, 11904, Note_on_c, 9, 36, 100
7, 11904, Note_on_c, 9, 65, 124
7, 11952, Note_off_c, 9, 36, 64
7, 12033, Note_off_c, 9, 80, 64
7, 12096, Note_on_c, 9, 36, 100
7, 12144, Note_off_c, 9, 36, 64
7, 12288, Note_on_c, 9, 36, 100
7, 12336, Note_off_c, 9, 36, 64
7, 12480, Note_on_c, 9, 36, 100
7, 12528, Note_off_c, 9, 36, 64
7, 12672, Note_on_c, 9, 36, 100
7, 12720, Note_off_c, 9, 36, 64
7, 12864, Note_on_c, 9, 36, 100
7, 12912, Note_off_c, 9, 36, 64
7, 12956, Note_off_c, 9, 65, 64
7, 13056, Note_on_c, 9, 36, 100
7, 13056, Note_on_c, 9, 65, 124
7, 13104, Note_off_c, 9, 36, 64
7, 13174, Note_off_c, 9, 65, 64
7, 13248, Note_on_c, 9, 36, 100
7, 13248, Note_on_c, 9, 65, 124
7, 13296, Note_off_c, 9, 36, 64
7, 13361, Note_off_c, 9, 65, 64
7, 13440, Note_on_c, 9, 36, 100
7, 13440, Note_on_c, 9, 65, 124
7, 13440, Note_on_c, 9, 80, 77
7, 13488, Note_off_c, 9, 36, 64
7, 13536, Note_off_c, 9, 80, 64
7, 13632, Note_on_c, 9, 36, 100
7, 13680, Note_off_c, 9, 36, 64
7, 13824, Note_on_c, 9, 36, 100
7, 13872, Note_off_c, 9, 36, 64
7, 14016, Note_on_c, 9, 36, 100
7, 14064, Note_off_c, 9, 36, 64
7, 14208, Note_on_c, 9, 36, 100
7, 14256, Note_off_c, 9, 36, 64
7, 14400, Note_on_c, 9, 36, 100
7, 14448, Note_off_c, 9, 36, 64
7, 14539, Note_off_c, 9, 65, 64
7, 14592, Note_on_c, 9, 36, 100
7, 14592, Note_on_c, 9, 65, 124
7, 14640, Note_off_c, 9, 36, 64
7, 14726, Note_off_c, 9, 65, 64
7, 14784, Note_on_c, 9, 36, 100
7, 14784, Note_on_c, 9, 65, 124
7, 14832, Note_off_c, 9, 36, 64
7, 14918, Note_off_c, 9, 65, 64
7, 14976, Note_on_c, 9, 36, 100
7, 14976, Note_on_c, 9, 65, 124
7, 14976, Note_on_c, 9, 80, 82
7, 15024, Note_off_c, 9, 36, 64
7, 15060, Note_off_c, 9, 80, 64
7, 15168, Note_on_c, 9, 36, 100
7, 15216, Note_off_c, 9, 36, 64
7, 15360, Note_on_c, 9, 36, 100
7, 15408, Note_off_c, 9, 36, 64
7, 15552, Note_on_c, 9, 36, 100
7, 15600, Note_off_c, 9, 36, 64
7, 15744, Note_on_c, 9, 36, 100
7, 15792, Note_off_c, 9, 36, 64
7, 15865, Note_off_c, 9, 65, 64
7, 15936, Note_on_c, 9, 65, 122
7, 15936, Note_on_c, 9, 36, 100
7, 15984, Note_off_c, 9, 36, 64
7, 16059, Note_off_c, 9, 65, 64
7, 16128, Note_on_c, 9, 36, 100
7, 16128, Note_on_c, 9, 65, 126
7, 16176, Note_off_c, 9, 36, 64
7, 16320, Note_on_c, 9, 36, 100
7, 16320, Note_on_c, 9, 80, 85
7, 16368, Note_off_c, 9, 36, 64
7, 16412, Note_off_c, 9, 80, 64
7, 16512, Note_on_c, 9, 36, 100
7, 16560, Note_off_c, 9, 36, 64
7, 16704, Note_on_c, 9, 36, 100
7, 16752, Note_off_c, 9, 36, 64
7, 16896, Note_on_c, 9, 36, 100
7, 16944, Note_off_c, 9, 36, 64
7, 17088, Note_on_c, 9, 36, 100
7, 17136, Note_off_c, 9, 36, 64
7, 17280, Note_on_c, 9, 36, 100
7, 17328, Note_off_c, 9, 36, 64
7, 17472, Note_on_c, 9, 36, 100
7, 17520, Note_off_c, 9, 36, 64
7, 17593, Note_off_c, 9, 65, 64
7, 17664, Note_on_c, 9, 36, 100
7, 17664, Note_on_c, 9, 65, 125
7, 17712, Note_off_c, 9, 36, 64
7, 17856, Note_on_c, 9, 36, 100
7, 17856, Note_on_c, 9, 40, 127
7, 17904, Note_off_c, 9, 36, 64
7, 17987, Note_off_c, 9, 65, 64
7, 18048, Note_on_c, 9, 36, 100
7, 18048, Note_on_c, 9, 65, 123
7, 18096, Note_off_c, 9, 36, 64
7, 18240, Note_on_c, 9, 36, 100
7, 18288, Note_off_c, 9, 36, 64
7, 18300, Note_off_c, 9, 40, 64
7, 18432, Note_on_c, 9, 36, 100
7, 18480, Note_off_c, 9, 36, 64
7, 18528, Note_on_c, 9, 40, 126
7, 18624, Note_on_c, 9, 36, 100
7, 18633, Note_off_c, 9, 65, 64
7, 18633, Note_off_c, 9, 40, 64
7, 18672, Note_off_c, 9, 36, 64
7, 18816, Note_on_c, 9, 36, 100
7, 18864, Note_off_c, 9, 36, 64
7, 18912, Note_on_c, 9, 40, 124
7, 18912, Note_on_c, 9, 40, 127
7, 18948, Note_off_c, 9, 40, 64
7, 18988, Note_off_c, 9, 40, 64
7, 19008, Note_on_c, 9, 40, 127
7, 19008, Note_on_c, 9, 36, 100
7, 19051, Note_off_c, 9, 40, 64
7, 19056, Note_off_c, 9, 36, 64
7, 19104, Note_on_c, 9, 40, 127
7, 19169, Note_off_c, 9, 40, 64
7, 19200, Note_on_c, 9, 36, 124
7, 19312, Note_off_c, 9, 36, 64
7, 19392, Note_on_c, 9, 40, 126
7, 19484, Note_off_c, 9, 40, 64
7, 19584, Note_on_c, 9, 36, 126
7, 19622, Note_off_c, 9, 36, 64
7, 19680, Note_on_c, 9, 36, 124
7, 19724, Note_off_c, 9, 36, 64
7, 19776, Note_on_c, 9, 40, 126
7, 19880, Note_off_c, 9, 40, 64
7, 19968, Note_on_c, 9, 36, 125
7, 20059, Note_off_c, 9, 36, 64
7, 20160, Note_on_c, 9, 40, 125
7, 20244, Note_off_c, 9, 40, 64
7, 20352, Note_on_c, 9, 36, 122
7, 20393, Note_off_c, 9, 36, 64
7, 20448, Note_on_c, 9, 36, 120
7, 20492, Note_off_c, 9, 36, 64
7, 20544, Note_on_c, 9, 40, 125
7, 20635, Note_off_c, 9, 40, 64
7, 20736, Note_on_c, 9, 36, 124
7, 20816, Note_off_c, 9, 36, 64
7, 20928, Note_on_c, 9, 40, 125
7, 21024, Note_off_c, 9, 40, 64
7, 21120, Note_on_c, 9, 36, 123
7, 21158, Note_off_c, 9, 36, 64
7, 21216, Note_on_c, 9, 36, 124
7, 21257, Note_off_c, 9, 36, 64
7, 21312, Note_on_c, 9, 40, 126
7, 21393, Note_off_c, 9, 40, 64
7, 21504, Note_on_c, 9, 47, 127
7, 21539, Note_off_c, 9, 47, 64
7, 21600, Note_on_c, 9, 47, 127
7, 21638, Note_off_c, 9, 47, 64
7, 21696, Note_on_c, 9, 45, 126
7, 21721, Note_off_c, 9, 45, 64
7, 21792, Note_on_c, 9, 45, 126
7, 21832, Note_off_c, 9, 45, 64
7, 21888, Note_on_c, 9, 43, 127
7, 21924, Note_off_c, 9, 43, 64
7, 21984, Note_on_c, 9, 43, 127
7, 22020, Note_off_c, 9, 43, 64
7, 22080, Note_on_c, 9, 40, 127
7, 22097, Note_off_c, 9, 40, 64
7, 22112, Note_on_c, 9, 40, 127
7, 22136, Note_off_c, 9, 40, 64
7, 22176, Note_on_c, 9, 40, 127
7, 22193, Note_off_c, 9, 40, 64
7, 22208, Note_on_c, 9, 40, 127
7, 22230, Note_off_c, 9, 40, 64
7, 22272, Note_on_c, 9, 36, 121
7, 22364, Note_off_c, 9, 36, 64
7, 22464, Note_on_c, 9, 40, 121
7, 22569, Note_off_c, 9, 40, 64
7, 22656, Note_on_c, 9, 36, 121
7, 22704, Note_off_c, 9, 36, 64
7, 22752, Note_on_c, 9, 36, 123
7, 22803, Note_off_c, 9, 36, 64
7, 22848, Note_on_c, 9, 40, 124
7, 22955, Note_off_c, 9, 40, 64
7, 23040, Note_on_c, 9, 36, 124
7, 23131, Note_off_c, 9, 36, 64
7, 23232, Note_on_c, 9, 40, 125
7, 23334, Note_off_c, 9, 40, 64
7, 23424, Note_on_c, 9, 36, 124
7, 23468, Note_off_c, 9, 36, 64
7, 23520, Note_on_c, 9, 36, 125
7, 23568, Note_off_c, 9, 36, 64
7, 23616, Note_on_c, 9, 40, 126
7, 23715, Note_off_c, 9, 40, 64
7, 23808, Note_on_c, 9, 36, 126
7, 23897, Note_off_c, 9, 36, 64
7, 24000, Note_on_c, 9, 40, 121
7, 24022, Note_off_c, 9, 40, 64
7, 24192, Note_on_c, 9, 36, 125
7, 24241, Note_off_c, 9, 36, 64
7, 24288, Note_on_c, 9, 36, 121
7, 24336, Note_off_c, 9, 36, 64
7, 24384, Note_on_c, 9, 40, 124
7, 24486, Note_off_c, 9, 40, 64
7, 24576, Note_on_c, 9, 36, 124
7, 24656, Note_off_c, 9, 36, 64
7, 24768, Note_on_c, 9, 40, 125
7, 24800, Note_off_c, 9, 40, 64
7, 24960, Note_on_c, 9, 36, 122
7, 25008, Note_off_c, 9, 36, 64
7, 25056, Note_on_c, 9, 36, 121
7, 25105, Note_off_c, 9, 36, 64
7, 25152, Note_on_c, 9, 40, 124
7, 25251, Note_off_c, 9, 40, 64
7, 25344, Note_on_c, 9, 36, 123
7, 25419, Note_off_c, 9, 36, 64
7, 25536, Note_on_c, 9, 40, 125
7, 25635, Note_off_c, 9, 40, 64
7, 25728, Note_on_c, 9, 36, 124
7, 25772, Note_off_c, 9, 36, 64
7, 25824, Note_on_c, 9, 36, 122
7, 25875, Note_off_c, 9, 36, 64
7, 25920, Note_on_c, 9, 40, 123
7, 26022, Note_off_c, 9, 40, 64
7, 26112, Note_on_c, 9, 36, 122
7, 26196, Note_off_c, 9, 36, 64
7, 26304, Note_on_c, 9, 40, 124
7, 26401, Note_off_c, 9, 40, 64
7, 26496, Note_on_c, 9, 36, 123
7, 26540, Note_off_c, 9, 36, 64
7, 26592, Note_on_c, 9, 36, 122
7, 26641, Note_off_c, 9, 36, 64
7, 26688, Note_on_c, 9, 40, 122
7, 26787, Note_off_c, 9, 40, 64
7, 26880, Note_on_c, 9, 36, 124
7, 26958, Note_off_c, 9, 36, 64
7, 27072, Note_on_c, 9, 40, 125
7, 27168, Note_off_c, 9, 40, 64
7, 27264, Note_on_c, 9, 36, 123
7, 27304, Note_off_c, 9, 36, 64
7, 27360, Note_on_c, 9, 36, 123
7, 27408, Note_off_c, 9, 36, 64
7, 27456, Note_on_c, 9, 40, 125
7, 27548, Note_off_c, 9, 40, 64
7, 27648, Note_on_c, 9, 36, 124
7, 27732, Note_off_c, 9, 36, 64
7, 27840, Note_on_c, 9, 40, 125
7, 27932, Note_off_c, 9, 40, 64
7, 28032, Note_on_c, 9, 36, 123
7, 28080, Note_off_c, 9, 36, 64
7, 28128, Note_on_c, 9, 36, 121
7, 28177, Note_off_c, 9, 36, 64
7, 28224, Note_on_c, 9, 40, 125
7, 28315, Note_off_c, 9, 40, 64
7, 28416, Note_on_c, 9, 36, 100
7, 28416, Note_on_c, 9, 65, 124
7, 28464, Note_off_c, 9, 36, 64
7, 28542, Note_off_c, 9, 65, 64
7, 28608, Note_on_c, 9, 65, 124
7, 28608, Note_on_c, 9, 36, 100
7, 28656, Note_off_c, 9, 36, 64
7, 28729, Note_off_c, 9, 65, 64
7, 28800, Note_on_c, 9, 36, 100
7, 28800, Note_on_c, 9, 65, 123
7, 28800, Note_on_c, 9, 80, 87
7, 28848, Note_off_c, 9, 36, 64
7, 28960, Note_off_c, 9, 80, 64
7, 28992, Note_on_c, 9, 36, 100
7, 29040, Note_off_c, 9, 36, 64
7, 29184, Note_on_c, 9, 36, 100
7, 29232, Note_off_c, 9, 36, 64
7, 29376, Note_on_c, 9, 36, 100
7, 29424, Note_off_c, 9, 36, 64
7, 29568, Note_on_c, 9, 36, 100
7, 29616, Note_off_c, 9, 36, 64
7, 29760, Note_on_c, 9, 36, 100
7, 29808, Note_off_c, 9, 36, 64
7, 29840, Note_off_c, 9, 65, 64
7, 29952, Note_on_c, 9, 65, 123
7, 29952, Note_on_c, 9, 36, 100
7, 30000, Note_off_c, 9, 36, 64
7, 30076, Note_off_c, 9, 65, 64
7, 30144, Note_on_c, 9, 36, 100
7, 30144, Note_on_c, 9, 65, 122
7, 30192, Note_off_c, 9, 36, 64
7, 30265, Note_off_c, 9, 65, 64
7, 30336, Note_on_c, 9, 36, 100
7, 30336, Note_on_c, 9, 65, 122
7, 30336, Note_on_c, 9, 80, 82
7, 30384, Note_off_c, 9, 36, 64
7, 30438, Note_off_c, 9, 80, 64
7, 30528, Note_on_c, 9, 36, 100
7, 30576, Note_off_c, 9, 36, 64
7, 30720, Note_on_c, 9, 36, 100
7, 30768, Note_off_c, 9, 36, 64
7, 30912, Note_on_c, 9, 36, 100
7, 30960, Note_off_c, 9, 36, 64
7, 31104, Note_on_c, 9, 36, 100
7, 31152, Note_off_c, 9, 36, 64
7, 31296, Note_on_c, 9, 36, 100
7, 31344, Note_off_c, 9, 36, 64
7, 31435, Note_off_c, 9, 65, 64
7, 31488, Note_on_c, 9, 65, 119
7, 31488, Note_on_c, 9, 36, 100
7, 31536, Note_off_c, 9, 36, 64
7, 31643, Note_off_c, 9, 65, 64
7, 31680, Note_on_c, 9, 65, 124
7, 31680, Note_on_c, 9, 36, 100
7, 31728, Note_off_c, 9, 36, 64
7, 31817, Note_off_c, 9, 65, 64
7, 31872, Note_on_c, 9, 65, 100
7, 31872, Note_on_c, 9, 68, 127
7, 31872, Note_on_c, 9, 80, 79
7, 31920, Note_off_c, 9, 65, 64
7, 31998, Note_off_c, 9, 80, 64
7, 32059, Note_off_c, 9, 68, 64
7, 32064, Note_on_c, 9, 36, 100
7, 32112, Note_off_c, 9, 36, 64
7, 32256, Note_on_c, 9, 36, 100
7, 32304, Note_off_c, 9, 36, 64
7, 32448, Note_on_c, 9, 36, 100
7, 32496, Note_off_c, 9, 36, 64
7, 32640, Note_on_c, 9, 36, 100
7, 32688, Note_off_c, 9, 36, 64
7, 32832, Note_on_c, 9, 36, 100
7, 32880, Note_off_c, 9, 36, 64
7, 33024, Note_on_c, 9, 36, 100
7, 33024, Note_on_c, 9, 65, 124
7, 33072, Note_off_c, 9, 36, 64
7, 33142, Note_off_c, 9, 65, 64
7, 33216, Note_on_c, 9, 36, 100
7, 33216, Note_on_c, 9, 65, 122
7, 33264, Note_off_c, 9, 36, 64
7, 33337, Note_off_c, 9, 65, 64
7, 33408, Note_on_c, 9, 80, 75
7, 33408, Note_on_c, 9, 36, 100
7, 33408, Note_on_c, 9, 65, 124
7, 33456, Note_off_c, 9, 36, 64
7, 33537, Note_off_c, 9, 80, 64
7, 33600, Note_on_c, 9, 36, 100
7, 33648, Note_off_c, 9, 36, 64
7, 33792, Note_on_c, 9, 36, 100
7, 33840, Note_off_c, 9, 36, 64
7, 33984, Note_on_c, 9, 36, 100
7, 34032, Note_off_c, 9, 36, 64
7, 34176, Note_on_c, 9, 36, 100
7, 34224, Note_off_c, 9, 36, 64
7, 34368, Note_on_c, 9, 36, 100
7, 34416, Note_off_c, 9, 36, 64
7, 34460, Note_off_c, 9, 65, 64
7, 34560, Note_on_c, 9, 36, 100
7, 34560, Note_on_c, 9, 65, 124
7, 34608, Note_off_c, 9, 36, 64
7, 34678, Note_off_c, 9, 65, 64
7, 34752, Note_on_c, 9, 36, 100
7, 34752, Note_on_c, 9, 65, 124
7, 34800, Note_off_c, 9, 36, 64
7, 34865, Note_off_c, 9, 65, 64
7, 34944, Note_on_c, 9, 36, 100
7, 34944, Note_on_c, 9, 65, 124
7, 34944, Note_on_c, 9, 80, 77
7, 34992, Note_off_c, 9, 36, 64
7, 35040, Note_off_c, 9, 80, 64
7, 35136, Note_on_c, 9, 36, 100
7, 35184, Note_off_c, 9, 36, 64
7, 35328, Note_on_c, 9, 36, 100
7, 35376, Note_off_c, 9, 36, 64
7, 35520, Note_on_c, 9, 36, 100
7, 35568, Note_off_c, 9, 36, 64
7, 35712, Note_on_c, 9, 36, 100
7, 35760, Note_off_c, 9, 36, 64
7, 35904, Note_on_c, 9, 36, 100
7, 35952, Note_off_c, 9, 36, 64
7, 36043, Note_off_c, 9, 65, 64
7, 36096, Note_on_c, 9, 36, 100
7, 36096, Note_on_c, 9, 65, 124
7, 36144, Note_off_c, 9, 36, 64
7, 36230, Note_off_c, 9, 65, 64
7, 36288, Note_on_c, 9, 36, 100
7, 36288, Note_on_c, 9, 65, 124
7, 36336, Note_off_c, 9, 36, 64
7, 36422, Note_off_c, 9, 65, 64
7, 36480, Note_on_c, 9, 36, 100
7, 36480, Note_on_c, 9, 65, 124
7, 36480, Note_on_c, 9, 80, 82
7, 36528, Note_off_c, 9, 36, 64
7, 36564, Note_off_c, 9, 80, 64
7, 36672, Note_on_c, 9, 36, 100
7, 36720, Note_off_c, 9, 36, 64
7, 36864, Note_on_c, 9, 36, 100
7, 36912, Note_off_c, 9, 36, 64
7, 37056, Note_on_c, 9, 36, 100
7, 37104, Note_off_c, 9, 36, 64
7, 37248, Note_on_c, 9, 36, 100
7, 37296, Note_off_c, 9, 36, 64
7, 37369, Note_off_c, 9, 65, 64
7, 37440, Note_on_c, 9, 65, 122
7, 37440, Note_on_c, 9, 36, 100
7, 37488, Note_off_c, 9, 36, 64
7, 37563, Note_off_c, 9, 65, 64
7, 37632, Note_on_c, 9, 36, 100
7, 37632, Note_on_c, 9, 65, 126
7, 37680, Note_off_c, 9, 36, 64
7, 37824, Note_on_c, 9, 36, 100
7, 37824, Note_on_c, 9, 80, 85
7, 37872, Note_off_c, 9, 36, 64
7, 37916, Note_off_c, 9, 80, 64
7, 38016, Note_on_c, 9, 36, 100
7, 38064, Note_off_c, 9, 36, 64
7, 38208, Note_on_c, 9, 36, 100
7, 38256, Note_off_c, 9, 36, 64
7, 38400, Note_on_c, 9, 36, 100
7, 38448, Note_off_c, 9, 36, 64
7, 38592, Note_on_c, 9, 36, 100
7, 38640, Note_off_c, 9, 36, 64
7, 38784, Note_on_c, 9, 36, 100
7, 38832, Note_off_c, 9, 36, 64
7, 38976, Note_on_c, 9, 36, 100
7, 39024, Note_off_c, 9, 36, 64
7, 39097, Note_off_c, 9, 65, 64
7, 39168, Note_on_c, 9, 36, 100
7, 39168, Note_on_c, 9, 65, 125
7, 39216, Note_off_c, 9, 36, 64
7, 39360, Note_on_c, 9, 36, 100
7, 39360, Note_on_c, 9, 40, 127
7, 39408, Note_off_c, 9, 36, 64
7, 39491, Note_off_c, 9, 65, 64
7, 39552, Note_on_c, 9, 36, 100
7, 39552, Note_on_c, 9, 65, 123
7, 39600, Note_off_c, 9, 36, 64
7, 39744, Note_on_c, 9, 36, 100
7, 39792, Note_off_c, 9, 36, 64
7, 39804, Note_off_c, 9, 40, 64
7, 39936, Note_on_c, 9, 36, 100
7, 39984, Note_off_c, 9, 36, 64
7, 40032, Note_on_c, 9, 40, 126
7, 40128, Note_on_c, 9, 36, 100
7, 40137, Note_off_c, 9, 65, 64
7, 40137, Note_off_c, 9, 40, 64
7, 40176, Note_off_c, 9, 36, 64
7, 40320, Note_on_c, 9, 36, 100
7, 40368, Note_off_c, 9, 36, 64
7, 40416, Note_on_c, 9, 40, 124
7, 40416, Note_on_c, 9, 40, 127
7, 40452, Note_off_c, 9, 40, 64
7, 40492, Note_off_c, 9, 40, 64
7, 40512, Note_on_c, 9, 40, 127
7, 40512, Note_on_c, 9, 36, 100
7, 40555, Note_off_c, 9, 40, 64
7, 40560, Note_off_c, 9, 36, 64
7, 40608, Note_on_c, 9, 40, 127
7, 40673, Note_off_c, 9, 40, 64
7, 40704, Note_on_c, 9, 36, 124
7, 40816, Note_off_c, 9, 36, 64
7, 40896, Note_on_c, 9, 40, 126
7, 40988, Note_off_c, 9, 40, 64
7, 41088, Note_on_c, 9, 36, 126
7, 41126, Note_off_c, 9, 36, 64
7, 41184, Note_on_c, 9, 36, 124
7, 41228, Note_off_c, 9, 36, 64
7, 41280, Note_on_c, 9, 40, 126
7, 41384, Note_off_c, 9, 40, 64
7, 41472, Note_on_c, 9, 36, 125
7, 41563, Note_off_c, 9, 36, 64
7, 41664, Note_on_c, 9, 40, 125
7, 41748, Note_off_c, 9, 40, 64
7, 41856, Note_on_c, 9, 36, 122
7, 41897, Note_off_c, 9, 36, 64
7, 41952, Note_on_c, 9, 36, 120
7, 41996, Note_off_c, 9, 36, 64
7, 42048, Note_on_c, 9, 40, 125
7, 42139, Note_off_c, 9, 40, 64
7, 42240, Note_on_c, 9, 36, 124
7, 42320, Note_off_c, 9, 36, 64
7, 42432, Note_on_c, 9, 40, 125
7, 42528, Note_off_c, 9, 40, 64
7, 42624, Note_on_c, 9, 36, 123
7, 42662, Note_off_c, 9, 36, 64
7, 42720, Note_on_c, 9, 36, 124
7, 42761, Note_off_c, 9, 36, 64
7, 42816, Note_on_c, 9, 40, 126
7, 42897, Note_off_c, 9, 40, 64
7, 43008, Note_on_c, 9, 47, 127
7, 43043, Note_off_c, 9, 47, 64
7, 43104, Note_on_c, 9, 47, 127
7, 43142, Note_off_c, 9, 47, 64
7, 43200, Note_on_c, 9, 45, 126
7, 43225, Note_off_c, 9, 45, 64
7, 43296, Note_on_c, 9, 45, 126
7, 43336, Note_off_c, 9, 45, 64
7, 43392, Note_on_c, 9, 43, 127
7, 43428, Note_off_c, 9, 43, 64
7, 43488, Note_on_c, 9, 43, 127
7, 43524, Note_off_c, 9, 43, 64
7, 43584, Note_on_c, 9, 40, 127
7, 43601, Note_off_c, 9, 40, 64
7, 43616, Note_on_c, 9, 40, 127
7, 43640, Note_off_c, 9, 40, 64
7, 43680, Note_on_c, 9, 40, 127
7, 43697, Note_off_c, 9, 40, 64
7, 43712, Note_on_c, 9, 40, 127
7, 43734, Note_off_c, 9, 40, 64
7, 43776, Note_on_c, 9, 36, 121
7, 43868, Note_off_c, 9, 36, 64
7, 43968, Note_on_c, 9, 40, 121
7, 44073, Note_off_c, 9, 40, 64
7, 44160, Note_on_c, 9, 36, 121
7, 44208, Note_off_c, 9, 36, 64
7, 44256, Note_on_c, 9, 36, 123
7, 44307, Note_off_c, 9, 36, 64
7, 44352, Note_on_c, 9, 40, 124
7, 44459, Note_off_c, 9, 40, 64
7, 44544, Note_on_c, 9, 36, 124
7, 44635, Note_off_c, 9, 36, 64
7, 44736, Note_on_c, 9, 40, 125
7, 44838, Note_off_c, 9, 40, 64
7, 44928, Note_on_c, 9, 36, 124
7, 44972, Note_off_c, 9, 36, 64
7, 45024, Note_on_c, 9, 36, 125
7, 45072, Note_off_c, 9, 36, 64
7, 45120, Note_on_c, 9, 40, 126
7, 45219, Note_off_c, 9, 40, 64
7, 45312, Note_on_c, 9, 36, 126
7, 45401, Note_off_c, 9, 36, 64
7, 45504, Note_on_c, 9, 40, 121
7, 45526, Note_off_c, 9, 40, 64
7, 45696, Note_on_c, 9, 36, 125
7, 45745, Note_off_c, 9, 36, 64
7, 45792, Note_on_c, 9, 36, 121
7, 45840, Note_off_c, 9, 36, 64
7, 45888, Note_on_c, 9, 40, 124
7, 45990, Note_off_c, 9, 40, 64
7, 46080, Note_on_c, 9, 36, 124
7, 46160, Note_off_c, 9, 36, 64
7, 46272, Note_on_c, 9, 40, 125
7, 46304, Note_off_c, 9, 40, 64
7, 46464, Note_on_c, 9, 36, 122
7, 46512, Note_off_c, 9, 36, 64
7, 46560, Note_on_c, 9, 36, 121
7, 46609, Note_off_c, 9, 36, 64
7, 46656, Note_on_c, 9, 40, 124
7, 46755, Note_off_c, 9, 40, 64
7, 46848, Note_on_c, 9, 36, 123
7, 46923, Note_off_c, 9, 36, 64
7, 47040, Note_on_c, 9, 40, 125
7, 47139, Note_off_c, 9, 40, 64
7, 47232, Note_on_c, 9, 36, 124
7, 47276, Note_off_c, 9, 36, 64
7, 47328, Note_on_c, 9, 36, 122
7, 47379, Note_off_c, 9, 36, 64
7, 47424, Note_on_c, 9, 40, 123
7, 47526, Note_off_c, 9, 40, 64
7, 47616, Note_on_c, 9, 36, 122
7, 47700, Note_off_c, 9, 36, 64
7, 47808, Note_on_c, 9, 40, 124
7, 47905, Note_off_c, 9, 40, 64
7, 48000, Note_on_c, 9, 36, 123
7, 48044, Note_off_c, 9, 36, 64
7, 48096, Note_on_c, 9, 36, 122
7, 48145, Note_off_c, 9, 36, 64
7, 48192, Note_on_c, 9, 40, 122
7, 48291, Note_off_c, 9, 40, 64
7, 48384, Note_on_c, 9, 36, 124
7, 48462, Note_off_c, 9, 36, 64
7, 48576, Note_on_c, 9, 40, 125
7, 48672, Note_off_c, 9, 40, 64
7, 48768, Note_on_c, 9, 36, 123
7, 48808, Note_off_c, 9, 36, 64
7, 48864, Note_on_c, 9, 36, 123
7, 48912, Note_off_c, 9, 36, 64
7, 48960, Note_on_c, 9, 40, 125
7, 49052, Note_off_c, 9, 40, 64
7, 49152, Note_on_c, 9, 36, 124
7, 49236, Note_off_c, 9, 36, 64
7, 49344, Note_on_c, 9, 40, 125
7, 49436, Note_off_c, 9, 40, 64
7, 49536, Note_on_c, 9, 36, 123
7, 49584, Note_off_c, 9, 36, 64
7, 49632, Note_on_c, 9, 36, 121
7, 49681, Note_off_c, 9, 36, 64
7, 49728, Note_on_c, 9, 40, 125
7, 49819, Note_off_c, 9, 40, 64
7, 49920, Note_on_c, 9, 40, 126
7, 49920, Note_on_c, 9, 36, 125
7, 49920, Note_on_c, 9, 47, 125
7, 49987, Note_off_c, 9, 47, 64
7, 49988, Note_off_c, 9, 40, 64
7, 49996, Note_off_c, 9, 36, 64
7, 50112, Note_on_c, 9, 36, 125
7, 50112, Note_on_c, 9, 40, 126
7, 50112, Note_on_c, 9, 47, 126
7, 50185, Note_off_c, 9, 47, 64
7, 50185, Note_off_c, 9, 40, 64
7, 50195, Note_off_c, 9, 36, 64
7, 50304, Note_on_c, 9, 36, 125
7, 50304, Note_on_c, 9, 40, 126
7, 50304, Note_on_c, 9, 47, 126
7, 50369, Note_off_c, 9, 47, 64
7, 50371, Note_off_c, 9, 40, 64
7, 50379, Note_off_c, 9, 36, 64
7, 50496, Note_on_c, 9, 36, 124
7, 50496, Note_on_c, 9, 40, 126
7, 50496, Note_on_c, 9, 47, 126
7, 50564, Note_off_c, 9, 47, 64
7, 50564, Note_off_c, 9, 40, 64
7, 50577, Note_off_c, 9, 36, 64
7, 50688, Note_on_c, 9, 40, 126
7, 50688, Note_on_c, 9, 36, 123
7, 50688, Note_on_c, 9, 47, 126
7, 50742, Note_off_c, 9, 47, 64
7, 50745, Note_off_c, 9, 40, 64
7, 50753, Note_off_c, 9, 36, 64
7, 50880, Note_on_c, 9, 40, 126
7, 50880, Note_on_c, 9, 36, 124
7, 50880, Note_on_c, 9, 47, 126
7, 50942, Note_off_c, 9, 47, 64
7, 50942, Note_off_c, 9, 40, 64
7, 50947, Note_off_c, 9, 36, 64
7, 51072, Note_on_c, 9, 40, 125
7, 51072, Note_on_c, 9, 36, 123
7, 51072, Note_on_c, 9, 47, 125
7, 51134, Note_off_c, 9, 36, 64
7, 51134, Note_off_c, 9, 40, 64
7, 51137, Note_off_c, 9, 47, 64
7, 51264, Note_on_c, 9, 40, 125
7, 51264, Note_on_c, 9, 36, 123
7, 51264, Note_on_c, 9, 47, 125
7, 51336, Note_off_c, 9, 40, 64
7, 51339, Note_off_c, 9, 36, 64
7, 51339, Note_off_c, 9, 47, 64
7, 51456, Note_on_c, 9, 40, 125
7, 51456, Note_on_c, 9, 36, 123
7, 51456, Note_on_c, 9, 47, 125
7, 51512, Note_off_c, 9, 47, 64
7, 51513, Note_off_c, 9, 40, 64
7, 51516, Note_off_c, 9, 36, 64
7, 51648, Note_on_c, 9, 40, 124
7, 51648, Note_on_c, 9, 36, 122
7, 51648, Note_on_c, 9, 47, 126
7, 51708, Note_off_c, 9, 40, 64
7, 51712, Note_off_c, 9, 47, 64
7, 51715, Note_off_c, 9, 36, 64
7, 51840, Note_on_c, 9, 40, 125
7, 51840, Note_on_c, 9, 36, 122
7, 51840, Note_on_c, 9, 47, 125
7, 51900, Note_off_c, 9, 47, 64
7, 51904, Note_off_c, 9, 40, 64
7, 51907, Note_off_c, 9, 36, 64
7, 52032, Note_on_c, 9, 40, 125
7, 52032, Note_on_c, 9, 36, 123
7, 52032, Note_on_c, 9, 47, 125
7, 52097, Note_off_c, 9, 47, 64
7, 52099, Note_off_c, 9, 36, 64
7, 52099, Note_off_c, 9, 40, 64
7, 52224, Note_on_c, 9, 40, 126
7, 52224, Note_on_c, 9, 36, 124
7, 52224, Note_on_c, 9, 47, 125
7, 52280, Note_off_c, 9, 47, 64
7, 52284, Note_off_c, 9, 40, 64
7, 52286, Note_off_c, 9, 36, 64
7, 52416, Note_on_c, 9, 36, 123
7, 52416, Note_on_c, 9, 40, 125
7, 52416, Note_on_c, 9, 47, 125
7, 52476, Note_off_c, 9, 40, 64
7, 52480, Note_off_c, 9, 47, 64
7, 52481, Note_off_c, 9, 36, 64
7, 52608, Note_on_c, 9, 40, 125
7, 52608, Note_on_c, 9, 36, 123
7, 52608, Note_on_c, 9, 47, 125
7, 52662, Note_off_c, 9, 47, 64
7, 52664, Note_off_c, 9, 40, 64
7, 52673, Note_off_c, 9, 36, 64
7, 52800, Note_on_c, 9, 40, 124
7, 52800, Note_on_c, 9, 36, 122
7, 52800, Note_on_c, 9, 47, 125
7, 52859, Note_off_c, 9, 40, 64
7, 52862, Note_off_c, 9, 47, 64
7, 52865, Note_off_c, 9, 36, 64
7, 52992, Note_on_c, 9, 40, 125
7, 52992, Note_on_c, 9, 36, 123
7, 52992, Note_on_c, 9, 47, 125
7, 53043, Note_off_c, 9, 40, 64
7, 53044, Note_off_c, 9, 47, 64
7, 53048, Note_off_c, 9, 36, 64
7, 53184, Note_on_c, 9, 40, 125
7, 53184, Note_on_c, 9, 36, 123
7, 53184, Note_on_c, 9, 47, 125
7, 53238, Note_off_c, 9, 47, 64
7, 53238, Note_off_c, 9, 40, 64
7, 53243, Note_off_c, 9, 36, 64
7, 53376, Note_on_c, 9, 40, 125
7, 53376, Note_on_c, 9, 36, 123
7, 53376, Note_on_c, 9, 47, 125
7, 53427, Note_off_c, 9, 47, 64
7, 53433, Note_off_c, 9, 40, 64
7, 53440, Note_off_c, 9, 36, 64
7, 53568, Note_on_c, 9, 40, 123
7, 53568, Note_on_c, 9, 36, 121
7, 53568, Note_on_c, 9, 47, 124
7, 53624, Note_off_c, 9, 47, 64
7, 53625, Note_off_c, 9, 40, 64
7, 53630, Note_off_c, 9, 36, 64
7, 53760, Note_on_c, 9, 40, 125
7, 53760, Note_on_c, 9, 36, 123
7, 53760, Note_on_c, 9, 47, 126
7, 53811, Note_off_c, 9, 47, 64
7, 53814, Note_off_c, 9, 40, 64
7, 53819, Note_off_c, 9, 36, 64
7, 53952, Note_on_c, 9, 40, 124
7, 53952, Note_on_c, 9, 47, 125
7, 53952, Note_on_c, 9, 36, 122
7, 54009, Note_off_c, 9, 47, 64
7, 54009, Note_off_c, 9, 40, 64
7, 54014, Note_off_c, 9, 36, 64
7, 54144, Note_on_c, 9, 40, 124
7, 54144, Note_on_c, 9, 47, 125
7, 54144, Note_on_c, 9, 36, 121
7, 54195, Note_off_c, 9, 36, 64
7, 54195, Note_off_c, 9, 47, 64
7, 54195, Note_off_c, 9, 40, 64
7, 54336, Note_on_c, 9, 40, 124
7, 54336, Note_on_c, 9, 36, 122
7, 54336, Note_on_c, 9, 47, 125
7, 54393, Note_off_c, 9, 40, 64
7, 54395, Note_off_c, 9, 47, 64
7, 54396, Note_off_c, 9, 36, 64
7, 54528, Note_on_c, 9, 40, 125
7, 54528, Note_on_c, 9, 36, 123
7, 54528, Note_on_c, 9, 47, 125
7, 54577, Note_off_c, 9, 40, 64
7, 54579, Note_off_c, 9, 47, 64
7, 54584, Note_off_c, 9, 36, 64
7, 54720, Note_on_c, 9, 40, 124
7, 54720, Note_on_c, 9, 36, 122
7, 54720, Note_on_c, 9, 47, 125
7, 54766, Note_off_c, 9, 40, 64
7, 54769, Note_off_c, 9, 47, 64
7, 54774, Note_off_c, 9, 36, 64
7, 54912, Note_on_c, 9, 40, 125
7, 54912, Note_on_c, 9, 36, 123
7, 54912, Note_on_c, 9, 47, 125
7, 54961, Note_off_c, 9, 47, 64
7, 54964, Note_off_c, 9, 40, 64
7, 54968, Note_off_c, 9, 36, 64
7, 55104, Note_on_c, 9, 40, 125
7, 55104, Note_on_c, 9, 47, 125
7, 55104, Note_on_c, 9, 36, 123
7, 55152, Note_off_c, 9, 40, 64
7, 55153, Note_off_c, 9, 47, 64
7, 55155, Note_off_c, 9, 36, 64
7, 55296, Note_on_c, 9, 40, 125
7, 55296, Note_on_c, 9, 36, 123
7, 55296, Note_on_c, 9, 47, 125
7, 55296, Note_on_c, 9, 49, 125
7, 55342, Note_off_c, 9, 49, 64
7, 55342, Note_off_c, 9, 47, 64
7, 55345, Note_off_c, 9, 40, 64
7, 55350, Note_off_c, 9, 36, 64
7, 56064, Note_on_c, 9, 36, 100
7, 56112, Note_off_c, 9, 36, 64
7, 56256, Note_on_c, 9, 36, 100
7, 56304, Note_off_c, 9, 36, 64
7, 56448, Note_on_c, 9, 36, 100
7, 56496, Note_off_c, 9, 36, 64
7, 56640, Note_on_c, 9, 36, 100
7, 56688, Note_off_c, 9, 36, 64
7, 56832, Note_on_c, 9, 36, 100
7, 56880, Note_off_c, 9, 36, 64
7, 57024, Note_on_c, 9, 36, 100
7, 57072, Note_off_c, 9, 36, 64
7, 57216, Note_on_c, 9, 36, 100
7, 57216, Note_on_c, 9, 80, 87
7, 57264, Note_off_c, 9, 36, 64
7, 57376, Note_off_c, 9, 80, 64
7, 57408, Note_on_c, 9, 36, 100
7, 57456, Note_off_c, 9, 36, 64
7, 57600, Note_on_c, 9, 36, 100
7, 57648, Note_off_c, 9, 36, 64
7, 57792, Note_on_c, 9, 36, 100
7, 57840, Note_off_c, 9, 36, 64
7, 57984, Note_on_c, 9, 36, 100
7, 58032, Note_off_c, 9, 36, 64
7, 58176, Note_on_c, 9, 36, 100
7, 58224, Note_off_c, 9, 36, 64
7, 58368, Note_on_c, 9, 65, 123
7, 58368, Note_on_c, 9, 36, 100
7, 58416, Note_off_c, 9, 36, 64
7, 58492, Note_off_c, 9, 65, 64
7, 58560, Note_on_c, 9, 36, 100
7, 58560, Note_on_c, 9, 65, 122
7, 58608, Note_off_c, 9, 36, 64
7, 58681, Note_off_c, 9, 65, 64
7, 58752, Note_on_c, 9, 36, 100
7, 58752, Note_on_c, 9, 65, 122
7, 58752, Note_on_c, 9, 80, 82
7, 58800, Note_off_c, 9, 36, 64
7, 58854, Note_off_c, 9, 80, 64
7, 58944, Note_on_c, 9, 36, 100
7, 58992, Note_off_c, 9, 36, 64
7, 59136, Note_on_c, 9, 36, 100
7, 59184, Note_off_c, 9, 36, 64
7, 59328, Note_on_c, 9, 36, 100
7, 59376, Note_off_c, 9, 36, 64
7, 59520, Note_on_c, 9, 36, 100
7, 59568, Note_off_c, 9, 36, 64
7, 59712, Note_on_c, 9, 36, 100
7, 59760, Note_off_c, 9, 36, 64
7, 59851, Note_off_c, 9, 65, 64
7, 59904, Note_on_c, 9, 65, 119
7, 59904, Note_on_c, 9, 36, 100
7, 59952, Note_off_c, 9, 36, 64
7, 60059, Note_off_c, 9, 65, 64
7, 60096, Note_on_c, 9, 65, 124
7, 60096, Note_on_c, 9, 36, 100
7, 60144, Note_off_c, 9, 36, 64
7, 60233, Note_off_c, 9, 65, 64
7, 60288, Note_on_c, 9, 36, 100
7, 60288, Note_on_c, 9, 68, 127
7, 60288, Note_on_c, 9, 80, 79
7, 60336, Note_off_c, 9, 36, 64
7, 60414, Note_off_c, 9, 80, 64
7, 60475, Note_off_c, 9, 68, 64
7, 60480, Note_on_c, 9, 36, 100
7, 60528, Note_off_c, 9, 36, 64
7, 60672, Note_on_c, 9, 36, 100
7, 60720, Note_off_c, 9, 36, 64
7, 60864, Note_on_c, 9, 36, 100
7, 60912, Note_off_c, 9, 36, 64
7, 61056, Note_on_c, 9, 36, 100
7, 61104, Note_off_c, 9, 36, 64
7, 61248, Note_on_c, 9, 36, 100
7, 61296, Note_off_c, 9, 36, 64
7, 61440, Note_on_c, 9, 36, 100
7, 61440, Note_on_c, 9, 65, 124
7, 61488, Note_off_c, 9, 36, 64
7, 61558, Note_off_c, 9, 65, 64
7, 61632, Note_on_c, 9, 36, 100
7, 61632, Note_on_c, 9, 65, 122
7, 61680, Note_off_c, 9, 36, 64
7, 61753, Note_off_c, 9, 65, 64
7, 61824, Note_on_c, 9, 80, 75
7, 61824, Note_on_c, 9, 36, 100
7, 61824, Note_on_c, 9, 65, 124
7, 61872, Note_off_c, 9, 36, 64
7, 61953, Note_off_c, 9, 80, 64
7, 62016, Note_on_c, 9, 36, 100
7, 62064, Note_off_c, 9, 36, 64
7, 62208, Note_on_c, 9, 36, 100
7, 62256, Note_off_c, 9, 36, 64
7, 62400, Note_on_c, 9, 36, 100
7, 62448, Note_off_c, 9, 36, 64
7, 62592, Note_on_c, 9, 36, 100
7, 62640, Note_off_c, 9, 36, 64
7, 62784, Note_on_c, 9, 36, 100
7, 62832, Note_off_c, 9, 36, 64
7, 62876, Note_off_c, 9, 65, 64
7, 62976, Note_on_c, 9, 36, 100
7, 62976, Note_on_c, 9, 65, 124
7, 63024, Note_off_c, 9, 36, 64
7, 63094, Note_off_c, 9, 65, 64
7, 63168, Note_on_c, 9, 36, 100
7, 63168, Note_on_c, 9, 65, 124
7, 63216, Note_off_c, 9, 36, 64
7, 63281, Note_off_c, 9, 65, 64
7, 63360, Note_on_c, 9, 36, 100
7, 63360, Note_on_c, 9, 65, 124
7, 63360, Note_on_c, 9, 80, 77
7, 63408, Note_off_c, 9, 36, 64
7, 63456, Note_off_c, 9, 80, 64
7, 63552, Note_on_c, 9, 36, 100
7, 63600, Note_off_c, 9, 36, 64
7, 63744, Note_on_c, 9, 36, 100
7, 63792, Note_off_c, 9, 36, 64
7, 63936, Note_on_c, 9, 36, 100
7, 63984, Note_off_c, 9, 36, 64
7, 64128, Note_on_c, 9, 36, 100
7, 64176, Note_off_c, 9, 36, 64
7, 64320, Note_on_c, 9, 36, 100
7, 64368, Note_off_c, 9, 36, 64
7, 64459, Note_off_c, 9, 65, 64
7, 64512, Note_on_c, 9, 36, 100
7, 64512, Note_on_c, 9, 65, 124
7, 64560, Note_off_c, 9, 36, 64
7, 64646, Note_off_c, 9, 65, 64
7, 64704, Note_on_c, 9, 36, 100
7, 64704, Note_on_c, 9, 65, 124
7, 64752, Note_off_c, 9, 36, 64
7, 64838, Note_off_c, 9, 65, 64
7, 64896, Note_on_c, 9, 36, 100
7, 64896, Note_on_c, 9, 65, 124
7, 64896, Note_on_c, 9, 80, 82
7, 64944, Note_off_c, 9, 36, 64
7, 64980, Note_off_c, 9, 80, 64
7, 65088, Note_on_c, 9, 36, 100
7, 65136, Note_off_c, 9, 36, 64
7, 65280, Note_on_c, 9, 36, 100
7, 65328, Note_off_c, 9, 36, 64
7, 65472, Note_on_c, 9, 36, 100
7, 65520, Note_off_c, 9, 36, 64
7, 65664, Note_on_c, 9, 36, 100
7, 65712, Note_off_c, 9, 36, 64
7, 65785, Note_off_c, 9, 65, 64
7, 65856, Note_on_c, 9, 65, 122
7, 65856, Note_on_c, 9, 36, 100
7, 65904, Note_off_c, 9, 36, 64
7, 65979, Note_off_c, 9, 65, 64
7, 66048, Note_on_c, 9, 36, 100
7, 66048, Note_on_c, 9, 65, 126
7, 66096, Note_off_c, 9, 36, 64
7, 66240, Note_on_c, 9, 36, 100
7, 66240, Note_on_c, 9, 80, 85
7, 66288, Note_off_c, 9, 36, 64
7, 66332, Note_off_c, 9, 80, 64
7, 66432, Note_on_c, 9, 36, 100
7, 66480, Note_off_c, 9, 36, 64
7, 66624, Note_on_c, 9, 36, 100
7, 66672, Note_off_c, 9, 36, 64
7, 66816, Note_on_c, 9, 36, 100
7, 66864, Note_off_c, 9, 36, 64
7, 67008, Note_on_c, 9, 36, 100
7, 67056, Note_off_c, 9, 36, 64
7, 67200, Note_on_c, 9, 36, 100
7, 67248, Note_off_c, 9, 36, 64
7, 67392, Note_on_c, 9, 36, 100
7, 67440, Note_off_c, 9, 36, 64
7, 67513, Note_off_c, 9, 65, 64
7, 67584, Note_on_c, 9, 36, 100
7, 67584, Note_on_c, 9, 65, 125
7, 67632, Note_off_c, 9, 36, 64
7, 67776, Note_on_c, 9, 36, 100
7, 67776, Note_on_c, 9, 40, 127
7, 67824, Note_off_c, 9, 36, 64
7, 67907, Note_off_c, 9, 65, 64
7, 67968, Note_on_c, 9, 36, 100
7, 67968, Note_on_c, 9, 65, 123
7, 68016, Note_off_c, 9, 36, 64
7, 68160, Note_on_c, 9, 36, 100
7, 68208, Note_off_c, 9, 36, 64
7, 68220, Note_off_c, 9, 40, 64
7, 68352, Note_on_c, 9, 36, 100
7, 68400, Note_off_c, 9, 36, 64
7, 68448, Note_on_c, 9, 40, 126
7, 68544, Note_on_c, 9, 36, 100
7, 68553, Note_off_c, 9, 65, 64
7, 68553, Note_off_c, 9, 40, 64
7, 68592, Note_off_c, 9, 36, 64
7, 68736, Note_on_c, 9, 36, 100
7, 68784, Note_off_c, 9, 36, 64
7, 68832, Note_on_c, 9, 40, 124
7, 68832, Note_on_c, 9, 40, 127
7, 68868, Note_off_c, 9, 40, 64
7, 68908, Note_off_c, 9, 40, 64
7, 68928, Note_on_c, 9, 40, 127
7, 68928, Note_on_c, 9, 36, 100
7, 68971, Note_off_c, 9, 40, 64
7, 68976, Note_off_c, 9, 36, 64
7, 69024, Note_on_c, 9, 40, 127
7, 69089, Note_off_c, 9, 40, 64
7, 69120, Note_on_c, 9, 36, 124
7, 69232, Note_off_c, 9, 36, 64
7, 69312, Note_on_c, 9, 40, 126
7, 69404, Note_off_c, 9, 40, 64
7, 69504, Note_on_c, 9, 36, 126
7, 69542, Note_off_c, 9, 36, 64
7, 69600, Note_on_c, 9, 36, 124
7, 69644, Note_off_c, 9, 36, 64
7, 69696, Note_on_c, 9, 40, 126
7, 69800, Note_off_c, 9, 40, 64
7, 69888, Note_on_c, 9, 36, 125
7, 69979, Note_off_c, 9, 36, 64
7, 70080, Note_on_c, 9, 40, 125
7, 70164, Note_off_c, 9, 40, 64
7, 70272, Note_on_c, 9, 36, 122
7, 70313, Note_off_c, 9, 36, 64
7, 70368, Note_on_c, 9, 36, 120
7, 70412, Note_off_c, 9, 36, 64
7, 70464, Note_on_c, 9, 40, 125
7, 70555, Note_off_c, 9, 40, 64
7, 70656, Note_on_c, 9, 36, 124
7, 70736, Note_off_c, 9, 36, 64
7, 70848, Note_on_c, 9, 40, 125
7, 70944, Note_off_c, 9, 40, 64
7, 71040, Note_on_c, 9, 36, 123
7, 71078, Note_off_c, 9, 36, 64
7, 71136, Note_on_c, 9, 36, 124
7, 71177, Note_off_c, 9, 36, 64
7, 71232, Note_on_c, 9, 40, 126
7, 71313, Note_off_c, 9, 40, 64
7, 71424, Note_on_c, 9, 47, 127
7, 71459, Note_off_c, 9, 47, 64
7, 71520, Note_on_c, 9, 47, 127
7, 71558, Note_off_c, 9, 47, 64
7, 71616, Note_on_c, 9, 45, 126
7, 71641, Note_off_c, 9, 45, 64
7, 71712, Note_on_c, 9, 45, 126
7, 71752, Note_off_c, 9, 45, 64
7, 71808, Note_on_c, 9, 43, 127
7, 71844, Note_off_c, 9, 43, 64
7, 71904, Note_on_c, 9, 43, 127
7, 71940, Note_off_c, 9, 43, 64
7, 72000, Note_on_c, 9, 40, 127
7, 72017, Note_off_c, 9, 40, 64
7, 72032, Note_on_c, 9, 40, 127
7, 72056, Note_off_c, 9, 40, 64
7, 72096, Note_on_c, 9, 40, 127
7, 72113, Note_off_c, 9, 40, 64
7, 72128, Note_on_c, 9, 40, 127
7, 72150, Note_off_c, 9, 40, 64
7, 72192, Note_on_c, 9, 36, 121
7, 72284, Note_off_c, 9, 36, 64
7, 72384, Note_on_c, 9, 40, 121
7, 72489, Note_off_c, 9, 40, 64
7, 72576, Note_on_c, 9, 36, 121
7, 72624, Note_off_c, 9, 36, 64
7, 72672, Note_on_c, 9, 36, 123
7, 72723, Note_off_c, 9, 36, 64
7, 72768, Note_on_c, 9, 40, 124
7, 72875, Note_off_c, 9, 40, 64
7, 72960, Note_on_c, 9, 36, 124
7, 73051, Note_off_c, 9, 36, 64
7, 73152, Note_on_c, 9, 40, 125
7, 73254, Note_off_c, 9, 40, 64
7, 73344, Note_on_c, 9, 36, 124
7, 73388, Note_off_c, 9, 36, 64
7, 73440, Note_on_c, 9, 36, 125
7, 73488, Note_off_c, 9, 36, 64
7, 73536, Note_on_c, 9, 40, 126
7, 73635, Note_off_c, 9, 40, 64
7, 73728, Note_on_c, 9, 36, 126
7, 73817, Note_off_c, 9, 36, 64
7, 73920, Note_on_c, 9, 40, 121
7, 73942, Note_off_c, 9, 40, 64
7, 74112, Note_on_c, 9, 36, 125
7, 74161, Note_off_c, 9, 36, 64
7, 74208, Note_on_c, 9, 36, 121
7, 74256, Note_off_c, 9, 36, 64
7, 74304, Note_on_c, 9, 40, 124
7, 74406, Note_off_c, 9, 40, 64
7, 74496, Note_on_c, 9, 36, 124
7, 74576, Note_off_c, 9, 36, 64
7, 74688, Note_on_c, 9, 40, 125
7, 74720, Note_off_c, 9, 40, 64
7, 74880, Note_on_c, 9, 36, 122
7, 74928, Note_off_c, 9, 36, 64
7, 74976, Note_on_c, 9, 36, 121
7, 75025, Note_off_c, 9, 36, 64
7, 75072, Note_on_c, 9, 40, 124
7, 75171, Note_off_c, 9, 40, 64
7, 75264, Note_on_c, 9, 36, 123
7, 75339, Note_off_c, 9, 36, 64
7, 75456, Note_on_c, 9, 40, 125
7, 75555, Note_off_c, 9, 40, 64
7, 75648, Note_on_c, 9, 36, 124
7, 75692, Note_off_c, 9, 36, 64
7, 75744, Note_on_c, 9, 36, 122
7, 75795, Note_off_c, 9, 36, 64
7, 75840, Note_on_c, 9, 40, 123
7, 75942, Note_off_c, 9, 40, 64
7, 76032, Note_on_c, 9, 36, 122
7, 76116, Note_off_c, 9, 36, 64
7, 76224, Note_on_c, 9, 40, 124
7, 76321, Note_off_c, 9, 40, 64
7, 76416, Note_on_c, 9, 36, 123
7, 76460, Note_off_c, 9, 36, 64
7, 76512, Note_on_c, 9, 36, 122
7, 76561, Note_off_c, 9, 36, 64
7, 76608, Note_on_c, 9, 40, 122
7, 76707, Note_off_c, 9, 40, 64
7, 76800, Note_on_c, 9, 36, 124
7, 76878, Note_off_c, 9, 36, 64
7, 76992, Note_on_c, 9, 40, 125
7, 77088, Note_off_c, 9, 40, 64
7, 77184, Note_on_c, 9, 36, 123
7, 77224, Note_off_c, 9, 36, 64
7, 77280, Note_on_c, 9, 36, 123
7, 77328, Note_off_c, 9, 36, 64
7, 77376, Note_on_c, 9, 40, 125
7, 77468, Note_off_c, 9, 40, 64
7, 77568, Note_on_c, 9, 36, 124
7, 77652, Note_off_c, 9, 36, 64
7, 77760, Note_on_c, 9, 40, 125
7, 77852, Note_off_c, 9, 40, 64
7, 77952, Note_on_c, 9, 36, 123
7, 78000, Note_off_c, 9, 36, 64
7, 78048, Note_on_c, 9, 36, 121
7, 78097, Note_off_c, 9, 36, 64
7, 78144, Note_on_c, 9, 40, 125
7, 78235, Note_off_c, 9, 40, 64
7, 78336, Note_on_c, 9, 40, 126
7, 78336, Note_on_c, 9, 36, 125
7, 78336, Note_on_c, 9, 47, 125
7, 78403, Note_off_c, 9, 47, 64
7, 78404, Note_off_c, 9, 40, 64
7, 78412, Note_off_c, 9, 36, 64
7, 78528, Note_on_c, 9, 36, 125
7, 78528, Note_on_c, 9, 40, 126
7, 78528, Note_on_c, 9, 47, 126
7, 78601, Note_off_c, 9, 47, 64
7, 78601, Note_off_c, 9, 40, 64
7, 78611, Note_off_c, 9, 36, 64
7, 78720, Note_on_c, 9, 36, 125
7, 78720, Note_on_c, 9, 40, 126
7, 78720, Note_on_c, 9, 47, 126
7, 78785, Note_off_c, 9, 47, 64
7, 78787, Note_off_c, 9, 40, 64
7, 78795, Note_off_c, 9, 36, 64
7, 78912, Note_on_c, 9, 36, 124
7, 78912, Note_on_c, 9, 40, 126
7, 78912, Note_on_c, 9, 47, 126
7, 78980, Note_off_c, 9, 47, 64
7, 78980, Note_off_c, 9, 40, 64
7, 78993, Note_off_c, 9, 36, 64
7, 79104, Note_on_c, 9, 40, 126
7, 79104, Note_on_c, 9, 36, 123
7, 79104, Note_on_c, 9, 47, 126
7, 79158, Note_off_c, 9, 47, 64
7, 79161, Note_off_c, 9, 40, 64
7, 79169, Note_off_c, 9, 36, 64
7, 79296, Note_on_c, 9, 40, 126
7, 79296, Note_on_c, 9, 36, 124
7, 79296, Note_on_c, 9, 47, 126
7, 79358, Note_off_c, 9, 47, 64
7, 79358, Note_off_c, 9, 40, 64
7, 79363, Note_off_c, 9, 36, 64
7, 79488, Note_on_c, 9, 40, 125
7, 79488, Note_on_c, 9, 36, 123
7, 79488, Note_on_c, 9, 47, 125
7, 79550, Note_off_c, 9, 36, 64
7, 79550, Note_off_c, 9, 40, 64
7, 79553, Note_off_c, 9, 47, 64
7, 79680, Note_on_c, 9, 40, 125
7, 79680, Note_on_c, 9, 36, 123
7, 79680, Note_on_c, 9, 47, 125
7, 79752, Note_off_c, 9, 40, 64
7, 79755, Note_off_c, 9, 36, 64
7, 79755, Note_off_c, 9, 47, 64
7, 79872, Note_on_c, 9, 40, 125
7, 79872, Note_on_c, 9, 36, 123
7, 79872, Note_on_c, 9, 47, 125
7, 79928, Note_off_c, 9, 47, 64
7, 79929, Note_off_c, 9, 40, 64
7, 79932, Note_off_c, 9, 36, 64
7, 80064, Note_on_c, 9, 40, 124
7, 80064, Note_on_c, 9, 36, 122
7, 80064, Note_on_c, 9, 47, 126
7, 80124, Note_off_c, 9, 40, 64
7, 80128, Note_off_c, 9, 47, 64
7, 80131, Note_off_c, 9, 36, 64
7, 80256, Note_on_c, 9, 40, 125
7, 80256, Note_on_c, 9, 36, 122
7, 80256, Note_on_c, 9, 47, 125
7, 80316, Note_off_c, 9, 47, 64
7, 80320, Note_off_c, 9, 40, 64
7, 80323, Note_off_c, 9, 36, 64
7, 80448, Note_on_c, 9, 40, 125
7, 80448, Note_on_c, 9, 36, 123
7, 80448, Note_on_c, 9, 47, 125
7, 80513, Note_off_c, 9, 47, 64
7, 80515, Note_off_c, 9, 36, 64
7, 80515, Note_off_c, 9, 40, 64
7, 80640, Note_on_c, 9, 40, 126
7, 80640, Note_on_c, 9, 36, 124
7, 80640, Note_on_c, 9, 47, 125
7, 80696, Note_off_c, 9, 47, 64
7, 80700, Note_off_c, 9, 40, 64
7, 80702, Note_off_c, 9, 36, 64
7, 80832, Note_on_c, 9, 36, 123
7, 80832, Note_on_c, 9, 40, 125
7, 80832, Note_on_c, 9, 47, 125
7, 80892, Note_off_c, 9, 40, 64
7, 80896, Note_off_c, 9, 47, 64
7, 80897, Note_off_c, 9, 36, 64
7, 81024, Note_on_c, 9, 40, 125
7, 81024, Note_on_c, 9, 36, 123
7, 81024, Note_on_c, 9, 47, 125
7, 81078, Note_off_c, 9, 47, 64
7, 81080, Note_off_c, 9, 40, 64
7, 81089, Note_off_c, 9, 36, 64
7, 81216, Note_on_c, 9, 40, 124
7, 81216, Note_on_c, 9, 36, 122
7, 81216, Note_on_c, 9, 47, 125
7, 81275, Note_off_c, 9, 40, 64
7, 81278, Note_off_c, 9, 47, 64
7, 81281, Note_off_c, 9, 36, 64
7, 81408, Note_on_c, 9, 40, 125
7, 81408, Note_on_c, 9, 36, 123
7, 81408, Note_on_c, 9, 47, 125
7, 81459, Note_off_c, 9, 40, 64
7, 81460, Note_off_c, 9, 47, 64
7, 81464, Note_off_c, 9, 36, 64
7, 81600, Note_on_c, 9, 40, 125
7, 81600, Note_on_c, 9, 36, 123
7, 81600, Note_on_c, 9, 47, 125
7, 81654, Note_off_c, 9, 47, 64
7, 81654, Note_off_c, 9, 40, 64
7, 81659, Note_off_c, 9, 36, 64
7, 81792, Note_on_c, 9, 40, 125
7, 81792, Note_on_c, 9, 36, 123
7, 81792, Note_on_c, 9, 47, 125
7, 81843, Note_off_c, 9, 47, 64
7, 81849, Note_off_c, 9, 40, 64
7, 81856, Note_off_c, 9, 36, 64
7, 81984, Note_on_c, 9, 40, 123
7, 81984, Note_on_c, 9, 36, 121
7, 81984, Note_on_c, 9, 47, 124
7, 82040, Note_off_c, 9, 47, 64
7, 82041, Note_off_c, 9, 40, 64
7, 82046, Note_off_c, 9, 36, 64
7, 82176, Note_on_c, 9, 40, 125
7, 82176, Note_on_c, 9, 36, 123
7, 82176, Note_on_c, 9, 47, 126
7, 82227, Note_off_c, 9, 47, 64
7, 82230, Note_off_c, 9, 40, 64
7, 82235, Note_off_c, 9, 36, 64
7, 82368, Note_on_c, 9, 40, 124
7, 82368, Note_on_c, 9, 47, 125
7, 82368, Note_on_c, 9, 36, 122
7, 82425, Note_off_c, 9, 47, 64
7, 82425, Note_off_c, 9, 40, 64
7, 82430, Note_off_c, 9, 36, 64
7, 82560, Note_on_c, 9, 40, 124
7, 82560, Note_on_c, 9, 47, 125
7, 82560, Note_on_c, 9, 36, 121
7, 82611, Note_off_c, 9, 36, 64
7, 82611, Note_off_c, 9, 47, 64
7, 82611, Note_off_c, 9, 40, 64
7, 82752, Note_on_c, 9, 40, 124
7, 82752, Note_on_c, 9, 36, 122
7, 82752, Note_on_c, 9, 47, 125
7, 82809, Note_off_c, 9, 40, 64
7, 82811, Note_off_c, 9, 47, 64
7, 82812, Note_off_c, 9, 36, 64
7, 82944, Note_on_c, 9, 40, 125
7, 82944, Note_on_c, 9, 36, 123
7, 82944, Note_on_c, 9, 47, 125
7, 82993, Note_off_c, 9, 40, 64
7, 82995, Note_off_c, 9, 47, 64
7, 83000, Note_off_c, 9, 36, 64
7, 83136, Note_on_c, 9, 40, 124
7, 83136, Note_on_c, 9, 36, 122
7, 83136, Note_on_c, 9, 47, 125
7, 83182, Note_off_c, 9, 40, 64
7, 83185, Note_off_c, 9, 47, 64
7, 83190, Note_off_c, 9, 36, 64
7, 83328, Note_on_c, 9, 40, 125
7, 83328, Note_on_c, 9, 36, 123
7, 83328, Note_on_c, 9, 47, 125
7, 83377, Note_off_c, 9, 47, 64
7, 83380, Note_off_c, 9, 40, 64
7, 83384, Note_off_c, 9, 36, 64
7, 83520, Note_on_c, 9, 40, 125
7, 83520, Note_on_c, 9, 47, 125
7, 83520, Note_on_c, 9, 36, 123
7, 83568, Note_off_c, 9, 40, 64
7, 83569, Note_off_c, 9, 47, 64
7, 83571, Note_off_c, 9, 36, 64
7, 83712, Note_on_c, 9, 40, 126
7, 83712, Note_on_c, 9, 36, 124
7, 83712, Note_on_c, 9, 47, 125
7, 83768, Note_off_c, 9, 47, 64
7, 83772, Note_off_c, 9, 40, 64
7, 83774, Note_off_c, 9, 36, 64
7, 83904, Note_on_c, 9, 36, 123
7, 83904, Note_on_c, 9, 40, 125
7, 83904, Note_on_c, 9, 47, 125
7, 83964, Note_off_c, 9, 40, 64
7, 83968, Note_off_c, 9, 47, 64
7, 83969, Note_off_c, 9, 36, 64
7, 84096, Note_on_c, 9, 40, 125
7, 84096, Note_on_c, 9, 36, 123
7, 84096, Note_on_c, 9, 47, 125
7, 84150, Note_off_c, 9, 47, 64
7, 84152, Note_off_c, 9, 40, 64
7, 84161, Note_off_c, 9, 36, 64
7, 84288, Note_on_c, 9, 40, 124
7, 84288, Note_on_c, 9, 36, 122
7, 84288, Note_on_c, 9, 47, 125
7, 84347, Note_off_c, 9, 40, 64
7, 84350, Note_off_c, 9, 47, 64
7, 84353, Note_off_c, 9, 36, 64
7, 84480, Note_on_c, 9, 36, 124
7, 84592, Note_off_c, 9, 36, 64
7, 84672, Note_on_c, 9, 40, 126
7, 84764, Note_off_c, 9, 40, 64
7, 84864, Note_on_c, 9, 36, 126
7, 84902, Note_off_c, 9, 36, 64
7, 84960, Note_on_c, 9, 36, 124
7, 85004, Note_off_c, 9, 36, 64
7, 85056, Note_on_c, 9, 40, 126
7, 85160, Note_off_c, 9, 40, 64
7, 85248, Note_on_c, 9, 36, 125
7, 85339, Note_off_c, 9, 36, 64
7, 85440, Note_on_c, 9, 40, 125
7, 85524, Note_off_c, 9, 40, 64
7, 85632, Note_on_c, 9, 36, 122
7, 85673, Note_off_c, 9, 36, 64
7, 85728, Note_on_c, 9, 36, 120
7, 85772, Note_off_c, 9, 36, 64
7, 85824, Note_on_c, 9, 40, 125
7, 85915, Note_off_c, 9, 40, 64
7, 86016, Note_on_c, 9, 36, 124
7, 86096, Note_off_c, 9, 36, 64
7, 86208, Note_on_c, 9, 40, 125
7, 86304, Note_off_c, 9, 40, 64
7, 86400, Note_on_c, 9, 36, 123
7, 86438, Note_off_c, 9, 36, 64
7, 86496, Note_on_c, 9, 36, 124
7, 86537, Note_off_c, 9, 36, 64
7, 86592, Note_on_c, 9, 40, 126
7, 86673, Note_off_c, 9, 40, 64
7, 86784, Note_on_c, 9, 47, 127
7, 86819, Note_off_c, 9, 47, 64
7, 86880, Note_on_c, 9, 47, 127
7, 86918, Note_off_c, 9, 47, 64
7, 86976, Note_on_c, 9, 45, 126
7, 87001, Note_off_c, 9, 45, 64
7, 87072, Note_on_c, 9, 45, 126
7, 87112, Note_off_c, 9, 45, 64
7, 87168, Note_on_c, 9, 43, 127
7, 87204, Note_off_c, 9, 43, 64
7, 87264, Note_on_c, 9, 43, 127
7, 87300, Note_off_c, 9, 43, 64
7, 87360, Note_on_c, 9, 40, 127
7, 87377, Note_off_c, 9, 40, 64
7, 87392, Note_on_c, 9, 40, 127
7, 87416, Note_off_c, 9, 40, 64
7, 87456, Note_on_c, 9, 40, 127
7, 87473, Note_off_c, 9, 40, 64
7, 87488, Note_on_c, 9, 40, 127
7, 87510, Note_off_c, 9, 40, 64
7, 87552, Note_on_c, 9, 36, 121
7, 87644, Note_off_c, 9, 36, 64
7, 87744, Note_on_c, 9, 40, 121
7, 87849, Note_off_c, 9, 40, 64
7, 87936, Note_on_c, 9, 36, 121
7, 87984, Note_off_c, 9, 36, 64
7, 88032, Note_on_c, 9, 36, 123
7, 88083, Note_off_c, 9, 36, 64
7, 88128, Note_on_c, 9, 40, 124
7, 88235, Note_off_c, 9, 40, 64
7, 88320, Note_on_c, 9, 36, 124
7, 88411, Note_off_c, 9, 36, 64
7, 88512, Note_on_c, 9, 40, 125
7, 88614, Note_off_c, 9, 40, 64
7, 88704, Note_on_c, 9, 36, 124
7, 88748, Note_off_c, 9, 36, 64
7, 88800, Note_on_c, 9, 36, 125
7, 88848, Note_off_c, 9, 36, 64
7, 88896, Note_on_c, 9, 40, 126
7, 88995, Note_off_c, 9, 40, 64
7, 89088, Note_on_c, 9, 36, 126
7, 89177, Note_off_c, 9, 36, 64
7, 89280, Note_on_c, 9, 40, 121
7, 89302, Note_off_c, 9, 40, 64
7, 89472, Note_on_c, 9, 36, 125
7, 89521, Note_off_c, 9, 36, 64
7, 89568, Note_on_c, 9, 36, 121
7, 89616, Note_off_c, 9, 36, 64
7, 89664, Note_on_c, 9, 40, 124
7, 89766, Note_off_c, 9, 40, 64
7, 89856, Note_on_c, 9, 36, 124
7, 89936, Note_off_c, 9, 36, 64
7, 90048, Note_on_c, 9, 40, 125
7, 90080, Note_off_c, 9, 40, 64
7, 90240, Note_on_c, 9, 36, 122
7, 90288, Note_off_c, 9, 36, 64
7, 90336, Note_on_c, 9, 36, 121
7, 90385, Note_off_c, 9, 36, 64
7, 90432, Note_on_c, 9, 40, 124
7, 90531, Note_off_c, 9, 40, 64
7, 90624, Note_on_c, 9, 36, 123
7, 90699, Note_off_c, 9, 36, 64
7, 90816, Note_on_c, 9, 40, 125
7, 90915, Note_off_c, 9, 40, 64
7, 91008, Note_on_c, 9, 36, 124
7, 91052, Note_off_c, 9, 36, 64
7, 91104, Note_on_c, 9, 36, 122
7, 91155, Note_off_c, 9, 36, 64
7, 91200, Note_on_c, 9, 40, 123
7, 91302, Note_off_c, 9, 40, 64
7, 91392, Note_on_c, 9, 36, 122
7, 91476, Note_off_c, 9, 36, 64
7, 91584, Note_on_c, 9, 40, 124
7, 91681, Note_off_c, 9, 40, 64
7, 91776, Note_on_c, 9, 36, 123
7, 91820, Note_off_c, 9, 36, 64
7, 91872, Note_on_c, 9, 36, 122
7, 91921, Note_off_c, 9, 36, 64
7, 91968, Note_on_c, 9, 40, 122
7, 92067, Note_off_c, 9, 40, 64
7, 92160, Note_on_c, 9, 36, 124
7, 92238, Note_off_c, 9, 36, 64
7, 92352, Note_on_c, 9, 40, 125
7, 92448, Note_off_c, 9, 40, 64
7, 92544, Note_on_c, 9, 36, 123
7, 92584, Note_off_c, 9, 36, 64
7, 92640, Note_on_c, 9, 36, 123
7, 92688, Note_off_c, 9, 36, 64
7, 92736, Note_on_c, 9, 40, 125
7, 92828, Note_off_c, 9, 40, 64
7, 92928, Note_on_c, 9, 36, 124
7, 93012, Note_off_c, 9, 36, 64
7, 93120, Note_on_c, 9, 40, 125
7, 93212, Note_off_c, 9, 40, 64
7, 93312, Note_on_c, 9, 36, 123
7, 93360, Note_off_c, 9, 36, 64
7, 93408, Note_on_c, 9, 36, 121
7, 93457, Note_off_c, 9, 36, 64
7, 93504, Note_on_c, 9, 40, 125
7, 93595, Note_off_c, 9, 40, 64
7, 93696, Note_on_c, 9, 36, 121
7, 93788, Note_off_c, 9, 36, 64
7, 93888, Note_on_c, 9, 40, 121
7, 93993, Note_off_c, 9, 40, 64
7, 94080, Note_on_c, 9, 36, 121
7, 94128, Note_off_c, 9, 36, 64
7, 94176, Note_on_c, 9, 36, 123
7, 94227, Note_off_c, 9, 36, 64
7, 94272, Note_on_c, 9, 40, 124
7, 94379, Note_off_c, 9, 40, 64
7, 94464, Note_on_c, 9, 36, 124
7, 94555, Note_off_c, 9, 36, 64
7, 94656, Note_on_c, 9, 40, 125
7, 94758, Note_off_c, 9, 40, 64
7, 94848, Note_on_c, 9, 36, 124
7, 94892, Note_off_c, 9, 36, 64
7, 94944, Note_on_c, 9, 36, 125
7, 94992, Note_off_c, 9, 36, 64
7, 95040, Note_on_c, 9, 40, 126
7, 95139, Note_off_c, 9, 40, 64
7, 95232, Note_on_c, 9, 36, 126
7, 95321, Note_off_c, 9, 36, 64
7, 95424, Note_on_c, 9, 40, 121
7, 95446, Note_off_c, 9, 40, 64
7, 95616, Note_on_c, 9, 36, 125
7, 95665, Note_off_c, 9, 36, 64
7, 95712, Note_on_c, 9, 36, 121
7, 95760, Note_off_c, 9, 36, 64
7, 95808, Note_on_c, 9, 40, 124
7, 95910, Note_off_c, 9, 40, 64
7, 96000, Note_on_c, 9, 36, 124
7, 96080, Note_off_c, 9, 36, 64
7, 96192, Note_on_c, 9, 40, 125
7, 96224, Note_off_c, 9, 40, 64
7, 96384, Note_on_c, 9, 36, 122
7, 96432, Note_off_c, 9, 36, 64
7, 96480, Note_on_c, 9, 36, 121
7, 96529, Note_off_c, 9, 36, 64
7, 96576, Note_on_c, 9, 40, 124
7, 96675, Note_off_c, 9, 40, 64
7, 96768, Note_on_c, 9, 36, 123
7, 96843, Note_off_c, 9, 36, 64
7, 96960, Note_on_c, 9, 40, 125
7, 97059, Note_off_c, 9, 40, 64
7, 97152, Note_on_c, 9, 36, 124
7, 97196, Note_off_c, 9, 36, 64
7, 97248, Note_on_c, 9, 36, 122
7, 97299, Note_off_c, 9, 36, 64
7, 97344, Note_on_c, 9, 40, 123
7, 97446, Note_off_c, 9, 40, 64
7, 97536, Note_on_c, 9, 36, 122
7, 97620, Note_off_c, 9, 36, 64
7, 97728, Note_on_c, 9, 40, 124
7, 97825, Note_off_c, 9, 40, 64
7, 97920, Note_on_c, 9, 36, 123
7, 97964, Note_off_c, 9, 36, 64
7, 98016, Note_on_c, 9, 36, 122
7, 98065, Note_off_c, 9, 36, 64
7, 98112, Note_on_c, 9, 40, 122
7, 98211, Note_off_c, 9, 40, 64
7, 98304, Note_on_c, 9, 36, 124
7, 98382, Note_off_c, 9, 36, 64
7, 98496, Note_on_c, 9, 40, 125
7, 98592, Note_off_c, 9, 40, 64
7, 98688, Note_on_c, 9, 36, 123
7, 98728, Note_off_c, 9, 36, 64
7, 98784, Note_on_c, 9, 36, 123
7, 98832, Note_off_c, 9, 36, 64
7, 98880, Note_on_c, 9, 40, 125
7, 98972, Note_off_c, 9, 40, 64
7, 99072, Note_on_c, 9, 36, 124
7, 99156, Note_off_c, 9, 36, 64
7, 99264, Note_on_c, 9, 40, 125
7, 99356, Note_off_c, 9, 40, 64
7, 99456, Note_on_c, 9, 36, 123
7, 99504, Note_off_c, 9, 36, 64
7, 99552, Note_on_c, 9, 36, 121
7, 99601, Note_off_c, 9, 36, 64
7, 99648, Note_on_c, 9, 40, 125
7, 99739, Note_off_c, 9, 40, 64
7, 99739, End_track
8, 0, Start_track
8, 0, Title_t, "Pilgrimage by REM"
8, 0, Channel_prefix, 5
8, 0, Control_c, 5, 7, 0
8, 0, Control_c, 5, 10, 64
8, 0, Program_c, 5, 0
8, 0, End_track
9, 0, Start_track
9, 0, Title_t, "Sequenced by Micheal Glennon"
9, 0, Channel_prefix, 6
9, 0, Control_c, 6, 7, 0
9, 0, Control_c, 6, 10, 64
9, 0, Program_c, 6, 0
9, 0, End_track
10, 0, Start_track
10, 0, Title_t, "mg@cyberjunkie.com"
10, 0, Channel_prefix, 7
10, 0, Control_c, 7, 7, 0
10, 0, Control_c, 7, 10, 64
10, 0, Program_c, 7, 0
10, 0, End_track
0, 0, End_of_file
