0, 0, Header, 1, 8, 120
1, 0, Start_track
1, 0, Title_t, "Rebel Rebel"
1, 0, Copyright_t, "Copyright © 1997 by Nigel Harrison"
1, 0, Text_t, "Nigel Harrison\012"
1, 0, SMPTE_offset, 96, 0, 3, 0, 0
1, 0, Time_signature, 4, 2, 24, 8
1, 0, Key_signature, 3, "major"
1, 0, Tempo, 461538
1, 0, Marker_t, "intro"
1, 7680, Marker_t, "verse"
1, 15360, Marker_t, "pre chorus"
1, 17280, Marker_t, "chorus"
1, 21120, Marker_t, "link"
1, 24960, Marker_t, "verse"
1, 32640, Marker_t, "pre chorus"
1, 34560, Marker_t, "chorus"
1, 38400, Marker_t, "link"
1, 42240, Marker_t, "chorus"
1, 46080, Marker_t, "link"
1, 49920, Marker_t, "fadeout"
1, 49920, End_track
2, 0, Start_track
2, 0, MIDI_port, 0
2, 0, Program_c, 0, 1
2, 0, Control_c, 0, 7, 100
2, 0, Control_c, 0, 10, 0
2, 0, Note_on_c, 0, 50, 100
2, 120, Note_on_c, 0, 64, 100
2, 240, Note_on_c, 0, 64, 0
2, 240, Note_on_c, 0, 64, 100
2, 240, Note_on_c, 0, 57, 50
2, 240, Note_on_c, 0, 62, 100
2, 360, Note_on_c, 0, 62, 0
2, 360, Note_on_c, 0, 50, 0
2, 360, Note_on_c, 0, 64, 0
2, 360, Note_on_c, 0, 57, 0
2, 360, Note_on_c, 0, 57, 50
2, 360, Note_on_c, 0, 61, 100
2, 420, Note_on_c, 0, 61, 0
2, 420, Note_on_c, 0, 57, 0
2, 420, Note_on_c, 0, 56, 30
2, 420, Note_on_c, 0, 59, 100
2, 420, Note_on_c, 0, 64, 50
2, 480, Note_on_c, 0, 64, 0
2, 480, Note_on_c, 0, 59, 0
2, 480, Note_on_c, 0, 56, 0
2, 540, Note_on_c, 0, 56, 30
2, 540, Note_on_c, 0, 59, 100
2, 540, Note_on_c, 0, 64, 100
2, 600, Note_on_c, 0, 64, 0
2, 600, Note_on_c, 0, 59, 0
2, 600, Note_on_c, 0, 56, 0
2, 660, Note_on_c, 0, 52, 100
2, 720, Note_on_c, 0, 61, 100
2, 780, Note_on_c, 0, 61, 0
2, 780, Note_on_c, 0, 59, 100
2, 840, Note_on_c, 0, 56, 100
2, 870, Note_on_c, 0, 59, 0
2, 900, Note_on_c, 0, 52, 100
2, 930, Note_on_c, 0, 56, 0
2, 960, Note_on_c, 0, 52, 0
2, 960, Note_on_c, 0, 52, 0
2, 960, Note_on_c, 0, 50, 100
2, 1080, Note_on_c, 0, 64, 100
2, 1200, Note_on_c, 0, 64, 0
2, 1200, Note_on_c, 0, 64, 100
2, 1200, Note_on_c, 0, 57, 50
2, 1200, Note_on_c, 0, 62, 100
2, 1320, Note_on_c, 0, 62, 0
2, 1320, Note_on_c, 0, 50, 0
2, 1320, Note_on_c, 0, 64, 0
2, 1320, Note_on_c, 0, 57, 0
2, 1320, Note_on_c, 0, 57, 50
2, 1320, Note_on_c, 0, 61, 100
2, 1380, Note_on_c, 0, 61, 0
2, 1380, Note_on_c, 0, 57, 0
2, 1380, Note_on_c, 0, 56, 30
2, 1380, Note_on_c, 0, 59, 100
2, 1380, Note_on_c, 0, 64, 50
2, 1440, Note_on_c, 0, 64, 0
2, 1440, Note_on_c, 0, 59, 0
2, 1440, Note_on_c, 0, 56, 0
2, 1500, Note_on_c, 0, 56, 30
2, 1500, Note_on_c, 0, 59, 100
2, 1500, Note_on_c, 0, 64, 100
2, 1560, Note_on_c, 0, 64, 0
2, 1560, Note_on_c, 0, 59, 0
2, 1560, Note_on_c, 0, 56, 0
2, 1620, Note_on_c, 0, 52, 100
2, 1680, Note_on_c, 0, 61, 100
2, 1740, Note_on_c, 0, 61, 0
2, 1740, Note_on_c, 0, 59, 100
2, 1800, Note_on_c, 0, 56, 100
2, 1830, Note_on_c, 0, 59, 0
2, 1860, Note_on_c, 0, 52, 100
2, 1890, Note_on_c, 0, 56, 0
2, 1920, Note_on_c, 0, 52, 0
2, 1920, Note_on_c, 0, 52, 0
2, 1920, Note_on_c, 0, 50, 100
2, 2040, Note_on_c, 0, 64, 100
2, 2160, Note_on_c, 0, 64, 0
2, 2160, Note_on_c, 0, 64, 100
2, 2160, Note_on_c, 0, 57, 50
2, 2160, Note_on_c, 0, 62, 100
2, 2280, Note_on_c, 0, 62, 0
2, 2280, Note_on_c, 0, 50, 0
2, 2280, Note_on_c, 0, 64, 0
2, 2280, Note_on_c, 0, 57, 0
2, 2280, Note_on_c, 0, 57, 50
2, 2280, Note_on_c, 0, 61, 100
2, 2340, Note_on_c, 0, 61, 0
2, 2340, Note_on_c, 0, 57, 0
2, 2340, Note_on_c, 0, 56, 30
2, 2340, Note_on_c, 0, 59, 100
2, 2340, Note_on_c, 0, 64, 50
2, 2400, Note_on_c, 0, 64, 0
2, 2400, Note_on_c, 0, 59, 0
2, 2400, Note_on_c, 0, 56, 0
2, 2460, Note_on_c, 0, 56, 30
2, 2460, Note_on_c, 0, 59, 100
2, 2460, Note_on_c, 0, 64, 100
2, 2520, Note_on_c, 0, 64, 0
2, 2520, Note_on_c, 0, 59, 0
2, 2520, Note_on_c, 0, 56, 0
2, 2580, Note_on_c, 0, 52, 100
2, 2640, Note_on_c, 0, 61, 100
2, 2700, Note_on_c, 0, 61, 0
2, 2700, Note_on_c, 0, 59, 100
2, 2760, Note_on_c, 0, 56, 100
2, 2790, Note_on_c, 0, 59, 0
2, 2820, Note_on_c, 0, 52, 100
2, 2850, Note_on_c, 0, 56, 0
2, 2880, Note_on_c, 0, 52, 0
2, 2880, Note_on_c, 0, 52, 0
2, 2880, Note_on_c, 0, 50, 100
2, 3000, Note_on_c, 0, 64, 100
2, 3120, Note_on_c, 0, 64, 0
2, 3120, Note_on_c, 0, 64, 100
2, 3120, Note_on_c, 0, 57, 50
2, 3120, Note_on_c, 0, 62, 100
2, 3240, Note_on_c, 0, 62, 0
2, 3240, Note_on_c, 0, 50, 0
2, 3240, Note_on_c, 0, 64, 0
2, 3240, Note_on_c, 0, 57, 0
2, 3240, Note_on_c, 0, 57, 50
2, 3240, Note_on_c, 0, 61, 100
2, 3300, Note_on_c, 0, 61, 0
2, 3300, Note_on_c, 0, 57, 0
2, 3300, Note_on_c, 0, 56, 30
2, 3300, Note_on_c, 0, 59, 100
2, 3300, Note_on_c, 0, 64, 50
2, 3360, Note_on_c, 0, 64, 0
2, 3360, Note_on_c, 0, 59, 0
2, 3360, Note_on_c, 0, 56, 0
2, 3420, Note_on_c, 0, 56, 30
2, 3420, Note_on_c, 0, 59, 100
2, 3420, Note_on_c, 0, 64, 100
2, 3480, Note_on_c, 0, 64, 0
2, 3480, Note_on_c, 0, 59, 0
2, 3480, Note_on_c, 0, 56, 0
2, 3540, Note_on_c, 0, 52, 100
2, 3600, Note_on_c, 0, 61, 100
2, 3660, Note_on_c, 0, 61, 0
2, 3660, Note_on_c, 0, 59, 100
2, 3720, Note_on_c, 0, 56, 100
2, 3750, Note_on_c, 0, 59, 0
2, 3780, Note_on_c, 0, 52, 100
2, 3810, Note_on_c, 0, 56, 0
2, 3840, Note_on_c, 0, 52, 0
2, 3840, Note_on_c, 0, 52, 0
2, 3840, Note_on_c, 0, 50, 100
2, 3960, Note_on_c, 0, 64, 100
2, 4080, Note_on_c, 0, 64, 0
2, 4080, Note_on_c, 0, 64, 100
2, 4080, Note_on_c, 0, 57, 50
2, 4080, Note_on_c, 0, 62, 100
2, 4200, Note_on_c, 0, 62, 0
2, 4200, Note_on_c, 0, 50, 0
2, 4200, Note_on_c, 0, 64, 0
2, 4200, Note_on_c, 0, 57, 0
2, 4200, Note_on_c, 0, 57, 50
2, 4200, Note_on_c, 0, 61, 100
2, 4260, Note_on_c, 0, 61, 0
2, 4260, Note_on_c, 0, 57, 0
2, 4260, Note_on_c, 0, 56, 30
2, 4260, Note_on_c, 0, 59, 100
2, 4260, Note_on_c, 0, 64, 50
2, 4320, Note_on_c, 0, 64, 0
2, 4320, Note_on_c, 0, 59, 0
2, 4320, Note_on_c, 0, 56, 0
2, 4380, Note_on_c, 0, 56, 30
2, 4380, Note_on_c, 0, 59, 100
2, 4380, Note_on_c, 0, 64, 100
2, 4440, Note_on_c, 0, 64, 0
2, 4440, Note_on_c, 0, 59, 0
2, 4440, Note_on_c, 0, 56, 0
2, 4500, Note_on_c, 0, 52, 100
2, 4560, Note_on_c, 0, 61, 100
2, 4620, Note_on_c, 0, 61, 0
2, 4620, Note_on_c, 0, 59, 100
2, 4680, Note_on_c, 0, 56, 100
2, 4710, Note_on_c, 0, 59, 0
2, 4740, Note_on_c, 0, 52, 100
2, 4770, Note_on_c, 0, 56, 0
2, 4800, Note_on_c, 0, 52, 0
2, 4800, Note_on_c, 0, 52, 0
2, 4800, Note_on_c, 0, 50, 100
2, 4920, Note_on_c, 0, 64, 100
2, 5040, Note_on_c, 0, 64, 0
2, 5040, Note_on_c, 0, 64, 100
2, 5040, Note_on_c, 0, 57, 50
2, 5040, Note_on_c, 0, 62, 100
2, 5160, Note_on_c, 0, 62, 0
2, 5160, Note_on_c, 0, 50, 0
2, 5160, Note_on_c, 0, 64, 0
2, 5160, Note_on_c, 0, 57, 0
2, 5160, Note_on_c, 0, 57, 50
2, 5160, Note_on_c, 0, 61, 100
2, 5220, Note_on_c, 0, 61, 0
2, 5220, Note_on_c, 0, 57, 0
2, 5220, Note_on_c, 0, 56, 30
2, 5220, Note_on_c, 0, 59, 100
2, 5220, Note_on_c, 0, 64, 50
2, 5280, Note_on_c, 0, 64, 0
2, 5280, Note_on_c, 0, 59, 0
2, 5280, Note_on_c, 0, 56, 0
2, 5340, Note_on_c, 0, 56, 30
2, 5340, Note_on_c, 0, 59, 100
2, 5340, Note_on_c, 0, 64, 100
2, 5400, Note_on_c, 0, 64, 0
2, 5400, Note_on_c, 0, 59, 0
2, 5400, Note_on_c, 0, 56, 0
2, 5460, Note_on_c, 0, 52, 100
2, 5520, Note_on_c, 0, 61, 100
2, 5580, Note_on_c, 0, 61, 0
2, 5580, Note_on_c, 0, 59, 100
2, 5640, Note_on_c, 0, 56, 100
2, 5670, Note_on_c, 0, 59, 0
2, 5700, Note_on_c, 0, 52, 100
2, 5730, Note_on_c, 0, 56, 0
2, 5760, Note_on_c, 0, 52, 0
2, 5760, Note_on_c, 0, 52, 0
2, 5760, Note_on_c, 0, 50, 100
2, 5880, Note_on_c, 0, 64, 100
2, 6000, Note_on_c, 0, 64, 0
2, 6000, Note_on_c, 0, 64, 100
2, 6000, Note_on_c, 0, 57, 50
2, 6000, Note_on_c, 0, 62, 100
2, 6120, Note_on_c, 0, 62, 0
2, 6120, Note_on_c, 0, 50, 0
2, 6120, Note_on_c, 0, 64, 0
2, 6120, Note_on_c, 0, 57, 0
2, 6120, Note_on_c, 0, 57, 50
2, 6120, Note_on_c, 0, 61, 100
2, 6180, Note_on_c, 0, 61, 0
2, 6180, Note_on_c, 0, 57, 0
2, 6180, Note_on_c, 0, 56, 30
2, 6180, Note_on_c, 0, 59, 100
2, 6180, Note_on_c, 0, 64, 50
2, 6240, Note_on_c, 0, 64, 0
2, 6240, Note_on_c, 0, 59, 0
2, 6240, Note_on_c, 0, 56, 0
2, 6300, Note_on_c, 0, 56, 30
2, 6300, Note_on_c, 0, 59, 100
2, 6300, Note_on_c, 0, 64, 100
2, 6360, Note_on_c, 0, 64, 0
2, 6360, Note_on_c, 0, 59, 0
2, 6360, Note_on_c, 0, 56, 0
2, 6420, Note_on_c, 0, 52, 100
2, 6480, Note_on_c, 0, 61, 100
2, 6540, Note_on_c, 0, 61, 0
2, 6540, Note_on_c, 0, 59, 100
2, 6600, Note_on_c, 0, 56, 100
2, 6630, Note_on_c, 0, 59, 0
2, 6660, Note_on_c, 0, 52, 100
2, 6690, Note_on_c, 0, 56, 0
2, 6720, Note_on_c, 0, 52, 0
2, 6720, Note_on_c, 0, 52, 0
2, 6720, Note_on_c, 0, 50, 100
2, 6840, Note_on_c, 0, 64, 100
2, 6960, Note_on_c, 0, 64, 0
2, 6960, Note_on_c, 0, 64, 100
2, 6960, Note_on_c, 0, 57, 50
2, 6960, Note_on_c, 0, 62, 100
2, 7080, Note_on_c, 0, 62, 0
2, 7080, Note_on_c, 0, 50, 0
2, 7080, Note_on_c, 0, 64, 0
2, 7080, Note_on_c, 0, 57, 0
2, 7080, Note_on_c, 0, 57, 50
2, 7080, Note_on_c, 0, 61, 100
2, 7140, Note_on_c, 0, 61, 0
2, 7140, Note_on_c, 0, 57, 0
2, 7140, Note_on_c, 0, 56, 30
2, 7140, Note_on_c, 0, 59, 100
2, 7140, Note_on_c, 0, 64, 50
2, 7200, Note_on_c, 0, 64, 0
2, 7200, Note_on_c, 0, 59, 0
2, 7200, Note_on_c, 0, 56, 0
2, 7260, Note_on_c, 0, 56, 30
2, 7260, Note_on_c, 0, 59, 100
2, 7260, Note_on_c, 0, 64, 100
2, 7320, Note_on_c, 0, 64, 0
2, 7320, Note_on_c, 0, 59, 0
2, 7320, Note_on_c, 0, 56, 0
2, 7380, Note_on_c, 0, 52, 100
2, 7440, Note_on_c, 0, 61, 100
2, 7500, Note_on_c, 0, 61, 0
2, 7500, Note_on_c, 0, 59, 100
2, 7560, Note_on_c, 0, 56, 100
2, 7590, Note_on_c, 0, 59, 0
2, 7620, Note_on_c, 0, 52, 100
2, 7650, Note_on_c, 0, 56, 0
2, 7680, Note_on_c, 0, 52, 0
2, 7680, Note_on_c, 0, 52, 0
2, 7680, Note_on_c, 0, 50, 100
2, 7800, Note_on_c, 0, 64, 100
2, 7920, Note_on_c, 0, 64, 0
2, 7920, Note_on_c, 0, 64, 100
2, 7920, Note_on_c, 0, 57, 50
2, 7920, Note_on_c, 0, 62, 100
2, 8040, Note_on_c, 0, 62, 0
2, 8040, Note_on_c, 0, 50, 0
2, 8040, Note_on_c, 0, 64, 0
2, 8040, Note_on_c, 0, 57, 0
2, 8040, Note_on_c, 0, 57, 50
2, 8040, Note_on_c, 0, 61, 100
2, 8100, Note_on_c, 0, 61, 0
2, 8100, Note_on_c, 0, 57, 0
2, 8100, Note_on_c, 0, 56, 30
2, 8100, Note_on_c, 0, 59, 100
2, 8100, Note_on_c, 0, 64, 50
2, 8160, Note_on_c, 0, 64, 0
2, 8160, Note_on_c, 0, 59, 0
2, 8160, Note_on_c, 0, 56, 0
2, 8220, Note_on_c, 0, 56, 30
2, 8220, Note_on_c, 0, 59, 100
2, 8220, Note_on_c, 0, 64, 100
2, 8280, Note_on_c, 0, 64, 0
2, 8280, Note_on_c, 0, 59, 0
2, 8280, Note_on_c, 0, 56, 0
2, 8340, Note_on_c, 0, 52, 100
2, 8400, Note_on_c, 0, 61, 100
2, 8460, Note_on_c, 0, 61, 0
2, 8460, Note_on_c, 0, 59, 100
2, 8520, Note_on_c, 0, 56, 100
2, 8550, Note_on_c, 0, 59, 0
2, 8580, Note_on_c, 0, 52, 100
2, 8610, Note_on_c, 0, 56, 0
2, 8640, Note_on_c, 0, 52, 0
2, 8640, Note_on_c, 0, 52, 0
2, 8640, Note_on_c, 0, 50, 100
2, 8760, Note_on_c, 0, 64, 100
2, 8880, Note_on_c, 0, 64, 0
2, 8880, Note_on_c, 0, 64, 100
2, 8880, Note_on_c, 0, 57, 50
2, 8880, Note_on_c, 0, 62, 100
2, 9000, Note_on_c, 0, 62, 0
2, 9000, Note_on_c, 0, 50, 0
2, 9000, Note_on_c, 0, 64, 0
2, 9000, Note_on_c, 0, 57, 0
2, 9000, Note_on_c, 0, 57, 50
2, 9000, Note_on_c, 0, 61, 100
2, 9060, Note_on_c, 0, 61, 0
2, 9060, Note_on_c, 0, 57, 0
2, 9060, Note_on_c, 0, 56, 30
2, 9060, Note_on_c, 0, 59, 100
2, 9060, Note_on_c, 0, 64, 50
2, 9120, Note_on_c, 0, 64, 0
2, 9120, Note_on_c, 0, 59, 0
2, 9120, Note_on_c, 0, 56, 0
2, 9180, Note_on_c, 0, 56, 30
2, 9180, Note_on_c, 0, 59, 100
2, 9180, Note_on_c, 0, 64, 100
2, 9240, Note_on_c, 0, 64, 0
2, 9240, Note_on_c, 0, 59, 0
2, 9240, Note_on_c, 0, 56, 0
2, 9300, Note_on_c, 0, 52, 100
2, 9360, Note_on_c, 0, 61, 100
2, 9420, Note_on_c, 0, 61, 0
2, 9420, Note_on_c, 0, 59, 100
2, 9480, Note_on_c, 0, 56, 100
2, 9510, Note_on_c, 0, 59, 0
2, 9540, Note_on_c, 0, 52, 100
2, 9570, Note_on_c, 0, 56, 0
2, 9600, Note_on_c, 0, 52, 0
2, 9600, Note_on_c, 0, 52, 0
2, 9600, Note_on_c, 0, 50, 100
2, 9720, Note_on_c, 0, 64, 100
2, 9840, Note_on_c, 0, 64, 0
2, 9840, Note_on_c, 0, 64, 100
2, 9840, Note_on_c, 0, 57, 50
2, 9840, Note_on_c, 0, 62, 100
2, 9960, Note_on_c, 0, 62, 0
2, 9960, Note_on_c, 0, 50, 0
2, 9960, Note_on_c, 0, 64, 0
2, 9960, Note_on_c, 0, 57, 0
2, 9960, Note_on_c, 0, 57, 50
2, 9960, Note_on_c, 0, 61, 100
2, 10020, Note_on_c, 0, 61, 0
2, 10020, Note_on_c, 0, 57, 0
2, 10020, Note_on_c, 0, 56, 30
2, 10020, Note_on_c, 0, 59, 100
2, 10020, Note_on_c, 0, 64, 50
2, 10080, Note_on_c, 0, 64, 0
2, 10080, Note_on_c, 0, 59, 0
2, 10080, Note_on_c, 0, 56, 0
2, 10140, Note_on_c, 0, 56, 30
2, 10140, Note_on_c, 0, 59, 100
2, 10140, Note_on_c, 0, 64, 100
2, 10200, Note_on_c, 0, 64, 0
2, 10200, Note_on_c, 0, 59, 0
2, 10200, Note_on_c, 0, 56, 0
2, 10260, Note_on_c, 0, 52, 100
2, 10320, Note_on_c, 0, 61, 100
2, 10380, Note_on_c, 0, 61, 0
2, 10380, Note_on_c, 0, 59, 100
2, 10440, Note_on_c, 0, 56, 100
2, 10470, Note_on_c, 0, 59, 0
2, 10500, Note_on_c, 0, 52, 100
2, 10530, Note_on_c, 0, 56, 0
2, 10560, Note_on_c, 0, 52, 0
2, 10560, Note_on_c, 0, 52, 0
2, 10560, Note_on_c, 0, 50, 100
2, 10680, Note_on_c, 0, 64, 100
2, 10800, Note_on_c, 0, 64, 0
2, 10800, Note_on_c, 0, 64, 100
2, 10800, Note_on_c, 0, 57, 50
2, 10800, Note_on_c, 0, 62, 100
2, 10920, Note_on_c, 0, 62, 0
2, 10920, Note_on_c, 0, 50, 0
2, 10920, Note_on_c, 0, 64, 0
2, 10920, Note_on_c, 0, 57, 0
2, 10920, Note_on_c, 0, 57, 50
2, 10920, Note_on_c, 0, 61, 100
2, 10980, Note_on_c, 0, 61, 0
2, 10980, Note_on_c, 0, 57, 0
2, 10980, Note_on_c, 0, 56, 30
2, 10980, Note_on_c, 0, 59, 100
2, 10980, Note_on_c, 0, 64, 50
2, 11040, Note_on_c, 0, 64, 0
2, 11040, Note_on_c, 0, 59, 0
2, 11040, Note_on_c, 0, 56, 0
2, 11100, Note_on_c, 0, 56, 30
2, 11100, Note_on_c, 0, 59, 100
2, 11100, Note_on_c, 0, 64, 100
2, 11160, Note_on_c, 0, 64, 0
2, 11160, Note_on_c, 0, 59, 0
2, 11160, Note_on_c, 0, 56, 0
2, 11220, Note_on_c, 0, 52, 100
2, 11280, Note_on_c, 0, 61, 100
2, 11340, Note_on_c, 0, 61, 0
2, 11340, Note_on_c, 0, 59, 100
2, 11400, Note_on_c, 0, 56, 100
2, 11430, Note_on_c, 0, 59, 0
2, 11460, Note_on_c, 0, 52, 100
2, 11490, Note_on_c, 0, 56, 0
2, 11520, Note_on_c, 0, 52, 0
2, 11520, Note_on_c, 0, 52, 0
2, 11520, Note_on_c, 0, 50, 100
2, 11640, Note_on_c, 0, 64, 100
2, 11760, Note_on_c, 0, 64, 0
2, 11760, Note_on_c, 0, 64, 100
2, 11760, Note_on_c, 0, 57, 50
2, 11760, Note_on_c, 0, 62, 100
2, 11880, Note_on_c, 0, 62, 0
2, 11880, Note_on_c, 0, 50, 0
2, 11880, Note_on_c, 0, 64, 0
2, 11880, Note_on_c, 0, 57, 0
2, 11880, Note_on_c, 0, 57, 50
2, 11880, Note_on_c, 0, 61, 100
2, 11940, Note_on_c, 0, 61, 0
2, 11940, Note_on_c, 0, 57, 0
2, 11940, Note_on_c, 0, 56, 30
2, 11940, Note_on_c, 0, 59, 100
2, 11940, Note_on_c, 0, 64, 50
2, 12000, Note_on_c, 0, 64, 0
2, 12000, Note_on_c, 0, 59, 0
2, 12000, Note_on_c, 0, 56, 0
2, 12060, Note_on_c, 0, 56, 30
2, 12060, Note_on_c, 0, 59, 100
2, 12060, Note_on_c, 0, 64, 100
2, 12120, Note_on_c, 0, 64, 0
2, 12120, Note_on_c, 0, 59, 0
2, 12120, Note_on_c, 0, 56, 0
2, 12180, Note_on_c, 0, 52, 100
2, 12240, Note_on_c, 0, 61, 100
2, 12300, Note_on_c, 0, 61, 0
2, 12300, Note_on_c, 0, 59, 100
2, 12360, Note_on_c, 0, 56, 100
2, 12390, Note_on_c, 0, 59, 0
2, 12420, Note_on_c, 0, 52, 100
2, 12450, Note_on_c, 0, 56, 0
2, 12480, Note_on_c, 0, 52, 0
2, 12480, Note_on_c, 0, 52, 0
2, 12480, Note_on_c, 0, 50, 100
2, 12600, Note_on_c, 0, 64, 100
2, 12720, Note_on_c, 0, 64, 0
2, 12720, Note_on_c, 0, 64, 100
2, 12720, Note_on_c, 0, 57, 50
2, 12720, Note_on_c, 0, 62, 100
2, 12840, Note_on_c, 0, 62, 0
2, 12840, Note_on_c, 0, 50, 0
2, 12840, Note_on_c, 0, 64, 0
2, 12840, Note_on_c, 0, 57, 0
2, 12840, Note_on_c, 0, 57, 50
2, 12840, Note_on_c, 0, 61, 100
2, 12900, Note_on_c, 0, 61, 0
2, 12900, Note_on_c, 0, 57, 0
2, 12900, Note_on_c, 0, 56, 30
2, 12900, Note_on_c, 0, 59, 100
2, 12900, Note_on_c, 0, 64, 50
2, 12960, Note_on_c, 0, 64, 0
2, 12960, Note_on_c, 0, 59, 0
2, 12960, Note_on_c, 0, 56, 0
2, 13020, Note_on_c, 0, 56, 30
2, 13020, Note_on_c, 0, 59, 100
2, 13020, Note_on_c, 0, 64, 100
2, 13080, Note_on_c, 0, 64, 0
2, 13080, Note_on_c, 0, 59, 0
2, 13080, Note_on_c, 0, 56, 0
2, 13140, Note_on_c, 0, 52, 100
2, 13200, Note_on_c, 0, 61, 100
2, 13260, Note_on_c, 0, 61, 0
2, 13260, Note_on_c, 0, 59, 100
2, 13320, Note_on_c, 0, 56, 100
2, 13350, Note_on_c, 0, 59, 0
2, 13380, Note_on_c, 0, 52, 100
2, 13410, Note_on_c, 0, 56, 0
2, 13440, Note_on_c, 0, 52, 0
2, 13440, Note_on_c, 0, 52, 0
2, 13440, Note_on_c, 0, 50, 100
2, 13560, Note_on_c, 0, 64, 100
2, 13680, Note_on_c, 0, 64, 0
2, 13680, Note_on_c, 0, 64, 100
2, 13680, Note_on_c, 0, 57, 50
2, 13680, Note_on_c, 0, 62, 100
2, 13800, Note_on_c, 0, 62, 0
2, 13800, Note_on_c, 0, 50, 0
2, 13800, Note_on_c, 0, 64, 0
2, 13800, Note_on_c, 0, 57, 0
2, 13800, Note_on_c, 0, 57, 50
2, 13800, Note_on_c, 0, 61, 100
2, 13860, Note_on_c, 0, 61, 0
2, 13860, Note_on_c, 0, 57, 0
2, 13860, Note_on_c, 0, 56, 30
2, 13860, Note_on_c, 0, 59, 100
2, 13860, Note_on_c, 0, 64, 50
2, 13920, Note_on_c, 0, 64, 0
2, 13920, Note_on_c, 0, 59, 0
2, 13920, Note_on_c, 0, 56, 0
2, 13980, Note_on_c, 0, 56, 30
2, 13980, Note_on_c, 0, 59, 100
2, 13980, Note_on_c, 0, 64, 100
2, 14040, Note_on_c, 0, 64, 0
2, 14040, Note_on_c, 0, 59, 0
2, 14040, Note_on_c, 0, 56, 0
2, 14100, Note_on_c, 0, 52, 100
2, 14160, Note_on_c, 0, 61, 100
2, 14220, Note_on_c, 0, 61, 0
2, 14220, Note_on_c, 0, 59, 100
2, 14280, Note_on_c, 0, 56, 100
2, 14310, Note_on_c, 0, 59, 0
2, 14340, Note_on_c, 0, 52, 100
2, 14370, Note_on_c, 0, 56, 0
2, 14400, Note_on_c, 0, 52, 0
2, 14400, Note_on_c, 0, 52, 0
2, 14400, Note_on_c, 0, 50, 100
2, 14520, Note_on_c, 0, 64, 100
2, 14640, Note_on_c, 0, 64, 0
2, 14640, Note_on_c, 0, 64, 100
2, 14640, Note_on_c, 0, 57, 50
2, 14640, Note_on_c, 0, 62, 100
2, 14760, Note_on_c, 0, 62, 0
2, 14760, Note_on_c, 0, 50, 0
2, 14760, Note_on_c, 0, 64, 0
2, 14760, Note_on_c, 0, 57, 0
2, 14760, Note_on_c, 0, 57, 50
2, 14760, Note_on_c, 0, 61, 100
2, 14820, Note_on_c, 0, 61, 0
2, 14820, Note_on_c, 0, 57, 0
2, 14820, Note_on_c, 0, 56, 30
2, 14820, Note_on_c, 0, 59, 100
2, 14820, Note_on_c, 0, 64, 50
2, 14880, Note_on_c, 0, 64, 0
2, 14880, Note_on_c, 0, 59, 0
2, 14880, Note_on_c, 0, 56, 0
2, 14940, Note_on_c, 0, 56, 30
2, 14940, Note_on_c, 0, 59, 100
2, 14940, Note_on_c, 0, 64, 100
2, 15000, Note_on_c, 0, 64, 0
2, 15000, Note_on_c, 0, 59, 0
2, 15000, Note_on_c, 0, 56, 0
2, 15060, Note_on_c, 0, 52, 100
2, 15120, Note_on_c, 0, 61, 100
2, 15180, Note_on_c, 0, 61, 0
2, 15180, Note_on_c, 0, 59, 100
2, 15240, Note_on_c, 0, 56, 100
2, 15270, Note_on_c, 0, 59, 0
2, 15300, Note_on_c, 0, 52, 100
2, 15330, Note_on_c, 0, 56, 0
2, 15360, Note_on_c, 0, 52, 0
2, 15360, Note_on_c, 0, 52, 0
2, 15369, Note_on_c, 0, 57, 100
2, 15373, Note_on_c, 0, 64, 100
2, 15729, Note_on_c, 0, 57, 0
2, 15733, Note_on_c, 0, 64, 0
2, 15837, Note_on_c, 0, 50, 100
2, 15845, Note_on_c, 0, 57, 100
2, 15850, Note_on_c, 0, 62, 100
2, 16197, Note_on_c, 0, 50, 0
2, 16205, Note_on_c, 0, 57, 0
2, 16210, Note_on_c, 0, 62, 0
2, 16317, Note_on_c, 0, 47, 100
2, 16323, Note_on_c, 0, 54, 100
2, 16327, Note_on_c, 0, 59, 100
2, 16330, Note_on_c, 0, 62, 100
2, 16677, Note_on_c, 0, 47, 0
2, 16680, Note_on_c, 0, 54, 100
2, 16680, Note_on_c, 0, 47, 100
2, 16683, Note_on_c, 0, 54, 0
2, 16687, Note_on_c, 0, 59, 0
2, 16690, Note_on_c, 0, 62, 0
2, 16800, Note_on_c, 0, 47, 0
2, 16800, Note_on_c, 0, 54, 0
2, 16800, Note_on_c, 0, 52, 100
2, 16800, Note_on_c, 0, 40, 100
2, 16860, Note_on_c, 0, 40, 0
2, 16860, Note_on_c, 0, 52, 0
2, 16860, Note_on_c, 0, 52, 100
2, 16860, Note_on_c, 0, 40, 100
2, 16920, Note_on_c, 0, 40, 0
2, 16920, Note_on_c, 0, 52, 0
2, 16920, Note_on_c, 0, 52, 100
2, 16920, Note_on_c, 0, 40, 100
2, 16980, Note_on_c, 0, 40, 0
2, 16980, Note_on_c, 0, 52, 0
2, 16980, Note_on_c, 0, 59, 100
2, 16980, Note_on_c, 0, 52, 100
2, 16980, Note_on_c, 0, 40, 100
2, 17040, Note_on_c, 0, 40, 0
2, 17040, Note_on_c, 0, 52, 0
2, 17040, Note_on_c, 0, 59, 0
2, 17040, Note_on_c, 0, 59, 100
2, 17040, Note_on_c, 0, 52, 100
2, 17040, Note_on_c, 0, 40, 100
2, 17100, Note_on_c, 0, 40, 0
2, 17100, Note_on_c, 0, 52, 0
2, 17100, Note_on_c, 0, 59, 0
2, 17100, Note_on_c, 0, 59, 100
2, 17100, Note_on_c, 0, 52, 100
2, 17100, Note_on_c, 0, 40, 100
2, 17160, Note_on_c, 0, 40, 0
2, 17160, Note_on_c, 0, 52, 0
2, 17160, Note_on_c, 0, 59, 0
2, 17160, Note_on_c, 0, 59, 100
2, 17160, Note_on_c, 0, 52, 100
2, 17160, Note_on_c, 0, 40, 100
2, 17220, Note_on_c, 0, 40, 0
2, 17220, Note_on_c, 0, 52, 0
2, 17220, Note_on_c, 0, 59, 0
2, 17220, Note_on_c, 0, 59, 100
2, 17220, Note_on_c, 0, 52, 100
2, 17220, Note_on_c, 0, 40, 100
2, 17280, Note_on_c, 0, 40, 0
2, 17280, Note_on_c, 0, 52, 0
2, 17280, Note_on_c, 0, 59, 0
2, 17280, Note_on_c, 0, 50, 100
2, 17400, Note_on_c, 0, 64, 100
2, 17520, Note_on_c, 0, 64, 0
2, 17520, Note_on_c, 0, 64, 100
2, 17520, Note_on_c, 0, 57, 50
2, 17520, Note_on_c, 0, 62, 100
2, 17640, Note_on_c, 0, 62, 0
2, 17640, Note_on_c, 0, 50, 0
2, 17640, Note_on_c, 0, 64, 0
2, 17640, Note_on_c, 0, 57, 0
2, 17640, Note_on_c, 0, 57, 50
2, 17640, Note_on_c, 0, 61, 100
2, 17700, Note_on_c, 0, 61, 0
2, 17700, Note_on_c, 0, 57, 0
2, 17700, Note_on_c, 0, 56, 30
2, 17700, Note_on_c, 0, 59, 100
2, 17700, Note_on_c, 0, 64, 50
2, 17760, Note_on_c, 0, 64, 0
2, 17760, Note_on_c, 0, 59, 0
2, 17760, Note_on_c, 0, 56, 0
2, 17820, Note_on_c, 0, 56, 30
2, 17820, Note_on_c, 0, 59, 100
2, 17820, Note_on_c, 0, 64, 100
2, 17880, Note_on_c, 0, 64, 0
2, 17880, Note_on_c, 0, 59, 0
2, 17880, Note_on_c, 0, 56, 0
2, 17940, Note_on_c, 0, 52, 100
2, 18000, Note_on_c, 0, 61, 100
2, 18060, Note_on_c, 0, 61, 0
2, 18060, Note_on_c, 0, 59, 100
2, 18120, Note_on_c, 0, 56, 100
2, 18150, Note_on_c, 0, 59, 0
2, 18180, Note_on_c, 0, 52, 100
2, 18210, Note_on_c, 0, 56, 0
2, 18240, Note_on_c, 0, 52, 0
2, 18240, Note_on_c, 0, 52, 0
2, 18240, Note_on_c, 0, 50, 100
2, 18360, Note_on_c, 0, 64, 100
2, 18480, Note_on_c, 0, 64, 0
2, 18480, Note_on_c, 0, 64, 100
2, 18480, Note_on_c, 0, 57, 50
2, 18480, Note_on_c, 0, 62, 100
2, 18600, Note_on_c, 0, 62, 0
2, 18600, Note_on_c, 0, 50, 0
2, 18600, Note_on_c, 0, 64, 0
2, 18600, Note_on_c, 0, 57, 0
2, 18600, Note_on_c, 0, 57, 50
2, 18600, Note_on_c, 0, 61, 100
2, 18660, Note_on_c, 0, 61, 0
2, 18660, Note_on_c, 0, 57, 0
2, 18660, Note_on_c, 0, 56, 30
2, 18660, Note_on_c, 0, 59, 100
2, 18660, Note_on_c, 0, 64, 50
2, 18720, Note_on_c, 0, 64, 0
2, 18720, Note_on_c, 0, 59, 0
2, 18720, Note_on_c, 0, 56, 0
2, 18780, Note_on_c, 0, 56, 30
2, 18780, Note_on_c, 0, 59, 100
2, 18780, Note_on_c, 0, 64, 100
2, 18840, Note_on_c, 0, 64, 0
2, 18840, Note_on_c, 0, 59, 0
2, 18840, Note_on_c, 0, 56, 0
2, 18900, Note_on_c, 0, 52, 100
2, 18960, Note_on_c, 0, 61, 100
2, 19020, Note_on_c, 0, 61, 0
2, 19020, Note_on_c, 0, 59, 100
2, 19080, Note_on_c, 0, 56, 100
2, 19110, Note_on_c, 0, 59, 0
2, 19140, Note_on_c, 0, 52, 100
2, 19170, Note_on_c, 0, 56, 0
2, 19200, Note_on_c, 0, 52, 0
2, 19200, Note_on_c, 0, 52, 0
2, 19200, Note_on_c, 0, 50, 100
2, 19320, Note_on_c, 0, 64, 100
2, 19440, Note_on_c, 0, 64, 0
2, 19440, Note_on_c, 0, 64, 100
2, 19440, Note_on_c, 0, 57, 50
2, 19440, Note_on_c, 0, 62, 100
2, 19560, Note_on_c, 0, 62, 0
2, 19560, Note_on_c, 0, 50, 0
2, 19560, Note_on_c, 0, 64, 0
2, 19560, Note_on_c, 0, 57, 0
2, 19560, Note_on_c, 0, 57, 50
2, 19560, Note_on_c, 0, 61, 100
2, 19620, Note_on_c, 0, 61, 0
2, 19620, Note_on_c, 0, 57, 0
2, 19620, Note_on_c, 0, 56, 30
2, 19620, Note_on_c, 0, 59, 100
2, 19620, Note_on_c, 0, 64, 50
2, 19680, Note_on_c, 0, 64, 0
2, 19680, Note_on_c, 0, 59, 0
2, 19680, Note_on_c, 0, 56, 0
2, 19740, Note_on_c, 0, 56, 30
2, 19740, Note_on_c, 0, 59, 100
2, 19740, Note_on_c, 0, 64, 100
2, 19800, Note_on_c, 0, 64, 0
2, 19800, Note_on_c, 0, 59, 0
2, 19800, Note_on_c, 0, 56, 0
2, 19860, Note_on_c, 0, 52, 100
2, 19920, Note_on_c, 0, 61, 100
2, 19980, Note_on_c, 0, 61, 0
2, 19980, Note_on_c, 0, 59, 100
2, 20040, Note_on_c, 0, 56, 100
2, 20070, Note_on_c, 0, 59, 0
2, 20100, Note_on_c, 0, 52, 100
2, 20130, Note_on_c, 0, 56, 0
2, 20160, Note_on_c, 0, 52, 0
2, 20160, Note_on_c, 0, 52, 0
2, 20160, Note_on_c, 0, 50, 100
2, 20160, Note_on_c, 0, 57, 100
2, 20165, Note_on_c, 0, 62, 100
2, 20520, Note_on_c, 0, 57, 0
2, 20520, Note_on_c, 0, 50, 0
2, 20525, Note_on_c, 0, 62, 0
2, 20635, Note_on_c, 0, 40, 100
2, 20640, Note_on_c, 0, 47, 100
2, 20645, Note_on_c, 0, 52, 100
2, 20650, Note_on_c, 0, 59, 100
2, 20995, Note_on_c, 0, 40, 0
2, 21000, Note_on_c, 0, 47, 0
2, 21000, Pitch_bend_c, 0, 8320
2, 21000, Note_on_c, 0, 43, 100
2, 21005, Note_on_c, 0, 52, 0
2, 21006, Pitch_bend_c, 0, 8448
2, 21010, Note_on_c, 0, 59, 0
2, 21013, Pitch_bend_c, 0, 8576
2, 21020, Pitch_bend_c, 0, 8704
2, 21026, Pitch_bend_c, 0, 8832
2, 21033, Pitch_bend_c, 0, 8960
2, 21040, Pitch_bend_c, 0, 9088
2, 21046, Pitch_bend_c, 0, 9216
2, 21053, Pitch_bend_c, 0, 9344
2, 21060, Pitch_bend_c, 0, 9472
2, 21066, Pitch_bend_c, 0, 9600
2, 21073, Pitch_bend_c, 0, 9728
2, 21080, Pitch_bend_c, 0, 9856
2, 21086, Pitch_bend_c, 0, 9984
2, 21093, Pitch_bend_c, 0, 10112
2, 21100, Pitch_bend_c, 0, 10240
2, 21106, Pitch_bend_c, 0, 10368
2, 21113, Pitch_bend_c, 0, 10496
2, 21116, Pitch_bend_c, 0, 10624
2, 21120, Note_on_c, 0, 43, 0
2, 21120, Pitch_bend_c, 0, 8192
2, 21120, Note_on_c, 0, 50, 100
2, 21240, Note_on_c, 0, 64, 100
2, 21360, Note_on_c, 0, 64, 0
2, 21360, Note_on_c, 0, 64, 100
2, 21360, Note_on_c, 0, 57, 50
2, 21360, Note_on_c, 0, 62, 100
2, 21480, Note_on_c, 0, 62, 0
2, 21480, Note_on_c, 0, 50, 0
2, 21480, Note_on_c, 0, 64, 0
2, 21480, Note_on_c, 0, 57, 0
2, 21480, Note_on_c, 0, 57, 50
2, 21480, Note_on_c, 0, 61, 100
2, 21540, Note_on_c, 0, 61, 0
2, 21540, Note_on_c, 0, 57, 0
2, 21540, Note_on_c, 0, 56, 30
2, 21540, Note_on_c, 0, 59, 100
2, 21540, Note_on_c, 0, 64, 50
2, 21600, Note_on_c, 0, 64, 0
2, 21600, Note_on_c, 0, 59, 0
2, 21600, Note_on_c, 0, 56, 0
2, 21660, Note_on_c, 0, 56, 30
2, 21660, Note_on_c, 0, 59, 100
2, 21660, Note_on_c, 0, 64, 100
2, 21720, Note_on_c, 0, 64, 0
2, 21720, Note_on_c, 0, 59, 0
2, 21720, Note_on_c, 0, 56, 0
2, 21780, Note_on_c, 0, 52, 100
2, 21840, Note_on_c, 0, 61, 100
2, 21900, Note_on_c, 0, 61, 0
2, 21900, Note_on_c, 0, 59, 100
2, 21960, Note_on_c, 0, 56, 100
2, 21990, Note_on_c, 0, 59, 0
2, 22020, Note_on_c, 0, 52, 100
2, 22050, Note_on_c, 0, 56, 0
2, 22080, Note_on_c, 0, 52, 0
2, 22080, Note_on_c, 0, 52, 0
2, 22080, Note_on_c, 0, 50, 100
2, 22200, Note_on_c, 0, 64, 100
2, 22320, Note_on_c, 0, 64, 0
2, 22320, Note_on_c, 0, 64, 100
2, 22320, Note_on_c, 0, 57, 50
2, 22320, Note_on_c, 0, 62, 100
2, 22440, Note_on_c, 0, 62, 0
2, 22440, Note_on_c, 0, 50, 0
2, 22440, Note_on_c, 0, 64, 0
2, 22440, Note_on_c, 0, 57, 0
2, 22440, Note_on_c, 0, 57, 50
2, 22440, Note_on_c, 0, 61, 100
2, 22500, Note_on_c, 0, 61, 0
2, 22500, Note_on_c, 0, 57, 0
2, 22500, Note_on_c, 0, 56, 30
2, 22500, Note_on_c, 0, 59, 100
2, 22500, Note_on_c, 0, 64, 50
2, 22560, Note_on_c, 0, 64, 0
2, 22560, Note_on_c, 0, 59, 0
2, 22560, Note_on_c, 0, 56, 0
2, 22620, Note_on_c, 0, 56, 30
2, 22620, Note_on_c, 0, 59, 100
2, 22620, Note_on_c, 0, 64, 100
2, 22680, Note_on_c, 0, 64, 0
2, 22680, Note_on_c, 0, 59, 0
2, 22680, Note_on_c, 0, 56, 0
2, 22740, Note_on_c, 0, 52, 100
2, 22800, Note_on_c, 0, 61, 100
2, 22860, Note_on_c, 0, 61, 0
2, 22860, Note_on_c, 0, 59, 100
2, 22920, Note_on_c, 0, 56, 100
2, 22950, Note_on_c, 0, 59, 0
2, 22980, Note_on_c, 0, 52, 100
2, 23010, Note_on_c, 0, 56, 0
2, 23040, Note_on_c, 0, 52, 0
2, 23040, Note_on_c, 0, 52, 0
2, 23040, Note_on_c, 0, 50, 100
2, 23160, Note_on_c, 0, 64, 100
2, 23280, Note_on_c, 0, 64, 0
2, 23280, Note_on_c, 0, 64, 100
2, 23280, Note_on_c, 0, 57, 50
2, 23280, Note_on_c, 0, 62, 100
2, 23400, Note_on_c, 0, 62, 0
2, 23400, Note_on_c, 0, 50, 0
2, 23400, Note_on_c, 0, 64, 0
2, 23400, Note_on_c, 0, 57, 0
2, 23400, Note_on_c, 0, 57, 50
2, 23400, Note_on_c, 0, 61, 100
2, 23460, Note_on_c, 0, 61, 0
2, 23460, Note_on_c, 0, 57, 0
2, 23460, Note_on_c, 0, 56, 30
2, 23460, Note_on_c, 0, 59, 100
2, 23460, Note_on_c, 0, 64, 50
2, 23520, Note_on_c, 0, 64, 0
2, 23520, Note_on_c, 0, 59, 0
2, 23520, Note_on_c, 0, 56, 0
2, 23580, Note_on_c, 0, 56, 30
2, 23580, Note_on_c, 0, 59, 100
2, 23580, Note_on_c, 0, 64, 100
2, 23640, Note_on_c, 0, 64, 0
2, 23640, Note_on_c, 0, 59, 0
2, 23640, Note_on_c, 0, 56, 0
2, 23700, Note_on_c, 0, 52, 100
2, 23760, Note_on_c, 0, 61, 100
2, 23820, Note_on_c, 0, 61, 0
2, 23820, Note_on_c, 0, 59, 100
2, 23880, Note_on_c, 0, 56, 100
2, 23910, Note_on_c, 0, 59, 0
2, 23940, Note_on_c, 0, 52, 100
2, 23970, Note_on_c, 0, 56, 0
2, 24000, Note_on_c, 0, 52, 0
2, 24000, Note_on_c, 0, 52, 0
2, 24000, Note_on_c, 0, 50, 100
2, 24120, Note_on_c, 0, 64, 100
2, 24240, Note_on_c, 0, 64, 0
2, 24240, Note_on_c, 0, 64, 100
2, 24240, Note_on_c, 0, 57, 50
2, 24240, Note_on_c, 0, 62, 100
2, 24360, Note_on_c, 0, 62, 0
2, 24360, Note_on_c, 0, 50, 0
2, 24360, Note_on_c, 0, 64, 0
2, 24360, Note_on_c, 0, 57, 0
2, 24360, Note_on_c, 0, 57, 50
2, 24360, Note_on_c, 0, 61, 100
2, 24420, Note_on_c, 0, 61, 0
2, 24420, Note_on_c, 0, 57, 0
2, 24420, Note_on_c, 0, 56, 30
2, 24420, Note_on_c, 0, 59, 100
2, 24420, Note_on_c, 0, 64, 50
2, 24480, Note_on_c, 0, 64, 0
2, 24480, Note_on_c, 0, 59, 0
2, 24480, Note_on_c, 0, 56, 0
2, 24540, Note_on_c, 0, 56, 30
2, 24540, Note_on_c, 0, 59, 100
2, 24540, Note_on_c, 0, 64, 100
2, 24600, Note_on_c, 0, 64, 0
2, 24600, Note_on_c, 0, 59, 0
2, 24600, Note_on_c, 0, 56, 0
2, 24660, Note_on_c, 0, 52, 100
2, 24720, Note_on_c, 0, 61, 100
2, 24780, Note_on_c, 0, 61, 0
2, 24780, Note_on_c, 0, 59, 100
2, 24840, Note_on_c, 0, 56, 100
2, 24870, Note_on_c, 0, 59, 0
2, 24900, Note_on_c, 0, 52, 100
2, 24930, Note_on_c, 0, 56, 0
2, 24960, Note_on_c, 0, 52, 0
2, 24960, Note_on_c, 0, 52, 0
2, 24960, Note_on_c, 0, 50, 100
2, 25080, Note_on_c, 0, 64, 100
2, 25200, Note_on_c, 0, 64, 0
2, 25200, Note_on_c, 0, 64, 100
2, 25200, Note_on_c, 0, 57, 50
2, 25200, Note_on_c, 0, 62, 100
2, 25320, Note_on_c, 0, 62, 0
2, 25320, Note_on_c, 0, 50, 0
2, 25320, Note_on_c, 0, 64, 0
2, 25320, Note_on_c, 0, 57, 0
2, 25320, Note_on_c, 0, 57, 50
2, 25320, Note_on_c, 0, 61, 100
2, 25380, Note_on_c, 0, 61, 0
2, 25380, Note_on_c, 0, 57, 0
2, 25380, Note_on_c, 0, 56, 30
2, 25380, Note_on_c, 0, 59, 100
2, 25380, Note_on_c, 0, 64, 50
2, 25440, Note_on_c, 0, 64, 0
2, 25440, Note_on_c, 0, 59, 0
2, 25440, Note_on_c, 0, 56, 0
2, 25500, Note_on_c, 0, 56, 30
2, 25500, Note_on_c, 0, 59, 100
2, 25500, Note_on_c, 0, 64, 100
2, 25560, Note_on_c, 0, 64, 0
2, 25560, Note_on_c, 0, 59, 0
2, 25560, Note_on_c, 0, 56, 0
2, 25620, Note_on_c, 0, 52, 100
2, 25680, Note_on_c, 0, 61, 100
2, 25740, Note_on_c, 0, 61, 0
2, 25740, Note_on_c, 0, 59, 100
2, 25800, Note_on_c, 0, 56, 100
2, 25830, Note_on_c, 0, 59, 0
2, 25860, Note_on_c, 0, 52, 100
2, 25890, Note_on_c, 0, 56, 0
2, 25920, Note_on_c, 0, 52, 0
2, 25920, Note_on_c, 0, 52, 0
2, 25920, Note_on_c, 0, 50, 100
2, 26040, Note_on_c, 0, 64, 100
2, 26160, Note_on_c, 0, 64, 0
2, 26160, Note_on_c, 0, 64, 100
2, 26160, Note_on_c, 0, 57, 50
2, 26160, Note_on_c, 0, 62, 100
2, 26280, Note_on_c, 0, 62, 0
2, 26280, Note_on_c, 0, 50, 0
2, 26280, Note_on_c, 0, 64, 0
2, 26280, Note_on_c, 0, 57, 0
2, 26280, Note_on_c, 0, 57, 50
2, 26280, Note_on_c, 0, 61, 100
2, 26340, Note_on_c, 0, 61, 0
2, 26340, Note_on_c, 0, 57, 0
2, 26340, Note_on_c, 0, 56, 30
2, 26340, Note_on_c, 0, 59, 100
2, 26340, Note_on_c, 0, 64, 50
2, 26400, Note_on_c, 0, 64, 0
2, 26400, Note_on_c, 0, 59, 0
2, 26400, Note_on_c, 0, 56, 0
2, 26460, Note_on_c, 0, 56, 30
2, 26460, Note_on_c, 0, 59, 100
2, 26460, Note_on_c, 0, 64, 100
2, 26520, Note_on_c, 0, 64, 0
2, 26520, Note_on_c, 0, 59, 0
2, 26520, Note_on_c, 0, 56, 0
2, 26580, Note_on_c, 0, 52, 100
2, 26640, Note_on_c, 0, 61, 100
2, 26700, Note_on_c, 0, 61, 0
2, 26700, Note_on_c, 0, 59, 100
2, 26760, Note_on_c, 0, 56, 100
2, 26790, Note_on_c, 0, 59, 0
2, 26820, Note_on_c, 0, 52, 100
2, 26850, Note_on_c, 0, 56, 0
2, 26880, Note_on_c, 0, 52, 0
2, 26880, Note_on_c, 0, 52, 0
2, 26880, Note_on_c, 0, 50, 100
2, 27000, Note_on_c, 0, 64, 100
2, 27120, Note_on_c, 0, 64, 0
2, 27120, Note_on_c, 0, 64, 100
2, 27120, Note_on_c, 0, 57, 50
2, 27120, Note_on_c, 0, 62, 100
2, 27240, Note_on_c, 0, 62, 0
2, 27240, Note_on_c, 0, 50, 0
2, 27240, Note_on_c, 0, 64, 0
2, 27240, Note_on_c, 0, 57, 0
2, 27240, Note_on_c, 0, 57, 50
2, 27240, Note_on_c, 0, 61, 100
2, 27300, Note_on_c, 0, 61, 0
2, 27300, Note_on_c, 0, 57, 0
2, 27300, Note_on_c, 0, 56, 30
2, 27300, Note_on_c, 0, 59, 100
2, 27300, Note_on_c, 0, 64, 50
2, 27360, Note_on_c, 0, 64, 0
2, 27360, Note_on_c, 0, 59, 0
2, 27360, Note_on_c, 0, 56, 0
2, 27420, Note_on_c, 0, 56, 30
2, 27420, Note_on_c, 0, 59, 100
2, 27420, Note_on_c, 0, 64, 100
2, 27480, Note_on_c, 0, 64, 0
2, 27480, Note_on_c, 0, 59, 0
2, 27480, Note_on_c, 0, 56, 0
2, 27540, Note_on_c, 0, 52, 100
2, 27600, Note_on_c, 0, 61, 100
2, 27660, Note_on_c, 0, 61, 0
2, 27660, Note_on_c, 0, 59, 100
2, 27720, Note_on_c, 0, 56, 100
2, 27750, Note_on_c, 0, 59, 0
2, 27780, Note_on_c, 0, 52, 100
2, 27810, Note_on_c, 0, 56, 0
2, 27840, Note_on_c, 0, 52, 0
2, 27840, Note_on_c, 0, 52, 0
2, 27840, Note_on_c, 0, 50, 100
2, 27960, Note_on_c, 0, 64, 100
2, 28080, Note_on_c, 0, 64, 0
2, 28080, Note_on_c, 0, 64, 100
2, 28080, Note_on_c, 0, 57, 50
2, 28080, Note_on_c, 0, 62, 100
2, 28200, Note_on_c, 0, 62, 0
2, 28200, Note_on_c, 0, 50, 0
2, 28200, Note_on_c, 0, 64, 0
2, 28200, Note_on_c, 0, 57, 0
2, 28200, Note_on_c, 0, 57, 50
2, 28200, Note_on_c, 0, 61, 100
2, 28260, Note_on_c, 0, 61, 0
2, 28260, Note_on_c, 0, 57, 0
2, 28260, Note_on_c, 0, 56, 30
2, 28260, Note_on_c, 0, 59, 100
2, 28260, Note_on_c, 0, 64, 50
2, 28320, Note_on_c, 0, 64, 0
2, 28320, Note_on_c, 0, 59, 0
2, 28320, Note_on_c, 0, 56, 0
2, 28380, Note_on_c, 0, 56, 30
2, 28380, Note_on_c, 0, 59, 100
2, 28380, Note_on_c, 0, 64, 100
2, 28440, Note_on_c, 0, 64, 0
2, 28440, Note_on_c, 0, 59, 0
2, 28440, Note_on_c, 0, 56, 0
2, 28500, Note_on_c, 0, 52, 100
2, 28560, Note_on_c, 0, 61, 100
2, 28620, Note_on_c, 0, 61, 0
2, 28620, Note_on_c, 0, 59, 100
2, 28680, Note_on_c, 0, 56, 100
2, 28710, Note_on_c, 0, 59, 0
2, 28740, Note_on_c, 0, 52, 100
2, 28770, Note_on_c, 0, 56, 0
2, 28800, Note_on_c, 0, 52, 0
2, 28800, Note_on_c, 0, 52, 0
2, 28800, Note_on_c, 0, 50, 100
2, 28920, Note_on_c, 0, 64, 100
2, 29040, Note_on_c, 0, 64, 0
2, 29040, Note_on_c, 0, 64, 100
2, 29040, Note_on_c, 0, 57, 50
2, 29040, Note_on_c, 0, 62, 100
2, 29160, Note_on_c, 0, 62, 0
2, 29160, Note_on_c, 0, 50, 0
2, 29160, Note_on_c, 0, 64, 0
2, 29160, Note_on_c, 0, 57, 0
2, 29160, Note_on_c, 0, 57, 50
2, 29160, Note_on_c, 0, 61, 100
2, 29220, Note_on_c, 0, 61, 0
2, 29220, Note_on_c, 0, 57, 0
2, 29220, Note_on_c, 0, 56, 30
2, 29220, Note_on_c, 0, 59, 100
2, 29220, Note_on_c, 0, 64, 50
2, 29280, Note_on_c, 0, 64, 0
2, 29280, Note_on_c, 0, 59, 0
2, 29280, Note_on_c, 0, 56, 0
2, 29340, Note_on_c, 0, 56, 30
2, 29340, Note_on_c, 0, 59, 100
2, 29340, Note_on_c, 0, 64, 100
2, 29400, Note_on_c, 0, 64, 0
2, 29400, Note_on_c, 0, 59, 0
2, 29400, Note_on_c, 0, 56, 0
2, 29460, Note_on_c, 0, 52, 100
2, 29520, Note_on_c, 0, 61, 100
2, 29580, Note_on_c, 0, 61, 0
2, 29580, Note_on_c, 0, 59, 100
2, 29640, Note_on_c, 0, 56, 100
2, 29670, Note_on_c, 0, 59, 0
2, 29700, Note_on_c, 0, 52, 100
2, 29730, Note_on_c, 0, 56, 0
2, 29760, Note_on_c, 0, 52, 0
2, 29760, Note_on_c, 0, 52, 0
2, 29760, Note_on_c, 0, 50, 100
2, 29880, Note_on_c, 0, 64, 100
2, 30000, Note_on_c, 0, 64, 0
2, 30000, Note_on_c, 0, 64, 100
2, 30000, Note_on_c, 0, 57, 50
2, 30000, Note_on_c, 0, 62, 100
2, 30120, Note_on_c, 0, 62, 0
2, 30120, Note_on_c, 0, 50, 0
2, 30120, Note_on_c, 0, 64, 0
2, 30120, Note_on_c, 0, 57, 0
2, 30120, Note_on_c, 0, 57, 50
2, 30120, Note_on_c, 0, 61, 100
2, 30180, Note_on_c, 0, 61, 0
2, 30180, Note_on_c, 0, 57, 0
2, 30180, Note_on_c, 0, 56, 30
2, 30180, Note_on_c, 0, 59, 100
2, 30180, Note_on_c, 0, 64, 50
2, 30240, Note_on_c, 0, 64, 0
2, 30240, Note_on_c, 0, 59, 0
2, 30240, Note_on_c, 0, 56, 0
2, 30300, Note_on_c, 0, 56, 30
2, 30300, Note_on_c, 0, 59, 100
2, 30300, Note_on_c, 0, 64, 100
2, 30360, Note_on_c, 0, 64, 0
2, 30360, Note_on_c, 0, 59, 0
2, 30360, Note_on_c, 0, 56, 0
2, 30420, Note_on_c, 0, 52, 100
2, 30480, Note_on_c, 0, 61, 100
2, 30540, Note_on_c, 0, 61, 0
2, 30540, Note_on_c, 0, 59, 100
2, 30600, Note_on_c, 0, 56, 100
2, 30630, Note_on_c, 0, 59, 0
2, 30660, Note_on_c, 0, 52, 100
2, 30690, Note_on_c, 0, 56, 0
2, 30720, Note_on_c, 0, 52, 0
2, 30720, Note_on_c, 0, 52, 0
2, 30720, Note_on_c, 0, 50, 100
2, 30840, Note_on_c, 0, 64, 100
2, 30960, Note_on_c, 0, 64, 0
2, 30960, Note_on_c, 0, 64, 100
2, 30960, Note_on_c, 0, 57, 50
2, 30960, Note_on_c, 0, 62, 100
2, 31080, Note_on_c, 0, 62, 0
2, 31080, Note_on_c, 0, 50, 0
2, 31080, Note_on_c, 0, 64, 0
2, 31080, Note_on_c, 0, 57, 0
2, 31080, Note_on_c, 0, 57, 50
2, 31080, Note_on_c, 0, 61, 100
2, 31140, Note_on_c, 0, 61, 0
2, 31140, Note_on_c, 0, 57, 0
2, 31140, Note_on_c, 0, 56, 30
2, 31140, Note_on_c, 0, 59, 100
2, 31140, Note_on_c, 0, 64, 50
2, 31200, Note_on_c, 0, 64, 0
2, 31200, Note_on_c, 0, 59, 0
2, 31200, Note_on_c, 0, 56, 0
2, 31260, Note_on_c, 0, 56, 30
2, 31260, Note_on_c, 0, 59, 100
2, 31260, Note_on_c, 0, 64, 100
2, 31320, Note_on_c, 0, 64, 0
2, 31320, Note_on_c, 0, 59, 0
2, 31320, Note_on_c, 0, 56, 0
2, 31380, Note_on_c, 0, 52, 100
2, 31440, Note_on_c, 0, 61, 100
2, 31500, Note_on_c, 0, 61, 0
2, 31500, Note_on_c, 0, 59, 100
2, 31560, Note_on_c, 0, 56, 100
2, 31590, Note_on_c, 0, 59, 0
2, 31620, Note_on_c, 0, 52, 100
2, 31650, Note_on_c, 0, 56, 0
2, 31680, Note_on_c, 0, 52, 0
2, 31680, Note_on_c, 0, 52, 0
2, 31680, Note_on_c, 0, 50, 100
2, 31800, Note_on_c, 0, 64, 100
2, 31920, Note_on_c, 0, 64, 0
2, 31920, Note_on_c, 0, 64, 100
2, 31920, Note_on_c, 0, 57, 50
2, 31920, Note_on_c, 0, 62, 100
2, 32040, Note_on_c, 0, 62, 0
2, 32040, Note_on_c, 0, 50, 0
2, 32040, Note_on_c, 0, 64, 0
2, 32040, Note_on_c, 0, 57, 0
2, 32040, Note_on_c, 0, 57, 50
2, 32040, Note_on_c, 0, 61, 100
2, 32100, Note_on_c, 0, 61, 0
2, 32100, Note_on_c, 0, 57, 0
2, 32100, Note_on_c, 0, 56, 30
2, 32100, Note_on_c, 0, 59, 100
2, 32100, Note_on_c, 0, 64, 50
2, 32160, Note_on_c, 0, 64, 0
2, 32160, Note_on_c, 0, 59, 0
2, 32160, Note_on_c, 0, 56, 0
2, 32220, Note_on_c, 0, 56, 30
2, 32220, Note_on_c, 0, 59, 100
2, 32220, Note_on_c, 0, 64, 100
2, 32280, Note_on_c, 0, 64, 0
2, 32280, Note_on_c, 0, 59, 0
2, 32280, Note_on_c, 0, 56, 0
2, 32340, Note_on_c, 0, 52, 100
2, 32400, Note_on_c, 0, 61, 100
2, 32460, Note_on_c, 0, 61, 0
2, 32460, Note_on_c, 0, 59, 100
2, 32520, Note_on_c, 0, 56, 100
2, 32550, Note_on_c, 0, 59, 0
2, 32580, Note_on_c, 0, 52, 100
2, 32610, Note_on_c, 0, 56, 0
2, 32640, Note_on_c, 0, 52, 0
2, 32640, Note_on_c, 0, 52, 0
2, 32649, Note_on_c, 0, 57, 100
2, 32653, Note_on_c, 0, 64, 100
2, 33009, Note_on_c, 0, 57, 0
2, 33013, Note_on_c, 0, 64, 0
2, 33117, Note_on_c, 0, 50, 100
2, 33125, Note_on_c, 0, 57, 100
2, 33130, Note_on_c, 0, 62, 100
2, 33477, Note_on_c, 0, 50, 0
2, 33485, Note_on_c, 0, 57, 0
2, 33490, Note_on_c, 0, 62, 0
2, 33597, Note_on_c, 0, 47, 100
2, 33603, Note_on_c, 0, 54, 100
2, 33607, Note_on_c, 0, 59, 100
2, 33610, Note_on_c, 0, 62, 100
2, 33957, Note_on_c, 0, 47, 0
2, 33960, Note_on_c, 0, 54, 100
2, 33960, Note_on_c, 0, 47, 100
2, 33963, Note_on_c, 0, 54, 0
2, 33967, Note_on_c, 0, 59, 0
2, 33970, Note_on_c, 0, 62, 0
2, 34080, Note_on_c, 0, 47, 0
2, 34080, Note_on_c, 0, 54, 0
2, 34080, Note_on_c, 0, 52, 100
2, 34080, Note_on_c, 0, 40, 100
2, 34140, Note_on_c, 0, 40, 0
2, 34140, Note_on_c, 0, 52, 0
2, 34140, Note_on_c, 0, 52, 100
2, 34140, Note_on_c, 0, 40, 100
2, 34200, Note_on_c, 0, 40, 0
2, 34200, Note_on_c, 0, 52, 0
2, 34200, Note_on_c, 0, 52, 100
2, 34200, Note_on_c, 0, 40, 100
2, 34260, Note_on_c, 0, 40, 0
2, 34260, Note_on_c, 0, 52, 0
2, 34260, Note_on_c, 0, 59, 100
2, 34260, Note_on_c, 0, 52, 100
2, 34260, Note_on_c, 0, 40, 100
2, 34320, Note_on_c, 0, 40, 0
2, 34320, Note_on_c, 0, 52, 0
2, 34320, Note_on_c, 0, 59, 0
2, 34320, Note_on_c, 0, 59, 100
2, 34320, Note_on_c, 0, 52, 100
2, 34320, Note_on_c, 0, 40, 100
2, 34380, Note_on_c, 0, 40, 0
2, 34380, Note_on_c, 0, 52, 0
2, 34380, Note_on_c, 0, 59, 0
2, 34380, Note_on_c, 0, 59, 100
2, 34380, Note_on_c, 0, 52, 100
2, 34380, Note_on_c, 0, 40, 100
2, 34440, Note_on_c, 0, 40, 0
2, 34440, Note_on_c, 0, 52, 0
2, 34440, Note_on_c, 0, 59, 0
2, 34440, Note_on_c, 0, 59, 100
2, 34440, Note_on_c, 0, 52, 100
2, 34440, Note_on_c, 0, 40, 100
2, 34500, Note_on_c, 0, 40, 0
2, 34500, Note_on_c, 0, 52, 0
2, 34500, Note_on_c, 0, 59, 0
2, 34500, Note_on_c, 0, 59, 100
2, 34500, Note_on_c, 0, 52, 100
2, 34500, Note_on_c, 0, 40, 100
2, 34560, Note_on_c, 0, 40, 0
2, 34560, Note_on_c, 0, 52, 0
2, 34560, Note_on_c, 0, 59, 0
2, 34560, Note_on_c, 0, 50, 100
2, 34680, Note_on_c, 0, 64, 100
2, 34800, Note_on_c, 0, 64, 0
2, 34800, Note_on_c, 0, 64, 100
2, 34800, Note_on_c, 0, 57, 50
2, 34800, Note_on_c, 0, 62, 100
2, 34920, Note_on_c, 0, 62, 0
2, 34920, Note_on_c, 0, 50, 0
2, 34920, Note_on_c, 0, 64, 0
2, 34920, Note_on_c, 0, 57, 0
2, 34920, Note_on_c, 0, 57, 50
2, 34920, Note_on_c, 0, 61, 100
2, 34980, Note_on_c, 0, 61, 0
2, 34980, Note_on_c, 0, 57, 0
2, 34980, Note_on_c, 0, 56, 30
2, 34980, Note_on_c, 0, 59, 100
2, 34980, Note_on_c, 0, 64, 50
2, 35040, Note_on_c, 0, 64, 0
2, 35040, Note_on_c, 0, 59, 0
2, 35040, Note_on_c, 0, 56, 0
2, 35100, Note_on_c, 0, 56, 30
2, 35100, Note_on_c, 0, 59, 100
2, 35100, Note_on_c, 0, 64, 100
2, 35160, Note_on_c, 0, 64, 0
2, 35160, Note_on_c, 0, 59, 0
2, 35160, Note_on_c, 0, 56, 0
2, 35220, Note_on_c, 0, 52, 100
2, 35280, Note_on_c, 0, 61, 100
2, 35340, Note_on_c, 0, 61, 0
2, 35340, Note_on_c, 0, 59, 100
2, 35400, Note_on_c, 0, 56, 100
2, 35430, Note_on_c, 0, 59, 0
2, 35460, Note_on_c, 0, 52, 100
2, 35490, Note_on_c, 0, 56, 0
2, 35520, Note_on_c, 0, 52, 0
2, 35520, Note_on_c, 0, 52, 0
2, 35520, Note_on_c, 0, 50, 100
2, 35640, Note_on_c, 0, 64, 100
2, 35760, Note_on_c, 0, 64, 0
2, 35760, Note_on_c, 0, 64, 100
2, 35760, Note_on_c, 0, 57, 50
2, 35760, Note_on_c, 0, 62, 100
2, 35880, Note_on_c, 0, 62, 0
2, 35880, Note_on_c, 0, 50, 0
2, 35880, Note_on_c, 0, 64, 0
2, 35880, Note_on_c, 0, 57, 0
2, 35880, Note_on_c, 0, 57, 50
2, 35880, Note_on_c, 0, 61, 100
2, 35940, Note_on_c, 0, 61, 0
2, 35940, Note_on_c, 0, 57, 0
2, 35940, Note_on_c, 0, 56, 30
2, 35940, Note_on_c, 0, 59, 100
2, 35940, Note_on_c, 0, 64, 50
2, 36000, Note_on_c, 0, 64, 0
2, 36000, Note_on_c, 0, 59, 0
2, 36000, Note_on_c, 0, 56, 0
2, 36060, Note_on_c, 0, 56, 30
2, 36060, Note_on_c, 0, 59, 100
2, 36060, Note_on_c, 0, 64, 100
2, 36120, Note_on_c, 0, 64, 0
2, 36120, Note_on_c, 0, 59, 0
2, 36120, Note_on_c, 0, 56, 0
2, 36180, Note_on_c, 0, 52, 100
2, 36240, Note_on_c, 0, 61, 100
2, 36300, Note_on_c, 0, 61, 0
2, 36300, Note_on_c, 0, 59, 100
2, 36360, Note_on_c, 0, 56, 100
2, 36390, Note_on_c, 0, 59, 0
2, 36420, Note_on_c, 0, 52, 100
2, 36450, Note_on_c, 0, 56, 0
2, 36480, Note_on_c, 0, 52, 0
2, 36480, Note_on_c, 0, 52, 0
2, 36480, Note_on_c, 0, 50, 100
2, 36600, Note_on_c, 0, 64, 100
2, 36720, Note_on_c, 0, 64, 0
2, 36720, Note_on_c, 0, 64, 100
2, 36720, Note_on_c, 0, 57, 50
2, 36720, Note_on_c, 0, 62, 100
2, 36840, Note_on_c, 0, 62, 0
2, 36840, Note_on_c, 0, 50, 0
2, 36840, Note_on_c, 0, 64, 0
2, 36840, Note_on_c, 0, 57, 0
2, 36840, Note_on_c, 0, 57, 50
2, 36840, Note_on_c, 0, 61, 100
2, 36900, Note_on_c, 0, 61, 0
2, 36900, Note_on_c, 0, 57, 0
2, 36900, Note_on_c, 0, 56, 30
2, 36900, Note_on_c, 0, 59, 100
2, 36900, Note_on_c, 0, 64, 50
2, 36960, Note_on_c, 0, 64, 0
2, 36960, Note_on_c, 0, 59, 0
2, 36960, Note_on_c, 0, 56, 0
2, 37020, Note_on_c, 0, 56, 30
2, 37020, Note_on_c, 0, 59, 100
2, 37020, Note_on_c, 0, 64, 100
2, 37080, Note_on_c, 0, 64, 0
2, 37080, Note_on_c, 0, 59, 0
2, 37080, Note_on_c, 0, 56, 0
2, 37140, Note_on_c, 0, 52, 100
2, 37200, Note_on_c, 0, 61, 100
2, 37260, Note_on_c, 0, 61, 0
2, 37260, Note_on_c, 0, 59, 100
2, 37320, Note_on_c, 0, 56, 100
2, 37350, Note_on_c, 0, 59, 0
2, 37380, Note_on_c, 0, 52, 100
2, 37410, Note_on_c, 0, 56, 0
2, 37440, Note_on_c, 0, 52, 0
2, 37440, Note_on_c, 0, 52, 0
2, 37440, Note_on_c, 0, 50, 100
2, 37440, Note_on_c, 0, 57, 100
2, 37445, Note_on_c, 0, 62, 100
2, 37800, Note_on_c, 0, 57, 0
2, 37800, Note_on_c, 0, 50, 0
2, 37805, Note_on_c, 0, 62, 0
2, 37915, Note_on_c, 0, 40, 100
2, 37920, Note_on_c, 0, 47, 100
2, 37925, Note_on_c, 0, 52, 100
2, 37930, Note_on_c, 0, 59, 100
2, 38275, Note_on_c, 0, 40, 0
2, 38280, Note_on_c, 0, 47, 0
2, 38280, Pitch_bend_c, 0, 8320
2, 38280, Note_on_c, 0, 43, 100
2, 38285, Note_on_c, 0, 52, 0
2, 38286, Pitch_bend_c, 0, 8448
2, 38290, Note_on_c, 0, 59, 0
2, 38293, Pitch_bend_c, 0, 8576
2, 38300, Pitch_bend_c, 0, 8704
2, 38306, Pitch_bend_c, 0, 8832
2, 38313, Pitch_bend_c, 0, 8960
2, 38320, Pitch_bend_c, 0, 9088
2, 38326, Pitch_bend_c, 0, 9216
2, 38333, Pitch_bend_c, 0, 9344
2, 38340, Pitch_bend_c, 0, 9472
2, 38346, Pitch_bend_c, 0, 9600
2, 38353, Pitch_bend_c, 0, 9728
2, 38360, Pitch_bend_c, 0, 9856
2, 38366, Pitch_bend_c, 0, 9984
2, 38373, Pitch_bend_c, 0, 10112
2, 38380, Pitch_bend_c, 0, 10240
2, 38386, Pitch_bend_c, 0, 10368
2, 38393, Pitch_bend_c, 0, 10496
2, 38396, Pitch_bend_c, 0, 10624
2, 38400, Note_on_c, 0, 43, 0
2, 38400, Pitch_bend_c, 0, 8192
2, 38400, Note_on_c, 0, 50, 100
2, 38520, Note_on_c, 0, 64, 100
2, 38640, Note_on_c, 0, 64, 0
2, 38640, Note_on_c, 0, 64, 100
2, 38640, Note_on_c, 0, 57, 50
2, 38640, Note_on_c, 0, 62, 100
2, 38760, Note_on_c, 0, 62, 0
2, 38760, Note_on_c, 0, 50, 0
2, 38760, Note_on_c, 0, 64, 0
2, 38760, Note_on_c, 0, 57, 0
2, 38760, Note_on_c, 0, 57, 50
2, 38760, Note_on_c, 0, 61, 100
2, 38820, Note_on_c, 0, 61, 0
2, 38820, Note_on_c, 0, 57, 0
2, 38820, Note_on_c, 0, 56, 30
2, 38820, Note_on_c, 0, 59, 100
2, 38820, Note_on_c, 0, 64, 50
2, 38880, Note_on_c, 0, 64, 0
2, 38880, Note_on_c, 0, 59, 0
2, 38880, Note_on_c, 0, 56, 0
2, 38940, Note_on_c, 0, 56, 30
2, 38940, Note_on_c, 0, 59, 100
2, 38940, Note_on_c, 0, 64, 100
2, 39000, Note_on_c, 0, 64, 0
2, 39000, Note_on_c, 0, 59, 0
2, 39000, Note_on_c, 0, 56, 0
2, 39060, Note_on_c, 0, 52, 100
2, 39120, Note_on_c, 0, 61, 100
2, 39180, Note_on_c, 0, 61, 0
2, 39180, Note_on_c, 0, 59, 100
2, 39240, Note_on_c, 0, 56, 100
2, 39270, Note_on_c, 0, 59, 0
2, 39300, Note_on_c, 0, 52, 100
2, 39330, Note_on_c, 0, 56, 0
2, 39360, Note_on_c, 0, 52, 0
2, 39360, Note_on_c, 0, 52, 0
2, 39360, Note_on_c, 0, 50, 100
2, 39480, Note_on_c, 0, 64, 100
2, 39600, Note_on_c, 0, 64, 0
2, 39600, Note_on_c, 0, 64, 100
2, 39600, Note_on_c, 0, 57, 50
2, 39600, Note_on_c, 0, 62, 100
2, 39720, Note_on_c, 0, 62, 0
2, 39720, Note_on_c, 0, 50, 0
2, 39720, Note_on_c, 0, 64, 0
2, 39720, Note_on_c, 0, 57, 0
2, 39720, Note_on_c, 0, 57, 50
2, 39720, Note_on_c, 0, 61, 100
2, 39780, Note_on_c, 0, 61, 0
2, 39780, Note_on_c, 0, 57, 0
2, 39780, Note_on_c, 0, 56, 30
2, 39780, Note_on_c, 0, 59, 100
2, 39780, Note_on_c, 0, 64, 50
2, 39840, Note_on_c, 0, 64, 0
2, 39840, Note_on_c, 0, 59, 0
2, 39840, Note_on_c, 0, 56, 0
2, 39900, Note_on_c, 0, 56, 30
2, 39900, Note_on_c, 0, 59, 100
2, 39900, Note_on_c, 0, 64, 100
2, 39960, Note_on_c, 0, 64, 0
2, 39960, Note_on_c, 0, 59, 0
2, 39960, Note_on_c, 0, 56, 0
2, 40020, Note_on_c, 0, 52, 100
2, 40080, Note_on_c, 0, 61, 100
2, 40140, Note_on_c, 0, 61, 0
2, 40140, Note_on_c, 0, 59, 100
2, 40200, Note_on_c, 0, 56, 100
2, 40230, Note_on_c, 0, 59, 0
2, 40260, Note_on_c, 0, 52, 100
2, 40290, Note_on_c, 0, 56, 0
2, 40320, Note_on_c, 0, 52, 0
2, 40320, Note_on_c, 0, 52, 0
2, 40320, Note_on_c, 0, 50, 100
2, 40440, Note_on_c, 0, 64, 100
2, 40560, Note_on_c, 0, 64, 0
2, 40560, Note_on_c, 0, 64, 100
2, 40560, Note_on_c, 0, 57, 50
2, 40560, Note_on_c, 0, 62, 100
2, 40680, Note_on_c, 0, 62, 0
2, 40680, Note_on_c, 0, 50, 0
2, 40680, Note_on_c, 0, 64, 0
2, 40680, Note_on_c, 0, 57, 0
2, 40680, Note_on_c, 0, 57, 50
2, 40680, Note_on_c, 0, 61, 100
2, 40740, Note_on_c, 0, 61, 0
2, 40740, Note_on_c, 0, 57, 0
2, 40740, Note_on_c, 0, 56, 30
2, 40740, Note_on_c, 0, 59, 100
2, 40740, Note_on_c, 0, 64, 50
2, 40800, Note_on_c, 0, 64, 0
2, 40800, Note_on_c, 0, 59, 0
2, 40800, Note_on_c, 0, 56, 0
2, 40860, Note_on_c, 0, 56, 30
2, 40860, Note_on_c, 0, 59, 100
2, 40860, Note_on_c, 0, 64, 100
2, 40920, Note_on_c, 0, 64, 0
2, 40920, Note_on_c, 0, 59, 0
2, 40920, Note_on_c, 0, 56, 0
2, 40980, Note_on_c, 0, 52, 100
2, 41040, Note_on_c, 0, 61, 100
2, 41100, Note_on_c, 0, 61, 0
2, 41100, Note_on_c, 0, 59, 100
2, 41160, Note_on_c, 0, 56, 100
2, 41190, Note_on_c, 0, 59, 0
2, 41220, Note_on_c, 0, 52, 100
2, 41250, Note_on_c, 0, 56, 0
2, 41280, Note_on_c, 0, 52, 0
2, 41280, Note_on_c, 0, 52, 0
2, 41280, Note_on_c, 0, 50, 100
2, 41400, Note_on_c, 0, 64, 100
2, 41520, Note_on_c, 0, 64, 0
2, 41520, Note_on_c, 0, 64, 100
2, 41520, Note_on_c, 0, 57, 50
2, 41520, Note_on_c, 0, 62, 100
2, 41640, Note_on_c, 0, 62, 0
2, 41640, Note_on_c, 0, 50, 0
2, 41640, Note_on_c, 0, 64, 0
2, 41640, Note_on_c, 0, 57, 0
2, 41640, Note_on_c, 0, 57, 50
2, 41640, Note_on_c, 0, 61, 100
2, 41700, Note_on_c, 0, 61, 0
2, 41700, Note_on_c, 0, 57, 0
2, 41700, Note_on_c, 0, 56, 30
2, 41700, Note_on_c, 0, 59, 100
2, 41700, Note_on_c, 0, 64, 50
2, 41760, Note_on_c, 0, 64, 0
2, 41760, Note_on_c, 0, 59, 0
2, 41760, Note_on_c, 0, 56, 0
2, 41820, Note_on_c, 0, 56, 30
2, 41820, Note_on_c, 0, 59, 100
2, 41820, Note_on_c, 0, 64, 100
2, 41880, Note_on_c, 0, 64, 0
2, 41880, Note_on_c, 0, 59, 0
2, 41880, Note_on_c, 0, 56, 0
2, 41940, Note_on_c, 0, 52, 100
2, 42000, Note_on_c, 0, 61, 100
2, 42060, Note_on_c, 0, 61, 0
2, 42060, Note_on_c, 0, 59, 100
2, 42120, Note_on_c, 0, 56, 100
2, 42150, Note_on_c, 0, 59, 0
2, 42180, Note_on_c, 0, 52, 100
2, 42210, Note_on_c, 0, 56, 0
2, 42240, Note_on_c, 0, 52, 0
2, 42240, Note_on_c, 0, 52, 0
2, 42240, Note_on_c, 0, 50, 100
2, 42360, Note_on_c, 0, 64, 100
2, 42480, Note_on_c, 0, 64, 0
2, 42480, Note_on_c, 0, 64, 100
2, 42480, Note_on_c, 0, 57, 50
2, 42480, Note_on_c, 0, 62, 100
2, 42600, Note_on_c, 0, 62, 0
2, 42600, Note_on_c, 0, 50, 0
2, 42600, Note_on_c, 0, 64, 0
2, 42600, Note_on_c, 0, 57, 0
2, 42600, Note_on_c, 0, 57, 50
2, 42600, Note_on_c, 0, 61, 100
2, 42660, Note_on_c, 0, 61, 0
2, 42660, Note_on_c, 0, 57, 0
2, 42660, Note_on_c, 0, 56, 30
2, 42660, Note_on_c, 0, 59, 100
2, 42660, Note_on_c, 0, 64, 50
2, 42720, Note_on_c, 0, 64, 0
2, 42720, Note_on_c, 0, 59, 0
2, 42720, Note_on_c, 0, 56, 0
2, 42780, Note_on_c, 0, 56, 30
2, 42780, Note_on_c, 0, 59, 100
2, 42780, Note_on_c, 0, 64, 100
2, 42840, Note_on_c, 0, 64, 0
2, 42840, Note_on_c, 0, 59, 0
2, 42840, Note_on_c, 0, 56, 0
2, 42900, Note_on_c, 0, 52, 100
2, 42960, Note_on_c, 0, 61, 100
2, 43020, Note_on_c, 0, 61, 0
2, 43020, Note_on_c, 0, 59, 100
2, 43080, Note_on_c, 0, 56, 100
2, 43110, Note_on_c, 0, 59, 0
2, 43140, Note_on_c, 0, 52, 100
2, 43170, Note_on_c, 0, 56, 0
2, 43200, Note_on_c, 0, 52, 0
2, 43200, Note_on_c, 0, 52, 0
2, 43200, Note_on_c, 0, 50, 100
2, 43320, Note_on_c, 0, 64, 100
2, 43440, Note_on_c, 0, 64, 0
2, 43440, Note_on_c, 0, 64, 100
2, 43440, Note_on_c, 0, 57, 50
2, 43440, Note_on_c, 0, 62, 100
2, 43560, Note_on_c, 0, 62, 0
2, 43560, Note_on_c, 0, 50, 0
2, 43560, Note_on_c, 0, 64, 0
2, 43560, Note_on_c, 0, 57, 0
2, 43560, Note_on_c, 0, 57, 50
2, 43560, Note_on_c, 0, 61, 100
2, 43620, Note_on_c, 0, 61, 0
2, 43620, Note_on_c, 0, 57, 0
2, 43620, Note_on_c, 0, 56, 30
2, 43620, Note_on_c, 0, 59, 100
2, 43620, Note_on_c, 0, 64, 50
2, 43680, Note_on_c, 0, 64, 0
2, 43680, Note_on_c, 0, 59, 0
2, 43680, Note_on_c, 0, 56, 0
2, 43740, Note_on_c, 0, 56, 30
2, 43740, Note_on_c, 0, 59, 100
2, 43740, Note_on_c, 0, 64, 100
2, 43800, Note_on_c, 0, 64, 0
2, 43800, Note_on_c, 0, 59, 0
2, 43800, Note_on_c, 0, 56, 0
2, 43860, Note_on_c, 0, 52, 100
2, 43920, Note_on_c, 0, 61, 100
2, 43980, Note_on_c, 0, 61, 0
2, 43980, Note_on_c, 0, 59, 100
2, 44040, Note_on_c, 0, 56, 100
2, 44070, Note_on_c, 0, 59, 0
2, 44100, Note_on_c, 0, 52, 100
2, 44130, Note_on_c, 0, 56, 0
2, 44160, Note_on_c, 0, 52, 0
2, 44160, Note_on_c, 0, 52, 0
2, 44160, Note_on_c, 0, 50, 100
2, 44280, Note_on_c, 0, 64, 100
2, 44400, Note_on_c, 0, 64, 0
2, 44400, Note_on_c, 0, 64, 100
2, 44400, Note_on_c, 0, 57, 50
2, 44400, Note_on_c, 0, 62, 100
2, 44520, Note_on_c, 0, 62, 0
2, 44520, Note_on_c, 0, 50, 0
2, 44520, Note_on_c, 0, 64, 0
2, 44520, Note_on_c, 0, 57, 0
2, 44520, Note_on_c, 0, 57, 50
2, 44520, Note_on_c, 0, 61, 100
2, 44580, Note_on_c, 0, 61, 0
2, 44580, Note_on_c, 0, 57, 0
2, 44580, Note_on_c, 0, 56, 30
2, 44580, Note_on_c, 0, 59, 100
2, 44580, Note_on_c, 0, 64, 50
2, 44640, Note_on_c, 0, 64, 0
2, 44640, Note_on_c, 0, 59, 0
2, 44640, Note_on_c, 0, 56, 0
2, 44700, Note_on_c, 0, 56, 30
2, 44700, Note_on_c, 0, 59, 100
2, 44700, Note_on_c, 0, 64, 100
2, 44760, Note_on_c, 0, 64, 0
2, 44760, Note_on_c, 0, 59, 0
2, 44760, Note_on_c, 0, 56, 0
2, 44820, Note_on_c, 0, 52, 100
2, 44880, Note_on_c, 0, 61, 100
2, 44940, Note_on_c, 0, 61, 0
2, 44940, Note_on_c, 0, 59, 100
2, 45000, Note_on_c, 0, 56, 100
2, 45030, Note_on_c, 0, 59, 0
2, 45060, Note_on_c, 0, 52, 100
2, 45090, Note_on_c, 0, 56, 0
2, 45120, Note_on_c, 0, 52, 0
2, 45120, Note_on_c, 0, 52, 0
2, 45120, Note_on_c, 0, 50, 100
2, 45120, Note_on_c, 0, 57, 100
2, 45125, Note_on_c, 0, 62, 100
2, 45480, Note_on_c, 0, 57, 0
2, 45480, Note_on_c, 0, 50, 0
2, 45485, Note_on_c, 0, 62, 0
2, 45595, Note_on_c, 0, 40, 100
2, 45600, Note_on_c, 0, 47, 100
2, 45605, Note_on_c, 0, 52, 100
2, 45610, Note_on_c, 0, 59, 100
2, 45955, Note_on_c, 0, 40, 0
2, 45960, Note_on_c, 0, 47, 0
2, 45960, Pitch_bend_c, 0, 8320
2, 45960, Note_on_c, 0, 43, 100
2, 45965, Note_on_c, 0, 52, 0
2, 45966, Pitch_bend_c, 0, 8448
2, 45970, Note_on_c, 0, 59, 0
2, 45973, Pitch_bend_c, 0, 8576
2, 45980, Pitch_bend_c, 0, 8704
2, 45986, Pitch_bend_c, 0, 8832
2, 45993, Pitch_bend_c, 0, 8960
2, 46000, Pitch_bend_c, 0, 9088
2, 46006, Pitch_bend_c, 0, 9216
2, 46013, Pitch_bend_c, 0, 9344
2, 46020, Pitch_bend_c, 0, 9472
2, 46026, Pitch_bend_c, 0, 9600
2, 46033, Pitch_bend_c, 0, 9728
2, 46040, Pitch_bend_c, 0, 9856
2, 46046, Pitch_bend_c, 0, 9984
2, 46053, Pitch_bend_c, 0, 10112
2, 46060, Pitch_bend_c, 0, 10240
2, 46066, Pitch_bend_c, 0, 10368
2, 46073, Pitch_bend_c, 0, 10496
2, 46076, Pitch_bend_c, 0, 10624
2, 46080, Note_on_c, 0, 43, 0
2, 46080, Pitch_bend_c, 0, 8192
2, 46080, Note_on_c, 0, 50, 100
2, 46200, Note_on_c, 0, 64, 100
2, 46320, Note_on_c, 0, 64, 0
2, 46320, Note_on_c, 0, 64, 100
2, 46320, Note_on_c, 0, 57, 50
2, 46320, Note_on_c, 0, 62, 100
2, 46440, Note_on_c, 0, 62, 0
2, 46440, Note_on_c, 0, 50, 0
2, 46440, Note_on_c, 0, 64, 0
2, 46440, Note_on_c, 0, 57, 0
2, 46440, Note_on_c, 0, 57, 50
2, 46440, Note_on_c, 0, 61, 100
2, 46500, Note_on_c, 0, 61, 0
2, 46500, Note_on_c, 0, 57, 0
2, 46500, Note_on_c, 0, 56, 30
2, 46500, Note_on_c, 0, 59, 100
2, 46500, Note_on_c, 0, 64, 50
2, 46560, Note_on_c, 0, 64, 0
2, 46560, Note_on_c, 0, 59, 0
2, 46560, Note_on_c, 0, 56, 0
2, 46620, Note_on_c, 0, 56, 30
2, 46620, Note_on_c, 0, 59, 100
2, 46620, Note_on_c, 0, 64, 100
2, 46680, Note_on_c, 0, 64, 0
2, 46680, Note_on_c, 0, 59, 0
2, 46680, Note_on_c, 0, 56, 0
2, 46740, Note_on_c, 0, 52, 100
2, 46800, Note_on_c, 0, 61, 100
2, 46860, Note_on_c, 0, 61, 0
2, 46860, Note_on_c, 0, 59, 100
2, 46920, Note_on_c, 0, 56, 100
2, 46950, Note_on_c, 0, 59, 0
2, 46980, Note_on_c, 0, 52, 100
2, 47010, Note_on_c, 0, 56, 0
2, 47040, Note_on_c, 0, 52, 0
2, 47040, Note_on_c, 0, 52, 0
2, 47040, Note_on_c, 0, 50, 100
2, 47160, Note_on_c, 0, 64, 100
2, 47280, Note_on_c, 0, 64, 0
2, 47280, Note_on_c, 0, 64, 100
2, 47280, Note_on_c, 0, 57, 50
2, 47280, Note_on_c, 0, 62, 100
2, 47400, Note_on_c, 0, 62, 0
2, 47400, Note_on_c, 0, 50, 0
2, 47400, Note_on_c, 0, 64, 0
2, 47400, Note_on_c, 0, 57, 0
2, 47400, Note_on_c, 0, 57, 50
2, 47400, Note_on_c, 0, 61, 100
2, 47460, Note_on_c, 0, 61, 0
2, 47460, Note_on_c, 0, 57, 0
2, 47460, Note_on_c, 0, 56, 30
2, 47460, Note_on_c, 0, 59, 100
2, 47460, Note_on_c, 0, 64, 50
2, 47520, Note_on_c, 0, 64, 0
2, 47520, Note_on_c, 0, 59, 0
2, 47520, Note_on_c, 0, 56, 0
2, 47580, Note_on_c, 0, 56, 30
2, 47580, Note_on_c, 0, 59, 100
2, 47580, Note_on_c, 0, 64, 100
2, 47640, Note_on_c, 0, 64, 0
2, 47640, Note_on_c, 0, 59, 0
2, 47640, Note_on_c, 0, 56, 0
2, 47700, Note_on_c, 0, 52, 100
2, 47760, Note_on_c, 0, 61, 100
2, 47820, Note_on_c, 0, 61, 0
2, 47820, Note_on_c, 0, 59, 100
2, 47880, Note_on_c, 0, 56, 100
2, 47910, Note_on_c, 0, 59, 0
2, 47940, Note_on_c, 0, 52, 100
2, 47970, Note_on_c, 0, 56, 0
2, 48000, Note_on_c, 0, 52, 0
2, 48000, Note_on_c, 0, 52, 0
2, 48000, Note_on_c, 0, 50, 100
2, 48120, Note_on_c, 0, 64, 100
2, 48240, Note_on_c, 0, 64, 0
2, 48240, Note_on_c, 0, 64, 100
2, 48240, Note_on_c, 0, 57, 50
2, 48240, Note_on_c, 0, 62, 100
2, 48360, Note_on_c, 0, 62, 0
2, 48360, Note_on_c, 0, 50, 0
2, 48360, Note_on_c, 0, 64, 0
2, 48360, Note_on_c, 0, 57, 0
2, 48360, Note_on_c, 0, 57, 50
2, 48360, Note_on_c, 0, 61, 100
2, 48420, Note_on_c, 0, 61, 0
2, 48420, Note_on_c, 0, 57, 0
2, 48420, Note_on_c, 0, 56, 30
2, 48420, Note_on_c, 0, 59, 100
2, 48420, Note_on_c, 0, 64, 50
2, 48480, Note_on_c, 0, 64, 0
2, 48480, Note_on_c, 0, 59, 0
2, 48480, Note_on_c, 0, 56, 0
2, 48540, Note_on_c, 0, 56, 30
2, 48540, Note_on_c, 0, 59, 100
2, 48540, Note_on_c, 0, 64, 100
2, 48600, Note_on_c, 0, 64, 0
2, 48600, Note_on_c, 0, 59, 0
2, 48600, Note_on_c, 0, 56, 0
2, 48660, Note_on_c, 0, 52, 100
2, 48720, Note_on_c, 0, 61, 100
2, 48780, Note_on_c, 0, 61, 0
2, 48780, Note_on_c, 0, 59, 100
2, 48840, Note_on_c, 0, 56, 100
2, 48870, Note_on_c, 0, 59, 0
2, 48900, Note_on_c, 0, 52, 100
2, 48930, Note_on_c, 0, 56, 0
2, 48960, Note_on_c, 0, 52, 0
2, 48960, Note_on_c, 0, 52, 0
2, 48960, Note_on_c, 0, 50, 100
2, 49080, Note_on_c, 0, 64, 100
2, 49200, Note_on_c, 0, 64, 0
2, 49200, Note_on_c, 0, 64, 100
2, 49200, Note_on_c, 0, 57, 50
2, 49200, Note_on_c, 0, 62, 100
2, 49320, Note_on_c, 0, 62, 0
2, 49320, Note_on_c, 0, 50, 0
2, 49320, Note_on_c, 0, 64, 0
2, 49320, Note_on_c, 0, 57, 0
2, 49320, Note_on_c, 0, 57, 50
2, 49320, Note_on_c, 0, 61, 100
2, 49380, Note_on_c, 0, 61, 0
2, 49380, Note_on_c, 0, 57, 0
2, 49380, Note_on_c, 0, 56, 30
2, 49380, Note_on_c, 0, 59, 100
2, 49380, Note_on_c, 0, 64, 50
2, 49440, Note_on_c, 0, 64, 0
2, 49440, Note_on_c, 0, 59, 0
2, 49440, Note_on_c, 0, 56, 0
2, 49500, Note_on_c, 0, 56, 30
2, 49500, Note_on_c, 0, 59, 100
2, 49500, Note_on_c, 0, 64, 100
2, 49560, Note_on_c, 0, 64, 0
2, 49560, Note_on_c, 0, 59, 0
2, 49560, Note_on_c, 0, 56, 0
2, 49620, Note_on_c, 0, 52, 100
2, 49680, Note_on_c, 0, 61, 100
2, 49740, Note_on_c, 0, 61, 0
2, 49740, Note_on_c, 0, 59, 100
2, 49800, Note_on_c, 0, 56, 100
2, 49830, Note_on_c, 0, 59, 0
2, 49860, Note_on_c, 0, 52, 100
2, 49890, Note_on_c, 0, 56, 0
2, 49920, Note_on_c, 0, 52, 0
2, 49920, Note_on_c, 0, 52, 0
2, 49920, Note_on_c, 0, 50, 100
2, 50040, Note_on_c, 0, 64, 100
2, 50160, Note_on_c, 0, 64, 0
2, 50160, Note_on_c, 0, 64, 100
2, 50160, Note_on_c, 0, 57, 50
2, 50160, Note_on_c, 0, 62, 100
2, 50280, Note_on_c, 0, 62, 0
2, 50280, Note_on_c, 0, 50, 0
2, 50280, Note_on_c, 0, 64, 0
2, 50280, Note_on_c, 0, 57, 0
2, 50280, Note_on_c, 0, 57, 50
2, 50280, Note_on_c, 0, 61, 100
2, 50340, Note_on_c, 0, 61, 0
2, 50340, Note_on_c, 0, 57, 0
2, 50340, Note_on_c, 0, 56, 30
2, 50340, Note_on_c, 0, 59, 100
2, 50340, Note_on_c, 0, 64, 50
2, 50400, Note_on_c, 0, 64, 0
2, 50400, Note_on_c, 0, 59, 0
2, 50400, Note_on_c, 0, 56, 0
2, 50460, Note_on_c, 0, 56, 30
2, 50460, Note_on_c, 0, 59, 100
2, 50460, Note_on_c, 0, 64, 100
2, 50520, Note_on_c, 0, 64, 0
2, 50520, Note_on_c, 0, 59, 0
2, 50520, Note_on_c, 0, 56, 0
2, 50580, Note_on_c, 0, 52, 100
2, 50640, Note_on_c, 0, 61, 100
2, 50700, Note_on_c, 0, 61, 0
2, 50700, Note_on_c, 0, 59, 100
2, 50760, Note_on_c, 0, 56, 100
2, 50790, Note_on_c, 0, 59, 0
2, 50820, Note_on_c, 0, 52, 100
2, 50850, Note_on_c, 0, 56, 0
2, 50880, Note_on_c, 0, 52, 0
2, 50880, Note_on_c, 0, 52, 0
2, 50880, Note_on_c, 0, 50, 100
2, 51000, Note_on_c, 0, 64, 100
2, 51120, Note_on_c, 0, 64, 0
2, 51120, Note_on_c, 0, 64, 100
2, 51120, Note_on_c, 0, 57, 50
2, 51120, Note_on_c, 0, 62, 100
2, 51240, Note_on_c, 0, 62, 0
2, 51240, Note_on_c, 0, 50, 0
2, 51240, Note_on_c, 0, 64, 0
2, 51240, Note_on_c, 0, 57, 0
2, 51240, Note_on_c, 0, 57, 50
2, 51240, Note_on_c, 0, 61, 100
2, 51300, Note_on_c, 0, 61, 0
2, 51300, Note_on_c, 0, 57, 0
2, 51300, Note_on_c, 0, 56, 30
2, 51300, Note_on_c, 0, 59, 100
2, 51300, Note_on_c, 0, 64, 50
2, 51360, Note_on_c, 0, 64, 0
2, 51360, Note_on_c, 0, 59, 0
2, 51360, Note_on_c, 0, 56, 0
2, 51420, Note_on_c, 0, 56, 30
2, 51420, Note_on_c, 0, 59, 100
2, 51420, Note_on_c, 0, 64, 100
2, 51480, Note_on_c, 0, 64, 0
2, 51480, Note_on_c, 0, 59, 0
2, 51480, Note_on_c, 0, 56, 0
2, 51540, Note_on_c, 0, 52, 100
2, 51600, Note_on_c, 0, 61, 100
2, 51660, Note_on_c, 0, 61, 0
2, 51660, Note_on_c, 0, 59, 100
2, 51720, Note_on_c, 0, 56, 100
2, 51750, Note_on_c, 0, 59, 0
2, 51780, Note_on_c, 0, 52, 100
2, 51810, Note_on_c, 0, 56, 0
2, 51840, Note_on_c, 0, 52, 0
2, 51840, Note_on_c, 0, 52, 0
2, 51840, Note_on_c, 0, 50, 100
2, 51960, Note_on_c, 0, 64, 100
2, 52080, Note_on_c, 0, 64, 0
2, 52080, Note_on_c, 0, 64, 100
2, 52080, Note_on_c, 0, 57, 50
2, 52080, Note_on_c, 0, 62, 100
2, 52200, Note_on_c, 0, 62, 0
2, 52200, Note_on_c, 0, 50, 0
2, 52200, Note_on_c, 0, 64, 0
2, 52200, Note_on_c, 0, 57, 0
2, 52200, Note_on_c, 0, 57, 50
2, 52200, Note_on_c, 0, 61, 100
2, 52260, Note_on_c, 0, 61, 0
2, 52260, Note_on_c, 0, 57, 0
2, 52260, Note_on_c, 0, 56, 30
2, 52260, Note_on_c, 0, 59, 100
2, 52260, Note_on_c, 0, 64, 50
2, 52320, Note_on_c, 0, 64, 0
2, 52320, Note_on_c, 0, 59, 0
2, 52320, Note_on_c, 0, 56, 0
2, 52380, Note_on_c, 0, 56, 30
2, 52380, Note_on_c, 0, 59, 100
2, 52380, Note_on_c, 0, 64, 100
2, 52440, Note_on_c, 0, 64, 0
2, 52440, Note_on_c, 0, 59, 0
2, 52440, Note_on_c, 0, 56, 0
2, 52500, Note_on_c, 0, 52, 100
2, 52560, Note_on_c, 0, 61, 100
2, 52620, Note_on_c, 0, 61, 0
2, 52620, Note_on_c, 0, 59, 100
2, 52680, Note_on_c, 0, 56, 100
2, 52710, Note_on_c, 0, 59, 0
2, 52740, Note_on_c, 0, 52, 100
2, 52770, Note_on_c, 0, 56, 0
2, 52800, Note_on_c, 0, 52, 0
2, 52800, Note_on_c, 0, 52, 0
2, 52800, Note_on_c, 0, 50, 100
2, 52920, Note_on_c, 0, 64, 100
2, 53040, Note_on_c, 0, 64, 0
2, 53040, Note_on_c, 0, 64, 100
2, 53040, Note_on_c, 0, 57, 50
2, 53040, Note_on_c, 0, 62, 100
2, 53160, Note_on_c, 0, 62, 0
2, 53160, Note_on_c, 0, 50, 0
2, 53160, Note_on_c, 0, 64, 0
2, 53160, Note_on_c, 0, 57, 0
2, 53160, Note_on_c, 0, 57, 50
2, 53160, Note_on_c, 0, 61, 100
2, 53220, Note_on_c, 0, 61, 0
2, 53220, Note_on_c, 0, 57, 0
2, 53220, Note_on_c, 0, 56, 30
2, 53220, Note_on_c, 0, 59, 100
2, 53220, Note_on_c, 0, 64, 50
2, 53280, Note_on_c, 0, 64, 0
2, 53280, Note_on_c, 0, 59, 0
2, 53280, Note_on_c, 0, 56, 0
2, 53340, Note_on_c, 0, 56, 30
2, 53340, Note_on_c, 0, 59, 100
2, 53340, Note_on_c, 0, 64, 100
2, 53400, Note_on_c, 0, 64, 0
2, 53400, Note_on_c, 0, 59, 0
2, 53400, Note_on_c, 0, 56, 0
2, 53460, Note_on_c, 0, 52, 100
2, 53520, Note_on_c, 0, 61, 100
2, 53580, Note_on_c, 0, 61, 0
2, 53580, Note_on_c, 0, 59, 100
2, 53640, Note_on_c, 0, 56, 100
2, 53670, Note_on_c, 0, 59, 0
2, 53700, Note_on_c, 0, 52, 100
2, 53730, Note_on_c, 0, 56, 0
2, 53760, Note_on_c, 0, 52, 0
2, 53760, Note_on_c, 0, 52, 0
2, 53760, Note_on_c, 0, 50, 100
2, 53880, Note_on_c, 0, 64, 100
2, 54000, Note_on_c, 0, 64, 0
2, 54000, Note_on_c, 0, 64, 100
2, 54000, Note_on_c, 0, 57, 50
2, 54000, Note_on_c, 0, 62, 100
2, 54120, Note_on_c, 0, 62, 0
2, 54120, Note_on_c, 0, 50, 0
2, 54120, Note_on_c, 0, 64, 0
2, 54120, Note_on_c, 0, 57, 0
2, 54120, Note_on_c, 0, 57, 50
2, 54120, Note_on_c, 0, 61, 100
2, 54180, Note_on_c, 0, 61, 0
2, 54180, Note_on_c, 0, 57, 0
2, 54180, Note_on_c, 0, 56, 30
2, 54180, Note_on_c, 0, 59, 100
2, 54180, Note_on_c, 0, 64, 50
2, 54240, Note_on_c, 0, 64, 0
2, 54240, Note_on_c, 0, 59, 0
2, 54240, Note_on_c, 0, 56, 0
2, 54300, Note_on_c, 0, 56, 30
2, 54300, Note_on_c, 0, 59, 100
2, 54300, Note_on_c, 0, 64, 100
2, 54360, Note_on_c, 0, 64, 0
2, 54360, Note_on_c, 0, 59, 0
2, 54360, Note_on_c, 0, 56, 0
2, 54420, Note_on_c, 0, 52, 100
2, 54480, Note_on_c, 0, 61, 100
2, 54540, Note_on_c, 0, 61, 0
2, 54540, Note_on_c, 0, 59, 100
2, 54600, Note_on_c, 0, 56, 100
2, 54630, Note_on_c, 0, 59, 0
2, 54660, Note_on_c, 0, 52, 100
2, 54690, Note_on_c, 0, 56, 0
2, 54720, Note_on_c, 0, 52, 0
2, 54720, Note_on_c, 0, 52, 0
2, 54720, Note_on_c, 0, 50, 100
2, 54840, Note_on_c, 0, 64, 100
2, 54960, Note_on_c, 0, 64, 0
2, 54960, Note_on_c, 0, 64, 100
2, 54960, Note_on_c, 0, 57, 50
2, 54960, Note_on_c, 0, 62, 100
2, 55080, Note_on_c, 0, 62, 0
2, 55080, Note_on_c, 0, 50, 0
2, 55080, Note_on_c, 0, 64, 0
2, 55080, Note_on_c, 0, 57, 0
2, 55080, Note_on_c, 0, 57, 50
2, 55080, Note_on_c, 0, 61, 100
2, 55140, Note_on_c, 0, 61, 0
2, 55140, Note_on_c, 0, 57, 0
2, 55140, Note_on_c, 0, 56, 30
2, 55140, Note_on_c, 0, 59, 100
2, 55140, Note_on_c, 0, 64, 50
2, 55200, Note_on_c, 0, 64, 0
2, 55200, Note_on_c, 0, 59, 0
2, 55200, Note_on_c, 0, 56, 0
2, 55260, Note_on_c, 0, 56, 30
2, 55260, Note_on_c, 0, 59, 100
2, 55260, Note_on_c, 0, 64, 100
2, 55320, Note_on_c, 0, 64, 0
2, 55320, Note_on_c, 0, 59, 0
2, 55320, Note_on_c, 0, 56, 0
2, 55380, Note_on_c, 0, 52, 100
2, 55440, Note_on_c, 0, 61, 100
2, 55500, Note_on_c, 0, 61, 0
2, 55500, Note_on_c, 0, 59, 100
2, 55560, Note_on_c, 0, 56, 100
2, 55590, Note_on_c, 0, 59, 0
2, 55620, Note_on_c, 0, 52, 100
2, 55650, Note_on_c, 0, 56, 0
2, 55680, Note_on_c, 0, 52, 0
2, 55680, Note_on_c, 0, 52, 0
2, 55680, Note_on_c, 0, 50, 100
2, 55800, Note_on_c, 0, 64, 100
2, 55920, Note_on_c, 0, 64, 0
2, 55920, Note_on_c, 0, 64, 100
2, 55920, Note_on_c, 0, 57, 50
2, 55920, Note_on_c, 0, 62, 100
2, 56040, Note_on_c, 0, 62, 0
2, 56040, Note_on_c, 0, 50, 0
2, 56040, Note_on_c, 0, 64, 0
2, 56040, Note_on_c, 0, 57, 0
2, 56040, Note_on_c, 0, 57, 50
2, 56040, Note_on_c, 0, 61, 100
2, 56100, Note_on_c, 0, 61, 0
2, 56100, Note_on_c, 0, 57, 0
2, 56100, Note_on_c, 0, 56, 30
2, 56100, Note_on_c, 0, 59, 100
2, 56100, Note_on_c, 0, 64, 50
2, 56160, Note_on_c, 0, 64, 0
2, 56160, Note_on_c, 0, 59, 0
2, 56160, Note_on_c, 0, 56, 0
2, 56220, Note_on_c, 0, 56, 30
2, 56220, Note_on_c, 0, 59, 100
2, 56220, Note_on_c, 0, 64, 100
2, 56280, Note_on_c, 0, 64, 0
2, 56280, Note_on_c, 0, 59, 0
2, 56280, Note_on_c, 0, 56, 0
2, 56340, Note_on_c, 0, 52, 100
2, 56400, Note_on_c, 0, 61, 100
2, 56460, Note_on_c, 0, 61, 0
2, 56460, Note_on_c, 0, 59, 100
2, 56520, Note_on_c, 0, 56, 100
2, 56550, Note_on_c, 0, 59, 0
2, 56580, Note_on_c, 0, 52, 100
2, 56610, Note_on_c, 0, 56, 0
2, 56640, Note_on_c, 0, 52, 0
2, 56640, Note_on_c, 0, 52, 0
2, 56640, Note_on_c, 0, 50, 100
2, 56760, Note_on_c, 0, 64, 100
2, 56880, Note_on_c, 0, 64, 0
2, 56880, Note_on_c, 0, 64, 100
2, 56880, Note_on_c, 0, 57, 50
2, 56880, Note_on_c, 0, 62, 100
2, 57000, Note_on_c, 0, 62, 0
2, 57000, Note_on_c, 0, 50, 0
2, 57000, Note_on_c, 0, 64, 0
2, 57000, Note_on_c, 0, 57, 0
2, 57000, Note_on_c, 0, 57, 50
2, 57000, Note_on_c, 0, 61, 100
2, 57060, Note_on_c, 0, 61, 0
2, 57060, Note_on_c, 0, 57, 0
2, 57060, Note_on_c, 0, 56, 30
2, 57060, Note_on_c, 0, 59, 100
2, 57060, Note_on_c, 0, 64, 50
2, 57120, Note_on_c, 0, 64, 0
2, 57120, Note_on_c, 0, 59, 0
2, 57120, Note_on_c, 0, 56, 0
2, 57180, Note_on_c, 0, 56, 30
2, 57180, Note_on_c, 0, 59, 100
2, 57180, Note_on_c, 0, 64, 100
2, 57240, Note_on_c, 0, 64, 0
2, 57240, Note_on_c, 0, 59, 0
2, 57240, Note_on_c, 0, 56, 0
2, 57300, Note_on_c, 0, 52, 100
2, 57360, Note_on_c, 0, 61, 100
2, 57420, Note_on_c, 0, 61, 0
2, 57420, Note_on_c, 0, 59, 100
2, 57480, Note_on_c, 0, 56, 100
2, 57510, Note_on_c, 0, 59, 0
2, 57540, Note_on_c, 0, 52, 100
2, 57570, Note_on_c, 0, 56, 0
2, 57600, Note_on_c, 0, 52, 0
2, 57600, Note_on_c, 0, 52, 0
2, 57600, Note_on_c, 0, 50, 100
2, 57720, Note_on_c, 0, 64, 100
2, 57840, Note_on_c, 0, 64, 0
2, 57840, Note_on_c, 0, 64, 100
2, 57840, Note_on_c, 0, 57, 50
2, 57840, Note_on_c, 0, 62, 100
2, 57960, Note_on_c, 0, 62, 0
2, 57960, Note_on_c, 0, 50, 0
2, 57960, Note_on_c, 0, 64, 0
2, 57960, Note_on_c, 0, 57, 0
2, 57960, Note_on_c, 0, 57, 50
2, 57960, Note_on_c, 0, 61, 100
2, 58020, Note_on_c, 0, 61, 0
2, 58020, Note_on_c, 0, 57, 0
2, 58020, Note_on_c, 0, 56, 30
2, 58020, Note_on_c, 0, 59, 100
2, 58020, Note_on_c, 0, 64, 50
2, 58080, Note_on_c, 0, 64, 0
2, 58080, Note_on_c, 0, 59, 0
2, 58080, Note_on_c, 0, 56, 0
2, 58140, Note_on_c, 0, 56, 30
2, 58140, Note_on_c, 0, 59, 100
2, 58140, Note_on_c, 0, 64, 100
2, 58200, Note_on_c, 0, 64, 0
2, 58200, Note_on_c, 0, 59, 0
2, 58200, Note_on_c, 0, 56, 0
2, 58260, Note_on_c, 0, 52, 100
2, 58320, Note_on_c, 0, 61, 100
2, 58380, Note_on_c, 0, 61, 0
2, 58380, Note_on_c, 0, 59, 100
2, 58440, Note_on_c, 0, 56, 100
2, 58470, Note_on_c, 0, 59, 0
2, 58500, Note_on_c, 0, 52, 100
2, 58530, Note_on_c, 0, 56, 0
2, 58560, Note_on_c, 0, 52, 0
2, 58560, Note_on_c, 0, 52, 0
2, 58560, Note_on_c, 0, 50, 100
2, 58680, Note_on_c, 0, 64, 100
2, 58800, Note_on_c, 0, 64, 0
2, 58800, Note_on_c, 0, 64, 100
2, 58800, Note_on_c, 0, 57, 50
2, 58800, Note_on_c, 0, 62, 100
2, 58920, Note_on_c, 0, 62, 0
2, 58920, Note_on_c, 0, 50, 0
2, 58920, Note_on_c, 0, 64, 0
2, 58920, Note_on_c, 0, 57, 0
2, 58920, Note_on_c, 0, 57, 50
2, 58920, Note_on_c, 0, 61, 100
2, 58980, Note_on_c, 0, 61, 0
2, 58980, Note_on_c, 0, 57, 0
2, 58980, Note_on_c, 0, 56, 30
2, 58980, Note_on_c, 0, 59, 100
2, 58980, Note_on_c, 0, 64, 50
2, 59040, Note_on_c, 0, 64, 0
2, 59040, Note_on_c, 0, 59, 0
2, 59040, Note_on_c, 0, 56, 0
2, 59100, Note_on_c, 0, 56, 30
2, 59100, Note_on_c, 0, 59, 100
2, 59100, Note_on_c, 0, 64, 100
2, 59160, Note_on_c, 0, 64, 0
2, 59160, Note_on_c, 0, 59, 0
2, 59160, Note_on_c, 0, 56, 0
2, 59220, Note_on_c, 0, 52, 100
2, 59280, Note_on_c, 0, 61, 100
2, 59340, Note_on_c, 0, 61, 0
2, 59340, Note_on_c, 0, 59, 100
2, 59400, Note_on_c, 0, 56, 100
2, 59430, Note_on_c, 0, 59, 0
2, 59460, Note_on_c, 0, 52, 100
2, 59490, Note_on_c, 0, 56, 0
2, 59520, Note_on_c, 0, 52, 0
2, 59520, Note_on_c, 0, 52, 0
2, 59520, Note_on_c, 0, 50, 100
2, 59640, Note_on_c, 0, 64, 100
2, 59760, Note_on_c, 0, 64, 0
2, 59760, Note_on_c, 0, 64, 100
2, 59760, Note_on_c, 0, 57, 50
2, 59760, Note_on_c, 0, 62, 100
2, 59880, Note_on_c, 0, 62, 0
2, 59880, Note_on_c, 0, 50, 0
2, 59880, Note_on_c, 0, 64, 0
2, 59880, Note_on_c, 0, 57, 0
2, 59880, Note_on_c, 0, 57, 50
2, 59880, Note_on_c, 0, 61, 100
2, 59940, Note_on_c, 0, 61, 0
2, 59940, Note_on_c, 0, 57, 0
2, 59940, Note_on_c, 0, 56, 30
2, 59940, Note_on_c, 0, 59, 100
2, 59940, Note_on_c, 0, 64, 50
2, 60000, Note_on_c, 0, 64, 0
2, 60000, Note_on_c, 0, 59, 0
2, 60000, Note_on_c, 0, 56, 0
2, 60060, Note_on_c, 0, 56, 30
2, 60060, Note_on_c, 0, 59, 100
2, 60060, Note_on_c, 0, 64, 100
2, 60120, Note_on_c, 0, 64, 0
2, 60120, Note_on_c, 0, 59, 0
2, 60120, Note_on_c, 0, 56, 0
2, 60180, Note_on_c, 0, 52, 100
2, 60240, Note_on_c, 0, 61, 100
2, 60300, Note_on_c, 0, 61, 0
2, 60300, Note_on_c, 0, 59, 100
2, 60360, Note_on_c, 0, 56, 100
2, 60390, Note_on_c, 0, 59, 0
2, 60420, Note_on_c, 0, 52, 100
2, 60450, Note_on_c, 0, 56, 0
2, 60480, Note_on_c, 0, 52, 0
2, 60480, Note_on_c, 0, 52, 0
2, 60480, Note_on_c, 0, 50, 100
2, 60600, Note_on_c, 0, 64, 100
2, 60720, Note_on_c, 0, 64, 0
2, 60720, Note_on_c, 0, 64, 100
2, 60720, Note_on_c, 0, 57, 50
2, 60720, Note_on_c, 0, 62, 100
2, 60840, Note_on_c, 0, 62, 0
2, 60840, Note_on_c, 0, 50, 0
2, 60840, Note_on_c, 0, 64, 0
2, 60840, Note_on_c, 0, 57, 0
2, 60840, Note_on_c, 0, 57, 50
2, 60840, Note_on_c, 0, 61, 100
2, 60900, Note_on_c, 0, 61, 0
2, 60900, Note_on_c, 0, 57, 0
2, 60900, Note_on_c, 0, 56, 30
2, 60900, Note_on_c, 0, 59, 100
2, 60900, Note_on_c, 0, 64, 50
2, 60960, Note_on_c, 0, 64, 0
2, 60960, Note_on_c, 0, 59, 0
2, 60960, Note_on_c, 0, 56, 0
2, 61020, Note_on_c, 0, 56, 30
2, 61020, Note_on_c, 0, 59, 100
2, 61020, Note_on_c, 0, 64, 100
2, 61080, Note_on_c, 0, 64, 0
2, 61080, Note_on_c, 0, 59, 0
2, 61080, Note_on_c, 0, 56, 0
2, 61140, Note_on_c, 0, 52, 100
2, 61200, Note_on_c, 0, 61, 100
2, 61260, Note_on_c, 0, 61, 0
2, 61260, Note_on_c, 0, 59, 100
2, 61320, Note_on_c, 0, 56, 100
2, 61350, Note_on_c, 0, 59, 0
2, 61380, Note_on_c, 0, 52, 100
2, 61410, Note_on_c, 0, 56, 0
2, 61440, Note_on_c, 0, 52, 0
2, 61440, Note_on_c, 0, 52, 0
2, 61440, Note_on_c, 0, 50, 100
2, 61560, Note_on_c, 0, 64, 100
2, 61680, Note_on_c, 0, 64, 0
2, 61680, Note_on_c, 0, 64, 100
2, 61680, Note_on_c, 0, 57, 50
2, 61680, Note_on_c, 0, 62, 100
2, 61800, Note_on_c, 0, 62, 0
2, 61800, Note_on_c, 0, 50, 0
2, 61800, Note_on_c, 0, 64, 0
2, 61800, Note_on_c, 0, 57, 0
2, 61800, Note_on_c, 0, 57, 50
2, 61800, Note_on_c, 0, 61, 100
2, 61860, Note_on_c, 0, 61, 0
2, 61860, Note_on_c, 0, 57, 0
2, 61860, Note_on_c, 0, 56, 30
2, 61860, Note_on_c, 0, 59, 100
2, 61860, Note_on_c, 0, 64, 50
2, 61920, Note_on_c, 0, 64, 0
2, 61920, Note_on_c, 0, 59, 0
2, 61920, Note_on_c, 0, 56, 0
2, 61980, Note_on_c, 0, 56, 30
2, 61980, Note_on_c, 0, 59, 100
2, 61980, Note_on_c, 0, 64, 100
2, 62040, Note_on_c, 0, 64, 0
2, 62040, Note_on_c, 0, 59, 0
2, 62040, Note_on_c, 0, 56, 0
2, 62100, Note_on_c, 0, 52, 100
2, 62160, Note_on_c, 0, 61, 100
2, 62220, Note_on_c, 0, 61, 0
2, 62220, Note_on_c, 0, 59, 100
2, 62280, Note_on_c, 0, 56, 100
2, 62310, Note_on_c, 0, 59, 0
2, 62340, Note_on_c, 0, 52, 100
2, 62370, Note_on_c, 0, 56, 0
2, 62400, Note_on_c, 0, 52, 0
2, 62400, Note_on_c, 0, 52, 0
2, 62400, Note_on_c, 0, 50, 100
2, 62520, Note_on_c, 0, 64, 100
2, 62640, Note_on_c, 0, 64, 0
2, 62640, Note_on_c, 0, 64, 100
2, 62640, Note_on_c, 0, 57, 50
2, 62640, Note_on_c, 0, 62, 100
2, 62760, Note_on_c, 0, 62, 0
2, 62760, Note_on_c, 0, 50, 0
2, 62760, Note_on_c, 0, 64, 0
2, 62760, Note_on_c, 0, 57, 0
2, 62760, Note_on_c, 0, 57, 50
2, 62760, Note_on_c, 0, 61, 100
2, 62820, Note_on_c, 0, 61, 0
2, 62820, Note_on_c, 0, 57, 0
2, 62820, Note_on_c, 0, 56, 30
2, 62820, Note_on_c, 0, 59, 100
2, 62820, Note_on_c, 0, 64, 50
2, 62880, Note_on_c, 0, 64, 0
2, 62880, Note_on_c, 0, 59, 0
2, 62880, Note_on_c, 0, 56, 0
2, 62940, Note_on_c, 0, 56, 30
2, 62940, Note_on_c, 0, 59, 100
2, 62940, Note_on_c, 0, 64, 100
2, 63000, Note_on_c, 0, 64, 0
2, 63000, Note_on_c, 0, 59, 0
2, 63000, Note_on_c, 0, 56, 0
2, 63060, Note_on_c, 0, 52, 100
2, 63120, Note_on_c, 0, 61, 100
2, 63180, Note_on_c, 0, 61, 0
2, 63180, Note_on_c, 0, 59, 100
2, 63240, Note_on_c, 0, 56, 100
2, 63270, Note_on_c, 0, 59, 0
2, 63300, Note_on_c, 0, 52, 100
2, 63330, Note_on_c, 0, 56, 0
2, 63360, Note_on_c, 0, 52, 0
2, 63360, Note_on_c, 0, 52, 0
2, 63360, Note_on_c, 0, 62, 100
2, 63360, Note_on_c, 0, 57, 100
2, 63360, Note_on_c, 0, 50, 100
2, 63840, Note_on_c, 0, 50, 0
2, 63840, Note_on_c, 0, 57, 0
2, 63840, Note_on_c, 0, 62, 0
2, 63840, End_track
3, 0, Start_track
3, 0, MIDI_port, 0
3, 0, Program_c, 1, 0
3, 0, Control_c, 1, 10, 127
3, 4, Note_on_c, 1, 50, 100
3, 124, Note_on_c, 1, 64, 100
3, 244, Note_on_c, 1, 64, 0
3, 244, Note_on_c, 1, 64, 100
3, 244, Note_on_c, 1, 57, 50
3, 244, Note_on_c, 1, 62, 100
3, 364, Note_on_c, 1, 62, 0
3, 364, Note_on_c, 1, 50, 0
3, 364, Note_on_c, 1, 64, 0
3, 364, Note_on_c, 1, 57, 0
3, 364, Note_on_c, 1, 57, 50
3, 364, Note_on_c, 1, 61, 100
3, 424, Note_on_c, 1, 61, 0
3, 424, Note_on_c, 1, 57, 0
3, 424, Note_on_c, 1, 56, 30
3, 424, Note_on_c, 1, 59, 100
3, 424, Note_on_c, 1, 64, 50
3, 484, Note_on_c, 1, 64, 0
3, 484, Note_on_c, 1, 59, 0
3, 484, Note_on_c, 1, 56, 0
3, 544, Note_on_c, 1, 56, 30
3, 544, Note_on_c, 1, 59, 100
3, 544, Note_on_c, 1, 64, 100
3, 604, Note_on_c, 1, 64, 0
3, 604, Note_on_c, 1, 59, 0
3, 604, Note_on_c, 1, 56, 0
3, 664, Note_on_c, 1, 52, 100
3, 724, Note_on_c, 1, 61, 100
3, 784, Note_on_c, 1, 61, 0
3, 784, Note_on_c, 1, 59, 100
3, 844, Note_on_c, 1, 56, 100
3, 874, Note_on_c, 1, 59, 0
3, 904, Note_on_c, 1, 52, 100
3, 934, Note_on_c, 1, 56, 0
3, 964, Note_on_c, 1, 52, 0
3, 964, Note_on_c, 1, 52, 0
3, 964, Note_on_c, 1, 50, 100
3, 1084, Note_on_c, 1, 64, 100
3, 1204, Note_on_c, 1, 64, 0
3, 1204, Note_on_c, 1, 64, 100
3, 1204, Note_on_c, 1, 57, 50
3, 1204, Note_on_c, 1, 62, 100
3, 1324, Note_on_c, 1, 62, 0
3, 1324, Note_on_c, 1, 50, 0
3, 1324, Note_on_c, 1, 64, 0
3, 1324, Note_on_c, 1, 57, 0
3, 1324, Note_on_c, 1, 57, 50
3, 1324, Note_on_c, 1, 61, 100
3, 1384, Note_on_c, 1, 61, 0
3, 1384, Note_on_c, 1, 57, 0
3, 1384, Note_on_c, 1, 56, 30
3, 1384, Note_on_c, 1, 59, 100
3, 1384, Note_on_c, 1, 64, 50
3, 1444, Note_on_c, 1, 64, 0
3, 1444, Note_on_c, 1, 59, 0
3, 1444, Note_on_c, 1, 56, 0
3, 1504, Note_on_c, 1, 56, 30
3, 1504, Note_on_c, 1, 59, 100
3, 1504, Note_on_c, 1, 64, 100
3, 1564, Note_on_c, 1, 64, 0
3, 1564, Note_on_c, 1, 59, 0
3, 1564, Note_on_c, 1, 56, 0
3, 1624, Note_on_c, 1, 52, 100
3, 1684, Note_on_c, 1, 61, 100
3, 1744, Note_on_c, 1, 61, 0
3, 1744, Note_on_c, 1, 59, 100
3, 1804, Note_on_c, 1, 56, 100
3, 1834, Note_on_c, 1, 59, 0
3, 1864, Note_on_c, 1, 52, 100
3, 1894, Note_on_c, 1, 56, 0
3, 1924, Note_on_c, 1, 52, 0
3, 1924, Note_on_c, 1, 52, 0
3, 1924, Note_on_c, 1, 50, 100
3, 2044, Note_on_c, 1, 64, 100
3, 2164, Note_on_c, 1, 64, 0
3, 2164, Note_on_c, 1, 64, 100
3, 2164, Note_on_c, 1, 57, 50
3, 2164, Note_on_c, 1, 62, 100
3, 2284, Note_on_c, 1, 62, 0
3, 2284, Note_on_c, 1, 50, 0
3, 2284, Note_on_c, 1, 64, 0
3, 2284, Note_on_c, 1, 57, 0
3, 2284, Note_on_c, 1, 57, 50
3, 2284, Note_on_c, 1, 61, 100
3, 2344, Note_on_c, 1, 61, 0
3, 2344, Note_on_c, 1, 57, 0
3, 2344, Note_on_c, 1, 56, 30
3, 2344, Note_on_c, 1, 59, 100
3, 2344, Note_on_c, 1, 64, 50
3, 2404, Note_on_c, 1, 64, 0
3, 2404, Note_on_c, 1, 59, 0
3, 2404, Note_on_c, 1, 56, 0
3, 2464, Note_on_c, 1, 56, 30
3, 2464, Note_on_c, 1, 59, 100
3, 2464, Note_on_c, 1, 64, 100
3, 2524, Note_on_c, 1, 64, 0
3, 2524, Note_on_c, 1, 59, 0
3, 2524, Note_on_c, 1, 56, 0
3, 2584, Note_on_c, 1, 52, 100
3, 2644, Note_on_c, 1, 61, 100
3, 2704, Note_on_c, 1, 61, 0
3, 2704, Note_on_c, 1, 59, 100
3, 2764, Note_on_c, 1, 56, 100
3, 2794, Note_on_c, 1, 59, 0
3, 2824, Note_on_c, 1, 52, 100
3, 2854, Note_on_c, 1, 56, 0
3, 2884, Note_on_c, 1, 52, 0
3, 2884, Note_on_c, 1, 52, 0
3, 2884, Note_on_c, 1, 50, 100
3, 3004, Note_on_c, 1, 64, 100
3, 3124, Note_on_c, 1, 64, 0
3, 3124, Note_on_c, 1, 64, 100
3, 3124, Note_on_c, 1, 57, 50
3, 3124, Note_on_c, 1, 62, 100
3, 3244, Note_on_c, 1, 62, 0
3, 3244, Note_on_c, 1, 50, 0
3, 3244, Note_on_c, 1, 64, 0
3, 3244, Note_on_c, 1, 57, 0
3, 3244, Note_on_c, 1, 57, 50
3, 3244, Note_on_c, 1, 61, 100
3, 3304, Note_on_c, 1, 61, 0
3, 3304, Note_on_c, 1, 57, 0
3, 3304, Note_on_c, 1, 56, 30
3, 3304, Note_on_c, 1, 59, 100
3, 3304, Note_on_c, 1, 64, 50
3, 3364, Note_on_c, 1, 64, 0
3, 3364, Note_on_c, 1, 59, 0
3, 3364, Note_on_c, 1, 56, 0
3, 3424, Note_on_c, 1, 56, 30
3, 3424, Note_on_c, 1, 59, 100
3, 3424, Note_on_c, 1, 64, 100
3, 3484, Note_on_c, 1, 64, 0
3, 3484, Note_on_c, 1, 59, 0
3, 3484, Note_on_c, 1, 56, 0
3, 3544, Note_on_c, 1, 52, 100
3, 3604, Note_on_c, 1, 61, 100
3, 3664, Note_on_c, 1, 61, 0
3, 3664, Note_on_c, 1, 59, 100
3, 3724, Note_on_c, 1, 56, 100
3, 3754, Note_on_c, 1, 59, 0
3, 3784, Note_on_c, 1, 52, 100
3, 3814, Note_on_c, 1, 56, 0
3, 3844, Note_on_c, 1, 52, 0
3, 3844, Note_on_c, 1, 52, 0
3, 3844, Note_on_c, 1, 50, 100
3, 3964, Note_on_c, 1, 64, 100
3, 4084, Note_on_c, 1, 64, 0
3, 4084, Note_on_c, 1, 64, 100
3, 4084, Note_on_c, 1, 57, 50
3, 4084, Note_on_c, 1, 62, 100
3, 4204, Note_on_c, 1, 62, 0
3, 4204, Note_on_c, 1, 50, 0
3, 4204, Note_on_c, 1, 64, 0
3, 4204, Note_on_c, 1, 57, 0
3, 4204, Note_on_c, 1, 57, 50
3, 4204, Note_on_c, 1, 61, 100
3, 4264, Note_on_c, 1, 61, 0
3, 4264, Note_on_c, 1, 57, 0
3, 4264, Note_on_c, 1, 56, 30
3, 4264, Note_on_c, 1, 59, 100
3, 4264, Note_on_c, 1, 64, 50
3, 4324, Note_on_c, 1, 64, 0
3, 4324, Note_on_c, 1, 59, 0
3, 4324, Note_on_c, 1, 56, 0
3, 4384, Note_on_c, 1, 56, 30
3, 4384, Note_on_c, 1, 59, 100
3, 4384, Note_on_c, 1, 64, 100
3, 4444, Note_on_c, 1, 64, 0
3, 4444, Note_on_c, 1, 59, 0
3, 4444, Note_on_c, 1, 56, 0
3, 4504, Note_on_c, 1, 52, 100
3, 4564, Note_on_c, 1, 61, 100
3, 4624, Note_on_c, 1, 61, 0
3, 4624, Note_on_c, 1, 59, 100
3, 4684, Note_on_c, 1, 56, 100
3, 4714, Note_on_c, 1, 59, 0
3, 4744, Note_on_c, 1, 52, 100
3, 4774, Note_on_c, 1, 56, 0
3, 4804, Note_on_c, 1, 52, 0
3, 4804, Note_on_c, 1, 52, 0
3, 4804, Note_on_c, 1, 50, 100
3, 4924, Note_on_c, 1, 64, 100
3, 5044, Note_on_c, 1, 64, 0
3, 5044, Note_on_c, 1, 64, 100
3, 5044, Note_on_c, 1, 57, 50
3, 5044, Note_on_c, 1, 62, 100
3, 5164, Note_on_c, 1, 62, 0
3, 5164, Note_on_c, 1, 50, 0
3, 5164, Note_on_c, 1, 64, 0
3, 5164, Note_on_c, 1, 57, 0
3, 5164, Note_on_c, 1, 57, 50
3, 5164, Note_on_c, 1, 61, 100
3, 5224, Note_on_c, 1, 61, 0
3, 5224, Note_on_c, 1, 57, 0
3, 5224, Note_on_c, 1, 56, 30
3, 5224, Note_on_c, 1, 59, 100
3, 5224, Note_on_c, 1, 64, 50
3, 5284, Note_on_c, 1, 64, 0
3, 5284, Note_on_c, 1, 59, 0
3, 5284, Note_on_c, 1, 56, 0
3, 5344, Note_on_c, 1, 56, 30
3, 5344, Note_on_c, 1, 59, 100
3, 5344, Note_on_c, 1, 64, 100
3, 5404, Note_on_c, 1, 64, 0
3, 5404, Note_on_c, 1, 59, 0
3, 5404, Note_on_c, 1, 56, 0
3, 5464, Note_on_c, 1, 52, 100
3, 5524, Note_on_c, 1, 61, 100
3, 5584, Note_on_c, 1, 61, 0
3, 5584, Note_on_c, 1, 59, 100
3, 5644, Note_on_c, 1, 56, 100
3, 5674, Note_on_c, 1, 59, 0
3, 5704, Note_on_c, 1, 52, 100
3, 5734, Note_on_c, 1, 56, 0
3, 5764, Note_on_c, 1, 52, 0
3, 5764, Note_on_c, 1, 52, 0
3, 5764, Note_on_c, 1, 50, 100
3, 5884, Note_on_c, 1, 64, 100
3, 6004, Note_on_c, 1, 64, 0
3, 6004, Note_on_c, 1, 64, 100
3, 6004, Note_on_c, 1, 57, 50
3, 6004, Note_on_c, 1, 62, 100
3, 6124, Note_on_c, 1, 62, 0
3, 6124, Note_on_c, 1, 50, 0
3, 6124, Note_on_c, 1, 64, 0
3, 6124, Note_on_c, 1, 57, 0
3, 6124, Note_on_c, 1, 57, 50
3, 6124, Note_on_c, 1, 61, 100
3, 6184, Note_on_c, 1, 61, 0
3, 6184, Note_on_c, 1, 57, 0
3, 6184, Note_on_c, 1, 56, 30
3, 6184, Note_on_c, 1, 59, 100
3, 6184, Note_on_c, 1, 64, 50
3, 6244, Note_on_c, 1, 64, 0
3, 6244, Note_on_c, 1, 59, 0
3, 6244, Note_on_c, 1, 56, 0
3, 6304, Note_on_c, 1, 56, 30
3, 6304, Note_on_c, 1, 59, 100
3, 6304, Note_on_c, 1, 64, 100
3, 6364, Note_on_c, 1, 64, 0
3, 6364, Note_on_c, 1, 59, 0
3, 6364, Note_on_c, 1, 56, 0
3, 6424, Note_on_c, 1, 52, 100
3, 6484, Note_on_c, 1, 61, 100
3, 6544, Note_on_c, 1, 61, 0
3, 6544, Note_on_c, 1, 59, 100
3, 6604, Note_on_c, 1, 56, 100
3, 6634, Note_on_c, 1, 59, 0
3, 6664, Note_on_c, 1, 52, 100
3, 6694, Note_on_c, 1, 56, 0
3, 6724, Note_on_c, 1, 52, 0
3, 6724, Note_on_c, 1, 52, 0
3, 6724, Note_on_c, 1, 50, 100
3, 6844, Note_on_c, 1, 64, 100
3, 6964, Note_on_c, 1, 64, 0
3, 6964, Note_on_c, 1, 64, 100
3, 6964, Note_on_c, 1, 57, 50
3, 6964, Note_on_c, 1, 62, 100
3, 7084, Note_on_c, 1, 62, 0
3, 7084, Note_on_c, 1, 50, 0
3, 7084, Note_on_c, 1, 64, 0
3, 7084, Note_on_c, 1, 57, 0
3, 7084, Note_on_c, 1, 57, 50
3, 7084, Note_on_c, 1, 61, 100
3, 7144, Note_on_c, 1, 61, 0
3, 7144, Note_on_c, 1, 57, 0
3, 7144, Note_on_c, 1, 56, 30
3, 7144, Note_on_c, 1, 59, 100
3, 7144, Note_on_c, 1, 64, 50
3, 7204, Note_on_c, 1, 64, 0
3, 7204, Note_on_c, 1, 59, 0
3, 7204, Note_on_c, 1, 56, 0
3, 7264, Note_on_c, 1, 56, 30
3, 7264, Note_on_c, 1, 59, 100
3, 7264, Note_on_c, 1, 64, 100
3, 7324, Note_on_c, 1, 64, 0
3, 7324, Note_on_c, 1, 59, 0
3, 7324, Note_on_c, 1, 56, 0
3, 7384, Note_on_c, 1, 52, 100
3, 7444, Note_on_c, 1, 61, 100
3, 7504, Note_on_c, 1, 61, 0
3, 7504, Note_on_c, 1, 59, 100
3, 7564, Note_on_c, 1, 56, 100
3, 7594, Note_on_c, 1, 59, 0
3, 7624, Note_on_c, 1, 52, 100
3, 7654, Note_on_c, 1, 56, 0
3, 7684, Note_on_c, 1, 52, 0
3, 7684, Note_on_c, 1, 52, 0
3, 7684, Note_on_c, 1, 50, 100
3, 7804, Note_on_c, 1, 64, 100
3, 7924, Note_on_c, 1, 64, 0
3, 7924, Note_on_c, 1, 64, 100
3, 7924, Note_on_c, 1, 57, 50
3, 7924, Note_on_c, 1, 62, 100
3, 8044, Note_on_c, 1, 62, 0
3, 8044, Note_on_c, 1, 50, 0
3, 8044, Note_on_c, 1, 64, 0
3, 8044, Note_on_c, 1, 57, 0
3, 8044, Note_on_c, 1, 57, 50
3, 8044, Note_on_c, 1, 61, 100
3, 8104, Note_on_c, 1, 61, 0
3, 8104, Note_on_c, 1, 57, 0
3, 8104, Note_on_c, 1, 56, 30
3, 8104, Note_on_c, 1, 59, 100
3, 8104, Note_on_c, 1, 64, 50
3, 8164, Note_on_c, 1, 64, 0
3, 8164, Note_on_c, 1, 59, 0
3, 8164, Note_on_c, 1, 56, 0
3, 8224, Note_on_c, 1, 56, 30
3, 8224, Note_on_c, 1, 59, 100
3, 8224, Note_on_c, 1, 64, 100
3, 8284, Note_on_c, 1, 64, 0
3, 8284, Note_on_c, 1, 59, 0
3, 8284, Note_on_c, 1, 56, 0
3, 8344, Note_on_c, 1, 52, 100
3, 8404, Note_on_c, 1, 61, 100
3, 8464, Note_on_c, 1, 61, 0
3, 8464, Note_on_c, 1, 59, 100
3, 8524, Note_on_c, 1, 56, 100
3, 8554, Note_on_c, 1, 59, 0
3, 8584, Note_on_c, 1, 52, 100
3, 8614, Note_on_c, 1, 56, 0
3, 8644, Note_on_c, 1, 52, 0
3, 8644, Note_on_c, 1, 52, 0
3, 8644, Note_on_c, 1, 50, 100
3, 8764, Note_on_c, 1, 64, 100
3, 8884, Note_on_c, 1, 64, 0
3, 8884, Note_on_c, 1, 64, 100
3, 8884, Note_on_c, 1, 57, 50
3, 8884, Note_on_c, 1, 62, 100
3, 9004, Note_on_c, 1, 62, 0
3, 9004, Note_on_c, 1, 50, 0
3, 9004, Note_on_c, 1, 64, 0
3, 9004, Note_on_c, 1, 57, 0
3, 9004, Note_on_c, 1, 57, 50
3, 9004, Note_on_c, 1, 61, 100
3, 9064, Note_on_c, 1, 61, 0
3, 9064, Note_on_c, 1, 57, 0
3, 9064, Note_on_c, 1, 56, 30
3, 9064, Note_on_c, 1, 59, 100
3, 9064, Note_on_c, 1, 64, 50
3, 9124, Note_on_c, 1, 64, 0
3, 9124, Note_on_c, 1, 59, 0
3, 9124, Note_on_c, 1, 56, 0
3, 9184, Note_on_c, 1, 56, 30
3, 9184, Note_on_c, 1, 59, 100
3, 9184, Note_on_c, 1, 64, 100
3, 9244, Note_on_c, 1, 64, 0
3, 9244, Note_on_c, 1, 59, 0
3, 9244, Note_on_c, 1, 56, 0
3, 9304, Note_on_c, 1, 52, 100
3, 9364, Note_on_c, 1, 61, 100
3, 9424, Note_on_c, 1, 61, 0
3, 9424, Note_on_c, 1, 59, 100
3, 9484, Note_on_c, 1, 56, 100
3, 9514, Note_on_c, 1, 59, 0
3, 9544, Note_on_c, 1, 52, 100
3, 9574, Note_on_c, 1, 56, 0
3, 9604, Note_on_c, 1, 52, 0
3, 9604, Note_on_c, 1, 52, 0
3, 9604, Note_on_c, 1, 50, 100
3, 9724, Note_on_c, 1, 64, 100
3, 9844, Note_on_c, 1, 64, 0
3, 9844, Note_on_c, 1, 64, 100
3, 9844, Note_on_c, 1, 57, 50
3, 9844, Note_on_c, 1, 62, 100
3, 9964, Note_on_c, 1, 62, 0
3, 9964, Note_on_c, 1, 50, 0
3, 9964, Note_on_c, 1, 64, 0
3, 9964, Note_on_c, 1, 57, 0
3, 9964, Note_on_c, 1, 57, 50
3, 9964, Note_on_c, 1, 61, 100
3, 10024, Note_on_c, 1, 61, 0
3, 10024, Note_on_c, 1, 57, 0
3, 10024, Note_on_c, 1, 56, 30
3, 10024, Note_on_c, 1, 59, 100
3, 10024, Note_on_c, 1, 64, 50
3, 10084, Note_on_c, 1, 64, 0
3, 10084, Note_on_c, 1, 59, 0
3, 10084, Note_on_c, 1, 56, 0
3, 10144, Note_on_c, 1, 56, 30
3, 10144, Note_on_c, 1, 59, 100
3, 10144, Note_on_c, 1, 64, 100
3, 10204, Note_on_c, 1, 64, 0
3, 10204, Note_on_c, 1, 59, 0
3, 10204, Note_on_c, 1, 56, 0
3, 10264, Note_on_c, 1, 52, 100
3, 10324, Note_on_c, 1, 61, 100
3, 10384, Note_on_c, 1, 61, 0
3, 10384, Note_on_c, 1, 59, 100
3, 10444, Note_on_c, 1, 56, 100
3, 10474, Note_on_c, 1, 59, 0
3, 10504, Note_on_c, 1, 52, 100
3, 10534, Note_on_c, 1, 56, 0
3, 10564, Note_on_c, 1, 52, 0
3, 10564, Note_on_c, 1, 52, 0
3, 10564, Note_on_c, 1, 50, 100
3, 10684, Note_on_c, 1, 64, 100
3, 10804, Note_on_c, 1, 64, 0
3, 10804, Note_on_c, 1, 64, 100
3, 10804, Note_on_c, 1, 57, 50
3, 10804, Note_on_c, 1, 62, 100
3, 10924, Note_on_c, 1, 62, 0
3, 10924, Note_on_c, 1, 50, 0
3, 10924, Note_on_c, 1, 64, 0
3, 10924, Note_on_c, 1, 57, 0
3, 10924, Note_on_c, 1, 57, 50
3, 10924, Note_on_c, 1, 61, 100
3, 10984, Note_on_c, 1, 61, 0
3, 10984, Note_on_c, 1, 57, 0
3, 10984, Note_on_c, 1, 56, 30
3, 10984, Note_on_c, 1, 59, 100
3, 10984, Note_on_c, 1, 64, 50
3, 11044, Note_on_c, 1, 64, 0
3, 11044, Note_on_c, 1, 59, 0
3, 11044, Note_on_c, 1, 56, 0
3, 11104, Note_on_c, 1, 56, 30
3, 11104, Note_on_c, 1, 59, 100
3, 11104, Note_on_c, 1, 64, 100
3, 11164, Note_on_c, 1, 64, 0
3, 11164, Note_on_c, 1, 59, 0
3, 11164, Note_on_c, 1, 56, 0
3, 11224, Note_on_c, 1, 52, 100
3, 11284, Note_on_c, 1, 61, 100
3, 11344, Note_on_c, 1, 61, 0
3, 11344, Note_on_c, 1, 59, 100
3, 11404, Note_on_c, 1, 56, 100
3, 11434, Note_on_c, 1, 59, 0
3, 11464, Note_on_c, 1, 52, 100
3, 11494, Note_on_c, 1, 56, 0
3, 11524, Note_on_c, 1, 52, 0
3, 11524, Note_on_c, 1, 52, 0
3, 11524, Note_on_c, 1, 50, 100
3, 11644, Note_on_c, 1, 64, 100
3, 11764, Note_on_c, 1, 64, 0
3, 11764, Note_on_c, 1, 64, 100
3, 11764, Note_on_c, 1, 57, 50
3, 11764, Note_on_c, 1, 62, 100
3, 11884, Note_on_c, 1, 62, 0
3, 11884, Note_on_c, 1, 50, 0
3, 11884, Note_on_c, 1, 64, 0
3, 11884, Note_on_c, 1, 57, 0
3, 11884, Note_on_c, 1, 57, 50
3, 11884, Note_on_c, 1, 61, 100
3, 11944, Note_on_c, 1, 61, 0
3, 11944, Note_on_c, 1, 57, 0
3, 11944, Note_on_c, 1, 56, 30
3, 11944, Note_on_c, 1, 59, 100
3, 11944, Note_on_c, 1, 64, 50
3, 12004, Note_on_c, 1, 64, 0
3, 12004, Note_on_c, 1, 59, 0
3, 12004, Note_on_c, 1, 56, 0
3, 12064, Note_on_c, 1, 56, 30
3, 12064, Note_on_c, 1, 59, 100
3, 12064, Note_on_c, 1, 64, 100
3, 12124, Note_on_c, 1, 64, 0
3, 12124, Note_on_c, 1, 59, 0
3, 12124, Note_on_c, 1, 56, 0
3, 12184, Note_on_c, 1, 52, 100
3, 12244, Note_on_c, 1, 61, 100
3, 12304, Note_on_c, 1, 61, 0
3, 12304, Note_on_c, 1, 59, 100
3, 12364, Note_on_c, 1, 56, 100
3, 12394, Note_on_c, 1, 59, 0
3, 12424, Note_on_c, 1, 52, 100
3, 12454, Note_on_c, 1, 56, 0
3, 12484, Note_on_c, 1, 52, 0
3, 12484, Note_on_c, 1, 52, 0
3, 12484, Note_on_c, 1, 50, 100
3, 12604, Note_on_c, 1, 64, 100
3, 12724, Note_on_c, 1, 64, 0
3, 12724, Note_on_c, 1, 64, 100
3, 12724, Note_on_c, 1, 57, 50
3, 12724, Note_on_c, 1, 62, 100
3, 12844, Note_on_c, 1, 62, 0
3, 12844, Note_on_c, 1, 50, 0
3, 12844, Note_on_c, 1, 64, 0
3, 12844, Note_on_c, 1, 57, 0
3, 12844, Note_on_c, 1, 57, 50
3, 12844, Note_on_c, 1, 61, 100
3, 12904, Note_on_c, 1, 61, 0
3, 12904, Note_on_c, 1, 57, 0
3, 12904, Note_on_c, 1, 56, 30
3, 12904, Note_on_c, 1, 59, 100
3, 12904, Note_on_c, 1, 64, 50
3, 12964, Note_on_c, 1, 64, 0
3, 12964, Note_on_c, 1, 59, 0
3, 12964, Note_on_c, 1, 56, 0
3, 13024, Note_on_c, 1, 56, 30
3, 13024, Note_on_c, 1, 59, 100
3, 13024, Note_on_c, 1, 64, 100
3, 13084, Note_on_c, 1, 64, 0
3, 13084, Note_on_c, 1, 59, 0
3, 13084, Note_on_c, 1, 56, 0
3, 13144, Note_on_c, 1, 52, 100
3, 13204, Note_on_c, 1, 61, 100
3, 13264, Note_on_c, 1, 61, 0
3, 13264, Note_on_c, 1, 59, 100
3, 13324, Note_on_c, 1, 56, 100
3, 13354, Note_on_c, 1, 59, 0
3, 13384, Note_on_c, 1, 52, 100
3, 13414, Note_on_c, 1, 56, 0
3, 13444, Note_on_c, 1, 52, 0
3, 13444, Note_on_c, 1, 52, 0
3, 13444, Note_on_c, 1, 50, 100
3, 13564, Note_on_c, 1, 64, 100
3, 13684, Note_on_c, 1, 64, 0
3, 13684, Note_on_c, 1, 64, 100
3, 13684, Note_on_c, 1, 57, 50
3, 13684, Note_on_c, 1, 62, 100
3, 13804, Note_on_c, 1, 62, 0
3, 13804, Note_on_c, 1, 50, 0
3, 13804, Note_on_c, 1, 64, 0
3, 13804, Note_on_c, 1, 57, 0
3, 13804, Note_on_c, 1, 57, 50
3, 13804, Note_on_c, 1, 61, 100
3, 13864, Note_on_c, 1, 61, 0
3, 13864, Note_on_c, 1, 57, 0
3, 13864, Note_on_c, 1, 56, 30
3, 13864, Note_on_c, 1, 59, 100
3, 13864, Note_on_c, 1, 64, 50
3, 13924, Note_on_c, 1, 64, 0
3, 13924, Note_on_c, 1, 59, 0
3, 13924, Note_on_c, 1, 56, 0
3, 13984, Note_on_c, 1, 56, 30
3, 13984, Note_on_c, 1, 59, 100
3, 13984, Note_on_c, 1, 64, 100
3, 14044, Note_on_c, 1, 64, 0
3, 14044, Note_on_c, 1, 59, 0
3, 14044, Note_on_c, 1, 56, 0
3, 14104, Note_on_c, 1, 52, 100
3, 14164, Note_on_c, 1, 61, 100
3, 14224, Note_on_c, 1, 61, 0
3, 14224, Note_on_c, 1, 59, 100
3, 14284, Note_on_c, 1, 56, 100
3, 14314, Note_on_c, 1, 59, 0
3, 14344, Note_on_c, 1, 52, 100
3, 14374, Note_on_c, 1, 56, 0
3, 14404, Note_on_c, 1, 52, 0
3, 14404, Note_on_c, 1, 52, 0
3, 14404, Note_on_c, 1, 50, 100
3, 14524, Note_on_c, 1, 64, 100
3, 14644, Note_on_c, 1, 64, 0
3, 14644, Note_on_c, 1, 64, 100
3, 14644, Note_on_c, 1, 57, 50
3, 14644, Note_on_c, 1, 62, 100
3, 14764, Note_on_c, 1, 62, 0
3, 14764, Note_on_c, 1, 50, 0
3, 14764, Note_on_c, 1, 64, 0
3, 14764, Note_on_c, 1, 57, 0
3, 14764, Note_on_c, 1, 57, 50
3, 14764, Note_on_c, 1, 61, 100
3, 14824, Note_on_c, 1, 61, 0
3, 14824, Note_on_c, 1, 57, 0
3, 14824, Note_on_c, 1, 56, 30
3, 14824, Note_on_c, 1, 59, 100
3, 14824, Note_on_c, 1, 64, 50
3, 14884, Note_on_c, 1, 64, 0
3, 14884, Note_on_c, 1, 59, 0
3, 14884, Note_on_c, 1, 56, 0
3, 14944, Note_on_c, 1, 56, 30
3, 14944, Note_on_c, 1, 59, 100
3, 14944, Note_on_c, 1, 64, 100
3, 15004, Note_on_c, 1, 64, 0
3, 15004, Note_on_c, 1, 59, 0
3, 15004, Note_on_c, 1, 56, 0
3, 15064, Note_on_c, 1, 52, 100
3, 15124, Note_on_c, 1, 61, 100
3, 15184, Note_on_c, 1, 61, 0
3, 15184, Note_on_c, 1, 59, 100
3, 15244, Note_on_c, 1, 56, 100
3, 15274, Note_on_c, 1, 59, 0
3, 15304, Note_on_c, 1, 52, 100
3, 15334, Note_on_c, 1, 56, 0
3, 15364, Note_on_c, 1, 52, 0
3, 15364, Note_on_c, 1, 52, 0
3, 15373, Note_on_c, 1, 57, 100
3, 15377, Note_on_c, 1, 64, 100
3, 15733, Note_on_c, 1, 57, 0
3, 15737, Note_on_c, 1, 64, 0
3, 15841, Note_on_c, 1, 50, 100
3, 15849, Note_on_c, 1, 57, 100
3, 15854, Note_on_c, 1, 62, 100
3, 16201, Note_on_c, 1, 50, 0
3, 16209, Note_on_c, 1, 57, 0
3, 16214, Note_on_c, 1, 62, 0
3, 16321, Note_on_c, 1, 47, 100
3, 16327, Note_on_c, 1, 54, 100
3, 16331, Note_on_c, 1, 59, 100
3, 16334, Note_on_c, 1, 62, 100
3, 16681, Note_on_c, 1, 47, 0
3, 16684, Note_on_c, 1, 54, 100
3, 16684, Note_on_c, 1, 47, 100
3, 16687, Note_on_c, 1, 54, 0
3, 16691, Note_on_c, 1, 59, 0
3, 16694, Note_on_c, 1, 62, 0
3, 16804, Note_on_c, 1, 47, 0
3, 16804, Note_on_c, 1, 54, 0
3, 16804, Note_on_c, 1, 52, 100
3, 16804, Note_on_c, 1, 40, 100
3, 16864, Note_on_c, 1, 40, 0
3, 16864, Note_on_c, 1, 52, 0
3, 16864, Note_on_c, 1, 52, 100
3, 16864, Note_on_c, 1, 40, 100
3, 16924, Note_on_c, 1, 40, 0
3, 16924, Note_on_c, 1, 52, 0
3, 16924, Note_on_c, 1, 52, 100
3, 16924, Note_on_c, 1, 40, 100
3, 16984, Note_on_c, 1, 40, 0
3, 16984, Note_on_c, 1, 52, 0
3, 16984, Note_on_c, 1, 59, 100
3, 16984, Note_on_c, 1, 52, 100
3, 16984, Note_on_c, 1, 40, 100
3, 17044, Note_on_c, 1, 40, 0
3, 17044, Note_on_c, 1, 52, 0
3, 17044, Note_on_c, 1, 59, 0
3, 17044, Note_on_c, 1, 59, 100
3, 17044, Note_on_c, 1, 52, 100
3, 17044, Note_on_c, 1, 40, 100
3, 17104, Note_on_c, 1, 40, 0
3, 17104, Note_on_c, 1, 52, 0
3, 17104, Note_on_c, 1, 59, 0
3, 17104, Note_on_c, 1, 59, 100
3, 17104, Note_on_c, 1, 52, 100
3, 17104, Note_on_c, 1, 40, 100
3, 17164, Note_on_c, 1, 40, 0
3, 17164, Note_on_c, 1, 52, 0
3, 17164, Note_on_c, 1, 59, 0
3, 17164, Note_on_c, 1, 59, 100
3, 17164, Note_on_c, 1, 52, 100
3, 17164, Note_on_c, 1, 40, 100
3, 17224, Note_on_c, 1, 40, 0
3, 17224, Note_on_c, 1, 52, 0
3, 17224, Note_on_c, 1, 59, 0
3, 17224, Note_on_c, 1, 59, 100
3, 17224, Note_on_c, 1, 52, 100
3, 17224, Note_on_c, 1, 40, 100
3, 17284, Note_on_c, 1, 40, 0
3, 17284, Note_on_c, 1, 52, 0
3, 17284, Note_on_c, 1, 59, 0
3, 17284, Note_on_c, 1, 50, 100
3, 17404, Note_on_c, 1, 64, 100
3, 17524, Note_on_c, 1, 64, 0
3, 17524, Note_on_c, 1, 64, 100
3, 17524, Note_on_c, 1, 57, 50
3, 17524, Note_on_c, 1, 62, 100
3, 17644, Note_on_c, 1, 62, 0
3, 17644, Note_on_c, 1, 50, 0
3, 17644, Note_on_c, 1, 64, 0
3, 17644, Note_on_c, 1, 57, 0
3, 17644, Note_on_c, 1, 57, 50
3, 17644, Note_on_c, 1, 61, 100
3, 17704, Note_on_c, 1, 61, 0
3, 17704, Note_on_c, 1, 57, 0
3, 17704, Note_on_c, 1, 56, 30
3, 17704, Note_on_c, 1, 59, 100
3, 17704, Note_on_c, 1, 64, 50
3, 17764, Note_on_c, 1, 64, 0
3, 17764, Note_on_c, 1, 59, 0
3, 17764, Note_on_c, 1, 56, 0
3, 17824, Note_on_c, 1, 56, 30
3, 17824, Note_on_c, 1, 59, 100
3, 17824, Note_on_c, 1, 64, 100
3, 17884, Note_on_c, 1, 64, 0
3, 17884, Note_on_c, 1, 59, 0
3, 17884, Note_on_c, 1, 56, 0
3, 17944, Note_on_c, 1, 52, 100
3, 18004, Note_on_c, 1, 61, 100
3, 18064, Note_on_c, 1, 61, 0
3, 18064, Note_on_c, 1, 59, 100
3, 18124, Note_on_c, 1, 56, 100
3, 18154, Note_on_c, 1, 59, 0
3, 18184, Note_on_c, 1, 52, 100
3, 18214, Note_on_c, 1, 56, 0
3, 18244, Note_on_c, 1, 52, 0
3, 18244, Note_on_c, 1, 52, 0
3, 18244, Note_on_c, 1, 50, 100
3, 18364, Note_on_c, 1, 64, 100
3, 18484, Note_on_c, 1, 64, 0
3, 18484, Note_on_c, 1, 64, 100
3, 18484, Note_on_c, 1, 57, 50
3, 18484, Note_on_c, 1, 62, 100
3, 18604, Note_on_c, 1, 62, 0
3, 18604, Note_on_c, 1, 50, 0
3, 18604, Note_on_c, 1, 64, 0
3, 18604, Note_on_c, 1, 57, 0
3, 18604, Note_on_c, 1, 57, 50
3, 18604, Note_on_c, 1, 61, 100
3, 18664, Note_on_c, 1, 61, 0
3, 18664, Note_on_c, 1, 57, 0
3, 18664, Note_on_c, 1, 56, 30
3, 18664, Note_on_c, 1, 59, 100
3, 18664, Note_on_c, 1, 64, 50
3, 18724, Note_on_c, 1, 64, 0
3, 18724, Note_on_c, 1, 59, 0
3, 18724, Note_on_c, 1, 56, 0
3, 18784, Note_on_c, 1, 56, 30
3, 18784, Note_on_c, 1, 59, 100
3, 18784, Note_on_c, 1, 64, 100
3, 18844, Note_on_c, 1, 64, 0
3, 18844, Note_on_c, 1, 59, 0
3, 18844, Note_on_c, 1, 56, 0
3, 18904, Note_on_c, 1, 52, 100
3, 18964, Note_on_c, 1, 61, 100
3, 19024, Note_on_c, 1, 61, 0
3, 19024, Note_on_c, 1, 59, 100
3, 19084, Note_on_c, 1, 56, 100
3, 19114, Note_on_c, 1, 59, 0
3, 19144, Note_on_c, 1, 52, 100
3, 19174, Note_on_c, 1, 56, 0
3, 19204, Note_on_c, 1, 52, 0
3, 19204, Note_on_c, 1, 52, 0
3, 19204, Note_on_c, 1, 50, 100
3, 19324, Note_on_c, 1, 64, 100
3, 19444, Note_on_c, 1, 64, 0
3, 19444, Note_on_c, 1, 64, 100
3, 19444, Note_on_c, 1, 57, 50
3, 19444, Note_on_c, 1, 62, 100
3, 19564, Note_on_c, 1, 62, 0
3, 19564, Note_on_c, 1, 50, 0
3, 19564, Note_on_c, 1, 64, 0
3, 19564, Note_on_c, 1, 57, 0
3, 19564, Note_on_c, 1, 57, 50
3, 19564, Note_on_c, 1, 61, 100
3, 19624, Note_on_c, 1, 61, 0
3, 19624, Note_on_c, 1, 57, 0
3, 19624, Note_on_c, 1, 56, 30
3, 19624, Note_on_c, 1, 59, 100
3, 19624, Note_on_c, 1, 64, 50
3, 19684, Note_on_c, 1, 64, 0
3, 19684, Note_on_c, 1, 59, 0
3, 19684, Note_on_c, 1, 56, 0
3, 19744, Note_on_c, 1, 56, 30
3, 19744, Note_on_c, 1, 59, 100
3, 19744, Note_on_c, 1, 64, 100
3, 19804, Note_on_c, 1, 64, 0
3, 19804, Note_on_c, 1, 59, 0
3, 19804, Note_on_c, 1, 56, 0
3, 19864, Note_on_c, 1, 52, 100
3, 19924, Note_on_c, 1, 61, 100
3, 19984, Note_on_c, 1, 61, 0
3, 19984, Note_on_c, 1, 59, 100
3, 20044, Note_on_c, 1, 56, 100
3, 20074, Note_on_c, 1, 59, 0
3, 20104, Note_on_c, 1, 52, 100
3, 20134, Note_on_c, 1, 56, 0
3, 20164, Note_on_c, 1, 52, 0
3, 20164, Note_on_c, 1, 52, 0
3, 20164, Note_on_c, 1, 50, 100
3, 20164, Note_on_c, 1, 57, 100
3, 20169, Note_on_c, 1, 62, 100
3, 20524, Note_on_c, 1, 57, 0
3, 20524, Note_on_c, 1, 50, 0
3, 20529, Note_on_c, 1, 62, 0
3, 20639, Note_on_c, 1, 40, 100
3, 20644, Note_on_c, 1, 47, 100
3, 20649, Note_on_c, 1, 52, 100
3, 20654, Note_on_c, 1, 59, 100
3, 20999, Note_on_c, 1, 40, 0
3, 21004, Note_on_c, 1, 47, 0
3, 21004, Pitch_bend_c, 1, 8320
3, 21004, Note_on_c, 1, 43, 100
3, 21009, Note_on_c, 1, 52, 0
3, 21010, Pitch_bend_c, 1, 8448
3, 21014, Note_on_c, 1, 59, 0
3, 21017, Pitch_bend_c, 1, 8576
3, 21024, Pitch_bend_c, 1, 8704
3, 21030, Pitch_bend_c, 1, 8832
3, 21037, Pitch_bend_c, 1, 8960
3, 21044, Pitch_bend_c, 1, 9088
3, 21050, Pitch_bend_c, 1, 9216
3, 21057, Pitch_bend_c, 1, 9344
3, 21064, Pitch_bend_c, 1, 9472
3, 21070, Pitch_bend_c, 1, 9600
3, 21077, Pitch_bend_c, 1, 9728
3, 21084, Pitch_bend_c, 1, 9856
3, 21090, Pitch_bend_c, 1, 9984
3, 21097, Pitch_bend_c, 1, 10112
3, 21104, Pitch_bend_c, 1, 10240
3, 21110, Pitch_bend_c, 1, 10368
3, 21117, Pitch_bend_c, 1, 10496
3, 21120, Pitch_bend_c, 1, 10624
3, 21124, Note_on_c, 1, 43, 0
3, 21124, Pitch_bend_c, 1, 8192
3, 21124, Note_on_c, 1, 50, 100
3, 21244, Note_on_c, 1, 64, 100
3, 21364, Note_on_c, 1, 64, 0
3, 21364, Note_on_c, 1, 64, 100
3, 21364, Note_on_c, 1, 57, 50
3, 21364, Note_on_c, 1, 62, 100
3, 21484, Note_on_c, 1, 62, 0
3, 21484, Note_on_c, 1, 50, 0
3, 21484, Note_on_c, 1, 64, 0
3, 21484, Note_on_c, 1, 57, 0
3, 21484, Note_on_c, 1, 57, 50
3, 21484, Note_on_c, 1, 61, 100
3, 21544, Note_on_c, 1, 61, 0
3, 21544, Note_on_c, 1, 57, 0
3, 21544, Note_on_c, 1, 56, 30
3, 21544, Note_on_c, 1, 59, 100
3, 21544, Note_on_c, 1, 64, 50
3, 21604, Note_on_c, 1, 64, 0
3, 21604, Note_on_c, 1, 59, 0
3, 21604, Note_on_c, 1, 56, 0
3, 21664, Note_on_c, 1, 56, 30
3, 21664, Note_on_c, 1, 59, 100
3, 21664, Note_on_c, 1, 64, 100
3, 21724, Note_on_c, 1, 64, 0
3, 21724, Note_on_c, 1, 59, 0
3, 21724, Note_on_c, 1, 56, 0
3, 21784, Note_on_c, 1, 52, 100
3, 21844, Note_on_c, 1, 61, 100
3, 21904, Note_on_c, 1, 61, 0
3, 21904, Note_on_c, 1, 59, 100
3, 21964, Note_on_c, 1, 56, 100
3, 21994, Note_on_c, 1, 59, 0
3, 22024, Note_on_c, 1, 52, 100
3, 22054, Note_on_c, 1, 56, 0
3, 22084, Note_on_c, 1, 52, 0
3, 22084, Note_on_c, 1, 52, 0
3, 22084, Note_on_c, 1, 50, 100
3, 22204, Note_on_c, 1, 64, 100
3, 22324, Note_on_c, 1, 64, 0
3, 22324, Note_on_c, 1, 64, 100
3, 22324, Note_on_c, 1, 57, 50
3, 22324, Note_on_c, 1, 62, 100
3, 22444, Note_on_c, 1, 62, 0
3, 22444, Note_on_c, 1, 50, 0
3, 22444, Note_on_c, 1, 64, 0
3, 22444, Note_on_c, 1, 57, 0
3, 22444, Note_on_c, 1, 57, 50
3, 22444, Note_on_c, 1, 61, 100
3, 22504, Note_on_c, 1, 61, 0
3, 22504, Note_on_c, 1, 57, 0
3, 22504, Note_on_c, 1, 56, 30
3, 22504, Note_on_c, 1, 59, 100
3, 22504, Note_on_c, 1, 64, 50
3, 22564, Note_on_c, 1, 64, 0
3, 22564, Note_on_c, 1, 59, 0
3, 22564, Note_on_c, 1, 56, 0
3, 22624, Note_on_c, 1, 56, 30
3, 22624, Note_on_c, 1, 59, 100
3, 22624, Note_on_c, 1, 64, 100
3, 22684, Note_on_c, 1, 64, 0
3, 22684, Note_on_c, 1, 59, 0
3, 22684, Note_on_c, 1, 56, 0
3, 22744, Note_on_c, 1, 52, 100
3, 22804, Note_on_c, 1, 61, 100
3, 22864, Note_on_c, 1, 61, 0
3, 22864, Note_on_c, 1, 59, 100
3, 22924, Note_on_c, 1, 56, 100
3, 22954, Note_on_c, 1, 59, 0
3, 22984, Note_on_c, 1, 52, 100
3, 23014, Note_on_c, 1, 56, 0
3, 23044, Note_on_c, 1, 52, 0
3, 23044, Note_on_c, 1, 52, 0
3, 23044, Note_on_c, 1, 50, 100
3, 23164, Note_on_c, 1, 64, 100
3, 23284, Note_on_c, 1, 64, 0
3, 23284, Note_on_c, 1, 64, 100
3, 23284, Note_on_c, 1, 57, 50
3, 23284, Note_on_c, 1, 62, 100
3, 23404, Note_on_c, 1, 62, 0
3, 23404, Note_on_c, 1, 50, 0
3, 23404, Note_on_c, 1, 64, 0
3, 23404, Note_on_c, 1, 57, 0
3, 23404, Note_on_c, 1, 57, 50
3, 23404, Note_on_c, 1, 61, 100
3, 23464, Note_on_c, 1, 61, 0
3, 23464, Note_on_c, 1, 57, 0
3, 23464, Note_on_c, 1, 56, 30
3, 23464, Note_on_c, 1, 59, 100
3, 23464, Note_on_c, 1, 64, 50
3, 23524, Note_on_c, 1, 64, 0
3, 23524, Note_on_c, 1, 59, 0
3, 23524, Note_on_c, 1, 56, 0
3, 23584, Note_on_c, 1, 56, 30
3, 23584, Note_on_c, 1, 59, 100
3, 23584, Note_on_c, 1, 64, 100
3, 23644, Note_on_c, 1, 64, 0
3, 23644, Note_on_c, 1, 59, 0
3, 23644, Note_on_c, 1, 56, 0
3, 23704, Note_on_c, 1, 52, 100
3, 23764, Note_on_c, 1, 61, 100
3, 23824, Note_on_c, 1, 61, 0
3, 23824, Note_on_c, 1, 59, 100
3, 23884, Note_on_c, 1, 56, 100
3, 23914, Note_on_c, 1, 59, 0
3, 23944, Note_on_c, 1, 52, 100
3, 23974, Note_on_c, 1, 56, 0
3, 24004, Note_on_c, 1, 52, 0
3, 24004, Note_on_c, 1, 52, 0
3, 24004, Note_on_c, 1, 50, 100
3, 24124, Note_on_c, 1, 64, 100
3, 24244, Note_on_c, 1, 64, 0
3, 24244, Note_on_c, 1, 64, 100
3, 24244, Note_on_c, 1, 57, 50
3, 24244, Note_on_c, 1, 62, 100
3, 24364, Note_on_c, 1, 62, 0
3, 24364, Note_on_c, 1, 50, 0
3, 24364, Note_on_c, 1, 64, 0
3, 24364, Note_on_c, 1, 57, 0
3, 24364, Note_on_c, 1, 57, 50
3, 24364, Note_on_c, 1, 61, 100
3, 24424, Note_on_c, 1, 61, 0
3, 24424, Note_on_c, 1, 57, 0
3, 24424, Note_on_c, 1, 56, 30
3, 24424, Note_on_c, 1, 59, 100
3, 24424, Note_on_c, 1, 64, 50
3, 24484, Note_on_c, 1, 64, 0
3, 24484, Note_on_c, 1, 59, 0
3, 24484, Note_on_c, 1, 56, 0
3, 24544, Note_on_c, 1, 56, 30
3, 24544, Note_on_c, 1, 59, 100
3, 24544, Note_on_c, 1, 64, 100
3, 24604, Note_on_c, 1, 64, 0
3, 24604, Note_on_c, 1, 59, 0
3, 24604, Note_on_c, 1, 56, 0
3, 24664, Note_on_c, 1, 52, 100
3, 24724, Note_on_c, 1, 61, 100
3, 24784, Note_on_c, 1, 61, 0
3, 24784, Note_on_c, 1, 59, 100
3, 24844, Note_on_c, 1, 56, 100
3, 24874, Note_on_c, 1, 59, 0
3, 24904, Note_on_c, 1, 52, 100
3, 24934, Note_on_c, 1, 56, 0
3, 24964, Note_on_c, 1, 52, 0
3, 24964, Note_on_c, 1, 52, 0
3, 24964, Note_on_c, 1, 50, 100
3, 25084, Note_on_c, 1, 64, 100
3, 25204, Note_on_c, 1, 64, 0
3, 25204, Note_on_c, 1, 64, 100
3, 25204, Note_on_c, 1, 57, 50
3, 25204, Note_on_c, 1, 62, 100
3, 25324, Note_on_c, 1, 62, 0
3, 25324, Note_on_c, 1, 50, 0
3, 25324, Note_on_c, 1, 64, 0
3, 25324, Note_on_c, 1, 57, 0
3, 25324, Note_on_c, 1, 57, 50
3, 25324, Note_on_c, 1, 61, 100
3, 25384, Note_on_c, 1, 61, 0
3, 25384, Note_on_c, 1, 57, 0
3, 25384, Note_on_c, 1, 56, 30
3, 25384, Note_on_c, 1, 59, 100
3, 25384, Note_on_c, 1, 64, 50
3, 25444, Note_on_c, 1, 64, 0
3, 25444, Note_on_c, 1, 59, 0
3, 25444, Note_on_c, 1, 56, 0
3, 25504, Note_on_c, 1, 56, 30
3, 25504, Note_on_c, 1, 59, 100
3, 25504, Note_on_c, 1, 64, 100
3, 25564, Note_on_c, 1, 64, 0
3, 25564, Note_on_c, 1, 59, 0
3, 25564, Note_on_c, 1, 56, 0
3, 25624, Note_on_c, 1, 52, 100
3, 25684, Note_on_c, 1, 61, 100
3, 25744, Note_on_c, 1, 61, 0
3, 25744, Note_on_c, 1, 59, 100
3, 25804, Note_on_c, 1, 56, 100
3, 25834, Note_on_c, 1, 59, 0
3, 25864, Note_on_c, 1, 52, 100
3, 25894, Note_on_c, 1, 56, 0
3, 25924, Note_on_c, 1, 52, 0
3, 25924, Note_on_c, 1, 52, 0
3, 25924, Note_on_c, 1, 50, 100
3, 26044, Note_on_c, 1, 64, 100
3, 26164, Note_on_c, 1, 64, 0
3, 26164, Note_on_c, 1, 64, 100
3, 26164, Note_on_c, 1, 57, 50
3, 26164, Note_on_c, 1, 62, 100
3, 26284, Note_on_c, 1, 62, 0
3, 26284, Note_on_c, 1, 50, 0
3, 26284, Note_on_c, 1, 64, 0
3, 26284, Note_on_c, 1, 57, 0
3, 26284, Note_on_c, 1, 57, 50
3, 26284, Note_on_c, 1, 61, 100
3, 26344, Note_on_c, 1, 61, 0
3, 26344, Note_on_c, 1, 57, 0
3, 26344, Note_on_c, 1, 56, 30
3, 26344, Note_on_c, 1, 59, 100
3, 26344, Note_on_c, 1, 64, 50
3, 26404, Note_on_c, 1, 64, 0
3, 26404, Note_on_c, 1, 59, 0
3, 26404, Note_on_c, 1, 56, 0
3, 26464, Note_on_c, 1, 56, 30
3, 26464, Note_on_c, 1, 59, 100
3, 26464, Note_on_c, 1, 64, 100
3, 26524, Note_on_c, 1, 64, 0
3, 26524, Note_on_c, 1, 59, 0
3, 26524, Note_on_c, 1, 56, 0
3, 26584, Note_on_c, 1, 52, 100
3, 26644, Note_on_c, 1, 61, 100
3, 26704, Note_on_c, 1, 61, 0
3, 26704, Note_on_c, 1, 59, 100
3, 26764, Note_on_c, 1, 56, 100
3, 26794, Note_on_c, 1, 59, 0
3, 26824, Note_on_c, 1, 52, 100
3, 26854, Note_on_c, 1, 56, 0
3, 26884, Note_on_c, 1, 52, 0
3, 26884, Note_on_c, 1, 52, 0
3, 26884, Note_on_c, 1, 50, 100
3, 27004, Note_on_c, 1, 64, 100
3, 27124, Note_on_c, 1, 64, 0
3, 27124, Note_on_c, 1, 64, 100
3, 27124, Note_on_c, 1, 57, 50
3, 27124, Note_on_c, 1, 62, 100
3, 27244, Note_on_c, 1, 62, 0
3, 27244, Note_on_c, 1, 50, 0
3, 27244, Note_on_c, 1, 64, 0
3, 27244, Note_on_c, 1, 57, 0
3, 27244, Note_on_c, 1, 57, 50
3, 27244, Note_on_c, 1, 61, 100
3, 27304, Note_on_c, 1, 61, 0
3, 27304, Note_on_c, 1, 57, 0
3, 27304, Note_on_c, 1, 56, 30
3, 27304, Note_on_c, 1, 59, 100
3, 27304, Note_on_c, 1, 64, 50
3, 27364, Note_on_c, 1, 64, 0
3, 27364, Note_on_c, 1, 59, 0
3, 27364, Note_on_c, 1, 56, 0
3, 27424, Note_on_c, 1, 56, 30
3, 27424, Note_on_c, 1, 59, 100
3, 27424, Note_on_c, 1, 64, 100
3, 27484, Note_on_c, 1, 64, 0
3, 27484, Note_on_c, 1, 59, 0
3, 27484, Note_on_c, 1, 56, 0
3, 27544, Note_on_c, 1, 52, 100
3, 27604, Note_on_c, 1, 61, 100
3, 27664, Note_on_c, 1, 61, 0
3, 27664, Note_on_c, 1, 59, 100
3, 27724, Note_on_c, 1, 56, 100
3, 27754, Note_on_c, 1, 59, 0
3, 27784, Note_on_c, 1, 52, 100
3, 27814, Note_on_c, 1, 56, 0
3, 27844, Note_on_c, 1, 52, 0
3, 27844, Note_on_c, 1, 52, 0
3, 27844, Note_on_c, 1, 50, 100
3, 27964, Note_on_c, 1, 64, 100
3, 28084, Note_on_c, 1, 64, 0
3, 28084, Note_on_c, 1, 64, 100
3, 28084, Note_on_c, 1, 57, 50
3, 28084, Note_on_c, 1, 62, 100
3, 28204, Note_on_c, 1, 62, 0
3, 28204, Note_on_c, 1, 50, 0
3, 28204, Note_on_c, 1, 64, 0
3, 28204, Note_on_c, 1, 57, 0
3, 28204, Note_on_c, 1, 57, 50
3, 28204, Note_on_c, 1, 61, 100
3, 28264, Note_on_c, 1, 61, 0
3, 28264, Note_on_c, 1, 57, 0
3, 28264, Note_on_c, 1, 56, 30
3, 28264, Note_on_c, 1, 59, 100
3, 28264, Note_on_c, 1, 64, 50
3, 28324, Note_on_c, 1, 64, 0
3, 28324, Note_on_c, 1, 59, 0
3, 28324, Note_on_c, 1, 56, 0
3, 28384, Note_on_c, 1, 56, 30
3, 28384, Note_on_c, 1, 59, 100
3, 28384, Note_on_c, 1, 64, 100
3, 28444, Note_on_c, 1, 64, 0
3, 28444, Note_on_c, 1, 59, 0
3, 28444, Note_on_c, 1, 56, 0
3, 28504, Note_on_c, 1, 52, 100
3, 28564, Note_on_c, 1, 61, 100
3, 28624, Note_on_c, 1, 61, 0
3, 28624, Note_on_c, 1, 59, 100
3, 28684, Note_on_c, 1, 56, 100
3, 28714, Note_on_c, 1, 59, 0
3, 28744, Note_on_c, 1, 52, 100
3, 28774, Note_on_c, 1, 56, 0
3, 28804, Note_on_c, 1, 52, 0
3, 28804, Note_on_c, 1, 52, 0
3, 28804, Note_on_c, 1, 50, 100
3, 28924, Note_on_c, 1, 64, 100
3, 29044, Note_on_c, 1, 64, 0
3, 29044, Note_on_c, 1, 64, 100
3, 29044, Note_on_c, 1, 57, 50
3, 29044, Note_on_c, 1, 62, 100
3, 29164, Note_on_c, 1, 62, 0
3, 29164, Note_on_c, 1, 50, 0
3, 29164, Note_on_c, 1, 64, 0
3, 29164, Note_on_c, 1, 57, 0
3, 29164, Note_on_c, 1, 57, 50
3, 29164, Note_on_c, 1, 61, 100
3, 29224, Note_on_c, 1, 61, 0
3, 29224, Note_on_c, 1, 57, 0
3, 29224, Note_on_c, 1, 56, 30
3, 29224, Note_on_c, 1, 59, 100
3, 29224, Note_on_c, 1, 64, 50
3, 29284, Note_on_c, 1, 64, 0
3, 29284, Note_on_c, 1, 59, 0
3, 29284, Note_on_c, 1, 56, 0
3, 29344, Note_on_c, 1, 56, 30
3, 29344, Note_on_c, 1, 59, 100
3, 29344, Note_on_c, 1, 64, 100
3, 29404, Note_on_c, 1, 64, 0
3, 29404, Note_on_c, 1, 59, 0
3, 29404, Note_on_c, 1, 56, 0
3, 29464, Note_on_c, 1, 52, 100
3, 29524, Note_on_c, 1, 61, 100
3, 29584, Note_on_c, 1, 61, 0
3, 29584, Note_on_c, 1, 59, 100
3, 29644, Note_on_c, 1, 56, 100
3, 29674, Note_on_c, 1, 59, 0
3, 29704, Note_on_c, 1, 52, 100
3, 29734, Note_on_c, 1, 56, 0
3, 29764, Note_on_c, 1, 52, 0
3, 29764, Note_on_c, 1, 52, 0
3, 29764, Note_on_c, 1, 50, 100
3, 29884, Note_on_c, 1, 64, 100
3, 30004, Note_on_c, 1, 64, 0
3, 30004, Note_on_c, 1, 64, 100
3, 30004, Note_on_c, 1, 57, 50
3, 30004, Note_on_c, 1, 62, 100
3, 30124, Note_on_c, 1, 62, 0
3, 30124, Note_on_c, 1, 50, 0
3, 30124, Note_on_c, 1, 64, 0
3, 30124, Note_on_c, 1, 57, 0
3, 30124, Note_on_c, 1, 57, 50
3, 30124, Note_on_c, 1, 61, 100
3, 30184, Note_on_c, 1, 61, 0
3, 30184, Note_on_c, 1, 57, 0
3, 30184, Note_on_c, 1, 56, 30
3, 30184, Note_on_c, 1, 59, 100
3, 30184, Note_on_c, 1, 64, 50
3, 30244, Note_on_c, 1, 64, 0
3, 30244, Note_on_c, 1, 59, 0
3, 30244, Note_on_c, 1, 56, 0
3, 30304, Note_on_c, 1, 56, 30
3, 30304, Note_on_c, 1, 59, 100
3, 30304, Note_on_c, 1, 64, 100
3, 30364, Note_on_c, 1, 64, 0
3, 30364, Note_on_c, 1, 59, 0
3, 30364, Note_on_c, 1, 56, 0
3, 30424, Note_on_c, 1, 52, 100
3, 30484, Note_on_c, 1, 61, 100
3, 30544, Note_on_c, 1, 61, 0
3, 30544, Note_on_c, 1, 59, 100
3, 30604, Note_on_c, 1, 56, 100
3, 30634, Note_on_c, 1, 59, 0
3, 30664, Note_on_c, 1, 52, 100
3, 30694, Note_on_c, 1, 56, 0
3, 30724, Note_on_c, 1, 52, 0
3, 30724, Note_on_c, 1, 52, 0
3, 30724, Note_on_c, 1, 50, 100
3, 30844, Note_on_c, 1, 64, 100
3, 30964, Note_on_c, 1, 64, 0
3, 30964, Note_on_c, 1, 64, 100
3, 30964, Note_on_c, 1, 57, 50
3, 30964, Note_on_c, 1, 62, 100
3, 31084, Note_on_c, 1, 62, 0
3, 31084, Note_on_c, 1, 50, 0
3, 31084, Note_on_c, 1, 64, 0
3, 31084, Note_on_c, 1, 57, 0
3, 31084, Note_on_c, 1, 57, 50
3, 31084, Note_on_c, 1, 61, 100
3, 31144, Note_on_c, 1, 61, 0
3, 31144, Note_on_c, 1, 57, 0
3, 31144, Note_on_c, 1, 56, 30
3, 31144, Note_on_c, 1, 59, 100
3, 31144, Note_on_c, 1, 64, 50
3, 31204, Note_on_c, 1, 64, 0
3, 31204, Note_on_c, 1, 59, 0
3, 31204, Note_on_c, 1, 56, 0
3, 31264, Note_on_c, 1, 56, 30
3, 31264, Note_on_c, 1, 59, 100
3, 31264, Note_on_c, 1, 64, 100
3, 31324, Note_on_c, 1, 64, 0
3, 31324, Note_on_c, 1, 59, 0
3, 31324, Note_on_c, 1, 56, 0
3, 31384, Note_on_c, 1, 52, 100
3, 31444, Note_on_c, 1, 61, 100
3, 31504, Note_on_c, 1, 61, 0
3, 31504, Note_on_c, 1, 59, 100
3, 31564, Note_on_c, 1, 56, 100
3, 31594, Note_on_c, 1, 59, 0
3, 31624, Note_on_c, 1, 52, 100
3, 31654, Note_on_c, 1, 56, 0
3, 31684, Note_on_c, 1, 52, 0
3, 31684, Note_on_c, 1, 52, 0
3, 31684, Note_on_c, 1, 50, 100
3, 31804, Note_on_c, 1, 64, 100
3, 31924, Note_on_c, 1, 64, 0
3, 31924, Note_on_c, 1, 64, 100
3, 31924, Note_on_c, 1, 57, 50
3, 31924, Note_on_c, 1, 62, 100
3, 32044, Note_on_c, 1, 62, 0
3, 32044, Note_on_c, 1, 50, 0
3, 32044, Note_on_c, 1, 64, 0
3, 32044, Note_on_c, 1, 57, 0
3, 32044, Note_on_c, 1, 57, 50
3, 32044, Note_on_c, 1, 61, 100
3, 32104, Note_on_c, 1, 61, 0
3, 32104, Note_on_c, 1, 57, 0
3, 32104, Note_on_c, 1, 56, 30
3, 32104, Note_on_c, 1, 59, 100
3, 32104, Note_on_c, 1, 64, 50
3, 32164, Note_on_c, 1, 64, 0
3, 32164, Note_on_c, 1, 59, 0
3, 32164, Note_on_c, 1, 56, 0
3, 32224, Note_on_c, 1, 56, 30
3, 32224, Note_on_c, 1, 59, 100
3, 32224, Note_on_c, 1, 64, 100
3, 32284, Note_on_c, 1, 64, 0
3, 32284, Note_on_c, 1, 59, 0
3, 32284, Note_on_c, 1, 56, 0
3, 32344, Note_on_c, 1, 52, 100
3, 32404, Note_on_c, 1, 61, 100
3, 32464, Note_on_c, 1, 61, 0
3, 32464, Note_on_c, 1, 59, 100
3, 32524, Note_on_c, 1, 56, 100
3, 32554, Note_on_c, 1, 59, 0
3, 32584, Note_on_c, 1, 52, 100
3, 32614, Note_on_c, 1, 56, 0
3, 32644, Note_on_c, 1, 52, 0
3, 32644, Note_on_c, 1, 52, 0
3, 32653, Note_on_c, 1, 57, 100
3, 32657, Note_on_c, 1, 64, 100
3, 33013, Note_on_c, 1, 57, 0
3, 33017, Note_on_c, 1, 64, 0
3, 33121, Note_on_c, 1, 50, 100
3, 33129, Note_on_c, 1, 57, 100
3, 33134, Note_on_c, 1, 62, 100
3, 33481, Note_on_c, 1, 50, 0
3, 33489, Note_on_c, 1, 57, 0
3, 33494, Note_on_c, 1, 62, 0
3, 33601, Note_on_c, 1, 47, 100
3, 33607, Note_on_c, 1, 54, 100
3, 33611, Note_on_c, 1, 59, 100
3, 33614, Note_on_c, 1, 62, 100
3, 33961, Note_on_c, 1, 47, 0
3, 33964, Note_on_c, 1, 54, 100
3, 33964, Note_on_c, 1, 47, 100
3, 33967, Note_on_c, 1, 54, 0
3, 33971, Note_on_c, 1, 59, 0
3, 33974, Note_on_c, 1, 62, 0
3, 34084, Note_on_c, 1, 47, 0
3, 34084, Note_on_c, 1, 54, 0
3, 34084, Note_on_c, 1, 52, 100
3, 34084, Note_on_c, 1, 40, 100
3, 34144, Note_on_c, 1, 40, 0
3, 34144, Note_on_c, 1, 52, 0
3, 34144, Note_on_c, 1, 52, 100
3, 34144, Note_on_c, 1, 40, 100
3, 34204, Note_on_c, 1, 40, 0
3, 34204, Note_on_c, 1, 52, 0
3, 34204, Note_on_c, 1, 52, 100
3, 34204, Note_on_c, 1, 40, 100
3, 34264, Note_on_c, 1, 40, 0
3, 34264, Note_on_c, 1, 52, 0
3, 34264, Note_on_c, 1, 59, 100
3, 34264, Note_on_c, 1, 52, 100
3, 34264, Note_on_c, 1, 40, 100
3, 34324, Note_on_c, 1, 40, 0
3, 34324, Note_on_c, 1, 52, 0
3, 34324, Note_on_c, 1, 59, 0
3, 34324, Note_on_c, 1, 59, 100
3, 34324, Note_on_c, 1, 52, 100
3, 34324, Note_on_c, 1, 40, 100
3, 34384, Note_on_c, 1, 40, 0
3, 34384, Note_on_c, 1, 52, 0
3, 34384, Note_on_c, 1, 59, 0
3, 34384, Note_on_c, 1, 59, 100
3, 34384, Note_on_c, 1, 52, 100
3, 34384, Note_on_c, 1, 40, 100
3, 34444, Note_on_c, 1, 40, 0
3, 34444, Note_on_c, 1, 52, 0
3, 34444, Note_on_c, 1, 59, 0
3, 34444, Note_on_c, 1, 59, 100
3, 34444, Note_on_c, 1, 52, 100
3, 34444, Note_on_c, 1, 40, 100
3, 34504, Note_on_c, 1, 40, 0
3, 34504, Note_on_c, 1, 52, 0
3, 34504, Note_on_c, 1, 59, 0
3, 34504, Note_on_c, 1, 59, 100
3, 34504, Note_on_c, 1, 52, 100
3, 34504, Note_on_c, 1, 40, 100
3, 34564, Note_on_c, 1, 40, 0
3, 34564, Note_on_c, 1, 52, 0
3, 34564, Note_on_c, 1, 59, 0
3, 34564, Note_on_c, 1, 50, 100
3, 34684, Note_on_c, 1, 64, 100
3, 34804, Note_on_c, 1, 64, 0
3, 34804, Note_on_c, 1, 64, 100
3, 34804, Note_on_c, 1, 57, 50
3, 34804, Note_on_c, 1, 62, 100
3, 34924, Note_on_c, 1, 62, 0
3, 34924, Note_on_c, 1, 50, 0
3, 34924, Note_on_c, 1, 64, 0
3, 34924, Note_on_c, 1, 57, 0
3, 34924, Note_on_c, 1, 57, 50
3, 34924, Note_on_c, 1, 61, 100
3, 34984, Note_on_c, 1, 61, 0
3, 34984, Note_on_c, 1, 57, 0
3, 34984, Note_on_c, 1, 56, 30
3, 34984, Note_on_c, 1, 59, 100
3, 34984, Note_on_c, 1, 64, 50
3, 35044, Note_on_c, 1, 64, 0
3, 35044, Note_on_c, 1, 59, 0
3, 35044, Note_on_c, 1, 56, 0
3, 35104, Note_on_c, 1, 56, 30
3, 35104, Note_on_c, 1, 59, 100
3, 35104, Note_on_c, 1, 64, 100
3, 35164, Note_on_c, 1, 64, 0
3, 35164, Note_on_c, 1, 59, 0
3, 35164, Note_on_c, 1, 56, 0
3, 35224, Note_on_c, 1, 52, 100
3, 35284, Note_on_c, 1, 61, 100
3, 35344, Note_on_c, 1, 61, 0
3, 35344, Note_on_c, 1, 59, 100
3, 35404, Note_on_c, 1, 56, 100
3, 35434, Note_on_c, 1, 59, 0
3, 35464, Note_on_c, 1, 52, 100
3, 35494, Note_on_c, 1, 56, 0
3, 35524, Note_on_c, 1, 52, 0
3, 35524, Note_on_c, 1, 52, 0
3, 35524, Note_on_c, 1, 50, 100
3, 35644, Note_on_c, 1, 64, 100
3, 35764, Note_on_c, 1, 64, 0
3, 35764, Note_on_c, 1, 64, 100
3, 35764, Note_on_c, 1, 57, 50
3, 35764, Note_on_c, 1, 62, 100
3, 35884, Note_on_c, 1, 62, 0
3, 35884, Note_on_c, 1, 50, 0
3, 35884, Note_on_c, 1, 64, 0
3, 35884, Note_on_c, 1, 57, 0
3, 35884, Note_on_c, 1, 57, 50
3, 35884, Note_on_c, 1, 61, 100
3, 35944, Note_on_c, 1, 61, 0
3, 35944, Note_on_c, 1, 57, 0
3, 35944, Note_on_c, 1, 56, 30
3, 35944, Note_on_c, 1, 59, 100
3, 35944, Note_on_c, 1, 64, 50
3, 36004, Note_on_c, 1, 64, 0
3, 36004, Note_on_c, 1, 59, 0
3, 36004, Note_on_c, 1, 56, 0
3, 36064, Note_on_c, 1, 56, 30
3, 36064, Note_on_c, 1, 59, 100
3, 36064, Note_on_c, 1, 64, 100
3, 36124, Note_on_c, 1, 64, 0
3, 36124, Note_on_c, 1, 59, 0
3, 36124, Note_on_c, 1, 56, 0
3, 36184, Note_on_c, 1, 52, 100
3, 36244, Note_on_c, 1, 61, 100
3, 36304, Note_on_c, 1, 61, 0
3, 36304, Note_on_c, 1, 59, 100
3, 36364, Note_on_c, 1, 56, 100
3, 36394, Note_on_c, 1, 59, 0
3, 36424, Note_on_c, 1, 52, 100
3, 36454, Note_on_c, 1, 56, 0
3, 36484, Note_on_c, 1, 52, 0
3, 36484, Note_on_c, 1, 52, 0
3, 36484, Note_on_c, 1, 50, 100
3, 36604, Note_on_c, 1, 64, 100
3, 36724, Note_on_c, 1, 64, 0
3, 36724, Note_on_c, 1, 64, 100
3, 36724, Note_on_c, 1, 57, 50
3, 36724, Note_on_c, 1, 62, 100
3, 36844, Note_on_c, 1, 62, 0
3, 36844, Note_on_c, 1, 50, 0
3, 36844, Note_on_c, 1, 64, 0
3, 36844, Note_on_c, 1, 57, 0
3, 36844, Note_on_c, 1, 57, 50
3, 36844, Note_on_c, 1, 61, 100
3, 36904, Note_on_c, 1, 61, 0
3, 36904, Note_on_c, 1, 57, 0
3, 36904, Note_on_c, 1, 56, 30
3, 36904, Note_on_c, 1, 59, 100
3, 36904, Note_on_c, 1, 64, 50
3, 36964, Note_on_c, 1, 64, 0
3, 36964, Note_on_c, 1, 59, 0
3, 36964, Note_on_c, 1, 56, 0
3, 37024, Note_on_c, 1, 56, 30
3, 37024, Note_on_c, 1, 59, 100
3, 37024, Note_on_c, 1, 64, 100
3, 37084, Note_on_c, 1, 64, 0
3, 37084, Note_on_c, 1, 59, 0
3, 37084, Note_on_c, 1, 56, 0
3, 37144, Note_on_c, 1, 52, 100
3, 37204, Note_on_c, 1, 61, 100
3, 37264, Note_on_c, 1, 61, 0
3, 37264, Note_on_c, 1, 59, 100
3, 37324, Note_on_c, 1, 56, 100
3, 37354, Note_on_c, 1, 59, 0
3, 37384, Note_on_c, 1, 52, 100
3, 37414, Note_on_c, 1, 56, 0
3, 37444, Note_on_c, 1, 52, 0
3, 37444, Note_on_c, 1, 52, 0
3, 37444, Note_on_c, 1, 50, 100
3, 37444, Note_on_c, 1, 57, 100
3, 37449, Note_on_c, 1, 62, 100
3, 37804, Note_on_c, 1, 57, 0
3, 37804, Note_on_c, 1, 50, 0
3, 37809, Note_on_c, 1, 62, 0
3, 37919, Note_on_c, 1, 40, 100
3, 37924, Note_on_c, 1, 47, 100
3, 37929, Note_on_c, 1, 52, 100
3, 37934, Note_on_c, 1, 59, 100
3, 38279, Note_on_c, 1, 40, 0
3, 38284, Note_on_c, 1, 47, 0
3, 38284, Pitch_bend_c, 1, 8320
3, 38284, Note_on_c, 1, 43, 100
3, 38289, Note_on_c, 1, 52, 0
3, 38290, Pitch_bend_c, 1, 8448
3, 38294, Note_on_c, 1, 59, 0
3, 38297, Pitch_bend_c, 1, 8576
3, 38304, Pitch_bend_c, 1, 8704
3, 38310, Pitch_bend_c, 1, 8832
3, 38317, Pitch_bend_c, 1, 8960
3, 38324, Pitch_bend_c, 1, 9088
3, 38330, Pitch_bend_c, 1, 9216
3, 38337, Pitch_bend_c, 1, 9344
3, 38344, Pitch_bend_c, 1, 9472
3, 38350, Pitch_bend_c, 1, 9600
3, 38357, Pitch_bend_c, 1, 9728
3, 38364, Pitch_bend_c, 1, 9856
3, 38370, Pitch_bend_c, 1, 9984
3, 38377, Pitch_bend_c, 1, 10112
3, 38384, Pitch_bend_c, 1, 10240
3, 38390, Pitch_bend_c, 1, 10368
3, 38397, Pitch_bend_c, 1, 10496
3, 38400, Pitch_bend_c, 1, 10624
3, 38404, Note_on_c, 1, 43, 0
3, 38404, Pitch_bend_c, 1, 8192
3, 38404, Note_on_c, 1, 50, 100
3, 38524, Note_on_c, 1, 64, 100
3, 38644, Note_on_c, 1, 64, 0
3, 38644, Note_on_c, 1, 64, 100
3, 38644, Note_on_c, 1, 57, 50
3, 38644, Note_on_c, 1, 62, 100
3, 38764, Note_on_c, 1, 62, 0
3, 38764, Note_on_c, 1, 50, 0
3, 38764, Note_on_c, 1, 64, 0
3, 38764, Note_on_c, 1, 57, 0
3, 38764, Note_on_c, 1, 57, 50
3, 38764, Note_on_c, 1, 61, 100
3, 38824, Note_on_c, 1, 61, 0
3, 38824, Note_on_c, 1, 57, 0
3, 38824, Note_on_c, 1, 56, 30
3, 38824, Note_on_c, 1, 59, 100
3, 38824, Note_on_c, 1, 64, 50
3, 38884, Note_on_c, 1, 64, 0
3, 38884, Note_on_c, 1, 59, 0
3, 38884, Note_on_c, 1, 56, 0
3, 38944, Note_on_c, 1, 56, 30
3, 38944, Note_on_c, 1, 59, 100
3, 38944, Note_on_c, 1, 64, 100
3, 39004, Note_on_c, 1, 64, 0
3, 39004, Note_on_c, 1, 59, 0
3, 39004, Note_on_c, 1, 56, 0
3, 39064, Note_on_c, 1, 52, 100
3, 39124, Note_on_c, 1, 61, 100
3, 39184, Note_on_c, 1, 61, 0
3, 39184, Note_on_c, 1, 59, 100
3, 39244, Note_on_c, 1, 56, 100
3, 39274, Note_on_c, 1, 59, 0
3, 39304, Note_on_c, 1, 52, 100
3, 39334, Note_on_c, 1, 56, 0
3, 39364, Note_on_c, 1, 52, 0
3, 39364, Note_on_c, 1, 52, 0
3, 39364, Note_on_c, 1, 50, 100
3, 39484, Note_on_c, 1, 64, 100
3, 39604, Note_on_c, 1, 64, 0
3, 39604, Note_on_c, 1, 64, 100
3, 39604, Note_on_c, 1, 57, 50
3, 39604, Note_on_c, 1, 62, 100
3, 39724, Note_on_c, 1, 62, 0
3, 39724, Note_on_c, 1, 50, 0
3, 39724, Note_on_c, 1, 64, 0
3, 39724, Note_on_c, 1, 57, 0
3, 39724, Note_on_c, 1, 57, 50
3, 39724, Note_on_c, 1, 61, 100
3, 39784, Note_on_c, 1, 61, 0
3, 39784, Note_on_c, 1, 57, 0
3, 39784, Note_on_c, 1, 56, 30
3, 39784, Note_on_c, 1, 59, 100
3, 39784, Note_on_c, 1, 64, 50
3, 39844, Note_on_c, 1, 64, 0
3, 39844, Note_on_c, 1, 59, 0
3, 39844, Note_on_c, 1, 56, 0
3, 39904, Note_on_c, 1, 56, 30
3, 39904, Note_on_c, 1, 59, 100
3, 39904, Note_on_c, 1, 64, 100
3, 39964, Note_on_c, 1, 64, 0
3, 39964, Note_on_c, 1, 59, 0
3, 39964, Note_on_c, 1, 56, 0
3, 40024, Note_on_c, 1, 52, 100
3, 40084, Note_on_c, 1, 61, 100
3, 40144, Note_on_c, 1, 61, 0
3, 40144, Note_on_c, 1, 59, 100
3, 40204, Note_on_c, 1, 56, 100
3, 40234, Note_on_c, 1, 59, 0
3, 40264, Note_on_c, 1, 52, 100
3, 40294, Note_on_c, 1, 56, 0
3, 40324, Note_on_c, 1, 52, 0
3, 40324, Note_on_c, 1, 52, 0
3, 40324, Note_on_c, 1, 50, 100
3, 40444, Note_on_c, 1, 64, 100
3, 40564, Note_on_c, 1, 64, 0
3, 40564, Note_on_c, 1, 64, 100
3, 40564, Note_on_c, 1, 57, 50
3, 40564, Note_on_c, 1, 62, 100
3, 40684, Note_on_c, 1, 62, 0
3, 40684, Note_on_c, 1, 50, 0
3, 40684, Note_on_c, 1, 64, 0
3, 40684, Note_on_c, 1, 57, 0
3, 40684, Note_on_c, 1, 57, 50
3, 40684, Note_on_c, 1, 61, 100
3, 40744, Note_on_c, 1, 61, 0
3, 40744, Note_on_c, 1, 57, 0
3, 40744, Note_on_c, 1, 56, 30
3, 40744, Note_on_c, 1, 59, 100
3, 40744, Note_on_c, 1, 64, 50
3, 40804, Note_on_c, 1, 64, 0
3, 40804, Note_on_c, 1, 59, 0
3, 40804, Note_on_c, 1, 56, 0
3, 40864, Note_on_c, 1, 56, 30
3, 40864, Note_on_c, 1, 59, 100
3, 40864, Note_on_c, 1, 64, 100
3, 40924, Note_on_c, 1, 64, 0
3, 40924, Note_on_c, 1, 59, 0
3, 40924, Note_on_c, 1, 56, 0
3, 40984, Note_on_c, 1, 52, 100
3, 41044, Note_on_c, 1, 61, 100
3, 41104, Note_on_c, 1, 61, 0
3, 41104, Note_on_c, 1, 59, 100
3, 41164, Note_on_c, 1, 56, 100
3, 41194, Note_on_c, 1, 59, 0
3, 41224, Note_on_c, 1, 52, 100
3, 41254, Note_on_c, 1, 56, 0
3, 41284, Note_on_c, 1, 52, 0
3, 41284, Note_on_c, 1, 52, 0
3, 41284, Note_on_c, 1, 50, 100
3, 41404, Note_on_c, 1, 64, 100
3, 41524, Note_on_c, 1, 64, 0
3, 41524, Note_on_c, 1, 64, 100
3, 41524, Note_on_c, 1, 57, 50
3, 41524, Note_on_c, 1, 62, 100
3, 41644, Note_on_c, 1, 62, 0
3, 41644, Note_on_c, 1, 50, 0
3, 41644, Note_on_c, 1, 64, 0
3, 41644, Note_on_c, 1, 57, 0
3, 41644, Note_on_c, 1, 57, 50
3, 41644, Note_on_c, 1, 61, 100
3, 41704, Note_on_c, 1, 61, 0
3, 41704, Note_on_c, 1, 57, 0
3, 41704, Note_on_c, 1, 56, 30
3, 41704, Note_on_c, 1, 59, 100
3, 41704, Note_on_c, 1, 64, 50
3, 41764, Note_on_c, 1, 64, 0
3, 41764, Note_on_c, 1, 59, 0
3, 41764, Note_on_c, 1, 56, 0
3, 41824, Note_on_c, 1, 56, 30
3, 41824, Note_on_c, 1, 59, 100
3, 41824, Note_on_c, 1, 64, 100
3, 41884, Note_on_c, 1, 64, 0
3, 41884, Note_on_c, 1, 59, 0
3, 41884, Note_on_c, 1, 56, 0
3, 41944, Note_on_c, 1, 52, 100
3, 42004, Note_on_c, 1, 61, 100
3, 42064, Note_on_c, 1, 61, 0
3, 42064, Note_on_c, 1, 59, 100
3, 42124, Note_on_c, 1, 56, 100
3, 42154, Note_on_c, 1, 59, 0
3, 42184, Note_on_c, 1, 52, 100
3, 42214, Note_on_c, 1, 56, 0
3, 42244, Note_on_c, 1, 52, 0
3, 42244, Note_on_c, 1, 52, 0
3, 42244, Note_on_c, 1, 50, 100
3, 42364, Note_on_c, 1, 64, 100
3, 42484, Note_on_c, 1, 64, 0
3, 42484, Note_on_c, 1, 64, 100
3, 42484, Note_on_c, 1, 57, 50
3, 42484, Note_on_c, 1, 62, 100
3, 42604, Note_on_c, 1, 62, 0
3, 42604, Note_on_c, 1, 50, 0
3, 42604, Note_on_c, 1, 64, 0
3, 42604, Note_on_c, 1, 57, 0
3, 42604, Note_on_c, 1, 57, 50
3, 42604, Note_on_c, 1, 61, 100
3, 42664, Note_on_c, 1, 61, 0
3, 42664, Note_on_c, 1, 57, 0
3, 42664, Note_on_c, 1, 56, 30
3, 42664, Note_on_c, 1, 59, 100
3, 42664, Note_on_c, 1, 64, 50
3, 42724, Note_on_c, 1, 64, 0
3, 42724, Note_on_c, 1, 59, 0
3, 42724, Note_on_c, 1, 56, 0
3, 42784, Note_on_c, 1, 56, 30
3, 42784, Note_on_c, 1, 59, 100
3, 42784, Note_on_c, 1, 64, 100
3, 42844, Note_on_c, 1, 64, 0
3, 42844, Note_on_c, 1, 59, 0
3, 42844, Note_on_c, 1, 56, 0
3, 42904, Note_on_c, 1, 52, 100
3, 42964, Note_on_c, 1, 61, 100
3, 43024, Note_on_c, 1, 61, 0
3, 43024, Note_on_c, 1, 59, 100
3, 43084, Note_on_c, 1, 56, 100
3, 43114, Note_on_c, 1, 59, 0
3, 43144, Note_on_c, 1, 52, 100
3, 43174, Note_on_c, 1, 56, 0
3, 43204, Note_on_c, 1, 52, 0
3, 43204, Note_on_c, 1, 52, 0
3, 43204, Note_on_c, 1, 50, 100
3, 43324, Note_on_c, 1, 64, 100
3, 43444, Note_on_c, 1, 64, 0
3, 43444, Note_on_c, 1, 64, 100
3, 43444, Note_on_c, 1, 57, 50
3, 43444, Note_on_c, 1, 62, 100
3, 43564, Note_on_c, 1, 62, 0
3, 43564, Note_on_c, 1, 50, 0
3, 43564, Note_on_c, 1, 64, 0
3, 43564, Note_on_c, 1, 57, 0
3, 43564, Note_on_c, 1, 57, 50
3, 43564, Note_on_c, 1, 61, 100
3, 43624, Note_on_c, 1, 61, 0
3, 43624, Note_on_c, 1, 57, 0
3, 43624, Note_on_c, 1, 56, 30
3, 43624, Note_on_c, 1, 59, 100
3, 43624, Note_on_c, 1, 64, 50
3, 43684, Note_on_c, 1, 64, 0
3, 43684, Note_on_c, 1, 59, 0
3, 43684, Note_on_c, 1, 56, 0
3, 43744, Note_on_c, 1, 56, 30
3, 43744, Note_on_c, 1, 59, 100
3, 43744, Note_on_c, 1, 64, 100
3, 43804, Note_on_c, 1, 64, 0
3, 43804, Note_on_c, 1, 59, 0
3, 43804, Note_on_c, 1, 56, 0
3, 43864, Note_on_c, 1, 52, 100
3, 43924, Note_on_c, 1, 61, 100
3, 43984, Note_on_c, 1, 61, 0
3, 43984, Note_on_c, 1, 59, 100
3, 44044, Note_on_c, 1, 56, 100
3, 44074, Note_on_c, 1, 59, 0
3, 44104, Note_on_c, 1, 52, 100
3, 44134, Note_on_c, 1, 56, 0
3, 44164, Note_on_c, 1, 52, 0
3, 44164, Note_on_c, 1, 52, 0
3, 44164, Note_on_c, 1, 50, 100
3, 44284, Note_on_c, 1, 64, 100
3, 44404, Note_on_c, 1, 64, 0
3, 44404, Note_on_c, 1, 64, 100
3, 44404, Note_on_c, 1, 57, 50
3, 44404, Note_on_c, 1, 62, 100
3, 44524, Note_on_c, 1, 62, 0
3, 44524, Note_on_c, 1, 50, 0
3, 44524, Note_on_c, 1, 64, 0
3, 44524, Note_on_c, 1, 57, 0
3, 44524, Note_on_c, 1, 57, 50
3, 44524, Note_on_c, 1, 61, 100
3, 44584, Note_on_c, 1, 61, 0
3, 44584, Note_on_c, 1, 57, 0
3, 44584, Note_on_c, 1, 56, 30
3, 44584, Note_on_c, 1, 59, 100
3, 44584, Note_on_c, 1, 64, 50
3, 44644, Note_on_c, 1, 64, 0
3, 44644, Note_on_c, 1, 59, 0
3, 44644, Note_on_c, 1, 56, 0
3, 44704, Note_on_c, 1, 56, 30
3, 44704, Note_on_c, 1, 59, 100
3, 44704, Note_on_c, 1, 64, 100
3, 44764, Note_on_c, 1, 64, 0
3, 44764, Note_on_c, 1, 59, 0
3, 44764, Note_on_c, 1, 56, 0
3, 44824, Note_on_c, 1, 52, 100
3, 44884, Note_on_c, 1, 61, 100
3, 44944, Note_on_c, 1, 61, 0
3, 44944, Note_on_c, 1, 59, 100
3, 45004, Note_on_c, 1, 56, 100
3, 45034, Note_on_c, 1, 59, 0
3, 45064, Note_on_c, 1, 52, 100
3, 45094, Note_on_c, 1, 56, 0
3, 45124, Note_on_c, 1, 52, 0
3, 45124, Note_on_c, 1, 52, 0
3, 45124, Note_on_c, 1, 50, 100
3, 45124, Note_on_c, 1, 57, 100
3, 45129, Note_on_c, 1, 62, 100
3, 45484, Note_on_c, 1, 57, 0
3, 45484, Note_on_c, 1, 50, 0
3, 45489, Note_on_c, 1, 62, 0
3, 45599, Note_on_c, 1, 40, 100
3, 45604, Note_on_c, 1, 47, 100
3, 45609, Note_on_c, 1, 52, 100
3, 45614, Note_on_c, 1, 59, 100
3, 45959, Note_on_c, 1, 40, 0
3, 45964, Note_on_c, 1, 47, 0
3, 45964, Pitch_bend_c, 1, 8320
3, 45964, Note_on_c, 1, 43, 100
3, 45969, Note_on_c, 1, 52, 0
3, 45970, Pitch_bend_c, 1, 8448
3, 45974, Note_on_c, 1, 59, 0
3, 45977, Pitch_bend_c, 1, 8576
3, 45984, Pitch_bend_c, 1, 8704
3, 45990, Pitch_bend_c, 1, 8832
3, 45997, Pitch_bend_c, 1, 8960
3, 46004, Pitch_bend_c, 1, 9088
3, 46010, Pitch_bend_c, 1, 9216
3, 46017, Pitch_bend_c, 1, 9344
3, 46024, Pitch_bend_c, 1, 9472
3, 46030, Pitch_bend_c, 1, 9600
3, 46037, Pitch_bend_c, 1, 9728
3, 46044, Pitch_bend_c, 1, 9856
3, 46050, Pitch_bend_c, 1, 9984
3, 46057, Pitch_bend_c, 1, 10112
3, 46064, Pitch_bend_c, 1, 10240
3, 46070, Pitch_bend_c, 1, 10368
3, 46077, Pitch_bend_c, 1, 10496
3, 46080, Pitch_bend_c, 1, 10624
3, 46084, Note_on_c, 1, 43, 0
3, 46084, Pitch_bend_c, 1, 8192
3, 46084, Note_on_c, 1, 50, 100
3, 46204, Note_on_c, 1, 64, 100
3, 46324, Note_on_c, 1, 64, 0
3, 46324, Note_on_c, 1, 64, 100
3, 46324, Note_on_c, 1, 57, 50
3, 46324, Note_on_c, 1, 62, 100
3, 46444, Note_on_c, 1, 62, 0
3, 46444, Note_on_c, 1, 50, 0
3, 46444, Note_on_c, 1, 64, 0
3, 46444, Note_on_c, 1, 57, 0
3, 46444, Note_on_c, 1, 57, 50
3, 46444, Note_on_c, 1, 61, 100
3, 46504, Note_on_c, 1, 61, 0
3, 46504, Note_on_c, 1, 57, 0
3, 46504, Note_on_c, 1, 56, 30
3, 46504, Note_on_c, 1, 59, 100
3, 46504, Note_on_c, 1, 64, 50
3, 46564, Note_on_c, 1, 64, 0
3, 46564, Note_on_c, 1, 59, 0
3, 46564, Note_on_c, 1, 56, 0
3, 46624, Note_on_c, 1, 56, 30
3, 46624, Note_on_c, 1, 59, 100
3, 46624, Note_on_c, 1, 64, 100
3, 46684, Note_on_c, 1, 64, 0
3, 46684, Note_on_c, 1, 59, 0
3, 46684, Note_on_c, 1, 56, 0
3, 46744, Note_on_c, 1, 52, 100
3, 46804, Note_on_c, 1, 61, 100
3, 46864, Note_on_c, 1, 61, 0
3, 46864, Note_on_c, 1, 59, 100
3, 46924, Note_on_c, 1, 56, 100
3, 46954, Note_on_c, 1, 59, 0
3, 46984, Note_on_c, 1, 52, 100
3, 47014, Note_on_c, 1, 56, 0
3, 47044, Note_on_c, 1, 52, 0
3, 47044, Note_on_c, 1, 52, 0
3, 47044, Note_on_c, 1, 50, 100
3, 47164, Note_on_c, 1, 64, 100
3, 47284, Note_on_c, 1, 64, 0
3, 47284, Note_on_c, 1, 64, 100
3, 47284, Note_on_c, 1, 57, 50
3, 47284, Note_on_c, 1, 62, 100
3, 47404, Note_on_c, 1, 62, 0
3, 47404, Note_on_c, 1, 50, 0
3, 47404, Note_on_c, 1, 64, 0
3, 47404, Note_on_c, 1, 57, 0
3, 47404, Note_on_c, 1, 57, 50
3, 47404, Note_on_c, 1, 61, 100
3, 47464, Note_on_c, 1, 61, 0
3, 47464, Note_on_c, 1, 57, 0
3, 47464, Note_on_c, 1, 56, 30
3, 47464, Note_on_c, 1, 59, 100
3, 47464, Note_on_c, 1, 64, 50
3, 47524, Note_on_c, 1, 64, 0
3, 47524, Note_on_c, 1, 59, 0
3, 47524, Note_on_c, 1, 56, 0
3, 47584, Note_on_c, 1, 56, 30
3, 47584, Note_on_c, 1, 59, 100
3, 47584, Note_on_c, 1, 64, 100
3, 47644, Note_on_c, 1, 64, 0
3, 47644, Note_on_c, 1, 59, 0
3, 47644, Note_on_c, 1, 56, 0
3, 47704, Note_on_c, 1, 52, 100
3, 47764, Note_on_c, 1, 61, 100
3, 47824, Note_on_c, 1, 61, 0
3, 47824, Note_on_c, 1, 59, 100
3, 47884, Note_on_c, 1, 56, 100
3, 47914, Note_on_c, 1, 59, 0
3, 47944, Note_on_c, 1, 52, 100
3, 47974, Note_on_c, 1, 56, 0
3, 48004, Note_on_c, 1, 52, 0
3, 48004, Note_on_c, 1, 52, 0
3, 48004, Note_on_c, 1, 50, 100
3, 48124, Note_on_c, 1, 64, 100
3, 48244, Note_on_c, 1, 64, 0
3, 48244, Note_on_c, 1, 64, 100
3, 48244, Note_on_c, 1, 57, 50
3, 48244, Note_on_c, 1, 62, 100
3, 48364, Note_on_c, 1, 62, 0
3, 48364, Note_on_c, 1, 50, 0
3, 48364, Note_on_c, 1, 64, 0
3, 48364, Note_on_c, 1, 57, 0
3, 48364, Note_on_c, 1, 57, 50
3, 48364, Note_on_c, 1, 61, 100
3, 48424, Note_on_c, 1, 61, 0
3, 48424, Note_on_c, 1, 57, 0
3, 48424, Note_on_c, 1, 56, 30
3, 48424, Note_on_c, 1, 59, 100
3, 48424, Note_on_c, 1, 64, 50
3, 48484, Note_on_c, 1, 64, 0
3, 48484, Note_on_c, 1, 59, 0
3, 48484, Note_on_c, 1, 56, 0
3, 48544, Note_on_c, 1, 56, 30
3, 48544, Note_on_c, 1, 59, 100
3, 48544, Note_on_c, 1, 64, 100
3, 48604, Note_on_c, 1, 64, 0
3, 48604, Note_on_c, 1, 59, 0
3, 48604, Note_on_c, 1, 56, 0
3, 48664, Note_on_c, 1, 52, 100
3, 48724, Note_on_c, 1, 61, 100
3, 48784, Note_on_c, 1, 61, 0
3, 48784, Note_on_c, 1, 59, 100
3, 48844, Note_on_c, 1, 56, 100
3, 48874, Note_on_c, 1, 59, 0
3, 48904, Note_on_c, 1, 52, 100
3, 48934, Note_on_c, 1, 56, 0
3, 48964, Note_on_c, 1, 52, 0
3, 48964, Note_on_c, 1, 52, 0
3, 48964, Note_on_c, 1, 50, 100
3, 49084, Note_on_c, 1, 64, 100
3, 49204, Note_on_c, 1, 64, 0
3, 49204, Note_on_c, 1, 64, 100
3, 49204, Note_on_c, 1, 57, 50
3, 49204, Note_on_c, 1, 62, 100
3, 49324, Note_on_c, 1, 62, 0
3, 49324, Note_on_c, 1, 50, 0
3, 49324, Note_on_c, 1, 64, 0
3, 49324, Note_on_c, 1, 57, 0
3, 49324, Note_on_c, 1, 57, 50
3, 49324, Note_on_c, 1, 61, 100
3, 49384, Note_on_c, 1, 61, 0
3, 49384, Note_on_c, 1, 57, 0
3, 49384, Note_on_c, 1, 56, 30
3, 49384, Note_on_c, 1, 59, 100
3, 49384, Note_on_c, 1, 64, 50
3, 49444, Note_on_c, 1, 64, 0
3, 49444, Note_on_c, 1, 59, 0
3, 49444, Note_on_c, 1, 56, 0
3, 49504, Note_on_c, 1, 56, 30
3, 49504, Note_on_c, 1, 59, 100
3, 49504, Note_on_c, 1, 64, 100
3, 49564, Note_on_c, 1, 64, 0
3, 49564, Note_on_c, 1, 59, 0
3, 49564, Note_on_c, 1, 56, 0
3, 49624, Note_on_c, 1, 52, 100
3, 49684, Note_on_c, 1, 61, 100
3, 49744, Note_on_c, 1, 61, 0
3, 49744, Note_on_c, 1, 59, 100
3, 49804, Note_on_c, 1, 56, 100
3, 49834, Note_on_c, 1, 59, 0
3, 49864, Note_on_c, 1, 52, 100
3, 49894, Note_on_c, 1, 56, 0
3, 49924, Note_on_c, 1, 52, 0
3, 49924, Note_on_c, 1, 52, 0
3, 49924, Note_on_c, 1, 50, 100
3, 50044, Note_on_c, 1, 64, 100
3, 50164, Note_on_c, 1, 64, 0
3, 50164, Note_on_c, 1, 64, 100
3, 50164, Note_on_c, 1, 57, 50
3, 50164, Note_on_c, 1, 62, 100
3, 50284, Note_on_c, 1, 62, 0
3, 50284, Note_on_c, 1, 50, 0
3, 50284, Note_on_c, 1, 64, 0
3, 50284, Note_on_c, 1, 57, 0
3, 50284, Note_on_c, 1, 57, 50
3, 50284, Note_on_c, 1, 61, 100
3, 50344, Note_on_c, 1, 61, 0
3, 50344, Note_on_c, 1, 57, 0
3, 50344, Note_on_c, 1, 56, 30
3, 50344, Note_on_c, 1, 59, 100
3, 50344, Note_on_c, 1, 64, 50
3, 50404, Note_on_c, 1, 64, 0
3, 50404, Note_on_c, 1, 59, 0
3, 50404, Note_on_c, 1, 56, 0
3, 50464, Note_on_c, 1, 56, 30
3, 50464, Note_on_c, 1, 59, 100
3, 50464, Note_on_c, 1, 64, 100
3, 50524, Note_on_c, 1, 64, 0
3, 50524, Note_on_c, 1, 59, 0
3, 50524, Note_on_c, 1, 56, 0
3, 50584, Note_on_c, 1, 52, 100
3, 50644, Note_on_c, 1, 61, 100
3, 50704, Note_on_c, 1, 61, 0
3, 50704, Note_on_c, 1, 59, 100
3, 50764, Note_on_c, 1, 56, 100
3, 50794, Note_on_c, 1, 59, 0
3, 50824, Note_on_c, 1, 52, 100
3, 50854, Note_on_c, 1, 56, 0
3, 50884, Note_on_c, 1, 52, 0
3, 50884, Note_on_c, 1, 52, 0
3, 50884, Note_on_c, 1, 50, 100
3, 51004, Note_on_c, 1, 64, 100
3, 51124, Note_on_c, 1, 64, 0
3, 51124, Note_on_c, 1, 64, 100
3, 51124, Note_on_c, 1, 57, 50
3, 51124, Note_on_c, 1, 62, 100
3, 51244, Note_on_c, 1, 62, 0
3, 51244, Note_on_c, 1, 50, 0
3, 51244, Note_on_c, 1, 64, 0
3, 51244, Note_on_c, 1, 57, 0
3, 51244, Note_on_c, 1, 57, 50
3, 51244, Note_on_c, 1, 61, 100
3, 51304, Note_on_c, 1, 61, 0
3, 51304, Note_on_c, 1, 57, 0
3, 51304, Note_on_c, 1, 56, 30
3, 51304, Note_on_c, 1, 59, 100
3, 51304, Note_on_c, 1, 64, 50
3, 51364, Note_on_c, 1, 64, 0
3, 51364, Note_on_c, 1, 59, 0
3, 51364, Note_on_c, 1, 56, 0
3, 51424, Note_on_c, 1, 56, 30
3, 51424, Note_on_c, 1, 59, 100
3, 51424, Note_on_c, 1, 64, 100
3, 51484, Note_on_c, 1, 64, 0
3, 51484, Note_on_c, 1, 59, 0
3, 51484, Note_on_c, 1, 56, 0
3, 51544, Note_on_c, 1, 52, 100
3, 51604, Note_on_c, 1, 61, 100
3, 51664, Note_on_c, 1, 61, 0
3, 51664, Note_on_c, 1, 59, 100
3, 51724, Note_on_c, 1, 56, 100
3, 51754, Note_on_c, 1, 59, 0
3, 51784, Note_on_c, 1, 52, 100
3, 51814, Note_on_c, 1, 56, 0
3, 51844, Note_on_c, 1, 52, 0
3, 51844, Note_on_c, 1, 52, 0
3, 51844, Note_on_c, 1, 50, 100
3, 51964, Note_on_c, 1, 64, 100
3, 52084, Note_on_c, 1, 64, 0
3, 52084, Note_on_c, 1, 64, 100
3, 52084, Note_on_c, 1, 57, 50
3, 52084, Note_on_c, 1, 62, 100
3, 52204, Note_on_c, 1, 62, 0
3, 52204, Note_on_c, 1, 50, 0
3, 52204, Note_on_c, 1, 64, 0
3, 52204, Note_on_c, 1, 57, 0
3, 52204, Note_on_c, 1, 57, 50
3, 52204, Note_on_c, 1, 61, 100
3, 52264, Note_on_c, 1, 61, 0
3, 52264, Note_on_c, 1, 57, 0
3, 52264, Note_on_c, 1, 56, 30
3, 52264, Note_on_c, 1, 59, 100
3, 52264, Note_on_c, 1, 64, 50
3, 52324, Note_on_c, 1, 64, 0
3, 52324, Note_on_c, 1, 59, 0
3, 52324, Note_on_c, 1, 56, 0
3, 52384, Note_on_c, 1, 56, 30
3, 52384, Note_on_c, 1, 59, 100
3, 52384, Note_on_c, 1, 64, 100
3, 52444, Note_on_c, 1, 64, 0
3, 52444, Note_on_c, 1, 59, 0
3, 52444, Note_on_c, 1, 56, 0
3, 52504, Note_on_c, 1, 52, 100
3, 52564, Note_on_c, 1, 61, 100
3, 52624, Note_on_c, 1, 61, 0
3, 52624, Note_on_c, 1, 59, 100
3, 52684, Note_on_c, 1, 56, 100
3, 52714, Note_on_c, 1, 59, 0
3, 52744, Note_on_c, 1, 52, 100
3, 52774, Note_on_c, 1, 56, 0
3, 52804, Note_on_c, 1, 52, 0
3, 52804, Note_on_c, 1, 52, 0
3, 52804, Note_on_c, 1, 50, 100
3, 52924, Note_on_c, 1, 64, 100
3, 53044, Note_on_c, 1, 64, 0
3, 53044, Note_on_c, 1, 64, 100
3, 53044, Note_on_c, 1, 57, 50
3, 53044, Note_on_c, 1, 62, 100
3, 53164, Note_on_c, 1, 62, 0
3, 53164, Note_on_c, 1, 50, 0
3, 53164, Note_on_c, 1, 64, 0
3, 53164, Note_on_c, 1, 57, 0
3, 53164, Note_on_c, 1, 57, 50
3, 53164, Note_on_c, 1, 61, 100
3, 53224, Note_on_c, 1, 61, 0
3, 53224, Note_on_c, 1, 57, 0
3, 53224, Note_on_c, 1, 56, 30
3, 53224, Note_on_c, 1, 59, 100
3, 53224, Note_on_c, 1, 64, 50
3, 53284, Note_on_c, 1, 64, 0
3, 53284, Note_on_c, 1, 59, 0
3, 53284, Note_on_c, 1, 56, 0
3, 53344, Note_on_c, 1, 56, 30
3, 53344, Note_on_c, 1, 59, 100
3, 53344, Note_on_c, 1, 64, 100
3, 53404, Note_on_c, 1, 64, 0
3, 53404, Note_on_c, 1, 59, 0
3, 53404, Note_on_c, 1, 56, 0
3, 53464, Note_on_c, 1, 52, 100
3, 53524, Note_on_c, 1, 61, 100
3, 53584, Note_on_c, 1, 61, 0
3, 53584, Note_on_c, 1, 59, 100
3, 53644, Note_on_c, 1, 56, 100
3, 53674, Note_on_c, 1, 59, 0
3, 53704, Note_on_c, 1, 52, 100
3, 53734, Note_on_c, 1, 56, 0
3, 53764, Note_on_c, 1, 52, 0
3, 53764, Note_on_c, 1, 52, 0
3, 53764, Note_on_c, 1, 50, 100
3, 53884, Note_on_c, 1, 64, 100
3, 54004, Note_on_c, 1, 64, 0
3, 54004, Note_on_c, 1, 64, 100
3, 54004, Note_on_c, 1, 57, 50
3, 54004, Note_on_c, 1, 62, 100
3, 54124, Note_on_c, 1, 62, 0
3, 54124, Note_on_c, 1, 50, 0
3, 54124, Note_on_c, 1, 64, 0
3, 54124, Note_on_c, 1, 57, 0
3, 54124, Note_on_c, 1, 57, 50
3, 54124, Note_on_c, 1, 61, 100
3, 54184, Note_on_c, 1, 61, 0
3, 54184, Note_on_c, 1, 57, 0
3, 54184, Note_on_c, 1, 56, 30
3, 54184, Note_on_c, 1, 59, 100
3, 54184, Note_on_c, 1, 64, 50
3, 54244, Note_on_c, 1, 64, 0
3, 54244, Note_on_c, 1, 59, 0
3, 54244, Note_on_c, 1, 56, 0
3, 54304, Note_on_c, 1, 56, 30
3, 54304, Note_on_c, 1, 59, 100
3, 54304, Note_on_c, 1, 64, 100
3, 54364, Note_on_c, 1, 64, 0
3, 54364, Note_on_c, 1, 59, 0
3, 54364, Note_on_c, 1, 56, 0
3, 54424, Note_on_c, 1, 52, 100
3, 54484, Note_on_c, 1, 61, 100
3, 54544, Note_on_c, 1, 61, 0
3, 54544, Note_on_c, 1, 59, 100
3, 54604, Note_on_c, 1, 56, 100
3, 54634, Note_on_c, 1, 59, 0
3, 54664, Note_on_c, 1, 52, 100
3, 54694, Note_on_c, 1, 56, 0
3, 54724, Note_on_c, 1, 52, 0
3, 54724, Note_on_c, 1, 52, 0
3, 54724, Note_on_c, 1, 50, 100
3, 54844, Note_on_c, 1, 64, 100
3, 54964, Note_on_c, 1, 64, 0
3, 54964, Note_on_c, 1, 64, 100
3, 54964, Note_on_c, 1, 57, 50
3, 54964, Note_on_c, 1, 62, 100
3, 55084, Note_on_c, 1, 62, 0
3, 55084, Note_on_c, 1, 50, 0
3, 55084, Note_on_c, 1, 64, 0
3, 55084, Note_on_c, 1, 57, 0
3, 55084, Note_on_c, 1, 57, 50
3, 55084, Note_on_c, 1, 61, 100
3, 55144, Note_on_c, 1, 61, 0
3, 55144, Note_on_c, 1, 57, 0
3, 55144, Note_on_c, 1, 56, 30
3, 55144, Note_on_c, 1, 59, 100
3, 55144, Note_on_c, 1, 64, 50
3, 55204, Note_on_c, 1, 64, 0
3, 55204, Note_on_c, 1, 59, 0
3, 55204, Note_on_c, 1, 56, 0
3, 55264, Note_on_c, 1, 56, 30
3, 55264, Note_on_c, 1, 59, 100
3, 55264, Note_on_c, 1, 64, 100
3, 55324, Note_on_c, 1, 64, 0
3, 55324, Note_on_c, 1, 59, 0
3, 55324, Note_on_c, 1, 56, 0
3, 55384, Note_on_c, 1, 52, 100
3, 55444, Note_on_c, 1, 61, 100
3, 55504, Note_on_c, 1, 61, 0
3, 55504, Note_on_c, 1, 59, 100
3, 55564, Note_on_c, 1, 56, 100
3, 55594, Note_on_c, 1, 59, 0
3, 55624, Note_on_c, 1, 52, 100
3, 55654, Note_on_c, 1, 56, 0
3, 55684, Note_on_c, 1, 52, 0
3, 55684, Note_on_c, 1, 52, 0
3, 55684, Note_on_c, 1, 50, 100
3, 55804, Note_on_c, 1, 64, 100
3, 55924, Note_on_c, 1, 64, 0
3, 55924, Note_on_c, 1, 64, 100
3, 55924, Note_on_c, 1, 57, 50
3, 55924, Note_on_c, 1, 62, 100
3, 56044, Note_on_c, 1, 62, 0
3, 56044, Note_on_c, 1, 50, 0
3, 56044, Note_on_c, 1, 64, 0
3, 56044, Note_on_c, 1, 57, 0
3, 56044, Note_on_c, 1, 57, 50
3, 56044, Note_on_c, 1, 61, 100
3, 56104, Note_on_c, 1, 61, 0
3, 56104, Note_on_c, 1, 57, 0
3, 56104, Note_on_c, 1, 56, 30
3, 56104, Note_on_c, 1, 59, 100
3, 56104, Note_on_c, 1, 64, 50
3, 56164, Note_on_c, 1, 64, 0
3, 56164, Note_on_c, 1, 59, 0
3, 56164, Note_on_c, 1, 56, 0
3, 56224, Note_on_c, 1, 56, 30
3, 56224, Note_on_c, 1, 59, 100
3, 56224, Note_on_c, 1, 64, 100
3, 56284, Note_on_c, 1, 64, 0
3, 56284, Note_on_c, 1, 59, 0
3, 56284, Note_on_c, 1, 56, 0
3, 56344, Note_on_c, 1, 52, 100
3, 56404, Note_on_c, 1, 61, 100
3, 56464, Note_on_c, 1, 61, 0
3, 56464, Note_on_c, 1, 59, 100
3, 56524, Note_on_c, 1, 56, 100
3, 56554, Note_on_c, 1, 59, 0
3, 56584, Note_on_c, 1, 52, 100
3, 56614, Note_on_c, 1, 56, 0
3, 56644, Note_on_c, 1, 52, 0
3, 56644, Note_on_c, 1, 52, 0
3, 56644, Note_on_c, 1, 50, 100
3, 56764, Note_on_c, 1, 64, 100
3, 56884, Note_on_c, 1, 64, 0
3, 56884, Note_on_c, 1, 64, 100
3, 56884, Note_on_c, 1, 57, 50
3, 56884, Note_on_c, 1, 62, 100
3, 57004, Note_on_c, 1, 62, 0
3, 57004, Note_on_c, 1, 50, 0
3, 57004, Note_on_c, 1, 64, 0
3, 57004, Note_on_c, 1, 57, 0
3, 57004, Note_on_c, 1, 57, 50
3, 57004, Note_on_c, 1, 61, 100
3, 57064, Note_on_c, 1, 61, 0
3, 57064, Note_on_c, 1, 57, 0
3, 57064, Note_on_c, 1, 56, 30
3, 57064, Note_on_c, 1, 59, 100
3, 57064, Note_on_c, 1, 64, 50
3, 57124, Note_on_c, 1, 64, 0
3, 57124, Note_on_c, 1, 59, 0
3, 57124, Note_on_c, 1, 56, 0
3, 57184, Note_on_c, 1, 56, 30
3, 57184, Note_on_c, 1, 59, 100
3, 57184, Note_on_c, 1, 64, 100
3, 57244, Note_on_c, 1, 64, 0
3, 57244, Note_on_c, 1, 59, 0
3, 57244, Note_on_c, 1, 56, 0
3, 57304, Note_on_c, 1, 52, 100
3, 57364, Note_on_c, 1, 61, 100
3, 57424, Note_on_c, 1, 61, 0
3, 57424, Note_on_c, 1, 59, 100
3, 57484, Note_on_c, 1, 56, 100
3, 57514, Note_on_c, 1, 59, 0
3, 57544, Note_on_c, 1, 52, 100
3, 57574, Note_on_c, 1, 56, 0
3, 57604, Note_on_c, 1, 52, 0
3, 57604, Note_on_c, 1, 52, 0
3, 57604, Note_on_c, 1, 50, 100
3, 57724, Note_on_c, 1, 64, 100
3, 57844, Note_on_c, 1, 64, 0
3, 57844, Note_on_c, 1, 64, 100
3, 57844, Note_on_c, 1, 57, 50
3, 57844, Note_on_c, 1, 62, 100
3, 57964, Note_on_c, 1, 62, 0
3, 57964, Note_on_c, 1, 50, 0
3, 57964, Note_on_c, 1, 64, 0
3, 57964, Note_on_c, 1, 57, 0
3, 57964, Note_on_c, 1, 57, 50
3, 57964, Note_on_c, 1, 61, 100
3, 58024, Note_on_c, 1, 61, 0
3, 58024, Note_on_c, 1, 57, 0
3, 58024, Note_on_c, 1, 56, 30
3, 58024, Note_on_c, 1, 59, 100
3, 58024, Note_on_c, 1, 64, 50
3, 58084, Note_on_c, 1, 64, 0
3, 58084, Note_on_c, 1, 59, 0
3, 58084, Note_on_c, 1, 56, 0
3, 58144, Note_on_c, 1, 56, 30
3, 58144, Note_on_c, 1, 59, 100
3, 58144, Note_on_c, 1, 64, 100
3, 58204, Note_on_c, 1, 64, 0
3, 58204, Note_on_c, 1, 59, 0
3, 58204, Note_on_c, 1, 56, 0
3, 58264, Note_on_c, 1, 52, 100
3, 58324, Note_on_c, 1, 61, 100
3, 58384, Note_on_c, 1, 61, 0
3, 58384, Note_on_c, 1, 59, 100
3, 58444, Note_on_c, 1, 56, 100
3, 58474, Note_on_c, 1, 59, 0
3, 58504, Note_on_c, 1, 52, 100
3, 58534, Note_on_c, 1, 56, 0
3, 58564, Note_on_c, 1, 52, 0
3, 58564, Note_on_c, 1, 52, 0
3, 58564, Note_on_c, 1, 50, 100
3, 58684, Note_on_c, 1, 64, 100
3, 58804, Note_on_c, 1, 64, 0
3, 58804, Note_on_c, 1, 64, 100
3, 58804, Note_on_c, 1, 57, 50
3, 58804, Note_on_c, 1, 62, 100
3, 58924, Note_on_c, 1, 62, 0
3, 58924, Note_on_c, 1, 50, 0
3, 58924, Note_on_c, 1, 64, 0
3, 58924, Note_on_c, 1, 57, 0
3, 58924, Note_on_c, 1, 57, 50
3, 58924, Note_on_c, 1, 61, 100
3, 58984, Note_on_c, 1, 61, 0
3, 58984, Note_on_c, 1, 57, 0
3, 58984, Note_on_c, 1, 56, 30
3, 58984, Note_on_c, 1, 59, 100
3, 58984, Note_on_c, 1, 64, 50
3, 59044, Note_on_c, 1, 64, 0
3, 59044, Note_on_c, 1, 59, 0
3, 59044, Note_on_c, 1, 56, 0
3, 59104, Note_on_c, 1, 56, 30
3, 59104, Note_on_c, 1, 59, 100
3, 59104, Note_on_c, 1, 64, 100
3, 59164, Note_on_c, 1, 64, 0
3, 59164, Note_on_c, 1, 59, 0
3, 59164, Note_on_c, 1, 56, 0
3, 59224, Note_on_c, 1, 52, 100
3, 59284, Note_on_c, 1, 61, 100
3, 59344, Note_on_c, 1, 61, 0
3, 59344, Note_on_c, 1, 59, 100
3, 59404, Note_on_c, 1, 56, 100
3, 59434, Note_on_c, 1, 59, 0
3, 59464, Note_on_c, 1, 52, 100
3, 59494, Note_on_c, 1, 56, 0
3, 59524, Note_on_c, 1, 52, 0
3, 59524, Note_on_c, 1, 52, 0
3, 59524, Note_on_c, 1, 50, 100
3, 59644, Note_on_c, 1, 64, 100
3, 59764, Note_on_c, 1, 64, 0
3, 59764, Note_on_c, 1, 64, 100
3, 59764, Note_on_c, 1, 57, 50
3, 59764, Note_on_c, 1, 62, 100
3, 59884, Note_on_c, 1, 62, 0
3, 59884, Note_on_c, 1, 50, 0
3, 59884, Note_on_c, 1, 64, 0
3, 59884, Note_on_c, 1, 57, 0
3, 59884, Note_on_c, 1, 57, 50
3, 59884, Note_on_c, 1, 61, 100
3, 59944, Note_on_c, 1, 61, 0
3, 59944, Note_on_c, 1, 57, 0
3, 59944, Note_on_c, 1, 56, 30
3, 59944, Note_on_c, 1, 59, 100
3, 59944, Note_on_c, 1, 64, 50
3, 60004, Note_on_c, 1, 64, 0
3, 60004, Note_on_c, 1, 59, 0
3, 60004, Note_on_c, 1, 56, 0
3, 60064, Note_on_c, 1, 56, 30
3, 60064, Note_on_c, 1, 59, 100
3, 60064, Note_on_c, 1, 64, 100
3, 60124, Note_on_c, 1, 64, 0
3, 60124, Note_on_c, 1, 59, 0
3, 60124, Note_on_c, 1, 56, 0
3, 60184, Note_on_c, 1, 52, 100
3, 60244, Note_on_c, 1, 61, 100
3, 60304, Note_on_c, 1, 61, 0
3, 60304, Note_on_c, 1, 59, 100
3, 60364, Note_on_c, 1, 56, 100
3, 60394, Note_on_c, 1, 59, 0
3, 60424, Note_on_c, 1, 52, 100
3, 60454, Note_on_c, 1, 56, 0
3, 60484, Note_on_c, 1, 52, 0
3, 60484, Note_on_c, 1, 52, 0
3, 60484, Note_on_c, 1, 50, 100
3, 60604, Note_on_c, 1, 64, 100
3, 60724, Note_on_c, 1, 64, 0
3, 60724, Note_on_c, 1, 64, 100
3, 60724, Note_on_c, 1, 57, 50
3, 60724, Note_on_c, 1, 62, 100
3, 60844, Note_on_c, 1, 62, 0
3, 60844, Note_on_c, 1, 50, 0
3, 60844, Note_on_c, 1, 64, 0
3, 60844, Note_on_c, 1, 57, 0
3, 60844, Note_on_c, 1, 57, 50
3, 60844, Note_on_c, 1, 61, 100
3, 60904, Note_on_c, 1, 61, 0
3, 60904, Note_on_c, 1, 57, 0
3, 60904, Note_on_c, 1, 56, 30
3, 60904, Note_on_c, 1, 59, 100
3, 60904, Note_on_c, 1, 64, 50
3, 60964, Note_on_c, 1, 64, 0
3, 60964, Note_on_c, 1, 59, 0
3, 60964, Note_on_c, 1, 56, 0
3, 61024, Note_on_c, 1, 56, 30
3, 61024, Note_on_c, 1, 59, 100
3, 61024, Note_on_c, 1, 64, 100
3, 61084, Note_on_c, 1, 64, 0
3, 61084, Note_on_c, 1, 59, 0
3, 61084, Note_on_c, 1, 56, 0
3, 61144, Note_on_c, 1, 52, 100
3, 61204, Note_on_c, 1, 61, 100
3, 61264, Note_on_c, 1, 61, 0
3, 61264, Note_on_c, 1, 59, 100
3, 61324, Note_on_c, 1, 56, 100
3, 61354, Note_on_c, 1, 59, 0
3, 61384, Note_on_c, 1, 52, 100
3, 61414, Note_on_c, 1, 56, 0
3, 61444, Note_on_c, 1, 52, 0
3, 61444, Note_on_c, 1, 52, 0
3, 61444, Note_on_c, 1, 50, 100
3, 61564, Note_on_c, 1, 64, 100
3, 61684, Note_on_c, 1, 64, 0
3, 61684, Note_on_c, 1, 64, 100
3, 61684, Note_on_c, 1, 57, 50
3, 61684, Note_on_c, 1, 62, 100
3, 61804, Note_on_c, 1, 62, 0
3, 61804, Note_on_c, 1, 50, 0
3, 61804, Note_on_c, 1, 64, 0
3, 61804, Note_on_c, 1, 57, 0
3, 61804, Note_on_c, 1, 57, 50
3, 61804, Note_on_c, 1, 61, 100
3, 61864, Note_on_c, 1, 61, 0
3, 61864, Note_on_c, 1, 57, 0
3, 61864, Note_on_c, 1, 56, 30
3, 61864, Note_on_c, 1, 59, 100
3, 61864, Note_on_c, 1, 64, 50
3, 61924, Note_on_c, 1, 64, 0
3, 61924, Note_on_c, 1, 59, 0
3, 61924, Note_on_c, 1, 56, 0
3, 61984, Note_on_c, 1, 56, 30
3, 61984, Note_on_c, 1, 59, 100
3, 61984, Note_on_c, 1, 64, 100
3, 62044, Note_on_c, 1, 64, 0
3, 62044, Note_on_c, 1, 59, 0
3, 62044, Note_on_c, 1, 56, 0
3, 62104, Note_on_c, 1, 52, 100
3, 62164, Note_on_c, 1, 61, 100
3, 62224, Note_on_c, 1, 61, 0
3, 62224, Note_on_c, 1, 59, 100
3, 62284, Note_on_c, 1, 56, 100
3, 62314, Note_on_c, 1, 59, 0
3, 62344, Note_on_c, 1, 52, 100
3, 62374, Note_on_c, 1, 56, 0
3, 62404, Note_on_c, 1, 52, 0
3, 62404, Note_on_c, 1, 52, 0
3, 62404, Note_on_c, 1, 50, 100
3, 62524, Note_on_c, 1, 64, 100
3, 62644, Note_on_c, 1, 64, 0
3, 62644, Note_on_c, 1, 64, 100
3, 62644, Note_on_c, 1, 57, 50
3, 62644, Note_on_c, 1, 62, 100
3, 62764, Note_on_c, 1, 62, 0
3, 62764, Note_on_c, 1, 50, 0
3, 62764, Note_on_c, 1, 64, 0
3, 62764, Note_on_c, 1, 57, 0
3, 62764, Note_on_c, 1, 57, 50
3, 62764, Note_on_c, 1, 61, 100
3, 62824, Note_on_c, 1, 61, 0
3, 62824, Note_on_c, 1, 57, 0
3, 62824, Note_on_c, 1, 56, 30
3, 62824, Note_on_c, 1, 59, 100
3, 62824, Note_on_c, 1, 64, 50
3, 62884, Note_on_c, 1, 64, 0
3, 62884, Note_on_c, 1, 59, 0
3, 62884, Note_on_c, 1, 56, 0
3, 62944, Note_on_c, 1, 56, 30
3, 62944, Note_on_c, 1, 59, 100
3, 62944, Note_on_c, 1, 64, 100
3, 63004, Note_on_c, 1, 64, 0
3, 63004, Note_on_c, 1, 59, 0
3, 63004, Note_on_c, 1, 56, 0
3, 63064, Note_on_c, 1, 52, 100
3, 63124, Note_on_c, 1, 61, 100
3, 63184, Note_on_c, 1, 61, 0
3, 63184, Note_on_c, 1, 59, 100
3, 63244, Note_on_c, 1, 56, 100
3, 63274, Note_on_c, 1, 59, 0
3, 63304, Note_on_c, 1, 52, 100
3, 63334, Note_on_c, 1, 56, 0
3, 63364, Note_on_c, 1, 52, 0
3, 63364, Note_on_c, 1, 52, 0
3, 63364, Note_on_c, 1, 62, 100
3, 63364, Note_on_c, 1, 57, 100
3, 63364, Note_on_c, 1, 50, 100
3, 63844, Note_on_c, 1, 50, 0
3, 63844, Note_on_c, 1, 57, 0
3, 63844, Note_on_c, 1, 62, 0
3, 63844, End_track
4, 0, Start_track
4, 0, MIDI_port, 0
4, 0, Program_c, 2, 16
4, 0, Control_c, 2, 7, 100
4, 3420, Note_on_c, 2, 52, 127
4, 3480, Note_on_c, 2, 52, 0
4, 3480, Note_on_c, 2, 50, 127
4, 3540, Note_on_c, 2, 50, 0
4, 3540, Note_on_c, 2, 49, 127
4, 3600, Note_on_c, 2, 49, 0
4, 3600, Note_on_c, 2, 47, 127
4, 3660, Note_on_c, 2, 47, 0
4, 3660, Note_on_c, 2, 45, 127
4, 3720, Note_on_c, 2, 45, 0
4, 3720, Note_on_c, 2, 44, 127
4, 3780, Note_on_c, 2, 44, 0
4, 3780, Note_on_c, 2, 42, 127
4, 3840, Note_on_c, 2, 42, 0
4, 3840, Note_on_c, 2, 50, 127
4, 3960, Note_on_c, 2, 50, 0
4, 3960, Note_on_c, 2, 50, 127
4, 4080, Note_on_c, 2, 50, 0
4, 4080, Note_on_c, 2, 50, 127
4, 4140, Note_on_c, 2, 50, 0
4, 4140, Note_on_c, 2, 49, 127
4, 4200, Note_on_c, 2, 49, 0
4, 4200, Note_on_c, 2, 50, 127
4, 4260, Note_on_c, 2, 50, 0
4, 4260, Note_on_c, 2, 52, 127
4, 4380, Note_on_c, 2, 52, 0
4, 4380, Note_on_c, 2, 52, 127
4, 4500, Note_on_c, 2, 52, 0
4, 4500, Note_on_c, 2, 52, 127
4, 4560, Note_on_c, 2, 52, 0
4, 4560, Note_on_c, 2, 47, 127
4, 4620, Note_on_c, 2, 47, 0
4, 4620, Note_on_c, 2, 50, 127
4, 4680, Note_on_c, 2, 50, 0
4, 4680, Note_on_c, 2, 49, 127
4, 4740, Note_on_c, 2, 49, 0
4, 4740, Note_on_c, 2, 52, 127
4, 4800, Note_on_c, 2, 52, 0
4, 4800, Note_on_c, 2, 50, 127
4, 4920, Note_on_c, 2, 50, 0
4, 4920, Note_on_c, 2, 50, 127
4, 5040, Note_on_c, 2, 50, 0
4, 5040, Note_on_c, 2, 50, 127
4, 5100, Note_on_c, 2, 50, 0
4, 5100, Note_on_c, 2, 49, 127
4, 5160, Note_on_c, 2, 49, 0
4, 5160, Note_on_c, 2, 50, 127
4, 5220, Note_on_c, 2, 50, 0
4, 5220, Note_on_c, 2, 52, 127
4, 5340, Note_on_c, 2, 52, 0
4, 5340, Note_on_c, 2, 52, 127
4, 5460, Note_on_c, 2, 52, 0
4, 5460, Note_on_c, 2, 52, 127
4, 5520, Note_on_c, 2, 52, 0
4, 5520, Note_on_c, 2, 47, 127
4, 5580, Note_on_c, 2, 47, 0
4, 5580, Note_on_c, 2, 50, 127
4, 5640, Note_on_c, 2, 50, 0
4, 5640, Note_on_c, 2, 49, 127
4, 5700, Note_on_c, 2, 49, 0
4, 5700, Note_on_c, 2, 52, 127
4, 5760, Note_on_c, 2, 52, 0
4, 5760, Note_on_c, 2, 50, 127
4, 5880, Note_on_c, 2, 50, 0
4, 5880, Note_on_c, 2, 50, 127
4, 6000, Note_on_c, 2, 50, 0
4, 6000, Note_on_c, 2, 50, 127
4, 6060, Note_on_c, 2, 50, 0
4, 6060, Note_on_c, 2, 49, 127
4, 6120, Note_on_c, 2, 49, 0
4, 6120, Note_on_c, 2, 50, 127
4, 6180, Note_on_c, 2, 50, 0
4, 6180, Note_on_c, 2, 52, 127
4, 6300, Note_on_c, 2, 52, 0
4, 6300, Note_on_c, 2, 52, 127
4, 6420, Note_on_c, 2, 52, 0
4, 6420, Note_on_c, 2, 52, 127
4, 6480, Note_on_c, 2, 52, 0
4, 6480, Note_on_c, 2, 47, 127
4, 6540, Note_on_c, 2, 47, 0
4, 6540, Note_on_c, 2, 50, 127
4, 6600, Note_on_c, 2, 50, 0
4, 6600, Note_on_c, 2, 49, 127
4, 6660, Note_on_c, 2, 49, 0
4, 6660, Note_on_c, 2, 52, 127
4, 6720, Note_on_c, 2, 52, 0
4, 6720, Note_on_c, 2, 50, 127
4, 6840, Note_on_c, 2, 50, 0
4, 6840, Note_on_c, 2, 50, 127
4, 6960, Note_on_c, 2, 50, 0
4, 6960, Note_on_c, 2, 50, 127
4, 7020, Note_on_c, 2, 50, 0
4, 7020, Note_on_c, 2, 49, 127
4, 7080, Note_on_c, 2, 49, 0
4, 7080, Note_on_c, 2, 50, 127
4, 7140, Note_on_c, 2, 50, 0
4, 7140, Note_on_c, 2, 52, 127
4, 7260, Note_on_c, 2, 52, 0
4, 7260, Note_on_c, 2, 52, 127
4, 7380, Note_on_c, 2, 52, 0
4, 7380, Note_on_c, 2, 52, 127
4, 7440, Note_on_c, 2, 52, 0
4, 7440, Note_on_c, 2, 47, 127
4, 7500, Note_on_c, 2, 47, 0
4, 7500, Note_on_c, 2, 50, 127
4, 7560, Note_on_c, 2, 50, 0
4, 7560, Note_on_c, 2, 49, 127
4, 7620, Note_on_c, 2, 49, 0
4, 7620, Note_on_c, 2, 52, 127
4, 7680, Note_on_c, 2, 52, 0
4, 7680, Note_on_c, 2, 50, 127
4, 7800, Note_on_c, 2, 50, 0
4, 7800, Note_on_c, 2, 50, 127
4, 7920, Note_on_c, 2, 50, 0
4, 7920, Note_on_c, 2, 50, 127
4, 7980, Note_on_c, 2, 50, 0
4, 7980, Note_on_c, 2, 49, 127
4, 8040, Note_on_c, 2, 49, 0
4, 8040, Note_on_c, 2, 50, 127
4, 8100, Note_on_c, 2, 50, 0
4, 8100, Note_on_c, 2, 52, 127
4, 8220, Note_on_c, 2, 52, 0
4, 8220, Note_on_c, 2, 52, 127
4, 8340, Note_on_c, 2, 52, 0
4, 8340, Note_on_c, 2, 52, 127
4, 8400, Note_on_c, 2, 52, 0
4, 8400, Note_on_c, 2, 47, 127
4, 8460, Note_on_c, 2, 47, 0
4, 8460, Note_on_c, 2, 50, 127
4, 8520, Note_on_c, 2, 50, 0
4, 8520, Note_on_c, 2, 49, 127
4, 8580, Note_on_c, 2, 49, 0
4, 8580, Note_on_c, 2, 52, 127
4, 8640, Note_on_c, 2, 52, 0
4, 8640, Note_on_c, 2, 50, 127
4, 8760, Note_on_c, 2, 50, 0
4, 8760, Note_on_c, 2, 50, 127
4, 8880, Note_on_c, 2, 50, 0
4, 8880, Note_on_c, 2, 50, 127
4, 8940, Note_on_c, 2, 50, 0
4, 8940, Note_on_c, 2, 49, 127
4, 9000, Note_on_c, 2, 49, 0
4, 9000, Note_on_c, 2, 50, 127
4, 9060, Note_on_c, 2, 50, 0
4, 9060, Note_on_c, 2, 52, 127
4, 9180, Note_on_c, 2, 52, 0
4, 9180, Note_on_c, 2, 52, 127
4, 9300, Note_on_c, 2, 52, 0
4, 9300, Note_on_c, 2, 52, 127
4, 9360, Note_on_c, 2, 52, 0
4, 9360, Note_on_c, 2, 47, 127
4, 9420, Note_on_c, 2, 47, 0
4, 9420, Note_on_c, 2, 50, 127
4, 9480, Note_on_c, 2, 50, 0
4, 9480, Note_on_c, 2, 49, 127
4, 9540, Note_on_c, 2, 49, 0
4, 9540, Note_on_c, 2, 52, 127
4, 9600, Note_on_c, 2, 52, 0
4, 9600, Note_on_c, 2, 50, 127
4, 9720, Note_on_c, 2, 50, 0
4, 9720, Note_on_c, 2, 50, 127
4, 9840, Note_on_c, 2, 50, 0
4, 9840, Note_on_c, 2, 50, 127
4, 9900, Note_on_c, 2, 50, 0
4, 9900, Note_on_c, 2, 49, 127
4, 9960, Note_on_c, 2, 49, 0
4, 9960, Note_on_c, 2, 50, 127
4, 10020, Note_on_c, 2, 50, 0
4, 10020, Note_on_c, 2, 52, 127
4, 10140, Note_on_c, 2, 52, 0
4, 10140, Note_on_c, 2, 52, 127
4, 10260, Note_on_c, 2, 52, 0
4, 10260, Note_on_c, 2, 52, 127
4, 10320, Note_on_c, 2, 52, 0
4, 10320, Note_on_c, 2, 47, 127
4, 10380, Note_on_c, 2, 47, 0
4, 10380, Note_on_c, 2, 50, 127
4, 10440, Note_on_c, 2, 50, 0
4, 10440, Note_on_c, 2, 49, 127
4, 10500, Note_on_c, 2, 49, 0
4, 10500, Note_on_c, 2, 52, 127
4, 10560, Note_on_c, 2, 52, 0
4, 10560, Note_on_c, 2, 50, 127
4, 10680, Note_on_c, 2, 50, 0
4, 10680, Note_on_c, 2, 50, 127
4, 10800, Note_on_c, 2, 50, 0
4, 10800, Note_on_c, 2, 50, 127
4, 10860, Note_on_c, 2, 50, 0
4, 10860, Note_on_c, 2, 49, 127
4, 10920, Note_on_c, 2, 49, 0
4, 10920, Note_on_c, 2, 50, 127
4, 10980, Note_on_c, 2, 50, 0
4, 10980, Note_on_c, 2, 52, 127
4, 11100, Note_on_c, 2, 52, 0
4, 11100, Note_on_c, 2, 52, 127
4, 11220, Note_on_c, 2, 52, 0
4, 11220, Note_on_c, 2, 52, 127
4, 11280, Note_on_c, 2, 52, 0
4, 11280, Note_on_c, 2, 47, 127
4, 11340, Note_on_c, 2, 47, 0
4, 11340, Note_on_c, 2, 50, 127
4, 11400, Note_on_c, 2, 50, 0
4, 11400, Note_on_c, 2, 49, 127
4, 11460, Note_on_c, 2, 49, 0
4, 11460, Note_on_c, 2, 52, 127
4, 11520, Note_on_c, 2, 52, 0
4, 11520, Note_on_c, 2, 50, 127
4, 11640, Note_on_c, 2, 50, 0
4, 11640, Note_on_c, 2, 50, 127
4, 11760, Note_on_c, 2, 50, 0
4, 11760, Note_on_c, 2, 50, 127
4, 11820, Note_on_c, 2, 50, 0
4, 11820, Note_on_c, 2, 49, 127
4, 11880, Note_on_c, 2, 49, 0
4, 11880, Note_on_c, 2, 50, 127
4, 11940, Note_on_c, 2, 50, 0
4, 11940, Note_on_c, 2, 52, 127
4, 12060, Note_on_c, 2, 52, 0
4, 12060, Note_on_c, 2, 52, 127
4, 12180, Note_on_c, 2, 52, 0
4, 12180, Note_on_c, 2, 52, 127
4, 12240, Note_on_c, 2, 52, 0
4, 12240, Note_on_c, 2, 47, 127
4, 12300, Note_on_c, 2, 47, 0
4, 12300, Note_on_c, 2, 50, 127
4, 12360, Note_on_c, 2, 50, 0
4, 12360, Note_on_c, 2, 49, 127
4, 12420, Note_on_c, 2, 49, 0
4, 12420, Note_on_c, 2, 52, 127
4, 12480, Note_on_c, 2, 52, 0
4, 12480, Note_on_c, 2, 50, 127
4, 12600, Note_on_c, 2, 50, 0
4, 12600, Note_on_c, 2, 50, 127
4, 12720, Note_on_c, 2, 50, 0
4, 12720, Note_on_c, 2, 50, 127
4, 12780, Note_on_c, 2, 50, 0
4, 12780, Note_on_c, 2, 49, 127
4, 12840, Note_on_c, 2, 49, 0
4, 12840, Note_on_c, 2, 50, 127
4, 12900, Note_on_c, 2, 50, 0
4, 12900, Note_on_c, 2, 52, 127
4, 13020, Note_on_c, 2, 52, 0
4, 13020, Note_on_c, 2, 52, 127
4, 13140, Note_on_c, 2, 52, 0
4, 13140, Note_on_c, 2, 52, 127
4, 13200, Note_on_c, 2, 52, 0
4, 13200, Note_on_c, 2, 47, 127
4, 13260, Note_on_c, 2, 47, 0
4, 13260, Note_on_c, 2, 50, 127
4, 13320, Note_on_c, 2, 50, 0
4, 13320, Note_on_c, 2, 49, 127
4, 13380, Note_on_c, 2, 49, 0
4, 13380, Note_on_c, 2, 52, 127
4, 13440, Note_on_c, 2, 52, 0
4, 13440, Note_on_c, 2, 50, 127
4, 13560, Note_on_c, 2, 50, 0
4, 13560, Note_on_c, 2, 50, 127
4, 13680, Note_on_c, 2, 50, 0
4, 13680, Note_on_c, 2, 50, 127
4, 13740, Note_on_c, 2, 50, 0
4, 13740, Note_on_c, 2, 49, 127
4, 13800, Note_on_c, 2, 49, 0
4, 13800, Note_on_c, 2, 50, 127
4, 13860, Note_on_c, 2, 50, 0
4, 13860, Note_on_c, 2, 52, 127
4, 13980, Note_on_c, 2, 52, 0
4, 13980, Note_on_c, 2, 52, 127
4, 14100, Note_on_c, 2, 52, 0
4, 14100, Note_on_c, 2, 52, 127
4, 14160, Note_on_c, 2, 52, 0
4, 14160, Note_on_c, 2, 47, 127
4, 14220, Note_on_c, 2, 47, 0
4, 14220, Note_on_c, 2, 50, 127
4, 14280, Note_on_c, 2, 50, 0
4, 14280, Note_on_c, 2, 49, 127
4, 14340, Note_on_c, 2, 49, 0
4, 14340, Note_on_c, 2, 52, 127
4, 14400, Note_on_c, 2, 52, 0
4, 14400, Note_on_c, 2, 50, 127
4, 14520, Note_on_c, 2, 50, 0
4, 14520, Note_on_c, 2, 50, 127
4, 14640, Note_on_c, 2, 50, 0
4, 14640, Note_on_c, 2, 50, 127
4, 14700, Note_on_c, 2, 50, 0
4, 14700, Note_on_c, 2, 49, 127
4, 14760, Note_on_c, 2, 49, 0
4, 14760, Note_on_c, 2, 50, 127
4, 14820, Note_on_c, 2, 50, 0
4, 14820, Note_on_c, 2, 52, 127
4, 14940, Note_on_c, 2, 52, 0
4, 14940, Note_on_c, 2, 52, 127
4, 15060, Note_on_c, 2, 52, 0
4, 15060, Note_on_c, 2, 52, 127
4, 15120, Note_on_c, 2, 52, 0
4, 15120, Note_on_c, 2, 47, 127
4, 15180, Note_on_c, 2, 47, 0
4, 15180, Note_on_c, 2, 50, 127
4, 15240, Note_on_c, 2, 50, 0
4, 15240, Note_on_c, 2, 49, 127
4, 15300, Note_on_c, 2, 49, 0
4, 15300, Note_on_c, 2, 52, 127
4, 15360, Note_on_c, 2, 52, 0
4, 15360, Note_on_c, 2, 45, 127
4, 15480, Note_on_c, 2, 45, 0
4, 15480, Note_on_c, 2, 45, 127
4, 15600, Note_on_c, 2, 45, 0
4, 15600, Note_on_c, 2, 45, 127
4, 15660, Note_on_c, 2, 45, 0
4, 15660, Note_on_c, 2, 42, 127
4, 15720, Note_on_c, 2, 42, 0
4, 15720, Note_on_c, 2, 45, 127
4, 15780, Note_on_c, 2, 45, 0
4, 15780, Note_on_c, 2, 49, 127
4, 15840, Note_on_c, 2, 49, 0
4, 15840, Note_on_c, 2, 50, 127
4, 15960, Note_on_c, 2, 50, 0
4, 15960, Note_on_c, 2, 50, 127
4, 16080, Note_on_c, 2, 50, 0
4, 16080, Note_on_c, 2, 50, 127
4, 16140, Note_on_c, 2, 50, 0
4, 16140, Note_on_c, 2, 49, 127
4, 16200, Note_on_c, 2, 49, 0
4, 16200, Note_on_c, 2, 50, 127
4, 16260, Note_on_c, 2, 50, 0
4, 16260, Note_on_c, 2, 49, 127
4, 16320, Note_on_c, 2, 49, 0
4, 16320, Note_on_c, 2, 47, 127
4, 16440, Note_on_c, 2, 47, 0
4, 16440, Note_on_c, 2, 47, 127
4, 16560, Note_on_c, 2, 47, 0
4, 16560, Note_on_c, 2, 47, 127
4, 16620, Note_on_c, 2, 47, 0
4, 16620, Note_on_c, 2, 49, 127
4, 16680, Note_on_c, 2, 49, 0
4, 16680, Note_on_c, 2, 47, 127
4, 16740, Note_on_c, 2, 47, 0
4, 16740, Note_on_c, 2, 45, 127
4, 16800, Note_on_c, 2, 45, 0
4, 16800, Note_on_c, 2, 40, 127
4, 16920, Note_on_c, 2, 40, 0
4, 16920, Note_on_c, 2, 40, 127
4, 17040, Note_on_c, 2, 40, 0
4, 17040, Note_on_c, 2, 40, 127
4, 17160, Note_on_c, 2, 40, 0
4, 17160, Note_on_c, 2, 40, 127
4, 17280, Note_on_c, 2, 40, 0
4, 17280, Note_on_c, 2, 50, 127
4, 17400, Note_on_c, 2, 50, 0
4, 17400, Note_on_c, 2, 50, 127
4, 17520, Note_on_c, 2, 50, 0
4, 17520, Note_on_c, 2, 50, 127
4, 17580, Note_on_c, 2, 50, 0
4, 17580, Note_on_c, 2, 49, 127
4, 17640, Note_on_c, 2, 49, 0
4, 17640, Note_on_c, 2, 50, 127
4, 17700, Note_on_c, 2, 50, 0
4, 17700, Note_on_c, 2, 52, 127
4, 17820, Note_on_c, 2, 52, 0
4, 17820, Note_on_c, 2, 52, 127
4, 17940, Note_on_c, 2, 52, 0
4, 17940, Note_on_c, 2, 52, 127
4, 18000, Note_on_c, 2, 52, 0
4, 18000, Note_on_c, 2, 47, 127
4, 18060, Note_on_c, 2, 47, 0
4, 18060, Note_on_c, 2, 50, 127
4, 18120, Note_on_c, 2, 50, 0
4, 18120, Note_on_c, 2, 49, 127
4, 18180, Note_on_c, 2, 49, 0
4, 18180, Note_on_c, 2, 52, 127
4, 18240, Note_on_c, 2, 52, 0
4, 18240, Note_on_c, 2, 50, 127
4, 18360, Note_on_c, 2, 50, 0
4, 18360, Note_on_c, 2, 50, 127
4, 18480, Note_on_c, 2, 50, 0
4, 18480, Note_on_c, 2, 50, 127
4, 18540, Note_on_c, 2, 50, 0
4, 18540, Note_on_c, 2, 49, 127
4, 18600, Note_on_c, 2, 49, 0
4, 18600, Note_on_c, 2, 50, 127
4, 18660, Note_on_c, 2, 50, 0
4, 18660, Note_on_c, 2, 52, 127
4, 18780, Note_on_c, 2, 52, 0
4, 18780, Note_on_c, 2, 52, 127
4, 18900, Note_on_c, 2, 52, 0
4, 18900, Note_on_c, 2, 52, 127
4, 18960, Note_on_c, 2, 52, 0
4, 18960, Note_on_c, 2, 47, 127
4, 19020, Note_on_c, 2, 47, 0
4, 19020, Note_on_c, 2, 50, 127
4, 19080, Note_on_c, 2, 50, 0
4, 19080, Note_on_c, 2, 49, 127
4, 19140, Note_on_c, 2, 49, 0
4, 19140, Note_on_c, 2, 52, 127
4, 19200, Note_on_c, 2, 52, 0
4, 19200, Note_on_c, 2, 50, 127
4, 19320, Note_on_c, 2, 50, 0
4, 19320, Note_on_c, 2, 50, 127
4, 19440, Note_on_c, 2, 50, 0
4, 19440, Note_on_c, 2, 50, 127
4, 19500, Note_on_c, 2, 50, 0
4, 19500, Note_on_c, 2, 49, 127
4, 19560, Note_on_c, 2, 49, 0
4, 19560, Note_on_c, 2, 50, 127
4, 19620, Note_on_c, 2, 50, 0
4, 19620, Note_on_c, 2, 52, 127
4, 19740, Note_on_c, 2, 52, 0
4, 19740, Note_on_c, 2, 52, 127
4, 19860, Note_on_c, 2, 52, 0
4, 19860, Note_on_c, 2, 52, 127
4, 19920, Note_on_c, 2, 52, 0
4, 19920, Note_on_c, 2, 47, 127
4, 19980, Note_on_c, 2, 47, 0
4, 19980, Note_on_c, 2, 50, 127
4, 20040, Note_on_c, 2, 50, 0
4, 20040, Note_on_c, 2, 49, 127
4, 20100, Note_on_c, 2, 49, 0
4, 20100, Note_on_c, 2, 52, 127
4, 20160, Note_on_c, 2, 52, 0
4, 20160, Note_on_c, 2, 50, 127
4, 20640, Note_on_c, 2, 50, 0
4, 20640, Note_on_c, 2, 52, 127
4, 21120, Note_on_c, 2, 52, 0
4, 22620, Note_on_c, 2, 52, 127
4, 22680, Note_on_c, 2, 52, 0
4, 22680, Note_on_c, 2, 50, 127
4, 22740, Note_on_c, 2, 50, 0
4, 22740, Note_on_c, 2, 49, 127
4, 22800, Note_on_c, 2, 49, 0
4, 22800, Note_on_c, 2, 47, 127
4, 22860, Note_on_c, 2, 47, 0
4, 22860, Note_on_c, 2, 45, 127
4, 22920, Note_on_c, 2, 45, 0
4, 22920, Note_on_c, 2, 44, 127
4, 22980, Note_on_c, 2, 44, 0
4, 22980, Note_on_c, 2, 42, 127
4, 23040, Note_on_c, 2, 42, 0
4, 23040, Note_on_c, 2, 50, 127
4, 23160, Note_on_c, 2, 50, 0
4, 23160, Note_on_c, 2, 50, 127
4, 23280, Note_on_c, 2, 50, 0
4, 23280, Note_on_c, 2, 50, 127
4, 23340, Note_on_c, 2, 50, 0
4, 23340, Note_on_c, 2, 49, 127
4, 23400, Note_on_c, 2, 49, 0
4, 23400, Note_on_c, 2, 50, 127
4, 23460, Note_on_c, 2, 50, 0
4, 23460, Note_on_c, 2, 52, 127
4, 23580, Note_on_c, 2, 52, 0
4, 23580, Note_on_c, 2, 52, 127
4, 23700, Note_on_c, 2, 52, 0
4, 23700, Note_on_c, 2, 52, 127
4, 23760, Note_on_c, 2, 52, 0
4, 23760, Note_on_c, 2, 47, 127
4, 23820, Note_on_c, 2, 47, 0
4, 23820, Note_on_c, 2, 50, 127
4, 23880, Note_on_c, 2, 50, 0
4, 23880, Note_on_c, 2, 49, 127
4, 23940, Note_on_c, 2, 49, 0
4, 23940, Note_on_c, 2, 52, 127
4, 24000, Note_on_c, 2, 52, 0
4, 24000, Note_on_c, 2, 50, 127
4, 24120, Note_on_c, 2, 50, 0
4, 24120, Note_on_c, 2, 50, 127
4, 24240, Note_on_c, 2, 50, 0
4, 24240, Note_on_c, 2, 50, 127
4, 24300, Note_on_c, 2, 50, 0
4, 24300, Note_on_c, 2, 49, 127
4, 24360, Note_on_c, 2, 49, 0
4, 24360, Note_on_c, 2, 50, 127
4, 24420, Note_on_c, 2, 50, 0
4, 24420, Note_on_c, 2, 52, 127
4, 24540, Note_on_c, 2, 52, 0
4, 24540, Note_on_c, 2, 52, 127
4, 24660, Note_on_c, 2, 52, 0
4, 24660, Note_on_c, 2, 52, 127
4, 24720, Note_on_c, 2, 52, 0
4, 24720, Note_on_c, 2, 47, 127
4, 24780, Note_on_c, 2, 47, 0
4, 24780, Note_on_c, 2, 50, 127
4, 24840, Note_on_c, 2, 50, 0
4, 24840, Note_on_c, 2, 49, 127
4, 24900, Note_on_c, 2, 49, 0
4, 24900, Note_on_c, 2, 52, 127
4, 24960, Note_on_c, 2, 52, 0
4, 24960, Note_on_c, 2, 50, 127
4, 25080, Note_on_c, 2, 50, 0
4, 25080, Note_on_c, 2, 50, 127
4, 25200, Note_on_c, 2, 50, 0
4, 25200, Note_on_c, 2, 50, 127
4, 25260, Note_on_c, 2, 50, 0
4, 25260, Note_on_c, 2, 49, 127
4, 25320, Note_on_c, 2, 49, 0
4, 25320, Note_on_c, 2, 50, 127
4, 25380, Note_on_c, 2, 50, 0
4, 25380, Note_on_c, 2, 52, 127
4, 25500, Note_on_c, 2, 52, 0
4, 25500, Note_on_c, 2, 52, 127
4, 25620, Note_on_c, 2, 52, 0
4, 25620, Note_on_c, 2, 52, 127
4, 25680, Note_on_c, 2, 52, 0
4, 25680, Note_on_c, 2, 47, 127
4, 25740, Note_on_c, 2, 47, 0
4, 25740, Note_on_c, 2, 50, 127
4, 25800, Note_on_c, 2, 50, 0
4, 25800, Note_on_c, 2, 49, 127
4, 25860, Note_on_c, 2, 49, 0
4, 25860, Note_on_c, 2, 52, 127
4, 25920, Note_on_c, 2, 52, 0
4, 25920, Note_on_c, 2, 50, 127
4, 26040, Note_on_c, 2, 50, 0
4, 26040, Note_on_c, 2, 50, 127
4, 26160, Note_on_c, 2, 50, 0
4, 26160, Note_on_c, 2, 50, 127
4, 26220, Note_on_c, 2, 50, 0
4, 26220, Note_on_c, 2, 49, 127
4, 26280, Note_on_c, 2, 49, 0
4, 26280, Note_on_c, 2, 50, 127
4, 26340, Note_on_c, 2, 50, 0
4, 26340, Note_on_c, 2, 52, 127
4, 26460, Note_on_c, 2, 52, 0
4, 26460, Note_on_c, 2, 52, 127
4, 26580, Note_on_c, 2, 52, 0
4, 26580, Note_on_c, 2, 52, 127
4, 26640, Note_on_c, 2, 52, 0
4, 26640, Note_on_c, 2, 47, 127
4, 26700, Note_on_c, 2, 47, 0
4, 26700, Note_on_c, 2, 50, 127
4, 26760, Note_on_c, 2, 50, 0
4, 26760, Note_on_c, 2, 49, 127
4, 26820, Note_on_c, 2, 49, 0
4, 26820, Note_on_c, 2, 52, 127
4, 26880, Note_on_c, 2, 52, 0
4, 26880, Note_on_c, 2, 50, 127
4, 27000, Note_on_c, 2, 50, 0
4, 27000, Note_on_c, 2, 50, 127
4, 27120, Note_on_c, 2, 50, 0
4, 27120, Note_on_c, 2, 50, 127
4, 27180, Note_on_c, 2, 50, 0
4, 27180, Note_on_c, 2, 49, 127
4, 27240, Note_on_c, 2, 49, 0
4, 27240, Note_on_c, 2, 50, 127
4, 27300, Note_on_c, 2, 50, 0
4, 27300, Note_on_c, 2, 52, 127
4, 27420, Note_on_c, 2, 52, 0
4, 27420, Note_on_c, 2, 52, 127
4, 27540, Note_on_c, 2, 52, 0
4, 27540, Note_on_c, 2, 52, 127
4, 27600, Note_on_c, 2, 52, 0
4, 27600, Note_on_c, 2, 47, 127
4, 27660, Note_on_c, 2, 47, 0
4, 27660, Note_on_c, 2, 50, 127
4, 27720, Note_on_c, 2, 50, 0
4, 27720, Note_on_c, 2, 49, 127
4, 27780, Note_on_c, 2, 49, 0
4, 27780, Note_on_c, 2, 52, 127
4, 27840, Note_on_c, 2, 52, 0
4, 27840, Note_on_c, 2, 50, 127
4, 27960, Note_on_c, 2, 50, 0
4, 27960, Note_on_c, 2, 50, 127
4, 28080, Note_on_c, 2, 50, 0
4, 28080, Note_on_c, 2, 50, 127
4, 28140, Note_on_c, 2, 50, 0
4, 28140, Note_on_c, 2, 49, 127
4, 28200, Note_on_c, 2, 49, 0
4, 28200, Note_on_c, 2, 50, 127
4, 28260, Note_on_c, 2, 50, 0
4, 28260, Note_on_c, 2, 52, 127
4, 28380, Note_on_c, 2, 52, 0
4, 28380, Note_on_c, 2, 52, 127
4, 28500, Note_on_c, 2, 52, 0
4, 28500, Note_on_c, 2, 52, 127
4, 28560, Note_on_c, 2, 52, 0
4, 28560, Note_on_c, 2, 47, 127
4, 28620, Note_on_c, 2, 47, 0
4, 28620, Note_on_c, 2, 50, 127
4, 28680, Note_on_c, 2, 50, 0
4, 28680, Note_on_c, 2, 49, 127
4, 28740, Note_on_c, 2, 49, 0
4, 28740, Note_on_c, 2, 52, 127
4, 28800, Note_on_c, 2, 52, 0
4, 28800, Note_on_c, 2, 50, 127
4, 28920, Note_on_c, 2, 50, 0
4, 28920, Note_on_c, 2, 50, 127
4, 29040, Note_on_c, 2, 50, 0
4, 29040, Note_on_c, 2, 50, 127
4, 29100, Note_on_c, 2, 50, 0
4, 29100, Note_on_c, 2, 49, 127
4, 29160, Note_on_c, 2, 49, 0
4, 29160, Note_on_c, 2, 50, 127
4, 29220, Note_on_c, 2, 50, 0
4, 29220, Note_on_c, 2, 52, 127
4, 29340, Note_on_c, 2, 52, 0
4, 29340, Note_on_c, 2, 52, 127
4, 29460, Note_on_c, 2, 52, 0
4, 29460, Note_on_c, 2, 52, 127
4, 29520, Note_on_c, 2, 52, 0
4, 29520, Note_on_c, 2, 47, 127
4, 29580, Note_on_c, 2, 47, 0
4, 29580, Note_on_c, 2, 50, 127
4, 29640, Note_on_c, 2, 50, 0
4, 29640, Note_on_c, 2, 49, 127
4, 29700, Note_on_c, 2, 49, 0
4, 29700, Note_on_c, 2, 52, 127
4, 29760, Note_on_c, 2, 52, 0
4, 29760, Note_on_c, 2, 50, 127
4, 29880, Note_on_c, 2, 50, 0
4, 29880, Note_on_c, 2, 50, 127
4, 30000, Note_on_c, 2, 50, 0
4, 30000, Note_on_c, 2, 50, 127
4, 30060, Note_on_c, 2, 50, 0
4, 30060, Note_on_c, 2, 49, 127
4, 30120, Note_on_c, 2, 49, 0
4, 30120, Note_on_c, 2, 50, 127
4, 30180, Note_on_c, 2, 50, 0
4, 30180, Note_on_c, 2, 52, 127
4, 30300, Note_on_c, 2, 52, 0
4, 30300, Note_on_c, 2, 52, 127
4, 30420, Note_on_c, 2, 52, 0
4, 30420, Note_on_c, 2, 52, 127
4, 30480, Note_on_c, 2, 52, 0
4, 30480, Note_on_c, 2, 47, 127
4, 30540, Note_on_c, 2, 47, 0
4, 30540, Note_on_c, 2, 50, 127
4, 30600, Note_on_c, 2, 50, 0
4, 30600, Note_on_c, 2, 49, 127
4, 30660, Note_on_c, 2, 49, 0
4, 30660, Note_on_c, 2, 52, 127
4, 30720, Note_on_c, 2, 52, 0
4, 30720, Note_on_c, 2, 50, 127
4, 30840, Note_on_c, 2, 50, 0
4, 30840, Note_on_c, 2, 50, 127
4, 30960, Note_on_c, 2, 50, 0
4, 30960, Note_on_c, 2, 50, 127
4, 31020, Note_on_c, 2, 50, 0
4, 31020, Note_on_c, 2, 49, 127
4, 31080, Note_on_c, 2, 49, 0
4, 31080, Note_on_c, 2, 50, 127
4, 31140, Note_on_c, 2, 50, 0
4, 31140, Note_on_c, 2, 52, 127
4, 31260, Note_on_c, 2, 52, 0
4, 31260, Note_on_c, 2, 52, 127
4, 31380, Note_on_c, 2, 52, 0
4, 31380, Note_on_c, 2, 52, 127
4, 31440, Note_on_c, 2, 52, 0
4, 31440, Note_on_c, 2, 47, 127
4, 31500, Note_on_c, 2, 47, 0
4, 31500, Note_on_c, 2, 50, 127
4, 31560, Note_on_c, 2, 50, 0
4, 31560, Note_on_c, 2, 49, 127
4, 31620, Note_on_c, 2, 49, 0
4, 31620, Note_on_c, 2, 52, 127
4, 31680, Note_on_c, 2, 52, 0
4, 31680, Note_on_c, 2, 50, 127
4, 31800, Note_on_c, 2, 50, 0
4, 31800, Note_on_c, 2, 50, 127
4, 31920, Note_on_c, 2, 50, 0
4, 31920, Note_on_c, 2, 50, 127
4, 31980, Note_on_c, 2, 50, 0
4, 31980, Note_on_c, 2, 49, 127
4, 32040, Note_on_c, 2, 49, 0
4, 32040, Note_on_c, 2, 50, 127
4, 32100, Note_on_c, 2, 50, 0
4, 32100, Note_on_c, 2, 52, 127
4, 32220, Note_on_c, 2, 52, 0
4, 32220, Note_on_c, 2, 52, 127
4, 32340, Note_on_c, 2, 52, 0
4, 32340, Note_on_c, 2, 52, 127
4, 32400, Note_on_c, 2, 52, 0
4, 32400, Note_on_c, 2, 47, 127
4, 32460, Note_on_c, 2, 47, 0
4, 32460, Note_on_c, 2, 50, 127
4, 32520, Note_on_c, 2, 50, 0
4, 32520, Note_on_c, 2, 49, 127
4, 32580, Note_on_c, 2, 49, 0
4, 32580, Note_on_c, 2, 52, 127
4, 32640, Note_on_c, 2, 52, 0
4, 32640, Note_on_c, 2, 45, 127
4, 32760, Note_on_c, 2, 45, 0
4, 32760, Note_on_c, 2, 45, 127
4, 32880, Note_on_c, 2, 45, 0
4, 32880, Note_on_c, 2, 45, 127
4, 32940, Note_on_c, 2, 45, 0
4, 32940, Note_on_c, 2, 42, 127
4, 33000, Note_on_c, 2, 42, 0
4, 33000, Note_on_c, 2, 45, 127
4, 33060, Note_on_c, 2, 45, 0
4, 33060, Note_on_c, 2, 49, 127
4, 33120, Note_on_c, 2, 49, 0
4, 33120, Note_on_c, 2, 50, 127
4, 33240, Note_on_c, 2, 50, 0
4, 33240, Note_on_c, 2, 50, 127
4, 33360, Note_on_c, 2, 50, 0
4, 33360, Note_on_c, 2, 50, 127
4, 33420, Note_on_c, 2, 50, 0
4, 33420, Note_on_c, 2, 49, 127
4, 33480, Note_on_c, 2, 49, 0
4, 33480, Note_on_c, 2, 50, 127
4, 33540, Note_on_c, 2, 50, 0
4, 33540, Note_on_c, 2, 49, 127
4, 33600, Note_on_c, 2, 49, 0
4, 33600, Note_on_c, 2, 47, 127
4, 33720, Note_on_c, 2, 47, 0
4, 33720, Note_on_c, 2, 47, 127
4, 33840, Note_on_c, 2, 47, 0
4, 33840, Note_on_c, 2, 47, 127
4, 33900, Note_on_c, 2, 47, 0
4, 33900, Note_on_c, 2, 49, 127
4, 33960, Note_on_c, 2, 49, 0
4, 33960, Note_on_c, 2, 47, 127
4, 34020, Note_on_c, 2, 47, 0
4, 34020, Note_on_c, 2, 45, 127
4, 34080, Note_on_c, 2, 45, 0
4, 34080, Note_on_c, 2, 40, 127
4, 34200, Note_on_c, 2, 40, 0
4, 34200, Note_on_c, 2, 40, 127
4, 34320, Note_on_c, 2, 40, 0
4, 34320, Note_on_c, 2, 40, 127
4, 34440, Note_on_c, 2, 40, 0
4, 34440, Note_on_c, 2, 40, 127
4, 34560, Note_on_c, 2, 40, 0
4, 34560, Note_on_c, 2, 50, 127
4, 34680, Note_on_c, 2, 50, 0
4, 34680, Note_on_c, 2, 50, 127
4, 34800, Note_on_c, 2, 50, 0
4, 34800, Note_on_c, 2, 50, 127
4, 34860, Note_on_c, 2, 50, 0
4, 34860, Note_on_c, 2, 49, 127
4, 34920, Note_on_c, 2, 49, 0
4, 34920, Note_on_c, 2, 50, 127
4, 34980, Note_on_c, 2, 50, 0
4, 34980, Note_on_c, 2, 52, 127
4, 35100, Note_on_c, 2, 52, 0
4, 35100, Note_on_c, 2, 52, 127
4, 35220, Note_on_c, 2, 52, 0
4, 35220, Note_on_c, 2, 52, 127
4, 35280, Note_on_c, 2, 52, 0
4, 35280, Note_on_c, 2, 47, 127
4, 35340, Note_on_c, 2, 47, 0
4, 35340, Note_on_c, 2, 50, 127
4, 35400, Note_on_c, 2, 50, 0
4, 35400, Note_on_c, 2, 49, 127
4, 35460, Note_on_c, 2, 49, 0
4, 35460, Note_on_c, 2, 52, 127
4, 35520, Note_on_c, 2, 52, 0
4, 35520, Note_on_c, 2, 50, 127
4, 35640, Note_on_c, 2, 50, 0
4, 35640, Note_on_c, 2, 50, 127
4, 35760, Note_on_c, 2, 50, 0
4, 35760, Note_on_c, 2, 50, 127
4, 35820, Note_on_c, 2, 50, 0
4, 35820, Note_on_c, 2, 49, 127
4, 35880, Note_on_c, 2, 49, 0
4, 35880, Note_on_c, 2, 50, 127
4, 35940, Note_on_c, 2, 50, 0
4, 35940, Note_on_c, 2, 52, 127
4, 36060, Note_on_c, 2, 52, 0
4, 36060, Note_on_c, 2, 52, 127
4, 36180, Note_on_c, 2, 52, 0
4, 36180, Note_on_c, 2, 52, 127
4, 36240, Note_on_c, 2, 52, 0
4, 36240, Note_on_c, 2, 47, 127
4, 36300, Note_on_c, 2, 47, 0
4, 36300, Note_on_c, 2, 50, 127
4, 36360, Note_on_c, 2, 50, 0
4, 36360, Note_on_c, 2, 49, 127
4, 36420, Note_on_c, 2, 49, 0
4, 36420, Note_on_c, 2, 52, 127
4, 36480, Note_on_c, 2, 52, 0
4, 36480, Note_on_c, 2, 50, 127
4, 36600, Note_on_c, 2, 50, 0
4, 36600, Note_on_c, 2, 50, 127
4, 36720, Note_on_c, 2, 50, 0
4, 36720, Note_on_c, 2, 50, 127
4, 36780, Note_on_c, 2, 50, 0
4, 36780, Note_on_c, 2, 49, 127
4, 36840, Note_on_c, 2, 49, 0
4, 36840, Note_on_c, 2, 50, 127
4, 36900, Note_on_c, 2, 50, 0
4, 36900, Note_on_c, 2, 52, 127
4, 37020, Note_on_c, 2, 52, 0
4, 37020, Note_on_c, 2, 52, 127
4, 37140, Note_on_c, 2, 52, 0
4, 37140, Note_on_c, 2, 52, 127
4, 37200, Note_on_c, 2, 52, 0
4, 37200, Note_on_c, 2, 47, 127
4, 37260, Note_on_c, 2, 47, 0
4, 37260, Note_on_c, 2, 50, 127
4, 37320, Note_on_c, 2, 50, 0
4, 37320, Note_on_c, 2, 49, 127
4, 37380, Note_on_c, 2, 49, 0
4, 37380, Note_on_c, 2, 52, 127
4, 37440, Note_on_c, 2, 52, 0
4, 37440, Note_on_c, 2, 50, 127
4, 37920, Note_on_c, 2, 50, 0
4, 37920, Note_on_c, 2, 52, 127
4, 38400, Note_on_c, 2, 52, 0
4, 39900, Note_on_c, 2, 52, 127
4, 39960, Note_on_c, 2, 52, 0
4, 39960, Note_on_c, 2, 50, 127
4, 40020, Note_on_c, 2, 50, 0
4, 40020, Note_on_c, 2, 49, 127
4, 40080, Note_on_c, 2, 49, 0
4, 40080, Note_on_c, 2, 47, 127
4, 40140, Note_on_c, 2, 47, 0
4, 40140, Note_on_c, 2, 45, 127
4, 40200, Note_on_c, 2, 45, 0
4, 40200, Note_on_c, 2, 44, 127
4, 40260, Note_on_c, 2, 44, 0
4, 40260, Note_on_c, 2, 42, 127
4, 40320, Note_on_c, 2, 42, 0
4, 40320, Note_on_c, 2, 50, 127
4, 40440, Note_on_c, 2, 50, 0
4, 40440, Note_on_c, 2, 50, 127
4, 40560, Note_on_c, 2, 50, 0
4, 40560, Note_on_c, 2, 50, 127
4, 40620, Note_on_c, 2, 50, 0
4, 40620, Note_on_c, 2, 49, 127
4, 40680, Note_on_c, 2, 49, 0
4, 40680, Note_on_c, 2, 50, 127
4, 40740, Note_on_c, 2, 50, 0
4, 40740, Note_on_c, 2, 52, 127
4, 40860, Note_on_c, 2, 52, 0
4, 40860, Note_on_c, 2, 52, 127
4, 40980, Note_on_c, 2, 52, 0
4, 40980, Note_on_c, 2, 52, 127
4, 41040, Note_on_c, 2, 52, 0
4, 41040, Note_on_c, 2, 47, 127
4, 41100, Note_on_c, 2, 47, 0
4, 41100, Note_on_c, 2, 50, 127
4, 41160, Note_on_c, 2, 50, 0
4, 41160, Note_on_c, 2, 49, 127
4, 41220, Note_on_c, 2, 49, 0
4, 41220, Note_on_c, 2, 52, 127
4, 41280, Note_on_c, 2, 52, 0
4, 41280, Note_on_c, 2, 50, 127
4, 41400, Note_on_c, 2, 50, 0
4, 41400, Note_on_c, 2, 50, 127
4, 41520, Note_on_c, 2, 50, 0
4, 41520, Note_on_c, 2, 50, 127
4, 41580, Note_on_c, 2, 50, 0
4, 41580, Note_on_c, 2, 49, 127
4, 41640, Note_on_c, 2, 49, 0
4, 41640, Note_on_c, 2, 50, 127
4, 41700, Note_on_c, 2, 50, 0
4, 41700, Note_on_c, 2, 52, 127
4, 41820, Note_on_c, 2, 52, 0
4, 41820, Note_on_c, 2, 52, 127
4, 41940, Note_on_c, 2, 52, 0
4, 41940, Note_on_c, 2, 52, 127
4, 42000, Note_on_c, 2, 52, 0
4, 42000, Note_on_c, 2, 47, 127
4, 42060, Note_on_c, 2, 47, 0
4, 42060, Note_on_c, 2, 50, 127
4, 42120, Note_on_c, 2, 50, 0
4, 42120, Note_on_c, 2, 49, 127
4, 42180, Note_on_c, 2, 49, 0
4, 42180, Note_on_c, 2, 52, 127
4, 42240, Note_on_c, 2, 52, 0
4, 42240, Note_on_c, 2, 50, 127
4, 42360, Note_on_c, 2, 50, 0
4, 42360, Note_on_c, 2, 50, 127
4, 42480, Note_on_c, 2, 50, 0
4, 42480, Note_on_c, 2, 50, 127
4, 42540, Note_on_c, 2, 50, 0
4, 42540, Note_on_c, 2, 49, 127
4, 42600, Note_on_c, 2, 49, 0
4, 42600, Note_on_c, 2, 50, 127
4, 42660, Note_on_c, 2, 50, 0
4, 42660, Note_on_c, 2, 52, 127
4, 42780, Note_on_c, 2, 52, 0
4, 42780, Note_on_c, 2, 52, 127
4, 42900, Note_on_c, 2, 52, 0
4, 42900, Note_on_c, 2, 52, 127
4, 42960, Note_on_c, 2, 52, 0
4, 42960, Note_on_c, 2, 47, 127
4, 43020, Note_on_c, 2, 47, 0
4, 43020, Note_on_c, 2, 50, 127
4, 43080, Note_on_c, 2, 50, 0
4, 43080, Note_on_c, 2, 49, 127
4, 43140, Note_on_c, 2, 49, 0
4, 43140, Note_on_c, 2, 52, 127
4, 43200, Note_on_c, 2, 52, 0
4, 43200, Note_on_c, 2, 50, 127
4, 43320, Note_on_c, 2, 50, 0
4, 43320, Note_on_c, 2, 50, 127
4, 43440, Note_on_c, 2, 50, 0
4, 43440, Note_on_c, 2, 50, 127
4, 43500, Note_on_c, 2, 50, 0
4, 43500, Note_on_c, 2, 49, 127
4, 43560, Note_on_c, 2, 49, 0
4, 43560, Note_on_c, 2, 50, 127
4, 43620, Note_on_c, 2, 50, 0
4, 43620, Note_on_c, 2, 52, 127
4, 43740, Note_on_c, 2, 52, 0
4, 43740, Note_on_c, 2, 52, 127
4, 43860, Note_on_c, 2, 52, 0
4, 43860, Note_on_c, 2, 52, 127
4, 43920, Note_on_c, 2, 52, 0
4, 43920, Note_on_c, 2, 47, 127
4, 43980, Note_on_c, 2, 47, 0
4, 43980, Note_on_c, 2, 50, 127
4, 44040, Note_on_c, 2, 50, 0
4, 44040, Note_on_c, 2, 49, 127
4, 44100, Note_on_c, 2, 49, 0
4, 44100, Note_on_c, 2, 52, 127
4, 44160, Note_on_c, 2, 52, 0
4, 44160, Note_on_c, 2, 50, 127
4, 44280, Note_on_c, 2, 50, 0
4, 44280, Note_on_c, 2, 50, 127
4, 44400, Note_on_c, 2, 50, 0
4, 44400, Note_on_c, 2, 50, 127
4, 44460, Note_on_c, 2, 50, 0
4, 44460, Note_on_c, 2, 49, 127
4, 44520, Note_on_c, 2, 49, 0
4, 44520, Note_on_c, 2, 50, 127
4, 44580, Note_on_c, 2, 50, 0
4, 44580, Note_on_c, 2, 52, 127
4, 44700, Note_on_c, 2, 52, 0
4, 44700, Note_on_c, 2, 52, 127
4, 44820, Note_on_c, 2, 52, 0
4, 44820, Note_on_c, 2, 52, 127
4, 44880, Note_on_c, 2, 52, 0
4, 44880, Note_on_c, 2, 47, 127
4, 44940, Note_on_c, 2, 47, 0
4, 44940, Note_on_c, 2, 50, 127
4, 45000, Note_on_c, 2, 50, 0
4, 45000, Note_on_c, 2, 49, 127
4, 45060, Note_on_c, 2, 49, 0
4, 45060, Note_on_c, 2, 52, 127
4, 45120, Note_on_c, 2, 52, 0
4, 45120, Note_on_c, 2, 50, 127
4, 45600, Note_on_c, 2, 50, 0
4, 45600, Note_on_c, 2, 52, 127
4, 46080, Note_on_c, 2, 52, 0
4, 46080, Note_on_c, 2, 50, 127
4, 46200, Note_on_c, 2, 50, 0
4, 46200, Note_on_c, 2, 50, 127
4, 46320, Note_on_c, 2, 50, 0
4, 46320, Note_on_c, 2, 50, 127
4, 46380, Note_on_c, 2, 50, 0
4, 46380, Note_on_c, 2, 49, 127
4, 46440, Note_on_c, 2, 49, 0
4, 46440, Note_on_c, 2, 50, 127
4, 46500, Note_on_c, 2, 50, 0
4, 46500, Note_on_c, 2, 52, 127
4, 46620, Note_on_c, 2, 52, 0
4, 46620, Note_on_c, 2, 52, 127
4, 46740, Note_on_c, 2, 52, 0
4, 46740, Note_on_c, 2, 52, 127
4, 46800, Note_on_c, 2, 52, 0
4, 46800, Note_on_c, 2, 47, 127
4, 46860, Note_on_c, 2, 47, 0
4, 46860, Note_on_c, 2, 50, 127
4, 46920, Note_on_c, 2, 50, 0
4, 46920, Note_on_c, 2, 49, 127
4, 46980, Note_on_c, 2, 49, 0
4, 46980, Note_on_c, 2, 52, 127
4, 47040, Note_on_c, 2, 52, 0
4, 47040, Note_on_c, 2, 50, 127
4, 47160, Note_on_c, 2, 50, 0
4, 47160, Note_on_c, 2, 50, 127
4, 47280, Note_on_c, 2, 50, 0
4, 47280, Note_on_c, 2, 50, 127
4, 47340, Note_on_c, 2, 50, 0
4, 47340, Note_on_c, 2, 49, 127
4, 47400, Note_on_c, 2, 49, 0
4, 47400, Note_on_c, 2, 50, 127
4, 47460, Note_on_c, 2, 50, 0
4, 47460, Note_on_c, 2, 52, 127
4, 47580, Note_on_c, 2, 52, 0
4, 47580, Note_on_c, 2, 64, 127
4, 47640, Note_on_c, 2, 64, 0
4, 47640, Note_on_c, 2, 62, 127
4, 47700, Note_on_c, 2, 62, 0
4, 47700, Note_on_c, 2, 61, 127
4, 47760, Note_on_c, 2, 61, 0
4, 47760, Note_on_c, 2, 59, 127
4, 47820, Note_on_c, 2, 59, 0
4, 47820, Note_on_c, 2, 57, 127
4, 47880, Note_on_c, 2, 57, 0
4, 47880, Note_on_c, 2, 56, 127
4, 47940, Note_on_c, 2, 56, 0
4, 47940, Note_on_c, 2, 54, 127
4, 48000, Note_on_c, 2, 54, 0
4, 48000, Note_on_c, 2, 50, 127
4, 48120, Note_on_c, 2, 50, 0
4, 48120, Note_on_c, 2, 50, 127
4, 48240, Note_on_c, 2, 50, 0
4, 48240, Note_on_c, 2, 50, 127
4, 48300, Note_on_c, 2, 50, 0
4, 48300, Note_on_c, 2, 49, 127
4, 48360, Note_on_c, 2, 49, 0
4, 48360, Note_on_c, 2, 50, 127
4, 48420, Note_on_c, 2, 50, 0
4, 48420, Note_on_c, 2, 52, 127
4, 48540, Note_on_c, 2, 52, 0
4, 48540, Note_on_c, 2, 52, 127
4, 48660, Note_on_c, 2, 52, 0
4, 48660, Note_on_c, 2, 52, 127
4, 48720, Note_on_c, 2, 52, 0
4, 48720, Note_on_c, 2, 47, 127
4, 48780, Note_on_c, 2, 47, 0
4, 48780, Note_on_c, 2, 50, 127
4, 48840, Note_on_c, 2, 50, 0
4, 48840, Note_on_c, 2, 49, 127
4, 48900, Note_on_c, 2, 49, 0
4, 48900, Note_on_c, 2, 52, 127
4, 48960, Note_on_c, 2, 52, 0
4, 48960, Note_on_c, 2, 50, 127
4, 49080, Note_on_c, 2, 50, 0
4, 49080, Note_on_c, 2, 50, 127
4, 49200, Note_on_c, 2, 50, 0
4, 49200, Note_on_c, 2, 50, 127
4, 49260, Note_on_c, 2, 50, 0
4, 49260, Note_on_c, 2, 49, 127
4, 49320, Note_on_c, 2, 49, 0
4, 49320, Note_on_c, 2, 50, 127
4, 49380, Note_on_c, 2, 50, 0
4, 49380, Note_on_c, 2, 52, 127
4, 49500, Note_on_c, 2, 52, 0
4, 49500, Note_on_c, 2, 52, 127
4, 49620, Note_on_c, 2, 52, 0
4, 49620, Note_on_c, 2, 52, 127
4, 49680, Note_on_c, 2, 52, 0
4, 49680, Note_on_c, 2, 47, 127
4, 49740, Note_on_c, 2, 47, 0
4, 49740, Note_on_c, 2, 50, 127
4, 49800, Note_on_c, 2, 50, 0
4, 49800, Note_on_c, 2, 49, 127
4, 49860, Note_on_c, 2, 49, 0
4, 49860, Note_on_c, 2, 52, 127
4, 49920, Note_on_c, 2, 52, 0
4, 49920, Note_on_c, 2, 50, 127
4, 50040, Note_on_c, 2, 50, 0
4, 50040, Note_on_c, 2, 50, 127
4, 50160, Note_on_c, 2, 50, 0
4, 50160, Note_on_c, 2, 50, 127
4, 50220, Note_on_c, 2, 50, 0
4, 50220, Note_on_c, 2, 49, 127
4, 50280, Note_on_c, 2, 49, 0
4, 50280, Note_on_c, 2, 50, 127
4, 50340, Note_on_c, 2, 50, 0
4, 50340, Note_on_c, 2, 52, 127
4, 50460, Note_on_c, 2, 52, 0
4, 50460, Note_on_c, 2, 52, 127
4, 50580, Note_on_c, 2, 52, 0
4, 50580, Note_on_c, 2, 52, 127
4, 50640, Note_on_c, 2, 52, 0
4, 50640, Note_on_c, 2, 47, 127
4, 50700, Note_on_c, 2, 47, 0
4, 50700, Note_on_c, 2, 50, 127
4, 50760, Note_on_c, 2, 50, 0
4, 50760, Note_on_c, 2, 49, 127
4, 50820, Note_on_c, 2, 49, 0
4, 50820, Note_on_c, 2, 52, 127
4, 50880, Note_on_c, 2, 52, 0
4, 50880, Note_on_c, 2, 50, 127
4, 51000, Note_on_c, 2, 50, 0
4, 51000, Note_on_c, 2, 50, 127
4, 51120, Note_on_c, 2, 50, 0
4, 51120, Note_on_c, 2, 50, 127
4, 51180, Note_on_c, 2, 50, 0
4, 51180, Note_on_c, 2, 49, 127
4, 51240, Note_on_c, 2, 49, 0
4, 51240, Note_on_c, 2, 50, 127
4, 51300, Note_on_c, 2, 50, 0
4, 51300, Note_on_c, 2, 52, 127
4, 51420, Note_on_c, 2, 52, 0
4, 51420, Note_on_c, 2, 52, 127
4, 51540, Note_on_c, 2, 52, 0
4, 51540, Note_on_c, 2, 52, 127
4, 51600, Note_on_c, 2, 52, 0
4, 51600, Note_on_c, 2, 47, 127
4, 51660, Note_on_c, 2, 47, 0
4, 51660, Note_on_c, 2, 50, 127
4, 51720, Note_on_c, 2, 50, 0
4, 51720, Note_on_c, 2, 49, 127
4, 51780, Note_on_c, 2, 49, 0
4, 51780, Note_on_c, 2, 52, 127
4, 51840, Note_on_c, 2, 52, 0
4, 51840, Note_on_c, 2, 50, 127
4, 51960, Note_on_c, 2, 50, 0
4, 51960, Note_on_c, 2, 50, 127
4, 52080, Note_on_c, 2, 50, 0
4, 52080, Note_on_c, 2, 50, 127
4, 52140, Note_on_c, 2, 50, 0
4, 52140, Note_on_c, 2, 49, 127
4, 52200, Note_on_c, 2, 49, 0
4, 52200, Note_on_c, 2, 50, 127
4, 52260, Note_on_c, 2, 50, 0
4, 52260, Note_on_c, 2, 52, 127
4, 52380, Note_on_c, 2, 52, 0
4, 52380, Note_on_c, 2, 52, 127
4, 52500, Note_on_c, 2, 52, 0
4, 52500, Note_on_c, 2, 52, 127
4, 52560, Note_on_c, 2, 52, 0
4, 52560, Note_on_c, 2, 47, 127
4, 52620, Note_on_c, 2, 47, 0
4, 52620, Note_on_c, 2, 50, 127
4, 52680, Note_on_c, 2, 50, 0
4, 52680, Note_on_c, 2, 49, 127
4, 52740, Note_on_c, 2, 49, 0
4, 52740, Note_on_c, 2, 52, 127
4, 52800, Note_on_c, 2, 52, 0
4, 52800, Note_on_c, 2, 50, 127
4, 52920, Note_on_c, 2, 50, 0
4, 52920, Note_on_c, 2, 50, 127
4, 53040, Note_on_c, 2, 50, 0
4, 53040, Note_on_c, 2, 50, 127
4, 53100, Note_on_c, 2, 50, 0
4, 53100, Note_on_c, 2, 49, 127
4, 53160, Note_on_c, 2, 49, 0
4, 53160, Note_on_c, 2, 50, 127
4, 53220, Note_on_c, 2, 50, 0
4, 53220, Note_on_c, 2, 52, 127
4, 53340, Note_on_c, 2, 52, 0
4, 53340, Note_on_c, 2, 52, 127
4, 53460, Note_on_c, 2, 52, 0
4, 53460, Note_on_c, 2, 52, 127
4, 53520, Note_on_c, 2, 52, 0
4, 53520, Note_on_c, 2, 47, 127
4, 53580, Note_on_c, 2, 47, 0
4, 53580, Note_on_c, 2, 50, 127
4, 53640, Note_on_c, 2, 50, 0
4, 53640, Note_on_c, 2, 49, 127
4, 53700, Note_on_c, 2, 49, 0
4, 53700, Note_on_c, 2, 52, 127
4, 53760, Note_on_c, 2, 52, 0
4, 53760, Note_on_c, 2, 50, 127
4, 53880, Note_on_c, 2, 50, 0
4, 53880, Note_on_c, 2, 50, 127
4, 54000, Note_on_c, 2, 50, 0
4, 54000, Note_on_c, 2, 50, 127
4, 54060, Note_on_c, 2, 50, 0
4, 54060, Note_on_c, 2, 49, 127
4, 54120, Note_on_c, 2, 49, 0
4, 54120, Note_on_c, 2, 50, 127
4, 54180, Note_on_c, 2, 50, 0
4, 54180, Note_on_c, 2, 52, 127
4, 54300, Note_on_c, 2, 52, 0
4, 54300, Note_on_c, 2, 52, 127
4, 54420, Note_on_c, 2, 52, 0
4, 54420, Note_on_c, 2, 52, 127
4, 54480, Note_on_c, 2, 52, 0
4, 54480, Note_on_c, 2, 47, 127
4, 54540, Note_on_c, 2, 47, 0
4, 54540, Note_on_c, 2, 50, 127
4, 54600, Note_on_c, 2, 50, 0
4, 54600, Note_on_c, 2, 49, 127
4, 54660, Note_on_c, 2, 49, 0
4, 54660, Note_on_c, 2, 52, 127
4, 54720, Note_on_c, 2, 52, 0
4, 54720, Note_on_c, 2, 50, 127
4, 54840, Note_on_c, 2, 50, 0
4, 54840, Note_on_c, 2, 50, 127
4, 54960, Note_on_c, 2, 50, 0
4, 54960, Note_on_c, 2, 50, 127
4, 55020, Note_on_c, 2, 50, 0
4, 55020, Note_on_c, 2, 49, 127
4, 55080, Note_on_c, 2, 49, 0
4, 55080, Note_on_c, 2, 50, 127
4, 55140, Note_on_c, 2, 50, 0
4, 55140, Note_on_c, 2, 52, 127
4, 55260, Note_on_c, 2, 52, 0
4, 55260, Note_on_c, 2, 52, 127
4, 55380, Note_on_c, 2, 52, 0
4, 55380, Note_on_c, 2, 52, 127
4, 55440, Note_on_c, 2, 52, 0
4, 55440, Note_on_c, 2, 47, 127
4, 55500, Note_on_c, 2, 47, 0
4, 55500, Note_on_c, 2, 50, 127
4, 55560, Note_on_c, 2, 50, 0
4, 55560, Note_on_c, 2, 49, 127
4, 55620, Note_on_c, 2, 49, 0
4, 55620, Note_on_c, 2, 52, 127
4, 55680, Note_on_c, 2, 52, 0
4, 55680, Note_on_c, 2, 50, 127
4, 55800, Note_on_c, 2, 50, 0
4, 55800, Note_on_c, 2, 50, 127
4, 55920, Note_on_c, 2, 50, 0
4, 55920, Note_on_c, 2, 50, 127
4, 55980, Note_on_c, 2, 50, 0
4, 55980, Note_on_c, 2, 49, 127
4, 56040, Note_on_c, 2, 49, 0
4, 56040, Note_on_c, 2, 50, 127
4, 56100, Note_on_c, 2, 50, 0
4, 56100, Note_on_c, 2, 52, 127
4, 56220, Note_on_c, 2, 52, 0
4, 56220, Note_on_c, 2, 52, 127
4, 56340, Note_on_c, 2, 52, 0
4, 56340, Note_on_c, 2, 52, 127
4, 56400, Note_on_c, 2, 52, 0
4, 56400, Note_on_c, 2, 47, 127
4, 56460, Note_on_c, 2, 47, 0
4, 56460, Note_on_c, 2, 50, 127
4, 56520, Note_on_c, 2, 50, 0
4, 56520, Note_on_c, 2, 49, 127
4, 56580, Note_on_c, 2, 49, 0
4, 56580, Note_on_c, 2, 52, 127
4, 56640, Note_on_c, 2, 52, 0
4, 56640, Note_on_c, 2, 50, 127
4, 56760, Note_on_c, 2, 50, 0
4, 56760, Note_on_c, 2, 50, 127
4, 56880, Note_on_c, 2, 50, 0
4, 56880, Note_on_c, 2, 50, 127
4, 56940, Note_on_c, 2, 50, 0
4, 56940, Note_on_c, 2, 49, 127
4, 57000, Note_on_c, 2, 49, 0
4, 57000, Note_on_c, 2, 50, 127
4, 57060, Note_on_c, 2, 50, 0
4, 57060, Note_on_c, 2, 52, 127
4, 57180, Note_on_c, 2, 52, 0
4, 57180, Note_on_c, 2, 52, 127
4, 57300, Note_on_c, 2, 52, 0
4, 57300, Note_on_c, 2, 52, 127
4, 57360, Note_on_c, 2, 52, 0
4, 57360, Note_on_c, 2, 47, 127
4, 57420, Note_on_c, 2, 47, 0
4, 57420, Note_on_c, 2, 50, 127
4, 57480, Note_on_c, 2, 50, 0
4, 57480, Note_on_c, 2, 49, 127
4, 57540, Note_on_c, 2, 49, 0
4, 57540, Note_on_c, 2, 52, 127
4, 57600, Note_on_c, 2, 52, 0
4, 57600, Note_on_c, 2, 50, 127
4, 57720, Note_on_c, 2, 50, 0
4, 57720, Note_on_c, 2, 50, 127
4, 57840, Note_on_c, 2, 50, 0
4, 57840, Note_on_c, 2, 50, 127
4, 57900, Note_on_c, 2, 50, 0
4, 57900, Note_on_c, 2, 49, 127
4, 57960, Note_on_c, 2, 49, 0
4, 57960, Note_on_c, 2, 50, 127
4, 58020, Note_on_c, 2, 50, 0
4, 58020, Note_on_c, 2, 52, 127
4, 58140, Note_on_c, 2, 52, 0
4, 58140, Note_on_c, 2, 52, 127
4, 58260, Note_on_c, 2, 52, 0
4, 58260, Note_on_c, 2, 52, 127
4, 58320, Note_on_c, 2, 52, 0
4, 58320, Note_on_c, 2, 47, 127
4, 58380, Note_on_c, 2, 47, 0
4, 58380, Note_on_c, 2, 50, 127
4, 58440, Note_on_c, 2, 50, 0
4, 58440, Note_on_c, 2, 49, 127
4, 58500, Note_on_c, 2, 49, 0
4, 58500, Note_on_c, 2, 52, 127
4, 58560, Note_on_c, 2, 52, 0
4, 58560, Note_on_c, 2, 50, 127
4, 58680, Note_on_c, 2, 50, 0
4, 58680, Note_on_c, 2, 50, 127
4, 58800, Note_on_c, 2, 50, 0
4, 58800, Note_on_c, 2, 50, 127
4, 58860, Note_on_c, 2, 50, 0
4, 58860, Note_on_c, 2, 49, 127
4, 58920, Note_on_c, 2, 49, 0
4, 58920, Note_on_c, 2, 50, 127
4, 58980, Note_on_c, 2, 50, 0
4, 58980, Note_on_c, 2, 52, 127
4, 59100, Note_on_c, 2, 52, 0
4, 59100, Note_on_c, 2, 52, 127
4, 59220, Note_on_c, 2, 52, 0
4, 59220, Note_on_c, 2, 52, 127
4, 59280, Note_on_c, 2, 52, 0
4, 59280, Note_on_c, 2, 47, 127
4, 59340, Note_on_c, 2, 47, 0
4, 59340, Note_on_c, 2, 50, 127
4, 59400, Note_on_c, 2, 50, 0
4, 59400, Note_on_c, 2, 49, 127
4, 59460, Note_on_c, 2, 49, 0
4, 59460, Note_on_c, 2, 52, 127
4, 59520, Note_on_c, 2, 52, 0
4, 59520, Note_on_c, 2, 50, 127
4, 59640, Note_on_c, 2, 50, 0
4, 59640, Note_on_c, 2, 50, 127
4, 59760, Note_on_c, 2, 50, 0
4, 59760, Note_on_c, 2, 50, 127
4, 59820, Note_on_c, 2, 50, 0
4, 59820, Note_on_c, 2, 49, 127
4, 59880, Note_on_c, 2, 49, 0
4, 59880, Note_on_c, 2, 50, 127
4, 59940, Note_on_c, 2, 50, 0
4, 59940, Note_on_c, 2, 52, 127
4, 60060, Note_on_c, 2, 52, 0
4, 60060, Note_on_c, 2, 52, 127
4, 60180, Note_on_c, 2, 52, 0
4, 60180, Note_on_c, 2, 52, 127
4, 60240, Note_on_c, 2, 52, 0
4, 60240, Note_on_c, 2, 47, 127
4, 60300, Note_on_c, 2, 47, 0
4, 60300, Note_on_c, 2, 50, 127
4, 60360, Note_on_c, 2, 50, 0
4, 60360, Note_on_c, 2, 49, 127
4, 60420, Note_on_c, 2, 49, 0
4, 60420, Note_on_c, 2, 52, 127
4, 60480, Note_on_c, 2, 52, 0
4, 60480, Note_on_c, 2, 50, 127
4, 60600, Note_on_c, 2, 50, 0
4, 60600, Note_on_c, 2, 50, 127
4, 60720, Note_on_c, 2, 50, 0
4, 60720, Note_on_c, 2, 50, 127
4, 60780, Note_on_c, 2, 50, 0
4, 60780, Note_on_c, 2, 49, 127
4, 60840, Note_on_c, 2, 49, 0
4, 60840, Note_on_c, 2, 50, 127
4, 60900, Note_on_c, 2, 50, 0
4, 60900, Note_on_c, 2, 52, 127
4, 61020, Note_on_c, 2, 52, 0
4, 61020, Note_on_c, 2, 52, 127
4, 61140, Note_on_c, 2, 52, 0
4, 61140, Note_on_c, 2, 52, 127
4, 61200, Note_on_c, 2, 52, 0
4, 61200, Note_on_c, 2, 47, 127
4, 61260, Note_on_c, 2, 47, 0
4, 61260, Note_on_c, 2, 50, 127
4, 61320, Note_on_c, 2, 50, 0
4, 61320, Note_on_c, 2, 49, 127
4, 61380, Note_on_c, 2, 49, 0
4, 61380, Note_on_c, 2, 52, 127
4, 61440, Note_on_c, 2, 52, 0
4, 61440, Note_on_c, 2, 50, 127
4, 61560, Note_on_c, 2, 50, 0
4, 61560, Note_on_c, 2, 50, 127
4, 61680, Note_on_c, 2, 50, 0
4, 61680, Note_on_c, 2, 50, 127
4, 61740, Note_on_c, 2, 50, 0
4, 61740, Note_on_c, 2, 49, 127
4, 61800, Note_on_c, 2, 49, 0
4, 61800, Note_on_c, 2, 50, 127
4, 61860, Note_on_c, 2, 50, 0
4, 61860, Note_on_c, 2, 52, 127
4, 61980, Note_on_c, 2, 52, 0
4, 61980, Note_on_c, 2, 52, 127
4, 62100, Note_on_c, 2, 52, 0
4, 62100, Note_on_c, 2, 52, 127
4, 62160, Note_on_c, 2, 52, 0
4, 62160, Note_on_c, 2, 47, 127
4, 62220, Note_on_c, 2, 47, 0
4, 62220, Note_on_c, 2, 50, 127
4, 62280, Note_on_c, 2, 50, 0
4, 62280, Note_on_c, 2, 49, 127
4, 62340, Note_on_c, 2, 49, 0
4, 62340, Note_on_c, 2, 52, 127
4, 62400, Note_on_c, 2, 52, 0
4, 62400, Note_on_c, 2, 50, 127
4, 62520, Note_on_c, 2, 50, 0
4, 62520, Note_on_c, 2, 50, 127
4, 62640, Note_on_c, 2, 50, 0
4, 62640, Note_on_c, 2, 50, 127
4, 62700, Note_on_c, 2, 50, 0
4, 62700, Note_on_c, 2, 49, 127
4, 62760, Note_on_c, 2, 49, 0
4, 62760, Note_on_c, 2, 50, 127
4, 62820, Note_on_c, 2, 50, 0
4, 62820, Note_on_c, 2, 52, 127
4, 62940, Note_on_c, 2, 52, 0
4, 62940, Note_on_c, 2, 52, 127
4, 63060, Note_on_c, 2, 52, 0
4, 63060, Note_on_c, 2, 52, 127
4, 63120, Note_on_c, 2, 52, 0
4, 63120, Note_on_c, 2, 47, 127
4, 63180, Note_on_c, 2, 47, 0
4, 63180, Note_on_c, 2, 50, 127
4, 63240, Note_on_c, 2, 50, 0
4, 63240, Note_on_c, 2, 49, 127
4, 63300, Note_on_c, 2, 49, 0
4, 63300, Note_on_c, 2, 52, 127
4, 63360, Note_on_c, 2, 52, 0
4, 63360, Note_on_c, 2, 50, 127
4, 63840, Note_on_c, 2, 50, 0
4, 63840, End_track
5, 0, Start_track
5, 0, MIDI_port, 0
5, 0, Program_c, 3, 61
5, 0, Control_c, 3, 7, 110
5, 0, Control_c, 3, 10, 70
5, 7800, Note_on_c, 3, 74, 100
5, 7860, Note_on_c, 3, 74, 0
5, 7860, Note_on_c, 3, 74, 100
5, 7920, Note_on_c, 3, 74, 0
5, 7920, Note_on_c, 3, 74, 100
5, 7980, Note_on_c, 3, 74, 0
5, 7980, Note_on_c, 3, 73, 100
5, 8040, Note_on_c, 3, 73, 0
5, 8160, Note_on_c, 3, 73, 100
5, 8220, Note_on_c, 3, 73, 0
5, 8220, Note_on_c, 3, 71, 100
5, 8340, Note_on_c, 3, 71, 0
5, 8340, Note_on_c, 3, 73, 100
5, 8460, Note_on_c, 3, 73, 0
5, 8460, Note_on_c, 3, 64, 100
5, 8520, Note_on_c, 3, 64, 0
5, 8520, Note_on_c, 3, 64, 100
5, 8640, Note_on_c, 3, 64, 0
5, 8760, Note_on_c, 3, 74, 100
5, 8880, Note_on_c, 3, 74, 0
5, 8880, Note_on_c, 3, 74, 100
5, 8940, Note_on_c, 3, 74, 0
5, 8940, Note_on_c, 3, 73, 100
5, 9000, Note_on_c, 3, 73, 0
5, 9000, Note_on_c, 3, 73, 100
5, 9060, Note_on_c, 3, 73, 0
5, 9060, Note_on_c, 3, 71, 100
5, 9120, Note_on_c, 3, 71, 0
5, 9120, Note_on_c, 3, 71, 100
5, 9180, Note_on_c, 3, 71, 0
5, 9180, Note_on_c, 3, 71, 100
5, 9240, Note_on_c, 3, 71, 0
5, 9240, Note_on_c, 3, 71, 100
5, 9300, Note_on_c, 3, 71, 0
5, 9300, Note_on_c, 3, 73, 100
5, 9420, Note_on_c, 3, 73, 0
5, 9720, Note_on_c, 3, 74, 100
5, 9840, Note_on_c, 3, 74, 0
5, 9840, Note_on_c, 3, 74, 100
5, 9900, Note_on_c, 3, 74, 0
5, 9900, Note_on_c, 3, 76, 100
5, 9960, Note_on_c, 3, 76, 0
5, 10020, Note_on_c, 3, 71, 100
5, 10080, Note_on_c, 3, 71, 0
5, 10080, Note_on_c, 3, 73, 100
5, 10140, Note_on_c, 3, 73, 0
5, 10140, Note_on_c, 3, 71, 100
5, 10260, Note_on_c, 3, 71, 0
5, 10260, Note_on_c, 3, 71, 100
5, 10320, Note_on_c, 3, 71, 0
5, 10320, Note_on_c, 3, 73, 100
5, 10440, Note_on_c, 3, 73, 0
5, 10680, Note_on_c, 3, 74, 100
5, 10800, Note_on_c, 3, 74, 0
5, 10800, Note_on_c, 3, 74, 100
5, 10920, Note_on_c, 3, 74, 0
5, 10980, Note_on_c, 3, 71, 100
5, 11040, Note_on_c, 3, 71, 0
5, 11040, Note_on_c, 3, 73, 100
5, 11100, Note_on_c, 3, 73, 0
5, 11100, Note_on_c, 3, 71, 100
5, 11160, Note_on_c, 3, 71, 0
5, 11160, Note_on_c, 3, 71, 100
5, 11220, Note_on_c, 3, 71, 0
5, 11220, Note_on_c, 3, 73, 100
5, 11340, Note_on_c, 3, 73, 0
5, 11580, Note_on_c, 3, 74, 100
5, 11640, Note_on_c, 3, 74, 0
5, 11640, Note_on_c, 3, 76, 100
5, 11760, Note_on_c, 3, 76, 0
5, 11760, Note_on_c, 3, 74, 100
5, 11880, Note_on_c, 3, 74, 0
5, 11880, Note_on_c, 3, 73, 100
5, 11940, Note_on_c, 3, 73, 0
5, 11940, Note_on_c, 3, 71, 100
5, 12000, Note_on_c, 3, 71, 0
5, 12000, Note_on_c, 3, 71, 100
5, 12060, Note_on_c, 3, 71, 0
5, 12060, Note_on_c, 3, 71, 100
5, 12180, Note_on_c, 3, 71, 0
5, 12180, Note_on_c, 3, 73, 100
5, 12360, Note_on_c, 3, 73, 0
5, 12540, Note_on_c, 3, 76, 100
5, 12600, Note_on_c, 3, 76, 0
5, 12600, Note_on_c, 3, 76, 100
5, 12720, Note_on_c, 3, 76, 0
5, 12720, Note_on_c, 3, 74, 100
5, 12780, Note_on_c, 3, 74, 0
5, 12780, Note_on_c, 3, 73, 100
5, 12840, Note_on_c, 3, 73, 0
5, 12840, Note_on_c, 3, 73, 100
5, 12900, Note_on_c, 3, 73, 0
5, 12900, Note_on_c, 3, 71, 100
5, 12960, Note_on_c, 3, 71, 0
5, 12960, Note_on_c, 3, 71, 100
5, 13020, Note_on_c, 3, 71, 0
5, 13020, Note_on_c, 3, 71, 100
5, 13140, Note_on_c, 3, 71, 0
5, 13140, Note_on_c, 3, 71, 100
5, 13200, Note_on_c, 3, 71, 0
5, 13200, Note_on_c, 3, 73, 100
5, 13320, Note_on_c, 3, 73, 0
5, 13500, Note_on_c, 3, 76, 100
5, 13560, Note_on_c, 3, 76, 0
5, 13560, Note_on_c, 3, 76, 100
5, 13680, Note_on_c, 3, 76, 0
5, 13680, Note_on_c, 3, 74, 100
5, 13740, Note_on_c, 3, 74, 0
5, 13740, Note_on_c, 3, 73, 100
5, 13800, Note_on_c, 3, 73, 0
5, 13800, Note_on_c, 3, 73, 100
5, 13860, Note_on_c, 3, 73, 0
5, 13860, Note_on_c, 3, 71, 100
5, 13920, Note_on_c, 3, 71, 0
5, 13920, Note_on_c, 3, 71, 100
5, 13980, Note_on_c, 3, 71, 0
5, 13980, Note_on_c, 3, 71, 100
5, 14100, Note_on_c, 3, 71, 0
5, 14100, Note_on_c, 3, 71, 100
5, 14160, Note_on_c, 3, 71, 0
5, 14160, Note_on_c, 3, 73, 100
5, 14280, Note_on_c, 3, 73, 0
5, 14460, Note_on_c, 3, 76, 100
5, 14520, Note_on_c, 3, 76, 0
5, 14520, Note_on_c, 3, 76, 100
5, 14640, Note_on_c, 3, 76, 0
5, 14640, Note_on_c, 3, 74, 100
5, 14760, Note_on_c, 3, 74, 0
5, 14760, Note_on_c, 3, 73, 100
5, 14820, Note_on_c, 3, 73, 0
5, 14820, Note_on_c, 3, 71, 100
5, 14880, Note_on_c, 3, 71, 0
5, 14880, Note_on_c, 3, 71, 100
5, 14940, Note_on_c, 3, 71, 0
5, 14940, Note_on_c, 3, 71, 100
5, 15060, Note_on_c, 3, 71, 0
5, 15060, Note_on_c, 3, 71, 100
5, 15120, Note_on_c, 3, 71, 0
5, 15120, Note_on_c, 3, 73, 100
5, 15240, Note_on_c, 3, 73, 0
5, 15480, Note_on_c, 3, 73, 100
5, 15540, Note_on_c, 3, 73, 0
5, 15540, Note_on_c, 3, 71, 100
5, 15600, Note_on_c, 3, 71, 0
5, 15600, Note_on_c, 3, 73, 100
5, 15720, Note_on_c, 3, 73, 0
5, 15780, Note_on_c, 3, 69, 100
5, 15840, Note_on_c, 3, 69, 0
5, 15840, Note_on_c, 3, 74, 100
5, 15900, Note_on_c, 3, 74, 0
5, 15900, Note_on_c, 3, 74, 100
5, 16020, Note_on_c, 3, 74, 0
5, 16020, Note_on_c, 3, 74, 100
5, 16200, Note_on_c, 3, 74, 0
5, 16380, Note_on_c, 3, 74, 100
5, 16440, Note_on_c, 3, 74, 0
5, 16440, Note_on_c, 3, 73, 100
5, 16500, Note_on_c, 3, 73, 0
5, 16500, Note_on_c, 3, 71, 100
5, 16560, Note_on_c, 3, 71, 0
5, 16560, Note_on_c, 3, 69, 100
5, 16740, Note_on_c, 3, 69, 0
5, 16740, Note_on_c, 3, 64, 100
5, 16800, Note_on_c, 3, 64, 0
5, 16800, Note_on_c, 3, 76, 100
5, 16860, Note_on_c, 3, 76, 0
5, 16860, Note_on_c, 3, 76, 100
5, 16980, Note_on_c, 3, 76, 0
5, 16980, Note_on_c, 3, 76, 100
5, 17160, Note_on_c, 3, 76, 0
5, 17400, Note_on_c, 3, 76, 100
5, 17460, Note_on_c, 3, 76, 0
5, 17460, Note_on_c, 3, 74, 100
5, 17520, Note_on_c, 3, 74, 0
5, 17520, Note_on_c, 3, 74, 100
5, 17580, Note_on_c, 3, 74, 0
5, 17580, Note_on_c, 3, 73, 100
5, 17640, Note_on_c, 3, 73, 0
5, 17700, Note_on_c, 3, 71, 100
5, 17760, Note_on_c, 3, 71, 0
5, 17760, Note_on_c, 3, 71, 100
5, 17820, Note_on_c, 3, 71, 0
5, 17820, Note_on_c, 3, 71, 100
5, 17940, Note_on_c, 3, 71, 0
5, 17940, Note_on_c, 3, 71, 100
5, 18000, Note_on_c, 3, 71, 0
5, 18000, Note_on_c, 3, 73, 100
5, 18120, Note_on_c, 3, 73, 0
5, 18360, Note_on_c, 3, 76, 100
5, 18420, Note_on_c, 3, 76, 0
5, 18420, Note_on_c, 3, 74, 100
5, 18480, Note_on_c, 3, 74, 0
5, 18480, Note_on_c, 3, 74, 100
5, 18540, Note_on_c, 3, 74, 0
5, 18540, Note_on_c, 3, 73, 100
5, 18600, Note_on_c, 3, 73, 0
5, 18660, Note_on_c, 3, 71, 100
5, 18720, Note_on_c, 3, 71, 0
5, 18720, Note_on_c, 3, 71, 100
5, 18780, Note_on_c, 3, 71, 0
5, 18780, Note_on_c, 3, 71, 100
5, 18840, Note_on_c, 3, 71, 0
5, 18840, Note_on_c, 3, 71, 100
5, 18900, Note_on_c, 3, 71, 0
5, 18900, Note_on_c, 3, 73, 100
5, 19080, Note_on_c, 3, 73, 0
5, 19320, Note_on_c, 3, 76, 100
5, 19380, Note_on_c, 3, 76, 0
5, 19380, Note_on_c, 3, 74, 100
5, 19440, Note_on_c, 3, 74, 0
5, 19440, Note_on_c, 3, 74, 100
5, 19500, Note_on_c, 3, 74, 0
5, 19500, Note_on_c, 3, 73, 100
5, 19560, Note_on_c, 3, 73, 0
5, 19620, Note_on_c, 3, 71, 100
5, 19680, Note_on_c, 3, 71, 0
5, 19680, Note_on_c, 3, 71, 100
5, 19740, Note_on_c, 3, 71, 0
5, 19740, Note_on_c, 3, 71, 100
5, 19860, Note_on_c, 3, 71, 0
5, 19860, Note_on_c, 3, 71, 100
5, 19920, Note_on_c, 3, 71, 0
5, 19920, Note_on_c, 3, 73, 100
5, 20040, Note_on_c, 3, 73, 0
5, 20280, Note_on_c, 3, 76, 100
5, 20400, Note_on_c, 3, 76, 0
5, 20400, Note_on_c, 3, 74, 100
5, 20520, Note_on_c, 3, 74, 0
5, 20580, Note_on_c, 3, 64, 100
5, 20640, Note_on_c, 3, 64, 0
5, 20640, Note_on_c, 3, 73, 100
5, 20700, Note_on_c, 3, 73, 0
5, 20700, Note_on_c, 3, 71, 100
5, 20820, Note_on_c, 3, 71, 0
5, 20820, Note_on_c, 3, 73, 100
5, 21000, Note_on_c, 3, 73, 0
5, 25080, Note_on_c, 3, 74, 100
5, 25140, Note_on_c, 3, 74, 0
5, 25140, Note_on_c, 3, 74, 100
5, 25200, Note_on_c, 3, 74, 0
5, 25200, Note_on_c, 3, 74, 100
5, 25260, Note_on_c, 3, 74, 0
5, 25260, Note_on_c, 3, 73, 100
5, 25320, Note_on_c, 3, 73, 0
5, 25440, Note_on_c, 3, 73, 100
5, 25500, Note_on_c, 3, 73, 0
5, 25500, Note_on_c, 3, 71, 100
5, 25620, Note_on_c, 3, 71, 0
5, 25620, Note_on_c, 3, 73, 100
5, 25740, Note_on_c, 3, 73, 0
5, 25740, Note_on_c, 3, 64, 100
5, 25800, Note_on_c, 3, 64, 0
5, 25800, Note_on_c, 3, 64, 100
5, 25920, Note_on_c, 3, 64, 0
5, 26040, Note_on_c, 3, 74, 100
5, 26160, Note_on_c, 3, 74, 0
5, 26160, Note_on_c, 3, 74, 100
5, 26220, Note_on_c, 3, 74, 0
5, 26220, Note_on_c, 3, 73, 100
5, 26280, Note_on_c, 3, 73, 0
5, 26280, Note_on_c, 3, 73, 100
5, 26340, Note_on_c, 3, 73, 0
5, 26340, Note_on_c, 3, 71, 100
5, 26400, Note_on_c, 3, 71, 0
5, 26400, Note_on_c, 3, 71, 100
5, 26460, Note_on_c, 3, 71, 0
5, 26460, Note_on_c, 3, 71, 100
5, 26520, Note_on_c, 3, 71, 0
5, 26520, Note_on_c, 3, 71, 100
5, 26580, Note_on_c, 3, 71, 0
5, 26580, Note_on_c, 3, 73, 100
5, 26700, Note_on_c, 3, 73, 0
5, 27000, Note_on_c, 3, 74, 100
5, 27120, Note_on_c, 3, 74, 0
5, 27120, Note_on_c, 3, 74, 100
5, 27180, Note_on_c, 3, 74, 0
5, 27180, Note_on_c, 3, 76, 100
5, 27240, Note_on_c, 3, 76, 0
5, 27300, Note_on_c, 3, 71, 100
5, 27360, Note_on_c, 3, 71, 0
5, 27360, Note_on_c, 3, 73, 100
5, 27420, Note_on_c, 3, 73, 0
5, 27420, Note_on_c, 3, 71, 100
5, 27540, Note_on_c, 3, 71, 0
5, 27540, Note_on_c, 3, 71, 100
5, 27600, Note_on_c, 3, 71, 0
5, 27600, Note_on_c, 3, 73, 100
5, 27720, Note_on_c, 3, 73, 0
5, 27960, Note_on_c, 3, 74, 100
5, 28080, Note_on_c, 3, 74, 0
5, 28080, Note_on_c, 3, 74, 100
5, 28200, Note_on_c, 3, 74, 0
5, 28260, Note_on_c, 3, 71, 100
5, 28320, Note_on_c, 3, 71, 0
5, 28320, Note_on_c, 3, 73, 100
5, 28380, Note_on_c, 3, 73, 0
5, 28380, Note_on_c, 3, 71, 100
5, 28440, Note_on_c, 3, 71, 0
5, 28440, Note_on_c, 3, 71, 100
5, 28500, Note_on_c, 3, 71, 0
5, 28500, Note_on_c, 3, 73, 100
5, 28620, Note_on_c, 3, 73, 0
5, 28860, Note_on_c, 3, 74, 100
5, 28920, Note_on_c, 3, 74, 0
5, 28920, Note_on_c, 3, 76, 100
5, 29040, Note_on_c, 3, 76, 0
5, 29040, Note_on_c, 3, 74, 100
5, 29160, Note_on_c, 3, 74, 0
5, 29160, Note_on_c, 3, 73, 100
5, 29220, Note_on_c, 3, 73, 0
5, 29220, Note_on_c, 3, 71, 100
5, 29280, Note_on_c, 3, 71, 0
5, 29280, Note_on_c, 3, 71, 100
5, 29340, Note_on_c, 3, 71, 0
5, 29340, Note_on_c, 3, 71, 100
5, 29460, Note_on_c, 3, 71, 0
5, 29460, Note_on_c, 3, 73, 100
5, 29640, Note_on_c, 3, 73, 0
5, 29820, Note_on_c, 3, 76, 100
5, 29880, Note_on_c, 3, 76, 0
5, 29880, Note_on_c, 3, 76, 100
5, 30000, Note_on_c, 3, 76, 0
5, 30000, Note_on_c, 3, 74, 100
5, 30060, Note_on_c, 3, 74, 0
5, 30060, Note_on_c, 3, 73, 100
5, 30120, Note_on_c, 3, 73, 0
5, 30120, Note_on_c, 3, 73, 100
5, 30180, Note_on_c, 3, 73, 0
5, 30180, Note_on_c, 3, 71, 100
5, 30240, Note_on_c, 3, 71, 0
5, 30240, Note_on_c, 3, 71, 100
5, 30300, Note_on_c, 3, 71, 0
5, 30300, Note_on_c, 3, 71, 100
5, 30420, Note_on_c, 3, 71, 0
5, 30420, Note_on_c, 3, 71, 100
5, 30480, Note_on_c, 3, 71, 0
5, 30480, Note_on_c, 3, 73, 100
5, 30600, Note_on_c, 3, 73, 0
5, 30780, Note_on_c, 3, 76, 100
5, 30840, Note_on_c, 3, 76, 0
5, 30840, Note_on_c, 3, 76, 100
5, 30960, Note_on_c, 3, 76, 0
5, 30960, Note_on_c, 3, 74, 100
5, 31020, Note_on_c, 3, 74, 0
5, 31020, Note_on_c, 3, 73, 100
5, 31080, Note_on_c, 3, 73, 0
5, 31080, Note_on_c, 3, 73, 100
5, 31140, Note_on_c, 3, 73, 0
5, 31140, Note_on_c, 3, 71, 100
5, 31200, Note_on_c, 3, 71, 0
5, 31200, Note_on_c, 3, 71, 100
5, 31260, Note_on_c, 3, 71, 0
5, 31260, Note_on_c, 3, 71, 100
5, 31380, Note_on_c, 3, 71, 0
5, 31380, Note_on_c, 3, 71, 100
5, 31440, Note_on_c, 3, 71, 0
5, 31440, Note_on_c, 3, 73, 100
5, 31560, Note_on_c, 3, 73, 0
5, 31740, Note_on_c, 3, 76, 100
5, 31800, Note_on_c, 3, 76, 0
5, 31800, Note_on_c, 3, 76, 100
5, 31920, Note_on_c, 3, 76, 0
5, 31920, Note_on_c, 3, 74, 100
5, 32040, Note_on_c, 3, 74, 0
5, 32040, Note_on_c, 3, 73, 100
5, 32100, Note_on_c, 3, 73, 0
5, 32100, Note_on_c, 3, 71, 100
5, 32160, Note_on_c, 3, 71, 0
5, 32160, Note_on_c, 3, 71, 100
5, 32220, Note_on_c, 3, 71, 0
5, 32220, Note_on_c, 3, 71, 100
5, 32340, Note_on_c, 3, 71, 0
5, 32340, Note_on_c, 3, 71, 100
5, 32400, Note_on_c, 3, 71, 0
5, 32400, Note_on_c, 3, 73, 100
5, 32520, Note_on_c, 3, 73, 0
5, 32760, Note_on_c, 3, 73, 100
5, 32820, Note_on_c, 3, 73, 0
5, 32820, Note_on_c, 3, 71, 100
5, 32880, Note_on_c, 3, 71, 0
5, 32880, Note_on_c, 3, 73, 100
5, 33000, Note_on_c, 3, 73, 0
5, 33060, Note_on_c, 3, 69, 100
5, 33120, Note_on_c, 3, 69, 0
5, 33120, Note_on_c, 3, 74, 100
5, 33180, Note_on_c, 3, 74, 0
5, 33180, Note_on_c, 3, 74, 100
5, 33300, Note_on_c, 3, 74, 0
5, 33300, Note_on_c, 3, 74, 100
5, 33480, Note_on_c, 3, 74, 0
5, 33660, Note_on_c, 3, 74, 100
5, 33720, Note_on_c, 3, 74, 0
5, 33720, Note_on_c, 3, 73, 100
5, 33780, Note_on_c, 3, 73, 0
5, 33780, Note_on_c, 3, 71, 100
5, 33840, Note_on_c, 3, 71, 0
5, 33840, Note_on_c, 3, 69, 100
5, 34020, Note_on_c, 3, 69, 0
5, 34020, Note_on_c, 3, 64, 100
5, 34080, Note_on_c, 3, 64, 0
5, 34080, Note_on_c, 3, 76, 100
5, 34140, Note_on_c, 3, 76, 0
5, 34140, Note_on_c, 3, 76, 100
5, 34260, Note_on_c, 3, 76, 0
5, 34260, Note_on_c, 3, 76, 100
5, 34440, Note_on_c, 3, 76, 0
5, 34680, Note_on_c, 3, 76, 100
5, 34740, Note_on_c, 3, 76, 0
5, 34740, Note_on_c, 3, 74, 100
5, 34800, Note_on_c, 3, 74, 0
5, 34800, Note_on_c, 3, 74, 100
5, 34860, Note_on_c, 3, 74, 0
5, 34860, Note_on_c, 3, 73, 100
5, 34920, Note_on_c, 3, 73, 0
5, 34980, Note_on_c, 3, 71, 100
5, 35040, Note_on_c, 3, 71, 0
5, 35040, Note_on_c, 3, 71, 100
5, 35100, Note_on_c, 3, 71, 0
5, 35100, Note_on_c, 3, 71, 100
5, 35220, Note_on_c, 3, 71, 0
5, 35220, Note_on_c, 3, 71, 100
5, 35280, Note_on_c, 3, 71, 0
5, 35280, Note_on_c, 3, 73, 100
5, 35400, Note_on_c, 3, 73, 0
5, 35640, Note_on_c, 3, 76, 100
5, 35700, Note_on_c, 3, 76, 0
5, 35700, Note_on_c, 3, 74, 100
5, 35760, Note_on_c, 3, 74, 0
5, 35760, Note_on_c, 3, 74, 100
5, 35820, Note_on_c, 3, 74, 0
5, 35820, Note_on_c, 3, 73, 100
5, 35880, Note_on_c, 3, 73, 0
5, 35940, Note_on_c, 3, 71, 100
5, 36000, Note_on_c, 3, 71, 0
5, 36000, Note_on_c, 3, 71, 100
5, 36060, Note_on_c, 3, 71, 0
5, 36060, Note_on_c, 3, 71, 100
5, 36120, Note_on_c, 3, 71, 0
5, 36120, Note_on_c, 3, 71, 100
5, 36180, Note_on_c, 3, 71, 0
5, 36180, Note_on_c, 3, 73, 100
5, 36360, Note_on_c, 3, 73, 0
5, 36600, Note_on_c, 3, 76, 100
5, 36660, Note_on_c, 3, 76, 0
5, 36660, Note_on_c, 3, 74, 100
5, 36720, Note_on_c, 3, 74, 0
5, 36720, Note_on_c, 3, 74, 100
5, 36780, Note_on_c, 3, 74, 0
5, 36780, Note_on_c, 3, 73, 100
5, 36840, Note_on_c, 3, 73, 0
5, 36900, Note_on_c, 3, 71, 100
5, 36960, Note_on_c, 3, 71, 0
5, 36960, Note_on_c, 3, 71, 100
5, 37020, Note_on_c, 3, 71, 0
5, 37020, Note_on_c, 3, 71, 100
5, 37140, Note_on_c, 3, 71, 0
5, 37140, Note_on_c, 3, 71, 100
5, 37200, Note_on_c, 3, 71, 0
5, 37200, Note_on_c, 3, 73, 100
5, 37320, Note_on_c, 3, 73, 0
5, 37560, Note_on_c, 3, 76, 100
5, 37680, Note_on_c, 3, 76, 0
5, 37680, Note_on_c, 3, 74, 100
5, 37800, Note_on_c, 3, 74, 0
5, 37860, Note_on_c, 3, 64, 100
5, 37920, Note_on_c, 3, 64, 0
5, 37920, Note_on_c, 3, 73, 100
5, 37980, Note_on_c, 3, 73, 0
5, 37980, Note_on_c, 3, 71, 100
5, 38100, Note_on_c, 3, 71, 0
5, 38100, Note_on_c, 3, 73, 100
5, 38280, Note_on_c, 3, 73, 0
5, 42360, Note_on_c, 3, 76, 100
5, 42420, Note_on_c, 3, 76, 0
5, 42420, Note_on_c, 3, 74, 100
5, 42480, Note_on_c, 3, 74, 0
5, 42480, Note_on_c, 3, 74, 100
5, 42540, Note_on_c, 3, 74, 0
5, 42540, Note_on_c, 3, 73, 100
5, 42600, Note_on_c, 3, 73, 0
5, 42660, Note_on_c, 3, 71, 100
5, 42720, Note_on_c, 3, 71, 0
5, 42720, Note_on_c, 3, 76, 100
5, 42780, Note_on_c, 3, 76, 0
5, 42780, Note_on_c, 3, 76, 100
5, 42900, Note_on_c, 3, 76, 0
5, 42900, Note_on_c, 3, 76, 100
5, 42960, Note_on_c, 3, 76, 0
5, 42960, Note_on_c, 3, 76, 100
5, 43080, Note_on_c, 3, 76, 0
5, 43320, Note_on_c, 3, 76, 100
5, 43380, Note_on_c, 3, 76, 0
5, 43380, Note_on_c, 3, 74, 100
5, 43440, Note_on_c, 3, 74, 0
5, 43440, Note_on_c, 3, 74, 100
5, 43500, Note_on_c, 3, 74, 0
5, 43500, Note_on_c, 3, 73, 100
5, 43560, Note_on_c, 3, 73, 0
5, 43620, Note_on_c, 3, 71, 100
5, 43680, Note_on_c, 3, 71, 0
5, 43680, Note_on_c, 3, 76, 100
5, 43740, Note_on_c, 3, 76, 0
5, 43740, Note_on_c, 3, 76, 100
5, 43800, Note_on_c, 3, 76, 0
5, 43800, Note_on_c, 3, 76, 100
5, 43860, Note_on_c, 3, 76, 0
5, 43860, Note_on_c, 3, 76, 100
5, 44040, Note_on_c, 3, 76, 0
5, 44280, Note_on_c, 3, 76, 100
5, 44340, Note_on_c, 3, 76, 0
5, 44340, Note_on_c, 3, 74, 100
5, 44400, Note_on_c, 3, 74, 0
5, 44400, Note_on_c, 3, 74, 100
5, 44460, Note_on_c, 3, 74, 0
5, 44460, Note_on_c, 3, 73, 100
5, 44520, Note_on_c, 3, 73, 0
5, 44580, Note_on_c, 3, 76, 100
5, 44640, Note_on_c, 3, 76, 0
5, 44640, Note_on_c, 3, 76, 100
5, 44700, Note_on_c, 3, 76, 0
5, 44700, Note_on_c, 3, 76, 100
5, 44820, Note_on_c, 3, 76, 0
5, 44820, Note_on_c, 3, 74, 100
5, 44880, Note_on_c, 3, 74, 0
5, 44880, Note_on_c, 3, 73, 100
5, 45000, Note_on_c, 3, 73, 0
5, 45240, Note_on_c, 3, 76, 100
5, 45360, Note_on_c, 3, 76, 0
5, 45360, Note_on_c, 3, 74, 100
5, 45480, Note_on_c, 3, 74, 0
5, 45540, Note_on_c, 3, 64, 100
5, 45600, Note_on_c, 3, 64, 0
5, 45600, Note_on_c, 3, 73, 100
5, 45660, Note_on_c, 3, 73, 0
5, 45660, Note_on_c, 3, 71, 100
5, 45780, Note_on_c, 3, 71, 0
5, 45780, Note_on_c, 3, 73, 100
5, 45960, Note_on_c, 3, 73, 0
5, 49860, Note_on_c, 3, 71, 100
5, 49920, Note_on_c, 3, 71, 0
5, 49920, Note_on_c, 3, 76, 100
5, 50040, Note_on_c, 3, 76, 0
5, 50040, Note_on_c, 3, 73, 100
5, 50100, Note_on_c, 3, 73, 0
5, 50100, Note_on_c, 3, 76, 100
5, 50160, Note_on_c, 3, 76, 0
5, 50160, Note_on_c, 3, 73, 100
5, 50280, Note_on_c, 3, 73, 0
5, 50340, Note_on_c, 3, 71, 100
5, 50400, Note_on_c, 3, 71, 0
5, 50400, Note_on_c, 3, 76, 100
5, 50460, Note_on_c, 3, 76, 0
5, 50460, Note_on_c, 3, 76, 100
5, 50520, Note_on_c, 3, 76, 0
5, 50520, Note_on_c, 3, 73, 100
5, 50580, Note_on_c, 3, 73, 0
5, 50580, Note_on_c, 3, 76, 100
5, 50640, Note_on_c, 3, 76, 0
5, 50640, Note_on_c, 3, 73, 100
5, 50760, Note_on_c, 3, 73, 0
5, 50820, Note_on_c, 3, 73, 100
5, 50880, Note_on_c, 3, 73, 0
5, 50880, Note_on_c, 3, 76, 100
5, 51000, Note_on_c, 3, 76, 0
5, 51000, Note_on_c, 3, 76, 100
5, 51060, Note_on_c, 3, 76, 0
5, 51060, Note_on_c, 3, 74, 100
5, 51120, Note_on_c, 3, 74, 0
5, 51120, Note_on_c, 3, 76, 100
5, 51240, Note_on_c, 3, 76, 0
5, 51240, Note_on_c, 3, 76, 100
5, 51300, Note_on_c, 3, 76, 0
5, 51300, Note_on_c, 3, 74, 100
5, 51360, Note_on_c, 3, 74, 0
5, 51360, Note_on_c, 3, 76, 100
5, 51420, Note_on_c, 3, 76, 0
5, 51420, Note_on_c, 3, 76, 100
5, 51480, Note_on_c, 3, 76, 0
5, 51480, Note_on_c, 3, 76, 100
5, 51540, Note_on_c, 3, 76, 0
5, 51540, Note_on_c, 3, 76, 100
5, 51720, Note_on_c, 3, 76, 0
5, 51960, Note_on_c, 3, 76, 100
5, 52080, Note_on_c, 3, 76, 0
5, 52080, Note_on_c, 3, 76, 100
5, 52140, Note_on_c, 3, 76, 0
5, 52140, Note_on_c, 3, 73, 100
5, 52200, Note_on_c, 3, 73, 0
5, 52200, Note_on_c, 3, 73, 100
5, 52260, Note_on_c, 3, 73, 0
5, 52260, Note_on_c, 3, 71, 100
5, 52320, Note_on_c, 3, 71, 0
5, 52320, Note_on_c, 3, 76, 100
5, 52500, Note_on_c, 3, 76, 0
5, 52500, Note_on_c, 3, 76, 100
5, 52620, Note_on_c, 3, 76, 0
5, 52620, Note_on_c, 3, 71, 100
5, 52680, Note_on_c, 3, 71, 0
5, 52680, Note_on_c, 3, 73, 100
5, 52740, Note_on_c, 3, 73, 0
5, 52740, Note_on_c, 3, 71, 100
5, 52800, Note_on_c, 3, 71, 0
5, 52920, Note_on_c, 3, 76, 100
5, 53040, Note_on_c, 3, 76, 0
5, 53040, Note_on_c, 3, 76, 100
5, 53160, Note_on_c, 3, 76, 0
5, 53160, Note_on_c, 3, 73, 100
5, 53220, Note_on_c, 3, 73, 0
5, 53220, Note_on_c, 3, 71, 100
5, 53280, Note_on_c, 3, 71, 0
5, 53280, Note_on_c, 3, 76, 100
5, 53340, Note_on_c, 3, 76, 0
5, 53340, Note_on_c, 3, 76, 100
5, 53400, Note_on_c, 3, 76, 0
5, 53400, Note_on_c, 3, 76, 100
5, 53460, Note_on_c, 3, 76, 0
5, 53460, Note_on_c, 3, 76, 100
5, 53580, Note_on_c, 3, 76, 0
5, 53580, Note_on_c, 3, 73, 100
5, 53640, Note_on_c, 3, 73, 0
5, 53640, Note_on_c, 3, 73, 100
5, 53700, Note_on_c, 3, 73, 0
5, 53700, Note_on_c, 3, 71, 100
5, 53760, Note_on_c, 3, 71, 0
5, 53880, Note_on_c, 3, 76, 100
5, 54000, Note_on_c, 3, 76, 0
5, 54000, Note_on_c, 3, 76, 100
5, 54120, Note_on_c, 3, 76, 0
5, 54120, Note_on_c, 3, 76, 100
5, 54180, Note_on_c, 3, 76, 0
5, 54180, Note_on_c, 3, 74, 100
5, 54240, Note_on_c, 3, 74, 0
5, 54240, Note_on_c, 3, 76, 100
5, 54300, Note_on_c, 3, 76, 0
5, 54300, Note_on_c, 3, 76, 100
5, 54360, Note_on_c, 3, 76, 0
5, 54360, Note_on_c, 3, 76, 100
5, 54420, Note_on_c, 3, 76, 0
5, 54420, Note_on_c, 3, 76, 100
5, 54600, Note_on_c, 3, 76, 0
5, 54600, Note_on_c, 3, 73, 100
5, 54660, Note_on_c, 3, 73, 0
5, 54660, Note_on_c, 3, 71, 100
5, 54720, Note_on_c, 3, 71, 0
5, 54720, Note_on_c, 3, 76, 100
5, 54840, Note_on_c, 3, 76, 0
5, 54840, Note_on_c, 3, 73, 100
5, 54900, Note_on_c, 3, 73, 0
5, 54900, Note_on_c, 3, 76, 100
5, 54960, Note_on_c, 3, 76, 0
5, 54960, Note_on_c, 3, 73, 100
5, 55080, Note_on_c, 3, 73, 0
5, 55140, Note_on_c, 3, 71, 100
5, 55200, Note_on_c, 3, 71, 0
5, 55200, Note_on_c, 3, 76, 100
5, 55260, Note_on_c, 3, 76, 0
5, 55260, Note_on_c, 3, 76, 100
5, 55320, Note_on_c, 3, 76, 0
5, 55320, Note_on_c, 3, 73, 100
5, 55380, Note_on_c, 3, 73, 0
5, 55380, Note_on_c, 3, 76, 100
5, 55440, Note_on_c, 3, 76, 0
5, 55440, Note_on_c, 3, 73, 100
5, 55560, Note_on_c, 3, 73, 0
5, 55620, Note_on_c, 3, 73, 100
5, 55680, Note_on_c, 3, 73, 0
5, 55680, Note_on_c, 3, 76, 100
5, 55800, Note_on_c, 3, 76, 0
5, 55800, Note_on_c, 3, 76, 100
5, 55860, Note_on_c, 3, 76, 0
5, 55860, Note_on_c, 3, 74, 100
5, 55920, Note_on_c, 3, 74, 0
5, 55920, Note_on_c, 3, 76, 100
5, 56040, Note_on_c, 3, 76, 0
5, 56040, Note_on_c, 3, 76, 100
5, 56100, Note_on_c, 3, 76, 0
5, 56100, Note_on_c, 3, 74, 100
5, 56160, Note_on_c, 3, 74, 0
5, 56160, Note_on_c, 3, 76, 100
5, 56220, Note_on_c, 3, 76, 0
5, 56220, Note_on_c, 3, 76, 100
5, 56280, Note_on_c, 3, 76, 0
5, 56280, Note_on_c, 3, 76, 100
5, 56340, Note_on_c, 3, 76, 0
5, 56340, Note_on_c, 3, 76, 100
5, 56520, Note_on_c, 3, 76, 0
5, 56760, Note_on_c, 3, 76, 100
5, 56880, Note_on_c, 3, 76, 0
5, 56880, Note_on_c, 3, 76, 100
5, 56940, Note_on_c, 3, 76, 0
5, 56940, Note_on_c, 3, 73, 100
5, 57000, Note_on_c, 3, 73, 0
5, 57000, Note_on_c, 3, 73, 100
5, 57060, Note_on_c, 3, 73, 0
5, 57060, Note_on_c, 3, 71, 100
5, 57120, Note_on_c, 3, 71, 0
5, 57120, Note_on_c, 3, 76, 100
5, 57300, Note_on_c, 3, 76, 0
5, 57300, Note_on_c, 3, 76, 100
5, 57420, Note_on_c, 3, 76, 0
5, 57420, Note_on_c, 3, 71, 100
5, 57480, Note_on_c, 3, 71, 0
5, 57480, Note_on_c, 3, 73, 100
5, 57540, Note_on_c, 3, 73, 0
5, 57540, Note_on_c, 3, 71, 100
5, 57600, Note_on_c, 3, 71, 0
5, 57720, Note_on_c, 3, 76, 100
5, 57840, Note_on_c, 3, 76, 0
5, 57840, Note_on_c, 3, 76, 100
5, 57960, Note_on_c, 3, 76, 0
5, 57960, Note_on_c, 3, 73, 100
5, 58020, Note_on_c, 3, 73, 0
5, 58020, Note_on_c, 3, 71, 100
5, 58080, Note_on_c, 3, 71, 0
5, 58080, Note_on_c, 3, 76, 100
5, 58140, Note_on_c, 3, 76, 0
5, 58140, Note_on_c, 3, 76, 100
5, 58200, Note_on_c, 3, 76, 0
5, 58200, Note_on_c, 3, 76, 100
5, 58260, Note_on_c, 3, 76, 0
5, 58260, Note_on_c, 3, 76, 100
5, 58380, Note_on_c, 3, 76, 0
5, 58380, Note_on_c, 3, 73, 100
5, 58440, Note_on_c, 3, 73, 0
5, 58440, Note_on_c, 3, 73, 100
5, 58500, Note_on_c, 3, 73, 0
5, 58500, Note_on_c, 3, 71, 100
5, 58560, Note_on_c, 3, 71, 0
5, 58680, Note_on_c, 3, 76, 100
5, 58800, Note_on_c, 3, 76, 0
5, 58800, Note_on_c, 3, 76, 100
5, 58920, Note_on_c, 3, 76, 0
5, 58920, Note_on_c, 3, 76, 100
5, 58980, Note_on_c, 3, 76, 0
5, 58980, Note_on_c, 3, 74, 100
5, 59040, Note_on_c, 3, 74, 0
5, 59040, Note_on_c, 3, 76, 100
5, 59100, Note_on_c, 3, 76, 0
5, 59100, Note_on_c, 3, 76, 100
5, 59160, Note_on_c, 3, 76, 0
5, 59160, Note_on_c, 3, 76, 100
5, 59220, Note_on_c, 3, 76, 0
5, 59220, Note_on_c, 3, 76, 100
5, 59400, Note_on_c, 3, 76, 0
5, 59400, Note_on_c, 3, 73, 100
5, 59460, Note_on_c, 3, 73, 0
5, 59460, Note_on_c, 3, 71, 100
5, 59520, Note_on_c, 3, 71, 0
5, 59520, Note_on_c, 3, 76, 100
5, 59640, Note_on_c, 3, 76, 0
5, 59640, Note_on_c, 3, 73, 100
5, 59700, Note_on_c, 3, 73, 0
5, 59700, Note_on_c, 3, 76, 100
5, 59760, Note_on_c, 3, 76, 0
5, 59760, Note_on_c, 3, 73, 100
5, 59880, Note_on_c, 3, 73, 0
5, 60420, Note_on_c, 3, 73, 100
5, 60480, Note_on_c, 3, 73, 0
5, 60480, Note_on_c, 3, 76, 100
5, 60540, Note_on_c, 3, 76, 0
5, 60540, Note_on_c, 3, 76, 100
5, 60600, Note_on_c, 3, 76, 0
5, 60600, Note_on_c, 3, 73, 100
5, 60660, Note_on_c, 3, 73, 0
5, 60660, Note_on_c, 3, 76, 100
5, 60720, Note_on_c, 3, 76, 0
5, 60720, Note_on_c, 3, 73, 100
5, 60840, Note_on_c, 3, 73, 0
5, 61380, Note_on_c, 3, 71, 100
5, 61440, Note_on_c, 3, 71, 0
5, 61440, Note_on_c, 3, 76, 100
5, 61560, Note_on_c, 3, 76, 0
5, 61560, Note_on_c, 3, 73, 100
5, 61620, Note_on_c, 3, 73, 0
5, 61620, Note_on_c, 3, 76, 100
5, 61680, Note_on_c, 3, 76, 0
5, 61680, Note_on_c, 3, 73, 100
5, 61800, Note_on_c, 3, 73, 0
5, 62340, Note_on_c, 3, 73, 100
5, 62400, Note_on_c, 3, 73, 0
5, 62400, Note_on_c, 3, 76, 100
5, 62460, Note_on_c, 3, 76, 0
5, 62460, Note_on_c, 3, 76, 100
5, 62520, Note_on_c, 3, 76, 0
5, 62520, Note_on_c, 3, 73, 100
5, 62580, Note_on_c, 3, 73, 0
5, 62580, Note_on_c, 3, 76, 100
5, 62640, Note_on_c, 3, 76, 0
5, 62640, Note_on_c, 3, 73, 100
5, 62760, Note_on_c, 3, 73, 0
5, 62760, End_track
6, 0, Start_track
6, 0, MIDI_port, 0
6, 0, Program_c, 4, 54
6, 0, Control_c, 4, 7, 105
6, 0, Control_c, 4, 10, 60
6, 2040, Note_on_c, 4, 76, 100
6, 2160, Note_on_c, 4, 76, 0
6, 2160, Note_on_c, 4, 74, 100
6, 2280, Note_on_c, 4, 74, 0
6, 2280, Note_on_c, 4, 73, 100
6, 2340, Note_on_c, 4, 73, 0
6, 2340, Note_on_c, 4, 71, 100
6, 2460, Note_on_c, 4, 71, 0
6, 2460, Note_on_c, 4, 71, 100
6, 2580, Note_on_c, 4, 71, 0
6, 2580, Note_on_c, 4, 71, 100
6, 2640, Note_on_c, 4, 71, 0
6, 2640, Note_on_c, 4, 73, 100
6, 2760, Note_on_c, 4, 73, 0
6, 2760, Note_on_c, 4, 71, 100
6, 2880, Note_on_c, 4, 71, 0
6, 3960, Note_on_c, 4, 76, 100
6, 4080, Note_on_c, 4, 76, 0
6, 4080, Note_on_c, 4, 74, 100
6, 4200, Note_on_c, 4, 74, 0
6, 4200, Note_on_c, 4, 73, 100
6, 4260, Note_on_c, 4, 73, 0
6, 4260, Note_on_c, 4, 71, 100
6, 4380, Note_on_c, 4, 71, 0
6, 4380, Note_on_c, 4, 71, 100
6, 4500, Note_on_c, 4, 71, 0
6, 4500, Note_on_c, 4, 71, 100
6, 4560, Note_on_c, 4, 71, 0
6, 4560, Note_on_c, 4, 73, 100
6, 4680, Note_on_c, 4, 73, 0
6, 4680, Note_on_c, 4, 71, 100
6, 4800, Note_on_c, 4, 71, 0
6, 5880, Note_on_c, 4, 76, 100
6, 6000, Note_on_c, 4, 76, 0
6, 6000, Note_on_c, 4, 74, 100
6, 6120, Note_on_c, 4, 74, 0
6, 6120, Note_on_c, 4, 73, 100
6, 6180, Note_on_c, 4, 73, 0
6, 6180, Note_on_c, 4, 71, 100
6, 6300, Note_on_c, 4, 71, 0
6, 6300, Note_on_c, 4, 71, 100
6, 6420, Note_on_c, 4, 71, 0
6, 6420, Note_on_c, 4, 71, 100
6, 6480, Note_on_c, 4, 71, 0
6, 6480, Note_on_c, 4, 73, 100
6, 6600, Note_on_c, 4, 73, 0
6, 6600, Note_on_c, 4, 71, 100
6, 6720, Note_on_c, 4, 71, 0
6, 17440, Note_on_c, 4, 76, 100
6, 17500, Note_on_c, 4, 76, 0
6, 17500, Note_on_c, 4, 74, 100
6, 17560, Note_on_c, 4, 74, 0
6, 17560, Note_on_c, 4, 74, 100
6, 17620, Note_on_c, 4, 74, 0
6, 17620, Note_on_c, 4, 73, 100
6, 17680, Note_on_c, 4, 73, 0
6, 18373, Note_on_c, 4, 76, 100
6, 18433, Note_on_c, 4, 76, 0
6, 18433, Note_on_c, 4, 74, 100
6, 18493, Note_on_c, 4, 74, 0
6, 18493, Note_on_c, 4, 74, 100
6, 18553, Note_on_c, 4, 74, 0
6, 18553, Note_on_c, 4, 73, 100
6, 18613, Note_on_c, 4, 73, 0
6, 19346, Note_on_c, 4, 76, 100
6, 19406, Note_on_c, 4, 76, 0
6, 19406, Note_on_c, 4, 74, 100
6, 19466, Note_on_c, 4, 74, 0
6, 19466, Note_on_c, 4, 74, 100
6, 19526, Note_on_c, 4, 74, 0
6, 19526, Note_on_c, 4, 73, 100
6, 19586, Note_on_c, 4, 73, 0
6, 23160, Note_on_c, 4, 76, 100
6, 23280, Note_on_c, 4, 76, 0
6, 23280, Note_on_c, 4, 74, 100
6, 23400, Note_on_c, 4, 74, 0
6, 23400, Note_on_c, 4, 73, 100
6, 23460, Note_on_c, 4, 73, 0
6, 23460, Note_on_c, 4, 71, 100
6, 23580, Note_on_c, 4, 71, 0
6, 23580, Note_on_c, 4, 71, 100
6, 23700, Note_on_c, 4, 71, 0
6, 23700, Note_on_c, 4, 71, 100
6, 23760, Note_on_c, 4, 71, 0
6, 23760, Note_on_c, 4, 73, 100
6, 23880, Note_on_c, 4, 73, 0
6, 23880, Note_on_c, 4, 71, 100
6, 24000, Note_on_c, 4, 71, 0
6, 34720, Note_on_c, 4, 76, 100
6, 34780, Note_on_c, 4, 76, 0
6, 34780, Note_on_c, 4, 74, 100
6, 34840, Note_on_c, 4, 74, 0
6, 34840, Note_on_c, 4, 74, 100
6, 34900, Note_on_c, 4, 74, 0
6, 34900, Note_on_c, 4, 73, 100
6, 34960, Note_on_c, 4, 73, 0
6, 35653, Note_on_c, 4, 76, 100
6, 35713, Note_on_c, 4, 76, 0
6, 35713, Note_on_c, 4, 74, 100
6, 35773, Note_on_c, 4, 74, 0
6, 35773, Note_on_c, 4, 74, 100
6, 35833, Note_on_c, 4, 74, 0
6, 35833, Note_on_c, 4, 73, 100
6, 35893, Note_on_c, 4, 73, 0
6, 36626, Note_on_c, 4, 76, 100
6, 36686, Note_on_c, 4, 76, 0
6, 36686, Note_on_c, 4, 74, 100
6, 36746, Note_on_c, 4, 74, 0
6, 36746, Note_on_c, 4, 74, 100
6, 36806, Note_on_c, 4, 74, 0
6, 36806, Note_on_c, 4, 73, 100
6, 36866, Note_on_c, 4, 73, 0
6, 40440, Note_on_c, 4, 76, 100
6, 40560, Note_on_c, 4, 76, 0
6, 40560, Note_on_c, 4, 74, 100
6, 40680, Note_on_c, 4, 74, 0
6, 40680, Note_on_c, 4, 73, 100
6, 40740, Note_on_c, 4, 73, 0
6, 40740, Note_on_c, 4, 71, 100
6, 40860, Note_on_c, 4, 71, 0
6, 40860, Note_on_c, 4, 71, 100
6, 40980, Note_on_c, 4, 71, 0
6, 40980, Note_on_c, 4, 71, 100
6, 41040, Note_on_c, 4, 71, 0
6, 41040, Note_on_c, 4, 73, 100
6, 41160, Note_on_c, 4, 73, 0
6, 41160, Note_on_c, 4, 71, 100
6, 41280, Note_on_c, 4, 71, 0
6, 42400, Note_on_c, 4, 76, 100
6, 42460, Note_on_c, 4, 76, 0
6, 42460, Note_on_c, 4, 74, 100
6, 42520, Note_on_c, 4, 74, 0
6, 42520, Note_on_c, 4, 74, 100
6, 42580, Note_on_c, 4, 74, 0
6, 42580, Note_on_c, 4, 73, 100
6, 42640, Note_on_c, 4, 73, 0
6, 43333, Note_on_c, 4, 76, 100
6, 43393, Note_on_c, 4, 76, 0
6, 43393, Note_on_c, 4, 74, 100
6, 43453, Note_on_c, 4, 74, 0
6, 43453, Note_on_c, 4, 74, 100
6, 43513, Note_on_c, 4, 74, 0
6, 43513, Note_on_c, 4, 73, 100
6, 43573, Note_on_c, 4, 73, 0
6, 44306, Note_on_c, 4, 76, 100
6, 44366, Note_on_c, 4, 76, 0
6, 44366, Note_on_c, 4, 74, 100
6, 44426, Note_on_c, 4, 74, 0
6, 44426, Note_on_c, 4, 74, 100
6, 44486, Note_on_c, 4, 74, 0
6, 44486, Note_on_c, 4, 73, 100
6, 44546, Note_on_c, 4, 73, 0
6, 48120, Note_on_c, 4, 76, 100
6, 48240, Note_on_c, 4, 76, 0
6, 48240, Note_on_c, 4, 74, 100
6, 48360, Note_on_c, 4, 74, 0
6, 48360, Note_on_c, 4, 73, 100
6, 48420, Note_on_c, 4, 73, 0
6, 48420, Note_on_c, 4, 71, 100
6, 48540, Note_on_c, 4, 71, 0
6, 48540, Note_on_c, 4, 71, 100
6, 48660, Note_on_c, 4, 71, 0
6, 48660, Note_on_c, 4, 71, 100
6, 48720, Note_on_c, 4, 71, 0
6, 48720, Note_on_c, 4, 73, 100
6, 48840, Note_on_c, 4, 73, 0
6, 48840, Note_on_c, 4, 71, 100
6, 48960, Note_on_c, 4, 71, 0
6, 49080, Note_on_c, 4, 76, 100
6, 49200, Note_on_c, 4, 76, 0
6, 49200, Note_on_c, 4, 74, 100
6, 49320, Note_on_c, 4, 74, 0
6, 49320, Note_on_c, 4, 73, 100
6, 49380, Note_on_c, 4, 73, 0
6, 49380, Note_on_c, 4, 71, 100
6, 49500, Note_on_c, 4, 71, 0
6, 49500, Note_on_c, 4, 71, 100
6, 49620, Note_on_c, 4, 71, 0
6, 49620, Note_on_c, 4, 71, 100
6, 49680, Note_on_c, 4, 71, 0
6, 49680, Note_on_c, 4, 73, 100
6, 49800, Note_on_c, 4, 73, 0
6, 49800, Note_on_c, 4, 71, 100
6, 49920, Note_on_c, 4, 71, 0
6, 49920, End_track
7, 0, Start_track
7, 0, MIDI_port, 0
7, 0, Program_c, 9, 16
7, 0, Control_c, 9, 7, 127
7, 0, Note_on_c, 9, 37, 100
7, 15, Note_on_c, 9, 37, 0
7, 120, Note_on_c, 9, 37, 100
7, 135, Note_on_c, 9, 37, 0
7, 240, Note_on_c, 9, 37, 100
7, 255, Note_on_c, 9, 37, 0
7, 360, Note_on_c, 9, 37, 100
7, 375, Note_on_c, 9, 37, 0
7, 480, Note_on_c, 9, 37, 100
7, 495, Note_on_c, 9, 37, 0
7, 600, Note_on_c, 9, 37, 100
7, 615, Note_on_c, 9, 37, 0
7, 720, Note_on_c, 9, 37, 100
7, 735, Note_on_c, 9, 37, 0
7, 840, Note_on_c, 9, 37, 100
7, 855, Note_on_c, 9, 37, 0
7, 960, Note_on_c, 9, 37, 100
7, 975, Note_on_c, 9, 37, 0
7, 1080, Note_on_c, 9, 37, 100
7, 1095, Note_on_c, 9, 37, 0
7, 1200, Note_on_c, 9, 37, 100
7, 1215, Note_on_c, 9, 37, 0
7, 1320, Note_on_c, 9, 37, 100
7, 1335, Note_on_c, 9, 37, 0
7, 1440, Note_on_c, 9, 37, 100
7, 1455, Note_on_c, 9, 37, 0
7, 1560, Note_on_c, 9, 37, 100
7, 1575, Note_on_c, 9, 37, 0
7, 1680, Note_on_c, 9, 37, 100
7, 1695, Note_on_c, 9, 37, 0
7, 1800, Note_on_c, 9, 37, 100
7, 1815, Note_on_c, 9, 37, 0
7, 1920, Note_on_c, 9, 39, 100
7, 1920, Note_on_c, 9, 38, 100
7, 1920, Note_on_c, 9, 49, 100
7, 1935, Note_on_c, 9, 49, 0
7, 1935, Note_on_c, 9, 38, 0
7, 1935, Note_on_c, 9, 39, 0
7, 2040, Note_on_c, 9, 39, 100
7, 2040, Note_on_c, 9, 38, 100
7, 2055, Note_on_c, 9, 38, 0
7, 2055, Note_on_c, 9, 39, 0
7, 2160, Note_on_c, 9, 39, 100
7, 2160, Note_on_c, 9, 38, 100
7, 2175, Note_on_c, 9, 38, 0
7, 2175, Note_on_c, 9, 39, 0
7, 2280, Note_on_c, 9, 39, 100
7, 2280, Note_on_c, 9, 38, 100
7, 2295, Note_on_c, 9, 38, 0
7, 2295, Note_on_c, 9, 39, 0
7, 2400, Note_on_c, 9, 39, 100
7, 2400, Note_on_c, 9, 38, 100
7, 2415, Note_on_c, 9, 38, 0
7, 2415, Note_on_c, 9, 39, 0
7, 2520, Note_on_c, 9, 39, 100
7, 2520, Note_on_c, 9, 38, 100
7, 2535, Note_on_c, 9, 38, 0
7, 2535, Note_on_c, 9, 39, 0
7, 2640, Note_on_c, 9, 39, 100
7, 2640, Note_on_c, 9, 38, 100
7, 2655, Note_on_c, 9, 38, 0
7, 2655, Note_on_c, 9, 39, 0
7, 2760, Note_on_c, 9, 39, 100
7, 2760, Note_on_c, 9, 38, 100
7, 2775, Note_on_c, 9, 38, 0
7, 2775, Note_on_c, 9, 39, 0
7, 2880, Note_on_c, 9, 39, 100
7, 2880, Note_on_c, 9, 38, 100
7, 2895, Note_on_c, 9, 38, 0
7, 2895, Note_on_c, 9, 39, 0
7, 3000, Note_on_c, 9, 39, 100
7, 3000, Note_on_c, 9, 38, 100
7, 3015, Note_on_c, 9, 38, 0
7, 3015, Note_on_c, 9, 39, 0
7, 3120, Note_on_c, 9, 39, 100
7, 3120, Note_on_c, 9, 38, 100
7, 3135, Note_on_c, 9, 38, 0
7, 3135, Note_on_c, 9, 39, 0
7, 3240, Note_on_c, 9, 39, 100
7, 3240, Note_on_c, 9, 38, 100
7, 3255, Note_on_c, 9, 38, 0
7, 3255, Note_on_c, 9, 39, 0
7, 3360, Note_on_c, 9, 39, 100
7, 3360, Note_on_c, 9, 38, 100
7, 3375, Note_on_c, 9, 38, 0
7, 3375, Note_on_c, 9, 39, 0
7, 3480, Note_on_c, 9, 39, 100
7, 3480, Note_on_c, 9, 38, 100
7, 3495, Note_on_c, 9, 38, 0
7, 3495, Note_on_c, 9, 39, 0
7, 3600, Note_on_c, 9, 39, 100
7, 3600, Note_on_c, 9, 38, 100
7, 3615, Note_on_c, 9, 38, 0
7, 3615, Note_on_c, 9, 39, 0
7, 3660, Note_on_c, 9, 38, 100
7, 3675, Note_on_c, 9, 38, 0
7, 3690, Note_on_c, 9, 38, 100
7, 3705, Note_on_c, 9, 38, 0
7, 3720, Note_on_c, 9, 39, 100
7, 3720, Note_on_c, 9, 38, 100
7, 3735, Note_on_c, 9, 38, 0
7, 3735, Note_on_c, 9, 39, 0
7, 3780, Note_on_c, 9, 38, 100
7, 3795, Note_on_c, 9, 38, 0
7, 3840, Note_on_c, 9, 39, 100
7, 3840, Note_on_c, 9, 38, 100
7, 3840, Note_on_c, 9, 49, 100
7, 3855, Note_on_c, 9, 49, 0
7, 3855, Note_on_c, 9, 38, 0
7, 3855, Note_on_c, 9, 39, 0
7, 3960, Note_on_c, 9, 39, 100
7, 3960, Note_on_c, 9, 38, 100
7, 3975, Note_on_c, 9, 38, 0
7, 3975, Note_on_c, 9, 39, 0
7, 4080, Note_on_c, 9, 39, 100
7, 4080, Note_on_c, 9, 38, 100
7, 4095, Note_on_c, 9, 38, 0
7, 4095, Note_on_c, 9, 39, 0
7, 4200, Note_on_c, 9, 39, 100
7, 4200, Note_on_c, 9, 38, 100
7, 4215, Note_on_c, 9, 38, 0
7, 4215, Note_on_c, 9, 39, 0
7, 4320, Note_on_c, 9, 39, 100
7, 4320, Note_on_c, 9, 38, 100
7, 4335, Note_on_c, 9, 38, 0
7, 4335, Note_on_c, 9, 39, 0
7, 4440, Note_on_c, 9, 39, 100
7, 4440, Note_on_c, 9, 38, 100
7, 4455, Note_on_c, 9, 38, 0
7, 4455, Note_on_c, 9, 39, 0
7, 4560, Note_on_c, 9, 39, 100
7, 4560, Note_on_c, 9, 38, 100
7, 4575, Note_on_c, 9, 38, 0
7, 4575, Note_on_c, 9, 39, 0
7, 4680, Note_on_c, 9, 39, 100
7, 4680, Note_on_c, 9, 38, 100
7, 4695, Note_on_c, 9, 38, 0
7, 4695, Note_on_c, 9, 39, 0
7, 4800, Note_on_c, 9, 39, 100
7, 4800, Note_on_c, 9, 38, 100
7, 4815, Note_on_c, 9, 38, 0
7, 4815, Note_on_c, 9, 39, 0
7, 4920, Note_on_c, 9, 39, 100
7, 4920, Note_on_c, 9, 38, 100
7, 4935, Note_on_c, 9, 38, 0
7, 4935, Note_on_c, 9, 39, 0
7, 5040, Note_on_c, 9, 39, 100
7, 5040, Note_on_c, 9, 38, 100
7, 5055, Note_on_c, 9, 38, 0
7, 5055, Note_on_c, 9, 39, 0
7, 5160, Note_on_c, 9, 39, 100
7, 5160, Note_on_c, 9, 38, 100
7, 5175, Note_on_c, 9, 38, 0
7, 5175, Note_on_c, 9, 39, 0
7, 5280, Note_on_c, 9, 39, 100
7, 5280, Note_on_c, 9, 38, 100
7, 5295, Note_on_c, 9, 38, 0
7, 5295, Note_on_c, 9, 39, 0
7, 5400, Note_on_c, 9, 39, 100
7, 5400, Note_on_c, 9, 38, 100
7, 5415, Note_on_c, 9, 38, 0
7, 5415, Note_on_c, 9, 39, 0
7, 5520, Note_on_c, 9, 39, 100
7, 5520, Note_on_c, 9, 38, 100
7, 5535, Note_on_c, 9, 38, 0
7, 5535, Note_on_c, 9, 39, 0
7, 5640, Note_on_c, 9, 39, 100
7, 5640, Note_on_c, 9, 38, 100
7, 5655, Note_on_c, 9, 38, 0
7, 5655, Note_on_c, 9, 39, 0
7, 5760, Note_on_c, 9, 39, 100
7, 5760, Note_on_c, 9, 38, 100
7, 5775, Note_on_c, 9, 38, 0
7, 5775, Note_on_c, 9, 39, 0
7, 5880, Note_on_c, 9, 39, 100
7, 5880, Note_on_c, 9, 38, 100
7, 5895, Note_on_c, 9, 38, 0
7, 5895, Note_on_c, 9, 39, 0
7, 6000, Note_on_c, 9, 39, 100
7, 6000, Note_on_c, 9, 38, 100
7, 6015, Note_on_c, 9, 38, 0
7, 6015, Note_on_c, 9, 39, 0
7, 6120, Note_on_c, 9, 39, 100
7, 6120, Note_on_c, 9, 38, 100
7, 6135, Note_on_c, 9, 38, 0
7, 6135, Note_on_c, 9, 39, 0
7, 6240, Note_on_c, 9, 39, 100
7, 6240, Note_on_c, 9, 38, 100
7, 6255, Note_on_c, 9, 38, 0
7, 6255, Note_on_c, 9, 39, 0
7, 6360, Note_on_c, 9, 39, 100
7, 6360, Note_on_c, 9, 38, 100
7, 6375, Note_on_c, 9, 38, 0
7, 6375, Note_on_c, 9, 39, 0
7, 6480, Note_on_c, 9, 39, 100
7, 6480, Note_on_c, 9, 38, 100
7, 6495, Note_on_c, 9, 38, 0
7, 6495, Note_on_c, 9, 39, 0
7, 6600, Note_on_c, 9, 39, 100
7, 6600, Note_on_c, 9, 38, 100
7, 6615, Note_on_c, 9, 38, 0
7, 6615, Note_on_c, 9, 39, 0
7, 6720, Note_on_c, 9, 39, 100
7, 6720, Note_on_c, 9, 38, 100
7, 6735, Note_on_c, 9, 38, 0
7, 6735, Note_on_c, 9, 39, 0
7, 6840, Note_on_c, 9, 39, 100
7, 6840, Note_on_c, 9, 38, 100
7, 6855, Note_on_c, 9, 38, 0
7, 6855, Note_on_c, 9, 39, 0
7, 6960, Note_on_c, 9, 39, 100
7, 6960, Note_on_c, 9, 38, 100
7, 6975, Note_on_c, 9, 38, 0
7, 6975, Note_on_c, 9, 39, 0
7, 7080, Note_on_c, 9, 39, 100
7, 7080, Note_on_c, 9, 38, 100
7, 7095, Note_on_c, 9, 38, 0
7, 7095, Note_on_c, 9, 39, 0
7, 7200, Note_on_c, 9, 39, 100
7, 7200, Note_on_c, 9, 38, 100
7, 7215, Note_on_c, 9, 38, 0
7, 7215, Note_on_c, 9, 39, 0
7, 7320, Note_on_c, 9, 39, 100
7, 7320, Note_on_c, 9, 38, 100
7, 7335, Note_on_c, 9, 38, 0
7, 7335, Note_on_c, 9, 39, 0
7, 7440, Note_on_c, 9, 39, 100
7, 7440, Note_on_c, 9, 38, 100
7, 7455, Note_on_c, 9, 38, 0
7, 7455, Note_on_c, 9, 39, 0
7, 7500, Note_on_c, 9, 38, 100
7, 7515, Note_on_c, 9, 38, 0
7, 7530, Note_on_c, 9, 38, 100
7, 7545, Note_on_c, 9, 38, 0
7, 7560, Note_on_c, 9, 39, 100
7, 7560, Note_on_c, 9, 38, 100
7, 7575, Note_on_c, 9, 38, 0
7, 7575, Note_on_c, 9, 39, 0
7, 7620, Note_on_c, 9, 38, 100
7, 7635, Note_on_c, 9, 38, 0
7, 7680, Note_on_c, 9, 39, 100
7, 7680, Note_on_c, 9, 38, 100
7, 7680, Note_on_c, 9, 49, 100
7, 7695, Note_on_c, 9, 49, 0
7, 7695, Note_on_c, 9, 38, 0
7, 7695, Note_on_c, 9, 39, 0
7, 7800, Note_on_c, 9, 39, 100
7, 7800, Note_on_c, 9, 38, 100
7, 7815, Note_on_c, 9, 38, 0
7, 7815, Note_on_c, 9, 39, 0
7, 7920, Note_on_c, 9, 39, 100
7, 7920, Note_on_c, 9, 38, 100
7, 7935, Note_on_c, 9, 38, 0
7, 7935, Note_on_c, 9, 39, 0
7, 8040, Note_on_c, 9, 39, 100
7, 8040, Note_on_c, 9, 38, 100
7, 8055, Note_on_c, 9, 38, 0
7, 8055, Note_on_c, 9, 39, 0
7, 8160, Note_on_c, 9, 39, 100
7, 8160, Note_on_c, 9, 38, 100
7, 8175, Note_on_c, 9, 38, 0
7, 8175, Note_on_c, 9, 39, 0
7, 8280, Note_on_c, 9, 39, 100
7, 8280, Note_on_c, 9, 38, 100
7, 8295, Note_on_c, 9, 38, 0
7, 8295, Note_on_c, 9, 39, 0
7, 8400, Note_on_c, 9, 39, 100
7, 8400, Note_on_c, 9, 38, 100
7, 8415, Note_on_c, 9, 38, 0
7, 8415, Note_on_c, 9, 39, 0
7, 8520, Note_on_c, 9, 39, 100
7, 8520, Note_on_c, 9, 38, 100
7, 8535, Note_on_c, 9, 38, 0
7, 8535, Note_on_c, 9, 39, 0
7, 8640, Note_on_c, 9, 39, 100
7, 8640, Note_on_c, 9, 38, 100
7, 8655, Note_on_c, 9, 38, 0
7, 8655, Note_on_c, 9, 39, 0
7, 8760, Note_on_c, 9, 39, 100
7, 8760, Note_on_c, 9, 38, 100
7, 8775, Note_on_c, 9, 38, 0
7, 8775, Note_on_c, 9, 39, 0
7, 8880, Note_on_c, 9, 39, 100
7, 8880, Note_on_c, 9, 38, 100
7, 8895, Note_on_c, 9, 38, 0
7, 8895, Note_on_c, 9, 39, 0
7, 9000, Note_on_c, 9, 39, 100
7, 9000, Note_on_c, 9, 38, 100
7, 9015, Note_on_c, 9, 38, 0
7, 9015, Note_on_c, 9, 39, 0
7, 9120, Note_on_c, 9, 39, 100
7, 9120, Note_on_c, 9, 38, 100
7, 9135, Note_on_c, 9, 38, 0
7, 9135, Note_on_c, 9, 39, 0
7, 9240, Note_on_c, 9, 39, 100
7, 9240, Note_on_c, 9, 38, 100
7, 9255, Note_on_c, 9, 38, 0
7, 9255, Note_on_c, 9, 39, 0
7, 9360, Note_on_c, 9, 39, 100
7, 9360, Note_on_c, 9, 38, 100
7, 9375, Note_on_c, 9, 38, 0
7, 9375, Note_on_c, 9, 39, 0
7, 9480, Note_on_c, 9, 39, 100
7, 9480, Note_on_c, 9, 38, 100
7, 9495, Note_on_c, 9, 38, 0
7, 9495, Note_on_c, 9, 39, 0
7, 9600, Note_on_c, 9, 39, 100
7, 9600, Note_on_c, 9, 38, 100
7, 9615, Note_on_c, 9, 38, 0
7, 9615, Note_on_c, 9, 39, 0
7, 9720, Note_on_c, 9, 39, 100
7, 9720, Note_on_c, 9, 38, 100
7, 9735, Note_on_c, 9, 38, 0
7, 9735, Note_on_c, 9, 39, 0
7, 9840, Note_on_c, 9, 39, 100
7, 9840, Note_on_c, 9, 38, 100
7, 9855, Note_on_c, 9, 38, 0
7, 9855, Note_on_c, 9, 39, 0
7, 9960, Note_on_c, 9, 39, 100
7, 9960, Note_on_c, 9, 38, 100
7, 9975, Note_on_c, 9, 38, 0
7, 9975, Note_on_c, 9, 39, 0
7, 10080, Note_on_c, 9, 39, 100
7, 10080, Note_on_c, 9, 38, 100
7, 10095, Note_on_c, 9, 38, 0
7, 10095, Note_on_c, 9, 39, 0
7, 10200, Note_on_c, 9, 39, 100
7, 10200, Note_on_c, 9, 38, 100
7, 10215, Note_on_c, 9, 38, 0
7, 10215, Note_on_c, 9, 39, 0
7, 10320, Note_on_c, 9, 39, 100
7, 10320, Note_on_c, 9, 38, 100
7, 10335, Note_on_c, 9, 38, 0
7, 10335, Note_on_c, 9, 39, 0
7, 10440, Note_on_c, 9, 39, 100
7, 10440, Note_on_c, 9, 38, 100
7, 10455, Note_on_c, 9, 38, 0
7, 10455, Note_on_c, 9, 39, 0
7, 10560, Note_on_c, 9, 39, 100
7, 10560, Note_on_c, 9, 38, 100
7, 10575, Note_on_c, 9, 38, 0
7, 10575, Note_on_c, 9, 39, 0
7, 10680, Note_on_c, 9, 39, 100
7, 10680, Note_on_c, 9, 38, 100
7, 10695, Note_on_c, 9, 38, 0
7, 10695, Note_on_c, 9, 39, 0
7, 10800, Note_on_c, 9, 39, 100
7, 10800, Note_on_c, 9, 38, 100
7, 10815, Note_on_c, 9, 38, 0
7, 10815, Note_on_c, 9, 39, 0
7, 10920, Note_on_c, 9, 39, 100
7, 10920, Note_on_c, 9, 38, 100
7, 10935, Note_on_c, 9, 38, 0
7, 10935, Note_on_c, 9, 39, 0
7, 11040, Note_on_c, 9, 39, 100
7, 11040, Note_on_c, 9, 38, 100
7, 11055, Note_on_c, 9, 38, 0
7, 11055, Note_on_c, 9, 39, 0
7, 11160, Note_on_c, 9, 39, 100
7, 11160, Note_on_c, 9, 38, 100
7, 11175, Note_on_c, 9, 38, 0
7, 11175, Note_on_c, 9, 39, 0
7, 11280, Note_on_c, 9, 39, 100
7, 11280, Note_on_c, 9, 38, 100
7, 11295, Note_on_c, 9, 38, 0
7, 11295, Note_on_c, 9, 39, 0
7, 11400, Note_on_c, 9, 39, 100
7, 11400, Note_on_c, 9, 38, 100
7, 11415, Note_on_c, 9, 38, 0
7, 11415, Note_on_c, 9, 39, 0
7, 11520, Note_on_c, 9, 39, 100
7, 11520, Note_on_c, 9, 38, 100
7, 11535, Note_on_c, 9, 38, 0
7, 11535, Note_on_c, 9, 39, 0
7, 11640, Note_on_c, 9, 39, 100
7, 11640, Note_on_c, 9, 38, 100
7, 11655, Note_on_c, 9, 38, 0
7, 11655, Note_on_c, 9, 39, 0
7, 11760, Note_on_c, 9, 39, 100
7, 11760, Note_on_c, 9, 38, 100
7, 11775, Note_on_c, 9, 38, 0
7, 11775, Note_on_c, 9, 39, 0
7, 11880, Note_on_c, 9, 39, 100
7, 11880, Note_on_c, 9, 38, 100
7, 11895, Note_on_c, 9, 38, 0
7, 11895, Note_on_c, 9, 39, 0
7, 12000, Note_on_c, 9, 39, 100
7, 12000, Note_on_c, 9, 38, 100
7, 12015, Note_on_c, 9, 38, 0
7, 12015, Note_on_c, 9, 39, 0
7, 12120, Note_on_c, 9, 39, 100
7, 12120, Note_on_c, 9, 38, 100
7, 12135, Note_on_c, 9, 38, 0
7, 12135, Note_on_c, 9, 39, 0
7, 12240, Note_on_c, 9, 39, 100
7, 12240, Note_on_c, 9, 38, 100
7, 12255, Note_on_c, 9, 38, 0
7, 12255, Note_on_c, 9, 39, 0
7, 12360, Note_on_c, 9, 39, 100
7, 12360, Note_on_c, 9, 38, 100
7, 12375, Note_on_c, 9, 38, 0
7, 12375, Note_on_c, 9, 39, 0
7, 12480, Note_on_c, 9, 39, 100
7, 12480, Note_on_c, 9, 38, 100
7, 12495, Note_on_c, 9, 38, 0
7, 12495, Note_on_c, 9, 39, 0
7, 12600, Note_on_c, 9, 39, 100
7, 12600, Note_on_c, 9, 38, 100
7, 12615, Note_on_c, 9, 38, 0
7, 12615, Note_on_c, 9, 39, 0
7, 12720, Note_on_c, 9, 39, 100
7, 12720, Note_on_c, 9, 38, 100
7, 12735, Note_on_c, 9, 38, 0
7, 12735, Note_on_c, 9, 39, 0
7, 12840, Note_on_c, 9, 39, 100
7, 12840, Note_on_c, 9, 38, 100
7, 12855, Note_on_c, 9, 38, 0
7, 12855, Note_on_c, 9, 39, 0
7, 12960, Note_on_c, 9, 39, 100
7, 12960, Note_on_c, 9, 38, 100
7, 12975, Note_on_c, 9, 38, 0
7, 12975, Note_on_c, 9, 39, 0
7, 13080, Note_on_c, 9, 39, 100
7, 13080, Note_on_c, 9, 38, 100
7, 13095, Note_on_c, 9, 38, 0
7, 13095, Note_on_c, 9, 39, 0
7, 13200, Note_on_c, 9, 39, 100
7, 13200, Note_on_c, 9, 38, 100
7, 13215, Note_on_c, 9, 38, 0
7, 13215, Note_on_c, 9, 39, 0
7, 13320, Note_on_c, 9, 39, 100
7, 13320, Note_on_c, 9, 38, 100
7, 13335, Note_on_c, 9, 38, 0
7, 13335, Note_on_c, 9, 39, 0
7, 13440, Note_on_c, 9, 39, 100
7, 13440, Note_on_c, 9, 38, 100
7, 13455, Note_on_c, 9, 38, 0
7, 13455, Note_on_c, 9, 39, 0
7, 13560, Note_on_c, 9, 39, 100
7, 13560, Note_on_c, 9, 38, 100
7, 13575, Note_on_c, 9, 38, 0
7, 13575, Note_on_c, 9, 39, 0
7, 13680, Note_on_c, 9, 39, 100
7, 13680, Note_on_c, 9, 38, 100
7, 13695, Note_on_c, 9, 38, 0
7, 13695, Note_on_c, 9, 39, 0
7, 13800, Note_on_c, 9, 39, 100
7, 13800, Note_on_c, 9, 38, 100
7, 13815, Note_on_c, 9, 38, 0
7, 13815, Note_on_c, 9, 39, 0
7, 13920, Note_on_c, 9, 39, 100
7, 13920, Note_on_c, 9, 38, 100
7, 13935, Note_on_c, 9, 38, 0
7, 13935, Note_on_c, 9, 39, 0
7, 14040, Note_on_c, 9, 39, 100
7, 14040, Note_on_c, 9, 38, 100
7, 14055, Note_on_c, 9, 38, 0
7, 14055, Note_on_c, 9, 39, 0
7, 14160, Note_on_c, 9, 39, 100
7, 14160, Note_on_c, 9, 38, 100
7, 14175, Note_on_c, 9, 38, 0
7, 14175, Note_on_c, 9, 39, 0
7, 14280, Note_on_c, 9, 39, 100
7, 14280, Note_on_c, 9, 38, 100
7, 14295, Note_on_c, 9, 38, 0
7, 14295, Note_on_c, 9, 39, 0
7, 14400, Note_on_c, 9, 39, 100
7, 14400, Note_on_c, 9, 38, 100
7, 14415, Note_on_c, 9, 38, 0
7, 14415, Note_on_c, 9, 39, 0
7, 14520, Note_on_c, 9, 39, 100
7, 14520, Note_on_c, 9, 38, 100
7, 14535, Note_on_c, 9, 38, 0
7, 14535, Note_on_c, 9, 39, 0
7, 14640, Note_on_c, 9, 39, 100
7, 14640, Note_on_c, 9, 38, 100
7, 14655, Note_on_c, 9, 38, 0
7, 14655, Note_on_c, 9, 39, 0
7, 14760, Note_on_c, 9, 39, 100
7, 14760, Note_on_c, 9, 38, 100
7, 14775, Note_on_c, 9, 38, 0
7, 14775, Note_on_c, 9, 39, 0
7, 14880, Note_on_c, 9, 39, 100
7, 14880, Note_on_c, 9, 38, 100
7, 14895, Note_on_c, 9, 38, 0
7, 14895, Note_on_c, 9, 39, 0
7, 15000, Note_on_c, 9, 39, 100
7, 15000, Note_on_c, 9, 38, 100
7, 15015, Note_on_c, 9, 38, 0
7, 15015, Note_on_c, 9, 39, 0
7, 15120, Note_on_c, 9, 39, 100
7, 15120, Note_on_c, 9, 38, 100
7, 15135, Note_on_c, 9, 38, 0
7, 15135, Note_on_c, 9, 39, 0
7, 15180, Note_on_c, 9, 38, 100
7, 15195, Note_on_c, 9, 38, 0
7, 15210, Note_on_c, 9, 38, 100
7, 15225, Note_on_c, 9, 38, 0
7, 15240, Note_on_c, 9, 39, 100
7, 15240, Note_on_c, 9, 38, 100
7, 15255, Note_on_c, 9, 38, 0
7, 15255, Note_on_c, 9, 39, 0
7, 15300, Note_on_c, 9, 38, 100
7, 15315, Note_on_c, 9, 38, 0
7, 15360, Note_on_c, 9, 39, 100
7, 15360, Note_on_c, 9, 38, 100
7, 15375, Note_on_c, 9, 38, 0
7, 15375, Note_on_c, 9, 39, 0
7, 15480, Note_on_c, 9, 39, 100
7, 15480, Note_on_c, 9, 38, 100
7, 15495, Note_on_c, 9, 38, 0
7, 15495, Note_on_c, 9, 39, 0
7, 15600, Note_on_c, 9, 39, 100
7, 15600, Note_on_c, 9, 38, 100
7, 15615, Note_on_c, 9, 38, 0
7, 15615, Note_on_c, 9, 39, 0
7, 15720, Note_on_c, 9, 39, 100
7, 15720, Note_on_c, 9, 38, 100
7, 15735, Note_on_c, 9, 38, 0
7, 15735, Note_on_c, 9, 39, 0
7, 15840, Note_on_c, 9, 39, 100
7, 15840, Note_on_c, 9, 38, 100
7, 15855, Note_on_c, 9, 38, 0
7, 15855, Note_on_c, 9, 39, 0
7, 15960, Note_on_c, 9, 39, 100
7, 15960, Note_on_c, 9, 38, 100
7, 15975, Note_on_c, 9, 38, 0
7, 15975, Note_on_c, 9, 39, 0
7, 16080, Note_on_c, 9, 39, 100
7, 16080, Note_on_c, 9, 38, 100
7, 16095, Note_on_c, 9, 38, 0
7, 16095, Note_on_c, 9, 39, 0
7, 16200, Note_on_c, 9, 39, 100
7, 16200, Note_on_c, 9, 38, 100
7, 16215, Note_on_c, 9, 38, 0
7, 16215, Note_on_c, 9, 39, 0
7, 16320, Note_on_c, 9, 39, 100
7, 16320, Note_on_c, 9, 38, 100
7, 16335, Note_on_c, 9, 38, 0
7, 16335, Note_on_c, 9, 39, 0
7, 16440, Note_on_c, 9, 39, 100
7, 16440, Note_on_c, 9, 38, 100
7, 16455, Note_on_c, 9, 38, 0
7, 16455, Note_on_c, 9, 39, 0
7, 16560, Note_on_c, 9, 39, 100
7, 16560, Note_on_c, 9, 38, 100
7, 16575, Note_on_c, 9, 38, 0
7, 16575, Note_on_c, 9, 39, 0
7, 16680, Note_on_c, 9, 39, 100
7, 16680, Note_on_c, 9, 38, 100
7, 16695, Note_on_c, 9, 38, 0
7, 16695, Note_on_c, 9, 39, 0
7, 16800, Note_on_c, 9, 39, 100
7, 16800, Note_on_c, 9, 38, 100
7, 16815, Note_on_c, 9, 38, 0
7, 16815, Note_on_c, 9, 39, 0
7, 16920, Note_on_c, 9, 39, 100
7, 16920, Note_on_c, 9, 38, 100
7, 16935, Note_on_c, 9, 38, 0
7, 16935, Note_on_c, 9, 39, 0
7, 17040, Note_on_c, 9, 39, 100
7, 17040, Note_on_c, 9, 38, 100
7, 17055, Note_on_c, 9, 38, 0
7, 17055, Note_on_c, 9, 39, 0
7, 17100, Note_on_c, 9, 38, 100
7, 17115, Note_on_c, 9, 38, 0
7, 17130, Note_on_c, 9, 38, 100
7, 17145, Note_on_c, 9, 38, 0
7, 17160, Note_on_c, 9, 39, 100
7, 17160, Note_on_c, 9, 38, 100
7, 17175, Note_on_c, 9, 38, 0
7, 17175, Note_on_c, 9, 39, 0
7, 17220, Note_on_c, 9, 38, 100
7, 17235, Note_on_c, 9, 38, 0
7, 17280, Note_on_c, 9, 39, 100
7, 17280, Note_on_c, 9, 38, 100
7, 17280, Note_on_c, 9, 49, 100
7, 17295, Note_on_c, 9, 49, 0
7, 17295, Note_on_c, 9, 38, 0
7, 17295, Note_on_c, 9, 39, 0
7, 17400, Note_on_c, 9, 54, 100
7, 17400, Note_on_c, 9, 39, 100
7, 17400, Note_on_c, 9, 38, 100
7, 17415, Note_on_c, 9, 38, 0
7, 17415, Note_on_c, 9, 39, 0
7, 17415, Note_on_c, 9, 54, 0
7, 17520, Note_on_c, 9, 54, 100
7, 17520, Note_on_c, 9, 39, 100
7, 17520, Note_on_c, 9, 38, 100
7, 17535, Note_on_c, 9, 38, 0
7, 17535, Note_on_c, 9, 39, 0
7, 17535, Note_on_c, 9, 54, 0
7, 17640, Note_on_c, 9, 54, 100
7, 17640, Note_on_c, 9, 39, 100
7, 17640, Note_on_c, 9, 38, 100
7, 17655, Note_on_c, 9, 38, 0
7, 17655, Note_on_c, 9, 39, 0
7, 17655, Note_on_c, 9, 54, 0
7, 17760, Note_on_c, 9, 54, 100
7, 17760, Note_on_c, 9, 39, 100
7, 17760, Note_on_c, 9, 38, 100
7, 17775, Note_on_c, 9, 38, 0
7, 17775, Note_on_c, 9, 39, 0
7, 17775, Note_on_c, 9, 54, 0
7, 17880, Note_on_c, 9, 54, 100
7, 17880, Note_on_c, 9, 39, 100
7, 17880, Note_on_c, 9, 38, 100
7, 17895, Note_on_c, 9, 38, 0
7, 17895, Note_on_c, 9, 39, 0
7, 17895, Note_on_c, 9, 54, 0
7, 18000, Note_on_c, 9, 54, 100
7, 18000, Note_on_c, 9, 39, 100
7, 18000, Note_on_c, 9, 38, 100
7, 18015, Note_on_c, 9, 38, 0
7, 18015, Note_on_c, 9, 39, 0
7, 18015, Note_on_c, 9, 54, 0
7, 18120, Note_on_c, 9, 54, 100
7, 18120, Note_on_c, 9, 39, 100
7, 18120, Note_on_c, 9, 38, 100
7, 18135, Note_on_c, 9, 38, 0
7, 18135, Note_on_c, 9, 39, 0
7, 18135, Note_on_c, 9, 54, 0
7, 18240, Note_on_c, 9, 54, 100
7, 18240, Note_on_c, 9, 39, 100
7, 18240, Note_on_c, 9, 38, 100
7, 18255, Note_on_c, 9, 38, 0
7, 18255, Note_on_c, 9, 39, 0
7, 18255, Note_on_c, 9, 54, 0
7, 18360, Note_on_c, 9, 54, 100
7, 18360, Note_on_c, 9, 39, 100
7, 18360, Note_on_c, 9, 38, 100
7, 18375, Note_on_c, 9, 38, 0
7, 18375, Note_on_c, 9, 39, 0
7, 18375, Note_on_c, 9, 54, 0
7, 18480, Note_on_c, 9, 54, 100
7, 18480, Note_on_c, 9, 39, 100
7, 18480, Note_on_c, 9, 38, 100
7, 18495, Note_on_c, 9, 38, 0
7, 18495, Note_on_c, 9, 39, 0
7, 18495, Note_on_c, 9, 54, 0
7, 18600, Note_on_c, 9, 54, 100
7, 18600, Note_on_c, 9, 39, 100
7, 18600, Note_on_c, 9, 38, 100
7, 18615, Note_on_c, 9, 38, 0
7, 18615, Note_on_c, 9, 39, 0
7, 18615, Note_on_c, 9, 54, 0
7, 18720, Note_on_c, 9, 54, 100
7, 18720, Note_on_c, 9, 39, 100
7, 18720, Note_on_c, 9, 38, 100
7, 18735, Note_on_c, 9, 38, 0
7, 18735, Note_on_c, 9, 39, 0
7, 18735, Note_on_c, 9, 54, 0
7, 18840, Note_on_c, 9, 54, 100
7, 18840, Note_on_c, 9, 39, 100
7, 18840, Note_on_c, 9, 38, 100
7, 18855, Note_on_c, 9, 38, 0
7, 18855, Note_on_c, 9, 39, 0
7, 18855, Note_on_c, 9, 54, 0
7, 18960, Note_on_c, 9, 54, 100
7, 18960, Note_on_c, 9, 39, 100
7, 18960, Note_on_c, 9, 38, 100
7, 18975, Note_on_c, 9, 38, 0
7, 18975, Note_on_c, 9, 39, 0
7, 18975, Note_on_c, 9, 54, 0
7, 19080, Note_on_c, 9, 54, 100
7, 19080, Note_on_c, 9, 39, 100
7, 19080, Note_on_c, 9, 38, 100
7, 19095, Note_on_c, 9, 38, 0
7, 19095, Note_on_c, 9, 39, 0
7, 19095, Note_on_c, 9, 54, 0
7, 19200, Note_on_c, 9, 54, 100
7, 19200, Note_on_c, 9, 39, 100
7, 19200, Note_on_c, 9, 38, 100
7, 19215, Note_on_c, 9, 38, 0
7, 19215, Note_on_c, 9, 39, 0
7, 19215, Note_on_c, 9, 54, 0
7, 19320, Note_on_c, 9, 54, 100
7, 19320, Note_on_c, 9, 39, 100
7, 19320, Note_on_c, 9, 38, 100
7, 19335, Note_on_c, 9, 38, 0
7, 19335, Note_on_c, 9, 39, 0
7, 19335, Note_on_c, 9, 54, 0
7, 19440, Note_on_c, 9, 54, 100
7, 19440, Note_on_c, 9, 39, 100
7, 19440, Note_on_c, 9, 38, 100
7, 19455, Note_on_c, 9, 38, 0
7, 19455, Note_on_c, 9, 39, 0
7, 19455, Note_on_c, 9, 54, 0
7, 19560, Note_on_c, 9, 54, 100
7, 19560, Note_on_c, 9, 39, 100
7, 19560, Note_on_c, 9, 38, 100
7, 19575, Note_on_c, 9, 38, 0
7, 19575, Note_on_c, 9, 39, 0
7, 19575, Note_on_c, 9, 54, 0
7, 19680, Note_on_c, 9, 54, 100
7, 19680, Note_on_c, 9, 39, 100
7, 19680, Note_on_c, 9, 38, 100
7, 19695, Note_on_c, 9, 38, 0
7, 19695, Note_on_c, 9, 39, 0
7, 19695, Note_on_c, 9, 54, 0
7, 19800, Note_on_c, 9, 54, 100
7, 19800, Note_on_c, 9, 39, 100
7, 19800, Note_on_c, 9, 38, 100
7, 19815, Note_on_c, 9, 38, 0
7, 19815, Note_on_c, 9, 39, 0
7, 19815, Note_on_c, 9, 54, 0
7, 19920, Note_on_c, 9, 54, 100
7, 19920, Note_on_c, 9, 39, 100
7, 19920, Note_on_c, 9, 38, 100
7, 19935, Note_on_c, 9, 38, 0
7, 19935, Note_on_c, 9, 39, 0
7, 19935, Note_on_c, 9, 54, 0
7, 19980, Note_on_c, 9, 38, 100
7, 19995, Note_on_c, 9, 38, 0
7, 20010, Note_on_c, 9, 38, 100
7, 20025, Note_on_c, 9, 38, 0
7, 20040, Note_on_c, 9, 54, 100
7, 20040, Note_on_c, 9, 39, 100
7, 20040, Note_on_c, 9, 38, 100
7, 20055, Note_on_c, 9, 38, 0
7, 20055, Note_on_c, 9, 39, 0
7, 20055, Note_on_c, 9, 54, 0
7, 20100, Note_on_c, 9, 38, 100
7, 20115, Note_on_c, 9, 38, 0
7, 20160, Note_on_c, 9, 49, 100
7, 20160, Note_on_c, 9, 39, 100
7, 20160, Note_on_c, 9, 38, 100
7, 20160, Note_on_c, 9, 54, 100
7, 20175, Note_on_c, 9, 54, 0
7, 20175, Note_on_c, 9, 49, 0
7, 20175, Note_on_c, 9, 39, 0
7, 20175, Note_on_c, 9, 38, 0
7, 20640, Note_on_c, 9, 38, 100
7, 20640, Note_on_c, 9, 39, 100
7, 20640, Note_on_c, 9, 49, 100
7, 20655, Note_on_c, 9, 49, 0
7, 20655, Note_on_c, 9, 39, 0
7, 20655, Note_on_c, 9, 38, 0
7, 20940, Note_on_c, 9, 38, 100
7, 20955, Note_on_c, 9, 38, 0
7, 20970, Note_on_c, 9, 38, 100
7, 20985, Note_on_c, 9, 38, 0
7, 21000, Note_on_c, 9, 38, 100
7, 21015, Note_on_c, 9, 38, 0
7, 21060, Note_on_c, 9, 38, 100
7, 21075, Note_on_c, 9, 38, 0
7, 21120, Note_on_c, 9, 39, 100
7, 21120, Note_on_c, 9, 38, 100
7, 21120, Note_on_c, 9, 49, 100
7, 21135, Note_on_c, 9, 49, 0
7, 21135, Note_on_c, 9, 38, 0
7, 21135, Note_on_c, 9, 39, 0
7, 21240, Note_on_c, 9, 39, 100
7, 21240, Note_on_c, 9, 38, 100
7, 21255, Note_on_c, 9, 38, 0
7, 21255, Note_on_c, 9, 39, 0
7, 21360, Note_on_c, 9, 39, 100
7, 21360, Note_on_c, 9, 38, 100
7, 21375, Note_on_c, 9, 38, 0
7, 21375, Note_on_c, 9, 39, 0
7, 21480, Note_on_c, 9, 39, 100
7, 21480, Note_on_c, 9, 38, 100
7, 21495, Note_on_c, 9, 38, 0
7, 21495, Note_on_c, 9, 39, 0
7, 21600, Note_on_c, 9, 39, 100
7, 21600, Note_on_c, 9, 38, 100
7, 21615, Note_on_c, 9, 38, 0
7, 21615, Note_on_c, 9, 39, 0
7, 21720, Note_on_c, 9, 39, 100
7, 21720, Note_on_c, 9, 38, 100
7, 21735, Note_on_c, 9, 38, 0
7, 21735, Note_on_c, 9, 39, 0
7, 21840, Note_on_c, 9, 39, 100
7, 21840, Note_on_c, 9, 38, 100
7, 21855, Note_on_c, 9, 38, 0
7, 21855, Note_on_c, 9, 39, 0
7, 21960, Note_on_c, 9, 39, 100
7, 21960, Note_on_c, 9, 38, 100
7, 21975, Note_on_c, 9, 38, 0
7, 21975, Note_on_c, 9, 39, 0
7, 22080, Note_on_c, 9, 39, 100
7, 22080, Note_on_c, 9, 38, 100
7, 22095, Note_on_c, 9, 38, 0
7, 22095, Note_on_c, 9, 39, 0
7, 22200, Note_on_c, 9, 39, 100
7, 22200, Note_on_c, 9, 38, 100
7, 22215, Note_on_c, 9, 38, 0
7, 22215, Note_on_c, 9, 39, 0
7, 22320, Note_on_c, 9, 39, 100
7, 22320, Note_on_c, 9, 38, 100
7, 22335, Note_on_c, 9, 38, 0
7, 22335, Note_on_c, 9, 39, 0
7, 22440, Note_on_c, 9, 39, 100
7, 22440, Note_on_c, 9, 38, 100
7, 22455, Note_on_c, 9, 38, 0
7, 22455, Note_on_c, 9, 39, 0
7, 22560, Note_on_c, 9, 39, 100
7, 22560, Note_on_c, 9, 38, 100
7, 22575, Note_on_c, 9, 38, 0
7, 22575, Note_on_c, 9, 39, 0
7, 22680, Note_on_c, 9, 39, 100
7, 22680, Note_on_c, 9, 38, 100
7, 22695, Note_on_c, 9, 38, 0
7, 22695, Note_on_c, 9, 39, 0
7, 22800, Note_on_c, 9, 39, 100
7, 22800, Note_on_c, 9, 38, 100
7, 22815, Note_on_c, 9, 38, 0
7, 22815, Note_on_c, 9, 39, 0
7, 22860, Note_on_c, 9, 38, 100
7, 22875, Note_on_c, 9, 38, 0
7, 22890, Note_on_c, 9, 38, 100
7, 22905, Note_on_c, 9, 38, 0
7, 22920, Note_on_c, 9, 39, 100
7, 22920, Note_on_c, 9, 38, 100
7, 22935, Note_on_c, 9, 38, 0
7, 22935, Note_on_c, 9, 39, 0
7, 22980, Note_on_c, 9, 38, 100
7, 22995, Note_on_c, 9, 38, 0
7, 23040, Note_on_c, 9, 39, 100
7, 23040, Note_on_c, 9, 38, 100
7, 23040, Note_on_c, 9, 49, 100
7, 23055, Note_on_c, 9, 49, 0
7, 23055, Note_on_c, 9, 38, 0
7, 23055, Note_on_c, 9, 39, 0
7, 23160, Note_on_c, 9, 39, 100
7, 23160, Note_on_c, 9, 38, 100
7, 23175, Note_on_c, 9, 38, 0
7, 23175, Note_on_c, 9, 39, 0
7, 23280, Note_on_c, 9, 39, 100
7, 23280, Note_on_c, 9, 38, 100
7, 23295, Note_on_c, 9, 38, 0
7, 23295, Note_on_c, 9, 39, 0
7, 23400, Note_on_c, 9, 39, 100
7, 23400, Note_on_c, 9, 38, 100
7, 23415, Note_on_c, 9, 38, 0
7, 23415, Note_on_c, 9, 39, 0
7, 23520, Note_on_c, 9, 39, 100
7, 23520, Note_on_c, 9, 38, 100
7, 23535, Note_on_c, 9, 38, 0
7, 23535, Note_on_c, 9, 39, 0
7, 23640, Note_on_c, 9, 39, 100
7, 23640, Note_on_c, 9, 38, 100
7, 23655, Note_on_c, 9, 38, 0
7, 23655, Note_on_c, 9, 39, 0
7, 23760, Note_on_c, 9, 39, 100
7, 23760, Note_on_c, 9, 38, 100
7, 23775, Note_on_c, 9, 38, 0
7, 23775, Note_on_c, 9, 39, 0
7, 23880, Note_on_c, 9, 39, 100
7, 23880, Note_on_c, 9, 38, 100
7, 23895, Note_on_c, 9, 38, 0
7, 23895, Note_on_c, 9, 39, 0
7, 24000, Note_on_c, 9, 39, 100
7, 24000, Note_on_c, 9, 38, 100
7, 24015, Note_on_c, 9, 38, 0
7, 24015, Note_on_c, 9, 39, 0
7, 24120, Note_on_c, 9, 39, 100
7, 24120, Note_on_c, 9, 38, 100
7, 24135, Note_on_c, 9, 38, 0
7, 24135, Note_on_c, 9, 39, 0
7, 24240, Note_on_c, 9, 39, 100
7, 24240, Note_on_c, 9, 38, 100
7, 24255, Note_on_c, 9, 38, 0
7, 24255, Note_on_c, 9, 39, 0
7, 24360, Note_on_c, 9, 39, 100
7, 24360, Note_on_c, 9, 38, 100
7, 24375, Note_on_c, 9, 38, 0
7, 24375, Note_on_c, 9, 39, 0
7, 24480, Note_on_c, 9, 39, 100
7, 24480, Note_on_c, 9, 38, 100
7, 24495, Note_on_c, 9, 38, 0
7, 24495, Note_on_c, 9, 39, 0
7, 24600, Note_on_c, 9, 39, 100
7, 24600, Note_on_c, 9, 38, 100
7, 24615, Note_on_c, 9, 38, 0
7, 24615, Note_on_c, 9, 39, 0
7, 24720, Note_on_c, 9, 39, 100
7, 24720, Note_on_c, 9, 38, 100
7, 24735, Note_on_c, 9, 38, 0
7, 24735, Note_on_c, 9, 39, 0
7, 24840, Note_on_c, 9, 39, 100
7, 24840, Note_on_c, 9, 38, 100
7, 24855, Note_on_c, 9, 38, 0
7, 24855, Note_on_c, 9, 39, 0
7, 24960, Note_on_c, 9, 39, 100
7, 24960, Note_on_c, 9, 38, 100
7, 24960, Note_on_c, 9, 49, 100
7, 24975, Note_on_c, 9, 49, 0
7, 24975, Note_on_c, 9, 38, 0
7, 24975, Note_on_c, 9, 39, 0
7, 25080, Note_on_c, 9, 39, 100
7, 25080, Note_on_c, 9, 38, 100
7, 25095, Note_on_c, 9, 38, 0
7, 25095, Note_on_c, 9, 39, 0
7, 25200, Note_on_c, 9, 39, 100
7, 25200, Note_on_c, 9, 38, 100
7, 25215, Note_on_c, 9, 38, 0
7, 25215, Note_on_c, 9, 39, 0
7, 25320, Note_on_c, 9, 39, 100
7, 25320, Note_on_c, 9, 38, 100
7, 25335, Note_on_c, 9, 38, 0
7, 25335, Note_on_c, 9, 39, 0
7, 25440, Note_on_c, 9, 39, 100
7, 25440, Note_on_c, 9, 38, 100
7, 25455, Note_on_c, 9, 38, 0
7, 25455, Note_on_c, 9, 39, 0
7, 25560, Note_on_c, 9, 39, 100
7, 25560, Note_on_c, 9, 38, 100
7, 25575, Note_on_c, 9, 38, 0
7, 25575, Note_on_c, 9, 39, 0
7, 25680, Note_on_c, 9, 39, 100
7, 25680, Note_on_c, 9, 38, 100
7, 25695, Note_on_c, 9, 38, 0
7, 25695, Note_on_c, 9, 39, 0
7, 25800, Note_on_c, 9, 39, 100
7, 25800, Note_on_c, 9, 38, 100
7, 25815, Note_on_c, 9, 38, 0
7, 25815, Note_on_c, 9, 39, 0
7, 25920, Note_on_c, 9, 39, 100
7, 25920, Note_on_c, 9, 38, 100
7, 25935, Note_on_c, 9, 38, 0
7, 25935, Note_on_c, 9, 39, 0
7, 26040, Note_on_c, 9, 39, 100
7, 26040, Note_on_c, 9, 38, 100
7, 26055, Note_on_c, 9, 38, 0
7, 26055, Note_on_c, 9, 39, 0
7, 26160, Note_on_c, 9, 39, 100
7, 26160, Note_on_c, 9, 38, 100
7, 26175, Note_on_c, 9, 38, 0
7, 26175, Note_on_c, 9, 39, 0
7, 26280, Note_on_c, 9, 39, 100
7, 26280, Note_on_c, 9, 38, 100
7, 26295, Note_on_c, 9, 38, 0
7, 26295, Note_on_c, 9, 39, 0
7, 26400, Note_on_c, 9, 39, 100
7, 26400, Note_on_c, 9, 38, 100
7, 26415, Note_on_c, 9, 38, 0
7, 26415, Note_on_c, 9, 39, 0
7, 26520, Note_on_c, 9, 39, 100
7, 26520, Note_on_c, 9, 38, 100
7, 26535, Note_on_c, 9, 38, 0
7, 26535, Note_on_c, 9, 39, 0
7, 26640, Note_on_c, 9, 39, 100
7, 26640, Note_on_c, 9, 38, 100
7, 26655, Note_on_c, 9, 38, 0
7, 26655, Note_on_c, 9, 39, 0
7, 26760, Note_on_c, 9, 39, 100
7, 26760, Note_on_c, 9, 38, 100
7, 26775, Note_on_c, 9, 38, 0
7, 26775, Note_on_c, 9, 39, 0
7, 26880, Note_on_c, 9, 39, 100
7, 26880, Note_on_c, 9, 38, 100
7, 26895, Note_on_c, 9, 38, 0
7, 26895, Note_on_c, 9, 39, 0
7, 27000, Note_on_c, 9, 39, 100
7, 27000, Note_on_c, 9, 38, 100
7, 27015, Note_on_c, 9, 38, 0
7, 27015, Note_on_c, 9, 39, 0
7, 27120, Note_on_c, 9, 39, 100
7, 27120, Note_on_c, 9, 38, 100
7, 27135, Note_on_c, 9, 38, 0
7, 27135, Note_on_c, 9, 39, 0
7, 27240, Note_on_c, 9, 39, 100
7, 27240, Note_on_c, 9, 38, 100
7, 27255, Note_on_c, 9, 38, 0
7, 27255, Note_on_c, 9, 39, 0
7, 27360, Note_on_c, 9, 39, 100
7, 27360, Note_on_c, 9, 38, 100
7, 27375, Note_on_c, 9, 38, 0
7, 27375, Note_on_c, 9, 39, 0
7, 27480, Note_on_c, 9, 39, 100
7, 27480, Note_on_c, 9, 38, 100
7, 27495, Note_on_c, 9, 38, 0
7, 27495, Note_on_c, 9, 39, 0
7, 27600, Note_on_c, 9, 39, 100
7, 27600, Note_on_c, 9, 38, 100
7, 27615, Note_on_c, 9, 38, 0
7, 27615, Note_on_c, 9, 39, 0
7, 27720, Note_on_c, 9, 39, 100
7, 27720, Note_on_c, 9, 38, 100
7, 27735, Note_on_c, 9, 38, 0
7, 27735, Note_on_c, 9, 39, 0
7, 27840, Note_on_c, 9, 39, 100
7, 27840, Note_on_c, 9, 38, 100
7, 27855, Note_on_c, 9, 38, 0
7, 27855, Note_on_c, 9, 39, 0
7, 27960, Note_on_c, 9, 39, 100
7, 27960, Note_on_c, 9, 38, 100
7, 27975, Note_on_c, 9, 38, 0
7, 27975, Note_on_c, 9, 39, 0
7, 28080, Note_on_c, 9, 39, 100
7, 28080, Note_on_c, 9, 38, 100
7, 28095, Note_on_c, 9, 38, 0
7, 28095, Note_on_c, 9, 39, 0
7, 28200, Note_on_c, 9, 39, 100
7, 28200, Note_on_c, 9, 38, 100
7, 28215, Note_on_c, 9, 38, 0
7, 28215, Note_on_c, 9, 39, 0
7, 28320, Note_on_c, 9, 39, 100
7, 28320, Note_on_c, 9, 38, 100
7, 28335, Note_on_c, 9, 38, 0
7, 28335, Note_on_c, 9, 39, 0
7, 28440, Note_on_c, 9, 39, 100
7, 28440, Note_on_c, 9, 38, 100
7, 28455, Note_on_c, 9, 38, 0
7, 28455, Note_on_c, 9, 39, 0
7, 28560, Note_on_c, 9, 39, 100
7, 28560, Note_on_c, 9, 38, 100
7, 28575, Note_on_c, 9, 38, 0
7, 28575, Note_on_c, 9, 39, 0
7, 28680, Note_on_c, 9, 39, 100
7, 28680, Note_on_c, 9, 38, 100
7, 28695, Note_on_c, 9, 38, 0
7, 28695, Note_on_c, 9, 39, 0
7, 28800, Note_on_c, 9, 39, 100
7, 28800, Note_on_c, 9, 38, 100
7, 28815, Note_on_c, 9, 38, 0
7, 28815, Note_on_c, 9, 39, 0
7, 28920, Note_on_c, 9, 39, 100
7, 28920, Note_on_c, 9, 38, 100
7, 28935, Note_on_c, 9, 38, 0
7, 28935, Note_on_c, 9, 39, 0
7, 29040, Note_on_c, 9, 39, 100
7, 29040, Note_on_c, 9, 38, 100
7, 29055, Note_on_c, 9, 38, 0
7, 29055, Note_on_c, 9, 39, 0
7, 29160, Note_on_c, 9, 39, 100
7, 29160, Note_on_c, 9, 38, 100
7, 29175, Note_on_c, 9, 38, 0
7, 29175, Note_on_c, 9, 39, 0
7, 29280, Note_on_c, 9, 39, 100
7, 29280, Note_on_c, 9, 38, 100
7, 29295, Note_on_c, 9, 38, 0
7, 29295, Note_on_c, 9, 39, 0
7, 29400, Note_on_c, 9, 39, 100
7, 29400, Note_on_c, 9, 38, 100
7, 29415, Note_on_c, 9, 38, 0
7, 29415, Note_on_c, 9, 39, 0
7, 29520, Note_on_c, 9, 39, 100
7, 29520, Note_on_c, 9, 38, 100
7, 29535, Note_on_c, 9, 38, 0
7, 29535, Note_on_c, 9, 39, 0
7, 29640, Note_on_c, 9, 39, 100
7, 29640, Note_on_c, 9, 38, 100
7, 29655, Note_on_c, 9, 38, 0
7, 29655, Note_on_c, 9, 39, 0
7, 29760, Note_on_c, 9, 39, 100
7, 29760, Note_on_c, 9, 38, 100
7, 29775, Note_on_c, 9, 38, 0
7, 29775, Note_on_c, 9, 39, 0
7, 29880, Note_on_c, 9, 39, 100
7, 29880, Note_on_c, 9, 38, 100
7, 29895, Note_on_c, 9, 38, 0
7, 29895, Note_on_c, 9, 39, 0
7, 30000, Note_on_c, 9, 39, 100
7, 30000, Note_on_c, 9, 38, 100
7, 30015, Note_on_c, 9, 38, 0
7, 30015, Note_on_c, 9, 39, 0
7, 30120, Note_on_c, 9, 39, 100
7, 30120, Note_on_c, 9, 38, 100
7, 30135, Note_on_c, 9, 38, 0
7, 30135, Note_on_c, 9, 39, 0
7, 30240, Note_on_c, 9, 39, 100
7, 30240, Note_on_c, 9, 38, 100
7, 30255, Note_on_c, 9, 38, 0
7, 30255, Note_on_c, 9, 39, 0
7, 30360, Note_on_c, 9, 39, 100
7, 30360, Note_on_c, 9, 38, 100
7, 30375, Note_on_c, 9, 38, 0
7, 30375, Note_on_c, 9, 39, 0
7, 30480, Note_on_c, 9, 39, 100
7, 30480, Note_on_c, 9, 38, 100
7, 30495, Note_on_c, 9, 38, 0
7, 30495, Note_on_c, 9, 39, 0
7, 30600, Note_on_c, 9, 39, 100
7, 30600, Note_on_c, 9, 38, 100
7, 30615, Note_on_c, 9, 38, 0
7, 30615, Note_on_c, 9, 39, 0
7, 30720, Note_on_c, 9, 39, 100
7, 30720, Note_on_c, 9, 38, 100
7, 30735, Note_on_c, 9, 38, 0
7, 30735, Note_on_c, 9, 39, 0
7, 30840, Note_on_c, 9, 39, 100
7, 30840, Note_on_c, 9, 38, 100
7, 30855, Note_on_c, 9, 38, 0
7, 30855, Note_on_c, 9, 39, 0
7, 30960, Note_on_c, 9, 39, 100
7, 30960, Note_on_c, 9, 38, 100
7, 30975, Note_on_c, 9, 38, 0
7, 30975, Note_on_c, 9, 39, 0
7, 31080, Note_on_c, 9, 39, 100
7, 31080, Note_on_c, 9, 38, 100
7, 31095, Note_on_c, 9, 38, 0
7, 31095, Note_on_c, 9, 39, 0
7, 31200, Note_on_c, 9, 39, 100
7, 31200, Note_on_c, 9, 38, 100
7, 31215, Note_on_c, 9, 38, 0
7, 31215, Note_on_c, 9, 39, 0
7, 31320, Note_on_c, 9, 39, 100
7, 31320, Note_on_c, 9, 38, 100
7, 31335, Note_on_c, 9, 38, 0
7, 31335, Note_on_c, 9, 39, 0
7, 31440, Note_on_c, 9, 39, 100
7, 31440, Note_on_c, 9, 38, 100
7, 31455, Note_on_c, 9, 38, 0
7, 31455, Note_on_c, 9, 39, 0
7, 31560, Note_on_c, 9, 39, 100
7, 31560, Note_on_c, 9, 38, 100
7, 31575, Note_on_c, 9, 38, 0
7, 31575, Note_on_c, 9, 39, 0
7, 31680, Note_on_c, 9, 39, 100
7, 31680, Note_on_c, 9, 38, 100
7, 31695, Note_on_c, 9, 38, 0
7, 31695, Note_on_c, 9, 39, 0
7, 31800, Note_on_c, 9, 39, 100
7, 31800, Note_on_c, 9, 38, 100
7, 31815, Note_on_c, 9, 38, 0
7, 31815, Note_on_c, 9, 39, 0
7, 31920, Note_on_c, 9, 39, 100
7, 31920, Note_on_c, 9, 38, 100
7, 31935, Note_on_c, 9, 38, 0
7, 31935, Note_on_c, 9, 39, 0
7, 32040, Note_on_c, 9, 39, 100
7, 32040, Note_on_c, 9, 38, 100
7, 32055, Note_on_c, 9, 38, 0
7, 32055, Note_on_c, 9, 39, 0
7, 32160, Note_on_c, 9, 39, 100
7, 32160, Note_on_c, 9, 38, 100
7, 32175, Note_on_c, 9, 38, 0
7, 32175, Note_on_c, 9, 39, 0
7, 32280, Note_on_c, 9, 39, 100
7, 32280, Note_on_c, 9, 38, 100
7, 32295, Note_on_c, 9, 38, 0
7, 32295, Note_on_c, 9, 39, 0
7, 32400, Note_on_c, 9, 39, 100
7, 32400, Note_on_c, 9, 38, 100
7, 32415, Note_on_c, 9, 38, 0
7, 32415, Note_on_c, 9, 39, 0
7, 32460, Note_on_c, 9, 38, 100
7, 32475, Note_on_c, 9, 38, 0
7, 32490, Note_on_c, 9, 38, 100
7, 32505, Note_on_c, 9, 38, 0
7, 32520, Note_on_c, 9, 39, 100
7, 32520, Note_on_c, 9, 38, 100
7, 32535, Note_on_c, 9, 38, 0
7, 32535, Note_on_c, 9, 39, 0
7, 32580, Note_on_c, 9, 38, 100
7, 32595, Note_on_c, 9, 38, 0
7, 32640, Note_on_c, 9, 39, 100
7, 32640, Note_on_c, 9, 38, 100
7, 32655, Note_on_c, 9, 38, 0
7, 32655, Note_on_c, 9, 39, 0
7, 32760, Note_on_c, 9, 39, 100
7, 32760, Note_on_c, 9, 38, 100
7, 32775, Note_on_c, 9, 38, 0
7, 32775, Note_on_c, 9, 39, 0
7, 32880, Note_on_c, 9, 39, 100
7, 32880, Note_on_c, 9, 38, 100
7, 32895, Note_on_c, 9, 38, 0
7, 32895, Note_on_c, 9, 39, 0
7, 33000, Note_on_c, 9, 39, 100
7, 33000, Note_on_c, 9, 38, 100
7, 33015, Note_on_c, 9, 38, 0
7, 33015, Note_on_c, 9, 39, 0
7, 33120, Note_on_c, 9, 39, 100
7, 33120, Note_on_c, 9, 38, 100
7, 33135, Note_on_c, 9, 38, 0
7, 33135, Note_on_c, 9, 39, 0
7, 33240, Note_on_c, 9, 39, 100
7, 33240, Note_on_c, 9, 38, 100
7, 33255, Note_on_c, 9, 38, 0
7, 33255, Note_on_c, 9, 39, 0
7, 33360, Note_on_c, 9, 39, 100
7, 33360, Note_on_c, 9, 38, 100
7, 33375, Note_on_c, 9, 38, 0
7, 33375, Note_on_c, 9, 39, 0
7, 33480, Note_on_c, 9, 39, 100
7, 33480, Note_on_c, 9, 38, 100
7, 33495, Note_on_c, 9, 38, 0
7, 33495, Note_on_c, 9, 39, 0
7, 33600, Note_on_c, 9, 39, 100
7, 33600, Note_on_c, 9, 38, 100
7, 33615, Note_on_c, 9, 38, 0
7, 33615, Note_on_c, 9, 39, 0
7, 33720, Note_on_c, 9, 39, 100
7, 33720, Note_on_c, 9, 38, 100
7, 33735, Note_on_c, 9, 38, 0
7, 33735, Note_on_c, 9, 39, 0
7, 33840, Note_on_c, 9, 39, 100
7, 33840, Note_on_c, 9, 38, 100
7, 33855, Note_on_c, 9, 38, 0
7, 33855, Note_on_c, 9, 39, 0
7, 33960, Note_on_c, 9, 39, 100
7, 33960, Note_on_c, 9, 38, 100
7, 33975, Note_on_c, 9, 38, 0
7, 33975, Note_on_c, 9, 39, 0
7, 34080, Note_on_c, 9, 39, 100
7, 34080, Note_on_c, 9, 38, 100
7, 34095, Note_on_c, 9, 38, 0
7, 34095, Note_on_c, 9, 39, 0
7, 34200, Note_on_c, 9, 39, 100
7, 34200, Note_on_c, 9, 38, 100
7, 34215, Note_on_c, 9, 38, 0
7, 34215, Note_on_c, 9, 39, 0
7, 34320, Note_on_c, 9, 39, 100
7, 34320, Note_on_c, 9, 38, 100
7, 34335, Note_on_c, 9, 38, 0
7, 34335, Note_on_c, 9, 39, 0
7, 34380, Note_on_c, 9, 38, 100
7, 34395, Note_on_c, 9, 38, 0
7, 34410, Note_on_c, 9, 38, 100
7, 34425, Note_on_c, 9, 38, 0
7, 34440, Note_on_c, 9, 39, 100
7, 34440, Note_on_c, 9, 38, 100
7, 34455, Note_on_c, 9, 38, 0
7, 34455, Note_on_c, 9, 39, 0
7, 34500, Note_on_c, 9, 38, 100
7, 34515, Note_on_c, 9, 38, 0
7, 34560, Note_on_c, 9, 39, 100
7, 34560, Note_on_c, 9, 38, 100
7, 34560, Note_on_c, 9, 49, 100
7, 34575, Note_on_c, 9, 49, 0
7, 34575, Note_on_c, 9, 38, 0
7, 34575, Note_on_c, 9, 39, 0
7, 34680, Note_on_c, 9, 54, 100
7, 34680, Note_on_c, 9, 39, 100
7, 34680, Note_on_c, 9, 38, 100
7, 34695, Note_on_c, 9, 38, 0
7, 34695, Note_on_c, 9, 39, 0
7, 34695, Note_on_c, 9, 54, 0
7, 34800, Note_on_c, 9, 54, 100
7, 34800, Note_on_c, 9, 39, 100
7, 34800, Note_on_c, 9, 38, 100
7, 34815, Note_on_c, 9, 38, 0
7, 34815, Note_on_c, 9, 39, 0
7, 34815, Note_on_c, 9, 54, 0
7, 34920, Note_on_c, 9, 54, 100
7, 34920, Note_on_c, 9, 39, 100
7, 34920, Note_on_c, 9, 38, 100
7, 34935, Note_on_c, 9, 38, 0
7, 34935, Note_on_c, 9, 39, 0
7, 34935, Note_on_c, 9, 54, 0
7, 35040, Note_on_c, 9, 54, 100
7, 35040, Note_on_c, 9, 39, 100
7, 35040, Note_on_c, 9, 38, 100
7, 35055, Note_on_c, 9, 38, 0
7, 35055, Note_on_c, 9, 39, 0
7, 35055, Note_on_c, 9, 54, 0
7, 35160, Note_on_c, 9, 54, 100
7, 35160, Note_on_c, 9, 39, 100
7, 35160, Note_on_c, 9, 38, 100
7, 35175, Note_on_c, 9, 38, 0
7, 35175, Note_on_c, 9, 39, 0
7, 35175, Note_on_c, 9, 54, 0
7, 35280, Note_on_c, 9, 54, 100
7, 35280, Note_on_c, 9, 39, 100
7, 35280, Note_on_c, 9, 38, 100
7, 35295, Note_on_c, 9, 38, 0
7, 35295, Note_on_c, 9, 39, 0
7, 35295, Note_on_c, 9, 54, 0
7, 35400, Note_on_c, 9, 54, 100
7, 35400, Note_on_c, 9, 39, 100
7, 35400, Note_on_c, 9, 38, 100
7, 35415, Note_on_c, 9, 38, 0
7, 35415, Note_on_c, 9, 39, 0
7, 35415, Note_on_c, 9, 54, 0
7, 35520, Note_on_c, 9, 54, 100
7, 35520, Note_on_c, 9, 39, 100
7, 35520, Note_on_c, 9, 38, 100
7, 35535, Note_on_c, 9, 38, 0
7, 35535, Note_on_c, 9, 39, 0
7, 35535, Note_on_c, 9, 54, 0
7, 35640, Note_on_c, 9, 54, 100
7, 35640, Note_on_c, 9, 39, 100
7, 35640, Note_on_c, 9, 38, 100
7, 35655, Note_on_c, 9, 38, 0
7, 35655, Note_on_c, 9, 39, 0
7, 35655, Note_on_c, 9, 54, 0
7, 35760, Note_on_c, 9, 54, 100
7, 35760, Note_on_c, 9, 39, 100
7, 35760, Note_on_c, 9, 38, 100
7, 35775, Note_on_c, 9, 38, 0
7, 35775, Note_on_c, 9, 39, 0
7, 35775, Note_on_c, 9, 54, 0
7, 35880, Note_on_c, 9, 54, 100
7, 35880, Note_on_c, 9, 39, 100
7, 35880, Note_on_c, 9, 38, 100
7, 35895, Note_on_c, 9, 38, 0
7, 35895, Note_on_c, 9, 39, 0
7, 35895, Note_on_c, 9, 54, 0
7, 36000, Note_on_c, 9, 54, 100
7, 36000, Note_on_c, 9, 39, 100
7, 36000, Note_on_c, 9, 38, 100
7, 36015, Note_on_c, 9, 38, 0
7, 36015, Note_on_c, 9, 39, 0
7, 36015, Note_on_c, 9, 54, 0
7, 36120, Note_on_c, 9, 54, 100
7, 36120, Note_on_c, 9, 39, 100
7, 36120, Note_on_c, 9, 38, 100
7, 36135, Note_on_c, 9, 38, 0
7, 36135, Note_on_c, 9, 39, 0
7, 36135, Note_on_c, 9, 54, 0
7, 36240, Note_on_c, 9, 54, 100
7, 36240, Note_on_c, 9, 39, 100
7, 36240, Note_on_c, 9, 38, 100
7, 36255, Note_on_c, 9, 38, 0
7, 36255, Note_on_c, 9, 39, 0
7, 36255, Note_on_c, 9, 54, 0
7, 36360, Note_on_c, 9, 54, 100
7, 36360, Note_on_c, 9, 39, 100
7, 36360, Note_on_c, 9, 38, 100
7, 36375, Note_on_c, 9, 38, 0
7, 36375, Note_on_c, 9, 39, 0
7, 36375, Note_on_c, 9, 54, 0
7, 36480, Note_on_c, 9, 54, 100
7, 36480, Note_on_c, 9, 39, 100
7, 36480, Note_on_c, 9, 38, 100
7, 36495, Note_on_c, 9, 38, 0
7, 36495, Note_on_c, 9, 39, 0
7, 36495, Note_on_c, 9, 54, 0
7, 36600, Note_on_c, 9, 54, 100
7, 36600, Note_on_c, 9, 39, 100
7, 36600, Note_on_c, 9, 38, 100
7, 36615, Note_on_c, 9, 38, 0
7, 36615, Note_on_c, 9, 39, 0
7, 36615, Note_on_c, 9, 54, 0
7, 36720, Note_on_c, 9, 54, 100
7, 36720, Note_on_c, 9, 39, 100
7, 36720, Note_on_c, 9, 38, 100
7, 36735, Note_on_c, 9, 38, 0
7, 36735, Note_on_c, 9, 39, 0
7, 36735, Note_on_c, 9, 54, 0
7, 36840, Note_on_c, 9, 54, 100
7, 36840, Note_on_c, 9, 39, 100
7, 36840, Note_on_c, 9, 38, 100
7, 36855, Note_on_c, 9, 38, 0
7, 36855, Note_on_c, 9, 39, 0
7, 36855, Note_on_c, 9, 54, 0
7, 36960, Note_on_c, 9, 54, 100
7, 36960, Note_on_c, 9, 39, 100
7, 36960, Note_on_c, 9, 38, 100
7, 36975, Note_on_c, 9, 38, 0
7, 36975, Note_on_c, 9, 39, 0
7, 36975, Note_on_c, 9, 54, 0
7, 37080, Note_on_c, 9, 54, 100
7, 37080, Note_on_c, 9, 39, 100
7, 37080, Note_on_c, 9, 38, 100
7, 37095, Note_on_c, 9, 38, 0
7, 37095, Note_on_c, 9, 39, 0
7, 37095, Note_on_c, 9, 54, 0
7, 37200, Note_on_c, 9, 54, 100
7, 37200, Note_on_c, 9, 39, 100
7, 37200, Note_on_c, 9, 38, 100
7, 37215, Note_on_c, 9, 38, 0
7, 37215, Note_on_c, 9, 39, 0
7, 37215, Note_on_c, 9, 54, 0
7, 37260, Note_on_c, 9, 38, 100
7, 37275, Note_on_c, 9, 38, 0
7, 37290, Note_on_c, 9, 38, 100
7, 37305, Note_on_c, 9, 38, 0
7, 37320, Note_on_c, 9, 54, 100
7, 37320, Note_on_c, 9, 39, 100
7, 37320, Note_on_c, 9, 38, 100
7, 37335, Note_on_c, 9, 38, 0
7, 37335, Note_on_c, 9, 39, 0
7, 37335, Note_on_c, 9, 54, 0
7, 37380, Note_on_c, 9, 38, 100
7, 37395, Note_on_c, 9, 38, 0
7, 37440, Note_on_c, 9, 49, 100
7, 37440, Note_on_c, 9, 39, 100
7, 37440, Note_on_c, 9, 38, 100
7, 37440, Note_on_c, 9, 54, 100
7, 37455, Note_on_c, 9, 54, 0
7, 37455, Note_on_c, 9, 49, 0
7, 37455, Note_on_c, 9, 39, 0
7, 37455, Note_on_c, 9, 38, 0
7, 37920, Note_on_c, 9, 38, 100
7, 37920, Note_on_c, 9, 39, 100
7, 37920, Note_on_c, 9, 49, 100
7, 37935, Note_on_c, 9, 49, 0
7, 37935, Note_on_c, 9, 39, 0
7, 37935, Note_on_c, 9, 38, 0
7, 38220, Note_on_c, 9, 38, 100
7, 38235, Note_on_c, 9, 38, 0
7, 38250, Note_on_c, 9, 38, 100
7, 38265, Note_on_c, 9, 38, 0
7, 38280, Note_on_c, 9, 38, 100
7, 38295, Note_on_c, 9, 38, 0
7, 38340, Note_on_c, 9, 38, 100
7, 38355, Note_on_c, 9, 38, 0
7, 38400, Note_on_c, 9, 39, 100
7, 38400, Note_on_c, 9, 38, 100
7, 38400, Note_on_c, 9, 49, 100
7, 38415, Note_on_c, 9, 49, 0
7, 38415, Note_on_c, 9, 38, 0
7, 38415, Note_on_c, 9, 39, 0
7, 38520, Note_on_c, 9, 39, 100
7, 38520, Note_on_c, 9, 38, 100
7, 38535, Note_on_c, 9, 38, 0
7, 38535, Note_on_c, 9, 39, 0
7, 38640, Note_on_c, 9, 39, 100
7, 38640, Note_on_c, 9, 38, 100
7, 38655, Note_on_c, 9, 38, 0
7, 38655, Note_on_c, 9, 39, 0
7, 38760, Note_on_c, 9, 39, 100
7, 38760, Note_on_c, 9, 38, 100
7, 38775, Note_on_c, 9, 38, 0
7, 38775, Note_on_c, 9, 39, 0
7, 38880, Note_on_c, 9, 39, 100
7, 38880, Note_on_c, 9, 38, 100
7, 38895, Note_on_c, 9, 38, 0
7, 38895, Note_on_c, 9, 39, 0
7, 39000, Note_on_c, 9, 39, 100
7, 39000, Note_on_c, 9, 38, 100
7, 39015, Note_on_c, 9, 38, 0
7, 39015, Note_on_c, 9, 39, 0
7, 39120, Note_on_c, 9, 39, 100
7, 39120, Note_on_c, 9, 38, 100
7, 39135, Note_on_c, 9, 38, 0
7, 39135, Note_on_c, 9, 39, 0
7, 39240, Note_on_c, 9, 39, 100
7, 39240, Note_on_c, 9, 38, 100
7, 39255, Note_on_c, 9, 38, 0
7, 39255, Note_on_c, 9, 39, 0
7, 39360, Note_on_c, 9, 39, 100
7, 39360, Note_on_c, 9, 38, 100
7, 39375, Note_on_c, 9, 38, 0
7, 39375, Note_on_c, 9, 39, 0
7, 39480, Note_on_c, 9, 39, 100
7, 39480, Note_on_c, 9, 38, 100
7, 39495, Note_on_c, 9, 38, 0
7, 39495, Note_on_c, 9, 39, 0
7, 39600, Note_on_c, 9, 39, 100
7, 39600, Note_on_c, 9, 38, 100
7, 39615, Note_on_c, 9, 38, 0
7, 39615, Note_on_c, 9, 39, 0
7, 39720, Note_on_c, 9, 39, 100
7, 39720, Note_on_c, 9, 38, 100
7, 39735, Note_on_c, 9, 38, 0
7, 39735, Note_on_c, 9, 39, 0
7, 39840, Note_on_c, 9, 39, 100
7, 39840, Note_on_c, 9, 38, 100
7, 39855, Note_on_c, 9, 38, 0
7, 39855, Note_on_c, 9, 39, 0
7, 39960, Note_on_c, 9, 39, 100
7, 39960, Note_on_c, 9, 38, 100
7, 39975, Note_on_c, 9, 38, 0
7, 39975, Note_on_c, 9, 39, 0
7, 40080, Note_on_c, 9, 39, 100
7, 40080, Note_on_c, 9, 38, 100
7, 40095, Note_on_c, 9, 38, 0
7, 40095, Note_on_c, 9, 39, 0
7, 40140, Note_on_c, 9, 38, 100
7, 40155, Note_on_c, 9, 38, 0
7, 40170, Note_on_c, 9, 38, 100
7, 40185, Note_on_c, 9, 38, 0
7, 40200, Note_on_c, 9, 39, 100
7, 40200, Note_on_c, 9, 38, 100
7, 40215, Note_on_c, 9, 38, 0
7, 40215, Note_on_c, 9, 39, 0
7, 40260, Note_on_c, 9, 38, 100
7, 40275, Note_on_c, 9, 38, 0
7, 40320, Note_on_c, 9, 39, 100
7, 40320, Note_on_c, 9, 38, 100
7, 40320, Note_on_c, 9, 49, 100
7, 40335, Note_on_c, 9, 49, 0
7, 40335, Note_on_c, 9, 38, 0
7, 40335, Note_on_c, 9, 39, 0
7, 40440, Note_on_c, 9, 39, 100
7, 40440, Note_on_c, 9, 38, 100
7, 40455, Note_on_c, 9, 38, 0
7, 40455, Note_on_c, 9, 39, 0
7, 40560, Note_on_c, 9, 39, 100
7, 40560, Note_on_c, 9, 38, 100
7, 40575, Note_on_c, 9, 38, 0
7, 40575, Note_on_c, 9, 39, 0
7, 40680, Note_on_c, 9, 39, 100
7, 40680, Note_on_c, 9, 38, 100
7, 40695, Note_on_c, 9, 38, 0
7, 40695, Note_on_c, 9, 39, 0
7, 40800, Note_on_c, 9, 39, 100
7, 40800, Note_on_c, 9, 38, 100
7, 40815, Note_on_c, 9, 38, 0
7, 40815, Note_on_c, 9, 39, 0
7, 40920, Note_on_c, 9, 39, 100
7, 40920, Note_on_c, 9, 38, 100
7, 40935, Note_on_c, 9, 38, 0
7, 40935, Note_on_c, 9, 39, 0
7, 41040, Note_on_c, 9, 39, 100
7, 41040, Note_on_c, 9, 38, 100
7, 41055, Note_on_c, 9, 38, 0
7, 41055, Note_on_c, 9, 39, 0
7, 41160, Note_on_c, 9, 39, 100
7, 41160, Note_on_c, 9, 38, 100
7, 41175, Note_on_c, 9, 38, 0
7, 41175, Note_on_c, 9, 39, 0
7, 41280, Note_on_c, 9, 39, 100
7, 41280, Note_on_c, 9, 38, 100
7, 41295, Note_on_c, 9, 38, 0
7, 41295, Note_on_c, 9, 39, 0
7, 41400, Note_on_c, 9, 39, 100
7, 41400, Note_on_c, 9, 38, 100
7, 41415, Note_on_c, 9, 38, 0
7, 41415, Note_on_c, 9, 39, 0
7, 41520, Note_on_c, 9, 39, 100
7, 41520, Note_on_c, 9, 38, 100
7, 41535, Note_on_c, 9, 38, 0
7, 41535, Note_on_c, 9, 39, 0
7, 41640, Note_on_c, 9, 39, 100
7, 41640, Note_on_c, 9, 38, 100
7, 41655, Note_on_c, 9, 38, 0
7, 41655, Note_on_c, 9, 39, 0
7, 41760, Note_on_c, 9, 39, 100
7, 41760, Note_on_c, 9, 38, 100
7, 41775, Note_on_c, 9, 38, 0
7, 41775, Note_on_c, 9, 39, 0
7, 41880, Note_on_c, 9, 39, 100
7, 41880, Note_on_c, 9, 38, 100
7, 41895, Note_on_c, 9, 38, 0
7, 41895, Note_on_c, 9, 39, 0
7, 42000, Note_on_c, 9, 39, 100
7, 42000, Note_on_c, 9, 38, 100
7, 42015, Note_on_c, 9, 38, 0
7, 42015, Note_on_c, 9, 39, 0
7, 42120, Note_on_c, 9, 39, 100
7, 42120, Note_on_c, 9, 38, 100
7, 42135, Note_on_c, 9, 38, 0
7, 42135, Note_on_c, 9, 39, 0
7, 42240, Note_on_c, 9, 39, 100
7, 42240, Note_on_c, 9, 38, 100
7, 42240, Note_on_c, 9, 49, 100
7, 42255, Note_on_c, 9, 49, 0
7, 42255, Note_on_c, 9, 38, 0
7, 42255, Note_on_c, 9, 39, 0
7, 42360, Note_on_c, 9, 54, 100
7, 42360, Note_on_c, 9, 39, 100
7, 42360, Note_on_c, 9, 38, 100
7, 42375, Note_on_c, 9, 38, 0
7, 42375, Note_on_c, 9, 39, 0
7, 42375, Note_on_c, 9, 54, 0
7, 42480, Note_on_c, 9, 54, 100
7, 42480, Note_on_c, 9, 39, 100
7, 42480, Note_on_c, 9, 38, 100
7, 42495, Note_on_c, 9, 38, 0
7, 42495, Note_on_c, 9, 39, 0
7, 42495, Note_on_c, 9, 54, 0
7, 42600, Note_on_c, 9, 54, 100
7, 42600, Note_on_c, 9, 39, 100
7, 42600, Note_on_c, 9, 38, 100
7, 42615, Note_on_c, 9, 38, 0
7, 42615, Note_on_c, 9, 39, 0
7, 42615, Note_on_c, 9, 54, 0
7, 42720, Note_on_c, 9, 54, 100
7, 42720, Note_on_c, 9, 39, 100
7, 42720, Note_on_c, 9, 38, 100
7, 42735, Note_on_c, 9, 38, 0
7, 42735, Note_on_c, 9, 39, 0
7, 42735, Note_on_c, 9, 54, 0
7, 42840, Note_on_c, 9, 54, 100
7, 42840, Note_on_c, 9, 39, 100
7, 42840, Note_on_c, 9, 38, 100
7, 42855, Note_on_c, 9, 38, 0
7, 42855, Note_on_c, 9, 39, 0
7, 42855, Note_on_c, 9, 54, 0
7, 42960, Note_on_c, 9, 54, 100
7, 42960, Note_on_c, 9, 39, 100
7, 42960, Note_on_c, 9, 38, 100
7, 42975, Note_on_c, 9, 38, 0
7, 42975, Note_on_c, 9, 39, 0
7, 42975, Note_on_c, 9, 54, 0
7, 43080, Note_on_c, 9, 54, 100
7, 43080, Note_on_c, 9, 39, 100
7, 43080, Note_on_c, 9, 38, 100
7, 43095, Note_on_c, 9, 38, 0
7, 43095, Note_on_c, 9, 39, 0
7, 43095, Note_on_c, 9, 54, 0
7, 43200, Note_on_c, 9, 54, 100
7, 43200, Note_on_c, 9, 39, 100
7, 43200, Note_on_c, 9, 38, 100
7, 43215, Note_on_c, 9, 38, 0
7, 43215, Note_on_c, 9, 39, 0
7, 43215, Note_on_c, 9, 54, 0
7, 43320, Note_on_c, 9, 54, 100
7, 43320, Note_on_c, 9, 39, 100
7, 43320, Note_on_c, 9, 38, 100
7, 43335, Note_on_c, 9, 38, 0
7, 43335, Note_on_c, 9, 39, 0
7, 43335, Note_on_c, 9, 54, 0
7, 43440, Note_on_c, 9, 54, 100
7, 43440, Note_on_c, 9, 39, 100
7, 43440, Note_on_c, 9, 38, 100
7, 43455, Note_on_c, 9, 38, 0
7, 43455, Note_on_c, 9, 39, 0
7, 43455, Note_on_c, 9, 54, 0
7, 43560, Note_on_c, 9, 54, 100
7, 43560, Note_on_c, 9, 39, 100
7, 43560, Note_on_c, 9, 38, 100
7, 43575, Note_on_c, 9, 38, 0
7, 43575, Note_on_c, 9, 39, 0
7, 43575, Note_on_c, 9, 54, 0
7, 43680, Note_on_c, 9, 54, 100
7, 43680, Note_on_c, 9, 39, 100
7, 43680, Note_on_c, 9, 38, 100
7, 43695, Note_on_c, 9, 38, 0
7, 43695, Note_on_c, 9, 39, 0
7, 43695, Note_on_c, 9, 54, 0
7, 43800, Note_on_c, 9, 54, 100
7, 43800, Note_on_c, 9, 39, 100
7, 43800, Note_on_c, 9, 38, 100
7, 43815, Note_on_c, 9, 38, 0
7, 43815, Note_on_c, 9, 39, 0
7, 43815, Note_on_c, 9, 54, 0
7, 43920, Note_on_c, 9, 54, 100
7, 43920, Note_on_c, 9, 39, 100
7, 43920, Note_on_c, 9, 38, 100
7, 43935, Note_on_c, 9, 38, 0
7, 43935, Note_on_c, 9, 39, 0
7, 43935, Note_on_c, 9, 54, 0
7, 44040, Note_on_c, 9, 54, 100
7, 44040, Note_on_c, 9, 39, 100
7, 44040, Note_on_c, 9, 38, 100
7, 44055, Note_on_c, 9, 38, 0
7, 44055, Note_on_c, 9, 39, 0
7, 44055, Note_on_c, 9, 54, 0
7, 44160, Note_on_c, 9, 54, 100
7, 44160, Note_on_c, 9, 39, 100
7, 44160, Note_on_c, 9, 38, 100
7, 44175, Note_on_c, 9, 38, 0
7, 44175, Note_on_c, 9, 39, 0
7, 44175, Note_on_c, 9, 54, 0
7, 44280, Note_on_c, 9, 54, 100
7, 44280, Note_on_c, 9, 39, 100
7, 44280, Note_on_c, 9, 38, 100
7, 44295, Note_on_c, 9, 38, 0
7, 44295, Note_on_c, 9, 39, 0
7, 44295, Note_on_c, 9, 54, 0
7, 44400, Note_on_c, 9, 54, 100
7, 44400, Note_on_c, 9, 39, 100
7, 44400, Note_on_c, 9, 38, 100
7, 44415, Note_on_c, 9, 38, 0
7, 44415, Note_on_c, 9, 39, 0
7, 44415, Note_on_c, 9, 54, 0
7, 44520, Note_on_c, 9, 54, 100
7, 44520, Note_on_c, 9, 39, 100
7, 44520, Note_on_c, 9, 38, 100
7, 44535, Note_on_c, 9, 38, 0
7, 44535, Note_on_c, 9, 39, 0
7, 44535, Note_on_c, 9, 54, 0
7, 44640, Note_on_c, 9, 54, 100
7, 44640, Note_on_c, 9, 39, 100
7, 44640, Note_on_c, 9, 38, 100
7, 44655, Note_on_c, 9, 38, 0
7, 44655, Note_on_c, 9, 39, 0
7, 44655, Note_on_c, 9, 54, 0
7, 44760, Note_on_c, 9, 54, 100
7, 44760, Note_on_c, 9, 39, 100
7, 44760, Note_on_c, 9, 38, 100
7, 44775, Note_on_c, 9, 38, 0
7, 44775, Note_on_c, 9, 39, 0
7, 44775, Note_on_c, 9, 54, 0
7, 44880, Note_on_c, 9, 54, 100
7, 44880, Note_on_c, 9, 39, 100
7, 44880, Note_on_c, 9, 38, 100
7, 44895, Note_on_c, 9, 38, 0
7, 44895, Note_on_c, 9, 39, 0
7, 44895, Note_on_c, 9, 54, 0
7, 44940, Note_on_c, 9, 38, 100
7, 44955, Note_on_c, 9, 38, 0
7, 44970, Note_on_c, 9, 38, 100
7, 44985, Note_on_c, 9, 38, 0
7, 45000, Note_on_c, 9, 54, 100
7, 45000, Note_on_c, 9, 39, 100
7, 45000, Note_on_c, 9, 38, 100
7, 45015, Note_on_c, 9, 38, 0
7, 45015, Note_on_c, 9, 39, 0
7, 45015, Note_on_c, 9, 54, 0
7, 45060, Note_on_c, 9, 38, 100
7, 45075, Note_on_c, 9, 38, 0
7, 45120, Note_on_c, 9, 49, 100
7, 45120, Note_on_c, 9, 39, 100
7, 45120, Note_on_c, 9, 38, 100
7, 45120, Note_on_c, 9, 54, 100
7, 45135, Note_on_c, 9, 54, 0
7, 45135, Note_on_c, 9, 49, 0
7, 45135, Note_on_c, 9, 39, 0
7, 45135, Note_on_c, 9, 38, 0
7, 45600, Note_on_c, 9, 38, 100
7, 45600, Note_on_c, 9, 39, 100
7, 45600, Note_on_c, 9, 49, 100
7, 45615, Note_on_c, 9, 49, 0
7, 45615, Note_on_c, 9, 39, 0
7, 45615, Note_on_c, 9, 38, 0
7, 45900, Note_on_c, 9, 38, 100
7, 45915, Note_on_c, 9, 38, 0
7, 45930, Note_on_c, 9, 38, 100
7, 45945, Note_on_c, 9, 38, 0
7, 45960, Note_on_c, 9, 38, 100
7, 45975, Note_on_c, 9, 38, 0
7, 46020, Note_on_c, 9, 38, 100
7, 46035, Note_on_c, 9, 38, 0
7, 46080, Note_on_c, 9, 39, 100
7, 46080, Note_on_c, 9, 38, 100
7, 46080, Note_on_c, 9, 49, 100
7, 46095, Note_on_c, 9, 49, 0
7, 46095, Note_on_c, 9, 38, 0
7, 46095, Note_on_c, 9, 39, 0
7, 46200, Note_on_c, 9, 39, 100
7, 46200, Note_on_c, 9, 38, 100
7, 46215, Note_on_c, 9, 38, 0
7, 46215, Note_on_c, 9, 39, 0
7, 46320, Note_on_c, 9, 39, 100
7, 46320, Note_on_c, 9, 38, 100
7, 46335, Note_on_c, 9, 38, 0
7, 46335, Note_on_c, 9, 39, 0
7, 46440, Note_on_c, 9, 39, 100
7, 46440, Note_on_c, 9, 38, 100
7, 46455, Note_on_c, 9, 38, 0
7, 46455, Note_on_c, 9, 39, 0
7, 46560, Note_on_c, 9, 39, 100
7, 46560, Note_on_c, 9, 38, 100
7, 46575, Note_on_c, 9, 38, 0
7, 46575, Note_on_c, 9, 39, 0
7, 46680, Note_on_c, 9, 39, 100
7, 46680, Note_on_c, 9, 38, 100
7, 46695, Note_on_c, 9, 38, 0
7, 46695, Note_on_c, 9, 39, 0
7, 46800, Note_on_c, 9, 39, 100
7, 46800, Note_on_c, 9, 38, 100
7, 46815, Note_on_c, 9, 38, 0
7, 46815, Note_on_c, 9, 39, 0
7, 46920, Note_on_c, 9, 39, 100
7, 46920, Note_on_c, 9, 38, 100
7, 46935, Note_on_c, 9, 38, 0
7, 46935, Note_on_c, 9, 39, 0
7, 47040, Note_on_c, 9, 39, 100
7, 47040, Note_on_c, 9, 38, 100
7, 47055, Note_on_c, 9, 38, 0
7, 47055, Note_on_c, 9, 39, 0
7, 47160, Note_on_c, 9, 39, 100
7, 47160, Note_on_c, 9, 38, 100
7, 47175, Note_on_c, 9, 38, 0
7, 47175, Note_on_c, 9, 39, 0
7, 47280, Note_on_c, 9, 39, 100
7, 47280, Note_on_c, 9, 38, 100
7, 47295, Note_on_c, 9, 38, 0
7, 47295, Note_on_c, 9, 39, 0
7, 47400, Note_on_c, 9, 39, 100
7, 47400, Note_on_c, 9, 38, 100
7, 47415, Note_on_c, 9, 38, 0
7, 47415, Note_on_c, 9, 39, 0
7, 47520, Note_on_c, 9, 39, 100
7, 47520, Note_on_c, 9, 38, 100
7, 47535, Note_on_c, 9, 38, 0
7, 47535, Note_on_c, 9, 39, 0
7, 47640, Note_on_c, 9, 39, 100
7, 47640, Note_on_c, 9, 38, 100
7, 47655, Note_on_c, 9, 38, 0
7, 47655, Note_on_c, 9, 39, 0
7, 47760, Note_on_c, 9, 39, 100
7, 47760, Note_on_c, 9, 38, 100
7, 47775, Note_on_c, 9, 38, 0
7, 47775, Note_on_c, 9, 39, 0
7, 47820, Note_on_c, 9, 38, 100
7, 47835, Note_on_c, 9, 38, 0
7, 47850, Note_on_c, 9, 38, 100
7, 47865, Note_on_c, 9, 38, 0
7, 47880, Note_on_c, 9, 39, 100
7, 47880, Note_on_c, 9, 38, 100
7, 47895, Note_on_c, 9, 38, 0
7, 47895, Note_on_c, 9, 39, 0
7, 47940, Note_on_c, 9, 38, 100
7, 47955, Note_on_c, 9, 38, 0
7, 48000, Note_on_c, 9, 39, 100
7, 48000, Note_on_c, 9, 38, 100
7, 48000, Note_on_c, 9, 49, 100
7, 48015, Note_on_c, 9, 49, 0
7, 48015, Note_on_c, 9, 38, 0
7, 48015, Note_on_c, 9, 39, 0
7, 48120, Note_on_c, 9, 39, 100
7, 48120, Note_on_c, 9, 38, 100
7, 48135, Note_on_c, 9, 38, 0
7, 48135, Note_on_c, 9, 39, 0
7, 48240, Note_on_c, 9, 39, 100
7, 48240, Note_on_c, 9, 38, 100
7, 48255, Note_on_c, 9, 38, 0
7, 48255, Note_on_c, 9, 39, 0
7, 48360, Note_on_c, 9, 39, 100
7, 48360, Note_on_c, 9, 38, 100
7, 48375, Note_on_c, 9, 38, 0
7, 48375, Note_on_c, 9, 39, 0
7, 48480, Note_on_c, 9, 39, 100
7, 48480, Note_on_c, 9, 38, 100
7, 48495, Note_on_c, 9, 38, 0
7, 48495, Note_on_c, 9, 39, 0
7, 48600, Note_on_c, 9, 39, 100
7, 48600, Note_on_c, 9, 38, 100
7, 48615, Note_on_c, 9, 38, 0
7, 48615, Note_on_c, 9, 39, 0
7, 48720, Note_on_c, 9, 39, 100
7, 48720, Note_on_c, 9, 38, 100
7, 48735, Note_on_c, 9, 38, 0
7, 48735, Note_on_c, 9, 39, 0
7, 48840, Note_on_c, 9, 39, 100
7, 48840, Note_on_c, 9, 38, 100
7, 48855, Note_on_c, 9, 38, 0
7, 48855, Note_on_c, 9, 39, 0
7, 48960, Note_on_c, 9, 39, 100
7, 48960, Note_on_c, 9, 38, 100
7, 48975, Note_on_c, 9, 38, 0
7, 48975, Note_on_c, 9, 39, 0
7, 49080, Note_on_c, 9, 39, 100
7, 49080, Note_on_c, 9, 38, 100
7, 49095, Note_on_c, 9, 38, 0
7, 49095, Note_on_c, 9, 39, 0
7, 49200, Note_on_c, 9, 39, 100
7, 49200, Note_on_c, 9, 38, 100
7, 49215, Note_on_c, 9, 38, 0
7, 49215, Note_on_c, 9, 39, 0
7, 49320, Note_on_c, 9, 39, 100
7, 49320, Note_on_c, 9, 38, 100
7, 49335, Note_on_c, 9, 38, 0
7, 49335, Note_on_c, 9, 39, 0
7, 49440, Note_on_c, 9, 39, 100
7, 49440, Note_on_c, 9, 38, 100
7, 49455, Note_on_c, 9, 38, 0
7, 49455, Note_on_c, 9, 39, 0
7, 49560, Note_on_c, 9, 39, 100
7, 49560, Note_on_c, 9, 38, 100
7, 49575, Note_on_c, 9, 38, 0
7, 49575, Note_on_c, 9, 39, 0
7, 49680, Note_on_c, 9, 39, 100
7, 49680, Note_on_c, 9, 38, 100
7, 49695, Note_on_c, 9, 38, 0
7, 49695, Note_on_c, 9, 39, 0
7, 49740, Note_on_c, 9, 38, 100
7, 49755, Note_on_c, 9, 38, 0
7, 49770, Note_on_c, 9, 38, 100
7, 49785, Note_on_c, 9, 38, 0
7, 49800, Note_on_c, 9, 39, 100
7, 49800, Note_on_c, 9, 38, 100
7, 49815, Note_on_c, 9, 38, 0
7, 49815, Note_on_c, 9, 39, 0
7, 49860, Note_on_c, 9, 38, 100
7, 49875, Note_on_c, 9, 38, 0
7, 49920, Note_on_c, 9, 49, 100
7, 49920, Note_on_c, 9, 39, 100
7, 49920, Note_on_c, 9, 38, 100
7, 49935, Note_on_c, 9, 38, 0
7, 49935, Note_on_c, 9, 39, 0
7, 49935, Note_on_c, 9, 49, 0
7, 50040, Note_on_c, 9, 39, 100
7, 50040, Note_on_c, 9, 38, 100
7, 50055, Note_on_c, 9, 38, 0
7, 50055, Note_on_c, 9, 39, 0
7, 50160, Note_on_c, 9, 39, 100
7, 50160, Note_on_c, 9, 38, 100
7, 50175, Note_on_c, 9, 38, 0
7, 50175, Note_on_c, 9, 39, 0
7, 50280, Note_on_c, 9, 39, 100
7, 50280, Note_on_c, 9, 38, 100
7, 50295, Note_on_c, 9, 38, 0
7, 50295, Note_on_c, 9, 39, 0
7, 50400, Note_on_c, 9, 39, 100
7, 50400, Note_on_c, 9, 38, 100
7, 50415, Note_on_c, 9, 38, 0
7, 50415, Note_on_c, 9, 39, 0
7, 50520, Note_on_c, 9, 39, 100
7, 50520, Note_on_c, 9, 38, 100
7, 50535, Note_on_c, 9, 38, 0
7, 50535, Note_on_c, 9, 39, 0
7, 50640, Note_on_c, 9, 39, 100
7, 50640, Note_on_c, 9, 38, 100
7, 50655, Note_on_c, 9, 38, 0
7, 50655, Note_on_c, 9, 39, 0
7, 50760, Note_on_c, 9, 39, 100
7, 50760, Note_on_c, 9, 38, 100
7, 50775, Note_on_c, 9, 38, 0
7, 50775, Note_on_c, 9, 39, 0
7, 50880, Note_on_c, 9, 39, 100
7, 50880, Note_on_c, 9, 38, 100
7, 50895, Note_on_c, 9, 38, 0
7, 50895, Note_on_c, 9, 39, 0
7, 51000, Note_on_c, 9, 39, 100
7, 51000, Note_on_c, 9, 38, 100
7, 51015, Note_on_c, 9, 38, 0
7, 51015, Note_on_c, 9, 39, 0
7, 51120, Note_on_c, 9, 39, 100
7, 51120, Note_on_c, 9, 38, 100
7, 51135, Note_on_c, 9, 38, 0
7, 51135, Note_on_c, 9, 39, 0
7, 51240, Note_on_c, 9, 39, 100
7, 51240, Note_on_c, 9, 38, 100
7, 51255, Note_on_c, 9, 38, 0
7, 51255, Note_on_c, 9, 39, 0
7, 51360, Note_on_c, 9, 39, 100
7, 51360, Note_on_c, 9, 38, 100
7, 51375, Note_on_c, 9, 38, 0
7, 51375, Note_on_c, 9, 39, 0
7, 51480, Note_on_c, 9, 39, 100
7, 51480, Note_on_c, 9, 38, 100
7, 51495, Note_on_c, 9, 38, 0
7, 51495, Note_on_c, 9, 39, 0
7, 51600, Note_on_c, 9, 39, 100
7, 51600, Note_on_c, 9, 38, 100
7, 51615, Note_on_c, 9, 38, 0
7, 51615, Note_on_c, 9, 39, 0
7, 51720, Note_on_c, 9, 39, 100
7, 51720, Note_on_c, 9, 38, 100
7, 51735, Note_on_c, 9, 38, 0
7, 51735, Note_on_c, 9, 39, 0
7, 51840, Note_on_c, 9, 39, 100
7, 51840, Note_on_c, 9, 38, 100
7, 51855, Note_on_c, 9, 38, 0
7, 51855, Note_on_c, 9, 39, 0
7, 51960, Note_on_c, 9, 39, 100
7, 51960, Note_on_c, 9, 38, 100
7, 51975, Note_on_c, 9, 38, 0
7, 51975, Note_on_c, 9, 39, 0
7, 52080, Note_on_c, 9, 39, 100
7, 52080, Note_on_c, 9, 38, 100
7, 52095, Note_on_c, 9, 38, 0
7, 52095, Note_on_c, 9, 39, 0
7, 52200, Note_on_c, 9, 39, 100
7, 52200, Note_on_c, 9, 38, 100
7, 52215, Note_on_c, 9, 38, 0
7, 52215, Note_on_c, 9, 39, 0
7, 52320, Note_on_c, 9, 39, 100
7, 52320, Note_on_c, 9, 38, 100
7, 52335, Note_on_c, 9, 38, 0
7, 52335, Note_on_c, 9, 39, 0
7, 52440, Note_on_c, 9, 39, 100
7, 52440, Note_on_c, 9, 38, 100
7, 52455, Note_on_c, 9, 38, 0
7, 52455, Note_on_c, 9, 39, 0
7, 52560, Note_on_c, 9, 39, 100
7, 52560, Note_on_c, 9, 38, 100
7, 52575, Note_on_c, 9, 38, 0
7, 52575, Note_on_c, 9, 39, 0
7, 52680, Note_on_c, 9, 39, 100
7, 52680, Note_on_c, 9, 38, 100
7, 52695, Note_on_c, 9, 38, 0
7, 52695, Note_on_c, 9, 39, 0
7, 52800, Note_on_c, 9, 39, 100
7, 52800, Note_on_c, 9, 38, 100
7, 52815, Note_on_c, 9, 38, 0
7, 52815, Note_on_c, 9, 39, 0
7, 52920, Note_on_c, 9, 39, 100
7, 52920, Note_on_c, 9, 38, 100
7, 52935, Note_on_c, 9, 38, 0
7, 52935, Note_on_c, 9, 39, 0
7, 53040, Note_on_c, 9, 39, 100
7, 53040, Note_on_c, 9, 38, 100
7, 53055, Note_on_c, 9, 38, 0
7, 53055, Note_on_c, 9, 39, 0
7, 53160, Note_on_c, 9, 39, 100
7, 53160, Note_on_c, 9, 38, 100
7, 53175, Note_on_c, 9, 38, 0
7, 53175, Note_on_c, 9, 39, 0
7, 53280, Note_on_c, 9, 39, 100
7, 53280, Note_on_c, 9, 38, 100
7, 53295, Note_on_c, 9, 38, 0
7, 53295, Note_on_c, 9, 39, 0
7, 53400, Note_on_c, 9, 39, 100
7, 53400, Note_on_c, 9, 38, 100
7, 53415, Note_on_c, 9, 38, 0
7, 53415, Note_on_c, 9, 39, 0
7, 53520, Note_on_c, 9, 39, 100
7, 53520, Note_on_c, 9, 38, 100
7, 53535, Note_on_c, 9, 38, 0
7, 53535, Note_on_c, 9, 39, 0
7, 53640, Note_on_c, 9, 39, 100
7, 53640, Note_on_c, 9, 38, 100
7, 53655, Note_on_c, 9, 38, 0
7, 53655, Note_on_c, 9, 39, 0
7, 53760, Note_on_c, 9, 39, 100
7, 53760, Note_on_c, 9, 38, 100
7, 53775, Note_on_c, 9, 38, 0
7, 53775, Note_on_c, 9, 39, 0
7, 53880, Note_on_c, 9, 39, 100
7, 53880, Note_on_c, 9, 38, 100
7, 53895, Note_on_c, 9, 38, 0
7, 53895, Note_on_c, 9, 39, 0
7, 54000, Note_on_c, 9, 39, 100
7, 54000, Note_on_c, 9, 38, 100
7, 54015, Note_on_c, 9, 38, 0
7, 54015, Note_on_c, 9, 39, 0
7, 54120, Note_on_c, 9, 39, 100
7, 54120, Note_on_c, 9, 38, 100
7, 54135, Note_on_c, 9, 38, 0
7, 54135, Note_on_c, 9, 39, 0
7, 54240, Note_on_c, 9, 39, 100
7, 54240, Note_on_c, 9, 38, 100
7, 54255, Note_on_c, 9, 38, 0
7, 54255, Note_on_c, 9, 39, 0
7, 54360, Note_on_c, 9, 39, 100
7, 54360, Note_on_c, 9, 38, 100
7, 54375, Note_on_c, 9, 38, 0
7, 54375, Note_on_c, 9, 39, 0
7, 54480, Note_on_c, 9, 39, 100
7, 54480, Note_on_c, 9, 38, 100
7, 54495, Note_on_c, 9, 38, 0
7, 54495, Note_on_c, 9, 39, 0
7, 54600, Note_on_c, 9, 39, 100
7, 54600, Note_on_c, 9, 38, 100
7, 54615, Note_on_c, 9, 38, 0
7, 54615, Note_on_c, 9, 39, 0
7, 54720, Note_on_c, 9, 49, 100
7, 54720, Note_on_c, 9, 39, 100
7, 54720, Note_on_c, 9, 38, 100
7, 54735, Note_on_c, 9, 38, 0
7, 54735, Note_on_c, 9, 39, 0
7, 54735, Note_on_c, 9, 49, 0
7, 54840, Note_on_c, 9, 39, 100
7, 54840, Note_on_c, 9, 38, 100
7, 54855, Note_on_c, 9, 38, 0
7, 54855, Note_on_c, 9, 39, 0
7, 54960, Note_on_c, 9, 39, 100
7, 54960, Note_on_c, 9, 38, 100
7, 54975, Note_on_c, 9, 38, 0
7, 54975, Note_on_c, 9, 39, 0
7, 55080, Note_on_c, 9, 39, 100
7, 55080, Note_on_c, 9, 38, 100
7, 55095, Note_on_c, 9, 38, 0
7, 55095, Note_on_c, 9, 39, 0
7, 55200, Note_on_c, 9, 39, 100
7, 55200, Note_on_c, 9, 38, 100
7, 55215, Note_on_c, 9, 38, 0
7, 55215, Note_on_c, 9, 39, 0
7, 55320, Note_on_c, 9, 39, 100
7, 55320, Note_on_c, 9, 38, 100
7, 55335, Note_on_c, 9, 38, 0
7, 55335, Note_on_c, 9, 39, 0
7, 55440, Note_on_c, 9, 39, 100
7, 55440, Note_on_c, 9, 38, 100
7, 55455, Note_on_c, 9, 38, 0
7, 55455, Note_on_c, 9, 39, 0
7, 55560, Note_on_c, 9, 39, 100
7, 55560, Note_on_c, 9, 38, 100
7, 55575, Note_on_c, 9, 38, 0
7, 55575, Note_on_c, 9, 39, 0
7, 55680, Note_on_c, 9, 39, 100
7, 55680, Note_on_c, 9, 38, 100
7, 55695, Note_on_c, 9, 38, 0
7, 55695, Note_on_c, 9, 39, 0
7, 55800, Note_on_c, 9, 39, 100
7, 55800, Note_on_c, 9, 38, 100
7, 55815, Note_on_c, 9, 38, 0
7, 55815, Note_on_c, 9, 39, 0
7, 55920, Note_on_c, 9, 39, 100
7, 55920, Note_on_c, 9, 38, 100
7, 55935, Note_on_c, 9, 38, 0
7, 55935, Note_on_c, 9, 39, 0
7, 56040, Note_on_c, 9, 39, 100
7, 56040, Note_on_c, 9, 38, 100
7, 56055, Note_on_c, 9, 38, 0
7, 56055, Note_on_c, 9, 39, 0
7, 56160, Note_on_c, 9, 39, 100
7, 56160, Note_on_c, 9, 38, 100
7, 56175, Note_on_c, 9, 38, 0
7, 56175, Note_on_c, 9, 39, 0
7, 56280, Note_on_c, 9, 39, 100
7, 56280, Note_on_c, 9, 38, 100
7, 56295, Note_on_c, 9, 38, 0
7, 56295, Note_on_c, 9, 39, 0
7, 56400, Note_on_c, 9, 39, 100
7, 56400, Note_on_c, 9, 38, 100
7, 56415, Note_on_c, 9, 38, 0
7, 56415, Note_on_c, 9, 39, 0
7, 56520, Note_on_c, 9, 39, 100
7, 56520, Note_on_c, 9, 38, 100
7, 56535, Note_on_c, 9, 38, 0
7, 56535, Note_on_c, 9, 39, 0
7, 56640, Note_on_c, 9, 39, 100
7, 56640, Note_on_c, 9, 38, 100
7, 56655, Note_on_c, 9, 38, 0
7, 56655, Note_on_c, 9, 39, 0
7, 56760, Note_on_c, 9, 39, 100
7, 56760, Note_on_c, 9, 38, 100
7, 56775, Note_on_c, 9, 38, 0
7, 56775, Note_on_c, 9, 39, 0
7, 56880, Note_on_c, 9, 39, 100
7, 56880, Note_on_c, 9, 38, 100
7, 56895, Note_on_c, 9, 38, 0
7, 56895, Note_on_c, 9, 39, 0
7, 57000, Note_on_c, 9, 39, 100
7, 57000, Note_on_c, 9, 38, 100
7, 57015, Note_on_c, 9, 38, 0
7, 57015, Note_on_c, 9, 39, 0
7, 57120, Note_on_c, 9, 39, 100
7, 57120, Note_on_c, 9, 38, 100
7, 57135, Note_on_c, 9, 38, 0
7, 57135, Note_on_c, 9, 39, 0
7, 57240, Note_on_c, 9, 39, 100
7, 57240, Note_on_c, 9, 38, 100
7, 57255, Note_on_c, 9, 38, 0
7, 57255, Note_on_c, 9, 39, 0
7, 57360, Note_on_c, 9, 39, 100
7, 57360, Note_on_c, 9, 38, 100
7, 57375, Note_on_c, 9, 38, 0
7, 57375, Note_on_c, 9, 39, 0
7, 57480, Note_on_c, 9, 39, 100
7, 57480, Note_on_c, 9, 38, 100
7, 57495, Note_on_c, 9, 38, 0
7, 57495, Note_on_c, 9, 39, 0
7, 57600, Note_on_c, 9, 39, 100
7, 57600, Note_on_c, 9, 38, 100
7, 57615, Note_on_c, 9, 38, 0
7, 57615, Note_on_c, 9, 39, 0
7, 57720, Note_on_c, 9, 39, 100
7, 57720, Note_on_c, 9, 38, 100
7, 57735, Note_on_c, 9, 38, 0
7, 57735, Note_on_c, 9, 39, 0
7, 57840, Note_on_c, 9, 39, 100
7, 57840, Note_on_c, 9, 38, 100
7, 57855, Note_on_c, 9, 38, 0
7, 57855, Note_on_c, 9, 39, 0
7, 57960, Note_on_c, 9, 39, 100
7, 57960, Note_on_c, 9, 38, 100
7, 57975, Note_on_c, 9, 38, 0
7, 57975, Note_on_c, 9, 39, 0
7, 58080, Note_on_c, 9, 39, 100
7, 58080, Note_on_c, 9, 38, 100
7, 58095, Note_on_c, 9, 38, 0
7, 58095, Note_on_c, 9, 39, 0
7, 58200, Note_on_c, 9, 39, 100
7, 58200, Note_on_c, 9, 38, 100
7, 58215, Note_on_c, 9, 38, 0
7, 58215, Note_on_c, 9, 39, 0
7, 58320, Note_on_c, 9, 39, 100
7, 58320, Note_on_c, 9, 38, 100
7, 58335, Note_on_c, 9, 38, 0
7, 58335, Note_on_c, 9, 39, 0
7, 58440, Note_on_c, 9, 39, 100
7, 58440, Note_on_c, 9, 38, 100
7, 58455, Note_on_c, 9, 38, 0
7, 58455, Note_on_c, 9, 39, 0
7, 58560, Note_on_c, 9, 39, 100
7, 58560, Note_on_c, 9, 38, 100
7, 58575, Note_on_c, 9, 38, 0
7, 58575, Note_on_c, 9, 39, 0
7, 58680, Note_on_c, 9, 39, 100
7, 58680, Note_on_c, 9, 38, 100
7, 58695, Note_on_c, 9, 38, 0
7, 58695, Note_on_c, 9, 39, 0
7, 58800, Note_on_c, 9, 39, 100
7, 58800, Note_on_c, 9, 38, 100
7, 58815, Note_on_c, 9, 38, 0
7, 58815, Note_on_c, 9, 39, 0
7, 58920, Note_on_c, 9, 39, 100
7, 58920, Note_on_c, 9, 38, 100
7, 58935, Note_on_c, 9, 38, 0
7, 58935, Note_on_c, 9, 39, 0
7, 59040, Note_on_c, 9, 39, 100
7, 59040, Note_on_c, 9, 38, 100
7, 59055, Note_on_c, 9, 38, 0
7, 59055, Note_on_c, 9, 39, 0
7, 59160, Note_on_c, 9, 39, 100
7, 59160, Note_on_c, 9, 38, 100
7, 59175, Note_on_c, 9, 38, 0
7, 59175, Note_on_c, 9, 39, 0
7, 59280, Note_on_c, 9, 39, 100
7, 59280, Note_on_c, 9, 38, 100
7, 59295, Note_on_c, 9, 38, 0
7, 59295, Note_on_c, 9, 39, 0
7, 59400, Note_on_c, 9, 39, 100
7, 59400, Note_on_c, 9, 38, 100
7, 59415, Note_on_c, 9, 38, 0
7, 59415, Note_on_c, 9, 39, 0
7, 59520, Note_on_c, 9, 49, 100
7, 59520, Note_on_c, 9, 39, 100
7, 59520, Note_on_c, 9, 38, 100
7, 59535, Note_on_c, 9, 38, 0
7, 59535, Note_on_c, 9, 39, 0
7, 59535, Note_on_c, 9, 49, 0
7, 59640, Note_on_c, 9, 39, 100
7, 59640, Note_on_c, 9, 38, 100
7, 59655, Note_on_c, 9, 38, 0
7, 59655, Note_on_c, 9, 39, 0
7, 59760, Note_on_c, 9, 39, 100
7, 59760, Note_on_c, 9, 38, 100
7, 59775, Note_on_c, 9, 38, 0
7, 59775, Note_on_c, 9, 39, 0
7, 59880, Note_on_c, 9, 39, 100
7, 59880, Note_on_c, 9, 38, 100
7, 59895, Note_on_c, 9, 38, 0
7, 59895, Note_on_c, 9, 39, 0
7, 60000, Note_on_c, 9, 39, 100
7, 60000, Note_on_c, 9, 38, 100
7, 60015, Note_on_c, 9, 38, 0
7, 60015, Note_on_c, 9, 39, 0
7, 60120, Note_on_c, 9, 39, 100
7, 60120, Note_on_c, 9, 38, 100
7, 60135, Note_on_c, 9, 38, 0
7, 60135, Note_on_c, 9, 39, 0
7, 60240, Note_on_c, 9, 39, 100
7, 60240, Note_on_c, 9, 38, 100
7, 60255, Note_on_c, 9, 38, 0
7, 60255, Note_on_c, 9, 39, 0
7, 60360, Note_on_c, 9, 39, 100
7, 60360, Note_on_c, 9, 38, 100
7, 60375, Note_on_c, 9, 38, 0
7, 60375, Note_on_c, 9, 39, 0
7, 60480, Note_on_c, 9, 49, 100
7, 60480, Note_on_c, 9, 39, 100
7, 60480, Note_on_c, 9, 38, 100
7, 60495, Note_on_c, 9, 38, 0
7, 60495, Note_on_c, 9, 39, 0
7, 60495, Note_on_c, 9, 49, 0
7, 60600, Note_on_c, 9, 39, 100
7, 60600, Note_on_c, 9, 38, 100
7, 60615, Note_on_c, 9, 38, 0
7, 60615, Note_on_c, 9, 39, 0
7, 60720, Note_on_c, 9, 39, 100
7, 60720, Note_on_c, 9, 38, 100
7, 60735, Note_on_c, 9, 38, 0
7, 60735, Note_on_c, 9, 39, 0
7, 60840, Note_on_c, 9, 39, 100
7, 60840, Note_on_c, 9, 38, 100
7, 60855, Note_on_c, 9, 38, 0
7, 60855, Note_on_c, 9, 39, 0
7, 60960, Note_on_c, 9, 39, 100
7, 60960, Note_on_c, 9, 38, 100
7, 60975, Note_on_c, 9, 38, 0
7, 60975, Note_on_c, 9, 39, 0
7, 61080, Note_on_c, 9, 39, 100
7, 61080, Note_on_c, 9, 38, 100
7, 61095, Note_on_c, 9, 38, 0
7, 61095, Note_on_c, 9, 39, 0
7, 61200, Note_on_c, 9, 39, 100
7, 61200, Note_on_c, 9, 38, 100
7, 61215, Note_on_c, 9, 38, 0
7, 61215, Note_on_c, 9, 39, 0
7, 61320, Note_on_c, 9, 39, 100
7, 61320, Note_on_c, 9, 38, 100
7, 61335, Note_on_c, 9, 38, 0
7, 61335, Note_on_c, 9, 39, 0
7, 61440, Note_on_c, 9, 49, 100
7, 61440, Note_on_c, 9, 39, 100
7, 61440, Note_on_c, 9, 38, 100
7, 61455, Note_on_c, 9, 38, 0
7, 61455, Note_on_c, 9, 39, 0
7, 61455, Note_on_c, 9, 49, 0
7, 61560, Note_on_c, 9, 39, 100
7, 61560, Note_on_c, 9, 38, 100
7, 61575, Note_on_c, 9, 38, 0
7, 61575, Note_on_c, 9, 39, 0
7, 61680, Note_on_c, 9, 39, 100
7, 61680, Note_on_c, 9, 38, 100
7, 61695, Note_on_c, 9, 38, 0
7, 61695, Note_on_c, 9, 39, 0
7, 61800, Note_on_c, 9, 39, 100
7, 61800, Note_on_c, 9, 38, 100
7, 61815, Note_on_c, 9, 38, 0
7, 61815, Note_on_c, 9, 39, 0
7, 61920, Note_on_c, 9, 39, 100
7, 61920, Note_on_c, 9, 38, 100
7, 61935, Note_on_c, 9, 38, 0
7, 61935, Note_on_c, 9, 39, 0
7, 62040, Note_on_c, 9, 39, 100
7, 62040, Note_on_c, 9, 38, 100
7, 62055, Note_on_c, 9, 38, 0
7, 62055, Note_on_c, 9, 39, 0
7, 62160, Note_on_c, 9, 39, 100
7, 62160, Note_on_c, 9, 38, 100
7, 62175, Note_on_c, 9, 38, 0
7, 62175, Note_on_c, 9, 39, 0
7, 62280, Note_on_c, 9, 39, 100
7, 62280, Note_on_c, 9, 38, 100
7, 62295, Note_on_c, 9, 38, 0
7, 62295, Note_on_c, 9, 39, 0
7, 62400, Note_on_c, 9, 49, 100
7, 62400, Note_on_c, 9, 39, 100
7, 62400, Note_on_c, 9, 38, 100
7, 62415, Note_on_c, 9, 38, 0
7, 62415, Note_on_c, 9, 39, 0
7, 62415, Note_on_c, 9, 49, 0
7, 62520, Note_on_c, 9, 39, 100
7, 62520, Note_on_c, 9, 38, 100
7, 62535, Note_on_c, 9, 38, 0
7, 62535, Note_on_c, 9, 39, 0
7, 62640, Note_on_c, 9, 39, 100
7, 62640, Note_on_c, 9, 38, 100
7, 62655, Note_on_c, 9, 38, 0
7, 62655, Note_on_c, 9, 39, 0
7, 62760, Note_on_c, 9, 39, 100
7, 62760, Note_on_c, 9, 38, 100
7, 62775, Note_on_c, 9, 38, 0
7, 62775, Note_on_c, 9, 39, 0
7, 62880, Note_on_c, 9, 39, 100
7, 62880, Note_on_c, 9, 38, 100
7, 62895, Note_on_c, 9, 38, 0
7, 62895, Note_on_c, 9, 39, 0
7, 63000, Note_on_c, 9, 39, 100
7, 63000, Note_on_c, 9, 38, 100
7, 63015, Note_on_c, 9, 38, 0
7, 63015, Note_on_c, 9, 39, 0
7, 63120, Note_on_c, 9, 39, 100
7, 63120, Note_on_c, 9, 38, 100
7, 63135, Note_on_c, 9, 38, 0
7, 63135, Note_on_c, 9, 39, 0
7, 63240, Note_on_c, 9, 39, 100
7, 63240, Note_on_c, 9, 38, 100
7, 63255, Note_on_c, 9, 38, 0
7, 63255, Note_on_c, 9, 39, 0
7, 63360, Note_on_c, 9, 39, 100
7, 63360, Note_on_c, 9, 38, 100
7, 63360, Note_on_c, 9, 49, 100
7, 63375, Note_on_c, 9, 49, 0
7, 63375, Note_on_c, 9, 38, 0
7, 63375, Note_on_c, 9, 39, 0
7, 63375, End_track
8, 0, Start_track
8, 0, MIDI_port, 1
8, 0, Title_t, "bass drum"
8, 0, Control_c, 9, 0, 127
8, 0, Control_c, 9, 32, 0
8, 0, Program_c, 9, 16
8, 0, Control_c, 9, 7, 127
8, 1920, Note_on_c, 9, 36, 100
8, 1935, Note_on_c, 9, 36, 0
8, 2040, Note_on_c, 9, 36, 100
8, 2055, Note_on_c, 9, 36, 0
8, 2160, Note_on_c, 9, 36, 100
8, 2175, Note_on_c, 9, 36, 0
8, 2220, Note_on_c, 9, 36, 100
8, 2235, Note_on_c, 9, 36, 0
8, 2280, Note_on_c, 9, 36, 100
8, 2295, Note_on_c, 9, 36, 0
8, 2400, Note_on_c, 9, 36, 100
8, 2415, Note_on_c, 9, 36, 0
8, 2520, Note_on_c, 9, 36, 100
8, 2535, Note_on_c, 9, 36, 0
8, 2640, Note_on_c, 9, 36, 100
8, 2655, Note_on_c, 9, 36, 0
8, 2700, Note_on_c, 9, 36, 100
8, 2715, Note_on_c, 9, 36, 0
8, 2760, Note_on_c, 9, 36, 100
8, 2775, Note_on_c, 9, 36, 0
8, 2880, Note_on_c, 9, 36, 100
8, 2895, Note_on_c, 9, 36, 0
8, 3000, Note_on_c, 9, 36, 100
8, 3015, Note_on_c, 9, 36, 0
8, 3120, Note_on_c, 9, 36, 100
8, 3135, Note_on_c, 9, 36, 0
8, 3180, Note_on_c, 9, 36, 100
8, 3195, Note_on_c, 9, 36, 0
8, 3240, Note_on_c, 9, 36, 100
8, 3255, Note_on_c, 9, 36, 0
8, 3360, Note_on_c, 9, 36, 100
8, 3375, Note_on_c, 9, 36, 0
8, 3480, Note_on_c, 9, 36, 100
8, 3495, Note_on_c, 9, 36, 0
8, 3600, Note_on_c, 9, 36, 100
8, 3615, Note_on_c, 9, 36, 0
8, 3660, Note_on_c, 9, 36, 100
8, 3675, Note_on_c, 9, 36, 0
8, 3720, Note_on_c, 9, 36, 100
8, 3735, Note_on_c, 9, 36, 0
8, 3840, Note_on_c, 9, 36, 100
8, 3855, Note_on_c, 9, 36, 0
8, 3960, Note_on_c, 9, 36, 100
8, 3975, Note_on_c, 9, 36, 0
8, 4080, Note_on_c, 9, 36, 100
8, 4095, Note_on_c, 9, 36, 0
8, 4140, Note_on_c, 9, 36, 100
8, 4155, Note_on_c, 9, 36, 0
8, 4200, Note_on_c, 9, 36, 100
8, 4215, Note_on_c, 9, 36, 0
8, 4320, Note_on_c, 9, 36, 100
8, 4335, Note_on_c, 9, 36, 0
8, 4440, Note_on_c, 9, 36, 100
8, 4455, Note_on_c, 9, 36, 0
8, 4560, Note_on_c, 9, 36, 100
8, 4575, Note_on_c, 9, 36, 0
8, 4620, Note_on_c, 9, 36, 100
8, 4635, Note_on_c, 9, 36, 0
8, 4680, Note_on_c, 9, 36, 100
8, 4695, Note_on_c, 9, 36, 0
8, 4800, Note_on_c, 9, 36, 100
8, 4815, Note_on_c, 9, 36, 0
8, 4920, Note_on_c, 9, 36, 100
8, 4935, Note_on_c, 9, 36, 0
8, 5040, Note_on_c, 9, 36, 100
8, 5055, Note_on_c, 9, 36, 0
8, 5100, Note_on_c, 9, 36, 100
8, 5115, Note_on_c, 9, 36, 0
8, 5160, Note_on_c, 9, 36, 100
8, 5175, Note_on_c, 9, 36, 0
8, 5280, Note_on_c, 9, 36, 100
8, 5295, Note_on_c, 9, 36, 0
8, 5400, Note_on_c, 9, 36, 100
8, 5415, Note_on_c, 9, 36, 0
8, 5520, Note_on_c, 9, 36, 100
8, 5535, Note_on_c, 9, 36, 0
8, 5580, Note_on_c, 9, 36, 100
8, 5595, Note_on_c, 9, 36, 0
8, 5640, Note_on_c, 9, 36, 100
8, 5655, Note_on_c, 9, 36, 0
8, 5760, Note_on_c, 9, 36, 100
8, 5775, Note_on_c, 9, 36, 0
8, 5880, Note_on_c, 9, 36, 100
8, 5895, Note_on_c, 9, 36, 0
8, 6000, Note_on_c, 9, 36, 100
8, 6015, Note_on_c, 9, 36, 0
8, 6060, Note_on_c, 9, 36, 100
8, 6075, Note_on_c, 9, 36, 0
8, 6120, Note_on_c, 9, 36, 100
8, 6135, Note_on_c, 9, 36, 0
8, 6240, Note_on_c, 9, 36, 100
8, 6255, Note_on_c, 9, 36, 0
8, 6360, Note_on_c, 9, 36, 100
8, 6375, Note_on_c, 9, 36, 0
8, 6480, Note_on_c, 9, 36, 100
8, 6495, Note_on_c, 9, 36, 0
8, 6540, Note_on_c, 9, 36, 100
8, 6555, Note_on_c, 9, 36, 0
8, 6600, Note_on_c, 9, 36, 100
8, 6615, Note_on_c, 9, 36, 0
8, 6720, Note_on_c, 9, 36, 100
8, 6735, Note_on_c, 9, 36, 0
8, 6840, Note_on_c, 9, 36, 100
8, 6855, Note_on_c, 9, 36, 0
8, 6960, Note_on_c, 9, 36, 100
8, 6975, Note_on_c, 9, 36, 0
8, 7020, Note_on_c, 9, 36, 100
8, 7035, Note_on_c, 9, 36, 0
8, 7080, Note_on_c, 9, 36, 100
8, 7095, Note_on_c, 9, 36, 0
8, 7200, Note_on_c, 9, 36, 100
8, 7215, Note_on_c, 9, 36, 0
8, 7320, Note_on_c, 9, 36, 100
8, 7335, Note_on_c, 9, 36, 0
8, 7440, Note_on_c, 9, 36, 100
8, 7455, Note_on_c, 9, 36, 0
8, 7500, Note_on_c, 9, 36, 100
8, 7515, Note_on_c, 9, 36, 0
8, 7560, Note_on_c, 9, 36, 100
8, 7575, Note_on_c, 9, 36, 0
8, 7680, Note_on_c, 9, 36, 100
8, 7695, Note_on_c, 9, 36, 0
8, 7800, Note_on_c, 9, 36, 100
8, 7815, Note_on_c, 9, 36, 0
8, 7920, Note_on_c, 9, 36, 100
8, 7935, Note_on_c, 9, 36, 0
8, 7980, Note_on_c, 9, 36, 100
8, 7995, Note_on_c, 9, 36, 0
8, 8040, Note_on_c, 9, 36, 100
8, 8055, Note_on_c, 9, 36, 0
8, 8160, Note_on_c, 9, 36, 100
8, 8175, Note_on_c, 9, 36, 0
8, 8280, Note_on_c, 9, 36, 100
8, 8295, Note_on_c, 9, 36, 0
8, 8400, Note_on_c, 9, 36, 100
8, 8415, Note_on_c, 9, 36, 0
8, 8460, Note_on_c, 9, 36, 100
8, 8475, Note_on_c, 9, 36, 0
8, 8520, Note_on_c, 9, 36, 100
8, 8535, Note_on_c, 9, 36, 0
8, 8640, Note_on_c, 9, 36, 100
8, 8655, Note_on_c, 9, 36, 0
8, 8760, Note_on_c, 9, 36, 100
8, 8775, Note_on_c, 9, 36, 0
8, 8880, Note_on_c, 9, 36, 100
8, 8895, Note_on_c, 9, 36, 0
8, 8940, Note_on_c, 9, 36, 100
8, 8955, Note_on_c, 9, 36, 0
8, 9000, Note_on_c, 9, 36, 100
8, 9015, Note_on_c, 9, 36, 0
8, 9120, Note_on_c, 9, 36, 100
8, 9135, Note_on_c, 9, 36, 0
8, 9240, Note_on_c, 9, 36, 100
8, 9255, Note_on_c, 9, 36, 0
8, 9360, Note_on_c, 9, 36, 100
8, 9375, Note_on_c, 9, 36, 0
8, 9420, Note_on_c, 9, 36, 100
8, 9435, Note_on_c, 9, 36, 0
8, 9480, Note_on_c, 9, 36, 100
8, 9495, Note_on_c, 9, 36, 0
8, 9600, Note_on_c, 9, 36, 100
8, 9615, Note_on_c, 9, 36, 0
8, 9720, Note_on_c, 9, 36, 100
8, 9735, Note_on_c, 9, 36, 0
8, 9840, Note_on_c, 9, 36, 100
8, 9855, Note_on_c, 9, 36, 0
8, 9900, Note_on_c, 9, 36, 100
8, 9915, Note_on_c, 9, 36, 0
8, 9960, Note_on_c, 9, 36, 100
8, 9975, Note_on_c, 9, 36, 0
8, 10080, Note_on_c, 9, 36, 100
8, 10095, Note_on_c, 9, 36, 0
8, 10200, Note_on_c, 9, 36, 100
8, 10215, Note_on_c, 9, 36, 0
8, 10320, Note_on_c, 9, 36, 100
8, 10335, Note_on_c, 9, 36, 0
8, 10380, Note_on_c, 9, 36, 100
8, 10395, Note_on_c, 9, 36, 0
8, 10440, Note_on_c, 9, 36, 100
8, 10455, Note_on_c, 9, 36, 0
8, 10560, Note_on_c, 9, 36, 100
8, 10575, Note_on_c, 9, 36, 0
8, 10680, Note_on_c, 9, 36, 100
8, 10695, Note_on_c, 9, 36, 0
8, 10800, Note_on_c, 9, 36, 100
8, 10815, Note_on_c, 9, 36, 0
8, 10860, Note_on_c, 9, 36, 100
8, 10875, Note_on_c, 9, 36, 0
8, 10920, Note_on_c, 9, 36, 100
8, 10935, Note_on_c, 9, 36, 0
8, 11040, Note_on_c, 9, 36, 100
8, 11055, Note_on_c, 9, 36, 0
8, 11160, Note_on_c, 9, 36, 100
8, 11175, Note_on_c, 9, 36, 0
8, 11280, Note_on_c, 9, 36, 100
8, 11295, Note_on_c, 9, 36, 0
8, 11340, Note_on_c, 9, 36, 100
8, 11355, Note_on_c, 9, 36, 0
8, 11400, Note_on_c, 9, 36, 100
8, 11415, Note_on_c, 9, 36, 0
8, 11520, Note_on_c, 9, 36, 100
8, 11535, Note_on_c, 9, 36, 0
8, 11640, Note_on_c, 9, 36, 100
8, 11655, Note_on_c, 9, 36, 0
8, 11760, Note_on_c, 9, 36, 100
8, 11775, Note_on_c, 9, 36, 0
8, 11820, Note_on_c, 9, 36, 100
8, 11835, Note_on_c, 9, 36, 0
8, 11880, Note_on_c, 9, 36, 100
8, 11895, Note_on_c, 9, 36, 0
8, 12000, Note_on_c, 9, 36, 100
8, 12015, Note_on_c, 9, 36, 0
8, 12120, Note_on_c, 9, 36, 100
8, 12135, Note_on_c, 9, 36, 0
8, 12240, Note_on_c, 9, 36, 100
8, 12255, Note_on_c, 9, 36, 0
8, 12300, Note_on_c, 9, 36, 100
8, 12315, Note_on_c, 9, 36, 0
8, 12360, Note_on_c, 9, 36, 100
8, 12375, Note_on_c, 9, 36, 0
8, 12480, Note_on_c, 9, 36, 100
8, 12495, Note_on_c, 9, 36, 0
8, 12600, Note_on_c, 9, 36, 100
8, 12615, Note_on_c, 9, 36, 0
8, 12720, Note_on_c, 9, 36, 100
8, 12735, Note_on_c, 9, 36, 0
8, 12780, Note_on_c, 9, 36, 100
8, 12795, Note_on_c, 9, 36, 0
8, 12840, Note_on_c, 9, 36, 100
8, 12855, Note_on_c, 9, 36, 0
8, 12960, Note_on_c, 9, 36, 100
8, 12975, Note_on_c, 9, 36, 0
8, 13080, Note_on_c, 9, 36, 100
8, 13095, Note_on_c, 9, 36, 0
8, 13200, Note_on_c, 9, 36, 100
8, 13215, Note_on_c, 9, 36, 0
8, 13260, Note_on_c, 9, 36, 100
8, 13275, Note_on_c, 9, 36, 0
8, 13320, Note_on_c, 9, 36, 100
8, 13335, Note_on_c, 9, 36, 0
8, 13440, Note_on_c, 9, 36, 100
8, 13455, Note_on_c, 9, 36, 0
8, 13560, Note_on_c, 9, 36, 100
8, 13575, Note_on_c, 9, 36, 0
8, 13680, Note_on_c, 9, 36, 100
8, 13695, Note_on_c, 9, 36, 0
8, 13740, Note_on_c, 9, 36, 100
8, 13755, Note_on_c, 9, 36, 0
8, 13800, Note_on_c, 9, 36, 100
8, 13815, Note_on_c, 9, 36, 0
8, 13920, Note_on_c, 9, 36, 100
8, 13935, Note_on_c, 9, 36, 0
8, 14040, Note_on_c, 9, 36, 100
8, 14055, Note_on_c, 9, 36, 0
8, 14160, Note_on_c, 9, 36, 100
8, 14175, Note_on_c, 9, 36, 0
8, 14220, Note_on_c, 9, 36, 100
8, 14235, Note_on_c, 9, 36, 0
8, 14280, Note_on_c, 9, 36, 100
8, 14295, Note_on_c, 9, 36, 0
8, 14400, Note_on_c, 9, 36, 100
8, 14415, Note_on_c, 9, 36, 0
8, 14520, Note_on_c, 9, 36, 100
8, 14535, Note_on_c, 9, 36, 0
8, 14640, Note_on_c, 9, 36, 100
8, 14655, Note_on_c, 9, 36, 0
8, 14700, Note_on_c, 9, 36, 100
8, 14715, Note_on_c, 9, 36, 0
8, 14760, Note_on_c, 9, 36, 100
8, 14775, Note_on_c, 9, 36, 0
8, 14880, Note_on_c, 9, 36, 100
8, 14895, Note_on_c, 9, 36, 0
8, 15000, Note_on_c, 9, 36, 100
8, 15015, Note_on_c, 9, 36, 0
8, 15120, Note_on_c, 9, 36, 100
8, 15135, Note_on_c, 9, 36, 0
8, 15180, Note_on_c, 9, 36, 100
8, 15195, Note_on_c, 9, 36, 0
8, 15240, Note_on_c, 9, 36, 100
8, 15255, Note_on_c, 9, 36, 0
8, 15360, Note_on_c, 9, 36, 100
8, 15375, Note_on_c, 9, 36, 0
8, 15480, Note_on_c, 9, 36, 100
8, 15495, Note_on_c, 9, 36, 0
8, 15600, Note_on_c, 9, 36, 100
8, 15615, Note_on_c, 9, 36, 0
8, 15660, Note_on_c, 9, 36, 100
8, 15675, Note_on_c, 9, 36, 0
8, 15720, Note_on_c, 9, 36, 100
8, 15735, Note_on_c, 9, 36, 0
8, 15840, Note_on_c, 9, 36, 100
8, 15855, Note_on_c, 9, 36, 0
8, 15960, Note_on_c, 9, 36, 100
8, 15975, Note_on_c, 9, 36, 0
8, 16080, Note_on_c, 9, 36, 100
8, 16095, Note_on_c, 9, 36, 0
8, 16140, Note_on_c, 9, 36, 100
8, 16155, Note_on_c, 9, 36, 0
8, 16200, Note_on_c, 9, 36, 100
8, 16215, Note_on_c, 9, 36, 0
8, 16320, Note_on_c, 9, 36, 100
8, 16335, Note_on_c, 9, 36, 0
8, 16440, Note_on_c, 9, 36, 100
8, 16455, Note_on_c, 9, 36, 0
8, 16560, Note_on_c, 9, 36, 100
8, 16575, Note_on_c, 9, 36, 0
8, 16620, Note_on_c, 9, 36, 100
8, 16635, Note_on_c, 9, 36, 0
8, 16680, Note_on_c, 9, 36, 100
8, 16695, Note_on_c, 9, 36, 0
8, 16800, Note_on_c, 9, 36, 100
8, 16815, Note_on_c, 9, 36, 0
8, 16920, Note_on_c, 9, 36, 100
8, 16935, Note_on_c, 9, 36, 0
8, 17040, Note_on_c, 9, 36, 100
8, 17055, Note_on_c, 9, 36, 0
8, 17100, Note_on_c, 9, 36, 100
8, 17115, Note_on_c, 9, 36, 0
8, 17160, Note_on_c, 9, 36, 100
8, 17175, Note_on_c, 9, 36, 0
8, 17280, Note_on_c, 9, 36, 100
8, 17295, Note_on_c, 9, 36, 0
8, 17400, Note_on_c, 9, 36, 100
8, 17415, Note_on_c, 9, 36, 0
8, 17520, Note_on_c, 9, 36, 100
8, 17535, Note_on_c, 9, 36, 0
8, 17580, Note_on_c, 9, 36, 100
8, 17595, Note_on_c, 9, 36, 0
8, 17640, Note_on_c, 9, 36, 100
8, 17655, Note_on_c, 9, 36, 0
8, 17760, Note_on_c, 9, 36, 100
8, 17775, Note_on_c, 9, 36, 0
8, 17880, Note_on_c, 9, 36, 100
8, 17895, Note_on_c, 9, 36, 0
8, 18000, Note_on_c, 9, 36, 100
8, 18015, Note_on_c, 9, 36, 0
8, 18060, Note_on_c, 9, 36, 100
8, 18075, Note_on_c, 9, 36, 0
8, 18120, Note_on_c, 9, 36, 100
8, 18135, Note_on_c, 9, 36, 0
8, 18240, Note_on_c, 9, 36, 100
8, 18255, Note_on_c, 9, 36, 0
8, 18360, Note_on_c, 9, 36, 100
8, 18375, Note_on_c, 9, 36, 0
8, 18480, Note_on_c, 9, 36, 100
8, 18495, Note_on_c, 9, 36, 0
8, 18540, Note_on_c, 9, 36, 100
8, 18555, Note_on_c, 9, 36, 0
8, 18600, Note_on_c, 9, 36, 100
8, 18615, Note_on_c, 9, 36, 0
8, 18720, Note_on_c, 9, 36, 100
8, 18735, Note_on_c, 9, 36, 0
8, 18840, Note_on_c, 9, 36, 100
8, 18855, Note_on_c, 9, 36, 0
8, 18960, Note_on_c, 9, 36, 100
8, 18975, Note_on_c, 9, 36, 0
8, 19020, Note_on_c, 9, 36, 100
8, 19035, Note_on_c, 9, 36, 0
8, 19080, Note_on_c, 9, 36, 100
8, 19095, Note_on_c, 9, 36, 0
8, 19200, Note_on_c, 9, 36, 100
8, 19215, Note_on_c, 9, 36, 0
8, 19320, Note_on_c, 9, 36, 100
8, 19335, Note_on_c, 9, 36, 0
8, 19440, Note_on_c, 9, 36, 100
8, 19455, Note_on_c, 9, 36, 0
8, 19500, Note_on_c, 9, 36, 100
8, 19515, Note_on_c, 9, 36, 0
8, 19560, Note_on_c, 9, 36, 100
8, 19575, Note_on_c, 9, 36, 0
8, 19680, Note_on_c, 9, 36, 100
8, 19695, Note_on_c, 9, 36, 0
8, 19800, Note_on_c, 9, 36, 100
8, 19815, Note_on_c, 9, 36, 0
8, 19920, Note_on_c, 9, 36, 100
8, 19935, Note_on_c, 9, 36, 0
8, 19980, Note_on_c, 9, 36, 100
8, 19995, Note_on_c, 9, 36, 0
8, 20040, Note_on_c, 9, 36, 100
8, 20055, Note_on_c, 9, 36, 0
8, 20160, Note_on_c, 9, 36, 100
8, 20175, Note_on_c, 9, 36, 0
8, 20640, Note_on_c, 9, 36, 100
8, 20655, Note_on_c, 9, 36, 0
8, 21120, Note_on_c, 9, 36, 100
8, 21135, Note_on_c, 9, 36, 0
8, 21240, Note_on_c, 9, 36, 100
8, 21255, Note_on_c, 9, 36, 0
8, 21360, Note_on_c, 9, 36, 100
8, 21375, Note_on_c, 9, 36, 0
8, 21420, Note_on_c, 9, 36, 100
8, 21435, Note_on_c, 9, 36, 0
8, 21480, Note_on_c, 9, 36, 100
8, 21495, Note_on_c, 9, 36, 0
8, 21600, Note_on_c, 9, 36, 100
8, 21615, Note_on_c, 9, 36, 0
8, 21720, Note_on_c, 9, 36, 100
8, 21735, Note_on_c, 9, 36, 0
8, 21840, Note_on_c, 9, 36, 100
8, 21855, Note_on_c, 9, 36, 0
8, 21900, Note_on_c, 9, 36, 100
8, 21915, Note_on_c, 9, 36, 0
8, 21960, Note_on_c, 9, 36, 100
8, 21975, Note_on_c, 9, 36, 0
8, 22080, Note_on_c, 9, 36, 100
8, 22095, Note_on_c, 9, 36, 0
8, 22200, Note_on_c, 9, 36, 100
8, 22215, Note_on_c, 9, 36, 0
8, 22320, Note_on_c, 9, 36, 100
8, 22335, Note_on_c, 9, 36, 0
8, 22380, Note_on_c, 9, 36, 100
8, 22395, Note_on_c, 9, 36, 0
8, 22440, Note_on_c, 9, 36, 100
8, 22455, Note_on_c, 9, 36, 0
8, 22560, Note_on_c, 9, 36, 100
8, 22575, Note_on_c, 9, 36, 0
8, 22680, Note_on_c, 9, 36, 100
8, 22695, Note_on_c, 9, 36, 0
8, 22800, Note_on_c, 9, 36, 100
8, 22815, Note_on_c, 9, 36, 0
8, 22860, Note_on_c, 9, 36, 100
8, 22875, Note_on_c, 9, 36, 0
8, 22920, Note_on_c, 9, 36, 100
8, 22935, Note_on_c, 9, 36, 0
8, 23040, Note_on_c, 9, 36, 100
8, 23055, Note_on_c, 9, 36, 0
8, 23160, Note_on_c, 9, 36, 100
8, 23175, Note_on_c, 9, 36, 0
8, 23280, Note_on_c, 9, 36, 100
8, 23295, Note_on_c, 9, 36, 0
8, 23340, Note_on_c, 9, 36, 100
8, 23355, Note_on_c, 9, 36, 0
8, 23400, Note_on_c, 9, 36, 100
8, 23415, Note_on_c, 9, 36, 0
8, 23520, Note_on_c, 9, 36, 100
8, 23535, Note_on_c, 9, 36, 0
8, 23640, Note_on_c, 9, 36, 100
8, 23655, Note_on_c, 9, 36, 0
8, 23760, Note_on_c, 9, 36, 100
8, 23775, Note_on_c, 9, 36, 0
8, 23820, Note_on_c, 9, 36, 100
8, 23835, Note_on_c, 9, 36, 0
8, 23880, Note_on_c, 9, 36, 100
8, 23895, Note_on_c, 9, 36, 0
8, 24000, Note_on_c, 9, 36, 100
8, 24015, Note_on_c, 9, 36, 0
8, 24120, Note_on_c, 9, 36, 100
8, 24135, Note_on_c, 9, 36, 0
8, 24240, Note_on_c, 9, 36, 100
8, 24255, Note_on_c, 9, 36, 0
8, 24300, Note_on_c, 9, 36, 100
8, 24315, Note_on_c, 9, 36, 0
8, 24360, Note_on_c, 9, 36, 100
8, 24375, Note_on_c, 9, 36, 0
8, 24480, Note_on_c, 9, 36, 100
8, 24495, Note_on_c, 9, 36, 0
8, 24600, Note_on_c, 9, 36, 100
8, 24615, Note_on_c, 9, 36, 0
8, 24720, Note_on_c, 9, 36, 100
8, 24735, Note_on_c, 9, 36, 0
8, 24780, Note_on_c, 9, 36, 100
8, 24795, Note_on_c, 9, 36, 0
8, 24840, Note_on_c, 9, 36, 100
8, 24855, Note_on_c, 9, 36, 0
8, 24960, Note_on_c, 9, 36, 100
8, 24975, Note_on_c, 9, 36, 0
8, 25080, Note_on_c, 9, 36, 100
8, 25095, Note_on_c, 9, 36, 0
8, 25200, Note_on_c, 9, 36, 100
8, 25215, Note_on_c, 9, 36, 0
8, 25260, Note_on_c, 9, 36, 100
8, 25275, Note_on_c, 9, 36, 0
8, 25320, Note_on_c, 9, 36, 100
8, 25335, Note_on_c, 9, 36, 0
8, 25440, Note_on_c, 9, 36, 100
8, 25455, Note_on_c, 9, 36, 0
8, 25560, Note_on_c, 9, 36, 100
8, 25575, Note_on_c, 9, 36, 0
8, 25680, Note_on_c, 9, 36, 100
8, 25695, Note_on_c, 9, 36, 0
8, 25740, Note_on_c, 9, 36, 100
8, 25755, Note_on_c, 9, 36, 0
8, 25800, Note_on_c, 9, 36, 100
8, 25815, Note_on_c, 9, 36, 0
8, 25920, Note_on_c, 9, 36, 100
8, 25935, Note_on_c, 9, 36, 0
8, 26040, Note_on_c, 9, 36, 100
8, 26055, Note_on_c, 9, 36, 0
8, 26160, Note_on_c, 9, 36, 100
8, 26175, Note_on_c, 9, 36, 0
8, 26220, Note_on_c, 9, 36, 100
8, 26235, Note_on_c, 9, 36, 0
8, 26280, Note_on_c, 9, 36, 100
8, 26295, Note_on_c, 9, 36, 0
8, 26400, Note_on_c, 9, 36, 100
8, 26415, Note_on_c, 9, 36, 0
8, 26520, Note_on_c, 9, 36, 100
8, 26535, Note_on_c, 9, 36, 0
8, 26640, Note_on_c, 9, 36, 100
8, 26655, Note_on_c, 9, 36, 0
8, 26700, Note_on_c, 9, 36, 100
8, 26715, Note_on_c, 9, 36, 0
8, 26760, Note_on_c, 9, 36, 100
8, 26775, Note_on_c, 9, 36, 0
8, 26880, Note_on_c, 9, 36, 100
8, 26895, Note_on_c, 9, 36, 0
8, 27000, Note_on_c, 9, 36, 100
8, 27015, Note_on_c, 9, 36, 0
8, 27120, Note_on_c, 9, 36, 100
8, 27135, Note_on_c, 9, 36, 0
8, 27180, Note_on_c, 9, 36, 100
8, 27195, Note_on_c, 9, 36, 0
8, 27240, Note_on_c, 9, 36, 100
8, 27255, Note_on_c, 9, 36, 0
8, 27360, Note_on_c, 9, 36, 100
8, 27375, Note_on_c, 9, 36, 0
8, 27480, Note_on_c, 9, 36, 100
8, 27495, Note_on_c, 9, 36, 0
8, 27600, Note_on_c, 9, 36, 100
8, 27615, Note_on_c, 9, 36, 0
8, 27660, Note_on_c, 9, 36, 100
8, 27675, Note_on_c, 9, 36, 0
8, 27720, Note_on_c, 9, 36, 100
8, 27735, Note_on_c, 9, 36, 0
8, 27840, Note_on_c, 9, 36, 100
8, 27855, Note_on_c, 9, 36, 0
8, 27960, Note_on_c, 9, 36, 100
8, 27975, Note_on_c, 9, 36, 0
8, 28080, Note_on_c, 9, 36, 100
8, 28095, Note_on_c, 9, 36, 0
8, 28140, Note_on_c, 9, 36, 100
8, 28155, Note_on_c, 9, 36, 0
8, 28200, Note_on_c, 9, 36, 100
8, 28215, Note_on_c, 9, 36, 0
8, 28320, Note_on_c, 9, 36, 100
8, 28335, Note_on_c, 9, 36, 0
8, 28440, Note_on_c, 9, 36, 100
8, 28455, Note_on_c, 9, 36, 0
8, 28560, Note_on_c, 9, 36, 100
8, 28575, Note_on_c, 9, 36, 0
8, 28620, Note_on_c, 9, 36, 100
8, 28635, Note_on_c, 9, 36, 0
8, 28680, Note_on_c, 9, 36, 100
8, 28695, Note_on_c, 9, 36, 0
8, 28800, Note_on_c, 9, 36, 100
8, 28815, Note_on_c, 9, 36, 0
8, 28920, Note_on_c, 9, 36, 100
8, 28935, Note_on_c, 9, 36, 0
8, 29040, Note_on_c, 9, 36, 100
8, 29055, Note_on_c, 9, 36, 0
8, 29100, Note_on_c, 9, 36, 100
8, 29115, Note_on_c, 9, 36, 0
8, 29160, Note_on_c, 9, 36, 100
8, 29175, Note_on_c, 9, 36, 0
8, 29280, Note_on_c, 9, 36, 100
8, 29295, Note_on_c, 9, 36, 0
8, 29400, Note_on_c, 9, 36, 100
8, 29415, Note_on_c, 9, 36, 0
8, 29520, Note_on_c, 9, 36, 100
8, 29535, Note_on_c, 9, 36, 0
8, 29580, Note_on_c, 9, 36, 100
8, 29595, Note_on_c, 9, 36, 0
8, 29640, Note_on_c, 9, 36, 100
8, 29655, Note_on_c, 9, 36, 0
8, 29760, Note_on_c, 9, 36, 100
8, 29775, Note_on_c, 9, 36, 0
8, 29880, Note_on_c, 9, 36, 100
8, 29895, Note_on_c, 9, 36, 0
8, 30000, Note_on_c, 9, 36, 100
8, 30015, Note_on_c, 9, 36, 0
8, 30060, Note_on_c, 9, 36, 100
8, 30075, Note_on_c, 9, 36, 0
8, 30120, Note_on_c, 9, 36, 100
8, 30135, Note_on_c, 9, 36, 0
8, 30240, Note_on_c, 9, 36, 100
8, 30255, Note_on_c, 9, 36, 0
8, 30360, Note_on_c, 9, 36, 100
8, 30375, Note_on_c, 9, 36, 0
8, 30480, Note_on_c, 9, 36, 100
8, 30495, Note_on_c, 9, 36, 0
8, 30540, Note_on_c, 9, 36, 100
8, 30555, Note_on_c, 9, 36, 0
8, 30600, Note_on_c, 9, 36, 100
8, 30615, Note_on_c, 9, 36, 0
8, 30720, Note_on_c, 9, 36, 100
8, 30735, Note_on_c, 9, 36, 0
8, 30840, Note_on_c, 9, 36, 100
8, 30855, Note_on_c, 9, 36, 0
8, 30960, Note_on_c, 9, 36, 100
8, 30975, Note_on_c, 9, 36, 0
8, 31020, Note_on_c, 9, 36, 100
8, 31035, Note_on_c, 9, 36, 0
8, 31080, Note_on_c, 9, 36, 100
8, 31095, Note_on_c, 9, 36, 0
8, 31200, Note_on_c, 9, 36, 100
8, 31215, Note_on_c, 9, 36, 0
8, 31320, Note_on_c, 9, 36, 100
8, 31335, Note_on_c, 9, 36, 0
8, 31440, Note_on_c, 9, 36, 100
8, 31455, Note_on_c, 9, 36, 0
8, 31500, Note_on_c, 9, 36, 100
8, 31515, Note_on_c, 9, 36, 0
8, 31560, Note_on_c, 9, 36, 100
8, 31575, Note_on_c, 9, 36, 0
8, 31680, Note_on_c, 9, 36, 100
8, 31695, Note_on_c, 9, 36, 0
8, 31800, Note_on_c, 9, 36, 100
8, 31815, Note_on_c, 9, 36, 0
8, 31920, Note_on_c, 9, 36, 100
8, 31935, Note_on_c, 9, 36, 0
8, 31980, Note_on_c, 9, 36, 100
8, 31995, Note_on_c, 9, 36, 0
8, 32040, Note_on_c, 9, 36, 100
8, 32055, Note_on_c, 9, 36, 0
8, 32160, Note_on_c, 9, 36, 100
8, 32175, Note_on_c, 9, 36, 0
8, 32280, Note_on_c, 9, 36, 100
8, 32295, Note_on_c, 9, 36, 0
8, 32400, Note_on_c, 9, 36, 100
8, 32415, Note_on_c, 9, 36, 0
8, 32460, Note_on_c, 9, 36, 100
8, 32475, Note_on_c, 9, 36, 0
8, 32520, Note_on_c, 9, 36, 100
8, 32535, Note_on_c, 9, 36, 0
8, 32640, Note_on_c, 9, 36, 100
8, 32655, Note_on_c, 9, 36, 0
8, 32760, Note_on_c, 9, 36, 100
8, 32775, Note_on_c, 9, 36, 0
8, 32880, Note_on_c, 9, 36, 100
8, 32895, Note_on_c, 9, 36, 0
8, 32940, Note_on_c, 9, 36, 100
8, 32955, Note_on_c, 9, 36, 0
8, 33000, Note_on_c, 9, 36, 100
8, 33015, Note_on_c, 9, 36, 0
8, 33120, Note_on_c, 9, 36, 100
8, 33135, Note_on_c, 9, 36, 0
8, 33240, Note_on_c, 9, 36, 100
8, 33255, Note_on_c, 9, 36, 0
8, 33360, Note_on_c, 9, 36, 100
8, 33375, Note_on_c, 9, 36, 0
8, 33420, Note_on_c, 9, 36, 100
8, 33435, Note_on_c, 9, 36, 0
8, 33480, Note_on_c, 9, 36, 100
8, 33495, Note_on_c, 9, 36, 0
8, 33600, Note_on_c, 9, 36, 100
8, 33615, Note_on_c, 9, 36, 0
8, 33720, Note_on_c, 9, 36, 100
8, 33735, Note_on_c, 9, 36, 0
8, 33840, Note_on_c, 9, 36, 100
8, 33855, Note_on_c, 9, 36, 0
8, 33900, Note_on_c, 9, 36, 100
8, 33915, Note_on_c, 9, 36, 0
8, 33960, Note_on_c, 9, 36, 100
8, 33975, Note_on_c, 9, 36, 0
8, 34080, Note_on_c, 9, 36, 100
8, 34095, Note_on_c, 9, 36, 0
8, 34200, Note_on_c, 9, 36, 100
8, 34215, Note_on_c, 9, 36, 0
8, 34320, Note_on_c, 9, 36, 100
8, 34335, Note_on_c, 9, 36, 0
8, 34380, Note_on_c, 9, 36, 100
8, 34395, Note_on_c, 9, 36, 0
8, 34440, Note_on_c, 9, 36, 100
8, 34455, Note_on_c, 9, 36, 0
8, 34560, Note_on_c, 9, 36, 100
8, 34575, Note_on_c, 9, 36, 0
8, 34680, Note_on_c, 9, 36, 100
8, 34695, Note_on_c, 9, 36, 0
8, 34800, Note_on_c, 9, 36, 100
8, 34815, Note_on_c, 9, 36, 0
8, 34860, Note_on_c, 9, 36, 100
8, 34875, Note_on_c, 9, 36, 0
8, 34920, Note_on_c, 9, 36, 100
8, 34935, Note_on_c, 9, 36, 0
8, 35040, Note_on_c, 9, 36, 100
8, 35055, Note_on_c, 9, 36, 0
8, 35160, Note_on_c, 9, 36, 100
8, 35175, Note_on_c, 9, 36, 0
8, 35280, Note_on_c, 9, 36, 100
8, 35295, Note_on_c, 9, 36, 0
8, 35340, Note_on_c, 9, 36, 100
8, 35355, Note_on_c, 9, 36, 0
8, 35400, Note_on_c, 9, 36, 100
8, 35415, Note_on_c, 9, 36, 0
8, 35520, Note_on_c, 9, 36, 100
8, 35535, Note_on_c, 9, 36, 0
8, 35640, Note_on_c, 9, 36, 100
8, 35655, Note_on_c, 9, 36, 0
8, 35760, Note_on_c, 9, 36, 100
8, 35775, Note_on_c, 9, 36, 0
8, 35820, Note_on_c, 9, 36, 100
8, 35835, Note_on_c, 9, 36, 0
8, 35880, Note_on_c, 9, 36, 100
8, 35895, Note_on_c, 9, 36, 0
8, 36000, Note_on_c, 9, 36, 100
8, 36015, Note_on_c, 9, 36, 0
8, 36120, Note_on_c, 9, 36, 100
8, 36135, Note_on_c, 9, 36, 0
8, 36240, Note_on_c, 9, 36, 100
8, 36255, Note_on_c, 9, 36, 0
8, 36300, Note_on_c, 9, 36, 100
8, 36315, Note_on_c, 9, 36, 0
8, 36360, Note_on_c, 9, 36, 100
8, 36375, Note_on_c, 9, 36, 0
8, 36480, Note_on_c, 9, 36, 100
8, 36495, Note_on_c, 9, 36, 0
8, 36600, Note_on_c, 9, 36, 100
8, 36615, Note_on_c, 9, 36, 0
8, 36720, Note_on_c, 9, 36, 100
8, 36735, Note_on_c, 9, 36, 0
8, 36780, Note_on_c, 9, 36, 100
8, 36795, Note_on_c, 9, 36, 0
8, 36840, Note_on_c, 9, 36, 100
8, 36855, Note_on_c, 9, 36, 0
8, 36960, Note_on_c, 9, 36, 100
8, 36975, Note_on_c, 9, 36, 0
8, 37080, Note_on_c, 9, 36, 100
8, 37095, Note_on_c, 9, 36, 0
8, 37200, Note_on_c, 9, 36, 100
8, 37215, Note_on_c, 9, 36, 0
8, 37260, Note_on_c, 9, 36, 100
8, 37275, Note_on_c, 9, 36, 0
8, 37320, Note_on_c, 9, 36, 100
8, 37335, Note_on_c, 9, 36, 0
8, 37440, Note_on_c, 9, 36, 100
8, 37455, Note_on_c, 9, 36, 0
8, 37920, Note_on_c, 9, 36, 100
8, 37935, Note_on_c, 9, 36, 0
8, 38400, Note_on_c, 9, 36, 100
8, 38415, Note_on_c, 9, 36, 0
8, 38520, Note_on_c, 9, 36, 100
8, 38535, Note_on_c, 9, 36, 0
8, 38640, Note_on_c, 9, 36, 100
8, 38655, Note_on_c, 9, 36, 0
8, 38700, Note_on_c, 9, 36, 100
8, 38715, Note_on_c, 9, 36, 0
8, 38760, Note_on_c, 9, 36, 100
8, 38775, Note_on_c, 9, 36, 0
8, 38880, Note_on_c, 9, 36, 100
8, 38895, Note_on_c, 9, 36, 0
8, 39000, Note_on_c, 9, 36, 100
8, 39015, Note_on_c, 9, 36, 0
8, 39120, Note_on_c, 9, 36, 100
8, 39135, Note_on_c, 9, 36, 0
8, 39180, Note_on_c, 9, 36, 100
8, 39195, Note_on_c, 9, 36, 0
8, 39240, Note_on_c, 9, 36, 100
8, 39255, Note_on_c, 9, 36, 0
8, 39360, Note_on_c, 9, 36, 100
8, 39375, Note_on_c, 9, 36, 0
8, 39480, Note_on_c, 9, 36, 100
8, 39495, Note_on_c, 9, 36, 0
8, 39600, Note_on_c, 9, 36, 100
8, 39615, Note_on_c, 9, 36, 0
8, 39660, Note_on_c, 9, 36, 100
8, 39675, Note_on_c, 9, 36, 0
8, 39720, Note_on_c, 9, 36, 100
8, 39735, Note_on_c, 9, 36, 0
8, 39840, Note_on_c, 9, 36, 100
8, 39855, Note_on_c, 9, 36, 0
8, 39960, Note_on_c, 9, 36, 100
8, 39975, Note_on_c, 9, 36, 0
8, 40080, Note_on_c, 9, 36, 100
8, 40095, Note_on_c, 9, 36, 0
8, 40140, Note_on_c, 9, 36, 100
8, 40155, Note_on_c, 9, 36, 0
8, 40200, Note_on_c, 9, 36, 100
8, 40215, Note_on_c, 9, 36, 0
8, 40320, Note_on_c, 9, 36, 100
8, 40335, Note_on_c, 9, 36, 0
8, 40440, Note_on_c, 9, 36, 100
8, 40455, Note_on_c, 9, 36, 0
8, 40560, Note_on_c, 9, 36, 100
8, 40575, Note_on_c, 9, 36, 0
8, 40620, Note_on_c, 9, 36, 100
8, 40635, Note_on_c, 9, 36, 0
8, 40680, Note_on_c, 9, 36, 100
8, 40695, Note_on_c, 9, 36, 0
8, 40800, Note_on_c, 9, 36, 100
8, 40815, Note_on_c, 9, 36, 0
8, 40920, Note_on_c, 9, 36, 100
8, 40935, Note_on_c, 9, 36, 0
8, 41040, Note_on_c, 9, 36, 100
8, 41055, Note_on_c, 9, 36, 0
8, 41100, Note_on_c, 9, 36, 100
8, 41115, Note_on_c, 9, 36, 0
8, 41160, Note_on_c, 9, 36, 100
8, 41175, Note_on_c, 9, 36, 0
8, 41280, Note_on_c, 9, 36, 100
8, 41295, Note_on_c, 9, 36, 0
8, 41400, Note_on_c, 9, 36, 100
8, 41415, Note_on_c, 9, 36, 0
8, 41520, Note_on_c, 9, 36, 100
8, 41535, Note_on_c, 9, 36, 0
8, 41580, Note_on_c, 9, 36, 100
8, 41595, Note_on_c, 9, 36, 0
8, 41640, Note_on_c, 9, 36, 100
8, 41655, Note_on_c, 9, 36, 0
8, 41760, Note_on_c, 9, 36, 100
8, 41775, Note_on_c, 9, 36, 0
8, 41880, Note_on_c, 9, 36, 100
8, 41895, Note_on_c, 9, 36, 0
8, 42000, Note_on_c, 9, 36, 100
8, 42015, Note_on_c, 9, 36, 0
8, 42060, Note_on_c, 9, 36, 100
8, 42075, Note_on_c, 9, 36, 0
8, 42120, Note_on_c, 9, 36, 100
8, 42135, Note_on_c, 9, 36, 0
8, 42240, Note_on_c, 9, 36, 100
8, 42255, Note_on_c, 9, 36, 0
8, 42360, Note_on_c, 9, 36, 100
8, 42375, Note_on_c, 9, 36, 0
8, 42480, Note_on_c, 9, 36, 100
8, 42495, Note_on_c, 9, 36, 0
8, 42540, Note_on_c, 9, 36, 100
8, 42555, Note_on_c, 9, 36, 0
8, 42600, Note_on_c, 9, 36, 100
8, 42615, Note_on_c, 9, 36, 0
8, 42720, Note_on_c, 9, 36, 100
8, 42735, Note_on_c, 9, 36, 0
8, 42840, Note_on_c, 9, 36, 100
8, 42855, Note_on_c, 9, 36, 0
8, 42960, Note_on_c, 9, 36, 100
8, 42975, Note_on_c, 9, 36, 0
8, 43020, Note_on_c, 9, 36, 100
8, 43035, Note_on_c, 9, 36, 0
8, 43080, Note_on_c, 9, 36, 100
8, 43095, Note_on_c, 9, 36, 0
8, 43200, Note_on_c, 9, 36, 100
8, 43215, Note_on_c, 9, 36, 0
8, 43320, Note_on_c, 9, 36, 100
8, 43335, Note_on_c, 9, 36, 0
8, 43440, Note_on_c, 9, 36, 100
8, 43455, Note_on_c, 9, 36, 0
8, 43500, Note_on_c, 9, 36, 100
8, 43515, Note_on_c, 9, 36, 0
8, 43560, Note_on_c, 9, 36, 100
8, 43575, Note_on_c, 9, 36, 0
8, 43680, Note_on_c, 9, 36, 100
8, 43695, Note_on_c, 9, 36, 0
8, 43800, Note_on_c, 9, 36, 100
8, 43815, Note_on_c, 9, 36, 0
8, 43920, Note_on_c, 9, 36, 100
8, 43935, Note_on_c, 9, 36, 0
8, 43980, Note_on_c, 9, 36, 100
8, 43995, Note_on_c, 9, 36, 0
8, 44040, Note_on_c, 9, 36, 100
8, 44055, Note_on_c, 9, 36, 0
8, 44160, Note_on_c, 9, 36, 100
8, 44175, Note_on_c, 9, 36, 0
8, 44280, Note_on_c, 9, 36, 100
8, 44295, Note_on_c, 9, 36, 0
8, 44400, Note_on_c, 9, 36, 100
8, 44415, Note_on_c, 9, 36, 0
8, 44460, Note_on_c, 9, 36, 100
8, 44475, Note_on_c, 9, 36, 0
8, 44520, Note_on_c, 9, 36, 100
8, 44535, Note_on_c, 9, 36, 0
8, 44640, Note_on_c, 9, 36, 100
8, 44655, Note_on_c, 9, 36, 0
8, 44760, Note_on_c, 9, 36, 100
8, 44775, Note_on_c, 9, 36, 0
8, 44880, Note_on_c, 9, 36, 100
8, 44895, Note_on_c, 9, 36, 0
8, 44940, Note_on_c, 9, 36, 100
8, 44955, Note_on_c, 9, 36, 0
8, 45000, Note_on_c, 9, 36, 100
8, 45015, Note_on_c, 9, 36, 0
8, 45120, Note_on_c, 9, 36, 100
8, 45135, Note_on_c, 9, 36, 0
8, 45600, Note_on_c, 9, 36, 100
8, 45615, Note_on_c, 9, 36, 0
8, 46080, Note_on_c, 9, 36, 100
8, 46095, Note_on_c, 9, 36, 0
8, 46200, Note_on_c, 9, 36, 100
8, 46215, Note_on_c, 9, 36, 0
8, 46320, Note_on_c, 9, 36, 100
8, 46335, Note_on_c, 9, 36, 0
8, 46380, Note_on_c, 9, 36, 100
8, 46395, Note_on_c, 9, 36, 0
8, 46440, Note_on_c, 9, 36, 100
8, 46455, Note_on_c, 9, 36, 0
8, 46560, Note_on_c, 9, 36, 100
8, 46575, Note_on_c, 9, 36, 0
8, 46680, Note_on_c, 9, 36, 100
8, 46695, Note_on_c, 9, 36, 0
8, 46800, Note_on_c, 9, 36, 100
8, 46815, Note_on_c, 9, 36, 0
8, 46860, Note_on_c, 9, 36, 100
8, 46875, Note_on_c, 9, 36, 0
8, 46920, Note_on_c, 9, 36, 100
8, 46935, Note_on_c, 9, 36, 0
8, 47040, Note_on_c, 9, 36, 100
8, 47055, Note_on_c, 9, 36, 0
8, 47160, Note_on_c, 9, 36, 100
8, 47175, Note_on_c, 9, 36, 0
8, 47280, Note_on_c, 9, 36, 100
8, 47295, Note_on_c, 9, 36, 0
8, 47340, Note_on_c, 9, 36, 100
8, 47355, Note_on_c, 9, 36, 0
8, 47400, Note_on_c, 9, 36, 100
8, 47415, Note_on_c, 9, 36, 0
8, 47520, Note_on_c, 9, 36, 100
8, 47535, Note_on_c, 9, 36, 0
8, 47640, Note_on_c, 9, 36, 100
8, 47655, Note_on_c, 9, 36, 0
8, 47760, Note_on_c, 9, 36, 100
8, 47775, Note_on_c, 9, 36, 0
8, 47820, Note_on_c, 9, 36, 100
8, 47835, Note_on_c, 9, 36, 0
8, 47880, Note_on_c, 9, 36, 100
8, 47895, Note_on_c, 9, 36, 0
8, 48000, Note_on_c, 9, 36, 100
8, 48015, Note_on_c, 9, 36, 0
8, 48120, Note_on_c, 9, 36, 100
8, 48135, Note_on_c, 9, 36, 0
8, 48240, Note_on_c, 9, 36, 100
8, 48255, Note_on_c, 9, 36, 0
8, 48300, Note_on_c, 9, 36, 100
8, 48315, Note_on_c, 9, 36, 0
8, 48360, Note_on_c, 9, 36, 100
8, 48375, Note_on_c, 9, 36, 0
8, 48480, Note_on_c, 9, 36, 100
8, 48495, Note_on_c, 9, 36, 0
8, 48600, Note_on_c, 9, 36, 100
8, 48615, Note_on_c, 9, 36, 0
8, 48720, Note_on_c, 9, 36, 100
8, 48735, Note_on_c, 9, 36, 0
8, 48780, Note_on_c, 9, 36, 100
8, 48795, Note_on_c, 9, 36, 0
8, 48840, Note_on_c, 9, 36, 100
8, 48855, Note_on_c, 9, 36, 0
8, 48960, Note_on_c, 9, 36, 100
8, 48975, Note_on_c, 9, 36, 0
8, 49080, Note_on_c, 9, 36, 100
8, 49095, Note_on_c, 9, 36, 0
8, 49200, Note_on_c, 9, 36, 100
8, 49215, Note_on_c, 9, 36, 0
8, 49260, Note_on_c, 9, 36, 100
8, 49275, Note_on_c, 9, 36, 0
8, 49320, Note_on_c, 9, 36, 100
8, 49335, Note_on_c, 9, 36, 0
8, 49440, Note_on_c, 9, 36, 100
8, 49455, Note_on_c, 9, 36, 0
8, 49560, Note_on_c, 9, 36, 100
8, 49575, Note_on_c, 9, 36, 0
8, 49680, Note_on_c, 9, 36, 100
8, 49695, Note_on_c, 9, 36, 0
8, 49740, Note_on_c, 9, 36, 100
8, 49755, Note_on_c, 9, 36, 0
8, 49800, Note_on_c, 9, 36, 100
8, 49815, Note_on_c, 9, 36, 0
8, 49920, Note_on_c, 9, 36, 100
8, 49935, Note_on_c, 9, 36, 0
8, 50040, Note_on_c, 9, 36, 100
8, 50055, Note_on_c, 9, 36, 0
8, 50160, Note_on_c, 9, 36, 100
8, 50175, Note_on_c, 9, 36, 0
8, 50220, Note_on_c, 9, 36, 100
8, 50235, Note_on_c, 9, 36, 0
8, 50280, Note_on_c, 9, 36, 100
8, 50295, Note_on_c, 9, 36, 0
8, 50400, Note_on_c, 9, 36, 100
8, 50415, Note_on_c, 9, 36, 0
8, 50520, Note_on_c, 9, 36, 100
8, 50535, Note_on_c, 9, 36, 0
8, 50640, Note_on_c, 9, 36, 100
8, 50655, Note_on_c, 9, 36, 0
8, 50700, Note_on_c, 9, 36, 100
8, 50715, Note_on_c, 9, 36, 0
8, 50760, Note_on_c, 9, 36, 100
8, 50775, Note_on_c, 9, 36, 0
8, 50880, Note_on_c, 9, 36, 100
8, 50895, Note_on_c, 9, 36, 0
8, 51000, Note_on_c, 9, 36, 100
8, 51015, Note_on_c, 9, 36, 0
8, 51120, Note_on_c, 9, 36, 100
8, 51135, Note_on_c, 9, 36, 0
8, 51180, Note_on_c, 9, 36, 100
8, 51195, Note_on_c, 9, 36, 0
8, 51240, Note_on_c, 9, 36, 100
8, 51255, Note_on_c, 9, 36, 0
8, 51360, Note_on_c, 9, 36, 100
8, 51375, Note_on_c, 9, 36, 0
8, 51480, Note_on_c, 9, 36, 100
8, 51495, Note_on_c, 9, 36, 0
8, 51600, Note_on_c, 9, 36, 100
8, 51615, Note_on_c, 9, 36, 0
8, 51660, Note_on_c, 9, 36, 100
8, 51675, Note_on_c, 9, 36, 0
8, 51720, Note_on_c, 9, 36, 100
8, 51735, Note_on_c, 9, 36, 0
8, 51840, Note_on_c, 9, 36, 100
8, 51855, Note_on_c, 9, 36, 0
8, 51960, Note_on_c, 9, 36, 100
8, 51975, Note_on_c, 9, 36, 0
8, 52080, Note_on_c, 9, 36, 100
8, 52095, Note_on_c, 9, 36, 0
8, 52140, Note_on_c, 9, 36, 100
8, 52155, Note_on_c, 9, 36, 0
8, 52200, Note_on_c, 9, 36, 100
8, 52215, Note_on_c, 9, 36, 0
8, 52320, Note_on_c, 9, 36, 100
8, 52335, Note_on_c, 9, 36, 0
8, 52440, Note_on_c, 9, 36, 100
8, 52455, Note_on_c, 9, 36, 0
8, 52560, Note_on_c, 9, 36, 100
8, 52575, Note_on_c, 9, 36, 0
8, 52620, Note_on_c, 9, 36, 100
8, 52635, Note_on_c, 9, 36, 0
8, 52680, Note_on_c, 9, 36, 100
8, 52695, Note_on_c, 9, 36, 0
8, 52800, Note_on_c, 9, 36, 100
8, 52815, Note_on_c, 9, 36, 0
8, 52920, Note_on_c, 9, 36, 100
8, 52935, Note_on_c, 9, 36, 0
8, 53040, Note_on_c, 9, 36, 100
8, 53055, Note_on_c, 9, 36, 0
8, 53100, Note_on_c, 9, 36, 100
8, 53115, Note_on_c, 9, 36, 0
8, 53160, Note_on_c, 9, 36, 100
8, 53175, Note_on_c, 9, 36, 0
8, 53280, Note_on_c, 9, 36, 100
8, 53295, Note_on_c, 9, 36, 0
8, 53400, Note_on_c, 9, 36, 100
8, 53415, Note_on_c, 9, 36, 0
8, 53520, Note_on_c, 9, 36, 100
8, 53535, Note_on_c, 9, 36, 0
8, 53580, Note_on_c, 9, 36, 100
8, 53595, Note_on_c, 9, 36, 0
8, 53640, Note_on_c, 9, 36, 100
8, 53655, Note_on_c, 9, 36, 0
8, 53760, Note_on_c, 9, 36, 100
8, 53775, Note_on_c, 9, 36, 0
8, 53880, Note_on_c, 9, 36, 100
8, 53895, Note_on_c, 9, 36, 0
8, 54000, Note_on_c, 9, 36, 100
8, 54015, Note_on_c, 9, 36, 0
8, 54060, Note_on_c, 9, 36, 100
8, 54075, Note_on_c, 9, 36, 0
8, 54120, Note_on_c, 9, 36, 100
8, 54135, Note_on_c, 9, 36, 0
8, 54240, Note_on_c, 9, 36, 100
8, 54255, Note_on_c, 9, 36, 0
8, 54360, Note_on_c, 9, 36, 100
8, 54375, Note_on_c, 9, 36, 0
8, 54480, Note_on_c, 9, 36, 100
8, 54495, Note_on_c, 9, 36, 0
8, 54540, Note_on_c, 9, 36, 100
8, 54555, Note_on_c, 9, 36, 0
8, 54600, Note_on_c, 9, 36, 100
8, 54615, Note_on_c, 9, 36, 0
8, 54720, Note_on_c, 9, 36, 100
8, 54735, Note_on_c, 9, 36, 0
8, 54840, Note_on_c, 9, 36, 100
8, 54855, Note_on_c, 9, 36, 0
8, 54960, Note_on_c, 9, 36, 100
8, 54975, Note_on_c, 9, 36, 0
8, 55020, Note_on_c, 9, 36, 100
8, 55035, Note_on_c, 9, 36, 0
8, 55080, Note_on_c, 9, 36, 100
8, 55095, Note_on_c, 9, 36, 0
8, 55200, Note_on_c, 9, 36, 100
8, 55215, Note_on_c, 9, 36, 0
8, 55320, Note_on_c, 9, 36, 100
8, 55335, Note_on_c, 9, 36, 0
8, 55440, Note_on_c, 9, 36, 100
8, 55455, Note_on_c, 9, 36, 0
8, 55500, Note_on_c, 9, 36, 100
8, 55515, Note_on_c, 9, 36, 0
8, 55560, Note_on_c, 9, 36, 100
8, 55575, Note_on_c, 9, 36, 0
8, 55680, Note_on_c, 9, 36, 100
8, 55695, Note_on_c, 9, 36, 0
8, 55800, Note_on_c, 9, 36, 100
8, 55815, Note_on_c, 9, 36, 0
8, 55920, Note_on_c, 9, 36, 100
8, 55935, Note_on_c, 9, 36, 0
8, 55980, Note_on_c, 9, 36, 100
8, 55995, Note_on_c, 9, 36, 0
8, 56040, Note_on_c, 9, 36, 100
8, 56055, Note_on_c, 9, 36, 0
8, 56160, Note_on_c, 9, 36, 100
8, 56175, Note_on_c, 9, 36, 0
8, 56280, Note_on_c, 9, 36, 100
8, 56295, Note_on_c, 9, 36, 0
8, 56400, Note_on_c, 9, 36, 100
8, 56415, Note_on_c, 9, 36, 0
8, 56460, Note_on_c, 9, 36, 100
8, 56475, Note_on_c, 9, 36, 0
8, 56520, Note_on_c, 9, 36, 100
8, 56535, Note_on_c, 9, 36, 0
8, 56640, Note_on_c, 9, 36, 100
8, 56655, Note_on_c, 9, 36, 0
8, 56760, Note_on_c, 9, 36, 100
8, 56775, Note_on_c, 9, 36, 0
8, 56880, Note_on_c, 9, 36, 100
8, 56895, Note_on_c, 9, 36, 0
8, 56940, Note_on_c, 9, 36, 100
8, 56955, Note_on_c, 9, 36, 0
8, 57000, Note_on_c, 9, 36, 100
8, 57015, Note_on_c, 9, 36, 0
8, 57120, Note_on_c, 9, 36, 100
8, 57135, Note_on_c, 9, 36, 0
8, 57240, Note_on_c, 9, 36, 100
8, 57255, Note_on_c, 9, 36, 0
8, 57360, Note_on_c, 9, 36, 100
8, 57375, Note_on_c, 9, 36, 0
8, 57420, Note_on_c, 9, 36, 100
8, 57435, Note_on_c, 9, 36, 0
8, 57480, Note_on_c, 9, 36, 100
8, 57495, Note_on_c, 9, 36, 0
8, 57600, Note_on_c, 9, 36, 100
8, 57615, Note_on_c, 9, 36, 0
8, 57720, Note_on_c, 9, 36, 100
8, 57735, Note_on_c, 9, 36, 0
8, 57840, Note_on_c, 9, 36, 100
8, 57855, Note_on_c, 9, 36, 0
8, 57900, Note_on_c, 9, 36, 100
8, 57915, Note_on_c, 9, 36, 0
8, 57960, Note_on_c, 9, 36, 100
8, 57975, Note_on_c, 9, 36, 0
8, 58080, Note_on_c, 9, 36, 100
8, 58095, Note_on_c, 9, 36, 0
8, 58200, Note_on_c, 9, 36, 100
8, 58215, Note_on_c, 9, 36, 0
8, 58320, Note_on_c, 9, 36, 100
8, 58335, Note_on_c, 9, 36, 0
8, 58380, Note_on_c, 9, 36, 100
8, 58395, Note_on_c, 9, 36, 0
8, 58440, Note_on_c, 9, 36, 100
8, 58455, Note_on_c, 9, 36, 0
8, 58560, Note_on_c, 9, 36, 100
8, 58575, Note_on_c, 9, 36, 0
8, 58680, Note_on_c, 9, 36, 100
8, 58695, Note_on_c, 9, 36, 0
8, 58800, Note_on_c, 9, 36, 100
8, 58815, Note_on_c, 9, 36, 0
8, 58860, Note_on_c, 9, 36, 100
8, 58875, Note_on_c, 9, 36, 0
8, 58920, Note_on_c, 9, 36, 100
8, 58935, Note_on_c, 9, 36, 0
8, 59040, Note_on_c, 9, 36, 100
8, 59055, Note_on_c, 9, 36, 0
8, 59160, Note_on_c, 9, 36, 100
8, 59175, Note_on_c, 9, 36, 0
8, 59280, Note_on_c, 9, 36, 100
8, 59295, Note_on_c, 9, 36, 0
8, 59340, Note_on_c, 9, 36, 100
8, 59355, Note_on_c, 9, 36, 0
8, 59400, Note_on_c, 9, 36, 100
8, 59415, Note_on_c, 9, 36, 0
8, 59520, Note_on_c, 9, 36, 100
8, 59535, Note_on_c, 9, 36, 0
8, 59640, Note_on_c, 9, 36, 100
8, 59655, Note_on_c, 9, 36, 0
8, 59760, Note_on_c, 9, 36, 100
8, 59775, Note_on_c, 9, 36, 0
8, 59820, Note_on_c, 9, 36, 100
8, 59835, Note_on_c, 9, 36, 0
8, 59880, Note_on_c, 9, 36, 100
8, 59895, Note_on_c, 9, 36, 0
8, 60000, Note_on_c, 9, 36, 100
8, 60015, Note_on_c, 9, 36, 0
8, 60120, Note_on_c, 9, 36, 100
8, 60135, Note_on_c, 9, 36, 0
8, 60240, Note_on_c, 9, 36, 100
8, 60255, Note_on_c, 9, 36, 0
8, 60300, Note_on_c, 9, 36, 100
8, 60315, Note_on_c, 9, 36, 0
8, 60360, Note_on_c, 9, 36, 100
8, 60375, Note_on_c, 9, 36, 0
8, 60480, Note_on_c, 9, 36, 100
8, 60495, Note_on_c, 9, 36, 0
8, 60600, Note_on_c, 9, 36, 100
8, 60615, Note_on_c, 9, 36, 0
8, 60720, Note_on_c, 9, 36, 100
8, 60735, Note_on_c, 9, 36, 0
8, 60780, Note_on_c, 9, 36, 100
8, 60795, Note_on_c, 9, 36, 0
8, 60840, Note_on_c, 9, 36, 100
8, 60855, Note_on_c, 9, 36, 0
8, 60960, Note_on_c, 9, 36, 100
8, 60975, Note_on_c, 9, 36, 0
8, 61080, Note_on_c, 9, 36, 100
8, 61095, Note_on_c, 9, 36, 0
8, 61200, Note_on_c, 9, 36, 100
8, 61215, Note_on_c, 9, 36, 0
8, 61260, Note_on_c, 9, 36, 100
8, 61275, Note_on_c, 9, 36, 0
8, 61320, Note_on_c, 9, 36, 100
8, 61335, Note_on_c, 9, 36, 0
8, 61440, Note_on_c, 9, 36, 100
8, 61455, Note_on_c, 9, 36, 0
8, 61560, Note_on_c, 9, 36, 100
8, 61575, Note_on_c, 9, 36, 0
8, 61680, Note_on_c, 9, 36, 100
8, 61695, Note_on_c, 9, 36, 0
8, 61740, Note_on_c, 9, 36, 100
8, 61755, Note_on_c, 9, 36, 0
8, 61800, Note_on_c, 9, 36, 100
8, 61815, Note_on_c, 9, 36, 0
8, 61920, Note_on_c, 9, 36, 100
8, 61935, Note_on_c, 9, 36, 0
8, 62040, Note_on_c, 9, 36, 100
8, 62055, Note_on_c, 9, 36, 0
8, 62160, Note_on_c, 9, 36, 100
8, 62175, Note_on_c, 9, 36, 0
8, 62220, Note_on_c, 9, 36, 100
8, 62235, Note_on_c, 9, 36, 0
8, 62280, Note_on_c, 9, 36, 100
8, 62295, Note_on_c, 9, 36, 0
8, 62400, Note_on_c, 9, 36, 100
8, 62415, Note_on_c, 9, 36, 0
8, 62520, Note_on_c, 9, 36, 100
8, 62535, Note_on_c, 9, 36, 0
8, 62640, Note_on_c, 9, 36, 100
8, 62655, Note_on_c, 9, 36, 0
8, 62700, Note_on_c, 9, 36, 100
8, 62715, Note_on_c, 9, 36, 0
8, 62760, Note_on_c, 9, 36, 100
8, 62775, Note_on_c, 9, 36, 0
8, 62880, Note_on_c, 9, 36, 100
8, 62895, Note_on_c, 9, 36, 0
8, 63000, Note_on_c, 9, 36, 100
8, 63015, Note_on_c, 9, 36, 0
8, 63120, Note_on_c, 9, 36, 100
8, 63135, Note_on_c, 9, 36, 0
8, 63180, Note_on_c, 9, 36, 100
8, 63195, Note_on_c, 9, 36, 0
8, 63240, Note_on_c, 9, 36, 100
8, 63255, Note_on_c, 9, 36, 0
8, 63360, Note_on_c, 9, 36, 100
8, 63375, Note_on_c, 9, 36, 0
8, 63375, End_track
0, 0, End_of_file
