0, 0, Header, 1, 15, 192
1, 0, Start_track
1, 0, Time_signature, 4, 2, 24, 8
1, 0, Tempo, 461538
1, 0, Key_signature, 0, "major"
1, 0, End_track
2, 0, Start_track
2, 0, MIDI_port, 0
2, 0, Title_t, "===================="
2, 0, Program_c, 0, 0
2, 0, Control_c, 0, 7, 96
2, 0, Control_c, 0, 10, 64
2, 0, Pitch_bend_c, 0, 8192
2, 0, Control_c, 0, 1, 0
2, 0, Control_c, 0, 64, 0
2, 0, End_track
3, 0, Start_track
3, 0, MIDI_port, 0
3, 0, Title_t, "The Clash's         "
3, 0, Program_c, 1, 24
3, 0, Control_c, 1, 7, 96
3, 0, Control_c, 1, 10, 64
3, 0, Control_c, 1, 1, 0
3, 0, Pitch_bend_c, 1, 8192
3, 0, Control_c, 1, 64, 0
3, 24, Control_c, 1, 1, 15
3, 48, Control_c, 1, 1, 31
3, 72, Control_c, 1, 1, 47
3, 96, Control_c, 1, 1, 63
3, 120, Control_c, 1, 1, 79
3, 144, Control_c, 1, 1, 95
3, 168, Control_c, 1, 1, 111
3, 192, Control_c, 1, 1, 127
3, 576, Note_on_c, 1, 76, 79
3, 640, Note_off_c, 1, 76, 64
3, 672, Note_on_c, 1, 69, 79
3, 736, Note_off_c, 1, 69, 64
3, 768, Note_on_c, 1, 69, 79
3, 896, Note_off_c, 1, 69, 64
3, 960, Note_on_c, 1, 69, 79
3, 1024, Note_off_c, 1, 69, 64
3, 1056, Note_on_c, 1, 69, 79
3, 1120, Note_off_c, 1, 69, 64
3, 1152, Note_on_c, 1, 72, 79
3, 1216, Note_off_c, 1, 72, 64
3, 1248, Note_on_c, 1, 69, 79
3, 1312, Note_off_c, 1, 69, 64
3, 1344, Note_on_c, 1, 69, 79
3, 1472, Note_off_c, 1, 69, 64
3, 2016, Note_on_c, 1, 72, 79
3, 2080, Note_off_c, 1, 72, 64
3, 2112, Note_on_c, 1, 69, 79
3, 2176, Note_off_c, 1, 69, 64
3, 2208, Note_on_c, 1, 69, 79
3, 2272, Note_off_c, 1, 69, 64
3, 2304, Note_on_c, 1, 69, 79
3, 2368, Note_off_c, 1, 69, 64
3, 2400, Note_on_c, 1, 69, 79
3, 2464, Note_off_c, 1, 69, 64
3, 2496, Note_on_c, 1, 69, 79
3, 2560, Note_off_c, 1, 69, 64
3, 2592, Note_on_c, 1, 69, 79
3, 2656, Note_off_c, 1, 69, 64
3, 2784, Note_on_c, 1, 76, 79
3, 2976, Note_off_c, 1, 76, 64
3, 2976, Note_on_c, 1, 69, 79
3, 3040, Note_off_c, 1, 69, 64
3, 3744, Note_on_c, 1, 69, 79
3, 3808, Note_off_c, 1, 69, 64
3, 3840, Note_on_c, 1, 69, 79
3, 3968, Note_off_c, 1, 69, 64
3, 4032, Note_on_c, 1, 69, 79
3, 4096, Note_off_c, 1, 69, 64
3, 4128, Note_on_c, 1, 69, 79
3, 4192, Note_off_c, 1, 69, 64
3, 4224, Note_on_c, 1, 72, 79
3, 4288, Note_off_c, 1, 72, 64
3, 4320, Note_on_c, 1, 69, 79
3, 4384, Note_off_c, 1, 69, 64
3, 4416, Note_on_c, 1, 69, 79
3, 4512, Note_off_c, 1, 69, 64
3, 4512, Note_on_c, 1, 67, 79
3, 4608, Note_off_c, 1, 67, 64
3, 4608, Note_on_c, 1, 69, 79
3, 4672, Note_off_c, 1, 69, 64
3, 5184, Note_on_c, 1, 69, 79
3, 5248, Note_off_c, 1, 69, 64
3, 5280, Note_on_c, 1, 67, 79
3, 5344, Note_off_c, 1, 67, 64
3, 5376, Note_on_c, 1, 69, 79
3, 5440, Note_off_c, 1, 69, 64
3, 5472, Note_on_c, 1, 69, 79
3, 5536, Note_off_c, 1, 69, 64
3, 5568, Note_on_c, 1, 69, 79
3, 5632, Note_off_c, 1, 69, 64
3, 5664, Note_on_c, 1, 69, 79
3, 5728, Note_off_c, 1, 69, 64
3, 5856, Note_on_c, 1, 74, 79
3, 6048, Note_off_c, 1, 74, 64
3, 6048, Note_on_c, 1, 72, 79
3, 6144, Note_off_c, 1, 72, 64
3, 6144, Note_on_c, 1, 69, 79
3, 6208, Note_off_c, 1, 69, 64
3, 6816, Note_on_c, 1, 69, 79
3, 6880, Note_off_c, 1, 69, 64
3, 6912, Note_on_c, 1, 69, 79
3, 6976, Note_off_c, 1, 69, 64
3, 7008, Note_on_c, 1, 69, 79
3, 7072, Note_off_c, 1, 69, 64
3, 7104, Note_on_c, 1, 69, 79
3, 7168, Note_off_c, 1, 69, 64
3, 7200, Note_on_c, 1, 69, 79
3, 7264, Note_off_c, 1, 69, 64
3, 7296, Note_on_c, 1, 72, 79
3, 7360, Note_off_c, 1, 72, 64
3, 7392, Note_on_c, 1, 69, 79
3, 7456, Note_off_c, 1, 69, 64
3, 7488, Note_on_c, 1, 69, 79
3, 7616, Note_off_c, 1, 69, 64
3, 8160, Note_on_c, 1, 72, 79
3, 8224, Note_off_c, 1, 72, 64
3, 8256, Note_on_c, 1, 69, 79
3, 8320, Note_off_c, 1, 69, 64
3, 8352, Note_on_c, 1, 67, 79
3, 8416, Note_off_c, 1, 67, 64
3, 8448, Note_on_c, 1, 69, 79
3, 8512, Note_off_c, 1, 69, 64
3, 8544, Note_on_c, 1, 69, 79
3, 8608, Note_off_c, 1, 69, 64
3, 8640, Note_on_c, 1, 69, 79
3, 8704, Note_off_c, 1, 69, 64
3, 8736, Note_on_c, 1, 69, 79
3, 8800, Note_off_c, 1, 69, 64
3, 8832, Note_on_c, 1, 76, 79
3, 8928, Note_off_c, 1, 76, 64
3, 8928, Note_on_c, 1, 71, 79
3, 9024, Note_off_c, 1, 71, 64
3, 9024, Note_on_c, 1, 69, 79
3, 9344, Note_off_c, 1, 69, 64
3, 9888, Note_on_c, 1, 69, 79
3, 9952, Note_off_c, 1, 69, 64
3, 9984, Note_on_c, 1, 69, 79
3, 10048, Note_off_c, 1, 69, 64
3, 10080, Note_on_c, 1, 69, 79
3, 10144, Note_off_c, 1, 69, 64
3, 10176, Note_on_c, 1, 69, 79
3, 10240, Note_off_c, 1, 69, 64
3, 10272, Note_on_c, 1, 69, 79
3, 10336, Note_off_c, 1, 69, 64
3, 10368, Note_on_c, 1, 72, 79
3, 10432, Note_off_c, 1, 72, 64
3, 10464, Note_on_c, 1, 69, 79
3, 10688, Note_off_c, 1, 69, 64
3, 11328, Note_on_c, 1, 69, 79
3, 11392, Note_off_c, 1, 69, 64
3, 11424, Note_on_c, 1, 67, 79
3, 11488, Note_off_c, 1, 67, 64
3, 11520, Note_on_c, 1, 69, 79
3, 11584, Note_off_c, 1, 69, 64
3, 11616, Note_on_c, 1, 69, 79
3, 11680, Note_off_c, 1, 69, 64
3, 11712, Note_on_c, 1, 69, 79
3, 11776, Note_off_c, 1, 69, 64
3, 11808, Note_on_c, 1, 69, 79
3, 11872, Note_off_c, 1, 69, 64
3, 11904, Note_on_c, 1, 74, 79
3, 12000, Note_off_c, 1, 74, 64
3, 12000, Note_on_c, 1, 69, 79
3, 12192, Note_off_c, 1, 69, 64
3, 12192, Note_on_c, 1, 67, 79
3, 12288, Note_off_c, 1, 67, 64
3, 12288, Note_on_c, 1, 69, 79
3, 12540, Note_off_c, 1, 69, 64
3, 12960, Note_on_c, 1, 76, 79
3, 13024, Note_off_c, 1, 76, 64
3, 13056, Note_on_c, 1, 77, 79
3, 13152, Note_off_c, 1, 77, 64
3, 13152, Note_on_c, 1, 76, 79
3, 13248, Note_off_c, 1, 76, 64
3, 13248, Note_on_c, 1, 74, 79
3, 13312, Note_off_c, 1, 74, 64
3, 13344, Note_on_c, 1, 72, 79
3, 13408, Note_off_c, 1, 72, 64
3, 13440, Note_on_c, 1, 76, 79
3, 13568, Note_off_c, 1, 76, 64
3, 13632, Note_on_c, 1, 74, 79
3, 13728, Note_off_c, 1, 74, 64
3, 13728, Note_on_c, 1, 72, 79
3, 13792, Note_off_c, 1, 72, 64
3, 14592, Note_on_c, 1, 76, 79
3, 14656, Note_off_c, 1, 76, 64
3, 14688, Note_on_c, 1, 67, 79
3, 14752, Note_off_c, 1, 67, 64
3, 14784, Note_on_c, 1, 67, 79
3, 14848, Note_off_c, 1, 67, 64
3, 14880, Note_on_c, 1, 69, 79
3, 15040, Note_off_c, 1, 69, 64
3, 15072, Note_on_c, 1, 69, 79
3, 15232, Note_off_c, 1, 69, 64
3, 15360, Note_on_c, 1, 76, 79
3, 15424, Note_off_c, 1, 76, 64
3, 15552, Note_on_c, 1, 67, 79
3, 15616, Note_off_c, 1, 67, 64
3, 15648, Note_on_c, 1, 69, 79
3, 15808, Note_off_c, 1, 69, 64
3, 15840, Note_on_c, 1, 69, 79
3, 15904, Note_off_c, 1, 69, 64
3, 16032, Note_on_c, 1, 76, 79
3, 16096, Note_off_c, 1, 76, 64
3, 16128, Note_on_c, 1, 77, 79
3, 16224, Note_off_c, 1, 77, 64
3, 16224, Note_on_c, 1, 76, 79
3, 16320, Note_off_c, 1, 76, 64
3, 16320, Note_on_c, 1, 74, 79
3, 16384, Note_off_c, 1, 74, 64
3, 16416, Note_on_c, 1, 72, 79
3, 16480, Note_off_c, 1, 72, 64
3, 16512, Note_on_c, 1, 76, 79
3, 16640, Note_off_c, 1, 76, 64
3, 16704, Note_on_c, 1, 74, 79
3, 16800, Note_off_c, 1, 74, 64
3, 16800, Note_on_c, 1, 72, 79
3, 16864, Note_off_c, 1, 72, 64
3, 17664, Note_on_c, 1, 76, 79
3, 17728, Note_off_c, 1, 76, 64
3, 17760, Note_on_c, 1, 67, 79
3, 17824, Note_off_c, 1, 67, 64
3, 17856, Note_on_c, 1, 67, 79
3, 17920, Note_off_c, 1, 67, 64
3, 17952, Note_on_c, 1, 69, 79
3, 18112, Note_off_c, 1, 69, 64
3, 18144, Note_on_c, 1, 69, 79
3, 18304, Note_off_c, 1, 69, 64
3, 18432, Note_on_c, 1, 76, 79
3, 18496, Note_off_c, 1, 76, 64
3, 18624, Note_on_c, 1, 67, 79
3, 18688, Note_off_c, 1, 67, 64
3, 18720, Note_on_c, 1, 69, 79
3, 18880, Note_off_c, 1, 69, 64
3, 18912, Note_on_c, 1, 69, 79
3, 18976, Note_off_c, 1, 69, 64
3, 19104, Note_on_c, 1, 69, 79
3, 19168, Note_off_c, 1, 69, 64
3, 19200, Note_on_c, 1, 69, 79
3, 19264, Note_off_c, 1, 69, 64
3, 19296, Note_on_c, 1, 69, 79
3, 19360, Note_off_c, 1, 69, 64
3, 19392, Note_on_c, 1, 69, 79
3, 19456, Note_off_c, 1, 69, 64
3, 19488, Note_on_c, 1, 69, 79
3, 19552, Note_off_c, 1, 69, 64
3, 19584, Note_on_c, 1, 72, 79
3, 19680, Note_off_c, 1, 72, 64
3, 19680, Note_on_c, 1, 69, 79
3, 19904, Note_off_c, 1, 69, 64
3, 20448, Note_on_c, 1, 72, 79
3, 20512, Note_off_c, 1, 72, 64
3, 20544, Note_on_c, 1, 69, 79
3, 20704, Note_off_c, 1, 69, 64
3, 20736, Note_on_c, 1, 69, 79
3, 20896, Note_off_c, 1, 69, 64
3, 20928, Note_on_c, 1, 69, 79
3, 20992, Note_off_c, 1, 69, 64
3, 21024, Note_on_c, 1, 69, 79
3, 21088, Note_off_c, 1, 69, 64
3, 21216, Note_on_c, 1, 76, 79
3, 21408, Note_off_c, 1, 76, 64
3, 21408, Note_on_c, 1, 69, 79
3, 21472, Note_off_c, 1, 69, 64
3, 22176, Note_on_c, 1, 69, 79
3, 22240, Note_off_c, 1, 69, 64
3, 22272, Note_on_c, 1, 69, 79
3, 22336, Note_off_c, 1, 69, 64
3, 22368, Note_on_c, 1, 69, 79
3, 22432, Note_off_c, 1, 69, 64
3, 22464, Note_on_c, 1, 69, 79
3, 22624, Note_off_c, 1, 69, 64
3, 22656, Note_on_c, 1, 72, 79
3, 22720, Note_off_c, 1, 72, 64
3, 22752, Note_on_c, 1, 69, 79
3, 22944, Note_off_c, 1, 69, 64
3, 22944, Note_on_c, 1, 67, 79
3, 23040, Note_off_c, 1, 67, 64
3, 23040, Note_on_c, 1, 69, 79
3, 23104, Note_off_c, 1, 69, 64
3, 23616, Note_on_c, 1, 69, 79
3, 23680, Note_off_c, 1, 69, 64
3, 23712, Note_on_c, 1, 67, 79
3, 23776, Note_off_c, 1, 67, 64
3, 23808, Note_on_c, 1, 69, 79
3, 23872, Note_off_c, 1, 69, 64
3, 23904, Note_on_c, 1, 69, 79
3, 23968, Note_off_c, 1, 69, 64
3, 24000, Note_on_c, 1, 69, 79
3, 24064, Note_off_c, 1, 69, 64
3, 24096, Note_on_c, 1, 69, 79
3, 24160, Note_off_c, 1, 69, 64
3, 24288, Note_on_c, 1, 74, 79
3, 24480, Note_off_c, 1, 74, 64
3, 24480, Note_on_c, 1, 72, 79
3, 24576, Note_off_c, 1, 72, 64
3, 24576, Note_on_c, 1, 69, 79
3, 24640, Note_off_c, 1, 69, 64
3, 25248, Note_on_c, 1, 69, 79
3, 25312, Note_off_c, 1, 69, 64
3, 25344, Note_on_c, 1, 69, 79
3, 25408, Note_off_c, 1, 69, 64
3, 25440, Note_on_c, 1, 69, 79
3, 25504, Note_off_c, 1, 69, 64
3, 25536, Note_on_c, 1, 69, 79
3, 25600, Note_off_c, 1, 69, 64
3, 25632, Note_on_c, 1, 69, 79
3, 25696, Note_off_c, 1, 69, 64
3, 25728, Note_on_c, 1, 72, 79
3, 25792, Note_off_c, 1, 72, 64
3, 25824, Note_on_c, 1, 69, 79
3, 25888, Note_off_c, 1, 69, 64
3, 25920, Note_on_c, 1, 69, 79
3, 26048, Note_off_c, 1, 69, 64
3, 26592, Note_on_c, 1, 72, 79
3, 26656, Note_off_c, 1, 72, 64
3, 26688, Note_on_c, 1, 69, 79
3, 26752, Note_off_c, 1, 69, 64
3, 26784, Note_on_c, 1, 67, 79
3, 26848, Note_off_c, 1, 67, 64
3, 26880, Note_on_c, 1, 69, 79
3, 26944, Note_off_c, 1, 69, 64
3, 26976, Note_on_c, 1, 69, 79
3, 27040, Note_off_c, 1, 69, 64
3, 27072, Note_on_c, 1, 69, 79
3, 27136, Note_off_c, 1, 69, 64
3, 27168, Note_on_c, 1, 69, 79
3, 27232, Note_off_c, 1, 69, 64
3, 27264, Note_on_c, 1, 76, 79
3, 27360, Note_off_c, 1, 76, 64
3, 27360, Note_on_c, 1, 71, 79
3, 27456, Note_off_c, 1, 71, 64
3, 27456, Note_on_c, 1, 69, 79
3, 27776, Note_off_c, 1, 69, 64
3, 28320, Note_on_c, 1, 69, 79
3, 28384, Note_off_c, 1, 69, 64
3, 28416, Note_on_c, 1, 69, 79
3, 28480, Note_off_c, 1, 69, 64
3, 28512, Note_on_c, 1, 69, 79
3, 28576, Note_off_c, 1, 69, 64
3, 28608, Note_on_c, 1, 69, 79
3, 28672, Note_off_c, 1, 69, 64
3, 28704, Note_on_c, 1, 69, 79
3, 28768, Note_off_c, 1, 69, 64
3, 28800, Note_on_c, 1, 72, 79
3, 28864, Note_off_c, 1, 72, 64
3, 28896, Note_on_c, 1, 69, 79
3, 29120, Note_off_c, 1, 69, 64
3, 29760, Note_on_c, 1, 69, 79
3, 29856, Note_off_c, 1, 69, 64
3, 29856, Note_on_c, 1, 67, 79
3, 29920, Note_off_c, 1, 67, 64
3, 29952, Note_on_c, 1, 69, 79
3, 30112, Note_off_c, 1, 69, 64
3, 30144, Note_on_c, 1, 69, 79
3, 30304, Note_off_c, 1, 69, 64
3, 30336, Note_on_c, 1, 74, 79
3, 30432, Note_off_c, 1, 74, 64
3, 30432, Note_on_c, 1, 69, 79
3, 30624, Note_off_c, 1, 69, 64
3, 30624, Note_on_c, 1, 67, 79
3, 30720, Note_off_c, 1, 67, 64
3, 30720, Note_on_c, 1, 69, 79
3, 30972, Note_off_c, 1, 69, 64
3, 31392, Note_on_c, 1, 76, 79
3, 31456, Note_off_c, 1, 76, 64
3, 31488, Note_on_c, 1, 77, 79
3, 31584, Note_off_c, 1, 77, 64
3, 31584, Note_on_c, 1, 76, 79
3, 31680, Note_off_c, 1, 76, 64
3, 31680, Note_on_c, 1, 74, 79
3, 31744, Note_off_c, 1, 74, 64
3, 31776, Note_on_c, 1, 72, 79
3, 31840, Note_off_c, 1, 72, 64
3, 31872, Note_on_c, 1, 76, 79
3, 32000, Note_off_c, 1, 76, 64
3, 32064, Note_on_c, 1, 74, 79
3, 32160, Note_off_c, 1, 74, 64
3, 32160, Note_on_c, 1, 72, 79
3, 32224, Note_off_c, 1, 72, 64
3, 33024, Note_on_c, 1, 76, 79
3, 33088, Note_off_c, 1, 76, 64
3, 33120, Note_on_c, 1, 67, 79
3, 33184, Note_off_c, 1, 67, 64
3, 33216, Note_on_c, 1, 67, 79
3, 33280, Note_off_c, 1, 67, 64
3, 33312, Note_on_c, 1, 69, 79
3, 33472, Note_off_c, 1, 69, 64
3, 33504, Note_on_c, 1, 69, 79
3, 33664, Note_off_c, 1, 69, 64
3, 33792, Note_on_c, 1, 76, 79
3, 33856, Note_off_c, 1, 76, 64
3, 33984, Note_on_c, 1, 67, 79
3, 34048, Note_off_c, 1, 67, 64
3, 34080, Note_on_c, 1, 69, 79
3, 34240, Note_off_c, 1, 69, 64
3, 34272, Note_on_c, 1, 69, 79
3, 34336, Note_off_c, 1, 69, 64
3, 34464, Note_on_c, 1, 76, 79
3, 34528, Note_off_c, 1, 76, 64
3, 34560, Note_on_c, 1, 77, 79
3, 34656, Note_off_c, 1, 77, 64
3, 34656, Note_on_c, 1, 76, 79
3, 34752, Note_off_c, 1, 76, 64
3, 34752, Note_on_c, 1, 74, 79
3, 34816, Note_off_c, 1, 74, 64
3, 34848, Note_on_c, 1, 72, 79
3, 34912, Note_off_c, 1, 72, 64
3, 34944, Note_on_c, 1, 76, 79
3, 35072, Note_off_c, 1, 76, 64
3, 35136, Note_on_c, 1, 74, 79
3, 35232, Note_off_c, 1, 74, 64
3, 35232, Note_on_c, 1, 72, 79
3, 35296, Note_off_c, 1, 72, 64
3, 36096, Note_on_c, 1, 76, 79
3, 36160, Note_off_c, 1, 76, 64
3, 36192, Note_on_c, 1, 67, 79
3, 36256, Note_off_c, 1, 67, 64
3, 36288, Note_on_c, 1, 67, 79
3, 36352, Note_off_c, 1, 67, 64
3, 36384, Note_on_c, 1, 69, 79
3, 36544, Note_off_c, 1, 69, 64
3, 36576, Note_on_c, 1, 69, 79
3, 36736, Note_off_c, 1, 69, 64
3, 36864, Note_on_c, 1, 76, 79
3, 36928, Note_off_c, 1, 76, 64
3, 37056, Note_on_c, 1, 67, 79
3, 37120, Note_off_c, 1, 67, 64
3, 37152, Note_on_c, 1, 69, 79
3, 37312, Note_off_c, 1, 69, 64
3, 37344, Note_on_c, 1, 69, 79
3, 37408, Note_off_c, 1, 69, 64
3, 37536, Note_on_c, 1, 69, 79
3, 37600, Note_off_c, 1, 69, 64
3, 37632, Note_on_c, 1, 69, 79
3, 37696, Note_off_c, 1, 69, 64
3, 37728, Note_on_c, 1, 69, 79
3, 37792, Note_off_c, 1, 69, 64
3, 37824, Note_on_c, 1, 69, 79
3, 37888, Note_off_c, 1, 69, 64
3, 37920, Note_on_c, 1, 69, 79
3, 37984, Note_off_c, 1, 69, 64
3, 38016, Note_on_c, 1, 72, 79
3, 38080, Note_off_c, 1, 72, 64
3, 38112, Note_on_c, 1, 69, 79
3, 38336, Note_off_c, 1, 69, 64
3, 38880, Note_on_c, 1, 69, 79
3, 39040, Note_off_c, 1, 69, 64
3, 39072, Note_on_c, 1, 67, 79
3, 39136, Note_off_c, 1, 67, 64
3, 39168, Note_on_c, 1, 69, 79
3, 39232, Note_off_c, 1, 69, 64
3, 39264, Note_on_c, 1, 69, 79
3, 39328, Note_off_c, 1, 69, 64
3, 39360, Note_on_c, 1, 69, 79
3, 39424, Note_off_c, 1, 69, 64
3, 39456, Note_on_c, 1, 69, 79
3, 39520, Note_off_c, 1, 69, 64
3, 39552, Note_on_c, 1, 69, 79
3, 39804, Note_off_c, 1, 69, 64
3, 40608, Note_on_c, 1, 69, 79
3, 40672, Note_off_c, 1, 69, 64
3, 40704, Note_on_c, 1, 69, 79
3, 40768, Note_off_c, 1, 69, 64
3, 40800, Note_on_c, 1, 69, 79
3, 40960, Note_off_c, 1, 69, 64
3, 40992, Note_on_c, 1, 69, 79
3, 41024, Note_off_c, 1, 69, 64
3, 41040, Note_on_c, 1, 69, 79
3, 41072, Note_off_c, 1, 69, 64
3, 41088, Note_on_c, 1, 72, 79
3, 41280, Note_off_c, 1, 72, 64
3, 41952, Note_on_c, 1, 69, 79
3, 42016, Note_off_c, 1, 69, 64
3, 42048, Note_on_c, 1, 69, 79
3, 42112, Note_off_c, 1, 69, 64
3, 42144, Note_on_c, 1, 69, 79
3, 42208, Note_off_c, 1, 69, 64
3, 42240, Note_on_c, 1, 69, 79
3, 42368, Note_off_c, 1, 69, 64
3, 42432, Note_on_c, 1, 69, 79
3, 42560, Note_off_c, 1, 69, 64
3, 42624, Note_on_c, 1, 69, 79
3, 42752, Note_off_c, 1, 69, 64
3, 43488, Note_on_c, 1, 69, 79
3, 43552, Note_off_c, 1, 69, 64
3, 43584, Note_on_c, 1, 69, 79
3, 43648, Note_off_c, 1, 69, 64
3, 43680, Note_on_c, 1, 67, 79
3, 43744, Note_off_c, 1, 67, 64
3, 43776, Note_on_c, 1, 69, 79
3, 43904, Note_off_c, 1, 69, 64
3, 43968, Note_on_c, 1, 69, 79
3, 44032, Note_off_c, 1, 69, 64
3, 44064, Note_on_c, 1, 69, 79
3, 44128, Note_off_c, 1, 69, 64
3, 44160, Note_on_c, 1, 72, 79
3, 44288, Note_off_c, 1, 72, 64
3, 44352, Note_on_c, 1, 69, 79
3, 44480, Note_off_c, 1, 69, 64
3, 45024, Note_on_c, 1, 69, 79
3, 45184, Note_off_c, 1, 69, 64
3, 45216, Note_on_c, 1, 67, 79
3, 45280, Note_off_c, 1, 67, 64
3, 45312, Note_on_c, 1, 69, 79
3, 45376, Note_off_c, 1, 69, 64
3, 45408, Note_on_c, 1, 69, 79
3, 45472, Note_off_c, 1, 69, 64
3, 45504, Note_on_c, 1, 69, 79
3, 45632, Note_off_c, 1, 69, 64
3, 45696, Note_on_c, 1, 69, 79
3, 45824, Note_off_c, 1, 69, 64
3, 45888, Note_on_c, 1, 69, 79
3, 46016, Note_off_c, 1, 69, 64
3, 46752, Note_on_c, 1, 67, 79
3, 46816, Note_off_c, 1, 67, 64
3, 46848, Note_on_c, 1, 69, 79
3, 46976, Note_off_c, 1, 69, 64
3, 47040, Note_on_c, 1, 69, 79
3, 47104, Note_off_c, 1, 69, 64
3, 47136, Note_on_c, 1, 69, 79
3, 47200, Note_off_c, 1, 69, 64
3, 47232, Note_on_c, 1, 72, 79
3, 47328, Note_off_c, 1, 72, 64
3, 47328, Note_on_c, 1, 69, 79
3, 47552, Note_off_c, 1, 69, 64
3, 48096, Note_on_c, 1, 69, 79
3, 48256, Note_off_c, 1, 69, 64
3, 48288, Note_on_c, 1, 69, 79
3, 48352, Note_off_c, 1, 69, 64
3, 48384, Note_on_c, 1, 81, 79
3, 48448, Note_off_c, 1, 81, 64
3, 48480, Note_on_c, 1, 69, 79
3, 48640, Note_off_c, 1, 69, 64
3, 48672, Note_on_c, 1, 81, 79
3, 48832, Note_off_c, 1, 81, 64
3, 48864, Note_on_c, 1, 81, 79
3, 49088, Note_off_c, 1, 81, 64
3, 49152, Note_on_c, 1, 81, 79
3, 49532, Note_off_c, 1, 81, 64
3, 49824, Note_on_c, 1, 76, 79
3, 49888, Note_off_c, 1, 76, 64
3, 49920, Note_on_c, 1, 77, 79
3, 50016, Note_off_c, 1, 77, 64
3, 50016, Note_on_c, 1, 76, 79
3, 50112, Note_off_c, 1, 76, 64
3, 50112, Note_on_c, 1, 74, 79
3, 50176, Note_off_c, 1, 74, 64
3, 50208, Note_on_c, 1, 72, 79
3, 50272, Note_off_c, 1, 72, 64
3, 50304, Note_on_c, 1, 76, 79
3, 50432, Note_off_c, 1, 76, 64
3, 50496, Note_on_c, 1, 74, 79
3, 50592, Note_off_c, 1, 74, 64
3, 50592, Note_on_c, 1, 72, 79
3, 50656, Note_off_c, 1, 72, 64
3, 51456, Note_on_c, 1, 76, 79
3, 51520, Note_off_c, 1, 76, 64
3, 51552, Note_on_c, 1, 67, 79
3, 51616, Note_off_c, 1, 67, 64
3, 51648, Note_on_c, 1, 67, 79
3, 51712, Note_off_c, 1, 67, 64
3, 51744, Note_on_c, 1, 69, 79
3, 51904, Note_off_c, 1, 69, 64
3, 51936, Note_on_c, 1, 69, 79
3, 52096, Note_off_c, 1, 69, 64
3, 52224, Note_on_c, 1, 76, 79
3, 52288, Note_off_c, 1, 76, 64
3, 52416, Note_on_c, 1, 67, 79
3, 52480, Note_off_c, 1, 67, 64
3, 52512, Note_on_c, 1, 69, 79
3, 52672, Note_off_c, 1, 69, 64
3, 52704, Note_on_c, 1, 69, 79
3, 52768, Note_off_c, 1, 69, 64
3, 52896, Note_on_c, 1, 76, 79
3, 52960, Note_off_c, 1, 76, 64
3, 52992, Note_on_c, 1, 77, 79
3, 53088, Note_off_c, 1, 77, 64
3, 53088, Note_on_c, 1, 76, 79
3, 53184, Note_off_c, 1, 76, 64
3, 53184, Note_on_c, 1, 74, 79
3, 53248, Note_off_c, 1, 74, 64
3, 53280, Note_on_c, 1, 72, 79
3, 53344, Note_off_c, 1, 72, 64
3, 53376, Note_on_c, 1, 76, 79
3, 53504, Note_off_c, 1, 76, 64
3, 53568, Note_on_c, 1, 74, 79
3, 53664, Note_off_c, 1, 74, 64
3, 53664, Note_on_c, 1, 72, 79
3, 53728, Note_off_c, 1, 72, 64
3, 54528, Note_on_c, 1, 76, 79
3, 54592, Note_off_c, 1, 76, 64
3, 54624, Note_on_c, 1, 67, 79
3, 54688, Note_off_c, 1, 67, 64
3, 54720, Note_on_c, 1, 67, 79
3, 54784, Note_off_c, 1, 67, 64
3, 54816, Note_on_c, 1, 69, 79
3, 54976, Note_off_c, 1, 69, 64
3, 55008, Note_on_c, 1, 69, 79
3, 55168, Note_off_c, 1, 69, 64
3, 55296, Note_on_c, 1, 76, 79
3, 55360, Note_off_c, 1, 76, 64
3, 55488, Note_on_c, 1, 67, 79
3, 55552, Note_off_c, 1, 67, 64
3, 55584, Note_on_c, 1, 69, 79
3, 55744, Note_off_c, 1, 69, 64
3, 55776, Note_on_c, 1, 69, 79
3, 55840, Note_off_c, 1, 69, 64
3, 55968, Note_on_c, 1, 69, 79
3, 56032, Note_off_c, 1, 69, 64
3, 56064, Note_on_c, 1, 69, 79
3, 56192, Note_off_c, 1, 69, 64
3, 56256, Note_on_c, 1, 69, 79
3, 56320, Note_off_c, 1, 69, 64
3, 56352, Note_on_c, 1, 69, 79
3, 56416, Note_off_c, 1, 69, 64
3, 56448, Note_on_c, 1, 72, 79
3, 56512, Note_off_c, 1, 72, 64
3, 56544, Note_on_c, 1, 69, 79
3, 56608, Note_off_c, 1, 69, 64
3, 56640, Note_on_c, 1, 69, 79
3, 56768, Note_off_c, 1, 69, 64
3, 57312, Note_on_c, 1, 72, 79
3, 57376, Note_off_c, 1, 72, 64
3, 57408, Note_on_c, 1, 69, 79
3, 57472, Note_off_c, 1, 69, 64
3, 57504, Note_on_c, 1, 69, 79
3, 57568, Note_off_c, 1, 69, 64
3, 57600, Note_on_c, 1, 69, 79
3, 57664, Note_off_c, 1, 69, 64
3, 57696, Note_on_c, 1, 69, 79
3, 57760, Note_off_c, 1, 69, 64
3, 57792, Note_on_c, 1, 69, 79
3, 57856, Note_off_c, 1, 69, 64
3, 57888, Note_on_c, 1, 69, 79
3, 57952, Note_off_c, 1, 69, 64
3, 58080, Note_on_c, 1, 76, 79
3, 58272, Note_off_c, 1, 76, 64
3, 58272, Note_on_c, 1, 69, 79
3, 58336, Note_off_c, 1, 69, 64
3, 59040, Note_on_c, 1, 69, 79
3, 59104, Note_off_c, 1, 69, 64
3, 59136, Note_on_c, 1, 69, 79
3, 59264, Note_off_c, 1, 69, 64
3, 59328, Note_on_c, 1, 69, 79
3, 59392, Note_off_c, 1, 69, 64
3, 59424, Note_on_c, 1, 69, 79
3, 59488, Note_off_c, 1, 69, 64
3, 59520, Note_on_c, 1, 72, 79
3, 59584, Note_off_c, 1, 72, 64
3, 59616, Note_on_c, 1, 69, 79
3, 59680, Note_off_c, 1, 69, 64
3, 59712, Note_on_c, 1, 69, 79
3, 59808, Note_off_c, 1, 69, 64
3, 59808, Note_on_c, 1, 67, 79
3, 59904, Note_off_c, 1, 67, 64
3, 59904, Note_on_c, 1, 69, 79
3, 59968, Note_off_c, 1, 69, 64
3, 60480, Note_on_c, 1, 69, 79
3, 60544, Note_off_c, 1, 69, 64
3, 60576, Note_on_c, 1, 67, 79
3, 60640, Note_off_c, 1, 67, 64
3, 60672, Note_on_c, 1, 69, 79
3, 60736, Note_off_c, 1, 69, 64
3, 60768, Note_on_c, 1, 69, 79
3, 60832, Note_off_c, 1, 69, 64
3, 60864, Note_on_c, 1, 69, 79
3, 60928, Note_off_c, 1, 69, 64
3, 60960, Note_on_c, 1, 69, 79
3, 61024, Note_off_c, 1, 69, 64
3, 61152, Note_on_c, 1, 74, 79
3, 61344, Note_off_c, 1, 74, 64
3, 61344, Note_on_c, 1, 72, 79
3, 61440, Note_off_c, 1, 72, 64
3, 61440, Note_on_c, 1, 69, 79
3, 61504, Note_off_c, 1, 69, 64
3, 62112, Note_on_c, 1, 69, 79
3, 62176, Note_off_c, 1, 69, 64
3, 62208, Note_on_c, 1, 69, 79
3, 62272, Note_off_c, 1, 69, 64
3, 62304, Note_on_c, 1, 69, 79
3, 62368, Note_off_c, 1, 69, 64
3, 62400, Note_on_c, 1, 69, 79
3, 62464, Note_off_c, 1, 69, 64
3, 62496, Note_on_c, 1, 69, 79
3, 62560, Note_off_c, 1, 69, 64
3, 62592, Note_on_c, 1, 72, 79
3, 62656, Note_off_c, 1, 72, 64
3, 62688, Note_on_c, 1, 69, 79
3, 62752, Note_off_c, 1, 69, 64
3, 62784, Note_on_c, 1, 69, 79
3, 62912, Note_off_c, 1, 69, 64
3, 63456, Note_on_c, 1, 72, 79
3, 63520, Note_off_c, 1, 72, 64
3, 63552, Note_on_c, 1, 69, 79
3, 63616, Note_off_c, 1, 69, 64
3, 63648, Note_on_c, 1, 67, 79
3, 63712, Note_off_c, 1, 67, 64
3, 63744, Note_on_c, 1, 69, 79
3, 63808, Note_off_c, 1, 69, 64
3, 63840, Note_on_c, 1, 69, 79
3, 63904, Note_off_c, 1, 69, 64
3, 63936, Note_on_c, 1, 69, 79
3, 64000, Note_off_c, 1, 69, 64
3, 64032, Note_on_c, 1, 69, 79
3, 64096, Note_off_c, 1, 69, 64
3, 64128, Note_on_c, 1, 76, 79
3, 64224, Note_off_c, 1, 76, 64
3, 64224, Note_on_c, 1, 71, 79
3, 64320, Note_off_c, 1, 71, 64
3, 64320, Note_on_c, 1, 69, 79
3, 64640, Note_off_c, 1, 69, 64
3, 65184, Note_on_c, 1, 69, 79
3, 65248, Note_off_c, 1, 69, 64
3, 65280, Note_on_c, 1, 69, 79
3, 65344, Note_off_c, 1, 69, 64
3, 65376, Note_on_c, 1, 69, 79
3, 65408, Note_off_c, 1, 69, 64
3, 65424, Note_on_c, 1, 69, 79
3, 65456, Note_off_c, 1, 69, 64
3, 65472, Note_on_c, 1, 69, 79
3, 65536, Note_off_c, 1, 69, 64
3, 65568, Note_on_c, 1, 69, 79
3, 65632, Note_off_c, 1, 69, 64
3, 65664, Note_on_c, 1, 72, 79
3, 65728, Note_off_c, 1, 72, 64
3, 65760, Note_on_c, 1, 69, 79
3, 65824, Note_off_c, 1, 69, 64
3, 65856, Note_on_c, 1, 69, 79
3, 65984, Note_off_c, 1, 69, 64
3, 66048, Note_on_c, 1, 69, 79
3, 66176, Note_off_c, 1, 69, 64
3, 66624, Note_on_c, 1, 69, 79
3, 66688, Note_off_c, 1, 69, 64
3, 66720, Note_on_c, 1, 67, 79
3, 66784, Note_off_c, 1, 67, 64
3, 66816, Note_on_c, 1, 69, 79
3, 66976, Note_off_c, 1, 69, 64
3, 67008, Note_on_c, 1, 69, 79
3, 67072, Note_off_c, 1, 69, 64
3, 67104, Note_on_c, 1, 69, 79
3, 67200, Note_off_c, 1, 69, 64
3, 67200, Note_on_c, 1, 74, 79
3, 67296, Note_off_c, 1, 74, 64
3, 67296, Note_on_c, 1, 69, 79
3, 67488, Note_off_c, 1, 69, 64
3, 67488, Note_on_c, 1, 67, 79
3, 67584, Note_off_c, 1, 67, 64
3, 67584, Note_on_c, 1, 69, 79
3, 67836, Note_off_c, 1, 69, 64
3, 68256, Note_on_c, 1, 76, 79
3, 68320, Note_off_c, 1, 76, 64
3, 68352, Note_on_c, 1, 77, 79
3, 68448, Note_off_c, 1, 77, 64
3, 68448, Note_on_c, 1, 76, 79
3, 68544, Note_off_c, 1, 76, 64
3, 68544, Note_on_c, 1, 74, 79
3, 68608, Note_off_c, 1, 74, 64
3, 68640, Note_on_c, 1, 72, 79
3, 68704, Note_off_c, 1, 72, 64
3, 68736, Note_on_c, 1, 76, 79
3, 68864, Note_off_c, 1, 76, 64
3, 68928, Note_on_c, 1, 74, 79
3, 69024, Note_off_c, 1, 74, 64
3, 69024, Note_on_c, 1, 72, 79
3, 69088, Note_off_c, 1, 72, 64
3, 69888, Note_on_c, 1, 76, 79
3, 69952, Note_off_c, 1, 76, 64
3, 69984, Note_on_c, 1, 67, 79
3, 70048, Note_off_c, 1, 67, 64
3, 70080, Note_on_c, 1, 67, 79
3, 70144, Note_off_c, 1, 67, 64
3, 70176, Note_on_c, 1, 69, 79
3, 70336, Note_off_c, 1, 69, 64
3, 70368, Note_on_c, 1, 69, 79
3, 70528, Note_off_c, 1, 69, 64
3, 70656, Note_on_c, 1, 76, 79
3, 70720, Note_off_c, 1, 76, 64
3, 70848, Note_on_c, 1, 67, 79
3, 70912, Note_off_c, 1, 67, 64
3, 70944, Note_on_c, 1, 69, 79
3, 71104, Note_off_c, 1, 69, 64
3, 71136, Note_on_c, 1, 69, 79
3, 71200, Note_off_c, 1, 69, 64
3, 71328, Note_on_c, 1, 76, 79
3, 71392, Note_off_c, 1, 76, 64
3, 71424, Note_on_c, 1, 77, 79
3, 71520, Note_off_c, 1, 77, 64
3, 71520, Note_on_c, 1, 76, 79
3, 71616, Note_off_c, 1, 76, 64
3, 71616, Note_on_c, 1, 74, 79
3, 71680, Note_off_c, 1, 74, 64
3, 71712, Note_on_c, 1, 72, 79
3, 71776, Note_off_c, 1, 72, 64
3, 71808, Note_on_c, 1, 76, 79
3, 71936, Note_off_c, 1, 76, 64
3, 72000, Note_on_c, 1, 74, 79
3, 72096, Note_off_c, 1, 74, 64
3, 72096, Note_on_c, 1, 72, 79
3, 72160, Note_off_c, 1, 72, 64
3, 72960, Note_on_c, 1, 76, 79
3, 73024, Note_off_c, 1, 76, 64
3, 73056, Note_on_c, 1, 67, 79
3, 73120, Note_off_c, 1, 67, 64
3, 73152, Note_on_c, 1, 67, 79
3, 73216, Note_off_c, 1, 67, 64
3, 73248, Note_on_c, 1, 69, 79
3, 73408, Note_off_c, 1, 69, 64
3, 73440, Note_on_c, 1, 69, 79
3, 73600, Note_off_c, 1, 69, 64
3, 73728, Note_on_c, 1, 76, 79
3, 73792, Note_off_c, 1, 76, 64
3, 73920, Note_on_c, 1, 67, 79
3, 73984, Note_off_c, 1, 67, 64
3, 74016, Note_on_c, 1, 69, 79
3, 74176, Note_off_c, 1, 69, 64
3, 74208, Note_on_c, 1, 69, 79
3, 74272, Note_off_c, 1, 69, 64
3, 74400, Note_on_c, 1, 76, 79
3, 74464, Note_off_c, 1, 76, 64
3, 74496, Note_on_c, 1, 77, 79
3, 74592, Note_off_c, 1, 77, 64
3, 74592, Note_on_c, 1, 76, 79
3, 74688, Note_off_c, 1, 76, 64
3, 74688, Note_on_c, 1, 74, 79
3, 74752, Note_off_c, 1, 74, 64
3, 74784, Note_on_c, 1, 72, 79
3, 74848, Note_off_c, 1, 72, 64
3, 74880, Note_on_c, 1, 76, 79
3, 75008, Note_off_c, 1, 76, 64
3, 75072, Note_on_c, 1, 74, 79
3, 75168, Note_off_c, 1, 74, 64
3, 75168, Note_on_c, 1, 72, 79
3, 75232, Note_off_c, 1, 72, 64
3, 76032, Note_on_c, 1, 76, 79
3, 76096, Note_off_c, 1, 76, 64
3, 76128, Note_on_c, 1, 67, 79
3, 76192, Note_off_c, 1, 67, 64
3, 76224, Note_on_c, 1, 67, 79
3, 76288, Note_off_c, 1, 67, 64
3, 76320, Note_on_c, 1, 69, 79
3, 76480, Note_off_c, 1, 69, 64
3, 76512, Note_on_c, 1, 69, 79
3, 76672, Note_off_c, 1, 69, 64
3, 76800, Note_on_c, 1, 76, 79
3, 76864, Note_off_c, 1, 76, 64
3, 76992, Note_on_c, 1, 67, 79
3, 77056, Note_off_c, 1, 67, 64
3, 77088, Note_on_c, 1, 69, 79
3, 77248, Note_off_c, 1, 69, 64
3, 77280, Note_on_c, 1, 69, 79
3, 77344, Note_off_c, 1, 69, 64
3, 77472, Note_on_c, 1, 76, 79
3, 77536, Note_off_c, 1, 76, 64
3, 77568, Control_c, 1, 7, 96
3, 77568, Note_on_c, 1, 77, 79
3, 77664, Note_off_c, 1, 77, 64
3, 77664, Note_on_c, 1, 76, 79
3, 77688, Control_c, 1, 7, 95
3, 77760, Note_off_c, 1, 76, 64
3, 77760, Note_on_c, 1, 74, 79
3, 77784, Control_c, 1, 7, 94
3, 77824, Note_off_c, 1, 74, 64
3, 77856, Note_on_c, 1, 72, 79
3, 77880, Control_c, 1, 7, 93
3, 77920, Note_off_c, 1, 72, 64
3, 77952, Note_on_c, 1, 76, 79
3, 78000, Control_c, 1, 7, 92
3, 78080, Note_off_c, 1, 76, 64
3, 78096, Control_c, 1, 7, 91
3, 78144, Note_on_c, 1, 74, 79
3, 78192, Control_c, 1, 7, 90
3, 78240, Note_off_c, 1, 74, 64
3, 78240, Note_on_c, 1, 72, 79
3, 78304, Note_off_c, 1, 72, 64
3, 78312, Control_c, 1, 7, 89
3, 78408, Control_c, 1, 7, 88
3, 78504, Control_c, 1, 7, 87
3, 78624, Control_c, 1, 7, 86
3, 78720, Control_c, 1, 7, 85
3, 78816, Control_c, 1, 7, 84
3, 78936, Control_c, 1, 7, 83
3, 79032, Control_c, 1, 7, 82
3, 79104, Note_on_c, 1, 76, 79
3, 79128, Control_c, 1, 7, 81
3, 79168, Note_off_c, 1, 76, 64
3, 79200, Note_on_c, 1, 67, 79
3, 79248, Control_c, 1, 7, 80
3, 79264, Note_off_c, 1, 67, 64
3, 79296, Note_on_c, 1, 67, 79
3, 79344, Control_c, 1, 7, 79
3, 79360, Note_off_c, 1, 67, 64
3, 79392, Note_on_c, 1, 69, 79
3, 79440, Control_c, 1, 7, 78
3, 79552, Note_off_c, 1, 69, 64
3, 79560, Control_c, 1, 7, 77
3, 79584, Note_on_c, 1, 69, 79
3, 79656, Control_c, 1, 7, 76
3, 79744, Note_off_c, 1, 69, 64
3, 79752, Control_c, 1, 7, 75
3, 79872, Control_c, 1, 7, 74
3, 79872, Note_on_c, 1, 76, 79
3, 79936, Note_off_c, 1, 76, 64
3, 79968, Control_c, 1, 7, 73
3, 80064, Control_c, 1, 7, 72
3, 80064, Note_on_c, 1, 67, 79
3, 80128, Note_off_c, 1, 67, 64
3, 80160, Note_on_c, 1, 69, 79
3, 80184, Control_c, 1, 7, 71
3, 80280, Control_c, 1, 7, 70
3, 80320, Note_off_c, 1, 69, 64
3, 80352, Note_on_c, 1, 69, 79
3, 80376, Control_c, 1, 7, 69
3, 80416, Note_off_c, 1, 69, 64
3, 80496, Control_c, 1, 7, 68
3, 80544, Note_on_c, 1, 76, 79
3, 80592, Control_c, 1, 7, 67
3, 80608, Note_off_c, 1, 76, 64
3, 80640, Note_on_c, 1, 77, 79
3, 80688, Control_c, 1, 7, 66
3, 80736, Note_off_c, 1, 77, 64
3, 80736, Note_on_c, 1, 76, 79
3, 80808, Control_c, 1, 7, 65
3, 80832, Note_off_c, 1, 76, 64
3, 80832, Note_on_c, 1, 74, 79
3, 80896, Note_off_c, 1, 74, 64
3, 80904, Control_c, 1, 7, 64
3, 80928, Note_on_c, 1, 72, 79
3, 80992, Note_off_c, 1, 72, 64
3, 81000, Control_c, 1, 7, 63
3, 81024, Note_on_c, 1, 76, 79
3, 81120, Control_c, 1, 7, 62
3, 81152, Note_off_c, 1, 76, 64
3, 81216, Control_c, 1, 7, 61
3, 81216, Note_on_c, 1, 74, 79
3, 81312, Note_off_c, 1, 74, 64
3, 81312, Control_c, 1, 7, 60
3, 81312, Note_on_c, 1, 72, 79
3, 81376, Note_off_c, 1, 72, 64
3, 81432, Control_c, 1, 7, 59
3, 81528, Control_c, 1, 7, 58
3, 81624, Control_c, 1, 7, 57
3, 81744, Control_c, 1, 7, 56
3, 81840, Control_c, 1, 7, 55
3, 81936, Control_c, 1, 7, 54
3, 82056, Control_c, 1, 7, 53
3, 82152, Control_c, 1, 7, 52
3, 82176, Note_on_c, 1, 76, 79
3, 82240, Note_off_c, 1, 76, 64
3, 82248, Control_c, 1, 7, 51
3, 82272, Note_on_c, 1, 67, 79
3, 82336, Note_off_c, 1, 67, 64
3, 82368, Control_c, 1, 7, 50
3, 82368, Note_on_c, 1, 67, 79
3, 82432, Note_off_c, 1, 67, 64
3, 82464, Control_c, 1, 7, 49
3, 82464, Note_on_c, 1, 69, 79
3, 82560, Control_c, 1, 7, 48
3, 82624, Note_off_c, 1, 69, 64
3, 82656, Note_on_c, 1, 69, 79
3, 82680, Control_c, 1, 7, 47
3, 82776, Control_c, 1, 7, 46
3, 82816, Note_off_c, 1, 69, 64
3, 82872, Control_c, 1, 7, 45
3, 82944, Note_on_c, 1, 76, 79
3, 82992, Control_c, 1, 7, 44
3, 83008, Note_off_c, 1, 76, 64
3, 83088, Control_c, 1, 7, 43
3, 83136, Note_on_c, 1, 67, 79
3, 83184, Control_c, 1, 7, 42
3, 83200, Note_off_c, 1, 67, 64
3, 83232, Note_on_c, 1, 69, 79
3, 83304, Control_c, 1, 7, 41
3, 83392, Note_off_c, 1, 69, 64
3, 83400, Control_c, 1, 7, 40
3, 83424, Note_on_c, 1, 69, 79
3, 83488, Note_off_c, 1, 69, 64
3, 83496, Control_c, 1, 7, 39
3, 83616, Control_c, 1, 7, 38
3, 83616, Note_on_c, 1, 76, 79
3, 83680, Note_off_c, 1, 76, 64
3, 83712, Control_c, 1, 7, 37
3, 83712, Note_on_c, 1, 77, 79
3, 83808, Note_off_c, 1, 77, 64
3, 83808, Control_c, 1, 7, 36
3, 83808, Note_on_c, 1, 76, 79
3, 83904, Note_off_c, 1, 76, 64
3, 83904, Note_on_c, 1, 74, 79
3, 83928, Control_c, 1, 7, 35
3, 83968, Note_off_c, 1, 74, 64
3, 84000, Note_on_c, 1, 72, 79
3, 84024, Control_c, 1, 7, 34
3, 84064, Note_off_c, 1, 72, 64
3, 84096, Note_on_c, 1, 76, 79
3, 84120, Control_c, 1, 7, 33
3, 84224, Note_off_c, 1, 76, 64
3, 84240, Control_c, 1, 7, 32
3, 84288, Note_on_c, 1, 74, 79
3, 84336, Control_c, 1, 7, 31
3, 84384, Note_off_c, 1, 74, 64
3, 84384, Note_on_c, 1, 72, 79
3, 84432, Control_c, 1, 7, 30
3, 84448, Note_off_c, 1, 72, 64
3, 84552, Control_c, 1, 7, 29
3, 84648, Control_c, 1, 7, 28
3, 84744, Control_c, 1, 7, 27
3, 84864, Control_c, 1, 7, 26
3, 84960, Control_c, 1, 7, 25
3, 85056, Control_c, 1, 7, 24
3, 85176, Control_c, 1, 7, 23
3, 85248, Note_on_c, 1, 76, 79
3, 85272, Control_c, 1, 7, 22
3, 85312, Note_off_c, 1, 76, 64
3, 85344, Note_on_c, 1, 67, 79
3, 85368, Control_c, 1, 7, 21
3, 85408, Note_off_c, 1, 67, 64
3, 85440, Note_on_c, 1, 67, 79
3, 85488, Control_c, 1, 7, 20
3, 85504, Note_off_c, 1, 67, 64
3, 85536, Note_on_c, 1, 69, 79
3, 85584, Control_c, 1, 7, 19
3, 85680, Control_c, 1, 7, 18
3, 85696, Note_off_c, 1, 69, 64
3, 85728, Note_on_c, 1, 69, 79
3, 85800, Control_c, 1, 7, 17
3, 85888, Note_off_c, 1, 69, 64
3, 85896, Control_c, 1, 7, 16
3, 85992, Control_c, 1, 7, 15
3, 86016, Note_on_c, 1, 76, 79
3, 86080, Note_off_c, 1, 76, 64
3, 86112, Control_c, 1, 7, 14
3, 86208, Control_c, 1, 7, 13
3, 86208, Note_on_c, 1, 67, 79
3, 86272, Note_off_c, 1, 67, 64
3, 86304, Control_c, 1, 7, 12
3, 86304, Note_on_c, 1, 69, 79
3, 86424, Control_c, 1, 7, 11
3, 86464, Note_off_c, 1, 69, 64
3, 86496, Note_on_c, 1, 69, 79
3, 86520, Control_c, 1, 7, 10
3, 86560, Note_off_c, 1, 69, 64
3, 86616, Control_c, 1, 7, 9
3, 86688, Note_on_c, 1, 69, 79
3, 86736, Control_c, 1, 7, 8
3, 86752, Note_off_c, 1, 69, 64
3, 86832, Control_c, 1, 7, 7
3, 86928, Control_c, 1, 7, 6
3, 87048, Control_c, 1, 7, 5
3, 87144, Control_c, 1, 7, 4
3, 87240, Control_c, 1, 7, 3
3, 87360, Control_c, 1, 7, 2
3, 87456, Control_c, 1, 7, 1
3, 87456, End_track
4, 0, Start_track
4, 0, MIDI_port, 0
4, 0, Title_t, """Rock the Casbah""   "
4, 0, Program_c, 2, 62
4, 0, Control_c, 2, 7, 96
4, 0, Control_c, 2, 10, 81
4, 0, Pitch_bend_c, 2, 8192
4, 0, Control_c, 2, 1, 0
4, 0, Control_c, 2, 64, 0
4, 576, Note_on_c, 2, 76, 79
4, 640, Note_off_c, 2, 76, 64
4, 672, Note_on_c, 2, 69, 79
4, 736, Note_off_c, 2, 69, 64
4, 768, Note_on_c, 2, 69, 79
4, 896, Note_off_c, 2, 69, 64
4, 960, Note_on_c, 2, 69, 79
4, 1024, Note_off_c, 2, 69, 64
4, 1056, Note_on_c, 2, 69, 79
4, 1120, Note_off_c, 2, 69, 64
4, 1152, Note_on_c, 2, 72, 79
4, 1216, Note_off_c, 2, 72, 64
4, 1248, Note_on_c, 2, 69, 79
4, 1312, Note_off_c, 2, 69, 64
4, 1344, Note_on_c, 2, 69, 79
4, 1472, Note_off_c, 2, 69, 64
4, 1536, Note_on_c, 2, 64, 79
4, 1788, Note_off_c, 2, 64, 64
4, 2016, Note_on_c, 2, 72, 79
4, 2080, Note_off_c, 2, 72, 64
4, 2112, Note_on_c, 2, 69, 79
4, 2176, Note_off_c, 2, 69, 64
4, 2208, Note_on_c, 2, 69, 79
4, 2272, Note_off_c, 2, 69, 64
4, 2304, Note_on_c, 2, 69, 79
4, 2368, Note_off_c, 2, 69, 64
4, 2400, Note_on_c, 2, 69, 79
4, 2464, Note_off_c, 2, 69, 64
4, 2496, Note_on_c, 2, 69, 79
4, 2560, Note_off_c, 2, 69, 64
4, 2592, Note_on_c, 2, 69, 79
4, 2656, Note_off_c, 2, 69, 64
4, 2784, Note_on_c, 2, 76, 79
4, 2944, Note_off_c, 2, 76, 64
4, 2976, Note_on_c, 2, 69, 79
4, 3040, Note_off_c, 2, 69, 64
4, 3744, Note_on_c, 2, 69, 79
4, 3808, Note_off_c, 2, 69, 64
4, 3840, Note_on_c, 2, 69, 79
4, 3968, Note_off_c, 2, 69, 64
4, 4032, Note_on_c, 2, 69, 79
4, 4096, Note_off_c, 2, 69, 64
4, 4128, Note_on_c, 2, 69, 79
4, 4192, Note_off_c, 2, 69, 64
4, 4224, Note_on_c, 2, 72, 79
4, 4288, Note_off_c, 2, 72, 64
4, 4320, Note_on_c, 2, 69, 79
4, 4384, Note_off_c, 2, 69, 64
4, 4416, Note_on_c, 2, 69, 79
4, 4480, Note_off_c, 2, 69, 64
4, 4512, Note_on_c, 2, 67, 79
4, 4576, Note_off_c, 2, 67, 64
4, 4608, Note_on_c, 2, 69, 79
4, 4988, Note_off_c, 2, 69, 64
4, 5184, Note_on_c, 2, 69, 79
4, 5248, Note_off_c, 2, 69, 64
4, 5280, Note_on_c, 2, 67, 79
4, 5344, Note_off_c, 2, 67, 64
4, 5376, Note_on_c, 2, 69, 79
4, 5440, Note_off_c, 2, 69, 64
4, 5472, Note_on_c, 2, 69, 79
4, 5536, Note_off_c, 2, 69, 64
4, 5568, Note_on_c, 2, 69, 79
4, 5632, Note_off_c, 2, 69, 64
4, 5664, Note_on_c, 2, 69, 79
4, 5728, Note_off_c, 2, 69, 64
4, 5856, Note_on_c, 2, 74, 79
4, 6016, Note_off_c, 2, 74, 64
4, 6048, Note_on_c, 2, 72, 79
4, 6112, Note_off_c, 2, 72, 64
4, 6816, Note_on_c, 2, 69, 79
4, 6880, Note_off_c, 2, 69, 64
4, 6912, Note_on_c, 2, 69, 79
4, 6976, Note_off_c, 2, 69, 64
4, 7008, Note_on_c, 2, 69, 79
4, 7072, Note_off_c, 2, 69, 64
4, 7104, Note_on_c, 2, 69, 79
4, 7168, Note_off_c, 2, 69, 64
4, 7200, Note_on_c, 2, 69, 79
4, 7264, Note_off_c, 2, 69, 64
4, 7296, Note_on_c, 2, 72, 79
4, 7360, Note_off_c, 2, 72, 64
4, 7392, Note_on_c, 2, 69, 79
4, 7456, Note_off_c, 2, 69, 64
4, 7488, Note_on_c, 2, 69, 79
4, 7616, Note_off_c, 2, 69, 64
4, 7680, Note_on_c, 2, 64, 79
4, 7932, Note_off_c, 2, 64, 64
4, 8160, Note_on_c, 2, 72, 79
4, 8224, Note_off_c, 2, 72, 64
4, 8256, Note_on_c, 2, 69, 79
4, 8320, Note_off_c, 2, 69, 64
4, 8352, Note_on_c, 2, 67, 79
4, 8416, Note_off_c, 2, 67, 64
4, 8448, Note_on_c, 2, 69, 79
4, 8512, Note_off_c, 2, 69, 64
4, 8544, Note_on_c, 2, 69, 79
4, 8608, Note_off_c, 2, 69, 64
4, 8640, Note_on_c, 2, 69, 79
4, 8704, Note_off_c, 2, 69, 64
4, 8736, Note_on_c, 2, 69, 79
4, 8800, Note_off_c, 2, 69, 64
4, 8832, Note_on_c, 2, 76, 79
4, 8896, Note_off_c, 2, 76, 64
4, 8928, Note_on_c, 2, 71, 79
4, 8992, Note_off_c, 2, 71, 64
4, 9024, Note_on_c, 2, 69, 79
4, 9788, Note_off_c, 2, 69, 64
4, 9888, Note_on_c, 2, 69, 79
4, 9952, Note_off_c, 2, 69, 64
4, 9984, Note_on_c, 2, 69, 79
4, 10048, Note_off_c, 2, 69, 64
4, 10080, Note_on_c, 2, 69, 79
4, 10144, Note_off_c, 2, 69, 64
4, 10176, Note_on_c, 2, 69, 79
4, 10240, Note_off_c, 2, 69, 64
4, 10272, Note_on_c, 2, 69, 79
4, 10336, Note_off_c, 2, 69, 64
4, 10368, Note_on_c, 2, 72, 79
4, 10432, Note_off_c, 2, 72, 64
4, 10464, Note_on_c, 2, 69, 79
4, 10688, Note_off_c, 2, 69, 64
4, 10752, Note_on_c, 2, 64, 79
4, 11132, Note_off_c, 2, 64, 64
4, 11328, Note_on_c, 2, 69, 79
4, 11392, Note_off_c, 2, 69, 64
4, 11424, Note_on_c, 2, 67, 79
4, 11488, Note_off_c, 2, 67, 64
4, 11520, Note_on_c, 2, 69, 79
4, 11584, Note_off_c, 2, 69, 64
4, 11616, Note_on_c, 2, 69, 79
4, 11680, Note_off_c, 2, 69, 64
4, 11712, Note_on_c, 2, 69, 79
4, 11776, Note_off_c, 2, 69, 64
4, 11808, Note_on_c, 2, 69, 79
4, 11872, Note_off_c, 2, 69, 64
4, 11904, Note_on_c, 2, 74, 79
4, 11968, Note_off_c, 2, 74, 64
4, 12000, Note_on_c, 2, 69, 79
4, 12160, Note_off_c, 2, 69, 64
4, 12192, Note_on_c, 2, 67, 79
4, 12256, Note_off_c, 2, 67, 64
4, 12288, Note_on_c, 2, 69, 79
4, 12864, Note_off_c, 2, 69, 64
4, 12960, Note_on_c, 2, 76, 79
4, 13024, Note_off_c, 2, 76, 64
4, 13056, Note_on_c, 2, 77, 79
4, 13120, Note_off_c, 2, 77, 64
4, 13152, Note_on_c, 2, 76, 79
4, 13216, Note_off_c, 2, 76, 64
4, 13248, Note_on_c, 2, 74, 79
4, 13312, Note_off_c, 2, 74, 64
4, 13344, Note_on_c, 2, 72, 79
4, 13408, Note_off_c, 2, 72, 64
4, 13440, Note_on_c, 2, 76, 79
4, 13568, Note_off_c, 2, 76, 64
4, 13632, Note_on_c, 2, 74, 79
4, 13696, Note_off_c, 2, 74, 64
4, 13728, Note_on_c, 2, 72, 79
4, 13792, Note_off_c, 2, 72, 64
4, 13824, Note_on_c, 2, 76, 79
4, 13888, Note_off_c, 2, 76, 64
4, 13920, Note_on_c, 2, 76, 79
4, 13984, Note_off_c, 2, 76, 64
4, 14016, Note_on_c, 2, 76, 79
4, 14080, Note_off_c, 2, 76, 64
4, 14112, Note_on_c, 2, 74, 79
4, 14272, Note_off_c, 2, 74, 64
4, 14304, Note_on_c, 2, 74, 79
4, 14464, Note_off_c, 2, 74, 64
4, 14496, Note_on_c, 2, 74, 79
4, 14560, Note_off_c, 2, 74, 64
4, 14592, Note_on_c, 2, 76, 79
4, 14656, Note_off_c, 2, 76, 64
4, 14688, Note_on_c, 2, 67, 79
4, 14752, Note_off_c, 2, 67, 64
4, 14784, Note_on_c, 2, 67, 79
4, 14848, Note_off_c, 2, 67, 64
4, 14880, Note_on_c, 2, 69, 79
4, 15040, Note_off_c, 2, 69, 64
4, 15072, Note_on_c, 2, 69, 79
4, 15296, Note_off_c, 2, 69, 64
4, 15360, Note_on_c, 2, 76, 79
4, 15488, Note_off_c, 2, 76, 64
4, 15552, Note_on_c, 2, 67, 79
4, 15616, Note_off_c, 2, 67, 64
4, 15648, Note_on_c, 2, 69, 79
4, 15808, Note_off_c, 2, 69, 64
4, 15840, Note_on_c, 2, 69, 79
4, 16000, Note_off_c, 2, 69, 64
4, 16032, Note_on_c, 2, 76, 79
4, 16096, Note_off_c, 2, 76, 64
4, 16128, Note_on_c, 2, 77, 79
4, 16192, Note_off_c, 2, 77, 64
4, 16224, Note_on_c, 2, 76, 79
4, 16288, Note_off_c, 2, 76, 64
4, 16320, Note_on_c, 2, 74, 79
4, 16384, Note_off_c, 2, 74, 64
4, 16416, Note_on_c, 2, 72, 79
4, 16480, Note_off_c, 2, 72, 64
4, 16512, Note_on_c, 2, 76, 79
4, 16640, Note_off_c, 2, 76, 64
4, 16704, Note_on_c, 2, 74, 79
4, 16768, Note_off_c, 2, 74, 64
4, 16800, Note_on_c, 2, 72, 79
4, 16864, Note_off_c, 2, 72, 64
4, 16896, Note_on_c, 2, 76, 79
4, 16960, Note_off_c, 2, 76, 64
4, 16992, Note_on_c, 2, 76, 79
4, 17056, Note_off_c, 2, 76, 64
4, 17088, Note_on_c, 2, 76, 79
4, 17152, Note_off_c, 2, 76, 64
4, 17184, Note_on_c, 2, 74, 79
4, 17344, Note_off_c, 2, 74, 64
4, 17376, Note_on_c, 2, 74, 79
4, 17504, Note_off_c, 2, 74, 64
4, 17568, Note_on_c, 2, 74, 79
4, 17632, Note_off_c, 2, 74, 64
4, 17664, Note_on_c, 2, 76, 79
4, 17728, Note_off_c, 2, 76, 64
4, 17760, Note_on_c, 2, 67, 79
4, 17824, Note_off_c, 2, 67, 64
4, 17856, Note_on_c, 2, 67, 79
4, 17920, Note_off_c, 2, 67, 64
4, 17952, Note_on_c, 2, 69, 79
4, 18112, Note_off_c, 2, 69, 64
4, 18144, Note_on_c, 2, 69, 79
4, 18368, Note_off_c, 2, 69, 64
4, 18432, Note_on_c, 2, 76, 79
4, 18560, Note_off_c, 2, 76, 64
4, 18624, Note_on_c, 2, 67, 79
4, 18688, Note_off_c, 2, 67, 64
4, 18720, Note_on_c, 2, 69, 79
4, 18880, Note_off_c, 2, 69, 64
4, 18912, Note_on_c, 2, 69, 79
4, 19072, Note_off_c, 2, 69, 64
4, 19104, Note_on_c, 2, 69, 79
4, 19168, Note_off_c, 2, 69, 64
4, 19200, Note_on_c, 2, 69, 79
4, 19328, Note_off_c, 2, 69, 64
4, 19392, Note_on_c, 2, 69, 79
4, 19456, Note_off_c, 2, 69, 64
4, 19488, Note_on_c, 2, 69, 79
4, 19552, Note_off_c, 2, 69, 64
4, 19584, Note_on_c, 2, 72, 79
4, 19648, Note_off_c, 2, 72, 64
4, 19680, Note_on_c, 2, 69, 79
4, 19744, Note_off_c, 2, 69, 64
4, 19776, Note_on_c, 2, 69, 79
4, 19904, Note_off_c, 2, 69, 64
4, 19968, Note_on_c, 2, 64, 79
4, 20220, Note_off_c, 2, 64, 64
4, 20448, Note_on_c, 2, 72, 79
4, 20512, Note_off_c, 2, 72, 64
4, 20544, Note_on_c, 2, 69, 79
4, 20608, Note_off_c, 2, 69, 64
4, 20640, Note_on_c, 2, 69, 79
4, 20704, Note_off_c, 2, 69, 64
4, 20736, Note_on_c, 2, 69, 79
4, 20800, Note_off_c, 2, 69, 64
4, 20832, Note_on_c, 2, 69, 79
4, 20896, Note_off_c, 2, 69, 64
4, 20928, Note_on_c, 2, 69, 79
4, 20992, Note_off_c, 2, 69, 64
4, 21024, Note_on_c, 2, 69, 79
4, 21088, Note_off_c, 2, 69, 64
4, 21216, Note_on_c, 2, 76, 79
4, 21376, Note_off_c, 2, 76, 64
4, 21408, Note_on_c, 2, 69, 79
4, 21472, Note_off_c, 2, 69, 64
4, 22176, Note_on_c, 2, 69, 79
4, 22240, Note_off_c, 2, 69, 64
4, 22272, Note_on_c, 2, 69, 79
4, 22400, Note_off_c, 2, 69, 64
4, 22464, Note_on_c, 2, 69, 79
4, 22528, Note_off_c, 2, 69, 64
4, 22560, Note_on_c, 2, 69, 79
4, 22624, Note_off_c, 2, 69, 64
4, 22656, Note_on_c, 2, 72, 79
4, 22720, Note_off_c, 2, 72, 64
4, 22752, Note_on_c, 2, 69, 79
4, 22816, Note_off_c, 2, 69, 64
4, 22848, Note_on_c, 2, 69, 79
4, 22912, Note_off_c, 2, 69, 64
4, 22944, Note_on_c, 2, 67, 79
4, 23008, Note_off_c, 2, 67, 64
4, 23040, Note_on_c, 2, 69, 79
4, 23420, Note_off_c, 2, 69, 64
4, 23616, Note_on_c, 2, 69, 79
4, 23680, Note_off_c, 2, 69, 64
4, 23712, Note_on_c, 2, 67, 79
4, 23776, Note_off_c, 2, 67, 64
4, 23808, Note_on_c, 2, 69, 79
4, 23872, Note_off_c, 2, 69, 64
4, 23904, Note_on_c, 2, 69, 79
4, 23968, Note_off_c, 2, 69, 64
4, 24000, Note_on_c, 2, 69, 79
4, 24064, Note_off_c, 2, 69, 64
4, 24096, Note_on_c, 2, 69, 79
4, 24160, Note_off_c, 2, 69, 64
4, 24288, Note_on_c, 2, 74, 79
4, 24448, Note_off_c, 2, 74, 64
4, 24480, Note_on_c, 2, 72, 79
4, 24544, Note_off_c, 2, 72, 64
4, 25248, Note_on_c, 2, 69, 79
4, 25312, Note_off_c, 2, 69, 64
4, 25344, Note_on_c, 2, 69, 79
4, 25408, Note_off_c, 2, 69, 64
4, 25440, Note_on_c, 2, 69, 79
4, 25504, Note_off_c, 2, 69, 64
4, 25536, Note_on_c, 2, 69, 79
4, 25600, Note_off_c, 2, 69, 64
4, 25632, Note_on_c, 2, 69, 79
4, 25696, Note_off_c, 2, 69, 64
4, 25728, Note_on_c, 2, 72, 79
4, 25792, Note_off_c, 2, 72, 64
4, 25824, Note_on_c, 2, 69, 79
4, 25888, Note_off_c, 2, 69, 64
4, 25920, Note_on_c, 2, 69, 79
4, 26048, Note_off_c, 2, 69, 64
4, 26112, Note_on_c, 2, 64, 79
4, 26364, Note_off_c, 2, 64, 64
4, 26592, Note_on_c, 2, 72, 79
4, 26656, Note_off_c, 2, 72, 64
4, 26688, Note_on_c, 2, 69, 79
4, 26752, Note_off_c, 2, 69, 64
4, 26784, Note_on_c, 2, 67, 79
4, 26848, Note_off_c, 2, 67, 64
4, 26880, Note_on_c, 2, 69, 79
4, 26944, Note_off_c, 2, 69, 64
4, 26976, Note_on_c, 2, 69, 79
4, 27040, Note_off_c, 2, 69, 64
4, 27072, Note_on_c, 2, 69, 79
4, 27136, Note_off_c, 2, 69, 64
4, 27168, Note_on_c, 2, 69, 79
4, 27232, Note_off_c, 2, 69, 64
4, 27264, Note_on_c, 2, 76, 79
4, 27328, Note_off_c, 2, 76, 64
4, 27360, Note_on_c, 2, 71, 79
4, 27424, Note_off_c, 2, 71, 64
4, 27456, Note_on_c, 2, 69, 79
4, 28220, Note_off_c, 2, 69, 64
4, 28320, Note_on_c, 2, 69, 79
4, 28384, Note_off_c, 2, 69, 64
4, 28416, Note_on_c, 2, 69, 79
4, 28480, Note_off_c, 2, 69, 64
4, 28512, Note_on_c, 2, 69, 79
4, 28576, Note_off_c, 2, 69, 64
4, 28608, Note_on_c, 2, 69, 79
4, 28672, Note_off_c, 2, 69, 64
4, 28704, Note_on_c, 2, 69, 79
4, 28768, Note_off_c, 2, 69, 64
4, 28800, Note_on_c, 2, 72, 79
4, 28864, Note_off_c, 2, 72, 64
4, 28896, Note_on_c, 2, 69, 79
4, 29120, Note_off_c, 2, 69, 64
4, 29184, Note_on_c, 2, 64, 79
4, 29564, Note_off_c, 2, 64, 64
4, 29760, Note_on_c, 2, 69, 79
4, 29824, Note_off_c, 2, 69, 64
4, 29856, Note_on_c, 2, 67, 79
4, 29920, Note_off_c, 2, 67, 64
4, 29952, Note_on_c, 2, 69, 79
4, 30016, Note_off_c, 2, 69, 64
4, 30048, Note_on_c, 2, 69, 79
4, 30112, Note_off_c, 2, 69, 64
4, 30144, Note_on_c, 2, 69, 79
4, 30208, Note_off_c, 2, 69, 64
4, 30240, Note_on_c, 2, 69, 79
4, 30304, Note_off_c, 2, 69, 64
4, 30336, Note_on_c, 2, 74, 79
4, 30400, Note_off_c, 2, 74, 64
4, 30432, Note_on_c, 2, 69, 79
4, 30592, Note_off_c, 2, 69, 64
4, 30624, Note_on_c, 2, 67, 79
4, 30688, Note_off_c, 2, 67, 64
4, 30720, Note_on_c, 2, 69, 79
4, 31296, Note_off_c, 2, 69, 64
4, 31392, Note_on_c, 2, 76, 79
4, 31456, Note_off_c, 2, 76, 64
4, 31488, Note_on_c, 2, 77, 79
4, 31552, Note_off_c, 2, 77, 64
4, 31584, Note_on_c, 2, 76, 79
4, 31648, Note_off_c, 2, 76, 64
4, 31680, Note_on_c, 2, 74, 79
4, 31744, Note_off_c, 2, 74, 64
4, 31776, Note_on_c, 2, 72, 79
4, 31840, Note_off_c, 2, 72, 64
4, 31872, Note_on_c, 2, 76, 79
4, 32000, Note_off_c, 2, 76, 64
4, 32064, Note_on_c, 2, 74, 79
4, 32128, Note_off_c, 2, 74, 64
4, 32160, Note_on_c, 2, 72, 79
4, 32224, Note_off_c, 2, 72, 64
4, 32256, Note_on_c, 2, 76, 79
4, 32320, Note_off_c, 2, 76, 64
4, 32352, Note_on_c, 2, 76, 79
4, 32416, Note_off_c, 2, 76, 64
4, 32448, Note_on_c, 2, 76, 79
4, 32512, Note_off_c, 2, 76, 64
4, 32544, Note_on_c, 2, 74, 79
4, 32704, Note_off_c, 2, 74, 64
4, 32736, Note_on_c, 2, 74, 79
4, 32896, Note_off_c, 2, 74, 64
4, 32928, Note_on_c, 2, 74, 79
4, 32992, Note_off_c, 2, 74, 64
4, 33024, Note_on_c, 2, 76, 79
4, 33088, Note_off_c, 2, 76, 64
4, 33120, Note_on_c, 2, 67, 79
4, 33184, Note_off_c, 2, 67, 64
4, 33216, Note_on_c, 2, 67, 79
4, 33280, Note_off_c, 2, 67, 64
4, 33312, Note_on_c, 2, 69, 79
4, 33472, Note_off_c, 2, 69, 64
4, 33504, Note_on_c, 2, 69, 79
4, 33728, Note_off_c, 2, 69, 64
4, 33792, Note_on_c, 2, 76, 79
4, 33920, Note_off_c, 2, 76, 64
4, 33984, Note_on_c, 2, 67, 79
4, 34048, Note_off_c, 2, 67, 64
4, 34080, Note_on_c, 2, 69, 79
4, 34240, Note_off_c, 2, 69, 64
4, 34272, Note_on_c, 2, 69, 79
4, 34432, Note_off_c, 2, 69, 64
4, 34464, Note_on_c, 2, 76, 79
4, 34528, Note_off_c, 2, 76, 64
4, 34560, Note_on_c, 2, 77, 79
4, 34624, Note_off_c, 2, 77, 64
4, 34656, Note_on_c, 2, 76, 79
4, 34720, Note_off_c, 2, 76, 64
4, 34752, Note_on_c, 2, 74, 79
4, 34816, Note_off_c, 2, 74, 64
4, 34848, Note_on_c, 2, 72, 79
4, 34912, Note_off_c, 2, 72, 64
4, 34944, Note_on_c, 2, 76, 79
4, 35072, Note_off_c, 2, 76, 64
4, 35136, Note_on_c, 2, 74, 79
4, 35200, Note_off_c, 2, 74, 64
4, 35232, Note_on_c, 2, 72, 79
4, 35296, Note_off_c, 2, 72, 64
4, 35328, Note_on_c, 2, 76, 79
4, 35392, Note_off_c, 2, 76, 64
4, 35424, Note_on_c, 2, 76, 79
4, 35488, Note_off_c, 2, 76, 64
4, 35520, Note_on_c, 2, 76, 79
4, 35584, Note_off_c, 2, 76, 64
4, 35616, Note_on_c, 2, 74, 79
4, 35776, Note_off_c, 2, 74, 64
4, 35808, Note_on_c, 2, 74, 79
4, 35936, Note_off_c, 2, 74, 64
4, 36000, Note_on_c, 2, 74, 79
4, 36064, Note_off_c, 2, 74, 64
4, 36096, Note_on_c, 2, 76, 79
4, 36160, Note_off_c, 2, 76, 64
4, 36192, Note_on_c, 2, 67, 79
4, 36256, Note_off_c, 2, 67, 64
4, 36288, Note_on_c, 2, 67, 79
4, 36352, Note_off_c, 2, 67, 64
4, 36384, Note_on_c, 2, 69, 79
4, 36544, Note_off_c, 2, 69, 64
4, 36576, Note_on_c, 2, 69, 79
4, 36800, Note_off_c, 2, 69, 64
4, 36864, Note_on_c, 2, 76, 79
4, 36992, Note_off_c, 2, 76, 64
4, 37056, Note_on_c, 2, 67, 79
4, 37120, Note_off_c, 2, 67, 64
4, 37152, Note_on_c, 2, 69, 79
4, 37312, Note_off_c, 2, 69, 64
4, 37344, Note_on_c, 2, 69, 79
4, 37504, Note_off_c, 2, 69, 64
4, 37536, Note_on_c, 2, 69, 79
4, 37600, Note_off_c, 2, 69, 64
4, 37632, Note_on_c, 2, 69, 79
4, 37696, Note_off_c, 2, 69, 64
4, 37728, Note_on_c, 2, 69, 79
4, 37792, Note_off_c, 2, 69, 64
4, 37824, Note_on_c, 2, 69, 79
4, 37888, Note_off_c, 2, 69, 64
4, 37920, Note_on_c, 2, 69, 79
4, 37984, Note_off_c, 2, 69, 64
4, 38016, Note_on_c, 2, 72, 79
4, 38080, Note_off_c, 2, 72, 64
4, 38112, Note_on_c, 2, 69, 79
4, 38336, Note_off_c, 2, 69, 64
4, 38880, Note_on_c, 2, 69, 79
4, 39040, Note_off_c, 2, 69, 64
4, 39072, Note_on_c, 2, 67, 79
4, 39136, Note_off_c, 2, 67, 64
4, 39168, Note_on_c, 2, 69, 79
4, 39232, Note_off_c, 2, 69, 64
4, 39264, Note_on_c, 2, 69, 79
4, 39328, Note_off_c, 2, 69, 64
4, 39360, Note_on_c, 2, 69, 79
4, 39424, Note_off_c, 2, 69, 64
4, 39456, Note_on_c, 2, 69, 79
4, 39520, Note_off_c, 2, 69, 64
4, 39552, Note_on_c, 2, 69, 79
4, 39804, Note_off_c, 2, 69, 64
4, 40608, Note_on_c, 2, 69, 79
4, 40672, Note_off_c, 2, 69, 64
4, 40704, Note_on_c, 2, 69, 79
4, 40768, Note_off_c, 2, 69, 64
4, 40800, Note_on_c, 2, 69, 79
4, 40960, Note_off_c, 2, 69, 64
4, 40992, Note_on_c, 2, 69, 79
4, 41024, Note_off_c, 2, 69, 64
4, 41040, Note_on_c, 2, 69, 79
4, 41072, Note_off_c, 2, 69, 64
4, 41088, Note_on_c, 2, 72, 79
4, 41340, Note_off_c, 2, 72, 64
4, 41952, Note_on_c, 2, 69, 79
4, 42016, Note_off_c, 2, 69, 64
4, 42048, Note_on_c, 2, 69, 79
4, 42112, Note_off_c, 2, 69, 64
4, 42144, Note_on_c, 2, 69, 79
4, 42208, Note_off_c, 2, 69, 64
4, 42240, Note_on_c, 2, 69, 79
4, 42368, Note_off_c, 2, 69, 64
4, 42432, Note_on_c, 2, 69, 79
4, 42560, Note_off_c, 2, 69, 64
4, 42624, Note_on_c, 2, 69, 79
4, 42876, Note_off_c, 2, 69, 64
4, 43488, Note_on_c, 2, 69, 79
4, 43552, Note_off_c, 2, 69, 64
4, 43584, Note_on_c, 2, 69, 79
4, 43648, Note_off_c, 2, 69, 64
4, 43680, Note_on_c, 2, 67, 79
4, 43744, Note_off_c, 2, 67, 64
4, 43776, Note_on_c, 2, 69, 79
4, 43904, Note_off_c, 2, 69, 64
4, 43968, Note_on_c, 2, 69, 79
4, 44032, Note_off_c, 2, 69, 64
4, 44064, Note_on_c, 2, 69, 79
4, 44128, Note_off_c, 2, 69, 64
4, 44160, Note_on_c, 2, 72, 79
4, 44288, Note_off_c, 2, 72, 64
4, 44352, Note_on_c, 2, 69, 79
4, 44480, Note_off_c, 2, 69, 64
4, 45024, Note_on_c, 2, 69, 79
4, 45184, Note_off_c, 2, 69, 64
4, 45216, Note_on_c, 2, 67, 79
4, 45280, Note_off_c, 2, 67, 64
4, 45312, Note_on_c, 2, 69, 79
4, 45376, Note_off_c, 2, 69, 64
4, 45408, Note_on_c, 2, 69, 79
4, 45472, Note_off_c, 2, 69, 64
4, 45504, Note_on_c, 2, 69, 79
4, 45632, Note_off_c, 2, 69, 64
4, 45696, Note_on_c, 2, 69, 79
4, 45824, Note_off_c, 2, 69, 64
4, 45888, Note_on_c, 2, 69, 79
4, 46016, Note_off_c, 2, 69, 64
4, 46464, Note_on_c, 2, 59, 79
4, 46656, Note_off_c, 2, 59, 64
4, 46752, Note_on_c, 2, 67, 79
4, 46816, Note_off_c, 2, 67, 64
4, 46848, Note_on_c, 2, 69, 79
4, 46976, Note_off_c, 2, 69, 64
4, 47040, Note_on_c, 2, 69, 79
4, 47104, Note_off_c, 2, 69, 64
4, 47136, Note_on_c, 2, 69, 79
4, 47200, Note_off_c, 2, 69, 64
4, 47232, Note_on_c, 2, 72, 79
4, 47296, Note_off_c, 2, 72, 64
4, 47328, Note_on_c, 2, 69, 79
4, 47552, Note_off_c, 2, 69, 64
4, 48096, Note_on_c, 2, 69, 79
4, 48256, Note_off_c, 2, 69, 64
4, 48288, Note_on_c, 2, 69, 79
4, 48352, Note_off_c, 2, 69, 64
4, 48384, Note_on_c, 2, 81, 79
4, 48448, Note_off_c, 2, 81, 64
4, 48480, Note_on_c, 2, 69, 79
4, 48640, Note_off_c, 2, 69, 64
4, 48672, Note_on_c, 2, 81, 79
4, 48832, Note_off_c, 2, 81, 64
4, 48864, Note_on_c, 2, 81, 79
4, 49088, Note_off_c, 2, 81, 64
4, 49152, Note_on_c, 2, 81, 79
4, 49532, Note_off_c, 2, 81, 64
4, 49824, Note_on_c, 2, 76, 79
4, 49888, Note_off_c, 2, 76, 64
4, 49920, Note_on_c, 2, 77, 79
4, 49984, Note_off_c, 2, 77, 64
4, 50016, Note_on_c, 2, 76, 79
4, 50080, Note_off_c, 2, 76, 64
4, 50112, Note_on_c, 2, 74, 79
4, 50176, Note_off_c, 2, 74, 64
4, 50208, Note_on_c, 2, 72, 79
4, 50272, Note_off_c, 2, 72, 64
4, 50304, Note_on_c, 2, 76, 79
4, 50432, Note_off_c, 2, 76, 64
4, 50496, Note_on_c, 2, 74, 79
4, 50560, Note_off_c, 2, 74, 64
4, 50592, Note_on_c, 2, 72, 79
4, 50656, Note_off_c, 2, 72, 64
4, 50688, Note_on_c, 2, 76, 79
4, 50752, Note_off_c, 2, 76, 64
4, 50784, Note_on_c, 2, 76, 79
4, 50848, Note_off_c, 2, 76, 64
4, 50880, Note_on_c, 2, 76, 79
4, 50944, Note_off_c, 2, 76, 64
4, 50976, Note_on_c, 2, 74, 79
4, 51136, Note_off_c, 2, 74, 64
4, 51168, Note_on_c, 2, 74, 79
4, 51328, Note_off_c, 2, 74, 64
4, 51360, Note_on_c, 2, 74, 79
4, 51424, Note_off_c, 2, 74, 64
4, 51456, Note_on_c, 2, 76, 79
4, 51520, Note_off_c, 2, 76, 64
4, 51552, Note_on_c, 2, 67, 79
4, 51616, Note_off_c, 2, 67, 64
4, 51648, Note_on_c, 2, 67, 79
4, 51712, Note_off_c, 2, 67, 64
4, 51744, Note_on_c, 2, 69, 79
4, 51904, Note_off_c, 2, 69, 64
4, 51936, Note_on_c, 2, 69, 79
4, 52160, Note_off_c, 2, 69, 64
4, 52224, Note_on_c, 2, 76, 79
4, 52352, Note_off_c, 2, 76, 64
4, 52416, Note_on_c, 2, 67, 79
4, 52480, Note_off_c, 2, 67, 64
4, 52512, Note_on_c, 2, 69, 79
4, 52672, Note_off_c, 2, 69, 64
4, 52704, Note_on_c, 2, 69, 79
4, 52864, Note_off_c, 2, 69, 64
4, 52896, Note_on_c, 2, 76, 79
4, 52960, Note_off_c, 2, 76, 64
4, 52992, Note_on_c, 2, 77, 79
4, 53056, Note_off_c, 2, 77, 64
4, 53088, Note_on_c, 2, 76, 79
4, 53152, Note_off_c, 2, 76, 64
4, 53184, Note_on_c, 2, 74, 79
4, 53248, Note_off_c, 2, 74, 64
4, 53280, Note_on_c, 2, 72, 79
4, 53344, Note_off_c, 2, 72, 64
4, 53376, Note_on_c, 2, 76, 79
4, 53504, Note_off_c, 2, 76, 64
4, 53568, Note_on_c, 2, 74, 79
4, 53632, Note_off_c, 2, 74, 64
4, 53664, Note_on_c, 2, 72, 79
4, 53728, Note_off_c, 2, 72, 64
4, 53760, Note_on_c, 2, 76, 79
4, 53824, Note_off_c, 2, 76, 64
4, 53856, Note_on_c, 2, 76, 79
4, 53920, Note_off_c, 2, 76, 64
4, 53952, Note_on_c, 2, 76, 79
4, 54016, Note_off_c, 2, 76, 64
4, 54048, Note_on_c, 2, 74, 79
4, 54208, Note_off_c, 2, 74, 64
4, 54240, Note_on_c, 2, 74, 79
4, 54400, Note_off_c, 2, 74, 64
4, 54432, Note_on_c, 2, 74, 79
4, 54496, Note_off_c, 2, 74, 64
4, 54528, Note_on_c, 2, 76, 79
4, 54592, Note_off_c, 2, 76, 64
4, 54624, Note_on_c, 2, 67, 79
4, 54688, Note_off_c, 2, 67, 64
4, 54720, Note_on_c, 2, 67, 79
4, 54784, Note_off_c, 2, 67, 64
4, 54816, Note_on_c, 2, 69, 79
4, 54976, Note_off_c, 2, 69, 64
4, 55008, Note_on_c, 2, 69, 79
4, 55232, Note_off_c, 2, 69, 64
4, 55296, Note_on_c, 2, 76, 79
4, 55424, Note_off_c, 2, 76, 64
4, 55488, Note_on_c, 2, 67, 79
4, 55552, Note_off_c, 2, 67, 64
4, 55584, Note_on_c, 2, 69, 79
4, 55744, Note_off_c, 2, 69, 64
4, 55776, Note_on_c, 2, 69, 79
4, 55936, Note_off_c, 2, 69, 64
4, 55968, Note_on_c, 2, 69, 79
4, 56032, Note_off_c, 2, 69, 64
4, 56064, Note_on_c, 2, 69, 79
4, 56192, Note_off_c, 2, 69, 64
4, 56256, Note_on_c, 2, 69, 79
4, 56320, Note_off_c, 2, 69, 64
4, 56352, Note_on_c, 2, 69, 79
4, 56416, Note_off_c, 2, 69, 64
4, 56448, Note_on_c, 2, 72, 79
4, 56512, Note_off_c, 2, 72, 64
4, 56544, Note_on_c, 2, 69, 79
4, 56608, Note_off_c, 2, 69, 64
4, 56640, Note_on_c, 2, 69, 79
4, 56768, Note_off_c, 2, 69, 64
4, 56832, Note_on_c, 2, 64, 79
4, 57084, Note_off_c, 2, 64, 64
4, 57312, Note_on_c, 2, 72, 79
4, 57376, Note_off_c, 2, 72, 64
4, 57408, Note_on_c, 2, 69, 79
4, 57472, Note_off_c, 2, 69, 64
4, 57504, Note_on_c, 2, 69, 79
4, 57568, Note_off_c, 2, 69, 64
4, 57600, Note_on_c, 2, 69, 79
4, 57664, Note_off_c, 2, 69, 64
4, 57696, Note_on_c, 2, 69, 79
4, 57760, Note_off_c, 2, 69, 64
4, 57792, Note_on_c, 2, 69, 79
4, 57856, Note_off_c, 2, 69, 64
4, 57888, Note_on_c, 2, 69, 79
4, 57952, Note_off_c, 2, 69, 64
4, 58080, Note_on_c, 2, 76, 79
4, 58240, Note_off_c, 2, 76, 64
4, 58272, Note_on_c, 2, 69, 79
4, 58336, Note_off_c, 2, 69, 64
4, 59040, Note_on_c, 2, 69, 79
4, 59104, Note_off_c, 2, 69, 64
4, 59136, Note_on_c, 2, 69, 79
4, 59264, Note_off_c, 2, 69, 64
4, 59328, Note_on_c, 2, 69, 79
4, 59392, Note_off_c, 2, 69, 64
4, 59424, Note_on_c, 2, 69, 79
4, 59488, Note_off_c, 2, 69, 64
4, 59520, Note_on_c, 2, 72, 79
4, 59584, Note_off_c, 2, 72, 64
4, 59616, Note_on_c, 2, 69, 79
4, 59680, Note_off_c, 2, 69, 64
4, 59712, Note_on_c, 2, 69, 79
4, 59776, Note_off_c, 2, 69, 64
4, 59808, Note_on_c, 2, 67, 79
4, 59872, Note_off_c, 2, 67, 64
4, 59904, Note_on_c, 2, 69, 79
4, 60284, Note_off_c, 2, 69, 64
4, 60480, Note_on_c, 2, 69, 79
4, 60544, Note_off_c, 2, 69, 64
4, 60576, Note_on_c, 2, 67, 79
4, 60640, Note_off_c, 2, 67, 64
4, 60672, Note_on_c, 2, 69, 79
4, 60736, Note_off_c, 2, 69, 64
4, 60768, Note_on_c, 2, 69, 79
4, 60832, Note_off_c, 2, 69, 64
4, 60864, Note_on_c, 2, 69, 79
4, 60928, Note_off_c, 2, 69, 64
4, 60960, Note_on_c, 2, 69, 79
4, 61024, Note_off_c, 2, 69, 64
4, 61152, Note_on_c, 2, 74, 79
4, 61312, Note_off_c, 2, 74, 64
4, 61344, Note_on_c, 2, 72, 79
4, 61408, Note_off_c, 2, 72, 64
4, 62112, Note_on_c, 2, 69, 79
4, 62176, Note_off_c, 2, 69, 64
4, 62208, Note_on_c, 2, 69, 79
4, 62272, Note_off_c, 2, 69, 64
4, 62304, Note_on_c, 2, 69, 79
4, 62368, Note_off_c, 2, 69, 64
4, 62400, Note_on_c, 2, 69, 79
4, 62464, Note_off_c, 2, 69, 64
4, 62496, Note_on_c, 2, 69, 79
4, 62560, Note_off_c, 2, 69, 64
4, 62592, Note_on_c, 2, 72, 79
4, 62656, Note_off_c, 2, 72, 64
4, 62688, Note_on_c, 2, 69, 79
4, 62752, Note_off_c, 2, 69, 64
4, 62784, Note_on_c, 2, 69, 79
4, 62912, Note_off_c, 2, 69, 64
4, 62976, Note_on_c, 2, 64, 79
4, 63228, Note_off_c, 2, 64, 64
4, 63456, Note_on_c, 2, 72, 79
4, 63520, Note_off_c, 2, 72, 64
4, 63552, Note_on_c, 2, 69, 79
4, 63616, Note_off_c, 2, 69, 64
4, 63648, Note_on_c, 2, 67, 79
4, 63712, Note_off_c, 2, 67, 64
4, 63744, Note_on_c, 2, 69, 79
4, 63808, Note_off_c, 2, 69, 64
4, 63840, Note_on_c, 2, 69, 79
4, 63904, Note_off_c, 2, 69, 64
4, 63936, Note_on_c, 2, 69, 79
4, 64000, Note_off_c, 2, 69, 64
4, 64032, Note_on_c, 2, 69, 79
4, 64096, Note_off_c, 2, 69, 64
4, 64128, Note_on_c, 2, 76, 79
4, 64192, Note_off_c, 2, 76, 64
4, 64224, Note_on_c, 2, 71, 79
4, 64288, Note_off_c, 2, 71, 64
4, 64320, Note_on_c, 2, 69, 79
4, 65084, Note_off_c, 2, 69, 64
4, 65184, Note_on_c, 2, 69, 79
4, 65248, Note_off_c, 2, 69, 64
4, 65280, Note_on_c, 2, 69, 79
4, 65344, Note_off_c, 2, 69, 64
4, 65376, Note_on_c, 2, 69, 79
4, 65440, Note_off_c, 2, 69, 64
4, 65472, Note_on_c, 2, 69, 79
4, 65536, Note_off_c, 2, 69, 64
4, 65568, Note_on_c, 2, 69, 79
4, 65632, Note_off_c, 2, 69, 64
4, 65664, Note_on_c, 2, 72, 79
4, 65728, Note_off_c, 2, 72, 64
4, 65760, Note_on_c, 2, 69, 79
4, 65984, Note_off_c, 2, 69, 64
4, 66048, Note_on_c, 2, 64, 79
4, 66428, Note_off_c, 2, 64, 64
4, 66624, Note_on_c, 2, 69, 79
4, 66688, Note_off_c, 2, 69, 64
4, 66720, Note_on_c, 2, 67, 79
4, 66784, Note_off_c, 2, 67, 64
4, 66816, Note_on_c, 2, 69, 79
4, 66880, Note_off_c, 2, 69, 64
4, 66912, Note_on_c, 2, 69, 79
4, 66976, Note_off_c, 2, 69, 64
4, 67008, Note_on_c, 2, 69, 79
4, 67072, Note_off_c, 2, 69, 64
4, 67104, Note_on_c, 2, 69, 79
4, 67168, Note_off_c, 2, 69, 64
4, 67200, Note_on_c, 2, 74, 79
4, 67264, Note_off_c, 2, 74, 64
4, 67296, Note_on_c, 2, 69, 79
4, 67456, Note_off_c, 2, 69, 64
4, 67488, Note_on_c, 2, 67, 79
4, 67552, Note_off_c, 2, 67, 64
4, 67584, Note_on_c, 2, 69, 79
4, 68160, Note_off_c, 2, 69, 64
4, 68256, Note_on_c, 2, 76, 79
4, 68320, Note_off_c, 2, 76, 64
4, 68352, Note_on_c, 2, 77, 79
4, 68416, Note_off_c, 2, 77, 64
4, 68448, Note_on_c, 2, 76, 79
4, 68512, Note_off_c, 2, 76, 64
4, 68544, Note_on_c, 2, 74, 79
4, 68608, Note_off_c, 2, 74, 64
4, 68640, Note_on_c, 2, 72, 79
4, 68704, Note_off_c, 2, 72, 64
4, 68736, Note_on_c, 2, 76, 79
4, 68864, Note_off_c, 2, 76, 64
4, 68928, Note_on_c, 2, 74, 79
4, 68992, Note_off_c, 2, 74, 64
4, 69024, Note_on_c, 2, 72, 79
4, 69088, Note_off_c, 2, 72, 64
4, 69120, Note_on_c, 2, 76, 79
4, 69184, Note_off_c, 2, 76, 64
4, 69216, Note_on_c, 2, 76, 79
4, 69280, Note_off_c, 2, 76, 64
4, 69312, Note_on_c, 2, 76, 79
4, 69376, Note_off_c, 2, 76, 64
4, 69408, Note_on_c, 2, 74, 79
4, 69568, Note_off_c, 2, 74, 64
4, 69600, Note_on_c, 2, 74, 79
4, 69760, Note_off_c, 2, 74, 64
4, 69792, Note_on_c, 2, 74, 79
4, 69856, Note_off_c, 2, 74, 64
4, 69888, Note_on_c, 2, 76, 79
4, 69952, Note_off_c, 2, 76, 64
4, 69984, Note_on_c, 2, 67, 79
4, 70048, Note_off_c, 2, 67, 64
4, 70080, Note_on_c, 2, 67, 79
4, 70144, Note_off_c, 2, 67, 64
4, 70176, Note_on_c, 2, 69, 79
4, 70336, Note_off_c, 2, 69, 64
4, 70368, Note_on_c, 2, 69, 79
4, 70592, Note_off_c, 2, 69, 64
4, 70656, Note_on_c, 2, 76, 79
4, 70784, Note_off_c, 2, 76, 64
4, 70848, Note_on_c, 2, 67, 79
4, 70912, Note_off_c, 2, 67, 64
4, 70944, Note_on_c, 2, 69, 79
4, 71104, Note_off_c, 2, 69, 64
4, 71136, Note_on_c, 2, 69, 79
4, 71296, Note_off_c, 2, 69, 64
4, 71328, Note_on_c, 2, 76, 79
4, 71392, Note_off_c, 2, 76, 64
4, 71424, Note_on_c, 2, 77, 79
4, 71488, Note_off_c, 2, 77, 64
4, 71520, Note_on_c, 2, 76, 79
4, 71584, Note_off_c, 2, 76, 64
4, 71616, Note_on_c, 2, 74, 79
4, 71680, Note_off_c, 2, 74, 64
4, 71712, Note_on_c, 2, 72, 79
4, 71776, Note_off_c, 2, 72, 64
4, 71808, Note_on_c, 2, 76, 79
4, 71936, Note_off_c, 2, 76, 64
4, 72000, Note_on_c, 2, 74, 79
4, 72064, Note_off_c, 2, 74, 64
4, 72096, Note_on_c, 2, 72, 79
4, 72160, Note_off_c, 2, 72, 64
4, 72192, Note_on_c, 2, 76, 79
4, 72256, Note_off_c, 2, 76, 64
4, 72288, Note_on_c, 2, 76, 79
4, 72352, Note_off_c, 2, 76, 64
4, 72384, Note_on_c, 2, 76, 79
4, 72448, Note_off_c, 2, 76, 64
4, 72480, Note_on_c, 2, 74, 79
4, 72640, Note_off_c, 2, 74, 64
4, 72672, Note_on_c, 2, 74, 79
4, 72800, Note_off_c, 2, 74, 64
4, 72864, Note_on_c, 2, 74, 79
4, 72928, Note_off_c, 2, 74, 64
4, 72960, Note_on_c, 2, 76, 79
4, 73024, Note_off_c, 2, 76, 64
4, 73056, Note_on_c, 2, 67, 79
4, 73120, Note_off_c, 2, 67, 64
4, 73152, Note_on_c, 2, 67, 79
4, 73216, Note_off_c, 2, 67, 64
4, 73248, Note_on_c, 2, 69, 79
4, 73408, Note_off_c, 2, 69, 64
4, 73440, Note_on_c, 2, 69, 79
4, 73664, Note_off_c, 2, 69, 64
4, 73728, Note_on_c, 2, 76, 79
4, 73856, Note_off_c, 2, 76, 64
4, 73920, Note_on_c, 2, 67, 79
4, 73984, Note_off_c, 2, 67, 64
4, 74016, Note_on_c, 2, 69, 79
4, 74176, Note_off_c, 2, 69, 64
4, 74208, Note_on_c, 2, 69, 79
4, 74368, Note_off_c, 2, 69, 64
4, 74400, Note_on_c, 2, 76, 79
4, 74464, Note_off_c, 2, 76, 64
4, 74496, Note_on_c, 2, 77, 79
4, 74560, Note_off_c, 2, 77, 64
4, 74592, Note_on_c, 2, 76, 79
4, 74656, Note_off_c, 2, 76, 64
4, 74688, Note_on_c, 2, 74, 79
4, 74752, Note_off_c, 2, 74, 64
4, 74784, Note_on_c, 2, 72, 79
4, 74848, Note_off_c, 2, 72, 64
4, 74880, Note_on_c, 2, 76, 79
4, 75008, Note_off_c, 2, 76, 64
4, 75072, Note_on_c, 2, 74, 79
4, 75136, Note_off_c, 2, 74, 64
4, 75168, Note_on_c, 2, 72, 79
4, 75232, Note_off_c, 2, 72, 64
4, 75264, Note_on_c, 2, 76, 79
4, 75328, Note_off_c, 2, 76, 64
4, 75360, Note_on_c, 2, 76, 79
4, 75424, Note_off_c, 2, 76, 64
4, 75456, Note_on_c, 2, 76, 79
4, 75520, Note_off_c, 2, 76, 64
4, 75552, Note_on_c, 2, 74, 79
4, 75712, Note_off_c, 2, 74, 64
4, 75744, Note_on_c, 2, 74, 79
4, 75904, Note_off_c, 2, 74, 64
4, 75936, Note_on_c, 2, 74, 79
4, 76000, Note_off_c, 2, 74, 64
4, 76032, Note_on_c, 2, 76, 79
4, 76096, Note_off_c, 2, 76, 64
4, 76128, Note_on_c, 2, 67, 79
4, 76192, Note_off_c, 2, 67, 64
4, 76224, Note_on_c, 2, 67, 79
4, 76288, Note_off_c, 2, 67, 64
4, 76320, Note_on_c, 2, 69, 79
4, 76480, Note_off_c, 2, 69, 64
4, 76512, Note_on_c, 2, 69, 79
4, 76736, Note_off_c, 2, 69, 64
4, 76800, Note_on_c, 2, 76, 79
4, 76928, Note_off_c, 2, 76, 64
4, 76992, Note_on_c, 2, 67, 79
4, 77056, Note_off_c, 2, 67, 64
4, 77088, Note_on_c, 2, 69, 79
4, 77248, Note_off_c, 2, 69, 64
4, 77280, Note_on_c, 2, 69, 79
4, 77440, Note_off_c, 2, 69, 64
4, 77472, Note_on_c, 2, 76, 79
4, 77536, Note_off_c, 2, 76, 64
4, 77568, Control_c, 2, 7, 96
4, 77568, Note_on_c, 2, 77, 79
4, 77632, Note_off_c, 2, 77, 64
4, 77664, Note_on_c, 2, 76, 79
4, 77688, Control_c, 2, 7, 95
4, 77728, Note_off_c, 2, 76, 64
4, 77760, Note_on_c, 2, 74, 79
4, 77784, Control_c, 2, 7, 94
4, 77824, Note_off_c, 2, 74, 64
4, 77856, Note_on_c, 2, 72, 79
4, 77880, Control_c, 2, 7, 93
4, 77920, Note_off_c, 2, 72, 64
4, 77952, Note_on_c, 2, 76, 79
4, 78000, Control_c, 2, 7, 92
4, 78080, Note_off_c, 2, 76, 64
4, 78096, Control_c, 2, 7, 91
4, 78144, Note_on_c, 2, 74, 79
4, 78192, Control_c, 2, 7, 90
4, 78208, Note_off_c, 2, 74, 64
4, 78240, Note_on_c, 2, 72, 79
4, 78304, Note_off_c, 2, 72, 64
4, 78312, Control_c, 2, 7, 89
4, 78336, Note_on_c, 2, 76, 79
4, 78400, Note_off_c, 2, 76, 64
4, 78408, Control_c, 2, 7, 88
4, 78432, Note_on_c, 2, 76, 79
4, 78496, Note_off_c, 2, 76, 64
4, 78504, Control_c, 2, 7, 87
4, 78528, Note_on_c, 2, 76, 79
4, 78592, Note_off_c, 2, 76, 64
4, 78624, Control_c, 2, 7, 86
4, 78624, Note_on_c, 2, 74, 79
4, 78720, Control_c, 2, 7, 85
4, 78784, Note_off_c, 2, 74, 64
4, 78816, Control_c, 2, 7, 84
4, 78816, Note_on_c, 2, 74, 79
4, 78936, Control_c, 2, 7, 83
4, 78976, Note_off_c, 2, 74, 64
4, 79008, Note_on_c, 2, 74, 79
4, 79032, Control_c, 2, 7, 82
4, 79072, Note_off_c, 2, 74, 64
4, 79104, Note_on_c, 2, 76, 79
4, 79128, Control_c, 2, 7, 81
4, 79168, Note_off_c, 2, 76, 64
4, 79200, Note_on_c, 2, 67, 79
4, 79248, Control_c, 2, 7, 80
4, 79264, Note_off_c, 2, 67, 64
4, 79296, Note_on_c, 2, 67, 79
4, 79344, Control_c, 2, 7, 79
4, 79360, Note_off_c, 2, 67, 64
4, 79392, Note_on_c, 2, 69, 79
4, 79440, Control_c, 2, 7, 78
4, 79552, Note_off_c, 2, 69, 64
4, 79560, Control_c, 2, 7, 77
4, 79584, Note_on_c, 2, 69, 79
4, 79656, Control_c, 2, 7, 76
4, 79752, Control_c, 2, 7, 75
4, 79808, Note_off_c, 2, 69, 64
4, 79872, Control_c, 2, 7, 74
4, 79872, Note_on_c, 2, 76, 79
4, 79968, Control_c, 2, 7, 73
4, 80000, Note_off_c, 2, 76, 64
4, 80064, Control_c, 2, 7, 72
4, 80064, Note_on_c, 2, 67, 79
4, 80128, Note_off_c, 2, 67, 64
4, 80160, Note_on_c, 2, 69, 79
4, 80184, Control_c, 2, 7, 71
4, 80280, Control_c, 2, 7, 70
4, 80320, Note_off_c, 2, 69, 64
4, 80352, Note_on_c, 2, 69, 79
4, 80376, Control_c, 2, 7, 69
4, 80496, Control_c, 2, 7, 68
4, 80512, Note_off_c, 2, 69, 64
4, 80544, Note_on_c, 2, 76, 79
4, 80592, Control_c, 2, 7, 67
4, 80608, Note_off_c, 2, 76, 64
4, 80640, Note_on_c, 2, 77, 79
4, 80688, Control_c, 2, 7, 66
4, 80704, Note_off_c, 2, 77, 64
4, 80736, Note_on_c, 2, 76, 79
4, 80800, Note_off_c, 2, 76, 64
4, 80808, Control_c, 2, 7, 65
4, 80832, Note_on_c, 2, 74, 79
4, 80896, Note_off_c, 2, 74, 64
4, 80904, Control_c, 2, 7, 64
4, 80928, Note_on_c, 2, 72, 79
4, 80992, Note_off_c, 2, 72, 64
4, 81000, Control_c, 2, 7, 63
4, 81024, Note_on_c, 2, 76, 79
4, 81120, Control_c, 2, 7, 62
4, 81152, Note_off_c, 2, 76, 64
4, 81216, Control_c, 2, 7, 61
4, 81216, Note_on_c, 2, 74, 79
4, 81280, Note_off_c, 2, 74, 64
4, 81312, Control_c, 2, 7, 60
4, 81312, Note_on_c, 2, 72, 79
4, 81376, Note_off_c, 2, 72, 64
4, 81408, Note_on_c, 2, 76, 79
4, 81432, Control_c, 2, 7, 59
4, 81472, Note_off_c, 2, 76, 64
4, 81504, Note_on_c, 2, 76, 79
4, 81528, Control_c, 2, 7, 58
4, 81568, Note_off_c, 2, 76, 64
4, 81600, Note_on_c, 2, 76, 79
4, 81624, Control_c, 2, 7, 57
4, 81664, Note_off_c, 2, 76, 64
4, 81696, Note_on_c, 2, 74, 79
4, 81744, Control_c, 2, 7, 56
4, 81840, Control_c, 2, 7, 55
4, 81856, Note_off_c, 2, 74, 64
4, 81888, Note_on_c, 2, 74, 79
4, 81936, Control_c, 2, 7, 54
4, 82048, Note_off_c, 2, 74, 64
4, 82056, Control_c, 2, 7, 53
4, 82080, Note_on_c, 2, 74, 79
4, 82144, Note_off_c, 2, 74, 64
4, 82152, Control_c, 2, 7, 52
4, 82176, Note_on_c, 2, 76, 79
4, 82240, Note_off_c, 2, 76, 64
4, 82248, Control_c, 2, 7, 51
4, 82272, Note_on_c, 2, 67, 79
4, 82336, Note_off_c, 2, 67, 64
4, 82368, Control_c, 2, 7, 50
4, 82368, Note_on_c, 2, 67, 79
4, 82432, Note_off_c, 2, 67, 64
4, 82464, Control_c, 2, 7, 49
4, 82464, Note_on_c, 2, 69, 79
4, 82560, Control_c, 2, 7, 48
4, 82624, Note_off_c, 2, 69, 64
4, 82656, Note_on_c, 2, 69, 79
4, 82680, Control_c, 2, 7, 47
4, 82776, Control_c, 2, 7, 46
4, 82872, Control_c, 2, 7, 45
4, 82880, Note_off_c, 2, 69, 64
4, 82944, Note_on_c, 2, 76, 79
4, 82992, Control_c, 2, 7, 44
4, 83072, Note_off_c, 2, 76, 64
4, 83088, Control_c, 2, 7, 43
4, 83136, Note_on_c, 2, 67, 79
4, 83184, Control_c, 2, 7, 42
4, 83200, Note_off_c, 2, 67, 64
4, 83232, Note_on_c, 2, 69, 79
4, 83304, Control_c, 2, 7, 41
4, 83392, Note_off_c, 2, 69, 64
4, 83400, Control_c, 2, 7, 40
4, 83424, Note_on_c, 2, 69, 79
4, 83496, Control_c, 2, 7, 39
4, 83584, Note_off_c, 2, 69, 64
4, 83616, Control_c, 2, 7, 38
4, 83616, Note_on_c, 2, 76, 79
4, 83680, Note_off_c, 2, 76, 64
4, 83712, Control_c, 2, 7, 37
4, 83712, Note_on_c, 2, 77, 79
4, 83776, Note_off_c, 2, 77, 64
4, 83808, Control_c, 2, 7, 36
4, 83808, Note_on_c, 2, 76, 79
4, 83872, Note_off_c, 2, 76, 64
4, 83904, Note_on_c, 2, 74, 79
4, 83928, Control_c, 2, 7, 35
4, 83968, Note_off_c, 2, 74, 64
4, 84000, Note_on_c, 2, 72, 79
4, 84024, Control_c, 2, 7, 34
4, 84064, Note_off_c, 2, 72, 64
4, 84096, Note_on_c, 2, 76, 79
4, 84120, Control_c, 2, 7, 33
4, 84224, Note_off_c, 2, 76, 64
4, 84240, Control_c, 2, 7, 32
4, 84288, Note_on_c, 2, 74, 79
4, 84336, Control_c, 2, 7, 31
4, 84352, Note_off_c, 2, 74, 64
4, 84384, Note_on_c, 2, 72, 79
4, 84432, Control_c, 2, 7, 30
4, 84448, Note_off_c, 2, 72, 64
4, 84480, Note_on_c, 2, 76, 79
4, 84544, Note_off_c, 2, 76, 64
4, 84552, Control_c, 2, 7, 29
4, 84576, Note_on_c, 2, 76, 79
4, 84640, Note_off_c, 2, 76, 64
4, 84648, Control_c, 2, 7, 28
4, 84672, Note_on_c, 2, 76, 79
4, 84736, Note_off_c, 2, 76, 64
4, 84744, Control_c, 2, 7, 27
4, 84768, Note_on_c, 2, 74, 79
4, 84864, Control_c, 2, 7, 26
4, 84928, Note_off_c, 2, 74, 64
4, 84960, Control_c, 2, 7, 25
4, 84960, Note_on_c, 2, 74, 79
4, 85056, Control_c, 2, 7, 24
4, 85120, Note_off_c, 2, 74, 64
4, 85152, Note_on_c, 2, 74, 79
4, 85176, Control_c, 2, 7, 23
4, 85216, Note_off_c, 2, 74, 64
4, 85248, Note_on_c, 2, 76, 79
4, 85272, Control_c, 2, 7, 22
4, 85312, Note_off_c, 2, 76, 64
4, 85344, Note_on_c, 2, 67, 79
4, 85368, Control_c, 2, 7, 21
4, 85408, Note_off_c, 2, 67, 64
4, 85440, Note_on_c, 2, 67, 79
4, 85488, Control_c, 2, 7, 20
4, 85504, Note_off_c, 2, 67, 64
4, 85536, Note_on_c, 2, 69, 79
4, 85584, Control_c, 2, 7, 19
4, 85680, Control_c, 2, 7, 18
4, 85696, Note_off_c, 2, 69, 64
4, 85728, Note_on_c, 2, 69, 79
4, 85800, Control_c, 2, 7, 17
4, 85896, Control_c, 2, 7, 16
4, 85952, Note_off_c, 2, 69, 64
4, 85992, Control_c, 2, 7, 15
4, 86016, Note_on_c, 2, 76, 79
4, 86112, Control_c, 2, 7, 14
4, 86144, Note_off_c, 2, 76, 64
4, 86208, Control_c, 2, 7, 13
4, 86208, Note_on_c, 2, 67, 79
4, 86272, Note_off_c, 2, 67, 64
4, 86304, Control_c, 2, 7, 12
4, 86304, Note_on_c, 2, 69, 79
4, 86424, Control_c, 2, 7, 11
4, 86464, Note_off_c, 2, 69, 64
4, 86496, Note_on_c, 2, 69, 79
4, 86520, Control_c, 2, 7, 10
4, 86616, Control_c, 2, 7, 9
4, 86656, Note_off_c, 2, 69, 64
4, 86688, Note_on_c, 2, 69, 79
4, 86736, Control_c, 2, 7, 8
4, 86752, Note_off_c, 2, 69, 64
4, 86832, Control_c, 2, 7, 7
4, 86928, Control_c, 2, 7, 6
4, 87048, Control_c, 2, 7, 5
4, 87144, Control_c, 2, 7, 4
4, 87240, Control_c, 2, 7, 3
4, 87360, Control_c, 2, 7, 2
4, 87456, Control_c, 2, 7, 1
4, 87456, End_track
5, 0, Start_track
5, 0, MIDI_port, 0
5, 0, Title_t, "sequenced by        "
5, 0, Program_c, 3, 62
5, 0, Control_c, 3, 7, 90
5, 0, Control_c, 3, 10, 108
5, 0, Pitch_bend_c, 3, 8192
5, 0, Control_c, 3, 1, 0
5, 0, Control_c, 3, 64, 0
5, 192, Control_c, 3, 7, 89
5, 768, Note_on_c, 3, 64, 79
5, 768, Note_on_c, 3, 60, 79
5, 768, Note_on_c, 3, 67, 79
5, 1276, Note_off_c, 3, 64, 64
5, 1276, Note_off_c, 3, 60, 64
5, 1276, Note_off_c, 3, 67, 64
5, 1536, Note_on_c, 3, 59, 79
5, 1536, Note_on_c, 3, 55, 79
5, 1536, Note_on_c, 3, 62, 79
5, 1788, Note_off_c, 3, 59, 64
5, 1788, Note_off_c, 3, 55, 64
5, 1788, Note_off_c, 3, 62, 64
5, 2304, Note_on_c, 3, 62, 79
5, 2304, Note_on_c, 3, 59, 79
5, 2304, Note_on_c, 3, 65, 79
5, 2556, Note_off_c, 3, 62, 64
5, 2556, Note_off_c, 3, 59, 64
5, 2556, Note_off_c, 3, 65, 64
5, 3072, Note_on_c, 3, 60, 79
5, 3072, Note_on_c, 3, 57, 79
5, 3072, Note_on_c, 3, 65, 79
5, 3648, Note_off_c, 3, 60, 64
5, 3648, Note_off_c, 3, 57, 64
5, 3648, Note_off_c, 3, 65, 64
5, 3840, Note_on_c, 3, 64, 79
5, 3840, Note_on_c, 3, 60, 79
5, 3840, Note_on_c, 3, 67, 79
5, 4092, Note_off_c, 3, 64, 64
5, 4092, Note_off_c, 3, 60, 64
5, 4092, Note_off_c, 3, 67, 64
5, 4608, Note_on_c, 3, 62, 79
5, 4608, Note_on_c, 3, 59, 79
5, 4608, Note_on_c, 3, 67, 79
5, 4988, Note_off_c, 3, 62, 64
5, 4988, Note_off_c, 3, 59, 64
5, 4988, Note_off_c, 3, 67, 64
5, 5376, Note_on_c, 3, 62, 79
5, 5376, Note_on_c, 3, 59, 79
5, 5376, Note_on_c, 3, 65, 79
5, 5628, Note_off_c, 3, 62, 64
5, 5628, Note_off_c, 3, 59, 64
5, 5628, Note_off_c, 3, 65, 64
5, 6144, Note_on_c, 3, 65, 79
5, 6144, Note_on_c, 3, 60, 79
5, 6144, Note_on_c, 3, 69, 79
5, 6720, Note_off_c, 3, 65, 64
5, 6720, Note_off_c, 3, 60, 64
5, 6720, Note_off_c, 3, 69, 64
5, 6912, Note_on_c, 3, 64, 79
5, 6912, Note_on_c, 3, 60, 79
5, 6912, Note_on_c, 3, 67, 79
5, 7420, Note_off_c, 3, 64, 64
5, 7420, Note_off_c, 3, 60, 64
5, 7420, Note_off_c, 3, 67, 64
5, 7680, Note_on_c, 3, 59, 79
5, 7680, Note_on_c, 3, 55, 79
5, 7680, Note_on_c, 3, 62, 79
5, 7932, Note_off_c, 3, 59, 64
5, 7932, Note_off_c, 3, 55, 64
5, 7932, Note_off_c, 3, 62, 64
5, 8448, Note_on_c, 3, 62, 79
5, 8448, Note_on_c, 3, 59, 79
5, 8448, Note_on_c, 3, 65, 79
5, 8700, Note_off_c, 3, 62, 64
5, 8700, Note_off_c, 3, 59, 64
5, 8700, Note_off_c, 3, 65, 64
5, 9216, Note_on_c, 3, 60, 79
5, 9216, Note_on_c, 3, 57, 79
5, 9216, Note_on_c, 3, 65, 79
5, 9724, Note_off_c, 3, 60, 64
5, 9724, Note_off_c, 3, 57, 64
5, 9724, Note_off_c, 3, 65, 64
5, 9984, Note_on_c, 3, 64, 79
5, 9984, Note_on_c, 3, 60, 79
5, 9984, Note_on_c, 3, 67, 79
5, 10492, Note_off_c, 3, 64, 64
5, 10492, Note_off_c, 3, 60, 64
5, 10492, Note_off_c, 3, 67, 64
5, 10752, Note_on_c, 3, 59, 79
5, 10752, Note_on_c, 3, 55, 79
5, 10752, Note_on_c, 3, 62, 79
5, 11132, Note_off_c, 3, 59, 64
5, 11132, Note_off_c, 3, 55, 64
5, 11132, Note_off_c, 3, 62, 64
5, 11520, Note_on_c, 3, 60, 79
5, 11520, Note_on_c, 3, 64, 79
5, 11772, Note_off_c, 3, 60, 64
5, 11772, Note_off_c, 3, 64, 64
5, 12288, Note_on_c, 3, 64, 79
5, 12288, Note_on_c, 3, 60, 79
5, 12288, Note_on_c, 3, 65, 79
5, 12860, Note_off_c, 3, 64, 64
5, 12860, Note_off_c, 3, 60, 64
5, 12860, Note_off_c, 3, 65, 64
5, 13056, Note_on_c, 3, 69, 79
5, 13056, Note_on_c, 3, 72, 79
5, 13120, Note_off_c, 3, 69, 64
5, 13120, Note_off_c, 3, 72, 64
5, 13824, Note_on_c, 3, 69, 79
5, 13824, Note_on_c, 3, 67, 79
5, 13824, Note_on_c, 3, 72, 79
5, 13888, Note_off_c, 3, 69, 64
5, 13888, Note_off_c, 3, 67, 64
5, 13888, Note_off_c, 3, 72, 64
5, 13920, Note_on_c, 3, 69, 79
5, 13920, Note_on_c, 3, 72, 79
5, 13952, Note_off_c, 3, 69, 64
5, 13968, Note_on_c, 3, 67, 79
5, 13984, Note_off_c, 3, 72, 64
5, 14000, Note_off_c, 3, 67, 64
5, 14016, Note_on_c, 3, 69, 79
5, 14016, Note_on_c, 3, 72, 79
5, 14080, Note_off_c, 3, 69, 64
5, 14080, Note_off_c, 3, 72, 64
5, 14112, Note_on_c, 3, 67, 79
5, 14112, Note_on_c, 3, 65, 79
5, 14112, Note_on_c, 3, 71, 79
5, 14272, Note_off_c, 3, 67, 64
5, 14272, Note_off_c, 3, 65, 64
5, 14272, Note_off_c, 3, 71, 64
5, 14304, Note_on_c, 3, 67, 79
5, 14304, Note_on_c, 3, 65, 79
5, 14304, Note_on_c, 3, 71, 79
5, 14464, Note_off_c, 3, 67, 64
5, 14464, Note_off_c, 3, 65, 64
5, 14464, Note_off_c, 3, 71, 64
5, 14496, Note_on_c, 3, 67, 79
5, 14496, Note_on_c, 3, 65, 79
5, 14496, Note_on_c, 3, 71, 79
5, 14560, Note_off_c, 3, 67, 64
5, 14560, Note_off_c, 3, 65, 64
5, 14560, Note_off_c, 3, 71, 64
5, 14592, Note_on_c, 3, 71, 79
5, 14592, Note_on_c, 3, 67, 79
5, 14592, Note_on_c, 3, 74, 79
5, 14656, Note_off_c, 3, 71, 64
5, 14656, Note_off_c, 3, 67, 64
5, 14656, Note_off_c, 3, 74, 64
5, 14880, Note_on_c, 3, 60, 79
5, 14880, Note_on_c, 3, 64, 79
5, 15040, Note_off_c, 3, 60, 64
5, 15040, Note_off_c, 3, 64, 64
5, 15072, Note_on_c, 3, 60, 79
5, 15072, Note_on_c, 3, 64, 79
5, 15296, Note_off_c, 3, 60, 64
5, 15296, Note_off_c, 3, 64, 64
5, 15360, Note_on_c, 3, 71, 79
5, 15360, Note_on_c, 3, 67, 79
5, 15360, Note_on_c, 3, 74, 79
5, 15488, Note_off_c, 3, 71, 64
5, 15488, Note_off_c, 3, 67, 64
5, 15488, Note_off_c, 3, 74, 64
5, 15648, Note_on_c, 3, 60, 79
5, 15648, Note_on_c, 3, 64, 79
5, 15808, Note_off_c, 3, 60, 64
5, 15808, Note_off_c, 3, 64, 64
5, 15840, Note_on_c, 3, 60, 79
5, 15840, Note_on_c, 3, 64, 79
5, 16000, Note_off_c, 3, 60, 64
5, 16000, Note_off_c, 3, 64, 64
5, 16128, Note_on_c, 3, 69, 79
5, 16128, Note_on_c, 3, 72, 79
5, 16192, Note_off_c, 3, 69, 64
5, 16192, Note_off_c, 3, 72, 64
5, 16896, Note_on_c, 3, 69, 79
5, 16896, Note_on_c, 3, 67, 79
5, 16896, Note_on_c, 3, 72, 79
5, 16960, Note_off_c, 3, 69, 64
5, 16960, Note_off_c, 3, 67, 64
5, 16960, Note_off_c, 3, 72, 64
5, 16992, Note_on_c, 3, 69, 79
5, 16992, Note_on_c, 3, 72, 79
5, 17024, Note_off_c, 3, 69, 64
5, 17040, Note_on_c, 3, 67, 79
5, 17056, Note_off_c, 3, 72, 64
5, 17072, Note_off_c, 3, 67, 64
5, 17088, Note_on_c, 3, 69, 79
5, 17088, Note_on_c, 3, 72, 79
5, 17152, Note_off_c, 3, 69, 64
5, 17152, Note_off_c, 3, 72, 64
5, 17184, Note_on_c, 3, 67, 79
5, 17184, Note_on_c, 3, 65, 79
5, 17184, Note_on_c, 3, 71, 79
5, 17344, Note_off_c, 3, 67, 64
5, 17344, Note_off_c, 3, 65, 64
5, 17344, Note_off_c, 3, 71, 64
5, 17376, Note_on_c, 3, 67, 79
5, 17376, Note_on_c, 3, 65, 79
5, 17376, Note_on_c, 3, 71, 79
5, 17536, Note_off_c, 3, 67, 64
5, 17536, Note_off_c, 3, 65, 64
5, 17536, Note_off_c, 3, 71, 64
5, 17568, Note_on_c, 3, 65, 79
5, 17568, Note_on_c, 3, 67, 79
5, 17568, Note_on_c, 3, 71, 79
5, 17632, Note_off_c, 3, 65, 64
5, 17632, Note_off_c, 3, 67, 64
5, 17632, Note_off_c, 3, 71, 64
5, 17664, Note_on_c, 3, 71, 79
5, 17664, Note_on_c, 3, 67, 79
5, 17664, Note_on_c, 3, 74, 79
5, 17728, Note_off_c, 3, 71, 64
5, 17728, Note_off_c, 3, 67, 64
5, 17728, Note_off_c, 3, 74, 64
5, 17952, Note_on_c, 3, 60, 79
5, 17952, Note_on_c, 3, 64, 79
5, 18112, Note_off_c, 3, 60, 64
5, 18112, Note_off_c, 3, 64, 64
5, 18144, Note_on_c, 3, 60, 79
5, 18144, Note_on_c, 3, 64, 79
5, 18368, Note_off_c, 3, 60, 64
5, 18368, Note_off_c, 3, 64, 64
5, 18432, Note_on_c, 3, 71, 79
5, 18432, Note_on_c, 3, 67, 79
5, 18432, Note_on_c, 3, 74, 79
5, 18560, Note_off_c, 3, 71, 64
5, 18560, Note_off_c, 3, 67, 64
5, 18560, Note_off_c, 3, 74, 64
5, 18720, Note_on_c, 3, 60, 79
5, 18720, Note_on_c, 3, 64, 79
5, 18880, Note_off_c, 3, 60, 64
5, 18880, Note_off_c, 3, 64, 64
5, 18912, Note_on_c, 3, 60, 79
5, 18912, Note_on_c, 3, 64, 79
5, 19072, Note_off_c, 3, 60, 64
5, 19072, Note_off_c, 3, 64, 64
5, 19200, Note_on_c, 3, 64, 79
5, 19200, Note_on_c, 3, 60, 79
5, 19200, Note_on_c, 3, 67, 79
5, 19708, Note_off_c, 3, 64, 64
5, 19708, Note_off_c, 3, 60, 64
5, 19708, Note_off_c, 3, 67, 64
5, 19968, Note_on_c, 3, 59, 79
5, 19968, Note_on_c, 3, 55, 79
5, 19968, Note_on_c, 3, 62, 79
5, 20220, Note_off_c, 3, 59, 64
5, 20220, Note_off_c, 3, 55, 64
5, 20220, Note_off_c, 3, 62, 64
5, 20736, Note_on_c, 3, 62, 79
5, 20736, Note_on_c, 3, 59, 79
5, 20736, Note_on_c, 3, 65, 79
5, 20988, Note_off_c, 3, 62, 64
5, 20988, Note_off_c, 3, 59, 64
5, 20988, Note_off_c, 3, 65, 64
5, 21504, Note_on_c, 3, 60, 79
5, 21504, Note_on_c, 3, 57, 79
5, 21504, Note_on_c, 3, 65, 79
5, 22080, Note_off_c, 3, 60, 64
5, 22080, Note_off_c, 3, 57, 64
5, 22080, Note_off_c, 3, 65, 64
5, 22272, Note_on_c, 3, 64, 79
5, 22272, Note_on_c, 3, 60, 79
5, 22272, Note_on_c, 3, 67, 79
5, 22524, Note_off_c, 3, 64, 64
5, 22524, Note_off_c, 3, 60, 64
5, 22524, Note_off_c, 3, 67, 64
5, 23040, Note_on_c, 3, 62, 79
5, 23040, Note_on_c, 3, 59, 79
5, 23040, Note_on_c, 3, 67, 79
5, 23420, Note_off_c, 3, 62, 64
5, 23420, Note_off_c, 3, 59, 64
5, 23420, Note_off_c, 3, 67, 64
5, 23808, Note_on_c, 3, 62, 79
5, 23808, Note_on_c, 3, 59, 79
5, 23808, Note_on_c, 3, 65, 79
5, 24060, Note_off_c, 3, 62, 64
5, 24060, Note_off_c, 3, 59, 64
5, 24060, Note_off_c, 3, 65, 64
5, 24576, Note_on_c, 3, 65, 79
5, 24576, Note_on_c, 3, 60, 79
5, 24576, Note_on_c, 3, 69, 79
5, 25152, Note_off_c, 3, 65, 64
5, 25152, Note_off_c, 3, 60, 64
5, 25152, Note_off_c, 3, 69, 64
5, 25344, Note_on_c, 3, 64, 79
5, 25344, Note_on_c, 3, 60, 79
5, 25344, Note_on_c, 3, 67, 79
5, 25852, Note_off_c, 3, 64, 64
5, 25852, Note_off_c, 3, 60, 64
5, 25852, Note_off_c, 3, 67, 64
5, 26112, Note_on_c, 3, 59, 79
5, 26112, Note_on_c, 3, 55, 79
5, 26112, Note_on_c, 3, 62, 79
5, 26364, Note_off_c, 3, 59, 64
5, 26364, Note_off_c, 3, 55, 64
5, 26364, Note_off_c, 3, 62, 64
5, 26880, Note_on_c, 3, 62, 79
5, 26880, Note_on_c, 3, 59, 79
5, 26880, Note_on_c, 3, 65, 79
5, 27132, Note_off_c, 3, 62, 64
5, 27132, Note_off_c, 3, 59, 64
5, 27132, Note_off_c, 3, 65, 64
5, 27648, Note_on_c, 3, 60, 79
5, 27648, Note_on_c, 3, 57, 79
5, 27648, Note_on_c, 3, 65, 79
5, 28156, Note_off_c, 3, 60, 64
5, 28156, Note_off_c, 3, 57, 64
5, 28156, Note_off_c, 3, 65, 64
5, 28416, Note_on_c, 3, 64, 79
5, 28416, Note_on_c, 3, 60, 79
5, 28416, Note_on_c, 3, 67, 79
5, 28924, Note_off_c, 3, 64, 64
5, 28924, Note_off_c, 3, 60, 64
5, 28924, Note_off_c, 3, 67, 64
5, 29184, Note_on_c, 3, 59, 79
5, 29184, Note_on_c, 3, 55, 79
5, 29184, Note_on_c, 3, 62, 79
5, 29564, Note_off_c, 3, 59, 64
5, 29564, Note_off_c, 3, 55, 64
5, 29564, Note_off_c, 3, 62, 64
5, 29952, Note_on_c, 3, 60, 79
5, 29952, Note_on_c, 3, 64, 79
5, 30204, Note_off_c, 3, 60, 64
5, 30204, Note_off_c, 3, 64, 64
5, 30720, Note_on_c, 3, 64, 79
5, 30720, Note_on_c, 3, 60, 79
5, 30720, Note_on_c, 3, 65, 79
5, 31292, Note_off_c, 3, 64, 64
5, 31292, Note_off_c, 3, 60, 64
5, 31292, Note_off_c, 3, 65, 64
5, 31488, Note_on_c, 3, 69, 79
5, 31488, Note_on_c, 3, 72, 79
5, 31552, Note_off_c, 3, 69, 64
5, 31552, Note_off_c, 3, 72, 64
5, 32256, Note_on_c, 3, 69, 79
5, 32256, Note_on_c, 3, 67, 79
5, 32256, Note_on_c, 3, 72, 79
5, 32320, Note_off_c, 3, 69, 64
5, 32320, Note_off_c, 3, 67, 64
5, 32320, Note_off_c, 3, 72, 64
5, 32352, Note_on_c, 3, 69, 79
5, 32352, Note_on_c, 3, 72, 79
5, 32384, Note_off_c, 3, 69, 64
5, 32400, Note_on_c, 3, 67, 79
5, 32416, Note_off_c, 3, 72, 64
5, 32432, Note_off_c, 3, 67, 64
5, 32448, Note_on_c, 3, 69, 79
5, 32448, Note_on_c, 3, 72, 79
5, 32512, Note_off_c, 3, 69, 64
5, 32512, Note_off_c, 3, 72, 64
5, 32544, Note_on_c, 3, 67, 79
5, 32544, Note_on_c, 3, 65, 79
5, 32544, Note_on_c, 3, 71, 79
5, 32704, Note_off_c, 3, 67, 64
5, 32704, Note_off_c, 3, 65, 64
5, 32704, Note_off_c, 3, 71, 64
5, 32736, Note_on_c, 3, 67, 79
5, 32736, Note_on_c, 3, 65, 79
5, 32736, Note_on_c, 3, 71, 79
5, 32896, Note_off_c, 3, 67, 64
5, 32896, Note_off_c, 3, 65, 64
5, 32896, Note_off_c, 3, 71, 64
5, 32928, Note_on_c, 3, 67, 79
5, 32928, Note_on_c, 3, 65, 79
5, 32928, Note_on_c, 3, 71, 79
5, 32992, Note_off_c, 3, 67, 64
5, 32992, Note_off_c, 3, 65, 64
5, 32992, Note_off_c, 3, 71, 64
5, 33024, Note_on_c, 3, 71, 79
5, 33024, Note_on_c, 3, 67, 79
5, 33024, Note_on_c, 3, 74, 79
5, 33088, Note_off_c, 3, 71, 64
5, 33088, Note_off_c, 3, 67, 64
5, 33088, Note_off_c, 3, 74, 64
5, 33312, Note_on_c, 3, 60, 79
5, 33312, Note_on_c, 3, 64, 79
5, 33472, Note_off_c, 3, 60, 64
5, 33472, Note_off_c, 3, 64, 64
5, 33504, Note_on_c, 3, 60, 79
5, 33504, Note_on_c, 3, 64, 79
5, 33728, Note_off_c, 3, 60, 64
5, 33728, Note_off_c, 3, 64, 64
5, 33792, Note_on_c, 3, 71, 79
5, 33792, Note_on_c, 3, 67, 79
5, 33792, Note_on_c, 3, 74, 79
5, 33920, Note_off_c, 3, 71, 64
5, 33920, Note_off_c, 3, 67, 64
5, 33920, Note_off_c, 3, 74, 64
5, 34080, Note_on_c, 3, 60, 79
5, 34080, Note_on_c, 3, 64, 79
5, 34240, Note_off_c, 3, 60, 64
5, 34240, Note_off_c, 3, 64, 64
5, 34272, Note_on_c, 3, 60, 79
5, 34272, Note_on_c, 3, 64, 79
5, 34432, Note_off_c, 3, 60, 64
5, 34432, Note_off_c, 3, 64, 64
5, 34560, Note_on_c, 3, 69, 79
5, 34560, Note_on_c, 3, 72, 79
5, 34624, Note_off_c, 3, 69, 64
5, 34624, Note_off_c, 3, 72, 64
5, 35328, Note_on_c, 3, 69, 79
5, 35328, Note_on_c, 3, 67, 79
5, 35328, Note_on_c, 3, 72, 79
5, 35392, Note_off_c, 3, 69, 64
5, 35392, Note_off_c, 3, 67, 64
5, 35392, Note_off_c, 3, 72, 64
5, 35424, Note_on_c, 3, 69, 79
5, 35424, Note_on_c, 3, 72, 79
5, 35456, Note_off_c, 3, 69, 64
5, 35472, Note_on_c, 3, 67, 79
5, 35488, Note_off_c, 3, 72, 64
5, 35504, Note_off_c, 3, 67, 64
5, 35520, Note_on_c, 3, 69, 79
5, 35520, Note_on_c, 3, 72, 79
5, 35584, Note_off_c, 3, 69, 64
5, 35584, Note_off_c, 3, 72, 64
5, 35616, Note_on_c, 3, 67, 79
5, 35616, Note_on_c, 3, 65, 79
5, 35616, Note_on_c, 3, 71, 79
5, 35776, Note_off_c, 3, 67, 64
5, 35776, Note_off_c, 3, 65, 64
5, 35776, Note_off_c, 3, 71, 64
5, 35808, Note_on_c, 3, 67, 79
5, 35808, Note_on_c, 3, 65, 79
5, 35808, Note_on_c, 3, 71, 79
5, 35968, Note_off_c, 3, 67, 64
5, 35968, Note_off_c, 3, 65, 64
5, 35968, Note_off_c, 3, 71, 64
5, 36000, Note_on_c, 3, 65, 79
5, 36000, Note_on_c, 3, 67, 79
5, 36000, Note_on_c, 3, 71, 79
5, 36064, Note_off_c, 3, 65, 64
5, 36064, Note_off_c, 3, 67, 64
5, 36064, Note_off_c, 3, 71, 64
5, 36096, Note_on_c, 3, 71, 79
5, 36096, Note_on_c, 3, 67, 79
5, 36096, Note_on_c, 3, 74, 79
5, 36160, Note_off_c, 3, 71, 64
5, 36160, Note_off_c, 3, 67, 64
5, 36160, Note_off_c, 3, 74, 64
5, 36384, Note_on_c, 3, 60, 79
5, 36384, Note_on_c, 3, 64, 79
5, 36544, Note_off_c, 3, 60, 64
5, 36544, Note_off_c, 3, 64, 64
5, 36576, Note_on_c, 3, 60, 79
5, 36576, Note_on_c, 3, 64, 79
5, 36800, Note_off_c, 3, 60, 64
5, 36800, Note_off_c, 3, 64, 64
5, 36864, Note_on_c, 3, 71, 79
5, 36864, Note_on_c, 3, 67, 79
5, 36864, Note_on_c, 3, 74, 79
5, 36992, Note_off_c, 3, 71, 64
5, 36992, Note_off_c, 3, 67, 64
5, 36992, Note_off_c, 3, 74, 64
5, 37152, Note_on_c, 3, 60, 79
5, 37152, Note_on_c, 3, 64, 79
5, 37312, Note_off_c, 3, 60, 64
5, 37312, Note_off_c, 3, 64, 64
5, 37344, Note_on_c, 3, 60, 79
5, 37344, Note_on_c, 3, 64, 79
5, 37504, Note_off_c, 3, 60, 64
5, 37504, Note_off_c, 3, 64, 64
5, 37632, Note_on_c, 3, 64, 79
5, 37632, Note_on_c, 3, 60, 79
5, 37632, Note_on_c, 3, 67, 79
5, 38140, Note_off_c, 3, 64, 64
5, 38140, Note_off_c, 3, 60, 64
5, 38140, Note_off_c, 3, 67, 64
5, 39168, Note_on_c, 3, 64, 79
5, 39168, Note_on_c, 3, 60, 79
5, 39168, Note_on_c, 3, 67, 79
5, 39676, Note_off_c, 3, 64, 64
5, 39676, Note_off_c, 3, 60, 64
5, 39676, Note_off_c, 3, 67, 64
5, 40704, Note_on_c, 3, 64, 79
5, 40704, Note_on_c, 3, 60, 79
5, 40704, Note_on_c, 3, 67, 79
5, 41212, Note_off_c, 3, 64, 64
5, 41212, Note_off_c, 3, 60, 64
5, 41212, Note_off_c, 3, 67, 64
5, 42240, Note_on_c, 3, 64, 79
5, 42240, Note_on_c, 3, 60, 79
5, 42240, Note_on_c, 3, 67, 79
5, 42748, Note_off_c, 3, 64, 64
5, 42748, Note_off_c, 3, 60, 64
5, 42748, Note_off_c, 3, 67, 64
5, 43776, Note_on_c, 3, 60, 79
5, 43776, Note_on_c, 3, 64, 79
5, 44284, Note_off_c, 3, 60, 64
5, 44284, Note_off_c, 3, 64, 64
5, 45312, Note_on_c, 3, 60, 79
5, 45312, Note_on_c, 3, 64, 79
5, 45820, Note_off_c, 3, 60, 64
5, 45820, Note_off_c, 3, 64, 64
5, 46464, Note_on_c, 3, 55, 79
5, 46464, Note_on_c, 3, 53, 79
5, 46464, Note_on_c, 3, 50, 79
5, 46656, Note_off_c, 3, 55, 64
5, 46656, Note_off_c, 3, 53, 64
5, 46656, Note_off_c, 3, 50, 64
5, 46848, Note_on_c, 3, 64, 79
5, 46848, Note_on_c, 3, 60, 79
5, 46848, Note_on_c, 3, 67, 79
5, 47356, Note_off_c, 3, 64, 64
5, 47356, Note_off_c, 3, 60, 64
5, 47356, Note_off_c, 3, 67, 64
5, 48384, Note_on_c, 3, 76, 79
5, 48384, Note_on_c, 3, 72, 79
5, 48384, Note_on_c, 3, 79, 79
5, 48448, Note_off_c, 3, 76, 64
5, 48448, Note_off_c, 3, 72, 64
5, 48448, Note_off_c, 3, 79, 64
5, 48672, Note_on_c, 3, 76, 79
5, 48672, Note_on_c, 3, 72, 79
5, 48672, Note_on_c, 3, 79, 79
5, 48832, Note_off_c, 3, 76, 64
5, 48832, Note_off_c, 3, 72, 64
5, 48832, Note_off_c, 3, 79, 64
5, 48864, Note_on_c, 3, 76, 79
5, 48864, Note_on_c, 3, 72, 79
5, 48864, Note_on_c, 3, 79, 79
5, 49088, Note_off_c, 3, 76, 64
5, 49088, Note_off_c, 3, 72, 64
5, 49088, Note_off_c, 3, 79, 64
5, 49152, Note_on_c, 3, 76, 79
5, 49152, Note_on_c, 3, 72, 79
5, 49152, Note_on_c, 3, 79, 79
5, 49532, Note_off_c, 3, 76, 64
5, 49532, Note_off_c, 3, 72, 64
5, 49532, Note_off_c, 3, 79, 64
5, 49920, Note_on_c, 3, 69, 79
5, 49920, Note_on_c, 3, 72, 79
5, 49984, Note_off_c, 3, 69, 64
5, 49984, Note_off_c, 3, 72, 64
5, 50688, Note_on_c, 3, 69, 79
5, 50688, Note_on_c, 3, 67, 79
5, 50688, Note_on_c, 3, 72, 79
5, 50752, Note_off_c, 3, 69, 64
5, 50752, Note_off_c, 3, 67, 64
5, 50752, Note_off_c, 3, 72, 64
5, 50784, Note_on_c, 3, 69, 79
5, 50784, Note_on_c, 3, 72, 79
5, 50816, Note_off_c, 3, 69, 64
5, 50832, Note_on_c, 3, 67, 79
5, 50848, Note_off_c, 3, 72, 64
5, 50864, Note_off_c, 3, 67, 64
5, 50880, Note_on_c, 3, 69, 79
5, 50880, Note_on_c, 3, 72, 79
5, 50944, Note_off_c, 3, 69, 64
5, 50944, Note_off_c, 3, 72, 64
5, 50976, Note_on_c, 3, 67, 79
5, 50976, Note_on_c, 3, 65, 79
5, 50976, Note_on_c, 3, 71, 79
5, 51136, Note_off_c, 3, 67, 64
5, 51136, Note_off_c, 3, 65, 64
5, 51136, Note_off_c, 3, 71, 64
5, 51168, Note_on_c, 3, 67, 79
5, 51168, Note_on_c, 3, 65, 79
5, 51168, Note_on_c, 3, 71, 79
5, 51328, Note_off_c, 3, 67, 64
5, 51328, Note_off_c, 3, 65, 64
5, 51328, Note_off_c, 3, 71, 64
5, 51360, Note_on_c, 3, 67, 79
5, 51360, Note_on_c, 3, 65, 79
5, 51360, Note_on_c, 3, 71, 79
5, 51424, Note_off_c, 3, 67, 64
5, 51424, Note_off_c, 3, 65, 64
5, 51424, Note_off_c, 3, 71, 64
5, 51456, Note_on_c, 3, 71, 79
5, 51456, Note_on_c, 3, 67, 79
5, 51456, Note_on_c, 3, 74, 79
5, 51520, Note_off_c, 3, 71, 64
5, 51520, Note_off_c, 3, 67, 64
5, 51520, Note_off_c, 3, 74, 64
5, 51744, Note_on_c, 3, 60, 79
5, 51744, Note_on_c, 3, 64, 79
5, 51904, Note_off_c, 3, 60, 64
5, 51904, Note_off_c, 3, 64, 64
5, 51936, Note_on_c, 3, 60, 79
5, 51936, Note_on_c, 3, 64, 79
5, 52160, Note_off_c, 3, 60, 64
5, 52160, Note_off_c, 3, 64, 64
5, 52224, Note_on_c, 3, 71, 79
5, 52224, Note_on_c, 3, 67, 79
5, 52224, Note_on_c, 3, 74, 79
5, 52352, Note_off_c, 3, 71, 64
5, 52352, Note_off_c, 3, 67, 64
5, 52352, Note_off_c, 3, 74, 64
5, 52512, Note_on_c, 3, 60, 79
5, 52512, Note_on_c, 3, 64, 79
5, 52672, Note_off_c, 3, 60, 64
5, 52672, Note_off_c, 3, 64, 64
5, 52704, Note_on_c, 3, 60, 79
5, 52704, Note_on_c, 3, 64, 79
5, 52864, Note_off_c, 3, 60, 64
5, 52864, Note_off_c, 3, 64, 64
5, 52992, Note_on_c, 3, 69, 79
5, 52992, Note_on_c, 3, 72, 79
5, 53056, Note_off_c, 3, 69, 64
5, 53056, Note_off_c, 3, 72, 64
5, 53760, Note_on_c, 3, 69, 79
5, 53760, Note_on_c, 3, 67, 79
5, 53760, Note_on_c, 3, 72, 79
5, 53824, Note_off_c, 3, 69, 64
5, 53824, Note_off_c, 3, 67, 64
5, 53824, Note_off_c, 3, 72, 64
5, 53856, Note_on_c, 3, 69, 79
5, 53856, Note_on_c, 3, 72, 79
5, 53888, Note_off_c, 3, 69, 64
5, 53904, Note_on_c, 3, 67, 79
5, 53920, Note_off_c, 3, 72, 64
5, 53936, Note_off_c, 3, 67, 64
5, 53952, Note_on_c, 3, 69, 79
5, 53952, Note_on_c, 3, 72, 79
5, 54016, Note_off_c, 3, 69, 64
5, 54016, Note_off_c, 3, 72, 64
5, 54048, Note_on_c, 3, 67, 79
5, 54048, Note_on_c, 3, 65, 79
5, 54048, Note_on_c, 3, 71, 79
5, 54208, Note_off_c, 3, 67, 64
5, 54208, Note_off_c, 3, 65, 64
5, 54208, Note_off_c, 3, 71, 64
5, 54240, Note_on_c, 3, 67, 79
5, 54240, Note_on_c, 3, 65, 79
5, 54240, Note_on_c, 3, 71, 79
5, 54400, Note_off_c, 3, 67, 64
5, 54400, Note_off_c, 3, 65, 64
5, 54400, Note_off_c, 3, 71, 64
5, 54432, Note_on_c, 3, 67, 79
5, 54432, Note_on_c, 3, 65, 79
5, 54432, Note_on_c, 3, 71, 79
5, 54496, Note_off_c, 3, 67, 64
5, 54496, Note_off_c, 3, 65, 64
5, 54496, Note_off_c, 3, 71, 64
5, 54528, Note_on_c, 3, 71, 79
5, 54528, Note_on_c, 3, 67, 79
5, 54528, Note_on_c, 3, 74, 79
5, 54592, Note_off_c, 3, 71, 64
5, 54592, Note_off_c, 3, 67, 64
5, 54592, Note_off_c, 3, 74, 64
5, 54816, Note_on_c, 3, 60, 79
5, 54816, Note_on_c, 3, 64, 79
5, 54976, Note_off_c, 3, 60, 64
5, 54976, Note_off_c, 3, 64, 64
5, 55008, Note_on_c, 3, 60, 79
5, 55008, Note_on_c, 3, 64, 79
5, 55232, Note_off_c, 3, 60, 64
5, 55232, Note_off_c, 3, 64, 64
5, 55296, Note_on_c, 3, 71, 79
5, 55296, Note_on_c, 3, 67, 79
5, 55296, Note_on_c, 3, 74, 79
5, 55424, Note_off_c, 3, 71, 64
5, 55424, Note_off_c, 3, 67, 64
5, 55424, Note_off_c, 3, 74, 64
5, 55584, Note_on_c, 3, 60, 79
5, 55584, Note_on_c, 3, 64, 79
5, 55744, Note_off_c, 3, 60, 64
5, 55744, Note_off_c, 3, 64, 64
5, 55776, Note_on_c, 3, 60, 79
5, 55776, Note_on_c, 3, 64, 79
5, 55936, Note_off_c, 3, 60, 64
5, 55936, Note_off_c, 3, 64, 64
5, 56064, Note_on_c, 3, 64, 79
5, 56064, Note_on_c, 3, 60, 79
5, 56064, Note_on_c, 3, 67, 79
5, 56572, Note_off_c, 3, 64, 64
5, 56572, Note_off_c, 3, 60, 64
5, 56572, Note_off_c, 3, 67, 64
5, 56832, Note_on_c, 3, 59, 79
5, 56832, Note_on_c, 3, 55, 79
5, 56832, Note_on_c, 3, 62, 79
5, 57084, Note_off_c, 3, 59, 64
5, 57084, Note_off_c, 3, 55, 64
5, 57084, Note_off_c, 3, 62, 64
5, 57600, Note_on_c, 3, 62, 79
5, 57600, Note_on_c, 3, 59, 79
5, 57600, Note_on_c, 3, 65, 79
5, 57852, Note_off_c, 3, 62, 64
5, 57852, Note_off_c, 3, 59, 64
5, 57852, Note_off_c, 3, 65, 64
5, 58368, Note_on_c, 3, 60, 79
5, 58368, Note_on_c, 3, 57, 79
5, 58368, Note_on_c, 3, 65, 79
5, 58944, Note_off_c, 3, 60, 64
5, 58944, Note_off_c, 3, 57, 64
5, 58944, Note_off_c, 3, 65, 64
5, 59136, Note_on_c, 3, 64, 79
5, 59136, Note_on_c, 3, 60, 79
5, 59136, Note_on_c, 3, 67, 79
5, 59388, Note_off_c, 3, 64, 64
5, 59388, Note_off_c, 3, 60, 64
5, 59388, Note_off_c, 3, 67, 64
5, 59904, Note_on_c, 3, 62, 79
5, 59904, Note_on_c, 3, 59, 79
5, 59904, Note_on_c, 3, 67, 79
5, 60284, Note_off_c, 3, 62, 64
5, 60284, Note_off_c, 3, 59, 64
5, 60284, Note_off_c, 3, 67, 64
5, 60672, Note_on_c, 3, 62, 79
5, 60672, Note_on_c, 3, 59, 79
5, 60672, Note_on_c, 3, 65, 79
5, 60924, Note_off_c, 3, 62, 64
5, 60924, Note_off_c, 3, 59, 64
5, 60924, Note_off_c, 3, 65, 64
5, 61440, Note_on_c, 3, 65, 79
5, 61440, Note_on_c, 3, 60, 79
5, 61440, Note_on_c, 3, 69, 79
5, 62016, Note_off_c, 3, 65, 64
5, 62016, Note_off_c, 3, 60, 64
5, 62016, Note_off_c, 3, 69, 64
5, 62208, Note_on_c, 3, 64, 79
5, 62208, Note_on_c, 3, 60, 79
5, 62208, Note_on_c, 3, 67, 79
5, 62716, Note_off_c, 3, 64, 64
5, 62716, Note_off_c, 3, 60, 64
5, 62716, Note_off_c, 3, 67, 64
5, 62976, Note_on_c, 3, 59, 79
5, 62976, Note_on_c, 3, 55, 79
5, 62976, Note_on_c, 3, 62, 79
5, 63228, Note_off_c, 3, 59, 64
5, 63228, Note_off_c, 3, 55, 64
5, 63228, Note_off_c, 3, 62, 64
5, 63744, Note_on_c, 3, 62, 79
5, 63744, Note_on_c, 3, 59, 79
5, 63744, Note_on_c, 3, 65, 79
5, 63996, Note_off_c, 3, 62, 64
5, 63996, Note_off_c, 3, 59, 64
5, 63996, Note_off_c, 3, 65, 64
5, 64512, Note_on_c, 3, 60, 79
5, 64512, Note_on_c, 3, 57, 79
5, 64512, Note_on_c, 3, 65, 79
5, 65020, Note_off_c, 3, 60, 64
5, 65020, Note_off_c, 3, 57, 64
5, 65020, Note_off_c, 3, 65, 64
5, 65280, Note_on_c, 3, 64, 79
5, 65280, Note_on_c, 3, 60, 79
5, 65280, Note_on_c, 3, 67, 79
5, 65788, Note_off_c, 3, 64, 64
5, 65788, Note_off_c, 3, 60, 64
5, 65788, Note_off_c, 3, 67, 64
5, 66048, Note_on_c, 3, 59, 79
5, 66048, Note_on_c, 3, 55, 79
5, 66048, Note_on_c, 3, 62, 79
5, 66428, Note_off_c, 3, 59, 64
5, 66428, Note_off_c, 3, 55, 64
5, 66428, Note_off_c, 3, 62, 64
5, 66816, Note_on_c, 3, 60, 79
5, 66816, Note_on_c, 3, 64, 79
5, 67068, Note_off_c, 3, 60, 64
5, 67068, Note_off_c, 3, 64, 64
5, 67584, Note_on_c, 3, 64, 79
5, 67584, Note_on_c, 3, 60, 79
5, 67584, Note_on_c, 3, 65, 79
5, 68156, Note_off_c, 3, 64, 64
5, 68156, Note_off_c, 3, 60, 64
5, 68156, Note_off_c, 3, 65, 64
5, 68352, Note_on_c, 3, 69, 79
5, 68352, Note_on_c, 3, 72, 79
5, 68416, Note_off_c, 3, 69, 64
5, 68416, Note_off_c, 3, 72, 64
5, 69120, Note_on_c, 3, 69, 79
5, 69120, Note_on_c, 3, 67, 79
5, 69120, Note_on_c, 3, 72, 79
5, 69184, Note_off_c, 3, 69, 64
5, 69184, Note_off_c, 3, 67, 64
5, 69184, Note_off_c, 3, 72, 64
5, 69216, Note_on_c, 3, 69, 79
5, 69216, Note_on_c, 3, 72, 79
5, 69248, Note_off_c, 3, 69, 64
5, 69264, Note_on_c, 3, 67, 79
5, 69280, Note_off_c, 3, 72, 64
5, 69296, Note_off_c, 3, 67, 64
5, 69312, Note_on_c, 3, 69, 79
5, 69312, Note_on_c, 3, 72, 79
5, 69376, Note_off_c, 3, 69, 64
5, 69376, Note_off_c, 3, 72, 64
5, 69408, Note_on_c, 3, 67, 79
5, 69408, Note_on_c, 3, 65, 79
5, 69408, Note_on_c, 3, 71, 79
5, 69568, Note_off_c, 3, 67, 64
5, 69568, Note_off_c, 3, 65, 64
5, 69568, Note_off_c, 3, 71, 64
5, 69600, Note_on_c, 3, 67, 79
5, 69600, Note_on_c, 3, 65, 79
5, 69600, Note_on_c, 3, 71, 79
5, 69760, Note_off_c, 3, 67, 64
5, 69760, Note_off_c, 3, 65, 64
5, 69760, Note_off_c, 3, 71, 64
5, 69792, Note_on_c, 3, 67, 79
5, 69792, Note_on_c, 3, 65, 79
5, 69792, Note_on_c, 3, 71, 79
5, 69856, Note_off_c, 3, 67, 64
5, 69856, Note_off_c, 3, 65, 64
5, 69856, Note_off_c, 3, 71, 64
5, 69888, Note_on_c, 3, 71, 79
5, 69888, Note_on_c, 3, 67, 79
5, 69888, Note_on_c, 3, 74, 79
5, 69952, Note_off_c, 3, 71, 64
5, 69952, Note_off_c, 3, 67, 64
5, 69952, Note_off_c, 3, 74, 64
5, 70176, Note_on_c, 3, 60, 79
5, 70176, Note_on_c, 3, 64, 79
5, 70336, Note_off_c, 3, 60, 64
5, 70336, Note_off_c, 3, 64, 64
5, 70368, Note_on_c, 3, 60, 79
5, 70368, Note_on_c, 3, 64, 79
5, 70592, Note_off_c, 3, 60, 64
5, 70592, Note_off_c, 3, 64, 64
5, 70656, Note_on_c, 3, 71, 79
5, 70656, Note_on_c, 3, 67, 79
5, 70656, Note_on_c, 3, 74, 79
5, 70784, Note_off_c, 3, 71, 64
5, 70784, Note_off_c, 3, 67, 64
5, 70784, Note_off_c, 3, 74, 64
5, 70944, Note_on_c, 3, 60, 79
5, 70944, Note_on_c, 3, 64, 79
5, 71104, Note_off_c, 3, 60, 64
5, 71104, Note_off_c, 3, 64, 64
5, 71136, Note_on_c, 3, 60, 79
5, 71136, Note_on_c, 3, 64, 79
5, 71296, Note_off_c, 3, 60, 64
5, 71296, Note_off_c, 3, 64, 64
5, 71424, Note_on_c, 3, 69, 79
5, 71424, Note_on_c, 3, 72, 79
5, 71488, Note_off_c, 3, 69, 64
5, 71488, Note_off_c, 3, 72, 64
5, 72192, Note_on_c, 3, 69, 79
5, 72192, Note_on_c, 3, 67, 79
5, 72192, Note_on_c, 3, 72, 79
5, 72256, Note_off_c, 3, 69, 64
5, 72256, Note_off_c, 3, 67, 64
5, 72256, Note_off_c, 3, 72, 64
5, 72288, Note_on_c, 3, 69, 79
5, 72288, Note_on_c, 3, 72, 79
5, 72320, Note_off_c, 3, 69, 64
5, 72336, Note_on_c, 3, 67, 79
5, 72352, Note_off_c, 3, 72, 64
5, 72368, Note_off_c, 3, 67, 64
5, 72384, Note_on_c, 3, 69, 79
5, 72384, Note_on_c, 3, 72, 79
5, 72448, Note_off_c, 3, 69, 64
5, 72448, Note_off_c, 3, 72, 64
5, 72480, Note_on_c, 3, 67, 79
5, 72480, Note_on_c, 3, 65, 79
5, 72480, Note_on_c, 3, 71, 79
5, 72640, Note_off_c, 3, 67, 64
5, 72640, Note_off_c, 3, 65, 64
5, 72640, Note_off_c, 3, 71, 64
5, 72672, Note_on_c, 3, 67, 79
5, 72672, Note_on_c, 3, 65, 79
5, 72672, Note_on_c, 3, 71, 79
5, 72832, Note_off_c, 3, 67, 64
5, 72832, Note_off_c, 3, 65, 64
5, 72832, Note_off_c, 3, 71, 64
5, 72864, Note_on_c, 3, 65, 79
5, 72864, Note_on_c, 3, 67, 79
5, 72864, Note_on_c, 3, 71, 79
5, 72928, Note_off_c, 3, 65, 64
5, 72928, Note_off_c, 3, 67, 64
5, 72928, Note_off_c, 3, 71, 64
5, 72960, Note_on_c, 3, 71, 79
5, 72960, Note_on_c, 3, 67, 79
5, 72960, Note_on_c, 3, 74, 79
5, 73024, Note_off_c, 3, 71, 64
5, 73024, Note_off_c, 3, 67, 64
5, 73024, Note_off_c, 3, 74, 64
5, 73248, Note_on_c, 3, 60, 79
5, 73248, Note_on_c, 3, 64, 79
5, 73408, Note_off_c, 3, 60, 64
5, 73408, Note_off_c, 3, 64, 64
5, 73440, Note_on_c, 3, 60, 79
5, 73440, Note_on_c, 3, 64, 79
5, 73664, Note_off_c, 3, 60, 64
5, 73664, Note_off_c, 3, 64, 64
5, 73728, Note_on_c, 3, 71, 79
5, 73728, Note_on_c, 3, 67, 79
5, 73728, Note_on_c, 3, 74, 79
5, 73856, Note_off_c, 3, 71, 64
5, 73856, Note_off_c, 3, 67, 64
5, 73856, Note_off_c, 3, 74, 64
5, 74016, Note_on_c, 3, 60, 79
5, 74016, Note_on_c, 3, 64, 79
5, 74176, Note_off_c, 3, 60, 64
5, 74176, Note_off_c, 3, 64, 64
5, 74208, Note_on_c, 3, 60, 79
5, 74208, Note_on_c, 3, 64, 79
5, 74368, Note_off_c, 3, 60, 64
5, 74368, Note_off_c, 3, 64, 64
5, 74496, Note_on_c, 3, 69, 79
5, 74496, Note_on_c, 3, 72, 79
5, 74560, Note_off_c, 3, 69, 64
5, 74560, Note_off_c, 3, 72, 64
5, 75264, Note_on_c, 3, 69, 79
5, 75264, Note_on_c, 3, 67, 79
5, 75264, Note_on_c, 3, 72, 79
5, 75328, Note_off_c, 3, 69, 64
5, 75328, Note_off_c, 3, 67, 64
5, 75328, Note_off_c, 3, 72, 64
5, 75360, Note_on_c, 3, 69, 79
5, 75360, Note_on_c, 3, 72, 79
5, 75392, Note_off_c, 3, 69, 64
5, 75408, Note_on_c, 3, 67, 79
5, 75424, Note_off_c, 3, 72, 64
5, 75440, Note_off_c, 3, 67, 64
5, 75456, Note_on_c, 3, 69, 79
5, 75456, Note_on_c, 3, 72, 79
5, 75520, Note_off_c, 3, 69, 64
5, 75520, Note_off_c, 3, 72, 64
5, 75552, Note_on_c, 3, 67, 79
5, 75552, Note_on_c, 3, 65, 79
5, 75552, Note_on_c, 3, 71, 79
5, 75712, Note_off_c, 3, 67, 64
5, 75712, Note_off_c, 3, 65, 64
5, 75712, Note_off_c, 3, 71, 64
5, 75744, Note_on_c, 3, 67, 79
5, 75744, Note_on_c, 3, 65, 79
5, 75744, Note_on_c, 3, 71, 79
5, 75904, Note_off_c, 3, 67, 64
5, 75904, Note_off_c, 3, 65, 64
5, 75904, Note_off_c, 3, 71, 64
5, 75936, Note_on_c, 3, 67, 79
5, 75936, Note_on_c, 3, 65, 79
5, 75936, Note_on_c, 3, 71, 79
5, 76000, Note_off_c, 3, 67, 64
5, 76000, Note_off_c, 3, 65, 64
5, 76000, Note_off_c, 3, 71, 64
5, 76032, Note_on_c, 3, 71, 79
5, 76032, Note_on_c, 3, 67, 79
5, 76032, Note_on_c, 3, 74, 79
5, 76096, Note_off_c, 3, 71, 64
5, 76096, Note_off_c, 3, 67, 64
5, 76096, Note_off_c, 3, 74, 64
5, 76320, Note_on_c, 3, 60, 79
5, 76320, Note_on_c, 3, 64, 79
5, 76480, Note_off_c, 3, 60, 64
5, 76480, Note_off_c, 3, 64, 64
5, 76512, Note_on_c, 3, 60, 79
5, 76512, Note_on_c, 3, 64, 79
5, 76736, Note_off_c, 3, 60, 64
5, 76736, Note_off_c, 3, 64, 64
5, 76800, Note_on_c, 3, 71, 79
5, 76800, Note_on_c, 3, 67, 79
5, 76800, Note_on_c, 3, 74, 79
5, 76928, Note_off_c, 3, 71, 64
5, 76928, Note_off_c, 3, 67, 64
5, 76928, Note_off_c, 3, 74, 64
5, 77088, Note_on_c, 3, 60, 79
5, 77088, Note_on_c, 3, 64, 79
5, 77248, Note_off_c, 3, 60, 64
5, 77248, Note_off_c, 3, 64, 64
5, 77280, Note_on_c, 3, 60, 79
5, 77280, Note_on_c, 3, 64, 79
5, 77440, Note_off_c, 3, 60, 64
5, 77440, Note_off_c, 3, 64, 64
5, 77568, Control_c, 3, 7, 89
5, 77568, Note_on_c, 3, 69, 79
5, 77568, Note_on_c, 3, 72, 79
5, 77632, Note_off_c, 3, 69, 64
5, 77632, Note_off_c, 3, 72, 64
5, 77688, Control_c, 3, 7, 88
5, 77808, Control_c, 3, 7, 87
5, 77928, Control_c, 3, 7, 86
5, 78024, Control_c, 3, 7, 85
5, 78144, Control_c, 3, 7, 84
5, 78264, Control_c, 3, 7, 83
5, 78336, Note_on_c, 3, 69, 79
5, 78336, Note_on_c, 3, 67, 79
5, 78336, Note_on_c, 3, 72, 79
5, 78360, Control_c, 3, 7, 82
5, 78400, Note_off_c, 3, 69, 64
5, 78400, Note_off_c, 3, 67, 64
5, 78400, Note_off_c, 3, 72, 64
5, 78432, Note_on_c, 3, 69, 79
5, 78432, Note_on_c, 3, 72, 79
5, 78464, Note_off_c, 3, 69, 64
5, 78480, Control_c, 3, 7, 81
5, 78480, Note_on_c, 3, 67, 79
5, 78496, Note_off_c, 3, 72, 64
5, 78512, Note_off_c, 3, 67, 64
5, 78528, Note_on_c, 3, 69, 79
5, 78528, Note_on_c, 3, 72, 79
5, 78592, Note_off_c, 3, 69, 64
5, 78592, Note_off_c, 3, 72, 64
5, 78600, Control_c, 3, 7, 80
5, 78624, Note_on_c, 3, 67, 79
5, 78624, Note_on_c, 3, 65, 79
5, 78624, Note_on_c, 3, 71, 79
5, 78696, Control_c, 3, 7, 79
5, 78784, Note_off_c, 3, 67, 64
5, 78784, Note_off_c, 3, 65, 64
5, 78784, Note_off_c, 3, 71, 64
5, 78816, Control_c, 3, 7, 78
5, 78816, Note_on_c, 3, 67, 79
5, 78816, Note_on_c, 3, 65, 79
5, 78816, Note_on_c, 3, 71, 79
5, 78936, Control_c, 3, 7, 77
5, 78976, Note_off_c, 3, 67, 64
5, 78976, Note_off_c, 3, 65, 64
5, 78976, Note_off_c, 3, 71, 64
5, 79008, Note_on_c, 3, 67, 79
5, 79008, Note_on_c, 3, 65, 79
5, 79008, Note_on_c, 3, 71, 79
5, 79032, Control_c, 3, 7, 76
5, 79072, Note_off_c, 3, 67, 64
5, 79072, Note_off_c, 3, 65, 64
5, 79072, Note_off_c, 3, 71, 64
5, 79104, Note_on_c, 3, 71, 79
5, 79104, Note_on_c, 3, 67, 79
5, 79104, Note_on_c, 3, 74, 79
5, 79152, Control_c, 3, 7, 75
5, 79168, Note_off_c, 3, 71, 64
5, 79168, Note_off_c, 3, 67, 64
5, 79168, Note_off_c, 3, 74, 64
5, 79272, Control_c, 3, 7, 74
5, 79368, Control_c, 3, 7, 73
5, 79392, Note_on_c, 3, 60, 79
5, 79392, Note_on_c, 3, 64, 79
5, 79488, Control_c, 3, 7, 72
5, 79552, Note_off_c, 3, 60, 64
5, 79552, Note_off_c, 3, 64, 64
5, 79584, Note_on_c, 3, 60, 79
5, 79584, Note_on_c, 3, 64, 79
5, 79608, Control_c, 3, 7, 71
5, 79704, Control_c, 3, 7, 70
5, 79808, Note_off_c, 3, 60, 64
5, 79808, Note_off_c, 3, 64, 64
5, 79824, Control_c, 3, 7, 69
5, 79872, Note_on_c, 3, 71, 79
5, 79872, Note_on_c, 3, 67, 79
5, 79872, Note_on_c, 3, 74, 79
5, 79944, Control_c, 3, 7, 68
5, 80000, Note_off_c, 3, 71, 64
5, 80000, Note_off_c, 3, 67, 64
5, 80000, Note_off_c, 3, 74, 64
5, 80040, Control_c, 3, 7, 67
5, 80160, Control_c, 3, 7, 66
5, 80160, Note_on_c, 3, 60, 79
5, 80160, Note_on_c, 3, 64, 79
5, 80280, Control_c, 3, 7, 65
5, 80320, Note_off_c, 3, 60, 64
5, 80320, Note_off_c, 3, 64, 64
5, 80352, Note_on_c, 3, 60, 79
5, 80352, Note_on_c, 3, 64, 79
5, 80376, Control_c, 3, 7, 64
5, 80496, Control_c, 3, 7, 63
5, 80512, Note_off_c, 3, 60, 64
5, 80512, Note_off_c, 3, 64, 64
5, 80616, Control_c, 3, 7, 62
5, 80640, Note_on_c, 3, 69, 79
5, 80640, Note_on_c, 3, 72, 79
5, 80704, Note_off_c, 3, 69, 64
5, 80704, Note_off_c, 3, 72, 64
5, 80712, Control_c, 3, 7, 61
5, 80832, Control_c, 3, 7, 60
5, 80952, Control_c, 3, 7, 59
5, 81048, Control_c, 3, 7, 58
5, 81168, Control_c, 3, 7, 57
5, 81288, Control_c, 3, 7, 56
5, 81384, Control_c, 3, 7, 55
5, 81408, Note_on_c, 3, 69, 79
5, 81408, Note_on_c, 3, 67, 79
5, 81408, Note_on_c, 3, 72, 79
5, 81472, Note_off_c, 3, 69, 64
5, 81472, Note_off_c, 3, 67, 64
5, 81472, Note_off_c, 3, 72, 64
5, 81504, Control_c, 3, 7, 54
5, 81504, Note_on_c, 3, 69, 79
5, 81504, Note_on_c, 3, 72, 79
5, 81536, Note_off_c, 3, 69, 64
5, 81552, Note_on_c, 3, 67, 79
5, 81568, Note_off_c, 3, 72, 64
5, 81584, Note_off_c, 3, 67, 64
5, 81600, Note_on_c, 3, 69, 79
5, 81600, Note_on_c, 3, 72, 79
5, 81624, Control_c, 3, 7, 53
5, 81664, Note_off_c, 3, 69, 64
5, 81664, Note_off_c, 3, 72, 64
5, 81696, Note_on_c, 3, 67, 79
5, 81696, Note_on_c, 3, 65, 79
5, 81696, Note_on_c, 3, 71, 79
5, 81720, Control_c, 3, 7, 52
5, 81840, Control_c, 3, 7, 51
5, 81856, Note_off_c, 3, 67, 64
5, 81856, Note_off_c, 3, 65, 64
5, 81856, Note_off_c, 3, 71, 64
5, 81888, Note_on_c, 3, 67, 79
5, 81888, Note_on_c, 3, 65, 79
5, 81888, Note_on_c, 3, 71, 79
5, 81960, Control_c, 3, 7, 50
5, 82048, Note_off_c, 3, 67, 64
5, 82048, Note_off_c, 3, 65, 64
5, 82048, Note_off_c, 3, 71, 64
5, 82056, Control_c, 3, 7, 49
5, 82080, Note_on_c, 3, 67, 79
5, 82080, Note_on_c, 3, 65, 79
5, 82080, Note_on_c, 3, 71, 79
5, 82144, Note_off_c, 3, 67, 64
5, 82144, Note_off_c, 3, 65, 64
5, 82144, Note_off_c, 3, 71, 64
5, 82176, Control_c, 3, 7, 48
5, 82176, Note_on_c, 3, 71, 79
5, 82176, Note_on_c, 3, 67, 79
5, 82176, Note_on_c, 3, 74, 79
5, 82240, Note_off_c, 3, 71, 64
5, 82240, Note_off_c, 3, 67, 64
5, 82240, Note_off_c, 3, 74, 64
5, 82296, Control_c, 3, 7, 47
5, 82392, Control_c, 3, 7, 46
5, 82464, Note_on_c, 3, 60, 79
5, 82464, Note_on_c, 3, 64, 79
5, 82512, Control_c, 3, 7, 45
5, 82624, Note_off_c, 3, 60, 64
5, 82624, Note_off_c, 3, 64, 64
5, 82632, Control_c, 3, 7, 44
5, 82656, Note_on_c, 3, 60, 79
5, 82656, Note_on_c, 3, 64, 79
5, 82752, Control_c, 3, 7, 43
5, 82848, Control_c, 3, 7, 42
5, 82880, Note_off_c, 3, 60, 64
5, 82880, Note_off_c, 3, 64, 64
5, 82944, Note_on_c, 3, 71, 79
5, 82944, Note_on_c, 3, 67, 79
5, 82944, Note_on_c, 3, 74, 79
5, 82968, Control_c, 3, 7, 41
5, 83072, Note_off_c, 3, 71, 64
5, 83072, Note_off_c, 3, 67, 64
5, 83072, Note_off_c, 3, 74, 64
5, 83088, Control_c, 3, 7, 40
5, 83184, Control_c, 3, 7, 39
5, 83232, Note_on_c, 3, 60, 79
5, 83232, Note_on_c, 3, 64, 79
5, 83304, Control_c, 3, 7, 38
5, 83392, Note_off_c, 3, 60, 64
5, 83392, Note_off_c, 3, 64, 64
5, 83424, Control_c, 3, 7, 37
5, 83424, Note_on_c, 3, 60, 79
5, 83424, Note_on_c, 3, 64, 79
5, 83520, Control_c, 3, 7, 36
5, 83584, Note_off_c, 3, 60, 64
5, 83584, Note_off_c, 3, 64, 64
5, 83640, Control_c, 3, 7, 35
5, 83712, Note_on_c, 3, 69, 79
5, 83712, Note_on_c, 3, 72, 79
5, 83760, Control_c, 3, 7, 34
5, 83776, Note_off_c, 3, 69, 64
5, 83776, Note_off_c, 3, 72, 64
5, 83856, Control_c, 3, 7, 33
5, 83976, Control_c, 3, 7, 32
5, 84096, Control_c, 3, 7, 31
5, 84192, Control_c, 3, 7, 30
5, 84312, Control_c, 3, 7, 29
5, 84432, Control_c, 3, 7, 28
5, 84480, Note_on_c, 3, 69, 79
5, 84480, Note_on_c, 3, 67, 79
5, 84480, Note_on_c, 3, 72, 79
5, 84528, Control_c, 3, 7, 27
5, 84544, Note_off_c, 3, 69, 64
5, 84544, Note_off_c, 3, 67, 64
5, 84544, Note_off_c, 3, 72, 64
5, 84576, Note_on_c, 3, 69, 79
5, 84576, Note_on_c, 3, 72, 79
5, 84608, Note_off_c, 3, 69, 64
5, 84624, Note_on_c, 3, 67, 79
5, 84640, Note_off_c, 3, 72, 64
5, 84648, Control_c, 3, 7, 26
5, 84656, Note_off_c, 3, 67, 64
5, 84672, Note_on_c, 3, 69, 79
5, 84672, Note_on_c, 3, 72, 79
5, 84736, Note_off_c, 3, 69, 64
5, 84736, Note_off_c, 3, 72, 64
5, 84768, Control_c, 3, 7, 25
5, 84768, Note_on_c, 3, 67, 79
5, 84768, Note_on_c, 3, 65, 79
5, 84768, Note_on_c, 3, 71, 79
5, 84864, Control_c, 3, 7, 24
5, 84928, Note_off_c, 3, 67, 64
5, 84928, Note_off_c, 3, 65, 64
5, 84928, Note_off_c, 3, 71, 64
5, 84960, Note_on_c, 3, 67, 79
5, 84960, Note_on_c, 3, 65, 79
5, 84960, Note_on_c, 3, 71, 79
5, 84984, Control_c, 3, 7, 23
5, 85104, Control_c, 3, 7, 22
5, 85120, Note_off_c, 3, 67, 64
5, 85120, Note_off_c, 3, 65, 64
5, 85120, Note_off_c, 3, 71, 64
5, 85152, Note_on_c, 3, 67, 79
5, 85152, Note_on_c, 3, 65, 79
5, 85152, Note_on_c, 3, 71, 79
5, 85200, Control_c, 3, 7, 21
5, 85216, Note_off_c, 3, 67, 64
5, 85216, Note_off_c, 3, 65, 64
5, 85216, Note_off_c, 3, 71, 64
5, 85248, Note_on_c, 3, 71, 79
5, 85248, Note_on_c, 3, 67, 79
5, 85248, Note_on_c, 3, 74, 79
5, 85312, Note_off_c, 3, 71, 64
5, 85312, Note_off_c, 3, 67, 64
5, 85312, Note_off_c, 3, 74, 64
5, 85320, Control_c, 3, 7, 20
5, 85440, Control_c, 3, 7, 19
5, 85536, Control_c, 3, 7, 18
5, 85536, Note_on_c, 3, 60, 79
5, 85536, Note_on_c, 3, 64, 79
5, 85656, Control_c, 3, 7, 17
5, 85696, Note_off_c, 3, 60, 64
5, 85696, Note_off_c, 3, 64, 64
5, 85728, Note_on_c, 3, 60, 79
5, 85728, Note_on_c, 3, 64, 79
5, 85776, Control_c, 3, 7, 16
5, 85872, Control_c, 3, 7, 15
5, 85952, Note_off_c, 3, 60, 64
5, 85952, Note_off_c, 3, 64, 64
5, 85992, Control_c, 3, 7, 14
5, 86016, Note_on_c, 3, 71, 79
5, 86016, Note_on_c, 3, 67, 79
5, 86016, Note_on_c, 3, 74, 79
5, 86112, Control_c, 3, 7, 13
5, 86144, Note_off_c, 3, 71, 64
5, 86144, Note_off_c, 3, 67, 64
5, 86144, Note_off_c, 3, 74, 64
5, 86208, Control_c, 3, 7, 12
5, 86304, Note_on_c, 3, 60, 79
5, 86304, Note_on_c, 3, 64, 79
5, 86328, Control_c, 3, 7, 11
5, 86448, Control_c, 3, 7, 10
5, 86464, Note_off_c, 3, 60, 64
5, 86464, Note_off_c, 3, 64, 64
5, 86496, Note_on_c, 3, 60, 79
5, 86496, Note_on_c, 3, 64, 79
5, 86544, Control_c, 3, 7, 9
5, 86656, Note_off_c, 3, 60, 64
5, 86656, Note_off_c, 3, 64, 64
5, 86664, Control_c, 3, 7, 8
5, 86784, Control_c, 3, 7, 7
5, 86880, Control_c, 3, 7, 6
5, 87000, Control_c, 3, 7, 5
5, 87120, Control_c, 3, 7, 4
5, 87216, Control_c, 3, 7, 3
5, 87336, Control_c, 3, 7, 2
5, 87456, Control_c, 3, 7, 1
5, 87456, End_track
6, 0, Start_track
6, 0, MIDI_port, 0
6, 0, Title_t, "Norma Williams of   "
6, 0, Program_c, 4, 28
6, 0, Control_c, 4, 7, 109
6, 0, Control_c, 4, 10, 45
6, 0, Pitch_bend_c, 4, 8192
6, 0, Control_c, 4, 1, 0
6, 0, Control_c, 4, 64, 0
6, 192, Control_c, 4, 7, 108
6, 768, Note_on_c, 4, 33, 79
6, 832, Note_off_c, 4, 33, 64
6, 864, Note_on_c, 4, 33, 79
6, 1024, Note_off_c, 4, 33, 64
6, 1056, Note_on_c, 4, 45, 79
6, 1120, Note_off_c, 4, 45, 64
6, 1152, Note_on_c, 4, 33, 79
6, 1216, Note_off_c, 4, 33, 64
6, 1248, Note_on_c, 4, 33, 79
6, 1408, Note_off_c, 4, 33, 64
6, 1440, Note_on_c, 4, 40, 79
6, 1504, Note_off_c, 4, 40, 64
6, 1536, Note_on_c, 4, 28, 79
6, 1600, Note_off_c, 4, 28, 64
6, 1632, Note_on_c, 4, 28, 79
6, 1792, Note_off_c, 4, 28, 64
6, 1824, Note_on_c, 4, 40, 79
6, 1888, Note_off_c, 4, 40, 64
6, 1920, Note_on_c, 4, 28, 79
6, 1984, Note_off_c, 4, 28, 64
6, 2016, Note_on_c, 4, 28, 79
6, 2176, Note_off_c, 4, 28, 64
6, 2208, Note_on_c, 4, 43, 79
6, 2272, Note_off_c, 4, 43, 64
6, 2304, Note_on_c, 4, 31, 79
6, 2368, Note_off_c, 4, 31, 64
6, 2400, Note_on_c, 4, 31, 79
6, 2560, Note_off_c, 4, 31, 64
6, 2592, Note_on_c, 4, 43, 79
6, 2656, Note_off_c, 4, 43, 64
6, 2688, Note_on_c, 4, 31, 79
6, 2752, Note_off_c, 4, 31, 64
6, 2784, Note_on_c, 4, 31, 79
6, 2944, Note_off_c, 4, 31, 64
6, 2976, Note_on_c, 4, 43, 79
6, 3040, Note_off_c, 4, 43, 64
6, 3072, Note_on_c, 4, 38, 79
6, 3136, Note_off_c, 4, 38, 64
6, 3168, Note_on_c, 4, 38, 79
6, 3328, Note_off_c, 4, 38, 64
6, 3360, Note_on_c, 4, 36, 79
6, 3424, Note_off_c, 4, 36, 64
6, 3456, Note_on_c, 4, 38, 79
6, 3520, Note_off_c, 4, 38, 64
6, 3552, Note_on_c, 4, 38, 79
6, 3712, Note_off_c, 4, 38, 64
6, 3744, Note_on_c, 4, 45, 79
6, 3808, Note_off_c, 4, 45, 64
6, 3840, Note_on_c, 4, 33, 79
6, 3904, Note_off_c, 4, 33, 64
6, 3936, Note_on_c, 4, 33, 79
6, 4096, Note_off_c, 4, 33, 64
6, 4128, Note_on_c, 4, 45, 79
6, 4192, Note_off_c, 4, 45, 64
6, 4224, Note_on_c, 4, 33, 79
6, 4288, Note_off_c, 4, 33, 64
6, 4320, Note_on_c, 4, 33, 79
6, 4480, Note_off_c, 4, 33, 64
6, 4512, Note_on_c, 4, 40, 79
6, 4576, Note_off_c, 4, 40, 64
6, 4608, Note_on_c, 4, 28, 79
6, 4672, Note_off_c, 4, 28, 64
6, 4704, Note_on_c, 4, 28, 79
6, 4864, Note_off_c, 4, 28, 64
6, 4896, Note_on_c, 4, 40, 79
6, 4960, Note_off_c, 4, 40, 64
6, 4992, Note_on_c, 4, 28, 79
6, 5056, Note_off_c, 4, 28, 64
6, 5088, Note_on_c, 4, 28, 79
6, 5248, Note_off_c, 4, 28, 64
6, 5280, Note_on_c, 4, 43, 79
6, 5344, Note_off_c, 4, 43, 64
6, 5376, Note_on_c, 4, 31, 79
6, 5440, Note_off_c, 4, 31, 64
6, 5472, Note_on_c, 4, 31, 79
6, 5632, Note_off_c, 4, 31, 64
6, 5664, Note_on_c, 4, 43, 79
6, 5728, Note_off_c, 4, 43, 64
6, 5760, Note_on_c, 4, 31, 79
6, 5824, Note_off_c, 4, 31, 64
6, 5856, Note_on_c, 4, 31, 79
6, 6016, Note_off_c, 4, 31, 64
6, 6048, Note_on_c, 4, 43, 79
6, 6112, Note_off_c, 4, 43, 64
6, 6144, Note_on_c, 4, 38, 79
6, 6208, Note_off_c, 4, 38, 64
6, 6240, Note_on_c, 4, 38, 79
6, 6400, Note_off_c, 4, 38, 64
6, 6432, Note_on_c, 4, 36, 79
6, 6496, Note_off_c, 4, 36, 64
6, 6528, Note_on_c, 4, 38, 79
6, 6592, Note_off_c, 4, 38, 64
6, 6624, Note_on_c, 4, 38, 79
6, 6784, Note_off_c, 4, 38, 64
6, 6816, Note_on_c, 4, 45, 79
6, 6880, Note_off_c, 4, 45, 64
6, 6912, Note_on_c, 4, 33, 79
6, 6976, Note_off_c, 4, 33, 64
6, 7008, Note_on_c, 4, 33, 79
6, 7168, Note_off_c, 4, 33, 64
6, 7200, Note_on_c, 4, 45, 79
6, 7264, Note_off_c, 4, 45, 64
6, 7296, Note_on_c, 4, 33, 79
6, 7360, Note_off_c, 4, 33, 64
6, 7392, Note_on_c, 4, 33, 79
6, 7552, Note_off_c, 4, 33, 64
6, 7584, Note_on_c, 4, 40, 79
6, 7648, Note_off_c, 4, 40, 64
6, 7680, Note_on_c, 4, 28, 79
6, 7744, Note_off_c, 4, 28, 64
6, 7776, Note_on_c, 4, 28, 79
6, 7936, Note_off_c, 4, 28, 64
6, 7968, Note_on_c, 4, 40, 79
6, 8032, Note_off_c, 4, 40, 64
6, 8064, Note_on_c, 4, 28, 79
6, 8128, Note_off_c, 4, 28, 64
6, 8160, Note_on_c, 4, 28, 79
6, 8320, Note_off_c, 4, 28, 64
6, 8352, Note_on_c, 4, 43, 79
6, 8416, Note_off_c, 4, 43, 64
6, 8448, Note_on_c, 4, 31, 79
6, 8512, Note_off_c, 4, 31, 64
6, 8544, Note_on_c, 4, 31, 79
6, 8704, Note_off_c, 4, 31, 64
6, 8736, Note_on_c, 4, 43, 79
6, 8800, Note_off_c, 4, 43, 64
6, 8832, Note_on_c, 4, 31, 79
6, 8896, Note_off_c, 4, 31, 64
6, 8928, Note_on_c, 4, 31, 79
6, 9088, Note_off_c, 4, 31, 64
6, 9120, Note_on_c, 4, 43, 79
6, 9184, Note_off_c, 4, 43, 64
6, 9216, Note_on_c, 4, 38, 79
6, 9280, Note_off_c, 4, 38, 64
6, 9312, Note_on_c, 4, 38, 79
6, 9472, Note_off_c, 4, 38, 64
6, 9504, Note_on_c, 4, 36, 79
6, 9568, Note_off_c, 4, 36, 64
6, 9600, Note_on_c, 4, 38, 79
6, 9664, Note_off_c, 4, 38, 64
6, 9696, Note_on_c, 4, 38, 79
6, 9856, Note_off_c, 4, 38, 64
6, 9888, Note_on_c, 4, 45, 79
6, 9952, Note_off_c, 4, 45, 64
6, 9984, Note_on_c, 4, 33, 79
6, 10048, Note_off_c, 4, 33, 64
6, 10080, Note_on_c, 4, 33, 79
6, 10240, Note_off_c, 4, 33, 64
6, 10272, Note_on_c, 4, 45, 79
6, 10336, Note_off_c, 4, 45, 64
6, 10368, Note_on_c, 4, 33, 79
6, 10432, Note_off_c, 4, 33, 64
6, 10464, Note_on_c, 4, 33, 79
6, 10624, Note_off_c, 4, 33, 64
6, 10656, Note_on_c, 4, 40, 79
6, 10720, Note_off_c, 4, 40, 64
6, 10752, Note_on_c, 4, 28, 79
6, 10816, Note_off_c, 4, 28, 64
6, 10848, Note_on_c, 4, 28, 79
6, 11008, Note_off_c, 4, 28, 64
6, 11040, Note_on_c, 4, 40, 79
6, 11104, Note_off_c, 4, 40, 64
6, 11136, Note_on_c, 4, 28, 79
6, 11200, Note_off_c, 4, 28, 64
6, 11232, Note_on_c, 4, 28, 79
6, 11392, Note_off_c, 4, 28, 64
6, 11424, Note_on_c, 4, 28, 79
6, 11488, Note_off_c, 4, 28, 64
6, 11520, Note_on_c, 4, 29, 79
6, 11648, Note_off_c, 4, 29, 64
6, 11712, Note_on_c, 4, 29, 79
6, 11840, Note_off_c, 4, 29, 64
6, 12096, Note_on_c, 4, 29, 79
6, 12224, Note_off_c, 4, 29, 64
6, 12384, Note_on_c, 4, 28, 79
6, 12448, Note_off_c, 4, 28, 64
6, 12480, Note_on_c, 4, 29, 79
6, 12544, Note_off_c, 4, 29, 64
6, 12576, Note_on_c, 4, 28, 79
6, 12640, Note_off_c, 4, 28, 64
6, 12672, Note_on_c, 4, 29, 79
6, 12800, Note_off_c, 4, 29, 64
6, 12864, Note_on_c, 4, 28, 79
6, 12992, Note_off_c, 4, 28, 64
6, 13056, Note_on_c, 4, 38, 79
6, 13184, Note_off_c, 4, 38, 64
6, 13248, Note_on_c, 4, 50, 79
6, 13312, Note_off_c, 4, 50, 64
6, 13344, Note_on_c, 4, 48, 79
6, 13408, Note_off_c, 4, 48, 64
6, 13440, Note_on_c, 4, 50, 79
6, 13504, Note_off_c, 4, 50, 64
6, 13536, Note_on_c, 4, 55, 79
6, 13600, Note_off_c, 4, 55, 64
6, 13632, Note_on_c, 4, 53, 79
6, 13760, Note_off_c, 4, 53, 64
6, 13824, Note_on_c, 4, 45, 79
6, 14016, Note_off_c, 4, 45, 64
6, 14112, Note_on_c, 4, 43, 79
6, 14336, Note_off_c, 4, 43, 64
6, 14400, Note_on_c, 4, 43, 79
6, 14464, Note_off_c, 4, 43, 64
6, 14496, Note_on_c, 4, 43, 79
6, 14560, Note_off_c, 4, 43, 64
6, 14592, Note_on_c, 4, 40, 79
6, 14784, Note_off_c, 4, 40, 64
6, 14880, Note_on_c, 4, 41, 79
6, 15104, Note_off_c, 4, 41, 64
6, 15168, Note_on_c, 4, 41, 79
6, 15232, Note_off_c, 4, 41, 64
6, 15264, Note_on_c, 4, 41, 79
6, 15328, Note_off_c, 4, 41, 64
6, 15360, Note_on_c, 4, 40, 79
6, 15552, Note_off_c, 4, 40, 64
6, 15648, Note_on_c, 4, 36, 79
6, 15808, Note_off_c, 4, 36, 64
6, 15840, Note_on_c, 4, 33, 79
6, 15904, Note_off_c, 4, 33, 64
6, 15936, Note_on_c, 4, 36, 79
6, 16000, Note_off_c, 4, 36, 64
6, 16032, Note_on_c, 4, 36, 79
6, 16096, Note_off_c, 4, 36, 64
6, 16128, Note_on_c, 4, 38, 79
6, 16256, Note_off_c, 4, 38, 64
6, 16320, Note_on_c, 4, 50, 79
6, 16384, Note_off_c, 4, 50, 64
6, 16416, Note_on_c, 4, 48, 79
6, 16480, Note_off_c, 4, 48, 64
6, 16512, Note_on_c, 4, 50, 79
6, 16576, Note_off_c, 4, 50, 64
6, 16608, Note_on_c, 4, 55, 79
6, 16672, Note_off_c, 4, 55, 64
6, 16704, Note_on_c, 4, 53, 79
6, 16832, Note_off_c, 4, 53, 64
6, 16896, Note_on_c, 4, 45, 79
6, 17088, Note_off_c, 4, 45, 64
6, 17184, Note_on_c, 4, 43, 79
6, 17408, Note_off_c, 4, 43, 64
6, 17472, Note_on_c, 4, 43, 79
6, 17536, Note_off_c, 4, 43, 64
6, 17568, Note_on_c, 4, 43, 79
6, 17632, Note_off_c, 4, 43, 64
6, 17664, Note_on_c, 4, 40, 79
6, 17856, Note_off_c, 4, 40, 64
6, 17952, Note_on_c, 4, 41, 79
6, 18176, Note_off_c, 4, 41, 64
6, 18240, Note_on_c, 4, 41, 79
6, 18304, Note_off_c, 4, 41, 64
6, 18336, Note_on_c, 4, 41, 79
6, 18400, Note_off_c, 4, 41, 64
6, 18432, Note_on_c, 4, 40, 79
6, 18624, Note_off_c, 4, 40, 64
6, 18720, Note_on_c, 4, 36, 79
6, 18880, Note_off_c, 4, 36, 64
6, 18912, Note_on_c, 4, 33, 79
6, 18976, Note_off_c, 4, 33, 64
6, 19008, Note_on_c, 4, 36, 79
6, 19072, Note_off_c, 4, 36, 64
6, 19104, Note_on_c, 4, 45, 79
6, 19168, Note_off_c, 4, 45, 64
6, 19200, Note_on_c, 4, 33, 79
6, 19264, Note_off_c, 4, 33, 64
6, 19296, Note_on_c, 4, 33, 79
6, 19456, Note_off_c, 4, 33, 64
6, 19488, Note_on_c, 4, 45, 79
6, 19552, Note_off_c, 4, 45, 64
6, 19584, Note_on_c, 4, 33, 79
6, 19648, Note_off_c, 4, 33, 64
6, 19680, Note_on_c, 4, 33, 79
6, 19840, Note_off_c, 4, 33, 64
6, 19872, Note_on_c, 4, 40, 79
6, 19936, Note_off_c, 4, 40, 64
6, 19968, Note_on_c, 4, 28, 79
6, 20032, Note_off_c, 4, 28, 64
6, 20064, Note_on_c, 4, 28, 79
6, 20224, Note_off_c, 4, 28, 64
6, 20256, Note_on_c, 4, 40, 79
6, 20320, Note_off_c, 4, 40, 64
6, 20352, Note_on_c, 4, 28, 79
6, 20416, Note_off_c, 4, 28, 64
6, 20448, Note_on_c, 4, 28, 79
6, 20608, Note_off_c, 4, 28, 64
6, 20640, Note_on_c, 4, 43, 79
6, 20704, Note_off_c, 4, 43, 64
6, 20736, Note_on_c, 4, 31, 79
6, 20800, Note_off_c, 4, 31, 64
6, 20832, Note_on_c, 4, 31, 79
6, 20992, Note_off_c, 4, 31, 64
6, 21024, Note_on_c, 4, 43, 79
6, 21088, Note_off_c, 4, 43, 64
6, 21120, Note_on_c, 4, 31, 79
6, 21184, Note_off_c, 4, 31, 64
6, 21216, Note_on_c, 4, 31, 79
6, 21376, Note_off_c, 4, 31, 64
6, 21408, Note_on_c, 4, 43, 79
6, 21472, Note_off_c, 4, 43, 64
6, 21504, Note_on_c, 4, 38, 79
6, 21568, Note_off_c, 4, 38, 64
6, 21600, Note_on_c, 4, 38, 79
6, 21760, Note_off_c, 4, 38, 64
6, 21792, Note_on_c, 4, 36, 79
6, 21856, Note_off_c, 4, 36, 64
6, 21888, Note_on_c, 4, 38, 79
6, 21952, Note_off_c, 4, 38, 64
6, 21984, Note_on_c, 4, 38, 79
6, 22144, Note_off_c, 4, 38, 64
6, 22176, Note_on_c, 4, 45, 79
6, 22240, Note_off_c, 4, 45, 64
6, 22272, Note_on_c, 4, 33, 79
6, 22336, Note_off_c, 4, 33, 64
6, 22368, Note_on_c, 4, 33, 79
6, 22528, Note_off_c, 4, 33, 64
6, 22560, Note_on_c, 4, 45, 79
6, 22624, Note_off_c, 4, 45, 64
6, 22656, Note_on_c, 4, 33, 79
6, 22720, Note_off_c, 4, 33, 64
6, 22752, Note_on_c, 4, 33, 79
6, 22912, Note_off_c, 4, 33, 64
6, 22944, Note_on_c, 4, 40, 79
6, 23008, Note_off_c, 4, 40, 64
6, 23040, Note_on_c, 4, 28, 79
6, 23104, Note_off_c, 4, 28, 64
6, 23136, Note_on_c, 4, 28, 79
6, 23296, Note_off_c, 4, 28, 64
6, 23328, Note_on_c, 4, 40, 79
6, 23392, Note_off_c, 4, 40, 64
6, 23424, Note_on_c, 4, 28, 79
6, 23488, Note_off_c, 4, 28, 64
6, 23520, Note_on_c, 4, 28, 79
6, 23680, Note_off_c, 4, 28, 64
6, 23712, Note_on_c, 4, 43, 79
6, 23776, Note_off_c, 4, 43, 64
6, 23808, Note_on_c, 4, 31, 79
6, 23872, Note_off_c, 4, 31, 64
6, 23904, Note_on_c, 4, 31, 79
6, 24064, Note_off_c, 4, 31, 64
6, 24096, Note_on_c, 4, 43, 79
6, 24160, Note_off_c, 4, 43, 64
6, 24192, Note_on_c, 4, 31, 79
6, 24256, Note_off_c, 4, 31, 64
6, 24288, Note_on_c, 4, 31, 79
6, 24448, Note_off_c, 4, 31, 64
6, 24480, Note_on_c, 4, 43, 79
6, 24544, Note_off_c, 4, 43, 64
6, 24576, Note_on_c, 4, 38, 79
6, 24640, Note_off_c, 4, 38, 64
6, 24672, Note_on_c, 4, 38, 79
6, 24832, Note_off_c, 4, 38, 64
6, 24864, Note_on_c, 4, 36, 79
6, 24928, Note_off_c, 4, 36, 64
6, 24960, Note_on_c, 4, 38, 79
6, 25024, Note_off_c, 4, 38, 64
6, 25056, Note_on_c, 4, 38, 79
6, 25216, Note_off_c, 4, 38, 64
6, 25248, Note_on_c, 4, 45, 79
6, 25312, Note_off_c, 4, 45, 64
6, 25344, Note_on_c, 4, 33, 79
6, 25408, Note_off_c, 4, 33, 64
6, 25440, Note_on_c, 4, 33, 79
6, 25600, Note_off_c, 4, 33, 64
6, 25632, Note_on_c, 4, 45, 79
6, 25696, Note_off_c, 4, 45, 64
6, 25728, Note_on_c, 4, 33, 79
6, 25792, Note_off_c, 4, 33, 64
6, 25824, Note_on_c, 4, 33, 79
6, 25984, Note_off_c, 4, 33, 64
6, 26016, Note_on_c, 4, 40, 79
6, 26080, Note_off_c, 4, 40, 64
6, 26112, Note_on_c, 4, 28, 79
6, 26176, Note_off_c, 4, 28, 64
6, 26208, Note_on_c, 4, 28, 79
6, 26368, Note_off_c, 4, 28, 64
6, 26400, Note_on_c, 4, 40, 79
6, 26464, Note_off_c, 4, 40, 64
6, 26496, Note_on_c, 4, 28, 79
6, 26560, Note_off_c, 4, 28, 64
6, 26592, Note_on_c, 4, 28, 79
6, 26752, Note_off_c, 4, 28, 64
6, 26784, Note_on_c, 4, 43, 79
6, 26848, Note_off_c, 4, 43, 64
6, 26880, Note_on_c, 4, 31, 79
6, 26944, Note_off_c, 4, 31, 64
6, 26976, Note_on_c, 4, 31, 79
6, 27136, Note_off_c, 4, 31, 64
6, 27168, Note_on_c, 4, 43, 79
6, 27232, Note_off_c, 4, 43, 64
6, 27264, Note_on_c, 4, 31, 79
6, 27328, Note_off_c, 4, 31, 64
6, 27360, Note_on_c, 4, 31, 79
6, 27520, Note_off_c, 4, 31, 64
6, 27552, Note_on_c, 4, 43, 79
6, 27616, Note_off_c, 4, 43, 64
6, 27648, Note_on_c, 4, 38, 79
6, 27712, Note_off_c, 4, 38, 64
6, 27744, Note_on_c, 4, 38, 79
6, 27904, Note_off_c, 4, 38, 64
6, 27936, Note_on_c, 4, 36, 79
6, 28000, Note_off_c, 4, 36, 64
6, 28032, Note_on_c, 4, 38, 79
6, 28096, Note_off_c, 4, 38, 64
6, 28128, Note_on_c, 4, 38, 79
6, 28288, Note_off_c, 4, 38, 64
6, 28320, Note_on_c, 4, 45, 79
6, 28384, Note_off_c, 4, 45, 64
6, 28416, Note_on_c, 4, 33, 79
6, 28480, Note_off_c, 4, 33, 64
6, 28512, Note_on_c, 4, 33, 79
6, 28672, Note_off_c, 4, 33, 64
6, 28704, Note_on_c, 4, 45, 79
6, 28768, Note_off_c, 4, 45, 64
6, 28800, Note_on_c, 4, 33, 79
6, 28864, Note_off_c, 4, 33, 64
6, 28896, Note_on_c, 4, 33, 79
6, 29056, Note_off_c, 4, 33, 64
6, 29088, Note_on_c, 4, 40, 79
6, 29152, Note_off_c, 4, 40, 64
6, 29184, Note_on_c, 4, 28, 79
6, 29248, Note_off_c, 4, 28, 64
6, 29280, Note_on_c, 4, 28, 79
6, 29440, Note_off_c, 4, 28, 64
6, 29472, Note_on_c, 4, 40, 79
6, 29536, Note_off_c, 4, 40, 64
6, 29568, Note_on_c, 4, 28, 79
6, 29632, Note_off_c, 4, 28, 64
6, 29664, Note_on_c, 4, 28, 79
6, 29824, Note_off_c, 4, 28, 64
6, 29856, Note_on_c, 4, 28, 79
6, 29920, Note_off_c, 4, 28, 64
6, 29952, Note_on_c, 4, 29, 79
6, 30080, Note_off_c, 4, 29, 64
6, 30144, Note_on_c, 4, 29, 79
6, 30272, Note_off_c, 4, 29, 64
6, 30528, Note_on_c, 4, 29, 79
6, 30656, Note_off_c, 4, 29, 64
6, 30816, Note_on_c, 4, 28, 79
6, 30880, Note_off_c, 4, 28, 64
6, 30912, Note_on_c, 4, 29, 79
6, 30976, Note_off_c, 4, 29, 64
6, 31008, Note_on_c, 4, 28, 79
6, 31072, Note_off_c, 4, 28, 64
6, 31104, Note_on_c, 4, 29, 79
6, 31232, Note_off_c, 4, 29, 64
6, 31296, Note_on_c, 4, 28, 79
6, 31424, Note_off_c, 4, 28, 64
6, 31488, Note_on_c, 4, 38, 79
6, 31616, Note_off_c, 4, 38, 64
6, 31680, Note_on_c, 4, 50, 79
6, 31744, Note_off_c, 4, 50, 64
6, 31776, Note_on_c, 4, 48, 79
6, 31840, Note_off_c, 4, 48, 64
6, 31872, Note_on_c, 4, 50, 79
6, 31936, Note_off_c, 4, 50, 64
6, 31968, Note_on_c, 4, 55, 79
6, 32032, Note_off_c, 4, 55, 64
6, 32064, Note_on_c, 4, 53, 79
6, 32192, Note_off_c, 4, 53, 64
6, 32256, Note_on_c, 4, 45, 79
6, 32448, Note_off_c, 4, 45, 64
6, 32544, Note_on_c, 4, 43, 79
6, 32768, Note_off_c, 4, 43, 64
6, 32832, Note_on_c, 4, 43, 79
6, 32896, Note_off_c, 4, 43, 64
6, 32928, Note_on_c, 4, 43, 79
6, 32992, Note_off_c, 4, 43, 64
6, 33024, Note_on_c, 4, 40, 79
6, 33216, Note_off_c, 4, 40, 64
6, 33312, Note_on_c, 4, 41, 79
6, 33536, Note_off_c, 4, 41, 64
6, 33600, Note_on_c, 4, 41, 79
6, 33664, Note_off_c, 4, 41, 64
6, 33696, Note_on_c, 4, 41, 79
6, 33760, Note_off_c, 4, 41, 64
6, 33792, Note_on_c, 4, 40, 79
6, 33984, Note_off_c, 4, 40, 64
6, 34080, Note_on_c, 4, 36, 79
6, 34240, Note_off_c, 4, 36, 64
6, 34272, Note_on_c, 4, 33, 79
6, 34336, Note_off_c, 4, 33, 64
6, 34368, Note_on_c, 4, 36, 79
6, 34432, Note_off_c, 4, 36, 64
6, 34464, Note_on_c, 4, 36, 79
6, 34528, Note_off_c, 4, 36, 64
6, 34560, Note_on_c, 4, 38, 79
6, 34688, Note_off_c, 4, 38, 64
6, 34752, Note_on_c, 4, 50, 79
6, 34816, Note_off_c, 4, 50, 64
6, 34848, Note_on_c, 4, 48, 79
6, 34912, Note_off_c, 4, 48, 64
6, 34944, Note_on_c, 4, 50, 79
6, 35008, Note_off_c, 4, 50, 64
6, 35040, Note_on_c, 4, 55, 79
6, 35104, Note_off_c, 4, 55, 64
6, 35136, Note_on_c, 4, 53, 79
6, 35264, Note_off_c, 4, 53, 64
6, 35328, Note_on_c, 4, 45, 79
6, 35520, Note_off_c, 4, 45, 64
6, 35616, Note_on_c, 4, 43, 79
6, 35840, Note_off_c, 4, 43, 64
6, 35904, Note_on_c, 4, 43, 79
6, 35968, Note_off_c, 4, 43, 64
6, 36000, Note_on_c, 4, 43, 79
6, 36064, Note_off_c, 4, 43, 64
6, 36096, Note_on_c, 4, 40, 79
6, 36288, Note_off_c, 4, 40, 64
6, 36384, Note_on_c, 4, 41, 79
6, 36608, Note_off_c, 4, 41, 64
6, 36672, Note_on_c, 4, 41, 79
6, 36736, Note_off_c, 4, 41, 64
6, 36768, Note_on_c, 4, 41, 79
6, 36832, Note_off_c, 4, 41, 64
6, 36864, Note_on_c, 4, 40, 79
6, 37056, Note_off_c, 4, 40, 64
6, 37152, Note_on_c, 4, 36, 79
6, 37312, Note_off_c, 4, 36, 64
6, 37344, Note_on_c, 4, 33, 79
6, 37408, Note_off_c, 4, 33, 64
6, 37440, Note_on_c, 4, 36, 79
6, 37504, Note_off_c, 4, 36, 64
6, 37536, Note_on_c, 4, 45, 79
6, 37600, Note_off_c, 4, 45, 64
6, 37632, Note_on_c, 4, 33, 79
6, 37696, Note_off_c, 4, 33, 64
6, 37728, Note_on_c, 4, 33, 79
6, 37888, Note_off_c, 4, 33, 64
6, 37920, Note_on_c, 4, 45, 79
6, 37984, Note_off_c, 4, 45, 64
6, 38016, Note_on_c, 4, 33, 79
6, 38080, Note_off_c, 4, 33, 64
6, 38112, Note_on_c, 4, 33, 79
6, 38176, Note_off_c, 4, 33, 64
6, 38400, Note_on_c, 4, 33, 79
6, 38528, Note_off_c, 4, 33, 64
6, 38592, Note_on_c, 4, 33, 79
6, 38720, Note_off_c, 4, 33, 64
6, 38784, Note_on_c, 4, 33, 79
6, 38912, Note_off_c, 4, 33, 64
6, 38976, Note_on_c, 4, 33, 79
6, 39040, Note_off_c, 4, 33, 64
6, 39072, Note_on_c, 4, 45, 79
6, 39136, Note_off_c, 4, 45, 64
6, 39168, Note_on_c, 4, 33, 79
6, 39232, Note_off_c, 4, 33, 64
6, 39264, Note_on_c, 4, 33, 79
6, 39424, Note_off_c, 4, 33, 64
6, 39456, Note_on_c, 4, 45, 79
6, 39520, Note_off_c, 4, 45, 64
6, 39552, Note_on_c, 4, 33, 79
6, 39616, Note_off_c, 4, 33, 64
6, 39648, Note_on_c, 4, 33, 79
6, 39712, Note_off_c, 4, 33, 64
6, 39936, Note_on_c, 4, 33, 79
6, 40064, Note_off_c, 4, 33, 64
6, 40128, Note_on_c, 4, 33, 79
6, 40256, Note_off_c, 4, 33, 64
6, 40320, Note_on_c, 4, 33, 79
6, 40448, Note_off_c, 4, 33, 64
6, 40512, Note_on_c, 4, 33, 79
6, 40576, Note_off_c, 4, 33, 64
6, 40608, Note_on_c, 4, 45, 79
6, 40672, Note_off_c, 4, 45, 64
6, 40704, Note_on_c, 4, 33, 79
6, 40768, Note_off_c, 4, 33, 64
6, 40800, Note_on_c, 4, 33, 79
6, 40960, Note_off_c, 4, 33, 64
6, 40992, Note_on_c, 4, 45, 79
6, 41056, Note_off_c, 4, 45, 64
6, 41088, Note_on_c, 4, 33, 79
6, 41152, Note_off_c, 4, 33, 64
6, 41184, Note_on_c, 4, 33, 79
6, 41248, Note_off_c, 4, 33, 64
6, 41472, Note_on_c, 4, 33, 79
6, 41600, Note_off_c, 4, 33, 64
6, 41664, Note_on_c, 4, 33, 79
6, 41792, Note_off_c, 4, 33, 64
6, 41856, Note_on_c, 4, 33, 79
6, 41984, Note_off_c, 4, 33, 64
6, 42048, Note_on_c, 4, 33, 79
6, 42112, Note_off_c, 4, 33, 64
6, 42144, Note_on_c, 4, 45, 79
6, 42208, Note_off_c, 4, 45, 64
6, 42240, Note_on_c, 4, 33, 79
6, 42304, Note_off_c, 4, 33, 64
6, 42336, Note_on_c, 4, 33, 79
6, 42496, Note_off_c, 4, 33, 64
6, 42528, Note_on_c, 4, 45, 79
6, 42592, Note_off_c, 4, 45, 64
6, 42624, Note_on_c, 4, 33, 79
6, 42688, Note_off_c, 4, 33, 64
6, 42720, Note_on_c, 4, 33, 79
6, 42784, Note_off_c, 4, 33, 64
6, 43008, Note_on_c, 4, 33, 79
6, 43136, Note_off_c, 4, 33, 64
6, 43200, Note_on_c, 4, 33, 79
6, 43328, Note_off_c, 4, 33, 64
6, 43392, Note_on_c, 4, 33, 79
6, 43520, Note_off_c, 4, 33, 64
6, 43584, Note_on_c, 4, 33, 79
6, 43648, Note_off_c, 4, 33, 64
6, 43680, Note_on_c, 4, 45, 79
6, 43744, Note_off_c, 4, 45, 64
6, 43776, Note_on_c, 4, 29, 79
6, 43840, Note_off_c, 4, 29, 64
6, 43872, Note_on_c, 4, 29, 79
6, 44032, Note_off_c, 4, 29, 64
6, 44064, Note_on_c, 4, 41, 79
6, 44128, Note_off_c, 4, 41, 64
6, 44160, Note_on_c, 4, 29, 79
6, 44224, Note_off_c, 4, 29, 64
6, 44256, Note_on_c, 4, 29, 79
6, 44320, Note_off_c, 4, 29, 64
6, 44544, Note_on_c, 4, 29, 79
6, 44672, Note_off_c, 4, 29, 64
6, 44736, Note_on_c, 4, 29, 79
6, 44864, Note_off_c, 4, 29, 64
6, 44928, Note_on_c, 4, 29, 79
6, 45056, Note_off_c, 4, 29, 64
6, 45120, Note_on_c, 4, 29, 79
6, 45184, Note_off_c, 4, 29, 64
6, 45216, Note_on_c, 4, 41, 79
6, 45280, Note_off_c, 4, 41, 64
6, 45312, Note_on_c, 4, 29, 79
6, 45376, Note_off_c, 4, 29, 64
6, 45408, Note_on_c, 4, 29, 79
6, 45568, Note_off_c, 4, 29, 64
6, 45600, Note_on_c, 4, 41, 79
6, 45664, Note_off_c, 4, 41, 64
6, 45696, Note_on_c, 4, 29, 79
6, 45760, Note_off_c, 4, 29, 64
6, 45792, Note_on_c, 4, 29, 79
6, 45856, Note_off_c, 4, 29, 64
6, 46080, Note_on_c, 4, 29, 79
6, 46208, Note_off_c, 4, 29, 64
6, 46272, Note_on_c, 4, 29, 79
6, 46400, Note_off_c, 4, 29, 64
6, 46464, Note_on_c, 4, 31, 79
6, 46592, Note_off_c, 4, 31, 64
6, 46656, Note_on_c, 4, 31, 79
6, 46720, Note_off_c, 4, 31, 64
6, 46752, Note_on_c, 4, 43, 79
6, 46816, Note_off_c, 4, 43, 64
6, 46848, Note_on_c, 4, 33, 79
6, 46912, Note_off_c, 4, 33, 64
6, 46944, Note_on_c, 4, 33, 79
6, 47104, Note_off_c, 4, 33, 64
6, 47136, Note_on_c, 4, 45, 79
6, 47200, Note_off_c, 4, 45, 64
6, 47232, Note_on_c, 4, 33, 79
6, 47296, Note_off_c, 4, 33, 64
6, 47328, Note_on_c, 4, 33, 79
6, 47392, Note_off_c, 4, 33, 64
6, 47616, Note_on_c, 4, 33, 79
6, 47744, Note_off_c, 4, 33, 64
6, 47808, Note_on_c, 4, 33, 79
6, 47936, Note_off_c, 4, 33, 64
6, 48000, Note_on_c, 4, 33, 79
6, 48128, Note_off_c, 4, 33, 64
6, 48192, Note_on_c, 4, 33, 79
6, 48256, Note_off_c, 4, 33, 64
6, 48288, Note_on_c, 4, 45, 79
6, 48352, Note_off_c, 4, 45, 64
6, 48384, Note_on_c, 4, 33, 79
6, 48448, Note_off_c, 4, 33, 64
6, 48480, Note_on_c, 4, 33, 79
6, 48544, Note_off_c, 4, 33, 64
6, 48672, Note_on_c, 4, 45, 79
6, 48736, Note_off_c, 4, 45, 64
6, 48768, Note_on_c, 4, 33, 79
6, 48832, Note_off_c, 4, 33, 64
6, 48864, Note_on_c, 4, 33, 79
6, 48928, Note_off_c, 4, 33, 64
6, 49920, Note_on_c, 4, 38, 79
6, 50048, Note_off_c, 4, 38, 64
6, 50112, Note_on_c, 4, 50, 79
6, 50176, Note_off_c, 4, 50, 64
6, 50208, Note_on_c, 4, 48, 79
6, 50272, Note_off_c, 4, 48, 64
6, 50304, Note_on_c, 4, 50, 79
6, 50368, Note_off_c, 4, 50, 64
6, 50400, Note_on_c, 4, 55, 79
6, 50464, Note_off_c, 4, 55, 64
6, 50496, Note_on_c, 4, 53, 79
6, 50624, Note_off_c, 4, 53, 64
6, 50688, Note_on_c, 4, 45, 79
6, 50880, Note_off_c, 4, 45, 64
6, 50976, Note_on_c, 4, 43, 79
6, 51200, Note_off_c, 4, 43, 64
6, 51264, Note_on_c, 4, 43, 79
6, 51328, Note_off_c, 4, 43, 64
6, 51360, Note_on_c, 4, 43, 79
6, 51424, Note_off_c, 4, 43, 64
6, 51456, Note_on_c, 4, 40, 79
6, 51648, Note_off_c, 4, 40, 64
6, 51744, Note_on_c, 4, 41, 79
6, 51968, Note_off_c, 4, 41, 64
6, 52032, Note_on_c, 4, 41, 79
6, 52096, Note_off_c, 4, 41, 64
6, 52128, Note_on_c, 4, 41, 79
6, 52192, Note_off_c, 4, 41, 64
6, 52224, Note_on_c, 4, 40, 79
6, 52416, Note_off_c, 4, 40, 64
6, 52512, Note_on_c, 4, 36, 79
6, 52672, Note_off_c, 4, 36, 64
6, 52704, Note_on_c, 4, 33, 79
6, 52768, Note_off_c, 4, 33, 64
6, 52800, Note_on_c, 4, 36, 79
6, 52864, Note_off_c, 4, 36, 64
6, 52896, Note_on_c, 4, 36, 79
6, 52960, Note_off_c, 4, 36, 64
6, 52992, Note_on_c, 4, 38, 79
6, 53120, Note_off_c, 4, 38, 64
6, 53184, Note_on_c, 4, 50, 79
6, 53248, Note_off_c, 4, 50, 64
6, 53280, Note_on_c, 4, 48, 79
6, 53344, Note_off_c, 4, 48, 64
6, 53376, Note_on_c, 4, 50, 79
6, 53440, Note_off_c, 4, 50, 64
6, 53472, Note_on_c, 4, 55, 79
6, 53536, Note_off_c, 4, 55, 64
6, 53568, Note_on_c, 4, 53, 79
6, 53696, Note_off_c, 4, 53, 64
6, 53760, Note_on_c, 4, 45, 79
6, 53952, Note_off_c, 4, 45, 64
6, 54048, Note_on_c, 4, 43, 79
6, 54272, Note_off_c, 4, 43, 64
6, 54336, Note_on_c, 4, 43, 79
6, 54400, Note_off_c, 4, 43, 64
6, 54432, Note_on_c, 4, 43, 79
6, 54496, Note_off_c, 4, 43, 64
6, 54528, Note_on_c, 4, 40, 79
6, 54720, Note_off_c, 4, 40, 64
6, 54816, Note_on_c, 4, 41, 79
6, 55040, Note_off_c, 4, 41, 64
6, 55104, Note_on_c, 4, 41, 79
6, 55168, Note_off_c, 4, 41, 64
6, 55200, Note_on_c, 4, 41, 79
6, 55264, Note_off_c, 4, 41, 64
6, 55296, Note_on_c, 4, 40, 79
6, 55488, Note_off_c, 4, 40, 64
6, 55584, Note_on_c, 4, 36, 79
6, 55744, Note_off_c, 4, 36, 64
6, 55776, Note_on_c, 4, 33, 79
6, 55840, Note_off_c, 4, 33, 64
6, 55872, Note_on_c, 4, 36, 79
6, 55936, Note_off_c, 4, 36, 64
6, 55968, Note_on_c, 4, 45, 79
6, 56032, Note_off_c, 4, 45, 64
6, 56064, Note_on_c, 4, 33, 79
6, 56128, Note_off_c, 4, 33, 64
6, 56160, Note_on_c, 4, 33, 79
6, 56320, Note_off_c, 4, 33, 64
6, 56352, Note_on_c, 4, 45, 79
6, 56416, Note_off_c, 4, 45, 64
6, 56448, Note_on_c, 4, 33, 79
6, 56512, Note_off_c, 4, 33, 64
6, 56544, Note_on_c, 4, 33, 79
6, 56704, Note_off_c, 4, 33, 64
6, 56736, Note_on_c, 4, 40, 79
6, 56800, Note_off_c, 4, 40, 64
6, 56832, Note_on_c, 4, 28, 79
6, 56896, Note_off_c, 4, 28, 64
6, 56928, Note_on_c, 4, 28, 79
6, 57088, Note_off_c, 4, 28, 64
6, 57120, Note_on_c, 4, 40, 79
6, 57184, Note_off_c, 4, 40, 64
6, 57216, Note_on_c, 4, 28, 79
6, 57280, Note_off_c, 4, 28, 64
6, 57312, Note_on_c, 4, 28, 79
6, 57472, Note_off_c, 4, 28, 64
6, 57504, Note_on_c, 4, 43, 79
6, 57568, Note_off_c, 4, 43, 64
6, 57600, Note_on_c, 4, 31, 79
6, 57664, Note_off_c, 4, 31, 64
6, 57696, Note_on_c, 4, 31, 79
6, 57856, Note_off_c, 4, 31, 64
6, 57888, Note_on_c, 4, 43, 79
6, 57952, Note_off_c, 4, 43, 64
6, 57984, Note_on_c, 4, 31, 79
6, 58048, Note_off_c, 4, 31, 64
6, 58080, Note_on_c, 4, 31, 79
6, 58240, Note_off_c, 4, 31, 64
6, 58272, Note_on_c, 4, 43, 79
6, 58336, Note_off_c, 4, 43, 64
6, 58368, Note_on_c, 4, 38, 79
6, 58432, Note_off_c, 4, 38, 64
6, 58464, Note_on_c, 4, 38, 79
6, 58624, Note_off_c, 4, 38, 64
6, 58656, Note_on_c, 4, 36, 79
6, 58720, Note_off_c, 4, 36, 64
6, 58752, Note_on_c, 4, 38, 79
6, 58816, Note_off_c, 4, 38, 64
6, 58848, Note_on_c, 4, 38, 79
6, 59008, Note_off_c, 4, 38, 64
6, 59040, Note_on_c, 4, 45, 79
6, 59104, Note_off_c, 4, 45, 64
6, 59136, Note_on_c, 4, 33, 79
6, 59200, Note_off_c, 4, 33, 64
6, 59232, Note_on_c, 4, 33, 79
6, 59392, Note_off_c, 4, 33, 64
6, 59424, Note_on_c, 4, 45, 79
6, 59488, Note_off_c, 4, 45, 64
6, 59520, Note_on_c, 4, 33, 79
6, 59584, Note_off_c, 4, 33, 64
6, 59616, Note_on_c, 4, 33, 79
6, 59776, Note_off_c, 4, 33, 64
6, 59808, Note_on_c, 4, 40, 79
6, 59872, Note_off_c, 4, 40, 64
6, 59904, Note_on_c, 4, 28, 79
6, 59968, Note_off_c, 4, 28, 64
6, 60000, Note_on_c, 4, 28, 79
6, 60160, Note_off_c, 4, 28, 64
6, 60192, Note_on_c, 4, 40, 79
6, 60256, Note_off_c, 4, 40, 64
6, 60288, Note_on_c, 4, 28, 79
6, 60352, Note_off_c, 4, 28, 64
6, 60384, Note_on_c, 4, 28, 79
6, 60544, Note_off_c, 4, 28, 64
6, 60576, Note_on_c, 4, 43, 79
6, 60640, Note_off_c, 4, 43, 64
6, 60672, Note_on_c, 4, 31, 79
6, 60736, Note_off_c, 4, 31, 64
6, 60768, Note_on_c, 4, 31, 79
6, 60928, Note_off_c, 4, 31, 64
6, 60960, Note_on_c, 4, 43, 79
6, 61024, Note_off_c, 4, 43, 64
6, 61056, Note_on_c, 4, 31, 79
6, 61120, Note_off_c, 4, 31, 64
6, 61152, Note_on_c, 4, 31, 79
6, 61312, Note_off_c, 4, 31, 64
6, 61344, Note_on_c, 4, 43, 79
6, 61408, Note_off_c, 4, 43, 64
6, 61440, Note_on_c, 4, 38, 79
6, 61504, Note_off_c, 4, 38, 64
6, 61536, Note_on_c, 4, 38, 79
6, 61696, Note_off_c, 4, 38, 64
6, 61728, Note_on_c, 4, 36, 79
6, 61792, Note_off_c, 4, 36, 64
6, 61824, Note_on_c, 4, 38, 79
6, 61888, Note_off_c, 4, 38, 64
6, 61920, Note_on_c, 4, 38, 79
6, 62080, Note_off_c, 4, 38, 64
6, 62112, Note_on_c, 4, 45, 79
6, 62176, Note_off_c, 4, 45, 64
6, 62208, Note_on_c, 4, 33, 79
6, 62272, Note_off_c, 4, 33, 64
6, 62304, Note_on_c, 4, 33, 79
6, 62464, Note_off_c, 4, 33, 64
6, 62496, Note_on_c, 4, 45, 79
6, 62560, Note_off_c, 4, 45, 64
6, 62592, Note_on_c, 4, 33, 79
6, 62656, Note_off_c, 4, 33, 64
6, 62688, Note_on_c, 4, 33, 79
6, 62848, Note_off_c, 4, 33, 64
6, 62880, Note_on_c, 4, 40, 79
6, 62944, Note_off_c, 4, 40, 64
6, 62976, Note_on_c, 4, 28, 79
6, 63040, Note_off_c, 4, 28, 64
6, 63072, Note_on_c, 4, 28, 79
6, 63232, Note_off_c, 4, 28, 64
6, 63264, Note_on_c, 4, 40, 79
6, 63328, Note_off_c, 4, 40, 64
6, 63360, Note_on_c, 4, 28, 79
6, 63424, Note_off_c, 4, 28, 64
6, 63456, Note_on_c, 4, 28, 79
6, 63616, Note_off_c, 4, 28, 64
6, 63648, Note_on_c, 4, 43, 79
6, 63712, Note_off_c, 4, 43, 64
6, 63744, Note_on_c, 4, 31, 79
6, 63808, Note_off_c, 4, 31, 64
6, 63840, Note_on_c, 4, 31, 79
6, 64000, Note_off_c, 4, 31, 64
6, 64032, Note_on_c, 4, 43, 79
6, 64096, Note_off_c, 4, 43, 64
6, 64128, Note_on_c, 4, 31, 79
6, 64192, Note_off_c, 4, 31, 64
6, 64224, Note_on_c, 4, 31, 79
6, 64384, Note_off_c, 4, 31, 64
6, 64416, Note_on_c, 4, 43, 79
6, 64480, Note_off_c, 4, 43, 64
6, 64512, Note_on_c, 4, 38, 79
6, 64576, Note_off_c, 4, 38, 64
6, 64608, Note_on_c, 4, 38, 79
6, 64768, Note_off_c, 4, 38, 64
6, 64800, Note_on_c, 4, 36, 79
6, 64864, Note_off_c, 4, 36, 64
6, 64896, Note_on_c, 4, 38, 79
6, 64960, Note_off_c, 4, 38, 64
6, 64992, Note_on_c, 4, 38, 79
6, 65152, Note_off_c, 4, 38, 64
6, 65184, Note_on_c, 4, 45, 79
6, 65248, Note_off_c, 4, 45, 64
6, 65280, Note_on_c, 4, 33, 79
6, 65344, Note_off_c, 4, 33, 64
6, 65376, Note_on_c, 4, 33, 79
6, 65536, Note_off_c, 4, 33, 64
6, 65568, Note_on_c, 4, 45, 79
6, 65632, Note_off_c, 4, 45, 64
6, 65664, Note_on_c, 4, 33, 79
6, 65728, Note_off_c, 4, 33, 64
6, 65760, Note_on_c, 4, 33, 79
6, 65920, Note_off_c, 4, 33, 64
6, 65952, Note_on_c, 4, 40, 79
6, 66016, Note_off_c, 4, 40, 64
6, 66048, Note_on_c, 4, 28, 79
6, 66112, Note_off_c, 4, 28, 64
6, 66144, Note_on_c, 4, 28, 79
6, 66304, Note_off_c, 4, 28, 64
6, 66336, Note_on_c, 4, 40, 79
6, 66400, Note_off_c, 4, 40, 64
6, 66432, Note_on_c, 4, 28, 79
6, 66496, Note_off_c, 4, 28, 64
6, 66528, Note_on_c, 4, 28, 79
6, 66688, Note_off_c, 4, 28, 64
6, 66720, Note_on_c, 4, 28, 79
6, 66784, Note_off_c, 4, 28, 64
6, 66816, Note_on_c, 4, 29, 79
6, 66944, Note_off_c, 4, 29, 64
6, 67008, Note_on_c, 4, 29, 79
6, 67136, Note_off_c, 4, 29, 64
6, 67392, Note_on_c, 4, 29, 79
6, 67520, Note_off_c, 4, 29, 64
6, 67680, Note_on_c, 4, 28, 79
6, 67744, Note_off_c, 4, 28, 64
6, 67776, Note_on_c, 4, 29, 79
6, 67840, Note_off_c, 4, 29, 64
6, 67872, Note_on_c, 4, 28, 79
6, 67936, Note_off_c, 4, 28, 64
6, 67968, Note_on_c, 4, 29, 79
6, 68096, Note_off_c, 4, 29, 64
6, 68160, Note_on_c, 4, 28, 79
6, 68288, Note_off_c, 4, 28, 64
6, 68352, Note_on_c, 4, 38, 79
6, 68480, Note_off_c, 4, 38, 64
6, 68544, Note_on_c, 4, 50, 79
6, 68608, Note_off_c, 4, 50, 64
6, 68640, Note_on_c, 4, 48, 79
6, 68704, Note_off_c, 4, 48, 64
6, 68736, Note_on_c, 4, 50, 79
6, 68800, Note_off_c, 4, 50, 64
6, 68832, Note_on_c, 4, 55, 79
6, 68896, Note_off_c, 4, 55, 64
6, 68928, Note_on_c, 4, 53, 79
6, 69056, Note_off_c, 4, 53, 64
6, 69120, Note_on_c, 4, 45, 79
6, 69312, Note_off_c, 4, 45, 64
6, 69408, Note_on_c, 4, 43, 79
6, 69632, Note_off_c, 4, 43, 64
6, 69696, Note_on_c, 4, 43, 79
6, 69760, Note_off_c, 4, 43, 64
6, 69792, Note_on_c, 4, 43, 79
6, 69856, Note_off_c, 4, 43, 64
6, 69888, Note_on_c, 4, 40, 79
6, 70080, Note_off_c, 4, 40, 64
6, 70176, Note_on_c, 4, 41, 79
6, 70400, Note_off_c, 4, 41, 64
6, 70464, Note_on_c, 4, 41, 79
6, 70528, Note_off_c, 4, 41, 64
6, 70560, Note_on_c, 4, 41, 79
6, 70624, Note_off_c, 4, 41, 64
6, 70656, Note_on_c, 4, 40, 79
6, 70848, Note_off_c, 4, 40, 64
6, 70944, Note_on_c, 4, 36, 79
6, 71104, Note_off_c, 4, 36, 64
6, 71136, Note_on_c, 4, 33, 79
6, 71200, Note_off_c, 4, 33, 64
6, 71232, Note_on_c, 4, 36, 79
6, 71296, Note_off_c, 4, 36, 64
6, 71328, Note_on_c, 4, 36, 79
6, 71392, Note_off_c, 4, 36, 64
6, 71424, Note_on_c, 4, 38, 79
6, 71552, Note_off_c, 4, 38, 64
6, 71616, Note_on_c, 4, 50, 79
6, 71680, Note_off_c, 4, 50, 64
6, 71712, Note_on_c, 4, 48, 79
6, 71776, Note_off_c, 4, 48, 64
6, 71808, Note_on_c, 4, 50, 79
6, 71872, Note_off_c, 4, 50, 64
6, 71904, Note_on_c, 4, 55, 79
6, 71968, Note_off_c, 4, 55, 64
6, 72000, Note_on_c, 4, 53, 79
6, 72128, Note_off_c, 4, 53, 64
6, 72192, Note_on_c, 4, 45, 79
6, 72384, Note_off_c, 4, 45, 64
6, 72480, Note_on_c, 4, 43, 79
6, 72704, Note_off_c, 4, 43, 64
6, 72768, Note_on_c, 4, 43, 79
6, 72832, Note_off_c, 4, 43, 64
6, 72864, Note_on_c, 4, 43, 79
6, 72928, Note_off_c, 4, 43, 64
6, 72960, Note_on_c, 4, 40, 79
6, 73152, Note_off_c, 4, 40, 64
6, 73248, Note_on_c, 4, 41, 79
6, 73472, Note_off_c, 4, 41, 64
6, 73536, Note_on_c, 4, 41, 79
6, 73600, Note_off_c, 4, 41, 64
6, 73632, Note_on_c, 4, 41, 79
6, 73696, Note_off_c, 4, 41, 64
6, 73728, Note_on_c, 4, 40, 79
6, 73920, Note_off_c, 4, 40, 64
6, 74016, Note_on_c, 4, 36, 79
6, 74176, Note_off_c, 4, 36, 64
6, 74208, Note_on_c, 4, 33, 79
6, 74272, Note_off_c, 4, 33, 64
6, 74304, Note_on_c, 4, 36, 79
6, 74368, Note_off_c, 4, 36, 64
6, 74400, Note_on_c, 4, 36, 79
6, 74464, Note_off_c, 4, 36, 64
6, 74496, Note_on_c, 4, 38, 79
6, 74624, Note_off_c, 4, 38, 64
6, 74688, Note_on_c, 4, 50, 79
6, 74752, Note_off_c, 4, 50, 64
6, 74784, Note_on_c, 4, 48, 79
6, 74848, Note_off_c, 4, 48, 64
6, 74880, Note_on_c, 4, 50, 79
6, 74944, Note_off_c, 4, 50, 64
6, 74976, Note_on_c, 4, 55, 79
6, 75040, Note_off_c, 4, 55, 64
6, 75072, Note_on_c, 4, 53, 79
6, 75200, Note_off_c, 4, 53, 64
6, 75264, Note_on_c, 4, 45, 79
6, 75456, Note_off_c, 4, 45, 64
6, 75552, Note_on_c, 4, 43, 79
6, 75776, Note_off_c, 4, 43, 64
6, 75840, Note_on_c, 4, 43, 79
6, 75904, Note_off_c, 4, 43, 64
6, 75936, Note_on_c, 4, 43, 79
6, 76000, Note_off_c, 4, 43, 64
6, 76032, Note_on_c, 4, 40, 79
6, 76224, Note_off_c, 4, 40, 64
6, 76320, Note_on_c, 4, 41, 79
6, 76544, Note_off_c, 4, 41, 64
6, 76608, Note_on_c, 4, 41, 79
6, 76672, Note_off_c, 4, 41, 64
6, 76704, Note_on_c, 4, 41, 79
6, 76768, Note_off_c, 4, 41, 64
6, 76800, Note_on_c, 4, 40, 79
6, 76992, Note_off_c, 4, 40, 64
6, 77088, Note_on_c, 4, 36, 79
6, 77248, Note_off_c, 4, 36, 64
6, 77280, Note_on_c, 4, 33, 79
6, 77344, Note_off_c, 4, 33, 64
6, 77376, Note_on_c, 4, 36, 79
6, 77440, Note_off_c, 4, 36, 64
6, 77472, Note_on_c, 4, 36, 79
6, 77536, Note_off_c, 4, 36, 64
6, 77568, Control_c, 4, 7, 108
6, 77568, Note_on_c, 4, 38, 79
6, 77664, Control_c, 4, 7, 107
6, 77696, Note_off_c, 4, 38, 64
6, 77760, Control_c, 4, 7, 106
6, 77760, Note_on_c, 4, 50, 79
6, 77824, Note_off_c, 4, 50, 64
6, 77856, Control_c, 4, 7, 105
6, 77856, Note_on_c, 4, 48, 79
6, 77920, Note_off_c, 4, 48, 64
6, 77952, Control_c, 4, 7, 104
6, 77952, Note_on_c, 4, 50, 79
6, 78016, Note_off_c, 4, 50, 64
6, 78048, Control_c, 4, 7, 103
6, 78048, Note_on_c, 4, 55, 79
6, 78112, Note_off_c, 4, 55, 64
6, 78144, Control_c, 4, 7, 102
6, 78144, Note_on_c, 4, 53, 79
6, 78216, Control_c, 4, 7, 101
6, 78272, Note_off_c, 4, 53, 64
6, 78312, Control_c, 4, 7, 100
6, 78336, Note_on_c, 4, 45, 79
6, 78408, Control_c, 4, 7, 99
6, 78504, Control_c, 4, 7, 98
6, 78528, Note_off_c, 4, 45, 64
6, 78600, Control_c, 4, 7, 97
6, 78624, Note_on_c, 4, 43, 79
6, 78696, Control_c, 4, 7, 96
6, 78792, Control_c, 4, 7, 95
6, 78848, Note_off_c, 4, 43, 64
6, 78864, Control_c, 4, 7, 94
6, 78912, Note_on_c, 4, 43, 79
6, 78960, Control_c, 4, 7, 93
6, 78976, Note_off_c, 4, 43, 64
6, 79008, Note_on_c, 4, 43, 79
6, 79056, Control_c, 4, 7, 92
6, 79072, Note_off_c, 4, 43, 64
6, 79104, Note_on_c, 4, 40, 79
6, 79152, Control_c, 4, 7, 91
6, 79248, Control_c, 4, 7, 90
6, 79296, Note_off_c, 4, 40, 64
6, 79344, Control_c, 4, 7, 89
6, 79392, Note_on_c, 4, 41, 79
6, 79440, Control_c, 4, 7, 88
6, 79512, Control_c, 4, 7, 87
6, 79608, Control_c, 4, 7, 86
6, 79616, Note_off_c, 4, 41, 64
6, 79680, Note_on_c, 4, 41, 79
6, 79704, Control_c, 4, 7, 85
6, 79744, Note_off_c, 4, 41, 64
6, 79776, Note_on_c, 4, 41, 79
6, 79800, Control_c, 4, 7, 84
6, 79840, Note_off_c, 4, 41, 64
6, 79872, Note_on_c, 4, 40, 79
6, 79896, Control_c, 4, 7, 83
6, 79992, Control_c, 4, 7, 82
6, 80064, Note_off_c, 4, 40, 64
6, 80064, Control_c, 4, 7, 81
6, 80160, Control_c, 4, 7, 80
6, 80160, Note_on_c, 4, 36, 79
6, 80256, Control_c, 4, 7, 79
6, 80320, Note_off_c, 4, 36, 64
6, 80352, Control_c, 4, 7, 78
6, 80352, Note_on_c, 4, 33, 79
6, 80416, Note_off_c, 4, 33, 64
6, 80448, Control_c, 4, 7, 77
6, 80448, Note_on_c, 4, 36, 79
6, 80512, Note_off_c, 4, 36, 64
6, 80544, Control_c, 4, 7, 76
6, 80544, Note_on_c, 4, 36, 79
6, 80608, Note_off_c, 4, 36, 64
6, 80640, Control_c, 4, 7, 75
6, 80640, Note_on_c, 4, 38, 79
6, 80712, Control_c, 4, 7, 74
6, 80768, Note_off_c, 4, 38, 64
6, 80808, Control_c, 4, 7, 73
6, 80832, Note_on_c, 4, 50, 79
6, 80896, Note_off_c, 4, 50, 64
6, 80904, Control_c, 4, 7, 72
6, 80928, Note_on_c, 4, 48, 79
6, 80992, Note_off_c, 4, 48, 64
6, 81000, Control_c, 4, 7, 71
6, 81024, Note_on_c, 4, 50, 79
6, 81088, Note_off_c, 4, 50, 64
6, 81096, Control_c, 4, 7, 70
6, 81120, Note_on_c, 4, 55, 79
6, 81184, Note_off_c, 4, 55, 64
6, 81192, Control_c, 4, 7, 69
6, 81216, Note_on_c, 4, 53, 79
6, 81288, Control_c, 4, 7, 68
6, 81344, Note_off_c, 4, 53, 64
6, 81360, Control_c, 4, 7, 67
6, 81408, Note_on_c, 4, 45, 79
6, 81456, Control_c, 4, 7, 66
6, 81552, Control_c, 4, 7, 65
6, 81600, Note_off_c, 4, 45, 64
6, 81648, Control_c, 4, 7, 64
6, 81696, Note_on_c, 4, 43, 79
6, 81744, Control_c, 4, 7, 63
6, 81840, Control_c, 4, 7, 62
6, 81920, Note_off_c, 4, 43, 64
6, 81936, Control_c, 4, 7, 61
6, 81984, Note_on_c, 4, 43, 79
6, 82008, Control_c, 4, 7, 60
6, 82048, Note_off_c, 4, 43, 64
6, 82080, Note_on_c, 4, 43, 79
6, 82104, Control_c, 4, 7, 59
6, 82144, Note_off_c, 4, 43, 64
6, 82176, Note_on_c, 4, 40, 79
6, 82200, Control_c, 4, 7, 58
6, 82296, Control_c, 4, 7, 57
6, 82368, Note_off_c, 4, 40, 64
6, 82392, Control_c, 4, 7, 56
6, 82464, Note_on_c, 4, 41, 79
6, 82488, Control_c, 4, 7, 55
6, 82560, Control_c, 4, 7, 54
6, 82656, Control_c, 4, 7, 53
6, 82688, Note_off_c, 4, 41, 64
6, 82752, Control_c, 4, 7, 52
6, 82752, Note_on_c, 4, 41, 79
6, 82816, Note_off_c, 4, 41, 64
6, 82848, Control_c, 4, 7, 51
6, 82848, Note_on_c, 4, 41, 79
6, 82912, Note_off_c, 4, 41, 64
6, 82944, Control_c, 4, 7, 50
6, 82944, Note_on_c, 4, 40, 79
6, 83040, Control_c, 4, 7, 49
6, 83136, Note_off_c, 4, 40, 64
6, 83136, Control_c, 4, 7, 48
6, 83208, Control_c, 4, 7, 47
6, 83232, Note_on_c, 4, 36, 79
6, 83304, Control_c, 4, 7, 46
6, 83392, Note_off_c, 4, 36, 64
6, 83400, Control_c, 4, 7, 45
6, 83424, Note_on_c, 4, 33, 79
6, 83488, Note_off_c, 4, 33, 64
6, 83496, Control_c, 4, 7, 44
6, 83520, Note_on_c, 4, 36, 79
6, 83584, Note_off_c, 4, 36, 64
6, 83592, Control_c, 4, 7, 43
6, 83616, Note_on_c, 4, 36, 79
6, 83680, Note_off_c, 4, 36, 64
6, 83688, Control_c, 4, 7, 42
6, 83712, Note_on_c, 4, 38, 79
6, 83784, Control_c, 4, 7, 41
6, 83840, Note_off_c, 4, 38, 64
6, 83856, Control_c, 4, 7, 40
6, 83904, Note_on_c, 4, 50, 79
6, 83952, Control_c, 4, 7, 39
6, 83968, Note_off_c, 4, 50, 64
6, 84000, Note_on_c, 4, 48, 79
6, 84048, Control_c, 4, 7, 38
6, 84064, Note_off_c, 4, 48, 64
6, 84096, Note_on_c, 4, 50, 79
6, 84144, Control_c, 4, 7, 37
6, 84160, Note_off_c, 4, 50, 64
6, 84192, Note_on_c, 4, 55, 79
6, 84240, Control_c, 4, 7, 36
6, 84256, Note_off_c, 4, 55, 64
6, 84288, Note_on_c, 4, 53, 79
6, 84336, Control_c, 4, 7, 35
6, 84416, Note_off_c, 4, 53, 64
6, 84432, Control_c, 4, 7, 34
6, 84480, Note_on_c, 4, 45, 79
6, 84504, Control_c, 4, 7, 33
6, 84600, Control_c, 4, 7, 32
6, 84672, Note_off_c, 4, 45, 64
6, 84696, Control_c, 4, 7, 31
6, 84768, Note_on_c, 4, 43, 79
6, 84792, Control_c, 4, 7, 30
6, 84888, Control_c, 4, 7, 29
6, 84984, Control_c, 4, 7, 28
6, 84992, Note_off_c, 4, 43, 64
6, 85056, Control_c, 4, 7, 27
6, 85056, Note_on_c, 4, 43, 79
6, 85120, Note_off_c, 4, 43, 64
6, 85152, Control_c, 4, 7, 26
6, 85152, Note_on_c, 4, 43, 79
6, 85216, Note_off_c, 4, 43, 64
6, 85248, Control_c, 4, 7, 25
6, 85248, Note_on_c, 4, 40, 79
6, 85344, Control_c, 4, 7, 24
6, 85440, Note_off_c, 4, 40, 64
6, 85440, Control_c, 4, 7, 23
6, 85536, Control_c, 4, 7, 22
6, 85536, Note_on_c, 4, 41, 79
6, 85632, Control_c, 4, 7, 21
6, 85704, Control_c, 4, 7, 20
6, 85760, Note_off_c, 4, 41, 64
6, 85800, Control_c, 4, 7, 19
6, 85824, Note_on_c, 4, 41, 79
6, 85888, Note_off_c, 4, 41, 64
6, 85896, Control_c, 4, 7, 18
6, 85920, Note_on_c, 4, 41, 79
6, 85984, Note_off_c, 4, 41, 64
6, 85992, Control_c, 4, 7, 17
6, 86016, Note_on_c, 4, 40, 79
6, 86088, Control_c, 4, 7, 16
6, 86184, Control_c, 4, 7, 15
6, 86208, Note_off_c, 4, 40, 64
6, 86280, Control_c, 4, 7, 14
6, 86304, Note_on_c, 4, 36, 79
6, 86352, Control_c, 4, 7, 13
6, 86448, Control_c, 4, 7, 12
6, 86464, Note_off_c, 4, 36, 64
6, 86496, Note_on_c, 4, 33, 79
6, 86544, Control_c, 4, 7, 11
6, 86560, Note_off_c, 4, 33, 64
6, 86592, Note_on_c, 4, 36, 79
6, 86640, Control_c, 4, 7, 10
6, 86656, Note_off_c, 4, 36, 64
6, 86688, Note_on_c, 4, 45, 79
6, 86736, Control_c, 4, 7, 9
6, 86752, Note_off_c, 4, 45, 64
6, 86784, Note_on_c, 4, 40, 79
6, 86832, Control_c, 4, 7, 8
6, 86928, Control_c, 4, 7, 7
6, 86976, Note_off_c, 4, 40, 64
6, 87000, Control_c, 4, 7, 6
6, 87072, Note_on_c, 4, 36, 79
6, 87096, Control_c, 4, 7, 5
6, 87192, Control_c, 4, 7, 4
6, 87232, Note_off_c, 4, 36, 64
6, 87264, Note_on_c, 4, 33, 79
6, 87288, Control_c, 4, 7, 3
6, 87328, Note_off_c, 4, 33, 64
6, 87360, Note_on_c, 4, 36, 79
6, 87384, Control_c, 4, 7, 2
6, 87424, Note_off_c, 4, 36, 64
6, 87456, Note_on_c, 4, 45, 79
6, 87480, Control_c, 4, 7, 1
6, 87520, Note_off_c, 4, 45, 64
6, 87520, End_track
7, 0, Start_track
7, 0, MIDI_port, 0
7, 0, Title_t, "Lexington, KY using "
7, 0, Program_c, 5, 25
7, 0, Control_c, 5, 7, 64
7, 0, Control_c, 5, 10, 18
7, 0, Control_c, 5, 1, 0
7, 0, Pitch_bend_c, 5, 8192
7, 0, Control_c, 5, 64, 0
7, 24, Control_c, 5, 1, 13
7, 48, Control_c, 5, 1, 26
7, 72, Control_c, 5, 1, 39
7, 96, Control_c, 5, 1, 52
7, 120, Control_c, 5, 1, 65
7, 144, Control_c, 5, 1, 78
7, 168, Control_c, 5, 1, 91
7, 192, Control_c, 5, 7, 64
7, 768, Note_on_c, 5, 57, 79
7, 768, Note_on_c, 5, 60, 79
7, 768, Note_on_c, 5, 64, 79
7, 768, Note_on_c, 5, 67, 79
7, 1276, Note_off_c, 5, 57, 64
7, 1276, Note_off_c, 5, 60, 64
7, 1276, Note_off_c, 5, 64, 64
7, 1276, Note_off_c, 5, 67, 64
7, 1536, Note_on_c, 5, 59, 79
7, 1536, Note_on_c, 5, 62, 79
7, 1536, Note_on_c, 5, 64, 79
7, 1536, Note_on_c, 5, 67, 79
7, 2044, Note_off_c, 5, 59, 64
7, 2044, Note_off_c, 5, 62, 64
7, 2044, Note_off_c, 5, 64, 64
7, 2044, Note_off_c, 5, 67, 64
7, 2304, Note_on_c, 5, 55, 79
7, 2304, Note_on_c, 5, 59, 79
7, 2304, Note_on_c, 5, 62, 79
7, 2304, Note_on_c, 5, 65, 79
7, 2812, Note_off_c, 5, 55, 64
7, 2812, Note_off_c, 5, 59, 64
7, 2812, Note_off_c, 5, 62, 64
7, 2812, Note_off_c, 5, 65, 64
7, 3072, Note_on_c, 5, 60, 79
7, 3072, Note_on_c, 5, 62, 79
7, 3072, Note_on_c, 5, 65, 79
7, 3072, Note_on_c, 5, 69, 79
7, 3580, Note_off_c, 5, 60, 64
7, 3580, Note_off_c, 5, 62, 64
7, 3580, Note_off_c, 5, 65, 64
7, 3580, Note_off_c, 5, 69, 64
7, 3840, Note_on_c, 5, 57, 79
7, 3840, Note_on_c, 5, 60, 79
7, 3840, Note_on_c, 5, 64, 79
7, 3840, Note_on_c, 5, 67, 79
7, 4348, Note_off_c, 5, 57, 64
7, 4348, Note_off_c, 5, 60, 64
7, 4348, Note_off_c, 5, 64, 64
7, 4348, Note_off_c, 5, 67, 64
7, 4608, Note_on_c, 5, 59, 79
7, 4608, Note_on_c, 5, 62, 79
7, 4608, Note_on_c, 5, 64, 79
7, 4608, Note_on_c, 5, 67, 79
7, 5116, Note_off_c, 5, 59, 64
7, 5116, Note_off_c, 5, 62, 64
7, 5116, Note_off_c, 5, 64, 64
7, 5116, Note_off_c, 5, 67, 64
7, 5376, Note_on_c, 5, 55, 79
7, 5376, Note_on_c, 5, 59, 79
7, 5376, Note_on_c, 5, 62, 79
7, 5376, Note_on_c, 5, 65, 79
7, 5884, Note_off_c, 5, 55, 64
7, 5884, Note_off_c, 5, 59, 64
7, 5884, Note_off_c, 5, 62, 64
7, 5884, Note_off_c, 5, 65, 64
7, 6144, Note_on_c, 5, 60, 79
7, 6144, Note_on_c, 5, 62, 79
7, 6144, Note_on_c, 5, 65, 79
7, 6144, Note_on_c, 5, 69, 79
7, 6652, Note_off_c, 5, 60, 64
7, 6652, Note_off_c, 5, 62, 64
7, 6652, Note_off_c, 5, 65, 64
7, 6652, Note_off_c, 5, 69, 64
7, 6912, Note_on_c, 5, 60, 79
7, 6912, Note_on_c, 5, 64, 79
7, 6912, Note_on_c, 5, 57, 79
7, 6912, Note_on_c, 5, 67, 79
7, 7420, Note_off_c, 5, 60, 64
7, 7420, Note_off_c, 5, 64, 64
7, 7420, Note_off_c, 5, 57, 64
7, 7420, Note_off_c, 5, 67, 64
7, 7680, Note_on_c, 5, 62, 79
7, 7680, Note_on_c, 5, 64, 79
7, 7680, Note_on_c, 5, 59, 79
7, 7680, Note_on_c, 5, 67, 79
7, 8188, Note_off_c, 5, 62, 64
7, 8188, Note_off_c, 5, 64, 64
7, 8188, Note_off_c, 5, 59, 64
7, 8188, Note_off_c, 5, 67, 64
7, 8448, Note_on_c, 5, 59, 79
7, 8448, Note_on_c, 5, 62, 79
7, 8448, Note_on_c, 5, 55, 79
7, 8448, Note_on_c, 5, 65, 79
7, 8956, Note_off_c, 5, 59, 64
7, 8956, Note_off_c, 5, 62, 64
7, 8956, Note_off_c, 5, 55, 64
7, 8956, Note_off_c, 5, 65, 64
7, 9216, Note_on_c, 5, 62, 79
7, 9216, Note_on_c, 5, 65, 79
7, 9216, Note_on_c, 5, 60, 79
7, 9216, Note_on_c, 5, 69, 79
7, 9724, Note_off_c, 5, 62, 64
7, 9724, Note_off_c, 5, 65, 64
7, 9724, Note_off_c, 5, 60, 64
7, 9724, Note_off_c, 5, 69, 64
7, 9984, Note_on_c, 5, 60, 79
7, 9984, Note_on_c, 5, 64, 79
7, 9984, Note_on_c, 5, 57, 79
7, 9984, Note_on_c, 5, 67, 79
7, 10492, Note_off_c, 5, 60, 64
7, 10492, Note_off_c, 5, 64, 64
7, 10492, Note_off_c, 5, 57, 64
7, 10492, Note_off_c, 5, 67, 64
7, 10752, Note_on_c, 5, 62, 79
7, 10752, Note_on_c, 5, 64, 79
7, 10752, Note_on_c, 5, 59, 79
7, 10752, Note_on_c, 5, 67, 79
7, 11260, Note_off_c, 5, 62, 64
7, 11260, Note_off_c, 5, 64, 64
7, 11260, Note_off_c, 5, 59, 64
7, 11260, Note_off_c, 5, 67, 64
7, 11520, Note_on_c, 5, 69, 79
7, 11520, Note_on_c, 5, 72, 79
7, 11520, Note_on_c, 5, 65, 79
7, 11520, Note_on_c, 5, 76, 79
7, 12028, Note_off_c, 5, 69, 64
7, 12028, Note_off_c, 5, 72, 64
7, 12028, Note_off_c, 5, 65, 64
7, 12028, Note_off_c, 5, 76, 64
7, 12288, Note_on_c, 5, 69, 79
7, 12288, Note_on_c, 5, 72, 79
7, 12288, Note_on_c, 5, 65, 79
7, 12288, Note_on_c, 5, 76, 79
7, 12796, Note_off_c, 5, 69, 64
7, 12796, Note_off_c, 5, 72, 64
7, 12796, Note_off_c, 5, 65, 64
7, 12796, Note_off_c, 5, 76, 64
7, 13056, Note_on_c, 5, 65, 79
7, 13056, Note_on_c, 5, 69, 79
7, 13056, Note_on_c, 5, 62, 79
7, 13056, Note_on_c, 5, 72, 79
7, 13564, Note_off_c, 5, 65, 64
7, 13564, Note_off_c, 5, 69, 64
7, 13564, Note_off_c, 5, 62, 64
7, 13564, Note_off_c, 5, 72, 64
7, 13824, Note_on_c, 5, 64, 79
7, 13824, Note_on_c, 5, 67, 79
7, 13824, Note_on_c, 5, 60, 79
7, 13824, Note_on_c, 5, 69, 79
7, 14076, Note_off_c, 5, 64, 64
7, 14076, Note_off_c, 5, 67, 64
7, 14076, Note_off_c, 5, 60, 64
7, 14076, Note_off_c, 5, 69, 64
7, 14208, Note_on_c, 5, 59, 79
7, 14208, Note_on_c, 5, 62, 79
7, 14208, Note_on_c, 5, 55, 79
7, 14208, Note_on_c, 5, 65, 79
7, 14460, Note_off_c, 5, 59, 64
7, 14460, Note_off_c, 5, 62, 64
7, 14460, Note_off_c, 5, 55, 64
7, 14460, Note_off_c, 5, 65, 64
7, 14592, Note_on_c, 5, 64, 79
7, 14592, Note_on_c, 5, 67, 79
7, 14592, Note_on_c, 5, 62, 79
7, 14592, Note_on_c, 5, 71, 79
7, 14844, Note_off_c, 5, 64, 64
7, 14844, Note_off_c, 5, 67, 64
7, 14844, Note_off_c, 5, 62, 64
7, 14844, Note_off_c, 5, 71, 64
7, 14976, Note_on_c, 5, 69, 79
7, 14976, Note_on_c, 5, 72, 79
7, 14976, Note_on_c, 5, 65, 79
7, 14976, Note_on_c, 5, 76, 79
7, 15228, Note_off_c, 5, 69, 64
7, 15228, Note_off_c, 5, 72, 64
7, 15228, Note_off_c, 5, 65, 64
7, 15228, Note_off_c, 5, 76, 64
7, 15360, Note_on_c, 5, 67, 79
7, 15360, Note_on_c, 5, 71, 79
7, 15360, Note_on_c, 5, 64, 79
7, 15360, Note_on_c, 5, 74, 79
7, 15612, Note_off_c, 5, 67, 64
7, 15612, Note_off_c, 5, 71, 64
7, 15612, Note_off_c, 5, 64, 64
7, 15612, Note_off_c, 5, 74, 64
7, 15744, Note_on_c, 5, 60, 79
7, 15744, Note_on_c, 5, 57, 79
7, 15744, Note_on_c, 5, 64, 79
7, 15996, Note_off_c, 5, 60, 64
7, 15996, Note_off_c, 5, 57, 64
7, 15996, Note_off_c, 5, 64, 64
7, 16128, Note_on_c, 5, 60, 79
7, 16128, Note_on_c, 5, 62, 79
7, 16128, Note_on_c, 5, 65, 79
7, 16128, Note_on_c, 5, 69, 79
7, 16636, Note_off_c, 5, 60, 64
7, 16636, Note_off_c, 5, 62, 64
7, 16636, Note_off_c, 5, 65, 64
7, 16636, Note_off_c, 5, 69, 64
7, 16896, Note_on_c, 5, 57, 79
7, 16896, Note_on_c, 5, 60, 79
7, 16896, Note_on_c, 5, 64, 79
7, 16896, Note_on_c, 5, 67, 79
7, 17148, Note_off_c, 5, 57, 64
7, 17148, Note_off_c, 5, 60, 64
7, 17148, Note_off_c, 5, 64, 64
7, 17148, Note_off_c, 5, 67, 64
7, 17280, Note_on_c, 5, 55, 79
7, 17280, Note_on_c, 5, 59, 79
7, 17280, Note_on_c, 5, 62, 79
7, 17280, Note_on_c, 5, 65, 79
7, 17532, Note_off_c, 5, 55, 64
7, 17532, Note_off_c, 5, 59, 64
7, 17532, Note_off_c, 5, 62, 64
7, 17532, Note_off_c, 5, 65, 64
7, 17664, Note_on_c, 5, 62, 79
7, 17664, Note_on_c, 5, 64, 79
7, 17664, Note_on_c, 5, 67, 79
7, 17664, Note_on_c, 5, 71, 79
7, 17916, Note_off_c, 5, 62, 64
7, 17916, Note_off_c, 5, 64, 64
7, 17916, Note_off_c, 5, 67, 64
7, 17916, Note_off_c, 5, 71, 64
7, 18048, Note_on_c, 5, 65, 79
7, 18048, Note_on_c, 5, 69, 79
7, 18048, Note_on_c, 5, 72, 79
7, 18048, Note_on_c, 5, 76, 79
7, 18300, Note_off_c, 5, 65, 64
7, 18300, Note_off_c, 5, 69, 64
7, 18300, Note_off_c, 5, 72, 64
7, 18300, Note_off_c, 5, 76, 64
7, 18432, Note_on_c, 5, 64, 79
7, 18432, Note_on_c, 5, 67, 79
7, 18432, Note_on_c, 5, 71, 79
7, 18432, Note_on_c, 5, 74, 79
7, 18684, Note_off_c, 5, 64, 64
7, 18684, Note_off_c, 5, 67, 64
7, 18684, Note_off_c, 5, 71, 64
7, 18684, Note_off_c, 5, 74, 64
7, 18816, Note_on_c, 5, 57, 79
7, 18816, Note_on_c, 5, 60, 79
7, 18816, Note_on_c, 5, 64, 79
7, 19068, Note_off_c, 5, 57, 64
7, 19068, Note_off_c, 5, 60, 64
7, 19068, Note_off_c, 5, 64, 64
7, 19200, Note_on_c, 5, 57, 79
7, 19200, Note_on_c, 5, 60, 79
7, 19200, Note_on_c, 5, 64, 79
7, 19200, Note_on_c, 5, 67, 79
7, 19708, Note_off_c, 5, 57, 64
7, 19708, Note_off_c, 5, 60, 64
7, 19708, Note_off_c, 5, 64, 64
7, 19708, Note_off_c, 5, 67, 64
7, 19968, Note_on_c, 5, 59, 79
7, 19968, Note_on_c, 5, 62, 79
7, 19968, Note_on_c, 5, 64, 79
7, 19968, Note_on_c, 5, 67, 79
7, 20476, Note_off_c, 5, 59, 64
7, 20476, Note_off_c, 5, 62, 64
7, 20476, Note_off_c, 5, 64, 64
7, 20476, Note_off_c, 5, 67, 64
7, 20736, Note_on_c, 5, 55, 79
7, 20736, Note_on_c, 5, 59, 79
7, 20736, Note_on_c, 5, 62, 79
7, 20736, Note_on_c, 5, 65, 79
7, 21244, Note_off_c, 5, 55, 64
7, 21244, Note_off_c, 5, 59, 64
7, 21244, Note_off_c, 5, 62, 64
7, 21244, Note_off_c, 5, 65, 64
7, 21504, Note_on_c, 5, 60, 79
7, 21504, Note_on_c, 5, 62, 79
7, 21504, Note_on_c, 5, 65, 79
7, 21504, Note_on_c, 5, 69, 79
7, 22012, Note_off_c, 5, 60, 64
7, 22012, Note_off_c, 5, 62, 64
7, 22012, Note_off_c, 5, 65, 64
7, 22012, Note_off_c, 5, 69, 64
7, 22272, Note_on_c, 5, 57, 79
7, 22272, Note_on_c, 5, 60, 79
7, 22272, Note_on_c, 5, 64, 79
7, 22272, Note_on_c, 5, 67, 79
7, 22780, Note_off_c, 5, 57, 64
7, 22780, Note_off_c, 5, 60, 64
7, 22780, Note_off_c, 5, 64, 64
7, 22780, Note_off_c, 5, 67, 64
7, 23040, Note_on_c, 5, 59, 79
7, 23040, Note_on_c, 5, 62, 79
7, 23040, Note_on_c, 5, 64, 79
7, 23040, Note_on_c, 5, 67, 79
7, 23548, Note_off_c, 5, 59, 64
7, 23548, Note_off_c, 5, 62, 64
7, 23548, Note_off_c, 5, 64, 64
7, 23548, Note_off_c, 5, 67, 64
7, 23808, Note_on_c, 5, 55, 79
7, 23808, Note_on_c, 5, 59, 79
7, 23808, Note_on_c, 5, 62, 79
7, 23808, Note_on_c, 5, 65, 79
7, 24316, Note_off_c, 5, 55, 64
7, 24316, Note_off_c, 5, 59, 64
7, 24316, Note_off_c, 5, 62, 64
7, 24316, Note_off_c, 5, 65, 64
7, 24576, Note_on_c, 5, 60, 79
7, 24576, Note_on_c, 5, 62, 79
7, 24576, Note_on_c, 5, 65, 79
7, 24576, Note_on_c, 5, 69, 79
7, 25084, Note_off_c, 5, 60, 64
7, 25084, Note_off_c, 5, 62, 64
7, 25084, Note_off_c, 5, 65, 64
7, 25084, Note_off_c, 5, 69, 64
7, 25344, Note_on_c, 5, 60, 79
7, 25344, Note_on_c, 5, 64, 79
7, 25344, Note_on_c, 5, 57, 79
7, 25344, Note_on_c, 5, 67, 79
7, 25852, Note_off_c, 5, 60, 64
7, 25852, Note_off_c, 5, 64, 64
7, 25852, Note_off_c, 5, 57, 64
7, 25852, Note_off_c, 5, 67, 64
7, 26112, Note_on_c, 5, 62, 79
7, 26112, Note_on_c, 5, 64, 79
7, 26112, Note_on_c, 5, 59, 79
7, 26112, Note_on_c, 5, 67, 79
7, 26620, Note_off_c, 5, 62, 64
7, 26620, Note_off_c, 5, 64, 64
7, 26620, Note_off_c, 5, 59, 64
7, 26620, Note_off_c, 5, 67, 64
7, 26880, Note_on_c, 5, 59, 79
7, 26880, Note_on_c, 5, 62, 79
7, 26880, Note_on_c, 5, 55, 79
7, 26880, Note_on_c, 5, 65, 79
7, 27388, Note_off_c, 5, 59, 64
7, 27388, Note_off_c, 5, 62, 64
7, 27388, Note_off_c, 5, 55, 64
7, 27388, Note_off_c, 5, 65, 64
7, 27648, Note_on_c, 5, 62, 79
7, 27648, Note_on_c, 5, 65, 79
7, 27648, Note_on_c, 5, 60, 79
7, 27648, Note_on_c, 5, 69, 79
7, 28156, Note_off_c, 5, 62, 64
7, 28156, Note_off_c, 5, 65, 64
7, 28156, Note_off_c, 5, 60, 64
7, 28156, Note_off_c, 5, 69, 64
7, 28416, Note_on_c, 5, 60, 79
7, 28416, Note_on_c, 5, 64, 79
7, 28416, Note_on_c, 5, 57, 79
7, 28416, Note_on_c, 5, 67, 79
7, 28924, Note_off_c, 5, 60, 64
7, 28924, Note_off_c, 5, 64, 64
7, 28924, Note_off_c, 5, 57, 64
7, 28924, Note_off_c, 5, 67, 64
7, 29184, Note_on_c, 5, 62, 79
7, 29184, Note_on_c, 5, 64, 79
7, 29184, Note_on_c, 5, 59, 79
7, 29184, Note_on_c, 5, 67, 79
7, 29692, Note_off_c, 5, 62, 64
7, 29692, Note_off_c, 5, 64, 64
7, 29692, Note_off_c, 5, 59, 64
7, 29692, Note_off_c, 5, 67, 64
7, 29952, Note_on_c, 5, 69, 79
7, 29952, Note_on_c, 5, 72, 79
7, 29952, Note_on_c, 5, 65, 79
7, 29952, Note_on_c, 5, 76, 79
7, 30460, Note_off_c, 5, 69, 64
7, 30460, Note_off_c, 5, 72, 64
7, 30460, Note_off_c, 5, 65, 64
7, 30460, Note_off_c, 5, 76, 64
7, 30720, Note_on_c, 5, 69, 79
7, 30720, Note_on_c, 5, 72, 79
7, 30720, Note_on_c, 5, 65, 79
7, 30720, Note_on_c, 5, 76, 79
7, 31228, Note_off_c, 5, 69, 64
7, 31228, Note_off_c, 5, 72, 64
7, 31228, Note_off_c, 5, 65, 64
7, 31228, Note_off_c, 5, 76, 64
7, 31488, Note_on_c, 5, 65, 79
7, 31488, Note_on_c, 5, 69, 79
7, 31488, Note_on_c, 5, 62, 79
7, 31488, Note_on_c, 5, 72, 79
7, 31996, Note_off_c, 5, 65, 64
7, 31996, Note_off_c, 5, 69, 64
7, 31996, Note_off_c, 5, 62, 64
7, 31996, Note_off_c, 5, 72, 64
7, 32256, Note_on_c, 5, 64, 79
7, 32256, Note_on_c, 5, 67, 79
7, 32256, Note_on_c, 5, 60, 79
7, 32256, Note_on_c, 5, 69, 79
7, 32508, Note_off_c, 5, 64, 64
7, 32508, Note_off_c, 5, 67, 64
7, 32508, Note_off_c, 5, 60, 64
7, 32508, Note_off_c, 5, 69, 64
7, 32640, Note_on_c, 5, 59, 79
7, 32640, Note_on_c, 5, 62, 79
7, 32640, Note_on_c, 5, 55, 79
7, 32640, Note_on_c, 5, 65, 79
7, 32892, Note_off_c, 5, 59, 64
7, 32892, Note_off_c, 5, 62, 64
7, 32892, Note_off_c, 5, 55, 64
7, 32892, Note_off_c, 5, 65, 64
7, 33024, Note_on_c, 5, 64, 79
7, 33024, Note_on_c, 5, 67, 79
7, 33024, Note_on_c, 5, 62, 79
7, 33024, Note_on_c, 5, 71, 79
7, 33276, Note_off_c, 5, 64, 64
7, 33276, Note_off_c, 5, 67, 64
7, 33276, Note_off_c, 5, 62, 64
7, 33276, Note_off_c, 5, 71, 64
7, 33408, Note_on_c, 5, 69, 79
7, 33408, Note_on_c, 5, 72, 79
7, 33408, Note_on_c, 5, 65, 79
7, 33408, Note_on_c, 5, 76, 79
7, 33660, Note_off_c, 5, 69, 64
7, 33660, Note_off_c, 5, 72, 64
7, 33660, Note_off_c, 5, 65, 64
7, 33660, Note_off_c, 5, 76, 64
7, 33792, Note_on_c, 5, 67, 79
7, 33792, Note_on_c, 5, 71, 79
7, 33792, Note_on_c, 5, 64, 79
7, 33792, Note_on_c, 5, 74, 79
7, 34044, Note_off_c, 5, 67, 64
7, 34044, Note_off_c, 5, 71, 64
7, 34044, Note_off_c, 5, 64, 64
7, 34044, Note_off_c, 5, 74, 64
7, 34176, Note_on_c, 5, 60, 79
7, 34176, Note_on_c, 5, 57, 79
7, 34176, Note_on_c, 5, 64, 79
7, 34428, Note_off_c, 5, 60, 64
7, 34428, Note_off_c, 5, 57, 64
7, 34428, Note_off_c, 5, 64, 64
7, 34560, Note_on_c, 5, 60, 79
7, 34560, Note_on_c, 5, 62, 79
7, 34560, Note_on_c, 5, 65, 79
7, 34560, Note_on_c, 5, 69, 79
7, 35068, Note_off_c, 5, 60, 64
7, 35068, Note_off_c, 5, 62, 64
7, 35068, Note_off_c, 5, 65, 64
7, 35068, Note_off_c, 5, 69, 64
7, 35328, Note_on_c, 5, 57, 79
7, 35328, Note_on_c, 5, 60, 79
7, 35328, Note_on_c, 5, 64, 79
7, 35328, Note_on_c, 5, 67, 79
7, 35580, Note_off_c, 5, 57, 64
7, 35580, Note_off_c, 5, 60, 64
7, 35580, Note_off_c, 5, 64, 64
7, 35580, Note_off_c, 5, 67, 64
7, 35712, Note_on_c, 5, 55, 79
7, 35712, Note_on_c, 5, 59, 79
7, 35712, Note_on_c, 5, 62, 79
7, 35712, Note_on_c, 5, 65, 79
7, 35964, Note_off_c, 5, 55, 64
7, 35964, Note_off_c, 5, 59, 64
7, 35964, Note_off_c, 5, 62, 64
7, 35964, Note_off_c, 5, 65, 64
7, 36096, Note_on_c, 5, 62, 79
7, 36096, Note_on_c, 5, 64, 79
7, 36096, Note_on_c, 5, 67, 79
7, 36096, Note_on_c, 5, 71, 79
7, 36348, Note_off_c, 5, 62, 64
7, 36348, Note_off_c, 5, 64, 64
7, 36348, Note_off_c, 5, 67, 64
7, 36348, Note_off_c, 5, 71, 64
7, 36480, Note_on_c, 5, 65, 79
7, 36480, Note_on_c, 5, 69, 79
7, 36480, Note_on_c, 5, 72, 79
7, 36480, Note_on_c, 5, 76, 79
7, 36732, Note_off_c, 5, 65, 64
7, 36732, Note_off_c, 5, 69, 64
7, 36732, Note_off_c, 5, 72, 64
7, 36732, Note_off_c, 5, 76, 64
7, 36864, Note_on_c, 5, 64, 79
7, 36864, Note_on_c, 5, 67, 79
7, 36864, Note_on_c, 5, 71, 79
7, 36864, Note_on_c, 5, 74, 79
7, 37116, Note_off_c, 5, 64, 64
7, 37116, Note_off_c, 5, 67, 64
7, 37116, Note_off_c, 5, 71, 64
7, 37116, Note_off_c, 5, 74, 64
7, 37248, Note_on_c, 5, 57, 79
7, 37248, Note_on_c, 5, 60, 79
7, 37248, Note_on_c, 5, 64, 79
7, 37500, Note_off_c, 5, 57, 64
7, 37500, Note_off_c, 5, 60, 64
7, 37500, Note_off_c, 5, 64, 64
7, 37632, Note_on_c, 5, 57, 79
7, 37632, Note_on_c, 5, 60, 79
7, 37632, Note_on_c, 5, 64, 79
7, 37632, Note_on_c, 5, 67, 79
7, 38140, Note_off_c, 5, 57, 64
7, 38140, Note_off_c, 5, 60, 64
7, 38140, Note_off_c, 5, 64, 64
7, 38140, Note_off_c, 5, 67, 64
7, 38400, Note_on_c, 5, 57, 79
7, 38400, Note_on_c, 5, 60, 79
7, 38400, Note_on_c, 5, 64, 79
7, 38400, Note_on_c, 5, 67, 79
7, 38908, Note_off_c, 5, 57, 64
7, 38908, Note_off_c, 5, 60, 64
7, 38908, Note_off_c, 5, 64, 64
7, 38908, Note_off_c, 5, 67, 64
7, 39168, Note_on_c, 5, 57, 79
7, 39168, Note_on_c, 5, 60, 79
7, 39168, Note_on_c, 5, 64, 79
7, 39168, Note_on_c, 5, 67, 79
7, 39676, Note_off_c, 5, 57, 64
7, 39676, Note_off_c, 5, 60, 64
7, 39676, Note_off_c, 5, 64, 64
7, 39676, Note_off_c, 5, 67, 64
7, 39936, Note_on_c, 5, 57, 79
7, 39936, Note_on_c, 5, 60, 79
7, 39936, Note_on_c, 5, 64, 79
7, 39936, Note_on_c, 5, 67, 79
7, 40444, Note_off_c, 5, 57, 64
7, 40444, Note_off_c, 5, 60, 64
7, 40444, Note_off_c, 5, 64, 64
7, 40444, Note_off_c, 5, 67, 64
7, 40704, Note_on_c, 5, 57, 79
7, 40704, Note_on_c, 5, 60, 79
7, 40704, Note_on_c, 5, 64, 79
7, 40704, Note_on_c, 5, 67, 79
7, 41212, Note_off_c, 5, 57, 64
7, 41212, Note_off_c, 5, 60, 64
7, 41212, Note_off_c, 5, 64, 64
7, 41212, Note_off_c, 5, 67, 64
7, 41472, Note_on_c, 5, 57, 79
7, 41472, Note_on_c, 5, 60, 79
7, 41472, Note_on_c, 5, 64, 79
7, 41472, Note_on_c, 5, 67, 79
7, 41980, Note_off_c, 5, 57, 64
7, 41980, Note_off_c, 5, 60, 64
7, 41980, Note_off_c, 5, 64, 64
7, 41980, Note_off_c, 5, 67, 64
7, 42240, Note_on_c, 5, 57, 79
7, 42240, Note_on_c, 5, 60, 79
7, 42240, Note_on_c, 5, 64, 79
7, 42240, Note_on_c, 5, 67, 79
7, 42748, Note_off_c, 5, 57, 64
7, 42748, Note_off_c, 5, 60, 64
7, 42748, Note_off_c, 5, 64, 64
7, 42748, Note_off_c, 5, 67, 64
7, 43008, Note_on_c, 5, 57, 79
7, 43008, Note_on_c, 5, 60, 79
7, 43008, Note_on_c, 5, 64, 79
7, 43008, Note_on_c, 5, 67, 79
7, 43516, Note_off_c, 5, 57, 64
7, 43516, Note_off_c, 5, 60, 64
7, 43516, Note_off_c, 5, 64, 64
7, 43516, Note_off_c, 5, 67, 64
7, 43776, Note_on_c, 5, 64, 79
7, 43776, Note_on_c, 5, 65, 79
7, 43776, Note_on_c, 5, 69, 79
7, 43776, Note_on_c, 5, 72, 79
7, 44284, Note_off_c, 5, 64, 64
7, 44284, Note_off_c, 5, 65, 64
7, 44284, Note_off_c, 5, 69, 64
7, 44284, Note_off_c, 5, 72, 64
7, 44544, Note_on_c, 5, 64, 79
7, 44544, Note_on_c, 5, 65, 79
7, 44544, Note_on_c, 5, 69, 79
7, 44544, Note_on_c, 5, 72, 79
7, 45052, Note_off_c, 5, 64, 64
7, 45052, Note_off_c, 5, 65, 64
7, 45052, Note_off_c, 5, 69, 64
7, 45052, Note_off_c, 5, 72, 64
7, 45312, Note_on_c, 5, 64, 79
7, 45312, Note_on_c, 5, 65, 79
7, 45312, Note_on_c, 5, 69, 79
7, 45312, Note_on_c, 5, 72, 79
7, 45820, Note_off_c, 5, 64, 64
7, 45820, Note_off_c, 5, 65, 64
7, 45820, Note_off_c, 5, 69, 64
7, 45820, Note_off_c, 5, 72, 64
7, 46080, Note_on_c, 5, 59, 79
7, 46080, Note_on_c, 5, 62, 79
7, 46080, Note_on_c, 5, 65, 79
7, 46080, Note_on_c, 5, 67, 79
7, 46588, Note_off_c, 5, 59, 64
7, 46588, Note_off_c, 5, 62, 64
7, 46588, Note_off_c, 5, 65, 64
7, 46588, Note_off_c, 5, 67, 64
7, 46848, Note_on_c, 5, 57, 79
7, 46848, Note_on_c, 5, 60, 79
7, 46848, Note_on_c, 5, 64, 79
7, 46848, Note_on_c, 5, 67, 79
7, 47356, Note_off_c, 5, 57, 64
7, 47356, Note_off_c, 5, 60, 64
7, 47356, Note_off_c, 5, 64, 64
7, 47356, Note_off_c, 5, 67, 64
7, 47616, Note_on_c, 5, 57, 79
7, 47616, Note_on_c, 5, 60, 79
7, 47616, Note_on_c, 5, 64, 79
7, 47616, Note_on_c, 5, 67, 79
7, 48124, Note_off_c, 5, 57, 64
7, 48124, Note_off_c, 5, 60, 64
7, 48124, Note_off_c, 5, 64, 64
7, 48124, Note_off_c, 5, 67, 64
7, 48384, Note_on_c, 5, 57, 79
7, 48384, Note_on_c, 5, 60, 79
7, 48384, Note_on_c, 5, 64, 79
7, 48384, Note_on_c, 5, 67, 79
7, 48892, Note_off_c, 5, 57, 64
7, 48892, Note_off_c, 5, 60, 64
7, 48892, Note_off_c, 5, 64, 64
7, 48892, Note_off_c, 5, 67, 64
7, 49152, Note_on_c, 5, 57, 79
7, 49152, Note_on_c, 5, 60, 79
7, 49152, Note_on_c, 5, 64, 79
7, 49152, Note_on_c, 5, 67, 79
7, 49660, Note_off_c, 5, 57, 64
7, 49660, Note_off_c, 5, 60, 64
7, 49660, Note_off_c, 5, 64, 64
7, 49660, Note_off_c, 5, 67, 64
7, 49920, Note_on_c, 5, 60, 79
7, 49920, Note_on_c, 5, 62, 79
7, 49920, Note_on_c, 5, 65, 79
7, 49920, Note_on_c, 5, 69, 79
7, 50428, Note_off_c, 5, 60, 64
7, 50428, Note_off_c, 5, 62, 64
7, 50428, Note_off_c, 5, 65, 64
7, 50428, Note_off_c, 5, 69, 64
7, 50688, Note_on_c, 5, 57, 79
7, 50688, Note_on_c, 5, 60, 79
7, 50688, Note_on_c, 5, 64, 79
7, 50688, Note_on_c, 5, 67, 79
7, 50940, Note_off_c, 5, 57, 64
7, 50940, Note_off_c, 5, 60, 64
7, 50940, Note_off_c, 5, 64, 64
7, 50940, Note_off_c, 5, 67, 64
7, 51072, Note_on_c, 5, 55, 79
7, 51072, Note_on_c, 5, 59, 79
7, 51072, Note_on_c, 5, 62, 79
7, 51072, Note_on_c, 5, 65, 79
7, 51324, Note_off_c, 5, 55, 64
7, 51324, Note_off_c, 5, 59, 64
7, 51324, Note_off_c, 5, 62, 64
7, 51324, Note_off_c, 5, 65, 64
7, 51456, Note_on_c, 5, 62, 79
7, 51456, Note_on_c, 5, 64, 79
7, 51456, Note_on_c, 5, 67, 79
7, 51456, Note_on_c, 5, 71, 79
7, 51708, Note_off_c, 5, 62, 64
7, 51708, Note_off_c, 5, 64, 64
7, 51708, Note_off_c, 5, 67, 64
7, 51708, Note_off_c, 5, 71, 64
7, 51840, Note_on_c, 5, 65, 79
7, 51840, Note_on_c, 5, 69, 79
7, 51840, Note_on_c, 5, 72, 79
7, 51840, Note_on_c, 5, 76, 79
7, 52092, Note_off_c, 5, 65, 64
7, 52092, Note_off_c, 5, 69, 64
7, 52092, Note_off_c, 5, 72, 64
7, 52092, Note_off_c, 5, 76, 64
7, 52224, Note_on_c, 5, 64, 79
7, 52224, Note_on_c, 5, 67, 79
7, 52224, Note_on_c, 5, 71, 79
7, 52224, Note_on_c, 5, 74, 79
7, 52476, Note_off_c, 5, 64, 64
7, 52476, Note_off_c, 5, 67, 64
7, 52476, Note_off_c, 5, 71, 64
7, 52476, Note_off_c, 5, 74, 64
7, 52608, Note_on_c, 5, 57, 79
7, 52608, Note_on_c, 5, 60, 79
7, 52608, Note_on_c, 5, 64, 79
7, 52860, Note_off_c, 5, 57, 64
7, 52860, Note_off_c, 5, 60, 64
7, 52860, Note_off_c, 5, 64, 64
7, 52992, Note_on_c, 5, 60, 79
7, 52992, Note_on_c, 5, 62, 79
7, 52992, Note_on_c, 5, 65, 79
7, 52992, Note_on_c, 5, 69, 79
7, 53500, Note_off_c, 5, 60, 64
7, 53500, Note_off_c, 5, 62, 64
7, 53500, Note_off_c, 5, 65, 64
7, 53500, Note_off_c, 5, 69, 64
7, 53760, Note_on_c, 5, 57, 79
7, 53760, Note_on_c, 5, 60, 79
7, 53760, Note_on_c, 5, 64, 79
7, 53760, Note_on_c, 5, 67, 79
7, 54012, Note_off_c, 5, 57, 64
7, 54012, Note_off_c, 5, 60, 64
7, 54012, Note_off_c, 5, 64, 64
7, 54012, Note_off_c, 5, 67, 64
7, 54144, Note_on_c, 5, 55, 79
7, 54144, Note_on_c, 5, 59, 79
7, 54144, Note_on_c, 5, 62, 79
7, 54144, Note_on_c, 5, 65, 79
7, 54396, Note_off_c, 5, 55, 64
7, 54396, Note_off_c, 5, 59, 64
7, 54396, Note_off_c, 5, 62, 64
7, 54396, Note_off_c, 5, 65, 64
7, 54528, Note_on_c, 5, 62, 79
7, 54528, Note_on_c, 5, 64, 79
7, 54528, Note_on_c, 5, 67, 79
7, 54528, Note_on_c, 5, 71, 79
7, 54780, Note_off_c, 5, 62, 64
7, 54780, Note_off_c, 5, 64, 64
7, 54780, Note_off_c, 5, 67, 64
7, 54780, Note_off_c, 5, 71, 64
7, 54912, Note_on_c, 5, 65, 79
7, 54912, Note_on_c, 5, 69, 79
7, 54912, Note_on_c, 5, 72, 79
7, 54912, Note_on_c, 5, 76, 79
7, 55164, Note_off_c, 5, 65, 64
7, 55164, Note_off_c, 5, 69, 64
7, 55164, Note_off_c, 5, 72, 64
7, 55164, Note_off_c, 5, 76, 64
7, 55296, Note_on_c, 5, 64, 79
7, 55296, Note_on_c, 5, 67, 79
7, 55296, Note_on_c, 5, 71, 79
7, 55296, Note_on_c, 5, 74, 79
7, 55548, Note_off_c, 5, 64, 64
7, 55548, Note_off_c, 5, 67, 64
7, 55548, Note_off_c, 5, 71, 64
7, 55548, Note_off_c, 5, 74, 64
7, 55680, Note_on_c, 5, 57, 79
7, 55680, Note_on_c, 5, 60, 79
7, 55680, Note_on_c, 5, 64, 79
7, 55932, Note_off_c, 5, 57, 64
7, 55932, Note_off_c, 5, 60, 64
7, 55932, Note_off_c, 5, 64, 64
7, 56064, Note_on_c, 5, 57, 79
7, 56064, Note_on_c, 5, 60, 79
7, 56064, Note_on_c, 5, 64, 79
7, 56064, Note_on_c, 5, 67, 79
7, 56572, Note_off_c, 5, 57, 64
7, 56572, Note_off_c, 5, 60, 64
7, 56572, Note_off_c, 5, 64, 64
7, 56572, Note_off_c, 5, 67, 64
7, 56832, Note_on_c, 5, 59, 79
7, 56832, Note_on_c, 5, 62, 79
7, 56832, Note_on_c, 5, 64, 79
7, 56832, Note_on_c, 5, 67, 79
7, 57340, Note_off_c, 5, 59, 64
7, 57340, Note_off_c, 5, 62, 64
7, 57340, Note_off_c, 5, 64, 64
7, 57340, Note_off_c, 5, 67, 64
7, 57600, Note_on_c, 5, 55, 79
7, 57600, Note_on_c, 5, 59, 79
7, 57600, Note_on_c, 5, 62, 79
7, 57600, Note_on_c, 5, 65, 79
7, 58108, Note_off_c, 5, 55, 64
7, 58108, Note_off_c, 5, 59, 64
7, 58108, Note_off_c, 5, 62, 64
7, 58108, Note_off_c, 5, 65, 64
7, 58368, Note_on_c, 5, 60, 79
7, 58368, Note_on_c, 5, 62, 79
7, 58368, Note_on_c, 5, 65, 79
7, 58368, Note_on_c, 5, 69, 79
7, 58876, Note_off_c, 5, 60, 64
7, 58876, Note_off_c, 5, 62, 64
7, 58876, Note_off_c, 5, 65, 64
7, 58876, Note_off_c, 5, 69, 64
7, 59136, Note_on_c, 5, 57, 79
7, 59136, Note_on_c, 5, 60, 79
7, 59136, Note_on_c, 5, 64, 79
7, 59136, Note_on_c, 5, 67, 79
7, 59644, Note_off_c, 5, 57, 64
7, 59644, Note_off_c, 5, 60, 64
7, 59644, Note_off_c, 5, 64, 64
7, 59644, Note_off_c, 5, 67, 64
7, 59904, Note_on_c, 5, 59, 79
7, 59904, Note_on_c, 5, 62, 79
7, 59904, Note_on_c, 5, 64, 79
7, 59904, Note_on_c, 5, 67, 79
7, 60412, Note_off_c, 5, 59, 64
7, 60412, Note_off_c, 5, 62, 64
7, 60412, Note_off_c, 5, 64, 64
7, 60412, Note_off_c, 5, 67, 64
7, 60672, Note_on_c, 5, 55, 79
7, 60672, Note_on_c, 5, 59, 79
7, 60672, Note_on_c, 5, 62, 79
7, 60672, Note_on_c, 5, 65, 79
7, 61180, Note_off_c, 5, 55, 64
7, 61180, Note_off_c, 5, 59, 64
7, 61180, Note_off_c, 5, 62, 64
7, 61180, Note_off_c, 5, 65, 64
7, 61440, Note_on_c, 5, 60, 79
7, 61440, Note_on_c, 5, 62, 79
7, 61440, Note_on_c, 5, 65, 79
7, 61440, Note_on_c, 5, 69, 79
7, 61948, Note_off_c, 5, 60, 64
7, 61948, Note_off_c, 5, 62, 64
7, 61948, Note_off_c, 5, 65, 64
7, 61948, Note_off_c, 5, 69, 64
7, 62208, Note_on_c, 5, 60, 79
7, 62208, Note_on_c, 5, 64, 79
7, 62208, Note_on_c, 5, 57, 79
7, 62208, Note_on_c, 5, 67, 79
7, 62716, Note_off_c, 5, 60, 64
7, 62716, Note_off_c, 5, 64, 64
7, 62716, Note_off_c, 5, 57, 64
7, 62716, Note_off_c, 5, 67, 64
7, 62976, Note_on_c, 5, 62, 79
7, 62976, Note_on_c, 5, 64, 79
7, 62976, Note_on_c, 5, 59, 79
7, 62976, Note_on_c, 5, 67, 79
7, 63484, Note_off_c, 5, 62, 64
7, 63484, Note_off_c, 5, 64, 64
7, 63484, Note_off_c, 5, 59, 64
7, 63484, Note_off_c, 5, 67, 64
7, 63744, Note_on_c, 5, 59, 79
7, 63744, Note_on_c, 5, 62, 79
7, 63744, Note_on_c, 5, 55, 79
7, 63744, Note_on_c, 5, 65, 79
7, 64252, Note_off_c, 5, 59, 64
7, 64252, Note_off_c, 5, 62, 64
7, 64252, Note_off_c, 5, 55, 64
7, 64252, Note_off_c, 5, 65, 64
7, 64512, Note_on_c, 5, 62, 79
7, 64512, Note_on_c, 5, 65, 79
7, 64512, Note_on_c, 5, 60, 79
7, 64512, Note_on_c, 5, 69, 79
7, 65020, Note_off_c, 5, 62, 64
7, 65020, Note_off_c, 5, 65, 64
7, 65020, Note_off_c, 5, 60, 64
7, 65020, Note_off_c, 5, 69, 64
7, 65280, Note_on_c, 5, 60, 79
7, 65280, Note_on_c, 5, 64, 79
7, 65280, Note_on_c, 5, 57, 79
7, 65280, Note_on_c, 5, 67, 79
7, 65788, Note_off_c, 5, 60, 64
7, 65788, Note_off_c, 5, 64, 64
7, 65788, Note_off_c, 5, 57, 64
7, 65788, Note_off_c, 5, 67, 64
7, 66048, Note_on_c, 5, 62, 79
7, 66048, Note_on_c, 5, 64, 79
7, 66048, Note_on_c, 5, 59, 79
7, 66048, Note_on_c, 5, 67, 79
7, 66556, Note_off_c, 5, 62, 64
7, 66556, Note_off_c, 5, 64, 64
7, 66556, Note_off_c, 5, 59, 64
7, 66556, Note_off_c, 5, 67, 64
7, 66816, Note_on_c, 5, 69, 79
7, 66816, Note_on_c, 5, 72, 79
7, 66816, Note_on_c, 5, 65, 79
7, 66816, Note_on_c, 5, 76, 79
7, 67324, Note_off_c, 5, 69, 64
7, 67324, Note_off_c, 5, 72, 64
7, 67324, Note_off_c, 5, 65, 64
7, 67324, Note_off_c, 5, 76, 64
7, 67584, Note_on_c, 5, 69, 79
7, 67584, Note_on_c, 5, 72, 79
7, 67584, Note_on_c, 5, 65, 79
7, 67584, Note_on_c, 5, 76, 79
7, 68092, Note_off_c, 5, 69, 64
7, 68092, Note_off_c, 5, 72, 64
7, 68092, Note_off_c, 5, 65, 64
7, 68092, Note_off_c, 5, 76, 64
7, 68352, Note_on_c, 5, 65, 79
7, 68352, Note_on_c, 5, 69, 79
7, 68352, Note_on_c, 5, 62, 79
7, 68352, Note_on_c, 5, 72, 79
7, 68860, Note_off_c, 5, 65, 64
7, 68860, Note_off_c, 5, 69, 64
7, 68860, Note_off_c, 5, 62, 64
7, 68860, Note_off_c, 5, 72, 64
7, 69120, Note_on_c, 5, 64, 79
7, 69120, Note_on_c, 5, 67, 79
7, 69120, Note_on_c, 5, 60, 79
7, 69120, Note_on_c, 5, 69, 79
7, 69372, Note_off_c, 5, 64, 64
7, 69372, Note_off_c, 5, 67, 64
7, 69372, Note_off_c, 5, 60, 64
7, 69372, Note_off_c, 5, 69, 64
7, 69504, Note_on_c, 5, 59, 79
7, 69504, Note_on_c, 5, 62, 79
7, 69504, Note_on_c, 5, 55, 79
7, 69504, Note_on_c, 5, 65, 79
7, 69756, Note_off_c, 5, 59, 64
7, 69756, Note_off_c, 5, 62, 64
7, 69756, Note_off_c, 5, 55, 64
7, 69756, Note_off_c, 5, 65, 64
7, 69888, Note_on_c, 5, 64, 79
7, 69888, Note_on_c, 5, 67, 79
7, 69888, Note_on_c, 5, 62, 79
7, 69888, Note_on_c, 5, 71, 79
7, 70140, Note_off_c, 5, 64, 64
7, 70140, Note_off_c, 5, 67, 64
7, 70140, Note_off_c, 5, 62, 64
7, 70140, Note_off_c, 5, 71, 64
7, 70272, Note_on_c, 5, 69, 79
7, 70272, Note_on_c, 5, 72, 79
7, 70272, Note_on_c, 5, 65, 79
7, 70272, Note_on_c, 5, 76, 79
7, 70524, Note_off_c, 5, 69, 64
7, 70524, Note_off_c, 5, 72, 64
7, 70524, Note_off_c, 5, 65, 64
7, 70524, Note_off_c, 5, 76, 64
7, 70656, Note_on_c, 5, 67, 79
7, 70656, Note_on_c, 5, 71, 79
7, 70656, Note_on_c, 5, 64, 79
7, 70656, Note_on_c, 5, 74, 79
7, 70908, Note_off_c, 5, 67, 64
7, 70908, Note_off_c, 5, 71, 64
7, 70908, Note_off_c, 5, 64, 64
7, 70908, Note_off_c, 5, 74, 64
7, 71040, Note_on_c, 5, 60, 79
7, 71040, Note_on_c, 5, 57, 79
7, 71040, Note_on_c, 5, 64, 79
7, 71292, Note_off_c, 5, 60, 64
7, 71292, Note_off_c, 5, 57, 64
7, 71292, Note_off_c, 5, 64, 64
7, 71424, Note_on_c, 5, 60, 79
7, 71424, Note_on_c, 5, 62, 79
7, 71424, Note_on_c, 5, 65, 79
7, 71424, Note_on_c, 5, 69, 79
7, 71932, Note_off_c, 5, 60, 64
7, 71932, Note_off_c, 5, 62, 64
7, 71932, Note_off_c, 5, 65, 64
7, 71932, Note_off_c, 5, 69, 64
7, 72192, Note_on_c, 5, 57, 79
7, 72192, Note_on_c, 5, 60, 79
7, 72192, Note_on_c, 5, 64, 79
7, 72192, Note_on_c, 5, 67, 79
7, 72444, Note_off_c, 5, 57, 64
7, 72444, Note_off_c, 5, 60, 64
7, 72444, Note_off_c, 5, 64, 64
7, 72444, Note_off_c, 5, 67, 64
7, 72576, Note_on_c, 5, 55, 79
7, 72576, Note_on_c, 5, 59, 79
7, 72576, Note_on_c, 5, 62, 79
7, 72576, Note_on_c, 5, 65, 79
7, 72828, Note_off_c, 5, 55, 64
7, 72828, Note_off_c, 5, 59, 64
7, 72828, Note_off_c, 5, 62, 64
7, 72828, Note_off_c, 5, 65, 64
7, 72960, Note_on_c, 5, 62, 79
7, 72960, Note_on_c, 5, 64, 79
7, 72960, Note_on_c, 5, 67, 79
7, 72960, Note_on_c, 5, 71, 79
7, 73212, Note_off_c, 5, 62, 64
7, 73212, Note_off_c, 5, 64, 64
7, 73212, Note_off_c, 5, 67, 64
7, 73212, Note_off_c, 5, 71, 64
7, 73344, Note_on_c, 5, 65, 79
7, 73344, Note_on_c, 5, 69, 79
7, 73344, Note_on_c, 5, 72, 79
7, 73344, Note_on_c, 5, 76, 79
7, 73596, Note_off_c, 5, 65, 64
7, 73596, Note_off_c, 5, 69, 64
7, 73596, Note_off_c, 5, 72, 64
7, 73596, Note_off_c, 5, 76, 64
7, 73728, Note_on_c, 5, 67, 79
7, 73728, Note_on_c, 5, 71, 79
7, 73728, Note_on_c, 5, 64, 79
7, 73728, Note_on_c, 5, 74, 79
7, 73980, Note_off_c, 5, 67, 64
7, 73980, Note_off_c, 5, 71, 64
7, 73980, Note_off_c, 5, 64, 64
7, 73980, Note_off_c, 5, 74, 64
7, 74112, Note_on_c, 5, 60, 79
7, 74112, Note_on_c, 5, 57, 79
7, 74112, Note_on_c, 5, 64, 79
7, 74364, Note_off_c, 5, 60, 64
7, 74364, Note_off_c, 5, 57, 64
7, 74364, Note_off_c, 5, 64, 64
7, 74496, Note_on_c, 5, 60, 79
7, 74496, Note_on_c, 5, 62, 79
7, 74496, Note_on_c, 5, 65, 79
7, 74496, Note_on_c, 5, 69, 79
7, 75004, Note_off_c, 5, 60, 64
7, 75004, Note_off_c, 5, 62, 64
7, 75004, Note_off_c, 5, 65, 64
7, 75004, Note_off_c, 5, 69, 64
7, 75264, Note_on_c, 5, 57, 79
7, 75264, Note_on_c, 5, 60, 79
7, 75264, Note_on_c, 5, 64, 79
7, 75264, Note_on_c, 5, 67, 79
7, 75516, Note_off_c, 5, 57, 64
7, 75516, Note_off_c, 5, 60, 64
7, 75516, Note_off_c, 5, 64, 64
7, 75516, Note_off_c, 5, 67, 64
7, 75648, Note_on_c, 5, 55, 79
7, 75648, Note_on_c, 5, 59, 79
7, 75648, Note_on_c, 5, 62, 79
7, 75648, Note_on_c, 5, 65, 79
7, 75900, Note_off_c, 5, 55, 64
7, 75900, Note_off_c, 5, 59, 64
7, 75900, Note_off_c, 5, 62, 64
7, 75900, Note_off_c, 5, 65, 64
7, 76032, Note_on_c, 5, 62, 79
7, 76032, Note_on_c, 5, 64, 79
7, 76032, Note_on_c, 5, 67, 79
7, 76032, Note_on_c, 5, 71, 79
7, 76284, Note_off_c, 5, 62, 64
7, 76284, Note_off_c, 5, 64, 64
7, 76284, Note_off_c, 5, 67, 64
7, 76284, Note_off_c, 5, 71, 64
7, 76416, Note_on_c, 5, 65, 79
7, 76416, Note_on_c, 5, 69, 79
7, 76416, Note_on_c, 5, 72, 79
7, 76416, Note_on_c, 5, 76, 79
7, 76668, Note_off_c, 5, 65, 64
7, 76668, Note_off_c, 5, 69, 64
7, 76668, Note_off_c, 5, 72, 64
7, 76668, Note_off_c, 5, 76, 64
7, 76800, Note_on_c, 5, 64, 79
7, 76800, Note_on_c, 5, 67, 79
7, 76800, Note_on_c, 5, 71, 79
7, 76800, Note_on_c, 5, 74, 79
7, 77052, Note_off_c, 5, 64, 64
7, 77052, Note_off_c, 5, 67, 64
7, 77052, Note_off_c, 5, 71, 64
7, 77052, Note_off_c, 5, 74, 64
7, 77184, Note_on_c, 5, 57, 79
7, 77184, Note_on_c, 5, 60, 79
7, 77184, Note_on_c, 5, 64, 79
7, 77436, Note_off_c, 5, 57, 64
7, 77436, Note_off_c, 5, 60, 64
7, 77436, Note_off_c, 5, 64, 64
7, 77568, Control_c, 5, 7, 64
7, 77568, Note_on_c, 5, 60, 79
7, 77568, Note_on_c, 5, 62, 79
7, 77568, Note_on_c, 5, 65, 79
7, 77568, Note_on_c, 5, 69, 79
7, 77736, Control_c, 5, 7, 63
7, 77880, Control_c, 5, 7, 62
7, 78024, Control_c, 5, 7, 61
7, 78076, Note_off_c, 5, 60, 64
7, 78076, Note_off_c, 5, 62, 64
7, 78076, Note_off_c, 5, 65, 64
7, 78076, Note_off_c, 5, 69, 64
7, 78168, Control_c, 5, 7, 60
7, 78312, Control_c, 5, 7, 59
7, 78336, Note_on_c, 5, 57, 79
7, 78336, Note_on_c, 5, 60, 79
7, 78336, Note_on_c, 5, 64, 79
7, 78336, Note_on_c, 5, 67, 79
7, 78456, Control_c, 5, 7, 58
7, 78588, Note_off_c, 5, 57, 64
7, 78588, Note_off_c, 5, 60, 64
7, 78588, Note_off_c, 5, 64, 64
7, 78588, Note_off_c, 5, 67, 64
7, 78600, Control_c, 5, 7, 57
7, 78720, Note_on_c, 5, 55, 79
7, 78720, Note_on_c, 5, 59, 79
7, 78720, Note_on_c, 5, 62, 79
7, 78720, Note_on_c, 5, 65, 79
7, 78744, Control_c, 5, 7, 56
7, 78888, Control_c, 5, 7, 55
7, 78972, Note_off_c, 5, 55, 64
7, 78972, Note_off_c, 5, 59, 64
7, 78972, Note_off_c, 5, 62, 64
7, 78972, Note_off_c, 5, 65, 64
7, 79032, Control_c, 5, 7, 54
7, 79104, Note_on_c, 5, 62, 79
7, 79104, Note_on_c, 5, 64, 79
7, 79104, Note_on_c, 5, 67, 79
7, 79104, Note_on_c, 5, 71, 79
7, 79176, Control_c, 5, 7, 53
7, 79320, Control_c, 5, 7, 52
7, 79356, Note_off_c, 5, 62, 64
7, 79356, Note_off_c, 5, 64, 64
7, 79356, Note_off_c, 5, 67, 64
7, 79356, Note_off_c, 5, 71, 64
7, 79464, Control_c, 5, 7, 51
7, 79488, Note_on_c, 5, 65, 79
7, 79488, Note_on_c, 5, 69, 79
7, 79488, Note_on_c, 5, 72, 79
7, 79488, Note_on_c, 5, 76, 79
7, 79608, Control_c, 5, 7, 50
7, 79740, Note_off_c, 5, 65, 64
7, 79740, Note_off_c, 5, 69, 64
7, 79740, Note_off_c, 5, 72, 64
7, 79740, Note_off_c, 5, 76, 64
7, 79752, Control_c, 5, 7, 49
7, 79872, Note_on_c, 5, 67, 79
7, 79872, Note_on_c, 5, 71, 79
7, 79872, Note_on_c, 5, 64, 79
7, 79872, Note_on_c, 5, 74, 79
7, 79896, Control_c, 5, 7, 48
7, 80040, Control_c, 5, 7, 47
7, 80124, Note_off_c, 5, 67, 64
7, 80124, Note_off_c, 5, 71, 64
7, 80124, Note_off_c, 5, 64, 64
7, 80124, Note_off_c, 5, 74, 64
7, 80184, Control_c, 5, 7, 46
7, 80256, Note_on_c, 5, 60, 79
7, 80256, Note_on_c, 5, 57, 79
7, 80256, Note_on_c, 5, 64, 79
7, 80328, Control_c, 5, 7, 45
7, 80472, Control_c, 5, 7, 44
7, 80508, Note_off_c, 5, 60, 64
7, 80508, Note_off_c, 5, 57, 64
7, 80508, Note_off_c, 5, 64, 64
7, 80616, Control_c, 5, 7, 43
7, 80640, Note_on_c, 5, 60, 79
7, 80640, Note_on_c, 5, 62, 79
7, 80640, Note_on_c, 5, 65, 79
7, 80640, Note_on_c, 5, 69, 79
7, 80760, Control_c, 5, 7, 42
7, 80904, Control_c, 5, 7, 41
7, 81048, Control_c, 5, 7, 40
7, 81148, Note_off_c, 5, 60, 64
7, 81148, Note_off_c, 5, 62, 64
7, 81148, Note_off_c, 5, 65, 64
7, 81148, Note_off_c, 5, 69, 64
7, 81192, Control_c, 5, 7, 39
7, 81336, Control_c, 5, 7, 38
7, 81408, Note_on_c, 5, 57, 79
7, 81408, Note_on_c, 5, 60, 79
7, 81408, Note_on_c, 5, 64, 79
7, 81408, Note_on_c, 5, 67, 79
7, 81480, Control_c, 5, 7, 37
7, 81624, Control_c, 5, 7, 36
7, 81660, Note_off_c, 5, 57, 64
7, 81660, Note_off_c, 5, 60, 64
7, 81660, Note_off_c, 5, 64, 64
7, 81660, Note_off_c, 5, 67, 64
7, 81768, Control_c, 5, 7, 35
7, 81792, Note_on_c, 5, 55, 79
7, 81792, Note_on_c, 5, 59, 79
7, 81792, Note_on_c, 5, 62, 79
7, 81792, Note_on_c, 5, 65, 79
7, 81912, Control_c, 5, 7, 34
7, 82044, Note_off_c, 5, 55, 64
7, 82044, Note_off_c, 5, 59, 64
7, 82044, Note_off_c, 5, 62, 64
7, 82044, Note_off_c, 5, 65, 64
7, 82056, Control_c, 5, 7, 33
7, 82176, Note_on_c, 5, 62, 79
7, 82176, Note_on_c, 5, 64, 79
7, 82176, Note_on_c, 5, 67, 79
7, 82176, Note_on_c, 5, 71, 79
7, 82200, Control_c, 5, 7, 32
7, 82368, Control_c, 5, 7, 31
7, 82428, Note_off_c, 5, 62, 64
7, 82428, Note_off_c, 5, 64, 64
7, 82428, Note_off_c, 5, 67, 64
7, 82428, Note_off_c, 5, 71, 64
7, 82512, Control_c, 5, 7, 30
7, 82560, Note_on_c, 5, 65, 79
7, 82560, Note_on_c, 5, 69, 79
7, 82560, Note_on_c, 5, 72, 79
7, 82560, Note_on_c, 5, 76, 79
7, 82656, Control_c, 5, 7, 29
7, 82800, Control_c, 5, 7, 28
7, 82812, Note_off_c, 5, 65, 64
7, 82812, Note_off_c, 5, 69, 64
7, 82812, Note_off_c, 5, 72, 64
7, 82812, Note_off_c, 5, 76, 64
7, 82944, Control_c, 5, 7, 27
7, 82944, Note_on_c, 5, 64, 79
7, 82944, Note_on_c, 5, 67, 79
7, 82944, Note_on_c, 5, 71, 79
7, 82944, Note_on_c, 5, 74, 79
7, 83088, Control_c, 5, 7, 26
7, 83196, Note_off_c, 5, 64, 64
7, 83196, Note_off_c, 5, 67, 64
7, 83196, Note_off_c, 5, 71, 64
7, 83196, Note_off_c, 5, 74, 64
7, 83232, Control_c, 5, 7, 25
7, 83328, Note_on_c, 5, 57, 79
7, 83328, Note_on_c, 5, 60, 79
7, 83328, Note_on_c, 5, 64, 79
7, 83376, Control_c, 5, 7, 24
7, 83520, Control_c, 5, 7, 23
7, 83580, Note_off_c, 5, 57, 64
7, 83580, Note_off_c, 5, 60, 64
7, 83580, Note_off_c, 5, 64, 64
7, 83664, Control_c, 5, 7, 22
7, 83712, Note_on_c, 5, 60, 79
7, 83712, Note_on_c, 5, 62, 79
7, 83712, Note_on_c, 5, 65, 79
7, 83712, Note_on_c, 5, 69, 79
7, 83808, Control_c, 5, 7, 21
7, 83952, Control_c, 5, 7, 20
7, 84096, Control_c, 5, 7, 19
7, 84220, Note_off_c, 5, 60, 64
7, 84220, Note_off_c, 5, 62, 64
7, 84220, Note_off_c, 5, 65, 64
7, 84220, Note_off_c, 5, 69, 64
7, 84240, Control_c, 5, 7, 18
7, 84384, Control_c, 5, 7, 17
7, 84480, Note_on_c, 5, 57, 79
7, 84480, Note_on_c, 5, 60, 79
7, 84480, Note_on_c, 5, 64, 79
7, 84480, Note_on_c, 5, 67, 79
7, 84528, Control_c, 5, 7, 16
7, 84672, Control_c, 5, 7, 15
7, 84732, Note_off_c, 5, 57, 64
7, 84732, Note_off_c, 5, 60, 64
7, 84732, Note_off_c, 5, 64, 64
7, 84732, Note_off_c, 5, 67, 64
7, 84816, Control_c, 5, 7, 14
7, 84864, Note_on_c, 5, 55, 79
7, 84864, Note_on_c, 5, 59, 79
7, 84864, Note_on_c, 5, 62, 79
7, 84864, Note_on_c, 5, 65, 79
7, 84960, Control_c, 5, 7, 13
7, 85104, Control_c, 5, 7, 12
7, 85116, Note_off_c, 5, 55, 64
7, 85116, Note_off_c, 5, 59, 64
7, 85116, Note_off_c, 5, 62, 64
7, 85116, Note_off_c, 5, 65, 64
7, 85248, Control_c, 5, 7, 11
7, 85248, Note_on_c, 5, 62, 79
7, 85248, Note_on_c, 5, 64, 79
7, 85248, Note_on_c, 5, 67, 79
7, 85248, Note_on_c, 5, 71, 79
7, 85392, Control_c, 5, 7, 10
7, 85500, Note_off_c, 5, 62, 64
7, 85500, Note_off_c, 5, 64, 64
7, 85500, Note_off_c, 5, 67, 64
7, 85500, Note_off_c, 5, 71, 64
7, 85536, Control_c, 5, 7, 9
7, 85632, Note_on_c, 5, 65, 79
7, 85632, Note_on_c, 5, 69, 79
7, 85632, Note_on_c, 5, 72, 79
7, 85632, Note_on_c, 5, 76, 79
7, 85680, Control_c, 5, 7, 8
7, 85824, Control_c, 5, 7, 7
7, 85884, Note_off_c, 5, 65, 64
7, 85884, Note_off_c, 5, 69, 64
7, 85884, Note_off_c, 5, 72, 64
7, 85884, Note_off_c, 5, 76, 64
7, 85968, Control_c, 5, 7, 6
7, 86016, Note_on_c, 5, 64, 79
7, 86016, Note_on_c, 5, 67, 79
7, 86016, Note_on_c, 5, 71, 79
7, 86016, Note_on_c, 5, 74, 79
7, 86112, Control_c, 5, 7, 5
7, 86256, Control_c, 5, 7, 4
7, 86268, Note_off_c, 5, 64, 64
7, 86268, Note_off_c, 5, 67, 64
7, 86268, Note_off_c, 5, 71, 64
7, 86268, Note_off_c, 5, 74, 64
7, 86400, Control_c, 5, 7, 3
7, 86400, Note_on_c, 5, 57, 79
7, 86400, Note_on_c, 5, 60, 79
7, 86400, Note_on_c, 5, 64, 79
7, 86544, Control_c, 5, 7, 2
7, 86652, Note_off_c, 5, 57, 64
7, 86652, Note_off_c, 5, 60, 64
7, 86652, Note_off_c, 5, 64, 64
7, 86688, Control_c, 5, 7, 1
7, 86832, Control_c, 5, 7, 0
7, 86832, End_track
8, 0, Start_track
8, 0, MIDI_port, 0
8, 0, Title_t, "Ballade; for the    "
8, 0, Program_c, 6, 3
8, 0, Control_c, 6, 7, 96
8, 0, Control_c, 6, 10, 64
8, 0, Pitch_bend_c, 6, 8192
8, 0, Control_c, 6, 1, 0
8, 0, Control_c, 6, 64, 0
8, 0, End_track
9, 0, Start_track
9, 0, MIDI_port, 0
9, 0, Title_t, "Roland MT-32 and    "
9, 0, Program_c, 7, 110
9, 0, Control_c, 7, 7, 96
9, 0, Control_c, 7, 10, 64
9, 0, Pitch_bend_c, 7, 8192
9, 0, Control_c, 7, 1, 0
9, 0, Control_c, 7, 64, 0
9, 0, End_track
10, 0, Start_track
10, 0, MIDI_port, 0
10, 0, Title_t, "compatibles         "
10, 0, Program_c, 8, 122
10, 0, Control_c, 8, 7, 96
10, 0, Control_c, 8, 10, 64
10, 0, Pitch_bend_c, 8, 8192
10, 0, Control_c, 8, 1, 0
10, 0, Control_c, 8, 64, 0
10, 0, End_track
11, 0, Start_track
11, 0, MIDI_port, 0
11, 0, Title_t, "Want more? Call:    "
11, 0, Program_c, 9, 0
11, 0, Control_c, 9, 7, 108
11, 0, Control_c, 9, 10, 64
11, 0, Pitch_bend_c, 9, 8192
11, 0, Control_c, 9, 1, 0
11, 0, Control_c, 9, 64, 0
11, 0, Note_on_c, 9, 70, 127
11, 4, Note_off_c, 9, 70, 64
11, 96, Note_on_c, 9, 70, 84
11, 100, Note_off_c, 9, 70, 64
11, 144, Note_on_c, 9, 70, 84
11, 148, Note_off_c, 9, 70, 64
11, 192, Control_c, 9, 7, 108
11, 192, Note_on_c, 9, 70, 127
11, 196, Note_off_c, 9, 70, 64
11, 288, Note_on_c, 9, 70, 84
11, 292, Note_off_c, 9, 70, 64
11, 336, Note_on_c, 9, 70, 84
11, 340, Note_off_c, 9, 70, 64
11, 384, Note_on_c, 9, 70, 127
11, 388, Note_off_c, 9, 70, 64
11, 480, Note_on_c, 9, 70, 84
11, 484, Note_off_c, 9, 70, 64
11, 528, Note_on_c, 9, 70, 84
11, 532, Note_off_c, 9, 70, 64
11, 576, Note_on_c, 9, 36, 106
11, 576, Note_on_c, 9, 38, 127
11, 576, Note_on_c, 9, 49, 84
11, 576, Note_on_c, 9, 70, 127
11, 580, Note_off_c, 9, 36, 64
11, 580, Note_off_c, 9, 38, 64
11, 580, Note_off_c, 9, 49, 64
11, 580, Note_off_c, 9, 70, 64
11, 672, Note_on_c, 9, 70, 84
11, 676, Note_off_c, 9, 70, 64
11, 720, Note_on_c, 9, 70, 84
11, 724, Note_off_c, 9, 70, 64
11, 768, Pitch_bend_c, 9, 8192
11, 768, Control_c, 9, 1, 0
11, 768, Program_c, 9, 0
11, 768, Control_c, 9, 64, 0
11, 768, Control_c, 9, 10, 64
11, 768, Note_on_c, 9, 36, 127
11, 768, Note_on_c, 9, 70, 127
11, 772, Note_off_c, 9, 36, 64
11, 772, Note_off_c, 9, 70, 64
11, 864, Note_on_c, 9, 70, 84
11, 868, Note_off_c, 9, 70, 64
11, 912, Note_on_c, 9, 70, 84
11, 916, Note_off_c, 9, 70, 64
11, 960, Note_on_c, 9, 36, 106
11, 960, Note_on_c, 9, 38, 127
11, 960, Note_on_c, 9, 70, 127
11, 964, Note_off_c, 9, 36, 64
11, 964, Note_off_c, 9, 38, 64
11, 964, Note_off_c, 9, 70, 64
11, 1056, Note_on_c, 9, 70, 84
11, 1060, Note_off_c, 9, 70, 64
11, 1104, Note_on_c, 9, 70, 84
11, 1108, Note_off_c, 9, 70, 64
11, 1152, Note_on_c, 9, 36, 127
11, 1152, Note_on_c, 9, 70, 127
11, 1156, Note_off_c, 9, 36, 64
11, 1156, Note_off_c, 9, 70, 64
11, 1248, Note_on_c, 9, 70, 84
11, 1252, Note_off_c, 9, 70, 64
11, 1296, Note_on_c, 9, 70, 84
11, 1300, Note_off_c, 9, 70, 64
11, 1344, Note_on_c, 9, 36, 106
11, 1344, Note_on_c, 9, 38, 127
11, 1344, Note_on_c, 9, 70, 127
11, 1348, Note_off_c, 9, 36, 64
11, 1348, Note_off_c, 9, 38, 64
11, 1348, Note_off_c, 9, 70, 64
11, 1440, Note_on_c, 9, 70, 84
11, 1444, Note_off_c, 9, 70, 64
11, 1488, Note_on_c, 9, 70, 84
11, 1492, Note_off_c, 9, 70, 64
11, 1536, Pitch_bend_c, 9, 8192
11, 1536, Control_c, 9, 1, 0
11, 1536, Program_c, 9, 0
11, 1536, Control_c, 9, 64, 0
11, 1536, Control_c, 9, 10, 64
11, 1536, Note_on_c, 9, 36, 127
11, 1536, Note_on_c, 9, 70, 127
11, 1540, Note_off_c, 9, 36, 64
11, 1540, Note_off_c, 9, 70, 64
11, 1632, Note_on_c, 9, 70, 84
11, 1636, Note_off_c, 9, 70, 64
11, 1680, Note_on_c, 9, 70, 84
11, 1684, Note_off_c, 9, 70, 64
11, 1728, Note_on_c, 9, 36, 106
11, 1728, Note_on_c, 9, 38, 127
11, 1728, Note_on_c, 9, 70, 127
11, 1732, Note_off_c, 9, 36, 64
11, 1732, Note_off_c, 9, 38, 64
11, 1732, Note_off_c, 9, 70, 64
11, 1824, Note_on_c, 9, 70, 84
11, 1828, Note_off_c, 9, 70, 64
11, 1872, Note_on_c, 9, 70, 84
11, 1876, Note_off_c, 9, 70, 64
11, 1920, Note_on_c, 9, 36, 127
11, 1920, Note_on_c, 9, 70, 127
11, 1924, Note_off_c, 9, 36, 64
11, 1924, Note_off_c, 9, 70, 64
11, 2016, Note_on_c, 9, 70, 84
11, 2020, Note_off_c, 9, 70, 64
11, 2064, Note_on_c, 9, 70, 84
11, 2068, Note_off_c, 9, 70, 64
11, 2112, Note_on_c, 9, 36, 106
11, 2112, Note_on_c, 9, 38, 127
11, 2112, Note_on_c, 9, 70, 127
11, 2116, Note_off_c, 9, 36, 64
11, 2116, Note_off_c, 9, 38, 64
11, 2116, Note_off_c, 9, 70, 64
11, 2208, Note_on_c, 9, 70, 84
11, 2212, Note_off_c, 9, 70, 64
11, 2256, Note_on_c, 9, 70, 84
11, 2260, Note_off_c, 9, 70, 64
11, 2304, Pitch_bend_c, 9, 8192
11, 2304, Control_c, 9, 1, 0
11, 2304, Program_c, 9, 0
11, 2304, Control_c, 9, 64, 0
11, 2304, Control_c, 9, 10, 64
11, 2304, Note_on_c, 9, 36, 127
11, 2304, Note_on_c, 9, 70, 127
11, 2308, Note_off_c, 9, 36, 64
11, 2308, Note_off_c, 9, 70, 64
11, 2400, Note_on_c, 9, 70, 84
11, 2404, Note_off_c, 9, 70, 64
11, 2448, Note_on_c, 9, 70, 84
11, 2452, Note_off_c, 9, 70, 64
11, 2496, Note_on_c, 9, 36, 106
11, 2496, Note_on_c, 9, 38, 127
11, 2496, Note_on_c, 9, 70, 127
11, 2500, Note_off_c, 9, 36, 64
11, 2500, Note_off_c, 9, 38, 64
11, 2500, Note_off_c, 9, 70, 64
11, 2592, Note_on_c, 9, 70, 84
11, 2596, Note_off_c, 9, 70, 64
11, 2640, Note_on_c, 9, 70, 84
11, 2644, Note_off_c, 9, 70, 64
11, 2688, Note_on_c, 9, 36, 127
11, 2688, Note_on_c, 9, 70, 127
11, 2692, Note_off_c, 9, 36, 64
11, 2692, Note_off_c, 9, 70, 64
11, 2784, Note_on_c, 9, 70, 84
11, 2788, Note_off_c, 9, 70, 64
11, 2832, Note_on_c, 9, 70, 84
11, 2836, Note_off_c, 9, 70, 64
11, 2880, Note_on_c, 9, 36, 106
11, 2880, Note_on_c, 9, 38, 127
11, 2880, Note_on_c, 9, 70, 127
11, 2884, Note_off_c, 9, 36, 64
11, 2884, Note_off_c, 9, 38, 64
11, 2884, Note_off_c, 9, 70, 64
11, 2976, Note_on_c, 9, 70, 84
11, 2980, Note_off_c, 9, 70, 64
11, 3024, Note_on_c, 9, 70, 84
11, 3028, Note_off_c, 9, 70, 64
11, 3072, Pitch_bend_c, 9, 8192
11, 3072, Control_c, 9, 1, 0
11, 3072, Program_c, 9, 0
11, 3072, Control_c, 9, 64, 0
11, 3072, Control_c, 9, 10, 64
11, 3072, Note_on_c, 9, 36, 127
11, 3072, Note_on_c, 9, 70, 127
11, 3076, Note_off_c, 9, 36, 64
11, 3076, Note_off_c, 9, 70, 64
11, 3168, Note_on_c, 9, 70, 84
11, 3172, Note_off_c, 9, 70, 64
11, 3216, Note_on_c, 9, 70, 84
11, 3220, Note_off_c, 9, 70, 64
11, 3264, Note_on_c, 9, 36, 106
11, 3264, Note_on_c, 9, 38, 127
11, 3264, Note_on_c, 9, 70, 127
11, 3268, Note_off_c, 9, 36, 64
11, 3268, Note_off_c, 9, 38, 64
11, 3268, Note_off_c, 9, 70, 64
11, 3360, Note_on_c, 9, 70, 84
11, 3364, Note_off_c, 9, 70, 64
11, 3408, Note_on_c, 9, 70, 84
11, 3412, Note_off_c, 9, 70, 64
11, 3456, Note_on_c, 9, 36, 127
11, 3456, Note_on_c, 9, 70, 127
11, 3460, Note_off_c, 9, 36, 64
11, 3460, Note_off_c, 9, 70, 64
11, 3552, Note_on_c, 9, 70, 84
11, 3556, Note_off_c, 9, 70, 64
11, 3600, Note_on_c, 9, 70, 84
11, 3604, Note_off_c, 9, 70, 64
11, 3648, Note_on_c, 9, 36, 106
11, 3648, Note_on_c, 9, 38, 127
11, 3648, Note_on_c, 9, 70, 127
11, 3652, Note_off_c, 9, 36, 64
11, 3652, Note_off_c, 9, 38, 64
11, 3652, Note_off_c, 9, 70, 64
11, 3744, Note_on_c, 9, 70, 84
11, 3748, Note_off_c, 9, 70, 64
11, 3792, Note_on_c, 9, 70, 84
11, 3796, Note_off_c, 9, 70, 64
11, 3840, Pitch_bend_c, 9, 8192
11, 3840, Control_c, 9, 1, 0
11, 3840, Program_c, 9, 0
11, 3840, Control_c, 9, 64, 0
11, 3840, Control_c, 9, 10, 64
11, 3840, Note_on_c, 9, 36, 127
11, 3840, Note_on_c, 9, 70, 127
11, 3844, Note_off_c, 9, 36, 64
11, 3844, Note_off_c, 9, 70, 64
11, 3936, Note_on_c, 9, 70, 84
11, 3940, Note_off_c, 9, 70, 64
11, 3984, Note_on_c, 9, 70, 84
11, 3988, Note_off_c, 9, 70, 64
11, 4032, Note_on_c, 9, 36, 106
11, 4032, Note_on_c, 9, 38, 127
11, 4032, Note_on_c, 9, 70, 127
11, 4036, Note_off_c, 9, 36, 64
11, 4036, Note_off_c, 9, 38, 64
11, 4036, Note_off_c, 9, 70, 64
11, 4128, Note_on_c, 9, 70, 84
11, 4132, Note_off_c, 9, 70, 64
11, 4176, Note_on_c, 9, 70, 84
11, 4180, Note_off_c, 9, 70, 64
11, 4224, Note_on_c, 9, 36, 127
11, 4224, Note_on_c, 9, 70, 127
11, 4228, Note_off_c, 9, 36, 64
11, 4228, Note_off_c, 9, 70, 64
11, 4320, Note_on_c, 9, 70, 84
11, 4324, Note_off_c, 9, 70, 64
11, 4368, Note_on_c, 9, 70, 84
11, 4372, Note_off_c, 9, 70, 64
11, 4416, Note_on_c, 9, 36, 106
11, 4416, Note_on_c, 9, 38, 127
11, 4416, Note_on_c, 9, 70, 127
11, 4420, Note_off_c, 9, 36, 64
11, 4420, Note_off_c, 9, 38, 64
11, 4420, Note_off_c, 9, 70, 64
11, 4512, Note_on_c, 9, 70, 84
11, 4516, Note_off_c, 9, 70, 64
11, 4560, Note_on_c, 9, 70, 84
11, 4564, Note_off_c, 9, 70, 64
11, 4608, Pitch_bend_c, 9, 8192
11, 4608, Control_c, 9, 1, 0
11, 4608, Program_c, 9, 0
11, 4608, Control_c, 9, 64, 0
11, 4608, Control_c, 9, 10, 64
11, 4608, Note_on_c, 9, 36, 127
11, 4608, Note_on_c, 9, 70, 127
11, 4612, Note_off_c, 9, 36, 64
11, 4612, Note_off_c, 9, 70, 64
11, 4704, Note_on_c, 9, 70, 84
11, 4708, Note_off_c, 9, 70, 64
11, 4752, Note_on_c, 9, 70, 84
11, 4756, Note_off_c, 9, 70, 64
11, 4800, Note_on_c, 9, 36, 106
11, 4800, Note_on_c, 9, 38, 127
11, 4800, Note_on_c, 9, 70, 127
11, 4804, Note_off_c, 9, 36, 64
11, 4804, Note_off_c, 9, 38, 64
11, 4804, Note_off_c, 9, 70, 64
11, 4896, Note_on_c, 9, 70, 84
11, 4900, Note_off_c, 9, 70, 64
11, 4944, Note_on_c, 9, 70, 84
11, 4948, Note_off_c, 9, 70, 64
11, 4992, Note_on_c, 9, 36, 127
11, 4992, Note_on_c, 9, 70, 127
11, 4996, Note_off_c, 9, 36, 64
11, 4996, Note_off_c, 9, 70, 64
11, 5088, Note_on_c, 9, 70, 84
11, 5092, Note_off_c, 9, 70, 64
11, 5136, Note_on_c, 9, 70, 84
11, 5140, Note_off_c, 9, 70, 64
11, 5184, Note_on_c, 9, 36, 106
11, 5184, Note_on_c, 9, 38, 127
11, 5184, Note_on_c, 9, 70, 127
11, 5188, Note_off_c, 9, 36, 64
11, 5188, Note_off_c, 9, 38, 64
11, 5188, Note_off_c, 9, 70, 64
11, 5280, Note_on_c, 9, 70, 84
11, 5284, Note_off_c, 9, 70, 64
11, 5328, Note_on_c, 9, 70, 84
11, 5332, Note_off_c, 9, 70, 64
11, 5376, Pitch_bend_c, 9, 8192
11, 5376, Control_c, 9, 1, 0
11, 5376, Program_c, 9, 0
11, 5376, Control_c, 9, 64, 0
11, 5376, Control_c, 9, 10, 64
11, 5376, Note_on_c, 9, 36, 127
11, 5376, Note_on_c, 9, 70, 127
11, 5380, Note_off_c, 9, 36, 64
11, 5380, Note_off_c, 9, 70, 64
11, 5472, Note_on_c, 9, 70, 84
11, 5476, Note_off_c, 9, 70, 64
11, 5520, Note_on_c, 9, 70, 84
11, 5524, Note_off_c, 9, 70, 64
11, 5568, Note_on_c, 9, 36, 106
11, 5568, Note_on_c, 9, 38, 127
11, 5568, Note_on_c, 9, 70, 127
11, 5572, Note_off_c, 9, 36, 64
11, 5572, Note_off_c, 9, 38, 64
11, 5572, Note_off_c, 9, 70, 64
11, 5664, Note_on_c, 9, 70, 84
11, 5668, Note_off_c, 9, 70, 64
11, 5712, Note_on_c, 9, 70, 84
11, 5716, Note_off_c, 9, 70, 64
11, 5760, Note_on_c, 9, 36, 127
11, 5760, Note_on_c, 9, 70, 127
11, 5764, Note_off_c, 9, 36, 64
11, 5764, Note_off_c, 9, 70, 64
11, 5856, Note_on_c, 9, 70, 84
11, 5860, Note_off_c, 9, 70, 64
11, 5904, Note_on_c, 9, 70, 84
11, 5908, Note_off_c, 9, 70, 64
11, 5952, Note_on_c, 9, 36, 106
11, 5952, Note_on_c, 9, 38, 127
11, 5952, Note_on_c, 9, 70, 127
11, 5956, Note_off_c, 9, 36, 64
11, 5956, Note_off_c, 9, 38, 64
11, 5956, Note_off_c, 9, 70, 64
11, 6048, Note_on_c, 9, 70, 84
11, 6052, Note_off_c, 9, 70, 64
11, 6096, Note_on_c, 9, 70, 84
11, 6100, Note_off_c, 9, 70, 64
11, 6144, Pitch_bend_c, 9, 8192
11, 6144, Control_c, 9, 1, 0
11, 6144, Program_c, 9, 0
11, 6144, Control_c, 9, 64, 0
11, 6144, Control_c, 9, 10, 64
11, 6144, Note_on_c, 9, 36, 127
11, 6144, Note_on_c, 9, 70, 127
11, 6148, Note_off_c, 9, 36, 64
11, 6148, Note_off_c, 9, 70, 64
11, 6240, Note_on_c, 9, 70, 84
11, 6244, Note_off_c, 9, 70, 64
11, 6288, Note_on_c, 9, 70, 84
11, 6292, Note_off_c, 9, 70, 64
11, 6336, Note_on_c, 9, 36, 106
11, 6336, Note_on_c, 9, 38, 127
11, 6336, Note_on_c, 9, 70, 127
11, 6340, Note_off_c, 9, 36, 64
11, 6340, Note_off_c, 9, 38, 64
11, 6340, Note_off_c, 9, 70, 64
11, 6432, Note_on_c, 9, 70, 84
11, 6436, Note_off_c, 9, 70, 64
11, 6480, Note_on_c, 9, 70, 84
11, 6484, Note_off_c, 9, 70, 64
11, 6528, Note_on_c, 9, 36, 127
11, 6528, Note_on_c, 9, 70, 127
11, 6532, Note_off_c, 9, 36, 64
11, 6532, Note_off_c, 9, 70, 64
11, 6624, Note_on_c, 9, 70, 84
11, 6628, Note_off_c, 9, 70, 64
11, 6672, Note_on_c, 9, 70, 84
11, 6676, Note_off_c, 9, 70, 64
11, 6720, Note_on_c, 9, 36, 106
11, 6720, Note_on_c, 9, 38, 127
11, 6720, Note_on_c, 9, 70, 127
11, 6724, Note_off_c, 9, 36, 64
11, 6724, Note_off_c, 9, 38, 64
11, 6724, Note_off_c, 9, 70, 64
11, 6816, Note_on_c, 9, 70, 84
11, 6820, Note_off_c, 9, 70, 64
11, 6864, Note_on_c, 9, 70, 84
11, 6868, Note_off_c, 9, 70, 64
11, 6912, Pitch_bend_c, 9, 8192
11, 6912, Control_c, 9, 1, 0
11, 6912, Program_c, 9, 0
11, 6912, Control_c, 9, 64, 0
11, 6912, Control_c, 9, 10, 64
11, 6912, Note_on_c, 9, 36, 127
11, 6912, Note_on_c, 9, 70, 127
11, 6916, Note_off_c, 9, 36, 64
11, 6916, Note_off_c, 9, 70, 64
11, 7008, Note_on_c, 9, 70, 84
11, 7012, Note_off_c, 9, 70, 64
11, 7056, Note_on_c, 9, 70, 84
11, 7060, Note_off_c, 9, 70, 64
11, 7104, Note_on_c, 9, 36, 106
11, 7104, Note_on_c, 9, 38, 127
11, 7104, Note_on_c, 9, 70, 127
11, 7108, Note_off_c, 9, 36, 64
11, 7108, Note_off_c, 9, 38, 64
11, 7108, Note_off_c, 9, 70, 64
11, 7200, Note_on_c, 9, 70, 84
11, 7204, Note_off_c, 9, 70, 64
11, 7248, Note_on_c, 9, 70, 84
11, 7252, Note_off_c, 9, 70, 64
11, 7296, Note_on_c, 9, 36, 127
11, 7296, Note_on_c, 9, 70, 127
11, 7300, Note_off_c, 9, 36, 64
11, 7300, Note_off_c, 9, 70, 64
11, 7392, Note_on_c, 9, 70, 84
11, 7396, Note_off_c, 9, 70, 64
11, 7440, Note_on_c, 9, 70, 84
11, 7444, Note_off_c, 9, 70, 64
11, 7488, Note_on_c, 9, 36, 106
11, 7488, Note_on_c, 9, 38, 127
11, 7488, Note_on_c, 9, 70, 127
11, 7492, Note_off_c, 9, 36, 64
11, 7492, Note_off_c, 9, 38, 64
11, 7492, Note_off_c, 9, 70, 64
11, 7584, Note_on_c, 9, 70, 84
11, 7588, Note_off_c, 9, 70, 64
11, 7632, Note_on_c, 9, 70, 84
11, 7636, Note_off_c, 9, 70, 64
11, 7680, Pitch_bend_c, 9, 8192
11, 7680, Control_c, 9, 1, 0
11, 7680, Program_c, 9, 0
11, 7680, Control_c, 9, 64, 0
11, 7680, Control_c, 9, 10, 64
11, 7680, Note_on_c, 9, 36, 127
11, 7680, Note_on_c, 9, 70, 127
11, 7684, Note_off_c, 9, 36, 64
11, 7684, Note_off_c, 9, 70, 64
11, 7776, Note_on_c, 9, 70, 84
11, 7780, Note_off_c, 9, 70, 64
11, 7824, Note_on_c, 9, 70, 84
11, 7828, Note_off_c, 9, 70, 64
11, 7872, Note_on_c, 9, 36, 106
11, 7872, Note_on_c, 9, 38, 127
11, 7872, Note_on_c, 9, 70, 127
11, 7876, Note_off_c, 9, 36, 64
11, 7876, Note_off_c, 9, 38, 64
11, 7876, Note_off_c, 9, 70, 64
11, 7968, Note_on_c, 9, 70, 84
11, 7972, Note_off_c, 9, 70, 64
11, 8016, Note_on_c, 9, 70, 84
11, 8020, Note_off_c, 9, 70, 64
11, 8064, Note_on_c, 9, 36, 127
11, 8064, Note_on_c, 9, 70, 127
11, 8068, Note_off_c, 9, 36, 64
11, 8068, Note_off_c, 9, 70, 64
11, 8160, Note_on_c, 9, 70, 84
11, 8164, Note_off_c, 9, 70, 64
11, 8208, Note_on_c, 9, 70, 84
11, 8212, Note_off_c, 9, 70, 64
11, 8256, Note_on_c, 9, 36, 106
11, 8256, Note_on_c, 9, 38, 127
11, 8256, Note_on_c, 9, 70, 127
11, 8260, Note_off_c, 9, 36, 64
11, 8260, Note_off_c, 9, 38, 64
11, 8260, Note_off_c, 9, 70, 64
11, 8352, Note_on_c, 9, 70, 84
11, 8356, Note_off_c, 9, 70, 64
11, 8400, Note_on_c, 9, 70, 84
11, 8404, Note_off_c, 9, 70, 64
11, 8448, Pitch_bend_c, 9, 8192
11, 8448, Control_c, 9, 1, 0
11, 8448, Program_c, 9, 0
11, 8448, Control_c, 9, 64, 0
11, 8448, Control_c, 9, 10, 64
11, 8448, Note_on_c, 9, 36, 127
11, 8448, Note_on_c, 9, 70, 127
11, 8452, Note_off_c, 9, 36, 64
11, 8452, Note_off_c, 9, 70, 64
11, 8544, Note_on_c, 9, 70, 84
11, 8548, Note_off_c, 9, 70, 64
11, 8592, Note_on_c, 9, 70, 84
11, 8596, Note_off_c, 9, 70, 64
11, 8640, Note_on_c, 9, 36, 106
11, 8640, Note_on_c, 9, 38, 127
11, 8640, Note_on_c, 9, 70, 127
11, 8644, Note_off_c, 9, 36, 64
11, 8644, Note_off_c, 9, 38, 64
11, 8644, Note_off_c, 9, 70, 64
11, 8736, Note_on_c, 9, 70, 84
11, 8740, Note_off_c, 9, 70, 64
11, 8784, Note_on_c, 9, 70, 84
11, 8788, Note_off_c, 9, 70, 64
11, 8832, Note_on_c, 9, 36, 127
11, 8832, Note_on_c, 9, 70, 127
11, 8836, Note_off_c, 9, 36, 64
11, 8836, Note_off_c, 9, 70, 64
11, 8928, Note_on_c, 9, 70, 84
11, 8932, Note_off_c, 9, 70, 64
11, 8976, Note_on_c, 9, 70, 84
11, 8980, Note_off_c, 9, 70, 64
11, 9024, Note_on_c, 9, 36, 106
11, 9024, Note_on_c, 9, 38, 127
11, 9024, Note_on_c, 9, 70, 127
11, 9028, Note_off_c, 9, 36, 64
11, 9028, Note_off_c, 9, 38, 64
11, 9028, Note_off_c, 9, 70, 64
11, 9120, Note_on_c, 9, 70, 84
11, 9124, Note_off_c, 9, 70, 64
11, 9168, Note_on_c, 9, 70, 84
11, 9172, Note_off_c, 9, 70, 64
11, 9216, Pitch_bend_c, 9, 8192
11, 9216, Control_c, 9, 1, 0
11, 9216, Program_c, 9, 0
11, 9216, Control_c, 9, 64, 0
11, 9216, Control_c, 9, 10, 64
11, 9216, Note_on_c, 9, 36, 127
11, 9216, Note_on_c, 9, 70, 127
11, 9220, Note_off_c, 9, 36, 64
11, 9220, Note_off_c, 9, 70, 64
11, 9312, Note_on_c, 9, 70, 84
11, 9316, Note_off_c, 9, 70, 64
11, 9360, Note_on_c, 9, 70, 84
11, 9364, Note_off_c, 9, 70, 64
11, 9408, Note_on_c, 9, 36, 106
11, 9408, Note_on_c, 9, 38, 127
11, 9408, Note_on_c, 9, 70, 127
11, 9412, Note_off_c, 9, 36, 64
11, 9412, Note_off_c, 9, 38, 64
11, 9412, Note_off_c, 9, 70, 64
11, 9504, Note_on_c, 9, 70, 84
11, 9508, Note_off_c, 9, 70, 64
11, 9552, Note_on_c, 9, 70, 84
11, 9556, Note_off_c, 9, 70, 64
11, 9600, Note_on_c, 9, 36, 127
11, 9600, Note_on_c, 9, 70, 127
11, 9604, Note_off_c, 9, 36, 64
11, 9604, Note_off_c, 9, 70, 64
11, 9696, Note_on_c, 9, 70, 84
11, 9700, Note_off_c, 9, 70, 64
11, 9744, Note_on_c, 9, 70, 84
11, 9748, Note_off_c, 9, 70, 64
11, 9792, Note_on_c, 9, 36, 106
11, 9792, Note_on_c, 9, 38, 127
11, 9792, Note_on_c, 9, 70, 127
11, 9796, Note_off_c, 9, 36, 64
11, 9796, Note_off_c, 9, 38, 64
11, 9796, Note_off_c, 9, 70, 64
11, 9888, Note_on_c, 9, 70, 84
11, 9892, Note_off_c, 9, 70, 64
11, 9936, Note_on_c, 9, 70, 84
11, 9940, Note_off_c, 9, 70, 64
11, 9984, Pitch_bend_c, 9, 8192
11, 9984, Control_c, 9, 1, 0
11, 9984, Program_c, 9, 0
11, 9984, Control_c, 9, 64, 0
11, 9984, Control_c, 9, 10, 64
11, 9984, Note_on_c, 9, 36, 127
11, 9984, Note_on_c, 9, 70, 127
11, 9988, Note_off_c, 9, 36, 64
11, 9988, Note_off_c, 9, 70, 64
11, 10080, Note_on_c, 9, 70, 84
11, 10084, Note_off_c, 9, 70, 64
11, 10128, Note_on_c, 9, 70, 84
11, 10132, Note_off_c, 9, 70, 64
11, 10176, Note_on_c, 9, 36, 106
11, 10176, Note_on_c, 9, 38, 127
11, 10176, Note_on_c, 9, 70, 127
11, 10180, Note_off_c, 9, 36, 64
11, 10180, Note_off_c, 9, 38, 64
11, 10180, Note_off_c, 9, 70, 64
11, 10272, Note_on_c, 9, 70, 84
11, 10276, Note_off_c, 9, 70, 64
11, 10320, Note_on_c, 9, 70, 84
11, 10324, Note_off_c, 9, 70, 64
11, 10368, Note_on_c, 9, 36, 127
11, 10368, Note_on_c, 9, 70, 127
11, 10372, Note_off_c, 9, 36, 64
11, 10372, Note_off_c, 9, 70, 64
11, 10464, Note_on_c, 9, 70, 84
11, 10468, Note_off_c, 9, 70, 64
11, 10512, Note_on_c, 9, 70, 84
11, 10516, Note_off_c, 9, 70, 64
11, 10560, Note_on_c, 9, 36, 106
11, 10560, Note_on_c, 9, 38, 127
11, 10560, Note_on_c, 9, 70, 127
11, 10564, Note_off_c, 9, 36, 64
11, 10564, Note_off_c, 9, 38, 64
11, 10564, Note_off_c, 9, 70, 64
11, 10656, Note_on_c, 9, 70, 84
11, 10660, Note_off_c, 9, 70, 64
11, 10704, Note_on_c, 9, 70, 84
11, 10708, Note_off_c, 9, 70, 64
11, 10752, Pitch_bend_c, 9, 8192
11, 10752, Control_c, 9, 1, 0
11, 10752, Program_c, 9, 0
11, 10752, Control_c, 9, 64, 0
11, 10752, Control_c, 9, 10, 64
11, 10752, Note_on_c, 9, 36, 127
11, 10752, Note_on_c, 9, 70, 127
11, 10756, Note_off_c, 9, 36, 64
11, 10756, Note_off_c, 9, 70, 64
11, 10848, Note_on_c, 9, 70, 84
11, 10852, Note_off_c, 9, 70, 64
11, 10896, Note_on_c, 9, 70, 84
11, 10900, Note_off_c, 9, 70, 64
11, 10944, Note_on_c, 9, 36, 106
11, 10944, Note_on_c, 9, 38, 127
11, 10944, Note_on_c, 9, 70, 127
11, 10948, Note_off_c, 9, 36, 64
11, 10948, Note_off_c, 9, 38, 64
11, 10948, Note_off_c, 9, 70, 64
11, 11040, Note_on_c, 9, 70, 84
11, 11044, Note_off_c, 9, 70, 64
11, 11088, Note_on_c, 9, 70, 84
11, 11092, Note_off_c, 9, 70, 64
11, 11136, Note_on_c, 9, 36, 127
11, 11136, Note_on_c, 9, 70, 127
11, 11140, Note_off_c, 9, 36, 64
11, 11140, Note_off_c, 9, 70, 64
11, 11232, Note_on_c, 9, 70, 84
11, 11236, Note_off_c, 9, 70, 64
11, 11280, Note_on_c, 9, 70, 84
11, 11284, Note_off_c, 9, 70, 64
11, 11328, Note_on_c, 9, 36, 106
11, 11328, Note_on_c, 9, 38, 127
11, 11328, Note_on_c, 9, 70, 127
11, 11332, Note_off_c, 9, 36, 64
11, 11332, Note_off_c, 9, 38, 64
11, 11332, Note_off_c, 9, 70, 64
11, 11424, Note_on_c, 9, 70, 84
11, 11428, Note_off_c, 9, 70, 64
11, 11472, Note_on_c, 9, 70, 84
11, 11476, Note_off_c, 9, 70, 64
11, 11520, Pitch_bend_c, 9, 8192
11, 11520, Control_c, 9, 1, 0
11, 11520, Program_c, 9, 0
11, 11520, Control_c, 9, 64, 0
11, 11520, Control_c, 9, 10, 64
11, 11520, Note_on_c, 9, 36, 127
11, 11520, Note_on_c, 9, 70, 127
11, 11524, Note_off_c, 9, 36, 64
11, 11524, Note_off_c, 9, 70, 64
11, 11616, Note_on_c, 9, 70, 84
11, 11620, Note_off_c, 9, 70, 64
11, 11664, Note_on_c, 9, 70, 84
11, 11668, Note_off_c, 9, 70, 64
11, 11712, Note_on_c, 9, 36, 106
11, 11712, Note_on_c, 9, 38, 127
11, 11712, Note_on_c, 9, 70, 127
11, 11716, Note_off_c, 9, 36, 64
11, 11716, Note_off_c, 9, 38, 64
11, 11716, Note_off_c, 9, 70, 64
11, 11808, Note_on_c, 9, 70, 84
11, 11812, Note_off_c, 9, 70, 64
11, 11856, Note_on_c, 9, 70, 84
11, 11860, Note_off_c, 9, 70, 64
11, 11904, Note_on_c, 9, 36, 127
11, 11904, Note_on_c, 9, 70, 127
11, 11908, Note_off_c, 9, 36, 64
11, 11908, Note_off_c, 9, 70, 64
11, 12000, Note_on_c, 9, 70, 84
11, 12004, Note_off_c, 9, 70, 64
11, 12048, Note_on_c, 9, 70, 84
11, 12052, Note_off_c, 9, 70, 64
11, 12096, Note_on_c, 9, 36, 106
11, 12096, Note_on_c, 9, 38, 127
11, 12096, Note_on_c, 9, 70, 127
11, 12100, Note_off_c, 9, 36, 64
11, 12100, Note_off_c, 9, 38, 64
11, 12100, Note_off_c, 9, 70, 64
11, 12192, Note_on_c, 9, 70, 84
11, 12196, Note_off_c, 9, 70, 64
11, 12240, Note_on_c, 9, 70, 84
11, 12244, Note_off_c, 9, 70, 64
11, 12288, Pitch_bend_c, 9, 8192
11, 12288, Control_c, 9, 1, 0
11, 12288, Program_c, 9, 0
11, 12288, Control_c, 9, 64, 0
11, 12288, Control_c, 9, 10, 64
11, 12288, Note_on_c, 9, 36, 127
11, 12288, Note_on_c, 9, 70, 127
11, 12292, Note_off_c, 9, 36, 64
11, 12292, Note_off_c, 9, 70, 64
11, 12384, Note_on_c, 9, 70, 84
11, 12388, Note_off_c, 9, 70, 64
11, 12432, Note_on_c, 9, 70, 84
11, 12436, Note_off_c, 9, 70, 64
11, 12480, Note_on_c, 9, 36, 106
11, 12480, Note_on_c, 9, 38, 127
11, 12480, Note_on_c, 9, 70, 127
11, 12484, Note_off_c, 9, 36, 64
11, 12484, Note_off_c, 9, 38, 64
11, 12484, Note_off_c, 9, 70, 64
11, 12576, Note_on_c, 9, 70, 84
11, 12580, Note_off_c, 9, 70, 64
11, 12624, Note_on_c, 9, 70, 84
11, 12628, Note_off_c, 9, 70, 64
11, 12672, Note_on_c, 9, 36, 127
11, 12672, Note_on_c, 9, 70, 127
11, 12676, Note_off_c, 9, 36, 64
11, 12676, Note_off_c, 9, 70, 64
11, 12768, Note_on_c, 9, 70, 84
11, 12772, Note_off_c, 9, 70, 64
11, 12816, Note_on_c, 9, 70, 84
11, 12820, Note_off_c, 9, 70, 64
11, 12864, Note_on_c, 9, 36, 106
11, 12864, Note_on_c, 9, 38, 127
11, 12864, Note_on_c, 9, 70, 127
11, 12868, Note_off_c, 9, 36, 64
11, 12868, Note_off_c, 9, 38, 64
11, 12868, Note_off_c, 9, 70, 64
11, 12960, Note_on_c, 9, 36, 127
11, 12960, Note_on_c, 9, 70, 84
11, 12964, Note_off_c, 9, 36, 64
11, 12964, Note_off_c, 9, 70, 64
11, 13008, Note_on_c, 9, 70, 84
11, 13012, Note_off_c, 9, 70, 64
11, 13056, Pitch_bend_c, 9, 8192
11, 13056, Control_c, 9, 1, 0
11, 13056, Program_c, 9, 0
11, 13056, Control_c, 9, 64, 0
11, 13056, Control_c, 9, 10, 64
11, 13056, Note_on_c, 9, 36, 127
11, 13056, Note_on_c, 9, 49, 84
11, 13056, Note_on_c, 9, 70, 127
11, 13060, Note_off_c, 9, 36, 64
11, 13060, Note_off_c, 9, 49, 64
11, 13060, Note_off_c, 9, 70, 64
11, 13152, Note_on_c, 9, 70, 84
11, 13156, Note_off_c, 9, 70, 64
11, 13200, Note_on_c, 9, 70, 84
11, 13204, Note_off_c, 9, 70, 64
11, 13248, Note_on_c, 9, 36, 106
11, 13248, Note_on_c, 9, 38, 127
11, 13248, Note_on_c, 9, 70, 127
11, 13252, Note_off_c, 9, 36, 64
11, 13252, Note_off_c, 9, 38, 64
11, 13252, Note_off_c, 9, 70, 64
11, 13344, Note_on_c, 9, 70, 84
11, 13348, Note_off_c, 9, 70, 64
11, 13392, Note_on_c, 9, 70, 84
11, 13396, Note_off_c, 9, 70, 64
11, 13440, Note_on_c, 9, 36, 127
11, 13440, Note_on_c, 9, 70, 127
11, 13444, Note_off_c, 9, 36, 64
11, 13444, Note_off_c, 9, 70, 64
11, 13536, Note_on_c, 9, 70, 84
11, 13540, Note_off_c, 9, 70, 64
11, 13584, Note_on_c, 9, 70, 84
11, 13588, Note_off_c, 9, 70, 64
11, 13632, Note_on_c, 9, 36, 106
11, 13632, Note_on_c, 9, 38, 127
11, 13632, Note_on_c, 9, 70, 127
11, 13636, Note_off_c, 9, 36, 64
11, 13636, Note_off_c, 9, 38, 64
11, 13636, Note_off_c, 9, 70, 64
11, 13728, Note_on_c, 9, 70, 84
11, 13732, Note_off_c, 9, 70, 64
11, 13776, Note_on_c, 9, 70, 84
11, 13780, Note_off_c, 9, 70, 64
11, 13824, Pitch_bend_c, 9, 8192
11, 13824, Control_c, 9, 1, 0
11, 13824, Program_c, 9, 0
11, 13824, Control_c, 9, 64, 0
11, 13824, Control_c, 9, 10, 64
11, 13824, Note_on_c, 9, 36, 127
11, 13824, Note_on_c, 9, 70, 127
11, 13828, Note_off_c, 9, 36, 64
11, 13828, Note_off_c, 9, 70, 64
11, 13920, Note_on_c, 9, 70, 84
11, 13924, Note_off_c, 9, 70, 64
11, 13968, Note_on_c, 9, 70, 84
11, 13972, Note_off_c, 9, 70, 64
11, 14016, Note_on_c, 9, 36, 106
11, 14016, Note_on_c, 9, 38, 127
11, 14016, Note_on_c, 9, 70, 127
11, 14020, Note_off_c, 9, 36, 64
11, 14020, Note_off_c, 9, 38, 64
11, 14020, Note_off_c, 9, 70, 64
11, 14112, Note_on_c, 9, 70, 84
11, 14116, Note_off_c, 9, 70, 64
11, 14160, Note_on_c, 9, 70, 84
11, 14164, Note_off_c, 9, 70, 64
11, 14208, Note_on_c, 9, 36, 127
11, 14208, Note_on_c, 9, 70, 127
11, 14212, Note_off_c, 9, 36, 64
11, 14212, Note_off_c, 9, 70, 64
11, 14304, Note_on_c, 9, 70, 84
11, 14308, Note_off_c, 9, 70, 64
11, 14352, Note_on_c, 9, 70, 84
11, 14356, Note_off_c, 9, 70, 64
11, 14400, Note_on_c, 9, 36, 106
11, 14400, Note_on_c, 9, 38, 127
11, 14400, Note_on_c, 9, 70, 127
11, 14404, Note_off_c, 9, 36, 64
11, 14404, Note_off_c, 9, 38, 64
11, 14404, Note_off_c, 9, 70, 64
11, 14496, Note_on_c, 9, 70, 84
11, 14500, Note_off_c, 9, 70, 64
11, 14544, Note_on_c, 9, 70, 84
11, 14548, Note_off_c, 9, 70, 64
11, 14592, Pitch_bend_c, 9, 8192
11, 14592, Control_c, 9, 1, 0
11, 14592, Program_c, 9, 0
11, 14592, Control_c, 9, 64, 0
11, 14592, Control_c, 9, 10, 64
11, 14592, Note_on_c, 9, 36, 127
11, 14592, Note_on_c, 9, 70, 127
11, 14596, Note_off_c, 9, 36, 64
11, 14596, Note_off_c, 9, 70, 64
11, 14688, Note_on_c, 9, 70, 84
11, 14692, Note_off_c, 9, 70, 64
11, 14736, Note_on_c, 9, 70, 84
11, 14740, Note_off_c, 9, 70, 64
11, 14784, Note_on_c, 9, 36, 106
11, 14784, Note_on_c, 9, 38, 127
11, 14784, Note_on_c, 9, 70, 127
11, 14788, Note_off_c, 9, 36, 64
11, 14788, Note_off_c, 9, 38, 64
11, 14788, Note_off_c, 9, 70, 64
11, 14880, Note_on_c, 9, 70, 84
11, 14884, Note_off_c, 9, 70, 64
11, 14928, Note_on_c, 9, 70, 84
11, 14932, Note_off_c, 9, 70, 64
11, 14976, Note_on_c, 9, 36, 127
11, 14976, Note_on_c, 9, 70, 127
11, 14980, Note_off_c, 9, 36, 64
11, 14980, Note_off_c, 9, 70, 64
11, 15072, Note_on_c, 9, 70, 84
11, 15076, Note_off_c, 9, 70, 64
11, 15120, Note_on_c, 9, 70, 84
11, 15124, Note_off_c, 9, 70, 64
11, 15168, Note_on_c, 9, 36, 106
11, 15168, Note_on_c, 9, 38, 127
11, 15168, Note_on_c, 9, 70, 127
11, 15172, Note_off_c, 9, 36, 64
11, 15172, Note_off_c, 9, 38, 64
11, 15172, Note_off_c, 9, 70, 64
11, 15264, Note_on_c, 9, 70, 84
11, 15268, Note_off_c, 9, 70, 64
11, 15312, Note_on_c, 9, 70, 84
11, 15316, Note_off_c, 9, 70, 64
11, 15360, Pitch_bend_c, 9, 8192
11, 15360, Control_c, 9, 1, 0
11, 15360, Program_c, 9, 0
11, 15360, Control_c, 9, 64, 0
11, 15360, Control_c, 9, 10, 64
11, 15360, Note_on_c, 9, 36, 127
11, 15360, Note_on_c, 9, 70, 127
11, 15364, Note_off_c, 9, 36, 64
11, 15364, Note_off_c, 9, 70, 64
11, 15456, Note_on_c, 9, 70, 84
11, 15460, Note_off_c, 9, 70, 64
11, 15504, Note_on_c, 9, 70, 84
11, 15508, Note_off_c, 9, 70, 64
11, 15552, Note_on_c, 9, 36, 106
11, 15552, Note_on_c, 9, 38, 127
11, 15552, Note_on_c, 9, 70, 127
11, 15556, Note_off_c, 9, 36, 64
11, 15556, Note_off_c, 9, 38, 64
11, 15556, Note_off_c, 9, 70, 64
11, 15648, Note_on_c, 9, 70, 84
11, 15652, Note_off_c, 9, 70, 64
11, 15696, Note_on_c, 9, 70, 84
11, 15700, Note_off_c, 9, 70, 64
11, 15744, Note_on_c, 9, 36, 127
11, 15744, Note_on_c, 9, 70, 127
11, 15748, Note_off_c, 9, 36, 64
11, 15748, Note_off_c, 9, 70, 64
11, 15840, Note_on_c, 9, 70, 84
11, 15844, Note_off_c, 9, 70, 64
11, 15888, Note_on_c, 9, 70, 84
11, 15892, Note_off_c, 9, 70, 64
11, 15936, Note_on_c, 9, 36, 106
11, 15936, Note_on_c, 9, 38, 127
11, 15936, Note_on_c, 9, 70, 127
11, 15940, Note_off_c, 9, 36, 64
11, 15940, Note_off_c, 9, 38, 64
11, 15940, Note_off_c, 9, 70, 64
11, 16032, Note_on_c, 9, 70, 84
11, 16036, Note_off_c, 9, 70, 64
11, 16080, Note_on_c, 9, 70, 84
11, 16084, Note_off_c, 9, 70, 64
11, 16128, Pitch_bend_c, 9, 8192
11, 16128, Control_c, 9, 1, 0
11, 16128, Program_c, 9, 0
11, 16128, Control_c, 9, 64, 0
11, 16128, Control_c, 9, 10, 64
11, 16128, Note_on_c, 9, 36, 127
11, 16128, Note_on_c, 9, 70, 127
11, 16132, Note_off_c, 9, 36, 64
11, 16132, Note_off_c, 9, 70, 64
11, 16224, Note_on_c, 9, 70, 84
11, 16228, Note_off_c, 9, 70, 64
11, 16272, Note_on_c, 9, 70, 84
11, 16276, Note_off_c, 9, 70, 64
11, 16320, Note_on_c, 9, 36, 106
11, 16320, Note_on_c, 9, 38, 127
11, 16320, Note_on_c, 9, 70, 127
11, 16324, Note_off_c, 9, 36, 64
11, 16324, Note_off_c, 9, 38, 64
11, 16324, Note_off_c, 9, 70, 64
11, 16416, Note_on_c, 9, 70, 84
11, 16420, Note_off_c, 9, 70, 64
11, 16464, Note_on_c, 9, 70, 84
11, 16468, Note_off_c, 9, 70, 64
11, 16512, Note_on_c, 9, 36, 127
11, 16512, Note_on_c, 9, 70, 127
11, 16516, Note_off_c, 9, 36, 64
11, 16516, Note_off_c, 9, 70, 64
11, 16608, Note_on_c, 9, 70, 84
11, 16612, Note_off_c, 9, 70, 64
11, 16656, Note_on_c, 9, 70, 84
11, 16660, Note_off_c, 9, 70, 64
11, 16704, Note_on_c, 9, 36, 106
11, 16704, Note_on_c, 9, 38, 127
11, 16704, Note_on_c, 9, 70, 127
11, 16708, Note_off_c, 9, 36, 64
11, 16708, Note_off_c, 9, 38, 64
11, 16708, Note_off_c, 9, 70, 64
11, 16800, Note_on_c, 9, 70, 84
11, 16804, Note_off_c, 9, 70, 64
11, 16848, Note_on_c, 9, 70, 84
11, 16852, Note_off_c, 9, 70, 64
11, 16896, Pitch_bend_c, 9, 8192
11, 16896, Control_c, 9, 1, 0
11, 16896, Program_c, 9, 0
11, 16896, Control_c, 9, 64, 0
11, 16896, Control_c, 9, 10, 64
11, 16896, Note_on_c, 9, 36, 127
11, 16896, Note_on_c, 9, 70, 127
11, 16900, Note_off_c, 9, 36, 64
11, 16900, Note_off_c, 9, 70, 64
11, 16992, Note_on_c, 9, 70, 84
11, 16996, Note_off_c, 9, 70, 64
11, 17040, Note_on_c, 9, 70, 84
11, 17044, Note_off_c, 9, 70, 64
11, 17088, Note_on_c, 9, 36, 106
11, 17088, Note_on_c, 9, 38, 127
11, 17088, Note_on_c, 9, 70, 127
11, 17092, Note_off_c, 9, 36, 64
11, 17092, Note_off_c, 9, 38, 64
11, 17092, Note_off_c, 9, 70, 64
11, 17184, Note_on_c, 9, 70, 84
11, 17188, Note_off_c, 9, 70, 64
11, 17232, Note_on_c, 9, 70, 84
11, 17236, Note_off_c, 9, 70, 64
11, 17280, Note_on_c, 9, 36, 127
11, 17280, Note_on_c, 9, 70, 127
11, 17284, Note_off_c, 9, 36, 64
11, 17284, Note_off_c, 9, 70, 64
11, 17376, Note_on_c, 9, 70, 84
11, 17380, Note_off_c, 9, 70, 64
11, 17424, Note_on_c, 9, 70, 84
11, 17428, Note_off_c, 9, 70, 64
11, 17472, Note_on_c, 9, 36, 106
11, 17472, Note_on_c, 9, 38, 127
11, 17472, Note_on_c, 9, 70, 127
11, 17476, Note_off_c, 9, 36, 64
11, 17476, Note_off_c, 9, 38, 64
11, 17476, Note_off_c, 9, 70, 64
11, 17568, Note_on_c, 9, 70, 84
11, 17572, Note_off_c, 9, 70, 64
11, 17616, Note_on_c, 9, 70, 84
11, 17620, Note_off_c, 9, 70, 64
11, 17664, Pitch_bend_c, 9, 8192
11, 17664, Control_c, 9, 1, 0
11, 17664, Program_c, 9, 0
11, 17664, Control_c, 9, 64, 0
11, 17664, Control_c, 9, 10, 64
11, 17664, Note_on_c, 9, 36, 127
11, 17664, Note_on_c, 9, 70, 127
11, 17668, Note_off_c, 9, 36, 64
11, 17668, Note_off_c, 9, 70, 64
11, 17760, Note_on_c, 9, 70, 84
11, 17764, Note_off_c, 9, 70, 64
11, 17808, Note_on_c, 9, 70, 84
11, 17812, Note_off_c, 9, 70, 64
11, 17856, Note_on_c, 9, 36, 106
11, 17856, Note_on_c, 9, 38, 127
11, 17856, Note_on_c, 9, 70, 127
11, 17860, Note_off_c, 9, 36, 64
11, 17860, Note_off_c, 9, 38, 64
11, 17860, Note_off_c, 9, 70, 64
11, 17952, Note_on_c, 9, 70, 84
11, 17956, Note_off_c, 9, 70, 64
11, 18000, Note_on_c, 9, 70, 84
11, 18004, Note_off_c, 9, 70, 64
11, 18048, Note_on_c, 9, 36, 127
11, 18048, Note_on_c, 9, 70, 127
11, 18052, Note_off_c, 9, 36, 64
11, 18052, Note_off_c, 9, 70, 64
11, 18144, Note_on_c, 9, 70, 84
11, 18148, Note_off_c, 9, 70, 64
11, 18192, Note_on_c, 9, 70, 84
11, 18196, Note_off_c, 9, 70, 64
11, 18240, Note_on_c, 9, 36, 106
11, 18240, Note_on_c, 9, 38, 127
11, 18240, Note_on_c, 9, 70, 127
11, 18244, Note_off_c, 9, 36, 64
11, 18244, Note_off_c, 9, 38, 64
11, 18244, Note_off_c, 9, 70, 64
11, 18336, Note_on_c, 9, 70, 84
11, 18340, Note_off_c, 9, 70, 64
11, 18384, Note_on_c, 9, 70, 84
11, 18388, Note_off_c, 9, 70, 64
11, 18432, Pitch_bend_c, 9, 8192
11, 18432, Control_c, 9, 1, 0
11, 18432, Program_c, 9, 0
11, 18432, Control_c, 9, 64, 0
11, 18432, Control_c, 9, 10, 64
11, 18432, Note_on_c, 9, 36, 127
11, 18432, Note_on_c, 9, 70, 127
11, 18436, Note_off_c, 9, 36, 64
11, 18436, Note_off_c, 9, 70, 64
11, 18528, Note_on_c, 9, 70, 84
11, 18532, Note_off_c, 9, 70, 64
11, 18576, Note_on_c, 9, 70, 84
11, 18580, Note_off_c, 9, 70, 64
11, 18624, Note_on_c, 9, 36, 106
11, 18624, Note_on_c, 9, 38, 127
11, 18624, Note_on_c, 9, 70, 127
11, 18628, Note_off_c, 9, 36, 64
11, 18628, Note_off_c, 9, 38, 64
11, 18628, Note_off_c, 9, 70, 64
11, 18720, Note_on_c, 9, 70, 84
11, 18724, Note_off_c, 9, 70, 64
11, 18768, Note_on_c, 9, 70, 84
11, 18772, Note_off_c, 9, 70, 64
11, 18816, Note_on_c, 9, 36, 127
11, 18816, Note_on_c, 9, 70, 127
11, 18820, Note_off_c, 9, 36, 64
11, 18820, Note_off_c, 9, 70, 64
11, 18912, Note_on_c, 9, 70, 84
11, 18916, Note_off_c, 9, 70, 64
11, 18960, Note_on_c, 9, 70, 84
11, 18964, Note_off_c, 9, 70, 64
11, 19008, Note_on_c, 9, 36, 106
11, 19008, Note_on_c, 9, 38, 127
11, 19008, Note_on_c, 9, 70, 127
11, 19012, Note_off_c, 9, 36, 64
11, 19012, Note_off_c, 9, 38, 64
11, 19012, Note_off_c, 9, 70, 64
11, 19104, Note_on_c, 9, 36, 127
11, 19104, Note_on_c, 9, 70, 84
11, 19108, Note_off_c, 9, 36, 64
11, 19108, Note_off_c, 9, 70, 64
11, 19152, Note_on_c, 9, 70, 84
11, 19156, Note_off_c, 9, 70, 64
11, 19200, Pitch_bend_c, 9, 8192
11, 19200, Control_c, 9, 1, 0
11, 19200, Program_c, 9, 0
11, 19200, Control_c, 9, 64, 0
11, 19200, Control_c, 9, 10, 64
11, 19200, Note_on_c, 9, 36, 127
11, 19200, Note_on_c, 9, 49, 106
11, 19200, Note_on_c, 9, 70, 127
11, 19204, Note_off_c, 9, 36, 64
11, 19204, Note_off_c, 9, 49, 64
11, 19204, Note_off_c, 9, 70, 64
11, 19296, Note_on_c, 9, 70, 84
11, 19300, Note_off_c, 9, 70, 64
11, 19344, Note_on_c, 9, 70, 84
11, 19348, Note_off_c, 9, 70, 64
11, 19392, Note_on_c, 9, 36, 106
11, 19392, Note_on_c, 9, 38, 127
11, 19392, Note_on_c, 9, 70, 127
11, 19396, Note_off_c, 9, 36, 64
11, 19396, Note_off_c, 9, 38, 64
11, 19396, Note_off_c, 9, 70, 64
11, 19488, Note_on_c, 9, 70, 84
11, 19492, Note_off_c, 9, 70, 64
11, 19536, Note_on_c, 9, 70, 84
11, 19540, Note_off_c, 9, 70, 64
11, 19584, Note_on_c, 9, 36, 127
11, 19584, Note_on_c, 9, 70, 127
11, 19588, Note_off_c, 9, 36, 64
11, 19588, Note_off_c, 9, 70, 64
11, 19680, Note_on_c, 9, 70, 84
11, 19684, Note_off_c, 9, 70, 64
11, 19728, Note_on_c, 9, 70, 84
11, 19732, Note_off_c, 9, 70, 64
11, 19776, Note_on_c, 9, 36, 106
11, 19776, Note_on_c, 9, 38, 127
11, 19776, Note_on_c, 9, 70, 127
11, 19780, Note_off_c, 9, 36, 64
11, 19780, Note_off_c, 9, 38, 64
11, 19780, Note_off_c, 9, 70, 64
11, 19872, Note_on_c, 9, 70, 84
11, 19876, Note_off_c, 9, 70, 64
11, 19920, Note_on_c, 9, 70, 84
11, 19924, Note_off_c, 9, 70, 64
11, 19968, Pitch_bend_c, 9, 8192
11, 19968, Control_c, 9, 1, 0
11, 19968, Program_c, 9, 0
11, 19968, Control_c, 9, 64, 0
11, 19968, Control_c, 9, 10, 64
11, 19968, Note_on_c, 9, 36, 127
11, 19968, Note_on_c, 9, 70, 127
11, 19972, Note_off_c, 9, 36, 64
11, 19972, Note_off_c, 9, 70, 64
11, 20064, Note_on_c, 9, 70, 84
11, 20068, Note_off_c, 9, 70, 64
11, 20112, Note_on_c, 9, 70, 84
11, 20116, Note_off_c, 9, 70, 64
11, 20160, Note_on_c, 9, 36, 106
11, 20160, Note_on_c, 9, 38, 127
11, 20160, Note_on_c, 9, 70, 127
11, 20164, Note_off_c, 9, 36, 64
11, 20164, Note_off_c, 9, 38, 64
11, 20164, Note_off_c, 9, 70, 64
11, 20256, Note_on_c, 9, 70, 84
11, 20260, Note_off_c, 9, 70, 64
11, 20304, Note_on_c, 9, 70, 84
11, 20308, Note_off_c, 9, 70, 64
11, 20352, Note_on_c, 9, 36, 127
11, 20352, Note_on_c, 9, 70, 127
11, 20356, Note_off_c, 9, 36, 64
11, 20356, Note_off_c, 9, 70, 64
11, 20448, Note_on_c, 9, 70, 84
11, 20452, Note_off_c, 9, 70, 64
11, 20496, Note_on_c, 9, 70, 84
11, 20500, Note_off_c, 9, 70, 64
11, 20544, Note_on_c, 9, 36, 106
11, 20544, Note_on_c, 9, 38, 127
11, 20544, Note_on_c, 9, 70, 127
11, 20548, Note_off_c, 9, 36, 64
11, 20548, Note_off_c, 9, 38, 64
11, 20548, Note_off_c, 9, 70, 64
11, 20640, Note_on_c, 9, 70, 84
11, 20644, Note_off_c, 9, 70, 64
11, 20688, Note_on_c, 9, 70, 84
11, 20692, Note_off_c, 9, 70, 64
11, 20736, Pitch_bend_c, 9, 8192
11, 20736, Control_c, 9, 1, 0
11, 20736, Program_c, 9, 0
11, 20736, Control_c, 9, 64, 0
11, 20736, Control_c, 9, 10, 64
11, 20736, Note_on_c, 9, 36, 127
11, 20736, Note_on_c, 9, 70, 127
11, 20740, Note_off_c, 9, 36, 64
11, 20740, Note_off_c, 9, 70, 64
11, 20832, Note_on_c, 9, 70, 84
11, 20836, Note_off_c, 9, 70, 64
11, 20880, Note_on_c, 9, 70, 84
11, 20884, Note_off_c, 9, 70, 64
11, 20928, Note_on_c, 9, 36, 106
11, 20928, Note_on_c, 9, 38, 127
11, 20928, Note_on_c, 9, 70, 127
11, 20932, Note_off_c, 9, 36, 64
11, 20932, Note_off_c, 9, 38, 64
11, 20932, Note_off_c, 9, 70, 64
11, 21024, Note_on_c, 9, 70, 84
11, 21028, Note_off_c, 9, 70, 64
11, 21072, Note_on_c, 9, 70, 84
11, 21076, Note_off_c, 9, 70, 64
11, 21120, Note_on_c, 9, 36, 127
11, 21120, Note_on_c, 9, 70, 127
11, 21124, Note_off_c, 9, 36, 64
11, 21124, Note_off_c, 9, 70, 64
11, 21216, Note_on_c, 9, 70, 84
11, 21220, Note_off_c, 9, 70, 64
11, 21264, Note_on_c, 9, 70, 84
11, 21268, Note_off_c, 9, 70, 64
11, 21312, Note_on_c, 9, 36, 106
11, 21312, Note_on_c, 9, 38, 127
11, 21312, Note_on_c, 9, 70, 127
11, 21316, Note_off_c, 9, 36, 64
11, 21316, Note_off_c, 9, 38, 64
11, 21316, Note_off_c, 9, 70, 64
11, 21408, Note_on_c, 9, 70, 84
11, 21412, Note_off_c, 9, 70, 64
11, 21456, Note_on_c, 9, 70, 84
11, 21460, Note_off_c, 9, 70, 64
11, 21504, Pitch_bend_c, 9, 8192
11, 21504, Control_c, 9, 1, 0
11, 21504, Program_c, 9, 0
11, 21504, Control_c, 9, 64, 0
11, 21504, Control_c, 9, 10, 64
11, 21504, Note_on_c, 9, 36, 127
11, 21504, Note_on_c, 9, 70, 127
11, 21508, Note_off_c, 9, 36, 64
11, 21508, Note_off_c, 9, 70, 64
11, 21600, Note_on_c, 9, 70, 84
11, 21604, Note_off_c, 9, 70, 64
11, 21648, Note_on_c, 9, 70, 84
11, 21652, Note_off_c, 9, 70, 64
11, 21696, Note_on_c, 9, 36, 106
11, 21696, Note_on_c, 9, 38, 127
11, 21696, Note_on_c, 9, 70, 127
11, 21700, Note_off_c, 9, 36, 64
11, 21700, Note_off_c, 9, 38, 64
11, 21700, Note_off_c, 9, 70, 64
11, 21792, Note_on_c, 9, 70, 84
11, 21796, Note_off_c, 9, 70, 64
11, 21840, Note_on_c, 9, 70, 84
11, 21844, Note_off_c, 9, 70, 64
11, 21888, Note_on_c, 9, 36, 127
11, 21888, Note_on_c, 9, 70, 127
11, 21892, Note_off_c, 9, 36, 64
11, 21892, Note_off_c, 9, 70, 64
11, 21984, Note_on_c, 9, 70, 84
11, 21988, Note_off_c, 9, 70, 64
11, 22032, Note_on_c, 9, 70, 84
11, 22036, Note_off_c, 9, 70, 64
11, 22080, Note_on_c, 9, 36, 106
11, 22080, Note_on_c, 9, 38, 127
11, 22080, Note_on_c, 9, 70, 127
11, 22084, Note_off_c, 9, 36, 64
11, 22084, Note_off_c, 9, 38, 64
11, 22084, Note_off_c, 9, 70, 64
11, 22176, Note_on_c, 9, 70, 84
11, 22180, Note_off_c, 9, 70, 64
11, 22224, Note_on_c, 9, 70, 84
11, 22228, Note_off_c, 9, 70, 64
11, 22272, Pitch_bend_c, 9, 8192
11, 22272, Control_c, 9, 1, 0
11, 22272, Program_c, 9, 0
11, 22272, Control_c, 9, 64, 0
11, 22272, Control_c, 9, 10, 64
11, 22272, Note_on_c, 9, 36, 127
11, 22272, Note_on_c, 9, 70, 127
11, 22276, Note_off_c, 9, 36, 64
11, 22276, Note_off_c, 9, 70, 64
11, 22368, Note_on_c, 9, 70, 84
11, 22372, Note_off_c, 9, 70, 64
11, 22416, Note_on_c, 9, 70, 84
11, 22420, Note_off_c, 9, 70, 64
11, 22464, Note_on_c, 9, 36, 106
11, 22464, Note_on_c, 9, 38, 127
11, 22464, Note_on_c, 9, 70, 127
11, 22468, Note_off_c, 9, 36, 64
11, 22468, Note_off_c, 9, 38, 64
11, 22468, Note_off_c, 9, 70, 64
11, 22560, Note_on_c, 9, 70, 84
11, 22564, Note_off_c, 9, 70, 64
11, 22608, Note_on_c, 9, 70, 84
11, 22612, Note_off_c, 9, 70, 64
11, 22656, Note_on_c, 9, 36, 127
11, 22656, Note_on_c, 9, 70, 127
11, 22660, Note_off_c, 9, 36, 64
11, 22660, Note_off_c, 9, 70, 64
11, 22752, Note_on_c, 9, 70, 84
11, 22756, Note_off_c, 9, 70, 64
11, 22800, Note_on_c, 9, 70, 84
11, 22804, Note_off_c, 9, 70, 64
11, 22848, Note_on_c, 9, 36, 106
11, 22848, Note_on_c, 9, 38, 127
11, 22848, Note_on_c, 9, 70, 127
11, 22852, Note_off_c, 9, 36, 64
11, 22852, Note_off_c, 9, 38, 64
11, 22852, Note_off_c, 9, 70, 64
11, 22944, Note_on_c, 9, 70, 84
11, 22948, Note_off_c, 9, 70, 64
11, 22992, Note_on_c, 9, 70, 84
11, 22996, Note_off_c, 9, 70, 64
11, 23040, Pitch_bend_c, 9, 8192
11, 23040, Control_c, 9, 1, 0
11, 23040, Program_c, 9, 0
11, 23040, Control_c, 9, 64, 0
11, 23040, Control_c, 9, 10, 64
11, 23040, Note_on_c, 9, 36, 127
11, 23040, Note_on_c, 9, 70, 127
11, 23044, Note_off_c, 9, 36, 64
11, 23044, Note_off_c, 9, 70, 64
11, 23136, Note_on_c, 9, 70, 84
11, 23140, Note_off_c, 9, 70, 64
11, 23184, Note_on_c, 9, 70, 84
11, 23188, Note_off_c, 9, 70, 64
11, 23232, Note_on_c, 9, 36, 106
11, 23232, Note_on_c, 9, 38, 127
11, 23232, Note_on_c, 9, 70, 127
11, 23236, Note_off_c, 9, 36, 64
11, 23236, Note_off_c, 9, 38, 64
11, 23236, Note_off_c, 9, 70, 64
11, 23328, Note_on_c, 9, 70, 84
11, 23332, Note_off_c, 9, 70, 64
11, 23376, Note_on_c, 9, 70, 84
11, 23380, Note_off_c, 9, 70, 64
11, 23424, Note_on_c, 9, 36, 127
11, 23424, Note_on_c, 9, 70, 127
11, 23428, Note_off_c, 9, 36, 64
11, 23428, Note_off_c, 9, 70, 64
11, 23520, Note_on_c, 9, 70, 84
11, 23524, Note_off_c, 9, 70, 64
11, 23568, Note_on_c, 9, 70, 84
11, 23572, Note_off_c, 9, 70, 64
11, 23616, Note_on_c, 9, 36, 106
11, 23616, Note_on_c, 9, 38, 127
11, 23616, Note_on_c, 9, 70, 127
11, 23620, Note_off_c, 9, 36, 64
11, 23620, Note_off_c, 9, 38, 64
11, 23620, Note_off_c, 9, 70, 64
11, 23712, Note_on_c, 9, 70, 84
11, 23716, Note_off_c, 9, 70, 64
11, 23760, Note_on_c, 9, 70, 84
11, 23764, Note_off_c, 9, 70, 64
11, 23808, Pitch_bend_c, 9, 8192
11, 23808, Control_c, 9, 1, 0
11, 23808, Program_c, 9, 0
11, 23808, Control_c, 9, 64, 0
11, 23808, Control_c, 9, 10, 64
11, 23808, Note_on_c, 9, 36, 127
11, 23808, Note_on_c, 9, 70, 127
11, 23812, Note_off_c, 9, 36, 64
11, 23812, Note_off_c, 9, 70, 64
11, 23904, Note_on_c, 9, 70, 84
11, 23908, Note_off_c, 9, 70, 64
11, 23952, Note_on_c, 9, 70, 84
11, 23956, Note_off_c, 9, 70, 64
11, 24000, Note_on_c, 9, 36, 106
11, 24000, Note_on_c, 9, 38, 127
11, 24000, Note_on_c, 9, 70, 127
11, 24004, Note_off_c, 9, 36, 64
11, 24004, Note_off_c, 9, 38, 64
11, 24004, Note_off_c, 9, 70, 64
11, 24096, Note_on_c, 9, 70, 84
11, 24100, Note_off_c, 9, 70, 64
11, 24144, Note_on_c, 9, 70, 84
11, 24148, Note_off_c, 9, 70, 64
11, 24192, Note_on_c, 9, 36, 127
11, 24192, Note_on_c, 9, 70, 127
11, 24196, Note_off_c, 9, 36, 64
11, 24196, Note_off_c, 9, 70, 64
11, 24288, Note_on_c, 9, 70, 84
11, 24292, Note_off_c, 9, 70, 64
11, 24336, Note_on_c, 9, 70, 84
11, 24340, Note_off_c, 9, 70, 64
11, 24384, Note_on_c, 9, 36, 106
11, 24384, Note_on_c, 9, 38, 127
11, 24384, Note_on_c, 9, 70, 127
11, 24388, Note_off_c, 9, 36, 64
11, 24388, Note_off_c, 9, 38, 64
11, 24388, Note_off_c, 9, 70, 64
11, 24480, Note_on_c, 9, 70, 84
11, 24484, Note_off_c, 9, 70, 64
11, 24528, Note_on_c, 9, 70, 84
11, 24532, Note_off_c, 9, 70, 64
11, 24576, Pitch_bend_c, 9, 8192
11, 24576, Control_c, 9, 1, 0
11, 24576, Program_c, 9, 0
11, 24576, Control_c, 9, 64, 0
11, 24576, Control_c, 9, 10, 64
11, 24576, Note_on_c, 9, 36, 127
11, 24576, Note_on_c, 9, 70, 127
11, 24580, Note_off_c, 9, 36, 64
11, 24580, Note_off_c, 9, 70, 64
11, 24672, Note_on_c, 9, 70, 84
11, 24676, Note_off_c, 9, 70, 64
11, 24720, Note_on_c, 9, 70, 84
11, 24724, Note_off_c, 9, 70, 64
11, 24768, Note_on_c, 9, 36, 106
11, 24768, Note_on_c, 9, 38, 127
11, 24768, Note_on_c, 9, 70, 127
11, 24772, Note_off_c, 9, 36, 64
11, 24772, Note_off_c, 9, 38, 64
11, 24772, Note_off_c, 9, 70, 64
11, 24864, Note_on_c, 9, 70, 84
11, 24868, Note_off_c, 9, 70, 64
11, 24912, Note_on_c, 9, 70, 84
11, 24916, Note_off_c, 9, 70, 64
11, 24960, Note_on_c, 9, 36, 127
11, 24960, Note_on_c, 9, 70, 127
11, 24964, Note_off_c, 9, 36, 64
11, 24964, Note_off_c, 9, 70, 64
11, 25056, Note_on_c, 9, 70, 84
11, 25060, Note_off_c, 9, 70, 64
11, 25104, Note_on_c, 9, 70, 84
11, 25108, Note_off_c, 9, 70, 64
11, 25152, Note_on_c, 9, 36, 106
11, 25152, Note_on_c, 9, 38, 127
11, 25152, Note_on_c, 9, 70, 127
11, 25156, Note_off_c, 9, 36, 64
11, 25156, Note_off_c, 9, 38, 64
11, 25156, Note_off_c, 9, 70, 64
11, 25248, Note_on_c, 9, 70, 84
11, 25252, Note_off_c, 9, 70, 64
11, 25296, Note_on_c, 9, 70, 84
11, 25300, Note_off_c, 9, 70, 64
11, 25344, Pitch_bend_c, 9, 8192
11, 25344, Control_c, 9, 1, 0
11, 25344, Program_c, 9, 0
11, 25344, Control_c, 9, 64, 0
11, 25344, Control_c, 9, 10, 64
11, 25344, Note_on_c, 9, 36, 127
11, 25344, Note_on_c, 9, 70, 127
11, 25348, Note_off_c, 9, 36, 64
11, 25348, Note_off_c, 9, 70, 64
11, 25440, Note_on_c, 9, 70, 84
11, 25444, Note_off_c, 9, 70, 64
11, 25488, Note_on_c, 9, 70, 84
11, 25492, Note_off_c, 9, 70, 64
11, 25536, Note_on_c, 9, 36, 106
11, 25536, Note_on_c, 9, 38, 127
11, 25536, Note_on_c, 9, 70, 127
11, 25540, Note_off_c, 9, 36, 64
11, 25540, Note_off_c, 9, 38, 64
11, 25540, Note_off_c, 9, 70, 64
11, 25632, Note_on_c, 9, 70, 84
11, 25636, Note_off_c, 9, 70, 64
11, 25680, Note_on_c, 9, 70, 84
11, 25684, Note_off_c, 9, 70, 64
11, 25728, Note_on_c, 9, 36, 127
11, 25728, Note_on_c, 9, 70, 127
11, 25732, Note_off_c, 9, 36, 64
11, 25732, Note_off_c, 9, 70, 64
11, 25824, Note_on_c, 9, 70, 84
11, 25828, Note_off_c, 9, 70, 64
11, 25872, Note_on_c, 9, 70, 84
11, 25876, Note_off_c, 9, 70, 64
11, 25920, Note_on_c, 9, 36, 106
11, 25920, Note_on_c, 9, 38, 127
11, 25920, Note_on_c, 9, 70, 127
11, 25924, Note_off_c, 9, 36, 64
11, 25924, Note_off_c, 9, 38, 64
11, 25924, Note_off_c, 9, 70, 64
11, 26016, Note_on_c, 9, 70, 84
11, 26020, Note_off_c, 9, 70, 64
11, 26064, Note_on_c, 9, 70, 84
11, 26068, Note_off_c, 9, 70, 64
11, 26112, Pitch_bend_c, 9, 8192
11, 26112, Control_c, 9, 1, 0
11, 26112, Program_c, 9, 0
11, 26112, Control_c, 9, 64, 0
11, 26112, Control_c, 9, 10, 64
11, 26112, Note_on_c, 9, 36, 127
11, 26112, Note_on_c, 9, 70, 127
11, 26116, Note_off_c, 9, 36, 64
11, 26116, Note_off_c, 9, 70, 64
11, 26208, Note_on_c, 9, 70, 84
11, 26212, Note_off_c, 9, 70, 64
11, 26256, Note_on_c, 9, 70, 84
11, 26260, Note_off_c, 9, 70, 64
11, 26304, Note_on_c, 9, 36, 106
11, 26304, Note_on_c, 9, 38, 127
11, 26304, Note_on_c, 9, 70, 127
11, 26308, Note_off_c, 9, 36, 64
11, 26308, Note_off_c, 9, 38, 64
11, 26308, Note_off_c, 9, 70, 64
11, 26400, Note_on_c, 9, 70, 84
11, 26404, Note_off_c, 9, 70, 64
11, 26448, Note_on_c, 9, 70, 84
11, 26452, Note_off_c, 9, 70, 64
11, 26496, Note_on_c, 9, 36, 127
11, 26496, Note_on_c, 9, 70, 127
11, 26500, Note_off_c, 9, 36, 64
11, 26500, Note_off_c, 9, 70, 64
11, 26592, Note_on_c, 9, 70, 84
11, 26596, Note_off_c, 9, 70, 64
11, 26640, Note_on_c, 9, 70, 84
11, 26644, Note_off_c, 9, 70, 64
11, 26688, Note_on_c, 9, 36, 106
11, 26688, Note_on_c, 9, 38, 127
11, 26688, Note_on_c, 9, 70, 127
11, 26692, Note_off_c, 9, 36, 64
11, 26692, Note_off_c, 9, 38, 64
11, 26692, Note_off_c, 9, 70, 64
11, 26784, Note_on_c, 9, 70, 84
11, 26788, Note_off_c, 9, 70, 64
11, 26832, Note_on_c, 9, 70, 84
11, 26836, Note_off_c, 9, 70, 64
11, 26880, Pitch_bend_c, 9, 8192
11, 26880, Control_c, 9, 1, 0
11, 26880, Program_c, 9, 0
11, 26880, Control_c, 9, 64, 0
11, 26880, Control_c, 9, 10, 64
11, 26880, Note_on_c, 9, 36, 127
11, 26880, Note_on_c, 9, 70, 127
11, 26884, Note_off_c, 9, 36, 64
11, 26884, Note_off_c, 9, 70, 64
11, 26976, Note_on_c, 9, 70, 84
11, 26980, Note_off_c, 9, 70, 64
11, 27024, Note_on_c, 9, 70, 84
11, 27028, Note_off_c, 9, 70, 64
11, 27072, Note_on_c, 9, 36, 106
11, 27072, Note_on_c, 9, 38, 127
11, 27072, Note_on_c, 9, 70, 127
11, 27076, Note_off_c, 9, 36, 64
11, 27076, Note_off_c, 9, 38, 64
11, 27076, Note_off_c, 9, 70, 64
11, 27168, Note_on_c, 9, 70, 84
11, 27172, Note_off_c, 9, 70, 64
11, 27216, Note_on_c, 9, 70, 84
11, 27220, Note_off_c, 9, 70, 64
11, 27264, Note_on_c, 9, 36, 127
11, 27264, Note_on_c, 9, 70, 127
11, 27268, Note_off_c, 9, 36, 64
11, 27268, Note_off_c, 9, 70, 64
11, 27360, Note_on_c, 9, 70, 84
11, 27364, Note_off_c, 9, 70, 64
11, 27408, Note_on_c, 9, 70, 84
11, 27412, Note_off_c, 9, 70, 64
11, 27456, Note_on_c, 9, 36, 106
11, 27456, Note_on_c, 9, 38, 127
11, 27456, Note_on_c, 9, 70, 127
11, 27460, Note_off_c, 9, 36, 64
11, 27460, Note_off_c, 9, 38, 64
11, 27460, Note_off_c, 9, 70, 64
11, 27552, Note_on_c, 9, 70, 84
11, 27556, Note_off_c, 9, 70, 64
11, 27600, Note_on_c, 9, 70, 84
11, 27604, Note_off_c, 9, 70, 64
11, 27648, Pitch_bend_c, 9, 8192
11, 27648, Control_c, 9, 1, 0
11, 27648, Program_c, 9, 0
11, 27648, Control_c, 9, 64, 0
11, 27648, Control_c, 9, 10, 64
11, 27648, Note_on_c, 9, 36, 127
11, 27648, Note_on_c, 9, 70, 127
11, 27652, Note_off_c, 9, 36, 64
11, 27652, Note_off_c, 9, 70, 64
11, 27744, Note_on_c, 9, 70, 84
11, 27748, Note_off_c, 9, 70, 64
11, 27792, Note_on_c, 9, 70, 84
11, 27796, Note_off_c, 9, 70, 64
11, 27840, Note_on_c, 9, 36, 106
11, 27840, Note_on_c, 9, 38, 127
11, 27840, Note_on_c, 9, 70, 127
11, 27844, Note_off_c, 9, 36, 64
11, 27844, Note_off_c, 9, 38, 64
11, 27844, Note_off_c, 9, 70, 64
11, 27936, Note_on_c, 9, 70, 84
11, 27940, Note_off_c, 9, 70, 64
11, 27984, Note_on_c, 9, 70, 84
11, 27988, Note_off_c, 9, 70, 64
11, 28032, Note_on_c, 9, 36, 127
11, 28032, Note_on_c, 9, 70, 127
11, 28036, Note_off_c, 9, 36, 64
11, 28036, Note_off_c, 9, 70, 64
11, 28128, Note_on_c, 9, 70, 84
11, 28132, Note_off_c, 9, 70, 64
11, 28176, Note_on_c, 9, 70, 84
11, 28180, Note_off_c, 9, 70, 64
11, 28224, Note_on_c, 9, 36, 106
11, 28224, Note_on_c, 9, 38, 127
11, 28224, Note_on_c, 9, 70, 127
11, 28228, Note_off_c, 9, 36, 64
11, 28228, Note_off_c, 9, 38, 64
11, 28228, Note_off_c, 9, 70, 64
11, 28320, Note_on_c, 9, 70, 84
11, 28324, Note_off_c, 9, 70, 64
11, 28368, Note_on_c, 9, 70, 84
11, 28372, Note_off_c, 9, 70, 64
11, 28416, Pitch_bend_c, 9, 8192
11, 28416, Control_c, 9, 1, 0
11, 28416, Program_c, 9, 0
11, 28416, Control_c, 9, 64, 0
11, 28416, Control_c, 9, 10, 64
11, 28416, Note_on_c, 9, 36, 127
11, 28416, Note_on_c, 9, 70, 127
11, 28420, Note_off_c, 9, 36, 64
11, 28420, Note_off_c, 9, 70, 64
11, 28512, Note_on_c, 9, 70, 84
11, 28516, Note_off_c, 9, 70, 64
11, 28560, Note_on_c, 9, 70, 84
11, 28564, Note_off_c, 9, 70, 64
11, 28608, Note_on_c, 9, 36, 106
11, 28608, Note_on_c, 9, 38, 127
11, 28608, Note_on_c, 9, 70, 127
11, 28612, Note_off_c, 9, 36, 64
11, 28612, Note_off_c, 9, 38, 64
11, 28612, Note_off_c, 9, 70, 64
11, 28704, Note_on_c, 9, 70, 84
11, 28708, Note_off_c, 9, 70, 64
11, 28752, Note_on_c, 9, 70, 84
11, 28756, Note_off_c, 9, 70, 64
11, 28800, Note_on_c, 9, 36, 127
11, 28800, Note_on_c, 9, 70, 127
11, 28804, Note_off_c, 9, 36, 64
11, 28804, Note_off_c, 9, 70, 64
11, 28896, Note_on_c, 9, 70, 84
11, 28900, Note_off_c, 9, 70, 64
11, 28944, Note_on_c, 9, 70, 84
11, 28948, Note_off_c, 9, 70, 64
11, 28992, Note_on_c, 9, 36, 106
11, 28992, Note_on_c, 9, 38, 127
11, 28992, Note_on_c, 9, 70, 127
11, 28996, Note_off_c, 9, 36, 64
11, 28996, Note_off_c, 9, 38, 64
11, 28996, Note_off_c, 9, 70, 64
11, 29088, Note_on_c, 9, 70, 84
11, 29092, Note_off_c, 9, 70, 64
11, 29136, Note_on_c, 9, 70, 84
11, 29140, Note_off_c, 9, 70, 64
11, 29184, Pitch_bend_c, 9, 8192
11, 29184, Control_c, 9, 1, 0
11, 29184, Program_c, 9, 0
11, 29184, Control_c, 9, 64, 0
11, 29184, Control_c, 9, 10, 64
11, 29184, Note_on_c, 9, 36, 127
11, 29184, Note_on_c, 9, 70, 127
11, 29188, Note_off_c, 9, 36, 64
11, 29188, Note_off_c, 9, 70, 64
11, 29280, Note_on_c, 9, 70, 84
11, 29284, Note_off_c, 9, 70, 64
11, 29328, Note_on_c, 9, 70, 84
11, 29332, Note_off_c, 9, 70, 64
11, 29376, Note_on_c, 9, 36, 106
11, 29376, Note_on_c, 9, 38, 127
11, 29376, Note_on_c, 9, 70, 127
11, 29380, Note_off_c, 9, 36, 64
11, 29380, Note_off_c, 9, 38, 64
11, 29380, Note_off_c, 9, 70, 64
11, 29472, Note_on_c, 9, 70, 84
11, 29476, Note_off_c, 9, 70, 64
11, 29520, Note_on_c, 9, 70, 84
11, 29524, Note_off_c, 9, 70, 64
11, 29568, Note_on_c, 9, 36, 127
11, 29568, Note_on_c, 9, 70, 127
11, 29572, Note_off_c, 9, 36, 64
11, 29572, Note_off_c, 9, 70, 64
11, 29664, Note_on_c, 9, 70, 84
11, 29668, Note_off_c, 9, 70, 64
11, 29712, Note_on_c, 9, 70, 84
11, 29716, Note_off_c, 9, 70, 64
11, 29760, Note_on_c, 9, 36, 106
11, 29760, Note_on_c, 9, 38, 127
11, 29760, Note_on_c, 9, 70, 127
11, 29764, Note_off_c, 9, 36, 64
11, 29764, Note_off_c, 9, 38, 64
11, 29764, Note_off_c, 9, 70, 64
11, 29856, Note_on_c, 9, 70, 84
11, 29860, Note_off_c, 9, 70, 64
11, 29904, Note_on_c, 9, 70, 84
11, 29908, Note_off_c, 9, 70, 64
11, 29952, Pitch_bend_c, 9, 8192
11, 29952, Control_c, 9, 1, 0
11, 29952, Program_c, 9, 0
11, 29952, Control_c, 9, 64, 0
11, 29952, Control_c, 9, 10, 64
11, 29952, Note_on_c, 9, 36, 127
11, 29952, Note_on_c, 9, 70, 127
11, 29956, Note_off_c, 9, 36, 64
11, 29956, Note_off_c, 9, 70, 64
11, 30048, Note_on_c, 9, 70, 84
11, 30052, Note_off_c, 9, 70, 64
11, 30096, Note_on_c, 9, 70, 84
11, 30100, Note_off_c, 9, 70, 64
11, 30144, Note_on_c, 9, 36, 106
11, 30144, Note_on_c, 9, 38, 127
11, 30144, Note_on_c, 9, 70, 127
11, 30148, Note_off_c, 9, 36, 64
11, 30148, Note_off_c, 9, 38, 64
11, 30148, Note_off_c, 9, 70, 64
11, 30240, Note_on_c, 9, 70, 84
11, 30244, Note_off_c, 9, 70, 64
11, 30288, Note_on_c, 9, 70, 84
11, 30292, Note_off_c, 9, 70, 64
11, 30336, Note_on_c, 9, 36, 127
11, 30336, Note_on_c, 9, 70, 127
11, 30340, Note_off_c, 9, 36, 64
11, 30340, Note_off_c, 9, 70, 64
11, 30432, Note_on_c, 9, 70, 84
11, 30436, Note_off_c, 9, 70, 64
11, 30480, Note_on_c, 9, 70, 84
11, 30484, Note_off_c, 9, 70, 64
11, 30528, Note_on_c, 9, 36, 106
11, 30528, Note_on_c, 9, 38, 127
11, 30528, Note_on_c, 9, 70, 127
11, 30532, Note_off_c, 9, 36, 64
11, 30532, Note_off_c, 9, 38, 64
11, 30532, Note_off_c, 9, 70, 64
11, 30624, Note_on_c, 9, 70, 84
11, 30628, Note_off_c, 9, 70, 64
11, 30672, Note_on_c, 9, 70, 84
11, 30676, Note_off_c, 9, 70, 64
11, 30720, Pitch_bend_c, 9, 8192
11, 30720, Control_c, 9, 1, 0
11, 30720, Program_c, 9, 0
11, 30720, Control_c, 9, 64, 0
11, 30720, Control_c, 9, 10, 64
11, 30720, Note_on_c, 9, 36, 127
11, 30720, Note_on_c, 9, 70, 127
11, 30724, Note_off_c, 9, 36, 64
11, 30724, Note_off_c, 9, 70, 64
11, 30816, Note_on_c, 9, 70, 84
11, 30820, Note_off_c, 9, 70, 64
11, 30864, Note_on_c, 9, 70, 84
11, 30868, Note_off_c, 9, 70, 64
11, 30912, Note_on_c, 9, 36, 106
11, 30912, Note_on_c, 9, 38, 127
11, 30912, Note_on_c, 9, 70, 127
11, 30916, Note_off_c, 9, 36, 64
11, 30916, Note_off_c, 9, 38, 64
11, 30916, Note_off_c, 9, 70, 64
11, 31008, Note_on_c, 9, 70, 84
11, 31012, Note_off_c, 9, 70, 64
11, 31056, Note_on_c, 9, 70, 84
11, 31060, Note_off_c, 9, 70, 64
11, 31104, Note_on_c, 9, 36, 127
11, 31104, Note_on_c, 9, 70, 127
11, 31108, Note_off_c, 9, 36, 64
11, 31108, Note_off_c, 9, 70, 64
11, 31200, Note_on_c, 9, 70, 84
11, 31204, Note_off_c, 9, 70, 64
11, 31248, Note_on_c, 9, 70, 84
11, 31252, Note_off_c, 9, 70, 64
11, 31296, Note_on_c, 9, 36, 106
11, 31296, Note_on_c, 9, 38, 127
11, 31296, Note_on_c, 9, 70, 127
11, 31300, Note_off_c, 9, 36, 64
11, 31300, Note_off_c, 9, 38, 64
11, 31300, Note_off_c, 9, 70, 64
11, 31392, Note_on_c, 9, 36, 127
11, 31392, Note_on_c, 9, 70, 84
11, 31396, Note_off_c, 9, 36, 64
11, 31396, Note_off_c, 9, 70, 64
11, 31440, Note_on_c, 9, 70, 84
11, 31444, Note_off_c, 9, 70, 64
11, 31488, Pitch_bend_c, 9, 8192
11, 31488, Control_c, 9, 1, 0
11, 31488, Program_c, 9, 0
11, 31488, Control_c, 9, 64, 0
11, 31488, Control_c, 9, 10, 64
11, 31488, Note_on_c, 9, 36, 127
11, 31488, Note_on_c, 9, 49, 106
11, 31488, Note_on_c, 9, 70, 127
11, 31492, Note_off_c, 9, 36, 64
11, 31492, Note_off_c, 9, 49, 64
11, 31492, Note_off_c, 9, 70, 64
11, 31584, Note_on_c, 9, 70, 84
11, 31588, Note_off_c, 9, 70, 64
11, 31632, Note_on_c, 9, 70, 84
11, 31636, Note_off_c, 9, 70, 64
11, 31680, Note_on_c, 9, 36, 106
11, 31680, Note_on_c, 9, 38, 127
11, 31680, Note_on_c, 9, 70, 127
11, 31684, Note_off_c, 9, 36, 64
11, 31684, Note_off_c, 9, 38, 64
11, 31684, Note_off_c, 9, 70, 64
11, 31776, Note_on_c, 9, 70, 84
11, 31780, Note_off_c, 9, 70, 64
11, 31824, Note_on_c, 9, 70, 84
11, 31828, Note_off_c, 9, 70, 64
11, 31872, Note_on_c, 9, 36, 127
11, 31872, Note_on_c, 9, 70, 127
11, 31876, Note_off_c, 9, 36, 64
11, 31876, Note_off_c, 9, 70, 64
11, 31968, Note_on_c, 9, 70, 84
11, 31972, Note_off_c, 9, 70, 64
11, 32016, Note_on_c, 9, 70, 84
11, 32020, Note_off_c, 9, 70, 64
11, 32064, Note_on_c, 9, 36, 106
11, 32064, Note_on_c, 9, 38, 127
11, 32064, Note_on_c, 9, 70, 127
11, 32068, Note_off_c, 9, 36, 64
11, 32068, Note_off_c, 9, 38, 64
11, 32068, Note_off_c, 9, 70, 64
11, 32160, Note_on_c, 9, 70, 84
11, 32164, Note_off_c, 9, 70, 64
11, 32208, Note_on_c, 9, 70, 84
11, 32212, Note_off_c, 9, 70, 64
11, 32256, Pitch_bend_c, 9, 8192
11, 32256, Control_c, 9, 1, 0
11, 32256, Program_c, 9, 0
11, 32256, Control_c, 9, 64, 0
11, 32256, Control_c, 9, 10, 64
11, 32256, Note_on_c, 9, 36, 127
11, 32256, Note_on_c, 9, 70, 127
11, 32260, Note_off_c, 9, 36, 64
11, 32260, Note_off_c, 9, 70, 64
11, 32352, Note_on_c, 9, 70, 84
11, 32356, Note_off_c, 9, 70, 64
11, 32400, Note_on_c, 9, 70, 84
11, 32404, Note_off_c, 9, 70, 64
11, 32448, Note_on_c, 9, 36, 106
11, 32448, Note_on_c, 9, 38, 127
11, 32448, Note_on_c, 9, 70, 127
11, 32452, Note_off_c, 9, 36, 64
11, 32452, Note_off_c, 9, 38, 64
11, 32452, Note_off_c, 9, 70, 64
11, 32544, Note_on_c, 9, 70, 84
11, 32548, Note_off_c, 9, 70, 64
11, 32592, Note_on_c, 9, 70, 84
11, 32596, Note_off_c, 9, 70, 64
11, 32640, Note_on_c, 9, 36, 127
11, 32640, Note_on_c, 9, 70, 127
11, 32644, Note_off_c, 9, 36, 64
11, 32644, Note_off_c, 9, 70, 64
11, 32736, Note_on_c, 9, 70, 84
11, 32740, Note_off_c, 9, 70, 64
11, 32784, Note_on_c, 9, 70, 84
11, 32788, Note_off_c, 9, 70, 64
11, 32832, Note_on_c, 9, 36, 106
11, 32832, Note_on_c, 9, 38, 127
11, 32832, Note_on_c, 9, 70, 127
11, 32836, Note_off_c, 9, 36, 64
11, 32836, Note_off_c, 9, 38, 64
11, 32836, Note_off_c, 9, 70, 64
11, 32928, Note_on_c, 9, 70, 84
11, 32932, Note_off_c, 9, 70, 64
11, 32976, Note_on_c, 9, 70, 84
11, 32980, Note_off_c, 9, 70, 64
11, 33024, Pitch_bend_c, 9, 8192
11, 33024, Control_c, 9, 1, 0
11, 33024, Program_c, 9, 0
11, 33024, Control_c, 9, 64, 0
11, 33024, Control_c, 9, 10, 64
11, 33024, Note_on_c, 9, 36, 127
11, 33024, Note_on_c, 9, 70, 127
11, 33028, Note_off_c, 9, 36, 64
11, 33028, Note_off_c, 9, 70, 64
11, 33120, Note_on_c, 9, 70, 84
11, 33124, Note_off_c, 9, 70, 64
11, 33168, Note_on_c, 9, 70, 84
11, 33172, Note_off_c, 9, 70, 64
11, 33216, Note_on_c, 9, 36, 106
11, 33216, Note_on_c, 9, 38, 127
11, 33216, Note_on_c, 9, 70, 127
11, 33220, Note_off_c, 9, 36, 64
11, 33220, Note_off_c, 9, 38, 64
11, 33220, Note_off_c, 9, 70, 64
11, 33312, Note_on_c, 9, 70, 84
11, 33316, Note_off_c, 9, 70, 64
11, 33360, Note_on_c, 9, 70, 84
11, 33364, Note_off_c, 9, 70, 64
11, 33408, Note_on_c, 9, 36, 127
11, 33408, Note_on_c, 9, 70, 127
11, 33412, Note_off_c, 9, 36, 64
11, 33412, Note_off_c, 9, 70, 64
11, 33504, Note_on_c, 9, 70, 84
11, 33508, Note_off_c, 9, 70, 64
11, 33552, Note_on_c, 9, 70, 84
11, 33556, Note_off_c, 9, 70, 64
11, 33600, Note_on_c, 9, 36, 106
11, 33600, Note_on_c, 9, 38, 127
11, 33600, Note_on_c, 9, 70, 127
11, 33604, Note_off_c, 9, 36, 64
11, 33604, Note_off_c, 9, 38, 64
11, 33604, Note_off_c, 9, 70, 64
11, 33696, Note_on_c, 9, 70, 84
11, 33700, Note_off_c, 9, 70, 64
11, 33744, Note_on_c, 9, 70, 84
11, 33748, Note_off_c, 9, 70, 64
11, 33792, Pitch_bend_c, 9, 8192
11, 33792, Control_c, 9, 1, 0
11, 33792, Program_c, 9, 0
11, 33792, Control_c, 9, 64, 0
11, 33792, Control_c, 9, 10, 64
11, 33792, Note_on_c, 9, 36, 127
11, 33792, Note_on_c, 9, 70, 127
11, 33796, Note_off_c, 9, 36, 64
11, 33796, Note_off_c, 9, 70, 64
11, 33888, Note_on_c, 9, 70, 84
11, 33892, Note_off_c, 9, 70, 64
11, 33936, Note_on_c, 9, 70, 84
11, 33940, Note_off_c, 9, 70, 64
11, 33984, Note_on_c, 9, 36, 106
11, 33984, Note_on_c, 9, 38, 127
11, 33984, Note_on_c, 9, 70, 127
11, 33988, Note_off_c, 9, 36, 64
11, 33988, Note_off_c, 9, 38, 64
11, 33988, Note_off_c, 9, 70, 64
11, 34080, Note_on_c, 9, 70, 84
11, 34084, Note_off_c, 9, 70, 64
11, 34128, Note_on_c, 9, 70, 84
11, 34132, Note_off_c, 9, 70, 64
11, 34176, Note_on_c, 9, 36, 127
11, 34176, Note_on_c, 9, 70, 127
11, 34180, Note_off_c, 9, 36, 64
11, 34180, Note_off_c, 9, 70, 64
11, 34272, Note_on_c, 9, 70, 84
11, 34276, Note_off_c, 9, 70, 64
11, 34320, Note_on_c, 9, 70, 84
11, 34324, Note_off_c, 9, 70, 64
11, 34368, Note_on_c, 9, 36, 106
11, 34368, Note_on_c, 9, 38, 127
11, 34368, Note_on_c, 9, 70, 127
11, 34372, Note_off_c, 9, 36, 64
11, 34372, Note_off_c, 9, 38, 64
11, 34372, Note_off_c, 9, 70, 64
11, 34464, Note_on_c, 9, 70, 84
11, 34468, Note_off_c, 9, 70, 64
11, 34512, Note_on_c, 9, 70, 84
11, 34516, Note_off_c, 9, 70, 64
11, 34560, Pitch_bend_c, 9, 8192
11, 34560, Control_c, 9, 1, 0
11, 34560, Program_c, 9, 0
11, 34560, Control_c, 9, 64, 0
11, 34560, Control_c, 9, 10, 64
11, 34560, Note_on_c, 9, 36, 127
11, 34560, Note_on_c, 9, 70, 127
11, 34564, Note_off_c, 9, 36, 64
11, 34564, Note_off_c, 9, 70, 64
11, 34656, Note_on_c, 9, 70, 84
11, 34660, Note_off_c, 9, 70, 64
11, 34704, Note_on_c, 9, 70, 84
11, 34708, Note_off_c, 9, 70, 64
11, 34752, Note_on_c, 9, 36, 106
11, 34752, Note_on_c, 9, 38, 127
11, 34752, Note_on_c, 9, 70, 127
11, 34756, Note_off_c, 9, 36, 64
11, 34756, Note_off_c, 9, 38, 64
11, 34756, Note_off_c, 9, 70, 64
11, 34848, Note_on_c, 9, 70, 84
11, 34852, Note_off_c, 9, 70, 64
11, 34896, Note_on_c, 9, 70, 84
11, 34900, Note_off_c, 9, 70, 64
11, 34944, Note_on_c, 9, 36, 127
11, 34944, Note_on_c, 9, 70, 127
11, 34948, Note_off_c, 9, 36, 64
11, 34948, Note_off_c, 9, 70, 64
11, 35040, Note_on_c, 9, 70, 84
11, 35044, Note_off_c, 9, 70, 64
11, 35088, Note_on_c, 9, 70, 84
11, 35092, Note_off_c, 9, 70, 64
11, 35136, Note_on_c, 9, 36, 106
11, 35136, Note_on_c, 9, 38, 127
11, 35136, Note_on_c, 9, 70, 127
11, 35140, Note_off_c, 9, 36, 64
11, 35140, Note_off_c, 9, 38, 64
11, 35140, Note_off_c, 9, 70, 64
11, 35232, Note_on_c, 9, 70, 84
11, 35236, Note_off_c, 9, 70, 64
11, 35280, Note_on_c, 9, 70, 84
11, 35284, Note_off_c, 9, 70, 64
11, 35328, Pitch_bend_c, 9, 8192
11, 35328, Control_c, 9, 1, 0
11, 35328, Program_c, 9, 0
11, 35328, Control_c, 9, 64, 0
11, 35328, Control_c, 9, 10, 64
11, 35328, Note_on_c, 9, 36, 127
11, 35328, Note_on_c, 9, 70, 127
11, 35332, Note_off_c, 9, 36, 64
11, 35332, Note_off_c, 9, 70, 64
11, 35424, Note_on_c, 9, 70, 84
11, 35428, Note_off_c, 9, 70, 64
11, 35472, Note_on_c, 9, 70, 84
11, 35476, Note_off_c, 9, 70, 64
11, 35520, Note_on_c, 9, 36, 106
11, 35520, Note_on_c, 9, 38, 127
11, 35520, Note_on_c, 9, 70, 127
11, 35524, Note_off_c, 9, 36, 64
11, 35524, Note_off_c, 9, 38, 64
11, 35524, Note_off_c, 9, 70, 64
11, 35616, Note_on_c, 9, 70, 84
11, 35620, Note_off_c, 9, 70, 64
11, 35664, Note_on_c, 9, 70, 84
11, 35668, Note_off_c, 9, 70, 64
11, 35712, Note_on_c, 9, 36, 127
11, 35712, Note_on_c, 9, 70, 127
11, 35716, Note_off_c, 9, 36, 64
11, 35716, Note_off_c, 9, 70, 64
11, 35808, Note_on_c, 9, 70, 84
11, 35812, Note_off_c, 9, 70, 64
11, 35856, Note_on_c, 9, 70, 84
11, 35860, Note_off_c, 9, 70, 64
11, 35904, Note_on_c, 9, 36, 106
11, 35904, Note_on_c, 9, 38, 127
11, 35904, Note_on_c, 9, 70, 127
11, 35908, Note_off_c, 9, 36, 64
11, 35908, Note_off_c, 9, 38, 64
11, 35908, Note_off_c, 9, 70, 64
11, 36000, Note_on_c, 9, 70, 84
11, 36004, Note_off_c, 9, 70, 64
11, 36048, Note_on_c, 9, 70, 84
11, 36052, Note_off_c, 9, 70, 64
11, 36096, Pitch_bend_c, 9, 8192
11, 36096, Control_c, 9, 1, 0
11, 36096, Program_c, 9, 0
11, 36096, Control_c, 9, 64, 0
11, 36096, Control_c, 9, 10, 64
11, 36096, Note_on_c, 9, 36, 127
11, 36096, Note_on_c, 9, 70, 127
11, 36100, Note_off_c, 9, 36, 64
11, 36100, Note_off_c, 9, 70, 64
11, 36192, Note_on_c, 9, 70, 84
11, 36196, Note_off_c, 9, 70, 64
11, 36240, Note_on_c, 9, 70, 84
11, 36244, Note_off_c, 9, 70, 64
11, 36288, Note_on_c, 9, 36, 106
11, 36288, Note_on_c, 9, 38, 127
11, 36288, Note_on_c, 9, 70, 127
11, 36292, Note_off_c, 9, 36, 64
11, 36292, Note_off_c, 9, 38, 64
11, 36292, Note_off_c, 9, 70, 64
11, 36384, Note_on_c, 9, 70, 84
11, 36388, Note_off_c, 9, 70, 64
11, 36432, Note_on_c, 9, 70, 84
11, 36436, Note_off_c, 9, 70, 64
11, 36480, Note_on_c, 9, 36, 127
11, 36480, Note_on_c, 9, 70, 127
11, 36484, Note_off_c, 9, 36, 64
11, 36484, Note_off_c, 9, 70, 64
11, 36576, Note_on_c, 9, 70, 84
11, 36580, Note_off_c, 9, 70, 64
11, 36624, Note_on_c, 9, 70, 84
11, 36628, Note_off_c, 9, 70, 64
11, 36672, Note_on_c, 9, 36, 106
11, 36672, Note_on_c, 9, 38, 127
11, 36672, Note_on_c, 9, 70, 127
11, 36676, Note_off_c, 9, 36, 64
11, 36676, Note_off_c, 9, 38, 64
11, 36676, Note_off_c, 9, 70, 64
11, 36768, Note_on_c, 9, 70, 84
11, 36772, Note_off_c, 9, 70, 64
11, 36816, Note_on_c, 9, 70, 84
11, 36820, Note_off_c, 9, 70, 64
11, 36864, Pitch_bend_c, 9, 8192
11, 36864, Control_c, 9, 1, 0
11, 36864, Program_c, 9, 0
11, 36864, Control_c, 9, 64, 0
11, 36864, Control_c, 9, 10, 64
11, 36864, Note_on_c, 9, 36, 127
11, 36864, Note_on_c, 9, 70, 127
11, 36868, Note_off_c, 9, 36, 64
11, 36868, Note_off_c, 9, 70, 64
11, 36960, Note_on_c, 9, 70, 84
11, 36964, Note_off_c, 9, 70, 64
11, 37008, Note_on_c, 9, 70, 84
11, 37012, Note_off_c, 9, 70, 64
11, 37056, Note_on_c, 9, 36, 106
11, 37056, Note_on_c, 9, 38, 127
11, 37056, Note_on_c, 9, 70, 127
11, 37060, Note_off_c, 9, 36, 64
11, 37060, Note_off_c, 9, 38, 64
11, 37060, Note_off_c, 9, 70, 64
11, 37152, Note_on_c, 9, 70, 84
11, 37156, Note_off_c, 9, 70, 64
11, 37200, Note_on_c, 9, 70, 84
11, 37204, Note_off_c, 9, 70, 64
11, 37248, Note_on_c, 9, 36, 127
11, 37248, Note_on_c, 9, 70, 127
11, 37252, Note_off_c, 9, 36, 64
11, 37252, Note_off_c, 9, 70, 64
11, 37344, Note_on_c, 9, 70, 84
11, 37348, Note_off_c, 9, 70, 64
11, 37392, Note_on_c, 9, 70, 84
11, 37396, Note_off_c, 9, 70, 64
11, 37440, Note_on_c, 9, 36, 106
11, 37440, Note_on_c, 9, 38, 127
11, 37440, Note_on_c, 9, 70, 127
11, 37444, Note_off_c, 9, 36, 64
11, 37444, Note_off_c, 9, 38, 64
11, 37444, Note_off_c, 9, 70, 64
11, 37536, Note_on_c, 9, 36, 127
11, 37536, Note_on_c, 9, 70, 84
11, 37540, Note_off_c, 9, 36, 64
11, 37540, Note_off_c, 9, 70, 64
11, 37584, Note_on_c, 9, 70, 84
11, 37588, Note_off_c, 9, 70, 64
11, 37632, Pitch_bend_c, 9, 8192
11, 37632, Control_c, 9, 1, 0
11, 37632, Program_c, 9, 0
11, 37632, Control_c, 9, 64, 0
11, 37632, Control_c, 9, 10, 64
11, 37632, Note_on_c, 9, 36, 127
11, 37632, Note_on_c, 9, 49, 106
11, 37632, Note_on_c, 9, 70, 127
11, 37636, Note_off_c, 9, 36, 64
11, 37636, Note_off_c, 9, 49, 64
11, 37636, Note_off_c, 9, 70, 64
11, 37728, Note_on_c, 9, 70, 84
11, 37732, Note_off_c, 9, 70, 64
11, 37776, Note_on_c, 9, 70, 84
11, 37780, Note_off_c, 9, 70, 64
11, 37824, Note_on_c, 9, 36, 106
11, 37824, Note_on_c, 9, 38, 127
11, 37824, Note_on_c, 9, 70, 127
11, 37828, Note_off_c, 9, 36, 64
11, 37828, Note_off_c, 9, 38, 64
11, 37828, Note_off_c, 9, 70, 64
11, 37920, Note_on_c, 9, 70, 84
11, 37924, Note_off_c, 9, 70, 64
11, 37968, Note_on_c, 9, 70, 84
11, 37972, Note_off_c, 9, 70, 64
11, 38016, Note_on_c, 9, 36, 127
11, 38016, Note_on_c, 9, 70, 127
11, 38020, Note_off_c, 9, 36, 64
11, 38020, Note_off_c, 9, 70, 64
11, 38112, Note_on_c, 9, 70, 84
11, 38116, Note_off_c, 9, 70, 64
11, 38160, Note_on_c, 9, 70, 84
11, 38164, Note_off_c, 9, 70, 64
11, 38208, Note_on_c, 9, 36, 106
11, 38208, Note_on_c, 9, 38, 127
11, 38208, Note_on_c, 9, 70, 127
11, 38212, Note_off_c, 9, 36, 64
11, 38212, Note_off_c, 9, 38, 64
11, 38212, Note_off_c, 9, 70, 64
11, 38304, Note_on_c, 9, 70, 84
11, 38308, Note_off_c, 9, 70, 64
11, 38352, Note_on_c, 9, 70, 84
11, 38356, Note_off_c, 9, 70, 64
11, 38400, Pitch_bend_c, 9, 8192
11, 38400, Control_c, 9, 1, 0
11, 38400, Program_c, 9, 0
11, 38400, Control_c, 9, 64, 0
11, 38400, Control_c, 9, 10, 64
11, 38400, Note_on_c, 9, 36, 127
11, 38400, Note_on_c, 9, 70, 127
11, 38404, Note_off_c, 9, 36, 64
11, 38404, Note_off_c, 9, 70, 64
11, 38496, Note_on_c, 9, 70, 84
11, 38500, Note_off_c, 9, 70, 64
11, 38544, Note_on_c, 9, 70, 84
11, 38548, Note_off_c, 9, 70, 64
11, 38592, Note_on_c, 9, 36, 106
11, 38592, Note_on_c, 9, 38, 127
11, 38592, Note_on_c, 9, 70, 127
11, 38596, Note_off_c, 9, 36, 64
11, 38596, Note_off_c, 9, 38, 64
11, 38596, Note_off_c, 9, 70, 64
11, 38688, Note_on_c, 9, 70, 84
11, 38692, Note_off_c, 9, 70, 64
11, 38736, Note_on_c, 9, 70, 84
11, 38740, Note_off_c, 9, 70, 64
11, 38784, Note_on_c, 9, 36, 127
11, 38784, Note_on_c, 9, 70, 127
11, 38788, Note_off_c, 9, 36, 64
11, 38788, Note_off_c, 9, 70, 64
11, 38880, Note_on_c, 9, 70, 84
11, 38884, Note_off_c, 9, 70, 64
11, 38928, Note_on_c, 9, 70, 84
11, 38932, Note_off_c, 9, 70, 64
11, 38976, Note_on_c, 9, 36, 106
11, 38976, Note_on_c, 9, 38, 127
11, 38976, Note_on_c, 9, 70, 127
11, 38980, Note_off_c, 9, 36, 64
11, 38980, Note_off_c, 9, 38, 64
11, 38980, Note_off_c, 9, 70, 64
11, 39072, Note_on_c, 9, 70, 84
11, 39076, Note_off_c, 9, 70, 64
11, 39120, Note_on_c, 9, 70, 84
11, 39124, Note_off_c, 9, 70, 64
11, 39168, Pitch_bend_c, 9, 8192
11, 39168, Control_c, 9, 1, 0
11, 39168, Program_c, 9, 0
11, 39168, Control_c, 9, 64, 0
11, 39168, Control_c, 9, 10, 64
11, 39168, Note_on_c, 9, 36, 127
11, 39168, Note_on_c, 9, 70, 127
11, 39172, Note_off_c, 9, 36, 64
11, 39172, Note_off_c, 9, 70, 64
11, 39264, Note_on_c, 9, 70, 84
11, 39268, Note_off_c, 9, 70, 64
11, 39312, Note_on_c, 9, 70, 84
11, 39316, Note_off_c, 9, 70, 64
11, 39360, Note_on_c, 9, 36, 106
11, 39360, Note_on_c, 9, 38, 127
11, 39360, Note_on_c, 9, 70, 127
11, 39364, Note_off_c, 9, 36, 64
11, 39364, Note_off_c, 9, 38, 64
11, 39364, Note_off_c, 9, 70, 64
11, 39456, Note_on_c, 9, 70, 84
11, 39460, Note_off_c, 9, 70, 64
11, 39504, Note_on_c, 9, 70, 84
11, 39508, Note_off_c, 9, 70, 64
11, 39552, Note_on_c, 9, 36, 127
11, 39552, Note_on_c, 9, 70, 127
11, 39556, Note_off_c, 9, 36, 64
11, 39556, Note_off_c, 9, 70, 64
11, 39648, Note_on_c, 9, 70, 84
11, 39652, Note_off_c, 9, 70, 64
11, 39696, Note_on_c, 9, 70, 84
11, 39700, Note_off_c, 9, 70, 64
11, 39744, Note_on_c, 9, 36, 106
11, 39744, Note_on_c, 9, 38, 127
11, 39744, Note_on_c, 9, 70, 127
11, 39748, Note_off_c, 9, 36, 64
11, 39748, Note_off_c, 9, 38, 64
11, 39748, Note_off_c, 9, 70, 64
11, 39840, Note_on_c, 9, 70, 84
11, 39844, Note_off_c, 9, 70, 64
11, 39888, Note_on_c, 9, 70, 84
11, 39892, Note_off_c, 9, 70, 64
11, 39936, Pitch_bend_c, 9, 8192
11, 39936, Control_c, 9, 1, 0
11, 39936, Program_c, 9, 0
11, 39936, Control_c, 9, 64, 0
11, 39936, Control_c, 9, 10, 64
11, 39936, Note_on_c, 9, 36, 127
11, 39936, Note_on_c, 9, 70, 127
11, 39940, Note_off_c, 9, 36, 64
11, 39940, Note_off_c, 9, 70, 64
11, 40032, Note_on_c, 9, 70, 84
11, 40036, Note_off_c, 9, 70, 64
11, 40080, Note_on_c, 9, 70, 84
11, 40084, Note_off_c, 9, 70, 64
11, 40128, Note_on_c, 9, 36, 106
11, 40128, Note_on_c, 9, 38, 127
11, 40128, Note_on_c, 9, 70, 127
11, 40132, Note_off_c, 9, 36, 64
11, 40132, Note_off_c, 9, 38, 64
11, 40132, Note_off_c, 9, 70, 64
11, 40224, Note_on_c, 9, 70, 84
11, 40228, Note_off_c, 9, 70, 64
11, 40272, Note_on_c, 9, 70, 84
11, 40276, Note_off_c, 9, 70, 64
11, 40320, Note_on_c, 9, 36, 127
11, 40320, Note_on_c, 9, 70, 127
11, 40324, Note_off_c, 9, 36, 64
11, 40324, Note_off_c, 9, 70, 64
11, 40416, Note_on_c, 9, 70, 84
11, 40420, Note_off_c, 9, 70, 64
11, 40464, Note_on_c, 9, 70, 84
11, 40468, Note_off_c, 9, 70, 64
11, 40512, Note_on_c, 9, 36, 106
11, 40512, Note_on_c, 9, 38, 127
11, 40512, Note_on_c, 9, 70, 127
11, 40516, Note_off_c, 9, 36, 64
11, 40516, Note_off_c, 9, 38, 64
11, 40516, Note_off_c, 9, 70, 64
11, 40608, Note_on_c, 9, 70, 84
11, 40612, Note_off_c, 9, 70, 64
11, 40656, Note_on_c, 9, 70, 84
11, 40660, Note_off_c, 9, 70, 64
11, 40704, Pitch_bend_c, 9, 8192
11, 40704, Control_c, 9, 1, 0
11, 40704, Program_c, 9, 0
11, 40704, Control_c, 9, 64, 0
11, 40704, Control_c, 9, 10, 64
11, 40704, Note_on_c, 9, 36, 127
11, 40704, Note_on_c, 9, 70, 127
11, 40708, Note_off_c, 9, 36, 64
11, 40708, Note_off_c, 9, 70, 64
11, 40800, Note_on_c, 9, 70, 84
11, 40804, Note_off_c, 9, 70, 64
11, 40848, Note_on_c, 9, 70, 84
11, 40852, Note_off_c, 9, 70, 64
11, 40896, Note_on_c, 9, 36, 106
11, 40896, Note_on_c, 9, 38, 127
11, 40896, Note_on_c, 9, 70, 127
11, 40900, Note_off_c, 9, 36, 64
11, 40900, Note_off_c, 9, 38, 64
11, 40900, Note_off_c, 9, 70, 64
11, 40992, Note_on_c, 9, 70, 84
11, 40996, Note_off_c, 9, 70, 64
11, 41040, Note_on_c, 9, 70, 84
11, 41044, Note_off_c, 9, 70, 64
11, 41088, Note_on_c, 9, 36, 127
11, 41088, Note_on_c, 9, 70, 127
11, 41092, Note_off_c, 9, 36, 64
11, 41092, Note_off_c, 9, 70, 64
11, 41184, Note_on_c, 9, 70, 84
11, 41188, Note_off_c, 9, 70, 64
11, 41232, Note_on_c, 9, 70, 84
11, 41236, Note_off_c, 9, 70, 64
11, 41280, Note_on_c, 9, 36, 106
11, 41280, Note_on_c, 9, 38, 127
11, 41280, Note_on_c, 9, 70, 127
11, 41284, Note_off_c, 9, 36, 64
11, 41284, Note_off_c, 9, 38, 64
11, 41284, Note_off_c, 9, 70, 64
11, 41376, Note_on_c, 9, 70, 84
11, 41380, Note_off_c, 9, 70, 64
11, 41424, Note_on_c, 9, 70, 84
11, 41428, Note_off_c, 9, 70, 64
11, 41472, Pitch_bend_c, 9, 8192
11, 41472, Control_c, 9, 1, 0
11, 41472, Program_c, 9, 0
11, 41472, Control_c, 9, 64, 0
11, 41472, Control_c, 9, 10, 64
11, 41472, Note_on_c, 9, 36, 127
11, 41472, Note_on_c, 9, 70, 127
11, 41476, Note_off_c, 9, 36, 64
11, 41476, Note_off_c, 9, 70, 64
11, 41568, Note_on_c, 9, 70, 84
11, 41572, Note_off_c, 9, 70, 64
11, 41616, Note_on_c, 9, 70, 84
11, 41620, Note_off_c, 9, 70, 64
11, 41664, Note_on_c, 9, 36, 106
11, 41664, Note_on_c, 9, 38, 127
11, 41664, Note_on_c, 9, 70, 127
11, 41668, Note_off_c, 9, 36, 64
11, 41668, Note_off_c, 9, 38, 64
11, 41668, Note_off_c, 9, 70, 64
11, 41760, Note_on_c, 9, 70, 84
11, 41764, Note_off_c, 9, 70, 64
11, 41808, Note_on_c, 9, 70, 84
11, 41812, Note_off_c, 9, 70, 64
11, 41856, Note_on_c, 9, 36, 127
11, 41856, Note_on_c, 9, 70, 127
11, 41860, Note_off_c, 9, 36, 64
11, 41860, Note_off_c, 9, 70, 64
11, 41952, Note_on_c, 9, 70, 84
11, 41956, Note_off_c, 9, 70, 64
11, 42000, Note_on_c, 9, 70, 84
11, 42004, Note_off_c, 9, 70, 64
11, 42048, Note_on_c, 9, 36, 106
11, 42048, Note_on_c, 9, 38, 127
11, 42048, Note_on_c, 9, 70, 127
11, 42052, Note_off_c, 9, 36, 64
11, 42052, Note_off_c, 9, 38, 64
11, 42052, Note_off_c, 9, 70, 64
11, 42144, Note_on_c, 9, 70, 84
11, 42148, Note_off_c, 9, 70, 64
11, 42192, Note_on_c, 9, 70, 84
11, 42196, Note_off_c, 9, 70, 64
11, 42240, Pitch_bend_c, 9, 8192
11, 42240, Control_c, 9, 1, 0
11, 42240, Program_c, 9, 0
11, 42240, Control_c, 9, 64, 0
11, 42240, Control_c, 9, 10, 64
11, 42240, Note_on_c, 9, 36, 127
11, 42240, Note_on_c, 9, 70, 127
11, 42244, Note_off_c, 9, 36, 64
11, 42244, Note_off_c, 9, 70, 64
11, 42336, Note_on_c, 9, 70, 84
11, 42340, Note_off_c, 9, 70, 64
11, 42384, Note_on_c, 9, 70, 84
11, 42388, Note_off_c, 9, 70, 64
11, 42432, Note_on_c, 9, 36, 106
11, 42432, Note_on_c, 9, 38, 127
11, 42432, Note_on_c, 9, 70, 127
11, 42436, Note_off_c, 9, 36, 64
11, 42436, Note_off_c, 9, 38, 64
11, 42436, Note_off_c, 9, 70, 64
11, 42528, Note_on_c, 9, 70, 84
11, 42532, Note_off_c, 9, 70, 64
11, 42576, Note_on_c, 9, 70, 84
11, 42580, Note_off_c, 9, 70, 64
11, 42624, Note_on_c, 9, 36, 127
11, 42624, Note_on_c, 9, 70, 127
11, 42628, Note_off_c, 9, 36, 64
11, 42628, Note_off_c, 9, 70, 64
11, 42720, Note_on_c, 9, 70, 84
11, 42724, Note_off_c, 9, 70, 64
11, 42768, Note_on_c, 9, 70, 84
11, 42772, Note_off_c, 9, 70, 64
11, 42816, Note_on_c, 9, 36, 106
11, 42816, Note_on_c, 9, 38, 127
11, 42816, Note_on_c, 9, 70, 127
11, 42820, Note_off_c, 9, 36, 64
11, 42820, Note_off_c, 9, 38, 64
11, 42820, Note_off_c, 9, 70, 64
11, 42912, Note_on_c, 9, 70, 84
11, 42916, Note_off_c, 9, 70, 64
11, 42960, Note_on_c, 9, 70, 84
11, 42964, Note_off_c, 9, 70, 64
11, 43008, Pitch_bend_c, 9, 8192
11, 43008, Control_c, 9, 1, 0
11, 43008, Program_c, 9, 0
11, 43008, Control_c, 9, 64, 0
11, 43008, Control_c, 9, 10, 64
11, 43008, Note_on_c, 9, 36, 127
11, 43008, Note_on_c, 9, 70, 127
11, 43012, Note_off_c, 9, 36, 64
11, 43012, Note_off_c, 9, 70, 64
11, 43104, Note_on_c, 9, 70, 84
11, 43108, Note_off_c, 9, 70, 64
11, 43152, Note_on_c, 9, 70, 84
11, 43156, Note_off_c, 9, 70, 64
11, 43200, Note_on_c, 9, 36, 106
11, 43200, Note_on_c, 9, 38, 127
11, 43200, Note_on_c, 9, 70, 127
11, 43204, Note_off_c, 9, 36, 64
11, 43204, Note_off_c, 9, 38, 64
11, 43204, Note_off_c, 9, 70, 64
11, 43296, Note_on_c, 9, 70, 84
11, 43300, Note_off_c, 9, 70, 64
11, 43344, Note_on_c, 9, 70, 84
11, 43348, Note_off_c, 9, 70, 64
11, 43392, Note_on_c, 9, 36, 127
11, 43392, Note_on_c, 9, 70, 127
11, 43396, Note_off_c, 9, 36, 64
11, 43396, Note_off_c, 9, 70, 64
11, 43488, Note_on_c, 9, 70, 84
11, 43492, Note_off_c, 9, 70, 64
11, 43536, Note_on_c, 9, 70, 84
11, 43540, Note_off_c, 9, 70, 64
11, 43584, Note_on_c, 9, 36, 106
11, 43584, Note_on_c, 9, 38, 127
11, 43584, Note_on_c, 9, 70, 127
11, 43588, Note_off_c, 9, 36, 64
11, 43588, Note_off_c, 9, 38, 64
11, 43588, Note_off_c, 9, 70, 64
11, 43680, Note_on_c, 9, 70, 84
11, 43684, Note_off_c, 9, 70, 64
11, 43728, Note_on_c, 9, 70, 84
11, 43732, Note_off_c, 9, 70, 64
11, 43776, Pitch_bend_c, 9, 8192
11, 43776, Control_c, 9, 1, 0
11, 43776, Program_c, 9, 0
11, 43776, Control_c, 9, 64, 0
11, 43776, Control_c, 9, 10, 64
11, 43776, Note_on_c, 9, 36, 127
11, 43776, Note_on_c, 9, 70, 127
11, 43780, Note_off_c, 9, 36, 64
11, 43780, Note_off_c, 9, 70, 64
11, 43872, Note_on_c, 9, 70, 84
11, 43876, Note_off_c, 9, 70, 64
11, 43920, Note_on_c, 9, 70, 84
11, 43924, Note_off_c, 9, 70, 64
11, 43968, Note_on_c, 9, 36, 106
11, 43968, Note_on_c, 9, 38, 127
11, 43968, Note_on_c, 9, 70, 127
11, 43972, Note_off_c, 9, 36, 64
11, 43972, Note_off_c, 9, 38, 64
11, 43972, Note_off_c, 9, 70, 64
11, 44064, Note_on_c, 9, 70, 84
11, 44068, Note_off_c, 9, 70, 64
11, 44112, Note_on_c, 9, 70, 84
11, 44116, Note_off_c, 9, 70, 64
11, 44160, Note_on_c, 9, 36, 127
11, 44160, Note_on_c, 9, 70, 127
11, 44164, Note_off_c, 9, 36, 64
11, 44164, Note_off_c, 9, 70, 64
11, 44256, Note_on_c, 9, 70, 84
11, 44260, Note_off_c, 9, 70, 64
11, 44304, Note_on_c, 9, 70, 84
11, 44308, Note_off_c, 9, 70, 64
11, 44352, Note_on_c, 9, 36, 106
11, 44352, Note_on_c, 9, 38, 127
11, 44352, Note_on_c, 9, 70, 127
11, 44356, Note_off_c, 9, 36, 64
11, 44356, Note_off_c, 9, 38, 64
11, 44356, Note_off_c, 9, 70, 64
11, 44448, Note_on_c, 9, 70, 84
11, 44452, Note_off_c, 9, 70, 64
11, 44496, Note_on_c, 9, 70, 84
11, 44500, Note_off_c, 9, 70, 64
11, 44544, Pitch_bend_c, 9, 8192
11, 44544, Control_c, 9, 1, 0
11, 44544, Program_c, 9, 0
11, 44544, Control_c, 9, 64, 0
11, 44544, Control_c, 9, 10, 64
11, 44544, Note_on_c, 9, 36, 127
11, 44544, Note_on_c, 9, 70, 127
11, 44548, Note_off_c, 9, 36, 64
11, 44548, Note_off_c, 9, 70, 64
11, 44640, Note_on_c, 9, 70, 84
11, 44644, Note_off_c, 9, 70, 64
11, 44688, Note_on_c, 9, 70, 84
11, 44692, Note_off_c, 9, 70, 64
11, 44736, Note_on_c, 9, 36, 106
11, 44736, Note_on_c, 9, 38, 127
11, 44736, Note_on_c, 9, 70, 127
11, 44740, Note_off_c, 9, 36, 64
11, 44740, Note_off_c, 9, 38, 64
11, 44740, Note_off_c, 9, 70, 64
11, 44832, Note_on_c, 9, 70, 84
11, 44836, Note_off_c, 9, 70, 64
11, 44880, Note_on_c, 9, 70, 84
11, 44884, Note_off_c, 9, 70, 64
11, 44928, Note_on_c, 9, 36, 127
11, 44928, Note_on_c, 9, 70, 127
11, 44932, Note_off_c, 9, 36, 64
11, 44932, Note_off_c, 9, 70, 64
11, 45024, Note_on_c, 9, 70, 84
11, 45028, Note_off_c, 9, 70, 64
11, 45072, Note_on_c, 9, 70, 84
11, 45076, Note_off_c, 9, 70, 64
11, 45120, Note_on_c, 9, 36, 106
11, 45120, Note_on_c, 9, 38, 127
11, 45120, Note_on_c, 9, 70, 127
11, 45124, Note_off_c, 9, 36, 64
11, 45124, Note_off_c, 9, 38, 64
11, 45124, Note_off_c, 9, 70, 64
11, 45216, Note_on_c, 9, 70, 84
11, 45220, Note_off_c, 9, 70, 64
11, 45264, Note_on_c, 9, 70, 84
11, 45268, Note_off_c, 9, 70, 64
11, 45312, Pitch_bend_c, 9, 8192
11, 45312, Control_c, 9, 1, 0
11, 45312, Program_c, 9, 0
11, 45312, Control_c, 9, 64, 0
11, 45312, Control_c, 9, 10, 64
11, 45312, Note_on_c, 9, 36, 127
11, 45312, Note_on_c, 9, 70, 127
11, 45316, Note_off_c, 9, 36, 64
11, 45316, Note_off_c, 9, 70, 64
11, 45408, Note_on_c, 9, 70, 84
11, 45412, Note_off_c, 9, 70, 64
11, 45456, Note_on_c, 9, 70, 84
11, 45460, Note_off_c, 9, 70, 64
11, 45504, Note_on_c, 9, 36, 106
11, 45504, Note_on_c, 9, 38, 127
11, 45504, Note_on_c, 9, 70, 127
11, 45508, Note_off_c, 9, 36, 64
11, 45508, Note_off_c, 9, 38, 64
11, 45508, Note_off_c, 9, 70, 64
11, 45600, Note_on_c, 9, 70, 84
11, 45604, Note_off_c, 9, 70, 64
11, 45648, Note_on_c, 9, 70, 84
11, 45652, Note_off_c, 9, 70, 64
11, 45696, Note_on_c, 9, 36, 127
11, 45696, Note_on_c, 9, 70, 127
11, 45700, Note_off_c, 9, 36, 64
11, 45700, Note_off_c, 9, 70, 64
11, 45792, Note_on_c, 9, 70, 84
11, 45796, Note_off_c, 9, 70, 64
11, 45840, Note_on_c, 9, 70, 84
11, 45844, Note_off_c, 9, 70, 64
11, 45888, Note_on_c, 9, 36, 106
11, 45888, Note_on_c, 9, 38, 127
11, 45888, Note_on_c, 9, 70, 127
11, 45892, Note_off_c, 9, 36, 64
11, 45892, Note_off_c, 9, 38, 64
11, 45892, Note_off_c, 9, 70, 64
11, 45984, Note_on_c, 9, 70, 84
11, 45988, Note_off_c, 9, 70, 64
11, 46032, Note_on_c, 9, 70, 84
11, 46036, Note_off_c, 9, 70, 64
11, 46080, Pitch_bend_c, 9, 8192
11, 46080, Control_c, 9, 1, 0
11, 46080, Program_c, 9, 0
11, 46080, Control_c, 9, 64, 0
11, 46080, Control_c, 9, 10, 64
11, 46080, Note_on_c, 9, 36, 127
11, 46080, Note_on_c, 9, 70, 127
11, 46084, Note_off_c, 9, 36, 64
11, 46084, Note_off_c, 9, 70, 64
11, 46176, Note_on_c, 9, 70, 84
11, 46180, Note_off_c, 9, 70, 64
11, 46224, Note_on_c, 9, 70, 84
11, 46228, Note_off_c, 9, 70, 64
11, 46272, Note_on_c, 9, 36, 106
11, 46272, Note_on_c, 9, 38, 127
11, 46272, Note_on_c, 9, 70, 127
11, 46276, Note_off_c, 9, 36, 64
11, 46276, Note_off_c, 9, 38, 64
11, 46276, Note_off_c, 9, 70, 64
11, 46368, Note_on_c, 9, 70, 84
11, 46372, Note_off_c, 9, 70, 64
11, 46416, Note_on_c, 9, 70, 84
11, 46420, Note_off_c, 9, 70, 64
11, 46464, Note_on_c, 9, 36, 127
11, 46464, Note_on_c, 9, 70, 127
11, 46468, Note_off_c, 9, 36, 64
11, 46468, Note_off_c, 9, 70, 64
11, 46560, Note_on_c, 9, 70, 84
11, 46564, Note_off_c, 9, 70, 64
11, 46608, Note_on_c, 9, 70, 84
11, 46612, Note_off_c, 9, 70, 64
11, 46656, Note_on_c, 9, 36, 106
11, 46656, Note_on_c, 9, 38, 127
11, 46656, Note_on_c, 9, 70, 127
11, 46660, Note_off_c, 9, 36, 64
11, 46660, Note_off_c, 9, 38, 64
11, 46660, Note_off_c, 9, 70, 64
11, 46752, Note_on_c, 9, 70, 84
11, 46756, Note_off_c, 9, 70, 64
11, 46800, Note_on_c, 9, 70, 84
11, 46804, Note_off_c, 9, 70, 64
11, 46848, Pitch_bend_c, 9, 8192
11, 46848, Control_c, 9, 1, 0
11, 46848, Program_c, 9, 0
11, 46848, Control_c, 9, 64, 0
11, 46848, Control_c, 9, 10, 64
11, 46848, Note_on_c, 9, 36, 127
11, 46848, Note_on_c, 9, 70, 127
11, 46852, Note_off_c, 9, 36, 64
11, 46852, Note_off_c, 9, 70, 64
11, 46944, Note_on_c, 9, 70, 84
11, 46948, Note_off_c, 9, 70, 64
11, 46992, Note_on_c, 9, 70, 84
11, 46996, Note_off_c, 9, 70, 64
11, 47040, Note_on_c, 9, 36, 106
11, 47040, Note_on_c, 9, 38, 127
11, 47040, Note_on_c, 9, 70, 127
11, 47044, Note_off_c, 9, 36, 64
11, 47044, Note_off_c, 9, 38, 64
11, 47044, Note_off_c, 9, 70, 64
11, 47136, Note_on_c, 9, 70, 84
11, 47140, Note_off_c, 9, 70, 64
11, 47184, Note_on_c, 9, 70, 84
11, 47188, Note_off_c, 9, 70, 64
11, 47232, Note_on_c, 9, 36, 127
11, 47232, Note_on_c, 9, 70, 127
11, 47236, Note_off_c, 9, 36, 64
11, 47236, Note_off_c, 9, 70, 64
11, 47328, Note_on_c, 9, 70, 84
11, 47332, Note_off_c, 9, 70, 64
11, 47376, Note_on_c, 9, 70, 84
11, 47380, Note_off_c, 9, 70, 64
11, 47424, Note_on_c, 9, 36, 106
11, 47424, Note_on_c, 9, 38, 127
11, 47424, Note_on_c, 9, 70, 127
11, 47428, Note_off_c, 9, 36, 64
11, 47428, Note_off_c, 9, 38, 64
11, 47428, Note_off_c, 9, 70, 64
11, 47520, Note_on_c, 9, 70, 84
11, 47524, Note_off_c, 9, 70, 64
11, 47568, Note_on_c, 9, 70, 84
11, 47572, Note_off_c, 9, 70, 64
11, 47616, Pitch_bend_c, 9, 8192
11, 47616, Control_c, 9, 1, 0
11, 47616, Program_c, 9, 0
11, 47616, Control_c, 9, 64, 0
11, 47616, Control_c, 9, 10, 64
11, 47616, Note_on_c, 9, 36, 127
11, 47616, Note_on_c, 9, 70, 127
11, 47620, Note_off_c, 9, 36, 64
11, 47620, Note_off_c, 9, 70, 64
11, 47712, Note_on_c, 9, 70, 84
11, 47716, Note_off_c, 9, 70, 64
11, 47760, Note_on_c, 9, 70, 84
11, 47764, Note_off_c, 9, 70, 64
11, 47808, Note_on_c, 9, 36, 106
11, 47808, Note_on_c, 9, 38, 127
11, 47808, Note_on_c, 9, 70, 127
11, 47812, Note_off_c, 9, 36, 64
11, 47812, Note_off_c, 9, 38, 64
11, 47812, Note_off_c, 9, 70, 64
11, 47904, Note_on_c, 9, 70, 84
11, 47908, Note_off_c, 9, 70, 64
11, 47952, Note_on_c, 9, 70, 84
11, 47956, Note_off_c, 9, 70, 64
11, 48000, Note_on_c, 9, 36, 127
11, 48000, Note_on_c, 9, 70, 127
11, 48004, Note_off_c, 9, 36, 64
11, 48004, Note_off_c, 9, 70, 64
11, 48096, Note_on_c, 9, 70, 84
11, 48100, Note_off_c, 9, 70, 64
11, 48144, Note_on_c, 9, 70, 84
11, 48148, Note_off_c, 9, 70, 64
11, 48192, Note_on_c, 9, 36, 106
11, 48192, Note_on_c, 9, 38, 127
11, 48192, Note_on_c, 9, 70, 127
11, 48196, Note_off_c, 9, 36, 64
11, 48196, Note_off_c, 9, 38, 64
11, 48196, Note_off_c, 9, 70, 64
11, 48288, Note_on_c, 9, 70, 84
11, 48292, Note_off_c, 9, 70, 64
11, 48336, Note_on_c, 9, 70, 84
11, 48340, Note_off_c, 9, 70, 64
11, 48384, Pitch_bend_c, 9, 8192
11, 48384, Control_c, 9, 1, 0
11, 48384, Program_c, 9, 0
11, 48384, Control_c, 9, 64, 0
11, 48384, Control_c, 9, 10, 64
11, 48384, Note_on_c, 9, 36, 127
11, 48384, Note_on_c, 9, 70, 127
11, 48388, Note_off_c, 9, 36, 64
11, 48388, Note_off_c, 9, 70, 64
11, 48480, Note_on_c, 9, 70, 84
11, 48484, Note_off_c, 9, 70, 64
11, 48528, Note_on_c, 9, 70, 84
11, 48532, Note_off_c, 9, 70, 64
11, 48576, Note_on_c, 9, 36, 106
11, 48576, Note_on_c, 9, 38, 127
11, 48576, Note_on_c, 9, 70, 127
11, 48580, Note_off_c, 9, 36, 64
11, 48580, Note_off_c, 9, 38, 64
11, 48580, Note_off_c, 9, 70, 64
11, 48672, Note_on_c, 9, 70, 84
11, 48676, Note_off_c, 9, 70, 64
11, 48720, Note_on_c, 9, 70, 84
11, 48724, Note_off_c, 9, 70, 64
11, 48768, Note_on_c, 9, 36, 127
11, 48768, Note_on_c, 9, 70, 127
11, 48772, Note_off_c, 9, 36, 64
11, 48772, Note_off_c, 9, 70, 64
11, 48864, Note_on_c, 9, 70, 84
11, 48868, Note_off_c, 9, 70, 64
11, 48912, Note_on_c, 9, 70, 84
11, 48916, Note_off_c, 9, 70, 64
11, 48960, Note_on_c, 9, 36, 106
11, 48960, Note_on_c, 9, 38, 127
11, 48960, Note_on_c, 9, 70, 127
11, 48964, Note_off_c, 9, 36, 64
11, 48964, Note_off_c, 9, 38, 64
11, 48964, Note_off_c, 9, 70, 64
11, 49056, Note_on_c, 9, 70, 84
11, 49060, Note_off_c, 9, 70, 64
11, 49104, Note_on_c, 9, 70, 84
11, 49108, Note_off_c, 9, 70, 64
11, 49152, Pitch_bend_c, 9, 8192
11, 49152, Control_c, 9, 1, 0
11, 49152, Program_c, 9, 0
11, 49152, Control_c, 9, 64, 0
11, 49152, Control_c, 9, 10, 64
11, 49152, Note_on_c, 9, 36, 127
11, 49152, Note_on_c, 9, 70, 127
11, 49156, Note_off_c, 9, 36, 64
11, 49156, Note_off_c, 9, 70, 64
11, 49248, Note_on_c, 9, 70, 84
11, 49252, Note_off_c, 9, 70, 64
11, 49296, Note_on_c, 9, 70, 84
11, 49300, Note_off_c, 9, 70, 64
11, 49344, Note_on_c, 9, 36, 106
11, 49344, Note_on_c, 9, 38, 127
11, 49344, Note_on_c, 9, 70, 127
11, 49348, Note_off_c, 9, 36, 64
11, 49348, Note_off_c, 9, 38, 64
11, 49348, Note_off_c, 9, 70, 64
11, 49440, Note_on_c, 9, 70, 84
11, 49444, Note_off_c, 9, 70, 64
11, 49488, Note_on_c, 9, 70, 84
11, 49492, Note_off_c, 9, 70, 64
11, 49536, Note_on_c, 9, 36, 127
11, 49536, Note_on_c, 9, 70, 127
11, 49540, Note_off_c, 9, 36, 64
11, 49540, Note_off_c, 9, 70, 64
11, 49632, Note_on_c, 9, 70, 84
11, 49636, Note_off_c, 9, 70, 64
11, 49680, Note_on_c, 9, 70, 84
11, 49684, Note_off_c, 9, 70, 64
11, 49728, Note_on_c, 9, 36, 106
11, 49728, Note_on_c, 9, 38, 127
11, 49728, Note_on_c, 9, 70, 127
11, 49732, Note_off_c, 9, 36, 64
11, 49732, Note_off_c, 9, 38, 64
11, 49732, Note_off_c, 9, 70, 64
11, 49824, Note_on_c, 9, 36, 127
11, 49824, Note_on_c, 9, 70, 84
11, 49828, Note_off_c, 9, 36, 64
11, 49828, Note_off_c, 9, 70, 64
11, 49872, Note_on_c, 9, 70, 84
11, 49876, Note_off_c, 9, 70, 64
11, 49920, Pitch_bend_c, 9, 8192
11, 49920, Control_c, 9, 1, 0
11, 49920, Program_c, 9, 0
11, 49920, Control_c, 9, 64, 0
11, 49920, Control_c, 9, 10, 64
11, 49920, Note_on_c, 9, 36, 127
11, 49920, Note_on_c, 9, 49, 106
11, 49920, Note_on_c, 9, 70, 127
11, 49924, Note_off_c, 9, 36, 64
11, 49924, Note_off_c, 9, 49, 64
11, 49924, Note_off_c, 9, 70, 64
11, 50016, Note_on_c, 9, 70, 84
11, 50020, Note_off_c, 9, 70, 64
11, 50064, Note_on_c, 9, 70, 84
11, 50068, Note_off_c, 9, 70, 64
11, 50112, Note_on_c, 9, 36, 106
11, 50112, Note_on_c, 9, 38, 127
11, 50112, Note_on_c, 9, 70, 127
11, 50116, Note_off_c, 9, 36, 64
11, 50116, Note_off_c, 9, 38, 64
11, 50116, Note_off_c, 9, 70, 64
11, 50208, Note_on_c, 9, 70, 84
11, 50212, Note_off_c, 9, 70, 64
11, 50256, Note_on_c, 9, 70, 84
11, 50260, Note_off_c, 9, 70, 64
11, 50304, Note_on_c, 9, 36, 127
11, 50304, Note_on_c, 9, 70, 127
11, 50308, Note_off_c, 9, 36, 64
11, 50308, Note_off_c, 9, 70, 64
11, 50400, Note_on_c, 9, 70, 84
11, 50404, Note_off_c, 9, 70, 64
11, 50448, Note_on_c, 9, 70, 84
11, 50452, Note_off_c, 9, 70, 64
11, 50496, Note_on_c, 9, 36, 106
11, 50496, Note_on_c, 9, 38, 127
11, 50496, Note_on_c, 9, 70, 127
11, 50500, Note_off_c, 9, 36, 64
11, 50500, Note_off_c, 9, 38, 64
11, 50500, Note_off_c, 9, 70, 64
11, 50592, Note_on_c, 9, 70, 84
11, 50596, Note_off_c, 9, 70, 64
11, 50640, Note_on_c, 9, 70, 84
11, 50644, Note_off_c, 9, 70, 64
11, 50688, Pitch_bend_c, 9, 8192
11, 50688, Control_c, 9, 1, 0
11, 50688, Program_c, 9, 0
11, 50688, Control_c, 9, 64, 0
11, 50688, Control_c, 9, 10, 64
11, 50688, Note_on_c, 9, 36, 127
11, 50688, Note_on_c, 9, 70, 127
11, 50692, Note_off_c, 9, 36, 64
11, 50692, Note_off_c, 9, 70, 64
11, 50784, Note_on_c, 9, 70, 84
11, 50788, Note_off_c, 9, 70, 64
11, 50832, Note_on_c, 9, 70, 84
11, 50836, Note_off_c, 9, 70, 64
11, 50880, Note_on_c, 9, 36, 106
11, 50880, Note_on_c, 9, 38, 127
11, 50880, Note_on_c, 9, 70, 127
11, 50884, Note_off_c, 9, 36, 64
11, 50884, Note_off_c, 9, 38, 64
11, 50884, Note_off_c, 9, 70, 64
11, 50976, Note_on_c, 9, 70, 84
11, 50980, Note_off_c, 9, 70, 64
11, 51024, Note_on_c, 9, 70, 84
11, 51028, Note_off_c, 9, 70, 64
11, 51072, Note_on_c, 9, 36, 127
11, 51072, Note_on_c, 9, 70, 127
11, 51076, Note_off_c, 9, 36, 64
11, 51076, Note_off_c, 9, 70, 64
11, 51168, Note_on_c, 9, 70, 84
11, 51172, Note_off_c, 9, 70, 64
11, 51216, Note_on_c, 9, 70, 84
11, 51220, Note_off_c, 9, 70, 64
11, 51264, Note_on_c, 9, 36, 106
11, 51264, Note_on_c, 9, 38, 127
11, 51264, Note_on_c, 9, 70, 127
11, 51268, Note_off_c, 9, 36, 64
11, 51268, Note_off_c, 9, 38, 64
11, 51268, Note_off_c, 9, 70, 64
11, 51360, Note_on_c, 9, 70, 84
11, 51364, Note_off_c, 9, 70, 64
11, 51408, Note_on_c, 9, 70, 84
11, 51412, Note_off_c, 9, 70, 64
11, 51456, Pitch_bend_c, 9, 8192
11, 51456, Control_c, 9, 1, 0
11, 51456, Program_c, 9, 0
11, 51456, Control_c, 9, 64, 0
11, 51456, Control_c, 9, 10, 64
11, 51456, Note_on_c, 9, 36, 127
11, 51456, Note_on_c, 9, 70, 127
11, 51460, Note_off_c, 9, 36, 64
11, 51460, Note_off_c, 9, 70, 64
11, 51552, Note_on_c, 9, 70, 84
11, 51556, Note_off_c, 9, 70, 64
11, 51600, Note_on_c, 9, 70, 84
11, 51604, Note_off_c, 9, 70, 64
11, 51648, Note_on_c, 9, 36, 106
11, 51648, Note_on_c, 9, 38, 127
11, 51648, Note_on_c, 9, 70, 127
11, 51652, Note_off_c, 9, 36, 64
11, 51652, Note_off_c, 9, 38, 64
11, 51652, Note_off_c, 9, 70, 64
11, 51744, Note_on_c, 9, 70, 84
11, 51748, Note_off_c, 9, 70, 64
11, 51792, Note_on_c, 9, 70, 84
11, 51796, Note_off_c, 9, 70, 64
11, 51840, Note_on_c, 9, 36, 127
11, 51840, Note_on_c, 9, 70, 127
11, 51844, Note_off_c, 9, 36, 64
11, 51844, Note_off_c, 9, 70, 64
11, 51936, Note_on_c, 9, 70, 84
11, 51940, Note_off_c, 9, 70, 64
11, 51984, Note_on_c, 9, 70, 84
11, 51988, Note_off_c, 9, 70, 64
11, 52032, Note_on_c, 9, 36, 106
11, 52032, Note_on_c, 9, 38, 127
11, 52032, Note_on_c, 9, 70, 127
11, 52036, Note_off_c, 9, 36, 64
11, 52036, Note_off_c, 9, 38, 64
11, 52036, Note_off_c, 9, 70, 64
11, 52128, Note_on_c, 9, 70, 84
11, 52132, Note_off_c, 9, 70, 64
11, 52176, Note_on_c, 9, 70, 84
11, 52180, Note_off_c, 9, 70, 64
11, 52224, Pitch_bend_c, 9, 8192
11, 52224, Control_c, 9, 1, 0
11, 52224, Program_c, 9, 0
11, 52224, Control_c, 9, 64, 0
11, 52224, Control_c, 9, 10, 64
11, 52224, Note_on_c, 9, 36, 127
11, 52224, Note_on_c, 9, 70, 127
11, 52228, Note_off_c, 9, 36, 64
11, 52228, Note_off_c, 9, 70, 64
11, 52320, Note_on_c, 9, 70, 84
11, 52324, Note_off_c, 9, 70, 64
11, 52368, Note_on_c, 9, 70, 84
11, 52372, Note_off_c, 9, 70, 64
11, 52416, Note_on_c, 9, 36, 106
11, 52416, Note_on_c, 9, 38, 127
11, 52416, Note_on_c, 9, 70, 127
11, 52420, Note_off_c, 9, 36, 64
11, 52420, Note_off_c, 9, 38, 64
11, 52420, Note_off_c, 9, 70, 64
11, 52512, Note_on_c, 9, 70, 84
11, 52516, Note_off_c, 9, 70, 64
11, 52560, Note_on_c, 9, 70, 84
11, 52564, Note_off_c, 9, 70, 64
11, 52608, Note_on_c, 9, 36, 127
11, 52608, Note_on_c, 9, 70, 127
11, 52612, Note_off_c, 9, 36, 64
11, 52612, Note_off_c, 9, 70, 64
11, 52704, Note_on_c, 9, 70, 84
11, 52708, Note_off_c, 9, 70, 64
11, 52752, Note_on_c, 9, 70, 84
11, 52756, Note_off_c, 9, 70, 64
11, 52800, Note_on_c, 9, 36, 106
11, 52800, Note_on_c, 9, 38, 127
11, 52800, Note_on_c, 9, 70, 127
11, 52804, Note_off_c, 9, 36, 64
11, 52804, Note_off_c, 9, 38, 64
11, 52804, Note_off_c, 9, 70, 64
11, 52896, Note_on_c, 9, 70, 84
11, 52900, Note_off_c, 9, 70, 64
11, 52944, Note_on_c, 9, 70, 84
11, 52948, Note_off_c, 9, 70, 64
11, 52992, Pitch_bend_c, 9, 8192
11, 52992, Control_c, 9, 1, 0
11, 52992, Program_c, 9, 0
11, 52992, Control_c, 9, 64, 0
11, 52992, Control_c, 9, 10, 64
11, 52992, Note_on_c, 9, 36, 127
11, 52992, Note_on_c, 9, 70, 127
11, 52996, Note_off_c, 9, 36, 64
11, 52996, Note_off_c, 9, 70, 64
11, 53088, Note_on_c, 9, 70, 84
11, 53092, Note_off_c, 9, 70, 64
11, 53136, Note_on_c, 9, 70, 84
11, 53140, Note_off_c, 9, 70, 64
11, 53184, Note_on_c, 9, 36, 106
11, 53184, Note_on_c, 9, 38, 127
11, 53184, Note_on_c, 9, 70, 127
11, 53188, Note_off_c, 9, 36, 64
11, 53188, Note_off_c, 9, 38, 64
11, 53188, Note_off_c, 9, 70, 64
11, 53280, Note_on_c, 9, 70, 84
11, 53284, Note_off_c, 9, 70, 64
11, 53328, Note_on_c, 9, 70, 84
11, 53332, Note_off_c, 9, 70, 64
11, 53376, Note_on_c, 9, 36, 127
11, 53376, Note_on_c, 9, 70, 127
11, 53380, Note_off_c, 9, 36, 64
11, 53380, Note_off_c, 9, 70, 64
11, 53472, Note_on_c, 9, 70, 84
11, 53476, Note_off_c, 9, 70, 64
11, 53520, Note_on_c, 9, 70, 84
11, 53524, Note_off_c, 9, 70, 64
11, 53568, Note_on_c, 9, 36, 106
11, 53568, Note_on_c, 9, 38, 127
11, 53568, Note_on_c, 9, 70, 127
11, 53572, Note_off_c, 9, 36, 64
11, 53572, Note_off_c, 9, 38, 64
11, 53572, Note_off_c, 9, 70, 64
11, 53664, Note_on_c, 9, 70, 84
11, 53668, Note_off_c, 9, 70, 64
11, 53712, Note_on_c, 9, 70, 84
11, 53716, Note_off_c, 9, 70, 64
11, 53760, Pitch_bend_c, 9, 8192
11, 53760, Control_c, 9, 1, 0
11, 53760, Program_c, 9, 0
11, 53760, Control_c, 9, 64, 0
11, 53760, Control_c, 9, 10, 64
11, 53760, Note_on_c, 9, 36, 127
11, 53760, Note_on_c, 9, 70, 127
11, 53764, Note_off_c, 9, 36, 64
11, 53764, Note_off_c, 9, 70, 64
11, 53856, Note_on_c, 9, 70, 84
11, 53860, Note_off_c, 9, 70, 64
11, 53904, Note_on_c, 9, 70, 84
11, 53908, Note_off_c, 9, 70, 64
11, 53952, Note_on_c, 9, 36, 106
11, 53952, Note_on_c, 9, 38, 127
11, 53952, Note_on_c, 9, 70, 127
11, 53956, Note_off_c, 9, 36, 64
11, 53956, Note_off_c, 9, 38, 64
11, 53956, Note_off_c, 9, 70, 64
11, 54048, Note_on_c, 9, 70, 84
11, 54052, Note_off_c, 9, 70, 64
11, 54096, Note_on_c, 9, 70, 84
11, 54100, Note_off_c, 9, 70, 64
11, 54144, Note_on_c, 9, 36, 127
11, 54144, Note_on_c, 9, 70, 127
11, 54148, Note_off_c, 9, 36, 64
11, 54148, Note_off_c, 9, 70, 64
11, 54240, Note_on_c, 9, 70, 84
11, 54244, Note_off_c, 9, 70, 64
11, 54288, Note_on_c, 9, 70, 84
11, 54292, Note_off_c, 9, 70, 64
11, 54336, Note_on_c, 9, 36, 106
11, 54336, Note_on_c, 9, 38, 127
11, 54336, Note_on_c, 9, 70, 127
11, 54340, Note_off_c, 9, 36, 64
11, 54340, Note_off_c, 9, 38, 64
11, 54340, Note_off_c, 9, 70, 64
11, 54432, Note_on_c, 9, 70, 84
11, 54436, Note_off_c, 9, 70, 64
11, 54480, Note_on_c, 9, 70, 84
11, 54484, Note_off_c, 9, 70, 64
11, 54528, Pitch_bend_c, 9, 8192
11, 54528, Control_c, 9, 1, 0
11, 54528, Program_c, 9, 0
11, 54528, Control_c, 9, 64, 0
11, 54528, Control_c, 9, 10, 64
11, 54528, Note_on_c, 9, 36, 127
11, 54528, Note_on_c, 9, 70, 127
11, 54532, Note_off_c, 9, 36, 64
11, 54532, Note_off_c, 9, 70, 64
11, 54624, Note_on_c, 9, 70, 84
11, 54628, Note_off_c, 9, 70, 64
11, 54672, Note_on_c, 9, 70, 84
11, 54676, Note_off_c, 9, 70, 64
11, 54720, Note_on_c, 9, 36, 106
11, 54720, Note_on_c, 9, 38, 127
11, 54720, Note_on_c, 9, 70, 127
11, 54724, Note_off_c, 9, 36, 64
11, 54724, Note_off_c, 9, 38, 64
11, 54724, Note_off_c, 9, 70, 64
11, 54816, Note_on_c, 9, 70, 84
11, 54820, Note_off_c, 9, 70, 64
11, 54864, Note_on_c, 9, 70, 84
11, 54868, Note_off_c, 9, 70, 64
11, 54912, Note_on_c, 9, 36, 127
11, 54912, Note_on_c, 9, 70, 127
11, 54916, Note_off_c, 9, 36, 64
11, 54916, Note_off_c, 9, 70, 64
11, 55008, Note_on_c, 9, 70, 84
11, 55012, Note_off_c, 9, 70, 64
11, 55056, Note_on_c, 9, 70, 84
11, 55060, Note_off_c, 9, 70, 64
11, 55104, Note_on_c, 9, 36, 106
11, 55104, Note_on_c, 9, 38, 127
11, 55104, Note_on_c, 9, 70, 127
11, 55108, Note_off_c, 9, 36, 64
11, 55108, Note_off_c, 9, 38, 64
11, 55108, Note_off_c, 9, 70, 64
11, 55200, Note_on_c, 9, 70, 84
11, 55204, Note_off_c, 9, 70, 64
11, 55248, Note_on_c, 9, 70, 84
11, 55252, Note_off_c, 9, 70, 64
11, 55296, Pitch_bend_c, 9, 8192
11, 55296, Control_c, 9, 1, 0
11, 55296, Program_c, 9, 0
11, 55296, Control_c, 9, 64, 0
11, 55296, Control_c, 9, 10, 64
11, 55296, Note_on_c, 9, 36, 127
11, 55296, Note_on_c, 9, 70, 127
11, 55300, Note_off_c, 9, 36, 64
11, 55300, Note_off_c, 9, 70, 64
11, 55392, Note_on_c, 9, 70, 84
11, 55396, Note_off_c, 9, 70, 64
11, 55440, Note_on_c, 9, 70, 84
11, 55444, Note_off_c, 9, 70, 64
11, 55488, Note_on_c, 9, 36, 106
11, 55488, Note_on_c, 9, 38, 127
11, 55488, Note_on_c, 9, 70, 127
11, 55492, Note_off_c, 9, 36, 64
11, 55492, Note_off_c, 9, 38, 64
11, 55492, Note_off_c, 9, 70, 64
11, 55584, Note_on_c, 9, 70, 84
11, 55588, Note_off_c, 9, 70, 64
11, 55632, Note_on_c, 9, 70, 84
11, 55636, Note_off_c, 9, 70, 64
11, 55680, Note_on_c, 9, 36, 127
11, 55680, Note_on_c, 9, 70, 127
11, 55684, Note_off_c, 9, 36, 64
11, 55684, Note_off_c, 9, 70, 64
11, 55776, Note_on_c, 9, 70, 84
11, 55780, Note_off_c, 9, 70, 64
11, 55824, Note_on_c, 9, 70, 84
11, 55828, Note_off_c, 9, 70, 64
11, 55872, Note_on_c, 9, 36, 106
11, 55872, Note_on_c, 9, 38, 127
11, 55872, Note_on_c, 9, 70, 127
11, 55876, Note_off_c, 9, 36, 64
11, 55876, Note_off_c, 9, 38, 64
11, 55876, Note_off_c, 9, 70, 64
11, 55968, Note_on_c, 9, 36, 127
11, 55968, Note_on_c, 9, 70, 84
11, 55972, Note_off_c, 9, 36, 64
11, 55972, Note_off_c, 9, 70, 64
11, 56016, Note_on_c, 9, 70, 84
11, 56020, Note_off_c, 9, 70, 64
11, 56064, Pitch_bend_c, 9, 8192
11, 56064, Control_c, 9, 1, 0
11, 56064, Program_c, 9, 0
11, 56064, Control_c, 9, 64, 0
11, 56064, Control_c, 9, 10, 64
11, 56064, Note_on_c, 9, 36, 127
11, 56064, Note_on_c, 9, 49, 106
11, 56064, Note_on_c, 9, 70, 127
11, 56068, Note_off_c, 9, 36, 64
11, 56068, Note_off_c, 9, 49, 64
11, 56068, Note_off_c, 9, 70, 64
11, 56160, Note_on_c, 9, 70, 84
11, 56164, Note_off_c, 9, 70, 64
11, 56208, Note_on_c, 9, 70, 84
11, 56212, Note_off_c, 9, 70, 64
11, 56256, Note_on_c, 9, 36, 106
11, 56256, Note_on_c, 9, 38, 127
11, 56256, Note_on_c, 9, 70, 127
11, 56260, Note_off_c, 9, 36, 64
11, 56260, Note_off_c, 9, 38, 64
11, 56260, Note_off_c, 9, 70, 64
11, 56352, Note_on_c, 9, 70, 84
11, 56356, Note_off_c, 9, 70, 64
11, 56400, Note_on_c, 9, 70, 84
11, 56404, Note_off_c, 9, 70, 64
11, 56448, Note_on_c, 9, 36, 127
11, 56448, Note_on_c, 9, 70, 127
11, 56452, Note_off_c, 9, 36, 64
11, 56452, Note_off_c, 9, 70, 64
11, 56544, Note_on_c, 9, 70, 84
11, 56548, Note_off_c, 9, 70, 64
11, 56592, Note_on_c, 9, 70, 84
11, 56596, Note_off_c, 9, 70, 64
11, 56640, Note_on_c, 9, 36, 106
11, 56640, Note_on_c, 9, 38, 127
11, 56640, Note_on_c, 9, 70, 127
11, 56644, Note_off_c, 9, 36, 64
11, 56644, Note_off_c, 9, 38, 64
11, 56644, Note_off_c, 9, 70, 64
11, 56736, Note_on_c, 9, 70, 84
11, 56740, Note_off_c, 9, 70, 64
11, 56784, Note_on_c, 9, 70, 84
11, 56788, Note_off_c, 9, 70, 64
11, 56832, Pitch_bend_c, 9, 8192
11, 56832, Control_c, 9, 1, 0
11, 56832, Program_c, 9, 0
11, 56832, Control_c, 9, 64, 0
11, 56832, Control_c, 9, 10, 64
11, 56832, Note_on_c, 9, 36, 127
11, 56832, Note_on_c, 9, 70, 127
11, 56836, Note_off_c, 9, 36, 64
11, 56836, Note_off_c, 9, 70, 64
11, 56928, Note_on_c, 9, 70, 84
11, 56932, Note_off_c, 9, 70, 64
11, 56976, Note_on_c, 9, 70, 84
11, 56980, Note_off_c, 9, 70, 64
11, 57024, Note_on_c, 9, 36, 106
11, 57024, Note_on_c, 9, 38, 127
11, 57024, Note_on_c, 9, 70, 127
11, 57028, Note_off_c, 9, 36, 64
11, 57028, Note_off_c, 9, 38, 64
11, 57028, Note_off_c, 9, 70, 64
11, 57120, Note_on_c, 9, 70, 84
11, 57124, Note_off_c, 9, 70, 64
11, 57168, Note_on_c, 9, 70, 84
11, 57172, Note_off_c, 9, 70, 64
11, 57216, Note_on_c, 9, 36, 127
11, 57216, Note_on_c, 9, 70, 127
11, 57220, Note_off_c, 9, 36, 64
11, 57220, Note_off_c, 9, 70, 64
11, 57312, Note_on_c, 9, 70, 84
11, 57316, Note_off_c, 9, 70, 64
11, 57360, Note_on_c, 9, 70, 84
11, 57364, Note_off_c, 9, 70, 64
11, 57408, Note_on_c, 9, 36, 106
11, 57408, Note_on_c, 9, 38, 127
11, 57408, Note_on_c, 9, 70, 127
11, 57412, Note_off_c, 9, 36, 64
11, 57412, Note_off_c, 9, 38, 64
11, 57412, Note_off_c, 9, 70, 64
11, 57504, Note_on_c, 9, 70, 84
11, 57508, Note_off_c, 9, 70, 64
11, 57552, Note_on_c, 9, 70, 84
11, 57556, Note_off_c, 9, 70, 64
11, 57600, Pitch_bend_c, 9, 8192
11, 57600, Control_c, 9, 1, 0
11, 57600, Program_c, 9, 0
11, 57600, Control_c, 9, 64, 0
11, 57600, Control_c, 9, 10, 64
11, 57600, Note_on_c, 9, 36, 127
11, 57600, Note_on_c, 9, 70, 127
11, 57604, Note_off_c, 9, 36, 64
11, 57604, Note_off_c, 9, 70, 64
11, 57696, Note_on_c, 9, 70, 84
11, 57700, Note_off_c, 9, 70, 64
11, 57744, Note_on_c, 9, 70, 84
11, 57748, Note_off_c, 9, 70, 64
11, 57792, Note_on_c, 9, 36, 106
11, 57792, Note_on_c, 9, 38, 127
11, 57792, Note_on_c, 9, 70, 127
11, 57796, Note_off_c, 9, 36, 64
11, 57796, Note_off_c, 9, 38, 64
11, 57796, Note_off_c, 9, 70, 64
11, 57888, Note_on_c, 9, 70, 84
11, 57892, Note_off_c, 9, 70, 64
11, 57936, Note_on_c, 9, 70, 84
11, 57940, Note_off_c, 9, 70, 64
11, 57984, Note_on_c, 9, 36, 127
11, 57984, Note_on_c, 9, 70, 127
11, 57988, Note_off_c, 9, 36, 64
11, 57988, Note_off_c, 9, 70, 64
11, 58080, Note_on_c, 9, 70, 84
11, 58084, Note_off_c, 9, 70, 64
11, 58128, Note_on_c, 9, 70, 84
11, 58132, Note_off_c, 9, 70, 64
11, 58176, Note_on_c, 9, 36, 106
11, 58176, Note_on_c, 9, 38, 127
11, 58176, Note_on_c, 9, 70, 127
11, 58180, Note_off_c, 9, 36, 64
11, 58180, Note_off_c, 9, 38, 64
11, 58180, Note_off_c, 9, 70, 64
11, 58272, Note_on_c, 9, 70, 84
11, 58276, Note_off_c, 9, 70, 64
11, 58320, Note_on_c, 9, 70, 84
11, 58324, Note_off_c, 9, 70, 64
11, 58368, Pitch_bend_c, 9, 8192
11, 58368, Control_c, 9, 1, 0
11, 58368, Program_c, 9, 0
11, 58368, Control_c, 9, 64, 0
11, 58368, Control_c, 9, 10, 64
11, 58368, Note_on_c, 9, 36, 127
11, 58368, Note_on_c, 9, 70, 127
11, 58372, Note_off_c, 9, 36, 64
11, 58372, Note_off_c, 9, 70, 64
11, 58464, Note_on_c, 9, 70, 84
11, 58468, Note_off_c, 9, 70, 64
11, 58512, Note_on_c, 9, 70, 84
11, 58516, Note_off_c, 9, 70, 64
11, 58560, Note_on_c, 9, 36, 106
11, 58560, Note_on_c, 9, 38, 127
11, 58560, Note_on_c, 9, 70, 127
11, 58564, Note_off_c, 9, 36, 64
11, 58564, Note_off_c, 9, 38, 64
11, 58564, Note_off_c, 9, 70, 64
11, 58656, Note_on_c, 9, 70, 84
11, 58660, Note_off_c, 9, 70, 64
11, 58704, Note_on_c, 9, 70, 84
11, 58708, Note_off_c, 9, 70, 64
11, 58752, Note_on_c, 9, 36, 127
11, 58752, Note_on_c, 9, 70, 127
11, 58756, Note_off_c, 9, 36, 64
11, 58756, Note_off_c, 9, 70, 64
11, 58848, Note_on_c, 9, 70, 84
11, 58852, Note_off_c, 9, 70, 64
11, 58896, Note_on_c, 9, 70, 84
11, 58900, Note_off_c, 9, 70, 64
11, 58944, Note_on_c, 9, 36, 106
11, 58944, Note_on_c, 9, 38, 127
11, 58944, Note_on_c, 9, 70, 127
11, 58948, Note_off_c, 9, 36, 64
11, 58948, Note_off_c, 9, 38, 64
11, 58948, Note_off_c, 9, 70, 64
11, 59040, Note_on_c, 9, 70, 84
11, 59044, Note_off_c, 9, 70, 64
11, 59088, Note_on_c, 9, 70, 84
11, 59092, Note_off_c, 9, 70, 64
11, 59136, Pitch_bend_c, 9, 8192
11, 59136, Control_c, 9, 1, 0
11, 59136, Program_c, 9, 0
11, 59136, Control_c, 9, 64, 0
11, 59136, Control_c, 9, 10, 64
11, 59136, Note_on_c, 9, 36, 127
11, 59136, Note_on_c, 9, 70, 127
11, 59140, Note_off_c, 9, 36, 64
11, 59140, Note_off_c, 9, 70, 64
11, 59232, Note_on_c, 9, 70, 84
11, 59236, Note_off_c, 9, 70, 64
11, 59280, Note_on_c, 9, 70, 84
11, 59284, Note_off_c, 9, 70, 64
11, 59328, Note_on_c, 9, 36, 106
11, 59328, Note_on_c, 9, 38, 127
11, 59328, Note_on_c, 9, 70, 127
11, 59332, Note_off_c, 9, 36, 64
11, 59332, Note_off_c, 9, 38, 64
11, 59332, Note_off_c, 9, 70, 64
11, 59424, Note_on_c, 9, 70, 84
11, 59428, Note_off_c, 9, 70, 64
11, 59472, Note_on_c, 9, 70, 84
11, 59476, Note_off_c, 9, 70, 64
11, 59520, Note_on_c, 9, 36, 127
11, 59520, Note_on_c, 9, 70, 127
11, 59524, Note_off_c, 9, 36, 64
11, 59524, Note_off_c, 9, 70, 64
11, 59616, Note_on_c, 9, 70, 84
11, 59620, Note_off_c, 9, 70, 64
11, 59664, Note_on_c, 9, 70, 84
11, 59668, Note_off_c, 9, 70, 64
11, 59712, Note_on_c, 9, 36, 106
11, 59712, Note_on_c, 9, 38, 127
11, 59712, Note_on_c, 9, 70, 127
11, 59716, Note_off_c, 9, 36, 64
11, 59716, Note_off_c, 9, 38, 64
11, 59716, Note_off_c, 9, 70, 64
11, 59808, Note_on_c, 9, 70, 84
11, 59812, Note_off_c, 9, 70, 64
11, 59856, Note_on_c, 9, 70, 84
11, 59860, Note_off_c, 9, 70, 64
11, 59904, Pitch_bend_c, 9, 8192
11, 59904, Control_c, 9, 1, 0
11, 59904, Program_c, 9, 0
11, 59904, Control_c, 9, 64, 0
11, 59904, Control_c, 9, 10, 64
11, 59904, Note_on_c, 9, 36, 127
11, 59904, Note_on_c, 9, 70, 127
11, 59908, Note_off_c, 9, 36, 64
11, 59908, Note_off_c, 9, 70, 64
11, 60000, Note_on_c, 9, 70, 84
11, 60004, Note_off_c, 9, 70, 64
11, 60048, Note_on_c, 9, 70, 84
11, 60052, Note_off_c, 9, 70, 64
11, 60096, Note_on_c, 9, 36, 106
11, 60096, Note_on_c, 9, 38, 127
11, 60096, Note_on_c, 9, 70, 127
11, 60100, Note_off_c, 9, 36, 64
11, 60100, Note_off_c, 9, 38, 64
11, 60100, Note_off_c, 9, 70, 64
11, 60192, Note_on_c, 9, 70, 84
11, 60196, Note_off_c, 9, 70, 64
11, 60240, Note_on_c, 9, 70, 84
11, 60244, Note_off_c, 9, 70, 64
11, 60288, Note_on_c, 9, 36, 127
11, 60288, Note_on_c, 9, 70, 127
11, 60292, Note_off_c, 9, 36, 64
11, 60292, Note_off_c, 9, 70, 64
11, 60384, Note_on_c, 9, 70, 84
11, 60388, Note_off_c, 9, 70, 64
11, 60432, Note_on_c, 9, 70, 84
11, 60436, Note_off_c, 9, 70, 64
11, 60480, Note_on_c, 9, 36, 106
11, 60480, Note_on_c, 9, 38, 127
11, 60480, Note_on_c, 9, 70, 127
11, 60484, Note_off_c, 9, 36, 64
11, 60484, Note_off_c, 9, 38, 64
11, 60484, Note_off_c, 9, 70, 64
11, 60576, Note_on_c, 9, 70, 84
11, 60580, Note_off_c, 9, 70, 64
11, 60624, Note_on_c, 9, 70, 84
11, 60628, Note_off_c, 9, 70, 64
11, 60672, Pitch_bend_c, 9, 8192
11, 60672, Control_c, 9, 1, 0
11, 60672, Program_c, 9, 0
11, 60672, Control_c, 9, 64, 0
11, 60672, Control_c, 9, 10, 64
11, 60672, Note_on_c, 9, 36, 127
11, 60672, Note_on_c, 9, 70, 127
11, 60676, Note_off_c, 9, 36, 64
11, 60676, Note_off_c, 9, 70, 64
11, 60768, Note_on_c, 9, 70, 84
11, 60772, Note_off_c, 9, 70, 64
11, 60816, Note_on_c, 9, 70, 84
11, 60820, Note_off_c, 9, 70, 64
11, 60864, Note_on_c, 9, 36, 106
11, 60864, Note_on_c, 9, 38, 127
11, 60864, Note_on_c, 9, 70, 127
11, 60868, Note_off_c, 9, 36, 64
11, 60868, Note_off_c, 9, 38, 64
11, 60868, Note_off_c, 9, 70, 64
11, 60960, Note_on_c, 9, 70, 84
11, 60964, Note_off_c, 9, 70, 64
11, 61008, Note_on_c, 9, 70, 84
11, 61012, Note_off_c, 9, 70, 64
11, 61056, Note_on_c, 9, 36, 127
11, 61056, Note_on_c, 9, 70, 127
11, 61060, Note_off_c, 9, 36, 64
11, 61060, Note_off_c, 9, 70, 64
11, 61152, Note_on_c, 9, 70, 84
11, 61156, Note_off_c, 9, 70, 64
11, 61200, Note_on_c, 9, 70, 84
11, 61204, Note_off_c, 9, 70, 64
11, 61248, Note_on_c, 9, 36, 106
11, 61248, Note_on_c, 9, 38, 127
11, 61248, Note_on_c, 9, 70, 127
11, 61252, Note_off_c, 9, 36, 64
11, 61252, Note_off_c, 9, 38, 64
11, 61252, Note_off_c, 9, 70, 64
11, 61344, Note_on_c, 9, 70, 84
11, 61348, Note_off_c, 9, 70, 64
11, 61392, Note_on_c, 9, 70, 84
11, 61396, Note_off_c, 9, 70, 64
11, 61440, Pitch_bend_c, 9, 8192
11, 61440, Control_c, 9, 1, 0
11, 61440, Program_c, 9, 0
11, 61440, Control_c, 9, 64, 0
11, 61440, Control_c, 9, 10, 64
11, 61440, Note_on_c, 9, 36, 127
11, 61440, Note_on_c, 9, 70, 127
11, 61444, Note_off_c, 9, 36, 64
11, 61444, Note_off_c, 9, 70, 64
11, 61536, Note_on_c, 9, 70, 84
11, 61540, Note_off_c, 9, 70, 64
11, 61584, Note_on_c, 9, 70, 84
11, 61588, Note_off_c, 9, 70, 64
11, 61632, Note_on_c, 9, 36, 106
11, 61632, Note_on_c, 9, 38, 127
11, 61632, Note_on_c, 9, 70, 127
11, 61636, Note_off_c, 9, 36, 64
11, 61636, Note_off_c, 9, 38, 64
11, 61636, Note_off_c, 9, 70, 64
11, 61728, Note_on_c, 9, 70, 84
11, 61732, Note_off_c, 9, 70, 64
11, 61776, Note_on_c, 9, 70, 84
11, 61780, Note_off_c, 9, 70, 64
11, 61824, Note_on_c, 9, 36, 127
11, 61824, Note_on_c, 9, 70, 127
11, 61828, Note_off_c, 9, 36, 64
11, 61828, Note_off_c, 9, 70, 64
11, 61920, Note_on_c, 9, 70, 84
11, 61924, Note_off_c, 9, 70, 64
11, 61968, Note_on_c, 9, 70, 84
11, 61972, Note_off_c, 9, 70, 64
11, 62016, Note_on_c, 9, 36, 106
11, 62016, Note_on_c, 9, 38, 127
11, 62016, Note_on_c, 9, 70, 127
11, 62020, Note_off_c, 9, 36, 64
11, 62020, Note_off_c, 9, 38, 64
11, 62020, Note_off_c, 9, 70, 64
11, 62112, Note_on_c, 9, 70, 84
11, 62116, Note_off_c, 9, 70, 64
11, 62160, Note_on_c, 9, 70, 84
11, 62164, Note_off_c, 9, 70, 64
11, 62208, Pitch_bend_c, 9, 8192
11, 62208, Control_c, 9, 1, 0
11, 62208, Program_c, 9, 0
11, 62208, Control_c, 9, 64, 0
11, 62208, Control_c, 9, 10, 64
11, 62208, Note_on_c, 9, 36, 127
11, 62208, Note_on_c, 9, 70, 127
11, 62212, Note_off_c, 9, 36, 64
11, 62212, Note_off_c, 9, 70, 64
11, 62304, Note_on_c, 9, 70, 84
11, 62308, Note_off_c, 9, 70, 64
11, 62352, Note_on_c, 9, 70, 84
11, 62356, Note_off_c, 9, 70, 64
11, 62400, Note_on_c, 9, 36, 106
11, 62400, Note_on_c, 9, 38, 127
11, 62400, Note_on_c, 9, 70, 127
11, 62404, Note_off_c, 9, 36, 64
11, 62404, Note_off_c, 9, 38, 64
11, 62404, Note_off_c, 9, 70, 64
11, 62496, Note_on_c, 9, 70, 84
11, 62500, Note_off_c, 9, 70, 64
11, 62544, Note_on_c, 9, 70, 84
11, 62548, Note_off_c, 9, 70, 64
11, 62592, Note_on_c, 9, 36, 127
11, 62592, Note_on_c, 9, 70, 127
11, 62596, Note_off_c, 9, 36, 64
11, 62596, Note_off_c, 9, 70, 64
11, 62688, Note_on_c, 9, 70, 84
11, 62692, Note_off_c, 9, 70, 64
11, 62736, Note_on_c, 9, 70, 84
11, 62740, Note_off_c, 9, 70, 64
11, 62784, Note_on_c, 9, 36, 106
11, 62784, Note_on_c, 9, 38, 127
11, 62784, Note_on_c, 9, 70, 127
11, 62788, Note_off_c, 9, 36, 64
11, 62788, Note_off_c, 9, 38, 64
11, 62788, Note_off_c, 9, 70, 64
11, 62880, Note_on_c, 9, 70, 84
11, 62884, Note_off_c, 9, 70, 64
11, 62928, Note_on_c, 9, 70, 84
11, 62932, Note_off_c, 9, 70, 64
11, 62976, Pitch_bend_c, 9, 8192
11, 62976, Control_c, 9, 1, 0
11, 62976, Program_c, 9, 0
11, 62976, Control_c, 9, 64, 0
11, 62976, Control_c, 9, 10, 64
11, 62976, Note_on_c, 9, 36, 127
11, 62976, Note_on_c, 9, 70, 127
11, 62980, Note_off_c, 9, 36, 64
11, 62980, Note_off_c, 9, 70, 64
11, 63072, Note_on_c, 9, 70, 84
11, 63076, Note_off_c, 9, 70, 64
11, 63120, Note_on_c, 9, 70, 84
11, 63124, Note_off_c, 9, 70, 64
11, 63168, Note_on_c, 9, 36, 106
11, 63168, Note_on_c, 9, 38, 127
11, 63168, Note_on_c, 9, 70, 127
11, 63172, Note_off_c, 9, 36, 64
11, 63172, Note_off_c, 9, 38, 64
11, 63172, Note_off_c, 9, 70, 64
11, 63264, Note_on_c, 9, 70, 84
11, 63268, Note_off_c, 9, 70, 64
11, 63312, Note_on_c, 9, 70, 84
11, 63316, Note_off_c, 9, 70, 64
11, 63360, Note_on_c, 9, 36, 127
11, 63360, Note_on_c, 9, 70, 127
11, 63364, Note_off_c, 9, 36, 64
11, 63364, Note_off_c, 9, 70, 64
11, 63456, Note_on_c, 9, 70, 84
11, 63460, Note_off_c, 9, 70, 64
11, 63504, Note_on_c, 9, 70, 84
11, 63508, Note_off_c, 9, 70, 64
11, 63552, Note_on_c, 9, 36, 106
11, 63552, Note_on_c, 9, 38, 127
11, 63552, Note_on_c, 9, 70, 127
11, 63556, Note_off_c, 9, 36, 64
11, 63556, Note_off_c, 9, 38, 64
11, 63556, Note_off_c, 9, 70, 64
11, 63648, Note_on_c, 9, 70, 84
11, 63652, Note_off_c, 9, 70, 64
11, 63696, Note_on_c, 9, 70, 84
11, 63700, Note_off_c, 9, 70, 64
11, 63744, Pitch_bend_c, 9, 8192
11, 63744, Control_c, 9, 1, 0
11, 63744, Program_c, 9, 0
11, 63744, Control_c, 9, 64, 0
11, 63744, Control_c, 9, 10, 64
11, 63744, Note_on_c, 9, 36, 127
11, 63744, Note_on_c, 9, 70, 127
11, 63748, Note_off_c, 9, 36, 64
11, 63748, Note_off_c, 9, 70, 64
11, 63840, Note_on_c, 9, 70, 84
11, 63844, Note_off_c, 9, 70, 64
11, 63888, Note_on_c, 9, 70, 84
11, 63892, Note_off_c, 9, 70, 64
11, 63936, Note_on_c, 9, 36, 106
11, 63936, Note_on_c, 9, 38, 127
11, 63936, Note_on_c, 9, 70, 127
11, 63940, Note_off_c, 9, 36, 64
11, 63940, Note_off_c, 9, 38, 64
11, 63940, Note_off_c, 9, 70, 64
11, 64032, Note_on_c, 9, 70, 84
11, 64036, Note_off_c, 9, 70, 64
11, 64080, Note_on_c, 9, 70, 84
11, 64084, Note_off_c, 9, 70, 64
11, 64128, Note_on_c, 9, 36, 127
11, 64128, Note_on_c, 9, 70, 127
11, 64132, Note_off_c, 9, 36, 64
11, 64132, Note_off_c, 9, 70, 64
11, 64224, Note_on_c, 9, 70, 84
11, 64228, Note_off_c, 9, 70, 64
11, 64272, Note_on_c, 9, 70, 84
11, 64276, Note_off_c, 9, 70, 64
11, 64320, Note_on_c, 9, 36, 106
11, 64320, Note_on_c, 9, 38, 127
11, 64320, Note_on_c, 9, 70, 127
11, 64324, Note_off_c, 9, 36, 64
11, 64324, Note_off_c, 9, 38, 64
11, 64324, Note_off_c, 9, 70, 64
11, 64416, Note_on_c, 9, 70, 84
11, 64420, Note_off_c, 9, 70, 64
11, 64464, Note_on_c, 9, 70, 84
11, 64468, Note_off_c, 9, 70, 64
11, 64512, Pitch_bend_c, 9, 8192
11, 64512, Control_c, 9, 1, 0
11, 64512, Program_c, 9, 0
11, 64512, Control_c, 9, 64, 0
11, 64512, Control_c, 9, 10, 64
11, 64512, Note_on_c, 9, 36, 127
11, 64512, Note_on_c, 9, 70, 127
11, 64516, Note_off_c, 9, 36, 64
11, 64516, Note_off_c, 9, 70, 64
11, 64608, Note_on_c, 9, 70, 84
11, 64612, Note_off_c, 9, 70, 64
11, 64656, Note_on_c, 9, 70, 84
11, 64660, Note_off_c, 9, 70, 64
11, 64704, Note_on_c, 9, 36, 106
11, 64704, Note_on_c, 9, 38, 127
11, 64704, Note_on_c, 9, 70, 127
11, 64708, Note_off_c, 9, 36, 64
11, 64708, Note_off_c, 9, 38, 64
11, 64708, Note_off_c, 9, 70, 64
11, 64800, Note_on_c, 9, 70, 84
11, 64804, Note_off_c, 9, 70, 64
11, 64848, Note_on_c, 9, 70, 84
11, 64852, Note_off_c, 9, 70, 64
11, 64896, Note_on_c, 9, 36, 127
11, 64896, Note_on_c, 9, 70, 127
11, 64900, Note_off_c, 9, 36, 64
11, 64900, Note_off_c, 9, 70, 64
11, 64992, Note_on_c, 9, 70, 84
11, 64996, Note_off_c, 9, 70, 64
11, 65040, Note_on_c, 9, 70, 84
11, 65044, Note_off_c, 9, 70, 64
11, 65088, Note_on_c, 9, 36, 106
11, 65088, Note_on_c, 9, 38, 127
11, 65088, Note_on_c, 9, 70, 127
11, 65092, Note_off_c, 9, 36, 64
11, 65092, Note_off_c, 9, 38, 64
11, 65092, Note_off_c, 9, 70, 64
11, 65184, Note_on_c, 9, 70, 84
11, 65188, Note_off_c, 9, 70, 64
11, 65232, Note_on_c, 9, 70, 84
11, 65236, Note_off_c, 9, 70, 64
11, 65280, Pitch_bend_c, 9, 8192
11, 65280, Control_c, 9, 1, 0
11, 65280, Program_c, 9, 0
11, 65280, Control_c, 9, 64, 0
11, 65280, Control_c, 9, 10, 64
11, 65280, Note_on_c, 9, 36, 127
11, 65280, Note_on_c, 9, 70, 127
11, 65284, Note_off_c, 9, 36, 64
11, 65284, Note_off_c, 9, 70, 64
11, 65376, Note_on_c, 9, 70, 84
11, 65380, Note_off_c, 9, 70, 64
11, 65424, Note_on_c, 9, 70, 84
11, 65428, Note_off_c, 9, 70, 64
11, 65472, Note_on_c, 9, 36, 106
11, 65472, Note_on_c, 9, 38, 127
11, 65472, Note_on_c, 9, 70, 127
11, 65476, Note_off_c, 9, 36, 64
11, 65476, Note_off_c, 9, 38, 64
11, 65476, Note_off_c, 9, 70, 64
11, 65568, Note_on_c, 9, 70, 84
11, 65572, Note_off_c, 9, 70, 64
11, 65616, Note_on_c, 9, 70, 84
11, 65620, Note_off_c, 9, 70, 64
11, 65664, Note_on_c, 9, 36, 127
11, 65664, Note_on_c, 9, 70, 127
11, 65668, Note_off_c, 9, 36, 64
11, 65668, Note_off_c, 9, 70, 64
11, 65760, Note_on_c, 9, 70, 84
11, 65764, Note_off_c, 9, 70, 64
11, 65808, Note_on_c, 9, 70, 84
11, 65812, Note_off_c, 9, 70, 64
11, 65856, Note_on_c, 9, 36, 106
11, 65856, Note_on_c, 9, 38, 127
11, 65856, Note_on_c, 9, 70, 127
11, 65860, Note_off_c, 9, 36, 64
11, 65860, Note_off_c, 9, 38, 64
11, 65860, Note_off_c, 9, 70, 64
11, 65952, Note_on_c, 9, 70, 84
11, 65956, Note_off_c, 9, 70, 64
11, 66000, Note_on_c, 9, 70, 84
11, 66004, Note_off_c, 9, 70, 64
11, 66048, Pitch_bend_c, 9, 8192
11, 66048, Control_c, 9, 1, 0
11, 66048, Program_c, 9, 0
11, 66048, Control_c, 9, 64, 0
11, 66048, Control_c, 9, 10, 64
11, 66048, Note_on_c, 9, 36, 127
11, 66048, Note_on_c, 9, 70, 127
11, 66052, Note_off_c, 9, 36, 64
11, 66052, Note_off_c, 9, 70, 64
11, 66144, Note_on_c, 9, 70, 84
11, 66148, Note_off_c, 9, 70, 64
11, 66192, Note_on_c, 9, 70, 84
11, 66196, Note_off_c, 9, 70, 64
11, 66240, Note_on_c, 9, 36, 106
11, 66240, Note_on_c, 9, 38, 127
11, 66240, Note_on_c, 9, 70, 127
11, 66244, Note_off_c, 9, 36, 64
11, 66244, Note_off_c, 9, 38, 64
11, 66244, Note_off_c, 9, 70, 64
11, 66336, Note_on_c, 9, 70, 84
11, 66340, Note_off_c, 9, 70, 64
11, 66384, Note_on_c, 9, 70, 84
11, 66388, Note_off_c, 9, 70, 64
11, 66432, Note_on_c, 9, 36, 127
11, 66432, Note_on_c, 9, 70, 127
11, 66436, Note_off_c, 9, 36, 64
11, 66436, Note_off_c, 9, 70, 64
11, 66528, Note_on_c, 9, 70, 84
11, 66532, Note_off_c, 9, 70, 64
11, 66576, Note_on_c, 9, 70, 84
11, 66580, Note_off_c, 9, 70, 64
11, 66624, Note_on_c, 9, 36, 106
11, 66624, Note_on_c, 9, 38, 127
11, 66624, Note_on_c, 9, 70, 127
11, 66628, Note_off_c, 9, 36, 64
11, 66628, Note_off_c, 9, 38, 64
11, 66628, Note_off_c, 9, 70, 64
11, 66720, Note_on_c, 9, 70, 84
11, 66724, Note_off_c, 9, 70, 64
11, 66768, Note_on_c, 9, 70, 84
11, 66772, Note_off_c, 9, 70, 64
11, 66816, Pitch_bend_c, 9, 8192
11, 66816, Control_c, 9, 1, 0
11, 66816, Program_c, 9, 0
11, 66816, Control_c, 9, 64, 0
11, 66816, Control_c, 9, 10, 64
11, 66816, Note_on_c, 9, 36, 127
11, 66816, Note_on_c, 9, 70, 127
11, 66820, Note_off_c, 9, 36, 64
11, 66820, Note_off_c, 9, 70, 64
11, 66912, Note_on_c, 9, 70, 84
11, 66916, Note_off_c, 9, 70, 64
11, 66960, Note_on_c, 9, 70, 84
11, 66964, Note_off_c, 9, 70, 64
11, 67008, Note_on_c, 9, 36, 106
11, 67008, Note_on_c, 9, 38, 127
11, 67008, Note_on_c, 9, 70, 127
11, 67012, Note_off_c, 9, 36, 64
11, 67012, Note_off_c, 9, 38, 64
11, 67012, Note_off_c, 9, 70, 64
11, 67104, Note_on_c, 9, 70, 84
11, 67108, Note_off_c, 9, 70, 64
11, 67152, Note_on_c, 9, 70, 84
11, 67156, Note_off_c, 9, 70, 64
11, 67200, Note_on_c, 9, 36, 127
11, 67200, Note_on_c, 9, 70, 127
11, 67204, Note_off_c, 9, 36, 64
11, 67204, Note_off_c, 9, 70, 64
11, 67296, Note_on_c, 9, 70, 84
11, 67300, Note_off_c, 9, 70, 64
11, 67344, Note_on_c, 9, 70, 84
11, 67348, Note_off_c, 9, 70, 64
11, 67392, Note_on_c, 9, 36, 106
11, 67392, Note_on_c, 9, 38, 127
11, 67392, Note_on_c, 9, 70, 127
11, 67396, Note_off_c, 9, 36, 64
11, 67396, Note_off_c, 9, 38, 64
11, 67396, Note_off_c, 9, 70, 64
11, 67488, Note_on_c, 9, 70, 84
11, 67492, Note_off_c, 9, 70, 64
11, 67536, Note_on_c, 9, 70, 84
11, 67540, Note_off_c, 9, 70, 64
11, 67584, Pitch_bend_c, 9, 8192
11, 67584, Control_c, 9, 1, 0
11, 67584, Program_c, 9, 0
11, 67584, Control_c, 9, 64, 0
11, 67584, Control_c, 9, 10, 64
11, 67584, Note_on_c, 9, 36, 127
11, 67584, Note_on_c, 9, 70, 127
11, 67588, Note_off_c, 9, 36, 64
11, 67588, Note_off_c, 9, 70, 64
11, 67680, Note_on_c, 9, 70, 84
11, 67684, Note_off_c, 9, 70, 64
11, 67728, Note_on_c, 9, 70, 84
11, 67732, Note_off_c, 9, 70, 64
11, 67776, Note_on_c, 9, 36, 106
11, 67776, Note_on_c, 9, 38, 127
11, 67776, Note_on_c, 9, 70, 127
11, 67780, Note_off_c, 9, 36, 64
11, 67780, Note_off_c, 9, 38, 64
11, 67780, Note_off_c, 9, 70, 64
11, 67872, Note_on_c, 9, 70, 84
11, 67876, Note_off_c, 9, 70, 64
11, 67920, Note_on_c, 9, 70, 84
11, 67924, Note_off_c, 9, 70, 64
11, 67968, Note_on_c, 9, 36, 127
11, 67968, Note_on_c, 9, 70, 127
11, 67972, Note_off_c, 9, 36, 64
11, 67972, Note_off_c, 9, 70, 64
11, 68064, Note_on_c, 9, 70, 84
11, 68068, Note_off_c, 9, 70, 64
11, 68112, Note_on_c, 9, 70, 84
11, 68116, Note_off_c, 9, 70, 64
11, 68160, Note_on_c, 9, 36, 106
11, 68160, Note_on_c, 9, 38, 127
11, 68160, Note_on_c, 9, 70, 127
11, 68164, Note_off_c, 9, 36, 64
11, 68164, Note_off_c, 9, 38, 64
11, 68164, Note_off_c, 9, 70, 64
11, 68256, Note_on_c, 9, 36, 127
11, 68256, Note_on_c, 9, 70, 84
11, 68260, Note_off_c, 9, 36, 64
11, 68260, Note_off_c, 9, 70, 64
11, 68304, Note_on_c, 9, 70, 84
11, 68308, Note_off_c, 9, 70, 64
11, 68352, Pitch_bend_c, 9, 8192
11, 68352, Control_c, 9, 1, 0
11, 68352, Program_c, 9, 0
11, 68352, Control_c, 9, 64, 0
11, 68352, Control_c, 9, 10, 64
11, 68352, Note_on_c, 9, 36, 127
11, 68352, Note_on_c, 9, 49, 106
11, 68352, Note_on_c, 9, 70, 127
11, 68356, Note_off_c, 9, 36, 64
11, 68356, Note_off_c, 9, 49, 64
11, 68356, Note_off_c, 9, 70, 64
11, 68448, Note_on_c, 9, 70, 84
11, 68452, Note_off_c, 9, 70, 64
11, 68496, Note_on_c, 9, 70, 84
11, 68500, Note_off_c, 9, 70, 64
11, 68544, Note_on_c, 9, 36, 106
11, 68544, Note_on_c, 9, 38, 127
11, 68544, Note_on_c, 9, 70, 127
11, 68548, Note_off_c, 9, 36, 64
11, 68548, Note_off_c, 9, 38, 64
11, 68548, Note_off_c, 9, 70, 64
11, 68640, Note_on_c, 9, 70, 84
11, 68644, Note_off_c, 9, 70, 64
11, 68688, Note_on_c, 9, 70, 84
11, 68692, Note_off_c, 9, 70, 64
11, 68736, Note_on_c, 9, 36, 127
11, 68736, Note_on_c, 9, 70, 127
11, 68740, Note_off_c, 9, 36, 64
11, 68740, Note_off_c, 9, 70, 64
11, 68832, Note_on_c, 9, 70, 84
11, 68836, Note_off_c, 9, 70, 64
11, 68880, Note_on_c, 9, 70, 84
11, 68884, Note_off_c, 9, 70, 64
11, 68928, Note_on_c, 9, 36, 106
11, 68928, Note_on_c, 9, 38, 127
11, 68928, Note_on_c, 9, 70, 127
11, 68932, Note_off_c, 9, 36, 64
11, 68932, Note_off_c, 9, 38, 64
11, 68932, Note_off_c, 9, 70, 64
11, 69024, Note_on_c, 9, 70, 84
11, 69028, Note_off_c, 9, 70, 64
11, 69072, Note_on_c, 9, 70, 84
11, 69076, Note_off_c, 9, 70, 64
11, 69120, Pitch_bend_c, 9, 8192
11, 69120, Control_c, 9, 1, 0
11, 69120, Program_c, 9, 0
11, 69120, Control_c, 9, 64, 0
11, 69120, Control_c, 9, 10, 64
11, 69120, Note_on_c, 9, 36, 127
11, 69120, Note_on_c, 9, 70, 127
11, 69124, Note_off_c, 9, 36, 64
11, 69124, Note_off_c, 9, 70, 64
11, 69216, Note_on_c, 9, 70, 84
11, 69220, Note_off_c, 9, 70, 64
11, 69264, Note_on_c, 9, 70, 84
11, 69268, Note_off_c, 9, 70, 64
11, 69312, Note_on_c, 9, 36, 106
11, 69312, Note_on_c, 9, 38, 127
11, 69312, Note_on_c, 9, 70, 127
11, 69316, Note_off_c, 9, 36, 64
11, 69316, Note_off_c, 9, 38, 64
11, 69316, Note_off_c, 9, 70, 64
11, 69408, Note_on_c, 9, 70, 84
11, 69412, Note_off_c, 9, 70, 64
11, 69456, Note_on_c, 9, 70, 84
11, 69460, Note_off_c, 9, 70, 64
11, 69504, Note_on_c, 9, 36, 127
11, 69504, Note_on_c, 9, 70, 127
11, 69508, Note_off_c, 9, 36, 64
11, 69508, Note_off_c, 9, 70, 64
11, 69600, Note_on_c, 9, 70, 84
11, 69604, Note_off_c, 9, 70, 64
11, 69648, Note_on_c, 9, 70, 84
11, 69652, Note_off_c, 9, 70, 64
11, 69696, Note_on_c, 9, 36, 106
11, 69696, Note_on_c, 9, 38, 127
11, 69696, Note_on_c, 9, 70, 127
11, 69700, Note_off_c, 9, 36, 64
11, 69700, Note_off_c, 9, 38, 64
11, 69700, Note_off_c, 9, 70, 64
11, 69792, Note_on_c, 9, 70, 84
11, 69796, Note_off_c, 9, 70, 64
11, 69840, Note_on_c, 9, 70, 84
11, 69844, Note_off_c, 9, 70, 64
11, 69888, Pitch_bend_c, 9, 8192
11, 69888, Control_c, 9, 1, 0
11, 69888, Program_c, 9, 0
11, 69888, Control_c, 9, 64, 0
11, 69888, Control_c, 9, 10, 64
11, 69888, Note_on_c, 9, 36, 127
11, 69888, Note_on_c, 9, 70, 127
11, 69892, Note_off_c, 9, 36, 64
11, 69892, Note_off_c, 9, 70, 64
11, 69984, Note_on_c, 9, 70, 84
11, 69988, Note_off_c, 9, 70, 64
11, 70032, Note_on_c, 9, 70, 84
11, 70036, Note_off_c, 9, 70, 64
11, 70080, Note_on_c, 9, 36, 106
11, 70080, Note_on_c, 9, 38, 127
11, 70080, Note_on_c, 9, 70, 127
11, 70084, Note_off_c, 9, 36, 64
11, 70084, Note_off_c, 9, 38, 64
11, 70084, Note_off_c, 9, 70, 64
11, 70176, Note_on_c, 9, 70, 84
11, 70180, Note_off_c, 9, 70, 64
11, 70224, Note_on_c, 9, 70, 84
11, 70228, Note_off_c, 9, 70, 64
11, 70272, Note_on_c, 9, 36, 127
11, 70272, Note_on_c, 9, 70, 127
11, 70276, Note_off_c, 9, 36, 64
11, 70276, Note_off_c, 9, 70, 64
11, 70368, Note_on_c, 9, 70, 84
11, 70372, Note_off_c, 9, 70, 64
11, 70416, Note_on_c, 9, 70, 84
11, 70420, Note_off_c, 9, 70, 64
11, 70464, Note_on_c, 9, 36, 106
11, 70464, Note_on_c, 9, 38, 127
11, 70464, Note_on_c, 9, 70, 127
11, 70468, Note_off_c, 9, 36, 64
11, 70468, Note_off_c, 9, 38, 64
11, 70468, Note_off_c, 9, 70, 64
11, 70560, Note_on_c, 9, 70, 84
11, 70564, Note_off_c, 9, 70, 64
11, 70608, Note_on_c, 9, 70, 84
11, 70612, Note_off_c, 9, 70, 64
11, 70656, Pitch_bend_c, 9, 8192
11, 70656, Control_c, 9, 1, 0
11, 70656, Program_c, 9, 0
11, 70656, Control_c, 9, 64, 0
11, 70656, Control_c, 9, 10, 64
11, 70656, Note_on_c, 9, 36, 127
11, 70656, Note_on_c, 9, 70, 127
11, 70660, Note_off_c, 9, 36, 64
11, 70660, Note_off_c, 9, 70, 64
11, 70752, Note_on_c, 9, 70, 84
11, 70756, Note_off_c, 9, 70, 64
11, 70800, Note_on_c, 9, 70, 84
11, 70804, Note_off_c, 9, 70, 64
11, 70848, Note_on_c, 9, 36, 106
11, 70848, Note_on_c, 9, 38, 127
11, 70848, Note_on_c, 9, 70, 127
11, 70852, Note_off_c, 9, 36, 64
11, 70852, Note_off_c, 9, 38, 64
11, 70852, Note_off_c, 9, 70, 64
11, 70944, Note_on_c, 9, 70, 84
11, 70948, Note_off_c, 9, 70, 64
11, 70992, Note_on_c, 9, 70, 84
11, 70996, Note_off_c, 9, 70, 64
11, 71040, Note_on_c, 9, 36, 127
11, 71040, Note_on_c, 9, 70, 127
11, 71044, Note_off_c, 9, 36, 64
11, 71044, Note_off_c, 9, 70, 64
11, 71136, Note_on_c, 9, 70, 84
11, 71140, Note_off_c, 9, 70, 64
11, 71184, Note_on_c, 9, 70, 84
11, 71188, Note_off_c, 9, 70, 64
11, 71232, Note_on_c, 9, 36, 106
11, 71232, Note_on_c, 9, 38, 127
11, 71232, Note_on_c, 9, 70, 127
11, 71236, Note_off_c, 9, 36, 64
11, 71236, Note_off_c, 9, 38, 64
11, 71236, Note_off_c, 9, 70, 64
11, 71328, Note_on_c, 9, 70, 84
11, 71332, Note_off_c, 9, 70, 64
11, 71376, Note_on_c, 9, 70, 84
11, 71380, Note_off_c, 9, 70, 64
11, 71424, Pitch_bend_c, 9, 8192
11, 71424, Control_c, 9, 1, 0
11, 71424, Program_c, 9, 0
11, 71424, Control_c, 9, 64, 0
11, 71424, Control_c, 9, 10, 64
11, 71424, Note_on_c, 9, 36, 127
11, 71424, Note_on_c, 9, 70, 127
11, 71428, Note_off_c, 9, 36, 64
11, 71428, Note_off_c, 9, 70, 64
11, 71520, Note_on_c, 9, 70, 84
11, 71524, Note_off_c, 9, 70, 64
11, 71568, Note_on_c, 9, 70, 84
11, 71572, Note_off_c, 9, 70, 64
11, 71616, Note_on_c, 9, 36, 106
11, 71616, Note_on_c, 9, 38, 127
11, 71616, Note_on_c, 9, 70, 127
11, 71620, Note_off_c, 9, 36, 64
11, 71620, Note_off_c, 9, 38, 64
11, 71620, Note_off_c, 9, 70, 64
11, 71712, Note_on_c, 9, 70, 84
11, 71716, Note_off_c, 9, 70, 64
11, 71760, Note_on_c, 9, 70, 84
11, 71764, Note_off_c, 9, 70, 64
11, 71808, Note_on_c, 9, 36, 127
11, 71808, Note_on_c, 9, 70, 127
11, 71812, Note_off_c, 9, 36, 64
11, 71812, Note_off_c, 9, 70, 64
11, 71904, Note_on_c, 9, 70, 84
11, 71908, Note_off_c, 9, 70, 64
11, 71952, Note_on_c, 9, 70, 84
11, 71956, Note_off_c, 9, 70, 64
11, 72000, Note_on_c, 9, 36, 106
11, 72000, Note_on_c, 9, 38, 127
11, 72000, Note_on_c, 9, 70, 127
11, 72004, Note_off_c, 9, 36, 64
11, 72004, Note_off_c, 9, 38, 64
11, 72004, Note_off_c, 9, 70, 64
11, 72096, Note_on_c, 9, 70, 84
11, 72100, Note_off_c, 9, 70, 64
11, 72144, Note_on_c, 9, 70, 84
11, 72148, Note_off_c, 9, 70, 64
11, 72192, Pitch_bend_c, 9, 8192
11, 72192, Control_c, 9, 1, 0
11, 72192, Program_c, 9, 0
11, 72192, Control_c, 9, 64, 0
11, 72192, Control_c, 9, 10, 64
11, 72192, Note_on_c, 9, 36, 127
11, 72192, Note_on_c, 9, 70, 127
11, 72196, Note_off_c, 9, 36, 64
11, 72196, Note_off_c, 9, 70, 64
11, 72288, Note_on_c, 9, 70, 84
11, 72292, Note_off_c, 9, 70, 64
11, 72336, Note_on_c, 9, 70, 84
11, 72340, Note_off_c, 9, 70, 64
11, 72384, Note_on_c, 9, 36, 106
11, 72384, Note_on_c, 9, 38, 127
11, 72384, Note_on_c, 9, 70, 127
11, 72388, Note_off_c, 9, 36, 64
11, 72388, Note_off_c, 9, 38, 64
11, 72388, Note_off_c, 9, 70, 64
11, 72480, Note_on_c, 9, 70, 84
11, 72484, Note_off_c, 9, 70, 64
11, 72528, Note_on_c, 9, 70, 84
11, 72532, Note_off_c, 9, 70, 64
11, 72576, Note_on_c, 9, 36, 127
11, 72576, Note_on_c, 9, 70, 127
11, 72580, Note_off_c, 9, 36, 64
11, 72580, Note_off_c, 9, 70, 64
11, 72672, Note_on_c, 9, 70, 84
11, 72676, Note_off_c, 9, 70, 64
11, 72720, Note_on_c, 9, 70, 84
11, 72724, Note_off_c, 9, 70, 64
11, 72768, Note_on_c, 9, 36, 106
11, 72768, Note_on_c, 9, 38, 127
11, 72768, Note_on_c, 9, 70, 127
11, 72772, Note_off_c, 9, 36, 64
11, 72772, Note_off_c, 9, 38, 64
11, 72772, Note_off_c, 9, 70, 64
11, 72864, Note_on_c, 9, 70, 84
11, 72868, Note_off_c, 9, 70, 64
11, 72912, Note_on_c, 9, 70, 84
11, 72916, Note_off_c, 9, 70, 64
11, 72960, Pitch_bend_c, 9, 8192
11, 72960, Control_c, 9, 1, 0
11, 72960, Program_c, 9, 0
11, 72960, Control_c, 9, 64, 0
11, 72960, Control_c, 9, 10, 64
11, 72960, Note_on_c, 9, 36, 127
11, 72960, Note_on_c, 9, 70, 127
11, 72964, Note_off_c, 9, 36, 64
11, 72964, Note_off_c, 9, 70, 64
11, 73056, Note_on_c, 9, 70, 84
11, 73060, Note_off_c, 9, 70, 64
11, 73104, Note_on_c, 9, 70, 84
11, 73108, Note_off_c, 9, 70, 64
11, 73152, Note_on_c, 9, 36, 106
11, 73152, Note_on_c, 9, 38, 127
11, 73152, Note_on_c, 9, 70, 127
11, 73156, Note_off_c, 9, 36, 64
11, 73156, Note_off_c, 9, 38, 64
11, 73156, Note_off_c, 9, 70, 64
11, 73248, Note_on_c, 9, 70, 84
11, 73252, Note_off_c, 9, 70, 64
11, 73296, Note_on_c, 9, 70, 84
11, 73300, Note_off_c, 9, 70, 64
11, 73344, Note_on_c, 9, 36, 127
11, 73344, Note_on_c, 9, 70, 127
11, 73348, Note_off_c, 9, 36, 64
11, 73348, Note_off_c, 9, 70, 64
11, 73440, Note_on_c, 9, 70, 84
11, 73444, Note_off_c, 9, 70, 64
11, 73488, Note_on_c, 9, 70, 84
11, 73492, Note_off_c, 9, 70, 64
11, 73536, Note_on_c, 9, 36, 106
11, 73536, Note_on_c, 9, 38, 127
11, 73536, Note_on_c, 9, 70, 127
11, 73540, Note_off_c, 9, 36, 64
11, 73540, Note_off_c, 9, 38, 64
11, 73540, Note_off_c, 9, 70, 64
11, 73632, Note_on_c, 9, 70, 84
11, 73636, Note_off_c, 9, 70, 64
11, 73680, Note_on_c, 9, 70, 84
11, 73684, Note_off_c, 9, 70, 64
11, 73728, Pitch_bend_c, 9, 8192
11, 73728, Control_c, 9, 1, 0
11, 73728, Program_c, 9, 0
11, 73728, Control_c, 9, 64, 0
11, 73728, Control_c, 9, 10, 64
11, 73728, Note_on_c, 9, 36, 127
11, 73728, Note_on_c, 9, 70, 127
11, 73732, Note_off_c, 9, 36, 64
11, 73732, Note_off_c, 9, 70, 64
11, 73824, Note_on_c, 9, 70, 84
11, 73828, Note_off_c, 9, 70, 64
11, 73872, Note_on_c, 9, 70, 84
11, 73876, Note_off_c, 9, 70, 64
11, 73920, Note_on_c, 9, 36, 106
11, 73920, Note_on_c, 9, 38, 127
11, 73920, Note_on_c, 9, 70, 127
11, 73924, Note_off_c, 9, 36, 64
11, 73924, Note_off_c, 9, 38, 64
11, 73924, Note_off_c, 9, 70, 64
11, 74016, Note_on_c, 9, 70, 84
11, 74020, Note_off_c, 9, 70, 64
11, 74064, Note_on_c, 9, 70, 84
11, 74068, Note_off_c, 9, 70, 64
11, 74112, Note_on_c, 9, 36, 127
11, 74112, Note_on_c, 9, 70, 127
11, 74116, Note_off_c, 9, 36, 64
11, 74116, Note_off_c, 9, 70, 64
11, 74208, Note_on_c, 9, 70, 84
11, 74212, Note_off_c, 9, 70, 64
11, 74256, Note_on_c, 9, 70, 84
11, 74260, Note_off_c, 9, 70, 64
11, 74304, Note_on_c, 9, 36, 106
11, 74304, Note_on_c, 9, 38, 127
11, 74304, Note_on_c, 9, 70, 127
11, 74308, Note_off_c, 9, 36, 64
11, 74308, Note_off_c, 9, 38, 64
11, 74308, Note_off_c, 9, 70, 64
11, 74400, Note_on_c, 9, 36, 127
11, 74400, Note_on_c, 9, 70, 84
11, 74404, Note_off_c, 9, 36, 64
11, 74404, Note_off_c, 9, 70, 64
11, 74448, Note_on_c, 9, 70, 84
11, 74452, Note_off_c, 9, 70, 64
11, 74496, Pitch_bend_c, 9, 8192
11, 74496, Control_c, 9, 1, 0
11, 74496, Program_c, 9, 0
11, 74496, Control_c, 9, 64, 0
11, 74496, Control_c, 9, 10, 64
11, 74496, Note_on_c, 9, 36, 127
11, 74496, Note_on_c, 9, 49, 106
11, 74496, Note_on_c, 9, 70, 127
11, 74500, Note_off_c, 9, 36, 64
11, 74500, Note_off_c, 9, 49, 64
11, 74500, Note_off_c, 9, 70, 64
11, 74592, Note_on_c, 9, 70, 84
11, 74596, Note_off_c, 9, 70, 64
11, 74640, Note_on_c, 9, 70, 84
11, 74644, Note_off_c, 9, 70, 64
11, 74688, Note_on_c, 9, 36, 106
11, 74688, Note_on_c, 9, 38, 127
11, 74688, Note_on_c, 9, 70, 127
11, 74692, Note_off_c, 9, 36, 64
11, 74692, Note_off_c, 9, 38, 64
11, 74692, Note_off_c, 9, 70, 64
11, 74784, Note_on_c, 9, 70, 84
11, 74788, Note_off_c, 9, 70, 64
11, 74832, Note_on_c, 9, 70, 84
11, 74836, Note_off_c, 9, 70, 64
11, 74880, Note_on_c, 9, 36, 127
11, 74880, Note_on_c, 9, 70, 127
11, 74884, Note_off_c, 9, 36, 64
11, 74884, Note_off_c, 9, 70, 64
11, 74976, Note_on_c, 9, 70, 84
11, 74980, Note_off_c, 9, 70, 64
11, 75024, Note_on_c, 9, 70, 84
11, 75028, Note_off_c, 9, 70, 64
11, 75072, Note_on_c, 9, 36, 106
11, 75072, Note_on_c, 9, 38, 127
11, 75072, Note_on_c, 9, 70, 127
11, 75076, Note_off_c, 9, 36, 64
11, 75076, Note_off_c, 9, 38, 64
11, 75076, Note_off_c, 9, 70, 64
11, 75168, Note_on_c, 9, 70, 84
11, 75172, Note_off_c, 9, 70, 64
11, 75216, Note_on_c, 9, 70, 84
11, 75220, Note_off_c, 9, 70, 64
11, 75264, Pitch_bend_c, 9, 8192
11, 75264, Control_c, 9, 1, 0
11, 75264, Program_c, 9, 0
11, 75264, Control_c, 9, 64, 0
11, 75264, Control_c, 9, 10, 64
11, 75264, Note_on_c, 9, 36, 127
11, 75264, Note_on_c, 9, 70, 127
11, 75268, Note_off_c, 9, 36, 64
11, 75268, Note_off_c, 9, 70, 64
11, 75360, Note_on_c, 9, 70, 84
11, 75364, Note_off_c, 9, 70, 64
11, 75408, Note_on_c, 9, 70, 84
11, 75412, Note_off_c, 9, 70, 64
11, 75456, Note_on_c, 9, 36, 106
11, 75456, Note_on_c, 9, 38, 127
11, 75456, Note_on_c, 9, 70, 127
11, 75460, Note_off_c, 9, 36, 64
11, 75460, Note_off_c, 9, 38, 64
11, 75460, Note_off_c, 9, 70, 64
11, 75552, Note_on_c, 9, 70, 84
11, 75556, Note_off_c, 9, 70, 64
11, 75600, Note_on_c, 9, 70, 84
11, 75604, Note_off_c, 9, 70, 64
11, 75648, Note_on_c, 9, 36, 127
11, 75648, Note_on_c, 9, 70, 127
11, 75652, Note_off_c, 9, 36, 64
11, 75652, Note_off_c, 9, 70, 64
11, 75744, Note_on_c, 9, 70, 84
11, 75748, Note_off_c, 9, 70, 64
11, 75792, Note_on_c, 9, 70, 84
11, 75796, Note_off_c, 9, 70, 64
11, 75840, Note_on_c, 9, 36, 106
11, 75840, Note_on_c, 9, 38, 127
11, 75840, Note_on_c, 9, 70, 127
11, 75844, Note_off_c, 9, 36, 64
11, 75844, Note_off_c, 9, 38, 64
11, 75844, Note_off_c, 9, 70, 64
11, 75936, Note_on_c, 9, 70, 84
11, 75940, Note_off_c, 9, 70, 64
11, 75984, Note_on_c, 9, 70, 84
11, 75988, Note_off_c, 9, 70, 64
11, 76032, Pitch_bend_c, 9, 8192
11, 76032, Control_c, 9, 1, 0
11, 76032, Program_c, 9, 0
11, 76032, Control_c, 9, 64, 0
11, 76032, Control_c, 9, 10, 64
11, 76032, Note_on_c, 9, 36, 127
11, 76032, Note_on_c, 9, 70, 127
11, 76036, Note_off_c, 9, 36, 64
11, 76036, Note_off_c, 9, 70, 64
11, 76128, Note_on_c, 9, 70, 84
11, 76132, Note_off_c, 9, 70, 64
11, 76176, Note_on_c, 9, 70, 84
11, 76180, Note_off_c, 9, 70, 64
11, 76224, Note_on_c, 9, 36, 106
11, 76224, Note_on_c, 9, 38, 127
11, 76224, Note_on_c, 9, 70, 127
11, 76228, Note_off_c, 9, 36, 64
11, 76228, Note_off_c, 9, 38, 64
11, 76228, Note_off_c, 9, 70, 64
11, 76320, Note_on_c, 9, 70, 84
11, 76324, Note_off_c, 9, 70, 64
11, 76368, Note_on_c, 9, 70, 84
11, 76372, Note_off_c, 9, 70, 64
11, 76416, Note_on_c, 9, 36, 127
11, 76416, Note_on_c, 9, 70, 127
11, 76420, Note_off_c, 9, 36, 64
11, 76420, Note_off_c, 9, 70, 64
11, 76512, Note_on_c, 9, 70, 84
11, 76516, Note_off_c, 9, 70, 64
11, 76560, Note_on_c, 9, 70, 84
11, 76564, Note_off_c, 9, 70, 64
11, 76608, Note_on_c, 9, 36, 106
11, 76608, Note_on_c, 9, 38, 127
11, 76608, Note_on_c, 9, 70, 127
11, 76612, Note_off_c, 9, 36, 64
11, 76612, Note_off_c, 9, 38, 64
11, 76612, Note_off_c, 9, 70, 64
11, 76704, Note_on_c, 9, 70, 84
11, 76708, Note_off_c, 9, 70, 64
11, 76752, Note_on_c, 9, 70, 84
11, 76756, Note_off_c, 9, 70, 64
11, 76800, Pitch_bend_c, 9, 8192
11, 76800, Control_c, 9, 1, 0
11, 76800, Program_c, 9, 0
11, 76800, Control_c, 9, 64, 0
11, 76800, Control_c, 9, 10, 64
11, 76800, Note_on_c, 9, 36, 127
11, 76800, Note_on_c, 9, 70, 127
11, 76804, Note_off_c, 9, 36, 64
11, 76804, Note_off_c, 9, 70, 64
11, 76896, Note_on_c, 9, 70, 84
11, 76900, Note_off_c, 9, 70, 64
11, 76944, Note_on_c, 9, 70, 84
11, 76948, Note_off_c, 9, 70, 64
11, 76992, Note_on_c, 9, 36, 106
11, 76992, Note_on_c, 9, 38, 127
11, 76992, Note_on_c, 9, 70, 127
11, 76996, Note_off_c, 9, 36, 64
11, 76996, Note_off_c, 9, 38, 64
11, 76996, Note_off_c, 9, 70, 64
11, 77088, Note_on_c, 9, 70, 84
11, 77092, Note_off_c, 9, 70, 64
11, 77136, Note_on_c, 9, 70, 84
11, 77140, Note_off_c, 9, 70, 64
11, 77184, Note_on_c, 9, 36, 127
11, 77184, Note_on_c, 9, 70, 127
11, 77188, Note_off_c, 9, 36, 64
11, 77188, Note_off_c, 9, 70, 64
11, 77280, Note_on_c, 9, 70, 84
11, 77284, Note_off_c, 9, 70, 64
11, 77328, Note_on_c, 9, 70, 84
11, 77332, Note_off_c, 9, 70, 64
11, 77376, Note_on_c, 9, 36, 106
11, 77376, Note_on_c, 9, 38, 127
11, 77376, Note_on_c, 9, 70, 127
11, 77380, Note_off_c, 9, 36, 64
11, 77380, Note_off_c, 9, 38, 64
11, 77380, Note_off_c, 9, 70, 64
11, 77472, Note_on_c, 9, 70, 84
11, 77476, Note_off_c, 9, 70, 64
11, 77520, Note_on_c, 9, 70, 84
11, 77524, Note_off_c, 9, 70, 64
11, 77568, Control_c, 9, 7, 108
11, 77568, Pitch_bend_c, 9, 8192
11, 77568, Control_c, 9, 1, 0
11, 77568, Program_c, 9, 0
11, 77568, Control_c, 9, 64, 0
11, 77568, Control_c, 9, 10, 64
11, 77568, Note_on_c, 9, 36, 127
11, 77568, Note_on_c, 9, 70, 127
11, 77572, Note_off_c, 9, 36, 64
11, 77572, Note_off_c, 9, 70, 64
11, 77664, Control_c, 9, 7, 107
11, 77664, Note_on_c, 9, 70, 84
11, 77668, Note_off_c, 9, 70, 64
11, 77712, Note_on_c, 9, 70, 84
11, 77716, Note_off_c, 9, 70, 64
11, 77760, Control_c, 9, 7, 106
11, 77760, Note_on_c, 9, 36, 106
11, 77760, Note_on_c, 9, 38, 127
11, 77760, Note_on_c, 9, 70, 127
11, 77764, Note_off_c, 9, 36, 64
11, 77764, Note_off_c, 9, 38, 64
11, 77764, Note_off_c, 9, 70, 64
11, 77856, Control_c, 9, 7, 105
11, 77856, Note_on_c, 9, 70, 84
11, 77860, Note_off_c, 9, 70, 64
11, 77904, Note_on_c, 9, 70, 84
11, 77908, Note_off_c, 9, 70, 64
11, 77952, Control_c, 9, 7, 104
11, 77952, Note_on_c, 9, 36, 127
11, 77952, Note_on_c, 9, 70, 127
11, 77956, Note_off_c, 9, 36, 64
11, 77956, Note_off_c, 9, 70, 64
11, 78048, Control_c, 9, 7, 103
11, 78048, Note_on_c, 9, 70, 84
11, 78052, Note_off_c, 9, 70, 64
11, 78096, Note_on_c, 9, 70, 84
11, 78100, Note_off_c, 9, 70, 64
11, 78144, Control_c, 9, 7, 102
11, 78144, Note_on_c, 9, 36, 106
11, 78144, Note_on_c, 9, 38, 127
11, 78144, Note_on_c, 9, 70, 127
11, 78148, Note_off_c, 9, 36, 64
11, 78148, Note_off_c, 9, 38, 64
11, 78148, Note_off_c, 9, 70, 64
11, 78216, Control_c, 9, 7, 101
11, 78240, Note_on_c, 9, 70, 84
11, 78244, Note_off_c, 9, 70, 64
11, 78288, Note_on_c, 9, 70, 84
11, 78292, Note_off_c, 9, 70, 64
11, 78312, Control_c, 9, 7, 100
11, 78336, Pitch_bend_c, 9, 8192
11, 78336, Control_c, 9, 1, 0
11, 78336, Program_c, 9, 0
11, 78336, Control_c, 9, 64, 0
11, 78336, Control_c, 9, 10, 64
11, 78336, Note_on_c, 9, 36, 127
11, 78336, Note_on_c, 9, 70, 127
11, 78340, Note_off_c, 9, 36, 64
11, 78340, Note_off_c, 9, 70, 64
11, 78408, Control_c, 9, 7, 99
11, 78432, Note_on_c, 9, 70, 84
11, 78436, Note_off_c, 9, 70, 64
11, 78480, Note_on_c, 9, 70, 84
11, 78484, Note_off_c, 9, 70, 64
11, 78504, Control_c, 9, 7, 98
11, 78528, Note_on_c, 9, 36, 106
11, 78528, Note_on_c, 9, 38, 127
11, 78528, Note_on_c, 9, 70, 127
11, 78532, Note_off_c, 9, 36, 64
11, 78532, Note_off_c, 9, 38, 64
11, 78532, Note_off_c, 9, 70, 64
11, 78600, Control_c, 9, 7, 97
11, 78624, Note_on_c, 9, 70, 84
11, 78628, Note_off_c, 9, 70, 64
11, 78672, Note_on_c, 9, 70, 84
11, 78676, Note_off_c, 9, 70, 64
11, 78696, Control_c, 9, 7, 96
11, 78720, Note_on_c, 9, 36, 127
11, 78720, Note_on_c, 9, 70, 127
11, 78724, Note_off_c, 9, 36, 64
11, 78724, Note_off_c, 9, 70, 64
11, 78792, Control_c, 9, 7, 95
11, 78816, Note_on_c, 9, 70, 84
11, 78820, Note_off_c, 9, 70, 64
11, 78864, Control_c, 9, 7, 94
11, 78864, Note_on_c, 9, 70, 84
11, 78868, Note_off_c, 9, 70, 64
11, 78912, Note_on_c, 9, 36, 106
11, 78912, Note_on_c, 9, 38, 127
11, 78912, Note_on_c, 9, 70, 127
11, 78916, Note_off_c, 9, 36, 64
11, 78916, Note_off_c, 9, 38, 64
11, 78916, Note_off_c, 9, 70, 64
11, 78960, Control_c, 9, 7, 93
11, 79008, Note_on_c, 9, 70, 84
11, 79012, Note_off_c, 9, 70, 64
11, 79056, Control_c, 9, 7, 92
11, 79056, Note_on_c, 9, 70, 84
11, 79060, Note_off_c, 9, 70, 64
11, 79104, Pitch_bend_c, 9, 8192
11, 79104, Control_c, 9, 1, 0
11, 79104, Program_c, 9, 0
11, 79104, Control_c, 9, 64, 0
11, 79104, Control_c, 9, 10, 64
11, 79104, Note_on_c, 9, 36, 127
11, 79104, Note_on_c, 9, 70, 127
11, 79108, Note_off_c, 9, 36, 64
11, 79108, Note_off_c, 9, 70, 64
11, 79152, Control_c, 9, 7, 91
11, 79200, Note_on_c, 9, 70, 84
11, 79204, Note_off_c, 9, 70, 64
11, 79248, Control_c, 9, 7, 90
11, 79248, Note_on_c, 9, 70, 84
11, 79252, Note_off_c, 9, 70, 64
11, 79296, Note_on_c, 9, 36, 106
11, 79296, Note_on_c, 9, 38, 127
11, 79296, Note_on_c, 9, 70, 127
11, 79300, Note_off_c, 9, 36, 64
11, 79300, Note_off_c, 9, 38, 64
11, 79300, Note_off_c, 9, 70, 64
11, 79344, Control_c, 9, 7, 89
11, 79392, Note_on_c, 9, 70, 84
11, 79396, Note_off_c, 9, 70, 64
11, 79440, Control_c, 9, 7, 88
11, 79440, Note_on_c, 9, 70, 84
11, 79444, Note_off_c, 9, 70, 64
11, 79488, Note_on_c, 9, 36, 127
11, 79488, Note_on_c, 9, 70, 127
11, 79492, Note_off_c, 9, 36, 64
11, 79492, Note_off_c, 9, 70, 64
11, 79512, Control_c, 9, 7, 87
11, 79584, Note_on_c, 9, 70, 84
11, 79588, Note_off_c, 9, 70, 64
11, 79608, Control_c, 9, 7, 86
11, 79632, Note_on_c, 9, 70, 84
11, 79636, Note_off_c, 9, 70, 64
11, 79680, Note_on_c, 9, 36, 106
11, 79680, Note_on_c, 9, 38, 127
11, 79680, Note_on_c, 9, 70, 127
11, 79684, Note_off_c, 9, 36, 64
11, 79684, Note_off_c, 9, 38, 64
11, 79684, Note_off_c, 9, 70, 64
11, 79704, Control_c, 9, 7, 85
11, 79776, Note_on_c, 9, 70, 84
11, 79780, Note_off_c, 9, 70, 64
11, 79800, Control_c, 9, 7, 84
11, 79824, Note_on_c, 9, 70, 84
11, 79828, Note_off_c, 9, 70, 64
11, 79872, Pitch_bend_c, 9, 8192
11, 79872, Control_c, 9, 1, 0
11, 79872, Program_c, 9, 0
11, 79872, Control_c, 9, 64, 0
11, 79872, Control_c, 9, 10, 64
11, 79872, Note_on_c, 9, 36, 127
11, 79872, Note_on_c, 9, 70, 127
11, 79876, Note_off_c, 9, 36, 64
11, 79876, Note_off_c, 9, 70, 64
11, 79896, Control_c, 9, 7, 83
11, 79968, Note_on_c, 9, 70, 84
11, 79972, Note_off_c, 9, 70, 64
11, 79992, Control_c, 9, 7, 82
11, 80016, Note_on_c, 9, 70, 84
11, 80020, Note_off_c, 9, 70, 64
11, 80064, Control_c, 9, 7, 81
11, 80064, Note_on_c, 9, 36, 106
11, 80064, Note_on_c, 9, 38, 127
11, 80064, Note_on_c, 9, 70, 127
11, 80068, Note_off_c, 9, 36, 64
11, 80068, Note_off_c, 9, 38, 64
11, 80068, Note_off_c, 9, 70, 64
11, 80160, Control_c, 9, 7, 80
11, 80160, Note_on_c, 9, 70, 84
11, 80164, Note_off_c, 9, 70, 64
11, 80208, Note_on_c, 9, 70, 84
11, 80212, Note_off_c, 9, 70, 64
11, 80256, Control_c, 9, 7, 79
11, 80256, Note_on_c, 9, 36, 127
11, 80256, Note_on_c, 9, 70, 127
11, 80260, Note_off_c, 9, 36, 64
11, 80260, Note_off_c, 9, 70, 64
11, 80352, Control_c, 9, 7, 78
11, 80352, Note_on_c, 9, 70, 84
11, 80356, Note_off_c, 9, 70, 64
11, 80400, Note_on_c, 9, 70, 84
11, 80404, Note_off_c, 9, 70, 64
11, 80448, Control_c, 9, 7, 77
11, 80448, Note_on_c, 9, 36, 106
11, 80448, Note_on_c, 9, 38, 127
11, 80448, Note_on_c, 9, 70, 127
11, 80452, Note_off_c, 9, 36, 64
11, 80452, Note_off_c, 9, 38, 64
11, 80452, Note_off_c, 9, 70, 64
11, 80544, Control_c, 9, 7, 76
11, 80544, Note_on_c, 9, 36, 127
11, 80544, Note_on_c, 9, 70, 84
11, 80548, Note_off_c, 9, 36, 64
11, 80548, Note_off_c, 9, 70, 64
11, 80592, Note_on_c, 9, 70, 84
11, 80596, Note_off_c, 9, 70, 64
11, 80640, Pitch_bend_c, 9, 8192
11, 80640, Control_c, 9, 1, 0
11, 80640, Program_c, 9, 0
11, 80640, Control_c, 9, 64, 0
11, 80640, Control_c, 9, 10, 64
11, 80640, Note_on_c, 9, 36, 127
11, 80640, Note_on_c, 9, 49, 106
11, 80640, Note_on_c, 9, 70, 127
11, 80644, Note_off_c, 9, 36, 64
11, 80644, Note_off_c, 9, 49, 64
11, 80644, Note_off_c, 9, 70, 64
11, 80712, Control_c, 9, 7, 74
11, 80736, Note_on_c, 9, 70, 84
11, 80740, Note_off_c, 9, 70, 64
11, 80784, Note_on_c, 9, 70, 84
11, 80788, Note_off_c, 9, 70, 64
11, 80808, Control_c, 9, 7, 73
11, 80832, Note_on_c, 9, 36, 106
11, 80832, Note_on_c, 9, 38, 127
11, 80832, Note_on_c, 9, 70, 127
11, 80836, Note_off_c, 9, 36, 64
11, 80836, Note_off_c, 9, 38, 64
11, 80836, Note_off_c, 9, 70, 64
11, 80904, Control_c, 9, 7, 72
11, 80928, Note_on_c, 9, 70, 84
11, 80932, Note_off_c, 9, 70, 64
11, 80976, Note_on_c, 9, 70, 84
11, 80980, Note_off_c, 9, 70, 64
11, 81000, Control_c, 9, 7, 71
11, 81024, Note_on_c, 9, 36, 127
11, 81024, Note_on_c, 9, 70, 127
11, 81028, Note_off_c, 9, 36, 64
11, 81028, Note_off_c, 9, 70, 64
11, 81096, Control_c, 9, 7, 70
11, 81120, Note_on_c, 9, 70, 84
11, 81124, Note_off_c, 9, 70, 64
11, 81168, Note_on_c, 9, 70, 84
11, 81172, Note_off_c, 9, 70, 64
11, 81192, Control_c, 9, 7, 69
11, 81216, Note_on_c, 9, 36, 106
11, 81216, Note_on_c, 9, 38, 127
11, 81216, Note_on_c, 9, 70, 127
11, 81220, Note_off_c, 9, 36, 64
11, 81220, Note_off_c, 9, 38, 64
11, 81220, Note_off_c, 9, 70, 64
11, 81288, Control_c, 9, 7, 68
11, 81312, Note_on_c, 9, 70, 84
11, 81316, Note_off_c, 9, 70, 64
11, 81360, Control_c, 9, 7, 67
11, 81360, Note_on_c, 9, 70, 84
11, 81364, Note_off_c, 9, 70, 64
11, 81408, Pitch_bend_c, 9, 8192
11, 81408, Control_c, 9, 1, 0
11, 81408, Program_c, 9, 0
11, 81408, Control_c, 9, 64, 0
11, 81408, Control_c, 9, 10, 64
11, 81408, Note_on_c, 9, 36, 127
11, 81408, Note_on_c, 9, 70, 127
11, 81412, Note_off_c, 9, 36, 64
11, 81412, Note_off_c, 9, 70, 64
11, 81456, Control_c, 9, 7, 66
11, 81504, Note_on_c, 9, 70, 84
11, 81508, Note_off_c, 9, 70, 64
11, 81552, Control_c, 9, 7, 65
11, 81552, Note_on_c, 9, 70, 84
11, 81556, Note_off_c, 9, 70, 64
11, 81600, Note_on_c, 9, 36, 106
11, 81600, Note_on_c, 9, 38, 127
11, 81600, Note_on_c, 9, 70, 127
11, 81604, Note_off_c, 9, 36, 64
11, 81604, Note_off_c, 9, 38, 64
11, 81604, Note_off_c, 9, 70, 64
11, 81648, Control_c, 9, 7, 64
11, 81696, Note_on_c, 9, 70, 84
11, 81700, Note_off_c, 9, 70, 64
11, 81744, Control_c, 9, 7, 63
11, 81744, Note_on_c, 9, 70, 84
11, 81748, Note_off_c, 9, 70, 64
11, 81792, Note_on_c, 9, 36, 127
11, 81792, Note_on_c, 9, 70, 127
11, 81796, Note_off_c, 9, 36, 64
11, 81796, Note_off_c, 9, 70, 64
11, 81840, Control_c, 9, 7, 62
11, 81888, Note_on_c, 9, 70, 84
11, 81892, Note_off_c, 9, 70, 64
11, 81936, Control_c, 9, 7, 61
11, 81936, Note_on_c, 9, 70, 84
11, 81940, Note_off_c, 9, 70, 64
11, 81984, Note_on_c, 9, 36, 106
11, 81984, Note_on_c, 9, 38, 127
11, 81984, Note_on_c, 9, 70, 127
11, 81988, Note_off_c, 9, 36, 64
11, 81988, Note_off_c, 9, 38, 64
11, 81988, Note_off_c, 9, 70, 64
11, 82008, Control_c, 9, 7, 60
11, 82080, Note_on_c, 9, 70, 84
11, 82084, Note_off_c, 9, 70, 64
11, 82104, Control_c, 9, 7, 59
11, 82128, Note_on_c, 9, 70, 84
11, 82132, Note_off_c, 9, 70, 64
11, 82176, Pitch_bend_c, 9, 8192
11, 82176, Control_c, 9, 1, 0
11, 82176, Program_c, 9, 0
11, 82176, Control_c, 9, 64, 0
11, 82176, Control_c, 9, 10, 64
11, 82176, Note_on_c, 9, 36, 127
11, 82176, Note_on_c, 9, 70, 127
11, 82180, Note_off_c, 9, 36, 64
11, 82180, Note_off_c, 9, 70, 64
11, 82200, Control_c, 9, 7, 58
11, 82272, Note_on_c, 9, 70, 84
11, 82276, Note_off_c, 9, 70, 64
11, 82296, Control_c, 9, 7, 57
11, 82320, Note_on_c, 9, 70, 84
11, 82324, Note_off_c, 9, 70, 64
11, 82368, Note_on_c, 9, 36, 106
11, 82368, Note_on_c, 9, 38, 127
11, 82368, Note_on_c, 9, 70, 127
11, 82372, Note_off_c, 9, 36, 64
11, 82372, Note_off_c, 9, 38, 64
11, 82372, Note_off_c, 9, 70, 64
11, 82392, Control_c, 9, 7, 56
11, 82464, Note_on_c, 9, 70, 84
11, 82468, Note_off_c, 9, 70, 64
11, 82488, Control_c, 9, 7, 55
11, 82512, Note_on_c, 9, 70, 84
11, 82516, Note_off_c, 9, 70, 64
11, 82560, Control_c, 9, 7, 54
11, 82560, Note_on_c, 9, 36, 127
11, 82560, Note_on_c, 9, 70, 127
11, 82564, Note_off_c, 9, 36, 64
11, 82564, Note_off_c, 9, 70, 64
11, 82656, Control_c, 9, 7, 53
11, 82656, Note_on_c, 9, 70, 84
11, 82660, Note_off_c, 9, 70, 64
11, 82704, Note_on_c, 9, 70, 84
11, 82708, Note_off_c, 9, 70, 64
11, 82752, Control_c, 9, 7, 52
11, 82752, Note_on_c, 9, 36, 106
11, 82752, Note_on_c, 9, 38, 127
11, 82752, Note_on_c, 9, 70, 127
11, 82756, Note_off_c, 9, 36, 64
11, 82756, Note_off_c, 9, 38, 64
11, 82756, Note_off_c, 9, 70, 64
11, 82848, Control_c, 9, 7, 51
11, 82848, Note_on_c, 9, 70, 84
11, 82852, Note_off_c, 9, 70, 64
11, 82896, Note_on_c, 9, 70, 84
11, 82900, Note_off_c, 9, 70, 64
11, 82944, Pitch_bend_c, 9, 8192
11, 82944, Control_c, 9, 1, 0
11, 82944, Program_c, 9, 0
11, 82944, Control_c, 9, 64, 0
11, 82944, Control_c, 9, 10, 64
11, 82944, Note_on_c, 9, 36, 127
11, 82944, Note_on_c, 9, 70, 127
11, 82948, Note_off_c, 9, 36, 64
11, 82948, Note_off_c, 9, 70, 64
11, 83040, Control_c, 9, 7, 49
11, 83040, Note_on_c, 9, 70, 84
11, 83044, Note_off_c, 9, 70, 64
11, 83088, Note_on_c, 9, 70, 84
11, 83092, Note_off_c, 9, 70, 64
11, 83136, Control_c, 9, 7, 48
11, 83136, Note_on_c, 9, 36, 106
11, 83136, Note_on_c, 9, 38, 127
11, 83136, Note_on_c, 9, 70, 127
11, 83140, Note_off_c, 9, 36, 64
11, 83140, Note_off_c, 9, 38, 64
11, 83140, Note_off_c, 9, 70, 64
11, 83208, Control_c, 9, 7, 47
11, 83232, Note_on_c, 9, 70, 84
11, 83236, Note_off_c, 9, 70, 64
11, 83280, Note_on_c, 9, 70, 84
11, 83284, Note_off_c, 9, 70, 64
11, 83304, Control_c, 9, 7, 46
11, 83328, Note_on_c, 9, 36, 127
11, 83328, Note_on_c, 9, 70, 127
11, 83332, Note_off_c, 9, 36, 64
11, 83332, Note_off_c, 9, 70, 64
11, 83400, Control_c, 9, 7, 45
11, 83424, Note_on_c, 9, 70, 84
11, 83428, Note_off_c, 9, 70, 64
11, 83472, Note_on_c, 9, 70, 84
11, 83476, Note_off_c, 9, 70, 64
11, 83496, Control_c, 9, 7, 44
11, 83520, Note_on_c, 9, 36, 106
11, 83520, Note_on_c, 9, 38, 127
11, 83520, Note_on_c, 9, 70, 127
11, 83524, Note_off_c, 9, 36, 64
11, 83524, Note_off_c, 9, 38, 64
11, 83524, Note_off_c, 9, 70, 64
11, 83592, Control_c, 9, 7, 43
11, 83616, Note_on_c, 9, 70, 84
11, 83620, Note_off_c, 9, 70, 64
11, 83664, Note_on_c, 9, 70, 84
11, 83668, Note_off_c, 9, 70, 64
11, 83688, Control_c, 9, 7, 42
11, 83712, Pitch_bend_c, 9, 8192
11, 83712, Control_c, 9, 1, 0
11, 83712, Program_c, 9, 0
11, 83712, Control_c, 9, 64, 0
11, 83712, Control_c, 9, 10, 64
11, 83712, Note_on_c, 9, 36, 127
11, 83712, Note_on_c, 9, 70, 127
11, 83716, Note_off_c, 9, 36, 64
11, 83716, Note_off_c, 9, 70, 64
11, 83784, Control_c, 9, 7, 41
11, 83808, Note_on_c, 9, 70, 84
11, 83812, Note_off_c, 9, 70, 64
11, 83856, Control_c, 9, 7, 40
11, 83856, Note_on_c, 9, 70, 84
11, 83860, Note_off_c, 9, 70, 64
11, 83904, Note_on_c, 9, 36, 106
11, 83904, Note_on_c, 9, 38, 127
11, 83904, Note_on_c, 9, 70, 127
11, 83908, Note_off_c, 9, 36, 64
11, 83908, Note_off_c, 9, 38, 64
11, 83908, Note_off_c, 9, 70, 64
11, 83952, Control_c, 9, 7, 39
11, 84000, Note_on_c, 9, 70, 84
11, 84004, Note_off_c, 9, 70, 64
11, 84048, Control_c, 9, 7, 38
11, 84048, Note_on_c, 9, 70, 84
11, 84052, Note_off_c, 9, 70, 64
11, 84096, Note_on_c, 9, 36, 127
11, 84096, Note_on_c, 9, 70, 127
11, 84100, Note_off_c, 9, 36, 64
11, 84100, Note_off_c, 9, 70, 64
11, 84144, Control_c, 9, 7, 37
11, 84192, Note_on_c, 9, 70, 84
11, 84196, Note_off_c, 9, 70, 64
11, 84240, Control_c, 9, 7, 36
11, 84240, Note_on_c, 9, 70, 84
11, 84244, Note_off_c, 9, 70, 64
11, 84288, Note_on_c, 9, 36, 106
11, 84288, Note_on_c, 9, 38, 127
11, 84288, Note_on_c, 9, 70, 127
11, 84292, Note_off_c, 9, 36, 64
11, 84292, Note_off_c, 9, 38, 64
11, 84292, Note_off_c, 9, 70, 64
11, 84336, Control_c, 9, 7, 35
11, 84384, Note_on_c, 9, 70, 84
11, 84388, Note_off_c, 9, 70, 64
11, 84432, Control_c, 9, 7, 34
11, 84432, Note_on_c, 9, 70, 84
11, 84436, Note_off_c, 9, 70, 64
11, 84480, Pitch_bend_c, 9, 8192
11, 84480, Control_c, 9, 1, 0
11, 84480, Program_c, 9, 0
11, 84480, Control_c, 9, 64, 0
11, 84480, Control_c, 9, 10, 64
11, 84480, Note_on_c, 9, 36, 127
11, 84480, Note_on_c, 9, 70, 127
11, 84484, Note_off_c, 9, 36, 64
11, 84484, Note_off_c, 9, 70, 64
11, 84504, Control_c, 9, 7, 33
11, 84576, Note_on_c, 9, 70, 84
11, 84580, Note_off_c, 9, 70, 64
11, 84600, Control_c, 9, 7, 32
11, 84624, Note_on_c, 9, 70, 84
11, 84628, Note_off_c, 9, 70, 64
11, 84672, Note_on_c, 9, 36, 106
11, 84672, Note_on_c, 9, 38, 127
11, 84672, Note_on_c, 9, 70, 127
11, 84676, Note_off_c, 9, 36, 64
11, 84676, Note_off_c, 9, 38, 64
11, 84676, Note_off_c, 9, 70, 64
11, 84696, Control_c, 9, 7, 31
11, 84768, Note_on_c, 9, 70, 84
11, 84772, Note_off_c, 9, 70, 64
11, 84792, Control_c, 9, 7, 30
11, 84816, Note_on_c, 9, 70, 84
11, 84820, Note_off_c, 9, 70, 64
11, 84864, Note_on_c, 9, 36, 127
11, 84864, Note_on_c, 9, 70, 127
11, 84868, Note_off_c, 9, 36, 64
11, 84868, Note_off_c, 9, 70, 64
11, 84888, Control_c, 9, 7, 29
11, 84960, Note_on_c, 9, 70, 84
11, 84964, Note_off_c, 9, 70, 64
11, 84984, Control_c, 9, 7, 28
11, 85008, Note_on_c, 9, 70, 84
11, 85012, Note_off_c, 9, 70, 64
11, 85056, Control_c, 9, 7, 27
11, 85056, Note_on_c, 9, 36, 106
11, 85056, Note_on_c, 9, 38, 127
11, 85056, Note_on_c, 9, 70, 127
11, 85060, Note_off_c, 9, 36, 64
11, 85060, Note_off_c, 9, 38, 64
11, 85060, Note_off_c, 9, 70, 64
11, 85152, Control_c, 9, 7, 26
11, 85152, Note_on_c, 9, 70, 84
11, 85156, Note_off_c, 9, 70, 64
11, 85200, Note_on_c, 9, 70, 84
11, 85204, Note_off_c, 9, 70, 64
11, 85248, Pitch_bend_c, 9, 8192
11, 85248, Control_c, 9, 1, 0
11, 85248, Program_c, 9, 0
11, 85248, Control_c, 9, 64, 0
11, 85248, Control_c, 9, 10, 64
11, 85248, Note_on_c, 9, 36, 127
11, 85248, Note_on_c, 9, 70, 127
11, 85252, Note_off_c, 9, 36, 64
11, 85252, Note_off_c, 9, 70, 64
11, 85344, Control_c, 9, 7, 24
11, 85344, Note_on_c, 9, 70, 84
11, 85348, Note_off_c, 9, 70, 64
11, 85392, Note_on_c, 9, 70, 84
11, 85396, Note_off_c, 9, 70, 64
11, 85440, Control_c, 9, 7, 23
11, 85440, Note_on_c, 9, 36, 106
11, 85440, Note_on_c, 9, 38, 127
11, 85440, Note_on_c, 9, 70, 127
11, 85444, Note_off_c, 9, 36, 64
11, 85444, Note_off_c, 9, 38, 64
11, 85444, Note_off_c, 9, 70, 64
11, 85536, Control_c, 9, 7, 22
11, 85536, Note_on_c, 9, 70, 84
11, 85540, Note_off_c, 9, 70, 64
11, 85584, Note_on_c, 9, 70, 84
11, 85588, Note_off_c, 9, 70, 64
11, 85632, Control_c, 9, 7, 21
11, 85632, Note_on_c, 9, 36, 127
11, 85632, Note_on_c, 9, 70, 127
11, 85636, Note_off_c, 9, 36, 64
11, 85636, Note_off_c, 9, 70, 64
11, 85704, Control_c, 9, 7, 20
11, 85728, Note_on_c, 9, 70, 84
11, 85732, Note_off_c, 9, 70, 64
11, 85776, Note_on_c, 9, 70, 84
11, 85780, Note_off_c, 9, 70, 64
11, 85800, Control_c, 9, 7, 19
11, 85824, Note_on_c, 9, 36, 106
11, 85824, Note_on_c, 9, 38, 127
11, 85824, Note_on_c, 9, 70, 127
11, 85828, Note_off_c, 9, 36, 64
11, 85828, Note_off_c, 9, 38, 64
11, 85828, Note_off_c, 9, 70, 64
11, 85896, Control_c, 9, 7, 18
11, 85920, Note_on_c, 9, 70, 84
11, 85924, Note_off_c, 9, 70, 64
11, 85968, Note_on_c, 9, 70, 84
11, 85972, Note_off_c, 9, 70, 64
11, 85992, Control_c, 9, 7, 17
11, 86016, Pitch_bend_c, 9, 8192
11, 86016, Control_c, 9, 1, 0
11, 86016, Program_c, 9, 0
11, 86016, Control_c, 9, 64, 0
11, 86016, Control_c, 9, 10, 64
11, 86016, Note_on_c, 9, 36, 127
11, 86016, Note_on_c, 9, 70, 127
11, 86020, Note_off_c, 9, 36, 64
11, 86020, Note_off_c, 9, 70, 64
11, 86088, Control_c, 9, 7, 16
11, 86112, Note_on_c, 9, 70, 84
11, 86116, Note_off_c, 9, 70, 64
11, 86160, Note_on_c, 9, 70, 84
11, 86164, Note_off_c, 9, 70, 64
11, 86184, Control_c, 9, 7, 15
11, 86208, Note_on_c, 9, 36, 106
11, 86208, Note_on_c, 9, 38, 127
11, 86208, Note_on_c, 9, 70, 127
11, 86212, Note_off_c, 9, 36, 64
11, 86212, Note_off_c, 9, 38, 64
11, 86212, Note_off_c, 9, 70, 64
11, 86280, Control_c, 9, 7, 14
11, 86304, Note_on_c, 9, 70, 84
11, 86308, Note_off_c, 9, 70, 64
11, 86352, Control_c, 9, 7, 13
11, 86352, Note_on_c, 9, 70, 84
11, 86356, Note_off_c, 9, 70, 64
11, 86400, Note_on_c, 9, 36, 127
11, 86400, Note_on_c, 9, 70, 127
11, 86404, Note_off_c, 9, 36, 64
11, 86404, Note_off_c, 9, 70, 64
11, 86448, Control_c, 9, 7, 12
11, 86496, Note_on_c, 9, 70, 84
11, 86500, Note_off_c, 9, 70, 64
11, 86544, Control_c, 9, 7, 11
11, 86544, Note_on_c, 9, 70, 84
11, 86548, Note_off_c, 9, 70, 64
11, 86592, Note_on_c, 9, 36, 106
11, 86592, Note_on_c, 9, 38, 127
11, 86592, Note_on_c, 9, 70, 127
11, 86596, Note_off_c, 9, 36, 64
11, 86596, Note_off_c, 9, 38, 64
11, 86596, Note_off_c, 9, 70, 64
11, 86640, Control_c, 9, 7, 10
11, 86688, Note_on_c, 9, 70, 84
11, 86692, Note_off_c, 9, 70, 64
11, 86736, Control_c, 9, 7, 9
11, 86736, Note_on_c, 9, 70, 84
11, 86740, Note_off_c, 9, 70, 64
11, 86784, Pitch_bend_c, 9, 8192
11, 86784, Control_c, 9, 1, 0
11, 86784, Program_c, 9, 0
11, 86784, Control_c, 9, 64, 0
11, 86784, Control_c, 9, 10, 64
11, 86784, Note_on_c, 9, 36, 127
11, 86784, Note_on_c, 9, 70, 127
11, 86788, Note_off_c, 9, 36, 64
11, 86788, Note_off_c, 9, 70, 64
11, 86832, Control_c, 9, 7, 8
11, 86880, Note_on_c, 9, 70, 84
11, 86884, Note_off_c, 9, 70, 64
11, 86928, Control_c, 9, 7, 7
11, 86928, Note_on_c, 9, 70, 84
11, 86932, Note_off_c, 9, 70, 64
11, 86976, Note_on_c, 9, 36, 106
11, 86976, Note_on_c, 9, 38, 127
11, 86976, Note_on_c, 9, 70, 127
11, 86980, Note_off_c, 9, 36, 64
11, 86980, Note_off_c, 9, 38, 64
11, 86980, Note_off_c, 9, 70, 64
11, 87000, Control_c, 9, 7, 6
11, 87072, Note_on_c, 9, 70, 84
11, 87076, Note_off_c, 9, 70, 64
11, 87096, Control_c, 9, 7, 5
11, 87120, Note_on_c, 9, 70, 84
11, 87124, Note_off_c, 9, 70, 64
11, 87168, Note_on_c, 9, 36, 127
11, 87168, Note_on_c, 9, 70, 127
11, 87172, Note_off_c, 9, 36, 64
11, 87172, Note_off_c, 9, 70, 64
11, 87192, Control_c, 9, 7, 4
11, 87264, Note_on_c, 9, 70, 84
11, 87268, Note_off_c, 9, 70, 64
11, 87288, Control_c, 9, 7, 3
11, 87312, Note_on_c, 9, 70, 84
11, 87316, Note_off_c, 9, 70, 64
11, 87360, Note_on_c, 9, 36, 106
11, 87360, Note_on_c, 9, 38, 127
11, 87360, Note_on_c, 9, 70, 127
11, 87364, Note_off_c, 9, 36, 64
11, 87364, Note_off_c, 9, 38, 64
11, 87364, Note_off_c, 9, 70, 64
11, 87384, Control_c, 9, 7, 2
11, 87456, Note_on_c, 9, 70, 84
11, 87460, Note_off_c, 9, 70, 64
11, 87480, Control_c, 9, 7, 1
11, 87504, Note_on_c, 9, 70, 84
11, 87508, Note_off_c, 9, 70, 64
11, 87552, Control_c, 9, 7, 0
11, 87552, Pitch_bend_c, 9, 8192
11, 87552, Control_c, 9, 1, 0
11, 87552, Program_c, 9, 0
11, 87552, Control_c, 9, 64, 0
11, 87552, Control_c, 9, 10, 64
11, 87552, End_track
12, 0, Start_track
12, 0, MIDI_port, 0
12, 0, Title_t, "Power Windows BBS   "
12, 0, End_track
13, 0, Start_track
13, 0, MIDI_port, 0
13, 0, Title_t, "205-881-8619        "
13, 0, End_track
14, 0, Start_track
14, 0, MIDI_port, 0
14, 0, Title_t, "Huntsville, AL      "
14, 0, End_track
15, 0, Start_track
15, 0, MIDI_port, 0
15, 0, Title_t, "===================="
15, 0, End_track
0, 0, End_of_file
