0, 0, Header, 1, 4, 960
1, 0, Start_track
1, 0, Control_c, 0, 101, 0
1, 0, Control_c, 0, 100, 0
1, 0, Control_c, 0, 6, 12
1, 0, Control_c, 0, 38, 0
1, 0, Control_c, 1, 101, 0
1, 0, Control_c, 1, 100, 0
1, 0, Control_c, 1, 6, 12
1, 0, Control_c, 1, 38, 0
1, 0, Control_c, 2, 101, 0
1, 0, Control_c, 2, 100, 0
1, 0, Control_c, 2, 6, 12
1, 0, Control_c, 2, 38, 0
1, 0, Control_c, 3, 101, 0
1, 0, Control_c, 3, 100, 0
1, 0, Control_c, 3, 6, 12
1, 0, Control_c, 3, 38, 0
1, 0, Control_c, 4, 101, 0
1, 0, Control_c, 4, 100, 0
1, 0, Control_c, 4, 6, 12
1, 0, Control_c, 4, 38, 0
1, 0, Control_c, 5, 101, 0
1, 0, Control_c, 5, 100, 0
1, 0, Control_c, 5, 6, 12
1, 0, Control_c, 5, 38, 0
1, 0, Control_c, 6, 101, 0
1, 0, Control_c, 6, 100, 0
1, 0, Control_c, 6, 6, 12
1, 0, Control_c, 6, 38, 0
1, 0, Control_c, 7, 101, 0
1, 0, Control_c, 7, 100, 0
1, 0, Control_c, 7, 6, 12
1, 0, Control_c, 7, 38, 0
1, 0, Control_c, 8, 101, 0
1, 0, Control_c, 8, 100, 0
1, 0, Control_c, 8, 6, 12
1, 0, Control_c, 8, 38, 0
1, 0, Control_c, 9, 101, 0
1, 0, Control_c, 9, 100, 0
1, 0, Control_c, 9, 6, 12
1, 0, Control_c, 9, 38, 0
1, 0, Control_c, 10, 101, 0
1, 0, Control_c, 10, 100, 0
1, 0, Control_c, 10, 6, 12
1, 0, Control_c, 10, 38, 0
1, 0, Control_c, 11, 101, 0
1, 0, Control_c, 11, 100, 0
1, 0, Control_c, 11, 6, 12
1, 0, Control_c, 11, 38, 0
1, 0, Control_c, 12, 101, 0
1, 0, Control_c, 12, 100, 0
1, 0, Control_c, 12, 6, 12
1, 0, Control_c, 12, 38, 0
1, 0, Control_c, 13, 101, 0
1, 0, Control_c, 13, 100, 0
1, 0, Control_c, 13, 6, 12
1, 0, Control_c, 13, 38, 0
1, 0, Control_c, 14, 101, 0
1, 0, Control_c, 14, 100, 0
1, 0, Control_c, 14, 6, 12
1, 0, Control_c, 14, 38, 0
1, 0, Control_c, 15, 101, 0
1, 0, Control_c, 15, 100, 0
1, 0, Control_c, 15, 6, 12
1, 0, Control_c, 15, 38, 0
1, 0, Time_signature, 4, 2, 24, 8
1, 0, Tempo, 416666
1, 0, End_track
2, 0, Start_track
2, 0, Pitch_bend_c, 0, 8192
2, 0, Control_c, 0, 7, 127
2, 0, Control_c, 0, 10, 63
2, 0, Control_c, 0, 93, 23
2, 0, Control_c, 0, 91, 87
2, 0, Control_c, 0, 95, 0
2, 0, Control_c, 0, 92, 0
2, 0, Control_c, 0, 11, 127
2, 0, Program_c, 0, 30
2, 0, Control_c, 1, 7, 127
2, 0, Control_c, 1, 10, 63
2, 0, Control_c, 1, 93, 23
2, 0, Control_c, 1, 91, 87
2, 0, Control_c, 1, 95, 0
2, 0, Control_c, 1, 92, 0
2, 0, Control_c, 1, 11, 127
2, 0, Program_c, 1, 30
2, 22560, Note_on_c, 0, 64, 95
2, 22560, Note_on_c, 0, 59, 95
2, 22560, Note_on_c, 0, 52, 95
2, 22800, Note_off_c, 0, 64, 95
2, 22800, Note_off_c, 0, 59, 95
2, 22800, Note_off_c, 0, 52, 95
2, 22800, Note_on_c, 0, 64, 95
2, 22800, Note_on_c, 0, 59, 95
2, 22800, Note_on_c, 0, 52, 95
2, 23040, Note_off_c, 0, 64, 95
2, 23040, Note_off_c, 0, 59, 95
2, 23040, Note_off_c, 0, 52, 95
2, 23040, Note_on_c, 0, 68, 95
2, 23040, Note_on_c, 0, 64, 95
2, 23040, Note_on_c, 0, 59, 95
2, 26400, Note_off_c, 0, 68, 95
2, 26400, Note_off_c, 0, 64, 95
2, 26400, Note_off_c, 0, 59, 95
2, 26400, Note_on_c, 0, 59, 95
2, 26880, Note_off_c, 0, 59, 95
2, 26880, Note_on_c, 0, 61, 70
2, 27360, Note_off_c, 0, 61, 70
2, 27360, Note_on_c, 0, 64, 95
2, 28320, Note_off_c, 0, 64, 95
2, 28320, Note_on_c, 0, 61, 95
2, 29280, Note_off_c, 0, 61, 95
2, 29280, Note_on_c, 0, 64, 95
2, 30720, Note_off_c, 0, 64, 95
2, 30720, Note_on_c, 0, 64, 95
2, 30720, Note_on_c, 0, 59, 95
2, 30720, Note_on_c, 0, 52, 95
2, 32160, Note_off_c, 0, 64, 95
2, 32160, Note_off_c, 0, 59, 95
2, 32160, Note_off_c, 0, 52, 95
2, 32160, Note_on_c, 0, 59, 95
2, 32640, Note_off_c, 0, 59, 95
2, 32640, Note_on_c, 0, 52, 95
2, 33120, Note_off_c, 0, 52, 95
2, 33120, Note_on_c, 0, 59, 95
2, 33600, Note_off_c, 0, 59, 95
2, 33600, Note_on_c, 0, 52, 95
2, 34080, Note_off_c, 0, 52, 95
2, 34080, Note_on_c, 0, 59, 95
2, 34560, Note_off_c, 0, 59, 95
2, 34560, Note_on_c, 0, 61, 70
2, 35040, Note_off_c, 0, 61, 70
2, 35040, Note_on_c, 0, 64, 95
2, 36000, Note_off_c, 0, 64, 95
2, 36000, Note_on_c, 0, 61, 95
2, 36960, Note_off_c, 0, 61, 95
2, 36960, Note_on_c, 0, 64, 95
2, 38400, Note_off_c, 0, 64, 95
2, 38400, Note_on_c, 0, 64, 95
2, 38400, Note_on_c, 0, 59, 95
2, 38400, Note_on_c, 0, 52, 95
2, 39840, Note_off_c, 0, 64, 95
2, 39840, Note_off_c, 0, 59, 95
2, 39840, Note_off_c, 0, 52, 95
2, 39840, Note_on_c, 0, 59, 95
2, 40320, Note_off_c, 0, 59, 95
2, 40320, Note_on_c, 0, 52, 95
2, 40800, Note_off_c, 0, 52, 95
2, 40800, Note_on_c, 0, 59, 95
2, 41280, Note_off_c, 0, 59, 95
2, 41280, Note_on_c, 0, 52, 95
2, 41760, Note_off_c, 0, 52, 95
2, 41760, Note_on_c, 0, 59, 95
2, 42240, Note_off_c, 0, 59, 95
2, 42240, Note_on_c, 0, 61, 70
2, 42720, Note_off_c, 0, 61, 70
2, 42720, Note_on_c, 0, 64, 95
2, 43680, Note_off_c, 0, 64, 95
2, 43680, Note_on_c, 0, 61, 95
2, 44640, Note_off_c, 0, 61, 95
2, 44640, Note_on_c, 0, 64, 95
2, 46080, Note_off_c, 0, 64, 95
2, 46080, Note_on_c, 0, 64, 95
2, 46080, Note_on_c, 0, 59, 95
2, 46080, Note_on_c, 0, 52, 95
2, 47520, Note_off_c, 0, 64, 95
2, 47520, Note_off_c, 0, 59, 95
2, 47520, Note_off_c, 0, 52, 95
2, 47520, Note_on_c, 0, 59, 95
2, 48000, Note_off_c, 0, 59, 95
2, 48000, Note_on_c, 0, 52, 95
2, 48480, Note_off_c, 0, 52, 95
2, 48480, Note_on_c, 0, 59, 95
2, 48960, Note_off_c, 0, 59, 95
2, 48960, Note_on_c, 0, 52, 95
2, 49440, Note_off_c, 0, 52, 95
2, 49440, Note_on_c, 0, 59, 95
2, 49920, Note_off_c, 0, 59, 95
2, 49920, Note_on_c, 0, 61, 70
2, 50400, Note_off_c, 0, 61, 70
2, 50400, Note_on_c, 0, 64, 95
2, 51360, Note_off_c, 0, 64, 95
2, 51360, Note_on_c, 0, 61, 95
2, 52320, Note_off_c, 0, 61, 95
2, 52320, Note_on_c, 0, 64, 95
2, 53760, Note_off_c, 0, 64, 95
2, 53760, Note_on_c, 0, 66, 95
2, 53760, Note_on_c, 0, 62, 95
2, 53760, Note_on_c, 0, 57, 95
2, 53760, Note_on_c, 0, 54, 95
2, 53760, Note_on_c, 0, 50, 95
2, 57120, Note_off_c, 0, 66, 95
2, 57120, Note_off_c, 0, 62, 95
2, 57120, Note_off_c, 0, 57, 95
2, 57120, Note_off_c, 0, 54, 95
2, 57120, Note_off_c, 0, 50, 95
2, 57120, Note_on_c, 0, 52, 95
2, 57600, Note_off_c, 0, 52, 95
2, 57600, Note_on_c, 0, 54, 70
2, 58080, Note_off_c, 0, 54, 70
2, 58080, Note_on_c, 0, 57, 95
2, 58560, Note_off_c, 0, 57, 95
2, 58560, Note_on_c, 0, 57, 95
2, 59040, Note_off_c, 0, 57, 95
2, 59040, Note_on_c, 0, 59, 95
2, 59520, Note_off_c, 0, 59, 95
2, 59520, Note_on_c, 0, 57, 70
2, 60000, Note_off_c, 0, 57, 70
2, 60000, Note_on_c, 0, 54, 95
2, 60480, Note_off_c, 0, 54, 95
2, 60480, Note_on_c, 0, 52, 70
2, 60960, Note_off_c, 0, 52, 70
2, 60960, Note_on_c, 0, 57, 95
2, 60960, Note_on_c, 0, 54, 95
2, 60960, Note_on_c, 0, 50, 95
2, 61440, Note_off_c, 0, 57, 95
2, 61440, Note_off_c, 0, 54, 95
2, 61440, Note_off_c, 0, 50, 95
2, 61440, Note_on_c, 0, 66, 95
2, 61440, Note_on_c, 0, 62, 95
2, 61440, Note_on_c, 0, 57, 95
2, 61440, Note_on_c, 0, 54, 95
2, 61440, Note_on_c, 0, 50, 95
2, 64800, Note_off_c, 0, 66, 95
2, 64800, Note_off_c, 0, 62, 95
2, 64800, Note_off_c, 0, 57, 95
2, 64800, Note_off_c, 0, 54, 95
2, 64800, Note_off_c, 0, 50, 95
2, 64800, Note_on_c, 0, 52, 95
2, 65280, Note_off_c, 0, 52, 95
2, 65280, Note_on_c, 0, 54, 70
2, 65760, Note_off_c, 0, 54, 70
2, 65760, Note_on_c, 0, 57, 95
2, 66240, Note_off_c, 0, 57, 95
2, 66240, Note_on_c, 0, 57, 95
2, 66720, Note_off_c, 0, 57, 95
2, 66720, Note_on_c, 0, 59, 95
2, 67200, Note_off_c, 0, 59, 95
2, 67200, Note_on_c, 0, 61, 95
2, 67680, Note_off_c, 0, 61, 95
2, 67680, Note_on_c, 0, 59, 95
2, 68160, Note_off_c, 0, 59, 95
2, 68160, Note_on_c, 0, 57, 70
2, 68640, Note_off_c, 0, 57, 70
2, 68640, Note_on_c, 0, 59, 95
2, 69120, Note_off_c, 0, 59, 95
2, 69120, Note_on_c, 0, 64, 95
2, 69120, Note_on_c, 0, 59, 95
2, 69120, Note_on_c, 0, 52, 95
2, 70560, Note_off_c, 0, 64, 95
2, 70560, Note_off_c, 0, 59, 95
2, 70560, Note_off_c, 0, 52, 95
2, 70560, Note_on_c, 0, 59, 95
2, 71040, Note_off_c, 0, 59, 95
2, 71040, Note_on_c, 0, 52, 95
2, 71520, Note_off_c, 0, 52, 95
2, 71520, Note_on_c, 0, 59, 95
2, 72000, Note_off_c, 0, 59, 95
2, 72000, Note_on_c, 0, 52, 95
2, 72480, Note_off_c, 0, 52, 95
2, 72480, Note_on_c, 0, 59, 95
2, 72960, Note_off_c, 0, 59, 95
2, 72960, Note_on_c, 0, 61, 70
2, 73440, Note_off_c, 0, 61, 70
2, 73440, Note_on_c, 0, 64, 95
2, 74400, Note_off_c, 0, 64, 95
2, 74400, Note_on_c, 0, 61, 95
2, 75360, Note_off_c, 0, 61, 95
2, 75360, Note_on_c, 0, 64, 95
2, 76800, Note_off_c, 0, 64, 95
2, 76800, Note_on_c, 0, 64, 95
2, 76800, Note_on_c, 0, 59, 95
2, 76800, Note_on_c, 0, 52, 95
2, 78240, Note_off_c, 0, 64, 95
2, 78240, Note_off_c, 0, 59, 95
2, 78240, Note_off_c, 0, 52, 95
2, 78240, Note_on_c, 0, 59, 95
2, 78720, Note_off_c, 0, 59, 95
2, 78720, Note_on_c, 0, 52, 95
2, 79200, Note_off_c, 0, 52, 95
2, 79200, Note_on_c, 0, 59, 95
2, 79680, Note_off_c, 0, 59, 95
2, 79680, Note_on_c, 0, 52, 95
2, 80160, Note_off_c, 0, 52, 95
2, 80160, Note_on_c, 0, 59, 95
2, 80640, Note_off_c, 0, 59, 95
2, 80640, Note_on_c, 0, 61, 70
2, 81120, Note_off_c, 0, 61, 70
2, 81120, Note_on_c, 0, 64, 95
2, 82080, Note_off_c, 0, 64, 95
2, 82080, Note_on_c, 0, 61, 95
2, 83040, Note_off_c, 0, 61, 95
2, 83040, Note_on_c, 0, 64, 95
2, 84480, Note_off_c, 0, 64, 95
2, 84480, Note_on_c, 0, 66, 95
2, 84480, Note_on_c, 0, 62, 95
2, 84480, Note_on_c, 0, 57, 95
2, 84480, Note_on_c, 0, 54, 95
2, 84480, Note_on_c, 0, 50, 95
2, 92160, Note_off_c, 0, 66, 95
2, 92160, Note_off_c, 0, 62, 95
2, 92160, Note_off_c, 0, 57, 95
2, 92160, Note_off_c, 0, 54, 95
2, 92160, Note_off_c, 0, 50, 95
2, 92160, Note_on_c, 0, 66, 95
2, 92160, Note_on_c, 0, 62, 95
2, 92160, Note_on_c, 0, 57, 95
2, 92160, Note_on_c, 0, 54, 95
2, 92160, Note_on_c, 0, 50, 95
2, 95520, Note_off_c, 0, 66, 95
2, 95520, Note_off_c, 0, 62, 95
2, 95520, Note_off_c, 0, 57, 95
2, 95520, Note_off_c, 0, 54, 95
2, 95520, Note_off_c, 0, 50, 95
2, 95520, Note_on_c, 0, 52, 95
2, 96000, Note_off_c, 0, 52, 95
2, 96000, Note_on_c, 0, 54, 70
2, 96480, Note_off_c, 0, 54, 70
2, 96480, Note_on_c, 0, 57, 95
2, 96960, Note_off_c, 0, 57, 95
2, 96960, Note_on_c, 0, 57, 95
2, 97440, Note_off_c, 0, 57, 95
2, 97440, Note_on_c, 0, 59, 95
2, 97920, Note_off_c, 0, 59, 95
2, 97920, Note_on_c, 0, 61, 95
2, 98400, Note_off_c, 0, 61, 95
2, 98400, Note_on_c, 0, 59, 95
2, 98880, Note_off_c, 0, 59, 95
2, 98880, Note_on_c, 0, 57, 70
2, 99360, Note_off_c, 0, 57, 70
2, 99360, Note_on_c, 0, 59, 95
2, 99840, Note_off_c, 0, 59, 95
2, 99840, Note_on_c, 0, 64, 95
2, 99840, Note_on_c, 0, 59, 95
2, 99840, Note_on_c, 0, 52, 95
2, 101280, Note_off_c, 0, 64, 95
2, 101280, Note_off_c, 0, 59, 95
2, 101280, Note_off_c, 0, 52, 95
2, 101280, Note_on_c, 0, 59, 95
2, 101760, Note_off_c, 0, 59, 95
2, 101760, Note_on_c, 0, 52, 95
2, 102240, Note_off_c, 0, 52, 95
2, 102240, Note_on_c, 0, 59, 95
2, 102720, Note_off_c, 0, 59, 95
2, 102720, Note_on_c, 0, 52, 95
2, 103200, Note_off_c, 0, 52, 95
2, 103200, Note_on_c, 0, 59, 95
2, 103680, Note_off_c, 0, 59, 95
2, 103680, Note_on_c, 0, 61, 70
2, 104160, Note_off_c, 0, 61, 70
2, 104160, Note_on_c, 0, 64, 95
2, 105120, Note_off_c, 0, 64, 95
2, 105120, Note_on_c, 0, 61, 95
2, 106080, Note_off_c, 0, 61, 95
2, 106080, Note_on_c, 0, 64, 95
2, 107520, Note_off_c, 0, 64, 95
2, 107520, Note_on_c, 0, 64, 95
2, 107520, Note_on_c, 0, 59, 95
2, 107520, Note_on_c, 0, 52, 95
2, 108960, Note_off_c, 0, 64, 95
2, 108960, Note_off_c, 0, 59, 95
2, 108960, Note_off_c, 0, 52, 95
2, 108960, Note_on_c, 0, 59, 95
2, 109440, Note_off_c, 0, 59, 95
2, 109440, Note_on_c, 0, 52, 95
2, 109920, Note_off_c, 0, 52, 95
2, 109920, Note_on_c, 0, 59, 95
2, 110400, Note_off_c, 0, 59, 95
2, 110400, Note_on_c, 0, 52, 95
2, 110880, Note_off_c, 0, 52, 95
2, 110880, Note_on_c, 0, 59, 95
2, 111360, Note_off_c, 0, 59, 95
2, 111360, Note_on_c, 0, 61, 70
2, 111840, Note_off_c, 0, 61, 70
2, 111840, Note_on_c, 0, 64, 95
2, 112800, Note_off_c, 0, 64, 95
2, 112800, Note_on_c, 0, 61, 95
2, 113760, Note_off_c, 0, 61, 95
2, 113760, Note_on_c, 0, 64, 95
2, 115200, Note_off_c, 0, 64, 95
2, 115200, Note_on_c, 0, 66, 95
2, 115200, Note_on_c, 0, 62, 95
2, 115200, Note_on_c, 0, 57, 95
2, 115200, Note_on_c, 0, 54, 95
2, 115200, Note_on_c, 0, 50, 95
2, 118560, Note_off_c, 0, 66, 95
2, 118560, Note_off_c, 0, 62, 95
2, 118560, Note_off_c, 0, 57, 95
2, 118560, Note_off_c, 0, 54, 95
2, 118560, Note_off_c, 0, 50, 95
2, 118560, Note_on_c, 0, 52, 95
2, 119040, Note_off_c, 0, 52, 95
2, 119040, Note_on_c, 0, 54, 70
2, 119520, Note_off_c, 0, 54, 70
2, 119520, Note_on_c, 0, 57, 95
2, 120000, Note_off_c, 0, 57, 95
2, 120000, Note_on_c, 0, 57, 95
2, 120480, Note_off_c, 0, 57, 95
2, 120480, Note_on_c, 0, 59, 95
2, 120960, Note_off_c, 0, 59, 95
2, 120960, Note_on_c, 0, 57, 70
2, 121440, Note_off_c, 0, 57, 70
2, 121440, Note_on_c, 0, 54, 95
2, 121920, Note_off_c, 0, 54, 95
2, 121920, Note_on_c, 0, 52, 70
2, 122400, Note_off_c, 0, 52, 70
2, 122400, Note_on_c, 0, 57, 95
2, 122400, Note_on_c, 0, 54, 95
2, 122400, Note_on_c, 0, 50, 95
2, 122880, Note_off_c, 0, 57, 95
2, 122880, Note_off_c, 0, 54, 95
2, 122880, Note_off_c, 0, 50, 95
2, 122880, Note_on_c, 0, 66, 95
2, 122880, Note_on_c, 0, 62, 95
2, 122880, Note_on_c, 0, 57, 95
2, 122880, Note_on_c, 0, 54, 95
2, 122880, Note_on_c, 0, 50, 95
2, 126240, Note_off_c, 0, 66, 95
2, 126240, Note_off_c, 0, 62, 95
2, 126240, Note_off_c, 0, 57, 95
2, 126240, Note_off_c, 0, 54, 95
2, 126240, Note_off_c, 0, 50, 95
2, 126240, Note_on_c, 0, 52, 95
2, 126720, Note_off_c, 0, 52, 95
2, 126720, Note_on_c, 0, 54, 70
2, 127200, Note_off_c, 0, 54, 70
2, 127200, Note_on_c, 0, 57, 95
2, 127680, Note_off_c, 0, 57, 95
2, 127680, Note_on_c, 0, 57, 95
2, 128160, Note_off_c, 0, 57, 95
2, 128160, Note_on_c, 0, 59, 95
2, 128640, Note_off_c, 0, 59, 95
2, 128640, Note_on_c, 0, 61, 95
2, 129120, Note_off_c, 0, 61, 95
2, 129120, Note_on_c, 0, 59, 95
2, 129600, Note_off_c, 0, 59, 95
2, 129600, Note_on_c, 0, 57, 70
2, 130080, Note_off_c, 0, 57, 70
2, 130080, Note_on_c, 0, 59, 95
2, 130560, Note_off_c, 0, 59, 95
2, 130560, Note_on_c, 0, 64, 95
2, 130560, Note_on_c, 0, 59, 95
2, 130560, Note_on_c, 0, 52, 95
2, 132000, Note_off_c, 0, 64, 95
2, 132000, Note_off_c, 0, 59, 95
2, 132000, Note_off_c, 0, 52, 95
2, 132000, Note_on_c, 0, 59, 95
2, 132480, Note_off_c, 0, 59, 95
2, 132480, Note_on_c, 0, 52, 95
2, 132960, Note_off_c, 0, 52, 95
2, 132960, Note_on_c, 0, 59, 95
2, 133440, Note_off_c, 0, 59, 95
2, 133440, Note_on_c, 0, 52, 95
2, 133920, Note_off_c, 0, 52, 95
2, 133920, Note_on_c, 0, 59, 95
2, 134400, Note_off_c, 0, 59, 95
2, 134400, Note_on_c, 0, 61, 70
2, 134880, Note_off_c, 0, 61, 70
2, 134880, Note_on_c, 0, 64, 95
2, 135840, Note_off_c, 0, 64, 95
2, 135840, Note_on_c, 0, 61, 95
2, 136800, Note_off_c, 0, 61, 95
2, 136800, Note_on_c, 0, 64, 95
2, 138240, Note_off_c, 0, 64, 95
2, 138240, Note_on_c, 0, 64, 95
2, 138240, Note_on_c, 0, 59, 95
2, 138240, Note_on_c, 0, 52, 95
2, 139680, Note_off_c, 0, 64, 95
2, 139680, Note_off_c, 0, 59, 95
2, 139680, Note_off_c, 0, 52, 95
2, 139680, Note_on_c, 0, 59, 95
2, 140160, Note_off_c, 0, 59, 95
2, 140160, Note_on_c, 0, 52, 95
2, 140640, Note_off_c, 0, 52, 95
2, 140640, Note_on_c, 0, 59, 95
2, 141120, Note_off_c, 0, 59, 95
2, 141120, Note_on_c, 0, 52, 95
2, 141600, Note_off_c, 0, 52, 95
2, 141600, Note_on_c, 0, 59, 95
2, 142080, Note_off_c, 0, 59, 95
2, 142080, Note_on_c, 0, 61, 70
2, 142560, Note_off_c, 0, 61, 70
2, 142560, Note_on_c, 0, 64, 95
2, 143520, Note_off_c, 0, 64, 95
2, 143520, Note_on_c, 0, 61, 95
2, 144480, Note_off_c, 0, 61, 95
2, 144480, Note_on_c, 0, 64, 95
2, 145920, Note_off_c, 0, 64, 95
2, 145920, Note_on_c, 0, 66, 95
2, 145920, Note_on_c, 0, 62, 95
2, 145920, Note_on_c, 0, 57, 95
2, 145920, Note_on_c, 0, 54, 95
2, 145920, Note_on_c, 0, 50, 95
2, 153600, Note_off_c, 0, 66, 95
2, 153600, Note_off_c, 0, 62, 95
2, 153600, Note_off_c, 0, 57, 95
2, 153600, Note_off_c, 0, 54, 95
2, 153600, Note_off_c, 0, 50, 95
2, 153600, Note_on_c, 0, 66, 95
2, 153600, Note_on_c, 0, 62, 95
2, 153600, Note_on_c, 0, 57, 95
2, 153600, Note_on_c, 0, 54, 95
2, 153600, Note_on_c, 0, 50, 95
2, 156960, Note_off_c, 0, 66, 95
2, 156960, Note_off_c, 0, 62, 95
2, 156960, Note_off_c, 0, 57, 95
2, 156960, Note_off_c, 0, 54, 95
2, 156960, Note_off_c, 0, 50, 95
2, 156960, Note_on_c, 0, 66, 95
2, 156960, Note_on_c, 0, 62, 95
2, 157920, Note_off_c, 0, 66, 95
2, 157920, Note_off_c, 0, 62, 95
2, 157920, Note_on_c, 0, 64, 95
2, 157920, Note_on_c, 0, 62, 95
2, 158880, Note_off_c, 0, 64, 95
2, 158880, Note_off_c, 0, 62, 95
2, 158880, Note_on_c, 0, 69, 95
2, 158880, Note_on_c, 0, 64, 95
2, 159360, Note_off_c, 0, 69, 95
2, 159360, Note_off_c, 0, 64, 95
2, 159360, Note_on_c, 0, 66, 95
2, 159360, Note_on_c, 0, 62, 95
2, 159840, Note_off_c, 0, 66, 95
2, 159840, Note_off_c, 0, 62, 95
2, 159840, Note_on_c, 0, 64, 70
2, 160320, Note_off_c, 0, 64, 70
2, 160320, Note_on_c, 0, 61, 95
2, 160320, Note_on_c, 0, 59, 95
2, 160800, Note_off_c, 0, 61, 95
2, 160800, Note_off_c, 0, 59, 95
2, 160800, Note_on_c, 0, 62, 95
2, 161280, Note_off_c, 0, 62, 95
2, 161280, Note_on_c, 0, 57, 95
2, 162720, Note_off_c, 0, 57, 95
2, 162720, Note_on_c, 0, 61, 95
2, 163200, Note_off_c, 0, 61, 95
2, 163200, Note_on_c, 0, 62, 70
2, 163680, Note_off_c, 0, 62, 70
2, 163680, Note_on_c, 0, 64, 95
2, 164160, Note_off_c, 0, 64, 95
2, 164160, Note_on_c, 0, 69, 95
2, 164640, Note_off_c, 0, 69, 95
2, 164640, Note_on_c, 0, 66, 95
2, 165600, Note_off_c, 0, 66, 95
2, 165600, Note_on_c, 0, 64, 95
2, 166560, Note_off_c, 0, 64, 95
2, 166560, Note_on_c, 0, 62, 95
2, 167520, Note_off_c, 0, 62, 95
2, 167520, Note_on_c, 0, 64, 95
2, 168480, Note_off_c, 0, 64, 95
2, 168480, Note_on_c, 0, 62, 95
2, 168960, Note_off_c, 0, 62, 95
2, 168960, Note_on_c, 0, 57, 95
2, 170400, Note_off_c, 0, 57, 95
2, 170400, Note_on_c, 0, 61, 95
2, 170880, Note_off_c, 0, 61, 95
2, 170880, Note_on_c, 0, 62, 70
2, 171360, Note_off_c, 0, 62, 70
2, 171360, Note_on_c, 0, 64, 95
2, 171840, Note_off_c, 0, 64, 95
2, 171840, Note_on_c, 0, 69, 95
2, 172320, Note_off_c, 0, 69, 95
2, 172320, Note_on_c, 0, 66, 95
2, 173280, Note_off_c, 0, 66, 95
2, 173280, Note_on_c, 0, 64, 95
2, 174240, Note_off_c, 0, 64, 95
2, 174240, Note_on_c, 0, 62, 95
2, 175200, Note_off_c, 0, 62, 95
2, 175200, Note_on_c, 0, 64, 95
2, 176160, Note_off_c, 0, 64, 95
2, 176160, Note_on_c, 0, 62, 95
2, 176640, Note_off_c, 0, 62, 95
2, 176640, Note_on_c, 0, 57, 95
2, 178080, Note_off_c, 0, 57, 95
2, 178080, Note_on_c, 0, 61, 95
2, 178560, Note_off_c, 0, 61, 95
2, 178560, Note_on_c, 0, 62, 70
2, 179040, Note_off_c, 0, 62, 70
2, 179040, Note_on_c, 0, 64, 95
2, 179520, Note_off_c, 0, 64, 95
2, 179520, Note_on_c, 0, 69, 95
2, 180000, Note_off_c, 0, 69, 95
2, 180000, Note_on_c, 0, 66, 95
2, 180960, Note_off_c, 0, 66, 95
2, 180960, Note_on_c, 0, 64, 95
2, 181920, Note_off_c, 0, 64, 95
2, 181920, Note_on_c, 0, 62, 95
2, 182880, Note_off_c, 0, 62, 95
2, 182880, Note_on_c, 0, 64, 95
2, 183840, Note_off_c, 0, 64, 95
2, 183840, Note_on_c, 0, 62, 95
2, 184320, Note_off_c, 0, 62, 95
2, 184320, Note_on_c, 0, 64, 95
2, 184320, Note_on_c, 0, 59, 95
2, 184320, Note_on_c, 0, 52, 95
2, 186240, Note_off_c, 0, 64, 95
2, 186240, Note_off_c, 0, 59, 95
2, 186240, Note_off_c, 0, 52, 95
2, 186240, Note_on_c, 0, 54, 95
2, 188160, Note_off_c, 0, 54, 95
2, 188160, Note_on_c, 0, 56, 95
2, 189600, Note_off_c, 0, 56, 95
2, 189600, Note_on_c, 0, 57, 95
2, 190560, Note_off_c, 0, 57, 95
2, 190560, Note_on_c, 0, 56, 95
2, 191040, Note_off_c, 0, 56, 95
2, 191040, Note_on_c, 0, 54, 95
2, 191520, Note_off_c, 0, 54, 95
2, 191520, Note_on_c, 0, 52, 70
2, 192000, Note_off_c, 0, 52, 70
2, 192000, Note_on_c, 0, 57, 95
2, 193440, Note_off_c, 0, 57, 95
2, 193440, Note_on_c, 0, 61, 95
2, 193920, Note_off_c, 0, 61, 95
2, 193920, Note_on_c, 0, 62, 70
2, 194400, Note_off_c, 0, 62, 70
2, 194400, Note_on_c, 0, 64, 95
2, 194880, Note_off_c, 0, 64, 95
2, 194880, Note_on_c, 0, 69, 95
2, 195360, Note_off_c, 0, 69, 95
2, 195360, Note_on_c, 0, 66, 95
2, 196320, Note_off_c, 0, 66, 95
2, 196320, Note_on_c, 0, 64, 95
2, 197280, Note_off_c, 0, 64, 95
2, 197280, Note_on_c, 0, 62, 95
2, 198240, Note_off_c, 0, 62, 95
2, 198240, Note_on_c, 0, 64, 95
2, 199200, Note_off_c, 0, 64, 95
2, 199200, Note_on_c, 0, 62, 95
2, 199680, Note_off_c, 0, 62, 95
2, 199680, Note_on_c, 0, 57, 95
2, 201120, Note_off_c, 0, 57, 95
2, 201120, Note_on_c, 0, 61, 95
2, 201600, Note_off_c, 0, 61, 95
2, 201600, Note_on_c, 0, 62, 70
2, 202080, Note_off_c, 0, 62, 70
2, 202080, Note_on_c, 0, 64, 95
2, 202560, Note_off_c, 0, 64, 95
2, 202560, Note_on_c, 0, 69, 95
2, 203040, Note_off_c, 0, 69, 95
2, 203040, Note_on_c, 0, 66, 95
2, 204000, Note_off_c, 0, 66, 95
2, 204000, Note_on_c, 0, 64, 95
2, 204960, Note_off_c, 0, 64, 95
2, 204960, Note_on_c, 0, 62, 95
2, 205920, Note_off_c, 0, 62, 95
2, 205920, Note_on_c, 0, 64, 95
2, 206880, Note_off_c, 0, 64, 95
2, 206880, Note_on_c, 0, 62, 95
2, 207360, Note_off_c, 0, 62, 95
2, 207360, Note_on_c, 0, 57, 95
2, 208800, Note_off_c, 0, 57, 95
2, 208800, Note_on_c, 0, 61, 95
2, 209280, Note_off_c, 0, 61, 95
2, 209280, Note_on_c, 0, 62, 70
2, 209760, Note_off_c, 0, 62, 70
2, 209760, Note_on_c, 0, 64, 95
2, 210240, Note_off_c, 0, 64, 95
2, 210240, Note_on_c, 0, 69, 95
2, 210720, Note_off_c, 0, 69, 95
2, 210720, Note_on_c, 0, 66, 95
2, 211680, Note_off_c, 0, 66, 95
2, 211680, Note_on_c, 0, 64, 95
2, 212640, Note_off_c, 0, 64, 95
2, 212640, Note_on_c, 0, 62, 95
2, 213600, Note_off_c, 0, 62, 95
2, 213600, Note_on_c, 0, 64, 95
2, 214560, Note_off_c, 0, 64, 95
2, 214560, Note_on_c, 0, 62, 95
2, 215040, Note_off_c, 0, 62, 95
2, 215040, Note_on_c, 0, 64, 95
2, 215040, Note_on_c, 0, 59, 95
2, 215040, Note_on_c, 0, 52, 95
2, 216960, Note_off_c, 0, 64, 95
2, 216960, Note_off_c, 0, 59, 95
2, 216960, Note_off_c, 0, 52, 95
2, 216960, Note_on_c, 0, 54, 95
2, 218880, Note_off_c, 0, 54, 95
2, 218880, Note_on_c, 0, 56, 95
2, 220320, Note_off_c, 0, 56, 95
2, 220320, Note_on_c, 0, 57, 95
2, 221280, Note_off_c, 0, 57, 95
2, 221280, Note_on_c, 0, 56, 95
2, 221760, Note_off_c, 0, 56, 95
2, 221760, Note_on_c, 0, 54, 95
2, 222240, Note_off_c, 0, 54, 95
2, 222240, Note_on_c, 0, 52, 70
2, 224640, Note_off_c, 0, 52, 70
2, 224640, Note_on_c, 0, 54, 95
2, 226560, Note_off_c, 0, 54, 95
2, 226560, Note_on_c, 0, 56, 95
2, 228000, Note_off_c, 0, 56, 95
2, 228000, Note_on_c, 0, 57, 95
2, 228960, Note_off_c, 0, 57, 95
2, 228960, Note_on_c, 0, 56, 95
2, 229440, Note_off_c, 0, 56, 95
2, 229440, Note_on_c, 0, 54, 95
2, 229920, Note_off_c, 0, 54, 95
2, 229920, Note_on_c, 0, 52, 70
2, 230400, Note_off_c, 0, 52, 70
2, 260640, Note_on_c, 0, 68, 95
2, 260640, Note_on_c, 0, 64, 95
2, 260640, Note_on_c, 0, 59, 95
2, 260640, Note_on_c, 0, 52, 95
2, 260880, Note_off_c, 0, 68, 95
2, 260880, Note_off_c, 0, 64, 95
2, 260880, Note_off_c, 0, 59, 95
2, 260880, Note_off_c, 0, 52, 95
2, 260880, Note_on_c, 0, 68, 95
2, 260880, Note_on_c, 0, 64, 95
2, 260880, Note_on_c, 0, 59, 95
2, 260880, Note_on_c, 0, 52, 95
2, 261120, Note_off_c, 0, 68, 95
2, 261120, Note_off_c, 0, 64, 95
2, 261120, Note_off_c, 0, 59, 95
2, 261120, Note_off_c, 0, 52, 95
2, 261120, Note_on_c, 0, 68, 95
2, 261120, Note_on_c, 0, 64, 95
2, 261120, Note_on_c, 0, 59, 95
2, 261120, Note_on_c, 0, 52, 95
2, 264000, Note_off_c, 0, 68, 95
2, 264000, Note_off_c, 0, 64, 95
2, 264000, Note_off_c, 0, 59, 95
2, 264000, Note_off_c, 0, 52, 95
2, 264000, Note_on_c, 0, 44, 95
2, 264960, Note_off_c, 0, 44, 95
2, 264960, Note_on_c, 0, 47, 95
2, 265440, Note_off_c, 0, 47, 95
2, 265440, Note_on_c, 0, 49, 95
2, 265920, Note_off_c, 0, 49, 95
2, 265920, Note_on_c, 0, 52, 95
2, 266400, Note_off_c, 0, 52, 95
2, 266400, Note_on_c, 0, 49, 95
2, 266880, Note_off_c, 0, 49, 95
2, 266880, Note_on_c, 0, 52, 95
2, 267840, Note_off_c, 0, 52, 95
2, 267840, Note_on_c, 0, 52, 95
2, 267840, Note_on_c, 0, 47, 95
2, 268800, Note_off_c, 0, 52, 95
2, 268800, Note_off_c, 0, 47, 95
2, 268800, Note_on_c, 0, 69, 95
2, 268800, Note_on_c, 0, 64, 95
2, 268800, Note_on_c, 0, 59, 95
2, 270720, Note_off_c, 0, 69, 95
2, 270720, Note_off_c, 0, 64, 95
2, 270720, Note_off_c, 0, 59, 95
2, 270720, Note_on_c, 0, 64, 95
2, 270720, Note_on_c, 0, 59, 95
2, 270720, Note_on_c, 0, 52, 95
2, 271200, Note_off_c, 0, 64, 95
2, 271200, Note_off_c, 0, 59, 95
2, 271200, Note_off_c, 0, 52, 95
2, 271680, Note_on_c, 0, 44, 95
2, 272640, Note_off_c, 0, 44, 95
2, 272640, Note_on_c, 0, 47, 95
2, 273120, Note_off_c, 0, 47, 95
2, 273120, Note_on_c, 0, 49, 95
2, 273600, Note_off_c, 0, 49, 95
2, 273600, Note_on_c, 0, 52, 95
2, 274080, Note_off_c, 0, 52, 95
2, 274080, Note_on_c, 0, 49, 95
2, 274560, Note_off_c, 0, 49, 95
2, 274560, Note_on_c, 0, 52, 95
2, 275520, Note_off_c, 0, 52, 95
2, 275520, Note_on_c, 0, 52, 95
2, 276000, Note_off_c, 0, 52, 95
2, 276480, Note_on_c, 0, 66, 95
2, 276480, Note_on_c, 0, 62, 95
2, 276960, Note_off_c, 0, 66, 95
2, 276960, Note_off_c, 0, 62, 95
2, 277440, Note_on_c, 0, 64, 95
2, 277440, Note_on_c, 0, 61, 95
2, 277920, Note_off_c, 0, 64, 95
2, 277920, Note_off_c, 0, 61, 95
2, 277920, Note_on_c, 0, 66, 95
2, 277920, Note_on_c, 0, 62, 95
2, 278400, Note_off_c, 0, 66, 95
2, 278400, Note_off_c, 0, 62, 95
2, 278880, Note_on_c, 0, 69, 95
2, 278880, Note_on_c, 0, 66, 95
2, 279840, Note_off_c, 0, 69, 95
2, 279840, Note_off_c, 0, 66, 95
2, 280320, Note_on_c, 0, 66, 95
2, 280320, Note_on_c, 0, 62, 95
2, 281280, Note_off_c, 0, 66, 95
2, 281280, Note_off_c, 0, 62, 95
2, 281280, Note_on_c, 0, 64, 95
2, 281280, Note_on_c, 0, 61, 95
2, 282240, Note_off_c, 0, 64, 95
2, 282240, Note_off_c, 0, 61, 95
2, 282240, Note_on_c, 0, 66, 95
2, 282240, Note_on_c, 0, 62, 95
2, 284160, Note_off_c, 0, 66, 95
2, 284160, Note_off_c, 0, 62, 95
2, 284160, Note_on_c, 0, 66, 95
2, 284160, Note_on_c, 0, 62, 95
2, 284640, Note_off_c, 0, 66, 95
2, 284640, Note_off_c, 0, 62, 95
2, 285120, Note_on_c, 0, 64, 95
2, 285120, Note_on_c, 0, 61, 95
2, 285600, Note_off_c, 0, 64, 95
2, 285600, Note_off_c, 0, 61, 95
2, 285600, Note_on_c, 0, 66, 95
2, 285600, Note_on_c, 0, 62, 95
2, 286080, Note_off_c, 0, 66, 95
2, 286080, Note_off_c, 0, 62, 95
2, 286560, Note_on_c, 0, 69, 95
2, 286560, Note_on_c, 0, 66, 95
2, 287520, Note_off_c, 0, 69, 95
2, 287520, Note_off_c, 0, 66, 95
2, 288000, Note_on_c, 0, 66, 95
2, 288000, Note_on_c, 0, 62, 95
2, 288960, Note_off_c, 0, 66, 95
2, 288960, Note_off_c, 0, 62, 95
2, 288960, Note_on_c, 0, 64, 95
2, 288960, Note_on_c, 0, 61, 95
2, 289920, Note_off_c, 0, 64, 95
2, 289920, Note_off_c, 0, 61, 95
2, 289920, Note_on_c, 0, 66, 95
2, 289920, Note_on_c, 0, 62, 95
2, 290880, Note_off_c, 0, 66, 95
2, 290880, Note_off_c, 0, 62, 95
2, 290880, Note_on_c, 0, 68, 95
2, 290880, Note_on_c, 0, 64, 95
2, 290880, Note_on_c, 0, 59, 95
2, 290880, Note_on_c, 0, 52, 95
2, 294720, Note_off_c, 0, 68, 95
2, 294720, Note_off_c, 0, 64, 95
2, 294720, Note_off_c, 0, 59, 95
2, 294720, Note_off_c, 0, 52, 95
2, 294720, Note_on_c, 0, 68, 95
2, 294720, Note_on_c, 0, 64, 95
2, 295200, Note_off_c, 0, 68, 95
2, 295200, Note_off_c, 0, 64, 95
2, 295200, Note_on_c, 0, 69, 70
2, 295200, Note_on_c, 0, 66, 70
2, 295680, Note_off_c, 0, 69, 70
2, 295680, Note_off_c, 0, 66, 70
2, 295680, Note_on_c, 0, 69, 95
2, 295680, Note_on_c, 0, 66, 95
2, 296640, Note_off_c, 0, 69, 95
2, 296640, Note_off_c, 0, 66, 95
2, 296640, Note_on_c, 0, 69, 95
2, 296640, Note_on_c, 0, 66, 95
2, 297120, Note_off_c, 0, 69, 95
2, 297120, Note_off_c, 0, 66, 95
2, 297120, Note_on_c, 0, 68, 95
2, 297120, Note_on_c, 0, 64, 95
2, 297600, Note_off_c, 0, 68, 95
2, 297600, Note_off_c, 0, 64, 95
2, 298080, Note_on_c, 0, 78, 95
2, 298560, Note_off_c, 0, 78, 95
2, 298560, Note_on_c, 0, 68, 95
2, 299040, Note_off_c, 0, 68, 95
2, 299040, Note_on_c, 0, 64, 95
2, 299520, Note_off_c, 0, 64, 95
2, 299520, Note_on_c, 0, 69, 95
2, 300000, Note_off_c, 0, 69, 95
2, 300000, Note_on_c, 0, 68, 95
2, 300480, Note_off_c, 0, 68, 95
2, 300480, Note_on_c, 0, 66, 95
2, 300960, Note_off_c, 0, 66, 95
2, 300960, Note_on_c, 0, 64, 95
2, 301440, Note_off_c, 0, 64, 95
2, 301440, Note_on_c, 0, 69, 95
2, 301920, Note_off_c, 0, 69, 95
2, 301920, Note_on_c, 0, 68, 95
2, 302400, Note_off_c, 0, 68, 95
2, 302400, Note_on_c, 0, 66, 95
2, 302880, Note_off_c, 0, 66, 95
2, 302880, Note_on_c, 0, 64, 95
2, 303360, Note_off_c, 0, 64, 95
2, 303840, Note_on_c, 0, 66, 95
2, 303840, Note_on_c, 0, 62, 95
2, 304320, Note_off_c, 0, 66, 95
2, 304320, Note_off_c, 0, 62, 95
2, 304800, Note_on_c, 0, 64, 95
2, 304800, Note_on_c, 0, 61, 95
2, 305280, Note_off_c, 0, 64, 95
2, 305280, Note_off_c, 0, 61, 95
2, 305280, Note_on_c, 0, 66, 95
2, 305280, Note_on_c, 0, 62, 95
2, 305760, Note_off_c, 0, 66, 95
2, 305760, Note_off_c, 0, 62, 95
2, 306240, Note_on_c, 0, 69, 95
2, 306240, Note_on_c, 0, 66, 95
2, 307200, Note_off_c, 0, 69, 95
2, 307200, Note_off_c, 0, 66, 95
2, 307680, Note_on_c, 0, 66, 95
2, 307680, Note_on_c, 0, 62, 95
2, 308640, Note_off_c, 0, 66, 95
2, 308640, Note_off_c, 0, 62, 95
2, 308640, Note_on_c, 0, 64, 95
2, 308640, Note_on_c, 0, 61, 95
2, 309600, Note_off_c, 0, 64, 95
2, 309600, Note_off_c, 0, 61, 95
2, 309600, Note_on_c, 0, 66, 95
2, 309600, Note_on_c, 0, 62, 95
2, 310560, Note_off_c, 0, 66, 95
2, 310560, Note_off_c, 0, 62, 95
2, 311520, Note_on_c, 0, 66, 95
2, 311520, Note_on_c, 0, 62, 95
2, 312000, Note_off_c, 0, 66, 95
2, 312000, Note_off_c, 0, 62, 95
2, 312480, Note_on_c, 0, 64, 95
2, 312480, Note_on_c, 0, 61, 95
2, 312960, Note_off_c, 0, 64, 95
2, 312960, Note_off_c, 0, 61, 95
2, 312960, Note_on_c, 0, 66, 95
2, 312960, Note_on_c, 0, 62, 95
2, 313440, Note_off_c, 0, 66, 95
2, 313440, Note_off_c, 0, 62, 95
2, 313920, Note_on_c, 0, 69, 95
2, 313920, Note_on_c, 0, 66, 95
2, 314880, Note_off_c, 0, 69, 95
2, 314880, Note_off_c, 0, 66, 95
2, 315360, Note_on_c, 0, 66, 95
2, 315360, Note_on_c, 0, 62, 95
2, 315840, Note_off_c, 0, 66, 95
2, 315840, Note_off_c, 0, 62, 95
2, 315840, Note_on_c, 0, 64, 95
2, 315840, Note_on_c, 0, 61, 95
2, 316320, Note_off_c, 0, 64, 95
2, 316320, Note_off_c, 0, 61, 95
2, 316320, Note_on_c, 0, 68, 95
2, 316320, Note_on_c, 0, 64, 95
2, 317280, Note_off_c, 0, 68, 95
2, 317280, Note_off_c, 0, 64, 95
2, 317280, Note_on_c, 0, 69, 95
2, 317280, Note_on_c, 0, 66, 95
2, 318720, Note_off_c, 0, 69, 95
2, 318720, Note_off_c, 0, 66, 95
2, 318720, Note_on_c, 0, 57, 95
2, 320160, Note_off_c, 0, 57, 95
2, 320160, Note_on_c, 0, 61, 95
2, 320640, Note_off_c, 0, 61, 95
2, 320640, Note_on_c, 0, 62, 70
2, 321120, Note_off_c, 0, 62, 70
2, 321120, Note_on_c, 0, 64, 95
2, 321600, Note_off_c, 0, 64, 95
2, 321600, Note_on_c, 0, 69, 95
2, 322080, Note_off_c, 0, 69, 95
2, 322080, Note_on_c, 0, 66, 95
2, 323040, Note_off_c, 0, 66, 95
2, 323040, Note_on_c, 0, 64, 95
2, 324000, Note_off_c, 0, 64, 95
2, 324000, Note_on_c, 0, 62, 95
2, 324960, Note_off_c, 0, 62, 95
2, 324960, Note_on_c, 0, 64, 95
2, 325920, Note_off_c, 0, 64, 95
2, 325920, Note_on_c, 0, 62, 95
2, 326400, Note_off_c, 0, 62, 95
2, 326400, Note_on_c, 0, 57, 95
2, 327840, Note_off_c, 0, 57, 95
2, 327840, Note_on_c, 0, 61, 95
2, 328320, Note_off_c, 0, 61, 95
2, 328320, Note_on_c, 0, 62, 70
2, 328800, Note_off_c, 0, 62, 70
2, 328800, Note_on_c, 0, 64, 95
2, 329280, Note_off_c, 0, 64, 95
2, 329280, Note_on_c, 0, 69, 95
2, 329760, Note_off_c, 0, 69, 95
2, 329760, Note_on_c, 0, 66, 95
2, 330720, Note_off_c, 0, 66, 95
2, 330720, Note_on_c, 0, 64, 95
2, 331680, Note_off_c, 0, 64, 95
2, 331680, Note_on_c, 0, 62, 95
2, 332640, Note_off_c, 0, 62, 95
2, 332640, Note_on_c, 0, 64, 95
2, 333600, Note_off_c, 0, 64, 95
2, 333600, Note_on_c, 0, 62, 95
2, 334080, Note_off_c, 0, 62, 95
2, 334080, Note_on_c, 0, 57, 95
2, 335520, Note_off_c, 0, 57, 95
2, 335520, Note_on_c, 0, 61, 95
2, 336000, Note_off_c, 0, 61, 95
2, 336000, Note_on_c, 0, 62, 70
2, 336480, Note_off_c, 0, 62, 70
2, 336480, Note_on_c, 0, 64, 95
2, 336960, Note_off_c, 0, 64, 95
2, 336960, Note_on_c, 0, 69, 95
2, 337440, Note_off_c, 0, 69, 95
2, 337440, Note_on_c, 0, 66, 95
2, 338400, Note_off_c, 0, 66, 95
2, 338400, Note_on_c, 0, 64, 95
2, 339360, Note_off_c, 0, 64, 95
2, 339360, Note_on_c, 0, 62, 95
2, 340320, Note_off_c, 0, 62, 95
2, 340320, Note_on_c, 0, 64, 95
2, 341280, Note_off_c, 0, 64, 95
2, 341280, Note_on_c, 0, 62, 95
2, 341760, Note_off_c, 0, 62, 95
2, 341760, Note_on_c, 0, 64, 95
2, 341760, Note_on_c, 0, 59, 95
2, 341760, Note_on_c, 0, 52, 95
2, 343680, Note_off_c, 0, 64, 95
2, 343680, Note_off_c, 0, 59, 95
2, 343680, Note_off_c, 0, 52, 95
2, 343680, Note_on_c, 0, 54, 95
2, 345600, Note_off_c, 0, 54, 95
2, 345600, Note_on_c, 0, 56, 95
2, 347040, Note_off_c, 0, 56, 95
2, 347040, Note_on_c, 0, 57, 95
2, 348000, Note_off_c, 0, 57, 95
2, 348000, Note_on_c, 0, 56, 95
2, 348480, Note_off_c, 0, 56, 95
2, 348480, Note_on_c, 0, 54, 95
2, 348960, Note_off_c, 0, 54, 95
2, 348960, Note_on_c, 0, 52, 70
2, 349440, Note_off_c, 0, 52, 70
2, 349440, Note_on_c, 0, 57, 95
2, 350880, Note_off_c, 0, 57, 95
2, 350880, Note_on_c, 0, 61, 95
2, 351360, Note_off_c, 0, 61, 95
2, 351360, Note_on_c, 0, 62, 70
2, 351840, Note_off_c, 0, 62, 70
2, 351840, Note_on_c, 0, 64, 95
2, 352320, Note_off_c, 0, 64, 95
2, 352320, Note_on_c, 0, 69, 95
2, 352800, Note_off_c, 0, 69, 95
2, 352800, Note_on_c, 0, 66, 95
2, 353760, Note_off_c, 0, 66, 95
2, 353760, Note_on_c, 0, 64, 95
2, 354720, Note_off_c, 0, 64, 95
2, 354720, Note_on_c, 0, 62, 95
2, 355680, Note_off_c, 0, 62, 95
2, 355680, Note_on_c, 0, 64, 95
2, 356640, Note_off_c, 0, 64, 95
2, 356640, Note_on_c, 0, 62, 95
2, 357120, Note_off_c, 0, 62, 95
2, 357120, Note_on_c, 0, 57, 95
2, 358560, Note_off_c, 0, 57, 95
2, 358560, Note_on_c, 0, 61, 95
2, 359040, Note_off_c, 0, 61, 95
2, 359040, Note_on_c, 0, 62, 70
2, 359520, Note_off_c, 0, 62, 70
2, 359520, Note_on_c, 0, 64, 95
2, 360000, Note_off_c, 0, 64, 95
2, 360000, Note_on_c, 0, 69, 95
2, 360480, Note_off_c, 0, 69, 95
2, 360480, Note_on_c, 0, 66, 95
2, 361440, Note_off_c, 0, 66, 95
2, 361440, Note_on_c, 0, 64, 95
2, 362400, Note_off_c, 0, 64, 95
2, 362400, Note_on_c, 0, 62, 95
2, 363360, Note_off_c, 0, 62, 95
2, 363360, Note_on_c, 0, 64, 95
2, 364320, Note_off_c, 0, 64, 95
2, 364320, Note_on_c, 0, 62, 95
2, 364800, Note_off_c, 0, 62, 95
2, 364800, Note_on_c, 0, 57, 95
2, 366240, Note_off_c, 0, 57, 95
2, 366240, Note_on_c, 0, 61, 95
2, 366720, Note_off_c, 0, 61, 95
2, 366720, Note_on_c, 0, 62, 70
2, 367200, Note_off_c, 0, 62, 70
2, 367200, Note_on_c, 0, 64, 95
2, 367680, Note_off_c, 0, 64, 95
2, 367680, Note_on_c, 0, 69, 95
2, 368160, Note_off_c, 0, 69, 95
2, 368160, Note_on_c, 0, 66, 95
2, 369120, Note_off_c, 0, 66, 95
2, 369120, Note_on_c, 0, 64, 95
2, 370080, Note_off_c, 0, 64, 95
2, 370080, Note_on_c, 0, 62, 95
2, 371040, Note_off_c, 0, 62, 95
2, 371040, Note_on_c, 0, 64, 95
2, 372000, Note_off_c, 0, 64, 95
2, 372000, Note_on_c, 0, 62, 95
2, 372480, Note_off_c, 0, 62, 95
2, 372480, Note_on_c, 0, 64, 95
2, 372480, Note_on_c, 0, 59, 95
2, 372480, Note_on_c, 0, 52, 95
2, 374400, Note_off_c, 0, 64, 95
2, 374400, Note_off_c, 0, 59, 95
2, 374400, Note_off_c, 0, 52, 95
2, 374400, Note_on_c, 0, 54, 95
2, 376320, Note_off_c, 0, 54, 95
2, 376320, Note_on_c, 0, 56, 95
2, 377760, Note_off_c, 0, 56, 95
2, 377760, Note_on_c, 0, 57, 95
2, 378720, Note_off_c, 0, 57, 95
2, 378720, Note_on_c, 0, 56, 95
2, 379200, Note_off_c, 0, 56, 95
2, 379200, Note_on_c, 0, 54, 95
2, 379680, Note_off_c, 0, 54, 95
2, 379680, Note_on_c, 0, 52, 70
2, 380160, Note_off_c, 0, 52, 70
2, 380160, Note_on_c, 0, 57, 95
2, 381600, Note_off_c, 0, 57, 95
2, 381600, Note_on_c, 0, 61, 95
2, 382080, Note_off_c, 0, 61, 95
2, 382080, Note_on_c, 0, 62, 70
2, 382560, Note_off_c, 0, 62, 70
2, 382560, Note_on_c, 0, 64, 95
2, 383040, Note_off_c, 0, 64, 95
2, 383040, Note_on_c, 0, 69, 95
2, 383520, Note_off_c, 0, 69, 95
2, 383520, Note_on_c, 0, 66, 95
2, 384480, Note_off_c, 0, 66, 95
2, 384480, Note_on_c, 0, 64, 95
2, 385440, Note_off_c, 0, 64, 95
2, 385440, Note_on_c, 0, 62, 95
2, 386400, Note_off_c, 0, 62, 95
2, 386400, Note_on_c, 0, 64, 95
2, 387360, Note_off_c, 0, 64, 95
2, 387360, Note_on_c, 0, 62, 95
2, 387840, Note_off_c, 0, 62, 95
2, 387840, Note_on_c, 0, 57, 95
2, 389280, Note_off_c, 0, 57, 95
2, 389280, Note_on_c, 0, 61, 95
2, 389760, Note_off_c, 0, 61, 95
2, 389760, Note_on_c, 0, 62, 70
2, 390240, Note_off_c, 0, 62, 70
2, 390240, Note_on_c, 0, 64, 95
2, 390720, Note_off_c, 0, 64, 95
2, 390720, Note_on_c, 0, 69, 95
2, 391200, Note_off_c, 0, 69, 95
2, 391200, Note_on_c, 0, 66, 95
2, 392160, Note_off_c, 0, 66, 95
2, 392160, Note_on_c, 0, 64, 95
2, 393120, Note_off_c, 0, 64, 95
2, 393120, Note_on_c, 0, 62, 95
2, 394080, Note_off_c, 0, 62, 95
2, 394080, Note_on_c, 0, 64, 95
2, 395040, Note_off_c, 0, 64, 95
2, 395040, Note_on_c, 0, 62, 95
2, 395520, Note_off_c, 0, 62, 95
2, 395520, Note_on_c, 0, 57, 95
2, 396960, Note_off_c, 0, 57, 95
2, 396960, Note_on_c, 0, 61, 95
2, 397440, Note_off_c, 0, 61, 95
2, 397440, Note_on_c, 0, 62, 70
2, 397920, Note_off_c, 0, 62, 70
2, 397920, Note_on_c, 0, 64, 95
2, 398400, Note_off_c, 0, 64, 95
2, 398400, Note_on_c, 0, 69, 95
2, 398880, Note_off_c, 0, 69, 95
2, 398880, Note_on_c, 0, 66, 95
2, 399840, Note_off_c, 0, 66, 95
2, 399840, Note_on_c, 0, 64, 95
2, 400800, Note_off_c, 0, 64, 95
2, 400800, Note_on_c, 0, 62, 95
2, 401760, Note_off_c, 0, 62, 95
2, 401760, Note_on_c, 0, 64, 95
2, 402720, Note_off_c, 0, 64, 95
2, 402720, Note_on_c, 0, 62, 95
2, 403200, Note_off_c, 0, 62, 95
2, 403200, Note_on_c, 0, 64, 95
2, 403200, Note_on_c, 0, 59, 95
2, 403200, Note_on_c, 0, 52, 95
2, 405120, Note_off_c, 0, 64, 95
2, 405120, Note_off_c, 0, 59, 95
2, 405120, Note_off_c, 0, 52, 95
2, 405120, Note_on_c, 0, 54, 95
2, 407040, Note_off_c, 0, 54, 95
2, 407040, Note_on_c, 0, 56, 95
2, 408480, Note_off_c, 0, 56, 95
2, 408480, Note_on_c, 0, 57, 95
2, 409440, Note_off_c, 0, 57, 95
2, 409440, Note_on_c, 0, 56, 95
2, 409920, Note_off_c, 0, 56, 95
2, 409920, Note_on_c, 0, 54, 95
2, 410400, Note_off_c, 0, 54, 95
2, 410400, Note_on_c, 0, 52, 70
2, 410880, Note_off_c, 0, 52, 70
2, 410880, End_track
3, 0, Start_track
3, 0, Pitch_bend_c, 4, 8192
3, 0, Control_c, 4, 7, 95
3, 0, Control_c, 4, 10, 63
3, 0, Control_c, 4, 93, 23
3, 0, Control_c, 4, 91, 71
3, 0, Control_c, 4, 95, 0
3, 0, Control_c, 4, 92, 0
3, 0, Control_c, 4, 11, 127
3, 0, Program_c, 4, 32
3, 0, Control_c, 5, 7, 95
3, 0, Control_c, 5, 10, 63
3, 0, Control_c, 5, 93, 23
3, 0, Control_c, 5, 91, 71
3, 0, Control_c, 5, 95, 0
3, 0, Control_c, 5, 92, 0
3, 0, Control_c, 5, 11, 127
3, 0, Program_c, 5, 32
3, 7680, Note_on_c, 4, 28, 95
3, 8160, Note_off_c, 4, 28, 95
3, 8160, Note_on_c, 4, 28, 95
3, 8640, Note_off_c, 4, 28, 95
3, 8640, Note_on_c, 4, 30, 95
3, 9120, Note_off_c, 4, 30, 95
3, 9120, Note_on_c, 4, 28, 95
3, 9600, Note_off_c, 4, 28, 95
3, 9600, Note_on_c, 4, 32, 95
3, 10080, Note_off_c, 4, 32, 95
3, 10080, Note_on_c, 4, 28, 95
3, 10560, Note_off_c, 4, 28, 95
3, 10560, Note_on_c, 4, 28, 95
3, 11040, Note_off_c, 4, 28, 95
3, 11040, Note_on_c, 4, 33, 95
3, 12000, Note_off_c, 4, 33, 95
3, 12000, Note_on_c, 4, 32, 95
3, 12960, Note_off_c, 4, 32, 95
3, 12960, Note_on_c, 4, 28, 95
3, 13440, Note_off_c, 4, 28, 95
3, 13440, Note_on_c, 4, 30, 95
3, 13920, Note_off_c, 4, 30, 95
3, 13920, Note_on_c, 4, 32, 95
3, 14400, Note_off_c, 4, 32, 95
3, 14400, Note_on_c, 4, 30, 95
3, 14880, Note_off_c, 4, 30, 95
3, 14880, Note_on_c, 4, 28, 95
3, 15360, Note_off_c, 4, 28, 95
3, 15360, Note_on_c, 4, 28, 95
3, 15840, Note_off_c, 4, 28, 95
3, 15840, Note_on_c, 4, 28, 95
3, 16320, Note_off_c, 4, 28, 95
3, 16320, Note_on_c, 4, 30, 95
3, 16800, Note_off_c, 4, 30, 95
3, 16800, Note_on_c, 4, 28, 95
3, 17280, Note_off_c, 4, 28, 95
3, 17280, Note_on_c, 4, 32, 95
3, 17760, Note_off_c, 4, 32, 95
3, 17760, Note_on_c, 4, 28, 95
3, 18240, Note_off_c, 4, 28, 95
3, 18240, Note_on_c, 4, 28, 95
3, 18720, Note_off_c, 4, 28, 95
3, 18720, Note_on_c, 4, 33, 95
3, 19680, Note_off_c, 4, 33, 95
3, 19680, Note_on_c, 4, 32, 95
3, 20640, Note_off_c, 4, 32, 95
3, 20640, Note_on_c, 4, 28, 95
3, 21120, Note_off_c, 4, 28, 95
3, 21120, Note_on_c, 4, 30, 95
3, 21600, Note_off_c, 4, 30, 95
3, 21600, Note_on_c, 4, 32, 95
3, 22080, Note_off_c, 4, 32, 95
3, 22080, Note_on_c, 4, 30, 95
3, 22560, Note_off_c, 4, 30, 95
3, 22560, Note_on_c, 4, 28, 95
3, 23040, Note_off_c, 4, 28, 95
3, 23040, Note_on_c, 4, 28, 95
3, 23520, Note_off_c, 4, 28, 95
3, 23520, Note_on_c, 4, 28, 95
3, 24000, Note_off_c, 4, 28, 95
3, 24000, Note_on_c, 4, 30, 95
3, 24480, Note_off_c, 4, 30, 95
3, 24480, Note_on_c, 4, 28, 95
3, 24960, Note_off_c, 4, 28, 95
3, 24960, Note_on_c, 4, 32, 95
3, 25440, Note_off_c, 4, 32, 95
3, 25440, Note_on_c, 4, 28, 95
3, 25920, Note_off_c, 4, 28, 95
3, 25920, Note_on_c, 4, 28, 95
3, 26400, Note_off_c, 4, 28, 95
3, 26400, Note_on_c, 4, 33, 95
3, 27360, Note_off_c, 4, 33, 95
3, 27360, Note_on_c, 4, 32, 95
3, 28320, Note_off_c, 4, 32, 95
3, 28320, Note_on_c, 4, 28, 95
3, 28800, Note_off_c, 4, 28, 95
3, 28800, Note_on_c, 4, 30, 95
3, 29280, Note_off_c, 4, 30, 95
3, 29280, Note_on_c, 4, 32, 95
3, 29760, Note_off_c, 4, 32, 95
3, 29760, Note_on_c, 4, 30, 95
3, 30240, Note_off_c, 4, 30, 95
3, 30240, Note_on_c, 4, 28, 95
3, 30720, Note_off_c, 4, 28, 95
3, 30720, Note_on_c, 4, 28, 95
3, 31200, Note_off_c, 4, 28, 95
3, 31200, Note_on_c, 4, 28, 95
3, 31680, Note_off_c, 4, 28, 95
3, 31680, Note_on_c, 4, 30, 95
3, 32160, Note_off_c, 4, 30, 95
3, 32160, Note_on_c, 4, 28, 95
3, 32640, Note_off_c, 4, 28, 95
3, 32640, Note_on_c, 4, 32, 95
3, 33120, Note_off_c, 4, 32, 95
3, 33120, Note_on_c, 4, 28, 95
3, 33600, Note_off_c, 4, 28, 95
3, 33600, Note_on_c, 4, 28, 95
3, 34080, Note_off_c, 4, 28, 95
3, 34080, Note_on_c, 4, 33, 95
3, 35040, Note_off_c, 4, 33, 95
3, 35040, Note_on_c, 4, 32, 95
3, 36000, Note_off_c, 4, 32, 95
3, 36000, Note_on_c, 4, 28, 95
3, 36480, Note_off_c, 4, 28, 95
3, 36480, Note_on_c, 4, 30, 95
3, 36960, Note_off_c, 4, 30, 95
3, 36960, Note_on_c, 4, 32, 95
3, 37440, Note_off_c, 4, 32, 95
3, 37440, Note_on_c, 4, 30, 95
3, 37920, Note_off_c, 4, 30, 95
3, 37920, Note_on_c, 4, 28, 95
3, 38400, Note_off_c, 4, 28, 95
3, 38400, Note_on_c, 4, 28, 95
3, 38880, Note_off_c, 4, 28, 95
3, 38880, Note_on_c, 4, 28, 95
3, 39360, Note_off_c, 4, 28, 95
3, 39360, Note_on_c, 4, 30, 95
3, 39840, Note_off_c, 4, 30, 95
3, 39840, Note_on_c, 4, 28, 95
3, 40320, Note_off_c, 4, 28, 95
3, 40320, Note_on_c, 4, 32, 95
3, 40800, Note_off_c, 4, 32, 95
3, 40800, Note_on_c, 4, 28, 95
3, 41280, Note_off_c, 4, 28, 95
3, 41280, Note_on_c, 4, 28, 95
3, 41760, Note_off_c, 4, 28, 95
3, 41760, Note_on_c, 4, 33, 95
3, 42720, Note_off_c, 4, 33, 95
3, 42720, Note_on_c, 4, 32, 95
3, 43680, Note_off_c, 4, 32, 95
3, 43680, Note_on_c, 4, 28, 95
3, 44160, Note_off_c, 4, 28, 95
3, 44160, Note_on_c, 4, 30, 95
3, 44640, Note_off_c, 4, 30, 95
3, 44640, Note_on_c, 4, 32, 95
3, 45120, Note_off_c, 4, 32, 95
3, 45120, Note_on_c, 4, 30, 95
3, 45600, Note_off_c, 4, 30, 95
3, 45600, Note_on_c, 4, 28, 95
3, 46080, Note_off_c, 4, 28, 95
3, 46080, Note_on_c, 4, 28, 95
3, 46560, Note_off_c, 4, 28, 95
3, 46560, Note_on_c, 4, 28, 95
3, 47040, Note_off_c, 4, 28, 95
3, 47040, Note_on_c, 4, 30, 95
3, 47520, Note_off_c, 4, 30, 95
3, 47520, Note_on_c, 4, 28, 95
3, 48000, Note_off_c, 4, 28, 95
3, 48000, Note_on_c, 4, 32, 95
3, 48480, Note_off_c, 4, 32, 95
3, 48480, Note_on_c, 4, 28, 95
3, 48960, Note_off_c, 4, 28, 95
3, 48960, Note_on_c, 4, 28, 95
3, 49440, Note_off_c, 4, 28, 95
3, 49440, Note_on_c, 4, 33, 95
3, 50400, Note_off_c, 4, 33, 95
3, 50400, Note_on_c, 4, 32, 95
3, 51360, Note_off_c, 4, 32, 95
3, 51360, Note_on_c, 4, 28, 95
3, 51840, Note_off_c, 4, 28, 95
3, 51840, Note_on_c, 4, 30, 95
3, 52320, Note_off_c, 4, 30, 95
3, 52320, Note_on_c, 4, 32, 95
3, 52800, Note_off_c, 4, 32, 95
3, 52800, Note_on_c, 4, 30, 95
3, 53280, Note_off_c, 4, 30, 95
3, 53280, Note_on_c, 4, 28, 95
3, 53760, Note_off_c, 4, 28, 95
3, 53760, Note_on_c, 4, 33, 95
3, 55200, Note_off_c, 4, 33, 95
3, 55680, Note_on_c, 4, 33, 95
3, 56160, Note_off_c, 4, 33, 95
3, 56160, Note_on_c, 4, 33, 95
3, 56640, Note_off_c, 4, 33, 95
3, 57120, Note_on_c, 4, 38, 95
3, 58080, Note_off_c, 4, 38, 95
3, 58080, Note_on_c, 4, 37, 95
3, 59040, Note_off_c, 4, 37, 95
3, 59040, Note_on_c, 4, 33, 95
3, 59520, Note_off_c, 4, 33, 95
3, 59520, Note_on_c, 4, 35, 95
3, 60000, Note_off_c, 4, 35, 95
3, 60000, Note_on_c, 4, 37, 95
3, 60480, Note_off_c, 4, 37, 95
3, 60480, Note_on_c, 4, 35, 95
3, 60960, Note_off_c, 4, 35, 95
3, 60960, Note_on_c, 4, 33, 95
3, 61440, Note_off_c, 4, 33, 95
3, 61440, Note_on_c, 4, 33, 95
3, 62880, Note_off_c, 4, 33, 95
3, 63360, Note_on_c, 4, 33, 95
3, 63840, Note_off_c, 4, 33, 95
3, 63840, Note_on_c, 4, 33, 95
3, 64320, Note_off_c, 4, 33, 95
3, 64800, Note_on_c, 4, 38, 95
3, 65760, Note_off_c, 4, 38, 95
3, 65760, Note_on_c, 4, 37, 95
3, 66720, Note_off_c, 4, 37, 95
3, 66720, Note_on_c, 4, 33, 95
3, 67200, Note_off_c, 4, 33, 95
3, 67200, Note_on_c, 4, 35, 95
3, 67680, Note_off_c, 4, 35, 95
3, 67680, Note_on_c, 4, 37, 95
3, 68160, Note_off_c, 4, 37, 95
3, 68160, Note_on_c, 4, 35, 95
3, 68640, Note_off_c, 4, 35, 95
3, 68640, Note_on_c, 4, 33, 95
3, 69120, Note_off_c, 4, 33, 95
3, 69120, Note_on_c, 4, 28, 95
3, 69600, Note_off_c, 4, 28, 95
3, 69600, Note_on_c, 4, 28, 95
3, 70080, Note_off_c, 4, 28, 95
3, 70080, Note_on_c, 4, 30, 95
3, 70560, Note_off_c, 4, 30, 95
3, 70560, Note_on_c, 4, 28, 95
3, 71040, Note_off_c, 4, 28, 95
3, 71040, Note_on_c, 4, 32, 95
3, 71520, Note_off_c, 4, 32, 95
3, 71520, Note_on_c, 4, 28, 95
3, 72000, Note_off_c, 4, 28, 95
3, 72000, Note_on_c, 4, 28, 95
3, 72480, Note_off_c, 4, 28, 95
3, 72480, Note_on_c, 4, 33, 95
3, 73440, Note_off_c, 4, 33, 95
3, 73440, Note_on_c, 4, 32, 95
3, 74400, Note_off_c, 4, 32, 95
3, 74400, Note_on_c, 4, 28, 95
3, 74880, Note_off_c, 4, 28, 95
3, 74880, Note_on_c, 4, 30, 95
3, 75360, Note_off_c, 4, 30, 95
3, 75360, Note_on_c, 4, 32, 95
3, 75840, Note_off_c, 4, 32, 95
3, 75840, Note_on_c, 4, 30, 95
3, 76320, Note_off_c, 4, 30, 95
3, 76320, Note_on_c, 4, 28, 95
3, 76800, Note_off_c, 4, 28, 95
3, 76800, Note_on_c, 4, 28, 95
3, 77280, Note_off_c, 4, 28, 95
3, 77280, Note_on_c, 4, 28, 95
3, 77760, Note_off_c, 4, 28, 95
3, 77760, Note_on_c, 4, 30, 95
3, 78240, Note_off_c, 4, 30, 95
3, 78240, Note_on_c, 4, 28, 95
3, 78720, Note_off_c, 4, 28, 95
3, 78720, Note_on_c, 4, 32, 95
3, 79200, Note_off_c, 4, 32, 95
3, 79200, Note_on_c, 4, 28, 95
3, 79680, Note_off_c, 4, 28, 95
3, 79680, Note_on_c, 4, 28, 95
3, 80160, Note_off_c, 4, 28, 95
3, 80160, Note_on_c, 4, 33, 95
3, 81120, Note_off_c, 4, 33, 95
3, 81120, Note_on_c, 4, 32, 95
3, 82080, Note_off_c, 4, 32, 95
3, 82080, Note_on_c, 4, 28, 95
3, 82560, Note_off_c, 4, 28, 95
3, 82560, Note_on_c, 4, 30, 95
3, 83040, Note_off_c, 4, 30, 95
3, 83040, Note_on_c, 4, 32, 95
3, 83520, Note_off_c, 4, 32, 95
3, 83520, Note_on_c, 4, 30, 95
3, 84000, Note_off_c, 4, 30, 95
3, 84000, Note_on_c, 4, 28, 95
3, 84480, Note_off_c, 4, 28, 95
3, 84480, Note_on_c, 4, 33, 95
3, 85920, Note_off_c, 4, 33, 95
3, 86400, Note_on_c, 4, 33, 95
3, 86880, Note_off_c, 4, 33, 95
3, 86880, Note_on_c, 4, 33, 95
3, 87360, Note_off_c, 4, 33, 95
3, 87840, Note_on_c, 4, 38, 95
3, 88800, Note_off_c, 4, 38, 95
3, 88800, Note_on_c, 4, 37, 95
3, 89760, Note_off_c, 4, 37, 95
3, 89760, Note_on_c, 4, 33, 95
3, 90240, Note_off_c, 4, 33, 95
3, 90240, Note_on_c, 4, 35, 95
3, 90720, Note_off_c, 4, 35, 95
3, 90720, Note_on_c, 4, 37, 95
3, 91200, Note_off_c, 4, 37, 95
3, 91200, Note_on_c, 4, 35, 95
3, 91680, Note_off_c, 4, 35, 95
3, 91680, Note_on_c, 4, 33, 95
3, 92160, Note_off_c, 4, 33, 95
3, 92160, Note_on_c, 4, 33, 95
3, 93600, Note_off_c, 4, 33, 95
3, 94080, Note_on_c, 4, 33, 95
3, 94560, Note_off_c, 4, 33, 95
3, 94560, Note_on_c, 4, 33, 95
3, 95040, Note_off_c, 4, 33, 95
3, 95520, Note_on_c, 4, 38, 95
3, 96480, Note_off_c, 4, 38, 95
3, 96480, Note_on_c, 4, 37, 95
3, 97440, Note_off_c, 4, 37, 95
3, 97440, Note_on_c, 4, 33, 95
3, 97920, Note_off_c, 4, 33, 95
3, 97920, Note_on_c, 4, 35, 95
3, 98400, Note_off_c, 4, 35, 95
3, 98400, Note_on_c, 4, 37, 95
3, 98880, Note_off_c, 4, 37, 95
3, 98880, Note_on_c, 4, 35, 95
3, 99360, Note_off_c, 4, 35, 95
3, 99360, Note_on_c, 4, 33, 95
3, 99840, Note_off_c, 4, 33, 95
3, 99840, Note_on_c, 4, 28, 95
3, 100320, Note_off_c, 4, 28, 95
3, 100320, Note_on_c, 4, 28, 95
3, 100800, Note_off_c, 4, 28, 95
3, 100800, Note_on_c, 4, 30, 95
3, 101280, Note_off_c, 4, 30, 95
3, 101280, Note_on_c, 4, 28, 95
3, 101760, Note_off_c, 4, 28, 95
3, 101760, Note_on_c, 4, 32, 95
3, 102240, Note_off_c, 4, 32, 95
3, 102240, Note_on_c, 4, 28, 95
3, 102720, Note_off_c, 4, 28, 95
3, 102720, Note_on_c, 4, 28, 95
3, 103200, Note_off_c, 4, 28, 95
3, 103200, Note_on_c, 4, 33, 95
3, 104160, Note_off_c, 4, 33, 95
3, 104160, Note_on_c, 4, 32, 95
3, 105120, Note_off_c, 4, 32, 95
3, 105120, Note_on_c, 4, 28, 95
3, 105600, Note_off_c, 4, 28, 95
3, 105600, Note_on_c, 4, 30, 95
3, 106080, Note_off_c, 4, 30, 95
3, 106080, Note_on_c, 4, 32, 95
3, 106560, Note_off_c, 4, 32, 95
3, 106560, Note_on_c, 4, 30, 95
3, 107040, Note_off_c, 4, 30, 95
3, 107040, Note_on_c, 4, 28, 95
3, 107520, Note_off_c, 4, 28, 95
3, 107520, Note_on_c, 4, 28, 95
3, 108000, Note_off_c, 4, 28, 95
3, 108000, Note_on_c, 4, 28, 95
3, 108480, Note_off_c, 4, 28, 95
3, 108480, Note_on_c, 4, 30, 95
3, 108960, Note_off_c, 4, 30, 95
3, 108960, Note_on_c, 4, 28, 95
3, 109440, Note_off_c, 4, 28, 95
3, 109440, Note_on_c, 4, 32, 95
3, 109920, Note_off_c, 4, 32, 95
3, 109920, Note_on_c, 4, 28, 95
3, 110400, Note_off_c, 4, 28, 95
3, 110400, Note_on_c, 4, 28, 95
3, 110880, Note_off_c, 4, 28, 95
3, 110880, Note_on_c, 4, 33, 95
3, 111840, Note_off_c, 4, 33, 95
3, 111840, Note_on_c, 4, 32, 95
3, 112800, Note_off_c, 4, 32, 95
3, 112800, Note_on_c, 4, 28, 95
3, 113280, Note_off_c, 4, 28, 95
3, 113280, Note_on_c, 4, 30, 95
3, 113760, Note_off_c, 4, 30, 95
3, 113760, Note_on_c, 4, 32, 95
3, 114240, Note_off_c, 4, 32, 95
3, 114240, Note_on_c, 4, 30, 95
3, 114720, Note_off_c, 4, 30, 95
3, 114720, Note_on_c, 4, 28, 95
3, 115200, Note_off_c, 4, 28, 95
3, 115200, Note_on_c, 4, 33, 95
3, 116640, Note_off_c, 4, 33, 95
3, 117120, Note_on_c, 4, 33, 95
3, 117600, Note_off_c, 4, 33, 95
3, 117600, Note_on_c, 4, 33, 95
3, 118080, Note_off_c, 4, 33, 95
3, 118560, Note_on_c, 4, 38, 95
3, 119520, Note_off_c, 4, 38, 95
3, 119520, Note_on_c, 4, 37, 95
3, 120480, Note_off_c, 4, 37, 95
3, 120480, Note_on_c, 4, 33, 95
3, 120960, Note_off_c, 4, 33, 95
3, 120960, Note_on_c, 4, 35, 95
3, 121440, Note_off_c, 4, 35, 95
3, 121440, Note_on_c, 4, 37, 95
3, 121920, Note_off_c, 4, 37, 95
3, 121920, Note_on_c, 4, 35, 95
3, 122400, Note_off_c, 4, 35, 95
3, 122400, Note_on_c, 4, 33, 95
3, 122880, Note_off_c, 4, 33, 95
3, 122880, Note_on_c, 4, 33, 95
3, 124320, Note_off_c, 4, 33, 95
3, 124800, Note_on_c, 4, 33, 95
3, 125280, Note_off_c, 4, 33, 95
3, 125280, Note_on_c, 4, 33, 95
3, 125760, Note_off_c, 4, 33, 95
3, 126240, Note_on_c, 4, 38, 95
3, 127200, Note_off_c, 4, 38, 95
3, 127200, Note_on_c, 4, 37, 95
3, 128160, Note_off_c, 4, 37, 95
3, 128160, Note_on_c, 4, 33, 95
3, 128640, Note_off_c, 4, 33, 95
3, 128640, Note_on_c, 4, 35, 95
3, 129120, Note_off_c, 4, 35, 95
3, 129120, Note_on_c, 4, 37, 95
3, 129600, Note_off_c, 4, 37, 95
3, 129600, Note_on_c, 4, 35, 95
3, 130080, Note_off_c, 4, 35, 95
3, 130080, Note_on_c, 4, 33, 95
3, 130560, Note_off_c, 4, 33, 95
3, 130560, Note_on_c, 4, 28, 95
3, 131040, Note_off_c, 4, 28, 95
3, 131040, Note_on_c, 4, 28, 95
3, 131520, Note_off_c, 4, 28, 95
3, 131520, Note_on_c, 4, 30, 95
3, 132000, Note_off_c, 4, 30, 95
3, 132000, Note_on_c, 4, 28, 95
3, 132480, Note_off_c, 4, 28, 95
3, 132480, Note_on_c, 4, 32, 95
3, 132960, Note_off_c, 4, 32, 95
3, 132960, Note_on_c, 4, 28, 95
3, 133440, Note_off_c, 4, 28, 95
3, 133440, Note_on_c, 4, 28, 95
3, 133920, Note_off_c, 4, 28, 95
3, 133920, Note_on_c, 4, 33, 95
3, 134880, Note_off_c, 4, 33, 95
3, 134880, Note_on_c, 4, 32, 95
3, 135840, Note_off_c, 4, 32, 95
3, 135840, Note_on_c, 4, 28, 95
3, 136320, Note_off_c, 4, 28, 95
3, 136320, Note_on_c, 4, 30, 95
3, 136800, Note_off_c, 4, 30, 95
3, 136800, Note_on_c, 4, 32, 95
3, 137280, Note_off_c, 4, 32, 95
3, 137280, Note_on_c, 4, 30, 95
3, 137760, Note_off_c, 4, 30, 95
3, 137760, Note_on_c, 4, 28, 95
3, 138240, Note_off_c, 4, 28, 95
3, 138240, Note_on_c, 4, 28, 95
3, 138720, Note_off_c, 4, 28, 95
3, 138720, Note_on_c, 4, 28, 95
3, 139200, Note_off_c, 4, 28, 95
3, 139200, Note_on_c, 4, 30, 95
3, 139680, Note_off_c, 4, 30, 95
3, 139680, Note_on_c, 4, 28, 95
3, 140160, Note_off_c, 4, 28, 95
3, 140160, Note_on_c, 4, 32, 95
3, 140640, Note_off_c, 4, 32, 95
3, 140640, Note_on_c, 4, 28, 95
3, 141120, Note_off_c, 4, 28, 95
3, 141120, Note_on_c, 4, 28, 95
3, 141600, Note_off_c, 4, 28, 95
3, 141600, Note_on_c, 4, 33, 95
3, 142560, Note_off_c, 4, 33, 95
3, 142560, Note_on_c, 4, 32, 95
3, 143520, Note_off_c, 4, 32, 95
3, 143520, Note_on_c, 4, 28, 95
3, 144000, Note_off_c, 4, 28, 95
3, 144000, Note_on_c, 4, 30, 95
3, 144480, Note_off_c, 4, 30, 95
3, 144480, Note_on_c, 4, 32, 95
3, 144960, Note_off_c, 4, 32, 95
3, 144960, Note_on_c, 4, 30, 95
3, 145440, Note_off_c, 4, 30, 95
3, 145440, Note_on_c, 4, 28, 95
3, 145920, Note_off_c, 4, 28, 95
3, 145920, Note_on_c, 4, 33, 95
3, 147360, Note_off_c, 4, 33, 95
3, 147840, Note_on_c, 4, 33, 95
3, 148320, Note_off_c, 4, 33, 95
3, 148320, Note_on_c, 4, 33, 95
3, 148800, Note_off_c, 4, 33, 95
3, 149280, Note_on_c, 4, 38, 95
3, 150240, Note_off_c, 4, 38, 95
3, 150240, Note_on_c, 4, 37, 95
3, 151200, Note_off_c, 4, 37, 95
3, 151200, Note_on_c, 4, 33, 95
3, 151680, Note_off_c, 4, 33, 95
3, 151680, Note_on_c, 4, 35, 95
3, 152160, Note_off_c, 4, 35, 95
3, 152160, Note_on_c, 4, 37, 95
3, 152640, Note_off_c, 4, 37, 95
3, 152640, Note_on_c, 4, 35, 95
3, 153120, Note_off_c, 4, 35, 95
3, 153120, Note_on_c, 4, 33, 95
3, 153600, Note_off_c, 4, 33, 95
3, 153600, Note_on_c, 4, 33, 95
3, 155040, Note_off_c, 4, 33, 95
3, 155520, Note_on_c, 4, 33, 95
3, 156000, Note_off_c, 4, 33, 95
3, 156000, Note_on_c, 4, 33, 95
3, 156480, Note_off_c, 4, 33, 95
3, 156960, Note_on_c, 4, 38, 95
3, 161280, Note_off_c, 4, 38, 95
3, 161280, Note_on_c, 4, 33, 95
3, 162240, Note_off_c, 4, 33, 95
3, 162240, Note_on_c, 4, 33, 95
3, 162720, Note_off_c, 4, 33, 95
3, 162720, Note_on_c, 4, 33, 95
3, 163200, Note_off_c, 4, 33, 95
3, 163200, Note_on_c, 4, 33, 95
3, 163680, Note_off_c, 4, 33, 95
3, 163680, Note_on_c, 4, 33, 95
3, 164160, Note_off_c, 4, 33, 95
3, 164160, Note_on_c, 4, 33, 95
3, 164640, Note_off_c, 4, 33, 95
3, 164640, Note_on_c, 4, 33, 95
3, 165120, Note_off_c, 4, 33, 95
3, 165120, Note_on_c, 4, 38, 95
3, 166080, Note_off_c, 4, 38, 95
3, 166080, Note_on_c, 4, 38, 95
3, 166560, Note_off_c, 4, 38, 95
3, 166560, Note_on_c, 4, 38, 95
3, 167040, Note_off_c, 4, 38, 95
3, 167040, Note_on_c, 4, 38, 95
3, 167520, Note_off_c, 4, 38, 95
3, 167520, Note_on_c, 4, 38, 95
3, 168000, Note_off_c, 4, 38, 95
3, 168000, Note_on_c, 4, 38, 95
3, 168480, Note_off_c, 4, 38, 95
3, 168480, Note_on_c, 4, 38, 95
3, 168960, Note_off_c, 4, 38, 95
3, 168960, Note_on_c, 4, 33, 95
3, 169920, Note_off_c, 4, 33, 95
3, 169920, Note_on_c, 4, 33, 95
3, 170400, Note_off_c, 4, 33, 95
3, 170400, Note_on_c, 4, 33, 95
3, 170880, Note_off_c, 4, 33, 95
3, 170880, Note_on_c, 4, 33, 95
3, 171360, Note_off_c, 4, 33, 95
3, 171360, Note_on_c, 4, 33, 95
3, 171840, Note_off_c, 4, 33, 95
3, 171840, Note_on_c, 4, 33, 95
3, 172320, Note_off_c, 4, 33, 95
3, 172320, Note_on_c, 4, 33, 95
3, 172800, Note_off_c, 4, 33, 95
3, 172800, Note_on_c, 4, 38, 95
3, 173760, Note_off_c, 4, 38, 95
3, 173760, Note_on_c, 4, 38, 95
3, 174240, Note_off_c, 4, 38, 95
3, 174240, Note_on_c, 4, 38, 95
3, 174720, Note_off_c, 4, 38, 95
3, 174720, Note_on_c, 4, 38, 95
3, 175200, Note_off_c, 4, 38, 95
3, 175200, Note_on_c, 4, 38, 95
3, 175680, Note_off_c, 4, 38, 95
3, 175680, Note_on_c, 4, 38, 95
3, 176160, Note_off_c, 4, 38, 95
3, 176160, Note_on_c, 4, 38, 95
3, 176640, Note_off_c, 4, 38, 95
3, 176640, Note_on_c, 4, 33, 95
3, 177600, Note_off_c, 4, 33, 95
3, 177600, Note_on_c, 4, 33, 95
3, 178080, Note_off_c, 4, 33, 95
3, 178080, Note_on_c, 4, 33, 95
3, 178560, Note_off_c, 4, 33, 95
3, 178560, Note_on_c, 4, 33, 95
3, 179040, Note_off_c, 4, 33, 95
3, 179040, Note_on_c, 4, 33, 95
3, 179520, Note_off_c, 4, 33, 95
3, 179520, Note_on_c, 4, 33, 95
3, 180000, Note_off_c, 4, 33, 95
3, 180000, Note_on_c, 4, 33, 95
3, 180480, Note_off_c, 4, 33, 95
3, 180480, Note_on_c, 4, 38, 95
3, 181440, Note_off_c, 4, 38, 95
3, 181440, Note_on_c, 4, 38, 95
3, 181920, Note_off_c, 4, 38, 95
3, 181920, Note_on_c, 4, 38, 95
3, 182400, Note_off_c, 4, 38, 95
3, 182400, Note_on_c, 4, 38, 95
3, 182880, Note_off_c, 4, 38, 95
3, 182880, Note_on_c, 4, 38, 95
3, 183360, Note_off_c, 4, 38, 95
3, 183360, Note_on_c, 4, 38, 95
3, 183840, Note_off_c, 4, 38, 95
3, 183840, Note_on_c, 4, 38, 95
3, 184320, Note_off_c, 4, 38, 95
3, 184320, Note_on_c, 4, 40, 95
3, 186240, Note_off_c, 4, 40, 95
3, 186240, Note_on_c, 4, 42, 95
3, 188160, Note_off_c, 4, 42, 95
3, 188160, Note_on_c, 4, 44, 95
3, 189600, Note_off_c, 4, 44, 95
3, 189600, Note_on_c, 4, 45, 95
3, 190560, Note_off_c, 4, 45, 95
3, 190560, Note_on_c, 4, 44, 95
3, 191040, Note_off_c, 4, 44, 95
3, 191040, Note_on_c, 4, 42, 95
3, 191520, Note_off_c, 4, 42, 95
3, 191520, Note_on_c, 4, 40, 70
3, 192000, Note_off_c, 4, 40, 70
3, 192000, Note_on_c, 4, 33, 95
3, 192960, Note_off_c, 4, 33, 95
3, 192960, Note_on_c, 4, 33, 95
3, 193440, Note_off_c, 4, 33, 95
3, 193440, Note_on_c, 4, 33, 95
3, 193920, Note_off_c, 4, 33, 95
3, 193920, Note_on_c, 4, 33, 95
3, 194400, Note_off_c, 4, 33, 95
3, 194400, Note_on_c, 4, 33, 95
3, 194880, Note_off_c, 4, 33, 95
3, 194880, Note_on_c, 4, 33, 95
3, 195360, Note_off_c, 4, 33, 95
3, 195360, Note_on_c, 4, 33, 95
3, 195840, Note_off_c, 4, 33, 95
3, 195840, Note_on_c, 4, 38, 95
3, 196800, Note_off_c, 4, 38, 95
3, 196800, Note_on_c, 4, 38, 95
3, 197280, Note_off_c, 4, 38, 95
3, 197280, Note_on_c, 4, 38, 95
3, 197760, Note_off_c, 4, 38, 95
3, 197760, Note_on_c, 4, 38, 95
3, 198240, Note_off_c, 4, 38, 95
3, 198240, Note_on_c, 4, 38, 95
3, 198720, Note_off_c, 4, 38, 95
3, 198720, Note_on_c, 4, 38, 95
3, 199200, Note_off_c, 4, 38, 95
3, 199200, Note_on_c, 4, 38, 95
3, 199680, Note_off_c, 4, 38, 95
3, 199680, Note_on_c, 4, 33, 95
3, 200640, Note_off_c, 4, 33, 95
3, 200640, Note_on_c, 4, 33, 95
3, 201120, Note_off_c, 4, 33, 95
3, 201120, Note_on_c, 4, 33, 95
3, 201600, Note_off_c, 4, 33, 95
3, 201600, Note_on_c, 4, 33, 95
3, 202080, Note_off_c, 4, 33, 95
3, 202080, Note_on_c, 4, 33, 95
3, 202560, Note_off_c, 4, 33, 95
3, 202560, Note_on_c, 4, 33, 95
3, 203040, Note_off_c, 4, 33, 95
3, 203040, Note_on_c, 4, 33, 95
3, 203520, Note_off_c, 4, 33, 95
3, 203520, Note_on_c, 4, 38, 95
3, 204480, Note_off_c, 4, 38, 95
3, 204480, Note_on_c, 4, 38, 95
3, 204960, Note_off_c, 4, 38, 95
3, 204960, Note_on_c, 4, 38, 95
3, 205440, Note_off_c, 4, 38, 95
3, 205440, Note_on_c, 4, 38, 95
3, 205920, Note_off_c, 4, 38, 95
3, 205920, Note_on_c, 4, 38, 95
3, 206400, Note_off_c, 4, 38, 95
3, 206400, Note_on_c, 4, 38, 95
3, 206880, Note_off_c, 4, 38, 95
3, 206880, Note_on_c, 4, 38, 95
3, 207360, Note_off_c, 4, 38, 95
3, 207360, Note_on_c, 4, 33, 95
3, 208320, Note_off_c, 4, 33, 95
3, 208320, Note_on_c, 4, 33, 95
3, 208800, Note_off_c, 4, 33, 95
3, 208800, Note_on_c, 4, 33, 95
3, 209280, Note_off_c, 4, 33, 95
3, 209280, Note_on_c, 4, 33, 95
3, 209760, Note_off_c, 4, 33, 95
3, 209760, Note_on_c, 4, 33, 95
3, 210240, Note_off_c, 4, 33, 95
3, 210240, Note_on_c, 4, 33, 95
3, 210720, Note_off_c, 4, 33, 95
3, 210720, Note_on_c, 4, 33, 95
3, 211200, Note_off_c, 4, 33, 95
3, 211200, Note_on_c, 4, 38, 95
3, 212160, Note_off_c, 4, 38, 95
3, 212160, Note_on_c, 4, 38, 95
3, 212640, Note_off_c, 4, 38, 95
3, 212640, Note_on_c, 4, 38, 95
3, 213120, Note_off_c, 4, 38, 95
3, 213120, Note_on_c, 4, 38, 95
3, 213600, Note_off_c, 4, 38, 95
3, 213600, Note_on_c, 4, 38, 95
3, 214080, Note_off_c, 4, 38, 95
3, 214080, Note_on_c, 4, 38, 95
3, 214560, Note_off_c, 4, 38, 95
3, 214560, Note_on_c, 4, 38, 95
3, 215040, Note_off_c, 4, 38, 95
3, 215040, Note_on_c, 4, 40, 95
3, 216960, Note_off_c, 4, 40, 95
3, 216960, Note_on_c, 4, 42, 95
3, 218880, Note_off_c, 4, 42, 95
3, 218880, Note_on_c, 4, 44, 95
3, 220320, Note_off_c, 4, 44, 95
3, 220320, Note_on_c, 4, 45, 95
3, 221280, Note_off_c, 4, 45, 95
3, 221280, Note_on_c, 4, 44, 95
3, 221760, Note_off_c, 4, 44, 95
3, 221760, Note_on_c, 4, 42, 95
3, 222240, Note_off_c, 4, 42, 95
3, 222240, Note_on_c, 4, 40, 70
3, 224640, Note_off_c, 4, 40, 70
3, 224640, Note_on_c, 4, 42, 95
3, 226560, Note_off_c, 4, 42, 95
3, 226560, Note_on_c, 4, 44, 95
3, 228000, Note_off_c, 4, 44, 95
3, 228000, Note_on_c, 4, 45, 95
3, 228960, Note_off_c, 4, 45, 95
3, 228960, Note_on_c, 4, 44, 95
3, 229440, Note_off_c, 4, 44, 95
3, 229440, Note_on_c, 4, 42, 95
3, 229920, Note_off_c, 4, 42, 95
3, 229920, Note_on_c, 4, 40, 70
3, 230400, Note_off_c, 4, 40, 70
3, 230400, Note_on_c, 4, 33, 95
3, 230880, Note_off_c, 4, 33, 95
3, 230880, Note_on_c, 4, 33, 95
3, 231360, Note_off_c, 4, 33, 95
3, 231360, Note_on_c, 4, 35, 95
3, 231840, Note_off_c, 4, 35, 95
3, 231840, Note_on_c, 4, 33, 95
3, 232320, Note_off_c, 4, 33, 95
3, 232320, Note_on_c, 4, 37, 95
3, 232800, Note_off_c, 4, 37, 95
3, 232800, Note_on_c, 4, 33, 95
3, 233280, Note_off_c, 4, 33, 95
3, 233280, Note_on_c, 4, 33, 95
3, 233760, Note_off_c, 4, 33, 95
3, 233760, Note_on_c, 4, 38, 95
3, 234720, Note_off_c, 4, 38, 95
3, 234720, Note_on_c, 4, 37, 95
3, 235680, Note_off_c, 4, 37, 95
3, 235680, Note_on_c, 4, 33, 95
3, 236160, Note_off_c, 4, 33, 95
3, 236160, Note_on_c, 4, 35, 95
3, 236640, Note_off_c, 4, 35, 95
3, 236640, Note_on_c, 4, 37, 95
3, 237120, Note_off_c, 4, 37, 95
3, 237120, Note_on_c, 4, 35, 95
3, 237600, Note_off_c, 4, 35, 95
3, 237600, Note_on_c, 4, 33, 95
3, 238080, Note_off_c, 4, 33, 95
3, 238080, Note_on_c, 4, 28, 95
3, 238560, Note_off_c, 4, 28, 95
3, 238560, Note_on_c, 4, 28, 95
3, 239040, Note_off_c, 4, 28, 95
3, 239040, Note_on_c, 4, 30, 95
3, 239520, Note_off_c, 4, 30, 95
3, 239520, Note_on_c, 4, 28, 95
3, 240000, Note_off_c, 4, 28, 95
3, 240000, Note_on_c, 4, 32, 95
3, 240480, Note_off_c, 4, 32, 95
3, 240480, Note_on_c, 4, 28, 95
3, 240960, Note_off_c, 4, 28, 95
3, 240960, Note_on_c, 4, 28, 95
3, 241440, Note_off_c, 4, 28, 95
3, 241440, Note_on_c, 4, 33, 95
3, 242400, Note_off_c, 4, 33, 95
3, 242400, Note_on_c, 4, 32, 95
3, 243360, Note_off_c, 4, 32, 95
3, 243360, Note_on_c, 4, 28, 95
3, 243840, Note_off_c, 4, 28, 95
3, 243840, Note_on_c, 4, 30, 95
3, 244320, Note_off_c, 4, 30, 95
3, 244320, Note_on_c, 4, 32, 95
3, 244800, Note_off_c, 4, 32, 95
3, 244800, Note_on_c, 4, 30, 95
3, 245280, Note_off_c, 4, 30, 95
3, 245280, Note_on_c, 4, 28, 95
3, 245760, Note_off_c, 4, 28, 95
3, 245760, Note_on_c, 4, 33, 95
3, 246240, Note_off_c, 4, 33, 95
3, 246240, Note_on_c, 4, 33, 95
3, 246720, Note_off_c, 4, 33, 95
3, 246720, Note_on_c, 4, 35, 95
3, 247200, Note_off_c, 4, 35, 95
3, 247200, Note_on_c, 4, 33, 95
3, 247680, Note_off_c, 4, 33, 95
3, 247680, Note_on_c, 4, 37, 95
3, 248160, Note_off_c, 4, 37, 95
3, 248160, Note_on_c, 4, 33, 95
3, 248640, Note_off_c, 4, 33, 95
3, 248640, Note_on_c, 4, 33, 95
3, 249120, Note_off_c, 4, 33, 95
3, 249120, Note_on_c, 4, 38, 95
3, 250080, Note_off_c, 4, 38, 95
3, 250080, Note_on_c, 4, 37, 95
3, 251040, Note_off_c, 4, 37, 95
3, 251040, Note_on_c, 4, 33, 95
3, 251520, Note_off_c, 4, 33, 95
3, 251520, Note_on_c, 4, 35, 95
3, 252000, Note_off_c, 4, 35, 95
3, 252000, Note_on_c, 4, 37, 95
3, 252480, Note_off_c, 4, 37, 95
3, 252480, Note_on_c, 4, 35, 95
3, 252960, Note_off_c, 4, 35, 95
3, 252960, Note_on_c, 4, 33, 95
3, 253440, Note_off_c, 4, 33, 95
3, 253440, Note_on_c, 4, 28, 95
3, 253920, Note_off_c, 4, 28, 95
3, 253920, Note_on_c, 4, 28, 95
3, 254400, Note_off_c, 4, 28, 95
3, 254400, Note_on_c, 4, 30, 95
3, 254880, Note_off_c, 4, 30, 95
3, 254880, Note_on_c, 4, 28, 95
3, 255360, Note_off_c, 4, 28, 95
3, 255360, Note_on_c, 4, 32, 95
3, 255840, Note_off_c, 4, 32, 95
3, 255840, Note_on_c, 4, 28, 95
3, 256320, Note_off_c, 4, 28, 95
3, 256320, Note_on_c, 4, 28, 95
3, 256800, Note_off_c, 4, 28, 95
3, 256800, Note_on_c, 4, 33, 95
3, 257760, Note_off_c, 4, 33, 95
3, 257760, Note_on_c, 4, 32, 95
3, 258720, Note_off_c, 4, 32, 95
3, 258720, Note_on_c, 4, 28, 95
3, 259200, Note_off_c, 4, 28, 95
3, 259200, Note_on_c, 4, 30, 95
3, 259680, Note_off_c, 4, 30, 95
3, 259680, Note_on_c, 4, 32, 95
3, 260160, Note_off_c, 4, 32, 95
3, 260160, Note_on_c, 4, 30, 95
3, 260640, Note_off_c, 4, 30, 95
3, 260640, Note_on_c, 4, 28, 95
3, 261120, Note_off_c, 4, 28, 95
3, 261120, Note_on_c, 4, 33, 95
3, 264000, Note_off_c, 4, 33, 95
3, 264000, Note_on_c, 4, 33, 95
3, 264960, Note_off_c, 4, 33, 95
3, 264960, Note_on_c, 4, 33, 95
3, 265440, Note_off_c, 4, 33, 95
3, 265440, Note_on_c, 4, 33, 95
3, 265920, Note_off_c, 4, 33, 95
3, 265920, Note_on_c, 4, 33, 95
3, 266400, Note_off_c, 4, 33, 95
3, 266400, Note_on_c, 4, 33, 95
3, 266880, Note_off_c, 4, 33, 95
3, 266880, Note_on_c, 4, 33, 95
3, 267360, Note_off_c, 4, 33, 95
3, 267360, Note_on_c, 4, 33, 95
3, 267840, Note_off_c, 4, 33, 95
3, 267840, Note_on_c, 4, 33, 95
3, 268320, Note_off_c, 4, 33, 95
3, 268320, Note_on_c, 4, 33, 95
3, 268800, Note_off_c, 4, 33, 95
3, 268800, Note_on_c, 4, 33, 95
3, 269280, Note_off_c, 4, 33, 95
3, 269280, Note_on_c, 4, 33, 95
3, 269760, Note_off_c, 4, 33, 95
3, 269760, Note_on_c, 4, 33, 95
3, 270240, Note_off_c, 4, 33, 95
3, 270240, Note_on_c, 4, 33, 95
3, 270720, Note_off_c, 4, 33, 95
3, 270720, Note_on_c, 4, 33, 95
3, 271200, Note_off_c, 4, 33, 95
3, 271200, Note_on_c, 4, 33, 95
3, 271680, Note_off_c, 4, 33, 95
3, 271680, Note_on_c, 4, 33, 95
3, 272160, Note_off_c, 4, 33, 95
3, 272160, Note_on_c, 4, 33, 95
3, 272640, Note_off_c, 4, 33, 95
3, 272640, Note_on_c, 4, 33, 95
3, 273120, Note_off_c, 4, 33, 95
3, 273120, Note_on_c, 4, 33, 95
3, 273600, Note_off_c, 4, 33, 95
3, 273600, Note_on_c, 4, 33, 95
3, 274080, Note_off_c, 4, 33, 95
3, 274080, Note_on_c, 4, 33, 95
3, 274560, Note_off_c, 4, 33, 95
3, 274560, Note_on_c, 4, 33, 95
3, 275040, Note_off_c, 4, 33, 95
3, 275040, Note_on_c, 4, 28, 95
3, 276000, Note_off_c, 4, 28, 95
3, 276000, Note_on_c, 4, 28, 95
3, 276480, Note_off_c, 4, 28, 95
3, 276480, Note_on_c, 4, 28, 95
3, 276960, Note_off_c, 4, 28, 95
3, 276960, Note_on_c, 4, 28, 95
3, 277440, Note_off_c, 4, 28, 95
3, 277440, Note_on_c, 4, 28, 95
3, 277920, Note_off_c, 4, 28, 95
3, 277920, Note_on_c, 4, 28, 95
3, 278400, Note_off_c, 4, 28, 95
3, 278400, Note_on_c, 4, 28, 95
3, 278880, Note_off_c, 4, 28, 95
3, 278880, Note_on_c, 4, 28, 95
3, 279360, Note_off_c, 4, 28, 95
3, 279360, Note_on_c, 4, 28, 95
3, 279840, Note_off_c, 4, 28, 95
3, 279840, Note_on_c, 4, 28, 95
3, 280320, Note_off_c, 4, 28, 95
3, 280320, Note_on_c, 4, 28, 95
3, 280800, Note_off_c, 4, 28, 95
3, 280800, Note_on_c, 4, 28, 95
3, 281280, Note_off_c, 4, 28, 95
3, 281280, Note_on_c, 4, 28, 95
3, 281760, Note_off_c, 4, 28, 95
3, 281760, Note_on_c, 4, 28, 95
3, 282240, Note_off_c, 4, 28, 95
3, 282240, Note_on_c, 4, 28, 95
3, 282720, Note_off_c, 4, 28, 95
3, 282720, Note_on_c, 4, 28, 95
3, 283200, Note_off_c, 4, 28, 95
3, 283200, Note_on_c, 4, 28, 95
3, 283680, Note_off_c, 4, 28, 95
3, 283680, Note_on_c, 4, 28, 95
3, 284160, Note_off_c, 4, 28, 95
3, 284160, Note_on_c, 4, 28, 95
3, 284640, Note_off_c, 4, 28, 95
3, 284640, Note_on_c, 4, 28, 95
3, 285120, Note_off_c, 4, 28, 95
3, 285120, Note_on_c, 4, 28, 95
3, 285600, Note_off_c, 4, 28, 95
3, 285600, Note_on_c, 4, 28, 95
3, 286080, Note_off_c, 4, 28, 95
3, 286080, Note_on_c, 4, 28, 95
3, 286560, Note_off_c, 4, 28, 95
3, 286560, Note_on_c, 4, 28, 95
3, 287040, Note_off_c, 4, 28, 95
3, 287040, Note_on_c, 4, 28, 95
3, 287520, Note_off_c, 4, 28, 95
3, 287520, Note_on_c, 4, 28, 95
3, 288000, Note_off_c, 4, 28, 95
3, 288000, Note_on_c, 4, 28, 95
3, 288480, Note_off_c, 4, 28, 95
3, 288480, Note_on_c, 4, 28, 95
3, 288960, Note_off_c, 4, 28, 95
3, 288960, Note_on_c, 4, 28, 95
3, 289440, Note_off_c, 4, 28, 95
3, 289440, Note_on_c, 4, 28, 95
3, 289920, Note_off_c, 4, 28, 95
3, 289920, Note_on_c, 4, 28, 95
3, 290400, Note_off_c, 4, 28, 95
3, 290400, Note_on_c, 4, 28, 95
3, 290880, Note_off_c, 4, 28, 95
3, 290880, Note_on_c, 4, 33, 95
3, 291840, Note_off_c, 4, 33, 95
3, 291840, Note_on_c, 4, 33, 95
3, 292320, Note_off_c, 4, 33, 95
3, 292320, Note_on_c, 4, 33, 95
3, 292800, Note_off_c, 4, 33, 95
3, 292800, Note_on_c, 4, 33, 95
3, 293280, Note_off_c, 4, 33, 95
3, 293280, Note_on_c, 4, 33, 95
3, 293760, Note_off_c, 4, 33, 95
3, 293760, Note_on_c, 4, 33, 95
3, 294240, Note_off_c, 4, 33, 95
3, 294240, Note_on_c, 4, 33, 95
3, 294720, Note_off_c, 4, 33, 95
3, 294720, Note_on_c, 4, 33, 95
3, 295200, Note_off_c, 4, 33, 95
3, 295200, Note_on_c, 4, 33, 95
3, 295680, Note_off_c, 4, 33, 95
3, 295680, Note_on_c, 4, 33, 95
3, 296160, Note_off_c, 4, 33, 95
3, 296160, Note_on_c, 4, 33, 95
3, 296640, Note_off_c, 4, 33, 95
3, 296640, Note_on_c, 4, 33, 95
3, 297120, Note_off_c, 4, 33, 95
3, 297120, Note_on_c, 4, 33, 95
3, 297600, Note_off_c, 4, 33, 95
3, 297600, Note_on_c, 4, 33, 95
3, 298080, Note_off_c, 4, 33, 95
3, 298080, Note_on_c, 4, 33, 95
3, 298560, Note_off_c, 4, 33, 95
3, 298560, Note_on_c, 4, 33, 95
3, 299040, Note_off_c, 4, 33, 95
3, 299040, Note_on_c, 4, 33, 95
3, 299520, Note_off_c, 4, 33, 95
3, 299520, Note_on_c, 4, 33, 95
3, 300000, Note_off_c, 4, 33, 95
3, 300000, Note_on_c, 4, 33, 95
3, 300480, Note_off_c, 4, 33, 95
3, 300480, Note_on_c, 4, 33, 95
3, 300960, Note_off_c, 4, 33, 95
3, 300960, Note_on_c, 4, 33, 95
3, 301440, Note_off_c, 4, 33, 95
3, 301440, Note_on_c, 4, 33, 95
3, 301920, Note_off_c, 4, 33, 95
3, 301920, Note_on_c, 4, 33, 95
3, 302400, Note_off_c, 4, 33, 95
3, 302400, Note_on_c, 4, 33, 95
3, 302880, Note_off_c, 4, 33, 95
3, 302880, Note_on_c, 4, 28, 95
3, 303360, Note_off_c, 4, 28, 95
3, 303360, Note_on_c, 4, 28, 95
3, 303840, Note_off_c, 4, 28, 95
3, 303840, Note_on_c, 4, 28, 95
3, 304320, Note_off_c, 4, 28, 95
3, 304320, Note_on_c, 4, 28, 95
3, 304800, Note_off_c, 4, 28, 95
3, 304800, Note_on_c, 4, 28, 95
3, 305280, Note_off_c, 4, 28, 95
3, 305280, Note_on_c, 4, 28, 95
3, 305760, Note_off_c, 4, 28, 95
3, 305760, Note_on_c, 4, 28, 95
3, 306240, Note_off_c, 4, 28, 95
3, 306240, Note_on_c, 4, 28, 95
3, 306720, Note_off_c, 4, 28, 95
3, 306720, Note_on_c, 4, 28, 95
3, 307200, Note_off_c, 4, 28, 95
3, 307200, Note_on_c, 4, 28, 95
3, 307680, Note_off_c, 4, 28, 95
3, 307680, Note_on_c, 4, 28, 95
3, 308160, Note_off_c, 4, 28, 95
3, 308160, Note_on_c, 4, 28, 95
3, 308640, Note_off_c, 4, 28, 95
3, 308640, Note_on_c, 4, 28, 95
3, 309120, Note_off_c, 4, 28, 95
3, 309120, Note_on_c, 4, 28, 95
3, 309600, Note_off_c, 4, 28, 95
3, 309600, Note_on_c, 4, 28, 95
3, 310080, Note_off_c, 4, 28, 95
3, 310080, Note_on_c, 4, 28, 95
3, 310560, Note_off_c, 4, 28, 95
3, 310560, Note_on_c, 4, 28, 95
3, 311040, Note_off_c, 4, 28, 95
3, 311040, Note_on_c, 4, 28, 95
3, 311520, Note_off_c, 4, 28, 95
3, 311520, Note_on_c, 4, 28, 95
3, 312000, Note_off_c, 4, 28, 95
3, 312000, Note_on_c, 4, 28, 95
3, 312480, Note_off_c, 4, 28, 95
3, 312480, Note_on_c, 4, 28, 95
3, 312960, Note_off_c, 4, 28, 95
3, 312960, Note_on_c, 4, 28, 95
3, 313440, Note_off_c, 4, 28, 95
3, 313440, Note_on_c, 4, 28, 95
3, 313920, Note_off_c, 4, 28, 95
3, 313920, Note_on_c, 4, 28, 95
3, 314400, Note_off_c, 4, 28, 95
3, 314400, Note_on_c, 4, 28, 95
3, 314880, Note_off_c, 4, 28, 95
3, 314880, Note_on_c, 4, 28, 95
3, 315360, Note_off_c, 4, 28, 95
3, 315360, Note_on_c, 4, 28, 95
3, 315840, Note_off_c, 4, 28, 95
3, 315840, Note_on_c, 4, 28, 95
3, 316320, Note_off_c, 4, 28, 95
3, 316320, Note_on_c, 4, 28, 95
3, 316800, Note_off_c, 4, 28, 95
3, 316800, Note_on_c, 4, 28, 95
3, 317280, Note_off_c, 4, 28, 95
3, 317280, Note_on_c, 4, 28, 95
3, 318720, Note_off_c, 4, 28, 95
3, 318720, Note_on_c, 4, 33, 95
3, 319680, Note_off_c, 4, 33, 95
3, 319680, Note_on_c, 4, 33, 95
3, 320160, Note_off_c, 4, 33, 95
3, 320160, Note_on_c, 4, 33, 95
3, 320640, Note_off_c, 4, 33, 95
3, 320640, Note_on_c, 4, 33, 95
3, 321120, Note_off_c, 4, 33, 95
3, 321120, Note_on_c, 4, 33, 95
3, 321600, Note_off_c, 4, 33, 95
3, 321600, Note_on_c, 4, 33, 95
3, 322080, Note_off_c, 4, 33, 95
3, 322080, Note_on_c, 4, 33, 95
3, 322560, Note_off_c, 4, 33, 95
3, 322560, Note_on_c, 4, 38, 95
3, 323520, Note_off_c, 4, 38, 95
3, 323520, Note_on_c, 4, 38, 95
3, 324000, Note_off_c, 4, 38, 95
3, 324000, Note_on_c, 4, 38, 95
3, 324480, Note_off_c, 4, 38, 95
3, 324480, Note_on_c, 4, 38, 95
3, 324960, Note_off_c, 4, 38, 95
3, 324960, Note_on_c, 4, 38, 95
3, 325440, Note_off_c, 4, 38, 95
3, 325440, Note_on_c, 4, 38, 95
3, 325920, Note_off_c, 4, 38, 95
3, 325920, Note_on_c, 4, 38, 95
3, 326400, Note_off_c, 4, 38, 95
3, 326400, Note_on_c, 4, 33, 95
3, 327360, Note_off_c, 4, 33, 95
3, 327360, Note_on_c, 4, 33, 95
3, 327840, Note_off_c, 4, 33, 95
3, 327840, Note_on_c, 4, 33, 95
3, 328320, Note_off_c, 4, 33, 95
3, 328320, Note_on_c, 4, 33, 95
3, 328800, Note_off_c, 4, 33, 95
3, 328800, Note_on_c, 4, 33, 95
3, 329280, Note_off_c, 4, 33, 95
3, 329280, Note_on_c, 4, 33, 95
3, 329760, Note_off_c, 4, 33, 95
3, 329760, Note_on_c, 4, 33, 95
3, 330240, Note_off_c, 4, 33, 95
3, 330240, Note_on_c, 4, 38, 95
3, 331200, Note_off_c, 4, 38, 95
3, 331200, Note_on_c, 4, 38, 95
3, 331680, Note_off_c, 4, 38, 95
3, 331680, Note_on_c, 4, 38, 95
3, 332160, Note_off_c, 4, 38, 95
3, 332160, Note_on_c, 4, 38, 95
3, 332640, Note_off_c, 4, 38, 95
3, 332640, Note_on_c, 4, 38, 95
3, 333120, Note_off_c, 4, 38, 95
3, 333120, Note_on_c, 4, 38, 95
3, 333600, Note_off_c, 4, 38, 95
3, 333600, Note_on_c, 4, 38, 95
3, 334080, Note_off_c, 4, 38, 95
3, 334080, Note_on_c, 4, 33, 95
3, 335040, Note_off_c, 4, 33, 95
3, 335040, Note_on_c, 4, 33, 95
3, 335520, Note_off_c, 4, 33, 95
3, 335520, Note_on_c, 4, 33, 95
3, 336000, Note_off_c, 4, 33, 95
3, 336000, Note_on_c, 4, 33, 95
3, 336480, Note_off_c, 4, 33, 95
3, 336480, Note_on_c, 4, 33, 95
3, 336960, Note_off_c, 4, 33, 95
3, 336960, Note_on_c, 4, 33, 95
3, 337440, Note_off_c, 4, 33, 95
3, 337440, Note_on_c, 4, 33, 95
3, 337920, Note_off_c, 4, 33, 95
3, 337920, Note_on_c, 4, 38, 95
3, 338880, Note_off_c, 4, 38, 95
3, 338880, Note_on_c, 4, 38, 95
3, 339360, Note_off_c, 4, 38, 95
3, 339360, Note_on_c, 4, 38, 95
3, 339840, Note_off_c, 4, 38, 95
3, 339840, Note_on_c, 4, 38, 95
3, 340320, Note_off_c, 4, 38, 95
3, 340320, Note_on_c, 4, 38, 95
3, 340800, Note_off_c, 4, 38, 95
3, 340800, Note_on_c, 4, 38, 95
3, 341280, Note_off_c, 4, 38, 95
3, 341280, Note_on_c, 4, 38, 95
3, 341760, Note_off_c, 4, 38, 95
3, 341760, Note_on_c, 4, 40, 95
3, 343680, Note_off_c, 4, 40, 95
3, 343680, Note_on_c, 4, 42, 95
3, 345600, Note_off_c, 4, 42, 95
3, 345600, Note_on_c, 4, 44, 95
3, 347040, Note_off_c, 4, 44, 95
3, 347040, Note_on_c, 4, 45, 95
3, 348000, Note_off_c, 4, 45, 95
3, 348000, Note_on_c, 4, 44, 95
3, 348480, Note_off_c, 4, 44, 95
3, 348480, Note_on_c, 4, 42, 95
3, 348960, Note_off_c, 4, 42, 95
3, 348960, Note_on_c, 4, 40, 70
3, 349440, Note_off_c, 4, 40, 70
3, 349440, Note_on_c, 4, 33, 95
3, 350400, Note_off_c, 4, 33, 95
3, 350400, Note_on_c, 4, 33, 95
3, 350880, Note_off_c, 4, 33, 95
3, 350880, Note_on_c, 4, 33, 95
3, 351360, Note_off_c, 4, 33, 95
3, 351360, Note_on_c, 4, 33, 95
3, 351840, Note_off_c, 4, 33, 95
3, 351840, Note_on_c, 4, 33, 95
3, 352320, Note_off_c, 4, 33, 95
3, 352320, Note_on_c, 4, 33, 95
3, 352800, Note_off_c, 4, 33, 95
3, 352800, Note_on_c, 4, 33, 95
3, 353280, Note_off_c, 4, 33, 95
3, 353280, Note_on_c, 4, 38, 95
3, 354240, Note_off_c, 4, 38, 95
3, 354240, Note_on_c, 4, 38, 95
3, 354720, Note_off_c, 4, 38, 95
3, 354720, Note_on_c, 4, 38, 95
3, 355200, Note_off_c, 4, 38, 95
3, 355200, Note_on_c, 4, 38, 95
3, 355680, Note_off_c, 4, 38, 95
3, 355680, Note_on_c, 4, 38, 95
3, 356160, Note_off_c, 4, 38, 95
3, 356160, Note_on_c, 4, 38, 95
3, 356640, Note_off_c, 4, 38, 95
3, 356640, Note_on_c, 4, 38, 95
3, 357120, Note_off_c, 4, 38, 95
3, 357120, Note_on_c, 4, 33, 95
3, 358080, Note_off_c, 4, 33, 95
3, 358080, Note_on_c, 4, 33, 95
3, 358560, Note_off_c, 4, 33, 95
3, 358560, Note_on_c, 4, 33, 95
3, 359040, Note_off_c, 4, 33, 95
3, 359040, Note_on_c, 4, 33, 95
3, 359520, Note_off_c, 4, 33, 95
3, 359520, Note_on_c, 4, 33, 95
3, 360000, Note_off_c, 4, 33, 95
3, 360000, Note_on_c, 4, 33, 95
3, 360480, Note_off_c, 4, 33, 95
3, 360480, Note_on_c, 4, 33, 95
3, 360960, Note_off_c, 4, 33, 95
3, 360960, Note_on_c, 4, 38, 95
3, 361920, Note_off_c, 4, 38, 95
3, 361920, Note_on_c, 4, 38, 95
3, 362400, Note_off_c, 4, 38, 95
3, 362400, Note_on_c, 4, 38, 95
3, 362880, Note_off_c, 4, 38, 95
3, 362880, Note_on_c, 4, 38, 95
3, 363360, Note_off_c, 4, 38, 95
3, 363360, Note_on_c, 4, 38, 95
3, 363840, Note_off_c, 4, 38, 95
3, 363840, Note_on_c, 4, 38, 95
3, 364320, Note_off_c, 4, 38, 95
3, 364320, Note_on_c, 4, 38, 95
3, 364800, Note_off_c, 4, 38, 95
3, 364800, Note_on_c, 4, 33, 95
3, 365760, Note_off_c, 4, 33, 95
3, 365760, Note_on_c, 4, 33, 95
3, 366240, Note_off_c, 4, 33, 95
3, 366240, Note_on_c, 4, 33, 95
3, 366720, Note_off_c, 4, 33, 95
3, 366720, Note_on_c, 4, 33, 95
3, 367200, Note_off_c, 4, 33, 95
3, 367200, Note_on_c, 4, 33, 95
3, 367680, Note_off_c, 4, 33, 95
3, 367680, Note_on_c, 4, 33, 95
3, 368160, Note_off_c, 4, 33, 95
3, 368160, Note_on_c, 4, 33, 95
3, 368640, Note_off_c, 4, 33, 95
3, 368640, Note_on_c, 4, 38, 95
3, 369600, Note_off_c, 4, 38, 95
3, 369600, Note_on_c, 4, 38, 95
3, 370080, Note_off_c, 4, 38, 95
3, 370080, Note_on_c, 4, 38, 95
3, 370560, Note_off_c, 4, 38, 95
3, 370560, Note_on_c, 4, 38, 95
3, 371040, Note_off_c, 4, 38, 95
3, 371040, Note_on_c, 4, 38, 95
3, 371520, Note_off_c, 4, 38, 95
3, 371520, Note_on_c, 4, 38, 95
3, 372000, Note_off_c, 4, 38, 95
3, 372000, Note_on_c, 4, 38, 95
3, 372480, Note_off_c, 4, 38, 95
3, 372480, Note_on_c, 4, 40, 95
3, 374400, Note_off_c, 4, 40, 95
3, 374400, Note_on_c, 4, 42, 95
3, 376320, Note_off_c, 4, 42, 95
3, 376320, Note_on_c, 4, 44, 95
3, 377760, Note_off_c, 4, 44, 95
3, 377760, Note_on_c, 4, 45, 95
3, 378720, Note_off_c, 4, 45, 95
3, 378720, Note_on_c, 4, 44, 95
3, 379200, Note_off_c, 4, 44, 95
3, 379200, Note_on_c, 4, 42, 95
3, 379680, Note_off_c, 4, 42, 95
3, 379680, Note_on_c, 4, 40, 70
3, 380160, Note_off_c, 4, 40, 70
3, 380160, Note_on_c, 4, 33, 95
3, 381120, Note_off_c, 4, 33, 95
3, 381120, Note_on_c, 4, 33, 95
3, 381600, Note_off_c, 4, 33, 95
3, 381600, Note_on_c, 4, 33, 95
3, 382080, Note_off_c, 4, 33, 95
3, 382080, Note_on_c, 4, 33, 95
3, 382560, Note_off_c, 4, 33, 95
3, 382560, Note_on_c, 4, 33, 95
3, 383040, Note_off_c, 4, 33, 95
3, 383040, Note_on_c, 4, 33, 95
3, 383520, Note_off_c, 4, 33, 95
3, 383520, Note_on_c, 4, 33, 95
3, 384000, Note_off_c, 4, 33, 95
3, 384000, Note_on_c, 4, 38, 95
3, 384960, Note_off_c, 4, 38, 95
3, 384960, Note_on_c, 4, 38, 95
3, 385440, Note_off_c, 4, 38, 95
3, 385440, Note_on_c, 4, 38, 95
3, 385920, Note_off_c, 4, 38, 95
3, 385920, Note_on_c, 4, 38, 95
3, 386400, Note_off_c, 4, 38, 95
3, 386400, Note_on_c, 4, 38, 95
3, 386880, Note_off_c, 4, 38, 95
3, 386880, Note_on_c, 4, 38, 95
3, 387360, Note_off_c, 4, 38, 95
3, 387360, Note_on_c, 4, 38, 95
3, 387840, Note_off_c, 4, 38, 95
3, 387840, Note_on_c, 4, 33, 95
3, 388800, Note_off_c, 4, 33, 95
3, 388800, Note_on_c, 4, 33, 95
3, 389280, Note_off_c, 4, 33, 95
3, 389280, Note_on_c, 4, 33, 95
3, 389760, Note_off_c, 4, 33, 95
3, 389760, Note_on_c, 4, 33, 95
3, 390240, Note_off_c, 4, 33, 95
3, 390240, Note_on_c, 4, 33, 95
3, 390720, Note_off_c, 4, 33, 95
3, 390720, Note_on_c, 4, 33, 95
3, 391200, Note_off_c, 4, 33, 95
3, 391200, Note_on_c, 4, 33, 95
3, 391680, Note_off_c, 4, 33, 95
3, 391680, Note_on_c, 4, 38, 95
3, 392640, Note_off_c, 4, 38, 95
3, 392640, Note_on_c, 4, 38, 95
3, 393120, Note_off_c, 4, 38, 95
3, 393120, Note_on_c, 4, 38, 95
3, 393600, Note_off_c, 4, 38, 95
3, 393600, Note_on_c, 4, 38, 95
3, 394080, Note_off_c, 4, 38, 95
3, 394080, Note_on_c, 4, 38, 95
3, 394560, Note_off_c, 4, 38, 95
3, 394560, Note_on_c, 4, 38, 95
3, 395040, Note_off_c, 4, 38, 95
3, 395040, Note_on_c, 4, 38, 95
3, 395520, Note_off_c, 4, 38, 95
3, 395520, Note_on_c, 4, 33, 95
3, 396480, Note_off_c, 4, 33, 95
3, 396480, Note_on_c, 4, 33, 95
3, 396960, Note_off_c, 4, 33, 95
3, 396960, Note_on_c, 4, 33, 95
3, 397440, Note_off_c, 4, 33, 95
3, 397440, Note_on_c, 4, 33, 95
3, 397920, Note_off_c, 4, 33, 95
3, 397920, Note_on_c, 4, 33, 95
3, 398400, Note_off_c, 4, 33, 95
3, 398400, Note_on_c, 4, 33, 95
3, 398880, Note_off_c, 4, 33, 95
3, 398880, Note_on_c, 4, 33, 95
3, 399360, Note_off_c, 4, 33, 95
3, 399360, Note_on_c, 4, 38, 95
3, 400320, Note_off_c, 4, 38, 95
3, 400320, Note_on_c, 4, 38, 95
3, 400800, Note_off_c, 4, 38, 95
3, 400800, Note_on_c, 4, 38, 95
3, 401280, Note_off_c, 4, 38, 95
3, 401280, Note_on_c, 4, 38, 95
3, 401760, Note_off_c, 4, 38, 95
3, 401760, Note_on_c, 4, 38, 95
3, 402240, Note_off_c, 4, 38, 95
3, 402240, Note_on_c, 4, 38, 95
3, 402720, Note_off_c, 4, 38, 95
3, 402720, Note_on_c, 4, 38, 95
3, 403200, Note_off_c, 4, 38, 95
3, 403200, Note_on_c, 4, 40, 95
3, 405120, Note_off_c, 4, 40, 95
3, 405120, Note_on_c, 4, 42, 95
3, 407040, Note_off_c, 4, 42, 95
3, 407040, Note_on_c, 4, 44, 95
3, 408480, Note_off_c, 4, 44, 95
3, 408480, Note_on_c, 4, 45, 95
3, 409440, Note_off_c, 4, 45, 95
3, 409440, Note_on_c, 4, 44, 95
3, 409920, Note_off_c, 4, 44, 95
3, 409920, Note_on_c, 4, 42, 95
3, 410400, Note_off_c, 4, 42, 95
3, 410400, Note_on_c, 4, 40, 70
3, 410880, Note_off_c, 4, 40, 70
3, 410880, End_track
4, 0, Start_track
4, 0, Pitch_bend_c, 9, 8192
4, 0, Control_c, 9, 7, 87
4, 0, Control_c, 9, 10, 63
4, 0, Control_c, 9, 93, 0
4, 0, Control_c, 9, 91, 0
4, 0, Control_c, 9, 95, 0
4, 0, Control_c, 9, 92, 0
4, 0, Control_c, 9, 11, 127
4, 0, Program_c, 9, 0
4, 0, Note_on_c, 9, 51, 95
4, 480, Note_off_c, 9, 51, 95
4, 480, Note_on_c, 9, 51, 95
4, 720, Note_off_c, 9, 51, 95
4, 720, Note_on_c, 9, 51, 95
4, 960, Note_off_c, 9, 51, 95
4, 960, Note_on_c, 9, 51, 95
4, 1440, Note_off_c, 9, 51, 95
4, 1440, Note_on_c, 9, 51, 95
4, 1680, Note_off_c, 9, 51, 95
4, 1680, Note_on_c, 9, 51, 95
4, 1920, Note_off_c, 9, 51, 95
4, 1920, Note_on_c, 9, 51, 95
4, 2400, Note_off_c, 9, 51, 95
4, 2400, Note_on_c, 9, 51, 95
4, 2640, Note_off_c, 9, 51, 95
4, 2640, Note_on_c, 9, 51, 95
4, 2880, Note_off_c, 9, 51, 95
4, 2880, Note_on_c, 9, 51, 95
4, 3360, Note_off_c, 9, 51, 95
4, 3360, Note_on_c, 9, 51, 95
4, 3600, Note_off_c, 9, 51, 95
4, 3600, Note_on_c, 9, 51, 95
4, 3840, Note_off_c, 9, 51, 95
4, 3840, Note_on_c, 9, 51, 95
4, 4320, Note_off_c, 9, 51, 95
4, 4320, Note_on_c, 9, 51, 95
4, 4560, Note_off_c, 9, 51, 95
4, 4560, Note_on_c, 9, 51, 95
4, 4800, Note_off_c, 9, 51, 95
4, 4800, Note_on_c, 9, 51, 95
4, 5280, Note_off_c, 9, 51, 95
4, 5280, Note_on_c, 9, 51, 95
4, 5520, Note_off_c, 9, 51, 95
4, 5520, Note_on_c, 9, 51, 95
4, 5760, Note_off_c, 9, 51, 95
4, 5760, Note_on_c, 9, 51, 95
4, 6240, Note_off_c, 9, 51, 95
4, 6240, Note_on_c, 9, 51, 95
4, 6720, Note_off_c, 9, 51, 95
4, 6720, Note_on_c, 9, 51, 95
4, 7200, Note_off_c, 9, 51, 95
4, 7200, Note_on_c, 9, 51, 95
4, 7440, Note_off_c, 9, 51, 95
4, 7440, Note_on_c, 9, 51, 95
4, 7680, Note_off_c, 9, 51, 95
4, 7680, Note_on_c, 9, 51, 95
4, 8160, Note_off_c, 9, 51, 95
4, 8160, Note_on_c, 9, 51, 95
4, 8400, Note_off_c, 9, 51, 95
4, 8400, Note_on_c, 9, 51, 95
4, 8640, Note_off_c, 9, 51, 95
4, 8640, Note_on_c, 9, 51, 95
4, 9120, Note_off_c, 9, 51, 95
4, 9120, Note_on_c, 9, 51, 95
4, 9360, Note_off_c, 9, 51, 95
4, 9360, Note_on_c, 9, 51, 95
4, 9600, Note_off_c, 9, 51, 95
4, 9600, Note_on_c, 9, 51, 95
4, 10080, Note_off_c, 9, 51, 95
4, 10080, Note_on_c, 9, 51, 95
4, 10320, Note_off_c, 9, 51, 95
4, 10320, Note_on_c, 9, 51, 95
4, 10560, Note_off_c, 9, 51, 95
4, 10560, Note_on_c, 9, 51, 95
4, 11040, Note_off_c, 9, 51, 95
4, 11040, Note_on_c, 9, 51, 95
4, 11280, Note_off_c, 9, 51, 95
4, 11280, Note_on_c, 9, 51, 95
4, 11520, Note_off_c, 9, 51, 95
4, 11520, Note_on_c, 9, 51, 95
4, 12000, Note_off_c, 9, 51, 95
4, 12000, Note_on_c, 9, 51, 95
4, 12240, Note_off_c, 9, 51, 95
4, 12240, Note_on_c, 9, 51, 95
4, 12480, Note_off_c, 9, 51, 95
4, 12480, Note_on_c, 9, 51, 95
4, 12960, Note_off_c, 9, 51, 95
4, 12960, Note_on_c, 9, 51, 95
4, 13200, Note_off_c, 9, 51, 95
4, 13200, Note_on_c, 9, 51, 95
4, 13440, Note_off_c, 9, 51, 95
4, 13440, Note_on_c, 9, 51, 95
4, 13920, Note_off_c, 9, 51, 95
4, 13920, Note_on_c, 9, 51, 95
4, 14160, Note_off_c, 9, 51, 95
4, 14160, Note_on_c, 9, 51, 95
4, 14400, Note_off_c, 9, 51, 95
4, 14400, Note_on_c, 9, 51, 95
4, 14880, Note_off_c, 9, 51, 95
4, 14880, Note_on_c, 9, 51, 95
4, 15120, Note_off_c, 9, 51, 95
4, 15120, Note_on_c, 9, 51, 95
4, 15360, Note_off_c, 9, 51, 95
4, 15360, Note_on_c, 9, 51, 95
4, 15840, Note_off_c, 9, 51, 95
4, 15840, Note_on_c, 9, 51, 95
4, 16080, Note_off_c, 9, 51, 95
4, 16080, Note_on_c, 9, 51, 95
4, 16320, Note_off_c, 9, 51, 95
4, 16320, Note_on_c, 9, 51, 95
4, 16800, Note_off_c, 9, 51, 95
4, 16800, Note_on_c, 9, 51, 95
4, 17040, Note_off_c, 9, 51, 95
4, 17040, Note_on_c, 9, 51, 95
4, 17280, Note_off_c, 9, 51, 95
4, 17280, Note_on_c, 9, 51, 95
4, 17760, Note_off_c, 9, 51, 95
4, 17760, Note_on_c, 9, 51, 95
4, 18000, Note_off_c, 9, 51, 95
4, 18000, Note_on_c, 9, 51, 95
4, 18240, Note_off_c, 9, 51, 95
4, 18240, Note_on_c, 9, 51, 95
4, 18720, Note_off_c, 9, 51, 95
4, 18720, Note_on_c, 9, 51, 95
4, 18960, Note_off_c, 9, 51, 95
4, 18960, Note_on_c, 9, 51, 95
4, 19200, Note_off_c, 9, 51, 95
4, 19200, Note_on_c, 9, 51, 95
4, 19680, Note_off_c, 9, 51, 95
4, 19680, Note_on_c, 9, 51, 95
4, 19920, Note_off_c, 9, 51, 95
4, 19920, Note_on_c, 9, 51, 95
4, 20160, Note_off_c, 9, 51, 95
4, 20160, Note_on_c, 9, 51, 95
4, 20640, Note_off_c, 9, 51, 95
4, 20640, Note_on_c, 9, 51, 95
4, 20880, Note_off_c, 9, 51, 95
4, 20880, Note_on_c, 9, 51, 95
4, 21120, Note_off_c, 9, 51, 95
4, 21120, Note_on_c, 9, 51, 95
4, 21600, Note_off_c, 9, 51, 95
4, 21600, Note_on_c, 9, 51, 95
4, 21840, Note_off_c, 9, 51, 95
4, 21840, Note_on_c, 9, 51, 95
4, 22080, Note_off_c, 9, 51, 95
4, 22080, Note_on_c, 9, 51, 95
4, 22560, Note_off_c, 9, 51, 95
4, 22560, Note_on_c, 9, 51, 95
4, 22800, Note_off_c, 9, 51, 95
4, 22800, Note_on_c, 9, 51, 95
4, 23040, Note_off_c, 9, 51, 95
4, 23040, Note_on_c, 9, 51, 95
4, 23520, Note_off_c, 9, 51, 95
4, 23520, Note_on_c, 9, 51, 95
4, 23760, Note_off_c, 9, 51, 95
4, 23760, Note_on_c, 9, 51, 95
4, 24000, Note_off_c, 9, 51, 95
4, 24000, Note_on_c, 9, 51, 95
4, 24480, Note_off_c, 9, 51, 95
4, 24480, Note_on_c, 9, 51, 95
4, 24720, Note_off_c, 9, 51, 95
4, 24720, Note_on_c, 9, 51, 95
4, 24960, Note_off_c, 9, 51, 95
4, 24960, Note_on_c, 9, 51, 95
4, 25440, Note_off_c, 9, 51, 95
4, 25440, Note_on_c, 9, 51, 95
4, 25680, Note_off_c, 9, 51, 95
4, 25680, Note_on_c, 9, 51, 95
4, 25920, Note_off_c, 9, 51, 95
4, 25920, Note_on_c, 9, 51, 95
4, 26400, Note_off_c, 9, 51, 95
4, 26400, Note_on_c, 9, 51, 95
4, 26640, Note_off_c, 9, 51, 95
4, 26640, Note_on_c, 9, 51, 95
4, 26880, Note_off_c, 9, 51, 95
4, 26880, End_track
0, 0, End_of_file
