0, 0, Header, 1, 15, 192
1, 0, Start_track
1, 0, Time_signature, 4, 2, 24, 8
1, 0, Key_signature, 0, "major"
1, 0, Tempo, 674157
1, 96, Tempo, 674157
1, 192, Tempo, 674157
1, 288, Tempo, 674157
1, 384, Tempo, 674157
1, 480, Tempo, 674157
1, 576, Tempo, 674157
1, 672, Tempo, 674157
1, 768, Tempo, 674157
1, 864, Tempo, 674157
1, 960, Tempo, 674157
1, 1056, Tempo, 674157
1, 1152, Tempo, 674157
1, 1248, Tempo, 674157
1, 1344, Tempo, 674157
1, 1440, Tempo, 674157
1, 1536, Tempo, 674157
1, 1632, Tempo, 674157
1, 1728, Tempo, 674157
1, 1824, Tempo, 674157
1, 1920, Tempo, 674157
1, 2016, Tempo, 674157
1, 2112, Tempo, 674157
1, 2208, Tempo, 674157
1, 2304, Tempo, 674157
1, 2400, Tempo, 674157
1, 2496, Tempo, 674157
1, 2592, Tempo, 674157
1, 2688, Tempo, 674157
1, 2784, Tempo, 674157
1, 2880, Tempo, 674157
1, 2976, Tempo, 674157
1, 3072, Tempo, 674157
1, 3168, Tempo, 674157
1, 3264, Tempo, 674157
1, 3360, Tempo, 674157
1, 3456, Tempo, 674157
1, 3552, Tempo, 674157
1, 3648, Tempo, 674157
1, 3744, Tempo, 674157
1, 3840, Tempo, 674157
1, 3936, Tempo, 674157
1, 4032, Tempo, 674157
1, 4128, Tempo, 674157
1, 4224, Tempo, 674157
1, 4320, Tempo, 674157
1, 4416, Tempo, 674157
1, 4512, Tempo, 674157
1, 4608, Tempo, 674157
1, 4704, Tempo, 674157
1, 4800, Tempo, 674157
1, 4896, Tempo, 674157
1, 4992, Tempo, 674157
1, 5088, Tempo, 674157
1, 5184, Tempo, 674157
1, 5280, Tempo, 674157
1, 5376, Tempo, 674157
1, 5472, Tempo, 674157
1, 5568, Tempo, 674157
1, 5664, Tempo, 674157
1, 5760, Tempo, 674157
1, 5856, Tempo, 674157
1, 5952, Tempo, 674157
1, 6048, Tempo, 674157
1, 6144, Tempo, 674157
1, 6240, Tempo, 674157
1, 6336, Tempo, 674157
1, 6432, Tempo, 674157
1, 6528, Tempo, 674157
1, 6624, Tempo, 674157
1, 6720, Tempo, 674157
1, 6816, Tempo, 674157
1, 6912, Tempo, 674157
1, 7008, Tempo, 674157
1, 7104, Tempo, 674157
1, 7200, Tempo, 674157
1, 7296, Tempo, 674157
1, 7392, Tempo, 674157
1, 7488, Tempo, 674157
1, 7584, Tempo, 674157
1, 7680, Tempo, 674157
1, 7776, Tempo, 674157
1, 7872, Tempo, 674157
1, 7968, Tempo, 674157
1, 8064, Tempo, 674157
1, 8160, Tempo, 674157
1, 8256, Tempo, 674157
1, 8352, Tempo, 674157
1, 8448, Tempo, 666666
1, 8544, Tempo, 666666
1, 8640, Tempo, 666666
1, 8736, Tempo, 666666
1, 8832, Tempo, 666666
1, 8928, Tempo, 666666
1, 9024, Tempo, 666666
1, 9120, Tempo, 666666
1, 9216, Tempo, 666666
1, 9312, Tempo, 666666
1, 9408, Tempo, 666666
1, 9504, Tempo, 666666
1, 9600, Tempo, 666666
1, 9696, Tempo, 666666
1, 9792, Tempo, 666666
1, 9888, Tempo, 666666
1, 9984, Tempo, 666666
1, 10080, Tempo, 666666
1, 10176, Tempo, 666666
1, 10272, Tempo, 666666
1, 10368, Tempo, 666666
1, 10464, Tempo, 666666
1, 10560, Tempo, 666666
1, 10656, Tempo, 666666
1, 10752, Tempo, 666666
1, 10848, Tempo, 666666
1, 10944, Tempo, 666666
1, 11040, Tempo, 666666
1, 11136, Tempo, 666666
1, 11232, Tempo, 666666
1, 11328, Tempo, 666666
1, 11424, Tempo, 666666
1, 11520, Tempo, 666666
1, 11616, Tempo, 666666
1, 11712, Tempo, 666666
1, 11808, Tempo, 666666
1, 11904, Tempo, 666666
1, 12000, Tempo, 666666
1, 12096, Tempo, 666666
1, 12192, Tempo, 666666
1, 12288, Tempo, 666666
1, 12384, Tempo, 666666
1, 12480, Tempo, 666666
1, 12576, Tempo, 666666
1, 12672, Tempo, 666666
1, 12768, Tempo, 666666
1, 12864, Tempo, 666666
1, 12960, Tempo, 666666
1, 13056, Tempo, 666666
1, 13152, Tempo, 666666
1, 13248, Tempo, 666666
1, 13344, Tempo, 666666
1, 13440, Tempo, 666666
1, 13536, Tempo, 666666
1, 13632, Tempo, 666666
1, 13728, Tempo, 666666
1, 13824, Tempo, 666666
1, 13920, Tempo, 666666
1, 14016, Tempo, 666666
1, 14112, Tempo, 666666
1, 14208, Tempo, 666666
1, 14304, Tempo, 666666
1, 14400, Tempo, 666666
1, 14496, Tempo, 666666
1, 14592, Tempo, 666666
1, 14688, Tempo, 666666
1, 14784, Tempo, 666666
1, 14880, Tempo, 666666
1, 14976, Tempo, 666666
1, 15072, Tempo, 666666
1, 15168, Tempo, 666666
1, 15264, Tempo, 666666
1, 15360, Tempo, 666666
1, 15456, Tempo, 666666
1, 15552, Tempo, 666666
1, 15648, Tempo, 666666
1, 15744, Tempo, 666666
1, 15840, Tempo, 666666
1, 15936, Tempo, 666666
1, 16032, Tempo, 666666
1, 16128, Tempo, 666666
1, 16224, Tempo, 666666
1, 16320, Tempo, 666666
1, 16416, Tempo, 666666
1, 16512, Tempo, 666666
1, 16608, Tempo, 666666
1, 16704, Tempo, 659340
1, 16800, Tempo, 659340
1, 16896, Tempo, 659340
1, 16992, Tempo, 659340
1, 17088, Tempo, 659340
1, 17184, Tempo, 659340
1, 17280, Tempo, 659340
1, 17376, Tempo, 659340
1, 17472, Tempo, 659340
1, 17568, Tempo, 659340
1, 17664, Tempo, 659340
1, 17760, Tempo, 659340
1, 17856, Tempo, 659340
1, 17952, Tempo, 659340
1, 18048, Tempo, 659340
1, 18144, Tempo, 659340
1, 18240, Tempo, 659340
1, 18336, Tempo, 659340
1, 18432, Tempo, 659340
1, 18528, Tempo, 659340
1, 18624, Tempo, 659340
1, 18720, Tempo, 659340
1, 18816, Tempo, 659340
1, 18912, Tempo, 659340
1, 19008, Tempo, 659340
1, 19104, Tempo, 659340
1, 19200, Tempo, 659340
1, 19296, Tempo, 659340
1, 19392, Tempo, 659340
1, 19488, Tempo, 659340
1, 19584, Tempo, 659340
1, 19680, Tempo, 659340
1, 19776, Tempo, 659340
1, 19872, Tempo, 659340
1, 19968, Tempo, 659340
1, 20064, Tempo, 659340
1, 20160, Tempo, 659340
1, 20256, Tempo, 659340
1, 20352, Tempo, 659340
1, 20448, Tempo, 659340
1, 20544, Tempo, 659340
1, 20640, Tempo, 659340
1, 20736, Tempo, 659340
1, 20832, Tempo, 659340
1, 20928, Tempo, 659340
1, 21024, Tempo, 659340
1, 21120, Tempo, 659340
1, 21216, Tempo, 659340
1, 21312, Tempo, 659340
1, 21408, Tempo, 659340
1, 21504, Tempo, 659340
1, 21600, Tempo, 659340
1, 21696, Tempo, 659340
1, 21792, Tempo, 659340
1, 21888, Tempo, 659340
1, 21984, Tempo, 659340
1, 22080, Tempo, 659340
1, 22176, Tempo, 659340
1, 22272, Tempo, 659340
1, 22368, Tempo, 659340
1, 22464, Tempo, 659340
1, 22560, Tempo, 659340
1, 22656, Tempo, 659340
1, 22752, Tempo, 659340
1, 22848, Tempo, 659340
1, 22944, Tempo, 659340
1, 23040, Tempo, 659340
1, 23136, Tempo, 659340
1, 23232, Tempo, 659340
1, 23328, Tempo, 659340
1, 23424, Tempo, 659340
1, 23520, Tempo, 659340
1, 23616, Tempo, 659340
1, 23712, Tempo, 659340
1, 23808, Tempo, 659340
1, 23904, Tempo, 659340
1, 24000, Tempo, 659340
1, 24096, Tempo, 659340
1, 24192, Tempo, 659340
1, 24288, Tempo, 659340
1, 24384, Tempo, 659340
1, 24480, Tempo, 659340
1, 24576, Tempo, 659340
1, 24672, Tempo, 652173
1, 24768, Tempo, 652173
1, 24864, Tempo, 652173
1, 24960, Tempo, 652173
1, 25056, Tempo, 652173
1, 25152, Tempo, 652173
1, 25248, Tempo, 652173
1, 25344, Tempo, 652173
1, 25440, Tempo, 652173
1, 25536, Tempo, 652173
1, 25632, Tempo, 652173
1, 25728, Tempo, 652173
1, 25824, Tempo, 652173
1, 25920, Tempo, 652173
1, 26016, Tempo, 652173
1, 26112, Tempo, 652173
1, 26208, Tempo, 652173
1, 26304, Tempo, 652173
1, 26400, Tempo, 652173
1, 26496, Tempo, 652173
1, 26592, Tempo, 652173
1, 26688, Tempo, 652173
1, 26784, Tempo, 652173
1, 26880, Tempo, 652173
1, 26976, Tempo, 652173
1, 27072, Tempo, 652173
1, 27168, Tempo, 652173
1, 27264, Tempo, 652173
1, 27360, Tempo, 652173
1, 27456, Tempo, 652173
1, 27552, Tempo, 652173
1, 27648, Tempo, 652173
1, 27744, Tempo, 652173
1, 27840, Tempo, 652173
1, 27936, Tempo, 652173
1, 28032, Tempo, 652173
1, 28128, Tempo, 652173
1, 28224, Tempo, 652173
1, 28320, Tempo, 652173
1, 28416, Tempo, 652173
1, 28512, Tempo, 652173
1, 28608, Tempo, 652173
1, 28704, Tempo, 652173
1, 28800, Tempo, 652173
1, 28896, Tempo, 652173
1, 28992, Tempo, 652173
1, 29088, Tempo, 652173
1, 29184, Tempo, 652173
1, 29280, Tempo, 652173
1, 29376, Tempo, 652173
1, 29472, Tempo, 652173
1, 29568, Tempo, 652173
1, 29664, Tempo, 652173
1, 29760, Tempo, 652173
1, 29856, Tempo, 652173
1, 29952, Tempo, 652173
1, 30048, Tempo, 652173
1, 30144, Tempo, 652173
1, 30240, Tempo, 652173
1, 30336, Tempo, 652173
1, 30432, Tempo, 652173
1, 30528, Tempo, 652173
1, 30624, Tempo, 652173
1, 30720, Tempo, 652173
1, 30816, Tempo, 652173
1, 30912, Tempo, 652173
1, 31008, Tempo, 652173
1, 31104, Tempo, 652173
1, 31200, Tempo, 652173
1, 31296, Tempo, 652173
1, 31392, Tempo, 652173
1, 31488, Tempo, 652173
1, 31584, Tempo, 652173
1, 31680, Tempo, 652173
1, 31776, Tempo, 652173
1, 31872, Tempo, 652173
1, 31968, Tempo, 652173
1, 32064, Tempo, 652173
1, 32160, Tempo, 652173
1, 32256, Tempo, 652173
1, 32352, Tempo, 652173
1, 32448, Tempo, 652173
1, 32544, Tempo, 645161
1, 32640, Tempo, 645161
1, 32736, Tempo, 645161
1, 32832, Tempo, 645161
1, 32928, Tempo, 645161
1, 33024, Tempo, 645161
1, 33120, Tempo, 645161
1, 33216, Tempo, 645161
1, 33312, Tempo, 645161
1, 33408, Tempo, 645161
1, 33504, Tempo, 645161
1, 33600, Tempo, 645161
1, 33696, Tempo, 645161
1, 33792, Tempo, 645161
1, 33888, Tempo, 645161
1, 33984, Tempo, 645161
1, 34080, Tempo, 645161
1, 34176, Tempo, 645161
1, 34272, Tempo, 645161
1, 34368, Tempo, 645161
1, 34464, Tempo, 645161
1, 34560, Tempo, 645161
1, 34656, Tempo, 645161
1, 34752, Tempo, 645161
1, 34848, Tempo, 645161
1, 34944, Tempo, 645161
1, 35040, Tempo, 645161
1, 35136, Tempo, 645161
1, 35232, Tempo, 645161
1, 35328, Tempo, 645161
1, 35424, Tempo, 645161
1, 35520, Tempo, 645161
1, 35616, Tempo, 645161
1, 35712, Tempo, 645161
1, 35808, Tempo, 645161
1, 35904, Tempo, 645161
1, 36000, Tempo, 645161
1, 36096, Tempo, 645161
1, 36192, Tempo, 645161
1, 36288, Tempo, 645161
1, 36384, Tempo, 645161
1, 36480, Tempo, 645161
1, 36576, Tempo, 645161
1, 36672, Tempo, 645161
1, 36768, Tempo, 645161
1, 36864, Tempo, 645161
1, 36960, Tempo, 645161
1, 37056, Tempo, 645161
1, 37152, Tempo, 645161
1, 37248, Tempo, 645161
1, 37344, Tempo, 645161
1, 37440, Tempo, 645161
1, 37536, Tempo, 645161
1, 37632, Tempo, 645161
1, 37728, Tempo, 645161
1, 37824, Tempo, 645161
1, 37920, Tempo, 645161
1, 38016, Tempo, 645161
1, 38112, Tempo, 645161
1, 38208, Tempo, 645161
1, 38304, Tempo, 645161
1, 38400, Tempo, 645161
1, 38496, Tempo, 645161
1, 38592, Tempo, 645161
1, 38688, Tempo, 645161
1, 38784, Tempo, 645161
1, 38880, Tempo, 645161
1, 38976, Tempo, 645161
1, 39072, Tempo, 645161
1, 39168, Tempo, 645161
1, 39264, Tempo, 645161
1, 39360, Tempo, 645161
1, 39456, Tempo, 645161
1, 39552, Tempo, 645161
1, 39648, Tempo, 645161
1, 39744, Tempo, 645161
1, 39840, Tempo, 645161
1, 39936, Tempo, 645161
1, 40032, Tempo, 645161
1, 40128, Tempo, 638297
1, 40224, Tempo, 638297
1, 40320, Tempo, 638297
1, 40416, Tempo, 638297
1, 40512, Tempo, 638297
1, 40608, Tempo, 638297
1, 40704, Tempo, 638297
1, 40800, Tempo, 638297
1, 40896, Tempo, 638297
1, 40992, Tempo, 638297
1, 41088, Tempo, 638297
1, 41184, Tempo, 638297
1, 41280, Tempo, 638297
1, 41376, Tempo, 638297
1, 41472, Tempo, 638297
1, 41568, Tempo, 638297
1, 41664, Tempo, 638297
1, 41760, Tempo, 638297
1, 41856, Tempo, 638297
1, 41952, Tempo, 638297
1, 42048, Tempo, 638297
1, 42144, Tempo, 638297
1, 42240, Tempo, 638297
1, 42336, Tempo, 638297
1, 42432, Tempo, 638297
1, 42528, Tempo, 638297
1, 42624, Tempo, 638297
1, 42720, Tempo, 638297
1, 42816, Tempo, 638297
1, 42912, Tempo, 638297
1, 43008, Tempo, 638297
1, 43104, Tempo, 638297
1, 43200, Tempo, 638297
1, 43296, Tempo, 638297
1, 43392, Tempo, 638297
1, 43488, Tempo, 638297
1, 43584, Tempo, 638297
1, 43680, Tempo, 638297
1, 43776, Tempo, 638297
1, 43872, Tempo, 638297
1, 43968, Tempo, 638297
1, 44064, Tempo, 638297
1, 44160, Tempo, 638297
1, 44256, Tempo, 638297
1, 44352, Tempo, 638297
1, 44448, Tempo, 638297
1, 44544, Tempo, 638297
1, 44640, Tempo, 638297
1, 44736, Tempo, 638297
1, 44832, Tempo, 638297
1, 44928, Tempo, 638297
1, 45024, Tempo, 638297
1, 45120, Tempo, 638297
1, 45216, Tempo, 638297
1, 45312, Tempo, 638297
1, 45408, Tempo, 638297
1, 45504, Tempo, 638297
1, 45600, Tempo, 638297
1, 45696, Tempo, 638297
1, 45792, Tempo, 638297
1, 45888, Tempo, 638297
1, 45984, Tempo, 638297
1, 46080, Tempo, 638297
1, 46176, Tempo, 638297
1, 46272, Tempo, 638297
1, 46368, Tempo, 638297
1, 46464, Tempo, 638297
1, 46560, Tempo, 638297
1, 46656, Tempo, 638297
1, 46752, Tempo, 638297
1, 46848, Tempo, 638297
1, 46944, Tempo, 638297
1, 47040, Tempo, 638297
1, 47136, Tempo, 638297
1, 47232, Tempo, 638297
1, 47328, Tempo, 638297
1, 47424, Tempo, 638297
1, 47520, Tempo, 638297
1, 47616, Tempo, 631578
1, 47712, Tempo, 631578
1, 47808, Tempo, 631578
1, 47904, Tempo, 631578
1, 48000, Tempo, 631578
1, 48096, Tempo, 631578
1, 48192, Tempo, 631578
1, 48288, Tempo, 631578
1, 48384, Tempo, 631578
1, 48480, Tempo, 631578
1, 48576, Tempo, 631578
1, 48672, Tempo, 631578
1, 48768, Tempo, 631578
1, 48864, Tempo, 631578
1, 48960, Tempo, 631578
1, 49056, Tempo, 631578
1, 49152, Tempo, 631578
1, 49248, Tempo, 631578
1, 49344, Tempo, 631578
1, 49440, Tempo, 631578
1, 49536, Tempo, 631578
1, 49632, Tempo, 631578
1, 49728, Tempo, 631578
1, 49824, Tempo, 631578
1, 49920, Tempo, 631578
1, 50016, Tempo, 631578
1, 50112, Tempo, 631578
1, 50208, Tempo, 631578
1, 50304, Tempo, 631578
1, 50400, Tempo, 631578
1, 50496, Tempo, 631578
1, 50592, Tempo, 631578
1, 50688, Tempo, 631578
1, 50784, Tempo, 631578
1, 50880, Tempo, 631578
1, 50976, Tempo, 631578
1, 51072, Tempo, 631578
1, 51168, Tempo, 631578
1, 51264, Tempo, 631578
1, 51360, Tempo, 631578
1, 51456, Tempo, 631578
1, 51552, Tempo, 631578
1, 51648, Tempo, 631578
1, 51744, Tempo, 631578
1, 51840, Tempo, 631578
1, 51936, Tempo, 631578
1, 52032, Tempo, 631578
1, 52128, Tempo, 631578
1, 52224, Tempo, 631578
1, 52320, Tempo, 631578
1, 52416, Tempo, 631578
1, 52512, Tempo, 631578
1, 52608, Tempo, 631578
1, 52704, Tempo, 631578
1, 52800, Tempo, 631578
1, 52896, Tempo, 631578
1, 52992, Tempo, 631578
1, 53088, Tempo, 631578
1, 53184, Tempo, 631578
1, 53280, Tempo, 631578
1, 53376, Tempo, 631578
1, 53472, Tempo, 631578
1, 53568, Tempo, 631578
1, 53664, Tempo, 631578
1, 53760, Tempo, 631578
1, 53856, Tempo, 631578
1, 53952, Tempo, 631578
1, 54048, Tempo, 631578
1, 54144, Tempo, 631578
1, 54240, Tempo, 631578
1, 54336, Tempo, 631578
1, 54432, Tempo, 631578
1, 54528, Tempo, 631578
1, 54624, Tempo, 631578
1, 54720, Tempo, 631578
1, 54816, Tempo, 631578
1, 54912, Tempo, 631578
1, 55008, Tempo, 625000
1, 55104, Tempo, 625000
1, 55200, Tempo, 625000
1, 55296, Tempo, 625000
1, 55392, Tempo, 625000
1, 55488, Tempo, 625000
1, 55584, Tempo, 625000
1, 55680, Tempo, 625000
1, 55776, Tempo, 625000
1, 55872, Tempo, 625000
1, 55968, Tempo, 625000
1, 56064, Tempo, 625000
1, 56160, Tempo, 625000
1, 56256, Tempo, 625000
1, 56352, Tempo, 625000
1, 56448, Tempo, 625000
1, 56544, Tempo, 625000
1, 56640, Tempo, 625000
1, 56736, Tempo, 625000
1, 56832, Tempo, 625000
1, 56928, Tempo, 625000
1, 57024, Tempo, 625000
1, 57120, Tempo, 625000
1, 57216, Tempo, 625000
1, 57312, Tempo, 625000
1, 57408, Tempo, 625000
1, 57504, Tempo, 625000
1, 57600, Tempo, 625000
1, 57696, Tempo, 625000
1, 57792, Tempo, 625000
1, 57888, Tempo, 625000
1, 57984, Tempo, 625000
1, 58080, Tempo, 625000
1, 58176, Tempo, 625000
1, 58272, Tempo, 625000
1, 58368, Tempo, 625000
1, 58464, Tempo, 625000
1, 58560, Tempo, 625000
1, 58656, Tempo, 625000
1, 58752, Tempo, 625000
1, 58848, Tempo, 625000
1, 58944, Tempo, 625000
1, 59040, Tempo, 625000
1, 59136, Tempo, 625000
1, 59232, Tempo, 625000
1, 59328, Tempo, 625000
1, 59424, Tempo, 625000
1, 59520, Tempo, 625000
1, 59616, Tempo, 625000
1, 59712, Tempo, 625000
1, 59808, Tempo, 625000
1, 59904, Tempo, 625000
1, 60000, Tempo, 625000
1, 60096, Tempo, 625000
1, 60192, Tempo, 625000
1, 60288, Tempo, 625000
1, 60384, Tempo, 625000
1, 60480, Tempo, 625000
1, 60576, Tempo, 625000
1, 60672, Tempo, 625000
1, 60768, Tempo, 625000
1, 60864, Tempo, 625000
1, 60960, Tempo, 625000
1, 61056, Tempo, 625000
1, 61152, Tempo, 625000
1, 61248, Tempo, 625000
1, 61344, Tempo, 625000
1, 61440, Tempo, 625000
1, 61536, Tempo, 625000
1, 61632, Tempo, 625000
1, 61728, Tempo, 625000
1, 61824, Tempo, 625000
1, 61920, Tempo, 625000
1, 62016, Tempo, 625000
1, 62112, Tempo, 618556
1, 62208, Tempo, 618556
1, 62208, End_track
2, 0, Start_track
2, 0, MIDI_port, 0
2, 0, Title_t, "FretlessBs"
2, 0, Program_c, 0, 35
2, 0, Control_c, 0, 7, 64
2, 0, Control_c, 0, 10, 125
2, 0, Control_c, 0, 93, 2
2, 6, Control_c, 0, 91, 2
2, 3033, Control_c, 0, 7, 64
2, 3072, Note_on_c, 0, 53, 98
2, 3072, Note_on_c, 0, 50, 98
2, 3089, Control_c, 0, 7, 63
2, 3146, Control_c, 0, 7, 62
2, 3202, Control_c, 0, 7, 61
2, 3258, Control_c, 0, 7, 60
2, 3314, Control_c, 0, 7, 59
2, 3370, Control_c, 0, 7, 58
2, 3427, Control_c, 0, 7, 57
2, 3483, Control_c, 0, 7, 56
2, 3539, Control_c, 0, 7, 55
2, 3595, Control_c, 0, 7, 54
2, 3652, Control_c, 0, 7, 53
2, 3708, Control_c, 0, 7, 52
2, 3764, Control_c, 0, 7, 51
2, 3820, Control_c, 0, 7, 50
2, 3876, Control_c, 0, 7, 49
2, 3933, Control_c, 0, 7, 48
2, 3989, Control_c, 0, 7, 47
2, 4045, Control_c, 0, 7, 46
2, 4101, Control_c, 0, 7, 45
2, 4158, Control_c, 0, 7, 44
2, 4214, Control_c, 0, 7, 43
2, 4270, Control_c, 0, 7, 42
2, 4326, Control_c, 0, 7, 41
2, 4382, Control_c, 0, 7, 40
2, 4439, Control_c, 0, 7, 39
2, 4495, Control_c, 0, 7, 38
2, 4551, Control_c, 0, 7, 37
2, 4607, Control_c, 0, 7, 36
2, 4608, Note_on_c, 0, 50, 0
2, 4608, Note_on_c, 0, 53, 0
2, 4608, Note_on_c, 0, 56, 100
2, 4608, Control_c, 0, 7, 36
2, 4658, Note_on_c, 0, 56, 0
2, 4704, Note_on_c, 0, 56, 100
2, 4753, Note_on_c, 0, 56, 0
2, 4799, Control_c, 0, 7, 36
2, 4800, Note_on_c, 0, 56, 100
2, 4812, Control_c, 0, 7, 58
2, 4849, Note_on_c, 0, 56, 0
2, 4896, Note_on_c, 0, 56, 100
2, 4944, Note_on_c, 0, 56, 0
2, 4992, Note_on_c, 0, 56, 100
2, 5039, Note_on_c, 0, 56, 0
2, 5088, Note_on_c, 0, 56, 100
2, 5119, Control_c, 0, 7, 58
2, 5134, Note_on_c, 0, 56, 0
2, 5184, Note_on_c, 0, 56, 100
2, 5230, Note_on_c, 0, 56, 0
2, 5280, Note_on_c, 0, 56, 100
2, 5324, Note_on_c, 0, 56, 0
2, 5376, Note_on_c, 0, 56, 100
2, 5420, Note_on_c, 0, 56, 0
2, 5472, Note_on_c, 0, 56, 100
2, 5515, Note_on_c, 0, 56, 0
2, 5568, Note_on_c, 0, 56, 100
2, 5610, Note_on_c, 0, 56, 0
2, 5664, Note_on_c, 0, 56, 100
2, 5705, Note_on_c, 0, 56, 0
2, 5760, Note_on_c, 0, 56, 100
2, 5800, Note_on_c, 0, 56, 0
2, 5856, Note_on_c, 0, 56, 100
2, 5896, Note_on_c, 0, 56, 0
2, 5952, Note_on_c, 0, 56, 100
2, 5991, Note_on_c, 0, 56, 0
2, 6048, Note_on_c, 0, 56, 100
2, 6086, Note_on_c, 0, 56, 0
2, 6144, Note_on_c, 0, 55, 100
2, 6181, Note_on_c, 0, 55, 0
2, 6240, Note_on_c, 0, 55, 100
2, 6277, Note_on_c, 0, 55, 0
2, 6336, Note_on_c, 0, 55, 100
2, 6372, Note_on_c, 0, 55, 0
2, 6432, Note_on_c, 0, 55, 100
2, 6467, Note_on_c, 0, 55, 0
2, 6528, Note_on_c, 0, 55, 100
2, 6562, Note_on_c, 0, 55, 0
2, 6624, Note_on_c, 0, 55, 100
2, 6658, Note_on_c, 0, 55, 0
2, 6720, Note_on_c, 0, 55, 100
2, 6752, Note_on_c, 0, 55, 0
2, 6816, Note_on_c, 0, 55, 100
2, 6848, Note_on_c, 0, 55, 0
2, 6912, Note_on_c, 0, 55, 100
2, 6943, Note_on_c, 0, 55, 0
2, 7008, Note_on_c, 0, 55, 100
2, 7038, Note_on_c, 0, 55, 0
2, 7104, Note_on_c, 0, 55, 100
2, 7133, Note_on_c, 0, 55, 0
2, 7200, Note_on_c, 0, 55, 100
2, 7228, Note_on_c, 0, 55, 0
2, 7296, Note_on_c, 0, 55, 100
2, 7324, Note_on_c, 0, 55, 0
2, 7392, Note_on_c, 0, 55, 100
2, 7419, Note_on_c, 0, 55, 0
2, 7488, Note_on_c, 0, 55, 100
2, 7514, Note_on_c, 0, 55, 0
2, 7584, Note_on_c, 0, 55, 100
2, 7609, Note_on_c, 0, 55, 0
2, 7680, Note_on_c, 0, 55, 100
2, 7717, Note_on_c, 0, 55, 0
2, 7776, Note_on_c, 0, 55, 100
2, 7813, Note_on_c, 0, 55, 0
2, 7872, Note_on_c, 0, 55, 100
2, 7908, Note_on_c, 0, 55, 0
2, 7968, Note_on_c, 0, 55, 100
2, 8003, Note_on_c, 0, 55, 0
2, 8064, Note_on_c, 0, 55, 100
2, 8098, Note_on_c, 0, 55, 0
2, 8160, Note_on_c, 0, 55, 100
2, 8194, Note_on_c, 0, 55, 0
2, 8256, Note_on_c, 0, 55, 100
2, 8288, Note_on_c, 0, 55, 0
2, 8352, Note_on_c, 0, 55, 100
2, 8384, Note_on_c, 0, 55, 0
2, 8448, Note_on_c, 0, 55, 100
2, 8479, Note_on_c, 0, 55, 0
2, 8544, Note_on_c, 0, 55, 100
2, 8574, Note_on_c, 0, 55, 0
2, 8640, Note_on_c, 0, 55, 100
2, 8669, Note_on_c, 0, 55, 0
2, 8736, Note_on_c, 0, 55, 100
2, 8764, Note_on_c, 0, 55, 0
2, 8832, Note_on_c, 0, 55, 100
2, 9020, Note_on_c, 0, 55, 0
2, 9574, Control_c, 0, 7, 56
2, 9830, Control_c, 0, 7, 72
2, 9984, Note_on_c, 0, 41, 100
2, 10732, Note_on_c, 0, 41, 0
2, 10752, Note_on_c, 0, 41, 100
2, 11500, Note_on_c, 0, 41, 0
2, 11520, Note_on_c, 0, 43, 100
2, 11880, Note_on_c, 0, 43, 0
2, 11904, Note_on_c, 0, 41, 100
2, 12272, Note_on_c, 0, 41, 0
2, 12288, Note_on_c, 0, 39, 100
2, 12665, Note_on_c, 0, 39, 0
2, 12672, Note_on_c, 0, 51, 42
2, 12722, Note_on_c, 0, 51, 0
2, 12767, Note_on_c, 0, 51, 60
2, 12810, Note_on_c, 0, 51, 0
2, 12863, Note_on_c, 0, 51, 80
2, 12898, Note_on_c, 0, 51, 0
2, 12959, Note_on_c, 0, 51, 101
2, 12987, Note_on_c, 0, 51, 0
2, 13056, Note_on_c, 0, 39, 100
2, 13436, Note_on_c, 0, 39, 0
2, 13440, Note_on_c, 0, 41, 100
2, 13817, Note_on_c, 0, 41, 0
2, 13824, Note_on_c, 0, 46, 96
2, 13998, Note_on_c, 0, 46, 0
2, 14016, Note_on_c, 0, 45, 96
2, 14190, Note_on_c, 0, 45, 0
2, 14208, Note_on_c, 0, 43, 96
2, 14382, Note_on_c, 0, 43, 0
2, 14400, Note_on_c, 0, 41, 96
2, 14574, Note_on_c, 0, 41, 0
2, 14592, Note_on_c, 0, 39, 100
2, 14972, Note_on_c, 0, 39, 0
2, 14976, Note_on_c, 0, 41, 100
2, 15353, Note_on_c, 0, 41, 0
2, 15360, Note_on_c, 0, 39, 100
2, 15740, Note_on_c, 0, 39, 0
2, 15744, Note_on_c, 0, 46, 100
2, 16124, Note_on_c, 0, 46, 0
2, 16128, Note_on_c, 0, 53, 71
2, 16133, Control_c, 0, 7, 66
2, 16176, Control_c, 0, 7, 65
2, 16220, Control_c, 0, 7, 64
2, 16263, Control_c, 0, 7, 63
2, 16306, Control_c, 0, 7, 62
2, 16349, Control_c, 0, 7, 61
2, 16392, Control_c, 0, 7, 60
2, 16436, Control_c, 0, 7, 59
2, 16479, Control_c, 0, 7, 58
2, 16522, Control_c, 0, 7, 57
2, 16566, Control_c, 0, 7, 56
2, 16609, Control_c, 0, 7, 55
2, 16652, Control_c, 0, 7, 54
2, 16695, Control_c, 0, 7, 53
2, 16738, Control_c, 0, 7, 52
2, 16782, Control_c, 0, 7, 51
2, 16825, Control_c, 0, 7, 50
2, 16868, Control_c, 0, 7, 49
2, 16912, Control_c, 0, 7, 48
2, 16955, Control_c, 0, 7, 47
2, 16998, Control_c, 0, 7, 46
2, 17041, Control_c, 0, 7, 45
2, 17084, Control_c, 0, 7, 44
2, 17128, Control_c, 0, 7, 43
2, 17171, Control_c, 0, 7, 42
2, 17214, Control_c, 0, 7, 41
2, 17257, Control_c, 0, 7, 40
2, 17301, Control_c, 0, 7, 39
2, 17344, Control_c, 0, 7, 38
2, 17387, Control_c, 0, 7, 37
2, 17430, Control_c, 0, 7, 36
2, 17474, Control_c, 0, 7, 35
2, 17517, Control_c, 0, 7, 34
2, 17560, Control_c, 0, 7, 33
2, 17603, Control_c, 0, 7, 32
2, 17646, Control_c, 0, 7, 31
2, 17660, Note_on_c, 0, 53, 0
2, 17690, Control_c, 0, 7, 30
2, 17864, Control_c, 0, 7, 66
2, 52326, Control_c, 0, 7, 108
2, 52710, Control_c, 0, 91, 62
2, 52844, Control_c, 0, 10, 64
2, 52992, Program_c, 0, 29
2, 53185, Note_on_c, 0, 67, 110
2, 53243, Pitch_bend_c, 0, 8192
2, 53246, Pitch_bend_c, 0, 8048
2, 53248, Pitch_bend_c, 0, 7904
2, 53251, Pitch_bend_c, 0, 7760
2, 53254, Pitch_bend_c, 0, 7596
2, 53257, Pitch_bend_c, 0, 7452
2, 53260, Pitch_bend_c, 0, 7309
2, 53263, Pitch_bend_c, 0, 7165
2, 53266, Pitch_bend_c, 0, 7001
2, 53269, Pitch_bend_c, 0, 6857
2, 53272, Pitch_bend_c, 0, 6713
2, 53274, Pitch_bend_c, 0, 6570
2, 53278, Pitch_bend_c, 0, 6405
2, 53280, Pitch_bend_c, 0, 6262
2, 53283, Pitch_bend_c, 0, 6118
2, 53286, Pitch_bend_c, 0, 5974
2, 53289, Pitch_bend_c, 0, 5810
2, 53292, Pitch_bend_c, 0, 5666
2, 53295, Pitch_bend_c, 0, 5522
2, 53298, Pitch_bend_c, 0, 5379
2, 53301, Pitch_bend_c, 0, 5214
2, 53304, Pitch_bend_c, 0, 5071
2, 53306, Pitch_bend_c, 0, 4927
2, 53309, Pitch_bend_c, 0, 4783
2, 53312, Pitch_bend_c, 0, 4619
2, 53315, Pitch_bend_c, 0, 4475
2, 53318, Pitch_bend_c, 0, 4332
2, 53321, Pitch_bend_c, 0, 4188
2, 53324, Pitch_bend_c, 0, 4024
2, 53327, Pitch_bend_c, 0, 3880
2, 53330, Pitch_bend_c, 0, 3736
2, 53332, Pitch_bend_c, 0, 3593
2, 53336, Pitch_bend_c, 0, 3428
2, 53338, Pitch_bend_c, 0, 3285
2, 53341, Pitch_bend_c, 0, 3141
2, 53344, Pitch_bend_c, 0, 2997
2, 53347, Pitch_bend_c, 0, 2833
2, 53350, Pitch_bend_c, 0, 2689
2, 53353, Pitch_bend_c, 0, 2545
2, 53356, Pitch_bend_c, 0, 2402
2, 53359, Pitch_bend_c, 0, 2237
2, 53362, Pitch_bend_c, 0, 2094
2, 53364, Pitch_bend_c, 0, 1950
2, 53367, Pitch_bend_c, 0, 1806
2, 53370, Pitch_bend_c, 0, 1642
2, 53373, Pitch_bend_c, 0, 1498
2, 53376, Pitch_bend_c, 0, 1355
2, 53379, Pitch_bend_c, 0, 1211
2, 53382, Pitch_bend_c, 0, 1047
2, 53385, Pitch_bend_c, 0, 903
2, 53388, Pitch_bend_c, 0, 759
2, 53390, Pitch_bend_c, 0, 615
2, 53394, Pitch_bend_c, 0, 451
2, 53396, Pitch_bend_c, 0, 308
2, 53399, Pitch_bend_c, 0, 164
2, 53402, Pitch_bend_c, 0, 0
2, 53453, Note_on_c, 0, 67, 0
2, 53464, Pitch_bend_c, 0, 8192
2, 53472, Note_on_c, 0, 63, 110
2, 53567, Note_on_c, 0, 63, 0
2, 53568, Pitch_bend_c, 0, 8192
2, 53568, Note_on_c, 0, 62, 110
2, 53570, Pitch_bend_c, 0, 8521
2, 53573, Pitch_bend_c, 0, 8851
2, 53576, Pitch_bend_c, 0, 9180
2, 53579, Pitch_bend_c, 0, 9557
2, 53582, Pitch_bend_c, 0, 9886
2, 53585, Pitch_bend_c, 0, 10216
2, 53588, Pitch_bend_c, 0, 10545
2, 53591, Pitch_bend_c, 0, 10922
2, 53594, Pitch_bend_c, 0, 11252
2, 53596, Pitch_bend_c, 0, 11581
2, 53599, Pitch_bend_c, 0, 11911
2, 53602, Pitch_bend_c, 0, 12288
2, 53602, Pitch_bend_c, 0, 12288
2, 53606, Pitch_bend_c, 0, 11776
2, 53609, Pitch_bend_c, 0, 11264
2, 53612, Pitch_bend_c, 0, 10752
2, 53615, Pitch_bend_c, 0, 10240
2, 53618, Pitch_bend_c, 0, 9728
2, 53622, Pitch_bend_c, 0, 9216
2, 53625, Pitch_bend_c, 0, 8704
2, 53628, Pitch_bend_c, 0, 8192
2, 53701, Note_on_c, 0, 62, 0
2, 53724, Note_on_c, 0, 60, 110
2, 53752, Note_on_c, 0, 60, 0
2, 53760, Note_on_c, 0, 60, 110
2, 53849, Pitch_bend_c, 0, 8192
2, 53852, Pitch_bend_c, 0, 8415
2, 53855, Pitch_bend_c, 0, 8639
2, 53858, Pitch_bend_c, 0, 8895
2, 53861, Pitch_bend_c, 0, 9119
2, 53864, Pitch_bend_c, 0, 9343
2, 53866, Pitch_bend_c, 0, 9567
2, 53870, Pitch_bend_c, 0, 9823
2, 53872, Pitch_bend_c, 0, 10047
2, 53875, Pitch_bend_c, 0, 10271
2, 53878, Pitch_bend_c, 0, 10527
2, 53881, Pitch_bend_c, 0, 10751
2, 53884, Pitch_bend_c, 0, 10975
2, 53887, Pitch_bend_c, 0, 11231
2, 53890, Pitch_bend_c, 0, 11455
2, 53893, Pitch_bend_c, 0, 11679
2, 53893, Control_c, 0, 7, 108
2, 53896, Pitch_bend_c, 0, 11935
2, 53899, Pitch_bend_c, 0, 12159
2, 53902, Pitch_bend_c, 0, 12383
2, 53905, Pitch_bend_c, 0, 12639
2, 53906, Control_c, 0, 7, 106
2, 53908, Pitch_bend_c, 0, 12863
2, 53910, Pitch_bend_c, 0, 13087
2, 53913, Pitch_bend_c, 0, 13311
2, 53916, Pitch_bend_c, 0, 13567
2, 53919, Control_c, 0, 7, 105
2, 53919, Pitch_bend_c, 0, 13791
2, 53922, Pitch_bend_c, 0, 14015
2, 53925, Pitch_bend_c, 0, 14271
2, 53928, Pitch_bend_c, 0, 14495
2, 53931, Pitch_bend_c, 0, 14719
2, 53931, Control_c, 0, 7, 103
2, 53934, Pitch_bend_c, 0, 14975
2, 53937, Pitch_bend_c, 0, 15199
2, 53940, Pitch_bend_c, 0, 15423
2, 53943, Pitch_bend_c, 0, 15679
2, 53944, Control_c, 0, 7, 102
2, 53946, Pitch_bend_c, 0, 15903
2, 53948, Pitch_bend_c, 0, 16127
2, 53951, Pitch_bend_c, 0, 16383
2, 53957, Control_c, 0, 7, 101
2, 53970, Control_c, 0, 7, 100
2, 53982, Control_c, 0, 7, 99
2, 53995, Control_c, 0, 7, 98
2, 54008, Control_c, 0, 7, 97
2, 54021, Control_c, 0, 7, 95
2, 54034, Control_c, 0, 7, 93
2, 54046, Control_c, 0, 7, 92
2, 54059, Control_c, 0, 7, 91
2, 54072, Control_c, 0, 7, 90
2, 54084, Control_c, 0, 7, 89
2, 54097, Control_c, 0, 7, 88
2, 54110, Control_c, 0, 7, 86
2, 54123, Control_c, 0, 7, 85
2, 54136, Control_c, 0, 7, 84
2, 54148, Control_c, 0, 7, 83
2, 54161, Control_c, 0, 7, 82
2, 54174, Control_c, 0, 7, 81
2, 54186, Control_c, 0, 7, 79
2, 54199, Control_c, 0, 7, 77
2, 54212, Control_c, 0, 7, 76
2, 54225, Control_c, 0, 7, 75
2, 54238, Control_c, 0, 7, 74
2, 54250, Control_c, 0, 7, 73
2, 54263, Control_c, 0, 7, 72
2, 54276, Control_c, 0, 7, 71
2, 54288, Control_c, 0, 7, 69
2, 54301, Control_c, 0, 7, 68
2, 54314, Control_c, 0, 7, 66
2, 54327, Control_c, 0, 7, 65
2, 54340, Control_c, 0, 7, 64
2, 54352, Control_c, 0, 7, 63
2, 54365, Control_c, 0, 7, 62
2, 54378, Control_c, 0, 7, 61
2, 54390, Control_c, 0, 7, 59
2, 54403, Control_c, 0, 7, 58
2, 54416, Control_c, 0, 7, 57
2, 54429, Control_c, 0, 7, 56
2, 54442, Control_c, 0, 7, 55
2, 54454, Control_c, 0, 7, 54
2, 54457, Pitch_bend_c, 0, 8192
2, 54467, Control_c, 0, 7, 52
2, 54480, Control_c, 0, 7, 50
2, 54492, Control_c, 0, 7, 49
2, 54505, Control_c, 0, 7, 48
2, 54518, Control_c, 0, 7, 47
2, 54531, Control_c, 0, 7, 46
2, 54544, Control_c, 0, 7, 45
2, 54556, Control_c, 0, 7, 44
2, 54569, Control_c, 0, 7, 42
2, 54582, Control_c, 0, 7, 41
2, 54594, Control_c, 0, 7, 39
2, 54607, Control_c, 0, 7, 38
2, 54620, Control_c, 0, 7, 37
2, 54633, Control_c, 0, 7, 36
2, 54646, Control_c, 0, 7, 35
2, 54658, Control_c, 0, 7, 33
2, 54671, Control_c, 0, 7, 32
2, 54684, Control_c, 0, 7, 31
2, 54696, Control_c, 0, 7, 30
2, 54709, Control_c, 0, 7, 29
2, 54722, Control_c, 0, 7, 28
2, 54735, Control_c, 0, 7, 27
2, 54748, Control_c, 0, 7, 24
2, 54760, Control_c, 0, 7, 23
2, 54773, Control_c, 0, 7, 22
2, 54786, Control_c, 0, 7, 21
2, 54798, Control_c, 0, 7, 20
2, 54810, Note_on_c, 0, 60, 0
2, 54811, Control_c, 0, 7, 19
2, 54824, Control_c, 0, 7, 18
2, 54837, Control_c, 0, 7, 16
2, 54850, Control_c, 0, 7, 15
2, 54862, Control_c, 0, 7, 14
2, 54875, Control_c, 0, 7, 12
2, 54888, Control_c, 0, 7, 11
2, 54901, Control_c, 0, 7, 10
2, 54913, Control_c, 0, 7, 9
2, 54926, Control_c, 0, 7, 7
2, 54939, Control_c, 0, 7, 6
2, 54952, Control_c, 0, 7, 5
2, 54964, Control_c, 0, 7, 4
2, 54977, Control_c, 0, 7, 3
2, 54990, Control_c, 0, 7, 2
2, 55003, Control_c, 0, 7, 1
2, 55015, Control_c, 0, 7, 0
2, 55580, Control_c, 0, 7, 1
2, 56251, Control_c, 0, 7, 0
2, 56616, Control_c, 0, 7, 97
2, 56627, Control_c, 0, 7, 108
2, 57312, Note_on_c, 0, 63, 110
2, 57343, Control_c, 0, 7, 108
2, 57344, Control_c, 0, 7, 108
2, 57352, Control_c, 0, 7, 108
2, 57407, Note_on_c, 0, 63, 0
2, 57408, Note_on_c, 0, 62, 92
2, 57426, Pitch_bend_c, 0, 8314
2, 57429, Pitch_bend_c, 0, 8765
2, 57432, Pitch_bend_c, 0, 9430
2, 57435, Pitch_bend_c, 0, 10342
2, 57438, Pitch_bend_c, 0, 11508
2, 57440, Pitch_bend_c, 0, 12288
2, 57458, Pitch_bend_c, 0, 12124
2, 57461, Pitch_bend_c, 0, 11714
2, 57464, Pitch_bend_c, 0, 11049
2, 57467, Pitch_bend_c, 0, 10137
2, 57470, Pitch_bend_c, 0, 8971
2, 57472, Pitch_bend_c, 0, 8192
2, 57490, Pitch_bend_c, 0, 8314
2, 57493, Pitch_bend_c, 0, 8765
2, 57496, Pitch_bend_c, 0, 9430
2, 57499, Pitch_bend_c, 0, 10342
2, 57502, Pitch_bend_c, 0, 11508
2, 57504, Pitch_bend_c, 0, 12288
2, 57522, Pitch_bend_c, 0, 12124
2, 57525, Pitch_bend_c, 0, 11714
2, 57528, Pitch_bend_c, 0, 11049
2, 57531, Pitch_bend_c, 0, 10137
2, 57534, Pitch_bend_c, 0, 8971
2, 57536, Pitch_bend_c, 0, 8192
2, 57554, Pitch_bend_c, 0, 8314
2, 57557, Pitch_bend_c, 0, 8765
2, 57560, Pitch_bend_c, 0, 9430
2, 57563, Pitch_bend_c, 0, 10342
2, 57566, Pitch_bend_c, 0, 11508
2, 57568, Pitch_bend_c, 0, 12288
2, 57586, Pitch_bend_c, 0, 12124
2, 57589, Pitch_bend_c, 0, 11714
2, 57592, Pitch_bend_c, 0, 11049
2, 57595, Pitch_bend_c, 0, 10137
2, 57598, Pitch_bend_c, 0, 8971
2, 57600, Pitch_bend_c, 0, 8192
2, 57618, Pitch_bend_c, 0, 8314
2, 57621, Pitch_bend_c, 0, 8765
2, 57624, Pitch_bend_c, 0, 9430
2, 57627, Pitch_bend_c, 0, 10342
2, 57630, Pitch_bend_c, 0, 11508
2, 57632, Pitch_bend_c, 0, 12288
2, 57647, Control_c, 0, 7, 108
2, 57648, Control_c, 0, 7, 108
2, 57650, Pitch_bend_c, 0, 12124
2, 57653, Pitch_bend_c, 0, 11714
2, 57656, Pitch_bend_c, 0, 11049
2, 57659, Pitch_bend_c, 0, 10137
2, 57662, Pitch_bend_c, 0, 8971
2, 57664, Pitch_bend_c, 0, 8192
2, 57667, Control_c, 0, 7, 106
2, 57682, Pitch_bend_c, 0, 8314
2, 57685, Pitch_bend_c, 0, 8765
2, 57686, Control_c, 0, 7, 105
2, 57688, Pitch_bend_c, 0, 9430
2, 57691, Pitch_bend_c, 0, 10342
2, 57694, Pitch_bend_c, 0, 11508
2, 57696, Pitch_bend_c, 0, 12288
2, 57705, Control_c, 0, 7, 103
2, 57714, Pitch_bend_c, 0, 12124
2, 57717, Pitch_bend_c, 0, 11714
2, 57720, Pitch_bend_c, 0, 11049
2, 57723, Pitch_bend_c, 0, 10137
2, 57724, Control_c, 0, 7, 102
2, 57726, Pitch_bend_c, 0, 8971
2, 57728, Pitch_bend_c, 0, 8192
2, 57744, Control_c, 0, 7, 100
2, 57746, Pitch_bend_c, 0, 8314
2, 57749, Pitch_bend_c, 0, 8765
2, 57752, Pitch_bend_c, 0, 9430
2, 57755, Pitch_bend_c, 0, 10342
2, 57758, Pitch_bend_c, 0, 11508
2, 57760, Pitch_bend_c, 0, 12288
2, 57763, Control_c, 0, 7, 100
2, 57778, Pitch_bend_c, 0, 12124
2, 57781, Pitch_bend_c, 0, 11714
2, 57782, Control_c, 0, 7, 99
2, 57784, Pitch_bend_c, 0, 11049
2, 57787, Pitch_bend_c, 0, 10137
2, 57790, Pitch_bend_c, 0, 8971
2, 57792, Pitch_bend_c, 0, 8192
2, 57802, Control_c, 0, 7, 98
2, 57810, Pitch_bend_c, 0, 8314
2, 57813, Pitch_bend_c, 0, 8765
2, 57816, Pitch_bend_c, 0, 9430
2, 57819, Pitch_bend_c, 0, 10342
2, 57821, Control_c, 0, 7, 97
2, 57822, Pitch_bend_c, 0, 11508
2, 57824, Pitch_bend_c, 0, 12288
2, 57840, Control_c, 0, 7, 95
2, 57842, Pitch_bend_c, 0, 12124
2, 57845, Pitch_bend_c, 0, 11714
2, 57848, Pitch_bend_c, 0, 11049
2, 57851, Pitch_bend_c, 0, 10137
2, 57854, Pitch_bend_c, 0, 8971
2, 57856, Pitch_bend_c, 0, 8192
2, 57860, Control_c, 0, 7, 93
2, 57874, Pitch_bend_c, 0, 8314
2, 57877, Pitch_bend_c, 0, 8765
2, 57879, Control_c, 0, 7, 92
2, 57880, Pitch_bend_c, 0, 9430
2, 57883, Pitch_bend_c, 0, 10342
2, 57886, Pitch_bend_c, 0, 11508
2, 57888, Pitch_bend_c, 0, 12288
2, 57898, Control_c, 0, 7, 91
2, 57906, Pitch_bend_c, 0, 12124
2, 57909, Pitch_bend_c, 0, 11714
2, 57912, Pitch_bend_c, 0, 11049
2, 57915, Pitch_bend_c, 0, 10137
2, 57917, Control_c, 0, 7, 90
2, 57918, Pitch_bend_c, 0, 8971
2, 57920, Pitch_bend_c, 0, 8192
2, 57936, Control_c, 0, 7, 89
2, 57938, Pitch_bend_c, 0, 8314
2, 57941, Pitch_bend_c, 0, 8765
2, 57944, Pitch_bend_c, 0, 9430
2, 57947, Pitch_bend_c, 0, 10342
2, 57950, Pitch_bend_c, 0, 11508
2, 57952, Pitch_bend_c, 0, 12288
2, 57956, Control_c, 0, 7, 88
2, 57970, Pitch_bend_c, 0, 12124
2, 57973, Pitch_bend_c, 0, 11714
2, 57975, Control_c, 0, 7, 86
2, 57976, Pitch_bend_c, 0, 11049
2, 57979, Pitch_bend_c, 0, 10137
2, 57982, Pitch_bend_c, 0, 8971
2, 57984, Pitch_bend_c, 0, 8192
2, 57994, Control_c, 0, 7, 85
2, 58002, Pitch_bend_c, 0, 8314
2, 58005, Pitch_bend_c, 0, 8765
2, 58008, Pitch_bend_c, 0, 9430
2, 58011, Pitch_bend_c, 0, 10342
2, 58014, Pitch_bend_c, 0, 11508
2, 58014, Control_c, 0, 7, 84
2, 58016, Pitch_bend_c, 0, 12288
2, 58033, Control_c, 0, 7, 83
2, 58034, Pitch_bend_c, 0, 12124
2, 58037, Pitch_bend_c, 0, 11714
2, 58040, Pitch_bend_c, 0, 11049
2, 58043, Pitch_bend_c, 0, 10137
2, 58046, Pitch_bend_c, 0, 8971
2, 58048, Pitch_bend_c, 0, 8192
2, 58052, Control_c, 0, 7, 82
2, 58066, Pitch_bend_c, 0, 8314
2, 58069, Pitch_bend_c, 0, 8765
2, 58072, Control_c, 0, 7, 81
2, 58072, Pitch_bend_c, 0, 9430
2, 58075, Pitch_bend_c, 0, 10342
2, 58078, Pitch_bend_c, 0, 11508
2, 58080, Pitch_bend_c, 0, 12288
2, 58091, Control_c, 0, 7, 79
2, 58098, Pitch_bend_c, 0, 12124
2, 58101, Pitch_bend_c, 0, 11714
2, 58104, Pitch_bend_c, 0, 11049
2, 58107, Pitch_bend_c, 0, 10137
2, 58110, Pitch_bend_c, 0, 8971
2, 58110, Control_c, 0, 7, 77
2, 58112, Pitch_bend_c, 0, 8192
2, 58129, Control_c, 0, 7, 76
2, 58130, Pitch_bend_c, 0, 8314
2, 58133, Pitch_bend_c, 0, 8765
2, 58136, Pitch_bend_c, 0, 9430
2, 58139, Pitch_bend_c, 0, 10342
2, 58142, Pitch_bend_c, 0, 11508
2, 58144, Pitch_bend_c, 0, 12288
2, 58148, Control_c, 0, 7, 75
2, 58162, Pitch_bend_c, 0, 12124
2, 58165, Pitch_bend_c, 0, 11714
2, 58168, Pitch_bend_c, 0, 11049
2, 58168, Control_c, 0, 7, 74
2, 58171, Pitch_bend_c, 0, 10137
2, 58174, Pitch_bend_c, 0, 8971
2, 58176, Pitch_bend_c, 0, 8192
2, 58187, Control_c, 0, 7, 73
2, 58194, Pitch_bend_c, 0, 8314
2, 58197, Pitch_bend_c, 0, 8765
2, 58200, Pitch_bend_c, 0, 9430
2, 58203, Pitch_bend_c, 0, 10342
2, 58206, Pitch_bend_c, 0, 11508
2, 58206, Control_c, 0, 7, 72
2, 58208, Pitch_bend_c, 0, 12288
2, 58226, Control_c, 0, 7, 71
2, 58226, Pitch_bend_c, 0, 12124
2, 58229, Pitch_bend_c, 0, 11714
2, 58232, Pitch_bend_c, 0, 11049
2, 58235, Pitch_bend_c, 0, 10137
2, 58238, Pitch_bend_c, 0, 8971
2, 58240, Pitch_bend_c, 0, 8192
2, 58245, Control_c, 0, 7, 69
2, 58258, Pitch_bend_c, 0, 8314
2, 58261, Pitch_bend_c, 0, 8765
2, 58264, Pitch_bend_c, 0, 9430
2, 58264, Control_c, 0, 7, 68
2, 58267, Pitch_bend_c, 0, 10342
2, 58270, Pitch_bend_c, 0, 11508
2, 58272, Pitch_bend_c, 0, 12288
2, 58284, Control_c, 0, 7, 66
2, 58290, Pitch_bend_c, 0, 12124
2, 58293, Pitch_bend_c, 0, 11714
2, 58296, Pitch_bend_c, 0, 11049
2, 58299, Pitch_bend_c, 0, 10137
2, 58302, Pitch_bend_c, 0, 8971
2, 58303, Control_c, 0, 7, 65
2, 58304, Pitch_bend_c, 0, 8192
2, 58322, Pitch_bend_c, 0, 8314
2, 58322, Control_c, 0, 7, 64
2, 58325, Pitch_bend_c, 0, 8765
2, 58328, Pitch_bend_c, 0, 9430
2, 58331, Pitch_bend_c, 0, 10342
2, 58334, Pitch_bend_c, 0, 11508
2, 58336, Pitch_bend_c, 0, 12288
2, 58341, Control_c, 0, 7, 63
2, 58354, Pitch_bend_c, 0, 12124
2, 58357, Pitch_bend_c, 0, 11714
2, 58360, Pitch_bend_c, 0, 11049
2, 58360, Control_c, 0, 7, 62
2, 58363, Pitch_bend_c, 0, 10137
2, 58366, Pitch_bend_c, 0, 8971
2, 58368, Pitch_bend_c, 0, 8192
2, 58380, Control_c, 0, 7, 61
2, 58386, Pitch_bend_c, 0, 8314
2, 58389, Pitch_bend_c, 0, 8765
2, 58392, Pitch_bend_c, 0, 9430
2, 58395, Pitch_bend_c, 0, 10342
2, 58398, Pitch_bend_c, 0, 11508
2, 58399, Control_c, 0, 7, 59
2, 58400, Pitch_bend_c, 0, 12288
2, 58418, Pitch_bend_c, 0, 12124
2, 58418, Control_c, 0, 7, 58
2, 58421, Pitch_bend_c, 0, 11714
2, 58424, Pitch_bend_c, 0, 11049
2, 58427, Pitch_bend_c, 0, 10137
2, 58430, Pitch_bend_c, 0, 8971
2, 58432, Pitch_bend_c, 0, 8192
2, 58438, Control_c, 0, 7, 57
2, 58450, Pitch_bend_c, 0, 8314
2, 58453, Pitch_bend_c, 0, 8765
2, 58456, Pitch_bend_c, 0, 9430
2, 58457, Control_c, 0, 7, 56
2, 58459, Pitch_bend_c, 0, 10342
2, 58462, Pitch_bend_c, 0, 11508
2, 58464, Pitch_bend_c, 0, 12288
2, 58476, Control_c, 0, 7, 55
2, 58482, Pitch_bend_c, 0, 12124
2, 58485, Pitch_bend_c, 0, 11714
2, 58488, Pitch_bend_c, 0, 11049
2, 58491, Pitch_bend_c, 0, 10137
2, 58494, Pitch_bend_c, 0, 8971
2, 58496, Pitch_bend_c, 0, 8192
2, 58496, Control_c, 0, 7, 54
2, 58514, Pitch_bend_c, 0, 8314
2, 58515, Control_c, 0, 7, 52
2, 58517, Pitch_bend_c, 0, 8765
2, 58520, Pitch_bend_c, 0, 9430
2, 58523, Pitch_bend_c, 0, 10342
2, 58526, Pitch_bend_c, 0, 11508
2, 58528, Pitch_bend_c, 0, 12288
2, 58534, Control_c, 0, 7, 50
2, 58546, Pitch_bend_c, 0, 12124
2, 58549, Pitch_bend_c, 0, 11714
2, 58552, Pitch_bend_c, 0, 11049
2, 58553, Control_c, 0, 7, 49
2, 58555, Pitch_bend_c, 0, 10137
2, 58558, Pitch_bend_c, 0, 8971
2, 58560, Pitch_bend_c, 0, 8192
2, 58572, Control_c, 0, 7, 48
2, 58592, Control_c, 0, 7, 47
2, 58611, Control_c, 0, 7, 46
2, 58630, Control_c, 0, 7, 45
2, 58650, Control_c, 0, 7, 44
2, 58669, Control_c, 0, 7, 42
2, 58688, Control_c, 0, 7, 41
2, 58708, Control_c, 0, 7, 39
2, 58727, Control_c, 0, 7, 38
2, 58746, Control_c, 0, 7, 37
2, 58752, Note_on_c, 0, 62, 0
2, 58765, Control_c, 0, 7, 36
2, 58784, Control_c, 0, 7, 35
2, 58804, Control_c, 0, 7, 33
2, 58823, Control_c, 0, 7, 32
2, 58842, Control_c, 0, 7, 31
2, 58862, Control_c, 0, 7, 30
2, 58881, Control_c, 0, 7, 29
2, 58900, Control_c, 0, 7, 28
2, 58920, Control_c, 0, 7, 27
2, 58939, Control_c, 0, 7, 24
2, 58958, Control_c, 0, 7, 23
2, 58977, Control_c, 0, 7, 22
2, 58996, Control_c, 0, 7, 21
2, 59016, Control_c, 0, 7, 20
2, 59035, Control_c, 0, 7, 19
2, 59054, Control_c, 0, 7, 18
2, 59074, Control_c, 0, 7, 16
2, 59093, Control_c, 0, 7, 15
2, 59112, Control_c, 0, 7, 14
2, 59132, Control_c, 0, 7, 12
2, 59151, Control_c, 0, 7, 11
2, 59170, Control_c, 0, 7, 10
2, 59189, Control_c, 0, 7, 9
2, 59208, Control_c, 0, 7, 7
2, 59228, Control_c, 0, 7, 6
2, 59247, Control_c, 0, 7, 5
2, 59266, Control_c, 0, 7, 4
2, 59286, Control_c, 0, 7, 3
2, 59305, Control_c, 0, 7, 2
2, 59324, Control_c, 0, 7, 1
2, 59343, Control_c, 0, 7, 0
2, 59358, Control_c, 0, 7, 0
2, 59570, Control_c, 0, 7, 0
2, 59682, Control_c, 0, 7, 83
2, 63744, Pitch_bend_c, 0, 8192
2, 63744, End_track
3, 0, Start_track
3, 0, MIDI_port, 0
3, 0, Title_t, "Acous Bass"
3, 0, Program_c, 1, 32
3, 0, Control_c, 1, 7, 90
3, 0, Control_c, 1, 10, 126
3, 0, Control_c, 1, 91, 12
3, 32, Control_c, 1, 93, 2
3, 3040, Control_c, 1, 7, 94
3, 3043, Control_c, 1, 7, 92
3, 3069, Control_c, 1, 7, 91
3, 3072, Note_on_c, 1, 46, 112
3, 3095, Control_c, 1, 7, 90
3, 3121, Control_c, 1, 7, 89
3, 3147, Control_c, 1, 7, 88
3, 3173, Control_c, 1, 7, 87
3, 3199, Control_c, 1, 7, 86
3, 3225, Control_c, 1, 7, 85
3, 3251, Control_c, 1, 7, 84
3, 3277, Control_c, 1, 7, 83
3, 3304, Control_c, 1, 7, 82
3, 3330, Control_c, 1, 7, 81
3, 3356, Control_c, 1, 7, 80
3, 3382, Control_c, 1, 7, 79
3, 3408, Control_c, 1, 7, 78
3, 3434, Control_c, 1, 7, 77
3, 3460, Control_c, 1, 7, 76
3, 3486, Control_c, 1, 7, 75
3, 3512, Control_c, 1, 7, 74
3, 3538, Control_c, 1, 7, 73
3, 3564, Control_c, 1, 7, 72
3, 3590, Control_c, 1, 7, 71
3, 3616, Control_c, 1, 7, 70
3, 3642, Control_c, 1, 7, 69
3, 3668, Control_c, 1, 7, 68
3, 3695, Control_c, 1, 7, 67
3, 3721, Control_c, 1, 7, 66
3, 3747, Control_c, 1, 7, 65
3, 3773, Control_c, 1, 7, 64
3, 3799, Control_c, 1, 7, 63
3, 3825, Control_c, 1, 7, 62
3, 3851, Control_c, 1, 7, 61
3, 3877, Control_c, 1, 7, 60
3, 3903, Control_c, 1, 7, 59
3, 3929, Control_c, 1, 7, 58
3, 3956, Control_c, 1, 7, 57
3, 3982, Control_c, 1, 7, 56
3, 4008, Control_c, 1, 7, 55
3, 4034, Control_c, 1, 7, 54
3, 4060, Control_c, 1, 7, 53
3, 4086, Control_c, 1, 7, 52
3, 4112, Control_c, 1, 7, 51
3, 4138, Control_c, 1, 7, 50
3, 4164, Control_c, 1, 7, 49
3, 4190, Control_c, 1, 7, 48
3, 4216, Control_c, 1, 7, 47
3, 4242, Control_c, 1, 7, 46
3, 4268, Control_c, 1, 7, 45
3, 4294, Control_c, 1, 7, 44
3, 4320, Control_c, 1, 7, 43
3, 4347, Control_c, 1, 7, 42
3, 4373, Control_c, 1, 7, 41
3, 4399, Control_c, 1, 7, 40
3, 4425, Control_c, 1, 7, 39
3, 4451, Control_c, 1, 7, 38
3, 4477, Control_c, 1, 7, 37
3, 4503, Control_c, 1, 7, 36
3, 4529, Control_c, 1, 7, 35
3, 4555, Control_c, 1, 7, 34
3, 4581, Control_c, 1, 7, 33
3, 4607, Control_c, 1, 7, 32
3, 4608, Note_on_c, 1, 46, 0
3, 4608, Note_on_c, 1, 41, 112
3, 4608, Control_c, 1, 10, 10
3, 4608, Control_c, 1, 7, 126
3, 5235, Note_on_c, 1, 41, 0
3, 5280, Note_on_c, 1, 41, 96
3, 5329, Note_on_c, 1, 41, 0
3, 5376, Note_on_c, 1, 41, 112
3, 6014, Note_on_c, 1, 41, 0
3, 6048, Note_on_c, 1, 38, 112
3, 6143, Note_on_c, 1, 38, 0
3, 6144, Note_on_c, 1, 43, 112
3, 6896, Note_on_c, 1, 43, 0
3, 6912, Note_on_c, 1, 43, 112
3, 7256, Note_on_c, 1, 43, 0
3, 7296, Note_on_c, 1, 43, 112
3, 7424, Note_on_c, 1, 43, 0
3, 7488, Note_on_c, 1, 41, 112
3, 7616, Note_on_c, 1, 41, 0
3, 7680, Note_on_c, 1, 39, 112
3, 7808, Note_on_c, 1, 39, 0
3, 7872, Note_on_c, 1, 39, 112
3, 7948, Note_on_c, 1, 39, 0
3, 7968, Note_on_c, 1, 41, 112
3, 8064, Note_on_c, 1, 41, 0
3, 8064, Note_on_c, 1, 43, 112
3, 8192, Note_on_c, 1, 43, 0
3, 8256, Note_on_c, 1, 43, 112
3, 8384, Note_on_c, 1, 43, 0
3, 8448, Note_on_c, 1, 43, 112
3, 8576, Note_on_c, 1, 43, 0
3, 8640, Note_on_c, 1, 43, 112
3, 8768, Note_on_c, 1, 43, 0
3, 8832, Note_on_c, 1, 51, 112
3, 9024, Note_on_c, 1, 51, 0
3, 9120, Note_on_c, 1, 50, 112
3, 9267, Note_on_c, 1, 50, 0
3, 9312, Note_on_c, 1, 48, 112
3, 9407, Note_on_c, 1, 48, 0
3, 9408, Note_on_c, 1, 46, 112
3, 9982, Note_on_c, 1, 46, 0
3, 9984, Note_on_c, 1, 41, 112
3, 10732, Note_on_c, 1, 41, 0
3, 10752, Note_on_c, 1, 41, 112
3, 11500, Note_on_c, 1, 41, 0
3, 11520, Note_on_c, 1, 43, 112
3, 11880, Note_on_c, 1, 43, 0
3, 11904, Note_on_c, 1, 41, 112
3, 12272, Note_on_c, 1, 41, 0
3, 12288, Note_on_c, 1, 39, 112
3, 13040, Note_on_c, 1, 39, 0
3, 13056, Note_on_c, 1, 39, 112
3, 13436, Note_on_c, 1, 39, 0
3, 13440, Note_on_c, 1, 41, 112
3, 13817, Note_on_c, 1, 41, 0
3, 13824, Note_on_c, 1, 46, 112
3, 13972, Note_on_c, 1, 46, 0
3, 14016, Note_on_c, 1, 45, 112
3, 14164, Note_on_c, 1, 45, 0
3, 14208, Note_on_c, 1, 43, 112
3, 14356, Note_on_c, 1, 43, 0
3, 14400, Note_on_c, 1, 41, 112
3, 14548, Note_on_c, 1, 41, 0
3, 14592, Note_on_c, 1, 39, 112
3, 14972, Note_on_c, 1, 39, 0
3, 14976, Note_on_c, 1, 41, 112
3, 15353, Note_on_c, 1, 41, 0
3, 15360, Note_on_c, 1, 51, 112
3, 15552, Note_on_c, 1, 51, 0
3, 15552, Note_on_c, 1, 50, 104
3, 15641, Note_on_c, 1, 50, 0
3, 15649, Note_on_c, 1, 48, 100
3, 15740, Note_on_c, 1, 48, 0
3, 15744, Note_on_c, 1, 46, 112
3, 16124, Note_on_c, 1, 46, 0
3, 16128, Control_c, 1, 7, 127
3, 16128, Note_on_c, 1, 34, 112
3, 16140, Control_c, 1, 7, 126
3, 16152, Control_c, 1, 7, 125
3, 16164, Control_c, 1, 7, 124
3, 16176, Control_c, 1, 7, 122
3, 16188, Control_c, 1, 7, 122
3, 16200, Control_c, 1, 7, 121
3, 16212, Control_c, 1, 7, 120
3, 16224, Control_c, 1, 7, 119
3, 16236, Control_c, 1, 7, 118
3, 16248, Control_c, 1, 7, 117
3, 16260, Control_c, 1, 7, 116
3, 16272, Control_c, 1, 7, 115
3, 16284, Control_c, 1, 7, 114
3, 16297, Control_c, 1, 7, 113
3, 16309, Control_c, 1, 7, 112
3, 16321, Control_c, 1, 7, 111
3, 16333, Control_c, 1, 7, 110
3, 16345, Control_c, 1, 7, 109
3, 16357, Control_c, 1, 7, 108
3, 16369, Control_c, 1, 7, 107
3, 16381, Control_c, 1, 7, 106
3, 16393, Control_c, 1, 7, 105
3, 16405, Control_c, 1, 7, 104
3, 16418, Control_c, 1, 7, 103
3, 16430, Control_c, 1, 7, 102
3, 16442, Control_c, 1, 7, 101
3, 16454, Control_c, 1, 7, 100
3, 16466, Control_c, 1, 7, 99
3, 16478, Control_c, 1, 7, 98
3, 16490, Control_c, 1, 7, 97
3, 16502, Control_c, 1, 7, 96
3, 16514, Control_c, 1, 7, 95
3, 16526, Control_c, 1, 7, 94
3, 16538, Control_c, 1, 7, 93
3, 16550, Control_c, 1, 7, 92
3, 16562, Control_c, 1, 7, 91
3, 16574, Control_c, 1, 7, 90
3, 16586, Control_c, 1, 7, 89
3, 16599, Control_c, 1, 7, 88
3, 16611, Control_c, 1, 7, 87
3, 16623, Control_c, 1, 7, 86
3, 16635, Control_c, 1, 7, 85
3, 16647, Control_c, 1, 7, 84
3, 16659, Control_c, 1, 7, 83
3, 16671, Control_c, 1, 7, 82
3, 16683, Control_c, 1, 7, 81
3, 16695, Control_c, 1, 7, 80
3, 16707, Control_c, 1, 7, 79
3, 16720, Control_c, 1, 7, 78
3, 16732, Control_c, 1, 7, 77
3, 16744, Control_c, 1, 7, 76
3, 16756, Control_c, 1, 7, 75
3, 16768, Control_c, 1, 7, 74
3, 16780, Control_c, 1, 7, 73
3, 16792, Control_c, 1, 7, 72
3, 16804, Control_c, 1, 7, 71
3, 16816, Control_c, 1, 7, 70
3, 16828, Control_c, 1, 7, 69
3, 16840, Control_c, 1, 7, 68
3, 16852, Control_c, 1, 7, 67
3, 16864, Control_c, 1, 7, 66
3, 16876, Control_c, 1, 7, 65
3, 16889, Control_c, 1, 7, 64
3, 16901, Control_c, 1, 7, 63
3, 16913, Control_c, 1, 7, 62
3, 16925, Control_c, 1, 7, 61
3, 16937, Control_c, 1, 7, 60
3, 16949, Control_c, 1, 7, 59
3, 16961, Control_c, 1, 7, 58
3, 16973, Control_c, 1, 7, 57
3, 16985, Control_c, 1, 7, 56
3, 16997, Control_c, 1, 7, 55
3, 17010, Control_c, 1, 7, 54
3, 17022, Control_c, 1, 7, 53
3, 17034, Control_c, 1, 7, 52
3, 17046, Control_c, 1, 7, 51
3, 17058, Control_c, 1, 7, 50
3, 17070, Control_c, 1, 7, 49
3, 17082, Control_c, 1, 7, 48
3, 17094, Control_c, 1, 7, 47
3, 17106, Control_c, 1, 7, 46
3, 17118, Control_c, 1, 7, 45
3, 17130, Control_c, 1, 7, 44
3, 17142, Control_c, 1, 7, 43
3, 17154, Control_c, 1, 7, 42
3, 17166, Control_c, 1, 7, 41
3, 17178, Control_c, 1, 7, 40
3, 17191, Control_c, 1, 7, 39
3, 17203, Control_c, 1, 7, 38
3, 17215, Control_c, 1, 7, 37
3, 17227, Control_c, 1, 7, 36
3, 17239, Control_c, 1, 7, 35
3, 17251, Control_c, 1, 7, 34
3, 17263, Control_c, 1, 7, 33
3, 17275, Control_c, 1, 7, 32
3, 17287, Control_c, 1, 7, 31
3, 17299, Control_c, 1, 7, 30
3, 17312, Control_c, 1, 7, 29
3, 17324, Control_c, 1, 7, 28
3, 17336, Control_c, 1, 7, 27
3, 17348, Control_c, 1, 7, 26
3, 17360, Control_c, 1, 7, 25
3, 17372, Control_c, 1, 7, 24
3, 17384, Control_c, 1, 7, 23
3, 17396, Control_c, 1, 7, 22
3, 17408, Control_c, 1, 7, 21
3, 17420, Control_c, 1, 7, 20
3, 17432, Control_c, 1, 7, 19
3, 17444, Control_c, 1, 7, 18
3, 17456, Control_c, 1, 7, 17
3, 17468, Control_c, 1, 7, 16
3, 17480, Control_c, 1, 7, 15
3, 17493, Control_c, 1, 7, 14
3, 17505, Control_c, 1, 7, 13
3, 17517, Control_c, 1, 7, 12
3, 17529, Control_c, 1, 7, 11
3, 17541, Control_c, 1, 7, 10
3, 17553, Control_c, 1, 7, 9
3, 17565, Control_c, 1, 7, 8
3, 17577, Control_c, 1, 7, 7
3, 17589, Control_c, 1, 7, 6
3, 17601, Control_c, 1, 7, 5
3, 17614, Control_c, 1, 7, 4
3, 17626, Control_c, 1, 7, 3
3, 17638, Control_c, 1, 7, 2
3, 17650, Control_c, 1, 7, 1
3, 17660, Note_on_c, 1, 34, 0
3, 17662, Control_c, 1, 7, 0
3, 17662, Control_c, 1, 7, 127
3, 17664, Note_on_c, 1, 41, 112
3, 18408, Note_on_c, 1, 41, 0
3, 18432, Note_on_c, 1, 41, 112
3, 18792, Note_on_c, 1, 41, 0
3, 18816, Note_on_c, 1, 39, 112
3, 19184, Note_on_c, 1, 39, 0
3, 19200, Note_on_c, 1, 38, 112
3, 20729, Note_on_c, 1, 38, 0
3, 20736, Note_on_c, 1, 39, 112
3, 21024, Note_on_c, 1, 41, 112
3, 21032, Note_on_c, 1, 39, 0
3, 21120, Note_on_c, 1, 41, 0
3, 21120, Note_on_c, 1, 43, 112
3, 21880, Note_on_c, 1, 43, 0
3, 21888, Note_on_c, 1, 39, 112
3, 22155, Note_on_c, 1, 39, 0
3, 22176, Note_on_c, 1, 39, 112
3, 22452, Note_on_c, 1, 39, 0
3, 22464, Note_on_c, 1, 34, 112
3, 23793, Note_on_c, 1, 34, 0
3, 31488, Note_on_c, 1, 41, 112
3, 32232, Note_on_c, 1, 41, 0
3, 32256, Note_on_c, 1, 41, 112
3, 32616, Note_on_c, 1, 41, 0
3, 32640, Note_on_c, 1, 39, 112
3, 33008, Note_on_c, 1, 39, 0
3, 33024, Note_on_c, 1, 38, 112
3, 34553, Note_on_c, 1, 38, 0
3, 34560, Note_on_c, 1, 39, 112
3, 34848, Note_on_c, 1, 41, 112
3, 34856, Note_on_c, 1, 39, 0
3, 34944, Note_on_c, 1, 41, 0
3, 34944, Note_on_c, 1, 43, 112
3, 35704, Note_on_c, 1, 43, 0
3, 35712, Note_on_c, 1, 39, 112
3, 35996, Note_on_c, 1, 39, 0
3, 36000, Note_on_c, 1, 39, 112
3, 36280, Note_on_c, 1, 39, 0
3, 36288, Note_on_c, 1, 34, 112
3, 36364, Control_c, 1, 7, 127
3, 36523, Control_c, 1, 7, 118
3, 36682, Control_c, 1, 7, 109
3, 36841, Control_c, 1, 7, 100
3, 37000, Control_c, 1, 7, 91
3, 37158, Control_c, 1, 7, 83
3, 37317, Control_c, 1, 7, 74
3, 37476, Control_c, 1, 7, 65
3, 37635, Control_c, 1, 7, 56
3, 37794, Control_c, 1, 7, 47
3, 37952, Control_c, 1, 7, 39
3, 38020, Note_on_c, 1, 34, 0
3, 38111, Control_c, 1, 7, 30
3, 38323, Control_c, 1, 7, 127
3, 45312, Note_on_c, 1, 41, 112
3, 46056, Note_on_c, 1, 41, 0
3, 46080, Note_on_c, 1, 41, 112
3, 46440, Note_on_c, 1, 41, 0
3, 46464, Note_on_c, 1, 39, 112
3, 46832, Note_on_c, 1, 39, 0
3, 46848, Note_on_c, 1, 38, 112
3, 48377, Note_on_c, 1, 38, 0
3, 48384, Note_on_c, 1, 39, 112
3, 48672, Note_on_c, 1, 41, 112
3, 48680, Note_on_c, 1, 39, 0
3, 48768, Note_on_c, 1, 41, 0
3, 48768, Note_on_c, 1, 43, 112
3, 49528, Note_on_c, 1, 43, 0
3, 49536, Note_on_c, 1, 39, 112
3, 49810, Note_on_c, 1, 39, 0
3, 49824, Note_on_c, 1, 39, 112
3, 50100, Note_on_c, 1, 39, 0
3, 50112, Note_on_c, 1, 34, 112
3, 50491, Note_on_c, 1, 34, 0
3, 50496, Note_on_c, 1, 43, 112
3, 50875, Note_on_c, 1, 43, 0
3, 50880, Note_on_c, 1, 39, 112
3, 51160, Note_on_c, 1, 39, 0
3, 51168, Note_on_c, 1, 39, 112
3, 51451, Note_on_c, 1, 39, 0
3, 51456, Note_on_c, 1, 34, 112
3, 52027, Note_on_c, 1, 34, 0
3, 52032, Note_on_c, 1, 39, 112
3, 52320, Note_on_c, 1, 41, 112
3, 52328, Note_on_c, 1, 39, 0
3, 52608, Control_c, 1, 7, 126
3, 52608, Note_on_c, 1, 39, 112
3, 52616, Note_on_c, 1, 41, 0
3, 52620, Control_c, 1, 7, 125
3, 52633, Control_c, 1, 7, 124
3, 52646, Control_c, 1, 7, 123
3, 52659, Control_c, 1, 7, 122
3, 52672, Control_c, 1, 7, 121
3, 52684, Control_c, 1, 7, 120
3, 52697, Control_c, 1, 7, 119
3, 52710, Control_c, 1, 7, 118
3, 52723, Control_c, 1, 7, 117
3, 52736, Control_c, 1, 7, 116
3, 52748, Control_c, 1, 7, 115
3, 52761, Control_c, 1, 7, 114
3, 52774, Control_c, 1, 7, 113
3, 52787, Control_c, 1, 7, 112
3, 52800, Control_c, 1, 7, 111
3, 52812, Control_c, 1, 7, 110
3, 52825, Control_c, 1, 7, 109
3, 52838, Control_c, 1, 7, 108
3, 52851, Control_c, 1, 7, 107
3, 52864, Control_c, 1, 7, 106
3, 52876, Control_c, 1, 7, 105
3, 52889, Control_c, 1, 7, 104
3, 52902, Control_c, 1, 7, 103
3, 52915, Control_c, 1, 7, 102
3, 52928, Control_c, 1, 7, 101
3, 52940, Control_c, 1, 7, 100
3, 52953, Control_c, 1, 7, 99
3, 52966, Control_c, 1, 7, 98
3, 52979, Control_c, 1, 7, 97
3, 52992, Control_c, 1, 7, 96
3, 53004, Control_c, 1, 7, 95
3, 53017, Control_c, 1, 7, 94
3, 53030, Control_c, 1, 7, 93
3, 53043, Control_c, 1, 7, 92
3, 53056, Control_c, 1, 7, 91
3, 53068, Control_c, 1, 7, 90
3, 53081, Control_c, 1, 7, 89
3, 53094, Control_c, 1, 7, 88
3, 53107, Control_c, 1, 7, 87
3, 53120, Control_c, 1, 7, 86
3, 53132, Control_c, 1, 7, 85
3, 53145, Control_c, 1, 7, 84
3, 53158, Control_c, 1, 7, 83
3, 53171, Control_c, 1, 7, 82
3, 53184, Control_c, 1, 7, 81
3, 53196, Control_c, 1, 7, 80
3, 53209, Control_c, 1, 7, 79
3, 53222, Control_c, 1, 7, 78
3, 53235, Control_c, 1, 7, 77
3, 53248, Control_c, 1, 7, 76
3, 53260, Control_c, 1, 7, 75
3, 53273, Control_c, 1, 7, 74
3, 53286, Control_c, 1, 7, 73
3, 53299, Control_c, 1, 7, 72
3, 53312, Control_c, 1, 7, 71
3, 53324, Control_c, 1, 7, 70
3, 53337, Control_c, 1, 7, 69
3, 53350, Control_c, 1, 7, 68
3, 53363, Control_c, 1, 7, 67
3, 53376, Note_on_c, 1, 39, 0
3, 53376, Control_c, 1, 7, 66
3, 53388, Control_c, 1, 7, 65
3, 53401, Control_c, 1, 7, 64
3, 53414, Control_c, 1, 7, 63
3, 53427, Control_c, 1, 7, 62
3, 53440, Control_c, 1, 7, 61
3, 53452, Control_c, 1, 7, 60
3, 53465, Control_c, 1, 7, 59
3, 53478, Control_c, 1, 7, 58
3, 53491, Control_c, 1, 7, 57
3, 53503, Control_c, 1, 7, 56
3, 53632, Control_c, 1, 7, 126
3, 53632, End_track
4, 0, Start_track
4, 0, MIDI_port, 0
4, 0, Title_t, "Mellotron1"
4, 0, Program_c, 2, 75
4, 0, Control_c, 2, 7, 60
4, 0, Control_c, 2, 10, 2
4, 0, Control_c, 2, 93, 2
4, 0, Control_c, 2, 91, 2
4, 384, Note_on_c, 2, 72, 96
4, 384, Note_on_c, 2, 69, 96
4, 384, Note_on_c, 2, 65, 96
4, 482, Note_on_c, 2, 69, 0
4, 482, Note_on_c, 2, 72, 0
4, 576, Note_on_c, 2, 72, 96
4, 576, Note_on_c, 2, 69, 96
4, 674, Note_on_c, 2, 69, 0
4, 674, Note_on_c, 2, 72, 0
4, 768, Note_on_c, 2, 65, 0
4, 768, Note_on_c, 2, 64, 96
4, 768, Note_on_c, 2, 72, 96
4, 768, Note_on_c, 2, 69, 96
4, 866, Note_on_c, 2, 69, 0
4, 866, Note_on_c, 2, 72, 0
4, 960, Note_on_c, 2, 72, 96
4, 960, Note_on_c, 2, 69, 96
4, 1058, Note_on_c, 2, 69, 0
4, 1058, Note_on_c, 2, 72, 0
4, 1152, Note_on_c, 2, 64, 0
4, 1152, Note_on_c, 2, 63, 96
4, 1152, Note_on_c, 2, 72, 96
4, 1152, Note_on_c, 2, 69, 96
4, 1250, Note_on_c, 2, 69, 0
4, 1250, Note_on_c, 2, 72, 0
4, 1344, Note_on_c, 2, 72, 96
4, 1344, Note_on_c, 2, 69, 96
4, 1536, Note_on_c, 2, 69, 0
4, 1536, Note_on_c, 2, 72, 0
4, 1536, Note_on_c, 2, 70, 96
4, 1536, Note_on_c, 2, 67, 96
4, 1728, Note_on_c, 2, 67, 0
4, 1728, Note_on_c, 2, 70, 0
4, 1728, Note_on_c, 2, 69, 96
4, 1728, Note_on_c, 2, 66, 96
4, 1918, Note_on_c, 2, 66, 0
4, 1918, Note_on_c, 2, 69, 0
4, 1918, Note_on_c, 2, 63, 0
4, 1920, Note_on_c, 2, 62, 96
4, 2016, Note_on_c, 2, 67, 96
4, 2112, Note_on_c, 2, 70, 96
4, 2201, Note_on_c, 2, 62, 0
4, 2302, Note_on_c, 2, 70, 0
4, 2302, Note_on_c, 2, 67, 0
4, 2304, Note_on_c, 2, 60, 96
4, 2400, Note_on_c, 2, 65, 96
4, 2496, Note_on_c, 2, 69, 96
4, 2592, Note_on_c, 2, 58, 96
4, 2596, Note_on_c, 2, 60, 0
4, 2634, Note_on_c, 2, 65, 0
4, 2634, Note_on_c, 2, 69, 0
4, 2688, Note_on_c, 2, 67, 96
4, 2688, Note_on_c, 2, 63, 96
4, 2782, Note_on_c, 2, 63, 0
4, 2782, Note_on_c, 2, 67, 0
4, 2880, Note_on_c, 2, 65, 96
4, 2880, Note_on_c, 2, 62, 96
4, 2902, Note_on_c, 2, 58, 0
4, 3072, Note_on_c, 2, 58, 96
4, 3098, Note_on_c, 2, 62, 0
4, 3098, Note_on_c, 2, 65, 0
4, 4505, Control_c, 2, 7, 48
4, 4512, Pitch_bend_c, 2, 8192
4, 4512, Control_c, 2, 7, 47
4, 4514, Pitch_bend_c, 2, 7987
4, 4517, Pitch_bend_c, 2, 7748
4, 4518, Control_c, 2, 7, 46
4, 4520, Pitch_bend_c, 2, 7509
4, 4522, Pitch_bend_c, 2, 7270
4, 4524, Control_c, 2, 7, 45
4, 4525, Pitch_bend_c, 2, 7031
4, 4528, Pitch_bend_c, 2, 6792
4, 4531, Pitch_bend_c, 2, 6553
4, 4531, Control_c, 2, 7, 44
4, 4533, Pitch_bend_c, 2, 6348
4, 4536, Pitch_bend_c, 2, 6109
4, 4537, Control_c, 2, 7, 43
4, 4539, Pitch_bend_c, 2, 5870
4, 4542, Pitch_bend_c, 2, 5632
4, 4544, Control_c, 2, 7, 42
4, 4544, Pitch_bend_c, 2, 5393
4, 4547, Pitch_bend_c, 2, 5154
4, 4550, Pitch_bend_c, 2, 4915
4, 4550, Control_c, 2, 7, 41
4, 4552, Pitch_bend_c, 2, 4710
4, 4555, Pitch_bend_c, 2, 4471
4, 4556, Control_c, 2, 7, 40
4, 4558, Pitch_bend_c, 2, 4232
4, 4561, Pitch_bend_c, 2, 3993
4, 4563, Control_c, 2, 7, 39
4, 4564, Pitch_bend_c, 2, 3754
4, 4566, Pitch_bend_c, 2, 3515
4, 4569, Pitch_bend_c, 2, 3276
4, 4569, Control_c, 2, 7, 38
4, 4572, Pitch_bend_c, 2, 3072
4, 4574, Pitch_bend_c, 2, 2833
4, 4576, Control_c, 2, 7, 37
4, 4577, Pitch_bend_c, 2, 2594
4, 4580, Pitch_bend_c, 2, 2355
4, 4582, Control_c, 2, 7, 36
4, 4583, Pitch_bend_c, 2, 2116
4, 4586, Pitch_bend_c, 2, 1877
4, 4588, Pitch_bend_c, 2, 1638
4, 4588, Control_c, 2, 7, 35
4, 4591, Pitch_bend_c, 2, 1433
4, 4594, Pitch_bend_c, 2, 1194
4, 4595, Control_c, 2, 7, 34
4, 4596, Pitch_bend_c, 2, 955
4, 4599, Pitch_bend_c, 2, 716
4, 4601, Control_c, 2, 7, 33
4, 4602, Pitch_bend_c, 2, 477
4, 4605, Pitch_bend_c, 2, 239
4, 4607, Pitch_bend_c, 2, 0
4, 4607, Control_c, 2, 7, 32
4, 4608, Note_on_c, 2, 58, 0
4, 4608, Note_on_c, 2, 56, 100
4, 4608, Pitch_bend_c, 2, 8192
4, 6141, Note_on_c, 2, 56, 0
4, 6144, Note_on_c, 2, 67, 100
4, 6144, Note_on_c, 2, 62, 100
4, 6144, Note_on_c, 2, 71, 100
4, 7673, Note_on_c, 2, 71, 0
4, 7673, Note_on_c, 2, 62, 0
4, 7673, Note_on_c, 2, 67, 0
4, 7680, Note_on_c, 2, 70, 100
4, 7680, Note_on_c, 2, 67, 100
4, 7680, Note_on_c, 2, 63, 100
4, 7776, Note_on_c, 2, 67, 0
4, 7776, Note_on_c, 2, 70, 0
4, 7872, Note_on_c, 2, 70, 100
4, 7872, Note_on_c, 2, 67, 100
4, 7968, Note_on_c, 2, 67, 0
4, 7968, Note_on_c, 2, 70, 0
4, 8063, Note_on_c, 2, 63, 0
4, 8064, Note_on_c, 2, 71, 100
4, 8064, Note_on_c, 2, 67, 100
4, 8064, Note_on_c, 2, 62, 100
4, 8160, Note_on_c, 2, 67, 0
4, 8160, Note_on_c, 2, 71, 0
4, 8256, Note_on_c, 2, 71, 100
4, 8256, Note_on_c, 2, 67, 100
4, 8352, Note_on_c, 2, 67, 0
4, 8352, Note_on_c, 2, 71, 0
4, 8448, Note_on_c, 2, 71, 100
4, 8448, Note_on_c, 2, 67, 100
4, 8544, Note_on_c, 2, 67, 0
4, 8544, Note_on_c, 2, 71, 0
4, 8640, Note_on_c, 2, 71, 100
4, 8640, Note_on_c, 2, 67, 100
4, 8736, Note_on_c, 2, 67, 0
4, 8736, Note_on_c, 2, 71, 0
4, 8741, Note_on_c, 2, 62, 0
4, 8832, Note_on_c, 2, 70, 100
4, 8832, Note_on_c, 2, 67, 100
4, 8832, Note_on_c, 2, 63, 100
4, 9030, Note_on_c, 2, 63, 0
4, 9030, Note_on_c, 2, 67, 0
4, 9030, Note_on_c, 2, 70, 0
4, 9120, Note_on_c, 2, 70, 100
4, 9120, Note_on_c, 2, 67, 100
4, 9120, Note_on_c, 2, 63, 100
4, 9292, Note_on_c, 2, 63, 0
4, 9292, Note_on_c, 2, 67, 0
4, 9292, Note_on_c, 2, 70, 0
4, 9408, Note_on_c, 2, 58, 100
4, 9984, Note_on_c, 2, 58, 0
4, 9984, Control_c, 2, 7, 50
4, 9984, Note_on_c, 2, 72, 96
4, 9984, Note_on_c, 2, 69, 96
4, 9984, Note_on_c, 2, 65, 96
4, 10084, Note_on_c, 2, 69, 0
4, 10084, Note_on_c, 2, 72, 0
4, 10176, Note_on_c, 2, 72, 96
4, 10176, Note_on_c, 2, 69, 96
4, 10276, Note_on_c, 2, 69, 0
4, 10276, Note_on_c, 2, 72, 0
4, 10368, Note_on_c, 2, 65, 0
4, 10368, Note_on_c, 2, 64, 96
4, 10368, Note_on_c, 2, 72, 96
4, 10368, Note_on_c, 2, 69, 96
4, 10468, Note_on_c, 2, 69, 0
4, 10468, Note_on_c, 2, 72, 0
4, 10560, Note_on_c, 2, 72, 96
4, 10560, Note_on_c, 2, 69, 96
4, 10660, Note_on_c, 2, 69, 0
4, 10660, Note_on_c, 2, 72, 0
4, 10752, Note_on_c, 2, 64, 0
4, 10752, Note_on_c, 2, 63, 96
4, 10752, Note_on_c, 2, 72, 96
4, 10752, Note_on_c, 2, 69, 96
4, 10852, Note_on_c, 2, 69, 0
4, 10852, Note_on_c, 2, 72, 0
4, 10944, Note_on_c, 2, 72, 96
4, 10944, Note_on_c, 2, 69, 96
4, 11060, Note_on_c, 2, 69, 0
4, 11060, Note_on_c, 2, 72, 0
4, 11136, Note_on_c, 2, 70, 96
4, 11136, Note_on_c, 2, 67, 96
4, 11226, Note_on_c, 2, 67, 0
4, 11226, Note_on_c, 2, 70, 0
4, 11328, Note_on_c, 2, 69, 96
4, 11328, Note_on_c, 2, 66, 96
4, 11392, Note_on_c, 2, 66, 0
4, 11392, Note_on_c, 2, 69, 0
4, 11456, Control_c, 2, 7, 50
4, 11459, Control_c, 2, 7, 49
4, 11462, Control_c, 2, 7, 48
4, 11466, Control_c, 2, 7, 47
4, 11470, Control_c, 2, 7, 46
4, 11473, Control_c, 2, 7, 45
4, 11477, Control_c, 2, 7, 44
4, 11480, Control_c, 2, 7, 43
4, 11484, Control_c, 2, 7, 42
4, 11488, Control_c, 2, 7, 41
4, 11491, Control_c, 2, 7, 40
4, 11494, Control_c, 2, 7, 39
4, 11498, Control_c, 2, 7, 38
4, 11502, Control_c, 2, 7, 37
4, 11505, Control_c, 2, 7, 36
4, 11509, Control_c, 2, 7, 35
4, 11512, Control_c, 2, 7, 34
4, 11516, Control_c, 2, 7, 33
4, 11518, Note_on_c, 2, 63, 0
4, 11519, Control_c, 2, 7, 32
4, 11520, Note_on_c, 2, 70, 96
4, 11520, Note_on_c, 2, 67, 96
4, 11712, Note_on_c, 2, 67, 0
4, 11712, Note_on_c, 2, 70, 0
4, 11904, Note_on_c, 2, 69, 96
4, 11904, Note_on_c, 2, 65, 96
4, 12096, Note_on_c, 2, 65, 0
4, 12096, Note_on_c, 2, 69, 0
4, 12288, Note_on_c, 2, 67, 96
4, 12288, Note_on_c, 2, 63, 96
4, 12960, Note_on_c, 2, 63, 0
4, 12960, Note_on_c, 2, 67, 0
4, 12960, Note_on_c, 2, 70, 96
4, 12960, Note_on_c, 2, 67, 96
4, 13017, Note_on_c, 2, 69, 96
4, 13017, Note_on_c, 2, 66, 96
4, 13018, Note_on_c, 2, 67, 0
4, 13018, Note_on_c, 2, 70, 0
4, 13056, Note_on_c, 2, 70, 96
4, 13056, Note_on_c, 2, 67, 96
4, 13057, Note_on_c, 2, 69, 0
4, 13057, Note_on_c, 2, 66, 0
4, 13354, Note_on_c, 2, 70, 0
4, 13354, Note_on_c, 2, 67, 0
4, 13440, Note_on_c, 2, 72, 96
4, 13440, Note_on_c, 2, 69, 96
4, 13738, Note_on_c, 2, 69, 0
4, 13738, Note_on_c, 2, 72, 0
4, 13824, Note_on_c, 2, 74, 96
4, 13824, Note_on_c, 2, 70, 96
4, 13932, Note_on_c, 2, 70, 0
4, 13932, Note_on_c, 2, 74, 0
4, 14016, Note_on_c, 2, 72, 96
4, 14016, Note_on_c, 2, 69, 96
4, 14124, Note_on_c, 2, 69, 0
4, 14124, Note_on_c, 2, 72, 0
4, 14208, Note_on_c, 2, 70, 96
4, 14208, Note_on_c, 2, 67, 96
4, 14316, Note_on_c, 2, 67, 0
4, 14316, Note_on_c, 2, 70, 0
4, 14400, Note_on_c, 2, 69, 96
4, 14400, Note_on_c, 2, 65, 96
4, 14508, Note_on_c, 2, 65, 0
4, 14508, Note_on_c, 2, 69, 0
4, 14592, Note_on_c, 2, 70, 96
4, 14592, Note_on_c, 2, 67, 96
4, 14890, Note_on_c, 2, 67, 0
4, 14890, Note_on_c, 2, 70, 0
4, 14976, Note_on_c, 2, 72, 96
4, 14976, Note_on_c, 2, 69, 96
4, 15274, Note_on_c, 2, 69, 0
4, 15274, Note_on_c, 2, 72, 0
4, 15360, Note_on_c, 2, 70, 96
4, 15360, Note_on_c, 2, 67, 96
4, 15658, Note_on_c, 2, 67, 0
4, 15658, Note_on_c, 2, 70, 0
4, 15744, Note_on_c, 2, 70, 96
4, 15744, Note_on_c, 2, 65, 96
4, 16128, Note_on_c, 2, 70, 100
4, 16145, Note_on_c, 2, 70, 0
4, 16145, Note_on_c, 2, 65, 0
4, 16512, Note_on_c, 2, 70, 0
4, 17568, Pitch_bend_c, 2, 8192
4, 17570, Pitch_bend_c, 2, 7987
4, 17573, Pitch_bend_c, 2, 7748
4, 17576, Pitch_bend_c, 2, 7509
4, 17578, Pitch_bend_c, 2, 7270
4, 17581, Pitch_bend_c, 2, 7031
4, 17584, Pitch_bend_c, 2, 6792
4, 17587, Pitch_bend_c, 2, 6553
4, 17589, Pitch_bend_c, 2, 6348
4, 17592, Pitch_bend_c, 2, 6109
4, 17595, Pitch_bend_c, 2, 5870
4, 17598, Pitch_bend_c, 2, 5632
4, 17600, Pitch_bend_c, 2, 5393
4, 17603, Pitch_bend_c, 2, 5154
4, 17606, Pitch_bend_c, 2, 4915
4, 17608, Pitch_bend_c, 2, 4710
4, 17611, Pitch_bend_c, 2, 4471
4, 17614, Pitch_bend_c, 2, 4232
4, 17617, Pitch_bend_c, 2, 3993
4, 17620, Pitch_bend_c, 2, 3754
4, 17622, Pitch_bend_c, 2, 3515
4, 17625, Pitch_bend_c, 2, 3276
4, 17628, Pitch_bend_c, 2, 3072
4, 17630, Pitch_bend_c, 2, 2833
4, 17633, Pitch_bend_c, 2, 2594
4, 17636, Pitch_bend_c, 2, 2355
4, 17639, Pitch_bend_c, 2, 2116
4, 17642, Pitch_bend_c, 2, 1877
4, 17644, Pitch_bend_c, 2, 1638
4, 17647, Pitch_bend_c, 2, 1433
4, 17650, Pitch_bend_c, 2, 1194
4, 17652, Pitch_bend_c, 2, 955
4, 17655, Pitch_bend_c, 2, 716
4, 17658, Pitch_bend_c, 2, 477
4, 17661, Pitch_bend_c, 2, 239
4, 17663, Pitch_bend_c, 2, 0
4, 17664, Pitch_bend_c, 2, 8192
4, 17664, End_track
5, 0, Start_track
5, 0, MIDI_port, 0
5, 0, Title_t, "Mellotron2"
5, 0, Program_c, 3, 78
5, 0, Control_c, 3, 7, 70
5, 0, Control_c, 3, 10, 2
5, 0, Control_c, 3, 93, 2
5, 8, Control_c, 3, 91, 2
5, 384, Note_on_c, 3, 72, 96
5, 384, Note_on_c, 3, 69, 96
5, 384, Note_on_c, 3, 65, 96
5, 484, Note_on_c, 3, 69, 0
5, 484, Note_on_c, 3, 72, 0
5, 576, Note_on_c, 3, 72, 96
5, 576, Note_on_c, 3, 69, 96
5, 676, Note_on_c, 3, 69, 0
5, 676, Note_on_c, 3, 72, 0
5, 768, Note_on_c, 3, 65, 0
5, 768, Note_on_c, 3, 64, 96
5, 768, Note_on_c, 3, 72, 96
5, 768, Note_on_c, 3, 69, 96
5, 868, Note_on_c, 3, 69, 0
5, 868, Note_on_c, 3, 72, 0
5, 960, Note_on_c, 3, 72, 96
5, 960, Note_on_c, 3, 69, 96
5, 1060, Note_on_c, 3, 69, 0
5, 1060, Note_on_c, 3, 72, 0
5, 1152, Note_on_c, 3, 64, 0
5, 1152, Note_on_c, 3, 63, 96
5, 1152, Note_on_c, 3, 72, 96
5, 1152, Note_on_c, 3, 69, 96
5, 1252, Note_on_c, 3, 69, 0
5, 1252, Note_on_c, 3, 72, 0
5, 1344, Note_on_c, 3, 72, 96
5, 1344, Note_on_c, 3, 69, 96
5, 1536, Note_on_c, 3, 69, 0
5, 1536, Note_on_c, 3, 72, 0
5, 1536, Note_on_c, 3, 70, 96
5, 1536, Note_on_c, 3, 67, 96
5, 1728, Note_on_c, 3, 67, 0
5, 1728, Note_on_c, 3, 70, 0
5, 1728, Note_on_c, 3, 69, 96
5, 1728, Note_on_c, 3, 66, 96
5, 1918, Note_on_c, 3, 66, 0
5, 1918, Note_on_c, 3, 69, 0
5, 1918, Note_on_c, 3, 63, 0
5, 1920, Note_on_c, 3, 62, 96
5, 2016, Note_on_c, 3, 67, 96
5, 2112, Note_on_c, 3, 70, 96
5, 2201, Note_on_c, 3, 62, 0
5, 2302, Note_on_c, 3, 70, 0
5, 2302, Note_on_c, 3, 67, 0
5, 2304, Note_on_c, 3, 60, 96
5, 2400, Note_on_c, 3, 65, 96
5, 2496, Note_on_c, 3, 69, 96
5, 2592, Note_on_c, 3, 58, 96
5, 2596, Note_on_c, 3, 60, 0
5, 2634, Note_on_c, 3, 65, 0
5, 2634, Note_on_c, 3, 69, 0
5, 2688, Note_on_c, 3, 67, 96
5, 2688, Note_on_c, 3, 63, 96
5, 2782, Note_on_c, 3, 63, 0
5, 2782, Note_on_c, 3, 67, 0
5, 2880, Note_on_c, 3, 65, 96
5, 2880, Note_on_c, 3, 62, 96
5, 2921, Note_on_c, 3, 58, 0
5, 3072, Note_on_c, 3, 58, 96
5, 3098, Note_on_c, 3, 62, 0
5, 3098, Note_on_c, 3, 65, 0
5, 4512, Pitch_bend_c, 3, 8192
5, 4514, Pitch_bend_c, 3, 7987
5, 4517, Pitch_bend_c, 3, 7748
5, 4520, Pitch_bend_c, 3, 7509
5, 4522, Pitch_bend_c, 3, 7270
5, 4525, Pitch_bend_c, 3, 7031
5, 4528, Pitch_bend_c, 3, 6792
5, 4531, Pitch_bend_c, 3, 6553
5, 4531, Control_c, 3, 7, 90
5, 4533, Pitch_bend_c, 3, 6348
5, 4535, Control_c, 3, 7, 89
5, 4536, Pitch_bend_c, 3, 6109
5, 4539, Pitch_bend_c, 3, 5870
5, 4540, Control_c, 3, 7, 88
5, 4542, Pitch_bend_c, 3, 5632
5, 4544, Pitch_bend_c, 3, 5393
5, 4544, Control_c, 3, 7, 87
5, 4547, Pitch_bend_c, 3, 5154
5, 4549, Control_c, 3, 7, 86
5, 4550, Pitch_bend_c, 3, 4915
5, 4552, Pitch_bend_c, 3, 4710
5, 4554, Control_c, 3, 7, 85
5, 4555, Pitch_bend_c, 3, 4471
5, 4558, Pitch_bend_c, 3, 4232
5, 4558, Control_c, 3, 7, 84
5, 4561, Pitch_bend_c, 3, 3993
5, 4563, Control_c, 3, 7, 83
5, 4564, Pitch_bend_c, 3, 3754
5, 4566, Pitch_bend_c, 3, 3515
5, 4568, Control_c, 3, 7, 82
5, 4569, Pitch_bend_c, 3, 3276
5, 4572, Pitch_bend_c, 3, 3072
5, 4572, Control_c, 3, 7, 81
5, 4574, Pitch_bend_c, 3, 2833
5, 4577, Pitch_bend_c, 3, 2594
5, 4577, Control_c, 3, 7, 80
5, 4580, Pitch_bend_c, 3, 2355
5, 4582, Control_c, 3, 7, 79
5, 4583, Pitch_bend_c, 3, 2116
5, 4586, Pitch_bend_c, 3, 1877
5, 4586, Control_c, 3, 7, 78
5, 4588, Pitch_bend_c, 3, 1638
5, 4591, Pitch_bend_c, 3, 1433
5, 4591, Control_c, 3, 7, 77
5, 4594, Pitch_bend_c, 3, 1194
5, 4596, Control_c, 3, 7, 76
5, 4596, Pitch_bend_c, 3, 955
5, 4599, Pitch_bend_c, 3, 716
5, 4600, Control_c, 3, 7, 75
5, 4602, Pitch_bend_c, 3, 477
5, 4605, Pitch_bend_c, 3, 239
5, 4605, Control_c, 3, 7, 74
5, 4607, Pitch_bend_c, 3, 0
5, 4608, Note_on_c, 3, 58, 0
5, 4608, Note_on_c, 3, 56, 100
5, 4608, Pitch_bend_c, 3, 8192
5, 4610, Control_c, 3, 7, 73
5, 4614, Control_c, 3, 7, 72
5, 4619, Control_c, 3, 7, 71
5, 4624, Control_c, 3, 7, 70
5, 4628, Control_c, 3, 7, 69
5, 4633, Control_c, 3, 7, 68
5, 4633, Control_c, 3, 7, 72
5, 6141, Note_on_c, 3, 56, 0
5, 6144, Note_on_c, 3, 67, 100
5, 6144, Note_on_c, 3, 62, 100
5, 6144, Note_on_c, 3, 71, 100
5, 7673, Note_on_c, 3, 71, 0
5, 7673, Note_on_c, 3, 62, 0
5, 7673, Note_on_c, 3, 67, 0
5, 7680, Note_on_c, 3, 70, 100
5, 7680, Note_on_c, 3, 67, 100
5, 7680, Note_on_c, 3, 63, 100
5, 7776, Note_on_c, 3, 67, 0
5, 7776, Note_on_c, 3, 70, 0
5, 7872, Note_on_c, 3, 70, 100
5, 7872, Note_on_c, 3, 67, 100
5, 7968, Note_on_c, 3, 67, 0
5, 7968, Note_on_c, 3, 70, 0
5, 8063, Note_on_c, 3, 63, 0
5, 8064, Note_on_c, 3, 71, 100
5, 8064, Note_on_c, 3, 67, 100
5, 8064, Note_on_c, 3, 62, 100
5, 8160, Note_on_c, 3, 67, 0
5, 8160, Note_on_c, 3, 71, 0
5, 8256, Note_on_c, 3, 71, 100
5, 8256, Note_on_c, 3, 67, 100
5, 8352, Note_on_c, 3, 67, 0
5, 8352, Note_on_c, 3, 71, 0
5, 8448, Note_on_c, 3, 71, 100
5, 8448, Note_on_c, 3, 67, 100
5, 8544, Note_on_c, 3, 67, 0
5, 8544, Note_on_c, 3, 71, 0
5, 8640, Note_on_c, 3, 71, 100
5, 8640, Note_on_c, 3, 67, 100
5, 8736, Note_on_c, 3, 67, 0
5, 8736, Note_on_c, 3, 71, 0
5, 8741, Note_on_c, 3, 62, 0
5, 8832, Note_on_c, 3, 70, 100
5, 8832, Note_on_c, 3, 67, 100
5, 8832, Note_on_c, 3, 63, 100
5, 9030, Note_on_c, 3, 63, 0
5, 9030, Note_on_c, 3, 67, 0
5, 9030, Note_on_c, 3, 70, 0
5, 9120, Note_on_c, 3, 70, 100
5, 9120, Note_on_c, 3, 67, 100
5, 9120, Note_on_c, 3, 63, 100
5, 9292, Note_on_c, 3, 63, 0
5, 9292, Note_on_c, 3, 67, 0
5, 9292, Note_on_c, 3, 70, 0
5, 9408, Note_on_c, 3, 58, 100
5, 9984, Note_on_c, 3, 58, 0
5, 9984, Control_c, 3, 7, 90
5, 9984, Note_on_c, 3, 72, 96
5, 9984, Note_on_c, 3, 69, 96
5, 9984, Note_on_c, 3, 65, 96
5, 10084, Note_on_c, 3, 69, 0
5, 10084, Note_on_c, 3, 72, 0
5, 10176, Note_on_c, 3, 72, 96
5, 10176, Note_on_c, 3, 69, 96
5, 10276, Note_on_c, 3, 69, 0
5, 10276, Note_on_c, 3, 72, 0
5, 10368, Note_on_c, 3, 65, 0
5, 10368, Note_on_c, 3, 64, 96
5, 10368, Note_on_c, 3, 72, 96
5, 10368, Note_on_c, 3, 69, 96
5, 10468, Note_on_c, 3, 69, 0
5, 10468, Note_on_c, 3, 72, 0
5, 10560, Note_on_c, 3, 72, 96
5, 10560, Note_on_c, 3, 69, 96
5, 10660, Note_on_c, 3, 69, 0
5, 10660, Note_on_c, 3, 72, 0
5, 10752, Note_on_c, 3, 64, 0
5, 10752, Note_on_c, 3, 63, 96
5, 10752, Note_on_c, 3, 72, 96
5, 10752, Note_on_c, 3, 69, 96
5, 10852, Note_on_c, 3, 69, 0
5, 10852, Note_on_c, 3, 72, 0
5, 10944, Note_on_c, 3, 72, 96
5, 10944, Note_on_c, 3, 69, 96
5, 11074, Note_on_c, 3, 69, 0
5, 11074, Note_on_c, 3, 72, 0
5, 11136, Note_on_c, 3, 70, 96
5, 11136, Note_on_c, 3, 67, 96
5, 11241, Note_on_c, 3, 67, 0
5, 11241, Note_on_c, 3, 70, 0
5, 11328, Note_on_c, 3, 69, 96
5, 11328, Note_on_c, 3, 66, 96
5, 11406, Note_on_c, 3, 66, 0
5, 11406, Note_on_c, 3, 69, 0
5, 11456, Control_c, 3, 7, 92
5, 11459, Control_c, 3, 7, 91
5, 11462, Control_c, 3, 7, 90
5, 11465, Control_c, 3, 7, 89
5, 11468, Control_c, 3, 7, 88
5, 11472, Control_c, 3, 7, 87
5, 11475, Control_c, 3, 7, 86
5, 11478, Control_c, 3, 7, 85
5, 11481, Control_c, 3, 7, 84
5, 11484, Control_c, 3, 7, 83
5, 11488, Control_c, 3, 7, 82
5, 11491, Control_c, 3, 7, 81
5, 11494, Control_c, 3, 7, 80
5, 11497, Control_c, 3, 7, 79
5, 11500, Control_c, 3, 7, 78
5, 11504, Control_c, 3, 7, 77
5, 11507, Control_c, 3, 7, 76
5, 11510, Control_c, 3, 7, 75
5, 11513, Control_c, 3, 7, 74
5, 11516, Control_c, 3, 7, 73
5, 11518, Note_on_c, 3, 63, 0
5, 11519, Control_c, 3, 7, 72
5, 11520, Note_on_c, 3, 70, 96
5, 11520, Note_on_c, 3, 67, 96
5, 11712, Note_on_c, 3, 67, 0
5, 11712, Note_on_c, 3, 70, 0
5, 11904, Note_on_c, 3, 69, 96
5, 11904, Note_on_c, 3, 65, 96
5, 12096, Note_on_c, 3, 65, 0
5, 12096, Note_on_c, 3, 69, 0
5, 12288, Note_on_c, 3, 67, 96
5, 12288, Note_on_c, 3, 63, 96
5, 12960, Note_on_c, 3, 63, 0
5, 12960, Note_on_c, 3, 67, 0
5, 12960, Note_on_c, 3, 70, 96
5, 12960, Note_on_c, 3, 67, 96
5, 13017, Note_on_c, 3, 69, 96
5, 13017, Note_on_c, 3, 66, 96
5, 13018, Note_on_c, 3, 67, 0
5, 13018, Note_on_c, 3, 70, 0
5, 13056, Note_on_c, 3, 70, 96
5, 13056, Note_on_c, 3, 67, 96
5, 13057, Note_on_c, 3, 69, 0
5, 13057, Note_on_c, 3, 66, 0
5, 13354, Note_on_c, 3, 70, 0
5, 13354, Note_on_c, 3, 67, 0
5, 13440, Note_on_c, 3, 72, 96
5, 13440, Note_on_c, 3, 69, 96
5, 13738, Note_on_c, 3, 69, 0
5, 13738, Note_on_c, 3, 72, 0
5, 13824, Note_on_c, 3, 74, 96
5, 13824, Note_on_c, 3, 70, 96
5, 13932, Note_on_c, 3, 70, 0
5, 13932, Note_on_c, 3, 74, 0
5, 14016, Note_on_c, 3, 72, 96
5, 14016, Note_on_c, 3, 69, 96
5, 14124, Note_on_c, 3, 69, 0
5, 14124, Note_on_c, 3, 72, 0
5, 14208, Note_on_c, 3, 70, 96
5, 14208, Note_on_c, 3, 67, 96
5, 14316, Note_on_c, 3, 67, 0
5, 14316, Note_on_c, 3, 70, 0
5, 14400, Note_on_c, 3, 69, 96
5, 14400, Note_on_c, 3, 65, 96
5, 14508, Note_on_c, 3, 65, 0
5, 14508, Note_on_c, 3, 69, 0
5, 14592, Note_on_c, 3, 70, 96
5, 14592, Note_on_c, 3, 67, 96
5, 14890, Note_on_c, 3, 67, 0
5, 14890, Note_on_c, 3, 70, 0
5, 14976, Note_on_c, 3, 72, 96
5, 14976, Note_on_c, 3, 69, 96
5, 15274, Note_on_c, 3, 69, 0
5, 15274, Note_on_c, 3, 72, 0
5, 15360, Note_on_c, 3, 70, 96
5, 15360, Note_on_c, 3, 67, 96
5, 15658, Note_on_c, 3, 67, 0
5, 15658, Note_on_c, 3, 70, 0
5, 15744, Note_on_c, 3, 70, 96
5, 15744, Note_on_c, 3, 65, 96
5, 16128, Note_on_c, 3, 58, 100
5, 16145, Note_on_c, 3, 65, 0
5, 16145, Note_on_c, 3, 70, 0
5, 17568, Pitch_bend_c, 3, 8192
5, 17570, Pitch_bend_c, 3, 7987
5, 17573, Pitch_bend_c, 3, 7748
5, 17576, Pitch_bend_c, 3, 7509
5, 17578, Pitch_bend_c, 3, 7270
5, 17581, Pitch_bend_c, 3, 7031
5, 17584, Pitch_bend_c, 3, 6792
5, 17587, Pitch_bend_c, 3, 6553
5, 17589, Pitch_bend_c, 3, 6348
5, 17592, Pitch_bend_c, 3, 6109
5, 17595, Pitch_bend_c, 3, 5870
5, 17598, Pitch_bend_c, 3, 5632
5, 17600, Pitch_bend_c, 3, 5393
5, 17603, Pitch_bend_c, 3, 5154
5, 17606, Pitch_bend_c, 3, 4915
5, 17608, Pitch_bend_c, 3, 4710
5, 17611, Pitch_bend_c, 3, 4471
5, 17614, Pitch_bend_c, 3, 4232
5, 17617, Pitch_bend_c, 3, 3993
5, 17620, Pitch_bend_c, 3, 3754
5, 17622, Pitch_bend_c, 3, 3515
5, 17625, Pitch_bend_c, 3, 3276
5, 17628, Pitch_bend_c, 3, 3072
5, 17630, Pitch_bend_c, 3, 2833
5, 17633, Pitch_bend_c, 3, 2594
5, 17636, Pitch_bend_c, 3, 2355
5, 17639, Pitch_bend_c, 3, 2116
5, 17642, Pitch_bend_c, 3, 1877
5, 17644, Pitch_bend_c, 3, 1638
5, 17647, Pitch_bend_c, 3, 1433
5, 17650, Pitch_bend_c, 3, 1194
5, 17652, Pitch_bend_c, 3, 955
5, 17655, Pitch_bend_c, 3, 716
5, 17658, Pitch_bend_c, 3, 477
5, 17661, Pitch_bend_c, 3, 239
5, 17663, Pitch_bend_c, 3, 0
5, 17664, Note_on_c, 3, 58, 0
5, 17664, Pitch_bend_c, 3, 8192
5, 63744, Pitch_bend_c, 3, 8192
5, 63744, End_track
6, 0, Start_track
6, 0, MIDI_port, 0
6, 0, Title_t, "Cymb/Sitar"
6, 0, Program_c, 4, 119
6, 0, Control_c, 4, 7, 80
6, 0, Control_c, 4, 10, 64
6, 0, Control_c, 4, 93, 2
6, 4179, Control_c, 4, 10, 64
6, 4184, Control_c, 4, 10, 63
6, 4190, Control_c, 4, 10, 62
6, 4196, Control_c, 4, 10, 61
6, 4202, Control_c, 4, 10, 60
6, 4207, Control_c, 4, 10, 59
6, 4213, Control_c, 4, 10, 58
6, 4218, Control_c, 4, 10, 57
6, 4224, Note_on_c, 4, 68, 100
6, 4224, Control_c, 4, 10, 56
6, 4230, Control_c, 4, 10, 55
6, 4236, Control_c, 4, 10, 54
6, 4241, Control_c, 4, 10, 53
6, 4247, Control_c, 4, 10, 52
6, 4253, Control_c, 4, 10, 51
6, 4258, Control_c, 4, 10, 50
6, 4264, Control_c, 4, 10, 49
6, 4270, Control_c, 4, 10, 48
6, 4276, Control_c, 4, 10, 47
6, 4281, Control_c, 4, 10, 46
6, 4287, Control_c, 4, 10, 45
6, 4293, Control_c, 4, 10, 44
6, 4298, Control_c, 4, 10, 43
6, 4304, Control_c, 4, 10, 42
6, 4310, Control_c, 4, 10, 41
6, 4316, Control_c, 4, 10, 40
6, 4321, Control_c, 4, 10, 39
6, 4327, Control_c, 4, 10, 38
6, 4332, Control_c, 4, 10, 37
6, 4338, Control_c, 4, 10, 36
6, 4344, Control_c, 4, 10, 35
6, 4350, Control_c, 4, 10, 34
6, 4355, Control_c, 4, 10, 33
6, 4361, Control_c, 4, 10, 32
6, 4367, Control_c, 4, 10, 31
6, 4372, Control_c, 4, 10, 30
6, 4378, Control_c, 4, 10, 29
6, 4384, Control_c, 4, 10, 28
6, 4390, Control_c, 4, 10, 27
6, 4395, Control_c, 4, 10, 26
6, 4401, Control_c, 4, 10, 25
6, 4407, Control_c, 4, 10, 24
6, 4412, Control_c, 4, 10, 23
6, 4418, Control_c, 4, 10, 22
6, 4424, Control_c, 4, 10, 21
6, 4430, Control_c, 4, 10, 20
6, 4435, Control_c, 4, 10, 19
6, 4441, Control_c, 4, 10, 18
6, 4446, Control_c, 4, 10, 17
6, 4452, Control_c, 4, 10, 16
6, 4458, Control_c, 4, 10, 15
6, 4464, Control_c, 4, 10, 14
6, 4469, Control_c, 4, 10, 13
6, 4475, Control_c, 4, 10, 12
6, 4481, Control_c, 4, 10, 11
6, 4486, Control_c, 4, 10, 10
6, 4492, Control_c, 4, 10, 9
6, 4498, Control_c, 4, 10, 8
6, 4504, Control_c, 4, 10, 7
6, 4509, Control_c, 4, 10, 6
6, 4515, Control_c, 4, 10, 5
6, 4521, Control_c, 4, 10, 4
6, 4526, Control_c, 4, 10, 3
6, 4532, Control_c, 4, 10, 2
6, 4538, Control_c, 4, 10, 1
6, 4543, Control_c, 4, 10, 0
6, 4626, Note_on_c, 4, 68, 0
6, 4658, Control_c, 4, 10, 2
6, 4723, Control_c, 4, 10, 64
6, 11091, Control_c, 4, 10, 64
6, 11096, Control_c, 4, 10, 63
6, 11102, Control_c, 4, 10, 62
6, 11108, Control_c, 4, 10, 61
6, 11114, Control_c, 4, 10, 60
6, 11119, Control_c, 4, 10, 59
6, 11125, Control_c, 4, 10, 58
6, 11130, Control_c, 4, 10, 57
6, 11136, Note_on_c, 4, 68, 100
6, 11136, Control_c, 4, 10, 56
6, 11142, Control_c, 4, 10, 55
6, 11148, Control_c, 4, 10, 54
6, 11153, Control_c, 4, 10, 53
6, 11159, Control_c, 4, 10, 52
6, 11165, Control_c, 4, 10, 51
6, 11170, Control_c, 4, 10, 50
6, 11176, Control_c, 4, 10, 49
6, 11182, Control_c, 4, 10, 48
6, 11188, Control_c, 4, 10, 47
6, 11193, Control_c, 4, 10, 46
6, 11199, Control_c, 4, 10, 45
6, 11205, Control_c, 4, 10, 44
6, 11210, Control_c, 4, 10, 43
6, 11216, Control_c, 4, 10, 42
6, 11222, Control_c, 4, 10, 41
6, 11228, Control_c, 4, 10, 40
6, 11233, Control_c, 4, 10, 39
6, 11239, Control_c, 4, 10, 38
6, 11244, Control_c, 4, 10, 37
6, 11250, Control_c, 4, 10, 36
6, 11256, Control_c, 4, 10, 35
6, 11262, Control_c, 4, 10, 34
6, 11267, Control_c, 4, 10, 33
6, 11273, Control_c, 4, 10, 32
6, 11279, Control_c, 4, 10, 31
6, 11284, Control_c, 4, 10, 30
6, 11290, Control_c, 4, 10, 29
6, 11296, Control_c, 4, 10, 28
6, 11302, Control_c, 4, 10, 27
6, 11307, Control_c, 4, 10, 26
6, 11313, Control_c, 4, 10, 25
6, 11319, Control_c, 4, 10, 24
6, 11324, Control_c, 4, 10, 23
6, 11330, Control_c, 4, 10, 22
6, 11336, Control_c, 4, 10, 21
6, 11342, Control_c, 4, 10, 20
6, 11347, Control_c, 4, 10, 19
6, 11353, Control_c, 4, 10, 18
6, 11358, Control_c, 4, 10, 17
6, 11364, Control_c, 4, 10, 16
6, 11370, Control_c, 4, 10, 15
6, 11376, Control_c, 4, 10, 14
6, 11381, Control_c, 4, 10, 13
6, 11387, Control_c, 4, 10, 12
6, 11393, Control_c, 4, 10, 11
6, 11398, Control_c, 4, 10, 10
6, 11404, Control_c, 4, 10, 9
6, 11410, Control_c, 4, 10, 8
6, 11416, Control_c, 4, 10, 7
6, 11421, Control_c, 4, 10, 6
6, 11427, Control_c, 4, 10, 5
6, 11433, Control_c, 4, 10, 4
6, 11438, Control_c, 4, 10, 3
6, 11444, Control_c, 4, 10, 2
6, 11450, Control_c, 4, 10, 1
6, 11455, Control_c, 4, 10, 0
6, 11538, Note_on_c, 4, 68, 0
6, 11570, Control_c, 4, 10, 2
6, 11635, Control_c, 4, 10, 64
6, 17235, Control_c, 4, 10, 64
6, 17240, Control_c, 4, 10, 63
6, 17246, Control_c, 4, 10, 62
6, 17252, Control_c, 4, 10, 61
6, 17258, Control_c, 4, 10, 60
6, 17263, Control_c, 4, 10, 59
6, 17269, Control_c, 4, 10, 58
6, 17274, Control_c, 4, 10, 57
6, 17280, Note_on_c, 4, 68, 100
6, 17280, Control_c, 4, 10, 56
6, 17286, Control_c, 4, 10, 55
6, 17292, Control_c, 4, 10, 54
6, 17297, Control_c, 4, 10, 53
6, 17303, Control_c, 4, 10, 52
6, 17309, Control_c, 4, 10, 51
6, 17314, Control_c, 4, 10, 50
6, 17320, Control_c, 4, 10, 49
6, 17326, Control_c, 4, 10, 48
6, 17332, Control_c, 4, 10, 47
6, 17337, Control_c, 4, 10, 46
6, 17343, Control_c, 4, 10, 45
6, 17349, Control_c, 4, 10, 44
6, 17354, Control_c, 4, 10, 43
6, 17360, Control_c, 4, 10, 42
6, 17366, Control_c, 4, 10, 41
6, 17372, Control_c, 4, 10, 40
6, 17377, Control_c, 4, 10, 39
6, 17383, Control_c, 4, 10, 38
6, 17388, Control_c, 4, 10, 37
6, 17394, Control_c, 4, 10, 36
6, 17400, Control_c, 4, 10, 35
6, 17406, Control_c, 4, 10, 34
6, 17411, Control_c, 4, 10, 33
6, 17417, Control_c, 4, 10, 32
6, 17423, Control_c, 4, 10, 31
6, 17428, Control_c, 4, 10, 30
6, 17434, Control_c, 4, 10, 29
6, 17440, Control_c, 4, 10, 28
6, 17446, Control_c, 4, 10, 27
6, 17451, Control_c, 4, 10, 26
6, 17457, Control_c, 4, 10, 25
6, 17463, Control_c, 4, 10, 24
6, 17468, Control_c, 4, 10, 23
6, 17474, Control_c, 4, 10, 22
6, 17480, Control_c, 4, 10, 21
6, 17486, Control_c, 4, 10, 20
6, 17491, Control_c, 4, 10, 19
6, 17497, Control_c, 4, 10, 18
6, 17502, Control_c, 4, 10, 17
6, 17508, Control_c, 4, 10, 16
6, 17514, Control_c, 4, 10, 15
6, 17520, Control_c, 4, 10, 14
6, 17525, Control_c, 4, 10, 13
6, 17531, Control_c, 4, 10, 12
6, 17537, Control_c, 4, 10, 11
6, 17542, Control_c, 4, 10, 10
6, 17548, Control_c, 4, 10, 9
6, 17554, Control_c, 4, 10, 8
6, 17560, Control_c, 4, 10, 7
6, 17565, Control_c, 4, 10, 6
6, 17571, Control_c, 4, 10, 5
6, 17577, Control_c, 4, 10, 4
6, 17582, Control_c, 4, 10, 3
6, 17588, Control_c, 4, 10, 2
6, 17594, Control_c, 4, 10, 1
6, 17599, Control_c, 4, 10, 0
6, 17682, Note_on_c, 4, 68, 0
6, 17714, Control_c, 4, 10, 2
6, 17779, Control_c, 4, 10, 64
6, 22784, Program_c, 4, 104
6, 23036, Control_c, 4, 10, 127
6, 23040, Note_on_c, 4, 75, 64
6, 23042, Control_c, 4, 10, 126
6, 23049, Control_c, 4, 10, 124
6, 23055, Control_c, 4, 10, 124
6, 23061, Control_c, 4, 10, 123
6, 23067, Control_c, 4, 10, 122
6, 23073, Control_c, 4, 10, 121
6, 23080, Control_c, 4, 10, 120
6, 23086, Control_c, 4, 10, 119
6, 23092, Control_c, 4, 10, 118
6, 23098, Control_c, 4, 10, 117
6, 23104, Control_c, 4, 10, 116
6, 23110, Control_c, 4, 10, 115
6, 23116, Control_c, 4, 10, 114
6, 23123, Control_c, 4, 10, 113
6, 23129, Control_c, 4, 10, 112
6, 23135, Control_c, 4, 10, 111
6, 23136, Note_on_c, 4, 74, 64
6, 23141, Control_c, 4, 10, 110
6, 23147, Control_c, 4, 10, 109
6, 23154, Control_c, 4, 10, 108
6, 23160, Control_c, 4, 10, 107
6, 23166, Control_c, 4, 10, 106
6, 23172, Control_c, 4, 10, 105
6, 23178, Control_c, 4, 10, 104
6, 23184, Control_c, 4, 10, 103
6, 23190, Control_c, 4, 10, 102
6, 23197, Control_c, 4, 10, 101
6, 23203, Control_c, 4, 10, 100
6, 23209, Control_c, 4, 10, 99
6, 23215, Control_c, 4, 10, 98
6, 23221, Control_c, 4, 10, 97
6, 23228, Control_c, 4, 10, 96
6, 23232, Note_on_c, 4, 70, 64
6, 23234, Control_c, 4, 10, 95
6, 23240, Control_c, 4, 10, 94
6, 23246, Control_c, 4, 10, 93
6, 23252, Control_c, 4, 10, 92
6, 23258, Control_c, 4, 10, 91
6, 23264, Control_c, 4, 10, 90
6, 23271, Control_c, 4, 10, 89
6, 23277, Control_c, 4, 10, 88
6, 23283, Control_c, 4, 10, 87
6, 23289, Control_c, 4, 10, 86
6, 23295, Control_c, 4, 10, 85
6, 23302, Control_c, 4, 10, 84
6, 23308, Control_c, 4, 10, 83
6, 23314, Control_c, 4, 10, 82
6, 23320, Control_c, 4, 10, 81
6, 23326, Control_c, 4, 10, 80
6, 23328, Note_on_c, 4, 68, 64
6, 23332, Control_c, 4, 10, 79
6, 23338, Control_c, 4, 10, 78
6, 23345, Control_c, 4, 10, 77
6, 23351, Control_c, 4, 10, 76
6, 23357, Control_c, 4, 10, 75
6, 23363, Control_c, 4, 10, 74
6, 23370, Control_c, 4, 10, 73
6, 23376, Control_c, 4, 10, 72
6, 23382, Control_c, 4, 10, 71
6, 23388, Control_c, 4, 10, 70
6, 23394, Control_c, 4, 10, 69
6, 23400, Control_c, 4, 10, 68
6, 23406, Control_c, 4, 10, 67
6, 23413, Control_c, 4, 10, 66
6, 23419, Control_c, 4, 10, 65
6, 23424, Note_on_c, 4, 65, 64
6, 23425, Control_c, 4, 10, 64
6, 23431, Control_c, 4, 10, 63
6, 23437, Control_c, 4, 10, 62
6, 23444, Control_c, 4, 10, 61
6, 23450, Control_c, 4, 10, 60
6, 23456, Control_c, 4, 10, 59
6, 23462, Control_c, 4, 10, 58
6, 23468, Control_c, 4, 10, 57
6, 23472, Note_on_c, 4, 75, 0
6, 23474, Control_c, 4, 10, 56
6, 23480, Control_c, 4, 10, 55
6, 23487, Control_c, 4, 10, 54
6, 23493, Control_c, 4, 10, 53
6, 23499, Control_c, 4, 10, 52
6, 23505, Control_c, 4, 10, 51
6, 23511, Control_c, 4, 10, 50
6, 23518, Control_c, 4, 10, 49
6, 23520, Note_on_c, 4, 63, 64
6, 23524, Control_c, 4, 10, 48
6, 23530, Control_c, 4, 10, 47
6, 23536, Control_c, 4, 10, 46
6, 23542, Control_c, 4, 10, 45
6, 23548, Control_c, 4, 10, 44
6, 23554, Control_c, 4, 10, 43
6, 23561, Control_c, 4, 10, 42
6, 23567, Control_c, 4, 10, 41
6, 23568, Note_on_c, 4, 74, 0
6, 23573, Control_c, 4, 10, 40
6, 23579, Control_c, 4, 10, 39
6, 23585, Control_c, 4, 10, 38
6, 23592, Control_c, 4, 10, 37
6, 23598, Control_c, 4, 10, 36
6, 23604, Control_c, 4, 10, 35
6, 23610, Control_c, 4, 10, 34
6, 23616, Note_on_c, 4, 62, 64
6, 23616, Control_c, 4, 10, 33
6, 23622, Control_c, 4, 10, 32
6, 23628, Control_c, 4, 10, 31
6, 23635, Control_c, 4, 10, 30
6, 23641, Control_c, 4, 10, 29
6, 23647, Control_c, 4, 10, 28
6, 23653, Control_c, 4, 10, 27
6, 23659, Control_c, 4, 10, 26
6, 23664, Note_on_c, 4, 70, 0
6, 23666, Control_c, 4, 10, 25
6, 23672, Control_c, 4, 10, 24
6, 23678, Control_c, 4, 10, 23
6, 23684, Control_c, 4, 10, 22
6, 23690, Control_c, 4, 10, 21
6, 23696, Control_c, 4, 10, 20
6, 23702, Control_c, 4, 10, 19
6, 23709, Control_c, 4, 10, 18
6, 23712, Note_on_c, 4, 58, 64
6, 23715, Control_c, 4, 10, 17
6, 23721, Control_c, 4, 10, 16
6, 23727, Control_c, 4, 10, 15
6, 23733, Control_c, 4, 10, 14
6, 23740, Control_c, 4, 10, 13
6, 23746, Control_c, 4, 10, 12
6, 23752, Control_c, 4, 10, 11
6, 23758, Control_c, 4, 10, 10
6, 23760, Note_on_c, 4, 68, 0
6, 23764, Control_c, 4, 10, 9
6, 23770, Control_c, 4, 10, 8
6, 23776, Control_c, 4, 10, 7
6, 23783, Control_c, 4, 10, 6
6, 23789, Control_c, 4, 10, 5
6, 23795, Control_c, 4, 10, 4
6, 23801, Control_c, 4, 10, 3
6, 23807, Control_c, 4, 10, 2
6, 23814, Control_c, 4, 10, 2
6, 23821, Control_c, 4, 10, 3
6, 23828, Control_c, 4, 10, 3
6, 23835, Control_c, 4, 10, 4
6, 23842, Control_c, 4, 10, 5
6, 23850, Control_c, 4, 10, 6
6, 23857, Control_c, 4, 10, 8
6, 23864, Control_c, 4, 10, 8
6, 23871, Control_c, 4, 10, 9
6, 23878, Control_c, 4, 10, 10
6, 23885, Control_c, 4, 10, 11
6, 23892, Control_c, 4, 10, 13
6, 23899, Control_c, 4, 10, 13
6, 23906, Control_c, 4, 10, 14
6, 23914, Control_c, 4, 10, 15
6, 23921, Control_c, 4, 10, 16
6, 23928, Control_c, 4, 10, 17
6, 23935, Control_c, 4, 10, 18
6, 23942, Control_c, 4, 10, 19
6, 23949, Control_c, 4, 10, 20
6, 23952, Note_on_c, 4, 63, 0
6, 23956, Control_c, 4, 10, 21
6, 23963, Control_c, 4, 10, 22
6, 23970, Control_c, 4, 10, 23
6, 23978, Control_c, 4, 10, 24
6, 23985, Control_c, 4, 10, 25
6, 23992, Control_c, 4, 10, 26
6, 23999, Control_c, 4, 10, 27
6, 24006, Control_c, 4, 10, 28
6, 24013, Control_c, 4, 10, 29
6, 24020, Control_c, 4, 10, 30
6, 24028, Control_c, 4, 10, 31
6, 24034, Control_c, 4, 10, 32
6, 24042, Control_c, 4, 10, 33
6, 24048, Note_on_c, 4, 62, 0
6, 24049, Control_c, 4, 10, 34
6, 24056, Control_c, 4, 10, 35
6, 24063, Control_c, 4, 10, 36
6, 24070, Control_c, 4, 10, 37
6, 24077, Control_c, 4, 10, 38
6, 24084, Control_c, 4, 10, 39
6, 24092, Control_c, 4, 10, 40
6, 24098, Control_c, 4, 10, 41
6, 24106, Control_c, 4, 10, 42
6, 24113, Control_c, 4, 10, 43
6, 24120, Control_c, 4, 10, 44
6, 24127, Control_c, 4, 10, 45
6, 24134, Control_c, 4, 10, 46
6, 24141, Control_c, 4, 10, 47
6, 24148, Control_c, 4, 10, 48
6, 24156, Control_c, 4, 10, 49
6, 24163, Control_c, 4, 10, 50
6, 24170, Control_c, 4, 10, 51
6, 24177, Control_c, 4, 10, 52
6, 24184, Control_c, 4, 10, 53
6, 24189, Note_on_c, 4, 65, 0
6, 24191, Control_c, 4, 10, 54
6, 24192, Note_on_c, 4, 64, 64
6, 24198, Control_c, 4, 10, 55
6, 24205, Control_c, 4, 10, 56
6, 24212, Control_c, 4, 10, 57
6, 24220, Control_c, 4, 10, 58
6, 24227, Control_c, 4, 10, 59
6, 24234, Control_c, 4, 10, 60
6, 24241, Control_c, 4, 10, 61
6, 24248, Control_c, 4, 10, 62
6, 24255, Control_c, 4, 10, 63
6, 24262, Control_c, 4, 10, 64
6, 24269, Control_c, 4, 10, 65
6, 24276, Control_c, 4, 10, 66
6, 24284, Control_c, 4, 10, 67
6, 24291, Control_c, 4, 10, 68
6, 24298, Control_c, 4, 10, 69
6, 24305, Control_c, 4, 10, 70
6, 24312, Control_c, 4, 10, 71
6, 24319, Control_c, 4, 10, 72
6, 24326, Control_c, 4, 10, 73
6, 24333, Control_c, 4, 10, 74
6, 24340, Control_c, 4, 10, 75
6, 24348, Control_c, 4, 10, 76
6, 24355, Control_c, 4, 10, 77
6, 24362, Control_c, 4, 10, 78
6, 24369, Control_c, 4, 10, 79
6, 24376, Control_c, 4, 10, 80
6, 24383, Control_c, 4, 10, 81
6, 24390, Control_c, 4, 10, 82
6, 24398, Control_c, 4, 10, 83
6, 24404, Control_c, 4, 10, 84
6, 24412, Control_c, 4, 10, 85
6, 24419, Control_c, 4, 10, 86
6, 24426, Control_c, 4, 10, 87
6, 24433, Control_c, 4, 10, 88
6, 24440, Control_c, 4, 10, 89
6, 24447, Control_c, 4, 10, 90
6, 24454, Control_c, 4, 10, 91
6, 24462, Control_c, 4, 10, 92
6, 24468, Control_c, 4, 10, 93
6, 24476, Control_c, 4, 10, 94
6, 24483, Control_c, 4, 10, 95
6, 24490, Control_c, 4, 10, 96
6, 24497, Control_c, 4, 10, 97
6, 24504, Control_c, 4, 10, 98
6, 24511, Control_c, 4, 10, 99
6, 24518, Control_c, 4, 10, 100
6, 24526, Control_c, 4, 10, 101
6, 24533, Control_c, 4, 10, 102
6, 24540, Control_c, 4, 10, 103
6, 24547, Control_c, 4, 10, 104
6, 24554, Control_c, 4, 10, 105
6, 24556, Note_on_c, 4, 64, 0
6, 24561, Control_c, 4, 10, 106
6, 24568, Control_c, 4, 10, 107
6, 24575, Control_c, 4, 10, 108
6, 24582, Note_on_c, 4, 63, 64
6, 24582, Control_c, 4, 10, 109
6, 24590, Control_c, 4, 10, 110
6, 24597, Control_c, 4, 10, 111
6, 24604, Control_c, 4, 10, 112
6, 24611, Control_c, 4, 10, 113
6, 24612, Note_on_c, 4, 58, 0
6, 24618, Control_c, 4, 10, 114
6, 24625, Control_c, 4, 10, 115
6, 24632, Control_c, 4, 10, 116
6, 24639, Control_c, 4, 10, 117
6, 24646, Control_c, 4, 10, 118
6, 24654, Control_c, 4, 10, 119
6, 24661, Control_c, 4, 10, 120
6, 24668, Control_c, 4, 10, 121
6, 24675, Control_c, 4, 10, 122
6, 24682, Control_c, 4, 10, 123
6, 24689, Control_c, 4, 10, 124
6, 24696, Control_c, 4, 10, 125
6, 24703, Control_c, 4, 10, 127
6, 24953, Note_on_c, 4, 63, 0
6, 25305, Program_c, 4, 119
6, 25305, Control_c, 4, 7, 72
6, 25351, Control_c, 4, 7, 73
6, 25369, Control_c, 4, 10, 6
6, 25390, Note_on_c, 4, 81, 127
6, 25397, Control_c, 4, 7, 73
6, 25443, Control_c, 4, 7, 74
6, 25489, Control_c, 4, 7, 75
6, 25535, Control_c, 4, 7, 76
6, 25568, Note_on_c, 4, 81, 0
6, 25581, Control_c, 4, 7, 77
6, 25583, Note_on_c, 4, 81, 127
6, 25627, Control_c, 4, 7, 78
6, 25673, Control_c, 4, 7, 79
6, 25719, Control_c, 4, 7, 80
6, 25761, Note_on_c, 4, 81, 0
6, 25765, Control_c, 4, 7, 81
6, 25776, Note_on_c, 4, 81, 127
6, 25811, Control_c, 4, 7, 82
6, 25857, Control_c, 4, 7, 83
6, 25902, Control_c, 4, 7, 84
6, 25948, Control_c, 4, 7, 85
6, 25954, Note_on_c, 4, 81, 0
6, 25966, Note_on_c, 4, 81, 127
6, 25994, Control_c, 4, 7, 86
6, 26040, Control_c, 4, 7, 87
6, 26086, Control_c, 4, 7, 88
6, 26132, Control_c, 4, 7, 89
6, 26145, Note_on_c, 4, 81, 0
6, 26160, Note_on_c, 4, 81, 127
6, 26178, Control_c, 4, 7, 90
6, 26224, Control_c, 4, 7, 91
6, 26270, Control_c, 4, 7, 92
6, 26316, Control_c, 4, 7, 93
6, 26338, Note_on_c, 4, 81, 0
6, 26353, Note_on_c, 4, 81, 127
6, 26362, Control_c, 4, 7, 94
6, 26408, Control_c, 4, 7, 95
6, 26454, Control_c, 4, 7, 96
6, 26500, Control_c, 4, 7, 97
6, 26531, Note_on_c, 4, 81, 0
6, 26543, Note_on_c, 4, 81, 127
6, 26546, Control_c, 4, 7, 98
6, 26592, Control_c, 4, 7, 99
6, 26638, Control_c, 4, 7, 100
6, 26684, Control_c, 4, 7, 101
6, 26722, Note_on_c, 4, 81, 0
6, 26730, Control_c, 4, 7, 102
6, 26736, Note_on_c, 4, 81, 127
6, 26776, Control_c, 4, 7, 103
6, 26822, Control_c, 4, 7, 104
6, 26868, Control_c, 4, 7, 105
6, 26914, Control_c, 4, 7, 106
6, 26915, Note_on_c, 4, 81, 0
6, 26930, Note_on_c, 4, 81, 127
6, 26960, Control_c, 4, 7, 107
6, 27006, Control_c, 4, 7, 108
6, 27052, Control_c, 4, 7, 109
6, 27098, Control_c, 4, 7, 110
6, 27108, Note_on_c, 4, 81, 0
6, 27120, Note_on_c, 4, 81, 127
6, 27144, Control_c, 4, 7, 111
6, 27190, Control_c, 4, 7, 112
6, 27236, Control_c, 4, 7, 113
6, 27282, Control_c, 4, 7, 114
6, 27298, Note_on_c, 4, 81, 0
6, 27313, Note_on_c, 4, 81, 127
6, 27327, Control_c, 4, 7, 116
6, 27492, Note_on_c, 4, 81, 0
6, 27506, Note_on_c, 4, 81, 127
6, 27685, Note_on_c, 4, 81, 0
6, 27697, Note_on_c, 4, 81, 127
6, 27875, Note_on_c, 4, 81, 0
6, 27890, Note_on_c, 4, 81, 127
6, 28032, Note_on_c, 4, 57, 80
6, 28068, Note_on_c, 4, 81, 0
6, 28083, Note_on_c, 4, 81, 127
6, 28083, Note_on_c, 4, 79, 112
6, 28262, Note_on_c, 4, 79, 0
6, 28262, Note_on_c, 4, 81, 0
6, 28274, Note_on_c, 4, 81, 127
6, 28274, Note_on_c, 4, 79, 112
6, 28452, Note_on_c, 4, 79, 0
6, 28452, Note_on_c, 4, 81, 0
6, 28467, Note_on_c, 4, 81, 127
6, 28467, Note_on_c, 4, 79, 112
6, 28632, Note_on_c, 4, 57, 0
6, 28645, Note_on_c, 4, 79, 0
6, 28645, Note_on_c, 4, 81, 0
6, 28660, Note_on_c, 4, 81, 127
6, 28660, Note_on_c, 4, 79, 112
6, 28838, Note_on_c, 4, 79, 0
6, 28838, Note_on_c, 4, 81, 0
6, 28850, Note_on_c, 4, 81, 127
6, 28850, Note_on_c, 4, 79, 112
6, 29029, Note_on_c, 4, 79, 0
6, 29029, Note_on_c, 4, 81, 0
6, 29044, Note_on_c, 4, 81, 127
6, 29044, Note_on_c, 4, 79, 112
6, 29222, Note_on_c, 4, 79, 0
6, 29222, Note_on_c, 4, 81, 0
6, 29233, Note_on_c, 4, 81, 127
6, 29233, Note_on_c, 4, 79, 112
6, 29411, Note_on_c, 4, 79, 0
6, 29411, Note_on_c, 4, 81, 0
6, 29426, Note_on_c, 4, 81, 127
6, 29426, Note_on_c, 4, 79, 112
6, 29600, Note_on_c, 4, 57, 80
6, 29604, Note_on_c, 4, 79, 0
6, 29604, Note_on_c, 4, 81, 0
6, 29619, Note_on_c, 4, 81, 127
6, 29619, Note_on_c, 4, 79, 112
6, 29798, Note_on_c, 4, 79, 0
6, 29798, Note_on_c, 4, 81, 0
6, 29810, Note_on_c, 4, 81, 127
6, 29810, Note_on_c, 4, 79, 112
6, 29980, Note_on_c, 4, 57, 0
6, 29988, Note_on_c, 4, 79, 0
6, 29988, Note_on_c, 4, 81, 0
6, 30704, Control_c, 4, 7, 102
6, 31059, Control_c, 4, 10, 64
6, 31064, Control_c, 4, 10, 63
6, 31070, Control_c, 4, 10, 62
6, 31076, Control_c, 4, 10, 61
6, 31082, Control_c, 4, 10, 60
6, 31087, Control_c, 4, 10, 59
6, 31093, Control_c, 4, 10, 58
6, 31098, Control_c, 4, 10, 57
6, 31104, Note_on_c, 4, 68, 100
6, 31104, Control_c, 4, 10, 56
6, 31110, Control_c, 4, 10, 55
6, 31116, Control_c, 4, 10, 54
6, 31121, Control_c, 4, 10, 53
6, 31127, Control_c, 4, 10, 52
6, 31133, Control_c, 4, 10, 51
6, 31138, Control_c, 4, 10, 50
6, 31144, Control_c, 4, 10, 49
6, 31150, Control_c, 4, 10, 48
6, 31156, Control_c, 4, 10, 47
6, 31161, Control_c, 4, 10, 46
6, 31167, Control_c, 4, 10, 45
6, 31173, Control_c, 4, 10, 44
6, 31178, Control_c, 4, 10, 43
6, 31184, Control_c, 4, 10, 42
6, 31190, Control_c, 4, 10, 41
6, 31196, Control_c, 4, 10, 40
6, 31201, Control_c, 4, 10, 39
6, 31207, Control_c, 4, 10, 38
6, 31212, Control_c, 4, 10, 37
6, 31218, Control_c, 4, 10, 36
6, 31224, Control_c, 4, 10, 35
6, 31230, Control_c, 4, 10, 34
6, 31235, Control_c, 4, 10, 33
6, 31241, Control_c, 4, 10, 32
6, 31247, Control_c, 4, 10, 31
6, 31252, Control_c, 4, 10, 30
6, 31258, Control_c, 4, 10, 29
6, 31264, Control_c, 4, 10, 28
6, 31270, Control_c, 4, 10, 27
6, 31275, Control_c, 4, 10, 26
6, 31281, Control_c, 4, 10, 25
6, 31287, Control_c, 4, 10, 24
6, 31292, Control_c, 4, 10, 23
6, 31298, Control_c, 4, 10, 22
6, 31304, Control_c, 4, 10, 21
6, 31310, Control_c, 4, 10, 20
6, 31315, Control_c, 4, 10, 19
6, 31321, Control_c, 4, 10, 18
6, 31326, Control_c, 4, 10, 17
6, 31332, Control_c, 4, 10, 16
6, 31338, Control_c, 4, 10, 15
6, 31344, Control_c, 4, 10, 14
6, 31349, Control_c, 4, 10, 13
6, 31355, Control_c, 4, 10, 12
6, 31361, Control_c, 4, 10, 11
6, 31366, Control_c, 4, 10, 10
6, 31372, Control_c, 4, 10, 9
6, 31378, Control_c, 4, 10, 8
6, 31384, Control_c, 4, 10, 7
6, 31389, Control_c, 4, 10, 6
6, 31395, Control_c, 4, 10, 5
6, 31401, Control_c, 4, 10, 4
6, 31406, Control_c, 4, 10, 3
6, 31412, Control_c, 4, 10, 2
6, 31418, Control_c, 4, 10, 1
6, 31423, Control_c, 4, 10, 0
6, 31506, Note_on_c, 4, 68, 0
6, 31538, Control_c, 4, 10, 2
6, 31603, Control_c, 4, 10, 64
6, 36576, Program_c, 4, 104
6, 36825, Control_c, 4, 10, 127
6, 36832, Control_c, 4, 10, 126
6, 36838, Control_c, 4, 10, 124
6, 36845, Control_c, 4, 10, 124
6, 36852, Control_c, 4, 10, 122
6, 36858, Control_c, 4, 10, 122
6, 36864, Note_on_c, 4, 75, 64
6, 36865, Control_c, 4, 10, 120
6, 36871, Control_c, 4, 10, 120
6, 36878, Control_c, 4, 10, 119
6, 36884, Control_c, 4, 10, 118
6, 36891, Control_c, 4, 10, 117
6, 36898, Control_c, 4, 10, 115
6, 36904, Control_c, 4, 10, 115
6, 36911, Control_c, 4, 10, 113
6, 36917, Control_c, 4, 10, 113
6, 36924, Control_c, 4, 10, 111
6, 36930, Control_c, 4, 10, 111
6, 36937, Control_c, 4, 10, 110
6, 36944, Control_c, 4, 10, 109
6, 36950, Control_c, 4, 10, 108
6, 36957, Control_c, 4, 10, 106
6, 36960, Note_on_c, 4, 74, 64
6, 36963, Control_c, 4, 10, 106
6, 36970, Control_c, 4, 10, 104
6, 36976, Control_c, 4, 10, 104
6, 36983, Control_c, 4, 10, 103
6, 36990, Control_c, 4, 10, 102
6, 36996, Control_c, 4, 10, 101
6, 37003, Control_c, 4, 10, 100
6, 37009, Control_c, 4, 10, 99
6, 37016, Control_c, 4, 10, 98
6, 37022, Control_c, 4, 10, 97
6, 37029, Control_c, 4, 10, 95
6, 37036, Control_c, 4, 10, 95
6, 37042, Control_c, 4, 10, 94
6, 37049, Control_c, 4, 10, 93
6, 37055, Control_c, 4, 10, 92
6, 37056, Note_on_c, 4, 70, 64
6, 37062, Control_c, 4, 10, 91
6, 37068, Control_c, 4, 10, 90
6, 37075, Control_c, 4, 10, 89
6, 37082, Control_c, 4, 10, 88
6, 37088, Control_c, 4, 10, 87
6, 37095, Control_c, 4, 10, 86
6, 37101, Control_c, 4, 10, 85
6, 37108, Control_c, 4, 10, 84
6, 37114, Control_c, 4, 10, 83
6, 37121, Control_c, 4, 10, 82
6, 37128, Control_c, 4, 10, 81
6, 37134, Control_c, 4, 10, 80
6, 37141, Control_c, 4, 10, 79
6, 37147, Control_c, 4, 10, 78
6, 37152, Note_on_c, 4, 68, 64
6, 37154, Control_c, 4, 10, 77
6, 37160, Control_c, 4, 10, 76
6, 37167, Control_c, 4, 10, 75
6, 37174, Control_c, 4, 10, 74
6, 37180, Control_c, 4, 10, 73
6, 37187, Control_c, 4, 10, 72
6, 37193, Control_c, 4, 10, 71
6, 37200, Control_c, 4, 10, 70
6, 37206, Control_c, 4, 10, 69
6, 37213, Control_c, 4, 10, 68
6, 37220, Control_c, 4, 10, 67
6, 37226, Control_c, 4, 10, 66
6, 37233, Control_c, 4, 10, 65
6, 37240, Control_c, 4, 10, 64
6, 37246, Control_c, 4, 10, 63
6, 37248, Note_on_c, 4, 65, 64
6, 37252, Control_c, 4, 10, 62
6, 37259, Control_c, 4, 10, 61
6, 37266, Control_c, 4, 10, 60
6, 37272, Control_c, 4, 10, 59
6, 37279, Control_c, 4, 10, 58
6, 37286, Control_c, 4, 10, 57
6, 37292, Control_c, 4, 10, 56
6, 37296, Note_on_c, 4, 75, 0
6, 37298, Control_c, 4, 10, 55
6, 37305, Control_c, 4, 10, 54
6, 37312, Control_c, 4, 10, 53
6, 37318, Control_c, 4, 10, 52
6, 37325, Control_c, 4, 10, 51
6, 37332, Control_c, 4, 10, 50
6, 37338, Control_c, 4, 10, 49
6, 37344, Note_on_c, 4, 63, 64
6, 37345, Control_c, 4, 10, 48
6, 37351, Control_c, 4, 10, 47
6, 37358, Control_c, 4, 10, 46
6, 37364, Control_c, 4, 10, 45
6, 37371, Control_c, 4, 10, 44
6, 37378, Control_c, 4, 10, 43
6, 37384, Control_c, 4, 10, 42
6, 37391, Control_c, 4, 10, 41
6, 37392, Note_on_c, 4, 74, 0
6, 37397, Control_c, 4, 10, 40
6, 37404, Control_c, 4, 10, 39
6, 37410, Control_c, 4, 10, 38
6, 37417, Control_c, 4, 10, 37
6, 37424, Control_c, 4, 10, 36
6, 37430, Control_c, 4, 10, 35
6, 37437, Control_c, 4, 10, 34
6, 37440, Note_on_c, 4, 62, 64
6, 37443, Control_c, 4, 10, 33
6, 37450, Control_c, 4, 10, 32
6, 37456, Control_c, 4, 10, 31
6, 37463, Control_c, 4, 10, 30
6, 37470, Control_c, 4, 10, 29
6, 37476, Control_c, 4, 10, 28
6, 37483, Control_c, 4, 10, 27
6, 37488, Note_on_c, 4, 70, 0
6, 37489, Control_c, 4, 10, 26
6, 37496, Control_c, 4, 10, 25
6, 37502, Control_c, 4, 10, 24
6, 37509, Control_c, 4, 10, 23
6, 37516, Control_c, 4, 10, 22
6, 37522, Control_c, 4, 10, 21
6, 37529, Control_c, 4, 10, 20
6, 37535, Control_c, 4, 10, 19
6, 37536, Note_on_c, 4, 58, 64
6, 37542, Control_c, 4, 10, 18
6, 37548, Control_c, 4, 10, 17
6, 37555, Control_c, 4, 10, 16
6, 37562, Control_c, 4, 10, 15
6, 37568, Control_c, 4, 10, 14
6, 37575, Control_c, 4, 10, 13
6, 37581, Control_c, 4, 10, 12
6, 37584, Note_on_c, 4, 68, 0
6, 37588, Control_c, 4, 10, 11
6, 37594, Control_c, 4, 10, 10
6, 37601, Control_c, 4, 10, 9
6, 37608, Control_c, 4, 10, 8
6, 37614, Control_c, 4, 10, 7
6, 37621, Control_c, 4, 10, 6
6, 37627, Control_c, 4, 10, 5
6, 37634, Control_c, 4, 10, 4
6, 37640, Control_c, 4, 10, 3
6, 37647, Control_c, 4, 10, 2
6, 37654, Control_c, 4, 10, 1
6, 37660, Control_c, 4, 10, 0
6, 37680, Note_on_c, 4, 65, 0
6, 37760, Control_c, 4, 7, 102
6, 37776, Note_on_c, 4, 63, 0
6, 37777, Control_c, 4, 7, 101
6, 37794, Control_c, 4, 7, 100
6, 37810, Control_c, 4, 7, 99
6, 37827, Control_c, 4, 7, 98
6, 37844, Control_c, 4, 7, 97
6, 37860, Control_c, 4, 7, 96
6, 37872, Note_on_c, 4, 62, 0
6, 37877, Control_c, 4, 7, 95
6, 37894, Control_c, 4, 7, 94
6, 37910, Control_c, 4, 7, 93
6, 37927, Control_c, 4, 7, 92
6, 37944, Control_c, 4, 7, 91
6, 37960, Control_c, 4, 7, 90
6, 37977, Control_c, 4, 7, 89
6, 37994, Control_c, 4, 7, 88
6, 38010, Control_c, 4, 7, 87
6, 38027, Control_c, 4, 7, 86
6, 38044, Control_c, 4, 7, 85
6, 38060, Control_c, 4, 7, 84
6, 38077, Control_c, 4, 7, 83
6, 38094, Control_c, 4, 7, 82
6, 38110, Control_c, 4, 7, 81
6, 38127, Control_c, 4, 7, 80
6, 38144, Control_c, 4, 7, 79
6, 38160, Control_c, 4, 7, 78
6, 38177, Control_c, 4, 7, 77
6, 38194, Control_c, 4, 7, 76
6, 38210, Control_c, 4, 7, 75
6, 38227, Control_c, 4, 7, 74
6, 38244, Control_c, 4, 7, 73
6, 38260, Control_c, 4, 7, 72
6, 38277, Control_c, 4, 7, 71
6, 38294, Control_c, 4, 7, 70
6, 38310, Control_c, 4, 7, 69
6, 38327, Control_c, 4, 7, 68
6, 38344, Control_c, 4, 7, 67
6, 38360, Control_c, 4, 7, 66
6, 38377, Control_c, 4, 7, 65
6, 38394, Control_c, 4, 7, 64
6, 38410, Control_c, 4, 7, 63
6, 38416, Note_on_c, 4, 58, 0
6, 38427, Control_c, 4, 7, 62
6, 38444, Control_c, 4, 7, 61
6, 38460, Control_c, 4, 7, 60
6, 38477, Control_c, 4, 7, 59
6, 38494, Control_c, 4, 7, 58
6, 39126, Program_c, 4, 119
6, 39126, Control_c, 4, 7, 72
6, 39172, Control_c, 4, 7, 73
6, 39190, Control_c, 4, 10, 6
6, 39210, Note_on_c, 4, 81, 127
6, 39218, Control_c, 4, 7, 73
6, 39264, Control_c, 4, 7, 74
6, 39310, Control_c, 4, 7, 75
6, 39356, Control_c, 4, 7, 76
6, 39389, Note_on_c, 4, 81, 0
6, 39402, Control_c, 4, 7, 77
6, 39404, Note_on_c, 4, 81, 127
6, 39448, Control_c, 4, 7, 78
6, 39494, Control_c, 4, 7, 79
6, 39540, Control_c, 4, 7, 80
6, 39582, Note_on_c, 4, 81, 0
6, 39586, Control_c, 4, 7, 81
6, 39597, Note_on_c, 4, 81, 127
6, 39632, Control_c, 4, 7, 82
6, 39678, Control_c, 4, 7, 83
6, 39723, Control_c, 4, 7, 84
6, 39769, Control_c, 4, 7, 85
6, 39775, Note_on_c, 4, 81, 0
6, 39787, Note_on_c, 4, 81, 127
6, 39815, Control_c, 4, 7, 86
6, 39861, Control_c, 4, 7, 87
6, 39907, Control_c, 4, 7, 88
6, 39953, Control_c, 4, 7, 89
6, 39966, Note_on_c, 4, 81, 0
6, 39980, Note_on_c, 4, 81, 127
6, 39999, Control_c, 4, 7, 90
6, 40045, Control_c, 4, 7, 91
6, 40091, Control_c, 4, 7, 92
6, 40137, Control_c, 4, 7, 93
6, 40159, Note_on_c, 4, 81, 0
6, 40174, Note_on_c, 4, 81, 127
6, 40183, Control_c, 4, 7, 94
6, 40229, Control_c, 4, 7, 95
6, 40275, Control_c, 4, 7, 96
6, 40321, Control_c, 4, 7, 97
6, 40352, Note_on_c, 4, 81, 0
6, 40364, Note_on_c, 4, 81, 127
6, 40367, Control_c, 4, 7, 98
6, 40413, Control_c, 4, 7, 99
6, 40459, Control_c, 4, 7, 100
6, 40505, Control_c, 4, 7, 101
6, 40542, Note_on_c, 4, 81, 0
6, 40551, Control_c, 4, 7, 102
6, 40557, Note_on_c, 4, 81, 127
6, 40597, Control_c, 4, 7, 103
6, 40643, Control_c, 4, 7, 104
6, 40688, Control_c, 4, 7, 105
6, 40734, Control_c, 4, 7, 106
6, 40736, Note_on_c, 4, 81, 0
6, 40750, Note_on_c, 4, 81, 127
6, 40780, Control_c, 4, 7, 107
6, 40826, Control_c, 4, 7, 108
6, 40872, Control_c, 4, 7, 109
6, 40918, Control_c, 4, 7, 110
6, 40929, Note_on_c, 4, 81, 0
6, 40941, Note_on_c, 4, 81, 127
6, 40964, Control_c, 4, 7, 111
6, 41010, Control_c, 4, 7, 112
6, 41056, Control_c, 4, 7, 113
6, 41102, Control_c, 4, 7, 114
6, 41119, Note_on_c, 4, 81, 0
6, 41134, Note_on_c, 4, 81, 127
6, 41148, Control_c, 4, 7, 116
6, 41312, Note_on_c, 4, 81, 0
6, 41327, Note_on_c, 4, 81, 127
6, 41506, Note_on_c, 4, 81, 0
6, 41518, Note_on_c, 4, 81, 127
6, 41696, Note_on_c, 4, 81, 0
6, 41711, Note_on_c, 4, 81, 127
6, 41852, Note_on_c, 4, 57, 80
6, 41889, Note_on_c, 4, 81, 0
6, 41904, Note_on_c, 4, 81, 127
6, 41904, Note_on_c, 4, 79, 112
6, 42082, Note_on_c, 4, 79, 0
6, 42082, Note_on_c, 4, 81, 0
6, 42094, Note_on_c, 4, 81, 127
6, 42094, Note_on_c, 4, 79, 112
6, 42273, Note_on_c, 4, 79, 0
6, 42273, Note_on_c, 4, 81, 0
6, 42288, Note_on_c, 4, 81, 127
6, 42288, Note_on_c, 4, 79, 112
6, 42453, Note_on_c, 4, 57, 0
6, 42466, Note_on_c, 4, 79, 0
6, 42466, Note_on_c, 4, 81, 0
6, 42481, Note_on_c, 4, 81, 127
6, 42481, Note_on_c, 4, 79, 112
6, 42659, Note_on_c, 4, 79, 0
6, 42659, Note_on_c, 4, 81, 0
6, 42671, Note_on_c, 4, 81, 127
6, 42671, Note_on_c, 4, 79, 112
6, 42850, Note_on_c, 4, 79, 0
6, 42850, Note_on_c, 4, 81, 0
6, 42864, Note_on_c, 4, 81, 127
6, 42864, Note_on_c, 4, 79, 112
6, 43043, Note_on_c, 4, 79, 0
6, 43043, Note_on_c, 4, 81, 0
6, 43054, Note_on_c, 4, 81, 127
6, 43054, Note_on_c, 4, 79, 112
6, 43232, Note_on_c, 4, 79, 0
6, 43232, Note_on_c, 4, 81, 0
6, 43247, Note_on_c, 4, 81, 127
6, 43247, Note_on_c, 4, 79, 112
6, 43420, Note_on_c, 4, 57, 80
6, 43425, Note_on_c, 4, 79, 0
6, 43425, Note_on_c, 4, 81, 0
6, 43440, Note_on_c, 4, 81, 127
6, 43440, Note_on_c, 4, 79, 112
6, 43618, Note_on_c, 4, 79, 0
6, 43618, Note_on_c, 4, 81, 0
6, 43630, Note_on_c, 4, 81, 127
6, 43630, Note_on_c, 4, 79, 112
6, 43800, Note_on_c, 4, 57, 0
6, 43809, Note_on_c, 4, 79, 0
6, 43809, Note_on_c, 4, 81, 0
6, 44866, Control_c, 4, 10, 124
6, 44867, Control_c, 4, 10, 64
6, 44873, Control_c, 4, 10, 63
6, 44880, Control_c, 4, 10, 62
6, 44886, Control_c, 4, 10, 61
6, 44892, Control_c, 4, 10, 60
6, 44899, Control_c, 4, 10, 59
6, 44906, Control_c, 4, 10, 58
6, 44912, Control_c, 4, 10, 57
6, 44918, Control_c, 4, 10, 56
6, 44925, Control_c, 4, 10, 55
6, 44928, Note_on_c, 4, 68, 100
6, 44931, Control_c, 4, 10, 54
6, 44938, Control_c, 4, 10, 53
6, 44944, Control_c, 4, 10, 52
6, 44951, Control_c, 4, 10, 51
6, 44957, Control_c, 4, 10, 50
6, 44964, Control_c, 4, 10, 49
6, 44970, Control_c, 4, 10, 48
6, 44977, Control_c, 4, 10, 47
6, 44983, Control_c, 4, 10, 46
6, 44990, Control_c, 4, 10, 45
6, 44996, Control_c, 4, 10, 44
6, 45002, Control_c, 4, 10, 43
6, 45009, Control_c, 4, 10, 42
6, 45016, Control_c, 4, 10, 41
6, 45022, Control_c, 4, 10, 40
6, 45028, Control_c, 4, 10, 39
6, 45035, Control_c, 4, 10, 38
6, 45042, Control_c, 4, 10, 37
6, 45048, Control_c, 4, 10, 36
6, 45054, Control_c, 4, 10, 35
6, 45061, Control_c, 4, 10, 34
6, 45067, Control_c, 4, 10, 33
6, 45074, Control_c, 4, 10, 32
6, 45080, Control_c, 4, 10, 31
6, 45087, Control_c, 4, 10, 30
6, 45093, Control_c, 4, 10, 29
6, 45100, Control_c, 4, 10, 28
6, 45106, Control_c, 4, 10, 27
6, 45113, Control_c, 4, 10, 26
6, 45119, Control_c, 4, 10, 25
6, 45126, Control_c, 4, 10, 24
6, 45132, Control_c, 4, 10, 23
6, 45138, Control_c, 4, 10, 22
6, 45145, Control_c, 4, 10, 21
6, 45152, Control_c, 4, 10, 20
6, 45158, Control_c, 4, 10, 19
6, 45164, Control_c, 4, 10, 18
6, 45171, Control_c, 4, 10, 17
6, 45178, Control_c, 4, 10, 16
6, 45184, Control_c, 4, 10, 15
6, 45190, Control_c, 4, 10, 14
6, 45197, Control_c, 4, 10, 13
6, 45203, Control_c, 4, 10, 12
6, 45208, Note_on_c, 4, 75, 78
6, 45210, Control_c, 4, 10, 11
6, 45216, Control_c, 4, 10, 10
6, 45223, Control_c, 4, 10, 9
6, 45229, Control_c, 4, 10, 8
6, 45236, Control_c, 4, 10, 7
6, 45242, Control_c, 4, 10, 6
6, 45249, Control_c, 4, 10, 5
6, 45255, Control_c, 4, 10, 4
6, 45262, Control_c, 4, 10, 3
6, 45268, Control_c, 4, 10, 2
6, 45274, Control_c, 4, 10, 1
6, 45281, Control_c, 4, 10, 0
6, 45301, Control_c, 4, 10, 2
6, 45330, Note_on_c, 4, 68, 0
6, 45505, Control_c, 4, 10, 2
6, 45511, Note_on_c, 4, 75, 0
6, 45592, Note_on_c, 4, 75, 81
6, 45895, Note_on_c, 4, 75, 0
6, 45976, Note_on_c, 4, 75, 84
6, 46279, Note_on_c, 4, 75, 0
6, 46360, Note_on_c, 4, 75, 87
6, 46663, Note_on_c, 4, 75, 0
6, 46744, Note_on_c, 4, 75, 91
6, 47047, Note_on_c, 4, 75, 0
6, 47128, Note_on_c, 4, 75, 94
6, 47431, Note_on_c, 4, 75, 0
6, 47512, Note_on_c, 4, 75, 97
6, 47815, Note_on_c, 4, 75, 0
6, 48046, Note_on_c, 4, 75, 118
6, 48224, Note_on_c, 4, 75, 0
6, 48236, Note_on_c, 4, 75, 118
6, 48414, Note_on_c, 4, 75, 0
6, 48434, Note_on_c, 4, 75, 119
6, 48613, Note_on_c, 4, 75, 0
6, 48628, Note_on_c, 4, 75, 120
6, 48806, Note_on_c, 4, 75, 0
6, 48821, Note_on_c, 4, 75, 121
6, 48999, Note_on_c, 4, 75, 0
6, 49011, Note_on_c, 4, 75, 121
6, 49190, Note_on_c, 4, 75, 0
6, 49202, Note_on_c, 4, 75, 122
6, 49380, Note_on_c, 4, 75, 0
6, 49392, Note_on_c, 4, 75, 123
6, 49570, Note_on_c, 4, 75, 0
6, 49586, Note_on_c, 4, 75, 123
6, 49765, Note_on_c, 4, 75, 0
6, 51462, Note_on_c, 4, 75, 56
6, 51640, Note_on_c, 4, 75, 0
6, 51655, Note_on_c, 4, 75, 77
6, 51834, Note_on_c, 4, 75, 0
6, 51836, Note_on_c, 4, 75, 88
6, 52015, Note_on_c, 4, 75, 0
6, 52030, Note_on_c, 4, 75, 100
6, 52208, Note_on_c, 4, 75, 0
6, 52240, Note_on_c, 4, 75, 112
6, 52418, Note_on_c, 4, 75, 0
6, 52433, Note_on_c, 4, 75, 127
6, 52611, Note_on_c, 4, 75, 0
6, 52614, Note_on_c, 4, 75, 127
6, 52792, Note_on_c, 4, 75, 0
6, 52807, Note_on_c, 4, 75, 127
6, 52986, Note_on_c, 4, 75, 0
6, 53000, Note_on_c, 4, 75, 117
6, 53179, Note_on_c, 4, 75, 0
6, 53188, Note_on_c, 4, 75, 101
6, 53366, Note_on_c, 4, 75, 0
6, 54034, Note_on_c, 4, 75, 50
6, 54337, Note_on_c, 4, 75, 0
6, 54418, Note_on_c, 4, 75, 50
6, 54721, Note_on_c, 4, 75, 0
6, 54811, Note_on_c, 4, 75, 50
6, 55114, Note_on_c, 4, 75, 0
6, 55195, Note_on_c, 4, 75, 50
6, 55498, Note_on_c, 4, 75, 0
6, 55570, Note_on_c, 4, 75, 50
6, 55873, Note_on_c, 4, 75, 0
6, 55954, Note_on_c, 4, 75, 50
6, 56257, Note_on_c, 4, 75, 0
6, 56338, Note_on_c, 4, 75, 50
6, 56641, Note_on_c, 4, 75, 0
6, 56722, Note_on_c, 4, 75, 50
6, 57025, Note_on_c, 4, 75, 0
6, 57490, Note_on_c, 4, 75, 50
6, 57793, Note_on_c, 4, 75, 0
6, 58540, Control_c, 4, 10, 64
6, 58540, Program_c, 4, 104
6, 58848, Note_on_c, 4, 63, 72
6, 59024, Note_on_c, 4, 63, 0
6, 59040, Note_on_c, 4, 65, 72
6, 59216, Note_on_c, 4, 65, 0
6, 59232, Note_on_c, 4, 70, 72
6, 59408, Note_on_c, 4, 70, 0
6, 59424, Note_on_c, 4, 68, 72
6, 59972, Note_on_c, 4, 68, 0
6, 60000, Note_on_c, 4, 68, 72
6, 60096, Note_on_c, 4, 68, 0
6, 60096, Note_on_c, 4, 65, 72
6, 60288, Note_on_c, 4, 74, 72
6, 60528, Note_on_c, 4, 65, 0
6, 60576, Note_on_c, 4, 74, 0
6, 60576, Note_on_c, 4, 70, 72
6, 60752, Note_on_c, 4, 70, 0
6, 60768, Note_on_c, 4, 68, 72
6, 60944, Note_on_c, 4, 68, 0
6, 60960, Note_on_c, 4, 65, 72
6, 61136, Note_on_c, 4, 65, 0
6, 61152, Note_on_c, 4, 75, 72
6, 61328, Note_on_c, 4, 75, 0
6, 61344, Note_on_c, 4, 74, 72
6, 61437, Control_c, 4, 7, 116
6, 61454, Control_c, 4, 7, 115
6, 61471, Control_c, 4, 7, 114
6, 61488, Control_c, 4, 7, 113
6, 61505, Control_c, 4, 7, 112
6, 61520, Note_on_c, 4, 74, 0
6, 61522, Control_c, 4, 7, 111
6, 61536, Note_on_c, 4, 74, 72
6, 61538, Control_c, 4, 7, 110
6, 61555, Control_c, 4, 7, 109
6, 61572, Control_c, 4, 7, 108
6, 61589, Control_c, 4, 7, 107
6, 61606, Control_c, 4, 7, 106
6, 61623, Control_c, 4, 7, 105
6, 61640, Control_c, 4, 7, 104
6, 61657, Control_c, 4, 7, 103
6, 61674, Control_c, 4, 7, 102
6, 61690, Control_c, 4, 7, 101
6, 61707, Control_c, 4, 7, 100
6, 61712, Note_on_c, 4, 74, 0
6, 61724, Control_c, 4, 7, 99
6, 61728, Note_on_c, 4, 68, 72
6, 61741, Control_c, 4, 7, 98
6, 61758, Control_c, 4, 7, 97
6, 61775, Control_c, 4, 7, 96
6, 61792, Control_c, 4, 7, 95
6, 61809, Control_c, 4, 7, 94
6, 61826, Control_c, 4, 7, 93
6, 61842, Control_c, 4, 7, 92
6, 61860, Control_c, 4, 7, 91
6, 61876, Control_c, 4, 7, 90
6, 61893, Control_c, 4, 7, 89
6, 61904, Note_on_c, 4, 68, 0
6, 61910, Control_c, 4, 7, 88
6, 61920, Note_on_c, 4, 65, 72
6, 61927, Control_c, 4, 7, 87
6, 61944, Control_c, 4, 7, 86
6, 61961, Control_c, 4, 7, 85
6, 61978, Control_c, 4, 7, 84
6, 61994, Control_c, 4, 7, 83
6, 62012, Control_c, 4, 7, 82
6, 62028, Control_c, 4, 7, 81
6, 62045, Control_c, 4, 7, 80
6, 62062, Control_c, 4, 7, 79
6, 62079, Control_c, 4, 7, 78
6, 62096, Note_on_c, 4, 65, 0
6, 62096, Control_c, 4, 7, 77
6, 62112, Note_on_c, 4, 77, 72
6, 62113, Control_c, 4, 7, 76
6, 62130, Control_c, 4, 7, 75
6, 62146, Control_c, 4, 7, 74
6, 62164, Control_c, 4, 7, 73
6, 62180, Control_c, 4, 7, 72
6, 62197, Control_c, 4, 7, 71
6, 62214, Control_c, 4, 7, 70
6, 62231, Control_c, 4, 7, 69
6, 62248, Control_c, 4, 7, 68
6, 62265, Control_c, 4, 7, 67
6, 62282, Control_c, 4, 7, 66
6, 62288, Note_on_c, 4, 77, 0
6, 62299, Control_c, 4, 7, 65
6, 62304, Note_on_c, 4, 75, 72
6, 62316, Control_c, 4, 7, 64
6, 62332, Control_c, 4, 7, 63
6, 62349, Control_c, 4, 7, 62
6, 62366, Control_c, 4, 7, 61
6, 62383, Control_c, 4, 7, 60
6, 62400, Control_c, 4, 7, 59
6, 62417, Control_c, 4, 7, 58
6, 62434, Control_c, 4, 7, 57
6, 62451, Control_c, 4, 7, 56
6, 62468, Control_c, 4, 7, 55
6, 62480, Note_on_c, 4, 75, 0
6, 62484, Control_c, 4, 7, 54
6, 62496, Note_on_c, 4, 74, 72
6, 62501, Control_c, 4, 7, 53
6, 62518, Control_c, 4, 7, 52
6, 62535, Control_c, 4, 7, 51
6, 62552, Control_c, 4, 7, 50
6, 62569, Control_c, 4, 7, 49
6, 62586, Control_c, 4, 7, 48
6, 62603, Control_c, 4, 7, 47
6, 62620, Control_c, 4, 7, 46
6, 62636, Control_c, 4, 7, 45
6, 62653, Control_c, 4, 7, 44
6, 62670, Control_c, 4, 7, 43
6, 62687, Control_c, 4, 7, 42
6, 62704, Control_c, 4, 7, 41
6, 62721, Control_c, 4, 7, 40
6, 62738, Control_c, 4, 7, 39
6, 62755, Control_c, 4, 7, 38
6, 62772, Control_c, 4, 7, 37
6, 62788, Control_c, 4, 7, 36
6, 62805, Control_c, 4, 7, 35
6, 62822, Control_c, 4, 7, 34
6, 62839, Control_c, 4, 7, 33
6, 62856, Control_c, 4, 7, 32
6, 62873, Control_c, 4, 7, 31
6, 62880, Note_on_c, 4, 70, 72
6, 62881, Note_on_c, 4, 74, 0
6, 62890, Control_c, 4, 7, 30
6, 62907, Control_c, 4, 7, 29
6, 62924, Control_c, 4, 7, 28
6, 62940, Control_c, 4, 7, 27
6, 62958, Control_c, 4, 7, 26
6, 62974, Control_c, 4, 7, 25
6, 62991, Control_c, 4, 7, 24
6, 63008, Control_c, 4, 7, 23
6, 63025, Control_c, 4, 7, 22
6, 63042, Control_c, 4, 7, 21
6, 63056, Note_on_c, 4, 70, 0
6, 63059, Control_c, 4, 7, 20
6, 63072, Note_on_c, 4, 68, 72
6, 63076, Control_c, 4, 7, 19
6, 63092, Control_c, 4, 7, 18
6, 63110, Control_c, 4, 7, 17
6, 63126, Control_c, 4, 7, 16
6, 63143, Control_c, 4, 7, 15
6, 63160, Control_c, 4, 7, 14
6, 63177, Control_c, 4, 7, 13
6, 63194, Control_c, 4, 7, 12
6, 63211, Control_c, 4, 7, 11
6, 63228, Control_c, 4, 7, 10
6, 63244, Control_c, 4, 7, 9
6, 63248, Note_on_c, 4, 68, 0
6, 63262, Control_c, 4, 7, 8
6, 63278, Control_c, 4, 7, 7
6, 63295, Control_c, 4, 7, 6
6, 63312, Control_c, 4, 7, 5
6, 63329, Control_c, 4, 7, 4
6, 63346, Control_c, 4, 7, 3
6, 63363, Control_c, 4, 7, 2
6, 63380, Control_c, 4, 7, 1
6, 63396, Control_c, 4, 7, 0
6, 63396, End_track
7, 0, Start_track
7, 0, MIDI_port, 0
7, 0, Title_t, "Tromb/Pian"
7, 0, Program_c, 5, 57
7, 0, Control_c, 5, 7, 80
7, 0, Control_c, 5, 10, 64
7, 0, Control_c, 5, 93, 6
7, 0, Control_c, 5, 91, 44
7, 14028, Control_c, 5, 10, 64
7, 14028, Control_c, 5, 10, 127
7, 20736, Note_on_c, 5, 67, 100
7, 20736, Note_on_c, 5, 63, 100
7, 21024, Note_on_c, 5, 69, 100
7, 21024, Note_on_c, 5, 65, 100
7, 21032, Note_on_c, 5, 63, 0
7, 21032, Note_on_c, 5, 67, 0
7, 21120, Note_on_c, 5, 69, 0
7, 21120, Note_on_c, 5, 65, 0
7, 21120, Note_on_c, 5, 71, 100
7, 21120, Note_on_c, 5, 67, 100
7, 21120, Note_on_c, 5, 71, 100
7, 21121, Note_on_c, 5, 71, 0
7, 21512, Control_c, 5, 7, 100
7, 21572, Control_c, 5, 7, 99
7, 21584, Control_c, 5, 7, 100
7, 21612, Control_c, 5, 7, 99
7, 21640, Control_c, 5, 7, 98
7, 21669, Control_c, 5, 7, 97
7, 21698, Control_c, 5, 7, 96
7, 21726, Control_c, 5, 7, 95
7, 21754, Control_c, 5, 7, 94
7, 21783, Control_c, 5, 7, 93
7, 21812, Control_c, 5, 7, 92
7, 21840, Control_c, 5, 7, 91
7, 21868, Control_c, 5, 7, 90
7, 21886, Note_on_c, 5, 71, 0
7, 21888, Note_on_c, 5, 70, 100
7, 21897, Control_c, 5, 7, 89
7, 21926, Control_c, 5, 7, 88
7, 21954, Control_c, 5, 7, 87
7, 21983, Control_c, 5, 7, 86
7, 22011, Control_c, 5, 7, 85
7, 22040, Control_c, 5, 7, 84
7, 22068, Control_c, 5, 7, 83
7, 22097, Control_c, 5, 7, 82
7, 22125, Control_c, 5, 7, 81
7, 22154, Control_c, 5, 7, 80
7, 22182, Control_c, 5, 7, 79
7, 22211, Control_c, 5, 7, 78
7, 22239, Control_c, 5, 7, 77
7, 22268, Control_c, 5, 7, 76
7, 22296, Control_c, 5, 7, 75
7, 22325, Control_c, 5, 7, 74
7, 22353, Control_c, 5, 7, 73
7, 22382, Control_c, 5, 7, 72
7, 22410, Control_c, 5, 7, 71
7, 22439, Control_c, 5, 7, 70
7, 22464, Note_on_c, 5, 65, 100
7, 22467, Control_c, 5, 7, 69
7, 22468, Note_on_c, 5, 67, 0
7, 22496, Control_c, 5, 7, 68
7, 22524, Control_c, 5, 7, 67
7, 22553, Control_c, 5, 7, 66
7, 22581, Control_c, 5, 7, 65
7, 22610, Control_c, 5, 7, 64
7, 22638, Control_c, 5, 7, 63
7, 22667, Control_c, 5, 7, 62
7, 22696, Control_c, 5, 7, 61
7, 22724, Control_c, 5, 7, 60
7, 22752, Control_c, 5, 7, 59
7, 22781, Control_c, 5, 7, 58
7, 22810, Control_c, 5, 7, 57
7, 22838, Control_c, 5, 7, 56
7, 22866, Control_c, 5, 7, 55
7, 22895, Control_c, 5, 7, 54
7, 22924, Control_c, 5, 7, 53
7, 22952, Control_c, 5, 7, 52
7, 22980, Control_c, 5, 7, 51
7, 23009, Control_c, 5, 7, 50
7, 23038, Control_c, 5, 7, 49
7, 23066, Control_c, 5, 7, 48
7, 23094, Control_c, 5, 7, 47
7, 23123, Control_c, 5, 7, 46
7, 23152, Control_c, 5, 7, 45
7, 23180, Control_c, 5, 7, 44
7, 23209, Control_c, 5, 7, 43
7, 23237, Control_c, 5, 7, 42
7, 23266, Control_c, 5, 7, 41
7, 23294, Control_c, 5, 7, 40
7, 23323, Control_c, 5, 7, 39
7, 23351, Control_c, 5, 7, 38
7, 23380, Control_c, 5, 7, 37
7, 23408, Control_c, 5, 7, 36
7, 23437, Control_c, 5, 7, 35
7, 23465, Control_c, 5, 7, 34
7, 23494, Control_c, 5, 7, 33
7, 23522, Control_c, 5, 7, 32
7, 23551, Control_c, 5, 7, 31
7, 23579, Control_c, 5, 7, 30
7, 23608, Control_c, 5, 7, 29
7, 23636, Control_c, 5, 7, 28
7, 23665, Control_c, 5, 7, 27
7, 23693, Control_c, 5, 7, 26
7, 23722, Control_c, 5, 7, 25
7, 23750, Control_c, 5, 7, 24
7, 23766, Note_on_c, 5, 70, 0
7, 23774, Note_on_c, 5, 65, 0
7, 23779, Control_c, 5, 7, 23
7, 23807, Control_c, 5, 7, 22
7, 23808, Note_on_c, 5, 72, 96
7, 23808, Control_c, 5, 7, 100
7, 23808, Note_on_c, 5, 69, 96
7, 23808, Note_on_c, 5, 65, 96
7, 24192, Note_on_c, 5, 65, 0
7, 24192, Note_on_c, 5, 69, 0
7, 24192, Note_on_c, 5, 72, 0
7, 24192, Note_on_c, 5, 64, 96
7, 24192, Note_on_c, 5, 72, 96
7, 24192, Note_on_c, 5, 69, 96
7, 24576, Note_on_c, 5, 69, 0
7, 24576, Note_on_c, 5, 72, 0
7, 24576, Note_on_c, 5, 64, 0
7, 24576, Note_on_c, 5, 63, 96
7, 24576, Note_on_c, 5, 72, 96
7, 24576, Note_on_c, 5, 69, 96
7, 24960, Note_on_c, 5, 69, 0
7, 24960, Note_on_c, 5, 72, 0
7, 24960, Note_on_c, 5, 70, 96
7, 24960, Note_on_c, 5, 67, 96
7, 25152, Note_on_c, 5, 67, 0
7, 25152, Note_on_c, 5, 70, 0
7, 25152, Note_on_c, 5, 69, 96
7, 25152, Note_on_c, 5, 66, 96
7, 25342, Note_on_c, 5, 66, 0
7, 25342, Note_on_c, 5, 69, 0
7, 25342, Note_on_c, 5, 63, 0
7, 25344, Note_on_c, 5, 70, 96
7, 25344, Note_on_c, 5, 67, 96
7, 25344, Note_on_c, 5, 62, 96
7, 25728, Note_on_c, 5, 62, 0
7, 25728, Note_on_c, 5, 67, 0
7, 25728, Note_on_c, 5, 70, 0
7, 25728, Note_on_c, 5, 70, 96
7, 25728, Note_on_c, 5, 67, 96
7, 25728, Note_on_c, 5, 65, 96
7, 26112, Note_on_c, 5, 65, 0
7, 26112, Note_on_c, 5, 67, 0
7, 26112, Note_on_c, 5, 70, 0
7, 26112, Note_on_c, 5, 67, 96
7, 26112, Note_on_c, 5, 63, 96
7, 26872, Note_on_c, 5, 63, 0
7, 26872, Note_on_c, 5, 67, 0
7, 26880, Note_on_c, 5, 67, 96
7, 26880, Note_on_c, 5, 63, 96
7, 26880, Note_on_c, 5, 58, 96
7, 27264, Note_on_c, 5, 58, 0
7, 27264, Note_on_c, 5, 63, 0
7, 27264, Note_on_c, 5, 67, 0
7, 27264, Note_on_c, 5, 65, 96
7, 27264, Note_on_c, 5, 57, 96
7, 27264, Note_on_c, 5, 63, 96
7, 27648, Note_on_c, 5, 63, 0
7, 27648, Note_on_c, 5, 57, 0
7, 27648, Note_on_c, 5, 65, 0
7, 27648, Note_on_c, 5, 65, 96
7, 27648, Note_on_c, 5, 62, 96
7, 27648, Note_on_c, 5, 58, 96
7, 27756, Control_c, 5, 7, 100
7, 27797, Control_c, 5, 7, 99
7, 27838, Control_c, 5, 7, 98
7, 27879, Control_c, 5, 7, 97
7, 27920, Control_c, 5, 7, 96
7, 27960, Control_c, 5, 7, 95
7, 28001, Control_c, 5, 7, 94
7, 28032, Note_on_c, 5, 58, 0
7, 28032, Note_on_c, 5, 62, 0
7, 28032, Note_on_c, 5, 65, 0
7, 28032, Note_on_c, 5, 62, 96
7, 28032, Note_on_c, 5, 58, 96
7, 28032, Note_on_c, 5, 67, 96
7, 28042, Control_c, 5, 7, 93
7, 28083, Control_c, 5, 7, 92
7, 28124, Control_c, 5, 7, 91
7, 28164, Control_c, 5, 7, 90
7, 28205, Control_c, 5, 7, 89
7, 28246, Control_c, 5, 7, 88
7, 28287, Control_c, 5, 7, 87
7, 28328, Control_c, 5, 7, 86
7, 28368, Control_c, 5, 7, 85
7, 28396, Note_on_c, 5, 67, 0
7, 28396, Note_on_c, 5, 58, 0
7, 28396, Note_on_c, 5, 62, 0
7, 28409, Control_c, 5, 7, 84
7, 28415, Control_c, 5, 7, 70
7, 28416, Note_on_c, 5, 67, 96
7, 28416, Control_c, 5, 7, 100
7, 28416, Note_on_c, 5, 63, 96
7, 28416, Note_on_c, 5, 58, 96
7, 28800, Note_on_c, 5, 58, 0
7, 28800, Note_on_c, 5, 63, 0
7, 28800, Note_on_c, 5, 67, 0
7, 28800, Note_on_c, 5, 65, 96
7, 28800, Note_on_c, 5, 57, 96
7, 28800, Note_on_c, 5, 63, 96
7, 29184, Note_on_c, 5, 63, 0
7, 29184, Note_on_c, 5, 57, 0
7, 29184, Note_on_c, 5, 65, 0
7, 29184, Note_on_c, 5, 67, 96
7, 29184, Note_on_c, 5, 63, 96
7, 29184, Note_on_c, 5, 58, 96
7, 29568, Note_on_c, 5, 58, 0
7, 29568, Note_on_c, 5, 63, 0
7, 29568, Note_on_c, 5, 67, 0
7, 29568, Note_on_c, 5, 65, 96
7, 29568, Note_on_c, 5, 58, 96
7, 29568, Note_on_c, 5, 62, 96
7, 29574, Control_c, 5, 7, 100
7, 29589, Control_c, 5, 7, 99
7, 29593, Control_c, 5, 7, 100
7, 29752, Control_c, 5, 7, 92
7, 29910, Control_c, 5, 7, 84
7, 30069, Control_c, 5, 7, 76
7, 30228, Control_c, 5, 7, 68
7, 30387, Control_c, 5, 7, 61
7, 30545, Control_c, 5, 7, 53
7, 30704, Control_c, 5, 7, 45
7, 30863, Control_c, 5, 7, 37
7, 31022, Control_c, 5, 7, 29
7, 31110, Note_on_c, 5, 62, 0
7, 31110, Note_on_c, 5, 58, 0
7, 31110, Note_on_c, 5, 65, 0
7, 31180, Control_c, 5, 7, 22
7, 31193, Control_c, 5, 7, 100
7, 31648, Note_on_c, 5, 65, 100
7, 31648, Note_on_c, 5, 68, 100
7, 31676, Note_on_c, 5, 68, 0
7, 31676, Note_on_c, 5, 65, 0
7, 31680, Note_on_c, 5, 65, 100
7, 31680, Note_on_c, 5, 68, 100
7, 31708, Note_on_c, 5, 68, 0
7, 31708, Note_on_c, 5, 65, 0
7, 33184, Note_on_c, 5, 65, 100
7, 33184, Note_on_c, 5, 68, 100
7, 33212, Note_on_c, 5, 68, 0
7, 33212, Note_on_c, 5, 65, 0
7, 33216, Note_on_c, 5, 65, 100
7, 33216, Note_on_c, 5, 68, 100
7, 33244, Note_on_c, 5, 68, 0
7, 33244, Note_on_c, 5, 65, 0
7, 33888, Note_on_c, 5, 65, 126
7, 33888, Control_c, 5, 7, 100
7, 33888, Note_on_c, 5, 53, 126
7, 33890, Pitch_bend_c, 5, 8192
7, 33891, Control_c, 5, 7, 99
7, 33893, Pitch_bend_c, 5, 8189
7, 33895, Control_c, 5, 7, 98
7, 33896, Pitch_bend_c, 5, 8186
7, 33899, Pitch_bend_c, 5, 8182
7, 33899, Control_c, 5, 7, 97
7, 33902, Pitch_bend_c, 5, 8176
7, 33902, Control_c, 5, 7, 96
7, 33904, Pitch_bend_c, 5, 8170
7, 33906, Control_c, 5, 7, 95
7, 33907, Pitch_bend_c, 5, 8161
7, 33910, Pitch_bend_c, 5, 8152
7, 33910, Control_c, 5, 7, 94
7, 33913, Pitch_bend_c, 5, 8143
7, 33914, Control_c, 5, 7, 93
7, 33916, Pitch_bend_c, 5, 8131
7, 33918, Control_c, 5, 7, 92
7, 33918, Pitch_bend_c, 5, 8119
7, 33921, Pitch_bend_c, 5, 8105
7, 33922, Control_c, 5, 7, 91
7, 33924, Pitch_bend_c, 5, 8090
7, 33925, Control_c, 5, 7, 90
7, 33927, Pitch_bend_c, 5, 8074
7, 33929, Control_c, 5, 7, 89
7, 33930, Pitch_bend_c, 5, 8057
7, 33932, Pitch_bend_c, 5, 8039
7, 33933, Control_c, 5, 7, 88
7, 33935, Pitch_bend_c, 5, 8020
7, 33937, Control_c, 5, 7, 87
7, 33938, Pitch_bend_c, 5, 7999
7, 33940, Control_c, 5, 7, 86
7, 33941, Pitch_bend_c, 5, 7978
7, 33944, Pitch_bend_c, 5, 7954
7, 33944, Control_c, 5, 7, 85
7, 33946, Pitch_bend_c, 5, 7930
7, 33948, Control_c, 5, 7, 84
7, 33949, Pitch_bend_c, 5, 7905
7, 33952, Pitch_bend_c, 5, 7879
7, 33952, Control_c, 5, 7, 83
7, 33955, Pitch_bend_c, 5, 7852
7, 33956, Control_c, 5, 7, 82
7, 33958, Pitch_bend_c, 5, 7823
7, 33960, Control_c, 5, 7, 81
7, 33961, Pitch_bend_c, 5, 7789
7, 33963, Control_c, 5, 7, 80
7, 33964, Pitch_bend_c, 5, 7757
7, 33966, Pitch_bend_c, 5, 7726
7, 33967, Control_c, 5, 7, 79
7, 33969, Pitch_bend_c, 5, 7692
7, 33971, Control_c, 5, 7, 78
7, 33972, Pitch_bend_c, 5, 7658
7, 33974, Control_c, 5, 7, 77
7, 33975, Pitch_bend_c, 5, 7622
7, 33978, Pitch_bend_c, 5, 7585
7, 33978, Control_c, 5, 7, 76
7, 33980, Pitch_bend_c, 5, 7546
7, 33982, Control_c, 5, 7, 75
7, 33983, Pitch_bend_c, 5, 7508
7, 33986, Note_on_c, 5, 53, 0
7, 33986, Note_on_c, 5, 65, 0
7, 33986, Pitch_bend_c, 5, 7467
7, 33986, Control_c, 5, 7, 74
7, 33989, Pitch_bend_c, 5, 7426
7, 33990, Control_c, 5, 7, 73
7, 33990, Control_c, 5, 7, 74
7, 33992, Pitch_bend_c, 5, 7382
7, 33993, Control_c, 5, 7, 75
7, 33994, Pitch_bend_c, 5, 7339
7, 33996, Control_c, 5, 7, 77
7, 33997, Pitch_bend_c, 5, 7294
7, 33998, Control_c, 5, 7, 79
7, 34000, Pitch_bend_c, 5, 7248
7, 34001, Control_c, 5, 7, 80
7, 34003, Pitch_bend_c, 5, 7201
7, 34004, Control_c, 5, 7, 82
7, 34006, Pitch_bend_c, 5, 7152
7, 34007, Control_c, 5, 7, 84
7, 34008, Pitch_bend_c, 5, 7102
7, 34010, Control_c, 5, 7, 86
7, 34011, Pitch_bend_c, 5, 7052
7, 34013, Control_c, 5, 7, 87
7, 34014, Pitch_bend_c, 5, 7000
7, 34016, Control_c, 5, 7, 89
7, 34017, Pitch_bend_c, 5, 6947
7, 34019, Control_c, 5, 7, 91
7, 34020, Pitch_bend_c, 5, 6892
7, 34022, Control_c, 5, 7, 93
7, 34022, Pitch_bend_c, 5, 6837
7, 34024, Control_c, 5, 7, 94
7, 34025, Pitch_bend_c, 5, 6781
7, 34027, Control_c, 5, 7, 96
7, 34028, Pitch_bend_c, 5, 6723
7, 34030, Control_c, 5, 7, 98
7, 34031, Pitch_bend_c, 5, 6656
7, 34032, Note_on_c, 5, 65, 126
7, 34032, Note_on_c, 5, 53, 126
7, 34033, Control_c, 5, 7, 100
7, 34034, Pitch_bend_c, 5, 8192
7, 34035, Control_c, 5, 7, 99
7, 34037, Pitch_bend_c, 5, 8189
7, 34039, Control_c, 5, 7, 98
7, 34040, Pitch_bend_c, 5, 8186
7, 34043, Pitch_bend_c, 5, 8182
7, 34043, Control_c, 5, 7, 97
7, 34046, Pitch_bend_c, 5, 8176
7, 34046, Control_c, 5, 7, 96
7, 34048, Pitch_bend_c, 5, 8170
7, 34050, Control_c, 5, 7, 95
7, 34051, Pitch_bend_c, 5, 8161
7, 34054, Pitch_bend_c, 5, 8152
7, 34054, Control_c, 5, 7, 94
7, 34057, Pitch_bend_c, 5, 8143
7, 34058, Control_c, 5, 7, 93
7, 34060, Pitch_bend_c, 5, 8131
7, 34062, Control_c, 5, 7, 92
7, 34062, Pitch_bend_c, 5, 8119
7, 34065, Pitch_bend_c, 5, 8105
7, 34066, Control_c, 5, 7, 91
7, 34068, Pitch_bend_c, 5, 8090
7, 34069, Control_c, 5, 7, 90
7, 34071, Pitch_bend_c, 5, 8074
7, 34073, Control_c, 5, 7, 89
7, 34074, Pitch_bend_c, 5, 8057
7, 34076, Pitch_bend_c, 5, 8039
7, 34077, Control_c, 5, 7, 88
7, 34079, Pitch_bend_c, 5, 8020
7, 34081, Control_c, 5, 7, 87
7, 34082, Pitch_bend_c, 5, 7999
7, 34084, Control_c, 5, 7, 86
7, 34085, Pitch_bend_c, 5, 7978
7, 34088, Pitch_bend_c, 5, 7954
7, 34088, Control_c, 5, 7, 85
7, 34090, Pitch_bend_c, 5, 7930
7, 34092, Control_c, 5, 7, 84
7, 34093, Pitch_bend_c, 5, 7905
7, 34096, Pitch_bend_c, 5, 7879
7, 34096, Control_c, 5, 7, 83
7, 34099, Pitch_bend_c, 5, 7852
7, 34100, Control_c, 5, 7, 82
7, 34102, Pitch_bend_c, 5, 7823
7, 34104, Control_c, 5, 7, 81
7, 34105, Pitch_bend_c, 5, 7789
7, 34107, Control_c, 5, 7, 80
7, 34108, Pitch_bend_c, 5, 7757
7, 34110, Pitch_bend_c, 5, 7726
7, 34111, Control_c, 5, 7, 79
7, 34113, Pitch_bend_c, 5, 7692
7, 34115, Control_c, 5, 7, 78
7, 34116, Pitch_bend_c, 5, 7658
7, 34118, Control_c, 5, 7, 77
7, 34119, Pitch_bend_c, 5, 7622
7, 34122, Pitch_bend_c, 5, 7585
7, 34122, Control_c, 5, 7, 76
7, 34124, Pitch_bend_c, 5, 7546
7, 34126, Control_c, 5, 7, 75
7, 34127, Pitch_bend_c, 5, 7508
7, 34130, Pitch_bend_c, 5, 7467
7, 34130, Control_c, 5, 7, 74
7, 34131, Note_on_c, 5, 53, 0
7, 34131, Note_on_c, 5, 65, 0
7, 34133, Pitch_bend_c, 5, 7426
7, 34134, Control_c, 5, 7, 73
7, 34136, Pitch_bend_c, 5, 7382
7, 34138, Control_c, 5, 7, 72
7, 34138, Pitch_bend_c, 5, 7339
7, 34141, Pitch_bend_c, 5, 7294
7, 34141, Control_c, 5, 7, 71
7, 34142, Control_c, 5, 7, 74
7, 34144, Pitch_bend_c, 5, 7248
7, 34145, Control_c, 5, 7, 76
7, 34147, Pitch_bend_c, 5, 7201
7, 34148, Control_c, 5, 7, 78
7, 34150, Pitch_bend_c, 5, 7152
7, 34151, Control_c, 5, 7, 80
7, 34152, Pitch_bend_c, 5, 7102
7, 34154, Control_c, 5, 7, 83
7, 34155, Pitch_bend_c, 5, 7052
7, 34157, Control_c, 5, 7, 85
7, 34158, Pitch_bend_c, 5, 7000
7, 34160, Control_c, 5, 7, 87
7, 34161, Pitch_bend_c, 5, 6947
7, 34163, Control_c, 5, 7, 90
7, 34164, Pitch_bend_c, 5, 6892
7, 34166, Pitch_bend_c, 5, 6837
7, 34166, Control_c, 5, 7, 92
7, 34169, Pitch_bend_c, 5, 6781
7, 34169, Control_c, 5, 7, 94
7, 34172, Pitch_bend_c, 5, 6723
7, 34172, Control_c, 5, 7, 97
7, 34175, Pitch_bend_c, 5, 6656
7, 34175, Control_c, 5, 7, 100
7, 34176, Note_on_c, 5, 65, 126
7, 34176, Control_c, 5, 7, 100
7, 34176, Note_on_c, 5, 53, 126
7, 34178, Pitch_bend_c, 5, 8192
7, 34179, Control_c, 5, 7, 99
7, 34181, Pitch_bend_c, 5, 8189
7, 34183, Control_c, 5, 7, 98
7, 34184, Pitch_bend_c, 5, 8186
7, 34187, Pitch_bend_c, 5, 8182
7, 34187, Control_c, 5, 7, 97
7, 34190, Pitch_bend_c, 5, 8176
7, 34190, Control_c, 5, 7, 96
7, 34192, Pitch_bend_c, 5, 8170
7, 34194, Control_c, 5, 7, 95
7, 34195, Pitch_bend_c, 5, 8161
7, 34198, Pitch_bend_c, 5, 8152
7, 34198, Control_c, 5, 7, 94
7, 34201, Pitch_bend_c, 5, 8143
7, 34202, Control_c, 5, 7, 93
7, 34204, Pitch_bend_c, 5, 8131
7, 34206, Control_c, 5, 7, 92
7, 34206, Pitch_bend_c, 5, 8119
7, 34209, Pitch_bend_c, 5, 8105
7, 34210, Control_c, 5, 7, 91
7, 34212, Pitch_bend_c, 5, 8090
7, 34213, Control_c, 5, 7, 90
7, 34215, Pitch_bend_c, 5, 8074
7, 34217, Control_c, 5, 7, 89
7, 34218, Pitch_bend_c, 5, 8057
7, 34220, Pitch_bend_c, 5, 8039
7, 34221, Control_c, 5, 7, 88
7, 34223, Pitch_bend_c, 5, 8020
7, 34225, Control_c, 5, 7, 87
7, 34226, Pitch_bend_c, 5, 7999
7, 34228, Control_c, 5, 7, 86
7, 34229, Pitch_bend_c, 5, 7978
7, 34232, Pitch_bend_c, 5, 7954
7, 34232, Control_c, 5, 7, 85
7, 34234, Pitch_bend_c, 5, 7930
7, 34236, Control_c, 5, 7, 84
7, 34237, Pitch_bend_c, 5, 7905
7, 34240, Pitch_bend_c, 5, 7879
7, 34240, Control_c, 5, 7, 83
7, 34243, Pitch_bend_c, 5, 7852
7, 34244, Control_c, 5, 7, 82
7, 34246, Pitch_bend_c, 5, 7823
7, 34248, Control_c, 5, 7, 81
7, 34249, Pitch_bend_c, 5, 7789
7, 34251, Control_c, 5, 7, 80
7, 34252, Pitch_bend_c, 5, 7757
7, 34254, Pitch_bend_c, 5, 7726
7, 34255, Control_c, 5, 7, 79
7, 34257, Pitch_bend_c, 5, 7692
7, 34259, Control_c, 5, 7, 78
7, 34260, Pitch_bend_c, 5, 7658
7, 34262, Control_c, 5, 7, 77
7, 34263, Pitch_bend_c, 5, 7622
7, 34266, Pitch_bend_c, 5, 7585
7, 34266, Control_c, 5, 7, 76
7, 34268, Pitch_bend_c, 5, 7546
7, 34270, Control_c, 5, 7, 75
7, 34271, Pitch_bend_c, 5, 7508
7, 34274, Pitch_bend_c, 5, 7467
7, 34274, Control_c, 5, 7, 74
7, 34275, Note_on_c, 5, 53, 0
7, 34275, Note_on_c, 5, 65, 0
7, 34277, Pitch_bend_c, 5, 7426
7, 34278, Control_c, 5, 7, 73
7, 34280, Pitch_bend_c, 5, 7382
7, 34281, Control_c, 5, 7, 74
7, 34282, Pitch_bend_c, 5, 7339
7, 34284, Control_c, 5, 7, 75
7, 34285, Pitch_bend_c, 5, 7294
7, 34287, Control_c, 5, 7, 77
7, 34288, Pitch_bend_c, 5, 7248
7, 34290, Control_c, 5, 7, 79
7, 34291, Pitch_bend_c, 5, 7201
7, 34292, Control_c, 5, 7, 81
7, 34294, Pitch_bend_c, 5, 7152
7, 34295, Control_c, 5, 7, 83
7, 34296, Pitch_bend_c, 5, 7102
7, 34298, Control_c, 5, 7, 84
7, 34299, Pitch_bend_c, 5, 7052
7, 34301, Control_c, 5, 7, 86
7, 34302, Pitch_bend_c, 5, 7000
7, 34304, Control_c, 5, 7, 88
7, 34305, Pitch_bend_c, 5, 6947
7, 34307, Control_c, 5, 7, 90
7, 34308, Pitch_bend_c, 5, 6892
7, 34310, Control_c, 5, 7, 92
7, 34310, Pitch_bend_c, 5, 6837
7, 34312, Control_c, 5, 7, 94
7, 34313, Pitch_bend_c, 5, 6781
7, 34315, Control_c, 5, 7, 96
7, 34316, Pitch_bend_c, 5, 6723
7, 34318, Control_c, 5, 7, 97
7, 34319, Pitch_bend_c, 5, 6656
7, 34320, Note_on_c, 5, 65, 126
7, 34320, Note_on_c, 5, 53, 126
7, 34321, Control_c, 5, 7, 100
7, 34322, Pitch_bend_c, 5, 8192
7, 34323, Control_c, 5, 7, 99
7, 34325, Pitch_bend_c, 5, 8189
7, 34327, Control_c, 5, 7, 98
7, 34328, Pitch_bend_c, 5, 8186
7, 34331, Pitch_bend_c, 5, 8182
7, 34331, Control_c, 5, 7, 97
7, 34334, Pitch_bend_c, 5, 8176
7, 34334, Control_c, 5, 7, 96
7, 34336, Pitch_bend_c, 5, 8170
7, 34338, Control_c, 5, 7, 95
7, 34339, Pitch_bend_c, 5, 8161
7, 34342, Pitch_bend_c, 5, 8152
7, 34342, Control_c, 5, 7, 94
7, 34345, Pitch_bend_c, 5, 8143
7, 34346, Control_c, 5, 7, 93
7, 34348, Pitch_bend_c, 5, 8131
7, 34350, Control_c, 5, 7, 92
7, 34350, Pitch_bend_c, 5, 8119
7, 34353, Pitch_bend_c, 5, 8105
7, 34354, Control_c, 5, 7, 91
7, 34356, Pitch_bend_c, 5, 8090
7, 34357, Control_c, 5, 7, 90
7, 34359, Pitch_bend_c, 5, 8074
7, 34361, Control_c, 5, 7, 89
7, 34362, Pitch_bend_c, 5, 8057
7, 34364, Pitch_bend_c, 5, 8039
7, 34365, Control_c, 5, 7, 88
7, 34367, Pitch_bend_c, 5, 8020
7, 34369, Control_c, 5, 7, 87
7, 34370, Pitch_bend_c, 5, 7999
7, 34372, Control_c, 5, 7, 86
7, 34373, Pitch_bend_c, 5, 7978
7, 34376, Pitch_bend_c, 5, 7954
7, 34376, Control_c, 5, 7, 85
7, 34378, Pitch_bend_c, 5, 7930
7, 34380, Control_c, 5, 7, 84
7, 34381, Pitch_bend_c, 5, 7905
7, 34384, Pitch_bend_c, 5, 7879
7, 34384, Control_c, 5, 7, 83
7, 34387, Pitch_bend_c, 5, 7852
7, 34388, Control_c, 5, 7, 82
7, 34390, Pitch_bend_c, 5, 7823
7, 34392, Control_c, 5, 7, 81
7, 34393, Pitch_bend_c, 5, 7789
7, 34395, Control_c, 5, 7, 80
7, 34396, Pitch_bend_c, 5, 7757
7, 34398, Pitch_bend_c, 5, 7726
7, 34399, Control_c, 5, 7, 79
7, 34401, Pitch_bend_c, 5, 7692
7, 34403, Control_c, 5, 7, 78
7, 34404, Pitch_bend_c, 5, 7658
7, 34406, Control_c, 5, 7, 77
7, 34407, Pitch_bend_c, 5, 7622
7, 34410, Pitch_bend_c, 5, 7585
7, 34410, Control_c, 5, 7, 76
7, 34412, Pitch_bend_c, 5, 7546
7, 34414, Control_c, 5, 7, 75
7, 34415, Pitch_bend_c, 5, 7508
7, 34418, Pitch_bend_c, 5, 7467
7, 34418, Control_c, 5, 7, 74
7, 34419, Note_on_c, 5, 53, 0
7, 34419, Note_on_c, 5, 65, 0
7, 34421, Pitch_bend_c, 5, 7426
7, 34422, Control_c, 5, 7, 73
7, 34424, Pitch_bend_c, 5, 7382
7, 34426, Control_c, 5, 7, 72
7, 34426, Pitch_bend_c, 5, 7339
7, 34428, Control_c, 5, 7, 72
7, 34429, Pitch_bend_c, 5, 7294
7, 34431, Control_c, 5, 7, 74
7, 34432, Pitch_bend_c, 5, 7248
7, 34434, Control_c, 5, 7, 76
7, 34435, Pitch_bend_c, 5, 7201
7, 34438, Pitch_bend_c, 5, 7152
7, 34438, Control_c, 5, 7, 79
7, 34440, Pitch_bend_c, 5, 7102
7, 34440, Control_c, 5, 7, 81
7, 34443, Pitch_bend_c, 5, 7052
7, 34444, Control_c, 5, 7, 84
7, 34446, Pitch_bend_c, 5, 7000
7, 34447, Control_c, 5, 7, 86
7, 34449, Pitch_bend_c, 5, 6947
7, 34450, Control_c, 5, 7, 89
7, 34452, Pitch_bend_c, 5, 6892
7, 34453, Control_c, 5, 7, 91
7, 34454, Pitch_bend_c, 5, 6837
7, 34456, Control_c, 5, 7, 94
7, 34457, Pitch_bend_c, 5, 6781
7, 34459, Control_c, 5, 7, 96
7, 34460, Pitch_bend_c, 5, 6723
7, 34462, Control_c, 5, 7, 99
7, 34463, Pitch_bend_c, 5, 6656
7, 34464, Note_on_c, 5, 65, 126
7, 34464, Note_on_c, 5, 53, 126
7, 34465, Control_c, 5, 7, 102
7, 34465, Control_c, 5, 7, 100
7, 34466, Pitch_bend_c, 5, 8192
7, 34469, Pitch_bend_c, 5, 8189
7, 34472, Pitch_bend_c, 5, 8186
7, 34475, Pitch_bend_c, 5, 8182
7, 34476, Pitch_bend_c, 5, 8192
7, 34541, Note_on_c, 5, 53, 0
7, 34541, Note_on_c, 5, 65, 0
7, 34560, Note_on_c, 5, 67, 100
7, 34560, Note_on_c, 5, 63, 100
7, 34848, Note_on_c, 5, 69, 100
7, 34848, Note_on_c, 5, 65, 100
7, 34856, Note_on_c, 5, 63, 0
7, 34856, Note_on_c, 5, 67, 0
7, 34944, Note_on_c, 5, 71, 100
7, 34944, Note_on_c, 5, 67, 100
7, 34944, Note_on_c, 5, 71, 100
7, 34945, Note_on_c, 5, 71, 0
7, 34952, Note_on_c, 5, 65, 0
7, 34952, Note_on_c, 5, 69, 0
7, 35710, Note_on_c, 5, 71, 0
7, 35712, Note_on_c, 5, 70, 100
7, 36288, Note_on_c, 5, 65, 100
7, 36292, Note_on_c, 5, 67, 0
7, 36403, Control_c, 5, 7, 100
7, 36436, Control_c, 5, 7, 99
7, 36470, Control_c, 5, 7, 98
7, 36504, Control_c, 5, 7, 97
7, 36537, Control_c, 5, 7, 96
7, 36571, Control_c, 5, 7, 95
7, 36604, Control_c, 5, 7, 94
7, 36638, Control_c, 5, 7, 93
7, 36672, Control_c, 5, 7, 92
7, 36705, Control_c, 5, 7, 91
7, 36739, Control_c, 5, 7, 90
7, 36772, Control_c, 5, 7, 89
7, 36806, Control_c, 5, 7, 88
7, 36840, Control_c, 5, 7, 87
7, 36873, Control_c, 5, 7, 86
7, 36907, Control_c, 5, 7, 85
7, 36940, Control_c, 5, 7, 84
7, 36974, Control_c, 5, 7, 83
7, 37008, Control_c, 5, 7, 82
7, 37041, Control_c, 5, 7, 81
7, 37075, Control_c, 5, 7, 80
7, 37108, Control_c, 5, 7, 79
7, 37142, Control_c, 5, 7, 78
7, 37176, Control_c, 5, 7, 77
7, 37209, Control_c, 5, 7, 76
7, 37243, Control_c, 5, 7, 75
7, 37276, Control_c, 5, 7, 74
7, 37310, Control_c, 5, 7, 73
7, 37344, Control_c, 5, 7, 72
7, 37377, Control_c, 5, 7, 71
7, 37411, Control_c, 5, 7, 70
7, 37444, Control_c, 5, 7, 69
7, 37478, Control_c, 5, 7, 68
7, 37512, Control_c, 5, 7, 67
7, 37545, Control_c, 5, 7, 66
7, 37579, Control_c, 5, 7, 65
7, 37590, Note_on_c, 5, 70, 0
7, 37598, Note_on_c, 5, 65, 0
7, 37612, Control_c, 5, 7, 64
7, 37625, Control_c, 5, 7, 100
7, 37632, Note_on_c, 5, 65, 96
7, 37632, Note_on_c, 5, 72, 96
7, 37632, Note_on_c, 5, 69, 96
7, 37744, Note_on_c, 5, 69, 0
7, 37744, Note_on_c, 5, 72, 0
7, 37824, Note_on_c, 5, 72, 96
7, 37824, Note_on_c, 5, 69, 96
7, 37934, Note_on_c, 5, 69, 0
7, 37934, Note_on_c, 5, 72, 0
7, 38016, Note_on_c, 5, 65, 0
7, 38016, Note_on_c, 5, 64, 96
7, 38016, Note_on_c, 5, 72, 96
7, 38016, Note_on_c, 5, 69, 96
7, 38128, Note_on_c, 5, 69, 0
7, 38128, Note_on_c, 5, 72, 0
7, 38208, Note_on_c, 5, 72, 96
7, 38208, Note_on_c, 5, 69, 96
7, 38318, Note_on_c, 5, 69, 0
7, 38318, Note_on_c, 5, 72, 0
7, 38400, Note_on_c, 5, 64, 0
7, 38400, Note_on_c, 5, 63, 96
7, 38400, Note_on_c, 5, 72, 96
7, 38400, Note_on_c, 5, 69, 96
7, 38512, Note_on_c, 5, 69, 0
7, 38512, Note_on_c, 5, 72, 0
7, 38592, Note_on_c, 5, 72, 96
7, 38592, Note_on_c, 5, 69, 96
7, 38702, Note_on_c, 5, 69, 0
7, 38702, Note_on_c, 5, 72, 0
7, 38726, Note_on_c, 5, 63, 0
7, 38784, Note_on_c, 5, 70, 96
7, 38784, Note_on_c, 5, 67, 96
7, 38784, Note_on_c, 5, 63, 96
7, 38899, Note_on_c, 5, 67, 0
7, 38899, Note_on_c, 5, 70, 0
7, 38931, Note_on_c, 5, 63, 0
7, 38976, Note_on_c, 5, 69, 96
7, 38976, Note_on_c, 5, 66, 96
7, 38976, Note_on_c, 5, 63, 96
7, 39090, Note_on_c, 5, 66, 0
7, 39090, Note_on_c, 5, 69, 0
7, 39122, Note_on_c, 5, 63, 0
7, 39168, Note_on_c, 5, 62, 96
7, 39168, Note_on_c, 5, 70, 96
7, 39168, Note_on_c, 5, 67, 96
7, 39280, Note_on_c, 5, 67, 0
7, 39280, Note_on_c, 5, 70, 0
7, 39360, Note_on_c, 5, 70, 96
7, 39360, Note_on_c, 5, 67, 96
7, 39470, Note_on_c, 5, 67, 0
7, 39470, Note_on_c, 5, 70, 0
7, 39552, Note_on_c, 5, 62, 0
7, 39552, Note_on_c, 5, 65, 96
7, 39555, Note_on_c, 5, 70, 96
7, 39555, Note_on_c, 5, 67, 96
7, 39667, Note_on_c, 5, 67, 0
7, 39667, Note_on_c, 5, 70, 0
7, 39747, Note_on_c, 5, 70, 96
7, 39747, Note_on_c, 5, 67, 96
7, 39858, Note_on_c, 5, 67, 0
7, 39858, Note_on_c, 5, 70, 0
7, 39936, Note_on_c, 5, 65, 0
7, 39936, Note_on_c, 5, 70, 96
7, 39936, Note_on_c, 5, 67, 96
7, 39936, Note_on_c, 5, 63, 96
7, 40696, Note_on_c, 5, 63, 0
7, 40696, Note_on_c, 5, 67, 0
7, 40696, Note_on_c, 5, 70, 0
7, 42240, Note_on_c, 5, 67, 96
7, 42240, Note_on_c, 5, 63, 96
7, 42240, Note_on_c, 5, 58, 96
7, 42624, Note_on_c, 5, 58, 0
7, 42624, Note_on_c, 5, 63, 0
7, 42624, Note_on_c, 5, 67, 0
7, 42624, Note_on_c, 5, 65, 96
7, 42624, Note_on_c, 5, 57, 96
7, 42624, Note_on_c, 5, 63, 96
7, 43008, Note_on_c, 5, 63, 0
7, 43008, Note_on_c, 5, 57, 0
7, 43008, Note_on_c, 5, 65, 0
7, 43008, Note_on_c, 5, 67, 96
7, 43008, Note_on_c, 5, 63, 96
7, 43008, Note_on_c, 5, 58, 96
7, 43392, Note_on_c, 5, 58, 0
7, 43392, Note_on_c, 5, 63, 0
7, 43392, Note_on_c, 5, 67, 0
7, 43392, Note_on_c, 5, 65, 96
7, 43392, Note_on_c, 5, 58, 96
7, 43392, Note_on_c, 5, 62, 96
7, 43793, Control_c, 5, 7, 100
7, 43794, Control_c, 5, 7, 100
7, 43960, Control_c, 5, 7, 97
7, 44126, Control_c, 5, 7, 94
7, 44292, Control_c, 5, 7, 91
7, 44459, Control_c, 5, 7, 88
7, 44603, Note_on_c, 5, 62, 0
7, 44603, Note_on_c, 5, 58, 0
7, 44603, Note_on_c, 5, 65, 0
7, 44625, Control_c, 5, 7, 86
7, 44625, Control_c, 5, 7, 86
7, 44640, Note_on_c, 5, 65, 96
7, 44640, Note_on_c, 5, 58, 96
7, 44640, Note_on_c, 5, 62, 96
7, 44691, Note_on_c, 5, 62, 0
7, 44691, Note_on_c, 5, 58, 0
7, 44691, Note_on_c, 5, 65, 0
7, 44736, Note_on_c, 5, 65, 96
7, 44736, Note_on_c, 5, 58, 96
7, 44736, Note_on_c, 5, 62, 96
7, 44787, Note_on_c, 5, 62, 0
7, 44787, Note_on_c, 5, 58, 0
7, 44787, Note_on_c, 5, 65, 0
7, 44832, Note_on_c, 5, 65, 96
7, 44832, Note_on_c, 5, 58, 96
7, 44832, Note_on_c, 5, 62, 96
7, 44883, Note_on_c, 5, 62, 0
7, 44883, Note_on_c, 5, 58, 0
7, 44883, Note_on_c, 5, 65, 0
7, 44928, Note_on_c, 5, 65, 96
7, 44928, Note_on_c, 5, 58, 96
7, 44928, Note_on_c, 5, 62, 96
7, 44979, Note_on_c, 5, 62, 0
7, 44979, Note_on_c, 5, 58, 0
7, 44979, Note_on_c, 5, 65, 0
7, 45024, Note_on_c, 5, 65, 96
7, 45024, Note_on_c, 5, 58, 96
7, 45024, Note_on_c, 5, 62, 96
7, 45075, Note_on_c, 5, 62, 0
7, 45075, Note_on_c, 5, 58, 0
7, 45075, Note_on_c, 5, 65, 0
7, 45120, Note_on_c, 5, 65, 96
7, 45120, Note_on_c, 5, 58, 96
7, 45120, Note_on_c, 5, 62, 96
7, 45171, Note_on_c, 5, 62, 0
7, 45171, Note_on_c, 5, 58, 0
7, 45171, Note_on_c, 5, 65, 0
7, 45216, Note_on_c, 5, 65, 96
7, 45216, Note_on_c, 5, 58, 96
7, 45216, Note_on_c, 5, 62, 96
7, 45267, Note_on_c, 5, 62, 0
7, 45267, Note_on_c, 5, 58, 0
7, 45267, Note_on_c, 5, 65, 0
7, 45312, Note_on_c, 5, 68, 96
7, 45312, Note_on_c, 5, 72, 96
7, 45312, Note_on_c, 5, 65, 96
7, 46061, Note_on_c, 5, 65, 0
7, 46061, Note_on_c, 5, 72, 0
7, 46061, Note_on_c, 5, 68, 0
7, 46080, Note_on_c, 5, 65, 100
7, 46176, Note_on_c, 5, 68, 100
7, 46272, Note_on_c, 5, 72, 100
7, 46365, Note_on_c, 5, 65, 0
7, 46368, Note_on_c, 5, 63, 100
7, 46437, Note_on_c, 5, 68, 0
7, 46464, Note_on_c, 5, 68, 100
7, 46531, Note_on_c, 5, 72, 0
7, 46560, Note_on_c, 5, 72, 100
7, 46725, Note_on_c, 5, 63, 0
7, 46752, Note_on_c, 5, 62, 100
7, 46831, Note_on_c, 5, 68, 0
7, 46843, Note_on_c, 5, 72, 0
7, 46848, Note_on_c, 5, 71, 100
7, 46848, Note_on_c, 5, 67, 100
7, 47592, Note_on_c, 5, 67, 0
7, 47596, Note_on_c, 5, 71, 0
7, 47604, Note_on_c, 5, 62, 0
7, 47712, Note_on_c, 5, 65, 126
7, 47712, Control_c, 5, 7, 100
7, 47712, Note_on_c, 5, 53, 126
7, 47714, Pitch_bend_c, 5, 8192
7, 47715, Control_c, 5, 7, 99
7, 47717, Pitch_bend_c, 5, 8189
7, 47719, Control_c, 5, 7, 98
7, 47720, Pitch_bend_c, 5, 8186
7, 47723, Pitch_bend_c, 5, 8182
7, 47723, Control_c, 5, 7, 97
7, 47726, Pitch_bend_c, 5, 8176
7, 47726, Control_c, 5, 7, 96
7, 47728, Pitch_bend_c, 5, 8170
7, 47730, Control_c, 5, 7, 95
7, 47731, Pitch_bend_c, 5, 8161
7, 47734, Pitch_bend_c, 5, 8152
7, 47734, Control_c, 5, 7, 94
7, 47737, Pitch_bend_c, 5, 8143
7, 47738, Control_c, 5, 7, 93
7, 47740, Pitch_bend_c, 5, 8131
7, 47742, Control_c, 5, 7, 92
7, 47742, Pitch_bend_c, 5, 8119
7, 47745, Pitch_bend_c, 5, 8105
7, 47746, Control_c, 5, 7, 91
7, 47748, Pitch_bend_c, 5, 8090
7, 47749, Control_c, 5, 7, 90
7, 47751, Pitch_bend_c, 5, 8074
7, 47753, Control_c, 5, 7, 89
7, 47754, Pitch_bend_c, 5, 8057
7, 47756, Pitch_bend_c, 5, 8039
7, 47757, Control_c, 5, 7, 88
7, 47759, Pitch_bend_c, 5, 8020
7, 47761, Control_c, 5, 7, 87
7, 47762, Pitch_bend_c, 5, 7999
7, 47764, Control_c, 5, 7, 86
7, 47765, Pitch_bend_c, 5, 7978
7, 47768, Pitch_bend_c, 5, 7954
7, 47768, Control_c, 5, 7, 85
7, 47770, Pitch_bend_c, 5, 7930
7, 47772, Control_c, 5, 7, 84
7, 47773, Pitch_bend_c, 5, 7905
7, 47776, Pitch_bend_c, 5, 7879
7, 47776, Control_c, 5, 7, 83
7, 47779, Pitch_bend_c, 5, 7852
7, 47780, Control_c, 5, 7, 82
7, 47782, Pitch_bend_c, 5, 7823
7, 47784, Control_c, 5, 7, 81
7, 47785, Pitch_bend_c, 5, 7789
7, 47787, Control_c, 5, 7, 80
7, 47788, Pitch_bend_c, 5, 7757
7, 47790, Pitch_bend_c, 5, 7726
7, 47791, Control_c, 5, 7, 79
7, 47793, Pitch_bend_c, 5, 7692
7, 47795, Control_c, 5, 7, 78
7, 47796, Pitch_bend_c, 5, 7658
7, 47798, Control_c, 5, 7, 77
7, 47799, Pitch_bend_c, 5, 7622
7, 47802, Pitch_bend_c, 5, 7585
7, 47802, Control_c, 5, 7, 76
7, 47804, Pitch_bend_c, 5, 7546
7, 47806, Control_c, 5, 7, 75
7, 47807, Pitch_bend_c, 5, 7508
7, 47810, Note_on_c, 5, 53, 0
7, 47810, Note_on_c, 5, 65, 0
7, 47810, Pitch_bend_c, 5, 7467
7, 47810, Control_c, 5, 7, 74
7, 47813, Pitch_bend_c, 5, 7426
7, 47814, Control_c, 5, 7, 73
7, 47814, Control_c, 5, 7, 74
7, 47816, Pitch_bend_c, 5, 7382
7, 47817, Control_c, 5, 7, 75
7, 47818, Pitch_bend_c, 5, 7339
7, 47820, Control_c, 5, 7, 77
7, 47821, Pitch_bend_c, 5, 7294
7, 47822, Control_c, 5, 7, 79
7, 47824, Pitch_bend_c, 5, 7248
7, 47825, Control_c, 5, 7, 80
7, 47827, Pitch_bend_c, 5, 7201
7, 47828, Control_c, 5, 7, 82
7, 47830, Pitch_bend_c, 5, 7152
7, 47831, Control_c, 5, 7, 84
7, 47832, Pitch_bend_c, 5, 7102
7, 47834, Control_c, 5, 7, 86
7, 47835, Pitch_bend_c, 5, 7052
7, 47837, Control_c, 5, 7, 87
7, 47838, Pitch_bend_c, 5, 7000
7, 47840, Control_c, 5, 7, 89
7, 47841, Pitch_bend_c, 5, 6947
7, 47843, Control_c, 5, 7, 91
7, 47844, Pitch_bend_c, 5, 6892
7, 47846, Control_c, 5, 7, 93
7, 47846, Pitch_bend_c, 5, 6837
7, 47848, Control_c, 5, 7, 94
7, 47849, Pitch_bend_c, 5, 6781
7, 47851, Control_c, 5, 7, 96
7, 47852, Pitch_bend_c, 5, 6723
7, 47854, Control_c, 5, 7, 98
7, 47855, Pitch_bend_c, 5, 6656
7, 47856, Note_on_c, 5, 65, 126
7, 47856, Note_on_c, 5, 53, 126
7, 47857, Control_c, 5, 7, 100
7, 47858, Pitch_bend_c, 5, 8192
7, 47859, Control_c, 5, 7, 99
7, 47861, Pitch_bend_c, 5, 8189
7, 47863, Control_c, 5, 7, 98
7, 47864, Pitch_bend_c, 5, 8186
7, 47867, Pitch_bend_c, 5, 8182
7, 47867, Control_c, 5, 7, 97
7, 47870, Pitch_bend_c, 5, 8176
7, 47870, Control_c, 5, 7, 96
7, 47872, Pitch_bend_c, 5, 8170
7, 47874, Control_c, 5, 7, 95
7, 47875, Pitch_bend_c, 5, 8161
7, 47878, Pitch_bend_c, 5, 8152
7, 47878, Control_c, 5, 7, 94
7, 47881, Pitch_bend_c, 5, 8143
7, 47882, Control_c, 5, 7, 93
7, 47884, Pitch_bend_c, 5, 8131
7, 47886, Control_c, 5, 7, 92
7, 47886, Pitch_bend_c, 5, 8119
7, 47889, Pitch_bend_c, 5, 8105
7, 47890, Control_c, 5, 7, 91
7, 47892, Pitch_bend_c, 5, 8090
7, 47893, Control_c, 5, 7, 90
7, 47895, Pitch_bend_c, 5, 8074
7, 47897, Control_c, 5, 7, 89
7, 47898, Pitch_bend_c, 5, 8057
7, 47900, Pitch_bend_c, 5, 8039
7, 47901, Control_c, 5, 7, 88
7, 47903, Pitch_bend_c, 5, 8020
7, 47905, Control_c, 5, 7, 87
7, 47906, Pitch_bend_c, 5, 7999
7, 47908, Control_c, 5, 7, 86
7, 47909, Pitch_bend_c, 5, 7978
7, 47912, Pitch_bend_c, 5, 7954
7, 47912, Control_c, 5, 7, 85
7, 47914, Pitch_bend_c, 5, 7930
7, 47916, Control_c, 5, 7, 84
7, 47917, Pitch_bend_c, 5, 7905
7, 47920, Pitch_bend_c, 5, 7879
7, 47920, Control_c, 5, 7, 83
7, 47923, Pitch_bend_c, 5, 7852
7, 47924, Control_c, 5, 7, 82
7, 47926, Pitch_bend_c, 5, 7823
7, 47928, Control_c, 5, 7, 81
7, 47929, Pitch_bend_c, 5, 7789
7, 47931, Control_c, 5, 7, 80
7, 47932, Pitch_bend_c, 5, 7757
7, 47934, Pitch_bend_c, 5, 7726
7, 47935, Control_c, 5, 7, 79
7, 47937, Pitch_bend_c, 5, 7692
7, 47939, Control_c, 5, 7, 78
7, 47940, Pitch_bend_c, 5, 7658
7, 47942, Control_c, 5, 7, 77
7, 47943, Pitch_bend_c, 5, 7622
7, 47946, Pitch_bend_c, 5, 7585
7, 47946, Control_c, 5, 7, 76
7, 47948, Pitch_bend_c, 5, 7546
7, 47950, Control_c, 5, 7, 75
7, 47951, Pitch_bend_c, 5, 7508
7, 47954, Pitch_bend_c, 5, 7467
7, 47954, Control_c, 5, 7, 74
7, 47955, Note_on_c, 5, 53, 0
7, 47955, Note_on_c, 5, 65, 0
7, 47957, Pitch_bend_c, 5, 7426
7, 47958, Control_c, 5, 7, 73
7, 47960, Pitch_bend_c, 5, 7382
7, 47962, Control_c, 5, 7, 72
7, 47962, Pitch_bend_c, 5, 7339
7, 47965, Pitch_bend_c, 5, 7294
7, 47965, Control_c, 5, 7, 71
7, 47966, Control_c, 5, 7, 74
7, 47968, Pitch_bend_c, 5, 7248
7, 47969, Control_c, 5, 7, 76
7, 47971, Pitch_bend_c, 5, 7201
7, 47972, Control_c, 5, 7, 78
7, 47974, Pitch_bend_c, 5, 7152
7, 47975, Control_c, 5, 7, 80
7, 47976, Pitch_bend_c, 5, 7102
7, 47978, Control_c, 5, 7, 83
7, 47979, Pitch_bend_c, 5, 7052
7, 47981, Control_c, 5, 7, 85
7, 47982, Pitch_bend_c, 5, 7000
7, 47984, Control_c, 5, 7, 87
7, 47985, Pitch_bend_c, 5, 6947
7, 47987, Control_c, 5, 7, 90
7, 47988, Pitch_bend_c, 5, 6892
7, 47990, Pitch_bend_c, 5, 6837
7, 47990, Control_c, 5, 7, 92
7, 47993, Pitch_bend_c, 5, 6781
7, 47993, Control_c, 5, 7, 94
7, 47996, Pitch_bend_c, 5, 6723
7, 47996, Control_c, 5, 7, 97
7, 47999, Pitch_bend_c, 5, 6656
7, 47999, Control_c, 5, 7, 100
7, 48000, Note_on_c, 5, 65, 126
7, 48000, Control_c, 5, 7, 100
7, 48000, Note_on_c, 5, 53, 126
7, 48002, Pitch_bend_c, 5, 8192
7, 48003, Control_c, 5, 7, 99
7, 48005, Pitch_bend_c, 5, 8189
7, 48007, Control_c, 5, 7, 98
7, 48008, Pitch_bend_c, 5, 8186
7, 48011, Pitch_bend_c, 5, 8182
7, 48011, Control_c, 5, 7, 97
7, 48014, Pitch_bend_c, 5, 8176
7, 48014, Control_c, 5, 7, 96
7, 48016, Pitch_bend_c, 5, 8170
7, 48018, Control_c, 5, 7, 95
7, 48019, Pitch_bend_c, 5, 8161
7, 48022, Pitch_bend_c, 5, 8152
7, 48022, Control_c, 5, 7, 94
7, 48025, Pitch_bend_c, 5, 8143
7, 48026, Control_c, 5, 7, 93
7, 48028, Pitch_bend_c, 5, 8131
7, 48030, Control_c, 5, 7, 92
7, 48030, Pitch_bend_c, 5, 8119
7, 48033, Pitch_bend_c, 5, 8105
7, 48034, Control_c, 5, 7, 91
7, 48036, Pitch_bend_c, 5, 8090
7, 48037, Control_c, 5, 7, 90
7, 48039, Pitch_bend_c, 5, 8074
7, 48041, Control_c, 5, 7, 89
7, 48042, Pitch_bend_c, 5, 8057
7, 48044, Pitch_bend_c, 5, 8039
7, 48045, Control_c, 5, 7, 88
7, 48047, Pitch_bend_c, 5, 8020
7, 48049, Control_c, 5, 7, 87
7, 48050, Pitch_bend_c, 5, 7999
7, 48052, Control_c, 5, 7, 86
7, 48053, Pitch_bend_c, 5, 7978
7, 48056, Pitch_bend_c, 5, 7954
7, 48056, Control_c, 5, 7, 85
7, 48058, Pitch_bend_c, 5, 7930
7, 48060, Control_c, 5, 7, 84
7, 48061, Pitch_bend_c, 5, 7905
7, 48064, Pitch_bend_c, 5, 7879
7, 48064, Control_c, 5, 7, 83
7, 48067, Pitch_bend_c, 5, 7852
7, 48068, Control_c, 5, 7, 82
7, 48070, Pitch_bend_c, 5, 7823
7, 48072, Control_c, 5, 7, 81
7, 48073, Pitch_bend_c, 5, 7789
7, 48075, Control_c, 5, 7, 80
7, 48076, Pitch_bend_c, 5, 7757
7, 48078, Pitch_bend_c, 5, 7726
7, 48079, Control_c, 5, 7, 79
7, 48081, Pitch_bend_c, 5, 7692
7, 48083, Control_c, 5, 7, 78
7, 48084, Pitch_bend_c, 5, 7658
7, 48086, Control_c, 5, 7, 77
7, 48087, Pitch_bend_c, 5, 7622
7, 48090, Pitch_bend_c, 5, 7585
7, 48090, Control_c, 5, 7, 76
7, 48092, Pitch_bend_c, 5, 7546
7, 48094, Control_c, 5, 7, 75
7, 48095, Pitch_bend_c, 5, 7508
7, 48098, Pitch_bend_c, 5, 7467
7, 48098, Control_c, 5, 7, 74
7, 48099, Note_on_c, 5, 53, 0
7, 48099, Note_on_c, 5, 65, 0
7, 48101, Pitch_bend_c, 5, 7426
7, 48102, Control_c, 5, 7, 73
7, 48104, Pitch_bend_c, 5, 7382
7, 48105, Control_c, 5, 7, 74
7, 48106, Pitch_bend_c, 5, 7339
7, 48108, Control_c, 5, 7, 75
7, 48109, Pitch_bend_c, 5, 7294
7, 48111, Control_c, 5, 7, 77
7, 48112, Pitch_bend_c, 5, 7248
7, 48114, Control_c, 5, 7, 79
7, 48115, Pitch_bend_c, 5, 7201
7, 48116, Control_c, 5, 7, 81
7, 48118, Pitch_bend_c, 5, 7152
7, 48119, Control_c, 5, 7, 83
7, 48120, Pitch_bend_c, 5, 7102
7, 48122, Control_c, 5, 7, 84
7, 48123, Pitch_bend_c, 5, 7052
7, 48125, Control_c, 5, 7, 86
7, 48126, Pitch_bend_c, 5, 7000
7, 48128, Control_c, 5, 7, 88
7, 48129, Pitch_bend_c, 5, 6947
7, 48131, Control_c, 5, 7, 90
7, 48132, Pitch_bend_c, 5, 6892
7, 48134, Control_c, 5, 7, 92
7, 48134, Pitch_bend_c, 5, 6837
7, 48136, Control_c, 5, 7, 94
7, 48137, Pitch_bend_c, 5, 6781
7, 48139, Control_c, 5, 7, 96
7, 48140, Pitch_bend_c, 5, 6723
7, 48142, Control_c, 5, 7, 97
7, 48143, Pitch_bend_c, 5, 6656
7, 48144, Note_on_c, 5, 65, 126
7, 48144, Note_on_c, 5, 53, 126
7, 48145, Control_c, 5, 7, 100
7, 48146, Pitch_bend_c, 5, 8192
7, 48147, Control_c, 5, 7, 99
7, 48149, Pitch_bend_c, 5, 8189
7, 48151, Control_c, 5, 7, 98
7, 48152, Pitch_bend_c, 5, 8186
7, 48155, Pitch_bend_c, 5, 8182
7, 48155, Control_c, 5, 7, 97
7, 48158, Pitch_bend_c, 5, 8176
7, 48158, Control_c, 5, 7, 96
7, 48160, Pitch_bend_c, 5, 8170
7, 48162, Control_c, 5, 7, 95
7, 48163, Pitch_bend_c, 5, 8161
7, 48166, Pitch_bend_c, 5, 8152
7, 48166, Control_c, 5, 7, 94
7, 48169, Pitch_bend_c, 5, 8143
7, 48170, Control_c, 5, 7, 93
7, 48172, Pitch_bend_c, 5, 8131
7, 48174, Control_c, 5, 7, 92
7, 48174, Pitch_bend_c, 5, 8119
7, 48177, Pitch_bend_c, 5, 8105
7, 48178, Control_c, 5, 7, 91
7, 48180, Pitch_bend_c, 5, 8090
7, 48181, Control_c, 5, 7, 90
7, 48183, Pitch_bend_c, 5, 8074
7, 48185, Control_c, 5, 7, 89
7, 48186, Pitch_bend_c, 5, 8057
7, 48188, Pitch_bend_c, 5, 8039
7, 48189, Control_c, 5, 7, 88
7, 48191, Pitch_bend_c, 5, 8020
7, 48193, Control_c, 5, 7, 87
7, 48194, Pitch_bend_c, 5, 7999
7, 48196, Control_c, 5, 7, 86
7, 48197, Pitch_bend_c, 5, 7978
7, 48200, Pitch_bend_c, 5, 7954
7, 48200, Control_c, 5, 7, 85
7, 48202, Pitch_bend_c, 5, 7930
7, 48204, Control_c, 5, 7, 84
7, 48205, Pitch_bend_c, 5, 7905
7, 48208, Pitch_bend_c, 5, 7879
7, 48208, Control_c, 5, 7, 83
7, 48211, Pitch_bend_c, 5, 7852
7, 48212, Control_c, 5, 7, 82
7, 48214, Pitch_bend_c, 5, 7823
7, 48216, Control_c, 5, 7, 81
7, 48217, Pitch_bend_c, 5, 7789
7, 48219, Control_c, 5, 7, 80
7, 48220, Pitch_bend_c, 5, 7757
7, 48222, Pitch_bend_c, 5, 7726
7, 48223, Control_c, 5, 7, 79
7, 48225, Pitch_bend_c, 5, 7692
7, 48227, Control_c, 5, 7, 78
7, 48228, Pitch_bend_c, 5, 7658
7, 48230, Control_c, 5, 7, 77
7, 48231, Pitch_bend_c, 5, 7622
7, 48234, Pitch_bend_c, 5, 7585
7, 48234, Control_c, 5, 7, 76
7, 48236, Pitch_bend_c, 5, 7546
7, 48238, Control_c, 5, 7, 75
7, 48239, Pitch_bend_c, 5, 7508
7, 48242, Pitch_bend_c, 5, 7467
7, 48242, Control_c, 5, 7, 74
7, 48243, Note_on_c, 5, 53, 0
7, 48243, Note_on_c, 5, 65, 0
7, 48245, Pitch_bend_c, 5, 7426
7, 48246, Control_c, 5, 7, 73
7, 48248, Pitch_bend_c, 5, 7382
7, 48250, Control_c, 5, 7, 72
7, 48250, Pitch_bend_c, 5, 7339
7, 48252, Control_c, 5, 7, 72
7, 48253, Pitch_bend_c, 5, 7294
7, 48255, Control_c, 5, 7, 74
7, 48256, Pitch_bend_c, 5, 7248
7, 48258, Control_c, 5, 7, 76
7, 48259, Pitch_bend_c, 5, 7201
7, 48262, Pitch_bend_c, 5, 7152
7, 48262, Control_c, 5, 7, 79
7, 48264, Pitch_bend_c, 5, 7102
7, 48264, Control_c, 5, 7, 81
7, 48267, Pitch_bend_c, 5, 7052
7, 48268, Control_c, 5, 7, 84
7, 48270, Pitch_bend_c, 5, 7000
7, 48271, Control_c, 5, 7, 86
7, 48273, Pitch_bend_c, 5, 6947
7, 48274, Control_c, 5, 7, 89
7, 48276, Pitch_bend_c, 5, 6892
7, 48277, Control_c, 5, 7, 91
7, 48278, Pitch_bend_c, 5, 6837
7, 48280, Control_c, 5, 7, 94
7, 48281, Pitch_bend_c, 5, 6781
7, 48283, Control_c, 5, 7, 96
7, 48284, Pitch_bend_c, 5, 6723
7, 48286, Control_c, 5, 7, 99
7, 48287, Pitch_bend_c, 5, 6656
7, 48288, Note_on_c, 5, 65, 126
7, 48288, Note_on_c, 5, 53, 126
7, 48289, Control_c, 5, 7, 102
7, 48289, Control_c, 5, 7, 100
7, 48290, Pitch_bend_c, 5, 8192
7, 48293, Pitch_bend_c, 5, 8189
7, 48296, Pitch_bend_c, 5, 8186
7, 48299, Pitch_bend_c, 5, 8182
7, 48300, Pitch_bend_c, 5, 8192
7, 48365, Note_on_c, 5, 53, 0
7, 48365, Note_on_c, 5, 65, 0
7, 48384, Note_on_c, 5, 67, 100
7, 48384, Note_on_c, 5, 63, 100
7, 48672, Note_on_c, 5, 69, 100
7, 48672, Note_on_c, 5, 65, 100
7, 48680, Note_on_c, 5, 63, 0
7, 48680, Note_on_c, 5, 67, 0
7, 48768, Note_on_c, 5, 69, 0
7, 48768, Note_on_c, 5, 65, 0
7, 48768, Note_on_c, 5, 71, 100
7, 48768, Note_on_c, 5, 67, 100
7, 48768, Note_on_c, 5, 71, 100
7, 48769, Note_on_c, 5, 71, 0
7, 49534, Note_on_c, 5, 71, 0
7, 49536, Note_on_c, 5, 70, 100
7, 49568, Control_c, 5, 7, 99
7, 49888, Control_c, 5, 7, 98
7, 50032, Control_c, 5, 7, 97
7, 50112, Note_on_c, 5, 65, 100
7, 50116, Note_on_c, 5, 67, 0
7, 50144, Control_c, 5, 7, 96
7, 50242, Control_c, 5, 7, 95
7, 50320, Control_c, 5, 7, 94
7, 50386, Control_c, 5, 7, 93
7, 50464, Control_c, 5, 7, 92
7, 50530, Control_c, 5, 7, 91
7, 50576, Control_c, 5, 7, 90
7, 50640, Control_c, 5, 7, 89
7, 50689, Control_c, 5, 7, 88
7, 50738, Control_c, 5, 7, 87
7, 50801, Control_c, 5, 7, 86
7, 50850, Control_c, 5, 7, 85
7, 50879, Note_on_c, 5, 65, 0
7, 50880, Note_on_c, 5, 70, 100
7, 50880, Note_on_c, 5, 67, 64
7, 50882, Control_c, 5, 7, 84
7, 50889, Note_on_c, 5, 70, 0
7, 50928, Control_c, 5, 7, 83
7, 50977, Control_c, 5, 7, 82
7, 51008, Control_c, 5, 7, 81
7, 51058, Control_c, 5, 7, 80
7, 51089, Control_c, 5, 7, 79
7, 51138, Control_c, 5, 7, 78
7, 51170, Control_c, 5, 7, 77
7, 51216, Control_c, 5, 7, 76
7, 51250, Control_c, 5, 7, 75
7, 51282, Control_c, 5, 7, 74
7, 51314, Control_c, 5, 7, 73
7, 51346, Control_c, 5, 7, 72
7, 51377, Control_c, 5, 7, 71
7, 51409, Control_c, 5, 7, 70
7, 51440, Control_c, 5, 7, 69
7, 51448, Note_on_c, 5, 67, 0
7, 51456, Note_on_c, 5, 65, 100
7, 51472, Control_c, 5, 7, 68
7, 51504, Control_c, 5, 7, 67
7, 51538, Control_c, 5, 7, 66
7, 51570, Control_c, 5, 7, 65
7, 51602, Control_c, 5, 7, 64
7, 51634, Control_c, 5, 7, 63
7, 51665, Control_c, 5, 7, 62
7, 51682, Control_c, 5, 7, 61
7, 51714, Control_c, 5, 7, 60
7, 51746, Control_c, 5, 7, 59
7, 51778, Control_c, 5, 7, 58
7, 51792, Control_c, 5, 7, 57
7, 51826, Control_c, 5, 7, 56
7, 51858, Control_c, 5, 7, 55
7, 51872, Control_c, 5, 7, 54
7, 51904, Control_c, 5, 7, 53
7, 51922, Control_c, 5, 7, 52
7, 51953, Control_c, 5, 7, 51
7, 51985, Control_c, 5, 7, 50
7, 52002, Control_c, 5, 7, 49
7, 52028, Note_on_c, 5, 65, 0
7, 52034, Control_c, 5, 7, 48
7, 52048, Control_c, 5, 7, 47
7, 52064, Control_c, 5, 7, 48
7, 52224, Note_on_c, 5, 70, 0
7, 53760, Note_on_c, 5, 77, 100
7, 53760, Note_on_c, 5, 74, 100
7, 53760, Note_on_c, 5, 70, 100
7, 53856, Control_c, 5, 7, 48
7, 53862, Control_c, 5, 91, 22
7, 53867, Note_on_c, 5, 70, 0
7, 53867, Note_on_c, 5, 74, 0
7, 53867, Note_on_c, 5, 77, 0
7, 53913, Control_c, 5, 10, 48
7, 53929, Control_c, 5, 91, 126
7, 53952, Note_on_c, 5, 77, 100
7, 53952, Note_on_c, 5, 74, 100
7, 53952, Note_on_c, 5, 70, 100
7, 54032, Program_c, 5, 3
7, 54059, Note_on_c, 5, 70, 0
7, 54059, Note_on_c, 5, 74, 0
7, 54059, Note_on_c, 5, 77, 0
7, 54144, Note_on_c, 5, 77, 100
7, 54144, Note_on_c, 5, 74, 100
7, 54144, Note_on_c, 5, 70, 100
7, 54251, Note_on_c, 5, 70, 0
7, 54251, Note_on_c, 5, 74, 0
7, 54251, Note_on_c, 5, 77, 0
7, 54326, Control_c, 5, 7, 48
7, 54336, Note_on_c, 5, 77, 100
7, 54336, Note_on_c, 5, 74, 100
7, 54336, Note_on_c, 5, 70, 100
7, 54443, Note_on_c, 5, 70, 0
7, 54443, Note_on_c, 5, 74, 0
7, 54443, Note_on_c, 5, 77, 0
7, 54528, Note_on_c, 5, 77, 100
7, 54528, Note_on_c, 5, 74, 100
7, 54528, Note_on_c, 5, 70, 100
7, 54635, Note_on_c, 5, 70, 0
7, 54635, Note_on_c, 5, 74, 0
7, 54635, Note_on_c, 5, 77, 0
7, 54720, Note_on_c, 5, 77, 100
7, 54720, Note_on_c, 5, 74, 100
7, 54720, Note_on_c, 5, 70, 100
7, 54797, Control_c, 5, 7, 49
7, 54827, Note_on_c, 5, 70, 0
7, 54827, Note_on_c, 5, 74, 0
7, 54827, Note_on_c, 5, 77, 0
7, 54912, Note_on_c, 5, 77, 100
7, 54912, Note_on_c, 5, 74, 100
7, 54912, Note_on_c, 5, 70, 100
7, 55019, Note_on_c, 5, 70, 0
7, 55019, Note_on_c, 5, 74, 0
7, 55019, Note_on_c, 5, 77, 0
7, 55104, Note_on_c, 5, 77, 100
7, 55104, Note_on_c, 5, 74, 100
7, 55104, Note_on_c, 5, 70, 100
7, 55211, Note_on_c, 5, 70, 0
7, 55211, Note_on_c, 5, 74, 0
7, 55211, Note_on_c, 5, 77, 0
7, 55268, Control_c, 5, 7, 50
7, 55296, Note_on_c, 5, 77, 100
7, 55296, Note_on_c, 5, 74, 100
7, 55296, Note_on_c, 5, 70, 100
7, 55403, Note_on_c, 5, 70, 0
7, 55403, Note_on_c, 5, 74, 0
7, 55403, Note_on_c, 5, 77, 0
7, 55488, Note_on_c, 5, 77, 100
7, 55488, Note_on_c, 5, 74, 100
7, 55488, Note_on_c, 5, 70, 100
7, 55595, Note_on_c, 5, 70, 0
7, 55595, Note_on_c, 5, 74, 0
7, 55595, Note_on_c, 5, 77, 0
7, 55680, Note_on_c, 5, 77, 100
7, 55680, Note_on_c, 5, 74, 100
7, 55680, Note_on_c, 5, 70, 100
7, 55739, Control_c, 5, 7, 51
7, 55787, Note_on_c, 5, 70, 0
7, 55787, Note_on_c, 5, 74, 0
7, 55787, Note_on_c, 5, 77, 0
7, 55872, Note_on_c, 5, 77, 100
7, 55872, Note_on_c, 5, 74, 100
7, 55872, Note_on_c, 5, 70, 100
7, 55979, Note_on_c, 5, 70, 0
7, 55979, Note_on_c, 5, 74, 0
7, 55979, Note_on_c, 5, 77, 0
7, 56064, Note_on_c, 5, 77, 100
7, 56064, Note_on_c, 5, 74, 100
7, 56064, Note_on_c, 5, 70, 100
7, 56171, Note_on_c, 5, 70, 0
7, 56171, Note_on_c, 5, 74, 0
7, 56171, Note_on_c, 5, 77, 0
7, 56210, Control_c, 5, 7, 52
7, 56256, Note_on_c, 5, 77, 100
7, 56256, Note_on_c, 5, 74, 100
7, 56256, Note_on_c, 5, 70, 100
7, 56363, Note_on_c, 5, 70, 0
7, 56363, Note_on_c, 5, 74, 0
7, 56363, Note_on_c, 5, 77, 0
7, 56448, Note_on_c, 5, 77, 100
7, 56448, Note_on_c, 5, 74, 100
7, 56448, Note_on_c, 5, 70, 100
7, 56555, Note_on_c, 5, 70, 0
7, 56555, Note_on_c, 5, 74, 0
7, 56555, Note_on_c, 5, 77, 0
7, 56640, Note_on_c, 5, 77, 100
7, 56640, Note_on_c, 5, 74, 100
7, 56640, Note_on_c, 5, 70, 100
7, 56681, Control_c, 5, 7, 53
7, 56747, Note_on_c, 5, 70, 0
7, 56747, Note_on_c, 5, 74, 0
7, 56747, Note_on_c, 5, 77, 0
7, 56832, Note_on_c, 5, 77, 100
7, 56832, Note_on_c, 5, 74, 100
7, 56832, Note_on_c, 5, 70, 100
7, 56939, Note_on_c, 5, 70, 0
7, 56939, Note_on_c, 5, 74, 0
7, 56939, Note_on_c, 5, 77, 0
7, 57024, Note_on_c, 5, 77, 100
7, 57024, Note_on_c, 5, 74, 100
7, 57024, Note_on_c, 5, 70, 100
7, 57131, Note_on_c, 5, 70, 0
7, 57131, Note_on_c, 5, 74, 0
7, 57131, Note_on_c, 5, 77, 0
7, 57152, Control_c, 5, 7, 54
7, 57216, Note_on_c, 5, 77, 100
7, 57216, Note_on_c, 5, 74, 100
7, 57216, Note_on_c, 5, 70, 100
7, 57323, Note_on_c, 5, 70, 0
7, 57323, Note_on_c, 5, 74, 0
7, 57323, Note_on_c, 5, 77, 0
7, 57408, Note_on_c, 5, 77, 100
7, 57408, Note_on_c, 5, 74, 100
7, 57408, Note_on_c, 5, 70, 100
7, 57515, Note_on_c, 5, 70, 0
7, 57515, Note_on_c, 5, 74, 0
7, 57515, Note_on_c, 5, 77, 0
7, 57600, Note_on_c, 5, 77, 100
7, 57600, Note_on_c, 5, 74, 100
7, 57600, Note_on_c, 5, 70, 100
7, 57622, Control_c, 5, 7, 55
7, 57707, Note_on_c, 5, 70, 0
7, 57707, Note_on_c, 5, 74, 0
7, 57707, Note_on_c, 5, 77, 0
7, 57792, Note_on_c, 5, 77, 100
7, 57792, Note_on_c, 5, 74, 100
7, 57792, Note_on_c, 5, 70, 100
7, 57899, Note_on_c, 5, 70, 0
7, 57899, Note_on_c, 5, 74, 0
7, 57899, Note_on_c, 5, 77, 0
7, 57984, Note_on_c, 5, 77, 100
7, 57984, Note_on_c, 5, 74, 100
7, 57984, Note_on_c, 5, 70, 100
7, 58091, Note_on_c, 5, 70, 0
7, 58091, Note_on_c, 5, 74, 0
7, 58091, Note_on_c, 5, 77, 0
7, 58093, Control_c, 5, 7, 56
7, 58176, Note_on_c, 5, 77, 100
7, 58176, Note_on_c, 5, 74, 100
7, 58176, Note_on_c, 5, 70, 100
7, 58283, Note_on_c, 5, 70, 0
7, 58283, Note_on_c, 5, 74, 0
7, 58283, Note_on_c, 5, 77, 0
7, 58368, Note_on_c, 5, 77, 100
7, 58368, Note_on_c, 5, 74, 100
7, 58368, Note_on_c, 5, 70, 100
7, 58475, Note_on_c, 5, 70, 0
7, 58475, Note_on_c, 5, 74, 0
7, 58475, Note_on_c, 5, 77, 0
7, 58560, Note_on_c, 5, 77, 100
7, 58560, Note_on_c, 5, 74, 100
7, 58560, Note_on_c, 5, 70, 100
7, 58564, Control_c, 5, 7, 57
7, 58667, Note_on_c, 5, 70, 0
7, 58667, Note_on_c, 5, 74, 0
7, 58667, Note_on_c, 5, 77, 0
7, 58752, Note_on_c, 5, 77, 100
7, 58752, Note_on_c, 5, 74, 100
7, 58752, Note_on_c, 5, 70, 100
7, 58859, Note_on_c, 5, 70, 0
7, 58859, Note_on_c, 5, 74, 0
7, 58859, Note_on_c, 5, 77, 0
7, 58944, Note_on_c, 5, 77, 100
7, 58944, Note_on_c, 5, 74, 100
7, 58944, Note_on_c, 5, 70, 100
7, 59035, Control_c, 5, 7, 58
7, 59051, Note_on_c, 5, 70, 0
7, 59051, Note_on_c, 5, 74, 0
7, 59051, Note_on_c, 5, 77, 0
7, 59136, Note_on_c, 5, 77, 100
7, 59136, Note_on_c, 5, 74, 100
7, 59136, Note_on_c, 5, 70, 100
7, 59243, Note_on_c, 5, 70, 0
7, 59243, Note_on_c, 5, 74, 0
7, 59243, Note_on_c, 5, 77, 0
7, 59328, Note_on_c, 5, 77, 100
7, 59328, Note_on_c, 5, 74, 100
7, 59328, Note_on_c, 5, 70, 100
7, 59435, Note_on_c, 5, 70, 0
7, 59435, Note_on_c, 5, 74, 0
7, 59435, Note_on_c, 5, 77, 0
7, 59506, Control_c, 5, 7, 59
7, 59520, Note_on_c, 5, 77, 100
7, 59520, Note_on_c, 5, 74, 100
7, 59520, Note_on_c, 5, 70, 100
7, 59627, Note_on_c, 5, 70, 0
7, 59627, Note_on_c, 5, 74, 0
7, 59627, Note_on_c, 5, 77, 0
7, 59712, Note_on_c, 5, 77, 100
7, 59712, Note_on_c, 5, 74, 100
7, 59712, Note_on_c, 5, 70, 100
7, 59819, Note_on_c, 5, 70, 0
7, 59819, Note_on_c, 5, 74, 0
7, 59819, Note_on_c, 5, 77, 0
7, 59904, Note_on_c, 5, 77, 100
7, 59904, Note_on_c, 5, 74, 100
7, 59904, Note_on_c, 5, 70, 100
7, 59977, Control_c, 5, 7, 60
7, 60011, Note_on_c, 5, 70, 0
7, 60011, Note_on_c, 5, 74, 0
7, 60011, Note_on_c, 5, 77, 0
7, 60096, Note_on_c, 5, 77, 100
7, 60096, Note_on_c, 5, 74, 100
7, 60096, Note_on_c, 5, 70, 100
7, 60203, Note_on_c, 5, 70, 0
7, 60203, Note_on_c, 5, 74, 0
7, 60203, Note_on_c, 5, 77, 0
7, 60288, Note_on_c, 5, 77, 100
7, 60288, Note_on_c, 5, 74, 100
7, 60288, Note_on_c, 5, 70, 100
7, 60395, Note_on_c, 5, 70, 0
7, 60395, Note_on_c, 5, 74, 0
7, 60395, Note_on_c, 5, 77, 0
7, 60448, Control_c, 5, 7, 61
7, 60480, Note_on_c, 5, 77, 100
7, 60480, Note_on_c, 5, 74, 100
7, 60480, Note_on_c, 5, 70, 100
7, 60587, Note_on_c, 5, 70, 0
7, 60587, Note_on_c, 5, 74, 0
7, 60587, Note_on_c, 5, 77, 0
7, 60672, Note_on_c, 5, 77, 100
7, 60672, Note_on_c, 5, 74, 100
7, 60672, Note_on_c, 5, 70, 100
7, 60779, Note_on_c, 5, 70, 0
7, 60779, Note_on_c, 5, 74, 0
7, 60779, Note_on_c, 5, 77, 0
7, 60864, Note_on_c, 5, 77, 100
7, 60864, Note_on_c, 5, 74, 100
7, 60864, Note_on_c, 5, 70, 100
7, 60919, Control_c, 5, 7, 62
7, 60971, Note_on_c, 5, 70, 0
7, 60971, Note_on_c, 5, 74, 0
7, 60971, Note_on_c, 5, 77, 0
7, 61056, Note_on_c, 5, 77, 100
7, 61056, Note_on_c, 5, 74, 100
7, 61056, Note_on_c, 5, 70, 100
7, 61163, Note_on_c, 5, 70, 0
7, 61163, Note_on_c, 5, 74, 0
7, 61163, Note_on_c, 5, 77, 0
7, 61248, Note_on_c, 5, 77, 100
7, 61248, Note_on_c, 5, 74, 100
7, 61248, Note_on_c, 5, 70, 100
7, 61355, Note_on_c, 5, 70, 0
7, 61355, Note_on_c, 5, 74, 0
7, 61355, Note_on_c, 5, 77, 0
7, 61390, Control_c, 5, 7, 63
7, 61440, Note_on_c, 5, 77, 100
7, 61440, Note_on_c, 5, 74, 100
7, 61440, Note_on_c, 5, 70, 100
7, 61446, Control_c, 5, 7, 64
7, 61476, Control_c, 5, 7, 63
7, 61507, Control_c, 5, 7, 62
7, 61537, Control_c, 5, 7, 61
7, 61547, Note_on_c, 5, 70, 0
7, 61547, Note_on_c, 5, 74, 0
7, 61547, Note_on_c, 5, 77, 0
7, 61568, Control_c, 5, 7, 60
7, 61598, Control_c, 5, 7, 59
7, 61628, Control_c, 5, 7, 58
7, 61632, Note_on_c, 5, 77, 100
7, 61632, Note_on_c, 5, 74, 100
7, 61632, Note_on_c, 5, 70, 100
7, 61658, Control_c, 5, 7, 57
7, 61689, Control_c, 5, 7, 56
7, 61719, Control_c, 5, 7, 55
7, 61739, Note_on_c, 5, 70, 0
7, 61739, Note_on_c, 5, 74, 0
7, 61739, Note_on_c, 5, 77, 0
7, 61750, Control_c, 5, 7, 54
7, 61780, Control_c, 5, 7, 53
7, 61810, Control_c, 5, 7, 52
7, 61824, Note_on_c, 5, 77, 100
7, 61824, Note_on_c, 5, 74, 100
7, 61824, Note_on_c, 5, 70, 100
7, 61840, Control_c, 5, 7, 51
7, 61871, Control_c, 5, 7, 50
7, 61901, Control_c, 5, 7, 49
7, 61931, Note_on_c, 5, 70, 0
7, 61931, Note_on_c, 5, 74, 0
7, 61931, Note_on_c, 5, 77, 0
7, 61932, Control_c, 5, 7, 48
7, 61962, Control_c, 5, 7, 47
7, 61992, Control_c, 5, 7, 46
7, 62016, Note_on_c, 5, 77, 100
7, 62016, Note_on_c, 5, 74, 100
7, 62016, Note_on_c, 5, 70, 100
7, 62022, Control_c, 5, 7, 45
7, 62053, Control_c, 5, 7, 44
7, 62083, Control_c, 5, 7, 43
7, 62114, Control_c, 5, 7, 42
7, 62123, Note_on_c, 5, 70, 0
7, 62123, Note_on_c, 5, 74, 0
7, 62123, Note_on_c, 5, 77, 0
7, 62144, Control_c, 5, 7, 41
7, 62174, Control_c, 5, 7, 40
7, 62204, Control_c, 5, 7, 39
7, 62208, Note_on_c, 5, 77, 100
7, 62208, Note_on_c, 5, 74, 100
7, 62208, Note_on_c, 5, 70, 100
7, 62235, Control_c, 5, 7, 38
7, 62265, Control_c, 5, 7, 37
7, 62296, Control_c, 5, 7, 36
7, 62315, Note_on_c, 5, 70, 0
7, 62315, Note_on_c, 5, 74, 0
7, 62315, Note_on_c, 5, 77, 0
7, 62326, Control_c, 5, 7, 35
7, 62356, Control_c, 5, 7, 34
7, 62386, Control_c, 5, 7, 33
7, 62400, Note_on_c, 5, 77, 100
7, 62400, Note_on_c, 5, 74, 100
7, 62400, Note_on_c, 5, 70, 100
7, 62417, Control_c, 5, 7, 32
7, 62447, Control_c, 5, 7, 31
7, 62478, Control_c, 5, 7, 30
7, 62507, Note_on_c, 5, 70, 0
7, 62507, Note_on_c, 5, 74, 0
7, 62507, Note_on_c, 5, 77, 0
7, 62508, Control_c, 5, 7, 29
7, 62538, Control_c, 5, 7, 28
7, 62568, Control_c, 5, 7, 27
7, 62592, Note_on_c, 5, 77, 100
7, 62592, Note_on_c, 5, 74, 100
7, 62592, Note_on_c, 5, 70, 100
7, 62599, Control_c, 5, 7, 26
7, 62629, Control_c, 5, 7, 25
7, 62660, Control_c, 5, 7, 24
7, 62690, Control_c, 5, 7, 23
7, 62699, Note_on_c, 5, 70, 0
7, 62699, Note_on_c, 5, 74, 0
7, 62699, Note_on_c, 5, 77, 0
7, 62720, Control_c, 5, 7, 22
7, 62750, Control_c, 5, 7, 21
7, 62781, Control_c, 5, 7, 20
7, 62784, Note_on_c, 5, 77, 100
7, 62784, Note_on_c, 5, 74, 100
7, 62784, Note_on_c, 5, 70, 100
7, 62811, Control_c, 5, 7, 19
7, 62842, Control_c, 5, 7, 18
7, 62872, Control_c, 5, 7, 17
7, 62891, Note_on_c, 5, 70, 0
7, 62891, Note_on_c, 5, 74, 0
7, 62891, Note_on_c, 5, 77, 0
7, 62902, Control_c, 5, 7, 16
7, 62932, Control_c, 5, 7, 15
7, 62963, Control_c, 5, 7, 14
7, 62976, Note_on_c, 5, 77, 100
7, 62976, Note_on_c, 5, 74, 100
7, 62976, Note_on_c, 5, 70, 100
7, 62993, Control_c, 5, 7, 13
7, 63024, Control_c, 5, 7, 12
7, 63054, Control_c, 5, 7, 11
7, 63083, Note_on_c, 5, 70, 0
7, 63083, Note_on_c, 5, 74, 0
7, 63083, Note_on_c, 5, 77, 0
7, 63084, Control_c, 5, 7, 10
7, 63114, Control_c, 5, 7, 9
7, 63145, Control_c, 5, 7, 8
7, 63168, Note_on_c, 5, 77, 100
7, 63168, Note_on_c, 5, 74, 100
7, 63168, Note_on_c, 5, 70, 100
7, 63175, Control_c, 5, 7, 7
7, 63206, Control_c, 5, 7, 6
7, 63236, Control_c, 5, 7, 5
7, 63266, Control_c, 5, 7, 4
7, 63275, Note_on_c, 5, 70, 0
7, 63275, Note_on_c, 5, 74, 0
7, 63275, Note_on_c, 5, 77, 0
7, 63296, Control_c, 5, 7, 3
7, 63327, Control_c, 5, 7, 2
7, 63357, Control_c, 5, 7, 1
7, 63387, Control_c, 5, 7, 0
7, 63744, Pitch_bend_c, 5, 8192
7, 63744, End_track
8, 0, Start_track
8, 0, MIDI_port, 0
8, 0, Title_t, "Fretless"
8, 0, Program_c, 6, 35
8, 0, Control_c, 6, 7, 68
8, 0, Control_c, 6, 10, 2
8, 0, Control_c, 6, 93, 2
8, 0, Control_c, 6, 91, 4
8, 4224, Note_on_c, 6, 74, 100
8, 4224, Note_on_c, 6, 70, 100
8, 4224, Note_on_c, 6, 65, 100
8, 4232, Control_c, 6, 7, 78
8, 4289, Control_c, 6, 7, 79
8, 4314, Control_c, 6, 7, 80
8, 4334, Control_c, 6, 7, 81
8, 4346, Control_c, 6, 7, 82
8, 4366, Control_c, 6, 7, 83
8, 4377, Control_c, 6, 7, 84
8, 4391, Control_c, 6, 7, 85
8, 4403, Control_c, 6, 7, 86
8, 4411, Control_c, 6, 7, 87
8, 4423, Control_c, 6, 7, 88
8, 4428, Control_c, 6, 7, 89
8, 4443, Control_c, 6, 7, 90
8, 4443, Pitch_bend_c, 6, 8155
8, 4446, Pitch_bend_c, 6, 8136
8, 4448, Control_c, 6, 7, 91
8, 4449, Pitch_bend_c, 6, 8112
8, 4452, Pitch_bend_c, 6, 8083
8, 4454, Control_c, 6, 7, 92
8, 4454, Pitch_bend_c, 6, 8052
8, 4457, Pitch_bend_c, 6, 8012
8, 4460, Pitch_bend_c, 6, 7967
8, 4463, Pitch_bend_c, 6, 7918
8, 4466, Pitch_bend_c, 6, 7869
8, 4468, Control_c, 6, 7, 93
8, 4469, Pitch_bend_c, 6, 7813
8, 4472, Pitch_bend_c, 6, 7754
8, 4474, Control_c, 6, 7, 94
8, 4474, Pitch_bend_c, 6, 7691
8, 4477, Pitch_bend_c, 6, 7622
8, 4480, Control_c, 6, 7, 95
8, 4480, Pitch_bend_c, 6, 7551
8, 4483, Pitch_bend_c, 6, 7472
8, 4486, Pitch_bend_c, 6, 7382
8, 4488, Control_c, 6, 7, 96
8, 4489, Pitch_bend_c, 6, 7294
8, 4492, Pitch_bend_c, 6, 7206
8, 4494, Control_c, 6, 7, 97
8, 4494, Pitch_bend_c, 6, 7110
8, 4497, Pitch_bend_c, 6, 7012
8, 4500, Pitch_bend_c, 6, 6910
8, 4503, Pitch_bend_c, 6, 6801
8, 4505, Control_c, 6, 7, 98
8, 4506, Pitch_bend_c, 6, 6692
8, 4509, Pitch_bend_c, 6, 6557
8, 4512, Pitch_bend_c, 6, 6439
8, 4514, Control_c, 6, 7, 99
8, 4514, Pitch_bend_c, 6, 6311
8, 4517, Pitch_bend_c, 6, 6183
8, 4520, Control_c, 6, 7, 100
8, 4520, Pitch_bend_c, 6, 6048
8, 4523, Pitch_bend_c, 6, 5911
8, 4525, Control_c, 6, 7, 101
8, 4526, Pitch_bend_c, 6, 5769
8, 4528, Pitch_bend_c, 6, 5622
8, 4531, Control_c, 6, 7, 102
8, 4532, Pitch_bend_c, 6, 5450
8, 4534, Pitch_bend_c, 6, 5293
8, 4537, Pitch_bend_c, 6, 5135
8, 4540, Control_c, 6, 7, 103
8, 4540, Pitch_bend_c, 6, 4968
8, 4543, Pitch_bend_c, 6, 4801
8, 4545, Control_c, 6, 7, 104
8, 4546, Pitch_bend_c, 6, 4627
8, 4548, Pitch_bend_c, 6, 4450
8, 4551, Control_c, 6, 7, 105
8, 4551, Pitch_bend_c, 6, 4269
8, 4554, Control_c, 6, 7, 106
8, 4554, Pitch_bend_c, 6, 4083
8, 4556, Control_c, 6, 7, 107
8, 4557, Pitch_bend_c, 6, 3866
8, 4560, Pitch_bend_c, 6, 3669
8, 4563, Pitch_bend_c, 6, 3472
8, 4565, Control_c, 6, 7, 108
8, 4566, Pitch_bend_c, 6, 3266
8, 4568, Pitch_bend_c, 6, 3059
8, 4571, Control_c, 6, 7, 109
8, 4571, Pitch_bend_c, 6, 2846
8, 4574, Pitch_bend_c, 6, 2630
8, 4576, Control_c, 6, 7, 110
8, 4577, Pitch_bend_c, 6, 2410
8, 4580, Pitch_bend_c, 6, 2151
8, 4582, Control_c, 6, 7, 111
8, 4583, Pitch_bend_c, 6, 1922
8, 4586, Pitch_bend_c, 6, 1686
8, 4588, Pitch_bend_c, 6, 1450
8, 4591, Control_c, 6, 7, 112
8, 4591, Pitch_bend_c, 6, 1205
8, 4594, Control_c, 6, 7, 113
8, 4594, Pitch_bend_c, 6, 959
8, 4596, Control_c, 6, 7, 114
8, 4597, Pitch_bend_c, 6, 706
8, 4600, Pitch_bend_c, 6, 450
8, 4602, Control_c, 6, 7, 115
8, 4603, Pitch_bend_c, 6, 153
8, 4606, Pitch_bend_c, 6, 0
8, 4608, Pitch_bend_c, 6, 0
8, 4608, Control_c, 6, 7, 116
8, 5381, Note_on_c, 6, 65, 0
8, 5381, Note_on_c, 6, 70, 0
8, 5381, Note_on_c, 6, 74, 0
8, 5484, Pitch_bend_c, 6, 8192
8, 17280, Note_on_c, 6, 74, 100
8, 17280, Note_on_c, 6, 70, 100
8, 17280, Note_on_c, 6, 65, 100
8, 17288, Control_c, 6, 7, 78
8, 17345, Control_c, 6, 7, 79
8, 17370, Control_c, 6, 7, 80
8, 17390, Control_c, 6, 7, 81
8, 17402, Control_c, 6, 7, 82
8, 17422, Control_c, 6, 7, 83
8, 17433, Control_c, 6, 7, 84
8, 17447, Control_c, 6, 7, 85
8, 17459, Control_c, 6, 7, 86
8, 17467, Control_c, 6, 7, 87
8, 17479, Control_c, 6, 7, 88
8, 17484, Control_c, 6, 7, 89
8, 17499, Control_c, 6, 7, 90
8, 17499, Pitch_bend_c, 6, 8155
8, 17502, Pitch_bend_c, 6, 8136
8, 17504, Control_c, 6, 7, 91
8, 17505, Pitch_bend_c, 6, 8112
8, 17508, Pitch_bend_c, 6, 8083
8, 17510, Control_c, 6, 7, 92
8, 17510, Pitch_bend_c, 6, 8052
8, 17513, Pitch_bend_c, 6, 8012
8, 17516, Pitch_bend_c, 6, 7967
8, 17519, Pitch_bend_c, 6, 7918
8, 17522, Pitch_bend_c, 6, 7869
8, 17524, Control_c, 6, 7, 93
8, 17525, Pitch_bend_c, 6, 7813
8, 17528, Pitch_bend_c, 6, 7754
8, 17530, Control_c, 6, 7, 94
8, 17530, Pitch_bend_c, 6, 7691
8, 17533, Pitch_bend_c, 6, 7622
8, 17536, Control_c, 6, 7, 95
8, 17536, Pitch_bend_c, 6, 7551
8, 17539, Pitch_bend_c, 6, 7472
8, 17542, Pitch_bend_c, 6, 7382
8, 17544, Control_c, 6, 7, 96
8, 17545, Pitch_bend_c, 6, 7294
8, 17548, Pitch_bend_c, 6, 7206
8, 17550, Control_c, 6, 7, 97
8, 17550, Pitch_bend_c, 6, 7110
8, 17553, Pitch_bend_c, 6, 7012
8, 17556, Pitch_bend_c, 6, 6910
8, 17559, Pitch_bend_c, 6, 6801
8, 17561, Control_c, 6, 7, 98
8, 17562, Pitch_bend_c, 6, 6692
8, 17565, Pitch_bend_c, 6, 6557
8, 17568, Pitch_bend_c, 6, 6439
8, 17570, Control_c, 6, 7, 99
8, 17570, Pitch_bend_c, 6, 6311
8, 17573, Pitch_bend_c, 6, 6183
8, 17576, Control_c, 6, 7, 100
8, 17576, Pitch_bend_c, 6, 6048
8, 17579, Pitch_bend_c, 6, 5911
8, 17581, Control_c, 6, 7, 101
8, 17582, Pitch_bend_c, 6, 5769
8, 17584, Pitch_bend_c, 6, 5622
8, 17587, Control_c, 6, 7, 102
8, 17588, Pitch_bend_c, 6, 5450
8, 17590, Pitch_bend_c, 6, 5293
8, 17593, Pitch_bend_c, 6, 5135
8, 17596, Control_c, 6, 7, 103
8, 17596, Pitch_bend_c, 6, 4968
8, 17599, Pitch_bend_c, 6, 4801
8, 17601, Control_c, 6, 7, 104
8, 17602, Pitch_bend_c, 6, 4627
8, 17604, Pitch_bend_c, 6, 4450
8, 17607, Control_c, 6, 7, 105
8, 17607, Pitch_bend_c, 6, 4269
8, 17610, Control_c, 6, 7, 106
8, 17610, Pitch_bend_c, 6, 4083
8, 17612, Control_c, 6, 7, 107
8, 17613, Pitch_bend_c, 6, 3866
8, 17616, Pitch_bend_c, 6, 3669
8, 17619, Pitch_bend_c, 6, 3472
8, 17621, Control_c, 6, 7, 108
8, 17622, Pitch_bend_c, 6, 3266
8, 17624, Pitch_bend_c, 6, 3059
8, 17627, Control_c, 6, 7, 109
8, 17627, Pitch_bend_c, 6, 2846
8, 17630, Pitch_bend_c, 6, 2630
8, 17632, Control_c, 6, 7, 110
8, 17633, Pitch_bend_c, 6, 2410
8, 17636, Pitch_bend_c, 6, 2151
8, 17638, Control_c, 6, 7, 111
8, 17639, Pitch_bend_c, 6, 1922
8, 17642, Pitch_bend_c, 6, 1686
8, 17644, Pitch_bend_c, 6, 1450
8, 17647, Control_c, 6, 7, 112
8, 17647, Pitch_bend_c, 6, 1205
8, 17650, Control_c, 6, 7, 113
8, 17650, Pitch_bend_c, 6, 959
8, 17652, Control_c, 6, 7, 114
8, 17653, Pitch_bend_c, 6, 706
8, 17656, Pitch_bend_c, 6, 450
8, 17658, Control_c, 6, 7, 115
8, 17659, Pitch_bend_c, 6, 153
8, 17662, Pitch_bend_c, 6, 0
8, 17664, Pitch_bend_c, 6, 0
8, 17664, Control_c, 6, 7, 116
8, 18437, Note_on_c, 6, 65, 0
8, 18437, Note_on_c, 6, 70, 0
8, 18437, Note_on_c, 6, 74, 0
8, 18540, Pitch_bend_c, 6, 8192
8, 31104, Note_on_c, 6, 74, 100
8, 31104, Note_on_c, 6, 70, 100
8, 31104, Note_on_c, 6, 65, 100
8, 31112, Control_c, 6, 7, 78
8, 31169, Control_c, 6, 7, 79
8, 31194, Control_c, 6, 7, 80
8, 31214, Control_c, 6, 7, 81
8, 31226, Control_c, 6, 7, 82
8, 31246, Control_c, 6, 7, 83
8, 31257, Control_c, 6, 7, 84
8, 31271, Control_c, 6, 7, 85
8, 31283, Control_c, 6, 7, 86
8, 31291, Control_c, 6, 7, 87
8, 31303, Control_c, 6, 7, 88
8, 31308, Control_c, 6, 7, 89
8, 31323, Control_c, 6, 7, 90
8, 31323, Pitch_bend_c, 6, 8155
8, 31326, Pitch_bend_c, 6, 8136
8, 31328, Control_c, 6, 7, 91
8, 31329, Pitch_bend_c, 6, 8112
8, 31332, Pitch_bend_c, 6, 8083
8, 31334, Control_c, 6, 7, 92
8, 31334, Pitch_bend_c, 6, 8052
8, 31337, Pitch_bend_c, 6, 8012
8, 31340, Pitch_bend_c, 6, 7967
8, 31343, Pitch_bend_c, 6, 7918
8, 31346, Pitch_bend_c, 6, 7869
8, 31348, Control_c, 6, 7, 93
8, 31349, Pitch_bend_c, 6, 7813
8, 31352, Pitch_bend_c, 6, 7754
8, 31354, Control_c, 6, 7, 94
8, 31354, Pitch_bend_c, 6, 7691
8, 31357, Pitch_bend_c, 6, 7622
8, 31360, Control_c, 6, 7, 95
8, 31360, Pitch_bend_c, 6, 7551
8, 31363, Pitch_bend_c, 6, 7472
8, 31366, Pitch_bend_c, 6, 7382
8, 31368, Control_c, 6, 7, 96
8, 31369, Pitch_bend_c, 6, 7294
8, 31372, Pitch_bend_c, 6, 7206
8, 31374, Control_c, 6, 7, 97
8, 31374, Pitch_bend_c, 6, 7110
8, 31377, Pitch_bend_c, 6, 7012
8, 31380, Pitch_bend_c, 6, 6910
8, 31383, Pitch_bend_c, 6, 6801
8, 31385, Control_c, 6, 7, 98
8, 31386, Pitch_bend_c, 6, 6692
8, 31389, Pitch_bend_c, 6, 6557
8, 31392, Pitch_bend_c, 6, 6439
8, 31394, Control_c, 6, 7, 99
8, 31394, Pitch_bend_c, 6, 6311
8, 31397, Pitch_bend_c, 6, 6183
8, 31400, Control_c, 6, 7, 100
8, 31400, Pitch_bend_c, 6, 6048
8, 31403, Pitch_bend_c, 6, 5911
8, 31405, Control_c, 6, 7, 101
8, 31406, Pitch_bend_c, 6, 5769
8, 31408, Pitch_bend_c, 6, 5622
8, 31411, Control_c, 6, 7, 102
8, 31412, Pitch_bend_c, 6, 5450
8, 31414, Pitch_bend_c, 6, 5293
8, 31417, Pitch_bend_c, 6, 5135
8, 31420, Control_c, 6, 7, 103
8, 31420, Pitch_bend_c, 6, 4968
8, 31423, Pitch_bend_c, 6, 4801
8, 31425, Control_c, 6, 7, 104
8, 31426, Pitch_bend_c, 6, 4627
8, 31428, Pitch_bend_c, 6, 4450
8, 31431, Control_c, 6, 7, 105
8, 31431, Pitch_bend_c, 6, 4269
8, 31434, Control_c, 6, 7, 106
8, 31434, Pitch_bend_c, 6, 4083
8, 31436, Control_c, 6, 7, 107
8, 31437, Pitch_bend_c, 6, 3866
8, 31440, Pitch_bend_c, 6, 3669
8, 31443, Pitch_bend_c, 6, 3472
8, 31445, Control_c, 6, 7, 108
8, 31446, Pitch_bend_c, 6, 3266
8, 31448, Pitch_bend_c, 6, 3059
8, 31451, Control_c, 6, 7, 109
8, 31451, Pitch_bend_c, 6, 2846
8, 31454, Pitch_bend_c, 6, 2630
8, 31456, Control_c, 6, 7, 110
8, 31457, Pitch_bend_c, 6, 2410
8, 31460, Pitch_bend_c, 6, 2151
8, 31462, Control_c, 6, 7, 111
8, 31463, Pitch_bend_c, 6, 1922
8, 31466, Pitch_bend_c, 6, 1686
8, 31468, Pitch_bend_c, 6, 1450
8, 31471, Control_c, 6, 7, 112
8, 31471, Pitch_bend_c, 6, 1205
8, 31474, Control_c, 6, 7, 113
8, 31474, Pitch_bend_c, 6, 959
8, 31476, Control_c, 6, 7, 114
8, 31477, Pitch_bend_c, 6, 706
8, 31480, Pitch_bend_c, 6, 450
8, 31482, Control_c, 6, 7, 115
8, 31483, Pitch_bend_c, 6, 153
8, 31486, Pitch_bend_c, 6, 0
8, 31488, Pitch_bend_c, 6, 0
8, 31488, Control_c, 6, 7, 116
8, 32261, Note_on_c, 6, 65, 0
8, 32261, Note_on_c, 6, 70, 0
8, 32261, Note_on_c, 6, 74, 0
8, 32364, Pitch_bend_c, 6, 8192
8, 43264, Control_c, 6, 7, 58
8, 44863, Control_c, 6, 7, 62
8, 44928, Note_on_c, 6, 74, 100
8, 44928, Note_on_c, 6, 70, 100
8, 44928, Note_on_c, 6, 65, 100
8, 44936, Control_c, 6, 7, 68
8, 44993, Control_c, 6, 7, 68
8, 45018, Control_c, 6, 7, 69
8, 45038, Control_c, 6, 7, 70
8, 45050, Control_c, 6, 7, 71
8, 45070, Control_c, 6, 7, 72
8, 45081, Control_c, 6, 7, 73
8, 45095, Control_c, 6, 7, 73
8, 45107, Control_c, 6, 7, 74
8, 45115, Control_c, 6, 7, 75
8, 45127, Control_c, 6, 7, 76
8, 45132, Control_c, 6, 7, 77
8, 45147, Control_c, 6, 7, 77
8, 45147, Pitch_bend_c, 6, 8155
8, 45150, Pitch_bend_c, 6, 8136
8, 45152, Control_c, 6, 7, 78
8, 45153, Pitch_bend_c, 6, 8112
8, 45156, Pitch_bend_c, 6, 8083
8, 45158, Control_c, 6, 7, 79
8, 45158, Pitch_bend_c, 6, 8052
8, 45161, Pitch_bend_c, 6, 8012
8, 45164, Pitch_bend_c, 6, 7967
8, 45167, Pitch_bend_c, 6, 7918
8, 45170, Pitch_bend_c, 6, 7869
8, 45172, Control_c, 6, 7, 81
8, 45173, Pitch_bend_c, 6, 7813
8, 45176, Pitch_bend_c, 6, 7754
8, 45178, Control_c, 6, 7, 82
8, 45178, Pitch_bend_c, 6, 7691
8, 45181, Pitch_bend_c, 6, 7622
8, 45184, Control_c, 6, 7, 82
8, 45184, Pitch_bend_c, 6, 7551
8, 45187, Pitch_bend_c, 6, 7472
8, 45190, Pitch_bend_c, 6, 7382
8, 45192, Control_c, 6, 7, 83
8, 45193, Pitch_bend_c, 6, 7294
8, 45196, Pitch_bend_c, 6, 7206
8, 45198, Control_c, 6, 7, 84
8, 45198, Pitch_bend_c, 6, 7110
8, 45201, Pitch_bend_c, 6, 7012
8, 45204, Pitch_bend_c, 6, 6910
8, 45207, Pitch_bend_c, 6, 6801
8, 45209, Control_c, 6, 7, 85
8, 45210, Pitch_bend_c, 6, 6692
8, 45213, Pitch_bend_c, 6, 6557
8, 45216, Pitch_bend_c, 6, 6439
8, 45218, Control_c, 6, 7, 86
8, 45218, Pitch_bend_c, 6, 6311
8, 45221, Pitch_bend_c, 6, 6183
8, 45224, Control_c, 6, 7, 87
8, 45224, Pitch_bend_c, 6, 6048
8, 45227, Pitch_bend_c, 6, 5911
8, 45229, Control_c, 6, 7, 87
8, 45230, Pitch_bend_c, 6, 5769
8, 45232, Pitch_bend_c, 6, 5622
8, 45235, Control_c, 6, 7, 88
8, 45236, Pitch_bend_c, 6, 5450
8, 45238, Pitch_bend_c, 6, 5293
8, 45241, Pitch_bend_c, 6, 5135
8, 45244, Control_c, 6, 7, 89
8, 45244, Pitch_bend_c, 6, 4968
8, 45247, Pitch_bend_c, 6, 4801
8, 45249, Control_c, 6, 7, 90
8, 45250, Pitch_bend_c, 6, 4627
8, 45252, Pitch_bend_c, 6, 4450
8, 45255, Control_c, 6, 7, 91
8, 45255, Pitch_bend_c, 6, 4269
8, 45258, Control_c, 6, 7, 91
8, 45258, Pitch_bend_c, 6, 4083
8, 45260, Control_c, 6, 7, 92
8, 45261, Pitch_bend_c, 6, 3866
8, 45264, Pitch_bend_c, 6, 3669
8, 45267, Pitch_bend_c, 6, 3472
8, 45269, Control_c, 6, 7, 93
8, 45270, Pitch_bend_c, 6, 3266
8, 45272, Pitch_bend_c, 6, 3059
8, 45275, Control_c, 6, 7, 95
8, 45275, Pitch_bend_c, 6, 2846
8, 45278, Pitch_bend_c, 6, 2630
8, 45280, Control_c, 6, 7, 96
8, 45281, Pitch_bend_c, 6, 2410
8, 45284, Pitch_bend_c, 6, 2151
8, 45286, Control_c, 6, 7, 96
8, 45287, Pitch_bend_c, 6, 1922
8, 45290, Pitch_bend_c, 6, 1686
8, 45292, Pitch_bend_c, 6, 1450
8, 45295, Control_c, 6, 7, 97
8, 45295, Pitch_bend_c, 6, 1205
8, 45298, Control_c, 6, 7, 98
8, 45298, Pitch_bend_c, 6, 959
8, 45300, Control_c, 6, 7, 99
8, 45301, Pitch_bend_c, 6, 706
8, 45304, Pitch_bend_c, 6, 450
8, 45306, Control_c, 6, 7, 100
8, 45307, Pitch_bend_c, 6, 153
8, 45310, Pitch_bend_c, 6, 0
8, 45312, Pitch_bend_c, 6, 0
8, 45312, Control_c, 6, 7, 100
8, 46085, Note_on_c, 6, 65, 0
8, 46085, Note_on_c, 6, 70, 0
8, 46085, Note_on_c, 6, 74, 0
8, 46188, Pitch_bend_c, 6, 8192
8, 51984, Control_c, 6, 10, 64
8, 52166, Control_c, 6, 10, 64
8, 52926, Control_c, 6, 7, 98
8, 53090, Program_c, 6, 29
8, 53370, Note_on_c, 6, 46, 110
8, 53807, Control_c, 6, 7, 98
8, 53812, Control_c, 6, 7, 98
8, 53821, Control_c, 6, 7, 97
8, 53830, Control_c, 6, 7, 96
8, 53840, Control_c, 6, 7, 95
8, 53849, Control_c, 6, 7, 93
8, 53858, Control_c, 6, 7, 91
8, 53867, Control_c, 6, 7, 90
8, 53876, Control_c, 6, 7, 89
8, 53885, Control_c, 6, 7, 88
8, 53894, Control_c, 6, 7, 87
8, 53904, Control_c, 6, 7, 85
8, 53913, Control_c, 6, 7, 84
8, 53922, Control_c, 6, 7, 83
8, 53931, Control_c, 6, 7, 82
8, 53940, Control_c, 6, 7, 81
8, 53949, Control_c, 6, 7, 79
8, 53958, Control_c, 6, 7, 78
8, 53968, Control_c, 6, 7, 76
8, 53977, Control_c, 6, 7, 75
8, 53986, Control_c, 6, 7, 74
8, 53995, Control_c, 6, 7, 73
8, 54004, Control_c, 6, 7, 71
8, 54014, Control_c, 6, 7, 70
8, 54022, Control_c, 6, 7, 69
8, 54032, Control_c, 6, 7, 68
8, 54041, Control_c, 6, 7, 66
8, 54050, Control_c, 6, 7, 65
8, 54059, Control_c, 6, 7, 64
8, 54068, Control_c, 6, 7, 63
8, 54078, Control_c, 6, 7, 62
8, 54087, Control_c, 6, 7, 60
8, 54096, Control_c, 6, 7, 59
8, 54105, Control_c, 6, 7, 58
8, 54114, Control_c, 6, 7, 56
8, 54123, Control_c, 6, 7, 55
8, 54132, Control_c, 6, 7, 54
8, 54142, Control_c, 6, 7, 52
8, 54151, Control_c, 6, 7, 51
8, 54160, Control_c, 6, 7, 50
8, 54169, Control_c, 6, 7, 49
8, 54178, Control_c, 6, 7, 48
8, 54187, Control_c, 6, 7, 47
8, 54196, Control_c, 6, 7, 45
8, 54206, Control_c, 6, 7, 44
8, 54215, Control_c, 6, 7, 42
8, 54224, Control_c, 6, 7, 41
8, 54233, Control_c, 6, 7, 39
8, 54242, Control_c, 6, 7, 38
8, 54251, Control_c, 6, 7, 37
8, 54260, Control_c, 6, 7, 36
8, 54270, Control_c, 6, 7, 35
8, 54279, Control_c, 6, 7, 34
8, 54288, Control_c, 6, 7, 33
8, 54297, Control_c, 6, 7, 32
8, 54306, Control_c, 6, 7, 31
8, 54315, Control_c, 6, 7, 29
8, 54324, Control_c, 6, 7, 27
8, 54334, Control_c, 6, 7, 25
8, 54343, Control_c, 6, 7, 24
8, 54352, Control_c, 6, 7, 23
8, 54361, Control_c, 6, 7, 22
8, 54370, Control_c, 6, 7, 21
8, 54379, Control_c, 6, 7, 20
8, 54388, Control_c, 6, 7, 19
8, 54398, Control_c, 6, 7, 18
8, 54407, Control_c, 6, 7, 17
8, 54416, Control_c, 6, 7, 16
8, 54425, Control_c, 6, 7, 12
8, 54434, Control_c, 6, 7, 11
8, 54444, Control_c, 6, 7, 10
8, 54452, Control_c, 6, 7, 9
8, 54462, Control_c, 6, 7, 8
8, 54471, Control_c, 6, 7, 7
8, 54480, Control_c, 6, 7, 6
8, 54489, Control_c, 6, 7, 5
8, 54498, Control_c, 6, 7, 4
8, 54508, Control_c, 6, 7, 3
8, 54516, Control_c, 6, 7, 2
8, 54702, Note_on_c, 6, 46, 0
8, 54731, Control_c, 6, 7, 99
8, 57214, Note_on_c, 6, 46, 110
8, 57483, Control_c, 6, 7, 99
8, 57496, Control_c, 6, 7, 97
8, 57508, Control_c, 6, 7, 97
8, 57521, Control_c, 6, 7, 96
8, 57534, Control_c, 6, 7, 95
8, 57547, Control_c, 6, 7, 93
8, 57560, Control_c, 6, 7, 91
8, 57572, Control_c, 6, 7, 90
8, 57585, Control_c, 6, 7, 89
8, 57598, Control_c, 6, 7, 88
8, 57610, Control_c, 6, 7, 87
8, 57623, Control_c, 6, 7, 85
8, 57636, Control_c, 6, 7, 84
8, 57648, Control_c, 6, 7, 83
8, 57661, Control_c, 6, 7, 82
8, 57674, Control_c, 6, 7, 81
8, 57687, Control_c, 6, 7, 79
8, 57699, Control_c, 6, 7, 78
8, 57712, Control_c, 6, 7, 76
8, 57725, Control_c, 6, 7, 75
8, 57738, Control_c, 6, 7, 74
8, 57750, Control_c, 6, 7, 73
8, 57763, Control_c, 6, 7, 71
8, 57776, Control_c, 6, 7, 70
8, 57788, Control_c, 6, 7, 69
8, 57801, Control_c, 6, 7, 68
8, 57814, Control_c, 6, 7, 66
8, 57826, Control_c, 6, 7, 65
8, 57839, Control_c, 6, 7, 64
8, 57852, Control_c, 6, 7, 63
8, 57865, Control_c, 6, 7, 62
8, 57877, Control_c, 6, 7, 60
8, 57890, Control_c, 6, 7, 59
8, 57903, Control_c, 6, 7, 58
8, 57916, Control_c, 6, 7, 56
8, 57928, Control_c, 6, 7, 55
8, 57941, Control_c, 6, 7, 54
8, 57954, Control_c, 6, 7, 52
8, 57966, Control_c, 6, 7, 51
8, 57979, Control_c, 6, 7, 50
8, 57992, Control_c, 6, 7, 49
8, 58004, Control_c, 6, 7, 48
8, 58017, Control_c, 6, 7, 47
8, 58030, Control_c, 6, 7, 45
8, 58043, Control_c, 6, 7, 44
8, 58056, Control_c, 6, 7, 42
8, 58068, Control_c, 6, 7, 41
8, 58081, Control_c, 6, 7, 39
8, 58094, Control_c, 6, 7, 38
8, 58106, Control_c, 6, 7, 37
8, 58119, Control_c, 6, 7, 36
8, 58132, Control_c, 6, 7, 35
8, 58144, Control_c, 6, 7, 34
8, 58157, Control_c, 6, 7, 33
8, 58170, Control_c, 6, 7, 32
8, 58183, Control_c, 6, 7, 31
8, 58195, Control_c, 6, 7, 29
8, 58208, Control_c, 6, 7, 27
8, 58221, Control_c, 6, 7, 25
8, 58234, Control_c, 6, 7, 24
8, 58246, Control_c, 6, 7, 23
8, 58259, Control_c, 6, 7, 22
8, 58272, Control_c, 6, 7, 21
8, 58284, Control_c, 6, 7, 20
8, 58297, Control_c, 6, 7, 19
8, 58310, Control_c, 6, 7, 18
8, 58322, Control_c, 6, 7, 17
8, 58335, Control_c, 6, 7, 16
8, 58348, Control_c, 6, 7, 12
8, 58361, Control_c, 6, 7, 11
8, 58374, Control_c, 6, 7, 10
8, 58386, Control_c, 6, 7, 9
8, 58399, Control_c, 6, 7, 8
8, 58412, Control_c, 6, 7, 7
8, 58424, Control_c, 6, 7, 6
8, 58437, Control_c, 6, 7, 5
8, 58450, Control_c, 6, 7, 4
8, 58462, Control_c, 6, 7, 3
8, 58475, Control_c, 6, 7, 2
8, 58488, Control_c, 6, 7, 1
8, 58500, Control_c, 6, 7, 0
8, 58821, Note_on_c, 6, 46, 0
8, 58840, Control_c, 6, 7, 2
8, 58898, Control_c, 6, 7, 99
8, 62775, Control_c, 6, 10, 64
8, 63744, Pitch_bend_c, 6, 8192
8, 63744, End_track
9, 0, Start_track
9, 0, MIDI_port, 0
9, 0, Title_t, "ContraBass"
9, 0, Program_c, 7, 43
9, 0, Control_c, 7, 7, 85
9, 0, Control_c, 7, 10, 124
9, 0, Control_c, 7, 91, 2
9, 11, Control_c, 7, 93, 38
9, 17664, Note_on_c, 7, 41, 100
9, 17829, Note_on_c, 7, 41, 0
9, 17856, Note_on_c, 7, 44, 100
9, 18021, Note_on_c, 7, 44, 0
9, 18048, Note_on_c, 7, 48, 100
9, 18213, Note_on_c, 7, 48, 0
9, 18240, Note_on_c, 7, 44, 100
9, 18405, Note_on_c, 7, 44, 0
9, 18432, Note_on_c, 7, 41, 100
9, 18597, Note_on_c, 7, 41, 0
9, 18624, Note_on_c, 7, 44, 100
9, 18789, Note_on_c, 7, 44, 0
9, 18816, Note_on_c, 7, 39, 100
9, 18981, Note_on_c, 7, 39, 0
9, 19008, Note_on_c, 7, 44, 100
9, 19173, Note_on_c, 7, 44, 0
9, 19200, Note_on_c, 7, 38, 100
9, 20716, Note_on_c, 7, 38, 0
9, 20736, Note_on_c, 7, 39, 104
9, 21024, Note_on_c, 7, 39, 0
9, 21024, Note_on_c, 7, 41, 104
9, 21120, Note_on_c, 7, 41, 0
9, 21120, Note_on_c, 7, 43, 104
9, 21312, Note_on_c, 7, 43, 0
9, 21312, Note_on_c, 7, 47, 104
9, 21360, Note_on_c, 7, 50, 104
9, 21361, Note_on_c, 7, 47, 0
9, 21403, Note_on_c, 7, 50, 0
9, 21408, Note_on_c, 7, 50, 104
9, 21408, Note_on_c, 7, 38, 104
9, 21883, Note_on_c, 7, 38, 0
9, 21883, Note_on_c, 7, 50, 0
9, 21888, Pitch_bend_c, 7, 256
9, 21888, Note_on_c, 7, 51, 104
9, 21890, Pitch_bend_c, 7, 533
9, 21893, Pitch_bend_c, 7, 811
9, 21896, Pitch_bend_c, 7, 1089
9, 21899, Pitch_bend_c, 7, 1367
9, 21902, Pitch_bend_c, 7, 1644
9, 21904, Pitch_bend_c, 7, 1922
9, 21908, Pitch_bend_c, 7, 2239
9, 21910, Pitch_bend_c, 7, 2517
9, 21913, Pitch_bend_c, 7, 2795
9, 21916, Pitch_bend_c, 7, 3073
9, 21919, Pitch_bend_c, 7, 3351
9, 21922, Pitch_bend_c, 7, 3628
9, 21924, Pitch_bend_c, 7, 3906
9, 21928, Pitch_bend_c, 7, 4223
9, 21930, Pitch_bend_c, 7, 4501
9, 21933, Pitch_bend_c, 7, 4779
9, 21936, Pitch_bend_c, 7, 5057
9, 21939, Pitch_bend_c, 7, 5335
9, 21942, Pitch_bend_c, 7, 5612
9, 21944, Pitch_bend_c, 7, 5890
9, 21948, Pitch_bend_c, 7, 6207
9, 21950, Pitch_bend_c, 7, 6485
9, 21953, Pitch_bend_c, 7, 6763
9, 21956, Pitch_bend_c, 7, 7041
9, 21959, Pitch_bend_c, 7, 7318
9, 21962, Pitch_bend_c, 7, 7596
9, 21964, Pitch_bend_c, 7, 7874
9, 21967, Pitch_bend_c, 7, 8192
9, 22172, Note_on_c, 7, 51, 0
9, 22176, Note_on_c, 7, 51, 104
9, 22176, Pitch_bend_c, 7, 256
9, 22178, Pitch_bend_c, 7, 533
9, 22181, Pitch_bend_c, 7, 811
9, 22184, Pitch_bend_c, 7, 1089
9, 22187, Pitch_bend_c, 7, 1367
9, 22190, Pitch_bend_c, 7, 1644
9, 22192, Pitch_bend_c, 7, 1922
9, 22196, Pitch_bend_c, 7, 2239
9, 22198, Pitch_bend_c, 7, 2517
9, 22201, Pitch_bend_c, 7, 2795
9, 22204, Pitch_bend_c, 7, 3073
9, 22207, Pitch_bend_c, 7, 3351
9, 22210, Pitch_bend_c, 7, 3628
9, 22212, Pitch_bend_c, 7, 3906
9, 22216, Pitch_bend_c, 7, 4223
9, 22218, Pitch_bend_c, 7, 4501
9, 22221, Pitch_bend_c, 7, 4779
9, 22224, Pitch_bend_c, 7, 5057
9, 22227, Pitch_bend_c, 7, 5335
9, 22230, Pitch_bend_c, 7, 5612
9, 22232, Pitch_bend_c, 7, 5890
9, 22236, Pitch_bend_c, 7, 6207
9, 22238, Pitch_bend_c, 7, 6485
9, 22241, Pitch_bend_c, 7, 6763
9, 22244, Pitch_bend_c, 7, 7041
9, 22247, Pitch_bend_c, 7, 7318
9, 22250, Pitch_bend_c, 7, 7596
9, 22252, Pitch_bend_c, 7, 7874
9, 22255, Pitch_bend_c, 7, 8192
9, 22416, Pitch_bend_c, 7, 8192
9, 22418, Pitch_bend_c, 7, 7714
9, 22421, Pitch_bend_c, 7, 7236
9, 22424, Pitch_bend_c, 7, 6758
9, 22427, Pitch_bend_c, 7, 6280
9, 22430, Pitch_bend_c, 7, 5802
9, 22432, Pitch_bend_c, 7, 5324
9, 22435, Pitch_bend_c, 7, 4846
9, 22438, Pitch_bend_c, 7, 4369
9, 22441, Pitch_bend_c, 7, 3891
9, 22444, Pitch_bend_c, 7, 3413
9, 22446, Pitch_bend_c, 7, 2935
9, 22449, Pitch_bend_c, 7, 2457
9, 22452, Pitch_bend_c, 7, 1979
9, 22455, Pitch_bend_c, 7, 1501
9, 22458, Pitch_bend_c, 7, 1024
9, 22460, Pitch_bend_c, 7, 546
9, 22463, Pitch_bend_c, 7, 0
9, 22464, Note_on_c, 7, 46, 104
9, 22464, Pitch_bend_c, 7, 8192
9, 22467, Note_on_c, 7, 51, 0
9, 23808, Note_on_c, 7, 46, 0
9, 26496, Note_on_c, 7, 43, 100
9, 26650, Note_on_c, 7, 43, 0
9, 26688, Note_on_c, 7, 41, 100
9, 26842, Note_on_c, 7, 41, 0
9, 26880, Note_on_c, 7, 39, 100
9, 27239, Note_on_c, 7, 39, 0
9, 27264, Note_on_c, 7, 41, 100
9, 27623, Note_on_c, 7, 41, 0
9, 27648, Note_on_c, 7, 46, 100
9, 28023, Note_on_c, 7, 46, 0
9, 28036, Note_on_c, 7, 43, 100
9, 28190, Note_on_c, 7, 43, 0
9, 28228, Note_on_c, 7, 41, 100
9, 28382, Note_on_c, 7, 41, 0
9, 28416, Note_on_c, 7, 39, 100
9, 28460, Note_on_c, 7, 39, 0
9, 28512, Note_on_c, 7, 39, 100
9, 28556, Note_on_c, 7, 39, 0
9, 28608, Note_on_c, 7, 39, 100
9, 28652, Note_on_c, 7, 39, 0
9, 28704, Note_on_c, 7, 39, 100
9, 28748, Note_on_c, 7, 39, 0
9, 28800, Note_on_c, 7, 41, 100
9, 28844, Note_on_c, 7, 41, 0
9, 28896, Note_on_c, 7, 41, 100
9, 28940, Note_on_c, 7, 41, 0
9, 28992, Note_on_c, 7, 41, 100
9, 29036, Note_on_c, 7, 41, 0
9, 29088, Note_on_c, 7, 41, 100
9, 29132, Note_on_c, 7, 41, 0
9, 29184, Note_on_c, 7, 39, 100
9, 29228, Note_on_c, 7, 39, 0
9, 29280, Note_on_c, 7, 43, 100
9, 29324, Note_on_c, 7, 43, 0
9, 29376, Note_on_c, 7, 46, 100
9, 29420, Note_on_c, 7, 46, 0
9, 29472, Note_on_c, 7, 43, 100
9, 29516, Note_on_c, 7, 43, 0
9, 29568, Note_on_c, 7, 34, 100
9, 29612, Note_on_c, 7, 34, 0
9, 29664, Note_on_c, 7, 38, 100
9, 29708, Note_on_c, 7, 38, 0
9, 29760, Note_on_c, 7, 41, 100
9, 29804, Note_on_c, 7, 41, 0
9, 29856, Note_on_c, 7, 38, 100
9, 29900, Note_on_c, 7, 38, 0
9, 29952, Note_on_c, 7, 46, 100
9, 31323, Pitch_bend_c, 7, 8155
9, 31326, Pitch_bend_c, 7, 8136
9, 31329, Pitch_bend_c, 7, 8112
9, 31332, Pitch_bend_c, 7, 8083
9, 31334, Pitch_bend_c, 7, 8052
9, 31337, Pitch_bend_c, 7, 8012
9, 31340, Pitch_bend_c, 7, 7967
9, 31343, Pitch_bend_c, 7, 7918
9, 31346, Pitch_bend_c, 7, 7869
9, 31349, Pitch_bend_c, 7, 7813
9, 31352, Pitch_bend_c, 7, 7754
9, 31354, Pitch_bend_c, 7, 7691
9, 31357, Pitch_bend_c, 7, 7622
9, 31360, Pitch_bend_c, 7, 7551
9, 31363, Pitch_bend_c, 7, 7472
9, 31366, Pitch_bend_c, 7, 7382
9, 31369, Pitch_bend_c, 7, 7294
9, 31372, Pitch_bend_c, 7, 7206
9, 31374, Pitch_bend_c, 7, 7110
9, 31377, Pitch_bend_c, 7, 7012
9, 31380, Pitch_bend_c, 7, 6910
9, 31383, Pitch_bend_c, 7, 6801
9, 31386, Pitch_bend_c, 7, 6692
9, 31389, Pitch_bend_c, 7, 6557
9, 31392, Pitch_bend_c, 7, 6439
9, 31394, Pitch_bend_c, 7, 6311
9, 31397, Pitch_bend_c, 7, 6183
9, 31400, Pitch_bend_c, 7, 6048
9, 31403, Pitch_bend_c, 7, 5911
9, 31406, Pitch_bend_c, 7, 5769
9, 31408, Pitch_bend_c, 7, 5622
9, 31412, Pitch_bend_c, 7, 5450
9, 31414, Pitch_bend_c, 7, 5293
9, 31417, Pitch_bend_c, 7, 5135
9, 31420, Pitch_bend_c, 7, 4968
9, 31423, Pitch_bend_c, 7, 4801
9, 31426, Pitch_bend_c, 7, 4627
9, 31428, Pitch_bend_c, 7, 4450
9, 31431, Pitch_bend_c, 7, 4269
9, 31434, Pitch_bend_c, 7, 4083
9, 31437, Pitch_bend_c, 7, 3866
9, 31440, Pitch_bend_c, 7, 3669
9, 31443, Pitch_bend_c, 7, 3472
9, 31446, Pitch_bend_c, 7, 3266
9, 31448, Pitch_bend_c, 7, 3059
9, 31451, Pitch_bend_c, 7, 2846
9, 31454, Pitch_bend_c, 7, 2630
9, 31457, Pitch_bend_c, 7, 2410
9, 31460, Pitch_bend_c, 7, 2151
9, 31463, Pitch_bend_c, 7, 1922
9, 31466, Pitch_bend_c, 7, 1686
9, 31468, Pitch_bend_c, 7, 1450
9, 31471, Pitch_bend_c, 7, 1205
9, 31474, Pitch_bend_c, 7, 959
9, 31477, Pitch_bend_c, 7, 706
9, 31480, Pitch_bend_c, 7, 450
9, 31483, Pitch_bend_c, 7, 153
9, 31486, Pitch_bend_c, 7, 0
9, 31488, Note_on_c, 7, 43, 102
9, 31488, Pitch_bend_c, 7, 0
9, 32356, Note_on_c, 7, 46, 0
9, 32448, Note_on_c, 7, 46, 104
9, 32470, Note_on_c, 7, 43, 0
9, 32640, Note_on_c, 7, 41, 104
9, 32712, Note_on_c, 7, 46, 0
9, 32832, Note_on_c, 7, 46, 104
9, 32850, Note_on_c, 7, 41, 0
9, 33018, Note_on_c, 7, 46, 0
9, 33024, Pitch_bend_c, 7, 8192
9, 33024, Note_on_c, 7, 38, 102
9, 34553, Note_on_c, 7, 38, 0
9, 34560, Note_on_c, 7, 39, 102
9, 34848, Note_on_c, 7, 39, 0
9, 34848, Note_on_c, 7, 41, 102
9, 34944, Note_on_c, 7, 41, 0
9, 34944, Note_on_c, 7, 43, 102
9, 35136, Note_on_c, 7, 43, 0
9, 35136, Note_on_c, 7, 47, 102
9, 35184, Note_on_c, 7, 50, 102
9, 35185, Note_on_c, 7, 47, 0
9, 35227, Note_on_c, 7, 50, 0
9, 35232, Note_on_c, 7, 50, 102
9, 35232, Note_on_c, 7, 38, 102
9, 35707, Note_on_c, 7, 38, 0
9, 35707, Note_on_c, 7, 50, 0
9, 35712, Pitch_bend_c, 7, 256
9, 35712, Note_on_c, 7, 51, 102
9, 35714, Pitch_bend_c, 7, 533
9, 35717, Pitch_bend_c, 7, 811
9, 35720, Pitch_bend_c, 7, 1089
9, 35723, Pitch_bend_c, 7, 1367
9, 35726, Pitch_bend_c, 7, 1644
9, 35728, Pitch_bend_c, 7, 1922
9, 35732, Pitch_bend_c, 7, 2239
9, 35734, Pitch_bend_c, 7, 2517
9, 35737, Pitch_bend_c, 7, 2795
9, 35740, Pitch_bend_c, 7, 3073
9, 35743, Pitch_bend_c, 7, 3351
9, 35746, Pitch_bend_c, 7, 3628
9, 35748, Pitch_bend_c, 7, 3906
9, 35752, Pitch_bend_c, 7, 4223
9, 35754, Pitch_bend_c, 7, 4501
9, 35757, Pitch_bend_c, 7, 4779
9, 35760, Pitch_bend_c, 7, 5057
9, 35763, Pitch_bend_c, 7, 5335
9, 35766, Pitch_bend_c, 7, 5612
9, 35768, Pitch_bend_c, 7, 5890
9, 35772, Pitch_bend_c, 7, 6207
9, 35774, Pitch_bend_c, 7, 6485
9, 35777, Pitch_bend_c, 7, 6763
9, 35780, Pitch_bend_c, 7, 7041
9, 35783, Pitch_bend_c, 7, 7318
9, 35786, Pitch_bend_c, 7, 7596
9, 35788, Pitch_bend_c, 7, 7874
9, 35791, Pitch_bend_c, 7, 8192
9, 35996, Note_on_c, 7, 51, 0
9, 36000, Note_on_c, 7, 51, 102
9, 36000, Pitch_bend_c, 7, 256
9, 36002, Pitch_bend_c, 7, 533
9, 36005, Pitch_bend_c, 7, 811
9, 36008, Pitch_bend_c, 7, 1089
9, 36011, Pitch_bend_c, 7, 1367
9, 36014, Pitch_bend_c, 7, 1644
9, 36016, Pitch_bend_c, 7, 1922
9, 36020, Pitch_bend_c, 7, 2239
9, 36022, Pitch_bend_c, 7, 2517
9, 36025, Pitch_bend_c, 7, 2795
9, 36028, Pitch_bend_c, 7, 3073
9, 36031, Pitch_bend_c, 7, 3351
9, 36034, Pitch_bend_c, 7, 3628
9, 36036, Pitch_bend_c, 7, 3906
9, 36040, Pitch_bend_c, 7, 4223
9, 36042, Pitch_bend_c, 7, 4501
9, 36045, Pitch_bend_c, 7, 4779
9, 36048, Pitch_bend_c, 7, 5057
9, 36051, Pitch_bend_c, 7, 5335
9, 36054, Pitch_bend_c, 7, 5612
9, 36056, Pitch_bend_c, 7, 5890
9, 36060, Pitch_bend_c, 7, 6207
9, 36062, Pitch_bend_c, 7, 6485
9, 36065, Pitch_bend_c, 7, 6763
9, 36068, Pitch_bend_c, 7, 7041
9, 36071, Pitch_bend_c, 7, 7318
9, 36074, Pitch_bend_c, 7, 7596
9, 36076, Pitch_bend_c, 7, 7874
9, 36079, Pitch_bend_c, 7, 8192
9, 36240, Pitch_bend_c, 7, 8192
9, 36242, Pitch_bend_c, 7, 7714
9, 36245, Pitch_bend_c, 7, 7236
9, 36248, Pitch_bend_c, 7, 6758
9, 36251, Pitch_bend_c, 7, 6280
9, 36254, Pitch_bend_c, 7, 5802
9, 36256, Pitch_bend_c, 7, 5324
9, 36259, Pitch_bend_c, 7, 4846
9, 36262, Pitch_bend_c, 7, 4369
9, 36265, Pitch_bend_c, 7, 3891
9, 36268, Pitch_bend_c, 7, 3413
9, 36270, Pitch_bend_c, 7, 2935
9, 36273, Pitch_bend_c, 7, 2457
9, 36276, Pitch_bend_c, 7, 1979
9, 36279, Pitch_bend_c, 7, 1501
9, 36282, Pitch_bend_c, 7, 1024
9, 36284, Pitch_bend_c, 7, 546
9, 36287, Pitch_bend_c, 7, 0
9, 36288, Note_on_c, 7, 46, 102
9, 36288, Pitch_bend_c, 7, 8192
9, 36291, Note_on_c, 7, 51, 0
9, 37632, Note_on_c, 7, 46, 0
9, 40307, Control_c, 7, 7, 126
9, 40320, Note_on_c, 7, 43, 106
9, 40320, Note_on_c, 7, 55, 76
9, 40493, Note_on_c, 7, 55, 0
9, 40493, Note_on_c, 7, 43, 0
9, 40512, Note_on_c, 7, 41, 106
9, 40512, Note_on_c, 7, 53, 76
9, 40685, Note_on_c, 7, 53, 0
9, 40685, Note_on_c, 7, 41, 0
9, 40704, Note_on_c, 7, 39, 106
9, 40704, Note_on_c, 7, 51, 76
9, 40814, Note_on_c, 7, 51, 0
9, 40814, Note_on_c, 7, 39, 0
9, 40844, Note_on_c, 7, 41, 106
9, 40844, Note_on_c, 7, 53, 76
9, 40954, Note_on_c, 7, 53, 0
9, 40954, Note_on_c, 7, 41, 0
9, 40972, Note_on_c, 7, 43, 106
9, 40972, Note_on_c, 7, 55, 76
9, 41075, Note_on_c, 7, 55, 0
9, 41075, Note_on_c, 7, 43, 0
9, 41088, Note_on_c, 7, 41, 106
9, 41088, Note_on_c, 7, 53, 76
9, 41204, Note_on_c, 7, 53, 0
9, 41204, Note_on_c, 7, 41, 0
9, 41228, Note_on_c, 7, 43, 106
9, 41228, Note_on_c, 7, 55, 76
9, 41344, Note_on_c, 7, 55, 0
9, 41344, Note_on_c, 7, 43, 0
9, 41356, Note_on_c, 7, 45, 106
9, 41356, Note_on_c, 7, 57, 76
9, 41459, Note_on_c, 7, 57, 0
9, 41459, Note_on_c, 7, 45, 0
9, 41472, Note_on_c, 7, 46, 106
9, 41472, Note_on_c, 7, 58, 76
9, 41578, Note_on_c, 7, 58, 0
9, 41578, Note_on_c, 7, 46, 0
9, 41612, Note_on_c, 7, 41, 106
9, 41612, Note_on_c, 7, 53, 76
9, 41720, Note_on_c, 7, 53, 0
9, 41720, Note_on_c, 7, 41, 0
9, 41740, Note_on_c, 7, 38, 106
9, 41740, Note_on_c, 7, 50, 76
9, 41845, Note_on_c, 7, 50, 0
9, 41845, Note_on_c, 7, 38, 0
9, 41860, Note_on_c, 7, 43, 106
9, 41860, Note_on_c, 7, 55, 76
9, 42014, Note_on_c, 7, 55, 0
9, 42014, Note_on_c, 7, 43, 0
9, 42052, Note_on_c, 7, 41, 106
9, 42052, Note_on_c, 7, 53, 76
9, 42206, Note_on_c, 7, 53, 0
9, 42206, Note_on_c, 7, 41, 0
9, 42233, Control_c, 7, 7, 126
9, 42233, Control_c, 7, 7, 106
9, 42240, Note_on_c, 7, 39, 106
9, 42240, Note_on_c, 7, 51, 76
9, 42284, Note_on_c, 7, 51, 0
9, 42284, Note_on_c, 7, 39, 0
9, 42336, Note_on_c, 7, 39, 106
9, 42336, Note_on_c, 7, 51, 76
9, 42380, Note_on_c, 7, 51, 0
9, 42380, Note_on_c, 7, 39, 0
9, 42432, Note_on_c, 7, 39, 106
9, 42432, Note_on_c, 7, 51, 76
9, 42476, Note_on_c, 7, 51, 0
9, 42476, Note_on_c, 7, 39, 0
9, 42528, Note_on_c, 7, 39, 106
9, 42528, Note_on_c, 7, 51, 76
9, 42572, Note_on_c, 7, 51, 0
9, 42572, Note_on_c, 7, 39, 0
9, 42624, Note_on_c, 7, 41, 106
9, 42624, Note_on_c, 7, 53, 76
9, 42668, Note_on_c, 7, 53, 0
9, 42668, Note_on_c, 7, 41, 0
9, 42720, Note_on_c, 7, 41, 106
9, 42720, Note_on_c, 7, 53, 76
9, 42764, Note_on_c, 7, 53, 0
9, 42764, Note_on_c, 7, 41, 0
9, 42816, Note_on_c, 7, 41, 106
9, 42816, Note_on_c, 7, 53, 76
9, 42860, Note_on_c, 7, 53, 0
9, 42860, Note_on_c, 7, 41, 0
9, 42912, Note_on_c, 7, 41, 106
9, 42912, Note_on_c, 7, 53, 76
9, 42956, Note_on_c, 7, 53, 0
9, 42956, Note_on_c, 7, 41, 0
9, 43008, Note_on_c, 7, 39, 106
9, 43008, Note_on_c, 7, 51, 76
9, 43052, Note_on_c, 7, 51, 0
9, 43052, Note_on_c, 7, 39, 0
9, 43104, Note_on_c, 7, 43, 106
9, 43104, Note_on_c, 7, 55, 76
9, 43148, Note_on_c, 7, 55, 0
9, 43148, Note_on_c, 7, 43, 0
9, 43200, Note_on_c, 7, 46, 106
9, 43200, Note_on_c, 7, 58, 76
9, 43244, Note_on_c, 7, 58, 0
9, 43244, Note_on_c, 7, 46, 0
9, 43296, Note_on_c, 7, 43, 106
9, 43296, Note_on_c, 7, 55, 76
9, 43340, Note_on_c, 7, 55, 0
9, 43340, Note_on_c, 7, 43, 0
9, 43392, Note_on_c, 7, 34, 106
9, 43392, Note_on_c, 7, 46, 76
9, 43436, Note_on_c, 7, 46, 0
9, 43436, Note_on_c, 7, 34, 0
9, 43488, Note_on_c, 7, 38, 106
9, 43488, Note_on_c, 7, 50, 76
9, 43532, Note_on_c, 7, 50, 0
9, 43532, Note_on_c, 7, 38, 0
9, 43584, Note_on_c, 7, 41, 106
9, 43584, Note_on_c, 7, 53, 76
9, 43612, Note_on_c, 7, 53, 0
9, 43612, Note_on_c, 7, 41, 0
9, 43632, Note_on_c, 7, 39, 106
9, 43632, Note_on_c, 7, 51, 76
9, 43667, Note_on_c, 7, 51, 0
9, 43667, Note_on_c, 7, 39, 0
9, 43680, Note_on_c, 7, 38, 106
9, 43680, Note_on_c, 7, 50, 76
9, 43708, Note_on_c, 7, 50, 0
9, 43708, Note_on_c, 7, 38, 0
9, 43728, Note_on_c, 7, 36, 106
9, 43728, Note_on_c, 7, 48, 76
9, 43756, Note_on_c, 7, 48, 0
9, 43756, Note_on_c, 7, 36, 0
9, 43776, Note_on_c, 7, 46, 100
9, 43776, Note_on_c, 7, 34, 100
9, 44956, Note_on_c, 7, 34, 0
9, 45147, Pitch_bend_c, 7, 8155
9, 45150, Pitch_bend_c, 7, 8136
9, 45153, Pitch_bend_c, 7, 8112
9, 45156, Pitch_bend_c, 7, 8083
9, 45158, Pitch_bend_c, 7, 8052
9, 45161, Pitch_bend_c, 7, 8012
9, 45164, Pitch_bend_c, 7, 7967
9, 45167, Pitch_bend_c, 7, 7918
9, 45170, Pitch_bend_c, 7, 7869
9, 45173, Pitch_bend_c, 7, 7813
9, 45176, Pitch_bend_c, 7, 7754
9, 45178, Pitch_bend_c, 7, 7691
9, 45181, Pitch_bend_c, 7, 7622
9, 45184, Pitch_bend_c, 7, 7551
9, 45187, Pitch_bend_c, 7, 7472
9, 45190, Pitch_bend_c, 7, 7382
9, 45193, Pitch_bend_c, 7, 7294
9, 45196, Pitch_bend_c, 7, 7206
9, 45198, Pitch_bend_c, 7, 7110
9, 45201, Pitch_bend_c, 7, 7012
9, 45204, Pitch_bend_c, 7, 6910
9, 45207, Pitch_bend_c, 7, 6801
9, 45210, Pitch_bend_c, 7, 6692
9, 45213, Pitch_bend_c, 7, 6557
9, 45216, Pitch_bend_c, 7, 6439
9, 45218, Pitch_bend_c, 7, 6311
9, 45221, Pitch_bend_c, 7, 6183
9, 45224, Pitch_bend_c, 7, 6048
9, 45227, Pitch_bend_c, 7, 5911
9, 45230, Pitch_bend_c, 7, 5769
9, 45232, Pitch_bend_c, 7, 5622
9, 45236, Pitch_bend_c, 7, 5450
9, 45238, Pitch_bend_c, 7, 5293
9, 45241, Pitch_bend_c, 7, 5135
9, 45244, Pitch_bend_c, 7, 4968
9, 45247, Pitch_bend_c, 7, 4801
9, 45250, Pitch_bend_c, 7, 4627
9, 45252, Pitch_bend_c, 7, 4450
9, 45255, Pitch_bend_c, 7, 4269
9, 45258, Pitch_bend_c, 7, 4083
9, 45261, Pitch_bend_c, 7, 3866
9, 45264, Pitch_bend_c, 7, 3669
9, 45267, Pitch_bend_c, 7, 3472
9, 45270, Pitch_bend_c, 7, 3266
9, 45272, Pitch_bend_c, 7, 3059
9, 45275, Pitch_bend_c, 7, 2846
9, 45278, Pitch_bend_c, 7, 2630
9, 45281, Pitch_bend_c, 7, 2410
9, 45284, Pitch_bend_c, 7, 2151
9, 45287, Pitch_bend_c, 7, 1922
9, 45290, Pitch_bend_c, 7, 1686
9, 45292, Pitch_bend_c, 7, 1450
9, 45295, Pitch_bend_c, 7, 1205
9, 45298, Pitch_bend_c, 7, 959
9, 45301, Pitch_bend_c, 7, 706
9, 45302, Note_on_c, 7, 46, 0
9, 45304, Pitch_bend_c, 7, 450
9, 45307, Pitch_bend_c, 7, 153
9, 45310, Pitch_bend_c, 7, 0
9, 45312, Note_on_c, 7, 41, 122
9, 45312, Pitch_bend_c, 7, 8192
9, 45376, Note_on_c, 7, 41, 0
9, 45408, Note_on_c, 7, 44, 76
9, 45468, Note_on_c, 7, 44, 0
9, 45504, Note_on_c, 7, 48, 96
9, 45564, Note_on_c, 7, 48, 0
9, 45600, Note_on_c, 7, 44, 76
9, 45660, Note_on_c, 7, 44, 0
9, 45696, Note_on_c, 7, 41, 122
9, 45760, Note_on_c, 7, 41, 0
9, 45792, Note_on_c, 7, 44, 76
9, 45852, Note_on_c, 7, 44, 0
9, 45888, Note_on_c, 7, 48, 96
9, 45948, Note_on_c, 7, 48, 0
9, 45984, Note_on_c, 7, 44, 76
9, 46044, Note_on_c, 7, 44, 0
9, 46079, Control_c, 7, 7, 114
9, 46080, Note_on_c, 7, 41, 122
9, 46080, Control_c, 7, 7, 100
9, 46080, Note_on_c, 7, 44, 76
9, 46140, Note_on_c, 7, 44, 0
9, 46144, Note_on_c, 7, 41, 0
9, 46176, Note_on_c, 7, 41, 82
9, 46176, Note_on_c, 7, 44, 82
9, 46236, Note_on_c, 7, 44, 0
9, 46240, Note_on_c, 7, 41, 0
9, 46272, Note_on_c, 7, 41, 122
9, 46272, Note_on_c, 7, 44, 76
9, 46332, Note_on_c, 7, 44, 0
9, 46336, Note_on_c, 7, 41, 0
9, 46368, Note_on_c, 7, 41, 82
9, 46368, Note_on_c, 7, 44, 82
9, 46428, Note_on_c, 7, 44, 0
9, 46432, Note_on_c, 7, 41, 0
9, 46464, Note_on_c, 7, 39, 122
9, 46464, Note_on_c, 7, 44, 76
9, 46524, Note_on_c, 7, 44, 0
9, 46528, Note_on_c, 7, 39, 0
9, 46560, Note_on_c, 7, 39, 82
9, 46560, Note_on_c, 7, 44, 82
9, 46620, Note_on_c, 7, 44, 0
9, 46624, Note_on_c, 7, 39, 0
9, 46656, Note_on_c, 7, 39, 122
9, 46656, Note_on_c, 7, 44, 76
9, 46716, Note_on_c, 7, 44, 0
9, 46720, Note_on_c, 7, 39, 0
9, 46752, Note_on_c, 7, 39, 82
9, 46752, Note_on_c, 7, 44, 82
9, 46812, Note_on_c, 7, 44, 0
9, 46816, Note_on_c, 7, 39, 0
9, 46848, Note_on_c, 7, 38, 122
9, 46848, Note_on_c, 7, 43, 76
9, 46908, Note_on_c, 7, 43, 0
9, 46912, Note_on_c, 7, 38, 0
9, 46944, Note_on_c, 7, 38, 82
9, 46944, Note_on_c, 7, 43, 82
9, 47002, Note_on_c, 7, 43, 0
9, 47006, Note_on_c, 7, 38, 0
9, 47040, Note_on_c, 7, 38, 122
9, 47040, Note_on_c, 7, 43, 76
9, 47096, Note_on_c, 7, 43, 0
9, 47100, Note_on_c, 7, 38, 0
9, 47136, Note_on_c, 7, 38, 82
9, 47136, Note_on_c, 7, 43, 82
9, 47190, Note_on_c, 7, 43, 0
9, 47194, Note_on_c, 7, 38, 0
9, 47232, Note_on_c, 7, 38, 122
9, 47232, Note_on_c, 7, 43, 76
9, 47285, Note_on_c, 7, 43, 0
9, 47288, Note_on_c, 7, 38, 0
9, 47328, Note_on_c, 7, 38, 82
9, 47328, Note_on_c, 7, 43, 82
9, 47379, Note_on_c, 7, 43, 0
9, 47382, Note_on_c, 7, 38, 0
9, 47424, Note_on_c, 7, 38, 122
9, 47424, Note_on_c, 7, 43, 76
9, 47473, Note_on_c, 7, 43, 0
9, 47476, Note_on_c, 7, 38, 0
9, 47520, Note_on_c, 7, 38, 82
9, 47520, Note_on_c, 7, 43, 82
9, 47568, Note_on_c, 7, 43, 0
9, 47571, Note_on_c, 7, 38, 0
9, 47616, Note_on_c, 7, 38, 122
9, 47616, Note_on_c, 7, 43, 76
9, 47662, Note_on_c, 7, 43, 0
9, 47665, Note_on_c, 7, 38, 0
9, 47712, Note_on_c, 7, 38, 82
9, 47712, Note_on_c, 7, 43, 82
9, 47756, Note_on_c, 7, 43, 0
9, 47760, Note_on_c, 7, 38, 0
9, 47808, Note_on_c, 7, 38, 122
9, 47808, Note_on_c, 7, 43, 76
9, 47851, Note_on_c, 7, 43, 0
9, 47854, Note_on_c, 7, 38, 0
9, 47904, Note_on_c, 7, 38, 82
9, 47904, Note_on_c, 7, 43, 82
9, 47945, Note_on_c, 7, 43, 0
9, 47948, Note_on_c, 7, 38, 0
9, 48000, Note_on_c, 7, 38, 122
9, 48000, Note_on_c, 7, 43, 76
9, 48040, Note_on_c, 7, 43, 0
9, 48042, Note_on_c, 7, 38, 0
9, 48096, Note_on_c, 7, 38, 82
9, 48096, Note_on_c, 7, 43, 82
9, 48134, Note_on_c, 7, 43, 0
9, 48136, Note_on_c, 7, 38, 0
9, 48192, Note_on_c, 7, 38, 122
9, 48192, Note_on_c, 7, 43, 76
9, 48228, Note_on_c, 7, 43, 0
9, 48230, Note_on_c, 7, 38, 0
9, 48288, Note_on_c, 7, 38, 82
9, 48288, Note_on_c, 7, 43, 82
9, 48322, Note_on_c, 7, 43, 0
9, 48324, Note_on_c, 7, 38, 0
9, 48384, Control_c, 7, 7, 112
9, 48384, Note_on_c, 7, 39, 122
9, 48646, Note_on_c, 7, 39, 0
9, 48649, Note_on_c, 7, 41, 122
9, 48768, Note_on_c, 7, 41, 0
9, 48768, Note_on_c, 7, 43, 122
9, 48960, Note_on_c, 7, 43, 0
9, 48960, Note_on_c, 7, 47, 116
9, 49008, Note_on_c, 7, 50, 116
9, 49009, Note_on_c, 7, 47, 0
9, 49049, Control_c, 7, 7, 112
9, 49049, Control_c, 7, 7, 100
9, 49051, Note_on_c, 7, 50, 0
9, 49056, Note_on_c, 7, 50, 116
9, 49056, Note_on_c, 7, 38, 116
9, 49516, Pitch_bend_c, 7, 8192
9, 49531, Note_on_c, 7, 38, 0
9, 49531, Note_on_c, 7, 50, 0
9, 49536, Note_on_c, 7, 51, 102
9, 49536, Pitch_bend_c, 7, 256
9, 49538, Pitch_bend_c, 7, 533
9, 49541, Pitch_bend_c, 7, 811
9, 49544, Pitch_bend_c, 7, 1089
9, 49547, Pitch_bend_c, 7, 1367
9, 49550, Pitch_bend_c, 7, 1644
9, 49552, Pitch_bend_c, 7, 1922
9, 49556, Pitch_bend_c, 7, 2239
9, 49558, Pitch_bend_c, 7, 2517
9, 49561, Pitch_bend_c, 7, 2795
9, 49564, Pitch_bend_c, 7, 3073
9, 49567, Pitch_bend_c, 7, 3351
9, 49570, Pitch_bend_c, 7, 3628
9, 49572, Pitch_bend_c, 7, 3906
9, 49576, Pitch_bend_c, 7, 4223
9, 49578, Pitch_bend_c, 7, 4501
9, 49581, Pitch_bend_c, 7, 4779
9, 49584, Pitch_bend_c, 7, 5057
9, 49587, Pitch_bend_c, 7, 5335
9, 49590, Pitch_bend_c, 7, 5612
9, 49592, Pitch_bend_c, 7, 5890
9, 49596, Pitch_bend_c, 7, 6207
9, 49598, Pitch_bend_c, 7, 6485
9, 49601, Pitch_bend_c, 7, 6763
9, 49604, Pitch_bend_c, 7, 7041
9, 49607, Pitch_bend_c, 7, 7318
9, 49610, Pitch_bend_c, 7, 7596
9, 49612, Pitch_bend_c, 7, 7874
9, 49615, Pitch_bend_c, 7, 8192
9, 49820, Note_on_c, 7, 51, 0
9, 49824, Note_on_c, 7, 51, 102
9, 49824, Pitch_bend_c, 7, 256
9, 49826, Pitch_bend_c, 7, 533
9, 49829, Pitch_bend_c, 7, 811
9, 49832, Pitch_bend_c, 7, 1089
9, 49835, Pitch_bend_c, 7, 1367
9, 49838, Pitch_bend_c, 7, 1644
9, 49840, Pitch_bend_c, 7, 1922
9, 49844, Pitch_bend_c, 7, 2239
9, 49846, Pitch_bend_c, 7, 2517
9, 49849, Pitch_bend_c, 7, 2795
9, 49852, Pitch_bend_c, 7, 3073
9, 49855, Pitch_bend_c, 7, 3351
9, 49858, Pitch_bend_c, 7, 3628
9, 49860, Pitch_bend_c, 7, 3906
9, 49864, Pitch_bend_c, 7, 4223
9, 49866, Pitch_bend_c, 7, 4501
9, 49869, Pitch_bend_c, 7, 4779
9, 49872, Pitch_bend_c, 7, 5057
9, 49875, Pitch_bend_c, 7, 5335
9, 49878, Pitch_bend_c, 7, 5612
9, 49880, Pitch_bend_c, 7, 5890
9, 49884, Pitch_bend_c, 7, 6207
9, 49886, Pitch_bend_c, 7, 6485
9, 49889, Pitch_bend_c, 7, 6763
9, 49892, Pitch_bend_c, 7, 7041
9, 49895, Pitch_bend_c, 7, 7318
9, 49898, Pitch_bend_c, 7, 7596
9, 49900, Pitch_bend_c, 7, 7874
9, 49903, Pitch_bend_c, 7, 8192
9, 50064, Pitch_bend_c, 7, 8192
9, 50066, Pitch_bend_c, 7, 7714
9, 50069, Pitch_bend_c, 7, 7236
9, 50072, Pitch_bend_c, 7, 6758
9, 50075, Pitch_bend_c, 7, 6280
9, 50078, Pitch_bend_c, 7, 5802
9, 50080, Pitch_bend_c, 7, 5324
9, 50083, Pitch_bend_c, 7, 4846
9, 50086, Pitch_bend_c, 7, 4369
9, 50089, Pitch_bend_c, 7, 3891
9, 50092, Pitch_bend_c, 7, 3413
9, 50094, Pitch_bend_c, 7, 2935
9, 50097, Pitch_bend_c, 7, 2457
9, 50100, Pitch_bend_c, 7, 1979
9, 50103, Pitch_bend_c, 7, 1501
9, 50106, Pitch_bend_c, 7, 1024
9, 50108, Pitch_bend_c, 7, 546
9, 50111, Pitch_bend_c, 7, 0
9, 50112, Note_on_c, 7, 46, 102
9, 50112, Pitch_bend_c, 7, 8192
9, 50115, Note_on_c, 7, 51, 0
9, 50495, Note_on_c, 7, 43, 102
9, 50498, Note_on_c, 7, 46, 0
9, 50865, Note_on_c, 7, 43, 0
9, 50880, Pitch_bend_c, 7, 256
9, 50880, Note_on_c, 7, 51, 102
9, 50882, Pitch_bend_c, 7, 533
9, 50885, Pitch_bend_c, 7, 811
9, 50888, Pitch_bend_c, 7, 1089
9, 50891, Pitch_bend_c, 7, 1367
9, 50894, Pitch_bend_c, 7, 1644
9, 50896, Pitch_bend_c, 7, 1922
9, 50900, Pitch_bend_c, 7, 2239
9, 50902, Pitch_bend_c, 7, 2517
9, 50905, Pitch_bend_c, 7, 2795
9, 50908, Pitch_bend_c, 7, 3073
9, 50911, Pitch_bend_c, 7, 3351
9, 50914, Pitch_bend_c, 7, 3628
9, 50916, Pitch_bend_c, 7, 3906
9, 50920, Pitch_bend_c, 7, 4223
9, 50922, Pitch_bend_c, 7, 4501
9, 50925, Pitch_bend_c, 7, 4779
9, 50928, Pitch_bend_c, 7, 5057
9, 50931, Pitch_bend_c, 7, 5335
9, 50934, Pitch_bend_c, 7, 5612
9, 50936, Pitch_bend_c, 7, 5890
9, 50940, Pitch_bend_c, 7, 6207
9, 50942, Pitch_bend_c, 7, 6485
9, 50945, Pitch_bend_c, 7, 6763
9, 50948, Pitch_bend_c, 7, 7041
9, 50951, Pitch_bend_c, 7, 7318
9, 50954, Pitch_bend_c, 7, 7596
9, 50956, Pitch_bend_c, 7, 7874
9, 50959, Pitch_bend_c, 7, 8192
9, 51164, Note_on_c, 7, 51, 0
9, 51168, Note_on_c, 7, 51, 102
9, 51168, Pitch_bend_c, 7, 256
9, 51170, Pitch_bend_c, 7, 533
9, 51173, Pitch_bend_c, 7, 811
9, 51176, Pitch_bend_c, 7, 1089
9, 51179, Pitch_bend_c, 7, 1367
9, 51182, Pitch_bend_c, 7, 1644
9, 51184, Pitch_bend_c, 7, 1922
9, 51188, Pitch_bend_c, 7, 2239
9, 51190, Pitch_bend_c, 7, 2517
9, 51193, Pitch_bend_c, 7, 2795
9, 51196, Pitch_bend_c, 7, 3073
9, 51199, Pitch_bend_c, 7, 3351
9, 51202, Pitch_bend_c, 7, 3628
9, 51204, Pitch_bend_c, 7, 3906
9, 51208, Pitch_bend_c, 7, 4223
9, 51210, Pitch_bend_c, 7, 4501
9, 51213, Pitch_bend_c, 7, 4779
9, 51216, Pitch_bend_c, 7, 5057
9, 51219, Pitch_bend_c, 7, 5335
9, 51222, Pitch_bend_c, 7, 5612
9, 51224, Pitch_bend_c, 7, 5890
9, 51228, Pitch_bend_c, 7, 6207
9, 51230, Pitch_bend_c, 7, 6485
9, 51233, Pitch_bend_c, 7, 6763
9, 51236, Pitch_bend_c, 7, 7041
9, 51239, Pitch_bend_c, 7, 7318
9, 51242, Pitch_bend_c, 7, 7596
9, 51244, Pitch_bend_c, 7, 7874
9, 51247, Pitch_bend_c, 7, 8192
9, 51408, Pitch_bend_c, 7, 8192
9, 51410, Pitch_bend_c, 7, 7714
9, 51413, Pitch_bend_c, 7, 7236
9, 51416, Pitch_bend_c, 7, 6758
9, 51419, Pitch_bend_c, 7, 6280
9, 51422, Pitch_bend_c, 7, 5802
9, 51424, Pitch_bend_c, 7, 5324
9, 51427, Pitch_bend_c, 7, 4846
9, 51430, Pitch_bend_c, 7, 4369
9, 51433, Pitch_bend_c, 7, 3891
9, 51436, Pitch_bend_c, 7, 3413
9, 51438, Pitch_bend_c, 7, 2935
9, 51441, Pitch_bend_c, 7, 2457
9, 51444, Pitch_bend_c, 7, 1979
9, 51447, Pitch_bend_c, 7, 1501
9, 51450, Pitch_bend_c, 7, 1024
9, 51452, Pitch_bend_c, 7, 546
9, 51455, Pitch_bend_c, 7, 0
9, 51456, Note_on_c, 7, 46, 102
9, 51456, Pitch_bend_c, 7, 8192
9, 51459, Note_on_c, 7, 51, 0
9, 52032, Note_on_c, 7, 51, 102
9, 52032, Pitch_bend_c, 7, 256
9, 52034, Note_on_c, 7, 46, 0
9, 52034, Pitch_bend_c, 7, 533
9, 52037, Pitch_bend_c, 7, 811
9, 52040, Pitch_bend_c, 7, 1089
9, 52043, Pitch_bend_c, 7, 1367
9, 52046, Pitch_bend_c, 7, 1644
9, 52048, Pitch_bend_c, 7, 1922
9, 52052, Pitch_bend_c, 7, 2239
9, 52054, Pitch_bend_c, 7, 2517
9, 52057, Pitch_bend_c, 7, 2795
9, 52060, Pitch_bend_c, 7, 3073
9, 52063, Pitch_bend_c, 7, 3351
9, 52066, Pitch_bend_c, 7, 3628
9, 52068, Pitch_bend_c, 7, 3906
9, 52072, Pitch_bend_c, 7, 4223
9, 52074, Pitch_bend_c, 7, 4501
9, 52077, Pitch_bend_c, 7, 4779
9, 52080, Pitch_bend_c, 7, 5057
9, 52083, Pitch_bend_c, 7, 5335
9, 52086, Pitch_bend_c, 7, 5612
9, 52088, Pitch_bend_c, 7, 5890
9, 52092, Pitch_bend_c, 7, 6207
9, 52094, Pitch_bend_c, 7, 6485
9, 52097, Pitch_bend_c, 7, 6763
9, 52100, Pitch_bend_c, 7, 7041
9, 52103, Pitch_bend_c, 7, 7318
9, 52106, Pitch_bend_c, 7, 7596
9, 52108, Pitch_bend_c, 7, 7874
9, 52111, Pitch_bend_c, 7, 8192
9, 52316, Note_on_c, 7, 51, 0
9, 52320, Note_on_c, 7, 53, 102
9, 52320, Pitch_bend_c, 7, 256
9, 52322, Pitch_bend_c, 7, 533
9, 52325, Pitch_bend_c, 7, 811
9, 52328, Pitch_bend_c, 7, 1089
9, 52331, Pitch_bend_c, 7, 1367
9, 52334, Pitch_bend_c, 7, 1644
9, 52336, Pitch_bend_c, 7, 1922
9, 52340, Pitch_bend_c, 7, 2239
9, 52342, Pitch_bend_c, 7, 2517
9, 52345, Pitch_bend_c, 7, 2795
9, 52348, Pitch_bend_c, 7, 3073
9, 52351, Pitch_bend_c, 7, 3351
9, 52354, Pitch_bend_c, 7, 3628
9, 52356, Pitch_bend_c, 7, 3906
9, 52360, Pitch_bend_c, 7, 4223
9, 52362, Pitch_bend_c, 7, 4501
9, 52365, Pitch_bend_c, 7, 4779
9, 52368, Pitch_bend_c, 7, 5057
9, 52371, Pitch_bend_c, 7, 5335
9, 52374, Pitch_bend_c, 7, 5612
9, 52376, Pitch_bend_c, 7, 5890
9, 52380, Pitch_bend_c, 7, 6207
9, 52382, Pitch_bend_c, 7, 6485
9, 52385, Pitch_bend_c, 7, 6763
9, 52388, Pitch_bend_c, 7, 7041
9, 52391, Pitch_bend_c, 7, 7318
9, 52394, Pitch_bend_c, 7, 7596
9, 52396, Pitch_bend_c, 7, 7874
9, 52399, Pitch_bend_c, 7, 8192
9, 52560, Pitch_bend_c, 7, 8192
9, 52562, Pitch_bend_c, 7, 7714
9, 52565, Pitch_bend_c, 7, 7236
9, 52568, Pitch_bend_c, 7, 6758
9, 52571, Pitch_bend_c, 7, 6280
9, 52574, Pitch_bend_c, 7, 5802
9, 52576, Pitch_bend_c, 7, 5324
9, 52579, Pitch_bend_c, 7, 4846
9, 52582, Pitch_bend_c, 7, 4369
9, 52585, Pitch_bend_c, 7, 3891
9, 52588, Pitch_bend_c, 7, 3413
9, 52590, Pitch_bend_c, 7, 2935
9, 52593, Pitch_bend_c, 7, 2457
9, 52596, Pitch_bend_c, 7, 1979
9, 52599, Pitch_bend_c, 7, 1501
9, 52602, Pitch_bend_c, 7, 1024
9, 52604, Pitch_bend_c, 7, 546
9, 52607, Pitch_bend_c, 7, 0
9, 52608, Note_on_c, 7, 51, 102
9, 52608, Pitch_bend_c, 7, 8192
9, 52608, Control_c, 7, 7, 100
9, 52611, Note_on_c, 7, 53, 0
9, 52611, Pitch_bend_c, 7, 533
9, 52614, Pitch_bend_c, 7, 811
9, 52617, Pitch_bend_c, 7, 1089
9, 52620, Pitch_bend_c, 7, 1367
9, 52621, Control_c, 7, 7, 99
9, 52622, Pitch_bend_c, 7, 1644
9, 52625, Pitch_bend_c, 7, 1922
9, 52628, Pitch_bend_c, 7, 2239
9, 52631, Pitch_bend_c, 7, 2517
9, 52634, Pitch_bend_c, 7, 2795
9, 52635, Control_c, 7, 7, 98
9, 52637, Pitch_bend_c, 7, 3073
9, 52640, Pitch_bend_c, 7, 3351
9, 52642, Pitch_bend_c, 7, 3628
9, 52645, Pitch_bend_c, 7, 3906
9, 52648, Pitch_bend_c, 7, 4223
9, 52649, Control_c, 7, 7, 97
9, 52651, Pitch_bend_c, 7, 4501
9, 52654, Pitch_bend_c, 7, 4779
9, 52657, Pitch_bend_c, 7, 5057
9, 52660, Pitch_bend_c, 7, 5335
9, 52662, Pitch_bend_c, 7, 5612
9, 52663, Control_c, 7, 7, 96
9, 52665, Pitch_bend_c, 7, 5890
9, 52668, Pitch_bend_c, 7, 6207
9, 52671, Pitch_bend_c, 7, 6485
9, 52674, Pitch_bend_c, 7, 6763
9, 52676, Control_c, 7, 7, 95
9, 52677, Pitch_bend_c, 7, 7041
9, 52680, Pitch_bend_c, 7, 7318
9, 52682, Pitch_bend_c, 7, 7596
9, 52685, Pitch_bend_c, 7, 7874
9, 52688, Pitch_bend_c, 7, 8192
9, 52690, Control_c, 7, 7, 94
9, 52704, Control_c, 7, 7, 93
9, 52718, Control_c, 7, 7, 92
9, 52732, Control_c, 7, 7, 91
9, 52746, Control_c, 7, 7, 90
9, 52760, Control_c, 7, 7, 89
9, 52773, Control_c, 7, 7, 88
9, 52787, Control_c, 7, 7, 87
9, 52801, Control_c, 7, 7, 86
9, 52815, Control_c, 7, 7, 85
9, 52828, Control_c, 7, 7, 84
9, 52842, Control_c, 7, 7, 83
9, 52856, Control_c, 7, 7, 82
9, 52870, Control_c, 7, 7, 81
9, 52884, Control_c, 7, 7, 80
9, 52898, Control_c, 7, 7, 79
9, 52912, Control_c, 7, 7, 78
9, 52925, Control_c, 7, 7, 77
9, 52939, Control_c, 7, 7, 76
9, 52953, Control_c, 7, 7, 75
9, 52967, Control_c, 7, 7, 74
9, 52980, Control_c, 7, 7, 73
9, 52994, Control_c, 7, 7, 72
9, 53008, Control_c, 7, 7, 71
9, 53022, Control_c, 7, 7, 70
9, 53036, Control_c, 7, 7, 69
9, 53050, Control_c, 7, 7, 68
9, 53064, Control_c, 7, 7, 67
9, 53077, Control_c, 7, 7, 66
9, 53091, Control_c, 7, 7, 65
9, 53105, Control_c, 7, 7, 64
9, 53119, Control_c, 7, 7, 63
9, 53132, Control_c, 7, 7, 62
9, 53146, Control_c, 7, 7, 61
9, 53160, Control_c, 7, 7, 60
9, 53174, Control_c, 7, 7, 59
9, 53188, Control_c, 7, 7, 58
9, 53202, Control_c, 7, 7, 57
9, 53216, Control_c, 7, 7, 56
9, 53229, Control_c, 7, 7, 55
9, 53243, Control_c, 7, 7, 54
9, 53257, Control_c, 7, 7, 53
9, 53271, Control_c, 7, 7, 52
9, 53284, Control_c, 7, 7, 51
9, 53298, Control_c, 7, 7, 50
9, 53312, Control_c, 7, 7, 49
9, 53326, Control_c, 7, 7, 48
9, 53340, Control_c, 7, 7, 47
9, 53354, Control_c, 7, 7, 46
9, 53368, Control_c, 7, 7, 45
9, 53381, Control_c, 7, 7, 44
9, 53384, Note_on_c, 7, 51, 0
9, 53395, Control_c, 7, 7, 43
9, 53409, Control_c, 7, 7, 42
9, 53423, Control_c, 7, 7, 41
9, 53436, Control_c, 7, 7, 40
9, 53450, Control_c, 7, 7, 39
9, 53464, Control_c, 7, 7, 38
9, 53478, Control_c, 7, 7, 37
9, 53492, Control_c, 7, 7, 36
9, 53506, Control_c, 7, 7, 35
9, 53519, Control_c, 7, 7, 34
9, 53632, Control_c, 7, 7, 125
9, 53900, Note_on_c, 7, 51, 76
9, 53904, Pitch_bend_c, 7, 3840
9, 53906, Pitch_bend_c, 7, 4093
9, 53910, Pitch_bend_c, 7, 4383
9, 53912, Pitch_bend_c, 7, 4637
9, 53916, Pitch_bend_c, 7, 4927
9, 53918, Pitch_bend_c, 7, 5181
9, 53922, Pitch_bend_c, 7, 5471
9, 53924, Pitch_bend_c, 7, 5725
9, 53928, Pitch_bend_c, 7, 6015
9, 53930, Pitch_bend_c, 7, 6269
9, 53934, Pitch_bend_c, 7, 6559
9, 53936, Pitch_bend_c, 7, 6813
9, 53940, Pitch_bend_c, 7, 7103
9, 53942, Pitch_bend_c, 7, 7357
9, 53946, Pitch_bend_c, 7, 7647
9, 53948, Pitch_bend_c, 7, 7901
9, 53951, Pitch_bend_c, 7, 8192
9, 54032, Pitch_bend_c, 7, 8192
9, 54035, Pitch_bend_c, 7, 7372
9, 54038, Pitch_bend_c, 7, 6553
9, 54041, Pitch_bend_c, 7, 5734
9, 54044, Pitch_bend_c, 7, 4915
9, 54047, Pitch_bend_c, 7, 4096
9, 54130, Note_on_c, 7, 51, 0
9, 54144, Note_on_c, 7, 46, 76
9, 54144, Pitch_bend_c, 7, 8192
9, 54224, Pitch_bend_c, 7, 8192
9, 54227, Pitch_bend_c, 7, 6553
9, 54230, Pitch_bend_c, 7, 4915
9, 54233, Pitch_bend_c, 7, 3276
9, 54236, Pitch_bend_c, 7, 1638
9, 54239, Pitch_bend_c, 7, 0
9, 55080, Note_on_c, 7, 46, 0
9, 55104, Note_on_c, 7, 46, 76
9, 55104, Pitch_bend_c, 7, 8192
9, 55240, Note_on_c, 7, 46, 0
9, 55296, Note_on_c, 7, 58, 76
9, 55432, Note_on_c, 7, 58, 0
9, 55488, Note_on_c, 7, 51, 76
9, 55536, Note_on_c, 7, 51, 0
9, 55584, Note_on_c, 7, 53, 76
9, 55632, Note_on_c, 7, 53, 0
9, 55680, Note_on_c, 7, 55, 76
9, 55728, Note_on_c, 7, 55, 0
9, 55776, Note_on_c, 7, 51, 76
9, 55824, Note_on_c, 7, 51, 0
9, 55872, Note_on_c, 7, 48, 76
9, 55920, Note_on_c, 7, 48, 0
9, 55968, Note_on_c, 7, 50, 76
9, 56016, Note_on_c, 7, 50, 0
9, 56064, Note_on_c, 7, 51, 76
9, 56112, Note_on_c, 7, 51, 0
9, 56160, Note_on_c, 7, 53, 76
9, 56208, Note_on_c, 7, 53, 0
9, 56256, Note_on_c, 7, 46, 76
9, 56624, Control_c, 7, 7, 114
9, 56633, Control_c, 7, 7, 112
9, 56643, Control_c, 7, 7, 111
9, 56653, Control_c, 7, 7, 110
9, 56662, Control_c, 7, 7, 109
9, 56672, Control_c, 7, 7, 108
9, 56682, Control_c, 7, 7, 107
9, 56692, Control_c, 7, 7, 106
9, 56702, Control_c, 7, 7, 104
9, 56711, Control_c, 7, 7, 103
9, 56721, Control_c, 7, 7, 102
9, 56731, Control_c, 7, 7, 101
9, 56740, Control_c, 7, 7, 100
9, 56750, Control_c, 7, 7, 99
9, 56760, Control_c, 7, 7, 98
9, 56770, Control_c, 7, 7, 96
9, 56780, Control_c, 7, 7, 95
9, 56789, Control_c, 7, 7, 94
9, 56796, Note_on_c, 7, 46, 0
9, 56799, Control_c, 7, 7, 93
9, 56809, Control_c, 7, 7, 92
9, 56819, Control_c, 7, 7, 91
9, 56828, Control_c, 7, 7, 90
9, 56832, Note_on_c, 7, 58, 76
9, 56838, Control_c, 7, 7, 88
9, 56848, Control_c, 7, 7, 87
9, 56858, Control_c, 7, 7, 86
9, 56868, Control_c, 7, 7, 85
9, 56877, Control_c, 7, 7, 84
9, 56887, Control_c, 7, 7, 83
9, 56897, Control_c, 7, 7, 82
9, 56906, Control_c, 7, 7, 80
9, 56916, Control_c, 7, 7, 79
9, 56926, Control_c, 7, 7, 78
9, 56936, Control_c, 7, 7, 77
9, 56946, Control_c, 7, 7, 76
9, 56955, Control_c, 7, 7, 75
9, 56965, Control_c, 7, 7, 74
9, 56975, Control_c, 7, 7, 72
9, 56984, Control_c, 7, 7, 71
9, 56994, Control_c, 7, 7, 70
9, 57004, Control_c, 7, 7, 69
9, 57014, Control_c, 7, 7, 68
9, 57024, Control_c, 7, 7, 67
9, 57033, Control_c, 7, 7, 66
9, 57043, Control_c, 7, 7, 64
9, 57053, Control_c, 7, 7, 63
9, 57063, Control_c, 7, 7, 62
9, 57072, Control_c, 7, 7, 61
9, 57082, Control_c, 7, 7, 60
9, 57092, Control_c, 7, 7, 59
9, 57102, Control_c, 7, 7, 58
9, 57112, Control_c, 7, 7, 57
9, 57121, Control_c, 7, 7, 55
9, 57131, Control_c, 7, 7, 54
9, 57141, Control_c, 7, 7, 53
9, 57150, Control_c, 7, 7, 52
9, 57160, Control_c, 7, 7, 51
9, 57170, Control_c, 7, 7, 50
9, 57180, Control_c, 7, 7, 49
9, 57190, Control_c, 7, 7, 47
9, 57199, Control_c, 7, 7, 46
9, 57209, Control_c, 7, 7, 45
9, 57219, Control_c, 7, 7, 44
9, 57228, Control_c, 7, 7, 43
9, 57238, Control_c, 7, 7, 42
9, 57248, Control_c, 7, 7, 41
9, 57258, Control_c, 7, 7, 39
9, 57268, Control_c, 7, 7, 38
9, 57277, Control_c, 7, 7, 37
9, 57287, Control_c, 7, 7, 36
9, 57297, Control_c, 7, 7, 35
9, 57307, Control_c, 7, 7, 34
9, 57316, Control_c, 7, 7, 33
9, 57326, Control_c, 7, 7, 31
9, 57336, Control_c, 7, 7, 30
9, 57346, Control_c, 7, 7, 29
9, 57356, Control_c, 7, 7, 28
9, 57365, Control_c, 7, 7, 27
9, 57375, Control_c, 7, 7, 26
9, 57385, Control_c, 7, 7, 25
9, 57394, Control_c, 7, 7, 23
9, 57404, Control_c, 7, 7, 22
9, 57414, Control_c, 7, 7, 21
9, 57424, Control_c, 7, 7, 20
9, 57434, Control_c, 7, 7, 19
9, 57443, Control_c, 7, 7, 18
9, 57453, Control_c, 7, 7, 17
9, 57463, Control_c, 7, 7, 15
9, 57472, Control_c, 7, 7, 14
9, 57482, Control_c, 7, 7, 13
9, 57492, Control_c, 7, 7, 12
9, 57502, Control_c, 7, 7, 11
9, 57512, Control_c, 7, 7, 10
9, 57521, Control_c, 7, 7, 9
9, 57531, Control_c, 7, 7, 7
9, 57541, Control_c, 7, 7, 6
9, 57551, Control_c, 7, 7, 5
9, 57560, Control_c, 7, 7, 4
9, 57570, Control_c, 7, 7, 3
9, 57580, Control_c, 7, 7, 2
9, 57590, Control_c, 7, 7, 1
9, 57592, Note_on_c, 7, 58, 0
9, 57592, Control_c, 7, 7, 2
9, 57962, Control_c, 7, 7, 2
9, 57964, Control_c, 7, 7, 126
9, 57984, Note_on_c, 7, 50, 64
9, 58032, Pitch_bend_c, 7, 8192
9, 58035, Pitch_bend_c, 7, 9011
9, 58038, Pitch_bend_c, 7, 9830
9, 58041, Pitch_bend_c, 7, 10649
9, 58044, Pitch_bend_c, 7, 11468
9, 58047, Pitch_bend_c, 7, 12288
9, 58096, Pitch_bend_c, 7, 12288
9, 58099, Pitch_bend_c, 7, 11468
9, 58102, Pitch_bend_c, 7, 10649
9, 58105, Pitch_bend_c, 7, 9830
9, 58108, Pitch_bend_c, 7, 9011
9, 58111, Pitch_bend_c, 7, 8192
9, 58160, Pitch_bend_c, 7, 8192
9, 58163, Pitch_bend_c, 7, 9011
9, 58166, Pitch_bend_c, 7, 9830
9, 58169, Pitch_bend_c, 7, 10649
9, 58172, Pitch_bend_c, 7, 11468
9, 58175, Pitch_bend_c, 7, 12288
9, 58224, Pitch_bend_c, 7, 12288
9, 58227, Pitch_bend_c, 7, 11468
9, 58230, Pitch_bend_c, 7, 10649
9, 58233, Pitch_bend_c, 7, 9830
9, 58236, Pitch_bend_c, 7, 9011
9, 58239, Pitch_bend_c, 7, 8192
9, 58288, Pitch_bend_c, 7, 8192
9, 58291, Pitch_bend_c, 7, 9011
9, 58294, Pitch_bend_c, 7, 9830
9, 58297, Pitch_bend_c, 7, 10649
9, 58300, Pitch_bend_c, 7, 11468
9, 58303, Pitch_bend_c, 7, 12288
9, 58336, Control_c, 7, 7, 127
9, 58345, Control_c, 7, 7, 127
9, 58352, Pitch_bend_c, 7, 12288
9, 58355, Pitch_bend_c, 7, 11468
9, 58355, Control_c, 7, 7, 126
9, 58358, Pitch_bend_c, 7, 10649
9, 58361, Pitch_bend_c, 7, 9830
9, 58364, Pitch_bend_c, 7, 9011
9, 58365, Control_c, 7, 7, 125
9, 58367, Pitch_bend_c, 7, 8192
9, 58375, Control_c, 7, 7, 124
9, 58385, Control_c, 7, 7, 123
9, 58395, Control_c, 7, 7, 121
9, 58404, Control_c, 7, 7, 120
9, 58414, Control_c, 7, 7, 118
9, 58416, Pitch_bend_c, 7, 8192
9, 58419, Pitch_bend_c, 7, 9011
9, 58422, Pitch_bend_c, 7, 9830
9, 58424, Control_c, 7, 7, 117
9, 58425, Pitch_bend_c, 7, 10649
9, 58428, Pitch_bend_c, 7, 11468
9, 58431, Pitch_bend_c, 7, 12288
9, 58434, Control_c, 7, 7, 116
9, 58444, Control_c, 7, 7, 115
9, 58454, Control_c, 7, 7, 114
9, 58464, Control_c, 7, 7, 112
9, 58474, Control_c, 7, 7, 111
9, 58480, Pitch_bend_c, 7, 12288
9, 58483, Pitch_bend_c, 7, 11468
9, 58483, Control_c, 7, 7, 109
9, 58486, Pitch_bend_c, 7, 10649
9, 58489, Pitch_bend_c, 7, 9830
9, 58492, Pitch_bend_c, 7, 9011
9, 58493, Control_c, 7, 7, 108
9, 58495, Pitch_bend_c, 7, 8192
9, 58503, Control_c, 7, 7, 107
9, 58513, Control_c, 7, 7, 106
9, 58523, Control_c, 7, 7, 104
9, 58533, Control_c, 7, 7, 103
9, 58542, Control_c, 7, 7, 102
9, 58544, Pitch_bend_c, 7, 8192
9, 58547, Pitch_bend_c, 7, 9011
9, 58550, Pitch_bend_c, 7, 9830
9, 58552, Control_c, 7, 7, 100
9, 58553, Pitch_bend_c, 7, 10649
9, 58556, Pitch_bend_c, 7, 11468
9, 58559, Pitch_bend_c, 7, 12288
9, 58562, Control_c, 7, 7, 99
9, 58572, Control_c, 7, 7, 98
9, 58582, Control_c, 7, 7, 96
9, 58592, Control_c, 7, 7, 95
9, 58602, Control_c, 7, 7, 94
9, 58608, Pitch_bend_c, 7, 12288
9, 58611, Pitch_bend_c, 7, 11468
9, 58612, Control_c, 7, 7, 93
9, 58614, Pitch_bend_c, 7, 10649
9, 58617, Pitch_bend_c, 7, 9830
9, 58620, Pitch_bend_c, 7, 9011
9, 58622, Control_c, 7, 7, 91
9, 58623, Pitch_bend_c, 7, 8192
9, 58631, Control_c, 7, 7, 90
9, 58641, Control_c, 7, 7, 88
9, 58651, Control_c, 7, 7, 87
9, 58661, Control_c, 7, 7, 86
9, 58671, Control_c, 7, 7, 85
9, 58672, Pitch_bend_c, 7, 8192
9, 58675, Pitch_bend_c, 7, 9011
9, 58678, Pitch_bend_c, 7, 9830
9, 58680, Control_c, 7, 7, 84
9, 58681, Pitch_bend_c, 7, 10649
9, 58684, Pitch_bend_c, 7, 11468
9, 58687, Pitch_bend_c, 7, 12288
9, 58690, Control_c, 7, 7, 82
9, 58700, Control_c, 7, 7, 80
9, 58710, Control_c, 7, 7, 79
9, 58720, Control_c, 7, 7, 78
9, 58730, Control_c, 7, 7, 77
9, 58736, Pitch_bend_c, 7, 12288
9, 58739, Pitch_bend_c, 7, 11468
9, 58740, Control_c, 7, 7, 76
9, 58742, Pitch_bend_c, 7, 10649
9, 58745, Pitch_bend_c, 7, 9830
9, 58748, Pitch_bend_c, 7, 9011
9, 58750, Control_c, 7, 7, 75
9, 58751, Pitch_bend_c, 7, 8192
9, 58760, Control_c, 7, 7, 72
9, 58769, Control_c, 7, 7, 71
9, 58779, Control_c, 7, 7, 70
9, 58789, Control_c, 7, 7, 69
9, 58799, Control_c, 7, 7, 68
9, 58800, Pitch_bend_c, 7, 8192
9, 58803, Pitch_bend_c, 7, 9011
9, 58806, Pitch_bend_c, 7, 9830
9, 58809, Control_c, 7, 7, 67
9, 58809, Pitch_bend_c, 7, 10649
9, 58812, Pitch_bend_c, 7, 11468
9, 58815, Pitch_bend_c, 7, 12288
9, 58819, Control_c, 7, 7, 66
9, 58828, Control_c, 7, 7, 64
9, 58838, Control_c, 7, 7, 62
9, 58848, Control_c, 7, 7, 61
9, 58858, Control_c, 7, 7, 60
9, 58864, Pitch_bend_c, 7, 12288
9, 58867, Pitch_bend_c, 7, 11468
9, 58868, Control_c, 7, 7, 59
9, 58870, Pitch_bend_c, 7, 10649
9, 58873, Pitch_bend_c, 7, 9830
9, 58876, Pitch_bend_c, 7, 9011
9, 58878, Control_c, 7, 7, 58
9, 58879, Pitch_bend_c, 7, 8192
9, 58888, Control_c, 7, 7, 57
9, 58898, Control_c, 7, 7, 55
9, 58907, Control_c, 7, 7, 53
9, 58917, Control_c, 7, 7, 52
9, 58927, Control_c, 7, 7, 51
9, 58928, Pitch_bend_c, 7, 8192
9, 58931, Pitch_bend_c, 7, 9011
9, 58934, Pitch_bend_c, 7, 9830
9, 58937, Control_c, 7, 7, 50
9, 58937, Pitch_bend_c, 7, 10649
9, 58940, Pitch_bend_c, 7, 11468
9, 58943, Pitch_bend_c, 7, 12288
9, 58947, Control_c, 7, 7, 49
9, 58957, Control_c, 7, 7, 47
9, 58966, Control_c, 7, 7, 46
9, 58976, Control_c, 7, 7, 44
9, 58986, Control_c, 7, 7, 43
9, 58992, Pitch_bend_c, 7, 12288
9, 58995, Pitch_bend_c, 7, 11468
9, 58996, Control_c, 7, 7, 42
9, 58998, Pitch_bend_c, 7, 10649
9, 59001, Pitch_bend_c, 7, 9830
9, 59004, Pitch_bend_c, 7, 9011
9, 59006, Control_c, 7, 7, 41
9, 59007, Pitch_bend_c, 7, 8192
9, 59016, Control_c, 7, 7, 39
9, 59026, Control_c, 7, 7, 38
9, 59036, Control_c, 7, 7, 37
9, 59045, Control_c, 7, 7, 35
9, 59055, Control_c, 7, 7, 34
9, 59056, Pitch_bend_c, 7, 8192
9, 59059, Pitch_bend_c, 7, 9011
9, 59062, Pitch_bend_c, 7, 9830
9, 59065, Pitch_bend_c, 7, 10649
9, 59065, Control_c, 7, 7, 33
9, 59068, Pitch_bend_c, 7, 11468
9, 59071, Pitch_bend_c, 7, 12288
9, 59075, Control_c, 7, 7, 31
9, 59085, Control_c, 7, 7, 30
9, 59095, Control_c, 7, 7, 29
9, 59104, Control_c, 7, 7, 28
9, 59114, Control_c, 7, 7, 26
9, 59120, Pitch_bend_c, 7, 12288
9, 59123, Pitch_bend_c, 7, 11468
9, 59124, Control_c, 7, 7, 25
9, 59126, Pitch_bend_c, 7, 10649
9, 59129, Pitch_bend_c, 7, 9830
9, 59132, Pitch_bend_c, 7, 9011
9, 59134, Note_on_c, 7, 50, 0
9, 59134, Control_c, 7, 7, 23
9, 59135, Pitch_bend_c, 7, 8192
9, 59144, Control_c, 7, 7, 22
9, 59154, Control_c, 7, 7, 21
9, 59164, Control_c, 7, 7, 20
9, 59174, Control_c, 7, 7, 19
9, 59183, Control_c, 7, 7, 17
9, 59272, Control_c, 7, 7, 126
9, 63744, Pitch_bend_c, 7, 8192
9, 63744, End_track
10, 0, Start_track
10, 0, MIDI_port, 0
10, 0, Title_t, "Drums 2"
10, 0, Program_c, 9, 0
10, 0, Control_c, 9, 7, 90
10, 0, Control_c, 9, 10, 6
10, 768, Control_c, 9, 93, 2
10, 768, Control_c, 9, 91, 2
10, 4378, Note_on_c, 9, 35, 99
10, 4473, Note_on_c, 9, 35, 0
10, 4474, Note_on_c, 9, 35, 100
10, 4569, Note_on_c, 9, 35, 0
10, 4608, Note_on_c, 9, 35, 100
10, 4704, Note_on_c, 9, 35, 0
10, 4992, Note_on_c, 9, 35, 100
10, 5064, Note_on_c, 9, 35, 0
10, 5087, Note_on_c, 9, 35, 100
10, 5183, Note_on_c, 9, 35, 0
10, 5279, Note_on_c, 9, 35, 100
10, 5356, Note_on_c, 9, 35, 0
10, 5376, Note_on_c, 9, 35, 100
10, 5472, Note_on_c, 9, 35, 0
10, 5760, Note_on_c, 9, 35, 100
10, 5832, Note_on_c, 9, 35, 0
10, 5855, Note_on_c, 9, 35, 100
10, 5935, Note_on_c, 9, 35, 0
10, 5952, Note_on_c, 9, 35, 100
10, 6024, Note_on_c, 9, 35, 0
10, 6047, Note_on_c, 9, 35, 100
10, 6127, Note_on_c, 9, 35, 0
10, 6144, Note_on_c, 9, 35, 100
10, 6240, Note_on_c, 9, 35, 0
10, 6528, Note_on_c, 9, 35, 100
10, 6600, Note_on_c, 9, 35, 0
10, 6623, Note_on_c, 9, 35, 100
10, 6719, Note_on_c, 9, 35, 0
10, 6815, Note_on_c, 9, 35, 100
10, 6892, Note_on_c, 9, 35, 0
10, 6912, Note_on_c, 9, 35, 100
10, 7008, Note_on_c, 9, 35, 0
10, 7296, Note_on_c, 9, 35, 100
10, 7368, Note_on_c, 9, 35, 0
10, 7391, Note_on_c, 9, 35, 100
10, 7487, Note_on_c, 9, 35, 0
10, 7680, Note_on_c, 9, 35, 100
10, 7752, Note_on_c, 9, 35, 0
10, 7967, Note_on_c, 9, 35, 100
10, 8044, Note_on_c, 9, 35, 0
10, 8064, Note_on_c, 9, 35, 100
10, 8136, Note_on_c, 9, 35, 0
10, 8159, Note_on_c, 9, 35, 100
10, 8255, Note_on_c, 9, 35, 0
10, 8351, Note_on_c, 9, 35, 100
10, 8428, Note_on_c, 9, 35, 0
10, 8448, Note_on_c, 9, 35, 100
10, 8520, Note_on_c, 9, 35, 0
10, 8832, Note_on_c, 9, 35, 100
10, 8928, Note_on_c, 9, 35, 0
10, 9120, Note_on_c, 9, 35, 100
10, 9216, Note_on_c, 9, 35, 0
10, 9408, Note_on_c, 9, 35, 100
10, 9504, Note_on_c, 9, 35, 0
10, 11520, Note_on_c, 9, 35, 100
10, 11616, Note_on_c, 9, 35, 0
10, 11904, Note_on_c, 9, 35, 100
10, 11991, Note_on_c, 9, 35, 0
10, 12000, Note_on_c, 9, 35, 100
10, 12087, Note_on_c, 9, 35, 0
10, 12192, Note_on_c, 9, 35, 100
10, 12279, Note_on_c, 9, 35, 0
10, 12288, Note_on_c, 9, 35, 100
10, 12384, Note_on_c, 9, 35, 0
10, 12672, Note_on_c, 9, 35, 100
10, 12759, Note_on_c, 9, 35, 0
10, 12768, Note_on_c, 9, 35, 100
10, 12855, Note_on_c, 9, 35, 0
10, 12864, Note_on_c, 9, 35, 100
10, 12951, Note_on_c, 9, 35, 0
10, 12960, Note_on_c, 9, 35, 100
10, 13047, Note_on_c, 9, 35, 0
10, 13056, Note_on_c, 9, 35, 100
10, 13152, Note_on_c, 9, 35, 0
10, 13440, Note_on_c, 9, 35, 100
10, 13527, Note_on_c, 9, 35, 0
10, 13536, Note_on_c, 9, 35, 100
10, 13623, Note_on_c, 9, 35, 0
10, 13728, Note_on_c, 9, 35, 100
10, 13815, Note_on_c, 9, 35, 0
10, 13824, Note_on_c, 9, 35, 100
10, 13920, Note_on_c, 9, 35, 0
10, 14208, Note_on_c, 9, 35, 100
10, 14295, Note_on_c, 9, 35, 0
10, 14304, Note_on_c, 9, 35, 100
10, 14391, Note_on_c, 9, 35, 0
10, 14496, Note_on_c, 9, 35, 100
10, 14583, Note_on_c, 9, 35, 0
10, 14592, Note_on_c, 9, 35, 100
10, 14688, Note_on_c, 9, 35, 0
10, 14976, Note_on_c, 9, 35, 100
10, 15063, Note_on_c, 9, 35, 0
10, 15072, Note_on_c, 9, 35, 100
10, 15159, Note_on_c, 9, 35, 0
10, 15264, Note_on_c, 9, 35, 100
10, 15351, Note_on_c, 9, 35, 0
10, 15360, Note_on_c, 9, 35, 100
10, 15456, Note_on_c, 9, 35, 0
10, 15744, Note_on_c, 9, 35, 100
10, 15831, Note_on_c, 9, 35, 0
10, 15840, Note_on_c, 9, 35, 100
10, 15927, Note_on_c, 9, 35, 0
10, 16032, Note_on_c, 9, 35, 100
10, 16119, Note_on_c, 9, 35, 0
10, 16128, Note_on_c, 9, 35, 100
10, 16224, Note_on_c, 9, 35, 0
10, 16992, Note_on_c, 9, 35, 99
10, 17087, Note_on_c, 9, 35, 0
10, 17088, Note_on_c, 9, 35, 99
10, 17183, Note_on_c, 9, 35, 0
10, 17184, Note_on_c, 9, 35, 100
10, 17279, Note_on_c, 9, 35, 0
10, 17280, Note_on_c, 9, 35, 100
10, 17375, Note_on_c, 9, 35, 0
10, 17472, Note_on_c, 9, 35, 99
10, 17567, Note_on_c, 9, 35, 0
10, 17568, Note_on_c, 9, 35, 100
10, 17663, Note_on_c, 9, 35, 0
10, 17664, Note_on_c, 9, 35, 114
10, 17664, Note_on_c, 9, 41, 114
10, 17700, Note_on_c, 9, 41, 0
10, 17716, Note_on_c, 9, 41, 80
10, 17752, Note_on_c, 9, 41, 0
10, 17760, Note_on_c, 9, 35, 0
10, 17812, Note_on_c, 9, 41, 63
10, 17848, Note_on_c, 9, 41, 0
10, 17856, Note_on_c, 9, 40, 114
10, 17892, Note_on_c, 9, 40, 0
10, 17908, Note_on_c, 9, 41, 79
10, 17944, Note_on_c, 9, 41, 0
10, 17952, Note_on_c, 9, 41, 72
10, 17988, Note_on_c, 9, 41, 0
10, 18004, Note_on_c, 9, 41, 64
10, 18040, Note_on_c, 9, 41, 0
10, 18048, Note_on_c, 9, 35, 114
10, 18048, Note_on_c, 9, 41, 114
10, 18084, Note_on_c, 9, 41, 0
10, 18100, Note_on_c, 9, 41, 80
10, 18136, Note_on_c, 9, 41, 0
10, 18136, Note_on_c, 9, 35, 0
10, 18144, Note_on_c, 9, 35, 114
10, 18144, Note_on_c, 9, 41, 114
10, 18180, Note_on_c, 9, 41, 0
10, 18196, Note_on_c, 9, 41, 63
10, 18232, Note_on_c, 9, 41, 0
10, 18233, Note_on_c, 9, 35, 0
10, 18240, Note_on_c, 9, 40, 114
10, 18276, Note_on_c, 9, 40, 0
10, 18292, Note_on_c, 9, 41, 79
10, 18328, Note_on_c, 9, 41, 0
10, 18336, Note_on_c, 9, 35, 114
10, 18336, Note_on_c, 9, 41, 114
10, 18372, Note_on_c, 9, 41, 0
10, 18388, Note_on_c, 9, 41, 64
10, 18424, Note_on_c, 9, 41, 0
10, 18425, Note_on_c, 9, 35, 0
10, 18432, Note_on_c, 9, 35, 114
10, 18432, Note_on_c, 9, 41, 114
10, 18468, Note_on_c, 9, 41, 0
10, 18484, Note_on_c, 9, 41, 80
10, 18520, Note_on_c, 9, 41, 0
10, 18528, Note_on_c, 9, 35, 0
10, 18528, Note_on_c, 9, 41, 72
10, 18564, Note_on_c, 9, 41, 0
10, 18580, Note_on_c, 9, 41, 63
10, 18616, Note_on_c, 9, 41, 0
10, 18624, Note_on_c, 9, 40, 114
10, 18660, Note_on_c, 9, 40, 0
10, 18676, Note_on_c, 9, 41, 79
10, 18712, Note_on_c, 9, 41, 0
10, 18720, Note_on_c, 9, 41, 72
10, 18756, Note_on_c, 9, 41, 0
10, 18772, Note_on_c, 9, 41, 64
10, 18808, Note_on_c, 9, 41, 0
10, 18816, Note_on_c, 9, 35, 114
10, 18816, Note_on_c, 9, 41, 114
10, 18852, Note_on_c, 9, 41, 0
10, 18868, Note_on_c, 9, 41, 80
10, 18904, Note_on_c, 9, 41, 0
10, 18904, Note_on_c, 9, 35, 0
10, 18912, Note_on_c, 9, 35, 114
10, 18912, Note_on_c, 9, 41, 114
10, 18948, Note_on_c, 9, 41, 0
10, 18964, Note_on_c, 9, 41, 63
10, 19000, Note_on_c, 9, 41, 0
10, 19001, Note_on_c, 9, 35, 0
10, 19008, Note_on_c, 9, 40, 114
10, 19044, Note_on_c, 9, 40, 0
10, 19060, Note_on_c, 9, 41, 79
10, 19096, Note_on_c, 9, 41, 0
10, 19104, Note_on_c, 9, 35, 114
10, 19104, Note_on_c, 9, 41, 114
10, 19140, Note_on_c, 9, 41, 0
10, 19156, Note_on_c, 9, 41, 64
10, 19192, Note_on_c, 9, 41, 0
10, 19193, Note_on_c, 9, 35, 0
10, 19200, Note_on_c, 9, 35, 114
10, 19200, Note_on_c, 9, 41, 114
10, 19236, Note_on_c, 9, 41, 0
10, 19252, Note_on_c, 9, 41, 80
10, 19288, Note_on_c, 9, 41, 0
10, 19296, Note_on_c, 9, 35, 0
10, 19296, Note_on_c, 9, 41, 72
10, 19332, Note_on_c, 9, 41, 0
10, 19348, Note_on_c, 9, 41, 63
10, 19384, Note_on_c, 9, 41, 0
10, 19392, Note_on_c, 9, 40, 114
10, 19428, Note_on_c, 9, 40, 0
10, 19444, Note_on_c, 9, 41, 79
10, 19480, Note_on_c, 9, 41, 0
10, 19488, Note_on_c, 9, 41, 72
10, 19524, Note_on_c, 9, 41, 0
10, 19540, Note_on_c, 9, 41, 64
10, 19576, Note_on_c, 9, 41, 0
10, 19584, Note_on_c, 9, 35, 114
10, 19584, Note_on_c, 9, 41, 114
10, 19620, Note_on_c, 9, 41, 0
10, 19636, Note_on_c, 9, 41, 80
10, 19672, Note_on_c, 9, 41, 0
10, 19672, Note_on_c, 9, 35, 0
10, 19680, Note_on_c, 9, 35, 114
10, 19680, Note_on_c, 9, 41, 114
10, 19716, Note_on_c, 9, 41, 0
10, 19732, Note_on_c, 9, 41, 63
10, 19768, Note_on_c, 9, 41, 0
10, 19769, Note_on_c, 9, 35, 0
10, 19776, Note_on_c, 9, 40, 114
10, 19812, Note_on_c, 9, 40, 0
10, 19828, Note_on_c, 9, 41, 79
10, 19864, Note_on_c, 9, 41, 0
10, 19872, Note_on_c, 9, 35, 114
10, 19872, Note_on_c, 9, 41, 114
10, 19908, Note_on_c, 9, 41, 0
10, 19924, Note_on_c, 9, 41, 64
10, 19960, Note_on_c, 9, 41, 0
10, 19961, Note_on_c, 9, 35, 0
10, 19968, Note_on_c, 9, 35, 114
10, 19968, Note_on_c, 9, 41, 114
10, 20004, Note_on_c, 9, 41, 0
10, 20020, Note_on_c, 9, 41, 80
10, 20056, Note_on_c, 9, 41, 0
10, 20064, Note_on_c, 9, 35, 0
10, 20064, Note_on_c, 9, 41, 72
10, 20100, Note_on_c, 9, 41, 0
10, 20116, Note_on_c, 9, 41, 63
10, 20152, Note_on_c, 9, 41, 0
10, 20160, Note_on_c, 9, 40, 114
10, 20196, Note_on_c, 9, 40, 0
10, 20212, Note_on_c, 9, 41, 79
10, 20248, Note_on_c, 9, 41, 0
10, 20256, Note_on_c, 9, 41, 72
10, 20292, Note_on_c, 9, 41, 0
10, 20308, Note_on_c, 9, 41, 64
10, 20344, Note_on_c, 9, 41, 0
10, 20352, Note_on_c, 9, 35, 114
10, 20352, Note_on_c, 9, 41, 114
10, 20388, Note_on_c, 9, 41, 0
10, 20404, Note_on_c, 9, 41, 80
10, 20440, Note_on_c, 9, 41, 0
10, 20440, Note_on_c, 9, 35, 0
10, 20448, Note_on_c, 9, 35, 114
10, 20448, Note_on_c, 9, 41, 114
10, 20484, Note_on_c, 9, 41, 0
10, 20500, Note_on_c, 9, 41, 63
10, 20536, Note_on_c, 9, 41, 0
10, 20537, Note_on_c, 9, 35, 0
10, 20544, Note_on_c, 9, 40, 114
10, 20580, Note_on_c, 9, 40, 0
10, 20596, Note_on_c, 9, 41, 79
10, 20632, Note_on_c, 9, 41, 0
10, 20640, Note_on_c, 9, 35, 114
10, 20640, Note_on_c, 9, 41, 114
10, 20676, Note_on_c, 9, 41, 0
10, 20692, Note_on_c, 9, 41, 64
10, 20728, Note_on_c, 9, 41, 0
10, 20729, Note_on_c, 9, 35, 0
10, 20736, Note_on_c, 9, 35, 114
10, 20736, Note_on_c, 9, 41, 114
10, 20772, Note_on_c, 9, 41, 0
10, 20788, Note_on_c, 9, 41, 80
10, 20824, Note_on_c, 9, 41, 0
10, 20832, Note_on_c, 9, 35, 0
10, 20832, Note_on_c, 9, 41, 72
10, 20868, Note_on_c, 9, 41, 0
10, 20884, Note_on_c, 9, 41, 63
10, 20920, Note_on_c, 9, 41, 0
10, 20928, Note_on_c, 9, 40, 114
10, 20964, Note_on_c, 9, 40, 0
10, 20980, Note_on_c, 9, 41, 79
10, 21016, Note_on_c, 9, 41, 0
10, 21024, Note_on_c, 9, 41, 72
10, 21060, Note_on_c, 9, 41, 0
10, 21076, Note_on_c, 9, 41, 64
10, 21112, Note_on_c, 9, 41, 0
10, 21120, Note_on_c, 9, 35, 114
10, 21120, Note_on_c, 9, 41, 114
10, 21156, Note_on_c, 9, 41, 0
10, 21172, Note_on_c, 9, 41, 80
10, 21208, Note_on_c, 9, 41, 0
10, 21208, Note_on_c, 9, 35, 0
10, 21216, Note_on_c, 9, 35, 114
10, 21216, Note_on_c, 9, 41, 114
10, 21252, Note_on_c, 9, 41, 0
10, 21268, Note_on_c, 9, 41, 63
10, 21304, Note_on_c, 9, 41, 0
10, 21305, Note_on_c, 9, 35, 0
10, 21312, Note_on_c, 9, 40, 114
10, 21348, Note_on_c, 9, 40, 0
10, 21364, Note_on_c, 9, 41, 79
10, 21400, Note_on_c, 9, 41, 0
10, 21408, Note_on_c, 9, 35, 114
10, 21408, Note_on_c, 9, 41, 114
10, 21444, Note_on_c, 9, 41, 0
10, 21460, Note_on_c, 9, 41, 64
10, 21496, Note_on_c, 9, 41, 0
10, 21497, Note_on_c, 9, 35, 0
10, 21504, Note_on_c, 9, 35, 114
10, 21504, Note_on_c, 9, 41, 114
10, 21540, Note_on_c, 9, 41, 0
10, 21556, Note_on_c, 9, 41, 80
10, 21592, Note_on_c, 9, 41, 0
10, 21600, Note_on_c, 9, 35, 0
10, 21600, Note_on_c, 9, 41, 72
10, 21636, Note_on_c, 9, 41, 0
10, 21652, Note_on_c, 9, 41, 63
10, 21688, Note_on_c, 9, 41, 0
10, 21696, Note_on_c, 9, 40, 114
10, 21732, Note_on_c, 9, 40, 0
10, 21748, Note_on_c, 9, 41, 79
10, 21784, Note_on_c, 9, 41, 0
10, 21792, Note_on_c, 9, 41, 72
10, 21828, Note_on_c, 9, 41, 0
10, 21844, Note_on_c, 9, 41, 64
10, 21880, Note_on_c, 9, 41, 0
10, 21888, Note_on_c, 9, 35, 100
10, 21888, Note_on_c, 9, 41, 80
10, 21924, Note_on_c, 9, 41, 0
10, 21984, Note_on_c, 9, 35, 0
10, 22176, Note_on_c, 9, 35, 100
10, 22176, Note_on_c, 9, 41, 80
10, 22212, Note_on_c, 9, 41, 0
10, 22272, Note_on_c, 9, 35, 0
10, 22464, Note_on_c, 9, 35, 100
10, 22560, Note_on_c, 9, 35, 0
10, 25638, Control_c, 9, 7, 64
10, 25662, Control_c, 9, 7, 64
10, 25686, Control_c, 9, 7, 65
10, 25711, Control_c, 9, 7, 66
10, 25735, Control_c, 9, 7, 67
10, 25759, Control_c, 9, 7, 68
10, 25784, Control_c, 9, 7, 69
10, 25808, Control_c, 9, 7, 70
10, 25832, Control_c, 9, 7, 71
10, 25856, Control_c, 9, 7, 72
10, 25869, Note_on_c, 9, 74, 38
10, 25880, Control_c, 9, 7, 73
10, 25905, Control_c, 9, 7, 74
10, 25927, Note_on_c, 9, 69, 100
10, 25929, Control_c, 9, 7, 75
10, 25953, Control_c, 9, 7, 76
10, 25957, Note_on_c, 9, 74, 0
10, 25978, Control_c, 9, 7, 77
10, 26002, Control_c, 9, 7, 78
10, 26026, Control_c, 9, 7, 79
10, 26050, Control_c, 9, 7, 80
10, 26061, Note_on_c, 9, 74, 38
10, 26069, Note_on_c, 9, 69, 0
10, 26075, Control_c, 9, 7, 81
10, 26099, Control_c, 9, 7, 82
10, 26119, Note_on_c, 9, 69, 100
10, 26123, Control_c, 9, 7, 83
10, 26148, Control_c, 9, 7, 84
10, 26149, Note_on_c, 9, 74, 0
10, 26172, Control_c, 9, 7, 85
10, 26196, Control_c, 9, 7, 86
10, 26220, Control_c, 9, 7, 87
10, 26244, Control_c, 9, 7, 88
10, 26253, Note_on_c, 9, 74, 38
10, 26261, Note_on_c, 9, 69, 0
10, 26269, Control_c, 9, 7, 89
10, 26293, Control_c, 9, 7, 90
10, 26311, Note_on_c, 9, 69, 100
10, 26317, Control_c, 9, 7, 91
10, 26341, Note_on_c, 9, 74, 0
10, 26342, Control_c, 9, 7, 92
10, 26366, Control_c, 9, 7, 93
10, 26390, Control_c, 9, 7, 94
10, 26414, Control_c, 9, 7, 95
10, 26439, Control_c, 9, 7, 96
10, 26445, Note_on_c, 9, 74, 38
10, 26453, Note_on_c, 9, 69, 0
10, 26463, Control_c, 9, 7, 97
10, 26487, Control_c, 9, 7, 98
10, 26503, Note_on_c, 9, 69, 100
10, 26512, Control_c, 9, 7, 99
10, 26533, Note_on_c, 9, 74, 0
10, 26536, Control_c, 9, 7, 100
10, 26560, Control_c, 9, 7, 101
10, 26584, Control_c, 9, 7, 102
10, 26608, Control_c, 9, 7, 103
10, 26633, Control_c, 9, 7, 104
10, 26637, Note_on_c, 9, 74, 38
10, 26645, Note_on_c, 9, 69, 0
10, 26657, Control_c, 9, 7, 105
10, 26681, Control_c, 9, 7, 106
10, 26695, Note_on_c, 9, 69, 100
10, 26706, Control_c, 9, 7, 107
10, 26725, Note_on_c, 9, 74, 0
10, 26730, Control_c, 9, 7, 108
10, 26754, Control_c, 9, 7, 109
10, 26778, Control_c, 9, 7, 110
10, 26802, Control_c, 9, 7, 112
10, 26829, Note_on_c, 9, 74, 38
10, 26837, Note_on_c, 9, 69, 0
10, 26887, Note_on_c, 9, 69, 100
10, 26917, Note_on_c, 9, 74, 0
10, 27021, Note_on_c, 9, 74, 38
10, 27029, Note_on_c, 9, 69, 0
10, 27079, Note_on_c, 9, 69, 100
10, 27109, Note_on_c, 9, 74, 0
10, 27213, Note_on_c, 9, 74, 38
10, 27221, Note_on_c, 9, 69, 0
10, 27271, Note_on_c, 9, 69, 100
10, 27301, Note_on_c, 9, 74, 0
10, 27405, Note_on_c, 9, 74, 38
10, 27413, Note_on_c, 9, 69, 0
10, 27463, Note_on_c, 9, 69, 100
10, 27493, Note_on_c, 9, 74, 0
10, 27597, Note_on_c, 9, 74, 38
10, 27605, Note_on_c, 9, 69, 0
10, 27655, Note_on_c, 9, 69, 100
10, 27685, Note_on_c, 9, 74, 0
10, 27789, Note_on_c, 9, 74, 38
10, 27797, Note_on_c, 9, 69, 0
10, 27847, Note_on_c, 9, 69, 100
10, 27877, Note_on_c, 9, 74, 0
10, 27981, Note_on_c, 9, 74, 38
10, 27989, Note_on_c, 9, 69, 0
10, 28039, Note_on_c, 9, 69, 100
10, 28069, Note_on_c, 9, 74, 0
10, 28173, Note_on_c, 9, 74, 38
10, 28181, Note_on_c, 9, 69, 0
10, 28231, Note_on_c, 9, 69, 100
10, 28261, Note_on_c, 9, 74, 0
10, 28365, Note_on_c, 9, 74, 38
10, 28373, Note_on_c, 9, 69, 0
10, 28423, Note_on_c, 9, 69, 100
10, 28453, Note_on_c, 9, 74, 0
10, 28557, Note_on_c, 9, 74, 38
10, 28565, Note_on_c, 9, 69, 0
10, 28615, Note_on_c, 9, 69, 100
10, 28645, Note_on_c, 9, 74, 0
10, 28749, Note_on_c, 9, 74, 38
10, 28757, Note_on_c, 9, 69, 0
10, 28807, Note_on_c, 9, 69, 100
10, 28837, Note_on_c, 9, 74, 0
10, 28941, Note_on_c, 9, 74, 38
10, 28949, Note_on_c, 9, 69, 0
10, 28999, Note_on_c, 9, 69, 100
10, 29029, Note_on_c, 9, 74, 0
10, 29133, Note_on_c, 9, 74, 38
10, 29141, Note_on_c, 9, 69, 0
10, 29191, Note_on_c, 9, 69, 100
10, 29221, Note_on_c, 9, 74, 0
10, 29325, Note_on_c, 9, 74, 38
10, 29333, Note_on_c, 9, 69, 0
10, 29383, Note_on_c, 9, 69, 100
10, 29413, Note_on_c, 9, 74, 0
10, 29517, Note_on_c, 9, 74, 38
10, 29525, Note_on_c, 9, 69, 0
10, 29575, Note_on_c, 9, 69, 100
10, 29605, Note_on_c, 9, 74, 0
10, 29709, Note_on_c, 9, 74, 38
10, 29717, Note_on_c, 9, 69, 0
10, 29767, Note_on_c, 9, 69, 100
10, 29797, Note_on_c, 9, 74, 0
10, 29909, Note_on_c, 9, 69, 0
10, 30816, Note_on_c, 9, 35, 99
10, 30911, Note_on_c, 9, 35, 0
10, 30912, Note_on_c, 9, 35, 99
10, 31007, Note_on_c, 9, 35, 0
10, 31008, Note_on_c, 9, 35, 100
10, 31103, Note_on_c, 9, 35, 0
10, 31104, Note_on_c, 9, 35, 100
10, 31199, Note_on_c, 9, 35, 0
10, 31296, Note_on_c, 9, 35, 99
10, 31296, Note_on_c, 9, 41, 81
10, 31322, Note_on_c, 9, 41, 0
10, 31328, Note_on_c, 9, 41, 68
10, 31354, Note_on_c, 9, 41, 0
10, 31356, Note_on_c, 9, 41, 56
10, 31391, Note_on_c, 9, 35, 0
10, 31391, Note_on_c, 9, 41, 92
10, 31392, Note_on_c, 9, 41, 0
10, 31392, Note_on_c, 9, 35, 100
10, 31426, Note_on_c, 9, 41, 0
10, 31452, Note_on_c, 9, 41, 56
10, 31487, Note_on_c, 9, 35, 0
10, 31488, Note_on_c, 9, 41, 0
10, 31488, Note_on_c, 9, 35, 114
10, 31488, Note_on_c, 9, 41, 114
10, 31524, Note_on_c, 9, 41, 0
10, 31584, Note_on_c, 9, 35, 0
10, 31584, Note_on_c, 9, 41, 63
10, 31621, Note_on_c, 9, 41, 0
10, 31680, Note_on_c, 9, 40, 114
10, 31716, Note_on_c, 9, 40, 0
10, 31732, Note_on_c, 9, 41, 79
10, 31768, Note_on_c, 9, 41, 0
10, 31776, Note_on_c, 9, 41, 72
10, 31812, Note_on_c, 9, 41, 0
10, 31828, Note_on_c, 9, 41, 64
10, 31864, Note_on_c, 9, 41, 0
10, 31872, Note_on_c, 9, 35, 114
10, 31872, Note_on_c, 9, 41, 114
10, 31908, Note_on_c, 9, 41, 0
10, 31924, Note_on_c, 9, 41, 80
10, 31960, Note_on_c, 9, 41, 0
10, 31960, Note_on_c, 9, 35, 0
10, 31968, Note_on_c, 9, 35, 114
10, 31968, Note_on_c, 9, 41, 114
10, 32004, Note_on_c, 9, 41, 0
10, 32020, Note_on_c, 9, 41, 63
10, 32056, Note_on_c, 9, 41, 0
10, 32057, Note_on_c, 9, 35, 0
10, 32064, Note_on_c, 9, 40, 114
10, 32100, Note_on_c, 9, 40, 0
10, 32116, Note_on_c, 9, 41, 79
10, 32152, Note_on_c, 9, 41, 0
10, 32160, Note_on_c, 9, 35, 114
10, 32160, Note_on_c, 9, 41, 114
10, 32196, Note_on_c, 9, 41, 0
10, 32212, Note_on_c, 9, 41, 64
10, 32248, Note_on_c, 9, 41, 0
10, 32249, Note_on_c, 9, 35, 0
10, 32256, Note_on_c, 9, 35, 114
10, 32256, Note_on_c, 9, 41, 114
10, 32292, Note_on_c, 9, 41, 0
10, 32308, Note_on_c, 9, 41, 80
10, 32344, Note_on_c, 9, 41, 0
10, 32352, Note_on_c, 9, 35, 0
10, 32352, Note_on_c, 9, 41, 72
10, 32388, Note_on_c, 9, 41, 0
10, 32404, Note_on_c, 9, 41, 63
10, 32440, Note_on_c, 9, 41, 0
10, 32448, Note_on_c, 9, 40, 114
10, 32484, Note_on_c, 9, 40, 0
10, 32500, Note_on_c, 9, 41, 79
10, 32536, Note_on_c, 9, 41, 0
10, 32544, Note_on_c, 9, 41, 72
10, 32580, Note_on_c, 9, 41, 0
10, 32596, Note_on_c, 9, 41, 64
10, 32632, Note_on_c, 9, 41, 0
10, 32640, Note_on_c, 9, 35, 114
10, 32640, Note_on_c, 9, 41, 114
10, 32676, Note_on_c, 9, 41, 0
10, 32692, Note_on_c, 9, 41, 80
10, 32728, Note_on_c, 9, 41, 0
10, 32728, Note_on_c, 9, 35, 0
10, 32736, Note_on_c, 9, 35, 114
10, 32736, Note_on_c, 9, 41, 114
10, 32772, Note_on_c, 9, 41, 0
10, 32788, Note_on_c, 9, 41, 63
10, 32824, Note_on_c, 9, 41, 0
10, 32825, Note_on_c, 9, 35, 0
10, 32832, Note_on_c, 9, 40, 114
10, 32868, Note_on_c, 9, 40, 0
10, 32884, Note_on_c, 9, 41, 79
10, 32920, Note_on_c, 9, 41, 0
10, 32928, Note_on_c, 9, 35, 114
10, 32928, Note_on_c, 9, 41, 114
10, 32964, Note_on_c, 9, 41, 0
10, 32980, Note_on_c, 9, 41, 64
10, 33016, Note_on_c, 9, 41, 0
10, 33017, Note_on_c, 9, 35, 0
10, 33024, Note_on_c, 9, 35, 114
10, 33024, Note_on_c, 9, 41, 114
10, 33060, Note_on_c, 9, 41, 0
10, 33076, Note_on_c, 9, 41, 80
10, 33112, Note_on_c, 9, 41, 0
10, 33120, Note_on_c, 9, 35, 0
10, 33120, Note_on_c, 9, 41, 72
10, 33156, Note_on_c, 9, 41, 0
10, 33172, Note_on_c, 9, 41, 63
10, 33208, Note_on_c, 9, 41, 0
10, 33216, Note_on_c, 9, 40, 114
10, 33252, Note_on_c, 9, 40, 0
10, 33268, Note_on_c, 9, 41, 79
10, 33304, Note_on_c, 9, 41, 0
10, 33312, Note_on_c, 9, 41, 72
10, 33348, Note_on_c, 9, 41, 0
10, 33364, Note_on_c, 9, 41, 64
10, 33400, Note_on_c, 9, 41, 0
10, 33408, Note_on_c, 9, 35, 114
10, 33408, Note_on_c, 9, 41, 114
10, 33444, Note_on_c, 9, 41, 0
10, 33460, Note_on_c, 9, 41, 80
10, 33496, Note_on_c, 9, 41, 0
10, 33496, Note_on_c, 9, 35, 0
10, 33504, Note_on_c, 9, 35, 114
10, 33504, Note_on_c, 9, 41, 114
10, 33540, Note_on_c, 9, 41, 0
10, 33556, Note_on_c, 9, 41, 63
10, 33592, Note_on_c, 9, 41, 0
10, 33593, Note_on_c, 9, 35, 0
10, 33600, Note_on_c, 9, 40, 114
10, 33636, Note_on_c, 9, 40, 0
10, 33652, Note_on_c, 9, 41, 79
10, 33688, Note_on_c, 9, 41, 0
10, 33696, Note_on_c, 9, 35, 114
10, 33696, Note_on_c, 9, 41, 114
10, 33732, Note_on_c, 9, 41, 0
10, 33748, Note_on_c, 9, 41, 64
10, 33784, Note_on_c, 9, 41, 0
10, 33785, Note_on_c, 9, 35, 0
10, 33792, Note_on_c, 9, 35, 114
10, 33792, Note_on_c, 9, 41, 114
10, 33828, Note_on_c, 9, 41, 0
10, 33844, Note_on_c, 9, 41, 80
10, 33880, Note_on_c, 9, 41, 0
10, 33888, Note_on_c, 9, 35, 0
10, 33888, Note_on_c, 9, 41, 72
10, 33924, Note_on_c, 9, 41, 0
10, 33940, Note_on_c, 9, 41, 63
10, 33976, Note_on_c, 9, 41, 0
10, 33984, Note_on_c, 9, 40, 114
10, 34020, Note_on_c, 9, 40, 0
10, 34036, Note_on_c, 9, 41, 79
10, 34072, Note_on_c, 9, 41, 0
10, 34080, Note_on_c, 9, 41, 72
10, 34116, Note_on_c, 9, 41, 0
10, 34132, Note_on_c, 9, 41, 64
10, 34168, Note_on_c, 9, 41, 0
10, 34176, Note_on_c, 9, 35, 114
10, 34176, Note_on_c, 9, 41, 114
10, 34212, Note_on_c, 9, 41, 0
10, 34228, Note_on_c, 9, 41, 80
10, 34264, Note_on_c, 9, 41, 0
10, 34264, Note_on_c, 9, 35, 0
10, 34272, Note_on_c, 9, 35, 114
10, 34272, Note_on_c, 9, 41, 114
10, 34308, Note_on_c, 9, 41, 0
10, 34324, Note_on_c, 9, 41, 63
10, 34360, Note_on_c, 9, 41, 0
10, 34361, Note_on_c, 9, 35, 0
10, 34368, Note_on_c, 9, 40, 114
10, 34404, Note_on_c, 9, 40, 0
10, 34420, Note_on_c, 9, 41, 79
10, 34456, Note_on_c, 9, 41, 0
10, 34464, Note_on_c, 9, 35, 114
10, 34464, Note_on_c, 9, 41, 114
10, 34500, Note_on_c, 9, 41, 0
10, 34516, Note_on_c, 9, 41, 64
10, 34552, Note_on_c, 9, 41, 0
10, 34553, Note_on_c, 9, 35, 0
10, 34560, Note_on_c, 9, 35, 114
10, 34560, Note_on_c, 9, 41, 114
10, 34596, Note_on_c, 9, 41, 0
10, 34612, Note_on_c, 9, 41, 80
10, 34648, Note_on_c, 9, 41, 0
10, 34656, Note_on_c, 9, 35, 0
10, 34656, Note_on_c, 9, 41, 72
10, 34692, Note_on_c, 9, 41, 0
10, 34708, Note_on_c, 9, 41, 63
10, 34744, Note_on_c, 9, 41, 0
10, 34752, Note_on_c, 9, 40, 114
10, 34788, Note_on_c, 9, 40, 0
10, 34804, Note_on_c, 9, 41, 79
10, 34840, Note_on_c, 9, 41, 0
10, 34848, Note_on_c, 9, 41, 72
10, 34884, Note_on_c, 9, 41, 0
10, 34900, Note_on_c, 9, 41, 64
10, 34936, Note_on_c, 9, 41, 0
10, 34944, Note_on_c, 9, 35, 114
10, 34944, Note_on_c, 9, 41, 114
10, 34980, Note_on_c, 9, 41, 0
10, 34996, Note_on_c, 9, 41, 80
10, 35032, Note_on_c, 9, 41, 0
10, 35032, Note_on_c, 9, 35, 0
10, 35040, Note_on_c, 9, 35, 114
10, 35040, Note_on_c, 9, 41, 114
10, 35076, Note_on_c, 9, 41, 0
10, 35092, Note_on_c, 9, 41, 63
10, 35128, Note_on_c, 9, 41, 0
10, 35129, Note_on_c, 9, 35, 0
10, 35136, Note_on_c, 9, 40, 114
10, 35172, Note_on_c, 9, 40, 0
10, 35188, Note_on_c, 9, 41, 79
10, 35224, Note_on_c, 9, 41, 0
10, 35232, Note_on_c, 9, 35, 114
10, 35232, Note_on_c, 9, 41, 114
10, 35268, Note_on_c, 9, 41, 0
10, 35284, Note_on_c, 9, 41, 64
10, 35320, Note_on_c, 9, 41, 0
10, 35321, Note_on_c, 9, 35, 0
10, 35328, Note_on_c, 9, 35, 114
10, 35328, Note_on_c, 9, 41, 114
10, 35364, Note_on_c, 9, 41, 0
10, 35380, Note_on_c, 9, 41, 80
10, 35416, Note_on_c, 9, 41, 0
10, 35424, Note_on_c, 9, 35, 0
10, 35424, Note_on_c, 9, 41, 72
10, 35460, Note_on_c, 9, 41, 0
10, 35476, Note_on_c, 9, 41, 63
10, 35512, Note_on_c, 9, 41, 0
10, 35520, Note_on_c, 9, 40, 114
10, 35556, Note_on_c, 9, 40, 0
10, 35572, Note_on_c, 9, 41, 79
10, 35608, Note_on_c, 9, 41, 0
10, 35616, Note_on_c, 9, 41, 72
10, 35652, Note_on_c, 9, 41, 0
10, 35668, Note_on_c, 9, 41, 64
10, 35704, Note_on_c, 9, 41, 0
10, 35712, Note_on_c, 9, 35, 100
10, 35712, Note_on_c, 9, 41, 80
10, 35748, Note_on_c, 9, 41, 0
10, 35808, Note_on_c, 9, 35, 0
10, 36000, Note_on_c, 9, 35, 100
10, 36000, Note_on_c, 9, 41, 80
10, 36094, Note_on_c, 9, 41, 0
10, 36096, Note_on_c, 9, 35, 0
10, 36288, Note_on_c, 9, 35, 100
10, 36384, Note_on_c, 9, 35, 0
10, 39462, Control_c, 9, 7, 64
10, 39486, Control_c, 9, 7, 64
10, 39510, Control_c, 9, 7, 65
10, 39535, Control_c, 9, 7, 66
10, 39559, Control_c, 9, 7, 67
10, 39583, Control_c, 9, 7, 68
10, 39608, Control_c, 9, 7, 69
10, 39632, Control_c, 9, 7, 70
10, 39656, Control_c, 9, 7, 71
10, 39680, Control_c, 9, 7, 72
10, 39693, Note_on_c, 9, 74, 38
10, 39704, Control_c, 9, 7, 73
10, 39729, Control_c, 9, 7, 74
10, 39751, Note_on_c, 9, 69, 100
10, 39753, Control_c, 9, 7, 75
10, 39777, Control_c, 9, 7, 76
10, 39781, Note_on_c, 9, 74, 0
10, 39802, Control_c, 9, 7, 77
10, 39826, Control_c, 9, 7, 78
10, 39850, Control_c, 9, 7, 79
10, 39874, Control_c, 9, 7, 80
10, 39885, Note_on_c, 9, 74, 38
10, 39893, Note_on_c, 9, 69, 0
10, 39899, Control_c, 9, 7, 81
10, 39923, Control_c, 9, 7, 82
10, 39943, Note_on_c, 9, 69, 100
10, 39947, Control_c, 9, 7, 83
10, 39972, Control_c, 9, 7, 84
10, 39973, Note_on_c, 9, 74, 0
10, 39996, Control_c, 9, 7, 85
10, 40020, Control_c, 9, 7, 86
10, 40044, Control_c, 9, 7, 87
10, 40068, Control_c, 9, 7, 88
10, 40077, Note_on_c, 9, 74, 38
10, 40085, Note_on_c, 9, 69, 0
10, 40093, Control_c, 9, 7, 89
10, 40117, Control_c, 9, 7, 90
10, 40135, Note_on_c, 9, 69, 100
10, 40141, Control_c, 9, 7, 91
10, 40165, Note_on_c, 9, 74, 0
10, 40166, Control_c, 9, 7, 92
10, 40190, Control_c, 9, 7, 93
10, 40214, Control_c, 9, 7, 94
10, 40238, Control_c, 9, 7, 95
10, 40263, Control_c, 9, 7, 96
10, 40269, Note_on_c, 9, 74, 38
10, 40277, Note_on_c, 9, 69, 0
10, 40287, Control_c, 9, 7, 97
10, 40311, Control_c, 9, 7, 98
10, 40327, Note_on_c, 9, 69, 100
10, 40336, Control_c, 9, 7, 99
10, 40357, Note_on_c, 9, 74, 0
10, 40360, Control_c, 9, 7, 100
10, 40384, Control_c, 9, 7, 101
10, 40408, Control_c, 9, 7, 102
10, 40432, Control_c, 9, 7, 103
10, 40457, Control_c, 9, 7, 104
10, 40461, Note_on_c, 9, 74, 38
10, 40469, Note_on_c, 9, 69, 0
10, 40481, Control_c, 9, 7, 105
10, 40505, Control_c, 9, 7, 106
10, 40519, Note_on_c, 9, 69, 100
10, 40530, Control_c, 9, 7, 107
10, 40549, Note_on_c, 9, 74, 0
10, 40554, Control_c, 9, 7, 108
10, 40578, Control_c, 9, 7, 109
10, 40602, Control_c, 9, 7, 110
10, 40626, Control_c, 9, 7, 112
10, 40653, Note_on_c, 9, 74, 38
10, 40661, Note_on_c, 9, 69, 0
10, 40711, Note_on_c, 9, 69, 100
10, 40741, Note_on_c, 9, 74, 0
10, 40845, Note_on_c, 9, 74, 38
10, 40853, Note_on_c, 9, 69, 0
10, 40903, Note_on_c, 9, 69, 100
10, 40933, Note_on_c, 9, 74, 0
10, 41037, Note_on_c, 9, 74, 38
10, 41045, Note_on_c, 9, 69, 0
10, 41095, Note_on_c, 9, 69, 100
10, 41125, Note_on_c, 9, 74, 0
10, 41229, Note_on_c, 9, 74, 38
10, 41237, Note_on_c, 9, 69, 0
10, 41287, Note_on_c, 9, 69, 100
10, 41317, Note_on_c, 9, 74, 0
10, 41421, Note_on_c, 9, 74, 38
10, 41429, Note_on_c, 9, 69, 0
10, 41479, Note_on_c, 9, 69, 100
10, 41509, Note_on_c, 9, 74, 0
10, 41613, Note_on_c, 9, 74, 38
10, 41621, Note_on_c, 9, 69, 0
10, 41671, Note_on_c, 9, 69, 100
10, 41701, Note_on_c, 9, 74, 0
10, 41805, Note_on_c, 9, 74, 38
10, 41813, Note_on_c, 9, 69, 0
10, 41863, Note_on_c, 9, 69, 100
10, 41893, Note_on_c, 9, 74, 0
10, 41997, Note_on_c, 9, 74, 38
10, 42005, Note_on_c, 9, 69, 0
10, 42055, Note_on_c, 9, 69, 100
10, 42085, Note_on_c, 9, 74, 0
10, 42189, Note_on_c, 9, 74, 38
10, 42197, Note_on_c, 9, 69, 0
10, 42247, Note_on_c, 9, 69, 100
10, 42277, Note_on_c, 9, 74, 0
10, 42381, Note_on_c, 9, 74, 38
10, 42389, Note_on_c, 9, 69, 0
10, 42439, Note_on_c, 9, 69, 100
10, 42469, Note_on_c, 9, 74, 0
10, 42573, Note_on_c, 9, 74, 38
10, 42581, Note_on_c, 9, 69, 0
10, 42631, Note_on_c, 9, 69, 100
10, 42661, Note_on_c, 9, 74, 0
10, 42765, Note_on_c, 9, 74, 38
10, 42773, Note_on_c, 9, 69, 0
10, 42823, Note_on_c, 9, 69, 100
10, 42853, Note_on_c, 9, 74, 0
10, 42957, Note_on_c, 9, 74, 38
10, 42965, Note_on_c, 9, 69, 0
10, 43015, Note_on_c, 9, 69, 100
10, 43045, Note_on_c, 9, 74, 0
10, 43149, Note_on_c, 9, 74, 38
10, 43157, Note_on_c, 9, 69, 0
10, 43207, Note_on_c, 9, 69, 100
10, 43237, Note_on_c, 9, 74, 0
10, 43341, Note_on_c, 9, 74, 38
10, 43349, Note_on_c, 9, 69, 0
10, 43399, Note_on_c, 9, 69, 100
10, 43429, Note_on_c, 9, 74, 0
10, 43533, Note_on_c, 9, 74, 38
10, 43541, Note_on_c, 9, 69, 0
10, 43591, Note_on_c, 9, 69, 100
10, 43621, Note_on_c, 9, 74, 0
10, 43733, Note_on_c, 9, 69, 0
10, 44506, Note_on_c, 9, 41, 64
10, 44543, Note_on_c, 9, 41, 0
10, 44544, Note_on_c, 9, 41, 114
10, 44581, Note_on_c, 9, 41, 0
10, 44603, Note_on_c, 9, 41, 80
10, 44640, Note_on_c, 9, 41, 0
10, 44640, Note_on_c, 9, 35, 99
10, 44640, Note_on_c, 9, 41, 114
10, 44677, Note_on_c, 9, 41, 0
10, 44735, Note_on_c, 9, 35, 0
10, 44736, Note_on_c, 9, 35, 99
10, 44793, Note_on_c, 9, 41, 64
10, 44830, Note_on_c, 9, 41, 0
10, 44831, Note_on_c, 9, 35, 0
10, 44832, Note_on_c, 9, 35, 100
10, 44832, Note_on_c, 9, 41, 114
10, 44868, Note_on_c, 9, 41, 0
10, 44890, Note_on_c, 9, 41, 80
10, 44927, Note_on_c, 9, 41, 0
10, 44927, Note_on_c, 9, 35, 0
10, 44928, Note_on_c, 9, 35, 100
10, 44928, Note_on_c, 9, 41, 114
10, 44964, Note_on_c, 9, 41, 0
10, 45023, Note_on_c, 9, 35, 0
10, 45081, Note_on_c, 9, 41, 64
10, 45118, Note_on_c, 9, 41, 0
10, 45120, Note_on_c, 9, 35, 99
10, 45120, Note_on_c, 9, 41, 114
10, 45156, Note_on_c, 9, 41, 0
10, 45178, Note_on_c, 9, 41, 80
10, 45215, Note_on_c, 9, 41, 0
10, 45215, Note_on_c, 9, 35, 0
10, 45216, Note_on_c, 9, 35, 100
10, 45216, Note_on_c, 9, 41, 114
10, 45252, Note_on_c, 9, 41, 0
10, 45272, Note_on_c, 9, 41, 80
10, 45309, Note_on_c, 9, 41, 0
10, 45311, Note_on_c, 9, 35, 0
10, 45312, Note_on_c, 9, 35, 114
10, 45312, Note_on_c, 9, 41, 114
10, 45348, Note_on_c, 9, 41, 0
10, 45364, Note_on_c, 9, 41, 80
10, 45400, Note_on_c, 9, 41, 0
10, 45408, Note_on_c, 9, 35, 0
10, 45460, Note_on_c, 9, 41, 63
10, 45496, Note_on_c, 9, 41, 0
10, 45504, Note_on_c, 9, 40, 114
10, 45540, Note_on_c, 9, 40, 0
10, 45556, Note_on_c, 9, 41, 79
10, 45592, Note_on_c, 9, 41, 0
10, 45600, Note_on_c, 9, 41, 72
10, 45636, Note_on_c, 9, 41, 0
10, 45652, Note_on_c, 9, 41, 64
10, 45688, Note_on_c, 9, 41, 0
10, 45696, Note_on_c, 9, 35, 114
10, 45696, Note_on_c, 9, 41, 114
10, 45732, Note_on_c, 9, 41, 0
10, 45748, Note_on_c, 9, 41, 80
10, 45784, Note_on_c, 9, 41, 0
10, 45784, Note_on_c, 9, 35, 0
10, 45792, Note_on_c, 9, 35, 114
10, 45792, Note_on_c, 9, 41, 114
10, 45828, Note_on_c, 9, 41, 0
10, 45844, Note_on_c, 9, 41, 63
10, 45880, Note_on_c, 9, 41, 0
10, 45881, Note_on_c, 9, 35, 0
10, 45888, Note_on_c, 9, 40, 114
10, 45924, Note_on_c, 9, 40, 0
10, 45940, Note_on_c, 9, 41, 79
10, 45976, Note_on_c, 9, 41, 0
10, 45984, Note_on_c, 9, 35, 114
10, 45984, Note_on_c, 9, 41, 114
10, 46020, Note_on_c, 9, 41, 0
10, 46036, Note_on_c, 9, 41, 64
10, 46072, Note_on_c, 9, 41, 0
10, 46073, Note_on_c, 9, 35, 0
10, 46080, Note_on_c, 9, 35, 114
10, 46080, Note_on_c, 9, 41, 114
10, 46116, Note_on_c, 9, 41, 0
10, 46132, Note_on_c, 9, 41, 80
10, 46168, Note_on_c, 9, 41, 0
10, 46176, Note_on_c, 9, 35, 0
10, 46176, Note_on_c, 9, 41, 72
10, 46212, Note_on_c, 9, 41, 0
10, 46228, Note_on_c, 9, 41, 63
10, 46264, Note_on_c, 9, 41, 0
10, 46272, Note_on_c, 9, 40, 114
10, 46308, Note_on_c, 9, 40, 0
10, 46324, Note_on_c, 9, 41, 79
10, 46360, Note_on_c, 9, 41, 0
10, 46368, Note_on_c, 9, 41, 72
10, 46404, Note_on_c, 9, 41, 0
10, 46420, Note_on_c, 9, 41, 64
10, 46456, Note_on_c, 9, 41, 0
10, 46464, Note_on_c, 9, 35, 114
10, 46464, Note_on_c, 9, 41, 114
10, 46500, Note_on_c, 9, 41, 0
10, 46516, Note_on_c, 9, 41, 80
10, 46552, Note_on_c, 9, 41, 0
10, 46552, Note_on_c, 9, 35, 0
10, 46560, Note_on_c, 9, 35, 114
10, 46560, Note_on_c, 9, 41, 114
10, 46596, Note_on_c, 9, 41, 0
10, 46612, Note_on_c, 9, 41, 63
10, 46648, Note_on_c, 9, 41, 0
10, 46649, Note_on_c, 9, 35, 0
10, 46656, Note_on_c, 9, 40, 114
10, 46692, Note_on_c, 9, 40, 0
10, 46708, Note_on_c, 9, 41, 79
10, 46744, Note_on_c, 9, 41, 0
10, 46752, Note_on_c, 9, 35, 114
10, 46752, Note_on_c, 9, 41, 114
10, 46788, Note_on_c, 9, 41, 0
10, 46804, Note_on_c, 9, 41, 64
10, 46840, Note_on_c, 9, 41, 0
10, 46841, Note_on_c, 9, 35, 0
10, 46848, Note_on_c, 9, 35, 114
10, 46848, Note_on_c, 9, 41, 114
10, 46884, Note_on_c, 9, 41, 0
10, 46900, Note_on_c, 9, 41, 80
10, 46936, Note_on_c, 9, 41, 0
10, 46944, Note_on_c, 9, 35, 0
10, 46944, Note_on_c, 9, 41, 72
10, 46980, Note_on_c, 9, 41, 0
10, 46996, Note_on_c, 9, 41, 63
10, 47032, Note_on_c, 9, 41, 0
10, 47040, Note_on_c, 9, 40, 114
10, 47076, Note_on_c, 9, 40, 0
10, 47092, Note_on_c, 9, 41, 79
10, 47128, Note_on_c, 9, 41, 0
10, 47136, Note_on_c, 9, 41, 72
10, 47172, Note_on_c, 9, 41, 0
10, 47188, Note_on_c, 9, 41, 64
10, 47224, Note_on_c, 9, 41, 0
10, 47232, Note_on_c, 9, 35, 114
10, 47232, Note_on_c, 9, 41, 114
10, 47268, Note_on_c, 9, 41, 0
10, 47284, Note_on_c, 9, 41, 80
10, 47320, Note_on_c, 9, 41, 0
10, 47320, Note_on_c, 9, 35, 0
10, 47328, Note_on_c, 9, 35, 114
10, 47328, Note_on_c, 9, 41, 114
10, 47364, Note_on_c, 9, 41, 0
10, 47380, Note_on_c, 9, 41, 63
10, 47416, Note_on_c, 9, 41, 0
10, 47417, Note_on_c, 9, 35, 0
10, 47424, Note_on_c, 9, 40, 114
10, 47460, Note_on_c, 9, 40, 0
10, 47476, Note_on_c, 9, 41, 79
10, 47512, Note_on_c, 9, 41, 0
10, 47520, Note_on_c, 9, 35, 114
10, 47520, Note_on_c, 9, 41, 114
10, 47556, Note_on_c, 9, 41, 0
10, 47572, Note_on_c, 9, 41, 64
10, 47608, Note_on_c, 9, 41, 0
10, 47609, Note_on_c, 9, 35, 0
10, 47616, Note_on_c, 9, 35, 114
10, 47616, Note_on_c, 9, 41, 114
10, 47652, Note_on_c, 9, 41, 0
10, 47668, Note_on_c, 9, 41, 80
10, 47704, Note_on_c, 9, 41, 0
10, 47712, Note_on_c, 9, 35, 0
10, 47712, Note_on_c, 9, 41, 72
10, 47748, Note_on_c, 9, 41, 0
10, 47764, Note_on_c, 9, 41, 63
10, 47800, Note_on_c, 9, 41, 0
10, 47808, Note_on_c, 9, 40, 114
10, 47844, Note_on_c, 9, 40, 0
10, 47860, Note_on_c, 9, 41, 79
10, 47896, Note_on_c, 9, 41, 0
10, 47904, Note_on_c, 9, 41, 72
10, 47940, Note_on_c, 9, 41, 0
10, 47956, Note_on_c, 9, 41, 64
10, 47992, Note_on_c, 9, 41, 0
10, 48000, Note_on_c, 9, 35, 114
10, 48000, Note_on_c, 9, 41, 114
10, 48036, Note_on_c, 9, 41, 0
10, 48052, Note_on_c, 9, 41, 80
10, 48088, Note_on_c, 9, 41, 0
10, 48088, Note_on_c, 9, 35, 0
10, 48096, Note_on_c, 9, 35, 114
10, 48096, Note_on_c, 9, 41, 114
10, 48132, Note_on_c, 9, 41, 0
10, 48148, Note_on_c, 9, 41, 63
10, 48184, Note_on_c, 9, 41, 0
10, 48185, Note_on_c, 9, 35, 0
10, 48192, Note_on_c, 9, 40, 114
10, 48228, Note_on_c, 9, 40, 0
10, 48244, Note_on_c, 9, 41, 79
10, 48280, Note_on_c, 9, 41, 0
10, 48288, Note_on_c, 9, 35, 114
10, 48288, Note_on_c, 9, 41, 114
10, 48324, Note_on_c, 9, 41, 0
10, 48340, Note_on_c, 9, 41, 64
10, 48376, Note_on_c, 9, 41, 0
10, 48377, Note_on_c, 9, 35, 0
10, 48384, Note_on_c, 9, 35, 114
10, 48384, Note_on_c, 9, 41, 114
10, 48420, Note_on_c, 9, 41, 0
10, 48436, Note_on_c, 9, 41, 80
10, 48472, Note_on_c, 9, 41, 0
10, 48480, Note_on_c, 9, 35, 0
10, 48480, Note_on_c, 9, 41, 72
10, 48516, Note_on_c, 9, 41, 0
10, 48532, Note_on_c, 9, 41, 63
10, 48568, Note_on_c, 9, 41, 0
10, 48576, Note_on_c, 9, 40, 114
10, 48612, Note_on_c, 9, 40, 0
10, 48628, Note_on_c, 9, 41, 79
10, 48664, Note_on_c, 9, 41, 0
10, 48672, Note_on_c, 9, 41, 72
10, 48708, Note_on_c, 9, 41, 0
10, 48724, Note_on_c, 9, 41, 64
10, 48760, Note_on_c, 9, 41, 0
10, 48768, Note_on_c, 9, 35, 114
10, 48768, Note_on_c, 9, 41, 114
10, 48804, Note_on_c, 9, 41, 0
10, 48820, Note_on_c, 9, 41, 80
10, 48856, Note_on_c, 9, 41, 0
10, 48856, Note_on_c, 9, 35, 0
10, 48864, Note_on_c, 9, 35, 114
10, 48864, Note_on_c, 9, 41, 114
10, 48900, Note_on_c, 9, 41, 0
10, 48916, Note_on_c, 9, 41, 63
10, 48952, Note_on_c, 9, 41, 0
10, 48953, Note_on_c, 9, 35, 0
10, 48960, Note_on_c, 9, 40, 114
10, 48996, Note_on_c, 9, 40, 0
10, 49012, Note_on_c, 9, 41, 79
10, 49048, Note_on_c, 9, 41, 0
10, 49056, Note_on_c, 9, 35, 114
10, 49056, Note_on_c, 9, 41, 114
10, 49092, Note_on_c, 9, 41, 0
10, 49108, Note_on_c, 9, 41, 64
10, 49144, Note_on_c, 9, 41, 0
10, 49145, Note_on_c, 9, 35, 0
10, 49152, Note_on_c, 9, 35, 114
10, 49152, Note_on_c, 9, 41, 114
10, 49188, Note_on_c, 9, 41, 0
10, 49204, Note_on_c, 9, 41, 80
10, 49240, Note_on_c, 9, 41, 0
10, 49248, Note_on_c, 9, 35, 0
10, 49248, Note_on_c, 9, 41, 72
10, 49284, Note_on_c, 9, 41, 0
10, 49300, Note_on_c, 9, 41, 63
10, 49336, Note_on_c, 9, 41, 0
10, 49344, Note_on_c, 9, 40, 114
10, 49380, Note_on_c, 9, 40, 0
10, 49396, Note_on_c, 9, 41, 79
10, 49432, Note_on_c, 9, 41, 0
10, 49440, Note_on_c, 9, 41, 72
10, 49476, Note_on_c, 9, 41, 0
10, 49492, Note_on_c, 9, 41, 64
10, 49528, Note_on_c, 9, 41, 0
10, 49536, Note_on_c, 9, 35, 100
10, 49536, Note_on_c, 9, 41, 80
10, 49572, Note_on_c, 9, 41, 0
10, 49632, Note_on_c, 9, 35, 0
10, 49824, Note_on_c, 9, 35, 100
10, 49824, Note_on_c, 9, 41, 80
10, 49860, Note_on_c, 9, 41, 0
10, 49920, Note_on_c, 9, 35, 0
10, 50112, Note_on_c, 9, 35, 100
10, 50208, Note_on_c, 9, 35, 0
10, 50496, Note_on_c, 9, 41, 114
10, 50532, Note_on_c, 9, 41, 0
10, 50548, Note_on_c, 9, 41, 64
10, 50584, Note_on_c, 9, 41, 0
10, 50644, Note_on_c, 9, 41, 80
10, 50680, Note_on_c, 9, 41, 0
10, 50688, Note_on_c, 9, 41, 72
10, 50724, Note_on_c, 9, 41, 0
10, 50740, Note_on_c, 9, 41, 63
10, 50776, Note_on_c, 9, 41, 0
10, 50784, Note_on_c, 9, 41, 63
10, 50820, Note_on_c, 9, 41, 0
10, 50880, Note_on_c, 9, 35, 100
10, 50880, Note_on_c, 9, 41, 80
10, 50916, Note_on_c, 9, 41, 0
10, 50976, Note_on_c, 9, 35, 0
10, 51168, Note_on_c, 9, 35, 100
10, 51168, Note_on_c, 9, 41, 80
10, 51204, Note_on_c, 9, 41, 0
10, 51264, Note_on_c, 9, 35, 0
10, 51456, Note_on_c, 9, 35, 100
10, 51552, Note_on_c, 9, 35, 0
10, 51648, Note_on_c, 9, 41, 114
10, 51684, Note_on_c, 9, 41, 0
10, 51700, Note_on_c, 9, 41, 64
10, 51736, Note_on_c, 9, 41, 0
10, 51796, Note_on_c, 9, 41, 80
10, 51832, Note_on_c, 9, 41, 0
10, 51840, Note_on_c, 9, 41, 72
10, 51876, Note_on_c, 9, 41, 0
10, 51892, Note_on_c, 9, 41, 63
10, 51928, Note_on_c, 9, 41, 0
10, 51936, Note_on_c, 9, 41, 63
10, 51972, Note_on_c, 9, 41, 0
10, 52032, Note_on_c, 9, 35, 100
10, 52032, Note_on_c, 9, 41, 80
10, 52068, Note_on_c, 9, 41, 0
10, 52128, Note_on_c, 9, 35, 0
10, 52320, Note_on_c, 9, 35, 100
10, 52320, Note_on_c, 9, 41, 80
10, 52356, Note_on_c, 9, 41, 0
10, 52416, Note_on_c, 9, 35, 0
10, 52608, Note_on_c, 9, 35, 100
10, 52704, Note_on_c, 9, 35, 0
10, 53492, Control_c, 9, 7, 126
10, 53760, Note_on_c, 9, 35, 100
10, 53855, Note_on_c, 9, 35, 0
10, 53952, Note_on_c, 9, 35, 99
10, 53952, Note_on_c, 9, 41, 81
10, 53978, Note_on_c, 9, 41, 0
10, 53984, Note_on_c, 9, 41, 68
10, 54010, Note_on_c, 9, 41, 0
10, 54012, Note_on_c, 9, 41, 56
10, 54047, Note_on_c, 9, 35, 0
10, 54047, Note_on_c, 9, 41, 92
10, 54048, Note_on_c, 9, 41, 0
10, 54048, Note_on_c, 9, 35, 100
10, 54082, Note_on_c, 9, 41, 0
10, 54108, Note_on_c, 9, 41, 56
10, 54142, Note_on_c, 9, 38, 89
10, 54143, Note_on_c, 9, 35, 0
10, 54144, Note_on_c, 9, 41, 0
10, 54144, Note_on_c, 9, 35, 114
10, 54144, Note_on_c, 9, 41, 114
10, 54179, Note_on_c, 9, 38, 0
10, 54180, Note_on_c, 9, 41, 0
10, 54240, Note_on_c, 9, 35, 0
10, 54240, Note_on_c, 9, 41, 63
10, 54277, Note_on_c, 9, 41, 0
10, 54336, Note_on_c, 9, 40, 114
10, 54337, Note_on_c, 9, 38, 90
10, 54372, Note_on_c, 9, 40, 0
10, 54374, Note_on_c, 9, 38, 0
10, 54388, Note_on_c, 9, 41, 79
10, 54424, Note_on_c, 9, 41, 0
10, 54432, Note_on_c, 9, 41, 72
10, 54468, Note_on_c, 9, 41, 0
10, 54484, Note_on_c, 9, 41, 64
10, 54520, Note_on_c, 9, 41, 0
10, 54528, Note_on_c, 9, 35, 114
10, 54528, Note_on_c, 9, 41, 114
10, 54528, Note_on_c, 9, 38, 91
10, 54564, Note_on_c, 9, 38, 0
10, 54564, Note_on_c, 9, 41, 0
10, 54580, Note_on_c, 9, 41, 80
10, 54616, Note_on_c, 9, 41, 0
10, 54616, Note_on_c, 9, 35, 0
10, 54624, Note_on_c, 9, 35, 114
10, 54624, Note_on_c, 9, 41, 114
10, 54660, Note_on_c, 9, 41, 0
10, 54676, Note_on_c, 9, 41, 63
10, 54712, Note_on_c, 9, 41, 0
10, 54713, Note_on_c, 9, 35, 0
10, 54720, Note_on_c, 9, 40, 114
10, 54722, Note_on_c, 9, 38, 92
10, 54756, Note_on_c, 9, 40, 0
10, 54759, Note_on_c, 9, 38, 0
10, 54772, Note_on_c, 9, 41, 79
10, 54808, Note_on_c, 9, 41, 0
10, 54816, Note_on_c, 9, 35, 114
10, 54816, Note_on_c, 9, 41, 114
10, 54852, Note_on_c, 9, 41, 0
10, 54868, Note_on_c, 9, 41, 64
10, 54904, Note_on_c, 9, 41, 0
10, 54905, Note_on_c, 9, 35, 0
10, 54910, Note_on_c, 9, 38, 93
10, 54912, Note_on_c, 9, 35, 114
10, 54912, Note_on_c, 9, 41, 114
10, 54947, Note_on_c, 9, 38, 0
10, 54948, Note_on_c, 9, 41, 0
10, 54964, Note_on_c, 9, 41, 80
10, 55000, Note_on_c, 9, 41, 0
10, 55008, Note_on_c, 9, 35, 0
10, 55008, Note_on_c, 9, 41, 72
10, 55044, Note_on_c, 9, 41, 0
10, 55060, Note_on_c, 9, 41, 63
10, 55096, Note_on_c, 9, 41, 0
10, 55104, Note_on_c, 9, 40, 114
10, 55105, Note_on_c, 9, 38, 94
10, 55140, Note_on_c, 9, 40, 0
10, 55142, Note_on_c, 9, 38, 0
10, 55156, Note_on_c, 9, 41, 79
10, 55192, Note_on_c, 9, 41, 0
10, 55200, Note_on_c, 9, 41, 72
10, 55236, Note_on_c, 9, 41, 0
10, 55252, Note_on_c, 9, 41, 64
10, 55288, Note_on_c, 9, 41, 0
10, 55296, Note_on_c, 9, 35, 114
10, 55296, Note_on_c, 9, 41, 114
10, 55296, Note_on_c, 9, 38, 95
10, 55332, Note_on_c, 9, 38, 0
10, 55332, Note_on_c, 9, 41, 0
10, 55348, Note_on_c, 9, 41, 80
10, 55384, Note_on_c, 9, 41, 0
10, 55384, Note_on_c, 9, 35, 0
10, 55392, Note_on_c, 9, 35, 114
10, 55392, Note_on_c, 9, 41, 114
10, 55428, Note_on_c, 9, 41, 0
10, 55444, Note_on_c, 9, 41, 63
10, 55480, Note_on_c, 9, 41, 0
10, 55481, Note_on_c, 9, 35, 0
10, 55488, Note_on_c, 9, 40, 114
10, 55490, Note_on_c, 9, 38, 96
10, 55524, Note_on_c, 9, 40, 0
10, 55527, Note_on_c, 9, 38, 0
10, 55540, Note_on_c, 9, 41, 79
10, 55576, Note_on_c, 9, 41, 0
10, 55584, Note_on_c, 9, 35, 114
10, 55584, Note_on_c, 9, 41, 114
10, 55620, Note_on_c, 9, 41, 0
10, 55636, Note_on_c, 9, 41, 64
10, 55672, Note_on_c, 9, 41, 0
10, 55673, Note_on_c, 9, 35, 0
10, 55680, Note_on_c, 9, 35, 114
10, 55680, Note_on_c, 9, 41, 114
10, 55681, Note_on_c, 9, 38, 97
10, 55716, Note_on_c, 9, 41, 0
10, 55718, Note_on_c, 9, 38, 0
10, 55732, Note_on_c, 9, 41, 80
10, 55768, Note_on_c, 9, 41, 0
10, 55776, Note_on_c, 9, 35, 0
10, 55776, Note_on_c, 9, 41, 72
10, 55812, Note_on_c, 9, 41, 0
10, 55828, Note_on_c, 9, 41, 63
10, 55864, Note_on_c, 9, 41, 0
10, 55868, Note_on_c, 9, 38, 98
10, 55872, Note_on_c, 9, 40, 114
10, 55905, Note_on_c, 9, 38, 0
10, 55908, Note_on_c, 9, 40, 0
10, 55924, Note_on_c, 9, 41, 79
10, 55960, Note_on_c, 9, 41, 0
10, 55968, Note_on_c, 9, 41, 72
10, 56004, Note_on_c, 9, 41, 0
10, 56020, Note_on_c, 9, 41, 64
10, 56056, Note_on_c, 9, 41, 0
10, 56062, Note_on_c, 9, 38, 99
10, 56064, Note_on_c, 9, 35, 114
10, 56064, Note_on_c, 9, 41, 114
10, 56099, Note_on_c, 9, 38, 0
10, 56100, Note_on_c, 9, 41, 0
10, 56116, Note_on_c, 9, 41, 80
10, 56152, Note_on_c, 9, 41, 0
10, 56152, Note_on_c, 9, 35, 0
10, 56160, Note_on_c, 9, 35, 114
10, 56160, Note_on_c, 9, 41, 114
10, 56196, Note_on_c, 9, 41, 0
10, 56212, Note_on_c, 9, 41, 63
10, 56248, Note_on_c, 9, 41, 0
10, 56249, Note_on_c, 9, 35, 0
10, 56253, Note_on_c, 9, 38, 100
10, 56256, Note_on_c, 9, 40, 114
10, 56290, Note_on_c, 9, 38, 0
10, 56292, Note_on_c, 9, 40, 0
10, 56308, Note_on_c, 9, 41, 79
10, 56344, Note_on_c, 9, 41, 0
10, 56352, Note_on_c, 9, 35, 114
10, 56352, Note_on_c, 9, 41, 114
10, 56388, Note_on_c, 9, 41, 0
10, 56404, Note_on_c, 9, 41, 64
10, 56440, Note_on_c, 9, 41, 0
10, 56441, Note_on_c, 9, 35, 0
10, 56448, Note_on_c, 9, 38, 101
10, 56452, Note_on_c, 9, 35, 114
10, 56452, Note_on_c, 9, 41, 114
10, 56484, Note_on_c, 9, 38, 0
10, 56489, Note_on_c, 9, 41, 0
10, 56504, Note_on_c, 9, 41, 80
10, 56541, Note_on_c, 9, 41, 0
10, 56548, Note_on_c, 9, 35, 0
10, 56548, Note_on_c, 9, 41, 72
10, 56585, Note_on_c, 9, 41, 0
10, 56600, Note_on_c, 9, 41, 63
10, 56637, Note_on_c, 9, 41, 0
10, 56638, Note_on_c, 9, 38, 102
10, 56644, Note_on_c, 9, 40, 114
10, 56675, Note_on_c, 9, 38, 0
10, 56681, Note_on_c, 9, 40, 0
10, 56696, Note_on_c, 9, 41, 79
10, 56733, Note_on_c, 9, 41, 0
10, 56740, Note_on_c, 9, 41, 72
10, 56777, Note_on_c, 9, 41, 0
10, 56792, Note_on_c, 9, 41, 64
10, 56829, Note_on_c, 9, 41, 0
10, 56833, Note_on_c, 9, 38, 103
10, 56836, Note_on_c, 9, 35, 114
10, 56836, Note_on_c, 9, 41, 114
10, 56870, Note_on_c, 9, 38, 0
10, 56873, Note_on_c, 9, 41, 0
10, 56888, Note_on_c, 9, 41, 80
10, 56924, Note_on_c, 9, 35, 0
10, 56925, Note_on_c, 9, 41, 0
10, 56932, Note_on_c, 9, 35, 114
10, 56932, Note_on_c, 9, 41, 114
10, 56969, Note_on_c, 9, 41, 0
10, 56984, Note_on_c, 9, 41, 63
10, 57021, Note_on_c, 9, 41, 0
10, 57022, Note_on_c, 9, 35, 0
10, 57027, Note_on_c, 9, 38, 105
10, 57028, Note_on_c, 9, 40, 114
10, 57064, Note_on_c, 9, 38, 0
10, 57065, Note_on_c, 9, 40, 0
10, 57080, Note_on_c, 9, 41, 79
10, 57117, Note_on_c, 9, 41, 0
10, 57124, Note_on_c, 9, 35, 114
10, 57124, Note_on_c, 9, 41, 114
10, 57161, Note_on_c, 9, 41, 0
10, 57176, Note_on_c, 9, 41, 64
10, 57213, Note_on_c, 9, 41, 0
10, 57214, Note_on_c, 9, 35, 0
10, 57218, Note_on_c, 9, 35, 114
10, 57218, Note_on_c, 9, 41, 114
10, 57218, Note_on_c, 9, 38, 106
10, 57255, Note_on_c, 9, 38, 0
10, 57255, Note_on_c, 9, 41, 0
10, 57314, Note_on_c, 9, 35, 0
10, 57315, Note_on_c, 9, 41, 63
10, 57352, Note_on_c, 9, 41, 0
10, 57410, Note_on_c, 9, 40, 114
10, 57412, Note_on_c, 9, 38, 107
10, 57447, Note_on_c, 9, 40, 0
10, 57449, Note_on_c, 9, 38, 0
10, 57462, Note_on_c, 9, 41, 79
10, 57499, Note_on_c, 9, 41, 0
10, 57506, Note_on_c, 9, 41, 72
10, 57543, Note_on_c, 9, 41, 0
10, 57558, Note_on_c, 9, 41, 64
10, 57595, Note_on_c, 9, 41, 0
10, 57602, Note_on_c, 9, 35, 114
10, 57602, Note_on_c, 9, 41, 114
10, 57603, Note_on_c, 9, 38, 108
10, 57639, Note_on_c, 9, 41, 0
10, 57640, Note_on_c, 9, 38, 0
10, 57654, Note_on_c, 9, 41, 80
10, 57690, Note_on_c, 9, 35, 0
10, 57691, Note_on_c, 9, 41, 0
10, 57698, Note_on_c, 9, 35, 114
10, 57698, Note_on_c, 9, 41, 114
10, 57735, Note_on_c, 9, 41, 0
10, 57750, Note_on_c, 9, 41, 63
10, 57787, Note_on_c, 9, 41, 0
10, 57788, Note_on_c, 9, 35, 0
10, 57790, Note_on_c, 9, 38, 109
10, 57794, Note_on_c, 9, 40, 114
10, 57827, Note_on_c, 9, 38, 0
10, 57831, Note_on_c, 9, 40, 0
10, 57846, Note_on_c, 9, 41, 79
10, 57883, Note_on_c, 9, 41, 0
10, 57890, Note_on_c, 9, 35, 114
10, 57890, Note_on_c, 9, 41, 114
10, 57927, Note_on_c, 9, 41, 0
10, 57942, Note_on_c, 9, 41, 64
10, 57979, Note_on_c, 9, 41, 0
10, 57980, Note_on_c, 9, 35, 0
10, 57985, Note_on_c, 9, 38, 110
10, 57986, Note_on_c, 9, 35, 114
10, 57986, Note_on_c, 9, 41, 114
10, 58022, Note_on_c, 9, 38, 0
10, 58023, Note_on_c, 9, 41, 0
10, 58038, Note_on_c, 9, 41, 80
10, 58075, Note_on_c, 9, 41, 0
10, 58082, Note_on_c, 9, 35, 0
10, 58082, Note_on_c, 9, 41, 72
10, 58119, Note_on_c, 9, 41, 0
10, 58134, Note_on_c, 9, 41, 63
10, 58171, Note_on_c, 9, 41, 0
10, 58176, Note_on_c, 9, 38, 111
10, 58178, Note_on_c, 9, 40, 114
10, 58212, Note_on_c, 9, 38, 0
10, 58215, Note_on_c, 9, 40, 0
10, 58230, Note_on_c, 9, 41, 79
10, 58267, Note_on_c, 9, 41, 0
10, 58274, Note_on_c, 9, 41, 72
10, 58311, Note_on_c, 9, 41, 0
10, 58326, Note_on_c, 9, 41, 64
10, 58363, Note_on_c, 9, 41, 0
10, 58370, Note_on_c, 9, 35, 114
10, 58370, Note_on_c, 9, 41, 114
10, 58370, Note_on_c, 9, 38, 112
10, 58407, Note_on_c, 9, 38, 0
10, 58407, Note_on_c, 9, 41, 0
10, 58422, Note_on_c, 9, 41, 80
10, 58458, Note_on_c, 9, 35, 0
10, 58459, Note_on_c, 9, 41, 0
10, 58466, Note_on_c, 9, 35, 114
10, 58466, Note_on_c, 9, 41, 114
10, 58503, Note_on_c, 9, 41, 0
10, 58518, Note_on_c, 9, 41, 63
10, 58555, Note_on_c, 9, 41, 0
10, 58556, Note_on_c, 9, 35, 0
10, 58561, Note_on_c, 9, 38, 113
10, 58562, Note_on_c, 9, 40, 114
10, 58598, Note_on_c, 9, 38, 0
10, 58599, Note_on_c, 9, 40, 0
10, 58614, Note_on_c, 9, 41, 79
10, 58651, Note_on_c, 9, 41, 0
10, 58658, Note_on_c, 9, 35, 114
10, 58658, Note_on_c, 9, 41, 114
10, 58695, Note_on_c, 9, 41, 0
10, 58710, Note_on_c, 9, 41, 64
10, 58747, Note_on_c, 9, 41, 0
10, 58748, Note_on_c, 9, 35, 0
10, 58752, Note_on_c, 9, 35, 114
10, 58752, Note_on_c, 9, 41, 114
10, 58752, Note_on_c, 9, 38, 114
10, 58788, Note_on_c, 9, 38, 0
10, 58788, Note_on_c, 9, 41, 0
10, 58848, Note_on_c, 9, 35, 0
10, 58848, Note_on_c, 9, 41, 63
10, 58885, Note_on_c, 9, 41, 0
10, 58942, Note_on_c, 9, 38, 115
10, 58944, Note_on_c, 9, 40, 114
10, 58979, Note_on_c, 9, 38, 0
10, 58980, Note_on_c, 9, 40, 0
10, 58996, Note_on_c, 9, 41, 79
10, 59032, Note_on_c, 9, 41, 0
10, 59040, Note_on_c, 9, 41, 72
10, 59076, Note_on_c, 9, 41, 0
10, 59092, Note_on_c, 9, 41, 64
10, 59128, Note_on_c, 9, 41, 0
10, 59136, Note_on_c, 9, 35, 114
10, 59136, Note_on_c, 9, 41, 114
10, 59137, Note_on_c, 9, 38, 116
10, 59172, Note_on_c, 9, 41, 0
10, 59174, Note_on_c, 9, 38, 0
10, 59188, Note_on_c, 9, 41, 80
10, 59224, Note_on_c, 9, 41, 0
10, 59224, Note_on_c, 9, 35, 0
10, 59232, Note_on_c, 9, 35, 114
10, 59232, Note_on_c, 9, 41, 114
10, 59268, Note_on_c, 9, 41, 0
10, 59284, Note_on_c, 9, 41, 63
10, 59320, Note_on_c, 9, 41, 0
10, 59321, Note_on_c, 9, 35, 0
10, 59328, Note_on_c, 9, 40, 114
10, 59328, Note_on_c, 9, 38, 117
10, 59364, Note_on_c, 9, 38, 0
10, 59364, Note_on_c, 9, 40, 0
10, 59380, Note_on_c, 9, 41, 79
10, 59416, Note_on_c, 9, 41, 0
10, 59424, Note_on_c, 9, 35, 114
10, 59424, Note_on_c, 9, 41, 114
10, 59460, Note_on_c, 9, 41, 0
10, 59476, Note_on_c, 9, 41, 64
10, 59512, Note_on_c, 9, 41, 0
10, 59513, Note_on_c, 9, 35, 0
10, 59518, Note_on_c, 9, 38, 118
10, 59520, Note_on_c, 9, 35, 114
10, 59520, Note_on_c, 9, 41, 114
10, 59555, Note_on_c, 9, 38, 0
10, 59556, Note_on_c, 9, 41, 0
10, 59572, Note_on_c, 9, 41, 80
10, 59608, Note_on_c, 9, 41, 0
10, 59616, Note_on_c, 9, 35, 0
10, 59616, Note_on_c, 9, 41, 72
10, 59652, Note_on_c, 9, 41, 0
10, 59668, Note_on_c, 9, 41, 63
10, 59704, Note_on_c, 9, 41, 0
10, 59712, Note_on_c, 9, 40, 114
10, 59713, Note_on_c, 9, 38, 119
10, 59748, Note_on_c, 9, 40, 0
10, 59750, Note_on_c, 9, 38, 0
10, 59764, Note_on_c, 9, 41, 79
10, 59800, Note_on_c, 9, 41, 0
10, 59808, Note_on_c, 9, 41, 72
10, 59844, Note_on_c, 9, 41, 0
10, 59860, Note_on_c, 9, 41, 64
10, 59896, Note_on_c, 9, 41, 0
10, 59904, Note_on_c, 9, 35, 114
10, 59904, Note_on_c, 9, 41, 114
10, 59904, Note_on_c, 9, 38, 120
10, 59940, Note_on_c, 9, 38, 0
10, 59940, Note_on_c, 9, 41, 0
10, 59956, Note_on_c, 9, 41, 80
10, 59992, Note_on_c, 9, 41, 0
10, 59992, Note_on_c, 9, 35, 0
10, 60000, Note_on_c, 9, 35, 114
10, 60000, Note_on_c, 9, 41, 114
10, 60036, Note_on_c, 9, 41, 0
10, 60052, Note_on_c, 9, 41, 63
10, 60088, Note_on_c, 9, 41, 0
10, 60089, Note_on_c, 9, 35, 0
10, 60096, Note_on_c, 9, 40, 114
10, 60098, Note_on_c, 9, 38, 121
10, 60132, Note_on_c, 9, 40, 0
10, 60135, Note_on_c, 9, 38, 0
10, 60148, Note_on_c, 9, 41, 79
10, 60184, Note_on_c, 9, 41, 0
10, 60192, Note_on_c, 9, 35, 114
10, 60192, Note_on_c, 9, 41, 114
10, 60228, Note_on_c, 9, 41, 0
10, 60244, Note_on_c, 9, 41, 64
10, 60280, Note_on_c, 9, 41, 0
10, 60281, Note_on_c, 9, 35, 0
10, 60288, Note_on_c, 9, 35, 114
10, 60288, Note_on_c, 9, 41, 114
10, 60289, Note_on_c, 9, 38, 122
10, 60324, Note_on_c, 9, 41, 0
10, 60326, Note_on_c, 9, 38, 0
10, 60340, Note_on_c, 9, 41, 80
10, 60376, Note_on_c, 9, 41, 0
10, 60384, Note_on_c, 9, 35, 0
10, 60384, Note_on_c, 9, 41, 72
10, 60420, Note_on_c, 9, 41, 0
10, 60436, Note_on_c, 9, 41, 63
10, 60472, Note_on_c, 9, 41, 0
10, 60476, Note_on_c, 9, 38, 123
10, 60480, Note_on_c, 9, 40, 114
10, 60513, Note_on_c, 9, 38, 0
10, 60516, Note_on_c, 9, 40, 0
10, 60532, Note_on_c, 9, 41, 79
10, 60568, Note_on_c, 9, 41, 0
10, 60576, Note_on_c, 9, 41, 72
10, 60612, Note_on_c, 9, 41, 0
10, 60628, Note_on_c, 9, 41, 64
10, 60664, Note_on_c, 9, 41, 0
10, 60670, Note_on_c, 9, 38, 124
10, 60672, Note_on_c, 9, 35, 114
10, 60672, Note_on_c, 9, 41, 114
10, 60707, Note_on_c, 9, 38, 0
10, 60708, Note_on_c, 9, 41, 0
10, 60724, Note_on_c, 9, 41, 80
10, 60760, Note_on_c, 9, 41, 0
10, 60760, Note_on_c, 9, 35, 0
10, 60768, Note_on_c, 9, 35, 114
10, 60768, Note_on_c, 9, 41, 114
10, 60804, Note_on_c, 9, 41, 0
10, 60820, Note_on_c, 9, 41, 63
10, 60856, Note_on_c, 9, 41, 0
10, 60857, Note_on_c, 9, 35, 0
10, 60861, Note_on_c, 9, 38, 125
10, 60864, Note_on_c, 9, 40, 114
10, 60898, Note_on_c, 9, 38, 0
10, 60900, Note_on_c, 9, 40, 0
10, 60916, Note_on_c, 9, 41, 79
10, 60952, Note_on_c, 9, 41, 0
10, 60960, Note_on_c, 9, 35, 114
10, 60960, Note_on_c, 9, 41, 114
10, 60996, Note_on_c, 9, 41, 0
10, 61012, Note_on_c, 9, 41, 64
10, 61048, Note_on_c, 9, 41, 0
10, 61049, Note_on_c, 9, 35, 0
10, 61056, Note_on_c, 9, 38, 126
10, 61060, Note_on_c, 9, 35, 114
10, 61060, Note_on_c, 9, 41, 114
10, 61092, Note_on_c, 9, 38, 0
10, 61097, Note_on_c, 9, 41, 0
10, 61112, Note_on_c, 9, 41, 80
10, 61149, Note_on_c, 9, 41, 0
10, 61156, Note_on_c, 9, 35, 0
10, 61156, Note_on_c, 9, 41, 72
10, 61193, Note_on_c, 9, 41, 0
10, 61208, Note_on_c, 9, 41, 63
10, 61245, Note_on_c, 9, 41, 0
10, 61246, Note_on_c, 9, 38, 126
10, 61252, Note_on_c, 9, 40, 114
10, 61283, Note_on_c, 9, 38, 0
10, 61289, Note_on_c, 9, 40, 0
10, 61304, Note_on_c, 9, 41, 79
10, 61341, Note_on_c, 9, 41, 0
10, 61348, Note_on_c, 9, 41, 72
10, 61385, Note_on_c, 9, 41, 0
10, 61400, Note_on_c, 9, 41, 64
10, 61437, Note_on_c, 9, 41, 0
10, 61440, Note_on_c, 9, 38, 126
10, 61444, Note_on_c, 9, 35, 114
10, 61444, Note_on_c, 9, 41, 114
10, 61476, Note_on_c, 9, 38, 0
10, 61481, Note_on_c, 9, 41, 0
10, 61496, Note_on_c, 9, 41, 80
10, 61532, Note_on_c, 9, 35, 0
10, 61533, Note_on_c, 9, 41, 0
10, 61540, Note_on_c, 9, 35, 114
10, 61540, Note_on_c, 9, 41, 114
10, 61577, Note_on_c, 9, 41, 0
10, 61592, Note_on_c, 9, 41, 63
10, 61629, Note_on_c, 9, 41, 0
10, 61630, Note_on_c, 9, 35, 0
10, 61634, Note_on_c, 9, 38, 126
10, 61636, Note_on_c, 9, 40, 114
10, 61671, Note_on_c, 9, 38, 0
10, 61673, Note_on_c, 9, 40, 0
10, 61688, Note_on_c, 9, 41, 79
10, 61725, Note_on_c, 9, 41, 0
10, 61732, Note_on_c, 9, 35, 114
10, 61732, Note_on_c, 9, 41, 114
10, 61769, Note_on_c, 9, 41, 0
10, 61784, Note_on_c, 9, 41, 64
10, 61821, Note_on_c, 9, 41, 0
10, 61822, Note_on_c, 9, 35, 0
10, 61824, Note_on_c, 9, 35, 114
10, 61824, Note_on_c, 9, 41, 114
10, 61825, Note_on_c, 9, 38, 126
10, 61860, Note_on_c, 9, 41, 0
10, 61862, Note_on_c, 9, 38, 0
10, 61920, Note_on_c, 9, 35, 0
10, 61920, Note_on_c, 9, 41, 63
10, 61957, Note_on_c, 9, 41, 0
10, 61962, Control_c, 9, 7, 126
10, 61977, Control_c, 9, 7, 124
10, 61993, Control_c, 9, 7, 123
10, 62009, Control_c, 9, 7, 121
10, 62016, Note_on_c, 9, 40, 114
10, 62019, Note_on_c, 9, 38, 126
10, 62025, Control_c, 9, 7, 120
10, 62041, Control_c, 9, 7, 119
10, 62052, Note_on_c, 9, 40, 0
10, 62056, Note_on_c, 9, 38, 0
10, 62057, Control_c, 9, 7, 117
10, 62068, Note_on_c, 9, 41, 79
10, 62073, Control_c, 9, 7, 116
10, 62089, Control_c, 9, 7, 115
10, 62104, Note_on_c, 9, 41, 0
10, 62105, Control_c, 9, 7, 113
10, 62112, Note_on_c, 9, 41, 72
10, 62121, Control_c, 9, 7, 112
10, 62137, Control_c, 9, 7, 111
10, 62148, Note_on_c, 9, 41, 0
10, 62152, Control_c, 9, 7, 109
10, 62164, Note_on_c, 9, 41, 64
10, 62168, Control_c, 9, 7, 108
10, 62184, Control_c, 9, 7, 107
10, 62200, Note_on_c, 9, 41, 0
10, 62200, Control_c, 9, 7, 105
10, 62208, Note_on_c, 9, 35, 114
10, 62208, Note_on_c, 9, 41, 114
10, 62210, Note_on_c, 9, 38, 126
10, 62216, Control_c, 9, 7, 104
10, 62232, Control_c, 9, 7, 103
10, 62244, Note_on_c, 9, 41, 0
10, 62247, Note_on_c, 9, 38, 0
10, 62248, Control_c, 9, 7, 101
10, 62260, Note_on_c, 9, 41, 80
10, 62264, Control_c, 9, 7, 100
10, 62280, Control_c, 9, 7, 98
10, 62296, Note_on_c, 9, 41, 0
10, 62296, Note_on_c, 9, 35, 0
10, 62296, Control_c, 9, 7, 97
10, 62304, Note_on_c, 9, 35, 114
10, 62304, Note_on_c, 9, 41, 114
10, 62312, Control_c, 9, 7, 96
10, 62328, Control_c, 9, 7, 94
10, 62340, Note_on_c, 9, 41, 0
10, 62344, Control_c, 9, 7, 93
10, 62356, Note_on_c, 9, 41, 63
10, 62360, Control_c, 9, 7, 92
10, 62376, Control_c, 9, 7, 90
10, 62392, Note_on_c, 9, 41, 0
10, 62392, Control_c, 9, 7, 89
10, 62393, Note_on_c, 9, 35, 0
10, 62397, Note_on_c, 9, 38, 126
10, 62400, Note_on_c, 9, 40, 114
10, 62407, Control_c, 9, 7, 88
10, 62423, Control_c, 9, 7, 86
10, 62434, Note_on_c, 9, 38, 0
10, 62436, Note_on_c, 9, 40, 0
10, 62439, Control_c, 9, 7, 85
10, 62452, Note_on_c, 9, 41, 79
10, 62455, Control_c, 9, 7, 84
10, 62471, Control_c, 9, 7, 82
10, 62487, Control_c, 9, 7, 81
10, 62488, Note_on_c, 9, 41, 0
10, 62496, Note_on_c, 9, 35, 114
10, 62496, Note_on_c, 9, 41, 114
10, 62503, Control_c, 9, 7, 80
10, 62519, Control_c, 9, 7, 78
10, 62532, Note_on_c, 9, 41, 0
10, 62535, Control_c, 9, 7, 77
10, 62548, Note_on_c, 9, 41, 64
10, 62551, Control_c, 9, 7, 76
10, 62567, Control_c, 9, 7, 74
10, 62582, Control_c, 9, 7, 73
10, 62584, Note_on_c, 9, 41, 0
10, 62585, Note_on_c, 9, 35, 0
10, 62592, Note_on_c, 9, 35, 114
10, 62592, Note_on_c, 9, 41, 114
10, 62592, Note_on_c, 9, 38, 126
10, 62598, Control_c, 9, 7, 71
10, 62614, Control_c, 9, 7, 70
10, 62628, Note_on_c, 9, 38, 0
10, 62628, Note_on_c, 9, 41, 0
10, 62630, Control_c, 9, 7, 69
10, 62644, Note_on_c, 9, 41, 80
10, 62646, Control_c, 9, 7, 67
10, 62662, Control_c, 9, 7, 66
10, 62678, Control_c, 9, 7, 65
10, 62680, Note_on_c, 9, 41, 0
10, 62688, Note_on_c, 9, 35, 0
10, 62688, Note_on_c, 9, 41, 72
10, 62694, Control_c, 9, 7, 63
10, 62710, Control_c, 9, 7, 62
10, 62724, Note_on_c, 9, 41, 0
10, 62726, Control_c, 9, 7, 61
10, 62740, Note_on_c, 9, 41, 63
10, 62742, Control_c, 9, 7, 59
10, 62758, Control_c, 9, 7, 58
10, 62774, Control_c, 9, 7, 57
10, 62776, Note_on_c, 9, 41, 0
10, 62782, Note_on_c, 9, 38, 126
10, 62784, Note_on_c, 9, 40, 114
10, 62790, Control_c, 9, 7, 55
10, 62806, Control_c, 9, 7, 54
10, 62819, Note_on_c, 9, 38, 0
10, 62820, Note_on_c, 9, 40, 0
10, 62822, Control_c, 9, 7, 53
10, 62836, Note_on_c, 9, 41, 79
10, 62837, Control_c, 9, 7, 51
10, 62853, Control_c, 9, 7, 50
10, 62869, Control_c, 9, 7, 49
10, 62872, Note_on_c, 9, 41, 0
10, 62880, Note_on_c, 9, 41, 72
10, 62885, Control_c, 9, 7, 47
10, 62901, Control_c, 9, 7, 46
10, 62916, Note_on_c, 9, 41, 0
10, 62917, Control_c, 9, 7, 44
10, 62932, Note_on_c, 9, 41, 64
10, 62933, Control_c, 9, 7, 43
10, 62949, Control_c, 9, 7, 42
10, 62965, Control_c, 9, 7, 40
10, 62968, Note_on_c, 9, 41, 0
10, 62976, Note_on_c, 9, 35, 114
10, 62976, Note_on_c, 9, 41, 114
10, 62977, Note_on_c, 9, 38, 126
10, 62981, Control_c, 9, 7, 39
10, 62997, Control_c, 9, 7, 38
10, 63012, Note_on_c, 9, 41, 0
10, 63012, Control_c, 9, 7, 36
10, 63014, Note_on_c, 9, 38, 0
10, 63028, Note_on_c, 9, 41, 80
10, 63028, Control_c, 9, 7, 35
10, 63044, Control_c, 9, 7, 34
10, 63060, Control_c, 9, 7, 32
10, 63064, Note_on_c, 9, 41, 0
10, 63064, Note_on_c, 9, 35, 0
10, 63072, Note_on_c, 9, 35, 114
10, 63072, Note_on_c, 9, 41, 114
10, 63076, Control_c, 9, 7, 31
10, 63092, Control_c, 9, 7, 30
10, 63108, Note_on_c, 9, 41, 0
10, 63108, Control_c, 9, 7, 28
10, 63124, Note_on_c, 9, 41, 63
10, 63124, Control_c, 9, 7, 27
10, 63140, Control_c, 9, 7, 26
10, 63156, Control_c, 9, 7, 24
10, 63160, Note_on_c, 9, 41, 0
10, 63161, Note_on_c, 9, 35, 0
10, 63168, Note_on_c, 9, 40, 114
10, 63168, Note_on_c, 9, 38, 126
10, 63172, Control_c, 9, 7, 23
10, 63188, Control_c, 9, 7, 21
10, 63204, Note_on_c, 9, 38, 0
10, 63204, Note_on_c, 9, 40, 0
10, 63204, Control_c, 9, 7, 20
10, 63220, Note_on_c, 9, 41, 79
10, 63220, Control_c, 9, 7, 19
10, 63236, Control_c, 9, 7, 17
10, 63252, Control_c, 9, 7, 16
10, 63256, Note_on_c, 9, 41, 0
10, 63264, Note_on_c, 9, 35, 114
10, 63264, Note_on_c, 9, 41, 114
10, 63268, Control_c, 9, 7, 15
10, 63283, Control_c, 9, 7, 13
10, 63299, Control_c, 9, 7, 12
10, 63300, Note_on_c, 9, 41, 0
10, 63315, Control_c, 9, 7, 11
10, 63316, Note_on_c, 9, 41, 64
10, 63331, Control_c, 9, 7, 9
10, 63347, Control_c, 9, 7, 8
10, 63352, Note_on_c, 9, 41, 0
10, 63353, Note_on_c, 9, 35, 0
10, 63363, Control_c, 9, 7, 7
10, 63379, Control_c, 9, 7, 5
10, 63395, Control_c, 9, 7, 4
10, 63411, Control_c, 9, 7, 3
10, 63427, Control_c, 9, 7, 1
10, 63442, Control_c, 9, 7, 0
10, 63442, End_track
11, 0, Start_track
11, 0, MIDI_port, 0
11, 0, Title_t, "Drums"
11, 0, Program_c, 9, 0
11, 0, Control_c, 9, 7, 90
11, 0, Control_c, 9, 10, 4
11, 0, Control_c, 9, 91, 14
11, 32, Control_c, 9, 93, 2
11, 3802, Note_on_c, 9, 38, 77
11, 3840, Note_on_c, 9, 43, 108
11, 3897, Note_on_c, 9, 38, 0
11, 3935, Note_on_c, 9, 43, 0
11, 3936, Note_on_c, 9, 38, 108
11, 4031, Note_on_c, 9, 38, 0
11, 4087, Note_on_c, 9, 38, 77
11, 4128, Note_on_c, 9, 43, 108
11, 4182, Note_on_c, 9, 38, 0
11, 4223, Note_on_c, 9, 43, 0
11, 4224, Note_on_c, 9, 38, 108
11, 4319, Note_on_c, 9, 38, 0
11, 4416, Note_on_c, 9, 38, 90
11, 4511, Note_on_c, 9, 38, 0
11, 4512, Note_on_c, 9, 38, 108
11, 4607, Note_on_c, 9, 38, 0
11, 4608, Note_on_c, 9, 49, 108
11, 4800, Note_on_c, 9, 38, 108
11, 4896, Note_on_c, 9, 38, 0
11, 5184, Note_on_c, 9, 38, 108
11, 5280, Note_on_c, 9, 38, 0
11, 5568, Note_on_c, 9, 38, 108
11, 5664, Note_on_c, 9, 38, 0
11, 5726, Note_on_c, 9, 38, 77
11, 5757, Note_on_c, 9, 38, 0
11, 5760, Note_on_c, 9, 38, 108
11, 5761, Note_on_c, 9, 49, 0
11, 5855, Note_on_c, 9, 38, 0
11, 5856, Note_on_c, 9, 43, 108
11, 5951, Note_on_c, 9, 43, 0
11, 5952, Note_on_c, 9, 41, 108
11, 6007, Note_on_c, 9, 41, 0
11, 6014, Note_on_c, 9, 38, 77
11, 6045, Note_on_c, 9, 38, 0
11, 6048, Note_on_c, 9, 38, 108
11, 6143, Note_on_c, 9, 38, 0
11, 6144, Note_on_c, 9, 49, 108
11, 6336, Note_on_c, 9, 38, 108
11, 6432, Note_on_c, 9, 38, 0
11, 6720, Note_on_c, 9, 38, 108
11, 6816, Note_on_c, 9, 38, 0
11, 7104, Note_on_c, 9, 38, 108
11, 7200, Note_on_c, 9, 38, 0
11, 7297, Note_on_c, 9, 49, 0
11, 7488, Note_on_c, 9, 38, 108
11, 7584, Note_on_c, 9, 38, 0
11, 7872, Note_on_c, 9, 38, 108
11, 7968, Note_on_c, 9, 38, 0
11, 8256, Note_on_c, 9, 38, 108
11, 8352, Note_on_c, 9, 38, 0
11, 8640, Note_on_c, 9, 38, 108
11, 8736, Note_on_c, 9, 38, 0
11, 11103, Note_on_c, 9, 38, 108
11, 11126, Note_on_c, 9, 38, 0
11, 11136, Note_on_c, 9, 38, 108
11, 11180, Note_on_c, 9, 38, 0
11, 11232, Note_on_c, 9, 43, 108
11, 11327, Note_on_c, 9, 43, 0
11, 11391, Note_on_c, 9, 45, 108
11, 11412, Note_on_c, 9, 45, 0
11, 11424, Note_on_c, 9, 41, 108
11, 11468, Note_on_c, 9, 41, 0
11, 11520, Note_on_c, 9, 57, 108
11, 11712, Note_on_c, 9, 38, 108
11, 11808, Note_on_c, 9, 38, 0
11, 12096, Note_on_c, 9, 38, 108
11, 12192, Note_on_c, 9, 38, 0
11, 12480, Note_on_c, 9, 38, 108
11, 12559, Note_on_c, 9, 38, 0
11, 12576, Note_on_c, 9, 46, 114
11, 12635, Note_on_c, 9, 38, 96
11, 12664, Note_on_c, 9, 46, 0
11, 12672, Note_on_c, 9, 38, 0
11, 12672, Note_on_c, 9, 45, 108
11, 12673, Note_on_c, 9, 57, 0
11, 12704, Note_on_c, 9, 45, 0
11, 12731, Note_on_c, 9, 38, 108
11, 12768, Note_on_c, 9, 38, 0
11, 12768, Note_on_c, 9, 38, 108
11, 12805, Note_on_c, 9, 38, 0
11, 12827, Note_on_c, 9, 38, 62
11, 12860, Note_on_c, 9, 38, 0
11, 12864, Note_on_c, 9, 43, 108
11, 12896, Note_on_c, 9, 43, 0
11, 12923, Note_on_c, 9, 38, 82
11, 12960, Note_on_c, 9, 38, 0
11, 12960, Note_on_c, 9, 38, 108
11, 12997, Note_on_c, 9, 38, 0
11, 13056, Note_on_c, 9, 57, 108
11, 13248, Note_on_c, 9, 38, 108
11, 13344, Note_on_c, 9, 38, 0
11, 13632, Note_on_c, 9, 38, 108
11, 13728, Note_on_c, 9, 38, 0
11, 14016, Note_on_c, 9, 38, 108
11, 14112, Note_on_c, 9, 38, 0
11, 14209, Note_on_c, 9, 57, 0
11, 14400, Note_on_c, 9, 38, 108
11, 14496, Note_on_c, 9, 38, 0
11, 14784, Note_on_c, 9, 38, 108
11, 14880, Note_on_c, 9, 38, 0
11, 15168, Note_on_c, 9, 38, 108
11, 15264, Note_on_c, 9, 38, 0
11, 15552, Note_on_c, 9, 38, 108
11, 15648, Note_on_c, 9, 38, 0
11, 15936, Note_on_c, 9, 38, 108
11, 16032, Note_on_c, 9, 38, 0
11, 16861, Note_on_c, 9, 38, 77
11, 16892, Note_on_c, 9, 38, 0
11, 16896, Note_on_c, 9, 38, 116
11, 16991, Note_on_c, 9, 38, 0
11, 16992, Note_on_c, 9, 45, 116
11, 17087, Note_on_c, 9, 45, 0
11, 17143, Note_on_c, 9, 38, 113
11, 17238, Note_on_c, 9, 38, 0
11, 17280, Note_on_c, 9, 41, 116
11, 17375, Note_on_c, 9, 41, 0
11, 17437, Note_on_c, 9, 38, 83
11, 17468, Note_on_c, 9, 38, 0
11, 17472, Note_on_c, 9, 38, 116
11, 17522, Note_on_c, 9, 38, 0
11, 17527, Note_on_c, 9, 43, 113
11, 17558, Note_on_c, 9, 43, 0
11, 17568, Note_on_c, 9, 38, 116
11, 17618, Note_on_c, 9, 38, 0
11, 17664, Note_on_c, 9, 57, 108
11, 17750, Control_c, 9, 10, 24
11, 17856, Note_on_c, 9, 38, 108
11, 17952, Note_on_c, 9, 38, 0
11, 18240, Note_on_c, 9, 38, 108
11, 18336, Note_on_c, 9, 38, 0
11, 18624, Note_on_c, 9, 38, 108
11, 18703, Note_on_c, 9, 38, 0
11, 18720, Note_on_c, 9, 46, 114
11, 18779, Note_on_c, 9, 38, 114
11, 18808, Note_on_c, 9, 46, 0
11, 18816, Note_on_c, 9, 38, 0
11, 18816, Note_on_c, 9, 38, 127
11, 18817, Note_on_c, 9, 57, 0
11, 18853, Note_on_c, 9, 38, 0
11, 18875, Note_on_c, 9, 45, 127
11, 18912, Note_on_c, 9, 45, 0
11, 18912, Note_on_c, 9, 45, 127
11, 18949, Note_on_c, 9, 45, 0
11, 18971, Note_on_c, 9, 41, 74
11, 19004, Note_on_c, 9, 41, 0
11, 19008, Note_on_c, 9, 41, 127
11, 19040, Note_on_c, 9, 41, 0
11, 19070, Note_on_c, 9, 38, 98
11, 19102, Note_on_c, 9, 38, 0
11, 19104, Note_on_c, 9, 38, 127
11, 19136, Note_on_c, 9, 38, 0
11, 19200, Note_on_c, 9, 57, 108
11, 19392, Note_on_c, 9, 38, 108
11, 19488, Note_on_c, 9, 38, 0
11, 19776, Note_on_c, 9, 38, 108
11, 19872, Note_on_c, 9, 38, 0
11, 20160, Note_on_c, 9, 38, 108
11, 20239, Note_on_c, 9, 38, 0
11, 20256, Note_on_c, 9, 46, 114
11, 20315, Note_on_c, 9, 38, 114
11, 20344, Note_on_c, 9, 46, 0
11, 20352, Note_on_c, 9, 38, 0
11, 20352, Note_on_c, 9, 38, 127
11, 20353, Note_on_c, 9, 57, 0
11, 20389, Note_on_c, 9, 38, 0
11, 20411, Note_on_c, 9, 45, 127
11, 20448, Note_on_c, 9, 45, 0
11, 20448, Note_on_c, 9, 45, 127
11, 20485, Note_on_c, 9, 45, 0
11, 20507, Note_on_c, 9, 41, 74
11, 20540, Note_on_c, 9, 41, 0
11, 20544, Note_on_c, 9, 41, 127
11, 20576, Note_on_c, 9, 41, 0
11, 20606, Note_on_c, 9, 38, 98
11, 20638, Note_on_c, 9, 38, 0
11, 20640, Note_on_c, 9, 38, 127
11, 20672, Note_on_c, 9, 38, 0
11, 20736, Note_on_c, 9, 57, 108
11, 20928, Note_on_c, 9, 38, 108
11, 21024, Note_on_c, 9, 38, 0
11, 21312, Note_on_c, 9, 38, 108
11, 21408, Note_on_c, 9, 38, 0
11, 21504, Note_on_c, 9, 69, 108
11, 21600, Note_on_c, 9, 69, 0
11, 21696, Note_on_c, 9, 38, 108
11, 21792, Note_on_c, 9, 38, 0
11, 21889, Note_on_c, 9, 57, 0
11, 22080, Note_on_c, 9, 69, 108
11, 22176, Note_on_c, 9, 69, 0
11, 22368, Note_on_c, 9, 69, 108
11, 22464, Note_on_c, 9, 69, 0
11, 26547, Control_c, 9, 10, 1
11, 26880, Note_on_c, 9, 82, 62
11, 26891, Control_c, 9, 7, 90
11, 26894, Control_c, 9, 7, 58
11, 26916, Note_on_c, 9, 82, 0
11, 26931, Note_on_c, 9, 82, 84
11, 26948, Control_c, 9, 7, 58
11, 26967, Note_on_c, 9, 82, 0
11, 26976, Note_on_c, 9, 82, 98
11, 27002, Control_c, 9, 7, 59
11, 27012, Note_on_c, 9, 82, 0
11, 27027, Note_on_c, 9, 82, 82
11, 27056, Control_c, 9, 7, 60
11, 27063, Note_on_c, 9, 82, 0
11, 27072, Note_on_c, 9, 82, 62
11, 27108, Note_on_c, 9, 82, 0
11, 27110, Control_c, 9, 7, 61
11, 27123, Note_on_c, 9, 82, 84
11, 27159, Note_on_c, 9, 82, 0
11, 27164, Control_c, 9, 7, 62
11, 27168, Note_on_c, 9, 82, 98
11, 27204, Note_on_c, 9, 82, 0
11, 27218, Control_c, 9, 7, 63
11, 27219, Note_on_c, 9, 82, 82
11, 27255, Note_on_c, 9, 82, 0
11, 27264, Note_on_c, 9, 82, 62
11, 27272, Control_c, 9, 7, 64
11, 27300, Note_on_c, 9, 82, 0
11, 27315, Note_on_c, 9, 82, 84
11, 27326, Control_c, 9, 7, 65
11, 27351, Note_on_c, 9, 82, 0
11, 27360, Note_on_c, 9, 82, 98
11, 27380, Control_c, 9, 7, 66
11, 27396, Note_on_c, 9, 82, 0
11, 27411, Note_on_c, 9, 82, 82
11, 27433, Control_c, 9, 7, 67
11, 27447, Note_on_c, 9, 82, 0
11, 27456, Note_on_c, 9, 82, 62
11, 27487, Control_c, 9, 7, 68
11, 27492, Note_on_c, 9, 82, 0
11, 27507, Note_on_c, 9, 82, 84
11, 27541, Control_c, 9, 7, 69
11, 27543, Note_on_c, 9, 82, 0
11, 27552, Note_on_c, 9, 82, 98
11, 27588, Note_on_c, 9, 82, 0
11, 27595, Control_c, 9, 7, 70
11, 27603, Note_on_c, 9, 82, 82
11, 27639, Note_on_c, 9, 82, 0
11, 27648, Note_on_c, 9, 82, 62
11, 27649, Control_c, 9, 7, 71
11, 27684, Note_on_c, 9, 82, 0
11, 27699, Note_on_c, 9, 82, 84
11, 27703, Control_c, 9, 7, 72
11, 27735, Note_on_c, 9, 82, 0
11, 27744, Note_on_c, 9, 82, 98
11, 27757, Control_c, 9, 7, 73
11, 27780, Note_on_c, 9, 82, 0
11, 27795, Note_on_c, 9, 82, 82
11, 27811, Control_c, 9, 7, 74
11, 27831, Note_on_c, 9, 82, 0
11, 27840, Note_on_c, 9, 82, 62
11, 27865, Control_c, 9, 7, 75
11, 27876, Note_on_c, 9, 82, 0
11, 27891, Note_on_c, 9, 82, 84
11, 27919, Control_c, 9, 7, 76
11, 27927, Note_on_c, 9, 82, 0
11, 27936, Note_on_c, 9, 82, 98
11, 27972, Note_on_c, 9, 82, 0
11, 27973, Control_c, 9, 7, 77
11, 27987, Note_on_c, 9, 82, 82
11, 28023, Note_on_c, 9, 82, 0
11, 28027, Control_c, 9, 7, 78
11, 28032, Note_on_c, 9, 82, 62
11, 28068, Note_on_c, 9, 82, 0
11, 28081, Control_c, 9, 7, 79
11, 28083, Note_on_c, 9, 82, 84
11, 28119, Note_on_c, 9, 82, 0
11, 28128, Note_on_c, 9, 82, 98
11, 28135, Control_c, 9, 7, 80
11, 28164, Note_on_c, 9, 82, 0
11, 28179, Note_on_c, 9, 82, 82
11, 28189, Control_c, 9, 7, 81
11, 28215, Note_on_c, 9, 82, 0
11, 28224, Note_on_c, 9, 82, 62
11, 28243, Control_c, 9, 7, 82
11, 28260, Note_on_c, 9, 82, 0
11, 28275, Note_on_c, 9, 82, 84
11, 28297, Control_c, 9, 7, 83
11, 28311, Note_on_c, 9, 82, 0
11, 28320, Note_on_c, 9, 82, 98
11, 28351, Control_c, 9, 7, 84
11, 28356, Note_on_c, 9, 82, 0
11, 28371, Note_on_c, 9, 82, 82
11, 28405, Control_c, 9, 7, 85
11, 28407, Note_on_c, 9, 82, 0
11, 28416, Note_on_c, 9, 82, 62
11, 28452, Note_on_c, 9, 82, 0
11, 28459, Control_c, 9, 7, 86
11, 28467, Note_on_c, 9, 82, 84
11, 28503, Note_on_c, 9, 82, 0
11, 28512, Note_on_c, 9, 82, 98
11, 28512, Control_c, 9, 7, 87
11, 28548, Note_on_c, 9, 82, 0
11, 28563, Note_on_c, 9, 82, 82
11, 28566, Control_c, 9, 7, 88
11, 28599, Note_on_c, 9, 82, 0
11, 28608, Note_on_c, 9, 82, 62
11, 28620, Control_c, 9, 7, 89
11, 28644, Note_on_c, 9, 82, 0
11, 28659, Note_on_c, 9, 82, 84
11, 28674, Control_c, 9, 7, 90
11, 28695, Note_on_c, 9, 82, 0
11, 28704, Note_on_c, 9, 82, 98
11, 28728, Control_c, 9, 7, 91
11, 28740, Note_on_c, 9, 82, 0
11, 28755, Note_on_c, 9, 82, 82
11, 28782, Control_c, 9, 7, 92
11, 28791, Note_on_c, 9, 82, 0
11, 28800, Note_on_c, 9, 82, 62
11, 28836, Note_on_c, 9, 82, 0
11, 28836, Control_c, 9, 7, 93
11, 28851, Note_on_c, 9, 82, 84
11, 28887, Note_on_c, 9, 82, 0
11, 28890, Control_c, 9, 7, 94
11, 28896, Note_on_c, 9, 82, 98
11, 28932, Note_on_c, 9, 82, 0
11, 28944, Control_c, 9, 7, 95
11, 28947, Note_on_c, 9, 82, 82
11, 28983, Note_on_c, 9, 82, 0
11, 28992, Note_on_c, 9, 82, 62
11, 28998, Control_c, 9, 7, 96
11, 29028, Note_on_c, 9, 82, 0
11, 29043, Note_on_c, 9, 82, 84
11, 29052, Control_c, 9, 7, 97
11, 29079, Note_on_c, 9, 82, 0
11, 29088, Note_on_c, 9, 82, 98
11, 29106, Control_c, 9, 7, 98
11, 29124, Note_on_c, 9, 82, 0
11, 29139, Note_on_c, 9, 82, 82
11, 29160, Control_c, 9, 7, 99
11, 29175, Note_on_c, 9, 82, 0
11, 29184, Note_on_c, 9, 82, 62
11, 29214, Control_c, 9, 7, 100
11, 29220, Note_on_c, 9, 82, 0
11, 29235, Note_on_c, 9, 82, 84
11, 29268, Control_c, 9, 7, 101
11, 29271, Note_on_c, 9, 82, 0
11, 29280, Note_on_c, 9, 82, 98
11, 29316, Note_on_c, 9, 82, 0
11, 29322, Control_c, 9, 7, 102
11, 29331, Note_on_c, 9, 82, 82
11, 29367, Note_on_c, 9, 82, 0
11, 29376, Note_on_c, 9, 82, 62
11, 29376, Control_c, 9, 7, 103
11, 29412, Note_on_c, 9, 82, 0
11, 29427, Note_on_c, 9, 82, 84
11, 29430, Control_c, 9, 7, 104
11, 29463, Note_on_c, 9, 82, 0
11, 29472, Note_on_c, 9, 82, 98
11, 29484, Control_c, 9, 7, 105
11, 29508, Note_on_c, 9, 82, 0
11, 29523, Note_on_c, 9, 82, 82
11, 29538, Control_c, 9, 7, 106
11, 29559, Note_on_c, 9, 82, 0
11, 29568, Note_on_c, 9, 82, 62
11, 29592, Control_c, 9, 7, 107
11, 29604, Note_on_c, 9, 82, 0
11, 29619, Note_on_c, 9, 82, 84
11, 29646, Control_c, 9, 7, 108
11, 29655, Note_on_c, 9, 82, 0
11, 29664, Note_on_c, 9, 82, 98
11, 29700, Note_on_c, 9, 82, 0
11, 29700, Control_c, 9, 7, 109
11, 29715, Note_on_c, 9, 82, 82
11, 29751, Note_on_c, 9, 82, 0
11, 29754, Control_c, 9, 7, 110
11, 29760, Note_on_c, 9, 82, 62
11, 29796, Note_on_c, 9, 82, 0
11, 29808, Control_c, 9, 7, 111
11, 29811, Note_on_c, 9, 82, 84
11, 29847, Note_on_c, 9, 82, 0
11, 29856, Note_on_c, 9, 82, 98
11, 29862, Control_c, 9, 7, 112
11, 29892, Note_on_c, 9, 82, 0
11, 29907, Note_on_c, 9, 82, 82
11, 29916, Control_c, 9, 7, 113
11, 29943, Note_on_c, 9, 82, 0
11, 29952, Note_on_c, 9, 82, 62
11, 29970, Control_c, 9, 7, 114
11, 29988, Note_on_c, 9, 82, 0
11, 30024, Control_c, 9, 7, 115
11, 30078, Control_c, 9, 7, 116
11, 30131, Control_c, 9, 7, 117
11, 30185, Control_c, 9, 7, 118
11, 30239, Control_c, 9, 7, 119
11, 30293, Control_c, 9, 7, 120
11, 30347, Control_c, 9, 7, 121
11, 30401, Control_c, 9, 7, 122
11, 30455, Control_c, 9, 7, 123
11, 30509, Control_c, 9, 7, 124
11, 30514, Control_c, 9, 10, 1
11, 30540, Control_c, 9, 10, 12
11, 30563, Control_c, 9, 7, 125
11, 30617, Control_c, 9, 7, 127
11, 30617, Control_c, 9, 7, 127
11, 30687, Note_on_c, 9, 41, 77
11, 30720, Note_on_c, 9, 41, 108
11, 30721, Note_on_c, 9, 41, 0
11, 30753, Note_on_c, 9, 41, 0
11, 30781, Note_on_c, 9, 38, 77
11, 30816, Note_on_c, 9, 38, 108
11, 30817, Note_on_c, 9, 38, 0
11, 30851, Note_on_c, 9, 38, 0
11, 30975, Note_on_c, 9, 41, 77
11, 31008, Note_on_c, 9, 41, 108
11, 31009, Note_on_c, 9, 41, 0
11, 31041, Note_on_c, 9, 41, 0
11, 31069, Note_on_c, 9, 38, 77
11, 31104, Note_on_c, 9, 38, 108
11, 31105, Note_on_c, 9, 38, 0
11, 31139, Note_on_c, 9, 38, 0
11, 31263, Note_on_c, 9, 41, 77
11, 31296, Note_on_c, 9, 41, 108
11, 31297, Note_on_c, 9, 41, 0
11, 31329, Note_on_c, 9, 41, 0
11, 31392, Note_on_c, 9, 38, 108
11, 31418, Note_on_c, 9, 38, 0
11, 31488, Note_on_c, 9, 57, 108
11, 31680, Note_on_c, 9, 38, 108
11, 31688, Note_on_c, 9, 54, 84
11, 31776, Note_on_c, 9, 38, 0
11, 31784, Note_on_c, 9, 54, 0
11, 32064, Note_on_c, 9, 38, 108
11, 32072, Note_on_c, 9, 54, 84
11, 32160, Note_on_c, 9, 38, 0
11, 32168, Note_on_c, 9, 54, 0
11, 32448, Note_on_c, 9, 38, 108
11, 32456, Note_on_c, 9, 54, 84
11, 32527, Note_on_c, 9, 38, 0
11, 32535, Note_on_c, 9, 54, 0
11, 32544, Note_on_c, 9, 46, 114
11, 32603, Note_on_c, 9, 38, 114
11, 32632, Note_on_c, 9, 46, 0
11, 32640, Note_on_c, 9, 38, 0
11, 32640, Note_on_c, 9, 38, 127
11, 32641, Note_on_c, 9, 57, 0
11, 32677, Note_on_c, 9, 38, 0
11, 32699, Note_on_c, 9, 45, 127
11, 32736, Note_on_c, 9, 45, 0
11, 32736, Note_on_c, 9, 45, 127
11, 32773, Note_on_c, 9, 45, 0
11, 32795, Note_on_c, 9, 41, 74
11, 32828, Note_on_c, 9, 41, 0
11, 32832, Note_on_c, 9, 41, 127
11, 32840, Note_on_c, 9, 54, 84
11, 32864, Note_on_c, 9, 41, 0
11, 32894, Note_on_c, 9, 38, 98
11, 32898, Note_on_c, 9, 54, 0
11, 32926, Note_on_c, 9, 38, 0
11, 32928, Note_on_c, 9, 38, 127
11, 32960, Note_on_c, 9, 38, 0
11, 33024, Note_on_c, 9, 57, 108
11, 33216, Note_on_c, 9, 38, 108
11, 33224, Note_on_c, 9, 54, 84
11, 33312, Note_on_c, 9, 38, 0
11, 33320, Note_on_c, 9, 54, 0
11, 33600, Note_on_c, 9, 38, 108
11, 33608, Note_on_c, 9, 54, 84
11, 33696, Note_on_c, 9, 38, 0
11, 33704, Note_on_c, 9, 54, 0
11, 33984, Note_on_c, 9, 38, 108
11, 33992, Note_on_c, 9, 54, 84
11, 34063, Note_on_c, 9, 38, 0
11, 34071, Note_on_c, 9, 54, 0
11, 34080, Note_on_c, 9, 46, 114
11, 34139, Note_on_c, 9, 38, 114
11, 34168, Note_on_c, 9, 46, 0
11, 34176, Note_on_c, 9, 38, 0
11, 34176, Note_on_c, 9, 38, 127
11, 34177, Note_on_c, 9, 57, 0
11, 34213, Note_on_c, 9, 38, 0
11, 34235, Note_on_c, 9, 45, 127
11, 34272, Note_on_c, 9, 45, 0
11, 34272, Note_on_c, 9, 45, 127
11, 34309, Note_on_c, 9, 45, 0
11, 34331, Note_on_c, 9, 41, 74
11, 34364, Note_on_c, 9, 41, 0
11, 34368, Note_on_c, 9, 41, 127
11, 34376, Note_on_c, 9, 54, 84
11, 34400, Note_on_c, 9, 41, 0
11, 34430, Note_on_c, 9, 38, 98
11, 34434, Note_on_c, 9, 54, 0
11, 34462, Note_on_c, 9, 38, 0
11, 34464, Note_on_c, 9, 38, 127
11, 34496, Note_on_c, 9, 38, 0
11, 34560, Note_on_c, 9, 57, 108
11, 34752, Note_on_c, 9, 38, 108
11, 34760, Note_on_c, 9, 54, 84
11, 34848, Note_on_c, 9, 38, 0
11, 34856, Note_on_c, 9, 54, 0
11, 35136, Note_on_c, 9, 38, 108
11, 35144, Note_on_c, 9, 54, 84
11, 35232, Note_on_c, 9, 38, 0
11, 35240, Note_on_c, 9, 54, 0
11, 35328, Note_on_c, 9, 69, 108
11, 35424, Note_on_c, 9, 69, 0
11, 35520, Note_on_c, 9, 38, 108
11, 35528, Note_on_c, 9, 54, 84
11, 35607, Note_on_c, 9, 54, 0
11, 35616, Note_on_c, 9, 38, 0
11, 35713, Note_on_c, 9, 57, 0
11, 35904, Note_on_c, 9, 69, 108
11, 35912, Note_on_c, 9, 54, 84
11, 36000, Note_on_c, 9, 69, 0
11, 36008, Note_on_c, 9, 54, 0
11, 36192, Note_on_c, 9, 69, 108
11, 36288, Note_on_c, 9, 69, 0
11, 40368, Control_c, 9, 10, 1
11, 40665, Control_c, 9, 7, 58
11, 40704, Note_on_c, 9, 82, 62
11, 40709, Control_c, 9, 7, 58
11, 40740, Note_on_c, 9, 82, 0
11, 40754, Control_c, 9, 7, 59
11, 40755, Note_on_c, 9, 82, 84
11, 40791, Note_on_c, 9, 82, 0
11, 40798, Control_c, 9, 7, 60
11, 40800, Note_on_c, 9, 82, 98
11, 40836, Note_on_c, 9, 82, 0
11, 40842, Control_c, 9, 7, 61
11, 40851, Note_on_c, 9, 82, 82
11, 40887, Note_on_c, 9, 82, 0
11, 40887, Control_c, 9, 7, 62
11, 40896, Note_on_c, 9, 82, 62
11, 40931, Control_c, 9, 7, 63
11, 40932, Note_on_c, 9, 82, 0
11, 40947, Note_on_c, 9, 82, 84
11, 40975, Control_c, 9, 7, 64
11, 40983, Note_on_c, 9, 82, 0
11, 40992, Note_on_c, 9, 82, 98
11, 41020, Control_c, 9, 7, 65
11, 41028, Note_on_c, 9, 82, 0
11, 41043, Note_on_c, 9, 82, 82
11, 41064, Control_c, 9, 7, 66
11, 41079, Note_on_c, 9, 82, 0
11, 41088, Note_on_c, 9, 82, 62
11, 41108, Control_c, 9, 7, 67
11, 41124, Note_on_c, 9, 82, 0
11, 41139, Note_on_c, 9, 82, 84
11, 41153, Control_c, 9, 7, 68
11, 41175, Note_on_c, 9, 82, 0
11, 41184, Note_on_c, 9, 82, 98
11, 41197, Control_c, 9, 7, 69
11, 41220, Note_on_c, 9, 82, 0
11, 41235, Note_on_c, 9, 82, 82
11, 41241, Control_c, 9, 7, 70
11, 41271, Note_on_c, 9, 82, 0
11, 41280, Note_on_c, 9, 82, 62
11, 41286, Control_c, 9, 7, 71
11, 41316, Note_on_c, 9, 82, 0
11, 41330, Control_c, 9, 7, 72
11, 41331, Note_on_c, 9, 82, 84
11, 41367, Note_on_c, 9, 82, 0
11, 41374, Control_c, 9, 7, 73
11, 41376, Note_on_c, 9, 82, 98
11, 41412, Note_on_c, 9, 82, 0
11, 41419, Control_c, 9, 7, 74
11, 41427, Note_on_c, 9, 82, 82
11, 41463, Note_on_c, 9, 82, 0
11, 41463, Control_c, 9, 7, 75
11, 41472, Note_on_c, 9, 82, 62
11, 41508, Note_on_c, 9, 82, 0
11, 41508, Control_c, 9, 7, 76
11, 41523, Note_on_c, 9, 82, 84
11, 41552, Control_c, 9, 7, 77
11, 41559, Note_on_c, 9, 82, 0
11, 41568, Note_on_c, 9, 82, 98
11, 41596, Control_c, 9, 7, 78
11, 41604, Note_on_c, 9, 82, 0
11, 41619, Note_on_c, 9, 82, 82
11, 41640, Control_c, 9, 7, 79
11, 41655, Note_on_c, 9, 82, 0
11, 41664, Note_on_c, 9, 82, 62
11, 41685, Control_c, 9, 7, 80
11, 41700, Note_on_c, 9, 82, 0
11, 41715, Note_on_c, 9, 82, 84
11, 41729, Control_c, 9, 7, 81
11, 41751, Note_on_c, 9, 82, 0
11, 41760, Note_on_c, 9, 82, 98
11, 41774, Control_c, 9, 7, 82
11, 41796, Note_on_c, 9, 82, 0
11, 41811, Note_on_c, 9, 82, 82
11, 41818, Control_c, 9, 7, 83
11, 41847, Note_on_c, 9, 82, 0
11, 41856, Note_on_c, 9, 82, 62
11, 41862, Control_c, 9, 7, 84
11, 41892, Note_on_c, 9, 82, 0
11, 41906, Control_c, 9, 7, 85
11, 41907, Note_on_c, 9, 82, 84
11, 41943, Note_on_c, 9, 82, 0
11, 41951, Control_c, 9, 7, 86
11, 41952, Note_on_c, 9, 82, 98
11, 41988, Note_on_c, 9, 82, 0
11, 41995, Control_c, 9, 7, 87
11, 42003, Note_on_c, 9, 82, 82
11, 42039, Note_on_c, 9, 82, 0
11, 42040, Control_c, 9, 7, 88
11, 42048, Note_on_c, 9, 82, 62
11, 42084, Note_on_c, 9, 82, 0
11, 42084, Control_c, 9, 7, 89
11, 42099, Note_on_c, 9, 82, 84
11, 42128, Control_c, 9, 7, 90
11, 42135, Note_on_c, 9, 82, 0
11, 42144, Note_on_c, 9, 82, 98
11, 42172, Control_c, 9, 7, 91
11, 42180, Note_on_c, 9, 82, 0
11, 42195, Note_on_c, 9, 82, 82
11, 42217, Control_c, 9, 7, 92
11, 42231, Note_on_c, 9, 82, 0
11, 42240, Note_on_c, 9, 82, 62
11, 42261, Control_c, 9, 7, 93
11, 42276, Note_on_c, 9, 82, 0
11, 42291, Note_on_c, 9, 82, 84
11, 42306, Control_c, 9, 7, 94
11, 42327, Note_on_c, 9, 82, 0
11, 42336, Note_on_c, 9, 82, 98
11, 42350, Control_c, 9, 7, 95
11, 42372, Note_on_c, 9, 82, 0
11, 42387, Note_on_c, 9, 82, 82
11, 42394, Control_c, 9, 7, 96
11, 42423, Note_on_c, 9, 82, 0
11, 42432, Note_on_c, 9, 82, 62
11, 42438, Control_c, 9, 7, 97
11, 42468, Note_on_c, 9, 82, 0
11, 42483, Control_c, 9, 7, 98
11, 42483, Note_on_c, 9, 82, 84
11, 42519, Note_on_c, 9, 82, 0
11, 42527, Control_c, 9, 7, 99
11, 42528, Note_on_c, 9, 82, 98
11, 42564, Note_on_c, 9, 82, 0
11, 42572, Control_c, 9, 7, 100
11, 42579, Note_on_c, 9, 82, 82
11, 42615, Note_on_c, 9, 82, 0
11, 42616, Control_c, 9, 7, 101
11, 42624, Note_on_c, 9, 82, 62
11, 42660, Note_on_c, 9, 82, 0
11, 42660, Control_c, 9, 7, 102
11, 42675, Note_on_c, 9, 82, 84
11, 42704, Control_c, 9, 7, 103
11, 42711, Note_on_c, 9, 82, 0
11, 42720, Note_on_c, 9, 82, 98
11, 42749, Control_c, 9, 7, 104
11, 42756, Note_on_c, 9, 82, 0
11, 42771, Note_on_c, 9, 82, 82
11, 42793, Control_c, 9, 7, 105
11, 42807, Note_on_c, 9, 82, 0
11, 42816, Note_on_c, 9, 82, 62
11, 42838, Control_c, 9, 7, 106
11, 42852, Note_on_c, 9, 82, 0
11, 42867, Note_on_c, 9, 82, 84
11, 42882, Control_c, 9, 7, 107
11, 42903, Note_on_c, 9, 82, 0
11, 42912, Note_on_c, 9, 82, 98
11, 42926, Control_c, 9, 7, 108
11, 42948, Note_on_c, 9, 82, 0
11, 42963, Note_on_c, 9, 82, 82
11, 42970, Control_c, 9, 7, 109
11, 42999, Note_on_c, 9, 82, 0
11, 43008, Note_on_c, 9, 82, 62
11, 43015, Control_c, 9, 7, 110
11, 43044, Note_on_c, 9, 82, 0
11, 43059, Note_on_c, 9, 82, 84
11, 43059, Control_c, 9, 7, 111
11, 43095, Note_on_c, 9, 82, 0
11, 43104, Note_on_c, 9, 82, 98
11, 43104, Control_c, 9, 7, 112
11, 43140, Note_on_c, 9, 82, 0
11, 43148, Control_c, 9, 7, 113
11, 43155, Note_on_c, 9, 82, 82
11, 43191, Note_on_c, 9, 82, 0
11, 43192, Control_c, 9, 7, 114
11, 43200, Note_on_c, 9, 82, 62
11, 43236, Note_on_c, 9, 82, 0
11, 43236, Control_c, 9, 7, 115
11, 43251, Note_on_c, 9, 82, 84
11, 43281, Control_c, 9, 7, 116
11, 43287, Note_on_c, 9, 82, 0
11, 43296, Note_on_c, 9, 82, 98
11, 43325, Control_c, 9, 7, 117
11, 43332, Note_on_c, 9, 82, 0
11, 43347, Note_on_c, 9, 82, 82
11, 43370, Control_c, 9, 7, 118
11, 43383, Note_on_c, 9, 82, 0
11, 43392, Note_on_c, 9, 82, 62
11, 43414, Control_c, 9, 7, 119
11, 43428, Note_on_c, 9, 82, 0
11, 43443, Note_on_c, 9, 82, 84
11, 43458, Control_c, 9, 7, 120
11, 43479, Note_on_c, 9, 82, 0
11, 43488, Note_on_c, 9, 82, 98
11, 43502, Control_c, 9, 7, 121
11, 43524, Note_on_c, 9, 82, 0
11, 43539, Note_on_c, 9, 82, 82
11, 43547, Control_c, 9, 7, 122
11, 43575, Note_on_c, 9, 82, 0
11, 43584, Note_on_c, 9, 82, 62
11, 43591, Control_c, 9, 7, 123
11, 43620, Note_on_c, 9, 82, 0
11, 43635, Note_on_c, 9, 82, 84
11, 43636, Control_c, 9, 7, 124
11, 43671, Note_on_c, 9, 82, 0
11, 43680, Note_on_c, 9, 82, 98
11, 43680, Control_c, 9, 7, 125
11, 43716, Note_on_c, 9, 82, 0
11, 43724, Control_c, 9, 7, 127
11, 43731, Note_on_c, 9, 82, 82
11, 43767, Note_on_c, 9, 82, 0
11, 43776, Note_on_c, 9, 82, 62
11, 43812, Note_on_c, 9, 82, 0
11, 44511, Note_on_c, 9, 41, 77
11, 44544, Note_on_c, 9, 41, 108
11, 44545, Note_on_c, 9, 41, 0
11, 44577, Note_on_c, 9, 41, 0
11, 44605, Note_on_c, 9, 38, 77
11, 44640, Note_on_c, 9, 38, 108
11, 44641, Note_on_c, 9, 38, 0
11, 44675, Note_on_c, 9, 38, 0
11, 44799, Note_on_c, 9, 41, 77
11, 44832, Note_on_c, 9, 41, 108
11, 44833, Note_on_c, 9, 41, 0
11, 44865, Note_on_c, 9, 41, 0
11, 44893, Note_on_c, 9, 38, 77
11, 44928, Note_on_c, 9, 38, 108
11, 44929, Note_on_c, 9, 38, 0
11, 44963, Note_on_c, 9, 38, 0
11, 45087, Note_on_c, 9, 41, 77
11, 45120, Note_on_c, 9, 41, 108
11, 45121, Note_on_c, 9, 41, 0
11, 45153, Note_on_c, 9, 41, 0
11, 45181, Note_on_c, 9, 38, 77
11, 45216, Note_on_c, 9, 38, 108
11, 45217, Note_on_c, 9, 38, 0
11, 45251, Note_on_c, 9, 38, 0
11, 45280, Note_on_c, 9, 41, 77
11, 45312, Note_on_c, 9, 57, 108
11, 45313, Note_on_c, 9, 41, 108
11, 45315, Note_on_c, 9, 41, 0
11, 45346, Note_on_c, 9, 41, 0
11, 45398, Control_c, 9, 10, 24
11, 45504, Note_on_c, 9, 38, 108
11, 45512, Note_on_c, 9, 54, 84
11, 45600, Note_on_c, 9, 38, 0
11, 45608, Note_on_c, 9, 54, 0
11, 45888, Note_on_c, 9, 38, 108
11, 45896, Note_on_c, 9, 54, 84
11, 45984, Note_on_c, 9, 38, 0
11, 45992, Note_on_c, 9, 54, 0
11, 46272, Note_on_c, 9, 38, 108
11, 46280, Note_on_c, 9, 54, 84
11, 46351, Note_on_c, 9, 38, 0
11, 46360, Note_on_c, 9, 54, 0
11, 46368, Note_on_c, 9, 46, 114
11, 46427, Note_on_c, 9, 38, 114
11, 46456, Note_on_c, 9, 46, 0
11, 46464, Note_on_c, 9, 38, 0
11, 46464, Note_on_c, 9, 38, 127
11, 46465, Note_on_c, 9, 57, 0
11, 46501, Note_on_c, 9, 38, 0
11, 46523, Note_on_c, 9, 45, 127
11, 46560, Note_on_c, 9, 45, 0
11, 46560, Note_on_c, 9, 45, 127
11, 46597, Note_on_c, 9, 45, 0
11, 46619, Note_on_c, 9, 41, 74
11, 46652, Note_on_c, 9, 41, 0
11, 46656, Note_on_c, 9, 41, 127
11, 46664, Note_on_c, 9, 54, 84
11, 46688, Note_on_c, 9, 41, 0
11, 46718, Note_on_c, 9, 38, 98
11, 46723, Note_on_c, 9, 54, 0
11, 46750, Note_on_c, 9, 38, 0
11, 46752, Note_on_c, 9, 38, 127
11, 46784, Note_on_c, 9, 38, 0
11, 46848, Note_on_c, 9, 57, 108
11, 47040, Note_on_c, 9, 38, 108
11, 47048, Note_on_c, 9, 54, 84
11, 47136, Note_on_c, 9, 38, 0
11, 47144, Note_on_c, 9, 54, 0
11, 47424, Note_on_c, 9, 38, 108
11, 47432, Note_on_c, 9, 54, 84
11, 47520, Note_on_c, 9, 38, 0
11, 47528, Note_on_c, 9, 54, 0
11, 47808, Note_on_c, 9, 38, 108
11, 47816, Note_on_c, 9, 54, 84
11, 47887, Note_on_c, 9, 38, 0
11, 47896, Note_on_c, 9, 54, 0
11, 47904, Note_on_c, 9, 46, 114
11, 47963, Note_on_c, 9, 38, 114
11, 47992, Note_on_c, 9, 46, 0
11, 48000, Note_on_c, 9, 38, 0
11, 48000, Note_on_c, 9, 38, 127
11, 48001, Note_on_c, 9, 57, 0
11, 48037, Note_on_c, 9, 38, 0
11, 48059, Note_on_c, 9, 45, 127
11, 48096, Note_on_c, 9, 45, 0
11, 48096, Note_on_c, 9, 45, 127
11, 48133, Note_on_c, 9, 45, 0
11, 48155, Note_on_c, 9, 41, 74
11, 48188, Note_on_c, 9, 41, 0
11, 48192, Note_on_c, 9, 41, 127
11, 48200, Note_on_c, 9, 54, 84
11, 48224, Note_on_c, 9, 41, 0
11, 48254, Note_on_c, 9, 38, 98
11, 48259, Note_on_c, 9, 54, 0
11, 48286, Note_on_c, 9, 38, 0
11, 48288, Note_on_c, 9, 38, 127
11, 48320, Note_on_c, 9, 38, 0
11, 48384, Note_on_c, 9, 57, 108
11, 48576, Note_on_c, 9, 38, 108
11, 48584, Note_on_c, 9, 54, 84
11, 48672, Note_on_c, 9, 38, 0
11, 48680, Note_on_c, 9, 54, 0
11, 48960, Note_on_c, 9, 38, 108
11, 48968, Note_on_c, 9, 54, 84
11, 49056, Note_on_c, 9, 38, 0
11, 49064, Note_on_c, 9, 54, 0
11, 49152, Note_on_c, 9, 69, 108
11, 49248, Note_on_c, 9, 69, 0
11, 49344, Note_on_c, 9, 38, 108
11, 49352, Note_on_c, 9, 54, 84
11, 49432, Note_on_c, 9, 54, 0
11, 49440, Note_on_c, 9, 38, 0
11, 49537, Note_on_c, 9, 57, 0
11, 49728, Note_on_c, 9, 69, 108
11, 49736, Note_on_c, 9, 54, 84
11, 49824, Note_on_c, 9, 69, 0
11, 49832, Note_on_c, 9, 54, 0
11, 50016, Note_on_c, 9, 69, 108
11, 50112, Note_on_c, 9, 69, 0
11, 51072, Note_on_c, 9, 69, 108
11, 51168, Note_on_c, 9, 69, 0
11, 52512, Note_on_c, 9, 69, 108
11, 52608, Note_on_c, 9, 69, 0
11, 53730, Note_on_c, 9, 38, 108
11, 53756, Note_on_c, 9, 38, 0
11, 53760, Note_on_c, 9, 38, 108
11, 53800, Note_on_c, 9, 38, 0
11, 53826, Note_on_c, 9, 45, 108
11, 53852, Note_on_c, 9, 45, 0
11, 53856, Note_on_c, 9, 45, 108
11, 53896, Note_on_c, 9, 45, 0
11, 53919, Note_on_c, 9, 41, 77
11, 53952, Note_on_c, 9, 41, 108
11, 53953, Note_on_c, 9, 41, 0
11, 53985, Note_on_c, 9, 41, 0
11, 54048, Note_on_c, 9, 38, 108
11, 54074, Note_on_c, 9, 38, 0
11, 54144, Note_on_c, 9, 57, 108
11, 54230, Control_c, 9, 10, 24
11, 54336, Note_on_c, 9, 38, 108
11, 54343, Note_on_c, 9, 54, 84
11, 54432, Note_on_c, 9, 38, 0
11, 54439, Note_on_c, 9, 54, 0
11, 54488, Note_on_c, 9, 38, 64
11, 54527, Note_on_c, 9, 38, 0
11, 54583, Note_on_c, 9, 38, 49
11, 54621, Note_on_c, 9, 38, 0
11, 54720, Note_on_c, 9, 38, 108
11, 54727, Note_on_c, 9, 54, 84
11, 54816, Note_on_c, 9, 38, 0
11, 54823, Note_on_c, 9, 54, 0
11, 55104, Note_on_c, 9, 38, 108
11, 55111, Note_on_c, 9, 54, 84
11, 55183, Note_on_c, 9, 38, 0
11, 55190, Note_on_c, 9, 54, 0
11, 55200, Note_on_c, 9, 46, 114
11, 55259, Note_on_c, 9, 38, 114
11, 55288, Note_on_c, 9, 46, 0
11, 55296, Note_on_c, 9, 38, 0
11, 55296, Note_on_c, 9, 38, 127
11, 55297, Note_on_c, 9, 57, 0
11, 55333, Note_on_c, 9, 38, 0
11, 55355, Note_on_c, 9, 45, 127
11, 55392, Note_on_c, 9, 45, 0
11, 55392, Note_on_c, 9, 45, 127
11, 55429, Note_on_c, 9, 45, 0
11, 55451, Note_on_c, 9, 41, 74
11, 55484, Note_on_c, 9, 41, 0
11, 55488, Note_on_c, 9, 41, 127
11, 55495, Note_on_c, 9, 54, 84
11, 55520, Note_on_c, 9, 41, 0
11, 55550, Note_on_c, 9, 38, 98
11, 55554, Note_on_c, 9, 54, 0
11, 55582, Note_on_c, 9, 38, 0
11, 55584, Note_on_c, 9, 38, 127
11, 55616, Note_on_c, 9, 38, 0
11, 55680, Note_on_c, 9, 57, 108
11, 55872, Note_on_c, 9, 38, 108
11, 55879, Note_on_c, 9, 54, 84
11, 55968, Note_on_c, 9, 38, 0
11, 55975, Note_on_c, 9, 54, 0
11, 56024, Note_on_c, 9, 38, 64
11, 56063, Note_on_c, 9, 38, 0
11, 56119, Note_on_c, 9, 38, 49
11, 56157, Note_on_c, 9, 38, 0
11, 56256, Note_on_c, 9, 38, 108
11, 56263, Note_on_c, 9, 54, 84
11, 56352, Note_on_c, 9, 38, 0
11, 56359, Note_on_c, 9, 54, 0
11, 56640, Note_on_c, 9, 38, 108
11, 56647, Note_on_c, 9, 54, 84
11, 56719, Note_on_c, 9, 38, 0
11, 56726, Note_on_c, 9, 54, 0
11, 56736, Note_on_c, 9, 46, 114
11, 56795, Note_on_c, 9, 38, 114
11, 56824, Note_on_c, 9, 46, 0
11, 56832, Note_on_c, 9, 38, 0
11, 56832, Note_on_c, 9, 38, 127
11, 56833, Note_on_c, 9, 57, 0
11, 56869, Note_on_c, 9, 38, 0
11, 56891, Note_on_c, 9, 45, 127
11, 56928, Note_on_c, 9, 45, 0
11, 56928, Note_on_c, 9, 45, 127
11, 56965, Note_on_c, 9, 45, 0
11, 56987, Note_on_c, 9, 41, 74
11, 57020, Note_on_c, 9, 41, 0
11, 57024, Note_on_c, 9, 41, 127
11, 57031, Note_on_c, 9, 54, 84
11, 57056, Note_on_c, 9, 41, 0
11, 57086, Note_on_c, 9, 38, 98
11, 57090, Note_on_c, 9, 54, 0
11, 57118, Note_on_c, 9, 38, 0
11, 57120, Note_on_c, 9, 38, 127
11, 57152, Note_on_c, 9, 38, 0
11, 57216, Note_on_c, 9, 57, 108
11, 57408, Note_on_c, 9, 38, 108
11, 57415, Note_on_c, 9, 54, 84
11, 57504, Note_on_c, 9, 38, 0
11, 57511, Note_on_c, 9, 54, 0
11, 57560, Note_on_c, 9, 38, 64
11, 57599, Note_on_c, 9, 38, 0
11, 57655, Note_on_c, 9, 38, 49
11, 57693, Note_on_c, 9, 38, 0
11, 57792, Note_on_c, 9, 38, 108
11, 57799, Note_on_c, 9, 54, 84
11, 57888, Note_on_c, 9, 38, 0
11, 57895, Note_on_c, 9, 54, 0
11, 58176, Note_on_c, 9, 38, 108
11, 58183, Note_on_c, 9, 54, 84
11, 58255, Note_on_c, 9, 38, 0
11, 58262, Note_on_c, 9, 54, 0
11, 58272, Note_on_c, 9, 46, 114
11, 58331, Note_on_c, 9, 38, 114
11, 58360, Note_on_c, 9, 46, 0
11, 58368, Note_on_c, 9, 38, 0
11, 58368, Note_on_c, 9, 38, 127
11, 58369, Note_on_c, 9, 57, 0
11, 58405, Note_on_c, 9, 38, 0
11, 58427, Note_on_c, 9, 45, 127
11, 58464, Note_on_c, 9, 45, 0
11, 58464, Note_on_c, 9, 45, 127
11, 58501, Note_on_c, 9, 45, 0
11, 58523, Note_on_c, 9, 41, 74
11, 58556, Note_on_c, 9, 41, 0
11, 58560, Note_on_c, 9, 41, 127
11, 58567, Note_on_c, 9, 54, 84
11, 58592, Note_on_c, 9, 41, 0
11, 58622, Note_on_c, 9, 38, 98
11, 58626, Note_on_c, 9, 54, 0
11, 58654, Note_on_c, 9, 38, 0
11, 58656, Note_on_c, 9, 38, 127
11, 58688, Note_on_c, 9, 38, 0
11, 58752, Note_on_c, 9, 57, 108
11, 58944, Note_on_c, 9, 38, 108
11, 58951, Note_on_c, 9, 54, 84
11, 59040, Note_on_c, 9, 38, 0
11, 59047, Note_on_c, 9, 54, 0
11, 59096, Note_on_c, 9, 38, 64
11, 59135, Note_on_c, 9, 38, 0
11, 59191, Note_on_c, 9, 38, 49
11, 59229, Note_on_c, 9, 38, 0
11, 59328, Note_on_c, 9, 38, 108
11, 59335, Note_on_c, 9, 54, 84
11, 59424, Note_on_c, 9, 38, 0
11, 59431, Note_on_c, 9, 54, 0
11, 59712, Note_on_c, 9, 38, 108
11, 59719, Note_on_c, 9, 54, 84
11, 59791, Note_on_c, 9, 38, 0
11, 59798, Note_on_c, 9, 54, 0
11, 59808, Note_on_c, 9, 46, 114
11, 59867, Note_on_c, 9, 38, 114
11, 59896, Note_on_c, 9, 46, 0
11, 59904, Note_on_c, 9, 38, 0
11, 59904, Note_on_c, 9, 38, 127
11, 59905, Note_on_c, 9, 57, 0
11, 59941, Note_on_c, 9, 38, 0
11, 59963, Note_on_c, 9, 45, 127
11, 60000, Note_on_c, 9, 45, 0
11, 60000, Note_on_c, 9, 45, 127
11, 60037, Note_on_c, 9, 45, 0
11, 60059, Note_on_c, 9, 41, 74
11, 60092, Note_on_c, 9, 41, 0
11, 60096, Note_on_c, 9, 41, 127
11, 60103, Note_on_c, 9, 54, 84
11, 60128, Note_on_c, 9, 41, 0
11, 60158, Note_on_c, 9, 38, 98
11, 60162, Note_on_c, 9, 54, 0
11, 60190, Note_on_c, 9, 38, 0
11, 60192, Note_on_c, 9, 38, 127
11, 60224, Note_on_c, 9, 38, 0
11, 60288, Note_on_c, 9, 57, 108
11, 60480, Note_on_c, 9, 38, 108
11, 60487, Note_on_c, 9, 54, 84
11, 60576, Note_on_c, 9, 38, 0
11, 60583, Note_on_c, 9, 54, 0
11, 60632, Note_on_c, 9, 38, 64
11, 60671, Note_on_c, 9, 38, 0
11, 60727, Note_on_c, 9, 38, 49
11, 60765, Note_on_c, 9, 38, 0
11, 60864, Note_on_c, 9, 38, 108
11, 60871, Note_on_c, 9, 54, 84
11, 60960, Note_on_c, 9, 38, 0
11, 60967, Note_on_c, 9, 54, 0
11, 61248, Note_on_c, 9, 38, 108
11, 61255, Note_on_c, 9, 54, 84
11, 61327, Note_on_c, 9, 38, 0
11, 61334, Note_on_c, 9, 54, 0
11, 61344, Note_on_c, 9, 46, 114
11, 61403, Note_on_c, 9, 38, 114
11, 61432, Note_on_c, 9, 46, 0
11, 61440, Note_on_c, 9, 38, 0
11, 61440, Note_on_c, 9, 38, 127
11, 61441, Note_on_c, 9, 57, 0
11, 61477, Note_on_c, 9, 38, 0
11, 61499, Note_on_c, 9, 45, 127
11, 61536, Note_on_c, 9, 45, 0
11, 61536, Note_on_c, 9, 45, 127
11, 61573, Note_on_c, 9, 45, 0
11, 61595, Note_on_c, 9, 41, 74
11, 61628, Note_on_c, 9, 41, 0
11, 61632, Note_on_c, 9, 41, 127
11, 61639, Note_on_c, 9, 54, 84
11, 61664, Note_on_c, 9, 41, 0
11, 61694, Note_on_c, 9, 38, 98
11, 61698, Note_on_c, 9, 54, 0
11, 61726, Note_on_c, 9, 38, 0
11, 61728, Note_on_c, 9, 38, 127
11, 61760, Note_on_c, 9, 38, 0
11, 61824, Note_on_c, 9, 57, 108
11, 61906, Control_c, 9, 7, 127
11, 61922, Control_c, 9, 7, 125
11, 61938, Control_c, 9, 7, 124
11, 61954, Control_c, 9, 7, 123
11, 61970, Control_c, 9, 7, 121
11, 61986, Control_c, 9, 7, 120
11, 62001, Control_c, 9, 7, 119
11, 62016, Note_on_c, 9, 38, 108
11, 62017, Control_c, 9, 7, 117
11, 62023, Note_on_c, 9, 54, 84
11, 62033, Control_c, 9, 7, 116
11, 62049, Control_c, 9, 7, 115
11, 62065, Control_c, 9, 7, 113
11, 62080, Control_c, 9, 7, 112
11, 62096, Control_c, 9, 7, 111
11, 62112, Note_on_c, 9, 38, 0
11, 62112, Control_c, 9, 7, 110
11, 62119, Note_on_c, 9, 54, 0
11, 62128, Control_c, 9, 7, 108
11, 62144, Control_c, 9, 7, 107
11, 62160, Control_c, 9, 7, 106
11, 62168, Note_on_c, 9, 38, 64
11, 62176, Control_c, 9, 7, 104
11, 62191, Control_c, 9, 7, 103
11, 62207, Note_on_c, 9, 38, 0
11, 62207, Control_c, 9, 7, 102
11, 62223, Control_c, 9, 7, 100
11, 62239, Control_c, 9, 7, 99
11, 62255, Control_c, 9, 7, 98
11, 62263, Note_on_c, 9, 38, 49
11, 62270, Control_c, 9, 7, 97
11, 62286, Control_c, 9, 7, 95
11, 62301, Note_on_c, 9, 38, 0
11, 62302, Control_c, 9, 7, 94
11, 62318, Control_c, 9, 7, 93
11, 62334, Control_c, 9, 7, 91
11, 62350, Control_c, 9, 7, 90
11, 62366, Control_c, 9, 7, 89
11, 62381, Control_c, 9, 7, 87
11, 62397, Control_c, 9, 7, 86
11, 62400, Note_on_c, 9, 38, 108
11, 62407, Note_on_c, 9, 54, 84
11, 62413, Control_c, 9, 7, 85
11, 62429, Control_c, 9, 7, 83
11, 62445, Control_c, 9, 7, 82
11, 62460, Control_c, 9, 7, 81
11, 62476, Control_c, 9, 7, 80
11, 62492, Control_c, 9, 7, 78
11, 62496, Note_on_c, 9, 38, 0
11, 62503, Note_on_c, 9, 54, 0
11, 62508, Control_c, 9, 7, 77
11, 62524, Control_c, 9, 7, 76
11, 62540, Control_c, 9, 7, 74
11, 62556, Control_c, 9, 7, 73
11, 62572, Control_c, 9, 7, 72
11, 62587, Control_c, 9, 7, 70
11, 62603, Control_c, 9, 7, 69
11, 62619, Control_c, 9, 7, 68
11, 62635, Control_c, 9, 7, 66
11, 62651, Control_c, 9, 7, 65
11, 62666, Control_c, 9, 7, 64
11, 62682, Control_c, 9, 7, 63
11, 62698, Control_c, 9, 7, 61
11, 62714, Control_c, 9, 7, 60
11, 62730, Control_c, 9, 7, 59
11, 62746, Control_c, 9, 7, 57
11, 62762, Control_c, 9, 7, 56
11, 62777, Control_c, 9, 7, 55
11, 62784, Note_on_c, 9, 38, 108
11, 62791, Note_on_c, 9, 54, 84
11, 62793, Control_c, 9, 7, 53
11, 62809, Control_c, 9, 7, 52
11, 62825, Control_c, 9, 7, 51
11, 62841, Control_c, 9, 7, 50
11, 62856, Control_c, 9, 7, 48
11, 62863, Note_on_c, 9, 38, 0
11, 62870, Note_on_c, 9, 54, 0
11, 62872, Control_c, 9, 7, 47
11, 62880, Note_on_c, 9, 46, 114
11, 62888, Control_c, 9, 7, 46
11, 62904, Control_c, 9, 7, 44
11, 62920, Control_c, 9, 7, 43
11, 62936, Control_c, 9, 7, 42
11, 62939, Note_on_c, 9, 38, 114
11, 62952, Control_c, 9, 7, 40
11, 62968, Note_on_c, 9, 46, 0
11, 62968, Control_c, 9, 7, 39
11, 62976, Note_on_c, 9, 38, 0
11, 62976, Note_on_c, 9, 38, 127
11, 62977, Note_on_c, 9, 57, 0
11, 62983, Control_c, 9, 7, 38
11, 62999, Control_c, 9, 7, 36
11, 63013, Note_on_c, 9, 38, 0
11, 63015, Control_c, 9, 7, 35
11, 63031, Control_c, 9, 7, 34
11, 63035, Note_on_c, 9, 45, 127
11, 63047, Control_c, 9, 7, 33
11, 63062, Control_c, 9, 7, 31
11, 63072, Note_on_c, 9, 45, 0
11, 63072, Note_on_c, 9, 45, 127
11, 63078, Control_c, 9, 7, 30
11, 63094, Control_c, 9, 7, 29
11, 63109, Note_on_c, 9, 45, 0
11, 63110, Control_c, 9, 7, 27
11, 63126, Control_c, 9, 7, 26
11, 63131, Note_on_c, 9, 41, 74
11, 63142, Control_c, 9, 7, 25
11, 63158, Control_c, 9, 7, 23
11, 63164, Note_on_c, 9, 41, 0
11, 63168, Note_on_c, 9, 41, 127
11, 63173, Control_c, 9, 7, 22
11, 63175, Note_on_c, 9, 54, 84
11, 63189, Control_c, 9, 7, 21
11, 63200, Note_on_c, 9, 41, 0
11, 63205, Control_c, 9, 7, 19
11, 63221, Control_c, 9, 7, 18
11, 63230, Note_on_c, 9, 38, 98
11, 63234, Note_on_c, 9, 54, 0
11, 63237, Control_c, 9, 7, 17
11, 63252, Control_c, 9, 7, 16
11, 63262, Note_on_c, 9, 38, 0
11, 63264, Note_on_c, 9, 38, 127
11, 63268, Control_c, 9, 7, 14
11, 63284, Control_c, 9, 7, 13
11, 63296, Note_on_c, 9, 38, 0
11, 63300, Control_c, 9, 7, 12
11, 63316, Control_c, 9, 7, 10
11, 63332, Control_c, 9, 7, 9
11, 63348, Control_c, 9, 7, 8
11, 63364, Control_c, 9, 7, 6
11, 63379, Control_c, 9, 7, 5
11, 63395, Control_c, 9, 7, 4
11, 63411, Control_c, 9, 7, 3
11, 63427, Control_c, 9, 7, 1
11, 63442, Control_c, 9, 7, 0
11, 63442, End_track
12, 0, Start_track
12, 0, MIDI_port, 0
12, 0, Title_t, "Organ"
12, 0, Program_c, 10, 16
12, 0, Control_c, 10, 7, 60
12, 0, Control_c, 10, 10, 4
12, 0, Control_c, 10, 91, 2
12, 19, Control_c, 10, 93, 2
12, 4608, Note_on_c, 10, 72, 100
12, 4618, Note_on_c, 10, 72, 0
12, 4656, Note_on_c, 10, 72, 100
12, 4715, Note_on_c, 10, 72, 0
12, 4752, Note_on_c, 10, 72, 100
12, 4762, Note_on_c, 10, 72, 0
12, 4800, Note_on_c, 10, 72, 100
12, 4859, Note_on_c, 10, 72, 0
12, 4896, Note_on_c, 10, 72, 100
12, 4906, Note_on_c, 10, 72, 0
12, 4944, Note_on_c, 10, 72, 100
12, 5003, Note_on_c, 10, 72, 0
12, 5040, Note_on_c, 10, 72, 100
12, 5050, Note_on_c, 10, 72, 0
12, 5088, Note_on_c, 10, 72, 100
12, 5147, Note_on_c, 10, 72, 0
12, 5184, Note_on_c, 10, 72, 100
12, 5194, Note_on_c, 10, 72, 0
12, 5232, Note_on_c, 10, 72, 100
12, 5291, Note_on_c, 10, 72, 0
12, 5328, Note_on_c, 10, 72, 100
12, 5338, Note_on_c, 10, 72, 0
12, 5376, Note_on_c, 10, 72, 100
12, 5435, Note_on_c, 10, 72, 0
12, 5472, Note_on_c, 10, 72, 100
12, 5482, Note_on_c, 10, 72, 0
12, 5520, Note_on_c, 10, 72, 100
12, 5579, Note_on_c, 10, 72, 0
12, 5616, Note_on_c, 10, 72, 100
12, 5626, Note_on_c, 10, 72, 0
12, 5664, Note_on_c, 10, 72, 100
12, 5723, Note_on_c, 10, 72, 0
12, 5760, Note_on_c, 10, 72, 100
12, 5770, Note_on_c, 10, 72, 0
12, 5808, Note_on_c, 10, 72, 100
12, 5867, Note_on_c, 10, 72, 0
12, 5904, Note_on_c, 10, 72, 100
12, 5914, Note_on_c, 10, 72, 0
12, 5952, Note_on_c, 10, 72, 100
12, 6011, Note_on_c, 10, 72, 0
12, 6048, Note_on_c, 10, 72, 100
12, 6058, Note_on_c, 10, 72, 0
12, 6096, Note_on_c, 10, 72, 100
12, 6155, Note_on_c, 10, 72, 0
12, 6192, Note_on_c, 10, 71, 100
12, 6202, Note_on_c, 10, 71, 0
12, 6240, Note_on_c, 10, 71, 100
12, 6299, Note_on_c, 10, 71, 0
12, 6336, Note_on_c, 10, 71, 100
12, 6346, Note_on_c, 10, 71, 0
12, 6384, Note_on_c, 10, 71, 100
12, 6443, Note_on_c, 10, 71, 0
12, 6480, Note_on_c, 10, 71, 100
12, 6490, Note_on_c, 10, 71, 0
12, 6528, Note_on_c, 10, 71, 100
12, 6587, Note_on_c, 10, 71, 0
12, 6624, Note_on_c, 10, 71, 100
12, 6634, Note_on_c, 10, 71, 0
12, 6672, Note_on_c, 10, 71, 100
12, 6731, Note_on_c, 10, 71, 0
12, 6768, Note_on_c, 10, 71, 100
12, 6778, Note_on_c, 10, 71, 0
12, 6816, Note_on_c, 10, 71, 100
12, 6875, Note_on_c, 10, 71, 0
12, 6912, Note_on_c, 10, 71, 100
12, 6922, Note_on_c, 10, 71, 0
12, 6960, Note_on_c, 10, 71, 100
12, 7019, Note_on_c, 10, 71, 0
12, 7056, Note_on_c, 10, 71, 100
12, 7066, Note_on_c, 10, 71, 0
12, 7104, Note_on_c, 10, 71, 100
12, 7163, Note_on_c, 10, 71, 0
12, 7200, Note_on_c, 10, 71, 100
12, 7210, Note_on_c, 10, 71, 0
12, 7248, Note_on_c, 10, 71, 100
12, 7307, Note_on_c, 10, 71, 0
12, 7344, Note_on_c, 10, 71, 100
12, 7354, Note_on_c, 10, 71, 0
12, 7392, Note_on_c, 10, 71, 100
12, 7451, Note_on_c, 10, 71, 0
12, 7488, Note_on_c, 10, 71, 100
12, 7498, Note_on_c, 10, 71, 0
12, 7536, Note_on_c, 10, 71, 100
12, 7595, Note_on_c, 10, 71, 0
12, 7632, Note_on_c, 10, 71, 100
12, 7642, Note_on_c, 10, 71, 0
12, 7680, Note_on_c, 10, 70, 100
12, 7739, Note_on_c, 10, 70, 0
12, 7776, Note_on_c, 10, 70, 100
12, 7786, Note_on_c, 10, 70, 0
12, 7824, Note_on_c, 10, 70, 100
12, 7883, Note_on_c, 10, 70, 0
12, 7920, Note_on_c, 10, 70, 100
12, 7930, Note_on_c, 10, 70, 0
12, 7968, Note_on_c, 10, 70, 100
12, 8027, Note_on_c, 10, 70, 0
12, 8064, Note_on_c, 10, 71, 100
12, 8074, Note_on_c, 10, 71, 0
12, 8112, Note_on_c, 10, 71, 100
12, 8171, Note_on_c, 10, 71, 0
12, 8208, Note_on_c, 10, 71, 100
12, 8218, Note_on_c, 10, 71, 0
12, 8256, Note_on_c, 10, 71, 100
12, 8315, Note_on_c, 10, 71, 0
12, 8352, Note_on_c, 10, 71, 100
12, 8362, Note_on_c, 10, 71, 0
12, 8400, Note_on_c, 10, 71, 100
12, 8459, Note_on_c, 10, 71, 0
12, 8496, Note_on_c, 10, 71, 100
12, 8506, Note_on_c, 10, 71, 0
12, 8544, Note_on_c, 10, 71, 100
12, 8603, Note_on_c, 10, 71, 0
12, 8640, Note_on_c, 10, 71, 100
12, 8650, Note_on_c, 10, 71, 0
12, 8688, Note_on_c, 10, 71, 100
12, 8747, Note_on_c, 10, 71, 0
12, 8784, Note_on_c, 10, 71, 100
12, 8794, Note_on_c, 10, 71, 0
12, 8832, Note_on_c, 10, 70, 100
12, 8966, Note_on_c, 10, 70, 0
12, 9120, Note_on_c, 10, 70, 100
12, 9254, Note_on_c, 10, 70, 0
12, 9408, Note_on_c, 10, 58, 100
12, 9974, Note_on_c, 10, 58, 0
12, 9974, End_track
13, 0, Start_track
13, 0, MIDI_port, 0
13, 0, Title_t, "Strings"
13, 0, Program_c, 11, 48
13, 0, Control_c, 11, 7, 55
13, 0, Control_c, 11, 10, 124
13, 9, Control_c, 11, 101, 0
13, 9, Control_c, 11, 93, 2
13, 9, Control_c, 11, 91, 2
13, 48, Control_c, 11, 100, 0
13, 153, Control_c, 11, 6, 5
13, 17227, Control_c, 11, 7, 36
13, 17279, Control_c, 11, 7, 36
13, 17280, Note_on_c, 11, 70, 100
13, 17280, Control_c, 11, 7, 84
13, 17280, Note_on_c, 11, 58, 100
13, 17280, Note_on_c, 11, 62, 64
13, 17294, Control_c, 11, 7, 84
13, 17478, Control_c, 11, 7, 80
13, 17561, Pitch_bend_c, 11, 8190
13, 17564, Pitch_bend_c, 11, 8183
13, 17566, Pitch_bend_c, 11, 8174
13, 17569, Pitch_bend_c, 11, 8161
13, 17572, Pitch_bend_c, 11, 8145
13, 17575, Pitch_bend_c, 11, 8125
13, 17578, Pitch_bend_c, 11, 8102
13, 17580, Pitch_bend_c, 11, 8075
13, 17583, Pitch_bend_c, 11, 8044
13, 17586, Pitch_bend_c, 11, 8011
13, 17589, Pitch_bend_c, 11, 7974
13, 17592, Pitch_bend_c, 11, 7933
13, 17594, Pitch_bend_c, 11, 7889
13, 17597, Pitch_bend_c, 11, 7841
13, 17600, Pitch_bend_c, 11, 7790
13, 17603, Pitch_bend_c, 11, 7736
13, 17606, Pitch_bend_c, 11, 7678
13, 17608, Pitch_bend_c, 11, 7617
13, 17611, Pitch_bend_c, 11, 7552
13, 17614, Pitch_bend_c, 11, 7483
13, 17617, Pitch_bend_c, 11, 7412
13, 17620, Pitch_bend_c, 11, 7336
13, 17622, Pitch_bend_c, 11, 7258
13, 17625, Pitch_bend_c, 11, 7175
13, 17628, Pitch_bend_c, 11, 7090
13, 17631, Pitch_bend_c, 11, 6987
13, 17634, Pitch_bend_c, 11, 6895
13, 17637, Pitch_bend_c, 11, 6798
13, 17640, Pitch_bend_c, 11, 6698
13, 17642, Pitch_bend_c, 11, 6594
13, 17645, Pitch_bend_c, 11, 6488
13, 17648, Pitch_bend_c, 11, 6377
13, 17651, Pitch_bend_c, 11, 6263
13, 17654, Pitch_bend_c, 11, 6146
13, 17656, Pitch_bend_c, 11, 6025
13, 17659, Pitch_bend_c, 11, 5900
13, 17662, Note_on_c, 11, 62, 0
13, 17662, Pitch_bend_c, 11, 5773
13, 17665, Pitch_bend_c, 11, 5641
13, 17668, Pitch_bend_c, 11, 5507
13, 17668, Control_c, 11, 7, 76
13, 17670, Pitch_bend_c, 11, 5369
13, 17673, Pitch_bend_c, 11, 5227
13, 17676, Control_c, 11, 7, 74
13, 17676, Pitch_bend_c, 11, 5082
13, 17679, Pitch_bend_c, 11, 4934
13, 17682, Pitch_bend_c, 11, 4781
13, 17684, Pitch_bend_c, 11, 4626
13, 17687, Pitch_bend_c, 11, 4467
13, 17690, Pitch_bend_c, 11, 4304
13, 17693, Pitch_bend_c, 11, 4138
13, 17696, Pitch_bend_c, 11, 3970
13, 17698, Pitch_bend_c, 11, 3796
13, 17702, Pitch_bend_c, 11, 3595
13, 17704, Pitch_bend_c, 11, 3414
13, 17707, Pitch_bend_c, 11, 3231
13, 17710, Pitch_bend_c, 11, 3043
13, 17713, Pitch_bend_c, 11, 2853
13, 17716, Pitch_bend_c, 11, 2658
13, 17718, Pitch_bend_c, 11, 2461
13, 17721, Pitch_bend_c, 11, 2260
13, 17724, Pitch_bend_c, 11, 2056
13, 17727, Pitch_bend_c, 11, 1847
13, 17730, Pitch_bend_c, 11, 1636
13, 17732, Pitch_bend_c, 11, 1421
13, 17735, Pitch_bend_c, 11, 1203
13, 17738, Pitch_bend_c, 11, 981
13, 17741, Pitch_bend_c, 11, 756
13, 17744, Pitch_bend_c, 11, 527
13, 17746, Pitch_bend_c, 11, 294
13, 17748, Pitch_bend_c, 11, 256
13, 17778, Control_c, 11, 7, 73
13, 17880, Control_c, 11, 7, 72
13, 17982, Control_c, 11, 7, 71
13, 18084, Control_c, 11, 7, 70
13, 18186, Control_c, 11, 7, 69
13, 18288, Control_c, 11, 7, 68
13, 18390, Control_c, 11, 7, 67
13, 18396, Control_c, 11, 7, 68
13, 19541, Note_on_c, 11, 58, 0
13, 19541, Note_on_c, 11, 70, 0
13, 19778, Control_c, 11, 7, 68
13, 19785, Control_c, 11, 7, 80
13, 19828, Pitch_bend_c, 11, 256
13, 19836, Pitch_bend_c, 11, 8192
13, 20870, Pitch_bend_c, 11, 8192
13, 21888, Note_on_c, 11, 63, 64
13, 21888, Note_on_c, 11, 58, 64
13, 21888, Note_on_c, 11, 55, 64
13, 22464, Note_on_c, 11, 62, 100
13, 22464, Note_on_c, 11, 53, 100
13, 22466, Note_on_c, 11, 55, 0
13, 22466, Note_on_c, 11, 63, 0
13, 22556, Control_c, 11, 7, 80
13, 22576, Control_c, 11, 7, 79
13, 22595, Control_c, 11, 7, 78
13, 22614, Control_c, 11, 7, 77
13, 22633, Control_c, 11, 7, 76
13, 22652, Control_c, 11, 7, 75
13, 22672, Control_c, 11, 7, 74
13, 22691, Control_c, 11, 7, 73
13, 22710, Control_c, 11, 7, 72
13, 22730, Control_c, 11, 7, 71
13, 22749, Control_c, 11, 7, 70
13, 22768, Control_c, 11, 7, 69
13, 22787, Control_c, 11, 7, 68
13, 22806, Control_c, 11, 7, 67
13, 22826, Control_c, 11, 7, 66
13, 22845, Control_c, 11, 7, 65
13, 22864, Control_c, 11, 7, 64
13, 22884, Control_c, 11, 7, 63
13, 22903, Control_c, 11, 7, 62
13, 22922, Control_c, 11, 7, 61
13, 22941, Control_c, 11, 7, 60
13, 22960, Control_c, 11, 7, 59
13, 22980, Control_c, 11, 7, 58
13, 22999, Control_c, 11, 7, 57
13, 23018, Control_c, 11, 7, 56
13, 23038, Control_c, 11, 7, 55
13, 23057, Control_c, 11, 7, 54
13, 23076, Control_c, 11, 7, 53
13, 23095, Control_c, 11, 7, 52
13, 23114, Control_c, 11, 7, 51
13, 23134, Control_c, 11, 7, 50
13, 23153, Control_c, 11, 7, 49
13, 23172, Control_c, 11, 7, 48
13, 23192, Control_c, 11, 7, 47
13, 23211, Control_c, 11, 7, 46
13, 23230, Control_c, 11, 7, 45
13, 23249, Control_c, 11, 7, 44
13, 23268, Control_c, 11, 7, 43
13, 23288, Control_c, 11, 7, 42
13, 23307, Control_c, 11, 7, 41
13, 23326, Control_c, 11, 7, 40
13, 23346, Control_c, 11, 7, 39
13, 23365, Control_c, 11, 7, 38
13, 23384, Control_c, 11, 7, 37
13, 23403, Control_c, 11, 7, 36
13, 23422, Control_c, 11, 7, 35
13, 23442, Control_c, 11, 7, 34
13, 23461, Control_c, 11, 7, 33
13, 23480, Control_c, 11, 7, 32
13, 23500, Control_c, 11, 7, 31
13, 23519, Control_c, 11, 7, 30
13, 23538, Control_c, 11, 7, 29
13, 23557, Control_c, 11, 7, 28
13, 23576, Control_c, 11, 7, 27
13, 23596, Control_c, 11, 7, 26
13, 23615, Control_c, 11, 7, 25
13, 23634, Control_c, 11, 7, 24
13, 23654, Control_c, 11, 7, 23
13, 23673, Control_c, 11, 7, 22
13, 23692, Control_c, 11, 7, 21
13, 23711, Control_c, 11, 7, 20
13, 23730, Control_c, 11, 7, 19
13, 23750, Control_c, 11, 7, 18
13, 23769, Control_c, 11, 7, 17
13, 23788, Control_c, 11, 7, 16
13, 23804, Note_on_c, 11, 58, 0
13, 23805, Note_on_c, 11, 53, 0
13, 23805, Note_on_c, 11, 62, 0
13, 23990, Control_c, 11, 7, 80
13, 26496, Note_on_c, 11, 55, 100
13, 26650, Note_on_c, 11, 55, 0
13, 26688, Note_on_c, 11, 53, 100
13, 26842, Note_on_c, 11, 53, 0
13, 26880, Note_on_c, 11, 51, 100
13, 27239, Note_on_c, 11, 51, 0
13, 27264, Note_on_c, 11, 53, 100
13, 27623, Note_on_c, 11, 53, 0
13, 27648, Note_on_c, 11, 58, 100
13, 28023, Note_on_c, 11, 58, 0
13, 28036, Note_on_c, 11, 55, 100
13, 28190, Note_on_c, 11, 55, 0
13, 28228, Note_on_c, 11, 53, 100
13, 28382, Note_on_c, 11, 53, 0
13, 28416, Note_on_c, 11, 51, 100
13, 28460, Note_on_c, 11, 51, 0
13, 28512, Note_on_c, 11, 51, 100
13, 28556, Note_on_c, 11, 51, 0
13, 28608, Note_on_c, 11, 51, 100
13, 28652, Note_on_c, 11, 51, 0
13, 28704, Note_on_c, 11, 51, 100
13, 28748, Note_on_c, 11, 51, 0
13, 28800, Note_on_c, 11, 53, 100
13, 28844, Note_on_c, 11, 53, 0
13, 28896, Note_on_c, 11, 53, 100
13, 28940, Note_on_c, 11, 53, 0
13, 28992, Note_on_c, 11, 53, 100
13, 29036, Note_on_c, 11, 53, 0
13, 29088, Note_on_c, 11, 53, 100
13, 29132, Note_on_c, 11, 53, 0
13, 29184, Note_on_c, 11, 51, 100
13, 29228, Note_on_c, 11, 51, 0
13, 29280, Note_on_c, 11, 55, 100
13, 29324, Note_on_c, 11, 55, 0
13, 29376, Note_on_c, 11, 58, 100
13, 29420, Note_on_c, 11, 58, 0
13, 29472, Note_on_c, 11, 55, 100
13, 29516, Note_on_c, 11, 55, 0
13, 29568, Note_on_c, 11, 46, 100
13, 29612, Note_on_c, 11, 46, 0
13, 29664, Note_on_c, 11, 50, 100
13, 29708, Note_on_c, 11, 50, 0
13, 29760, Note_on_c, 11, 53, 100
13, 29804, Note_on_c, 11, 53, 0
13, 29856, Note_on_c, 11, 50, 100
13, 29900, Note_on_c, 11, 50, 0
13, 29952, Note_on_c, 11, 46, 100
13, 31094, Note_on_c, 11, 46, 0
13, 31104, Note_on_c, 11, 70, 100
13, 31104, Note_on_c, 11, 58, 100
13, 31104, Note_on_c, 11, 62, 64
13, 31108, Control_c, 11, 7, 53
13, 31118, Control_c, 11, 7, 54
13, 31129, Control_c, 11, 7, 55
13, 31140, Control_c, 11, 7, 56
13, 31150, Control_c, 11, 7, 57
13, 31161, Control_c, 11, 7, 58
13, 31172, Control_c, 11, 7, 59
13, 31182, Control_c, 11, 7, 60
13, 31193, Control_c, 11, 7, 61
13, 31204, Control_c, 11, 7, 62
13, 31214, Control_c, 11, 7, 63
13, 31225, Control_c, 11, 7, 64
13, 31236, Control_c, 11, 7, 65
13, 31246, Control_c, 11, 7, 66
13, 31257, Control_c, 11, 7, 68
13, 31257, Control_c, 11, 7, 68
13, 31271, Control_c, 11, 7, 69
13, 31283, Control_c, 11, 7, 70
13, 31296, Control_c, 11, 7, 74
13, 31398, Control_c, 11, 7, 73
13, 31414, Pitch_bend_c, 11, 8190
13, 31416, Pitch_bend_c, 11, 8183
13, 31419, Pitch_bend_c, 11, 8174
13, 31422, Pitch_bend_c, 11, 8161
13, 31425, Pitch_bend_c, 11, 8145
13, 31428, Pitch_bend_c, 11, 8125
13, 31430, Pitch_bend_c, 11, 8102
13, 31433, Pitch_bend_c, 11, 8075
13, 31436, Pitch_bend_c, 11, 8044
13, 31439, Pitch_bend_c, 11, 8011
13, 31442, Pitch_bend_c, 11, 7974
13, 31444, Pitch_bend_c, 11, 7933
13, 31447, Pitch_bend_c, 11, 7889
13, 31450, Pitch_bend_c, 11, 7841
13, 31453, Pitch_bend_c, 11, 7790
13, 31456, Pitch_bend_c, 11, 7736
13, 31458, Pitch_bend_c, 11, 7678
13, 31461, Pitch_bend_c, 11, 7617
13, 31464, Pitch_bend_c, 11, 7552
13, 31467, Pitch_bend_c, 11, 7483
13, 31470, Pitch_bend_c, 11, 7412
13, 31472, Pitch_bend_c, 11, 7336
13, 31475, Pitch_bend_c, 11, 7258
13, 31478, Pitch_bend_c, 11, 7175
13, 31481, Pitch_bend_c, 11, 7090
13, 31484, Pitch_bend_c, 11, 6987
13, 31487, Pitch_bend_c, 11, 6895
13, 31490, Pitch_bend_c, 11, 6798
13, 31492, Pitch_bend_c, 11, 6698
13, 31495, Pitch_bend_c, 11, 6594
13, 31498, Pitch_bend_c, 11, 6488
13, 31500, Control_c, 11, 7, 72
13, 31501, Pitch_bend_c, 11, 6377
13, 31504, Pitch_bend_c, 11, 6263
13, 31506, Pitch_bend_c, 11, 6146
13, 31509, Pitch_bend_c, 11, 6025
13, 31512, Pitch_bend_c, 11, 5900
13, 31515, Pitch_bend_c, 11, 5773
13, 31518, Pitch_bend_c, 11, 5641
13, 31520, Pitch_bend_c, 11, 5507
13, 31523, Pitch_bend_c, 11, 5369
13, 31526, Pitch_bend_c, 11, 5227
13, 31529, Pitch_bend_c, 11, 5082
13, 31532, Pitch_bend_c, 11, 4934
13, 31534, Pitch_bend_c, 11, 4781
13, 31537, Pitch_bend_c, 11, 4626
13, 31540, Pitch_bend_c, 11, 4467
13, 31543, Pitch_bend_c, 11, 4304
13, 31546, Pitch_bend_c, 11, 4138
13, 31548, Pitch_bend_c, 11, 3970
13, 31551, Pitch_bend_c, 11, 3796
13, 31554, Pitch_bend_c, 11, 3595
13, 31557, Pitch_bend_c, 11, 3414
13, 31558, Note_on_c, 11, 62, 0
13, 31560, Pitch_bend_c, 11, 3231
13, 31563, Pitch_bend_c, 11, 3043
13, 31566, Pitch_bend_c, 11, 2853
13, 31568, Pitch_bend_c, 11, 2658
13, 31571, Pitch_bend_c, 11, 2461
13, 31574, Pitch_bend_c, 11, 2260
13, 31577, Pitch_bend_c, 11, 2056
13, 31580, Pitch_bend_c, 11, 1847
13, 31582, Pitch_bend_c, 11, 1636
13, 31585, Pitch_bend_c, 11, 1421
13, 31588, Pitch_bend_c, 11, 1203
13, 31591, Pitch_bend_c, 11, 981
13, 31594, Pitch_bend_c, 11, 756
13, 31596, Pitch_bend_c, 11, 527
13, 31599, Pitch_bend_c, 11, 294
13, 31602, Control_c, 11, 7, 71
13, 31602, Pitch_bend_c, 11, 59
13, 31603, Pitch_bend_c, 11, 0
13, 31704, Control_c, 11, 7, 70
13, 31806, Control_c, 11, 7, 69
13, 31908, Control_c, 11, 7, 68
13, 32010, Control_c, 11, 7, 67
13, 32112, Control_c, 11, 7, 66
13, 32214, Control_c, 11, 7, 65
13, 32316, Control_c, 11, 7, 64
13, 32418, Control_c, 11, 7, 63
13, 32520, Control_c, 11, 7, 62
13, 32622, Control_c, 11, 7, 61
13, 32724, Control_c, 11, 7, 60
13, 32826, Control_c, 11, 7, 59
13, 32927, Control_c, 11, 7, 58
13, 32928, Control_c, 11, 7, 58
13, 32939, Control_c, 11, 7, 57
13, 32950, Control_c, 11, 7, 56
13, 32962, Control_c, 11, 7, 55
13, 32973, Control_c, 11, 7, 54
13, 32984, Control_c, 11, 7, 53
13, 32996, Control_c, 11, 7, 52
13, 33007, Control_c, 11, 7, 51
13, 33018, Control_c, 11, 7, 50
13, 33030, Control_c, 11, 7, 49
13, 33041, Control_c, 11, 7, 48
13, 33052, Control_c, 11, 7, 47
13, 33064, Control_c, 11, 7, 46
13, 33075, Control_c, 11, 7, 45
13, 33086, Control_c, 11, 7, 44
13, 33098, Control_c, 11, 7, 43
13, 33109, Control_c, 11, 7, 42
13, 33120, Control_c, 11, 7, 41
13, 33132, Control_c, 11, 7, 40
13, 33143, Control_c, 11, 7, 39
13, 33154, Control_c, 11, 7, 38
13, 33166, Control_c, 11, 7, 37
13, 33177, Control_c, 11, 7, 36
13, 33188, Control_c, 11, 7, 35
13, 33200, Control_c, 11, 7, 34
13, 33211, Control_c, 11, 7, 33
13, 33222, Control_c, 11, 7, 32
13, 33234, Control_c, 11, 7, 31
13, 33245, Control_c, 11, 7, 30
13, 33256, Control_c, 11, 7, 29
13, 33268, Control_c, 11, 7, 28
13, 33279, Control_c, 11, 7, 27
13, 33290, Control_c, 11, 7, 26
13, 33302, Control_c, 11, 7, 25
13, 33313, Control_c, 11, 7, 24
13, 33324, Control_c, 11, 7, 23
13, 33336, Control_c, 11, 7, 22
13, 33347, Control_c, 11, 7, 21
13, 33358, Control_c, 11, 7, 20
13, 33365, Note_on_c, 11, 58, 0
13, 33365, Note_on_c, 11, 70, 0
13, 33370, Control_c, 11, 7, 19
13, 33381, Control_c, 11, 7, 18
13, 33392, Control_c, 11, 7, 17
13, 33404, Control_c, 11, 7, 16
13, 33415, Control_c, 11, 7, 15
13, 33426, Control_c, 11, 7, 14
13, 33430, Control_c, 11, 7, 15
13, 33446, Control_c, 11, 7, 14
13, 33609, Control_c, 11, 7, 78
13, 33724, Pitch_bend_c, 11, 8192
13, 40320, Note_on_c, 11, 55, 100
13, 40493, Note_on_c, 11, 55, 0
13, 40512, Note_on_c, 11, 53, 100
13, 40685, Note_on_c, 11, 53, 0
13, 40704, Note_on_c, 11, 51, 100
13, 40794, Note_on_c, 11, 51, 0
13, 40844, Note_on_c, 11, 53, 100
13, 40934, Note_on_c, 11, 53, 0
13, 40972, Note_on_c, 11, 55, 100
13, 41043, Note_on_c, 11, 55, 0
13, 41088, Note_on_c, 11, 53, 100
13, 41184, Note_on_c, 11, 53, 0
13, 41228, Note_on_c, 11, 55, 100
13, 41324, Note_on_c, 11, 55, 0
13, 41356, Note_on_c, 11, 57, 100
13, 41427, Note_on_c, 11, 57, 0
13, 41472, Note_on_c, 11, 58, 100
13, 41562, Note_on_c, 11, 58, 0
13, 41612, Note_on_c, 11, 53, 100
13, 41704, Note_on_c, 11, 53, 0
13, 41740, Note_on_c, 11, 50, 100
13, 41813, Note_on_c, 11, 50, 0
13, 41860, Note_on_c, 11, 55, 100
13, 42014, Note_on_c, 11, 55, 0
13, 42052, Note_on_c, 11, 53, 100
13, 42206, Note_on_c, 11, 53, 0
13, 42240, Note_on_c, 11, 51, 100
13, 42284, Note_on_c, 11, 51, 0
13, 42336, Note_on_c, 11, 51, 100
13, 42380, Note_on_c, 11, 51, 0
13, 42432, Note_on_c, 11, 51, 100
13, 42476, Note_on_c, 11, 51, 0
13, 42528, Note_on_c, 11, 51, 100
13, 42572, Note_on_c, 11, 51, 0
13, 42624, Note_on_c, 11, 53, 100
13, 42668, Note_on_c, 11, 53, 0
13, 42720, Note_on_c, 11, 53, 100
13, 42764, Note_on_c, 11, 53, 0
13, 42816, Note_on_c, 11, 53, 100
13, 42860, Note_on_c, 11, 53, 0
13, 42912, Note_on_c, 11, 53, 100
13, 42956, Note_on_c, 11, 53, 0
13, 43008, Note_on_c, 11, 51, 100
13, 43052, Note_on_c, 11, 51, 0
13, 43104, Note_on_c, 11, 55, 100
13, 43148, Note_on_c, 11, 55, 0
13, 43200, Note_on_c, 11, 58, 100
13, 43244, Note_on_c, 11, 58, 0
13, 43296, Note_on_c, 11, 55, 100
13, 43340, Note_on_c, 11, 55, 0
13, 43776, Note_on_c, 11, 46, 100
13, 44918, Note_on_c, 11, 46, 0
13, 44928, Note_on_c, 11, 70, 100
13, 44928, Note_on_c, 11, 58, 100
13, 44928, Note_on_c, 11, 62, 64
13, 44932, Control_c, 11, 7, 39
13, 44942, Control_c, 11, 7, 40
13, 44953, Control_c, 11, 7, 41
13, 44964, Control_c, 11, 7, 42
13, 44974, Control_c, 11, 7, 43
13, 44985, Control_c, 11, 7, 44
13, 44996, Control_c, 11, 7, 45
13, 45006, Control_c, 11, 7, 46
13, 45017, Control_c, 11, 7, 47
13, 45028, Control_c, 11, 7, 48
13, 45038, Control_c, 11, 7, 49
13, 45049, Control_c, 11, 7, 50
13, 45060, Control_c, 11, 7, 51
13, 45070, Control_c, 11, 7, 52
13, 45081, Control_c, 11, 7, 54
13, 45081, Control_c, 11, 7, 54
13, 45095, Control_c, 11, 7, 55
13, 45107, Control_c, 11, 7, 56
13, 45120, Control_c, 11, 7, 60
13, 45122, Pitch_bend_c, 11, 8190
13, 45125, Pitch_bend_c, 11, 8183
13, 45128, Pitch_bend_c, 11, 8174
13, 45131, Pitch_bend_c, 11, 8161
13, 45134, Pitch_bend_c, 11, 8145
13, 45136, Pitch_bend_c, 11, 8125
13, 45139, Pitch_bend_c, 11, 8102
13, 45142, Pitch_bend_c, 11, 8075
13, 45145, Pitch_bend_c, 11, 8044
13, 45148, Pitch_bend_c, 11, 8011
13, 45150, Pitch_bend_c, 11, 7974
13, 45153, Pitch_bend_c, 11, 7933
13, 45156, Pitch_bend_c, 11, 7889
13, 45159, Pitch_bend_c, 11, 7841
13, 45162, Pitch_bend_c, 11, 7790
13, 45164, Pitch_bend_c, 11, 7736
13, 45167, Pitch_bend_c, 11, 7678
13, 45170, Pitch_bend_c, 11, 7617
13, 45173, Pitch_bend_c, 11, 7552
13, 45176, Pitch_bend_c, 11, 7483
13, 45178, Pitch_bend_c, 11, 7412
13, 45181, Pitch_bend_c, 11, 7336
13, 45184, Pitch_bend_c, 11, 7258
13, 45187, Pitch_bend_c, 11, 7175
13, 45190, Pitch_bend_c, 11, 7090
13, 45193, Pitch_bend_c, 11, 6987
13, 45196, Pitch_bend_c, 11, 6895
13, 45198, Pitch_bend_c, 11, 6798
13, 45201, Pitch_bend_c, 11, 6698
13, 45204, Pitch_bend_c, 11, 6594
13, 45207, Pitch_bend_c, 11, 6488
13, 45210, Pitch_bend_c, 11, 6377
13, 45212, Pitch_bend_c, 11, 6263
13, 45215, Pitch_bend_c, 11, 6146
13, 45218, Pitch_bend_c, 11, 6025
13, 45221, Pitch_bend_c, 11, 5900
13, 45222, Control_c, 11, 7, 59
13, 45224, Pitch_bend_c, 11, 5773
13, 45226, Pitch_bend_c, 11, 5641
13, 45229, Pitch_bend_c, 11, 5507
13, 45232, Pitch_bend_c, 11, 5369
13, 45235, Pitch_bend_c, 11, 5227
13, 45238, Pitch_bend_c, 11, 5082
13, 45240, Pitch_bend_c, 11, 4934
13, 45243, Pitch_bend_c, 11, 4781
13, 45246, Pitch_bend_c, 11, 4626
13, 45249, Pitch_bend_c, 11, 4467
13, 45252, Pitch_bend_c, 11, 4304
13, 45254, Pitch_bend_c, 11, 4138
13, 45257, Pitch_bend_c, 11, 3970
13, 45260, Pitch_bend_c, 11, 3796
13, 45263, Pitch_bend_c, 11, 3595
13, 45266, Pitch_bend_c, 11, 3414
13, 45269, Pitch_bend_c, 11, 3231
13, 45272, Pitch_bend_c, 11, 3043
13, 45274, Pitch_bend_c, 11, 2853
13, 45277, Pitch_bend_c, 11, 2658
13, 45280, Pitch_bend_c, 11, 2461
13, 45283, Pitch_bend_c, 11, 2260
13, 45286, Pitch_bend_c, 11, 2056
13, 45288, Pitch_bend_c, 11, 1847
13, 45291, Pitch_bend_c, 11, 1636
13, 45294, Pitch_bend_c, 11, 1421
13, 45297, Pitch_bend_c, 11, 1203
13, 45300, Pitch_bend_c, 11, 981
13, 45302, Pitch_bend_c, 11, 756
13, 45305, Pitch_bend_c, 11, 527
13, 45308, Pitch_bend_c, 11, 294
13, 45310, Note_on_c, 11, 62, 0
13, 45311, Pitch_bend_c, 11, 59
13, 45312, Pitch_bend_c, 11, 0
13, 45324, Control_c, 11, 7, 58
13, 45426, Control_c, 11, 7, 57
13, 45528, Control_c, 11, 7, 56
13, 45630, Control_c, 11, 7, 55
13, 45732, Control_c, 11, 7, 54
13, 45834, Control_c, 11, 7, 53
13, 45936, Control_c, 11, 7, 52
13, 46038, Control_c, 11, 7, 51
13, 46140, Control_c, 11, 7, 50
13, 46242, Control_c, 11, 7, 49
13, 46344, Control_c, 11, 7, 48
13, 46446, Control_c, 11, 7, 47
13, 46548, Control_c, 11, 7, 46
13, 46650, Control_c, 11, 7, 45
13, 46751, Control_c, 11, 7, 44
13, 46752, Control_c, 11, 7, 44
13, 46763, Control_c, 11, 7, 43
13, 46774, Control_c, 11, 7, 42
13, 46786, Control_c, 11, 7, 41
13, 46797, Control_c, 11, 7, 40
13, 46808, Control_c, 11, 7, 39
13, 46820, Control_c, 11, 7, 38
13, 46831, Control_c, 11, 7, 37
13, 46842, Control_c, 11, 7, 36
13, 46854, Control_c, 11, 7, 35
13, 46865, Control_c, 11, 7, 34
13, 46876, Control_c, 11, 7, 33
13, 46888, Control_c, 11, 7, 32
13, 46899, Control_c, 11, 7, 31
13, 46910, Control_c, 11, 7, 30
13, 46922, Control_c, 11, 7, 29
13, 46933, Control_c, 11, 7, 28
13, 46944, Control_c, 11, 7, 27
13, 46956, Control_c, 11, 7, 26
13, 46967, Control_c, 11, 7, 25
13, 46978, Control_c, 11, 7, 24
13, 46990, Control_c, 11, 7, 23
13, 47001, Control_c, 11, 7, 22
13, 47012, Control_c, 11, 7, 21
13, 47024, Control_c, 11, 7, 20
13, 47035, Control_c, 11, 7, 19
13, 47046, Control_c, 11, 7, 18
13, 47058, Control_c, 11, 7, 17
13, 47069, Control_c, 11, 7, 16
13, 47080, Control_c, 11, 7, 15
13, 47092, Control_c, 11, 7, 14
13, 47103, Control_c, 11, 7, 13
13, 47114, Control_c, 11, 7, 12
13, 47126, Control_c, 11, 7, 11
13, 47137, Control_c, 11, 7, 10
13, 47148, Control_c, 11, 7, 9
13, 47160, Control_c, 11, 7, 8
13, 47171, Control_c, 11, 7, 7
13, 47182, Control_c, 11, 7, 6
13, 47189, Note_on_c, 11, 58, 0
13, 47189, Note_on_c, 11, 70, 0
13, 47194, Control_c, 11, 7, 5
13, 47205, Control_c, 11, 7, 4
13, 47216, Control_c, 11, 7, 3
13, 47228, Control_c, 11, 7, 2
13, 47239, Control_c, 11, 7, 1
13, 47250, Control_c, 11, 7, 0
13, 47254, Control_c, 11, 7, 1
13, 47270, Control_c, 11, 7, 0
13, 47433, Pitch_bend_c, 11, 8192
13, 47433, Control_c, 11, 7, 64
13, 49344, Control_c, 11, 7, 98
13, 49536, Note_on_c, 11, 51, 102
13, 49536, Pitch_bend_c, 11, 256
13, 49538, Pitch_bend_c, 11, 533
13, 49541, Pitch_bend_c, 11, 811
13, 49544, Pitch_bend_c, 11, 1089
13, 49547, Pitch_bend_c, 11, 1367
13, 49550, Pitch_bend_c, 11, 1644
13, 49552, Pitch_bend_c, 11, 1922
13, 49556, Pitch_bend_c, 11, 2239
13, 49558, Pitch_bend_c, 11, 2517
13, 49561, Pitch_bend_c, 11, 2795
13, 49564, Pitch_bend_c, 11, 3073
13, 49567, Pitch_bend_c, 11, 3351
13, 49570, Pitch_bend_c, 11, 3628
13, 49572, Pitch_bend_c, 11, 3906
13, 49576, Pitch_bend_c, 11, 4223
13, 49578, Pitch_bend_c, 11, 4501
13, 49581, Pitch_bend_c, 11, 4779
13, 49584, Pitch_bend_c, 11, 5057
13, 49587, Pitch_bend_c, 11, 5335
13, 49590, Pitch_bend_c, 11, 5612
13, 49592, Pitch_bend_c, 11, 5890
13, 49596, Pitch_bend_c, 11, 6207
13, 49598, Pitch_bend_c, 11, 6485
13, 49601, Pitch_bend_c, 11, 6763
13, 49604, Pitch_bend_c, 11, 7041
13, 49607, Pitch_bend_c, 11, 7318
13, 49610, Pitch_bend_c, 11, 7596
13, 49612, Pitch_bend_c, 11, 7874
13, 49615, Pitch_bend_c, 11, 8192
13, 49820, Note_on_c, 11, 51, 0
13, 49824, Note_on_c, 11, 51, 102
13, 49824, Pitch_bend_c, 11, 256
13, 49826, Pitch_bend_c, 11, 533
13, 49829, Pitch_bend_c, 11, 811
13, 49832, Pitch_bend_c, 11, 1089
13, 49835, Pitch_bend_c, 11, 1367
13, 49838, Pitch_bend_c, 11, 1644
13, 49840, Pitch_bend_c, 11, 1922
13, 49844, Pitch_bend_c, 11, 2239
13, 49846, Pitch_bend_c, 11, 2517
13, 49849, Pitch_bend_c, 11, 2795
13, 49852, Pitch_bend_c, 11, 3073
13, 49855, Pitch_bend_c, 11, 3351
13, 49858, Pitch_bend_c, 11, 3628
13, 49860, Pitch_bend_c, 11, 3906
13, 49864, Pitch_bend_c, 11, 4223
13, 49866, Pitch_bend_c, 11, 4501
13, 49869, Pitch_bend_c, 11, 4779
13, 49872, Pitch_bend_c, 11, 5057
13, 49875, Pitch_bend_c, 11, 5335
13, 49878, Pitch_bend_c, 11, 5612
13, 49880, Pitch_bend_c, 11, 5890
13, 49884, Pitch_bend_c, 11, 6207
13, 49886, Pitch_bend_c, 11, 6485
13, 49889, Pitch_bend_c, 11, 6763
13, 49892, Pitch_bend_c, 11, 7041
13, 49895, Pitch_bend_c, 11, 7318
13, 49898, Pitch_bend_c, 11, 7596
13, 49900, Pitch_bend_c, 11, 7874
13, 49903, Pitch_bend_c, 11, 8192
13, 50064, Pitch_bend_c, 11, 8192
13, 50066, Pitch_bend_c, 11, 7714
13, 50069, Pitch_bend_c, 11, 7236
13, 50072, Pitch_bend_c, 11, 6758
13, 50075, Pitch_bend_c, 11, 6280
13, 50078, Pitch_bend_c, 11, 5802
13, 50080, Pitch_bend_c, 11, 5324
13, 50083, Pitch_bend_c, 11, 4846
13, 50086, Pitch_bend_c, 11, 4369
13, 50089, Pitch_bend_c, 11, 3891
13, 50092, Pitch_bend_c, 11, 3413
13, 50094, Pitch_bend_c, 11, 2935
13, 50097, Pitch_bend_c, 11, 2457
13, 50100, Pitch_bend_c, 11, 1979
13, 50103, Pitch_bend_c, 11, 1501
13, 50106, Pitch_bend_c, 11, 1024
13, 50108, Pitch_bend_c, 11, 546
13, 50111, Pitch_bend_c, 11, 0
13, 50112, Note_on_c, 11, 46, 102
13, 50112, Pitch_bend_c, 11, 8192
13, 50115, Note_on_c, 11, 51, 0
13, 50495, Note_on_c, 11, 43, 102
13, 50498, Note_on_c, 11, 46, 0
13, 50865, Note_on_c, 11, 43, 0
13, 50880, Pitch_bend_c, 11, 256
13, 50880, Note_on_c, 11, 51, 102
13, 50882, Pitch_bend_c, 11, 533
13, 50885, Pitch_bend_c, 11, 811
13, 50888, Pitch_bend_c, 11, 1089
13, 50891, Pitch_bend_c, 11, 1367
13, 50894, Pitch_bend_c, 11, 1644
13, 50896, Pitch_bend_c, 11, 1922
13, 50900, Pitch_bend_c, 11, 2239
13, 50902, Pitch_bend_c, 11, 2517
13, 50905, Pitch_bend_c, 11, 2795
13, 50908, Pitch_bend_c, 11, 3073
13, 50911, Pitch_bend_c, 11, 3351
13, 50914, Pitch_bend_c, 11, 3628
13, 50916, Pitch_bend_c, 11, 3906
13, 50920, Pitch_bend_c, 11, 4223
13, 50922, Pitch_bend_c, 11, 4501
13, 50925, Pitch_bend_c, 11, 4779
13, 50928, Pitch_bend_c, 11, 5057
13, 50931, Pitch_bend_c, 11, 5335
13, 50934, Pitch_bend_c, 11, 5612
13, 50936, Pitch_bend_c, 11, 5890
13, 50940, Pitch_bend_c, 11, 6207
13, 50942, Pitch_bend_c, 11, 6485
13, 50945, Pitch_bend_c, 11, 6763
13, 50948, Pitch_bend_c, 11, 7041
13, 50951, Pitch_bend_c, 11, 7318
13, 50954, Pitch_bend_c, 11, 7596
13, 50956, Pitch_bend_c, 11, 7874
13, 50959, Pitch_bend_c, 11, 8192
13, 51164, Note_on_c, 11, 51, 0
13, 51168, Note_on_c, 11, 51, 102
13, 51168, Pitch_bend_c, 11, 256
13, 51170, Pitch_bend_c, 11, 533
13, 51173, Pitch_bend_c, 11, 811
13, 51176, Pitch_bend_c, 11, 1089
13, 51179, Pitch_bend_c, 11, 1367
13, 51182, Pitch_bend_c, 11, 1644
13, 51184, Pitch_bend_c, 11, 1922
13, 51188, Pitch_bend_c, 11, 2239
13, 51190, Pitch_bend_c, 11, 2517
13, 51193, Pitch_bend_c, 11, 2795
13, 51196, Pitch_bend_c, 11, 3073
13, 51199, Pitch_bend_c, 11, 3351
13, 51202, Pitch_bend_c, 11, 3628
13, 51204, Pitch_bend_c, 11, 3906
13, 51208, Pitch_bend_c, 11, 4223
13, 51210, Pitch_bend_c, 11, 4501
13, 51213, Pitch_bend_c, 11, 4779
13, 51216, Pitch_bend_c, 11, 5057
13, 51219, Pitch_bend_c, 11, 5335
13, 51222, Pitch_bend_c, 11, 5612
13, 51224, Pitch_bend_c, 11, 5890
13, 51228, Pitch_bend_c, 11, 6207
13, 51230, Pitch_bend_c, 11, 6485
13, 51233, Pitch_bend_c, 11, 6763
13, 51236, Pitch_bend_c, 11, 7041
13, 51239, Pitch_bend_c, 11, 7318
13, 51242, Pitch_bend_c, 11, 7596
13, 51244, Pitch_bend_c, 11, 7874
13, 51247, Pitch_bend_c, 11, 8192
13, 51408, Pitch_bend_c, 11, 8192
13, 51410, Pitch_bend_c, 11, 7714
13, 51413, Pitch_bend_c, 11, 7236
13, 51416, Pitch_bend_c, 11, 6758
13, 51419, Pitch_bend_c, 11, 6280
13, 51422, Pitch_bend_c, 11, 5802
13, 51424, Pitch_bend_c, 11, 5324
13, 51427, Pitch_bend_c, 11, 4846
13, 51430, Pitch_bend_c, 11, 4369
13, 51433, Pitch_bend_c, 11, 3891
13, 51436, Pitch_bend_c, 11, 3413
13, 51438, Pitch_bend_c, 11, 2935
13, 51441, Pitch_bend_c, 11, 2457
13, 51444, Pitch_bend_c, 11, 1979
13, 51447, Pitch_bend_c, 11, 1501
13, 51450, Pitch_bend_c, 11, 1024
13, 51452, Pitch_bend_c, 11, 546
13, 51455, Pitch_bend_c, 11, 0
13, 51456, Note_on_c, 11, 46, 102
13, 51456, Pitch_bend_c, 11, 8192
13, 51459, Note_on_c, 11, 51, 0
13, 52032, Note_on_c, 11, 51, 102
13, 52032, Pitch_bend_c, 11, 256
13, 52034, Note_on_c, 11, 46, 0
13, 52034, Pitch_bend_c, 11, 533
13, 52037, Pitch_bend_c, 11, 811
13, 52040, Pitch_bend_c, 11, 1089
13, 52043, Pitch_bend_c, 11, 1367
13, 52046, Pitch_bend_c, 11, 1644
13, 52048, Pitch_bend_c, 11, 1922
13, 52052, Pitch_bend_c, 11, 2239
13, 52054, Pitch_bend_c, 11, 2517
13, 52057, Pitch_bend_c, 11, 2795
13, 52060, Pitch_bend_c, 11, 3073
13, 52063, Pitch_bend_c, 11, 3351
13, 52066, Pitch_bend_c, 11, 3628
13, 52068, Pitch_bend_c, 11, 3906
13, 52072, Pitch_bend_c, 11, 4223
13, 52074, Pitch_bend_c, 11, 4501
13, 52077, Pitch_bend_c, 11, 4779
13, 52080, Pitch_bend_c, 11, 5057
13, 52083, Pitch_bend_c, 11, 5335
13, 52086, Pitch_bend_c, 11, 5612
13, 52088, Pitch_bend_c, 11, 5890
13, 52092, Pitch_bend_c, 11, 6207
13, 52094, Pitch_bend_c, 11, 6485
13, 52097, Pitch_bend_c, 11, 6763
13, 52100, Pitch_bend_c, 11, 7041
13, 52103, Pitch_bend_c, 11, 7318
13, 52106, Pitch_bend_c, 11, 7596
13, 52108, Pitch_bend_c, 11, 7874
13, 52111, Pitch_bend_c, 11, 8192
13, 52316, Note_on_c, 11, 51, 0
13, 52320, Note_on_c, 11, 53, 102
13, 52320, Pitch_bend_c, 11, 256
13, 52322, Pitch_bend_c, 11, 533
13, 52325, Pitch_bend_c, 11, 811
13, 52328, Pitch_bend_c, 11, 1089
13, 52331, Pitch_bend_c, 11, 1367
13, 52334, Pitch_bend_c, 11, 1644
13, 52336, Pitch_bend_c, 11, 1922
13, 52340, Pitch_bend_c, 11, 2239
13, 52342, Pitch_bend_c, 11, 2517
13, 52345, Pitch_bend_c, 11, 2795
13, 52348, Pitch_bend_c, 11, 3073
13, 52351, Pitch_bend_c, 11, 3351
13, 52354, Pitch_bend_c, 11, 3628
13, 52356, Pitch_bend_c, 11, 3906
13, 52360, Pitch_bend_c, 11, 4223
13, 52362, Pitch_bend_c, 11, 4501
13, 52365, Pitch_bend_c, 11, 4779
13, 52368, Pitch_bend_c, 11, 5057
13, 52371, Pitch_bend_c, 11, 5335
13, 52374, Pitch_bend_c, 11, 5612
13, 52376, Pitch_bend_c, 11, 5890
13, 52380, Pitch_bend_c, 11, 6207
13, 52382, Pitch_bend_c, 11, 6485
13, 52385, Pitch_bend_c, 11, 6763
13, 52388, Pitch_bend_c, 11, 7041
13, 52391, Pitch_bend_c, 11, 7318
13, 52394, Pitch_bend_c, 11, 7596
13, 52396, Pitch_bend_c, 11, 7874
13, 52399, Pitch_bend_c, 11, 8192
13, 52560, Pitch_bend_c, 11, 8192
13, 52562, Pitch_bend_c, 11, 7714
13, 52565, Pitch_bend_c, 11, 7236
13, 52568, Pitch_bend_c, 11, 6758
13, 52571, Pitch_bend_c, 11, 6280
13, 52574, Pitch_bend_c, 11, 5802
13, 52576, Pitch_bend_c, 11, 5324
13, 52579, Pitch_bend_c, 11, 4846
13, 52582, Pitch_bend_c, 11, 4369
13, 52585, Pitch_bend_c, 11, 3891
13, 52588, Pitch_bend_c, 11, 3413
13, 52590, Pitch_bend_c, 11, 2935
13, 52593, Pitch_bend_c, 11, 2457
13, 52596, Pitch_bend_c, 11, 1979
13, 52599, Pitch_bend_c, 11, 1501
13, 52602, Pitch_bend_c, 11, 1024
13, 52604, Pitch_bend_c, 11, 546
13, 52607, Pitch_bend_c, 11, 0
13, 52608, Note_on_c, 11, 51, 102
13, 52608, Pitch_bend_c, 11, 8192
13, 52608, Control_c, 11, 7, 98
13, 52611, Note_on_c, 11, 53, 0
13, 52611, Pitch_bend_c, 11, 533
13, 52614, Pitch_bend_c, 11, 811
13, 52617, Pitch_bend_c, 11, 1089
13, 52620, Pitch_bend_c, 11, 1367
13, 52622, Pitch_bend_c, 11, 1644
13, 52623, Control_c, 11, 7, 97
13, 52625, Pitch_bend_c, 11, 1922
13, 52628, Pitch_bend_c, 11, 2239
13, 52631, Pitch_bend_c, 11, 2517
13, 52634, Pitch_bend_c, 11, 2795
13, 52637, Pitch_bend_c, 11, 3073
13, 52638, Control_c, 11, 7, 96
13, 52640, Pitch_bend_c, 11, 3351
13, 52642, Pitch_bend_c, 11, 3628
13, 52645, Pitch_bend_c, 11, 3906
13, 52648, Pitch_bend_c, 11, 4223
13, 52651, Pitch_bend_c, 11, 4501
13, 52654, Control_c, 11, 7, 95
13, 52654, Pitch_bend_c, 11, 4779
13, 52657, Pitch_bend_c, 11, 5057
13, 52660, Pitch_bend_c, 11, 5335
13, 52662, Pitch_bend_c, 11, 5612
13, 52665, Pitch_bend_c, 11, 5890
13, 52668, Pitch_bend_c, 11, 6207
13, 52669, Control_c, 11, 7, 94
13, 52671, Pitch_bend_c, 11, 6485
13, 52674, Pitch_bend_c, 11, 6763
13, 52677, Pitch_bend_c, 11, 7041
13, 52680, Pitch_bend_c, 11, 7318
13, 52682, Pitch_bend_c, 11, 7596
13, 52684, Control_c, 11, 7, 93
13, 52685, Pitch_bend_c, 11, 7874
13, 52688, Pitch_bend_c, 11, 8192
13, 52700, Control_c, 11, 7, 92
13, 52715, Control_c, 11, 7, 91
13, 52731, Control_c, 11, 7, 90
13, 52746, Control_c, 11, 7, 89
13, 52762, Control_c, 11, 7, 88
13, 52777, Control_c, 11, 7, 87
13, 52792, Control_c, 11, 7, 86
13, 52808, Control_c, 11, 7, 85
13, 52823, Control_c, 11, 7, 84
13, 52838, Control_c, 11, 7, 83
13, 52854, Control_c, 11, 7, 82
13, 52869, Control_c, 11, 7, 81
13, 52885, Control_c, 11, 7, 80
13, 52900, Control_c, 11, 7, 79
13, 52916, Control_c, 11, 7, 78
13, 52931, Control_c, 11, 7, 77
13, 52946, Control_c, 11, 7, 76
13, 52962, Control_c, 11, 7, 75
13, 52977, Control_c, 11, 7, 74
13, 52993, Control_c, 11, 7, 73
13, 53008, Control_c, 11, 7, 72
13, 53024, Control_c, 11, 7, 71
13, 53039, Control_c, 11, 7, 70
13, 53054, Control_c, 11, 7, 69
13, 53070, Control_c, 11, 7, 68
13, 53085, Control_c, 11, 7, 67
13, 53100, Control_c, 11, 7, 66
13, 53116, Control_c, 11, 7, 65
13, 53131, Control_c, 11, 7, 64
13, 53147, Control_c, 11, 7, 63
13, 53162, Control_c, 11, 7, 62
13, 53178, Control_c, 11, 7, 61
13, 53193, Control_c, 11, 7, 60
13, 53208, Control_c, 11, 7, 59
13, 53224, Control_c, 11, 7, 58
13, 53239, Control_c, 11, 7, 57
13, 53254, Control_c, 11, 7, 56
13, 53270, Control_c, 11, 7, 55
13, 53285, Control_c, 11, 7, 54
13, 53301, Control_c, 11, 7, 53
13, 53316, Control_c, 11, 7, 52
13, 53332, Control_c, 11, 7, 51
13, 53347, Control_c, 11, 7, 50
13, 53362, Control_c, 11, 7, 49
13, 53378, Control_c, 11, 7, 48
13, 53384, Note_on_c, 11, 51, 0
13, 53393, Control_c, 11, 7, 47
13, 53408, Control_c, 11, 7, 46
13, 53424, Control_c, 11, 7, 45
13, 53439, Control_c, 11, 7, 44
13, 53648, Control_c, 11, 7, 111
13, 53900, Note_on_c, 11, 51, 84
13, 53904, Pitch_bend_c, 11, 6016
13, 53906, Pitch_bend_c, 11, 6143
13, 53910, Pitch_bend_c, 11, 6288
13, 53912, Pitch_bend_c, 11, 6415
13, 53916, Pitch_bend_c, 11, 6560
13, 53918, Pitch_bend_c, 11, 6687
13, 53922, Pitch_bend_c, 11, 6832
13, 53924, Pitch_bend_c, 11, 6959
13, 53928, Pitch_bend_c, 11, 7104
13, 53930, Pitch_bend_c, 11, 7231
13, 53934, Pitch_bend_c, 11, 7376
13, 53936, Pitch_bend_c, 11, 7503
13, 53940, Pitch_bend_c, 11, 7648
13, 53942, Pitch_bend_c, 11, 7775
13, 53946, Pitch_bend_c, 11, 7920
13, 53948, Pitch_bend_c, 11, 8047
13, 53951, Pitch_bend_c, 11, 8192
13, 54032, Pitch_bend_c, 11, 8192
13, 54035, Pitch_bend_c, 11, 7782
13, 54038, Pitch_bend_c, 11, 7373
13, 54041, Pitch_bend_c, 11, 6963
13, 54044, Pitch_bend_c, 11, 6554
13, 54047, Pitch_bend_c, 11, 6144
13, 54130, Note_on_c, 11, 51, 0
13, 54144, Note_on_c, 11, 46, 84
13, 54144, Pitch_bend_c, 11, 8192
13, 54242, Pitch_bend_c, 11, 8192
13, 54245, Pitch_bend_c, 11, 7082
13, 54248, Pitch_bend_c, 11, 5973
13, 54251, Pitch_bend_c, 11, 4864
13, 55080, Note_on_c, 11, 46, 0
13, 55104, Note_on_c, 11, 46, 84
13, 55104, Pitch_bend_c, 11, 8192
13, 55240, Note_on_c, 11, 46, 0
13, 55296, Note_on_c, 11, 58, 84
13, 55432, Note_on_c, 11, 58, 0
13, 55488, Note_on_c, 11, 51, 84
13, 55536, Note_on_c, 11, 51, 0
13, 55584, Note_on_c, 11, 53, 84
13, 55632, Note_on_c, 11, 53, 0
13, 55680, Note_on_c, 11, 55, 84
13, 55728, Note_on_c, 11, 55, 0
13, 55776, Note_on_c, 11, 51, 84
13, 55824, Note_on_c, 11, 51, 0
13, 55872, Note_on_c, 11, 48, 84
13, 55920, Note_on_c, 11, 48, 0
13, 55968, Note_on_c, 11, 50, 84
13, 56016, Note_on_c, 11, 50, 0
13, 56064, Note_on_c, 11, 51, 84
13, 56112, Note_on_c, 11, 51, 0
13, 56160, Note_on_c, 11, 53, 84
13, 56208, Note_on_c, 11, 53, 0
13, 56256, Note_on_c, 11, 46, 84
13, 56624, Control_c, 11, 7, 114
13, 56633, Control_c, 11, 7, 112
13, 56643, Control_c, 11, 7, 111
13, 56652, Control_c, 11, 7, 110
13, 56662, Control_c, 11, 7, 109
13, 56672, Control_c, 11, 7, 108
13, 56681, Control_c, 11, 7, 107
13, 56691, Control_c, 11, 7, 106
13, 56700, Control_c, 11, 7, 104
13, 56710, Control_c, 11, 7, 103
13, 56720, Control_c, 11, 7, 102
13, 56729, Control_c, 11, 7, 101
13, 56739, Control_c, 11, 7, 100
13, 56748, Control_c, 11, 7, 99
13, 56758, Control_c, 11, 7, 98
13, 56768, Control_c, 11, 7, 96
13, 56777, Control_c, 11, 7, 95
13, 56787, Control_c, 11, 7, 94
13, 56796, Note_on_c, 11, 46, 0
13, 56796, Control_c, 11, 7, 93
13, 56806, Control_c, 11, 7, 92
13, 56816, Control_c, 11, 7, 91
13, 56825, Control_c, 11, 7, 90
13, 56832, Note_on_c, 11, 58, 84
13, 56835, Control_c, 11, 7, 88
13, 56844, Control_c, 11, 7, 87
13, 56854, Control_c, 11, 7, 86
13, 56864, Control_c, 11, 7, 85
13, 56873, Control_c, 11, 7, 84
13, 56883, Control_c, 11, 7, 83
13, 56892, Control_c, 11, 7, 82
13, 56902, Control_c, 11, 7, 80
13, 56912, Control_c, 11, 7, 79
13, 56921, Control_c, 11, 7, 78
13, 56931, Control_c, 11, 7, 77
13, 56940, Control_c, 11, 7, 76
13, 56950, Control_c, 11, 7, 75
13, 56960, Control_c, 11, 7, 74
13, 56969, Control_c, 11, 7, 72
13, 56979, Control_c, 11, 7, 71
13, 56988, Control_c, 11, 7, 70
13, 56998, Control_c, 11, 7, 69
13, 57008, Control_c, 11, 7, 68
13, 57017, Control_c, 11, 7, 67
13, 57027, Control_c, 11, 7, 66
13, 57036, Control_c, 11, 7, 64
13, 57046, Control_c, 11, 7, 63
13, 57056, Control_c, 11, 7, 62
13, 57065, Control_c, 11, 7, 61
13, 57075, Control_c, 11, 7, 60
13, 57084, Control_c, 11, 7, 59
13, 57094, Control_c, 11, 7, 58
13, 57104, Control_c, 11, 7, 57
13, 57113, Control_c, 11, 7, 55
13, 57123, Control_c, 11, 7, 54
13, 57132, Control_c, 11, 7, 53
13, 57142, Control_c, 11, 7, 52
13, 57152, Control_c, 11, 7, 51
13, 57161, Control_c, 11, 7, 50
13, 57171, Control_c, 11, 7, 49
13, 57180, Control_c, 11, 7, 47
13, 57190, Control_c, 11, 7, 46
13, 57200, Control_c, 11, 7, 45
13, 57209, Control_c, 11, 7, 44
13, 57219, Control_c, 11, 7, 43
13, 57228, Control_c, 11, 7, 42
13, 57238, Control_c, 11, 7, 41
13, 57248, Control_c, 11, 7, 39
13, 57257, Control_c, 11, 7, 38
13, 57267, Control_c, 11, 7, 37
13, 57276, Control_c, 11, 7, 36
13, 57286, Control_c, 11, 7, 35
13, 57296, Control_c, 11, 7, 34
13, 57305, Control_c, 11, 7, 33
13, 57315, Control_c, 11, 7, 31
13, 57324, Control_c, 11, 7, 30
13, 57334, Control_c, 11, 7, 29
13, 57344, Control_c, 11, 7, 28
13, 57353, Control_c, 11, 7, 27
13, 57363, Control_c, 11, 7, 26
13, 57372, Control_c, 11, 7, 25
13, 57382, Control_c, 11, 7, 23
13, 57392, Control_c, 11, 7, 22
13, 57401, Control_c, 11, 7, 21
13, 57411, Control_c, 11, 7, 20
13, 57420, Control_c, 11, 7, 19
13, 57430, Control_c, 11, 7, 18
13, 57440, Control_c, 11, 7, 17
13, 57449, Control_c, 11, 7, 15
13, 57459, Control_c, 11, 7, 14
13, 57468, Control_c, 11, 7, 13
13, 57478, Control_c, 11, 7, 12
13, 57488, Control_c, 11, 7, 11
13, 57497, Control_c, 11, 7, 10
13, 57507, Control_c, 11, 7, 9
13, 57516, Control_c, 11, 7, 7
13, 57526, Control_c, 11, 7, 6
13, 57536, Control_c, 11, 7, 5
13, 57545, Control_c, 11, 7, 4
13, 57555, Control_c, 11, 7, 3
13, 57564, Control_c, 11, 7, 2
13, 57574, Control_c, 11, 7, 1
13, 57583, Control_c, 11, 7, 2
13, 57594, Note_on_c, 11, 58, 0
13, 57962, Control_c, 11, 7, 126
13, 57984, Note_on_c, 11, 50, 78
13, 58032, Pitch_bend_c, 11, 8192
13, 58035, Pitch_bend_c, 11, 8568
13, 58038, Pitch_bend_c, 11, 8945
13, 58041, Pitch_bend_c, 11, 9322
13, 58044, Pitch_bend_c, 11, 9698
13, 58047, Pitch_bend_c, 11, 10076
13, 58096, Pitch_bend_c, 11, 10076
13, 58099, Pitch_bend_c, 11, 9698
13, 58102, Pitch_bend_c, 11, 9322
13, 58105, Pitch_bend_c, 11, 8945
13, 58108, Pitch_bend_c, 11, 8568
13, 58111, Pitch_bend_c, 11, 8192
13, 58160, Pitch_bend_c, 11, 8192
13, 58163, Pitch_bend_c, 11, 8568
13, 58166, Pitch_bend_c, 11, 8945
13, 58169, Pitch_bend_c, 11, 9322
13, 58172, Pitch_bend_c, 11, 9698
13, 58175, Pitch_bend_c, 11, 10076
13, 58224, Pitch_bend_c, 11, 10076
13, 58227, Pitch_bend_c, 11, 9698
13, 58230, Pitch_bend_c, 11, 9322
13, 58233, Pitch_bend_c, 11, 8945
13, 58236, Pitch_bend_c, 11, 8568
13, 58239, Pitch_bend_c, 11, 8192
13, 58288, Pitch_bend_c, 11, 8192
13, 58291, Pitch_bend_c, 11, 8568
13, 58294, Pitch_bend_c, 11, 8945
13, 58297, Pitch_bend_c, 11, 9322
13, 58300, Pitch_bend_c, 11, 9698
13, 58303, Pitch_bend_c, 11, 10076
13, 58348, Control_c, 11, 7, 127
13, 58352, Pitch_bend_c, 11, 10076
13, 58355, Pitch_bend_c, 11, 9698
13, 58358, Control_c, 11, 7, 127
13, 58358, Pitch_bend_c, 11, 9322
13, 58361, Pitch_bend_c, 11, 8945
13, 58364, Pitch_bend_c, 11, 8568
13, 58367, Pitch_bend_c, 11, 8192
13, 58368, Control_c, 11, 7, 126
13, 58378, Control_c, 11, 7, 125
13, 58388, Control_c, 11, 7, 124
13, 58398, Control_c, 11, 7, 123
13, 58408, Control_c, 11, 7, 121
13, 58416, Pitch_bend_c, 11, 8192
13, 58418, Control_c, 11, 7, 120
13, 58419, Pitch_bend_c, 11, 8568
13, 58422, Pitch_bend_c, 11, 8945
13, 58425, Pitch_bend_c, 11, 9322
13, 58428, Pitch_bend_c, 11, 9698
13, 58428, Control_c, 11, 7, 118
13, 58431, Pitch_bend_c, 11, 10076
13, 58438, Control_c, 11, 7, 117
13, 58449, Control_c, 11, 7, 116
13, 58459, Control_c, 11, 7, 115
13, 58469, Control_c, 11, 7, 114
13, 58479, Control_c, 11, 7, 112
13, 58480, Pitch_bend_c, 11, 10076
13, 58483, Pitch_bend_c, 11, 9698
13, 58486, Pitch_bend_c, 11, 9322
13, 58489, Pitch_bend_c, 11, 8945
13, 58489, Control_c, 11, 7, 111
13, 58492, Pitch_bend_c, 11, 8568
13, 58495, Pitch_bend_c, 11, 8192
13, 58499, Control_c, 11, 7, 109
13, 58509, Control_c, 11, 7, 108
13, 58520, Control_c, 11, 7, 107
13, 58530, Control_c, 11, 7, 106
13, 58540, Control_c, 11, 7, 104
13, 58544, Pitch_bend_c, 11, 8192
13, 58547, Pitch_bend_c, 11, 8568
13, 58550, Pitch_bend_c, 11, 8945
13, 58550, Control_c, 11, 7, 103
13, 58553, Pitch_bend_c, 11, 9322
13, 58556, Pitch_bend_c, 11, 9698
13, 58559, Pitch_bend_c, 11, 10076
13, 58560, Control_c, 11, 7, 102
13, 58570, Control_c, 11, 7, 100
13, 58580, Control_c, 11, 7, 99
13, 58590, Control_c, 11, 7, 98
13, 58600, Control_c, 11, 7, 96
13, 58608, Pitch_bend_c, 11, 10076
13, 58610, Control_c, 11, 7, 95
13, 58611, Pitch_bend_c, 11, 9698
13, 58614, Pitch_bend_c, 11, 9322
13, 58617, Pitch_bend_c, 11, 8945
13, 58620, Pitch_bend_c, 11, 8568
13, 58621, Control_c, 11, 7, 94
13, 58623, Pitch_bend_c, 11, 8192
13, 58631, Control_c, 11, 7, 93
13, 58641, Control_c, 11, 7, 91
13, 58651, Control_c, 11, 7, 90
13, 58661, Control_c, 11, 7, 88
13, 58671, Control_c, 11, 7, 87
13, 58672, Pitch_bend_c, 11, 8192
13, 58675, Pitch_bend_c, 11, 8568
13, 58678, Pitch_bend_c, 11, 8945
13, 58681, Pitch_bend_c, 11, 9322
13, 58682, Control_c, 11, 7, 86
13, 58684, Pitch_bend_c, 11, 9698
13, 58687, Pitch_bend_c, 11, 10076
13, 58692, Control_c, 11, 7, 85
13, 58702, Control_c, 11, 7, 84
13, 58712, Control_c, 11, 7, 82
13, 58722, Control_c, 11, 7, 80
13, 58732, Control_c, 11, 7, 79
13, 58736, Pitch_bend_c, 11, 10076
13, 58739, Pitch_bend_c, 11, 9698
13, 58742, Pitch_bend_c, 11, 9322
13, 58742, Control_c, 11, 7, 78
13, 58745, Pitch_bend_c, 11, 8945
13, 58748, Pitch_bend_c, 11, 8568
13, 58751, Pitch_bend_c, 11, 8192
13, 58752, Control_c, 11, 7, 77
13, 58762, Control_c, 11, 7, 76
13, 58772, Control_c, 11, 7, 75
13, 58783, Control_c, 11, 7, 72
13, 58793, Control_c, 11, 7, 71
13, 58800, Pitch_bend_c, 11, 8192
13, 58803, Pitch_bend_c, 11, 8568
13, 58803, Control_c, 11, 7, 70
13, 58806, Pitch_bend_c, 11, 8945
13, 58809, Pitch_bend_c, 11, 9322
13, 58812, Pitch_bend_c, 11, 9698
13, 58813, Control_c, 11, 7, 69
13, 58815, Pitch_bend_c, 11, 10076
13, 58823, Control_c, 11, 7, 68
13, 58833, Control_c, 11, 7, 67
13, 58843, Control_c, 11, 7, 66
13, 58854, Control_c, 11, 7, 64
13, 58864, Pitch_bend_c, 11, 10076
13, 58864, Control_c, 11, 7, 62
13, 58867, Pitch_bend_c, 11, 9698
13, 58870, Pitch_bend_c, 11, 9322
13, 58873, Pitch_bend_c, 11, 8945
13, 58874, Control_c, 11, 7, 61
13, 58876, Pitch_bend_c, 11, 8568
13, 58879, Pitch_bend_c, 11, 8192
13, 58884, Control_c, 11, 7, 60
13, 58894, Control_c, 11, 7, 59
13, 58904, Control_c, 11, 7, 58
13, 58914, Control_c, 11, 7, 57
13, 58924, Control_c, 11, 7, 55
13, 58928, Pitch_bend_c, 11, 8192
13, 58931, Pitch_bend_c, 11, 8568
13, 58934, Pitch_bend_c, 11, 8945
13, 58934, Control_c, 11, 7, 53
13, 58937, Pitch_bend_c, 11, 9322
13, 58940, Pitch_bend_c, 11, 9698
13, 58943, Pitch_bend_c, 11, 10076
13, 58944, Control_c, 11, 7, 52
13, 58955, Control_c, 11, 7, 51
13, 58965, Control_c, 11, 7, 50
13, 58975, Control_c, 11, 7, 49
13, 58985, Control_c, 11, 7, 47
13, 58992, Pitch_bend_c, 11, 10076
13, 58995, Pitch_bend_c, 11, 9698
13, 58995, Control_c, 11, 7, 46
13, 58998, Pitch_bend_c, 11, 9322
13, 59001, Pitch_bend_c, 11, 8945
13, 59004, Pitch_bend_c, 11, 8568
13, 59005, Control_c, 11, 7, 44
13, 59007, Pitch_bend_c, 11, 8192
13, 59016, Control_c, 11, 7, 43
13, 59026, Control_c, 11, 7, 42
13, 59036, Control_c, 11, 7, 41
13, 59046, Control_c, 11, 7, 39
13, 59056, Pitch_bend_c, 11, 8192
13, 59056, Control_c, 11, 7, 38
13, 59059, Pitch_bend_c, 11, 8568
13, 59062, Pitch_bend_c, 11, 8945
13, 59065, Pitch_bend_c, 11, 9322
13, 59066, Control_c, 11, 7, 37
13, 59068, Pitch_bend_c, 11, 9698
13, 59071, Pitch_bend_c, 11, 10076
13, 59076, Control_c, 11, 7, 35
13, 59086, Control_c, 11, 7, 34
13, 59096, Control_c, 11, 7, 33
13, 59106, Control_c, 11, 7, 31
13, 59117, Control_c, 11, 7, 30
13, 59120, Pitch_bend_c, 11, 10076
13, 59123, Pitch_bend_c, 11, 9698
13, 59126, Pitch_bend_c, 11, 9322
13, 59127, Control_c, 11, 7, 29
13, 59129, Pitch_bend_c, 11, 8945
13, 59132, Pitch_bend_c, 11, 8568
13, 59135, Pitch_bend_c, 11, 8192
13, 59136, Note_on_c, 11, 50, 0
13, 59137, Control_c, 11, 7, 28
13, 59147, Control_c, 11, 7, 26
13, 59157, Control_c, 11, 7, 25
13, 59167, Control_c, 11, 7, 23
13, 59177, Control_c, 11, 7, 22
13, 59252, Control_c, 11, 7, 126
13, 63744, Pitch_bend_c, 11, 8192
13, 63744, End_track
14, 0, Start_track
14, 0, MIDI_port, 0
14, 0, Title_t, "Elec Guitr"
14, 0, Program_c, 12, 7
14, 0, Control_c, 12, 7, 90
14, 0, Control_c, 12, 10, 64
14, 0, Control_c, 12, 93, 2
14, 0, Control_c, 12, 91, 2
14, 4608, Note_on_c, 12, 41, 100
14, 4800, Note_on_c, 12, 53, 100
14, 4944, Note_on_c, 12, 48, 100
14, 5068, Note_on_c, 12, 41, 0
14, 5298, Note_on_c, 12, 48, 0
14, 5328, Note_on_c, 12, 46, 100
14, 5359, Note_on_c, 12, 53, 0
14, 5376, Note_on_c, 12, 46, 0
14, 5376, Note_on_c, 12, 48, 100
14, 5424, Note_on_c, 12, 51, 100
14, 5439, Note_on_c, 12, 48, 0
14, 5520, Note_on_c, 12, 48, 62
14, 5568, Note_on_c, 12, 56, 100
14, 5583, Note_on_c, 12, 48, 0
14, 5664, Note_on_c, 12, 48, 54
14, 5712, Note_on_c, 12, 56, 0
14, 5712, Note_on_c, 12, 56, 100
14, 5727, Note_on_c, 12, 48, 0
14, 5808, Note_on_c, 12, 60, 100
14, 5950, Note_on_c, 12, 60, 0
14, 5952, Note_on_c, 12, 60, 100
14, 6032, Note_on_c, 12, 51, 0
14, 6094, Note_on_c, 12, 60, 0
14, 6100, Note_on_c, 12, 56, 0
14, 6106, Note_on_c, 12, 53, 100
14, 6144, Note_on_c, 12, 55, 80
14, 6146, Note_on_c, 12, 53, 0
14, 6192, Note_on_c, 12, 59, 100
14, 6207, Note_on_c, 12, 55, 0
14, 6335, Note_on_c, 12, 59, 0
14, 6336, Note_on_c, 12, 59, 100
14, 6480, Note_on_c, 12, 53, 52
14, 6864, Note_on_c, 12, 48, 100
14, 6905, Note_on_c, 12, 59, 0
14, 6908, Note_on_c, 12, 53, 0
14, 6912, Note_on_c, 12, 48, 0
14, 6912, Note_on_c, 12, 50, 100
14, 6960, Note_on_c, 12, 59, 100
14, 6975, Note_on_c, 12, 50, 0
14, 7056, Note_on_c, 12, 53, 62
14, 7104, Note_on_c, 12, 62, 100
14, 7119, Note_on_c, 12, 53, 0
14, 7200, Note_on_c, 12, 53, 54
14, 7248, Note_on_c, 12, 62, 0
14, 7248, Note_on_c, 12, 62, 100
14, 7263, Note_on_c, 12, 53, 0
14, 7280, Note_on_c, 12, 59, 0
14, 7344, Note_on_c, 12, 59, 100
14, 7440, Note_on_c, 12, 50, 54
14, 7488, Note_on_c, 12, 53, 90
14, 7503, Note_on_c, 12, 50, 0
14, 7628, Note_on_c, 12, 62, 0
14, 7635, Note_on_c, 12, 53, 0
14, 7639, Note_on_c, 12, 59, 0
14, 7670, Note_on_c, 12, 51, 72
14, 7674, Note_on_c, 12, 55, 72
14, 7680, Note_on_c, 12, 58, 100
14, 8044, Note_on_c, 12, 51, 0
14, 8049, Note_on_c, 12, 55, 0
14, 8054, Note_on_c, 12, 58, 0
14, 8054, Note_on_c, 12, 50, 72
14, 8058, Note_on_c, 12, 53, 72
14, 8064, Note_on_c, 12, 59, 100
14, 8397, Note_on_c, 12, 59, 0
14, 8400, Note_on_c, 12, 59, 100
14, 8487, Note_on_c, 12, 53, 0
14, 8496, Note_on_c, 12, 53, 72
14, 8582, Note_on_c, 12, 59, 0
14, 8640, Note_on_c, 12, 59, 100
14, 8797, Note_on_c, 12, 53, 0
14, 8799, Note_on_c, 12, 59, 0
14, 8799, Note_on_c, 12, 50, 0
14, 8828, Note_on_c, 12, 46, 72
14, 8829, Note_on_c, 12, 51, 72
14, 8830, Note_on_c, 12, 55, 72
14, 8832, Note_on_c, 12, 58, 100
14, 9030, Note_on_c, 12, 58, 0
14, 9030, Note_on_c, 12, 55, 0
14, 9030, Note_on_c, 12, 46, 0
14, 9031, Note_on_c, 12, 51, 0
14, 9116, Note_on_c, 12, 46, 72
14, 9117, Note_on_c, 12, 51, 72
14, 9118, Note_on_c, 12, 55, 72
14, 9120, Note_on_c, 12, 58, 100
14, 9318, Note_on_c, 12, 58, 0
14, 9318, Note_on_c, 12, 55, 0
14, 9318, Note_on_c, 12, 46, 0
14, 9319, Note_on_c, 12, 51, 0
14, 9404, Note_on_c, 12, 46, 72
14, 9405, Note_on_c, 12, 50, 72
14, 9406, Note_on_c, 12, 53, 72
14, 9408, Note_on_c, 12, 58, 100
14, 10016, Note_on_c, 12, 58, 0
14, 10016, Note_on_c, 12, 53, 0
14, 10016, Note_on_c, 12, 46, 0
14, 10017, Note_on_c, 12, 50, 0
14, 11510, Note_on_c, 12, 43, 100
14, 11520, Note_on_c, 12, 55, 100
14, 11616, Note_on_c, 12, 58, 100
14, 11712, Note_on_c, 12, 62, 100
14, 11890, Note_on_c, 12, 43, 0
14, 11897, Note_on_c, 12, 41, 100
14, 11900, Note_on_c, 12, 55, 0
14, 11900, Note_on_c, 12, 58, 0
14, 11901, Note_on_c, 12, 62, 0
14, 11904, Note_on_c, 12, 53, 100
14, 12000, Note_on_c, 12, 58, 100
14, 12096, Note_on_c, 12, 62, 100
14, 12240, Note_on_c, 12, 39, 100
14, 12268, Note_on_c, 12, 41, 0
14, 12284, Note_on_c, 12, 53, 0
14, 12284, Note_on_c, 12, 58, 0
14, 12285, Note_on_c, 12, 62, 0
14, 12339, Note_on_c, 12, 55, 78
14, 12384, Note_on_c, 12, 58, 70
14, 12480, Note_on_c, 12, 63, 100
14, 12612, Note_on_c, 12, 58, 0
14, 12612, Note_on_c, 12, 55, 0
14, 12613, Note_on_c, 12, 63, 0
14, 12624, Note_on_c, 12, 55, 100
14, 12624, Note_on_c, 12, 58, 74
14, 12720, Note_on_c, 12, 63, 100
14, 12858, Note_on_c, 12, 58, 0
14, 12858, Note_on_c, 12, 55, 0
14, 12864, Note_on_c, 12, 58, 82
14, 12864, Note_on_c, 12, 55, 82
14, 12866, Note_on_c, 12, 63, 0
14, 12967, Note_on_c, 12, 39, 0
14, 13008, Note_on_c, 12, 38, 100
14, 13040, Note_on_c, 12, 58, 0
14, 13040, Note_on_c, 12, 55, 0
14, 13055, Note_on_c, 12, 39, 78
14, 13081, Note_on_c, 12, 38, 0
14, 13109, Note_on_c, 12, 58, 78
14, 13112, Note_on_c, 12, 55, 61
14, 13248, Note_on_c, 12, 63, 100
14, 13378, Note_on_c, 12, 39, 0
14, 13381, Note_on_c, 12, 63, 0
14, 13382, Note_on_c, 12, 58, 0
14, 13384, Note_on_c, 12, 55, 0
14, 13410, Note_on_c, 12, 48, 100
14, 13439, Note_on_c, 12, 41, 80
14, 13440, Note_on_c, 12, 57, 61
14, 13453, Note_on_c, 12, 48, 0
14, 13493, Note_on_c, 12, 60, 78
14, 13632, Note_on_c, 12, 65, 100
14, 13781, Note_on_c, 12, 41, 0
14, 13784, Note_on_c, 12, 65, 0
14, 13785, Note_on_c, 12, 60, 0
14, 13785, Note_on_c, 12, 57, 0
14, 13794, Note_on_c, 12, 53, 100
14, 13823, Note_on_c, 12, 50, 80
14, 13837, Note_on_c, 12, 53, 0
14, 13877, Note_on_c, 12, 53, 78
14, 14016, Note_on_c, 12, 58, 100
14, 14178, Note_on_c, 12, 62, 100
14, 14196, Note_on_c, 12, 50, 0
14, 14207, Note_on_c, 12, 50, 80
14, 14251, Note_on_c, 12, 53, 0
14, 14261, Note_on_c, 12, 55, 78
14, 14384, Note_on_c, 12, 58, 0
14, 14400, Note_on_c, 12, 58, 100
14, 14544, Note_on_c, 12, 38, 100
14, 14549, Note_on_c, 12, 50, 0
14, 14550, Note_on_c, 12, 62, 0
14, 14552, Note_on_c, 12, 58, 0
14, 14553, Note_on_c, 12, 55, 0
14, 14591, Note_on_c, 12, 39, 78
14, 14617, Note_on_c, 12, 38, 0
14, 14645, Note_on_c, 12, 58, 78
14, 14648, Note_on_c, 12, 55, 61
14, 14784, Note_on_c, 12, 63, 100
14, 14914, Note_on_c, 12, 39, 0
14, 14917, Note_on_c, 12, 63, 0
14, 14918, Note_on_c, 12, 58, 0
14, 14920, Note_on_c, 12, 55, 0
14, 14946, Note_on_c, 12, 48, 100
14, 14975, Note_on_c, 12, 41, 80
14, 14976, Note_on_c, 12, 57, 61
14, 14989, Note_on_c, 12, 48, 0
14, 15029, Note_on_c, 12, 60, 78
14, 15168, Note_on_c, 12, 65, 100
14, 15314, Note_on_c, 12, 38, 100
14, 15317, Note_on_c, 12, 41, 0
14, 15320, Note_on_c, 12, 65, 0
14, 15321, Note_on_c, 12, 57, 0
14, 15321, Note_on_c, 12, 60, 0
14, 15362, Note_on_c, 12, 39, 78
14, 15388, Note_on_c, 12, 38, 0
14, 15416, Note_on_c, 12, 58, 78
14, 15418, Note_on_c, 12, 55, 61
14, 15554, Note_on_c, 12, 63, 100
14, 15684, Note_on_c, 12, 39, 0
14, 15688, Note_on_c, 12, 58, 0
14, 15688, Note_on_c, 12, 63, 0
14, 15691, Note_on_c, 12, 55, 0
14, 15716, Note_on_c, 12, 57, 100
14, 15744, Note_on_c, 12, 58, 100
14, 15760, Note_on_c, 12, 57, 0
14, 16886, Note_on_c, 12, 58, 0
14, 52016, Control_c, 12, 10, 82
14, 52016, End_track
15, 0, Start_track
15, 0, MIDI_port, 0
15, 0, Title_t, "Sysex SC55"
15, 0, End_track
0, 0, End_of_file
