0, 0, Header, 1, 12, 48
1, 0, Start_track
1, 0, Tempo, 400000
1, 0, Time_signature, 3, 2, 24, 8
1, 0, Key_signature, 0, "major"
1, 30384, Tempo, 444444
1, 30528, Tempo, 458015
1, 30672, Tempo, 512820
1, 30816, Tempo, 645161
1, 30816, End_track
2, 0, Start_track
2, 0, Title_t, "Track 1\000"
2, 0, System_exclusive, 10, 65, 16, 66, 18, 64, 0, 127, 0, 65, 247
2, 0, Program_c, 0, 26
2, 0, Control_c, 0, 7, 97
2, 0, Control_c, 0, 10, 24
2, 0, Control_c, 0, 91, 127
2, 0, Control_c, 0, 93, 0
2, 0, Note_on_c, 0, 50, 84
2, 3, Note_on_c, 0, 62, 84
2, 4, Control_c, 0, 1, 68
2, 6, Note_on_c, 0, 65, 84
2, 12, Note_on_c, 0, 69, 84
2, 48, Note_off_c, 0, 65, 0
2, 48, Note_on_c, 0, 65, 71
2, 72, Note_off_c, 0, 69, 0
2, 72, Note_off_c, 0, 65, 0
2, 72, Note_on_c, 0, 65, 79
2, 72, Note_on_c, 0, 69, 79
2, 120, Note_off_c, 0, 69, 0
2, 120, Note_on_c, 0, 69, 89
2, 144, Note_off_c, 0, 50, 0
2, 144, Note_off_c, 0, 65, 0
2, 144, Note_on_c, 0, 50, 127
2, 144, Note_on_c, 0, 65, 127
2, 168, Note_off_c, 0, 65, 0
2, 168, Note_on_c, 0, 64, 100
2, 180, Note_off_c, 0, 62, 0
2, 192, Note_off_c, 0, 64, 0
2, 192, Note_on_c, 0, 62, 100
2, 240, Note_off_c, 0, 62, 0
2, 240, Note_on_c, 0, 61, 100
2, 288, Note_off_c, 0, 69, 0
2, 288, Note_off_c, 0, 50, 0
2, 288, Note_off_c, 0, 61, 0
2, 288, Note_on_c, 0, 44, 100
2, 290, Note_on_c, 0, 63, 100
2, 292, Note_on_c, 0, 60, 100
2, 296, Note_on_c, 0, 68, 100
2, 336, Note_off_c, 0, 68, 0
2, 336, Note_on_c, 0, 68, 100
2, 360, Note_off_c, 0, 63, 0
2, 360, Note_on_c, 0, 63, 100
2, 408, Note_off_c, 0, 68, 0
2, 408, Note_on_c, 0, 68, 100
2, 432, Note_off_c, 0, 44, 0
2, 432, Note_off_c, 0, 60, 0
2, 432, Note_off_c, 0, 63, 0
2, 432, Note_off_c, 0, 68, 0
2, 432, Note_on_c, 0, 44, 127
2, 432, Note_on_c, 0, 61, 127
2, 432, Note_on_c, 0, 63, 127
2, 432, Note_on_c, 0, 68, 127
2, 456, Note_off_c, 0, 61, 0
2, 456, Note_on_c, 0, 60, 100
2, 480, Note_off_c, 0, 60, 0
2, 480, Note_on_c, 0, 56, 100
2, 528, Note_off_c, 0, 56, 0
2, 528, Note_on_c, 0, 55, 100
2, 576, Note_off_c, 0, 44, 0
2, 576, Note_off_c, 0, 63, 0
2, 576, Note_off_c, 0, 68, 0
2, 576, Note_off_c, 0, 55, 0
2, 576, Note_on_c, 0, 43, 100
2, 576, Note_on_c, 0, 54, 100
2, 576, Note_on_c, 0, 62, 100
2, 576, Note_on_c, 0, 66, 100
2, 600, Note_off_c, 0, 43, 0
2, 600, Note_on_c, 0, 45, 100
2, 648, Note_off_c, 0, 54, 0
2, 648, Note_on_c, 0, 54, 100
2, 696, Note_on_c, 0, 50, 100
2, 720, Note_off_c, 0, 62, 0
2, 720, Note_off_c, 0, 66, 0
2, 720, Note_off_c, 0, 45, 0
2, 720, Note_on_c, 0, 43, 100
2, 720, Note_on_c, 0, 62, 100
2, 720, Note_on_c, 0, 66, 100
2, 744, Note_off_c, 0, 43, 0
2, 744, Note_on_c, 0, 45, 100
2, 768, Note_off_c, 0, 50, 0
2, 792, Note_off_c, 0, 54, 0
2, 792, Note_on_c, 0, 54, 100
2, 840, Note_on_c, 0, 50, 100
2, 864, Note_off_c, 0, 62, 0
2, 864, Note_off_c, 0, 66, 0
2, 864, Note_off_c, 0, 45, 0
2, 864, Note_on_c, 0, 43, 100
2, 864, Note_on_c, 0, 62, 100
2, 864, Note_on_c, 0, 66, 100
2, 888, Note_off_c, 0, 43, 0
2, 888, Note_on_c, 0, 45, 100
2, 912, Note_off_c, 0, 50, 0
2, 936, Note_off_c, 0, 54, 0
2, 936, Note_on_c, 0, 54, 100
2, 984, Note_on_c, 0, 50, 100
2, 1008, Note_off_c, 0, 62, 0
2, 1008, Note_off_c, 0, 66, 0
2, 1008, Note_off_c, 0, 45, 0
2, 1008, Note_off_c, 0, 54, 0
2, 1008, Note_on_c, 0, 43, 100
2, 1008, Note_on_c, 0, 53, 100
2, 1008, Note_on_c, 0, 61, 100
2, 1008, Note_on_c, 0, 65, 100
2, 1032, Note_off_c, 0, 43, 0
2, 1032, Note_on_c, 0, 44, 100
2, 1056, Note_off_c, 0, 50, 0
2, 1080, Note_off_c, 0, 53, 0
2, 1080, Note_on_c, 0, 53, 100
2, 1128, Note_on_c, 0, 49, 100
2, 1152, Note_off_c, 0, 61, 0
2, 1152, Note_off_c, 0, 65, 0
2, 1152, Note_off_c, 0, 44, 0
2, 1152, Note_off_c, 0, 53, 0
2, 1152, Note_off_c, 0, 49, 0
2, 1152, Note_on_c, 0, 55, 100
2, 1152, Note_on_c, 0, 59, 100
2, 1152, Note_on_c, 0, 62, 100
2, 1152, Note_on_c, 0, 65, 100
2, 1152, Note_on_c, 0, 71, 100
2, 1152, Note_on_c, 0, 74, 100
2, 1155, Control_c, 0, 10, 2
2, 1197, Control_c, 0, 10, 29
2, 1224, Note_off_c, 0, 74, 0
2, 1224, Note_on_c, 0, 74, 100
2, 1253, Control_c, 0, 10, 52
2, 1272, Note_on_c, 0, 77, 100
2, 1296, Note_on_c, 0, 83, 100
2, 1297, Control_c, 0, 10, 79
2, 1339, Control_c, 0, 10, 103
2, 1340, Control_c, 0, 10, 103
2, 1372, Control_c, 0, 10, 113
2, 1373, Control_c, 0, 10, 113
2, 1416, Control_c, 0, 10, 127
2, 1440, Note_off_c, 0, 55, 0
2, 1440, Note_off_c, 0, 62, 0
2, 1440, Note_off_c, 0, 65, 0
2, 1440, Note_off_c, 0, 71, 0
2, 1440, Note_off_c, 0, 74, 0
2, 1440, Note_on_c, 0, 55, 100
2, 1440, Note_on_c, 0, 62, 100
2, 1440, Note_on_c, 0, 64, 100
2, 1440, Note_on_c, 0, 71, 100
2, 1440, Note_on_c, 0, 74, 100
2, 1491, Control_c, 0, 10, 89
2, 1492, Control_c, 0, 10, 89
2, 1512, Note_on_c, 0, 74, 100
2, 1513, Control_c, 0, 10, 47
2, 1551, Control_c, 0, 10, 18
2, 1560, Note_on_c, 0, 76, 100
2, 1584, Note_off_c, 0, 77, 0
2, 1584, Note_off_c, 0, 83, 0
2, 1584, Note_on_c, 0, 83, 100
2, 1699, Control_c, 0, 10, 2
2, 1728, Note_off_c, 0, 59, 0
2, 1728, Note_off_c, 0, 55, 0
2, 1728, Note_off_c, 0, 62, 0
2, 1728, Note_off_c, 0, 64, 0
2, 1728, Note_off_c, 0, 71, 0
2, 1728, Note_off_c, 0, 74, 0
2, 1728, Note_off_c, 0, 74, 0
2, 1728, Note_off_c, 0, 76, 0
2, 1728, Note_off_c, 0, 83, 0
2, 1728, Note_on_c, 0, 55, 100
2, 1728, Note_on_c, 0, 63, 100
2, 1728, Note_on_c, 0, 67, 100
2, 1728, Note_on_c, 0, 71, 100
2, 2016, Note_off_c, 0, 55, 0
2, 2016, Note_off_c, 0, 63, 0
2, 2016, Note_off_c, 0, 67, 0
2, 2016, Note_off_c, 0, 71, 0
2, 2016, Note_on_c, 0, 55, 100
2, 2016, Note_on_c, 0, 62, 100
2, 2016, Note_on_c, 0, 67, 100
2, 2016, Note_on_c, 0, 71, 100
2, 2304, Note_off_c, 0, 55, 0
2, 2304, Note_off_c, 0, 62, 0
2, 2304, Note_off_c, 0, 67, 0
2, 2304, Note_off_c, 0, 71, 0
2, 2304, Note_on_c, 0, 55, 100
2, 2304, Note_on_c, 0, 59, 100
2, 2304, Note_on_c, 0, 62, 100
2, 2304, Note_on_c, 0, 65, 100
2, 2304, Note_on_c, 0, 71, 100
2, 2304, Note_on_c, 0, 74, 100
2, 2308, Control_c, 0, 10, 121
2, 2323, Control_c, 0, 10, 89
2, 2376, Note_off_c, 0, 74, 0
2, 2376, Note_on_c, 0, 74, 100
2, 2386, Control_c, 0, 10, 44
2, 2412, Note_on_c, 0, 77, 100
2, 2448, Note_on_c, 0, 83, 100
2, 2484, Control_c, 0, 10, 31
2, 2554, Control_c, 0, 10, 10
2, 2592, Note_off_c, 0, 55, 0
2, 2592, Note_off_c, 0, 62, 0
2, 2592, Note_off_c, 0, 65, 0
2, 2592, Note_off_c, 0, 71, 0
2, 2592, Note_off_c, 0, 74, 0
2, 2592, Note_on_c, 0, 55, 100
2, 2592, Note_on_c, 0, 62, 100
2, 2592, Note_on_c, 0, 64, 100
2, 2592, Note_on_c, 0, 71, 100
2, 2592, Note_on_c, 0, 74, 100
2, 2632, Control_c, 0, 10, 26
2, 2664, Note_on_c, 0, 74, 100
2, 2676, Control_c, 0, 10, 39
2, 2712, Note_on_c, 0, 76, 100
2, 2736, Note_off_c, 0, 77, 0
2, 2736, Note_off_c, 0, 83, 0
2, 2736, Note_on_c, 0, 83, 100
2, 2738, Control_c, 0, 10, 95
2, 2816, Control_c, 0, 10, 108
2, 2817, Control_c, 0, 10, 108
2, 2880, Note_off_c, 0, 59, 0
2, 2880, Note_off_c, 0, 55, 0
2, 2880, Note_off_c, 0, 62, 0
2, 2880, Note_off_c, 0, 64, 0
2, 2880, Note_off_c, 0, 71, 0
2, 2880, Note_off_c, 0, 74, 0
2, 2880, Note_off_c, 0, 74, 0
2, 2880, Note_off_c, 0, 76, 0
2, 2880, Note_off_c, 0, 83, 0
2, 2880, Control_c, 0, 10, 124
2, 2880, Note_on_c, 0, 55, 100
2, 2880, Note_on_c, 0, 63, 100
2, 2880, Note_on_c, 0, 67, 100
2, 2880, Note_on_c, 0, 71, 100
2, 3168, Note_off_c, 0, 55, 0
2, 3168, Note_off_c, 0, 63, 0
2, 3168, Note_off_c, 0, 67, 0
2, 3168, Note_off_c, 0, 71, 0
2, 3168, Note_on_c, 0, 55, 100
2, 3168, Note_on_c, 0, 62, 100
2, 3168, Note_on_c, 0, 67, 100
2, 3168, Note_on_c, 0, 71, 100
2, 3456, Note_off_c, 0, 55, 0
2, 3456, Note_off_c, 0, 62, 0
2, 3456, Note_off_c, 0, 67, 0
2, 3456, Note_off_c, 0, 71, 0
2, 5760, Note_on_c, 0, 55, 100
2, 5760, Note_on_c, 0, 59, 100
2, 5760, Note_on_c, 0, 62, 100
2, 5760, Note_on_c, 0, 65, 100
2, 5760, Note_on_c, 0, 71, 100
2, 5760, Note_on_c, 0, 74, 100
2, 5763, Control_c, 0, 10, 2
2, 5805, Control_c, 0, 10, 29
2, 5832, Note_off_c, 0, 74, 0
2, 5832, Note_on_c, 0, 74, 100
2, 5861, Control_c, 0, 10, 52
2, 5880, Note_on_c, 0, 77, 100
2, 5904, Note_on_c, 0, 83, 100
2, 5905, Control_c, 0, 10, 79
2, 5947, Control_c, 0, 10, 103
2, 5948, Control_c, 0, 10, 103
2, 5980, Control_c, 0, 10, 113
2, 5981, Control_c, 0, 10, 113
2, 6024, Control_c, 0, 10, 127
2, 6048, Note_off_c, 0, 55, 0
2, 6048, Note_off_c, 0, 62, 0
2, 6048, Note_off_c, 0, 65, 0
2, 6048, Note_off_c, 0, 71, 0
2, 6048, Note_off_c, 0, 74, 0
2, 6048, Note_on_c, 0, 55, 100
2, 6048, Note_on_c, 0, 62, 100
2, 6048, Note_on_c, 0, 64, 100
2, 6048, Note_on_c, 0, 71, 100
2, 6048, Note_on_c, 0, 74, 100
2, 6099, Control_c, 0, 10, 89
2, 6100, Control_c, 0, 10, 89
2, 6120, Note_on_c, 0, 74, 100
2, 6121, Control_c, 0, 10, 47
2, 6159, Control_c, 0, 10, 18
2, 6168, Note_on_c, 0, 76, 100
2, 6192, Note_off_c, 0, 77, 0
2, 6192, Note_off_c, 0, 83, 0
2, 6192, Note_on_c, 0, 83, 100
2, 6307, Control_c, 0, 10, 2
2, 6336, Note_off_c, 0, 59, 0
2, 6336, Note_off_c, 0, 55, 0
2, 6336, Note_off_c, 0, 62, 0
2, 6336, Note_off_c, 0, 64, 0
2, 6336, Note_off_c, 0, 71, 0
2, 6336, Note_off_c, 0, 74, 0
2, 6336, Note_off_c, 0, 74, 0
2, 6336, Note_off_c, 0, 76, 0
2, 6336, Note_off_c, 0, 83, 0
2, 6336, Note_on_c, 0, 55, 100
2, 6336, Note_on_c, 0, 63, 100
2, 6336, Note_on_c, 0, 67, 100
2, 6336, Note_on_c, 0, 71, 100
2, 6624, Note_off_c, 0, 55, 0
2, 6624, Note_off_c, 0, 63, 0
2, 6624, Note_off_c, 0, 67, 0
2, 6624, Note_off_c, 0, 71, 0
2, 6624, Note_on_c, 0, 55, 100
2, 6624, Note_on_c, 0, 62, 100
2, 6624, Note_on_c, 0, 67, 100
2, 6624, Note_on_c, 0, 71, 100
2, 6912, Note_off_c, 0, 55, 0
2, 6912, Note_off_c, 0, 62, 0
2, 6912, Note_off_c, 0, 67, 0
2, 6912, Note_off_c, 0, 71, 0
2, 6912, Note_on_c, 0, 71, 84
2, 6914, Note_on_c, 0, 72, 71
2, 6916, Note_on_c, 0, 74, 71
2, 6922, Note_on_c, 0, 77, 71
2, 7200, Note_off_c, 0, 71, 0
2, 7200, Note_off_c, 0, 72, 0
2, 7200, Note_off_c, 0, 74, 0
2, 7200, Note_off_c, 0, 77, 0
2, 7202, Note_on_c, 0, 67, 52
2, 7202, Note_on_c, 0, 72, 52
2, 7202, Note_on_c, 0, 76, 52
2, 7486, Note_off_c, 0, 76, 0
2, 7488, Note_off_c, 0, 67, 0
2, 7488, Note_off_c, 0, 72, 0
2, 7488, Note_on_c, 0, 67, 52
2, 7492, Note_on_c, 0, 72, 52
2, 7492, Note_on_c, 0, 75, 52
2, 7768, Note_off_c, 0, 67, 0
2, 7770, Note_off_c, 0, 75, 0
2, 7774, Note_off_c, 0, 72, 0
2, 7778, Note_on_c, 0, 67, 50
2, 7778, Note_on_c, 0, 71, 50
2, 7778, Note_on_c, 0, 74, 50
2, 8064, Note_off_c, 0, 67, 0
2, 8064, Note_off_c, 0, 71, 0
2, 8064, Note_off_c, 0, 74, 0
2, 8064, Note_on_c, 0, 71, 71
2, 8066, Note_on_c, 0, 72, 71
2, 8068, Note_on_c, 0, 74, 71
2, 8074, Note_on_c, 0, 77, 82
2, 8352, Note_off_c, 0, 71, 0
2, 8352, Note_off_c, 0, 72, 0
2, 8352, Note_off_c, 0, 74, 0
2, 8352, Note_off_c, 0, 77, 0
2, 8354, Note_on_c, 0, 67, 79
2, 8354, Note_on_c, 0, 72, 79
2, 8354, Note_on_c, 0, 76, 79
2, 8638, Note_off_c, 0, 76, 0
2, 8640, Note_off_c, 0, 67, 0
2, 8640, Note_off_c, 0, 72, 0
2, 8640, Note_on_c, 0, 67, 100
2, 8644, Note_on_c, 0, 72, 100
2, 8644, Note_on_c, 0, 75, 100
2, 8920, Note_off_c, 0, 67, 0
2, 8922, Note_off_c, 0, 75, 0
2, 8926, Note_off_c, 0, 72, 0
2, 8930, Note_on_c, 0, 67, 100
2, 8930, Note_on_c, 0, 71, 100
2, 8930, Note_on_c, 0, 74, 100
2, 9216, Note_off_c, 0, 67, 0
2, 9216, Note_off_c, 0, 71, 0
2, 9216, Note_off_c, 0, 74, 0
2, 9216, Note_on_c, 0, 55, 100
2, 9216, Note_on_c, 0, 59, 100
2, 9216, Note_on_c, 0, 62, 100
2, 9216, Note_on_c, 0, 65, 100
2, 9216, Note_on_c, 0, 71, 100
2, 9216, Note_on_c, 0, 74, 100
2, 9220, Control_c, 0, 10, 121
2, 9235, Control_c, 0, 10, 89
2, 9298, Control_c, 0, 10, 44
2, 9360, Note_on_c, 0, 84, 126
2, 9384, Note_on_c, 0, 83, 127
2, 9396, Control_c, 0, 10, 31
2, 9408, Note_on_c, 0, 79, 127
2, 9456, Note_on_c, 0, 77, 127
2, 9466, Control_c, 0, 10, 10
2, 9480, Note_off_c, 0, 79, 0
2, 9492, Note_off_c, 0, 83, 0
2, 9504, Note_off_c, 0, 55, 0
2, 9504, Note_off_c, 0, 62, 0
2, 9504, Note_off_c, 0, 65, 0
2, 9504, Note_off_c, 0, 71, 0
2, 9504, Note_off_c, 0, 74, 0
2, 9504, Note_on_c, 0, 55, 100
2, 9504, Note_on_c, 0, 62, 100
2, 9504, Note_on_c, 0, 64, 100
2, 9504, Note_on_c, 0, 71, 100
2, 9504, Note_on_c, 0, 74, 100
2, 9504, Note_on_c, 0, 76, 100
2, 9528, Note_off_c, 0, 77, 0
2, 9544, Control_c, 0, 10, 26
2, 9588, Control_c, 0, 10, 39
2, 9648, Note_off_c, 0, 84, 0
2, 9648, Note_on_c, 0, 84, 127
2, 9650, Control_c, 0, 10, 95
2, 9672, Note_on_c, 0, 83, 127
2, 9696, Note_on_c, 0, 79, 127
2, 9728, Control_c, 0, 10, 108
2, 9729, Control_c, 0, 10, 108
2, 9744, Note_off_c, 0, 76, 0
2, 9744, Note_off_c, 0, 83, 0
2, 9744, Note_on_c, 0, 76, 127
2, 9792, Note_off_c, 0, 59, 0
2, 9792, Note_off_c, 0, 55, 0
2, 9792, Note_off_c, 0, 62, 0
2, 9792, Note_off_c, 0, 64, 0
2, 9792, Note_off_c, 0, 71, 0
2, 9792, Note_off_c, 0, 74, 0
2, 9792, Note_off_c, 0, 79, 0
2, 9792, Control_c, 0, 10, 124
2, 9792, Note_on_c, 0, 55, 100
2, 9792, Note_on_c, 0, 67, 100
2, 9792, Note_on_c, 0, 71, 100
2, 9792, Note_on_c, 0, 75, 100
2, 9936, Note_off_c, 0, 84, 0
2, 9936, Note_off_c, 0, 76, 0
2, 9936, Note_on_c, 0, 60, 100
2, 9960, Note_on_c, 0, 59, 100
2, 9984, Note_off_c, 0, 55, 0
2, 9984, Note_off_c, 0, 60, 0
2, 9984, Note_on_c, 0, 55, 100
2, 10008, Note_off_c, 0, 59, 0
2, 10032, Note_on_c, 0, 51, 100
2, 10080, Note_off_c, 0, 67, 0
2, 10080, Note_off_c, 0, 71, 0
2, 10080, Note_off_c, 0, 75, 0
2, 10080, Note_off_c, 0, 55, 0
2, 10080, Note_off_c, 0, 51, 0
2, 10080, Note_on_c, 0, 50, 100
2, 10080, Note_on_c, 0, 55, 100
2, 10080, Note_on_c, 0, 62, 100
2, 10080, Note_on_c, 0, 67, 100
2, 10080, Note_on_c, 0, 71, 100
2, 10368, Note_off_c, 0, 50, 0
2, 10368, Note_off_c, 0, 55, 0
2, 10368, Note_off_c, 0, 62, 0
2, 10368, Note_off_c, 0, 67, 0
2, 10368, Note_off_c, 0, 71, 0
2, 10368, Note_on_c, 0, 57, 100
2, 10440, Note_off_c, 0, 57, 0
2, 10440, Note_on_c, 0, 55, 100
2, 10512, Note_off_c, 0, 55, 0
2, 10512, Note_on_c, 0, 53, 100
2, 10584, Note_off_c, 0, 53, 0
2, 10584, Note_on_c, 0, 50, 100
2, 10656, Note_off_c, 0, 50, 0
2, 10656, Note_on_c, 0, 52, 100
2, 10728, Note_off_c, 0, 52, 0
2, 10728, Note_on_c, 0, 50, 100
2, 10800, Note_off_c, 0, 50, 0
2, 10800, Note_on_c, 0, 48, 100
2, 10872, Note_off_c, 0, 48, 0
2, 10872, Note_on_c, 0, 45, 100
2, 10944, Note_off_c, 0, 45, 0
2, 10944, Note_on_c, 0, 43, 100
2, 10968, Note_off_c, 0, 43, 0
2, 10968, Note_on_c, 0, 45, 100
2, 10992, Note_off_c, 0, 45, 0
2, 10992, Note_on_c, 0, 47, 100
2, 11016, Note_off_c, 0, 47, 0
2, 11016, Note_on_c, 0, 48, 100
2, 11040, Note_off_c, 0, 48, 0
2, 11040, Note_on_c, 0, 47, 100
2, 11064, Note_off_c, 0, 47, 0
2, 11064, Note_on_c, 0, 45, 100
2, 11088, Note_off_c, 0, 45, 0
2, 11088, Note_on_c, 0, 43, 100
2, 11112, Note_off_c, 0, 43, 0
2, 11112, Note_on_c, 0, 45, 100
2, 11136, Note_off_c, 0, 45, 0
2, 11136, Note_on_c, 0, 47, 100
2, 11160, Note_off_c, 0, 47, 0
2, 11160, Note_on_c, 0, 48, 100
2, 11184, Note_off_c, 0, 48, 0
2, 11184, Note_on_c, 0, 47, 100
2, 11208, Note_off_c, 0, 47, 0
2, 11208, Note_on_c, 0, 45, 100
2, 11232, Note_off_c, 0, 45, 0
2, 11232, Note_on_c, 0, 43, 100
2, 11520, Note_off_c, 0, 43, 0
2, 11520, Note_on_c, 0, 57, 100
2, 11592, Note_off_c, 0, 57, 0
2, 11592, Note_on_c, 0, 55, 100
2, 11664, Note_off_c, 0, 55, 0
2, 11664, Note_on_c, 0, 53, 100
2, 11736, Note_off_c, 0, 53, 0
2, 11736, Note_on_c, 0, 50, 100
2, 11808, Note_off_c, 0, 50, 0
2, 11808, Note_on_c, 0, 52, 100
2, 11880, Note_off_c, 0, 52, 0
2, 11880, Note_on_c, 0, 50, 100
2, 11952, Note_off_c, 0, 50, 0
2, 11952, Note_on_c, 0, 48, 100
2, 12024, Note_off_c, 0, 48, 0
2, 12024, Note_on_c, 0, 45, 100
2, 12096, Note_off_c, 0, 45, 0
2, 12096, Note_on_c, 0, 43, 100
2, 12120, Note_off_c, 0, 43, 0
2, 12120, Note_on_c, 0, 45, 100
2, 12144, Note_off_c, 0, 45, 0
2, 12144, Note_on_c, 0, 47, 100
2, 12168, Note_off_c, 0, 47, 0
2, 12168, Note_on_c, 0, 48, 100
2, 12192, Note_off_c, 0, 48, 0
2, 12192, Note_on_c, 0, 47, 100
2, 12216, Note_off_c, 0, 47, 0
2, 12216, Note_on_c, 0, 45, 100
2, 12240, Note_off_c, 0, 45, 0
2, 12240, Note_on_c, 0, 43, 100
2, 12264, Note_off_c, 0, 43, 0
2, 12264, Note_on_c, 0, 45, 100
2, 12288, Note_off_c, 0, 45, 0
2, 12288, Note_on_c, 0, 47, 100
2, 12312, Note_off_c, 0, 47, 0
2, 12312, Note_on_c, 0, 48, 100
2, 12336, Note_off_c, 0, 48, 0
2, 12336, Note_on_c, 0, 47, 100
2, 12360, Note_off_c, 0, 47, 0
2, 12360, Note_on_c, 0, 45, 100
2, 12384, Note_off_c, 0, 45, 0
2, 12384, Note_on_c, 0, 43, 100
2, 12672, Note_off_c, 0, 43, 0
2, 12672, Note_on_c, 0, 57, 100
2, 12744, Note_off_c, 0, 57, 0
2, 12744, Note_on_c, 0, 55, 100
2, 12816, Note_off_c, 0, 55, 0
2, 12816, Note_on_c, 0, 53, 100
2, 12888, Note_off_c, 0, 53, 0
2, 12888, Note_on_c, 0, 50, 100
2, 12960, Note_off_c, 0, 50, 0
2, 12960, Note_on_c, 0, 52, 100
2, 13032, Note_off_c, 0, 52, 0
2, 13032, Note_on_c, 0, 50, 100
2, 13104, Note_off_c, 0, 50, 0
2, 13104, Note_on_c, 0, 48, 100
2, 13176, Note_off_c, 0, 48, 0
2, 13176, Note_on_c, 0, 45, 100
2, 13248, Note_off_c, 0, 45, 0
2, 13248, Note_on_c, 0, 55, 100
2, 13680, Note_off_c, 0, 55, 0
2, 14163, Control_c, 0, 1, 89
2, 14256, Note_on_c, 0, 60, 100
2, 14280, Note_on_c, 0, 62, 100
2, 14304, Note_on_c, 0, 67, 100
2, 14328, Note_off_c, 0, 60, 0
2, 14352, Note_off_c, 0, 62, 0
2, 14352, Note_off_c, 0, 67, 0
2, 14352, Note_on_c, 0, 69, 100
2, 14400, Note_off_c, 0, 69, 0
2, 14400, Note_on_c, 0, 69, 100
2, 14424, Note_on_c, 0, 71, 100
2, 14448, Note_on_c, 0, 74, 100
2, 14496, Note_off_c, 0, 69, 0
2, 14520, Note_off_c, 0, 71, 0
2, 14544, Note_off_c, 0, 74, 0
2, 14544, Note_on_c, 0, 76, 100
2, 14568, Note_on_c, 0, 74, 100
2, 14592, Note_on_c, 0, 71, 100
2, 14688, Note_off_c, 0, 74, 0
2, 14712, Note_off_c, 0, 76, 0
2, 14832, Note_off_c, 0, 71, 0
2, 14832, Note_on_c, 0, 76, 100
2, 14856, Note_on_c, 0, 74, 100
2, 14880, Note_on_c, 0, 71, 100
2, 14976, Note_off_c, 0, 76, 0
2, 14976, Note_off_c, 0, 74, 0
2, 15120, Note_off_c, 0, 71, 0
2, 15120, Note_on_c, 0, 72, 100
2, 15144, Note_on_c, 0, 67, 100
2, 15168, Note_on_c, 0, 63, 100
2, 15216, Note_off_c, 0, 72, 0
2, 15216, Note_off_c, 0, 67, 0
2, 15264, Note_off_c, 0, 63, 0
2, 15264, Note_on_c, 0, 63, 100
2, 15264, Note_on_c, 0, 67, 100
2, 15264, Note_on_c, 0, 72, 100
2, 15408, Note_off_c, 0, 72, 0
2, 15408, Note_on_c, 0, 71, 100
2, 15552, Note_off_c, 0, 63, 0
2, 15552, Note_off_c, 0, 67, 0
2, 15552, Note_off_c, 0, 71, 0
2, 21600, Note_on_c, 0, 55, 100
2, 21600, Note_on_c, 0, 59, 100
2, 21600, Note_on_c, 0, 62, 100
2, 21600, Note_on_c, 0, 65, 100
2, 21600, Note_on_c, 0, 71, 100
2, 21600, Note_on_c, 0, 74, 100
2, 21603, Control_c, 0, 10, 2
2, 21645, Control_c, 0, 10, 29
2, 21672, Note_off_c, 0, 74, 0
2, 21672, Note_on_c, 0, 74, 100
2, 21701, Control_c, 0, 10, 52
2, 21720, Note_on_c, 0, 77, 100
2, 21744, Note_on_c, 0, 83, 100
2, 21745, Control_c, 0, 10, 79
2, 21787, Control_c, 0, 10, 103
2, 21788, Control_c, 0, 10, 103
2, 21820, Control_c, 0, 10, 113
2, 21821, Control_c, 0, 10, 113
2, 21864, Control_c, 0, 10, 127
2, 21888, Note_off_c, 0, 55, 0
2, 21888, Note_off_c, 0, 62, 0
2, 21888, Note_off_c, 0, 65, 0
2, 21888, Note_off_c, 0, 71, 0
2, 21888, Note_off_c, 0, 74, 0
2, 21888, Note_on_c, 0, 55, 100
2, 21888, Note_on_c, 0, 62, 100
2, 21888, Note_on_c, 0, 64, 100
2, 21888, Note_on_c, 0, 71, 100
2, 21888, Note_on_c, 0, 74, 100
2, 21939, Control_c, 0, 10, 89
2, 21940, Control_c, 0, 10, 89
2, 21960, Note_on_c, 0, 74, 100
2, 21961, Control_c, 0, 10, 47
2, 21999, Control_c, 0, 10, 18
2, 22008, Note_on_c, 0, 76, 100
2, 22032, Note_off_c, 0, 77, 0
2, 22032, Note_off_c, 0, 83, 0
2, 22032, Note_on_c, 0, 83, 100
2, 22147, Control_c, 0, 10, 2
2, 22176, Note_off_c, 0, 59, 0
2, 22176, Note_off_c, 0, 55, 0
2, 22176, Note_off_c, 0, 62, 0
2, 22176, Note_off_c, 0, 64, 0
2, 22176, Note_off_c, 0, 71, 0
2, 22176, Note_off_c, 0, 74, 0
2, 22176, Note_off_c, 0, 74, 0
2, 22176, Note_off_c, 0, 76, 0
2, 22176, Note_off_c, 0, 83, 0
2, 22176, Note_on_c, 0, 55, 100
2, 22176, Note_on_c, 0, 63, 100
2, 22176, Note_on_c, 0, 67, 100
2, 22176, Note_on_c, 0, 71, 100
2, 22464, Note_off_c, 0, 55, 0
2, 22464, Note_off_c, 0, 63, 0
2, 22464, Note_off_c, 0, 67, 0
2, 22464, Note_off_c, 0, 71, 0
2, 22464, Note_on_c, 0, 55, 100
2, 22464, Note_on_c, 0, 62, 100
2, 22464, Note_on_c, 0, 67, 100
2, 22464, Note_on_c, 0, 71, 100
2, 22752, Note_off_c, 0, 55, 0
2, 22752, Note_off_c, 0, 62, 0
2, 22752, Note_off_c, 0, 67, 0
2, 22752, Note_off_c, 0, 71, 0
2, 22752, Note_on_c, 0, 55, 100
2, 22752, Note_on_c, 0, 59, 100
2, 22752, Note_on_c, 0, 62, 100
2, 22752, Note_on_c, 0, 65, 100
2, 22752, Note_on_c, 0, 71, 100
2, 22752, Note_on_c, 0, 74, 100
2, 22756, Control_c, 0, 10, 121
2, 22771, Control_c, 0, 10, 89
2, 22824, Note_off_c, 0, 74, 0
2, 22824, Note_on_c, 0, 74, 100
2, 22834, Control_c, 0, 10, 44
2, 22860, Note_on_c, 0, 77, 100
2, 22896, Note_on_c, 0, 83, 100
2, 22932, Control_c, 0, 10, 31
2, 23002, Control_c, 0, 10, 10
2, 23040, Note_off_c, 0, 55, 0
2, 23040, Note_off_c, 0, 62, 0
2, 23040, Note_off_c, 0, 65, 0
2, 23040, Note_off_c, 0, 71, 0
2, 23040, Note_off_c, 0, 74, 0
2, 23040, Note_on_c, 0, 55, 100
2, 23040, Note_on_c, 0, 62, 100
2, 23040, Note_on_c, 0, 64, 100
2, 23040, Note_on_c, 0, 71, 100
2, 23040, Note_on_c, 0, 74, 100
2, 23080, Control_c, 0, 10, 26
2, 23112, Note_on_c, 0, 74, 100
2, 23124, Control_c, 0, 10, 39
2, 23160, Note_on_c, 0, 76, 100
2, 23184, Note_off_c, 0, 77, 0
2, 23184, Note_off_c, 0, 83, 0
2, 23184, Note_on_c, 0, 83, 100
2, 23186, Control_c, 0, 10, 95
2, 23264, Control_c, 0, 10, 108
2, 23265, Control_c, 0, 10, 108
2, 23328, Note_off_c, 0, 59, 0
2, 23328, Note_off_c, 0, 55, 0
2, 23328, Note_off_c, 0, 62, 0
2, 23328, Note_off_c, 0, 64, 0
2, 23328, Note_off_c, 0, 71, 0
2, 23328, Note_off_c, 0, 74, 0
2, 23328, Note_off_c, 0, 74, 0
2, 23328, Note_off_c, 0, 76, 0
2, 23328, Note_off_c, 0, 83, 0
2, 23328, Control_c, 0, 10, 124
2, 23328, Note_on_c, 0, 55, 100
2, 23328, Note_on_c, 0, 63, 100
2, 23328, Note_on_c, 0, 67, 100
2, 23328, Note_on_c, 0, 71, 100
2, 23616, Note_off_c, 0, 55, 0
2, 23616, Note_off_c, 0, 63, 0
2, 23616, Note_off_c, 0, 67, 0
2, 23616, Note_off_c, 0, 71, 0
2, 23616, Note_on_c, 0, 55, 100
2, 23616, Note_on_c, 0, 62, 100
2, 23616, Note_on_c, 0, 67, 100
2, 23616, Note_on_c, 0, 71, 100
2, 23904, Note_off_c, 0, 55, 0
2, 23904, Note_off_c, 0, 62, 0
2, 23904, Note_off_c, 0, 67, 0
2, 23904, Note_off_c, 0, 71, 0
2, 23904, Note_on_c, 0, 57, 100
2, 23976, Note_off_c, 0, 57, 0
2, 23976, Note_on_c, 0, 55, 100
2, 24048, Note_off_c, 0, 55, 0
2, 24048, Note_on_c, 0, 53, 100
2, 24120, Note_off_c, 0, 53, 0
2, 24120, Note_on_c, 0, 50, 100
2, 24192, Note_off_c, 0, 50, 0
2, 24192, Note_on_c, 0, 52, 100
2, 24264, Note_off_c, 0, 52, 0
2, 24264, Note_on_c, 0, 50, 100
2, 24336, Note_off_c, 0, 50, 0
2, 24336, Note_on_c, 0, 48, 100
2, 24408, Note_off_c, 0, 48, 0
2, 24408, Note_on_c, 0, 45, 100
2, 24480, Note_off_c, 0, 45, 0
2, 24480, Note_on_c, 0, 43, 100
2, 24504, Note_off_c, 0, 43, 0
2, 24504, Note_on_c, 0, 45, 100
2, 24528, Note_off_c, 0, 45, 0
2, 24528, Note_on_c, 0, 47, 100
2, 24552, Note_off_c, 0, 47, 0
2, 24552, Note_on_c, 0, 48, 100
2, 24576, Note_off_c, 0, 48, 0
2, 24576, Note_on_c, 0, 47, 100
2, 24600, Note_off_c, 0, 47, 0
2, 24600, Note_on_c, 0, 45, 100
2, 24624, Note_off_c, 0, 45, 0
2, 24624, Note_on_c, 0, 43, 100
2, 24648, Note_off_c, 0, 43, 0
2, 24648, Note_on_c, 0, 45, 100
2, 24672, Note_off_c, 0, 45, 0
2, 24672, Note_on_c, 0, 47, 100
2, 24696, Note_off_c, 0, 47, 0
2, 24696, Note_on_c, 0, 48, 100
2, 24720, Note_off_c, 0, 48, 0
2, 24720, Note_on_c, 0, 47, 100
2, 24744, Note_off_c, 0, 47, 0
2, 24744, Note_on_c, 0, 45, 100
2, 24768, Note_off_c, 0, 45, 0
2, 24768, Note_on_c, 0, 43, 100
2, 25056, Note_off_c, 0, 43, 0
2, 25056, Note_on_c, 0, 57, 100
2, 25128, Note_off_c, 0, 57, 0
2, 25128, Note_on_c, 0, 55, 100
2, 25200, Note_off_c, 0, 55, 0
2, 25200, Note_on_c, 0, 53, 100
2, 25272, Note_off_c, 0, 53, 0
2, 25272, Note_on_c, 0, 50, 100
2, 25344, Note_off_c, 0, 50, 0
2, 25344, Note_on_c, 0, 52, 100
2, 25416, Note_off_c, 0, 52, 0
2, 25416, Note_on_c, 0, 50, 100
2, 25488, Note_off_c, 0, 50, 0
2, 25488, Note_on_c, 0, 48, 100
2, 25560, Note_off_c, 0, 48, 0
2, 25560, Note_on_c, 0, 45, 100
2, 25632, Note_off_c, 0, 45, 0
2, 25632, Note_on_c, 0, 43, 100
2, 25656, Note_off_c, 0, 43, 0
2, 25656, Note_on_c, 0, 45, 100
2, 25680, Note_off_c, 0, 45, 0
2, 25680, Note_on_c, 0, 47, 100
2, 25704, Note_off_c, 0, 47, 0
2, 25704, Note_on_c, 0, 48, 100
2, 25728, Note_off_c, 0, 48, 0
2, 25728, Note_on_c, 0, 47, 100
2, 25752, Note_off_c, 0, 47, 0
2, 25752, Note_on_c, 0, 45, 100
2, 25776, Note_off_c, 0, 45, 0
2, 25776, Note_on_c, 0, 43, 100
2, 25800, Note_off_c, 0, 43, 0
2, 25800, Note_on_c, 0, 45, 100
2, 25824, Note_off_c, 0, 45, 0
2, 25824, Note_on_c, 0, 47, 100
2, 25848, Note_off_c, 0, 47, 0
2, 25848, Note_on_c, 0, 48, 100
2, 25872, Note_off_c, 0, 48, 0
2, 25872, Note_on_c, 0, 47, 100
2, 25896, Note_off_c, 0, 47, 0
2, 25896, Note_on_c, 0, 45, 100
2, 25920, Note_off_c, 0, 45, 0
2, 25920, Note_on_c, 0, 43, 100
2, 26208, Note_off_c, 0, 43, 0
2, 26208, Note_on_c, 0, 57, 100
2, 26280, Note_off_c, 0, 57, 0
2, 26280, Note_on_c, 0, 55, 100
2, 26352, Note_off_c, 0, 55, 0
2, 26352, Note_on_c, 0, 53, 100
2, 26424, Note_off_c, 0, 53, 0
2, 26424, Note_on_c, 0, 50, 100
2, 26496, Note_off_c, 0, 50, 0
2, 26496, Note_on_c, 0, 52, 100
2, 26568, Note_off_c, 0, 52, 0
2, 26568, Note_on_c, 0, 50, 100
2, 26640, Note_off_c, 0, 50, 0
2, 26640, Note_on_c, 0, 48, 100
2, 26712, Note_off_c, 0, 48, 0
2, 26712, Note_on_c, 0, 45, 100
2, 26784, Note_off_c, 0, 45, 0
2, 26784, Note_on_c, 0, 43, 100
2, 26808, Note_off_c, 0, 43, 0
2, 26808, Note_on_c, 0, 45, 100
2, 26832, Note_off_c, 0, 45, 0
2, 26832, Note_on_c, 0, 47, 100
2, 26856, Note_off_c, 0, 47, 0
2, 26856, Note_on_c, 0, 48, 100
2, 26880, Note_off_c, 0, 48, 0
2, 26880, Note_on_c, 0, 47, 100
2, 26904, Note_off_c, 0, 47, 0
2, 26904, Note_on_c, 0, 45, 100
2, 26928, Note_off_c, 0, 45, 0
2, 26928, Note_on_c, 0, 43, 100
2, 26952, Note_off_c, 0, 43, 0
2, 26952, Note_on_c, 0, 45, 100
2, 26976, Note_off_c, 0, 45, 0
2, 26976, Note_on_c, 0, 47, 100
2, 27000, Note_off_c, 0, 47, 0
2, 27000, Note_on_c, 0, 48, 100
2, 27024, Note_off_c, 0, 48, 0
2, 27024, Note_on_c, 0, 47, 100
2, 27048, Note_off_c, 0, 47, 0
2, 27048, Note_on_c, 0, 45, 100
2, 27072, Note_off_c, 0, 45, 0
2, 27072, Note_on_c, 0, 43, 100
2, 27360, Note_off_c, 0, 43, 0
2, 27360, Note_on_c, 0, 57, 100
2, 27432, Note_off_c, 0, 57, 0
2, 27432, Note_on_c, 0, 55, 100
2, 27504, Note_off_c, 0, 55, 0
2, 27504, Note_on_c, 0, 53, 100
2, 27576, Note_off_c, 0, 53, 0
2, 27576, Note_on_c, 0, 50, 100
2, 27648, Note_off_c, 0, 50, 0
2, 27648, Note_on_c, 0, 52, 100
2, 27720, Note_off_c, 0, 52, 0
2, 27720, Note_on_c, 0, 50, 100
2, 27792, Note_off_c, 0, 50, 0
2, 27792, Note_on_c, 0, 48, 100
2, 27864, Note_off_c, 0, 48, 0
2, 27864, Note_on_c, 0, 45, 100
2, 27936, Note_off_c, 0, 45, 0
2, 27939, Control_c, 0, 10, 2
2, 27981, Control_c, 0, 10, 29
2, 28037, Control_c, 0, 10, 52
2, 28081, Control_c, 0, 10, 79
2, 28123, Control_c, 0, 10, 103
2, 28124, Control_c, 0, 10, 103
2, 28156, Control_c, 0, 10, 113
2, 28157, Control_c, 0, 10, 113
2, 28200, Control_c, 0, 10, 127
2, 28224, Note_on_c, 0, 55, 100
2, 28224, Note_on_c, 0, 62, 100
2, 28275, Control_c, 0, 10, 89
2, 28276, Control_c, 0, 10, 89
2, 28296, Note_on_c, 0, 74, 100
2, 28297, Control_c, 0, 10, 47
2, 28335, Control_c, 0, 10, 18
2, 28344, Note_on_c, 0, 76, 100
2, 28368, Note_on_c, 0, 83, 100
2, 28483, Control_c, 0, 10, 2
2, 28512, Note_off_c, 0, 55, 0
2, 28512, Note_off_c, 0, 62, 0
2, 28512, Note_off_c, 0, 74, 0
2, 28512, Note_off_c, 0, 76, 0
2, 28512, Note_off_c, 0, 83, 0
2, 28512, Note_on_c, 0, 55, 68
2, 28512, Note_on_c, 0, 63, 68
2, 28512, Note_on_c, 0, 67, 68
2, 28512, Note_on_c, 0, 71, 68
2, 28800, Note_off_c, 0, 55, 0
2, 28800, Note_off_c, 0, 63, 0
2, 28800, Note_off_c, 0, 67, 0
2, 28800, Note_off_c, 0, 71, 0
2, 28800, Note_on_c, 0, 55, 68
2, 28800, Note_on_c, 0, 62, 68
2, 28800, Note_on_c, 0, 67, 68
2, 28800, Note_on_c, 0, 71, 68
2, 29088, Note_off_c, 0, 55, 0
2, 29088, Note_off_c, 0, 62, 0
2, 29088, Note_off_c, 0, 67, 0
2, 29088, Note_off_c, 0, 71, 0
2, 29088, Note_on_c, 0, 71, 100
2, 29088, Note_on_c, 0, 74, 100
2, 29091, Control_c, 0, 10, 2
2, 29133, Control_c, 0, 10, 29
2, 29160, Note_off_c, 0, 74, 0
2, 29160, Note_on_c, 0, 74, 100
2, 29189, Control_c, 0, 10, 52
2, 29208, Note_on_c, 0, 77, 100
2, 29232, Note_on_c, 0, 83, 100
2, 29233, Control_c, 0, 10, 79
2, 29275, Control_c, 0, 10, 103
2, 29276, Control_c, 0, 10, 103
2, 29308, Control_c, 0, 10, 113
2, 29309, Control_c, 0, 10, 113
2, 29352, Control_c, 0, 10, 127
2, 29376, Note_off_c, 0, 71, 0
2, 29376, Note_off_c, 0, 74, 0
2, 29376, Note_on_c, 0, 71, 100
2, 29376, Note_on_c, 0, 74, 100
2, 29427, Control_c, 0, 10, 89
2, 29428, Control_c, 0, 10, 89
2, 29448, Note_on_c, 0, 74, 100
2, 29449, Control_c, 0, 10, 47
2, 29487, Control_c, 0, 10, 18
2, 29496, Note_on_c, 0, 76, 100
2, 29520, Note_off_c, 0, 77, 0
2, 29520, Note_off_c, 0, 83, 0
2, 29520, Note_on_c, 0, 83, 100
2, 29635, Control_c, 0, 10, 2
2, 29664, Note_off_c, 0, 71, 0
2, 29664, Note_off_c, 0, 74, 0
2, 29664, Note_off_c, 0, 74, 0
2, 29664, Note_off_c, 0, 76, 0
2, 29664, Note_off_c, 0, 83, 0
2, 29664, Note_on_c, 0, 67, 100
2, 29664, Note_on_c, 0, 71, 100
2, 29952, Note_off_c, 0, 67, 0
2, 29952, Note_off_c, 0, 71, 0
2, 29952, Note_on_c, 0, 62, 100
2, 29952, Note_on_c, 0, 67, 100
2, 29952, Note_on_c, 0, 71, 100
2, 30240, Note_off_c, 0, 62, 0
2, 30240, Note_off_c, 0, 67, 0
2, 30240, Note_off_c, 0, 71, 0
2, 30240, Note_on_c, 0, 50, 79
2, 30240, Note_on_c, 0, 74, 100
2, 30240, Note_on_c, 0, 77, 100
2, 30243, Note_on_c, 0, 62, 79
2, 30244, Control_c, 0, 1, 68
2, 30246, Note_on_c, 0, 65, 79
2, 30252, Note_on_c, 0, 69, 58
2, 30288, Note_off_c, 0, 65, 0
2, 30288, Note_on_c, 0, 65, 89
2, 30312, Note_off_c, 0, 69, 0
2, 30312, Note_off_c, 0, 65, 0
2, 30312, Note_on_c, 0, 65, 89
2, 30312, Note_on_c, 0, 69, 89
2, 30360, Note_off_c, 0, 69, 0
2, 30360, Note_on_c, 0, 69, 89
2, 30384, Note_off_c, 0, 50, 0
2, 30384, Note_off_c, 0, 65, 0
2, 30384, Note_on_c, 0, 50, 127
2, 30384, Note_on_c, 0, 65, 127
2, 30408, Note_off_c, 0, 65, 0
2, 30408, Note_on_c, 0, 64, 121
2, 30420, Note_off_c, 0, 62, 0
2, 30432, Note_off_c, 0, 64, 0
2, 30432, Note_on_c, 0, 62, 89
2, 30480, Note_off_c, 0, 62, 0
2, 30480, Note_on_c, 0, 61, 89
2, 30528, Note_off_c, 0, 74, 0
2, 30528, Note_off_c, 0, 77, 0
2, 30528, Note_off_c, 0, 69, 0
2, 30528, Note_off_c, 0, 50, 0
2, 30528, Note_off_c, 0, 61, 0
2, 30528, Note_on_c, 0, 44, 89
2, 30530, Note_on_c, 0, 63, 89
2, 30532, Note_on_c, 0, 60, 89
2, 30536, Note_on_c, 0, 68, 89
2, 30576, Note_off_c, 0, 68, 0
2, 30576, Note_on_c, 0, 68, 89
2, 30600, Note_off_c, 0, 63, 0
2, 30600, Note_on_c, 0, 63, 89
2, 30648, Note_off_c, 0, 68, 0
2, 30648, Note_on_c, 0, 68, 81
2, 30672, Note_off_c, 0, 44, 0
2, 30672, Note_off_c, 0, 60, 0
2, 30672, Note_off_c, 0, 63, 0
2, 30672, Note_off_c, 0, 68, 0
2, 30672, Note_on_c, 0, 44, 79
2, 30672, Note_on_c, 0, 61, 79
2, 30672, Note_on_c, 0, 63, 79
2, 30672, Note_on_c, 0, 68, 79
2, 30696, Note_off_c, 0, 61, 0
2, 30696, Note_on_c, 0, 60, 76
2, 30720, Note_off_c, 0, 60, 0
2, 30720, Note_on_c, 0, 56, 73
2, 30768, Note_off_c, 0, 56, 0
2, 30768, Note_on_c, 0, 55, 73
2, 30828, Note_off_c, 0, 63, 0
2, 30828, Note_off_c, 0, 68, 0
2, 30828, Note_off_c, 0, 55, 0
2, 30828, Note_on_c, 0, 50, 100
2, 30828, Note_on_c, 0, 54, 73
2, 30828, Note_on_c, 0, 66, 73
2, 30840, Note_off_c, 0, 44, 0
2, 30840, Note_on_c, 0, 62, 73
2, 31260, Note_off_c, 0, 50, 0
2, 31260, Note_off_c, 0, 54, 0
2, 31260, Note_off_c, 0, 66, 0
2, 31260, Note_off_c, 0, 62, 0
2, 31260, End_track
3, 0, Start_track
3, 0, Title_t, "Track 2\000"
3, 0, Program_c, 1, 26
3, 0, Control_c, 1, 10, 102
3, 0, Control_c, 1, 91, 0
3, 0, Control_c, 1, 93, 0
3, 1872, Note_on_c, 1, 74, 100
3, 1896, Note_on_c, 1, 72, 100
3, 1920, Note_off_c, 1, 74, 0
3, 1920, Note_on_c, 1, 71, 100
3, 1944, Note_off_c, 1, 72, 0
3, 1944, Note_on_c, 1, 72, 100
3, 1968, Note_off_c, 1, 71, 0
3, 1968, Note_on_c, 1, 71, 100
3, 1968, Note_on_c, 1, 74, 100
3, 1992, Note_off_c, 1, 72, 0
3, 1992, Note_on_c, 1, 72, 100
3, 2016, Note_off_c, 1, 71, 0
3, 2016, Note_off_c, 1, 74, 0
3, 2016, Note_on_c, 1, 43, 100
3, 2016, Note_on_c, 1, 71, 100
3, 2016, Note_on_c, 1, 74, 100
3, 2040, Note_off_c, 1, 72, 0
3, 2160, Note_off_c, 1, 43, 0
3, 2160, Note_off_c, 1, 71, 0
3, 2160, Note_off_c, 1, 74, 0
3, 3024, Note_on_c, 1, 74, 100
3, 3048, Note_on_c, 1, 72, 100
3, 3072, Note_off_c, 1, 74, 0
3, 3072, Note_on_c, 1, 71, 100
3, 3096, Note_off_c, 1, 72, 0
3, 3096, Note_on_c, 1, 72, 100
3, 3120, Note_off_c, 1, 71, 0
3, 3120, Note_on_c, 1, 71, 100
3, 3120, Note_on_c, 1, 74, 100
3, 3144, Note_off_c, 1, 72, 0
3, 3144, Note_on_c, 1, 72, 100
3, 3168, Note_off_c, 1, 71, 0
3, 3168, Note_off_c, 1, 74, 0
3, 3168, Note_on_c, 1, 43, 100
3, 3168, Note_on_c, 1, 71, 100
3, 3168, Note_on_c, 1, 74, 100
3, 3192, Note_off_c, 1, 72, 0
3, 3312, Note_off_c, 1, 43, 0
3, 3312, Note_off_c, 1, 71, 0
3, 3312, Note_off_c, 1, 74, 0
3, 4508, Pitch_bend_c, 1, 256
3, 4512, Note_on_c, 1, 64, 127
3, 4560, Pitch_bend_c, 1, 896
3, 4561, Pitch_bend_c, 1, 896
3, 4562, Pitch_bend_c, 1, 896
3, 4563, Pitch_bend_c, 1, 896
3, 4564, Pitch_bend_c, 1, 1664
3, 4565, Pitch_bend_c, 1, 1664
3, 4566, Pitch_bend_c, 1, 1664
3, 4567, Pitch_bend_c, 1, 1920
3, 4568, Pitch_bend_c, 1, 2304
3, 4569, Pitch_bend_c, 1, 2304
3, 4570, Pitch_bend_c, 1, 2688
3, 4571, Pitch_bend_c, 1, 2944
3, 4572, Pitch_bend_c, 1, 3328
3, 4573, Pitch_bend_c, 1, 3328
3, 4574, Pitch_bend_c, 1, 4736
3, 4575, Pitch_bend_c, 1, 4992
3, 4576, Pitch_bend_c, 1, 5376
3, 4577, Pitch_bend_c, 1, 5632
3, 4578, Pitch_bend_c, 1, 5632
3, 4579, Pitch_bend_c, 1, 5632
3, 4580, Pitch_bend_c, 1, 6016
3, 4581, Pitch_bend_c, 1, 6400
3, 4582, Pitch_bend_c, 1, 6400
3, 4583, Pitch_bend_c, 1, 6656
3, 4584, Pitch_bend_c, 1, 7040
3, 4585, Pitch_bend_c, 1, 7424
3, 4586, Pitch_bend_c, 1, 7680
3, 4587, Pitch_bend_c, 1, 8448
3, 4588, Pitch_bend_c, 1, 8448
3, 4589, Pitch_bend_c, 1, 8704
3, 4590, Pitch_bend_c, 1, 9472
3, 4591, Pitch_bend_c, 1, 10112
3, 4592, Pitch_bend_c, 1, 10112
3, 4593, Pitch_bend_c, 1, 10112
3, 4594, Pitch_bend_c, 1, 10496
3, 4595, Pitch_bend_c, 1, 10496
3, 4596, Pitch_bend_c, 1, 11392
3, 4597, Pitch_bend_c, 1, 10752
3, 4598, Pitch_bend_c, 1, 11392
3, 4599, Pitch_bend_c, 1, 11776
3, 4600, Pitch_bend_c, 1, 12160
3, 4601, Pitch_bend_c, 1, 12416
3, 4602, Pitch_bend_c, 1, 13184
3, 4603, Pitch_bend_c, 1, 13440
3, 4604, Pitch_bend_c, 1, 13824
3, 4605, Pitch_bend_c, 1, 14208
3, 4606, Pitch_bend_c, 1, 14848
3, 4607, Pitch_bend_c, 1, 15232
3, 4608, Note_off_c, 1, 64, 0
3, 4608, Note_on_c, 1, 74, 76
3, 4608, Pitch_bend_c, 1, 8448
3, 4896, Note_off_c, 1, 74, 0
3, 6480, Note_on_c, 1, 74, 100
3, 6504, Note_on_c, 1, 72, 100
3, 6528, Note_off_c, 1, 74, 0
3, 6528, Note_on_c, 1, 71, 100
3, 6552, Note_off_c, 1, 72, 0
3, 6552, Note_on_c, 1, 72, 100
3, 6576, Note_off_c, 1, 71, 0
3, 6576, Note_on_c, 1, 71, 100
3, 6576, Note_on_c, 1, 74, 100
3, 6600, Note_off_c, 1, 72, 0
3, 6600, Note_on_c, 1, 72, 100
3, 6624, Note_off_c, 1, 71, 0
3, 6624, Note_off_c, 1, 74, 0
3, 6624, Note_on_c, 1, 43, 100
3, 6624, Note_on_c, 1, 71, 100
3, 6624, Note_on_c, 1, 74, 100
3, 6648, Note_off_c, 1, 72, 0
3, 6768, Note_off_c, 1, 43, 0
3, 6768, Note_off_c, 1, 71, 0
3, 6768, Note_off_c, 1, 74, 0
3, 7964, Pitch_bend_c, 1, 256
3, 7968, Note_on_c, 1, 64, 127
3, 8016, Pitch_bend_c, 1, 896
3, 8017, Pitch_bend_c, 1, 896
3, 8018, Pitch_bend_c, 1, 896
3, 8019, Pitch_bend_c, 1, 896
3, 8020, Pitch_bend_c, 1, 1664
3, 8021, Pitch_bend_c, 1, 1664
3, 8022, Pitch_bend_c, 1, 1664
3, 8023, Pitch_bend_c, 1, 1920
3, 8024, Pitch_bend_c, 1, 2304
3, 8025, Pitch_bend_c, 1, 2304
3, 8026, Pitch_bend_c, 1, 2688
3, 8027, Pitch_bend_c, 1, 2944
3, 8028, Pitch_bend_c, 1, 3328
3, 8029, Pitch_bend_c, 1, 3328
3, 8030, Pitch_bend_c, 1, 4736
3, 8031, Pitch_bend_c, 1, 4992
3, 8032, Pitch_bend_c, 1, 5376
3, 8033, Pitch_bend_c, 1, 5632
3, 8034, Pitch_bend_c, 1, 5632
3, 8035, Pitch_bend_c, 1, 5632
3, 8036, Pitch_bend_c, 1, 6016
3, 8037, Pitch_bend_c, 1, 6400
3, 8038, Pitch_bend_c, 1, 6400
3, 8039, Pitch_bend_c, 1, 6656
3, 8040, Pitch_bend_c, 1, 7040
3, 8041, Pitch_bend_c, 1, 7424
3, 8042, Pitch_bend_c, 1, 7680
3, 8043, Pitch_bend_c, 1, 8448
3, 8044, Pitch_bend_c, 1, 8448
3, 8045, Pitch_bend_c, 1, 8704
3, 8046, Pitch_bend_c, 1, 9472
3, 8047, Pitch_bend_c, 1, 10112
3, 8048, Pitch_bend_c, 1, 10112
3, 8049, Pitch_bend_c, 1, 10112
3, 8050, Pitch_bend_c, 1, 10496
3, 8051, Pitch_bend_c, 1, 10496
3, 8052, Pitch_bend_c, 1, 11392
3, 8053, Pitch_bend_c, 1, 10752
3, 8054, Pitch_bend_c, 1, 11392
3, 8055, Pitch_bend_c, 1, 11776
3, 8056, Pitch_bend_c, 1, 12160
3, 8057, Pitch_bend_c, 1, 12416
3, 8058, Pitch_bend_c, 1, 13184
3, 8059, Pitch_bend_c, 1, 13440
3, 8060, Pitch_bend_c, 1, 13824
3, 8061, Pitch_bend_c, 1, 14208
3, 8062, Pitch_bend_c, 1, 14848
3, 8063, Pitch_bend_c, 1, 15232
3, 8064, Note_off_c, 1, 64, 0
3, 8064, Note_on_c, 1, 74, 76
3, 8064, Pitch_bend_c, 1, 8448
3, 8352, Note_off_c, 1, 74, 0
3, 8539, Pitch_bend_c, 1, 256
3, 8544, Note_on_c, 1, 64, 127
3, 8568, Note_off_c, 1, 64, 0
3, 8568, Note_on_c, 1, 64, 127
3, 8591, Pitch_bend_c, 1, 896
3, 8592, Note_off_c, 1, 64, 0
3, 8592, Pitch_bend_c, 1, 896
3, 8592, Note_on_c, 1, 64, 127
3, 8593, Pitch_bend_c, 1, 896
3, 8594, Pitch_bend_c, 1, 896
3, 8595, Pitch_bend_c, 1, 1664
3, 8596, Pitch_bend_c, 1, 1664
3, 8597, Pitch_bend_c, 1, 1664
3, 8598, Pitch_bend_c, 1, 1920
3, 8599, Pitch_bend_c, 1, 2304
3, 8600, Pitch_bend_c, 1, 2304
3, 8601, Pitch_bend_c, 1, 2688
3, 8602, Pitch_bend_c, 1, 2944
3, 8603, Pitch_bend_c, 1, 3328
3, 8604, Pitch_bend_c, 1, 3328
3, 8605, Pitch_bend_c, 1, 4736
3, 8606, Pitch_bend_c, 1, 4992
3, 8607, Pitch_bend_c, 1, 5376
3, 8608, Pitch_bend_c, 1, 5632
3, 8609, Pitch_bend_c, 1, 5632
3, 8610, Pitch_bend_c, 1, 5632
3, 8611, Pitch_bend_c, 1, 6016
3, 8612, Pitch_bend_c, 1, 6400
3, 8613, Pitch_bend_c, 1, 6400
3, 8614, Pitch_bend_c, 1, 6656
3, 8615, Pitch_bend_c, 1, 7040
3, 8616, Pitch_bend_c, 1, 7424
3, 8617, Pitch_bend_c, 1, 7680
3, 8618, Pitch_bend_c, 1, 8448
3, 8619, Pitch_bend_c, 1, 8448
3, 8620, Pitch_bend_c, 1, 8704
3, 8621, Pitch_bend_c, 1, 9472
3, 8622, Pitch_bend_c, 1, 10112
3, 8623, Pitch_bend_c, 1, 10112
3, 8624, Pitch_bend_c, 1, 10112
3, 8625, Pitch_bend_c, 1, 10496
3, 8626, Pitch_bend_c, 1, 10496
3, 8627, Pitch_bend_c, 1, 11392
3, 8628, Pitch_bend_c, 1, 10752
3, 8629, Pitch_bend_c, 1, 11392
3, 8630, Pitch_bend_c, 1, 11776
3, 8631, Pitch_bend_c, 1, 12160
3, 8632, Pitch_bend_c, 1, 12416
3, 8633, Pitch_bend_c, 1, 13184
3, 8634, Pitch_bend_c, 1, 13440
3, 8635, Pitch_bend_c, 1, 13824
3, 8636, Pitch_bend_c, 1, 14208
3, 8637, Pitch_bend_c, 1, 14848
3, 8638, Pitch_bend_c, 1, 15232
3, 8639, Pitch_bend_c, 1, 8448
3, 8640, Note_off_c, 1, 64, 0
3, 8640, Note_on_c, 1, 75, 124
3, 8650, Note_off_c, 1, 75, 0
3, 8656, Note_on_c, 1, 75, 103
3, 8680, Note_off_c, 1, 75, 0
3, 8688, Note_on_c, 1, 75, 71
3, 8708, Note_off_c, 1, 75, 0
3, 8714, Note_on_c, 1, 75, 92
3, 8782, Note_off_c, 1, 75, 0
3, 8782, Note_on_c, 1, 75, 84
3, 8926, Note_off_c, 1, 75, 0
3, 9072, Note_on_c, 1, 79, 100
3, 9264, Note_off_c, 1, 79, 0
3, 10608, Note_on_c, 1, 79, 63
3, 10608, Note_on_c, 1, 83, 63
3, 10632, Note_off_c, 1, 79, 0
3, 10632, Note_off_c, 1, 83, 0
3, 10632, Note_on_c, 1, 79, 76
3, 10632, Note_on_c, 1, 83, 76
3, 10656, Note_off_c, 1, 79, 0
3, 10656, Note_off_c, 1, 83, 0
3, 10656, Note_on_c, 1, 79, 87
3, 10656, Note_on_c, 1, 83, 87
3, 10680, Note_off_c, 1, 79, 0
3, 10680, Note_off_c, 1, 83, 0
3, 10680, Note_on_c, 1, 79, 103
3, 10680, Note_on_c, 1, 83, 103
3, 10704, Note_off_c, 1, 79, 0
3, 10704, Note_off_c, 1, 83, 0
3, 10704, Note_on_c, 1, 79, 92
3, 10704, Note_on_c, 1, 83, 92
3, 10728, Note_off_c, 1, 79, 0
3, 10728, Note_off_c, 1, 83, 0
3, 10728, Note_on_c, 1, 79, 103
3, 10728, Note_on_c, 1, 83, 103
3, 10752, Note_off_c, 1, 79, 0
3, 10752, Note_off_c, 1, 83, 0
3, 10752, Note_on_c, 1, 79, 127
3, 10752, Note_on_c, 1, 83, 127
3, 10752, Note_on_c, 1, 83, 127
3, 10776, Note_off_c, 1, 79, 0
3, 10776, Note_off_c, 1, 83, 0
3, 10776, Note_off_c, 1, 83, 0
3, 10776, Note_on_c, 1, 79, 127
3, 10776, Note_on_c, 1, 83, 127
3, 10800, Note_off_c, 1, 79, 0
3, 10800, Note_off_c, 1, 83, 0
3, 10800, Note_on_c, 1, 79, 127
3, 10800, Note_on_c, 1, 83, 127
3, 10824, Note_off_c, 1, 79, 0
3, 10824, Note_off_c, 1, 83, 0
3, 10824, Note_on_c, 1, 79, 127
3, 10824, Note_on_c, 1, 83, 127
3, 10848, Note_off_c, 1, 79, 0
3, 10848, Note_off_c, 1, 83, 0
3, 10848, Note_on_c, 1, 79, 108
3, 10848, Note_on_c, 1, 83, 108
3, 10872, Note_off_c, 1, 79, 0
3, 10872, Note_off_c, 1, 83, 0
3, 10872, Note_on_c, 1, 79, 124
3, 10872, Note_on_c, 1, 83, 124
3, 10896, Note_off_c, 1, 79, 0
3, 10896, Note_off_c, 1, 83, 0
3, 10896, Note_on_c, 1, 79, 103
3, 10896, Note_on_c, 1, 83, 103
3, 10920, Note_off_c, 1, 79, 0
3, 10920, Note_off_c, 1, 83, 0
3, 10920, Note_on_c, 1, 79, 82
3, 10920, Note_on_c, 1, 83, 82
3, 10944, Note_off_c, 1, 79, 0
3, 10944, Note_off_c, 1, 83, 0
3, 10944, Note_on_c, 1, 79, 127
3, 10944, Note_on_c, 1, 83, 127
3, 11232, Note_off_c, 1, 79, 0
3, 11232, Note_off_c, 1, 83, 0
3, 11760, Note_on_c, 1, 79, 63
3, 11760, Note_on_c, 1, 83, 63
3, 11784, Note_off_c, 1, 79, 0
3, 11784, Note_off_c, 1, 83, 0
3, 11784, Note_on_c, 1, 79, 76
3, 11784, Note_on_c, 1, 83, 76
3, 11808, Note_off_c, 1, 79, 0
3, 11808, Note_off_c, 1, 83, 0
3, 11808, Note_on_c, 1, 79, 87
3, 11808, Note_on_c, 1, 83, 87
3, 11832, Note_off_c, 1, 79, 0
3, 11832, Note_off_c, 1, 83, 0
3, 11832, Note_on_c, 1, 79, 103
3, 11832, Note_on_c, 1, 83, 103
3, 11856, Note_off_c, 1, 79, 0
3, 11856, Note_off_c, 1, 83, 0
3, 11856, Note_on_c, 1, 79, 92
3, 11856, Note_on_c, 1, 83, 92
3, 11880, Note_off_c, 1, 79, 0
3, 11880, Note_off_c, 1, 83, 0
3, 11880, Note_on_c, 1, 79, 103
3, 11880, Note_on_c, 1, 83, 103
3, 11904, Note_off_c, 1, 79, 0
3, 11904, Note_off_c, 1, 83, 0
3, 11904, Note_on_c, 1, 79, 127
3, 11904, Note_on_c, 1, 83, 127
3, 11904, Note_on_c, 1, 83, 127
3, 11928, Note_off_c, 1, 79, 0
3, 11928, Note_off_c, 1, 83, 0
3, 11928, Note_off_c, 1, 83, 0
3, 11928, Note_on_c, 1, 79, 127
3, 11928, Note_on_c, 1, 83, 127
3, 11952, Note_off_c, 1, 79, 0
3, 11952, Note_off_c, 1, 83, 0
3, 11952, Note_on_c, 1, 79, 127
3, 11952, Note_on_c, 1, 83, 127
3, 11976, Note_off_c, 1, 79, 0
3, 11976, Note_off_c, 1, 83, 0
3, 11976, Note_on_c, 1, 79, 127
3, 11976, Note_on_c, 1, 83, 127
3, 12000, Note_off_c, 1, 79, 0
3, 12000, Note_off_c, 1, 83, 0
3, 12000, Note_on_c, 1, 79, 108
3, 12000, Note_on_c, 1, 83, 108
3, 12024, Note_off_c, 1, 79, 0
3, 12024, Note_off_c, 1, 83, 0
3, 12024, Note_on_c, 1, 79, 124
3, 12024, Note_on_c, 1, 83, 124
3, 12048, Note_off_c, 1, 79, 0
3, 12048, Note_off_c, 1, 83, 0
3, 12048, Note_on_c, 1, 79, 103
3, 12048, Note_on_c, 1, 83, 103
3, 12072, Note_off_c, 1, 79, 0
3, 12072, Note_off_c, 1, 83, 0
3, 12072, Note_on_c, 1, 79, 82
3, 12072, Note_on_c, 1, 83, 82
3, 12096, Note_off_c, 1, 79, 0
3, 12096, Note_off_c, 1, 83, 0
3, 12096, Note_on_c, 1, 79, 127
3, 12096, Note_on_c, 1, 83, 127
3, 12384, Note_off_c, 1, 79, 0
3, 12384, Note_off_c, 1, 83, 0
3, 12912, Note_on_c, 1, 79, 63
3, 12912, Note_on_c, 1, 83, 63
3, 12936, Note_off_c, 1, 79, 0
3, 12936, Note_off_c, 1, 83, 0
3, 12936, Note_on_c, 1, 79, 76
3, 12936, Note_on_c, 1, 83, 76
3, 12960, Note_off_c, 1, 79, 0
3, 12960, Note_off_c, 1, 83, 0
3, 12960, Note_on_c, 1, 79, 87
3, 12960, Note_on_c, 1, 83, 87
3, 12984, Note_off_c, 1, 79, 0
3, 12984, Note_off_c, 1, 83, 0
3, 12984, Note_on_c, 1, 79, 103
3, 12984, Note_on_c, 1, 83, 103
3, 13008, Note_off_c, 1, 79, 0
3, 13008, Note_off_c, 1, 83, 0
3, 13008, Note_on_c, 1, 79, 92
3, 13008, Note_on_c, 1, 83, 92
3, 13032, Note_off_c, 1, 79, 0
3, 13032, Note_off_c, 1, 83, 0
3, 13032, Note_on_c, 1, 79, 103
3, 13032, Note_on_c, 1, 83, 103
3, 13056, Note_off_c, 1, 79, 0
3, 13056, Note_off_c, 1, 83, 0
3, 13056, Note_on_c, 1, 79, 127
3, 13056, Note_on_c, 1, 83, 127
3, 13056, Note_on_c, 1, 83, 127
3, 13080, Note_off_c, 1, 79, 0
3, 13080, Note_off_c, 1, 83, 0
3, 13080, Note_off_c, 1, 83, 0
3, 13080, Note_on_c, 1, 79, 127
3, 13080, Note_on_c, 1, 83, 127
3, 13104, Note_off_c, 1, 79, 0
3, 13104, Note_off_c, 1, 83, 0
3, 13104, Note_on_c, 1, 79, 127
3, 13104, Note_on_c, 1, 83, 127
3, 13128, Note_off_c, 1, 79, 0
3, 13128, Note_off_c, 1, 83, 0
3, 13128, Note_on_c, 1, 79, 127
3, 13128, Note_on_c, 1, 83, 127
3, 13152, Note_off_c, 1, 79, 0
3, 13152, Note_off_c, 1, 83, 0
3, 13152, Note_on_c, 1, 79, 108
3, 13152, Note_on_c, 1, 83, 108
3, 13176, Note_off_c, 1, 79, 0
3, 13176, Note_off_c, 1, 83, 0
3, 13176, Note_on_c, 1, 79, 124
3, 13176, Note_on_c, 1, 83, 124
3, 13200, Note_off_c, 1, 79, 0
3, 13200, Note_off_c, 1, 83, 0
3, 13200, Note_on_c, 1, 79, 103
3, 13200, Note_on_c, 1, 83, 103
3, 13224, Note_off_c, 1, 79, 0
3, 13224, Note_off_c, 1, 83, 0
3, 13224, Note_on_c, 1, 79, 82
3, 13224, Note_on_c, 1, 83, 82
3, 13248, Note_off_c, 1, 79, 0
3, 13248, Note_off_c, 1, 83, 0
3, 13248, Note_on_c, 1, 79, 100
3, 13248, Note_on_c, 1, 83, 100
3, 13536, Note_off_c, 1, 79, 0
3, 13536, Note_off_c, 1, 83, 0
3, 16604, Pitch_bend_c, 1, 256
3, 16608, Note_on_c, 1, 64, 127
3, 16656, Pitch_bend_c, 1, 896
3, 16657, Pitch_bend_c, 1, 896
3, 16658, Pitch_bend_c, 1, 896
3, 16659, Pitch_bend_c, 1, 896
3, 16660, Pitch_bend_c, 1, 1664
3, 16661, Pitch_bend_c, 1, 1664
3, 16662, Pitch_bend_c, 1, 1664
3, 16663, Pitch_bend_c, 1, 1920
3, 16664, Pitch_bend_c, 1, 2304
3, 16665, Pitch_bend_c, 1, 2304
3, 16666, Pitch_bend_c, 1, 2688
3, 16667, Pitch_bend_c, 1, 2944
3, 16668, Pitch_bend_c, 1, 3328
3, 16669, Pitch_bend_c, 1, 3328
3, 16670, Pitch_bend_c, 1, 4736
3, 16671, Pitch_bend_c, 1, 4992
3, 16672, Pitch_bend_c, 1, 5376
3, 16673, Pitch_bend_c, 1, 5632
3, 16674, Pitch_bend_c, 1, 5632
3, 16675, Pitch_bend_c, 1, 5632
3, 16676, Pitch_bend_c, 1, 6016
3, 16677, Pitch_bend_c, 1, 6400
3, 16678, Pitch_bend_c, 1, 6400
3, 16679, Pitch_bend_c, 1, 6656
3, 16680, Pitch_bend_c, 1, 7040
3, 16681, Pitch_bend_c, 1, 7424
3, 16682, Pitch_bend_c, 1, 7680
3, 16683, Pitch_bend_c, 1, 8448
3, 16684, Pitch_bend_c, 1, 8448
3, 16685, Pitch_bend_c, 1, 8704
3, 16686, Pitch_bend_c, 1, 9472
3, 16687, Pitch_bend_c, 1, 10112
3, 16688, Pitch_bend_c, 1, 10112
3, 16689, Pitch_bend_c, 1, 10112
3, 16690, Pitch_bend_c, 1, 10496
3, 16691, Pitch_bend_c, 1, 10496
3, 16692, Pitch_bend_c, 1, 11392
3, 16693, Pitch_bend_c, 1, 10752
3, 16694, Pitch_bend_c, 1, 11392
3, 16695, Pitch_bend_c, 1, 11776
3, 16696, Pitch_bend_c, 1, 12160
3, 16697, Pitch_bend_c, 1, 12416
3, 16698, Pitch_bend_c, 1, 13184
3, 16699, Pitch_bend_c, 1, 13440
3, 16700, Pitch_bend_c, 1, 13824
3, 16701, Pitch_bend_c, 1, 14208
3, 16702, Pitch_bend_c, 1, 14848
3, 16703, Pitch_bend_c, 1, 15232
3, 16704, Note_off_c, 1, 64, 0
3, 16704, Note_on_c, 1, 74, 76
3, 16704, Pitch_bend_c, 1, 8448
3, 16992, Note_off_c, 1, 74, 0
3, 17184, Pitch_bend_c, 1, 256
3, 17184, Note_on_c, 1, 64, 127
3, 17236, Pitch_bend_c, 1, 896
3, 17237, Pitch_bend_c, 1, 896
3, 17238, Pitch_bend_c, 1, 896
3, 17239, Pitch_bend_c, 1, 896
3, 17240, Pitch_bend_c, 1, 1664
3, 17241, Pitch_bend_c, 1, 1664
3, 17242, Pitch_bend_c, 1, 1664
3, 17243, Pitch_bend_c, 1, 1920
3, 17244, Pitch_bend_c, 1, 2304
3, 17245, Pitch_bend_c, 1, 2304
3, 17246, Pitch_bend_c, 1, 2688
3, 17247, Pitch_bend_c, 1, 2944
3, 17248, Pitch_bend_c, 1, 3328
3, 17249, Pitch_bend_c, 1, 3328
3, 17250, Pitch_bend_c, 1, 4736
3, 17251, Pitch_bend_c, 1, 4992
3, 17252, Pitch_bend_c, 1, 5376
3, 17253, Pitch_bend_c, 1, 5632
3, 17254, Pitch_bend_c, 1, 5632
3, 17255, Pitch_bend_c, 1, 5632
3, 17256, Pitch_bend_c, 1, 6016
3, 17257, Pitch_bend_c, 1, 6400
3, 17258, Pitch_bend_c, 1, 6400
3, 17259, Pitch_bend_c, 1, 6656
3, 17260, Pitch_bend_c, 1, 7040
3, 17261, Pitch_bend_c, 1, 7424
3, 17262, Pitch_bend_c, 1, 7680
3, 17263, Pitch_bend_c, 1, 8448
3, 17264, Pitch_bend_c, 1, 8448
3, 17265, Pitch_bend_c, 1, 8704
3, 17266, Pitch_bend_c, 1, 9472
3, 17267, Pitch_bend_c, 1, 10112
3, 17268, Pitch_bend_c, 1, 10112
3, 17269, Pitch_bend_c, 1, 10112
3, 17270, Pitch_bend_c, 1, 10496
3, 17271, Pitch_bend_c, 1, 10496
3, 17272, Pitch_bend_c, 1, 11392
3, 17273, Pitch_bend_c, 1, 10752
3, 17274, Pitch_bend_c, 1, 11392
3, 17275, Pitch_bend_c, 1, 11776
3, 17276, Pitch_bend_c, 1, 12160
3, 17277, Pitch_bend_c, 1, 12416
3, 17280, Note_off_c, 1, 64, 0
3, 17280, Note_on_c, 1, 74, 76
3, 17469, Pitch_bend_c, 1, 256
3, 17472, Note_on_c, 1, 64, 127
3, 17521, Pitch_bend_c, 1, 896
3, 17522, Pitch_bend_c, 1, 896
3, 17523, Pitch_bend_c, 1, 896
3, 17524, Pitch_bend_c, 1, 896
3, 17525, Pitch_bend_c, 1, 1664
3, 17526, Pitch_bend_c, 1, 1664
3, 17527, Pitch_bend_c, 1, 1664
3, 17528, Pitch_bend_c, 1, 1920
3, 17529, Pitch_bend_c, 1, 2304
3, 17530, Pitch_bend_c, 1, 2304
3, 17531, Pitch_bend_c, 1, 2688
3, 17532, Pitch_bend_c, 1, 2944
3, 17533, Pitch_bend_c, 1, 3328
3, 17534, Pitch_bend_c, 1, 3328
3, 17535, Pitch_bend_c, 1, 4736
3, 17536, Pitch_bend_c, 1, 4992
3, 17537, Pitch_bend_c, 1, 5376
3, 17538, Pitch_bend_c, 1, 5632
3, 17539, Pitch_bend_c, 1, 5632
3, 17540, Pitch_bend_c, 1, 5632
3, 17541, Pitch_bend_c, 1, 6016
3, 17542, Pitch_bend_c, 1, 6400
3, 17543, Pitch_bend_c, 1, 6400
3, 17544, Pitch_bend_c, 1, 6656
3, 17545, Pitch_bend_c, 1, 7040
3, 17546, Pitch_bend_c, 1, 7424
3, 17547, Pitch_bend_c, 1, 7680
3, 17548, Pitch_bend_c, 1, 8448
3, 17549, Pitch_bend_c, 1, 8448
3, 17550, Pitch_bend_c, 1, 8704
3, 17551, Pitch_bend_c, 1, 9472
3, 17552, Pitch_bend_c, 1, 10112
3, 17553, Pitch_bend_c, 1, 10112
3, 17554, Pitch_bend_c, 1, 10112
3, 17555, Pitch_bend_c, 1, 10496
3, 17556, Pitch_bend_c, 1, 10496
3, 17557, Pitch_bend_c, 1, 11392
3, 17558, Pitch_bend_c, 1, 10752
3, 17559, Pitch_bend_c, 1, 11392
3, 17560, Pitch_bend_c, 1, 11776
3, 17561, Pitch_bend_c, 1, 12160
3, 17562, Pitch_bend_c, 1, 12416
3, 17568, Note_off_c, 1, 74, 0
3, 17568, Note_off_c, 1, 64, 0
3, 17568, Note_on_c, 1, 77, 76
3, 17760, Note_off_c, 1, 77, 0
3, 17760, Note_on_c, 1, 78, 100
3, 17808, Note_off_c, 1, 78, 0
3, 17808, Note_on_c, 1, 80, 100
3, 17856, Note_off_c, 1, 80, 0
3, 17856, Pitch_bend_c, 1, 8448
3, 18336, Note_on_c, 1, 79, 100
3, 18384, Note_off_c, 1, 79, 0
3, 18384, Note_on_c, 1, 81, 100
3, 18432, Note_off_c, 1, 81, 0
3, 18432, Note_on_c, 1, 83, 100
3, 18483, Pitch_bend_c, 1, 8448
3, 18484, Pitch_bend_c, 1, 8704
3, 18486, Pitch_bend_c, 1, 8704
3, 18487, Pitch_bend_c, 1, 9088
3, 18489, Pitch_bend_c, 1, 9472
3, 18490, Pitch_bend_c, 1, 9472
3, 18492, Pitch_bend_c, 1, 9728
3, 18493, Pitch_bend_c, 1, 10112
3, 18495, Pitch_bend_c, 1, 10496
3, 18496, Pitch_bend_c, 1, 10752
3, 18498, Pitch_bend_c, 1, 10752
3, 18499, Pitch_bend_c, 1, 10752
3, 18501, Pitch_bend_c, 1, 11136
3, 18502, Pitch_bend_c, 1, 11136
3, 18504, Pitch_bend_c, 1, 11136
3, 18505, Pitch_bend_c, 1, 11136
3, 18507, Pitch_bend_c, 1, 11136
3, 18508, Pitch_bend_c, 1, 11136
3, 18510, Pitch_bend_c, 1, 11136
3, 18511, Pitch_bend_c, 1, 11136
3, 18513, Pitch_bend_c, 1, 11136
3, 18514, Pitch_bend_c, 1, 11136
3, 18516, Pitch_bend_c, 1, 11776
3, 18517, Pitch_bend_c, 1, 11776
3, 18519, Pitch_bend_c, 1, 11776
3, 18520, Pitch_bend_c, 1, 11392
3, 18522, Pitch_bend_c, 1, 11392
3, 18523, Pitch_bend_c, 1, 11392
3, 18525, Pitch_bend_c, 1, 10752
3, 18526, Pitch_bend_c, 1, 9472
3, 18528, Pitch_bend_c, 1, 9728
3, 18529, Pitch_bend_c, 1, 9728
3, 18531, Pitch_bend_c, 1, 9728
3, 18532, Pitch_bend_c, 1, 9728
3, 18534, Pitch_bend_c, 1, 9728
3, 18535, Pitch_bend_c, 1, 9088
3, 18537, Pitch_bend_c, 1, 9088
3, 18538, Pitch_bend_c, 1, 8704
3, 18576, Note_off_c, 1, 83, 0
3, 18576, Note_on_c, 1, 81, 100
3, 18624, Note_off_c, 1, 81, 0
3, 18624, Note_on_c, 1, 79, 100
3, 18666, Pitch_bend_c, 1, 8704
3, 18667, Pitch_bend_c, 1, 8704
3, 18669, Pitch_bend_c, 1, 8704
3, 18670, Pitch_bend_c, 1, 8704
3, 18672, Note_off_c, 1, 79, 0
3, 18672, Note_on_c, 1, 74, 100
3, 18672, Pitch_bend_c, 1, 8704
3, 18673, Pitch_bend_c, 1, 8704
3, 18675, Pitch_bend_c, 1, 9088
3, 18676, Pitch_bend_c, 1, 9472
3, 18678, Pitch_bend_c, 1, 9472
3, 18679, Pitch_bend_c, 1, 9728
3, 18681, Pitch_bend_c, 1, 10496
3, 18682, Pitch_bend_c, 1, 10496
3, 18684, Pitch_bend_c, 1, 10752
3, 18685, Pitch_bend_c, 1, 11136
3, 18687, Pitch_bend_c, 1, 11136
3, 18688, Pitch_bend_c, 1, 11392
3, 18690, Pitch_bend_c, 1, 11776
3, 18691, Pitch_bend_c, 1, 11776
3, 18693, Pitch_bend_c, 1, 11776
3, 18694, Pitch_bend_c, 1, 12160
3, 18696, Pitch_bend_c, 1, 12160
3, 18697, Pitch_bend_c, 1, 12416
3, 18699, Pitch_bend_c, 1, 12416
3, 18700, Pitch_bend_c, 1, 12800
3, 18702, Pitch_bend_c, 1, 12800
3, 18703, Pitch_bend_c, 1, 12800
3, 18705, Pitch_bend_c, 1, 12800
3, 18706, Pitch_bend_c, 1, 12800
3, 18708, Pitch_bend_c, 1, 12800
3, 18709, Pitch_bend_c, 1, 12800
3, 18711, Pitch_bend_c, 1, 12800
3, 18712, Pitch_bend_c, 1, 12416
3, 18714, Pitch_bend_c, 1, 12160
3, 18715, Pitch_bend_c, 1, 12160
3, 18717, Pitch_bend_c, 1, 12160
3, 18718, Pitch_bend_c, 1, 11776
3, 18720, Pitch_bend_c, 1, 11136
3, 18721, Pitch_bend_c, 1, 11136
3, 18723, Pitch_bend_c, 1, 11136
3, 18724, Pitch_bend_c, 1, 10752
3, 18726, Pitch_bend_c, 1, 10752
3, 18727, Pitch_bend_c, 1, 10752
3, 18729, Pitch_bend_c, 1, 10496
3, 18730, Pitch_bend_c, 1, 10496
3, 18732, Pitch_bend_c, 1, 10112
3, 18733, Pitch_bend_c, 1, 10112
3, 18735, Pitch_bend_c, 1, 10112
3, 18736, Pitch_bend_c, 1, 10112
3, 18738, Pitch_bend_c, 1, 10112
3, 18739, Pitch_bend_c, 1, 10112
3, 18741, Pitch_bend_c, 1, 10112
3, 18742, Pitch_bend_c, 1, 10112
3, 18744, Pitch_bend_c, 1, 10112
3, 18745, Pitch_bend_c, 1, 10112
3, 18747, Pitch_bend_c, 1, 10112
3, 18748, Pitch_bend_c, 1, 10112
3, 18750, Pitch_bend_c, 1, 10496
3, 18751, Pitch_bend_c, 1, 10496
3, 18753, Pitch_bend_c, 1, 10496
3, 18754, Pitch_bend_c, 1, 10496
3, 18756, Pitch_bend_c, 1, 10112
3, 18757, Pitch_bend_c, 1, 10112
3, 18759, Pitch_bend_c, 1, 10112
3, 18760, Pitch_bend_c, 1, 10112
3, 18762, Pitch_bend_c, 1, 10112
3, 18763, Pitch_bend_c, 1, 10112
3, 18765, Pitch_bend_c, 1, 9728
3, 18766, Pitch_bend_c, 1, 9728
3, 18768, Pitch_bend_c, 1, 9728
3, 18769, Pitch_bend_c, 1, 9728
3, 18771, Pitch_bend_c, 1, 9728
3, 18772, Pitch_bend_c, 1, 9728
3, 18774, Pitch_bend_c, 1, 9728
3, 18775, Pitch_bend_c, 1, 9728
3, 18777, Pitch_bend_c, 1, 9472
3, 18778, Pitch_bend_c, 1, 9472
3, 18780, Pitch_bend_c, 1, 9088
3, 18781, Pitch_bend_c, 1, 9088
3, 18783, Pitch_bend_c, 1, 9088
3, 18784, Pitch_bend_c, 1, 8704
3, 18786, Pitch_bend_c, 1, 8448
3, 18787, Pitch_bend_c, 1, 8448
3, 19008, Note_off_c, 1, 74, 0
3, 23746, Pitch_bend_c, 1, 640
3, 23749, Pitch_bend_c, 1, 0
3, 23751, Pitch_bend_c, 1, 0
3, 23752, Pitch_bend_c, 1, 0
3, 23754, Pitch_bend_c, 1, 0
3, 23755, Pitch_bend_c, 1, 0
3, 23757, Pitch_bend_c, 1, 0
3, 23758, Pitch_bend_c, 1, 0
3, 23760, Note_on_c, 1, 57, 68
3, 23760, Pitch_bend_c, 1, 0
3, 23760, Note_on_c, 1, 69, 68
3, 23760, Note_on_c, 1, 81, 68
3, 23760, Note_on_c, 1, 85, 100
3, 23761, Pitch_bend_c, 1, 0
3, 23763, Pitch_bend_c, 1, 0
3, 23764, Pitch_bend_c, 1, 256
3, 23766, Pitch_bend_c, 1, 256
3, 23767, Pitch_bend_c, 1, 640
3, 23769, Pitch_bend_c, 1, 640
3, 23770, Pitch_bend_c, 1, 896
3, 23772, Pitch_bend_c, 1, 1280
3, 23773, Pitch_bend_c, 1, 1280
3, 23775, Pitch_bend_c, 1, 1664
3, 23776, Pitch_bend_c, 1, 1664
3, 23778, Pitch_bend_c, 1, 1664
3, 23779, Pitch_bend_c, 1, 1920
3, 23781, Pitch_bend_c, 1, 1920
3, 23782, Pitch_bend_c, 1, 1920
3, 23784, Pitch_bend_c, 1, 2688
3, 23785, Pitch_bend_c, 1, 2688
3, 23787, Pitch_bend_c, 1, 2944
3, 23788, Pitch_bend_c, 1, 2944
3, 23790, Pitch_bend_c, 1, 2944
3, 23791, Pitch_bend_c, 1, 2944
3, 23793, Pitch_bend_c, 1, 3712
3, 23794, Pitch_bend_c, 1, 3712
3, 23796, Pitch_bend_c, 1, 3712
3, 23797, Pitch_bend_c, 1, 3968
3, 23799, Pitch_bend_c, 1, 4352
3, 23800, Pitch_bend_c, 1, 4352
3, 23802, Pitch_bend_c, 1, 4352
3, 23803, Pitch_bend_c, 1, 4352
3, 23805, Pitch_bend_c, 1, 4992
3, 23806, Pitch_bend_c, 1, 4992
3, 23808, Pitch_bend_c, 1, 4992
3, 23809, Pitch_bend_c, 1, 5376
3, 23811, Pitch_bend_c, 1, 5376
3, 23812, Pitch_bend_c, 1, 5632
3, 23814, Pitch_bend_c, 1, 5632
3, 23815, Pitch_bend_c, 1, 5632
3, 23817, Pitch_bend_c, 1, 5632
3, 23818, Pitch_bend_c, 1, 5632
3, 23820, Pitch_bend_c, 1, 6016
3, 23821, Pitch_bend_c, 1, 6400
3, 23823, Pitch_bend_c, 1, 6656
3, 23824, Pitch_bend_c, 1, 6656
3, 23826, Pitch_bend_c, 1, 7040
3, 23827, Pitch_bend_c, 1, 7040
3, 23829, Pitch_bend_c, 1, 7040
3, 23830, Pitch_bend_c, 1, 7424
3, 23832, Pitch_bend_c, 1, 7424
3, 23833, Pitch_bend_c, 1, 7680
3, 23835, Pitch_bend_c, 1, 8064
3, 23836, Pitch_bend_c, 1, 8448
3, 23838, Pitch_bend_c, 1, 8448
3, 23839, Pitch_bend_c, 1, 8704
3, 23841, Pitch_bend_c, 1, 9088
3, 23842, Pitch_bend_c, 1, 9088
3, 23844, Pitch_bend_c, 1, 9728
3, 23845, Pitch_bend_c, 1, 9728
3, 23847, Pitch_bend_c, 1, 9728
3, 23848, Pitch_bend_c, 1, 10112
3, 23850, Pitch_bend_c, 1, 10112
3, 23851, Pitch_bend_c, 1, 10752
3, 23853, Pitch_bend_c, 1, 10752
3, 23854, Pitch_bend_c, 1, 11136
3, 23856, Pitch_bend_c, 1, 11136
3, 23857, Pitch_bend_c, 1, 11136
3, 23859, Pitch_bend_c, 1, 11136
3, 23860, Pitch_bend_c, 1, 11392
3, 23862, Pitch_bend_c, 1, 11776
3, 23863, Pitch_bend_c, 1, 11776
3, 23865, Pitch_bend_c, 1, 11776
3, 23866, Pitch_bend_c, 1, 12160
3, 23868, Pitch_bend_c, 1, 12160
3, 23869, Pitch_bend_c, 1, 12416
3, 23871, Pitch_bend_c, 1, 12416
3, 23872, Pitch_bend_c, 1, 13184
3, 23874, Pitch_bend_c, 1, 13184
3, 23875, Pitch_bend_c, 1, 13184
3, 23877, Pitch_bend_c, 1, 13184
3, 23878, Pitch_bend_c, 1, 13440
3, 23880, Pitch_bend_c, 1, 14208
3, 23881, Pitch_bend_c, 1, 14464
3, 23883, Pitch_bend_c, 1, 14464
3, 23884, Pitch_bend_c, 1, 15232
3, 23886, Pitch_bend_c, 1, 15488
3, 23887, Pitch_bend_c, 1, 15488
3, 23889, Pitch_bend_c, 1, 15872
3, 23890, Pitch_bend_c, 1, 15872
3, 23892, Pitch_bend_c, 1, 15872
3, 23893, Pitch_bend_c, 1, 16383
3, 23895, Pitch_bend_c, 1, 16383
3, 23896, Pitch_bend_c, 1, 16383
3, 23898, Pitch_bend_c, 1, 16383
3, 23899, Pitch_bend_c, 1, 16383
3, 23901, Pitch_bend_c, 1, 16383
3, 23904, Note_off_c, 1, 57, 0
3, 23904, Note_off_c, 1, 69, 0
3, 23904, Note_off_c, 1, 81, 0
3, 23904, Note_off_c, 1, 85, 0
3, 23905, Pitch_bend_c, 1, 8064
3, 24144, Note_on_c, 1, 79, 63
3, 24144, Note_on_c, 1, 83, 63
3, 24168, Note_off_c, 1, 79, 0
3, 24168, Note_off_c, 1, 83, 0
3, 24168, Note_on_c, 1, 79, 76
3, 24168, Note_on_c, 1, 83, 76
3, 24192, Note_off_c, 1, 79, 0
3, 24192, Note_off_c, 1, 83, 0
3, 24192, Note_on_c, 1, 79, 87
3, 24192, Note_on_c, 1, 83, 87
3, 24216, Note_off_c, 1, 79, 0
3, 24216, Note_off_c, 1, 83, 0
3, 24216, Note_on_c, 1, 79, 103
3, 24216, Note_on_c, 1, 83, 103
3, 24240, Note_off_c, 1, 79, 0
3, 24240, Note_off_c, 1, 83, 0
3, 24240, Note_on_c, 1, 79, 92
3, 24240, Note_on_c, 1, 83, 92
3, 24264, Note_off_c, 1, 79, 0
3, 24264, Note_off_c, 1, 83, 0
3, 24264, Note_on_c, 1, 79, 103
3, 24264, Note_on_c, 1, 83, 103
3, 24288, Note_off_c, 1, 79, 0
3, 24288, Note_off_c, 1, 83, 0
3, 24288, Note_on_c, 1, 79, 127
3, 24288, Note_on_c, 1, 83, 127
3, 24288, Note_on_c, 1, 83, 127
3, 24312, Note_off_c, 1, 79, 0
3, 24312, Note_off_c, 1, 83, 0
3, 24312, Note_off_c, 1, 83, 0
3, 24312, Note_on_c, 1, 79, 127
3, 24312, Note_on_c, 1, 83, 127
3, 24336, Note_off_c, 1, 79, 0
3, 24336, Note_off_c, 1, 83, 0
3, 24336, Note_on_c, 1, 79, 127
3, 24336, Note_on_c, 1, 83, 127
3, 24360, Note_off_c, 1, 79, 0
3, 24360, Note_off_c, 1, 83, 0
3, 24360, Note_on_c, 1, 79, 127
3, 24360, Note_on_c, 1, 83, 127
3, 24384, Note_off_c, 1, 79, 0
3, 24384, Note_off_c, 1, 83, 0
3, 24384, Note_on_c, 1, 79, 108
3, 24384, Note_on_c, 1, 83, 108
3, 24408, Note_off_c, 1, 79, 0
3, 24408, Note_off_c, 1, 83, 0
3, 24408, Note_on_c, 1, 79, 124
3, 24408, Note_on_c, 1, 83, 124
3, 24432, Note_off_c, 1, 79, 0
3, 24432, Note_off_c, 1, 83, 0
3, 24432, Note_on_c, 1, 79, 103
3, 24432, Note_on_c, 1, 83, 103
3, 24456, Note_off_c, 1, 79, 0
3, 24456, Note_off_c, 1, 83, 0
3, 24456, Note_on_c, 1, 79, 82
3, 24456, Note_on_c, 1, 83, 82
3, 24480, Note_off_c, 1, 79, 0
3, 24480, Note_off_c, 1, 83, 0
3, 24480, Note_on_c, 1, 79, 127
3, 24480, Note_on_c, 1, 83, 127
3, 24768, Note_off_c, 1, 79, 0
3, 24768, Note_off_c, 1, 83, 0
3, 25296, Note_on_c, 1, 79, 63
3, 25296, Note_on_c, 1, 83, 63
3, 25320, Note_off_c, 1, 79, 0
3, 25320, Note_off_c, 1, 83, 0
3, 25320, Note_on_c, 1, 79, 76
3, 25320, Note_on_c, 1, 83, 76
3, 25344, Note_off_c, 1, 79, 0
3, 25344, Note_off_c, 1, 83, 0
3, 25344, Note_on_c, 1, 79, 87
3, 25344, Note_on_c, 1, 83, 87
3, 25368, Note_off_c, 1, 79, 0
3, 25368, Note_off_c, 1, 83, 0
3, 25368, Note_on_c, 1, 79, 103
3, 25368, Note_on_c, 1, 83, 103
3, 25392, Note_off_c, 1, 79, 0
3, 25392, Note_off_c, 1, 83, 0
3, 25392, Note_on_c, 1, 79, 92
3, 25392, Note_on_c, 1, 83, 92
3, 25416, Note_off_c, 1, 79, 0
3, 25416, Note_off_c, 1, 83, 0
3, 25416, Note_on_c, 1, 79, 103
3, 25416, Note_on_c, 1, 83, 103
3, 25440, Note_off_c, 1, 79, 0
3, 25440, Note_off_c, 1, 83, 0
3, 25440, Note_on_c, 1, 79, 127
3, 25440, Note_on_c, 1, 83, 127
3, 25440, Note_on_c, 1, 83, 127
3, 25464, Note_off_c, 1, 79, 0
3, 25464, Note_off_c, 1, 83, 0
3, 25464, Note_off_c, 1, 83, 0
3, 25464, Note_on_c, 1, 79, 127
3, 25464, Note_on_c, 1, 83, 127
3, 25488, Note_off_c, 1, 79, 0
3, 25488, Note_off_c, 1, 83, 0
3, 25488, Note_on_c, 1, 79, 127
3, 25488, Note_on_c, 1, 83, 127
3, 25512, Note_off_c, 1, 79, 0
3, 25512, Note_off_c, 1, 83, 0
3, 25512, Note_on_c, 1, 79, 127
3, 25512, Note_on_c, 1, 83, 127
3, 25536, Note_off_c, 1, 79, 0
3, 25536, Note_off_c, 1, 83, 0
3, 25536, Note_on_c, 1, 79, 108
3, 25536, Note_on_c, 1, 83, 108
3, 25560, Note_off_c, 1, 79, 0
3, 25560, Note_off_c, 1, 83, 0
3, 25560, Note_on_c, 1, 79, 124
3, 25560, Note_on_c, 1, 83, 124
3, 25584, Note_off_c, 1, 79, 0
3, 25584, Note_off_c, 1, 83, 0
3, 25584, Note_on_c, 1, 79, 103
3, 25584, Note_on_c, 1, 83, 103
3, 25608, Note_off_c, 1, 79, 0
3, 25608, Note_off_c, 1, 83, 0
3, 25608, Note_on_c, 1, 79, 82
3, 25608, Note_on_c, 1, 83, 82
3, 25632, Note_off_c, 1, 79, 0
3, 25632, Note_off_c, 1, 83, 0
3, 25632, Note_on_c, 1, 79, 127
3, 25632, Note_on_c, 1, 83, 127
3, 25920, Note_off_c, 1, 79, 0
3, 25920, Note_off_c, 1, 83, 0
3, 26448, Note_on_c, 1, 79, 63
3, 26448, Note_on_c, 1, 83, 63
3, 26472, Note_off_c, 1, 79, 0
3, 26472, Note_off_c, 1, 83, 0
3, 26472, Note_on_c, 1, 79, 76
3, 26472, Note_on_c, 1, 83, 76
3, 26496, Note_off_c, 1, 79, 0
3, 26496, Note_off_c, 1, 83, 0
3, 26496, Note_on_c, 1, 79, 87
3, 26496, Note_on_c, 1, 83, 87
3, 26520, Note_off_c, 1, 79, 0
3, 26520, Note_off_c, 1, 83, 0
3, 26520, Note_on_c, 1, 79, 103
3, 26520, Note_on_c, 1, 83, 103
3, 26544, Note_off_c, 1, 79, 0
3, 26544, Note_off_c, 1, 83, 0
3, 26544, Note_on_c, 1, 79, 92
3, 26544, Note_on_c, 1, 83, 92
3, 26568, Note_off_c, 1, 79, 0
3, 26568, Note_off_c, 1, 83, 0
3, 26568, Note_on_c, 1, 79, 103
3, 26568, Note_on_c, 1, 83, 103
3, 26592, Note_off_c, 1, 79, 0
3, 26592, Note_off_c, 1, 83, 0
3, 26592, Note_on_c, 1, 79, 127
3, 26592, Note_on_c, 1, 83, 127
3, 26592, Note_on_c, 1, 83, 127
3, 26616, Note_off_c, 1, 79, 0
3, 26616, Note_off_c, 1, 83, 0
3, 26616, Note_off_c, 1, 83, 0
3, 26616, Note_on_c, 1, 79, 127
3, 26616, Note_on_c, 1, 83, 127
3, 26640, Note_off_c, 1, 79, 0
3, 26640, Note_off_c, 1, 83, 0
3, 26640, Note_on_c, 1, 79, 127
3, 26640, Note_on_c, 1, 83, 127
3, 26664, Note_off_c, 1, 79, 0
3, 26664, Note_off_c, 1, 83, 0
3, 26664, Note_on_c, 1, 79, 127
3, 26664, Note_on_c, 1, 83, 127
3, 26688, Note_off_c, 1, 79, 0
3, 26688, Note_off_c, 1, 83, 0
3, 26688, Note_on_c, 1, 79, 108
3, 26688, Note_on_c, 1, 83, 108
3, 26712, Note_off_c, 1, 79, 0
3, 26712, Note_off_c, 1, 83, 0
3, 26712, Note_on_c, 1, 79, 124
3, 26712, Note_on_c, 1, 83, 124
3, 26736, Note_off_c, 1, 79, 0
3, 26736, Note_off_c, 1, 83, 0
3, 26736, Note_on_c, 1, 79, 103
3, 26736, Note_on_c, 1, 83, 103
3, 26760, Note_off_c, 1, 79, 0
3, 26760, Note_off_c, 1, 83, 0
3, 26760, Note_on_c, 1, 79, 82
3, 26760, Note_on_c, 1, 83, 82
3, 26784, Note_off_c, 1, 79, 0
3, 26784, Note_off_c, 1, 83, 0
3, 26784, Note_on_c, 1, 79, 127
3, 26784, Note_on_c, 1, 83, 127
3, 27072, Note_off_c, 1, 79, 0
3, 27072, Note_off_c, 1, 83, 0
3, 27600, Note_on_c, 1, 79, 63
3, 27600, Note_on_c, 1, 83, 63
3, 27624, Note_off_c, 1, 79, 0
3, 27624, Note_off_c, 1, 83, 0
3, 27624, Note_on_c, 1, 79, 76
3, 27624, Note_on_c, 1, 83, 76
3, 27648, Note_off_c, 1, 79, 0
3, 27648, Note_off_c, 1, 83, 0
3, 27648, Note_on_c, 1, 79, 87
3, 27648, Note_on_c, 1, 83, 87
3, 27672, Note_off_c, 1, 79, 0
3, 27672, Note_off_c, 1, 83, 0
3, 27672, Note_on_c, 1, 79, 103
3, 27672, Note_on_c, 1, 83, 103
3, 27696, Note_off_c, 1, 79, 0
3, 27696, Note_off_c, 1, 83, 0
3, 27696, Note_on_c, 1, 79, 92
3, 27696, Note_on_c, 1, 83, 92
3, 27720, Note_off_c, 1, 79, 0
3, 27720, Note_off_c, 1, 83, 0
3, 27720, Note_on_c, 1, 79, 103
3, 27720, Note_on_c, 1, 83, 103
3, 27744, Note_off_c, 1, 79, 0
3, 27744, Note_off_c, 1, 83, 0
3, 27744, Note_on_c, 1, 79, 127
3, 27744, Note_on_c, 1, 83, 127
3, 27744, Note_on_c, 1, 83, 127
3, 27768, Note_off_c, 1, 79, 0
3, 27768, Note_off_c, 1, 83, 0
3, 27768, Note_off_c, 1, 83, 0
3, 27768, Note_on_c, 1, 79, 127
3, 27768, Note_on_c, 1, 83, 127
3, 27792, Note_off_c, 1, 79, 0
3, 27792, Note_off_c, 1, 83, 0
3, 27792, Note_on_c, 1, 79, 127
3, 27792, Note_on_c, 1, 83, 127
3, 27816, Note_off_c, 1, 79, 0
3, 27816, Note_off_c, 1, 83, 0
3, 27816, Note_on_c, 1, 79, 127
3, 27816, Note_on_c, 1, 83, 127
3, 27840, Note_off_c, 1, 79, 0
3, 27840, Note_off_c, 1, 83, 0
3, 27840, Note_on_c, 1, 79, 108
3, 27840, Note_on_c, 1, 83, 108
3, 27864, Note_off_c, 1, 79, 0
3, 27864, Note_off_c, 1, 83, 0
3, 27864, Note_on_c, 1, 79, 124
3, 27864, Note_on_c, 1, 83, 124
3, 27888, Note_off_c, 1, 79, 0
3, 27888, Note_off_c, 1, 83, 0
3, 27888, Note_on_c, 1, 79, 103
3, 27888, Note_on_c, 1, 83, 103
3, 27912, Note_off_c, 1, 79, 0
3, 27912, Note_off_c, 1, 83, 0
3, 27912, Note_on_c, 1, 79, 82
3, 27912, Note_on_c, 1, 83, 82
3, 27936, Note_off_c, 1, 79, 0
3, 27936, Note_off_c, 1, 83, 0
3, 27936, Note_on_c, 1, 69, 100
3, 27960, Note_on_c, 1, 71, 100
3, 27984, Note_on_c, 1, 74, 100
3, 28032, Note_off_c, 1, 69, 0
3, 28056, Note_off_c, 1, 71, 0
3, 28080, Note_off_c, 1, 74, 0
3, 28080, Note_on_c, 1, 76, 100
3, 28104, Note_on_c, 1, 74, 100
3, 28128, Note_on_c, 1, 71, 100
3, 28224, Note_off_c, 1, 74, 0
3, 28248, Note_off_c, 1, 76, 0
3, 28368, Note_off_c, 1, 71, 0
3, 28368, Note_on_c, 1, 76, 100
3, 28392, Note_on_c, 1, 74, 100
3, 28416, Note_on_c, 1, 71, 100
3, 28512, Note_off_c, 1, 76, 0
3, 28512, Note_off_c, 1, 74, 0
3, 28656, Note_off_c, 1, 71, 0
3, 28656, Note_on_c, 1, 72, 100
3, 28680, Note_on_c, 1, 67, 100
3, 28704, Note_on_c, 1, 63, 100
3, 28752, Note_off_c, 1, 72, 0
3, 28752, Note_off_c, 1, 67, 0
3, 28800, Note_off_c, 1, 63, 0
3, 28800, Note_on_c, 1, 63, 100
3, 28800, Note_on_c, 1, 67, 100
3, 28800, Note_on_c, 1, 72, 100
3, 28944, Note_off_c, 1, 72, 0
3, 28944, Note_on_c, 1, 71, 100
3, 29088, Note_off_c, 1, 63, 0
3, 29088, Note_off_c, 1, 67, 0
3, 29088, Note_off_c, 1, 71, 0
3, 29808, Note_on_c, 1, 74, 100
3, 29832, Note_on_c, 1, 72, 100
3, 29856, Note_off_c, 1, 74, 0
3, 29856, Note_on_c, 1, 71, 100
3, 29880, Note_off_c, 1, 72, 0
3, 29880, Note_on_c, 1, 72, 100
3, 29904, Note_off_c, 1, 71, 0
3, 29904, Note_on_c, 1, 71, 100
3, 29904, Note_on_c, 1, 74, 100
3, 29928, Note_off_c, 1, 72, 0
3, 29928, Note_on_c, 1, 72, 100
3, 29952, Note_off_c, 1, 71, 0
3, 29952, Note_off_c, 1, 74, 0
3, 29952, Note_on_c, 1, 43, 100
3, 29952, Note_on_c, 1, 71, 100
3, 29952, Note_on_c, 1, 74, 100
3, 29976, Note_off_c, 1, 72, 0
3, 30240, Note_off_c, 1, 43, 0
3, 30240, Note_off_c, 1, 71, 0
3, 30240, Note_off_c, 1, 74, 0
3, 30240, End_track
4, 0, Start_track
4, 0, Title_t, "Track 3\000"
4, 0, Program_c, 2, 5
4, 0, Control_c, 2, 7, 125
4, 0, Control_c, 2, 10, 98
4, 0, Control_c, 2, 91, 127
4, 0, Control_c, 2, 93, 127
4, 1152, Control_c, 2, 1, 103
4, 1152, Note_on_c, 2, 43, 100
4, 1152, Note_on_c, 2, 59, 100
4, 1152, Note_on_c, 2, 62, 100
4, 1153, Control_c, 2, 1, 103
4, 1154, Control_c, 2, 1, 103
4, 1155, Control_c, 2, 1, 127
4, 1156, Control_c, 2, 1, 100
4, 1157, Control_c, 2, 1, 100
4, 1440, Note_off_c, 2, 43, 0
4, 1440, Note_off_c, 2, 59, 0
4, 1440, Note_off_c, 2, 62, 0
4, 1440, Note_on_c, 2, 43, 100
4, 1440, Note_on_c, 2, 59, 100
4, 1440, Note_on_c, 2, 64, 100
4, 1632, Note_off_c, 2, 59, 0
4, 1632, Note_on_c, 2, 59, 100
4, 1680, Note_off_c, 2, 59, 0
4, 1680, Note_on_c, 2, 55, 100
4, 1728, Note_off_c, 2, 43, 0
4, 1728, Note_off_c, 2, 64, 0
4, 1728, Note_off_c, 2, 55, 0
4, 1728, Note_on_c, 2, 43, 100
4, 1728, Note_on_c, 2, 60, 100
4, 1728, Note_on_c, 2, 63, 100
4, 2016, Note_off_c, 2, 43, 0
4, 2016, Note_off_c, 2, 60, 0
4, 2016, Note_off_c, 2, 63, 0
4, 2016, Note_on_c, 2, 43, 100
4, 2016, Note_on_c, 2, 59, 100
4, 2016, Note_on_c, 2, 62, 100
4, 2208, Note_off_c, 2, 59, 0
4, 2208, Note_on_c, 2, 60, 100
4, 2256, Note_off_c, 2, 60, 0
4, 2256, Note_on_c, 2, 59, 100
4, 2304, Note_off_c, 2, 43, 0
4, 2304, Note_off_c, 2, 62, 0
4, 2304, Note_off_c, 2, 59, 0
4, 2304, Note_on_c, 2, 43, 100
4, 2304, Note_on_c, 2, 59, 100
4, 2304, Note_on_c, 2, 62, 100
4, 2592, Note_off_c, 2, 43, 0
4, 2592, Note_off_c, 2, 59, 0
4, 2592, Note_off_c, 2, 62, 0
4, 2592, Note_on_c, 2, 43, 100
4, 2592, Note_on_c, 2, 59, 100
4, 2592, Note_on_c, 2, 64, 100
4, 2784, Note_off_c, 2, 59, 0
4, 2784, Note_on_c, 2, 59, 100
4, 2832, Note_off_c, 2, 59, 0
4, 2832, Note_on_c, 2, 55, 100
4, 2880, Note_off_c, 2, 43, 0
4, 2880, Note_off_c, 2, 64, 0
4, 2880, Note_off_c, 2, 55, 0
4, 2880, Note_on_c, 2, 43, 100
4, 2880, Note_on_c, 2, 60, 100
4, 2880, Note_on_c, 2, 63, 100
4, 3168, Note_off_c, 2, 43, 0
4, 3168, Note_off_c, 2, 60, 0
4, 3168, Note_off_c, 2, 63, 0
4, 3168, Note_on_c, 2, 47, 100
4, 3168, Note_on_c, 2, 59, 100
4, 3192, Note_off_c, 2, 59, 0
4, 3192, Note_on_c, 2, 48, 100
4, 3192, Note_on_c, 2, 60, 100
4, 3216, Note_on_c, 2, 59, 100
4, 3240, Note_off_c, 2, 48, 0
4, 3240, Note_off_c, 2, 60, 0
4, 3240, Note_off_c, 2, 59, 0
4, 3240, Note_on_c, 2, 48, 100
4, 3240, Note_on_c, 2, 60, 100
4, 3312, Note_off_c, 2, 48, 0
4, 3312, Note_off_c, 2, 60, 0
4, 3312, Note_on_c, 2, 59, 100
4, 3336, Note_off_c, 2, 59, 0
4, 3336, Note_on_c, 2, 48, 100
4, 3336, Note_on_c, 2, 60, 100
4, 3384, Note_off_c, 2, 48, 0
4, 3384, Note_off_c, 2, 60, 0
4, 3384, Note_on_c, 2, 48, 100
4, 3384, Note_on_c, 2, 60, 100
4, 3456, Note_off_c, 2, 47, 0
4, 3456, Note_off_c, 2, 48, 0
4, 3456, Note_off_c, 2, 60, 0
4, 3456, Note_on_c, 2, 43, 100
4, 3456, Note_on_c, 2, 47, 100
4, 3456, Note_on_c, 2, 50, 100
4, 3456, Note_on_c, 2, 53, 100
4, 3456, Note_on_c, 2, 59, 100
4, 3744, Note_off_c, 2, 43, 0
4, 3744, Note_off_c, 2, 47, 0
4, 3744, Note_off_c, 2, 50, 0
4, 3744, Note_off_c, 2, 53, 0
4, 3744, Note_off_c, 2, 59, 0
4, 3744, Note_on_c, 2, 43, 100
4, 3744, Note_on_c, 2, 47, 100
4, 3744, Note_on_c, 2, 52, 100
4, 3744, Note_on_c, 2, 59, 100
4, 3936, Note_off_c, 2, 59, 0
4, 3936, Note_on_c, 2, 59, 100
4, 3936, Note_on_c, 2, 64, 100
4, 3948, Note_off_c, 2, 59, 0
4, 3948, Note_off_c, 2, 64, 0
4, 4032, Note_off_c, 2, 43, 0
4, 4032, Note_off_c, 2, 47, 0
4, 4032, Note_off_c, 2, 52, 0
4, 4032, Note_on_c, 2, 48, 100
4, 4032, Note_on_c, 2, 55, 100
4, 4032, Note_on_c, 2, 63, 100
4, 4224, Note_on_c, 2, 62, 100
4, 4320, Note_off_c, 2, 48, 0
4, 4320, Note_off_c, 2, 55, 0
4, 4320, Note_off_c, 2, 63, 0
4, 4320, Note_off_c, 2, 62, 0
4, 4320, Note_on_c, 2, 43, 100
4, 4320, Note_on_c, 2, 50, 100
4, 4320, Note_on_c, 2, 55, 100
4, 4320, Note_on_c, 2, 60, 100
4, 4464, Note_off_c, 2, 60, 0
4, 4464, Note_on_c, 2, 59, 100
4, 4608, Note_off_c, 2, 43, 0
4, 4608, Note_off_c, 2, 50, 0
4, 4608, Note_off_c, 2, 55, 0
4, 4608, Note_off_c, 2, 59, 0
4, 4608, Note_on_c, 2, 43, 100
4, 4608, Note_on_c, 2, 53, 100
4, 4608, Note_on_c, 2, 59, 100
4, 4608, Note_on_c, 2, 62, 100
4, 4896, Note_off_c, 2, 43, 0
4, 4896, Note_off_c, 2, 53, 0
4, 4896, Note_off_c, 2, 59, 0
4, 4896, Note_off_c, 2, 62, 0
4, 4896, Note_on_c, 2, 43, 100
4, 4896, Note_on_c, 2, 47, 100
4, 4896, Note_on_c, 2, 52, 100
4, 4896, Note_on_c, 2, 59, 100
4, 4896, Note_on_c, 2, 64, 100
4, 5184, Note_off_c, 2, 43, 0
4, 5184, Note_off_c, 2, 47, 0
4, 5184, Note_off_c, 2, 52, 0
4, 5184, Note_off_c, 2, 59, 0
4, 5184, Note_off_c, 2, 64, 0
4, 5184, Note_on_c, 2, 63, 127
4, 5472, Note_off_c, 2, 63, 0
4, 5496, Note_on_c, 2, 53, 100
4, 5496, Note_on_c, 2, 55, 100
4, 5496, Note_on_c, 2, 60, 100
4, 5544, Note_off_c, 2, 53, 0
4, 5544, Note_off_c, 2, 55, 0
4, 5544, Note_off_c, 2, 60, 0
4, 5568, Note_on_c, 2, 53, 100
4, 5568, Note_on_c, 2, 55, 60
4, 5568, Note_on_c, 2, 60, 60
4, 5592, Note_off_c, 2, 53, 0
4, 5592, Note_off_c, 2, 55, 0
4, 5592, Note_off_c, 2, 60, 0
4, 5640, Note_on_c, 2, 53, 100
4, 5640, Note_on_c, 2, 55, 100
4, 5640, Note_on_c, 2, 60, 100
4, 5664, Note_off_c, 2, 53, 0
4, 5664, Note_off_c, 2, 55, 0
4, 5664, Note_off_c, 2, 60, 0
4, 5688, Note_on_c, 2, 53, 100
4, 5688, Note_on_c, 2, 55, 95
4, 5688, Note_on_c, 2, 60, 95
4, 5712, Note_off_c, 2, 53, 0
4, 5712, Note_off_c, 2, 55, 0
4, 5712, Note_off_c, 2, 60, 0
4, 5712, Note_on_c, 2, 53, 100
4, 5712, Note_on_c, 2, 55, 44
4, 5712, Note_on_c, 2, 60, 44
4, 5724, Note_off_c, 2, 53, 0
4, 5724, Note_off_c, 2, 55, 0
4, 5724, Note_off_c, 2, 60, 0
4, 5736, Note_on_c, 2, 53, 100
4, 5736, Note_on_c, 2, 55, 95
4, 5736, Note_on_c, 2, 60, 95
4, 5748, Note_off_c, 2, 55, 0
4, 5748, Note_off_c, 2, 60, 0
4, 5760, Note_on_c, 2, 43, 100
4, 5760, Note_on_c, 2, 53, 100
4, 5760, Note_on_c, 2, 59, 100
4, 5760, Note_on_c, 2, 62, 100
4, 5772, Note_off_c, 2, 53, 0
4, 5976, Note_off_c, 2, 59, 0
4, 5976, Note_on_c, 2, 59, 100
4, 6024, Note_off_c, 2, 59, 0
4, 6024, Note_on_c, 2, 59, 100
4, 6048, Note_off_c, 2, 43, 0
4, 6048, Note_off_c, 2, 53, 0
4, 6048, Note_off_c, 2, 62, 0
4, 6048, Note_off_c, 2, 59, 0
4, 6048, Note_on_c, 2, 50, 100
4, 6048, Note_on_c, 2, 59, 100
4, 6048, Note_on_c, 2, 64, 100
4, 6240, Note_on_c, 2, 55, 100
4, 6288, Note_off_c, 2, 59, 0
4, 6288, Note_off_c, 2, 55, 0
4, 6288, Note_on_c, 2, 59, 100
4, 6336, Note_off_c, 2, 50, 0
4, 6336, Note_off_c, 2, 64, 0
4, 6336, Note_off_c, 2, 59, 0
4, 6336, Note_on_c, 2, 63, 127
4, 6480, Note_on_c, 2, 62, 100
4, 6624, Note_off_c, 2, 63, 0
4, 6624, Note_off_c, 2, 62, 0
4, 6624, Note_on_c, 2, 60, 100
4, 6648, Note_on_c, 2, 55, 100
4, 6696, Note_off_c, 2, 55, 0
4, 6720, Note_on_c, 2, 55, 60
4, 6744, Note_off_c, 2, 55, 0
4, 6768, Note_off_c, 2, 60, 0
4, 6768, Note_on_c, 2, 60, 100
4, 6792, Note_on_c, 2, 55, 100
4, 6816, Note_off_c, 2, 55, 0
4, 6840, Note_on_c, 2, 55, 95
4, 6864, Note_off_c, 2, 55, 0
4, 6864, Note_on_c, 2, 55, 44
4, 6876, Note_off_c, 2, 55, 0
4, 6888, Note_on_c, 2, 55, 95
4, 6900, Note_off_c, 2, 55, 0
4, 6912, Note_off_c, 2, 60, 0
4, 6912, Note_on_c, 2, 43, 100
4, 6912, Note_on_c, 2, 47, 100
4, 6912, Note_on_c, 2, 50, 100
4, 6912, Note_on_c, 2, 53, 100
4, 6912, Note_on_c, 2, 59, 100
4, 7056, Note_off_c, 2, 59, 0
4, 7080, Note_off_c, 2, 53, 0
4, 7080, Note_on_c, 2, 53, 71
4, 7080, Note_on_c, 2, 60, 71
4, 7128, Note_off_c, 2, 53, 0
4, 7128, Note_off_c, 2, 60, 0
4, 7128, Note_on_c, 2, 53, 84
4, 7128, Note_on_c, 2, 60, 84
4, 7200, Note_off_c, 2, 43, 0
4, 7200, Note_off_c, 2, 47, 0
4, 7200, Note_off_c, 2, 50, 0
4, 7200, Note_off_c, 2, 53, 0
4, 7200, Note_off_c, 2, 60, 0
4, 7200, Note_on_c, 2, 43, 103
4, 7200, Note_on_c, 2, 47, 103
4, 7200, Note_on_c, 2, 52, 103
4, 7200, Note_on_c, 2, 59, 103
4, 7392, Note_off_c, 2, 59, 0
4, 7488, Note_off_c, 2, 43, 0
4, 7488, Note_off_c, 2, 47, 0
4, 7488, Note_off_c, 2, 52, 0
4, 7488, Note_on_c, 2, 48, 100
4, 7488, Note_on_c, 2, 55, 100
4, 7488, Note_on_c, 2, 60, 100
4, 7680, Note_on_c, 2, 62, 100
4, 7776, Note_off_c, 2, 48, 0
4, 7776, Note_off_c, 2, 55, 0
4, 7776, Note_off_c, 2, 60, 0
4, 7776, Note_off_c, 2, 62, 0
4, 7776, Note_on_c, 2, 43, 100
4, 7776, Note_on_c, 2, 50, 100
4, 7776, Note_on_c, 2, 55, 100
4, 7776, Note_on_c, 2, 60, 100
4, 7920, Note_off_c, 2, 60, 0
4, 7920, Note_on_c, 2, 60, 100
4, 7992, Note_off_c, 2, 60, 0
4, 7992, Note_on_c, 2, 59, 100
4, 8064, Note_off_c, 2, 43, 0
4, 8064, Note_off_c, 2, 50, 0
4, 8064, Note_off_c, 2, 55, 0
4, 8064, Note_off_c, 2, 59, 0
4, 8064, Note_on_c, 2, 43, 100
4, 8064, Note_on_c, 2, 53, 100
4, 8064, Note_on_c, 2, 59, 100
4, 8064, Note_on_c, 2, 62, 100
4, 8352, Note_off_c, 2, 43, 0
4, 8352, Note_off_c, 2, 53, 0
4, 8352, Note_off_c, 2, 59, 0
4, 8352, Note_off_c, 2, 62, 0
4, 8352, Note_on_c, 2, 43, 100
4, 8352, Note_on_c, 2, 47, 100
4, 8352, Note_on_c, 2, 52, 100
4, 8352, Note_on_c, 2, 59, 100
4, 8352, Note_on_c, 2, 64, 100
4, 8640, Note_off_c, 2, 43, 0
4, 8640, Note_off_c, 2, 47, 0
4, 8640, Note_off_c, 2, 52, 0
4, 8640, Note_off_c, 2, 59, 0
4, 8640, Note_off_c, 2, 64, 0
4, 8640, Note_on_c, 2, 63, 127
4, 8928, Note_off_c, 2, 63, 0
4, 8952, Note_on_c, 2, 55, 100
4, 8952, Note_on_c, 2, 60, 100
4, 9000, Note_off_c, 2, 55, 0
4, 9000, Note_off_c, 2, 60, 0
4, 9024, Note_on_c, 2, 55, 60
4, 9024, Note_on_c, 2, 60, 60
4, 9048, Note_off_c, 2, 55, 0
4, 9048, Note_off_c, 2, 60, 0
4, 9096, Note_on_c, 2, 55, 100
4, 9096, Note_on_c, 2, 60, 100
4, 9120, Note_off_c, 2, 55, 0
4, 9120, Note_off_c, 2, 60, 0
4, 9144, Note_on_c, 2, 55, 95
4, 9144, Note_on_c, 2, 60, 95
4, 9168, Note_off_c, 2, 55, 0
4, 9168, Note_off_c, 2, 60, 0
4, 9168, Note_on_c, 2, 55, 44
4, 9168, Note_on_c, 2, 60, 44
4, 9180, Note_off_c, 2, 55, 0
4, 9180, Note_off_c, 2, 60, 0
4, 9192, Note_on_c, 2, 55, 95
4, 9192, Note_on_c, 2, 60, 95
4, 9204, Note_off_c, 2, 55, 0
4, 9204, Note_off_c, 2, 60, 0
4, 9216, Control_c, 2, 1, 103
4, 9216, Note_on_c, 2, 43, 100
4, 9216, Note_on_c, 2, 59, 100
4, 9216, Note_on_c, 2, 62, 100
4, 9217, Control_c, 2, 1, 103
4, 9218, Control_c, 2, 1, 103
4, 9219, Control_c, 2, 1, 127
4, 9220, Control_c, 2, 1, 100
4, 9221, Control_c, 2, 1, 100
4, 9504, Note_off_c, 2, 43, 0
4, 9504, Note_off_c, 2, 59, 0
4, 9504, Note_off_c, 2, 62, 0
4, 9504, Note_on_c, 2, 43, 100
4, 9504, Note_on_c, 2, 59, 100
4, 9504, Note_on_c, 2, 64, 100
4, 9696, Note_off_c, 2, 59, 0
4, 9696, Note_on_c, 2, 59, 100
4, 9744, Note_off_c, 2, 59, 0
4, 9744, Note_on_c, 2, 55, 100
4, 9792, Note_off_c, 2, 43, 0
4, 9792, Note_off_c, 2, 64, 0
4, 9792, Note_off_c, 2, 55, 0
4, 9792, Note_on_c, 2, 43, 100
4, 9792, Note_on_c, 2, 60, 100
4, 9792, Note_on_c, 2, 63, 100
4, 10080, Note_off_c, 2, 43, 0
4, 10080, Note_off_c, 2, 60, 0
4, 10080, Note_off_c, 2, 63, 0
4, 10080, Note_on_c, 2, 43, 100
4, 10080, Note_on_c, 2, 59, 100
4, 10080, Note_on_c, 2, 62, 100
4, 10272, Note_off_c, 2, 59, 0
4, 10272, Note_on_c, 2, 60, 100
4, 10320, Note_off_c, 2, 60, 0
4, 10320, Note_on_c, 2, 59, 100
4, 10368, Note_off_c, 2, 43, 0
4, 10368, Note_off_c, 2, 62, 0
4, 10368, Note_off_c, 2, 59, 0
4, 10368, Note_on_c, 2, 57, 100
4, 10368, Note_on_c, 2, 69, 100
4, 10440, Note_off_c, 2, 57, 0
4, 10440, Note_off_c, 2, 69, 0
4, 10440, Note_on_c, 2, 55, 100
4, 10440, Note_on_c, 2, 67, 100
4, 10512, Note_off_c, 2, 55, 0
4, 10512, Note_off_c, 2, 67, 0
4, 10512, Note_on_c, 2, 53, 100
4, 10512, Note_on_c, 2, 65, 100
4, 10584, Note_off_c, 2, 53, 0
4, 10584, Note_off_c, 2, 65, 0
4, 10584, Note_on_c, 2, 50, 100
4, 10584, Note_on_c, 2, 62, 100
4, 10656, Note_off_c, 2, 50, 0
4, 10656, Note_off_c, 2, 62, 0
4, 10656, Note_on_c, 2, 52, 100
4, 10656, Note_on_c, 2, 64, 100
4, 10728, Note_off_c, 2, 52, 0
4, 10728, Note_off_c, 2, 64, 0
4, 10728, Note_on_c, 2, 50, 100
4, 10728, Note_on_c, 2, 62, 100
4, 10800, Note_off_c, 2, 50, 0
4, 10800, Note_off_c, 2, 62, 0
4, 10800, Note_on_c, 2, 48, 100
4, 10800, Note_on_c, 2, 60, 100
4, 10872, Note_off_c, 2, 48, 0
4, 10872, Note_off_c, 2, 60, 0
4, 10872, Note_on_c, 2, 45, 100
4, 10872, Note_on_c, 2, 57, 100
4, 10944, Note_off_c, 2, 45, 0
4, 10944, Note_off_c, 2, 57, 0
4, 10944, Note_on_c, 2, 53, 100
4, 10944, Note_on_c, 2, 59, 100
4, 10968, Note_off_c, 2, 53, 0
4, 10968, Note_off_c, 2, 59, 0
4, 10968, Note_on_c, 2, 55, 100
4, 10968, Note_on_c, 2, 60, 100
4, 11016, Note_off_c, 2, 55, 0
4, 11016, Note_off_c, 2, 60, 0
4, 11016, Note_on_c, 2, 55, 100
4, 11016, Note_on_c, 2, 60, 100
4, 11088, Note_off_c, 2, 55, 0
4, 11088, Note_off_c, 2, 60, 0
4, 11088, Note_on_c, 2, 53, 100
4, 11088, Note_on_c, 2, 59, 100
4, 11112, Note_off_c, 2, 53, 0
4, 11112, Note_off_c, 2, 59, 0
4, 11112, Note_on_c, 2, 55, 100
4, 11112, Note_on_c, 2, 60, 100
4, 11160, Note_off_c, 2, 55, 0
4, 11160, Note_off_c, 2, 60, 0
4, 11160, Note_on_c, 2, 55, 100
4, 11160, Note_on_c, 2, 60, 100
4, 11232, Note_off_c, 2, 55, 0
4, 11232, Note_off_c, 2, 60, 0
4, 11232, Note_on_c, 2, 53, 100
4, 11232, Note_on_c, 2, 59, 100
4, 11256, Note_off_c, 2, 53, 0
4, 11256, Note_off_c, 2, 59, 0
4, 11256, Note_on_c, 2, 55, 100
4, 11256, Note_on_c, 2, 60, 100
4, 11304, Note_off_c, 2, 55, 0
4, 11304, Note_off_c, 2, 60, 0
4, 11304, Note_on_c, 2, 55, 100
4, 11304, Note_on_c, 2, 60, 100
4, 11376, Note_off_c, 2, 55, 0
4, 11376, Note_off_c, 2, 60, 0
4, 11376, Note_on_c, 2, 60, 100
4, 11424, Note_off_c, 2, 60, 0
4, 11424, Note_on_c, 2, 55, 100
4, 11520, Note_off_c, 2, 55, 0
4, 11520, Note_on_c, 2, 57, 100
4, 11520, Note_on_c, 2, 69, 100
4, 11592, Note_off_c, 2, 57, 0
4, 11592, Note_off_c, 2, 69, 0
4, 11592, Note_on_c, 2, 55, 100
4, 11592, Note_on_c, 2, 67, 100
4, 11664, Note_off_c, 2, 55, 0
4, 11664, Note_off_c, 2, 67, 0
4, 11664, Note_on_c, 2, 53, 100
4, 11664, Note_on_c, 2, 65, 100
4, 11736, Note_off_c, 2, 53, 0
4, 11736, Note_off_c, 2, 65, 0
4, 11736, Note_on_c, 2, 50, 100
4, 11736, Note_on_c, 2, 62, 100
4, 11808, Note_off_c, 2, 50, 0
4, 11808, Note_off_c, 2, 62, 0
4, 11808, Note_on_c, 2, 52, 100
4, 11808, Note_on_c, 2, 64, 100
4, 11880, Note_off_c, 2, 52, 0
4, 11880, Note_off_c, 2, 64, 0
4, 11880, Note_on_c, 2, 50, 100
4, 11880, Note_on_c, 2, 62, 100
4, 11952, Note_off_c, 2, 50, 0
4, 11952, Note_off_c, 2, 62, 0
4, 11952, Note_on_c, 2, 48, 100
4, 11952, Note_on_c, 2, 60, 100
4, 12024, Note_off_c, 2, 48, 0
4, 12024, Note_off_c, 2, 60, 0
4, 12024, Note_on_c, 2, 45, 100
4, 12024, Note_on_c, 2, 57, 100
4, 12096, Note_off_c, 2, 45, 0
4, 12096, Note_off_c, 2, 57, 0
4, 12096, Note_on_c, 2, 53, 100
4, 12096, Note_on_c, 2, 59, 100
4, 12120, Note_off_c, 2, 53, 0
4, 12120, Note_off_c, 2, 59, 0
4, 12120, Note_on_c, 2, 55, 100
4, 12120, Note_on_c, 2, 60, 100
4, 12168, Note_off_c, 2, 55, 0
4, 12168, Note_off_c, 2, 60, 0
4, 12168, Note_on_c, 2, 55, 100
4, 12168, Note_on_c, 2, 60, 100
4, 12240, Note_off_c, 2, 55, 0
4, 12240, Note_off_c, 2, 60, 0
4, 12240, Note_on_c, 2, 53, 100
4, 12240, Note_on_c, 2, 59, 100
4, 12264, Note_off_c, 2, 53, 0
4, 12264, Note_off_c, 2, 59, 0
4, 12264, Note_on_c, 2, 55, 100
4, 12264, Note_on_c, 2, 60, 100
4, 12312, Note_off_c, 2, 55, 0
4, 12312, Note_off_c, 2, 60, 0
4, 12312, Note_on_c, 2, 55, 100
4, 12312, Note_on_c, 2, 60, 100
4, 12384, Note_off_c, 2, 55, 0
4, 12384, Note_off_c, 2, 60, 0
4, 12384, Note_on_c, 2, 53, 100
4, 12384, Note_on_c, 2, 59, 100
4, 12408, Note_off_c, 2, 53, 0
4, 12408, Note_off_c, 2, 59, 0
4, 12408, Note_on_c, 2, 55, 100
4, 12408, Note_on_c, 2, 60, 100
4, 12456, Note_off_c, 2, 55, 0
4, 12456, Note_off_c, 2, 60, 0
4, 12456, Note_on_c, 2, 55, 100
4, 12456, Note_on_c, 2, 60, 100
4, 12528, Note_off_c, 2, 55, 0
4, 12528, Note_off_c, 2, 60, 0
4, 12528, Note_on_c, 2, 60, 100
4, 12576, Note_off_c, 2, 60, 0
4, 12576, Note_on_c, 2, 55, 100
4, 12672, Note_off_c, 2, 55, 0
4, 12672, Note_on_c, 2, 57, 100
4, 12672, Note_on_c, 2, 69, 100
4, 12744, Note_off_c, 2, 57, 0
4, 12744, Note_off_c, 2, 69, 0
4, 12744, Note_on_c, 2, 55, 100
4, 12744, Note_on_c, 2, 67, 100
4, 12816, Note_off_c, 2, 55, 0
4, 12816, Note_off_c, 2, 67, 0
4, 12816, Note_on_c, 2, 53, 100
4, 12816, Note_on_c, 2, 65, 100
4, 12888, Note_off_c, 2, 53, 0
4, 12888, Note_off_c, 2, 65, 0
4, 12888, Note_on_c, 2, 50, 100
4, 12888, Note_on_c, 2, 62, 100
4, 12960, Note_off_c, 2, 50, 0
4, 12960, Note_off_c, 2, 62, 0
4, 12960, Note_on_c, 2, 52, 100
4, 12960, Note_on_c, 2, 64, 100
4, 13032, Note_off_c, 2, 52, 0
4, 13032, Note_off_c, 2, 64, 0
4, 13032, Note_on_c, 2, 50, 100
4, 13032, Note_on_c, 2, 62, 100
4, 13104, Note_off_c, 2, 50, 0
4, 13104, Note_off_c, 2, 62, 0
4, 13104, Note_on_c, 2, 48, 100
4, 13104, Note_on_c, 2, 60, 100
4, 13176, Note_off_c, 2, 48, 0
4, 13176, Note_off_c, 2, 60, 0
4, 13176, Note_on_c, 2, 45, 100
4, 13176, Note_on_c, 2, 57, 100
4, 13248, Note_off_c, 2, 45, 0
4, 13248, Note_off_c, 2, 57, 0
4, 13248, Note_on_c, 2, 43, 100
4, 13248, Note_on_c, 2, 55, 100
4, 13536, Note_off_c, 2, 43, 0
4, 13536, Note_off_c, 2, 55, 0
4, 15552, Note_on_c, 2, 55, 71
4, 15552, Note_on_c, 2, 59, 71
4, 15555, Control_c, 2, 1, 103
4, 15696, Note_on_c, 2, 62, 84
4, 15792, Note_off_c, 2, 62, 0
4, 15792, Note_on_c, 2, 62, 63
4, 15840, Note_off_c, 2, 55, 0
4, 15840, Note_off_c, 2, 59, 0
4, 15840, Note_on_c, 2, 55, 84
4, 15840, Note_on_c, 2, 64, 84
4, 15960, Note_off_c, 2, 62, 0
4, 16032, Note_on_c, 2, 62, 58
4, 16080, Note_on_c, 2, 59, 63
4, 16104, Note_off_c, 2, 64, 0
4, 16128, Note_off_c, 2, 55, 0
4, 16128, Note_on_c, 2, 55, 74
4, 16128, Note_on_c, 2, 60, 100
4, 16128, Note_on_c, 2, 63, 74
4, 16152, Note_off_c, 2, 62, 0
4, 16224, Note_off_c, 2, 59, 0
4, 16320, Note_on_c, 2, 62, 36
4, 16368, Note_off_c, 2, 60, 0
4, 16368, Note_on_c, 2, 60, 58
4, 16392, Note_off_c, 2, 63, 0
4, 16416, Note_off_c, 2, 55, 0
4, 16416, Note_on_c, 2, 55, 58
4, 16416, Note_on_c, 2, 67, 58
4, 16416, Note_on_c, 2, 72, 58
4, 16464, Note_on_c, 2, 71, 58
4, 16512, Note_off_c, 2, 62, 0
4, 16512, Note_on_c, 2, 69, 58
4, 16536, Note_off_c, 2, 60, 0
4, 16560, Note_off_c, 2, 72, 0
4, 16560, Note_off_c, 2, 71, 0
4, 16560, Note_on_c, 2, 71, 60
4, 16632, Note_off_c, 2, 69, 0
4, 16704, Note_off_c, 2, 55, 0
4, 16704, Note_off_c, 2, 67, 0
4, 16704, Note_off_c, 2, 71, 0
4, 16704, Note_on_c, 2, 55, 71
4, 16704, Note_on_c, 2, 59, 71
4, 16707, Control_c, 2, 1, 103
4, 16992, Note_off_c, 2, 55, 0
4, 16992, Note_off_c, 2, 59, 0
4, 16992, Note_on_c, 2, 55, 84
4, 16992, Note_on_c, 2, 64, 100
4, 17280, Note_off_c, 2, 55, 0
4, 17280, Note_off_c, 2, 64, 0
4, 17280, Note_on_c, 2, 55, 74
4, 17280, Note_on_c, 2, 63, 74
4, 17568, Note_off_c, 2, 55, 0
4, 17568, Note_on_c, 2, 55, 58
4, 17856, Note_off_c, 2, 63, 0
4, 17856, Note_off_c, 2, 55, 0
4, 17856, Note_on_c, 2, 55, 71
4, 17856, Note_on_c, 2, 59, 71
4, 17859, Control_c, 2, 1, 103
4, 18144, Note_off_c, 2, 55, 0
4, 18144, Note_off_c, 2, 59, 0
4, 18144, Note_on_c, 2, 55, 84
4, 18144, Note_on_c, 2, 64, 100
4, 18432, Note_off_c, 2, 55, 0
4, 18432, Note_off_c, 2, 64, 0
4, 18432, Note_on_c, 2, 55, 74
4, 18432, Note_on_c, 2, 63, 74
4, 18720, Note_off_c, 2, 55, 0
4, 18720, Note_on_c, 2, 55, 58
4, 19008, Note_off_c, 2, 63, 0
4, 19008, Note_off_c, 2, 55, 0
4, 19008, Note_on_c, 2, 55, 71
4, 19008, Note_on_c, 2, 59, 71
4, 19011, Control_c, 2, 1, 103
4, 19296, Note_off_c, 2, 55, 0
4, 19296, Note_off_c, 2, 59, 0
4, 19296, Note_on_c, 2, 55, 84
4, 19296, Note_on_c, 2, 64, 100
4, 19584, Note_off_c, 2, 55, 0
4, 19584, Note_off_c, 2, 64, 0
4, 19584, Note_on_c, 2, 55, 74
4, 19584, Note_on_c, 2, 63, 74
4, 19872, Note_off_c, 2, 55, 0
4, 19872, Note_on_c, 2, 55, 58
4, 20160, Note_off_c, 2, 63, 0
4, 20160, Note_off_c, 2, 55, 0
4, 20160, Note_on_c, 2, 55, 71
4, 20160, Note_on_c, 2, 62, 71
4, 20163, Control_c, 2, 1, 103
4, 20448, Note_off_c, 2, 55, 0
4, 20448, Note_off_c, 2, 62, 0
4, 20448, Note_on_c, 2, 55, 84
4, 20448, Note_on_c, 2, 64, 100
4, 20736, Note_off_c, 2, 55, 0
4, 20736, Note_off_c, 2, 64, 0
4, 20736, Note_on_c, 2, 60, 74
4, 20736, Note_on_c, 2, 63, 74
4, 21072, Note_off_c, 2, 60, 0
4, 21072, Note_off_c, 2, 63, 0
4, 21072, Note_on_c, 2, 60, 82
4, 21072, Note_on_c, 2, 63, 82
4, 21120, Note_off_c, 2, 60, 0
4, 21120, Note_off_c, 2, 63, 0
4, 21120, Note_on_c, 2, 60, 44
4, 21120, Note_on_c, 2, 63, 44
4, 21168, Note_off_c, 2, 60, 0
4, 21168, Note_off_c, 2, 63, 0
4, 21168, Note_on_c, 2, 60, 66
4, 21168, Note_on_c, 2, 63, 66
4, 21192, Note_off_c, 2, 60, 0
4, 21192, Note_off_c, 2, 63, 0
4, 21192, Note_on_c, 2, 60, 60
4, 21192, Note_on_c, 2, 63, 60
4, 21240, Note_off_c, 2, 60, 0
4, 21240, Note_off_c, 2, 63, 0
4, 21240, Note_on_c, 2, 60, 50
4, 21240, Note_on_c, 2, 63, 50
4, 21264, Note_off_c, 2, 60, 0
4, 21264, Note_off_c, 2, 63, 0
4, 21264, Note_on_c, 2, 60, 50
4, 21264, Note_on_c, 2, 63, 50
4, 21312, Note_off_c, 2, 60, 0
4, 21312, Note_off_c, 2, 63, 0
4, 21312, Note_on_c, 2, 60, 63
4, 21312, Note_on_c, 2, 63, 63
4, 21336, Note_off_c, 2, 60, 0
4, 21336, Note_off_c, 2, 63, 0
4, 21336, Note_on_c, 2, 60, 63
4, 21336, Note_on_c, 2, 63, 63
4, 21408, Note_off_c, 2, 60, 0
4, 21408, Note_off_c, 2, 63, 0
4, 21408, Note_on_c, 2, 60, 31
4, 21408, Note_on_c, 2, 63, 31
4, 21456, Note_off_c, 2, 60, 0
4, 21456, Note_off_c, 2, 63, 0
4, 21456, Note_on_c, 2, 60, 66
4, 21456, Note_on_c, 2, 63, 66
4, 21480, Note_off_c, 2, 60, 0
4, 21480, Note_off_c, 2, 63, 0
4, 21480, Note_on_c, 2, 60, 47
4, 21480, Note_on_c, 2, 63, 47
4, 21504, Note_off_c, 2, 60, 0
4, 21504, Note_off_c, 2, 63, 0
4, 21504, Note_on_c, 2, 60, 50
4, 21504, Note_on_c, 2, 63, 50
4, 21528, Note_off_c, 2, 60, 0
4, 21528, Note_on_c, 2, 60, 50
4, 21552, Note_off_c, 2, 63, 0
4, 21552, Note_off_c, 2, 60, 0
4, 21552, Note_on_c, 2, 60, 71
4, 21552, Note_on_c, 2, 63, 71
4, 21576, Note_off_c, 2, 60, 0
4, 21576, Note_off_c, 2, 63, 0
4, 21576, Note_on_c, 2, 60, 55
4, 21576, Note_on_c, 2, 63, 55
4, 21600, Note_off_c, 2, 60, 0
4, 21600, Note_off_c, 2, 63, 0
4, 21600, Control_c, 2, 1, 103
4, 21600, Note_on_c, 2, 43, 100
4, 21600, Note_on_c, 2, 59, 100
4, 21600, Note_on_c, 2, 62, 100
4, 21601, Control_c, 2, 1, 103
4, 21602, Control_c, 2, 1, 103
4, 21603, Control_c, 2, 1, 127
4, 21604, Control_c, 2, 1, 100
4, 21605, Control_c, 2, 1, 100
4, 21744, Note_off_c, 2, 43, 0
4, 21744, Note_on_c, 2, 43, 100
4, 21840, Note_off_c, 2, 59, 0
4, 21840, Note_on_c, 2, 59, 100
4, 21888, Note_off_c, 2, 62, 0
4, 21888, Note_off_c, 2, 43, 0
4, 21888, Note_off_c, 2, 59, 0
4, 21888, Note_on_c, 2, 43, 100
4, 21888, Note_on_c, 2, 59, 100
4, 21888, Note_on_c, 2, 64, 100
4, 22032, Note_off_c, 2, 64, 0
4, 22032, Note_on_c, 2, 64, 100
4, 22080, Note_off_c, 2, 59, 0
4, 22080, Note_on_c, 2, 59, 100
4, 22128, Note_off_c, 2, 59, 0
4, 22128, Note_on_c, 2, 55, 100
4, 22176, Note_off_c, 2, 43, 0
4, 22176, Note_off_c, 2, 64, 0
4, 22176, Note_off_c, 2, 55, 0
4, 22176, Note_on_c, 2, 43, 100
4, 22176, Note_on_c, 2, 60, 100
4, 22176, Note_on_c, 2, 63, 100
4, 22416, Note_off_c, 2, 60, 0
4, 22416, Note_on_c, 2, 60, 100
4, 22464, Note_off_c, 2, 43, 0
4, 22464, Note_off_c, 2, 63, 0
4, 22464, Note_off_c, 2, 60, 0
4, 22464, Note_on_c, 2, 43, 100
4, 22464, Note_on_c, 2, 59, 100
4, 22464, Note_on_c, 2, 62, 100
4, 22656, Note_off_c, 2, 59, 0
4, 22656, Note_on_c, 2, 60, 100
4, 22704, Note_off_c, 2, 60, 0
4, 22704, Note_on_c, 2, 59, 100
4, 22752, Note_off_c, 2, 43, 0
4, 22752, Note_off_c, 2, 62, 0
4, 22752, Note_off_c, 2, 59, 0
4, 22752, Note_on_c, 2, 43, 100
4, 22752, Note_on_c, 2, 59, 100
4, 22752, Note_on_c, 2, 62, 100
4, 23040, Note_off_c, 2, 43, 0
4, 23040, Note_off_c, 2, 59, 0
4, 23040, Note_off_c, 2, 62, 0
4, 23040, Note_on_c, 2, 43, 100
4, 23040, Note_on_c, 2, 59, 100
4, 23040, Note_on_c, 2, 64, 100
4, 23232, Note_off_c, 2, 59, 0
4, 23232, Note_on_c, 2, 59, 100
4, 23280, Note_off_c, 2, 59, 0
4, 23280, Note_on_c, 2, 55, 100
4, 23328, Note_off_c, 2, 43, 0
4, 23328, Note_off_c, 2, 64, 0
4, 23328, Note_off_c, 2, 55, 0
4, 23328, Note_on_c, 2, 43, 100
4, 23328, Note_on_c, 2, 60, 100
4, 23328, Note_on_c, 2, 63, 100
4, 23472, Note_off_c, 2, 60, 0
4, 23472, Note_off_c, 2, 63, 0
4, 23568, Note_on_c, 2, 63, 100
4, 23616, Note_off_c, 2, 43, 0
4, 23616, Note_on_c, 2, 43, 100
4, 23616, Note_on_c, 2, 62, 100
4, 23628, Note_off_c, 2, 63, 0
4, 23664, Note_on_c, 2, 60, 100
4, 23676, Note_off_c, 2, 62, 0
4, 23712, Note_on_c, 2, 59, 100
4, 23724, Note_off_c, 2, 60, 0
4, 23760, Note_on_c, 2, 55, 100
4, 23772, Note_off_c, 2, 59, 0
4, 23904, Note_off_c, 2, 43, 0
4, 23904, Note_off_c, 2, 55, 0
4, 23904, Note_on_c, 2, 57, 100
4, 23904, Note_on_c, 2, 69, 100
4, 23976, Note_off_c, 2, 57, 0
4, 23976, Note_off_c, 2, 69, 0
4, 23976, Note_on_c, 2, 55, 100
4, 23976, Note_on_c, 2, 67, 100
4, 24048, Note_off_c, 2, 55, 0
4, 24048, Note_off_c, 2, 67, 0
4, 24048, Note_on_c, 2, 53, 100
4, 24048, Note_on_c, 2, 65, 100
4, 24120, Note_off_c, 2, 53, 0
4, 24120, Note_off_c, 2, 65, 0
4, 24120, Note_on_c, 2, 50, 100
4, 24120, Note_on_c, 2, 62, 100
4, 24192, Note_off_c, 2, 50, 0
4, 24192, Note_off_c, 2, 62, 0
4, 24192, Note_on_c, 2, 52, 100
4, 24192, Note_on_c, 2, 64, 100
4, 24264, Note_off_c, 2, 52, 0
4, 24264, Note_off_c, 2, 64, 0
4, 24264, Note_on_c, 2, 50, 100
4, 24264, Note_on_c, 2, 62, 100
4, 24336, Note_off_c, 2, 50, 0
4, 24336, Note_off_c, 2, 62, 0
4, 24336, Note_on_c, 2, 48, 100
4, 24336, Note_on_c, 2, 60, 100
4, 24408, Note_off_c, 2, 48, 0
4, 24408, Note_off_c, 2, 60, 0
4, 24408, Note_on_c, 2, 45, 100
4, 24408, Note_on_c, 2, 57, 100
4, 24480, Note_off_c, 2, 45, 0
4, 24480, Note_off_c, 2, 57, 0
4, 24480, Note_on_c, 2, 53, 100
4, 24480, Note_on_c, 2, 59, 100
4, 24504, Note_off_c, 2, 53, 0
4, 24504, Note_off_c, 2, 59, 0
4, 24504, Note_on_c, 2, 55, 100
4, 24504, Note_on_c, 2, 60, 100
4, 24552, Note_off_c, 2, 55, 0
4, 24552, Note_off_c, 2, 60, 0
4, 24552, Note_on_c, 2, 55, 100
4, 24552, Note_on_c, 2, 60, 100
4, 24624, Note_off_c, 2, 55, 0
4, 24624, Note_off_c, 2, 60, 0
4, 24624, Note_on_c, 2, 53, 100
4, 24624, Note_on_c, 2, 59, 100
4, 24648, Note_off_c, 2, 53, 0
4, 24648, Note_off_c, 2, 59, 0
4, 24648, Note_on_c, 2, 55, 100
4, 24648, Note_on_c, 2, 60, 100
4, 24696, Note_off_c, 2, 55, 0
4, 24696, Note_off_c, 2, 60, 0
4, 24696, Note_on_c, 2, 55, 100
4, 24696, Note_on_c, 2, 60, 100
4, 24768, Note_off_c, 2, 55, 0
4, 24768, Note_off_c, 2, 60, 0
4, 24768, Note_on_c, 2, 53, 100
4, 24768, Note_on_c, 2, 59, 100
4, 24792, Note_off_c, 2, 53, 0
4, 24792, Note_off_c, 2, 59, 0
4, 24792, Note_on_c, 2, 55, 100
4, 24792, Note_on_c, 2, 60, 100
4, 24840, Note_off_c, 2, 55, 0
4, 24840, Note_off_c, 2, 60, 0
4, 24840, Note_on_c, 2, 55, 100
4, 24840, Note_on_c, 2, 60, 100
4, 24912, Note_off_c, 2, 55, 0
4, 24912, Note_off_c, 2, 60, 0
4, 24912, Note_on_c, 2, 60, 100
4, 24960, Note_off_c, 2, 60, 0
4, 24960, Note_on_c, 2, 55, 100
4, 25056, Note_off_c, 2, 55, 0
4, 25056, Note_on_c, 2, 57, 100
4, 25056, Note_on_c, 2, 69, 100
4, 25128, Note_off_c, 2, 57, 0
4, 25128, Note_off_c, 2, 69, 0
4, 25128, Note_on_c, 2, 55, 100
4, 25128, Note_on_c, 2, 67, 100
4, 25200, Note_off_c, 2, 55, 0
4, 25200, Note_off_c, 2, 67, 0
4, 25200, Note_on_c, 2, 53, 100
4, 25200, Note_on_c, 2, 65, 100
4, 25272, Note_off_c, 2, 53, 0
4, 25272, Note_off_c, 2, 65, 0
4, 25272, Note_on_c, 2, 50, 100
4, 25272, Note_on_c, 2, 62, 100
4, 25344, Note_off_c, 2, 50, 0
4, 25344, Note_off_c, 2, 62, 0
4, 25344, Note_on_c, 2, 52, 100
4, 25344, Note_on_c, 2, 64, 100
4, 25416, Note_off_c, 2, 52, 0
4, 25416, Note_off_c, 2, 64, 0
4, 25416, Note_on_c, 2, 50, 100
4, 25416, Note_on_c, 2, 62, 100
4, 25488, Note_off_c, 2, 50, 0
4, 25488, Note_off_c, 2, 62, 0
4, 25488, Note_on_c, 2, 48, 100
4, 25488, Note_on_c, 2, 60, 100
4, 25560, Note_off_c, 2, 48, 0
4, 25560, Note_off_c, 2, 60, 0
4, 25560, Note_on_c, 2, 45, 100
4, 25560, Note_on_c, 2, 57, 100
4, 25632, Note_off_c, 2, 45, 0
4, 25632, Note_off_c, 2, 57, 0
4, 25632, Note_on_c, 2, 53, 100
4, 25632, Note_on_c, 2, 59, 100
4, 25656, Note_off_c, 2, 53, 0
4, 25656, Note_off_c, 2, 59, 0
4, 25656, Note_on_c, 2, 55, 100
4, 25656, Note_on_c, 2, 60, 100
4, 25704, Note_off_c, 2, 55, 0
4, 25704, Note_off_c, 2, 60, 0
4, 25704, Note_on_c, 2, 55, 100
4, 25704, Note_on_c, 2, 60, 100
4, 25776, Note_off_c, 2, 55, 0
4, 25776, Note_off_c, 2, 60, 0
4, 25776, Note_on_c, 2, 53, 100
4, 25776, Note_on_c, 2, 59, 100
4, 25800, Note_off_c, 2, 53, 0
4, 25800, Note_off_c, 2, 59, 0
4, 25800, Note_on_c, 2, 55, 100
4, 25800, Note_on_c, 2, 60, 100
4, 25848, Note_off_c, 2, 55, 0
4, 25848, Note_off_c, 2, 60, 0
4, 25848, Note_on_c, 2, 55, 100
4, 25848, Note_on_c, 2, 60, 100
4, 25920, Note_off_c, 2, 55, 0
4, 25920, Note_off_c, 2, 60, 0
4, 25920, Note_on_c, 2, 53, 100
4, 25920, Note_on_c, 2, 59, 100
4, 25944, Note_off_c, 2, 53, 0
4, 25944, Note_off_c, 2, 59, 0
4, 25944, Note_on_c, 2, 55, 100
4, 25944, Note_on_c, 2, 60, 100
4, 25992, Note_off_c, 2, 55, 0
4, 25992, Note_off_c, 2, 60, 0
4, 25992, Note_on_c, 2, 55, 100
4, 25992, Note_on_c, 2, 60, 100
4, 26064, Note_off_c, 2, 55, 0
4, 26064, Note_off_c, 2, 60, 0
4, 26064, Note_on_c, 2, 60, 100
4, 26112, Note_off_c, 2, 60, 0
4, 26112, Note_on_c, 2, 55, 100
4, 26208, Note_off_c, 2, 55, 0
4, 26208, Note_on_c, 2, 57, 100
4, 26208, Note_on_c, 2, 69, 100
4, 26280, Note_off_c, 2, 57, 0
4, 26280, Note_off_c, 2, 69, 0
4, 26280, Note_on_c, 2, 55, 100
4, 26280, Note_on_c, 2, 67, 100
4, 26352, Note_off_c, 2, 55, 0
4, 26352, Note_off_c, 2, 67, 0
4, 26352, Note_on_c, 2, 53, 100
4, 26352, Note_on_c, 2, 65, 100
4, 26424, Note_off_c, 2, 53, 0
4, 26424, Note_off_c, 2, 65, 0
4, 26424, Note_on_c, 2, 50, 100
4, 26424, Note_on_c, 2, 62, 100
4, 26496, Note_off_c, 2, 50, 0
4, 26496, Note_off_c, 2, 62, 0
4, 26496, Note_on_c, 2, 52, 100
4, 26496, Note_on_c, 2, 64, 100
4, 26568, Note_off_c, 2, 52, 0
4, 26568, Note_off_c, 2, 64, 0
4, 26568, Note_on_c, 2, 50, 100
4, 26568, Note_on_c, 2, 62, 100
4, 26640, Note_off_c, 2, 50, 0
4, 26640, Note_off_c, 2, 62, 0
4, 26640, Note_on_c, 2, 48, 100
4, 26640, Note_on_c, 2, 60, 100
4, 26712, Note_off_c, 2, 48, 0
4, 26712, Note_off_c, 2, 60, 0
4, 26712, Note_on_c, 2, 45, 100
4, 26712, Note_on_c, 2, 57, 100
4, 26784, Note_off_c, 2, 45, 0
4, 26784, Note_off_c, 2, 57, 0
4, 26784, Note_on_c, 2, 53, 100
4, 26784, Note_on_c, 2, 59, 100
4, 26808, Note_off_c, 2, 53, 0
4, 26808, Note_off_c, 2, 59, 0
4, 26808, Note_on_c, 2, 55, 100
4, 26808, Note_on_c, 2, 60, 100
4, 26856, Note_off_c, 2, 55, 0
4, 26856, Note_off_c, 2, 60, 0
4, 26856, Note_on_c, 2, 55, 100
4, 26856, Note_on_c, 2, 60, 100
4, 26928, Note_off_c, 2, 55, 0
4, 26928, Note_off_c, 2, 60, 0
4, 26928, Note_on_c, 2, 53, 100
4, 26928, Note_on_c, 2, 59, 100
4, 26952, Note_off_c, 2, 53, 0
4, 26952, Note_off_c, 2, 59, 0
4, 26952, Note_on_c, 2, 55, 100
4, 26952, Note_on_c, 2, 60, 100
4, 27000, Note_off_c, 2, 55, 0
4, 27000, Note_off_c, 2, 60, 0
4, 27000, Note_on_c, 2, 55, 100
4, 27000, Note_on_c, 2, 60, 100
4, 27072, Note_off_c, 2, 55, 0
4, 27072, Note_off_c, 2, 60, 0
4, 27072, Note_on_c, 2, 53, 100
4, 27072, Note_on_c, 2, 59, 100
4, 27096, Note_off_c, 2, 53, 0
4, 27096, Note_off_c, 2, 59, 0
4, 27096, Note_on_c, 2, 55, 100
4, 27096, Note_on_c, 2, 60, 100
4, 27144, Note_off_c, 2, 55, 0
4, 27144, Note_off_c, 2, 60, 0
4, 27144, Note_on_c, 2, 55, 100
4, 27144, Note_on_c, 2, 60, 100
4, 27216, Note_off_c, 2, 55, 0
4, 27216, Note_off_c, 2, 60, 0
4, 27216, Note_on_c, 2, 60, 100
4, 27264, Note_off_c, 2, 60, 0
4, 27264, Note_on_c, 2, 55, 100
4, 27360, Note_off_c, 2, 55, 0
4, 27360, Note_on_c, 2, 57, 100
4, 27360, Note_on_c, 2, 69, 100
4, 27432, Note_off_c, 2, 57, 0
4, 27432, Note_off_c, 2, 69, 0
4, 27432, Note_on_c, 2, 55, 100
4, 27432, Note_on_c, 2, 67, 100
4, 27504, Note_off_c, 2, 55, 0
4, 27504, Note_off_c, 2, 67, 0
4, 27504, Note_on_c, 2, 53, 100
4, 27504, Note_on_c, 2, 65, 100
4, 27576, Note_off_c, 2, 53, 0
4, 27576, Note_off_c, 2, 65, 0
4, 27576, Note_on_c, 2, 50, 100
4, 27576, Note_on_c, 2, 62, 100
4, 27648, Note_off_c, 2, 50, 0
4, 27648, Note_off_c, 2, 62, 0
4, 27648, Note_on_c, 2, 52, 100
4, 27648, Note_on_c, 2, 64, 100
4, 27720, Note_off_c, 2, 52, 0
4, 27720, Note_off_c, 2, 64, 0
4, 27720, Note_on_c, 2, 50, 100
4, 27720, Note_on_c, 2, 62, 100
4, 27792, Note_off_c, 2, 50, 0
4, 27792, Note_off_c, 2, 62, 0
4, 27792, Note_on_c, 2, 48, 100
4, 27792, Note_on_c, 2, 60, 100
4, 27864, Note_off_c, 2, 48, 0
4, 27864, Note_off_c, 2, 60, 0
4, 27864, Note_on_c, 2, 45, 100
4, 27864, Note_on_c, 2, 57, 100
4, 27936, Note_off_c, 2, 45, 0
4, 27936, Note_off_c, 2, 57, 0
4, 29088, Control_c, 2, 1, 103
4, 29088, Note_on_c, 2, 43, 100
4, 29088, Note_on_c, 2, 59, 100
4, 29088, Note_on_c, 2, 62, 100
4, 29089, Control_c, 2, 1, 103
4, 29090, Control_c, 2, 1, 103
4, 29091, Control_c, 2, 1, 127
4, 29092, Control_c, 2, 1, 100
4, 29093, Control_c, 2, 1, 100
4, 29376, Note_off_c, 2, 43, 0
4, 29376, Note_off_c, 2, 59, 0
4, 29376, Note_off_c, 2, 62, 0
4, 29376, Note_on_c, 2, 43, 100
4, 29376, Note_on_c, 2, 59, 100
4, 29376, Note_on_c, 2, 64, 100
4, 29568, Note_off_c, 2, 59, 0
4, 29568, Note_on_c, 2, 59, 100
4, 29616, Note_off_c, 2, 59, 0
4, 29616, Note_on_c, 2, 55, 100
4, 29664, Note_off_c, 2, 43, 0
4, 29664, Note_off_c, 2, 64, 0
4, 29664, Note_off_c, 2, 55, 0
4, 29664, Note_on_c, 2, 43, 100
4, 29664, Note_on_c, 2, 60, 100
4, 29664, Note_on_c, 2, 63, 100
4, 29952, Note_off_c, 2, 43, 0
4, 29952, Note_off_c, 2, 60, 0
4, 29952, Note_off_c, 2, 63, 0
4, 29952, Note_on_c, 2, 43, 100
4, 29952, Note_on_c, 2, 59, 100
4, 29952, Note_on_c, 2, 62, 100
4, 30240, Note_off_c, 2, 43, 0
4, 30240, Note_off_c, 2, 59, 0
4, 30240, Note_off_c, 2, 62, 0
4, 30240, Note_on_c, 2, 38, 100
4, 30240, Note_on_c, 2, 62, 79
4, 30240, Note_on_c, 2, 74, 79
4, 30384, Note_off_c, 2, 62, 0
4, 30384, Note_off_c, 2, 74, 0
4, 30384, Note_on_c, 2, 62, 87
4, 30384, Note_on_c, 2, 65, 87
4, 30432, Note_off_c, 2, 65, 0
4, 30432, Note_on_c, 2, 69, 65
4, 30480, Note_off_c, 2, 69, 0
4, 30480, Note_on_c, 2, 74, 65
4, 30528, Note_off_c, 2, 38, 0
4, 30528, Note_off_c, 2, 62, 0
4, 30528, Note_off_c, 2, 74, 0
4, 30528, Note_on_c, 2, 44, 100
4, 30528, Note_on_c, 2, 63, 60
4, 30528, Note_on_c, 2, 75, 60
4, 30672, Note_off_c, 2, 75, 0
4, 30672, Note_on_c, 2, 68, 60
4, 30696, Note_off_c, 2, 68, 0
4, 30696, Note_on_c, 2, 72, 60
4, 30720, Note_off_c, 2, 72, 0
4, 30720, Note_on_c, 2, 75, 60
4, 30768, Note_off_c, 2, 75, 0
4, 30768, Note_on_c, 2, 80, 60
4, 30828, Note_off_c, 2, 44, 0
4, 30828, Note_off_c, 2, 63, 0
4, 30828, Note_off_c, 2, 80, 0
4, 30828, Note_on_c, 2, 38, 100
4, 30828, Note_on_c, 2, 62, 79
4, 30828, Note_on_c, 2, 74, 79
4, 30828, Note_on_c, 2, 78, 79
4, 31248, Note_off_c, 2, 38, 0
4, 31260, Note_off_c, 2, 62, 0
4, 31260, Note_off_c, 2, 74, 0
4, 31260, Note_off_c, 2, 78, 0
4, 31260, End_track
5, 0, Start_track
5, 0, Title_t, "Track 4\000"
5, 0, Program_c, 3, 27
5, 0, Control_c, 3, 7, 77
5, 0, Control_c, 3, 93, 13
5, 1153, Control_c, 3, 1, 84
5, 1872, Note_on_c, 3, 74, 100
5, 1873, Control_c, 3, 10, 116
5, 1896, Note_on_c, 3, 72, 100
5, 1901, Control_c, 3, 10, 10
5, 1916, Control_c, 3, 10, 116
5, 1920, Note_off_c, 3, 74, 0
5, 1920, Note_on_c, 3, 71, 100
5, 1944, Note_off_c, 3, 72, 0
5, 1944, Control_c, 3, 10, 5
5, 1944, Note_on_c, 3, 72, 100
5, 1966, Control_c, 3, 10, 119
5, 1968, Note_off_c, 3, 71, 0
5, 1968, Note_on_c, 3, 71, 100
5, 1968, Note_on_c, 3, 74, 100
5, 1988, Control_c, 3, 10, 7
5, 1992, Note_off_c, 3, 72, 0
5, 1992, Note_on_c, 3, 72, 100
5, 2010, Control_c, 3, 10, 119
5, 2016, Note_off_c, 3, 71, 0
5, 2016, Note_off_c, 3, 74, 0
5, 2016, Note_on_c, 3, 43, 100
5, 2016, Note_on_c, 3, 71, 100
5, 2016, Note_on_c, 3, 74, 100
5, 2040, Note_off_c, 3, 72, 0
5, 2160, Note_off_c, 3, 43, 0
5, 2160, Note_off_c, 3, 71, 0
5, 2160, Note_off_c, 3, 74, 0
5, 3024, Note_on_c, 3, 74, 100
5, 3025, Control_c, 3, 10, 113
5, 3026, Control_c, 3, 10, 111
5, 3027, Control_c, 3, 10, 111
5, 3028, Control_c, 3, 10, 111
5, 3029, Control_c, 3, 10, 111
5, 3030, Control_c, 3, 10, 111
5, 3031, Control_c, 3, 10, 111
5, 3032, Control_c, 3, 10, 111
5, 3033, Control_c, 3, 10, 111
5, 3034, Control_c, 3, 10, 108
5, 3035, Control_c, 3, 10, 108
5, 3036, Control_c, 3, 10, 105
5, 3037, Control_c, 3, 10, 103
5, 3038, Control_c, 3, 10, 103
5, 3039, Control_c, 3, 10, 97
5, 3040, Control_c, 3, 10, 95
5, 3041, Control_c, 3, 10, 95
5, 3042, Control_c, 3, 10, 92
5, 3043, Control_c, 3, 10, 92
5, 3044, Control_c, 3, 10, 87
5, 3045, Control_c, 3, 10, 84
5, 3046, Control_c, 3, 10, 82
5, 3047, Control_c, 3, 10, 79
5, 3048, Control_c, 3, 10, 76
5, 3048, Note_on_c, 3, 72, 100
5, 3049, Control_c, 3, 10, 71
5, 3050, Control_c, 3, 10, 68
5, 3051, Control_c, 3, 10, 66
5, 3052, Control_c, 3, 10, 58
5, 3053, Control_c, 3, 10, 55
5, 3054, Control_c, 3, 10, 47
5, 3055, Control_c, 3, 10, 42
5, 3056, Control_c, 3, 10, 37
5, 3057, Control_c, 3, 10, 34
5, 3058, Control_c, 3, 10, 31
5, 3059, Control_c, 3, 10, 29
5, 3060, Control_c, 3, 10, 29
5, 3061, Control_c, 3, 10, 26
5, 3062, Control_c, 3, 10, 26
5, 3063, Control_c, 3, 10, 23
5, 3064, Control_c, 3, 10, 23
5, 3065, Control_c, 3, 10, 23
5, 3066, Control_c, 3, 10, 23
5, 3067, Control_c, 3, 10, 23
5, 3068, Control_c, 3, 10, 23
5, 3069, Control_c, 3, 10, 23
5, 3070, Control_c, 3, 10, 23
5, 3071, Control_c, 3, 10, 23
5, 3072, Note_off_c, 3, 74, 0
5, 3072, Control_c, 3, 10, 26
5, 3072, Note_on_c, 3, 71, 100
5, 3073, Control_c, 3, 10, 29
5, 3074, Control_c, 3, 10, 31
5, 3075, Control_c, 3, 10, 34
5, 3076, Control_c, 3, 10, 39
5, 3077, Control_c, 3, 10, 39
5, 3078, Control_c, 3, 10, 44
5, 3079, Control_c, 3, 10, 58
5, 3080, Control_c, 3, 10, 108
5, 3081, Control_c, 3, 10, 113
5, 3082, Control_c, 3, 10, 116
5, 3083, Control_c, 3, 10, 121
5, 3084, Control_c, 3, 10, 124
5, 3085, Control_c, 3, 10, 127
5, 3086, Control_c, 3, 10, 127
5, 3087, Control_c, 3, 10, 127
5, 3088, Control_c, 3, 10, 127
5, 3089, Control_c, 3, 10, 127
5, 3090, Control_c, 3, 10, 127
5, 3091, Control_c, 3, 10, 127
5, 3092, Control_c, 3, 10, 127
5, 3093, Control_c, 3, 10, 127
5, 3094, Control_c, 3, 10, 127
5, 3095, Control_c, 3, 10, 127
5, 3096, Note_off_c, 3, 72, 0
5, 3096, Control_c, 3, 10, 127
5, 3096, Note_on_c, 3, 72, 100
5, 3097, Control_c, 3, 10, 127
5, 3098, Control_c, 3, 10, 127
5, 3099, Control_c, 3, 10, 127
5, 3100, Control_c, 3, 10, 124
5, 3101, Control_c, 3, 10, 119
5, 3102, Control_c, 3, 10, 111
5, 3103, Control_c, 3, 10, 100
5, 3104, Control_c, 3, 10, 92
5, 3105, Control_c, 3, 10, 87
5, 3106, Control_c, 3, 10, 76
5, 3107, Control_c, 3, 10, 74
5, 3108, Control_c, 3, 10, 55
5, 3109, Control_c, 3, 10, 42
5, 3110, Control_c, 3, 10, 39
5, 3111, Control_c, 3, 10, 29
5, 3112, Control_c, 3, 10, 23
5, 3113, Control_c, 3, 10, 15
5, 3114, Control_c, 3, 10, 13
5, 3115, Control_c, 3, 10, 13
5, 3116, Control_c, 3, 10, 2
5, 3117, Control_c, 3, 10, 2
5, 3118, Control_c, 3, 10, 0
5, 3119, Control_c, 3, 10, 0
5, 3120, Note_off_c, 3, 71, 0
5, 3120, Control_c, 3, 10, 0
5, 3120, Note_on_c, 3, 71, 100
5, 3120, Note_on_c, 3, 74, 100
5, 3121, Control_c, 3, 10, 0
5, 3122, Control_c, 3, 10, 0
5, 3123, Control_c, 3, 10, 0
5, 3124, Control_c, 3, 10, 0
5, 3125, Control_c, 3, 10, 0
5, 3126, Control_c, 3, 10, 0
5, 3127, Control_c, 3, 10, 0
5, 3128, Control_c, 3, 10, 0
5, 3129, Control_c, 3, 10, 0
5, 3130, Control_c, 3, 10, 0
5, 3131, Control_c, 3, 10, 0
5, 3132, Control_c, 3, 10, 7
5, 3133, Control_c, 3, 10, 7
5, 3134, Control_c, 3, 10, 15
5, 3135, Control_c, 3, 10, 18
5, 3136, Control_c, 3, 10, 26
5, 3137, Control_c, 3, 10, 29
5, 3138, Control_c, 3, 10, 34
5, 3139, Control_c, 3, 10, 39
5, 3140, Control_c, 3, 10, 50
5, 3141, Control_c, 3, 10, 66
5, 3142, Control_c, 3, 10, 71
5, 3143, Control_c, 3, 10, 82
5, 3144, Note_off_c, 3, 72, 0
5, 3144, Control_c, 3, 10, 92
5, 3144, Note_on_c, 3, 72, 100
5, 3145, Control_c, 3, 10, 97
5, 3146, Control_c, 3, 10, 103
5, 3147, Control_c, 3, 10, 108
5, 3148, Control_c, 3, 10, 113
5, 3149, Control_c, 3, 10, 119
5, 3150, Control_c, 3, 10, 124
5, 3151, Control_c, 3, 10, 127
5, 3152, Control_c, 3, 10, 127
5, 3153, Control_c, 3, 10, 127
5, 3154, Control_c, 3, 10, 127
5, 3155, Control_c, 3, 10, 127
5, 3156, Control_c, 3, 10, 127
5, 3157, Control_c, 3, 10, 127
5, 3158, Control_c, 3, 10, 127
5, 3159, Control_c, 3, 10, 127
5, 3160, Control_c, 3, 10, 127
5, 3161, Control_c, 3, 10, 127
5, 3162, Control_c, 3, 10, 127
5, 3163, Control_c, 3, 10, 127
5, 3164, Control_c, 3, 10, 127
5, 3165, Control_c, 3, 10, 127
5, 3166, Control_c, 3, 10, 127
5, 3167, Control_c, 3, 10, 127
5, 3168, Note_off_c, 3, 71, 0
5, 3168, Note_off_c, 3, 74, 0
5, 3168, Control_c, 3, 10, 124
5, 3168, Note_on_c, 3, 43, 100
5, 3168, Note_on_c, 3, 71, 100
5, 3168, Note_on_c, 3, 74, 100
5, 3169, Control_c, 3, 10, 108
5, 3170, Control_c, 3, 10, 95
5, 3171, Control_c, 3, 10, 89
5, 3172, Control_c, 3, 10, 82
5, 3173, Control_c, 3, 10, 74
5, 3174, Control_c, 3, 10, 66
5, 3175, Control_c, 3, 10, 55
5, 3176, Control_c, 3, 10, 50
5, 3177, Control_c, 3, 10, 44
5, 3178, Control_c, 3, 10, 42
5, 3179, Control_c, 3, 10, 37
5, 3180, Control_c, 3, 10, 31
5, 3181, Control_c, 3, 10, 23
5, 3182, Control_c, 3, 10, 15
5, 3183, Control_c, 3, 10, 15
5, 3184, Control_c, 3, 10, 10
5, 3185, Control_c, 3, 10, 7
5, 3186, Control_c, 3, 10, 23
5, 3187, Control_c, 3, 10, 15
5, 3188, Control_c, 3, 10, 13
5, 3189, Control_c, 3, 10, 13
5, 3190, Control_c, 3, 10, 10
5, 3191, Control_c, 3, 10, 127
5, 3192, Note_off_c, 3, 72, 0
5, 3192, Control_c, 3, 10, 127
5, 3193, Control_c, 3, 10, 10
5, 3194, Control_c, 3, 10, 10
5, 3195, Control_c, 3, 10, 10
5, 3196, Control_c, 3, 10, 127
5, 3197, Control_c, 3, 10, 10
5, 3198, Control_c, 3, 10, 127
5, 3199, Control_c, 3, 10, 10
5, 3200, Control_c, 3, 10, 10
5, 3201, Control_c, 3, 10, 10
5, 3202, Control_c, 3, 10, 10
5, 3203, Control_c, 3, 10, 10
5, 3204, Control_c, 3, 10, 10
5, 3205, Control_c, 3, 10, 10
5, 3206, Control_c, 3, 10, 10
5, 3207, Control_c, 3, 10, 10
5, 3208, Control_c, 3, 10, 10
5, 3209, Control_c, 3, 10, 10
5, 3210, Control_c, 3, 10, 10
5, 3211, Control_c, 3, 10, 127
5, 3212, Control_c, 3, 10, 13
5, 3213, Control_c, 3, 10, 15
5, 3214, Control_c, 3, 10, 21
5, 3215, Control_c, 3, 10, 21
5, 3216, Control_c, 3, 10, 23
5, 3217, Control_c, 3, 10, 26
5, 3218, Control_c, 3, 10, 31
5, 3219, Control_c, 3, 10, 31
5, 3220, Control_c, 3, 10, 37
5, 3221, Control_c, 3, 10, 42
5, 3222, Control_c, 3, 10, 42
5, 3223, Control_c, 3, 10, 44
5, 3224, Control_c, 3, 10, 127
5, 3225, Control_c, 3, 10, 52
5, 3226, Control_c, 3, 10, 58
5, 3227, Control_c, 3, 10, 60
5, 3228, Control_c, 3, 10, 127
5, 3229, Control_c, 3, 10, 63
5, 3230, Control_c, 3, 10, 68
5, 3231, Control_c, 3, 10, 127
5, 3232, Control_c, 3, 10, 71
5, 3233, Control_c, 3, 10, 74
5, 3234, Control_c, 3, 10, 74
5, 3235, Control_c, 3, 10, 127
5, 3236, Control_c, 3, 10, 79
5, 3237, Control_c, 3, 10, 82
5, 3238, Control_c, 3, 10, 127
5, 3239, Control_c, 3, 10, 84
5, 3240, Control_c, 3, 10, 127
5, 3241, Control_c, 3, 10, 87
5, 3242, Control_c, 3, 10, 127
5, 3243, Control_c, 3, 10, 87
5, 3244, Control_c, 3, 10, 89
5, 3245, Control_c, 3, 10, 92
5, 3246, Control_c, 3, 10, 92
5, 3247, Control_c, 3, 10, 127
5, 3248, Control_c, 3, 10, 92
5, 3249, Control_c, 3, 10, 127
5, 3250, Control_c, 3, 10, 97
5, 3251, Control_c, 3, 10, 127
5, 3252, Control_c, 3, 10, 127
5, 3253, Control_c, 3, 10, 100
5, 3254, Control_c, 3, 10, 127
5, 3255, Control_c, 3, 10, 103
5, 3256, Control_c, 3, 10, 103
5, 3257, Control_c, 3, 10, 105
5, 3258, Control_c, 3, 10, 105
5, 3259, Control_c, 3, 10, 127
5, 3260, Control_c, 3, 10, 105
5, 3261, Control_c, 3, 10, 105
5, 3262, Control_c, 3, 10, 111
5, 3263, Control_c, 3, 10, 111
5, 3264, Control_c, 3, 10, 127
5, 3265, Control_c, 3, 10, 111
5, 3266, Control_c, 3, 10, 113
5, 3267, Control_c, 3, 10, 127
5, 3268, Control_c, 3, 10, 113
5, 3269, Control_c, 3, 10, 116
5, 3270, Control_c, 3, 10, 127
5, 3271, Control_c, 3, 10, 127
5, 3272, Control_c, 3, 10, 116
5, 3273, Control_c, 3, 10, 127
5, 3274, Control_c, 3, 10, 119
5, 3275, Control_c, 3, 10, 127
5, 3276, Control_c, 3, 10, 121
5, 3277, Control_c, 3, 10, 127
5, 3278, Control_c, 3, 10, 127
5, 3279, Control_c, 3, 10, 124
5, 3280, Control_c, 3, 10, 127
5, 3281, Control_c, 3, 10, 127
5, 3282, Control_c, 3, 10, 127
5, 3283, Control_c, 3, 10, 127
5, 3284, Control_c, 3, 10, 127
5, 3285, Control_c, 3, 10, 127
5, 3286, Control_c, 3, 10, 127
5, 3287, Control_c, 3, 10, 127
5, 3288, Control_c, 3, 10, 127
5, 3312, Note_off_c, 3, 43, 0
5, 3312, Note_off_c, 3, 71, 0
5, 3312, Note_off_c, 3, 74, 0
5, 5761, Control_c, 3, 1, 84
5, 6480, Note_on_c, 3, 74, 100
5, 6504, Note_on_c, 3, 72, 100
5, 6528, Note_off_c, 3, 74, 0
5, 6528, Note_on_c, 3, 71, 100
5, 6552, Note_off_c, 3, 72, 0
5, 6552, Note_on_c, 3, 72, 100
5, 6576, Note_off_c, 3, 71, 0
5, 6576, Note_on_c, 3, 71, 100
5, 6576, Note_on_c, 3, 74, 100
5, 6600, Note_off_c, 3, 72, 0
5, 6600, Note_on_c, 3, 72, 100
5, 6624, Note_off_c, 3, 71, 0
5, 6624, Note_off_c, 3, 74, 0
5, 6624, Note_on_c, 3, 43, 100
5, 6624, Note_on_c, 3, 71, 100
5, 6624, Note_on_c, 3, 74, 100
5, 6648, Note_off_c, 3, 72, 0
5, 6768, Note_off_c, 3, 43, 0
5, 6768, Note_off_c, 3, 71, 0
5, 6768, Note_off_c, 3, 74, 0
5, 7848, Note_on_c, 3, 79, 100
5, 8066, Note_off_c, 3, 79, 0
5, 10368, Note_on_c, 3, 69, 127
5, 10392, Note_on_c, 3, 74, 127
5, 10416, Note_off_c, 3, 74, 0
5, 10416, Note_on_c, 3, 79, 127
5, 10440, Note_off_c, 3, 69, 0
5, 10440, Note_on_c, 3, 67, 127
5, 10464, Note_on_c, 3, 74, 127
5, 10476, Note_off_c, 3, 79, 0
5, 10488, Note_off_c, 3, 74, 0
5, 10488, Note_on_c, 3, 79, 127
5, 10512, Note_off_c, 3, 67, 0
5, 10512, Note_on_c, 3, 65, 127
5, 10536, Note_on_c, 3, 74, 127
5, 10548, Note_off_c, 3, 79, 0
5, 10560, Note_off_c, 3, 74, 0
5, 10560, Note_on_c, 3, 79, 127
5, 10584, Note_off_c, 3, 65, 0
5, 10584, Note_on_c, 3, 62, 127
5, 10608, Note_on_c, 3, 74, 127
5, 10620, Note_off_c, 3, 79, 0
5, 10632, Note_off_c, 3, 74, 0
5, 10632, Note_on_c, 3, 79, 127
5, 10656, Note_off_c, 3, 62, 0
5, 10656, Note_on_c, 3, 64, 127
5, 10680, Note_on_c, 3, 74, 127
5, 10692, Note_off_c, 3, 79, 0
5, 10704, Note_off_c, 3, 74, 0
5, 10704, Note_on_c, 3, 79, 127
5, 10728, Note_off_c, 3, 64, 0
5, 10728, Note_on_c, 3, 62, 127
5, 10752, Note_on_c, 3, 74, 127
5, 10764, Note_off_c, 3, 79, 0
5, 10776, Note_off_c, 3, 74, 0
5, 10776, Note_on_c, 3, 79, 127
5, 10800, Note_off_c, 3, 62, 0
5, 10800, Note_on_c, 3, 60, 127
5, 10824, Note_on_c, 3, 74, 127
5, 10836, Note_off_c, 3, 79, 0
5, 10848, Note_off_c, 3, 74, 0
5, 10848, Note_on_c, 3, 79, 127
5, 10872, Note_off_c, 3, 60, 0
5, 10872, Note_on_c, 3, 57, 127
5, 10896, Note_on_c, 3, 74, 127
5, 10908, Note_off_c, 3, 79, 0
5, 10920, Note_off_c, 3, 74, 0
5, 10920, Note_on_c, 3, 79, 127
5, 10944, Note_off_c, 3, 57, 0
5, 10944, Note_off_c, 3, 79, 0
5, 10944, Note_on_c, 3, 43, 127
5, 10944, Note_on_c, 3, 50, 127
5, 10944, Note_on_c, 3, 55, 127
5, 11232, Note_on_c, 3, 62, 100
5, 11232, Note_on_c, 3, 67, 100
5, 11256, Note_off_c, 3, 62, 0
5, 11256, Note_off_c, 3, 67, 0
5, 11280, Note_on_c, 3, 62, 100
5, 11280, Note_on_c, 3, 67, 100
5, 11304, Note_off_c, 3, 62, 0
5, 11304, Note_off_c, 3, 67, 0
5, 11304, Note_on_c, 3, 62, 116
5, 11304, Note_on_c, 3, 67, 116
5, 11304, Note_on_c, 3, 67, 116
5, 11328, Note_off_c, 3, 62, 0
5, 11328, Note_off_c, 3, 67, 0
5, 11328, Note_off_c, 3, 67, 0
5, 11328, Note_on_c, 3, 62, 95
5, 11328, Note_on_c, 3, 67, 95
5, 11352, Note_off_c, 3, 62, 0
5, 11352, Note_off_c, 3, 67, 0
5, 11352, Note_on_c, 3, 62, 108
5, 11352, Note_on_c, 3, 67, 108
5, 11352, Note_on_c, 3, 67, 108
5, 11376, Note_off_c, 3, 62, 0
5, 11376, Note_off_c, 3, 67, 0
5, 11376, Note_off_c, 3, 67, 0
5, 11376, Note_on_c, 3, 62, 116
5, 11376, Note_on_c, 3, 67, 116
5, 11400, Note_off_c, 3, 62, 0
5, 11400, Note_off_c, 3, 67, 0
5, 11424, Note_on_c, 3, 62, 127
5, 11424, Note_on_c, 3, 67, 127
5, 11448, Note_off_c, 3, 62, 0
5, 11448, Note_off_c, 3, 67, 0
5, 11448, Note_on_c, 3, 62, 100
5, 11448, Note_on_c, 3, 67, 100
5, 11448, Note_on_c, 3, 67, 100
5, 11472, Note_off_c, 3, 62, 0
5, 11472, Note_off_c, 3, 67, 0
5, 11472, Note_off_c, 3, 67, 0
5, 11472, Note_on_c, 3, 62, 87
5, 11472, Note_on_c, 3, 67, 87
5, 11496, Note_off_c, 3, 62, 0
5, 11496, Note_off_c, 3, 67, 0
5, 11496, Note_on_c, 3, 62, 87
5, 11496, Note_on_c, 3, 67, 87
5, 11520, Note_off_c, 3, 43, 0
5, 11520, Note_off_c, 3, 50, 0
5, 11520, Note_off_c, 3, 55, 0
5, 11520, Note_off_c, 3, 62, 0
5, 11520, Note_off_c, 3, 67, 0
5, 11520, Note_on_c, 3, 69, 127
5, 11544, Note_on_c, 3, 74, 127
5, 11568, Note_off_c, 3, 74, 0
5, 11568, Note_on_c, 3, 79, 127
5, 11592, Note_off_c, 3, 69, 0
5, 11592, Note_on_c, 3, 67, 127
5, 11616, Note_on_c, 3, 74, 127
5, 11628, Note_off_c, 3, 79, 0
5, 11640, Note_off_c, 3, 74, 0
5, 11640, Note_on_c, 3, 79, 127
5, 11664, Note_off_c, 3, 67, 0
5, 11664, Note_on_c, 3, 65, 127
5, 11688, Note_on_c, 3, 74, 127
5, 11700, Note_off_c, 3, 79, 0
5, 11712, Note_off_c, 3, 74, 0
5, 11712, Note_on_c, 3, 79, 127
5, 11736, Note_off_c, 3, 65, 0
5, 11736, Note_on_c, 3, 62, 127
5, 11760, Note_on_c, 3, 74, 127
5, 11772, Note_off_c, 3, 79, 0
5, 11784, Note_off_c, 3, 74, 0
5, 11784, Note_on_c, 3, 79, 127
5, 11808, Note_off_c, 3, 62, 0
5, 11808, Note_on_c, 3, 64, 127
5, 11832, Note_on_c, 3, 74, 127
5, 11844, Note_off_c, 3, 79, 0
5, 11856, Note_off_c, 3, 74, 0
5, 11856, Note_on_c, 3, 79, 127
5, 11880, Note_off_c, 3, 64, 0
5, 11880, Note_on_c, 3, 62, 127
5, 11904, Note_on_c, 3, 74, 127
5, 11916, Note_off_c, 3, 79, 0
5, 11928, Note_off_c, 3, 74, 0
5, 11928, Note_on_c, 3, 79, 127
5, 11952, Note_off_c, 3, 62, 0
5, 11952, Note_on_c, 3, 60, 127
5, 11976, Note_on_c, 3, 74, 127
5, 11988, Note_off_c, 3, 79, 0
5, 12000, Note_off_c, 3, 74, 0
5, 12000, Note_on_c, 3, 79, 127
5, 12024, Note_off_c, 3, 60, 0
5, 12024, Note_on_c, 3, 57, 127
5, 12048, Note_on_c, 3, 74, 127
5, 12060, Note_off_c, 3, 79, 0
5, 12072, Note_off_c, 3, 74, 0
5, 12072, Note_on_c, 3, 79, 127
5, 12096, Note_off_c, 3, 57, 0
5, 12096, Note_off_c, 3, 79, 0
5, 12096, Note_on_c, 3, 43, 127
5, 12096, Note_on_c, 3, 50, 127
5, 12096, Note_on_c, 3, 55, 127
5, 12384, Note_on_c, 3, 62, 100
5, 12384, Note_on_c, 3, 67, 100
5, 12408, Note_off_c, 3, 62, 0
5, 12408, Note_off_c, 3, 67, 0
5, 12432, Note_on_c, 3, 62, 100
5, 12432, Note_on_c, 3, 67, 100
5, 12456, Note_off_c, 3, 62, 0
5, 12456, Note_off_c, 3, 67, 0
5, 12456, Note_on_c, 3, 62, 116
5, 12456, Note_on_c, 3, 67, 116
5, 12456, Note_on_c, 3, 67, 116
5, 12480, Note_off_c, 3, 62, 0
5, 12480, Note_off_c, 3, 67, 0
5, 12480, Note_off_c, 3, 67, 0
5, 12480, Note_on_c, 3, 62, 95
5, 12480, Note_on_c, 3, 67, 95
5, 12504, Note_off_c, 3, 62, 0
5, 12504, Note_off_c, 3, 67, 0
5, 12504, Note_on_c, 3, 62, 108
5, 12504, Note_on_c, 3, 67, 108
5, 12504, Note_on_c, 3, 67, 108
5, 12528, Note_off_c, 3, 62, 0
5, 12528, Note_off_c, 3, 67, 0
5, 12528, Note_off_c, 3, 67, 0
5, 12528, Note_on_c, 3, 62, 116
5, 12528, Note_on_c, 3, 67, 116
5, 12552, Note_off_c, 3, 62, 0
5, 12552, Note_off_c, 3, 67, 0
5, 12576, Note_on_c, 3, 62, 127
5, 12576, Note_on_c, 3, 67, 127
5, 12600, Note_off_c, 3, 62, 0
5, 12600, Note_off_c, 3, 67, 0
5, 12600, Note_on_c, 3, 62, 100
5, 12600, Note_on_c, 3, 67, 100
5, 12600, Note_on_c, 3, 67, 100
5, 12624, Note_off_c, 3, 62, 0
5, 12624, Note_off_c, 3, 67, 0
5, 12624, Note_off_c, 3, 67, 0
5, 12624, Note_on_c, 3, 62, 87
5, 12624, Note_on_c, 3, 67, 87
5, 12648, Note_off_c, 3, 62, 0
5, 12648, Note_off_c, 3, 67, 0
5, 12648, Note_on_c, 3, 62, 87
5, 12648, Note_on_c, 3, 67, 87
5, 12672, Note_off_c, 3, 43, 0
5, 12672, Note_off_c, 3, 50, 0
5, 12672, Note_off_c, 3, 55, 0
5, 12672, Note_off_c, 3, 62, 0
5, 12672, Note_off_c, 3, 67, 0
5, 12672, Note_on_c, 3, 69, 127
5, 12696, Note_on_c, 3, 74, 127
5, 12720, Note_off_c, 3, 74, 0
5, 12720, Note_on_c, 3, 79, 127
5, 12744, Note_off_c, 3, 69, 0
5, 12744, Note_on_c, 3, 67, 127
5, 12768, Note_on_c, 3, 74, 127
5, 12780, Note_off_c, 3, 79, 0
5, 12792, Note_off_c, 3, 74, 0
5, 12792, Note_on_c, 3, 79, 127
5, 12816, Note_off_c, 3, 67, 0
5, 12816, Note_on_c, 3, 65, 127
5, 12840, Note_on_c, 3, 74, 127
5, 12852, Note_off_c, 3, 79, 0
5, 12864, Note_off_c, 3, 74, 0
5, 12864, Note_on_c, 3, 79, 127
5, 12888, Note_off_c, 3, 65, 0
5, 12888, Note_on_c, 3, 62, 127
5, 12912, Note_on_c, 3, 74, 127
5, 12924, Note_off_c, 3, 79, 0
5, 12936, Note_off_c, 3, 74, 0
5, 12936, Note_on_c, 3, 79, 127
5, 12960, Note_off_c, 3, 62, 0
5, 12960, Note_on_c, 3, 64, 127
5, 12984, Note_on_c, 3, 74, 127
5, 12996, Note_off_c, 3, 79, 0
5, 13008, Note_off_c, 3, 74, 0
5, 13008, Note_on_c, 3, 79, 127
5, 13032, Note_off_c, 3, 64, 0
5, 13032, Note_on_c, 3, 62, 127
5, 13056, Note_on_c, 3, 74, 127
5, 13068, Note_off_c, 3, 79, 0
5, 13080, Note_off_c, 3, 74, 0
5, 13080, Note_on_c, 3, 79, 127
5, 13104, Note_off_c, 3, 62, 0
5, 13104, Note_on_c, 3, 60, 127
5, 13128, Note_on_c, 3, 74, 127
5, 13140, Note_off_c, 3, 79, 0
5, 13152, Note_off_c, 3, 74, 0
5, 13152, Note_on_c, 3, 79, 127
5, 13176, Note_off_c, 3, 60, 0
5, 13176, Note_on_c, 3, 57, 127
5, 13200, Note_on_c, 3, 74, 127
5, 13212, Note_off_c, 3, 79, 0
5, 13224, Note_off_c, 3, 74, 0
5, 13224, Note_on_c, 3, 79, 127
5, 13248, Note_off_c, 3, 57, 0
5, 13248, Note_off_c, 3, 79, 0
5, 13248, Note_on_c, 3, 55, 127
5, 13248, Note_on_c, 3, 74, 127
5, 13248, Note_on_c, 3, 79, 127
5, 13536, Note_off_c, 3, 55, 0
5, 13536, Note_off_c, 3, 74, 0
5, 13536, Note_off_c, 3, 79, 0
5, 21601, Control_c, 3, 1, 84
5, 22320, Note_on_c, 3, 74, 100
5, 22321, Control_c, 3, 10, 116
5, 22344, Note_on_c, 3, 72, 100
5, 22349, Control_c, 3, 10, 10
5, 22364, Control_c, 3, 10, 116
5, 22368, Note_off_c, 3, 74, 0
5, 22368, Note_on_c, 3, 71, 100
5, 22392, Note_off_c, 3, 72, 0
5, 22392, Control_c, 3, 10, 5
5, 22392, Note_on_c, 3, 72, 100
5, 22414, Control_c, 3, 10, 119
5, 22416, Note_off_c, 3, 71, 0
5, 22416, Note_on_c, 3, 71, 100
5, 22416, Note_on_c, 3, 74, 100
5, 22436, Control_c, 3, 10, 7
5, 22440, Note_off_c, 3, 72, 0
5, 22440, Note_on_c, 3, 72, 100
5, 22458, Control_c, 3, 10, 119
5, 22464, Note_off_c, 3, 71, 0
5, 22464, Note_off_c, 3, 74, 0
5, 22464, Note_on_c, 3, 43, 100
5, 22464, Note_on_c, 3, 71, 100
5, 22464, Note_on_c, 3, 74, 100
5, 22488, Note_off_c, 3, 72, 0
5, 22608, Note_off_c, 3, 43, 0
5, 22608, Note_off_c, 3, 71, 0
5, 22608, Note_off_c, 3, 74, 0
5, 23472, Note_on_c, 3, 74, 100
5, 23473, Control_c, 3, 10, 113
5, 23474, Control_c, 3, 10, 111
5, 23475, Control_c, 3, 10, 111
5, 23476, Control_c, 3, 10, 111
5, 23477, Control_c, 3, 10, 111
5, 23478, Control_c, 3, 10, 111
5, 23479, Control_c, 3, 10, 111
5, 23480, Control_c, 3, 10, 111
5, 23481, Control_c, 3, 10, 111
5, 23482, Control_c, 3, 10, 108
5, 23483, Control_c, 3, 10, 108
5, 23484, Control_c, 3, 10, 105
5, 23485, Control_c, 3, 10, 103
5, 23486, Control_c, 3, 10, 103
5, 23487, Control_c, 3, 10, 97
5, 23488, Control_c, 3, 10, 95
5, 23489, Control_c, 3, 10, 95
5, 23490, Control_c, 3, 10, 92
5, 23491, Control_c, 3, 10, 92
5, 23492, Control_c, 3, 10, 87
5, 23493, Control_c, 3, 10, 84
5, 23494, Control_c, 3, 10, 82
5, 23495, Control_c, 3, 10, 79
5, 23496, Control_c, 3, 10, 76
5, 23496, Note_on_c, 3, 72, 100
5, 23497, Control_c, 3, 10, 71
5, 23498, Control_c, 3, 10, 68
5, 23499, Control_c, 3, 10, 66
5, 23500, Control_c, 3, 10, 58
5, 23501, Control_c, 3, 10, 55
5, 23502, Control_c, 3, 10, 47
5, 23503, Control_c, 3, 10, 42
5, 23504, Control_c, 3, 10, 37
5, 23505, Control_c, 3, 10, 34
5, 23506, Control_c, 3, 10, 31
5, 23507, Control_c, 3, 10, 29
5, 23508, Control_c, 3, 10, 29
5, 23509, Control_c, 3, 10, 26
5, 23510, Control_c, 3, 10, 26
5, 23511, Control_c, 3, 10, 23
5, 23512, Control_c, 3, 10, 23
5, 23513, Control_c, 3, 10, 23
5, 23514, Control_c, 3, 10, 23
5, 23515, Control_c, 3, 10, 23
5, 23516, Control_c, 3, 10, 23
5, 23517, Control_c, 3, 10, 23
5, 23518, Control_c, 3, 10, 23
5, 23519, Control_c, 3, 10, 23
5, 23520, Note_off_c, 3, 74, 0
5, 23520, Control_c, 3, 10, 26
5, 23520, Note_on_c, 3, 71, 100
5, 23521, Control_c, 3, 10, 29
5, 23522, Control_c, 3, 10, 31
5, 23523, Control_c, 3, 10, 34
5, 23524, Control_c, 3, 10, 39
5, 23525, Control_c, 3, 10, 39
5, 23526, Control_c, 3, 10, 44
5, 23527, Control_c, 3, 10, 58
5, 23528, Control_c, 3, 10, 108
5, 23529, Control_c, 3, 10, 113
5, 23530, Control_c, 3, 10, 116
5, 23531, Control_c, 3, 10, 121
5, 23532, Control_c, 3, 10, 124
5, 23533, Control_c, 3, 10, 127
5, 23534, Control_c, 3, 10, 127
5, 23535, Control_c, 3, 10, 127
5, 23536, Control_c, 3, 10, 127
5, 23537, Control_c, 3, 10, 127
5, 23538, Control_c, 3, 10, 127
5, 23539, Control_c, 3, 10, 127
5, 23540, Control_c, 3, 10, 127
5, 23541, Control_c, 3, 10, 127
5, 23542, Control_c, 3, 10, 127
5, 23543, Control_c, 3, 10, 127
5, 23544, Note_off_c, 3, 72, 0
5, 23544, Control_c, 3, 10, 127
5, 23544, Note_on_c, 3, 72, 100
5, 23545, Control_c, 3, 10, 127
5, 23546, Control_c, 3, 10, 127
5, 23547, Control_c, 3, 10, 127
5, 23548, Control_c, 3, 10, 124
5, 23549, Control_c, 3, 10, 119
5, 23550, Control_c, 3, 10, 111
5, 23551, Control_c, 3, 10, 100
5, 23552, Control_c, 3, 10, 92
5, 23553, Control_c, 3, 10, 87
5, 23554, Control_c, 3, 10, 76
5, 23555, Control_c, 3, 10, 74
5, 23556, Control_c, 3, 10, 55
5, 23557, Control_c, 3, 10, 42
5, 23558, Control_c, 3, 10, 39
5, 23559, Control_c, 3, 10, 29
5, 23560, Control_c, 3, 10, 23
5, 23561, Control_c, 3, 10, 15
5, 23562, Control_c, 3, 10, 13
5, 23563, Control_c, 3, 10, 13
5, 23564, Control_c, 3, 10, 2
5, 23565, Control_c, 3, 10, 2
5, 23566, Control_c, 3, 10, 0
5, 23567, Control_c, 3, 10, 0
5, 23568, Note_off_c, 3, 71, 0
5, 23568, Control_c, 3, 10, 0
5, 23568, Note_on_c, 3, 71, 100
5, 23568, Note_on_c, 3, 74, 100
5, 23569, Control_c, 3, 10, 0
5, 23570, Control_c, 3, 10, 0
5, 23571, Control_c, 3, 10, 0
5, 23572, Control_c, 3, 10, 0
5, 23573, Control_c, 3, 10, 0
5, 23574, Control_c, 3, 10, 0
5, 23575, Control_c, 3, 10, 0
5, 23576, Control_c, 3, 10, 0
5, 23577, Control_c, 3, 10, 0
5, 23578, Control_c, 3, 10, 0
5, 23579, Control_c, 3, 10, 0
5, 23580, Control_c, 3, 10, 7
5, 23581, Control_c, 3, 10, 7
5, 23582, Control_c, 3, 10, 15
5, 23583, Control_c, 3, 10, 18
5, 23584, Control_c, 3, 10, 26
5, 23585, Control_c, 3, 10, 29
5, 23586, Control_c, 3, 10, 34
5, 23587, Control_c, 3, 10, 39
5, 23588, Control_c, 3, 10, 50
5, 23589, Control_c, 3, 10, 66
5, 23590, Control_c, 3, 10, 71
5, 23591, Control_c, 3, 10, 82
5, 23592, Note_off_c, 3, 72, 0
5, 23592, Control_c, 3, 10, 92
5, 23592, Note_on_c, 3, 72, 100
5, 23593, Control_c, 3, 10, 97
5, 23594, Control_c, 3, 10, 103
5, 23595, Control_c, 3, 10, 108
5, 23596, Control_c, 3, 10, 113
5, 23597, Control_c, 3, 10, 119
5, 23598, Control_c, 3, 10, 124
5, 23599, Control_c, 3, 10, 127
5, 23600, Control_c, 3, 10, 127
5, 23601, Control_c, 3, 10, 127
5, 23602, Control_c, 3, 10, 127
5, 23603, Control_c, 3, 10, 127
5, 23604, Control_c, 3, 10, 127
5, 23605, Control_c, 3, 10, 127
5, 23606, Control_c, 3, 10, 127
5, 23607, Control_c, 3, 10, 127
5, 23608, Control_c, 3, 10, 127
5, 23609, Control_c, 3, 10, 127
5, 23610, Control_c, 3, 10, 127
5, 23611, Control_c, 3, 10, 127
5, 23612, Control_c, 3, 10, 127
5, 23613, Control_c, 3, 10, 127
5, 23614, Control_c, 3, 10, 127
5, 23615, Control_c, 3, 10, 127
5, 23616, Note_off_c, 3, 71, 0
5, 23616, Note_off_c, 3, 74, 0
5, 23616, Control_c, 3, 10, 124
5, 23616, Note_on_c, 3, 43, 100
5, 23616, Note_on_c, 3, 71, 100
5, 23616, Note_on_c, 3, 74, 100
5, 23617, Control_c, 3, 10, 108
5, 23618, Control_c, 3, 10, 95
5, 23619, Control_c, 3, 10, 89
5, 23620, Control_c, 3, 10, 82
5, 23621, Control_c, 3, 10, 74
5, 23622, Control_c, 3, 10, 66
5, 23623, Control_c, 3, 10, 55
5, 23624, Control_c, 3, 10, 50
5, 23625, Control_c, 3, 10, 44
5, 23626, Control_c, 3, 10, 42
5, 23627, Control_c, 3, 10, 37
5, 23628, Control_c, 3, 10, 31
5, 23629, Control_c, 3, 10, 23
5, 23630, Control_c, 3, 10, 15
5, 23631, Control_c, 3, 10, 15
5, 23632, Control_c, 3, 10, 10
5, 23633, Control_c, 3, 10, 7
5, 23634, Control_c, 3, 10, 23
5, 23635, Control_c, 3, 10, 15
5, 23636, Control_c, 3, 10, 13
5, 23637, Control_c, 3, 10, 13
5, 23638, Control_c, 3, 10, 10
5, 23639, Control_c, 3, 10, 127
5, 23640, Note_off_c, 3, 72, 0
5, 23640, Control_c, 3, 10, 127
5, 23641, Control_c, 3, 10, 10
5, 23642, Control_c, 3, 10, 10
5, 23643, Control_c, 3, 10, 10
5, 23644, Control_c, 3, 10, 127
5, 23645, Control_c, 3, 10, 10
5, 23646, Control_c, 3, 10, 127
5, 23647, Control_c, 3, 10, 10
5, 23648, Control_c, 3, 10, 10
5, 23649, Control_c, 3, 10, 10
5, 23650, Control_c, 3, 10, 10
5, 23651, Control_c, 3, 10, 10
5, 23652, Control_c, 3, 10, 10
5, 23653, Control_c, 3, 10, 10
5, 23654, Control_c, 3, 10, 10
5, 23655, Control_c, 3, 10, 10
5, 23656, Control_c, 3, 10, 10
5, 23657, Control_c, 3, 10, 10
5, 23658, Control_c, 3, 10, 10
5, 23659, Control_c, 3, 10, 127
5, 23660, Control_c, 3, 10, 13
5, 23661, Control_c, 3, 10, 15
5, 23662, Control_c, 3, 10, 21
5, 23663, Control_c, 3, 10, 21
5, 23664, Control_c, 3, 10, 23
5, 23665, Control_c, 3, 10, 26
5, 23666, Control_c, 3, 10, 31
5, 23667, Control_c, 3, 10, 31
5, 23668, Control_c, 3, 10, 37
5, 23669, Control_c, 3, 10, 42
5, 23670, Control_c, 3, 10, 42
5, 23671, Control_c, 3, 10, 44
5, 23672, Control_c, 3, 10, 127
5, 23673, Control_c, 3, 10, 52
5, 23674, Control_c, 3, 10, 58
5, 23675, Control_c, 3, 10, 60
5, 23676, Control_c, 3, 10, 127
5, 23677, Control_c, 3, 10, 63
5, 23678, Control_c, 3, 10, 68
5, 23679, Control_c, 3, 10, 127
5, 23680, Control_c, 3, 10, 71
5, 23681, Control_c, 3, 10, 74
5, 23682, Control_c, 3, 10, 74
5, 23683, Control_c, 3, 10, 127
5, 23684, Control_c, 3, 10, 79
5, 23685, Control_c, 3, 10, 82
5, 23686, Control_c, 3, 10, 127
5, 23687, Control_c, 3, 10, 84
5, 23688, Control_c, 3, 10, 127
5, 23689, Control_c, 3, 10, 87
5, 23690, Control_c, 3, 10, 127
5, 23691, Control_c, 3, 10, 87
5, 23692, Control_c, 3, 10, 89
5, 23693, Control_c, 3, 10, 92
5, 23694, Control_c, 3, 10, 92
5, 23695, Control_c, 3, 10, 127
5, 23696, Control_c, 3, 10, 92
5, 23697, Control_c, 3, 10, 127
5, 23698, Control_c, 3, 10, 97
5, 23699, Control_c, 3, 10, 127
5, 23700, Control_c, 3, 10, 127
5, 23701, Control_c, 3, 10, 100
5, 23702, Control_c, 3, 10, 127
5, 23703, Control_c, 3, 10, 103
5, 23704, Control_c, 3, 10, 103
5, 23705, Control_c, 3, 10, 105
5, 23706, Control_c, 3, 10, 105
5, 23707, Control_c, 3, 10, 127
5, 23708, Control_c, 3, 10, 105
5, 23709, Control_c, 3, 10, 105
5, 23710, Control_c, 3, 10, 111
5, 23711, Control_c, 3, 10, 111
5, 23712, Control_c, 3, 10, 127
5, 23713, Control_c, 3, 10, 111
5, 23714, Control_c, 3, 10, 113
5, 23715, Control_c, 3, 10, 127
5, 23716, Control_c, 3, 10, 113
5, 23717, Control_c, 3, 10, 116
5, 23718, Control_c, 3, 10, 127
5, 23719, Control_c, 3, 10, 127
5, 23720, Control_c, 3, 10, 116
5, 23721, Control_c, 3, 10, 127
5, 23722, Control_c, 3, 10, 119
5, 23723, Control_c, 3, 10, 127
5, 23724, Control_c, 3, 10, 121
5, 23725, Control_c, 3, 10, 127
5, 23726, Control_c, 3, 10, 127
5, 23727, Control_c, 3, 10, 124
5, 23728, Control_c, 3, 10, 127
5, 23729, Control_c, 3, 10, 127
5, 23730, Control_c, 3, 10, 127
5, 23731, Control_c, 3, 10, 127
5, 23732, Control_c, 3, 10, 127
5, 23733, Control_c, 3, 10, 127
5, 23734, Control_c, 3, 10, 127
5, 23735, Control_c, 3, 10, 127
5, 23736, Control_c, 3, 10, 127
5, 23760, Note_off_c, 3, 43, 0
5, 23760, Note_off_c, 3, 71, 0
5, 23760, Note_off_c, 3, 74, 0
5, 23904, Note_on_c, 3, 69, 127
5, 23928, Note_on_c, 3, 74, 127
5, 23952, Note_off_c, 3, 74, 0
5, 23952, Note_on_c, 3, 79, 127
5, 23976, Note_off_c, 3, 69, 0
5, 23976, Note_on_c, 3, 67, 127
5, 24000, Note_on_c, 3, 74, 127
5, 24012, Note_off_c, 3, 79, 0
5, 24024, Note_off_c, 3, 74, 0
5, 24024, Note_on_c, 3, 79, 127
5, 24048, Note_off_c, 3, 67, 0
5, 24048, Note_on_c, 3, 65, 127
5, 24072, Note_on_c, 3, 74, 127
5, 24084, Note_off_c, 3, 79, 0
5, 24096, Note_off_c, 3, 74, 0
5, 24096, Note_on_c, 3, 79, 127
5, 24120, Note_off_c, 3, 65, 0
5, 24120, Note_on_c, 3, 62, 127
5, 24144, Note_on_c, 3, 74, 127
5, 24156, Note_off_c, 3, 79, 0
5, 24168, Note_off_c, 3, 74, 0
5, 24168, Note_on_c, 3, 79, 127
5, 24192, Note_off_c, 3, 62, 0
5, 24192, Note_on_c, 3, 64, 127
5, 24216, Note_on_c, 3, 74, 127
5, 24228, Note_off_c, 3, 79, 0
5, 24240, Note_off_c, 3, 74, 0
5, 24240, Note_on_c, 3, 79, 127
5, 24264, Note_off_c, 3, 64, 0
5, 24264, Note_on_c, 3, 62, 127
5, 24288, Note_on_c, 3, 74, 127
5, 24300, Note_off_c, 3, 79, 0
5, 24312, Note_off_c, 3, 74, 0
5, 24312, Note_on_c, 3, 79, 127
5, 24336, Note_off_c, 3, 62, 0
5, 24336, Note_on_c, 3, 60, 127
5, 24360, Note_on_c, 3, 74, 127
5, 24372, Note_off_c, 3, 79, 0
5, 24384, Note_off_c, 3, 74, 0
5, 24384, Note_on_c, 3, 79, 127
5, 24408, Note_off_c, 3, 60, 0
5, 24408, Note_on_c, 3, 57, 127
5, 24432, Note_on_c, 3, 74, 127
5, 24444, Note_off_c, 3, 79, 0
5, 24456, Note_off_c, 3, 74, 0
5, 24456, Note_on_c, 3, 79, 127
5, 24480, Note_off_c, 3, 57, 0
5, 24480, Note_off_c, 3, 79, 0
5, 24480, Note_on_c, 3, 43, 127
5, 24480, Note_on_c, 3, 50, 127
5, 24480, Note_on_c, 3, 55, 127
5, 24768, Note_on_c, 3, 62, 100
5, 24768, Note_on_c, 3, 67, 100
5, 24792, Note_off_c, 3, 62, 0
5, 24792, Note_off_c, 3, 67, 0
5, 24816, Note_on_c, 3, 62, 100
5, 24816, Note_on_c, 3, 67, 100
5, 24840, Note_off_c, 3, 62, 0
5, 24840, Note_off_c, 3, 67, 0
5, 24840, Note_on_c, 3, 62, 116
5, 24840, Note_on_c, 3, 67, 116
5, 24840, Note_on_c, 3, 67, 116
5, 24864, Note_off_c, 3, 62, 0
5, 24864, Note_off_c, 3, 67, 0
5, 24864, Note_off_c, 3, 67, 0
5, 24864, Note_on_c, 3, 62, 95
5, 24864, Note_on_c, 3, 67, 95
5, 24888, Note_off_c, 3, 62, 0
5, 24888, Note_off_c, 3, 67, 0
5, 24888, Note_on_c, 3, 62, 108
5, 24888, Note_on_c, 3, 67, 108
5, 24888, Note_on_c, 3, 67, 108
5, 24912, Note_off_c, 3, 62, 0
5, 24912, Note_off_c, 3, 67, 0
5, 24912, Note_off_c, 3, 67, 0
5, 24912, Note_on_c, 3, 62, 116
5, 24912, Note_on_c, 3, 67, 116
5, 24936, Note_off_c, 3, 62, 0
5, 24936, Note_off_c, 3, 67, 0
5, 24960, Note_on_c, 3, 62, 127
5, 24960, Note_on_c, 3, 67, 127
5, 24984, Note_off_c, 3, 62, 0
5, 24984, Note_off_c, 3, 67, 0
5, 24984, Note_on_c, 3, 62, 100
5, 24984, Note_on_c, 3, 67, 100
5, 24984, Note_on_c, 3, 67, 100
5, 25008, Note_off_c, 3, 62, 0
5, 25008, Note_off_c, 3, 67, 0
5, 25008, Note_off_c, 3, 67, 0
5, 25008, Note_on_c, 3, 62, 87
5, 25008, Note_on_c, 3, 67, 87
5, 25032, Note_off_c, 3, 62, 0
5, 25032, Note_off_c, 3, 67, 0
5, 25032, Note_on_c, 3, 62, 87
5, 25032, Note_on_c, 3, 67, 87
5, 25056, Note_off_c, 3, 43, 0
5, 25056, Note_off_c, 3, 50, 0
5, 25056, Note_off_c, 3, 55, 0
5, 25056, Note_off_c, 3, 62, 0
5, 25056, Note_off_c, 3, 67, 0
5, 25056, Note_on_c, 3, 69, 127
5, 25080, Note_on_c, 3, 74, 127
5, 25104, Note_off_c, 3, 74, 0
5, 25104, Note_on_c, 3, 79, 127
5, 25128, Note_off_c, 3, 69, 0
5, 25128, Note_on_c, 3, 67, 127
5, 25152, Note_on_c, 3, 74, 127
5, 25164, Note_off_c, 3, 79, 0
5, 25176, Note_off_c, 3, 74, 0
5, 25176, Note_on_c, 3, 79, 127
5, 25200, Note_off_c, 3, 67, 0
5, 25200, Note_on_c, 3, 65, 127
5, 25224, Note_on_c, 3, 74, 127
5, 25236, Note_off_c, 3, 79, 0
5, 25248, Note_off_c, 3, 74, 0
5, 25248, Note_on_c, 3, 79, 127
5, 25272, Note_off_c, 3, 65, 0
5, 25272, Note_on_c, 3, 62, 127
5, 25296, Note_on_c, 3, 74, 127
5, 25308, Note_off_c, 3, 79, 0
5, 25320, Note_off_c, 3, 74, 0
5, 25320, Note_on_c, 3, 79, 127
5, 25344, Note_off_c, 3, 62, 0
5, 25344, Note_on_c, 3, 64, 127
5, 25368, Note_on_c, 3, 74, 127
5, 25380, Note_off_c, 3, 79, 0
5, 25392, Note_off_c, 3, 74, 0
5, 25392, Note_on_c, 3, 79, 127
5, 25416, Note_off_c, 3, 64, 0
5, 25416, Note_on_c, 3, 62, 127
5, 25440, Note_on_c, 3, 74, 127
5, 25452, Note_off_c, 3, 79, 0
5, 25464, Note_off_c, 3, 74, 0
5, 25464, Note_on_c, 3, 79, 127
5, 25488, Note_off_c, 3, 62, 0
5, 25488, Note_on_c, 3, 60, 127
5, 25512, Note_on_c, 3, 74, 127
5, 25524, Note_off_c, 3, 79, 0
5, 25536, Note_off_c, 3, 74, 0
5, 25536, Note_on_c, 3, 79, 127
5, 25560, Note_off_c, 3, 60, 0
5, 25560, Note_on_c, 3, 57, 127
5, 25584, Note_on_c, 3, 74, 127
5, 25596, Note_off_c, 3, 79, 0
5, 25608, Note_off_c, 3, 74, 0
5, 25608, Note_on_c, 3, 79, 127
5, 25632, Note_off_c, 3, 57, 0
5, 25632, Note_off_c, 3, 79, 0
5, 25632, Note_on_c, 3, 43, 127
5, 25632, Note_on_c, 3, 50, 127
5, 25632, Note_on_c, 3, 55, 127
5, 25920, Note_on_c, 3, 62, 100
5, 25920, Note_on_c, 3, 67, 100
5, 25944, Note_off_c, 3, 62, 0
5, 25944, Note_off_c, 3, 67, 0
5, 25968, Note_on_c, 3, 62, 100
5, 25968, Note_on_c, 3, 67, 100
5, 25992, Note_off_c, 3, 62, 0
5, 25992, Note_off_c, 3, 67, 0
5, 25992, Note_on_c, 3, 62, 116
5, 25992, Note_on_c, 3, 67, 116
5, 25992, Note_on_c, 3, 67, 116
5, 26016, Note_off_c, 3, 62, 0
5, 26016, Note_off_c, 3, 67, 0
5, 26016, Note_off_c, 3, 67, 0
5, 26016, Note_on_c, 3, 62, 95
5, 26016, Note_on_c, 3, 67, 95
5, 26040, Note_off_c, 3, 62, 0
5, 26040, Note_off_c, 3, 67, 0
5, 26040, Note_on_c, 3, 62, 108
5, 26040, Note_on_c, 3, 67, 108
5, 26040, Note_on_c, 3, 67, 108
5, 26064, Note_off_c, 3, 62, 0
5, 26064, Note_off_c, 3, 67, 0
5, 26064, Note_off_c, 3, 67, 0
5, 26064, Note_on_c, 3, 62, 116
5, 26064, Note_on_c, 3, 67, 116
5, 26088, Note_off_c, 3, 62, 0
5, 26088, Note_off_c, 3, 67, 0
5, 26112, Note_on_c, 3, 62, 127
5, 26112, Note_on_c, 3, 67, 127
5, 26136, Note_off_c, 3, 62, 0
5, 26136, Note_off_c, 3, 67, 0
5, 26136, Note_on_c, 3, 62, 100
5, 26136, Note_on_c, 3, 67, 100
5, 26136, Note_on_c, 3, 67, 100
5, 26160, Note_off_c, 3, 62, 0
5, 26160, Note_off_c, 3, 67, 0
5, 26160, Note_off_c, 3, 67, 0
5, 26160, Note_on_c, 3, 62, 87
5, 26160, Note_on_c, 3, 67, 87
5, 26184, Note_off_c, 3, 62, 0
5, 26184, Note_off_c, 3, 67, 0
5, 26184, Note_on_c, 3, 62, 87
5, 26184, Note_on_c, 3, 67, 87
5, 26208, Note_off_c, 3, 43, 0
5, 26208, Note_off_c, 3, 50, 0
5, 26208, Note_off_c, 3, 55, 0
5, 26208, Note_off_c, 3, 62, 0
5, 26208, Note_off_c, 3, 67, 0
5, 26208, Note_on_c, 3, 69, 127
5, 26232, Note_on_c, 3, 74, 127
5, 26256, Note_off_c, 3, 74, 0
5, 26256, Note_on_c, 3, 79, 127
5, 26280, Note_off_c, 3, 69, 0
5, 26280, Note_on_c, 3, 67, 127
5, 26304, Note_on_c, 3, 74, 127
5, 26316, Note_off_c, 3, 79, 0
5, 26328, Note_off_c, 3, 74, 0
5, 26328, Note_on_c, 3, 79, 127
5, 26352, Note_off_c, 3, 67, 0
5, 26352, Note_on_c, 3, 65, 127
5, 26376, Note_on_c, 3, 74, 127
5, 26388, Note_off_c, 3, 79, 0
5, 26400, Note_off_c, 3, 74, 0
5, 26400, Note_on_c, 3, 79, 127
5, 26424, Note_off_c, 3, 65, 0
5, 26424, Note_on_c, 3, 62, 127
5, 26448, Note_on_c, 3, 74, 127
5, 26460, Note_off_c, 3, 79, 0
5, 26472, Note_off_c, 3, 74, 0
5, 26472, Note_on_c, 3, 79, 127
5, 26496, Note_off_c, 3, 62, 0
5, 26496, Note_on_c, 3, 64, 127
5, 26520, Note_on_c, 3, 74, 127
5, 26532, Note_off_c, 3, 79, 0
5, 26544, Note_off_c, 3, 74, 0
5, 26544, Note_on_c, 3, 79, 127
5, 26568, Note_off_c, 3, 64, 0
5, 26568, Note_on_c, 3, 62, 127
5, 26592, Note_on_c, 3, 74, 127
5, 26604, Note_off_c, 3, 79, 0
5, 26616, Note_off_c, 3, 74, 0
5, 26616, Note_on_c, 3, 79, 127
5, 26640, Note_off_c, 3, 62, 0
5, 26640, Note_on_c, 3, 60, 127
5, 26664, Note_on_c, 3, 74, 127
5, 26676, Note_off_c, 3, 79, 0
5, 26688, Note_off_c, 3, 74, 0
5, 26688, Note_on_c, 3, 79, 127
5, 26712, Note_off_c, 3, 60, 0
5, 26712, Note_on_c, 3, 57, 127
5, 26736, Note_on_c, 3, 74, 127
5, 26748, Note_off_c, 3, 79, 0
5, 26760, Note_off_c, 3, 74, 0
5, 26760, Note_on_c, 3, 79, 127
5, 26784, Note_off_c, 3, 57, 0
5, 26784, Note_off_c, 3, 79, 0
5, 26784, Note_on_c, 3, 43, 127
5, 26784, Note_on_c, 3, 50, 127
5, 26784, Note_on_c, 3, 55, 127
5, 27072, Note_on_c, 3, 62, 100
5, 27072, Note_on_c, 3, 67, 100
5, 27096, Note_off_c, 3, 62, 0
5, 27096, Note_off_c, 3, 67, 0
5, 27120, Note_on_c, 3, 62, 100
5, 27120, Note_on_c, 3, 67, 100
5, 27144, Note_off_c, 3, 62, 0
5, 27144, Note_off_c, 3, 67, 0
5, 27144, Note_on_c, 3, 62, 116
5, 27144, Note_on_c, 3, 67, 116
5, 27144, Note_on_c, 3, 67, 116
5, 27168, Note_off_c, 3, 62, 0
5, 27168, Note_off_c, 3, 67, 0
5, 27168, Note_off_c, 3, 67, 0
5, 27168, Note_on_c, 3, 62, 95
5, 27168, Note_on_c, 3, 67, 95
5, 27192, Note_off_c, 3, 62, 0
5, 27192, Note_off_c, 3, 67, 0
5, 27192, Note_on_c, 3, 62, 108
5, 27192, Note_on_c, 3, 67, 108
5, 27192, Note_on_c, 3, 67, 108
5, 27216, Note_off_c, 3, 62, 0
5, 27216, Note_off_c, 3, 67, 0
5, 27216, Note_off_c, 3, 67, 0
5, 27216, Note_on_c, 3, 62, 116
5, 27216, Note_on_c, 3, 67, 116
5, 27240, Note_off_c, 3, 62, 0
5, 27240, Note_off_c, 3, 67, 0
5, 27264, Note_on_c, 3, 62, 127
5, 27264, Note_on_c, 3, 67, 127
5, 27288, Note_off_c, 3, 62, 0
5, 27288, Note_off_c, 3, 67, 0
5, 27288, Note_on_c, 3, 62, 100
5, 27288, Note_on_c, 3, 67, 100
5, 27288, Note_on_c, 3, 67, 100
5, 27312, Note_off_c, 3, 62, 0
5, 27312, Note_off_c, 3, 67, 0
5, 27312, Note_off_c, 3, 67, 0
5, 27312, Note_on_c, 3, 62, 87
5, 27312, Note_on_c, 3, 67, 87
5, 27336, Note_off_c, 3, 62, 0
5, 27336, Note_off_c, 3, 67, 0
5, 27336, Note_on_c, 3, 62, 87
5, 27336, Note_on_c, 3, 67, 87
5, 27360, Note_off_c, 3, 43, 0
5, 27360, Note_off_c, 3, 50, 0
5, 27360, Note_off_c, 3, 55, 0
5, 27360, Note_off_c, 3, 62, 0
5, 27360, Note_off_c, 3, 67, 0
5, 27360, Note_on_c, 3, 69, 127
5, 27384, Note_on_c, 3, 74, 127
5, 27408, Note_off_c, 3, 74, 0
5, 27408, Note_on_c, 3, 79, 127
5, 27432, Note_off_c, 3, 69, 0
5, 27432, Note_on_c, 3, 67, 127
5, 27456, Note_on_c, 3, 74, 127
5, 27468, Note_off_c, 3, 79, 0
5, 27480, Note_off_c, 3, 74, 0
5, 27480, Note_on_c, 3, 79, 127
5, 27504, Note_off_c, 3, 67, 0
5, 27504, Note_on_c, 3, 65, 127
5, 27528, Note_on_c, 3, 74, 127
5, 27540, Note_off_c, 3, 79, 0
5, 27552, Note_off_c, 3, 74, 0
5, 27552, Note_on_c, 3, 79, 127
5, 27576, Note_off_c, 3, 65, 0
5, 27576, Note_on_c, 3, 62, 127
5, 27600, Note_on_c, 3, 74, 127
5, 27612, Note_off_c, 3, 79, 0
5, 27624, Note_off_c, 3, 74, 0
5, 27624, Note_on_c, 3, 79, 127
5, 27648, Note_off_c, 3, 62, 0
5, 27648, Note_on_c, 3, 64, 127
5, 27672, Note_on_c, 3, 74, 127
5, 27684, Note_off_c, 3, 79, 0
5, 27696, Note_off_c, 3, 74, 0
5, 27696, Note_on_c, 3, 79, 127
5, 27720, Note_off_c, 3, 64, 0
5, 27720, Note_on_c, 3, 62, 127
5, 27744, Note_on_c, 3, 74, 127
5, 27756, Note_off_c, 3, 79, 0
5, 27768, Note_off_c, 3, 74, 0
5, 27768, Note_on_c, 3, 79, 127
5, 27792, Note_off_c, 3, 62, 0
5, 27792, Note_on_c, 3, 60, 127
5, 27816, Note_on_c, 3, 74, 127
5, 27828, Note_off_c, 3, 79, 0
5, 27840, Note_off_c, 3, 74, 0
5, 27840, Note_on_c, 3, 79, 127
5, 27864, Note_off_c, 3, 60, 0
5, 27864, Note_on_c, 3, 57, 127
5, 27888, Note_on_c, 3, 74, 127
5, 27900, Note_off_c, 3, 79, 0
5, 27912, Note_off_c, 3, 74, 0
5, 27912, Note_on_c, 3, 79, 127
5, 27936, Note_off_c, 3, 57, 0
5, 27936, Note_off_c, 3, 79, 0
5, 27936, Note_on_c, 3, 55, 127
5, 27936, Note_on_c, 3, 74, 127
5, 27936, Note_on_c, 3, 79, 127
5, 28224, Note_off_c, 3, 55, 0
5, 28224, Note_off_c, 3, 74, 0
5, 28224, Note_off_c, 3, 79, 0
5, 28656, Note_on_c, 3, 86, 127
5, 28680, Note_off_c, 3, 86, 0
5, 28680, Note_on_c, 3, 84, 127
5, 28704, Note_off_c, 3, 84, 0
5, 28704, Note_on_c, 3, 83, 127
5, 28728, Note_off_c, 3, 83, 0
5, 28728, Note_on_c, 3, 84, 127
5, 28752, Note_off_c, 3, 84, 0
5, 28752, Note_on_c, 3, 83, 127
5, 28752, Note_on_c, 3, 86, 127
5, 28776, Note_off_c, 3, 83, 0
5, 28776, Note_off_c, 3, 86, 0
5, 28776, Note_on_c, 3, 84, 127
5, 28800, Note_off_c, 3, 84, 0
5, 28800, Note_on_c, 3, 83, 127
5, 28944, Note_off_c, 3, 83, 0
5, 29089, Control_c, 3, 1, 84
5, 29808, Note_on_c, 3, 74, 100
5, 29809, Control_c, 3, 10, 116
5, 29832, Note_on_c, 3, 72, 100
5, 29837, Control_c, 3, 10, 10
5, 29852, Control_c, 3, 10, 116
5, 29856, Note_off_c, 3, 74, 0
5, 29856, Note_on_c, 3, 71, 100
5, 29880, Note_off_c, 3, 72, 0
5, 29880, Control_c, 3, 10, 5
5, 29880, Note_on_c, 3, 72, 100
5, 29902, Control_c, 3, 10, 119
5, 29904, Note_off_c, 3, 71, 0
5, 29904, Note_on_c, 3, 71, 100
5, 29904, Note_on_c, 3, 74, 100
5, 29924, Control_c, 3, 10, 7
5, 29928, Note_off_c, 3, 72, 0
5, 29928, Note_on_c, 3, 72, 100
5, 29946, Control_c, 3, 10, 119
5, 29952, Note_off_c, 3, 71, 0
5, 29952, Note_off_c, 3, 74, 0
5, 29952, Note_on_c, 3, 43, 100
5, 29952, Note_on_c, 3, 71, 100
5, 29952, Note_on_c, 3, 74, 100
5, 29976, Note_off_c, 3, 72, 0
5, 30096, Note_off_c, 3, 43, 0
5, 30096, Note_off_c, 3, 71, 0
5, 30096, Note_off_c, 3, 74, 0
5, 30096, End_track
6, 0, Start_track
6, 0, Title_t, "Track 6\000"
6, 0, Program_c, 5, 5
6, 0, Control_c, 5, 7, 108
6, 0, Control_c, 5, 10, 0
6, 0, Control_c, 5, 91, 127
6, 0, Control_c, 5, 93, 127
6, 1163, Control_c, 5, 1, 103
6, 1163, Note_on_c, 5, 43, 100
6, 1163, Note_on_c, 5, 59, 100
6, 1163, Note_on_c, 5, 62, 100
6, 1164, Control_c, 5, 1, 103
6, 1165, Control_c, 5, 1, 103
6, 1166, Control_c, 5, 1, 127
6, 1167, Control_c, 5, 1, 100
6, 1168, Control_c, 5, 1, 100
6, 1451, Note_off_c, 5, 43, 0
6, 1451, Note_off_c, 5, 59, 0
6, 1451, Note_off_c, 5, 62, 0
6, 1451, Note_on_c, 5, 43, 100
6, 1451, Note_on_c, 5, 59, 100
6, 1451, Note_on_c, 5, 64, 100
6, 1643, Note_off_c, 5, 59, 0
6, 1643, Note_on_c, 5, 59, 100
6, 1691, Note_off_c, 5, 59, 0
6, 1691, Note_on_c, 5, 55, 100
6, 1739, Note_off_c, 5, 43, 0
6, 1739, Note_off_c, 5, 64, 0
6, 1739, Note_off_c, 5, 55, 0
6, 1739, Note_on_c, 5, 43, 100
6, 1739, Note_on_c, 5, 60, 100
6, 1739, Note_on_c, 5, 63, 100
6, 2027, Note_off_c, 5, 43, 0
6, 2027, Note_off_c, 5, 60, 0
6, 2027, Note_off_c, 5, 63, 0
6, 2027, Note_on_c, 5, 43, 100
6, 2027, Note_on_c, 5, 59, 100
6, 2027, Note_on_c, 5, 62, 100
6, 2219, Note_off_c, 5, 59, 0
6, 2219, Note_on_c, 5, 60, 100
6, 2267, Note_off_c, 5, 60, 0
6, 2267, Note_on_c, 5, 59, 100
6, 2315, Note_off_c, 5, 43, 0
6, 2315, Note_off_c, 5, 62, 0
6, 2315, Note_off_c, 5, 59, 0
6, 2315, Note_on_c, 5, 43, 100
6, 2315, Note_on_c, 5, 59, 100
6, 2315, Note_on_c, 5, 62, 100
6, 2603, Note_off_c, 5, 43, 0
6, 2603, Note_off_c, 5, 59, 0
6, 2603, Note_off_c, 5, 62, 0
6, 2603, Note_on_c, 5, 43, 100
6, 2603, Note_on_c, 5, 59, 100
6, 2603, Note_on_c, 5, 64, 100
6, 2795, Note_off_c, 5, 59, 0
6, 2795, Note_on_c, 5, 59, 100
6, 2843, Note_off_c, 5, 59, 0
6, 2843, Note_on_c, 5, 55, 100
6, 2891, Note_off_c, 5, 43, 0
6, 2891, Note_off_c, 5, 64, 0
6, 2891, Note_off_c, 5, 55, 0
6, 2891, Note_on_c, 5, 43, 100
6, 2891, Note_on_c, 5, 60, 100
6, 2891, Note_on_c, 5, 63, 100
6, 3179, Note_off_c, 5, 43, 0
6, 3179, Note_off_c, 5, 60, 0
6, 3179, Note_off_c, 5, 63, 0
6, 3179, Note_on_c, 5, 47, 100
6, 3179, Note_on_c, 5, 59, 100
6, 3203, Note_off_c, 5, 59, 0
6, 3203, Note_on_c, 5, 48, 100
6, 3203, Note_on_c, 5, 60, 100
6, 3227, Note_on_c, 5, 59, 100
6, 3251, Note_off_c, 5, 48, 0
6, 3251, Note_off_c, 5, 60, 0
6, 3251, Note_off_c, 5, 59, 0
6, 3251, Note_on_c, 5, 48, 100
6, 3251, Note_on_c, 5, 60, 100
6, 3323, Note_off_c, 5, 48, 0
6, 3323, Note_off_c, 5, 60, 0
6, 3323, Note_on_c, 5, 59, 100
6, 3347, Note_off_c, 5, 59, 0
6, 3347, Note_on_c, 5, 48, 100
6, 3347, Note_on_c, 5, 60, 100
6, 3395, Note_off_c, 5, 48, 0
6, 3395, Note_off_c, 5, 60, 0
6, 3395, Note_on_c, 5, 48, 100
6, 3395, Note_on_c, 5, 60, 100
6, 3467, Note_off_c, 5, 47, 0
6, 3467, Note_off_c, 5, 48, 0
6, 3467, Note_off_c, 5, 60, 0
6, 3467, Note_on_c, 5, 43, 100
6, 3467, Note_on_c, 5, 47, 100
6, 3467, Note_on_c, 5, 50, 100
6, 3467, Note_on_c, 5, 53, 100
6, 3467, Note_on_c, 5, 59, 100
6, 3755, Note_off_c, 5, 43, 0
6, 3755, Note_off_c, 5, 47, 0
6, 3755, Note_off_c, 5, 50, 0
6, 3755, Note_off_c, 5, 53, 0
6, 3755, Note_off_c, 5, 59, 0
6, 3755, Note_on_c, 5, 43, 100
6, 3755, Note_on_c, 5, 47, 100
6, 3755, Note_on_c, 5, 52, 100
6, 3755, Note_on_c, 5, 59, 100
6, 3947, Note_off_c, 5, 59, 0
6, 3947, Note_on_c, 5, 59, 100
6, 3947, Note_on_c, 5, 64, 100
6, 3959, Note_off_c, 5, 59, 0
6, 3959, Note_off_c, 5, 64, 0
6, 4043, Note_off_c, 5, 43, 0
6, 4043, Note_off_c, 5, 47, 0
6, 4043, Note_off_c, 5, 52, 0
6, 4043, Note_on_c, 5, 48, 100
6, 4043, Note_on_c, 5, 55, 100
6, 4043, Note_on_c, 5, 63, 100
6, 4235, Note_on_c, 5, 62, 100
6, 4331, Note_off_c, 5, 48, 0
6, 4331, Note_off_c, 5, 55, 0
6, 4331, Note_off_c, 5, 63, 0
6, 4331, Note_off_c, 5, 62, 0
6, 4331, Note_on_c, 5, 43, 100
6, 4331, Note_on_c, 5, 50, 100
6, 4331, Note_on_c, 5, 55, 100
6, 4331, Note_on_c, 5, 60, 100
6, 4475, Note_off_c, 5, 60, 0
6, 4475, Note_on_c, 5, 59, 100
6, 4619, Note_off_c, 5, 43, 0
6, 4619, Note_off_c, 5, 50, 0
6, 4619, Note_off_c, 5, 55, 0
6, 4619, Note_off_c, 5, 59, 0
6, 4619, Note_on_c, 5, 43, 100
6, 4619, Note_on_c, 5, 53, 100
6, 4619, Note_on_c, 5, 59, 100
6, 4619, Note_on_c, 5, 62, 100
6, 4907, Note_off_c, 5, 43, 0
6, 4907, Note_off_c, 5, 53, 0
6, 4907, Note_off_c, 5, 59, 0
6, 4907, Note_off_c, 5, 62, 0
6, 4907, Note_on_c, 5, 43, 100
6, 4907, Note_on_c, 5, 47, 100
6, 4907, Note_on_c, 5, 52, 100
6, 4907, Note_on_c, 5, 59, 100
6, 4907, Note_on_c, 5, 64, 100
6, 5195, Note_off_c, 5, 43, 0
6, 5195, Note_off_c, 5, 47, 0
6, 5195, Note_off_c, 5, 52, 0
6, 5195, Note_off_c, 5, 59, 0
6, 5195, Note_off_c, 5, 64, 0
6, 5195, Note_on_c, 5, 63, 127
6, 5483, Note_off_c, 5, 63, 0
6, 5507, Note_on_c, 5, 55, 100
6, 5507, Note_on_c, 5, 60, 100
6, 5555, Note_off_c, 5, 55, 0
6, 5555, Note_off_c, 5, 60, 0
6, 5579, Note_on_c, 5, 55, 60
6, 5579, Note_on_c, 5, 60, 60
6, 5603, Note_off_c, 5, 55, 0
6, 5603, Note_off_c, 5, 60, 0
6, 5651, Note_on_c, 5, 55, 100
6, 5651, Note_on_c, 5, 60, 100
6, 5675, Note_off_c, 5, 55, 0
6, 5675, Note_off_c, 5, 60, 0
6, 5699, Note_on_c, 5, 55, 95
6, 5699, Note_on_c, 5, 60, 95
6, 5723, Note_off_c, 5, 55, 0
6, 5723, Note_off_c, 5, 60, 0
6, 5723, Note_on_c, 5, 55, 44
6, 5723, Note_on_c, 5, 60, 44
6, 5735, Note_off_c, 5, 55, 0
6, 5735, Note_off_c, 5, 60, 0
6, 5747, Note_on_c, 5, 55, 95
6, 5747, Note_on_c, 5, 60, 95
6, 5759, Note_off_c, 5, 55, 0
6, 5759, Note_off_c, 5, 60, 0
6, 5771, Note_on_c, 5, 43, 100
6, 5771, Note_on_c, 5, 53, 100
6, 5771, Note_on_c, 5, 59, 100
6, 5771, Note_on_c, 5, 62, 100
6, 5987, Note_off_c, 5, 59, 0
6, 5987, Note_on_c, 5, 59, 100
6, 6035, Note_off_c, 5, 59, 0
6, 6035, Note_on_c, 5, 59, 100
6, 6059, Note_off_c, 5, 43, 0
6, 6059, Note_off_c, 5, 53, 0
6, 6059, Note_off_c, 5, 62, 0
6, 6059, Note_off_c, 5, 59, 0
6, 6059, Note_on_c, 5, 59, 100
6, 6059, Note_on_c, 5, 64, 100
6, 6251, Note_on_c, 5, 55, 100
6, 6299, Note_off_c, 5, 59, 0
6, 6299, Note_off_c, 5, 55, 0
6, 6299, Note_on_c, 5, 59, 100
6, 6347, Note_off_c, 5, 64, 0
6, 6347, Note_off_c, 5, 59, 0
6, 6347, Note_on_c, 5, 63, 127
6, 6491, Note_on_c, 5, 62, 100
6, 6635, Note_off_c, 5, 63, 0
6, 6635, Note_off_c, 5, 62, 0
6, 6635, Note_on_c, 5, 60, 100
6, 6659, Note_on_c, 5, 55, 100
6, 6707, Note_off_c, 5, 55, 0
6, 6731, Note_on_c, 5, 55, 60
6, 6755, Note_off_c, 5, 55, 0
6, 6779, Note_off_c, 5, 60, 0
6, 6779, End_track
7, 0, Start_track
7, 0, Title_t, "Track 7\000"
7, 0, Program_c, 6, 31
7, 0, Control_c, 6, 7, 97
7, 0, Control_c, 6, 10, 28
7, 0, Control_c, 6, 91, 121
7, 4608, Note_on_c, 6, 62, 100
7, 5040, Note_off_c, 6, 62, 0
7, 8064, Note_on_c, 6, 62, 100
7, 8496, Note_off_c, 6, 62, 0
7, 16704, Note_on_c, 6, 62, 100
7, 17136, Note_off_c, 6, 62, 0
7, 17280, Note_on_c, 6, 63, 100
7, 17568, Note_off_c, 6, 63, 0
7, 17568, Note_on_c, 6, 68, 100
7, 17569, Pitch_bend_c, 6, 640
7, 17760, Pitch_bend_c, 6, 256
7, 17761, Pitch_bend_c, 6, 640
7, 17763, Pitch_bend_c, 6, 896
7, 17764, Pitch_bend_c, 6, 1280
7, 17766, Pitch_bend_c, 6, 1280
7, 17767, Pitch_bend_c, 6, 1920
7, 17769, Pitch_bend_c, 6, 2304
7, 17770, Pitch_bend_c, 6, 2688
7, 17772, Pitch_bend_c, 6, 2944
7, 17773, Pitch_bend_c, 6, 3712
7, 17775, Pitch_bend_c, 6, 3968
7, 17776, Pitch_bend_c, 6, 4736
7, 17799, Pitch_bend_c, 6, 6656
7, 17800, Pitch_bend_c, 6, 7040
7, 17802, Pitch_bend_c, 6, 7040
7, 17803, Pitch_bend_c, 6, 7680
7, 17805, Pitch_bend_c, 6, 8064
7, 17806, Pitch_bend_c, 6, 8448
7, 17808, Pitch_bend_c, 6, 8448
7, 17809, Pitch_bend_c, 6, 9088
7, 17811, Pitch_bend_c, 6, 8704
7, 17812, Pitch_bend_c, 6, 9088
7, 17814, Pitch_bend_c, 6, 9472
7, 17815, Pitch_bend_c, 6, 9728
7, 17817, Pitch_bend_c, 6, 10752
7, 17818, Pitch_bend_c, 6, 11392
7, 17820, Pitch_bend_c, 6, 12160
7, 17821, Pitch_bend_c, 6, 13184
7, 17823, Pitch_bend_c, 6, 13184
7, 17824, Pitch_bend_c, 6, 13184
7, 17826, Pitch_bend_c, 6, 13184
7, 17827, Pitch_bend_c, 6, 12416
7, 17856, Note_off_c, 6, 68, 0
7, 17904, Note_on_c, 6, 66, 58
7, 18288, Note_off_c, 6, 66, 0
7, 18726, Pitch_bend_c, 6, 8064
7, 18912, Note_on_c, 6, 62, 100
7, 18960, Note_off_c, 6, 62, 0
7, 18960, Note_on_c, 6, 64, 100
7, 19008, Note_off_c, 6, 64, 0
7, 19008, Note_on_c, 6, 65, 100
7, 19152, Note_off_c, 6, 65, 0
7, 19152, Note_on_c, 6, 72, 100
7, 19176, Note_on_c, 6, 74, 100
7, 19200, Note_on_c, 6, 71, 100
7, 19224, Note_off_c, 6, 72, 0
7, 19248, Note_off_c, 6, 74, 0
7, 19248, Note_on_c, 6, 65, 100
7, 19296, Note_off_c, 6, 71, 0
7, 19296, Note_off_c, 6, 65, 0
7, 19296, Note_on_c, 6, 64, 100
7, 19440, Note_off_c, 6, 64, 0
7, 19440, Note_on_c, 6, 72, 100
7, 19464, Note_on_c, 6, 74, 100
7, 19488, Note_on_c, 6, 71, 100
7, 19536, Note_off_c, 6, 72, 0
7, 19536, Note_off_c, 6, 74, 0
7, 19584, Note_off_c, 6, 71, 0
7, 19584, Note_on_c, 6, 63, 100
7, 19728, Note_off_c, 6, 63, 0
7, 19728, Note_on_c, 6, 72, 100
7, 19752, Note_on_c, 6, 74, 100
7, 19776, Note_off_c, 6, 72, 0
7, 19776, Note_on_c, 6, 71, 100
7, 19800, Note_off_c, 6, 74, 0
7, 19872, Note_off_c, 6, 71, 0
7, 19872, Note_on_c, 6, 75, 100
7, 19920, Note_off_c, 6, 75, 0
7, 19920, Note_on_c, 6, 74, 100
7, 19968, Note_off_c, 6, 74, 0
7, 19968, Note_on_c, 6, 72, 100
7, 20016, Note_off_c, 6, 72, 0
7, 20016, Note_on_c, 6, 67, 100
7, 20064, Note_off_c, 6, 67, 0
7, 20064, Note_on_c, 6, 62, 100
7, 20112, Note_on_c, 6, 64, 100
7, 20160, Note_off_c, 6, 62, 0
7, 20160, Note_off_c, 6, 64, 0
7, 20160, Note_on_c, 6, 65, 100
7, 20304, Note_off_c, 6, 65, 0
7, 20304, Note_on_c, 6, 72, 100
7, 20328, Note_on_c, 6, 74, 100
7, 20352, Note_on_c, 6, 71, 100
7, 20376, Note_off_c, 6, 72, 0
7, 20400, Note_off_c, 6, 74, 0
7, 20400, Note_on_c, 6, 65, 100
7, 20448, Note_off_c, 6, 71, 0
7, 20448, Note_off_c, 6, 65, 0
7, 20448, Note_on_c, 6, 64, 100
7, 20592, Note_off_c, 6, 64, 0
7, 20592, Note_on_c, 6, 72, 100
7, 20616, Note_on_c, 6, 74, 100
7, 20640, Note_on_c, 6, 71, 100
7, 20688, Note_off_c, 6, 72, 0
7, 20688, Note_off_c, 6, 74, 0
7, 20736, Note_off_c, 6, 71, 0
7, 20736, End_track
8, 0, Start_track
8, 0, Title_t, "Track 8\000"
8, 0, Program_c, 7, 123
8, 0, Control_c, 7, 7, 46
8, 0, Control_c, 7, 10, 67
8, 0, Control_c, 7, 91, 127
8, 0, Control_c, 7, 93, 127
8, 1008, Note_on_c, 7, 96, 100
8, 1020, Note_off_c, 7, 96, 0
8, 1032, Note_on_c, 7, 91, 100
8, 1044, Note_off_c, 7, 91, 0
8, 1056, Note_on_c, 7, 82, 100
8, 1068, Note_off_c, 7, 82, 0
8, 1068, Note_on_c, 7, 70, 100
8, 1068, Note_on_c, 7, 78, 100
8, 1080, Note_off_c, 7, 70, 0
8, 1080, Note_off_c, 7, 78, 0
8, 1092, Note_on_c, 7, 67, 100
8, 1104, Note_off_c, 7, 67, 0
8, 1104, Note_on_c, 7, 61, 100
8, 1116, Note_off_c, 7, 61, 0
8, 1116, Note_on_c, 7, 59, 100
8, 1128, Note_off_c, 7, 59, 0
8, 1128, Note_on_c, 7, 61, 100
8, 1140, Note_off_c, 7, 61, 0
8, 1140, Note_on_c, 7, 48, 100
8, 1152, Note_off_c, 7, 48, 0
8, 1152, Note_on_c, 7, 84, 100
8, 1164, Note_off_c, 7, 84, 0
8, 1272, Note_on_c, 7, 61, 100
8, 1284, Note_off_c, 7, 61, 0
8, 1296, Note_on_c, 7, 77, 100
8, 1344, Note_off_c, 7, 77, 0
8, 1344, Note_on_c, 7, 59, 100
8, 1392, Note_off_c, 7, 59, 0
8, 1392, Note_on_c, 7, 41, 100
8, 1440, Note_off_c, 7, 41, 0
8, 1584, Note_on_c, 7, 77, 100
8, 1632, Note_off_c, 7, 77, 0
8, 1632, Note_on_c, 7, 51, 100
8, 1680, Note_off_c, 7, 51, 0
8, 1680, Note_on_c, 7, 15, 100
8, 1728, Note_off_c, 7, 15, 0
8, 2448, Note_on_c, 7, 77, 100
8, 2496, Note_off_c, 7, 77, 0
8, 2496, Note_on_c, 7, 59, 100
8, 2544, Note_off_c, 7, 59, 0
8, 2544, Note_on_c, 7, 41, 100
8, 2592, Note_off_c, 7, 41, 0
8, 2736, Note_on_c, 7, 77, 100
8, 2784, Note_off_c, 7, 77, 0
8, 2784, Note_on_c, 7, 51, 100
8, 2832, Note_off_c, 7, 51, 0
8, 2832, Note_on_c, 7, 15, 100
8, 2880, Note_off_c, 7, 15, 0
8, 5760, Note_on_c, 7, 84, 100
8, 5772, Note_off_c, 7, 84, 0
8, 5880, Note_on_c, 7, 61, 100
8, 5892, Note_off_c, 7, 61, 0
8, 5904, Note_on_c, 7, 77, 100
8, 5952, Note_off_c, 7, 77, 0
8, 5952, Note_on_c, 7, 59, 100
8, 6000, Note_off_c, 7, 59, 0
8, 6000, Note_on_c, 7, 41, 100
8, 6048, Note_off_c, 7, 41, 0
8, 6192, Note_on_c, 7, 77, 100
8, 6240, Note_off_c, 7, 77, 0
8, 6240, Note_on_c, 7, 51, 100
8, 6288, Note_off_c, 7, 51, 0
8, 6288, Note_on_c, 7, 15, 100
8, 6336, Note_off_c, 7, 15, 0
8, 9360, Note_on_c, 7, 77, 100
8, 9408, Note_off_c, 7, 77, 0
8, 9408, Note_on_c, 7, 59, 100
8, 9456, Note_off_c, 7, 59, 0
8, 9456, Note_on_c, 7, 41, 100
8, 9504, Note_off_c, 7, 41, 0
8, 9648, Note_on_c, 7, 77, 100
8, 9696, Note_off_c, 7, 77, 0
8, 9696, Note_on_c, 7, 51, 100
8, 9744, Note_off_c, 7, 51, 0
8, 9744, Note_on_c, 7, 15, 100
8, 9792, Note_off_c, 7, 15, 0
8, 21600, Note_on_c, 7, 84, 100
8, 21612, Note_off_c, 7, 84, 0
8, 21720, Note_on_c, 7, 61, 100
8, 21732, Note_off_c, 7, 61, 0
8, 21744, Note_on_c, 7, 77, 100
8, 21792, Note_off_c, 7, 77, 0
8, 21792, Note_on_c, 7, 59, 100
8, 21840, Note_off_c, 7, 59, 0
8, 21840, Note_on_c, 7, 41, 100
8, 21888, Note_off_c, 7, 41, 0
8, 22032, Note_on_c, 7, 77, 100
8, 22080, Note_off_c, 7, 77, 0
8, 22080, Note_on_c, 7, 51, 100
8, 22128, Note_off_c, 7, 51, 0
8, 22128, Note_on_c, 7, 15, 100
8, 22176, Note_off_c, 7, 15, 0
8, 22896, Note_on_c, 7, 77, 100
8, 22944, Note_off_c, 7, 77, 0
8, 22944, Note_on_c, 7, 59, 100
8, 22992, Note_off_c, 7, 59, 0
8, 22992, Note_on_c, 7, 41, 100
8, 23040, Note_off_c, 7, 41, 0
8, 23184, Note_on_c, 7, 77, 100
8, 23232, Note_off_c, 7, 77, 0
8, 23232, Note_on_c, 7, 51, 100
8, 23280, Note_off_c, 7, 51, 0
8, 23280, Note_on_c, 7, 15, 100
8, 23328, Note_off_c, 7, 15, 0
8, 29088, Note_on_c, 7, 84, 100
8, 29100, Note_off_c, 7, 84, 0
8, 29208, Note_on_c, 7, 61, 100
8, 29220, Note_off_c, 7, 61, 0
8, 29232, Note_on_c, 7, 77, 100
8, 29280, Note_off_c, 7, 77, 0
8, 29280, Note_on_c, 7, 59, 100
8, 29328, Note_off_c, 7, 59, 0
8, 29328, Note_on_c, 7, 41, 100
8, 29376, Note_off_c, 7, 41, 0
8, 29520, Note_on_c, 7, 77, 100
8, 29568, Note_off_c, 7, 77, 0
8, 29568, Note_on_c, 7, 51, 100
8, 29616, Note_off_c, 7, 51, 0
8, 29616, Note_on_c, 7, 15, 100
8, 29664, Note_off_c, 7, 15, 0
8, 29664, End_track
9, 0, Start_track
9, 0, Title_t, "Track 9\000"
9, 0, Program_c, 8, 35
9, 0, Control_c, 8, 91, 48
9, 0, Control_c, 8, 93, 0
9, 1152, Note_on_c, 8, 31, 100
9, 1440, Note_off_c, 8, 31, 0
9, 1440, Note_on_c, 8, 31, 100
9, 1728, Note_off_c, 8, 31, 0
9, 1728, Note_on_c, 8, 31, 100
9, 2016, Note_off_c, 8, 31, 0
9, 2304, Note_on_c, 8, 31, 100
9, 2592, Note_off_c, 8, 31, 0
9, 2592, Note_on_c, 8, 31, 100
9, 2880, Note_off_c, 8, 31, 0
9, 2880, Note_on_c, 8, 31, 100
9, 3168, Note_off_c, 8, 31, 0
9, 3456, Note_on_c, 8, 31, 100
9, 3744, Note_off_c, 8, 31, 0
9, 3744, Note_on_c, 8, 31, 100
9, 4032, Note_off_c, 8, 31, 0
9, 4032, Note_on_c, 8, 31, 100
9, 4320, Note_off_c, 8, 31, 0
9, 4608, Note_on_c, 8, 31, 100
9, 4896, Note_off_c, 8, 31, 0
9, 4896, Note_on_c, 8, 31, 100
9, 5184, Note_off_c, 8, 31, 0
9, 5184, Note_on_c, 8, 31, 100
9, 5328, Note_off_c, 8, 31, 0
9, 5328, Note_on_c, 8, 31, 100
9, 5472, Note_on_c, 8, 43, 100
9, 5520, Note_off_c, 8, 43, 0
9, 5520, Note_on_c, 8, 45, 100
9, 5568, Note_off_c, 8, 45, 0
9, 5568, Note_on_c, 8, 47, 100
9, 5616, Note_off_c, 8, 31, 0
9, 5616, Note_off_c, 8, 47, 0
9, 5616, Note_on_c, 8, 31, 100
9, 5616, Note_on_c, 8, 48, 100
9, 5664, Note_off_c, 8, 48, 0
9, 5664, Note_on_c, 8, 50, 100
9, 5712, Note_off_c, 8, 50, 0
9, 5712, Note_on_c, 8, 48, 100
9, 5760, Note_off_c, 8, 31, 0
9, 5760, Note_off_c, 8, 48, 0
9, 5760, Note_on_c, 8, 31, 100
9, 6048, Note_off_c, 8, 31, 0
9, 6048, Note_on_c, 8, 31, 100
9, 6336, Note_off_c, 8, 31, 0
9, 6336, Note_on_c, 8, 31, 100
9, 6624, Note_off_c, 8, 31, 0
9, 6912, Note_on_c, 8, 31, 100
9, 7200, Note_off_c, 8, 31, 0
9, 7200, Note_on_c, 8, 31, 100
9, 7488, Note_off_c, 8, 31, 0
9, 7488, Note_on_c, 8, 31, 100
9, 7776, Note_off_c, 8, 31, 0
9, 8064, Note_on_c, 8, 31, 100
9, 8352, Note_off_c, 8, 31, 0
9, 8352, Note_on_c, 8, 31, 100
9, 8640, Note_off_c, 8, 31, 0
9, 8640, Note_on_c, 8, 31, 100
9, 8784, Note_off_c, 8, 31, 0
9, 8784, Note_on_c, 8, 31, 100
9, 8928, Note_on_c, 8, 43, 100
9, 8976, Note_off_c, 8, 43, 0
9, 8976, Note_on_c, 8, 45, 100
9, 9024, Note_off_c, 8, 45, 0
9, 9024, Note_on_c, 8, 47, 100
9, 9072, Note_off_c, 8, 31, 0
9, 9072, Note_off_c, 8, 47, 0
9, 9072, Note_on_c, 8, 31, 100
9, 9072, Note_on_c, 8, 48, 100
9, 9120, Note_off_c, 8, 48, 0
9, 9120, Note_on_c, 8, 50, 100
9, 9168, Note_off_c, 8, 50, 0
9, 9168, Note_on_c, 8, 48, 100
9, 9216, Note_off_c, 8, 31, 0
9, 9216, Note_off_c, 8, 48, 0
9, 9216, Note_on_c, 8, 31, 100
9, 9504, Note_off_c, 8, 31, 0
9, 9504, Note_on_c, 8, 31, 100
9, 9792, Note_off_c, 8, 31, 0
9, 9792, Note_on_c, 8, 31, 100
9, 9936, Note_off_c, 8, 31, 0
9, 9936, Note_on_c, 8, 31, 100
9, 10080, Note_on_c, 8, 43, 100
9, 10128, Note_off_c, 8, 43, 0
9, 10128, Note_on_c, 8, 45, 100
9, 10176, Note_off_c, 8, 45, 0
9, 10176, Note_on_c, 8, 47, 100
9, 10224, Note_off_c, 8, 31, 0
9, 10224, Note_off_c, 8, 47, 0
9, 10224, Note_on_c, 8, 31, 100
9, 10224, Note_on_c, 8, 48, 100
9, 10272, Note_off_c, 8, 48, 0
9, 10272, Note_on_c, 8, 50, 100
9, 10320, Note_off_c, 8, 50, 0
9, 10320, Note_on_c, 8, 52, 100
9, 10368, Note_off_c, 8, 31, 0
9, 10368, Note_off_c, 8, 52, 0
9, 10368, Note_on_c, 8, 41, 100
9, 10656, Note_off_c, 8, 41, 0
9, 10656, Note_on_c, 8, 36, 100
9, 10944, Note_off_c, 8, 36, 0
9, 10944, Note_on_c, 8, 31, 100
9, 11232, Note_off_c, 8, 31, 0
9, 11232, Note_on_c, 8, 31, 100
9, 11232, Note_on_c, 8, 43, 100
9, 11256, Note_off_c, 8, 31, 0
9, 11256, Note_off_c, 8, 43, 0
9, 11256, Note_on_c, 8, 33, 100
9, 11256, Note_on_c, 8, 45, 100
9, 11280, Note_off_c, 8, 33, 0
9, 11280, Note_off_c, 8, 45, 0
9, 11280, Note_on_c, 8, 35, 100
9, 11280, Note_on_c, 8, 47, 100
9, 11304, Note_off_c, 8, 35, 0
9, 11304, Note_off_c, 8, 47, 0
9, 11304, Note_on_c, 8, 36, 100
9, 11304, Note_on_c, 8, 48, 100
9, 11328, Note_off_c, 8, 36, 0
9, 11328, Note_off_c, 8, 48, 0
9, 11328, Note_on_c, 8, 35, 100
9, 11328, Note_on_c, 8, 47, 100
9, 11352, Note_off_c, 8, 35, 0
9, 11352, Note_off_c, 8, 47, 0
9, 11352, Note_on_c, 8, 33, 100
9, 11352, Note_on_c, 8, 45, 100
9, 11376, Note_off_c, 8, 33, 0
9, 11376, Note_off_c, 8, 45, 0
9, 11376, Note_on_c, 8, 35, 100
9, 11376, Note_on_c, 8, 47, 100
9, 11400, Note_off_c, 8, 35, 0
9, 11400, Note_off_c, 8, 47, 0
9, 11400, Note_on_c, 8, 36, 100
9, 11400, Note_on_c, 8, 48, 100
9, 11424, Note_off_c, 8, 36, 0
9, 11424, Note_off_c, 8, 48, 0
9, 11424, Note_on_c, 8, 38, 100
9, 11424, Note_on_c, 8, 50, 100
9, 11448, Note_off_c, 8, 38, 0
9, 11448, Note_off_c, 8, 50, 0
9, 11448, Note_on_c, 8, 40, 100
9, 11448, Note_on_c, 8, 52, 100
9, 11472, Note_off_c, 8, 40, 0
9, 11472, Note_off_c, 8, 52, 0
9, 11472, Note_on_c, 8, 41, 100
9, 11472, Note_on_c, 8, 53, 100
9, 11496, Note_off_c, 8, 41, 0
9, 11496, Note_off_c, 8, 53, 0
9, 11496, Note_on_c, 8, 43, 100
9, 11496, Note_on_c, 8, 55, 100
9, 11520, Note_off_c, 8, 43, 0
9, 11520, Note_off_c, 8, 55, 0
9, 11520, Note_on_c, 8, 41, 100
9, 11808, Note_off_c, 8, 41, 0
9, 11808, Note_on_c, 8, 36, 100
9, 12096, Note_off_c, 8, 36, 0
9, 12096, Note_on_c, 8, 31, 100
9, 12384, Note_off_c, 8, 31, 0
9, 12384, Note_on_c, 8, 31, 100
9, 12384, Note_on_c, 8, 43, 100
9, 12408, Note_off_c, 8, 31, 0
9, 12408, Note_off_c, 8, 43, 0
9, 12408, Note_on_c, 8, 33, 100
9, 12408, Note_on_c, 8, 45, 100
9, 12432, Note_off_c, 8, 33, 0
9, 12432, Note_off_c, 8, 45, 0
9, 12432, Note_on_c, 8, 35, 100
9, 12432, Note_on_c, 8, 47, 100
9, 12456, Note_off_c, 8, 35, 0
9, 12456, Note_off_c, 8, 47, 0
9, 12456, Note_on_c, 8, 36, 100
9, 12456, Note_on_c, 8, 48, 100
9, 12480, Note_off_c, 8, 36, 0
9, 12480, Note_off_c, 8, 48, 0
9, 12480, Note_on_c, 8, 35, 100
9, 12480, Note_on_c, 8, 47, 100
9, 12504, Note_off_c, 8, 35, 0
9, 12504, Note_off_c, 8, 47, 0
9, 12504, Note_on_c, 8, 33, 100
9, 12504, Note_on_c, 8, 45, 100
9, 12528, Note_off_c, 8, 33, 0
9, 12528, Note_off_c, 8, 45, 0
9, 12528, Note_on_c, 8, 35, 100
9, 12528, Note_on_c, 8, 47, 100
9, 12552, Note_off_c, 8, 35, 0
9, 12552, Note_off_c, 8, 47, 0
9, 12552, Note_on_c, 8, 36, 100
9, 12552, Note_on_c, 8, 48, 100
9, 12576, Note_off_c, 8, 36, 0
9, 12576, Note_off_c, 8, 48, 0
9, 12576, Note_on_c, 8, 38, 100
9, 12576, Note_on_c, 8, 50, 100
9, 12600, Note_off_c, 8, 38, 0
9, 12600, Note_off_c, 8, 50, 0
9, 12600, Note_on_c, 8, 40, 100
9, 12600, Note_on_c, 8, 52, 100
9, 12624, Note_off_c, 8, 40, 0
9, 12624, Note_off_c, 8, 52, 0
9, 12624, Note_on_c, 8, 41, 100
9, 12624, Note_on_c, 8, 53, 100
9, 12648, Note_off_c, 8, 41, 0
9, 12648, Note_off_c, 8, 53, 0
9, 12648, Note_on_c, 8, 43, 100
9, 12648, Note_on_c, 8, 55, 100
9, 12672, Note_off_c, 8, 43, 0
9, 12672, Note_off_c, 8, 55, 0
9, 12672, Note_on_c, 8, 41, 100
9, 12960, Note_off_c, 8, 41, 0
9, 12960, Note_on_c, 8, 36, 100
9, 13248, Note_off_c, 8, 36, 0
9, 13248, Note_on_c, 8, 31, 100
9, 13320, Note_off_c, 8, 31, 0
9, 13320, Note_on_c, 8, 31, 100
9, 13392, Note_off_c, 8, 31, 0
9, 13392, Note_on_c, 8, 43, 100
9, 13536, Note_off_c, 8, 43, 0
9, 13536, Note_on_c, 8, 31, 100
9, 13608, Note_off_c, 8, 31, 0
9, 13608, Note_on_c, 8, 31, 100
9, 13656, Note_off_c, 8, 31, 0
9, 13656, Note_on_c, 8, 31, 100
9, 13680, Note_off_c, 8, 31, 0
9, 13680, Note_on_c, 8, 43, 100
9, 13824, Note_off_c, 8, 43, 0
9, 13824, Note_on_c, 8, 31, 100
9, 13968, Note_off_c, 8, 31, 0
9, 13968, Note_on_c, 8, 43, 100
9, 14112, Note_off_c, 8, 43, 0
9, 14112, Note_on_c, 8, 31, 100
9, 14400, Note_off_c, 8, 31, 0
9, 14400, Note_on_c, 8, 31, 100
9, 14472, Note_off_c, 8, 31, 0
9, 14472, Note_on_c, 8, 31, 100
9, 14544, Note_off_c, 8, 31, 0
9, 14544, Note_on_c, 8, 43, 100
9, 14688, Note_off_c, 8, 43, 0
9, 14688, Note_on_c, 8, 31, 100
9, 14760, Note_off_c, 8, 31, 0
9, 14760, Note_on_c, 8, 31, 100
9, 14808, Note_off_c, 8, 31, 0
9, 14808, Note_on_c, 8, 31, 100
9, 14832, Note_off_c, 8, 31, 0
9, 14832, Note_on_c, 8, 43, 100
9, 14976, Note_off_c, 8, 43, 0
9, 14976, Note_on_c, 8, 31, 100
9, 15120, Note_off_c, 8, 31, 0
9, 15120, Note_on_c, 8, 43, 100
9, 15264, Note_off_c, 8, 43, 0
9, 15264, Note_on_c, 8, 31, 100
9, 15552, Note_off_c, 8, 31, 0
9, 15552, Note_on_c, 8, 31, 100
9, 15624, Note_off_c, 8, 31, 0
9, 15624, Note_on_c, 8, 31, 100
9, 15696, Note_off_c, 8, 31, 0
9, 15696, Note_on_c, 8, 43, 100
9, 15840, Note_off_c, 8, 43, 0
9, 15840, Note_on_c, 8, 31, 100
9, 15912, Note_off_c, 8, 31, 0
9, 15912, Note_on_c, 8, 31, 100
9, 15960, Note_off_c, 8, 31, 0
9, 15960, Note_on_c, 8, 31, 100
9, 15984, Note_off_c, 8, 31, 0
9, 15984, Note_on_c, 8, 43, 100
9, 16128, Note_off_c, 8, 43, 0
9, 16128, Note_on_c, 8, 31, 100
9, 16272, Note_off_c, 8, 31, 0
9, 16272, Note_on_c, 8, 43, 100
9, 16416, Note_off_c, 8, 43, 0
9, 16416, Note_on_c, 8, 31, 100
9, 16704, Note_off_c, 8, 31, 0
9, 16704, Note_on_c, 8, 31, 100
9, 16776, Note_off_c, 8, 31, 0
9, 16776, Note_on_c, 8, 31, 100
9, 16848, Note_off_c, 8, 31, 0
9, 16848, Note_on_c, 8, 43, 100
9, 16992, Note_off_c, 8, 43, 0
9, 16992, Note_on_c, 8, 31, 100
9, 17064, Note_off_c, 8, 31, 0
9, 17064, Note_on_c, 8, 31, 100
9, 17112, Note_off_c, 8, 31, 0
9, 17112, Note_on_c, 8, 31, 100
9, 17136, Note_off_c, 8, 31, 0
9, 17136, Note_on_c, 8, 43, 100
9, 17280, Note_off_c, 8, 43, 0
9, 17280, Note_on_c, 8, 31, 100
9, 17424, Note_off_c, 8, 31, 0
9, 17424, Note_on_c, 8, 43, 100
9, 17568, Note_off_c, 8, 43, 0
9, 17568, Note_on_c, 8, 31, 100
9, 17856, Note_off_c, 8, 31, 0
9, 17856, Note_on_c, 8, 31, 100
9, 17928, Note_off_c, 8, 31, 0
9, 17928, Note_on_c, 8, 31, 100
9, 18000, Note_off_c, 8, 31, 0
9, 18000, Note_on_c, 8, 43, 100
9, 18144, Note_off_c, 8, 43, 0
9, 18144, Note_on_c, 8, 31, 100
9, 18216, Note_off_c, 8, 31, 0
9, 18216, Note_on_c, 8, 31, 100
9, 18264, Note_off_c, 8, 31, 0
9, 18264, Note_on_c, 8, 31, 100
9, 18288, Note_off_c, 8, 31, 0
9, 18288, Note_on_c, 8, 43, 100
9, 18432, Note_off_c, 8, 43, 0
9, 18432, Note_on_c, 8, 31, 100
9, 18576, Note_off_c, 8, 31, 0
9, 18576, Note_on_c, 8, 43, 100
9, 18720, Note_off_c, 8, 43, 0
9, 18720, Note_on_c, 8, 31, 100
9, 19008, Note_off_c, 8, 31, 0
9, 19008, Note_on_c, 8, 31, 100
9, 19080, Note_off_c, 8, 31, 0
9, 19080, Note_on_c, 8, 31, 100
9, 19152, Note_off_c, 8, 31, 0
9, 19152, Note_on_c, 8, 43, 100
9, 19200, Note_off_c, 8, 43, 0
9, 19200, Note_on_c, 8, 41, 100
9, 19224, Note_off_c, 8, 41, 0
9, 19224, Note_on_c, 8, 38, 100
9, 19248, Note_off_c, 8, 38, 0
9, 19248, Note_on_c, 8, 41, 100
9, 19272, Note_off_c, 8, 41, 0
9, 19272, Note_on_c, 8, 38, 100
9, 19296, Note_off_c, 8, 38, 0
9, 19296, Note_on_c, 8, 31, 100
9, 19368, Note_off_c, 8, 31, 0
9, 19368, Note_on_c, 8, 31, 100
9, 19416, Note_off_c, 8, 31, 0
9, 19416, Note_on_c, 8, 31, 100
9, 19440, Note_off_c, 8, 31, 0
9, 19440, Note_on_c, 8, 43, 100
9, 19488, Note_off_c, 8, 43, 0
9, 19488, Note_on_c, 8, 41, 100
9, 19512, Note_off_c, 8, 41, 0
9, 19512, Note_on_c, 8, 38, 100
9, 19536, Note_off_c, 8, 38, 0
9, 19536, Note_on_c, 8, 41, 100
9, 19560, Note_off_c, 8, 41, 0
9, 19560, Note_on_c, 8, 43, 100
9, 19584, Note_off_c, 8, 43, 0
9, 19584, Note_on_c, 8, 31, 100
9, 19680, Note_off_c, 8, 31, 0
9, 19680, Note_on_c, 8, 31, 100
9, 19704, Note_off_c, 8, 31, 0
9, 19704, Note_on_c, 8, 31, 100
9, 19728, Note_off_c, 8, 31, 0
9, 19728, Note_on_c, 8, 43, 100
9, 19800, Note_off_c, 8, 43, 0
9, 19800, Note_on_c, 8, 41, 100
9, 19872, Note_off_c, 8, 41, 0
9, 19872, Note_on_c, 8, 43, 100
9, 19920, Note_off_c, 8, 43, 0
9, 19920, Note_on_c, 8, 45, 100
9, 19968, Note_off_c, 8, 45, 0
9, 19968, Note_on_c, 8, 47, 100
9, 20016, Note_off_c, 8, 47, 0
9, 20016, Note_on_c, 8, 48, 100
9, 20064, Note_off_c, 8, 48, 0
9, 20064, Note_on_c, 8, 47, 100
9, 20088, Note_off_c, 8, 47, 0
9, 20088, Note_on_c, 8, 45, 100
9, 20112, Note_off_c, 8, 45, 0
9, 20112, Note_on_c, 8, 43, 100
9, 20136, Note_off_c, 8, 43, 0
9, 20136, Note_on_c, 8, 38, 100
9, 20160, Note_off_c, 8, 38, 0
9, 20160, Note_on_c, 8, 31, 100
9, 20232, Note_off_c, 8, 31, 0
9, 20232, Note_on_c, 8, 31, 100
9, 20304, Note_off_c, 8, 31, 0
9, 20304, Note_on_c, 8, 43, 100
9, 20352, Note_off_c, 8, 43, 0
9, 20352, Note_on_c, 8, 41, 100
9, 20376, Note_off_c, 8, 41, 0
9, 20376, Note_on_c, 8, 38, 100
9, 20400, Note_off_c, 8, 38, 0
9, 20400, Note_on_c, 8, 41, 100
9, 20424, Note_off_c, 8, 41, 0
9, 20424, Note_on_c, 8, 38, 100
9, 20448, Note_off_c, 8, 38, 0
9, 20448, Note_on_c, 8, 31, 100
9, 20520, Note_off_c, 8, 31, 0
9, 20520, Note_on_c, 8, 31, 100
9, 20568, Note_off_c, 8, 31, 0
9, 20568, Note_on_c, 8, 31, 100
9, 20592, Note_off_c, 8, 31, 0
9, 20592, Note_on_c, 8, 43, 100
9, 20736, Note_off_c, 8, 43, 0
9, 20736, Note_on_c, 8, 31, 100
9, 21312, Note_off_c, 8, 31, 0
9, 21312, Note_on_c, 8, 31, 100
9, 21336, Note_off_c, 8, 31, 0
9, 21336, Note_on_c, 8, 31, 100
9, 21360, Note_off_c, 8, 31, 0
9, 21384, Note_on_c, 8, 31, 100
9, 21408, Note_off_c, 8, 31, 0
9, 21432, Note_on_c, 8, 31, 100
9, 21444, Note_off_c, 8, 31, 0
9, 21456, Note_on_c, 8, 31, 100
9, 21480, Note_off_c, 8, 31, 0
9, 21480, Note_on_c, 8, 31, 100
9, 21504, Note_off_c, 8, 31, 0
9, 21528, Note_on_c, 8, 31, 100
9, 21552, Note_off_c, 8, 31, 0
9, 21576, Note_on_c, 8, 31, 100
9, 21588, Note_off_c, 8, 31, 0
9, 21600, Note_on_c, 8, 31, 100
9, 21888, Note_off_c, 8, 31, 0
9, 21888, Note_on_c, 8, 31, 100
9, 22176, Note_off_c, 8, 31, 0
9, 22176, Note_on_c, 8, 31, 100
9, 22464, Note_off_c, 8, 31, 0
9, 22752, Note_on_c, 8, 31, 100
9, 23040, Note_off_c, 8, 31, 0
9, 23040, Note_on_c, 8, 31, 100
9, 23328, Note_off_c, 8, 31, 0
9, 23328, Note_on_c, 8, 31, 100
9, 23616, Note_off_c, 8, 31, 0
9, 23904, Note_on_c, 8, 29, 100
9, 24192, Note_off_c, 8, 29, 0
9, 24192, Note_on_c, 8, 36, 100
9, 24480, Note_off_c, 8, 36, 0
9, 24480, Note_on_c, 8, 31, 100
9, 24768, Note_off_c, 8, 31, 0
9, 24768, Note_on_c, 8, 31, 100
9, 24768, Note_on_c, 8, 43, 100
9, 24792, Note_off_c, 8, 43, 0
9, 24792, Note_on_c, 8, 33, 100
9, 24792, Note_on_c, 8, 45, 100
9, 24816, Note_off_c, 8, 31, 0
9, 24816, Note_off_c, 8, 33, 0
9, 24816, Note_off_c, 8, 45, 0
9, 24816, Note_on_c, 8, 33, 100
9, 24816, Note_on_c, 8, 35, 100
9, 24816, Note_on_c, 8, 47, 100
9, 24840, Note_off_c, 8, 35, 0
9, 24840, Note_off_c, 8, 47, 0
9, 24840, Note_on_c, 8, 36, 100
9, 24840, Note_on_c, 8, 48, 100
9, 24864, Note_off_c, 8, 33, 0
9, 24864, Note_off_c, 8, 36, 0
9, 24864, Note_off_c, 8, 48, 0
9, 24864, Note_on_c, 8, 35, 100
9, 24864, Note_on_c, 8, 47, 100
9, 24888, Note_off_c, 8, 47, 0
9, 24888, Note_on_c, 8, 33, 100
9, 24888, Note_on_c, 8, 45, 100
9, 24912, Note_off_c, 8, 35, 0
9, 24912, Note_off_c, 8, 33, 0
9, 24912, Note_off_c, 8, 45, 0
9, 24912, Note_on_c, 8, 35, 100
9, 24912, Note_on_c, 8, 36, 100
9, 24912, Note_on_c, 8, 47, 100
9, 24936, Note_off_c, 8, 35, 0
9, 24936, Note_off_c, 8, 47, 0
9, 24936, Note_on_c, 8, 48, 100
9, 24960, Note_off_c, 8, 36, 0
9, 24960, Note_off_c, 8, 48, 0
9, 24960, Note_on_c, 8, 35, 100
9, 24960, Note_on_c, 8, 38, 100
9, 24960, Note_on_c, 8, 50, 100
9, 24984, Note_off_c, 8, 35, 0
9, 24984, Note_off_c, 8, 38, 0
9, 24984, Note_off_c, 8, 50, 0
9, 24984, Note_on_c, 8, 33, 100
9, 24984, Note_on_c, 8, 40, 100
9, 24984, Note_on_c, 8, 52, 100
9, 25008, Note_off_c, 8, 33, 0
9, 25008, Note_off_c, 8, 40, 0
9, 25008, Note_off_c, 8, 52, 0
9, 25008, Note_on_c, 8, 31, 100
9, 25008, Note_on_c, 8, 41, 100
9, 25008, Note_on_c, 8, 53, 100
9, 25032, Note_off_c, 8, 41, 0
9, 25032, Note_off_c, 8, 53, 0
9, 25032, Note_on_c, 8, 43, 100
9, 25032, Note_on_c, 8, 55, 100
9, 25056, Note_off_c, 8, 31, 0
9, 25056, Note_off_c, 8, 43, 0
9, 25056, Note_off_c, 8, 55, 0
9, 25056, Note_on_c, 8, 29, 100
9, 25344, Note_off_c, 8, 29, 0
9, 25344, Note_on_c, 8, 36, 100
9, 25632, Note_off_c, 8, 36, 0
9, 25632, Note_on_c, 8, 31, 100
9, 25920, Note_off_c, 8, 31, 0
9, 25920, Note_on_c, 8, 31, 100
9, 25920, Note_on_c, 8, 43, 100
9, 25944, Note_off_c, 8, 43, 0
9, 25944, Note_on_c, 8, 33, 100
9, 25944, Note_on_c, 8, 45, 100
9, 25968, Note_off_c, 8, 31, 0
9, 25968, Note_off_c, 8, 33, 0
9, 25968, Note_off_c, 8, 45, 0
9, 25968, Note_on_c, 8, 33, 100
9, 25968, Note_on_c, 8, 35, 100
9, 25968, Note_on_c, 8, 47, 100
9, 25992, Note_off_c, 8, 35, 0
9, 25992, Note_off_c, 8, 47, 0
9, 25992, Note_on_c, 8, 36, 100
9, 25992, Note_on_c, 8, 48, 100
9, 26016, Note_off_c, 8, 33, 0
9, 26016, Note_off_c, 8, 36, 0
9, 26016, Note_off_c, 8, 48, 0
9, 26016, Note_on_c, 8, 35, 100
9, 26016, Note_on_c, 8, 47, 100
9, 26040, Note_off_c, 8, 47, 0
9, 26040, Note_on_c, 8, 33, 100
9, 26040, Note_on_c, 8, 45, 100
9, 26064, Note_off_c, 8, 35, 0
9, 26064, Note_off_c, 8, 33, 0
9, 26064, Note_off_c, 8, 45, 0
9, 26064, Note_on_c, 8, 35, 100
9, 26064, Note_on_c, 8, 36, 100
9, 26064, Note_on_c, 8, 47, 100
9, 26088, Note_off_c, 8, 35, 0
9, 26088, Note_off_c, 8, 47, 0
9, 26088, Note_on_c, 8, 48, 100
9, 26112, Note_off_c, 8, 36, 0
9, 26112, Note_off_c, 8, 48, 0
9, 26112, Note_on_c, 8, 35, 100
9, 26112, Note_on_c, 8, 38, 100
9, 26112, Note_on_c, 8, 50, 100
9, 26136, Note_off_c, 8, 35, 0
9, 26136, Note_off_c, 8, 38, 0
9, 26136, Note_off_c, 8, 50, 0
9, 26136, Note_on_c, 8, 33, 100
9, 26136, Note_on_c, 8, 40, 100
9, 26136, Note_on_c, 8, 52, 100
9, 26160, Note_off_c, 8, 33, 0
9, 26160, Note_off_c, 8, 40, 0
9, 26160, Note_off_c, 8, 52, 0
9, 26160, Note_on_c, 8, 31, 100
9, 26160, Note_on_c, 8, 41, 100
9, 26160, Note_on_c, 8, 53, 100
9, 26184, Note_off_c, 8, 41, 0
9, 26184, Note_off_c, 8, 53, 0
9, 26184, Note_on_c, 8, 43, 100
9, 26184, Note_on_c, 8, 55, 100
9, 26208, Note_off_c, 8, 31, 0
9, 26208, Note_off_c, 8, 43, 0
9, 26208, Note_off_c, 8, 55, 0
9, 26208, Note_on_c, 8, 29, 100
9, 26496, Note_off_c, 8, 29, 0
9, 26496, Note_on_c, 8, 36, 100
9, 26784, Note_off_c, 8, 36, 0
9, 26784, Note_on_c, 8, 41, 100
9, 26808, Note_off_c, 8, 41, 0
9, 26808, Note_on_c, 8, 40, 100
9, 26856, Note_off_c, 8, 40, 0
9, 26856, Note_on_c, 8, 38, 100
9, 26928, Note_off_c, 8, 38, 0
9, 26928, Note_on_c, 8, 31, 100
9, 27072, Note_off_c, 8, 31, 0
9, 27072, Note_on_c, 8, 41, 100
9, 27072, Note_on_c, 8, 43, 100
9, 27096, Note_off_c, 8, 41, 0
9, 27096, Note_off_c, 8, 43, 0
9, 27096, Note_on_c, 8, 33, 100
9, 27096, Note_on_c, 8, 40, 100
9, 27096, Note_on_c, 8, 45, 100
9, 27120, Note_off_c, 8, 33, 0
9, 27120, Note_off_c, 8, 45, 0
9, 27120, Note_on_c, 8, 35, 100
9, 27120, Note_on_c, 8, 47, 100
9, 27144, Note_off_c, 8, 40, 0
9, 27144, Note_off_c, 8, 35, 0
9, 27144, Note_off_c, 8, 47, 0
9, 27144, Note_on_c, 8, 36, 100
9, 27144, Note_on_c, 8, 38, 100
9, 27144, Note_on_c, 8, 48, 100
9, 27168, Note_off_c, 8, 36, 0
9, 27168, Note_off_c, 8, 48, 0
9, 27168, Note_on_c, 8, 47, 100
9, 27192, Note_off_c, 8, 47, 0
9, 27192, Note_on_c, 8, 33, 100
9, 27192, Note_on_c, 8, 45, 100
9, 27216, Note_off_c, 8, 38, 0
9, 27216, Note_off_c, 8, 33, 0
9, 27216, Note_off_c, 8, 45, 0
9, 27216, Note_on_c, 8, 31, 100
9, 27216, Note_on_c, 8, 35, 100
9, 27216, Note_on_c, 8, 47, 100
9, 27240, Note_off_c, 8, 35, 0
9, 27240, Note_off_c, 8, 47, 0
9, 27240, Note_on_c, 8, 48, 100
9, 27264, Note_off_c, 8, 48, 0
9, 27264, Note_on_c, 8, 35, 100
9, 27264, Note_on_c, 8, 38, 100
9, 27264, Note_on_c, 8, 50, 100
9, 27288, Note_off_c, 8, 35, 0
9, 27288, Note_off_c, 8, 38, 0
9, 27288, Note_off_c, 8, 50, 0
9, 27288, Note_on_c, 8, 33, 100
9, 27288, Note_on_c, 8, 40, 100
9, 27288, Note_on_c, 8, 52, 100
9, 27312, Note_off_c, 8, 33, 0
9, 27312, Note_off_c, 8, 40, 0
9, 27312, Note_off_c, 8, 52, 0
9, 27312, Note_on_c, 8, 31, 100
9, 27312, Note_on_c, 8, 41, 100
9, 27312, Note_on_c, 8, 53, 100
9, 27336, Note_off_c, 8, 41, 0
9, 27336, Note_off_c, 8, 53, 0
9, 27336, Note_on_c, 8, 43, 100
9, 27336, Note_on_c, 8, 55, 100
9, 27360, Note_off_c, 8, 31, 0
9, 27360, Note_off_c, 8, 31, 0
9, 27360, Note_off_c, 8, 43, 0
9, 27360, Note_off_c, 8, 55, 0
9, 27360, Note_on_c, 8, 41, 100
9, 27648, Note_off_c, 8, 41, 0
9, 27648, Note_on_c, 8, 36, 100
9, 27936, Note_off_c, 8, 36, 0
9, 27936, Note_on_c, 8, 31, 100
9, 28008, Note_off_c, 8, 31, 0
9, 28008, Note_on_c, 8, 31, 100
9, 28080, Note_off_c, 8, 31, 0
9, 28080, Note_on_c, 8, 43, 100
9, 28224, Note_off_c, 8, 43, 0
9, 28224, Note_on_c, 8, 31, 100
9, 28296, Note_off_c, 8, 31, 0
9, 28296, Note_on_c, 8, 31, 100
9, 28344, Note_off_c, 8, 31, 0
9, 28344, Note_on_c, 8, 31, 100
9, 28368, Note_off_c, 8, 31, 0
9, 28368, Note_on_c, 8, 43, 100
9, 28512, Note_off_c, 8, 43, 0
9, 28512, Note_on_c, 8, 31, 100
9, 28656, Note_off_c, 8, 31, 0
9, 28656, Note_on_c, 8, 43, 100
9, 28800, Note_off_c, 8, 43, 0
9, 28800, Note_on_c, 8, 31, 100
9, 29088, Note_off_c, 8, 31, 0
9, 29088, Note_on_c, 8, 31, 100
9, 29376, Note_off_c, 8, 31, 0
9, 29376, Note_on_c, 8, 31, 100
9, 29664, Note_off_c, 8, 31, 0
9, 29664, Note_on_c, 8, 31, 100
9, 29952, Note_off_c, 8, 31, 0
9, 29952, Note_on_c, 8, 43, 100
9, 30240, Note_off_c, 8, 43, 0
9, 30240, Note_on_c, 8, 38, 100
9, 30528, Note_off_c, 8, 38, 0
9, 30528, Note_on_c, 8, 32, 100
9, 30828, Note_off_c, 8, 32, 0
9, 30828, Note_on_c, 8, 38, 100
9, 31116, Note_off_c, 8, 38, 0
9, 31116, End_track
10, 0, Start_track
10, 0, Title_t, "Track 10\000"
10, 0, Control_c, 9, 0, 255
10, 0, Program_c, 9, 0
10, 0, Control_c, 9, 7, 116
10, 0, Control_c, 9, 91, 127
10, 0, Control_c, 9, 93, 127
10, 1152, Note_on_c, 9, 42, 127
10, 1152, Note_on_c, 9, 49, 127
10, 1176, Note_on_c, 9, 35, 127
10, 1200, Note_off_c, 9, 42, 0
10, 1200, Note_off_c, 9, 49, 0
10, 1200, Note_on_c, 9, 42, 127
10, 1224, Note_off_c, 9, 35, 0
10, 1224, Note_on_c, 9, 35, 127
10, 1224, Note_on_c, 9, 38, 117
10, 1248, Note_off_c, 9, 42, 0
10, 1248, Note_on_c, 9, 42, 127
10, 1272, Note_off_c, 9, 35, 0
10, 1272, Note_off_c, 9, 38, 0
10, 1272, Note_on_c, 9, 35, 127
10, 1296, Note_off_c, 9, 42, 0
10, 1296, Note_on_c, 9, 38, 127
10, 1296, Note_on_c, 9, 42, 127
10, 1320, Note_off_c, 9, 35, 0
10, 1344, Note_off_c, 9, 38, 0
10, 1344, Note_off_c, 9, 42, 0
10, 1344, Note_on_c, 9, 42, 127
10, 1368, Note_on_c, 9, 35, 127
10, 1392, Note_off_c, 9, 42, 0
10, 1392, Note_on_c, 9, 42, 127
10, 1416, Note_off_c, 9, 35, 0
10, 1416, Note_on_c, 9, 35, 127
10, 1440, Note_off_c, 9, 42, 0
10, 1440, Note_on_c, 9, 42, 127
10, 1464, Note_off_c, 9, 35, 0
10, 1464, Note_on_c, 9, 35, 127
10, 1488, Note_off_c, 9, 42, 0
10, 1488, Note_on_c, 9, 42, 127
10, 1512, Note_off_c, 9, 35, 0
10, 1512, Note_on_c, 9, 35, 127
10, 1512, Note_on_c, 9, 38, 117
10, 1536, Note_off_c, 9, 42, 0
10, 1536, Note_on_c, 9, 42, 127
10, 1560, Note_off_c, 9, 35, 0
10, 1560, Note_off_c, 9, 38, 0
10, 1560, Note_on_c, 9, 35, 127
10, 1584, Note_off_c, 9, 42, 0
10, 1584, Note_on_c, 9, 38, 127
10, 1584, Note_on_c, 9, 42, 127
10, 1608, Note_off_c, 9, 35, 0
10, 1632, Note_off_c, 9, 38, 0
10, 1632, Note_off_c, 9, 42, 0
10, 1632, Note_on_c, 9, 42, 127
10, 1656, Note_on_c, 9, 35, 127
10, 1680, Note_off_c, 9, 42, 0
10, 1680, Note_on_c, 9, 42, 127
10, 1704, Note_off_c, 9, 35, 0
10, 1704, Note_on_c, 9, 35, 127
10, 1728, Note_off_c, 9, 42, 0
10, 1728, Note_on_c, 9, 42, 127
10, 1752, Note_off_c, 9, 35, 0
10, 1752, Note_on_c, 9, 35, 127
10, 1776, Note_off_c, 9, 42, 0
10, 1776, Note_on_c, 9, 42, 127
10, 1800, Note_off_c, 9, 35, 0
10, 1800, Note_on_c, 9, 35, 127
10, 1800, Note_on_c, 9, 38, 117
10, 1824, Note_off_c, 9, 42, 0
10, 1824, Note_on_c, 9, 42, 127
10, 1848, Note_off_c, 9, 35, 0
10, 1848, Note_off_c, 9, 38, 0
10, 1848, Note_on_c, 9, 35, 127
10, 1872, Note_off_c, 9, 42, 0
10, 1872, Note_on_c, 9, 38, 127
10, 1872, Note_on_c, 9, 42, 127
10, 1896, Note_off_c, 9, 35, 0
10, 1920, Note_off_c, 9, 38, 0
10, 1920, Note_off_c, 9, 42, 0
10, 1920, Note_on_c, 9, 42, 127
10, 1944, Note_on_c, 9, 35, 127
10, 1968, Note_off_c, 9, 42, 0
10, 1968, Note_on_c, 9, 42, 127
10, 1992, Note_off_c, 9, 35, 0
10, 1992, Note_on_c, 9, 35, 127
10, 2016, Note_off_c, 9, 42, 0
10, 2016, Note_on_c, 9, 42, 127
10, 2040, Note_off_c, 9, 35, 0
10, 2040, Note_on_c, 9, 35, 127
10, 2064, Note_off_c, 9, 42, 0
10, 2064, Note_on_c, 9, 42, 127
10, 2088, Note_off_c, 9, 35, 0
10, 2088, Note_on_c, 9, 35, 127
10, 2088, Note_on_c, 9, 38, 117
10, 2112, Note_off_c, 9, 42, 0
10, 2112, Note_on_c, 9, 42, 127
10, 2136, Note_off_c, 9, 35, 0
10, 2136, Note_off_c, 9, 38, 0
10, 2136, Note_on_c, 9, 35, 127
10, 2160, Note_off_c, 9, 42, 0
10, 2160, Note_on_c, 9, 38, 127
10, 2160, Note_on_c, 9, 42, 127
10, 2160, Note_on_c, 9, 49, 127
10, 2184, Note_off_c, 9, 35, 0
10, 2208, Note_off_c, 9, 38, 0
10, 2208, Note_off_c, 9, 42, 0
10, 2208, Note_off_c, 9, 49, 0
10, 2208, Note_on_c, 9, 38, 127
10, 2208, Note_on_c, 9, 42, 127
10, 2232, Note_on_c, 9, 35, 127
10, 2232, Note_on_c, 9, 45, 127
10, 2256, Note_off_c, 9, 38, 0
10, 2256, Note_off_c, 9, 42, 0
10, 2256, Note_on_c, 9, 42, 127
10, 2256, Note_on_c, 9, 43, 127
10, 2280, Note_off_c, 9, 35, 0
10, 2280, Note_off_c, 9, 45, 0
10, 2280, Note_on_c, 9, 35, 127
10, 2280, Note_on_c, 9, 41, 127
10, 2304, Note_off_c, 9, 42, 0
10, 2304, Note_off_c, 9, 43, 0
10, 2304, Note_on_c, 9, 42, 127
10, 2304, Note_on_c, 9, 49, 127
10, 2328, Note_off_c, 9, 35, 0
10, 2328, Note_off_c, 9, 41, 0
10, 2328, Note_on_c, 9, 35, 127
10, 2352, Note_off_c, 9, 42, 0
10, 2352, Note_off_c, 9, 49, 0
10, 2352, Note_on_c, 9, 42, 127
10, 2376, Note_off_c, 9, 35, 0
10, 2376, Note_on_c, 9, 35, 127
10, 2376, Note_on_c, 9, 38, 117
10, 2400, Note_off_c, 9, 42, 0
10, 2400, Note_on_c, 9, 42, 127
10, 2424, Note_off_c, 9, 35, 0
10, 2424, Note_off_c, 9, 38, 0
10, 2424, Note_on_c, 9, 35, 127
10, 2448, Note_off_c, 9, 42, 0
10, 2448, Note_on_c, 9, 38, 127
10, 2448, Note_on_c, 9, 42, 127
10, 2472, Note_off_c, 9, 35, 0
10, 2496, Note_off_c, 9, 38, 0
10, 2496, Note_off_c, 9, 42, 0
10, 2496, Note_on_c, 9, 42, 127
10, 2520, Note_on_c, 9, 35, 127
10, 2544, Note_off_c, 9, 42, 0
10, 2544, Note_on_c, 9, 42, 127
10, 2568, Note_off_c, 9, 35, 0
10, 2568, Note_on_c, 9, 35, 127
10, 2592, Note_off_c, 9, 42, 0
10, 2592, Note_on_c, 9, 42, 127
10, 2616, Note_off_c, 9, 35, 0
10, 2616, Note_on_c, 9, 35, 127
10, 2640, Note_off_c, 9, 42, 0
10, 2640, Note_on_c, 9, 42, 127
10, 2664, Note_off_c, 9, 35, 0
10, 2664, Note_on_c, 9, 35, 127
10, 2664, Note_on_c, 9, 38, 117
10, 2688, Note_off_c, 9, 42, 0
10, 2688, Note_on_c, 9, 42, 127
10, 2712, Note_off_c, 9, 35, 0
10, 2712, Note_off_c, 9, 38, 0
10, 2712, Note_on_c, 9, 35, 127
10, 2736, Note_off_c, 9, 42, 0
10, 2736, Note_on_c, 9, 38, 127
10, 2736, Note_on_c, 9, 42, 127
10, 2760, Note_off_c, 9, 35, 0
10, 2784, Note_off_c, 9, 38, 0
10, 2784, Note_off_c, 9, 42, 0
10, 2784, Note_on_c, 9, 42, 127
10, 2808, Note_on_c, 9, 35, 127
10, 2832, Note_off_c, 9, 42, 0
10, 2832, Note_on_c, 9, 42, 127
10, 2856, Note_off_c, 9, 35, 0
10, 2856, Note_on_c, 9, 35, 127
10, 2880, Note_off_c, 9, 42, 0
10, 2880, Note_on_c, 9, 42, 127
10, 2904, Note_off_c, 9, 35, 0
10, 2904, Note_on_c, 9, 35, 127
10, 2928, Note_off_c, 9, 42, 0
10, 2928, Note_on_c, 9, 42, 127
10, 2952, Note_off_c, 9, 35, 0
10, 2952, Note_on_c, 9, 35, 127
10, 2952, Note_on_c, 9, 38, 117
10, 2976, Note_off_c, 9, 42, 0
10, 2976, Note_on_c, 9, 42, 127
10, 3000, Note_off_c, 9, 35, 0
10, 3000, Note_off_c, 9, 38, 0
10, 3000, Note_on_c, 9, 35, 127
10, 3024, Note_off_c, 9, 42, 0
10, 3024, Note_on_c, 9, 38, 127
10, 3024, Note_on_c, 9, 42, 127
10, 3048, Note_off_c, 9, 35, 0
10, 3072, Note_off_c, 9, 38, 0
10, 3072, Note_off_c, 9, 42, 0
10, 3072, Note_on_c, 9, 42, 127
10, 3096, Note_on_c, 9, 35, 127
10, 3120, Note_off_c, 9, 42, 0
10, 3120, Note_on_c, 9, 42, 127
10, 3144, Note_off_c, 9, 35, 0
10, 3144, Note_on_c, 9, 35, 127
10, 3168, Note_off_c, 9, 42, 0
10, 3168, Note_on_c, 9, 42, 127
10, 3192, Note_off_c, 9, 35, 0
10, 3192, Note_on_c, 9, 35, 127
10, 3216, Note_off_c, 9, 42, 0
10, 3216, Note_on_c, 9, 42, 127
10, 3240, Note_off_c, 9, 35, 0
10, 3240, Note_on_c, 9, 35, 127
10, 3240, Note_on_c, 9, 38, 117
10, 3264, Note_off_c, 9, 42, 0
10, 3264, Note_on_c, 9, 42, 127
10, 3288, Note_off_c, 9, 35, 0
10, 3288, Note_off_c, 9, 38, 0
10, 3288, Note_on_c, 9, 35, 127
10, 3312, Note_off_c, 9, 42, 0
10, 3312, Note_on_c, 9, 38, 127
10, 3312, Note_on_c, 9, 42, 127
10, 3312, Note_on_c, 9, 49, 127
10, 3336, Note_off_c, 9, 35, 0
10, 3360, Note_off_c, 9, 38, 0
10, 3360, Note_off_c, 9, 42, 0
10, 3360, Note_off_c, 9, 49, 0
10, 3360, Note_on_c, 9, 38, 127
10, 3360, Note_on_c, 9, 42, 127
10, 3384, Note_on_c, 9, 35, 127
10, 3384, Note_on_c, 9, 45, 127
10, 3408, Note_off_c, 9, 38, 0
10, 3408, Note_off_c, 9, 42, 0
10, 3408, Note_on_c, 9, 42, 127
10, 3408, Note_on_c, 9, 43, 127
10, 3432, Note_off_c, 9, 35, 0
10, 3432, Note_off_c, 9, 45, 0
10, 3432, Note_on_c, 9, 35, 127
10, 3432, Note_on_c, 9, 41, 127
10, 3456, Note_off_c, 9, 42, 0
10, 3456, Note_off_c, 9, 43, 0
10, 3456, Note_on_c, 9, 42, 127
10, 3456, Note_on_c, 9, 49, 127
10, 3480, Note_off_c, 9, 35, 0
10, 3480, Note_off_c, 9, 41, 0
10, 3480, Note_on_c, 9, 35, 127
10, 3504, Note_off_c, 9, 42, 0
10, 3504, Note_off_c, 9, 49, 0
10, 3504, Note_on_c, 9, 42, 127
10, 3528, Note_off_c, 9, 35, 0
10, 3528, Note_on_c, 9, 35, 127
10, 3528, Note_on_c, 9, 38, 117
10, 3552, Note_off_c, 9, 42, 0
10, 3552, Note_on_c, 9, 42, 127
10, 3576, Note_off_c, 9, 35, 0
10, 3576, Note_off_c, 9, 38, 0
10, 3576, Note_on_c, 9, 35, 127
10, 3600, Note_off_c, 9, 42, 0
10, 3600, Note_on_c, 9, 38, 127
10, 3600, Note_on_c, 9, 42, 127
10, 3624, Note_off_c, 9, 35, 0
10, 3648, Note_off_c, 9, 38, 0
10, 3648, Note_off_c, 9, 42, 0
10, 3648, Note_on_c, 9, 42, 127
10, 3672, Note_on_c, 9, 35, 127
10, 3696, Note_off_c, 9, 42, 0
10, 3696, Note_on_c, 9, 42, 127
10, 3720, Note_off_c, 9, 35, 0
10, 3720, Note_on_c, 9, 35, 127
10, 3744, Note_off_c, 9, 42, 0
10, 3744, Note_on_c, 9, 42, 127
10, 3768, Note_off_c, 9, 35, 0
10, 3768, Note_on_c, 9, 35, 127
10, 3792, Note_off_c, 9, 42, 0
10, 3792, Note_on_c, 9, 42, 127
10, 3816, Note_off_c, 9, 35, 0
10, 3816, Note_on_c, 9, 35, 127
10, 3816, Note_on_c, 9, 38, 117
10, 3840, Note_off_c, 9, 42, 0
10, 3840, Note_on_c, 9, 42, 127
10, 3864, Note_off_c, 9, 35, 0
10, 3864, Note_off_c, 9, 38, 0
10, 3864, Note_on_c, 9, 35, 127
10, 3888, Note_off_c, 9, 42, 0
10, 3888, Note_on_c, 9, 38, 127
10, 3888, Note_on_c, 9, 42, 127
10, 3912, Note_off_c, 9, 35, 0
10, 3936, Note_off_c, 9, 38, 0
10, 3936, Note_off_c, 9, 42, 0
10, 3936, Note_on_c, 9, 42, 127
10, 3960, Note_on_c, 9, 35, 127
10, 3984, Note_off_c, 9, 42, 0
10, 3984, Note_on_c, 9, 42, 127
10, 4008, Note_off_c, 9, 35, 0
10, 4008, Note_on_c, 9, 35, 127
10, 4032, Note_off_c, 9, 42, 0
10, 4032, Note_on_c, 9, 42, 127
10, 4056, Note_off_c, 9, 35, 0
10, 4056, Note_on_c, 9, 35, 127
10, 4080, Note_off_c, 9, 42, 0
10, 4080, Note_on_c, 9, 42, 127
10, 4104, Note_off_c, 9, 35, 0
10, 4104, Note_on_c, 9, 35, 127
10, 4104, Note_on_c, 9, 38, 117
10, 4128, Note_off_c, 9, 42, 0
10, 4128, Note_on_c, 9, 42, 127
10, 4152, Note_off_c, 9, 35, 0
10, 4152, Note_off_c, 9, 38, 0
10, 4152, Note_on_c, 9, 35, 127
10, 4176, Note_off_c, 9, 42, 0
10, 4176, Note_on_c, 9, 38, 127
10, 4176, Note_on_c, 9, 42, 127
10, 4200, Note_off_c, 9, 35, 0
10, 4224, Note_off_c, 9, 38, 0
10, 4224, Note_off_c, 9, 42, 0
10, 4224, Note_on_c, 9, 42, 127
10, 4248, Note_on_c, 9, 35, 127
10, 4272, Note_off_c, 9, 42, 0
10, 4272, Note_on_c, 9, 42, 127
10, 4296, Note_off_c, 9, 35, 0
10, 4296, Note_on_c, 9, 35, 127
10, 4320, Note_off_c, 9, 42, 0
10, 4320, Note_on_c, 9, 42, 127
10, 4344, Note_off_c, 9, 35, 0
10, 4344, Note_on_c, 9, 35, 127
10, 4368, Note_off_c, 9, 42, 0
10, 4368, Note_on_c, 9, 42, 127
10, 4392, Note_off_c, 9, 35, 0
10, 4392, Note_on_c, 9, 35, 127
10, 4392, Note_on_c, 9, 38, 117
10, 4416, Note_off_c, 9, 42, 0
10, 4416, Note_on_c, 9, 42, 127
10, 4440, Note_off_c, 9, 35, 0
10, 4440, Note_off_c, 9, 38, 0
10, 4440, Note_on_c, 9, 35, 127
10, 4464, Note_off_c, 9, 42, 0
10, 4464, Note_on_c, 9, 38, 127
10, 4464, Note_on_c, 9, 42, 127
10, 4464, Note_on_c, 9, 49, 127
10, 4488, Note_off_c, 9, 35, 0
10, 4512, Note_off_c, 9, 38, 0
10, 4512, Note_off_c, 9, 42, 0
10, 4512, Note_off_c, 9, 49, 0
10, 4512, Note_on_c, 9, 38, 127
10, 4512, Note_on_c, 9, 42, 127
10, 4536, Note_on_c, 9, 35, 127
10, 4536, Note_on_c, 9, 45, 127
10, 4560, Note_off_c, 9, 38, 0
10, 4560, Note_off_c, 9, 42, 0
10, 4560, Note_on_c, 9, 42, 127
10, 4560, Note_on_c, 9, 43, 127
10, 4584, Note_off_c, 9, 35, 0
10, 4584, Note_off_c, 9, 45, 0
10, 4584, Note_on_c, 9, 35, 127
10, 4584, Note_on_c, 9, 41, 127
10, 4608, Note_off_c, 9, 42, 0
10, 4608, Note_off_c, 9, 43, 0
10, 4608, Note_on_c, 9, 42, 127
10, 4608, Note_on_c, 9, 49, 127
10, 4632, Note_off_c, 9, 35, 0
10, 4632, Note_off_c, 9, 41, 0
10, 4632, Note_on_c, 9, 35, 127
10, 4656, Note_off_c, 9, 42, 0
10, 4656, Note_off_c, 9, 49, 0
10, 4656, Note_on_c, 9, 42, 127
10, 4680, Note_off_c, 9, 35, 0
10, 4680, Note_on_c, 9, 35, 127
10, 4680, Note_on_c, 9, 38, 117
10, 4704, Note_off_c, 9, 42, 0
10, 4704, Note_on_c, 9, 42, 127
10, 4728, Note_off_c, 9, 35, 0
10, 4728, Note_off_c, 9, 38, 0
10, 4728, Note_on_c, 9, 35, 127
10, 4752, Note_off_c, 9, 42, 0
10, 4752, Note_on_c, 9, 38, 127
10, 4752, Note_on_c, 9, 42, 127
10, 4776, Note_off_c, 9, 35, 0
10, 4800, Note_off_c, 9, 38, 0
10, 4800, Note_off_c, 9, 42, 0
10, 4800, Note_on_c, 9, 42, 127
10, 4824, Note_on_c, 9, 35, 127
10, 4848, Note_off_c, 9, 42, 0
10, 4848, Note_on_c, 9, 42, 127
10, 4872, Note_off_c, 9, 35, 0
10, 4872, Note_on_c, 9, 35, 127
10, 4896, Note_off_c, 9, 42, 0
10, 4896, Note_on_c, 9, 42, 127
10, 4920, Note_off_c, 9, 35, 0
10, 4920, Note_on_c, 9, 35, 127
10, 4944, Note_off_c, 9, 42, 0
10, 4944, Note_on_c, 9, 42, 127
10, 4968, Note_off_c, 9, 35, 0
10, 4968, Note_on_c, 9, 35, 127
10, 4968, Note_on_c, 9, 38, 117
10, 4992, Note_off_c, 9, 42, 0
10, 4992, Note_on_c, 9, 42, 127
10, 5016, Note_off_c, 9, 35, 0
10, 5016, Note_off_c, 9, 38, 0
10, 5016, Note_on_c, 9, 35, 127
10, 5040, Note_off_c, 9, 42, 0
10, 5040, Note_on_c, 9, 38, 127
10, 5040, Note_on_c, 9, 42, 127
10, 5064, Note_off_c, 9, 35, 0
10, 5088, Note_off_c, 9, 38, 0
10, 5088, Note_off_c, 9, 42, 0
10, 5088, Note_on_c, 9, 42, 127
10, 5112, Note_on_c, 9, 35, 127
10, 5136, Note_off_c, 9, 42, 0
10, 5136, Note_on_c, 9, 42, 127
10, 5160, Note_off_c, 9, 35, 0
10, 5160, Note_on_c, 9, 35, 127
10, 5184, Note_off_c, 9, 42, 0
10, 5184, Note_on_c, 9, 42, 127
10, 5208, Note_off_c, 9, 35, 0
10, 5208, Note_on_c, 9, 35, 127
10, 5232, Note_off_c, 9, 42, 0
10, 5232, Note_on_c, 9, 42, 127
10, 5256, Note_off_c, 9, 35, 0
10, 5256, Note_on_c, 9, 35, 127
10, 5256, Note_on_c, 9, 38, 117
10, 5280, Note_off_c, 9, 42, 0
10, 5280, Note_on_c, 9, 42, 127
10, 5304, Note_off_c, 9, 35, 0
10, 5304, Note_off_c, 9, 38, 0
10, 5304, Note_on_c, 9, 35, 127
10, 5328, Note_off_c, 9, 42, 0
10, 5328, Note_on_c, 9, 38, 127
10, 5328, Note_on_c, 9, 42, 127
10, 5352, Note_off_c, 9, 35, 0
10, 5376, Note_off_c, 9, 38, 0
10, 5376, Note_off_c, 9, 42, 0
10, 5376, Note_on_c, 9, 42, 127
10, 5400, Note_on_c, 9, 35, 127
10, 5424, Note_off_c, 9, 42, 0
10, 5424, Note_on_c, 9, 42, 127
10, 5448, Note_off_c, 9, 35, 0
10, 5448, Note_on_c, 9, 35, 127
10, 5472, Note_off_c, 9, 42, 0
10, 5472, Note_on_c, 9, 42, 127
10, 5496, Note_off_c, 9, 35, 0
10, 5496, Note_on_c, 9, 35, 127
10, 5520, Note_off_c, 9, 42, 0
10, 5520, Note_on_c, 9, 42, 127
10, 5544, Note_off_c, 9, 35, 0
10, 5544, Note_on_c, 9, 35, 127
10, 5544, Note_on_c, 9, 38, 117
10, 5568, Note_off_c, 9, 42, 0
10, 5568, Note_on_c, 9, 42, 127
10, 5592, Note_off_c, 9, 35, 0
10, 5592, Note_off_c, 9, 38, 0
10, 5592, Note_on_c, 9, 35, 127
10, 5616, Note_off_c, 9, 42, 0
10, 5616, Note_on_c, 9, 38, 127
10, 5616, Note_on_c, 9, 42, 127
10, 5616, Note_on_c, 9, 49, 127
10, 5640, Note_off_c, 9, 35, 0
10, 5664, Note_off_c, 9, 38, 0
10, 5664, Note_off_c, 9, 42, 0
10, 5664, Note_off_c, 9, 49, 0
10, 5664, Note_on_c, 9, 38, 127
10, 5664, Note_on_c, 9, 42, 127
10, 5688, Note_on_c, 9, 35, 127
10, 5688, Note_on_c, 9, 45, 127
10, 5712, Note_off_c, 9, 38, 0
10, 5712, Note_off_c, 9, 42, 0
10, 5712, Note_on_c, 9, 42, 127
10, 5712, Note_on_c, 9, 43, 127
10, 5736, Note_off_c, 9, 35, 0
10, 5736, Note_off_c, 9, 45, 0
10, 5736, Note_on_c, 9, 35, 127
10, 5736, Note_on_c, 9, 41, 127
10, 5760, Note_off_c, 9, 42, 0
10, 5760, Note_off_c, 9, 43, 0
10, 5760, Note_on_c, 9, 42, 127
10, 5760, Note_on_c, 9, 49, 127
10, 5784, Note_off_c, 9, 35, 0
10, 5784, Note_off_c, 9, 41, 0
10, 5784, Note_on_c, 9, 35, 127
10, 5808, Note_off_c, 9, 42, 0
10, 5808, Note_off_c, 9, 49, 0
10, 5808, Note_on_c, 9, 42, 127
10, 5832, Note_off_c, 9, 35, 0
10, 5832, Note_on_c, 9, 35, 127
10, 5832, Note_on_c, 9, 38, 117
10, 5856, Note_off_c, 9, 42, 0
10, 5856, Note_on_c, 9, 42, 127
10, 5880, Note_off_c, 9, 35, 0
10, 5880, Note_off_c, 9, 38, 0
10, 5880, Note_on_c, 9, 35, 127
10, 5904, Note_off_c, 9, 42, 0
10, 5904, Note_on_c, 9, 38, 127
10, 5904, Note_on_c, 9, 42, 127
10, 5928, Note_off_c, 9, 35, 0
10, 5952, Note_off_c, 9, 38, 0
10, 5952, Note_off_c, 9, 42, 0
10, 5952, Note_on_c, 9, 42, 127
10, 5976, Note_on_c, 9, 35, 127
10, 6000, Note_off_c, 9, 42, 0
10, 6000, Note_on_c, 9, 42, 127
10, 6024, Note_off_c, 9, 35, 0
10, 6024, Note_on_c, 9, 35, 127
10, 6048, Note_off_c, 9, 42, 0
10, 6048, Note_on_c, 9, 42, 127
10, 6072, Note_off_c, 9, 35, 0
10, 6072, Note_on_c, 9, 35, 127
10, 6096, Note_off_c, 9, 42, 0
10, 6096, Note_on_c, 9, 42, 127
10, 6120, Note_off_c, 9, 35, 0
10, 6120, Note_on_c, 9, 35, 127
10, 6120, Note_on_c, 9, 38, 117
10, 6144, Note_off_c, 9, 42, 0
10, 6144, Note_on_c, 9, 42, 127
10, 6168, Note_off_c, 9, 35, 0
10, 6168, Note_off_c, 9, 38, 0
10, 6168, Note_on_c, 9, 35, 127
10, 6192, Note_off_c, 9, 42, 0
10, 6192, Note_on_c, 9, 38, 127
10, 6192, Note_on_c, 9, 42, 127
10, 6216, Note_off_c, 9, 35, 0
10, 6240, Note_off_c, 9, 38, 0
10, 6240, Note_off_c, 9, 42, 0
10, 6240, Note_on_c, 9, 42, 127
10, 6264, Note_on_c, 9, 35, 127
10, 6288, Note_off_c, 9, 42, 0
10, 6288, Note_on_c, 9, 42, 127
10, 6312, Note_off_c, 9, 35, 0
10, 6312, Note_on_c, 9, 35, 127
10, 6336, Note_off_c, 9, 42, 0
10, 6336, Note_on_c, 9, 42, 127
10, 6360, Note_off_c, 9, 35, 0
10, 6360, Note_on_c, 9, 35, 127
10, 6384, Note_off_c, 9, 42, 0
10, 6384, Note_on_c, 9, 42, 127
10, 6408, Note_off_c, 9, 35, 0
10, 6408, Note_on_c, 9, 35, 127
10, 6408, Note_on_c, 9, 38, 117
10, 6432, Note_off_c, 9, 42, 0
10, 6432, Note_on_c, 9, 42, 127
10, 6456, Note_off_c, 9, 35, 0
10, 6456, Note_off_c, 9, 38, 0
10, 6456, Note_on_c, 9, 35, 127
10, 6480, Note_off_c, 9, 42, 0
10, 6480, Note_on_c, 9, 38, 127
10, 6480, Note_on_c, 9, 42, 127
10, 6504, Note_off_c, 9, 35, 0
10, 6528, Note_off_c, 9, 38, 0
10, 6528, Note_off_c, 9, 42, 0
10, 6528, Note_on_c, 9, 42, 127
10, 6552, Note_on_c, 9, 35, 127
10, 6576, Note_off_c, 9, 42, 0
10, 6576, Note_on_c, 9, 42, 127
10, 6600, Note_off_c, 9, 35, 0
10, 6600, Note_on_c, 9, 35, 127
10, 6624, Note_off_c, 9, 42, 0
10, 6624, Note_on_c, 9, 42, 127
10, 6648, Note_off_c, 9, 35, 0
10, 6648, Note_on_c, 9, 35, 127
10, 6672, Note_off_c, 9, 42, 0
10, 6672, Note_on_c, 9, 42, 127
10, 6696, Note_off_c, 9, 35, 0
10, 6696, Note_on_c, 9, 35, 127
10, 6696, Note_on_c, 9, 38, 117
10, 6720, Note_off_c, 9, 42, 0
10, 6720, Note_on_c, 9, 42, 127
10, 6744, Note_off_c, 9, 35, 0
10, 6744, Note_off_c, 9, 38, 0
10, 6744, Note_on_c, 9, 35, 127
10, 6768, Note_off_c, 9, 42, 0
10, 6768, Note_on_c, 9, 38, 127
10, 6768, Note_on_c, 9, 42, 127
10, 6768, Note_on_c, 9, 49, 127
10, 6792, Note_off_c, 9, 35, 0
10, 6816, Note_off_c, 9, 38, 0
10, 6816, Note_off_c, 9, 42, 0
10, 6816, Note_off_c, 9, 49, 0
10, 6816, Note_on_c, 9, 38, 127
10, 6816, Note_on_c, 9, 42, 127
10, 6840, Note_on_c, 9, 35, 127
10, 6840, Note_on_c, 9, 45, 127
10, 6864, Note_off_c, 9, 38, 0
10, 6864, Note_off_c, 9, 42, 0
10, 6864, Note_on_c, 9, 42, 127
10, 6864, Note_on_c, 9, 43, 127
10, 6888, Note_off_c, 9, 35, 0
10, 6888, Note_off_c, 9, 45, 0
10, 6888, Note_on_c, 9, 35, 127
10, 6888, Note_on_c, 9, 41, 127
10, 6912, Note_off_c, 9, 42, 0
10, 6912, Note_off_c, 9, 43, 0
10, 6912, Note_on_c, 9, 42, 127
10, 6912, Note_on_c, 9, 49, 127
10, 6936, Note_off_c, 9, 35, 0
10, 6936, Note_off_c, 9, 41, 0
10, 6936, Note_on_c, 9, 35, 127
10, 6960, Note_off_c, 9, 42, 0
10, 6960, Note_off_c, 9, 49, 0
10, 6960, Note_on_c, 9, 42, 127
10, 6984, Note_off_c, 9, 35, 0
10, 6984, Note_on_c, 9, 35, 127
10, 6984, Note_on_c, 9, 38, 117
10, 7008, Note_off_c, 9, 42, 0
10, 7008, Note_on_c, 9, 42, 127
10, 7032, Note_off_c, 9, 35, 0
10, 7032, Note_off_c, 9, 38, 0
10, 7032, Note_on_c, 9, 35, 127
10, 7056, Note_off_c, 9, 42, 0
10, 7056, Note_on_c, 9, 38, 127
10, 7056, Note_on_c, 9, 42, 127
10, 7080, Note_off_c, 9, 35, 0
10, 7104, Note_off_c, 9, 38, 0
10, 7104, Note_off_c, 9, 42, 0
10, 7104, Note_on_c, 9, 42, 127
10, 7128, Note_on_c, 9, 35, 127
10, 7152, Note_off_c, 9, 42, 0
10, 7152, Note_on_c, 9, 42, 127
10, 7176, Note_off_c, 9, 35, 0
10, 7176, Note_on_c, 9, 35, 127
10, 7200, Note_off_c, 9, 42, 0
10, 7200, Note_on_c, 9, 42, 127
10, 7224, Note_off_c, 9, 35, 0
10, 7224, Note_on_c, 9, 35, 127
10, 7248, Note_off_c, 9, 42, 0
10, 7248, Note_on_c, 9, 42, 127
10, 7272, Note_off_c, 9, 35, 0
10, 7272, Note_on_c, 9, 35, 127
10, 7272, Note_on_c, 9, 38, 117
10, 7296, Note_off_c, 9, 42, 0
10, 7296, Note_on_c, 9, 42, 127
10, 7320, Note_off_c, 9, 35, 0
10, 7320, Note_off_c, 9, 38, 0
10, 7320, Note_on_c, 9, 35, 127
10, 7344, Note_off_c, 9, 42, 0
10, 7344, Note_on_c, 9, 38, 127
10, 7344, Note_on_c, 9, 42, 127
10, 7368, Note_off_c, 9, 35, 0
10, 7392, Note_off_c, 9, 38, 0
10, 7392, Note_off_c, 9, 42, 0
10, 7392, Note_on_c, 9, 42, 127
10, 7416, Note_on_c, 9, 35, 127
10, 7440, Note_off_c, 9, 42, 0
10, 7440, Note_on_c, 9, 42, 127
10, 7464, Note_off_c, 9, 35, 0
10, 7464, Note_on_c, 9, 35, 127
10, 7488, Note_off_c, 9, 42, 0
10, 7488, Note_on_c, 9, 42, 127
10, 7512, Note_off_c, 9, 35, 0
10, 7512, Note_on_c, 9, 35, 127
10, 7536, Note_off_c, 9, 42, 0
10, 7536, Note_on_c, 9, 42, 127
10, 7560, Note_off_c, 9, 35, 0
10, 7560, Note_on_c, 9, 35, 127
10, 7560, Note_on_c, 9, 38, 117
10, 7584, Note_off_c, 9, 42, 0
10, 7584, Note_on_c, 9, 42, 127
10, 7608, Note_off_c, 9, 35, 0
10, 7608, Note_off_c, 9, 38, 0
10, 7608, Note_on_c, 9, 35, 127
10, 7632, Note_off_c, 9, 42, 0
10, 7632, Note_on_c, 9, 38, 127
10, 7632, Note_on_c, 9, 42, 127
10, 7656, Note_off_c, 9, 35, 0
10, 7680, Note_off_c, 9, 38, 0
10, 7680, Note_off_c, 9, 42, 0
10, 7680, Note_on_c, 9, 42, 127
10, 7704, Note_on_c, 9, 35, 127
10, 7728, Note_off_c, 9, 42, 0
10, 7728, Note_on_c, 9, 42, 127
10, 7752, Note_off_c, 9, 35, 0
10, 7752, Note_on_c, 9, 35, 127
10, 7776, Note_off_c, 9, 42, 0
10, 7776, Note_on_c, 9, 42, 127
10, 7800, Note_off_c, 9, 35, 0
10, 7800, Note_on_c, 9, 35, 127
10, 7824, Note_off_c, 9, 42, 0
10, 7824, Note_on_c, 9, 42, 127
10, 7848, Note_off_c, 9, 35, 0
10, 7848, Note_on_c, 9, 35, 127
10, 7848, Note_on_c, 9, 38, 117
10, 7872, Note_off_c, 9, 42, 0
10, 7872, Note_on_c, 9, 42, 127
10, 7896, Note_off_c, 9, 35, 0
10, 7896, Note_off_c, 9, 38, 0
10, 7896, Note_on_c, 9, 35, 127
10, 7920, Note_off_c, 9, 42, 0
10, 7920, Note_on_c, 9, 38, 127
10, 7920, Note_on_c, 9, 42, 127
10, 7920, Note_on_c, 9, 49, 127
10, 7944, Note_off_c, 9, 35, 0
10, 7968, Note_off_c, 9, 38, 0
10, 7968, Note_off_c, 9, 42, 0
10, 7968, Note_off_c, 9, 49, 0
10, 7968, Note_on_c, 9, 38, 127
10, 7968, Note_on_c, 9, 42, 127
10, 7992, Note_on_c, 9, 35, 127
10, 7992, Note_on_c, 9, 45, 127
10, 8016, Note_off_c, 9, 38, 0
10, 8016, Note_off_c, 9, 42, 0
10, 8016, Note_on_c, 9, 42, 127
10, 8016, Note_on_c, 9, 43, 127
10, 8040, Note_off_c, 9, 35, 0
10, 8040, Note_off_c, 9, 45, 0
10, 8040, Note_on_c, 9, 35, 127
10, 8040, Note_on_c, 9, 41, 127
10, 8064, Note_off_c, 9, 42, 0
10, 8064, Note_off_c, 9, 43, 0
10, 8064, Note_on_c, 9, 42, 127
10, 8064, Note_on_c, 9, 49, 127
10, 8088, Note_off_c, 9, 35, 0
10, 8088, Note_off_c, 9, 41, 0
10, 8088, Note_on_c, 9, 35, 127
10, 8112, Note_off_c, 9, 42, 0
10, 8112, Note_off_c, 9, 49, 0
10, 8112, Note_on_c, 9, 42, 127
10, 8136, Note_off_c, 9, 35, 0
10, 8136, Note_on_c, 9, 35, 127
10, 8136, Note_on_c, 9, 38, 117
10, 8160, Note_off_c, 9, 42, 0
10, 8160, Note_on_c, 9, 42, 127
10, 8184, Note_off_c, 9, 35, 0
10, 8184, Note_off_c, 9, 38, 0
10, 8184, Note_on_c, 9, 35, 127
10, 8208, Note_off_c, 9, 42, 0
10, 8208, Note_on_c, 9, 38, 127
10, 8208, Note_on_c, 9, 42, 127
10, 8232, Note_off_c, 9, 35, 0
10, 8256, Note_off_c, 9, 38, 0
10, 8256, Note_off_c, 9, 42, 0
10, 8256, Note_on_c, 9, 42, 127
10, 8280, Note_on_c, 9, 35, 127
10, 8304, Note_off_c, 9, 42, 0
10, 8304, Note_on_c, 9, 42, 127
10, 8328, Note_off_c, 9, 35, 0
10, 8328, Note_on_c, 9, 35, 127
10, 8352, Note_off_c, 9, 42, 0
10, 8352, Note_on_c, 9, 42, 127
10, 8376, Note_off_c, 9, 35, 0
10, 8376, Note_on_c, 9, 35, 127
10, 8400, Note_off_c, 9, 42, 0
10, 8400, Note_on_c, 9, 42, 127
10, 8424, Note_off_c, 9, 35, 0
10, 8424, Note_on_c, 9, 35, 127
10, 8424, Note_on_c, 9, 38, 117
10, 8448, Note_off_c, 9, 42, 0
10, 8448, Note_on_c, 9, 42, 127
10, 8472, Note_off_c, 9, 35, 0
10, 8472, Note_off_c, 9, 38, 0
10, 8472, Note_on_c, 9, 35, 127
10, 8496, Note_off_c, 9, 42, 0
10, 8496, Note_on_c, 9, 38, 127
10, 8496, Note_on_c, 9, 42, 127
10, 8520, Note_off_c, 9, 35, 0
10, 8544, Note_off_c, 9, 38, 0
10, 8544, Note_off_c, 9, 42, 0
10, 8544, Note_on_c, 9, 42, 127
10, 8568, Note_on_c, 9, 35, 127
10, 8592, Note_off_c, 9, 42, 0
10, 8592, Note_on_c, 9, 42, 127
10, 8616, Note_off_c, 9, 35, 0
10, 8616, Note_on_c, 9, 35, 127
10, 8640, Note_off_c, 9, 42, 0
10, 8640, Note_on_c, 9, 42, 127
10, 8664, Note_off_c, 9, 35, 0
10, 8664, Note_on_c, 9, 35, 127
10, 8688, Note_off_c, 9, 42, 0
10, 8688, Note_on_c, 9, 42, 127
10, 8712, Note_off_c, 9, 35, 0
10, 8712, Note_on_c, 9, 35, 127
10, 8712, Note_on_c, 9, 38, 117
10, 8736, Note_off_c, 9, 42, 0
10, 8736, Note_on_c, 9, 42, 127
10, 8760, Note_off_c, 9, 35, 0
10, 8760, Note_off_c, 9, 38, 0
10, 8760, Note_on_c, 9, 35, 127
10, 8784, Note_off_c, 9, 42, 0
10, 8784, Note_on_c, 9, 38, 127
10, 8784, Note_on_c, 9, 42, 127
10, 8808, Note_off_c, 9, 35, 0
10, 8832, Note_off_c, 9, 38, 0
10, 8832, Note_off_c, 9, 42, 0
10, 8832, Note_on_c, 9, 42, 127
10, 8856, Note_on_c, 9, 35, 127
10, 8880, Note_off_c, 9, 42, 0
10, 8880, Note_on_c, 9, 42, 127
10, 8904, Note_off_c, 9, 35, 0
10, 8904, Note_on_c, 9, 35, 127
10, 8928, Note_off_c, 9, 42, 0
10, 8928, Note_on_c, 9, 42, 127
10, 8952, Note_off_c, 9, 35, 0
10, 8952, Note_on_c, 9, 35, 127
10, 8976, Note_off_c, 9, 42, 0
10, 8976, Note_on_c, 9, 42, 127
10, 9000, Note_off_c, 9, 35, 0
10, 9000, Note_on_c, 9, 35, 127
10, 9000, Note_on_c, 9, 38, 117
10, 9024, Note_off_c, 9, 42, 0
10, 9024, Note_on_c, 9, 42, 127
10, 9048, Note_off_c, 9, 35, 0
10, 9048, Note_off_c, 9, 38, 0
10, 9048, Note_on_c, 9, 35, 127
10, 9072, Note_off_c, 9, 42, 0
10, 9072, Note_on_c, 9, 38, 127
10, 9072, Note_on_c, 9, 42, 127
10, 9072, Note_on_c, 9, 49, 127
10, 9096, Note_off_c, 9, 35, 0
10, 9120, Note_off_c, 9, 38, 0
10, 9120, Note_off_c, 9, 42, 0
10, 9120, Note_off_c, 9, 49, 0
10, 9120, Note_on_c, 9, 38, 127
10, 9120, Note_on_c, 9, 42, 127
10, 9144, Note_on_c, 9, 35, 127
10, 9144, Note_on_c, 9, 45, 127
10, 9168, Note_off_c, 9, 38, 0
10, 9168, Note_off_c, 9, 42, 0
10, 9168, Note_on_c, 9, 42, 127
10, 9168, Note_on_c, 9, 43, 127
10, 9192, Note_off_c, 9, 35, 0
10, 9192, Note_off_c, 9, 45, 0
10, 9192, Note_on_c, 9, 35, 127
10, 9192, Note_on_c, 9, 41, 127
10, 9216, Note_off_c, 9, 42, 0
10, 9216, Note_off_c, 9, 43, 0
10, 9216, Note_on_c, 9, 42, 127
10, 9216, Note_on_c, 9, 49, 127
10, 9240, Note_off_c, 9, 35, 0
10, 9240, Note_off_c, 9, 41, 0
10, 9240, Note_on_c, 9, 35, 127
10, 9264, Note_off_c, 9, 42, 0
10, 9264, Note_off_c, 9, 49, 0
10, 9264, Note_on_c, 9, 42, 127
10, 9288, Note_off_c, 9, 35, 0
10, 9288, Note_on_c, 9, 35, 127
10, 9288, Note_on_c, 9, 38, 117
10, 9312, Note_off_c, 9, 42, 0
10, 9312, Note_on_c, 9, 42, 127
10, 9336, Note_off_c, 9, 35, 0
10, 9336, Note_off_c, 9, 38, 0
10, 9336, Note_on_c, 9, 35, 127
10, 9360, Note_off_c, 9, 42, 0
10, 9360, Note_on_c, 9, 38, 127
10, 9360, Note_on_c, 9, 42, 127
10, 9384, Note_off_c, 9, 35, 0
10, 9408, Note_off_c, 9, 38, 0
10, 9408, Note_off_c, 9, 42, 0
10, 9408, Note_on_c, 9, 42, 127
10, 9432, Note_on_c, 9, 35, 127
10, 9456, Note_off_c, 9, 42, 0
10, 9456, Note_on_c, 9, 42, 127
10, 9480, Note_off_c, 9, 35, 0
10, 9480, Note_on_c, 9, 35, 127
10, 9504, Note_off_c, 9, 42, 0
10, 9504, Note_on_c, 9, 42, 127
10, 9528, Note_off_c, 9, 35, 0
10, 9528, Note_on_c, 9, 35, 127
10, 9552, Note_off_c, 9, 42, 0
10, 9552, Note_on_c, 9, 42, 127
10, 9576, Note_off_c, 9, 35, 0
10, 9576, Note_on_c, 9, 35, 127
10, 9576, Note_on_c, 9, 38, 117
10, 9600, Note_off_c, 9, 42, 0
10, 9600, Note_on_c, 9, 42, 127
10, 9624, Note_off_c, 9, 35, 0
10, 9624, Note_off_c, 9, 38, 0
10, 9624, Note_on_c, 9, 35, 127
10, 9648, Note_off_c, 9, 42, 0
10, 9648, Note_on_c, 9, 38, 127
10, 9648, Note_on_c, 9, 42, 127
10, 9672, Note_off_c, 9, 35, 0
10, 9696, Note_off_c, 9, 38, 0
10, 9696, Note_off_c, 9, 42, 0
10, 9696, Note_on_c, 9, 42, 127
10, 9720, Note_on_c, 9, 35, 127
10, 9744, Note_off_c, 9, 42, 0
10, 9744, Note_on_c, 9, 42, 127
10, 9768, Note_off_c, 9, 35, 0
10, 9768, Note_on_c, 9, 35, 127
10, 9792, Note_off_c, 9, 42, 0
10, 9792, Note_on_c, 9, 42, 127
10, 9816, Note_off_c, 9, 35, 0
10, 9816, Note_on_c, 9, 35, 127
10, 9840, Note_off_c, 9, 42, 0
10, 9840, Note_on_c, 9, 42, 127
10, 9864, Note_off_c, 9, 35, 0
10, 9864, Note_on_c, 9, 35, 127
10, 9864, Note_on_c, 9, 38, 117
10, 9888, Note_off_c, 9, 42, 0
10, 9888, Note_on_c, 9, 42, 127
10, 9912, Note_off_c, 9, 35, 0
10, 9912, Note_off_c, 9, 38, 0
10, 9912, Note_on_c, 9, 35, 127
10, 9936, Note_off_c, 9, 42, 0
10, 9936, Note_on_c, 9, 38, 127
10, 9936, Note_on_c, 9, 42, 127
10, 9960, Note_off_c, 9, 35, 0
10, 9984, Note_off_c, 9, 38, 0
10, 9984, Note_off_c, 9, 42, 0
10, 9984, Note_on_c, 9, 42, 127
10, 10008, Note_on_c, 9, 35, 127
10, 10032, Note_off_c, 9, 42, 0
10, 10032, Note_on_c, 9, 42, 127
10, 10056, Note_off_c, 9, 35, 0
10, 10056, Note_on_c, 9, 35, 127
10, 10080, Note_off_c, 9, 42, 0
10, 10080, Note_on_c, 9, 42, 127
10, 10104, Note_off_c, 9, 35, 0
10, 10104, Note_on_c, 9, 35, 127
10, 10128, Note_off_c, 9, 42, 0
10, 10128, Note_on_c, 9, 42, 127
10, 10152, Note_off_c, 9, 35, 0
10, 10152, Note_on_c, 9, 35, 127
10, 10152, Note_on_c, 9, 38, 117
10, 10176, Note_off_c, 9, 42, 0
10, 10176, Note_on_c, 9, 42, 127
10, 10200, Note_off_c, 9, 35, 0
10, 10200, Note_off_c, 9, 38, 0
10, 10200, Note_on_c, 9, 35, 127
10, 10224, Note_off_c, 9, 42, 0
10, 10224, Note_on_c, 9, 38, 127
10, 10224, Note_on_c, 9, 42, 127
10, 10224, Note_on_c, 9, 49, 127
10, 10248, Note_off_c, 9, 35, 0
10, 10272, Note_off_c, 9, 38, 0
10, 10272, Note_off_c, 9, 42, 0
10, 10272, Note_off_c, 9, 49, 0
10, 10272, Note_on_c, 9, 38, 127
10, 10272, Note_on_c, 9, 42, 127
10, 10296, Note_on_c, 9, 35, 127
10, 10296, Note_on_c, 9, 45, 127
10, 10320, Note_off_c, 9, 38, 0
10, 10320, Note_off_c, 9, 42, 0
10, 10320, Note_on_c, 9, 42, 127
10, 10320, Note_on_c, 9, 43, 127
10, 10344, Note_off_c, 9, 35, 0
10, 10344, Note_off_c, 9, 45, 0
10, 10344, Note_on_c, 9, 35, 127
10, 10344, Note_on_c, 9, 41, 127
10, 10368, Note_off_c, 9, 42, 0
10, 10368, Note_off_c, 9, 43, 0
10, 10368, Note_on_c, 9, 46, 127
10, 10392, Note_off_c, 9, 35, 0
10, 10392, Note_off_c, 9, 41, 0
10, 10416, Note_off_c, 9, 46, 0
10, 10416, Note_on_c, 9, 46, 127
10, 10464, Note_off_c, 9, 46, 0
10, 10464, Note_on_c, 9, 46, 127
10, 10512, Note_off_c, 9, 46, 0
10, 10512, Note_on_c, 9, 46, 127
10, 10560, Note_off_c, 9, 46, 0
10, 10560, Note_on_c, 9, 46, 127
10, 10608, Note_off_c, 9, 46, 0
10, 10608, Note_on_c, 9, 46, 127
10, 10656, Note_off_c, 9, 46, 0
10, 10656, Note_on_c, 9, 46, 127
10, 10704, Note_off_c, 9, 46, 0
10, 10704, Note_on_c, 9, 46, 127
10, 10752, Note_off_c, 9, 46, 0
10, 10752, Note_on_c, 9, 46, 127
10, 10800, Note_off_c, 9, 46, 0
10, 10800, Note_on_c, 9, 46, 127
10, 10848, Note_off_c, 9, 46, 0
10, 10848, Note_on_c, 9, 46, 127
10, 10896, Note_off_c, 9, 46, 0
10, 10896, Note_on_c, 9, 38, 127
10, 10896, Note_on_c, 9, 46, 127
10, 10944, Note_off_c, 9, 38, 0
10, 10944, Note_off_c, 9, 46, 0
10, 10944, Note_on_c, 9, 35, 127
10, 10944, Note_on_c, 9, 49, 127
10, 10944, Note_on_c, 9, 51, 127
10, 10992, Note_off_c, 9, 35, 0
10, 10992, Note_off_c, 9, 49, 0
10, 10992, Note_off_c, 9, 51, 0
10, 10992, Note_on_c, 9, 51, 127
10, 11040, Note_off_c, 9, 51, 0
10, 11040, Note_on_c, 9, 35, 127
10, 11040, Note_on_c, 9, 51, 127
10, 11088, Note_off_c, 9, 35, 0
10, 11088, Note_off_c, 9, 51, 0
10, 11088, Note_on_c, 9, 38, 127
10, 11088, Note_on_c, 9, 51, 127
10, 11136, Note_off_c, 9, 38, 0
10, 11136, Note_off_c, 9, 51, 0
10, 11136, Note_on_c, 9, 38, 127
10, 11136, Note_on_c, 9, 51, 127
10, 11148, Note_on_c, 9, 38, 87
10, 11160, Note_on_c, 9, 38, 87
10, 11172, Note_on_c, 9, 38, 97
10, 11184, Note_off_c, 9, 38, 0
10, 11184, Note_off_c, 9, 51, 0
10, 11184, Note_on_c, 9, 38, 127
10, 11184, Note_on_c, 9, 51, 127
10, 11196, Note_off_c, 9, 38, 0
10, 11196, Note_on_c, 9, 38, 97
10, 11208, Note_off_c, 9, 38, 0
10, 11208, Note_on_c, 9, 38, 87
10, 11220, Note_off_c, 9, 38, 0
10, 11220, Note_on_c, 9, 38, 87
10, 11232, Note_off_c, 9, 38, 0
10, 11232, Note_off_c, 9, 51, 0
10, 11232, Note_on_c, 9, 35, 127
10, 11232, Note_on_c, 9, 49, 127
10, 11232, Note_on_c, 9, 51, 127
10, 11244, Note_off_c, 9, 38, 0
10, 11256, Note_off_c, 9, 38, 0
10, 11268, Note_off_c, 9, 38, 0
10, 11280, Note_off_c, 9, 35, 0
10, 11280, Note_off_c, 9, 49, 0
10, 11280, Note_off_c, 9, 51, 0
10, 11280, Note_on_c, 9, 51, 127
10, 11304, Note_on_c, 9, 35, 127
10, 11328, Note_off_c, 9, 51, 0
10, 11328, Note_on_c, 9, 51, 127
10, 11352, Note_off_c, 9, 35, 0
10, 11352, Note_on_c, 9, 35, 127
10, 11376, Note_off_c, 9, 51, 0
10, 11376, Note_on_c, 9, 38, 127
10, 11376, Note_on_c, 9, 51, 127
10, 11400, Note_off_c, 9, 35, 0
10, 11400, Note_on_c, 9, 38, 97
10, 11412, Note_on_c, 9, 38, 97
10, 11424, Note_off_c, 9, 38, 0
10, 11424, Note_off_c, 9, 51, 0
10, 11424, Note_on_c, 9, 38, 127
10, 11424, Note_on_c, 9, 51, 127
10, 11448, Note_off_c, 9, 38, 0
10, 11448, Note_on_c, 9, 47, 127
10, 11460, Note_off_c, 9, 38, 0
10, 11472, Note_off_c, 9, 38, 0
10, 11472, Note_off_c, 9, 51, 0
10, 11472, Note_on_c, 9, 43, 127
10, 11472, Note_on_c, 9, 51, 127
10, 11496, Note_off_c, 9, 47, 0
10, 11496, Note_on_c, 9, 43, 127
10, 11520, Note_off_c, 9, 43, 0
10, 11520, Note_off_c, 9, 51, 0
10, 11520, Note_on_c, 9, 46, 127
10, 11520, Note_on_c, 9, 49, 127
10, 11520, Note_on_c, 9, 57, 127
10, 11544, Note_off_c, 9, 43, 0
10, 11568, Note_off_c, 9, 46, 0
10, 11568, Note_off_c, 9, 49, 0
10, 11568, Note_off_c, 9, 57, 0
10, 11568, Note_on_c, 9, 46, 127
10, 11616, Note_off_c, 9, 46, 0
10, 11616, Note_on_c, 9, 46, 127
10, 11664, Note_off_c, 9, 46, 0
10, 11664, Note_on_c, 9, 46, 127
10, 11712, Note_off_c, 9, 46, 0
10, 11712, Note_on_c, 9, 46, 127
10, 11760, Note_off_c, 9, 46, 0
10, 11760, Note_on_c, 9, 46, 127
10, 11808, Note_off_c, 9, 46, 0
10, 11808, Note_on_c, 9, 46, 127
10, 11856, Note_off_c, 9, 46, 0
10, 11856, Note_on_c, 9, 46, 127
10, 11904, Note_off_c, 9, 46, 0
10, 11904, Note_on_c, 9, 46, 127
10, 11952, Note_off_c, 9, 46, 0
10, 11952, Note_on_c, 9, 38, 127
10, 11952, Note_on_c, 9, 46, 127
10, 11976, Note_on_c, 9, 38, 127
10, 12000, Note_off_c, 9, 38, 0
10, 12000, Note_off_c, 9, 46, 0
10, 12000, Note_on_c, 9, 43, 127
10, 12000, Note_on_c, 9, 46, 127
10, 12024, Note_off_c, 9, 38, 0
10, 12024, Note_on_c, 9, 43, 127
10, 12048, Note_off_c, 9, 43, 0
10, 12048, Note_off_c, 9, 46, 0
10, 12048, Note_on_c, 9, 41, 127
10, 12048, Note_on_c, 9, 46, 127
10, 12072, Note_off_c, 9, 43, 0
10, 12072, Note_on_c, 9, 41, 127
10, 12096, Note_off_c, 9, 41, 0
10, 12096, Note_off_c, 9, 46, 0
10, 12096, Note_on_c, 9, 35, 127
10, 12096, Note_on_c, 9, 49, 127
10, 12096, Note_on_c, 9, 51, 127
10, 12120, Note_off_c, 9, 41, 0
10, 12144, Note_off_c, 9, 35, 0
10, 12144, Note_off_c, 9, 49, 0
10, 12144, Note_off_c, 9, 51, 0
10, 12144, Note_on_c, 9, 51, 127
10, 12192, Note_off_c, 9, 51, 0
10, 12192, Note_on_c, 9, 35, 127
10, 12192, Note_on_c, 9, 51, 127
10, 12240, Note_off_c, 9, 35, 0
10, 12240, Note_off_c, 9, 51, 0
10, 12240, Note_on_c, 9, 38, 127
10, 12240, Note_on_c, 9, 51, 127
10, 12288, Note_off_c, 9, 38, 0
10, 12288, Note_off_c, 9, 51, 0
10, 12288, Note_on_c, 9, 38, 127
10, 12288, Note_on_c, 9, 51, 127
10, 12300, Note_on_c, 9, 38, 87
10, 12312, Note_on_c, 9, 38, 87
10, 12324, Note_on_c, 9, 38, 97
10, 12336, Note_off_c, 9, 38, 0
10, 12336, Note_off_c, 9, 51, 0
10, 12336, Note_on_c, 9, 38, 127
10, 12336, Note_on_c, 9, 51, 127
10, 12348, Note_off_c, 9, 38, 0
10, 12348, Note_on_c, 9, 38, 97
10, 12360, Note_off_c, 9, 38, 0
10, 12360, Note_on_c, 9, 38, 87
10, 12372, Note_off_c, 9, 38, 0
10, 12372, Note_on_c, 9, 38, 87
10, 12384, Note_off_c, 9, 38, 0
10, 12384, Note_off_c, 9, 51, 0
10, 12384, Note_on_c, 9, 35, 127
10, 12384, Note_on_c, 9, 49, 127
10, 12384, Note_on_c, 9, 51, 127
10, 12396, Note_off_c, 9, 38, 0
10, 12408, Note_off_c, 9, 38, 0
10, 12420, Note_off_c, 9, 38, 0
10, 12432, Note_off_c, 9, 35, 0
10, 12432, Note_off_c, 9, 49, 0
10, 12432, Note_off_c, 9, 51, 0
10, 12432, Note_on_c, 9, 51, 127
10, 12456, Note_on_c, 9, 35, 127
10, 12480, Note_off_c, 9, 51, 0
10, 12480, Note_on_c, 9, 51, 127
10, 12504, Note_off_c, 9, 35, 0
10, 12504, Note_on_c, 9, 35, 127
10, 12528, Note_off_c, 9, 51, 0
10, 12528, Note_on_c, 9, 38, 127
10, 12528, Note_on_c, 9, 51, 127
10, 12552, Note_off_c, 9, 35, 0
10, 12552, Note_on_c, 9, 38, 97
10, 12564, Note_on_c, 9, 38, 97
10, 12576, Note_off_c, 9, 38, 0
10, 12576, Note_off_c, 9, 51, 0
10, 12576, Note_on_c, 9, 38, 127
10, 12576, Note_on_c, 9, 51, 127
10, 12600, Note_off_c, 9, 38, 0
10, 12600, Note_on_c, 9, 47, 127
10, 12612, Note_off_c, 9, 38, 0
10, 12624, Note_off_c, 9, 38, 0
10, 12624, Note_off_c, 9, 51, 0
10, 12624, Note_on_c, 9, 43, 127
10, 12624, Note_on_c, 9, 51, 127
10, 12648, Note_off_c, 9, 47, 0
10, 12648, Note_on_c, 9, 43, 127
10, 12672, Note_off_c, 9, 43, 0
10, 12672, Note_off_c, 9, 51, 0
10, 12672, Note_on_c, 9, 46, 127
10, 12672, Note_on_c, 9, 49, 127
10, 12672, Note_on_c, 9, 57, 127
10, 12696, Note_off_c, 9, 43, 0
10, 12720, Note_off_c, 9, 46, 0
10, 12720, Note_off_c, 9, 49, 0
10, 12720, Note_off_c, 9, 57, 0
10, 12720, Note_on_c, 9, 46, 127
10, 12768, Note_off_c, 9, 46, 0
10, 12768, Note_on_c, 9, 46, 127
10, 12816, Note_off_c, 9, 46, 0
10, 12816, Note_on_c, 9, 46, 127
10, 12864, Note_off_c, 9, 46, 0
10, 12864, Note_on_c, 9, 46, 127
10, 12912, Note_off_c, 9, 46, 0
10, 12912, Note_on_c, 9, 46, 127
10, 12960, Note_off_c, 9, 46, 0
10, 12960, Note_on_c, 9, 46, 127
10, 13008, Note_off_c, 9, 46, 0
10, 13008, Note_on_c, 9, 46, 127
10, 13056, Note_off_c, 9, 46, 0
10, 13056, Note_on_c, 9, 46, 127
10, 13104, Note_off_c, 9, 46, 0
10, 13104, Note_on_c, 9, 38, 127
10, 13104, Note_on_c, 9, 46, 127
10, 13128, Note_on_c, 9, 38, 127
10, 13152, Note_off_c, 9, 38, 0
10, 13152, Note_off_c, 9, 46, 0
10, 13152, Note_on_c, 9, 43, 127
10, 13152, Note_on_c, 9, 46, 127
10, 13176, Note_off_c, 9, 38, 0
10, 13176, Note_on_c, 9, 43, 127
10, 13200, Note_off_c, 9, 43, 0
10, 13200, Note_off_c, 9, 46, 0
10, 13200, Note_on_c, 9, 41, 127
10, 13200, Note_on_c, 9, 46, 127
10, 13224, Note_off_c, 9, 43, 0
10, 13224, Note_on_c, 9, 41, 127
10, 13248, Note_off_c, 9, 41, 0
10, 13248, Note_off_c, 9, 46, 0
10, 13248, Note_on_c, 9, 42, 127
10, 13248, Note_on_c, 9, 49, 127
10, 13248, Note_on_c, 9, 53, 127
10, 13248, Note_on_c, 9, 57, 127
10, 13272, Note_off_c, 9, 41, 0
10, 13272, Note_on_c, 9, 35, 127
10, 13296, Note_off_c, 9, 42, 0
10, 13296, Note_off_c, 9, 49, 0
10, 13296, Note_off_c, 9, 53, 0
10, 13296, Note_off_c, 9, 57, 0
10, 13296, Note_on_c, 9, 42, 127
10, 13320, Note_off_c, 9, 35, 0
10, 13320, Note_on_c, 9, 35, 127
10, 13320, Note_on_c, 9, 38, 117
10, 13344, Note_off_c, 9, 42, 0
10, 13344, Note_on_c, 9, 42, 127
10, 13368, Note_off_c, 9, 35, 0
10, 13368, Note_off_c, 9, 38, 0
10, 13368, Note_on_c, 9, 35, 127
10, 13392, Note_off_c, 9, 42, 0
10, 13392, Note_on_c, 9, 38, 127
10, 13392, Note_on_c, 9, 42, 127
10, 13416, Note_off_c, 9, 35, 0
10, 13440, Note_off_c, 9, 38, 0
10, 13440, Note_off_c, 9, 42, 0
10, 13440, Note_on_c, 9, 42, 127
10, 13464, Note_on_c, 9, 35, 127
10, 13488, Note_off_c, 9, 42, 0
10, 13488, Note_on_c, 9, 42, 127
10, 13512, Note_off_c, 9, 35, 0
10, 13512, Note_on_c, 9, 35, 127
10, 13536, Note_off_c, 9, 42, 0
10, 13536, Note_on_c, 9, 42, 127
10, 13560, Note_off_c, 9, 35, 0
10, 13560, Note_on_c, 9, 35, 127
10, 13584, Note_off_c, 9, 42, 0
10, 13584, Note_on_c, 9, 42, 127
10, 13608, Note_off_c, 9, 35, 0
10, 13608, Note_on_c, 9, 35, 127
10, 13608, Note_on_c, 9, 38, 117
10, 13632, Note_off_c, 9, 42, 0
10, 13632, Note_on_c, 9, 42, 127
10, 13656, Note_off_c, 9, 35, 0
10, 13656, Note_off_c, 9, 38, 0
10, 13656, Note_on_c, 9, 35, 127
10, 13680, Note_off_c, 9, 42, 0
10, 13680, Note_on_c, 9, 38, 127
10, 13680, Note_on_c, 9, 42, 127
10, 13704, Note_off_c, 9, 35, 0
10, 13728, Note_off_c, 9, 38, 0
10, 13728, Note_off_c, 9, 42, 0
10, 13728, Note_on_c, 9, 42, 127
10, 13752, Note_on_c, 9, 35, 127
10, 13776, Note_off_c, 9, 42, 0
10, 13776, Note_on_c, 9, 42, 127
10, 13800, Note_off_c, 9, 35, 0
10, 13800, Note_on_c, 9, 35, 127
10, 13824, Note_off_c, 9, 42, 0
10, 13824, Note_on_c, 9, 42, 127
10, 13848, Note_off_c, 9, 35, 0
10, 13848, Note_on_c, 9, 35, 127
10, 13872, Note_off_c, 9, 42, 0
10, 13872, Note_on_c, 9, 42, 127
10, 13896, Note_off_c, 9, 35, 0
10, 13896, Note_on_c, 9, 35, 127
10, 13896, Note_on_c, 9, 38, 117
10, 13920, Note_off_c, 9, 42, 0
10, 13920, Note_on_c, 9, 42, 127
10, 13944, Note_off_c, 9, 35, 0
10, 13944, Note_off_c, 9, 38, 0
10, 13944, Note_on_c, 9, 35, 127
10, 13968, Note_off_c, 9, 42, 0
10, 13968, Note_on_c, 9, 38, 127
10, 13968, Note_on_c, 9, 42, 127
10, 13992, Note_off_c, 9, 35, 0
10, 14016, Note_off_c, 9, 38, 0
10, 14016, Note_off_c, 9, 42, 0
10, 14016, Note_on_c, 9, 42, 127
10, 14040, Note_on_c, 9, 35, 127
10, 14064, Note_off_c, 9, 42, 0
10, 14064, Note_on_c, 9, 42, 127
10, 14088, Note_off_c, 9, 35, 0
10, 14088, Note_on_c, 9, 35, 127
10, 14112, Note_off_c, 9, 42, 0
10, 14112, Note_on_c, 9, 42, 127
10, 14136, Note_off_c, 9, 35, 0
10, 14136, Note_on_c, 9, 35, 127
10, 14160, Note_off_c, 9, 42, 0
10, 14160, Note_on_c, 9, 42, 127
10, 14184, Note_off_c, 9, 35, 0
10, 14184, Note_on_c, 9, 35, 127
10, 14184, Note_on_c, 9, 38, 117
10, 14208, Note_off_c, 9, 42, 0
10, 14208, Note_on_c, 9, 42, 127
10, 14232, Note_off_c, 9, 35, 0
10, 14232, Note_off_c, 9, 38, 0
10, 14232, Note_on_c, 9, 35, 127
10, 14256, Note_off_c, 9, 42, 0
10, 14256, Note_on_c, 9, 38, 127
10, 14256, Note_on_c, 9, 42, 127
10, 14256, Note_on_c, 9, 49, 127
10, 14280, Note_off_c, 9, 35, 0
10, 14304, Note_off_c, 9, 38, 0
10, 14304, Note_off_c, 9, 42, 0
10, 14304, Note_off_c, 9, 49, 0
10, 14304, Note_on_c, 9, 38, 127
10, 14304, Note_on_c, 9, 42, 127
10, 14328, Note_on_c, 9, 35, 127
10, 14328, Note_on_c, 9, 45, 127
10, 14352, Note_off_c, 9, 38, 0
10, 14352, Note_off_c, 9, 42, 0
10, 14352, Note_on_c, 9, 42, 127
10, 14352, Note_on_c, 9, 43, 127
10, 14376, Note_off_c, 9, 35, 0
10, 14376, Note_off_c, 9, 45, 0
10, 14376, Note_on_c, 9, 35, 127
10, 14376, Note_on_c, 9, 41, 127
10, 14400, Note_off_c, 9, 42, 0
10, 14400, Note_off_c, 9, 43, 0
10, 14400, Note_on_c, 9, 42, 127
10, 14400, Note_on_c, 9, 49, 127
10, 14424, Note_off_c, 9, 35, 0
10, 14424, Note_off_c, 9, 41, 0
10, 14424, Note_on_c, 9, 35, 127
10, 14448, Note_off_c, 9, 42, 0
10, 14448, Note_off_c, 9, 49, 0
10, 14448, Note_on_c, 9, 42, 127
10, 14472, Note_off_c, 9, 35, 0
10, 14472, Note_on_c, 9, 35, 127
10, 14472, Note_on_c, 9, 38, 117
10, 14496, Note_off_c, 9, 42, 0
10, 14496, Note_on_c, 9, 42, 127
10, 14520, Note_off_c, 9, 35, 0
10, 14520, Note_off_c, 9, 38, 0
10, 14520, Note_on_c, 9, 35, 127
10, 14544, Note_off_c, 9, 42, 0
10, 14544, Note_on_c, 9, 38, 127
10, 14544, Note_on_c, 9, 42, 127
10, 14568, Note_off_c, 9, 35, 0
10, 14592, Note_off_c, 9, 38, 0
10, 14592, Note_off_c, 9, 42, 0
10, 14592, Note_on_c, 9, 42, 127
10, 14616, Note_on_c, 9, 35, 127
10, 14640, Note_off_c, 9, 42, 0
10, 14640, Note_on_c, 9, 42, 127
10, 14664, Note_off_c, 9, 35, 0
10, 14664, Note_on_c, 9, 35, 127
10, 14688, Note_off_c, 9, 42, 0
10, 14688, Note_on_c, 9, 42, 127
10, 14712, Note_off_c, 9, 35, 0
10, 14712, Note_on_c, 9, 35, 127
10, 14736, Note_off_c, 9, 42, 0
10, 14736, Note_on_c, 9, 42, 127
10, 14760, Note_off_c, 9, 35, 0
10, 14760, Note_on_c, 9, 35, 127
10, 14760, Note_on_c, 9, 38, 117
10, 14784, Note_off_c, 9, 42, 0
10, 14784, Note_on_c, 9, 42, 127
10, 14808, Note_off_c, 9, 35, 0
10, 14808, Note_off_c, 9, 38, 0
10, 14808, Note_on_c, 9, 35, 127
10, 14832, Note_off_c, 9, 42, 0
10, 14832, Note_on_c, 9, 38, 127
10, 14832, Note_on_c, 9, 42, 127
10, 14856, Note_off_c, 9, 35, 0
10, 14880, Note_off_c, 9, 38, 0
10, 14880, Note_off_c, 9, 42, 0
10, 14880, Note_on_c, 9, 42, 127
10, 14904, Note_on_c, 9, 35, 127
10, 14928, Note_off_c, 9, 42, 0
10, 14928, Note_on_c, 9, 42, 127
10, 14952, Note_off_c, 9, 35, 0
10, 14952, Note_on_c, 9, 35, 127
10, 14976, Note_off_c, 9, 42, 0
10, 14976, Note_on_c, 9, 42, 127
10, 15000, Note_off_c, 9, 35, 0
10, 15000, Note_on_c, 9, 35, 127
10, 15024, Note_off_c, 9, 42, 0
10, 15024, Note_on_c, 9, 42, 127
10, 15048, Note_off_c, 9, 35, 0
10, 15048, Note_on_c, 9, 35, 127
10, 15048, Note_on_c, 9, 38, 117
10, 15072, Note_off_c, 9, 42, 0
10, 15072, Note_on_c, 9, 42, 127
10, 15096, Note_off_c, 9, 35, 0
10, 15096, Note_off_c, 9, 38, 0
10, 15096, Note_on_c, 9, 35, 127
10, 15120, Note_off_c, 9, 42, 0
10, 15120, Note_on_c, 9, 38, 127
10, 15120, Note_on_c, 9, 42, 127
10, 15144, Note_off_c, 9, 35, 0
10, 15168, Note_off_c, 9, 38, 0
10, 15168, Note_off_c, 9, 42, 0
10, 15168, Note_on_c, 9, 42, 127
10, 15192, Note_on_c, 9, 35, 127
10, 15216, Note_off_c, 9, 42, 0
10, 15216, Note_on_c, 9, 42, 127
10, 15240, Note_off_c, 9, 35, 0
10, 15240, Note_on_c, 9, 35, 127
10, 15264, Note_off_c, 9, 42, 0
10, 15264, Note_on_c, 9, 42, 127
10, 15288, Note_off_c, 9, 35, 0
10, 15288, Note_on_c, 9, 35, 127
10, 15312, Note_off_c, 9, 42, 0
10, 15312, Note_on_c, 9, 42, 127
10, 15336, Note_off_c, 9, 35, 0
10, 15336, Note_on_c, 9, 35, 127
10, 15336, Note_on_c, 9, 38, 117
10, 15360, Note_off_c, 9, 42, 0
10, 15360, Note_on_c, 9, 42, 127
10, 15384, Note_off_c, 9, 35, 0
10, 15384, Note_off_c, 9, 38, 0
10, 15384, Note_on_c, 9, 35, 127
10, 15408, Note_off_c, 9, 42, 0
10, 15408, Note_on_c, 9, 38, 127
10, 15408, Note_on_c, 9, 42, 127
10, 15408, Note_on_c, 9, 49, 127
10, 15432, Note_off_c, 9, 35, 0
10, 15456, Note_off_c, 9, 38, 0
10, 15456, Note_off_c, 9, 42, 0
10, 15456, Note_off_c, 9, 49, 0
10, 15456, Note_on_c, 9, 38, 127
10, 15456, Note_on_c, 9, 42, 127
10, 15480, Note_on_c, 9, 35, 127
10, 15480, Note_on_c, 9, 45, 127
10, 15504, Note_off_c, 9, 38, 0
10, 15504, Note_off_c, 9, 42, 0
10, 15504, Note_on_c, 9, 42, 127
10, 15504, Note_on_c, 9, 43, 127
10, 15528, Note_off_c, 9, 35, 0
10, 15528, Note_off_c, 9, 45, 0
10, 15528, Note_on_c, 9, 35, 127
10, 15528, Note_on_c, 9, 41, 127
10, 15552, Note_off_c, 9, 42, 0
10, 15552, Note_off_c, 9, 43, 0
10, 15552, Note_on_c, 9, 42, 127
10, 15552, Note_on_c, 9, 49, 127
10, 15576, Note_off_c, 9, 35, 0
10, 15576, Note_off_c, 9, 41, 0
10, 15576, Note_on_c, 9, 35, 127
10, 15600, Note_off_c, 9, 42, 0
10, 15600, Note_off_c, 9, 49, 0
10, 15600, Note_on_c, 9, 42, 127
10, 15624, Note_off_c, 9, 35, 0
10, 15624, Note_on_c, 9, 35, 127
10, 15624, Note_on_c, 9, 38, 117
10, 15648, Note_off_c, 9, 42, 0
10, 15648, Note_on_c, 9, 42, 127
10, 15672, Note_off_c, 9, 35, 0
10, 15672, Note_off_c, 9, 38, 0
10, 15672, Note_on_c, 9, 35, 127
10, 15696, Note_off_c, 9, 42, 0
10, 15696, Note_on_c, 9, 38, 127
10, 15696, Note_on_c, 9, 42, 127
10, 15720, Note_off_c, 9, 35, 0
10, 15744, Note_off_c, 9, 38, 0
10, 15744, Note_off_c, 9, 42, 0
10, 15744, Note_on_c, 9, 42, 127
10, 15768, Note_on_c, 9, 35, 127
10, 15792, Note_off_c, 9, 42, 0
10, 15792, Note_on_c, 9, 42, 127
10, 15816, Note_off_c, 9, 35, 0
10, 15816, Note_on_c, 9, 35, 127
10, 15840, Note_off_c, 9, 42, 0
10, 15840, Note_on_c, 9, 42, 127
10, 15864, Note_off_c, 9, 35, 0
10, 15864, Note_on_c, 9, 35, 127
10, 15888, Note_off_c, 9, 42, 0
10, 15888, Note_on_c, 9, 42, 127
10, 15912, Note_off_c, 9, 35, 0
10, 15912, Note_on_c, 9, 35, 127
10, 15912, Note_on_c, 9, 38, 117
10, 15936, Note_off_c, 9, 42, 0
10, 15936, Note_on_c, 9, 42, 127
10, 15960, Note_off_c, 9, 35, 0
10, 15960, Note_off_c, 9, 38, 0
10, 15960, Note_on_c, 9, 35, 127
10, 15984, Note_off_c, 9, 42, 0
10, 15984, Note_on_c, 9, 38, 127
10, 15984, Note_on_c, 9, 42, 127
10, 16008, Note_off_c, 9, 35, 0
10, 16032, Note_off_c, 9, 38, 0
10, 16032, Note_off_c, 9, 42, 0
10, 16032, Note_on_c, 9, 42, 127
10, 16056, Note_on_c, 9, 35, 127
10, 16080, Note_off_c, 9, 42, 0
10, 16080, Note_on_c, 9, 42, 127
10, 16104, Note_off_c, 9, 35, 0
10, 16104, Note_on_c, 9, 35, 127
10, 16128, Note_off_c, 9, 42, 0
10, 16128, Note_on_c, 9, 42, 127
10, 16152, Note_off_c, 9, 35, 0
10, 16152, Note_on_c, 9, 35, 127
10, 16176, Note_off_c, 9, 42, 0
10, 16176, Note_on_c, 9, 42, 127
10, 16200, Note_off_c, 9, 35, 0
10, 16200, Note_on_c, 9, 35, 127
10, 16200, Note_on_c, 9, 38, 117
10, 16224, Note_off_c, 9, 42, 0
10, 16224, Note_on_c, 9, 42, 127
10, 16248, Note_off_c, 9, 35, 0
10, 16248, Note_off_c, 9, 38, 0
10, 16248, Note_on_c, 9, 35, 127
10, 16272, Note_off_c, 9, 42, 0
10, 16272, Note_on_c, 9, 38, 127
10, 16272, Note_on_c, 9, 42, 127
10, 16296, Note_off_c, 9, 35, 0
10, 16320, Note_off_c, 9, 38, 0
10, 16320, Note_off_c, 9, 42, 0
10, 16320, Note_on_c, 9, 42, 127
10, 16344, Note_on_c, 9, 35, 127
10, 16368, Note_off_c, 9, 42, 0
10, 16368, Note_on_c, 9, 42, 127
10, 16392, Note_off_c, 9, 35, 0
10, 16392, Note_on_c, 9, 35, 127
10, 16416, Note_off_c, 9, 42, 0
10, 16416, Note_on_c, 9, 42, 127
10, 16440, Note_off_c, 9, 35, 0
10, 16440, Note_on_c, 9, 35, 127
10, 16464, Note_off_c, 9, 42, 0
10, 16464, Note_on_c, 9, 42, 127
10, 16488, Note_off_c, 9, 35, 0
10, 16488, Note_on_c, 9, 35, 127
10, 16488, Note_on_c, 9, 38, 117
10, 16512, Note_off_c, 9, 42, 0
10, 16512, Note_on_c, 9, 42, 127
10, 16536, Note_off_c, 9, 35, 0
10, 16536, Note_off_c, 9, 38, 0
10, 16536, Note_on_c, 9, 35, 127
10, 16560, Note_off_c, 9, 42, 0
10, 16560, Note_on_c, 9, 38, 127
10, 16560, Note_on_c, 9, 42, 127
10, 16560, Note_on_c, 9, 49, 127
10, 16584, Note_off_c, 9, 35, 0
10, 16608, Note_off_c, 9, 38, 0
10, 16608, Note_off_c, 9, 42, 0
10, 16608, Note_off_c, 9, 49, 0
10, 16608, Note_on_c, 9, 38, 127
10, 16608, Note_on_c, 9, 42, 127
10, 16632, Note_on_c, 9, 35, 127
10, 16632, Note_on_c, 9, 45, 127
10, 16656, Note_off_c, 9, 38, 0
10, 16656, Note_off_c, 9, 42, 0
10, 16656, Note_on_c, 9, 42, 127
10, 16656, Note_on_c, 9, 43, 127
10, 16680, Note_off_c, 9, 35, 0
10, 16680, Note_off_c, 9, 45, 0
10, 16680, Note_on_c, 9, 35, 127
10, 16680, Note_on_c, 9, 41, 127
10, 16704, Note_off_c, 9, 42, 0
10, 16704, Note_off_c, 9, 43, 0
10, 16704, Note_on_c, 9, 42, 127
10, 16704, Note_on_c, 9, 49, 127
10, 16728, Note_off_c, 9, 35, 0
10, 16728, Note_off_c, 9, 41, 0
10, 16728, Note_on_c, 9, 35, 127
10, 16752, Note_off_c, 9, 42, 0
10, 16752, Note_off_c, 9, 49, 0
10, 16752, Note_on_c, 9, 42, 127
10, 16776, Note_off_c, 9, 35, 0
10, 16776, Note_on_c, 9, 35, 127
10, 16776, Note_on_c, 9, 38, 117
10, 16800, Note_off_c, 9, 42, 0
10, 16800, Note_on_c, 9, 42, 127
10, 16824, Note_off_c, 9, 35, 0
10, 16824, Note_off_c, 9, 38, 0
10, 16824, Note_on_c, 9, 35, 127
10, 16848, Note_off_c, 9, 42, 0
10, 16848, Note_on_c, 9, 38, 127
10, 16848, Note_on_c, 9, 42, 127
10, 16872, Note_off_c, 9, 35, 0
10, 16896, Note_off_c, 9, 38, 0
10, 16896, Note_off_c, 9, 42, 0
10, 16896, Note_on_c, 9, 42, 127
10, 16920, Note_on_c, 9, 35, 127
10, 16944, Note_off_c, 9, 42, 0
10, 16944, Note_on_c, 9, 42, 127
10, 16968, Note_off_c, 9, 35, 0
10, 16968, Note_on_c, 9, 35, 127
10, 16992, Note_off_c, 9, 42, 0
10, 16992, Note_on_c, 9, 42, 127
10, 17016, Note_off_c, 9, 35, 0
10, 17016, Note_on_c, 9, 35, 127
10, 17040, Note_off_c, 9, 42, 0
10, 17040, Note_on_c, 9, 42, 127
10, 17064, Note_off_c, 9, 35, 0
10, 17064, Note_on_c, 9, 35, 127
10, 17064, Note_on_c, 9, 38, 117
10, 17088, Note_off_c, 9, 42, 0
10, 17088, Note_on_c, 9, 42, 127
10, 17112, Note_off_c, 9, 35, 0
10, 17112, Note_off_c, 9, 38, 0
10, 17112, Note_on_c, 9, 35, 127
10, 17136, Note_off_c, 9, 42, 0
10, 17136, Note_on_c, 9, 38, 127
10, 17136, Note_on_c, 9, 42, 127
10, 17160, Note_off_c, 9, 35, 0
10, 17184, Note_off_c, 9, 38, 0
10, 17184, Note_off_c, 9, 42, 0
10, 17184, Note_on_c, 9, 42, 127
10, 17208, Note_on_c, 9, 35, 127
10, 17232, Note_off_c, 9, 42, 0
10, 17232, Note_on_c, 9, 42, 127
10, 17256, Note_off_c, 9, 35, 0
10, 17256, Note_on_c, 9, 35, 127
10, 17280, Note_off_c, 9, 42, 0
10, 17280, Note_on_c, 9, 42, 127
10, 17304, Note_off_c, 9, 35, 0
10, 17304, Note_on_c, 9, 35, 127
10, 17328, Note_off_c, 9, 42, 0
10, 17328, Note_on_c, 9, 42, 127
10, 17352, Note_off_c, 9, 35, 0
10, 17352, Note_on_c, 9, 35, 127
10, 17352, Note_on_c, 9, 38, 117
10, 17376, Note_off_c, 9, 42, 0
10, 17376, Note_on_c, 9, 42, 127
10, 17400, Note_off_c, 9, 35, 0
10, 17400, Note_off_c, 9, 38, 0
10, 17400, Note_on_c, 9, 35, 127
10, 17424, Note_off_c, 9, 42, 0
10, 17424, Note_on_c, 9, 38, 127
10, 17424, Note_on_c, 9, 42, 127
10, 17448, Note_off_c, 9, 35, 0
10, 17472, Note_off_c, 9, 38, 0
10, 17472, Note_off_c, 9, 42, 0
10, 17472, Note_on_c, 9, 42, 127
10, 17496, Note_on_c, 9, 35, 127
10, 17520, Note_off_c, 9, 42, 0
10, 17520, Note_on_c, 9, 42, 127
10, 17544, Note_off_c, 9, 35, 0
10, 17544, Note_on_c, 9, 35, 127
10, 17568, Note_off_c, 9, 42, 0
10, 17568, Note_on_c, 9, 42, 127
10, 17592, Note_off_c, 9, 35, 0
10, 17592, Note_on_c, 9, 35, 127
10, 17616, Note_off_c, 9, 42, 0
10, 17616, Note_on_c, 9, 42, 127
10, 17640, Note_off_c, 9, 35, 0
10, 17640, Note_on_c, 9, 35, 127
10, 17640, Note_on_c, 9, 38, 117
10, 17664, Note_off_c, 9, 42, 0
10, 17664, Note_on_c, 9, 42, 127
10, 17688, Note_off_c, 9, 35, 0
10, 17688, Note_off_c, 9, 38, 0
10, 17688, Note_on_c, 9, 35, 127
10, 17712, Note_off_c, 9, 42, 0
10, 17712, Note_on_c, 9, 38, 127
10, 17712, Note_on_c, 9, 42, 127
10, 17712, Note_on_c, 9, 49, 127
10, 17736, Note_off_c, 9, 35, 0
10, 17760, Note_off_c, 9, 38, 0
10, 17760, Note_off_c, 9, 42, 0
10, 17760, Note_off_c, 9, 49, 0
10, 17760, Note_on_c, 9, 38, 127
10, 17760, Note_on_c, 9, 42, 127
10, 17784, Note_on_c, 9, 35, 127
10, 17784, Note_on_c, 9, 45, 127
10, 17808, Note_off_c, 9, 38, 0
10, 17808, Note_off_c, 9, 42, 0
10, 17808, Note_on_c, 9, 42, 127
10, 17808, Note_on_c, 9, 43, 127
10, 17832, Note_off_c, 9, 35, 0
10, 17832, Note_off_c, 9, 45, 0
10, 17832, Note_on_c, 9, 35, 127
10, 17832, Note_on_c, 9, 41, 127
10, 17856, Note_off_c, 9, 42, 0
10, 17856, Note_off_c, 9, 43, 0
10, 17856, Note_on_c, 9, 42, 127
10, 17856, Note_on_c, 9, 49, 127
10, 17880, Note_off_c, 9, 35, 0
10, 17880, Note_off_c, 9, 41, 0
10, 17880, Note_on_c, 9, 35, 127
10, 17904, Note_off_c, 9, 42, 0
10, 17904, Note_off_c, 9, 49, 0
10, 17904, Note_on_c, 9, 42, 127
10, 17928, Note_off_c, 9, 35, 0
10, 17928, Note_on_c, 9, 35, 127
10, 17928, Note_on_c, 9, 38, 117
10, 17952, Note_off_c, 9, 42, 0
10, 17952, Note_on_c, 9, 42, 127
10, 17976, Note_off_c, 9, 35, 0
10, 17976, Note_off_c, 9, 38, 0
10, 17976, Note_on_c, 9, 35, 127
10, 18000, Note_off_c, 9, 42, 0
10, 18000, Note_on_c, 9, 38, 127
10, 18000, Note_on_c, 9, 42, 127
10, 18024, Note_off_c, 9, 35, 0
10, 18048, Note_off_c, 9, 38, 0
10, 18048, Note_off_c, 9, 42, 0
10, 18048, Note_on_c, 9, 42, 127
10, 18072, Note_on_c, 9, 35, 127
10, 18096, Note_off_c, 9, 42, 0
10, 18096, Note_on_c, 9, 42, 127
10, 18120, Note_off_c, 9, 35, 0
10, 18120, Note_on_c, 9, 35, 127
10, 18144, Note_off_c, 9, 42, 0
10, 18144, Note_on_c, 9, 42, 127
10, 18168, Note_off_c, 9, 35, 0
10, 18168, Note_on_c, 9, 35, 127
10, 18192, Note_off_c, 9, 42, 0
10, 18192, Note_on_c, 9, 42, 127
10, 18216, Note_off_c, 9, 35, 0
10, 18216, Note_on_c, 9, 35, 127
10, 18216, Note_on_c, 9, 38, 117
10, 18240, Note_off_c, 9, 42, 0
10, 18240, Note_on_c, 9, 42, 127
10, 18264, Note_off_c, 9, 35, 0
10, 18264, Note_off_c, 9, 38, 0
10, 18264, Note_on_c, 9, 35, 127
10, 18288, Note_off_c, 9, 42, 0
10, 18288, Note_on_c, 9, 38, 127
10, 18288, Note_on_c, 9, 42, 127
10, 18312, Note_off_c, 9, 35, 0
10, 18336, Note_off_c, 9, 38, 0
10, 18336, Note_off_c, 9, 42, 0
10, 18336, Note_on_c, 9, 42, 127
10, 18360, Note_on_c, 9, 35, 127
10, 18384, Note_off_c, 9, 42, 0
10, 18384, Note_on_c, 9, 42, 127
10, 18408, Note_off_c, 9, 35, 0
10, 18408, Note_on_c, 9, 35, 127
10, 18432, Note_off_c, 9, 42, 0
10, 18432, Note_on_c, 9, 42, 127
10, 18456, Note_off_c, 9, 35, 0
10, 18456, Note_on_c, 9, 35, 127
10, 18480, Note_off_c, 9, 42, 0
10, 18480, Note_on_c, 9, 42, 127
10, 18504, Note_off_c, 9, 35, 0
10, 18504, Note_on_c, 9, 35, 127
10, 18504, Note_on_c, 9, 38, 117
10, 18528, Note_off_c, 9, 42, 0
10, 18528, Note_on_c, 9, 42, 127
10, 18552, Note_off_c, 9, 35, 0
10, 18552, Note_off_c, 9, 38, 0
10, 18552, Note_on_c, 9, 35, 127
10, 18576, Note_off_c, 9, 42, 0
10, 18576, Note_on_c, 9, 38, 127
10, 18576, Note_on_c, 9, 42, 127
10, 18600, Note_off_c, 9, 35, 0
10, 18624, Note_off_c, 9, 38, 0
10, 18624, Note_off_c, 9, 42, 0
10, 18624, Note_on_c, 9, 42, 127
10, 18648, Note_on_c, 9, 35, 127
10, 18672, Note_off_c, 9, 42, 0
10, 18672, Note_on_c, 9, 42, 127
10, 18696, Note_off_c, 9, 35, 0
10, 18696, Note_on_c, 9, 35, 127
10, 18720, Note_off_c, 9, 42, 0
10, 18720, Note_on_c, 9, 42, 127
10, 18744, Note_off_c, 9, 35, 0
10, 18744, Note_on_c, 9, 35, 127
10, 18768, Note_off_c, 9, 42, 0
10, 18768, Note_on_c, 9, 42, 127
10, 18792, Note_off_c, 9, 35, 0
10, 18792, Note_on_c, 9, 35, 127
10, 18792, Note_on_c, 9, 38, 117
10, 18816, Note_off_c, 9, 42, 0
10, 18816, Note_on_c, 9, 42, 127
10, 18840, Note_off_c, 9, 35, 0
10, 18840, Note_off_c, 9, 38, 0
10, 18840, Note_on_c, 9, 35, 127
10, 18864, Note_off_c, 9, 42, 0
10, 18864, Note_on_c, 9, 38, 127
10, 18864, Note_on_c, 9, 42, 127
10, 18864, Note_on_c, 9, 49, 127
10, 18888, Note_off_c, 9, 35, 0
10, 18912, Note_off_c, 9, 38, 0
10, 18912, Note_off_c, 9, 42, 0
10, 18912, Note_off_c, 9, 49, 0
10, 18912, Note_on_c, 9, 38, 127
10, 18912, Note_on_c, 9, 42, 127
10, 18936, Note_on_c, 9, 35, 127
10, 18936, Note_on_c, 9, 45, 127
10, 18960, Note_off_c, 9, 38, 0
10, 18960, Note_off_c, 9, 42, 0
10, 18960, Note_on_c, 9, 42, 127
10, 18960, Note_on_c, 9, 43, 127
10, 18984, Note_off_c, 9, 35, 0
10, 18984, Note_off_c, 9, 45, 0
10, 18984, Note_on_c, 9, 35, 127
10, 18984, Note_on_c, 9, 41, 127
10, 19008, Note_off_c, 9, 42, 0
10, 19008, Note_off_c, 9, 43, 0
10, 19008, Note_on_c, 9, 42, 127
10, 19008, Note_on_c, 9, 49, 127
10, 19032, Note_off_c, 9, 35, 0
10, 19032, Note_off_c, 9, 41, 0
10, 19032, Note_on_c, 9, 35, 127
10, 19056, Note_off_c, 9, 42, 0
10, 19056, Note_off_c, 9, 49, 0
10, 19056, Note_on_c, 9, 42, 127
10, 19080, Note_off_c, 9, 35, 0
10, 19080, Note_on_c, 9, 35, 127
10, 19080, Note_on_c, 9, 38, 117
10, 19104, Note_off_c, 9, 42, 0
10, 19104, Note_on_c, 9, 42, 127
10, 19128, Note_off_c, 9, 35, 0
10, 19128, Note_off_c, 9, 38, 0
10, 19128, Note_on_c, 9, 35, 127
10, 19152, Note_off_c, 9, 42, 0
10, 19152, Note_on_c, 9, 38, 127
10, 19152, Note_on_c, 9, 42, 127
10, 19176, Note_off_c, 9, 35, 0
10, 19200, Note_off_c, 9, 38, 0
10, 19200, Note_off_c, 9, 42, 0
10, 19200, Note_on_c, 9, 42, 127
10, 19224, Note_on_c, 9, 35, 127
10, 19248, Note_off_c, 9, 42, 0
10, 19248, Note_on_c, 9, 42, 127
10, 19272, Note_off_c, 9, 35, 0
10, 19272, Note_on_c, 9, 35, 127
10, 19296, Note_off_c, 9, 42, 0
10, 19296, Note_on_c, 9, 42, 127
10, 19320, Note_off_c, 9, 35, 0
10, 19320, Note_on_c, 9, 35, 127
10, 19344, Note_off_c, 9, 42, 0
10, 19344, Note_on_c, 9, 42, 127
10, 19368, Note_off_c, 9, 35, 0
10, 19368, Note_on_c, 9, 35, 127
10, 19368, Note_on_c, 9, 38, 117
10, 19392, Note_off_c, 9, 42, 0
10, 19392, Note_on_c, 9, 42, 127
10, 19416, Note_off_c, 9, 35, 0
10, 19416, Note_off_c, 9, 38, 0
10, 19416, Note_on_c, 9, 35, 127
10, 19440, Note_off_c, 9, 42, 0
10, 19440, Note_on_c, 9, 38, 127
10, 19440, Note_on_c, 9, 42, 127
10, 19464, Note_off_c, 9, 35, 0
10, 19488, Note_off_c, 9, 38, 0
10, 19488, Note_off_c, 9, 42, 0
10, 19488, Note_on_c, 9, 42, 127
10, 19512, Note_on_c, 9, 35, 127
10, 19536, Note_off_c, 9, 42, 0
10, 19536, Note_on_c, 9, 42, 127
10, 19560, Note_off_c, 9, 35, 0
10, 19560, Note_on_c, 9, 35, 127
10, 19584, Note_off_c, 9, 42, 0
10, 19584, Note_on_c, 9, 42, 127
10, 19608, Note_off_c, 9, 35, 0
10, 19608, Note_on_c, 9, 35, 127
10, 19632, Note_off_c, 9, 42, 0
10, 19632, Note_on_c, 9, 42, 127
10, 19656, Note_off_c, 9, 35, 0
10, 19656, Note_on_c, 9, 35, 127
10, 19656, Note_on_c, 9, 38, 117
10, 19680, Note_off_c, 9, 42, 0
10, 19680, Note_on_c, 9, 42, 127
10, 19704, Note_off_c, 9, 35, 0
10, 19704, Note_off_c, 9, 38, 0
10, 19704, Note_on_c, 9, 35, 127
10, 19728, Note_off_c, 9, 42, 0
10, 19728, Note_on_c, 9, 38, 127
10, 19728, Note_on_c, 9, 42, 127
10, 19752, Note_off_c, 9, 35, 0
10, 19776, Note_off_c, 9, 38, 0
10, 19776, Note_off_c, 9, 42, 0
10, 19776, Note_on_c, 9, 42, 127
10, 19800, Note_on_c, 9, 35, 127
10, 19824, Note_off_c, 9, 42, 0
10, 19824, Note_on_c, 9, 46, 127
10, 19848, Note_off_c, 9, 35, 0
10, 19848, Note_on_c, 9, 35, 127
10, 19872, Note_off_c, 9, 46, 0
10, 19872, Note_on_c, 9, 46, 127
10, 19896, Note_off_c, 9, 35, 0
10, 19896, Note_on_c, 9, 35, 127
10, 19920, Note_off_c, 9, 46, 0
10, 19920, Note_on_c, 9, 38, 117
10, 19920, Note_on_c, 9, 46, 127
10, 19944, Note_off_c, 9, 35, 0
10, 19944, Note_on_c, 9, 35, 127
10, 19968, Note_off_c, 9, 38, 0
10, 19968, Note_off_c, 9, 46, 0
10, 19968, Note_on_c, 9, 38, 127
10, 19968, Note_on_c, 9, 42, 127
10, 19992, Note_off_c, 9, 35, 0
10, 19992, Note_on_c, 9, 35, 127
10, 19992, Note_on_c, 9, 38, 127
10, 20016, Note_off_c, 9, 38, 0
10, 20016, Note_off_c, 9, 42, 0
10, 20016, Note_on_c, 9, 42, 127
10, 20016, Note_on_c, 9, 43, 127
10, 20016, Note_on_c, 9, 49, 127
10, 20040, Note_off_c, 9, 35, 0
10, 20040, Note_off_c, 9, 38, 0
10, 20040, Note_on_c, 9, 45, 127
10, 20064, Note_off_c, 9, 42, 0
10, 20064, Note_off_c, 9, 43, 0
10, 20064, Note_off_c, 9, 49, 0
10, 20064, Note_on_c, 9, 38, 127
10, 20064, Note_on_c, 9, 42, 127
10, 20088, Note_off_c, 9, 45, 0
10, 20088, Note_on_c, 9, 35, 127
10, 20088, Note_on_c, 9, 41, 127
10, 20088, Note_on_c, 9, 45, 127
10, 20112, Note_off_c, 9, 38, 0
10, 20112, Note_off_c, 9, 42, 0
10, 20112, Note_on_c, 9, 42, 127
10, 20112, Note_on_c, 9, 43, 127
10, 20112, Note_on_c, 9, 45, 127
10, 20136, Note_off_c, 9, 35, 0
10, 20136, Note_off_c, 9, 41, 0
10, 20136, Note_off_c, 9, 45, 0
10, 20136, Note_on_c, 9, 35, 127
10, 20136, Note_on_c, 9, 41, 127
10, 20160, Note_off_c, 9, 42, 0
10, 20160, Note_off_c, 9, 43, 0
10, 20160, Note_off_c, 9, 45, 0
10, 20160, Note_on_c, 9, 42, 127
10, 20160, Note_on_c, 9, 49, 127
10, 20184, Note_off_c, 9, 35, 0
10, 20184, Note_off_c, 9, 41, 0
10, 20184, Note_on_c, 9, 35, 127
10, 20208, Note_off_c, 9, 42, 0
10, 20208, Note_off_c, 9, 49, 0
10, 20208, Note_on_c, 9, 42, 127
10, 20232, Note_off_c, 9, 35, 0
10, 20232, Note_on_c, 9, 35, 127
10, 20232, Note_on_c, 9, 38, 117
10, 20256, Note_off_c, 9, 42, 0
10, 20256, Note_on_c, 9, 42, 127
10, 20280, Note_off_c, 9, 35, 0
10, 20280, Note_off_c, 9, 38, 0
10, 20280, Note_on_c, 9, 35, 127
10, 20304, Note_off_c, 9, 42, 0
10, 20304, Note_on_c, 9, 38, 127
10, 20304, Note_on_c, 9, 42, 127
10, 20328, Note_off_c, 9, 35, 0
10, 20352, Note_off_c, 9, 38, 0
10, 20352, Note_off_c, 9, 42, 0
10, 20352, Note_on_c, 9, 42, 127
10, 20376, Note_on_c, 9, 35, 127
10, 20400, Note_off_c, 9, 42, 0
10, 20400, Note_on_c, 9, 42, 127
10, 20424, Note_off_c, 9, 35, 0
10, 20424, Note_on_c, 9, 35, 127
10, 20448, Note_off_c, 9, 42, 0
10, 20448, Note_on_c, 9, 42, 127
10, 20472, Note_off_c, 9, 35, 0
10, 20472, Note_on_c, 9, 35, 127
10, 20496, Note_off_c, 9, 42, 0
10, 20496, Note_on_c, 9, 42, 127
10, 20520, Note_off_c, 9, 35, 0
10, 20520, Note_on_c, 9, 35, 127
10, 20520, Note_on_c, 9, 38, 117
10, 20544, Note_off_c, 9, 42, 0
10, 20544, Note_on_c, 9, 42, 127
10, 20568, Note_off_c, 9, 35, 0
10, 20568, Note_off_c, 9, 38, 0
10, 20568, Note_on_c, 9, 35, 127
10, 20592, Note_off_c, 9, 42, 0
10, 20592, Note_on_c, 9, 38, 127
10, 20592, Note_on_c, 9, 42, 127
10, 20616, Note_off_c, 9, 35, 0
10, 20640, Note_off_c, 9, 38, 0
10, 20640, Note_off_c, 9, 42, 0
10, 20640, Note_on_c, 9, 42, 127
10, 20664, Note_on_c, 9, 35, 127
10, 20688, Note_off_c, 9, 42, 0
10, 20688, Note_on_c, 9, 42, 127
10, 20712, Note_off_c, 9, 35, 0
10, 20712, Note_on_c, 9, 35, 127
10, 20736, Note_off_c, 9, 42, 0
10, 20736, Note_on_c, 9, 46, 127
10, 20736, Note_on_c, 9, 49, 127
10, 20760, Note_off_c, 9, 35, 0
10, 20784, Note_off_c, 9, 46, 0
10, 20784, Note_off_c, 9, 49, 0
10, 21600, Note_on_c, 9, 42, 127
10, 21600, Note_on_c, 9, 49, 127
10, 21624, Note_on_c, 9, 35, 127
10, 21648, Note_off_c, 9, 42, 0
10, 21648, Note_off_c, 9, 49, 0
10, 21648, Note_on_c, 9, 42, 127
10, 21672, Note_off_c, 9, 35, 0
10, 21672, Note_on_c, 9, 35, 127
10, 21672, Note_on_c, 9, 38, 117
10, 21696, Note_off_c, 9, 42, 0
10, 21696, Note_on_c, 9, 42, 127
10, 21720, Note_off_c, 9, 35, 0
10, 21720, Note_off_c, 9, 38, 0
10, 21720, Note_on_c, 9, 35, 127
10, 21744, Note_off_c, 9, 42, 0
10, 21744, Note_on_c, 9, 38, 127
10, 21744, Note_on_c, 9, 42, 127
10, 21768, Note_off_c, 9, 35, 0
10, 21792, Note_off_c, 9, 38, 0
10, 21792, Note_off_c, 9, 42, 0
10, 21792, Note_on_c, 9, 42, 127
10, 21816, Note_on_c, 9, 35, 127
10, 21840, Note_off_c, 9, 42, 0
10, 21840, Note_on_c, 9, 42, 127
10, 21864, Note_off_c, 9, 35, 0
10, 21864, Note_on_c, 9, 35, 127
10, 21888, Note_off_c, 9, 42, 0
10, 21888, Note_on_c, 9, 42, 127
10, 21912, Note_off_c, 9, 35, 0
10, 21912, Note_on_c, 9, 35, 127
10, 21936, Note_off_c, 9, 42, 0
10, 21936, Note_on_c, 9, 42, 127
10, 21960, Note_off_c, 9, 35, 0
10, 21960, Note_on_c, 9, 35, 127
10, 21960, Note_on_c, 9, 38, 117
10, 21984, Note_off_c, 9, 42, 0
10, 21984, Note_on_c, 9, 42, 127
10, 22008, Note_off_c, 9, 35, 0
10, 22008, Note_off_c, 9, 38, 0
10, 22008, Note_on_c, 9, 35, 127
10, 22032, Note_off_c, 9, 42, 0
10, 22032, Note_on_c, 9, 38, 127
10, 22032, Note_on_c, 9, 42, 127
10, 22056, Note_off_c, 9, 35, 0
10, 22080, Note_off_c, 9, 38, 0
10, 22080, Note_off_c, 9, 42, 0
10, 22080, Note_on_c, 9, 42, 127
10, 22104, Note_on_c, 9, 35, 127
10, 22128, Note_off_c, 9, 42, 0
10, 22128, Note_on_c, 9, 42, 127
10, 22152, Note_off_c, 9, 35, 0
10, 22152, Note_on_c, 9, 35, 127
10, 22176, Note_off_c, 9, 42, 0
10, 22176, Note_on_c, 9, 42, 127
10, 22200, Note_off_c, 9, 35, 0
10, 22200, Note_on_c, 9, 35, 127
10, 22224, Note_off_c, 9, 42, 0
10, 22224, Note_on_c, 9, 42, 127
10, 22248, Note_off_c, 9, 35, 0
10, 22248, Note_on_c, 9, 35, 127
10, 22248, Note_on_c, 9, 38, 117
10, 22272, Note_off_c, 9, 42, 0
10, 22272, Note_on_c, 9, 42, 127
10, 22296, Note_off_c, 9, 35, 0
10, 22296, Note_off_c, 9, 38, 0
10, 22296, Note_on_c, 9, 35, 127
10, 22320, Note_off_c, 9, 42, 0
10, 22320, Note_on_c, 9, 38, 127
10, 22320, Note_on_c, 9, 42, 127
10, 22344, Note_off_c, 9, 35, 0
10, 22368, Note_off_c, 9, 38, 0
10, 22368, Note_off_c, 9, 42, 0
10, 22368, Note_on_c, 9, 42, 127
10, 22392, Note_on_c, 9, 35, 127
10, 22416, Note_off_c, 9, 42, 0
10, 22416, Note_on_c, 9, 42, 127
10, 22440, Note_off_c, 9, 35, 0
10, 22440, Note_on_c, 9, 35, 127
10, 22464, Note_off_c, 9, 42, 0
10, 22464, Note_on_c, 9, 42, 127
10, 22488, Note_off_c, 9, 35, 0
10, 22488, Note_on_c, 9, 35, 127
10, 22512, Note_off_c, 9, 42, 0
10, 22512, Note_on_c, 9, 42, 127
10, 22536, Note_off_c, 9, 35, 0
10, 22536, Note_on_c, 9, 35, 127
10, 22536, Note_on_c, 9, 38, 117
10, 22560, Note_off_c, 9, 42, 0
10, 22560, Note_on_c, 9, 42, 127
10, 22584, Note_off_c, 9, 35, 0
10, 22584, Note_off_c, 9, 38, 0
10, 22584, Note_on_c, 9, 35, 127
10, 22608, Note_off_c, 9, 42, 0
10, 22608, Note_on_c, 9, 38, 127
10, 22608, Note_on_c, 9, 42, 127
10, 22608, Note_on_c, 9, 49, 127
10, 22632, Note_off_c, 9, 35, 0
10, 22656, Note_off_c, 9, 38, 0
10, 22656, Note_off_c, 9, 42, 0
10, 22656, Note_off_c, 9, 49, 0
10, 22656, Note_on_c, 9, 38, 127
10, 22656, Note_on_c, 9, 42, 127
10, 22680, Note_on_c, 9, 35, 127
10, 22680, Note_on_c, 9, 45, 127
10, 22704, Note_off_c, 9, 38, 0
10, 22704, Note_off_c, 9, 42, 0
10, 22704, Note_on_c, 9, 42, 127
10, 22704, Note_on_c, 9, 43, 127
10, 22728, Note_off_c, 9, 35, 0
10, 22728, Note_off_c, 9, 45, 0
10, 22728, Note_on_c, 9, 35, 127
10, 22728, Note_on_c, 9, 41, 127
10, 22752, Note_off_c, 9, 42, 0
10, 22752, Note_off_c, 9, 43, 0
10, 22752, Note_on_c, 9, 42, 127
10, 22752, Note_on_c, 9, 49, 127
10, 22776, Note_off_c, 9, 35, 0
10, 22776, Note_off_c, 9, 41, 0
10, 22776, Note_on_c, 9, 35, 127
10, 22800, Note_off_c, 9, 42, 0
10, 22800, Note_off_c, 9, 49, 0
10, 22800, Note_on_c, 9, 42, 127
10, 22824, Note_off_c, 9, 35, 0
10, 22824, Note_on_c, 9, 35, 127
10, 22824, Note_on_c, 9, 38, 117
10, 22848, Note_off_c, 9, 42, 0
10, 22848, Note_on_c, 9, 42, 127
10, 22872, Note_off_c, 9, 35, 0
10, 22872, Note_off_c, 9, 38, 0
10, 22872, Note_on_c, 9, 35, 127
10, 22896, Note_off_c, 9, 42, 0
10, 22896, Note_on_c, 9, 38, 127
10, 22896, Note_on_c, 9, 42, 127
10, 22920, Note_off_c, 9, 35, 0
10, 22944, Note_off_c, 9, 38, 0
10, 22944, Note_off_c, 9, 42, 0
10, 22944, Note_on_c, 9, 42, 127
10, 22968, Note_on_c, 9, 35, 127
10, 22992, Note_off_c, 9, 42, 0
10, 22992, Note_on_c, 9, 42, 127
10, 23016, Note_off_c, 9, 35, 0
10, 23016, Note_on_c, 9, 35, 127
10, 23040, Note_off_c, 9, 42, 0
10, 23040, Note_on_c, 9, 42, 127
10, 23064, Note_off_c, 9, 35, 0
10, 23064, Note_on_c, 9, 35, 127
10, 23088, Note_off_c, 9, 42, 0
10, 23088, Note_on_c, 9, 42, 127
10, 23112, Note_off_c, 9, 35, 0
10, 23112, Note_on_c, 9, 35, 127
10, 23112, Note_on_c, 9, 38, 117
10, 23136, Note_off_c, 9, 42, 0
10, 23136, Note_on_c, 9, 42, 127
10, 23160, Note_off_c, 9, 35, 0
10, 23160, Note_off_c, 9, 38, 0
10, 23160, Note_on_c, 9, 35, 127
10, 23184, Note_off_c, 9, 42, 0
10, 23184, Note_on_c, 9, 38, 127
10, 23184, Note_on_c, 9, 42, 127
10, 23208, Note_off_c, 9, 35, 0
10, 23232, Note_off_c, 9, 38, 0
10, 23232, Note_off_c, 9, 42, 0
10, 23232, Note_on_c, 9, 42, 127
10, 23256, Note_on_c, 9, 35, 127
10, 23280, Note_off_c, 9, 42, 0
10, 23280, Note_on_c, 9, 42, 127
10, 23304, Note_off_c, 9, 35, 0
10, 23304, Note_on_c, 9, 35, 127
10, 23328, Note_off_c, 9, 42, 0
10, 23328, Note_on_c, 9, 42, 127
10, 23352, Note_off_c, 9, 35, 0
10, 23352, Note_on_c, 9, 35, 127
10, 23376, Note_off_c, 9, 42, 0
10, 23376, Note_on_c, 9, 42, 127
10, 23400, Note_off_c, 9, 35, 0
10, 23400, Note_on_c, 9, 35, 127
10, 23400, Note_on_c, 9, 38, 117
10, 23424, Note_off_c, 9, 42, 0
10, 23424, Note_on_c, 9, 42, 127
10, 23448, Note_off_c, 9, 35, 0
10, 23448, Note_off_c, 9, 38, 0
10, 23448, Note_on_c, 9, 35, 127
10, 23472, Note_off_c, 9, 42, 0
10, 23472, Note_on_c, 9, 38, 127
10, 23472, Note_on_c, 9, 42, 127
10, 23496, Note_off_c, 9, 35, 0
10, 23520, Note_off_c, 9, 38, 0
10, 23520, Note_off_c, 9, 42, 0
10, 23520, Note_on_c, 9, 42, 127
10, 23544, Note_on_c, 9, 35, 127
10, 23568, Note_off_c, 9, 42, 0
10, 23568, Note_on_c, 9, 42, 127
10, 23592, Note_off_c, 9, 35, 0
10, 23592, Note_on_c, 9, 35, 127
10, 23616, Note_off_c, 9, 42, 0
10, 23616, Note_on_c, 9, 42, 127
10, 23640, Note_off_c, 9, 35, 0
10, 23640, Note_on_c, 9, 35, 127
10, 23664, Note_off_c, 9, 42, 0
10, 23664, Note_on_c, 9, 42, 127
10, 23688, Note_off_c, 9, 35, 0
10, 23688, Note_on_c, 9, 35, 127
10, 23688, Note_on_c, 9, 38, 117
10, 23712, Note_off_c, 9, 42, 0
10, 23712, Note_on_c, 9, 42, 127
10, 23736, Note_off_c, 9, 35, 0
10, 23736, Note_off_c, 9, 38, 0
10, 23736, Note_on_c, 9, 35, 127
10, 23760, Note_off_c, 9, 42, 0
10, 23760, Note_on_c, 9, 38, 127
10, 23760, Note_on_c, 9, 42, 127
10, 23760, Note_on_c, 9, 49, 127
10, 23784, Note_off_c, 9, 35, 0
10, 23808, Note_off_c, 9, 38, 0
10, 23808, Note_off_c, 9, 42, 0
10, 23808, Note_off_c, 9, 49, 0
10, 23808, Note_on_c, 9, 38, 127
10, 23808, Note_on_c, 9, 42, 127
10, 23832, Note_on_c, 9, 35, 127
10, 23832, Note_on_c, 9, 45, 127
10, 23856, Note_off_c, 9, 38, 0
10, 23856, Note_off_c, 9, 42, 0
10, 23856, Note_on_c, 9, 42, 127
10, 23856, Note_on_c, 9, 43, 127
10, 23880, Note_off_c, 9, 35, 0
10, 23880, Note_off_c, 9, 45, 0
10, 23880, Note_on_c, 9, 35, 127
10, 23880, Note_on_c, 9, 41, 127
10, 23904, Note_off_c, 9, 42, 0
10, 23904, Note_off_c, 9, 43, 0
10, 23904, Note_on_c, 9, 46, 127
10, 23928, Note_off_c, 9, 35, 0
10, 23928, Note_off_c, 9, 41, 0
10, 23952, Note_off_c, 9, 46, 0
10, 23952, Note_on_c, 9, 46, 127
10, 24000, Note_off_c, 9, 46, 0
10, 24000, Note_on_c, 9, 46, 127
10, 24048, Note_off_c, 9, 46, 0
10, 24048, Note_on_c, 9, 46, 127
10, 24096, Note_off_c, 9, 46, 0
10, 24096, Note_on_c, 9, 46, 127
10, 24144, Note_off_c, 9, 46, 0
10, 24144, Note_on_c, 9, 46, 127
10, 24192, Note_off_c, 9, 46, 0
10, 24192, Note_on_c, 9, 46, 127
10, 24240, Note_off_c, 9, 46, 0
10, 24240, Note_on_c, 9, 46, 127
10, 24288, Note_off_c, 9, 46, 0
10, 24288, Note_on_c, 9, 46, 127
10, 24336, Note_off_c, 9, 46, 0
10, 24336, Note_on_c, 9, 46, 127
10, 24384, Note_off_c, 9, 46, 0
10, 24384, Note_on_c, 9, 46, 127
10, 24432, Note_off_c, 9, 46, 0
10, 24432, Note_on_c, 9, 38, 127
10, 24432, Note_on_c, 9, 46, 127
10, 24480, Note_off_c, 9, 38, 0
10, 24480, Note_off_c, 9, 46, 0
10, 24480, Note_on_c, 9, 35, 127
10, 24480, Note_on_c, 9, 49, 127
10, 24480, Note_on_c, 9, 51, 127
10, 24528, Note_off_c, 9, 35, 0
10, 24528, Note_off_c, 9, 49, 0
10, 24528, Note_off_c, 9, 51, 0
10, 24528, Note_on_c, 9, 51, 127
10, 24576, Note_off_c, 9, 51, 0
10, 24576, Note_on_c, 9, 35, 127
10, 24576, Note_on_c, 9, 51, 127
10, 24624, Note_off_c, 9, 35, 0
10, 24624, Note_off_c, 9, 51, 0
10, 24624, Note_on_c, 9, 38, 127
10, 24624, Note_on_c, 9, 51, 127
10, 24672, Note_off_c, 9, 38, 0
10, 24672, Note_off_c, 9, 51, 0
10, 24672, Note_on_c, 9, 38, 127
10, 24672, Note_on_c, 9, 51, 127
10, 24684, Note_on_c, 9, 38, 87
10, 24696, Note_on_c, 9, 38, 87
10, 24708, Note_on_c, 9, 38, 97
10, 24720, Note_off_c, 9, 38, 0
10, 24720, Note_off_c, 9, 51, 0
10, 24720, Note_on_c, 9, 38, 127
10, 24720, Note_on_c, 9, 51, 127
10, 24732, Note_off_c, 9, 38, 0
10, 24732, Note_on_c, 9, 38, 97
10, 24744, Note_off_c, 9, 38, 0
10, 24744, Note_on_c, 9, 38, 87
10, 24756, Note_off_c, 9, 38, 0
10, 24756, Note_on_c, 9, 38, 87
10, 24768, Note_off_c, 9, 38, 0
10, 24768, Note_off_c, 9, 51, 0
10, 24768, Note_on_c, 9, 35, 127
10, 24768, Note_on_c, 9, 49, 127
10, 24768, Note_on_c, 9, 51, 127
10, 24780, Note_off_c, 9, 38, 0
10, 24792, Note_off_c, 9, 38, 0
10, 24804, Note_off_c, 9, 38, 0
10, 24816, Note_off_c, 9, 35, 0
10, 24816, Note_off_c, 9, 49, 0
10, 24816, Note_off_c, 9, 51, 0
10, 24816, Note_on_c, 9, 51, 127
10, 24840, Note_on_c, 9, 35, 127
10, 24864, Note_off_c, 9, 51, 0
10, 24864, Note_on_c, 9, 51, 127
10, 24888, Note_off_c, 9, 35, 0
10, 24888, Note_on_c, 9, 35, 127
10, 24912, Note_off_c, 9, 51, 0
10, 24912, Note_on_c, 9, 38, 127
10, 24912, Note_on_c, 9, 51, 127
10, 24936, Note_off_c, 9, 35, 0
10, 24936, Note_on_c, 9, 38, 97
10, 24948, Note_on_c, 9, 38, 97
10, 24960, Note_off_c, 9, 38, 0
10, 24960, Note_off_c, 9, 51, 0
10, 24960, Note_on_c, 9, 38, 127
10, 24960, Note_on_c, 9, 51, 127
10, 24984, Note_off_c, 9, 38, 0
10, 24984, Note_on_c, 9, 47, 127
10, 24996, Note_off_c, 9, 38, 0
10, 25008, Note_off_c, 9, 38, 0
10, 25008, Note_off_c, 9, 51, 0
10, 25008, Note_on_c, 9, 43, 127
10, 25008, Note_on_c, 9, 51, 127
10, 25032, Note_off_c, 9, 47, 0
10, 25032, Note_on_c, 9, 43, 127
10, 25056, Note_off_c, 9, 43, 0
10, 25056, Note_off_c, 9, 51, 0
10, 25056, Note_on_c, 9, 46, 127
10, 25056, Note_on_c, 9, 49, 127
10, 25056, Note_on_c, 9, 57, 127
10, 25080, Note_off_c, 9, 43, 0
10, 25104, Note_off_c, 9, 46, 0
10, 25104, Note_off_c, 9, 49, 0
10, 25104, Note_off_c, 9, 57, 0
10, 25104, Note_on_c, 9, 46, 127
10, 25152, Note_off_c, 9, 46, 0
10, 25152, Note_on_c, 9, 46, 127
10, 25200, Note_off_c, 9, 46, 0
10, 25200, Note_on_c, 9, 46, 127
10, 25248, Note_off_c, 9, 46, 0
10, 25248, Note_on_c, 9, 46, 127
10, 25296, Note_off_c, 9, 46, 0
10, 25296, Note_on_c, 9, 46, 127
10, 25344, Note_off_c, 9, 46, 0
10, 25344, Note_on_c, 9, 46, 127
10, 25392, Note_off_c, 9, 46, 0
10, 25392, Note_on_c, 9, 46, 127
10, 25440, Note_off_c, 9, 46, 0
10, 25440, Note_on_c, 9, 46, 127
10, 25488, Note_off_c, 9, 46, 0
10, 25488, Note_on_c, 9, 38, 127
10, 25488, Note_on_c, 9, 46, 127
10, 25512, Note_on_c, 9, 38, 127
10, 25536, Note_off_c, 9, 38, 0
10, 25536, Note_off_c, 9, 46, 0
10, 25536, Note_on_c, 9, 43, 127
10, 25536, Note_on_c, 9, 46, 127
10, 25560, Note_off_c, 9, 38, 0
10, 25560, Note_on_c, 9, 43, 127
10, 25584, Note_off_c, 9, 43, 0
10, 25584, Note_off_c, 9, 46, 0
10, 25584, Note_on_c, 9, 41, 127
10, 25584, Note_on_c, 9, 46, 127
10, 25608, Note_off_c, 9, 43, 0
10, 25608, Note_on_c, 9, 41, 127
10, 25632, Note_off_c, 9, 41, 0
10, 25632, Note_off_c, 9, 46, 0
10, 25632, Note_on_c, 9, 35, 127
10, 25632, Note_on_c, 9, 49, 127
10, 25632, Note_on_c, 9, 51, 127
10, 25656, Note_off_c, 9, 41, 0
10, 25680, Note_off_c, 9, 35, 0
10, 25680, Note_off_c, 9, 49, 0
10, 25680, Note_off_c, 9, 51, 0
10, 25680, Note_on_c, 9, 51, 127
10, 25728, Note_off_c, 9, 51, 0
10, 25728, Note_on_c, 9, 35, 127
10, 25728, Note_on_c, 9, 51, 127
10, 25776, Note_off_c, 9, 35, 0
10, 25776, Note_off_c, 9, 51, 0
10, 25776, Note_on_c, 9, 38, 127
10, 25776, Note_on_c, 9, 51, 127
10, 25824, Note_off_c, 9, 38, 0
10, 25824, Note_off_c, 9, 51, 0
10, 25824, Note_on_c, 9, 38, 127
10, 25824, Note_on_c, 9, 51, 127
10, 25836, Note_on_c, 9, 38, 87
10, 25848, Note_on_c, 9, 38, 87
10, 25860, Note_on_c, 9, 38, 97
10, 25872, Note_off_c, 9, 38, 0
10, 25872, Note_off_c, 9, 51, 0
10, 25872, Note_on_c, 9, 38, 127
10, 25872, Note_on_c, 9, 51, 127
10, 25884, Note_off_c, 9, 38, 0
10, 25884, Note_on_c, 9, 38, 97
10, 25896, Note_off_c, 9, 38, 0
10, 25896, Note_on_c, 9, 38, 87
10, 25908, Note_off_c, 9, 38, 0
10, 25908, Note_on_c, 9, 38, 87
10, 25920, Note_off_c, 9, 38, 0
10, 25920, Note_off_c, 9, 51, 0
10, 25920, Note_on_c, 9, 35, 127
10, 25920, Note_on_c, 9, 49, 127
10, 25920, Note_on_c, 9, 51, 127
10, 25932, Note_off_c, 9, 38, 0
10, 25944, Note_off_c, 9, 38, 0
10, 25956, Note_off_c, 9, 38, 0
10, 25968, Note_off_c, 9, 35, 0
10, 25968, Note_off_c, 9, 49, 0
10, 25968, Note_off_c, 9, 51, 0
10, 25968, Note_on_c, 9, 51, 127
10, 25992, Note_on_c, 9, 35, 127
10, 26016, Note_off_c, 9, 51, 0
10, 26016, Note_on_c, 9, 51, 127
10, 26040, Note_off_c, 9, 35, 0
10, 26040, Note_on_c, 9, 35, 127
10, 26064, Note_off_c, 9, 51, 0
10, 26064, Note_on_c, 9, 38, 127
10, 26064, Note_on_c, 9, 51, 127
10, 26088, Note_off_c, 9, 35, 0
10, 26088, Note_on_c, 9, 38, 97
10, 26100, Note_on_c, 9, 38, 97
10, 26112, Note_off_c, 9, 38, 0
10, 26112, Note_off_c, 9, 51, 0
10, 26112, Note_on_c, 9, 38, 127
10, 26112, Note_on_c, 9, 51, 127
10, 26136, Note_off_c, 9, 38, 0
10, 26136, Note_on_c, 9, 47, 127
10, 26148, Note_off_c, 9, 38, 0
10, 26160, Note_off_c, 9, 38, 0
10, 26160, Note_off_c, 9, 51, 0
10, 26160, Note_on_c, 9, 43, 127
10, 26160, Note_on_c, 9, 51, 127
10, 26184, Note_off_c, 9, 47, 0
10, 26184, Note_on_c, 9, 43, 127
10, 26208, Note_off_c, 9, 43, 0
10, 26208, Note_off_c, 9, 51, 0
10, 26208, Note_on_c, 9, 46, 127
10, 26208, Note_on_c, 9, 49, 127
10, 26208, Note_on_c, 9, 57, 127
10, 26232, Note_off_c, 9, 43, 0
10, 26256, Note_off_c, 9, 46, 0
10, 26256, Note_off_c, 9, 49, 0
10, 26256, Note_off_c, 9, 57, 0
10, 26256, Note_on_c, 9, 46, 127
10, 26304, Note_off_c, 9, 46, 0
10, 26304, Note_on_c, 9, 46, 127
10, 26352, Note_off_c, 9, 46, 0
10, 26352, Note_on_c, 9, 46, 127
10, 26400, Note_off_c, 9, 46, 0
10, 26400, Note_on_c, 9, 46, 127
10, 26448, Note_off_c, 9, 46, 0
10, 26448, Note_on_c, 9, 46, 127
10, 26496, Note_off_c, 9, 46, 0
10, 26496, Note_on_c, 9, 46, 127
10, 26544, Note_off_c, 9, 46, 0
10, 26544, Note_on_c, 9, 46, 127
10, 26592, Note_off_c, 9, 46, 0
10, 26592, Note_on_c, 9, 46, 127
10, 26640, Note_off_c, 9, 46, 0
10, 26640, Note_on_c, 9, 38, 127
10, 26640, Note_on_c, 9, 46, 127
10, 26664, Note_on_c, 9, 38, 127
10, 26688, Note_off_c, 9, 38, 0
10, 26688, Note_off_c, 9, 46, 0
10, 26688, Note_on_c, 9, 43, 127
10, 26688, Note_on_c, 9, 46, 127
10, 26712, Note_off_c, 9, 38, 0
10, 26712, Note_on_c, 9, 43, 127
10, 26736, Note_off_c, 9, 43, 0
10, 26736, Note_off_c, 9, 46, 0
10, 26736, Note_on_c, 9, 41, 127
10, 26736, Note_on_c, 9, 46, 127
10, 26760, Note_off_c, 9, 43, 0
10, 26760, Note_on_c, 9, 41, 127
10, 26784, Note_off_c, 9, 41, 0
10, 26784, Note_off_c, 9, 46, 0
10, 26784, Note_on_c, 9, 35, 127
10, 26784, Note_on_c, 9, 49, 127
10, 26784, Note_on_c, 9, 51, 127
10, 26808, Note_off_c, 9, 41, 0
10, 26832, Note_off_c, 9, 35, 0
10, 26832, Note_off_c, 9, 49, 0
10, 26832, Note_off_c, 9, 51, 0
10, 26832, Note_on_c, 9, 51, 127
10, 26880, Note_off_c, 9, 51, 0
10, 26880, Note_on_c, 9, 35, 127
10, 26880, Note_on_c, 9, 51, 127
10, 26928, Note_off_c, 9, 35, 0
10, 26928, Note_off_c, 9, 51, 0
10, 26928, Note_on_c, 9, 38, 127
10, 26928, Note_on_c, 9, 51, 127
10, 26976, Note_off_c, 9, 38, 0
10, 26976, Note_off_c, 9, 51, 0
10, 26976, Note_on_c, 9, 38, 127
10, 26976, Note_on_c, 9, 51, 127
10, 26988, Note_on_c, 9, 38, 87
10, 27000, Note_on_c, 9, 38, 87
10, 27012, Note_on_c, 9, 38, 97
10, 27024, Note_off_c, 9, 38, 0
10, 27024, Note_off_c, 9, 51, 0
10, 27024, Note_on_c, 9, 38, 127
10, 27024, Note_on_c, 9, 51, 127
10, 27036, Note_off_c, 9, 38, 0
10, 27036, Note_on_c, 9, 38, 97
10, 27048, Note_off_c, 9, 38, 0
10, 27048, Note_on_c, 9, 38, 87
10, 27060, Note_off_c, 9, 38, 0
10, 27060, Note_on_c, 9, 38, 87
10, 27072, Note_off_c, 9, 38, 0
10, 27072, Note_off_c, 9, 51, 0
10, 27072, Note_on_c, 9, 35, 127
10, 27072, Note_on_c, 9, 49, 127
10, 27072, Note_on_c, 9, 51, 127
10, 27084, Note_off_c, 9, 38, 0
10, 27096, Note_off_c, 9, 38, 0
10, 27108, Note_off_c, 9, 38, 0
10, 27120, Note_off_c, 9, 35, 0
10, 27120, Note_off_c, 9, 49, 0
10, 27120, Note_off_c, 9, 51, 0
10, 27120, Note_on_c, 9, 51, 127
10, 27144, Note_on_c, 9, 35, 127
10, 27168, Note_off_c, 9, 51, 0
10, 27168, Note_on_c, 9, 51, 127
10, 27192, Note_off_c, 9, 35, 0
10, 27192, Note_on_c, 9, 35, 127
10, 27216, Note_off_c, 9, 51, 0
10, 27216, Note_on_c, 9, 38, 127
10, 27216, Note_on_c, 9, 51, 127
10, 27240, Note_off_c, 9, 35, 0
10, 27240, Note_on_c, 9, 38, 97
10, 27252, Note_on_c, 9, 38, 97
10, 27264, Note_off_c, 9, 38, 0
10, 27264, Note_off_c, 9, 51, 0
10, 27264, Note_on_c, 9, 38, 127
10, 27264, Note_on_c, 9, 51, 127
10, 27288, Note_off_c, 9, 38, 0
10, 27288, Note_on_c, 9, 47, 127
10, 27300, Note_off_c, 9, 38, 0
10, 27312, Note_off_c, 9, 38, 0
10, 27312, Note_off_c, 9, 51, 0
10, 27312, Note_on_c, 9, 43, 127
10, 27312, Note_on_c, 9, 51, 127
10, 27336, Note_off_c, 9, 47, 0
10, 27336, Note_on_c, 9, 43, 127
10, 27360, Note_off_c, 9, 43, 0
10, 27360, Note_off_c, 9, 51, 0
10, 27360, Note_on_c, 9, 46, 127
10, 27360, Note_on_c, 9, 49, 127
10, 27360, Note_on_c, 9, 57, 127
10, 27384, Note_off_c, 9, 43, 0
10, 27408, Note_off_c, 9, 46, 0
10, 27408, Note_off_c, 9, 49, 0
10, 27408, Note_off_c, 9, 57, 0
10, 27408, Note_on_c, 9, 46, 127
10, 27456, Note_off_c, 9, 46, 0
10, 27456, Note_on_c, 9, 46, 127
10, 27504, Note_off_c, 9, 46, 0
10, 27504, Note_on_c, 9, 46, 127
10, 27552, Note_off_c, 9, 46, 0
10, 27552, Note_on_c, 9, 46, 127
10, 27600, Note_off_c, 9, 46, 0
10, 27600, Note_on_c, 9, 46, 127
10, 27648, Note_off_c, 9, 46, 0
10, 27648, Note_on_c, 9, 46, 127
10, 27696, Note_off_c, 9, 46, 0
10, 27696, Note_on_c, 9, 46, 127
10, 27744, Note_off_c, 9, 46, 0
10, 27744, Note_on_c, 9, 46, 127
10, 27792, Note_off_c, 9, 46, 0
10, 27792, Note_on_c, 9, 38, 127
10, 27792, Note_on_c, 9, 46, 127
10, 27816, Note_on_c, 9, 38, 127
10, 27840, Note_off_c, 9, 38, 0
10, 27840, Note_off_c, 9, 46, 0
10, 27840, Note_on_c, 9, 43, 127
10, 27840, Note_on_c, 9, 46, 127
10, 27864, Note_off_c, 9, 38, 0
10, 27864, Note_on_c, 9, 43, 127
10, 27888, Note_off_c, 9, 43, 0
10, 27888, Note_off_c, 9, 46, 0
10, 27888, Note_on_c, 9, 41, 127
10, 27888, Note_on_c, 9, 46, 127
10, 27912, Note_off_c, 9, 43, 0
10, 27912, Note_on_c, 9, 41, 127
10, 27936, Note_off_c, 9, 41, 0
10, 27936, Note_off_c, 9, 46, 0
10, 27936, Note_on_c, 9, 42, 127
10, 27936, Note_on_c, 9, 49, 127
10, 27960, Note_off_c, 9, 41, 0
10, 27960, Note_on_c, 9, 35, 127
10, 27984, Note_off_c, 9, 42, 0
10, 27984, Note_off_c, 9, 49, 0
10, 27984, Note_on_c, 9, 42, 127
10, 28008, Note_off_c, 9, 35, 0
10, 28008, Note_on_c, 9, 35, 127
10, 28008, Note_on_c, 9, 38, 117
10, 28032, Note_off_c, 9, 42, 0
10, 28032, Note_on_c, 9, 42, 127
10, 28056, Note_off_c, 9, 35, 0
10, 28056, Note_off_c, 9, 38, 0
10, 28056, Note_on_c, 9, 35, 127
10, 28080, Note_off_c, 9, 42, 0
10, 28080, Note_on_c, 9, 38, 127
10, 28080, Note_on_c, 9, 42, 127
10, 28104, Note_off_c, 9, 35, 0
10, 28128, Note_off_c, 9, 38, 0
10, 28128, Note_off_c, 9, 42, 0
10, 28128, Note_on_c, 9, 42, 127
10, 28152, Note_on_c, 9, 35, 127
10, 28176, Note_off_c, 9, 42, 0
10, 28176, Note_on_c, 9, 42, 127
10, 28200, Note_off_c, 9, 35, 0
10, 28200, Note_on_c, 9, 35, 127
10, 28224, Note_off_c, 9, 42, 0
10, 28224, Note_on_c, 9, 42, 127
10, 28248, Note_off_c, 9, 35, 0
10, 28248, Note_on_c, 9, 35, 127
10, 28272, Note_off_c, 9, 42, 0
10, 28272, Note_on_c, 9, 42, 127
10, 28296, Note_off_c, 9, 35, 0
10, 28296, Note_on_c, 9, 35, 127
10, 28296, Note_on_c, 9, 38, 117
10, 28320, Note_off_c, 9, 42, 0
10, 28320, Note_on_c, 9, 42, 127
10, 28344, Note_off_c, 9, 35, 0
10, 28344, Note_off_c, 9, 38, 0
10, 28344, Note_on_c, 9, 35, 127
10, 28368, Note_off_c, 9, 42, 0
10, 28368, Note_on_c, 9, 38, 127
10, 28368, Note_on_c, 9, 42, 127
10, 28392, Note_off_c, 9, 35, 0
10, 28416, Note_off_c, 9, 38, 0
10, 28416, Note_off_c, 9, 42, 0
10, 28416, Note_on_c, 9, 42, 127
10, 28440, Note_on_c, 9, 35, 127
10, 28464, Note_off_c, 9, 42, 0
10, 28464, Note_on_c, 9, 42, 127
10, 28488, Note_off_c, 9, 35, 0
10, 28488, Note_on_c, 9, 35, 127
10, 28512, Note_off_c, 9, 42, 0
10, 28512, Note_on_c, 9, 42, 127
10, 28536, Note_off_c, 9, 35, 0
10, 28536, Note_on_c, 9, 35, 127
10, 28560, Note_off_c, 9, 42, 0
10, 28560, Note_on_c, 9, 42, 127
10, 28584, Note_off_c, 9, 35, 0
10, 28584, Note_on_c, 9, 35, 127
10, 28584, Note_on_c, 9, 38, 117
10, 28608, Note_off_c, 9, 42, 0
10, 28608, Note_on_c, 9, 42, 127
10, 28632, Note_off_c, 9, 35, 0
10, 28632, Note_off_c, 9, 38, 0
10, 28632, Note_on_c, 9, 35, 127
10, 28656, Note_off_c, 9, 42, 0
10, 28656, Note_on_c, 9, 38, 127
10, 28656, Note_on_c, 9, 42, 127
10, 28680, Note_off_c, 9, 35, 0
10, 28704, Note_off_c, 9, 38, 0
10, 28704, Note_off_c, 9, 42, 0
10, 28704, Note_on_c, 9, 42, 127
10, 28728, Note_on_c, 9, 35, 127
10, 28752, Note_off_c, 9, 42, 0
10, 28752, Note_on_c, 9, 42, 127
10, 28776, Note_off_c, 9, 35, 0
10, 28776, Note_on_c, 9, 35, 127
10, 28800, Note_off_c, 9, 42, 0
10, 28800, Note_on_c, 9, 42, 127
10, 28824, Note_off_c, 9, 35, 0
10, 28824, Note_on_c, 9, 35, 127
10, 28848, Note_off_c, 9, 42, 0
10, 28848, Note_on_c, 9, 42, 127
10, 28872, Note_off_c, 9, 35, 0
10, 28872, Note_on_c, 9, 35, 127
10, 28872, Note_on_c, 9, 38, 117
10, 28896, Note_off_c, 9, 42, 0
10, 28896, Note_on_c, 9, 42, 127
10, 28920, Note_off_c, 9, 35, 0
10, 28920, Note_off_c, 9, 38, 0
10, 28920, Note_on_c, 9, 35, 127
10, 28944, Note_off_c, 9, 42, 0
10, 28944, Note_on_c, 9, 38, 127
10, 28944, Note_on_c, 9, 42, 127
10, 28944, Note_on_c, 9, 49, 127
10, 28968, Note_off_c, 9, 35, 0
10, 28992, Note_off_c, 9, 38, 0
10, 28992, Note_off_c, 9, 42, 0
10, 28992, Note_off_c, 9, 49, 0
10, 28992, Note_on_c, 9, 38, 127
10, 28992, Note_on_c, 9, 42, 127
10, 29016, Note_on_c, 9, 35, 127
10, 29016, Note_on_c, 9, 45, 127
10, 29040, Note_off_c, 9, 38, 0
10, 29040, Note_off_c, 9, 42, 0
10, 29040, Note_on_c, 9, 42, 127
10, 29040, Note_on_c, 9, 43, 127
10, 29064, Note_off_c, 9, 35, 0
10, 29064, Note_off_c, 9, 45, 0
10, 29064, Note_on_c, 9, 35, 127
10, 29064, Note_on_c, 9, 41, 127
10, 29088, Note_off_c, 9, 42, 0
10, 29088, Note_off_c, 9, 43, 0
10, 29088, Note_on_c, 9, 42, 127
10, 29088, Note_on_c, 9, 49, 127
10, 29112, Note_off_c, 9, 35, 0
10, 29112, Note_off_c, 9, 41, 0
10, 29112, Note_on_c, 9, 35, 127
10, 29136, Note_off_c, 9, 42, 0
10, 29136, Note_off_c, 9, 49, 0
10, 29136, Note_on_c, 9, 42, 127
10, 29160, Note_off_c, 9, 35, 0
10, 29160, Note_on_c, 9, 35, 127
10, 29160, Note_on_c, 9, 38, 117
10, 29184, Note_off_c, 9, 42, 0
10, 29184, Note_on_c, 9, 42, 127
10, 29208, Note_off_c, 9, 35, 0
10, 29208, Note_off_c, 9, 38, 0
10, 29208, Note_on_c, 9, 35, 127
10, 29232, Note_off_c, 9, 42, 0
10, 29232, Note_on_c, 9, 38, 127
10, 29232, Note_on_c, 9, 42, 127
10, 29256, Note_off_c, 9, 35, 0
10, 29280, Note_off_c, 9, 38, 0
10, 29280, Note_off_c, 9, 42, 0
10, 29280, Note_on_c, 9, 42, 127
10, 29304, Note_on_c, 9, 35, 127
10, 29328, Note_off_c, 9, 42, 0
10, 29328, Note_on_c, 9, 42, 127
10, 29352, Note_off_c, 9, 35, 0
10, 29352, Note_on_c, 9, 35, 127
10, 29376, Note_off_c, 9, 42, 0
10, 29376, Note_on_c, 9, 42, 127
10, 29400, Note_off_c, 9, 35, 0
10, 29400, Note_on_c, 9, 35, 127
10, 29424, Note_off_c, 9, 42, 0
10, 29424, Note_on_c, 9, 42, 127
10, 29448, Note_off_c, 9, 35, 0
10, 29448, Note_on_c, 9, 35, 127
10, 29448, Note_on_c, 9, 38, 117
10, 29472, Note_off_c, 9, 42, 0
10, 29472, Note_on_c, 9, 42, 127
10, 29496, Note_off_c, 9, 35, 0
10, 29496, Note_off_c, 9, 38, 0
10, 29496, Note_on_c, 9, 35, 127
10, 29520, Note_off_c, 9, 42, 0
10, 29520, Note_on_c, 9, 38, 127
10, 29520, Note_on_c, 9, 42, 127
10, 29544, Note_off_c, 9, 35, 0
10, 29568, Note_off_c, 9, 38, 0
10, 29568, Note_off_c, 9, 42, 0
10, 29568, Note_on_c, 9, 42, 127
10, 29592, Note_on_c, 9, 35, 127
10, 29616, Note_off_c, 9, 42, 0
10, 29616, Note_on_c, 9, 42, 127
10, 29640, Note_off_c, 9, 35, 0
10, 29640, Note_on_c, 9, 35, 127
10, 29664, Note_off_c, 9, 42, 0
10, 29664, Note_on_c, 9, 42, 127
10, 29688, Note_off_c, 9, 35, 0
10, 29688, Note_on_c, 9, 35, 127
10, 29712, Note_off_c, 9, 42, 0
10, 29712, Note_on_c, 9, 42, 127
10, 29736, Note_off_c, 9, 35, 0
10, 29736, Note_on_c, 9, 35, 127
10, 29736, Note_on_c, 9, 38, 117
10, 29760, Note_off_c, 9, 42, 0
10, 29760, Note_on_c, 9, 42, 127
10, 29784, Note_off_c, 9, 35, 0
10, 29784, Note_off_c, 9, 38, 0
10, 29784, Note_on_c, 9, 35, 127
10, 29808, Note_off_c, 9, 42, 0
10, 29808, Note_on_c, 9, 38, 127
10, 29808, Note_on_c, 9, 42, 127
10, 29832, Note_off_c, 9, 35, 0
10, 29856, Note_off_c, 9, 38, 0
10, 29856, Note_off_c, 9, 42, 0
10, 29856, Note_on_c, 9, 42, 127
10, 29880, Note_on_c, 9, 35, 127
10, 29904, Note_off_c, 9, 42, 0
10, 29904, Note_on_c, 9, 42, 127
10, 29928, Note_off_c, 9, 35, 0
10, 29928, Note_on_c, 9, 35, 127
10, 29952, Note_off_c, 9, 42, 0
10, 29952, Note_on_c, 9, 42, 127
10, 29976, Note_off_c, 9, 35, 0
10, 29976, Note_on_c, 9, 35, 127
10, 30000, Note_off_c, 9, 42, 0
10, 30000, Note_on_c, 9, 42, 127
10, 30024, Note_off_c, 9, 35, 0
10, 30024, Note_on_c, 9, 35, 127
10, 30024, Note_on_c, 9, 38, 117
10, 30048, Note_off_c, 9, 42, 0
10, 30048, Note_on_c, 9, 42, 127
10, 30072, Note_off_c, 9, 35, 0
10, 30072, Note_off_c, 9, 38, 0
10, 30072, Note_on_c, 9, 35, 127
10, 30096, Note_off_c, 9, 42, 0
10, 30096, Note_on_c, 9, 38, 127
10, 30096, Note_on_c, 9, 42, 127
10, 30096, Note_on_c, 9, 49, 127
10, 30120, Note_off_c, 9, 35, 0
10, 30144, Note_off_c, 9, 38, 0
10, 30144, Note_off_c, 9, 42, 0
10, 30144, Note_off_c, 9, 49, 0
10, 30144, Note_on_c, 9, 38, 127
10, 30144, Note_on_c, 9, 42, 127
10, 30168, Note_on_c, 9, 35, 127
10, 30168, Note_on_c, 9, 45, 127
10, 30192, Note_off_c, 9, 38, 0
10, 30192, Note_off_c, 9, 42, 0
10, 30192, Note_on_c, 9, 42, 127
10, 30192, Note_on_c, 9, 43, 127
10, 30216, Note_off_c, 9, 35, 0
10, 30216, Note_off_c, 9, 45, 0
10, 30216, Note_on_c, 9, 35, 127
10, 30216, Note_on_c, 9, 41, 127
10, 30240, Note_off_c, 9, 42, 0
10, 30240, Note_off_c, 9, 43, 0
10, 30264, Note_off_c, 9, 35, 0
10, 30264, Note_off_c, 9, 41, 0
10, 30264, End_track
11, 0, Start_track
11, 0, Title_t, "Track 11\000"
11, 0, Program_c, 10, 11
11, 0, Control_c, 10, 7, 77
11, 0, Control_c, 10, 10, 85
11, 0, Control_c, 10, 91, 127
11, 0, Control_c, 10, 93, 125
11, 13248, Note_on_c, 10, 89, 100
11, 13251, Control_c, 10, 1, 76
11, 13252, Control_c, 10, 10, 116
11, 13269, Control_c, 10, 10, 5
11, 13272, Note_on_c, 10, 86, 100
11, 13536, Note_off_c, 10, 89, 0
11, 13536, Note_off_c, 10, 86, 0
11, 13536, Note_on_c, 10, 88, 100
11, 13537, Control_c, 10, 10, 124
11, 13555, Control_c, 10, 10, 2
11, 13560, Note_on_c, 10, 86, 100
11, 13578, Control_c, 10, 10, 124
11, 13579, Control_c, 10, 10, 124
11, 13584, Note_on_c, 10, 83, 100
11, 13600, Control_c, 10, 10, 5
11, 13608, Note_on_c, 10, 79, 100
11, 13626, Control_c, 10, 10, 121
11, 13632, Note_on_c, 10, 76, 100
11, 13644, Control_c, 10, 10, 2
11, 13680, Note_off_c, 10, 88, 0
11, 13704, Note_off_c, 10, 86, 0
11, 13728, Note_off_c, 10, 83, 0
11, 13776, Note_off_c, 10, 79, 0
11, 13824, Note_off_c, 10, 76, 0
11, 13824, Note_on_c, 10, 87, 100
11, 13827, Control_c, 10, 10, 124
11, 13848, Note_on_c, 10, 84, 100
11, 13849, Control_c, 10, 10, 10
11, 13872, Note_on_c, 10, 81, 100
11, 13876, Control_c, 10, 10, 121
11, 13896, Control_c, 10, 10, 5
11, 13896, Note_on_c, 10, 79, 100
11, 13920, Note_on_c, 10, 77, 100
11, 13924, Control_c, 10, 10, 121
11, 13950, Control_c, 10, 10, 2
11, 13968, Note_off_c, 10, 87, 0
11, 13969, Control_c, 10, 10, 119
11, 13995, Control_c, 10, 10, 10
11, 14016, Note_off_c, 10, 84, 0
11, 14016, Note_off_c, 10, 79, 0
11, 14016, Note_off_c, 10, 77, 0
11, 14016, Note_on_c, 10, 75, 100
11, 14017, Control_c, 10, 10, 124
11, 14038, Control_c, 10, 10, 7
11, 14040, Note_off_c, 10, 81, 0
11, 14064, Note_off_c, 10, 75, 0
11, 14064, Note_on_c, 10, 74, 100
11, 14067, Control_c, 10, 10, 116
11, 14091, Control_c, 10, 10, 13
11, 14112, Note_off_c, 10, 74, 0
11, 14112, Note_on_c, 10, 67, 100
11, 14112, Note_on_c, 10, 72, 100
11, 14112, Note_on_c, 10, 74, 100
11, 14116, Control_c, 10, 10, 119
11, 14160, Note_off_c, 10, 72, 0
11, 14160, Note_on_c, 10, 71, 100
11, 14163, Control_c, 10, 10, 13
11, 14400, Note_off_c, 10, 67, 0
11, 14400, Note_off_c, 10, 74, 0
11, 14400, Note_off_c, 10, 71, 0
11, 14400, Note_on_c, 10, 89, 100
11, 14403, Control_c, 10, 1, 76
11, 14404, Control_c, 10, 10, 116
11, 14421, Control_c, 10, 10, 5
11, 14424, Note_on_c, 10, 86, 100
11, 14688, Note_off_c, 10, 89, 0
11, 14688, Note_off_c, 10, 86, 0
11, 14688, Note_on_c, 10, 88, 100
11, 14689, Control_c, 10, 10, 124
11, 14707, Control_c, 10, 10, 2
11, 14712, Note_on_c, 10, 86, 100
11, 14730, Control_c, 10, 10, 124
11, 14731, Control_c, 10, 10, 124
11, 14736, Note_on_c, 10, 83, 100
11, 14752, Control_c, 10, 10, 5
11, 14760, Note_on_c, 10, 79, 100
11, 14778, Control_c, 10, 10, 121
11, 14784, Note_on_c, 10, 76, 100
11, 14796, Control_c, 10, 10, 2
11, 14832, Note_off_c, 10, 88, 0
11, 14856, Note_off_c, 10, 86, 0
11, 14880, Note_off_c, 10, 83, 0
11, 14928, Note_off_c, 10, 79, 0
11, 14976, Note_off_c, 10, 76, 0
11, 14976, Note_on_c, 10, 87, 100
11, 14979, Control_c, 10, 10, 124
11, 15000, Note_on_c, 10, 84, 100
11, 15001, Control_c, 10, 10, 10
11, 15024, Note_on_c, 10, 81, 100
11, 15028, Control_c, 10, 10, 121
11, 15048, Control_c, 10, 10, 5
11, 15048, Note_on_c, 10, 79, 100
11, 15072, Note_on_c, 10, 77, 100
11, 15076, Control_c, 10, 10, 121
11, 15102, Control_c, 10, 10, 2
11, 15120, Note_off_c, 10, 87, 0
11, 15121, Control_c, 10, 10, 119
11, 15147, Control_c, 10, 10, 10
11, 15168, Note_off_c, 10, 84, 0
11, 15168, Note_off_c, 10, 79, 0
11, 15168, Note_off_c, 10, 77, 0
11, 15168, Note_on_c, 10, 75, 100
11, 15169, Control_c, 10, 10, 124
11, 15190, Control_c, 10, 10, 7
11, 15192, Note_off_c, 10, 81, 0
11, 15216, Note_off_c, 10, 75, 0
11, 15216, Note_on_c, 10, 74, 100
11, 15219, Control_c, 10, 10, 116
11, 15243, Control_c, 10, 10, 13
11, 15264, Note_off_c, 10, 74, 0
11, 15264, Note_on_c, 10, 67, 100
11, 15264, Note_on_c, 10, 72, 100
11, 15264, Note_on_c, 10, 74, 100
11, 15268, Control_c, 10, 10, 119
11, 15312, Note_off_c, 10, 72, 0
11, 15312, Note_on_c, 10, 71, 100
11, 15315, Control_c, 10, 10, 13
11, 15552, Note_off_c, 10, 67, 0
11, 15552, Note_off_c, 10, 74, 0
11, 15552, Note_off_c, 10, 71, 0
11, 27936, Note_on_c, 10, 89, 100
11, 27939, Control_c, 10, 1, 76
11, 27940, Control_c, 10, 10, 116
11, 27957, Control_c, 10, 10, 5
11, 27960, Note_on_c, 10, 86, 100
11, 28224, Note_off_c, 10, 89, 0
11, 28224, Note_off_c, 10, 86, 0
11, 28224, Note_on_c, 10, 88, 100
11, 28225, Control_c, 10, 10, 124
11, 28243, Control_c, 10, 10, 2
11, 28248, Note_on_c, 10, 86, 100
11, 28266, Control_c, 10, 10, 124
11, 28267, Control_c, 10, 10, 124
11, 28272, Note_on_c, 10, 83, 100
11, 28288, Control_c, 10, 10, 5
11, 28296, Note_on_c, 10, 79, 100
11, 28314, Control_c, 10, 10, 121
11, 28320, Note_on_c, 10, 76, 100
11, 28332, Control_c, 10, 10, 2
11, 28368, Note_off_c, 10, 88, 0
11, 28392, Note_off_c, 10, 86, 0
11, 28416, Note_off_c, 10, 83, 0
11, 28464, Note_off_c, 10, 79, 0
11, 28512, Note_off_c, 10, 76, 0
11, 28512, Note_on_c, 10, 87, 100
11, 28515, Control_c, 10, 10, 124
11, 28536, Note_on_c, 10, 84, 100
11, 28537, Control_c, 10, 10, 10
11, 28560, Note_on_c, 10, 81, 100
11, 28564, Control_c, 10, 10, 121
11, 28584, Control_c, 10, 10, 5
11, 28584, Note_on_c, 10, 79, 100
11, 28608, Note_on_c, 10, 77, 100
11, 28612, Control_c, 10, 10, 121
11, 28638, Control_c, 10, 10, 2
11, 28656, Note_off_c, 10, 87, 0
11, 28657, Control_c, 10, 10, 119
11, 28683, Control_c, 10, 10, 10
11, 28704, Note_off_c, 10, 84, 0
11, 28704, Note_off_c, 10, 79, 0
11, 28704, Note_off_c, 10, 77, 0
11, 28704, Note_on_c, 10, 75, 100
11, 28705, Control_c, 10, 10, 124
11, 28726, Control_c, 10, 10, 7
11, 28728, Note_off_c, 10, 81, 0
11, 28752, Note_off_c, 10, 75, 0
11, 28752, Note_on_c, 10, 74, 100
11, 28755, Control_c, 10, 10, 116
11, 28779, Control_c, 10, 10, 13
11, 28800, Note_off_c, 10, 74, 0
11, 28800, Note_on_c, 10, 67, 100
11, 28800, Note_on_c, 10, 72, 100
11, 28800, Note_on_c, 10, 74, 100
11, 28804, Control_c, 10, 10, 119
11, 28848, Note_off_c, 10, 72, 0
11, 28848, Note_on_c, 10, 71, 100
11, 28851, Control_c, 10, 10, 13
11, 29088, Note_off_c, 10, 67, 0
11, 29088, Note_off_c, 10, 74, 0
11, 29088, Note_off_c, 10, 71, 0
11, 29088, End_track
12, 0, Start_track
12, 0, Title_t, "Track 12\000"
12, 0, Program_c, 11, 30
12, 0, Control_c, 11, 91, 127
12, 18912, Note_on_c, 11, 62, 100
12, 18960, Note_off_c, 11, 62, 0
12, 18960, Note_on_c, 11, 64, 100
12, 19008, Note_off_c, 11, 64, 0
12, 19008, Note_on_c, 11, 65, 100
12, 19152, Note_off_c, 11, 65, 0
12, 19152, Note_on_c, 11, 72, 100
12, 19176, Note_on_c, 11, 74, 100
12, 19200, Note_on_c, 11, 71, 100
12, 19224, Note_off_c, 11, 72, 0
12, 19248, Note_off_c, 11, 74, 0
12, 19248, Note_on_c, 11, 65, 100
12, 19296, Note_off_c, 11, 71, 0
12, 19296, Note_off_c, 11, 65, 0
12, 19296, Note_on_c, 11, 64, 100
12, 19440, Note_off_c, 11, 64, 0
12, 19440, Note_on_c, 11, 72, 100
12, 19464, Note_on_c, 11, 74, 100
12, 19488, Note_on_c, 11, 71, 100
12, 19536, Note_off_c, 11, 72, 0
12, 19536, Note_off_c, 11, 74, 0
12, 19584, Note_off_c, 11, 71, 0
12, 19584, Note_on_c, 11, 63, 100
12, 19728, Note_off_c, 11, 63, 0
12, 19728, Note_on_c, 11, 72, 100
12, 19752, Note_on_c, 11, 74, 100
12, 19776, Note_off_c, 11, 72, 0
12, 19776, Note_on_c, 11, 71, 100
12, 19800, Note_off_c, 11, 74, 0
12, 19872, Note_off_c, 11, 71, 0
12, 19872, Note_on_c, 11, 75, 100
12, 19920, Note_off_c, 11, 75, 0
12, 19920, Note_on_c, 11, 74, 100
12, 19968, Note_off_c, 11, 74, 0
12, 19968, Note_on_c, 11, 72, 100
12, 20016, Note_off_c, 11, 72, 0
12, 20016, Note_on_c, 11, 67, 100
12, 20064, Note_off_c, 11, 67, 0
12, 20064, Note_on_c, 11, 62, 100
12, 20112, Note_on_c, 11, 64, 100
12, 20160, Note_off_c, 11, 62, 0
12, 20160, Note_off_c, 11, 64, 0
12, 20160, Note_on_c, 11, 65, 100
12, 20304, Note_off_c, 11, 65, 0
12, 20304, Note_on_c, 11, 72, 100
12, 20328, Note_on_c, 11, 74, 100
12, 20352, Note_on_c, 11, 71, 100
12, 20376, Note_off_c, 11, 72, 0
12, 20400, Note_off_c, 11, 74, 0
12, 20400, Note_on_c, 11, 65, 100
12, 20448, Note_off_c, 11, 71, 0
12, 20448, Note_off_c, 11, 65, 0
12, 20448, Note_on_c, 11, 64, 100
12, 20592, Note_off_c, 11, 64, 0
12, 20592, Note_on_c, 11, 72, 100
12, 20616, Note_on_c, 11, 74, 100
12, 20640, Note_on_c, 11, 71, 100
12, 20688, Note_off_c, 11, 72, 0
12, 20688, Note_off_c, 11, 74, 0
12, 20736, Note_off_c, 11, 71, 0
12, 21288, Note_on_c, 11, 55, 58
12, 21288, Note_on_c, 11, 60, 58
12, 21312, Note_off_c, 11, 55, 0
12, 21312, Note_off_c, 11, 60, 0
12, 21312, Note_on_c, 11, 55, 74
12, 21312, Note_on_c, 11, 60, 74
12, 21360, Note_off_c, 11, 55, 0
12, 21360, Note_off_c, 11, 60, 0
12, 21360, Note_on_c, 11, 55, 52
12, 21360, Note_on_c, 11, 60, 52
12, 21384, Note_off_c, 11, 55, 0
12, 21384, Note_off_c, 11, 60, 0
12, 21384, Note_on_c, 11, 55, 82
12, 21384, Note_on_c, 11, 60, 82
12, 21408, Note_off_c, 11, 60, 0
12, 21408, Note_on_c, 11, 60, 84
12, 21432, Note_off_c, 11, 55, 0
12, 21432, Note_off_c, 11, 60, 0
12, 21432, Note_on_c, 11, 55, 74
12, 21432, Note_on_c, 11, 60, 74
12, 21456, Note_off_c, 11, 55, 0
12, 21456, Note_off_c, 11, 60, 0
12, 21456, Note_on_c, 11, 55, 36
12, 21456, Note_on_c, 11, 60, 36
12, 21504, Note_off_c, 11, 55, 0
12, 21504, Note_off_c, 11, 60, 0
12, 21504, Note_on_c, 11, 55, 55
12, 21504, Note_on_c, 11, 60, 55
12, 21528, Note_off_c, 11, 55, 0
12, 21528, Note_off_c, 11, 60, 0
12, 21528, Note_on_c, 11, 55, 50
12, 21528, Note_on_c, 11, 60, 50
12, 21552, Note_off_c, 11, 55, 0
12, 21552, Note_off_c, 11, 60, 0
12, 21552, Note_on_c, 11, 55, 71
12, 21552, Note_on_c, 11, 60, 71
12, 21576, Note_off_c, 11, 55, 0
12, 21576, Note_off_c, 11, 60, 0
12, 21576, Note_on_c, 11, 55, 111
12, 21576, Note_on_c, 11, 60, 111
12, 21600, Note_off_c, 11, 55, 0
12, 21600, Note_off_c, 11, 60, 0
12, 21600, End_track
0, 0, End_of_file
