0, 0, Header, 1, 6, 960
1, 0, Start_track
1, 0, Control_c, 0, 101, 0
1, 0, Control_c, 0, 100, 0
1, 0, Control_c, 0, 6, 12
1, 0, Control_c, 0, 38, 0
1, 0, Control_c, 1, 101, 0
1, 0, Control_c, 1, 100, 0
1, 0, Control_c, 1, 6, 12
1, 0, Control_c, 1, 38, 0
1, 0, Control_c, 2, 101, 0
1, 0, Control_c, 2, 100, 0
1, 0, Control_c, 2, 6, 12
1, 0, Control_c, 2, 38, 0
1, 0, Control_c, 3, 101, 0
1, 0, Control_c, 3, 100, 0
1, 0, Control_c, 3, 6, 12
1, 0, Control_c, 3, 38, 0
1, 0, Control_c, 4, 101, 0
1, 0, Control_c, 4, 100, 0
1, 0, Control_c, 4, 6, 12
1, 0, Control_c, 4, 38, 0
1, 0, Control_c, 5, 101, 0
1, 0, Control_c, 5, 100, 0
1, 0, Control_c, 5, 6, 12
1, 0, Control_c, 5, 38, 0
1, 0, Control_c, 6, 101, 0
1, 0, Control_c, 6, 100, 0
1, 0, Control_c, 6, 6, 12
1, 0, Control_c, 6, 38, 0
1, 0, Control_c, 7, 101, 0
1, 0, Control_c, 7, 100, 0
1, 0, Control_c, 7, 6, 12
1, 0, Control_c, 7, 38, 0
1, 0, Control_c, 8, 101, 0
1, 0, Control_c, 8, 100, 0
1, 0, Control_c, 8, 6, 12
1, 0, Control_c, 8, 38, 0
1, 0, Control_c, 9, 101, 0
1, 0, Control_c, 9, 100, 0
1, 0, Control_c, 9, 6, 12
1, 0, Control_c, 9, 38, 0
1, 0, Control_c, 10, 101, 0
1, 0, Control_c, 10, 100, 0
1, 0, Control_c, 10, 6, 12
1, 0, Control_c, 10, 38, 0
1, 0, Control_c, 11, 101, 0
1, 0, Control_c, 11, 100, 0
1, 0, Control_c, 11, 6, 12
1, 0, Control_c, 11, 38, 0
1, 0, Control_c, 12, 101, 0
1, 0, Control_c, 12, 100, 0
1, 0, Control_c, 12, 6, 12
1, 0, Control_c, 12, 38, 0
1, 0, Control_c, 13, 101, 0
1, 0, Control_c, 13, 100, 0
1, 0, Control_c, 13, 6, 12
1, 0, Control_c, 13, 38, 0
1, 0, Control_c, 14, 101, 0
1, 0, Control_c, 14, 100, 0
1, 0, Control_c, 14, 6, 12
1, 0, Control_c, 14, 38, 0
1, 0, Control_c, 15, 101, 0
1, 0, Control_c, 15, 100, 0
1, 0, Control_c, 15, 6, 12
1, 0, Control_c, 15, 38, 0
1, 0, Time_signature, 4, 2, 24, 8
1, 0, Tempo, 526315
1, 0, End_track
2, 0, Start_track
2, 0, Pitch_bend_c, 0, 8192
2, 0, Control_c, 0, 7, 79
2, 0, Control_c, 0, 10, 0
2, 0, Control_c, 0, 93, 79
2, 0, Control_c, 0, 91, 0
2, 0, Control_c, 0, 95, 0
2, 0, Control_c, 0, 92, 0
2, 0, Control_c, 0, 11, 127
2, 0, Program_c, 0, 30
2, 0, Control_c, 1, 7, 79
2, 0, Control_c, 1, 10, 0
2, 0, Control_c, 1, 93, 79
2, 0, Control_c, 1, 91, 0
2, 0, Control_c, 1, 95, 0
2, 0, Control_c, 1, 92, 0
2, 0, Control_c, 1, 11, 127
2, 0, Program_c, 1, 30
2, 0, Note_on_c, 0, 69, 95
2, 0, Note_on_c, 0, 61, 95
2, 0, Note_on_c, 0, 57, 95
2, 0, Note_on_c, 0, 52, 95
2, 0, Note_on_c, 0, 49, 95
2, 0, Note_on_c, 0, 45, 95
2, 960, Note_off_c, 0, 69, 95
2, 960, Note_off_c, 0, 61, 95
2, 960, Note_off_c, 0, 57, 95
2, 960, Note_off_c, 0, 52, 95
2, 960, Note_off_c, 0, 49, 95
2, 960, Note_off_c, 0, 45, 95
2, 960, Note_on_c, 0, 69, 95
2, 960, Note_on_c, 0, 61, 95
2, 960, Note_on_c, 0, 57, 95
2, 960, Note_on_c, 0, 52, 95
2, 960, Note_on_c, 0, 49, 95
2, 960, Note_on_c, 0, 45, 95
2, 1440, Note_off_c, 0, 69, 95
2, 1440, Note_off_c, 0, 61, 95
2, 1440, Note_off_c, 0, 57, 95
2, 1440, Note_off_c, 0, 52, 95
2, 1440, Note_off_c, 0, 49, 95
2, 1440, Note_off_c, 0, 45, 95
2, 1440, Note_on_c, 0, 69, 95
2, 1440, Note_on_c, 0, 61, 95
2, 1440, Note_on_c, 0, 57, 95
2, 1440, Note_on_c, 0, 52, 95
2, 1440, Note_on_c, 0, 49, 95
2, 1440, Note_on_c, 0, 45, 95
2, 1920, Note_off_c, 0, 69, 95
2, 1920, Note_off_c, 0, 61, 95
2, 1920, Note_off_c, 0, 57, 95
2, 1920, Note_off_c, 0, 52, 95
2, 1920, Note_off_c, 0, 49, 95
2, 1920, Note_off_c, 0, 45, 95
2, 1920, Note_on_c, 0, 66, 95
2, 1920, Note_on_c, 0, 62, 95
2, 1920, Note_on_c, 0, 57, 95
2, 1920, Note_on_c, 0, 54, 95
2, 1920, Note_on_c, 0, 50, 95
2, 2880, Note_off_c, 0, 66, 95
2, 2880, Note_off_c, 0, 62, 95
2, 2880, Note_off_c, 0, 57, 95
2, 2880, Note_off_c, 0, 54, 95
2, 2880, Note_off_c, 0, 50, 95
2, 2880, Note_on_c, 0, 66, 95
2, 2880, Note_on_c, 0, 62, 95
2, 2880, Note_on_c, 0, 57, 95
2, 2880, Note_on_c, 0, 54, 95
2, 2880, Note_on_c, 0, 50, 95
2, 3360, Note_off_c, 0, 66, 95
2, 3360, Note_off_c, 0, 62, 95
2, 3360, Note_off_c, 0, 57, 95
2, 3360, Note_off_c, 0, 54, 95
2, 3360, Note_off_c, 0, 50, 95
2, 3360, Note_on_c, 0, 66, 95
2, 3360, Note_on_c, 0, 61, 95
2, 3360, Note_on_c, 0, 57, 95
2, 3360, Note_on_c, 0, 52, 95
2, 3840, Note_off_c, 0, 66, 95
2, 3840, Note_off_c, 0, 61, 95
2, 3840, Note_off_c, 0, 57, 95
2, 3840, Note_off_c, 0, 52, 95
2, 3840, Note_on_c, 0, 69, 95
2, 3840, Note_on_c, 0, 61, 95
2, 3840, Note_on_c, 0, 57, 95
2, 3840, Note_on_c, 0, 52, 95
2, 3840, Note_on_c, 0, 49, 95
2, 3840, Note_on_c, 0, 45, 95
2, 4800, Note_off_c, 0, 69, 95
2, 4800, Note_off_c, 0, 61, 95
2, 4800, Note_off_c, 0, 57, 95
2, 4800, Note_off_c, 0, 52, 95
2, 4800, Note_off_c, 0, 49, 95
2, 4800, Note_off_c, 0, 45, 95
2, 4800, Note_on_c, 0, 69, 95
2, 4800, Note_on_c, 0, 61, 95
2, 4800, Note_on_c, 0, 57, 95
2, 4800, Note_on_c, 0, 52, 95
2, 4800, Note_on_c, 0, 49, 95
2, 4800, Note_on_c, 0, 45, 95
2, 5280, Note_off_c, 0, 69, 95
2, 5280, Note_off_c, 0, 61, 95
2, 5280, Note_off_c, 0, 57, 95
2, 5280, Note_off_c, 0, 52, 95
2, 5280, Note_off_c, 0, 49, 95
2, 5280, Note_off_c, 0, 45, 95
2, 5280, Note_on_c, 0, 69, 95
2, 5280, Note_on_c, 0, 61, 95
2, 5280, Note_on_c, 0, 57, 95
2, 5280, Note_on_c, 0, 52, 95
2, 5280, Note_on_c, 0, 49, 95
2, 5280, Note_on_c, 0, 45, 95
2, 5760, Note_off_c, 0, 69, 95
2, 5760, Note_off_c, 0, 61, 95
2, 5760, Note_off_c, 0, 57, 95
2, 5760, Note_off_c, 0, 52, 95
2, 5760, Note_off_c, 0, 49, 95
2, 5760, Note_off_c, 0, 45, 95
2, 5760, Note_on_c, 0, 66, 95
2, 5760, Note_on_c, 0, 62, 95
2, 5760, Note_on_c, 0, 57, 95
2, 5760, Note_on_c, 0, 54, 95
2, 5760, Note_on_c, 0, 50, 95
2, 6240, Note_off_c, 0, 66, 95
2, 6240, Note_off_c, 0, 62, 95
2, 6240, Note_off_c, 0, 57, 95
2, 6240, Note_off_c, 0, 54, 95
2, 6240, Note_off_c, 0, 50, 95
2, 6240, Note_on_c, 0, 52, 95
2, 6720, Note_off_c, 0, 52, 95
2, 6720, Note_on_c, 0, 54, 70
2, 7200, Note_off_c, 0, 54, 70
2, 7200, Note_on_c, 0, 57, 95
2, 7680, Note_off_c, 0, 57, 95
2, 7680, Note_on_c, 0, 69, 95
2, 7680, Note_on_c, 0, 61, 95
2, 7680, Note_on_c, 0, 57, 95
2, 7680, Note_on_c, 0, 52, 95
2, 7680, Note_on_c, 0, 49, 95
2, 7680, Note_on_c, 0, 45, 95
2, 8640, Note_off_c, 0, 69, 95
2, 8640, Note_off_c, 0, 61, 95
2, 8640, Note_off_c, 0, 57, 95
2, 8640, Note_off_c, 0, 52, 95
2, 8640, Note_off_c, 0, 49, 95
2, 8640, Note_off_c, 0, 45, 95
2, 8640, Note_on_c, 0, 69, 95
2, 8640, Note_on_c, 0, 61, 95
2, 8640, Note_on_c, 0, 57, 95
2, 8640, Note_on_c, 0, 52, 95
2, 8640, Note_on_c, 0, 49, 95
2, 8640, Note_on_c, 0, 45, 95
2, 9120, Note_off_c, 0, 69, 95
2, 9120, Note_off_c, 0, 61, 95
2, 9120, Note_off_c, 0, 57, 95
2, 9120, Note_off_c, 0, 52, 95
2, 9120, Note_off_c, 0, 49, 95
2, 9120, Note_off_c, 0, 45, 95
2, 9120, Note_on_c, 0, 69, 95
2, 9120, Note_on_c, 0, 61, 95
2, 9120, Note_on_c, 0, 57, 95
2, 9120, Note_on_c, 0, 52, 95
2, 9120, Note_on_c, 0, 49, 95
2, 9120, Note_on_c, 0, 45, 95
2, 9600, Note_off_c, 0, 69, 95
2, 9600, Note_off_c, 0, 61, 95
2, 9600, Note_off_c, 0, 57, 95
2, 9600, Note_off_c, 0, 52, 95
2, 9600, Note_off_c, 0, 49, 95
2, 9600, Note_off_c, 0, 45, 95
2, 9600, Note_on_c, 0, 66, 95
2, 9600, Note_on_c, 0, 62, 95
2, 9600, Note_on_c, 0, 57, 95
2, 9600, Note_on_c, 0, 54, 95
2, 9600, Note_on_c, 0, 50, 95
2, 10560, Note_off_c, 0, 66, 95
2, 10560, Note_off_c, 0, 62, 95
2, 10560, Note_off_c, 0, 57, 95
2, 10560, Note_off_c, 0, 54, 95
2, 10560, Note_off_c, 0, 50, 95
2, 10560, Note_on_c, 0, 66, 95
2, 10560, Note_on_c, 0, 62, 95
2, 10560, Note_on_c, 0, 57, 95
2, 10560, Note_on_c, 0, 54, 95
2, 10560, Note_on_c, 0, 50, 95
2, 11040, Note_off_c, 0, 66, 95
2, 11040, Note_off_c, 0, 62, 95
2, 11040, Note_off_c, 0, 57, 95
2, 11040, Note_off_c, 0, 54, 95
2, 11040, Note_off_c, 0, 50, 95
2, 11040, Note_on_c, 0, 66, 95
2, 11040, Note_on_c, 0, 61, 95
2, 11040, Note_on_c, 0, 57, 95
2, 11040, Note_on_c, 0, 52, 95
2, 11520, Note_off_c, 0, 66, 95
2, 11520, Note_off_c, 0, 61, 95
2, 11520, Note_off_c, 0, 57, 95
2, 11520, Note_off_c, 0, 52, 95
2, 11520, Note_on_c, 0, 69, 95
2, 11520, Note_on_c, 0, 61, 95
2, 11520, Note_on_c, 0, 57, 95
2, 11520, Note_on_c, 0, 52, 95
2, 11520, Note_on_c, 0, 49, 95
2, 11520, Note_on_c, 0, 45, 95
2, 12480, Note_off_c, 0, 69, 95
2, 12480, Note_off_c, 0, 61, 95
2, 12480, Note_off_c, 0, 57, 95
2, 12480, Note_off_c, 0, 52, 95
2, 12480, Note_off_c, 0, 49, 95
2, 12480, Note_off_c, 0, 45, 95
2, 12480, Note_on_c, 0, 69, 95
2, 12480, Note_on_c, 0, 61, 95
2, 12480, Note_on_c, 0, 57, 95
2, 12480, Note_on_c, 0, 52, 95
2, 12480, Note_on_c, 0, 49, 95
2, 12480, Note_on_c, 0, 45, 95
2, 12960, Note_off_c, 0, 69, 95
2, 12960, Note_off_c, 0, 61, 95
2, 12960, Note_off_c, 0, 57, 95
2, 12960, Note_off_c, 0, 52, 95
2, 12960, Note_off_c, 0, 49, 95
2, 12960, Note_off_c, 0, 45, 95
2, 12960, Note_on_c, 0, 69, 95
2, 12960, Note_on_c, 0, 61, 95
2, 12960, Note_on_c, 0, 57, 95
2, 12960, Note_on_c, 0, 52, 95
2, 12960, Note_on_c, 0, 49, 95
2, 12960, Note_on_c, 0, 45, 95
2, 13440, Note_off_c, 0, 69, 95
2, 13440, Note_off_c, 0, 61, 95
2, 13440, Note_off_c, 0, 57, 95
2, 13440, Note_off_c, 0, 52, 95
2, 13440, Note_off_c, 0, 49, 95
2, 13440, Note_off_c, 0, 45, 95
2, 13440, Note_on_c, 0, 66, 95
2, 13440, Note_on_c, 0, 62, 95
2, 13440, Note_on_c, 0, 57, 95
2, 13440, Note_on_c, 0, 54, 95
2, 13440, Note_on_c, 0, 50, 95
2, 13920, Note_off_c, 0, 66, 95
2, 13920, Note_off_c, 0, 62, 95
2, 13920, Note_off_c, 0, 57, 95
2, 13920, Note_off_c, 0, 54, 95
2, 13920, Note_off_c, 0, 50, 95
2, 13920, Note_on_c, 0, 52, 95
2, 14400, Note_off_c, 0, 52, 95
2, 14400, Note_on_c, 0, 54, 70
2, 14880, Note_off_c, 0, 54, 70
2, 14880, Note_on_c, 0, 57, 95
2, 15360, Note_off_c, 0, 57, 95
2, 15360, Note_on_c, 0, 52, 95
2, 15360, Note_on_c, 0, 49, 95
2, 15360, Note_on_c, 0, 45, 95
2, 15474, Note_off_c, 0, 52, 95
2, 15474, Note_off_c, 0, 49, 95
2, 15474, Note_off_c, 0, 45, 95
2, 16320, Note_on_c, 0, 61, 95
2, 16320, Note_on_c, 0, 57, 95
2, 16320, Note_on_c, 0, 52, 95
2, 16434, Note_off_c, 0, 61, 95
2, 16434, Note_off_c, 0, 57, 95
2, 16434, Note_off_c, 0, 52, 95
2, 16800, Note_on_c, 0, 52, 95
2, 16800, Note_on_c, 0, 49, 95
2, 16800, Note_on_c, 0, 45, 95
2, 16914, Note_off_c, 0, 52, 95
2, 16914, Note_off_c, 0, 49, 95
2, 16914, Note_off_c, 0, 45, 95
2, 17280, Note_on_c, 0, 57, 95
2, 17280, Note_on_c, 0, 54, 95
2, 17280, Note_on_c, 0, 50, 95
2, 17394, Note_off_c, 0, 57, 95
2, 17394, Note_off_c, 0, 50, 95
2, 18240, Note_off_c, 0, 54, 95
2, 18240, Note_on_c, 0, 66, 95
2, 18240, Note_on_c, 0, 62, 95
2, 18240, Note_on_c, 0, 57, 95
2, 18354, Note_off_c, 0, 66, 95
2, 18354, Note_off_c, 0, 62, 95
2, 18354, Note_off_c, 0, 57, 95
2, 18720, Note_on_c, 0, 57, 95
2, 18720, Note_on_c, 0, 54, 95
2, 18720, Note_on_c, 0, 50, 95
2, 18834, Note_off_c, 0, 57, 95
2, 18834, Note_off_c, 0, 54, 95
2, 18834, Note_off_c, 0, 50, 95
2, 19200, Note_on_c, 0, 52, 95
2, 19200, Note_on_c, 0, 49, 95
2, 19200, Note_on_c, 0, 45, 95
2, 19314, Note_off_c, 0, 52, 95
2, 19314, Note_off_c, 0, 49, 95
2, 19314, Note_off_c, 0, 45, 95
2, 20160, Note_on_c, 0, 61, 95
2, 20160, Note_on_c, 0, 57, 95
2, 20160, Note_on_c, 0, 52, 95
2, 20274, Note_off_c, 0, 61, 95
2, 20274, Note_off_c, 0, 57, 95
2, 20274, Note_off_c, 0, 52, 95
2, 20640, Note_on_c, 0, 52, 95
2, 20640, Note_on_c, 0, 49, 95
2, 20640, Note_on_c, 0, 45, 95
2, 20754, Note_off_c, 0, 52, 95
2, 20754, Note_off_c, 0, 49, 95
2, 20754, Note_off_c, 0, 45, 95
2, 21120, Note_on_c, 0, 57, 95
2, 21120, Note_on_c, 0, 54, 95
2, 21120, Note_on_c, 0, 50, 95
2, 21234, Note_off_c, 0, 57, 95
2, 21234, Note_off_c, 0, 54, 95
2, 21234, Note_off_c, 0, 50, 95
2, 22080, Note_on_c, 0, 66, 95
2, 22080, Note_on_c, 0, 62, 95
2, 22080, Note_on_c, 0, 57, 95
2, 22194, Note_off_c, 0, 66, 95
2, 22194, Note_off_c, 0, 62, 95
2, 22194, Note_off_c, 0, 57, 95
2, 22560, Note_on_c, 0, 57, 95
2, 22560, Note_on_c, 0, 54, 95
2, 22560, Note_on_c, 0, 50, 95
2, 22674, Note_off_c, 0, 57, 95
2, 22674, Note_off_c, 0, 54, 95
2, 23040, Note_off_c, 0, 50, 95
2, 23040, Note_on_c, 0, 52, 95
2, 23040, Note_on_c, 0, 49, 95
2, 23040, Note_on_c, 0, 45, 95
2, 23154, Note_off_c, 0, 52, 95
2, 23154, Note_off_c, 0, 49, 95
2, 23154, Note_off_c, 0, 45, 95
2, 24000, Note_on_c, 0, 61, 95
2, 24000, Note_on_c, 0, 57, 95
2, 24000, Note_on_c, 0, 52, 95
2, 24114, Note_off_c, 0, 61, 95
2, 24114, Note_off_c, 0, 57, 95
2, 24114, Note_off_c, 0, 52, 95
2, 24480, Note_on_c, 0, 52, 95
2, 24480, Note_on_c, 0, 49, 95
2, 24480, Note_on_c, 0, 45, 95
2, 24594, Note_off_c, 0, 52, 95
2, 24594, Note_off_c, 0, 49, 95
2, 24594, Note_off_c, 0, 45, 95
2, 24960, Note_on_c, 0, 57, 95
2, 24960, Note_on_c, 0, 54, 95
2, 24960, Note_on_c, 0, 50, 95
2, 25074, Note_off_c, 0, 57, 95
2, 25074, Note_off_c, 0, 50, 95
2, 25920, Note_off_c, 0, 54, 95
2, 25920, Note_on_c, 0, 66, 95
2, 25920, Note_on_c, 0, 62, 95
2, 25920, Note_on_c, 0, 57, 95
2, 26034, Note_off_c, 0, 66, 95
2, 26034, Note_off_c, 0, 62, 95
2, 26034, Note_off_c, 0, 57, 95
2, 26400, Note_on_c, 0, 57, 95
2, 26400, Note_on_c, 0, 54, 95
2, 26400, Note_on_c, 0, 50, 95
2, 26514, Note_off_c, 0, 57, 95
2, 26514, Note_off_c, 0, 54, 95
2, 26514, Note_off_c, 0, 50, 95
2, 26880, Note_on_c, 0, 52, 95
2, 26880, Note_on_c, 0, 49, 95
2, 26880, Note_on_c, 0, 45, 95
2, 26994, Note_off_c, 0, 52, 95
2, 26994, Note_off_c, 0, 49, 95
2, 26994, Note_off_c, 0, 45, 95
2, 27840, Note_on_c, 0, 61, 95
2, 27840, Note_on_c, 0, 57, 95
2, 27840, Note_on_c, 0, 52, 95
2, 27954, Note_off_c, 0, 61, 95
2, 27954, Note_off_c, 0, 57, 95
2, 27954, Note_off_c, 0, 52, 95
2, 28320, Note_on_c, 0, 52, 95
2, 28320, Note_on_c, 0, 49, 95
2, 28320, Note_on_c, 0, 45, 95
2, 28434, Note_off_c, 0, 52, 95
2, 28434, Note_off_c, 0, 49, 95
2, 28434, Note_off_c, 0, 45, 95
2, 28800, Note_on_c, 0, 57, 95
2, 28800, Note_on_c, 0, 54, 95
2, 28800, Note_on_c, 0, 50, 95
2, 28914, Note_off_c, 0, 57, 95
2, 28914, Note_off_c, 0, 54, 95
2, 28914, Note_off_c, 0, 50, 95
2, 29760, Note_on_c, 0, 66, 95
2, 29760, Note_on_c, 0, 62, 95
2, 29760, Note_on_c, 0, 57, 95
2, 29874, Note_off_c, 0, 66, 95
2, 29874, Note_off_c, 0, 62, 95
2, 29874, Note_off_c, 0, 57, 95
2, 30240, Note_on_c, 0, 57, 95
2, 30240, Note_on_c, 0, 54, 95
2, 30240, Note_on_c, 0, 50, 95
2, 30354, Note_off_c, 0, 57, 95
2, 30354, Note_off_c, 0, 54, 95
2, 30720, Note_off_c, 0, 50, 95
2, 30720, Note_on_c, 0, 52, 95
2, 30720, Note_on_c, 0, 49, 95
2, 30720, Note_on_c, 0, 45, 95
2, 30834, Note_off_c, 0, 52, 95
2, 30834, Note_off_c, 0, 49, 95
2, 30834, Note_off_c, 0, 45, 95
2, 31680, Note_on_c, 0, 61, 95
2, 31680, Note_on_c, 0, 57, 95
2, 31680, Note_on_c, 0, 52, 95
2, 31794, Note_off_c, 0, 61, 95
2, 31794, Note_off_c, 0, 57, 95
2, 31794, Note_off_c, 0, 52, 95
2, 32160, Note_on_c, 0, 52, 95
2, 32160, Note_on_c, 0, 49, 95
2, 32160, Note_on_c, 0, 45, 95
2, 32274, Note_off_c, 0, 52, 95
2, 32274, Note_off_c, 0, 49, 95
2, 32274, Note_off_c, 0, 45, 95
2, 32640, Note_on_c, 0, 57, 95
2, 32640, Note_on_c, 0, 54, 95
2, 32640, Note_on_c, 0, 50, 95
2, 32754, Note_off_c, 0, 57, 95
2, 32754, Note_off_c, 0, 50, 95
2, 33600, Note_off_c, 0, 54, 95
2, 33600, Note_on_c, 0, 66, 95
2, 33600, Note_on_c, 0, 62, 95
2, 33600, Note_on_c, 0, 57, 95
2, 33714, Note_off_c, 0, 66, 95
2, 33714, Note_off_c, 0, 62, 95
2, 33714, Note_off_c, 0, 57, 95
2, 34080, Note_on_c, 0, 57, 95
2, 34080, Note_on_c, 0, 54, 95
2, 34080, Note_on_c, 0, 50, 95
2, 34194, Note_off_c, 0, 57, 95
2, 34194, Note_off_c, 0, 54, 95
2, 34194, Note_off_c, 0, 50, 95
2, 34560, Note_on_c, 0, 52, 95
2, 34560, Note_on_c, 0, 49, 95
2, 34560, Note_on_c, 0, 45, 95
2, 34674, Note_off_c, 0, 52, 95
2, 34674, Note_off_c, 0, 49, 95
2, 34674, Note_off_c, 0, 45, 95
2, 35520, Note_on_c, 0, 61, 95
2, 35520, Note_on_c, 0, 57, 95
2, 35520, Note_on_c, 0, 52, 95
2, 35634, Note_off_c, 0, 61, 95
2, 35634, Note_off_c, 0, 57, 95
2, 35634, Note_off_c, 0, 52, 95
2, 36000, Note_on_c, 0, 52, 95
2, 36000, Note_on_c, 0, 49, 95
2, 36000, Note_on_c, 0, 45, 95
2, 36114, Note_off_c, 0, 52, 95
2, 36114, Note_off_c, 0, 49, 95
2, 36114, Note_off_c, 0, 45, 95
2, 36480, Note_on_c, 0, 57, 95
2, 36480, Note_on_c, 0, 54, 95
2, 36480, Note_on_c, 0, 50, 95
2, 36594, Note_off_c, 0, 57, 95
2, 36594, Note_off_c, 0, 54, 95
2, 36594, Note_off_c, 0, 50, 95
2, 37440, Note_on_c, 0, 66, 95
2, 37440, Note_on_c, 0, 62, 95
2, 37440, Note_on_c, 0, 57, 95
2, 37554, Note_off_c, 0, 66, 95
2, 37554, Note_off_c, 0, 62, 95
2, 37554, Note_off_c, 0, 57, 95
2, 37920, Note_on_c, 0, 57, 95
2, 37920, Note_on_c, 0, 54, 95
2, 37920, Note_on_c, 0, 50, 95
2, 38034, Note_off_c, 0, 57, 95
2, 38034, Note_off_c, 0, 54, 95
2, 38400, Note_off_c, 0, 50, 95
2, 38400, Note_on_c, 0, 52, 95
2, 38400, Note_on_c, 0, 49, 95
2, 38400, Note_on_c, 0, 45, 95
2, 38514, Note_off_c, 0, 52, 95
2, 38514, Note_off_c, 0, 49, 95
2, 38514, Note_off_c, 0, 45, 95
2, 39360, Note_on_c, 0, 61, 95
2, 39360, Note_on_c, 0, 57, 95
2, 39360, Note_on_c, 0, 52, 95
2, 39474, Note_off_c, 0, 61, 95
2, 39474, Note_off_c, 0, 57, 95
2, 39474, Note_off_c, 0, 52, 95
2, 39840, Note_on_c, 0, 52, 95
2, 39840, Note_on_c, 0, 49, 95
2, 39840, Note_on_c, 0, 45, 95
2, 39954, Note_off_c, 0, 52, 95
2, 39954, Note_off_c, 0, 49, 95
2, 39954, Note_off_c, 0, 45, 95
2, 40320, Note_on_c, 0, 57, 95
2, 40320, Note_on_c, 0, 54, 95
2, 40320, Note_on_c, 0, 50, 95
2, 40434, Note_off_c, 0, 57, 95
2, 40434, Note_off_c, 0, 50, 95
2, 41280, Note_off_c, 0, 54, 95
2, 41280, Note_on_c, 0, 66, 95
2, 41280, Note_on_c, 0, 62, 95
2, 41280, Note_on_c, 0, 57, 95
2, 41394, Note_off_c, 0, 66, 95
2, 41394, Note_off_c, 0, 62, 95
2, 41394, Note_off_c, 0, 57, 95
2, 41760, Note_on_c, 0, 57, 95
2, 41760, Note_on_c, 0, 54, 95
2, 41760, Note_on_c, 0, 50, 95
2, 41874, Note_off_c, 0, 57, 95
2, 41874, Note_off_c, 0, 54, 95
2, 41874, Note_off_c, 0, 50, 95
2, 42240, Note_on_c, 0, 52, 95
2, 42240, Note_on_c, 0, 49, 95
2, 42240, Note_on_c, 0, 45, 95
2, 42354, Note_off_c, 0, 52, 95
2, 42354, Note_off_c, 0, 49, 95
2, 42354, Note_off_c, 0, 45, 95
2, 49920, Note_on_c, 0, 69, 95
2, 49920, Note_on_c, 0, 61, 95
2, 49920, Note_on_c, 0, 57, 95
2, 49920, Note_on_c, 0, 52, 95
2, 49920, Note_on_c, 0, 49, 95
2, 49920, Note_on_c, 0, 45, 95
2, 50880, Note_off_c, 0, 69, 95
2, 50880, Note_off_c, 0, 61, 95
2, 50880, Note_off_c, 0, 57, 95
2, 50880, Note_off_c, 0, 52, 95
2, 50880, Note_off_c, 0, 49, 95
2, 50880, Note_off_c, 0, 45, 95
2, 50880, Note_on_c, 0, 69, 95
2, 50880, Note_on_c, 0, 61, 95
2, 50880, Note_on_c, 0, 57, 95
2, 50880, Note_on_c, 0, 52, 95
2, 50880, Note_on_c, 0, 49, 95
2, 50880, Note_on_c, 0, 45, 95
2, 51360, Note_off_c, 0, 69, 95
2, 51360, Note_off_c, 0, 61, 95
2, 51360, Note_off_c, 0, 57, 95
2, 51360, Note_off_c, 0, 52, 95
2, 51360, Note_off_c, 0, 49, 95
2, 51360, Note_off_c, 0, 45, 95
2, 51360, Note_on_c, 0, 69, 95
2, 51360, Note_on_c, 0, 61, 95
2, 51360, Note_on_c, 0, 57, 95
2, 51360, Note_on_c, 0, 52, 95
2, 51360, Note_on_c, 0, 49, 95
2, 51360, Note_on_c, 0, 45, 95
2, 51840, Note_off_c, 0, 69, 95
2, 51840, Note_off_c, 0, 61, 95
2, 51840, Note_off_c, 0, 57, 95
2, 51840, Note_off_c, 0, 52, 95
2, 51840, Note_off_c, 0, 49, 95
2, 51840, Note_off_c, 0, 45, 95
2, 51840, Note_on_c, 0, 66, 95
2, 51840, Note_on_c, 0, 62, 95
2, 51840, Note_on_c, 0, 57, 95
2, 51840, Note_on_c, 0, 54, 95
2, 51840, Note_on_c, 0, 50, 95
2, 52800, Note_off_c, 0, 66, 95
2, 52800, Note_off_c, 0, 62, 95
2, 52800, Note_off_c, 0, 57, 95
2, 52800, Note_off_c, 0, 54, 95
2, 52800, Note_off_c, 0, 50, 95
2, 52800, Note_on_c, 0, 66, 95
2, 52800, Note_on_c, 0, 62, 95
2, 52800, Note_on_c, 0, 57, 95
2, 52800, Note_on_c, 0, 54, 95
2, 52800, Note_on_c, 0, 50, 95
2, 53280, Note_off_c, 0, 66, 95
2, 53280, Note_off_c, 0, 62, 95
2, 53280, Note_off_c, 0, 57, 95
2, 53280, Note_off_c, 0, 54, 95
2, 53280, Note_off_c, 0, 50, 95
2, 53280, Note_on_c, 0, 66, 95
2, 53280, Note_on_c, 0, 61, 95
2, 53280, Note_on_c, 0, 57, 95
2, 53280, Note_on_c, 0, 52, 95
2, 53760, Note_off_c, 0, 66, 95
2, 53760, Note_off_c, 0, 61, 95
2, 53760, Note_off_c, 0, 57, 95
2, 53760, Note_off_c, 0, 52, 95
2, 53760, Note_on_c, 0, 69, 95
2, 53760, Note_on_c, 0, 61, 95
2, 53760, Note_on_c, 0, 57, 95
2, 53760, Note_on_c, 0, 52, 95
2, 53760, Note_on_c, 0, 49, 95
2, 53760, Note_on_c, 0, 45, 95
2, 54720, Note_off_c, 0, 69, 95
2, 54720, Note_off_c, 0, 61, 95
2, 54720, Note_off_c, 0, 57, 95
2, 54720, Note_off_c, 0, 52, 95
2, 54720, Note_off_c, 0, 49, 95
2, 54720, Note_off_c, 0, 45, 95
2, 54720, Note_on_c, 0, 69, 95
2, 54720, Note_on_c, 0, 61, 95
2, 54720, Note_on_c, 0, 57, 95
2, 54720, Note_on_c, 0, 52, 95
2, 54720, Note_on_c, 0, 49, 95
2, 54720, Note_on_c, 0, 45, 95
2, 55200, Note_off_c, 0, 69, 95
2, 55200, Note_off_c, 0, 61, 95
2, 55200, Note_off_c, 0, 57, 95
2, 55200, Note_off_c, 0, 52, 95
2, 55200, Note_off_c, 0, 49, 95
2, 55200, Note_off_c, 0, 45, 95
2, 55200, Note_on_c, 0, 69, 95
2, 55200, Note_on_c, 0, 61, 95
2, 55200, Note_on_c, 0, 57, 95
2, 55200, Note_on_c, 0, 52, 95
2, 55200, Note_on_c, 0, 49, 95
2, 55200, Note_on_c, 0, 45, 95
2, 55680, Note_off_c, 0, 69, 95
2, 55680, Note_off_c, 0, 61, 95
2, 55680, Note_off_c, 0, 57, 95
2, 55680, Note_off_c, 0, 52, 95
2, 55680, Note_off_c, 0, 49, 95
2, 55680, Note_off_c, 0, 45, 95
2, 55680, Note_on_c, 0, 66, 95
2, 55680, Note_on_c, 0, 62, 95
2, 55680, Note_on_c, 0, 57, 95
2, 55680, Note_on_c, 0, 54, 95
2, 55680, Note_on_c, 0, 50, 95
2, 56160, Note_off_c, 0, 66, 95
2, 56160, Note_off_c, 0, 62, 95
2, 56160, Note_off_c, 0, 57, 95
2, 56160, Note_off_c, 0, 54, 95
2, 56160, Note_off_c, 0, 50, 95
2, 56160, Note_on_c, 0, 52, 95
2, 56640, Note_off_c, 0, 52, 95
2, 56640, Note_on_c, 0, 54, 70
2, 57120, Note_off_c, 0, 54, 70
2, 57120, Note_on_c, 0, 57, 95
2, 57600, Note_off_c, 0, 57, 95
2, 57600, Note_on_c, 0, 69, 95
2, 57600, Note_on_c, 0, 61, 95
2, 57600, Note_on_c, 0, 57, 95
2, 57600, Note_on_c, 0, 52, 95
2, 57600, Note_on_c, 0, 49, 95
2, 57600, Note_on_c, 0, 45, 95
2, 58560, Note_off_c, 0, 69, 95
2, 58560, Note_off_c, 0, 61, 95
2, 58560, Note_off_c, 0, 57, 95
2, 58560, Note_off_c, 0, 52, 95
2, 58560, Note_off_c, 0, 49, 95
2, 58560, Note_off_c, 0, 45, 95
2, 58560, Note_on_c, 0, 69, 95
2, 58560, Note_on_c, 0, 61, 95
2, 58560, Note_on_c, 0, 57, 95
2, 58560, Note_on_c, 0, 52, 95
2, 58560, Note_on_c, 0, 49, 95
2, 58560, Note_on_c, 0, 45, 95
2, 59040, Note_off_c, 0, 69, 95
2, 59040, Note_off_c, 0, 61, 95
2, 59040, Note_off_c, 0, 57, 95
2, 59040, Note_off_c, 0, 52, 95
2, 59040, Note_off_c, 0, 49, 95
2, 59040, Note_off_c, 0, 45, 95
2, 59040, Note_on_c, 0, 69, 95
2, 59040, Note_on_c, 0, 61, 95
2, 59040, Note_on_c, 0, 57, 95
2, 59040, Note_on_c, 0, 52, 95
2, 59040, Note_on_c, 0, 49, 95
2, 59040, Note_on_c, 0, 45, 95
2, 59520, Note_off_c, 0, 69, 95
2, 59520, Note_off_c, 0, 61, 95
2, 59520, Note_off_c, 0, 57, 95
2, 59520, Note_off_c, 0, 52, 95
2, 59520, Note_off_c, 0, 49, 95
2, 59520, Note_off_c, 0, 45, 95
2, 59520, Note_on_c, 0, 66, 95
2, 59520, Note_on_c, 0, 62, 95
2, 59520, Note_on_c, 0, 57, 95
2, 59520, Note_on_c, 0, 54, 95
2, 59520, Note_on_c, 0, 50, 95
2, 60480, Note_off_c, 0, 66, 95
2, 60480, Note_off_c, 0, 62, 95
2, 60480, Note_off_c, 0, 57, 95
2, 60480, Note_off_c, 0, 54, 95
2, 60480, Note_off_c, 0, 50, 95
2, 60480, Note_on_c, 0, 66, 95
2, 60480, Note_on_c, 0, 62, 95
2, 60480, Note_on_c, 0, 57, 95
2, 60480, Note_on_c, 0, 54, 95
2, 60480, Note_on_c, 0, 50, 95
2, 60960, Note_off_c, 0, 66, 95
2, 60960, Note_off_c, 0, 62, 95
2, 60960, Note_off_c, 0, 57, 95
2, 60960, Note_off_c, 0, 54, 95
2, 60960, Note_off_c, 0, 50, 95
2, 60960, Note_on_c, 0, 66, 95
2, 60960, Note_on_c, 0, 61, 95
2, 60960, Note_on_c, 0, 57, 95
2, 60960, Note_on_c, 0, 52, 95
2, 61440, Note_off_c, 0, 66, 95
2, 61440, Note_off_c, 0, 61, 95
2, 61440, Note_off_c, 0, 57, 95
2, 61440, Note_off_c, 0, 52, 95
2, 61440, Note_on_c, 0, 69, 95
2, 61440, Note_on_c, 0, 61, 95
2, 61440, Note_on_c, 0, 57, 95
2, 61440, Note_on_c, 0, 52, 95
2, 61440, Note_on_c, 0, 49, 95
2, 61440, Note_on_c, 0, 45, 95
2, 62400, Note_off_c, 0, 69, 95
2, 62400, Note_off_c, 0, 61, 95
2, 62400, Note_off_c, 0, 57, 95
2, 62400, Note_off_c, 0, 52, 95
2, 62400, Note_off_c, 0, 49, 95
2, 62400, Note_off_c, 0, 45, 95
2, 62400, Note_on_c, 0, 69, 95
2, 62400, Note_on_c, 0, 61, 95
2, 62400, Note_on_c, 0, 57, 95
2, 62400, Note_on_c, 0, 52, 95
2, 62400, Note_on_c, 0, 49, 95
2, 62400, Note_on_c, 0, 45, 95
2, 62880, Note_off_c, 0, 69, 95
2, 62880, Note_off_c, 0, 61, 95
2, 62880, Note_off_c, 0, 57, 95
2, 62880, Note_off_c, 0, 52, 95
2, 62880, Note_off_c, 0, 49, 95
2, 62880, Note_off_c, 0, 45, 95
2, 62880, Note_on_c, 0, 69, 95
2, 62880, Note_on_c, 0, 61, 95
2, 62880, Note_on_c, 0, 57, 95
2, 62880, Note_on_c, 0, 52, 95
2, 62880, Note_on_c, 0, 49, 95
2, 62880, Note_on_c, 0, 45, 95
2, 63360, Note_off_c, 0, 69, 95
2, 63360, Note_off_c, 0, 61, 95
2, 63360, Note_off_c, 0, 57, 95
2, 63360, Note_off_c, 0, 52, 95
2, 63360, Note_off_c, 0, 49, 95
2, 63360, Note_off_c, 0, 45, 95
2, 63360, Note_on_c, 0, 66, 95
2, 63360, Note_on_c, 0, 62, 95
2, 63360, Note_on_c, 0, 57, 95
2, 63360, Note_on_c, 0, 54, 95
2, 63360, Note_on_c, 0, 50, 95
2, 63840, Note_off_c, 0, 66, 95
2, 63840, Note_off_c, 0, 62, 95
2, 63840, Note_off_c, 0, 57, 95
2, 63840, Note_off_c, 0, 54, 95
2, 63840, Note_off_c, 0, 50, 95
2, 63840, Note_on_c, 0, 52, 95
2, 64320, Note_off_c, 0, 52, 95
2, 64320, Note_on_c, 0, 54, 70
2, 64800, Note_off_c, 0, 54, 70
2, 64800, Note_on_c, 0, 57, 95
2, 65280, Note_off_c, 0, 57, 95
2, 65280, Note_on_c, 0, 69, 95
2, 65280, Note_on_c, 0, 61, 95
2, 65280, Note_on_c, 0, 57, 95
2, 65280, Note_on_c, 0, 52, 95
2, 65280, Note_on_c, 0, 49, 95
2, 65280, Note_on_c, 0, 45, 95
2, 66240, Note_off_c, 0, 69, 95
2, 66240, Note_off_c, 0, 61, 95
2, 66240, Note_off_c, 0, 57, 95
2, 66240, Note_off_c, 0, 52, 95
2, 66240, Note_off_c, 0, 49, 95
2, 66240, Note_off_c, 0, 45, 95
2, 66240, Note_on_c, 0, 69, 95
2, 66240, Note_on_c, 0, 61, 95
2, 66240, Note_on_c, 0, 57, 95
2, 66240, Note_on_c, 0, 52, 95
2, 66240, Note_on_c, 0, 49, 95
2, 66240, Note_on_c, 0, 45, 95
2, 66720, Note_off_c, 0, 69, 95
2, 66720, Note_off_c, 0, 61, 95
2, 66720, Note_off_c, 0, 57, 95
2, 66720, Note_off_c, 0, 52, 95
2, 66720, Note_off_c, 0, 49, 95
2, 66720, Note_off_c, 0, 45, 95
2, 66720, Note_on_c, 0, 69, 95
2, 66720, Note_on_c, 0, 61, 95
2, 66720, Note_on_c, 0, 57, 95
2, 66720, Note_on_c, 0, 52, 95
2, 66720, Note_on_c, 0, 49, 95
2, 66720, Note_on_c, 0, 45, 95
2, 67200, Note_off_c, 0, 69, 95
2, 67200, Note_off_c, 0, 61, 95
2, 67200, Note_off_c, 0, 57, 95
2, 67200, Note_off_c, 0, 52, 95
2, 67200, Note_off_c, 0, 49, 95
2, 67200, Note_off_c, 0, 45, 95
2, 67200, Note_on_c, 0, 66, 95
2, 67200, Note_on_c, 0, 62, 95
2, 67200, Note_on_c, 0, 57, 95
2, 67200, Note_on_c, 0, 54, 95
2, 67200, Note_on_c, 0, 50, 95
2, 68160, Note_off_c, 0, 66, 95
2, 68160, Note_off_c, 0, 62, 95
2, 68160, Note_off_c, 0, 57, 95
2, 68160, Note_off_c, 0, 54, 95
2, 68160, Note_off_c, 0, 50, 95
2, 68160, Note_on_c, 0, 66, 95
2, 68160, Note_on_c, 0, 62, 95
2, 68160, Note_on_c, 0, 57, 95
2, 68160, Note_on_c, 0, 54, 95
2, 68160, Note_on_c, 0, 50, 95
2, 68640, Note_off_c, 0, 66, 95
2, 68640, Note_off_c, 0, 62, 95
2, 68640, Note_off_c, 0, 57, 95
2, 68640, Note_off_c, 0, 54, 95
2, 68640, Note_off_c, 0, 50, 95
2, 68640, Note_on_c, 0, 66, 95
2, 68640, Note_on_c, 0, 61, 95
2, 68640, Note_on_c, 0, 57, 95
2, 68640, Note_on_c, 0, 52, 95
2, 69120, Note_off_c, 0, 66, 95
2, 69120, Note_off_c, 0, 61, 95
2, 69120, Note_off_c, 0, 57, 95
2, 69120, Note_off_c, 0, 52, 95
2, 69120, Note_on_c, 0, 69, 95
2, 69120, Note_on_c, 0, 61, 95
2, 69120, Note_on_c, 0, 57, 95
2, 69120, Note_on_c, 0, 52, 95
2, 69120, Note_on_c, 0, 49, 95
2, 69120, Note_on_c, 0, 45, 95
2, 72960, Note_off_c, 0, 69, 95
2, 72960, Note_off_c, 0, 61, 95
2, 72960, Note_off_c, 0, 57, 95
2, 72960, Note_off_c, 0, 52, 95
2, 72960, Note_off_c, 0, 49, 95
2, 72960, Note_off_c, 0, 45, 95
2, 72960, Note_on_c, 0, 69, 95
2, 72960, Note_on_c, 0, 64, 95
2, 72960, Note_on_c, 0, 57, 95
2, 72960, Note_on_c, 0, 52, 95
2, 72960, Note_on_c, 0, 49, 95
2, 72960, Note_on_c, 0, 45, 95
2, 73920, Note_off_c, 0, 69, 95
2, 73920, Note_off_c, 0, 64, 95
2, 73920, Note_off_c, 0, 57, 95
2, 73920, Note_off_c, 0, 52, 95
2, 73920, Note_off_c, 0, 49, 95
2, 73920, Note_off_c, 0, 45, 95
2, 73920, Note_on_c, 0, 69, 95
2, 73920, Note_on_c, 0, 64, 95
2, 73920, Note_on_c, 0, 57, 95
2, 73920, Note_on_c, 0, 52, 95
2, 73920, Note_on_c, 0, 49, 95
2, 73920, Note_on_c, 0, 45, 95
2, 74400, Note_off_c, 0, 69, 95
2, 74400, Note_off_c, 0, 64, 95
2, 74400, Note_off_c, 0, 57, 95
2, 74400, Note_off_c, 0, 52, 95
2, 74400, Note_off_c, 0, 49, 95
2, 74400, Note_off_c, 0, 45, 95
2, 74400, Note_on_c, 0, 69, 95
2, 74400, Note_on_c, 0, 64, 95
2, 74400, Note_on_c, 0, 57, 95
2, 74400, Note_on_c, 0, 52, 95
2, 74400, Note_on_c, 0, 49, 95
2, 74400, Note_on_c, 0, 45, 95
2, 74880, Note_off_c, 0, 69, 95
2, 74880, Note_off_c, 0, 64, 95
2, 74880, Note_off_c, 0, 57, 95
2, 74880, Note_off_c, 0, 52, 95
2, 74880, Note_off_c, 0, 49, 95
2, 74880, Note_off_c, 0, 45, 95
2, 74880, Note_on_c, 0, 69, 95
2, 74880, Note_on_c, 0, 64, 95
2, 74880, Note_on_c, 0, 57, 95
2, 74880, Note_on_c, 0, 52, 95
2, 74880, Note_on_c, 0, 49, 95
2, 74880, Note_on_c, 0, 45, 95
2, 75360, Note_off_c, 0, 69, 95
2, 75360, Note_off_c, 0, 64, 95
2, 75360, Note_off_c, 0, 57, 95
2, 75360, Note_off_c, 0, 52, 95
2, 75360, Note_off_c, 0, 49, 95
2, 75360, Note_off_c, 0, 45, 95
2, 75360, Note_on_c, 0, 69, 95
2, 75360, Note_on_c, 0, 64, 95
2, 75360, Note_on_c, 0, 57, 95
2, 75360, Note_on_c, 0, 52, 95
2, 75360, Note_on_c, 0, 49, 95
2, 75360, Note_on_c, 0, 45, 95
2, 75840, Note_off_c, 0, 69, 95
2, 75840, Note_off_c, 0, 64, 95
2, 75840, Note_off_c, 0, 57, 95
2, 75840, Note_off_c, 0, 52, 95
2, 75840, Note_off_c, 0, 49, 95
2, 75840, Note_off_c, 0, 45, 95
2, 75840, Note_on_c, 0, 69, 95
2, 75840, Note_on_c, 0, 64, 95
2, 75840, Note_on_c, 0, 57, 95
2, 75840, Note_on_c, 0, 52, 95
2, 75840, Note_on_c, 0, 49, 95
2, 75840, Note_on_c, 0, 45, 95
2, 76320, Note_off_c, 0, 69, 95
2, 76320, Note_off_c, 0, 64, 95
2, 76320, Note_off_c, 0, 57, 95
2, 76320, Note_off_c, 0, 52, 95
2, 76320, Note_off_c, 0, 49, 95
2, 76320, Note_off_c, 0, 45, 95
2, 76320, Note_on_c, 0, 69, 95
2, 76320, Note_on_c, 0, 64, 95
2, 76320, Note_on_c, 0, 57, 95
2, 76320, Note_on_c, 0, 52, 95
2, 76320, Note_on_c, 0, 49, 95
2, 76320, Note_on_c, 0, 45, 95
2, 76800, Note_off_c, 0, 69, 95
2, 76800, Note_off_c, 0, 64, 95
2, 76800, Note_off_c, 0, 57, 95
2, 76800, Note_off_c, 0, 52, 95
2, 76800, Note_off_c, 0, 49, 95
2, 76800, Note_off_c, 0, 45, 95
2, 76800, Note_on_c, 0, 69, 95
2, 76800, Note_on_c, 0, 64, 95
2, 76800, Note_on_c, 0, 57, 95
2, 76800, Note_on_c, 0, 52, 95
2, 76800, Note_on_c, 0, 49, 95
2, 76800, Note_on_c, 0, 45, 95
2, 77760, Note_off_c, 0, 69, 95
2, 77760, Note_off_c, 0, 64, 95
2, 77760, Note_off_c, 0, 57, 95
2, 77760, Note_off_c, 0, 52, 95
2, 77760, Note_off_c, 0, 49, 95
2, 77760, Note_off_c, 0, 45, 95
2, 77760, Note_on_c, 0, 69, 95
2, 77760, Note_on_c, 0, 64, 95
2, 77760, Note_on_c, 0, 57, 95
2, 77760, Note_on_c, 0, 52, 95
2, 77760, Note_on_c, 0, 49, 95
2, 77760, Note_on_c, 0, 45, 95
2, 78240, Note_off_c, 0, 69, 95
2, 78240, Note_off_c, 0, 64, 95
2, 78240, Note_off_c, 0, 57, 95
2, 78240, Note_off_c, 0, 52, 95
2, 78240, Note_off_c, 0, 49, 95
2, 78240, Note_off_c, 0, 45, 95
2, 78240, Note_on_c, 0, 69, 95
2, 78240, Note_on_c, 0, 64, 95
2, 78240, Note_on_c, 0, 57, 95
2, 78240, Note_on_c, 0, 52, 95
2, 78240, Note_on_c, 0, 49, 95
2, 78240, Note_on_c, 0, 45, 95
2, 78720, Note_off_c, 0, 69, 95
2, 78720, Note_off_c, 0, 64, 95
2, 78720, Note_off_c, 0, 57, 95
2, 78720, Note_off_c, 0, 52, 95
2, 78720, Note_off_c, 0, 49, 95
2, 78720, Note_off_c, 0, 45, 95
2, 78720, Note_on_c, 0, 69, 95
2, 78720, Note_on_c, 0, 64, 95
2, 78720, Note_on_c, 0, 57, 95
2, 78720, Note_on_c, 0, 52, 95
2, 78720, Note_on_c, 0, 49, 95
2, 78720, Note_on_c, 0, 45, 95
2, 79200, Note_off_c, 0, 69, 95
2, 79200, Note_off_c, 0, 64, 95
2, 79200, Note_off_c, 0, 57, 95
2, 79200, Note_off_c, 0, 52, 95
2, 79200, Note_off_c, 0, 49, 95
2, 79200, Note_off_c, 0, 45, 95
2, 79200, Note_on_c, 0, 69, 95
2, 79200, Note_on_c, 0, 64, 95
2, 79200, Note_on_c, 0, 57, 95
2, 79200, Note_on_c, 0, 52, 95
2, 79200, Note_on_c, 0, 49, 95
2, 79200, Note_on_c, 0, 45, 95
2, 79680, Note_off_c, 0, 69, 95
2, 79680, Note_off_c, 0, 64, 95
2, 79680, Note_off_c, 0, 57, 95
2, 79680, Note_off_c, 0, 52, 95
2, 79680, Note_off_c, 0, 49, 95
2, 79680, Note_off_c, 0, 45, 95
2, 79680, Note_on_c, 0, 69, 95
2, 79680, Note_on_c, 0, 64, 95
2, 79680, Note_on_c, 0, 57, 95
2, 79680, Note_on_c, 0, 52, 95
2, 79680, Note_on_c, 0, 49, 95
2, 79680, Note_on_c, 0, 45, 95
2, 80160, Note_off_c, 0, 69, 95
2, 80160, Note_off_c, 0, 64, 95
2, 80160, Note_off_c, 0, 57, 95
2, 80160, Note_off_c, 0, 52, 95
2, 80160, Note_off_c, 0, 49, 95
2, 80160, Note_off_c, 0, 45, 95
2, 80160, Note_on_c, 0, 69, 95
2, 80160, Note_on_c, 0, 64, 95
2, 80160, Note_on_c, 0, 57, 95
2, 80160, Note_on_c, 0, 52, 95
2, 80160, Note_on_c, 0, 49, 95
2, 80160, Note_on_c, 0, 45, 95
2, 80640, Note_off_c, 0, 69, 95
2, 80640, Note_off_c, 0, 64, 95
2, 80640, Note_off_c, 0, 57, 95
2, 80640, Note_off_c, 0, 52, 95
2, 80640, Note_off_c, 0, 49, 95
2, 80640, Note_off_c, 0, 45, 95
2, 80640, Note_on_c, 0, 68, 95
2, 80640, Note_on_c, 0, 64, 95
2, 80640, Note_on_c, 0, 61, 95
2, 80640, Note_on_c, 0, 56, 95
2, 80640, Note_on_c, 0, 49, 95
2, 81600, Note_off_c, 0, 68, 95
2, 81600, Note_off_c, 0, 64, 95
2, 81600, Note_off_c, 0, 61, 95
2, 81600, Note_off_c, 0, 56, 95
2, 81600, Note_off_c, 0, 49, 95
2, 81600, Note_on_c, 0, 68, 95
2, 81600, Note_on_c, 0, 64, 95
2, 81600, Note_on_c, 0, 61, 95
2, 81600, Note_on_c, 0, 56, 95
2, 81600, Note_on_c, 0, 49, 95
2, 82080, Note_off_c, 0, 68, 95
2, 82080, Note_off_c, 0, 64, 95
2, 82080, Note_off_c, 0, 61, 95
2, 82080, Note_off_c, 0, 56, 95
2, 82080, Note_off_c, 0, 49, 95
2, 82080, Note_on_c, 0, 68, 95
2, 82080, Note_on_c, 0, 64, 95
2, 82080, Note_on_c, 0, 61, 95
2, 82080, Note_on_c, 0, 56, 95
2, 82080, Note_on_c, 0, 49, 95
2, 83040, Note_off_c, 0, 68, 95
2, 83040, Note_off_c, 0, 64, 95
2, 83040, Note_off_c, 0, 61, 95
2, 83040, Note_off_c, 0, 56, 95
2, 83040, Note_off_c, 0, 49, 95
2, 83040, Note_on_c, 0, 68, 95
2, 83040, Note_on_c, 0, 64, 95
2, 83040, Note_on_c, 0, 61, 95
2, 83040, Note_on_c, 0, 56, 95
2, 83040, Note_on_c, 0, 49, 95
2, 84000, Note_off_c, 0, 68, 95
2, 84000, Note_off_c, 0, 64, 95
2, 84000, Note_off_c, 0, 61, 95
2, 84000, Note_off_c, 0, 56, 95
2, 84000, Note_off_c, 0, 49, 95
2, 84000, Note_on_c, 0, 68, 95
2, 84000, Note_on_c, 0, 64, 95
2, 84000, Note_on_c, 0, 61, 95
2, 84000, Note_on_c, 0, 56, 95
2, 84000, Note_on_c, 0, 49, 95
2, 84480, Note_off_c, 0, 68, 95
2, 84480, Note_off_c, 0, 64, 95
2, 84480, Note_off_c, 0, 61, 95
2, 84480, Note_off_c, 0, 56, 95
2, 84480, Note_off_c, 0, 49, 95
2, 84480, Note_on_c, 0, 68, 95
2, 84480, Note_on_c, 0, 64, 95
2, 84480, Note_on_c, 0, 61, 95
2, 84480, Note_on_c, 0, 56, 95
2, 84480, Note_on_c, 0, 49, 95
2, 85440, Note_off_c, 0, 68, 95
2, 85440, Note_off_c, 0, 64, 95
2, 85440, Note_off_c, 0, 61, 95
2, 85440, Note_off_c, 0, 56, 95
2, 85440, Note_off_c, 0, 49, 95
2, 85440, Note_on_c, 0, 68, 95
2, 85440, Note_on_c, 0, 64, 95
2, 85440, Note_on_c, 0, 61, 95
2, 85440, Note_on_c, 0, 56, 95
2, 85440, Note_on_c, 0, 49, 95
2, 85920, Note_off_c, 0, 68, 95
2, 85920, Note_off_c, 0, 64, 95
2, 85920, Note_off_c, 0, 61, 95
2, 85920, Note_off_c, 0, 56, 95
2, 85920, Note_off_c, 0, 49, 95
2, 85920, Note_on_c, 0, 68, 95
2, 85920, Note_on_c, 0, 64, 95
2, 85920, Note_on_c, 0, 61, 95
2, 85920, Note_on_c, 0, 56, 95
2, 85920, Note_on_c, 0, 49, 95
2, 86400, Note_off_c, 0, 68, 95
2, 86400, Note_off_c, 0, 64, 95
2, 86400, Note_off_c, 0, 61, 95
2, 86400, Note_off_c, 0, 56, 95
2, 86400, Note_off_c, 0, 49, 95
2, 86400, Note_on_c, 0, 68, 95
2, 86400, Note_on_c, 0, 64, 95
2, 86400, Note_on_c, 0, 61, 95
2, 86400, Note_on_c, 0, 56, 95
2, 86400, Note_on_c, 0, 49, 95
2, 86880, Note_off_c, 0, 68, 95
2, 86880, Note_off_c, 0, 64, 95
2, 86880, Note_off_c, 0, 61, 95
2, 86880, Note_off_c, 0, 56, 95
2, 86880, Note_off_c, 0, 49, 95
2, 86880, Note_on_c, 0, 68, 95
2, 86880, Note_on_c, 0, 64, 95
2, 86880, Note_on_c, 0, 61, 95
2, 86880, Note_on_c, 0, 56, 95
2, 86880, Note_on_c, 0, 49, 95
2, 87360, Note_off_c, 0, 68, 95
2, 87360, Note_off_c, 0, 64, 95
2, 87360, Note_off_c, 0, 61, 95
2, 87360, Note_off_c, 0, 56, 95
2, 87360, Note_off_c, 0, 49, 95
2, 87360, Note_on_c, 0, 68, 95
2, 87360, Note_on_c, 0, 64, 95
2, 87360, Note_on_c, 0, 61, 95
2, 87360, Note_on_c, 0, 56, 95
2, 87360, Note_on_c, 0, 49, 95
2, 87840, Note_off_c, 0, 68, 95
2, 87840, Note_off_c, 0, 64, 95
2, 87840, Note_off_c, 0, 61, 95
2, 87840, Note_off_c, 0, 56, 95
2, 87840, Note_off_c, 0, 49, 95
2, 87840, Note_on_c, 0, 68, 95
2, 87840, Note_on_c, 0, 64, 95
2, 87840, Note_on_c, 0, 61, 95
2, 87840, Note_on_c, 0, 56, 95
2, 87840, Note_on_c, 0, 49, 95
2, 88320, Note_off_c, 0, 68, 95
2, 88320, Note_off_c, 0, 64, 95
2, 88320, Note_off_c, 0, 61, 95
2, 88320, Note_off_c, 0, 56, 95
2, 88320, Note_off_c, 0, 49, 95
2, 88320, Note_on_c, 0, 66, 95
2, 88320, Note_on_c, 0, 62, 95
2, 88320, Note_on_c, 0, 57, 95
2, 88320, Note_on_c, 0, 54, 95
2, 88320, Note_on_c, 0, 50, 95
2, 89280, Note_off_c, 0, 66, 95
2, 89280, Note_off_c, 0, 62, 95
2, 89280, Note_off_c, 0, 57, 95
2, 89280, Note_off_c, 0, 54, 95
2, 89280, Note_off_c, 0, 50, 95
2, 89280, Note_on_c, 0, 66, 95
2, 89280, Note_on_c, 0, 62, 95
2, 89280, Note_on_c, 0, 57, 95
2, 89280, Note_on_c, 0, 54, 95
2, 89280, Note_on_c, 0, 50, 95
2, 89760, Note_off_c, 0, 66, 95
2, 89760, Note_off_c, 0, 62, 95
2, 89760, Note_off_c, 0, 57, 95
2, 89760, Note_off_c, 0, 54, 95
2, 89760, Note_off_c, 0, 50, 95
2, 89760, Note_on_c, 0, 66, 95
2, 89760, Note_on_c, 0, 62, 95
2, 89760, Note_on_c, 0, 57, 95
2, 89760, Note_on_c, 0, 54, 95
2, 89760, Note_on_c, 0, 50, 95
2, 90240, Note_off_c, 0, 66, 95
2, 90240, Note_off_c, 0, 62, 95
2, 90240, Note_off_c, 0, 57, 95
2, 90240, Note_off_c, 0, 54, 95
2, 90240, Note_off_c, 0, 50, 95
2, 90240, Note_on_c, 0, 66, 95
2, 90240, Note_on_c, 0, 62, 95
2, 90240, Note_on_c, 0, 57, 95
2, 90240, Note_on_c, 0, 54, 95
2, 90240, Note_on_c, 0, 50, 95
2, 90720, Note_off_c, 0, 66, 95
2, 90720, Note_off_c, 0, 62, 95
2, 90720, Note_off_c, 0, 57, 95
2, 90720, Note_off_c, 0, 54, 95
2, 90720, Note_off_c, 0, 50, 95
2, 90720, Note_on_c, 0, 66, 95
2, 90720, Note_on_c, 0, 62, 95
2, 90720, Note_on_c, 0, 57, 95
2, 90720, Note_on_c, 0, 54, 95
2, 90720, Note_on_c, 0, 50, 95
2, 91200, Note_off_c, 0, 66, 95
2, 91200, Note_off_c, 0, 62, 95
2, 91200, Note_off_c, 0, 57, 95
2, 91200, Note_off_c, 0, 54, 95
2, 91200, Note_off_c, 0, 50, 95
2, 91200, Note_on_c, 0, 66, 95
2, 91200, Note_on_c, 0, 62, 95
2, 91200, Note_on_c, 0, 57, 95
2, 91200, Note_on_c, 0, 54, 95
2, 91200, Note_on_c, 0, 50, 95
2, 91680, Note_off_c, 0, 66, 95
2, 91680, Note_off_c, 0, 62, 95
2, 91680, Note_off_c, 0, 57, 95
2, 91680, Note_off_c, 0, 54, 95
2, 91680, Note_off_c, 0, 50, 95
2, 91680, Note_on_c, 0, 66, 95
2, 91680, Note_on_c, 0, 62, 95
2, 91680, Note_on_c, 0, 57, 95
2, 91680, Note_on_c, 0, 54, 95
2, 91680, Note_on_c, 0, 50, 95
2, 92160, Note_off_c, 0, 66, 95
2, 92160, Note_off_c, 0, 62, 95
2, 92160, Note_off_c, 0, 57, 95
2, 92160, Note_off_c, 0, 54, 95
2, 92160, Note_off_c, 0, 50, 95
2, 92160, Note_on_c, 0, 66, 95
2, 92160, Note_on_c, 0, 62, 95
2, 92160, Note_on_c, 0, 57, 95
2, 92160, Note_on_c, 0, 54, 95
2, 92160, Note_on_c, 0, 50, 95
2, 92640, Note_off_c, 0, 66, 95
2, 92640, Note_off_c, 0, 62, 95
2, 92640, Note_off_c, 0, 57, 95
2, 92640, Note_off_c, 0, 54, 95
2, 92640, Note_off_c, 0, 50, 95
2, 92640, Note_on_c, 0, 66, 95
2, 92640, Note_on_c, 0, 62, 95
2, 92640, Note_on_c, 0, 57, 95
2, 92640, Note_on_c, 0, 54, 95
2, 92640, Note_on_c, 0, 50, 95
2, 93600, Note_off_c, 0, 66, 95
2, 93600, Note_off_c, 0, 62, 95
2, 93600, Note_off_c, 0, 57, 95
2, 93600, Note_off_c, 0, 54, 95
2, 93600, Note_off_c, 0, 50, 95
2, 93600, Note_on_c, 0, 66, 95
2, 93600, Note_on_c, 0, 62, 95
2, 93600, Note_on_c, 0, 57, 95
2, 93600, Note_on_c, 0, 54, 95
2, 93600, Note_on_c, 0, 50, 95
2, 94080, Note_off_c, 0, 66, 95
2, 94080, Note_off_c, 0, 62, 95
2, 94080, Note_off_c, 0, 57, 95
2, 94080, Note_off_c, 0, 54, 95
2, 94080, Note_off_c, 0, 50, 95
2, 94080, Note_on_c, 0, 66, 95
2, 94080, Note_on_c, 0, 62, 95
2, 94080, Note_on_c, 0, 57, 95
2, 94080, Note_on_c, 0, 54, 95
2, 94080, Note_on_c, 0, 50, 95
2, 94560, Note_off_c, 0, 66, 95
2, 94560, Note_off_c, 0, 62, 95
2, 94560, Note_off_c, 0, 57, 95
2, 94560, Note_off_c, 0, 54, 95
2, 94560, Note_off_c, 0, 50, 95
2, 94560, Note_on_c, 0, 66, 95
2, 94560, Note_on_c, 0, 62, 95
2, 94560, Note_on_c, 0, 57, 95
2, 94560, Note_on_c, 0, 54, 95
2, 94560, Note_on_c, 0, 50, 95
2, 95040, Note_off_c, 0, 66, 95
2, 95040, Note_off_c, 0, 62, 95
2, 95040, Note_off_c, 0, 57, 95
2, 95040, Note_off_c, 0, 54, 95
2, 95040, Note_off_c, 0, 50, 95
2, 95040, Note_on_c, 0, 66, 95
2, 95040, Note_on_c, 0, 62, 95
2, 95040, Note_on_c, 0, 57, 95
2, 95040, Note_on_c, 0, 54, 95
2, 95040, Note_on_c, 0, 50, 95
2, 95520, Note_off_c, 0, 66, 95
2, 95520, Note_off_c, 0, 62, 95
2, 95520, Note_off_c, 0, 57, 95
2, 95520, Note_off_c, 0, 54, 95
2, 95520, Note_off_c, 0, 50, 95
2, 95520, Note_on_c, 0, 66, 95
2, 95520, Note_on_c, 0, 62, 95
2, 95520, Note_on_c, 0, 57, 95
2, 95520, Note_on_c, 0, 54, 95
2, 95520, Note_on_c, 0, 50, 95
2, 96000, Note_off_c, 0, 66, 95
2, 96000, Note_off_c, 0, 62, 95
2, 96000, Note_off_c, 0, 57, 95
2, 96000, Note_off_c, 0, 54, 95
2, 96000, Note_off_c, 0, 50, 95
2, 96000, Note_on_c, 0, 68, 95
2, 96000, Note_on_c, 0, 64, 95
2, 96000, Note_on_c, 0, 59, 95
2, 96000, Note_on_c, 0, 52, 95
2, 96480, Note_off_c, 0, 68, 95
2, 96480, Note_off_c, 0, 64, 95
2, 96480, Note_off_c, 0, 59, 95
2, 96480, Note_off_c, 0, 52, 95
2, 96480, Note_on_c, 0, 68, 95
2, 96480, Note_on_c, 0, 64, 95
2, 96480, Note_on_c, 0, 59, 95
2, 96480, Note_on_c, 0, 52, 95
2, 96960, Note_off_c, 0, 68, 95
2, 96960, Note_off_c, 0, 64, 95
2, 96960, Note_off_c, 0, 59, 95
2, 96960, Note_off_c, 0, 52, 95
2, 96960, Note_on_c, 0, 68, 95
2, 96960, Note_on_c, 0, 64, 95
2, 96960, Note_on_c, 0, 59, 95
2, 96960, Note_on_c, 0, 52, 95
2, 97440, Note_off_c, 0, 68, 95
2, 97440, Note_off_c, 0, 64, 95
2, 97440, Note_off_c, 0, 59, 95
2, 97440, Note_off_c, 0, 52, 95
2, 97440, Note_on_c, 0, 68, 95
2, 97440, Note_on_c, 0, 64, 95
2, 97440, Note_on_c, 0, 59, 95
2, 97440, Note_on_c, 0, 52, 95
2, 97920, Note_off_c, 0, 68, 95
2, 97920, Note_off_c, 0, 64, 95
2, 97920, Note_off_c, 0, 59, 95
2, 97920, Note_off_c, 0, 52, 95
2, 97920, Note_on_c, 0, 68, 95
2, 97920, Note_on_c, 0, 64, 95
2, 97920, Note_on_c, 0, 59, 95
2, 97920, Note_on_c, 0, 52, 95
2, 98400, Note_off_c, 0, 68, 95
2, 98400, Note_off_c, 0, 64, 95
2, 98400, Note_off_c, 0, 59, 95
2, 98400, Note_off_c, 0, 52, 95
2, 98400, Note_on_c, 0, 68, 95
2, 98400, Note_on_c, 0, 64, 95
2, 98400, Note_on_c, 0, 59, 95
2, 98400, Note_on_c, 0, 52, 95
2, 98880, Note_off_c, 0, 68, 95
2, 98880, Note_off_c, 0, 64, 95
2, 98880, Note_off_c, 0, 59, 95
2, 98880, Note_off_c, 0, 52, 95
2, 98880, Note_on_c, 0, 68, 95
2, 98880, Note_on_c, 0, 64, 95
2, 98880, Note_on_c, 0, 59, 95
2, 98880, Note_on_c, 0, 52, 95
2, 99360, Note_off_c, 0, 68, 95
2, 99360, Note_off_c, 0, 64, 95
2, 99360, Note_off_c, 0, 59, 95
2, 99360, Note_off_c, 0, 52, 95
2, 99360, Note_on_c, 0, 68, 95
2, 99360, Note_on_c, 0, 64, 95
2, 99360, Note_on_c, 0, 59, 95
2, 99360, Note_on_c, 0, 52, 95
2, 99840, Note_off_c, 0, 68, 95
2, 99840, Note_off_c, 0, 64, 95
2, 99840, Note_off_c, 0, 59, 95
2, 99840, Note_off_c, 0, 52, 95
2, 99840, Note_on_c, 0, 68, 95
2, 99840, Note_on_c, 0, 64, 95
2, 99840, Note_on_c, 0, 59, 95
2, 99840, Note_on_c, 0, 52, 95
2, 100320, Note_off_c, 0, 68, 95
2, 100320, Note_off_c, 0, 64, 95
2, 100320, Note_off_c, 0, 59, 95
2, 100320, Note_off_c, 0, 52, 95
2, 100320, Note_on_c, 0, 68, 95
2, 100320, Note_on_c, 0, 64, 95
2, 100320, Note_on_c, 0, 59, 95
2, 100320, Note_on_c, 0, 52, 95
2, 100800, Note_off_c, 0, 68, 95
2, 100800, Note_off_c, 0, 64, 95
2, 100800, Note_off_c, 0, 59, 95
2, 100800, Note_off_c, 0, 52, 95
2, 100800, Note_on_c, 0, 68, 95
2, 100800, Note_on_c, 0, 64, 95
2, 100800, Note_on_c, 0, 59, 95
2, 100800, Note_on_c, 0, 52, 95
2, 101280, Note_off_c, 0, 68, 95
2, 101280, Note_off_c, 0, 64, 95
2, 101280, Note_off_c, 0, 59, 95
2, 101280, Note_off_c, 0, 52, 95
2, 101280, Note_on_c, 0, 68, 95
2, 101280, Note_on_c, 0, 64, 95
2, 101280, Note_on_c, 0, 59, 95
2, 101280, Note_on_c, 0, 52, 95
2, 101760, Note_off_c, 0, 68, 95
2, 101760, Note_off_c, 0, 64, 95
2, 101760, Note_off_c, 0, 59, 95
2, 101760, Note_off_c, 0, 52, 95
2, 101760, Note_on_c, 0, 68, 95
2, 101760, Note_on_c, 0, 64, 95
2, 101760, Note_on_c, 0, 59, 95
2, 101760, Note_on_c, 0, 52, 95
2, 102240, Note_off_c, 0, 68, 95
2, 102240, Note_off_c, 0, 64, 95
2, 102240, Note_off_c, 0, 59, 95
2, 102240, Note_off_c, 0, 52, 95
2, 102240, Note_on_c, 0, 68, 95
2, 102240, Note_on_c, 0, 64, 95
2, 102240, Note_on_c, 0, 59, 95
2, 102240, Note_on_c, 0, 52, 95
2, 102720, Note_off_c, 0, 68, 95
2, 102720, Note_off_c, 0, 64, 95
2, 102720, Note_off_c, 0, 59, 95
2, 102720, Note_off_c, 0, 52, 95
2, 102720, Note_on_c, 0, 68, 95
2, 102720, Note_on_c, 0, 64, 95
2, 102720, Note_on_c, 0, 59, 95
2, 102720, Note_on_c, 0, 52, 95
2, 103200, Note_off_c, 0, 68, 95
2, 103200, Note_off_c, 0, 64, 95
2, 103200, Note_off_c, 0, 59, 95
2, 103200, Note_off_c, 0, 52, 95
2, 103200, Note_on_c, 0, 68, 95
2, 103200, Note_on_c, 0, 64, 95
2, 103200, Note_on_c, 0, 59, 95
2, 103200, Note_on_c, 0, 52, 95
2, 103680, Note_off_c, 0, 68, 95
2, 103680, Note_off_c, 0, 64, 95
2, 103680, Note_off_c, 0, 59, 95
2, 103680, Note_off_c, 0, 52, 95
2, 103680, Note_on_c, 0, 66, 95
2, 103680, Note_on_c, 0, 63, 95
2, 103680, Note_on_c, 0, 59, 95
2, 103680, Note_on_c, 0, 54, 95
2, 103680, Note_on_c, 0, 47, 95
2, 104160, Note_off_c, 0, 66, 95
2, 104160, Note_off_c, 0, 63, 95
2, 104160, Note_off_c, 0, 59, 95
2, 104160, Note_off_c, 0, 54, 95
2, 104160, Note_off_c, 0, 47, 95
2, 104160, Note_on_c, 0, 66, 95
2, 104160, Note_on_c, 0, 63, 95
2, 104160, Note_on_c, 0, 59, 95
2, 104160, Note_on_c, 0, 54, 95
2, 104160, Note_on_c, 0, 47, 95
2, 104640, Note_off_c, 0, 66, 95
2, 104640, Note_off_c, 0, 63, 95
2, 104640, Note_off_c, 0, 59, 95
2, 104640, Note_off_c, 0, 54, 95
2, 104640, Note_off_c, 0, 47, 95
2, 104640, Note_on_c, 0, 66, 95
2, 104640, Note_on_c, 0, 63, 95
2, 104640, Note_on_c, 0, 59, 95
2, 104640, Note_on_c, 0, 54, 95
2, 104640, Note_on_c, 0, 47, 95
2, 105120, Note_off_c, 0, 66, 95
2, 105120, Note_off_c, 0, 63, 95
2, 105120, Note_off_c, 0, 59, 95
2, 105120, Note_off_c, 0, 54, 95
2, 105120, Note_off_c, 0, 47, 95
2, 105120, Note_on_c, 0, 66, 95
2, 105120, Note_on_c, 0, 63, 95
2, 105120, Note_on_c, 0, 59, 95
2, 105120, Note_on_c, 0, 54, 95
2, 105120, Note_on_c, 0, 47, 95
2, 105600, Note_off_c, 0, 66, 95
2, 105600, Note_off_c, 0, 63, 95
2, 105600, Note_off_c, 0, 59, 95
2, 105600, Note_off_c, 0, 54, 95
2, 105600, Note_off_c, 0, 47, 95
2, 105600, Note_on_c, 0, 66, 95
2, 105600, Note_on_c, 0, 63, 95
2, 105600, Note_on_c, 0, 59, 95
2, 105600, Note_on_c, 0, 54, 95
2, 105600, Note_on_c, 0, 47, 95
2, 106080, Note_off_c, 0, 66, 95
2, 106080, Note_off_c, 0, 63, 95
2, 106080, Note_off_c, 0, 59, 95
2, 106080, Note_off_c, 0, 54, 95
2, 106080, Note_off_c, 0, 47, 95
2, 106080, Note_on_c, 0, 66, 95
2, 106080, Note_on_c, 0, 63, 95
2, 106080, Note_on_c, 0, 59, 95
2, 106080, Note_on_c, 0, 54, 95
2, 106080, Note_on_c, 0, 47, 95
2, 106560, Note_off_c, 0, 66, 95
2, 106560, Note_off_c, 0, 63, 95
2, 106560, Note_off_c, 0, 59, 95
2, 106560, Note_off_c, 0, 54, 95
2, 106560, Note_off_c, 0, 47, 95
2, 106560, Note_on_c, 0, 66, 95
2, 106560, Note_on_c, 0, 63, 95
2, 106560, Note_on_c, 0, 59, 95
2, 106560, Note_on_c, 0, 54, 95
2, 106560, Note_on_c, 0, 47, 95
2, 107040, Note_off_c, 0, 66, 95
2, 107040, Note_off_c, 0, 63, 95
2, 107040, Note_off_c, 0, 59, 95
2, 107040, Note_off_c, 0, 54, 95
2, 107040, Note_off_c, 0, 47, 95
2, 107040, Note_on_c, 0, 66, 95
2, 107040, Note_on_c, 0, 63, 95
2, 107040, Note_on_c, 0, 59, 95
2, 107040, Note_on_c, 0, 54, 95
2, 107040, Note_on_c, 0, 47, 95
2, 107520, Note_off_c, 0, 66, 95
2, 107520, Note_off_c, 0, 63, 95
2, 107520, Note_off_c, 0, 59, 95
2, 107520, Note_off_c, 0, 54, 95
2, 107520, Note_off_c, 0, 47, 95
2, 107520, Note_on_c, 0, 66, 95
2, 107520, Note_on_c, 0, 63, 95
2, 107520, Note_on_c, 0, 59, 95
2, 107520, Note_on_c, 0, 54, 95
2, 107520, Note_on_c, 0, 47, 95
2, 108000, Note_off_c, 0, 66, 95
2, 108000, Note_off_c, 0, 63, 95
2, 108000, Note_off_c, 0, 59, 95
2, 108000, Note_off_c, 0, 54, 95
2, 108000, Note_off_c, 0, 47, 95
2, 108000, Note_on_c, 0, 66, 95
2, 108000, Note_on_c, 0, 63, 95
2, 108000, Note_on_c, 0, 59, 95
2, 108000, Note_on_c, 0, 54, 95
2, 108000, Note_on_c, 0, 47, 95
2, 108480, Note_off_c, 0, 66, 95
2, 108480, Note_off_c, 0, 63, 95
2, 108480, Note_off_c, 0, 59, 95
2, 108480, Note_off_c, 0, 54, 95
2, 108480, Note_off_c, 0, 47, 95
2, 108480, Note_on_c, 0, 66, 95
2, 108480, Note_on_c, 0, 63, 95
2, 108480, Note_on_c, 0, 59, 95
2, 108480, Note_on_c, 0, 54, 95
2, 108480, Note_on_c, 0, 47, 95
2, 108960, Note_off_c, 0, 66, 95
2, 108960, Note_off_c, 0, 63, 95
2, 108960, Note_off_c, 0, 59, 95
2, 108960, Note_off_c, 0, 54, 95
2, 108960, Note_off_c, 0, 47, 95
2, 108960, Note_on_c, 0, 66, 95
2, 108960, Note_on_c, 0, 63, 95
2, 108960, Note_on_c, 0, 59, 95
2, 108960, Note_on_c, 0, 54, 95
2, 108960, Note_on_c, 0, 47, 95
2, 109440, Note_off_c, 0, 66, 95
2, 109440, Note_off_c, 0, 63, 95
2, 109440, Note_off_c, 0, 59, 95
2, 109440, Note_off_c, 0, 54, 95
2, 109440, Note_off_c, 0, 47, 95
2, 109440, Note_on_c, 0, 66, 95
2, 109440, Note_on_c, 0, 63, 95
2, 109440, Note_on_c, 0, 59, 95
2, 109440, Note_on_c, 0, 54, 95
2, 109440, Note_on_c, 0, 47, 95
2, 109920, Note_off_c, 0, 66, 95
2, 109920, Note_off_c, 0, 63, 95
2, 109920, Note_off_c, 0, 59, 95
2, 109920, Note_off_c, 0, 54, 95
2, 109920, Note_off_c, 0, 47, 95
2, 109920, Note_on_c, 0, 66, 95
2, 109920, Note_on_c, 0, 63, 95
2, 109920, Note_on_c, 0, 59, 95
2, 109920, Note_on_c, 0, 54, 95
2, 109920, Note_on_c, 0, 47, 95
2, 110400, Note_off_c, 0, 66, 95
2, 110400, Note_off_c, 0, 63, 95
2, 110400, Note_off_c, 0, 59, 95
2, 110400, Note_off_c, 0, 54, 95
2, 110400, Note_off_c, 0, 47, 95
2, 110400, Note_on_c, 0, 66, 95
2, 110400, Note_on_c, 0, 63, 95
2, 110400, Note_on_c, 0, 59, 95
2, 110400, Note_on_c, 0, 54, 95
2, 110400, Note_on_c, 0, 47, 95
2, 110880, Note_off_c, 0, 66, 95
2, 110880, Note_off_c, 0, 63, 95
2, 110880, Note_off_c, 0, 59, 95
2, 110880, Note_off_c, 0, 54, 95
2, 110880, Note_off_c, 0, 47, 95
2, 110880, Note_on_c, 0, 66, 95
2, 110880, Note_on_c, 0, 63, 95
2, 110880, Note_on_c, 0, 59, 95
2, 110880, Note_on_c, 0, 54, 95
2, 110880, Note_on_c, 0, 47, 95
2, 111360, Note_off_c, 0, 66, 95
2, 111360, Note_off_c, 0, 63, 95
2, 111360, Note_off_c, 0, 59, 95
2, 111360, Note_off_c, 0, 54, 95
2, 111360, Note_off_c, 0, 47, 95
2, 111360, Note_on_c, 0, 68, 95
2, 111360, Note_on_c, 0, 64, 95
2, 111360, Note_on_c, 0, 61, 95
2, 111360, Note_on_c, 0, 56, 95
2, 111360, Note_on_c, 0, 49, 95
2, 111840, Note_off_c, 0, 68, 95
2, 111840, Note_off_c, 0, 64, 95
2, 111840, Note_off_c, 0, 61, 95
2, 111840, Note_off_c, 0, 56, 95
2, 111840, Note_off_c, 0, 49, 95
2, 111840, Note_on_c, 0, 68, 95
2, 111840, Note_on_c, 0, 64, 95
2, 111840, Note_on_c, 0, 61, 95
2, 111840, Note_on_c, 0, 56, 95
2, 111840, Note_on_c, 0, 49, 95
2, 112320, Note_off_c, 0, 68, 95
2, 112320, Note_off_c, 0, 64, 95
2, 112320, Note_off_c, 0, 61, 95
2, 112320, Note_off_c, 0, 56, 95
2, 112320, Note_off_c, 0, 49, 95
2, 112320, Note_on_c, 0, 68, 95
2, 112320, Note_on_c, 0, 64, 95
2, 112320, Note_on_c, 0, 61, 95
2, 112320, Note_on_c, 0, 56, 95
2, 112320, Note_on_c, 0, 49, 95
2, 112800, Note_off_c, 0, 68, 95
2, 112800, Note_off_c, 0, 64, 95
2, 112800, Note_off_c, 0, 61, 95
2, 112800, Note_off_c, 0, 56, 95
2, 112800, Note_off_c, 0, 49, 95
2, 112800, Note_on_c, 0, 68, 95
2, 112800, Note_on_c, 0, 64, 95
2, 112800, Note_on_c, 0, 61, 95
2, 112800, Note_on_c, 0, 56, 95
2, 112800, Note_on_c, 0, 49, 95
2, 113280, Note_off_c, 0, 68, 95
2, 113280, Note_off_c, 0, 64, 95
2, 113280, Note_off_c, 0, 61, 95
2, 113280, Note_off_c, 0, 56, 95
2, 113280, Note_off_c, 0, 49, 95
2, 113280, Note_on_c, 0, 68, 95
2, 113280, Note_on_c, 0, 64, 95
2, 113280, Note_on_c, 0, 61, 95
2, 113280, Note_on_c, 0, 56, 95
2, 113280, Note_on_c, 0, 49, 95
2, 113760, Note_off_c, 0, 68, 95
2, 113760, Note_off_c, 0, 64, 95
2, 113760, Note_off_c, 0, 61, 95
2, 113760, Note_off_c, 0, 56, 95
2, 113760, Note_off_c, 0, 49, 95
2, 113760, Note_on_c, 0, 68, 95
2, 113760, Note_on_c, 0, 64, 95
2, 113760, Note_on_c, 0, 61, 95
2, 113760, Note_on_c, 0, 56, 95
2, 113760, Note_on_c, 0, 49, 95
2, 114240, Note_off_c, 0, 68, 95
2, 114240, Note_off_c, 0, 64, 95
2, 114240, Note_off_c, 0, 61, 95
2, 114240, Note_off_c, 0, 56, 95
2, 114240, Note_off_c, 0, 49, 95
2, 114240, Note_on_c, 0, 68, 95
2, 114240, Note_on_c, 0, 64, 95
2, 114240, Note_on_c, 0, 61, 95
2, 114240, Note_on_c, 0, 56, 95
2, 114240, Note_on_c, 0, 49, 95
2, 114720, Note_off_c, 0, 68, 95
2, 114720, Note_off_c, 0, 64, 95
2, 114720, Note_off_c, 0, 61, 95
2, 114720, Note_off_c, 0, 56, 95
2, 114720, Note_off_c, 0, 49, 95
2, 114720, Note_on_c, 0, 68, 95
2, 114720, Note_on_c, 0, 64, 95
2, 114720, Note_on_c, 0, 61, 95
2, 114720, Note_on_c, 0, 56, 95
2, 114720, Note_on_c, 0, 49, 95
2, 115200, Note_off_c, 0, 68, 95
2, 115200, Note_off_c, 0, 64, 95
2, 115200, Note_off_c, 0, 61, 95
2, 115200, Note_off_c, 0, 56, 95
2, 115200, Note_off_c, 0, 49, 95
2, 115200, Note_on_c, 0, 68, 95
2, 115200, Note_on_c, 0, 64, 95
2, 115200, Note_on_c, 0, 61, 95
2, 115200, Note_on_c, 0, 56, 95
2, 115200, Note_on_c, 0, 49, 95
2, 115680, Note_off_c, 0, 68, 95
2, 115680, Note_off_c, 0, 64, 95
2, 115680, Note_off_c, 0, 61, 95
2, 115680, Note_off_c, 0, 56, 95
2, 115680, Note_off_c, 0, 49, 95
2, 115680, Note_on_c, 0, 68, 95
2, 115680, Note_on_c, 0, 64, 95
2, 115680, Note_on_c, 0, 61, 95
2, 115680, Note_on_c, 0, 56, 95
2, 115680, Note_on_c, 0, 49, 95
2, 116160, Note_off_c, 0, 68, 95
2, 116160, Note_off_c, 0, 64, 95
2, 116160, Note_off_c, 0, 61, 95
2, 116160, Note_off_c, 0, 56, 95
2, 116160, Note_off_c, 0, 49, 95
2, 116160, Note_on_c, 0, 68, 95
2, 116160, Note_on_c, 0, 64, 95
2, 116160, Note_on_c, 0, 61, 95
2, 116160, Note_on_c, 0, 56, 95
2, 116160, Note_on_c, 0, 49, 95
2, 116640, Note_off_c, 0, 68, 95
2, 116640, Note_off_c, 0, 64, 95
2, 116640, Note_off_c, 0, 61, 95
2, 116640, Note_off_c, 0, 56, 95
2, 116640, Note_off_c, 0, 49, 95
2, 116640, Note_on_c, 0, 68, 95
2, 116640, Note_on_c, 0, 64, 95
2, 116640, Note_on_c, 0, 61, 95
2, 116640, Note_on_c, 0, 56, 95
2, 116640, Note_on_c, 0, 49, 95
2, 117120, Note_off_c, 0, 68, 95
2, 117120, Note_off_c, 0, 64, 95
2, 117120, Note_off_c, 0, 61, 95
2, 117120, Note_off_c, 0, 56, 95
2, 117120, Note_off_c, 0, 49, 95
2, 117120, Note_on_c, 0, 68, 95
2, 117120, Note_on_c, 0, 64, 95
2, 117120, Note_on_c, 0, 61, 95
2, 117120, Note_on_c, 0, 56, 95
2, 117120, Note_on_c, 0, 49, 95
2, 117600, Note_off_c, 0, 68, 95
2, 117600, Note_off_c, 0, 64, 95
2, 117600, Note_off_c, 0, 61, 95
2, 117600, Note_off_c, 0, 56, 95
2, 117600, Note_off_c, 0, 49, 95
2, 117600, Note_on_c, 0, 68, 95
2, 117600, Note_on_c, 0, 64, 95
2, 117600, Note_on_c, 0, 61, 95
2, 117600, Note_on_c, 0, 56, 95
2, 117600, Note_on_c, 0, 49, 95
2, 118080, Note_off_c, 0, 68, 95
2, 118080, Note_off_c, 0, 64, 95
2, 118080, Note_off_c, 0, 61, 95
2, 118080, Note_off_c, 0, 56, 95
2, 118080, Note_off_c, 0, 49, 95
2, 118080, Note_on_c, 0, 68, 95
2, 118080, Note_on_c, 0, 64, 95
2, 118080, Note_on_c, 0, 61, 95
2, 118080, Note_on_c, 0, 56, 95
2, 118080, Note_on_c, 0, 49, 95
2, 118560, Note_off_c, 0, 68, 95
2, 118560, Note_off_c, 0, 64, 95
2, 118560, Note_off_c, 0, 61, 95
2, 118560, Note_off_c, 0, 56, 95
2, 118560, Note_off_c, 0, 49, 95
2, 118560, Note_on_c, 0, 68, 95
2, 118560, Note_on_c, 0, 64, 95
2, 118560, Note_on_c, 0, 61, 95
2, 118560, Note_on_c, 0, 56, 95
2, 118560, Note_on_c, 0, 49, 95
2, 119040, Note_off_c, 0, 68, 95
2, 119040, Note_off_c, 0, 64, 95
2, 119040, Note_off_c, 0, 61, 95
2, 119040, Note_off_c, 0, 56, 95
2, 119040, Note_off_c, 0, 49, 95
2, 119040, Note_on_c, 0, 66, 95
2, 119040, Note_on_c, 0, 62, 95
2, 119040, Note_on_c, 0, 57, 95
2, 119040, Note_on_c, 0, 54, 95
2, 119040, Note_on_c, 0, 50, 95
2, 119520, Note_off_c, 0, 66, 95
2, 119520, Note_off_c, 0, 62, 95
2, 119520, Note_off_c, 0, 57, 95
2, 119520, Note_off_c, 0, 54, 95
2, 119520, Note_off_c, 0, 50, 95
2, 119520, Note_on_c, 0, 66, 95
2, 119520, Note_on_c, 0, 62, 95
2, 119520, Note_on_c, 0, 57, 95
2, 119520, Note_on_c, 0, 54, 95
2, 119520, Note_on_c, 0, 50, 95
2, 120000, Note_off_c, 0, 66, 95
2, 120000, Note_off_c, 0, 62, 95
2, 120000, Note_off_c, 0, 57, 95
2, 120000, Note_off_c, 0, 54, 95
2, 120000, Note_off_c, 0, 50, 95
2, 120000, Note_on_c, 0, 66, 95
2, 120000, Note_on_c, 0, 62, 95
2, 120000, Note_on_c, 0, 57, 95
2, 120000, Note_on_c, 0, 54, 95
2, 120000, Note_on_c, 0, 50, 95
2, 120480, Note_off_c, 0, 66, 95
2, 120480, Note_off_c, 0, 62, 95
2, 120480, Note_off_c, 0, 57, 95
2, 120480, Note_off_c, 0, 54, 95
2, 120480, Note_off_c, 0, 50, 95
2, 120480, Note_on_c, 0, 66, 95
2, 120480, Note_on_c, 0, 62, 95
2, 120480, Note_on_c, 0, 57, 95
2, 120480, Note_on_c, 0, 54, 95
2, 120480, Note_on_c, 0, 50, 95
2, 120960, Note_off_c, 0, 66, 95
2, 120960, Note_off_c, 0, 62, 95
2, 120960, Note_off_c, 0, 57, 95
2, 120960, Note_off_c, 0, 54, 95
2, 120960, Note_off_c, 0, 50, 95
2, 120960, Note_on_c, 0, 66, 95
2, 120960, Note_on_c, 0, 62, 95
2, 120960, Note_on_c, 0, 57, 95
2, 120960, Note_on_c, 0, 54, 95
2, 120960, Note_on_c, 0, 50, 95
2, 121440, Note_off_c, 0, 66, 95
2, 121440, Note_off_c, 0, 62, 95
2, 121440, Note_off_c, 0, 57, 95
2, 121440, Note_off_c, 0, 54, 95
2, 121440, Note_off_c, 0, 50, 95
2, 121440, Note_on_c, 0, 66, 95
2, 121440, Note_on_c, 0, 62, 95
2, 121440, Note_on_c, 0, 57, 95
2, 121440, Note_on_c, 0, 54, 95
2, 121440, Note_on_c, 0, 50, 95
2, 121920, Note_off_c, 0, 66, 95
2, 121920, Note_off_c, 0, 62, 95
2, 121920, Note_off_c, 0, 57, 95
2, 121920, Note_off_c, 0, 54, 95
2, 121920, Note_off_c, 0, 50, 95
2, 121920, Note_on_c, 0, 66, 95
2, 121920, Note_on_c, 0, 62, 95
2, 121920, Note_on_c, 0, 57, 95
2, 121920, Note_on_c, 0, 54, 95
2, 121920, Note_on_c, 0, 50, 95
2, 122400, Note_off_c, 0, 66, 95
2, 122400, Note_off_c, 0, 62, 95
2, 122400, Note_off_c, 0, 57, 95
2, 122400, Note_off_c, 0, 54, 95
2, 122400, Note_off_c, 0, 50, 95
2, 122400, Note_on_c, 0, 66, 95
2, 122400, Note_on_c, 0, 62, 95
2, 122400, Note_on_c, 0, 57, 95
2, 122400, Note_on_c, 0, 54, 95
2, 122400, Note_on_c, 0, 50, 95
2, 122880, Note_off_c, 0, 66, 95
2, 122880, Note_off_c, 0, 62, 95
2, 122880, Note_off_c, 0, 57, 95
2, 122880, Note_off_c, 0, 54, 95
2, 122880, Note_off_c, 0, 50, 95
2, 122880, Note_on_c, 0, 66, 95
2, 122880, Note_on_c, 0, 62, 95
2, 122880, Note_on_c, 0, 57, 95
2, 122880, Note_on_c, 0, 54, 95
2, 122880, Note_on_c, 0, 50, 95
2, 123360, Note_off_c, 0, 66, 95
2, 123360, Note_off_c, 0, 62, 95
2, 123360, Note_off_c, 0, 57, 95
2, 123360, Note_off_c, 0, 54, 95
2, 123360, Note_off_c, 0, 50, 95
2, 123360, Note_on_c, 0, 66, 95
2, 123360, Note_on_c, 0, 62, 95
2, 123360, Note_on_c, 0, 57, 95
2, 123360, Note_on_c, 0, 54, 95
2, 123360, Note_on_c, 0, 50, 95
2, 123840, Note_off_c, 0, 66, 95
2, 123840, Note_off_c, 0, 62, 95
2, 123840, Note_off_c, 0, 57, 95
2, 123840, Note_off_c, 0, 54, 95
2, 123840, Note_off_c, 0, 50, 95
2, 123840, Note_on_c, 0, 66, 95
2, 123840, Note_on_c, 0, 62, 95
2, 123840, Note_on_c, 0, 57, 95
2, 123840, Note_on_c, 0, 54, 95
2, 123840, Note_on_c, 0, 50, 95
2, 124320, Note_off_c, 0, 66, 95
2, 124320, Note_off_c, 0, 62, 95
2, 124320, Note_off_c, 0, 57, 95
2, 124320, Note_off_c, 0, 54, 95
2, 124320, Note_off_c, 0, 50, 95
2, 124320, Note_on_c, 0, 66, 95
2, 124320, Note_on_c, 0, 62, 95
2, 124320, Note_on_c, 0, 57, 95
2, 124320, Note_on_c, 0, 54, 95
2, 124320, Note_on_c, 0, 50, 95
2, 124800, Note_off_c, 0, 66, 95
2, 124800, Note_off_c, 0, 62, 95
2, 124800, Note_off_c, 0, 57, 95
2, 124800, Note_off_c, 0, 54, 95
2, 124800, Note_off_c, 0, 50, 95
2, 124800, Note_on_c, 0, 66, 95
2, 124800, Note_on_c, 0, 62, 95
2, 124800, Note_on_c, 0, 57, 95
2, 124800, Note_on_c, 0, 54, 95
2, 124800, Note_on_c, 0, 50, 95
2, 125280, Note_off_c, 0, 66, 95
2, 125280, Note_off_c, 0, 62, 95
2, 125280, Note_off_c, 0, 57, 95
2, 125280, Note_off_c, 0, 54, 95
2, 125280, Note_off_c, 0, 50, 95
2, 125280, Note_on_c, 0, 66, 95
2, 125280, Note_on_c, 0, 62, 95
2, 125280, Note_on_c, 0, 57, 95
2, 125280, Note_on_c, 0, 54, 95
2, 125280, Note_on_c, 0, 50, 95
2, 125760, Note_off_c, 0, 66, 95
2, 125760, Note_off_c, 0, 62, 95
2, 125760, Note_off_c, 0, 57, 95
2, 125760, Note_off_c, 0, 54, 95
2, 125760, Note_off_c, 0, 50, 95
2, 125760, Note_on_c, 0, 66, 95
2, 125760, Note_on_c, 0, 62, 95
2, 125760, Note_on_c, 0, 57, 95
2, 125760, Note_on_c, 0, 54, 95
2, 125760, Note_on_c, 0, 50, 95
2, 126240, Note_off_c, 0, 66, 95
2, 126240, Note_off_c, 0, 62, 95
2, 126240, Note_off_c, 0, 57, 95
2, 126240, Note_off_c, 0, 54, 95
2, 126240, Note_off_c, 0, 50, 95
2, 126240, Note_on_c, 0, 66, 95
2, 126240, Note_on_c, 0, 62, 95
2, 126240, Note_on_c, 0, 57, 95
2, 126240, Note_on_c, 0, 54, 95
2, 126240, Note_on_c, 0, 50, 95
2, 126720, Note_off_c, 0, 66, 95
2, 126720, Note_off_c, 0, 62, 95
2, 126720, Note_off_c, 0, 57, 95
2, 126720, Note_off_c, 0, 54, 95
2, 126720, Note_off_c, 0, 50, 95
2, 126720, Note_on_c, 0, 68, 95
2, 126720, Note_on_c, 0, 64, 95
2, 126720, Note_on_c, 0, 59, 95
2, 126720, Note_on_c, 0, 52, 95
2, 127200, Note_off_c, 0, 68, 95
2, 127200, Note_off_c, 0, 64, 95
2, 127200, Note_off_c, 0, 59, 95
2, 127200, Note_off_c, 0, 52, 95
2, 127200, Note_on_c, 0, 68, 95
2, 127200, Note_on_c, 0, 64, 95
2, 127200, Note_on_c, 0, 59, 95
2, 127200, Note_on_c, 0, 52, 95
2, 127680, Note_off_c, 0, 68, 95
2, 127680, Note_off_c, 0, 64, 95
2, 127680, Note_off_c, 0, 59, 95
2, 127680, Note_off_c, 0, 52, 95
2, 127680, Note_on_c, 0, 68, 95
2, 127680, Note_on_c, 0, 64, 95
2, 127680, Note_on_c, 0, 59, 95
2, 127680, Note_on_c, 0, 52, 95
2, 128160, Note_off_c, 0, 68, 95
2, 128160, Note_off_c, 0, 64, 95
2, 128160, Note_off_c, 0, 59, 95
2, 128160, Note_off_c, 0, 52, 95
2, 128160, Note_on_c, 0, 68, 95
2, 128160, Note_on_c, 0, 64, 95
2, 128160, Note_on_c, 0, 59, 95
2, 128160, Note_on_c, 0, 52, 95
2, 128640, Note_off_c, 0, 68, 95
2, 128640, Note_off_c, 0, 64, 95
2, 128640, Note_off_c, 0, 59, 95
2, 128640, Note_off_c, 0, 52, 95
2, 128640, Note_on_c, 0, 68, 95
2, 128640, Note_on_c, 0, 64, 95
2, 128640, Note_on_c, 0, 59, 95
2, 128640, Note_on_c, 0, 52, 95
2, 129120, Note_off_c, 0, 68, 95
2, 129120, Note_off_c, 0, 64, 95
2, 129120, Note_off_c, 0, 59, 95
2, 129120, Note_off_c, 0, 52, 95
2, 129120, Note_on_c, 0, 68, 95
2, 129120, Note_on_c, 0, 64, 95
2, 129120, Note_on_c, 0, 59, 95
2, 129120, Note_on_c, 0, 52, 95
2, 129600, Note_off_c, 0, 68, 95
2, 129600, Note_off_c, 0, 64, 95
2, 129600, Note_off_c, 0, 59, 95
2, 129600, Note_off_c, 0, 52, 95
2, 129600, Note_on_c, 0, 68, 95
2, 129600, Note_on_c, 0, 64, 95
2, 129600, Note_on_c, 0, 59, 95
2, 129600, Note_on_c, 0, 52, 95
2, 130080, Note_off_c, 0, 68, 95
2, 130080, Note_off_c, 0, 64, 95
2, 130080, Note_off_c, 0, 59, 95
2, 130080, Note_off_c, 0, 52, 95
2, 130080, Note_on_c, 0, 68, 95
2, 130080, Note_on_c, 0, 64, 95
2, 130080, Note_on_c, 0, 59, 95
2, 130080, Note_on_c, 0, 52, 95
2, 130560, Note_off_c, 0, 68, 95
2, 130560, Note_off_c, 0, 64, 95
2, 130560, Note_off_c, 0, 59, 95
2, 130560, Note_off_c, 0, 52, 95
2, 130560, Note_on_c, 0, 68, 95
2, 130560, Note_on_c, 0, 64, 95
2, 130560, Note_on_c, 0, 59, 95
2, 130560, Note_on_c, 0, 52, 95
2, 131040, Note_off_c, 0, 68, 95
2, 131040, Note_off_c, 0, 64, 95
2, 131040, Note_off_c, 0, 59, 95
2, 131040, Note_off_c, 0, 52, 95
2, 131040, Note_on_c, 0, 68, 95
2, 131040, Note_on_c, 0, 64, 95
2, 131040, Note_on_c, 0, 59, 95
2, 131040, Note_on_c, 0, 52, 95
2, 131520, Note_off_c, 0, 68, 95
2, 131520, Note_off_c, 0, 64, 95
2, 131520, Note_off_c, 0, 59, 95
2, 131520, Note_off_c, 0, 52, 95
2, 131520, Note_on_c, 0, 68, 95
2, 131520, Note_on_c, 0, 64, 95
2, 131520, Note_on_c, 0, 59, 95
2, 131520, Note_on_c, 0, 52, 95
2, 132000, Note_off_c, 0, 68, 95
2, 132000, Note_off_c, 0, 64, 95
2, 132000, Note_off_c, 0, 59, 95
2, 132000, Note_off_c, 0, 52, 95
2, 132000, Note_on_c, 0, 68, 95
2, 132000, Note_on_c, 0, 64, 95
2, 132000, Note_on_c, 0, 59, 95
2, 132000, Note_on_c, 0, 52, 95
2, 132480, Note_off_c, 0, 68, 95
2, 132480, Note_off_c, 0, 64, 95
2, 132480, Note_off_c, 0, 59, 95
2, 132480, Note_off_c, 0, 52, 95
2, 132480, Note_on_c, 0, 68, 95
2, 132480, Note_on_c, 0, 64, 95
2, 132480, Note_on_c, 0, 59, 95
2, 132480, Note_on_c, 0, 52, 95
2, 132960, Note_off_c, 0, 68, 95
2, 132960, Note_off_c, 0, 64, 95
2, 132960, Note_off_c, 0, 59, 95
2, 132960, Note_off_c, 0, 52, 95
2, 132960, Note_on_c, 0, 68, 95
2, 132960, Note_on_c, 0, 64, 95
2, 132960, Note_on_c, 0, 59, 95
2, 132960, Note_on_c, 0, 52, 95
2, 133440, Note_off_c, 0, 68, 95
2, 133440, Note_off_c, 0, 64, 95
2, 133440, Note_off_c, 0, 59, 95
2, 133440, Note_off_c, 0, 52, 95
2, 133440, Note_on_c, 0, 68, 95
2, 133440, Note_on_c, 0, 64, 95
2, 133440, Note_on_c, 0, 59, 95
2, 133440, Note_on_c, 0, 52, 95
2, 133920, Note_off_c, 0, 68, 95
2, 133920, Note_off_c, 0, 64, 95
2, 133920, Note_off_c, 0, 59, 95
2, 133920, Note_off_c, 0, 52, 95
2, 133920, Note_on_c, 0, 68, 95
2, 133920, Note_on_c, 0, 64, 95
2, 133920, Note_on_c, 0, 59, 95
2, 133920, Note_on_c, 0, 52, 95
2, 134400, Note_off_c, 0, 68, 95
2, 134400, Note_off_c, 0, 64, 95
2, 134400, Note_off_c, 0, 59, 95
2, 134400, Note_off_c, 0, 52, 95
2, 134400, Note_on_c, 0, 52, 95
2, 134400, Note_on_c, 0, 49, 95
2, 134400, Note_on_c, 0, 45, 95
2, 134514, Note_off_c, 0, 52, 95
2, 134514, Note_off_c, 0, 49, 95
2, 134514, Note_off_c, 0, 45, 95
2, 135360, Note_on_c, 0, 61, 95
2, 135360, Note_on_c, 0, 57, 95
2, 135360, Note_on_c, 0, 52, 95
2, 135474, Note_off_c, 0, 61, 95
2, 135474, Note_off_c, 0, 57, 95
2, 135474, Note_off_c, 0, 52, 95
2, 135840, Note_on_c, 0, 52, 95
2, 135840, Note_on_c, 0, 49, 95
2, 135840, Note_on_c, 0, 45, 95
2, 135954, Note_off_c, 0, 52, 95
2, 135954, Note_off_c, 0, 49, 95
2, 135954, Note_off_c, 0, 45, 95
2, 136320, Note_on_c, 0, 57, 95
2, 136320, Note_on_c, 0, 54, 95
2, 136320, Note_on_c, 0, 50, 95
2, 136434, Note_off_c, 0, 57, 95
2, 136434, Note_off_c, 0, 50, 95
2, 137280, Note_off_c, 0, 54, 95
2, 137280, Note_on_c, 0, 66, 95
2, 137280, Note_on_c, 0, 62, 95
2, 137280, Note_on_c, 0, 57, 95
2, 137394, Note_off_c, 0, 66, 95
2, 137394, Note_off_c, 0, 62, 95
2, 137394, Note_off_c, 0, 57, 95
2, 137760, Note_on_c, 0, 57, 95
2, 137760, Note_on_c, 0, 54, 95
2, 137760, Note_on_c, 0, 50, 95
2, 137874, Note_off_c, 0, 57, 95
2, 137874, Note_off_c, 0, 54, 95
2, 137874, Note_off_c, 0, 50, 95
2, 138240, Note_on_c, 0, 52, 95
2, 138240, Note_on_c, 0, 49, 95
2, 138240, Note_on_c, 0, 45, 95
2, 138354, Note_off_c, 0, 52, 95
2, 138354, Note_off_c, 0, 49, 95
2, 138354, Note_off_c, 0, 45, 95
2, 139200, Note_on_c, 0, 61, 95
2, 139200, Note_on_c, 0, 57, 95
2, 139200, Note_on_c, 0, 52, 95
2, 139314, Note_off_c, 0, 61, 95
2, 139314, Note_off_c, 0, 57, 95
2, 139314, Note_off_c, 0, 52, 95
2, 139680, Note_on_c, 0, 52, 95
2, 139680, Note_on_c, 0, 49, 95
2, 139680, Note_on_c, 0, 45, 95
2, 139794, Note_off_c, 0, 52, 95
2, 139794, Note_off_c, 0, 49, 95
2, 139794, Note_off_c, 0, 45, 95
2, 140160, Note_on_c, 0, 57, 95
2, 140160, Note_on_c, 0, 54, 95
2, 140160, Note_on_c, 0, 50, 95
2, 140274, Note_off_c, 0, 57, 95
2, 140274, Note_off_c, 0, 54, 95
2, 140274, Note_off_c, 0, 50, 95
2, 141120, Note_on_c, 0, 66, 95
2, 141120, Note_on_c, 0, 62, 95
2, 141120, Note_on_c, 0, 57, 95
2, 141234, Note_off_c, 0, 66, 95
2, 141234, Note_off_c, 0, 62, 95
2, 141234, Note_off_c, 0, 57, 95
2, 141600, Note_on_c, 0, 57, 95
2, 141600, Note_on_c, 0, 54, 95
2, 141600, Note_on_c, 0, 50, 95
2, 141714, Note_off_c, 0, 57, 95
2, 141714, Note_off_c, 0, 54, 95
2, 142080, Note_off_c, 0, 50, 95
2, 142080, Note_on_c, 0, 52, 95
2, 142080, Note_on_c, 0, 49, 95
2, 142080, Note_on_c, 0, 45, 95
2, 142194, Note_off_c, 0, 52, 95
2, 142194, Note_off_c, 0, 49, 95
2, 142194, Note_off_c, 0, 45, 95
2, 143040, Note_on_c, 0, 61, 95
2, 143040, Note_on_c, 0, 57, 95
2, 143040, Note_on_c, 0, 52, 95
2, 143154, Note_off_c, 0, 61, 95
2, 143154, Note_off_c, 0, 57, 95
2, 143154, Note_off_c, 0, 52, 95
2, 143520, Note_on_c, 0, 52, 95
2, 143520, Note_on_c, 0, 49, 95
2, 143520, Note_on_c, 0, 45, 95
2, 143634, Note_off_c, 0, 52, 95
2, 143634, Note_off_c, 0, 49, 95
2, 143634, Note_off_c, 0, 45, 95
2, 144000, Note_on_c, 0, 57, 95
2, 144000, Note_on_c, 0, 54, 95
2, 144000, Note_on_c, 0, 50, 95
2, 144114, Note_off_c, 0, 57, 95
2, 144114, Note_off_c, 0, 50, 95
2, 144960, Note_off_c, 0, 54, 95
2, 144960, Note_on_c, 0, 66, 95
2, 144960, Note_on_c, 0, 62, 95
2, 144960, Note_on_c, 0, 57, 95
2, 145074, Note_off_c, 0, 66, 95
2, 145074, Note_off_c, 0, 62, 95
2, 145074, Note_off_c, 0, 57, 95
2, 145440, Note_on_c, 0, 57, 95
2, 145440, Note_on_c, 0, 54, 95
2, 145440, Note_on_c, 0, 50, 95
2, 145554, Note_off_c, 0, 57, 95
2, 145554, Note_off_c, 0, 54, 95
2, 145554, Note_off_c, 0, 50, 95
2, 145920, Note_on_c, 0, 52, 95
2, 145920, Note_on_c, 0, 49, 95
2, 145920, Note_on_c, 0, 45, 95
2, 146034, Note_off_c, 0, 52, 95
2, 146034, Note_off_c, 0, 49, 95
2, 146034, Note_off_c, 0, 45, 95
2, 146880, Note_on_c, 0, 61, 95
2, 146880, Note_on_c, 0, 57, 95
2, 146880, Note_on_c, 0, 52, 95
2, 146994, Note_off_c, 0, 61, 95
2, 146994, Note_off_c, 0, 57, 95
2, 146994, Note_off_c, 0, 52, 95
2, 147360, Note_on_c, 0, 52, 95
2, 147360, Note_on_c, 0, 49, 95
2, 147360, Note_on_c, 0, 45, 95
2, 147474, Note_off_c, 0, 52, 95
2, 147474, Note_off_c, 0, 49, 95
2, 147474, Note_off_c, 0, 45, 95
2, 147840, Note_on_c, 0, 57, 95
2, 147840, Note_on_c, 0, 54, 95
2, 147840, Note_on_c, 0, 50, 95
2, 147954, Note_off_c, 0, 57, 95
2, 147954, Note_off_c, 0, 54, 95
2, 147954, Note_off_c, 0, 50, 95
2, 148800, Note_on_c, 0, 66, 95
2, 148800, Note_on_c, 0, 62, 95
2, 148800, Note_on_c, 0, 57, 95
2, 148914, Note_off_c, 0, 66, 95
2, 148914, Note_off_c, 0, 62, 95
2, 148914, Note_off_c, 0, 57, 95
2, 149280, Note_on_c, 0, 57, 95
2, 149280, Note_on_c, 0, 54, 95
2, 149280, Note_on_c, 0, 50, 95
2, 149394, Note_off_c, 0, 57, 95
2, 149394, Note_off_c, 0, 54, 95
2, 149760, Note_off_c, 0, 50, 95
2, 149760, Note_on_c, 0, 66, 95
2, 149760, Note_on_c, 0, 62, 95
2, 149760, Note_on_c, 0, 57, 95
2, 149760, Note_on_c, 0, 54, 95
2, 149760, Note_on_c, 0, 50, 95
2, 150720, Note_off_c, 0, 66, 95
2, 150720, Note_off_c, 0, 62, 95
2, 150720, Note_off_c, 0, 57, 95
2, 150720, Note_off_c, 0, 54, 95
2, 150720, Note_off_c, 0, 50, 95
2, 150720, Note_on_c, 0, 66, 95
2, 150720, Note_on_c, 0, 62, 95
2, 150720, Note_on_c, 0, 57, 95
2, 150720, Note_on_c, 0, 54, 95
2, 150720, Note_on_c, 0, 50, 95
2, 151200, Note_off_c, 0, 66, 95
2, 151200, Note_off_c, 0, 62, 95
2, 151200, Note_off_c, 0, 57, 95
2, 151200, Note_off_c, 0, 54, 95
2, 151200, Note_off_c, 0, 50, 95
2, 151200, Note_on_c, 0, 66, 95
2, 151200, Note_on_c, 0, 62, 95
2, 151200, Note_on_c, 0, 57, 95
2, 151200, Note_on_c, 0, 54, 95
2, 151200, Note_on_c, 0, 50, 95
2, 151680, Note_off_c, 0, 66, 95
2, 151680, Note_off_c, 0, 62, 95
2, 151680, Note_off_c, 0, 57, 95
2, 151680, Note_off_c, 0, 54, 95
2, 151680, Note_off_c, 0, 50, 95
2, 151680, Note_on_c, 0, 67, 95
2, 151680, Note_on_c, 0, 62, 95
2, 151680, Note_on_c, 0, 59, 95
2, 151680, Note_on_c, 0, 55, 95
2, 151680, Note_on_c, 0, 50, 95
2, 151680, Note_on_c, 0, 43, 95
2, 152160, Note_off_c, 0, 67, 95
2, 152160, Note_off_c, 0, 62, 95
2, 152160, Note_off_c, 0, 59, 95
2, 152160, Note_off_c, 0, 55, 95
2, 152160, Note_off_c, 0, 50, 95
2, 152160, Note_off_c, 0, 43, 95
2, 152160, Note_on_c, 0, 67, 95
2, 152160, Note_on_c, 0, 62, 95
2, 152160, Note_on_c, 0, 59, 95
2, 152160, Note_on_c, 0, 55, 95
2, 152160, Note_on_c, 0, 50, 95
2, 152160, Note_on_c, 0, 43, 95
2, 152640, Note_off_c, 0, 67, 95
2, 152640, Note_off_c, 0, 62, 95
2, 152640, Note_off_c, 0, 59, 95
2, 152640, Note_off_c, 0, 55, 95
2, 152640, Note_off_c, 0, 50, 95
2, 152640, Note_off_c, 0, 43, 95
2, 152640, Note_on_c, 0, 67, 95
2, 152640, Note_on_c, 0, 62, 95
2, 152640, Note_on_c, 0, 59, 95
2, 152640, Note_on_c, 0, 55, 95
2, 152640, Note_on_c, 0, 50, 95
2, 152640, Note_on_c, 0, 43, 95
2, 153120, Note_off_c, 0, 67, 95
2, 153120, Note_off_c, 0, 62, 95
2, 153120, Note_off_c, 0, 59, 95
2, 153120, Note_off_c, 0, 55, 95
2, 153120, Note_off_c, 0, 50, 95
2, 153120, Note_off_c, 0, 43, 95
2, 153120, Note_on_c, 0, 67, 95
2, 153120, Note_on_c, 0, 62, 95
2, 153120, Note_on_c, 0, 59, 95
2, 153120, Note_on_c, 0, 55, 95
2, 153120, Note_on_c, 0, 50, 95
2, 153120, Note_on_c, 0, 43, 95
2, 153177, Note_off_c, 0, 67, 95
2, 153177, Note_off_c, 0, 62, 95
2, 153177, Note_off_c, 0, 59, 95
2, 153177, Note_off_c, 0, 55, 95
2, 153177, Note_off_c, 0, 50, 95
2, 153177, Note_off_c, 0, 43, 95
2, 153600, Note_on_c, 0, 66, 95
2, 153600, Note_on_c, 0, 62, 95
2, 153600, Note_on_c, 0, 57, 95
2, 153600, Note_on_c, 0, 54, 95
2, 153600, Note_on_c, 0, 50, 95
2, 154560, Note_off_c, 0, 66, 95
2, 154560, Note_off_c, 0, 62, 95
2, 154560, Note_off_c, 0, 57, 95
2, 154560, Note_off_c, 0, 54, 95
2, 154560, Note_off_c, 0, 50, 95
2, 154560, Note_on_c, 0, 66, 95
2, 154560, Note_on_c, 0, 62, 95
2, 154560, Note_on_c, 0, 57, 95
2, 154560, Note_on_c, 0, 54, 95
2, 154560, Note_on_c, 0, 50, 95
2, 155040, Note_off_c, 0, 66, 95
2, 155040, Note_off_c, 0, 62, 95
2, 155040, Note_off_c, 0, 57, 95
2, 155040, Note_off_c, 0, 54, 95
2, 155040, Note_off_c, 0, 50, 95
2, 155040, Note_on_c, 0, 66, 95
2, 155040, Note_on_c, 0, 62, 95
2, 155040, Note_on_c, 0, 57, 95
2, 155040, Note_on_c, 0, 54, 95
2, 155040, Note_on_c, 0, 50, 95
2, 155520, Note_off_c, 0, 66, 95
2, 155520, Note_off_c, 0, 62, 95
2, 155520, Note_off_c, 0, 57, 95
2, 155520, Note_off_c, 0, 54, 95
2, 155520, Note_off_c, 0, 50, 95
2, 155520, Note_on_c, 0, 67, 95
2, 155520, Note_on_c, 0, 62, 95
2, 155520, Note_on_c, 0, 59, 95
2, 155520, Note_on_c, 0, 55, 95
2, 155520, Note_on_c, 0, 50, 95
2, 155520, Note_on_c, 0, 43, 95
2, 156000, Note_off_c, 0, 67, 95
2, 156000, Note_off_c, 0, 62, 95
2, 156000, Note_off_c, 0, 59, 95
2, 156000, Note_off_c, 0, 55, 95
2, 156000, Note_off_c, 0, 50, 95
2, 156000, Note_off_c, 0, 43, 95
2, 156000, Note_on_c, 0, 67, 95
2, 156000, Note_on_c, 0, 62, 95
2, 156000, Note_on_c, 0, 59, 95
2, 156000, Note_on_c, 0, 55, 95
2, 156000, Note_on_c, 0, 50, 95
2, 156000, Note_on_c, 0, 43, 95
2, 156480, Note_off_c, 0, 67, 95
2, 156480, Note_off_c, 0, 62, 95
2, 156480, Note_off_c, 0, 59, 95
2, 156480, Note_off_c, 0, 55, 95
2, 156480, Note_off_c, 0, 50, 95
2, 156480, Note_off_c, 0, 43, 95
2, 156480, Note_on_c, 0, 67, 95
2, 156480, Note_on_c, 0, 62, 95
2, 156480, Note_on_c, 0, 59, 95
2, 156480, Note_on_c, 0, 55, 95
2, 156480, Note_on_c, 0, 50, 95
2, 156480, Note_on_c, 0, 43, 95
2, 156960, Note_off_c, 0, 67, 95
2, 156960, Note_off_c, 0, 62, 95
2, 156960, Note_off_c, 0, 59, 95
2, 156960, Note_off_c, 0, 55, 95
2, 156960, Note_off_c, 0, 50, 95
2, 156960, Note_off_c, 0, 43, 95
2, 156960, Note_on_c, 0, 67, 95
2, 156960, Note_on_c, 0, 62, 95
2, 156960, Note_on_c, 0, 59, 95
2, 156960, Note_on_c, 0, 55, 95
2, 156960, Note_on_c, 0, 50, 95
2, 156960, Note_on_c, 0, 43, 95
2, 157017, Note_off_c, 0, 67, 95
2, 157017, Note_off_c, 0, 62, 95
2, 157017, Note_off_c, 0, 59, 95
2, 157017, Note_off_c, 0, 55, 95
2, 157017, Note_off_c, 0, 50, 95
2, 157017, Note_off_c, 0, 43, 95
2, 157440, Note_on_c, 0, 69, 95
2, 157440, Note_on_c, 0, 64, 95
2, 157440, Note_on_c, 0, 57, 95
2, 157440, Note_on_c, 0, 52, 95
2, 157440, Note_on_c, 0, 49, 95
2, 157440, Note_on_c, 0, 45, 95
2, 158400, Note_off_c, 0, 69, 95
2, 158400, Note_off_c, 0, 64, 95
2, 158400, Note_off_c, 0, 57, 95
2, 158400, Note_off_c, 0, 52, 95
2, 158400, Note_off_c, 0, 49, 95
2, 158400, Note_off_c, 0, 45, 95
2, 158400, Note_on_c, 0, 69, 95
2, 158400, Note_on_c, 0, 64, 95
2, 158400, Note_on_c, 0, 57, 95
2, 158400, Note_on_c, 0, 52, 95
2, 158400, Note_on_c, 0, 49, 95
2, 158400, Note_on_c, 0, 45, 95
2, 158880, Note_off_c, 0, 69, 95
2, 158880, Note_off_c, 0, 64, 95
2, 158880, Note_off_c, 0, 57, 95
2, 158880, Note_off_c, 0, 52, 95
2, 158880, Note_off_c, 0, 49, 95
2, 158880, Note_off_c, 0, 45, 95
2, 158880, Note_on_c, 0, 69, 95
2, 158880, Note_on_c, 0, 64, 95
2, 158880, Note_on_c, 0, 57, 95
2, 158880, Note_on_c, 0, 52, 95
2, 158880, Note_on_c, 0, 49, 95
2, 158880, Note_on_c, 0, 45, 95
2, 159360, Note_off_c, 0, 69, 95
2, 159360, Note_off_c, 0, 64, 95
2, 159360, Note_off_c, 0, 57, 95
2, 159360, Note_off_c, 0, 52, 95
2, 159360, Note_off_c, 0, 49, 95
2, 159360, Note_off_c, 0, 45, 95
2, 159360, Note_on_c, 0, 66, 95
2, 159360, Note_on_c, 0, 62, 95
2, 159360, Note_on_c, 0, 57, 95
2, 159360, Note_on_c, 0, 54, 95
2, 159360, Note_on_c, 0, 50, 95
2, 159840, Note_off_c, 0, 66, 95
2, 159840, Note_off_c, 0, 62, 95
2, 159840, Note_off_c, 0, 57, 95
2, 159840, Note_off_c, 0, 54, 95
2, 159840, Note_off_c, 0, 50, 95
2, 159840, Note_on_c, 0, 66, 95
2, 159840, Note_on_c, 0, 62, 95
2, 159840, Note_on_c, 0, 57, 95
2, 159840, Note_on_c, 0, 54, 95
2, 159840, Note_on_c, 0, 50, 95
2, 160320, Note_off_c, 0, 66, 95
2, 160320, Note_off_c, 0, 62, 95
2, 160320, Note_off_c, 0, 57, 95
2, 160320, Note_off_c, 0, 54, 95
2, 160320, Note_off_c, 0, 50, 95
2, 160320, Note_on_c, 0, 66, 95
2, 160320, Note_on_c, 0, 62, 95
2, 160320, Note_on_c, 0, 57, 95
2, 160320, Note_on_c, 0, 54, 95
2, 160320, Note_on_c, 0, 50, 95
2, 160800, Note_off_c, 0, 66, 95
2, 160800, Note_off_c, 0, 62, 95
2, 160800, Note_off_c, 0, 57, 95
2, 160800, Note_off_c, 0, 54, 95
2, 160800, Note_off_c, 0, 50, 95
2, 160800, Note_on_c, 0, 66, 95
2, 160800, Note_on_c, 0, 62, 95
2, 160800, Note_on_c, 0, 57, 95
2, 160800, Note_on_c, 0, 54, 95
2, 160800, Note_on_c, 0, 50, 95
2, 161280, Note_off_c, 0, 66, 95
2, 161280, Note_off_c, 0, 62, 95
2, 161280, Note_off_c, 0, 57, 95
2, 161280, Note_off_c, 0, 54, 95
2, 161280, Note_off_c, 0, 50, 95
2, 161280, Note_on_c, 0, 69, 95
2, 161280, Note_on_c, 0, 64, 95
2, 161280, Note_on_c, 0, 57, 95
2, 161280, Note_on_c, 0, 52, 95
2, 161280, Note_on_c, 0, 49, 95
2, 161280, Note_on_c, 0, 45, 95
2, 162240, Note_off_c, 0, 69, 95
2, 162240, Note_off_c, 0, 64, 95
2, 162240, Note_off_c, 0, 57, 95
2, 162240, Note_off_c, 0, 52, 95
2, 162240, Note_off_c, 0, 49, 95
2, 162240, Note_off_c, 0, 45, 95
2, 162240, Note_on_c, 0, 69, 95
2, 162240, Note_on_c, 0, 64, 95
2, 162240, Note_on_c, 0, 57, 95
2, 162240, Note_on_c, 0, 52, 95
2, 162240, Note_on_c, 0, 49, 95
2, 162240, Note_on_c, 0, 45, 95
2, 162720, Note_off_c, 0, 69, 95
2, 162720, Note_off_c, 0, 64, 95
2, 162720, Note_off_c, 0, 57, 95
2, 162720, Note_off_c, 0, 52, 95
2, 162720, Note_off_c, 0, 49, 95
2, 162720, Note_off_c, 0, 45, 95
2, 162720, Note_on_c, 0, 69, 95
2, 162720, Note_on_c, 0, 64, 95
2, 162720, Note_on_c, 0, 57, 95
2, 162720, Note_on_c, 0, 52, 95
2, 162720, Note_on_c, 0, 49, 95
2, 162720, Note_on_c, 0, 45, 95
2, 163200, Note_off_c, 0, 69, 95
2, 163200, Note_off_c, 0, 64, 95
2, 163200, Note_off_c, 0, 57, 95
2, 163200, Note_off_c, 0, 52, 95
2, 163200, Note_off_c, 0, 49, 95
2, 163200, Note_off_c, 0, 45, 95
2, 163200, Note_on_c, 0, 66, 95
2, 163200, Note_on_c, 0, 62, 95
2, 163200, Note_on_c, 0, 57, 95
2, 163200, Note_on_c, 0, 54, 95
2, 163200, Note_on_c, 0, 50, 95
2, 163680, Note_off_c, 0, 66, 95
2, 163680, Note_off_c, 0, 62, 95
2, 163680, Note_off_c, 0, 57, 95
2, 163680, Note_off_c, 0, 54, 95
2, 163680, Note_off_c, 0, 50, 95
2, 163680, Note_on_c, 0, 66, 95
2, 163680, Note_on_c, 0, 62, 95
2, 163680, Note_on_c, 0, 57, 95
2, 163680, Note_on_c, 0, 54, 95
2, 163680, Note_on_c, 0, 50, 95
2, 164160, Note_off_c, 0, 66, 95
2, 164160, Note_off_c, 0, 62, 95
2, 164160, Note_off_c, 0, 57, 95
2, 164160, Note_off_c, 0, 54, 95
2, 164160, Note_off_c, 0, 50, 95
2, 164160, Note_on_c, 0, 66, 95
2, 164160, Note_on_c, 0, 62, 95
2, 164160, Note_on_c, 0, 57, 95
2, 164160, Note_on_c, 0, 54, 95
2, 164160, Note_on_c, 0, 50, 95
2, 164640, Note_off_c, 0, 66, 95
2, 164640, Note_off_c, 0, 62, 95
2, 164640, Note_off_c, 0, 57, 95
2, 164640, Note_off_c, 0, 54, 95
2, 164640, Note_off_c, 0, 50, 95
2, 164640, Note_on_c, 0, 66, 95
2, 164640, Note_on_c, 0, 62, 95
2, 164640, Note_on_c, 0, 57, 95
2, 164640, Note_on_c, 0, 54, 95
2, 164640, Note_on_c, 0, 50, 95
2, 165120, Note_off_c, 0, 66, 95
2, 165120, Note_off_c, 0, 62, 95
2, 165120, Note_off_c, 0, 57, 95
2, 165120, Note_off_c, 0, 54, 95
2, 165120, Note_off_c, 0, 50, 95
2, 165120, Note_on_c, 0, 68, 95
2, 165120, Note_on_c, 0, 64, 95
2, 165120, Note_on_c, 0, 59, 95
2, 165120, Note_on_c, 0, 52, 95
2, 166080, Note_off_c, 0, 68, 95
2, 166080, Note_off_c, 0, 64, 95
2, 166080, Note_off_c, 0, 59, 95
2, 166080, Note_off_c, 0, 52, 95
2, 166080, Note_on_c, 0, 68, 95
2, 166080, Note_on_c, 0, 64, 95
2, 166080, Note_on_c, 0, 59, 95
2, 166080, Note_on_c, 0, 52, 95
2, 167040, Note_off_c, 0, 68, 95
2, 167040, Note_off_c, 0, 64, 95
2, 167040, Note_off_c, 0, 59, 95
2, 167040, Note_off_c, 0, 52, 95
2, 167040, Note_on_c, 0, 68, 95
2, 167040, Note_on_c, 0, 64, 95
2, 167040, Note_on_c, 0, 59, 95
2, 167040, Note_on_c, 0, 52, 95
2, 168000, Note_off_c, 0, 68, 95
2, 168000, Note_off_c, 0, 64, 95
2, 168000, Note_off_c, 0, 59, 95
2, 168000, Note_off_c, 0, 52, 95
2, 168000, Note_on_c, 0, 69, 95
2, 168000, Note_on_c, 0, 64, 95
2, 168000, Note_on_c, 0, 59, 95
2, 168000, Note_on_c, 0, 52, 95
2, 168480, Note_off_c, 0, 69, 95
2, 168480, Note_off_c, 0, 64, 95
2, 168480, Note_off_c, 0, 59, 95
2, 168480, Note_off_c, 0, 52, 95
2, 168480, Note_on_c, 0, 69, 95
2, 168480, Note_on_c, 0, 64, 95
2, 168480, Note_on_c, 0, 59, 95
2, 168480, Note_on_c, 0, 52, 95
2, 169440, Note_off_c, 0, 69, 95
2, 169440, Note_off_c, 0, 64, 95
2, 169440, Note_off_c, 0, 59, 95
2, 169440, Note_off_c, 0, 52, 95
2, 169440, Note_on_c, 0, 69, 95
2, 169440, Note_on_c, 0, 64, 95
2, 169440, Note_on_c, 0, 59, 95
2, 169440, Note_on_c, 0, 52, 95
2, 170400, Note_off_c, 0, 69, 95
2, 170400, Note_off_c, 0, 64, 95
2, 170400, Note_off_c, 0, 59, 95
2, 170400, Note_off_c, 0, 52, 95
2, 170400, Note_on_c, 0, 69, 95
2, 170400, Note_on_c, 0, 64, 95
2, 170400, Note_on_c, 0, 59, 95
2, 170400, Note_on_c, 0, 52, 95
2, 170880, Note_off_c, 0, 69, 95
2, 170880, Note_off_c, 0, 64, 95
2, 170880, Note_off_c, 0, 59, 95
2, 170880, Note_off_c, 0, 52, 95
2, 170880, Note_on_c, 0, 68, 95
2, 170880, Note_on_c, 0, 64, 95
2, 170880, Note_on_c, 0, 59, 95
2, 170880, Note_on_c, 0, 52, 95
2, 171360, Note_off_c, 0, 68, 95
2, 171360, Note_off_c, 0, 64, 95
2, 171360, Note_off_c, 0, 59, 95
2, 171360, Note_off_c, 0, 52, 95
2, 171360, Note_on_c, 0, 68, 95
2, 171360, Note_on_c, 0, 64, 95
2, 171360, Note_on_c, 0, 59, 95
2, 171360, Note_on_c, 0, 52, 95
2, 171840, Note_off_c, 0, 68, 95
2, 171840, Note_off_c, 0, 64, 95
2, 171840, Note_off_c, 0, 59, 95
2, 171840, Note_off_c, 0, 52, 95
2, 171840, Note_on_c, 0, 68, 95
2, 171840, Note_on_c, 0, 64, 95
2, 171840, Note_on_c, 0, 59, 95
2, 171840, Note_on_c, 0, 52, 95
2, 172320, Note_off_c, 0, 68, 95
2, 172320, Note_off_c, 0, 64, 95
2, 172320, Note_off_c, 0, 59, 95
2, 172320, Note_off_c, 0, 52, 95
2, 172320, Note_on_c, 0, 66, 95
2, 172320, Note_on_c, 0, 61, 95
2, 172320, Note_on_c, 0, 57, 95
2, 172320, Note_on_c, 0, 52, 95
2, 172377, Note_off_c, 0, 66, 95
2, 172377, Note_off_c, 0, 61, 95
2, 172377, Note_off_c, 0, 57, 95
2, 172377, Note_off_c, 0, 52, 95
2, 172800, Note_on_c, 0, 66, 95
2, 172800, Note_on_c, 0, 62, 95
2, 172800, Note_on_c, 0, 57, 95
2, 172800, Note_on_c, 0, 54, 95
2, 172800, Note_on_c, 0, 50, 95
2, 173280, Note_off_c, 0, 66, 95
2, 173280, Note_off_c, 0, 62, 95
2, 173280, Note_off_c, 0, 57, 95
2, 173280, Note_off_c, 0, 54, 95
2, 173280, Note_off_c, 0, 50, 95
2, 173280, Note_on_c, 0, 66, 95
2, 173280, Note_on_c, 0, 62, 95
2, 173280, Note_on_c, 0, 57, 95
2, 173280, Note_on_c, 0, 54, 95
2, 173280, Note_on_c, 0, 50, 95
2, 173760, Note_off_c, 0, 66, 95
2, 173760, Note_off_c, 0, 62, 95
2, 173760, Note_off_c, 0, 57, 95
2, 173760, Note_off_c, 0, 54, 95
2, 173760, Note_off_c, 0, 50, 95
2, 174240, Note_on_c, 0, 66, 95
2, 174240, Note_on_c, 0, 62, 95
2, 174240, Note_on_c, 0, 57, 95
2, 174240, Note_on_c, 0, 54, 95
2, 174240, Note_on_c, 0, 50, 95
2, 174720, Note_off_c, 0, 66, 95
2, 174720, Note_off_c, 0, 62, 95
2, 174720, Note_off_c, 0, 57, 95
2, 174720, Note_off_c, 0, 54, 95
2, 174720, Note_off_c, 0, 50, 95
2, 174720, Note_on_c, 0, 66, 95
2, 174720, Note_on_c, 0, 62, 95
2, 174720, Note_on_c, 0, 57, 95
2, 174720, Note_on_c, 0, 54, 95
2, 174720, Note_on_c, 0, 50, 95
2, 175200, Note_off_c, 0, 66, 95
2, 175200, Note_off_c, 0, 62, 95
2, 175200, Note_off_c, 0, 57, 95
2, 175200, Note_off_c, 0, 54, 95
2, 175200, Note_off_c, 0, 50, 95
2, 175680, Note_on_c, 0, 66, 95
2, 175680, Note_on_c, 0, 62, 95
2, 175680, Note_on_c, 0, 57, 95
2, 175680, Note_on_c, 0, 54, 95
2, 175680, Note_on_c, 0, 50, 95
2, 176160, Note_off_c, 0, 66, 95
2, 176160, Note_off_c, 0, 62, 95
2, 176160, Note_off_c, 0, 57, 95
2, 176160, Note_off_c, 0, 54, 95
2, 176160, Note_off_c, 0, 50, 95
2, 176160, Note_on_c, 0, 66, 95
2, 176160, Note_on_c, 0, 62, 95
2, 176160, Note_on_c, 0, 57, 95
2, 176160, Note_on_c, 0, 54, 95
2, 176160, Note_on_c, 0, 50, 95
2, 176640, Note_off_c, 0, 66, 95
2, 176640, Note_off_c, 0, 62, 95
2, 176640, Note_off_c, 0, 57, 95
2, 176640, Note_off_c, 0, 54, 95
2, 176640, Note_off_c, 0, 50, 95
2, 178560, Note_on_c, 0, 64, 95
2, 178560, Note_on_c, 0, 57, 95
2, 178560, Note_on_c, 0, 52, 95
2, 178560, Note_on_c, 0, 49, 95
2, 179520, Note_off_c, 0, 64, 95
2, 179520, Note_off_c, 0, 57, 95
2, 179520, Note_off_c, 0, 52, 95
2, 179520, Note_off_c, 0, 49, 95
2, 179520, Note_on_c, 0, 64, 95
2, 179520, Note_on_c, 0, 57, 95
2, 179520, Note_on_c, 0, 52, 95
2, 179520, Note_on_c, 0, 49, 95
2, 180480, Note_off_c, 0, 64, 95
2, 180480, Note_off_c, 0, 57, 95
2, 180480, Note_off_c, 0, 52, 95
2, 180480, Note_off_c, 0, 49, 95
2, 180480, Note_on_c, 0, 69, 95
2, 180480, Note_on_c, 0, 61, 95
2, 180480, Note_on_c, 0, 57, 95
2, 180480, Note_on_c, 0, 52, 95
2, 180480, Note_on_c, 0, 49, 95
2, 180480, Note_on_c, 0, 45, 95
2, 181440, Note_off_c, 0, 69, 95
2, 181440, Note_off_c, 0, 61, 95
2, 181440, Note_off_c, 0, 57, 95
2, 181440, Note_off_c, 0, 52, 95
2, 181440, Note_off_c, 0, 49, 95
2, 181440, Note_off_c, 0, 45, 95
2, 181440, Note_on_c, 0, 69, 95
2, 181440, Note_on_c, 0, 61, 95
2, 181440, Note_on_c, 0, 57, 95
2, 181440, Note_on_c, 0, 52, 95
2, 181440, Note_on_c, 0, 49, 95
2, 181440, Note_on_c, 0, 45, 95
2, 181920, Note_off_c, 0, 69, 95
2, 181920, Note_off_c, 0, 61, 95
2, 181920, Note_off_c, 0, 57, 95
2, 181920, Note_off_c, 0, 52, 95
2, 181920, Note_off_c, 0, 49, 95
2, 181920, Note_off_c, 0, 45, 95
2, 181920, Note_on_c, 0, 69, 95
2, 181920, Note_on_c, 0, 61, 95
2, 181920, Note_on_c, 0, 57, 95
2, 181920, Note_on_c, 0, 52, 95
2, 181920, Note_on_c, 0, 49, 95
2, 181920, Note_on_c, 0, 45, 95
2, 182400, Note_off_c, 0, 69, 95
2, 182400, Note_off_c, 0, 61, 95
2, 182400, Note_off_c, 0, 57, 95
2, 182400, Note_off_c, 0, 52, 95
2, 182400, Note_off_c, 0, 49, 95
2, 182400, Note_off_c, 0, 45, 95
2, 182400, Note_on_c, 0, 66, 95
2, 182400, Note_on_c, 0, 62, 95
2, 182400, Note_on_c, 0, 57, 95
2, 182400, Note_on_c, 0, 54, 95
2, 182400, Note_on_c, 0, 50, 95
2, 183360, Note_off_c, 0, 66, 95
2, 183360, Note_off_c, 0, 62, 95
2, 183360, Note_off_c, 0, 57, 95
2, 183360, Note_off_c, 0, 54, 95
2, 183360, Note_off_c, 0, 50, 95
2, 183360, Note_on_c, 0, 66, 95
2, 183360, Note_on_c, 0, 62, 95
2, 183360, Note_on_c, 0, 57, 95
2, 183360, Note_on_c, 0, 54, 95
2, 183360, Note_on_c, 0, 50, 95
2, 183840, Note_off_c, 0, 66, 95
2, 183840, Note_off_c, 0, 62, 95
2, 183840, Note_off_c, 0, 57, 95
2, 183840, Note_off_c, 0, 54, 95
2, 183840, Note_off_c, 0, 50, 95
2, 183840, Note_on_c, 0, 66, 95
2, 183840, Note_on_c, 0, 61, 95
2, 183840, Note_on_c, 0, 57, 95
2, 183840, Note_on_c, 0, 52, 95
2, 184320, Note_off_c, 0, 66, 95
2, 184320, Note_off_c, 0, 61, 95
2, 184320, Note_off_c, 0, 57, 95
2, 184320, Note_off_c, 0, 52, 95
2, 184320, Note_on_c, 0, 69, 95
2, 184320, Note_on_c, 0, 61, 95
2, 184320, Note_on_c, 0, 57, 95
2, 184320, Note_on_c, 0, 52, 95
2, 184320, Note_on_c, 0, 49, 95
2, 184320, Note_on_c, 0, 45, 95
2, 185280, Note_off_c, 0, 69, 95
2, 185280, Note_off_c, 0, 61, 95
2, 185280, Note_off_c, 0, 57, 95
2, 185280, Note_off_c, 0, 52, 95
2, 185280, Note_off_c, 0, 49, 95
2, 185280, Note_off_c, 0, 45, 95
2, 185280, Note_on_c, 0, 69, 95
2, 185280, Note_on_c, 0, 61, 95
2, 185280, Note_on_c, 0, 57, 95
2, 185280, Note_on_c, 0, 52, 95
2, 185280, Note_on_c, 0, 49, 95
2, 185280, Note_on_c, 0, 45, 95
2, 185760, Note_off_c, 0, 69, 95
2, 185760, Note_off_c, 0, 61, 95
2, 185760, Note_off_c, 0, 57, 95
2, 185760, Note_off_c, 0, 52, 95
2, 185760, Note_off_c, 0, 49, 95
2, 185760, Note_off_c, 0, 45, 95
2, 185760, Note_on_c, 0, 69, 95
2, 185760, Note_on_c, 0, 61, 95
2, 185760, Note_on_c, 0, 57, 95
2, 185760, Note_on_c, 0, 52, 95
2, 185760, Note_on_c, 0, 49, 95
2, 185760, Note_on_c, 0, 45, 95
2, 186240, Note_off_c, 0, 69, 95
2, 186240, Note_off_c, 0, 61, 95
2, 186240, Note_off_c, 0, 57, 95
2, 186240, Note_off_c, 0, 52, 95
2, 186240, Note_off_c, 0, 49, 95
2, 186240, Note_off_c, 0, 45, 95
2, 186240, Note_on_c, 0, 66, 95
2, 186240, Note_on_c, 0, 62, 95
2, 186240, Note_on_c, 0, 57, 95
2, 186240, Note_on_c, 0, 54, 95
2, 186240, Note_on_c, 0, 50, 95
2, 186720, Note_off_c, 0, 66, 95
2, 186720, Note_off_c, 0, 62, 95
2, 186720, Note_off_c, 0, 57, 95
2, 186720, Note_off_c, 0, 54, 95
2, 186720, Note_off_c, 0, 50, 95
2, 186720, Note_on_c, 0, 52, 95
2, 187200, Note_off_c, 0, 52, 95
2, 187200, Note_on_c, 0, 54, 70
2, 187680, Note_off_c, 0, 54, 70
2, 187680, Note_on_c, 0, 57, 95
2, 188160, Note_off_c, 0, 57, 95
2, 188160, Note_on_c, 0, 52, 95
2, 188160, Note_on_c, 0, 49, 95
2, 188160, Note_on_c, 0, 45, 95
2, 188274, Note_off_c, 0, 52, 95
2, 188274, Note_off_c, 0, 49, 95
2, 188274, Note_off_c, 0, 45, 95
2, 189120, Note_on_c, 0, 61, 95
2, 189120, Note_on_c, 0, 57, 95
2, 189120, Note_on_c, 0, 52, 95
2, 189234, Note_off_c, 0, 61, 95
2, 189234, Note_off_c, 0, 57, 95
2, 189234, Note_off_c, 0, 52, 95
2, 189600, Note_on_c, 0, 52, 95
2, 189600, Note_on_c, 0, 49, 95
2, 189600, Note_on_c, 0, 45, 95
2, 189714, Note_off_c, 0, 52, 95
2, 189714, Note_off_c, 0, 49, 95
2, 189714, Note_off_c, 0, 45, 95
2, 190080, Note_on_c, 0, 57, 95
2, 190080, Note_on_c, 0, 54, 95
2, 190080, Note_on_c, 0, 50, 95
2, 190194, Note_off_c, 0, 57, 95
2, 190194, Note_off_c, 0, 50, 95
2, 191040, Note_off_c, 0, 54, 95
2, 191040, Note_on_c, 0, 66, 95
2, 191040, Note_on_c, 0, 62, 95
2, 191040, Note_on_c, 0, 57, 95
2, 191154, Note_off_c, 0, 66, 95
2, 191154, Note_off_c, 0, 62, 95
2, 191154, Note_off_c, 0, 57, 95
2, 191520, Note_on_c, 0, 57, 95
2, 191520, Note_on_c, 0, 54, 95
2, 191520, Note_on_c, 0, 50, 95
2, 191634, Note_off_c, 0, 57, 95
2, 191634, Note_off_c, 0, 54, 95
2, 191634, Note_off_c, 0, 50, 95
2, 192000, Note_on_c, 0, 52, 95
2, 192000, Note_on_c, 0, 49, 95
2, 192000, Note_on_c, 0, 45, 95
2, 192114, Note_off_c, 0, 52, 95
2, 192114, Note_off_c, 0, 49, 95
2, 192114, Note_off_c, 0, 45, 95
2, 192960, Note_on_c, 0, 61, 95
2, 192960, Note_on_c, 0, 57, 95
2, 192960, Note_on_c, 0, 52, 95
2, 193074, Note_off_c, 0, 61, 95
2, 193074, Note_off_c, 0, 57, 95
2, 193074, Note_off_c, 0, 52, 95
2, 193440, Note_on_c, 0, 52, 95
2, 193440, Note_on_c, 0, 49, 95
2, 193440, Note_on_c, 0, 45, 95
2, 193554, Note_off_c, 0, 52, 95
2, 193554, Note_off_c, 0, 49, 95
2, 193554, Note_off_c, 0, 45, 95
2, 193920, Note_on_c, 0, 57, 95
2, 193920, Note_on_c, 0, 54, 95
2, 193920, Note_on_c, 0, 50, 95
2, 194034, Note_off_c, 0, 57, 95
2, 194034, Note_off_c, 0, 54, 95
2, 194034, Note_off_c, 0, 50, 95
2, 194880, Note_on_c, 0, 66, 95
2, 194880, Note_on_c, 0, 62, 95
2, 194880, Note_on_c, 0, 57, 95
2, 194994, Note_off_c, 0, 66, 95
2, 194994, Note_off_c, 0, 62, 95
2, 194994, Note_off_c, 0, 57, 95
2, 195360, Note_on_c, 0, 57, 95
2, 195360, Note_on_c, 0, 54, 95
2, 195360, Note_on_c, 0, 50, 95
2, 195474, Note_off_c, 0, 57, 95
2, 195474, Note_off_c, 0, 54, 95
2, 195840, Note_off_c, 0, 50, 95
2, 195840, Note_on_c, 0, 52, 95
2, 195840, Note_on_c, 0, 49, 95
2, 195840, Note_on_c, 0, 45, 95
2, 195954, Note_off_c, 0, 52, 95
2, 195954, Note_off_c, 0, 49, 95
2, 195954, Note_off_c, 0, 45, 95
2, 196800, Note_on_c, 0, 61, 95
2, 196800, Note_on_c, 0, 57, 95
2, 196800, Note_on_c, 0, 52, 95
2, 196914, Note_off_c, 0, 61, 95
2, 196914, Note_off_c, 0, 57, 95
2, 196914, Note_off_c, 0, 52, 95
2, 197280, Note_on_c, 0, 52, 95
2, 197280, Note_on_c, 0, 49, 95
2, 197280, Note_on_c, 0, 45, 95
2, 197394, Note_off_c, 0, 52, 95
2, 197394, Note_off_c, 0, 49, 95
2, 197394, Note_off_c, 0, 45, 95
2, 197760, Note_on_c, 0, 57, 95
2, 197760, Note_on_c, 0, 54, 95
2, 197760, Note_on_c, 0, 50, 95
2, 197874, Note_off_c, 0, 57, 95
2, 197874, Note_off_c, 0, 50, 95
2, 198720, Note_off_c, 0, 54, 95
2, 198720, Note_on_c, 0, 66, 95
2, 198720, Note_on_c, 0, 62, 95
2, 198720, Note_on_c, 0, 57, 95
2, 198834, Note_off_c, 0, 66, 95
2, 198834, Note_off_c, 0, 62, 95
2, 198834, Note_off_c, 0, 57, 95
2, 199200, Note_on_c, 0, 57, 95
2, 199200, Note_on_c, 0, 54, 95
2, 199200, Note_on_c, 0, 50, 95
2, 199314, Note_off_c, 0, 57, 95
2, 199314, Note_off_c, 0, 54, 95
2, 199314, Note_off_c, 0, 50, 95
2, 199680, Note_on_c, 0, 52, 95
2, 199680, Note_on_c, 0, 49, 95
2, 199680, Note_on_c, 0, 45, 95
2, 199794, Note_off_c, 0, 52, 95
2, 199794, Note_off_c, 0, 49, 95
2, 199794, Note_off_c, 0, 45, 95
2, 200640, Note_on_c, 0, 61, 95
2, 200640, Note_on_c, 0, 57, 95
2, 200640, Note_on_c, 0, 52, 95
2, 200754, Note_off_c, 0, 61, 95
2, 200754, Note_off_c, 0, 57, 95
2, 200754, Note_off_c, 0, 52, 95
2, 201120, Note_on_c, 0, 52, 95
2, 201120, Note_on_c, 0, 49, 95
2, 201120, Note_on_c, 0, 45, 95
2, 201234, Note_off_c, 0, 52, 95
2, 201234, Note_off_c, 0, 49, 95
2, 201234, Note_off_c, 0, 45, 95
2, 201600, Note_on_c, 0, 57, 95
2, 201600, Note_on_c, 0, 54, 95
2, 201600, Note_on_c, 0, 50, 95
2, 201714, Note_off_c, 0, 57, 95
2, 201714, Note_off_c, 0, 54, 95
2, 201714, Note_off_c, 0, 50, 95
2, 202560, Note_on_c, 0, 66, 95
2, 202560, Note_on_c, 0, 62, 95
2, 202560, Note_on_c, 0, 57, 95
2, 202674, Note_off_c, 0, 66, 95
2, 202674, Note_off_c, 0, 62, 95
2, 202674, Note_off_c, 0, 57, 95
2, 203040, Note_on_c, 0, 57, 95
2, 203040, Note_on_c, 0, 54, 95
2, 203040, Note_on_c, 0, 50, 95
2, 203154, Note_off_c, 0, 57, 95
2, 203154, Note_off_c, 0, 54, 95
2, 203520, Note_off_c, 0, 50, 95
2, 203520, Note_on_c, 0, 52, 95
2, 203520, Note_on_c, 0, 49, 95
2, 203520, Note_on_c, 0, 45, 95
2, 203634, Note_off_c, 0, 52, 95
2, 203634, Note_off_c, 0, 49, 95
2, 203634, Note_off_c, 0, 45, 95
2, 204480, Note_on_c, 0, 61, 95
2, 204480, Note_on_c, 0, 57, 95
2, 204480, Note_on_c, 0, 52, 95
2, 204594, Note_off_c, 0, 61, 95
2, 204594, Note_off_c, 0, 57, 95
2, 204594, Note_off_c, 0, 52, 95
2, 204960, Note_on_c, 0, 52, 95
2, 204960, Note_on_c, 0, 49, 95
2, 204960, Note_on_c, 0, 45, 95
2, 205074, Note_off_c, 0, 52, 95
2, 205074, Note_off_c, 0, 49, 95
2, 205074, Note_off_c, 0, 45, 95
2, 205440, Note_on_c, 0, 57, 95
2, 205440, Note_on_c, 0, 54, 95
2, 205440, Note_on_c, 0, 50, 95
2, 205554, Note_off_c, 0, 57, 95
2, 205554, Note_off_c, 0, 50, 95
2, 206400, Note_off_c, 0, 54, 95
2, 206400, Note_on_c, 0, 66, 95
2, 206400, Note_on_c, 0, 62, 95
2, 206400, Note_on_c, 0, 57, 95
2, 206514, Note_off_c, 0, 66, 95
2, 206514, Note_off_c, 0, 62, 95
2, 206514, Note_off_c, 0, 57, 95
2, 206880, Note_on_c, 0, 57, 95
2, 206880, Note_on_c, 0, 54, 95
2, 206880, Note_on_c, 0, 50, 95
2, 206994, Note_off_c, 0, 57, 95
2, 206994, Note_off_c, 0, 54, 95
2, 206994, Note_off_c, 0, 50, 95
2, 207360, Note_on_c, 0, 52, 95
2, 207360, Note_on_c, 0, 49, 95
2, 207360, Note_on_c, 0, 45, 95
2, 207474, Note_off_c, 0, 52, 95
2, 207474, Note_off_c, 0, 49, 95
2, 207474, Note_off_c, 0, 45, 95
2, 208320, Note_on_c, 0, 61, 95
2, 208320, Note_on_c, 0, 57, 95
2, 208320, Note_on_c, 0, 52, 95
2, 208434, Note_off_c, 0, 61, 95
2, 208434, Note_off_c, 0, 57, 95
2, 208434, Note_off_c, 0, 52, 95
2, 208800, Note_on_c, 0, 52, 95
2, 208800, Note_on_c, 0, 49, 95
2, 208800, Note_on_c, 0, 45, 95
2, 208914, Note_off_c, 0, 52, 95
2, 208914, Note_off_c, 0, 49, 95
2, 208914, Note_off_c, 0, 45, 95
2, 209280, Note_on_c, 0, 57, 95
2, 209280, Note_on_c, 0, 54, 95
2, 209280, Note_on_c, 0, 50, 95
2, 209394, Note_off_c, 0, 57, 95
2, 209394, Note_off_c, 0, 54, 95
2, 209394, Note_off_c, 0, 50, 95
2, 210240, Note_on_c, 0, 66, 95
2, 210240, Note_on_c, 0, 62, 95
2, 210240, Note_on_c, 0, 57, 95
2, 210354, Note_off_c, 0, 66, 95
2, 210354, Note_off_c, 0, 62, 95
2, 210354, Note_off_c, 0, 57, 95
2, 210720, Note_on_c, 0, 57, 95
2, 210720, Note_on_c, 0, 54, 95
2, 210720, Note_on_c, 0, 50, 95
2, 210834, Note_off_c, 0, 57, 95
2, 210834, Note_off_c, 0, 54, 95
2, 211200, Note_off_c, 0, 50, 95
2, 211200, Note_on_c, 0, 52, 95
2, 211200, Note_on_c, 0, 49, 95
2, 211200, Note_on_c, 0, 45, 95
2, 211314, Note_off_c, 0, 52, 95
2, 211314, Note_off_c, 0, 49, 95
2, 211314, Note_off_c, 0, 45, 95
2, 212160, Note_on_c, 0, 61, 95
2, 212160, Note_on_c, 0, 57, 95
2, 212160, Note_on_c, 0, 52, 95
2, 212274, Note_off_c, 0, 61, 95
2, 212274, Note_off_c, 0, 57, 95
2, 212274, Note_off_c, 0, 52, 95
2, 212640, Note_on_c, 0, 52, 95
2, 212640, Note_on_c, 0, 49, 95
2, 212640, Note_on_c, 0, 45, 95
2, 212754, Note_off_c, 0, 52, 95
2, 212754, Note_off_c, 0, 49, 95
2, 212754, Note_off_c, 0, 45, 95
2, 213120, Note_on_c, 0, 57, 95
2, 213120, Note_on_c, 0, 54, 95
2, 213120, Note_on_c, 0, 50, 95
2, 213234, Note_off_c, 0, 57, 95
2, 213234, Note_off_c, 0, 50, 95
2, 214080, Note_off_c, 0, 54, 95
2, 214080, Note_on_c, 0, 66, 95
2, 214080, Note_on_c, 0, 62, 95
2, 214080, Note_on_c, 0, 57, 95
2, 214194, Note_off_c, 0, 66, 95
2, 214194, Note_off_c, 0, 62, 95
2, 214194, Note_off_c, 0, 57, 95
2, 214560, Note_on_c, 0, 57, 95
2, 214560, Note_on_c, 0, 54, 95
2, 214560, Note_on_c, 0, 50, 95
2, 214674, Note_off_c, 0, 57, 95
2, 214674, Note_off_c, 0, 54, 95
2, 214674, Note_off_c, 0, 50, 95
2, 215040, Note_on_c, 0, 52, 95
2, 215040, Note_on_c, 0, 49, 95
2, 215040, Note_on_c, 0, 45, 95
2, 215154, Note_off_c, 0, 52, 95
2, 215154, Note_off_c, 0, 49, 95
2, 215154, Note_off_c, 0, 45, 95
2, 222720, Note_on_c, 0, 69, 95
2, 222720, Note_on_c, 0, 61, 95
2, 222720, Note_on_c, 0, 57, 95
2, 222720, Note_on_c, 0, 52, 95
2, 222720, Note_on_c, 0, 49, 95
2, 222720, Note_on_c, 0, 45, 95
2, 223680, Note_off_c, 0, 69, 95
2, 223680, Note_off_c, 0, 61, 95
2, 223680, Note_off_c, 0, 57, 95
2, 223680, Note_off_c, 0, 52, 95
2, 223680, Note_off_c, 0, 49, 95
2, 223680, Note_off_c, 0, 45, 95
2, 223680, Note_on_c, 0, 69, 95
2, 223680, Note_on_c, 0, 61, 95
2, 223680, Note_on_c, 0, 57, 95
2, 223680, Note_on_c, 0, 52, 95
2, 223680, Note_on_c, 0, 49, 95
2, 223680, Note_on_c, 0, 45, 95
2, 224160, Note_off_c, 0, 69, 95
2, 224160, Note_off_c, 0, 61, 95
2, 224160, Note_off_c, 0, 57, 95
2, 224160, Note_off_c, 0, 52, 95
2, 224160, Note_off_c, 0, 49, 95
2, 224160, Note_off_c, 0, 45, 95
2, 224160, Note_on_c, 0, 69, 95
2, 224160, Note_on_c, 0, 61, 95
2, 224160, Note_on_c, 0, 57, 95
2, 224160, Note_on_c, 0, 52, 95
2, 224160, Note_on_c, 0, 49, 95
2, 224160, Note_on_c, 0, 45, 95
2, 224640, Note_off_c, 0, 69, 95
2, 224640, Note_off_c, 0, 61, 95
2, 224640, Note_off_c, 0, 57, 95
2, 224640, Note_off_c, 0, 52, 95
2, 224640, Note_off_c, 0, 49, 95
2, 224640, Note_off_c, 0, 45, 95
2, 224640, Note_on_c, 0, 66, 95
2, 224640, Note_on_c, 0, 62, 95
2, 224640, Note_on_c, 0, 57, 95
2, 224640, Note_on_c, 0, 54, 95
2, 224640, Note_on_c, 0, 50, 95
2, 225600, Note_off_c, 0, 66, 95
2, 225600, Note_off_c, 0, 62, 95
2, 225600, Note_off_c, 0, 57, 95
2, 225600, Note_off_c, 0, 54, 95
2, 225600, Note_off_c, 0, 50, 95
2, 225600, Note_on_c, 0, 66, 95
2, 225600, Note_on_c, 0, 62, 95
2, 225600, Note_on_c, 0, 57, 95
2, 225600, Note_on_c, 0, 54, 95
2, 225600, Note_on_c, 0, 50, 95
2, 226080, Note_off_c, 0, 66, 95
2, 226080, Note_off_c, 0, 62, 95
2, 226080, Note_off_c, 0, 57, 95
2, 226080, Note_off_c, 0, 54, 95
2, 226080, Note_off_c, 0, 50, 95
2, 226080, Note_on_c, 0, 66, 95
2, 226080, Note_on_c, 0, 61, 95
2, 226080, Note_on_c, 0, 57, 95
2, 226080, Note_on_c, 0, 52, 95
2, 226560, Note_off_c, 0, 66, 95
2, 226560, Note_off_c, 0, 61, 95
2, 226560, Note_off_c, 0, 57, 95
2, 226560, Note_off_c, 0, 52, 95
2, 226560, Note_on_c, 0, 69, 95
2, 226560, Note_on_c, 0, 61, 95
2, 226560, Note_on_c, 0, 57, 95
2, 226560, Note_on_c, 0, 52, 95
2, 226560, Note_on_c, 0, 49, 95
2, 226560, Note_on_c, 0, 45, 95
2, 227520, Note_off_c, 0, 69, 95
2, 227520, Note_off_c, 0, 61, 95
2, 227520, Note_off_c, 0, 57, 95
2, 227520, Note_off_c, 0, 52, 95
2, 227520, Note_off_c, 0, 49, 95
2, 227520, Note_off_c, 0, 45, 95
2, 227520, Note_on_c, 0, 69, 95
2, 227520, Note_on_c, 0, 61, 95
2, 227520, Note_on_c, 0, 57, 95
2, 227520, Note_on_c, 0, 52, 95
2, 227520, Note_on_c, 0, 49, 95
2, 227520, Note_on_c, 0, 45, 95
2, 228000, Note_off_c, 0, 69, 95
2, 228000, Note_off_c, 0, 61, 95
2, 228000, Note_off_c, 0, 57, 95
2, 228000, Note_off_c, 0, 52, 95
2, 228000, Note_off_c, 0, 49, 95
2, 228000, Note_off_c, 0, 45, 95
2, 228000, Note_on_c, 0, 69, 95
2, 228000, Note_on_c, 0, 61, 95
2, 228000, Note_on_c, 0, 57, 95
2, 228000, Note_on_c, 0, 52, 95
2, 228000, Note_on_c, 0, 49, 95
2, 228000, Note_on_c, 0, 45, 95
2, 228480, Note_off_c, 0, 69, 95
2, 228480, Note_off_c, 0, 61, 95
2, 228480, Note_off_c, 0, 57, 95
2, 228480, Note_off_c, 0, 52, 95
2, 228480, Note_off_c, 0, 49, 95
2, 228480, Note_off_c, 0, 45, 95
2, 228480, Note_on_c, 0, 66, 95
2, 228480, Note_on_c, 0, 62, 95
2, 228480, Note_on_c, 0, 57, 95
2, 228480, Note_on_c, 0, 54, 95
2, 228480, Note_on_c, 0, 50, 95
2, 228960, Note_off_c, 0, 66, 95
2, 228960, Note_off_c, 0, 62, 95
2, 228960, Note_off_c, 0, 57, 95
2, 228960, Note_off_c, 0, 54, 95
2, 228960, Note_off_c, 0, 50, 95
2, 228960, Note_on_c, 0, 52, 95
2, 229440, Note_off_c, 0, 52, 95
2, 229440, Note_on_c, 0, 54, 70
2, 229920, Note_off_c, 0, 54, 70
2, 229920, Note_on_c, 0, 57, 95
2, 230400, Note_off_c, 0, 57, 95
2, 230400, Note_on_c, 0, 69, 95
2, 230400, Note_on_c, 0, 61, 95
2, 230400, Note_on_c, 0, 57, 95
2, 230400, Note_on_c, 0, 52, 95
2, 230400, Note_on_c, 0, 49, 95
2, 230400, Note_on_c, 0, 45, 95
2, 231360, Note_off_c, 0, 69, 95
2, 231360, Note_off_c, 0, 61, 95
2, 231360, Note_off_c, 0, 57, 95
2, 231360, Note_off_c, 0, 52, 95
2, 231360, Note_off_c, 0, 49, 95
2, 231360, Note_off_c, 0, 45, 95
2, 231360, Note_on_c, 0, 69, 95
2, 231360, Note_on_c, 0, 61, 95
2, 231360, Note_on_c, 0, 57, 95
2, 231360, Note_on_c, 0, 52, 95
2, 231360, Note_on_c, 0, 49, 95
2, 231360, Note_on_c, 0, 45, 95
2, 231840, Note_off_c, 0, 69, 95
2, 231840, Note_off_c, 0, 61, 95
2, 231840, Note_off_c, 0, 57, 95
2, 231840, Note_off_c, 0, 52, 95
2, 231840, Note_off_c, 0, 49, 95
2, 231840, Note_off_c, 0, 45, 95
2, 231840, Note_on_c, 0, 69, 95
2, 231840, Note_on_c, 0, 61, 95
2, 231840, Note_on_c, 0, 57, 95
2, 231840, Note_on_c, 0, 52, 95
2, 231840, Note_on_c, 0, 49, 95
2, 231840, Note_on_c, 0, 45, 95
2, 232320, Note_off_c, 0, 69, 95
2, 232320, Note_off_c, 0, 61, 95
2, 232320, Note_off_c, 0, 57, 95
2, 232320, Note_off_c, 0, 52, 95
2, 232320, Note_off_c, 0, 49, 95
2, 232320, Note_off_c, 0, 45, 95
2, 232320, Note_on_c, 0, 66, 95
2, 232320, Note_on_c, 0, 62, 95
2, 232320, Note_on_c, 0, 57, 95
2, 232320, Note_on_c, 0, 54, 95
2, 232320, Note_on_c, 0, 50, 95
2, 233280, Note_off_c, 0, 66, 95
2, 233280, Note_off_c, 0, 62, 95
2, 233280, Note_off_c, 0, 57, 95
2, 233280, Note_off_c, 0, 54, 95
2, 233280, Note_off_c, 0, 50, 95
2, 233280, Note_on_c, 0, 66, 95
2, 233280, Note_on_c, 0, 62, 95
2, 233280, Note_on_c, 0, 57, 95
2, 233280, Note_on_c, 0, 54, 95
2, 233280, Note_on_c, 0, 50, 95
2, 233760, Note_off_c, 0, 66, 95
2, 233760, Note_off_c, 0, 62, 95
2, 233760, Note_off_c, 0, 57, 95
2, 233760, Note_off_c, 0, 54, 95
2, 233760, Note_off_c, 0, 50, 95
2, 233760, Note_on_c, 0, 66, 95
2, 233760, Note_on_c, 0, 61, 95
2, 233760, Note_on_c, 0, 57, 95
2, 233760, Note_on_c, 0, 52, 95
2, 234240, Note_off_c, 0, 66, 95
2, 234240, Note_off_c, 0, 61, 95
2, 234240, Note_off_c, 0, 57, 95
2, 234240, Note_off_c, 0, 52, 95
2, 234240, Note_on_c, 0, 69, 95
2, 234240, Note_on_c, 0, 61, 95
2, 234240, Note_on_c, 0, 57, 95
2, 234240, Note_on_c, 0, 52, 95
2, 234240, Note_on_c, 0, 49, 95
2, 234240, Note_on_c, 0, 45, 95
2, 235200, Note_off_c, 0, 69, 95
2, 235200, Note_off_c, 0, 61, 95
2, 235200, Note_off_c, 0, 57, 95
2, 235200, Note_off_c, 0, 52, 95
2, 235200, Note_off_c, 0, 49, 95
2, 235200, Note_off_c, 0, 45, 95
2, 235200, Note_on_c, 0, 69, 95
2, 235200, Note_on_c, 0, 61, 95
2, 235200, Note_on_c, 0, 57, 95
2, 235200, Note_on_c, 0, 52, 95
2, 235200, Note_on_c, 0, 49, 95
2, 235200, Note_on_c, 0, 45, 95
2, 235680, Note_off_c, 0, 69, 95
2, 235680, Note_off_c, 0, 61, 95
2, 235680, Note_off_c, 0, 57, 95
2, 235680, Note_off_c, 0, 52, 95
2, 235680, Note_off_c, 0, 49, 95
2, 235680, Note_off_c, 0, 45, 95
2, 235680, Note_on_c, 0, 69, 95
2, 235680, Note_on_c, 0, 61, 95
2, 235680, Note_on_c, 0, 57, 95
2, 235680, Note_on_c, 0, 52, 95
2, 235680, Note_on_c, 0, 49, 95
2, 235680, Note_on_c, 0, 45, 95
2, 236160, Note_off_c, 0, 69, 95
2, 236160, Note_off_c, 0, 61, 95
2, 236160, Note_off_c, 0, 57, 95
2, 236160, Note_off_c, 0, 52, 95
2, 236160, Note_off_c, 0, 49, 95
2, 236160, Note_off_c, 0, 45, 95
2, 236160, Note_on_c, 0, 66, 95
2, 236160, Note_on_c, 0, 62, 95
2, 236160, Note_on_c, 0, 57, 95
2, 236160, Note_on_c, 0, 54, 95
2, 236160, Note_on_c, 0, 50, 95
2, 236640, Note_off_c, 0, 66, 95
2, 236640, Note_off_c, 0, 62, 95
2, 236640, Note_off_c, 0, 57, 95
2, 236640, Note_off_c, 0, 54, 95
2, 236640, Note_off_c, 0, 50, 95
2, 236640, Note_on_c, 0, 52, 95
2, 237120, Note_off_c, 0, 52, 95
2, 237120, Note_on_c, 0, 54, 70
2, 237600, Note_off_c, 0, 54, 70
2, 237600, Note_on_c, 0, 57, 95
2, 238080, Note_off_c, 0, 57, 95
2, 238080, Note_on_c, 0, 69, 95
2, 238080, Note_on_c, 0, 61, 95
2, 238080, Note_on_c, 0, 57, 95
2, 238080, Note_on_c, 0, 52, 95
2, 238080, Note_on_c, 0, 49, 95
2, 238080, Note_on_c, 0, 45, 95
2, 239040, Note_off_c, 0, 69, 95
2, 239040, Note_off_c, 0, 61, 95
2, 239040, Note_off_c, 0, 57, 95
2, 239040, Note_off_c, 0, 52, 95
2, 239040, Note_off_c, 0, 49, 95
2, 239040, Note_off_c, 0, 45, 95
2, 239040, Note_on_c, 0, 69, 95
2, 239040, Note_on_c, 0, 61, 95
2, 239040, Note_on_c, 0, 57, 95
2, 239040, Note_on_c, 0, 52, 95
2, 239040, Note_on_c, 0, 49, 95
2, 239040, Note_on_c, 0, 45, 95
2, 239520, Note_off_c, 0, 69, 95
2, 239520, Note_off_c, 0, 61, 95
2, 239520, Note_off_c, 0, 57, 95
2, 239520, Note_off_c, 0, 52, 95
2, 239520, Note_off_c, 0, 49, 95
2, 239520, Note_off_c, 0, 45, 95
2, 239520, Note_on_c, 0, 69, 95
2, 239520, Note_on_c, 0, 61, 95
2, 239520, Note_on_c, 0, 57, 95
2, 239520, Note_on_c, 0, 52, 95
2, 239520, Note_on_c, 0, 49, 95
2, 239520, Note_on_c, 0, 45, 95
2, 240000, Note_off_c, 0, 69, 95
2, 240000, Note_off_c, 0, 61, 95
2, 240000, Note_off_c, 0, 57, 95
2, 240000, Note_off_c, 0, 52, 95
2, 240000, Note_off_c, 0, 49, 95
2, 240000, Note_off_c, 0, 45, 95
2, 240000, Note_on_c, 0, 66, 95
2, 240000, Note_on_c, 0, 62, 95
2, 240000, Note_on_c, 0, 57, 95
2, 240000, Note_on_c, 0, 54, 95
2, 240000, Note_on_c, 0, 50, 95
2, 240960, Note_off_c, 0, 66, 95
2, 240960, Note_off_c, 0, 62, 95
2, 240960, Note_off_c, 0, 57, 95
2, 240960, Note_off_c, 0, 54, 95
2, 240960, Note_off_c, 0, 50, 95
2, 240960, Note_on_c, 0, 66, 95
2, 240960, Note_on_c, 0, 62, 95
2, 240960, Note_on_c, 0, 57, 95
2, 240960, Note_on_c, 0, 54, 95
2, 240960, Note_on_c, 0, 50, 95
2, 241440, Note_off_c, 0, 66, 95
2, 241440, Note_off_c, 0, 62, 95
2, 241440, Note_off_c, 0, 57, 95
2, 241440, Note_off_c, 0, 54, 95
2, 241440, Note_off_c, 0, 50, 95
2, 241440, Note_on_c, 0, 66, 95
2, 241440, Note_on_c, 0, 61, 95
2, 241440, Note_on_c, 0, 57, 95
2, 241440, Note_on_c, 0, 52, 95
2, 241920, Note_off_c, 0, 66, 95
2, 241920, Note_off_c, 0, 61, 95
2, 241920, Note_off_c, 0, 57, 95
2, 241920, Note_off_c, 0, 52, 95
2, 241920, Note_on_c, 0, 69, 95
2, 241920, Note_on_c, 0, 61, 95
2, 241920, Note_on_c, 0, 57, 95
2, 241920, Note_on_c, 0, 52, 95
2, 241920, Note_on_c, 0, 49, 95
2, 241920, Note_on_c, 0, 45, 95
2, 245760, Note_off_c, 0, 69, 95
2, 245760, Note_off_c, 0, 61, 95
2, 245760, Note_off_c, 0, 57, 95
2, 245760, Note_off_c, 0, 52, 95
2, 245760, Note_off_c, 0, 49, 95
2, 245760, Note_off_c, 0, 45, 95
2, 245760, Note_on_c, 0, 69, 95
2, 245760, Note_on_c, 0, 64, 95
2, 245760, Note_on_c, 0, 57, 95
2, 245760, Note_on_c, 0, 52, 95
2, 245760, Note_on_c, 0, 49, 95
2, 245760, Note_on_c, 0, 45, 95
2, 246720, Note_off_c, 0, 69, 95
2, 246720, Note_off_c, 0, 64, 95
2, 246720, Note_off_c, 0, 57, 95
2, 246720, Note_off_c, 0, 52, 95
2, 246720, Note_off_c, 0, 49, 95
2, 246720, Note_off_c, 0, 45, 95
2, 246720, Note_on_c, 0, 69, 95
2, 246720, Note_on_c, 0, 64, 95
2, 246720, Note_on_c, 0, 57, 95
2, 246720, Note_on_c, 0, 52, 95
2, 246720, Note_on_c, 0, 49, 95
2, 246720, Note_on_c, 0, 45, 95
2, 247200, Note_off_c, 0, 69, 95
2, 247200, Note_off_c, 0, 64, 95
2, 247200, Note_off_c, 0, 57, 95
2, 247200, Note_off_c, 0, 52, 95
2, 247200, Note_off_c, 0, 49, 95
2, 247200, Note_off_c, 0, 45, 95
2, 247200, Note_on_c, 0, 69, 95
2, 247200, Note_on_c, 0, 64, 95
2, 247200, Note_on_c, 0, 57, 95
2, 247200, Note_on_c, 0, 52, 95
2, 247200, Note_on_c, 0, 49, 95
2, 247200, Note_on_c, 0, 45, 95
2, 247680, Note_off_c, 0, 69, 95
2, 247680, Note_off_c, 0, 64, 95
2, 247680, Note_off_c, 0, 57, 95
2, 247680, Note_off_c, 0, 52, 95
2, 247680, Note_off_c, 0, 49, 95
2, 247680, Note_off_c, 0, 45, 95
2, 247680, Note_on_c, 0, 69, 95
2, 247680, Note_on_c, 0, 64, 95
2, 247680, Note_on_c, 0, 57, 95
2, 247680, Note_on_c, 0, 52, 95
2, 247680, Note_on_c, 0, 49, 95
2, 247680, Note_on_c, 0, 45, 95
2, 248160, Note_off_c, 0, 69, 95
2, 248160, Note_off_c, 0, 64, 95
2, 248160, Note_off_c, 0, 57, 95
2, 248160, Note_off_c, 0, 52, 95
2, 248160, Note_off_c, 0, 49, 95
2, 248160, Note_off_c, 0, 45, 95
2, 248160, Note_on_c, 0, 69, 95
2, 248160, Note_on_c, 0, 64, 95
2, 248160, Note_on_c, 0, 57, 95
2, 248160, Note_on_c, 0, 52, 95
2, 248160, Note_on_c, 0, 49, 95
2, 248160, Note_on_c, 0, 45, 95
2, 248640, Note_off_c, 0, 69, 95
2, 248640, Note_off_c, 0, 64, 95
2, 248640, Note_off_c, 0, 57, 95
2, 248640, Note_off_c, 0, 52, 95
2, 248640, Note_off_c, 0, 49, 95
2, 248640, Note_off_c, 0, 45, 95
2, 248640, Note_on_c, 0, 69, 95
2, 248640, Note_on_c, 0, 64, 95
2, 248640, Note_on_c, 0, 57, 95
2, 248640, Note_on_c, 0, 52, 95
2, 248640, Note_on_c, 0, 49, 95
2, 248640, Note_on_c, 0, 45, 95
2, 249120, Note_off_c, 0, 69, 95
2, 249120, Note_off_c, 0, 64, 95
2, 249120, Note_off_c, 0, 57, 95
2, 249120, Note_off_c, 0, 52, 95
2, 249120, Note_off_c, 0, 49, 95
2, 249120, Note_off_c, 0, 45, 95
2, 249120, Note_on_c, 0, 69, 95
2, 249120, Note_on_c, 0, 64, 95
2, 249120, Note_on_c, 0, 57, 95
2, 249120, Note_on_c, 0, 52, 95
2, 249120, Note_on_c, 0, 49, 95
2, 249120, Note_on_c, 0, 45, 95
2, 249600, Note_off_c, 0, 69, 95
2, 249600, Note_off_c, 0, 64, 95
2, 249600, Note_off_c, 0, 57, 95
2, 249600, Note_off_c, 0, 52, 95
2, 249600, Note_off_c, 0, 49, 95
2, 249600, Note_off_c, 0, 45, 95
2, 249600, Note_on_c, 0, 69, 95
2, 249600, Note_on_c, 0, 64, 95
2, 249600, Note_on_c, 0, 57, 95
2, 249600, Note_on_c, 0, 52, 95
2, 249600, Note_on_c, 0, 49, 95
2, 249600, Note_on_c, 0, 45, 95
2, 250560, Note_off_c, 0, 69, 95
2, 250560, Note_off_c, 0, 64, 95
2, 250560, Note_off_c, 0, 57, 95
2, 250560, Note_off_c, 0, 52, 95
2, 250560, Note_off_c, 0, 49, 95
2, 250560, Note_off_c, 0, 45, 95
2, 250560, Note_on_c, 0, 69, 95
2, 250560, Note_on_c, 0, 64, 95
2, 250560, Note_on_c, 0, 57, 95
2, 250560, Note_on_c, 0, 52, 95
2, 250560, Note_on_c, 0, 49, 95
2, 250560, Note_on_c, 0, 45, 95
2, 251040, Note_off_c, 0, 69, 95
2, 251040, Note_off_c, 0, 64, 95
2, 251040, Note_off_c, 0, 57, 95
2, 251040, Note_off_c, 0, 52, 95
2, 251040, Note_off_c, 0, 49, 95
2, 251040, Note_off_c, 0, 45, 95
2, 251040, Note_on_c, 0, 69, 95
2, 251040, Note_on_c, 0, 64, 95
2, 251040, Note_on_c, 0, 57, 95
2, 251040, Note_on_c, 0, 52, 95
2, 251040, Note_on_c, 0, 49, 95
2, 251040, Note_on_c, 0, 45, 95
2, 251520, Note_off_c, 0, 69, 95
2, 251520, Note_off_c, 0, 64, 95
2, 251520, Note_off_c, 0, 57, 95
2, 251520, Note_off_c, 0, 52, 95
2, 251520, Note_off_c, 0, 49, 95
2, 251520, Note_off_c, 0, 45, 95
2, 251520, Note_on_c, 0, 69, 95
2, 251520, Note_on_c, 0, 64, 95
2, 251520, Note_on_c, 0, 57, 95
2, 251520, Note_on_c, 0, 52, 95
2, 251520, Note_on_c, 0, 49, 95
2, 251520, Note_on_c, 0, 45, 95
2, 252000, Note_off_c, 0, 69, 95
2, 252000, Note_off_c, 0, 64, 95
2, 252000, Note_off_c, 0, 57, 95
2, 252000, Note_off_c, 0, 52, 95
2, 252000, Note_off_c, 0, 49, 95
2, 252000, Note_off_c, 0, 45, 95
2, 252000, Note_on_c, 0, 69, 95
2, 252000, Note_on_c, 0, 64, 95
2, 252000, Note_on_c, 0, 57, 95
2, 252000, Note_on_c, 0, 52, 95
2, 252000, Note_on_c, 0, 49, 95
2, 252000, Note_on_c, 0, 45, 95
2, 252480, Note_off_c, 0, 69, 95
2, 252480, Note_off_c, 0, 64, 95
2, 252480, Note_off_c, 0, 57, 95
2, 252480, Note_off_c, 0, 52, 95
2, 252480, Note_off_c, 0, 49, 95
2, 252480, Note_off_c, 0, 45, 95
2, 252480, Note_on_c, 0, 69, 95
2, 252480, Note_on_c, 0, 64, 95
2, 252480, Note_on_c, 0, 57, 95
2, 252480, Note_on_c, 0, 52, 95
2, 252480, Note_on_c, 0, 49, 95
2, 252480, Note_on_c, 0, 45, 95
2, 252960, Note_off_c, 0, 69, 95
2, 252960, Note_off_c, 0, 64, 95
2, 252960, Note_off_c, 0, 57, 95
2, 252960, Note_off_c, 0, 52, 95
2, 252960, Note_off_c, 0, 49, 95
2, 252960, Note_off_c, 0, 45, 95
2, 252960, Note_on_c, 0, 69, 95
2, 252960, Note_on_c, 0, 64, 95
2, 252960, Note_on_c, 0, 57, 95
2, 252960, Note_on_c, 0, 52, 95
2, 252960, Note_on_c, 0, 49, 95
2, 252960, Note_on_c, 0, 45, 95
2, 253440, Note_off_c, 0, 69, 95
2, 253440, Note_off_c, 0, 64, 95
2, 253440, Note_off_c, 0, 57, 95
2, 253440, Note_off_c, 0, 52, 95
2, 253440, Note_off_c, 0, 49, 95
2, 253440, Note_off_c, 0, 45, 95
2, 253440, Note_on_c, 0, 68, 95
2, 253440, Note_on_c, 0, 64, 95
2, 253440, Note_on_c, 0, 61, 95
2, 253440, Note_on_c, 0, 56, 95
2, 253440, Note_on_c, 0, 49, 95
2, 254400, Note_off_c, 0, 68, 95
2, 254400, Note_off_c, 0, 64, 95
2, 254400, Note_off_c, 0, 61, 95
2, 254400, Note_off_c, 0, 56, 95
2, 254400, Note_off_c, 0, 49, 95
2, 254400, Note_on_c, 0, 68, 95
2, 254400, Note_on_c, 0, 64, 95
2, 254400, Note_on_c, 0, 61, 95
2, 254400, Note_on_c, 0, 56, 95
2, 254400, Note_on_c, 0, 49, 95
2, 254880, Note_off_c, 0, 68, 95
2, 254880, Note_off_c, 0, 64, 95
2, 254880, Note_off_c, 0, 61, 95
2, 254880, Note_off_c, 0, 56, 95
2, 254880, Note_off_c, 0, 49, 95
2, 254880, Note_on_c, 0, 68, 95
2, 254880, Note_on_c, 0, 64, 95
2, 254880, Note_on_c, 0, 61, 95
2, 254880, Note_on_c, 0, 56, 95
2, 254880, Note_on_c, 0, 49, 95
2, 255840, Note_off_c, 0, 68, 95
2, 255840, Note_off_c, 0, 64, 95
2, 255840, Note_off_c, 0, 61, 95
2, 255840, Note_off_c, 0, 56, 95
2, 255840, Note_off_c, 0, 49, 95
2, 255840, Note_on_c, 0, 68, 95
2, 255840, Note_on_c, 0, 64, 95
2, 255840, Note_on_c, 0, 61, 95
2, 255840, Note_on_c, 0, 56, 95
2, 255840, Note_on_c, 0, 49, 95
2, 256800, Note_off_c, 0, 68, 95
2, 256800, Note_off_c, 0, 64, 95
2, 256800, Note_off_c, 0, 61, 95
2, 256800, Note_off_c, 0, 56, 95
2, 256800, Note_off_c, 0, 49, 95
2, 256800, Note_on_c, 0, 68, 95
2, 256800, Note_on_c, 0, 64, 95
2, 256800, Note_on_c, 0, 61, 95
2, 256800, Note_on_c, 0, 56, 95
2, 256800, Note_on_c, 0, 49, 95
2, 257280, Note_off_c, 0, 68, 95
2, 257280, Note_off_c, 0, 64, 95
2, 257280, Note_off_c, 0, 61, 95
2, 257280, Note_off_c, 0, 56, 95
2, 257280, Note_off_c, 0, 49, 95
2, 257280, Note_on_c, 0, 68, 95
2, 257280, Note_on_c, 0, 64, 95
2, 257280, Note_on_c, 0, 61, 95
2, 257280, Note_on_c, 0, 56, 95
2, 257280, Note_on_c, 0, 49, 95
2, 258240, Note_off_c, 0, 68, 95
2, 258240, Note_off_c, 0, 64, 95
2, 258240, Note_off_c, 0, 61, 95
2, 258240, Note_off_c, 0, 56, 95
2, 258240, Note_off_c, 0, 49, 95
2, 258240, Note_on_c, 0, 68, 95
2, 258240, Note_on_c, 0, 64, 95
2, 258240, Note_on_c, 0, 61, 95
2, 258240, Note_on_c, 0, 56, 95
2, 258240, Note_on_c, 0, 49, 95
2, 258720, Note_off_c, 0, 68, 95
2, 258720, Note_off_c, 0, 64, 95
2, 258720, Note_off_c, 0, 61, 95
2, 258720, Note_off_c, 0, 56, 95
2, 258720, Note_off_c, 0, 49, 95
2, 258720, Note_on_c, 0, 68, 95
2, 258720, Note_on_c, 0, 64, 95
2, 258720, Note_on_c, 0, 61, 95
2, 258720, Note_on_c, 0, 56, 95
2, 258720, Note_on_c, 0, 49, 95
2, 259200, Note_off_c, 0, 68, 95
2, 259200, Note_off_c, 0, 64, 95
2, 259200, Note_off_c, 0, 61, 95
2, 259200, Note_off_c, 0, 56, 95
2, 259200, Note_off_c, 0, 49, 95
2, 259200, Note_on_c, 0, 68, 95
2, 259200, Note_on_c, 0, 64, 95
2, 259200, Note_on_c, 0, 61, 95
2, 259200, Note_on_c, 0, 56, 95
2, 259200, Note_on_c, 0, 49, 95
2, 259680, Note_off_c, 0, 68, 95
2, 259680, Note_off_c, 0, 64, 95
2, 259680, Note_off_c, 0, 61, 95
2, 259680, Note_off_c, 0, 56, 95
2, 259680, Note_off_c, 0, 49, 95
2, 259680, Note_on_c, 0, 68, 95
2, 259680, Note_on_c, 0, 64, 95
2, 259680, Note_on_c, 0, 61, 95
2, 259680, Note_on_c, 0, 56, 95
2, 259680, Note_on_c, 0, 49, 95
2, 260160, Note_off_c, 0, 68, 95
2, 260160, Note_off_c, 0, 64, 95
2, 260160, Note_off_c, 0, 61, 95
2, 260160, Note_off_c, 0, 56, 95
2, 260160, Note_off_c, 0, 49, 95
2, 260160, Note_on_c, 0, 68, 95
2, 260160, Note_on_c, 0, 64, 95
2, 260160, Note_on_c, 0, 61, 95
2, 260160, Note_on_c, 0, 56, 95
2, 260160, Note_on_c, 0, 49, 95
2, 260640, Note_off_c, 0, 68, 95
2, 260640, Note_off_c, 0, 64, 95
2, 260640, Note_off_c, 0, 61, 95
2, 260640, Note_off_c, 0, 56, 95
2, 260640, Note_off_c, 0, 49, 95
2, 260640, Note_on_c, 0, 68, 95
2, 260640, Note_on_c, 0, 64, 95
2, 260640, Note_on_c, 0, 61, 95
2, 260640, Note_on_c, 0, 56, 95
2, 260640, Note_on_c, 0, 49, 95
2, 261120, Note_off_c, 0, 68, 95
2, 261120, Note_off_c, 0, 64, 95
2, 261120, Note_off_c, 0, 61, 95
2, 261120, Note_off_c, 0, 56, 95
2, 261120, Note_off_c, 0, 49, 95
2, 261120, Note_on_c, 0, 66, 95
2, 261120, Note_on_c, 0, 62, 95
2, 261120, Note_on_c, 0, 57, 95
2, 261120, Note_on_c, 0, 54, 95
2, 261120, Note_on_c, 0, 50, 95
2, 262080, Note_off_c, 0, 66, 95
2, 262080, Note_off_c, 0, 62, 95
2, 262080, Note_off_c, 0, 57, 95
2, 262080, Note_off_c, 0, 54, 95
2, 262080, Note_off_c, 0, 50, 95
2, 262080, Note_on_c, 0, 66, 95
2, 262080, Note_on_c, 0, 62, 95
2, 262080, Note_on_c, 0, 57, 95
2, 262080, Note_on_c, 0, 54, 95
2, 262080, Note_on_c, 0, 50, 95
2, 262560, Note_off_c, 0, 66, 95
2, 262560, Note_off_c, 0, 62, 95
2, 262560, Note_off_c, 0, 57, 95
2, 262560, Note_off_c, 0, 54, 95
2, 262560, Note_off_c, 0, 50, 95
2, 262560, Note_on_c, 0, 66, 95
2, 262560, Note_on_c, 0, 62, 95
2, 262560, Note_on_c, 0, 57, 95
2, 262560, Note_on_c, 0, 54, 95
2, 262560, Note_on_c, 0, 50, 95
2, 263040, Note_off_c, 0, 66, 95
2, 263040, Note_off_c, 0, 62, 95
2, 263040, Note_off_c, 0, 57, 95
2, 263040, Note_off_c, 0, 54, 95
2, 263040, Note_off_c, 0, 50, 95
2, 263040, Note_on_c, 0, 66, 95
2, 263040, Note_on_c, 0, 62, 95
2, 263040, Note_on_c, 0, 57, 95
2, 263040, Note_on_c, 0, 54, 95
2, 263040, Note_on_c, 0, 50, 95
2, 263520, Note_off_c, 0, 66, 95
2, 263520, Note_off_c, 0, 62, 95
2, 263520, Note_off_c, 0, 57, 95
2, 263520, Note_off_c, 0, 54, 95
2, 263520, Note_off_c, 0, 50, 95
2, 263520, Note_on_c, 0, 66, 95
2, 263520, Note_on_c, 0, 62, 95
2, 263520, Note_on_c, 0, 57, 95
2, 263520, Note_on_c, 0, 54, 95
2, 263520, Note_on_c, 0, 50, 95
2, 264000, Note_off_c, 0, 66, 95
2, 264000, Note_off_c, 0, 62, 95
2, 264000, Note_off_c, 0, 57, 95
2, 264000, Note_off_c, 0, 54, 95
2, 264000, Note_off_c, 0, 50, 95
2, 264000, Note_on_c, 0, 66, 95
2, 264000, Note_on_c, 0, 62, 95
2, 264000, Note_on_c, 0, 57, 95
2, 264000, Note_on_c, 0, 54, 95
2, 264000, Note_on_c, 0, 50, 95
2, 264480, Note_off_c, 0, 66, 95
2, 264480, Note_off_c, 0, 62, 95
2, 264480, Note_off_c, 0, 57, 95
2, 264480, Note_off_c, 0, 54, 95
2, 264480, Note_off_c, 0, 50, 95
2, 264480, Note_on_c, 0, 66, 95
2, 264480, Note_on_c, 0, 62, 95
2, 264480, Note_on_c, 0, 57, 95
2, 264480, Note_on_c, 0, 54, 95
2, 264480, Note_on_c, 0, 50, 95
2, 264960, Note_off_c, 0, 66, 95
2, 264960, Note_off_c, 0, 62, 95
2, 264960, Note_off_c, 0, 57, 95
2, 264960, Note_off_c, 0, 54, 95
2, 264960, Note_off_c, 0, 50, 95
2, 264960, Note_on_c, 0, 66, 95
2, 264960, Note_on_c, 0, 62, 95
2, 264960, Note_on_c, 0, 57, 95
2, 264960, Note_on_c, 0, 54, 95
2, 264960, Note_on_c, 0, 50, 95
2, 265440, Note_off_c, 0, 66, 95
2, 265440, Note_off_c, 0, 62, 95
2, 265440, Note_off_c, 0, 57, 95
2, 265440, Note_off_c, 0, 54, 95
2, 265440, Note_off_c, 0, 50, 95
2, 265440, Note_on_c, 0, 66, 95
2, 265440, Note_on_c, 0, 62, 95
2, 265440, Note_on_c, 0, 57, 95
2, 265440, Note_on_c, 0, 54, 95
2, 265440, Note_on_c, 0, 50, 95
2, 266400, Note_off_c, 0, 66, 95
2, 266400, Note_off_c, 0, 62, 95
2, 266400, Note_off_c, 0, 57, 95
2, 266400, Note_off_c, 0, 54, 95
2, 266400, Note_off_c, 0, 50, 95
2, 266400, Note_on_c, 0, 66, 95
2, 266400, Note_on_c, 0, 62, 95
2, 266400, Note_on_c, 0, 57, 95
2, 266400, Note_on_c, 0, 54, 95
2, 266400, Note_on_c, 0, 50, 95
2, 266880, Note_off_c, 0, 66, 95
2, 266880, Note_off_c, 0, 62, 95
2, 266880, Note_off_c, 0, 57, 95
2, 266880, Note_off_c, 0, 54, 95
2, 266880, Note_off_c, 0, 50, 95
2, 266880, Note_on_c, 0, 66, 95
2, 266880, Note_on_c, 0, 62, 95
2, 266880, Note_on_c, 0, 57, 95
2, 266880, Note_on_c, 0, 54, 95
2, 266880, Note_on_c, 0, 50, 95
2, 267360, Note_off_c, 0, 66, 95
2, 267360, Note_off_c, 0, 62, 95
2, 267360, Note_off_c, 0, 57, 95
2, 267360, Note_off_c, 0, 54, 95
2, 267360, Note_off_c, 0, 50, 95
2, 267360, Note_on_c, 0, 66, 95
2, 267360, Note_on_c, 0, 62, 95
2, 267360, Note_on_c, 0, 57, 95
2, 267360, Note_on_c, 0, 54, 95
2, 267360, Note_on_c, 0, 50, 95
2, 267840, Note_off_c, 0, 66, 95
2, 267840, Note_off_c, 0, 62, 95
2, 267840, Note_off_c, 0, 57, 95
2, 267840, Note_off_c, 0, 54, 95
2, 267840, Note_off_c, 0, 50, 95
2, 267840, Note_on_c, 0, 66, 95
2, 267840, Note_on_c, 0, 62, 95
2, 267840, Note_on_c, 0, 57, 95
2, 267840, Note_on_c, 0, 54, 95
2, 267840, Note_on_c, 0, 50, 95
2, 268320, Note_off_c, 0, 66, 95
2, 268320, Note_off_c, 0, 62, 95
2, 268320, Note_off_c, 0, 57, 95
2, 268320, Note_off_c, 0, 54, 95
2, 268320, Note_off_c, 0, 50, 95
2, 268320, Note_on_c, 0, 66, 95
2, 268320, Note_on_c, 0, 62, 95
2, 268320, Note_on_c, 0, 57, 95
2, 268320, Note_on_c, 0, 54, 95
2, 268320, Note_on_c, 0, 50, 95
2, 268800, Note_off_c, 0, 66, 95
2, 268800, Note_off_c, 0, 62, 95
2, 268800, Note_off_c, 0, 57, 95
2, 268800, Note_off_c, 0, 54, 95
2, 268800, Note_off_c, 0, 50, 95
2, 268800, Note_on_c, 0, 68, 95
2, 268800, Note_on_c, 0, 64, 95
2, 268800, Note_on_c, 0, 59, 95
2, 268800, Note_on_c, 0, 52, 95
2, 269280, Note_off_c, 0, 68, 95
2, 269280, Note_off_c, 0, 64, 95
2, 269280, Note_off_c, 0, 59, 95
2, 269280, Note_off_c, 0, 52, 95
2, 269280, Note_on_c, 0, 68, 95
2, 269280, Note_on_c, 0, 64, 95
2, 269280, Note_on_c, 0, 59, 95
2, 269280, Note_on_c, 0, 52, 95
2, 269760, Note_off_c, 0, 68, 95
2, 269760, Note_off_c, 0, 64, 95
2, 269760, Note_off_c, 0, 59, 95
2, 269760, Note_off_c, 0, 52, 95
2, 269760, Note_on_c, 0, 68, 95
2, 269760, Note_on_c, 0, 64, 95
2, 269760, Note_on_c, 0, 59, 95
2, 269760, Note_on_c, 0, 52, 95
2, 270240, Note_off_c, 0, 68, 95
2, 270240, Note_off_c, 0, 64, 95
2, 270240, Note_off_c, 0, 59, 95
2, 270240, Note_off_c, 0, 52, 95
2, 270240, Note_on_c, 0, 68, 95
2, 270240, Note_on_c, 0, 64, 95
2, 270240, Note_on_c, 0, 59, 95
2, 270240, Note_on_c, 0, 52, 95
2, 270720, Note_off_c, 0, 68, 95
2, 270720, Note_off_c, 0, 64, 95
2, 270720, Note_off_c, 0, 59, 95
2, 270720, Note_off_c, 0, 52, 95
2, 270720, Note_on_c, 0, 68, 95
2, 270720, Note_on_c, 0, 64, 95
2, 270720, Note_on_c, 0, 59, 95
2, 270720, Note_on_c, 0, 52, 95
2, 271200, Note_off_c, 0, 68, 95
2, 271200, Note_off_c, 0, 64, 95
2, 271200, Note_off_c, 0, 59, 95
2, 271200, Note_off_c, 0, 52, 95
2, 271200, Note_on_c, 0, 68, 95
2, 271200, Note_on_c, 0, 64, 95
2, 271200, Note_on_c, 0, 59, 95
2, 271200, Note_on_c, 0, 52, 95
2, 271680, Note_off_c, 0, 68, 95
2, 271680, Note_off_c, 0, 64, 95
2, 271680, Note_off_c, 0, 59, 95
2, 271680, Note_off_c, 0, 52, 95
2, 271680, Note_on_c, 0, 68, 95
2, 271680, Note_on_c, 0, 64, 95
2, 271680, Note_on_c, 0, 59, 95
2, 271680, Note_on_c, 0, 52, 95
2, 272160, Note_off_c, 0, 68, 95
2, 272160, Note_off_c, 0, 64, 95
2, 272160, Note_off_c, 0, 59, 95
2, 272160, Note_off_c, 0, 52, 95
2, 272160, Note_on_c, 0, 68, 95
2, 272160, Note_on_c, 0, 64, 95
2, 272160, Note_on_c, 0, 59, 95
2, 272160, Note_on_c, 0, 52, 95
2, 272640, Note_off_c, 0, 68, 95
2, 272640, Note_off_c, 0, 64, 95
2, 272640, Note_off_c, 0, 59, 95
2, 272640, Note_off_c, 0, 52, 95
2, 272640, Note_on_c, 0, 68, 95
2, 272640, Note_on_c, 0, 64, 95
2, 272640, Note_on_c, 0, 59, 95
2, 272640, Note_on_c, 0, 52, 95
2, 273120, Note_off_c, 0, 68, 95
2, 273120, Note_off_c, 0, 64, 95
2, 273120, Note_off_c, 0, 59, 95
2, 273120, Note_off_c, 0, 52, 95
2, 273120, Note_on_c, 0, 68, 95
2, 273120, Note_on_c, 0, 64, 95
2, 273120, Note_on_c, 0, 59, 95
2, 273120, Note_on_c, 0, 52, 95
2, 273600, Note_off_c, 0, 68, 95
2, 273600, Note_off_c, 0, 64, 95
2, 273600, Note_off_c, 0, 59, 95
2, 273600, Note_off_c, 0, 52, 95
2, 273600, Note_on_c, 0, 68, 95
2, 273600, Note_on_c, 0, 64, 95
2, 273600, Note_on_c, 0, 59, 95
2, 273600, Note_on_c, 0, 52, 95
2, 274080, Note_off_c, 0, 68, 95
2, 274080, Note_off_c, 0, 64, 95
2, 274080, Note_off_c, 0, 59, 95
2, 274080, Note_off_c, 0, 52, 95
2, 274080, Note_on_c, 0, 68, 95
2, 274080, Note_on_c, 0, 64, 95
2, 274080, Note_on_c, 0, 59, 95
2, 274080, Note_on_c, 0, 52, 95
2, 274560, Note_off_c, 0, 68, 95
2, 274560, Note_off_c, 0, 64, 95
2, 274560, Note_off_c, 0, 59, 95
2, 274560, Note_off_c, 0, 52, 95
2, 274560, Note_on_c, 0, 68, 95
2, 274560, Note_on_c, 0, 64, 95
2, 274560, Note_on_c, 0, 59, 95
2, 274560, Note_on_c, 0, 52, 95
2, 275040, Note_off_c, 0, 68, 95
2, 275040, Note_off_c, 0, 64, 95
2, 275040, Note_off_c, 0, 59, 95
2, 275040, Note_off_c, 0, 52, 95
2, 275040, Note_on_c, 0, 68, 95
2, 275040, Note_on_c, 0, 64, 95
2, 275040, Note_on_c, 0, 59, 95
2, 275040, Note_on_c, 0, 52, 95
2, 275520, Note_off_c, 0, 68, 95
2, 275520, Note_off_c, 0, 64, 95
2, 275520, Note_off_c, 0, 59, 95
2, 275520, Note_off_c, 0, 52, 95
2, 275520, Note_on_c, 0, 68, 95
2, 275520, Note_on_c, 0, 64, 95
2, 275520, Note_on_c, 0, 59, 95
2, 275520, Note_on_c, 0, 52, 95
2, 276000, Note_off_c, 0, 68, 95
2, 276000, Note_off_c, 0, 64, 95
2, 276000, Note_off_c, 0, 59, 95
2, 276000, Note_off_c, 0, 52, 95
2, 276000, Note_on_c, 0, 68, 95
2, 276000, Note_on_c, 0, 64, 95
2, 276000, Note_on_c, 0, 59, 95
2, 276000, Note_on_c, 0, 52, 95
2, 276480, Note_off_c, 0, 68, 95
2, 276480, Note_off_c, 0, 64, 95
2, 276480, Note_off_c, 0, 59, 95
2, 276480, Note_off_c, 0, 52, 95
2, 276480, Note_on_c, 0, 66, 95
2, 276480, Note_on_c, 0, 63, 95
2, 276480, Note_on_c, 0, 59, 95
2, 276480, Note_on_c, 0, 54, 95
2, 276480, Note_on_c, 0, 47, 95
2, 276960, Note_off_c, 0, 66, 95
2, 276960, Note_off_c, 0, 63, 95
2, 276960, Note_off_c, 0, 59, 95
2, 276960, Note_off_c, 0, 54, 95
2, 276960, Note_off_c, 0, 47, 95
2, 276960, Note_on_c, 0, 66, 95
2, 276960, Note_on_c, 0, 63, 95
2, 276960, Note_on_c, 0, 59, 95
2, 276960, Note_on_c, 0, 54, 95
2, 276960, Note_on_c, 0, 47, 95
2, 277440, Note_off_c, 0, 66, 95
2, 277440, Note_off_c, 0, 63, 95
2, 277440, Note_off_c, 0, 59, 95
2, 277440, Note_off_c, 0, 54, 95
2, 277440, Note_off_c, 0, 47, 95
2, 277440, Note_on_c, 0, 66, 95
2, 277440, Note_on_c, 0, 63, 95
2, 277440, Note_on_c, 0, 59, 95
2, 277440, Note_on_c, 0, 54, 95
2, 277440, Note_on_c, 0, 47, 95
2, 277920, Note_off_c, 0, 66, 95
2, 277920, Note_off_c, 0, 63, 95
2, 277920, Note_off_c, 0, 59, 95
2, 277920, Note_off_c, 0, 54, 95
2, 277920, Note_off_c, 0, 47, 95
2, 277920, Note_on_c, 0, 66, 95
2, 277920, Note_on_c, 0, 63, 95
2, 277920, Note_on_c, 0, 59, 95
2, 277920, Note_on_c, 0, 54, 95
2, 277920, Note_on_c, 0, 47, 95
2, 278400, Note_off_c, 0, 66, 95
2, 278400, Note_off_c, 0, 63, 95
2, 278400, Note_off_c, 0, 59, 95
2, 278400, Note_off_c, 0, 54, 95
2, 278400, Note_off_c, 0, 47, 95
2, 278400, Note_on_c, 0, 66, 95
2, 278400, Note_on_c, 0, 63, 95
2, 278400, Note_on_c, 0, 59, 95
2, 278400, Note_on_c, 0, 54, 95
2, 278400, Note_on_c, 0, 47, 95
2, 278880, Note_off_c, 0, 66, 95
2, 278880, Note_off_c, 0, 63, 95
2, 278880, Note_off_c, 0, 59, 95
2, 278880, Note_off_c, 0, 54, 95
2, 278880, Note_off_c, 0, 47, 95
2, 278880, Note_on_c, 0, 66, 95
2, 278880, Note_on_c, 0, 63, 95
2, 278880, Note_on_c, 0, 59, 95
2, 278880, Note_on_c, 0, 54, 95
2, 278880, Note_on_c, 0, 47, 95
2, 279360, Note_off_c, 0, 66, 95
2, 279360, Note_off_c, 0, 63, 95
2, 279360, Note_off_c, 0, 59, 95
2, 279360, Note_off_c, 0, 54, 95
2, 279360, Note_off_c, 0, 47, 95
2, 279360, Note_on_c, 0, 66, 95
2, 279360, Note_on_c, 0, 63, 95
2, 279360, Note_on_c, 0, 59, 95
2, 279360, Note_on_c, 0, 54, 95
2, 279360, Note_on_c, 0, 47, 95
2, 279840, Note_off_c, 0, 66, 95
2, 279840, Note_off_c, 0, 63, 95
2, 279840, Note_off_c, 0, 59, 95
2, 279840, Note_off_c, 0, 54, 95
2, 279840, Note_off_c, 0, 47, 95
2, 279840, Note_on_c, 0, 66, 95
2, 279840, Note_on_c, 0, 63, 95
2, 279840, Note_on_c, 0, 59, 95
2, 279840, Note_on_c, 0, 54, 95
2, 279840, Note_on_c, 0, 47, 95
2, 280320, Note_off_c, 0, 66, 95
2, 280320, Note_off_c, 0, 63, 95
2, 280320, Note_off_c, 0, 59, 95
2, 280320, Note_off_c, 0, 54, 95
2, 280320, Note_off_c, 0, 47, 95
2, 280320, Note_on_c, 0, 66, 95
2, 280320, Note_on_c, 0, 63, 95
2, 280320, Note_on_c, 0, 59, 95
2, 280320, Note_on_c, 0, 54, 95
2, 280320, Note_on_c, 0, 47, 95
2, 280800, Note_off_c, 0, 66, 95
2, 280800, Note_off_c, 0, 63, 95
2, 280800, Note_off_c, 0, 59, 95
2, 280800, Note_off_c, 0, 54, 95
2, 280800, Note_off_c, 0, 47, 95
2, 280800, Note_on_c, 0, 66, 95
2, 280800, Note_on_c, 0, 63, 95
2, 280800, Note_on_c, 0, 59, 95
2, 280800, Note_on_c, 0, 54, 95
2, 280800, Note_on_c, 0, 47, 95
2, 281280, Note_off_c, 0, 66, 95
2, 281280, Note_off_c, 0, 63, 95
2, 281280, Note_off_c, 0, 59, 95
2, 281280, Note_off_c, 0, 54, 95
2, 281280, Note_off_c, 0, 47, 95
2, 281280, Note_on_c, 0, 66, 95
2, 281280, Note_on_c, 0, 63, 95
2, 281280, Note_on_c, 0, 59, 95
2, 281280, Note_on_c, 0, 54, 95
2, 281280, Note_on_c, 0, 47, 95
2, 281760, Note_off_c, 0, 66, 95
2, 281760, Note_off_c, 0, 63, 95
2, 281760, Note_off_c, 0, 59, 95
2, 281760, Note_off_c, 0, 54, 95
2, 281760, Note_off_c, 0, 47, 95
2, 281760, Note_on_c, 0, 66, 95
2, 281760, Note_on_c, 0, 63, 95
2, 281760, Note_on_c, 0, 59, 95
2, 281760, Note_on_c, 0, 54, 95
2, 281760, Note_on_c, 0, 47, 95
2, 282240, Note_off_c, 0, 66, 95
2, 282240, Note_off_c, 0, 63, 95
2, 282240, Note_off_c, 0, 59, 95
2, 282240, Note_off_c, 0, 54, 95
2, 282240, Note_off_c, 0, 47, 95
2, 282240, Note_on_c, 0, 66, 95
2, 282240, Note_on_c, 0, 63, 95
2, 282240, Note_on_c, 0, 59, 95
2, 282240, Note_on_c, 0, 54, 95
2, 282240, Note_on_c, 0, 47, 95
2, 282720, Note_off_c, 0, 66, 95
2, 282720, Note_off_c, 0, 63, 95
2, 282720, Note_off_c, 0, 59, 95
2, 282720, Note_off_c, 0, 54, 95
2, 282720, Note_off_c, 0, 47, 95
2, 282720, Note_on_c, 0, 66, 95
2, 282720, Note_on_c, 0, 63, 95
2, 282720, Note_on_c, 0, 59, 95
2, 282720, Note_on_c, 0, 54, 95
2, 282720, Note_on_c, 0, 47, 95
2, 283200, Note_off_c, 0, 66, 95
2, 283200, Note_off_c, 0, 63, 95
2, 283200, Note_off_c, 0, 59, 95
2, 283200, Note_off_c, 0, 54, 95
2, 283200, Note_off_c, 0, 47, 95
2, 283200, Note_on_c, 0, 66, 95
2, 283200, Note_on_c, 0, 63, 95
2, 283200, Note_on_c, 0, 59, 95
2, 283200, Note_on_c, 0, 54, 95
2, 283200, Note_on_c, 0, 47, 95
2, 283680, Note_off_c, 0, 66, 95
2, 283680, Note_off_c, 0, 63, 95
2, 283680, Note_off_c, 0, 59, 95
2, 283680, Note_off_c, 0, 54, 95
2, 283680, Note_off_c, 0, 47, 95
2, 283680, Note_on_c, 0, 66, 95
2, 283680, Note_on_c, 0, 63, 95
2, 283680, Note_on_c, 0, 59, 95
2, 283680, Note_on_c, 0, 54, 95
2, 283680, Note_on_c, 0, 47, 95
2, 284160, Note_off_c, 0, 66, 95
2, 284160, Note_off_c, 0, 63, 95
2, 284160, Note_off_c, 0, 59, 95
2, 284160, Note_off_c, 0, 54, 95
2, 284160, Note_off_c, 0, 47, 95
2, 284160, Note_on_c, 0, 68, 95
2, 284160, Note_on_c, 0, 64, 95
2, 284160, Note_on_c, 0, 61, 95
2, 284160, Note_on_c, 0, 56, 95
2, 284160, Note_on_c, 0, 49, 95
2, 284640, Note_off_c, 0, 68, 95
2, 284640, Note_off_c, 0, 64, 95
2, 284640, Note_off_c, 0, 61, 95
2, 284640, Note_off_c, 0, 56, 95
2, 284640, Note_off_c, 0, 49, 95
2, 284640, Note_on_c, 0, 68, 95
2, 284640, Note_on_c, 0, 64, 95
2, 284640, Note_on_c, 0, 61, 95
2, 284640, Note_on_c, 0, 56, 95
2, 284640, Note_on_c, 0, 49, 95
2, 285120, Note_off_c, 0, 68, 95
2, 285120, Note_off_c, 0, 64, 95
2, 285120, Note_off_c, 0, 61, 95
2, 285120, Note_off_c, 0, 56, 95
2, 285120, Note_off_c, 0, 49, 95
2, 285120, Note_on_c, 0, 68, 95
2, 285120, Note_on_c, 0, 64, 95
2, 285120, Note_on_c, 0, 61, 95
2, 285120, Note_on_c, 0, 56, 95
2, 285120, Note_on_c, 0, 49, 95
2, 285600, Note_off_c, 0, 68, 95
2, 285600, Note_off_c, 0, 64, 95
2, 285600, Note_off_c, 0, 61, 95
2, 285600, Note_off_c, 0, 56, 95
2, 285600, Note_off_c, 0, 49, 95
2, 285600, Note_on_c, 0, 68, 95
2, 285600, Note_on_c, 0, 64, 95
2, 285600, Note_on_c, 0, 61, 95
2, 285600, Note_on_c, 0, 56, 95
2, 285600, Note_on_c, 0, 49, 95
2, 286080, Note_off_c, 0, 68, 95
2, 286080, Note_off_c, 0, 64, 95
2, 286080, Note_off_c, 0, 61, 95
2, 286080, Note_off_c, 0, 56, 95
2, 286080, Note_off_c, 0, 49, 95
2, 286080, Note_on_c, 0, 68, 95
2, 286080, Note_on_c, 0, 64, 95
2, 286080, Note_on_c, 0, 61, 95
2, 286080, Note_on_c, 0, 56, 95
2, 286080, Note_on_c, 0, 49, 95
2, 286560, Note_off_c, 0, 68, 95
2, 286560, Note_off_c, 0, 64, 95
2, 286560, Note_off_c, 0, 61, 95
2, 286560, Note_off_c, 0, 56, 95
2, 286560, Note_off_c, 0, 49, 95
2, 286560, Note_on_c, 0, 68, 95
2, 286560, Note_on_c, 0, 64, 95
2, 286560, Note_on_c, 0, 61, 95
2, 286560, Note_on_c, 0, 56, 95
2, 286560, Note_on_c, 0, 49, 95
2, 287040, Note_off_c, 0, 68, 95
2, 287040, Note_off_c, 0, 64, 95
2, 287040, Note_off_c, 0, 61, 95
2, 287040, Note_off_c, 0, 56, 95
2, 287040, Note_off_c, 0, 49, 95
2, 287040, Note_on_c, 0, 68, 95
2, 287040, Note_on_c, 0, 64, 95
2, 287040, Note_on_c, 0, 61, 95
2, 287040, Note_on_c, 0, 56, 95
2, 287040, Note_on_c, 0, 49, 95
2, 287520, Note_off_c, 0, 68, 95
2, 287520, Note_off_c, 0, 64, 95
2, 287520, Note_off_c, 0, 61, 95
2, 287520, Note_off_c, 0, 56, 95
2, 287520, Note_off_c, 0, 49, 95
2, 287520, Note_on_c, 0, 68, 95
2, 287520, Note_on_c, 0, 64, 95
2, 287520, Note_on_c, 0, 61, 95
2, 287520, Note_on_c, 0, 56, 95
2, 287520, Note_on_c, 0, 49, 95
2, 288000, Note_off_c, 0, 68, 95
2, 288000, Note_off_c, 0, 64, 95
2, 288000, Note_off_c, 0, 61, 95
2, 288000, Note_off_c, 0, 56, 95
2, 288000, Note_off_c, 0, 49, 95
2, 288000, Note_on_c, 0, 68, 95
2, 288000, Note_on_c, 0, 64, 95
2, 288000, Note_on_c, 0, 61, 95
2, 288000, Note_on_c, 0, 56, 95
2, 288000, Note_on_c, 0, 49, 95
2, 288480, Note_off_c, 0, 68, 95
2, 288480, Note_off_c, 0, 64, 95
2, 288480, Note_off_c, 0, 61, 95
2, 288480, Note_off_c, 0, 56, 95
2, 288480, Note_off_c, 0, 49, 95
2, 288480, Note_on_c, 0, 68, 95
2, 288480, Note_on_c, 0, 64, 95
2, 288480, Note_on_c, 0, 61, 95
2, 288480, Note_on_c, 0, 56, 95
2, 288480, Note_on_c, 0, 49, 95
2, 288960, Note_off_c, 0, 68, 95
2, 288960, Note_off_c, 0, 64, 95
2, 288960, Note_off_c, 0, 61, 95
2, 288960, Note_off_c, 0, 56, 95
2, 288960, Note_off_c, 0, 49, 95
2, 288960, Note_on_c, 0, 68, 95
2, 288960, Note_on_c, 0, 64, 95
2, 288960, Note_on_c, 0, 61, 95
2, 288960, Note_on_c, 0, 56, 95
2, 288960, Note_on_c, 0, 49, 95
2, 289440, Note_off_c, 0, 68, 95
2, 289440, Note_off_c, 0, 64, 95
2, 289440, Note_off_c, 0, 61, 95
2, 289440, Note_off_c, 0, 56, 95
2, 289440, Note_off_c, 0, 49, 95
2, 289440, Note_on_c, 0, 68, 95
2, 289440, Note_on_c, 0, 64, 95
2, 289440, Note_on_c, 0, 61, 95
2, 289440, Note_on_c, 0, 56, 95
2, 289440, Note_on_c, 0, 49, 95
2, 289920, Note_off_c, 0, 68, 95
2, 289920, Note_off_c, 0, 64, 95
2, 289920, Note_off_c, 0, 61, 95
2, 289920, Note_off_c, 0, 56, 95
2, 289920, Note_off_c, 0, 49, 95
2, 289920, Note_on_c, 0, 68, 95
2, 289920, Note_on_c, 0, 64, 95
2, 289920, Note_on_c, 0, 61, 95
2, 289920, Note_on_c, 0, 56, 95
2, 289920, Note_on_c, 0, 49, 95
2, 290400, Note_off_c, 0, 68, 95
2, 290400, Note_off_c, 0, 64, 95
2, 290400, Note_off_c, 0, 61, 95
2, 290400, Note_off_c, 0, 56, 95
2, 290400, Note_off_c, 0, 49, 95
2, 290400, Note_on_c, 0, 68, 95
2, 290400, Note_on_c, 0, 64, 95
2, 290400, Note_on_c, 0, 61, 95
2, 290400, Note_on_c, 0, 56, 95
2, 290400, Note_on_c, 0, 49, 95
2, 290880, Note_off_c, 0, 68, 95
2, 290880, Note_off_c, 0, 64, 95
2, 290880, Note_off_c, 0, 61, 95
2, 290880, Note_off_c, 0, 56, 95
2, 290880, Note_off_c, 0, 49, 95
2, 290880, Note_on_c, 0, 68, 95
2, 290880, Note_on_c, 0, 64, 95
2, 290880, Note_on_c, 0, 61, 95
2, 290880, Note_on_c, 0, 56, 95
2, 290880, Note_on_c, 0, 49, 95
2, 291360, Note_off_c, 0, 68, 95
2, 291360, Note_off_c, 0, 64, 95
2, 291360, Note_off_c, 0, 61, 95
2, 291360, Note_off_c, 0, 56, 95
2, 291360, Note_off_c, 0, 49, 95
2, 291360, Note_on_c, 0, 68, 95
2, 291360, Note_on_c, 0, 64, 95
2, 291360, Note_on_c, 0, 61, 95
2, 291360, Note_on_c, 0, 56, 95
2, 291360, Note_on_c, 0, 49, 95
2, 291840, Note_off_c, 0, 68, 95
2, 291840, Note_off_c, 0, 64, 95
2, 291840, Note_off_c, 0, 61, 95
2, 291840, Note_off_c, 0, 56, 95
2, 291840, Note_off_c, 0, 49, 95
2, 291840, Note_on_c, 0, 66, 95
2, 291840, Note_on_c, 0, 62, 95
2, 291840, Note_on_c, 0, 57, 95
2, 291840, Note_on_c, 0, 54, 95
2, 291840, Note_on_c, 0, 50, 95
2, 292320, Note_off_c, 0, 66, 95
2, 292320, Note_off_c, 0, 62, 95
2, 292320, Note_off_c, 0, 57, 95
2, 292320, Note_off_c, 0, 54, 95
2, 292320, Note_off_c, 0, 50, 95
2, 292320, Note_on_c, 0, 66, 95
2, 292320, Note_on_c, 0, 62, 95
2, 292320, Note_on_c, 0, 57, 95
2, 292320, Note_on_c, 0, 54, 95
2, 292320, Note_on_c, 0, 50, 95
2, 292800, Note_off_c, 0, 66, 95
2, 292800, Note_off_c, 0, 62, 95
2, 292800, Note_off_c, 0, 57, 95
2, 292800, Note_off_c, 0, 54, 95
2, 292800, Note_off_c, 0, 50, 95
2, 292800, Note_on_c, 0, 66, 95
2, 292800, Note_on_c, 0, 62, 95
2, 292800, Note_on_c, 0, 57, 95
2, 292800, Note_on_c, 0, 54, 95
2, 292800, Note_on_c, 0, 50, 95
2, 293280, Note_off_c, 0, 66, 95
2, 293280, Note_off_c, 0, 62, 95
2, 293280, Note_off_c, 0, 57, 95
2, 293280, Note_off_c, 0, 54, 95
2, 293280, Note_off_c, 0, 50, 95
2, 293280, Note_on_c, 0, 66, 95
2, 293280, Note_on_c, 0, 62, 95
2, 293280, Note_on_c, 0, 57, 95
2, 293280, Note_on_c, 0, 54, 95
2, 293280, Note_on_c, 0, 50, 95
2, 293760, Note_off_c, 0, 66, 95
2, 293760, Note_off_c, 0, 62, 95
2, 293760, Note_off_c, 0, 57, 95
2, 293760, Note_off_c, 0, 54, 95
2, 293760, Note_off_c, 0, 50, 95
2, 293760, Note_on_c, 0, 66, 95
2, 293760, Note_on_c, 0, 62, 95
2, 293760, Note_on_c, 0, 57, 95
2, 293760, Note_on_c, 0, 54, 95
2, 293760, Note_on_c, 0, 50, 95
2, 294240, Note_off_c, 0, 66, 95
2, 294240, Note_off_c, 0, 62, 95
2, 294240, Note_off_c, 0, 57, 95
2, 294240, Note_off_c, 0, 54, 95
2, 294240, Note_off_c, 0, 50, 95
2, 294240, Note_on_c, 0, 66, 95
2, 294240, Note_on_c, 0, 62, 95
2, 294240, Note_on_c, 0, 57, 95
2, 294240, Note_on_c, 0, 54, 95
2, 294240, Note_on_c, 0, 50, 95
2, 294720, Note_off_c, 0, 66, 95
2, 294720, Note_off_c, 0, 62, 95
2, 294720, Note_off_c, 0, 57, 95
2, 294720, Note_off_c, 0, 54, 95
2, 294720, Note_off_c, 0, 50, 95
2, 294720, Note_on_c, 0, 66, 95
2, 294720, Note_on_c, 0, 62, 95
2, 294720, Note_on_c, 0, 57, 95
2, 294720, Note_on_c, 0, 54, 95
2, 294720, Note_on_c, 0, 50, 95
2, 295200, Note_off_c, 0, 66, 95
2, 295200, Note_off_c, 0, 62, 95
2, 295200, Note_off_c, 0, 57, 95
2, 295200, Note_off_c, 0, 54, 95
2, 295200, Note_off_c, 0, 50, 95
2, 295200, Note_on_c, 0, 66, 95
2, 295200, Note_on_c, 0, 62, 95
2, 295200, Note_on_c, 0, 57, 95
2, 295200, Note_on_c, 0, 54, 95
2, 295200, Note_on_c, 0, 50, 95
2, 295680, Note_off_c, 0, 66, 95
2, 295680, Note_off_c, 0, 62, 95
2, 295680, Note_off_c, 0, 57, 95
2, 295680, Note_off_c, 0, 54, 95
2, 295680, Note_off_c, 0, 50, 95
2, 295680, Note_on_c, 0, 66, 95
2, 295680, Note_on_c, 0, 62, 95
2, 295680, Note_on_c, 0, 57, 95
2, 295680, Note_on_c, 0, 54, 95
2, 295680, Note_on_c, 0, 50, 95
2, 296160, Note_off_c, 0, 66, 95
2, 296160, Note_off_c, 0, 62, 95
2, 296160, Note_off_c, 0, 57, 95
2, 296160, Note_off_c, 0, 54, 95
2, 296160, Note_off_c, 0, 50, 95
2, 296160, Note_on_c, 0, 66, 95
2, 296160, Note_on_c, 0, 62, 95
2, 296160, Note_on_c, 0, 57, 95
2, 296160, Note_on_c, 0, 54, 95
2, 296160, Note_on_c, 0, 50, 95
2, 296640, Note_off_c, 0, 66, 95
2, 296640, Note_off_c, 0, 62, 95
2, 296640, Note_off_c, 0, 57, 95
2, 296640, Note_off_c, 0, 54, 95
2, 296640, Note_off_c, 0, 50, 95
2, 296640, Note_on_c, 0, 66, 95
2, 296640, Note_on_c, 0, 62, 95
2, 296640, Note_on_c, 0, 57, 95
2, 296640, Note_on_c, 0, 54, 95
2, 296640, Note_on_c, 0, 50, 95
2, 297120, Note_off_c, 0, 66, 95
2, 297120, Note_off_c, 0, 62, 95
2, 297120, Note_off_c, 0, 57, 95
2, 297120, Note_off_c, 0, 54, 95
2, 297120, Note_off_c, 0, 50, 95
2, 297120, Note_on_c, 0, 66, 95
2, 297120, Note_on_c, 0, 62, 95
2, 297120, Note_on_c, 0, 57, 95
2, 297120, Note_on_c, 0, 54, 95
2, 297120, Note_on_c, 0, 50, 95
2, 297600, Note_off_c, 0, 66, 95
2, 297600, Note_off_c, 0, 62, 95
2, 297600, Note_off_c, 0, 57, 95
2, 297600, Note_off_c, 0, 54, 95
2, 297600, Note_off_c, 0, 50, 95
2, 297600, Note_on_c, 0, 66, 95
2, 297600, Note_on_c, 0, 62, 95
2, 297600, Note_on_c, 0, 57, 95
2, 297600, Note_on_c, 0, 54, 95
2, 297600, Note_on_c, 0, 50, 95
2, 298080, Note_off_c, 0, 66, 95
2, 298080, Note_off_c, 0, 62, 95
2, 298080, Note_off_c, 0, 57, 95
2, 298080, Note_off_c, 0, 54, 95
2, 298080, Note_off_c, 0, 50, 95
2, 298080, Note_on_c, 0, 66, 95
2, 298080, Note_on_c, 0, 62, 95
2, 298080, Note_on_c, 0, 57, 95
2, 298080, Note_on_c, 0, 54, 95
2, 298080, Note_on_c, 0, 50, 95
2, 298560, Note_off_c, 0, 66, 95
2, 298560, Note_off_c, 0, 62, 95
2, 298560, Note_off_c, 0, 57, 95
2, 298560, Note_off_c, 0, 54, 95
2, 298560, Note_off_c, 0, 50, 95
2, 298560, Note_on_c, 0, 66, 95
2, 298560, Note_on_c, 0, 62, 95
2, 298560, Note_on_c, 0, 57, 95
2, 298560, Note_on_c, 0, 54, 95
2, 298560, Note_on_c, 0, 50, 95
2, 299040, Note_off_c, 0, 66, 95
2, 299040, Note_off_c, 0, 62, 95
2, 299040, Note_off_c, 0, 57, 95
2, 299040, Note_off_c, 0, 54, 95
2, 299040, Note_off_c, 0, 50, 95
2, 299040, Note_on_c, 0, 66, 95
2, 299040, Note_on_c, 0, 62, 95
2, 299040, Note_on_c, 0, 57, 95
2, 299040, Note_on_c, 0, 54, 95
2, 299040, Note_on_c, 0, 50, 95
2, 299520, Note_off_c, 0, 66, 95
2, 299520, Note_off_c, 0, 62, 95
2, 299520, Note_off_c, 0, 57, 95
2, 299520, Note_off_c, 0, 54, 95
2, 299520, Note_off_c, 0, 50, 95
2, 299520, Note_on_c, 0, 68, 95
2, 299520, Note_on_c, 0, 64, 95
2, 299520, Note_on_c, 0, 59, 95
2, 299520, Note_on_c, 0, 52, 95
2, 300000, Note_off_c, 0, 68, 95
2, 300000, Note_off_c, 0, 64, 95
2, 300000, Note_off_c, 0, 59, 95
2, 300000, Note_off_c, 0, 52, 95
2, 300000, Note_on_c, 0, 68, 95
2, 300000, Note_on_c, 0, 64, 95
2, 300000, Note_on_c, 0, 59, 95
2, 300000, Note_on_c, 0, 52, 95
2, 300480, Note_off_c, 0, 68, 95
2, 300480, Note_off_c, 0, 64, 95
2, 300480, Note_off_c, 0, 59, 95
2, 300480, Note_off_c, 0, 52, 95
2, 300480, Note_on_c, 0, 68, 95
2, 300480, Note_on_c, 0, 64, 95
2, 300480, Note_on_c, 0, 59, 95
2, 300480, Note_on_c, 0, 52, 95
2, 300960, Note_off_c, 0, 68, 95
2, 300960, Note_off_c, 0, 64, 95
2, 300960, Note_off_c, 0, 59, 95
2, 300960, Note_off_c, 0, 52, 95
2, 300960, Note_on_c, 0, 68, 95
2, 300960, Note_on_c, 0, 64, 95
2, 300960, Note_on_c, 0, 59, 95
2, 300960, Note_on_c, 0, 52, 95
2, 301440, Note_off_c, 0, 68, 95
2, 301440, Note_off_c, 0, 64, 95
2, 301440, Note_off_c, 0, 59, 95
2, 301440, Note_off_c, 0, 52, 95
2, 301440, Note_on_c, 0, 68, 95
2, 301440, Note_on_c, 0, 64, 95
2, 301440, Note_on_c, 0, 59, 95
2, 301440, Note_on_c, 0, 52, 95
2, 301920, Note_off_c, 0, 68, 95
2, 301920, Note_off_c, 0, 64, 95
2, 301920, Note_off_c, 0, 59, 95
2, 301920, Note_off_c, 0, 52, 95
2, 301920, Note_on_c, 0, 68, 95
2, 301920, Note_on_c, 0, 64, 95
2, 301920, Note_on_c, 0, 59, 95
2, 301920, Note_on_c, 0, 52, 95
2, 302400, Note_off_c, 0, 68, 95
2, 302400, Note_off_c, 0, 64, 95
2, 302400, Note_off_c, 0, 59, 95
2, 302400, Note_off_c, 0, 52, 95
2, 302400, Note_on_c, 0, 68, 95
2, 302400, Note_on_c, 0, 64, 95
2, 302400, Note_on_c, 0, 59, 95
2, 302400, Note_on_c, 0, 52, 95
2, 302880, Note_off_c, 0, 68, 95
2, 302880, Note_off_c, 0, 64, 95
2, 302880, Note_off_c, 0, 59, 95
2, 302880, Note_off_c, 0, 52, 95
2, 302880, Note_on_c, 0, 68, 95
2, 302880, Note_on_c, 0, 64, 95
2, 302880, Note_on_c, 0, 59, 95
2, 302880, Note_on_c, 0, 52, 95
2, 303360, Note_off_c, 0, 68, 95
2, 303360, Note_off_c, 0, 64, 95
2, 303360, Note_off_c, 0, 59, 95
2, 303360, Note_off_c, 0, 52, 95
2, 303360, Note_on_c, 0, 68, 95
2, 303360, Note_on_c, 0, 64, 95
2, 303360, Note_on_c, 0, 59, 95
2, 303360, Note_on_c, 0, 52, 95
2, 303840, Note_off_c, 0, 68, 95
2, 303840, Note_off_c, 0, 64, 95
2, 303840, Note_off_c, 0, 59, 95
2, 303840, Note_off_c, 0, 52, 95
2, 303840, Note_on_c, 0, 68, 95
2, 303840, Note_on_c, 0, 64, 95
2, 303840, Note_on_c, 0, 59, 95
2, 303840, Note_on_c, 0, 52, 95
2, 304320, Note_off_c, 0, 68, 95
2, 304320, Note_off_c, 0, 64, 95
2, 304320, Note_off_c, 0, 59, 95
2, 304320, Note_off_c, 0, 52, 95
2, 304320, Note_on_c, 0, 68, 95
2, 304320, Note_on_c, 0, 64, 95
2, 304320, Note_on_c, 0, 59, 95
2, 304320, Note_on_c, 0, 52, 95
2, 304800, Note_off_c, 0, 68, 95
2, 304800, Note_off_c, 0, 64, 95
2, 304800, Note_off_c, 0, 59, 95
2, 304800, Note_off_c, 0, 52, 95
2, 304800, Note_on_c, 0, 68, 95
2, 304800, Note_on_c, 0, 64, 95
2, 304800, Note_on_c, 0, 59, 95
2, 304800, Note_on_c, 0, 52, 95
2, 305280, Note_off_c, 0, 68, 95
2, 305280, Note_off_c, 0, 64, 95
2, 305280, Note_off_c, 0, 59, 95
2, 305280, Note_off_c, 0, 52, 95
2, 305280, Note_on_c, 0, 68, 95
2, 305280, Note_on_c, 0, 64, 95
2, 305280, Note_on_c, 0, 59, 95
2, 305280, Note_on_c, 0, 52, 95
2, 305760, Note_off_c, 0, 68, 95
2, 305760, Note_off_c, 0, 64, 95
2, 305760, Note_off_c, 0, 59, 95
2, 305760, Note_off_c, 0, 52, 95
2, 305760, Note_on_c, 0, 68, 95
2, 305760, Note_on_c, 0, 64, 95
2, 305760, Note_on_c, 0, 59, 95
2, 305760, Note_on_c, 0, 52, 95
2, 306240, Note_off_c, 0, 68, 95
2, 306240, Note_off_c, 0, 64, 95
2, 306240, Note_off_c, 0, 59, 95
2, 306240, Note_off_c, 0, 52, 95
2, 306240, Note_on_c, 0, 68, 95
2, 306240, Note_on_c, 0, 64, 95
2, 306240, Note_on_c, 0, 59, 95
2, 306240, Note_on_c, 0, 52, 95
2, 306720, Note_off_c, 0, 68, 95
2, 306720, Note_off_c, 0, 64, 95
2, 306720, Note_off_c, 0, 59, 95
2, 306720, Note_off_c, 0, 52, 95
2, 306720, Note_on_c, 0, 68, 95
2, 306720, Note_on_c, 0, 64, 95
2, 306720, Note_on_c, 0, 59, 95
2, 306720, Note_on_c, 0, 52, 95
2, 307200, Note_off_c, 0, 68, 95
2, 307200, Note_off_c, 0, 64, 95
2, 307200, Note_off_c, 0, 59, 95
2, 307200, Note_off_c, 0, 52, 95
2, 307200, Note_on_c, 0, 52, 95
2, 307200, Note_on_c, 0, 49, 95
2, 307200, Note_on_c, 0, 45, 95
2, 307314, Note_off_c, 0, 52, 95
2, 307314, Note_off_c, 0, 49, 95
2, 307314, Note_off_c, 0, 45, 95
2, 308160, Note_on_c, 0, 61, 95
2, 308160, Note_on_c, 0, 57, 95
2, 308160, Note_on_c, 0, 52, 95
2, 308274, Note_off_c, 0, 61, 95
2, 308274, Note_off_c, 0, 57, 95
2, 308274, Note_off_c, 0, 52, 95
2, 308640, Note_on_c, 0, 52, 95
2, 308640, Note_on_c, 0, 49, 95
2, 308640, Note_on_c, 0, 45, 95
2, 308754, Note_off_c, 0, 52, 95
2, 308754, Note_off_c, 0, 49, 95
2, 308754, Note_off_c, 0, 45, 95
2, 309120, Note_on_c, 0, 57, 95
2, 309120, Note_on_c, 0, 54, 95
2, 309120, Note_on_c, 0, 50, 95
2, 309234, Note_off_c, 0, 57, 95
2, 309234, Note_off_c, 0, 50, 95
2, 310080, Note_off_c, 0, 54, 95
2, 310080, Note_on_c, 0, 66, 95
2, 310080, Note_on_c, 0, 62, 95
2, 310080, Note_on_c, 0, 57, 95
2, 310194, Note_off_c, 0, 66, 95
2, 310194, Note_off_c, 0, 62, 95
2, 310194, Note_off_c, 0, 57, 95
2, 310560, Note_on_c, 0, 57, 95
2, 310560, Note_on_c, 0, 54, 95
2, 310560, Note_on_c, 0, 50, 95
2, 310674, Note_off_c, 0, 57, 95
2, 310674, Note_off_c, 0, 54, 95
2, 310674, Note_off_c, 0, 50, 95
2, 311040, Note_on_c, 0, 52, 95
2, 311040, Note_on_c, 0, 49, 95
2, 311040, Note_on_c, 0, 45, 95
2, 311154, Note_off_c, 0, 52, 95
2, 311154, Note_off_c, 0, 49, 95
2, 311154, Note_off_c, 0, 45, 95
2, 312000, Note_on_c, 0, 61, 95
2, 312000, Note_on_c, 0, 57, 95
2, 312000, Note_on_c, 0, 52, 95
2, 312114, Note_off_c, 0, 61, 95
2, 312114, Note_off_c, 0, 57, 95
2, 312114, Note_off_c, 0, 52, 95
2, 312480, Note_on_c, 0, 52, 95
2, 312480, Note_on_c, 0, 49, 95
2, 312480, Note_on_c, 0, 45, 95
2, 312594, Note_off_c, 0, 52, 95
2, 312594, Note_off_c, 0, 49, 95
2, 312594, Note_off_c, 0, 45, 95
2, 312960, Note_on_c, 0, 57, 95
2, 312960, Note_on_c, 0, 54, 95
2, 312960, Note_on_c, 0, 50, 95
2, 313074, Note_off_c, 0, 57, 95
2, 313074, Note_off_c, 0, 54, 95
2, 313074, Note_off_c, 0, 50, 95
2, 313920, Note_on_c, 0, 66, 95
2, 313920, Note_on_c, 0, 62, 95
2, 313920, Note_on_c, 0, 57, 95
2, 314034, Note_off_c, 0, 66, 95
2, 314034, Note_off_c, 0, 62, 95
2, 314034, Note_off_c, 0, 57, 95
2, 314400, Note_on_c, 0, 57, 95
2, 314400, Note_on_c, 0, 54, 95
2, 314400, Note_on_c, 0, 50, 95
2, 314514, Note_off_c, 0, 57, 95
2, 314514, Note_off_c, 0, 54, 95
2, 314880, Note_off_c, 0, 50, 95
2, 314880, Note_on_c, 0, 52, 95
2, 314880, Note_on_c, 0, 49, 95
2, 314880, Note_on_c, 0, 45, 95
2, 314994, Note_off_c, 0, 52, 95
2, 314994, Note_off_c, 0, 49, 95
2, 314994, Note_off_c, 0, 45, 95
2, 315840, Note_on_c, 0, 61, 95
2, 315840, Note_on_c, 0, 57, 95
2, 315840, Note_on_c, 0, 52, 95
2, 315954, Note_off_c, 0, 61, 95
2, 315954, Note_off_c, 0, 57, 95
2, 315954, Note_off_c, 0, 52, 95
2, 316320, Note_on_c, 0, 52, 95
2, 316320, Note_on_c, 0, 49, 95
2, 316320, Note_on_c, 0, 45, 95
2, 316434, Note_off_c, 0, 52, 95
2, 316434, Note_off_c, 0, 49, 95
2, 316434, Note_off_c, 0, 45, 95
2, 316800, Note_on_c, 0, 57, 95
2, 316800, Note_on_c, 0, 54, 95
2, 316800, Note_on_c, 0, 50, 95
2, 316914, Note_off_c, 0, 57, 95
2, 316914, Note_off_c, 0, 50, 95
2, 317760, Note_off_c, 0, 54, 95
2, 317760, Note_on_c, 0, 66, 95
2, 317760, Note_on_c, 0, 62, 95
2, 317760, Note_on_c, 0, 57, 95
2, 317874, Note_off_c, 0, 66, 95
2, 317874, Note_off_c, 0, 62, 95
2, 317874, Note_off_c, 0, 57, 95
2, 318240, Note_on_c, 0, 57, 95
2, 318240, Note_on_c, 0, 54, 95
2, 318240, Note_on_c, 0, 50, 95
2, 318354, Note_off_c, 0, 57, 95
2, 318354, Note_off_c, 0, 54, 95
2, 318354, Note_off_c, 0, 50, 95
2, 318720, Note_on_c, 0, 52, 95
2, 318720, Note_on_c, 0, 49, 95
2, 318720, Note_on_c, 0, 45, 95
2, 318834, Note_off_c, 0, 52, 95
2, 318834, Note_off_c, 0, 49, 95
2, 318834, Note_off_c, 0, 45, 95
2, 319680, Note_on_c, 0, 61, 95
2, 319680, Note_on_c, 0, 57, 95
2, 319680, Note_on_c, 0, 52, 95
2, 319794, Note_off_c, 0, 61, 95
2, 319794, Note_off_c, 0, 57, 95
2, 319794, Note_off_c, 0, 52, 95
2, 320160, Note_on_c, 0, 52, 95
2, 320160, Note_on_c, 0, 49, 95
2, 320160, Note_on_c, 0, 45, 95
2, 320274, Note_off_c, 0, 52, 95
2, 320274, Note_off_c, 0, 49, 95
2, 320274, Note_off_c, 0, 45, 95
2, 320640, Note_on_c, 0, 57, 95
2, 320640, Note_on_c, 0, 54, 95
2, 320640, Note_on_c, 0, 50, 95
2, 320754, Note_off_c, 0, 57, 95
2, 320754, Note_off_c, 0, 54, 95
2, 320754, Note_off_c, 0, 50, 95
2, 321600, Note_on_c, 0, 66, 95
2, 321600, Note_on_c, 0, 62, 95
2, 321600, Note_on_c, 0, 57, 95
2, 321714, Note_off_c, 0, 66, 95
2, 321714, Note_off_c, 0, 62, 95
2, 321714, Note_off_c, 0, 57, 95
2, 322080, Note_on_c, 0, 57, 95
2, 322080, Note_on_c, 0, 54, 95
2, 322080, Note_on_c, 0, 50, 95
2, 322194, Note_off_c, 0, 57, 95
2, 322194, Note_off_c, 0, 54, 95
2, 322560, Note_off_c, 0, 50, 95
2, 322560, Note_on_c, 0, 66, 95
2, 322560, Note_on_c, 0, 62, 95
2, 322560, Note_on_c, 0, 57, 95
2, 322560, Note_on_c, 0, 54, 95
2, 322560, Note_on_c, 0, 50, 95
2, 323520, Note_off_c, 0, 66, 95
2, 323520, Note_off_c, 0, 62, 95
2, 323520, Note_off_c, 0, 57, 95
2, 323520, Note_off_c, 0, 54, 95
2, 323520, Note_off_c, 0, 50, 95
2, 323520, Note_on_c, 0, 66, 95
2, 323520, Note_on_c, 0, 62, 95
2, 323520, Note_on_c, 0, 57, 95
2, 323520, Note_on_c, 0, 54, 95
2, 323520, Note_on_c, 0, 50, 95
2, 324000, Note_off_c, 0, 66, 95
2, 324000, Note_off_c, 0, 62, 95
2, 324000, Note_off_c, 0, 57, 95
2, 324000, Note_off_c, 0, 54, 95
2, 324000, Note_off_c, 0, 50, 95
2, 324000, Note_on_c, 0, 66, 95
2, 324000, Note_on_c, 0, 62, 95
2, 324000, Note_on_c, 0, 57, 95
2, 324000, Note_on_c, 0, 54, 95
2, 324000, Note_on_c, 0, 50, 95
2, 324480, Note_off_c, 0, 66, 95
2, 324480, Note_off_c, 0, 62, 95
2, 324480, Note_off_c, 0, 57, 95
2, 324480, Note_off_c, 0, 54, 95
2, 324480, Note_off_c, 0, 50, 95
2, 324480, Note_on_c, 0, 67, 95
2, 324480, Note_on_c, 0, 62, 95
2, 324480, Note_on_c, 0, 59, 95
2, 324480, Note_on_c, 0, 55, 95
2, 324480, Note_on_c, 0, 50, 95
2, 324480, Note_on_c, 0, 43, 95
2, 324960, Note_off_c, 0, 67, 95
2, 324960, Note_off_c, 0, 62, 95
2, 324960, Note_off_c, 0, 59, 95
2, 324960, Note_off_c, 0, 55, 95
2, 324960, Note_off_c, 0, 50, 95
2, 324960, Note_off_c, 0, 43, 95
2, 324960, Note_on_c, 0, 67, 95
2, 324960, Note_on_c, 0, 62, 95
2, 324960, Note_on_c, 0, 59, 95
2, 324960, Note_on_c, 0, 55, 95
2, 324960, Note_on_c, 0, 50, 95
2, 324960, Note_on_c, 0, 43, 95
2, 325440, Note_off_c, 0, 67, 95
2, 325440, Note_off_c, 0, 62, 95
2, 325440, Note_off_c, 0, 59, 95
2, 325440, Note_off_c, 0, 55, 95
2, 325440, Note_off_c, 0, 50, 95
2, 325440, Note_off_c, 0, 43, 95
2, 325440, Note_on_c, 0, 67, 95
2, 325440, Note_on_c, 0, 62, 95
2, 325440, Note_on_c, 0, 59, 95
2, 325440, Note_on_c, 0, 55, 95
2, 325440, Note_on_c, 0, 50, 95
2, 325440, Note_on_c, 0, 43, 95
2, 325920, Note_off_c, 0, 67, 95
2, 325920, Note_off_c, 0, 62, 95
2, 325920, Note_off_c, 0, 59, 95
2, 325920, Note_off_c, 0, 55, 95
2, 325920, Note_off_c, 0, 50, 95
2, 325920, Note_off_c, 0, 43, 95
2, 325920, Note_on_c, 0, 67, 95
2, 325920, Note_on_c, 0, 62, 95
2, 325920, Note_on_c, 0, 59, 95
2, 325920, Note_on_c, 0, 55, 95
2, 325920, Note_on_c, 0, 50, 95
2, 325920, Note_on_c, 0, 43, 95
2, 325977, Note_off_c, 0, 67, 95
2, 325977, Note_off_c, 0, 62, 95
2, 325977, Note_off_c, 0, 59, 95
2, 325977, Note_off_c, 0, 55, 95
2, 325977, Note_off_c, 0, 50, 95
2, 325977, Note_off_c, 0, 43, 95
2, 326400, Note_on_c, 0, 66, 95
2, 326400, Note_on_c, 0, 62, 95
2, 326400, Note_on_c, 0, 57, 95
2, 326400, Note_on_c, 0, 54, 95
2, 326400, Note_on_c, 0, 50, 95
2, 327360, Note_off_c, 0, 66, 95
2, 327360, Note_off_c, 0, 62, 95
2, 327360, Note_off_c, 0, 57, 95
2, 327360, Note_off_c, 0, 54, 95
2, 327360, Note_off_c, 0, 50, 95
2, 327360, Note_on_c, 0, 66, 95
2, 327360, Note_on_c, 0, 62, 95
2, 327360, Note_on_c, 0, 57, 95
2, 327360, Note_on_c, 0, 54, 95
2, 327360, Note_on_c, 0, 50, 95
2, 327840, Note_off_c, 0, 66, 95
2, 327840, Note_off_c, 0, 62, 95
2, 327840, Note_off_c, 0, 57, 95
2, 327840, Note_off_c, 0, 54, 95
2, 327840, Note_off_c, 0, 50, 95
2, 327840, Note_on_c, 0, 66, 95
2, 327840, Note_on_c, 0, 62, 95
2, 327840, Note_on_c, 0, 57, 95
2, 327840, Note_on_c, 0, 54, 95
2, 327840, Note_on_c, 0, 50, 95
2, 328320, Note_off_c, 0, 66, 95
2, 328320, Note_off_c, 0, 62, 95
2, 328320, Note_off_c, 0, 57, 95
2, 328320, Note_off_c, 0, 54, 95
2, 328320, Note_off_c, 0, 50, 95
2, 328320, Note_on_c, 0, 67, 95
2, 328320, Note_on_c, 0, 62, 95
2, 328320, Note_on_c, 0, 59, 95
2, 328320, Note_on_c, 0, 55, 95
2, 328320, Note_on_c, 0, 50, 95
2, 328320, Note_on_c, 0, 43, 95
2, 328800, Note_off_c, 0, 67, 95
2, 328800, Note_off_c, 0, 62, 95
2, 328800, Note_off_c, 0, 59, 95
2, 328800, Note_off_c, 0, 55, 95
2, 328800, Note_off_c, 0, 50, 95
2, 328800, Note_off_c, 0, 43, 95
2, 328800, Note_on_c, 0, 67, 95
2, 328800, Note_on_c, 0, 62, 95
2, 328800, Note_on_c, 0, 59, 95
2, 328800, Note_on_c, 0, 55, 95
2, 328800, Note_on_c, 0, 50, 95
2, 328800, Note_on_c, 0, 43, 95
2, 329280, Note_off_c, 0, 67, 95
2, 329280, Note_off_c, 0, 62, 95
2, 329280, Note_off_c, 0, 59, 95
2, 329280, Note_off_c, 0, 55, 95
2, 329280, Note_off_c, 0, 50, 95
2, 329280, Note_off_c, 0, 43, 95
2, 329280, Note_on_c, 0, 67, 95
2, 329280, Note_on_c, 0, 62, 95
2, 329280, Note_on_c, 0, 59, 95
2, 329280, Note_on_c, 0, 55, 95
2, 329280, Note_on_c, 0, 50, 95
2, 329280, Note_on_c, 0, 43, 95
2, 329760, Note_off_c, 0, 67, 95
2, 329760, Note_off_c, 0, 62, 95
2, 329760, Note_off_c, 0, 59, 95
2, 329760, Note_off_c, 0, 55, 95
2, 329760, Note_off_c, 0, 50, 95
2, 329760, Note_off_c, 0, 43, 95
2, 329760, Note_on_c, 0, 67, 95
2, 329760, Note_on_c, 0, 62, 95
2, 329760, Note_on_c, 0, 59, 95
2, 329760, Note_on_c, 0, 55, 95
2, 329760, Note_on_c, 0, 50, 95
2, 329760, Note_on_c, 0, 43, 95
2, 329817, Note_off_c, 0, 67, 95
2, 329817, Note_off_c, 0, 62, 95
2, 329817, Note_off_c, 0, 59, 95
2, 329817, Note_off_c, 0, 55, 95
2, 329817, Note_off_c, 0, 50, 95
2, 329817, Note_off_c, 0, 43, 95
2, 330240, Note_on_c, 0, 69, 95
2, 330240, Note_on_c, 0, 64, 95
2, 330240, Note_on_c, 0, 57, 95
2, 330240, Note_on_c, 0, 52, 95
2, 330240, Note_on_c, 0, 49, 95
2, 330240, Note_on_c, 0, 45, 95
2, 331200, Note_off_c, 0, 69, 95
2, 331200, Note_off_c, 0, 64, 95
2, 331200, Note_off_c, 0, 57, 95
2, 331200, Note_off_c, 0, 52, 95
2, 331200, Note_off_c, 0, 49, 95
2, 331200, Note_off_c, 0, 45, 95
2, 331200, Note_on_c, 0, 69, 95
2, 331200, Note_on_c, 0, 64, 95
2, 331200, Note_on_c, 0, 57, 95
2, 331200, Note_on_c, 0, 52, 95
2, 331200, Note_on_c, 0, 49, 95
2, 331200, Note_on_c, 0, 45, 95
2, 331680, Note_off_c, 0, 69, 95
2, 331680, Note_off_c, 0, 64, 95
2, 331680, Note_off_c, 0, 57, 95
2, 331680, Note_off_c, 0, 52, 95
2, 331680, Note_off_c, 0, 49, 95
2, 331680, Note_off_c, 0, 45, 95
2, 331680, Note_on_c, 0, 69, 95
2, 331680, Note_on_c, 0, 64, 95
2, 331680, Note_on_c, 0, 57, 95
2, 331680, Note_on_c, 0, 52, 95
2, 331680, Note_on_c, 0, 49, 95
2, 331680, Note_on_c, 0, 45, 95
2, 332160, Note_off_c, 0, 69, 95
2, 332160, Note_off_c, 0, 64, 95
2, 332160, Note_off_c, 0, 57, 95
2, 332160, Note_off_c, 0, 52, 95
2, 332160, Note_off_c, 0, 49, 95
2, 332160, Note_off_c, 0, 45, 95
2, 332160, Note_on_c, 0, 66, 95
2, 332160, Note_on_c, 0, 62, 95
2, 332160, Note_on_c, 0, 57, 95
2, 332160, Note_on_c, 0, 54, 95
2, 332160, Note_on_c, 0, 50, 95
2, 332640, Note_off_c, 0, 66, 95
2, 332640, Note_off_c, 0, 62, 95
2, 332640, Note_off_c, 0, 57, 95
2, 332640, Note_off_c, 0, 54, 95
2, 332640, Note_off_c, 0, 50, 95
2, 332640, Note_on_c, 0, 66, 95
2, 332640, Note_on_c, 0, 62, 95
2, 332640, Note_on_c, 0, 57, 95
2, 332640, Note_on_c, 0, 54, 95
2, 332640, Note_on_c, 0, 50, 95
2, 333120, Note_off_c, 0, 66, 95
2, 333120, Note_off_c, 0, 62, 95
2, 333120, Note_off_c, 0, 57, 95
2, 333120, Note_off_c, 0, 54, 95
2, 333120, Note_off_c, 0, 50, 95
2, 333120, Note_on_c, 0, 66, 95
2, 333120, Note_on_c, 0, 62, 95
2, 333120, Note_on_c, 0, 57, 95
2, 333120, Note_on_c, 0, 54, 95
2, 333120, Note_on_c, 0, 50, 95
2, 333600, Note_off_c, 0, 66, 95
2, 333600, Note_off_c, 0, 62, 95
2, 333600, Note_off_c, 0, 57, 95
2, 333600, Note_off_c, 0, 54, 95
2, 333600, Note_off_c, 0, 50, 95
2, 333600, Note_on_c, 0, 66, 95
2, 333600, Note_on_c, 0, 62, 95
2, 333600, Note_on_c, 0, 57, 95
2, 333600, Note_on_c, 0, 54, 95
2, 333600, Note_on_c, 0, 50, 95
2, 334080, Note_off_c, 0, 66, 95
2, 334080, Note_off_c, 0, 62, 95
2, 334080, Note_off_c, 0, 57, 95
2, 334080, Note_off_c, 0, 54, 95
2, 334080, Note_off_c, 0, 50, 95
2, 334080, Note_on_c, 0, 69, 95
2, 334080, Note_on_c, 0, 64, 95
2, 334080, Note_on_c, 0, 57, 95
2, 334080, Note_on_c, 0, 52, 95
2, 334080, Note_on_c, 0, 49, 95
2, 334080, Note_on_c, 0, 45, 95
2, 335040, Note_off_c, 0, 69, 95
2, 335040, Note_off_c, 0, 64, 95
2, 335040, Note_off_c, 0, 57, 95
2, 335040, Note_off_c, 0, 52, 95
2, 335040, Note_off_c, 0, 49, 95
2, 335040, Note_off_c, 0, 45, 95
2, 335040, Note_on_c, 0, 69, 95
2, 335040, Note_on_c, 0, 64, 95
2, 335040, Note_on_c, 0, 57, 95
2, 335040, Note_on_c, 0, 52, 95
2, 335040, Note_on_c, 0, 49, 95
2, 335040, Note_on_c, 0, 45, 95
2, 335520, Note_off_c, 0, 69, 95
2, 335520, Note_off_c, 0, 64, 95
2, 335520, Note_off_c, 0, 57, 95
2, 335520, Note_off_c, 0, 52, 95
2, 335520, Note_off_c, 0, 49, 95
2, 335520, Note_off_c, 0, 45, 95
2, 335520, Note_on_c, 0, 69, 95
2, 335520, Note_on_c, 0, 64, 95
2, 335520, Note_on_c, 0, 57, 95
2, 335520, Note_on_c, 0, 52, 95
2, 335520, Note_on_c, 0, 49, 95
2, 335520, Note_on_c, 0, 45, 95
2, 336000, Note_off_c, 0, 69, 95
2, 336000, Note_off_c, 0, 64, 95
2, 336000, Note_off_c, 0, 57, 95
2, 336000, Note_off_c, 0, 52, 95
2, 336000, Note_off_c, 0, 49, 95
2, 336000, Note_off_c, 0, 45, 95
2, 336000, Note_on_c, 0, 66, 95
2, 336000, Note_on_c, 0, 62, 95
2, 336000, Note_on_c, 0, 57, 95
2, 336000, Note_on_c, 0, 54, 95
2, 336000, Note_on_c, 0, 50, 95
2, 336480, Note_off_c, 0, 66, 95
2, 336480, Note_off_c, 0, 62, 95
2, 336480, Note_off_c, 0, 57, 95
2, 336480, Note_off_c, 0, 54, 95
2, 336480, Note_off_c, 0, 50, 95
2, 336480, Note_on_c, 0, 66, 95
2, 336480, Note_on_c, 0, 62, 95
2, 336480, Note_on_c, 0, 57, 95
2, 336480, Note_on_c, 0, 54, 95
2, 336480, Note_on_c, 0, 50, 95
2, 336960, Note_off_c, 0, 66, 95
2, 336960, Note_off_c, 0, 62, 95
2, 336960, Note_off_c, 0, 57, 95
2, 336960, Note_off_c, 0, 54, 95
2, 336960, Note_off_c, 0, 50, 95
2, 336960, Note_on_c, 0, 66, 95
2, 336960, Note_on_c, 0, 62, 95
2, 336960, Note_on_c, 0, 57, 95
2, 336960, Note_on_c, 0, 54, 95
2, 336960, Note_on_c, 0, 50, 95
2, 337440, Note_off_c, 0, 66, 95
2, 337440, Note_off_c, 0, 62, 95
2, 337440, Note_off_c, 0, 57, 95
2, 337440, Note_off_c, 0, 54, 95
2, 337440, Note_off_c, 0, 50, 95
2, 337440, Note_on_c, 0, 66, 95
2, 337440, Note_on_c, 0, 62, 95
2, 337440, Note_on_c, 0, 57, 95
2, 337440, Note_on_c, 0, 54, 95
2, 337440, Note_on_c, 0, 50, 95
2, 337920, Note_off_c, 0, 66, 95
2, 337920, Note_off_c, 0, 62, 95
2, 337920, Note_off_c, 0, 57, 95
2, 337920, Note_off_c, 0, 54, 95
2, 337920, Note_off_c, 0, 50, 95
2, 338880, Note_on_c, 0, 71, 95
2, 338880, Note_on_c, 0, 68, 95
2, 338880, Note_on_c, 0, 64, 95
2, 339120, Note_off_c, 0, 71, 95
2, 339120, Note_off_c, 0, 68, 95
2, 339120, Note_off_c, 0, 64, 95
2, 339120, Note_on_c, 0, 71, 95
2, 339120, Note_on_c, 0, 68, 95
2, 339120, Note_on_c, 0, 64, 95
2, 339360, Note_off_c, 0, 71, 95
2, 339360, Note_off_c, 0, 68, 95
2, 339360, Note_off_c, 0, 64, 95
2, 339360, Note_on_c, 0, 71, 95
2, 339360, Note_on_c, 0, 68, 95
2, 339360, Note_on_c, 0, 64, 95
2, 339600, Note_off_c, 0, 71, 95
2, 339600, Note_off_c, 0, 68, 95
2, 339600, Note_off_c, 0, 64, 95
2, 339600, Note_on_c, 0, 71, 95
2, 339600, Note_on_c, 0, 68, 95
2, 339600, Note_on_c, 0, 64, 95
2, 339840, Note_off_c, 0, 71, 95
2, 339840, Note_off_c, 0, 68, 95
2, 339840, Note_off_c, 0, 64, 95
2, 339840, Note_on_c, 0, 71, 95
2, 339840, Note_on_c, 0, 68, 95
2, 339840, Note_on_c, 0, 64, 95
2, 340320, Note_off_c, 0, 71, 95
2, 340320, Note_off_c, 0, 68, 95
2, 340320, Note_off_c, 0, 64, 95
2, 340320, Note_on_c, 0, 70, 95
2, 340320, Note_on_c, 0, 67, 95
2, 340320, Note_on_c, 0, 63, 95
2, 340800, Note_off_c, 0, 70, 95
2, 340800, Note_off_c, 0, 67, 95
2, 340800, Note_off_c, 0, 63, 95
2, 341280, Note_on_c, 0, 69, 95
2, 341280, Note_on_c, 0, 66, 95
2, 341280, Note_on_c, 0, 62, 95
2, 342720, Note_off_c, 0, 69, 95
2, 342720, Note_off_c, 0, 66, 95
2, 342720, Note_off_c, 0, 62, 95
2, 343200, Note_on_c, 0, 69, 95
2, 343200, Note_on_c, 0, 66, 95
2, 343200, Note_on_c, 0, 62, 95
2, 343680, Note_off_c, 0, 69, 95
2, 343680, Note_off_c, 0, 66, 95
2, 343680, Note_off_c, 0, 62, 95
2, 343680, Note_on_c, 0, 69, 95
2, 343680, Note_on_c, 0, 66, 95
2, 343680, Note_on_c, 0, 62, 95
2, 344160, Note_off_c, 0, 69, 95
2, 344160, Note_off_c, 0, 66, 95
2, 344160, Note_off_c, 0, 62, 95
2, 344160, Note_on_c, 0, 70, 95
2, 344160, Note_on_c, 0, 67, 95
2, 344160, Note_on_c, 0, 63, 95
2, 344640, Note_off_c, 0, 70, 95
2, 344640, Note_off_c, 0, 67, 95
2, 344640, Note_off_c, 0, 63, 95
2, 345120, Note_on_c, 0, 71, 95
2, 345120, Note_on_c, 0, 68, 95
2, 345120, Note_on_c, 0, 64, 95
2, 346560, Note_off_c, 0, 71, 95
2, 346560, Note_off_c, 0, 68, 95
2, 346560, Note_off_c, 0, 64, 95
2, 346560, Note_on_c, 0, 71, 95
2, 346560, Note_on_c, 0, 68, 95
2, 346560, Note_on_c, 0, 64, 95
2, 346800, Note_off_c, 0, 71, 95
2, 346800, Note_off_c, 0, 68, 95
2, 346800, Note_off_c, 0, 64, 95
2, 346800, Note_on_c, 0, 71, 95
2, 346800, Note_on_c, 0, 68, 95
2, 346800, Note_on_c, 0, 64, 95
2, 347040, Note_off_c, 0, 71, 95
2, 347040, Note_off_c, 0, 68, 95
2, 347040, Note_off_c, 0, 64, 95
2, 347040, Note_on_c, 0, 71, 95
2, 347040, Note_on_c, 0, 68, 95
2, 347040, Note_on_c, 0, 64, 95
2, 347280, Note_off_c, 0, 71, 95
2, 347280, Note_off_c, 0, 68, 95
2, 347280, Note_off_c, 0, 64, 95
2, 347280, Note_on_c, 0, 71, 95
2, 347280, Note_on_c, 0, 68, 95
2, 347280, Note_on_c, 0, 64, 95
2, 347520, Note_off_c, 0, 71, 95
2, 347520, Note_off_c, 0, 68, 95
2, 347520, Note_off_c, 0, 64, 95
2, 347520, Note_on_c, 0, 71, 95
2, 347520, Note_on_c, 0, 68, 95
2, 347520, Note_on_c, 0, 64, 95
2, 348000, Note_off_c, 0, 71, 95
2, 348000, Note_off_c, 0, 68, 95
2, 348000, Note_off_c, 0, 64, 95
2, 348000, Note_on_c, 0, 70, 95
2, 348000, Note_on_c, 0, 67, 95
2, 348000, Note_on_c, 0, 63, 95
2, 348480, Note_off_c, 0, 70, 95
2, 348480, Note_off_c, 0, 67, 95
2, 348480, Note_off_c, 0, 63, 95
2, 348960, Note_on_c, 0, 69, 95
2, 348960, Note_on_c, 0, 66, 95
2, 348960, Note_on_c, 0, 62, 95
2, 349920, Note_off_c, 0, 69, 95
2, 349920, Note_off_c, 0, 66, 95
2, 349920, Note_off_c, 0, 62, 95
2, 349920, Note_on_c, 0, 69, 95
2, 350400, Note_off_c, 0, 69, 95
2, 350400, Note_on_c, 0, 66, 95
2, 350880, Note_off_c, 0, 66, 95
2, 350880, Note_on_c, 0, 69, 95
2, 350880, Note_on_c, 0, 66, 95
2, 350880, Note_on_c, 0, 62, 95
2, 351360, Note_off_c, 0, 69, 95
2, 351360, Note_off_c, 0, 66, 95
2, 351360, Note_off_c, 0, 62, 95
2, 351360, Note_on_c, 0, 69, 95
2, 351360, Note_on_c, 0, 66, 95
2, 351360, Note_on_c, 0, 62, 95
2, 351840, Note_off_c, 0, 69, 95
2, 351840, Note_off_c, 0, 66, 95
2, 351840, Note_off_c, 0, 62, 95
2, 351840, Note_on_c, 0, 70, 95
2, 351840, Note_on_c, 0, 67, 95
2, 351840, Note_on_c, 0, 63, 95
2, 352320, Note_off_c, 0, 70, 95
2, 352320, Note_off_c, 0, 67, 95
2, 352320, Note_off_c, 0, 63, 95
2, 352320, Note_on_c, 0, 71, 95
2, 352320, Note_on_c, 0, 68, 95
2, 352320, Note_on_c, 0, 64, 95
2, 352800, Note_off_c, 0, 71, 95
2, 352800, Note_off_c, 0, 68, 95
2, 352800, Note_off_c, 0, 64, 95
2, 353280, Note_on_c, 0, 69, 95
2, 353280, Note_on_c, 0, 61, 95
2, 353280, Note_on_c, 0, 57, 95
2, 353280, Note_on_c, 0, 52, 95
2, 353280, Note_on_c, 0, 49, 95
2, 353280, Note_on_c, 0, 45, 95
2, 354240, Note_off_c, 0, 69, 95
2, 354240, Note_off_c, 0, 61, 95
2, 354240, Note_off_c, 0, 57, 95
2, 354240, Note_off_c, 0, 52, 95
2, 354240, Note_off_c, 0, 49, 95
2, 354240, Note_off_c, 0, 45, 95
2, 354240, Note_on_c, 0, 69, 95
2, 354240, Note_on_c, 0, 61, 95
2, 354240, Note_on_c, 0, 57, 95
2, 354240, Note_on_c, 0, 52, 95
2, 354240, Note_on_c, 0, 49, 95
2, 354240, Note_on_c, 0, 45, 95
2, 354720, Note_off_c, 0, 69, 95
2, 354720, Note_off_c, 0, 61, 95
2, 354720, Note_off_c, 0, 57, 95
2, 354720, Note_off_c, 0, 52, 95
2, 354720, Note_off_c, 0, 49, 95
2, 354720, Note_off_c, 0, 45, 95
2, 354720, Note_on_c, 0, 69, 95
2, 354720, Note_on_c, 0, 61, 95
2, 354720, Note_on_c, 0, 57, 95
2, 354720, Note_on_c, 0, 52, 95
2, 354720, Note_on_c, 0, 49, 95
2, 354720, Note_on_c, 0, 45, 95
2, 355200, Note_off_c, 0, 69, 95
2, 355200, Note_off_c, 0, 61, 95
2, 355200, Note_off_c, 0, 57, 95
2, 355200, Note_off_c, 0, 52, 95
2, 355200, Note_off_c, 0, 49, 95
2, 355200, Note_off_c, 0, 45, 95
2, 355200, Note_on_c, 0, 66, 95
2, 355200, Note_on_c, 0, 62, 95
2, 355200, Note_on_c, 0, 57, 95
2, 355200, Note_on_c, 0, 54, 95
2, 355200, Note_on_c, 0, 50, 95
2, 356160, Note_off_c, 0, 66, 95
2, 356160, Note_off_c, 0, 62, 95
2, 356160, Note_off_c, 0, 57, 95
2, 356160, Note_off_c, 0, 54, 95
2, 356160, Note_off_c, 0, 50, 95
2, 356160, Note_on_c, 0, 66, 95
2, 356160, Note_on_c, 0, 62, 95
2, 356160, Note_on_c, 0, 57, 95
2, 356160, Note_on_c, 0, 54, 95
2, 356160, Note_on_c, 0, 50, 95
2, 356640, Note_off_c, 0, 66, 95
2, 356640, Note_off_c, 0, 62, 95
2, 356640, Note_off_c, 0, 57, 95
2, 356640, Note_off_c, 0, 54, 95
2, 356640, Note_off_c, 0, 50, 95
2, 356640, Note_on_c, 0, 66, 95
2, 356640, Note_on_c, 0, 61, 95
2, 356640, Note_on_c, 0, 57, 95
2, 356640, Note_on_c, 0, 52, 95
2, 357120, Note_off_c, 0, 66, 95
2, 357120, Note_off_c, 0, 61, 95
2, 357120, Note_off_c, 0, 57, 95
2, 357120, Note_off_c, 0, 52, 95
2, 357120, Note_on_c, 0, 69, 95
2, 357120, Note_on_c, 0, 61, 95
2, 357120, Note_on_c, 0, 57, 95
2, 357120, Note_on_c, 0, 52, 95
2, 357120, Note_on_c, 0, 49, 95
2, 357120, Note_on_c, 0, 45, 95
2, 358080, Note_off_c, 0, 69, 95
2, 358080, Note_off_c, 0, 61, 95
2, 358080, Note_off_c, 0, 57, 95
2, 358080, Note_off_c, 0, 52, 95
2, 358080, Note_off_c, 0, 49, 95
2, 358080, Note_off_c, 0, 45, 95
2, 358080, Note_on_c, 0, 69, 95
2, 358080, Note_on_c, 0, 61, 95
2, 358080, Note_on_c, 0, 57, 95
2, 358080, Note_on_c, 0, 52, 95
2, 358080, Note_on_c, 0, 49, 95
2, 358080, Note_on_c, 0, 45, 95
2, 358560, Note_off_c, 0, 69, 95
2, 358560, Note_off_c, 0, 61, 95
2, 358560, Note_off_c, 0, 57, 95
2, 358560, Note_off_c, 0, 52, 95
2, 358560, Note_off_c, 0, 49, 95
2, 358560, Note_off_c, 0, 45, 95
2, 358560, Note_on_c, 0, 69, 95
2, 358560, Note_on_c, 0, 61, 95
2, 358560, Note_on_c, 0, 57, 95
2, 358560, Note_on_c, 0, 52, 95
2, 358560, Note_on_c, 0, 49, 95
2, 358560, Note_on_c, 0, 45, 95
2, 359040, Note_off_c, 0, 69, 95
2, 359040, Note_off_c, 0, 61, 95
2, 359040, Note_off_c, 0, 57, 95
2, 359040, Note_off_c, 0, 52, 95
2, 359040, Note_off_c, 0, 49, 95
2, 359040, Note_off_c, 0, 45, 95
2, 359040, Note_on_c, 0, 66, 95
2, 359040, Note_on_c, 0, 62, 95
2, 359040, Note_on_c, 0, 57, 95
2, 359040, Note_on_c, 0, 54, 95
2, 359040, Note_on_c, 0, 50, 95
2, 359520, Note_off_c, 0, 66, 95
2, 359520, Note_off_c, 0, 62, 95
2, 359520, Note_off_c, 0, 57, 95
2, 359520, Note_off_c, 0, 54, 95
2, 359520, Note_off_c, 0, 50, 95
2, 359520, Note_on_c, 0, 52, 95
2, 360000, Note_off_c, 0, 52, 95
2, 360000, Note_on_c, 0, 54, 70
2, 360480, Note_off_c, 0, 54, 70
2, 360480, Note_on_c, 0, 57, 95
2, 360960, Note_off_c, 0, 57, 95
2, 360960, Note_on_c, 0, 69, 95
2, 360960, Note_on_c, 0, 61, 95
2, 360960, Note_on_c, 0, 57, 95
2, 360960, Note_on_c, 0, 52, 95
2, 360960, Note_on_c, 0, 49, 95
2, 360960, Note_on_c, 0, 45, 95
2, 361920, Note_off_c, 0, 69, 95
2, 361920, Note_off_c, 0, 61, 95
2, 361920, Note_off_c, 0, 57, 95
2, 361920, Note_off_c, 0, 52, 95
2, 361920, Note_off_c, 0, 49, 95
2, 361920, Note_off_c, 0, 45, 95
2, 361920, Note_on_c, 0, 69, 95
2, 361920, Note_on_c, 0, 61, 95
2, 361920, Note_on_c, 0, 57, 95
2, 361920, Note_on_c, 0, 52, 95
2, 361920, Note_on_c, 0, 49, 95
2, 361920, Note_on_c, 0, 45, 95
2, 362400, Note_off_c, 0, 69, 95
2, 362400, Note_off_c, 0, 61, 95
2, 362400, Note_off_c, 0, 57, 95
2, 362400, Note_off_c, 0, 52, 95
2, 362400, Note_off_c, 0, 49, 95
2, 362400, Note_off_c, 0, 45, 95
2, 362400, Note_on_c, 0, 69, 95
2, 362400, Note_on_c, 0, 61, 95
2, 362400, Note_on_c, 0, 57, 95
2, 362400, Note_on_c, 0, 52, 95
2, 362400, Note_on_c, 0, 49, 95
2, 362400, Note_on_c, 0, 45, 95
2, 362880, Note_off_c, 0, 69, 95
2, 362880, Note_off_c, 0, 61, 95
2, 362880, Note_off_c, 0, 57, 95
2, 362880, Note_off_c, 0, 52, 95
2, 362880, Note_off_c, 0, 49, 95
2, 362880, Note_off_c, 0, 45, 95
2, 362880, Note_on_c, 0, 66, 95
2, 362880, Note_on_c, 0, 62, 95
2, 362880, Note_on_c, 0, 57, 95
2, 362880, Note_on_c, 0, 54, 95
2, 362880, Note_on_c, 0, 50, 95
2, 363840, Note_off_c, 0, 66, 95
2, 363840, Note_off_c, 0, 62, 95
2, 363840, Note_off_c, 0, 57, 95
2, 363840, Note_off_c, 0, 54, 95
2, 363840, Note_off_c, 0, 50, 95
2, 363840, Note_on_c, 0, 66, 95
2, 363840, Note_on_c, 0, 62, 95
2, 363840, Note_on_c, 0, 57, 95
2, 363840, Note_on_c, 0, 54, 95
2, 363840, Note_on_c, 0, 50, 95
2, 364320, Note_off_c, 0, 66, 95
2, 364320, Note_off_c, 0, 62, 95
2, 364320, Note_off_c, 0, 57, 95
2, 364320, Note_off_c, 0, 54, 95
2, 364320, Note_off_c, 0, 50, 95
2, 364320, Note_on_c, 0, 66, 95
2, 364320, Note_on_c, 0, 61, 95
2, 364320, Note_on_c, 0, 57, 95
2, 364320, Note_on_c, 0, 52, 95
2, 364800, Note_off_c, 0, 66, 95
2, 364800, Note_off_c, 0, 61, 95
2, 364800, Note_off_c, 0, 57, 95
2, 364800, Note_off_c, 0, 52, 95
2, 364800, Note_on_c, 0, 69, 95
2, 364800, Note_on_c, 0, 61, 95
2, 364800, Note_on_c, 0, 57, 95
2, 364800, Note_on_c, 0, 52, 95
2, 364800, Note_on_c, 0, 49, 95
2, 364800, Note_on_c, 0, 45, 95
2, 365760, Note_off_c, 0, 69, 95
2, 365760, Note_off_c, 0, 61, 95
2, 365760, Note_off_c, 0, 57, 95
2, 365760, Note_off_c, 0, 52, 95
2, 365760, Note_off_c, 0, 49, 95
2, 365760, Note_off_c, 0, 45, 95
2, 365760, Note_on_c, 0, 69, 95
2, 365760, Note_on_c, 0, 61, 95
2, 365760, Note_on_c, 0, 57, 95
2, 365760, Note_on_c, 0, 52, 95
2, 365760, Note_on_c, 0, 49, 95
2, 365760, Note_on_c, 0, 45, 95
2, 366240, Note_off_c, 0, 69, 95
2, 366240, Note_off_c, 0, 61, 95
2, 366240, Note_off_c, 0, 57, 95
2, 366240, Note_off_c, 0, 52, 95
2, 366240, Note_off_c, 0, 49, 95
2, 366240, Note_off_c, 0, 45, 95
2, 366240, Note_on_c, 0, 69, 95
2, 366240, Note_on_c, 0, 61, 95
2, 366240, Note_on_c, 0, 57, 95
2, 366240, Note_on_c, 0, 52, 95
2, 366240, Note_on_c, 0, 49, 95
2, 366240, Note_on_c, 0, 45, 95
2, 366720, Note_off_c, 0, 69, 95
2, 366720, Note_off_c, 0, 61, 95
2, 366720, Note_off_c, 0, 57, 95
2, 366720, Note_off_c, 0, 52, 95
2, 366720, Note_off_c, 0, 49, 95
2, 366720, Note_off_c, 0, 45, 95
2, 366720, Note_on_c, 0, 66, 95
2, 366720, Note_on_c, 0, 62, 95
2, 366720, Note_on_c, 0, 57, 95
2, 366720, Note_on_c, 0, 54, 95
2, 366720, Note_on_c, 0, 50, 95
2, 367200, Note_off_c, 0, 66, 95
2, 367200, Note_off_c, 0, 62, 95
2, 367200, Note_off_c, 0, 57, 95
2, 367200, Note_off_c, 0, 54, 95
2, 367200, Note_off_c, 0, 50, 95
2, 367200, Note_on_c, 0, 52, 95
2, 367680, Note_off_c, 0, 52, 95
2, 367680, Note_on_c, 0, 54, 70
2, 368160, Note_off_c, 0, 54, 70
2, 368160, Note_on_c, 0, 57, 95
2, 368640, Note_off_c, 0, 57, 95
2, 368640, Note_on_c, 0, 69, 95
2, 368640, Note_on_c, 0, 61, 95
2, 368640, Note_on_c, 0, 57, 95
2, 368640, Note_on_c, 0, 52, 95
2, 368640, Note_on_c, 0, 49, 95
2, 368640, Note_on_c, 0, 45, 95
2, 369600, Note_off_c, 0, 69, 95
2, 369600, Note_off_c, 0, 61, 95
2, 369600, Note_off_c, 0, 57, 95
2, 369600, Note_off_c, 0, 52, 95
2, 369600, Note_off_c, 0, 49, 95
2, 369600, Note_off_c, 0, 45, 95
2, 369600, Note_on_c, 0, 69, 95
2, 369600, Note_on_c, 0, 61, 95
2, 369600, Note_on_c, 0, 57, 95
2, 369600, Note_on_c, 0, 52, 95
2, 369600, Note_on_c, 0, 49, 95
2, 369600, Note_on_c, 0, 45, 95
2, 370080, Note_off_c, 0, 69, 95
2, 370080, Note_off_c, 0, 61, 95
2, 370080, Note_off_c, 0, 57, 95
2, 370080, Note_off_c, 0, 52, 95
2, 370080, Note_off_c, 0, 49, 95
2, 370080, Note_off_c, 0, 45, 95
2, 370080, Note_on_c, 0, 69, 95
2, 370080, Note_on_c, 0, 61, 95
2, 370080, Note_on_c, 0, 57, 95
2, 370080, Note_on_c, 0, 52, 95
2, 370080, Note_on_c, 0, 49, 95
2, 370080, Note_on_c, 0, 45, 95
2, 370560, Note_off_c, 0, 69, 95
2, 370560, Note_off_c, 0, 61, 95
2, 370560, Note_off_c, 0, 57, 95
2, 370560, Note_off_c, 0, 52, 95
2, 370560, Note_off_c, 0, 49, 95
2, 370560, Note_off_c, 0, 45, 95
2, 370560, Note_on_c, 0, 66, 95
2, 370560, Note_on_c, 0, 62, 95
2, 370560, Note_on_c, 0, 57, 95
2, 370560, Note_on_c, 0, 54, 95
2, 370560, Note_on_c, 0, 50, 95
2, 371520, Note_off_c, 0, 66, 95
2, 371520, Note_off_c, 0, 62, 95
2, 371520, Note_off_c, 0, 57, 95
2, 371520, Note_off_c, 0, 54, 95
2, 371520, Note_off_c, 0, 50, 95
2, 371520, Note_on_c, 0, 66, 95
2, 371520, Note_on_c, 0, 62, 95
2, 371520, Note_on_c, 0, 57, 95
2, 371520, Note_on_c, 0, 54, 95
2, 371520, Note_on_c, 0, 50, 95
2, 372000, Note_off_c, 0, 66, 95
2, 372000, Note_off_c, 0, 62, 95
2, 372000, Note_off_c, 0, 57, 95
2, 372000, Note_off_c, 0, 54, 95
2, 372000, Note_off_c, 0, 50, 95
2, 372000, Note_on_c, 0, 66, 95
2, 372000, Note_on_c, 0, 61, 95
2, 372000, Note_on_c, 0, 57, 95
2, 372000, Note_on_c, 0, 52, 95
2, 372480, Note_off_c, 0, 66, 95
2, 372480, Note_off_c, 0, 61, 95
2, 372480, Note_off_c, 0, 57, 95
2, 372480, Note_off_c, 0, 52, 95
2, 372480, Note_on_c, 0, 69, 95
2, 372480, Note_on_c, 0, 61, 95
2, 372480, Note_on_c, 0, 57, 95
2, 372480, Note_on_c, 0, 52, 95
2, 372480, Note_on_c, 0, 49, 95
2, 372480, Note_on_c, 0, 45, 95
2, 373440, Note_off_c, 0, 69, 95
2, 373440, Note_off_c, 0, 61, 95
2, 373440, Note_off_c, 0, 57, 95
2, 373440, Note_off_c, 0, 52, 95
2, 373440, Note_off_c, 0, 49, 95
2, 373440, Note_off_c, 0, 45, 95
2, 373440, Note_on_c, 0, 69, 95
2, 373440, Note_on_c, 0, 61, 95
2, 373440, Note_on_c, 0, 57, 95
2, 373440, Note_on_c, 0, 52, 95
2, 373440, Note_on_c, 0, 49, 95
2, 373440, Note_on_c, 0, 45, 95
2, 373920, Note_off_c, 0, 69, 95
2, 373920, Note_off_c, 0, 61, 95
2, 373920, Note_off_c, 0, 57, 95
2, 373920, Note_off_c, 0, 52, 95
2, 373920, Note_off_c, 0, 49, 95
2, 373920, Note_off_c, 0, 45, 95
2, 373920, Note_on_c, 0, 69, 95
2, 373920, Note_on_c, 0, 61, 95
2, 373920, Note_on_c, 0, 57, 95
2, 373920, Note_on_c, 0, 52, 95
2, 373920, Note_on_c, 0, 49, 95
2, 373920, Note_on_c, 0, 45, 95
2, 374400, Note_off_c, 0, 69, 95
2, 374400, Note_off_c, 0, 61, 95
2, 374400, Note_off_c, 0, 57, 95
2, 374400, Note_off_c, 0, 52, 95
2, 374400, Note_off_c, 0, 49, 95
2, 374400, Note_off_c, 0, 45, 95
2, 374400, Note_on_c, 0, 66, 95
2, 374400, Note_on_c, 0, 62, 95
2, 374400, Note_on_c, 0, 57, 95
2, 374400, Note_on_c, 0, 54, 95
2, 374400, Note_on_c, 0, 50, 95
2, 374880, Note_off_c, 0, 66, 95
2, 374880, Note_off_c, 0, 62, 95
2, 374880, Note_off_c, 0, 57, 95
2, 374880, Note_off_c, 0, 54, 95
2, 374880, Note_off_c, 0, 50, 95
2, 374880, Note_on_c, 0, 52, 95
2, 375360, Note_off_c, 0, 52, 95
2, 375360, Note_on_c, 0, 54, 70
2, 375840, Note_off_c, 0, 54, 70
2, 375840, Note_on_c, 0, 57, 95
2, 376320, Note_off_c, 0, 57, 95
2, 376320, Note_on_c, 0, 69, 95
2, 376320, Note_on_c, 0, 61, 95
2, 376320, Note_on_c, 0, 57, 95
2, 376320, Note_on_c, 0, 52, 95
2, 376320, Note_on_c, 0, 49, 95
2, 376320, Note_on_c, 0, 45, 95
2, 377280, Note_off_c, 0, 69, 95
2, 377280, Note_off_c, 0, 61, 95
2, 377280, Note_off_c, 0, 57, 95
2, 377280, Note_off_c, 0, 52, 95
2, 377280, Note_off_c, 0, 49, 95
2, 377280, Note_off_c, 0, 45, 95
2, 377280, Note_on_c, 0, 69, 95
2, 377280, Note_on_c, 0, 61, 95
2, 377280, Note_on_c, 0, 57, 95
2, 377280, Note_on_c, 0, 52, 95
2, 377280, Note_on_c, 0, 49, 95
2, 377280, Note_on_c, 0, 45, 95
2, 377760, Note_off_c, 0, 69, 95
2, 377760, Note_off_c, 0, 61, 95
2, 377760, Note_off_c, 0, 57, 95
2, 377760, Note_off_c, 0, 52, 95
2, 377760, Note_off_c, 0, 49, 95
2, 377760, Note_off_c, 0, 45, 95
2, 377760, Note_on_c, 0, 69, 95
2, 377760, Note_on_c, 0, 61, 95
2, 377760, Note_on_c, 0, 57, 95
2, 377760, Note_on_c, 0, 52, 95
2, 377760, Note_on_c, 0, 49, 95
2, 377760, Note_on_c, 0, 45, 95
2, 378240, Note_off_c, 0, 69, 95
2, 378240, Note_off_c, 0, 61, 95
2, 378240, Note_off_c, 0, 57, 95
2, 378240, Note_off_c, 0, 52, 95
2, 378240, Note_off_c, 0, 49, 95
2, 378240, Note_off_c, 0, 45, 95
2, 378240, Note_on_c, 0, 66, 95
2, 378240, Note_on_c, 0, 62, 95
2, 378240, Note_on_c, 0, 57, 95
2, 378240, Note_on_c, 0, 54, 95
2, 378240, Note_on_c, 0, 50, 95
2, 379200, Note_off_c, 0, 66, 95
2, 379200, Note_off_c, 0, 62, 95
2, 379200, Note_off_c, 0, 57, 95
2, 379200, Note_off_c, 0, 54, 95
2, 379200, Note_off_c, 0, 50, 95
2, 379200, Note_on_c, 0, 66, 95
2, 379200, Note_on_c, 0, 62, 95
2, 379200, Note_on_c, 0, 57, 95
2, 379200, Note_on_c, 0, 54, 95
2, 379200, Note_on_c, 0, 50, 95
2, 379680, Note_off_c, 0, 66, 95
2, 379680, Note_off_c, 0, 62, 95
2, 379680, Note_off_c, 0, 57, 95
2, 379680, Note_off_c, 0, 54, 95
2, 379680, Note_off_c, 0, 50, 95
2, 379680, Note_on_c, 0, 66, 95
2, 379680, Note_on_c, 0, 61, 95
2, 379680, Note_on_c, 0, 57, 95
2, 379680, Note_on_c, 0, 52, 95
2, 380160, Note_off_c, 0, 66, 95
2, 380160, Note_off_c, 0, 61, 95
2, 380160, Note_off_c, 0, 57, 95
2, 380160, Note_off_c, 0, 52, 95
2, 380160, Note_on_c, 0, 69, 95
2, 380160, Note_on_c, 0, 61, 95
2, 380160, Note_on_c, 0, 57, 95
2, 380160, Note_on_c, 0, 52, 95
2, 380160, Note_on_c, 0, 49, 95
2, 380160, Note_on_c, 0, 45, 95
2, 381120, Note_off_c, 0, 69, 95
2, 381120, Note_off_c, 0, 61, 95
2, 381120, Note_off_c, 0, 57, 95
2, 381120, Note_off_c, 0, 52, 95
2, 381120, Note_off_c, 0, 49, 95
2, 381120, Note_off_c, 0, 45, 95
2, 381120, Note_on_c, 0, 69, 95
2, 381120, Note_on_c, 0, 61, 95
2, 381120, Note_on_c, 0, 57, 95
2, 381120, Note_on_c, 0, 52, 95
2, 381120, Note_on_c, 0, 49, 95
2, 381120, Note_on_c, 0, 45, 95
2, 381600, Note_off_c, 0, 69, 95
2, 381600, Note_off_c, 0, 61, 95
2, 381600, Note_off_c, 0, 57, 95
2, 381600, Note_off_c, 0, 52, 95
2, 381600, Note_off_c, 0, 49, 95
2, 381600, Note_off_c, 0, 45, 95
2, 381600, Note_on_c, 0, 69, 95
2, 381600, Note_on_c, 0, 61, 95
2, 381600, Note_on_c, 0, 57, 95
2, 381600, Note_on_c, 0, 52, 95
2, 381600, Note_on_c, 0, 49, 95
2, 381600, Note_on_c, 0, 45, 95
2, 382080, Note_off_c, 0, 69, 95
2, 382080, Note_off_c, 0, 61, 95
2, 382080, Note_off_c, 0, 57, 95
2, 382080, Note_off_c, 0, 52, 95
2, 382080, Note_off_c, 0, 49, 95
2, 382080, Note_off_c, 0, 45, 95
2, 382080, Note_on_c, 0, 66, 95
2, 382080, Note_on_c, 0, 62, 95
2, 382080, Note_on_c, 0, 57, 95
2, 382080, Note_on_c, 0, 54, 95
2, 382080, Note_on_c, 0, 50, 95
2, 382560, Note_off_c, 0, 66, 95
2, 382560, Note_off_c, 0, 62, 95
2, 382560, Note_off_c, 0, 57, 95
2, 382560, Note_off_c, 0, 54, 95
2, 382560, Note_off_c, 0, 50, 95
2, 382560, Note_on_c, 0, 52, 95
2, 383040, Note_off_c, 0, 52, 95
2, 383040, Note_on_c, 0, 54, 70
2, 383520, Note_off_c, 0, 54, 70
2, 383520, Note_on_c, 0, 57, 95
2, 384000, Note_off_c, 0, 57, 95
2, 384000, Note_on_c, 0, 69, 95
2, 384000, Note_on_c, 0, 61, 95
2, 384000, Note_on_c, 0, 57, 95
2, 384000, Note_on_c, 0, 52, 95
2, 384000, Note_on_c, 0, 49, 95
2, 384000, Note_on_c, 0, 45, 95
2, 387840, Note_off_c, 0, 69, 95
2, 387840, Note_off_c, 0, 61, 95
2, 387840, Note_off_c, 0, 57, 95
2, 387840, Note_off_c, 0, 52, 95
2, 387840, Note_off_c, 0, 49, 95
2, 387840, Note_off_c, 0, 45, 95
2, 387840, End_track
3, 0, Start_track
3, 0, Pitch_bend_c, 2, 8192
3, 0, Control_c, 2, 7, 79
3, 0, Control_c, 2, 10, 63
3, 0, Control_c, 2, 93, 0
3, 0, Control_c, 2, 91, 0
3, 0, Control_c, 2, 95, 0
3, 0, Control_c, 2, 92, 0
3, 0, Control_c, 2, 11, 127
3, 0, Program_c, 2, 24
3, 0, Control_c, 3, 7, 79
3, 0, Control_c, 3, 10, 63
3, 0, Control_c, 3, 93, 0
3, 0, Control_c, 3, 91, 0
3, 0, Control_c, 3, 95, 0
3, 0, Control_c, 3, 92, 0
3, 0, Control_c, 3, 11, 127
3, 0, Program_c, 3, 24
3, 7680, Note_on_c, 2, 69, 95
3, 7680, Note_on_c, 2, 61, 95
3, 7680, Note_on_c, 2, 57, 95
3, 7680, Note_on_c, 2, 52, 95
3, 7680, Note_on_c, 2, 49, 95
3, 7680, Note_on_c, 2, 45, 95
3, 8640, Note_off_c, 2, 69, 95
3, 8640, Note_off_c, 2, 61, 95
3, 8640, Note_off_c, 2, 57, 95
3, 8640, Note_off_c, 2, 52, 95
3, 8640, Note_off_c, 2, 49, 95
3, 8640, Note_off_c, 2, 45, 95
3, 8640, Note_on_c, 2, 69, 95
3, 8640, Note_on_c, 2, 61, 95
3, 8640, Note_on_c, 2, 57, 95
3, 8640, Note_on_c, 2, 52, 95
3, 8640, Note_on_c, 2, 49, 95
3, 8640, Note_on_c, 2, 45, 95
3, 9120, Note_off_c, 2, 69, 95
3, 9120, Note_off_c, 2, 61, 95
3, 9120, Note_off_c, 2, 57, 95
3, 9120, Note_off_c, 2, 52, 95
3, 9120, Note_off_c, 2, 49, 95
3, 9120, Note_off_c, 2, 45, 95
3, 9120, Note_on_c, 2, 69, 95
3, 9120, Note_on_c, 2, 61, 95
3, 9120, Note_on_c, 2, 57, 95
3, 9120, Note_on_c, 2, 52, 95
3, 9120, Note_on_c, 2, 49, 95
3, 9120, Note_on_c, 2, 45, 95
3, 9600, Note_off_c, 2, 69, 95
3, 9600, Note_off_c, 2, 61, 95
3, 9600, Note_off_c, 2, 57, 95
3, 9600, Note_off_c, 2, 52, 95
3, 9600, Note_off_c, 2, 49, 95
3, 9600, Note_off_c, 2, 45, 95
3, 9600, Note_on_c, 2, 66, 95
3, 9600, Note_on_c, 2, 62, 95
3, 9600, Note_on_c, 2, 57, 95
3, 9600, Note_on_c, 2, 54, 95
3, 9600, Note_on_c, 2, 50, 95
3, 10560, Note_off_c, 2, 66, 95
3, 10560, Note_off_c, 2, 62, 95
3, 10560, Note_off_c, 2, 57, 95
3, 10560, Note_off_c, 2, 54, 95
3, 10560, Note_off_c, 2, 50, 95
3, 10560, Note_on_c, 2, 66, 95
3, 10560, Note_on_c, 2, 62, 95
3, 10560, Note_on_c, 2, 57, 95
3, 10560, Note_on_c, 2, 54, 95
3, 10560, Note_on_c, 2, 50, 95
3, 11040, Note_off_c, 2, 66, 95
3, 11040, Note_off_c, 2, 62, 95
3, 11040, Note_off_c, 2, 57, 95
3, 11040, Note_off_c, 2, 54, 95
3, 11040, Note_off_c, 2, 50, 95
3, 11040, Note_on_c, 2, 66, 95
3, 11040, Note_on_c, 2, 61, 95
3, 11040, Note_on_c, 2, 57, 95
3, 11040, Note_on_c, 2, 52, 95
3, 11520, Note_off_c, 2, 66, 95
3, 11520, Note_off_c, 2, 61, 95
3, 11520, Note_off_c, 2, 57, 95
3, 11520, Note_off_c, 2, 52, 95
3, 11520, Note_on_c, 2, 69, 95
3, 11520, Note_on_c, 2, 61, 95
3, 11520, Note_on_c, 2, 57, 95
3, 11520, Note_on_c, 2, 52, 95
3, 11520, Note_on_c, 2, 49, 95
3, 11520, Note_on_c, 2, 45, 95
3, 12480, Note_off_c, 2, 69, 95
3, 12480, Note_off_c, 2, 61, 95
3, 12480, Note_off_c, 2, 57, 95
3, 12480, Note_off_c, 2, 52, 95
3, 12480, Note_off_c, 2, 49, 95
3, 12480, Note_off_c, 2, 45, 95
3, 12480, Note_on_c, 2, 69, 95
3, 12480, Note_on_c, 2, 61, 95
3, 12480, Note_on_c, 2, 57, 95
3, 12480, Note_on_c, 2, 52, 95
3, 12480, Note_on_c, 2, 49, 95
3, 12480, Note_on_c, 2, 45, 95
3, 12960, Note_off_c, 2, 69, 95
3, 12960, Note_off_c, 2, 61, 95
3, 12960, Note_off_c, 2, 57, 95
3, 12960, Note_off_c, 2, 52, 95
3, 12960, Note_off_c, 2, 49, 95
3, 12960, Note_off_c, 2, 45, 95
3, 12960, Note_on_c, 2, 69, 95
3, 12960, Note_on_c, 2, 61, 95
3, 12960, Note_on_c, 2, 57, 95
3, 12960, Note_on_c, 2, 52, 95
3, 12960, Note_on_c, 2, 49, 95
3, 12960, Note_on_c, 2, 45, 95
3, 13440, Note_off_c, 2, 69, 95
3, 13440, Note_off_c, 2, 61, 95
3, 13440, Note_off_c, 2, 57, 95
3, 13440, Note_off_c, 2, 52, 95
3, 13440, Note_off_c, 2, 49, 95
3, 13440, Note_off_c, 2, 45, 95
3, 13440, Note_on_c, 2, 66, 95
3, 13440, Note_on_c, 2, 62, 95
3, 13440, Note_on_c, 2, 57, 95
3, 13440, Note_on_c, 2, 54, 95
3, 13440, Note_on_c, 2, 50, 95
3, 13920, Note_off_c, 2, 66, 95
3, 13920, Note_off_c, 2, 62, 95
3, 13920, Note_off_c, 2, 57, 95
3, 13920, Note_off_c, 2, 54, 95
3, 13920, Note_off_c, 2, 50, 95
3, 13920, Note_on_c, 2, 52, 95
3, 14400, Note_off_c, 2, 52, 95
3, 14400, Note_on_c, 2, 54, 70
3, 14880, Note_off_c, 2, 54, 70
3, 14880, Note_on_c, 2, 57, 95
3, 15360, Note_off_c, 2, 57, 95
3, 15360, Note_on_c, 2, 69, 95
3, 15360, Note_on_c, 2, 61, 95
3, 15360, Note_on_c, 2, 57, 95
3, 15360, Note_on_c, 2, 52, 95
3, 15360, Note_on_c, 2, 49, 95
3, 15360, Note_on_c, 2, 45, 95
3, 16320, Note_off_c, 2, 69, 95
3, 16320, Note_off_c, 2, 61, 95
3, 16320, Note_off_c, 2, 57, 95
3, 16320, Note_off_c, 2, 52, 95
3, 16320, Note_off_c, 2, 49, 95
3, 16320, Note_off_c, 2, 45, 95
3, 16320, Note_on_c, 2, 69, 95
3, 16320, Note_on_c, 2, 61, 95
3, 16320, Note_on_c, 2, 57, 95
3, 16320, Note_on_c, 2, 52, 95
3, 16320, Note_on_c, 2, 49, 95
3, 16320, Note_on_c, 2, 45, 95
3, 16800, Note_off_c, 2, 69, 95
3, 16800, Note_off_c, 2, 61, 95
3, 16800, Note_off_c, 2, 57, 95
3, 16800, Note_off_c, 2, 52, 95
3, 16800, Note_off_c, 2, 49, 95
3, 16800, Note_off_c, 2, 45, 95
3, 16800, Note_on_c, 2, 69, 95
3, 16800, Note_on_c, 2, 61, 95
3, 16800, Note_on_c, 2, 57, 95
3, 16800, Note_on_c, 2, 52, 95
3, 16800, Note_on_c, 2, 49, 95
3, 16800, Note_on_c, 2, 45, 95
3, 17280, Note_off_c, 2, 69, 95
3, 17280, Note_off_c, 2, 61, 95
3, 17280, Note_off_c, 2, 57, 95
3, 17280, Note_off_c, 2, 52, 95
3, 17280, Note_off_c, 2, 49, 95
3, 17280, Note_off_c, 2, 45, 95
3, 17280, Note_on_c, 2, 66, 95
3, 17280, Note_on_c, 2, 62, 95
3, 17280, Note_on_c, 2, 57, 95
3, 17280, Note_on_c, 2, 54, 95
3, 17280, Note_on_c, 2, 50, 95
3, 18240, Note_off_c, 2, 66, 95
3, 18240, Note_off_c, 2, 62, 95
3, 18240, Note_off_c, 2, 57, 95
3, 18240, Note_off_c, 2, 54, 95
3, 18240, Note_off_c, 2, 50, 95
3, 18240, Note_on_c, 2, 66, 95
3, 18240, Note_on_c, 2, 62, 95
3, 18240, Note_on_c, 2, 57, 95
3, 18240, Note_on_c, 2, 54, 95
3, 18240, Note_on_c, 2, 50, 95
3, 18720, Note_off_c, 2, 66, 95
3, 18720, Note_off_c, 2, 62, 95
3, 18720, Note_off_c, 2, 57, 95
3, 18720, Note_off_c, 2, 54, 95
3, 18720, Note_off_c, 2, 50, 95
3, 18720, Note_on_c, 2, 66, 95
3, 18720, Note_on_c, 2, 61, 95
3, 18720, Note_on_c, 2, 57, 95
3, 18720, Note_on_c, 2, 52, 95
3, 19200, Note_off_c, 2, 66, 95
3, 19200, Note_off_c, 2, 61, 95
3, 19200, Note_off_c, 2, 57, 95
3, 19200, Note_off_c, 2, 52, 95
3, 19200, Note_on_c, 2, 69, 95
3, 19200, Note_on_c, 2, 61, 95
3, 19200, Note_on_c, 2, 57, 95
3, 19200, Note_on_c, 2, 52, 95
3, 19200, Note_on_c, 2, 49, 95
3, 19200, Note_on_c, 2, 45, 95
3, 20160, Note_off_c, 2, 69, 95
3, 20160, Note_off_c, 2, 61, 95
3, 20160, Note_off_c, 2, 57, 95
3, 20160, Note_off_c, 2, 52, 95
3, 20160, Note_off_c, 2, 49, 95
3, 20160, Note_off_c, 2, 45, 95
3, 20160, Note_on_c, 2, 69, 95
3, 20160, Note_on_c, 2, 61, 95
3, 20160, Note_on_c, 2, 57, 95
3, 20160, Note_on_c, 2, 52, 95
3, 20160, Note_on_c, 2, 49, 95
3, 20160, Note_on_c, 2, 45, 95
3, 20640, Note_off_c, 2, 69, 95
3, 20640, Note_off_c, 2, 61, 95
3, 20640, Note_off_c, 2, 57, 95
3, 20640, Note_off_c, 2, 52, 95
3, 20640, Note_off_c, 2, 49, 95
3, 20640, Note_off_c, 2, 45, 95
3, 20640, Note_on_c, 2, 69, 95
3, 20640, Note_on_c, 2, 61, 95
3, 20640, Note_on_c, 2, 57, 95
3, 20640, Note_on_c, 2, 52, 95
3, 20640, Note_on_c, 2, 49, 95
3, 20640, Note_on_c, 2, 45, 95
3, 21120, Note_off_c, 2, 69, 95
3, 21120, Note_off_c, 2, 61, 95
3, 21120, Note_off_c, 2, 57, 95
3, 21120, Note_off_c, 2, 52, 95
3, 21120, Note_off_c, 2, 49, 95
3, 21120, Note_off_c, 2, 45, 95
3, 21120, Note_on_c, 2, 66, 95
3, 21120, Note_on_c, 2, 62, 95
3, 21120, Note_on_c, 2, 57, 95
3, 21120, Note_on_c, 2, 54, 95
3, 21120, Note_on_c, 2, 50, 95
3, 21600, Note_off_c, 2, 66, 95
3, 21600, Note_off_c, 2, 62, 95
3, 21600, Note_off_c, 2, 57, 95
3, 21600, Note_off_c, 2, 54, 95
3, 21600, Note_off_c, 2, 50, 95
3, 21600, Note_on_c, 2, 52, 95
3, 22080, Note_off_c, 2, 52, 95
3, 22080, Note_on_c, 2, 54, 70
3, 22560, Note_off_c, 2, 54, 70
3, 22560, Note_on_c, 2, 57, 95
3, 23040, Note_off_c, 2, 57, 95
3, 23040, Note_on_c, 2, 69, 95
3, 23040, Note_on_c, 2, 61, 95
3, 23040, Note_on_c, 2, 57, 95
3, 23040, Note_on_c, 2, 52, 95
3, 23040, Note_on_c, 2, 49, 95
3, 23040, Note_on_c, 2, 45, 95
3, 24000, Note_off_c, 2, 69, 95
3, 24000, Note_off_c, 2, 61, 95
3, 24000, Note_off_c, 2, 57, 95
3, 24000, Note_off_c, 2, 52, 95
3, 24000, Note_off_c, 2, 49, 95
3, 24000, Note_off_c, 2, 45, 95
3, 24000, Note_on_c, 2, 69, 95
3, 24000, Note_on_c, 2, 61, 95
3, 24000, Note_on_c, 2, 57, 95
3, 24000, Note_on_c, 2, 52, 95
3, 24000, Note_on_c, 2, 49, 95
3, 24000, Note_on_c, 2, 45, 95
3, 24480, Note_off_c, 2, 69, 95
3, 24480, Note_off_c, 2, 61, 95
3, 24480, Note_off_c, 2, 57, 95
3, 24480, Note_off_c, 2, 52, 95
3, 24480, Note_off_c, 2, 49, 95
3, 24480, Note_off_c, 2, 45, 95
3, 24480, Note_on_c, 2, 69, 95
3, 24480, Note_on_c, 2, 61, 95
3, 24480, Note_on_c, 2, 57, 95
3, 24480, Note_on_c, 2, 52, 95
3, 24480, Note_on_c, 2, 49, 95
3, 24480, Note_on_c, 2, 45, 95
3, 24960, Note_off_c, 2, 69, 95
3, 24960, Note_off_c, 2, 61, 95
3, 24960, Note_off_c, 2, 57, 95
3, 24960, Note_off_c, 2, 52, 95
3, 24960, Note_off_c, 2, 49, 95
3, 24960, Note_off_c, 2, 45, 95
3, 24960, Note_on_c, 2, 66, 95
3, 24960, Note_on_c, 2, 62, 95
3, 24960, Note_on_c, 2, 57, 95
3, 24960, Note_on_c, 2, 54, 95
3, 24960, Note_on_c, 2, 50, 95
3, 25920, Note_off_c, 2, 66, 95
3, 25920, Note_off_c, 2, 62, 95
3, 25920, Note_off_c, 2, 57, 95
3, 25920, Note_off_c, 2, 54, 95
3, 25920, Note_off_c, 2, 50, 95
3, 25920, Note_on_c, 2, 66, 95
3, 25920, Note_on_c, 2, 62, 95
3, 25920, Note_on_c, 2, 57, 95
3, 25920, Note_on_c, 2, 54, 95
3, 25920, Note_on_c, 2, 50, 95
3, 26400, Note_off_c, 2, 66, 95
3, 26400, Note_off_c, 2, 62, 95
3, 26400, Note_off_c, 2, 57, 95
3, 26400, Note_off_c, 2, 54, 95
3, 26400, Note_off_c, 2, 50, 95
3, 26400, Note_on_c, 2, 66, 95
3, 26400, Note_on_c, 2, 61, 95
3, 26400, Note_on_c, 2, 57, 95
3, 26400, Note_on_c, 2, 52, 95
3, 26880, Note_off_c, 2, 66, 95
3, 26880, Note_off_c, 2, 61, 95
3, 26880, Note_off_c, 2, 57, 95
3, 26880, Note_off_c, 2, 52, 95
3, 26880, Note_on_c, 2, 69, 95
3, 26880, Note_on_c, 2, 61, 95
3, 26880, Note_on_c, 2, 57, 95
3, 26880, Note_on_c, 2, 52, 95
3, 26880, Note_on_c, 2, 49, 95
3, 26880, Note_on_c, 2, 45, 95
3, 27840, Note_off_c, 2, 69, 95
3, 27840, Note_off_c, 2, 61, 95
3, 27840, Note_off_c, 2, 57, 95
3, 27840, Note_off_c, 2, 52, 95
3, 27840, Note_off_c, 2, 49, 95
3, 27840, Note_off_c, 2, 45, 95
3, 27840, Note_on_c, 2, 69, 95
3, 27840, Note_on_c, 2, 61, 95
3, 27840, Note_on_c, 2, 57, 95
3, 27840, Note_on_c, 2, 52, 95
3, 27840, Note_on_c, 2, 49, 95
3, 27840, Note_on_c, 2, 45, 95
3, 28320, Note_off_c, 2, 69, 95
3, 28320, Note_off_c, 2, 61, 95
3, 28320, Note_off_c, 2, 57, 95
3, 28320, Note_off_c, 2, 52, 95
3, 28320, Note_off_c, 2, 49, 95
3, 28320, Note_off_c, 2, 45, 95
3, 28320, Note_on_c, 2, 69, 95
3, 28320, Note_on_c, 2, 61, 95
3, 28320, Note_on_c, 2, 57, 95
3, 28320, Note_on_c, 2, 52, 95
3, 28320, Note_on_c, 2, 49, 95
3, 28320, Note_on_c, 2, 45, 95
3, 28800, Note_off_c, 2, 69, 95
3, 28800, Note_off_c, 2, 61, 95
3, 28800, Note_off_c, 2, 57, 95
3, 28800, Note_off_c, 2, 52, 95
3, 28800, Note_off_c, 2, 49, 95
3, 28800, Note_off_c, 2, 45, 95
3, 28800, Note_on_c, 2, 66, 95
3, 28800, Note_on_c, 2, 62, 95
3, 28800, Note_on_c, 2, 57, 95
3, 28800, Note_on_c, 2, 54, 95
3, 28800, Note_on_c, 2, 50, 95
3, 29280, Note_off_c, 2, 66, 95
3, 29280, Note_off_c, 2, 62, 95
3, 29280, Note_off_c, 2, 57, 95
3, 29280, Note_off_c, 2, 54, 95
3, 29280, Note_off_c, 2, 50, 95
3, 29280, Note_on_c, 2, 52, 95
3, 29760, Note_off_c, 2, 52, 95
3, 29760, Note_on_c, 2, 54, 70
3, 30240, Note_off_c, 2, 54, 70
3, 30240, Note_on_c, 2, 57, 95
3, 30720, Note_off_c, 2, 57, 95
3, 30720, Note_on_c, 2, 69, 95
3, 30720, Note_on_c, 2, 61, 95
3, 30720, Note_on_c, 2, 57, 95
3, 30720, Note_on_c, 2, 52, 95
3, 30720, Note_on_c, 2, 49, 95
3, 30720, Note_on_c, 2, 45, 95
3, 31680, Note_off_c, 2, 69, 95
3, 31680, Note_off_c, 2, 61, 95
3, 31680, Note_off_c, 2, 57, 95
3, 31680, Note_off_c, 2, 52, 95
3, 31680, Note_off_c, 2, 49, 95
3, 31680, Note_off_c, 2, 45, 95
3, 31680, Note_on_c, 2, 69, 95
3, 31680, Note_on_c, 2, 61, 95
3, 31680, Note_on_c, 2, 57, 95
3, 31680, Note_on_c, 2, 52, 95
3, 31680, Note_on_c, 2, 49, 95
3, 31680, Note_on_c, 2, 45, 95
3, 32160, Note_off_c, 2, 69, 95
3, 32160, Note_off_c, 2, 61, 95
3, 32160, Note_off_c, 2, 57, 95
3, 32160, Note_off_c, 2, 52, 95
3, 32160, Note_off_c, 2, 49, 95
3, 32160, Note_off_c, 2, 45, 95
3, 32160, Note_on_c, 2, 69, 95
3, 32160, Note_on_c, 2, 61, 95
3, 32160, Note_on_c, 2, 57, 95
3, 32160, Note_on_c, 2, 52, 95
3, 32160, Note_on_c, 2, 49, 95
3, 32160, Note_on_c, 2, 45, 95
3, 32640, Note_off_c, 2, 69, 95
3, 32640, Note_off_c, 2, 61, 95
3, 32640, Note_off_c, 2, 57, 95
3, 32640, Note_off_c, 2, 52, 95
3, 32640, Note_off_c, 2, 49, 95
3, 32640, Note_off_c, 2, 45, 95
3, 32640, Note_on_c, 2, 66, 95
3, 32640, Note_on_c, 2, 62, 95
3, 32640, Note_on_c, 2, 57, 95
3, 32640, Note_on_c, 2, 54, 95
3, 32640, Note_on_c, 2, 50, 95
3, 33600, Note_off_c, 2, 66, 95
3, 33600, Note_off_c, 2, 62, 95
3, 33600, Note_off_c, 2, 57, 95
3, 33600, Note_off_c, 2, 54, 95
3, 33600, Note_off_c, 2, 50, 95
3, 33600, Note_on_c, 2, 66, 95
3, 33600, Note_on_c, 2, 62, 95
3, 33600, Note_on_c, 2, 57, 95
3, 33600, Note_on_c, 2, 54, 95
3, 33600, Note_on_c, 2, 50, 95
3, 34080, Note_off_c, 2, 66, 95
3, 34080, Note_off_c, 2, 62, 95
3, 34080, Note_off_c, 2, 57, 95
3, 34080, Note_off_c, 2, 54, 95
3, 34080, Note_off_c, 2, 50, 95
3, 34080, Note_on_c, 2, 66, 95
3, 34080, Note_on_c, 2, 61, 95
3, 34080, Note_on_c, 2, 57, 95
3, 34080, Note_on_c, 2, 52, 95
3, 34560, Note_off_c, 2, 66, 95
3, 34560, Note_off_c, 2, 61, 95
3, 34560, Note_off_c, 2, 57, 95
3, 34560, Note_off_c, 2, 52, 95
3, 34560, Note_on_c, 2, 69, 95
3, 34560, Note_on_c, 2, 61, 95
3, 34560, Note_on_c, 2, 57, 95
3, 34560, Note_on_c, 2, 52, 95
3, 34560, Note_on_c, 2, 49, 95
3, 34560, Note_on_c, 2, 45, 95
3, 35520, Note_off_c, 2, 69, 95
3, 35520, Note_off_c, 2, 61, 95
3, 35520, Note_off_c, 2, 57, 95
3, 35520, Note_off_c, 2, 52, 95
3, 35520, Note_off_c, 2, 49, 95
3, 35520, Note_off_c, 2, 45, 95
3, 35520, Note_on_c, 2, 69, 95
3, 35520, Note_on_c, 2, 61, 95
3, 35520, Note_on_c, 2, 57, 95
3, 35520, Note_on_c, 2, 52, 95
3, 35520, Note_on_c, 2, 49, 95
3, 35520, Note_on_c, 2, 45, 95
3, 36000, Note_off_c, 2, 69, 95
3, 36000, Note_off_c, 2, 61, 95
3, 36000, Note_off_c, 2, 57, 95
3, 36000, Note_off_c, 2, 52, 95
3, 36000, Note_off_c, 2, 49, 95
3, 36000, Note_off_c, 2, 45, 95
3, 36000, Note_on_c, 2, 69, 95
3, 36000, Note_on_c, 2, 61, 95
3, 36000, Note_on_c, 2, 57, 95
3, 36000, Note_on_c, 2, 52, 95
3, 36000, Note_on_c, 2, 49, 95
3, 36000, Note_on_c, 2, 45, 95
3, 36480, Note_off_c, 2, 69, 95
3, 36480, Note_off_c, 2, 61, 95
3, 36480, Note_off_c, 2, 57, 95
3, 36480, Note_off_c, 2, 52, 95
3, 36480, Note_off_c, 2, 49, 95
3, 36480, Note_off_c, 2, 45, 95
3, 36480, Note_on_c, 2, 66, 95
3, 36480, Note_on_c, 2, 62, 95
3, 36480, Note_on_c, 2, 57, 95
3, 36480, Note_on_c, 2, 54, 95
3, 36480, Note_on_c, 2, 50, 95
3, 36960, Note_off_c, 2, 66, 95
3, 36960, Note_off_c, 2, 62, 95
3, 36960, Note_off_c, 2, 57, 95
3, 36960, Note_off_c, 2, 54, 95
3, 36960, Note_off_c, 2, 50, 95
3, 36960, Note_on_c, 2, 52, 95
3, 37440, Note_off_c, 2, 52, 95
3, 37440, Note_on_c, 2, 54, 70
3, 37920, Note_off_c, 2, 54, 70
3, 37920, Note_on_c, 2, 57, 95
3, 38400, Note_off_c, 2, 57, 95
3, 38400, Note_on_c, 2, 69, 95
3, 38400, Note_on_c, 2, 61, 95
3, 38400, Note_on_c, 2, 57, 95
3, 38400, Note_on_c, 2, 52, 95
3, 38400, Note_on_c, 2, 49, 95
3, 38400, Note_on_c, 2, 45, 95
3, 39360, Note_off_c, 2, 69, 95
3, 39360, Note_off_c, 2, 61, 95
3, 39360, Note_off_c, 2, 57, 95
3, 39360, Note_off_c, 2, 52, 95
3, 39360, Note_off_c, 2, 49, 95
3, 39360, Note_off_c, 2, 45, 95
3, 39360, Note_on_c, 2, 69, 95
3, 39360, Note_on_c, 2, 61, 95
3, 39360, Note_on_c, 2, 57, 95
3, 39360, Note_on_c, 2, 52, 95
3, 39360, Note_on_c, 2, 49, 95
3, 39360, Note_on_c, 2, 45, 95
3, 39840, Note_off_c, 2, 69, 95
3, 39840, Note_off_c, 2, 61, 95
3, 39840, Note_off_c, 2, 57, 95
3, 39840, Note_off_c, 2, 52, 95
3, 39840, Note_off_c, 2, 49, 95
3, 39840, Note_off_c, 2, 45, 95
3, 39840, Note_on_c, 2, 69, 95
3, 39840, Note_on_c, 2, 61, 95
3, 39840, Note_on_c, 2, 57, 95
3, 39840, Note_on_c, 2, 52, 95
3, 39840, Note_on_c, 2, 49, 95
3, 39840, Note_on_c, 2, 45, 95
3, 40320, Note_off_c, 2, 69, 95
3, 40320, Note_off_c, 2, 61, 95
3, 40320, Note_off_c, 2, 57, 95
3, 40320, Note_off_c, 2, 52, 95
3, 40320, Note_off_c, 2, 49, 95
3, 40320, Note_off_c, 2, 45, 95
3, 40320, Note_on_c, 2, 66, 95
3, 40320, Note_on_c, 2, 62, 95
3, 40320, Note_on_c, 2, 57, 95
3, 40320, Note_on_c, 2, 54, 95
3, 40320, Note_on_c, 2, 50, 95
3, 41280, Note_off_c, 2, 66, 95
3, 41280, Note_off_c, 2, 62, 95
3, 41280, Note_off_c, 2, 57, 95
3, 41280, Note_off_c, 2, 54, 95
3, 41280, Note_off_c, 2, 50, 95
3, 41280, Note_on_c, 2, 66, 95
3, 41280, Note_on_c, 2, 62, 95
3, 41280, Note_on_c, 2, 57, 95
3, 41280, Note_on_c, 2, 54, 95
3, 41280, Note_on_c, 2, 50, 95
3, 41760, Note_off_c, 2, 66, 95
3, 41760, Note_off_c, 2, 62, 95
3, 41760, Note_off_c, 2, 57, 95
3, 41760, Note_off_c, 2, 54, 95
3, 41760, Note_off_c, 2, 50, 95
3, 41760, Note_on_c, 2, 66, 95
3, 41760, Note_on_c, 2, 61, 95
3, 41760, Note_on_c, 2, 57, 95
3, 41760, Note_on_c, 2, 52, 95
3, 42240, Note_off_c, 2, 66, 95
3, 42240, Note_off_c, 2, 61, 95
3, 42240, Note_off_c, 2, 57, 95
3, 42240, Note_off_c, 2, 52, 95
3, 42240, Note_on_c, 2, 69, 95
3, 42240, Note_on_c, 2, 61, 95
3, 42240, Note_on_c, 2, 57, 95
3, 42240, Note_on_c, 2, 52, 95
3, 42240, Note_on_c, 2, 49, 95
3, 42240, Note_on_c, 2, 45, 95
3, 46080, Note_off_c, 2, 69, 95
3, 46080, Note_off_c, 2, 61, 95
3, 46080, Note_off_c, 2, 57, 95
3, 46080, Note_off_c, 2, 52, 95
3, 46080, Note_off_c, 2, 49, 95
3, 46080, Note_off_c, 2, 45, 95
3, 49920, Note_on_c, 2, 69, 95
3, 49920, Note_on_c, 2, 61, 95
3, 49920, Note_on_c, 2, 57, 95
3, 49920, Note_on_c, 2, 52, 95
3, 49920, Note_on_c, 2, 49, 95
3, 49920, Note_on_c, 2, 45, 95
3, 50880, Note_off_c, 2, 69, 95
3, 50880, Note_off_c, 2, 61, 95
3, 50880, Note_off_c, 2, 57, 95
3, 50880, Note_off_c, 2, 52, 95
3, 50880, Note_off_c, 2, 49, 95
3, 50880, Note_off_c, 2, 45, 95
3, 50880, Note_on_c, 2, 69, 95
3, 50880, Note_on_c, 2, 61, 95
3, 50880, Note_on_c, 2, 57, 95
3, 50880, Note_on_c, 2, 52, 95
3, 50880, Note_on_c, 2, 49, 95
3, 50880, Note_on_c, 2, 45, 95
3, 51360, Note_off_c, 2, 69, 95
3, 51360, Note_off_c, 2, 61, 95
3, 51360, Note_off_c, 2, 57, 95
3, 51360, Note_off_c, 2, 52, 95
3, 51360, Note_off_c, 2, 49, 95
3, 51360, Note_off_c, 2, 45, 95
3, 51360, Note_on_c, 2, 69, 95
3, 51360, Note_on_c, 2, 61, 95
3, 51360, Note_on_c, 2, 57, 95
3, 51360, Note_on_c, 2, 52, 95
3, 51360, Note_on_c, 2, 49, 95
3, 51360, Note_on_c, 2, 45, 95
3, 51840, Note_off_c, 2, 69, 95
3, 51840, Note_off_c, 2, 61, 95
3, 51840, Note_off_c, 2, 57, 95
3, 51840, Note_off_c, 2, 52, 95
3, 51840, Note_off_c, 2, 49, 95
3, 51840, Note_off_c, 2, 45, 95
3, 51840, Note_on_c, 2, 66, 95
3, 51840, Note_on_c, 2, 62, 95
3, 51840, Note_on_c, 2, 57, 95
3, 51840, Note_on_c, 2, 54, 95
3, 51840, Note_on_c, 2, 50, 95
3, 52800, Note_off_c, 2, 66, 95
3, 52800, Note_off_c, 2, 62, 95
3, 52800, Note_off_c, 2, 57, 95
3, 52800, Note_off_c, 2, 54, 95
3, 52800, Note_off_c, 2, 50, 95
3, 52800, Note_on_c, 2, 66, 95
3, 52800, Note_on_c, 2, 62, 95
3, 52800, Note_on_c, 2, 57, 95
3, 52800, Note_on_c, 2, 54, 95
3, 52800, Note_on_c, 2, 50, 95
3, 53280, Note_off_c, 2, 66, 95
3, 53280, Note_off_c, 2, 62, 95
3, 53280, Note_off_c, 2, 57, 95
3, 53280, Note_off_c, 2, 54, 95
3, 53280, Note_off_c, 2, 50, 95
3, 53280, Note_on_c, 2, 66, 95
3, 53280, Note_on_c, 2, 61, 95
3, 53280, Note_on_c, 2, 57, 95
3, 53280, Note_on_c, 2, 52, 95
3, 53760, Note_off_c, 2, 66, 95
3, 53760, Note_off_c, 2, 61, 95
3, 53760, Note_off_c, 2, 57, 95
3, 53760, Note_off_c, 2, 52, 95
3, 53760, Note_on_c, 2, 69, 95
3, 53760, Note_on_c, 2, 61, 95
3, 53760, Note_on_c, 2, 57, 95
3, 53760, Note_on_c, 2, 52, 95
3, 53760, Note_on_c, 2, 49, 95
3, 53760, Note_on_c, 2, 45, 95
3, 54720, Note_off_c, 2, 69, 95
3, 54720, Note_off_c, 2, 61, 95
3, 54720, Note_off_c, 2, 57, 95
3, 54720, Note_off_c, 2, 52, 95
3, 54720, Note_off_c, 2, 49, 95
3, 54720, Note_off_c, 2, 45, 95
3, 54720, Note_on_c, 2, 69, 95
3, 54720, Note_on_c, 2, 61, 95
3, 54720, Note_on_c, 2, 57, 95
3, 54720, Note_on_c, 2, 52, 95
3, 54720, Note_on_c, 2, 49, 95
3, 54720, Note_on_c, 2, 45, 95
3, 55200, Note_off_c, 2, 69, 95
3, 55200, Note_off_c, 2, 61, 95
3, 55200, Note_off_c, 2, 57, 95
3, 55200, Note_off_c, 2, 52, 95
3, 55200, Note_off_c, 2, 49, 95
3, 55200, Note_off_c, 2, 45, 95
3, 55200, Note_on_c, 2, 69, 95
3, 55200, Note_on_c, 2, 61, 95
3, 55200, Note_on_c, 2, 57, 95
3, 55200, Note_on_c, 2, 52, 95
3, 55200, Note_on_c, 2, 49, 95
3, 55200, Note_on_c, 2, 45, 95
3, 55680, Note_off_c, 2, 69, 95
3, 55680, Note_off_c, 2, 61, 95
3, 55680, Note_off_c, 2, 57, 95
3, 55680, Note_off_c, 2, 52, 95
3, 55680, Note_off_c, 2, 49, 95
3, 55680, Note_off_c, 2, 45, 95
3, 55680, Note_on_c, 2, 66, 95
3, 55680, Note_on_c, 2, 62, 95
3, 55680, Note_on_c, 2, 57, 95
3, 55680, Note_on_c, 2, 54, 95
3, 55680, Note_on_c, 2, 50, 95
3, 56160, Note_off_c, 2, 66, 95
3, 56160, Note_off_c, 2, 62, 95
3, 56160, Note_off_c, 2, 57, 95
3, 56160, Note_off_c, 2, 54, 95
3, 56160, Note_off_c, 2, 50, 95
3, 56160, Note_on_c, 2, 52, 95
3, 56640, Note_off_c, 2, 52, 95
3, 56640, Note_on_c, 2, 54, 70
3, 57120, Note_off_c, 2, 54, 70
3, 57120, Note_on_c, 2, 57, 95
3, 57600, Note_off_c, 2, 57, 95
3, 57600, Note_on_c, 2, 69, 95
3, 57600, Note_on_c, 2, 61, 95
3, 57600, Note_on_c, 2, 57, 95
3, 57600, Note_on_c, 2, 52, 95
3, 57600, Note_on_c, 2, 49, 95
3, 57600, Note_on_c, 2, 45, 95
3, 58560, Note_off_c, 2, 69, 95
3, 58560, Note_off_c, 2, 61, 95
3, 58560, Note_off_c, 2, 57, 95
3, 58560, Note_off_c, 2, 52, 95
3, 58560, Note_off_c, 2, 49, 95
3, 58560, Note_off_c, 2, 45, 95
3, 58560, Note_on_c, 2, 69, 95
3, 58560, Note_on_c, 2, 61, 95
3, 58560, Note_on_c, 2, 57, 95
3, 58560, Note_on_c, 2, 52, 95
3, 58560, Note_on_c, 2, 49, 95
3, 58560, Note_on_c, 2, 45, 95
3, 59040, Note_off_c, 2, 69, 95
3, 59040, Note_off_c, 2, 61, 95
3, 59040, Note_off_c, 2, 57, 95
3, 59040, Note_off_c, 2, 52, 95
3, 59040, Note_off_c, 2, 49, 95
3, 59040, Note_off_c, 2, 45, 95
3, 59040, Note_on_c, 2, 69, 95
3, 59040, Note_on_c, 2, 61, 95
3, 59040, Note_on_c, 2, 57, 95
3, 59040, Note_on_c, 2, 52, 95
3, 59040, Note_on_c, 2, 49, 95
3, 59040, Note_on_c, 2, 45, 95
3, 59520, Note_off_c, 2, 69, 95
3, 59520, Note_off_c, 2, 61, 95
3, 59520, Note_off_c, 2, 57, 95
3, 59520, Note_off_c, 2, 52, 95
3, 59520, Note_off_c, 2, 49, 95
3, 59520, Note_off_c, 2, 45, 95
3, 59520, Note_on_c, 2, 66, 95
3, 59520, Note_on_c, 2, 62, 95
3, 59520, Note_on_c, 2, 57, 95
3, 59520, Note_on_c, 2, 54, 95
3, 59520, Note_on_c, 2, 50, 95
3, 60480, Note_off_c, 2, 66, 95
3, 60480, Note_off_c, 2, 62, 95
3, 60480, Note_off_c, 2, 57, 95
3, 60480, Note_off_c, 2, 54, 95
3, 60480, Note_off_c, 2, 50, 95
3, 60480, Note_on_c, 2, 66, 95
3, 60480, Note_on_c, 2, 62, 95
3, 60480, Note_on_c, 2, 57, 95
3, 60480, Note_on_c, 2, 54, 95
3, 60480, Note_on_c, 2, 50, 95
3, 60960, Note_off_c, 2, 66, 95
3, 60960, Note_off_c, 2, 62, 95
3, 60960, Note_off_c, 2, 57, 95
3, 60960, Note_off_c, 2, 54, 95
3, 60960, Note_off_c, 2, 50, 95
3, 60960, Note_on_c, 2, 66, 95
3, 60960, Note_on_c, 2, 61, 95
3, 60960, Note_on_c, 2, 57, 95
3, 60960, Note_on_c, 2, 52, 95
3, 61440, Note_off_c, 2, 66, 95
3, 61440, Note_off_c, 2, 61, 95
3, 61440, Note_off_c, 2, 57, 95
3, 61440, Note_off_c, 2, 52, 95
3, 61440, Note_on_c, 2, 69, 95
3, 61440, Note_on_c, 2, 61, 95
3, 61440, Note_on_c, 2, 57, 95
3, 61440, Note_on_c, 2, 52, 95
3, 61440, Note_on_c, 2, 49, 95
3, 61440, Note_on_c, 2, 45, 95
3, 62400, Note_off_c, 2, 69, 95
3, 62400, Note_off_c, 2, 61, 95
3, 62400, Note_off_c, 2, 57, 95
3, 62400, Note_off_c, 2, 52, 95
3, 62400, Note_off_c, 2, 49, 95
3, 62400, Note_off_c, 2, 45, 95
3, 62400, Note_on_c, 2, 69, 95
3, 62400, Note_on_c, 2, 61, 95
3, 62400, Note_on_c, 2, 57, 95
3, 62400, Note_on_c, 2, 52, 95
3, 62400, Note_on_c, 2, 49, 95
3, 62400, Note_on_c, 2, 45, 95
3, 62880, Note_off_c, 2, 69, 95
3, 62880, Note_off_c, 2, 61, 95
3, 62880, Note_off_c, 2, 57, 95
3, 62880, Note_off_c, 2, 52, 95
3, 62880, Note_off_c, 2, 49, 95
3, 62880, Note_off_c, 2, 45, 95
3, 62880, Note_on_c, 2, 69, 95
3, 62880, Note_on_c, 2, 61, 95
3, 62880, Note_on_c, 2, 57, 95
3, 62880, Note_on_c, 2, 52, 95
3, 62880, Note_on_c, 2, 49, 95
3, 62880, Note_on_c, 2, 45, 95
3, 63360, Note_off_c, 2, 69, 95
3, 63360, Note_off_c, 2, 61, 95
3, 63360, Note_off_c, 2, 57, 95
3, 63360, Note_off_c, 2, 52, 95
3, 63360, Note_off_c, 2, 49, 95
3, 63360, Note_off_c, 2, 45, 95
3, 63360, Note_on_c, 2, 66, 95
3, 63360, Note_on_c, 2, 62, 95
3, 63360, Note_on_c, 2, 57, 95
3, 63360, Note_on_c, 2, 54, 95
3, 63360, Note_on_c, 2, 50, 95
3, 63840, Note_off_c, 2, 66, 95
3, 63840, Note_off_c, 2, 62, 95
3, 63840, Note_off_c, 2, 57, 95
3, 63840, Note_off_c, 2, 54, 95
3, 63840, Note_off_c, 2, 50, 95
3, 63840, Note_on_c, 2, 52, 95
3, 64320, Note_off_c, 2, 52, 95
3, 64320, Note_on_c, 2, 54, 70
3, 64800, Note_off_c, 2, 54, 70
3, 64800, Note_on_c, 2, 57, 95
3, 65280, Note_off_c, 2, 57, 95
3, 65280, Note_on_c, 2, 69, 95
3, 65280, Note_on_c, 2, 61, 95
3, 65280, Note_on_c, 2, 57, 95
3, 65280, Note_on_c, 2, 52, 95
3, 65280, Note_on_c, 2, 49, 95
3, 65280, Note_on_c, 2, 45, 95
3, 66240, Note_off_c, 2, 69, 95
3, 66240, Note_off_c, 2, 61, 95
3, 66240, Note_off_c, 2, 57, 95
3, 66240, Note_off_c, 2, 52, 95
3, 66240, Note_off_c, 2, 49, 95
3, 66240, Note_off_c, 2, 45, 95
3, 66240, Note_on_c, 2, 69, 95
3, 66240, Note_on_c, 2, 61, 95
3, 66240, Note_on_c, 2, 57, 95
3, 66240, Note_on_c, 2, 52, 95
3, 66240, Note_on_c, 2, 49, 95
3, 66240, Note_on_c, 2, 45, 95
3, 66720, Note_off_c, 2, 69, 95
3, 66720, Note_off_c, 2, 61, 95
3, 66720, Note_off_c, 2, 57, 95
3, 66720, Note_off_c, 2, 52, 95
3, 66720, Note_off_c, 2, 49, 95
3, 66720, Note_off_c, 2, 45, 95
3, 66720, Note_on_c, 2, 69, 95
3, 66720, Note_on_c, 2, 61, 95
3, 66720, Note_on_c, 2, 57, 95
3, 66720, Note_on_c, 2, 52, 95
3, 66720, Note_on_c, 2, 49, 95
3, 66720, Note_on_c, 2, 45, 95
3, 67200, Note_off_c, 2, 69, 95
3, 67200, Note_off_c, 2, 61, 95
3, 67200, Note_off_c, 2, 57, 95
3, 67200, Note_off_c, 2, 52, 95
3, 67200, Note_off_c, 2, 49, 95
3, 67200, Note_off_c, 2, 45, 95
3, 67200, Note_on_c, 2, 66, 95
3, 67200, Note_on_c, 2, 62, 95
3, 67200, Note_on_c, 2, 57, 95
3, 67200, Note_on_c, 2, 54, 95
3, 67200, Note_on_c, 2, 50, 95
3, 68160, Note_off_c, 2, 66, 95
3, 68160, Note_off_c, 2, 62, 95
3, 68160, Note_off_c, 2, 57, 95
3, 68160, Note_off_c, 2, 54, 95
3, 68160, Note_off_c, 2, 50, 95
3, 68160, Note_on_c, 2, 66, 95
3, 68160, Note_on_c, 2, 62, 95
3, 68160, Note_on_c, 2, 57, 95
3, 68160, Note_on_c, 2, 54, 95
3, 68160, Note_on_c, 2, 50, 95
3, 68640, Note_off_c, 2, 66, 95
3, 68640, Note_off_c, 2, 62, 95
3, 68640, Note_off_c, 2, 57, 95
3, 68640, Note_off_c, 2, 54, 95
3, 68640, Note_off_c, 2, 50, 95
3, 68640, Note_on_c, 2, 66, 95
3, 68640, Note_on_c, 2, 61, 95
3, 68640, Note_on_c, 2, 57, 95
3, 68640, Note_on_c, 2, 52, 95
3, 69120, Note_off_c, 2, 66, 95
3, 69120, Note_off_c, 2, 61, 95
3, 69120, Note_off_c, 2, 57, 95
3, 69120, Note_off_c, 2, 52, 95
3, 69120, Note_on_c, 2, 69, 95
3, 69120, Note_on_c, 2, 61, 95
3, 69120, Note_on_c, 2, 57, 95
3, 69120, Note_on_c, 2, 52, 95
3, 69120, Note_on_c, 2, 49, 95
3, 69120, Note_on_c, 2, 45, 95
3, 72960, Note_off_c, 2, 69, 95
3, 72960, Note_off_c, 2, 61, 95
3, 72960, Note_off_c, 2, 57, 95
3, 72960, Note_off_c, 2, 52, 95
3, 72960, Note_off_c, 2, 49, 95
3, 72960, Note_off_c, 2, 45, 95
3, 72960, Note_on_c, 2, 69, 95
3, 72960, Note_on_c, 2, 64, 95
3, 72960, Note_on_c, 2, 57, 95
3, 72960, Note_on_c, 2, 52, 95
3, 72960, Note_on_c, 2, 49, 95
3, 72960, Note_on_c, 2, 45, 95
3, 73920, Note_off_c, 2, 69, 95
3, 73920, Note_off_c, 2, 64, 95
3, 73920, Note_off_c, 2, 57, 95
3, 73920, Note_off_c, 2, 52, 95
3, 73920, Note_off_c, 2, 49, 95
3, 73920, Note_off_c, 2, 45, 95
3, 73920, Note_on_c, 2, 69, 95
3, 73920, Note_on_c, 2, 64, 95
3, 73920, Note_on_c, 2, 57, 95
3, 73920, Note_on_c, 2, 52, 95
3, 73920, Note_on_c, 2, 49, 95
3, 73920, Note_on_c, 2, 45, 95
3, 74400, Note_off_c, 2, 69, 95
3, 74400, Note_off_c, 2, 64, 95
3, 74400, Note_off_c, 2, 57, 95
3, 74400, Note_off_c, 2, 52, 95
3, 74400, Note_off_c, 2, 49, 95
3, 74400, Note_off_c, 2, 45, 95
3, 74400, Note_on_c, 2, 69, 95
3, 74400, Note_on_c, 2, 64, 95
3, 74400, Note_on_c, 2, 57, 95
3, 74400, Note_on_c, 2, 52, 95
3, 74400, Note_on_c, 2, 49, 95
3, 74400, Note_on_c, 2, 45, 95
3, 74880, Note_off_c, 2, 69, 95
3, 74880, Note_off_c, 2, 64, 95
3, 74880, Note_off_c, 2, 57, 95
3, 74880, Note_off_c, 2, 52, 95
3, 74880, Note_off_c, 2, 49, 95
3, 74880, Note_off_c, 2, 45, 95
3, 74880, Note_on_c, 2, 69, 95
3, 74880, Note_on_c, 2, 64, 95
3, 74880, Note_on_c, 2, 57, 95
3, 74880, Note_on_c, 2, 52, 95
3, 74880, Note_on_c, 2, 49, 95
3, 74880, Note_on_c, 2, 45, 95
3, 75360, Note_off_c, 2, 69, 95
3, 75360, Note_off_c, 2, 64, 95
3, 75360, Note_off_c, 2, 57, 95
3, 75360, Note_off_c, 2, 52, 95
3, 75360, Note_off_c, 2, 49, 95
3, 75360, Note_off_c, 2, 45, 95
3, 75360, Note_on_c, 2, 69, 95
3, 75360, Note_on_c, 2, 64, 95
3, 75360, Note_on_c, 2, 57, 95
3, 75360, Note_on_c, 2, 52, 95
3, 75360, Note_on_c, 2, 49, 95
3, 75360, Note_on_c, 2, 45, 95
3, 75840, Note_off_c, 2, 69, 95
3, 75840, Note_off_c, 2, 64, 95
3, 75840, Note_off_c, 2, 57, 95
3, 75840, Note_off_c, 2, 52, 95
3, 75840, Note_off_c, 2, 49, 95
3, 75840, Note_off_c, 2, 45, 95
3, 75840, Note_on_c, 2, 69, 95
3, 75840, Note_on_c, 2, 64, 95
3, 75840, Note_on_c, 2, 57, 95
3, 75840, Note_on_c, 2, 52, 95
3, 75840, Note_on_c, 2, 49, 95
3, 75840, Note_on_c, 2, 45, 95
3, 76320, Note_off_c, 2, 69, 95
3, 76320, Note_off_c, 2, 64, 95
3, 76320, Note_off_c, 2, 57, 95
3, 76320, Note_off_c, 2, 52, 95
3, 76320, Note_off_c, 2, 49, 95
3, 76320, Note_off_c, 2, 45, 95
3, 76320, Note_on_c, 2, 69, 95
3, 76320, Note_on_c, 2, 64, 95
3, 76320, Note_on_c, 2, 57, 95
3, 76320, Note_on_c, 2, 52, 95
3, 76320, Note_on_c, 2, 49, 95
3, 76320, Note_on_c, 2, 45, 95
3, 76800, Note_off_c, 2, 69, 95
3, 76800, Note_off_c, 2, 64, 95
3, 76800, Note_off_c, 2, 57, 95
3, 76800, Note_off_c, 2, 52, 95
3, 76800, Note_off_c, 2, 49, 95
3, 76800, Note_off_c, 2, 45, 95
3, 76800, Note_on_c, 2, 69, 95
3, 76800, Note_on_c, 2, 64, 95
3, 76800, Note_on_c, 2, 57, 95
3, 76800, Note_on_c, 2, 52, 95
3, 76800, Note_on_c, 2, 49, 95
3, 76800, Note_on_c, 2, 45, 95
3, 77760, Note_off_c, 2, 69, 95
3, 77760, Note_off_c, 2, 64, 95
3, 77760, Note_off_c, 2, 57, 95
3, 77760, Note_off_c, 2, 52, 95
3, 77760, Note_off_c, 2, 49, 95
3, 77760, Note_off_c, 2, 45, 95
3, 77760, Note_on_c, 2, 69, 95
3, 77760, Note_on_c, 2, 64, 95
3, 77760, Note_on_c, 2, 57, 95
3, 77760, Note_on_c, 2, 52, 95
3, 77760, Note_on_c, 2, 49, 95
3, 77760, Note_on_c, 2, 45, 95
3, 78240, Note_off_c, 2, 69, 95
3, 78240, Note_off_c, 2, 64, 95
3, 78240, Note_off_c, 2, 57, 95
3, 78240, Note_off_c, 2, 52, 95
3, 78240, Note_off_c, 2, 49, 95
3, 78240, Note_off_c, 2, 45, 95
3, 78240, Note_on_c, 2, 69, 95
3, 78240, Note_on_c, 2, 64, 95
3, 78240, Note_on_c, 2, 57, 95
3, 78240, Note_on_c, 2, 52, 95
3, 78240, Note_on_c, 2, 49, 95
3, 78240, Note_on_c, 2, 45, 95
3, 78720, Note_off_c, 2, 69, 95
3, 78720, Note_off_c, 2, 64, 95
3, 78720, Note_off_c, 2, 57, 95
3, 78720, Note_off_c, 2, 52, 95
3, 78720, Note_off_c, 2, 49, 95
3, 78720, Note_off_c, 2, 45, 95
3, 78720, Note_on_c, 2, 69, 95
3, 78720, Note_on_c, 2, 64, 95
3, 78720, Note_on_c, 2, 57, 95
3, 78720, Note_on_c, 2, 52, 95
3, 78720, Note_on_c, 2, 49, 95
3, 78720, Note_on_c, 2, 45, 95
3, 79200, Note_off_c, 2, 69, 95
3, 79200, Note_off_c, 2, 64, 95
3, 79200, Note_off_c, 2, 57, 95
3, 79200, Note_off_c, 2, 52, 95
3, 79200, Note_off_c, 2, 49, 95
3, 79200, Note_off_c, 2, 45, 95
3, 79200, Note_on_c, 2, 69, 95
3, 79200, Note_on_c, 2, 64, 95
3, 79200, Note_on_c, 2, 57, 95
3, 79200, Note_on_c, 2, 52, 95
3, 79200, Note_on_c, 2, 49, 95
3, 79200, Note_on_c, 2, 45, 95
3, 79680, Note_off_c, 2, 69, 95
3, 79680, Note_off_c, 2, 64, 95
3, 79680, Note_off_c, 2, 57, 95
3, 79680, Note_off_c, 2, 52, 95
3, 79680, Note_off_c, 2, 49, 95
3, 79680, Note_off_c, 2, 45, 95
3, 79680, Note_on_c, 2, 69, 95
3, 79680, Note_on_c, 2, 64, 95
3, 79680, Note_on_c, 2, 57, 95
3, 79680, Note_on_c, 2, 52, 95
3, 79680, Note_on_c, 2, 49, 95
3, 79680, Note_on_c, 2, 45, 95
3, 80160, Note_off_c, 2, 69, 95
3, 80160, Note_off_c, 2, 64, 95
3, 80160, Note_off_c, 2, 57, 95
3, 80160, Note_off_c, 2, 52, 95
3, 80160, Note_off_c, 2, 49, 95
3, 80160, Note_off_c, 2, 45, 95
3, 80160, Note_on_c, 2, 69, 95
3, 80160, Note_on_c, 2, 64, 95
3, 80160, Note_on_c, 2, 57, 95
3, 80160, Note_on_c, 2, 52, 95
3, 80160, Note_on_c, 2, 49, 95
3, 80160, Note_on_c, 2, 45, 95
3, 80640, Note_off_c, 2, 69, 95
3, 80640, Note_off_c, 2, 64, 95
3, 80640, Note_off_c, 2, 57, 95
3, 80640, Note_off_c, 2, 52, 95
3, 80640, Note_off_c, 2, 49, 95
3, 80640, Note_off_c, 2, 45, 95
3, 80640, Note_on_c, 2, 68, 95
3, 80640, Note_on_c, 2, 64, 95
3, 80640, Note_on_c, 2, 61, 95
3, 80640, Note_on_c, 2, 56, 95
3, 80640, Note_on_c, 2, 49, 95
3, 81600, Note_off_c, 2, 68, 95
3, 81600, Note_off_c, 2, 64, 95
3, 81600, Note_off_c, 2, 61, 95
3, 81600, Note_off_c, 2, 56, 95
3, 81600, Note_off_c, 2, 49, 95
3, 81600, Note_on_c, 2, 68, 95
3, 81600, Note_on_c, 2, 64, 95
3, 81600, Note_on_c, 2, 61, 95
3, 81600, Note_on_c, 2, 56, 95
3, 81600, Note_on_c, 2, 49, 95
3, 82080, Note_off_c, 2, 68, 95
3, 82080, Note_off_c, 2, 64, 95
3, 82080, Note_off_c, 2, 61, 95
3, 82080, Note_off_c, 2, 56, 95
3, 82080, Note_off_c, 2, 49, 95
3, 82080, Note_on_c, 2, 68, 95
3, 82080, Note_on_c, 2, 64, 95
3, 82080, Note_on_c, 2, 61, 95
3, 82080, Note_on_c, 2, 56, 95
3, 82080, Note_on_c, 2, 49, 95
3, 83040, Note_off_c, 2, 68, 95
3, 83040, Note_off_c, 2, 64, 95
3, 83040, Note_off_c, 2, 61, 95
3, 83040, Note_off_c, 2, 56, 95
3, 83040, Note_off_c, 2, 49, 95
3, 83040, Note_on_c, 2, 68, 95
3, 83040, Note_on_c, 2, 64, 95
3, 83040, Note_on_c, 2, 61, 95
3, 83040, Note_on_c, 2, 56, 95
3, 83040, Note_on_c, 2, 49, 95
3, 84000, Note_off_c, 2, 68, 95
3, 84000, Note_off_c, 2, 64, 95
3, 84000, Note_off_c, 2, 61, 95
3, 84000, Note_off_c, 2, 56, 95
3, 84000, Note_off_c, 2, 49, 95
3, 84000, Note_on_c, 2, 68, 95
3, 84000, Note_on_c, 2, 64, 95
3, 84000, Note_on_c, 2, 61, 95
3, 84000, Note_on_c, 2, 56, 95
3, 84000, Note_on_c, 2, 49, 95
3, 84480, Note_off_c, 2, 68, 95
3, 84480, Note_off_c, 2, 64, 95
3, 84480, Note_off_c, 2, 61, 95
3, 84480, Note_off_c, 2, 56, 95
3, 84480, Note_off_c, 2, 49, 95
3, 84480, Note_on_c, 2, 68, 95
3, 84480, Note_on_c, 2, 64, 95
3, 84480, Note_on_c, 2, 61, 95
3, 84480, Note_on_c, 2, 56, 95
3, 84480, Note_on_c, 2, 49, 95
3, 85440, Note_off_c, 2, 68, 95
3, 85440, Note_off_c, 2, 64, 95
3, 85440, Note_off_c, 2, 61, 95
3, 85440, Note_off_c, 2, 56, 95
3, 85440, Note_off_c, 2, 49, 95
3, 85440, Note_on_c, 2, 68, 95
3, 85440, Note_on_c, 2, 64, 95
3, 85440, Note_on_c, 2, 61, 95
3, 85440, Note_on_c, 2, 56, 95
3, 85440, Note_on_c, 2, 49, 95
3, 85920, Note_off_c, 2, 68, 95
3, 85920, Note_off_c, 2, 64, 95
3, 85920, Note_off_c, 2, 61, 95
3, 85920, Note_off_c, 2, 56, 95
3, 85920, Note_off_c, 2, 49, 95
3, 85920, Note_on_c, 2, 68, 95
3, 85920, Note_on_c, 2, 64, 95
3, 85920, Note_on_c, 2, 61, 95
3, 85920, Note_on_c, 2, 56, 95
3, 85920, Note_on_c, 2, 49, 95
3, 86400, Note_off_c, 2, 68, 95
3, 86400, Note_off_c, 2, 64, 95
3, 86400, Note_off_c, 2, 61, 95
3, 86400, Note_off_c, 2, 56, 95
3, 86400, Note_off_c, 2, 49, 95
3, 86400, Note_on_c, 2, 68, 95
3, 86400, Note_on_c, 2, 64, 95
3, 86400, Note_on_c, 2, 61, 95
3, 86400, Note_on_c, 2, 56, 95
3, 86400, Note_on_c, 2, 49, 95
3, 86880, Note_off_c, 2, 68, 95
3, 86880, Note_off_c, 2, 64, 95
3, 86880, Note_off_c, 2, 61, 95
3, 86880, Note_off_c, 2, 56, 95
3, 86880, Note_off_c, 2, 49, 95
3, 86880, Note_on_c, 2, 68, 95
3, 86880, Note_on_c, 2, 64, 95
3, 86880, Note_on_c, 2, 61, 95
3, 86880, Note_on_c, 2, 56, 95
3, 86880, Note_on_c, 2, 49, 95
3, 87360, Note_off_c, 2, 68, 95
3, 87360, Note_off_c, 2, 64, 95
3, 87360, Note_off_c, 2, 61, 95
3, 87360, Note_off_c, 2, 56, 95
3, 87360, Note_off_c, 2, 49, 95
3, 87360, Note_on_c, 2, 68, 95
3, 87360, Note_on_c, 2, 64, 95
3, 87360, Note_on_c, 2, 61, 95
3, 87360, Note_on_c, 2, 56, 95
3, 87360, Note_on_c, 2, 49, 95
3, 87840, Note_off_c, 2, 68, 95
3, 87840, Note_off_c, 2, 64, 95
3, 87840, Note_off_c, 2, 61, 95
3, 87840, Note_off_c, 2, 56, 95
3, 87840, Note_off_c, 2, 49, 95
3, 87840, Note_on_c, 2, 68, 95
3, 87840, Note_on_c, 2, 64, 95
3, 87840, Note_on_c, 2, 61, 95
3, 87840, Note_on_c, 2, 56, 95
3, 87840, Note_on_c, 2, 49, 95
3, 88320, Note_off_c, 2, 68, 95
3, 88320, Note_off_c, 2, 64, 95
3, 88320, Note_off_c, 2, 61, 95
3, 88320, Note_off_c, 2, 56, 95
3, 88320, Note_off_c, 2, 49, 95
3, 88320, Note_on_c, 2, 66, 95
3, 88320, Note_on_c, 2, 62, 95
3, 88320, Note_on_c, 2, 57, 95
3, 88320, Note_on_c, 2, 54, 95
3, 88320, Note_on_c, 2, 50, 95
3, 89280, Note_off_c, 2, 66, 95
3, 89280, Note_off_c, 2, 62, 95
3, 89280, Note_off_c, 2, 57, 95
3, 89280, Note_off_c, 2, 54, 95
3, 89280, Note_off_c, 2, 50, 95
3, 89280, Note_on_c, 2, 66, 95
3, 89280, Note_on_c, 2, 62, 95
3, 89280, Note_on_c, 2, 57, 95
3, 89280, Note_on_c, 2, 54, 95
3, 89280, Note_on_c, 2, 50, 95
3, 89760, Note_off_c, 2, 66, 95
3, 89760, Note_off_c, 2, 62, 95
3, 89760, Note_off_c, 2, 57, 95
3, 89760, Note_off_c, 2, 54, 95
3, 89760, Note_off_c, 2, 50, 95
3, 89760, Note_on_c, 2, 66, 95
3, 89760, Note_on_c, 2, 62, 95
3, 89760, Note_on_c, 2, 57, 95
3, 89760, Note_on_c, 2, 54, 95
3, 89760, Note_on_c, 2, 50, 95
3, 90240, Note_off_c, 2, 66, 95
3, 90240, Note_off_c, 2, 62, 95
3, 90240, Note_off_c, 2, 57, 95
3, 90240, Note_off_c, 2, 54, 95
3, 90240, Note_off_c, 2, 50, 95
3, 90240, Note_on_c, 2, 66, 95
3, 90240, Note_on_c, 2, 62, 95
3, 90240, Note_on_c, 2, 57, 95
3, 90240, Note_on_c, 2, 54, 95
3, 90240, Note_on_c, 2, 50, 95
3, 90720, Note_off_c, 2, 66, 95
3, 90720, Note_off_c, 2, 62, 95
3, 90720, Note_off_c, 2, 57, 95
3, 90720, Note_off_c, 2, 54, 95
3, 90720, Note_off_c, 2, 50, 95
3, 90720, Note_on_c, 2, 66, 95
3, 90720, Note_on_c, 2, 62, 95
3, 90720, Note_on_c, 2, 57, 95
3, 90720, Note_on_c, 2, 54, 95
3, 90720, Note_on_c, 2, 50, 95
3, 91200, Note_off_c, 2, 66, 95
3, 91200, Note_off_c, 2, 62, 95
3, 91200, Note_off_c, 2, 57, 95
3, 91200, Note_off_c, 2, 54, 95
3, 91200, Note_off_c, 2, 50, 95
3, 91200, Note_on_c, 2, 66, 95
3, 91200, Note_on_c, 2, 62, 95
3, 91200, Note_on_c, 2, 57, 95
3, 91200, Note_on_c, 2, 54, 95
3, 91200, Note_on_c, 2, 50, 95
3, 91680, Note_off_c, 2, 66, 95
3, 91680, Note_off_c, 2, 62, 95
3, 91680, Note_off_c, 2, 57, 95
3, 91680, Note_off_c, 2, 54, 95
3, 91680, Note_off_c, 2, 50, 95
3, 91680, Note_on_c, 2, 66, 95
3, 91680, Note_on_c, 2, 62, 95
3, 91680, Note_on_c, 2, 57, 95
3, 91680, Note_on_c, 2, 54, 95
3, 91680, Note_on_c, 2, 50, 95
3, 92160, Note_off_c, 2, 66, 95
3, 92160, Note_off_c, 2, 62, 95
3, 92160, Note_off_c, 2, 57, 95
3, 92160, Note_off_c, 2, 54, 95
3, 92160, Note_off_c, 2, 50, 95
3, 92160, Note_on_c, 2, 66, 95
3, 92160, Note_on_c, 2, 62, 95
3, 92160, Note_on_c, 2, 57, 95
3, 92160, Note_on_c, 2, 54, 95
3, 92160, Note_on_c, 2, 50, 95
3, 92640, Note_off_c, 2, 66, 95
3, 92640, Note_off_c, 2, 62, 95
3, 92640, Note_off_c, 2, 57, 95
3, 92640, Note_off_c, 2, 54, 95
3, 92640, Note_off_c, 2, 50, 95
3, 92640, Note_on_c, 2, 66, 95
3, 92640, Note_on_c, 2, 62, 95
3, 92640, Note_on_c, 2, 57, 95
3, 92640, Note_on_c, 2, 54, 95
3, 92640, Note_on_c, 2, 50, 95
3, 93600, Note_off_c, 2, 66, 95
3, 93600, Note_off_c, 2, 62, 95
3, 93600, Note_off_c, 2, 57, 95
3, 93600, Note_off_c, 2, 54, 95
3, 93600, Note_off_c, 2, 50, 95
3, 93600, Note_on_c, 2, 66, 95
3, 93600, Note_on_c, 2, 62, 95
3, 93600, Note_on_c, 2, 57, 95
3, 93600, Note_on_c, 2, 54, 95
3, 93600, Note_on_c, 2, 50, 95
3, 94080, Note_off_c, 2, 66, 95
3, 94080, Note_off_c, 2, 62, 95
3, 94080, Note_off_c, 2, 57, 95
3, 94080, Note_off_c, 2, 54, 95
3, 94080, Note_off_c, 2, 50, 95
3, 94080, Note_on_c, 2, 66, 95
3, 94080, Note_on_c, 2, 62, 95
3, 94080, Note_on_c, 2, 57, 95
3, 94080, Note_on_c, 2, 54, 95
3, 94080, Note_on_c, 2, 50, 95
3, 94560, Note_off_c, 2, 66, 95
3, 94560, Note_off_c, 2, 62, 95
3, 94560, Note_off_c, 2, 57, 95
3, 94560, Note_off_c, 2, 54, 95
3, 94560, Note_off_c, 2, 50, 95
3, 94560, Note_on_c, 2, 66, 95
3, 94560, Note_on_c, 2, 62, 95
3, 94560, Note_on_c, 2, 57, 95
3, 94560, Note_on_c, 2, 54, 95
3, 94560, Note_on_c, 2, 50, 95
3, 95040, Note_off_c, 2, 66, 95
3, 95040, Note_off_c, 2, 62, 95
3, 95040, Note_off_c, 2, 57, 95
3, 95040, Note_off_c, 2, 54, 95
3, 95040, Note_off_c, 2, 50, 95
3, 95040, Note_on_c, 2, 66, 95
3, 95040, Note_on_c, 2, 62, 95
3, 95040, Note_on_c, 2, 57, 95
3, 95040, Note_on_c, 2, 54, 95
3, 95040, Note_on_c, 2, 50, 95
3, 95520, Note_off_c, 2, 66, 95
3, 95520, Note_off_c, 2, 62, 95
3, 95520, Note_off_c, 2, 57, 95
3, 95520, Note_off_c, 2, 54, 95
3, 95520, Note_off_c, 2, 50, 95
3, 95520, Note_on_c, 2, 66, 95
3, 95520, Note_on_c, 2, 62, 95
3, 95520, Note_on_c, 2, 57, 95
3, 95520, Note_on_c, 2, 54, 95
3, 95520, Note_on_c, 2, 50, 95
3, 96000, Note_off_c, 2, 66, 95
3, 96000, Note_off_c, 2, 62, 95
3, 96000, Note_off_c, 2, 57, 95
3, 96000, Note_off_c, 2, 54, 95
3, 96000, Note_off_c, 2, 50, 95
3, 96000, Note_on_c, 2, 68, 95
3, 96000, Note_on_c, 2, 64, 95
3, 96000, Note_on_c, 2, 59, 95
3, 96000, Note_on_c, 2, 52, 95
3, 96480, Note_off_c, 2, 68, 95
3, 96480, Note_off_c, 2, 64, 95
3, 96480, Note_off_c, 2, 59, 95
3, 96480, Note_off_c, 2, 52, 95
3, 96480, Note_on_c, 2, 68, 95
3, 96480, Note_on_c, 2, 64, 95
3, 96480, Note_on_c, 2, 59, 95
3, 96480, Note_on_c, 2, 52, 95
3, 96960, Note_off_c, 2, 68, 95
3, 96960, Note_off_c, 2, 64, 95
3, 96960, Note_off_c, 2, 59, 95
3, 96960, Note_off_c, 2, 52, 95
3, 96960, Note_on_c, 2, 68, 95
3, 96960, Note_on_c, 2, 64, 95
3, 96960, Note_on_c, 2, 59, 95
3, 96960, Note_on_c, 2, 52, 95
3, 97440, Note_off_c, 2, 68, 95
3, 97440, Note_off_c, 2, 64, 95
3, 97440, Note_off_c, 2, 59, 95
3, 97440, Note_off_c, 2, 52, 95
3, 97440, Note_on_c, 2, 68, 95
3, 97440, Note_on_c, 2, 64, 95
3, 97440, Note_on_c, 2, 59, 95
3, 97440, Note_on_c, 2, 52, 95
3, 97920, Note_off_c, 2, 68, 95
3, 97920, Note_off_c, 2, 64, 95
3, 97920, Note_off_c, 2, 59, 95
3, 97920, Note_off_c, 2, 52, 95
3, 97920, Note_on_c, 2, 68, 95
3, 97920, Note_on_c, 2, 64, 95
3, 97920, Note_on_c, 2, 59, 95
3, 97920, Note_on_c, 2, 52, 95
3, 98400, Note_off_c, 2, 68, 95
3, 98400, Note_off_c, 2, 64, 95
3, 98400, Note_off_c, 2, 59, 95
3, 98400, Note_off_c, 2, 52, 95
3, 98400, Note_on_c, 2, 68, 95
3, 98400, Note_on_c, 2, 64, 95
3, 98400, Note_on_c, 2, 59, 95
3, 98400, Note_on_c, 2, 52, 95
3, 98880, Note_off_c, 2, 68, 95
3, 98880, Note_off_c, 2, 64, 95
3, 98880, Note_off_c, 2, 59, 95
3, 98880, Note_off_c, 2, 52, 95
3, 98880, Note_on_c, 2, 68, 95
3, 98880, Note_on_c, 2, 64, 95
3, 98880, Note_on_c, 2, 59, 95
3, 98880, Note_on_c, 2, 52, 95
3, 99360, Note_off_c, 2, 68, 95
3, 99360, Note_off_c, 2, 64, 95
3, 99360, Note_off_c, 2, 59, 95
3, 99360, Note_off_c, 2, 52, 95
3, 99360, Note_on_c, 2, 68, 95
3, 99360, Note_on_c, 2, 64, 95
3, 99360, Note_on_c, 2, 59, 95
3, 99360, Note_on_c, 2, 52, 95
3, 99840, Note_off_c, 2, 68, 95
3, 99840, Note_off_c, 2, 64, 95
3, 99840, Note_off_c, 2, 59, 95
3, 99840, Note_off_c, 2, 52, 95
3, 99840, Note_on_c, 2, 68, 95
3, 99840, Note_on_c, 2, 64, 95
3, 99840, Note_on_c, 2, 59, 95
3, 99840, Note_on_c, 2, 52, 95
3, 100320, Note_off_c, 2, 68, 95
3, 100320, Note_off_c, 2, 64, 95
3, 100320, Note_off_c, 2, 59, 95
3, 100320, Note_off_c, 2, 52, 95
3, 100320, Note_on_c, 2, 68, 95
3, 100320, Note_on_c, 2, 64, 95
3, 100320, Note_on_c, 2, 59, 95
3, 100320, Note_on_c, 2, 52, 95
3, 100800, Note_off_c, 2, 68, 95
3, 100800, Note_off_c, 2, 64, 95
3, 100800, Note_off_c, 2, 59, 95
3, 100800, Note_off_c, 2, 52, 95
3, 100800, Note_on_c, 2, 68, 95
3, 100800, Note_on_c, 2, 64, 95
3, 100800, Note_on_c, 2, 59, 95
3, 100800, Note_on_c, 2, 52, 95
3, 101280, Note_off_c, 2, 68, 95
3, 101280, Note_off_c, 2, 64, 95
3, 101280, Note_off_c, 2, 59, 95
3, 101280, Note_off_c, 2, 52, 95
3, 101280, Note_on_c, 2, 68, 95
3, 101280, Note_on_c, 2, 64, 95
3, 101280, Note_on_c, 2, 59, 95
3, 101280, Note_on_c, 2, 52, 95
3, 101760, Note_off_c, 2, 68, 95
3, 101760, Note_off_c, 2, 64, 95
3, 101760, Note_off_c, 2, 59, 95
3, 101760, Note_off_c, 2, 52, 95
3, 101760, Note_on_c, 2, 68, 95
3, 101760, Note_on_c, 2, 64, 95
3, 101760, Note_on_c, 2, 59, 95
3, 101760, Note_on_c, 2, 52, 95
3, 102240, Note_off_c, 2, 68, 95
3, 102240, Note_off_c, 2, 64, 95
3, 102240, Note_off_c, 2, 59, 95
3, 102240, Note_off_c, 2, 52, 95
3, 102240, Note_on_c, 2, 68, 95
3, 102240, Note_on_c, 2, 64, 95
3, 102240, Note_on_c, 2, 59, 95
3, 102240, Note_on_c, 2, 52, 95
3, 102720, Note_off_c, 2, 68, 95
3, 102720, Note_off_c, 2, 64, 95
3, 102720, Note_off_c, 2, 59, 95
3, 102720, Note_off_c, 2, 52, 95
3, 102720, Note_on_c, 2, 68, 95
3, 102720, Note_on_c, 2, 64, 95
3, 102720, Note_on_c, 2, 59, 95
3, 102720, Note_on_c, 2, 52, 95
3, 103200, Note_off_c, 2, 68, 95
3, 103200, Note_off_c, 2, 64, 95
3, 103200, Note_off_c, 2, 59, 95
3, 103200, Note_off_c, 2, 52, 95
3, 103200, Note_on_c, 2, 68, 95
3, 103200, Note_on_c, 2, 64, 95
3, 103200, Note_on_c, 2, 59, 95
3, 103200, Note_on_c, 2, 52, 95
3, 103680, Note_off_c, 2, 68, 95
3, 103680, Note_off_c, 2, 64, 95
3, 103680, Note_off_c, 2, 59, 95
3, 103680, Note_off_c, 2, 52, 95
3, 103680, Note_on_c, 2, 66, 95
3, 103680, Note_on_c, 2, 63, 95
3, 103680, Note_on_c, 2, 59, 95
3, 103680, Note_on_c, 2, 54, 95
3, 103680, Note_on_c, 2, 47, 95
3, 104160, Note_off_c, 2, 66, 95
3, 104160, Note_off_c, 2, 63, 95
3, 104160, Note_off_c, 2, 59, 95
3, 104160, Note_off_c, 2, 54, 95
3, 104160, Note_off_c, 2, 47, 95
3, 104160, Note_on_c, 2, 66, 95
3, 104160, Note_on_c, 2, 63, 95
3, 104160, Note_on_c, 2, 59, 95
3, 104160, Note_on_c, 2, 54, 95
3, 104160, Note_on_c, 2, 47, 95
3, 104640, Note_off_c, 2, 66, 95
3, 104640, Note_off_c, 2, 63, 95
3, 104640, Note_off_c, 2, 59, 95
3, 104640, Note_off_c, 2, 54, 95
3, 104640, Note_off_c, 2, 47, 95
3, 104640, Note_on_c, 2, 66, 95
3, 104640, Note_on_c, 2, 63, 95
3, 104640, Note_on_c, 2, 59, 95
3, 104640, Note_on_c, 2, 54, 95
3, 104640, Note_on_c, 2, 47, 95
3, 105120, Note_off_c, 2, 66, 95
3, 105120, Note_off_c, 2, 63, 95
3, 105120, Note_off_c, 2, 59, 95
3, 105120, Note_off_c, 2, 54, 95
3, 105120, Note_off_c, 2, 47, 95
3, 105120, Note_on_c, 2, 66, 95
3, 105120, Note_on_c, 2, 63, 95
3, 105120, Note_on_c, 2, 59, 95
3, 105120, Note_on_c, 2, 54, 95
3, 105120, Note_on_c, 2, 47, 95
3, 105600, Note_off_c, 2, 66, 95
3, 105600, Note_off_c, 2, 63, 95
3, 105600, Note_off_c, 2, 59, 95
3, 105600, Note_off_c, 2, 54, 95
3, 105600, Note_off_c, 2, 47, 95
3, 105600, Note_on_c, 2, 66, 95
3, 105600, Note_on_c, 2, 63, 95
3, 105600, Note_on_c, 2, 59, 95
3, 105600, Note_on_c, 2, 54, 95
3, 105600, Note_on_c, 2, 47, 95
3, 106080, Note_off_c, 2, 66, 95
3, 106080, Note_off_c, 2, 63, 95
3, 106080, Note_off_c, 2, 59, 95
3, 106080, Note_off_c, 2, 54, 95
3, 106080, Note_off_c, 2, 47, 95
3, 106080, Note_on_c, 2, 66, 95
3, 106080, Note_on_c, 2, 63, 95
3, 106080, Note_on_c, 2, 59, 95
3, 106080, Note_on_c, 2, 54, 95
3, 106080, Note_on_c, 2, 47, 95
3, 106560, Note_off_c, 2, 66, 95
3, 106560, Note_off_c, 2, 63, 95
3, 106560, Note_off_c, 2, 59, 95
3, 106560, Note_off_c, 2, 54, 95
3, 106560, Note_off_c, 2, 47, 95
3, 106560, Note_on_c, 2, 66, 95
3, 106560, Note_on_c, 2, 63, 95
3, 106560, Note_on_c, 2, 59, 95
3, 106560, Note_on_c, 2, 54, 95
3, 106560, Note_on_c, 2, 47, 95
3, 107040, Note_off_c, 2, 66, 95
3, 107040, Note_off_c, 2, 63, 95
3, 107040, Note_off_c, 2, 59, 95
3, 107040, Note_off_c, 2, 54, 95
3, 107040, Note_off_c, 2, 47, 95
3, 107040, Note_on_c, 2, 66, 95
3, 107040, Note_on_c, 2, 63, 95
3, 107040, Note_on_c, 2, 59, 95
3, 107040, Note_on_c, 2, 54, 95
3, 107040, Note_on_c, 2, 47, 95
3, 107520, Note_off_c, 2, 66, 95
3, 107520, Note_off_c, 2, 63, 95
3, 107520, Note_off_c, 2, 59, 95
3, 107520, Note_off_c, 2, 54, 95
3, 107520, Note_off_c, 2, 47, 95
3, 107520, Note_on_c, 2, 66, 95
3, 107520, Note_on_c, 2, 63, 95
3, 107520, Note_on_c, 2, 59, 95
3, 107520, Note_on_c, 2, 54, 95
3, 107520, Note_on_c, 2, 47, 95
3, 108000, Note_off_c, 2, 66, 95
3, 108000, Note_off_c, 2, 63, 95
3, 108000, Note_off_c, 2, 59, 95
3, 108000, Note_off_c, 2, 54, 95
3, 108000, Note_off_c, 2, 47, 95
3, 108000, Note_on_c, 2, 66, 95
3, 108000, Note_on_c, 2, 63, 95
3, 108000, Note_on_c, 2, 59, 95
3, 108000, Note_on_c, 2, 54, 95
3, 108000, Note_on_c, 2, 47, 95
3, 108480, Note_off_c, 2, 66, 95
3, 108480, Note_off_c, 2, 63, 95
3, 108480, Note_off_c, 2, 59, 95
3, 108480, Note_off_c, 2, 54, 95
3, 108480, Note_off_c, 2, 47, 95
3, 108480, Note_on_c, 2, 66, 95
3, 108480, Note_on_c, 2, 63, 95
3, 108480, Note_on_c, 2, 59, 95
3, 108480, Note_on_c, 2, 54, 95
3, 108480, Note_on_c, 2, 47, 95
3, 108960, Note_off_c, 2, 66, 95
3, 108960, Note_off_c, 2, 63, 95
3, 108960, Note_off_c, 2, 59, 95
3, 108960, Note_off_c, 2, 54, 95
3, 108960, Note_off_c, 2, 47, 95
3, 108960, Note_on_c, 2, 66, 95
3, 108960, Note_on_c, 2, 63, 95
3, 108960, Note_on_c, 2, 59, 95
3, 108960, Note_on_c, 2, 54, 95
3, 108960, Note_on_c, 2, 47, 95
3, 109440, Note_off_c, 2, 66, 95
3, 109440, Note_off_c, 2, 63, 95
3, 109440, Note_off_c, 2, 59, 95
3, 109440, Note_off_c, 2, 54, 95
3, 109440, Note_off_c, 2, 47, 95
3, 109440, Note_on_c, 2, 66, 95
3, 109440, Note_on_c, 2, 63, 95
3, 109440, Note_on_c, 2, 59, 95
3, 109440, Note_on_c, 2, 54, 95
3, 109440, Note_on_c, 2, 47, 95
3, 109920, Note_off_c, 2, 66, 95
3, 109920, Note_off_c, 2, 63, 95
3, 109920, Note_off_c, 2, 59, 95
3, 109920, Note_off_c, 2, 54, 95
3, 109920, Note_off_c, 2, 47, 95
3, 109920, Note_on_c, 2, 66, 95
3, 109920, Note_on_c, 2, 63, 95
3, 109920, Note_on_c, 2, 59, 95
3, 109920, Note_on_c, 2, 54, 95
3, 109920, Note_on_c, 2, 47, 95
3, 110400, Note_off_c, 2, 66, 95
3, 110400, Note_off_c, 2, 63, 95
3, 110400, Note_off_c, 2, 59, 95
3, 110400, Note_off_c, 2, 54, 95
3, 110400, Note_off_c, 2, 47, 95
3, 110400, Note_on_c, 2, 66, 95
3, 110400, Note_on_c, 2, 63, 95
3, 110400, Note_on_c, 2, 59, 95
3, 110400, Note_on_c, 2, 54, 95
3, 110400, Note_on_c, 2, 47, 95
3, 110880, Note_off_c, 2, 66, 95
3, 110880, Note_off_c, 2, 63, 95
3, 110880, Note_off_c, 2, 59, 95
3, 110880, Note_off_c, 2, 54, 95
3, 110880, Note_off_c, 2, 47, 95
3, 110880, Note_on_c, 2, 66, 95
3, 110880, Note_on_c, 2, 63, 95
3, 110880, Note_on_c, 2, 59, 95
3, 110880, Note_on_c, 2, 54, 95
3, 110880, Note_on_c, 2, 47, 95
3, 111360, Note_off_c, 2, 66, 95
3, 111360, Note_off_c, 2, 63, 95
3, 111360, Note_off_c, 2, 59, 95
3, 111360, Note_off_c, 2, 54, 95
3, 111360, Note_off_c, 2, 47, 95
3, 111360, Note_on_c, 2, 68, 95
3, 111360, Note_on_c, 2, 64, 95
3, 111360, Note_on_c, 2, 61, 95
3, 111360, Note_on_c, 2, 56, 95
3, 111360, Note_on_c, 2, 49, 95
3, 111840, Note_off_c, 2, 68, 95
3, 111840, Note_off_c, 2, 64, 95
3, 111840, Note_off_c, 2, 61, 95
3, 111840, Note_off_c, 2, 56, 95
3, 111840, Note_off_c, 2, 49, 95
3, 111840, Note_on_c, 2, 68, 95
3, 111840, Note_on_c, 2, 64, 95
3, 111840, Note_on_c, 2, 61, 95
3, 111840, Note_on_c, 2, 56, 95
3, 111840, Note_on_c, 2, 49, 95
3, 112320, Note_off_c, 2, 68, 95
3, 112320, Note_off_c, 2, 64, 95
3, 112320, Note_off_c, 2, 61, 95
3, 112320, Note_off_c, 2, 56, 95
3, 112320, Note_off_c, 2, 49, 95
3, 112320, Note_on_c, 2, 68, 95
3, 112320, Note_on_c, 2, 64, 95
3, 112320, Note_on_c, 2, 61, 95
3, 112320, Note_on_c, 2, 56, 95
3, 112320, Note_on_c, 2, 49, 95
3, 112800, Note_off_c, 2, 68, 95
3, 112800, Note_off_c, 2, 64, 95
3, 112800, Note_off_c, 2, 61, 95
3, 112800, Note_off_c, 2, 56, 95
3, 112800, Note_off_c, 2, 49, 95
3, 112800, Note_on_c, 2, 68, 95
3, 112800, Note_on_c, 2, 64, 95
3, 112800, Note_on_c, 2, 61, 95
3, 112800, Note_on_c, 2, 56, 95
3, 112800, Note_on_c, 2, 49, 95
3, 113280, Note_off_c, 2, 68, 95
3, 113280, Note_off_c, 2, 64, 95
3, 113280, Note_off_c, 2, 61, 95
3, 113280, Note_off_c, 2, 56, 95
3, 113280, Note_off_c, 2, 49, 95
3, 113280, Note_on_c, 2, 68, 95
3, 113280, Note_on_c, 2, 64, 95
3, 113280, Note_on_c, 2, 61, 95
3, 113280, Note_on_c, 2, 56, 95
3, 113280, Note_on_c, 2, 49, 95
3, 113760, Note_off_c, 2, 68, 95
3, 113760, Note_off_c, 2, 64, 95
3, 113760, Note_off_c, 2, 61, 95
3, 113760, Note_off_c, 2, 56, 95
3, 113760, Note_off_c, 2, 49, 95
3, 113760, Note_on_c, 2, 68, 95
3, 113760, Note_on_c, 2, 64, 95
3, 113760, Note_on_c, 2, 61, 95
3, 113760, Note_on_c, 2, 56, 95
3, 113760, Note_on_c, 2, 49, 95
3, 114240, Note_off_c, 2, 68, 95
3, 114240, Note_off_c, 2, 64, 95
3, 114240, Note_off_c, 2, 61, 95
3, 114240, Note_off_c, 2, 56, 95
3, 114240, Note_off_c, 2, 49, 95
3, 114240, Note_on_c, 2, 68, 95
3, 114240, Note_on_c, 2, 64, 95
3, 114240, Note_on_c, 2, 61, 95
3, 114240, Note_on_c, 2, 56, 95
3, 114240, Note_on_c, 2, 49, 95
3, 114720, Note_off_c, 2, 68, 95
3, 114720, Note_off_c, 2, 64, 95
3, 114720, Note_off_c, 2, 61, 95
3, 114720, Note_off_c, 2, 56, 95
3, 114720, Note_off_c, 2, 49, 95
3, 114720, Note_on_c, 2, 68, 95
3, 114720, Note_on_c, 2, 64, 95
3, 114720, Note_on_c, 2, 61, 95
3, 114720, Note_on_c, 2, 56, 95
3, 114720, Note_on_c, 2, 49, 95
3, 115200, Note_off_c, 2, 68, 95
3, 115200, Note_off_c, 2, 64, 95
3, 115200, Note_off_c, 2, 61, 95
3, 115200, Note_off_c, 2, 56, 95
3, 115200, Note_off_c, 2, 49, 95
3, 115200, Note_on_c, 2, 68, 95
3, 115200, Note_on_c, 2, 64, 95
3, 115200, Note_on_c, 2, 61, 95
3, 115200, Note_on_c, 2, 56, 95
3, 115200, Note_on_c, 2, 49, 95
3, 115680, Note_off_c, 2, 68, 95
3, 115680, Note_off_c, 2, 64, 95
3, 115680, Note_off_c, 2, 61, 95
3, 115680, Note_off_c, 2, 56, 95
3, 115680, Note_off_c, 2, 49, 95
3, 115680, Note_on_c, 2, 68, 95
3, 115680, Note_on_c, 2, 64, 95
3, 115680, Note_on_c, 2, 61, 95
3, 115680, Note_on_c, 2, 56, 95
3, 115680, Note_on_c, 2, 49, 95
3, 116160, Note_off_c, 2, 68, 95
3, 116160, Note_off_c, 2, 64, 95
3, 116160, Note_off_c, 2, 61, 95
3, 116160, Note_off_c, 2, 56, 95
3, 116160, Note_off_c, 2, 49, 95
3, 116160, Note_on_c, 2, 68, 95
3, 116160, Note_on_c, 2, 64, 95
3, 116160, Note_on_c, 2, 61, 95
3, 116160, Note_on_c, 2, 56, 95
3, 116160, Note_on_c, 2, 49, 95
3, 116640, Note_off_c, 2, 68, 95
3, 116640, Note_off_c, 2, 64, 95
3, 116640, Note_off_c, 2, 61, 95
3, 116640, Note_off_c, 2, 56, 95
3, 116640, Note_off_c, 2, 49, 95
3, 116640, Note_on_c, 2, 68, 95
3, 116640, Note_on_c, 2, 64, 95
3, 116640, Note_on_c, 2, 61, 95
3, 116640, Note_on_c, 2, 56, 95
3, 116640, Note_on_c, 2, 49, 95
3, 117120, Note_off_c, 2, 68, 95
3, 117120, Note_off_c, 2, 64, 95
3, 117120, Note_off_c, 2, 61, 95
3, 117120, Note_off_c, 2, 56, 95
3, 117120, Note_off_c, 2, 49, 95
3, 117120, Note_on_c, 2, 68, 95
3, 117120, Note_on_c, 2, 64, 95
3, 117120, Note_on_c, 2, 61, 95
3, 117120, Note_on_c, 2, 56, 95
3, 117120, Note_on_c, 2, 49, 95
3, 117600, Note_off_c, 2, 68, 95
3, 117600, Note_off_c, 2, 64, 95
3, 117600, Note_off_c, 2, 61, 95
3, 117600, Note_off_c, 2, 56, 95
3, 117600, Note_off_c, 2, 49, 95
3, 117600, Note_on_c, 2, 68, 95
3, 117600, Note_on_c, 2, 64, 95
3, 117600, Note_on_c, 2, 61, 95
3, 117600, Note_on_c, 2, 56, 95
3, 117600, Note_on_c, 2, 49, 95
3, 118080, Note_off_c, 2, 68, 95
3, 118080, Note_off_c, 2, 64, 95
3, 118080, Note_off_c, 2, 61, 95
3, 118080, Note_off_c, 2, 56, 95
3, 118080, Note_off_c, 2, 49, 95
3, 118080, Note_on_c, 2, 68, 95
3, 118080, Note_on_c, 2, 64, 95
3, 118080, Note_on_c, 2, 61, 95
3, 118080, Note_on_c, 2, 56, 95
3, 118080, Note_on_c, 2, 49, 95
3, 118560, Note_off_c, 2, 68, 95
3, 118560, Note_off_c, 2, 64, 95
3, 118560, Note_off_c, 2, 61, 95
3, 118560, Note_off_c, 2, 56, 95
3, 118560, Note_off_c, 2, 49, 95
3, 118560, Note_on_c, 2, 68, 95
3, 118560, Note_on_c, 2, 64, 95
3, 118560, Note_on_c, 2, 61, 95
3, 118560, Note_on_c, 2, 56, 95
3, 118560, Note_on_c, 2, 49, 95
3, 119040, Note_off_c, 2, 68, 95
3, 119040, Note_off_c, 2, 64, 95
3, 119040, Note_off_c, 2, 61, 95
3, 119040, Note_off_c, 2, 56, 95
3, 119040, Note_off_c, 2, 49, 95
3, 119040, Note_on_c, 2, 66, 95
3, 119040, Note_on_c, 2, 62, 95
3, 119040, Note_on_c, 2, 57, 95
3, 119040, Note_on_c, 2, 54, 95
3, 119040, Note_on_c, 2, 50, 95
3, 119520, Note_off_c, 2, 66, 95
3, 119520, Note_off_c, 2, 62, 95
3, 119520, Note_off_c, 2, 57, 95
3, 119520, Note_off_c, 2, 54, 95
3, 119520, Note_off_c, 2, 50, 95
3, 119520, Note_on_c, 2, 66, 95
3, 119520, Note_on_c, 2, 62, 95
3, 119520, Note_on_c, 2, 57, 95
3, 119520, Note_on_c, 2, 54, 95
3, 119520, Note_on_c, 2, 50, 95
3, 120000, Note_off_c, 2, 66, 95
3, 120000, Note_off_c, 2, 62, 95
3, 120000, Note_off_c, 2, 57, 95
3, 120000, Note_off_c, 2, 54, 95
3, 120000, Note_off_c, 2, 50, 95
3, 120000, Note_on_c, 2, 66, 95
3, 120000, Note_on_c, 2, 62, 95
3, 120000, Note_on_c, 2, 57, 95
3, 120000, Note_on_c, 2, 54, 95
3, 120000, Note_on_c, 2, 50, 95
3, 120480, Note_off_c, 2, 66, 95
3, 120480, Note_off_c, 2, 62, 95
3, 120480, Note_off_c, 2, 57, 95
3, 120480, Note_off_c, 2, 54, 95
3, 120480, Note_off_c, 2, 50, 95
3, 120480, Note_on_c, 2, 66, 95
3, 120480, Note_on_c, 2, 62, 95
3, 120480, Note_on_c, 2, 57, 95
3, 120480, Note_on_c, 2, 54, 95
3, 120480, Note_on_c, 2, 50, 95
3, 120960, Note_off_c, 2, 66, 95
3, 120960, Note_off_c, 2, 62, 95
3, 120960, Note_off_c, 2, 57, 95
3, 120960, Note_off_c, 2, 54, 95
3, 120960, Note_off_c, 2, 50, 95
3, 120960, Note_on_c, 2, 66, 95
3, 120960, Note_on_c, 2, 62, 95
3, 120960, Note_on_c, 2, 57, 95
3, 120960, Note_on_c, 2, 54, 95
3, 120960, Note_on_c, 2, 50, 95
3, 121440, Note_off_c, 2, 66, 95
3, 121440, Note_off_c, 2, 62, 95
3, 121440, Note_off_c, 2, 57, 95
3, 121440, Note_off_c, 2, 54, 95
3, 121440, Note_off_c, 2, 50, 95
3, 121440, Note_on_c, 2, 66, 95
3, 121440, Note_on_c, 2, 62, 95
3, 121440, Note_on_c, 2, 57, 95
3, 121440, Note_on_c, 2, 54, 95
3, 121440, Note_on_c, 2, 50, 95
3, 121920, Note_off_c, 2, 66, 95
3, 121920, Note_off_c, 2, 62, 95
3, 121920, Note_off_c, 2, 57, 95
3, 121920, Note_off_c, 2, 54, 95
3, 121920, Note_off_c, 2, 50, 95
3, 121920, Note_on_c, 2, 66, 95
3, 121920, Note_on_c, 2, 62, 95
3, 121920, Note_on_c, 2, 57, 95
3, 121920, Note_on_c, 2, 54, 95
3, 121920, Note_on_c, 2, 50, 95
3, 122400, Note_off_c, 2, 66, 95
3, 122400, Note_off_c, 2, 62, 95
3, 122400, Note_off_c, 2, 57, 95
3, 122400, Note_off_c, 2, 54, 95
3, 122400, Note_off_c, 2, 50, 95
3, 122400, Note_on_c, 2, 66, 95
3, 122400, Note_on_c, 2, 62, 95
3, 122400, Note_on_c, 2, 57, 95
3, 122400, Note_on_c, 2, 54, 95
3, 122400, Note_on_c, 2, 50, 95
3, 122880, Note_off_c, 2, 66, 95
3, 122880, Note_off_c, 2, 62, 95
3, 122880, Note_off_c, 2, 57, 95
3, 122880, Note_off_c, 2, 54, 95
3, 122880, Note_off_c, 2, 50, 95
3, 122880, Note_on_c, 2, 66, 95
3, 122880, Note_on_c, 2, 62, 95
3, 122880, Note_on_c, 2, 57, 95
3, 122880, Note_on_c, 2, 54, 95
3, 122880, Note_on_c, 2, 50, 95
3, 123360, Note_off_c, 2, 66, 95
3, 123360, Note_off_c, 2, 62, 95
3, 123360, Note_off_c, 2, 57, 95
3, 123360, Note_off_c, 2, 54, 95
3, 123360, Note_off_c, 2, 50, 95
3, 123360, Note_on_c, 2, 66, 95
3, 123360, Note_on_c, 2, 62, 95
3, 123360, Note_on_c, 2, 57, 95
3, 123360, Note_on_c, 2, 54, 95
3, 123360, Note_on_c, 2, 50, 95
3, 123840, Note_off_c, 2, 66, 95
3, 123840, Note_off_c, 2, 62, 95
3, 123840, Note_off_c, 2, 57, 95
3, 123840, Note_off_c, 2, 54, 95
3, 123840, Note_off_c, 2, 50, 95
3, 123840, Note_on_c, 2, 66, 95
3, 123840, Note_on_c, 2, 62, 95
3, 123840, Note_on_c, 2, 57, 95
3, 123840, Note_on_c, 2, 54, 95
3, 123840, Note_on_c, 2, 50, 95
3, 124320, Note_off_c, 2, 66, 95
3, 124320, Note_off_c, 2, 62, 95
3, 124320, Note_off_c, 2, 57, 95
3, 124320, Note_off_c, 2, 54, 95
3, 124320, Note_off_c, 2, 50, 95
3, 124320, Note_on_c, 2, 66, 95
3, 124320, Note_on_c, 2, 62, 95
3, 124320, Note_on_c, 2, 57, 95
3, 124320, Note_on_c, 2, 54, 95
3, 124320, Note_on_c, 2, 50, 95
3, 124800, Note_off_c, 2, 66, 95
3, 124800, Note_off_c, 2, 62, 95
3, 124800, Note_off_c, 2, 57, 95
3, 124800, Note_off_c, 2, 54, 95
3, 124800, Note_off_c, 2, 50, 95
3, 124800, Note_on_c, 2, 66, 95
3, 124800, Note_on_c, 2, 62, 95
3, 124800, Note_on_c, 2, 57, 95
3, 124800, Note_on_c, 2, 54, 95
3, 124800, Note_on_c, 2, 50, 95
3, 125280, Note_off_c, 2, 66, 95
3, 125280, Note_off_c, 2, 62, 95
3, 125280, Note_off_c, 2, 57, 95
3, 125280, Note_off_c, 2, 54, 95
3, 125280, Note_off_c, 2, 50, 95
3, 125280, Note_on_c, 2, 66, 95
3, 125280, Note_on_c, 2, 62, 95
3, 125280, Note_on_c, 2, 57, 95
3, 125280, Note_on_c, 2, 54, 95
3, 125280, Note_on_c, 2, 50, 95
3, 125760, Note_off_c, 2, 66, 95
3, 125760, Note_off_c, 2, 62, 95
3, 125760, Note_off_c, 2, 57, 95
3, 125760, Note_off_c, 2, 54, 95
3, 125760, Note_off_c, 2, 50, 95
3, 125760, Note_on_c, 2, 66, 95
3, 125760, Note_on_c, 2, 62, 95
3, 125760, Note_on_c, 2, 57, 95
3, 125760, Note_on_c, 2, 54, 95
3, 125760, Note_on_c, 2, 50, 95
3, 126240, Note_off_c, 2, 66, 95
3, 126240, Note_off_c, 2, 62, 95
3, 126240, Note_off_c, 2, 57, 95
3, 126240, Note_off_c, 2, 54, 95
3, 126240, Note_off_c, 2, 50, 95
3, 126240, Note_on_c, 2, 66, 95
3, 126240, Note_on_c, 2, 62, 95
3, 126240, Note_on_c, 2, 57, 95
3, 126240, Note_on_c, 2, 54, 95
3, 126240, Note_on_c, 2, 50, 95
3, 126720, Note_off_c, 2, 66, 95
3, 126720, Note_off_c, 2, 62, 95
3, 126720, Note_off_c, 2, 57, 95
3, 126720, Note_off_c, 2, 54, 95
3, 126720, Note_off_c, 2, 50, 95
3, 126720, Note_on_c, 2, 68, 95
3, 126720, Note_on_c, 2, 64, 95
3, 126720, Note_on_c, 2, 59, 95
3, 126720, Note_on_c, 2, 52, 95
3, 127200, Note_off_c, 2, 68, 95
3, 127200, Note_off_c, 2, 64, 95
3, 127200, Note_off_c, 2, 59, 95
3, 127200, Note_off_c, 2, 52, 95
3, 127200, Note_on_c, 2, 68, 95
3, 127200, Note_on_c, 2, 64, 95
3, 127200, Note_on_c, 2, 59, 95
3, 127200, Note_on_c, 2, 52, 95
3, 127680, Note_off_c, 2, 68, 95
3, 127680, Note_off_c, 2, 64, 95
3, 127680, Note_off_c, 2, 59, 95
3, 127680, Note_off_c, 2, 52, 95
3, 127680, Note_on_c, 2, 68, 95
3, 127680, Note_on_c, 2, 64, 95
3, 127680, Note_on_c, 2, 59, 95
3, 127680, Note_on_c, 2, 52, 95
3, 128160, Note_off_c, 2, 68, 95
3, 128160, Note_off_c, 2, 64, 95
3, 128160, Note_off_c, 2, 59, 95
3, 128160, Note_off_c, 2, 52, 95
3, 128160, Note_on_c, 2, 68, 95
3, 128160, Note_on_c, 2, 64, 95
3, 128160, Note_on_c, 2, 59, 95
3, 128160, Note_on_c, 2, 52, 95
3, 128640, Note_off_c, 2, 68, 95
3, 128640, Note_off_c, 2, 64, 95
3, 128640, Note_off_c, 2, 59, 95
3, 128640, Note_off_c, 2, 52, 95
3, 128640, Note_on_c, 2, 68, 95
3, 128640, Note_on_c, 2, 64, 95
3, 128640, Note_on_c, 2, 59, 95
3, 128640, Note_on_c, 2, 52, 95
3, 129120, Note_off_c, 2, 68, 95
3, 129120, Note_off_c, 2, 64, 95
3, 129120, Note_off_c, 2, 59, 95
3, 129120, Note_off_c, 2, 52, 95
3, 129120, Note_on_c, 2, 68, 95
3, 129120, Note_on_c, 2, 64, 95
3, 129120, Note_on_c, 2, 59, 95
3, 129120, Note_on_c, 2, 52, 95
3, 129600, Note_off_c, 2, 68, 95
3, 129600, Note_off_c, 2, 64, 95
3, 129600, Note_off_c, 2, 59, 95
3, 129600, Note_off_c, 2, 52, 95
3, 129600, Note_on_c, 2, 68, 95
3, 129600, Note_on_c, 2, 64, 95
3, 129600, Note_on_c, 2, 59, 95
3, 129600, Note_on_c, 2, 52, 95
3, 130080, Note_off_c, 2, 68, 95
3, 130080, Note_off_c, 2, 64, 95
3, 130080, Note_off_c, 2, 59, 95
3, 130080, Note_off_c, 2, 52, 95
3, 130080, Note_on_c, 2, 68, 95
3, 130080, Note_on_c, 2, 64, 95
3, 130080, Note_on_c, 2, 59, 95
3, 130080, Note_on_c, 2, 52, 95
3, 130560, Note_off_c, 2, 68, 95
3, 130560, Note_off_c, 2, 64, 95
3, 130560, Note_off_c, 2, 59, 95
3, 130560, Note_off_c, 2, 52, 95
3, 130560, Note_on_c, 2, 68, 95
3, 130560, Note_on_c, 2, 64, 95
3, 130560, Note_on_c, 2, 59, 95
3, 130560, Note_on_c, 2, 52, 95
3, 131040, Note_off_c, 2, 68, 95
3, 131040, Note_off_c, 2, 64, 95
3, 131040, Note_off_c, 2, 59, 95
3, 131040, Note_off_c, 2, 52, 95
3, 131040, Note_on_c, 2, 68, 95
3, 131040, Note_on_c, 2, 64, 95
3, 131040, Note_on_c, 2, 59, 95
3, 131040, Note_on_c, 2, 52, 95
3, 131520, Note_off_c, 2, 68, 95
3, 131520, Note_off_c, 2, 64, 95
3, 131520, Note_off_c, 2, 59, 95
3, 131520, Note_off_c, 2, 52, 95
3, 131520, Note_on_c, 2, 68, 95
3, 131520, Note_on_c, 2, 64, 95
3, 131520, Note_on_c, 2, 59, 95
3, 131520, Note_on_c, 2, 52, 95
3, 132000, Note_off_c, 2, 68, 95
3, 132000, Note_off_c, 2, 64, 95
3, 132000, Note_off_c, 2, 59, 95
3, 132000, Note_off_c, 2, 52, 95
3, 132000, Note_on_c, 2, 68, 95
3, 132000, Note_on_c, 2, 64, 95
3, 132000, Note_on_c, 2, 59, 95
3, 132000, Note_on_c, 2, 52, 95
3, 132480, Note_off_c, 2, 68, 95
3, 132480, Note_off_c, 2, 64, 95
3, 132480, Note_off_c, 2, 59, 95
3, 132480, Note_off_c, 2, 52, 95
3, 132480, Note_on_c, 2, 68, 95
3, 132480, Note_on_c, 2, 64, 95
3, 132480, Note_on_c, 2, 59, 95
3, 132480, Note_on_c, 2, 52, 95
3, 132960, Note_off_c, 2, 68, 95
3, 132960, Note_off_c, 2, 64, 95
3, 132960, Note_off_c, 2, 59, 95
3, 132960, Note_off_c, 2, 52, 95
3, 132960, Note_on_c, 2, 68, 95
3, 132960, Note_on_c, 2, 64, 95
3, 132960, Note_on_c, 2, 59, 95
3, 132960, Note_on_c, 2, 52, 95
3, 133440, Note_off_c, 2, 68, 95
3, 133440, Note_off_c, 2, 64, 95
3, 133440, Note_off_c, 2, 59, 95
3, 133440, Note_off_c, 2, 52, 95
3, 133440, Note_on_c, 2, 68, 95
3, 133440, Note_on_c, 2, 64, 95
3, 133440, Note_on_c, 2, 59, 95
3, 133440, Note_on_c, 2, 52, 95
3, 133920, Note_off_c, 2, 68, 95
3, 133920, Note_off_c, 2, 64, 95
3, 133920, Note_off_c, 2, 59, 95
3, 133920, Note_off_c, 2, 52, 95
3, 133920, Note_on_c, 2, 68, 95
3, 133920, Note_on_c, 2, 64, 95
3, 133920, Note_on_c, 2, 59, 95
3, 133920, Note_on_c, 2, 52, 95
3, 134400, Note_off_c, 2, 68, 95
3, 134400, Note_off_c, 2, 64, 95
3, 134400, Note_off_c, 2, 59, 95
3, 134400, Note_off_c, 2, 52, 95
3, 134400, Note_on_c, 2, 69, 95
3, 134400, Note_on_c, 2, 61, 95
3, 134400, Note_on_c, 2, 57, 95
3, 134400, Note_on_c, 2, 52, 95
3, 134400, Note_on_c, 2, 49, 95
3, 134400, Note_on_c, 2, 45, 95
3, 135360, Note_off_c, 2, 69, 95
3, 135360, Note_off_c, 2, 61, 95
3, 135360, Note_off_c, 2, 57, 95
3, 135360, Note_off_c, 2, 52, 95
3, 135360, Note_off_c, 2, 49, 95
3, 135360, Note_off_c, 2, 45, 95
3, 135360, Note_on_c, 2, 69, 95
3, 135360, Note_on_c, 2, 61, 95
3, 135360, Note_on_c, 2, 57, 95
3, 135360, Note_on_c, 2, 52, 95
3, 135360, Note_on_c, 2, 49, 95
3, 135360, Note_on_c, 2, 45, 95
3, 135840, Note_off_c, 2, 69, 95
3, 135840, Note_off_c, 2, 61, 95
3, 135840, Note_off_c, 2, 57, 95
3, 135840, Note_off_c, 2, 52, 95
3, 135840, Note_off_c, 2, 49, 95
3, 135840, Note_off_c, 2, 45, 95
3, 135840, Note_on_c, 2, 69, 95
3, 135840, Note_on_c, 2, 61, 95
3, 135840, Note_on_c, 2, 57, 95
3, 135840, Note_on_c, 2, 52, 95
3, 135840, Note_on_c, 2, 49, 95
3, 135840, Note_on_c, 2, 45, 95
3, 136320, Note_off_c, 2, 69, 95
3, 136320, Note_off_c, 2, 61, 95
3, 136320, Note_off_c, 2, 57, 95
3, 136320, Note_off_c, 2, 52, 95
3, 136320, Note_off_c, 2, 49, 95
3, 136320, Note_off_c, 2, 45, 95
3, 136320, Note_on_c, 2, 66, 95
3, 136320, Note_on_c, 2, 62, 95
3, 136320, Note_on_c, 2, 57, 95
3, 136320, Note_on_c, 2, 54, 95
3, 136320, Note_on_c, 2, 50, 95
3, 137280, Note_off_c, 2, 66, 95
3, 137280, Note_off_c, 2, 62, 95
3, 137280, Note_off_c, 2, 57, 95
3, 137280, Note_off_c, 2, 54, 95
3, 137280, Note_off_c, 2, 50, 95
3, 137280, Note_on_c, 2, 66, 95
3, 137280, Note_on_c, 2, 62, 95
3, 137280, Note_on_c, 2, 57, 95
3, 137280, Note_on_c, 2, 54, 95
3, 137280, Note_on_c, 2, 50, 95
3, 137760, Note_off_c, 2, 66, 95
3, 137760, Note_off_c, 2, 62, 95
3, 137760, Note_off_c, 2, 57, 95
3, 137760, Note_off_c, 2, 54, 95
3, 137760, Note_off_c, 2, 50, 95
3, 137760, Note_on_c, 2, 66, 95
3, 137760, Note_on_c, 2, 61, 95
3, 137760, Note_on_c, 2, 57, 95
3, 137760, Note_on_c, 2, 52, 95
3, 138240, Note_off_c, 2, 66, 95
3, 138240, Note_off_c, 2, 61, 95
3, 138240, Note_off_c, 2, 57, 95
3, 138240, Note_off_c, 2, 52, 95
3, 138240, Note_on_c, 2, 69, 95
3, 138240, Note_on_c, 2, 61, 95
3, 138240, Note_on_c, 2, 57, 95
3, 138240, Note_on_c, 2, 52, 95
3, 138240, Note_on_c, 2, 49, 95
3, 138240, Note_on_c, 2, 45, 95
3, 139200, Note_off_c, 2, 69, 95
3, 139200, Note_off_c, 2, 61, 95
3, 139200, Note_off_c, 2, 57, 95
3, 139200, Note_off_c, 2, 52, 95
3, 139200, Note_off_c, 2, 49, 95
3, 139200, Note_off_c, 2, 45, 95
3, 139200, Note_on_c, 2, 69, 95
3, 139200, Note_on_c, 2, 61, 95
3, 139200, Note_on_c, 2, 57, 95
3, 139200, Note_on_c, 2, 52, 95
3, 139200, Note_on_c, 2, 49, 95
3, 139200, Note_on_c, 2, 45, 95
3, 139680, Note_off_c, 2, 69, 95
3, 139680, Note_off_c, 2, 61, 95
3, 139680, Note_off_c, 2, 57, 95
3, 139680, Note_off_c, 2, 52, 95
3, 139680, Note_off_c, 2, 49, 95
3, 139680, Note_off_c, 2, 45, 95
3, 139680, Note_on_c, 2, 69, 95
3, 139680, Note_on_c, 2, 61, 95
3, 139680, Note_on_c, 2, 57, 95
3, 139680, Note_on_c, 2, 52, 95
3, 139680, Note_on_c, 2, 49, 95
3, 139680, Note_on_c, 2, 45, 95
3, 140160, Note_off_c, 2, 69, 95
3, 140160, Note_off_c, 2, 61, 95
3, 140160, Note_off_c, 2, 57, 95
3, 140160, Note_off_c, 2, 52, 95
3, 140160, Note_off_c, 2, 49, 95
3, 140160, Note_off_c, 2, 45, 95
3, 140160, Note_on_c, 2, 66, 95
3, 140160, Note_on_c, 2, 62, 95
3, 140160, Note_on_c, 2, 57, 95
3, 140160, Note_on_c, 2, 54, 95
3, 140160, Note_on_c, 2, 50, 95
3, 140640, Note_off_c, 2, 66, 95
3, 140640, Note_off_c, 2, 62, 95
3, 140640, Note_off_c, 2, 57, 95
3, 140640, Note_off_c, 2, 54, 95
3, 140640, Note_off_c, 2, 50, 95
3, 140640, Note_on_c, 2, 52, 95
3, 141120, Note_off_c, 2, 52, 95
3, 141120, Note_on_c, 2, 54, 70
3, 141600, Note_off_c, 2, 54, 70
3, 141600, Note_on_c, 2, 57, 95
3, 142080, Note_off_c, 2, 57, 95
3, 142080, Note_on_c, 2, 69, 95
3, 142080, Note_on_c, 2, 61, 95
3, 142080, Note_on_c, 2, 57, 95
3, 142080, Note_on_c, 2, 52, 95
3, 142080, Note_on_c, 2, 49, 95
3, 142080, Note_on_c, 2, 45, 95
3, 143040, Note_off_c, 2, 69, 95
3, 143040, Note_off_c, 2, 61, 95
3, 143040, Note_off_c, 2, 57, 95
3, 143040, Note_off_c, 2, 52, 95
3, 143040, Note_off_c, 2, 49, 95
3, 143040, Note_off_c, 2, 45, 95
3, 143040, Note_on_c, 2, 69, 95
3, 143040, Note_on_c, 2, 61, 95
3, 143040, Note_on_c, 2, 57, 95
3, 143040, Note_on_c, 2, 52, 95
3, 143040, Note_on_c, 2, 49, 95
3, 143040, Note_on_c, 2, 45, 95
3, 143520, Note_off_c, 2, 69, 95
3, 143520, Note_off_c, 2, 61, 95
3, 143520, Note_off_c, 2, 57, 95
3, 143520, Note_off_c, 2, 52, 95
3, 143520, Note_off_c, 2, 49, 95
3, 143520, Note_off_c, 2, 45, 95
3, 143520, Note_on_c, 2, 69, 95
3, 143520, Note_on_c, 2, 61, 95
3, 143520, Note_on_c, 2, 57, 95
3, 143520, Note_on_c, 2, 52, 95
3, 143520, Note_on_c, 2, 49, 95
3, 143520, Note_on_c, 2, 45, 95
3, 144000, Note_off_c, 2, 69, 95
3, 144000, Note_off_c, 2, 61, 95
3, 144000, Note_off_c, 2, 57, 95
3, 144000, Note_off_c, 2, 52, 95
3, 144000, Note_off_c, 2, 49, 95
3, 144000, Note_off_c, 2, 45, 95
3, 144000, Note_on_c, 2, 66, 95
3, 144000, Note_on_c, 2, 62, 95
3, 144000, Note_on_c, 2, 57, 95
3, 144000, Note_on_c, 2, 54, 95
3, 144000, Note_on_c, 2, 50, 95
3, 144960, Note_off_c, 2, 66, 95
3, 144960, Note_off_c, 2, 62, 95
3, 144960, Note_off_c, 2, 57, 95
3, 144960, Note_off_c, 2, 54, 95
3, 144960, Note_off_c, 2, 50, 95
3, 144960, Note_on_c, 2, 66, 95
3, 144960, Note_on_c, 2, 62, 95
3, 144960, Note_on_c, 2, 57, 95
3, 144960, Note_on_c, 2, 54, 95
3, 144960, Note_on_c, 2, 50, 95
3, 145440, Note_off_c, 2, 66, 95
3, 145440, Note_off_c, 2, 62, 95
3, 145440, Note_off_c, 2, 57, 95
3, 145440, Note_off_c, 2, 54, 95
3, 145440, Note_off_c, 2, 50, 95
3, 145440, Note_on_c, 2, 66, 95
3, 145440, Note_on_c, 2, 61, 95
3, 145440, Note_on_c, 2, 57, 95
3, 145440, Note_on_c, 2, 52, 95
3, 145920, Note_off_c, 2, 66, 95
3, 145920, Note_off_c, 2, 61, 95
3, 145920, Note_off_c, 2, 57, 95
3, 145920, Note_off_c, 2, 52, 95
3, 145920, Note_on_c, 2, 69, 95
3, 145920, Note_on_c, 2, 61, 95
3, 145920, Note_on_c, 2, 57, 95
3, 145920, Note_on_c, 2, 52, 95
3, 145920, Note_on_c, 2, 49, 95
3, 145920, Note_on_c, 2, 45, 95
3, 146880, Note_off_c, 2, 69, 95
3, 146880, Note_off_c, 2, 61, 95
3, 146880, Note_off_c, 2, 57, 95
3, 146880, Note_off_c, 2, 52, 95
3, 146880, Note_off_c, 2, 49, 95
3, 146880, Note_off_c, 2, 45, 95
3, 146880, Note_on_c, 2, 69, 95
3, 146880, Note_on_c, 2, 61, 95
3, 146880, Note_on_c, 2, 57, 95
3, 146880, Note_on_c, 2, 52, 95
3, 146880, Note_on_c, 2, 49, 95
3, 146880, Note_on_c, 2, 45, 95
3, 147360, Note_off_c, 2, 69, 95
3, 147360, Note_off_c, 2, 61, 95
3, 147360, Note_off_c, 2, 57, 95
3, 147360, Note_off_c, 2, 52, 95
3, 147360, Note_off_c, 2, 49, 95
3, 147360, Note_off_c, 2, 45, 95
3, 147360, Note_on_c, 2, 69, 95
3, 147360, Note_on_c, 2, 61, 95
3, 147360, Note_on_c, 2, 57, 95
3, 147360, Note_on_c, 2, 52, 95
3, 147360, Note_on_c, 2, 49, 95
3, 147360, Note_on_c, 2, 45, 95
3, 147840, Note_off_c, 2, 69, 95
3, 147840, Note_off_c, 2, 61, 95
3, 147840, Note_off_c, 2, 57, 95
3, 147840, Note_off_c, 2, 52, 95
3, 147840, Note_off_c, 2, 49, 95
3, 147840, Note_off_c, 2, 45, 95
3, 147840, Note_on_c, 2, 66, 95
3, 147840, Note_on_c, 2, 62, 95
3, 147840, Note_on_c, 2, 57, 95
3, 147840, Note_on_c, 2, 54, 95
3, 147840, Note_on_c, 2, 50, 95
3, 148320, Note_off_c, 2, 66, 95
3, 148320, Note_off_c, 2, 62, 95
3, 148320, Note_off_c, 2, 57, 95
3, 148320, Note_off_c, 2, 54, 95
3, 148320, Note_off_c, 2, 50, 95
3, 148320, Note_on_c, 2, 52, 95
3, 148800, Note_off_c, 2, 52, 95
3, 148800, Note_on_c, 2, 54, 70
3, 149280, Note_off_c, 2, 54, 70
3, 149280, Note_on_c, 2, 57, 95
3, 149760, Note_off_c, 2, 57, 95
3, 149760, Note_on_c, 2, 66, 95
3, 149760, Note_on_c, 2, 62, 95
3, 149760, Note_on_c, 2, 57, 95
3, 149760, Note_on_c, 2, 54, 95
3, 149760, Note_on_c, 2, 50, 95
3, 150720, Note_off_c, 2, 66, 95
3, 150720, Note_off_c, 2, 62, 95
3, 150720, Note_off_c, 2, 57, 95
3, 150720, Note_off_c, 2, 54, 95
3, 150720, Note_off_c, 2, 50, 95
3, 150720, Note_on_c, 2, 66, 95
3, 150720, Note_on_c, 2, 62, 95
3, 150720, Note_on_c, 2, 57, 95
3, 150720, Note_on_c, 2, 54, 95
3, 150720, Note_on_c, 2, 50, 95
3, 151200, Note_off_c, 2, 66, 95
3, 151200, Note_off_c, 2, 62, 95
3, 151200, Note_off_c, 2, 57, 95
3, 151200, Note_off_c, 2, 54, 95
3, 151200, Note_off_c, 2, 50, 95
3, 151200, Note_on_c, 2, 66, 95
3, 151200, Note_on_c, 2, 62, 95
3, 151200, Note_on_c, 2, 57, 95
3, 151200, Note_on_c, 2, 54, 95
3, 151200, Note_on_c, 2, 50, 95
3, 151680, Note_off_c, 2, 66, 95
3, 151680, Note_off_c, 2, 62, 95
3, 151680, Note_off_c, 2, 57, 95
3, 151680, Note_off_c, 2, 54, 95
3, 151680, Note_off_c, 2, 50, 95
3, 151680, Note_on_c, 2, 67, 95
3, 151680, Note_on_c, 2, 62, 95
3, 151680, Note_on_c, 2, 59, 95
3, 151680, Note_on_c, 2, 55, 95
3, 151680, Note_on_c, 2, 50, 95
3, 151680, Note_on_c, 2, 43, 95
3, 152160, Note_off_c, 2, 67, 95
3, 152160, Note_off_c, 2, 62, 95
3, 152160, Note_off_c, 2, 59, 95
3, 152160, Note_off_c, 2, 55, 95
3, 152160, Note_off_c, 2, 50, 95
3, 152160, Note_off_c, 2, 43, 95
3, 152160, Note_on_c, 2, 67, 95
3, 152160, Note_on_c, 2, 62, 95
3, 152160, Note_on_c, 2, 59, 95
3, 152160, Note_on_c, 2, 55, 95
3, 152160, Note_on_c, 2, 50, 95
3, 152160, Note_on_c, 2, 43, 95
3, 152640, Note_off_c, 2, 67, 95
3, 152640, Note_off_c, 2, 62, 95
3, 152640, Note_off_c, 2, 59, 95
3, 152640, Note_off_c, 2, 55, 95
3, 152640, Note_off_c, 2, 50, 95
3, 152640, Note_off_c, 2, 43, 95
3, 152640, Note_on_c, 2, 67, 95
3, 152640, Note_on_c, 2, 62, 95
3, 152640, Note_on_c, 2, 59, 95
3, 152640, Note_on_c, 2, 55, 95
3, 152640, Note_on_c, 2, 50, 95
3, 152640, Note_on_c, 2, 43, 95
3, 153120, Note_off_c, 2, 67, 95
3, 153120, Note_off_c, 2, 62, 95
3, 153120, Note_off_c, 2, 59, 95
3, 153120, Note_off_c, 2, 55, 95
3, 153120, Note_off_c, 2, 50, 95
3, 153120, Note_off_c, 2, 43, 95
3, 153120, Note_on_c, 2, 67, 95
3, 153120, Note_on_c, 2, 62, 95
3, 153120, Note_on_c, 2, 59, 95
3, 153120, Note_on_c, 2, 55, 95
3, 153120, Note_on_c, 2, 50, 95
3, 153120, Note_on_c, 2, 43, 95
3, 153177, Note_off_c, 2, 67, 95
3, 153177, Note_off_c, 2, 62, 95
3, 153177, Note_off_c, 2, 59, 95
3, 153177, Note_off_c, 2, 55, 95
3, 153177, Note_off_c, 2, 50, 95
3, 153177, Note_off_c, 2, 43, 95
3, 153600, Note_on_c, 2, 66, 95
3, 153600, Note_on_c, 2, 62, 95
3, 153600, Note_on_c, 2, 57, 95
3, 153600, Note_on_c, 2, 54, 95
3, 153600, Note_on_c, 2, 50, 95
3, 154560, Note_off_c, 2, 66, 95
3, 154560, Note_off_c, 2, 62, 95
3, 154560, Note_off_c, 2, 57, 95
3, 154560, Note_off_c, 2, 54, 95
3, 154560, Note_off_c, 2, 50, 95
3, 154560, Note_on_c, 2, 66, 95
3, 154560, Note_on_c, 2, 62, 95
3, 154560, Note_on_c, 2, 57, 95
3, 154560, Note_on_c, 2, 54, 95
3, 154560, Note_on_c, 2, 50, 95
3, 155040, Note_off_c, 2, 66, 95
3, 155040, Note_off_c, 2, 62, 95
3, 155040, Note_off_c, 2, 57, 95
3, 155040, Note_off_c, 2, 54, 95
3, 155040, Note_off_c, 2, 50, 95
3, 155040, Note_on_c, 2, 66, 95
3, 155040, Note_on_c, 2, 62, 95
3, 155040, Note_on_c, 2, 57, 95
3, 155040, Note_on_c, 2, 54, 95
3, 155040, Note_on_c, 2, 50, 95
3, 155520, Note_off_c, 2, 66, 95
3, 155520, Note_off_c, 2, 62, 95
3, 155520, Note_off_c, 2, 57, 95
3, 155520, Note_off_c, 2, 54, 95
3, 155520, Note_off_c, 2, 50, 95
3, 155520, Note_on_c, 2, 67, 95
3, 155520, Note_on_c, 2, 62, 95
3, 155520, Note_on_c, 2, 59, 95
3, 155520, Note_on_c, 2, 55, 95
3, 155520, Note_on_c, 2, 50, 95
3, 155520, Note_on_c, 2, 43, 95
3, 156000, Note_off_c, 2, 67, 95
3, 156000, Note_off_c, 2, 62, 95
3, 156000, Note_off_c, 2, 59, 95
3, 156000, Note_off_c, 2, 55, 95
3, 156000, Note_off_c, 2, 50, 95
3, 156000, Note_off_c, 2, 43, 95
3, 156000, Note_on_c, 2, 67, 95
3, 156000, Note_on_c, 2, 62, 95
3, 156000, Note_on_c, 2, 59, 95
3, 156000, Note_on_c, 2, 55, 95
3, 156000, Note_on_c, 2, 50, 95
3, 156000, Note_on_c, 2, 43, 95
3, 156480, Note_off_c, 2, 67, 95
3, 156480, Note_off_c, 2, 62, 95
3, 156480, Note_off_c, 2, 59, 95
3, 156480, Note_off_c, 2, 55, 95
3, 156480, Note_off_c, 2, 50, 95
3, 156480, Note_off_c, 2, 43, 95
3, 156480, Note_on_c, 2, 67, 95
3, 156480, Note_on_c, 2, 62, 95
3, 156480, Note_on_c, 2, 59, 95
3, 156480, Note_on_c, 2, 55, 95
3, 156480, Note_on_c, 2, 50, 95
3, 156480, Note_on_c, 2, 43, 95
3, 156960, Note_off_c, 2, 67, 95
3, 156960, Note_off_c, 2, 62, 95
3, 156960, Note_off_c, 2, 59, 95
3, 156960, Note_off_c, 2, 55, 95
3, 156960, Note_off_c, 2, 50, 95
3, 156960, Note_off_c, 2, 43, 95
3, 156960, Note_on_c, 2, 67, 95
3, 156960, Note_on_c, 2, 62, 95
3, 156960, Note_on_c, 2, 59, 95
3, 156960, Note_on_c, 2, 55, 95
3, 156960, Note_on_c, 2, 50, 95
3, 156960, Note_on_c, 2, 43, 95
3, 157017, Note_off_c, 2, 67, 95
3, 157017, Note_off_c, 2, 62, 95
3, 157017, Note_off_c, 2, 59, 95
3, 157017, Note_off_c, 2, 55, 95
3, 157017, Note_off_c, 2, 50, 95
3, 157017, Note_off_c, 2, 43, 95
3, 157440, Note_on_c, 2, 69, 95
3, 157440, Note_on_c, 2, 64, 95
3, 157440, Note_on_c, 2, 57, 95
3, 157440, Note_on_c, 2, 52, 95
3, 157440, Note_on_c, 2, 49, 95
3, 157440, Note_on_c, 2, 45, 95
3, 158400, Note_off_c, 2, 69, 95
3, 158400, Note_off_c, 2, 64, 95
3, 158400, Note_off_c, 2, 57, 95
3, 158400, Note_off_c, 2, 52, 95
3, 158400, Note_off_c, 2, 49, 95
3, 158400, Note_off_c, 2, 45, 95
3, 158400, Note_on_c, 2, 69, 95
3, 158400, Note_on_c, 2, 64, 95
3, 158400, Note_on_c, 2, 57, 95
3, 158400, Note_on_c, 2, 52, 95
3, 158400, Note_on_c, 2, 49, 95
3, 158400, Note_on_c, 2, 45, 95
3, 158880, Note_off_c, 2, 69, 95
3, 158880, Note_off_c, 2, 64, 95
3, 158880, Note_off_c, 2, 57, 95
3, 158880, Note_off_c, 2, 52, 95
3, 158880, Note_off_c, 2, 49, 95
3, 158880, Note_off_c, 2, 45, 95
3, 158880, Note_on_c, 2, 69, 95
3, 158880, Note_on_c, 2, 64, 95
3, 158880, Note_on_c, 2, 57, 95
3, 158880, Note_on_c, 2, 52, 95
3, 158880, Note_on_c, 2, 49, 95
3, 158880, Note_on_c, 2, 45, 95
3, 159360, Note_off_c, 2, 69, 95
3, 159360, Note_off_c, 2, 64, 95
3, 159360, Note_off_c, 2, 57, 95
3, 159360, Note_off_c, 2, 52, 95
3, 159360, Note_off_c, 2, 49, 95
3, 159360, Note_off_c, 2, 45, 95
3, 159360, Note_on_c, 2, 66, 95
3, 159360, Note_on_c, 2, 62, 95
3, 159360, Note_on_c, 2, 57, 95
3, 159360, Note_on_c, 2, 54, 95
3, 159360, Note_on_c, 2, 50, 95
3, 159840, Note_off_c, 2, 66, 95
3, 159840, Note_off_c, 2, 62, 95
3, 159840, Note_off_c, 2, 57, 95
3, 159840, Note_off_c, 2, 54, 95
3, 159840, Note_off_c, 2, 50, 95
3, 159840, Note_on_c, 2, 66, 95
3, 159840, Note_on_c, 2, 62, 95
3, 159840, Note_on_c, 2, 57, 95
3, 159840, Note_on_c, 2, 54, 95
3, 159840, Note_on_c, 2, 50, 95
3, 160320, Note_off_c, 2, 66, 95
3, 160320, Note_off_c, 2, 62, 95
3, 160320, Note_off_c, 2, 57, 95
3, 160320, Note_off_c, 2, 54, 95
3, 160320, Note_off_c, 2, 50, 95
3, 160320, Note_on_c, 2, 66, 95
3, 160320, Note_on_c, 2, 62, 95
3, 160320, Note_on_c, 2, 57, 95
3, 160320, Note_on_c, 2, 54, 95
3, 160320, Note_on_c, 2, 50, 95
3, 160800, Note_off_c, 2, 66, 95
3, 160800, Note_off_c, 2, 62, 95
3, 160800, Note_off_c, 2, 57, 95
3, 160800, Note_off_c, 2, 54, 95
3, 160800, Note_off_c, 2, 50, 95
3, 160800, Note_on_c, 2, 66, 95
3, 160800, Note_on_c, 2, 62, 95
3, 160800, Note_on_c, 2, 57, 95
3, 160800, Note_on_c, 2, 54, 95
3, 160800, Note_on_c, 2, 50, 95
3, 161280, Note_off_c, 2, 66, 95
3, 161280, Note_off_c, 2, 62, 95
3, 161280, Note_off_c, 2, 57, 95
3, 161280, Note_off_c, 2, 54, 95
3, 161280, Note_off_c, 2, 50, 95
3, 161280, Note_on_c, 2, 69, 95
3, 161280, Note_on_c, 2, 64, 95
3, 161280, Note_on_c, 2, 57, 95
3, 161280, Note_on_c, 2, 52, 95
3, 161280, Note_on_c, 2, 49, 95
3, 161280, Note_on_c, 2, 45, 95
3, 162240, Note_off_c, 2, 69, 95
3, 162240, Note_off_c, 2, 64, 95
3, 162240, Note_off_c, 2, 57, 95
3, 162240, Note_off_c, 2, 52, 95
3, 162240, Note_off_c, 2, 49, 95
3, 162240, Note_off_c, 2, 45, 95
3, 162240, Note_on_c, 2, 69, 95
3, 162240, Note_on_c, 2, 64, 95
3, 162240, Note_on_c, 2, 57, 95
3, 162240, Note_on_c, 2, 52, 95
3, 162240, Note_on_c, 2, 49, 95
3, 162240, Note_on_c, 2, 45, 95
3, 162720, Note_off_c, 2, 69, 95
3, 162720, Note_off_c, 2, 64, 95
3, 162720, Note_off_c, 2, 57, 95
3, 162720, Note_off_c, 2, 52, 95
3, 162720, Note_off_c, 2, 49, 95
3, 162720, Note_off_c, 2, 45, 95
3, 162720, Note_on_c, 2, 69, 95
3, 162720, Note_on_c, 2, 64, 95
3, 162720, Note_on_c, 2, 57, 95
3, 162720, Note_on_c, 2, 52, 95
3, 162720, Note_on_c, 2, 49, 95
3, 162720, Note_on_c, 2, 45, 95
3, 163200, Note_off_c, 2, 69, 95
3, 163200, Note_off_c, 2, 64, 95
3, 163200, Note_off_c, 2, 57, 95
3, 163200, Note_off_c, 2, 52, 95
3, 163200, Note_off_c, 2, 49, 95
3, 163200, Note_off_c, 2, 45, 95
3, 163200, Note_on_c, 2, 66, 95
3, 163200, Note_on_c, 2, 62, 95
3, 163200, Note_on_c, 2, 57, 95
3, 163200, Note_on_c, 2, 54, 95
3, 163200, Note_on_c, 2, 50, 95
3, 163680, Note_off_c, 2, 66, 95
3, 163680, Note_off_c, 2, 62, 95
3, 163680, Note_off_c, 2, 57, 95
3, 163680, Note_off_c, 2, 54, 95
3, 163680, Note_off_c, 2, 50, 95
3, 163680, Note_on_c, 2, 66, 95
3, 163680, Note_on_c, 2, 62, 95
3, 163680, Note_on_c, 2, 57, 95
3, 163680, Note_on_c, 2, 54, 95
3, 163680, Note_on_c, 2, 50, 95
3, 164160, Note_off_c, 2, 66, 95
3, 164160, Note_off_c, 2, 62, 95
3, 164160, Note_off_c, 2, 57, 95
3, 164160, Note_off_c, 2, 54, 95
3, 164160, Note_off_c, 2, 50, 95
3, 164160, Note_on_c, 2, 66, 95
3, 164160, Note_on_c, 2, 62, 95
3, 164160, Note_on_c, 2, 57, 95
3, 164160, Note_on_c, 2, 54, 95
3, 164160, Note_on_c, 2, 50, 95
3, 164640, Note_off_c, 2, 66, 95
3, 164640, Note_off_c, 2, 62, 95
3, 164640, Note_off_c, 2, 57, 95
3, 164640, Note_off_c, 2, 54, 95
3, 164640, Note_off_c, 2, 50, 95
3, 164640, Note_on_c, 2, 66, 95
3, 164640, Note_on_c, 2, 62, 95
3, 164640, Note_on_c, 2, 57, 95
3, 164640, Note_on_c, 2, 54, 95
3, 164640, Note_on_c, 2, 50, 95
3, 165120, Note_off_c, 2, 66, 95
3, 165120, Note_off_c, 2, 62, 95
3, 165120, Note_off_c, 2, 57, 95
3, 165120, Note_off_c, 2, 54, 95
3, 165120, Note_off_c, 2, 50, 95
3, 165120, Note_on_c, 2, 68, 95
3, 165120, Note_on_c, 2, 64, 95
3, 165120, Note_on_c, 2, 59, 95
3, 165120, Note_on_c, 2, 52, 95
3, 166080, Note_off_c, 2, 68, 95
3, 166080, Note_off_c, 2, 64, 95
3, 166080, Note_off_c, 2, 59, 95
3, 166080, Note_off_c, 2, 52, 95
3, 166080, Note_on_c, 2, 68, 95
3, 166080, Note_on_c, 2, 64, 95
3, 166080, Note_on_c, 2, 59, 95
3, 166080, Note_on_c, 2, 52, 95
3, 167040, Note_off_c, 2, 68, 95
3, 167040, Note_off_c, 2, 64, 95
3, 167040, Note_off_c, 2, 59, 95
3, 167040, Note_off_c, 2, 52, 95
3, 167040, Note_on_c, 2, 68, 95
3, 167040, Note_on_c, 2, 64, 95
3, 167040, Note_on_c, 2, 59, 95
3, 167040, Note_on_c, 2, 52, 95
3, 168000, Note_off_c, 2, 68, 95
3, 168000, Note_off_c, 2, 64, 95
3, 168000, Note_off_c, 2, 59, 95
3, 168000, Note_off_c, 2, 52, 95
3, 168000, Note_on_c, 2, 69, 95
3, 168000, Note_on_c, 2, 64, 95
3, 168000, Note_on_c, 2, 59, 95
3, 168000, Note_on_c, 2, 52, 95
3, 168480, Note_off_c, 2, 69, 95
3, 168480, Note_off_c, 2, 64, 95
3, 168480, Note_off_c, 2, 59, 95
3, 168480, Note_off_c, 2, 52, 95
3, 168480, Note_on_c, 2, 69, 95
3, 168480, Note_on_c, 2, 64, 95
3, 168480, Note_on_c, 2, 59, 95
3, 168480, Note_on_c, 2, 52, 95
3, 169440, Note_off_c, 2, 69, 95
3, 169440, Note_off_c, 2, 64, 95
3, 169440, Note_off_c, 2, 59, 95
3, 169440, Note_off_c, 2, 52, 95
3, 169440, Note_on_c, 2, 69, 95
3, 169440, Note_on_c, 2, 64, 95
3, 169440, Note_on_c, 2, 59, 95
3, 169440, Note_on_c, 2, 52, 95
3, 170400, Note_off_c, 2, 69, 95
3, 170400, Note_off_c, 2, 64, 95
3, 170400, Note_off_c, 2, 59, 95
3, 170400, Note_off_c, 2, 52, 95
3, 170400, Note_on_c, 2, 69, 95
3, 170400, Note_on_c, 2, 64, 95
3, 170400, Note_on_c, 2, 59, 95
3, 170400, Note_on_c, 2, 52, 95
3, 170880, Note_off_c, 2, 69, 95
3, 170880, Note_off_c, 2, 64, 95
3, 170880, Note_off_c, 2, 59, 95
3, 170880, Note_off_c, 2, 52, 95
3, 170880, Note_on_c, 2, 68, 95
3, 170880, Note_on_c, 2, 64, 95
3, 170880, Note_on_c, 2, 59, 95
3, 170880, Note_on_c, 2, 52, 95
3, 171360, Note_off_c, 2, 68, 95
3, 171360, Note_off_c, 2, 64, 95
3, 171360, Note_off_c, 2, 59, 95
3, 171360, Note_off_c, 2, 52, 95
3, 171360, Note_on_c, 2, 68, 95
3, 171360, Note_on_c, 2, 64, 95
3, 171360, Note_on_c, 2, 59, 95
3, 171360, Note_on_c, 2, 52, 95
3, 171840, Note_off_c, 2, 68, 95
3, 171840, Note_off_c, 2, 64, 95
3, 171840, Note_off_c, 2, 59, 95
3, 171840, Note_off_c, 2, 52, 95
3, 171840, Note_on_c, 2, 68, 95
3, 171840, Note_on_c, 2, 64, 95
3, 171840, Note_on_c, 2, 59, 95
3, 171840, Note_on_c, 2, 52, 95
3, 172320, Note_off_c, 2, 68, 95
3, 172320, Note_off_c, 2, 64, 95
3, 172320, Note_off_c, 2, 59, 95
3, 172320, Note_off_c, 2, 52, 95
3, 172320, Note_on_c, 2, 66, 95
3, 172320, Note_on_c, 2, 61, 95
3, 172320, Note_on_c, 2, 57, 95
3, 172320, Note_on_c, 2, 52, 95
3, 172377, Note_off_c, 2, 66, 95
3, 172377, Note_off_c, 2, 61, 95
3, 172377, Note_off_c, 2, 57, 95
3, 172377, Note_off_c, 2, 52, 95
3, 172800, Note_on_c, 2, 66, 95
3, 172800, Note_on_c, 2, 62, 95
3, 172800, Note_on_c, 2, 57, 95
3, 172800, Note_on_c, 2, 54, 95
3, 172800, Note_on_c, 2, 50, 95
3, 173280, Note_off_c, 2, 66, 95
3, 173280, Note_off_c, 2, 62, 95
3, 173280, Note_off_c, 2, 57, 95
3, 173280, Note_off_c, 2, 54, 95
3, 173280, Note_off_c, 2, 50, 95
3, 173280, Note_on_c, 2, 66, 95
3, 173280, Note_on_c, 2, 62, 95
3, 173280, Note_on_c, 2, 57, 95
3, 173280, Note_on_c, 2, 54, 95
3, 173280, Note_on_c, 2, 50, 95
3, 173760, Note_off_c, 2, 66, 95
3, 173760, Note_off_c, 2, 62, 95
3, 173760, Note_off_c, 2, 57, 95
3, 173760, Note_off_c, 2, 54, 95
3, 173760, Note_off_c, 2, 50, 95
3, 174240, Note_on_c, 2, 66, 95
3, 174240, Note_on_c, 2, 62, 95
3, 174240, Note_on_c, 2, 57, 95
3, 174240, Note_on_c, 2, 54, 95
3, 174240, Note_on_c, 2, 50, 95
3, 174720, Note_off_c, 2, 66, 95
3, 174720, Note_off_c, 2, 62, 95
3, 174720, Note_off_c, 2, 57, 95
3, 174720, Note_off_c, 2, 54, 95
3, 174720, Note_off_c, 2, 50, 95
3, 174720, Note_on_c, 2, 66, 95
3, 174720, Note_on_c, 2, 62, 95
3, 174720, Note_on_c, 2, 57, 95
3, 174720, Note_on_c, 2, 54, 95
3, 174720, Note_on_c, 2, 50, 95
3, 175200, Note_off_c, 2, 66, 95
3, 175200, Note_off_c, 2, 62, 95
3, 175200, Note_off_c, 2, 57, 95
3, 175200, Note_off_c, 2, 54, 95
3, 175200, Note_off_c, 2, 50, 95
3, 175680, Note_on_c, 2, 66, 95
3, 175680, Note_on_c, 2, 62, 95
3, 175680, Note_on_c, 2, 57, 95
3, 175680, Note_on_c, 2, 54, 95
3, 175680, Note_on_c, 2, 50, 95
3, 176160, Note_off_c, 2, 66, 95
3, 176160, Note_off_c, 2, 62, 95
3, 176160, Note_off_c, 2, 57, 95
3, 176160, Note_off_c, 2, 54, 95
3, 176160, Note_off_c, 2, 50, 95
3, 176160, Note_on_c, 2, 66, 95
3, 176160, Note_on_c, 2, 62, 95
3, 176160, Note_on_c, 2, 57, 95
3, 176160, Note_on_c, 2, 54, 95
3, 176160, Note_on_c, 2, 50, 95
3, 176640, Note_off_c, 2, 66, 95
3, 176640, Note_off_c, 2, 62, 95
3, 176640, Note_off_c, 2, 57, 95
3, 176640, Note_off_c, 2, 54, 95
3, 176640, Note_off_c, 2, 50, 95
3, 178560, Note_on_c, 2, 64, 95
3, 178560, Note_on_c, 2, 57, 95
3, 178560, Note_on_c, 2, 52, 95
3, 178560, Note_on_c, 2, 49, 95
3, 179520, Note_off_c, 2, 64, 95
3, 179520, Note_off_c, 2, 57, 95
3, 179520, Note_off_c, 2, 52, 95
3, 179520, Note_off_c, 2, 49, 95
3, 179520, Note_on_c, 2, 64, 95
3, 179520, Note_on_c, 2, 57, 95
3, 179520, Note_on_c, 2, 52, 95
3, 179520, Note_on_c, 2, 49, 95
3, 180480, Note_off_c, 2, 64, 95
3, 180480, Note_off_c, 2, 57, 95
3, 180480, Note_off_c, 2, 52, 95
3, 180480, Note_off_c, 2, 49, 95
3, 180480, Note_on_c, 2, 69, 95
3, 180480, Note_on_c, 2, 61, 95
3, 180480, Note_on_c, 2, 57, 95
3, 180480, Note_on_c, 2, 52, 95
3, 180480, Note_on_c, 2, 49, 95
3, 180480, Note_on_c, 2, 45, 95
3, 181440, Note_off_c, 2, 69, 95
3, 181440, Note_off_c, 2, 61, 95
3, 181440, Note_off_c, 2, 57, 95
3, 181440, Note_off_c, 2, 52, 95
3, 181440, Note_off_c, 2, 49, 95
3, 181440, Note_off_c, 2, 45, 95
3, 181440, Note_on_c, 2, 69, 95
3, 181440, Note_on_c, 2, 61, 95
3, 181440, Note_on_c, 2, 57, 95
3, 181440, Note_on_c, 2, 52, 95
3, 181440, Note_on_c, 2, 49, 95
3, 181440, Note_on_c, 2, 45, 95
3, 181920, Note_off_c, 2, 69, 95
3, 181920, Note_off_c, 2, 61, 95
3, 181920, Note_off_c, 2, 57, 95
3, 181920, Note_off_c, 2, 52, 95
3, 181920, Note_off_c, 2, 49, 95
3, 181920, Note_off_c, 2, 45, 95
3, 181920, Note_on_c, 2, 69, 95
3, 181920, Note_on_c, 2, 61, 95
3, 181920, Note_on_c, 2, 57, 95
3, 181920, Note_on_c, 2, 52, 95
3, 181920, Note_on_c, 2, 49, 95
3, 181920, Note_on_c, 2, 45, 95
3, 182400, Note_off_c, 2, 69, 95
3, 182400, Note_off_c, 2, 61, 95
3, 182400, Note_off_c, 2, 57, 95
3, 182400, Note_off_c, 2, 52, 95
3, 182400, Note_off_c, 2, 49, 95
3, 182400, Note_off_c, 2, 45, 95
3, 182400, Note_on_c, 2, 66, 95
3, 182400, Note_on_c, 2, 62, 95
3, 182400, Note_on_c, 2, 57, 95
3, 182400, Note_on_c, 2, 54, 95
3, 182400, Note_on_c, 2, 50, 95
3, 183360, Note_off_c, 2, 66, 95
3, 183360, Note_off_c, 2, 62, 95
3, 183360, Note_off_c, 2, 57, 95
3, 183360, Note_off_c, 2, 54, 95
3, 183360, Note_off_c, 2, 50, 95
3, 183360, Note_on_c, 2, 66, 95
3, 183360, Note_on_c, 2, 62, 95
3, 183360, Note_on_c, 2, 57, 95
3, 183360, Note_on_c, 2, 54, 95
3, 183360, Note_on_c, 2, 50, 95
3, 183840, Note_off_c, 2, 66, 95
3, 183840, Note_off_c, 2, 62, 95
3, 183840, Note_off_c, 2, 57, 95
3, 183840, Note_off_c, 2, 54, 95
3, 183840, Note_off_c, 2, 50, 95
3, 183840, Note_on_c, 2, 66, 95
3, 183840, Note_on_c, 2, 61, 95
3, 183840, Note_on_c, 2, 57, 95
3, 183840, Note_on_c, 2, 52, 95
3, 184320, Note_off_c, 2, 66, 95
3, 184320, Note_off_c, 2, 61, 95
3, 184320, Note_off_c, 2, 57, 95
3, 184320, Note_off_c, 2, 52, 95
3, 184320, Note_on_c, 2, 69, 95
3, 184320, Note_on_c, 2, 61, 95
3, 184320, Note_on_c, 2, 57, 95
3, 184320, Note_on_c, 2, 52, 95
3, 184320, Note_on_c, 2, 49, 95
3, 184320, Note_on_c, 2, 45, 95
3, 185280, Note_off_c, 2, 69, 95
3, 185280, Note_off_c, 2, 61, 95
3, 185280, Note_off_c, 2, 57, 95
3, 185280, Note_off_c, 2, 52, 95
3, 185280, Note_off_c, 2, 49, 95
3, 185280, Note_off_c, 2, 45, 95
3, 185280, Note_on_c, 2, 69, 95
3, 185280, Note_on_c, 2, 61, 95
3, 185280, Note_on_c, 2, 57, 95
3, 185280, Note_on_c, 2, 52, 95
3, 185280, Note_on_c, 2, 49, 95
3, 185280, Note_on_c, 2, 45, 95
3, 185760, Note_off_c, 2, 69, 95
3, 185760, Note_off_c, 2, 61, 95
3, 185760, Note_off_c, 2, 57, 95
3, 185760, Note_off_c, 2, 52, 95
3, 185760, Note_off_c, 2, 49, 95
3, 185760, Note_off_c, 2, 45, 95
3, 185760, Note_on_c, 2, 69, 95
3, 185760, Note_on_c, 2, 61, 95
3, 185760, Note_on_c, 2, 57, 95
3, 185760, Note_on_c, 2, 52, 95
3, 185760, Note_on_c, 2, 49, 95
3, 185760, Note_on_c, 2, 45, 95
3, 186240, Note_off_c, 2, 69, 95
3, 186240, Note_off_c, 2, 61, 95
3, 186240, Note_off_c, 2, 57, 95
3, 186240, Note_off_c, 2, 52, 95
3, 186240, Note_off_c, 2, 49, 95
3, 186240, Note_off_c, 2, 45, 95
3, 186240, Note_on_c, 2, 66, 95
3, 186240, Note_on_c, 2, 62, 95
3, 186240, Note_on_c, 2, 57, 95
3, 186240, Note_on_c, 2, 54, 95
3, 186240, Note_on_c, 2, 50, 95
3, 186720, Note_off_c, 2, 66, 95
3, 186720, Note_off_c, 2, 62, 95
3, 186720, Note_off_c, 2, 57, 95
3, 186720, Note_off_c, 2, 54, 95
3, 186720, Note_off_c, 2, 50, 95
3, 186720, Note_on_c, 2, 52, 95
3, 187200, Note_off_c, 2, 52, 95
3, 187200, Note_on_c, 2, 54, 70
3, 187680, Note_off_c, 2, 54, 70
3, 187680, Note_on_c, 2, 57, 95
3, 188160, Note_off_c, 2, 57, 95
3, 188160, Note_on_c, 2, 69, 95
3, 188160, Note_on_c, 2, 61, 95
3, 188160, Note_on_c, 2, 57, 95
3, 188160, Note_on_c, 2, 52, 95
3, 188160, Note_on_c, 2, 49, 95
3, 188160, Note_on_c, 2, 45, 95
3, 189120, Note_off_c, 2, 69, 95
3, 189120, Note_off_c, 2, 61, 95
3, 189120, Note_off_c, 2, 57, 95
3, 189120, Note_off_c, 2, 52, 95
3, 189120, Note_off_c, 2, 49, 95
3, 189120, Note_off_c, 2, 45, 95
3, 189120, Note_on_c, 2, 69, 95
3, 189120, Note_on_c, 2, 61, 95
3, 189120, Note_on_c, 2, 57, 95
3, 189120, Note_on_c, 2, 52, 95
3, 189120, Note_on_c, 2, 49, 95
3, 189120, Note_on_c, 2, 45, 95
3, 189600, Note_off_c, 2, 69, 95
3, 189600, Note_off_c, 2, 61, 95
3, 189600, Note_off_c, 2, 57, 95
3, 189600, Note_off_c, 2, 52, 95
3, 189600, Note_off_c, 2, 49, 95
3, 189600, Note_off_c, 2, 45, 95
3, 189600, Note_on_c, 2, 69, 95
3, 189600, Note_on_c, 2, 61, 95
3, 189600, Note_on_c, 2, 57, 95
3, 189600, Note_on_c, 2, 52, 95
3, 189600, Note_on_c, 2, 49, 95
3, 189600, Note_on_c, 2, 45, 95
3, 190080, Note_off_c, 2, 69, 95
3, 190080, Note_off_c, 2, 61, 95
3, 190080, Note_off_c, 2, 57, 95
3, 190080, Note_off_c, 2, 52, 95
3, 190080, Note_off_c, 2, 49, 95
3, 190080, Note_off_c, 2, 45, 95
3, 190080, Note_on_c, 2, 66, 95
3, 190080, Note_on_c, 2, 62, 95
3, 190080, Note_on_c, 2, 57, 95
3, 190080, Note_on_c, 2, 54, 95
3, 190080, Note_on_c, 2, 50, 95
3, 191040, Note_off_c, 2, 66, 95
3, 191040, Note_off_c, 2, 62, 95
3, 191040, Note_off_c, 2, 57, 95
3, 191040, Note_off_c, 2, 54, 95
3, 191040, Note_off_c, 2, 50, 95
3, 191040, Note_on_c, 2, 66, 95
3, 191040, Note_on_c, 2, 62, 95
3, 191040, Note_on_c, 2, 57, 95
3, 191040, Note_on_c, 2, 54, 95
3, 191040, Note_on_c, 2, 50, 95
3, 191520, Note_off_c, 2, 66, 95
3, 191520, Note_off_c, 2, 62, 95
3, 191520, Note_off_c, 2, 57, 95
3, 191520, Note_off_c, 2, 54, 95
3, 191520, Note_off_c, 2, 50, 95
3, 191520, Note_on_c, 2, 66, 95
3, 191520, Note_on_c, 2, 61, 95
3, 191520, Note_on_c, 2, 57, 95
3, 191520, Note_on_c, 2, 52, 95
3, 192000, Note_off_c, 2, 66, 95
3, 192000, Note_off_c, 2, 61, 95
3, 192000, Note_off_c, 2, 57, 95
3, 192000, Note_off_c, 2, 52, 95
3, 192000, Note_on_c, 2, 69, 95
3, 192000, Note_on_c, 2, 61, 95
3, 192000, Note_on_c, 2, 57, 95
3, 192000, Note_on_c, 2, 52, 95
3, 192000, Note_on_c, 2, 49, 95
3, 192000, Note_on_c, 2, 45, 95
3, 192960, Note_off_c, 2, 69, 95
3, 192960, Note_off_c, 2, 61, 95
3, 192960, Note_off_c, 2, 57, 95
3, 192960, Note_off_c, 2, 52, 95
3, 192960, Note_off_c, 2, 49, 95
3, 192960, Note_off_c, 2, 45, 95
3, 192960, Note_on_c, 2, 69, 95
3, 192960, Note_on_c, 2, 61, 95
3, 192960, Note_on_c, 2, 57, 95
3, 192960, Note_on_c, 2, 52, 95
3, 192960, Note_on_c, 2, 49, 95
3, 192960, Note_on_c, 2, 45, 95
3, 193440, Note_off_c, 2, 69, 95
3, 193440, Note_off_c, 2, 61, 95
3, 193440, Note_off_c, 2, 57, 95
3, 193440, Note_off_c, 2, 52, 95
3, 193440, Note_off_c, 2, 49, 95
3, 193440, Note_off_c, 2, 45, 95
3, 193440, Note_on_c, 2, 69, 95
3, 193440, Note_on_c, 2, 61, 95
3, 193440, Note_on_c, 2, 57, 95
3, 193440, Note_on_c, 2, 52, 95
3, 193440, Note_on_c, 2, 49, 95
3, 193440, Note_on_c, 2, 45, 95
3, 193920, Note_off_c, 2, 69, 95
3, 193920, Note_off_c, 2, 61, 95
3, 193920, Note_off_c, 2, 57, 95
3, 193920, Note_off_c, 2, 52, 95
3, 193920, Note_off_c, 2, 49, 95
3, 193920, Note_off_c, 2, 45, 95
3, 193920, Note_on_c, 2, 66, 95
3, 193920, Note_on_c, 2, 62, 95
3, 193920, Note_on_c, 2, 57, 95
3, 193920, Note_on_c, 2, 54, 95
3, 193920, Note_on_c, 2, 50, 95
3, 194400, Note_off_c, 2, 66, 95
3, 194400, Note_off_c, 2, 62, 95
3, 194400, Note_off_c, 2, 57, 95
3, 194400, Note_off_c, 2, 54, 95
3, 194400, Note_off_c, 2, 50, 95
3, 194400, Note_on_c, 2, 52, 95
3, 194880, Note_off_c, 2, 52, 95
3, 194880, Note_on_c, 2, 54, 70
3, 195360, Note_off_c, 2, 54, 70
3, 195360, Note_on_c, 2, 57, 95
3, 195840, Note_off_c, 2, 57, 95
3, 195840, Note_on_c, 2, 69, 95
3, 195840, Note_on_c, 2, 61, 95
3, 195840, Note_on_c, 2, 57, 95
3, 195840, Note_on_c, 2, 52, 95
3, 195840, Note_on_c, 2, 49, 95
3, 195840, Note_on_c, 2, 45, 95
3, 196800, Note_off_c, 2, 69, 95
3, 196800, Note_off_c, 2, 61, 95
3, 196800, Note_off_c, 2, 57, 95
3, 196800, Note_off_c, 2, 52, 95
3, 196800, Note_off_c, 2, 49, 95
3, 196800, Note_off_c, 2, 45, 95
3, 196800, Note_on_c, 2, 69, 95
3, 196800, Note_on_c, 2, 61, 95
3, 196800, Note_on_c, 2, 57, 95
3, 196800, Note_on_c, 2, 52, 95
3, 196800, Note_on_c, 2, 49, 95
3, 196800, Note_on_c, 2, 45, 95
3, 197280, Note_off_c, 2, 69, 95
3, 197280, Note_off_c, 2, 61, 95
3, 197280, Note_off_c, 2, 57, 95
3, 197280, Note_off_c, 2, 52, 95
3, 197280, Note_off_c, 2, 49, 95
3, 197280, Note_off_c, 2, 45, 95
3, 197280, Note_on_c, 2, 69, 95
3, 197280, Note_on_c, 2, 61, 95
3, 197280, Note_on_c, 2, 57, 95
3, 197280, Note_on_c, 2, 52, 95
3, 197280, Note_on_c, 2, 49, 95
3, 197280, Note_on_c, 2, 45, 95
3, 197760, Note_off_c, 2, 69, 95
3, 197760, Note_off_c, 2, 61, 95
3, 197760, Note_off_c, 2, 57, 95
3, 197760, Note_off_c, 2, 52, 95
3, 197760, Note_off_c, 2, 49, 95
3, 197760, Note_off_c, 2, 45, 95
3, 197760, Note_on_c, 2, 66, 95
3, 197760, Note_on_c, 2, 62, 95
3, 197760, Note_on_c, 2, 57, 95
3, 197760, Note_on_c, 2, 54, 95
3, 197760, Note_on_c, 2, 50, 95
3, 198720, Note_off_c, 2, 66, 95
3, 198720, Note_off_c, 2, 62, 95
3, 198720, Note_off_c, 2, 57, 95
3, 198720, Note_off_c, 2, 54, 95
3, 198720, Note_off_c, 2, 50, 95
3, 198720, Note_on_c, 2, 66, 95
3, 198720, Note_on_c, 2, 62, 95
3, 198720, Note_on_c, 2, 57, 95
3, 198720, Note_on_c, 2, 54, 95
3, 198720, Note_on_c, 2, 50, 95
3, 199200, Note_off_c, 2, 66, 95
3, 199200, Note_off_c, 2, 62, 95
3, 199200, Note_off_c, 2, 57, 95
3, 199200, Note_off_c, 2, 54, 95
3, 199200, Note_off_c, 2, 50, 95
3, 199200, Note_on_c, 2, 66, 95
3, 199200, Note_on_c, 2, 61, 95
3, 199200, Note_on_c, 2, 57, 95
3, 199200, Note_on_c, 2, 52, 95
3, 199680, Note_off_c, 2, 66, 95
3, 199680, Note_off_c, 2, 61, 95
3, 199680, Note_off_c, 2, 57, 95
3, 199680, Note_off_c, 2, 52, 95
3, 199680, Note_on_c, 2, 69, 95
3, 199680, Note_on_c, 2, 61, 95
3, 199680, Note_on_c, 2, 57, 95
3, 199680, Note_on_c, 2, 52, 95
3, 199680, Note_on_c, 2, 49, 95
3, 199680, Note_on_c, 2, 45, 95
3, 200640, Note_off_c, 2, 69, 95
3, 200640, Note_off_c, 2, 61, 95
3, 200640, Note_off_c, 2, 57, 95
3, 200640, Note_off_c, 2, 52, 95
3, 200640, Note_off_c, 2, 49, 95
3, 200640, Note_off_c, 2, 45, 95
3, 200640, Note_on_c, 2, 69, 95
3, 200640, Note_on_c, 2, 61, 95
3, 200640, Note_on_c, 2, 57, 95
3, 200640, Note_on_c, 2, 52, 95
3, 200640, Note_on_c, 2, 49, 95
3, 200640, Note_on_c, 2, 45, 95
3, 201120, Note_off_c, 2, 69, 95
3, 201120, Note_off_c, 2, 61, 95
3, 201120, Note_off_c, 2, 57, 95
3, 201120, Note_off_c, 2, 52, 95
3, 201120, Note_off_c, 2, 49, 95
3, 201120, Note_off_c, 2, 45, 95
3, 201120, Note_on_c, 2, 69, 95
3, 201120, Note_on_c, 2, 61, 95
3, 201120, Note_on_c, 2, 57, 95
3, 201120, Note_on_c, 2, 52, 95
3, 201120, Note_on_c, 2, 49, 95
3, 201120, Note_on_c, 2, 45, 95
3, 201600, Note_off_c, 2, 69, 95
3, 201600, Note_off_c, 2, 61, 95
3, 201600, Note_off_c, 2, 57, 95
3, 201600, Note_off_c, 2, 52, 95
3, 201600, Note_off_c, 2, 49, 95
3, 201600, Note_off_c, 2, 45, 95
3, 201600, Note_on_c, 2, 66, 95
3, 201600, Note_on_c, 2, 62, 95
3, 201600, Note_on_c, 2, 57, 95
3, 201600, Note_on_c, 2, 54, 95
3, 201600, Note_on_c, 2, 50, 95
3, 202080, Note_off_c, 2, 66, 95
3, 202080, Note_off_c, 2, 62, 95
3, 202080, Note_off_c, 2, 57, 95
3, 202080, Note_off_c, 2, 54, 95
3, 202080, Note_off_c, 2, 50, 95
3, 202080, Note_on_c, 2, 52, 95
3, 202560, Note_off_c, 2, 52, 95
3, 202560, Note_on_c, 2, 54, 70
3, 203040, Note_off_c, 2, 54, 70
3, 203040, Note_on_c, 2, 57, 95
3, 203520, Note_off_c, 2, 57, 95
3, 203520, Note_on_c, 2, 69, 95
3, 203520, Note_on_c, 2, 61, 95
3, 203520, Note_on_c, 2, 57, 95
3, 203520, Note_on_c, 2, 52, 95
3, 203520, Note_on_c, 2, 49, 95
3, 203520, Note_on_c, 2, 45, 95
3, 204480, Note_off_c, 2, 69, 95
3, 204480, Note_off_c, 2, 61, 95
3, 204480, Note_off_c, 2, 57, 95
3, 204480, Note_off_c, 2, 52, 95
3, 204480, Note_off_c, 2, 49, 95
3, 204480, Note_off_c, 2, 45, 95
3, 204480, Note_on_c, 2, 69, 95
3, 204480, Note_on_c, 2, 61, 95
3, 204480, Note_on_c, 2, 57, 95
3, 204480, Note_on_c, 2, 52, 95
3, 204480, Note_on_c, 2, 49, 95
3, 204480, Note_on_c, 2, 45, 95
3, 204960, Note_off_c, 2, 69, 95
3, 204960, Note_off_c, 2, 61, 95
3, 204960, Note_off_c, 2, 57, 95
3, 204960, Note_off_c, 2, 52, 95
3, 204960, Note_off_c, 2, 49, 95
3, 204960, Note_off_c, 2, 45, 95
3, 204960, Note_on_c, 2, 69, 95
3, 204960, Note_on_c, 2, 61, 95
3, 204960, Note_on_c, 2, 57, 95
3, 204960, Note_on_c, 2, 52, 95
3, 204960, Note_on_c, 2, 49, 95
3, 204960, Note_on_c, 2, 45, 95
3, 205440, Note_off_c, 2, 69, 95
3, 205440, Note_off_c, 2, 61, 95
3, 205440, Note_off_c, 2, 57, 95
3, 205440, Note_off_c, 2, 52, 95
3, 205440, Note_off_c, 2, 49, 95
3, 205440, Note_off_c, 2, 45, 95
3, 205440, Note_on_c, 2, 66, 95
3, 205440, Note_on_c, 2, 62, 95
3, 205440, Note_on_c, 2, 57, 95
3, 205440, Note_on_c, 2, 54, 95
3, 205440, Note_on_c, 2, 50, 95
3, 206400, Note_off_c, 2, 66, 95
3, 206400, Note_off_c, 2, 62, 95
3, 206400, Note_off_c, 2, 57, 95
3, 206400, Note_off_c, 2, 54, 95
3, 206400, Note_off_c, 2, 50, 95
3, 206400, Note_on_c, 2, 66, 95
3, 206400, Note_on_c, 2, 62, 95
3, 206400, Note_on_c, 2, 57, 95
3, 206400, Note_on_c, 2, 54, 95
3, 206400, Note_on_c, 2, 50, 95
3, 206880, Note_off_c, 2, 66, 95
3, 206880, Note_off_c, 2, 62, 95
3, 206880, Note_off_c, 2, 57, 95
3, 206880, Note_off_c, 2, 54, 95
3, 206880, Note_off_c, 2, 50, 95
3, 206880, Note_on_c, 2, 66, 95
3, 206880, Note_on_c, 2, 61, 95
3, 206880, Note_on_c, 2, 57, 95
3, 206880, Note_on_c, 2, 52, 95
3, 207360, Note_off_c, 2, 66, 95
3, 207360, Note_off_c, 2, 61, 95
3, 207360, Note_off_c, 2, 57, 95
3, 207360, Note_off_c, 2, 52, 95
3, 207360, Note_on_c, 2, 69, 95
3, 207360, Note_on_c, 2, 61, 95
3, 207360, Note_on_c, 2, 57, 95
3, 207360, Note_on_c, 2, 52, 95
3, 207360, Note_on_c, 2, 49, 95
3, 207360, Note_on_c, 2, 45, 95
3, 208320, Note_off_c, 2, 69, 95
3, 208320, Note_off_c, 2, 61, 95
3, 208320, Note_off_c, 2, 57, 95
3, 208320, Note_off_c, 2, 52, 95
3, 208320, Note_off_c, 2, 49, 95
3, 208320, Note_off_c, 2, 45, 95
3, 208320, Note_on_c, 2, 69, 95
3, 208320, Note_on_c, 2, 61, 95
3, 208320, Note_on_c, 2, 57, 95
3, 208320, Note_on_c, 2, 52, 95
3, 208320, Note_on_c, 2, 49, 95
3, 208320, Note_on_c, 2, 45, 95
3, 208800, Note_off_c, 2, 69, 95
3, 208800, Note_off_c, 2, 61, 95
3, 208800, Note_off_c, 2, 57, 95
3, 208800, Note_off_c, 2, 52, 95
3, 208800, Note_off_c, 2, 49, 95
3, 208800, Note_off_c, 2, 45, 95
3, 208800, Note_on_c, 2, 69, 95
3, 208800, Note_on_c, 2, 61, 95
3, 208800, Note_on_c, 2, 57, 95
3, 208800, Note_on_c, 2, 52, 95
3, 208800, Note_on_c, 2, 49, 95
3, 208800, Note_on_c, 2, 45, 95
3, 209280, Note_off_c, 2, 69, 95
3, 209280, Note_off_c, 2, 61, 95
3, 209280, Note_off_c, 2, 57, 95
3, 209280, Note_off_c, 2, 52, 95
3, 209280, Note_off_c, 2, 49, 95
3, 209280, Note_off_c, 2, 45, 95
3, 209280, Note_on_c, 2, 66, 95
3, 209280, Note_on_c, 2, 62, 95
3, 209280, Note_on_c, 2, 57, 95
3, 209280, Note_on_c, 2, 54, 95
3, 209280, Note_on_c, 2, 50, 95
3, 209760, Note_off_c, 2, 66, 95
3, 209760, Note_off_c, 2, 62, 95
3, 209760, Note_off_c, 2, 57, 95
3, 209760, Note_off_c, 2, 54, 95
3, 209760, Note_off_c, 2, 50, 95
3, 209760, Note_on_c, 2, 52, 95
3, 210240, Note_off_c, 2, 52, 95
3, 210240, Note_on_c, 2, 54, 70
3, 210720, Note_off_c, 2, 54, 70
3, 210720, Note_on_c, 2, 57, 95
3, 211200, Note_off_c, 2, 57, 95
3, 211200, Note_on_c, 2, 69, 95
3, 211200, Note_on_c, 2, 61, 95
3, 211200, Note_on_c, 2, 57, 95
3, 211200, Note_on_c, 2, 52, 95
3, 211200, Note_on_c, 2, 49, 95
3, 211200, Note_on_c, 2, 45, 95
3, 212160, Note_off_c, 2, 69, 95
3, 212160, Note_off_c, 2, 61, 95
3, 212160, Note_off_c, 2, 57, 95
3, 212160, Note_off_c, 2, 52, 95
3, 212160, Note_off_c, 2, 49, 95
3, 212160, Note_off_c, 2, 45, 95
3, 212160, Note_on_c, 2, 69, 95
3, 212160, Note_on_c, 2, 61, 95
3, 212160, Note_on_c, 2, 57, 95
3, 212160, Note_on_c, 2, 52, 95
3, 212160, Note_on_c, 2, 49, 95
3, 212160, Note_on_c, 2, 45, 95
3, 212640, Note_off_c, 2, 69, 95
3, 212640, Note_off_c, 2, 61, 95
3, 212640, Note_off_c, 2, 57, 95
3, 212640, Note_off_c, 2, 52, 95
3, 212640, Note_off_c, 2, 49, 95
3, 212640, Note_off_c, 2, 45, 95
3, 212640, Note_on_c, 2, 69, 95
3, 212640, Note_on_c, 2, 61, 95
3, 212640, Note_on_c, 2, 57, 95
3, 212640, Note_on_c, 2, 52, 95
3, 212640, Note_on_c, 2, 49, 95
3, 212640, Note_on_c, 2, 45, 95
3, 213120, Note_off_c, 2, 69, 95
3, 213120, Note_off_c, 2, 61, 95
3, 213120, Note_off_c, 2, 57, 95
3, 213120, Note_off_c, 2, 52, 95
3, 213120, Note_off_c, 2, 49, 95
3, 213120, Note_off_c, 2, 45, 95
3, 213120, Note_on_c, 2, 66, 95
3, 213120, Note_on_c, 2, 62, 95
3, 213120, Note_on_c, 2, 57, 95
3, 213120, Note_on_c, 2, 54, 95
3, 213120, Note_on_c, 2, 50, 95
3, 214080, Note_off_c, 2, 66, 95
3, 214080, Note_off_c, 2, 62, 95
3, 214080, Note_off_c, 2, 57, 95
3, 214080, Note_off_c, 2, 54, 95
3, 214080, Note_off_c, 2, 50, 95
3, 214080, Note_on_c, 2, 66, 95
3, 214080, Note_on_c, 2, 62, 95
3, 214080, Note_on_c, 2, 57, 95
3, 214080, Note_on_c, 2, 54, 95
3, 214080, Note_on_c, 2, 50, 95
3, 214560, Note_off_c, 2, 66, 95
3, 214560, Note_off_c, 2, 62, 95
3, 214560, Note_off_c, 2, 57, 95
3, 214560, Note_off_c, 2, 54, 95
3, 214560, Note_off_c, 2, 50, 95
3, 214560, Note_on_c, 2, 66, 95
3, 214560, Note_on_c, 2, 61, 95
3, 214560, Note_on_c, 2, 57, 95
3, 214560, Note_on_c, 2, 52, 95
3, 215040, Note_off_c, 2, 66, 95
3, 215040, Note_off_c, 2, 61, 95
3, 215040, Note_off_c, 2, 57, 95
3, 215040, Note_off_c, 2, 52, 95
3, 215040, Note_on_c, 2, 69, 95
3, 215040, Note_on_c, 2, 61, 95
3, 215040, Note_on_c, 2, 57, 95
3, 215040, Note_on_c, 2, 52, 95
3, 215040, Note_on_c, 2, 49, 95
3, 215040, Note_on_c, 2, 45, 95
3, 218880, Note_off_c, 2, 69, 95
3, 218880, Note_off_c, 2, 61, 95
3, 218880, Note_off_c, 2, 57, 95
3, 218880, Note_off_c, 2, 52, 95
3, 218880, Note_off_c, 2, 49, 95
3, 218880, Note_off_c, 2, 45, 95
3, 222720, Note_on_c, 2, 69, 95
3, 222720, Note_on_c, 2, 61, 95
3, 222720, Note_on_c, 2, 57, 95
3, 222720, Note_on_c, 2, 52, 95
3, 222720, Note_on_c, 2, 49, 95
3, 222720, Note_on_c, 2, 45, 95
3, 223680, Note_off_c, 2, 69, 95
3, 223680, Note_off_c, 2, 61, 95
3, 223680, Note_off_c, 2, 57, 95
3, 223680, Note_off_c, 2, 52, 95
3, 223680, Note_off_c, 2, 49, 95
3, 223680, Note_off_c, 2, 45, 95
3, 223680, Note_on_c, 2, 69, 95
3, 223680, Note_on_c, 2, 61, 95
3, 223680, Note_on_c, 2, 57, 95
3, 223680, Note_on_c, 2, 52, 95
3, 223680, Note_on_c, 2, 49, 95
3, 223680, Note_on_c, 2, 45, 95
3, 224160, Note_off_c, 2, 69, 95
3, 224160, Note_off_c, 2, 61, 95
3, 224160, Note_off_c, 2, 57, 95
3, 224160, Note_off_c, 2, 52, 95
3, 224160, Note_off_c, 2, 49, 95
3, 224160, Note_off_c, 2, 45, 95
3, 224160, Note_on_c, 2, 69, 95
3, 224160, Note_on_c, 2, 61, 95
3, 224160, Note_on_c, 2, 57, 95
3, 224160, Note_on_c, 2, 52, 95
3, 224160, Note_on_c, 2, 49, 95
3, 224160, Note_on_c, 2, 45, 95
3, 224640, Note_off_c, 2, 69, 95
3, 224640, Note_off_c, 2, 61, 95
3, 224640, Note_off_c, 2, 57, 95
3, 224640, Note_off_c, 2, 52, 95
3, 224640, Note_off_c, 2, 49, 95
3, 224640, Note_off_c, 2, 45, 95
3, 224640, Note_on_c, 2, 66, 95
3, 224640, Note_on_c, 2, 62, 95
3, 224640, Note_on_c, 2, 57, 95
3, 224640, Note_on_c, 2, 54, 95
3, 224640, Note_on_c, 2, 50, 95
3, 225600, Note_off_c, 2, 66, 95
3, 225600, Note_off_c, 2, 62, 95
3, 225600, Note_off_c, 2, 57, 95
3, 225600, Note_off_c, 2, 54, 95
3, 225600, Note_off_c, 2, 50, 95
3, 225600, Note_on_c, 2, 66, 95
3, 225600, Note_on_c, 2, 62, 95
3, 225600, Note_on_c, 2, 57, 95
3, 225600, Note_on_c, 2, 54, 95
3, 225600, Note_on_c, 2, 50, 95
3, 226080, Note_off_c, 2, 66, 95
3, 226080, Note_off_c, 2, 62, 95
3, 226080, Note_off_c, 2, 57, 95
3, 226080, Note_off_c, 2, 54, 95
3, 226080, Note_off_c, 2, 50, 95
3, 226080, Note_on_c, 2, 66, 95
3, 226080, Note_on_c, 2, 61, 95
3, 226080, Note_on_c, 2, 57, 95
3, 226080, Note_on_c, 2, 52, 95
3, 226560, Note_off_c, 2, 66, 95
3, 226560, Note_off_c, 2, 61, 95
3, 226560, Note_off_c, 2, 57, 95
3, 226560, Note_off_c, 2, 52, 95
3, 226560, Note_on_c, 2, 69, 95
3, 226560, Note_on_c, 2, 61, 95
3, 226560, Note_on_c, 2, 57, 95
3, 226560, Note_on_c, 2, 52, 95
3, 226560, Note_on_c, 2, 49, 95
3, 226560, Note_on_c, 2, 45, 95
3, 227520, Note_off_c, 2, 69, 95
3, 227520, Note_off_c, 2, 61, 95
3, 227520, Note_off_c, 2, 57, 95
3, 227520, Note_off_c, 2, 52, 95
3, 227520, Note_off_c, 2, 49, 95
3, 227520, Note_off_c, 2, 45, 95
3, 227520, Note_on_c, 2, 69, 95
3, 227520, Note_on_c, 2, 61, 95
3, 227520, Note_on_c, 2, 57, 95
3, 227520, Note_on_c, 2, 52, 95
3, 227520, Note_on_c, 2, 49, 95
3, 227520, Note_on_c, 2, 45, 95
3, 228000, Note_off_c, 2, 69, 95
3, 228000, Note_off_c, 2, 61, 95
3, 228000, Note_off_c, 2, 57, 95
3, 228000, Note_off_c, 2, 52, 95
3, 228000, Note_off_c, 2, 49, 95
3, 228000, Note_off_c, 2, 45, 95
3, 228000, Note_on_c, 2, 69, 95
3, 228000, Note_on_c, 2, 61, 95
3, 228000, Note_on_c, 2, 57, 95
3, 228000, Note_on_c, 2, 52, 95
3, 228000, Note_on_c, 2, 49, 95
3, 228000, Note_on_c, 2, 45, 95
3, 228480, Note_off_c, 2, 69, 95
3, 228480, Note_off_c, 2, 61, 95
3, 228480, Note_off_c, 2, 57, 95
3, 228480, Note_off_c, 2, 52, 95
3, 228480, Note_off_c, 2, 49, 95
3, 228480, Note_off_c, 2, 45, 95
3, 228480, Note_on_c, 2, 66, 95
3, 228480, Note_on_c, 2, 62, 95
3, 228480, Note_on_c, 2, 57, 95
3, 228480, Note_on_c, 2, 54, 95
3, 228480, Note_on_c, 2, 50, 95
3, 228960, Note_off_c, 2, 66, 95
3, 228960, Note_off_c, 2, 62, 95
3, 228960, Note_off_c, 2, 57, 95
3, 228960, Note_off_c, 2, 54, 95
3, 228960, Note_off_c, 2, 50, 95
3, 228960, Note_on_c, 2, 52, 95
3, 229440, Note_off_c, 2, 52, 95
3, 229440, Note_on_c, 2, 54, 70
3, 229920, Note_off_c, 2, 54, 70
3, 229920, Note_on_c, 2, 57, 95
3, 230400, Note_off_c, 2, 57, 95
3, 230400, Note_on_c, 2, 69, 95
3, 230400, Note_on_c, 2, 61, 95
3, 230400, Note_on_c, 2, 57, 95
3, 230400, Note_on_c, 2, 52, 95
3, 230400, Note_on_c, 2, 49, 95
3, 230400, Note_on_c, 2, 45, 95
3, 231360, Note_off_c, 2, 69, 95
3, 231360, Note_off_c, 2, 61, 95
3, 231360, Note_off_c, 2, 57, 95
3, 231360, Note_off_c, 2, 52, 95
3, 231360, Note_off_c, 2, 49, 95
3, 231360, Note_off_c, 2, 45, 95
3, 231360, Note_on_c, 2, 69, 95
3, 231360, Note_on_c, 2, 61, 95
3, 231360, Note_on_c, 2, 57, 95
3, 231360, Note_on_c, 2, 52, 95
3, 231360, Note_on_c, 2, 49, 95
3, 231360, Note_on_c, 2, 45, 95
3, 231840, Note_off_c, 2, 69, 95
3, 231840, Note_off_c, 2, 61, 95
3, 231840, Note_off_c, 2, 57, 95
3, 231840, Note_off_c, 2, 52, 95
3, 231840, Note_off_c, 2, 49, 95
3, 231840, Note_off_c, 2, 45, 95
3, 231840, Note_on_c, 2, 69, 95
3, 231840, Note_on_c, 2, 61, 95
3, 231840, Note_on_c, 2, 57, 95
3, 231840, Note_on_c, 2, 52, 95
3, 231840, Note_on_c, 2, 49, 95
3, 231840, Note_on_c, 2, 45, 95
3, 232320, Note_off_c, 2, 69, 95
3, 232320, Note_off_c, 2, 61, 95
3, 232320, Note_off_c, 2, 57, 95
3, 232320, Note_off_c, 2, 52, 95
3, 232320, Note_off_c, 2, 49, 95
3, 232320, Note_off_c, 2, 45, 95
3, 232320, Note_on_c, 2, 66, 95
3, 232320, Note_on_c, 2, 62, 95
3, 232320, Note_on_c, 2, 57, 95
3, 232320, Note_on_c, 2, 54, 95
3, 232320, Note_on_c, 2, 50, 95
3, 233280, Note_off_c, 2, 66, 95
3, 233280, Note_off_c, 2, 62, 95
3, 233280, Note_off_c, 2, 57, 95
3, 233280, Note_off_c, 2, 54, 95
3, 233280, Note_off_c, 2, 50, 95
3, 233280, Note_on_c, 2, 66, 95
3, 233280, Note_on_c, 2, 62, 95
3, 233280, Note_on_c, 2, 57, 95
3, 233280, Note_on_c, 2, 54, 95
3, 233280, Note_on_c, 2, 50, 95
3, 233760, Note_off_c, 2, 66, 95
3, 233760, Note_off_c, 2, 62, 95
3, 233760, Note_off_c, 2, 57, 95
3, 233760, Note_off_c, 2, 54, 95
3, 233760, Note_off_c, 2, 50, 95
3, 233760, Note_on_c, 2, 66, 95
3, 233760, Note_on_c, 2, 61, 95
3, 233760, Note_on_c, 2, 57, 95
3, 233760, Note_on_c, 2, 52, 95
3, 234240, Note_off_c, 2, 66, 95
3, 234240, Note_off_c, 2, 61, 95
3, 234240, Note_off_c, 2, 57, 95
3, 234240, Note_off_c, 2, 52, 95
3, 234240, Note_on_c, 2, 69, 95
3, 234240, Note_on_c, 2, 61, 95
3, 234240, Note_on_c, 2, 57, 95
3, 234240, Note_on_c, 2, 52, 95
3, 234240, Note_on_c, 2, 49, 95
3, 234240, Note_on_c, 2, 45, 95
3, 235200, Note_off_c, 2, 69, 95
3, 235200, Note_off_c, 2, 61, 95
3, 235200, Note_off_c, 2, 57, 95
3, 235200, Note_off_c, 2, 52, 95
3, 235200, Note_off_c, 2, 49, 95
3, 235200, Note_off_c, 2, 45, 95
3, 235200, Note_on_c, 2, 69, 95
3, 235200, Note_on_c, 2, 61, 95
3, 235200, Note_on_c, 2, 57, 95
3, 235200, Note_on_c, 2, 52, 95
3, 235200, Note_on_c, 2, 49, 95
3, 235200, Note_on_c, 2, 45, 95
3, 235680, Note_off_c, 2, 69, 95
3, 235680, Note_off_c, 2, 61, 95
3, 235680, Note_off_c, 2, 57, 95
3, 235680, Note_off_c, 2, 52, 95
3, 235680, Note_off_c, 2, 49, 95
3, 235680, Note_off_c, 2, 45, 95
3, 235680, Note_on_c, 2, 69, 95
3, 235680, Note_on_c, 2, 61, 95
3, 235680, Note_on_c, 2, 57, 95
3, 235680, Note_on_c, 2, 52, 95
3, 235680, Note_on_c, 2, 49, 95
3, 235680, Note_on_c, 2, 45, 95
3, 236160, Note_off_c, 2, 69, 95
3, 236160, Note_off_c, 2, 61, 95
3, 236160, Note_off_c, 2, 57, 95
3, 236160, Note_off_c, 2, 52, 95
3, 236160, Note_off_c, 2, 49, 95
3, 236160, Note_off_c, 2, 45, 95
3, 236160, Note_on_c, 2, 66, 95
3, 236160, Note_on_c, 2, 62, 95
3, 236160, Note_on_c, 2, 57, 95
3, 236160, Note_on_c, 2, 54, 95
3, 236160, Note_on_c, 2, 50, 95
3, 236640, Note_off_c, 2, 66, 95
3, 236640, Note_off_c, 2, 62, 95
3, 236640, Note_off_c, 2, 57, 95
3, 236640, Note_off_c, 2, 54, 95
3, 236640, Note_off_c, 2, 50, 95
3, 236640, Note_on_c, 2, 52, 95
3, 237120, Note_off_c, 2, 52, 95
3, 237120, Note_on_c, 2, 54, 70
3, 237600, Note_off_c, 2, 54, 70
3, 237600, Note_on_c, 2, 57, 95
3, 238080, Note_off_c, 2, 57, 95
3, 238080, Note_on_c, 2, 69, 95
3, 238080, Note_on_c, 2, 61, 95
3, 238080, Note_on_c, 2, 57, 95
3, 238080, Note_on_c, 2, 52, 95
3, 238080, Note_on_c, 2, 49, 95
3, 238080, Note_on_c, 2, 45, 95
3, 239040, Note_off_c, 2, 69, 95
3, 239040, Note_off_c, 2, 61, 95
3, 239040, Note_off_c, 2, 57, 95
3, 239040, Note_off_c, 2, 52, 95
3, 239040, Note_off_c, 2, 49, 95
3, 239040, Note_off_c, 2, 45, 95
3, 239040, Note_on_c, 2, 69, 95
3, 239040, Note_on_c, 2, 61, 95
3, 239040, Note_on_c, 2, 57, 95
3, 239040, Note_on_c, 2, 52, 95
3, 239040, Note_on_c, 2, 49, 95
3, 239040, Note_on_c, 2, 45, 95
3, 239520, Note_off_c, 2, 69, 95
3, 239520, Note_off_c, 2, 61, 95
3, 239520, Note_off_c, 2, 57, 95
3, 239520, Note_off_c, 2, 52, 95
3, 239520, Note_off_c, 2, 49, 95
3, 239520, Note_off_c, 2, 45, 95
3, 239520, Note_on_c, 2, 69, 95
3, 239520, Note_on_c, 2, 61, 95
3, 239520, Note_on_c, 2, 57, 95
3, 239520, Note_on_c, 2, 52, 95
3, 239520, Note_on_c, 2, 49, 95
3, 239520, Note_on_c, 2, 45, 95
3, 240000, Note_off_c, 2, 69, 95
3, 240000, Note_off_c, 2, 61, 95
3, 240000, Note_off_c, 2, 57, 95
3, 240000, Note_off_c, 2, 52, 95
3, 240000, Note_off_c, 2, 49, 95
3, 240000, Note_off_c, 2, 45, 95
3, 240000, Note_on_c, 2, 66, 95
3, 240000, Note_on_c, 2, 62, 95
3, 240000, Note_on_c, 2, 57, 95
3, 240000, Note_on_c, 2, 54, 95
3, 240000, Note_on_c, 2, 50, 95
3, 240960, Note_off_c, 2, 66, 95
3, 240960, Note_off_c, 2, 62, 95
3, 240960, Note_off_c, 2, 57, 95
3, 240960, Note_off_c, 2, 54, 95
3, 240960, Note_off_c, 2, 50, 95
3, 240960, Note_on_c, 2, 66, 95
3, 240960, Note_on_c, 2, 62, 95
3, 240960, Note_on_c, 2, 57, 95
3, 240960, Note_on_c, 2, 54, 95
3, 240960, Note_on_c, 2, 50, 95
3, 241440, Note_off_c, 2, 66, 95
3, 241440, Note_off_c, 2, 62, 95
3, 241440, Note_off_c, 2, 57, 95
3, 241440, Note_off_c, 2, 54, 95
3, 241440, Note_off_c, 2, 50, 95
3, 241440, Note_on_c, 2, 66, 95
3, 241440, Note_on_c, 2, 61, 95
3, 241440, Note_on_c, 2, 57, 95
3, 241440, Note_on_c, 2, 52, 95
3, 241920, Note_off_c, 2, 66, 95
3, 241920, Note_off_c, 2, 61, 95
3, 241920, Note_off_c, 2, 57, 95
3, 241920, Note_off_c, 2, 52, 95
3, 241920, Note_on_c, 2, 69, 95
3, 241920, Note_on_c, 2, 61, 95
3, 241920, Note_on_c, 2, 57, 95
3, 241920, Note_on_c, 2, 52, 95
3, 241920, Note_on_c, 2, 49, 95
3, 241920, Note_on_c, 2, 45, 95
3, 245760, Note_off_c, 2, 69, 95
3, 245760, Note_off_c, 2, 61, 95
3, 245760, Note_off_c, 2, 57, 95
3, 245760, Note_off_c, 2, 52, 95
3, 245760, Note_off_c, 2, 49, 95
3, 245760, Note_off_c, 2, 45, 95
3, 245760, Note_on_c, 2, 69, 95
3, 245760, Note_on_c, 2, 64, 95
3, 245760, Note_on_c, 2, 57, 95
3, 245760, Note_on_c, 2, 52, 95
3, 245760, Note_on_c, 2, 49, 95
3, 245760, Note_on_c, 2, 45, 95
3, 246720, Note_off_c, 2, 69, 95
3, 246720, Note_off_c, 2, 64, 95
3, 246720, Note_off_c, 2, 57, 95
3, 246720, Note_off_c, 2, 52, 95
3, 246720, Note_off_c, 2, 49, 95
3, 246720, Note_off_c, 2, 45, 95
3, 246720, Note_on_c, 2, 69, 95
3, 246720, Note_on_c, 2, 64, 95
3, 246720, Note_on_c, 2, 57, 95
3, 246720, Note_on_c, 2, 52, 95
3, 246720, Note_on_c, 2, 49, 95
3, 246720, Note_on_c, 2, 45, 95
3, 247200, Note_off_c, 2, 69, 95
3, 247200, Note_off_c, 2, 64, 95
3, 247200, Note_off_c, 2, 57, 95
3, 247200, Note_off_c, 2, 52, 95
3, 247200, Note_off_c, 2, 49, 95
3, 247200, Note_off_c, 2, 45, 95
3, 247200, Note_on_c, 2, 69, 95
3, 247200, Note_on_c, 2, 64, 95
3, 247200, Note_on_c, 2, 57, 95
3, 247200, Note_on_c, 2, 52, 95
3, 247200, Note_on_c, 2, 49, 95
3, 247200, Note_on_c, 2, 45, 95
3, 247680, Note_off_c, 2, 69, 95
3, 247680, Note_off_c, 2, 64, 95
3, 247680, Note_off_c, 2, 57, 95
3, 247680, Note_off_c, 2, 52, 95
3, 247680, Note_off_c, 2, 49, 95
3, 247680, Note_off_c, 2, 45, 95
3, 247680, Note_on_c, 2, 69, 95
3, 247680, Note_on_c, 2, 64, 95
3, 247680, Note_on_c, 2, 57, 95
3, 247680, Note_on_c, 2, 52, 95
3, 247680, Note_on_c, 2, 49, 95
3, 247680, Note_on_c, 2, 45, 95
3, 248160, Note_off_c, 2, 69, 95
3, 248160, Note_off_c, 2, 64, 95
3, 248160, Note_off_c, 2, 57, 95
3, 248160, Note_off_c, 2, 52, 95
3, 248160, Note_off_c, 2, 49, 95
3, 248160, Note_off_c, 2, 45, 95
3, 248160, Note_on_c, 2, 69, 95
3, 248160, Note_on_c, 2, 64, 95
3, 248160, Note_on_c, 2, 57, 95
3, 248160, Note_on_c, 2, 52, 95
3, 248160, Note_on_c, 2, 49, 95
3, 248160, Note_on_c, 2, 45, 95
3, 248640, Note_off_c, 2, 69, 95
3, 248640, Note_off_c, 2, 64, 95
3, 248640, Note_off_c, 2, 57, 95
3, 248640, Note_off_c, 2, 52, 95
3, 248640, Note_off_c, 2, 49, 95
3, 248640, Note_off_c, 2, 45, 95
3, 248640, Note_on_c, 2, 69, 95
3, 248640, Note_on_c, 2, 64, 95
3, 248640, Note_on_c, 2, 57, 95
3, 248640, Note_on_c, 2, 52, 95
3, 248640, Note_on_c, 2, 49, 95
3, 248640, Note_on_c, 2, 45, 95
3, 249120, Note_off_c, 2, 69, 95
3, 249120, Note_off_c, 2, 64, 95
3, 249120, Note_off_c, 2, 57, 95
3, 249120, Note_off_c, 2, 52, 95
3, 249120, Note_off_c, 2, 49, 95
3, 249120, Note_off_c, 2, 45, 95
3, 249120, Note_on_c, 2, 69, 95
3, 249120, Note_on_c, 2, 64, 95
3, 249120, Note_on_c, 2, 57, 95
3, 249120, Note_on_c, 2, 52, 95
3, 249120, Note_on_c, 2, 49, 95
3, 249120, Note_on_c, 2, 45, 95
3, 249600, Note_off_c, 2, 69, 95
3, 249600, Note_off_c, 2, 64, 95
3, 249600, Note_off_c, 2, 57, 95
3, 249600, Note_off_c, 2, 52, 95
3, 249600, Note_off_c, 2, 49, 95
3, 249600, Note_off_c, 2, 45, 95
3, 249600, Note_on_c, 2, 69, 95
3, 249600, Note_on_c, 2, 64, 95
3, 249600, Note_on_c, 2, 57, 95
3, 249600, Note_on_c, 2, 52, 95
3, 249600, Note_on_c, 2, 49, 95
3, 249600, Note_on_c, 2, 45, 95
3, 250560, Note_off_c, 2, 69, 95
3, 250560, Note_off_c, 2, 64, 95
3, 250560, Note_off_c, 2, 57, 95
3, 250560, Note_off_c, 2, 52, 95
3, 250560, Note_off_c, 2, 49, 95
3, 250560, Note_off_c, 2, 45, 95
3, 250560, Note_on_c, 2, 69, 95
3, 250560, Note_on_c, 2, 64, 95
3, 250560, Note_on_c, 2, 57, 95
3, 250560, Note_on_c, 2, 52, 95
3, 250560, Note_on_c, 2, 49, 95
3, 250560, Note_on_c, 2, 45, 95
3, 251040, Note_off_c, 2, 69, 95
3, 251040, Note_off_c, 2, 64, 95
3, 251040, Note_off_c, 2, 57, 95
3, 251040, Note_off_c, 2, 52, 95
3, 251040, Note_off_c, 2, 49, 95
3, 251040, Note_off_c, 2, 45, 95
3, 251040, Note_on_c, 2, 69, 95
3, 251040, Note_on_c, 2, 64, 95
3, 251040, Note_on_c, 2, 57, 95
3, 251040, Note_on_c, 2, 52, 95
3, 251040, Note_on_c, 2, 49, 95
3, 251040, Note_on_c, 2, 45, 95
3, 251520, Note_off_c, 2, 69, 95
3, 251520, Note_off_c, 2, 64, 95
3, 251520, Note_off_c, 2, 57, 95
3, 251520, Note_off_c, 2, 52, 95
3, 251520, Note_off_c, 2, 49, 95
3, 251520, Note_off_c, 2, 45, 95
3, 251520, Note_on_c, 2, 69, 95
3, 251520, Note_on_c, 2, 64, 95
3, 251520, Note_on_c, 2, 57, 95
3, 251520, Note_on_c, 2, 52, 95
3, 251520, Note_on_c, 2, 49, 95
3, 251520, Note_on_c, 2, 45, 95
3, 252000, Note_off_c, 2, 69, 95
3, 252000, Note_off_c, 2, 64, 95
3, 252000, Note_off_c, 2, 57, 95
3, 252000, Note_off_c, 2, 52, 95
3, 252000, Note_off_c, 2, 49, 95
3, 252000, Note_off_c, 2, 45, 95
3, 252000, Note_on_c, 2, 69, 95
3, 252000, Note_on_c, 2, 64, 95
3, 252000, Note_on_c, 2, 57, 95
3, 252000, Note_on_c, 2, 52, 95
3, 252000, Note_on_c, 2, 49, 95
3, 252000, Note_on_c, 2, 45, 95
3, 252480, Note_off_c, 2, 69, 95
3, 252480, Note_off_c, 2, 64, 95
3, 252480, Note_off_c, 2, 57, 95
3, 252480, Note_off_c, 2, 52, 95
3, 252480, Note_off_c, 2, 49, 95
3, 252480, Note_off_c, 2, 45, 95
3, 252480, Note_on_c, 2, 69, 95
3, 252480, Note_on_c, 2, 64, 95
3, 252480, Note_on_c, 2, 57, 95
3, 252480, Note_on_c, 2, 52, 95
3, 252480, Note_on_c, 2, 49, 95
3, 252480, Note_on_c, 2, 45, 95
3, 252960, Note_off_c, 2, 69, 95
3, 252960, Note_off_c, 2, 64, 95
3, 252960, Note_off_c, 2, 57, 95
3, 252960, Note_off_c, 2, 52, 95
3, 252960, Note_off_c, 2, 49, 95
3, 252960, Note_off_c, 2, 45, 95
3, 252960, Note_on_c, 2, 69, 95
3, 252960, Note_on_c, 2, 64, 95
3, 252960, Note_on_c, 2, 57, 95
3, 252960, Note_on_c, 2, 52, 95
3, 252960, Note_on_c, 2, 49, 95
3, 252960, Note_on_c, 2, 45, 95
3, 253440, Note_off_c, 2, 69, 95
3, 253440, Note_off_c, 2, 64, 95
3, 253440, Note_off_c, 2, 57, 95
3, 253440, Note_off_c, 2, 52, 95
3, 253440, Note_off_c, 2, 49, 95
3, 253440, Note_off_c, 2, 45, 95
3, 253440, Note_on_c, 2, 68, 95
3, 253440, Note_on_c, 2, 64, 95
3, 253440, Note_on_c, 2, 61, 95
3, 253440, Note_on_c, 2, 56, 95
3, 253440, Note_on_c, 2, 49, 95
3, 254400, Note_off_c, 2, 68, 95
3, 254400, Note_off_c, 2, 64, 95
3, 254400, Note_off_c, 2, 61, 95
3, 254400, Note_off_c, 2, 56, 95
3, 254400, Note_off_c, 2, 49, 95
3, 254400, Note_on_c, 2, 68, 95
3, 254400, Note_on_c, 2, 64, 95
3, 254400, Note_on_c, 2, 61, 95
3, 254400, Note_on_c, 2, 56, 95
3, 254400, Note_on_c, 2, 49, 95
3, 254880, Note_off_c, 2, 68, 95
3, 254880, Note_off_c, 2, 64, 95
3, 254880, Note_off_c, 2, 61, 95
3, 254880, Note_off_c, 2, 56, 95
3, 254880, Note_off_c, 2, 49, 95
3, 254880, Note_on_c, 2, 68, 95
3, 254880, Note_on_c, 2, 64, 95
3, 254880, Note_on_c, 2, 61, 95
3, 254880, Note_on_c, 2, 56, 95
3, 254880, Note_on_c, 2, 49, 95
3, 255840, Note_off_c, 2, 68, 95
3, 255840, Note_off_c, 2, 64, 95
3, 255840, Note_off_c, 2, 61, 95
3, 255840, Note_off_c, 2, 56, 95
3, 255840, Note_off_c, 2, 49, 95
3, 255840, Note_on_c, 2, 68, 95
3, 255840, Note_on_c, 2, 64, 95
3, 255840, Note_on_c, 2, 61, 95
3, 255840, Note_on_c, 2, 56, 95
3, 255840, Note_on_c, 2, 49, 95
3, 256800, Note_off_c, 2, 68, 95
3, 256800, Note_off_c, 2, 64, 95
3, 256800, Note_off_c, 2, 61, 95
3, 256800, Note_off_c, 2, 56, 95
3, 256800, Note_off_c, 2, 49, 95
3, 256800, Note_on_c, 2, 68, 95
3, 256800, Note_on_c, 2, 64, 95
3, 256800, Note_on_c, 2, 61, 95
3, 256800, Note_on_c, 2, 56, 95
3, 256800, Note_on_c, 2, 49, 95
3, 257280, Note_off_c, 2, 68, 95
3, 257280, Note_off_c, 2, 64, 95
3, 257280, Note_off_c, 2, 61, 95
3, 257280, Note_off_c, 2, 56, 95
3, 257280, Note_off_c, 2, 49, 95
3, 257280, Note_on_c, 2, 68, 95
3, 257280, Note_on_c, 2, 64, 95
3, 257280, Note_on_c, 2, 61, 95
3, 257280, Note_on_c, 2, 56, 95
3, 257280, Note_on_c, 2, 49, 95
3, 258240, Note_off_c, 2, 68, 95
3, 258240, Note_off_c, 2, 64, 95
3, 258240, Note_off_c, 2, 61, 95
3, 258240, Note_off_c, 2, 56, 95
3, 258240, Note_off_c, 2, 49, 95
3, 258240, Note_on_c, 2, 68, 95
3, 258240, Note_on_c, 2, 64, 95
3, 258240, Note_on_c, 2, 61, 95
3, 258240, Note_on_c, 2, 56, 95
3, 258240, Note_on_c, 2, 49, 95
3, 258720, Note_off_c, 2, 68, 95
3, 258720, Note_off_c, 2, 64, 95
3, 258720, Note_off_c, 2, 61, 95
3, 258720, Note_off_c, 2, 56, 95
3, 258720, Note_off_c, 2, 49, 95
3, 258720, Note_on_c, 2, 68, 95
3, 258720, Note_on_c, 2, 64, 95
3, 258720, Note_on_c, 2, 61, 95
3, 258720, Note_on_c, 2, 56, 95
3, 258720, Note_on_c, 2, 49, 95
3, 259200, Note_off_c, 2, 68, 95
3, 259200, Note_off_c, 2, 64, 95
3, 259200, Note_off_c, 2, 61, 95
3, 259200, Note_off_c, 2, 56, 95
3, 259200, Note_off_c, 2, 49, 95
3, 259200, Note_on_c, 2, 68, 95
3, 259200, Note_on_c, 2, 64, 95
3, 259200, Note_on_c, 2, 61, 95
3, 259200, Note_on_c, 2, 56, 95
3, 259200, Note_on_c, 2, 49, 95
3, 259680, Note_off_c, 2, 68, 95
3, 259680, Note_off_c, 2, 64, 95
3, 259680, Note_off_c, 2, 61, 95
3, 259680, Note_off_c, 2, 56, 95
3, 259680, Note_off_c, 2, 49, 95
3, 259680, Note_on_c, 2, 68, 95
3, 259680, Note_on_c, 2, 64, 95
3, 259680, Note_on_c, 2, 61, 95
3, 259680, Note_on_c, 2, 56, 95
3, 259680, Note_on_c, 2, 49, 95
3, 260160, Note_off_c, 2, 68, 95
3, 260160, Note_off_c, 2, 64, 95
3, 260160, Note_off_c, 2, 61, 95
3, 260160, Note_off_c, 2, 56, 95
3, 260160, Note_off_c, 2, 49, 95
3, 260160, Note_on_c, 2, 68, 95
3, 260160, Note_on_c, 2, 64, 95
3, 260160, Note_on_c, 2, 61, 95
3, 260160, Note_on_c, 2, 56, 95
3, 260160, Note_on_c, 2, 49, 95
3, 260640, Note_off_c, 2, 68, 95
3, 260640, Note_off_c, 2, 64, 95
3, 260640, Note_off_c, 2, 61, 95
3, 260640, Note_off_c, 2, 56, 95
3, 260640, Note_off_c, 2, 49, 95
3, 260640, Note_on_c, 2, 68, 95
3, 260640, Note_on_c, 2, 64, 95
3, 260640, Note_on_c, 2, 61, 95
3, 260640, Note_on_c, 2, 56, 95
3, 260640, Note_on_c, 2, 49, 95
3, 261120, Note_off_c, 2, 68, 95
3, 261120, Note_off_c, 2, 64, 95
3, 261120, Note_off_c, 2, 61, 95
3, 261120, Note_off_c, 2, 56, 95
3, 261120, Note_off_c, 2, 49, 95
3, 261120, Note_on_c, 2, 66, 95
3, 261120, Note_on_c, 2, 62, 95
3, 261120, Note_on_c, 2, 57, 95
3, 261120, Note_on_c, 2, 54, 95
3, 261120, Note_on_c, 2, 50, 95
3, 262080, Note_off_c, 2, 66, 95
3, 262080, Note_off_c, 2, 62, 95
3, 262080, Note_off_c, 2, 57, 95
3, 262080, Note_off_c, 2, 54, 95
3, 262080, Note_off_c, 2, 50, 95
3, 262080, Note_on_c, 2, 66, 95
3, 262080, Note_on_c, 2, 62, 95
3, 262080, Note_on_c, 2, 57, 95
3, 262080, Note_on_c, 2, 54, 95
3, 262080, Note_on_c, 2, 50, 95
3, 262560, Note_off_c, 2, 66, 95
3, 262560, Note_off_c, 2, 62, 95
3, 262560, Note_off_c, 2, 57, 95
3, 262560, Note_off_c, 2, 54, 95
3, 262560, Note_off_c, 2, 50, 95
3, 262560, Note_on_c, 2, 66, 95
3, 262560, Note_on_c, 2, 62, 95
3, 262560, Note_on_c, 2, 57, 95
3, 262560, Note_on_c, 2, 54, 95
3, 262560, Note_on_c, 2, 50, 95
3, 263040, Note_off_c, 2, 66, 95
3, 263040, Note_off_c, 2, 62, 95
3, 263040, Note_off_c, 2, 57, 95
3, 263040, Note_off_c, 2, 54, 95
3, 263040, Note_off_c, 2, 50, 95
3, 263040, Note_on_c, 2, 66, 95
3, 263040, Note_on_c, 2, 62, 95
3, 263040, Note_on_c, 2, 57, 95
3, 263040, Note_on_c, 2, 54, 95
3, 263040, Note_on_c, 2, 50, 95
3, 263520, Note_off_c, 2, 66, 95
3, 263520, Note_off_c, 2, 62, 95
3, 263520, Note_off_c, 2, 57, 95
3, 263520, Note_off_c, 2, 54, 95
3, 263520, Note_off_c, 2, 50, 95
3, 263520, Note_on_c, 2, 66, 95
3, 263520, Note_on_c, 2, 62, 95
3, 263520, Note_on_c, 2, 57, 95
3, 263520, Note_on_c, 2, 54, 95
3, 263520, Note_on_c, 2, 50, 95
3, 264000, Note_off_c, 2, 66, 95
3, 264000, Note_off_c, 2, 62, 95
3, 264000, Note_off_c, 2, 57, 95
3, 264000, Note_off_c, 2, 54, 95
3, 264000, Note_off_c, 2, 50, 95
3, 264000, Note_on_c, 2, 66, 95
3, 264000, Note_on_c, 2, 62, 95
3, 264000, Note_on_c, 2, 57, 95
3, 264000, Note_on_c, 2, 54, 95
3, 264000, Note_on_c, 2, 50, 95
3, 264480, Note_off_c, 2, 66, 95
3, 264480, Note_off_c, 2, 62, 95
3, 264480, Note_off_c, 2, 57, 95
3, 264480, Note_off_c, 2, 54, 95
3, 264480, Note_off_c, 2, 50, 95
3, 264480, Note_on_c, 2, 66, 95
3, 264480, Note_on_c, 2, 62, 95
3, 264480, Note_on_c, 2, 57, 95
3, 264480, Note_on_c, 2, 54, 95
3, 264480, Note_on_c, 2, 50, 95
3, 264960, Note_off_c, 2, 66, 95
3, 264960, Note_off_c, 2, 62, 95
3, 264960, Note_off_c, 2, 57, 95
3, 264960, Note_off_c, 2, 54, 95
3, 264960, Note_off_c, 2, 50, 95
3, 264960, Note_on_c, 2, 66, 95
3, 264960, Note_on_c, 2, 62, 95
3, 264960, Note_on_c, 2, 57, 95
3, 264960, Note_on_c, 2, 54, 95
3, 264960, Note_on_c, 2, 50, 95
3, 265440, Note_off_c, 2, 66, 95
3, 265440, Note_off_c, 2, 62, 95
3, 265440, Note_off_c, 2, 57, 95
3, 265440, Note_off_c, 2, 54, 95
3, 265440, Note_off_c, 2, 50, 95
3, 265440, Note_on_c, 2, 66, 95
3, 265440, Note_on_c, 2, 62, 95
3, 265440, Note_on_c, 2, 57, 95
3, 265440, Note_on_c, 2, 54, 95
3, 265440, Note_on_c, 2, 50, 95
3, 266400, Note_off_c, 2, 66, 95
3, 266400, Note_off_c, 2, 62, 95
3, 266400, Note_off_c, 2, 57, 95
3, 266400, Note_off_c, 2, 54, 95
3, 266400, Note_off_c, 2, 50, 95
3, 266400, Note_on_c, 2, 66, 95
3, 266400, Note_on_c, 2, 62, 95
3, 266400, Note_on_c, 2, 57, 95
3, 266400, Note_on_c, 2, 54, 95
3, 266400, Note_on_c, 2, 50, 95
3, 266880, Note_off_c, 2, 66, 95
3, 266880, Note_off_c, 2, 62, 95
3, 266880, Note_off_c, 2, 57, 95
3, 266880, Note_off_c, 2, 54, 95
3, 266880, Note_off_c, 2, 50, 95
3, 266880, Note_on_c, 2, 66, 95
3, 266880, Note_on_c, 2, 62, 95
3, 266880, Note_on_c, 2, 57, 95
3, 266880, Note_on_c, 2, 54, 95
3, 266880, Note_on_c, 2, 50, 95
3, 267360, Note_off_c, 2, 66, 95
3, 267360, Note_off_c, 2, 62, 95
3, 267360, Note_off_c, 2, 57, 95
3, 267360, Note_off_c, 2, 54, 95
3, 267360, Note_off_c, 2, 50, 95
3, 267360, Note_on_c, 2, 66, 95
3, 267360, Note_on_c, 2, 62, 95
3, 267360, Note_on_c, 2, 57, 95
3, 267360, Note_on_c, 2, 54, 95
3, 267360, Note_on_c, 2, 50, 95
3, 267840, Note_off_c, 2, 66, 95
3, 267840, Note_off_c, 2, 62, 95
3, 267840, Note_off_c, 2, 57, 95
3, 267840, Note_off_c, 2, 54, 95
3, 267840, Note_off_c, 2, 50, 95
3, 267840, Note_on_c, 2, 66, 95
3, 267840, Note_on_c, 2, 62, 95
3, 267840, Note_on_c, 2, 57, 95
3, 267840, Note_on_c, 2, 54, 95
3, 267840, Note_on_c, 2, 50, 95
3, 268320, Note_off_c, 2, 66, 95
3, 268320, Note_off_c, 2, 62, 95
3, 268320, Note_off_c, 2, 57, 95
3, 268320, Note_off_c, 2, 54, 95
3, 268320, Note_off_c, 2, 50, 95
3, 268320, Note_on_c, 2, 66, 95
3, 268320, Note_on_c, 2, 62, 95
3, 268320, Note_on_c, 2, 57, 95
3, 268320, Note_on_c, 2, 54, 95
3, 268320, Note_on_c, 2, 50, 95
3, 268800, Note_off_c, 2, 66, 95
3, 268800, Note_off_c, 2, 62, 95
3, 268800, Note_off_c, 2, 57, 95
3, 268800, Note_off_c, 2, 54, 95
3, 268800, Note_off_c, 2, 50, 95
3, 268800, Note_on_c, 2, 68, 95
3, 268800, Note_on_c, 2, 64, 95
3, 268800, Note_on_c, 2, 59, 95
3, 268800, Note_on_c, 2, 52, 95
3, 269280, Note_off_c, 2, 68, 95
3, 269280, Note_off_c, 2, 64, 95
3, 269280, Note_off_c, 2, 59, 95
3, 269280, Note_off_c, 2, 52, 95
3, 269280, Note_on_c, 2, 68, 95
3, 269280, Note_on_c, 2, 64, 95
3, 269280, Note_on_c, 2, 59, 95
3, 269280, Note_on_c, 2, 52, 95
3, 269760, Note_off_c, 2, 68, 95
3, 269760, Note_off_c, 2, 64, 95
3, 269760, Note_off_c, 2, 59, 95
3, 269760, Note_off_c, 2, 52, 95
3, 269760, Note_on_c, 2, 68, 95
3, 269760, Note_on_c, 2, 64, 95
3, 269760, Note_on_c, 2, 59, 95
3, 269760, Note_on_c, 2, 52, 95
3, 270240, Note_off_c, 2, 68, 95
3, 270240, Note_off_c, 2, 64, 95
3, 270240, Note_off_c, 2, 59, 95
3, 270240, Note_off_c, 2, 52, 95
3, 270240, Note_on_c, 2, 68, 95
3, 270240, Note_on_c, 2, 64, 95
3, 270240, Note_on_c, 2, 59, 95
3, 270240, Note_on_c, 2, 52, 95
3, 270720, Note_off_c, 2, 68, 95
3, 270720, Note_off_c, 2, 64, 95
3, 270720, Note_off_c, 2, 59, 95
3, 270720, Note_off_c, 2, 52, 95
3, 270720, Note_on_c, 2, 68, 95
3, 270720, Note_on_c, 2, 64, 95
3, 270720, Note_on_c, 2, 59, 95
3, 270720, Note_on_c, 2, 52, 95
3, 271200, Note_off_c, 2, 68, 95
3, 271200, Note_off_c, 2, 64, 95
3, 271200, Note_off_c, 2, 59, 95
3, 271200, Note_off_c, 2, 52, 95
3, 271200, Note_on_c, 2, 68, 95
3, 271200, Note_on_c, 2, 64, 95
3, 271200, Note_on_c, 2, 59, 95
3, 271200, Note_on_c, 2, 52, 95
3, 271680, Note_off_c, 2, 68, 95
3, 271680, Note_off_c, 2, 64, 95
3, 271680, Note_off_c, 2, 59, 95
3, 271680, Note_off_c, 2, 52, 95
3, 271680, Note_on_c, 2, 68, 95
3, 271680, Note_on_c, 2, 64, 95
3, 271680, Note_on_c, 2, 59, 95
3, 271680, Note_on_c, 2, 52, 95
3, 272160, Note_off_c, 2, 68, 95
3, 272160, Note_off_c, 2, 64, 95
3, 272160, Note_off_c, 2, 59, 95
3, 272160, Note_off_c, 2, 52, 95
3, 272160, Note_on_c, 2, 68, 95
3, 272160, Note_on_c, 2, 64, 95
3, 272160, Note_on_c, 2, 59, 95
3, 272160, Note_on_c, 2, 52, 95
3, 272640, Note_off_c, 2, 68, 95
3, 272640, Note_off_c, 2, 64, 95
3, 272640, Note_off_c, 2, 59, 95
3, 272640, Note_off_c, 2, 52, 95
3, 272640, Note_on_c, 2, 68, 95
3, 272640, Note_on_c, 2, 64, 95
3, 272640, Note_on_c, 2, 59, 95
3, 272640, Note_on_c, 2, 52, 95
3, 273120, Note_off_c, 2, 68, 95
3, 273120, Note_off_c, 2, 64, 95
3, 273120, Note_off_c, 2, 59, 95
3, 273120, Note_off_c, 2, 52, 95
3, 273120, Note_on_c, 2, 68, 95
3, 273120, Note_on_c, 2, 64, 95
3, 273120, Note_on_c, 2, 59, 95
3, 273120, Note_on_c, 2, 52, 95
3, 273600, Note_off_c, 2, 68, 95
3, 273600, Note_off_c, 2, 64, 95
3, 273600, Note_off_c, 2, 59, 95
3, 273600, Note_off_c, 2, 52, 95
3, 273600, Note_on_c, 2, 68, 95
3, 273600, Note_on_c, 2, 64, 95
3, 273600, Note_on_c, 2, 59, 95
3, 273600, Note_on_c, 2, 52, 95
3, 274080, Note_off_c, 2, 68, 95
3, 274080, Note_off_c, 2, 64, 95
3, 274080, Note_off_c, 2, 59, 95
3, 274080, Note_off_c, 2, 52, 95
3, 274080, Note_on_c, 2, 68, 95
3, 274080, Note_on_c, 2, 64, 95
3, 274080, Note_on_c, 2, 59, 95
3, 274080, Note_on_c, 2, 52, 95
3, 274560, Note_off_c, 2, 68, 95
3, 274560, Note_off_c, 2, 64, 95
3, 274560, Note_off_c, 2, 59, 95
3, 274560, Note_off_c, 2, 52, 95
3, 274560, Note_on_c, 2, 68, 95
3, 274560, Note_on_c, 2, 64, 95
3, 274560, Note_on_c, 2, 59, 95
3, 274560, Note_on_c, 2, 52, 95
3, 275040, Note_off_c, 2, 68, 95
3, 275040, Note_off_c, 2, 64, 95
3, 275040, Note_off_c, 2, 59, 95
3, 275040, Note_off_c, 2, 52, 95
3, 275040, Note_on_c, 2, 68, 95
3, 275040, Note_on_c, 2, 64, 95
3, 275040, Note_on_c, 2, 59, 95
3, 275040, Note_on_c, 2, 52, 95
3, 275520, Note_off_c, 2, 68, 95
3, 275520, Note_off_c, 2, 64, 95
3, 275520, Note_off_c, 2, 59, 95
3, 275520, Note_off_c, 2, 52, 95
3, 275520, Note_on_c, 2, 68, 95
3, 275520, Note_on_c, 2, 64, 95
3, 275520, Note_on_c, 2, 59, 95
3, 275520, Note_on_c, 2, 52, 95
3, 276000, Note_off_c, 2, 68, 95
3, 276000, Note_off_c, 2, 64, 95
3, 276000, Note_off_c, 2, 59, 95
3, 276000, Note_off_c, 2, 52, 95
3, 276000, Note_on_c, 2, 68, 95
3, 276000, Note_on_c, 2, 64, 95
3, 276000, Note_on_c, 2, 59, 95
3, 276000, Note_on_c, 2, 52, 95
3, 276480, Note_off_c, 2, 68, 95
3, 276480, Note_off_c, 2, 64, 95
3, 276480, Note_off_c, 2, 59, 95
3, 276480, Note_off_c, 2, 52, 95
3, 276480, Note_on_c, 2, 66, 95
3, 276480, Note_on_c, 2, 63, 95
3, 276480, Note_on_c, 2, 59, 95
3, 276480, Note_on_c, 2, 54, 95
3, 276480, Note_on_c, 2, 47, 95
3, 276960, Note_off_c, 2, 66, 95
3, 276960, Note_off_c, 2, 63, 95
3, 276960, Note_off_c, 2, 59, 95
3, 276960, Note_off_c, 2, 54, 95
3, 276960, Note_off_c, 2, 47, 95
3, 276960, Note_on_c, 2, 66, 95
3, 276960, Note_on_c, 2, 63, 95
3, 276960, Note_on_c, 2, 59, 95
3, 276960, Note_on_c, 2, 54, 95
3, 276960, Note_on_c, 2, 47, 95
3, 277440, Note_off_c, 2, 66, 95
3, 277440, Note_off_c, 2, 63, 95
3, 277440, Note_off_c, 2, 59, 95
3, 277440, Note_off_c, 2, 54, 95
3, 277440, Note_off_c, 2, 47, 95
3, 277440, Note_on_c, 2, 66, 95
3, 277440, Note_on_c, 2, 63, 95
3, 277440, Note_on_c, 2, 59, 95
3, 277440, Note_on_c, 2, 54, 95
3, 277440, Note_on_c, 2, 47, 95
3, 277920, Note_off_c, 2, 66, 95
3, 277920, Note_off_c, 2, 63, 95
3, 277920, Note_off_c, 2, 59, 95
3, 277920, Note_off_c, 2, 54, 95
3, 277920, Note_off_c, 2, 47, 95
3, 277920, Note_on_c, 2, 66, 95
3, 277920, Note_on_c, 2, 63, 95
3, 277920, Note_on_c, 2, 59, 95
3, 277920, Note_on_c, 2, 54, 95
3, 277920, Note_on_c, 2, 47, 95
3, 278400, Note_off_c, 2, 66, 95
3, 278400, Note_off_c, 2, 63, 95
3, 278400, Note_off_c, 2, 59, 95
3, 278400, Note_off_c, 2, 54, 95
3, 278400, Note_off_c, 2, 47, 95
3, 278400, Note_on_c, 2, 66, 95
3, 278400, Note_on_c, 2, 63, 95
3, 278400, Note_on_c, 2, 59, 95
3, 278400, Note_on_c, 2, 54, 95
3, 278400, Note_on_c, 2, 47, 95
3, 278880, Note_off_c, 2, 66, 95
3, 278880, Note_off_c, 2, 63, 95
3, 278880, Note_off_c, 2, 59, 95
3, 278880, Note_off_c, 2, 54, 95
3, 278880, Note_off_c, 2, 47, 95
3, 278880, Note_on_c, 2, 66, 95
3, 278880, Note_on_c, 2, 63, 95
3, 278880, Note_on_c, 2, 59, 95
3, 278880, Note_on_c, 2, 54, 95
3, 278880, Note_on_c, 2, 47, 95
3, 279360, Note_off_c, 2, 66, 95
3, 279360, Note_off_c, 2, 63, 95
3, 279360, Note_off_c, 2, 59, 95
3, 279360, Note_off_c, 2, 54, 95
3, 279360, Note_off_c, 2, 47, 95
3, 279360, Note_on_c, 2, 66, 95
3, 279360, Note_on_c, 2, 63, 95
3, 279360, Note_on_c, 2, 59, 95
3, 279360, Note_on_c, 2, 54, 95
3, 279360, Note_on_c, 2, 47, 95
3, 279840, Note_off_c, 2, 66, 95
3, 279840, Note_off_c, 2, 63, 95
3, 279840, Note_off_c, 2, 59, 95
3, 279840, Note_off_c, 2, 54, 95
3, 279840, Note_off_c, 2, 47, 95
3, 279840, Note_on_c, 2, 66, 95
3, 279840, Note_on_c, 2, 63, 95
3, 279840, Note_on_c, 2, 59, 95
3, 279840, Note_on_c, 2, 54, 95
3, 279840, Note_on_c, 2, 47, 95
3, 280320, Note_off_c, 2, 66, 95
3, 280320, Note_off_c, 2, 63, 95
3, 280320, Note_off_c, 2, 59, 95
3, 280320, Note_off_c, 2, 54, 95
3, 280320, Note_off_c, 2, 47, 95
3, 280320, Note_on_c, 2, 66, 95
3, 280320, Note_on_c, 2, 63, 95
3, 280320, Note_on_c, 2, 59, 95
3, 280320, Note_on_c, 2, 54, 95
3, 280320, Note_on_c, 2, 47, 95
3, 280800, Note_off_c, 2, 66, 95
3, 280800, Note_off_c, 2, 63, 95
3, 280800, Note_off_c, 2, 59, 95
3, 280800, Note_off_c, 2, 54, 95
3, 280800, Note_off_c, 2, 47, 95
3, 280800, Note_on_c, 2, 66, 95
3, 280800, Note_on_c, 2, 63, 95
3, 280800, Note_on_c, 2, 59, 95
3, 280800, Note_on_c, 2, 54, 95
3, 280800, Note_on_c, 2, 47, 95
3, 281280, Note_off_c, 2, 66, 95
3, 281280, Note_off_c, 2, 63, 95
3, 281280, Note_off_c, 2, 59, 95
3, 281280, Note_off_c, 2, 54, 95
3, 281280, Note_off_c, 2, 47, 95
3, 281280, Note_on_c, 2, 66, 95
3, 281280, Note_on_c, 2, 63, 95
3, 281280, Note_on_c, 2, 59, 95
3, 281280, Note_on_c, 2, 54, 95
3, 281280, Note_on_c, 2, 47, 95
3, 281760, Note_off_c, 2, 66, 95
3, 281760, Note_off_c, 2, 63, 95
3, 281760, Note_off_c, 2, 59, 95
3, 281760, Note_off_c, 2, 54, 95
3, 281760, Note_off_c, 2, 47, 95
3, 281760, Note_on_c, 2, 66, 95
3, 281760, Note_on_c, 2, 63, 95
3, 281760, Note_on_c, 2, 59, 95
3, 281760, Note_on_c, 2, 54, 95
3, 281760, Note_on_c, 2, 47, 95
3, 282240, Note_off_c, 2, 66, 95
3, 282240, Note_off_c, 2, 63, 95
3, 282240, Note_off_c, 2, 59, 95
3, 282240, Note_off_c, 2, 54, 95
3, 282240, Note_off_c, 2, 47, 95
3, 282240, Note_on_c, 2, 66, 95
3, 282240, Note_on_c, 2, 63, 95
3, 282240, Note_on_c, 2, 59, 95
3, 282240, Note_on_c, 2, 54, 95
3, 282240, Note_on_c, 2, 47, 95
3, 282720, Note_off_c, 2, 66, 95
3, 282720, Note_off_c, 2, 63, 95
3, 282720, Note_off_c, 2, 59, 95
3, 282720, Note_off_c, 2, 54, 95
3, 282720, Note_off_c, 2, 47, 95
3, 282720, Note_on_c, 2, 66, 95
3, 282720, Note_on_c, 2, 63, 95
3, 282720, Note_on_c, 2, 59, 95
3, 282720, Note_on_c, 2, 54, 95
3, 282720, Note_on_c, 2, 47, 95
3, 283200, Note_off_c, 2, 66, 95
3, 283200, Note_off_c, 2, 63, 95
3, 283200, Note_off_c, 2, 59, 95
3, 283200, Note_off_c, 2, 54, 95
3, 283200, Note_off_c, 2, 47, 95
3, 283200, Note_on_c, 2, 66, 95
3, 283200, Note_on_c, 2, 63, 95
3, 283200, Note_on_c, 2, 59, 95
3, 283200, Note_on_c, 2, 54, 95
3, 283200, Note_on_c, 2, 47, 95
3, 283680, Note_off_c, 2, 66, 95
3, 283680, Note_off_c, 2, 63, 95
3, 283680, Note_off_c, 2, 59, 95
3, 283680, Note_off_c, 2, 54, 95
3, 283680, Note_off_c, 2, 47, 95
3, 283680, Note_on_c, 2, 66, 95
3, 283680, Note_on_c, 2, 63, 95
3, 283680, Note_on_c, 2, 59, 95
3, 283680, Note_on_c, 2, 54, 95
3, 283680, Note_on_c, 2, 47, 95
3, 284160, Note_off_c, 2, 66, 95
3, 284160, Note_off_c, 2, 63, 95
3, 284160, Note_off_c, 2, 59, 95
3, 284160, Note_off_c, 2, 54, 95
3, 284160, Note_off_c, 2, 47, 95
3, 284160, Note_on_c, 2, 68, 95
3, 284160, Note_on_c, 2, 64, 95
3, 284160, Note_on_c, 2, 61, 95
3, 284160, Note_on_c, 2, 56, 95
3, 284160, Note_on_c, 2, 49, 95
3, 284640, Note_off_c, 2, 68, 95
3, 284640, Note_off_c, 2, 64, 95
3, 284640, Note_off_c, 2, 61, 95
3, 284640, Note_off_c, 2, 56, 95
3, 284640, Note_off_c, 2, 49, 95
3, 284640, Note_on_c, 2, 68, 95
3, 284640, Note_on_c, 2, 64, 95
3, 284640, Note_on_c, 2, 61, 95
3, 284640, Note_on_c, 2, 56, 95
3, 284640, Note_on_c, 2, 49, 95
3, 285120, Note_off_c, 2, 68, 95
3, 285120, Note_off_c, 2, 64, 95
3, 285120, Note_off_c, 2, 61, 95
3, 285120, Note_off_c, 2, 56, 95
3, 285120, Note_off_c, 2, 49, 95
3, 285120, Note_on_c, 2, 68, 95
3, 285120, Note_on_c, 2, 64, 95
3, 285120, Note_on_c, 2, 61, 95
3, 285120, Note_on_c, 2, 56, 95
3, 285120, Note_on_c, 2, 49, 95
3, 285600, Note_off_c, 2, 68, 95
3, 285600, Note_off_c, 2, 64, 95
3, 285600, Note_off_c, 2, 61, 95
3, 285600, Note_off_c, 2, 56, 95
3, 285600, Note_off_c, 2, 49, 95
3, 285600, Note_on_c, 2, 68, 95
3, 285600, Note_on_c, 2, 64, 95
3, 285600, Note_on_c, 2, 61, 95
3, 285600, Note_on_c, 2, 56, 95
3, 285600, Note_on_c, 2, 49, 95
3, 286080, Note_off_c, 2, 68, 95
3, 286080, Note_off_c, 2, 64, 95
3, 286080, Note_off_c, 2, 61, 95
3, 286080, Note_off_c, 2, 56, 95
3, 286080, Note_off_c, 2, 49, 95
3, 286080, Note_on_c, 2, 68, 95
3, 286080, Note_on_c, 2, 64, 95
3, 286080, Note_on_c, 2, 61, 95
3, 286080, Note_on_c, 2, 56, 95
3, 286080, Note_on_c, 2, 49, 95
3, 286560, Note_off_c, 2, 68, 95
3, 286560, Note_off_c, 2, 64, 95
3, 286560, Note_off_c, 2, 61, 95
3, 286560, Note_off_c, 2, 56, 95
3, 286560, Note_off_c, 2, 49, 95
3, 286560, Note_on_c, 2, 68, 95
3, 286560, Note_on_c, 2, 64, 95
3, 286560, Note_on_c, 2, 61, 95
3, 286560, Note_on_c, 2, 56, 95
3, 286560, Note_on_c, 2, 49, 95
3, 287040, Note_off_c, 2, 68, 95
3, 287040, Note_off_c, 2, 64, 95
3, 287040, Note_off_c, 2, 61, 95
3, 287040, Note_off_c, 2, 56, 95
3, 287040, Note_off_c, 2, 49, 95
3, 287040, Note_on_c, 2, 68, 95
3, 287040, Note_on_c, 2, 64, 95
3, 287040, Note_on_c, 2, 61, 95
3, 287040, Note_on_c, 2, 56, 95
3, 287040, Note_on_c, 2, 49, 95
3, 287520, Note_off_c, 2, 68, 95
3, 287520, Note_off_c, 2, 64, 95
3, 287520, Note_off_c, 2, 61, 95
3, 287520, Note_off_c, 2, 56, 95
3, 287520, Note_off_c, 2, 49, 95
3, 287520, Note_on_c, 2, 68, 95
3, 287520, Note_on_c, 2, 64, 95
3, 287520, Note_on_c, 2, 61, 95
3, 287520, Note_on_c, 2, 56, 95
3, 287520, Note_on_c, 2, 49, 95
3, 288000, Note_off_c, 2, 68, 95
3, 288000, Note_off_c, 2, 64, 95
3, 288000, Note_off_c, 2, 61, 95
3, 288000, Note_off_c, 2, 56, 95
3, 288000, Note_off_c, 2, 49, 95
3, 288000, Note_on_c, 2, 68, 95
3, 288000, Note_on_c, 2, 64, 95
3, 288000, Note_on_c, 2, 61, 95
3, 288000, Note_on_c, 2, 56, 95
3, 288000, Note_on_c, 2, 49, 95
3, 288480, Note_off_c, 2, 68, 95
3, 288480, Note_off_c, 2, 64, 95
3, 288480, Note_off_c, 2, 61, 95
3, 288480, Note_off_c, 2, 56, 95
3, 288480, Note_off_c, 2, 49, 95
3, 288480, Note_on_c, 2, 68, 95
3, 288480, Note_on_c, 2, 64, 95
3, 288480, Note_on_c, 2, 61, 95
3, 288480, Note_on_c, 2, 56, 95
3, 288480, Note_on_c, 2, 49, 95
3, 288960, Note_off_c, 2, 68, 95
3, 288960, Note_off_c, 2, 64, 95
3, 288960, Note_off_c, 2, 61, 95
3, 288960, Note_off_c, 2, 56, 95
3, 288960, Note_off_c, 2, 49, 95
3, 288960, Note_on_c, 2, 68, 95
3, 288960, Note_on_c, 2, 64, 95
3, 288960, Note_on_c, 2, 61, 95
3, 288960, Note_on_c, 2, 56, 95
3, 288960, Note_on_c, 2, 49, 95
3, 289440, Note_off_c, 2, 68, 95
3, 289440, Note_off_c, 2, 64, 95
3, 289440, Note_off_c, 2, 61, 95
3, 289440, Note_off_c, 2, 56, 95
3, 289440, Note_off_c, 2, 49, 95
3, 289440, Note_on_c, 2, 68, 95
3, 289440, Note_on_c, 2, 64, 95
3, 289440, Note_on_c, 2, 61, 95
3, 289440, Note_on_c, 2, 56, 95
3, 289440, Note_on_c, 2, 49, 95
3, 289920, Note_off_c, 2, 68, 95
3, 289920, Note_off_c, 2, 64, 95
3, 289920, Note_off_c, 2, 61, 95
3, 289920, Note_off_c, 2, 56, 95
3, 289920, Note_off_c, 2, 49, 95
3, 289920, Note_on_c, 2, 68, 95
3, 289920, Note_on_c, 2, 64, 95
3, 289920, Note_on_c, 2, 61, 95
3, 289920, Note_on_c, 2, 56, 95
3, 289920, Note_on_c, 2, 49, 95
3, 290400, Note_off_c, 2, 68, 95
3, 290400, Note_off_c, 2, 64, 95
3, 290400, Note_off_c, 2, 61, 95
3, 290400, Note_off_c, 2, 56, 95
3, 290400, Note_off_c, 2, 49, 95
3, 290400, Note_on_c, 2, 68, 95
3, 290400, Note_on_c, 2, 64, 95
3, 290400, Note_on_c, 2, 61, 95
3, 290400, Note_on_c, 2, 56, 95
3, 290400, Note_on_c, 2, 49, 95
3, 290880, Note_off_c, 2, 68, 95
3, 290880, Note_off_c, 2, 64, 95
3, 290880, Note_off_c, 2, 61, 95
3, 290880, Note_off_c, 2, 56, 95
3, 290880, Note_off_c, 2, 49, 95
3, 290880, Note_on_c, 2, 68, 95
3, 290880, Note_on_c, 2, 64, 95
3, 290880, Note_on_c, 2, 61, 95
3, 290880, Note_on_c, 2, 56, 95
3, 290880, Note_on_c, 2, 49, 95
3, 291360, Note_off_c, 2, 68, 95
3, 291360, Note_off_c, 2, 64, 95
3, 291360, Note_off_c, 2, 61, 95
3, 291360, Note_off_c, 2, 56, 95
3, 291360, Note_off_c, 2, 49, 95
3, 291360, Note_on_c, 2, 68, 95
3, 291360, Note_on_c, 2, 64, 95
3, 291360, Note_on_c, 2, 61, 95
3, 291360, Note_on_c, 2, 56, 95
3, 291360, Note_on_c, 2, 49, 95
3, 291840, Note_off_c, 2, 68, 95
3, 291840, Note_off_c, 2, 64, 95
3, 291840, Note_off_c, 2, 61, 95
3, 291840, Note_off_c, 2, 56, 95
3, 291840, Note_off_c, 2, 49, 95
3, 291840, Note_on_c, 2, 66, 95
3, 291840, Note_on_c, 2, 62, 95
3, 291840, Note_on_c, 2, 57, 95
3, 291840, Note_on_c, 2, 54, 95
3, 291840, Note_on_c, 2, 50, 95
3, 292320, Note_off_c, 2, 66, 95
3, 292320, Note_off_c, 2, 62, 95
3, 292320, Note_off_c, 2, 57, 95
3, 292320, Note_off_c, 2, 54, 95
3, 292320, Note_off_c, 2, 50, 95
3, 292320, Note_on_c, 2, 66, 95
3, 292320, Note_on_c, 2, 62, 95
3, 292320, Note_on_c, 2, 57, 95
3, 292320, Note_on_c, 2, 54, 95
3, 292320, Note_on_c, 2, 50, 95
3, 292800, Note_off_c, 2, 66, 95
3, 292800, Note_off_c, 2, 62, 95
3, 292800, Note_off_c, 2, 57, 95
3, 292800, Note_off_c, 2, 54, 95
3, 292800, Note_off_c, 2, 50, 95
3, 292800, Note_on_c, 2, 66, 95
3, 292800, Note_on_c, 2, 62, 95
3, 292800, Note_on_c, 2, 57, 95
3, 292800, Note_on_c, 2, 54, 95
3, 292800, Note_on_c, 2, 50, 95
3, 293280, Note_off_c, 2, 66, 95
3, 293280, Note_off_c, 2, 62, 95
3, 293280, Note_off_c, 2, 57, 95
3, 293280, Note_off_c, 2, 54, 95
3, 293280, Note_off_c, 2, 50, 95
3, 293280, Note_on_c, 2, 66, 95
3, 293280, Note_on_c, 2, 62, 95
3, 293280, Note_on_c, 2, 57, 95
3, 293280, Note_on_c, 2, 54, 95
3, 293280, Note_on_c, 2, 50, 95
3, 293760, Note_off_c, 2, 66, 95
3, 293760, Note_off_c, 2, 62, 95
3, 293760, Note_off_c, 2, 57, 95
3, 293760, Note_off_c, 2, 54, 95
3, 293760, Note_off_c, 2, 50, 95
3, 293760, Note_on_c, 2, 66, 95
3, 293760, Note_on_c, 2, 62, 95
3, 293760, Note_on_c, 2, 57, 95
3, 293760, Note_on_c, 2, 54, 95
3, 293760, Note_on_c, 2, 50, 95
3, 294240, Note_off_c, 2, 66, 95
3, 294240, Note_off_c, 2, 62, 95
3, 294240, Note_off_c, 2, 57, 95
3, 294240, Note_off_c, 2, 54, 95
3, 294240, Note_off_c, 2, 50, 95
3, 294240, Note_on_c, 2, 66, 95
3, 294240, Note_on_c, 2, 62, 95
3, 294240, Note_on_c, 2, 57, 95
3, 294240, Note_on_c, 2, 54, 95
3, 294240, Note_on_c, 2, 50, 95
3, 294720, Note_off_c, 2, 66, 95
3, 294720, Note_off_c, 2, 62, 95
3, 294720, Note_off_c, 2, 57, 95
3, 294720, Note_off_c, 2, 54, 95
3, 294720, Note_off_c, 2, 50, 95
3, 294720, Note_on_c, 2, 66, 95
3, 294720, Note_on_c, 2, 62, 95
3, 294720, Note_on_c, 2, 57, 95
3, 294720, Note_on_c, 2, 54, 95
3, 294720, Note_on_c, 2, 50, 95
3, 295200, Note_off_c, 2, 66, 95
3, 295200, Note_off_c, 2, 62, 95
3, 295200, Note_off_c, 2, 57, 95
3, 295200, Note_off_c, 2, 54, 95
3, 295200, Note_off_c, 2, 50, 95
3, 295200, Note_on_c, 2, 66, 95
3, 295200, Note_on_c, 2, 62, 95
3, 295200, Note_on_c, 2, 57, 95
3, 295200, Note_on_c, 2, 54, 95
3, 295200, Note_on_c, 2, 50, 95
3, 295680, Note_off_c, 2, 66, 95
3, 295680, Note_off_c, 2, 62, 95
3, 295680, Note_off_c, 2, 57, 95
3, 295680, Note_off_c, 2, 54, 95
3, 295680, Note_off_c, 2, 50, 95
3, 295680, Note_on_c, 2, 66, 95
3, 295680, Note_on_c, 2, 62, 95
3, 295680, Note_on_c, 2, 57, 95
3, 295680, Note_on_c, 2, 54, 95
3, 295680, Note_on_c, 2, 50, 95
3, 296160, Note_off_c, 2, 66, 95
3, 296160, Note_off_c, 2, 62, 95
3, 296160, Note_off_c, 2, 57, 95
3, 296160, Note_off_c, 2, 54, 95
3, 296160, Note_off_c, 2, 50, 95
3, 296160, Note_on_c, 2, 66, 95
3, 296160, Note_on_c, 2, 62, 95
3, 296160, Note_on_c, 2, 57, 95
3, 296160, Note_on_c, 2, 54, 95
3, 296160, Note_on_c, 2, 50, 95
3, 296640, Note_off_c, 2, 66, 95
3, 296640, Note_off_c, 2, 62, 95
3, 296640, Note_off_c, 2, 57, 95
3, 296640, Note_off_c, 2, 54, 95
3, 296640, Note_off_c, 2, 50, 95
3, 296640, Note_on_c, 2, 66, 95
3, 296640, Note_on_c, 2, 62, 95
3, 296640, Note_on_c, 2, 57, 95
3, 296640, Note_on_c, 2, 54, 95
3, 296640, Note_on_c, 2, 50, 95
3, 297120, Note_off_c, 2, 66, 95
3, 297120, Note_off_c, 2, 62, 95
3, 297120, Note_off_c, 2, 57, 95
3, 297120, Note_off_c, 2, 54, 95
3, 297120, Note_off_c, 2, 50, 95
3, 297120, Note_on_c, 2, 66, 95
3, 297120, Note_on_c, 2, 62, 95
3, 297120, Note_on_c, 2, 57, 95
3, 297120, Note_on_c, 2, 54, 95
3, 297120, Note_on_c, 2, 50, 95
3, 297600, Note_off_c, 2, 66, 95
3, 297600, Note_off_c, 2, 62, 95
3, 297600, Note_off_c, 2, 57, 95
3, 297600, Note_off_c, 2, 54, 95
3, 297600, Note_off_c, 2, 50, 95
3, 297600, Note_on_c, 2, 66, 95
3, 297600, Note_on_c, 2, 62, 95
3, 297600, Note_on_c, 2, 57, 95
3, 297600, Note_on_c, 2, 54, 95
3, 297600, Note_on_c, 2, 50, 95
3, 298080, Note_off_c, 2, 66, 95
3, 298080, Note_off_c, 2, 62, 95
3, 298080, Note_off_c, 2, 57, 95
3, 298080, Note_off_c, 2, 54, 95
3, 298080, Note_off_c, 2, 50, 95
3, 298080, Note_on_c, 2, 66, 95
3, 298080, Note_on_c, 2, 62, 95
3, 298080, Note_on_c, 2, 57, 95
3, 298080, Note_on_c, 2, 54, 95
3, 298080, Note_on_c, 2, 50, 95
3, 298560, Note_off_c, 2, 66, 95
3, 298560, Note_off_c, 2, 62, 95
3, 298560, Note_off_c, 2, 57, 95
3, 298560, Note_off_c, 2, 54, 95
3, 298560, Note_off_c, 2, 50, 95
3, 298560, Note_on_c, 2, 66, 95
3, 298560, Note_on_c, 2, 62, 95
3, 298560, Note_on_c, 2, 57, 95
3, 298560, Note_on_c, 2, 54, 95
3, 298560, Note_on_c, 2, 50, 95
3, 299040, Note_off_c, 2, 66, 95
3, 299040, Note_off_c, 2, 62, 95
3, 299040, Note_off_c, 2, 57, 95
3, 299040, Note_off_c, 2, 54, 95
3, 299040, Note_off_c, 2, 50, 95
3, 299040, Note_on_c, 2, 66, 95
3, 299040, Note_on_c, 2, 62, 95
3, 299040, Note_on_c, 2, 57, 95
3, 299040, Note_on_c, 2, 54, 95
3, 299040, Note_on_c, 2, 50, 95
3, 299520, Note_off_c, 2, 66, 95
3, 299520, Note_off_c, 2, 62, 95
3, 299520, Note_off_c, 2, 57, 95
3, 299520, Note_off_c, 2, 54, 95
3, 299520, Note_off_c, 2, 50, 95
3, 299520, Note_on_c, 2, 68, 95
3, 299520, Note_on_c, 2, 64, 95
3, 299520, Note_on_c, 2, 59, 95
3, 299520, Note_on_c, 2, 52, 95
3, 300000, Note_off_c, 2, 68, 95
3, 300000, Note_off_c, 2, 64, 95
3, 300000, Note_off_c, 2, 59, 95
3, 300000, Note_off_c, 2, 52, 95
3, 300000, Note_on_c, 2, 68, 95
3, 300000, Note_on_c, 2, 64, 95
3, 300000, Note_on_c, 2, 59, 95
3, 300000, Note_on_c, 2, 52, 95
3, 300480, Note_off_c, 2, 68, 95
3, 300480, Note_off_c, 2, 64, 95
3, 300480, Note_off_c, 2, 59, 95
3, 300480, Note_off_c, 2, 52, 95
3, 300480, Note_on_c, 2, 68, 95
3, 300480, Note_on_c, 2, 64, 95
3, 300480, Note_on_c, 2, 59, 95
3, 300480, Note_on_c, 2, 52, 95
3, 300960, Note_off_c, 2, 68, 95
3, 300960, Note_off_c, 2, 64, 95
3, 300960, Note_off_c, 2, 59, 95
3, 300960, Note_off_c, 2, 52, 95
3, 300960, Note_on_c, 2, 68, 95
3, 300960, Note_on_c, 2, 64, 95
3, 300960, Note_on_c, 2, 59, 95
3, 300960, Note_on_c, 2, 52, 95
3, 301440, Note_off_c, 2, 68, 95
3, 301440, Note_off_c, 2, 64, 95
3, 301440, Note_off_c, 2, 59, 95
3, 301440, Note_off_c, 2, 52, 95
3, 301440, Note_on_c, 2, 68, 95
3, 301440, Note_on_c, 2, 64, 95
3, 301440, Note_on_c, 2, 59, 95
3, 301440, Note_on_c, 2, 52, 95
3, 301920, Note_off_c, 2, 68, 95
3, 301920, Note_off_c, 2, 64, 95
3, 301920, Note_off_c, 2, 59, 95
3, 301920, Note_off_c, 2, 52, 95
3, 301920, Note_on_c, 2, 68, 95
3, 301920, Note_on_c, 2, 64, 95
3, 301920, Note_on_c, 2, 59, 95
3, 301920, Note_on_c, 2, 52, 95
3, 302400, Note_off_c, 2, 68, 95
3, 302400, Note_off_c, 2, 64, 95
3, 302400, Note_off_c, 2, 59, 95
3, 302400, Note_off_c, 2, 52, 95
3, 302400, Note_on_c, 2, 68, 95
3, 302400, Note_on_c, 2, 64, 95
3, 302400, Note_on_c, 2, 59, 95
3, 302400, Note_on_c, 2, 52, 95
3, 302880, Note_off_c, 2, 68, 95
3, 302880, Note_off_c, 2, 64, 95
3, 302880, Note_off_c, 2, 59, 95
3, 302880, Note_off_c, 2, 52, 95
3, 302880, Note_on_c, 2, 68, 95
3, 302880, Note_on_c, 2, 64, 95
3, 302880, Note_on_c, 2, 59, 95
3, 302880, Note_on_c, 2, 52, 95
3, 303360, Note_off_c, 2, 68, 95
3, 303360, Note_off_c, 2, 64, 95
3, 303360, Note_off_c, 2, 59, 95
3, 303360, Note_off_c, 2, 52, 95
3, 303360, Note_on_c, 2, 68, 95
3, 303360, Note_on_c, 2, 64, 95
3, 303360, Note_on_c, 2, 59, 95
3, 303360, Note_on_c, 2, 52, 95
3, 303840, Note_off_c, 2, 68, 95
3, 303840, Note_off_c, 2, 64, 95
3, 303840, Note_off_c, 2, 59, 95
3, 303840, Note_off_c, 2, 52, 95
3, 303840, Note_on_c, 2, 68, 95
3, 303840, Note_on_c, 2, 64, 95
3, 303840, Note_on_c, 2, 59, 95
3, 303840, Note_on_c, 2, 52, 95
3, 304320, Note_off_c, 2, 68, 95
3, 304320, Note_off_c, 2, 64, 95
3, 304320, Note_off_c, 2, 59, 95
3, 304320, Note_off_c, 2, 52, 95
3, 304320, Note_on_c, 2, 68, 95
3, 304320, Note_on_c, 2, 64, 95
3, 304320, Note_on_c, 2, 59, 95
3, 304320, Note_on_c, 2, 52, 95
3, 304800, Note_off_c, 2, 68, 95
3, 304800, Note_off_c, 2, 64, 95
3, 304800, Note_off_c, 2, 59, 95
3, 304800, Note_off_c, 2, 52, 95
3, 304800, Note_on_c, 2, 68, 95
3, 304800, Note_on_c, 2, 64, 95
3, 304800, Note_on_c, 2, 59, 95
3, 304800, Note_on_c, 2, 52, 95
3, 305280, Note_off_c, 2, 68, 95
3, 305280, Note_off_c, 2, 64, 95
3, 305280, Note_off_c, 2, 59, 95
3, 305280, Note_off_c, 2, 52, 95
3, 305280, Note_on_c, 2, 68, 95
3, 305280, Note_on_c, 2, 64, 95
3, 305280, Note_on_c, 2, 59, 95
3, 305280, Note_on_c, 2, 52, 95
3, 305760, Note_off_c, 2, 68, 95
3, 305760, Note_off_c, 2, 64, 95
3, 305760, Note_off_c, 2, 59, 95
3, 305760, Note_off_c, 2, 52, 95
3, 305760, Note_on_c, 2, 68, 95
3, 305760, Note_on_c, 2, 64, 95
3, 305760, Note_on_c, 2, 59, 95
3, 305760, Note_on_c, 2, 52, 95
3, 306240, Note_off_c, 2, 68, 95
3, 306240, Note_off_c, 2, 64, 95
3, 306240, Note_off_c, 2, 59, 95
3, 306240, Note_off_c, 2, 52, 95
3, 306240, Note_on_c, 2, 68, 95
3, 306240, Note_on_c, 2, 64, 95
3, 306240, Note_on_c, 2, 59, 95
3, 306240, Note_on_c, 2, 52, 95
3, 306720, Note_off_c, 2, 68, 95
3, 306720, Note_off_c, 2, 64, 95
3, 306720, Note_off_c, 2, 59, 95
3, 306720, Note_off_c, 2, 52, 95
3, 306720, Note_on_c, 2, 68, 95
3, 306720, Note_on_c, 2, 64, 95
3, 306720, Note_on_c, 2, 59, 95
3, 306720, Note_on_c, 2, 52, 95
3, 307200, Note_off_c, 2, 68, 95
3, 307200, Note_off_c, 2, 64, 95
3, 307200, Note_off_c, 2, 59, 95
3, 307200, Note_off_c, 2, 52, 95
3, 307200, Note_on_c, 2, 69, 95
3, 307200, Note_on_c, 2, 61, 95
3, 307200, Note_on_c, 2, 57, 95
3, 307200, Note_on_c, 2, 52, 95
3, 307200, Note_on_c, 2, 49, 95
3, 307200, Note_on_c, 2, 45, 95
3, 308160, Note_off_c, 2, 69, 95
3, 308160, Note_off_c, 2, 61, 95
3, 308160, Note_off_c, 2, 57, 95
3, 308160, Note_off_c, 2, 52, 95
3, 308160, Note_off_c, 2, 49, 95
3, 308160, Note_off_c, 2, 45, 95
3, 308160, Note_on_c, 2, 69, 95
3, 308160, Note_on_c, 2, 61, 95
3, 308160, Note_on_c, 2, 57, 95
3, 308160, Note_on_c, 2, 52, 95
3, 308160, Note_on_c, 2, 49, 95
3, 308160, Note_on_c, 2, 45, 95
3, 308640, Note_off_c, 2, 69, 95
3, 308640, Note_off_c, 2, 61, 95
3, 308640, Note_off_c, 2, 57, 95
3, 308640, Note_off_c, 2, 52, 95
3, 308640, Note_off_c, 2, 49, 95
3, 308640, Note_off_c, 2, 45, 95
3, 308640, Note_on_c, 2, 69, 95
3, 308640, Note_on_c, 2, 61, 95
3, 308640, Note_on_c, 2, 57, 95
3, 308640, Note_on_c, 2, 52, 95
3, 308640, Note_on_c, 2, 49, 95
3, 308640, Note_on_c, 2, 45, 95
3, 309120, Note_off_c, 2, 69, 95
3, 309120, Note_off_c, 2, 61, 95
3, 309120, Note_off_c, 2, 57, 95
3, 309120, Note_off_c, 2, 52, 95
3, 309120, Note_off_c, 2, 49, 95
3, 309120, Note_off_c, 2, 45, 95
3, 309120, Note_on_c, 2, 66, 95
3, 309120, Note_on_c, 2, 62, 95
3, 309120, Note_on_c, 2, 57, 95
3, 309120, Note_on_c, 2, 54, 95
3, 309120, Note_on_c, 2, 50, 95
3, 310080, Note_off_c, 2, 66, 95
3, 310080, Note_off_c, 2, 62, 95
3, 310080, Note_off_c, 2, 57, 95
3, 310080, Note_off_c, 2, 54, 95
3, 310080, Note_off_c, 2, 50, 95
3, 310080, Note_on_c, 2, 66, 95
3, 310080, Note_on_c, 2, 62, 95
3, 310080, Note_on_c, 2, 57, 95
3, 310080, Note_on_c, 2, 54, 95
3, 310080, Note_on_c, 2, 50, 95
3, 310560, Note_off_c, 2, 66, 95
3, 310560, Note_off_c, 2, 62, 95
3, 310560, Note_off_c, 2, 57, 95
3, 310560, Note_off_c, 2, 54, 95
3, 310560, Note_off_c, 2, 50, 95
3, 310560, Note_on_c, 2, 66, 95
3, 310560, Note_on_c, 2, 61, 95
3, 310560, Note_on_c, 2, 57, 95
3, 310560, Note_on_c, 2, 52, 95
3, 311040, Note_off_c, 2, 66, 95
3, 311040, Note_off_c, 2, 61, 95
3, 311040, Note_off_c, 2, 57, 95
3, 311040, Note_off_c, 2, 52, 95
3, 311040, Note_on_c, 2, 69, 95
3, 311040, Note_on_c, 2, 61, 95
3, 311040, Note_on_c, 2, 57, 95
3, 311040, Note_on_c, 2, 52, 95
3, 311040, Note_on_c, 2, 49, 95
3, 311040, Note_on_c, 2, 45, 95
3, 312000, Note_off_c, 2, 69, 95
3, 312000, Note_off_c, 2, 61, 95
3, 312000, Note_off_c, 2, 57, 95
3, 312000, Note_off_c, 2, 52, 95
3, 312000, Note_off_c, 2, 49, 95
3, 312000, Note_off_c, 2, 45, 95
3, 312000, Note_on_c, 2, 69, 95
3, 312000, Note_on_c, 2, 61, 95
3, 312000, Note_on_c, 2, 57, 95
3, 312000, Note_on_c, 2, 52, 95
3, 312000, Note_on_c, 2, 49, 95
3, 312000, Note_on_c, 2, 45, 95
3, 312480, Note_off_c, 2, 69, 95
3, 312480, Note_off_c, 2, 61, 95
3, 312480, Note_off_c, 2, 57, 95
3, 312480, Note_off_c, 2, 52, 95
3, 312480, Note_off_c, 2, 49, 95
3, 312480, Note_off_c, 2, 45, 95
3, 312480, Note_on_c, 2, 69, 95
3, 312480, Note_on_c, 2, 61, 95
3, 312480, Note_on_c, 2, 57, 95
3, 312480, Note_on_c, 2, 52, 95
3, 312480, Note_on_c, 2, 49, 95
3, 312480, Note_on_c, 2, 45, 95
3, 312960, Note_off_c, 2, 69, 95
3, 312960, Note_off_c, 2, 61, 95
3, 312960, Note_off_c, 2, 57, 95
3, 312960, Note_off_c, 2, 52, 95
3, 312960, Note_off_c, 2, 49, 95
3, 312960, Note_off_c, 2, 45, 95
3, 312960, Note_on_c, 2, 66, 95
3, 312960, Note_on_c, 2, 62, 95
3, 312960, Note_on_c, 2, 57, 95
3, 312960, Note_on_c, 2, 54, 95
3, 312960, Note_on_c, 2, 50, 95
3, 313440, Note_off_c, 2, 66, 95
3, 313440, Note_off_c, 2, 62, 95
3, 313440, Note_off_c, 2, 57, 95
3, 313440, Note_off_c, 2, 54, 95
3, 313440, Note_off_c, 2, 50, 95
3, 313440, Note_on_c, 2, 52, 95
3, 313920, Note_off_c, 2, 52, 95
3, 313920, Note_on_c, 2, 54, 70
3, 314400, Note_off_c, 2, 54, 70
3, 314400, Note_on_c, 2, 57, 95
3, 314880, Note_off_c, 2, 57, 95
3, 314880, Note_on_c, 2, 69, 95
3, 314880, Note_on_c, 2, 61, 95
3, 314880, Note_on_c, 2, 57, 95
3, 314880, Note_on_c, 2, 52, 95
3, 314880, Note_on_c, 2, 49, 95
3, 314880, Note_on_c, 2, 45, 95
3, 315840, Note_off_c, 2, 69, 95
3, 315840, Note_off_c, 2, 61, 95
3, 315840, Note_off_c, 2, 57, 95
3, 315840, Note_off_c, 2, 52, 95
3, 315840, Note_off_c, 2, 49, 95
3, 315840, Note_off_c, 2, 45, 95
3, 315840, Note_on_c, 2, 69, 95
3, 315840, Note_on_c, 2, 61, 95
3, 315840, Note_on_c, 2, 57, 95
3, 315840, Note_on_c, 2, 52, 95
3, 315840, Note_on_c, 2, 49, 95
3, 315840, Note_on_c, 2, 45, 95
3, 316320, Note_off_c, 2, 69, 95
3, 316320, Note_off_c, 2, 61, 95
3, 316320, Note_off_c, 2, 57, 95
3, 316320, Note_off_c, 2, 52, 95
3, 316320, Note_off_c, 2, 49, 95
3, 316320, Note_off_c, 2, 45, 95
3, 316320, Note_on_c, 2, 69, 95
3, 316320, Note_on_c, 2, 61, 95
3, 316320, Note_on_c, 2, 57, 95
3, 316320, Note_on_c, 2, 52, 95
3, 316320, Note_on_c, 2, 49, 95
3, 316320, Note_on_c, 2, 45, 95
3, 316800, Note_off_c, 2, 69, 95
3, 316800, Note_off_c, 2, 61, 95
3, 316800, Note_off_c, 2, 57, 95
3, 316800, Note_off_c, 2, 52, 95
3, 316800, Note_off_c, 2, 49, 95
3, 316800, Note_off_c, 2, 45, 95
3, 316800, Note_on_c, 2, 66, 95
3, 316800, Note_on_c, 2, 62, 95
3, 316800, Note_on_c, 2, 57, 95
3, 316800, Note_on_c, 2, 54, 95
3, 316800, Note_on_c, 2, 50, 95
3, 317760, Note_off_c, 2, 66, 95
3, 317760, Note_off_c, 2, 62, 95
3, 317760, Note_off_c, 2, 57, 95
3, 317760, Note_off_c, 2, 54, 95
3, 317760, Note_off_c, 2, 50, 95
3, 317760, Note_on_c, 2, 66, 95
3, 317760, Note_on_c, 2, 62, 95
3, 317760, Note_on_c, 2, 57, 95
3, 317760, Note_on_c, 2, 54, 95
3, 317760, Note_on_c, 2, 50, 95
3, 318240, Note_off_c, 2, 66, 95
3, 318240, Note_off_c, 2, 62, 95
3, 318240, Note_off_c, 2, 57, 95
3, 318240, Note_off_c, 2, 54, 95
3, 318240, Note_off_c, 2, 50, 95
3, 318240, Note_on_c, 2, 66, 95
3, 318240, Note_on_c, 2, 61, 95
3, 318240, Note_on_c, 2, 57, 95
3, 318240, Note_on_c, 2, 52, 95
3, 318720, Note_off_c, 2, 66, 95
3, 318720, Note_off_c, 2, 61, 95
3, 318720, Note_off_c, 2, 57, 95
3, 318720, Note_off_c, 2, 52, 95
3, 318720, Note_on_c, 2, 69, 95
3, 318720, Note_on_c, 2, 61, 95
3, 318720, Note_on_c, 2, 57, 95
3, 318720, Note_on_c, 2, 52, 95
3, 318720, Note_on_c, 2, 49, 95
3, 318720, Note_on_c, 2, 45, 95
3, 319680, Note_off_c, 2, 69, 95
3, 319680, Note_off_c, 2, 61, 95
3, 319680, Note_off_c, 2, 57, 95
3, 319680, Note_off_c, 2, 52, 95
3, 319680, Note_off_c, 2, 49, 95
3, 319680, Note_off_c, 2, 45, 95
3, 319680, Note_on_c, 2, 69, 95
3, 319680, Note_on_c, 2, 61, 95
3, 319680, Note_on_c, 2, 57, 95
3, 319680, Note_on_c, 2, 52, 95
3, 319680, Note_on_c, 2, 49, 95
3, 319680, Note_on_c, 2, 45, 95
3, 320160, Note_off_c, 2, 69, 95
3, 320160, Note_off_c, 2, 61, 95
3, 320160, Note_off_c, 2, 57, 95
3, 320160, Note_off_c, 2, 52, 95
3, 320160, Note_off_c, 2, 49, 95
3, 320160, Note_off_c, 2, 45, 95
3, 320160, Note_on_c, 2, 69, 95
3, 320160, Note_on_c, 2, 61, 95
3, 320160, Note_on_c, 2, 57, 95
3, 320160, Note_on_c, 2, 52, 95
3, 320160, Note_on_c, 2, 49, 95
3, 320160, Note_on_c, 2, 45, 95
3, 320640, Note_off_c, 2, 69, 95
3, 320640, Note_off_c, 2, 61, 95
3, 320640, Note_off_c, 2, 57, 95
3, 320640, Note_off_c, 2, 52, 95
3, 320640, Note_off_c, 2, 49, 95
3, 320640, Note_off_c, 2, 45, 95
3, 320640, Note_on_c, 2, 66, 95
3, 320640, Note_on_c, 2, 62, 95
3, 320640, Note_on_c, 2, 57, 95
3, 320640, Note_on_c, 2, 54, 95
3, 320640, Note_on_c, 2, 50, 95
3, 321120, Note_off_c, 2, 66, 95
3, 321120, Note_off_c, 2, 62, 95
3, 321120, Note_off_c, 2, 57, 95
3, 321120, Note_off_c, 2, 54, 95
3, 321120, Note_off_c, 2, 50, 95
3, 321120, Note_on_c, 2, 52, 95
3, 321600, Note_off_c, 2, 52, 95
3, 321600, Note_on_c, 2, 54, 70
3, 322080, Note_off_c, 2, 54, 70
3, 322080, Note_on_c, 2, 57, 95
3, 322560, Note_off_c, 2, 57, 95
3, 322560, Note_on_c, 2, 66, 95
3, 322560, Note_on_c, 2, 62, 95
3, 322560, Note_on_c, 2, 57, 95
3, 322560, Note_on_c, 2, 54, 95
3, 322560, Note_on_c, 2, 50, 95
3, 323520, Note_off_c, 2, 66, 95
3, 323520, Note_off_c, 2, 62, 95
3, 323520, Note_off_c, 2, 57, 95
3, 323520, Note_off_c, 2, 54, 95
3, 323520, Note_off_c, 2, 50, 95
3, 323520, Note_on_c, 2, 66, 95
3, 323520, Note_on_c, 2, 62, 95
3, 323520, Note_on_c, 2, 57, 95
3, 323520, Note_on_c, 2, 54, 95
3, 323520, Note_on_c, 2, 50, 95
3, 324000, Note_off_c, 2, 66, 95
3, 324000, Note_off_c, 2, 62, 95
3, 324000, Note_off_c, 2, 57, 95
3, 324000, Note_off_c, 2, 54, 95
3, 324000, Note_off_c, 2, 50, 95
3, 324000, Note_on_c, 2, 66, 95
3, 324000, Note_on_c, 2, 62, 95
3, 324000, Note_on_c, 2, 57, 95
3, 324000, Note_on_c, 2, 54, 95
3, 324000, Note_on_c, 2, 50, 95
3, 324480, Note_off_c, 2, 66, 95
3, 324480, Note_off_c, 2, 62, 95
3, 324480, Note_off_c, 2, 57, 95
3, 324480, Note_off_c, 2, 54, 95
3, 324480, Note_off_c, 2, 50, 95
3, 324480, Note_on_c, 2, 67, 95
3, 324480, Note_on_c, 2, 62, 95
3, 324480, Note_on_c, 2, 59, 95
3, 324480, Note_on_c, 2, 55, 95
3, 324480, Note_on_c, 2, 50, 95
3, 324480, Note_on_c, 2, 43, 95
3, 324960, Note_off_c, 2, 67, 95
3, 324960, Note_off_c, 2, 62, 95
3, 324960, Note_off_c, 2, 59, 95
3, 324960, Note_off_c, 2, 55, 95
3, 324960, Note_off_c, 2, 50, 95
3, 324960, Note_off_c, 2, 43, 95
3, 324960, Note_on_c, 2, 67, 95
3, 324960, Note_on_c, 2, 62, 95
3, 324960, Note_on_c, 2, 59, 95
3, 324960, Note_on_c, 2, 55, 95
3, 324960, Note_on_c, 2, 50, 95
3, 324960, Note_on_c, 2, 43, 95
3, 325440, Note_off_c, 2, 67, 95
3, 325440, Note_off_c, 2, 62, 95
3, 325440, Note_off_c, 2, 59, 95
3, 325440, Note_off_c, 2, 55, 95
3, 325440, Note_off_c, 2, 50, 95
3, 325440, Note_off_c, 2, 43, 95
3, 325440, Note_on_c, 2, 67, 95
3, 325440, Note_on_c, 2, 62, 95
3, 325440, Note_on_c, 2, 59, 95
3, 325440, Note_on_c, 2, 55, 95
3, 325440, Note_on_c, 2, 50, 95
3, 325440, Note_on_c, 2, 43, 95
3, 325920, Note_off_c, 2, 67, 95
3, 325920, Note_off_c, 2, 62, 95
3, 325920, Note_off_c, 2, 59, 95
3, 325920, Note_off_c, 2, 55, 95
3, 325920, Note_off_c, 2, 50, 95
3, 325920, Note_off_c, 2, 43, 95
3, 325920, Note_on_c, 2, 67, 95
3, 325920, Note_on_c, 2, 62, 95
3, 325920, Note_on_c, 2, 59, 95
3, 325920, Note_on_c, 2, 55, 95
3, 325920, Note_on_c, 2, 50, 95
3, 325920, Note_on_c, 2, 43, 95
3, 325977, Note_off_c, 2, 67, 95
3, 325977, Note_off_c, 2, 62, 95
3, 325977, Note_off_c, 2, 59, 95
3, 325977, Note_off_c, 2, 55, 95
3, 325977, Note_off_c, 2, 50, 95
3, 325977, Note_off_c, 2, 43, 95
3, 326400, Note_on_c, 2, 66, 95
3, 326400, Note_on_c, 2, 62, 95
3, 326400, Note_on_c, 2, 57, 95
3, 326400, Note_on_c, 2, 54, 95
3, 326400, Note_on_c, 2, 50, 95
3, 327360, Note_off_c, 2, 66, 95
3, 327360, Note_off_c, 2, 62, 95
3, 327360, Note_off_c, 2, 57, 95
3, 327360, Note_off_c, 2, 54, 95
3, 327360, Note_off_c, 2, 50, 95
3, 327360, Note_on_c, 2, 66, 95
3, 327360, Note_on_c, 2, 62, 95
3, 327360, Note_on_c, 2, 57, 95
3, 327360, Note_on_c, 2, 54, 95
3, 327360, Note_on_c, 2, 50, 95
3, 327840, Note_off_c, 2, 66, 95
3, 327840, Note_off_c, 2, 62, 95
3, 327840, Note_off_c, 2, 57, 95
3, 327840, Note_off_c, 2, 54, 95
3, 327840, Note_off_c, 2, 50, 95
3, 327840, Note_on_c, 2, 66, 95
3, 327840, Note_on_c, 2, 62, 95
3, 327840, Note_on_c, 2, 57, 95
3, 327840, Note_on_c, 2, 54, 95
3, 327840, Note_on_c, 2, 50, 95
3, 328320, Note_off_c, 2, 66, 95
3, 328320, Note_off_c, 2, 62, 95
3, 328320, Note_off_c, 2, 57, 95
3, 328320, Note_off_c, 2, 54, 95
3, 328320, Note_off_c, 2, 50, 95
3, 328320, Note_on_c, 2, 67, 95
3, 328320, Note_on_c, 2, 62, 95
3, 328320, Note_on_c, 2, 59, 95
3, 328320, Note_on_c, 2, 55, 95
3, 328320, Note_on_c, 2, 50, 95
3, 328320, Note_on_c, 2, 43, 95
3, 328800, Note_off_c, 2, 67, 95
3, 328800, Note_off_c, 2, 62, 95
3, 328800, Note_off_c, 2, 59, 95
3, 328800, Note_off_c, 2, 55, 95
3, 328800, Note_off_c, 2, 50, 95
3, 328800, Note_off_c, 2, 43, 95
3, 328800, Note_on_c, 2, 67, 95
3, 328800, Note_on_c, 2, 62, 95
3, 328800, Note_on_c, 2, 59, 95
3, 328800, Note_on_c, 2, 55, 95
3, 328800, Note_on_c, 2, 50, 95
3, 328800, Note_on_c, 2, 43, 95
3, 329280, Note_off_c, 2, 67, 95
3, 329280, Note_off_c, 2, 62, 95
3, 329280, Note_off_c, 2, 59, 95
3, 329280, Note_off_c, 2, 55, 95
3, 329280, Note_off_c, 2, 50, 95
3, 329280, Note_off_c, 2, 43, 95
3, 329280, Note_on_c, 2, 67, 95
3, 329280, Note_on_c, 2, 62, 95
3, 329280, Note_on_c, 2, 59, 95
3, 329280, Note_on_c, 2, 55, 95
3, 329280, Note_on_c, 2, 50, 95
3, 329280, Note_on_c, 2, 43, 95
3, 329760, Note_off_c, 2, 67, 95
3, 329760, Note_off_c, 2, 62, 95
3, 329760, Note_off_c, 2, 59, 95
3, 329760, Note_off_c, 2, 55, 95
3, 329760, Note_off_c, 2, 50, 95
3, 329760, Note_off_c, 2, 43, 95
3, 329760, Note_on_c, 2, 67, 95
3, 329760, Note_on_c, 2, 62, 95
3, 329760, Note_on_c, 2, 59, 95
3, 329760, Note_on_c, 2, 55, 95
3, 329760, Note_on_c, 2, 50, 95
3, 329760, Note_on_c, 2, 43, 95
3, 329817, Note_off_c, 2, 67, 95
3, 329817, Note_off_c, 2, 62, 95
3, 329817, Note_off_c, 2, 59, 95
3, 329817, Note_off_c, 2, 55, 95
3, 329817, Note_off_c, 2, 50, 95
3, 329817, Note_off_c, 2, 43, 95
3, 330240, Note_on_c, 2, 69, 95
3, 330240, Note_on_c, 2, 64, 95
3, 330240, Note_on_c, 2, 57, 95
3, 330240, Note_on_c, 2, 52, 95
3, 330240, Note_on_c, 2, 49, 95
3, 330240, Note_on_c, 2, 45, 95
3, 331200, Note_off_c, 2, 69, 95
3, 331200, Note_off_c, 2, 64, 95
3, 331200, Note_off_c, 2, 57, 95
3, 331200, Note_off_c, 2, 52, 95
3, 331200, Note_off_c, 2, 49, 95
3, 331200, Note_off_c, 2, 45, 95
3, 331200, Note_on_c, 2, 69, 95
3, 331200, Note_on_c, 2, 64, 95
3, 331200, Note_on_c, 2, 57, 95
3, 331200, Note_on_c, 2, 52, 95
3, 331200, Note_on_c, 2, 49, 95
3, 331200, Note_on_c, 2, 45, 95
3, 331680, Note_off_c, 2, 69, 95
3, 331680, Note_off_c, 2, 64, 95
3, 331680, Note_off_c, 2, 57, 95
3, 331680, Note_off_c, 2, 52, 95
3, 331680, Note_off_c, 2, 49, 95
3, 331680, Note_off_c, 2, 45, 95
3, 331680, Note_on_c, 2, 69, 95
3, 331680, Note_on_c, 2, 64, 95
3, 331680, Note_on_c, 2, 57, 95
3, 331680, Note_on_c, 2, 52, 95
3, 331680, Note_on_c, 2, 49, 95
3, 331680, Note_on_c, 2, 45, 95
3, 332160, Note_off_c, 2, 69, 95
3, 332160, Note_off_c, 2, 64, 95
3, 332160, Note_off_c, 2, 57, 95
3, 332160, Note_off_c, 2, 52, 95
3, 332160, Note_off_c, 2, 49, 95
3, 332160, Note_off_c, 2, 45, 95
3, 332160, Note_on_c, 2, 66, 95
3, 332160, Note_on_c, 2, 62, 95
3, 332160, Note_on_c, 2, 57, 95
3, 332160, Note_on_c, 2, 54, 95
3, 332160, Note_on_c, 2, 50, 95
3, 332640, Note_off_c, 2, 66, 95
3, 332640, Note_off_c, 2, 62, 95
3, 332640, Note_off_c, 2, 57, 95
3, 332640, Note_off_c, 2, 54, 95
3, 332640, Note_off_c, 2, 50, 95
3, 332640, Note_on_c, 2, 66, 95
3, 332640, Note_on_c, 2, 62, 95
3, 332640, Note_on_c, 2, 57, 95
3, 332640, Note_on_c, 2, 54, 95
3, 332640, Note_on_c, 2, 50, 95
3, 333120, Note_off_c, 2, 66, 95
3, 333120, Note_off_c, 2, 62, 95
3, 333120, Note_off_c, 2, 57, 95
3, 333120, Note_off_c, 2, 54, 95
3, 333120, Note_off_c, 2, 50, 95
3, 333120, Note_on_c, 2, 66, 95
3, 333120, Note_on_c, 2, 62, 95
3, 333120, Note_on_c, 2, 57, 95
3, 333120, Note_on_c, 2, 54, 95
3, 333120, Note_on_c, 2, 50, 95
3, 333600, Note_off_c, 2, 66, 95
3, 333600, Note_off_c, 2, 62, 95
3, 333600, Note_off_c, 2, 57, 95
3, 333600, Note_off_c, 2, 54, 95
3, 333600, Note_off_c, 2, 50, 95
3, 333600, Note_on_c, 2, 66, 95
3, 333600, Note_on_c, 2, 62, 95
3, 333600, Note_on_c, 2, 57, 95
3, 333600, Note_on_c, 2, 54, 95
3, 333600, Note_on_c, 2, 50, 95
3, 334080, Note_off_c, 2, 66, 95
3, 334080, Note_off_c, 2, 62, 95
3, 334080, Note_off_c, 2, 57, 95
3, 334080, Note_off_c, 2, 54, 95
3, 334080, Note_off_c, 2, 50, 95
3, 334080, Note_on_c, 2, 69, 95
3, 334080, Note_on_c, 2, 64, 95
3, 334080, Note_on_c, 2, 57, 95
3, 334080, Note_on_c, 2, 52, 95
3, 334080, Note_on_c, 2, 49, 95
3, 334080, Note_on_c, 2, 45, 95
3, 335040, Note_off_c, 2, 69, 95
3, 335040, Note_off_c, 2, 64, 95
3, 335040, Note_off_c, 2, 57, 95
3, 335040, Note_off_c, 2, 52, 95
3, 335040, Note_off_c, 2, 49, 95
3, 335040, Note_off_c, 2, 45, 95
3, 335040, Note_on_c, 2, 69, 95
3, 335040, Note_on_c, 2, 64, 95
3, 335040, Note_on_c, 2, 57, 95
3, 335040, Note_on_c, 2, 52, 95
3, 335040, Note_on_c, 2, 49, 95
3, 335040, Note_on_c, 2, 45, 95
3, 335520, Note_off_c, 2, 69, 95
3, 335520, Note_off_c, 2, 64, 95
3, 335520, Note_off_c, 2, 57, 95
3, 335520, Note_off_c, 2, 52, 95
3, 335520, Note_off_c, 2, 49, 95
3, 335520, Note_off_c, 2, 45, 95
3, 335520, Note_on_c, 2, 69, 95
3, 335520, Note_on_c, 2, 64, 95
3, 335520, Note_on_c, 2, 57, 95
3, 335520, Note_on_c, 2, 52, 95
3, 335520, Note_on_c, 2, 49, 95
3, 335520, Note_on_c, 2, 45, 95
3, 336000, Note_off_c, 2, 69, 95
3, 336000, Note_off_c, 2, 64, 95
3, 336000, Note_off_c, 2, 57, 95
3, 336000, Note_off_c, 2, 52, 95
3, 336000, Note_off_c, 2, 49, 95
3, 336000, Note_off_c, 2, 45, 95
3, 336000, Note_on_c, 2, 66, 95
3, 336000, Note_on_c, 2, 62, 95
3, 336000, Note_on_c, 2, 57, 95
3, 336000, Note_on_c, 2, 54, 95
3, 336000, Note_on_c, 2, 50, 95
3, 336480, Note_off_c, 2, 66, 95
3, 336480, Note_off_c, 2, 62, 95
3, 336480, Note_off_c, 2, 57, 95
3, 336480, Note_off_c, 2, 54, 95
3, 336480, Note_off_c, 2, 50, 95
3, 336480, Note_on_c, 2, 66, 95
3, 336480, Note_on_c, 2, 62, 95
3, 336480, Note_on_c, 2, 57, 95
3, 336480, Note_on_c, 2, 54, 95
3, 336480, Note_on_c, 2, 50, 95
3, 336960, Note_off_c, 2, 66, 95
3, 336960, Note_off_c, 2, 62, 95
3, 336960, Note_off_c, 2, 57, 95
3, 336960, Note_off_c, 2, 54, 95
3, 336960, Note_off_c, 2, 50, 95
3, 336960, Note_on_c, 2, 66, 95
3, 336960, Note_on_c, 2, 62, 95
3, 336960, Note_on_c, 2, 57, 95
3, 336960, Note_on_c, 2, 54, 95
3, 336960, Note_on_c, 2, 50, 95
3, 337440, Note_off_c, 2, 66, 95
3, 337440, Note_off_c, 2, 62, 95
3, 337440, Note_off_c, 2, 57, 95
3, 337440, Note_off_c, 2, 54, 95
3, 337440, Note_off_c, 2, 50, 95
3, 337440, Note_on_c, 2, 66, 95
3, 337440, Note_on_c, 2, 62, 95
3, 337440, Note_on_c, 2, 57, 95
3, 337440, Note_on_c, 2, 54, 95
3, 337440, Note_on_c, 2, 50, 95
3, 337920, Note_off_c, 2, 66, 95
3, 337920, Note_off_c, 2, 62, 95
3, 337920, Note_off_c, 2, 57, 95
3, 337920, Note_off_c, 2, 54, 95
3, 337920, Note_off_c, 2, 50, 95
3, 338880, Note_on_c, 2, 71, 95
3, 338880, Note_on_c, 2, 68, 95
3, 338880, Note_on_c, 2, 64, 95
3, 339120, Note_off_c, 2, 71, 95
3, 339120, Note_off_c, 2, 68, 95
3, 339120, Note_off_c, 2, 64, 95
3, 339120, Note_on_c, 2, 71, 95
3, 339120, Note_on_c, 2, 68, 95
3, 339120, Note_on_c, 2, 64, 95
3, 339360, Note_off_c, 2, 71, 95
3, 339360, Note_off_c, 2, 68, 95
3, 339360, Note_off_c, 2, 64, 95
3, 339360, Note_on_c, 2, 71, 95
3, 339360, Note_on_c, 2, 68, 95
3, 339360, Note_on_c, 2, 64, 95
3, 339600, Note_off_c, 2, 71, 95
3, 339600, Note_off_c, 2, 68, 95
3, 339600, Note_off_c, 2, 64, 95
3, 339600, Note_on_c, 2, 71, 95
3, 339600, Note_on_c, 2, 68, 95
3, 339600, Note_on_c, 2, 64, 95
3, 339840, Note_off_c, 2, 71, 95
3, 339840, Note_off_c, 2, 68, 95
3, 339840, Note_off_c, 2, 64, 95
3, 339840, Note_on_c, 2, 71, 95
3, 339840, Note_on_c, 2, 68, 95
3, 339840, Note_on_c, 2, 64, 95
3, 340320, Note_off_c, 2, 71, 95
3, 340320, Note_off_c, 2, 68, 95
3, 340320, Note_off_c, 2, 64, 95
3, 340320, Note_on_c, 2, 70, 95
3, 340320, Note_on_c, 2, 67, 95
3, 340320, Note_on_c, 2, 63, 95
3, 340800, Note_off_c, 2, 70, 95
3, 340800, Note_off_c, 2, 67, 95
3, 340800, Note_off_c, 2, 63, 95
3, 341280, Note_on_c, 2, 69, 95
3, 341280, Note_on_c, 2, 66, 95
3, 341280, Note_on_c, 2, 62, 95
3, 342720, Note_off_c, 2, 69, 95
3, 342720, Note_off_c, 2, 66, 95
3, 342720, Note_off_c, 2, 62, 95
3, 343200, Note_on_c, 2, 69, 95
3, 343200, Note_on_c, 2, 66, 95
3, 343200, Note_on_c, 2, 62, 95
3, 343680, Note_off_c, 2, 69, 95
3, 343680, Note_off_c, 2, 66, 95
3, 343680, Note_off_c, 2, 62, 95
3, 343680, Note_on_c, 2, 69, 95
3, 343680, Note_on_c, 2, 66, 95
3, 343680, Note_on_c, 2, 62, 95
3, 344160, Note_off_c, 2, 69, 95
3, 344160, Note_off_c, 2, 66, 95
3, 344160, Note_off_c, 2, 62, 95
3, 344160, Note_on_c, 2, 70, 95
3, 344160, Note_on_c, 2, 67, 95
3, 344160, Note_on_c, 2, 63, 95
3, 344640, Note_off_c, 2, 70, 95
3, 344640, Note_off_c, 2, 67, 95
3, 344640, Note_off_c, 2, 63, 95
3, 345120, Note_on_c, 2, 71, 95
3, 345120, Note_on_c, 2, 68, 95
3, 345120, Note_on_c, 2, 64, 95
3, 346560, Note_off_c, 2, 71, 95
3, 346560, Note_off_c, 2, 68, 95
3, 346560, Note_off_c, 2, 64, 95
3, 346560, Note_on_c, 2, 71, 95
3, 346560, Note_on_c, 2, 68, 95
3, 346560, Note_on_c, 2, 64, 95
3, 346800, Note_off_c, 2, 71, 95
3, 346800, Note_off_c, 2, 68, 95
3, 346800, Note_off_c, 2, 64, 95
3, 346800, Note_on_c, 2, 71, 95
3, 346800, Note_on_c, 2, 68, 95
3, 346800, Note_on_c, 2, 64, 95
3, 347040, Note_off_c, 2, 71, 95
3, 347040, Note_off_c, 2, 68, 95
3, 347040, Note_off_c, 2, 64, 95
3, 347040, Note_on_c, 2, 71, 95
3, 347040, Note_on_c, 2, 68, 95
3, 347040, Note_on_c, 2, 64, 95
3, 347280, Note_off_c, 2, 71, 95
3, 347280, Note_off_c, 2, 68, 95
3, 347280, Note_off_c, 2, 64, 95
3, 347280, Note_on_c, 2, 71, 95
3, 347280, Note_on_c, 2, 68, 95
3, 347280, Note_on_c, 2, 64, 95
3, 347520, Note_off_c, 2, 71, 95
3, 347520, Note_off_c, 2, 68, 95
3, 347520, Note_off_c, 2, 64, 95
3, 347520, Note_on_c, 2, 71, 95
3, 347520, Note_on_c, 2, 68, 95
3, 347520, Note_on_c, 2, 64, 95
3, 348000, Note_off_c, 2, 71, 95
3, 348000, Note_off_c, 2, 68, 95
3, 348000, Note_off_c, 2, 64, 95
3, 348000, Note_on_c, 2, 70, 95
3, 348000, Note_on_c, 2, 67, 95
3, 348000, Note_on_c, 2, 63, 95
3, 348480, Note_off_c, 2, 70, 95
3, 348480, Note_off_c, 2, 67, 95
3, 348480, Note_off_c, 2, 63, 95
3, 348960, Note_on_c, 2, 69, 95
3, 348960, Note_on_c, 2, 66, 95
3, 348960, Note_on_c, 2, 62, 95
3, 349920, Note_off_c, 2, 69, 95
3, 349920, Note_off_c, 2, 66, 95
3, 349920, Note_off_c, 2, 62, 95
3, 349920, Note_on_c, 2, 69, 95
3, 350400, Note_off_c, 2, 69, 95
3, 350400, Note_on_c, 2, 66, 95
3, 350880, Note_off_c, 2, 66, 95
3, 350880, Note_on_c, 2, 69, 95
3, 350880, Note_on_c, 2, 66, 95
3, 350880, Note_on_c, 2, 62, 95
3, 351360, Note_off_c, 2, 69, 95
3, 351360, Note_off_c, 2, 66, 95
3, 351360, Note_off_c, 2, 62, 95
3, 351360, Note_on_c, 2, 69, 95
3, 351360, Note_on_c, 2, 66, 95
3, 351360, Note_on_c, 2, 62, 95
3, 351840, Note_off_c, 2, 69, 95
3, 351840, Note_off_c, 2, 66, 95
3, 351840, Note_off_c, 2, 62, 95
3, 351840, Note_on_c, 2, 70, 95
3, 351840, Note_on_c, 2, 67, 95
3, 351840, Note_on_c, 2, 63, 95
3, 352320, Note_off_c, 2, 70, 95
3, 352320, Note_off_c, 2, 67, 95
3, 352320, Note_off_c, 2, 63, 95
3, 352320, Note_on_c, 2, 71, 95
3, 352320, Note_on_c, 2, 68, 95
3, 352320, Note_on_c, 2, 64, 95
3, 352800, Note_off_c, 2, 71, 95
3, 352800, Note_off_c, 2, 68, 95
3, 352800, Note_off_c, 2, 64, 95
3, 353280, Note_on_c, 2, 69, 95
3, 353280, Note_on_c, 2, 61, 95
3, 353280, Note_on_c, 2, 57, 95
3, 353280, Note_on_c, 2, 52, 95
3, 353280, Note_on_c, 2, 49, 95
3, 353280, Note_on_c, 2, 45, 95
3, 354240, Note_off_c, 2, 69, 95
3, 354240, Note_off_c, 2, 61, 95
3, 354240, Note_off_c, 2, 57, 95
3, 354240, Note_off_c, 2, 52, 95
3, 354240, Note_off_c, 2, 49, 95
3, 354240, Note_off_c, 2, 45, 95
3, 354240, Note_on_c, 2, 69, 95
3, 354240, Note_on_c, 2, 61, 95
3, 354240, Note_on_c, 2, 57, 95
3, 354240, Note_on_c, 2, 52, 95
3, 354240, Note_on_c, 2, 49, 95
3, 354240, Note_on_c, 2, 45, 95
3, 354720, Note_off_c, 2, 69, 95
3, 354720, Note_off_c, 2, 61, 95
3, 354720, Note_off_c, 2, 57, 95
3, 354720, Note_off_c, 2, 52, 95
3, 354720, Note_off_c, 2, 49, 95
3, 354720, Note_off_c, 2, 45, 95
3, 354720, Note_on_c, 2, 69, 95
3, 354720, Note_on_c, 2, 61, 95
3, 354720, Note_on_c, 2, 57, 95
3, 354720, Note_on_c, 2, 52, 95
3, 354720, Note_on_c, 2, 49, 95
3, 354720, Note_on_c, 2, 45, 95
3, 355200, Note_off_c, 2, 69, 95
3, 355200, Note_off_c, 2, 61, 95
3, 355200, Note_off_c, 2, 57, 95
3, 355200, Note_off_c, 2, 52, 95
3, 355200, Note_off_c, 2, 49, 95
3, 355200, Note_off_c, 2, 45, 95
3, 355200, Note_on_c, 2, 66, 95
3, 355200, Note_on_c, 2, 62, 95
3, 355200, Note_on_c, 2, 57, 95
3, 355200, Note_on_c, 2, 54, 95
3, 355200, Note_on_c, 2, 50, 95
3, 356160, Note_off_c, 2, 66, 95
3, 356160, Note_off_c, 2, 62, 95
3, 356160, Note_off_c, 2, 57, 95
3, 356160, Note_off_c, 2, 54, 95
3, 356160, Note_off_c, 2, 50, 95
3, 356160, Note_on_c, 2, 66, 95
3, 356160, Note_on_c, 2, 62, 95
3, 356160, Note_on_c, 2, 57, 95
3, 356160, Note_on_c, 2, 54, 95
3, 356160, Note_on_c, 2, 50, 95
3, 356640, Note_off_c, 2, 66, 95
3, 356640, Note_off_c, 2, 62, 95
3, 356640, Note_off_c, 2, 57, 95
3, 356640, Note_off_c, 2, 54, 95
3, 356640, Note_off_c, 2, 50, 95
3, 356640, Note_on_c, 2, 66, 95
3, 356640, Note_on_c, 2, 61, 95
3, 356640, Note_on_c, 2, 57, 95
3, 356640, Note_on_c, 2, 52, 95
3, 357120, Note_off_c, 2, 66, 95
3, 357120, Note_off_c, 2, 61, 95
3, 357120, Note_off_c, 2, 57, 95
3, 357120, Note_off_c, 2, 52, 95
3, 357120, Note_on_c, 2, 69, 95
3, 357120, Note_on_c, 2, 61, 95
3, 357120, Note_on_c, 2, 57, 95
3, 357120, Note_on_c, 2, 52, 95
3, 357120, Note_on_c, 2, 49, 95
3, 357120, Note_on_c, 2, 45, 95
3, 358080, Note_off_c, 2, 69, 95
3, 358080, Note_off_c, 2, 61, 95
3, 358080, Note_off_c, 2, 57, 95
3, 358080, Note_off_c, 2, 52, 95
3, 358080, Note_off_c, 2, 49, 95
3, 358080, Note_off_c, 2, 45, 95
3, 358080, Note_on_c, 2, 69, 95
3, 358080, Note_on_c, 2, 61, 95
3, 358080, Note_on_c, 2, 57, 95
3, 358080, Note_on_c, 2, 52, 95
3, 358080, Note_on_c, 2, 49, 95
3, 358080, Note_on_c, 2, 45, 95
3, 358560, Note_off_c, 2, 69, 95
3, 358560, Note_off_c, 2, 61, 95
3, 358560, Note_off_c, 2, 57, 95
3, 358560, Note_off_c, 2, 52, 95
3, 358560, Note_off_c, 2, 49, 95
3, 358560, Note_off_c, 2, 45, 95
3, 358560, Note_on_c, 2, 69, 95
3, 358560, Note_on_c, 2, 61, 95
3, 358560, Note_on_c, 2, 57, 95
3, 358560, Note_on_c, 2, 52, 95
3, 358560, Note_on_c, 2, 49, 95
3, 358560, Note_on_c, 2, 45, 95
3, 359040, Note_off_c, 2, 69, 95
3, 359040, Note_off_c, 2, 61, 95
3, 359040, Note_off_c, 2, 57, 95
3, 359040, Note_off_c, 2, 52, 95
3, 359040, Note_off_c, 2, 49, 95
3, 359040, Note_off_c, 2, 45, 95
3, 359040, Note_on_c, 2, 66, 95
3, 359040, Note_on_c, 2, 62, 95
3, 359040, Note_on_c, 2, 57, 95
3, 359040, Note_on_c, 2, 54, 95
3, 359040, Note_on_c, 2, 50, 95
3, 359520, Note_off_c, 2, 66, 95
3, 359520, Note_off_c, 2, 62, 95
3, 359520, Note_off_c, 2, 57, 95
3, 359520, Note_off_c, 2, 54, 95
3, 359520, Note_off_c, 2, 50, 95
3, 359520, Note_on_c, 2, 52, 95
3, 360000, Note_off_c, 2, 52, 95
3, 360000, Note_on_c, 2, 54, 70
3, 360480, Note_off_c, 2, 54, 70
3, 360480, Note_on_c, 2, 57, 95
3, 360960, Note_off_c, 2, 57, 95
3, 360960, Note_on_c, 2, 69, 95
3, 360960, Note_on_c, 2, 61, 95
3, 360960, Note_on_c, 2, 57, 95
3, 360960, Note_on_c, 2, 52, 95
3, 360960, Note_on_c, 2, 49, 95
3, 360960, Note_on_c, 2, 45, 95
3, 361920, Note_off_c, 2, 69, 95
3, 361920, Note_off_c, 2, 61, 95
3, 361920, Note_off_c, 2, 57, 95
3, 361920, Note_off_c, 2, 52, 95
3, 361920, Note_off_c, 2, 49, 95
3, 361920, Note_off_c, 2, 45, 95
3, 361920, Note_on_c, 2, 69, 95
3, 361920, Note_on_c, 2, 61, 95
3, 361920, Note_on_c, 2, 57, 95
3, 361920, Note_on_c, 2, 52, 95
3, 361920, Note_on_c, 2, 49, 95
3, 361920, Note_on_c, 2, 45, 95
3, 362400, Note_off_c, 2, 69, 95
3, 362400, Note_off_c, 2, 61, 95
3, 362400, Note_off_c, 2, 57, 95
3, 362400, Note_off_c, 2, 52, 95
3, 362400, Note_off_c, 2, 49, 95
3, 362400, Note_off_c, 2, 45, 95
3, 362400, Note_on_c, 2, 69, 95
3, 362400, Note_on_c, 2, 61, 95
3, 362400, Note_on_c, 2, 57, 95
3, 362400, Note_on_c, 2, 52, 95
3, 362400, Note_on_c, 2, 49, 95
3, 362400, Note_on_c, 2, 45, 95
3, 362880, Note_off_c, 2, 69, 95
3, 362880, Note_off_c, 2, 61, 95
3, 362880, Note_off_c, 2, 57, 95
3, 362880, Note_off_c, 2, 52, 95
3, 362880, Note_off_c, 2, 49, 95
3, 362880, Note_off_c, 2, 45, 95
3, 362880, Note_on_c, 2, 66, 95
3, 362880, Note_on_c, 2, 62, 95
3, 362880, Note_on_c, 2, 57, 95
3, 362880, Note_on_c, 2, 54, 95
3, 362880, Note_on_c, 2, 50, 95
3, 363840, Note_off_c, 2, 66, 95
3, 363840, Note_off_c, 2, 62, 95
3, 363840, Note_off_c, 2, 57, 95
3, 363840, Note_off_c, 2, 54, 95
3, 363840, Note_off_c, 2, 50, 95
3, 363840, Note_on_c, 2, 66, 95
3, 363840, Note_on_c, 2, 62, 95
3, 363840, Note_on_c, 2, 57, 95
3, 363840, Note_on_c, 2, 54, 95
3, 363840, Note_on_c, 2, 50, 95
3, 364320, Note_off_c, 2, 66, 95
3, 364320, Note_off_c, 2, 62, 95
3, 364320, Note_off_c, 2, 57, 95
3, 364320, Note_off_c, 2, 54, 95
3, 364320, Note_off_c, 2, 50, 95
3, 364320, Note_on_c, 2, 66, 95
3, 364320, Note_on_c, 2, 61, 95
3, 364320, Note_on_c, 2, 57, 95
3, 364320, Note_on_c, 2, 52, 95
3, 364800, Note_off_c, 2, 66, 95
3, 364800, Note_off_c, 2, 61, 95
3, 364800, Note_off_c, 2, 57, 95
3, 364800, Note_off_c, 2, 52, 95
3, 364800, Note_on_c, 2, 69, 95
3, 364800, Note_on_c, 2, 61, 95
3, 364800, Note_on_c, 2, 57, 95
3, 364800, Note_on_c, 2, 52, 95
3, 364800, Note_on_c, 2, 49, 95
3, 364800, Note_on_c, 2, 45, 95
3, 365760, Note_off_c, 2, 69, 95
3, 365760, Note_off_c, 2, 61, 95
3, 365760, Note_off_c, 2, 57, 95
3, 365760, Note_off_c, 2, 52, 95
3, 365760, Note_off_c, 2, 49, 95
3, 365760, Note_off_c, 2, 45, 95
3, 365760, Note_on_c, 2, 69, 95
3, 365760, Note_on_c, 2, 61, 95
3, 365760, Note_on_c, 2, 57, 95
3, 365760, Note_on_c, 2, 52, 95
3, 365760, Note_on_c, 2, 49, 95
3, 365760, Note_on_c, 2, 45, 95
3, 366240, Note_off_c, 2, 69, 95
3, 366240, Note_off_c, 2, 61, 95
3, 366240, Note_off_c, 2, 57, 95
3, 366240, Note_off_c, 2, 52, 95
3, 366240, Note_off_c, 2, 49, 95
3, 366240, Note_off_c, 2, 45, 95
3, 366240, Note_on_c, 2, 69, 95
3, 366240, Note_on_c, 2, 61, 95
3, 366240, Note_on_c, 2, 57, 95
3, 366240, Note_on_c, 2, 52, 95
3, 366240, Note_on_c, 2, 49, 95
3, 366240, Note_on_c, 2, 45, 95
3, 366720, Note_off_c, 2, 69, 95
3, 366720, Note_off_c, 2, 61, 95
3, 366720, Note_off_c, 2, 57, 95
3, 366720, Note_off_c, 2, 52, 95
3, 366720, Note_off_c, 2, 49, 95
3, 366720, Note_off_c, 2, 45, 95
3, 366720, Note_on_c, 2, 66, 95
3, 366720, Note_on_c, 2, 62, 95
3, 366720, Note_on_c, 2, 57, 95
3, 366720, Note_on_c, 2, 54, 95
3, 366720, Note_on_c, 2, 50, 95
3, 367200, Note_off_c, 2, 66, 95
3, 367200, Note_off_c, 2, 62, 95
3, 367200, Note_off_c, 2, 57, 95
3, 367200, Note_off_c, 2, 54, 95
3, 367200, Note_off_c, 2, 50, 95
3, 367200, Note_on_c, 2, 52, 95
3, 367680, Note_off_c, 2, 52, 95
3, 367680, Note_on_c, 2, 54, 70
3, 368160, Note_off_c, 2, 54, 70
3, 368160, Note_on_c, 2, 57, 95
3, 368640, Note_off_c, 2, 57, 95
3, 368640, Note_on_c, 2, 69, 95
3, 368640, Note_on_c, 2, 61, 95
3, 368640, Note_on_c, 2, 57, 95
3, 368640, Note_on_c, 2, 52, 95
3, 368640, Note_on_c, 2, 49, 95
3, 368640, Note_on_c, 2, 45, 95
3, 369600, Note_off_c, 2, 69, 95
3, 369600, Note_off_c, 2, 61, 95
3, 369600, Note_off_c, 2, 57, 95
3, 369600, Note_off_c, 2, 52, 95
3, 369600, Note_off_c, 2, 49, 95
3, 369600, Note_off_c, 2, 45, 95
3, 369600, Note_on_c, 2, 69, 95
3, 369600, Note_on_c, 2, 61, 95
3, 369600, Note_on_c, 2, 57, 95
3, 369600, Note_on_c, 2, 52, 95
3, 369600, Note_on_c, 2, 49, 95
3, 369600, Note_on_c, 2, 45, 95
3, 370080, Note_off_c, 2, 69, 95
3, 370080, Note_off_c, 2, 61, 95
3, 370080, Note_off_c, 2, 57, 95
3, 370080, Note_off_c, 2, 52, 95
3, 370080, Note_off_c, 2, 49, 95
3, 370080, Note_off_c, 2, 45, 95
3, 370080, Note_on_c, 2, 69, 95
3, 370080, Note_on_c, 2, 61, 95
3, 370080, Note_on_c, 2, 57, 95
3, 370080, Note_on_c, 2, 52, 95
3, 370080, Note_on_c, 2, 49, 95
3, 370080, Note_on_c, 2, 45, 95
3, 370560, Note_off_c, 2, 69, 95
3, 370560, Note_off_c, 2, 61, 95
3, 370560, Note_off_c, 2, 57, 95
3, 370560, Note_off_c, 2, 52, 95
3, 370560, Note_off_c, 2, 49, 95
3, 370560, Note_off_c, 2, 45, 95
3, 370560, Note_on_c, 2, 66, 95
3, 370560, Note_on_c, 2, 62, 95
3, 370560, Note_on_c, 2, 57, 95
3, 370560, Note_on_c, 2, 54, 95
3, 370560, Note_on_c, 2, 50, 95
3, 371520, Note_off_c, 2, 66, 95
3, 371520, Note_off_c, 2, 62, 95
3, 371520, Note_off_c, 2, 57, 95
3, 371520, Note_off_c, 2, 54, 95
3, 371520, Note_off_c, 2, 50, 95
3, 371520, Note_on_c, 2, 66, 95
3, 371520, Note_on_c, 2, 62, 95
3, 371520, Note_on_c, 2, 57, 95
3, 371520, Note_on_c, 2, 54, 95
3, 371520, Note_on_c, 2, 50, 95
3, 372000, Note_off_c, 2, 66, 95
3, 372000, Note_off_c, 2, 62, 95
3, 372000, Note_off_c, 2, 57, 95
3, 372000, Note_off_c, 2, 54, 95
3, 372000, Note_off_c, 2, 50, 95
3, 372000, Note_on_c, 2, 66, 95
3, 372000, Note_on_c, 2, 61, 95
3, 372000, Note_on_c, 2, 57, 95
3, 372000, Note_on_c, 2, 52, 95
3, 372480, Note_off_c, 2, 66, 95
3, 372480, Note_off_c, 2, 61, 95
3, 372480, Note_off_c, 2, 57, 95
3, 372480, Note_off_c, 2, 52, 95
3, 372480, Note_on_c, 2, 69, 95
3, 372480, Note_on_c, 2, 61, 95
3, 372480, Note_on_c, 2, 57, 95
3, 372480, Note_on_c, 2, 52, 95
3, 372480, Note_on_c, 2, 49, 95
3, 372480, Note_on_c, 2, 45, 95
3, 373440, Note_off_c, 2, 69, 95
3, 373440, Note_off_c, 2, 61, 95
3, 373440, Note_off_c, 2, 57, 95
3, 373440, Note_off_c, 2, 52, 95
3, 373440, Note_off_c, 2, 49, 95
3, 373440, Note_off_c, 2, 45, 95
3, 373440, Note_on_c, 2, 69, 95
3, 373440, Note_on_c, 2, 61, 95
3, 373440, Note_on_c, 2, 57, 95
3, 373440, Note_on_c, 2, 52, 95
3, 373440, Note_on_c, 2, 49, 95
3, 373440, Note_on_c, 2, 45, 95
3, 373920, Note_off_c, 2, 69, 95
3, 373920, Note_off_c, 2, 61, 95
3, 373920, Note_off_c, 2, 57, 95
3, 373920, Note_off_c, 2, 52, 95
3, 373920, Note_off_c, 2, 49, 95
3, 373920, Note_off_c, 2, 45, 95
3, 373920, Note_on_c, 2, 69, 95
3, 373920, Note_on_c, 2, 61, 95
3, 373920, Note_on_c, 2, 57, 95
3, 373920, Note_on_c, 2, 52, 95
3, 373920, Note_on_c, 2, 49, 95
3, 373920, Note_on_c, 2, 45, 95
3, 374400, Note_off_c, 2, 69, 95
3, 374400, Note_off_c, 2, 61, 95
3, 374400, Note_off_c, 2, 57, 95
3, 374400, Note_off_c, 2, 52, 95
3, 374400, Note_off_c, 2, 49, 95
3, 374400, Note_off_c, 2, 45, 95
3, 374400, Note_on_c, 2, 66, 95
3, 374400, Note_on_c, 2, 62, 95
3, 374400, Note_on_c, 2, 57, 95
3, 374400, Note_on_c, 2, 54, 95
3, 374400, Note_on_c, 2, 50, 95
3, 374880, Note_off_c, 2, 66, 95
3, 374880, Note_off_c, 2, 62, 95
3, 374880, Note_off_c, 2, 57, 95
3, 374880, Note_off_c, 2, 54, 95
3, 374880, Note_off_c, 2, 50, 95
3, 374880, Note_on_c, 2, 52, 95
3, 375360, Note_off_c, 2, 52, 95
3, 375360, Note_on_c, 2, 54, 70
3, 375840, Note_off_c, 2, 54, 70
3, 375840, Note_on_c, 2, 57, 95
3, 376320, Note_off_c, 2, 57, 95
3, 376320, Note_on_c, 2, 69, 95
3, 376320, Note_on_c, 2, 61, 95
3, 376320, Note_on_c, 2, 57, 95
3, 376320, Note_on_c, 2, 52, 95
3, 376320, Note_on_c, 2, 49, 95
3, 376320, Note_on_c, 2, 45, 95
3, 377280, Note_off_c, 2, 69, 95
3, 377280, Note_off_c, 2, 61, 95
3, 377280, Note_off_c, 2, 57, 95
3, 377280, Note_off_c, 2, 52, 95
3, 377280, Note_off_c, 2, 49, 95
3, 377280, Note_off_c, 2, 45, 95
3, 377280, Note_on_c, 2, 69, 95
3, 377280, Note_on_c, 2, 61, 95
3, 377280, Note_on_c, 2, 57, 95
3, 377280, Note_on_c, 2, 52, 95
3, 377280, Note_on_c, 2, 49, 95
3, 377280, Note_on_c, 2, 45, 95
3, 377760, Note_off_c, 2, 69, 95
3, 377760, Note_off_c, 2, 61, 95
3, 377760, Note_off_c, 2, 57, 95
3, 377760, Note_off_c, 2, 52, 95
3, 377760, Note_off_c, 2, 49, 95
3, 377760, Note_off_c, 2, 45, 95
3, 377760, Note_on_c, 2, 69, 95
3, 377760, Note_on_c, 2, 61, 95
3, 377760, Note_on_c, 2, 57, 95
3, 377760, Note_on_c, 2, 52, 95
3, 377760, Note_on_c, 2, 49, 95
3, 377760, Note_on_c, 2, 45, 95
3, 378240, Note_off_c, 2, 69, 95
3, 378240, Note_off_c, 2, 61, 95
3, 378240, Note_off_c, 2, 57, 95
3, 378240, Note_off_c, 2, 52, 95
3, 378240, Note_off_c, 2, 49, 95
3, 378240, Note_off_c, 2, 45, 95
3, 378240, Note_on_c, 2, 66, 95
3, 378240, Note_on_c, 2, 62, 95
3, 378240, Note_on_c, 2, 57, 95
3, 378240, Note_on_c, 2, 54, 95
3, 378240, Note_on_c, 2, 50, 95
3, 379200, Note_off_c, 2, 66, 95
3, 379200, Note_off_c, 2, 62, 95
3, 379200, Note_off_c, 2, 57, 95
3, 379200, Note_off_c, 2, 54, 95
3, 379200, Note_off_c, 2, 50, 95
3, 379200, Note_on_c, 2, 66, 95
3, 379200, Note_on_c, 2, 62, 95
3, 379200, Note_on_c, 2, 57, 95
3, 379200, Note_on_c, 2, 54, 95
3, 379200, Note_on_c, 2, 50, 95
3, 379680, Note_off_c, 2, 66, 95
3, 379680, Note_off_c, 2, 62, 95
3, 379680, Note_off_c, 2, 57, 95
3, 379680, Note_off_c, 2, 54, 95
3, 379680, Note_off_c, 2, 50, 95
3, 379680, Note_on_c, 2, 66, 95
3, 379680, Note_on_c, 2, 61, 95
3, 379680, Note_on_c, 2, 57, 95
3, 379680, Note_on_c, 2, 52, 95
3, 380160, Note_off_c, 2, 66, 95
3, 380160, Note_off_c, 2, 61, 95
3, 380160, Note_off_c, 2, 57, 95
3, 380160, Note_off_c, 2, 52, 95
3, 380160, Note_on_c, 2, 69, 95
3, 380160, Note_on_c, 2, 61, 95
3, 380160, Note_on_c, 2, 57, 95
3, 380160, Note_on_c, 2, 52, 95
3, 380160, Note_on_c, 2, 49, 95
3, 380160, Note_on_c, 2, 45, 95
3, 381120, Note_off_c, 2, 69, 95
3, 381120, Note_off_c, 2, 61, 95
3, 381120, Note_off_c, 2, 57, 95
3, 381120, Note_off_c, 2, 52, 95
3, 381120, Note_off_c, 2, 49, 95
3, 381120, Note_off_c, 2, 45, 95
3, 381120, Note_on_c, 2, 69, 95
3, 381120, Note_on_c, 2, 61, 95
3, 381120, Note_on_c, 2, 57, 95
3, 381120, Note_on_c, 2, 52, 95
3, 381120, Note_on_c, 2, 49, 95
3, 381120, Note_on_c, 2, 45, 95
3, 381600, Note_off_c, 2, 69, 95
3, 381600, Note_off_c, 2, 61, 95
3, 381600, Note_off_c, 2, 57, 95
3, 381600, Note_off_c, 2, 52, 95
3, 381600, Note_off_c, 2, 49, 95
3, 381600, Note_off_c, 2, 45, 95
3, 381600, Note_on_c, 2, 69, 95
3, 381600, Note_on_c, 2, 61, 95
3, 381600, Note_on_c, 2, 57, 95
3, 381600, Note_on_c, 2, 52, 95
3, 381600, Note_on_c, 2, 49, 95
3, 381600, Note_on_c, 2, 45, 95
3, 382080, Note_off_c, 2, 69, 95
3, 382080, Note_off_c, 2, 61, 95
3, 382080, Note_off_c, 2, 57, 95
3, 382080, Note_off_c, 2, 52, 95
3, 382080, Note_off_c, 2, 49, 95
3, 382080, Note_off_c, 2, 45, 95
3, 382080, Note_on_c, 2, 66, 95
3, 382080, Note_on_c, 2, 62, 95
3, 382080, Note_on_c, 2, 57, 95
3, 382080, Note_on_c, 2, 54, 95
3, 382080, Note_on_c, 2, 50, 95
3, 382560, Note_off_c, 2, 66, 95
3, 382560, Note_off_c, 2, 62, 95
3, 382560, Note_off_c, 2, 57, 95
3, 382560, Note_off_c, 2, 54, 95
3, 382560, Note_off_c, 2, 50, 95
3, 382560, Note_on_c, 2, 52, 95
3, 383040, Note_off_c, 2, 52, 95
3, 383040, Note_on_c, 2, 54, 70
3, 383520, Note_off_c, 2, 54, 70
3, 383520, Note_on_c, 2, 57, 95
3, 384000, Note_off_c, 2, 57, 95
3, 384000, Note_on_c, 2, 69, 95
3, 384000, Note_on_c, 2, 61, 95
3, 384000, Note_on_c, 2, 57, 95
3, 384000, Note_on_c, 2, 52, 95
3, 384000, Note_on_c, 2, 49, 95
3, 384000, Note_on_c, 2, 45, 95
3, 387840, Note_off_c, 2, 69, 95
3, 387840, Note_off_c, 2, 61, 95
3, 387840, Note_off_c, 2, 57, 95
3, 387840, Note_off_c, 2, 52, 95
3, 387840, Note_off_c, 2, 49, 95
3, 387840, Note_off_c, 2, 45, 95
3, 387840, End_track
4, 0, Start_track
4, 0, Pitch_bend_c, 4, 8192
4, 0, Control_c, 4, 7, 95
4, 0, Control_c, 4, 10, 127
4, 0, Control_c, 4, 93, 79
4, 0, Control_c, 4, 91, 0
4, 0, Control_c, 4, 95, 0
4, 0, Control_c, 4, 92, 0
4, 0, Control_c, 4, 11, 127
4, 0, Program_c, 4, 30
4, 0, Control_c, 5, 7, 95
4, 0, Control_c, 5, 10, 127
4, 0, Control_c, 5, 93, 79
4, 0, Control_c, 5, 91, 0
4, 0, Control_c, 5, 95, 0
4, 0, Control_c, 5, 92, 0
4, 0, Control_c, 5, 11, 127
4, 0, Program_c, 5, 30
4, 15840, Note_on_c, 4, 45, 95
4, 15954, Note_off_c, 4, 45, 95
4, 16080, Note_on_c, 4, 45, 95
4, 16194, Note_off_c, 4, 45, 95
4, 16320, Note_on_c, 4, 45, 95
4, 16434, Note_off_c, 4, 45, 95
4, 16800, Note_on_c, 4, 45, 95
4, 16914, Note_off_c, 4, 45, 95
4, 17280, Note_on_c, 4, 54, 95
4, 17280, Note_on_c, 4, 50, 95
4, 17394, Note_off_c, 4, 54, 95
4, 17394, Note_off_c, 4, 50, 95
4, 17760, Note_on_c, 4, 52, 95
4, 17874, Note_off_c, 4, 52, 95
4, 18240, Note_on_c, 4, 54, 95
4, 18354, Note_off_c, 4, 54, 95
4, 18720, Note_on_c, 4, 57, 95
4, 18834, Note_off_c, 4, 57, 95
4, 19200, Note_on_c, 4, 52, 95
4, 19200, Note_on_c, 4, 49, 95
4, 19200, Note_on_c, 4, 45, 95
4, 19314, Note_off_c, 4, 52, 95
4, 19314, Note_off_c, 4, 49, 95
4, 19314, Note_off_c, 4, 45, 95
4, 20160, Note_on_c, 4, 61, 95
4, 20160, Note_on_c, 4, 57, 95
4, 20160, Note_on_c, 4, 52, 95
4, 20274, Note_off_c, 4, 61, 95
4, 20274, Note_off_c, 4, 57, 95
4, 20274, Note_off_c, 4, 52, 95
4, 20640, Note_on_c, 4, 61, 95
4, 20640, Note_on_c, 4, 57, 95
4, 20640, Note_on_c, 4, 52, 95
4, 20754, Note_off_c, 4, 61, 95
4, 20754, Note_off_c, 4, 57, 95
4, 20754, Note_off_c, 4, 52, 95
4, 21120, Note_on_c, 4, 57, 95
4, 21120, Note_on_c, 4, 54, 95
4, 21120, Note_on_c, 4, 50, 95
4, 21234, Note_off_c, 4, 57, 95
4, 21234, Note_off_c, 4, 50, 95
4, 22080, Note_off_c, 4, 54, 95
4, 22080, Note_on_c, 4, 62, 95
4, 22080, Note_on_c, 4, 57, 95
4, 22080, Note_on_c, 4, 54, 95
4, 22194, Note_off_c, 4, 62, 95
4, 22194, Note_off_c, 4, 57, 95
4, 22194, Note_off_c, 4, 54, 95
4, 22560, Note_on_c, 4, 61, 95
4, 22560, Note_on_c, 4, 57, 95
4, 22560, Note_on_c, 4, 52, 95
4, 22674, Note_off_c, 4, 61, 95
4, 22674, Note_off_c, 4, 57, 95
4, 22674, Note_off_c, 4, 52, 95
4, 23040, Note_on_c, 4, 52, 95
4, 23040, Note_on_c, 4, 49, 95
4, 23040, Note_on_c, 4, 45, 95
4, 23154, Note_off_c, 4, 52, 95
4, 23154, Note_off_c, 4, 49, 95
4, 23154, Note_off_c, 4, 45, 95
4, 24000, Note_on_c, 4, 61, 95
4, 24000, Note_on_c, 4, 57, 95
4, 24000, Note_on_c, 4, 52, 95
4, 24114, Note_off_c, 4, 61, 95
4, 24114, Note_off_c, 4, 57, 95
4, 24114, Note_off_c, 4, 52, 95
4, 24480, Note_on_c, 4, 61, 95
4, 24480, Note_on_c, 4, 57, 95
4, 24480, Note_on_c, 4, 52, 95
4, 24594, Note_off_c, 4, 61, 95
4, 24594, Note_off_c, 4, 57, 95
4, 24594, Note_off_c, 4, 52, 95
4, 24960, Note_on_c, 4, 54, 95
4, 24960, Note_on_c, 4, 50, 95
4, 25074, Note_off_c, 4, 54, 95
4, 25074, Note_off_c, 4, 50, 95
4, 25440, Note_on_c, 4, 52, 95
4, 25554, Note_off_c, 4, 52, 95
4, 25920, Note_on_c, 4, 54, 95
4, 26034, Note_off_c, 4, 54, 95
4, 26400, Note_on_c, 4, 52, 95
4, 26514, Note_off_c, 4, 52, 95
4, 26880, Note_on_c, 4, 52, 95
4, 26880, Note_on_c, 4, 49, 95
4, 26880, Note_on_c, 4, 45, 95
4, 26994, Note_off_c, 4, 52, 95
4, 26994, Note_off_c, 4, 49, 95
4, 26994, Note_off_c, 4, 45, 95
4, 27840, Note_on_c, 4, 61, 95
4, 27840, Note_on_c, 4, 57, 95
4, 27840, Note_on_c, 4, 52, 95
4, 27954, Note_off_c, 4, 61, 95
4, 27954, Note_off_c, 4, 57, 95
4, 27954, Note_off_c, 4, 52, 95
4, 28320, Note_on_c, 4, 61, 95
4, 28320, Note_on_c, 4, 57, 95
4, 28320, Note_on_c, 4, 52, 95
4, 28434, Note_off_c, 4, 61, 95
4, 28434, Note_off_c, 4, 57, 95
4, 28434, Note_off_c, 4, 52, 95
4, 28800, Note_on_c, 4, 57, 95
4, 28800, Note_on_c, 4, 54, 95
4, 28800, Note_on_c, 4, 50, 95
4, 28914, Note_off_c, 4, 57, 95
4, 28914, Note_off_c, 4, 54, 95
4, 28914, Note_off_c, 4, 50, 95
4, 29760, Note_on_c, 4, 62, 95
4, 29760, Note_on_c, 4, 57, 95
4, 29760, Note_on_c, 4, 54, 95
4, 29874, Note_off_c, 4, 62, 95
4, 29874, Note_off_c, 4, 57, 95
4, 29874, Note_off_c, 4, 54, 95
4, 30240, Note_on_c, 4, 61, 95
4, 30240, Note_on_c, 4, 57, 95
4, 30240, Note_on_c, 4, 52, 95
4, 30354, Note_off_c, 4, 61, 95
4, 30354, Note_off_c, 4, 57, 95
4, 30354, Note_off_c, 4, 52, 95
4, 31200, Note_on_c, 4, 45, 95
4, 31314, Note_off_c, 4, 45, 95
4, 31440, Note_on_c, 4, 45, 95
4, 31554, Note_off_c, 4, 45, 95
4, 31680, Note_on_c, 4, 45, 95
4, 31794, Note_off_c, 4, 45, 95
4, 32160, Note_on_c, 4, 45, 95
4, 32274, Note_off_c, 4, 45, 95
4, 32640, Note_on_c, 4, 50, 95
4, 32754, Note_off_c, 4, 50, 95
4, 33120, Note_on_c, 4, 49, 95
4, 33234, Note_off_c, 4, 49, 95
4, 33600, Note_on_c, 4, 47, 95
4, 33840, Note_off_c, 4, 47, 95
4, 33840, Note_on_c, 4, 49, 70
4, 34080, Note_off_c, 4, 49, 70
4, 34080, Note_on_c, 4, 47, 70
4, 34194, Note_off_c, 4, 47, 70
4, 34560, Note_on_c, 4, 52, 95
4, 34560, Note_on_c, 4, 49, 95
4, 34560, Note_on_c, 4, 45, 95
4, 34674, Note_off_c, 4, 52, 95
4, 34674, Note_off_c, 4, 49, 95
4, 34674, Note_off_c, 4, 45, 95
4, 35520, Note_on_c, 4, 61, 95
4, 35520, Note_on_c, 4, 57, 95
4, 35520, Note_on_c, 4, 52, 95
4, 35634, Note_off_c, 4, 61, 95
4, 35634, Note_off_c, 4, 57, 95
4, 35634, Note_off_c, 4, 52, 95
4, 36000, Note_on_c, 4, 61, 95
4, 36000, Note_on_c, 4, 57, 95
4, 36000, Note_on_c, 4, 52, 95
4, 36114, Note_off_c, 4, 61, 95
4, 36114, Note_off_c, 4, 57, 95
4, 36114, Note_off_c, 4, 52, 95
4, 36480, Note_on_c, 4, 57, 95
4, 36480, Note_on_c, 4, 54, 95
4, 36480, Note_on_c, 4, 50, 95
4, 36594, Note_off_c, 4, 57, 95
4, 36594, Note_off_c, 4, 54, 95
4, 36594, Note_off_c, 4, 50, 95
4, 37440, Note_on_c, 4, 62, 95
4, 37440, Note_on_c, 4, 57, 95
4, 37440, Note_on_c, 4, 54, 95
4, 37554, Note_off_c, 4, 62, 95
4, 37554, Note_off_c, 4, 57, 95
4, 37554, Note_off_c, 4, 54, 95
4, 37920, Note_on_c, 4, 61, 95
4, 37920, Note_on_c, 4, 57, 95
4, 37920, Note_on_c, 4, 52, 95
4, 38034, Note_off_c, 4, 61, 95
4, 38034, Note_off_c, 4, 57, 95
4, 38034, Note_off_c, 4, 52, 95
4, 38400, Note_on_c, 4, 52, 95
4, 38400, Note_on_c, 4, 49, 95
4, 38400, Note_on_c, 4, 45, 95
4, 38514, Note_off_c, 4, 52, 95
4, 38514, Note_off_c, 4, 49, 95
4, 38514, Note_off_c, 4, 45, 95
4, 39360, Note_on_c, 4, 61, 95
4, 39360, Note_on_c, 4, 57, 95
4, 39360, Note_on_c, 4, 52, 95
4, 39474, Note_off_c, 4, 61, 95
4, 39474, Note_off_c, 4, 57, 95
4, 39474, Note_off_c, 4, 52, 95
4, 39840, Note_on_c, 4, 61, 95
4, 39840, Note_on_c, 4, 57, 95
4, 39840, Note_on_c, 4, 52, 95
4, 39954, Note_off_c, 4, 61, 95
4, 39954, Note_off_c, 4, 57, 95
4, 39954, Note_off_c, 4, 52, 95
4, 40320, Note_on_c, 4, 54, 95
4, 40320, Note_on_c, 4, 50, 95
4, 40434, Note_off_c, 4, 54, 95
4, 40434, Note_off_c, 4, 50, 95
4, 40800, Note_on_c, 4, 52, 95
4, 40914, Note_off_c, 4, 52, 95
4, 41280, Note_on_c, 4, 54, 95
4, 41394, Note_off_c, 4, 54, 95
4, 41760, Note_on_c, 4, 57, 95
4, 41874, Note_off_c, 4, 57, 95
4, 50400, Note_on_c, 4, 45, 95
4, 50514, Note_off_c, 4, 45, 95
4, 50640, Note_on_c, 4, 45, 95
4, 50754, Note_off_c, 4, 45, 95
4, 50880, Note_on_c, 4, 45, 95
4, 50994, Note_off_c, 4, 45, 95
4, 51360, Note_on_c, 4, 45, 95
4, 51474, Note_off_c, 4, 45, 95
4, 51840, Note_on_c, 4, 54, 95
4, 51840, Note_on_c, 4, 50, 95
4, 51954, Note_off_c, 4, 54, 95
4, 51954, Note_off_c, 4, 50, 95
4, 52320, Note_on_c, 4, 52, 95
4, 52434, Note_off_c, 4, 52, 95
4, 52800, Note_on_c, 4, 54, 95
4, 52914, Note_off_c, 4, 54, 95
4, 53280, Note_on_c, 4, 57, 95
4, 53394, Note_off_c, 4, 57, 95
4, 53760, Note_on_c, 4, 52, 95
4, 53760, Note_on_c, 4, 49, 95
4, 53760, Note_on_c, 4, 45, 95
4, 53874, Note_off_c, 4, 52, 95
4, 53874, Note_off_c, 4, 49, 95
4, 53874, Note_off_c, 4, 45, 95
4, 54720, Note_on_c, 4, 61, 95
4, 54720, Note_on_c, 4, 57, 95
4, 54720, Note_on_c, 4, 52, 95
4, 54834, Note_off_c, 4, 61, 95
4, 54834, Note_off_c, 4, 57, 95
4, 54834, Note_off_c, 4, 52, 95
4, 55200, Note_on_c, 4, 61, 95
4, 55200, Note_on_c, 4, 57, 95
4, 55200, Note_on_c, 4, 52, 95
4, 55314, Note_off_c, 4, 61, 95
4, 55314, Note_off_c, 4, 57, 95
4, 55314, Note_off_c, 4, 52, 95
4, 55680, Note_on_c, 4, 57, 95
4, 55680, Note_on_c, 4, 54, 95
4, 55680, Note_on_c, 4, 50, 95
4, 55794, Note_off_c, 4, 57, 95
4, 55794, Note_off_c, 4, 50, 95
4, 56640, Note_off_c, 4, 54, 95
4, 56640, Note_on_c, 4, 62, 95
4, 56640, Note_on_c, 4, 57, 95
4, 56640, Note_on_c, 4, 54, 95
4, 56754, Note_off_c, 4, 62, 95
4, 56754, Note_off_c, 4, 57, 95
4, 56754, Note_off_c, 4, 54, 95
4, 57120, Note_on_c, 4, 61, 95
4, 57120, Note_on_c, 4, 57, 95
4, 57120, Note_on_c, 4, 52, 95
4, 57234, Note_off_c, 4, 61, 95
4, 57234, Note_off_c, 4, 57, 95
4, 57234, Note_off_c, 4, 52, 95
4, 57600, Note_on_c, 4, 52, 95
4, 57600, Note_on_c, 4, 49, 95
4, 57600, Note_on_c, 4, 45, 95
4, 57714, Note_off_c, 4, 52, 95
4, 57714, Note_off_c, 4, 49, 95
4, 57714, Note_off_c, 4, 45, 95
4, 58560, Note_on_c, 4, 61, 95
4, 58560, Note_on_c, 4, 57, 95
4, 58560, Note_on_c, 4, 52, 95
4, 58674, Note_off_c, 4, 61, 95
4, 58674, Note_off_c, 4, 57, 95
4, 58674, Note_off_c, 4, 52, 95
4, 59040, Note_on_c, 4, 61, 95
4, 59040, Note_on_c, 4, 57, 95
4, 59040, Note_on_c, 4, 52, 95
4, 59154, Note_off_c, 4, 61, 95
4, 59154, Note_off_c, 4, 57, 95
4, 59154, Note_off_c, 4, 52, 95
4, 59520, Note_on_c, 4, 54, 95
4, 59520, Note_on_c, 4, 50, 95
4, 59634, Note_off_c, 4, 54, 95
4, 59634, Note_off_c, 4, 50, 95
4, 60000, Note_on_c, 4, 52, 95
4, 60114, Note_off_c, 4, 52, 95
4, 60480, Note_on_c, 4, 54, 95
4, 60594, Note_off_c, 4, 54, 95
4, 60960, Note_on_c, 4, 52, 95
4, 61074, Note_off_c, 4, 52, 95
4, 61440, Note_on_c, 4, 52, 95
4, 61440, Note_on_c, 4, 49, 95
4, 61440, Note_on_c, 4, 45, 95
4, 61554, Note_off_c, 4, 52, 95
4, 61554, Note_off_c, 4, 49, 95
4, 61554, Note_off_c, 4, 45, 95
4, 62400, Note_on_c, 4, 61, 95
4, 62400, Note_on_c, 4, 57, 95
4, 62400, Note_on_c, 4, 52, 95
4, 62514, Note_off_c, 4, 61, 95
4, 62514, Note_off_c, 4, 57, 95
4, 62514, Note_off_c, 4, 52, 95
4, 62880, Note_on_c, 4, 61, 95
4, 62880, Note_on_c, 4, 57, 95
4, 62880, Note_on_c, 4, 52, 95
4, 62994, Note_off_c, 4, 61, 95
4, 62994, Note_off_c, 4, 57, 95
4, 62994, Note_off_c, 4, 52, 95
4, 63360, Note_on_c, 4, 57, 95
4, 63360, Note_on_c, 4, 54, 95
4, 63360, Note_on_c, 4, 50, 95
4, 63474, Note_off_c, 4, 57, 95
4, 63474, Note_off_c, 4, 54, 95
4, 63474, Note_off_c, 4, 50, 95
4, 64320, Note_on_c, 4, 62, 95
4, 64320, Note_on_c, 4, 57, 95
4, 64320, Note_on_c, 4, 54, 95
4, 64434, Note_off_c, 4, 62, 95
4, 64434, Note_off_c, 4, 57, 95
4, 64434, Note_off_c, 4, 54, 95
4, 64800, Note_on_c, 4, 61, 95
4, 64800, Note_on_c, 4, 57, 95
4, 64800, Note_on_c, 4, 52, 95
4, 64914, Note_off_c, 4, 61, 95
4, 64914, Note_off_c, 4, 57, 95
4, 64914, Note_off_c, 4, 52, 95
4, 65760, Note_on_c, 4, 45, 95
4, 65874, Note_off_c, 4, 45, 95
4, 66000, Note_on_c, 4, 45, 95
4, 66114, Note_off_c, 4, 45, 95
4, 66240, Note_on_c, 4, 45, 95
4, 66354, Note_off_c, 4, 45, 95
4, 66720, Note_on_c, 4, 45, 95
4, 66834, Note_off_c, 4, 45, 95
4, 67200, Note_on_c, 4, 50, 95
4, 67314, Note_off_c, 4, 50, 95
4, 67680, Note_on_c, 4, 49, 95
4, 67794, Note_off_c, 4, 49, 95
4, 68160, Note_on_c, 4, 47, 95
4, 68400, Note_off_c, 4, 47, 95
4, 68400, Note_on_c, 4, 49, 70
4, 68640, Note_off_c, 4, 49, 70
4, 68640, Note_on_c, 4, 47, 70
4, 68754, Note_off_c, 4, 47, 70
4, 69120, Note_on_c, 4, 52, 95
4, 69120, Note_on_c, 4, 49, 95
4, 69120, Note_on_c, 4, 45, 95
4, 69234, Note_off_c, 4, 52, 95
4, 69234, Note_off_c, 4, 49, 95
4, 69234, Note_off_c, 4, 45, 95
4, 78540, Note_on_c, 5, 59, 95
4, 78720, Note_off_c, 5, 59, 95
4, 78720, Note_on_c, 5, 61, 95
4, 79200, Note_off_c, 5, 61, 95
4, 79200, Note_on_c, 4, 64, 95
4, 79680, Note_off_c, 4, 64, 95
4, 79680, Note_on_c, 4, 64, 95
4, 80160, Note_off_c, 4, 64, 95
4, 80160, Note_on_c, 4, 66, 95
4, 80640, Note_off_c, 4, 66, 95
4, 80640, Note_on_c, 4, 68, 95
4, 80640, Note_on_c, 4, 64, 95
4, 80640, Note_on_c, 4, 61, 95
4, 81600, Note_off_c, 4, 68, 95
4, 81600, Note_off_c, 4, 64, 95
4, 81600, Note_off_c, 4, 61, 95
4, 81600, Note_on_c, 4, 61, 95
4, 82080, Note_off_c, 4, 61, 95
4, 82080, Note_on_c, 4, 68, 95
4, 83040, Note_off_c, 4, 68, 95
4, 83040, Note_on_c, 4, 64, 95
4, 84480, Note_off_c, 4, 64, 95
4, 84480, Note_on_c, 4, 66, 95
4, 84720, Note_off_c, 4, 66, 95
4, 84720, Note_on_c, 4, 64, 70
4, 84960, Note_off_c, 4, 64, 70
4, 84960, Note_on_c, 4, 66, 70
4, 85200, Note_off_c, 4, 66, 70
4, 85200, Note_on_c, 4, 64, 70
4, 85440, Note_off_c, 4, 64, 70
4, 85440, Note_on_c, 4, 62, 95
4, 85920, Note_off_c, 4, 62, 95
4, 85920, Note_on_c, 4, 61, 95
4, 86400, Note_off_c, 4, 61, 95
4, 86400, Note_on_c, 4, 62, 95
4, 86880, Note_off_c, 4, 62, 95
4, 86880, Note_on_c, 4, 61, 95
4, 87360, Note_off_c, 4, 61, 95
4, 87360, Note_on_c, 4, 57, 95
4, 87840, Note_off_c, 4, 57, 95
4, 87840, Note_on_c, 4, 61, 95
4, 88320, Note_off_c, 4, 61, 95
4, 88320, Note_on_c, 4, 57, 95
4, 88800, Note_off_c, 4, 57, 95
4, 88800, Note_on_c, 4, 62, 95
4, 89280, Note_off_c, 4, 62, 95
4, 89280, Note_on_c, 4, 57, 95
4, 89760, Note_off_c, 4, 57, 95
4, 89760, Note_on_c, 4, 54, 95
4, 92160, Note_off_c, 4, 54, 95
4, 92640, Note_on_c, 4, 52, 95
4, 93120, Note_off_c, 4, 52, 95
4, 93120, Note_on_c, 4, 54, 95
4, 93600, Note_off_c, 4, 54, 95
4, 93600, Note_on_c, 4, 54, 95
4, 94080, Note_off_c, 4, 54, 95
4, 94080, Note_on_c, 4, 54, 95
4, 94560, Note_off_c, 4, 54, 95
4, 94560, Note_on_c, 4, 54, 95
4, 95040, Note_off_c, 4, 54, 95
4, 95040, Note_on_c, 4, 54, 95
4, 95520, Note_off_c, 4, 54, 95
4, 95520, Note_on_c, 4, 54, 95
4, 96000, Note_off_c, 4, 54, 95
4, 96960, Note_on_c, 4, 57, 95
4, 97440, Note_off_c, 4, 57, 95
4, 97440, Note_on_c, 4, 54, 95
4, 97920, Note_off_c, 4, 54, 95
4, 97920, Note_on_c, 4, 52, 95
4, 99840, Note_off_c, 4, 52, 95
4, 99840, Note_on_c, 4, 52, 95
4, 100320, Note_off_c, 4, 52, 95
4, 100320, Note_on_c, 4, 62, 95
4, 101100, Note_on_c, 5, 59, 95
4, 101280, Note_off_c, 4, 62, 95
4, 101280, Note_off_c, 5, 59, 95
4, 101280, Note_on_c, 5, 57, 95
4, 101760, Note_off_c, 5, 57, 95
4, 101760, Note_on_c, 4, 54, 95
4, 102240, Note_off_c, 4, 54, 95
4, 102240, Note_on_c, 4, 62, 95
4, 102540, Note_on_c, 5, 59, 95
4, 102720, Note_off_c, 4, 62, 95
4, 102720, Note_off_c, 5, 59, 95
4, 102720, Note_on_c, 5, 57, 95
4, 103200, Note_off_c, 5, 57, 95
4, 103200, Note_on_c, 4, 54, 95
4, 103680, Note_off_c, 4, 54, 95
4, 103680, Note_on_c, 4, 57, 95
4, 107520, Note_off_c, 4, 57, 95
4, 108780, Note_on_c, 5, 59, 95
4, 108960, Note_off_c, 5, 59, 95
4, 108960, Note_on_c, 5, 61, 95
4, 109260, Note_on_c, 5, 59, 95
4, 109440, Note_off_c, 5, 61, 95
4, 109440, Note_off_c, 5, 59, 95
4, 109440, Note_on_c, 5, 61, 95
4, 109920, Note_off_c, 5, 61, 95
4, 109920, Note_on_c, 4, 64, 95
4, 110400, Note_off_c, 4, 64, 95
4, 110400, Note_on_c, 4, 64, 95
4, 110880, Note_off_c, 4, 64, 95
4, 110880, Note_on_c, 4, 66, 95
4, 111360, Note_off_c, 4, 66, 95
4, 111360, Note_on_c, 4, 68, 95
4, 111360, Note_on_c, 4, 64, 95
4, 111360, Note_on_c, 4, 61, 95
4, 112320, Note_off_c, 4, 68, 95
4, 112320, Note_off_c, 4, 64, 95
4, 112320, Note_off_c, 4, 61, 95
4, 112320, Note_on_c, 4, 61, 95
4, 112800, Note_off_c, 4, 61, 95
4, 112800, Note_on_c, 4, 68, 95
4, 113760, Note_off_c, 4, 68, 95
4, 113760, Note_on_c, 4, 64, 95
4, 115200, Note_off_c, 4, 64, 95
4, 115200, Note_on_c, 4, 66, 95
4, 115440, Note_off_c, 4, 66, 95
4, 115440, Note_on_c, 4, 64, 70
4, 115680, Note_off_c, 4, 64, 70
4, 115680, Note_on_c, 4, 66, 70
4, 115920, Note_off_c, 4, 66, 70
4, 115920, Note_on_c, 4, 64, 70
4, 116160, Note_off_c, 4, 64, 70
4, 116160, Note_on_c, 4, 62, 95
4, 116640, Note_off_c, 4, 62, 95
4, 116640, Note_on_c, 4, 61, 95
4, 117120, Note_off_c, 4, 61, 95
4, 117120, Note_on_c, 4, 62, 95
4, 117600, Note_off_c, 4, 62, 95
4, 117600, Note_on_c, 4, 61, 95
4, 118080, Note_off_c, 4, 61, 95
4, 118080, Note_on_c, 4, 57, 95
4, 118560, Note_off_c, 4, 57, 95
4, 118560, Note_on_c, 4, 61, 95
4, 119040, Note_off_c, 4, 61, 95
4, 119040, Note_on_c, 4, 57, 95
4, 120000, Note_off_c, 4, 57, 95
4, 120000, Note_on_c, 4, 66, 95
4, 120960, Note_off_c, 4, 66, 95
4, 120960, Note_on_c, 4, 62, 95
4, 121440, Note_off_c, 4, 62, 95
4, 121440, Note_on_c, 4, 61, 95
4, 121920, Note_off_c, 4, 61, 95
4, 121920, Note_on_c, 4, 59, 95
4, 122400, Note_off_c, 4, 59, 95
4, 122400, Note_on_c, 4, 66, 95
4, 122400, Note_on_c, 4, 62, 95
4, 122400, Note_on_c, 4, 57, 95
4, 123360, Note_off_c, 4, 66, 95
4, 123360, Note_off_c, 4, 62, 95
4, 123360, Note_off_c, 4, 57, 95
4, 123360, Note_on_c, 4, 66, 95
4, 123360, Note_on_c, 4, 62, 95
4, 123360, Note_on_c, 4, 57, 95
4, 123840, Note_off_c, 4, 66, 95
4, 123840, Note_off_c, 4, 62, 95
4, 123840, Note_off_c, 4, 57, 95
4, 123840, Note_on_c, 4, 69, 95
4, 123840, Note_on_c, 4, 62, 95
4, 123840, Note_on_c, 4, 57, 95
4, 124320, Note_off_c, 4, 69, 95
4, 124320, Note_off_c, 4, 62, 95
4, 124320, Note_off_c, 4, 57, 95
4, 124320, Note_on_c, 4, 69, 95
4, 124320, Note_on_c, 4, 62, 95
4, 124320, Note_on_c, 4, 57, 95
4, 125280, Note_off_c, 4, 69, 95
4, 125280, Note_off_c, 4, 62, 95
4, 125280, Note_off_c, 4, 57, 95
4, 125280, Note_on_c, 4, 69, 95
4, 125280, Note_on_c, 4, 62, 95
4, 125280, Note_on_c, 4, 57, 95
4, 125760, Note_off_c, 4, 69, 95
4, 125760, Note_off_c, 4, 62, 95
4, 125760, Note_off_c, 4, 57, 95
4, 125760, Note_on_c, 4, 66, 95
4, 125760, Note_on_c, 4, 62, 95
4, 125760, Note_on_c, 4, 57, 95
4, 126240, Note_off_c, 4, 66, 95
4, 126240, Note_off_c, 4, 62, 95
4, 126240, Note_off_c, 4, 57, 95
4, 126240, Note_on_c, 4, 57, 95
4, 126720, Note_off_c, 4, 57, 95
4, 127200, Note_on_c, 4, 74, 95
4, 127680, Note_off_c, 4, 74, 95
4, 127680, Note_on_c, 4, 68, 95
4, 128160, Note_off_c, 4, 68, 95
4, 128160, Note_on_c, 4, 68, 95
4, 128640, Note_off_c, 4, 68, 95
4, 128640, Note_on_c, 4, 68, 95
4, 129600, Note_off_c, 4, 68, 95
4, 129600, Note_on_c, 4, 64, 95
4, 129840, Note_off_c, 4, 64, 95
4, 129840, Note_on_c, 4, 66, 70
4, 130080, Note_off_c, 4, 66, 70
4, 130080, Note_on_c, 4, 71, 95
4, 130560, Note_off_c, 4, 71, 95
4, 130560, Note_on_c, 4, 74, 95
4, 130800, Note_off_c, 4, 74, 95
4, 130800, Note_on_c, 4, 73, 70
4, 131040, Note_off_c, 4, 73, 70
4, 131040, Note_on_c, 4, 69, 95
4, 131520, Note_off_c, 4, 69, 95
4, 131520, Note_on_c, 4, 69, 95
4, 132000, Note_off_c, 4, 69, 95
4, 132000, Note_on_c, 4, 64, 95
4, 132240, Note_off_c, 4, 64, 95
4, 132240, Note_on_c, 4, 66, 70
4, 132480, Note_off_c, 4, 66, 70
4, 132480, Note_on_c, 4, 69, 95
4, 132960, Note_off_c, 4, 69, 95
4, 132960, Note_on_c, 4, 66, 95
4, 133440, Note_off_c, 4, 66, 95
4, 133440, Note_on_c, 4, 66, 95
4, 133920, Note_off_c, 4, 66, 95
4, 133920, Note_on_c, 4, 66, 95
4, 134400, Note_off_c, 4, 66, 95
4, 146400, Note_on_c, 4, 61, 95
4, 146880, Note_off_c, 4, 61, 95
4, 146880, Note_on_c, 4, 59, 95
4, 147600, Note_off_c, 4, 59, 95
4, 147600, Note_on_c, 4, 57, 95
4, 147840, Note_off_c, 4, 57, 95
4, 147840, Note_on_c, 4, 59, 95
4, 148320, Note_off_c, 4, 59, 95
4, 148320, Note_on_c, 4, 57, 70
4, 148800, Note_off_c, 4, 57, 70
4, 148800, Note_on_c, 4, 52, 95
4, 149040, Note_off_c, 4, 52, 95
4, 149040, Note_on_c, 4, 54, 70
4, 149280, Note_off_c, 4, 54, 70
4, 149280, Note_on_c, 4, 57, 95
4, 149760, Note_off_c, 4, 57, 95
4, 161580, Note_on_c, 5, 57, 95
4, 161760, Note_off_c, 5, 57, 95
4, 161760, Note_on_c, 5, 59, 95
4, 162240, Note_off_c, 5, 59, 95
4, 162240, Note_on_c, 4, 57, 95
4, 162720, Note_off_c, 4, 57, 95
4, 162720, Note_on_c, 4, 54, 95
4, 163020, Note_on_c, 5, 52, 95
4, 163200, Note_off_c, 4, 54, 95
4, 163200, Note_off_c, 5, 52, 95
4, 163200, Note_on_c, 5, 54, 95
4, 163680, Note_off_c, 5, 54, 95
4, 163680, Note_on_c, 4, 57, 95
4, 164160, Note_off_c, 4, 57, 95
4, 164160, Note_on_c, 4, 54, 95
4, 164400, Note_off_c, 4, 54, 95
4, 164400, Note_on_c, 4, 52, 70
4, 164640, Note_off_c, 4, 52, 70
4, 164640, Note_on_c, 4, 49, 95
4, 164880, Note_off_c, 4, 49, 95
4, 164880, Note_on_c, 4, 47, 70
4, 165120, Note_off_c, 4, 47, 70
4, 188640, Note_on_c, 4, 45, 95
4, 188754, Note_off_c, 4, 45, 95
4, 188880, Note_on_c, 4, 45, 95
4, 188994, Note_off_c, 4, 45, 95
4, 189120, Note_on_c, 4, 45, 95
4, 189234, Note_off_c, 4, 45, 95
4, 189600, Note_on_c, 4, 45, 95
4, 189714, Note_off_c, 4, 45, 95
4, 190080, Note_on_c, 4, 54, 95
4, 190080, Note_on_c, 4, 50, 95
4, 190194, Note_off_c, 4, 54, 95
4, 190194, Note_off_c, 4, 50, 95
4, 190560, Note_on_c, 4, 52, 95
4, 190674, Note_off_c, 4, 52, 95
4, 191040, Note_on_c, 4, 54, 95
4, 191154, Note_off_c, 4, 54, 95
4, 191520, Note_on_c, 4, 57, 95
4, 191634, Note_off_c, 4, 57, 95
4, 192000, Note_on_c, 4, 52, 95
4, 192000, Note_on_c, 4, 49, 95
4, 192000, Note_on_c, 4, 45, 95
4, 192114, Note_off_c, 4, 52, 95
4, 192114, Note_off_c, 4, 49, 95
4, 192114, Note_off_c, 4, 45, 95
4, 192960, Note_on_c, 4, 61, 95
4, 192960, Note_on_c, 4, 57, 95
4, 192960, Note_on_c, 4, 52, 95
4, 193074, Note_off_c, 4, 61, 95
4, 193074, Note_off_c, 4, 57, 95
4, 193074, Note_off_c, 4, 52, 95
4, 193440, Note_on_c, 4, 61, 95
4, 193440, Note_on_c, 4, 57, 95
4, 193440, Note_on_c, 4, 52, 95
4, 193554, Note_off_c, 4, 61, 95
4, 193554, Note_off_c, 4, 57, 95
4, 193554, Note_off_c, 4, 52, 95
4, 193920, Note_on_c, 4, 57, 95
4, 193920, Note_on_c, 4, 54, 95
4, 193920, Note_on_c, 4, 50, 95
4, 194034, Note_off_c, 4, 57, 95
4, 194034, Note_off_c, 4, 50, 95
4, 194880, Note_off_c, 4, 54, 95
4, 194880, Note_on_c, 4, 62, 95
4, 194880, Note_on_c, 4, 57, 95
4, 194880, Note_on_c, 4, 54, 95
4, 194994, Note_off_c, 4, 62, 95
4, 194994, Note_off_c, 4, 57, 95
4, 194994, Note_off_c, 4, 54, 95
4, 195360, Note_on_c, 4, 61, 95
4, 195360, Note_on_c, 4, 57, 95
4, 195360, Note_on_c, 4, 52, 95
4, 195474, Note_off_c, 4, 61, 95
4, 195474, Note_off_c, 4, 57, 95
4, 195474, Note_off_c, 4, 52, 95
4, 195840, Note_on_c, 4, 52, 95
4, 195840, Note_on_c, 4, 49, 95
4, 195840, Note_on_c, 4, 45, 95
4, 195954, Note_off_c, 4, 52, 95
4, 195954, Note_off_c, 4, 49, 95
4, 195954, Note_off_c, 4, 45, 95
4, 196800, Note_on_c, 4, 61, 95
4, 196800, Note_on_c, 4, 57, 95
4, 196800, Note_on_c, 4, 52, 95
4, 196914, Note_off_c, 4, 61, 95
4, 196914, Note_off_c, 4, 57, 95
4, 196914, Note_off_c, 4, 52, 95
4, 197280, Note_on_c, 4, 61, 95
4, 197280, Note_on_c, 4, 57, 95
4, 197280, Note_on_c, 4, 52, 95
4, 197394, Note_off_c, 4, 61, 95
4, 197394, Note_off_c, 4, 57, 95
4, 197394, Note_off_c, 4, 52, 95
4, 197760, Note_on_c, 4, 54, 95
4, 197760, Note_on_c, 4, 50, 95
4, 197874, Note_off_c, 4, 54, 95
4, 197874, Note_off_c, 4, 50, 95
4, 198240, Note_on_c, 4, 52, 95
4, 198354, Note_off_c, 4, 52, 95
4, 198720, Note_on_c, 4, 54, 95
4, 198834, Note_off_c, 4, 54, 95
4, 199200, Note_on_c, 4, 52, 95
4, 199314, Note_off_c, 4, 52, 95
4, 199680, Note_on_c, 4, 52, 95
4, 199680, Note_on_c, 4, 49, 95
4, 199680, Note_on_c, 4, 45, 95
4, 199794, Note_off_c, 4, 52, 95
4, 199794, Note_off_c, 4, 49, 95
4, 199794, Note_off_c, 4, 45, 95
4, 200640, Note_on_c, 4, 61, 95
4, 200640, Note_on_c, 4, 57, 95
4, 200640, Note_on_c, 4, 52, 95
4, 200754, Note_off_c, 4, 61, 95
4, 200754, Note_off_c, 4, 57, 95
4, 200754, Note_off_c, 4, 52, 95
4, 201120, Note_on_c, 4, 61, 95
4, 201120, Note_on_c, 4, 57, 95
4, 201120, Note_on_c, 4, 52, 95
4, 201234, Note_off_c, 4, 61, 95
4, 201234, Note_off_c, 4, 57, 95
4, 201234, Note_off_c, 4, 52, 95
4, 201600, Note_on_c, 4, 57, 95
4, 201600, Note_on_c, 4, 54, 95
4, 201600, Note_on_c, 4, 50, 95
4, 201714, Note_off_c, 4, 57, 95
4, 201714, Note_off_c, 4, 54, 95
4, 201714, Note_off_c, 4, 50, 95
4, 202560, Note_on_c, 4, 62, 95
4, 202560, Note_on_c, 4, 57, 95
4, 202560, Note_on_c, 4, 54, 95
4, 202674, Note_off_c, 4, 62, 95
4, 202674, Note_off_c, 4, 57, 95
4, 202674, Note_off_c, 4, 54, 95
4, 203040, Note_on_c, 4, 61, 95
4, 203040, Note_on_c, 4, 57, 95
4, 203040, Note_on_c, 4, 52, 95
4, 203154, Note_off_c, 4, 61, 95
4, 203154, Note_off_c, 4, 57, 95
4, 203154, Note_off_c, 4, 52, 95
4, 204000, Note_on_c, 4, 45, 95
4, 204114, Note_off_c, 4, 45, 95
4, 204240, Note_on_c, 4, 45, 95
4, 204354, Note_off_c, 4, 45, 95
4, 204480, Note_on_c, 4, 45, 95
4, 204594, Note_off_c, 4, 45, 95
4, 204960, Note_on_c, 4, 45, 95
4, 205074, Note_off_c, 4, 45, 95
4, 205440, Note_on_c, 4, 50, 95
4, 205554, Note_off_c, 4, 50, 95
4, 205920, Note_on_c, 4, 49, 95
4, 206034, Note_off_c, 4, 49, 95
4, 206400, Note_on_c, 4, 47, 95
4, 206640, Note_off_c, 4, 47, 95
4, 206640, Note_on_c, 4, 49, 70
4, 206880, Note_off_c, 4, 49, 70
4, 206880, Note_on_c, 4, 47, 70
4, 206994, Note_off_c, 4, 47, 70
4, 207360, Note_on_c, 4, 52, 95
4, 207360, Note_on_c, 4, 49, 95
4, 207360, Note_on_c, 4, 45, 95
4, 207474, Note_off_c, 4, 52, 95
4, 207474, Note_off_c, 4, 49, 95
4, 207474, Note_off_c, 4, 45, 95
4, 208320, Note_on_c, 4, 61, 95
4, 208320, Note_on_c, 4, 57, 95
4, 208320, Note_on_c, 4, 52, 95
4, 208434, Note_off_c, 4, 61, 95
4, 208434, Note_off_c, 4, 57, 95
4, 208434, Note_off_c, 4, 52, 95
4, 208800, Note_on_c, 4, 61, 95
4, 208800, Note_on_c, 4, 57, 95
4, 208800, Note_on_c, 4, 52, 95
4, 208914, Note_off_c, 4, 61, 95
4, 208914, Note_off_c, 4, 57, 95
4, 208914, Note_off_c, 4, 52, 95
4, 209280, Note_on_c, 4, 57, 95
4, 209280, Note_on_c, 4, 54, 95
4, 209280, Note_on_c, 4, 50, 95
4, 209394, Note_off_c, 4, 57, 95
4, 209394, Note_off_c, 4, 54, 95
4, 209394, Note_off_c, 4, 50, 95
4, 210240, Note_on_c, 4, 62, 95
4, 210240, Note_on_c, 4, 57, 95
4, 210240, Note_on_c, 4, 54, 95
4, 210354, Note_off_c, 4, 62, 95
4, 210354, Note_off_c, 4, 57, 95
4, 210354, Note_off_c, 4, 54, 95
4, 210720, Note_on_c, 4, 61, 95
4, 210720, Note_on_c, 4, 57, 95
4, 210720, Note_on_c, 4, 52, 95
4, 210834, Note_off_c, 4, 61, 95
4, 210834, Note_off_c, 4, 57, 95
4, 210834, Note_off_c, 4, 52, 95
4, 211200, Note_on_c, 4, 52, 95
4, 211200, Note_on_c, 4, 49, 95
4, 211200, Note_on_c, 4, 45, 95
4, 211314, Note_off_c, 4, 52, 95
4, 211314, Note_off_c, 4, 49, 95
4, 211314, Note_off_c, 4, 45, 95
4, 212160, Note_on_c, 4, 61, 95
4, 212160, Note_on_c, 4, 57, 95
4, 212160, Note_on_c, 4, 52, 95
4, 212274, Note_off_c, 4, 61, 95
4, 212274, Note_off_c, 4, 57, 95
4, 212274, Note_off_c, 4, 52, 95
4, 212640, Note_on_c, 4, 61, 95
4, 212640, Note_on_c, 4, 57, 95
4, 212640, Note_on_c, 4, 52, 95
4, 212754, Note_off_c, 4, 61, 95
4, 212754, Note_off_c, 4, 57, 95
4, 212754, Note_off_c, 4, 52, 95
4, 213120, Note_on_c, 4, 54, 95
4, 213120, Note_on_c, 4, 50, 95
4, 213234, Note_off_c, 4, 54, 95
4, 213234, Note_off_c, 4, 50, 95
4, 213600, Note_on_c, 4, 52, 95
4, 213714, Note_off_c, 4, 52, 95
4, 214080, Note_on_c, 4, 54, 95
4, 214194, Note_off_c, 4, 54, 95
4, 214560, Note_on_c, 4, 57, 95
4, 214674, Note_off_c, 4, 57, 95
4, 223200, Note_on_c, 4, 45, 95
4, 223314, Note_off_c, 4, 45, 95
4, 223440, Note_on_c, 4, 45, 95
4, 223554, Note_off_c, 4, 45, 95
4, 223680, Note_on_c, 4, 45, 95
4, 223794, Note_off_c, 4, 45, 95
4, 224160, Note_on_c, 4, 45, 95
4, 224274, Note_off_c, 4, 45, 95
4, 224640, Note_on_c, 4, 54, 95
4, 224640, Note_on_c, 4, 50, 95
4, 224754, Note_off_c, 4, 54, 95
4, 224754, Note_off_c, 4, 50, 95
4, 225120, Note_on_c, 4, 52, 95
4, 225234, Note_off_c, 4, 52, 95
4, 225600, Note_on_c, 4, 54, 95
4, 225714, Note_off_c, 4, 54, 95
4, 226080, Note_on_c, 4, 57, 95
4, 226194, Note_off_c, 4, 57, 95
4, 226560, Note_on_c, 4, 52, 95
4, 226560, Note_on_c, 4, 49, 95
4, 226560, Note_on_c, 4, 45, 95
4, 226674, Note_off_c, 4, 52, 95
4, 226674, Note_off_c, 4, 49, 95
4, 226674, Note_off_c, 4, 45, 95
4, 227520, Note_on_c, 4, 61, 95
4, 227520, Note_on_c, 4, 57, 95
4, 227520, Note_on_c, 4, 52, 95
4, 227634, Note_off_c, 4, 61, 95
4, 227634, Note_off_c, 4, 57, 95
4, 227634, Note_off_c, 4, 52, 95
4, 228000, Note_on_c, 4, 61, 95
4, 228000, Note_on_c, 4, 57, 95
4, 228000, Note_on_c, 4, 52, 95
4, 228114, Note_off_c, 4, 61, 95
4, 228114, Note_off_c, 4, 57, 95
4, 228114, Note_off_c, 4, 52, 95
4, 228480, Note_on_c, 4, 57, 95
4, 228480, Note_on_c, 4, 54, 95
4, 228480, Note_on_c, 4, 50, 95
4, 228594, Note_off_c, 4, 57, 95
4, 228594, Note_off_c, 4, 50, 95
4, 229440, Note_off_c, 4, 54, 95
4, 229440, Note_on_c, 4, 62, 95
4, 229440, Note_on_c, 4, 57, 95
4, 229440, Note_on_c, 4, 54, 95
4, 229554, Note_off_c, 4, 62, 95
4, 229554, Note_off_c, 4, 57, 95
4, 229554, Note_off_c, 4, 54, 95
4, 229920, Note_on_c, 4, 61, 95
4, 229920, Note_on_c, 4, 57, 95
4, 229920, Note_on_c, 4, 52, 95
4, 230034, Note_off_c, 4, 61, 95
4, 230034, Note_off_c, 4, 57, 95
4, 230034, Note_off_c, 4, 52, 95
4, 230400, Note_on_c, 4, 52, 95
4, 230400, Note_on_c, 4, 49, 95
4, 230400, Note_on_c, 4, 45, 95
4, 230514, Note_off_c, 4, 52, 95
4, 230514, Note_off_c, 4, 49, 95
4, 230514, Note_off_c, 4, 45, 95
4, 231360, Note_on_c, 4, 61, 95
4, 231360, Note_on_c, 4, 57, 95
4, 231360, Note_on_c, 4, 52, 95
4, 231474, Note_off_c, 4, 61, 95
4, 231474, Note_off_c, 4, 57, 95
4, 231474, Note_off_c, 4, 52, 95
4, 231840, Note_on_c, 4, 61, 95
4, 231840, Note_on_c, 4, 57, 95
4, 231840, Note_on_c, 4, 52, 95
4, 231954, Note_off_c, 4, 61, 95
4, 231954, Note_off_c, 4, 57, 95
4, 231954, Note_off_c, 4, 52, 95
4, 232320, Note_on_c, 4, 54, 95
4, 232320, Note_on_c, 4, 50, 95
4, 232434, Note_off_c, 4, 54, 95
4, 232434, Note_off_c, 4, 50, 95
4, 232800, Note_on_c, 4, 52, 95
4, 232914, Note_off_c, 4, 52, 95
4, 233280, Note_on_c, 4, 54, 95
4, 233394, Note_off_c, 4, 54, 95
4, 233760, Note_on_c, 4, 52, 95
4, 233874, Note_off_c, 4, 52, 95
4, 234240, Note_on_c, 4, 52, 95
4, 234240, Note_on_c, 4, 49, 95
4, 234240, Note_on_c, 4, 45, 95
4, 234354, Note_off_c, 4, 52, 95
4, 234354, Note_off_c, 4, 49, 95
4, 234354, Note_off_c, 4, 45, 95
4, 235200, Note_on_c, 4, 61, 95
4, 235200, Note_on_c, 4, 57, 95
4, 235200, Note_on_c, 4, 52, 95
4, 235314, Note_off_c, 4, 61, 95
4, 235314, Note_off_c, 4, 57, 95
4, 235314, Note_off_c, 4, 52, 95
4, 235680, Note_on_c, 4, 61, 95
4, 235680, Note_on_c, 4, 57, 95
4, 235680, Note_on_c, 4, 52, 95
4, 235794, Note_off_c, 4, 61, 95
4, 235794, Note_off_c, 4, 57, 95
4, 235794, Note_off_c, 4, 52, 95
4, 236160, Note_on_c, 4, 57, 95
4, 236160, Note_on_c, 4, 54, 95
4, 236160, Note_on_c, 4, 50, 95
4, 236274, Note_off_c, 4, 57, 95
4, 236274, Note_off_c, 4, 54, 95
4, 236274, Note_off_c, 4, 50, 95
4, 237120, Note_on_c, 4, 62, 95
4, 237120, Note_on_c, 4, 57, 95
4, 237120, Note_on_c, 4, 54, 95
4, 237234, Note_off_c, 4, 62, 95
4, 237234, Note_off_c, 4, 57, 95
4, 237234, Note_off_c, 4, 54, 95
4, 237600, Note_on_c, 4, 61, 95
4, 237600, Note_on_c, 4, 57, 95
4, 237600, Note_on_c, 4, 52, 95
4, 237714, Note_off_c, 4, 61, 95
4, 237714, Note_off_c, 4, 57, 95
4, 237714, Note_off_c, 4, 52, 95
4, 238560, Note_on_c, 4, 45, 95
4, 238674, Note_off_c, 4, 45, 95
4, 238800, Note_on_c, 4, 45, 95
4, 238914, Note_off_c, 4, 45, 95
4, 239040, Note_on_c, 4, 45, 95
4, 239154, Note_off_c, 4, 45, 95
4, 239520, Note_on_c, 4, 45, 95
4, 239634, Note_off_c, 4, 45, 95
4, 240000, Note_on_c, 4, 50, 95
4, 240114, Note_off_c, 4, 50, 95
4, 240480, Note_on_c, 4, 49, 95
4, 240594, Note_off_c, 4, 49, 95
4, 240960, Note_on_c, 4, 47, 95
4, 241200, Note_off_c, 4, 47, 95
4, 241200, Note_on_c, 4, 49, 70
4, 241440, Note_off_c, 4, 49, 70
4, 241440, Note_on_c, 4, 47, 70
4, 241554, Note_off_c, 4, 47, 70
4, 241920, Note_on_c, 4, 52, 95
4, 241920, Note_on_c, 4, 49, 95
4, 241920, Note_on_c, 4, 45, 95
4, 242034, Note_off_c, 4, 52, 95
4, 242034, Note_off_c, 4, 49, 95
4, 242034, Note_off_c, 4, 45, 95
4, 251340, Note_on_c, 5, 59, 95
4, 251520, Note_off_c, 5, 59, 95
4, 251520, Note_on_c, 5, 61, 95
4, 252000, Note_off_c, 5, 61, 95
4, 252000, Note_on_c, 4, 64, 95
4, 252480, Note_off_c, 4, 64, 95
4, 252480, Note_on_c, 4, 64, 95
4, 252960, Note_off_c, 4, 64, 95
4, 252960, Note_on_c, 4, 66, 95
4, 253440, Note_off_c, 4, 66, 95
4, 253440, Note_on_c, 4, 68, 95
4, 253440, Note_on_c, 4, 64, 95
4, 253440, Note_on_c, 4, 61, 95
4, 254400, Note_off_c, 4, 68, 95
4, 254400, Note_off_c, 4, 64, 95
4, 254400, Note_off_c, 4, 61, 95
4, 254400, Note_on_c, 4, 61, 95
4, 254880, Note_off_c, 4, 61, 95
4, 254880, Note_on_c, 4, 68, 95
4, 255840, Note_off_c, 4, 68, 95
4, 255840, Note_on_c, 4, 64, 95
4, 257280, Note_off_c, 4, 64, 95
4, 257280, Note_on_c, 4, 66, 95
4, 257520, Note_off_c, 4, 66, 95
4, 257520, Note_on_c, 4, 64, 70
4, 257760, Note_off_c, 4, 64, 70
4, 257760, Note_on_c, 4, 66, 70
4, 258000, Note_off_c, 4, 66, 70
4, 258000, Note_on_c, 4, 64, 70
4, 258240, Note_off_c, 4, 64, 70
4, 258240, Note_on_c, 4, 62, 95
4, 258720, Note_off_c, 4, 62, 95
4, 258720, Note_on_c, 4, 61, 95
4, 259200, Note_off_c, 4, 61, 95
4, 259200, Note_on_c, 4, 62, 95
4, 259680, Note_off_c, 4, 62, 95
4, 259680, Note_on_c, 4, 61, 95
4, 260160, Note_off_c, 4, 61, 95
4, 260160, Note_on_c, 4, 57, 95
4, 260640, Note_off_c, 4, 57, 95
4, 260640, Note_on_c, 4, 61, 95
4, 261120, Note_off_c, 4, 61, 95
4, 261120, Note_on_c, 4, 57, 95
4, 261600, Note_off_c, 4, 57, 95
4, 261600, Note_on_c, 4, 62, 95
4, 262080, Note_off_c, 4, 62, 95
4, 262080, Note_on_c, 4, 57, 95
4, 262560, Note_off_c, 4, 57, 95
4, 262560, Note_on_c, 4, 54, 95
4, 264960, Note_off_c, 4, 54, 95
4, 265440, Note_on_c, 4, 52, 95
4, 265920, Note_off_c, 4, 52, 95
4, 265920, Note_on_c, 4, 54, 95
4, 266400, Note_off_c, 4, 54, 95
4, 266400, Note_on_c, 4, 54, 95
4, 266880, Note_off_c, 4, 54, 95
4, 266880, Note_on_c, 4, 54, 95
4, 267360, Note_off_c, 4, 54, 95
4, 267360, Note_on_c, 4, 54, 95
4, 267840, Note_off_c, 4, 54, 95
4, 267840, Note_on_c, 4, 54, 95
4, 268320, Note_off_c, 4, 54, 95
4, 268320, Note_on_c, 4, 54, 95
4, 268800, Note_off_c, 4, 54, 95
4, 269760, Note_on_c, 4, 57, 95
4, 270240, Note_off_c, 4, 57, 95
4, 270240, Note_on_c, 4, 54, 95
4, 270720, Note_off_c, 4, 54, 95
4, 270720, Note_on_c, 4, 52, 95
4, 272640, Note_off_c, 4, 52, 95
4, 272640, Note_on_c, 4, 52, 95
4, 273120, Note_off_c, 4, 52, 95
4, 273120, Note_on_c, 4, 62, 95
4, 273900, Note_on_c, 5, 59, 95
4, 274080, Note_off_c, 4, 62, 95
4, 274080, Note_off_c, 5, 59, 95
4, 274080, Note_on_c, 5, 57, 95
4, 274560, Note_off_c, 5, 57, 95
4, 274560, Note_on_c, 4, 54, 95
4, 275040, Note_off_c, 4, 54, 95
4, 275040, Note_on_c, 4, 62, 95
4, 275340, Note_on_c, 5, 59, 95
4, 275520, Note_off_c, 4, 62, 95
4, 275520, Note_off_c, 5, 59, 95
4, 275520, Note_on_c, 5, 57, 95
4, 276000, Note_off_c, 5, 57, 95
4, 276000, Note_on_c, 4, 54, 95
4, 276480, Note_off_c, 4, 54, 95
4, 276480, Note_on_c, 4, 57, 95
4, 280320, Note_off_c, 4, 57, 95
4, 281580, Note_on_c, 5, 59, 95
4, 281760, Note_off_c, 5, 59, 95
4, 281760, Note_on_c, 5, 61, 95
4, 282060, Note_on_c, 5, 59, 95
4, 282240, Note_off_c, 5, 61, 95
4, 282240, Note_off_c, 5, 59, 95
4, 282240, Note_on_c, 5, 61, 95
4, 282720, Note_off_c, 5, 61, 95
4, 282720, Note_on_c, 4, 64, 95
4, 283200, Note_off_c, 4, 64, 95
4, 283200, Note_on_c, 4, 64, 95
4, 283680, Note_off_c, 4, 64, 95
4, 283680, Note_on_c, 4, 66, 95
4, 284160, Note_off_c, 4, 66, 95
4, 284160, Note_on_c, 4, 68, 95
4, 284160, Note_on_c, 4, 64, 95
4, 284160, Note_on_c, 4, 61, 95
4, 285120, Note_off_c, 4, 68, 95
4, 285120, Note_off_c, 4, 64, 95
4, 285120, Note_off_c, 4, 61, 95
4, 285120, Note_on_c, 4, 61, 95
4, 285600, Note_off_c, 4, 61, 95
4, 285600, Note_on_c, 4, 68, 95
4, 286560, Note_off_c, 4, 68, 95
4, 286560, Note_on_c, 4, 64, 95
4, 288000, Note_off_c, 4, 64, 95
4, 288000, Note_on_c, 4, 66, 95
4, 288240, Note_off_c, 4, 66, 95
4, 288240, Note_on_c, 4, 64, 70
4, 288480, Note_off_c, 4, 64, 70
4, 288480, Note_on_c, 4, 66, 70
4, 288720, Note_off_c, 4, 66, 70
4, 288720, Note_on_c, 4, 64, 70
4, 288960, Note_off_c, 4, 64, 70
4, 288960, Note_on_c, 4, 62, 95
4, 289440, Note_off_c, 4, 62, 95
4, 289440, Note_on_c, 4, 61, 95
4, 289920, Note_off_c, 4, 61, 95
4, 289920, Note_on_c, 4, 62, 95
4, 290400, Note_off_c, 4, 62, 95
4, 290400, Note_on_c, 4, 61, 95
4, 290880, Note_off_c, 4, 61, 95
4, 290880, Note_on_c, 4, 57, 95
4, 291360, Note_off_c, 4, 57, 95
4, 291360, Note_on_c, 4, 61, 95
4, 291840, Note_off_c, 4, 61, 95
4, 291840, Note_on_c, 4, 57, 95
4, 292800, Note_off_c, 4, 57, 95
4, 292800, Note_on_c, 4, 66, 95
4, 293760, Note_off_c, 4, 66, 95
4, 293760, Note_on_c, 4, 62, 95
4, 294240, Note_off_c, 4, 62, 95
4, 294240, Note_on_c, 4, 61, 95
4, 294720, Note_off_c, 4, 61, 95
4, 294720, Note_on_c, 4, 59, 95
4, 295200, Note_off_c, 4, 59, 95
4, 295200, Note_on_c, 4, 66, 95
4, 295200, Note_on_c, 4, 62, 95
4, 295200, Note_on_c, 4, 57, 95
4, 296160, Note_off_c, 4, 66, 95
4, 296160, Note_off_c, 4, 62, 95
4, 296160, Note_off_c, 4, 57, 95
4, 296160, Note_on_c, 4, 66, 95
4, 296160, Note_on_c, 4, 62, 95
4, 296160, Note_on_c, 4, 57, 95
4, 296640, Note_off_c, 4, 66, 95
4, 296640, Note_off_c, 4, 62, 95
4, 296640, Note_off_c, 4, 57, 95
4, 296640, Note_on_c, 4, 69, 95
4, 296640, Note_on_c, 4, 62, 95
4, 296640, Note_on_c, 4, 57, 95
4, 297120, Note_off_c, 4, 69, 95
4, 297120, Note_off_c, 4, 62, 95
4, 297120, Note_off_c, 4, 57, 95
4, 297120, Note_on_c, 4, 69, 95
4, 297120, Note_on_c, 4, 62, 95
4, 297120, Note_on_c, 4, 57, 95
4, 298080, Note_off_c, 4, 69, 95
4, 298080, Note_off_c, 4, 62, 95
4, 298080, Note_off_c, 4, 57, 95
4, 298080, Note_on_c, 4, 69, 95
4, 298080, Note_on_c, 4, 62, 95
4, 298080, Note_on_c, 4, 57, 95
4, 298560, Note_off_c, 4, 69, 95
4, 298560, Note_off_c, 4, 62, 95
4, 298560, Note_off_c, 4, 57, 95
4, 298560, Note_on_c, 4, 66, 95
4, 298560, Note_on_c, 4, 62, 95
4, 298560, Note_on_c, 4, 57, 95
4, 299040, Note_off_c, 4, 66, 95
4, 299040, Note_off_c, 4, 62, 95
4, 299040, Note_off_c, 4, 57, 95
4, 299040, Note_on_c, 4, 57, 95
4, 299520, Note_off_c, 4, 57, 95
4, 300000, Note_on_c, 4, 74, 95
4, 300480, Note_off_c, 4, 74, 95
4, 300480, Note_on_c, 4, 68, 95
4, 300960, Note_off_c, 4, 68, 95
4, 300960, Note_on_c, 4, 68, 95
4, 301440, Note_off_c, 4, 68, 95
4, 301440, Note_on_c, 4, 68, 95
4, 302400, Note_off_c, 4, 68, 95
4, 302400, Note_on_c, 4, 64, 95
4, 302640, Note_off_c, 4, 64, 95
4, 302640, Note_on_c, 4, 66, 70
4, 302880, Note_off_c, 4, 66, 70
4, 302880, Note_on_c, 4, 71, 95
4, 303360, Note_off_c, 4, 71, 95
4, 303360, Note_on_c, 4, 74, 95
4, 303600, Note_off_c, 4, 74, 95
4, 303600, Note_on_c, 4, 73, 70
4, 303840, Note_off_c, 4, 73, 70
4, 303840, Note_on_c, 4, 69, 95
4, 304320, Note_off_c, 4, 69, 95
4, 304320, Note_on_c, 4, 69, 95
4, 304800, Note_off_c, 4, 69, 95
4, 304800, Note_on_c, 4, 64, 95
4, 305040, Note_off_c, 4, 64, 95
4, 305040, Note_on_c, 4, 66, 70
4, 305280, Note_off_c, 4, 66, 70
4, 305280, Note_on_c, 4, 69, 95
4, 305760, Note_off_c, 4, 69, 95
4, 305760, Note_on_c, 4, 66, 95
4, 306240, Note_off_c, 4, 66, 95
4, 306240, Note_on_c, 4, 66, 95
4, 306720, Note_off_c, 4, 66, 95
4, 306720, Note_on_c, 4, 66, 95
4, 307200, Note_off_c, 4, 66, 95
4, 319200, Note_on_c, 4, 61, 95
4, 319680, Note_off_c, 4, 61, 95
4, 319680, Note_on_c, 4, 59, 95
4, 320400, Note_off_c, 4, 59, 95
4, 320400, Note_on_c, 4, 57, 95
4, 320640, Note_off_c, 4, 57, 95
4, 320640, Note_on_c, 4, 59, 95
4, 321120, Note_off_c, 4, 59, 95
4, 321120, Note_on_c, 4, 57, 70
4, 321600, Note_off_c, 4, 57, 70
4, 321600, Note_on_c, 4, 52, 95
4, 321840, Note_off_c, 4, 52, 95
4, 321840, Note_on_c, 4, 54, 70
4, 322080, Note_off_c, 4, 54, 70
4, 322080, Note_on_c, 4, 57, 95
4, 322560, Note_off_c, 4, 57, 95
4, 334380, Note_on_c, 5, 57, 95
4, 334560, Note_off_c, 5, 57, 95
4, 334560, Note_on_c, 5, 59, 95
4, 335040, Note_off_c, 5, 59, 95
4, 335040, Note_on_c, 4, 57, 95
4, 335520, Note_off_c, 4, 57, 95
4, 335520, Note_on_c, 4, 54, 95
4, 335820, Note_on_c, 5, 52, 95
4, 336000, Note_off_c, 4, 54, 95
4, 336000, Note_off_c, 5, 52, 95
4, 336000, Note_on_c, 5, 54, 95
4, 336480, Note_off_c, 5, 54, 95
4, 336480, Note_on_c, 4, 57, 95
4, 336960, Note_off_c, 4, 57, 95
4, 336960, Note_on_c, 4, 54, 95
4, 337200, Note_off_c, 4, 54, 95
4, 337200, Note_on_c, 4, 52, 70
4, 337440, Note_off_c, 4, 52, 70
4, 337440, Note_on_c, 4, 49, 95
4, 337680, Note_off_c, 4, 49, 95
4, 337680, Note_on_c, 4, 47, 70
4, 337920, Note_off_c, 4, 47, 70
4, 353280, Note_on_c, 4, 45, 95
4, 354240, Note_off_c, 4, 45, 95
4, 354240, Note_on_c, 4, 57, 95
4, 354720, Note_off_c, 4, 57, 95
4, 354720, Note_on_c, 4, 52, 95
4, 355200, Note_off_c, 4, 52, 95
4, 355200, Note_on_c, 4, 54, 95
4, 355680, Note_off_c, 4, 54, 95
4, 355680, Note_on_c, 4, 57, 95
4, 356160, Note_off_c, 4, 57, 95
4, 356160, Note_on_c, 4, 54, 95
4, 356640, Note_off_c, 4, 54, 95
4, 356640, Note_on_c, 4, 52, 95
4, 357120, Note_off_c, 4, 52, 95
4, 357120, Note_on_c, 4, 57, 95
4, 358080, Note_off_c, 4, 57, 95
4, 358080, Note_on_c, 4, 57, 95
4, 358560, Note_off_c, 4, 57, 95
4, 358560, Note_on_c, 4, 52, 95
4, 359040, Note_off_c, 4, 52, 95
4, 359040, Note_on_c, 4, 54, 95
4, 359520, Note_off_c, 4, 54, 95
4, 359520, Note_on_c, 4, 57, 95
4, 359820, Note_on_c, 5, 54, 95
4, 360000, Note_off_c, 4, 57, 95
4, 360000, Note_off_c, 5, 54, 95
4, 360000, Note_on_c, 5, 52, 95
4, 360960, Note_off_c, 5, 52, 95
4, 360960, Note_on_c, 4, 45, 95
4, 361920, Note_off_c, 4, 45, 95
4, 361920, Note_on_c, 4, 57, 95
4, 362400, Note_off_c, 4, 57, 95
4, 362400, Note_on_c, 4, 52, 95
4, 362880, Note_off_c, 4, 52, 95
4, 362880, Note_on_c, 4, 54, 95
4, 363360, Note_off_c, 4, 54, 95
4, 363360, Note_on_c, 4, 57, 95
4, 363840, Note_off_c, 4, 57, 95
4, 363840, Note_on_c, 4, 54, 95
4, 364320, Note_off_c, 4, 54, 95
4, 364320, Note_on_c, 4, 62, 95
4, 364320, Note_on_c, 4, 59, 95
4, 365280, Note_off_c, 4, 62, 95
4, 365280, Note_off_c, 4, 59, 95
4, 365280, Note_on_c, 4, 62, 95
4, 365280, Note_on_c, 4, 59, 95
4, 366240, Note_off_c, 4, 62, 95
4, 366240, Note_off_c, 4, 59, 95
4, 366720, Note_on_c, 4, 66, 95
4, 366720, Note_on_c, 4, 62, 95
4, 366720, Note_on_c, 4, 59, 95
4, 367200, Note_off_c, 4, 66, 95
4, 367200, Note_off_c, 4, 62, 95
4, 367200, Note_off_c, 4, 59, 95
4, 367200, Note_on_c, 4, 66, 95
4, 367200, Note_on_c, 4, 62, 95
4, 367200, Note_on_c, 4, 59, 95
4, 367680, Note_off_c, 4, 66, 95
4, 367680, Note_off_c, 4, 62, 95
4, 367680, Note_off_c, 4, 59, 95
4, 367680, Note_on_c, 4, 66, 95
4, 367680, Note_on_c, 4, 62, 95
4, 367680, Note_on_c, 4, 59, 95
4, 368160, Note_off_c, 4, 66, 95
4, 368160, Note_off_c, 4, 62, 95
4, 368160, Note_off_c, 4, 59, 95
4, 368160, Note_on_c, 4, 66, 95
4, 368160, Note_on_c, 4, 62, 95
4, 368160, Note_on_c, 4, 59, 95
4, 368640, Note_off_c, 4, 66, 95
4, 368640, Note_off_c, 4, 62, 95
4, 368640, Note_off_c, 4, 59, 95
4, 368640, Note_on_c, 4, 45, 95
4, 369600, Note_off_c, 4, 45, 95
4, 369600, Note_on_c, 4, 57, 95
4, 370080, Note_off_c, 4, 57, 95
4, 370080, Note_on_c, 4, 52, 95
4, 370560, Note_off_c, 4, 52, 95
4, 370560, Note_on_c, 4, 54, 95
4, 371040, Note_off_c, 4, 54, 95
4, 371040, Note_on_c, 4, 57, 95
4, 371520, Note_off_c, 4, 57, 95
4, 371520, Note_on_c, 4, 54, 95
4, 372000, Note_off_c, 4, 54, 95
4, 372000, Note_on_c, 4, 52, 95
4, 372480, Note_off_c, 4, 52, 95
4, 372960, Pitch_bend_c, 5, 8192
4, 372960, Note_on_c, 5, 59, 95
4, 373069, Pitch_bend_c, 5, 8320
4, 373178, Pitch_bend_c, 5, 8448
4, 373287, Pitch_bend_c, 5, 8576
4, 373396, Pitch_bend_c, 5, 8704
4, 373505, Pitch_bend_c, 5, 8832
4, 373614, Pitch_bend_c, 5, 8960
4, 373723, Pitch_bend_c, 5, 9088
4, 373832, Pitch_bend_c, 5, 9216
4, 373941, Pitch_bend_c, 5, 9344
4, 374050, Pitch_bend_c, 5, 9472
4, 374159, Pitch_bend_c, 5, 9600
4, 374160, Pitch_bend_c, 5, 9600
4, 375360, Pitch_bend_c, 5, 9600
4, 375360, Pitch_bend_c, 5, 8192
4, 375360, Note_off_c, 5, 59, 95
4, 375360, Note_on_c, 4, 59, 95
4, 375840, Note_off_c, 4, 59, 95
4, 375840, Note_on_c, 4, 57, 95
4, 378240, Note_off_c, 4, 57, 95
4, 378240, Note_on_c, 4, 61, 95
4, 378720, Note_off_c, 4, 61, 95
4, 378720, Note_on_c, 4, 62, 95
4, 379200, Note_off_c, 4, 62, 95
4, 379200, Note_on_c, 4, 66, 95
4, 379500, Note_on_c, 5, 61, 95
4, 379680, Note_off_c, 4, 66, 95
4, 379680, Note_off_c, 5, 61, 95
4, 379680, Note_on_c, 5, 62, 95
4, 380160, Note_off_c, 5, 62, 95
4, 380640, Note_on_c, 5, 59, 95
4, 380760, Pitch_bend_c, 5, 8448
4, 380880, Pitch_bend_c, 5, 8832
4, 381000, Pitch_bend_c, 5, 9216
4, 381120, Pitch_bend_c, 5, 9600
4, 381120, Pitch_bend_c, 5, 8192
4, 381120, Note_off_c, 5, 59, 95
4, 381120, Note_on_c, 4, 61, 95
4, 381600, Note_off_c, 4, 61, 95
4, 381600, Note_on_c, 4, 59, 95
4, 382080, Note_off_c, 4, 59, 95
4, 382080, Note_on_c, 4, 59, 95
4, 382320, Note_off_c, 4, 59, 95
4, 382320, Note_on_c, 4, 57, 70
4, 382560, Note_off_c, 4, 57, 70
4, 382560, Note_on_c, 4, 57, 95
4, 383040, Note_off_c, 4, 57, 95
4, 383040, Note_on_c, 4, 62, 95
4, 383280, Note_off_c, 4, 62, 95
4, 383280, Note_on_c, 4, 59, 95
4, 383520, Note_off_c, 4, 59, 95
4, 383520, Note_on_c, 4, 57, 95
4, 383760, Note_off_c, 4, 57, 95
4, 383760, Note_on_c, 4, 54, 95
4, 384000, Note_off_c, 4, 54, 95
4, 384000, End_track
5, 0, Start_track
5, 0, Pitch_bend_c, 6, 8192
5, 0, Control_c, 6, 7, 127
5, 0, Control_c, 6, 10, 63
5, 0, Control_c, 6, 93, 127
5, 0, Control_c, 6, 91, 0
5, 0, Control_c, 6, 95, 0
5, 0, Control_c, 6, 92, 0
5, 0, Control_c, 6, 11, 127
5, 0, Program_c, 6, 27
5, 0, Control_c, 7, 7, 127
5, 0, Control_c, 7, 10, 63
5, 0, Control_c, 7, 93, 127
5, 0, Control_c, 7, 91, 0
5, 0, Control_c, 7, 95, 0
5, 0, Control_c, 7, 92, 0
5, 0, Control_c, 7, 11, 127
5, 0, Program_c, 7, 27
5, 47520, Note_on_c, 6, 69, 95
5, 47520, Note_on_c, 6, 64, 95
5, 48000, Note_off_c, 6, 69, 95
5, 48000, Note_off_c, 6, 64, 95
5, 48480, Note_on_c, 6, 69, 95
5, 48480, Note_on_c, 6, 64, 95
5, 48960, Note_off_c, 6, 69, 95
5, 48960, Note_off_c, 6, 64, 95
5, 49440, Note_on_c, 6, 69, 95
5, 49440, Note_on_c, 6, 64, 95
5, 49920, Note_off_c, 6, 69, 95
5, 49920, Note_off_c, 6, 64, 95
5, 49920, Note_on_c, 6, 68, 95
5, 49920, Note_on_c, 6, 64, 95
5, 50880, Note_off_c, 6, 68, 95
5, 50880, Note_off_c, 6, 64, 95
5, 50880, Note_on_c, 6, 66, 95
5, 51360, Note_off_c, 6, 66, 95
5, 51360, Note_on_c, 6, 64, 95
5, 52800, Note_off_c, 6, 64, 95
5, 52800, Note_on_c, 6, 57, 95
5, 53280, Note_off_c, 6, 57, 95
5, 53280, Note_on_c, 6, 66, 95
5, 54240, Note_off_c, 6, 66, 95
5, 54240, Note_on_c, 6, 64, 95
5, 54720, Note_off_c, 6, 64, 95
5, 54720, Note_on_c, 6, 57, 95
5, 55200, Note_off_c, 6, 57, 95
5, 55200, Note_on_c, 6, 66, 95
5, 56160, Note_off_c, 6, 66, 95
5, 56160, Note_on_c, 6, 64, 95
5, 56640, Note_off_c, 6, 64, 95
5, 56640, Note_on_c, 6, 57, 95
5, 57120, Note_off_c, 6, 57, 95
5, 57120, Note_on_c, 6, 64, 95
5, 57600, Note_off_c, 6, 64, 95
5, 57600, Note_on_c, 6, 69, 95
5, 57600, Note_on_c, 6, 61, 95
5, 57600, Note_on_c, 6, 57, 95
5, 57600, Note_on_c, 6, 52, 95
5, 57600, Note_on_c, 6, 49, 95
5, 57600, Note_on_c, 6, 45, 95
5, 58560, Note_off_c, 6, 69, 95
5, 58560, Note_off_c, 6, 61, 95
5, 58560, Note_off_c, 6, 57, 95
5, 58560, Note_off_c, 6, 52, 95
5, 58560, Note_off_c, 6, 49, 95
5, 58560, Note_off_c, 6, 45, 95
5, 58560, Note_on_c, 6, 69, 95
5, 58560, Note_on_c, 6, 61, 95
5, 58560, Note_on_c, 6, 57, 95
5, 58560, Note_on_c, 6, 52, 95
5, 58560, Note_on_c, 6, 49, 95
5, 58560, Note_on_c, 6, 45, 95
5, 59040, Note_off_c, 6, 69, 95
5, 59040, Note_off_c, 6, 61, 95
5, 59040, Note_off_c, 6, 57, 95
5, 59040, Note_off_c, 6, 52, 95
5, 59040, Note_off_c, 6, 49, 95
5, 59040, Note_off_c, 6, 45, 95
5, 59040, Note_on_c, 6, 69, 95
5, 59040, Note_on_c, 6, 61, 95
5, 59040, Note_on_c, 6, 57, 95
5, 59040, Note_on_c, 6, 52, 95
5, 59040, Note_on_c, 6, 49, 95
5, 59040, Note_on_c, 6, 45, 95
5, 59520, Note_off_c, 6, 69, 95
5, 59520, Note_off_c, 6, 61, 95
5, 59520, Note_off_c, 6, 57, 95
5, 59520, Note_off_c, 6, 52, 95
5, 59520, Note_off_c, 6, 49, 95
5, 59520, Note_off_c, 6, 45, 95
5, 59520, Note_on_c, 6, 66, 95
5, 59520, Note_on_c, 6, 62, 95
5, 59520, Note_on_c, 6, 57, 95
5, 59520, Note_on_c, 6, 54, 95
5, 59520, Note_on_c, 6, 50, 95
5, 60480, Note_off_c, 6, 66, 95
5, 60480, Note_off_c, 6, 62, 95
5, 60480, Note_off_c, 6, 57, 95
5, 60480, Note_off_c, 6, 54, 95
5, 60480, Note_off_c, 6, 50, 95
5, 60480, Note_on_c, 6, 66, 95
5, 60480, Note_on_c, 6, 62, 95
5, 60480, Note_on_c, 6, 57, 95
5, 60480, Note_on_c, 6, 54, 95
5, 60480, Note_on_c, 6, 50, 95
5, 60960, Note_off_c, 6, 66, 95
5, 60960, Note_off_c, 6, 62, 95
5, 60960, Note_off_c, 6, 57, 95
5, 60960, Note_off_c, 6, 54, 95
5, 60960, Note_off_c, 6, 50, 95
5, 60960, Note_on_c, 6, 66, 95
5, 60960, Note_on_c, 6, 61, 95
5, 60960, Note_on_c, 6, 57, 95
5, 60960, Note_on_c, 6, 52, 95
5, 61440, Note_off_c, 6, 66, 95
5, 61440, Note_off_c, 6, 61, 95
5, 61440, Note_off_c, 6, 57, 95
5, 61440, Note_off_c, 6, 52, 95
5, 61440, Note_on_c, 6, 69, 95
5, 61440, Note_on_c, 6, 61, 95
5, 61440, Note_on_c, 6, 57, 95
5, 61440, Note_on_c, 6, 52, 95
5, 61440, Note_on_c, 6, 49, 95
5, 61440, Note_on_c, 6, 45, 95
5, 62400, Note_off_c, 6, 69, 95
5, 62400, Note_off_c, 6, 61, 95
5, 62400, Note_off_c, 6, 57, 95
5, 62400, Note_off_c, 6, 52, 95
5, 62400, Note_off_c, 6, 49, 95
5, 62400, Note_off_c, 6, 45, 95
5, 62400, Note_on_c, 6, 69, 95
5, 62400, Note_on_c, 6, 61, 95
5, 62400, Note_on_c, 6, 57, 95
5, 62400, Note_on_c, 6, 52, 95
5, 62400, Note_on_c, 6, 49, 95
5, 62400, Note_on_c, 6, 45, 95
5, 62880, Note_off_c, 6, 69, 95
5, 62880, Note_off_c, 6, 61, 95
5, 62880, Note_off_c, 6, 57, 95
5, 62880, Note_off_c, 6, 52, 95
5, 62880, Note_off_c, 6, 49, 95
5, 62880, Note_off_c, 6, 45, 95
5, 62880, Note_on_c, 6, 69, 95
5, 62880, Note_on_c, 6, 61, 95
5, 62880, Note_on_c, 6, 57, 95
5, 62880, Note_on_c, 6, 52, 95
5, 62880, Note_on_c, 6, 49, 95
5, 62880, Note_on_c, 6, 45, 95
5, 63360, Note_off_c, 6, 69, 95
5, 63360, Note_off_c, 6, 61, 95
5, 63360, Note_off_c, 6, 57, 95
5, 63360, Note_off_c, 6, 52, 95
5, 63360, Note_off_c, 6, 49, 95
5, 63360, Note_off_c, 6, 45, 95
5, 63360, Note_on_c, 6, 66, 95
5, 63360, Note_on_c, 6, 62, 95
5, 63360, Note_on_c, 6, 57, 95
5, 63360, Note_on_c, 6, 54, 95
5, 63360, Note_on_c, 6, 50, 95
5, 63840, Note_off_c, 6, 66, 95
5, 63840, Note_off_c, 6, 62, 95
5, 63840, Note_off_c, 6, 57, 95
5, 63840, Note_off_c, 6, 54, 95
5, 63840, Note_off_c, 6, 50, 95
5, 63840, Note_on_c, 6, 52, 95
5, 64320, Note_off_c, 6, 52, 95
5, 64320, Note_on_c, 6, 54, 70
5, 64800, Note_off_c, 6, 54, 70
5, 64800, Note_on_c, 6, 57, 95
5, 65280, Note_off_c, 6, 57, 95
5, 65280, Note_on_c, 6, 69, 95
5, 65280, Note_on_c, 6, 61, 95
5, 65280, Note_on_c, 6, 57, 95
5, 65280, Note_on_c, 6, 52, 95
5, 65280, Note_on_c, 6, 49, 95
5, 65280, Note_on_c, 6, 45, 95
5, 66240, Note_off_c, 6, 69, 95
5, 66240, Note_off_c, 6, 61, 95
5, 66240, Note_off_c, 6, 57, 95
5, 66240, Note_off_c, 6, 52, 95
5, 66240, Note_off_c, 6, 49, 95
5, 66240, Note_off_c, 6, 45, 95
5, 66240, Note_on_c, 6, 69, 95
5, 66240, Note_on_c, 6, 61, 95
5, 66240, Note_on_c, 6, 57, 95
5, 66240, Note_on_c, 6, 52, 95
5, 66240, Note_on_c, 6, 49, 95
5, 66240, Note_on_c, 6, 45, 95
5, 66720, Note_off_c, 6, 69, 95
5, 66720, Note_off_c, 6, 61, 95
5, 66720, Note_off_c, 6, 57, 95
5, 66720, Note_off_c, 6, 52, 95
5, 66720, Note_off_c, 6, 49, 95
5, 66720, Note_off_c, 6, 45, 95
5, 66720, Note_on_c, 6, 69, 95
5, 66720, Note_on_c, 6, 61, 95
5, 66720, Note_on_c, 6, 57, 95
5, 66720, Note_on_c, 6, 52, 95
5, 66720, Note_on_c, 6, 49, 95
5, 66720, Note_on_c, 6, 45, 95
5, 67200, Note_off_c, 6, 69, 95
5, 67200, Note_off_c, 6, 61, 95
5, 67200, Note_off_c, 6, 57, 95
5, 67200, Note_off_c, 6, 52, 95
5, 67200, Note_off_c, 6, 49, 95
5, 67200, Note_off_c, 6, 45, 95
5, 67200, Note_on_c, 6, 66, 95
5, 67200, Note_on_c, 6, 62, 95
5, 67200, Note_on_c, 6, 57, 95
5, 67200, Note_on_c, 6, 54, 95
5, 67200, Note_on_c, 6, 50, 95
5, 68160, Note_off_c, 6, 66, 95
5, 68160, Note_off_c, 6, 62, 95
5, 68160, Note_off_c, 6, 57, 95
5, 68160, Note_off_c, 6, 54, 95
5, 68160, Note_off_c, 6, 50, 95
5, 68160, Note_on_c, 6, 66, 95
5, 68160, Note_on_c, 6, 62, 95
5, 68160, Note_on_c, 6, 57, 95
5, 68160, Note_on_c, 6, 54, 95
5, 68160, Note_on_c, 6, 50, 95
5, 68640, Note_off_c, 6, 66, 95
5, 68640, Note_off_c, 6, 62, 95
5, 68640, Note_off_c, 6, 57, 95
5, 68640, Note_off_c, 6, 54, 95
5, 68640, Note_off_c, 6, 50, 95
5, 68640, Note_on_c, 6, 66, 95
5, 68640, Note_on_c, 6, 61, 95
5, 68640, Note_on_c, 6, 57, 95
5, 68640, Note_on_c, 6, 52, 95
5, 68640, Note_on_c, 6, 47, 95
5, 69120, Note_off_c, 6, 66, 95
5, 69120, Note_off_c, 6, 61, 95
5, 69120, Note_off_c, 6, 57, 95
5, 69120, Note_off_c, 6, 52, 95
5, 69120, Note_off_c, 6, 47, 95
5, 69120, Note_on_c, 6, 69, 95
5, 69120, Note_on_c, 6, 61, 95
5, 69120, Note_on_c, 6, 57, 95
5, 69120, Note_on_c, 6, 52, 95
5, 69120, Note_on_c, 6, 49, 95
5, 69120, Note_on_c, 6, 45, 95
5, 72960, Note_off_c, 6, 69, 95
5, 72960, Note_off_c, 6, 61, 95
5, 72960, Note_off_c, 6, 57, 95
5, 72960, Note_off_c, 6, 52, 95
5, 72960, Note_off_c, 6, 49, 95
5, 72960, Note_off_c, 6, 45, 95
5, 220320, Note_on_c, 6, 69, 95
5, 220320, Note_on_c, 6, 64, 95
5, 220800, Note_off_c, 6, 69, 95
5, 220800, Note_off_c, 6, 64, 95
5, 221280, Note_on_c, 6, 69, 95
5, 221280, Note_on_c, 6, 64, 95
5, 221760, Note_off_c, 6, 69, 95
5, 221760, Note_off_c, 6, 64, 95
5, 222240, Note_on_c, 6, 69, 95
5, 222240, Note_on_c, 6, 64, 95
5, 222720, Note_off_c, 6, 69, 95
5, 222720, Note_off_c, 6, 64, 95
5, 222720, Note_on_c, 6, 68, 95
5, 222720, Note_on_c, 6, 64, 95
5, 223680, Note_off_c, 6, 68, 95
5, 223680, Note_off_c, 6, 64, 95
5, 223680, Note_on_c, 6, 66, 95
5, 224160, Note_off_c, 6, 66, 95
5, 224160, Note_on_c, 6, 64, 95
5, 225600, Note_off_c, 6, 64, 95
5, 225600, Note_on_c, 6, 57, 95
5, 226080, Note_off_c, 6, 57, 95
5, 226080, Note_on_c, 6, 66, 95
5, 227040, Note_off_c, 6, 66, 95
5, 227040, Note_on_c, 6, 64, 95
5, 227520, Note_off_c, 6, 64, 95
5, 227520, Note_on_c, 6, 57, 95
5, 228000, Note_off_c, 6, 57, 95
5, 228000, Note_on_c, 6, 66, 95
5, 228960, Note_off_c, 6, 66, 95
5, 228960, Note_on_c, 6, 64, 95
5, 229440, Note_off_c, 6, 64, 95
5, 229440, Note_on_c, 6, 57, 95
5, 229920, Note_off_c, 6, 57, 95
5, 229920, Note_on_c, 6, 64, 95
5, 230400, Note_off_c, 6, 64, 95
5, 230400, Note_on_c, 6, 69, 95
5, 230400, Note_on_c, 6, 61, 95
5, 230400, Note_on_c, 6, 57, 95
5, 230400, Note_on_c, 6, 52, 95
5, 230400, Note_on_c, 6, 49, 95
5, 230400, Note_on_c, 6, 45, 95
5, 231360, Note_off_c, 6, 69, 95
5, 231360, Note_off_c, 6, 61, 95
5, 231360, Note_off_c, 6, 57, 95
5, 231360, Note_off_c, 6, 52, 95
5, 231360, Note_off_c, 6, 49, 95
5, 231360, Note_off_c, 6, 45, 95
5, 231360, Note_on_c, 6, 69, 95
5, 231360, Note_on_c, 6, 61, 95
5, 231360, Note_on_c, 6, 57, 95
5, 231360, Note_on_c, 6, 52, 95
5, 231360, Note_on_c, 6, 49, 95
5, 231360, Note_on_c, 6, 45, 95
5, 231840, Note_off_c, 6, 69, 95
5, 231840, Note_off_c, 6, 61, 95
5, 231840, Note_off_c, 6, 57, 95
5, 231840, Note_off_c, 6, 52, 95
5, 231840, Note_off_c, 6, 49, 95
5, 231840, Note_off_c, 6, 45, 95
5, 231840, Note_on_c, 6, 69, 95
5, 231840, Note_on_c, 6, 61, 95
5, 231840, Note_on_c, 6, 57, 95
5, 231840, Note_on_c, 6, 52, 95
5, 231840, Note_on_c, 6, 49, 95
5, 231840, Note_on_c, 6, 45, 95
5, 232320, Note_off_c, 6, 69, 95
5, 232320, Note_off_c, 6, 61, 95
5, 232320, Note_off_c, 6, 57, 95
5, 232320, Note_off_c, 6, 52, 95
5, 232320, Note_off_c, 6, 49, 95
5, 232320, Note_off_c, 6, 45, 95
5, 232320, Note_on_c, 6, 66, 95
5, 232320, Note_on_c, 6, 62, 95
5, 232320, Note_on_c, 6, 57, 95
5, 232320, Note_on_c, 6, 54, 95
5, 232320, Note_on_c, 6, 50, 95
5, 233280, Note_off_c, 6, 66, 95
5, 233280, Note_off_c, 6, 62, 95
5, 233280, Note_off_c, 6, 57, 95
5, 233280, Note_off_c, 6, 54, 95
5, 233280, Note_off_c, 6, 50, 95
5, 233280, Note_on_c, 6, 66, 95
5, 233280, Note_on_c, 6, 62, 95
5, 233280, Note_on_c, 6, 57, 95
5, 233280, Note_on_c, 6, 54, 95
5, 233280, Note_on_c, 6, 50, 95
5, 233760, Note_off_c, 6, 66, 95
5, 233760, Note_off_c, 6, 62, 95
5, 233760, Note_off_c, 6, 57, 95
5, 233760, Note_off_c, 6, 54, 95
5, 233760, Note_off_c, 6, 50, 95
5, 233760, Note_on_c, 6, 66, 95
5, 233760, Note_on_c, 6, 61, 95
5, 233760, Note_on_c, 6, 57, 95
5, 233760, Note_on_c, 6, 52, 95
5, 234240, Note_off_c, 6, 66, 95
5, 234240, Note_off_c, 6, 61, 95
5, 234240, Note_off_c, 6, 57, 95
5, 234240, Note_off_c, 6, 52, 95
5, 234240, Note_on_c, 6, 69, 95
5, 234240, Note_on_c, 6, 61, 95
5, 234240, Note_on_c, 6, 57, 95
5, 234240, Note_on_c, 6, 52, 95
5, 234240, Note_on_c, 6, 49, 95
5, 234240, Note_on_c, 6, 45, 95
5, 235200, Note_off_c, 6, 69, 95
5, 235200, Note_off_c, 6, 61, 95
5, 235200, Note_off_c, 6, 57, 95
5, 235200, Note_off_c, 6, 52, 95
5, 235200, Note_off_c, 6, 49, 95
5, 235200, Note_off_c, 6, 45, 95
5, 235200, Note_on_c, 6, 69, 95
5, 235200, Note_on_c, 6, 61, 95
5, 235200, Note_on_c, 6, 57, 95
5, 235200, Note_on_c, 6, 52, 95
5, 235200, Note_on_c, 6, 49, 95
5, 235200, Note_on_c, 6, 45, 95
5, 235680, Note_off_c, 6, 69, 95
5, 235680, Note_off_c, 6, 61, 95
5, 235680, Note_off_c, 6, 57, 95
5, 235680, Note_off_c, 6, 52, 95
5, 235680, Note_off_c, 6, 49, 95
5, 235680, Note_off_c, 6, 45, 95
5, 235680, Note_on_c, 6, 69, 95
5, 235680, Note_on_c, 6, 61, 95
5, 235680, Note_on_c, 6, 57, 95
5, 235680, Note_on_c, 6, 52, 95
5, 235680, Note_on_c, 6, 49, 95
5, 235680, Note_on_c, 6, 45, 95
5, 236160, Note_off_c, 6, 69, 95
5, 236160, Note_off_c, 6, 61, 95
5, 236160, Note_off_c, 6, 57, 95
5, 236160, Note_off_c, 6, 52, 95
5, 236160, Note_off_c, 6, 49, 95
5, 236160, Note_off_c, 6, 45, 95
5, 236160, Note_on_c, 6, 66, 95
5, 236160, Note_on_c, 6, 62, 95
5, 236160, Note_on_c, 6, 57, 95
5, 236160, Note_on_c, 6, 54, 95
5, 236160, Note_on_c, 6, 50, 95
5, 236640, Note_off_c, 6, 66, 95
5, 236640, Note_off_c, 6, 62, 95
5, 236640, Note_off_c, 6, 57, 95
5, 236640, Note_off_c, 6, 54, 95
5, 236640, Note_off_c, 6, 50, 95
5, 236640, Note_on_c, 6, 52, 95
5, 237120, Note_off_c, 6, 52, 95
5, 237120, Note_on_c, 6, 54, 70
5, 237600, Note_off_c, 6, 54, 70
5, 237600, Note_on_c, 6, 57, 95
5, 238080, Note_off_c, 6, 57, 95
5, 238080, Note_on_c, 6, 69, 95
5, 238080, Note_on_c, 6, 61, 95
5, 238080, Note_on_c, 6, 57, 95
5, 238080, Note_on_c, 6, 52, 95
5, 238080, Note_on_c, 6, 49, 95
5, 238080, Note_on_c, 6, 45, 95
5, 239040, Note_off_c, 6, 69, 95
5, 239040, Note_off_c, 6, 61, 95
5, 239040, Note_off_c, 6, 57, 95
5, 239040, Note_off_c, 6, 52, 95
5, 239040, Note_off_c, 6, 49, 95
5, 239040, Note_off_c, 6, 45, 95
5, 239040, Note_on_c, 6, 69, 95
5, 239040, Note_on_c, 6, 61, 95
5, 239040, Note_on_c, 6, 57, 95
5, 239040, Note_on_c, 6, 52, 95
5, 239040, Note_on_c, 6, 49, 95
5, 239040, Note_on_c, 6, 45, 95
5, 239520, Note_off_c, 6, 69, 95
5, 239520, Note_off_c, 6, 61, 95
5, 239520, Note_off_c, 6, 57, 95
5, 239520, Note_off_c, 6, 52, 95
5, 239520, Note_off_c, 6, 49, 95
5, 239520, Note_off_c, 6, 45, 95
5, 239520, Note_on_c, 6, 69, 95
5, 239520, Note_on_c, 6, 61, 95
5, 239520, Note_on_c, 6, 57, 95
5, 239520, Note_on_c, 6, 52, 95
5, 239520, Note_on_c, 6, 49, 95
5, 239520, Note_on_c, 6, 45, 95
5, 240000, Note_off_c, 6, 69, 95
5, 240000, Note_off_c, 6, 61, 95
5, 240000, Note_off_c, 6, 57, 95
5, 240000, Note_off_c, 6, 52, 95
5, 240000, Note_off_c, 6, 49, 95
5, 240000, Note_off_c, 6, 45, 95
5, 240000, Note_on_c, 6, 66, 95
5, 240000, Note_on_c, 6, 62, 95
5, 240000, Note_on_c, 6, 57, 95
5, 240000, Note_on_c, 6, 54, 95
5, 240000, Note_on_c, 6, 50, 95
5, 240960, Note_off_c, 6, 66, 95
5, 240960, Note_off_c, 6, 62, 95
5, 240960, Note_off_c, 6, 57, 95
5, 240960, Note_off_c, 6, 54, 95
5, 240960, Note_off_c, 6, 50, 95
5, 240960, Note_on_c, 6, 66, 95
5, 240960, Note_on_c, 6, 62, 95
5, 240960, Note_on_c, 6, 57, 95
5, 240960, Note_on_c, 6, 54, 95
5, 240960, Note_on_c, 6, 50, 95
5, 241440, Note_off_c, 6, 66, 95
5, 241440, Note_off_c, 6, 62, 95
5, 241440, Note_off_c, 6, 57, 95
5, 241440, Note_off_c, 6, 54, 95
5, 241440, Note_off_c, 6, 50, 95
5, 241440, Note_on_c, 6, 66, 95
5, 241440, Note_on_c, 6, 61, 95
5, 241440, Note_on_c, 6, 57, 95
5, 241440, Note_on_c, 6, 52, 95
5, 241440, Note_on_c, 6, 47, 95
5, 241920, Note_off_c, 6, 66, 95
5, 241920, Note_off_c, 6, 61, 95
5, 241920, Note_off_c, 6, 57, 95
5, 241920, Note_off_c, 6, 52, 95
5, 241920, Note_off_c, 6, 47, 95
5, 241920, Note_on_c, 6, 69, 95
5, 241920, Note_on_c, 6, 61, 95
5, 241920, Note_on_c, 6, 57, 95
5, 241920, Note_on_c, 6, 52, 95
5, 241920, Note_on_c, 6, 49, 95
5, 241920, Note_on_c, 6, 45, 95
5, 245760, Note_off_c, 6, 69, 95
5, 245760, Note_off_c, 6, 61, 95
5, 245760, Note_off_c, 6, 57, 95
5, 245760, Note_off_c, 6, 52, 95
5, 245760, Note_off_c, 6, 49, 95
5, 245760, Note_off_c, 6, 45, 95
5, 245760, End_track
6, 0, Start_track
6, 0, Pitch_bend_c, 9, 8192
6, 0, Control_c, 9, 7, 103
6, 0, Control_c, 9, 10, 63
6, 0, Control_c, 9, 93, 0
6, 0, Control_c, 9, 91, 0
6, 0, Control_c, 9, 95, 0
6, 0, Control_c, 9, 92, 0
6, 0, Control_c, 9, 11, 127
6, 0, Program_c, 9, 0
6, 7680, Note_on_c, 9, 42, 79
6, 7680, Note_on_c, 9, 36, 95
6, 8160, Note_off_c, 9, 42, 79
6, 8160, Note_off_c, 9, 36, 95
6, 8160, Note_on_c, 9, 42, 79
6, 8640, Note_off_c, 9, 42, 79
6, 8640, Note_on_c, 9, 42, 79
6, 8640, Note_on_c, 9, 40, 95
6, 9120, Note_off_c, 9, 42, 79
6, 9120, Note_off_c, 9, 40, 95
6, 9120, Note_on_c, 9, 42, 79
6, 9600, Note_off_c, 9, 42, 79
6, 9600, Note_on_c, 9, 42, 79
6, 10080, Note_off_c, 9, 42, 79
6, 10080, Note_on_c, 9, 42, 79
6, 10080, Note_on_c, 9, 36, 95
6, 10560, Note_off_c, 9, 42, 79
6, 10560, Note_off_c, 9, 36, 95
6, 10560, Note_on_c, 9, 42, 79
6, 10560, Note_on_c, 9, 40, 95
6, 11040, Note_off_c, 9, 42, 79
6, 11040, Note_off_c, 9, 40, 95
6, 11040, Note_on_c, 9, 42, 79
6, 11040, Note_on_c, 9, 36, 95
6, 11520, Note_off_c, 9, 42, 79
6, 11520, Note_off_c, 9, 36, 95
6, 11520, Note_on_c, 9, 42, 79
6, 11520, Note_on_c, 9, 36, 95
6, 12000, Note_off_c, 9, 42, 79
6, 12000, Note_off_c, 9, 36, 95
6, 12000, Note_on_c, 9, 42, 79
6, 12480, Note_off_c, 9, 42, 79
6, 12480, Note_on_c, 9, 42, 79
6, 12480, Note_on_c, 9, 40, 95
6, 12960, Note_off_c, 9, 42, 79
6, 12960, Note_off_c, 9, 40, 95
6, 12960, Note_on_c, 9, 42, 79
6, 13440, Note_off_c, 9, 42, 79
6, 13440, Note_on_c, 9, 42, 79
6, 13920, Note_off_c, 9, 42, 79
6, 13920, Note_on_c, 9, 42, 79
6, 13920, Note_on_c, 9, 36, 95
6, 14400, Note_off_c, 9, 42, 79
6, 14400, Note_off_c, 9, 36, 95
6, 14400, Note_on_c, 9, 42, 79
6, 14400, Note_on_c, 9, 40, 95
6, 14880, Note_off_c, 9, 42, 79
6, 14880, Note_off_c, 9, 40, 95
6, 14880, Note_on_c, 9, 42, 79
6, 14880, Note_on_c, 9, 36, 95
6, 15360, Note_off_c, 9, 42, 79
6, 15360, Note_off_c, 9, 36, 95
6, 15360, Note_on_c, 9, 42, 79
6, 15360, Note_on_c, 9, 36, 95
6, 15840, Note_off_c, 9, 42, 79
6, 15840, Note_off_c, 9, 36, 95
6, 15840, Note_on_c, 9, 42, 79
6, 16320, Note_off_c, 9, 42, 79
6, 16320, Note_on_c, 9, 42, 79
6, 16320, Note_on_c, 9, 40, 95
6, 16800, Note_off_c, 9, 42, 79
6, 16800, Note_off_c, 9, 40, 95
6, 16800, Note_on_c, 9, 42, 79
6, 17280, Note_off_c, 9, 42, 79
6, 17280, Note_on_c, 9, 42, 79
6, 17760, Note_off_c, 9, 42, 79
6, 17760, Note_on_c, 9, 42, 79
6, 17760, Note_on_c, 9, 36, 95
6, 18240, Note_off_c, 9, 42, 79
6, 18240, Note_off_c, 9, 36, 95
6, 18240, Note_on_c, 9, 42, 79
6, 18240, Note_on_c, 9, 40, 95
6, 18720, Note_off_c, 9, 42, 79
6, 18720, Note_off_c, 9, 40, 95
6, 18720, Note_on_c, 9, 42, 79
6, 18720, Note_on_c, 9, 36, 95
6, 19200, Note_off_c, 9, 42, 79
6, 19200, Note_off_c, 9, 36, 95
6, 19200, Note_on_c, 9, 42, 79
6, 19200, Note_on_c, 9, 36, 95
6, 19680, Note_off_c, 9, 42, 79
6, 19680, Note_off_c, 9, 36, 95
6, 19680, Note_on_c, 9, 42, 79
6, 20160, Note_off_c, 9, 42, 79
6, 20160, Note_on_c, 9, 42, 79
6, 20160, Note_on_c, 9, 40, 95
6, 20640, Note_off_c, 9, 42, 79
6, 20640, Note_off_c, 9, 40, 95
6, 20640, Note_on_c, 9, 42, 79
6, 21120, Note_off_c, 9, 42, 79
6, 21120, Note_on_c, 9, 42, 79
6, 21600, Note_off_c, 9, 42, 79
6, 21600, Note_on_c, 9, 42, 79
6, 21600, Note_on_c, 9, 36, 95
6, 22080, Note_off_c, 9, 42, 79
6, 22080, Note_off_c, 9, 36, 95
6, 22080, Note_on_c, 9, 42, 79
6, 22080, Note_on_c, 9, 40, 95
6, 22560, Note_off_c, 9, 42, 79
6, 22560, Note_off_c, 9, 40, 95
6, 22560, Note_on_c, 9, 42, 79
6, 22560, Note_on_c, 9, 36, 95
6, 23040, Note_off_c, 9, 42, 79
6, 23040, Note_off_c, 9, 36, 95
6, 23040, Note_on_c, 9, 42, 79
6, 23040, Note_on_c, 9, 36, 95
6, 23520, Note_off_c, 9, 42, 79
6, 23520, Note_off_c, 9, 36, 95
6, 23520, Note_on_c, 9, 42, 79
6, 24000, Note_off_c, 9, 42, 79
6, 24000, Note_on_c, 9, 42, 79
6, 24000, Note_on_c, 9, 40, 95
6, 24480, Note_off_c, 9, 42, 79
6, 24480, Note_off_c, 9, 40, 95
6, 24480, Note_on_c, 9, 42, 79
6, 24960, Note_off_c, 9, 42, 79
6, 24960, Note_on_c, 9, 42, 79
6, 25440, Note_off_c, 9, 42, 79
6, 25440, Note_on_c, 9, 42, 79
6, 25440, Note_on_c, 9, 36, 95
6, 25920, Note_off_c, 9, 42, 79
6, 25920, Note_off_c, 9, 36, 95
6, 25920, Note_on_c, 9, 42, 79
6, 25920, Note_on_c, 9, 40, 95
6, 26400, Note_off_c, 9, 42, 79
6, 26400, Note_off_c, 9, 40, 95
6, 26400, Note_on_c, 9, 42, 79
6, 26400, Note_on_c, 9, 36, 95
6, 26880, Note_off_c, 9, 42, 79
6, 26880, Note_off_c, 9, 36, 95
6, 26880, Note_on_c, 9, 42, 79
6, 26880, Note_on_c, 9, 36, 95
6, 27360, Note_off_c, 9, 42, 79
6, 27360, Note_off_c, 9, 36, 95
6, 27360, Note_on_c, 9, 42, 79
6, 27840, Note_off_c, 9, 42, 79
6, 27840, Note_on_c, 9, 42, 79
6, 27840, Note_on_c, 9, 40, 95
6, 28320, Note_off_c, 9, 42, 79
6, 28320, Note_off_c, 9, 40, 95
6, 28320, Note_on_c, 9, 42, 79
6, 28800, Note_off_c, 9, 42, 79
6, 28800, Note_on_c, 9, 42, 79
6, 29280, Note_off_c, 9, 42, 79
6, 29280, Note_on_c, 9, 42, 79
6, 29280, Note_on_c, 9, 36, 95
6, 29760, Note_off_c, 9, 42, 79
6, 29760, Note_off_c, 9, 36, 95
6, 29760, Note_on_c, 9, 42, 79
6, 29760, Note_on_c, 9, 40, 95
6, 30240, Note_off_c, 9, 42, 79
6, 30240, Note_off_c, 9, 40, 95
6, 30240, Note_on_c, 9, 42, 79
6, 30240, Note_on_c, 9, 36, 95
6, 30720, Note_off_c, 9, 42, 79
6, 30720, Note_off_c, 9, 36, 95
6, 30720, Note_on_c, 9, 42, 79
6, 30720, Note_on_c, 9, 36, 95
6, 31200, Note_off_c, 9, 42, 79
6, 31200, Note_off_c, 9, 36, 95
6, 31200, Note_on_c, 9, 42, 79
6, 31680, Note_off_c, 9, 42, 79
6, 31680, Note_on_c, 9, 42, 79
6, 31680, Note_on_c, 9, 40, 95
6, 32160, Note_off_c, 9, 42, 79
6, 32160, Note_off_c, 9, 40, 95
6, 32160, Note_on_c, 9, 42, 79
6, 32640, Note_off_c, 9, 42, 79
6, 32640, Note_on_c, 9, 42, 79
6, 33120, Note_off_c, 9, 42, 79
6, 33120, Note_on_c, 9, 42, 79
6, 33120, Note_on_c, 9, 36, 95
6, 33600, Note_off_c, 9, 42, 79
6, 33600, Note_off_c, 9, 36, 95
6, 33600, Note_on_c, 9, 42, 79
6, 33600, Note_on_c, 9, 40, 95
6, 34080, Note_off_c, 9, 42, 79
6, 34080, Note_off_c, 9, 40, 95
6, 34080, Note_on_c, 9, 42, 79
6, 34080, Note_on_c, 9, 36, 95
6, 34560, Note_off_c, 9, 42, 79
6, 34560, Note_off_c, 9, 36, 95
6, 34560, Note_on_c, 9, 42, 79
6, 34560, Note_on_c, 9, 36, 95
6, 35040, Note_off_c, 9, 42, 79
6, 35040, Note_off_c, 9, 36, 95
6, 35040, Note_on_c, 9, 42, 79
6, 35520, Note_off_c, 9, 42, 79
6, 35520, Note_on_c, 9, 42, 79
6, 35520, Note_on_c, 9, 40, 95
6, 36000, Note_off_c, 9, 42, 79
6, 36000, Note_off_c, 9, 40, 95
6, 36000, Note_on_c, 9, 42, 79
6, 36480, Note_off_c, 9, 42, 79
6, 36480, Note_on_c, 9, 42, 79
6, 36960, Note_off_c, 9, 42, 79
6, 36960, Note_on_c, 9, 42, 79
6, 36960, Note_on_c, 9, 36, 95
6, 37440, Note_off_c, 9, 42, 79
6, 37440, Note_off_c, 9, 36, 95
6, 37440, Note_on_c, 9, 42, 79
6, 37440, Note_on_c, 9, 40, 95
6, 37920, Note_off_c, 9, 42, 79
6, 37920, Note_off_c, 9, 40, 95
6, 37920, Note_on_c, 9, 42, 79
6, 37920, Note_on_c, 9, 36, 95
6, 38400, Note_off_c, 9, 42, 79
6, 38400, Note_off_c, 9, 36, 95
6, 38400, Note_on_c, 9, 42, 79
6, 38400, Note_on_c, 9, 36, 95
6, 38880, Note_off_c, 9, 42, 79
6, 38880, Note_off_c, 9, 36, 95
6, 38880, Note_on_c, 9, 42, 79
6, 39360, Note_off_c, 9, 42, 79
6, 39360, Note_on_c, 9, 42, 79
6, 39360, Note_on_c, 9, 40, 95
6, 39840, Note_off_c, 9, 42, 79
6, 39840, Note_off_c, 9, 40, 95
6, 39840, Note_on_c, 9, 42, 79
6, 40320, Note_off_c, 9, 42, 79
6, 40320, Note_on_c, 9, 42, 79
6, 40800, Note_off_c, 9, 42, 79
6, 40800, Note_on_c, 9, 42, 79
6, 40800, Note_on_c, 9, 36, 95
6, 41280, Note_off_c, 9, 42, 79
6, 41280, Note_off_c, 9, 36, 95
6, 41280, Note_on_c, 9, 42, 79
6, 41280, Note_on_c, 9, 40, 95
6, 41760, Note_off_c, 9, 42, 79
6, 41760, Note_off_c, 9, 40, 95
6, 41760, Note_on_c, 9, 42, 79
6, 41760, Note_on_c, 9, 36, 95
6, 42240, Note_off_c, 9, 42, 79
6, 42240, Note_off_c, 9, 36, 95
6, 42240, Note_on_c, 9, 42, 79
6, 42240, Note_on_c, 9, 36, 95
6, 46080, Note_off_c, 9, 42, 79
6, 46080, Note_off_c, 9, 36, 95
6, 49920, Note_on_c, 9, 42, 79
6, 49920, Note_on_c, 9, 36, 95
6, 50400, Note_off_c, 9, 42, 79
6, 50400, Note_off_c, 9, 36, 95
6, 50400, Note_on_c, 9, 42, 79
6, 50880, Note_off_c, 9, 42, 79
6, 50880, Note_on_c, 9, 42, 79
6, 50880, Note_on_c, 9, 40, 95
6, 51360, Note_off_c, 9, 42, 79
6, 51360, Note_off_c, 9, 40, 95
6, 51360, Note_on_c, 9, 42, 79
6, 51840, Note_off_c, 9, 42, 79
6, 51840, Note_on_c, 9, 42, 79
6, 52320, Note_off_c, 9, 42, 79
6, 52320, Note_on_c, 9, 42, 79
6, 52320, Note_on_c, 9, 36, 95
6, 52800, Note_off_c, 9, 42, 79
6, 52800, Note_off_c, 9, 36, 95
6, 52800, Note_on_c, 9, 42, 79
6, 52800, Note_on_c, 9, 40, 95
6, 53280, Note_off_c, 9, 42, 79
6, 53280, Note_off_c, 9, 40, 95
6, 53280, Note_on_c, 9, 42, 79
6, 53280, Note_on_c, 9, 36, 95
6, 53760, Note_off_c, 9, 42, 79
6, 53760, Note_off_c, 9, 36, 95
6, 53760, Note_on_c, 9, 42, 79
6, 53760, Note_on_c, 9, 36, 95
6, 54240, Note_off_c, 9, 42, 79
6, 54240, Note_off_c, 9, 36, 95
6, 54240, Note_on_c, 9, 42, 79
6, 54720, Note_off_c, 9, 42, 79
6, 54720, Note_on_c, 9, 42, 79
6, 54720, Note_on_c, 9, 40, 95
6, 55200, Note_off_c, 9, 42, 79
6, 55200, Note_off_c, 9, 40, 95
6, 55200, Note_on_c, 9, 42, 79
6, 55680, Note_off_c, 9, 42, 79
6, 55680, Note_on_c, 9, 42, 79
6, 56160, Note_off_c, 9, 42, 79
6, 56160, Note_on_c, 9, 42, 79
6, 56160, Note_on_c, 9, 36, 95
6, 56640, Note_off_c, 9, 42, 79
6, 56640, Note_off_c, 9, 36, 95
6, 56640, Note_on_c, 9, 42, 79
6, 56640, Note_on_c, 9, 40, 95
6, 57120, Note_off_c, 9, 42, 79
6, 57120, Note_off_c, 9, 40, 95
6, 57120, Note_on_c, 9, 42, 79
6, 57120, Note_on_c, 9, 36, 95
6, 57600, Note_off_c, 9, 42, 79
6, 57600, Note_off_c, 9, 36, 95
6, 57600, Note_on_c, 9, 42, 79
6, 57600, Note_on_c, 9, 36, 95
6, 58080, Note_off_c, 9, 42, 79
6, 58080, Note_off_c, 9, 36, 95
6, 58080, Note_on_c, 9, 42, 79
6, 58560, Note_off_c, 9, 42, 79
6, 58560, Note_on_c, 9, 42, 79
6, 58560, Note_on_c, 9, 40, 95
6, 59040, Note_off_c, 9, 42, 79
6, 59040, Note_off_c, 9, 40, 95
6, 59040, Note_on_c, 9, 42, 79
6, 59520, Note_off_c, 9, 42, 79
6, 59520, Note_on_c, 9, 42, 79
6, 60000, Note_off_c, 9, 42, 79
6, 60000, Note_on_c, 9, 42, 79
6, 60000, Note_on_c, 9, 36, 95
6, 60480, Note_off_c, 9, 42, 79
6, 60480, Note_off_c, 9, 36, 95
6, 60480, Note_on_c, 9, 42, 79
6, 60480, Note_on_c, 9, 40, 95
6, 60960, Note_off_c, 9, 42, 79
6, 60960, Note_off_c, 9, 40, 95
6, 60960, Note_on_c, 9, 42, 79
6, 60960, Note_on_c, 9, 36, 95
6, 61440, Note_off_c, 9, 42, 79
6, 61440, Note_off_c, 9, 36, 95
6, 61440, Note_on_c, 9, 42, 79
6, 61440, Note_on_c, 9, 36, 95
6, 61920, Note_off_c, 9, 42, 79
6, 61920, Note_off_c, 9, 36, 95
6, 61920, Note_on_c, 9, 42, 79
6, 62400, Note_off_c, 9, 42, 79
6, 62400, Note_on_c, 9, 42, 79
6, 62400, Note_on_c, 9, 40, 95
6, 62880, Note_off_c, 9, 42, 79
6, 62880, Note_off_c, 9, 40, 95
6, 62880, Note_on_c, 9, 42, 79
6, 63360, Note_off_c, 9, 42, 79
6, 63360, Note_on_c, 9, 42, 79
6, 63840, Note_off_c, 9, 42, 79
6, 63840, Note_on_c, 9, 42, 79
6, 63840, Note_on_c, 9, 36, 95
6, 64320, Note_off_c, 9, 42, 79
6, 64320, Note_off_c, 9, 36, 95
6, 64320, Note_on_c, 9, 42, 79
6, 64320, Note_on_c, 9, 40, 95
6, 64800, Note_off_c, 9, 42, 79
6, 64800, Note_off_c, 9, 40, 95
6, 64800, Note_on_c, 9, 42, 79
6, 64800, Note_on_c, 9, 36, 95
6, 65280, Note_off_c, 9, 42, 79
6, 65280, Note_off_c, 9, 36, 95
6, 65280, Note_on_c, 9, 42, 79
6, 65280, Note_on_c, 9, 36, 95
6, 65760, Note_off_c, 9, 42, 79
6, 65760, Note_off_c, 9, 36, 95
6, 65760, Note_on_c, 9, 42, 79
6, 66240, Note_off_c, 9, 42, 79
6, 66240, Note_on_c, 9, 42, 79
6, 66240, Note_on_c, 9, 40, 95
6, 66720, Note_off_c, 9, 42, 79
6, 66720, Note_off_c, 9, 40, 95
6, 66720, Note_on_c, 9, 42, 79
6, 67200, Note_off_c, 9, 42, 79
6, 67200, Note_on_c, 9, 42, 79
6, 67680, Note_off_c, 9, 42, 79
6, 67680, Note_on_c, 9, 42, 79
6, 67680, Note_on_c, 9, 36, 95
6, 68160, Note_off_c, 9, 42, 79
6, 68160, Note_off_c, 9, 36, 95
6, 68160, Note_on_c, 9, 42, 79
6, 68160, Note_on_c, 9, 40, 95
6, 68640, Note_off_c, 9, 42, 79
6, 68640, Note_off_c, 9, 40, 95
6, 68640, Note_on_c, 9, 42, 79
6, 68640, Note_on_c, 9, 36, 95
6, 69120, Note_off_c, 9, 42, 79
6, 69120, Note_off_c, 9, 36, 95
6, 69120, Note_on_c, 9, 42, 79
6, 69120, Note_on_c, 9, 36, 95
6, 69600, Note_off_c, 9, 42, 79
6, 69600, Note_off_c, 9, 36, 95
6, 69600, Note_on_c, 9, 42, 79
6, 70080, Note_off_c, 9, 42, 79
6, 70080, Note_on_c, 9, 42, 79
6, 70080, Note_on_c, 9, 40, 95
6, 70560, Note_off_c, 9, 42, 79
6, 70560, Note_off_c, 9, 40, 95
6, 70560, Note_on_c, 9, 42, 79
6, 71040, Note_off_c, 9, 42, 79
6, 71040, Note_on_c, 9, 42, 79
6, 71520, Note_off_c, 9, 42, 79
6, 71520, Note_on_c, 9, 42, 79
6, 71520, Note_on_c, 9, 36, 95
6, 72000, Note_off_c, 9, 42, 79
6, 72000, Note_off_c, 9, 36, 95
6, 72000, Note_on_c, 9, 42, 79
6, 72000, Note_on_c, 9, 40, 95
6, 72480, Note_off_c, 9, 42, 79
6, 72480, Note_off_c, 9, 40, 95
6, 72480, Note_on_c, 9, 42, 79
6, 72480, Note_on_c, 9, 36, 95
6, 72960, Note_off_c, 9, 42, 79
6, 72960, Note_off_c, 9, 36, 95
6, 72960, Note_on_c, 9, 42, 79
6, 72960, Note_on_c, 9, 36, 95
6, 73440, Note_off_c, 9, 42, 79
6, 73440, Note_off_c, 9, 36, 95
6, 73440, Note_on_c, 9, 42, 79
6, 73920, Note_off_c, 9, 42, 79
6, 73920, Note_on_c, 9, 42, 79
6, 73920, Note_on_c, 9, 40, 95
6, 74400, Note_off_c, 9, 42, 79
6, 74400, Note_off_c, 9, 40, 95
6, 74400, Note_on_c, 9, 42, 79
6, 74880, Note_off_c, 9, 42, 79
6, 74880, Note_on_c, 9, 42, 79
6, 75360, Note_off_c, 9, 42, 79
6, 75360, Note_on_c, 9, 42, 79
6, 75360, Note_on_c, 9, 36, 95
6, 75840, Note_off_c, 9, 42, 79
6, 75840, Note_off_c, 9, 36, 95
6, 75840, Note_on_c, 9, 42, 79
6, 75840, Note_on_c, 9, 40, 95
6, 76320, Note_off_c, 9, 42, 79
6, 76320, Note_off_c, 9, 40, 95
6, 76320, Note_on_c, 9, 42, 79
6, 76320, Note_on_c, 9, 36, 95
6, 76800, Note_off_c, 9, 42, 79
6, 76800, Note_off_c, 9, 36, 95
6, 76800, Note_on_c, 9, 42, 79
6, 76800, Note_on_c, 9, 36, 95
6, 77280, Note_off_c, 9, 42, 79
6, 77280, Note_off_c, 9, 36, 95
6, 77280, Note_on_c, 9, 42, 79
6, 77760, Note_off_c, 9, 42, 79
6, 77760, Note_on_c, 9, 42, 79
6, 77760, Note_on_c, 9, 40, 95
6, 78240, Note_off_c, 9, 42, 79
6, 78240, Note_off_c, 9, 40, 95
6, 78240, Note_on_c, 9, 42, 79
6, 78720, Note_off_c, 9, 42, 79
6, 78720, Note_on_c, 9, 42, 79
6, 79200, Note_off_c, 9, 42, 79
6, 79200, Note_on_c, 9, 42, 79
6, 79200, Note_on_c, 9, 36, 95
6, 79680, Note_off_c, 9, 42, 79
6, 79680, Note_off_c, 9, 36, 95
6, 79680, Note_on_c, 9, 42, 79
6, 79680, Note_on_c, 9, 40, 95
6, 80160, Note_off_c, 9, 42, 79
6, 80160, Note_off_c, 9, 40, 95
6, 80160, Note_on_c, 9, 42, 79
6, 80160, Note_on_c, 9, 36, 95
6, 80640, Note_off_c, 9, 42, 79
6, 80640, Note_off_c, 9, 36, 95
6, 80640, Note_on_c, 9, 42, 79
6, 80640, Note_on_c, 9, 36, 95
6, 81120, Note_off_c, 9, 42, 79
6, 81120, Note_off_c, 9, 36, 95
6, 81120, Note_on_c, 9, 42, 79
6, 81600, Note_off_c, 9, 42, 79
6, 81600, Note_on_c, 9, 42, 79
6, 81600, Note_on_c, 9, 40, 95
6, 82080, Note_off_c, 9, 42, 79
6, 82080, Note_off_c, 9, 40, 95
6, 82080, Note_on_c, 9, 42, 79
6, 82560, Note_off_c, 9, 42, 79
6, 82560, Note_on_c, 9, 42, 79
6, 83040, Note_off_c, 9, 42, 79
6, 83040, Note_on_c, 9, 42, 79
6, 83040, Note_on_c, 9, 36, 95
6, 83520, Note_off_c, 9, 42, 79
6, 83520, Note_off_c, 9, 36, 95
6, 83520, Note_on_c, 9, 42, 79
6, 83520, Note_on_c, 9, 40, 95
6, 84000, Note_off_c, 9, 42, 79
6, 84000, Note_off_c, 9, 40, 95
6, 84000, Note_on_c, 9, 42, 79
6, 84000, Note_on_c, 9, 36, 95
6, 84480, Note_off_c, 9, 42, 79
6, 84480, Note_off_c, 9, 36, 95
6, 84480, Note_on_c, 9, 42, 79
6, 84480, Note_on_c, 9, 36, 95
6, 84960, Note_off_c, 9, 42, 79
6, 84960, Note_off_c, 9, 36, 95
6, 84960, Note_on_c, 9, 42, 79
6, 85440, Note_off_c, 9, 42, 79
6, 85440, Note_on_c, 9, 42, 79
6, 85440, Note_on_c, 9, 40, 95
6, 85920, Note_off_c, 9, 42, 79
6, 85920, Note_off_c, 9, 40, 95
6, 85920, Note_on_c, 9, 42, 79
6, 86400, Note_off_c, 9, 42, 79
6, 86400, Note_on_c, 9, 42, 79
6, 86880, Note_off_c, 9, 42, 79
6, 86880, Note_on_c, 9, 42, 79
6, 86880, Note_on_c, 9, 36, 95
6, 87360, Note_off_c, 9, 42, 79
6, 87360, Note_off_c, 9, 36, 95
6, 87360, Note_on_c, 9, 42, 79
6, 87360, Note_on_c, 9, 40, 95
6, 87840, Note_off_c, 9, 42, 79
6, 87840, Note_off_c, 9, 40, 95
6, 87840, Note_on_c, 9, 42, 79
6, 87840, Note_on_c, 9, 36, 95
6, 88320, Note_off_c, 9, 42, 79
6, 88320, Note_off_c, 9, 36, 95
6, 88320, Note_on_c, 9, 42, 79
6, 88320, Note_on_c, 9, 36, 95
6, 88800, Note_off_c, 9, 42, 79
6, 88800, Note_off_c, 9, 36, 95
6, 88800, Note_on_c, 9, 42, 79
6, 89280, Note_off_c, 9, 42, 79
6, 89280, Note_on_c, 9, 42, 79
6, 89280, Note_on_c, 9, 40, 95
6, 89760, Note_off_c, 9, 42, 79
6, 89760, Note_off_c, 9, 40, 95
6, 89760, Note_on_c, 9, 42, 79
6, 90240, Note_off_c, 9, 42, 79
6, 90240, Note_on_c, 9, 42, 79
6, 90720, Note_off_c, 9, 42, 79
6, 90720, Note_on_c, 9, 42, 79
6, 90720, Note_on_c, 9, 36, 95
6, 91200, Note_off_c, 9, 42, 79
6, 91200, Note_off_c, 9, 36, 95
6, 91200, Note_on_c, 9, 42, 79
6, 91200, Note_on_c, 9, 40, 95
6, 91680, Note_off_c, 9, 42, 79
6, 91680, Note_off_c, 9, 40, 95
6, 91680, Note_on_c, 9, 42, 79
6, 91680, Note_on_c, 9, 36, 95
6, 92160, Note_off_c, 9, 42, 79
6, 92160, Note_off_c, 9, 36, 95
6, 92160, Note_on_c, 9, 42, 79
6, 92160, Note_on_c, 9, 36, 95
6, 92640, Note_off_c, 9, 42, 79
6, 92640, Note_off_c, 9, 36, 95
6, 92640, Note_on_c, 9, 42, 79
6, 93120, Note_off_c, 9, 42, 79
6, 93120, Note_on_c, 9, 42, 79
6, 93120, Note_on_c, 9, 40, 95
6, 93600, Note_off_c, 9, 42, 79
6, 93600, Note_off_c, 9, 40, 95
6, 93600, Note_on_c, 9, 42, 79
6, 94080, Note_off_c, 9, 42, 79
6, 94080, Note_on_c, 9, 42, 79
6, 94560, Note_off_c, 9, 42, 79
6, 94560, Note_on_c, 9, 42, 79
6, 94560, Note_on_c, 9, 36, 95
6, 95040, Note_off_c, 9, 42, 79
6, 95040, Note_off_c, 9, 36, 95
6, 95040, Note_on_c, 9, 42, 79
6, 95040, Note_on_c, 9, 40, 95
6, 95520, Note_off_c, 9, 42, 79
6, 95520, Note_off_c, 9, 40, 95
6, 95520, Note_on_c, 9, 42, 79
6, 95520, Note_on_c, 9, 36, 95
6, 96000, Note_off_c, 9, 42, 79
6, 96000, Note_off_c, 9, 36, 95
6, 96000, Note_on_c, 9, 42, 79
6, 96000, Note_on_c, 9, 36, 95
6, 96480, Note_off_c, 9, 42, 79
6, 96480, Note_off_c, 9, 36, 95
6, 96480, Note_on_c, 9, 42, 79
6, 96960, Note_off_c, 9, 42, 79
6, 96960, Note_on_c, 9, 42, 79
6, 96960, Note_on_c, 9, 40, 95
6, 97440, Note_off_c, 9, 42, 79
6, 97440, Note_off_c, 9, 40, 95
6, 97440, Note_on_c, 9, 42, 79
6, 97920, Note_off_c, 9, 42, 79
6, 97920, Note_on_c, 9, 42, 79
6, 98400, Note_off_c, 9, 42, 79
6, 98400, Note_on_c, 9, 42, 79
6, 98400, Note_on_c, 9, 36, 95
6, 98880, Note_off_c, 9, 42, 79
6, 98880, Note_off_c, 9, 36, 95
6, 98880, Note_on_c, 9, 42, 79
6, 98880, Note_on_c, 9, 40, 95
6, 99360, Note_off_c, 9, 42, 79
6, 99360, Note_off_c, 9, 40, 95
6, 99360, Note_on_c, 9, 42, 79
6, 99360, Note_on_c, 9, 36, 95
6, 99840, Note_off_c, 9, 42, 79
6, 99840, Note_off_c, 9, 36, 95
6, 99840, Note_on_c, 9, 42, 79
6, 99840, Note_on_c, 9, 36, 95
6, 100320, Note_off_c, 9, 42, 79
6, 100320, Note_off_c, 9, 36, 95
6, 100320, Note_on_c, 9, 42, 79
6, 100800, Note_off_c, 9, 42, 79
6, 100800, Note_on_c, 9, 42, 79
6, 100800, Note_on_c, 9, 40, 95
6, 101280, Note_off_c, 9, 42, 79
6, 101280, Note_off_c, 9, 40, 95
6, 101280, Note_on_c, 9, 42, 79
6, 101760, Note_off_c, 9, 42, 79
6, 101760, Note_on_c, 9, 42, 79
6, 102240, Note_off_c, 9, 42, 79
6, 102240, Note_on_c, 9, 42, 79
6, 102240, Note_on_c, 9, 36, 95
6, 102720, Note_off_c, 9, 42, 79
6, 102720, Note_off_c, 9, 36, 95
6, 102720, Note_on_c, 9, 42, 79
6, 102720, Note_on_c, 9, 40, 95
6, 103200, Note_off_c, 9, 42, 79
6, 103200, Note_off_c, 9, 40, 95
6, 103200, Note_on_c, 9, 42, 79
6, 103200, Note_on_c, 9, 36, 95
6, 103680, Note_off_c, 9, 42, 79
6, 103680, Note_off_c, 9, 36, 95
6, 103680, Note_on_c, 9, 42, 79
6, 103680, Note_on_c, 9, 36, 95
6, 104160, Note_off_c, 9, 42, 79
6, 104160, Note_off_c, 9, 36, 95
6, 104160, Note_on_c, 9, 42, 79
6, 104640, Note_off_c, 9, 42, 79
6, 104640, Note_on_c, 9, 42, 79
6, 104640, Note_on_c, 9, 40, 95
6, 105120, Note_off_c, 9, 42, 79
6, 105120, Note_off_c, 9, 40, 95
6, 105120, Note_on_c, 9, 42, 79
6, 105600, Note_off_c, 9, 42, 79
6, 105600, Note_on_c, 9, 42, 79
6, 106080, Note_off_c, 9, 42, 79
6, 106080, Note_on_c, 9, 42, 79
6, 106080, Note_on_c, 9, 36, 95
6, 106560, Note_off_c, 9, 42, 79
6, 106560, Note_off_c, 9, 36, 95
6, 106560, Note_on_c, 9, 42, 79
6, 106560, Note_on_c, 9, 40, 95
6, 107040, Note_off_c, 9, 42, 79
6, 107040, Note_off_c, 9, 40, 95
6, 107040, Note_on_c, 9, 42, 79
6, 107040, Note_on_c, 9, 36, 95
6, 107520, Note_off_c, 9, 42, 79
6, 107520, Note_off_c, 9, 36, 95
6, 107520, Note_on_c, 9, 42, 79
6, 107520, Note_on_c, 9, 36, 95
6, 108000, Note_off_c, 9, 42, 79
6, 108000, Note_off_c, 9, 36, 95
6, 108000, Note_on_c, 9, 42, 79
6, 108480, Note_off_c, 9, 42, 79
6, 108480, Note_on_c, 9, 42, 79
6, 108480, Note_on_c, 9, 40, 95
6, 108960, Note_off_c, 9, 42, 79
6, 108960, Note_off_c, 9, 40, 95
6, 108960, Note_on_c, 9, 42, 79
6, 109440, Note_off_c, 9, 42, 79
6, 109440, Note_on_c, 9, 42, 79
6, 109920, Note_off_c, 9, 42, 79
6, 109920, Note_on_c, 9, 42, 79
6, 109920, Note_on_c, 9, 36, 95
6, 110400, Note_off_c, 9, 42, 79
6, 110400, Note_off_c, 9, 36, 95
6, 110400, Note_on_c, 9, 42, 79
6, 110400, Note_on_c, 9, 40, 95
6, 110880, Note_off_c, 9, 42, 79
6, 110880, Note_off_c, 9, 40, 95
6, 110880, Note_on_c, 9, 42, 79
6, 110880, Note_on_c, 9, 36, 95
6, 111360, Note_off_c, 9, 42, 79
6, 111360, Note_off_c, 9, 36, 95
6, 111360, Note_on_c, 9, 42, 79
6, 111360, Note_on_c, 9, 36, 95
6, 111840, Note_off_c, 9, 42, 79
6, 111840, Note_off_c, 9, 36, 95
6, 111840, Note_on_c, 9, 42, 79
6, 112320, Note_off_c, 9, 42, 79
6, 112320, Note_on_c, 9, 42, 79
6, 112320, Note_on_c, 9, 40, 95
6, 112800, Note_off_c, 9, 42, 79
6, 112800, Note_off_c, 9, 40, 95
6, 112800, Note_on_c, 9, 42, 79
6, 113280, Note_off_c, 9, 42, 79
6, 113280, Note_on_c, 9, 42, 79
6, 113760, Note_off_c, 9, 42, 79
6, 113760, Note_on_c, 9, 42, 79
6, 113760, Note_on_c, 9, 36, 95
6, 114240, Note_off_c, 9, 42, 79
6, 114240, Note_off_c, 9, 36, 95
6, 114240, Note_on_c, 9, 42, 79
6, 114240, Note_on_c, 9, 40, 95
6, 114720, Note_off_c, 9, 42, 79
6, 114720, Note_off_c, 9, 40, 95
6, 114720, Note_on_c, 9, 42, 79
6, 114720, Note_on_c, 9, 36, 95
6, 115200, Note_off_c, 9, 42, 79
6, 115200, Note_off_c, 9, 36, 95
6, 115200, Note_on_c, 9, 42, 79
6, 115200, Note_on_c, 9, 36, 95
6, 115680, Note_off_c, 9, 42, 79
6, 115680, Note_off_c, 9, 36, 95
6, 115680, Note_on_c, 9, 42, 79
6, 116160, Note_off_c, 9, 42, 79
6, 116160, Note_on_c, 9, 42, 79
6, 116160, Note_on_c, 9, 40, 95
6, 116640, Note_off_c, 9, 42, 79
6, 116640, Note_off_c, 9, 40, 95
6, 116640, Note_on_c, 9, 42, 79
6, 117120, Note_off_c, 9, 42, 79
6, 117120, Note_on_c, 9, 42, 79
6, 117600, Note_off_c, 9, 42, 79
6, 117600, Note_on_c, 9, 42, 79
6, 117600, Note_on_c, 9, 36, 95
6, 118080, Note_off_c, 9, 42, 79
6, 118080, Note_off_c, 9, 36, 95
6, 118080, Note_on_c, 9, 42, 79
6, 118080, Note_on_c, 9, 40, 95
6, 118560, Note_off_c, 9, 42, 79
6, 118560, Note_off_c, 9, 40, 95
6, 118560, Note_on_c, 9, 42, 79
6, 118560, Note_on_c, 9, 36, 95
6, 119040, Note_off_c, 9, 42, 79
6, 119040, Note_off_c, 9, 36, 95
6, 119040, Note_on_c, 9, 42, 79
6, 119040, Note_on_c, 9, 36, 95
6, 119520, Note_off_c, 9, 42, 79
6, 119520, Note_off_c, 9, 36, 95
6, 119520, Note_on_c, 9, 42, 79
6, 120000, Note_off_c, 9, 42, 79
6, 120000, Note_on_c, 9, 42, 79
6, 120000, Note_on_c, 9, 40, 95
6, 120480, Note_off_c, 9, 42, 79
6, 120480, Note_off_c, 9, 40, 95
6, 120480, Note_on_c, 9, 42, 79
6, 120960, Note_off_c, 9, 42, 79
6, 120960, Note_on_c, 9, 42, 79
6, 121440, Note_off_c, 9, 42, 79
6, 121440, Note_on_c, 9, 42, 79
6, 121440, Note_on_c, 9, 36, 95
6, 121920, Note_off_c, 9, 42, 79
6, 121920, Note_off_c, 9, 36, 95
6, 121920, Note_on_c, 9, 42, 79
6, 121920, Note_on_c, 9, 40, 95
6, 122400, Note_off_c, 9, 42, 79
6, 122400, Note_off_c, 9, 40, 95
6, 122400, Note_on_c, 9, 42, 79
6, 122400, Note_on_c, 9, 36, 95
6, 122880, Note_off_c, 9, 42, 79
6, 122880, Note_off_c, 9, 36, 95
6, 122880, Note_on_c, 9, 42, 79
6, 122880, Note_on_c, 9, 36, 95
6, 123360, Note_off_c, 9, 42, 79
6, 123360, Note_off_c, 9, 36, 95
6, 123360, Note_on_c, 9, 42, 79
6, 123840, Note_off_c, 9, 42, 79
6, 123840, Note_on_c, 9, 42, 79
6, 123840, Note_on_c, 9, 40, 95
6, 124320, Note_off_c, 9, 42, 79
6, 124320, Note_off_c, 9, 40, 95
6, 124320, Note_on_c, 9, 42, 79
6, 124800, Note_off_c, 9, 42, 79
6, 124800, Note_on_c, 9, 42, 79
6, 125280, Note_off_c, 9, 42, 79
6, 125280, Note_on_c, 9, 42, 79
6, 125280, Note_on_c, 9, 36, 95
6, 125760, Note_off_c, 9, 42, 79
6, 125760, Note_off_c, 9, 36, 95
6, 125760, Note_on_c, 9, 42, 79
6, 125760, Note_on_c, 9, 40, 95
6, 126240, Note_off_c, 9, 42, 79
6, 126240, Note_off_c, 9, 40, 95
6, 126240, Note_on_c, 9, 42, 79
6, 126240, Note_on_c, 9, 36, 95
6, 126720, Note_off_c, 9, 42, 79
6, 126720, Note_off_c, 9, 36, 95
6, 126720, Note_on_c, 9, 42, 79
6, 126720, Note_on_c, 9, 36, 95
6, 127200, Note_off_c, 9, 42, 79
6, 127200, Note_off_c, 9, 36, 95
6, 127200, Note_on_c, 9, 42, 79
6, 127680, Note_off_c, 9, 42, 79
6, 127680, Note_on_c, 9, 42, 79
6, 127680, Note_on_c, 9, 40, 95
6, 128160, Note_off_c, 9, 42, 79
6, 128160, Note_off_c, 9, 40, 95
6, 128160, Note_on_c, 9, 42, 79
6, 128640, Note_off_c, 9, 42, 79
6, 128640, Note_on_c, 9, 42, 79
6, 129120, Note_off_c, 9, 42, 79
6, 129120, Note_on_c, 9, 42, 79
6, 129120, Note_on_c, 9, 36, 95
6, 129600, Note_off_c, 9, 42, 79
6, 129600, Note_off_c, 9, 36, 95
6, 129600, Note_on_c, 9, 42, 79
6, 129600, Note_on_c, 9, 40, 95
6, 130080, Note_off_c, 9, 42, 79
6, 130080, Note_off_c, 9, 40, 95
6, 130080, Note_on_c, 9, 42, 79
6, 130080, Note_on_c, 9, 36, 95
6, 130560, Note_off_c, 9, 42, 79
6, 130560, Note_off_c, 9, 36, 95
6, 130560, Note_on_c, 9, 42, 79
6, 130560, Note_on_c, 9, 36, 95
6, 131040, Note_off_c, 9, 42, 79
6, 131040, Note_off_c, 9, 36, 95
6, 131040, Note_on_c, 9, 42, 79
6, 131520, Note_off_c, 9, 42, 79
6, 131520, Note_on_c, 9, 42, 79
6, 131520, Note_on_c, 9, 40, 95
6, 132000, Note_off_c, 9, 42, 79
6, 132000, Note_off_c, 9, 40, 95
6, 132000, Note_on_c, 9, 42, 79
6, 132480, Note_off_c, 9, 42, 79
6, 132480, Note_on_c, 9, 42, 79
6, 132960, Note_off_c, 9, 42, 79
6, 132960, Note_on_c, 9, 42, 79
6, 132960, Note_on_c, 9, 36, 95
6, 133440, Note_off_c, 9, 42, 79
6, 133440, Note_off_c, 9, 36, 95
6, 133440, Note_on_c, 9, 42, 79
6, 133440, Note_on_c, 9, 40, 95
6, 133920, Note_off_c, 9, 42, 79
6, 133920, Note_off_c, 9, 40, 95
6, 133920, Note_on_c, 9, 42, 79
6, 133920, Note_on_c, 9, 36, 95
6, 134400, Note_off_c, 9, 42, 79
6, 134400, Note_off_c, 9, 36, 95
6, 134400, Note_on_c, 9, 42, 79
6, 134400, Note_on_c, 9, 36, 95
6, 134880, Note_off_c, 9, 42, 79
6, 134880, Note_off_c, 9, 36, 95
6, 134880, Note_on_c, 9, 42, 79
6, 135360, Note_off_c, 9, 42, 79
6, 135360, Note_on_c, 9, 42, 79
6, 135360, Note_on_c, 9, 40, 95
6, 135840, Note_off_c, 9, 42, 79
6, 135840, Note_off_c, 9, 40, 95
6, 135840, Note_on_c, 9, 42, 79
6, 136320, Note_off_c, 9, 42, 79
6, 136320, Note_on_c, 9, 42, 79
6, 136800, Note_off_c, 9, 42, 79
6, 136800, Note_on_c, 9, 42, 79
6, 136800, Note_on_c, 9, 36, 95
6, 137280, Note_off_c, 9, 42, 79
6, 137280, Note_off_c, 9, 36, 95
6, 137280, Note_on_c, 9, 42, 79
6, 137280, Note_on_c, 9, 40, 95
6, 137760, Note_off_c, 9, 42, 79
6, 137760, Note_off_c, 9, 40, 95
6, 137760, Note_on_c, 9, 42, 79
6, 137760, Note_on_c, 9, 36, 95
6, 138240, Note_off_c, 9, 42, 79
6, 138240, Note_off_c, 9, 36, 95
6, 138240, Note_on_c, 9, 42, 79
6, 138240, Note_on_c, 9, 36, 95
6, 138720, Note_off_c, 9, 42, 79
6, 138720, Note_off_c, 9, 36, 95
6, 138720, Note_on_c, 9, 42, 79
6, 139200, Note_off_c, 9, 42, 79
6, 139200, Note_on_c, 9, 42, 79
6, 139200, Note_on_c, 9, 40, 95
6, 139680, Note_off_c, 9, 42, 79
6, 139680, Note_off_c, 9, 40, 95
6, 139680, Note_on_c, 9, 42, 79
6, 140160, Note_off_c, 9, 42, 79
6, 140160, Note_on_c, 9, 42, 79
6, 140640, Note_off_c, 9, 42, 79
6, 140640, Note_on_c, 9, 42, 79
6, 140640, Note_on_c, 9, 36, 95
6, 141120, Note_off_c, 9, 42, 79
6, 141120, Note_off_c, 9, 36, 95
6, 141120, Note_on_c, 9, 42, 79
6, 141120, Note_on_c, 9, 40, 95
6, 141600, Note_off_c, 9, 42, 79
6, 141600, Note_off_c, 9, 40, 95
6, 141600, Note_on_c, 9, 42, 79
6, 141600, Note_on_c, 9, 36, 95
6, 142080, Note_off_c, 9, 42, 79
6, 142080, Note_off_c, 9, 36, 95
6, 142080, Note_on_c, 9, 42, 79
6, 142080, Note_on_c, 9, 36, 95
6, 142560, Note_off_c, 9, 42, 79
6, 142560, Note_off_c, 9, 36, 95
6, 142560, Note_on_c, 9, 42, 79
6, 143040, Note_off_c, 9, 42, 79
6, 143040, Note_on_c, 9, 42, 79
6, 143040, Note_on_c, 9, 40, 95
6, 143520, Note_off_c, 9, 42, 79
6, 143520, Note_off_c, 9, 40, 95
6, 143520, Note_on_c, 9, 42, 79
6, 144000, Note_off_c, 9, 42, 79
6, 144000, Note_on_c, 9, 42, 79
6, 144480, Note_off_c, 9, 42, 79
6, 144480, Note_on_c, 9, 42, 79
6, 144480, Note_on_c, 9, 36, 95
6, 144960, Note_off_c, 9, 42, 79
6, 144960, Note_off_c, 9, 36, 95
6, 144960, Note_on_c, 9, 42, 79
6, 144960, Note_on_c, 9, 40, 95
6, 145440, Note_off_c, 9, 42, 79
6, 145440, Note_off_c, 9, 40, 95
6, 145440, Note_on_c, 9, 42, 79
6, 145440, Note_on_c, 9, 36, 95
6, 145920, Note_off_c, 9, 42, 79
6, 145920, Note_off_c, 9, 36, 95
6, 145920, Note_on_c, 9, 42, 79
6, 145920, Note_on_c, 9, 36, 95
6, 146400, Note_off_c, 9, 42, 79
6, 146400, Note_off_c, 9, 36, 95
6, 146400, Note_on_c, 9, 42, 79
6, 146880, Note_off_c, 9, 42, 79
6, 146880, Note_on_c, 9, 42, 79
6, 146880, Note_on_c, 9, 40, 95
6, 147360, Note_off_c, 9, 42, 79
6, 147360, Note_off_c, 9, 40, 95
6, 147360, Note_on_c, 9, 42, 79
6, 147840, Note_off_c, 9, 42, 79
6, 147840, Note_on_c, 9, 42, 79
6, 148320, Note_off_c, 9, 42, 79
6, 148320, Note_on_c, 9, 42, 79
6, 148320, Note_on_c, 9, 36, 95
6, 148800, Note_off_c, 9, 42, 79
6, 148800, Note_off_c, 9, 36, 95
6, 148800, Note_on_c, 9, 42, 79
6, 148800, Note_on_c, 9, 40, 95
6, 149280, Note_off_c, 9, 42, 79
6, 149280, Note_off_c, 9, 40, 95
6, 149280, Note_on_c, 9, 42, 79
6, 149280, Note_on_c, 9, 36, 95
6, 149760, Note_off_c, 9, 42, 79
6, 149760, Note_off_c, 9, 36, 95
6, 149760, Note_on_c, 9, 42, 79
6, 149760, Note_on_c, 9, 36, 95
6, 150240, Note_off_c, 9, 42, 79
6, 150240, Note_off_c, 9, 36, 95
6, 150240, Note_on_c, 9, 42, 79
6, 150720, Note_off_c, 9, 42, 79
6, 150720, Note_on_c, 9, 42, 79
6, 150720, Note_on_c, 9, 40, 95
6, 151200, Note_off_c, 9, 42, 79
6, 151200, Note_off_c, 9, 40, 95
6, 151200, Note_on_c, 9, 42, 79
6, 151680, Note_off_c, 9, 42, 79
6, 151680, Note_on_c, 9, 42, 79
6, 152160, Note_off_c, 9, 42, 79
6, 152160, Note_on_c, 9, 42, 79
6, 152160, Note_on_c, 9, 36, 95
6, 152640, Note_off_c, 9, 42, 79
6, 152640, Note_off_c, 9, 36, 95
6, 152640, Note_on_c, 9, 42, 79
6, 152640, Note_on_c, 9, 40, 95
6, 153120, Note_off_c, 9, 42, 79
6, 153120, Note_off_c, 9, 40, 95
6, 153120, Note_on_c, 9, 42, 79
6, 153120, Note_on_c, 9, 36, 95
6, 153600, Note_off_c, 9, 42, 79
6, 153600, Note_off_c, 9, 36, 95
6, 153600, Note_on_c, 9, 42, 79
6, 153600, Note_on_c, 9, 36, 95
6, 154080, Note_off_c, 9, 42, 79
6, 154080, Note_off_c, 9, 36, 95
6, 154080, Note_on_c, 9, 42, 79
6, 154560, Note_off_c, 9, 42, 79
6, 154560, Note_on_c, 9, 42, 79
6, 154560, Note_on_c, 9, 40, 95
6, 155040, Note_off_c, 9, 42, 79
6, 155040, Note_off_c, 9, 40, 95
6, 155040, Note_on_c, 9, 42, 79
6, 155520, Note_off_c, 9, 42, 79
6, 155520, Note_on_c, 9, 42, 79
6, 156000, Note_off_c, 9, 42, 79
6, 156000, Note_on_c, 9, 42, 79
6, 156000, Note_on_c, 9, 36, 95
6, 156480, Note_off_c, 9, 42, 79
6, 156480, Note_off_c, 9, 36, 95
6, 156480, Note_on_c, 9, 42, 79
6, 156480, Note_on_c, 9, 40, 95
6, 156960, Note_off_c, 9, 42, 79
6, 156960, Note_off_c, 9, 40, 95
6, 156960, Note_on_c, 9, 42, 79
6, 156960, Note_on_c, 9, 36, 95
6, 157440, Note_off_c, 9, 42, 79
6, 157440, Note_off_c, 9, 36, 95
6, 157440, Note_on_c, 9, 42, 79
6, 157440, Note_on_c, 9, 36, 95
6, 157920, Note_off_c, 9, 42, 79
6, 157920, Note_off_c, 9, 36, 95
6, 157920, Note_on_c, 9, 42, 79
6, 158400, Note_off_c, 9, 42, 79
6, 158400, Note_on_c, 9, 42, 79
6, 158400, Note_on_c, 9, 40, 95
6, 158880, Note_off_c, 9, 42, 79
6, 158880, Note_off_c, 9, 40, 95
6, 158880, Note_on_c, 9, 42, 79
6, 159360, Note_off_c, 9, 42, 79
6, 159360, Note_on_c, 9, 42, 79
6, 159840, Note_off_c, 9, 42, 79
6, 159840, Note_on_c, 9, 42, 79
6, 159840, Note_on_c, 9, 36, 95
6, 160320, Note_off_c, 9, 42, 79
6, 160320, Note_off_c, 9, 36, 95
6, 160320, Note_on_c, 9, 42, 79
6, 160320, Note_on_c, 9, 40, 95
6, 160800, Note_off_c, 9, 42, 79
6, 160800, Note_off_c, 9, 40, 95
6, 160800, Note_on_c, 9, 42, 79
6, 160800, Note_on_c, 9, 36, 95
6, 161280, Note_off_c, 9, 42, 79
6, 161280, Note_off_c, 9, 36, 95
6, 161280, Note_on_c, 9, 42, 79
6, 161280, Note_on_c, 9, 36, 95
6, 161760, Note_off_c, 9, 42, 79
6, 161760, Note_off_c, 9, 36, 95
6, 161760, Note_on_c, 9, 42, 79
6, 162240, Note_off_c, 9, 42, 79
6, 162240, Note_on_c, 9, 42, 79
6, 162240, Note_on_c, 9, 40, 95
6, 162720, Note_off_c, 9, 42, 79
6, 162720, Note_off_c, 9, 40, 95
6, 162720, Note_on_c, 9, 42, 79
6, 163200, Note_off_c, 9, 42, 79
6, 163200, Note_on_c, 9, 42, 79
6, 163680, Note_off_c, 9, 42, 79
6, 163680, Note_on_c, 9, 42, 79
6, 163680, Note_on_c, 9, 36, 95
6, 164160, Note_off_c, 9, 42, 79
6, 164160, Note_off_c, 9, 36, 95
6, 164160, Note_on_c, 9, 42, 79
6, 164160, Note_on_c, 9, 40, 95
6, 164640, Note_off_c, 9, 42, 79
6, 164640, Note_off_c, 9, 40, 95
6, 164640, Note_on_c, 9, 42, 79
6, 164640, Note_on_c, 9, 36, 95
6, 165120, Note_off_c, 9, 42, 79
6, 165120, Note_off_c, 9, 36, 95
6, 165120, Note_on_c, 9, 42, 79
6, 165120, Note_on_c, 9, 36, 95
6, 165600, Note_off_c, 9, 42, 79
6, 165600, Note_off_c, 9, 36, 95
6, 165600, Note_on_c, 9, 42, 79
6, 166080, Note_off_c, 9, 42, 79
6, 166080, Note_on_c, 9, 42, 79
6, 166080, Note_on_c, 9, 40, 95
6, 166560, Note_off_c, 9, 42, 79
6, 166560, Note_off_c, 9, 40, 95
6, 166560, Note_on_c, 9, 42, 79
6, 167040, Note_off_c, 9, 42, 79
6, 167040, Note_on_c, 9, 42, 79
6, 167520, Note_off_c, 9, 42, 79
6, 167520, Note_on_c, 9, 42, 79
6, 167520, Note_on_c, 9, 36, 95
6, 168000, Note_off_c, 9, 42, 79
6, 168000, Note_off_c, 9, 36, 95
6, 168000, Note_on_c, 9, 42, 79
6, 168000, Note_on_c, 9, 40, 95
6, 168480, Note_off_c, 9, 42, 79
6, 168480, Note_off_c, 9, 40, 95
6, 168480, Note_on_c, 9, 42, 79
6, 168480, Note_on_c, 9, 36, 95
6, 168960, Note_off_c, 9, 42, 79
6, 168960, Note_off_c, 9, 36, 95
6, 168960, Note_on_c, 9, 42, 79
6, 168960, Note_on_c, 9, 36, 95
6, 169440, Note_off_c, 9, 42, 79
6, 169440, Note_off_c, 9, 36, 95
6, 169440, Note_on_c, 9, 42, 79
6, 169920, Note_off_c, 9, 42, 79
6, 169920, Note_on_c, 9, 42, 79
6, 169920, Note_on_c, 9, 40, 95
6, 170400, Note_off_c, 9, 42, 79
6, 170400, Note_off_c, 9, 40, 95
6, 170400, Note_on_c, 9, 42, 79
6, 170880, Note_off_c, 9, 42, 79
6, 170880, Note_on_c, 9, 42, 79
6, 171360, Note_off_c, 9, 42, 79
6, 171360, Note_on_c, 9, 42, 79
6, 171360, Note_on_c, 9, 36, 95
6, 171840, Note_off_c, 9, 42, 79
6, 171840, Note_off_c, 9, 36, 95
6, 171840, Note_on_c, 9, 42, 79
6, 171840, Note_on_c, 9, 40, 95
6, 172320, Note_off_c, 9, 42, 79
6, 172320, Note_off_c, 9, 40, 95
6, 172320, Note_on_c, 9, 42, 79
6, 172320, Note_on_c, 9, 36, 95
6, 172800, Note_off_c, 9, 42, 79
6, 172800, Note_off_c, 9, 36, 95
6, 172800, Note_on_c, 9, 42, 79
6, 172800, Note_on_c, 9, 36, 95
6, 173280, Note_off_c, 9, 42, 79
6, 173280, Note_off_c, 9, 36, 95
6, 173280, Note_on_c, 9, 42, 79
6, 173760, Note_off_c, 9, 42, 79
6, 173760, Note_on_c, 9, 42, 79
6, 173760, Note_on_c, 9, 40, 95
6, 174240, Note_off_c, 9, 42, 79
6, 174240, Note_off_c, 9, 40, 95
6, 174240, Note_on_c, 9, 42, 79
6, 174720, Note_off_c, 9, 42, 79
6, 174720, Note_on_c, 9, 42, 79
6, 175200, Note_off_c, 9, 42, 79
6, 175200, Note_on_c, 9, 42, 79
6, 175200, Note_on_c, 9, 36, 95
6, 175680, Note_off_c, 9, 42, 79
6, 175680, Note_off_c, 9, 36, 95
6, 175680, Note_on_c, 9, 42, 79
6, 175680, Note_on_c, 9, 40, 95
6, 176160, Note_off_c, 9, 42, 79
6, 176160, Note_off_c, 9, 40, 95
6, 176160, Note_on_c, 9, 42, 79
6, 176160, Note_on_c, 9, 36, 95
6, 176640, Note_off_c, 9, 42, 79
6, 176640, Note_off_c, 9, 36, 95
6, 176640, Note_on_c, 9, 42, 79
6, 176640, Note_on_c, 9, 36, 95
6, 177120, Note_off_c, 9, 42, 79
6, 177120, Note_off_c, 9, 36, 95
6, 177120, Note_on_c, 9, 42, 79
6, 177600, Note_off_c, 9, 42, 79
6, 177600, Note_on_c, 9, 42, 79
6, 177600, Note_on_c, 9, 40, 95
6, 178080, Note_off_c, 9, 42, 79
6, 178080, Note_off_c, 9, 40, 95
6, 178080, Note_on_c, 9, 42, 79
6, 178560, Note_off_c, 9, 42, 79
6, 178560, Note_on_c, 9, 42, 79
6, 179040, Note_off_c, 9, 42, 79
6, 179040, Note_on_c, 9, 42, 79
6, 179040, Note_on_c, 9, 36, 95
6, 179520, Note_off_c, 9, 42, 79
6, 179520, Note_off_c, 9, 36, 95
6, 179520, Note_on_c, 9, 42, 79
6, 179520, Note_on_c, 9, 40, 95
6, 180000, Note_off_c, 9, 42, 79
6, 180000, Note_off_c, 9, 40, 95
6, 180000, Note_on_c, 9, 42, 79
6, 180000, Note_on_c, 9, 36, 95
6, 180480, Note_off_c, 9, 42, 79
6, 180480, Note_off_c, 9, 36, 95
6, 180480, Note_on_c, 9, 42, 79
6, 180480, Note_on_c, 9, 36, 95
6, 180960, Note_off_c, 9, 42, 79
6, 180960, Note_off_c, 9, 36, 95
6, 180960, Note_on_c, 9, 42, 79
6, 181440, Note_off_c, 9, 42, 79
6, 181440, Note_on_c, 9, 42, 79
6, 181440, Note_on_c, 9, 40, 95
6, 181920, Note_off_c, 9, 42, 79
6, 181920, Note_off_c, 9, 40, 95
6, 181920, Note_on_c, 9, 42, 79
6, 182400, Note_off_c, 9, 42, 79
6, 182400, Note_on_c, 9, 42, 79
6, 182880, Note_off_c, 9, 42, 79
6, 182880, Note_on_c, 9, 42, 79
6, 182880, Note_on_c, 9, 36, 95
6, 183360, Note_off_c, 9, 42, 79
6, 183360, Note_off_c, 9, 36, 95
6, 183360, Note_on_c, 9, 42, 79
6, 183360, Note_on_c, 9, 40, 95
6, 183840, Note_off_c, 9, 42, 79
6, 183840, Note_off_c, 9, 40, 95
6, 183840, Note_on_c, 9, 42, 79
6, 183840, Note_on_c, 9, 36, 95
6, 184320, Note_off_c, 9, 42, 79
6, 184320, Note_off_c, 9, 36, 95
6, 184320, Note_on_c, 9, 42, 79
6, 184320, Note_on_c, 9, 36, 95
6, 184800, Note_off_c, 9, 42, 79
6, 184800, Note_off_c, 9, 36, 95
6, 184800, Note_on_c, 9, 42, 79
6, 185280, Note_off_c, 9, 42, 79
6, 185280, Note_on_c, 9, 42, 79
6, 185280, Note_on_c, 9, 40, 95
6, 185760, Note_off_c, 9, 42, 79
6, 185760, Note_off_c, 9, 40, 95
6, 185760, Note_on_c, 9, 42, 79
6, 186240, Note_off_c, 9, 42, 79
6, 186240, Note_on_c, 9, 42, 79
6, 186720, Note_off_c, 9, 42, 79
6, 186720, Note_on_c, 9, 42, 79
6, 186720, Note_on_c, 9, 36, 95
6, 187200, Note_off_c, 9, 42, 79
6, 187200, Note_off_c, 9, 36, 95
6, 187200, Note_on_c, 9, 42, 79
6, 187200, Note_on_c, 9, 40, 95
6, 187680, Note_off_c, 9, 42, 79
6, 187680, Note_off_c, 9, 40, 95
6, 187680, Note_on_c, 9, 46, 63
6, 187680, Note_on_c, 9, 36, 95
6, 188160, Note_off_c, 9, 46, 63
6, 188160, Note_off_c, 9, 36, 95
6, 188160, Note_on_c, 9, 42, 79
6, 188160, Note_on_c, 9, 36, 95
6, 188640, Note_off_c, 9, 42, 79
6, 188640, Note_off_c, 9, 36, 95
6, 188640, Note_on_c, 9, 42, 79
6, 189120, Note_off_c, 9, 42, 79
6, 189120, Note_on_c, 9, 42, 79
6, 189120, Note_on_c, 9, 40, 95
6, 189600, Note_off_c, 9, 42, 79
6, 189600, Note_off_c, 9, 40, 95
6, 189600, Note_on_c, 9, 42, 79
6, 190080, Note_off_c, 9, 42, 79
6, 190080, Note_on_c, 9, 42, 79
6, 190560, Note_off_c, 9, 42, 79
6, 190560, Note_on_c, 9, 42, 79
6, 190560, Note_on_c, 9, 36, 95
6, 191040, Note_off_c, 9, 42, 79
6, 191040, Note_off_c, 9, 36, 95
6, 191040, Note_on_c, 9, 42, 79
6, 191040, Note_on_c, 9, 40, 95
6, 191520, Note_off_c, 9, 42, 79
6, 191520, Note_off_c, 9, 40, 95
6, 191520, Note_on_c, 9, 42, 79
6, 191520, Note_on_c, 9, 36, 95
6, 192000, Note_off_c, 9, 42, 79
6, 192000, Note_off_c, 9, 36, 95
6, 192000, Note_on_c, 9, 42, 79
6, 192000, Note_on_c, 9, 36, 95
6, 192480, Note_off_c, 9, 42, 79
6, 192480, Note_off_c, 9, 36, 95
6, 192480, Note_on_c, 9, 42, 79
6, 192960, Note_off_c, 9, 42, 79
6, 192960, Note_on_c, 9, 42, 79
6, 192960, Note_on_c, 9, 40, 95
6, 193440, Note_off_c, 9, 42, 79
6, 193440, Note_off_c, 9, 40, 95
6, 193440, Note_on_c, 9, 42, 79
6, 193920, Note_off_c, 9, 42, 79
6, 193920, Note_on_c, 9, 42, 79
6, 194400, Note_off_c, 9, 42, 79
6, 194400, Note_on_c, 9, 42, 79
6, 194400, Note_on_c, 9, 36, 95
6, 194880, Note_off_c, 9, 42, 79
6, 194880, Note_off_c, 9, 36, 95
6, 194880, Note_on_c, 9, 42, 79
6, 194880, Note_on_c, 9, 40, 95
6, 195360, Note_off_c, 9, 42, 79
6, 195360, Note_off_c, 9, 40, 95
6, 195360, Note_on_c, 9, 46, 63
6, 195360, Note_on_c, 9, 36, 95
6, 195840, Note_off_c, 9, 46, 63
6, 195840, Note_off_c, 9, 36, 95
6, 195840, Note_on_c, 9, 42, 79
6, 195840, Note_on_c, 9, 36, 95
6, 196320, Note_off_c, 9, 42, 79
6, 196320, Note_off_c, 9, 36, 95
6, 196320, Note_on_c, 9, 42, 79
6, 196800, Note_off_c, 9, 42, 79
6, 196800, Note_on_c, 9, 42, 79
6, 196800, Note_on_c, 9, 40, 95
6, 197280, Note_off_c, 9, 42, 79
6, 197280, Note_off_c, 9, 40, 95
6, 197280, Note_on_c, 9, 42, 79
6, 197760, Note_off_c, 9, 42, 79
6, 197760, Note_on_c, 9, 42, 79
6, 198240, Note_off_c, 9, 42, 79
6, 198240, Note_on_c, 9, 42, 79
6, 198240, Note_on_c, 9, 36, 95
6, 198720, Note_off_c, 9, 42, 79
6, 198720, Note_off_c, 9, 36, 95
6, 198720, Note_on_c, 9, 42, 79
6, 198720, Note_on_c, 9, 40, 95
6, 199200, Note_off_c, 9, 42, 79
6, 199200, Note_off_c, 9, 40, 95
6, 199200, Note_on_c, 9, 42, 79
6, 199200, Note_on_c, 9, 36, 95
6, 199680, Note_off_c, 9, 42, 79
6, 199680, Note_off_c, 9, 36, 95
6, 199680, Note_on_c, 9, 42, 79
6, 199680, Note_on_c, 9, 36, 95
6, 200160, Note_off_c, 9, 42, 79
6, 200160, Note_off_c, 9, 36, 95
6, 200160, Note_on_c, 9, 42, 79
6, 200640, Note_off_c, 9, 42, 79
6, 200640, Note_on_c, 9, 42, 79
6, 200640, Note_on_c, 9, 40, 95
6, 201120, Note_off_c, 9, 42, 79
6, 201120, Note_off_c, 9, 40, 95
6, 201120, Note_on_c, 9, 42, 79
6, 201600, Note_off_c, 9, 42, 79
6, 201600, Note_on_c, 9, 42, 79
6, 202080, Note_off_c, 9, 42, 79
6, 202080, Note_on_c, 9, 42, 79
6, 202080, Note_on_c, 9, 36, 95
6, 202560, Note_off_c, 9, 42, 79
6, 202560, Note_off_c, 9, 36, 95
6, 202560, Note_on_c, 9, 42, 79
6, 202560, Note_on_c, 9, 40, 95
6, 203040, Note_off_c, 9, 42, 79
6, 203040, Note_off_c, 9, 40, 95
6, 203040, Note_on_c, 9, 46, 63
6, 203040, Note_on_c, 9, 36, 95
6, 203520, Note_off_c, 9, 46, 63
6, 203520, Note_off_c, 9, 36, 95
6, 203520, Note_on_c, 9, 42, 79
6, 203520, Note_on_c, 9, 36, 95
6, 204000, Note_off_c, 9, 42, 79
6, 204000, Note_off_c, 9, 36, 95
6, 204000, Note_on_c, 9, 42, 79
6, 204480, Note_off_c, 9, 42, 79
6, 204480, Note_on_c, 9, 42, 79
6, 204480, Note_on_c, 9, 40, 95
6, 204960, Note_off_c, 9, 42, 79
6, 204960, Note_off_c, 9, 40, 95
6, 204960, Note_on_c, 9, 42, 79
6, 205440, Note_off_c, 9, 42, 79
6, 205440, Note_on_c, 9, 42, 79
6, 205920, Note_off_c, 9, 42, 79
6, 205920, Note_on_c, 9, 42, 79
6, 205920, Note_on_c, 9, 36, 95
6, 206400, Note_off_c, 9, 42, 79
6, 206400, Note_off_c, 9, 36, 95
6, 206400, Note_on_c, 9, 42, 79
6, 206400, Note_on_c, 9, 40, 95
6, 206880, Note_off_c, 9, 42, 79
6, 206880, Note_off_c, 9, 40, 95
6, 206880, Note_on_c, 9, 42, 79
6, 206880, Note_on_c, 9, 36, 95
6, 207360, Note_off_c, 9, 42, 79
6, 207360, Note_off_c, 9, 36, 95
6, 207360, Note_on_c, 9, 42, 79
6, 207360, Note_on_c, 9, 36, 95
6, 207840, Note_off_c, 9, 42, 79
6, 207840, Note_off_c, 9, 36, 95
6, 207840, Note_on_c, 9, 42, 79
6, 208320, Note_off_c, 9, 42, 79
6, 208320, Note_on_c, 9, 42, 79
6, 208320, Note_on_c, 9, 40, 95
6, 208800, Note_off_c, 9, 42, 79
6, 208800, Note_off_c, 9, 40, 95
6, 208800, Note_on_c, 9, 42, 79
6, 209280, Note_off_c, 9, 42, 79
6, 209280, Note_on_c, 9, 42, 79
6, 209760, Note_off_c, 9, 42, 79
6, 209760, Note_on_c, 9, 42, 79
6, 209760, Note_on_c, 9, 36, 95
6, 210240, Note_off_c, 9, 42, 79
6, 210240, Note_off_c, 9, 36, 95
6, 210240, Note_on_c, 9, 42, 79
6, 210240, Note_on_c, 9, 40, 95
6, 210720, Note_off_c, 9, 42, 79
6, 210720, Note_off_c, 9, 40, 95
6, 210720, Note_on_c, 9, 42, 79
6, 210720, Note_on_c, 9, 36, 95
6, 211200, Note_off_c, 9, 42, 79
6, 211200, Note_off_c, 9, 36, 95
6, 211200, Note_on_c, 9, 42, 79
6, 211200, Note_on_c, 9, 36, 95
6, 211680, Note_off_c, 9, 42, 79
6, 211680, Note_off_c, 9, 36, 95
6, 211680, Note_on_c, 9, 42, 79
6, 212160, Note_off_c, 9, 42, 79
6, 212160, Note_on_c, 9, 42, 79
6, 212160, Note_on_c, 9, 40, 95
6, 212640, Note_off_c, 9, 42, 79
6, 212640, Note_off_c, 9, 40, 95
6, 212640, Note_on_c, 9, 42, 79
6, 213120, Note_off_c, 9, 42, 79
6, 213120, Note_on_c, 9, 42, 79
6, 213600, Note_off_c, 9, 42, 79
6, 213600, Note_on_c, 9, 42, 79
6, 213600, Note_on_c, 9, 36, 95
6, 214080, Note_off_c, 9, 42, 79
6, 214080, Note_off_c, 9, 36, 95
6, 214080, Note_on_c, 9, 42, 79
6, 214080, Note_on_c, 9, 40, 95
6, 214560, Note_off_c, 9, 42, 79
6, 214560, Note_off_c, 9, 40, 95
6, 214560, Note_on_c, 9, 42, 79
6, 214560, Note_on_c, 9, 36, 95
6, 215040, Note_off_c, 9, 42, 79
6, 215040, Note_off_c, 9, 36, 95
6, 215040, Note_on_c, 9, 42, 79
6, 215040, Note_on_c, 9, 36, 95
6, 218880, Note_off_c, 9, 42, 79
6, 218880, Note_off_c, 9, 36, 95
6, 222720, Note_on_c, 9, 42, 79
6, 222720, Note_on_c, 9, 36, 95
6, 223200, Note_off_c, 9, 42, 79
6, 223200, Note_off_c, 9, 36, 95
6, 223200, Note_on_c, 9, 42, 79
6, 223680, Note_off_c, 9, 42, 79
6, 223680, Note_on_c, 9, 42, 79
6, 223680, Note_on_c, 9, 40, 95
6, 224160, Note_off_c, 9, 42, 79
6, 224160, Note_off_c, 9, 40, 95
6, 224160, Note_on_c, 9, 42, 79
6, 224640, Note_off_c, 9, 42, 79
6, 224640, Note_on_c, 9, 42, 79
6, 225120, Note_off_c, 9, 42, 79
6, 225120, Note_on_c, 9, 42, 79
6, 225120, Note_on_c, 9, 36, 95
6, 225600, Note_off_c, 9, 42, 79
6, 225600, Note_off_c, 9, 36, 95
6, 225600, Note_on_c, 9, 42, 79
6, 225600, Note_on_c, 9, 40, 95
6, 226080, Note_off_c, 9, 42, 79
6, 226080, Note_off_c, 9, 40, 95
6, 226080, Note_on_c, 9, 42, 79
6, 226080, Note_on_c, 9, 36, 95
6, 226560, Note_off_c, 9, 42, 79
6, 226560, Note_off_c, 9, 36, 95
6, 226560, Note_on_c, 9, 42, 79
6, 226560, Note_on_c, 9, 36, 95
6, 227040, Note_off_c, 9, 42, 79
6, 227040, Note_off_c, 9, 36, 95
6, 227040, Note_on_c, 9, 42, 79
6, 227520, Note_off_c, 9, 42, 79
6, 227520, Note_on_c, 9, 42, 79
6, 227520, Note_on_c, 9, 40, 95
6, 228000, Note_off_c, 9, 42, 79
6, 228000, Note_off_c, 9, 40, 95
6, 228000, Note_on_c, 9, 42, 79
6, 228480, Note_off_c, 9, 42, 79
6, 228480, Note_on_c, 9, 42, 79
6, 228960, Note_off_c, 9, 42, 79
6, 228960, Note_on_c, 9, 42, 79
6, 228960, Note_on_c, 9, 36, 95
6, 229440, Note_off_c, 9, 42, 79
6, 229440, Note_off_c, 9, 36, 95
6, 229440, Note_on_c, 9, 42, 79
6, 229440, Note_on_c, 9, 40, 95
6, 229920, Note_off_c, 9, 42, 79
6, 229920, Note_off_c, 9, 40, 95
6, 229920, Note_on_c, 9, 42, 79
6, 229920, Note_on_c, 9, 36, 95
6, 230400, Note_off_c, 9, 42, 79
6, 230400, Note_off_c, 9, 36, 95
6, 230400, Note_on_c, 9, 42, 79
6, 230400, Note_on_c, 9, 36, 95
6, 230880, Note_off_c, 9, 42, 79
6, 230880, Note_off_c, 9, 36, 95
6, 230880, Note_on_c, 9, 42, 79
6, 231360, Note_off_c, 9, 42, 79
6, 231360, Note_on_c, 9, 42, 79
6, 231360, Note_on_c, 9, 40, 95
6, 231840, Note_off_c, 9, 42, 79
6, 231840, Note_off_c, 9, 40, 95
6, 231840, Note_on_c, 9, 42, 79
6, 232320, Note_off_c, 9, 42, 79
6, 232320, Note_on_c, 9, 42, 79
6, 232800, Note_off_c, 9, 42, 79
6, 232800, Note_on_c, 9, 42, 79
6, 232800, Note_on_c, 9, 36, 95
6, 233280, Note_off_c, 9, 42, 79
6, 233280, Note_off_c, 9, 36, 95
6, 233280, Note_on_c, 9, 42, 79
6, 233280, Note_on_c, 9, 40, 95
6, 233760, Note_off_c, 9, 42, 79
6, 233760, Note_off_c, 9, 40, 95
6, 233760, Note_on_c, 9, 42, 79
6, 233760, Note_on_c, 9, 36, 95
6, 234240, Note_off_c, 9, 42, 79
6, 234240, Note_off_c, 9, 36, 95
6, 234240, Note_on_c, 9, 42, 79
6, 234240, Note_on_c, 9, 36, 95
6, 234720, Note_off_c, 9, 42, 79
6, 234720, Note_off_c, 9, 36, 95
6, 234720, Note_on_c, 9, 42, 79
6, 235200, Note_off_c, 9, 42, 79
6, 235200, Note_on_c, 9, 42, 79
6, 235200, Note_on_c, 9, 40, 95
6, 235680, Note_off_c, 9, 42, 79
6, 235680, Note_off_c, 9, 40, 95
6, 235680, Note_on_c, 9, 42, 79
6, 236160, Note_off_c, 9, 42, 79
6, 236160, Note_on_c, 9, 42, 79
6, 236640, Note_off_c, 9, 42, 79
6, 236640, Note_on_c, 9, 42, 79
6, 236640, Note_on_c, 9, 36, 95
6, 237120, Note_off_c, 9, 42, 79
6, 237120, Note_off_c, 9, 36, 95
6, 237120, Note_on_c, 9, 42, 79
6, 237120, Note_on_c, 9, 40, 95
6, 237600, Note_off_c, 9, 42, 79
6, 237600, Note_off_c, 9, 40, 95
6, 237600, Note_on_c, 9, 42, 79
6, 237600, Note_on_c, 9, 36, 95
6, 238080, Note_off_c, 9, 42, 79
6, 238080, Note_off_c, 9, 36, 95
6, 238080, Note_on_c, 9, 42, 79
6, 238080, Note_on_c, 9, 36, 95
6, 241920, Note_off_c, 9, 42, 79
6, 241920, Note_off_c, 9, 36, 95
6, 245760, Note_on_c, 9, 42, 79
6, 245760, Note_on_c, 9, 36, 95
6, 246240, Note_off_c, 9, 42, 79
6, 246240, Note_off_c, 9, 36, 95
6, 246240, Note_on_c, 9, 42, 79
6, 246720, Note_off_c, 9, 42, 79
6, 246720, Note_on_c, 9, 42, 79
6, 246720, Note_on_c, 9, 40, 95
6, 247200, Note_off_c, 9, 42, 79
6, 247200, Note_off_c, 9, 40, 95
6, 247200, Note_on_c, 9, 42, 79
6, 247680, Note_off_c, 9, 42, 79
6, 247680, Note_on_c, 9, 42, 79
6, 248160, Note_off_c, 9, 42, 79
6, 248160, Note_on_c, 9, 42, 79
6, 248160, Note_on_c, 9, 36, 95
6, 248640, Note_off_c, 9, 42, 79
6, 248640, Note_off_c, 9, 36, 95
6, 248640, Note_on_c, 9, 42, 79
6, 248640, Note_on_c, 9, 40, 95
6, 249120, Note_off_c, 9, 42, 79
6, 249120, Note_off_c, 9, 40, 95
6, 249120, Note_on_c, 9, 42, 79
6, 249120, Note_on_c, 9, 36, 95
6, 249600, Note_off_c, 9, 42, 79
6, 249600, Note_off_c, 9, 36, 95
6, 249600, Note_on_c, 9, 42, 79
6, 249600, Note_on_c, 9, 36, 95
6, 250080, Note_off_c, 9, 42, 79
6, 250080, Note_off_c, 9, 36, 95
6, 250080, Note_on_c, 9, 42, 79
6, 250560, Note_off_c, 9, 42, 79
6, 250560, Note_on_c, 9, 42, 79
6, 250560, Note_on_c, 9, 40, 95
6, 251040, Note_off_c, 9, 42, 79
6, 251040, Note_off_c, 9, 40, 95
6, 251040, Note_on_c, 9, 42, 79
6, 251520, Note_off_c, 9, 42, 79
6, 251520, Note_on_c, 9, 42, 79
6, 252000, Note_off_c, 9, 42, 79
6, 252000, Note_on_c, 9, 42, 79
6, 252000, Note_on_c, 9, 36, 95
6, 252480, Note_off_c, 9, 42, 79
6, 252480, Note_off_c, 9, 36, 95
6, 252480, Note_on_c, 9, 42, 79
6, 252480, Note_on_c, 9, 40, 95
6, 252960, Note_off_c, 9, 42, 79
6, 252960, Note_off_c, 9, 40, 95
6, 252960, Note_on_c, 9, 42, 79
6, 252960, Note_on_c, 9, 36, 95
6, 253440, Note_off_c, 9, 42, 79
6, 253440, Note_off_c, 9, 36, 95
6, 253440, Note_on_c, 9, 42, 79
6, 253440, Note_on_c, 9, 36, 95
6, 253920, Note_off_c, 9, 42, 79
6, 253920, Note_off_c, 9, 36, 95
6, 253920, Note_on_c, 9, 42, 79
6, 254400, Note_off_c, 9, 42, 79
6, 254400, Note_on_c, 9, 42, 79
6, 254400, Note_on_c, 9, 40, 95
6, 254880, Note_off_c, 9, 42, 79
6, 254880, Note_off_c, 9, 40, 95
6, 254880, Note_on_c, 9, 42, 79
6, 255360, Note_off_c, 9, 42, 79
6, 255360, Note_on_c, 9, 42, 79
6, 255840, Note_off_c, 9, 42, 79
6, 255840, Note_on_c, 9, 42, 79
6, 255840, Note_on_c, 9, 36, 95
6, 256320, Note_off_c, 9, 42, 79
6, 256320, Note_off_c, 9, 36, 95
6, 256320, Note_on_c, 9, 42, 79
6, 256320, Note_on_c, 9, 40, 95
6, 256800, Note_off_c, 9, 42, 79
6, 256800, Note_off_c, 9, 40, 95
6, 256800, Note_on_c, 9, 42, 79
6, 256800, Note_on_c, 9, 36, 95
6, 257280, Note_off_c, 9, 42, 79
6, 257280, Note_off_c, 9, 36, 95
6, 257280, Note_on_c, 9, 42, 79
6, 257280, Note_on_c, 9, 36, 95
6, 257760, Note_off_c, 9, 42, 79
6, 257760, Note_off_c, 9, 36, 95
6, 257760, Note_on_c, 9, 42, 79
6, 258240, Note_off_c, 9, 42, 79
6, 258240, Note_on_c, 9, 42, 79
6, 258240, Note_on_c, 9, 40, 95
6, 258720, Note_off_c, 9, 42, 79
6, 258720, Note_off_c, 9, 40, 95
6, 258720, Note_on_c, 9, 42, 79
6, 259200, Note_off_c, 9, 42, 79
6, 259200, Note_on_c, 9, 42, 79
6, 259680, Note_off_c, 9, 42, 79
6, 259680, Note_on_c, 9, 42, 79
6, 259680, Note_on_c, 9, 36, 95
6, 260160, Note_off_c, 9, 42, 79
6, 260160, Note_off_c, 9, 36, 95
6, 260160, Note_on_c, 9, 42, 79
6, 260160, Note_on_c, 9, 40, 95
6, 260640, Note_off_c, 9, 42, 79
6, 260640, Note_off_c, 9, 40, 95
6, 260640, Note_on_c, 9, 42, 79
6, 260640, Note_on_c, 9, 36, 95
6, 261120, Note_off_c, 9, 42, 79
6, 261120, Note_off_c, 9, 36, 95
6, 261120, Note_on_c, 9, 42, 79
6, 261120, Note_on_c, 9, 36, 95
6, 261600, Note_off_c, 9, 42, 79
6, 261600, Note_off_c, 9, 36, 95
6, 261600, Note_on_c, 9, 42, 79
6, 262080, Note_off_c, 9, 42, 79
6, 262080, Note_on_c, 9, 42, 79
6, 262080, Note_on_c, 9, 40, 95
6, 262560, Note_off_c, 9, 42, 79
6, 262560, Note_off_c, 9, 40, 95
6, 262560, Note_on_c, 9, 42, 79
6, 263040, Note_off_c, 9, 42, 79
6, 263040, Note_on_c, 9, 42, 79
6, 263520, Note_off_c, 9, 42, 79
6, 263520, Note_on_c, 9, 42, 79
6, 263520, Note_on_c, 9, 36, 95
6, 264000, Note_off_c, 9, 42, 79
6, 264000, Note_off_c, 9, 36, 95
6, 264000, Note_on_c, 9, 42, 79
6, 264000, Note_on_c, 9, 40, 95
6, 264480, Note_off_c, 9, 42, 79
6, 264480, Note_off_c, 9, 40, 95
6, 264480, Note_on_c, 9, 42, 79
6, 264480, Note_on_c, 9, 36, 95
6, 264960, Note_off_c, 9, 42, 79
6, 264960, Note_off_c, 9, 36, 95
6, 264960, Note_on_c, 9, 42, 79
6, 264960, Note_on_c, 9, 36, 95
6, 265440, Note_off_c, 9, 42, 79
6, 265440, Note_off_c, 9, 36, 95
6, 265440, Note_on_c, 9, 42, 79
6, 265920, Note_off_c, 9, 42, 79
6, 265920, Note_on_c, 9, 42, 79
6, 265920, Note_on_c, 9, 40, 95
6, 266400, Note_off_c, 9, 42, 79
6, 266400, Note_off_c, 9, 40, 95
6, 266400, Note_on_c, 9, 42, 79
6, 266880, Note_off_c, 9, 42, 79
6, 266880, Note_on_c, 9, 42, 79
6, 267360, Note_off_c, 9, 42, 79
6, 267360, Note_on_c, 9, 42, 79
6, 267360, Note_on_c, 9, 36, 95
6, 267840, Note_off_c, 9, 42, 79
6, 267840, Note_off_c, 9, 36, 95
6, 267840, Note_on_c, 9, 42, 79
6, 267840, Note_on_c, 9, 40, 95
6, 268320, Note_off_c, 9, 42, 79
6, 268320, Note_off_c, 9, 40, 95
6, 268320, Note_on_c, 9, 42, 79
6, 268320, Note_on_c, 9, 36, 95
6, 268800, Note_off_c, 9, 42, 79
6, 268800, Note_off_c, 9, 36, 95
6, 268800, Note_on_c, 9, 42, 79
6, 268800, Note_on_c, 9, 36, 95
6, 269280, Note_off_c, 9, 42, 79
6, 269280, Note_off_c, 9, 36, 95
6, 269280, Note_on_c, 9, 42, 79
6, 269760, Note_off_c, 9, 42, 79
6, 269760, Note_on_c, 9, 42, 79
6, 269760, Note_on_c, 9, 40, 95
6, 270240, Note_off_c, 9, 42, 79
6, 270240, Note_off_c, 9, 40, 95
6, 270240, Note_on_c, 9, 42, 79
6, 270720, Note_off_c, 9, 42, 79
6, 270720, Note_on_c, 9, 42, 79
6, 271200, Note_off_c, 9, 42, 79
6, 271200, Note_on_c, 9, 42, 79
6, 271200, Note_on_c, 9, 36, 95
6, 271680, Note_off_c, 9, 42, 79
6, 271680, Note_off_c, 9, 36, 95
6, 271680, Note_on_c, 9, 42, 79
6, 271680, Note_on_c, 9, 40, 95
6, 272160, Note_off_c, 9, 42, 79
6, 272160, Note_off_c, 9, 40, 95
6, 272160, Note_on_c, 9, 42, 79
6, 272160, Note_on_c, 9, 36, 95
6, 272640, Note_off_c, 9, 42, 79
6, 272640, Note_off_c, 9, 36, 95
6, 272640, Note_on_c, 9, 42, 79
6, 272640, Note_on_c, 9, 36, 95
6, 273120, Note_off_c, 9, 42, 79
6, 273120, Note_off_c, 9, 36, 95
6, 273120, Note_on_c, 9, 42, 79
6, 273600, Note_off_c, 9, 42, 79
6, 273600, Note_on_c, 9, 42, 79
6, 273600, Note_on_c, 9, 40, 95
6, 274080, Note_off_c, 9, 42, 79
6, 274080, Note_off_c, 9, 40, 95
6, 274080, Note_on_c, 9, 42, 79
6, 274560, Note_off_c, 9, 42, 79
6, 274560, Note_on_c, 9, 42, 79
6, 275040, Note_off_c, 9, 42, 79
6, 275040, Note_on_c, 9, 42, 79
6, 275040, Note_on_c, 9, 36, 95
6, 275520, Note_off_c, 9, 42, 79
6, 275520, Note_off_c, 9, 36, 95
6, 275520, Note_on_c, 9, 42, 79
6, 275520, Note_on_c, 9, 40, 95
6, 276000, Note_off_c, 9, 42, 79
6, 276000, Note_off_c, 9, 40, 95
6, 276000, Note_on_c, 9, 42, 79
6, 276000, Note_on_c, 9, 36, 95
6, 276480, Note_off_c, 9, 42, 79
6, 276480, Note_off_c, 9, 36, 95
6, 276480, Note_on_c, 9, 42, 79
6, 276480, Note_on_c, 9, 36, 95
6, 276960, Note_off_c, 9, 42, 79
6, 276960, Note_off_c, 9, 36, 95
6, 276960, Note_on_c, 9, 42, 79
6, 277440, Note_off_c, 9, 42, 79
6, 277440, Note_on_c, 9, 42, 79
6, 277440, Note_on_c, 9, 40, 95
6, 277920, Note_off_c, 9, 42, 79
6, 277920, Note_off_c, 9, 40, 95
6, 277920, Note_on_c, 9, 42, 79
6, 278400, Note_off_c, 9, 42, 79
6, 278400, Note_on_c, 9, 42, 79
6, 278880, Note_off_c, 9, 42, 79
6, 278880, Note_on_c, 9, 42, 79
6, 278880, Note_on_c, 9, 36, 95
6, 279360, Note_off_c, 9, 42, 79
6, 279360, Note_off_c, 9, 36, 95
6, 279360, Note_on_c, 9, 42, 79
6, 279360, Note_on_c, 9, 40, 95
6, 279840, Note_off_c, 9, 42, 79
6, 279840, Note_off_c, 9, 40, 95
6, 279840, Note_on_c, 9, 42, 79
6, 279840, Note_on_c, 9, 36, 95
6, 280320, Note_off_c, 9, 42, 79
6, 280320, Note_off_c, 9, 36, 95
6, 280320, Note_on_c, 9, 42, 79
6, 280320, Note_on_c, 9, 36, 95
6, 280800, Note_off_c, 9, 42, 79
6, 280800, Note_off_c, 9, 36, 95
6, 280800, Note_on_c, 9, 42, 79
6, 281280, Note_off_c, 9, 42, 79
6, 281280, Note_on_c, 9, 42, 79
6, 281280, Note_on_c, 9, 40, 95
6, 281760, Note_off_c, 9, 42, 79
6, 281760, Note_off_c, 9, 40, 95
6, 281760, Note_on_c, 9, 42, 79
6, 282240, Note_off_c, 9, 42, 79
6, 282240, Note_on_c, 9, 42, 79
6, 282720, Note_off_c, 9, 42, 79
6, 282720, Note_on_c, 9, 42, 79
6, 282720, Note_on_c, 9, 36, 95
6, 283200, Note_off_c, 9, 42, 79
6, 283200, Note_off_c, 9, 36, 95
6, 283200, Note_on_c, 9, 42, 79
6, 283200, Note_on_c, 9, 40, 95
6, 283680, Note_off_c, 9, 42, 79
6, 283680, Note_off_c, 9, 40, 95
6, 283680, Note_on_c, 9, 42, 79
6, 283680, Note_on_c, 9, 36, 95
6, 284160, Note_off_c, 9, 42, 79
6, 284160, Note_off_c, 9, 36, 95
6, 284160, Note_on_c, 9, 42, 79
6, 284160, Note_on_c, 9, 36, 95
6, 284640, Note_off_c, 9, 42, 79
6, 284640, Note_off_c, 9, 36, 95
6, 284640, Note_on_c, 9, 42, 79
6, 285120, Note_off_c, 9, 42, 79
6, 285120, Note_on_c, 9, 42, 79
6, 285120, Note_on_c, 9, 40, 95
6, 285600, Note_off_c, 9, 42, 79
6, 285600, Note_off_c, 9, 40, 95
6, 285600, Note_on_c, 9, 42, 79
6, 286080, Note_off_c, 9, 42, 79
6, 286080, Note_on_c, 9, 42, 79
6, 286560, Note_off_c, 9, 42, 79
6, 286560, Note_on_c, 9, 42, 79
6, 286560, Note_on_c, 9, 36, 95
6, 287040, Note_off_c, 9, 42, 79
6, 287040, Note_off_c, 9, 36, 95
6, 287040, Note_on_c, 9, 42, 79
6, 287040, Note_on_c, 9, 40, 95
6, 287520, Note_off_c, 9, 42, 79
6, 287520, Note_off_c, 9, 40, 95
6, 287520, Note_on_c, 9, 42, 79
6, 287520, Note_on_c, 9, 36, 95
6, 288000, Note_off_c, 9, 42, 79
6, 288000, Note_off_c, 9, 36, 95
6, 288000, Note_on_c, 9, 42, 79
6, 288000, Note_on_c, 9, 36, 95
6, 288480, Note_off_c, 9, 42, 79
6, 288480, Note_off_c, 9, 36, 95
6, 288480, Note_on_c, 9, 42, 79
6, 288960, Note_off_c, 9, 42, 79
6, 288960, Note_on_c, 9, 42, 79
6, 288960, Note_on_c, 9, 40, 95
6, 289440, Note_off_c, 9, 42, 79
6, 289440, Note_off_c, 9, 40, 95
6, 289440, Note_on_c, 9, 42, 79
6, 289920, Note_off_c, 9, 42, 79
6, 289920, Note_on_c, 9, 42, 79
6, 290400, Note_off_c, 9, 42, 79
6, 290400, Note_on_c, 9, 42, 79
6, 290400, Note_on_c, 9, 36, 95
6, 290880, Note_off_c, 9, 42, 79
6, 290880, Note_off_c, 9, 36, 95
6, 290880, Note_on_c, 9, 42, 79
6, 290880, Note_on_c, 9, 40, 95
6, 291360, Note_off_c, 9, 42, 79
6, 291360, Note_off_c, 9, 40, 95
6, 291360, Note_on_c, 9, 42, 79
6, 291360, Note_on_c, 9, 36, 95
6, 291840, Note_off_c, 9, 42, 79
6, 291840, Note_off_c, 9, 36, 95
6, 291840, Note_on_c, 9, 42, 79
6, 291840, Note_on_c, 9, 36, 95
6, 292320, Note_off_c, 9, 42, 79
6, 292320, Note_off_c, 9, 36, 95
6, 292320, Note_on_c, 9, 42, 79
6, 292800, Note_off_c, 9, 42, 79
6, 292800, Note_on_c, 9, 42, 79
6, 292800, Note_on_c, 9, 40, 95
6, 293280, Note_off_c, 9, 42, 79
6, 293280, Note_off_c, 9, 40, 95
6, 293280, Note_on_c, 9, 42, 79
6, 293760, Note_off_c, 9, 42, 79
6, 293760, Note_on_c, 9, 42, 79
6, 294240, Note_off_c, 9, 42, 79
6, 294240, Note_on_c, 9, 42, 79
6, 294240, Note_on_c, 9, 36, 95
6, 294720, Note_off_c, 9, 42, 79
6, 294720, Note_off_c, 9, 36, 95
6, 294720, Note_on_c, 9, 42, 79
6, 294720, Note_on_c, 9, 40, 95
6, 295200, Note_off_c, 9, 42, 79
6, 295200, Note_off_c, 9, 40, 95
6, 295200, Note_on_c, 9, 42, 79
6, 295200, Note_on_c, 9, 36, 95
6, 295680, Note_off_c, 9, 42, 79
6, 295680, Note_off_c, 9, 36, 95
6, 295680, Note_on_c, 9, 42, 79
6, 295680, Note_on_c, 9, 36, 95
6, 296160, Note_off_c, 9, 42, 79
6, 296160, Note_off_c, 9, 36, 95
6, 296160, Note_on_c, 9, 42, 79
6, 296640, Note_off_c, 9, 42, 79
6, 296640, Note_on_c, 9, 42, 79
6, 296640, Note_on_c, 9, 40, 95
6, 297120, Note_off_c, 9, 42, 79
6, 297120, Note_off_c, 9, 40, 95
6, 297120, Note_on_c, 9, 42, 79
6, 297600, Note_off_c, 9, 42, 79
6, 297600, Note_on_c, 9, 42, 79
6, 298080, Note_off_c, 9, 42, 79
6, 298080, Note_on_c, 9, 42, 79
6, 298080, Note_on_c, 9, 36, 95
6, 298560, Note_off_c, 9, 42, 79
6, 298560, Note_off_c, 9, 36, 95
6, 298560, Note_on_c, 9, 42, 79
6, 298560, Note_on_c, 9, 40, 95
6, 299040, Note_off_c, 9, 42, 79
6, 299040, Note_off_c, 9, 40, 95
6, 299040, Note_on_c, 9, 42, 79
6, 299040, Note_on_c, 9, 36, 95
6, 299520, Note_off_c, 9, 42, 79
6, 299520, Note_off_c, 9, 36, 95
6, 299520, Note_on_c, 9, 42, 79
6, 299520, Note_on_c, 9, 36, 95
6, 300000, Note_off_c, 9, 42, 79
6, 300000, Note_off_c, 9, 36, 95
6, 300000, Note_on_c, 9, 42, 79
6, 300480, Note_off_c, 9, 42, 79
6, 300480, Note_on_c, 9, 42, 79
6, 300480, Note_on_c, 9, 40, 95
6, 300960, Note_off_c, 9, 42, 79
6, 300960, Note_off_c, 9, 40, 95
6, 300960, Note_on_c, 9, 42, 79
6, 301440, Note_off_c, 9, 42, 79
6, 301440, Note_on_c, 9, 42, 79
6, 301920, Note_off_c, 9, 42, 79
6, 301920, Note_on_c, 9, 42, 79
6, 301920, Note_on_c, 9, 36, 95
6, 302400, Note_off_c, 9, 42, 79
6, 302400, Note_off_c, 9, 36, 95
6, 302400, Note_on_c, 9, 42, 79
6, 302400, Note_on_c, 9, 40, 95
6, 302880, Note_off_c, 9, 42, 79
6, 302880, Note_off_c, 9, 40, 95
6, 302880, Note_on_c, 9, 42, 79
6, 302880, Note_on_c, 9, 36, 95
6, 303360, Note_off_c, 9, 42, 79
6, 303360, Note_off_c, 9, 36, 95
6, 303360, Note_on_c, 9, 42, 79
6, 303360, Note_on_c, 9, 36, 95
6, 303840, Note_off_c, 9, 42, 79
6, 303840, Note_off_c, 9, 36, 95
6, 303840, Note_on_c, 9, 42, 79
6, 304320, Note_off_c, 9, 42, 79
6, 304320, Note_on_c, 9, 42, 79
6, 304320, Note_on_c, 9, 40, 95
6, 304800, Note_off_c, 9, 42, 79
6, 304800, Note_off_c, 9, 40, 95
6, 304800, Note_on_c, 9, 42, 79
6, 305280, Note_off_c, 9, 42, 79
6, 305280, Note_on_c, 9, 42, 79
6, 305760, Note_off_c, 9, 42, 79
6, 305760, Note_on_c, 9, 42, 79
6, 305760, Note_on_c, 9, 36, 95
6, 306240, Note_off_c, 9, 42, 79
6, 306240, Note_off_c, 9, 36, 95
6, 306240, Note_on_c, 9, 42, 79
6, 306240, Note_on_c, 9, 40, 95
6, 306720, Note_off_c, 9, 42, 79
6, 306720, Note_off_c, 9, 40, 95
6, 306720, Note_on_c, 9, 42, 79
6, 306720, Note_on_c, 9, 36, 95
6, 307200, Note_off_c, 9, 42, 79
6, 307200, Note_off_c, 9, 36, 95
6, 307200, Note_on_c, 9, 42, 79
6, 307200, Note_on_c, 9, 36, 95
6, 307680, Note_off_c, 9, 42, 79
6, 307680, Note_off_c, 9, 36, 95
6, 307680, Note_on_c, 9, 42, 79
6, 308160, Note_off_c, 9, 42, 79
6, 308160, Note_on_c, 9, 42, 79
6, 308160, Note_on_c, 9, 40, 95
6, 308640, Note_off_c, 9, 42, 79
6, 308640, Note_off_c, 9, 40, 95
6, 308640, Note_on_c, 9, 42, 79
6, 309120, Note_off_c, 9, 42, 79
6, 309120, Note_on_c, 9, 42, 79
6, 309600, Note_off_c, 9, 42, 79
6, 309600, Note_on_c, 9, 42, 79
6, 309600, Note_on_c, 9, 36, 95
6, 310080, Note_off_c, 9, 42, 79
6, 310080, Note_off_c, 9, 36, 95
6, 310080, Note_on_c, 9, 42, 79
6, 310080, Note_on_c, 9, 40, 95
6, 310560, Note_off_c, 9, 42, 79
6, 310560, Note_off_c, 9, 40, 95
6, 310560, Note_on_c, 9, 42, 79
6, 310560, Note_on_c, 9, 36, 95
6, 311040, Note_off_c, 9, 42, 79
6, 311040, Note_off_c, 9, 36, 95
6, 311040, Note_on_c, 9, 42, 79
6, 311040, Note_on_c, 9, 36, 95
6, 311520, Note_off_c, 9, 42, 79
6, 311520, Note_off_c, 9, 36, 95
6, 311520, Note_on_c, 9, 42, 79
6, 312000, Note_off_c, 9, 42, 79
6, 312000, Note_on_c, 9, 42, 79
6, 312000, Note_on_c, 9, 40, 95
6, 312480, Note_off_c, 9, 42, 79
6, 312480, Note_off_c, 9, 40, 95
6, 312480, Note_on_c, 9, 42, 79
6, 312960, Note_off_c, 9, 42, 79
6, 312960, Note_on_c, 9, 42, 79
6, 313440, Note_off_c, 9, 42, 79
6, 313440, Note_on_c, 9, 42, 79
6, 313440, Note_on_c, 9, 36, 95
6, 313920, Note_off_c, 9, 42, 79
6, 313920, Note_off_c, 9, 36, 95
6, 313920, Note_on_c, 9, 42, 79
6, 313920, Note_on_c, 9, 40, 95
6, 314400, Note_off_c, 9, 42, 79
6, 314400, Note_off_c, 9, 40, 95
6, 314400, Note_on_c, 9, 42, 79
6, 314400, Note_on_c, 9, 36, 95
6, 314880, Note_off_c, 9, 42, 79
6, 314880, Note_off_c, 9, 36, 95
6, 314880, Note_on_c, 9, 42, 79
6, 314880, Note_on_c, 9, 36, 95
6, 315360, Note_off_c, 9, 42, 79
6, 315360, Note_off_c, 9, 36, 95
6, 315360, Note_on_c, 9, 42, 79
6, 315840, Note_off_c, 9, 42, 79
6, 315840, Note_on_c, 9, 42, 79
6, 315840, Note_on_c, 9, 40, 95
6, 316320, Note_off_c, 9, 42, 79
6, 316320, Note_off_c, 9, 40, 95
6, 316320, Note_on_c, 9, 42, 79
6, 316800, Note_off_c, 9, 42, 79
6, 316800, Note_on_c, 9, 42, 79
6, 317280, Note_off_c, 9, 42, 79
6, 317280, Note_on_c, 9, 42, 79
6, 317280, Note_on_c, 9, 36, 95
6, 317760, Note_off_c, 9, 42, 79
6, 317760, Note_off_c, 9, 36, 95
6, 317760, Note_on_c, 9, 42, 79
6, 317760, Note_on_c, 9, 40, 95
6, 318240, Note_off_c, 9, 42, 79
6, 318240, Note_off_c, 9, 40, 95
6, 318240, Note_on_c, 9, 42, 79
6, 318240, Note_on_c, 9, 36, 95
6, 318720, Note_off_c, 9, 42, 79
6, 318720, Note_off_c, 9, 36, 95
6, 318720, Note_on_c, 9, 42, 79
6, 318720, Note_on_c, 9, 36, 95
6, 319200, Note_off_c, 9, 42, 79
6, 319200, Note_off_c, 9, 36, 95
6, 319200, Note_on_c, 9, 42, 79
6, 319680, Note_off_c, 9, 42, 79
6, 319680, Note_on_c, 9, 42, 79
6, 319680, Note_on_c, 9, 40, 95
6, 320160, Note_off_c, 9, 42, 79
6, 320160, Note_off_c, 9, 40, 95
6, 320160, Note_on_c, 9, 42, 79
6, 320640, Note_off_c, 9, 42, 79
6, 320640, Note_on_c, 9, 42, 79
6, 321120, Note_off_c, 9, 42, 79
6, 321120, Note_on_c, 9, 42, 79
6, 321120, Note_on_c, 9, 36, 95
6, 321600, Note_off_c, 9, 42, 79
6, 321600, Note_off_c, 9, 36, 95
6, 321600, Note_on_c, 9, 42, 79
6, 321600, Note_on_c, 9, 40, 95
6, 322080, Note_off_c, 9, 42, 79
6, 322080, Note_off_c, 9, 40, 95
6, 322080, Note_on_c, 9, 42, 79
6, 322080, Note_on_c, 9, 36, 95
6, 322560, Note_off_c, 9, 42, 79
6, 322560, Note_off_c, 9, 36, 95
6, 322560, Note_on_c, 9, 42, 79
6, 322560, Note_on_c, 9, 36, 95
6, 323040, Note_off_c, 9, 42, 79
6, 323040, Note_off_c, 9, 36, 95
6, 323040, Note_on_c, 9, 42, 79
6, 323520, Note_off_c, 9, 42, 79
6, 323520, Note_on_c, 9, 42, 79
6, 323520, Note_on_c, 9, 40, 95
6, 324000, Note_off_c, 9, 42, 79
6, 324000, Note_off_c, 9, 40, 95
6, 324000, Note_on_c, 9, 42, 79
6, 324480, Note_off_c, 9, 42, 79
6, 324480, Note_on_c, 9, 42, 79
6, 324960, Note_off_c, 9, 42, 79
6, 324960, Note_on_c, 9, 42, 79
6, 324960, Note_on_c, 9, 36, 95
6, 325440, Note_off_c, 9, 42, 79
6, 325440, Note_off_c, 9, 36, 95
6, 325440, Note_on_c, 9, 42, 79
6, 325440, Note_on_c, 9, 40, 95
6, 325920, Note_off_c, 9, 42, 79
6, 325920, Note_off_c, 9, 40, 95
6, 325920, Note_on_c, 9, 42, 79
6, 325920, Note_on_c, 9, 36, 95
6, 326400, Note_off_c, 9, 42, 79
6, 326400, Note_off_c, 9, 36, 95
6, 326400, Note_on_c, 9, 42, 79
6, 326400, Note_on_c, 9, 36, 95
6, 326880, Note_off_c, 9, 42, 79
6, 326880, Note_off_c, 9, 36, 95
6, 326880, Note_on_c, 9, 42, 79
6, 327360, Note_off_c, 9, 42, 79
6, 327360, Note_on_c, 9, 42, 79
6, 327360, Note_on_c, 9, 40, 95
6, 327840, Note_off_c, 9, 42, 79
6, 327840, Note_off_c, 9, 40, 95
6, 327840, Note_on_c, 9, 42, 79
6, 328320, Note_off_c, 9, 42, 79
6, 328320, Note_on_c, 9, 42, 79
6, 328800, Note_off_c, 9, 42, 79
6, 328800, Note_on_c, 9, 42, 79
6, 328800, Note_on_c, 9, 36, 95
6, 329280, Note_off_c, 9, 42, 79
6, 329280, Note_off_c, 9, 36, 95
6, 329280, Note_on_c, 9, 42, 79
6, 329280, Note_on_c, 9, 40, 95
6, 329760, Note_off_c, 9, 42, 79
6, 329760, Note_off_c, 9, 40, 95
6, 329760, Note_on_c, 9, 42, 79
6, 329760, Note_on_c, 9, 36, 95
6, 330240, Note_off_c, 9, 42, 79
6, 330240, Note_off_c, 9, 36, 95
6, 330240, Note_on_c, 9, 42, 79
6, 330240, Note_on_c, 9, 36, 95
6, 330720, Note_off_c, 9, 42, 79
6, 330720, Note_off_c, 9, 36, 95
6, 330720, Note_on_c, 9, 42, 79
6, 331200, Note_off_c, 9, 42, 79
6, 331200, Note_on_c, 9, 42, 79
6, 331200, Note_on_c, 9, 40, 95
6, 331680, Note_off_c, 9, 42, 79
6, 331680, Note_off_c, 9, 40, 95
6, 331680, Note_on_c, 9, 42, 79
6, 332160, Note_off_c, 9, 42, 79
6, 332160, Note_on_c, 9, 42, 79
6, 332640, Note_off_c, 9, 42, 79
6, 332640, Note_on_c, 9, 42, 79
6, 332640, Note_on_c, 9, 36, 95
6, 333120, Note_off_c, 9, 42, 79
6, 333120, Note_off_c, 9, 36, 95
6, 333120, Note_on_c, 9, 42, 79
6, 333120, Note_on_c, 9, 40, 95
6, 333600, Note_off_c, 9, 42, 79
6, 333600, Note_off_c, 9, 40, 95
6, 333600, Note_on_c, 9, 42, 79
6, 333600, Note_on_c, 9, 36, 95
6, 334080, Note_off_c, 9, 42, 79
6, 334080, Note_off_c, 9, 36, 95
6, 334080, Note_on_c, 9, 42, 79
6, 334080, Note_on_c, 9, 36, 95
6, 334560, Note_off_c, 9, 42, 79
6, 334560, Note_off_c, 9, 36, 95
6, 334560, Note_on_c, 9, 42, 79
6, 335040, Note_off_c, 9, 42, 79
6, 335040, Note_on_c, 9, 42, 79
6, 335040, Note_on_c, 9, 40, 95
6, 335520, Note_off_c, 9, 42, 79
6, 335520, Note_off_c, 9, 40, 95
6, 335520, Note_on_c, 9, 42, 79
6, 336000, Note_off_c, 9, 42, 79
6, 336000, Note_on_c, 9, 42, 79
6, 336480, Note_off_c, 9, 42, 79
6, 336480, Note_on_c, 9, 42, 79
6, 336480, Note_on_c, 9, 36, 95
6, 336960, Note_off_c, 9, 42, 79
6, 336960, Note_off_c, 9, 36, 95
6, 336960, Note_on_c, 9, 42, 79
6, 336960, Note_on_c, 9, 40, 95
6, 337440, Note_off_c, 9, 42, 79
6, 337440, Note_off_c, 9, 40, 95
6, 337440, Note_on_c, 9, 42, 79
6, 337440, Note_on_c, 9, 36, 95
6, 337920, Note_off_c, 9, 42, 79
6, 337920, Note_off_c, 9, 36, 95
6, 337920, Note_on_c, 9, 42, 79
6, 337920, Note_on_c, 9, 36, 95
6, 338400, Note_off_c, 9, 42, 79
6, 338400, Note_off_c, 9, 36, 95
6, 338400, Note_on_c, 9, 42, 79
6, 338880, Note_off_c, 9, 42, 79
6, 338880, Note_on_c, 9, 42, 79
6, 338880, Note_on_c, 9, 40, 95
6, 339360, Note_off_c, 9, 42, 79
6, 339360, Note_off_c, 9, 40, 95
6, 339360, Note_on_c, 9, 42, 79
6, 339840, Note_off_c, 9, 42, 79
6, 339840, Note_on_c, 9, 42, 79
6, 340320, Note_off_c, 9, 42, 79
6, 340320, Note_on_c, 9, 42, 79
6, 340320, Note_on_c, 9, 36, 95
6, 340800, Note_off_c, 9, 42, 79
6, 340800, Note_off_c, 9, 36, 95
6, 340800, Note_on_c, 9, 42, 79
6, 340800, Note_on_c, 9, 40, 95
6, 341280, Note_off_c, 9, 42, 79
6, 341280, Note_off_c, 9, 40, 95
6, 341280, Note_on_c, 9, 42, 79
6, 341280, Note_on_c, 9, 36, 95
6, 341760, Note_off_c, 9, 42, 79
6, 341760, Note_off_c, 9, 36, 95
6, 341760, Note_on_c, 9, 42, 79
6, 341760, Note_on_c, 9, 36, 95
6, 342240, Note_off_c, 9, 42, 79
6, 342240, Note_off_c, 9, 36, 95
6, 342240, Note_on_c, 9, 42, 79
6, 342720, Note_off_c, 9, 42, 79
6, 342720, Note_on_c, 9, 42, 79
6, 342720, Note_on_c, 9, 40, 95
6, 343200, Note_off_c, 9, 42, 79
6, 343200, Note_off_c, 9, 40, 95
6, 343200, Note_on_c, 9, 42, 79
6, 343680, Note_off_c, 9, 42, 79
6, 343680, Note_on_c, 9, 42, 79
6, 344160, Note_off_c, 9, 42, 79
6, 344160, Note_on_c, 9, 42, 79
6, 344160, Note_on_c, 9, 36, 95
6, 344640, Note_off_c, 9, 42, 79
6, 344640, Note_off_c, 9, 36, 95
6, 344640, Note_on_c, 9, 42, 79
6, 344640, Note_on_c, 9, 40, 95
6, 345120, Note_off_c, 9, 42, 79
6, 345120, Note_off_c, 9, 40, 95
6, 345120, Note_on_c, 9, 42, 79
6, 345120, Note_on_c, 9, 36, 95
6, 345600, Note_off_c, 9, 42, 79
6, 345600, Note_off_c, 9, 36, 95
6, 345600, Note_on_c, 9, 42, 79
6, 345600, Note_on_c, 9, 36, 95
6, 346080, Note_off_c, 9, 42, 79
6, 346080, Note_off_c, 9, 36, 95
6, 346080, Note_on_c, 9, 42, 79
6, 346560, Note_off_c, 9, 42, 79
6, 346560, Note_on_c, 9, 42, 79
6, 346560, Note_on_c, 9, 40, 95
6, 347040, Note_off_c, 9, 42, 79
6, 347040, Note_off_c, 9, 40, 95
6, 347040, Note_on_c, 9, 42, 79
6, 347520, Note_off_c, 9, 42, 79
6, 347520, Note_on_c, 9, 42, 79
6, 348000, Note_off_c, 9, 42, 79
6, 348000, Note_on_c, 9, 42, 79
6, 348000, Note_on_c, 9, 36, 95
6, 348480, Note_off_c, 9, 42, 79
6, 348480, Note_off_c, 9, 36, 95
6, 348480, Note_on_c, 9, 42, 79
6, 348480, Note_on_c, 9, 40, 95
6, 348960, Note_off_c, 9, 42, 79
6, 348960, Note_off_c, 9, 40, 95
6, 348960, Note_on_c, 9, 42, 79
6, 348960, Note_on_c, 9, 36, 95
6, 349440, Note_off_c, 9, 42, 79
6, 349440, Note_off_c, 9, 36, 95
6, 349440, Note_on_c, 9, 42, 79
6, 349440, Note_on_c, 9, 36, 95
6, 349920, Note_off_c, 9, 42, 79
6, 349920, Note_off_c, 9, 36, 95
6, 349920, Note_on_c, 9, 42, 79
6, 350400, Note_off_c, 9, 42, 79
6, 350400, Note_on_c, 9, 42, 79
6, 350400, Note_on_c, 9, 40, 95
6, 350880, Note_off_c, 9, 42, 79
6, 350880, Note_off_c, 9, 40, 95
6, 350880, Note_on_c, 9, 42, 79
6, 351360, Note_off_c, 9, 42, 79
6, 351360, Note_on_c, 9, 42, 79
6, 351840, Note_off_c, 9, 42, 79
6, 351840, Note_on_c, 9, 42, 79
6, 351840, Note_on_c, 9, 36, 95
6, 352320, Note_off_c, 9, 42, 79
6, 352320, Note_off_c, 9, 36, 95
6, 352320, Note_on_c, 9, 42, 79
6, 352320, Note_on_c, 9, 40, 95
6, 352800, Note_off_c, 9, 42, 79
6, 352800, Note_off_c, 9, 40, 95
6, 352800, Note_on_c, 9, 42, 79
6, 352800, Note_on_c, 9, 36, 95
6, 353280, Note_off_c, 9, 42, 79
6, 353280, Note_off_c, 9, 36, 95
6, 353280, Note_on_c, 9, 42, 79
6, 353280, Note_on_c, 9, 36, 95
6, 353760, Note_off_c, 9, 42, 79
6, 353760, Note_off_c, 9, 36, 95
6, 353760, Note_on_c, 9, 42, 79
6, 354240, Note_off_c, 9, 42, 79
6, 354240, Note_on_c, 9, 42, 79
6, 354240, Note_on_c, 9, 40, 95
6, 354720, Note_off_c, 9, 42, 79
6, 354720, Note_off_c, 9, 40, 95
6, 354720, Note_on_c, 9, 42, 79
6, 355200, Note_off_c, 9, 42, 79
6, 355200, Note_on_c, 9, 42, 79
6, 355680, Note_off_c, 9, 42, 79
6, 355680, Note_on_c, 9, 42, 79
6, 355680, Note_on_c, 9, 36, 95
6, 356160, Note_off_c, 9, 42, 79
6, 356160, Note_off_c, 9, 36, 95
6, 356160, Note_on_c, 9, 42, 79
6, 356160, Note_on_c, 9, 40, 95
6, 356640, Note_off_c, 9, 42, 79
6, 356640, Note_off_c, 9, 40, 95
6, 356640, Note_on_c, 9, 42, 79
6, 356640, Note_on_c, 9, 36, 95
6, 357120, Note_off_c, 9, 42, 79
6, 357120, Note_off_c, 9, 36, 95
6, 357120, Note_on_c, 9, 42, 79
6, 357120, Note_on_c, 9, 36, 95
6, 357600, Note_off_c, 9, 42, 79
6, 357600, Note_off_c, 9, 36, 95
6, 357600, Note_on_c, 9, 42, 79
6, 358080, Note_off_c, 9, 42, 79
6, 358080, Note_on_c, 9, 42, 79
6, 358080, Note_on_c, 9, 40, 95
6, 358560, Note_off_c, 9, 42, 79
6, 358560, Note_off_c, 9, 40, 95
6, 358560, Note_on_c, 9, 42, 79
6, 359040, Note_off_c, 9, 42, 79
6, 359040, Note_on_c, 9, 42, 79
6, 359520, Note_off_c, 9, 42, 79
6, 359520, Note_on_c, 9, 42, 79
6, 359520, Note_on_c, 9, 36, 95
6, 360000, Note_off_c, 9, 42, 79
6, 360000, Note_off_c, 9, 36, 95
6, 360000, Note_on_c, 9, 42, 79
6, 360000, Note_on_c, 9, 40, 95
6, 360480, Note_off_c, 9, 42, 79
6, 360480, Note_off_c, 9, 40, 95
6, 360480, Note_on_c, 9, 42, 79
6, 360480, Note_on_c, 9, 36, 95
6, 360960, Note_off_c, 9, 42, 79
6, 360960, Note_off_c, 9, 36, 95
6, 360960, Note_on_c, 9, 42, 79
6, 360960, Note_on_c, 9, 36, 95
6, 361440, Note_off_c, 9, 42, 79
6, 361440, Note_off_c, 9, 36, 95
6, 361440, Note_on_c, 9, 42, 79
6, 361920, Note_off_c, 9, 42, 79
6, 361920, Note_on_c, 9, 42, 79
6, 361920, Note_on_c, 9, 40, 95
6, 362400, Note_off_c, 9, 42, 79
6, 362400, Note_off_c, 9, 40, 95
6, 362400, Note_on_c, 9, 42, 79
6, 362880, Note_off_c, 9, 42, 79
6, 362880, Note_on_c, 9, 42, 79
6, 363360, Note_off_c, 9, 42, 79
6, 363360, Note_on_c, 9, 42, 79
6, 363360, Note_on_c, 9, 36, 95
6, 363840, Note_off_c, 9, 42, 79
6, 363840, Note_off_c, 9, 36, 95
6, 363840, Note_on_c, 9, 42, 79
6, 363840, Note_on_c, 9, 40, 95
6, 364320, Note_off_c, 9, 42, 79
6, 364320, Note_off_c, 9, 40, 95
6, 364320, Note_on_c, 9, 42, 79
6, 364320, Note_on_c, 9, 36, 95
6, 364800, Note_off_c, 9, 42, 79
6, 364800, Note_off_c, 9, 36, 95
6, 364800, Note_on_c, 9, 42, 79
6, 364800, Note_on_c, 9, 36, 95
6, 365280, Note_off_c, 9, 42, 79
6, 365280, Note_off_c, 9, 36, 95
6, 365280, Note_on_c, 9, 42, 79
6, 365760, Note_off_c, 9, 42, 79
6, 365760, Note_on_c, 9, 42, 79
6, 365760, Note_on_c, 9, 40, 95
6, 366240, Note_off_c, 9, 42, 79
6, 366240, Note_off_c, 9, 40, 95
6, 366240, Note_on_c, 9, 42, 79
6, 366720, Note_off_c, 9, 42, 79
6, 366720, Note_on_c, 9, 42, 79
6, 367200, Note_off_c, 9, 42, 79
6, 367200, Note_on_c, 9, 42, 79
6, 367200, Note_on_c, 9, 36, 95
6, 367680, Note_off_c, 9, 42, 79
6, 367680, Note_off_c, 9, 36, 95
6, 367680, Note_on_c, 9, 42, 79
6, 367680, Note_on_c, 9, 40, 95
6, 368160, Note_off_c, 9, 42, 79
6, 368160, Note_off_c, 9, 40, 95
6, 368160, Note_on_c, 9, 42, 79
6, 368160, Note_on_c, 9, 36, 95
6, 368640, Note_off_c, 9, 42, 79
6, 368640, Note_off_c, 9, 36, 95
6, 368640, Note_on_c, 9, 42, 79
6, 368640, Note_on_c, 9, 36, 95
6, 369120, Note_off_c, 9, 42, 79
6, 369120, Note_off_c, 9, 36, 95
6, 369120, Note_on_c, 9, 42, 79
6, 369600, Note_off_c, 9, 42, 79
6, 369600, Note_on_c, 9, 42, 79
6, 369600, Note_on_c, 9, 40, 95
6, 370080, Note_off_c, 9, 42, 79
6, 370080, Note_off_c, 9, 40, 95
6, 370080, Note_on_c, 9, 42, 79
6, 370560, Note_off_c, 9, 42, 79
6, 370560, Note_on_c, 9, 42, 79
6, 371040, Note_off_c, 9, 42, 79
6, 371040, Note_on_c, 9, 42, 79
6, 371040, Note_on_c, 9, 36, 95
6, 371520, Note_off_c, 9, 42, 79
6, 371520, Note_off_c, 9, 36, 95
6, 371520, Note_on_c, 9, 42, 79
6, 371520, Note_on_c, 9, 40, 95
6, 372000, Note_off_c, 9, 42, 79
6, 372000, Note_off_c, 9, 40, 95
6, 372000, Note_on_c, 9, 42, 79
6, 372000, Note_on_c, 9, 36, 95
6, 372480, Note_off_c, 9, 42, 79
6, 372480, Note_off_c, 9, 36, 95
6, 372480, Note_on_c, 9, 42, 79
6, 372480, Note_on_c, 9, 36, 95
6, 372960, Note_off_c, 9, 42, 79
6, 372960, Note_off_c, 9, 36, 95
6, 372960, Note_on_c, 9, 42, 79
6, 373440, Note_off_c, 9, 42, 79
6, 373440, Note_on_c, 9, 42, 79
6, 373440, Note_on_c, 9, 40, 95
6, 373920, Note_off_c, 9, 42, 79
6, 373920, Note_off_c, 9, 40, 95
6, 373920, Note_on_c, 9, 42, 79
6, 374400, Note_off_c, 9, 42, 79
6, 374400, Note_on_c, 9, 42, 79
6, 374880, Note_off_c, 9, 42, 79
6, 374880, Note_on_c, 9, 42, 79
6, 374880, Note_on_c, 9, 36, 95
6, 375360, Note_off_c, 9, 42, 79
6, 375360, Note_off_c, 9, 36, 95
6, 375360, Note_on_c, 9, 42, 79
6, 375360, Note_on_c, 9, 40, 95
6, 375840, Note_off_c, 9, 42, 79
6, 375840, Note_off_c, 9, 40, 95
6, 375840, Note_on_c, 9, 42, 79
6, 375840, Note_on_c, 9, 36, 95
6, 376320, Note_off_c, 9, 42, 79
6, 376320, Note_off_c, 9, 36, 95
6, 376320, Note_on_c, 9, 42, 79
6, 376320, Note_on_c, 9, 36, 95
6, 376800, Note_off_c, 9, 42, 79
6, 376800, Note_off_c, 9, 36, 95
6, 376800, Note_on_c, 9, 42, 79
6, 377280, Note_off_c, 9, 42, 79
6, 377280, Note_on_c, 9, 42, 79
6, 377280, Note_on_c, 9, 40, 95
6, 377760, Note_off_c, 9, 42, 79
6, 377760, Note_off_c, 9, 40, 95
6, 377760, Note_on_c, 9, 42, 79
6, 378240, Note_off_c, 9, 42, 79
6, 378240, Note_on_c, 9, 42, 79
6, 378720, Note_off_c, 9, 42, 79
6, 378720, Note_on_c, 9, 42, 79
6, 378720, Note_on_c, 9, 36, 95
6, 379200, Note_off_c, 9, 42, 79
6, 379200, Note_off_c, 9, 36, 95
6, 379200, Note_on_c, 9, 42, 79
6, 379200, Note_on_c, 9, 40, 95
6, 379680, Note_off_c, 9, 42, 79
6, 379680, Note_off_c, 9, 40, 95
6, 379680, Note_on_c, 9, 42, 79
6, 379680, Note_on_c, 9, 36, 95
6, 380160, Note_off_c, 9, 42, 79
6, 380160, Note_off_c, 9, 36, 95
6, 380160, Note_on_c, 9, 42, 79
6, 380160, Note_on_c, 9, 36, 95
6, 380640, Note_off_c, 9, 42, 79
6, 380640, Note_off_c, 9, 36, 95
6, 380640, Note_on_c, 9, 42, 79
6, 381120, Note_off_c, 9, 42, 79
6, 381120, Note_on_c, 9, 42, 79
6, 381120, Note_on_c, 9, 40, 95
6, 381600, Note_off_c, 9, 42, 79
6, 381600, Note_off_c, 9, 40, 95
6, 381600, Note_on_c, 9, 42, 79
6, 382080, Note_off_c, 9, 42, 79
6, 382080, Note_on_c, 9, 42, 79
6, 382560, Note_off_c, 9, 42, 79
6, 382560, Note_on_c, 9, 42, 79
6, 382560, Note_on_c, 9, 36, 95
6, 383040, Note_off_c, 9, 42, 79
6, 383040, Note_off_c, 9, 36, 95
6, 383040, Note_on_c, 9, 42, 79
6, 383040, Note_on_c, 9, 40, 95
6, 383520, Note_off_c, 9, 42, 79
6, 383520, Note_off_c, 9, 40, 95
6, 383520, Note_on_c, 9, 42, 79
6, 383520, Note_on_c, 9, 36, 95
6, 384000, Note_off_c, 9, 42, 79
6, 384000, Note_off_c, 9, 36, 95
6, 384000, Note_on_c, 9, 42, 79
6, 384000, Note_on_c, 9, 36, 95
6, 387840, Note_off_c, 9, 42, 79
6, 387840, Note_off_c, 9, 36, 95
6, 387840, End_track
0, 0, End_of_file
