0, 0, Header, 1, 21, 480
1, 0, Start_track
1, 0, Copyright_t, "Sympathy for the Devil by Mick Jagger and Kieth Richards  - seq by Glenn Schaefer  :¥)"
1, 0, Text_t, "sympathy for the devil"
1, 0, SMPTE_offset, 96, 0, 0, 0, 0
1, 0, Key_signature, 0, "major"
1, 0, Time_signature, 4, 2, 24, 8
1, 0, Tempo, 512820
1, 480, Text_t, "sympathy for the devil"
1, 15360, Text_t, "by jagger/richards"
1, 23922, Text_t, "eat me!!!!!"
1, 26880, Text_t, "please allow me to"
1, 28800, Text_t, "introduce myself"
1, 30720, Text_t, "I'm a man of wealth"
1, 32640, Text_t, "and taste"
1, 34560, Text_t, "been around for a "
1, 36480, Text_t, "long long time"
1, 38400, Text_t, "stole many a man's"
1, 40320, Text_t, "soul and faith"
1, 42240, Text_t, "pleased to meet you"
1, 44160, Text_t, "hope you guess my "
1, 46080, Text_t, "name"
1, 49920, Text_t, "but what's confusing you"
1, 51840, Text_t, "is the nature of my"
1, 53760, Text_t, "game"
1, 61440, Text_t, "1996"
1, 82560, Text_t, "  :¥)"
1, 86400, Text_t, "seq by glenn schaefer"
1, 284160, End_track
2, 0, Start_track
2, 0, Text_t, "drm vol"
2, 0, Program_c, 9, 0
2, 0, Control_c, 9, 32, 0
2, 500, Control_c, 9, 11, 127
2, 520, Control_c, 9, 1, 0
2, 960, Control_c, 9, 10, 64
2, 3840, Control_c, 9, 7, 47
2, 4887, Control_c, 9, 7, 48
2, 5934, Control_c, 9, 7, 49
2, 6981, Control_c, 9, 7, 50
2, 8029, Control_c, 9, 7, 51
2, 9076, Control_c, 9, 7, 52
2, 10123, Control_c, 9, 7, 53
2, 11170, Control_c, 9, 7, 54
2, 12218, Control_c, 9, 7, 55
2, 13265, Control_c, 9, 7, 56
2, 14312, Control_c, 9, 7, 57
2, 15360, Control_c, 9, 7, 58
2, 16407, Control_c, 9, 7, 59
2, 17454, Control_c, 9, 7, 60
2, 18501, Control_c, 9, 7, 61
2, 19549, Control_c, 9, 7, 62
2, 20596, Control_c, 9, 7, 63
2, 21643, Control_c, 9, 7, 64
2, 22690, Control_c, 9, 7, 65
2, 23738, Control_c, 9, 7, 66
2, 24785, Control_c, 9, 7, 65
2, 25832, Control_c, 9, 7, 63
2, 241920, Control_c, 9, 7, 63
2, 242976, Control_c, 9, 7, 62
2, 244032, Control_c, 9, 7, 61
2, 245088, Control_c, 9, 7, 60
2, 246144, Control_c, 9, 7, 59
2, 247200, Control_c, 9, 7, 58
2, 248256, Control_c, 9, 7, 57
2, 249312, Control_c, 9, 7, 56
2, 250368, Control_c, 9, 7, 55
2, 251424, Control_c, 9, 7, 54
2, 252480, Control_c, 9, 7, 53
2, 253536, Control_c, 9, 7, 52
2, 254592, Control_c, 9, 7, 51
2, 255648, Control_c, 9, 7, 50
2, 256704, Control_c, 9, 7, 46
2, 257760, Control_c, 9, 7, 45
2, 258816, Control_c, 9, 7, 44
2, 259872, Control_c, 9, 7, 43
2, 260928, Control_c, 9, 7, 42
2, 261984, Control_c, 9, 7, 41
2, 263040, Control_c, 9, 7, 40
2, 264096, Control_c, 9, 7, 39
2, 265152, Control_c, 9, 7, 38
2, 266208, Control_c, 9, 7, 37
2, 267264, Control_c, 9, 7, 36
2, 268320, Control_c, 9, 7, 35
2, 269376, Control_c, 9, 7, 34
2, 270432, Control_c, 9, 7, 33
2, 271488, Control_c, 9, 7, 32
2, 272544, Control_c, 9, 7, 31
2, 273600, Control_c, 9, 7, 30
2, 274656, Control_c, 9, 7, 29
2, 275712, Control_c, 9, 7, 28
2, 276768, Control_c, 9, 7, 27
2, 277824, Control_c, 9, 7, 26
2, 278880, Control_c, 9, 7, 25
2, 279936, Control_c, 9, 7, 24
2, 284160, End_track
3, 0, Start_track
3, 0, Text_t, "drm stix"
3, 11493, Note_on_c, 9, 52, 75
3, 11830, Note_on_c, 9, 52, 0
3, 13414, Note_on_c, 9, 52, 78
3, 13737, Note_on_c, 9, 52, 0
3, 15363, Note_on_c, 9, 52, 76
3, 15763, Note_on_c, 9, 52, 0
3, 17280, Note_on_c, 9, 49, 72
3, 17687, Note_on_c, 9, 49, 0
3, 27351, Note_on_c, 9, 40, 77
3, 27434, Note_on_c, 9, 40, 0
3, 28294, Note_on_c, 9, 40, 75
3, 28347, Note_on_c, 9, 40, 0
3, 29261, Note_on_c, 9, 40, 76
3, 29303, Note_on_c, 9, 40, 0
3, 30248, Note_on_c, 9, 40, 78
3, 30286, Note_on_c, 9, 40, 0
3, 31194, Note_on_c, 9, 40, 74
3, 31237, Note_on_c, 9, 40, 0
3, 33105, Note_on_c, 9, 40, 78
3, 33149, Note_on_c, 9, 40, 0
3, 35048, Note_on_c, 9, 40, 79
3, 35106, Note_on_c, 9, 40, 0
3, 36945, Note_on_c, 9, 40, 79
3, 36988, Note_on_c, 9, 40, 0
3, 38848, Note_on_c, 9, 40, 91
3, 38904, Note_on_c, 9, 40, 0
3, 40806, Note_on_c, 9, 40, 80
3, 40861, Note_on_c, 9, 40, 0
3, 42732, Note_on_c, 9, 40, 86
3, 42793, Note_on_c, 9, 40, 0
3, 44635, Note_on_c, 9, 40, 91
3, 44708, Note_on_c, 9, 40, 0
3, 45580, Note_on_c, 9, 40, 95
3, 45648, Note_on_c, 9, 40, 0
3, 48486, Note_on_c, 9, 40, 88
3, 48552, Note_on_c, 9, 40, 0
3, 50410, Note_on_c, 9, 40, 86
3, 50485, Note_on_c, 9, 40, 0
3, 51846, Note_on_c, 9, 40, 95
3, 51924, Note_on_c, 9, 40, 0
3, 52801, Note_on_c, 9, 40, 100
3, 52859, Note_on_c, 9, 40, 0
3, 55216, Note_on_c, 9, 40, 88
3, 55275, Note_on_c, 9, 40, 0
3, 57135, Note_on_c, 9, 40, 91
3, 57198, Note_on_c, 9, 40, 0
3, 59021, Note_on_c, 9, 48, 111
3, 59104, Note_on_c, 9, 48, 0
3, 60977, Note_on_c, 9, 48, 95
3, 61056, Note_on_c, 9, 48, 0
3, 62891, Note_on_c, 9, 47, 95
3, 62914, Note_on_c, 9, 47, 0
3, 63149, Note_on_c, 9, 47, 91
3, 63196, Note_on_c, 9, 47, 0
3, 64520, Note_on_c, 9, 45, 95
3, 64538, Note_on_c, 9, 45, 0
3, 64794, Note_on_c, 9, 45, 89
3, 64796, Note_on_c, 9, 47, 85
3, 64808, Note_on_c, 9, 47, 0
3, 64819, Note_on_c, 9, 45, 0
3, 65051, Note_on_c, 9, 45, 95
3, 65080, Note_on_c, 9, 45, 0
3, 66237, Note_on_c, 9, 48, 127
3, 66344, Note_on_c, 9, 48, 0
3, 68189, Note_on_c, 9, 48, 100
3, 68194, Note_on_c, 9, 47, 100
3, 68197, Note_on_c, 9, 47, 0
3, 68291, Note_on_c, 9, 48, 0
3, 70110, Note_on_c, 9, 47, 95
3, 70206, Note_on_c, 9, 47, 0
3, 71945, Note_on_c, 9, 45, 111
3, 71970, Note_on_c, 9, 45, 0
3, 72230, Note_on_c, 9, 45, 95
3, 72253, Note_on_c, 9, 45, 0
3, 72481, Note_on_c, 9, 45, 88
3, 72502, Note_on_c, 9, 45, 0
3, 72717, Note_on_c, 9, 45, 88
3, 72746, Note_on_c, 9, 45, 0
3, 73513, Note_on_c, 9, 43, 71
3, 73521, Note_on_c, 9, 43, 0
3, 73861, Note_on_c, 9, 45, 127
3, 73949, Note_on_c, 9, 45, 0
3, 75848, Note_on_c, 9, 45, 123
3, 75853, Note_on_c, 9, 43, 100
3, 75855, Note_on_c, 9, 43, 0
3, 75869, Note_on_c, 9, 42, 82
3, 75873, Note_on_c, 9, 42, 0
3, 75915, Note_on_c, 9, 45, 0
3, 77783, Note_on_c, 9, 43, 111
3, 77865, Note_on_c, 9, 43, 0
3, 79683, Note_on_c, 9, 43, 100
3, 79755, Note_on_c, 9, 43, 0
3, 81597, Note_on_c, 9, 48, 123
3, 81689, Note_on_c, 9, 48, 0
3, 83502, Note_on_c, 9, 47, 100
3, 83597, Note_on_c, 9, 47, 0
3, 85437, Note_on_c, 9, 45, 100
3, 85519, Note_on_c, 9, 45, 0
3, 87358, Note_on_c, 9, 40, 95
3, 87445, Note_on_c, 9, 40, 0
3, 89272, Note_on_c, 9, 40, 100
3, 89361, Note_on_c, 9, 40, 0
3, 91201, Note_on_c, 9, 40, 88
3, 91297, Note_on_c, 9, 40, 0
3, 95471, Note_on_c, 9, 40, 95
3, 95542, Note_on_c, 9, 40, 0
3, 97434, Note_on_c, 9, 40, 100
3, 97511, Note_on_c, 9, 40, 0
3, 99311, Note_on_c, 9, 40, 100
3, 99391, Note_on_c, 9, 40, 0
3, 101265, Note_on_c, 9, 40, 95
3, 101328, Note_on_c, 9, 40, 0
3, 103186, Note_on_c, 9, 40, 111
3, 103242, Note_on_c, 9, 40, 0
3, 104146, Note_on_c, 9, 40, 80
3, 104193, Note_on_c, 9, 40, 0
3, 106097, Note_on_c, 9, 40, 84
3, 106152, Note_on_c, 9, 40, 0
3, 107035, Note_on_c, 9, 40, 95
3, 107111, Note_on_c, 9, 40, 0
3, 108973, Note_on_c, 9, 40, 95
3, 109039, Note_on_c, 9, 40, 0
3, 110878, Note_on_c, 9, 40, 95
3, 110943, Note_on_c, 9, 40, 0
3, 112794, Note_on_c, 9, 40, 100
3, 112849, Note_on_c, 9, 40, 0
3, 114722, Note_on_c, 9, 40, 100
3, 114783, Note_on_c, 9, 40, 0
3, 116634, Note_on_c, 9, 40, 95
3, 116694, Note_on_c, 9, 40, 0
3, 118546, Note_on_c, 9, 40, 100
3, 118558, Note_on_c, 9, 38, 95
3, 118561, Note_on_c, 9, 38, 0
3, 118642, Note_on_c, 9, 40, 0
3, 119503, Note_on_c, 9, 52, 82
3, 120490, Note_on_c, 9, 40, 95
3, 120495, Note_on_c, 9, 38, 100
3, 120531, Note_on_c, 9, 38, 0
3, 120539, Note_on_c, 9, 40, 0
3, 120678, Note_on_c, 9, 52, 0
3, 122405, Note_on_c, 9, 40, 87
3, 122405, Note_on_c, 9, 38, 105
3, 122437, Note_on_c, 9, 38, 0
3, 122440, Note_on_c, 9, 40, 0
3, 124321, Note_on_c, 9, 40, 83
3, 124321, Note_on_c, 9, 38, 87
3, 124368, Note_on_c, 9, 40, 0
3, 124369, Note_on_c, 9, 38, 0
3, 126263, Note_on_c, 9, 38, 117
3, 126266, Note_on_c, 9, 40, 97
3, 126268, Note_on_c, 9, 36, 85
3, 126282, Note_on_c, 9, 36, 0
3, 126304, Note_on_c, 9, 38, 0
3, 126306, Note_on_c, 9, 40, 0
3, 127200, Note_on_c, 9, 45, 82
3, 127706, Note_on_c, 9, 45, 0
3, 128133, Note_on_c, 9, 40, 97
3, 128133, Note_on_c, 9, 38, 105
3, 128174, Note_on_c, 9, 38, 0
3, 128177, Note_on_c, 9, 40, 0
3, 129145, Note_on_c, 9, 45, 111
3, 129461, Note_on_c, 9, 45, 0
3, 130070, Note_on_c, 9, 38, 105
3, 130075, Note_on_c, 9, 40, 87
3, 130119, Note_on_c, 9, 38, 0
3, 130122, Note_on_c, 9, 40, 0
3, 131045, Note_on_c, 9, 47, 111
3, 131323, Note_on_c, 9, 47, 0
3, 132010, Note_on_c, 9, 38, 117
3, 132010, Note_on_c, 9, 40, 97
3, 132014, Note_on_c, 9, 47, 111
3, 132056, Note_on_c, 9, 40, 0
3, 132059, Note_on_c, 9, 38, 0
3, 132330, Note_on_c, 9, 47, 0
3, 133894, Note_on_c, 9, 40, 105
3, 133894, Note_on_c, 9, 38, 97
3, 133938, Note_on_c, 9, 40, 0
3, 133938, Note_on_c, 9, 38, 0
3, 134887, Note_on_c, 9, 45, 100
3, 135191, Note_on_c, 9, 45, 0
3, 135834, Note_on_c, 9, 48, 127
3, 135870, Note_on_c, 9, 45, 100
3, 135918, Note_on_c, 9, 48, 0
3, 136132, Note_on_c, 9, 45, 0
3, 136328, Note_on_c, 9, 52, 84
3, 136804, Note_on_c, 9, 45, 91
3, 137047, Note_on_c, 9, 45, 0
3, 137154, Note_on_c, 9, 52, 0
3, 137718, Note_on_c, 9, 48, 127
3, 137763, Note_on_c, 9, 43, 95
3, 137789, Note_on_c, 9, 48, 0
3, 138067, Note_on_c, 9, 43, 0
3, 138237, Note_on_c, 9, 49, 82
3, 139238, Note_on_c, 9, 49, 0
3, 139681, Note_on_c, 9, 45, 127
3, 139701, Note_on_c, 9, 45, 0
3, 139934, Note_on_c, 9, 45, 127
3, 140014, Note_on_c, 9, 45, 0
3, 140135, Note_on_c, 9, 52, 79
3, 141064, Note_on_c, 9, 52, 0
3, 141356, Note_on_c, 9, 47, 127
3, 141377, Note_on_c, 9, 47, 0
3, 141607, Note_on_c, 9, 47, 127
3, 141630, Note_on_c, 9, 47, 0
3, 141855, Note_on_c, 9, 47, 127
3, 141896, Note_on_c, 9, 47, 0
3, 142058, Note_on_c, 9, 49, 78
3, 142576, Note_on_c, 9, 45, 100
3, 142716, Note_on_c, 9, 49, 0
3, 142848, Note_on_c, 9, 45, 0
3, 143055, Note_on_c, 9, 48, 127
3, 143177, Note_on_c, 9, 48, 0
3, 143538, Note_on_c, 9, 45, 100
3, 143763, Note_on_c, 9, 45, 0
3, 143977, Note_on_c, 9, 49, 77
3, 144486, Note_on_c, 9, 45, 100
3, 144583, Note_on_c, 9, 49, 0
3, 144717, Note_on_c, 9, 45, 0
3, 144960, Note_on_c, 9, 48, 127
3, 145084, Note_on_c, 9, 48, 0
3, 145415, Note_on_c, 9, 45, 100
3, 145675, Note_on_c, 9, 45, 0
3, 145879, Note_on_c, 9, 52, 80
3, 146020, Note_on_c, 9, 52, 0
3, 146879, Note_on_c, 9, 43, 123
3, 146995, Note_on_c, 9, 43, 0
3, 147803, Note_on_c, 9, 52, 80
3, 147920, Note_on_c, 9, 52, 0
3, 148802, Note_on_c, 9, 43, 123
3, 148869, Note_on_c, 9, 43, 0
3, 149298, Note_on_c, 9, 43, 127
3, 149394, Note_on_c, 9, 43, 0
3, 149757, Note_on_c, 9, 45, 100
3, 150365, Note_on_c, 9, 45, 0
3, 150744, Note_on_c, 9, 43, 127
3, 150847, Note_on_c, 9, 43, 0
3, 151411, Note_on_c, 9, 45, 91
3, 151542, Note_on_c, 9, 45, 0
3, 151671, Note_on_c, 9, 45, 82
3, 152020, Note_on_c, 9, 45, 0
3, 152654, Note_on_c, 9, 47, 123
3, 152654, Note_on_c, 9, 45, 117
3, 152676, Note_on_c, 9, 47, 0
3, 152774, Note_on_c, 9, 45, 0
3, 153323, Note_on_c, 9, 45, 95
3, 153445, Note_on_c, 9, 45, 0
3, 153597, Note_on_c, 9, 45, 84
3, 153966, Note_on_c, 9, 45, 0
3, 154573, Note_on_c, 9, 47, 127
3, 154680, Note_on_c, 9, 47, 0
3, 155265, Note_on_c, 9, 45, 95
3, 155366, Note_on_c, 9, 45, 0
3, 155523, Note_on_c, 9, 45, 91
3, 155885, Note_on_c, 9, 45, 0
3, 156487, Note_on_c, 9, 50, 127
3, 156593, Note_on_c, 9, 50, 0
3, 157189, Note_on_c, 9, 45, 100
3, 157310, Note_on_c, 9, 45, 0
3, 157469, Note_on_c, 9, 45, 91
3, 157706, Note_on_c, 9, 45, 0
3, 158455, Note_on_c, 9, 49, 123
3, 158457, Note_on_c, 9, 48, 97
3, 158457, Note_on_c, 9, 47, 111
3, 158478, Note_on_c, 9, 48, 0
3, 158478, Note_on_c, 9, 47, 0
3, 158667, Note_on_c, 9, 49, 0
3, 159166, Note_on_c, 9, 45, 95
3, 159271, Note_on_c, 9, 45, 0
3, 159407, Note_on_c, 9, 45, 95
3, 159613, Note_on_c, 9, 45, 0
3, 160324, Note_on_c, 9, 49, 123
3, 160534, Note_on_c, 9, 49, 0
3, 161061, Note_on_c, 9, 45, 111
3, 161188, Note_on_c, 9, 45, 0
3, 161309, Note_on_c, 9, 45, 111
3, 161562, Note_on_c, 9, 45, 0
3, 162252, Note_on_c, 9, 49, 123
3, 162472, Note_on_c, 9, 49, 0
3, 162973, Note_on_c, 9, 45, 111
3, 163104, Note_on_c, 9, 45, 0
3, 163235, Note_on_c, 9, 45, 111
3, 163453, Note_on_c, 9, 45, 0
3, 164162, Note_on_c, 9, 48, 123
3, 164246, Note_on_c, 9, 48, 0
3, 164876, Note_on_c, 9, 45, 95
3, 165009, Note_on_c, 9, 45, 0
3, 165124, Note_on_c, 9, 45, 95
3, 165447, Note_on_c, 9, 45, 0
3, 166069, Note_on_c, 9, 40, 123
3, 166160, Note_on_c, 9, 40, 0
3, 166790, Note_on_c, 9, 45, 91
3, 166909, Note_on_c, 9, 45, 0
3, 167038, Note_on_c, 9, 45, 100
3, 167286, Note_on_c, 9, 45, 0
3, 167990, Note_on_c, 9, 40, 123
3, 168052, Note_on_c, 9, 40, 0
3, 168711, Note_on_c, 9, 45, 100
3, 168842, Note_on_c, 9, 45, 0
3, 168973, Note_on_c, 9, 45, 95
3, 169233, Note_on_c, 9, 45, 0
3, 169883, Note_on_c, 9, 40, 123
3, 169947, Note_on_c, 9, 40, 0
3, 170625, Note_on_c, 9, 47, 100
3, 170754, Note_on_c, 9, 47, 0
3, 170882, Note_on_c, 9, 47, 100
3, 171217, Note_on_c, 9, 47, 0
3, 171797, Note_on_c, 9, 39, 117
3, 171797, Note_on_c, 9, 40, 127
3, 171804, Note_on_c, 9, 39, 0
3, 171893, Note_on_c, 9, 40, 0
3, 172551, Note_on_c, 9, 45, 100
3, 172668, Note_on_c, 9, 45, 0
3, 172799, Note_on_c, 9, 45, 91
3, 173150, Note_on_c, 9, 45, 0
3, 173768, Note_on_c, 9, 39, 97
3, 173768, Note_on_c, 9, 40, 127
3, 173771, Note_on_c, 9, 39, 0
3, 173868, Note_on_c, 9, 40, 0
3, 174486, Note_on_c, 9, 45, 95
3, 174617, Note_on_c, 9, 45, 0
3, 174750, Note_on_c, 9, 45, 91
3, 175125, Note_on_c, 9, 45, 0
3, 175689, Note_on_c, 9, 40, 100
3, 175780, Note_on_c, 9, 40, 0
3, 176407, Note_on_c, 9, 45, 95
3, 176407, Note_on_c, 9, 47, 88
3, 176442, Note_on_c, 9, 47, 0
3, 176536, Note_on_c, 9, 45, 0
3, 176664, Note_on_c, 9, 45, 91
3, 177081, Note_on_c, 9, 45, 0
3, 177594, Note_on_c, 9, 40, 123
3, 177695, Note_on_c, 9, 40, 0
3, 178305, Note_on_c, 9, 47, 111
3, 178405, Note_on_c, 9, 47, 0
3, 178579, Note_on_c, 9, 47, 95
3, 179037, Note_on_c, 9, 47, 0
3, 179524, Note_on_c, 9, 40, 100
3, 179619, Note_on_c, 9, 40, 0
3, 180254, Note_on_c, 9, 47, 91
3, 180362, Note_on_c, 9, 47, 0
3, 180509, Note_on_c, 9, 47, 95
3, 180926, Note_on_c, 9, 47, 0
3, 181440, Note_on_c, 9, 40, 95
3, 181578, Note_on_c, 9, 40, 0
3, 182390, Note_on_c, 9, 47, 111
3, 182699, Note_on_c, 9, 47, 0
3, 183338, Note_on_c, 9, 40, 100
3, 183448, Note_on_c, 9, 40, 0
3, 184071, Note_on_c, 9, 47, 100
3, 184213, Note_on_c, 9, 47, 0
3, 184337, Note_on_c, 9, 47, 95
3, 184752, Note_on_c, 9, 47, 0
3, 185266, Note_on_c, 9, 40, 95
3, 185381, Note_on_c, 9, 40, 0
3, 186219, Note_on_c, 9, 52, 84
3, 186436, Note_on_c, 9, 52, 0
3, 187171, Note_on_c, 9, 40, 91
3, 187293, Note_on_c, 9, 40, 0
3, 187911, Note_on_c, 9, 47, 123
3, 188011, Note_on_c, 9, 47, 0
3, 188177, Note_on_c, 9, 47, 95
3, 188472, Note_on_c, 9, 47, 0
3, 188870, Note_on_c, 9, 47, 88
3, 188994, Note_on_c, 9, 47, 0
3, 189153, Note_on_c, 9, 40, 123
3, 189176, Note_on_c, 9, 47, 91
3, 189256, Note_on_c, 9, 40, 0
3, 189399, Note_on_c, 9, 47, 0
3, 189839, Note_on_c, 9, 45, 91
3, 189967, Note_on_c, 9, 45, 0
3, 190117, Note_on_c, 9, 45, 95
3, 190356, Note_on_c, 9, 45, 0
3, 190751, Note_on_c, 9, 45, 85
3, 190768, Note_on_c, 9, 47, 83
3, 190796, Note_on_c, 9, 47, 0
3, 190882, Note_on_c, 9, 45, 0
3, 191020, Note_on_c, 9, 40, 100
3, 191056, Note_on_c, 9, 45, 95
3, 191140, Note_on_c, 9, 40, 0
3, 191313, Note_on_c, 9, 45, 0
3, 191750, Note_on_c, 9, 45, 86
3, 191879, Note_on_c, 9, 45, 0
3, 192034, Note_on_c, 9, 45, 86
3, 192272, Note_on_c, 9, 45, 0
3, 192663, Note_on_c, 9, 45, 88
3, 192792, Note_on_c, 9, 45, 0
3, 192942, Note_on_c, 9, 40, 111
3, 192967, Note_on_c, 9, 45, 88
3, 193040, Note_on_c, 9, 40, 0
3, 193271, Note_on_c, 9, 45, 0
3, 193665, Note_on_c, 9, 43, 95
3, 193791, Note_on_c, 9, 43, 0
3, 193957, Note_on_c, 9, 43, 88
3, 194245, Note_on_c, 9, 43, 0
3, 194898, Note_on_c, 9, 40, 127
3, 195059, Note_on_c, 9, 40, 0
3, 195834, Note_on_c, 9, 51, 123
3, 195925, Note_on_c, 9, 51, 0
3, 196831, Note_on_c, 9, 48, 123
3, 196885, Note_on_c, 9, 48, 0
3, 197247, Note_on_c, 9, 48, 100
3, 197300, Note_on_c, 9, 48, 0
3, 197622, Note_on_c, 9, 48, 111
3, 197749, Note_on_c, 9, 48, 0
3, 197750, Note_on_c, 9, 49, 100
3, 197830, Note_on_c, 9, 49, 0
3, 199196, Note_on_c, 9, 40, 79
3, 199203, Note_on_c, 9, 38, 79
3, 199209, Note_on_c, 9, 38, 0
3, 199227, Note_on_c, 9, 40, 0
3, 199660, Note_on_c, 9, 49, 111
3, 199744, Note_on_c, 9, 49, 0
3, 200640, Note_on_c, 9, 40, 123
3, 200736, Note_on_c, 9, 40, 0
3, 201574, Note_on_c, 9, 52, 84
3, 202554, Note_on_c, 9, 40, 111
3, 202625, Note_on_c, 9, 40, 0
3, 202781, Note_on_c, 9, 52, 0
3, 203488, Note_on_c, 9, 49, 91
3, 204499, Note_on_c, 9, 40, 123
3, 204571, Note_on_c, 9, 40, 0
3, 204943, Note_on_c, 9, 49, 0
3, 206418, Note_on_c, 9, 40, 95
3, 206499, Note_on_c, 9, 40, 0
3, 207356, Note_on_c, 9, 45, 86
3, 207658, Note_on_c, 9, 45, 0
3, 208311, Note_on_c, 9, 45, 88
3, 208332, Note_on_c, 9, 40, 100
3, 208411, Note_on_c, 9, 40, 0
3, 208575, Note_on_c, 9, 45, 0
3, 209270, Note_on_c, 9, 45, 100
3, 209513, Note_on_c, 9, 45, 0
3, 210204, Note_on_c, 9, 45, 91
3, 210267, Note_on_c, 9, 40, 95
3, 210340, Note_on_c, 9, 40, 0
3, 210398, Note_on_c, 9, 45, 0
3, 211203, Note_on_c, 9, 47, 82
3, 211397, Note_on_c, 9, 47, 0
3, 212160, Note_on_c, 9, 40, 111
3, 212223, Note_on_c, 9, 40, 0
3, 214048, Note_on_c, 9, 40, 111
3, 214120, Note_on_c, 9, 40, 0
3, 215993, Note_on_c, 9, 40, 95
3, 216037, Note_on_c, 9, 40, 0
3, 217935, Note_on_c, 9, 40, 95
3, 217967, Note_on_c, 9, 40, 0
3, 218450, Note_on_c, 9, 40, 95
3, 218488, Note_on_c, 9, 40, 0
3, 219856, Note_on_c, 9, 40, 123
3, 219926, Note_on_c, 9, 40, 0
3, 221780, Note_on_c, 9, 40, 91
3, 221838, Note_on_c, 9, 40, 0
3, 223692, Note_on_c, 9, 40, 111
3, 223715, Note_on_c, 9, 40, 0
3, 225613, Note_on_c, 9, 40, 111
3, 225636, Note_on_c, 9, 40, 0
3, 227536, Note_on_c, 9, 40, 123
3, 227614, Note_on_c, 9, 40, 0
3, 229453, Note_on_c, 9, 40, 100
3, 229531, Note_on_c, 9, 40, 0
3, 231381, Note_on_c, 9, 40, 123
3, 231471, Note_on_c, 9, 40, 0
3, 233279, Note_on_c, 9, 40, 123
3, 233367, Note_on_c, 9, 40, 0
3, 235207, Note_on_c, 9, 40, 123
3, 235316, Note_on_c, 9, 40, 0
3, 237102, Note_on_c, 9, 40, 100
3, 237211, Note_on_c, 9, 40, 0
3, 239072, Note_on_c, 9, 40, 111
3, 239167, Note_on_c, 9, 40, 0
3, 240961, Note_on_c, 9, 40, 100
3, 241067, Note_on_c, 9, 40, 0
3, 242884, Note_on_c, 9, 41, 89
3, 242884, Note_on_c, 9, 40, 87
3, 242911, Note_on_c, 9, 41, 0
3, 242975, Note_on_c, 9, 40, 0
3, 244810, Note_on_c, 9, 38, 100
3, 244815, Note_on_c, 9, 40, 93
3, 244910, Note_on_c, 9, 38, 0
3, 244913, Note_on_c, 9, 40, 0
3, 246736, Note_on_c, 9, 40, 91
3, 246736, Note_on_c, 9, 38, 111
3, 246823, Note_on_c, 9, 38, 0
3, 246824, Note_on_c, 9, 40, 0
3, 248638, Note_on_c, 9, 40, 100
3, 248728, Note_on_c, 9, 40, 0
3, 255375, Note_on_c, 9, 52, 73
3, 255726, Note_on_c, 9, 52, 0
3, 262316, Note_on_c, 9, 40, 111
3, 262412, Note_on_c, 9, 40, 0
3, 264223, Note_on_c, 9, 40, 111
3, 264312, Note_on_c, 9, 40, 0
3, 266163, Note_on_c, 9, 40, 100
3, 266267, Note_on_c, 9, 40, 0
3, 268074, Note_on_c, 9, 40, 100
3, 268202, Note_on_c, 9, 40, 0
3, 284160, End_track
4, 0, Start_track
4, 0, Text_t, "cowbell"
4, 3840, Note_on_c, 9, 68, 103
4, 4058, Note_on_c, 9, 68, 0
4, 4080, Note_on_c, 9, 68, 95
4, 4298, Note_on_c, 9, 68, 0
4, 4680, Note_on_c, 9, 68, 84
4, 4897, Note_on_c, 9, 68, 0
4, 4920, Note_on_c, 9, 68, 103
4, 5137, Note_on_c, 9, 68, 0
4, 5160, Note_on_c, 9, 68, 84
4, 5375, Note_on_c, 9, 68, 0
4, 5760, Note_on_c, 9, 68, 100
4, 5976, Note_on_c, 9, 68, 0
4, 6000, Note_on_c, 9, 68, 100
4, 6216, Note_on_c, 9, 68, 0
4, 6600, Note_on_c, 9, 68, 84
4, 6815, Note_on_c, 9, 68, 0
4, 6840, Note_on_c, 9, 68, 84
4, 7057, Note_on_c, 9, 68, 0
4, 7080, Note_on_c, 9, 68, 100
4, 7297, Note_on_c, 9, 68, 0
4, 7680, Note_on_c, 9, 68, 103
4, 7896, Note_on_c, 9, 68, 0
4, 7920, Note_on_c, 9, 68, 95
4, 8136, Note_on_c, 9, 68, 0
4, 8520, Note_on_c, 9, 68, 84
4, 8737, Note_on_c, 9, 68, 0
4, 8760, Note_on_c, 9, 68, 103
4, 8977, Note_on_c, 9, 68, 0
4, 9000, Note_on_c, 9, 68, 84
4, 9217, Note_on_c, 9, 68, 0
4, 9600, Note_on_c, 9, 68, 100
4, 9816, Note_on_c, 9, 68, 0
4, 9840, Note_on_c, 9, 68, 100
4, 10056, Note_on_c, 9, 68, 0
4, 10440, Note_on_c, 9, 68, 84
4, 10657, Note_on_c, 9, 68, 0
4, 10680, Note_on_c, 9, 68, 84
4, 10895, Note_on_c, 9, 68, 0
4, 10920, Note_on_c, 9, 68, 100
4, 11137, Note_on_c, 9, 68, 0
4, 11520, Note_on_c, 9, 68, 100
4, 11736, Note_on_c, 9, 68, 0
4, 11760, Note_on_c, 9, 68, 100
4, 11976, Note_on_c, 9, 68, 0
4, 12360, Note_on_c, 9, 68, 84
4, 12575, Note_on_c, 9, 68, 0
4, 12600, Note_on_c, 9, 68, 84
4, 12817, Note_on_c, 9, 68, 0
4, 12840, Note_on_c, 9, 68, 100
4, 13057, Note_on_c, 9, 68, 0
4, 13440, Note_on_c, 9, 68, 103
4, 13656, Note_on_c, 9, 68, 0
4, 13680, Note_on_c, 9, 68, 95
4, 13896, Note_on_c, 9, 68, 0
4, 14280, Note_on_c, 9, 68, 84
4, 14497, Note_on_c, 9, 68, 0
4, 14520, Note_on_c, 9, 68, 103
4, 14737, Note_on_c, 9, 68, 0
4, 14760, Note_on_c, 9, 68, 84
4, 14977, Note_on_c, 9, 68, 0
4, 15360, Note_on_c, 9, 68, 100
4, 15576, Note_on_c, 9, 68, 0
4, 15600, Note_on_c, 9, 68, 100
4, 15816, Note_on_c, 9, 68, 0
4, 16200, Note_on_c, 9, 68, 84
4, 16415, Note_on_c, 9, 68, 0
4, 16440, Note_on_c, 9, 68, 84
4, 16657, Note_on_c, 9, 68, 0
4, 16680, Note_on_c, 9, 68, 100
4, 16897, Note_on_c, 9, 68, 0
4, 17280, Note_on_c, 9, 68, 103
4, 17496, Note_on_c, 9, 68, 0
4, 17520, Note_on_c, 9, 68, 95
4, 17736, Note_on_c, 9, 68, 0
4, 18120, Note_on_c, 9, 68, 84
4, 18337, Note_on_c, 9, 68, 0
4, 18360, Note_on_c, 9, 68, 103
4, 18577, Note_on_c, 9, 68, 0
4, 18600, Note_on_c, 9, 68, 84
4, 18817, Note_on_c, 9, 68, 0
4, 19200, Note_on_c, 9, 68, 103
4, 19418, Note_on_c, 9, 68, 0
4, 19440, Note_on_c, 9, 68, 95
4, 19658, Note_on_c, 9, 68, 0
4, 20040, Note_on_c, 9, 68, 84
4, 20257, Note_on_c, 9, 68, 0
4, 20280, Note_on_c, 9, 68, 103
4, 20497, Note_on_c, 9, 68, 0
4, 20520, Note_on_c, 9, 68, 84
4, 20735, Note_on_c, 9, 68, 0
4, 21120, Note_on_c, 9, 68, 100
4, 21336, Note_on_c, 9, 68, 0
4, 21360, Note_on_c, 9, 68, 100
4, 21576, Note_on_c, 9, 68, 0
4, 21960, Note_on_c, 9, 68, 84
4, 22175, Note_on_c, 9, 68, 0
4, 22200, Note_on_c, 9, 68, 84
4, 22417, Note_on_c, 9, 68, 0
4, 22440, Note_on_c, 9, 68, 100
4, 22657, Note_on_c, 9, 68, 0
4, 23040, Note_on_c, 9, 68, 103
4, 23256, Note_on_c, 9, 68, 0
4, 23280, Note_on_c, 9, 68, 95
4, 23496, Note_on_c, 9, 68, 0
4, 23880, Note_on_c, 9, 68, 84
4, 24097, Note_on_c, 9, 68, 0
4, 24120, Note_on_c, 9, 68, 103
4, 24337, Note_on_c, 9, 68, 0
4, 24360, Note_on_c, 9, 68, 84
4, 24577, Note_on_c, 9, 68, 0
4, 24960, Note_on_c, 9, 68, 100
4, 25176, Note_on_c, 9, 68, 0
4, 25200, Note_on_c, 9, 68, 100
4, 25416, Note_on_c, 9, 68, 0
4, 25800, Note_on_c, 9, 68, 84
4, 26017, Note_on_c, 9, 68, 0
4, 26040, Note_on_c, 9, 68, 84
4, 26255, Note_on_c, 9, 68, 0
4, 26280, Note_on_c, 9, 68, 100
4, 26497, Note_on_c, 9, 68, 0
4, 26880, Note_on_c, 9, 68, 100
4, 27096, Note_on_c, 9, 68, 0
4, 27120, Note_on_c, 9, 68, 100
4, 27336, Note_on_c, 9, 68, 0
4, 27720, Note_on_c, 9, 68, 84
4, 27935, Note_on_c, 9, 68, 0
4, 27960, Note_on_c, 9, 68, 84
4, 28177, Note_on_c, 9, 68, 0
4, 28200, Note_on_c, 9, 68, 100
4, 28417, Note_on_c, 9, 68, 0
4, 28800, Note_on_c, 9, 68, 103
4, 29016, Note_on_c, 9, 68, 0
4, 29040, Note_on_c, 9, 68, 95
4, 29256, Note_on_c, 9, 68, 0
4, 29640, Note_on_c, 9, 68, 84
4, 29857, Note_on_c, 9, 68, 0
4, 29880, Note_on_c, 9, 68, 103
4, 30097, Note_on_c, 9, 68, 0
4, 30120, Note_on_c, 9, 68, 84
4, 30337, Note_on_c, 9, 68, 0
4, 30720, Note_on_c, 9, 68, 100
4, 30936, Note_on_c, 9, 68, 0
4, 30960, Note_on_c, 9, 68, 100
4, 31176, Note_on_c, 9, 68, 0
4, 31560, Note_on_c, 9, 68, 84
4, 31775, Note_on_c, 9, 68, 0
4, 31800, Note_on_c, 9, 68, 84
4, 32017, Note_on_c, 9, 68, 0
4, 32040, Note_on_c, 9, 68, 100
4, 32257, Note_on_c, 9, 68, 0
4, 32640, Note_on_c, 9, 68, 103
4, 32856, Note_on_c, 9, 68, 0
4, 32880, Note_on_c, 9, 68, 95
4, 33096, Note_on_c, 9, 68, 0
4, 33480, Note_on_c, 9, 68, 84
4, 33697, Note_on_c, 9, 68, 0
4, 33720, Note_on_c, 9, 68, 103
4, 33937, Note_on_c, 9, 68, 0
4, 33960, Note_on_c, 9, 68, 84
4, 34177, Note_on_c, 9, 68, 0
4, 34560, Note_on_c, 9, 68, 103
4, 34778, Note_on_c, 9, 68, 0
4, 34800, Note_on_c, 9, 68, 95
4, 35018, Note_on_c, 9, 68, 0
4, 35400, Note_on_c, 9, 68, 84
4, 35617, Note_on_c, 9, 68, 0
4, 35640, Note_on_c, 9, 68, 103
4, 35857, Note_on_c, 9, 68, 0
4, 35880, Note_on_c, 9, 68, 84
4, 36095, Note_on_c, 9, 68, 0
4, 36480, Note_on_c, 9, 68, 100
4, 36696, Note_on_c, 9, 68, 0
4, 36720, Note_on_c, 9, 68, 100
4, 36936, Note_on_c, 9, 68, 0
4, 37320, Note_on_c, 9, 68, 84
4, 37535, Note_on_c, 9, 68, 0
4, 37560, Note_on_c, 9, 68, 84
4, 37777, Note_on_c, 9, 68, 0
4, 37800, Note_on_c, 9, 68, 100
4, 38017, Note_on_c, 9, 68, 0
4, 38400, Note_on_c, 9, 68, 103
4, 38616, Note_on_c, 9, 68, 0
4, 38640, Note_on_c, 9, 68, 95
4, 38856, Note_on_c, 9, 68, 0
4, 39240, Note_on_c, 9, 68, 84
4, 39457, Note_on_c, 9, 68, 0
4, 39480, Note_on_c, 9, 68, 103
4, 39697, Note_on_c, 9, 68, 0
4, 39720, Note_on_c, 9, 68, 84
4, 39937, Note_on_c, 9, 68, 0
4, 40320, Note_on_c, 9, 68, 100
4, 40536, Note_on_c, 9, 68, 0
4, 40560, Note_on_c, 9, 68, 100
4, 40776, Note_on_c, 9, 68, 0
4, 41160, Note_on_c, 9, 68, 84
4, 41377, Note_on_c, 9, 68, 0
4, 41400, Note_on_c, 9, 68, 84
4, 41615, Note_on_c, 9, 68, 0
4, 41640, Note_on_c, 9, 68, 100
4, 41857, Note_on_c, 9, 68, 0
4, 42240, Note_on_c, 9, 68, 100
4, 42456, Note_on_c, 9, 68, 0
4, 42480, Note_on_c, 9, 68, 100
4, 42696, Note_on_c, 9, 68, 0
4, 43080, Note_on_c, 9, 68, 84
4, 43295, Note_on_c, 9, 68, 0
4, 43320, Note_on_c, 9, 68, 84
4, 43537, Note_on_c, 9, 68, 0
4, 43560, Note_on_c, 9, 68, 100
4, 43777, Note_on_c, 9, 68, 0
4, 44160, Note_on_c, 9, 68, 103
4, 44376, Note_on_c, 9, 68, 0
4, 44400, Note_on_c, 9, 68, 95
4, 44616, Note_on_c, 9, 68, 0
4, 45000, Note_on_c, 9, 68, 84
4, 45217, Note_on_c, 9, 68, 0
4, 45240, Note_on_c, 9, 68, 103
4, 45457, Note_on_c, 9, 68, 0
4, 45480, Note_on_c, 9, 68, 84
4, 45697, Note_on_c, 9, 68, 0
4, 46080, Note_on_c, 9, 68, 100
4, 46296, Note_on_c, 9, 68, 0
4, 46320, Note_on_c, 9, 68, 100
4, 46536, Note_on_c, 9, 68, 0
4, 46920, Note_on_c, 9, 68, 84
4, 47135, Note_on_c, 9, 68, 0
4, 47160, Note_on_c, 9, 68, 84
4, 47377, Note_on_c, 9, 68, 0
4, 47400, Note_on_c, 9, 68, 100
4, 47617, Note_on_c, 9, 68, 0
4, 48000, Note_on_c, 9, 68, 103
4, 48216, Note_on_c, 9, 68, 0
4, 48240, Note_on_c, 9, 68, 95
4, 48456, Note_on_c, 9, 68, 0
4, 48840, Note_on_c, 9, 68, 84
4, 49057, Note_on_c, 9, 68, 0
4, 49080, Note_on_c, 9, 68, 103
4, 49297, Note_on_c, 9, 68, 0
4, 49320, Note_on_c, 9, 68, 84
4, 49537, Note_on_c, 9, 68, 0
4, 49920, Note_on_c, 9, 68, 103
4, 50138, Note_on_c, 9, 68, 0
4, 50160, Note_on_c, 9, 68, 95
4, 50378, Note_on_c, 9, 68, 0
4, 50760, Note_on_c, 9, 68, 84
4, 50977, Note_on_c, 9, 68, 0
4, 51000, Note_on_c, 9, 68, 103
4, 51217, Note_on_c, 9, 68, 0
4, 51240, Note_on_c, 9, 68, 84
4, 51455, Note_on_c, 9, 68, 0
4, 51840, Note_on_c, 9, 68, 100
4, 52056, Note_on_c, 9, 68, 0
4, 52080, Note_on_c, 9, 68, 100
4, 52296, Note_on_c, 9, 68, 0
4, 52680, Note_on_c, 9, 68, 84
4, 52895, Note_on_c, 9, 68, 0
4, 52920, Note_on_c, 9, 68, 84
4, 53137, Note_on_c, 9, 68, 0
4, 53160, Note_on_c, 9, 68, 100
4, 53377, Note_on_c, 9, 68, 0
4, 53760, Note_on_c, 9, 68, 103
4, 53976, Note_on_c, 9, 68, 0
4, 54000, Note_on_c, 9, 68, 95
4, 54216, Note_on_c, 9, 68, 0
4, 54600, Note_on_c, 9, 68, 84
4, 54817, Note_on_c, 9, 68, 0
4, 54840, Note_on_c, 9, 68, 103
4, 55057, Note_on_c, 9, 68, 0
4, 55080, Note_on_c, 9, 68, 84
4, 55297, Note_on_c, 9, 68, 0
4, 55680, Note_on_c, 9, 68, 100
4, 55896, Note_on_c, 9, 68, 0
4, 55920, Note_on_c, 9, 68, 100
4, 56136, Note_on_c, 9, 68, 0
4, 56520, Note_on_c, 9, 68, 84
4, 56737, Note_on_c, 9, 68, 0
4, 56760, Note_on_c, 9, 68, 84
4, 56975, Note_on_c, 9, 68, 0
4, 57000, Note_on_c, 9, 68, 100
4, 57217, Note_on_c, 9, 68, 0
4, 57600, Note_on_c, 9, 68, 100
4, 57816, Note_on_c, 9, 68, 0
4, 57840, Note_on_c, 9, 68, 100
4, 58056, Note_on_c, 9, 68, 0
4, 58440, Note_on_c, 9, 68, 84
4, 58655, Note_on_c, 9, 68, 0
4, 58680, Note_on_c, 9, 68, 84
4, 58897, Note_on_c, 9, 68, 0
4, 58920, Note_on_c, 9, 68, 100
4, 59137, Note_on_c, 9, 68, 0
4, 59520, Note_on_c, 9, 68, 103
4, 59736, Note_on_c, 9, 68, 0
4, 59760, Note_on_c, 9, 68, 95
4, 59976, Note_on_c, 9, 68, 0
4, 60360, Note_on_c, 9, 68, 84
4, 60577, Note_on_c, 9, 68, 0
4, 60600, Note_on_c, 9, 68, 103
4, 60817, Note_on_c, 9, 68, 0
4, 60840, Note_on_c, 9, 68, 84
4, 61057, Note_on_c, 9, 68, 0
4, 61440, Note_on_c, 9, 68, 100
4, 61656, Note_on_c, 9, 68, 0
4, 61680, Note_on_c, 9, 68, 100
4, 61896, Note_on_c, 9, 68, 0
4, 62280, Note_on_c, 9, 68, 84
4, 62495, Note_on_c, 9, 68, 0
4, 62520, Note_on_c, 9, 68, 84
4, 62737, Note_on_c, 9, 68, 0
4, 62760, Note_on_c, 9, 68, 100
4, 62977, Note_on_c, 9, 68, 0
4, 63360, Note_on_c, 9, 68, 103
4, 63576, Note_on_c, 9, 68, 0
4, 63600, Note_on_c, 9, 68, 95
4, 63816, Note_on_c, 9, 68, 0
4, 64200, Note_on_c, 9, 68, 84
4, 64417, Note_on_c, 9, 68, 0
4, 64440, Note_on_c, 9, 68, 103
4, 64657, Note_on_c, 9, 68, 0
4, 64680, Note_on_c, 9, 68, 84
4, 64897, Note_on_c, 9, 68, 0
4, 65280, Note_on_c, 9, 68, 103
4, 65498, Note_on_c, 9, 68, 0
4, 65520, Note_on_c, 9, 68, 95
4, 65738, Note_on_c, 9, 68, 0
4, 66120, Note_on_c, 9, 68, 84
4, 66337, Note_on_c, 9, 68, 0
4, 66360, Note_on_c, 9, 68, 103
4, 66577, Note_on_c, 9, 68, 0
4, 66600, Note_on_c, 9, 68, 84
4, 66815, Note_on_c, 9, 68, 0
4, 67200, Note_on_c, 9, 68, 100
4, 67416, Note_on_c, 9, 68, 0
4, 67440, Note_on_c, 9, 68, 100
4, 67656, Note_on_c, 9, 68, 0
4, 68040, Note_on_c, 9, 68, 84
4, 68255, Note_on_c, 9, 68, 0
4, 68280, Note_on_c, 9, 68, 84
4, 68497, Note_on_c, 9, 68, 0
4, 68520, Note_on_c, 9, 68, 100
4, 68737, Note_on_c, 9, 68, 0
4, 69120, Note_on_c, 9, 68, 103
4, 69336, Note_on_c, 9, 68, 0
4, 69360, Note_on_c, 9, 68, 95
4, 69576, Note_on_c, 9, 68, 0
4, 69960, Note_on_c, 9, 68, 84
4, 70177, Note_on_c, 9, 68, 0
4, 70200, Note_on_c, 9, 68, 103
4, 70417, Note_on_c, 9, 68, 0
4, 70440, Note_on_c, 9, 68, 84
4, 70657, Note_on_c, 9, 68, 0
4, 71040, Note_on_c, 9, 68, 100
4, 71256, Note_on_c, 9, 68, 0
4, 71280, Note_on_c, 9, 68, 100
4, 71496, Note_on_c, 9, 68, 0
4, 71880, Note_on_c, 9, 68, 84
4, 72097, Note_on_c, 9, 68, 0
4, 72120, Note_on_c, 9, 68, 84
4, 72335, Note_on_c, 9, 68, 0
4, 72360, Note_on_c, 9, 68, 100
4, 72577, Note_on_c, 9, 68, 0
4, 72960, Note_on_c, 9, 68, 100
4, 73176, Note_on_c, 9, 68, 0
4, 73200, Note_on_c, 9, 68, 100
4, 73416, Note_on_c, 9, 68, 0
4, 73800, Note_on_c, 9, 68, 84
4, 74015, Note_on_c, 9, 68, 0
4, 74040, Note_on_c, 9, 68, 84
4, 74257, Note_on_c, 9, 68, 0
4, 74280, Note_on_c, 9, 68, 100
4, 74497, Note_on_c, 9, 68, 0
4, 74880, Note_on_c, 9, 68, 103
4, 75096, Note_on_c, 9, 68, 0
4, 75120, Note_on_c, 9, 68, 95
4, 75336, Note_on_c, 9, 68, 0
4, 75720, Note_on_c, 9, 68, 84
4, 75937, Note_on_c, 9, 68, 0
4, 75960, Note_on_c, 9, 68, 103
4, 76177, Note_on_c, 9, 68, 0
4, 76200, Note_on_c, 9, 68, 84
4, 76417, Note_on_c, 9, 68, 0
4, 76800, Note_on_c, 9, 68, 100
4, 77016, Note_on_c, 9, 68, 0
4, 77040, Note_on_c, 9, 68, 100
4, 77256, Note_on_c, 9, 68, 0
4, 77640, Note_on_c, 9, 68, 84
4, 77855, Note_on_c, 9, 68, 0
4, 77880, Note_on_c, 9, 68, 84
4, 78097, Note_on_c, 9, 68, 0
4, 78120, Note_on_c, 9, 68, 100
4, 78337, Note_on_c, 9, 68, 0
4, 78720, Note_on_c, 9, 68, 103
4, 78936, Note_on_c, 9, 68, 0
4, 78960, Note_on_c, 9, 68, 95
4, 79176, Note_on_c, 9, 68, 0
4, 79560, Note_on_c, 9, 68, 84
4, 79777, Note_on_c, 9, 68, 0
4, 79800, Note_on_c, 9, 68, 103
4, 80017, Note_on_c, 9, 68, 0
4, 80040, Note_on_c, 9, 68, 84
4, 80257, Note_on_c, 9, 68, 0
4, 80640, Note_on_c, 9, 68, 103
4, 80858, Note_on_c, 9, 68, 0
4, 80880, Note_on_c, 9, 68, 95
4, 81098, Note_on_c, 9, 68, 0
4, 81480, Note_on_c, 9, 68, 84
4, 81697, Note_on_c, 9, 68, 0
4, 81720, Note_on_c, 9, 68, 103
4, 81937, Note_on_c, 9, 68, 0
4, 81960, Note_on_c, 9, 68, 84
4, 82175, Note_on_c, 9, 68, 0
4, 82560, Note_on_c, 9, 68, 100
4, 82776, Note_on_c, 9, 68, 0
4, 82800, Note_on_c, 9, 68, 100
4, 83016, Note_on_c, 9, 68, 0
4, 83400, Note_on_c, 9, 68, 84
4, 83615, Note_on_c, 9, 68, 0
4, 83640, Note_on_c, 9, 68, 84
4, 83857, Note_on_c, 9, 68, 0
4, 83880, Note_on_c, 9, 68, 100
4, 84097, Note_on_c, 9, 68, 0
4, 84480, Note_on_c, 9, 68, 103
4, 84696, Note_on_c, 9, 68, 0
4, 84720, Note_on_c, 9, 68, 95
4, 84936, Note_on_c, 9, 68, 0
4, 85320, Note_on_c, 9, 68, 84
4, 85537, Note_on_c, 9, 68, 0
4, 85560, Note_on_c, 9, 68, 103
4, 85777, Note_on_c, 9, 68, 0
4, 85800, Note_on_c, 9, 68, 84
4, 86017, Note_on_c, 9, 68, 0
4, 86400, Note_on_c, 9, 68, 100
4, 86616, Note_on_c, 9, 68, 0
4, 86640, Note_on_c, 9, 68, 100
4, 86856, Note_on_c, 9, 68, 0
4, 87240, Note_on_c, 9, 68, 84
4, 87457, Note_on_c, 9, 68, 0
4, 87480, Note_on_c, 9, 68, 84
4, 87695, Note_on_c, 9, 68, 0
4, 87720, Note_on_c, 9, 68, 100
4, 87937, Note_on_c, 9, 68, 0
4, 88320, Note_on_c, 9, 68, 100
4, 88536, Note_on_c, 9, 68, 0
4, 88560, Note_on_c, 9, 68, 100
4, 88776, Note_on_c, 9, 68, 0
4, 89160, Note_on_c, 9, 68, 84
4, 89375, Note_on_c, 9, 68, 0
4, 89400, Note_on_c, 9, 68, 84
4, 89617, Note_on_c, 9, 68, 0
4, 89640, Note_on_c, 9, 68, 100
4, 89857, Note_on_c, 9, 68, 0
4, 90240, Note_on_c, 9, 68, 103
4, 90456, Note_on_c, 9, 68, 0
4, 90480, Note_on_c, 9, 68, 95
4, 90696, Note_on_c, 9, 68, 0
4, 91080, Note_on_c, 9, 68, 84
4, 91297, Note_on_c, 9, 68, 0
4, 91320, Note_on_c, 9, 68, 103
4, 91537, Note_on_c, 9, 68, 0
4, 91560, Note_on_c, 9, 68, 84
4, 91777, Note_on_c, 9, 68, 0
4, 92160, Note_on_c, 9, 68, 100
4, 92376, Note_on_c, 9, 68, 0
4, 92400, Note_on_c, 9, 68, 100
4, 92616, Note_on_c, 9, 68, 0
4, 93000, Note_on_c, 9, 68, 84
4, 93215, Note_on_c, 9, 68, 0
4, 93240, Note_on_c, 9, 68, 84
4, 93457, Note_on_c, 9, 68, 0
4, 93480, Note_on_c, 9, 68, 100
4, 93697, Note_on_c, 9, 68, 0
4, 94080, Note_on_c, 9, 68, 103
4, 94296, Note_on_c, 9, 68, 0
4, 94320, Note_on_c, 9, 68, 95
4, 94536, Note_on_c, 9, 68, 0
4, 94920, Note_on_c, 9, 68, 84
4, 95137, Note_on_c, 9, 68, 0
4, 95160, Note_on_c, 9, 68, 103
4, 95377, Note_on_c, 9, 68, 0
4, 95400, Note_on_c, 9, 68, 84
4, 95617, Note_on_c, 9, 68, 0
4, 96000, Note_on_c, 9, 68, 103
4, 96218, Note_on_c, 9, 68, 0
4, 96240, Note_on_c, 9, 68, 95
4, 96458, Note_on_c, 9, 68, 0
4, 96840, Note_on_c, 9, 68, 84
4, 97057, Note_on_c, 9, 68, 0
4, 97080, Note_on_c, 9, 68, 103
4, 97297, Note_on_c, 9, 68, 0
4, 97320, Note_on_c, 9, 68, 84
4, 97535, Note_on_c, 9, 68, 0
4, 97920, Note_on_c, 9, 68, 100
4, 98136, Note_on_c, 9, 68, 0
4, 98160, Note_on_c, 9, 68, 100
4, 98376, Note_on_c, 9, 68, 0
4, 98760, Note_on_c, 9, 68, 84
4, 98975, Note_on_c, 9, 68, 0
4, 99000, Note_on_c, 9, 68, 84
4, 99217, Note_on_c, 9, 68, 0
4, 99240, Note_on_c, 9, 68, 100
4, 99457, Note_on_c, 9, 68, 0
4, 99840, Note_on_c, 9, 68, 103
4, 100056, Note_on_c, 9, 68, 0
4, 100080, Note_on_c, 9, 68, 95
4, 100296, Note_on_c, 9, 68, 0
4, 100680, Note_on_c, 9, 68, 84
4, 100897, Note_on_c, 9, 68, 0
4, 100920, Note_on_c, 9, 68, 103
4, 101137, Note_on_c, 9, 68, 0
4, 101160, Note_on_c, 9, 68, 84
4, 101377, Note_on_c, 9, 68, 0
4, 101760, Note_on_c, 9, 68, 100
4, 101976, Note_on_c, 9, 68, 0
4, 102000, Note_on_c, 9, 68, 100
4, 102216, Note_on_c, 9, 68, 0
4, 102600, Note_on_c, 9, 68, 84
4, 102817, Note_on_c, 9, 68, 0
4, 102840, Note_on_c, 9, 68, 84
4, 103055, Note_on_c, 9, 68, 0
4, 103080, Note_on_c, 9, 68, 100
4, 103297, Note_on_c, 9, 68, 0
4, 103680, Note_on_c, 9, 68, 100
4, 103896, Note_on_c, 9, 68, 0
4, 103920, Note_on_c, 9, 68, 100
4, 104136, Note_on_c, 9, 68, 0
4, 104520, Note_on_c, 9, 68, 84
4, 104735, Note_on_c, 9, 68, 0
4, 104760, Note_on_c, 9, 68, 84
4, 104977, Note_on_c, 9, 68, 0
4, 105000, Note_on_c, 9, 68, 100
4, 105217, Note_on_c, 9, 68, 0
4, 105600, Note_on_c, 9, 68, 103
4, 105816, Note_on_c, 9, 68, 0
4, 105840, Note_on_c, 9, 68, 95
4, 106056, Note_on_c, 9, 68, 0
4, 106440, Note_on_c, 9, 68, 84
4, 106657, Note_on_c, 9, 68, 0
4, 106680, Note_on_c, 9, 68, 103
4, 106897, Note_on_c, 9, 68, 0
4, 106920, Note_on_c, 9, 68, 84
4, 107137, Note_on_c, 9, 68, 0
4, 107520, Note_on_c, 9, 68, 100
4, 107736, Note_on_c, 9, 68, 0
4, 107760, Note_on_c, 9, 68, 100
4, 107976, Note_on_c, 9, 68, 0
4, 108360, Note_on_c, 9, 68, 84
4, 108575, Note_on_c, 9, 68, 0
4, 108600, Note_on_c, 9, 68, 84
4, 108817, Note_on_c, 9, 68, 0
4, 108840, Note_on_c, 9, 68, 100
4, 109057, Note_on_c, 9, 68, 0
4, 109440, Note_on_c, 9, 68, 103
4, 109656, Note_on_c, 9, 68, 0
4, 109680, Note_on_c, 9, 68, 95
4, 109896, Note_on_c, 9, 68, 0
4, 110280, Note_on_c, 9, 68, 84
4, 110497, Note_on_c, 9, 68, 0
4, 110520, Note_on_c, 9, 68, 103
4, 110737, Note_on_c, 9, 68, 0
4, 110760, Note_on_c, 9, 68, 84
4, 110977, Note_on_c, 9, 68, 0
4, 111360, Note_on_c, 9, 68, 103
4, 111578, Note_on_c, 9, 68, 0
4, 111600, Note_on_c, 9, 68, 95
4, 111818, Note_on_c, 9, 68, 0
4, 112200, Note_on_c, 9, 68, 84
4, 112417, Note_on_c, 9, 68, 0
4, 112440, Note_on_c, 9, 68, 103
4, 112657, Note_on_c, 9, 68, 0
4, 112680, Note_on_c, 9, 68, 84
4, 112895, Note_on_c, 9, 68, 0
4, 113280, Note_on_c, 9, 68, 100
4, 113496, Note_on_c, 9, 68, 0
4, 113520, Note_on_c, 9, 68, 100
4, 113736, Note_on_c, 9, 68, 0
4, 114120, Note_on_c, 9, 68, 84
4, 114335, Note_on_c, 9, 68, 0
4, 114360, Note_on_c, 9, 68, 84
4, 114577, Note_on_c, 9, 68, 0
4, 114600, Note_on_c, 9, 68, 100
4, 114817, Note_on_c, 9, 68, 0
4, 115200, Note_on_c, 9, 68, 103
4, 115416, Note_on_c, 9, 68, 0
4, 115440, Note_on_c, 9, 68, 95
4, 115656, Note_on_c, 9, 68, 0
4, 116040, Note_on_c, 9, 68, 84
4, 116257, Note_on_c, 9, 68, 0
4, 116280, Note_on_c, 9, 68, 103
4, 116497, Note_on_c, 9, 68, 0
4, 116520, Note_on_c, 9, 68, 84
4, 116737, Note_on_c, 9, 68, 0
4, 117120, Note_on_c, 9, 68, 100
4, 117336, Note_on_c, 9, 68, 0
4, 117360, Note_on_c, 9, 68, 100
4, 117576, Note_on_c, 9, 68, 0
4, 117960, Note_on_c, 9, 68, 84
4, 118177, Note_on_c, 9, 68, 0
4, 118200, Note_on_c, 9, 68, 84
4, 118415, Note_on_c, 9, 68, 0
4, 118440, Note_on_c, 9, 68, 100
4, 118657, Note_on_c, 9, 68, 0
4, 119040, Note_on_c, 9, 68, 100
4, 119256, Note_on_c, 9, 68, 0
4, 119280, Note_on_c, 9, 68, 100
4, 119496, Note_on_c, 9, 68, 0
4, 119880, Note_on_c, 9, 68, 84
4, 120095, Note_on_c, 9, 68, 0
4, 120120, Note_on_c, 9, 68, 84
4, 120337, Note_on_c, 9, 68, 0
4, 120360, Note_on_c, 9, 68, 100
4, 120577, Note_on_c, 9, 68, 0
4, 120960, Note_on_c, 9, 68, 103
4, 121176, Note_on_c, 9, 68, 0
4, 121200, Note_on_c, 9, 68, 95
4, 121416, Note_on_c, 9, 68, 0
4, 121800, Note_on_c, 9, 68, 84
4, 122017, Note_on_c, 9, 68, 0
4, 122040, Note_on_c, 9, 68, 103
4, 122257, Note_on_c, 9, 68, 0
4, 122280, Note_on_c, 9, 68, 84
4, 122497, Note_on_c, 9, 68, 0
4, 122880, Note_on_c, 9, 68, 100
4, 123096, Note_on_c, 9, 68, 0
4, 123120, Note_on_c, 9, 68, 100
4, 123336, Note_on_c, 9, 68, 0
4, 123720, Note_on_c, 9, 68, 84
4, 123935, Note_on_c, 9, 68, 0
4, 123960, Note_on_c, 9, 68, 84
4, 124177, Note_on_c, 9, 68, 0
4, 124200, Note_on_c, 9, 68, 100
4, 124417, Note_on_c, 9, 68, 0
4, 124800, Note_on_c, 9, 68, 103
4, 125016, Note_on_c, 9, 68, 0
4, 125040, Note_on_c, 9, 68, 95
4, 125256, Note_on_c, 9, 68, 0
4, 125640, Note_on_c, 9, 68, 84
4, 125857, Note_on_c, 9, 68, 0
4, 125880, Note_on_c, 9, 68, 103
4, 126097, Note_on_c, 9, 68, 0
4, 126120, Note_on_c, 9, 68, 84
4, 126337, Note_on_c, 9, 68, 0
4, 126720, Note_on_c, 9, 68, 103
4, 126938, Note_on_c, 9, 68, 0
4, 126960, Note_on_c, 9, 68, 95
4, 127178, Note_on_c, 9, 68, 0
4, 127560, Note_on_c, 9, 68, 84
4, 127777, Note_on_c, 9, 68, 0
4, 127800, Note_on_c, 9, 68, 103
4, 128017, Note_on_c, 9, 68, 0
4, 128040, Note_on_c, 9, 68, 84
4, 128255, Note_on_c, 9, 68, 0
4, 128640, Note_on_c, 9, 68, 100
4, 128856, Note_on_c, 9, 68, 0
4, 128880, Note_on_c, 9, 68, 100
4, 129096, Note_on_c, 9, 68, 0
4, 129480, Note_on_c, 9, 68, 84
4, 129695, Note_on_c, 9, 68, 0
4, 129720, Note_on_c, 9, 68, 84
4, 129937, Note_on_c, 9, 68, 0
4, 129960, Note_on_c, 9, 68, 100
4, 130177, Note_on_c, 9, 68, 0
4, 130560, Note_on_c, 9, 68, 103
4, 130776, Note_on_c, 9, 68, 0
4, 130800, Note_on_c, 9, 68, 95
4, 131016, Note_on_c, 9, 68, 0
4, 131400, Note_on_c, 9, 68, 84
4, 131617, Note_on_c, 9, 68, 0
4, 131640, Note_on_c, 9, 68, 103
4, 131857, Note_on_c, 9, 68, 0
4, 131880, Note_on_c, 9, 68, 84
4, 132097, Note_on_c, 9, 68, 0
4, 132480, Note_on_c, 9, 68, 100
4, 132696, Note_on_c, 9, 68, 0
4, 132720, Note_on_c, 9, 68, 100
4, 132936, Note_on_c, 9, 68, 0
4, 133320, Note_on_c, 9, 68, 84
4, 133537, Note_on_c, 9, 68, 0
4, 133560, Note_on_c, 9, 68, 84
4, 133775, Note_on_c, 9, 68, 0
4, 133800, Note_on_c, 9, 68, 100
4, 134017, Note_on_c, 9, 68, 0
4, 134400, Note_on_c, 9, 68, 100
4, 134616, Note_on_c, 9, 68, 0
4, 134640, Note_on_c, 9, 68, 100
4, 134856, Note_on_c, 9, 68, 0
4, 135240, Note_on_c, 9, 68, 84
4, 135455, Note_on_c, 9, 68, 0
4, 135480, Note_on_c, 9, 68, 84
4, 135697, Note_on_c, 9, 68, 0
4, 135720, Note_on_c, 9, 68, 100
4, 135937, Note_on_c, 9, 68, 0
4, 136320, Note_on_c, 9, 68, 103
4, 136536, Note_on_c, 9, 68, 0
4, 136560, Note_on_c, 9, 68, 95
4, 136776, Note_on_c, 9, 68, 0
4, 137160, Note_on_c, 9, 68, 84
4, 137377, Note_on_c, 9, 68, 0
4, 137400, Note_on_c, 9, 68, 103
4, 137617, Note_on_c, 9, 68, 0
4, 137640, Note_on_c, 9, 68, 84
4, 137857, Note_on_c, 9, 68, 0
4, 138240, Note_on_c, 9, 68, 100
4, 138456, Note_on_c, 9, 68, 0
4, 138480, Note_on_c, 9, 68, 100
4, 138696, Note_on_c, 9, 68, 0
4, 139080, Note_on_c, 9, 68, 84
4, 139295, Note_on_c, 9, 68, 0
4, 139320, Note_on_c, 9, 68, 84
4, 139537, Note_on_c, 9, 68, 0
4, 139560, Note_on_c, 9, 68, 100
4, 139777, Note_on_c, 9, 68, 0
4, 140160, Note_on_c, 9, 68, 103
4, 140376, Note_on_c, 9, 68, 0
4, 140400, Note_on_c, 9, 68, 95
4, 140616, Note_on_c, 9, 68, 0
4, 141000, Note_on_c, 9, 68, 84
4, 141217, Note_on_c, 9, 68, 0
4, 141240, Note_on_c, 9, 68, 103
4, 141457, Note_on_c, 9, 68, 0
4, 141480, Note_on_c, 9, 68, 84
4, 141697, Note_on_c, 9, 68, 0
4, 142080, Note_on_c, 9, 68, 103
4, 142298, Note_on_c, 9, 68, 0
4, 142320, Note_on_c, 9, 68, 95
4, 142538, Note_on_c, 9, 68, 0
4, 142920, Note_on_c, 9, 68, 84
4, 143137, Note_on_c, 9, 68, 0
4, 143160, Note_on_c, 9, 68, 103
4, 143377, Note_on_c, 9, 68, 0
4, 143400, Note_on_c, 9, 68, 84
4, 143615, Note_on_c, 9, 68, 0
4, 144000, Note_on_c, 9, 68, 100
4, 144216, Note_on_c, 9, 68, 0
4, 144240, Note_on_c, 9, 68, 100
4, 144456, Note_on_c, 9, 68, 0
4, 144840, Note_on_c, 9, 68, 84
4, 145055, Note_on_c, 9, 68, 0
4, 145080, Note_on_c, 9, 68, 84
4, 145297, Note_on_c, 9, 68, 0
4, 145320, Note_on_c, 9, 68, 100
4, 145537, Note_on_c, 9, 68, 0
4, 145920, Note_on_c, 9, 68, 103
4, 146136, Note_on_c, 9, 68, 0
4, 146160, Note_on_c, 9, 68, 95
4, 146376, Note_on_c, 9, 68, 0
4, 146760, Note_on_c, 9, 68, 84
4, 146977, Note_on_c, 9, 68, 0
4, 147000, Note_on_c, 9, 68, 103
4, 147217, Note_on_c, 9, 68, 0
4, 147240, Note_on_c, 9, 68, 84
4, 147457, Note_on_c, 9, 68, 0
4, 147840, Note_on_c, 9, 68, 100
4, 148056, Note_on_c, 9, 68, 0
4, 148080, Note_on_c, 9, 68, 100
4, 148296, Note_on_c, 9, 68, 0
4, 148680, Note_on_c, 9, 68, 84
4, 148897, Note_on_c, 9, 68, 0
4, 148920, Note_on_c, 9, 68, 84
4, 149135, Note_on_c, 9, 68, 0
4, 149160, Note_on_c, 9, 68, 100
4, 149377, Note_on_c, 9, 68, 0
4, 149760, Note_on_c, 9, 68, 100
4, 149976, Note_on_c, 9, 68, 0
4, 150000, Note_on_c, 9, 68, 100
4, 150216, Note_on_c, 9, 68, 0
4, 150600, Note_on_c, 9, 68, 84
4, 150815, Note_on_c, 9, 68, 0
4, 150840, Note_on_c, 9, 68, 84
4, 151057, Note_on_c, 9, 68, 0
4, 151080, Note_on_c, 9, 68, 100
4, 151297, Note_on_c, 9, 68, 0
4, 151680, Note_on_c, 9, 68, 103
4, 151896, Note_on_c, 9, 68, 0
4, 151920, Note_on_c, 9, 68, 95
4, 152136, Note_on_c, 9, 68, 0
4, 152520, Note_on_c, 9, 68, 84
4, 152737, Note_on_c, 9, 68, 0
4, 152760, Note_on_c, 9, 68, 103
4, 152977, Note_on_c, 9, 68, 0
4, 153000, Note_on_c, 9, 68, 84
4, 153217, Note_on_c, 9, 68, 0
4, 153600, Note_on_c, 9, 68, 100
4, 153816, Note_on_c, 9, 68, 0
4, 153840, Note_on_c, 9, 68, 100
4, 154056, Note_on_c, 9, 68, 0
4, 154440, Note_on_c, 9, 68, 84
4, 154655, Note_on_c, 9, 68, 0
4, 154680, Note_on_c, 9, 68, 84
4, 154897, Note_on_c, 9, 68, 0
4, 154920, Note_on_c, 9, 68, 100
4, 155137, Note_on_c, 9, 68, 0
4, 155520, Note_on_c, 9, 68, 103
4, 155736, Note_on_c, 9, 68, 0
4, 155760, Note_on_c, 9, 68, 95
4, 155976, Note_on_c, 9, 68, 0
4, 156360, Note_on_c, 9, 68, 84
4, 156577, Note_on_c, 9, 68, 0
4, 156600, Note_on_c, 9, 68, 103
4, 156817, Note_on_c, 9, 68, 0
4, 156840, Note_on_c, 9, 68, 84
4, 157057, Note_on_c, 9, 68, 0
4, 157440, Note_on_c, 9, 68, 103
4, 157658, Note_on_c, 9, 68, 0
4, 157680, Note_on_c, 9, 68, 95
4, 157898, Note_on_c, 9, 68, 0
4, 158280, Note_on_c, 9, 68, 84
4, 158497, Note_on_c, 9, 68, 0
4, 158520, Note_on_c, 9, 68, 103
4, 158737, Note_on_c, 9, 68, 0
4, 158760, Note_on_c, 9, 68, 84
4, 158975, Note_on_c, 9, 68, 0
4, 159360, Note_on_c, 9, 68, 100
4, 159576, Note_on_c, 9, 68, 0
4, 159600, Note_on_c, 9, 68, 100
4, 159816, Note_on_c, 9, 68, 0
4, 160200, Note_on_c, 9, 68, 84
4, 160415, Note_on_c, 9, 68, 0
4, 160440, Note_on_c, 9, 68, 84
4, 160657, Note_on_c, 9, 68, 0
4, 160680, Note_on_c, 9, 68, 100
4, 160897, Note_on_c, 9, 68, 0
4, 161280, Note_on_c, 9, 68, 103
4, 161496, Note_on_c, 9, 68, 0
4, 161520, Note_on_c, 9, 68, 95
4, 161736, Note_on_c, 9, 68, 0
4, 162120, Note_on_c, 9, 68, 84
4, 162337, Note_on_c, 9, 68, 0
4, 162360, Note_on_c, 9, 68, 103
4, 162577, Note_on_c, 9, 68, 0
4, 162600, Note_on_c, 9, 68, 84
4, 162817, Note_on_c, 9, 68, 0
4, 163200, Note_on_c, 9, 68, 100
4, 163416, Note_on_c, 9, 68, 0
4, 163440, Note_on_c, 9, 68, 100
4, 163656, Note_on_c, 9, 68, 0
4, 164040, Note_on_c, 9, 68, 84
4, 164257, Note_on_c, 9, 68, 0
4, 164280, Note_on_c, 9, 68, 84
4, 164495, Note_on_c, 9, 68, 0
4, 164520, Note_on_c, 9, 68, 100
4, 164737, Note_on_c, 9, 68, 0
4, 165120, Note_on_c, 9, 68, 100
4, 165336, Note_on_c, 9, 68, 0
4, 165360, Note_on_c, 9, 68, 100
4, 165576, Note_on_c, 9, 68, 0
4, 165960, Note_on_c, 9, 68, 84
4, 166175, Note_on_c, 9, 68, 0
4, 166200, Note_on_c, 9, 68, 84
4, 166417, Note_on_c, 9, 68, 0
4, 166440, Note_on_c, 9, 68, 100
4, 166657, Note_on_c, 9, 68, 0
4, 167040, Note_on_c, 9, 68, 103
4, 167256, Note_on_c, 9, 68, 0
4, 167280, Note_on_c, 9, 68, 95
4, 167496, Note_on_c, 9, 68, 0
4, 167880, Note_on_c, 9, 68, 84
4, 168097, Note_on_c, 9, 68, 0
4, 168120, Note_on_c, 9, 68, 103
4, 168337, Note_on_c, 9, 68, 0
4, 168360, Note_on_c, 9, 68, 84
4, 168577, Note_on_c, 9, 68, 0
4, 168960, Note_on_c, 9, 68, 100
4, 169176, Note_on_c, 9, 68, 0
4, 169200, Note_on_c, 9, 68, 100
4, 169416, Note_on_c, 9, 68, 0
4, 169800, Note_on_c, 9, 68, 84
4, 170015, Note_on_c, 9, 68, 0
4, 170040, Note_on_c, 9, 68, 84
4, 170257, Note_on_c, 9, 68, 0
4, 170280, Note_on_c, 9, 68, 100
4, 170497, Note_on_c, 9, 68, 0
4, 170880, Note_on_c, 9, 68, 103
4, 171096, Note_on_c, 9, 68, 0
4, 171120, Note_on_c, 9, 68, 95
4, 171336, Note_on_c, 9, 68, 0
4, 171720, Note_on_c, 9, 68, 84
4, 171937, Note_on_c, 9, 68, 0
4, 171960, Note_on_c, 9, 68, 103
4, 172177, Note_on_c, 9, 68, 0
4, 172200, Note_on_c, 9, 68, 84
4, 172417, Note_on_c, 9, 68, 0
4, 172800, Note_on_c, 9, 68, 103
4, 173018, Note_on_c, 9, 68, 0
4, 173040, Note_on_c, 9, 68, 95
4, 173258, Note_on_c, 9, 68, 0
4, 173640, Note_on_c, 9, 68, 84
4, 173857, Note_on_c, 9, 68, 0
4, 173880, Note_on_c, 9, 68, 103
4, 174097, Note_on_c, 9, 68, 0
4, 174120, Note_on_c, 9, 68, 84
4, 174335, Note_on_c, 9, 68, 0
4, 174720, Note_on_c, 9, 68, 100
4, 174936, Note_on_c, 9, 68, 0
4, 174960, Note_on_c, 9, 68, 100
4, 175176, Note_on_c, 9, 68, 0
4, 175560, Note_on_c, 9, 68, 84
4, 175775, Note_on_c, 9, 68, 0
4, 175800, Note_on_c, 9, 68, 84
4, 176017, Note_on_c, 9, 68, 0
4, 176040, Note_on_c, 9, 68, 100
4, 176257, Note_on_c, 9, 68, 0
4, 176640, Note_on_c, 9, 68, 103
4, 176856, Note_on_c, 9, 68, 0
4, 176880, Note_on_c, 9, 68, 95
4, 177096, Note_on_c, 9, 68, 0
4, 177480, Note_on_c, 9, 68, 84
4, 177697, Note_on_c, 9, 68, 0
4, 177720, Note_on_c, 9, 68, 103
4, 177937, Note_on_c, 9, 68, 0
4, 177960, Note_on_c, 9, 68, 84
4, 178177, Note_on_c, 9, 68, 0
4, 178560, Note_on_c, 9, 68, 100
4, 178776, Note_on_c, 9, 68, 0
4, 178800, Note_on_c, 9, 68, 100
4, 179016, Note_on_c, 9, 68, 0
4, 179400, Note_on_c, 9, 68, 84
4, 179617, Note_on_c, 9, 68, 0
4, 179640, Note_on_c, 9, 68, 84
4, 179855, Note_on_c, 9, 68, 0
4, 179880, Note_on_c, 9, 68, 100
4, 180097, Note_on_c, 9, 68, 0
4, 180480, Note_on_c, 9, 68, 100
4, 180696, Note_on_c, 9, 68, 0
4, 180720, Note_on_c, 9, 68, 100
4, 180936, Note_on_c, 9, 68, 0
4, 181320, Note_on_c, 9, 68, 84
4, 181535, Note_on_c, 9, 68, 0
4, 181560, Note_on_c, 9, 68, 84
4, 181777, Note_on_c, 9, 68, 0
4, 181800, Note_on_c, 9, 68, 100
4, 182017, Note_on_c, 9, 68, 0
4, 182400, Note_on_c, 9, 68, 103
4, 182616, Note_on_c, 9, 68, 0
4, 182640, Note_on_c, 9, 68, 95
4, 182856, Note_on_c, 9, 68, 0
4, 183240, Note_on_c, 9, 68, 84
4, 183457, Note_on_c, 9, 68, 0
4, 183480, Note_on_c, 9, 68, 103
4, 183697, Note_on_c, 9, 68, 0
4, 183720, Note_on_c, 9, 68, 84
4, 183937, Note_on_c, 9, 68, 0
4, 184320, Note_on_c, 9, 68, 100
4, 184536, Note_on_c, 9, 68, 0
4, 184560, Note_on_c, 9, 68, 100
4, 184776, Note_on_c, 9, 68, 0
4, 185160, Note_on_c, 9, 68, 84
4, 185375, Note_on_c, 9, 68, 0
4, 185400, Note_on_c, 9, 68, 84
4, 185617, Note_on_c, 9, 68, 0
4, 185640, Note_on_c, 9, 68, 100
4, 185857, Note_on_c, 9, 68, 0
4, 186240, Note_on_c, 9, 68, 103
4, 186456, Note_on_c, 9, 68, 0
4, 186480, Note_on_c, 9, 68, 95
4, 186696, Note_on_c, 9, 68, 0
4, 187080, Note_on_c, 9, 68, 84
4, 187297, Note_on_c, 9, 68, 0
4, 187320, Note_on_c, 9, 68, 103
4, 187537, Note_on_c, 9, 68, 0
4, 187560, Note_on_c, 9, 68, 84
4, 187777, Note_on_c, 9, 68, 0
4, 188160, Note_on_c, 9, 68, 103
4, 188378, Note_on_c, 9, 68, 0
4, 188400, Note_on_c, 9, 68, 95
4, 188618, Note_on_c, 9, 68, 0
4, 189000, Note_on_c, 9, 68, 84
4, 189217, Note_on_c, 9, 68, 0
4, 189240, Note_on_c, 9, 68, 103
4, 189457, Note_on_c, 9, 68, 0
4, 189480, Note_on_c, 9, 68, 84
4, 189695, Note_on_c, 9, 68, 0
4, 190080, Note_on_c, 9, 68, 100
4, 190296, Note_on_c, 9, 68, 0
4, 190320, Note_on_c, 9, 68, 100
4, 190536, Note_on_c, 9, 68, 0
4, 190920, Note_on_c, 9, 68, 84
4, 191135, Note_on_c, 9, 68, 0
4, 191160, Note_on_c, 9, 68, 84
4, 191377, Note_on_c, 9, 68, 0
4, 191400, Note_on_c, 9, 68, 100
4, 191617, Note_on_c, 9, 68, 0
4, 192000, Note_on_c, 9, 68, 103
4, 192216, Note_on_c, 9, 68, 0
4, 192240, Note_on_c, 9, 68, 95
4, 192456, Note_on_c, 9, 68, 0
4, 192840, Note_on_c, 9, 68, 84
4, 193057, Note_on_c, 9, 68, 0
4, 193080, Note_on_c, 9, 68, 103
4, 193297, Note_on_c, 9, 68, 0
4, 193320, Note_on_c, 9, 68, 84
4, 193537, Note_on_c, 9, 68, 0
4, 193920, Note_on_c, 9, 68, 100
4, 194136, Note_on_c, 9, 68, 0
4, 194160, Note_on_c, 9, 68, 100
4, 194376, Note_on_c, 9, 68, 0
4, 194760, Note_on_c, 9, 68, 84
4, 194977, Note_on_c, 9, 68, 0
4, 195000, Note_on_c, 9, 68, 84
4, 195215, Note_on_c, 9, 68, 0
4, 195240, Note_on_c, 9, 68, 100
4, 195457, Note_on_c, 9, 68, 0
4, 195840, Note_on_c, 9, 68, 100
4, 196056, Note_on_c, 9, 68, 0
4, 196080, Note_on_c, 9, 68, 100
4, 196296, Note_on_c, 9, 68, 0
4, 196680, Note_on_c, 9, 68, 84
4, 196895, Note_on_c, 9, 68, 0
4, 196920, Note_on_c, 9, 68, 84
4, 197137, Note_on_c, 9, 68, 0
4, 197160, Note_on_c, 9, 68, 100
4, 197377, Note_on_c, 9, 68, 0
4, 197760, Note_on_c, 9, 68, 103
4, 197976, Note_on_c, 9, 68, 0
4, 198000, Note_on_c, 9, 68, 95
4, 198216, Note_on_c, 9, 68, 0
4, 198600, Note_on_c, 9, 68, 84
4, 198817, Note_on_c, 9, 68, 0
4, 198840, Note_on_c, 9, 68, 103
4, 199057, Note_on_c, 9, 68, 0
4, 199080, Note_on_c, 9, 68, 84
4, 199297, Note_on_c, 9, 68, 0
4, 199680, Note_on_c, 9, 68, 100
4, 199896, Note_on_c, 9, 68, 0
4, 199920, Note_on_c, 9, 68, 100
4, 200136, Note_on_c, 9, 68, 0
4, 200520, Note_on_c, 9, 68, 84
4, 200735, Note_on_c, 9, 68, 0
4, 200760, Note_on_c, 9, 68, 84
4, 200977, Note_on_c, 9, 68, 0
4, 201000, Note_on_c, 9, 68, 100
4, 201217, Note_on_c, 9, 68, 0
4, 201600, Note_on_c, 9, 68, 103
4, 201816, Note_on_c, 9, 68, 0
4, 201840, Note_on_c, 9, 68, 95
4, 202056, Note_on_c, 9, 68, 0
4, 202440, Note_on_c, 9, 68, 84
4, 202657, Note_on_c, 9, 68, 0
4, 202680, Note_on_c, 9, 68, 103
4, 202897, Note_on_c, 9, 68, 0
4, 202920, Note_on_c, 9, 68, 84
4, 203137, Note_on_c, 9, 68, 0
4, 203520, Note_on_c, 9, 68, 103
4, 203738, Note_on_c, 9, 68, 0
4, 203760, Note_on_c, 9, 68, 95
4, 203978, Note_on_c, 9, 68, 0
4, 204360, Note_on_c, 9, 68, 84
4, 204577, Note_on_c, 9, 68, 0
4, 204600, Note_on_c, 9, 68, 103
4, 204817, Note_on_c, 9, 68, 0
4, 204840, Note_on_c, 9, 68, 84
4, 205055, Note_on_c, 9, 68, 0
4, 205440, Note_on_c, 9, 68, 100
4, 205656, Note_on_c, 9, 68, 0
4, 205680, Note_on_c, 9, 68, 100
4, 205896, Note_on_c, 9, 68, 0
4, 206280, Note_on_c, 9, 68, 84
4, 206495, Note_on_c, 9, 68, 0
4, 206520, Note_on_c, 9, 68, 84
4, 206737, Note_on_c, 9, 68, 0
4, 206760, Note_on_c, 9, 68, 100
4, 206977, Note_on_c, 9, 68, 0
4, 207360, Note_on_c, 9, 68, 103
4, 207576, Note_on_c, 9, 68, 0
4, 207600, Note_on_c, 9, 68, 95
4, 207816, Note_on_c, 9, 68, 0
4, 208200, Note_on_c, 9, 68, 84
4, 208417, Note_on_c, 9, 68, 0
4, 208440, Note_on_c, 9, 68, 103
4, 208657, Note_on_c, 9, 68, 0
4, 208680, Note_on_c, 9, 68, 84
4, 208897, Note_on_c, 9, 68, 0
4, 209280, Note_on_c, 9, 68, 100
4, 209496, Note_on_c, 9, 68, 0
4, 209520, Note_on_c, 9, 68, 100
4, 209736, Note_on_c, 9, 68, 0
4, 210120, Note_on_c, 9, 68, 84
4, 210337, Note_on_c, 9, 68, 0
4, 210360, Note_on_c, 9, 68, 84
4, 210575, Note_on_c, 9, 68, 0
4, 210600, Note_on_c, 9, 68, 100
4, 210817, Note_on_c, 9, 68, 0
4, 211200, Note_on_c, 9, 68, 100
4, 211416, Note_on_c, 9, 68, 0
4, 211440, Note_on_c, 9, 68, 100
4, 211656, Note_on_c, 9, 68, 0
4, 212040, Note_on_c, 9, 68, 84
4, 212255, Note_on_c, 9, 68, 0
4, 212280, Note_on_c, 9, 68, 84
4, 212497, Note_on_c, 9, 68, 0
4, 212520, Note_on_c, 9, 68, 100
4, 212737, Note_on_c, 9, 68, 0
4, 213120, Note_on_c, 9, 68, 103
4, 213336, Note_on_c, 9, 68, 0
4, 213360, Note_on_c, 9, 68, 95
4, 213576, Note_on_c, 9, 68, 0
4, 213960, Note_on_c, 9, 68, 84
4, 214177, Note_on_c, 9, 68, 0
4, 214200, Note_on_c, 9, 68, 103
4, 214417, Note_on_c, 9, 68, 0
4, 214440, Note_on_c, 9, 68, 84
4, 214657, Note_on_c, 9, 68, 0
4, 215040, Note_on_c, 9, 68, 100
4, 215256, Note_on_c, 9, 68, 0
4, 215280, Note_on_c, 9, 68, 100
4, 215496, Note_on_c, 9, 68, 0
4, 215880, Note_on_c, 9, 68, 84
4, 216095, Note_on_c, 9, 68, 0
4, 216120, Note_on_c, 9, 68, 84
4, 216337, Note_on_c, 9, 68, 0
4, 216360, Note_on_c, 9, 68, 100
4, 216577, Note_on_c, 9, 68, 0
4, 216960, Note_on_c, 9, 68, 103
4, 217176, Note_on_c, 9, 68, 0
4, 217200, Note_on_c, 9, 68, 95
4, 217416, Note_on_c, 9, 68, 0
4, 217800, Note_on_c, 9, 68, 84
4, 218017, Note_on_c, 9, 68, 0
4, 218040, Note_on_c, 9, 68, 103
4, 218257, Note_on_c, 9, 68, 0
4, 218280, Note_on_c, 9, 68, 84
4, 218497, Note_on_c, 9, 68, 0
4, 218880, Note_on_c, 9, 68, 103
4, 219098, Note_on_c, 9, 68, 0
4, 219120, Note_on_c, 9, 68, 95
4, 219338, Note_on_c, 9, 68, 0
4, 219720, Note_on_c, 9, 68, 84
4, 219937, Note_on_c, 9, 68, 0
4, 219960, Note_on_c, 9, 68, 103
4, 220177, Note_on_c, 9, 68, 0
4, 220200, Note_on_c, 9, 68, 84
4, 220415, Note_on_c, 9, 68, 0
4, 220800, Note_on_c, 9, 68, 100
4, 221016, Note_on_c, 9, 68, 0
4, 221040, Note_on_c, 9, 68, 100
4, 221256, Note_on_c, 9, 68, 0
4, 221640, Note_on_c, 9, 68, 84
4, 221855, Note_on_c, 9, 68, 0
4, 221880, Note_on_c, 9, 68, 84
4, 222097, Note_on_c, 9, 68, 0
4, 222120, Note_on_c, 9, 68, 100
4, 222337, Note_on_c, 9, 68, 0
4, 222720, Note_on_c, 9, 68, 103
4, 222936, Note_on_c, 9, 68, 0
4, 222960, Note_on_c, 9, 68, 95
4, 223176, Note_on_c, 9, 68, 0
4, 223560, Note_on_c, 9, 68, 84
4, 223777, Note_on_c, 9, 68, 0
4, 223800, Note_on_c, 9, 68, 103
4, 224017, Note_on_c, 9, 68, 0
4, 224040, Note_on_c, 9, 68, 84
4, 224257, Note_on_c, 9, 68, 0
4, 224640, Note_on_c, 9, 68, 100
4, 224856, Note_on_c, 9, 68, 0
4, 224880, Note_on_c, 9, 68, 100
4, 225096, Note_on_c, 9, 68, 0
4, 225480, Note_on_c, 9, 68, 84
4, 225697, Note_on_c, 9, 68, 0
4, 225720, Note_on_c, 9, 68, 84
4, 225935, Note_on_c, 9, 68, 0
4, 225960, Note_on_c, 9, 68, 100
4, 226177, Note_on_c, 9, 68, 0
4, 226560, Note_on_c, 9, 68, 100
4, 226776, Note_on_c, 9, 68, 0
4, 226800, Note_on_c, 9, 68, 100
4, 227016, Note_on_c, 9, 68, 0
4, 227400, Note_on_c, 9, 68, 84
4, 227615, Note_on_c, 9, 68, 0
4, 227640, Note_on_c, 9, 68, 84
4, 227857, Note_on_c, 9, 68, 0
4, 227880, Note_on_c, 9, 68, 100
4, 228097, Note_on_c, 9, 68, 0
4, 228480, Note_on_c, 9, 68, 103
4, 228696, Note_on_c, 9, 68, 0
4, 228720, Note_on_c, 9, 68, 95
4, 228936, Note_on_c, 9, 68, 0
4, 229320, Note_on_c, 9, 68, 84
4, 229537, Note_on_c, 9, 68, 0
4, 229560, Note_on_c, 9, 68, 103
4, 229777, Note_on_c, 9, 68, 0
4, 229800, Note_on_c, 9, 68, 84
4, 230017, Note_on_c, 9, 68, 0
4, 230400, Note_on_c, 9, 68, 100
4, 230616, Note_on_c, 9, 68, 0
4, 230640, Note_on_c, 9, 68, 100
4, 230856, Note_on_c, 9, 68, 0
4, 231240, Note_on_c, 9, 68, 84
4, 231455, Note_on_c, 9, 68, 0
4, 231480, Note_on_c, 9, 68, 84
4, 231697, Note_on_c, 9, 68, 0
4, 231720, Note_on_c, 9, 68, 100
4, 231937, Note_on_c, 9, 68, 0
4, 232320, Note_on_c, 9, 68, 103
4, 232536, Note_on_c, 9, 68, 0
4, 232560, Note_on_c, 9, 68, 95
4, 232776, Note_on_c, 9, 68, 0
4, 233160, Note_on_c, 9, 68, 84
4, 233377, Note_on_c, 9, 68, 0
4, 233400, Note_on_c, 9, 68, 103
4, 233617, Note_on_c, 9, 68, 0
4, 233640, Note_on_c, 9, 68, 84
4, 233857, Note_on_c, 9, 68, 0
4, 234240, Note_on_c, 9, 68, 103
4, 234458, Note_on_c, 9, 68, 0
4, 234480, Note_on_c, 9, 68, 95
4, 234698, Note_on_c, 9, 68, 0
4, 235080, Note_on_c, 9, 68, 84
4, 235297, Note_on_c, 9, 68, 0
4, 235320, Note_on_c, 9, 68, 103
4, 235537, Note_on_c, 9, 68, 0
4, 235560, Note_on_c, 9, 68, 84
4, 235775, Note_on_c, 9, 68, 0
4, 236160, Note_on_c, 9, 68, 100
4, 236376, Note_on_c, 9, 68, 0
4, 236400, Note_on_c, 9, 68, 100
4, 236616, Note_on_c, 9, 68, 0
4, 237000, Note_on_c, 9, 68, 84
4, 237215, Note_on_c, 9, 68, 0
4, 237240, Note_on_c, 9, 68, 84
4, 237457, Note_on_c, 9, 68, 0
4, 237480, Note_on_c, 9, 68, 100
4, 237697, Note_on_c, 9, 68, 0
4, 238080, Note_on_c, 9, 68, 103
4, 238296, Note_on_c, 9, 68, 0
4, 238320, Note_on_c, 9, 68, 95
4, 238536, Note_on_c, 9, 68, 0
4, 238920, Note_on_c, 9, 68, 84
4, 239137, Note_on_c, 9, 68, 0
4, 239160, Note_on_c, 9, 68, 103
4, 239377, Note_on_c, 9, 68, 0
4, 239400, Note_on_c, 9, 68, 84
4, 239617, Note_on_c, 9, 68, 0
4, 240000, Note_on_c, 9, 68, 100
4, 240216, Note_on_c, 9, 68, 0
4, 240240, Note_on_c, 9, 68, 100
4, 240456, Note_on_c, 9, 68, 0
4, 240840, Note_on_c, 9, 68, 84
4, 241057, Note_on_c, 9, 68, 0
4, 241080, Note_on_c, 9, 68, 84
4, 241295, Note_on_c, 9, 68, 0
4, 241320, Note_on_c, 9, 68, 100
4, 241537, Note_on_c, 9, 68, 0
4, 241920, Note_on_c, 9, 68, 100
4, 242136, Note_on_c, 9, 68, 0
4, 242160, Note_on_c, 9, 68, 100
4, 242376, Note_on_c, 9, 68, 0
4, 242760, Note_on_c, 9, 68, 84
4, 242975, Note_on_c, 9, 68, 0
4, 243000, Note_on_c, 9, 68, 84
4, 243217, Note_on_c, 9, 68, 0
4, 243240, Note_on_c, 9, 68, 100
4, 243457, Note_on_c, 9, 68, 0
4, 243840, Note_on_c, 9, 68, 103
4, 244056, Note_on_c, 9, 68, 0
4, 244080, Note_on_c, 9, 68, 95
4, 244296, Note_on_c, 9, 68, 0
4, 244680, Note_on_c, 9, 68, 84
4, 244897, Note_on_c, 9, 68, 0
4, 244920, Note_on_c, 9, 68, 103
4, 245137, Note_on_c, 9, 68, 0
4, 245160, Note_on_c, 9, 68, 84
4, 245377, Note_on_c, 9, 68, 0
4, 245760, Note_on_c, 9, 68, 100
4, 245976, Note_on_c, 9, 68, 0
4, 246000, Note_on_c, 9, 68, 100
4, 246216, Note_on_c, 9, 68, 0
4, 246600, Note_on_c, 9, 68, 84
4, 246815, Note_on_c, 9, 68, 0
4, 246840, Note_on_c, 9, 68, 84
4, 247057, Note_on_c, 9, 68, 0
4, 247080, Note_on_c, 9, 68, 100
4, 247297, Note_on_c, 9, 68, 0
4, 247680, Note_on_c, 9, 68, 103
4, 247896, Note_on_c, 9, 68, 0
4, 247920, Note_on_c, 9, 68, 95
4, 248136, Note_on_c, 9, 68, 0
4, 248520, Note_on_c, 9, 68, 84
4, 248737, Note_on_c, 9, 68, 0
4, 248760, Note_on_c, 9, 68, 103
4, 248977, Note_on_c, 9, 68, 0
4, 249000, Note_on_c, 9, 68, 84
4, 249217, Note_on_c, 9, 68, 0
4, 249600, Note_on_c, 9, 68, 103
4, 249818, Note_on_c, 9, 68, 0
4, 249840, Note_on_c, 9, 68, 95
4, 250058, Note_on_c, 9, 68, 0
4, 250440, Note_on_c, 9, 68, 84
4, 250657, Note_on_c, 9, 68, 0
4, 250680, Note_on_c, 9, 68, 103
4, 250897, Note_on_c, 9, 68, 0
4, 250920, Note_on_c, 9, 68, 84
4, 251135, Note_on_c, 9, 68, 0
4, 251520, Note_on_c, 9, 68, 100
4, 251736, Note_on_c, 9, 68, 0
4, 251760, Note_on_c, 9, 68, 100
4, 251976, Note_on_c, 9, 68, 0
4, 252360, Note_on_c, 9, 68, 84
4, 252575, Note_on_c, 9, 68, 0
4, 252600, Note_on_c, 9, 68, 84
4, 252817, Note_on_c, 9, 68, 0
4, 252840, Note_on_c, 9, 68, 100
4, 253057, Note_on_c, 9, 68, 0
4, 253440, Note_on_c, 9, 68, 103
4, 253656, Note_on_c, 9, 68, 0
4, 253680, Note_on_c, 9, 68, 95
4, 253896, Note_on_c, 9, 68, 0
4, 254280, Note_on_c, 9, 68, 84
4, 254497, Note_on_c, 9, 68, 0
4, 254520, Note_on_c, 9, 68, 103
4, 254737, Note_on_c, 9, 68, 0
4, 254760, Note_on_c, 9, 68, 84
4, 254977, Note_on_c, 9, 68, 0
4, 255360, Note_on_c, 9, 68, 100
4, 255576, Note_on_c, 9, 68, 0
4, 255600, Note_on_c, 9, 68, 100
4, 255816, Note_on_c, 9, 68, 0
4, 256200, Note_on_c, 9, 68, 84
4, 256417, Note_on_c, 9, 68, 0
4, 256440, Note_on_c, 9, 68, 84
4, 256655, Note_on_c, 9, 68, 0
4, 256680, Note_on_c, 9, 68, 100
4, 256897, Note_on_c, 9, 68, 0
4, 257280, Note_on_c, 9, 68, 100
4, 257496, Note_on_c, 9, 68, 0
4, 257520, Note_on_c, 9, 68, 100
4, 257736, Note_on_c, 9, 68, 0
4, 258120, Note_on_c, 9, 68, 84
4, 258335, Note_on_c, 9, 68, 0
4, 258360, Note_on_c, 9, 68, 84
4, 258577, Note_on_c, 9, 68, 0
4, 258600, Note_on_c, 9, 68, 100
4, 258817, Note_on_c, 9, 68, 0
4, 259200, Note_on_c, 9, 68, 103
4, 259416, Note_on_c, 9, 68, 0
4, 259440, Note_on_c, 9, 68, 95
4, 259656, Note_on_c, 9, 68, 0
4, 260040, Note_on_c, 9, 68, 84
4, 260257, Note_on_c, 9, 68, 0
4, 260280, Note_on_c, 9, 68, 103
4, 260497, Note_on_c, 9, 68, 0
4, 260520, Note_on_c, 9, 68, 84
4, 260737, Note_on_c, 9, 68, 0
4, 261120, Note_on_c, 9, 68, 100
4, 261336, Note_on_c, 9, 68, 0
4, 261360, Note_on_c, 9, 68, 100
4, 261576, Note_on_c, 9, 68, 0
4, 261960, Note_on_c, 9, 68, 84
4, 262175, Note_on_c, 9, 68, 0
4, 262200, Note_on_c, 9, 68, 84
4, 262417, Note_on_c, 9, 68, 0
4, 262440, Note_on_c, 9, 68, 100
4, 262657, Note_on_c, 9, 68, 0
4, 263040, Note_on_c, 9, 68, 103
4, 263256, Note_on_c, 9, 68, 0
4, 263280, Note_on_c, 9, 68, 95
4, 263496, Note_on_c, 9, 68, 0
4, 263880, Note_on_c, 9, 68, 84
4, 264097, Note_on_c, 9, 68, 0
4, 264120, Note_on_c, 9, 68, 103
4, 264337, Note_on_c, 9, 68, 0
4, 264360, Note_on_c, 9, 68, 84
4, 264577, Note_on_c, 9, 68, 0
4, 264960, Note_on_c, 9, 68, 103
4, 265178, Note_on_c, 9, 68, 0
4, 265200, Note_on_c, 9, 68, 95
4, 265418, Note_on_c, 9, 68, 0
4, 265800, Note_on_c, 9, 68, 84
4, 266017, Note_on_c, 9, 68, 0
4, 266040, Note_on_c, 9, 68, 103
4, 266257, Note_on_c, 9, 68, 0
4, 266280, Note_on_c, 9, 68, 84
4, 266495, Note_on_c, 9, 68, 0
4, 266880, Note_on_c, 9, 68, 100
4, 267096, Note_on_c, 9, 68, 0
4, 267120, Note_on_c, 9, 68, 100
4, 267336, Note_on_c, 9, 68, 0
4, 267720, Note_on_c, 9, 68, 84
4, 267935, Note_on_c, 9, 68, 0
4, 267960, Note_on_c, 9, 68, 84
4, 268177, Note_on_c, 9, 68, 0
4, 268200, Note_on_c, 9, 68, 100
4, 268417, Note_on_c, 9, 68, 0
4, 268800, Note_on_c, 9, 68, 103
4, 269016, Note_on_c, 9, 68, 0
4, 269040, Note_on_c, 9, 68, 95
4, 269256, Note_on_c, 9, 68, 0
4, 269640, Note_on_c, 9, 68, 84
4, 269857, Note_on_c, 9, 68, 0
4, 269880, Note_on_c, 9, 68, 103
4, 270097, Note_on_c, 9, 68, 0
4, 270120, Note_on_c, 9, 68, 84
4, 270337, Note_on_c, 9, 68, 0
4, 270720, Note_on_c, 9, 68, 100
4, 270936, Note_on_c, 9, 68, 0
4, 270960, Note_on_c, 9, 68, 100
4, 271176, Note_on_c, 9, 68, 0
4, 271560, Note_on_c, 9, 68, 84
4, 271777, Note_on_c, 9, 68, 0
4, 271800, Note_on_c, 9, 68, 84
4, 272015, Note_on_c, 9, 68, 0
4, 272040, Note_on_c, 9, 68, 100
4, 272257, Note_on_c, 9, 68, 0
4, 272640, Note_on_c, 9, 68, 100
4, 272856, Note_on_c, 9, 68, 0
4, 272880, Note_on_c, 9, 68, 100
4, 273096, Note_on_c, 9, 68, 0
4, 273480, Note_on_c, 9, 68, 84
4, 273695, Note_on_c, 9, 68, 0
4, 273720, Note_on_c, 9, 68, 84
4, 273937, Note_on_c, 9, 68, 0
4, 273960, Note_on_c, 9, 68, 100
4, 274177, Note_on_c, 9, 68, 0
4, 274560, Note_on_c, 9, 68, 103
4, 274776, Note_on_c, 9, 68, 0
4, 274800, Note_on_c, 9, 68, 95
4, 275016, Note_on_c, 9, 68, 0
4, 275400, Note_on_c, 9, 68, 84
4, 275617, Note_on_c, 9, 68, 0
4, 275640, Note_on_c, 9, 68, 103
4, 275857, Note_on_c, 9, 68, 0
4, 275880, Note_on_c, 9, 68, 84
4, 276097, Note_on_c, 9, 68, 0
4, 276480, Note_on_c, 9, 68, 100
4, 276696, Note_on_c, 9, 68, 0
4, 276720, Note_on_c, 9, 68, 100
4, 276936, Note_on_c, 9, 68, 0
4, 277320, Note_on_c, 9, 68, 84
4, 277535, Note_on_c, 9, 68, 0
4, 277560, Note_on_c, 9, 68, 84
4, 277777, Note_on_c, 9, 68, 0
4, 277800, Note_on_c, 9, 68, 100
4, 278017, Note_on_c, 9, 68, 0
4, 278400, Note_on_c, 9, 68, 103
4, 278616, Note_on_c, 9, 68, 0
4, 278640, Note_on_c, 9, 68, 95
4, 278856, Note_on_c, 9, 68, 0
4, 279240, Note_on_c, 9, 68, 84
4, 279457, Note_on_c, 9, 68, 0
4, 279480, Note_on_c, 9, 68, 103
4, 279697, Note_on_c, 9, 68, 0
4, 279720, Note_on_c, 9, 68, 84
4, 279937, Note_on_c, 9, 68, 0
4, 284160, End_track
5, 0, Start_track
5, 0, Text_t, "agogo"
5, 4560, Note_on_c, 9, 64, 107
5, 4680, Note_on_c, 9, 64, 83
5, 4776, Note_on_c, 9, 64, 0
5, 4776, Note_on_c, 9, 64, 0
5, 5520, Note_on_c, 9, 64, 103
5, 5640, Note_on_c, 9, 64, 95
5, 5734, Note_on_c, 9, 64, 0
5, 5734, Note_on_c, 9, 64, 0
5, 6480, Note_on_c, 9, 64, 98
5, 6600, Note_on_c, 9, 64, 80
5, 6699, Note_on_c, 9, 64, 0
5, 6699, Note_on_c, 9, 64, 0
5, 7440, Note_on_c, 9, 64, 98
5, 7560, Note_on_c, 9, 64, 78
5, 7656, Note_on_c, 9, 64, 0
5, 7656, Note_on_c, 9, 64, 0
5, 8160, Note_on_c, 9, 67, 88
5, 8225, Note_on_c, 9, 67, 0
5, 8400, Note_on_c, 9, 64, 107
5, 8520, Note_on_c, 9, 64, 83
5, 8616, Note_on_c, 9, 64, 0
5, 8616, Note_on_c, 9, 64, 0
5, 9120, Note_on_c, 9, 67, 74
5, 9186, Note_on_c, 9, 67, 0
5, 9360, Note_on_c, 9, 64, 103
5, 9480, Note_on_c, 9, 64, 95
5, 9576, Note_on_c, 9, 64, 0
5, 9576, Note_on_c, 9, 64, 0
5, 10080, Note_on_c, 9, 67, 90
5, 10145, Note_on_c, 9, 67, 0
5, 10320, Note_on_c, 9, 64, 98
5, 10440, Note_on_c, 9, 64, 80
5, 10538, Note_on_c, 9, 64, 0
5, 10538, Note_on_c, 9, 64, 0
5, 11040, Note_on_c, 9, 67, 74
5, 11105, Note_on_c, 9, 67, 0
5, 11280, Note_on_c, 9, 64, 98
5, 11400, Note_on_c, 9, 64, 78
5, 11498, Note_on_c, 9, 64, 0
5, 11498, Note_on_c, 9, 64, 0
5, 12240, Note_on_c, 9, 64, 98
5, 12360, Note_on_c, 9, 64, 80
5, 12459, Note_on_c, 9, 64, 0
5, 12459, Note_on_c, 9, 64, 0
5, 13200, Note_on_c, 9, 64, 98
5, 13320, Note_on_c, 9, 64, 78
5, 13416, Note_on_c, 9, 64, 0
5, 13416, Note_on_c, 9, 64, 0
5, 14160, Note_on_c, 9, 64, 107
5, 14280, Note_on_c, 9, 64, 83
5, 14376, Note_on_c, 9, 64, 0
5, 14376, Note_on_c, 9, 64, 0
5, 15120, Note_on_c, 9, 64, 103
5, 15240, Note_on_c, 9, 64, 95
5, 15336, Note_on_c, 9, 64, 0
5, 15336, Note_on_c, 9, 64, 0
5, 16080, Note_on_c, 9, 64, 98
5, 16200, Note_on_c, 9, 64, 80
5, 16299, Note_on_c, 9, 64, 0
5, 16299, Note_on_c, 9, 64, 0
5, 17040, Note_on_c, 9, 64, 98
5, 17160, Note_on_c, 9, 64, 78
5, 17256, Note_on_c, 9, 64, 0
5, 17256, Note_on_c, 9, 64, 0
5, 18000, Note_on_c, 9, 64, 107
5, 18120, Note_on_c, 9, 64, 83
5, 18216, Note_on_c, 9, 64, 0
5, 18216, Note_on_c, 9, 64, 0
5, 18960, Note_on_c, 9, 64, 103
5, 19080, Note_on_c, 9, 64, 95
5, 19176, Note_on_c, 9, 64, 0
5, 19176, Note_on_c, 9, 64, 0
5, 19680, Note_on_c, 9, 67, 88
5, 19900, Note_on_c, 9, 67, 0
5, 19920, Note_on_c, 9, 64, 107
5, 20040, Note_on_c, 9, 64, 83
5, 20136, Note_on_c, 9, 64, 0
5, 20136, Note_on_c, 9, 64, 0
5, 20640, Note_on_c, 9, 67, 74
5, 20860, Note_on_c, 9, 67, 0
5, 20880, Note_on_c, 9, 64, 103
5, 21000, Note_on_c, 9, 64, 95
5, 21094, Note_on_c, 9, 64, 0
5, 21094, Note_on_c, 9, 64, 0
5, 21600, Note_on_c, 9, 67, 90
5, 21818, Note_on_c, 9, 67, 0
5, 21840, Note_on_c, 9, 64, 98
5, 21960, Note_on_c, 9, 64, 80
5, 22059, Note_on_c, 9, 64, 0
5, 22059, Note_on_c, 9, 64, 0
5, 22560, Note_on_c, 9, 67, 74
5, 22776, Note_on_c, 9, 67, 0
5, 22800, Note_on_c, 9, 64, 98
5, 22920, Note_on_c, 9, 64, 78
5, 23016, Note_on_c, 9, 64, 0
5, 23016, Note_on_c, 9, 64, 0
5, 23520, Note_on_c, 9, 67, 88
5, 23736, Note_on_c, 9, 67, 0
5, 23760, Note_on_c, 9, 64, 107
5, 23880, Note_on_c, 9, 64, 83
5, 23976, Note_on_c, 9, 64, 0
5, 23976, Note_on_c, 9, 64, 0
5, 24480, Note_on_c, 9, 67, 74
5, 24699, Note_on_c, 9, 67, 0
5, 24720, Note_on_c, 9, 64, 103
5, 24840, Note_on_c, 9, 64, 95
5, 24936, Note_on_c, 9, 64, 0
5, 24936, Note_on_c, 9, 64, 0
5, 25440, Note_on_c, 9, 67, 90
5, 25656, Note_on_c, 9, 67, 0
5, 25680, Note_on_c, 9, 64, 98
5, 25800, Note_on_c, 9, 64, 80
5, 25898, Note_on_c, 9, 64, 0
5, 25898, Note_on_c, 9, 64, 0
5, 26400, Note_on_c, 9, 67, 74
5, 26615, Note_on_c, 9, 67, 0
5, 26640, Note_on_c, 9, 64, 98
5, 26760, Note_on_c, 9, 64, 78
5, 26858, Note_on_c, 9, 64, 0
5, 26858, Note_on_c, 9, 64, 0
5, 27600, Note_on_c, 9, 64, 98
5, 27720, Note_on_c, 9, 64, 80
5, 27819, Note_on_c, 9, 64, 0
5, 27819, Note_on_c, 9, 64, 0
5, 28560, Note_on_c, 9, 64, 98
5, 28680, Note_on_c, 9, 64, 78
5, 28776, Note_on_c, 9, 64, 0
5, 28776, Note_on_c, 9, 64, 0
5, 29520, Note_on_c, 9, 64, 107
5, 29640, Note_on_c, 9, 64, 83
5, 29736, Note_on_c, 9, 64, 0
5, 29736, Note_on_c, 9, 64, 0
5, 30480, Note_on_c, 9, 64, 103
5, 30600, Note_on_c, 9, 64, 95
5, 30696, Note_on_c, 9, 64, 0
5, 30696, Note_on_c, 9, 64, 0
5, 31440, Note_on_c, 9, 64, 98
5, 31560, Note_on_c, 9, 64, 80
5, 31659, Note_on_c, 9, 64, 0
5, 31659, Note_on_c, 9, 64, 0
5, 32400, Note_on_c, 9, 64, 98
5, 32520, Note_on_c, 9, 64, 78
5, 32616, Note_on_c, 9, 64, 0
5, 32616, Note_on_c, 9, 64, 0
5, 33360, Note_on_c, 9, 64, 107
5, 33480, Note_on_c, 9, 64, 83
5, 33576, Note_on_c, 9, 64, 0
5, 33576, Note_on_c, 9, 64, 0
5, 34320, Note_on_c, 9, 64, 103
5, 34440, Note_on_c, 9, 64, 95
5, 34536, Note_on_c, 9, 64, 0
5, 34536, Note_on_c, 9, 64, 0
5, 35280, Note_on_c, 9, 64, 107
5, 35400, Note_on_c, 9, 64, 83
5, 35496, Note_on_c, 9, 64, 0
5, 35496, Note_on_c, 9, 64, 0
5, 36240, Note_on_c, 9, 64, 103
5, 36360, Note_on_c, 9, 64, 95
5, 36454, Note_on_c, 9, 64, 0
5, 36454, Note_on_c, 9, 64, 0
5, 37200, Note_on_c, 9, 64, 98
5, 37320, Note_on_c, 9, 64, 80
5, 37419, Note_on_c, 9, 64, 0
5, 37419, Note_on_c, 9, 64, 0
5, 38160, Note_on_c, 9, 64, 98
5, 38280, Note_on_c, 9, 64, 78
5, 38376, Note_on_c, 9, 64, 0
5, 38376, Note_on_c, 9, 64, 0
5, 39120, Note_on_c, 9, 64, 107
5, 39240, Note_on_c, 9, 64, 83
5, 39336, Note_on_c, 9, 64, 0
5, 39336, Note_on_c, 9, 64, 0
5, 40080, Note_on_c, 9, 64, 103
5, 40200, Note_on_c, 9, 64, 95
5, 40296, Note_on_c, 9, 64, 0
5, 40296, Note_on_c, 9, 64, 0
5, 41040, Note_on_c, 9, 64, 98
5, 41160, Note_on_c, 9, 64, 80
5, 41258, Note_on_c, 9, 64, 0
5, 41258, Note_on_c, 9, 64, 0
5, 42000, Note_on_c, 9, 64, 98
5, 42120, Note_on_c, 9, 64, 78
5, 42218, Note_on_c, 9, 64, 0
5, 42218, Note_on_c, 9, 64, 0
5, 42720, Note_on_c, 9, 67, 90
5, 42785, Note_on_c, 9, 67, 0
5, 42960, Note_on_c, 9, 64, 98
5, 43080, Note_on_c, 9, 64, 80
5, 43179, Note_on_c, 9, 64, 0
5, 43179, Note_on_c, 9, 64, 0
5, 43680, Note_on_c, 9, 67, 74
5, 43745, Note_on_c, 9, 67, 0
5, 43920, Note_on_c, 9, 64, 98
5, 44040, Note_on_c, 9, 64, 78
5, 44136, Note_on_c, 9, 64, 0
5, 44136, Note_on_c, 9, 64, 0
5, 44640, Note_on_c, 9, 67, 88
5, 44705, Note_on_c, 9, 67, 0
5, 44880, Note_on_c, 9, 64, 107
5, 45000, Note_on_c, 9, 64, 83
5, 45096, Note_on_c, 9, 64, 0
5, 45096, Note_on_c, 9, 64, 0
5, 45600, Note_on_c, 9, 67, 74
5, 45666, Note_on_c, 9, 67, 0
5, 45840, Note_on_c, 9, 64, 103
5, 45960, Note_on_c, 9, 64, 95
5, 46056, Note_on_c, 9, 64, 0
5, 46056, Note_on_c, 9, 64, 0
5, 46560, Note_on_c, 9, 67, 90
5, 46625, Note_on_c, 9, 67, 0
5, 46800, Note_on_c, 9, 64, 98
5, 46920, Note_on_c, 9, 64, 80
5, 47019, Note_on_c, 9, 64, 0
5, 47019, Note_on_c, 9, 64, 0
5, 47520, Note_on_c, 9, 67, 74
5, 47585, Note_on_c, 9, 67, 0
5, 47760, Note_on_c, 9, 64, 98
5, 47880, Note_on_c, 9, 64, 78
5, 47976, Note_on_c, 9, 64, 0
5, 47976, Note_on_c, 9, 64, 0
5, 48480, Note_on_c, 9, 67, 88
5, 48545, Note_on_c, 9, 67, 0
5, 48720, Note_on_c, 9, 64, 107
5, 48840, Note_on_c, 9, 64, 83
5, 48936, Note_on_c, 9, 64, 0
5, 48936, Note_on_c, 9, 64, 0
5, 49440, Note_on_c, 9, 67, 74
5, 49506, Note_on_c, 9, 67, 0
5, 49680, Note_on_c, 9, 64, 103
5, 49800, Note_on_c, 9, 64, 95
5, 49896, Note_on_c, 9, 64, 0
5, 49896, Note_on_c, 9, 64, 0
5, 50400, Note_on_c, 9, 67, 88
5, 50466, Note_on_c, 9, 67, 0
5, 50640, Note_on_c, 9, 64, 107
5, 50760, Note_on_c, 9, 64, 83
5, 50856, Note_on_c, 9, 64, 0
5, 50856, Note_on_c, 9, 64, 0
5, 51360, Note_on_c, 9, 67, 74
5, 51426, Note_on_c, 9, 67, 0
5, 51600, Note_on_c, 9, 64, 103
5, 51720, Note_on_c, 9, 64, 95
5, 51814, Note_on_c, 9, 64, 0
5, 51814, Note_on_c, 9, 64, 0
5, 52320, Note_on_c, 9, 67, 90
5, 52385, Note_on_c, 9, 67, 0
5, 52560, Note_on_c, 9, 64, 98
5, 52680, Note_on_c, 9, 64, 80
5, 52779, Note_on_c, 9, 64, 0
5, 52779, Note_on_c, 9, 64, 0
5, 53280, Note_on_c, 9, 67, 74
5, 53345, Note_on_c, 9, 67, 0
5, 53520, Note_on_c, 9, 64, 98
5, 53640, Note_on_c, 9, 64, 78
5, 53736, Note_on_c, 9, 64, 0
5, 53736, Note_on_c, 9, 64, 0
5, 54240, Note_on_c, 9, 67, 88
5, 54305, Note_on_c, 9, 67, 0
5, 54480, Note_on_c, 9, 64, 107
5, 54600, Note_on_c, 9, 64, 83
5, 54696, Note_on_c, 9, 64, 0
5, 54696, Note_on_c, 9, 64, 0
5, 55200, Note_on_c, 9, 67, 74
5, 55266, Note_on_c, 9, 67, 0
5, 55440, Note_on_c, 9, 64, 103
5, 55560, Note_on_c, 9, 64, 95
5, 55656, Note_on_c, 9, 64, 0
5, 55656, Note_on_c, 9, 64, 0
5, 56160, Note_on_c, 9, 67, 90
5, 56225, Note_on_c, 9, 67, 0
5, 56400, Note_on_c, 9, 64, 98
5, 56520, Note_on_c, 9, 64, 80
5, 56618, Note_on_c, 9, 64, 0
5, 56618, Note_on_c, 9, 64, 0
5, 57120, Note_on_c, 9, 67, 74
5, 57185, Note_on_c, 9, 67, 0
5, 57360, Note_on_c, 9, 64, 98
5, 57480, Note_on_c, 9, 64, 78
5, 57578, Note_on_c, 9, 64, 0
5, 57578, Note_on_c, 9, 64, 0
5, 58080, Note_on_c, 9, 67, 90
5, 58298, Note_on_c, 9, 67, 0
5, 58320, Note_on_c, 9, 64, 98
5, 58440, Note_on_c, 9, 64, 80
5, 58539, Note_on_c, 9, 64, 0
5, 58539, Note_on_c, 9, 64, 0
5, 59040, Note_on_c, 9, 67, 74
5, 59256, Note_on_c, 9, 67, 0
5, 59280, Note_on_c, 9, 64, 98
5, 59400, Note_on_c, 9, 64, 78
5, 59496, Note_on_c, 9, 64, 0
5, 59496, Note_on_c, 9, 64, 0
5, 60000, Note_on_c, 9, 67, 88
5, 60216, Note_on_c, 9, 67, 0
5, 60240, Note_on_c, 9, 64, 107
5, 60360, Note_on_c, 9, 64, 83
5, 60456, Note_on_c, 9, 64, 0
5, 60456, Note_on_c, 9, 64, 0
5, 60960, Note_on_c, 9, 67, 74
5, 61179, Note_on_c, 9, 67, 0
5, 61200, Note_on_c, 9, 64, 103
5, 61320, Note_on_c, 9, 64, 95
5, 61416, Note_on_c, 9, 64, 0
5, 61416, Note_on_c, 9, 64, 0
5, 61920, Note_on_c, 9, 67, 90
5, 62138, Note_on_c, 9, 67, 0
5, 62160, Note_on_c, 9, 64, 98
5, 62280, Note_on_c, 9, 64, 80
5, 62379, Note_on_c, 9, 64, 0
5, 62379, Note_on_c, 9, 64, 0
5, 62880, Note_on_c, 9, 67, 74
5, 63096, Note_on_c, 9, 67, 0
5, 63120, Note_on_c, 9, 64, 98
5, 63240, Note_on_c, 9, 64, 78
5, 63336, Note_on_c, 9, 64, 0
5, 63336, Note_on_c, 9, 64, 0
5, 63840, Note_on_c, 9, 67, 88
5, 64056, Note_on_c, 9, 67, 0
5, 64080, Note_on_c, 9, 64, 107
5, 64200, Note_on_c, 9, 64, 83
5, 64296, Note_on_c, 9, 64, 0
5, 64296, Note_on_c, 9, 64, 0
5, 64800, Note_on_c, 9, 67, 74
5, 65019, Note_on_c, 9, 67, 0
5, 65040, Note_on_c, 9, 64, 103
5, 65160, Note_on_c, 9, 64, 95
5, 65256, Note_on_c, 9, 64, 0
5, 65256, Note_on_c, 9, 64, 0
5, 65760, Note_on_c, 9, 67, 88
5, 65980, Note_on_c, 9, 67, 0
5, 66000, Note_on_c, 9, 64, 107
5, 66120, Note_on_c, 9, 64, 83
5, 66216, Note_on_c, 9, 64, 0
5, 66216, Note_on_c, 9, 64, 0
5, 66720, Note_on_c, 9, 67, 74
5, 66940, Note_on_c, 9, 67, 0
5, 66960, Note_on_c, 9, 64, 103
5, 67080, Note_on_c, 9, 64, 95
5, 67174, Note_on_c, 9, 64, 0
5, 67174, Note_on_c, 9, 64, 0
5, 67680, Note_on_c, 9, 67, 90
5, 67898, Note_on_c, 9, 67, 0
5, 67920, Note_on_c, 9, 64, 98
5, 68040, Note_on_c, 9, 64, 80
5, 68139, Note_on_c, 9, 64, 0
5, 68139, Note_on_c, 9, 64, 0
5, 68640, Note_on_c, 9, 67, 74
5, 68856, Note_on_c, 9, 67, 0
5, 68880, Note_on_c, 9, 64, 98
5, 69000, Note_on_c, 9, 64, 78
5, 69096, Note_on_c, 9, 64, 0
5, 69096, Note_on_c, 9, 64, 0
5, 69600, Note_on_c, 9, 67, 88
5, 69816, Note_on_c, 9, 67, 0
5, 69840, Note_on_c, 9, 64, 107
5, 69960, Note_on_c, 9, 64, 83
5, 70056, Note_on_c, 9, 64, 0
5, 70056, Note_on_c, 9, 64, 0
5, 70560, Note_on_c, 9, 67, 74
5, 70779, Note_on_c, 9, 67, 0
5, 70800, Note_on_c, 9, 64, 103
5, 70920, Note_on_c, 9, 64, 95
5, 71016, Note_on_c, 9, 64, 0
5, 71016, Note_on_c, 9, 64, 0
5, 71520, Note_on_c, 9, 67, 90
5, 71736, Note_on_c, 9, 67, 0
5, 71760, Note_on_c, 9, 64, 98
5, 71880, Note_on_c, 9, 64, 80
5, 71978, Note_on_c, 9, 64, 0
5, 71978, Note_on_c, 9, 64, 0
5, 72480, Note_on_c, 9, 67, 74
5, 72695, Note_on_c, 9, 67, 0
5, 72720, Note_on_c, 9, 64, 98
5, 72840, Note_on_c, 9, 64, 78
5, 72938, Note_on_c, 9, 64, 0
5, 72938, Note_on_c, 9, 64, 0
5, 73440, Note_on_c, 9, 67, 90
5, 73658, Note_on_c, 9, 67, 0
5, 73680, Note_on_c, 9, 64, 98
5, 73800, Note_on_c, 9, 64, 80
5, 73899, Note_on_c, 9, 64, 0
5, 73899, Note_on_c, 9, 64, 0
5, 74400, Note_on_c, 9, 67, 74
5, 74616, Note_on_c, 9, 67, 0
5, 74640, Note_on_c, 9, 64, 98
5, 74760, Note_on_c, 9, 64, 78
5, 74856, Note_on_c, 9, 64, 0
5, 74856, Note_on_c, 9, 64, 0
5, 75360, Note_on_c, 9, 67, 88
5, 75576, Note_on_c, 9, 67, 0
5, 75600, Note_on_c, 9, 64, 107
5, 75720, Note_on_c, 9, 64, 83
5, 75816, Note_on_c, 9, 64, 0
5, 75816, Note_on_c, 9, 64, 0
5, 76320, Note_on_c, 9, 67, 74
5, 76539, Note_on_c, 9, 67, 0
5, 76560, Note_on_c, 9, 64, 103
5, 76680, Note_on_c, 9, 64, 95
5, 76776, Note_on_c, 9, 64, 0
5, 76776, Note_on_c, 9, 64, 0
5, 77280, Note_on_c, 9, 67, 90
5, 77498, Note_on_c, 9, 67, 0
5, 77520, Note_on_c, 9, 64, 98
5, 77640, Note_on_c, 9, 64, 80
5, 77739, Note_on_c, 9, 64, 0
5, 77739, Note_on_c, 9, 64, 0
5, 78240, Note_on_c, 9, 67, 74
5, 78456, Note_on_c, 9, 67, 0
5, 78480, Note_on_c, 9, 64, 98
5, 78600, Note_on_c, 9, 64, 78
5, 78696, Note_on_c, 9, 64, 0
5, 78696, Note_on_c, 9, 64, 0
5, 79200, Note_on_c, 9, 67, 88
5, 79416, Note_on_c, 9, 67, 0
5, 79440, Note_on_c, 9, 64, 107
5, 79560, Note_on_c, 9, 64, 83
5, 79656, Note_on_c, 9, 64, 0
5, 79656, Note_on_c, 9, 64, 0
5, 80160, Note_on_c, 9, 67, 74
5, 80379, Note_on_c, 9, 67, 0
5, 80400, Note_on_c, 9, 64, 103
5, 80520, Note_on_c, 9, 64, 95
5, 80616, Note_on_c, 9, 64, 0
5, 80616, Note_on_c, 9, 64, 0
5, 81120, Note_on_c, 9, 67, 88
5, 81340, Note_on_c, 9, 67, 0
5, 81360, Note_on_c, 9, 64, 107
5, 81480, Note_on_c, 9, 64, 83
5, 81576, Note_on_c, 9, 64, 0
5, 81576, Note_on_c, 9, 64, 0
5, 82080, Note_on_c, 9, 67, 74
5, 82300, Note_on_c, 9, 67, 0
5, 82320, Note_on_c, 9, 64, 103
5, 82440, Note_on_c, 9, 64, 95
5, 82534, Note_on_c, 9, 64, 0
5, 82534, Note_on_c, 9, 64, 0
5, 83040, Note_on_c, 9, 67, 90
5, 83258, Note_on_c, 9, 67, 0
5, 83280, Note_on_c, 9, 64, 98
5, 83400, Note_on_c, 9, 64, 80
5, 83499, Note_on_c, 9, 64, 0
5, 83499, Note_on_c, 9, 64, 0
5, 84000, Note_on_c, 9, 67, 74
5, 84216, Note_on_c, 9, 67, 0
5, 84240, Note_on_c, 9, 64, 98
5, 84360, Note_on_c, 9, 64, 78
5, 84456, Note_on_c, 9, 64, 0
5, 84456, Note_on_c, 9, 64, 0
5, 84960, Note_on_c, 9, 67, 88
5, 85176, Note_on_c, 9, 67, 0
5, 85200, Note_on_c, 9, 64, 107
5, 85320, Note_on_c, 9, 64, 83
5, 85416, Note_on_c, 9, 64, 0
5, 85416, Note_on_c, 9, 64, 0
5, 85920, Note_on_c, 9, 67, 74
5, 86139, Note_on_c, 9, 67, 0
5, 86160, Note_on_c, 9, 64, 103
5, 86280, Note_on_c, 9, 64, 95
5, 86376, Note_on_c, 9, 64, 0
5, 86376, Note_on_c, 9, 64, 0
5, 86880, Note_on_c, 9, 67, 90
5, 87096, Note_on_c, 9, 67, 0
5, 87120, Note_on_c, 9, 64, 98
5, 87240, Note_on_c, 9, 64, 80
5, 87338, Note_on_c, 9, 64, 0
5, 87338, Note_on_c, 9, 64, 0
5, 87840, Note_on_c, 9, 67, 74
5, 88055, Note_on_c, 9, 67, 0
5, 88080, Note_on_c, 9, 64, 98
5, 88200, Note_on_c, 9, 64, 78
5, 88298, Note_on_c, 9, 64, 0
5, 88298, Note_on_c, 9, 64, 0
5, 88800, Note_on_c, 9, 67, 90
5, 88865, Note_on_c, 9, 67, 0
5, 89040, Note_on_c, 9, 64, 98
5, 89160, Note_on_c, 9, 64, 80
5, 89259, Note_on_c, 9, 64, 0
5, 89259, Note_on_c, 9, 64, 0
5, 89760, Note_on_c, 9, 67, 74
5, 89825, Note_on_c, 9, 67, 0
5, 90000, Note_on_c, 9, 64, 98
5, 90120, Note_on_c, 9, 64, 78
5, 90216, Note_on_c, 9, 64, 0
5, 90216, Note_on_c, 9, 64, 0
5, 90720, Note_on_c, 9, 67, 88
5, 90785, Note_on_c, 9, 67, 0
5, 90960, Note_on_c, 9, 64, 107
5, 91080, Note_on_c, 9, 64, 83
5, 91176, Note_on_c, 9, 64, 0
5, 91176, Note_on_c, 9, 64, 0
5, 91680, Note_on_c, 9, 67, 74
5, 91746, Note_on_c, 9, 67, 0
5, 91920, Note_on_c, 9, 64, 103
5, 92040, Note_on_c, 9, 64, 95
5, 92136, Note_on_c, 9, 64, 0
5, 92136, Note_on_c, 9, 64, 0
5, 92640, Note_on_c, 9, 67, 90
5, 92705, Note_on_c, 9, 67, 0
5, 92880, Note_on_c, 9, 64, 98
5, 93000, Note_on_c, 9, 64, 80
5, 93099, Note_on_c, 9, 64, 0
5, 93099, Note_on_c, 9, 64, 0
5, 93600, Note_on_c, 9, 67, 74
5, 93665, Note_on_c, 9, 67, 0
5, 93840, Note_on_c, 9, 64, 98
5, 93960, Note_on_c, 9, 64, 78
5, 94056, Note_on_c, 9, 64, 0
5, 94056, Note_on_c, 9, 64, 0
5, 94560, Note_on_c, 9, 67, 88
5, 94625, Note_on_c, 9, 67, 0
5, 94800, Note_on_c, 9, 64, 107
5, 94920, Note_on_c, 9, 64, 83
5, 95016, Note_on_c, 9, 64, 0
5, 95016, Note_on_c, 9, 64, 0
5, 95520, Note_on_c, 9, 67, 74
5, 95586, Note_on_c, 9, 67, 0
5, 95760, Note_on_c, 9, 64, 103
5, 95880, Note_on_c, 9, 64, 95
5, 95976, Note_on_c, 9, 64, 0
5, 95976, Note_on_c, 9, 64, 0
5, 96480, Note_on_c, 9, 67, 88
5, 96546, Note_on_c, 9, 67, 0
5, 96720, Note_on_c, 9, 64, 107
5, 96840, Note_on_c, 9, 64, 83
5, 96936, Note_on_c, 9, 64, 0
5, 96936, Note_on_c, 9, 64, 0
5, 97440, Note_on_c, 9, 67, 74
5, 97506, Note_on_c, 9, 67, 0
5, 97680, Note_on_c, 9, 64, 103
5, 97800, Note_on_c, 9, 64, 95
5, 97894, Note_on_c, 9, 64, 0
5, 97894, Note_on_c, 9, 64, 0
5, 98400, Note_on_c, 9, 67, 90
5, 98465, Note_on_c, 9, 67, 0
5, 98640, Note_on_c, 9, 64, 98
5, 98760, Note_on_c, 9, 64, 80
5, 98859, Note_on_c, 9, 64, 0
5, 98859, Note_on_c, 9, 64, 0
5, 99360, Note_on_c, 9, 67, 74
5, 99425, Note_on_c, 9, 67, 0
5, 99600, Note_on_c, 9, 64, 98
5, 99720, Note_on_c, 9, 64, 78
5, 99816, Note_on_c, 9, 64, 0
5, 99816, Note_on_c, 9, 64, 0
5, 100320, Note_on_c, 9, 67, 88
5, 100385, Note_on_c, 9, 67, 0
5, 100560, Note_on_c, 9, 64, 107
5, 100680, Note_on_c, 9, 64, 83
5, 100776, Note_on_c, 9, 64, 0
5, 100776, Note_on_c, 9, 64, 0
5, 101280, Note_on_c, 9, 67, 74
5, 101346, Note_on_c, 9, 67, 0
5, 101520, Note_on_c, 9, 64, 103
5, 101640, Note_on_c, 9, 64, 95
5, 101736, Note_on_c, 9, 64, 0
5, 101736, Note_on_c, 9, 64, 0
5, 102240, Note_on_c, 9, 67, 90
5, 102305, Note_on_c, 9, 67, 0
5, 102480, Note_on_c, 9, 64, 98
5, 102600, Note_on_c, 9, 64, 80
5, 102698, Note_on_c, 9, 64, 0
5, 102698, Note_on_c, 9, 64, 0
5, 103200, Note_on_c, 9, 67, 74
5, 103265, Note_on_c, 9, 67, 0
5, 103440, Note_on_c, 9, 64, 98
5, 103560, Note_on_c, 9, 64, 78
5, 103658, Note_on_c, 9, 64, 0
5, 103658, Note_on_c, 9, 64, 0
5, 104160, Note_on_c, 9, 67, 90
5, 104225, Note_on_c, 9, 67, 0
5, 104400, Note_on_c, 9, 64, 98
5, 104520, Note_on_c, 9, 64, 80
5, 104619, Note_on_c, 9, 64, 0
5, 104619, Note_on_c, 9, 64, 0
5, 105120, Note_on_c, 9, 67, 74
5, 105185, Note_on_c, 9, 67, 0
5, 105360, Note_on_c, 9, 64, 98
5, 105480, Note_on_c, 9, 64, 78
5, 105576, Note_on_c, 9, 64, 0
5, 105576, Note_on_c, 9, 64, 0
5, 106080, Note_on_c, 9, 67, 88
5, 106296, Note_on_c, 9, 67, 0
5, 106320, Note_on_c, 9, 64, 107
5, 106440, Note_on_c, 9, 64, 83
5, 106536, Note_on_c, 9, 64, 0
5, 106536, Note_on_c, 9, 64, 0
5, 107040, Note_on_c, 9, 67, 74
5, 107259, Note_on_c, 9, 67, 0
5, 107280, Note_on_c, 9, 64, 103
5, 107400, Note_on_c, 9, 64, 95
5, 107496, Note_on_c, 9, 64, 0
5, 107496, Note_on_c, 9, 64, 0
5, 108000, Note_on_c, 9, 67, 90
5, 108218, Note_on_c, 9, 67, 0
5, 108240, Note_on_c, 9, 64, 98
5, 108360, Note_on_c, 9, 64, 80
5, 108459, Note_on_c, 9, 64, 0
5, 108459, Note_on_c, 9, 64, 0
5, 108960, Note_on_c, 9, 67, 74
5, 109176, Note_on_c, 9, 67, 0
5, 109200, Note_on_c, 9, 64, 98
5, 109320, Note_on_c, 9, 64, 78
5, 109416, Note_on_c, 9, 64, 0
5, 109416, Note_on_c, 9, 64, 0
5, 109920, Note_on_c, 9, 67, 88
5, 110136, Note_on_c, 9, 67, 0
5, 110160, Note_on_c, 9, 64, 107
5, 110280, Note_on_c, 9, 64, 83
5, 110376, Note_on_c, 9, 64, 0
5, 110376, Note_on_c, 9, 64, 0
5, 110880, Note_on_c, 9, 67, 74
5, 111099, Note_on_c, 9, 67, 0
5, 111120, Note_on_c, 9, 64, 103
5, 111240, Note_on_c, 9, 64, 95
5, 111336, Note_on_c, 9, 64, 0
5, 111336, Note_on_c, 9, 64, 0
5, 111840, Note_on_c, 9, 67, 88
5, 112060, Note_on_c, 9, 67, 0
5, 112080, Note_on_c, 9, 64, 107
5, 112200, Note_on_c, 9, 64, 83
5, 112296, Note_on_c, 9, 64, 0
5, 112296, Note_on_c, 9, 64, 0
5, 112800, Note_on_c, 9, 67, 74
5, 113020, Note_on_c, 9, 67, 0
5, 113040, Note_on_c, 9, 64, 103
5, 113160, Note_on_c, 9, 64, 95
5, 113254, Note_on_c, 9, 64, 0
5, 113254, Note_on_c, 9, 64, 0
5, 113760, Note_on_c, 9, 67, 90
5, 113978, Note_on_c, 9, 67, 0
5, 114000, Note_on_c, 9, 64, 98
5, 114120, Note_on_c, 9, 64, 80
5, 114219, Note_on_c, 9, 64, 0
5, 114219, Note_on_c, 9, 64, 0
5, 114720, Note_on_c, 9, 67, 74
5, 114936, Note_on_c, 9, 67, 0
5, 114960, Note_on_c, 9, 64, 98
5, 115080, Note_on_c, 9, 64, 78
5, 115176, Note_on_c, 9, 64, 0
5, 115176, Note_on_c, 9, 64, 0
5, 115680, Note_on_c, 9, 67, 88
5, 115896, Note_on_c, 9, 67, 0
5, 115920, Note_on_c, 9, 64, 107
5, 116040, Note_on_c, 9, 64, 83
5, 116136, Note_on_c, 9, 64, 0
5, 116136, Note_on_c, 9, 64, 0
5, 116640, Note_on_c, 9, 67, 74
5, 116859, Note_on_c, 9, 67, 0
5, 116880, Note_on_c, 9, 64, 103
5, 117000, Note_on_c, 9, 64, 95
5, 117096, Note_on_c, 9, 64, 0
5, 117096, Note_on_c, 9, 64, 0
5, 117600, Note_on_c, 9, 67, 90
5, 117816, Note_on_c, 9, 67, 0
5, 117840, Note_on_c, 9, 64, 98
5, 117960, Note_on_c, 9, 64, 80
5, 118058, Note_on_c, 9, 64, 0
5, 118058, Note_on_c, 9, 64, 0
5, 118560, Note_on_c, 9, 67, 74
5, 118775, Note_on_c, 9, 67, 0
5, 118800, Note_on_c, 9, 64, 98
5, 118920, Note_on_c, 9, 64, 78
5, 119018, Note_on_c, 9, 64, 0
5, 119018, Note_on_c, 9, 64, 0
5, 119520, Note_on_c, 9, 67, 90
5, 119738, Note_on_c, 9, 67, 0
5, 119760, Note_on_c, 9, 64, 98
5, 119880, Note_on_c, 9, 64, 80
5, 119979, Note_on_c, 9, 64, 0
5, 119979, Note_on_c, 9, 64, 0
5, 120480, Note_on_c, 9, 67, 74
5, 120696, Note_on_c, 9, 67, 0
5, 120720, Note_on_c, 9, 64, 98
5, 120840, Note_on_c, 9, 64, 78
5, 120936, Note_on_c, 9, 64, 0
5, 120936, Note_on_c, 9, 64, 0
5, 121440, Note_on_c, 9, 67, 88
5, 121656, Note_on_c, 9, 67, 0
5, 121680, Note_on_c, 9, 64, 107
5, 121800, Note_on_c, 9, 64, 83
5, 121896, Note_on_c, 9, 64, 0
5, 121896, Note_on_c, 9, 64, 0
5, 122400, Note_on_c, 9, 67, 74
5, 122619, Note_on_c, 9, 67, 0
5, 122640, Note_on_c, 9, 64, 103
5, 122760, Note_on_c, 9, 64, 95
5, 122856, Note_on_c, 9, 64, 0
5, 122856, Note_on_c, 9, 64, 0
5, 123360, Note_on_c, 9, 67, 90
5, 123578, Note_on_c, 9, 67, 0
5, 123600, Note_on_c, 9, 64, 98
5, 123720, Note_on_c, 9, 64, 80
5, 123819, Note_on_c, 9, 64, 0
5, 123819, Note_on_c, 9, 64, 0
5, 124320, Note_on_c, 9, 67, 74
5, 124536, Note_on_c, 9, 67, 0
5, 124560, Note_on_c, 9, 64, 98
5, 124680, Note_on_c, 9, 64, 78
5, 124776, Note_on_c, 9, 64, 0
5, 124776, Note_on_c, 9, 64, 0
5, 125280, Note_on_c, 9, 67, 88
5, 125496, Note_on_c, 9, 67, 0
5, 125520, Note_on_c, 9, 64, 107
5, 125640, Note_on_c, 9, 64, 83
5, 125736, Note_on_c, 9, 64, 0
5, 125736, Note_on_c, 9, 64, 0
5, 126240, Note_on_c, 9, 67, 74
5, 126459, Note_on_c, 9, 67, 0
5, 126480, Note_on_c, 9, 64, 103
5, 126600, Note_on_c, 9, 64, 95
5, 126696, Note_on_c, 9, 64, 0
5, 126696, Note_on_c, 9, 64, 0
5, 127200, Note_on_c, 9, 67, 88
5, 127420, Note_on_c, 9, 67, 0
5, 127440, Note_on_c, 9, 64, 107
5, 127560, Note_on_c, 9, 64, 83
5, 127656, Note_on_c, 9, 64, 0
5, 127656, Note_on_c, 9, 64, 0
5, 128160, Note_on_c, 9, 67, 74
5, 128380, Note_on_c, 9, 67, 0
5, 128400, Note_on_c, 9, 64, 103
5, 128520, Note_on_c, 9, 64, 95
5, 128614, Note_on_c, 9, 64, 0
5, 128614, Note_on_c, 9, 64, 0
5, 129120, Note_on_c, 9, 67, 90
5, 129338, Note_on_c, 9, 67, 0
5, 129360, Note_on_c, 9, 64, 98
5, 129480, Note_on_c, 9, 64, 80
5, 129579, Note_on_c, 9, 64, 0
5, 129579, Note_on_c, 9, 64, 0
5, 130080, Note_on_c, 9, 67, 74
5, 130296, Note_on_c, 9, 67, 0
5, 130320, Note_on_c, 9, 64, 98
5, 130440, Note_on_c, 9, 64, 78
5, 130536, Note_on_c, 9, 64, 0
5, 130536, Note_on_c, 9, 64, 0
5, 131040, Note_on_c, 9, 67, 88
5, 131256, Note_on_c, 9, 67, 0
5, 131280, Note_on_c, 9, 64, 107
5, 131400, Note_on_c, 9, 64, 83
5, 131496, Note_on_c, 9, 64, 0
5, 131496, Note_on_c, 9, 64, 0
5, 132000, Note_on_c, 9, 67, 74
5, 132219, Note_on_c, 9, 67, 0
5, 132240, Note_on_c, 9, 64, 103
5, 132360, Note_on_c, 9, 64, 95
5, 132456, Note_on_c, 9, 64, 0
5, 132456, Note_on_c, 9, 64, 0
5, 132960, Note_on_c, 9, 67, 90
5, 133176, Note_on_c, 9, 67, 0
5, 133200, Note_on_c, 9, 64, 98
5, 133320, Note_on_c, 9, 64, 80
5, 133418, Note_on_c, 9, 64, 0
5, 133418, Note_on_c, 9, 64, 0
5, 133920, Note_on_c, 9, 67, 74
5, 134135, Note_on_c, 9, 67, 0
5, 134160, Note_on_c, 9, 64, 98
5, 134280, Note_on_c, 9, 64, 78
5, 134378, Note_on_c, 9, 64, 0
5, 134378, Note_on_c, 9, 64, 0
5, 134880, Note_on_c, 9, 67, 90
5, 134945, Note_on_c, 9, 67, 0
5, 135120, Note_on_c, 9, 64, 98
5, 135240, Note_on_c, 9, 64, 80
5, 135339, Note_on_c, 9, 64, 0
5, 135339, Note_on_c, 9, 64, 0
5, 135840, Note_on_c, 9, 67, 74
5, 135905, Note_on_c, 9, 67, 0
5, 136080, Note_on_c, 9, 64, 98
5, 136200, Note_on_c, 9, 64, 78
5, 136296, Note_on_c, 9, 64, 0
5, 136296, Note_on_c, 9, 64, 0
5, 136800, Note_on_c, 9, 67, 88
5, 136865, Note_on_c, 9, 67, 0
5, 137040, Note_on_c, 9, 64, 107
5, 137160, Note_on_c, 9, 64, 83
5, 137256, Note_on_c, 9, 64, 0
5, 137256, Note_on_c, 9, 64, 0
5, 137760, Note_on_c, 9, 67, 74
5, 137826, Note_on_c, 9, 67, 0
5, 138000, Note_on_c, 9, 64, 103
5, 138120, Note_on_c, 9, 64, 95
5, 138216, Note_on_c, 9, 64, 0
5, 138216, Note_on_c, 9, 64, 0
5, 138720, Note_on_c, 9, 67, 90
5, 138785, Note_on_c, 9, 67, 0
5, 138960, Note_on_c, 9, 64, 98
5, 139080, Note_on_c, 9, 64, 80
5, 139179, Note_on_c, 9, 64, 0
5, 139179, Note_on_c, 9, 64, 0
5, 139680, Note_on_c, 9, 67, 74
5, 139745, Note_on_c, 9, 67, 0
5, 139920, Note_on_c, 9, 64, 98
5, 140040, Note_on_c, 9, 64, 78
5, 140136, Note_on_c, 9, 64, 0
5, 140136, Note_on_c, 9, 64, 0
5, 140640, Note_on_c, 9, 67, 88
5, 140705, Note_on_c, 9, 67, 0
5, 140880, Note_on_c, 9, 64, 107
5, 141000, Note_on_c, 9, 64, 83
5, 141096, Note_on_c, 9, 64, 0
5, 141096, Note_on_c, 9, 64, 0
5, 141600, Note_on_c, 9, 67, 74
5, 141666, Note_on_c, 9, 67, 0
5, 141840, Note_on_c, 9, 64, 103
5, 141960, Note_on_c, 9, 64, 95
5, 142056, Note_on_c, 9, 64, 0
5, 142056, Note_on_c, 9, 64, 0
5, 142560, Note_on_c, 9, 67, 88
5, 142626, Note_on_c, 9, 67, 0
5, 142800, Note_on_c, 9, 64, 107
5, 142920, Note_on_c, 9, 64, 83
5, 143016, Note_on_c, 9, 64, 0
5, 143016, Note_on_c, 9, 64, 0
5, 143520, Note_on_c, 9, 67, 74
5, 143586, Note_on_c, 9, 67, 0
5, 143760, Note_on_c, 9, 64, 103
5, 143880, Note_on_c, 9, 64, 95
5, 143974, Note_on_c, 9, 64, 0
5, 143974, Note_on_c, 9, 64, 0
5, 144480, Note_on_c, 9, 67, 90
5, 144545, Note_on_c, 9, 67, 0
5, 144720, Note_on_c, 9, 64, 98
5, 144840, Note_on_c, 9, 64, 80
5, 144939, Note_on_c, 9, 64, 0
5, 144939, Note_on_c, 9, 64, 0
5, 145440, Note_on_c, 9, 67, 74
5, 145505, Note_on_c, 9, 67, 0
5, 145680, Note_on_c, 9, 64, 98
5, 145800, Note_on_c, 9, 64, 78
5, 145896, Note_on_c, 9, 64, 0
5, 145896, Note_on_c, 9, 64, 0
5, 146400, Note_on_c, 9, 67, 88
5, 146465, Note_on_c, 9, 67, 0
5, 146640, Note_on_c, 9, 64, 107
5, 146760, Note_on_c, 9, 64, 83
5, 146856, Note_on_c, 9, 64, 0
5, 146856, Note_on_c, 9, 64, 0
5, 147360, Note_on_c, 9, 67, 74
5, 147426, Note_on_c, 9, 67, 0
5, 147600, Note_on_c, 9, 64, 103
5, 147720, Note_on_c, 9, 64, 95
5, 147816, Note_on_c, 9, 64, 0
5, 147816, Note_on_c, 9, 64, 0
5, 148320, Note_on_c, 9, 67, 90
5, 148385, Note_on_c, 9, 67, 0
5, 148560, Note_on_c, 9, 64, 98
5, 148680, Note_on_c, 9, 64, 80
5, 148778, Note_on_c, 9, 64, 0
5, 148778, Note_on_c, 9, 64, 0
5, 149280, Note_on_c, 9, 67, 74
5, 149345, Note_on_c, 9, 67, 0
5, 149520, Note_on_c, 9, 64, 98
5, 149640, Note_on_c, 9, 64, 78
5, 149738, Note_on_c, 9, 64, 0
5, 149738, Note_on_c, 9, 64, 0
5, 150240, Note_on_c, 9, 67, 90
5, 150305, Note_on_c, 9, 67, 0
5, 150480, Note_on_c, 9, 64, 98
5, 150600, Note_on_c, 9, 64, 80
5, 150699, Note_on_c, 9, 64, 0
5, 150699, Note_on_c, 9, 64, 0
5, 151200, Note_on_c, 9, 67, 74
5, 151265, Note_on_c, 9, 67, 0
5, 151440, Note_on_c, 9, 64, 98
5, 151560, Note_on_c, 9, 64, 78
5, 151656, Note_on_c, 9, 64, 0
5, 151656, Note_on_c, 9, 64, 0
5, 152160, Note_on_c, 9, 67, 98
5, 152376, Note_on_c, 9, 67, 0
5, 152400, Note_on_c, 9, 64, 107
5, 152520, Note_on_c, 9, 64, 83
5, 152616, Note_on_c, 9, 64, 0
5, 152616, Note_on_c, 9, 64, 0
5, 153120, Note_on_c, 9, 67, 84
5, 153339, Note_on_c, 9, 67, 0
5, 153360, Note_on_c, 9, 64, 103
5, 153480, Note_on_c, 9, 64, 95
5, 153576, Note_on_c, 9, 64, 0
5, 153576, Note_on_c, 9, 64, 0
5, 154080, Note_on_c, 9, 67, 100
5, 154298, Note_on_c, 9, 67, 0
5, 154320, Note_on_c, 9, 64, 98
5, 154440, Note_on_c, 9, 64, 80
5, 154539, Note_on_c, 9, 64, 0
5, 154539, Note_on_c, 9, 64, 0
5, 155040, Note_on_c, 9, 67, 84
5, 155256, Note_on_c, 9, 67, 0
5, 155280, Note_on_c, 9, 64, 98
5, 155400, Note_on_c, 9, 64, 78
5, 155496, Note_on_c, 9, 64, 0
5, 155496, Note_on_c, 9, 64, 0
5, 156000, Note_on_c, 9, 67, 98
5, 156216, Note_on_c, 9, 67, 0
5, 156240, Note_on_c, 9, 64, 107
5, 156360, Note_on_c, 9, 64, 83
5, 156456, Note_on_c, 9, 64, 0
5, 156456, Note_on_c, 9, 64, 0
5, 156960, Note_on_c, 9, 67, 84
5, 157179, Note_on_c, 9, 67, 0
5, 157200, Note_on_c, 9, 64, 103
5, 157320, Note_on_c, 9, 64, 95
5, 157416, Note_on_c, 9, 64, 0
5, 157416, Note_on_c, 9, 64, 0
5, 157920, Note_on_c, 9, 67, 98
5, 158140, Note_on_c, 9, 67, 0
5, 158160, Note_on_c, 9, 64, 107
5, 158280, Note_on_c, 9, 64, 83
5, 158376, Note_on_c, 9, 64, 0
5, 158376, Note_on_c, 9, 64, 0
5, 158880, Note_on_c, 9, 67, 84
5, 159100, Note_on_c, 9, 67, 0
5, 159120, Note_on_c, 9, 64, 103
5, 159240, Note_on_c, 9, 64, 95
5, 159334, Note_on_c, 9, 64, 0
5, 159334, Note_on_c, 9, 64, 0
5, 159840, Note_on_c, 9, 67, 100
5, 160058, Note_on_c, 9, 67, 0
5, 160080, Note_on_c, 9, 64, 98
5, 160200, Note_on_c, 9, 64, 80
5, 160299, Note_on_c, 9, 64, 0
5, 160299, Note_on_c, 9, 64, 0
5, 160800, Note_on_c, 9, 67, 84
5, 161016, Note_on_c, 9, 67, 0
5, 161040, Note_on_c, 9, 64, 98
5, 161160, Note_on_c, 9, 64, 78
5, 161256, Note_on_c, 9, 64, 0
5, 161256, Note_on_c, 9, 64, 0
5, 161760, Note_on_c, 9, 67, 98
5, 161976, Note_on_c, 9, 67, 0
5, 162000, Note_on_c, 9, 64, 107
5, 162120, Note_on_c, 9, 64, 83
5, 162216, Note_on_c, 9, 64, 0
5, 162216, Note_on_c, 9, 64, 0
5, 162720, Note_on_c, 9, 67, 84
5, 162939, Note_on_c, 9, 67, 0
5, 162960, Note_on_c, 9, 64, 103
5, 163080, Note_on_c, 9, 64, 95
5, 163176, Note_on_c, 9, 64, 0
5, 163176, Note_on_c, 9, 64, 0
5, 163680, Note_on_c, 9, 67, 100
5, 163896, Note_on_c, 9, 67, 0
5, 163920, Note_on_c, 9, 64, 98
5, 164040, Note_on_c, 9, 64, 80
5, 164138, Note_on_c, 9, 64, 0
5, 164138, Note_on_c, 9, 64, 0
5, 164640, Note_on_c, 9, 67, 84
5, 164855, Note_on_c, 9, 67, 0
5, 164880, Note_on_c, 9, 64, 98
5, 165000, Note_on_c, 9, 64, 78
5, 165098, Note_on_c, 9, 64, 0
5, 165098, Note_on_c, 9, 64, 0
5, 165600, Note_on_c, 9, 67, 100
5, 165818, Note_on_c, 9, 67, 0
5, 165840, Note_on_c, 9, 64, 98
5, 165960, Note_on_c, 9, 64, 80
5, 166059, Note_on_c, 9, 64, 0
5, 166059, Note_on_c, 9, 64, 0
5, 166560, Note_on_c, 9, 67, 84
5, 166776, Note_on_c, 9, 67, 0
5, 166800, Note_on_c, 9, 64, 98
5, 166920, Note_on_c, 9, 64, 78
5, 167016, Note_on_c, 9, 64, 0
5, 167016, Note_on_c, 9, 64, 0
5, 167520, Note_on_c, 9, 67, 98
5, 167736, Note_on_c, 9, 67, 0
5, 167760, Note_on_c, 9, 64, 107
5, 167880, Note_on_c, 9, 64, 83
5, 167976, Note_on_c, 9, 64, 0
5, 167976, Note_on_c, 9, 64, 0
5, 168480, Note_on_c, 9, 67, 84
5, 168699, Note_on_c, 9, 67, 0
5, 168720, Note_on_c, 9, 64, 103
5, 168840, Note_on_c, 9, 64, 95
5, 168936, Note_on_c, 9, 64, 0
5, 168936, Note_on_c, 9, 64, 0
5, 169440, Note_on_c, 9, 67, 100
5, 169658, Note_on_c, 9, 67, 0
5, 169680, Note_on_c, 9, 64, 98
5, 169800, Note_on_c, 9, 64, 80
5, 169899, Note_on_c, 9, 64, 0
5, 169899, Note_on_c, 9, 64, 0
5, 170400, Note_on_c, 9, 67, 84
5, 170616, Note_on_c, 9, 67, 0
5, 170640, Note_on_c, 9, 64, 98
5, 170760, Note_on_c, 9, 64, 78
5, 170856, Note_on_c, 9, 64, 0
5, 170856, Note_on_c, 9, 64, 0
5, 171360, Note_on_c, 9, 67, 98
5, 171576, Note_on_c, 9, 67, 0
5, 171600, Note_on_c, 9, 64, 107
5, 171720, Note_on_c, 9, 64, 83
5, 171816, Note_on_c, 9, 64, 0
5, 171816, Note_on_c, 9, 64, 0
5, 172320, Note_on_c, 9, 67, 84
5, 172539, Note_on_c, 9, 67, 0
5, 172560, Note_on_c, 9, 64, 103
5, 172680, Note_on_c, 9, 64, 95
5, 172776, Note_on_c, 9, 64, 0
5, 172776, Note_on_c, 9, 64, 0
5, 173280, Note_on_c, 9, 67, 98
5, 173500, Note_on_c, 9, 67, 0
5, 173520, Note_on_c, 9, 64, 107
5, 173640, Note_on_c, 9, 64, 83
5, 173736, Note_on_c, 9, 64, 0
5, 173736, Note_on_c, 9, 64, 0
5, 174240, Note_on_c, 9, 67, 84
5, 174460, Note_on_c, 9, 67, 0
5, 174480, Note_on_c, 9, 64, 103
5, 174600, Note_on_c, 9, 64, 95
5, 174694, Note_on_c, 9, 64, 0
5, 174694, Note_on_c, 9, 64, 0
5, 175200, Note_on_c, 9, 67, 100
5, 175418, Note_on_c, 9, 67, 0
5, 175440, Note_on_c, 9, 64, 98
5, 175560, Note_on_c, 9, 64, 80
5, 175659, Note_on_c, 9, 64, 0
5, 175659, Note_on_c, 9, 64, 0
5, 176160, Note_on_c, 9, 67, 84
5, 176376, Note_on_c, 9, 67, 0
5, 176400, Note_on_c, 9, 64, 98
5, 176520, Note_on_c, 9, 64, 78
5, 176616, Note_on_c, 9, 64, 0
5, 176616, Note_on_c, 9, 64, 0
5, 177120, Note_on_c, 9, 67, 98
5, 177336, Note_on_c, 9, 67, 0
5, 177360, Note_on_c, 9, 64, 107
5, 177480, Note_on_c, 9, 64, 83
5, 177576, Note_on_c, 9, 64, 0
5, 177576, Note_on_c, 9, 64, 0
5, 178080, Note_on_c, 9, 67, 84
5, 178299, Note_on_c, 9, 67, 0
5, 178320, Note_on_c, 9, 64, 103
5, 178440, Note_on_c, 9, 64, 95
5, 178536, Note_on_c, 9, 64, 0
5, 178536, Note_on_c, 9, 64, 0
5, 179040, Note_on_c, 9, 67, 100
5, 179256, Note_on_c, 9, 67, 0
5, 179280, Note_on_c, 9, 64, 98
5, 179400, Note_on_c, 9, 64, 80
5, 179498, Note_on_c, 9, 64, 0
5, 179498, Note_on_c, 9, 64, 0
5, 180000, Note_on_c, 9, 67, 84
5, 180215, Note_on_c, 9, 67, 0
5, 180240, Note_on_c, 9, 64, 98
5, 180360, Note_on_c, 9, 64, 78
5, 180458, Note_on_c, 9, 64, 0
5, 180458, Note_on_c, 9, 64, 0
5, 180960, Note_on_c, 9, 67, 100
5, 181178, Note_on_c, 9, 67, 0
5, 181200, Note_on_c, 9, 64, 98
5, 181320, Note_on_c, 9, 64, 80
5, 181419, Note_on_c, 9, 64, 0
5, 181419, Note_on_c, 9, 64, 0
5, 181920, Note_on_c, 9, 67, 84
5, 182136, Note_on_c, 9, 67, 0
5, 182160, Note_on_c, 9, 64, 98
5, 182280, Note_on_c, 9, 64, 78
5, 182376, Note_on_c, 9, 64, 0
5, 182376, Note_on_c, 9, 64, 0
5, 182880, Note_on_c, 9, 67, 98
5, 183096, Note_on_c, 9, 67, 0
5, 183120, Note_on_c, 9, 64, 107
5, 183240, Note_on_c, 9, 64, 83
5, 183336, Note_on_c, 9, 64, 0
5, 183336, Note_on_c, 9, 64, 0
5, 183840, Note_on_c, 9, 67, 84
5, 184059, Note_on_c, 9, 67, 0
5, 184080, Note_on_c, 9, 64, 103
5, 184200, Note_on_c, 9, 64, 95
5, 184296, Note_on_c, 9, 64, 0
5, 184296, Note_on_c, 9, 64, 0
5, 184800, Note_on_c, 9, 67, 100
5, 185018, Note_on_c, 9, 67, 0
5, 185040, Note_on_c, 9, 64, 98
5, 185160, Note_on_c, 9, 64, 80
5, 185259, Note_on_c, 9, 64, 0
5, 185259, Note_on_c, 9, 64, 0
5, 185760, Note_on_c, 9, 67, 84
5, 185976, Note_on_c, 9, 67, 0
5, 186000, Note_on_c, 9, 64, 98
5, 186120, Note_on_c, 9, 64, 78
5, 186216, Note_on_c, 9, 64, 0
5, 186216, Note_on_c, 9, 64, 0
5, 186720, Note_on_c, 9, 67, 98
5, 186936, Note_on_c, 9, 67, 0
5, 186960, Note_on_c, 9, 64, 107
5, 187080, Note_on_c, 9, 64, 83
5, 187176, Note_on_c, 9, 64, 0
5, 187176, Note_on_c, 9, 64, 0
5, 187680, Note_on_c, 9, 67, 84
5, 187899, Note_on_c, 9, 67, 0
5, 187920, Note_on_c, 9, 64, 103
5, 188040, Note_on_c, 9, 64, 95
5, 188136, Note_on_c, 9, 64, 0
5, 188136, Note_on_c, 9, 64, 0
5, 188640, Note_on_c, 9, 67, 98
5, 188860, Note_on_c, 9, 67, 0
5, 188880, Note_on_c, 9, 64, 107
5, 189000, Note_on_c, 9, 64, 83
5, 189096, Note_on_c, 9, 64, 0
5, 189096, Note_on_c, 9, 64, 0
5, 189600, Note_on_c, 9, 67, 84
5, 189820, Note_on_c, 9, 67, 0
5, 189840, Note_on_c, 9, 64, 103
5, 189960, Note_on_c, 9, 64, 95
5, 190054, Note_on_c, 9, 64, 0
5, 190054, Note_on_c, 9, 64, 0
5, 190560, Note_on_c, 9, 67, 100
5, 190778, Note_on_c, 9, 67, 0
5, 190800, Note_on_c, 9, 64, 98
5, 190920, Note_on_c, 9, 64, 80
5, 191019, Note_on_c, 9, 64, 0
5, 191019, Note_on_c, 9, 64, 0
5, 191520, Note_on_c, 9, 67, 84
5, 191736, Note_on_c, 9, 67, 0
5, 191760, Note_on_c, 9, 64, 98
5, 191880, Note_on_c, 9, 64, 78
5, 191976, Note_on_c, 9, 64, 0
5, 191976, Note_on_c, 9, 64, 0
5, 192480, Note_on_c, 9, 67, 98
5, 192696, Note_on_c, 9, 67, 0
5, 192720, Note_on_c, 9, 64, 107
5, 192840, Note_on_c, 9, 64, 83
5, 192936, Note_on_c, 9, 64, 0
5, 192936, Note_on_c, 9, 64, 0
5, 193440, Note_on_c, 9, 67, 84
5, 193659, Note_on_c, 9, 67, 0
5, 193680, Note_on_c, 9, 64, 103
5, 193800, Note_on_c, 9, 64, 95
5, 193896, Note_on_c, 9, 64, 0
5, 193896, Note_on_c, 9, 64, 0
5, 194400, Note_on_c, 9, 67, 100
5, 194616, Note_on_c, 9, 67, 0
5, 194640, Note_on_c, 9, 64, 98
5, 194760, Note_on_c, 9, 64, 80
5, 194858, Note_on_c, 9, 64, 0
5, 194858, Note_on_c, 9, 64, 0
5, 195360, Note_on_c, 9, 67, 84
5, 195575, Note_on_c, 9, 67, 0
5, 195600, Note_on_c, 9, 64, 98
5, 195720, Note_on_c, 9, 64, 78
5, 195818, Note_on_c, 9, 64, 0
5, 195818, Note_on_c, 9, 64, 0
5, 196320, Note_on_c, 9, 67, 100
5, 196538, Note_on_c, 9, 67, 0
5, 196560, Note_on_c, 9, 64, 98
5, 196680, Note_on_c, 9, 64, 80
5, 196779, Note_on_c, 9, 64, 0
5, 196779, Note_on_c, 9, 64, 0
5, 197280, Note_on_c, 9, 67, 84
5, 197496, Note_on_c, 9, 67, 0
5, 197520, Note_on_c, 9, 64, 98
5, 197640, Note_on_c, 9, 64, 78
5, 197736, Note_on_c, 9, 64, 0
5, 197736, Note_on_c, 9, 64, 0
5, 198240, Note_on_c, 9, 67, 98
5, 198456, Note_on_c, 9, 67, 0
5, 198480, Note_on_c, 9, 64, 107
5, 198600, Note_on_c, 9, 64, 83
5, 198696, Note_on_c, 9, 64, 0
5, 198696, Note_on_c, 9, 64, 0
5, 199200, Note_on_c, 9, 67, 84
5, 199419, Note_on_c, 9, 67, 0
5, 199440, Note_on_c, 9, 64, 103
5, 199560, Note_on_c, 9, 64, 95
5, 199656, Note_on_c, 9, 64, 0
5, 199656, Note_on_c, 9, 64, 0
5, 200160, Note_on_c, 9, 67, 100
5, 200378, Note_on_c, 9, 67, 0
5, 200400, Note_on_c, 9, 64, 98
5, 200520, Note_on_c, 9, 64, 80
5, 200619, Note_on_c, 9, 64, 0
5, 200619, Note_on_c, 9, 64, 0
5, 201120, Note_on_c, 9, 67, 84
5, 201336, Note_on_c, 9, 67, 0
5, 201360, Note_on_c, 9, 64, 98
5, 201480, Note_on_c, 9, 64, 78
5, 201576, Note_on_c, 9, 64, 0
5, 201576, Note_on_c, 9, 64, 0
5, 202080, Note_on_c, 9, 67, 98
5, 202296, Note_on_c, 9, 67, 0
5, 202320, Note_on_c, 9, 64, 107
5, 202440, Note_on_c, 9, 64, 83
5, 202536, Note_on_c, 9, 64, 0
5, 202536, Note_on_c, 9, 64, 0
5, 203040, Note_on_c, 9, 67, 84
5, 203259, Note_on_c, 9, 67, 0
5, 203280, Note_on_c, 9, 64, 103
5, 203400, Note_on_c, 9, 64, 95
5, 203496, Note_on_c, 9, 64, 0
5, 203496, Note_on_c, 9, 64, 0
5, 204000, Note_on_c, 9, 67, 98
5, 204220, Note_on_c, 9, 67, 0
5, 204240, Note_on_c, 9, 64, 107
5, 204360, Note_on_c, 9, 64, 83
5, 204456, Note_on_c, 9, 64, 0
5, 204456, Note_on_c, 9, 64, 0
5, 204960, Note_on_c, 9, 67, 84
5, 205180, Note_on_c, 9, 67, 0
5, 205200, Note_on_c, 9, 64, 103
5, 205320, Note_on_c, 9, 64, 95
5, 205414, Note_on_c, 9, 64, 0
5, 205414, Note_on_c, 9, 64, 0
5, 205920, Note_on_c, 9, 67, 100
5, 206138, Note_on_c, 9, 67, 0
5, 206160, Note_on_c, 9, 64, 98
5, 206280, Note_on_c, 9, 64, 80
5, 206379, Note_on_c, 9, 64, 0
5, 206379, Note_on_c, 9, 64, 0
5, 206880, Note_on_c, 9, 67, 84
5, 207096, Note_on_c, 9, 67, 0
5, 207120, Note_on_c, 9, 64, 98
5, 207240, Note_on_c, 9, 64, 78
5, 207336, Note_on_c, 9, 64, 0
5, 207336, Note_on_c, 9, 64, 0
5, 207840, Note_on_c, 9, 67, 98
5, 208056, Note_on_c, 9, 67, 0
5, 208080, Note_on_c, 9, 64, 107
5, 208200, Note_on_c, 9, 64, 83
5, 208296, Note_on_c, 9, 64, 0
5, 208296, Note_on_c, 9, 64, 0
5, 208800, Note_on_c, 9, 67, 84
5, 209019, Note_on_c, 9, 67, 0
5, 209040, Note_on_c, 9, 64, 103
5, 209160, Note_on_c, 9, 64, 95
5, 209256, Note_on_c, 9, 64, 0
5, 209256, Note_on_c, 9, 64, 0
5, 209760, Note_on_c, 9, 67, 100
5, 209976, Note_on_c, 9, 67, 0
5, 210000, Note_on_c, 9, 64, 98
5, 210120, Note_on_c, 9, 64, 80
5, 210218, Note_on_c, 9, 64, 0
5, 210218, Note_on_c, 9, 64, 0
5, 210720, Note_on_c, 9, 67, 84
5, 210935, Note_on_c, 9, 67, 0
5, 210960, Note_on_c, 9, 64, 98
5, 211080, Note_on_c, 9, 64, 78
5, 211178, Note_on_c, 9, 64, 0
5, 211178, Note_on_c, 9, 64, 0
5, 211680, Note_on_c, 9, 67, 100
5, 211898, Note_on_c, 9, 67, 0
5, 211920, Note_on_c, 9, 64, 98
5, 212040, Note_on_c, 9, 64, 80
5, 212139, Note_on_c, 9, 64, 0
5, 212139, Note_on_c, 9, 64, 0
5, 212640, Note_on_c, 9, 67, 84
5, 212856, Note_on_c, 9, 67, 0
5, 212880, Note_on_c, 9, 64, 98
5, 213000, Note_on_c, 9, 64, 78
5, 213096, Note_on_c, 9, 64, 0
5, 213096, Note_on_c, 9, 64, 0
5, 213600, Note_on_c, 9, 67, 98
5, 213816, Note_on_c, 9, 67, 0
5, 213840, Note_on_c, 9, 64, 107
5, 213960, Note_on_c, 9, 64, 83
5, 214056, Note_on_c, 9, 64, 0
5, 214056, Note_on_c, 9, 64, 0
5, 214560, Note_on_c, 9, 67, 84
5, 214779, Note_on_c, 9, 67, 0
5, 214800, Note_on_c, 9, 64, 103
5, 214920, Note_on_c, 9, 64, 95
5, 215016, Note_on_c, 9, 64, 0
5, 215016, Note_on_c, 9, 64, 0
5, 215520, Note_on_c, 9, 67, 100
5, 215738, Note_on_c, 9, 67, 0
5, 215760, Note_on_c, 9, 64, 98
5, 215880, Note_on_c, 9, 64, 80
5, 215979, Note_on_c, 9, 64, 0
5, 215979, Note_on_c, 9, 64, 0
5, 216480, Note_on_c, 9, 67, 84
5, 216696, Note_on_c, 9, 67, 0
5, 216720, Note_on_c, 9, 64, 98
5, 216840, Note_on_c, 9, 64, 78
5, 216936, Note_on_c, 9, 64, 0
5, 216936, Note_on_c, 9, 64, 0
5, 217440, Note_on_c, 9, 67, 98
5, 217656, Note_on_c, 9, 67, 0
5, 217680, Note_on_c, 9, 64, 107
5, 217800, Note_on_c, 9, 64, 83
5, 217896, Note_on_c, 9, 64, 0
5, 217896, Note_on_c, 9, 64, 0
5, 218400, Note_on_c, 9, 67, 84
5, 218619, Note_on_c, 9, 67, 0
5, 218640, Note_on_c, 9, 64, 103
5, 218760, Note_on_c, 9, 64, 95
5, 218856, Note_on_c, 9, 64, 0
5, 218856, Note_on_c, 9, 64, 0
5, 219360, Note_on_c, 9, 67, 98
5, 219580, Note_on_c, 9, 67, 0
5, 219600, Note_on_c, 9, 64, 107
5, 219720, Note_on_c, 9, 64, 83
5, 219816, Note_on_c, 9, 64, 0
5, 219816, Note_on_c, 9, 64, 0
5, 220320, Note_on_c, 9, 67, 84
5, 220540, Note_on_c, 9, 67, 0
5, 220560, Note_on_c, 9, 64, 103
5, 220680, Note_on_c, 9, 64, 95
5, 220774, Note_on_c, 9, 64, 0
5, 220774, Note_on_c, 9, 64, 0
5, 221280, Note_on_c, 9, 67, 100
5, 221498, Note_on_c, 9, 67, 0
5, 221520, Note_on_c, 9, 64, 98
5, 221640, Note_on_c, 9, 64, 80
5, 221739, Note_on_c, 9, 64, 0
5, 221739, Note_on_c, 9, 64, 0
5, 222240, Note_on_c, 9, 67, 84
5, 222456, Note_on_c, 9, 67, 0
5, 222480, Note_on_c, 9, 64, 98
5, 222600, Note_on_c, 9, 64, 78
5, 222696, Note_on_c, 9, 64, 0
5, 222696, Note_on_c, 9, 64, 0
5, 223200, Note_on_c, 9, 67, 98
5, 223416, Note_on_c, 9, 67, 0
5, 223440, Note_on_c, 9, 64, 107
5, 223560, Note_on_c, 9, 64, 83
5, 223656, Note_on_c, 9, 64, 0
5, 223656, Note_on_c, 9, 64, 0
5, 224160, Note_on_c, 9, 67, 84
5, 224379, Note_on_c, 9, 67, 0
5, 224400, Note_on_c, 9, 64, 103
5, 224520, Note_on_c, 9, 64, 95
5, 224616, Note_on_c, 9, 64, 0
5, 224616, Note_on_c, 9, 64, 0
5, 225120, Note_on_c, 9, 67, 100
5, 225336, Note_on_c, 9, 67, 0
5, 225360, Note_on_c, 9, 64, 98
5, 225480, Note_on_c, 9, 64, 80
5, 225578, Note_on_c, 9, 64, 0
5, 225578, Note_on_c, 9, 64, 0
5, 226080, Note_on_c, 9, 67, 84
5, 226295, Note_on_c, 9, 67, 0
5, 226320, Note_on_c, 9, 64, 98
5, 226440, Note_on_c, 9, 64, 78
5, 226538, Note_on_c, 9, 64, 0
5, 226538, Note_on_c, 9, 64, 0
5, 227040, Note_on_c, 9, 67, 100
5, 227258, Note_on_c, 9, 67, 0
5, 227280, Note_on_c, 9, 64, 98
5, 227400, Note_on_c, 9, 64, 80
5, 227499, Note_on_c, 9, 64, 0
5, 227499, Note_on_c, 9, 64, 0
5, 228000, Note_on_c, 9, 67, 84
5, 228216, Note_on_c, 9, 67, 0
5, 228240, Note_on_c, 9, 64, 98
5, 228360, Note_on_c, 9, 64, 78
5, 228456, Note_on_c, 9, 64, 0
5, 228456, Note_on_c, 9, 64, 0
5, 228960, Note_on_c, 9, 67, 98
5, 229176, Note_on_c, 9, 67, 0
5, 229200, Note_on_c, 9, 64, 107
5, 229320, Note_on_c, 9, 64, 83
5, 229416, Note_on_c, 9, 64, 0
5, 229416, Note_on_c, 9, 64, 0
5, 229920, Note_on_c, 9, 67, 84
5, 230139, Note_on_c, 9, 67, 0
5, 230160, Note_on_c, 9, 64, 103
5, 230280, Note_on_c, 9, 64, 95
5, 230376, Note_on_c, 9, 64, 0
5, 230376, Note_on_c, 9, 64, 0
5, 230880, Note_on_c, 9, 67, 100
5, 231098, Note_on_c, 9, 67, 0
5, 231120, Note_on_c, 9, 64, 98
5, 231240, Note_on_c, 9, 64, 80
5, 231339, Note_on_c, 9, 64, 0
5, 231339, Note_on_c, 9, 64, 0
5, 231840, Note_on_c, 9, 67, 84
5, 232056, Note_on_c, 9, 67, 0
5, 232080, Note_on_c, 9, 64, 98
5, 232200, Note_on_c, 9, 64, 78
5, 232296, Note_on_c, 9, 64, 0
5, 232296, Note_on_c, 9, 64, 0
5, 232800, Note_on_c, 9, 67, 98
5, 233016, Note_on_c, 9, 67, 0
5, 233040, Note_on_c, 9, 64, 107
5, 233160, Note_on_c, 9, 64, 83
5, 233256, Note_on_c, 9, 64, 0
5, 233256, Note_on_c, 9, 64, 0
5, 233760, Note_on_c, 9, 67, 84
5, 233979, Note_on_c, 9, 67, 0
5, 234000, Note_on_c, 9, 64, 103
5, 234120, Note_on_c, 9, 64, 95
5, 234216, Note_on_c, 9, 64, 0
5, 234216, Note_on_c, 9, 64, 0
5, 234720, Note_on_c, 9, 67, 98
5, 234940, Note_on_c, 9, 67, 0
5, 234960, Note_on_c, 9, 64, 107
5, 235080, Note_on_c, 9, 64, 83
5, 235176, Note_on_c, 9, 64, 0
5, 235176, Note_on_c, 9, 64, 0
5, 235680, Note_on_c, 9, 67, 84
5, 235900, Note_on_c, 9, 67, 0
5, 235920, Note_on_c, 9, 64, 103
5, 236040, Note_on_c, 9, 64, 95
5, 236134, Note_on_c, 9, 64, 0
5, 236134, Note_on_c, 9, 64, 0
5, 236640, Note_on_c, 9, 67, 100
5, 236858, Note_on_c, 9, 67, 0
5, 236880, Note_on_c, 9, 64, 98
5, 237000, Note_on_c, 9, 64, 80
5, 237099, Note_on_c, 9, 64, 0
5, 237099, Note_on_c, 9, 64, 0
5, 237600, Note_on_c, 9, 67, 84
5, 237816, Note_on_c, 9, 67, 0
5, 237840, Note_on_c, 9, 64, 98
5, 237960, Note_on_c, 9, 64, 78
5, 238056, Note_on_c, 9, 64, 0
5, 238056, Note_on_c, 9, 64, 0
5, 238560, Note_on_c, 9, 67, 98
5, 238776, Note_on_c, 9, 67, 0
5, 238800, Note_on_c, 9, 64, 107
5, 238920, Note_on_c, 9, 64, 83
5, 239016, Note_on_c, 9, 64, 0
5, 239016, Note_on_c, 9, 64, 0
5, 239520, Note_on_c, 9, 67, 84
5, 239739, Note_on_c, 9, 67, 0
5, 239760, Note_on_c, 9, 64, 103
5, 239880, Note_on_c, 9, 64, 95
5, 239976, Note_on_c, 9, 64, 0
5, 239976, Note_on_c, 9, 64, 0
5, 240480, Note_on_c, 9, 67, 100
5, 240696, Note_on_c, 9, 67, 0
5, 240720, Note_on_c, 9, 64, 98
5, 240840, Note_on_c, 9, 64, 80
5, 240938, Note_on_c, 9, 64, 0
5, 240938, Note_on_c, 9, 64, 0
5, 241440, Note_on_c, 9, 67, 84
5, 241655, Note_on_c, 9, 67, 0
5, 241680, Note_on_c, 9, 64, 98
5, 241800, Note_on_c, 9, 64, 78
5, 241898, Note_on_c, 9, 64, 0
5, 241898, Note_on_c, 9, 64, 0
5, 242400, Note_on_c, 9, 67, 100
5, 242618, Note_on_c, 9, 67, 0
5, 242640, Note_on_c, 9, 64, 98
5, 242760, Note_on_c, 9, 64, 80
5, 242859, Note_on_c, 9, 64, 0
5, 242859, Note_on_c, 9, 64, 0
5, 243360, Note_on_c, 9, 67, 84
5, 243576, Note_on_c, 9, 67, 0
5, 243600, Note_on_c, 9, 64, 98
5, 243720, Note_on_c, 9, 64, 78
5, 243816, Note_on_c, 9, 64, 0
5, 243816, Note_on_c, 9, 64, 0
5, 244320, Note_on_c, 9, 67, 98
5, 244536, Note_on_c, 9, 67, 0
5, 244560, Note_on_c, 9, 64, 107
5, 244680, Note_on_c, 9, 64, 83
5, 244776, Note_on_c, 9, 64, 0
5, 244776, Note_on_c, 9, 64, 0
5, 245280, Note_on_c, 9, 67, 84
5, 245499, Note_on_c, 9, 67, 0
5, 245520, Note_on_c, 9, 64, 103
5, 245640, Note_on_c, 9, 64, 95
5, 245736, Note_on_c, 9, 64, 0
5, 245736, Note_on_c, 9, 64, 0
5, 246240, Note_on_c, 9, 67, 100
5, 246458, Note_on_c, 9, 67, 0
5, 246480, Note_on_c, 9, 64, 98
5, 246600, Note_on_c, 9, 64, 80
5, 246699, Note_on_c, 9, 64, 0
5, 246699, Note_on_c, 9, 64, 0
5, 247200, Note_on_c, 9, 67, 84
5, 247416, Note_on_c, 9, 67, 0
5, 247440, Note_on_c, 9, 64, 98
5, 247560, Note_on_c, 9, 64, 78
5, 247656, Note_on_c, 9, 64, 0
5, 247656, Note_on_c, 9, 64, 0
5, 248160, Note_on_c, 9, 67, 98
5, 248376, Note_on_c, 9, 67, 0
5, 248400, Note_on_c, 9, 64, 107
5, 248520, Note_on_c, 9, 64, 83
5, 248616, Note_on_c, 9, 64, 0
5, 248616, Note_on_c, 9, 64, 0
5, 249120, Note_on_c, 9, 67, 84
5, 249339, Note_on_c, 9, 67, 0
5, 249360, Note_on_c, 9, 64, 103
5, 249480, Note_on_c, 9, 64, 95
5, 249576, Note_on_c, 9, 64, 0
5, 249576, Note_on_c, 9, 64, 0
5, 250080, Note_on_c, 9, 67, 98
5, 250300, Note_on_c, 9, 67, 0
5, 250320, Note_on_c, 9, 64, 107
5, 250440, Note_on_c, 9, 64, 83
5, 250536, Note_on_c, 9, 64, 0
5, 250536, Note_on_c, 9, 64, 0
5, 251040, Note_on_c, 9, 67, 84
5, 251260, Note_on_c, 9, 67, 0
5, 251280, Note_on_c, 9, 64, 103
5, 251400, Note_on_c, 9, 64, 95
5, 251494, Note_on_c, 9, 64, 0
5, 251494, Note_on_c, 9, 64, 0
5, 252000, Note_on_c, 9, 67, 100
5, 252218, Note_on_c, 9, 67, 0
5, 252240, Note_on_c, 9, 64, 98
5, 252360, Note_on_c, 9, 64, 80
5, 252459, Note_on_c, 9, 64, 0
5, 252459, Note_on_c, 9, 64, 0
5, 252960, Note_on_c, 9, 67, 84
5, 253176, Note_on_c, 9, 67, 0
5, 253200, Note_on_c, 9, 64, 98
5, 253320, Note_on_c, 9, 64, 78
5, 253416, Note_on_c, 9, 64, 0
5, 253416, Note_on_c, 9, 64, 0
5, 253920, Note_on_c, 9, 67, 98
5, 254136, Note_on_c, 9, 67, 0
5, 254160, Note_on_c, 9, 64, 107
5, 254280, Note_on_c, 9, 64, 83
5, 254376, Note_on_c, 9, 64, 0
5, 254376, Note_on_c, 9, 64, 0
5, 254880, Note_on_c, 9, 67, 84
5, 255099, Note_on_c, 9, 67, 0
5, 255120, Note_on_c, 9, 64, 103
5, 255240, Note_on_c, 9, 64, 95
5, 255336, Note_on_c, 9, 64, 0
5, 255336, Note_on_c, 9, 64, 0
5, 255840, Note_on_c, 9, 67, 100
5, 256056, Note_on_c, 9, 67, 0
5, 256080, Note_on_c, 9, 64, 98
5, 256200, Note_on_c, 9, 64, 80
5, 256298, Note_on_c, 9, 64, 0
5, 256298, Note_on_c, 9, 64, 0
5, 256800, Note_on_c, 9, 67, 84
5, 257015, Note_on_c, 9, 67, 0
5, 257040, Note_on_c, 9, 64, 98
5, 257160, Note_on_c, 9, 64, 78
5, 257258, Note_on_c, 9, 64, 0
5, 257258, Note_on_c, 9, 64, 0
5, 257760, Note_on_c, 9, 67, 100
5, 257978, Note_on_c, 9, 67, 0
5, 258000, Note_on_c, 9, 64, 98
5, 258120, Note_on_c, 9, 64, 80
5, 258219, Note_on_c, 9, 64, 0
5, 258219, Note_on_c, 9, 64, 0
5, 258720, Note_on_c, 9, 67, 84
5, 258936, Note_on_c, 9, 67, 0
5, 258960, Note_on_c, 9, 64, 98
5, 259080, Note_on_c, 9, 64, 78
5, 259176, Note_on_c, 9, 64, 0
5, 259176, Note_on_c, 9, 64, 0
5, 259680, Note_on_c, 9, 67, 98
5, 259896, Note_on_c, 9, 67, 0
5, 259920, Note_on_c, 9, 64, 107
5, 260040, Note_on_c, 9, 64, 83
5, 260136, Note_on_c, 9, 64, 0
5, 260136, Note_on_c, 9, 64, 0
5, 260640, Note_on_c, 9, 67, 84
5, 260859, Note_on_c, 9, 67, 0
5, 260880, Note_on_c, 9, 64, 103
5, 261000, Note_on_c, 9, 64, 95
5, 261096, Note_on_c, 9, 64, 0
5, 261096, Note_on_c, 9, 64, 0
5, 261600, Note_on_c, 9, 67, 100
5, 261818, Note_on_c, 9, 67, 0
5, 261840, Note_on_c, 9, 64, 98
5, 261960, Note_on_c, 9, 64, 80
5, 262059, Note_on_c, 9, 64, 0
5, 262059, Note_on_c, 9, 64, 0
5, 262560, Note_on_c, 9, 67, 84
5, 262776, Note_on_c, 9, 67, 0
5, 262800, Note_on_c, 9, 64, 98
5, 262920, Note_on_c, 9, 64, 78
5, 263016, Note_on_c, 9, 64, 0
5, 263016, Note_on_c, 9, 64, 0
5, 263520, Note_on_c, 9, 67, 98
5, 263736, Note_on_c, 9, 67, 0
5, 263760, Note_on_c, 9, 64, 107
5, 263880, Note_on_c, 9, 64, 83
5, 263976, Note_on_c, 9, 64, 0
5, 263976, Note_on_c, 9, 64, 0
5, 264480, Note_on_c, 9, 67, 84
5, 264699, Note_on_c, 9, 67, 0
5, 264720, Note_on_c, 9, 64, 103
5, 264840, Note_on_c, 9, 64, 95
5, 264936, Note_on_c, 9, 64, 0
5, 264936, Note_on_c, 9, 64, 0
5, 265440, Note_on_c, 9, 67, 98
5, 265660, Note_on_c, 9, 67, 0
5, 265680, Note_on_c, 9, 64, 107
5, 265800, Note_on_c, 9, 64, 83
5, 265896, Note_on_c, 9, 64, 0
5, 265896, Note_on_c, 9, 64, 0
5, 266400, Note_on_c, 9, 67, 84
5, 266620, Note_on_c, 9, 67, 0
5, 266640, Note_on_c, 9, 64, 103
5, 266760, Note_on_c, 9, 64, 95
5, 266854, Note_on_c, 9, 64, 0
5, 266854, Note_on_c, 9, 64, 0
5, 267360, Note_on_c, 9, 67, 100
5, 267578, Note_on_c, 9, 67, 0
5, 267600, Note_on_c, 9, 64, 98
5, 267720, Note_on_c, 9, 64, 80
5, 267819, Note_on_c, 9, 64, 0
5, 267819, Note_on_c, 9, 64, 0
5, 268320, Note_on_c, 9, 67, 84
5, 268536, Note_on_c, 9, 67, 0
5, 268560, Note_on_c, 9, 64, 98
5, 268680, Note_on_c, 9, 64, 78
5, 268776, Note_on_c, 9, 64, 0
5, 268776, Note_on_c, 9, 64, 0
5, 269280, Note_on_c, 9, 67, 98
5, 269496, Note_on_c, 9, 67, 0
5, 269520, Note_on_c, 9, 64, 107
5, 269640, Note_on_c, 9, 64, 83
5, 269736, Note_on_c, 9, 64, 0
5, 269736, Note_on_c, 9, 64, 0
5, 270240, Note_on_c, 9, 67, 84
5, 270459, Note_on_c, 9, 67, 0
5, 270480, Note_on_c, 9, 64, 103
5, 270600, Note_on_c, 9, 64, 95
5, 270696, Note_on_c, 9, 64, 0
5, 270696, Note_on_c, 9, 64, 0
5, 271200, Note_on_c, 9, 67, 100
5, 271416, Note_on_c, 9, 67, 0
5, 271440, Note_on_c, 9, 64, 98
5, 271560, Note_on_c, 9, 64, 80
5, 271658, Note_on_c, 9, 64, 0
5, 271658, Note_on_c, 9, 64, 0
5, 272160, Note_on_c, 9, 67, 84
5, 272375, Note_on_c, 9, 67, 0
5, 272400, Note_on_c, 9, 64, 98
5, 272520, Note_on_c, 9, 64, 78
5, 272618, Note_on_c, 9, 64, 0
5, 272618, Note_on_c, 9, 64, 0
5, 273120, Note_on_c, 9, 67, 100
5, 273338, Note_on_c, 9, 67, 0
5, 273360, Note_on_c, 9, 64, 98
5, 273480, Note_on_c, 9, 64, 80
5, 273579, Note_on_c, 9, 64, 0
5, 273579, Note_on_c, 9, 64, 0
5, 274080, Note_on_c, 9, 67, 84
5, 274296, Note_on_c, 9, 67, 0
5, 274320, Note_on_c, 9, 64, 98
5, 274440, Note_on_c, 9, 64, 78
5, 274536, Note_on_c, 9, 64, 0
5, 274536, Note_on_c, 9, 64, 0
5, 275040, Note_on_c, 9, 67, 98
5, 275256, Note_on_c, 9, 67, 0
5, 275280, Note_on_c, 9, 64, 107
5, 275400, Note_on_c, 9, 64, 83
5, 275496, Note_on_c, 9, 64, 0
5, 275496, Note_on_c, 9, 64, 0
5, 276000, Note_on_c, 9, 67, 84
5, 276219, Note_on_c, 9, 67, 0
5, 276240, Note_on_c, 9, 64, 103
5, 276360, Note_on_c, 9, 64, 95
5, 276456, Note_on_c, 9, 64, 0
5, 276456, Note_on_c, 9, 64, 0
5, 276960, Note_on_c, 9, 67, 100
5, 277178, Note_on_c, 9, 67, 0
5, 277200, Note_on_c, 9, 64, 98
5, 277320, Note_on_c, 9, 64, 80
5, 277419, Note_on_c, 9, 64, 0
5, 277419, Note_on_c, 9, 64, 0
5, 277920, Note_on_c, 9, 67, 84
5, 278136, Note_on_c, 9, 67, 0
5, 278160, Note_on_c, 9, 64, 98
5, 278280, Note_on_c, 9, 64, 78
5, 278376, Note_on_c, 9, 64, 0
5, 278376, Note_on_c, 9, 64, 0
5, 278880, Note_on_c, 9, 67, 98
5, 279096, Note_on_c, 9, 67, 0
5, 279120, Note_on_c, 9, 64, 107
5, 279240, Note_on_c, 9, 64, 83
5, 279336, Note_on_c, 9, 64, 0
5, 279336, Note_on_c, 9, 64, 0
5, 279840, Note_on_c, 9, 67, 84
5, 280059, Note_on_c, 9, 67, 0
5, 280080, Note_on_c, 9, 64, 103
5, 280200, Note_on_c, 9, 64, 95
5, 280296, Note_on_c, 9, 64, 0
5, 280296, Note_on_c, 9, 64, 0
5, 284160, End_track
6, 0, Start_track
6, 0, Text_t, "conga"
6, 4080, Note_on_c, 9, 63, 103
6, 4298, Note_on_c, 9, 63, 0
6, 4920, Note_on_c, 9, 63, 103
6, 5139, Note_on_c, 9, 63, 0
6, 5280, Note_on_c, 9, 62, 111
6, 5500, Note_on_c, 9, 62, 0
6, 6000, Note_on_c, 9, 63, 103
6, 6216, Note_on_c, 9, 63, 0
6, 6840, Note_on_c, 9, 62, 103
6, 7055, Note_on_c, 9, 62, 0
6, 7920, Note_on_c, 9, 63, 103
6, 8138, Note_on_c, 9, 63, 0
6, 8760, Note_on_c, 9, 63, 103
6, 8979, Note_on_c, 9, 63, 0
6, 9120, Note_on_c, 9, 62, 111
6, 9337, Note_on_c, 9, 62, 0
6, 9840, Note_on_c, 9, 62, 103
6, 10056, Note_on_c, 9, 62, 0
6, 10680, Note_on_c, 9, 62, 103
6, 10897, Note_on_c, 9, 62, 0
6, 11760, Note_on_c, 9, 63, 103
6, 11976, Note_on_c, 9, 63, 0
6, 12600, Note_on_c, 9, 62, 103
6, 12815, Note_on_c, 9, 62, 0
6, 13680, Note_on_c, 9, 63, 103
6, 13898, Note_on_c, 9, 63, 0
6, 14520, Note_on_c, 9, 63, 103
6, 14739, Note_on_c, 9, 63, 0
6, 14880, Note_on_c, 9, 62, 111
6, 15097, Note_on_c, 9, 62, 0
6, 15600, Note_on_c, 9, 63, 103
6, 15816, Note_on_c, 9, 63, 0
6, 16440, Note_on_c, 9, 62, 103
6, 16655, Note_on_c, 9, 62, 0
6, 17520, Note_on_c, 9, 63, 103
6, 17738, Note_on_c, 9, 63, 0
6, 18360, Note_on_c, 9, 63, 103
6, 18579, Note_on_c, 9, 63, 0
6, 18720, Note_on_c, 9, 62, 111
6, 18937, Note_on_c, 9, 62, 0
6, 19440, Note_on_c, 9, 63, 103
6, 19658, Note_on_c, 9, 63, 0
6, 20280, Note_on_c, 9, 63, 103
6, 20499, Note_on_c, 9, 63, 0
6, 20640, Note_on_c, 9, 62, 111
6, 20860, Note_on_c, 9, 62, 0
6, 21360, Note_on_c, 9, 63, 103
6, 21576, Note_on_c, 9, 63, 0
6, 22200, Note_on_c, 9, 62, 103
6, 22415, Note_on_c, 9, 62, 0
6, 23280, Note_on_c, 9, 63, 103
6, 23498, Note_on_c, 9, 63, 0
6, 24120, Note_on_c, 9, 63, 103
6, 24339, Note_on_c, 9, 63, 0
6, 24480, Note_on_c, 9, 62, 111
6, 24697, Note_on_c, 9, 62, 0
6, 25200, Note_on_c, 9, 62, 103
6, 25416, Note_on_c, 9, 62, 0
6, 26040, Note_on_c, 9, 62, 103
6, 26257, Note_on_c, 9, 62, 0
6, 27120, Note_on_c, 9, 63, 103
6, 27336, Note_on_c, 9, 63, 0
6, 27960, Note_on_c, 9, 62, 103
6, 28175, Note_on_c, 9, 62, 0
6, 29040, Note_on_c, 9, 63, 103
6, 29258, Note_on_c, 9, 63, 0
6, 29880, Note_on_c, 9, 63, 103
6, 30099, Note_on_c, 9, 63, 0
6, 30240, Note_on_c, 9, 62, 111
6, 30457, Note_on_c, 9, 62, 0
6, 30960, Note_on_c, 9, 63, 103
6, 31176, Note_on_c, 9, 63, 0
6, 31800, Note_on_c, 9, 62, 103
6, 32015, Note_on_c, 9, 62, 0
6, 32880, Note_on_c, 9, 63, 103
6, 33098, Note_on_c, 9, 63, 0
6, 33720, Note_on_c, 9, 63, 103
6, 33939, Note_on_c, 9, 63, 0
6, 34080, Note_on_c, 9, 62, 111
6, 34297, Note_on_c, 9, 62, 0
6, 34800, Note_on_c, 9, 63, 103
6, 35018, Note_on_c, 9, 63, 0
6, 35640, Note_on_c, 9, 63, 103
6, 35859, Note_on_c, 9, 63, 0
6, 36000, Note_on_c, 9, 62, 111
6, 36220, Note_on_c, 9, 62, 0
6, 36720, Note_on_c, 9, 63, 103
6, 36936, Note_on_c, 9, 63, 0
6, 37560, Note_on_c, 9, 62, 103
6, 37775, Note_on_c, 9, 62, 0
6, 38640, Note_on_c, 9, 63, 103
6, 38858, Note_on_c, 9, 63, 0
6, 39480, Note_on_c, 9, 63, 103
6, 39699, Note_on_c, 9, 63, 0
6, 39840, Note_on_c, 9, 62, 111
6, 40057, Note_on_c, 9, 62, 0
6, 40560, Note_on_c, 9, 62, 103
6, 40776, Note_on_c, 9, 62, 0
6, 41400, Note_on_c, 9, 62, 103
6, 41617, Note_on_c, 9, 62, 0
6, 42480, Note_on_c, 9, 63, 103
6, 42696, Note_on_c, 9, 63, 0
6, 43320, Note_on_c, 9, 62, 103
6, 43535, Note_on_c, 9, 62, 0
6, 44400, Note_on_c, 9, 63, 103
6, 44618, Note_on_c, 9, 63, 0
6, 45240, Note_on_c, 9, 63, 103
6, 45459, Note_on_c, 9, 63, 0
6, 45600, Note_on_c, 9, 62, 111
6, 45817, Note_on_c, 9, 62, 0
6, 46320, Note_on_c, 9, 63, 103
6, 46536, Note_on_c, 9, 63, 0
6, 47160, Note_on_c, 9, 62, 103
6, 47375, Note_on_c, 9, 62, 0
6, 48240, Note_on_c, 9, 63, 103
6, 48458, Note_on_c, 9, 63, 0
6, 49080, Note_on_c, 9, 63, 103
6, 49299, Note_on_c, 9, 63, 0
6, 49440, Note_on_c, 9, 62, 111
6, 49657, Note_on_c, 9, 62, 0
6, 50160, Note_on_c, 9, 63, 103
6, 50378, Note_on_c, 9, 63, 0
6, 51000, Note_on_c, 9, 63, 103
6, 51219, Note_on_c, 9, 63, 0
6, 51360, Note_on_c, 9, 62, 111
6, 51580, Note_on_c, 9, 62, 0
6, 52080, Note_on_c, 9, 63, 103
6, 52296, Note_on_c, 9, 63, 0
6, 52920, Note_on_c, 9, 62, 103
6, 53135, Note_on_c, 9, 62, 0
6, 54000, Note_on_c, 9, 63, 103
6, 54218, Note_on_c, 9, 63, 0
6, 54840, Note_on_c, 9, 63, 103
6, 55059, Note_on_c, 9, 63, 0
6, 55200, Note_on_c, 9, 62, 111
6, 55417, Note_on_c, 9, 62, 0
6, 55920, Note_on_c, 9, 62, 103
6, 56136, Note_on_c, 9, 62, 0
6, 56760, Note_on_c, 9, 62, 103
6, 56977, Note_on_c, 9, 62, 0
6, 57840, Note_on_c, 9, 63, 103
6, 58056, Note_on_c, 9, 63, 0
6, 58680, Note_on_c, 9, 62, 103
6, 58895, Note_on_c, 9, 62, 0
6, 59760, Note_on_c, 9, 63, 103
6, 59978, Note_on_c, 9, 63, 0
6, 60600, Note_on_c, 9, 63, 103
6, 60819, Note_on_c, 9, 63, 0
6, 60960, Note_on_c, 9, 62, 111
6, 61177, Note_on_c, 9, 62, 0
6, 61680, Note_on_c, 9, 63, 103
6, 61896, Note_on_c, 9, 63, 0
6, 62520, Note_on_c, 9, 62, 103
6, 62735, Note_on_c, 9, 62, 0
6, 63600, Note_on_c, 9, 63, 103
6, 63818, Note_on_c, 9, 63, 0
6, 64440, Note_on_c, 9, 63, 103
6, 64659, Note_on_c, 9, 63, 0
6, 64800, Note_on_c, 9, 62, 111
6, 65017, Note_on_c, 9, 62, 0
6, 65520, Note_on_c, 9, 63, 103
6, 65738, Note_on_c, 9, 63, 0
6, 66360, Note_on_c, 9, 63, 103
6, 66579, Note_on_c, 9, 63, 0
6, 66720, Note_on_c, 9, 62, 111
6, 66940, Note_on_c, 9, 62, 0
6, 67440, Note_on_c, 9, 63, 103
6, 67656, Note_on_c, 9, 63, 0
6, 68280, Note_on_c, 9, 62, 103
6, 68495, Note_on_c, 9, 62, 0
6, 69360, Note_on_c, 9, 63, 103
6, 69578, Note_on_c, 9, 63, 0
6, 70200, Note_on_c, 9, 63, 103
6, 70419, Note_on_c, 9, 63, 0
6, 70560, Note_on_c, 9, 62, 111
6, 70777, Note_on_c, 9, 62, 0
6, 71280, Note_on_c, 9, 62, 103
6, 71496, Note_on_c, 9, 62, 0
6, 72120, Note_on_c, 9, 62, 103
6, 72337, Note_on_c, 9, 62, 0
6, 73200, Note_on_c, 9, 63, 103
6, 73416, Note_on_c, 9, 63, 0
6, 74040, Note_on_c, 9, 62, 103
6, 74255, Note_on_c, 9, 62, 0
6, 75120, Note_on_c, 9, 63, 103
6, 75338, Note_on_c, 9, 63, 0
6, 75960, Note_on_c, 9, 63, 103
6, 76179, Note_on_c, 9, 63, 0
6, 76320, Note_on_c, 9, 62, 111
6, 76537, Note_on_c, 9, 62, 0
6, 77040, Note_on_c, 9, 63, 103
6, 77256, Note_on_c, 9, 63, 0
6, 77880, Note_on_c, 9, 62, 103
6, 78095, Note_on_c, 9, 62, 0
6, 78960, Note_on_c, 9, 63, 103
6, 79178, Note_on_c, 9, 63, 0
6, 79800, Note_on_c, 9, 63, 103
6, 80019, Note_on_c, 9, 63, 0
6, 80160, Note_on_c, 9, 62, 111
6, 80377, Note_on_c, 9, 62, 0
6, 80880, Note_on_c, 9, 63, 103
6, 81098, Note_on_c, 9, 63, 0
6, 81720, Note_on_c, 9, 63, 103
6, 81939, Note_on_c, 9, 63, 0
6, 82080, Note_on_c, 9, 62, 111
6, 82300, Note_on_c, 9, 62, 0
6, 82800, Note_on_c, 9, 63, 103
6, 83016, Note_on_c, 9, 63, 0
6, 83640, Note_on_c, 9, 62, 103
6, 83855, Note_on_c, 9, 62, 0
6, 84720, Note_on_c, 9, 63, 103
6, 84938, Note_on_c, 9, 63, 0
6, 85560, Note_on_c, 9, 63, 103
6, 85779, Note_on_c, 9, 63, 0
6, 85920, Note_on_c, 9, 62, 111
6, 86137, Note_on_c, 9, 62, 0
6, 86640, Note_on_c, 9, 62, 103
6, 86856, Note_on_c, 9, 62, 0
6, 87480, Note_on_c, 9, 62, 103
6, 87697, Note_on_c, 9, 62, 0
6, 88560, Note_on_c, 9, 63, 103
6, 88776, Note_on_c, 9, 63, 0
6, 89400, Note_on_c, 9, 62, 103
6, 89615, Note_on_c, 9, 62, 0
6, 90480, Note_on_c, 9, 63, 103
6, 90698, Note_on_c, 9, 63, 0
6, 91320, Note_on_c, 9, 63, 103
6, 91539, Note_on_c, 9, 63, 0
6, 91680, Note_on_c, 9, 62, 111
6, 91897, Note_on_c, 9, 62, 0
6, 92400, Note_on_c, 9, 63, 103
6, 92616, Note_on_c, 9, 63, 0
6, 93240, Note_on_c, 9, 62, 103
6, 93455, Note_on_c, 9, 62, 0
6, 94320, Note_on_c, 9, 63, 103
6, 94538, Note_on_c, 9, 63, 0
6, 95160, Note_on_c, 9, 63, 103
6, 95379, Note_on_c, 9, 63, 0
6, 95520, Note_on_c, 9, 62, 111
6, 95737, Note_on_c, 9, 62, 0
6, 96240, Note_on_c, 9, 63, 103
6, 96458, Note_on_c, 9, 63, 0
6, 97080, Note_on_c, 9, 63, 103
6, 97299, Note_on_c, 9, 63, 0
6, 97440, Note_on_c, 9, 62, 111
6, 97660, Note_on_c, 9, 62, 0
6, 98160, Note_on_c, 9, 63, 103
6, 98376, Note_on_c, 9, 63, 0
6, 99000, Note_on_c, 9, 62, 103
6, 99215, Note_on_c, 9, 62, 0
6, 100080, Note_on_c, 9, 63, 103
6, 100298, Note_on_c, 9, 63, 0
6, 100920, Note_on_c, 9, 63, 103
6, 101139, Note_on_c, 9, 63, 0
6, 101280, Note_on_c, 9, 62, 111
6, 101497, Note_on_c, 9, 62, 0
6, 102000, Note_on_c, 9, 62, 103
6, 102216, Note_on_c, 9, 62, 0
6, 102840, Note_on_c, 9, 62, 103
6, 103057, Note_on_c, 9, 62, 0
6, 103920, Note_on_c, 9, 63, 103
6, 104136, Note_on_c, 9, 63, 0
6, 104760, Note_on_c, 9, 62, 103
6, 104975, Note_on_c, 9, 62, 0
6, 105840, Note_on_c, 9, 63, 103
6, 106058, Note_on_c, 9, 63, 0
6, 106680, Note_on_c, 9, 63, 103
6, 106899, Note_on_c, 9, 63, 0
6, 107040, Note_on_c, 9, 62, 111
6, 107257, Note_on_c, 9, 62, 0
6, 107760, Note_on_c, 9, 63, 103
6, 107976, Note_on_c, 9, 63, 0
6, 108600, Note_on_c, 9, 62, 103
6, 108815, Note_on_c, 9, 62, 0
6, 109680, Note_on_c, 9, 63, 103
6, 109898, Note_on_c, 9, 63, 0
6, 110520, Note_on_c, 9, 63, 103
6, 110739, Note_on_c, 9, 63, 0
6, 110880, Note_on_c, 9, 62, 111
6, 111097, Note_on_c, 9, 62, 0
6, 111600, Note_on_c, 9, 63, 103
6, 111818, Note_on_c, 9, 63, 0
6, 112440, Note_on_c, 9, 63, 103
6, 112659, Note_on_c, 9, 63, 0
6, 112800, Note_on_c, 9, 62, 111
6, 113020, Note_on_c, 9, 62, 0
6, 113520, Note_on_c, 9, 63, 103
6, 113736, Note_on_c, 9, 63, 0
6, 114360, Note_on_c, 9, 62, 103
6, 114575, Note_on_c, 9, 62, 0
6, 115440, Note_on_c, 9, 63, 103
6, 115658, Note_on_c, 9, 63, 0
6, 116280, Note_on_c, 9, 63, 103
6, 116499, Note_on_c, 9, 63, 0
6, 116640, Note_on_c, 9, 62, 111
6, 116857, Note_on_c, 9, 62, 0
6, 117360, Note_on_c, 9, 62, 103
6, 117576, Note_on_c, 9, 62, 0
6, 118200, Note_on_c, 9, 62, 103
6, 118417, Note_on_c, 9, 62, 0
6, 119280, Note_on_c, 9, 63, 103
6, 119496, Note_on_c, 9, 63, 0
6, 120120, Note_on_c, 9, 62, 103
6, 120335, Note_on_c, 9, 62, 0
6, 121200, Note_on_c, 9, 63, 103
6, 121418, Note_on_c, 9, 63, 0
6, 122040, Note_on_c, 9, 63, 103
6, 122259, Note_on_c, 9, 63, 0
6, 122400, Note_on_c, 9, 62, 111
6, 122617, Note_on_c, 9, 62, 0
6, 123120, Note_on_c, 9, 63, 103
6, 123336, Note_on_c, 9, 63, 0
6, 123960, Note_on_c, 9, 62, 103
6, 124175, Note_on_c, 9, 62, 0
6, 125040, Note_on_c, 9, 63, 103
6, 125258, Note_on_c, 9, 63, 0
6, 125880, Note_on_c, 9, 63, 103
6, 126099, Note_on_c, 9, 63, 0
6, 126240, Note_on_c, 9, 62, 111
6, 126457, Note_on_c, 9, 62, 0
6, 126960, Note_on_c, 9, 63, 103
6, 127178, Note_on_c, 9, 63, 0
6, 127800, Note_on_c, 9, 63, 103
6, 128019, Note_on_c, 9, 63, 0
6, 128160, Note_on_c, 9, 62, 111
6, 128380, Note_on_c, 9, 62, 0
6, 128880, Note_on_c, 9, 63, 103
6, 129096, Note_on_c, 9, 63, 0
6, 129720, Note_on_c, 9, 62, 103
6, 129935, Note_on_c, 9, 62, 0
6, 130800, Note_on_c, 9, 63, 103
6, 131018, Note_on_c, 9, 63, 0
6, 131640, Note_on_c, 9, 63, 103
6, 131859, Note_on_c, 9, 63, 0
6, 132000, Note_on_c, 9, 62, 111
6, 132217, Note_on_c, 9, 62, 0
6, 132720, Note_on_c, 9, 62, 103
6, 132936, Note_on_c, 9, 62, 0
6, 133560, Note_on_c, 9, 62, 103
6, 133777, Note_on_c, 9, 62, 0
6, 134640, Note_on_c, 9, 63, 103
6, 134856, Note_on_c, 9, 63, 0
6, 135480, Note_on_c, 9, 62, 103
6, 135695, Note_on_c, 9, 62, 0
6, 136560, Note_on_c, 9, 63, 103
6, 136778, Note_on_c, 9, 63, 0
6, 137400, Note_on_c, 9, 63, 103
6, 137619, Note_on_c, 9, 63, 0
6, 137760, Note_on_c, 9, 62, 111
6, 137977, Note_on_c, 9, 62, 0
6, 138480, Note_on_c, 9, 63, 103
6, 138696, Note_on_c, 9, 63, 0
6, 139320, Note_on_c, 9, 62, 103
6, 139535, Note_on_c, 9, 62, 0
6, 140400, Note_on_c, 9, 63, 103
6, 140618, Note_on_c, 9, 63, 0
6, 141240, Note_on_c, 9, 63, 103
6, 141459, Note_on_c, 9, 63, 0
6, 141600, Note_on_c, 9, 62, 111
6, 141817, Note_on_c, 9, 62, 0
6, 142320, Note_on_c, 9, 63, 103
6, 142538, Note_on_c, 9, 63, 0
6, 143160, Note_on_c, 9, 63, 103
6, 143379, Note_on_c, 9, 63, 0
6, 143520, Note_on_c, 9, 62, 111
6, 143740, Note_on_c, 9, 62, 0
6, 144240, Note_on_c, 9, 63, 103
6, 144456, Note_on_c, 9, 63, 0
6, 145080, Note_on_c, 9, 62, 103
6, 145295, Note_on_c, 9, 62, 0
6, 146160, Note_on_c, 9, 63, 103
6, 146378, Note_on_c, 9, 63, 0
6, 147000, Note_on_c, 9, 63, 103
6, 147219, Note_on_c, 9, 63, 0
6, 147360, Note_on_c, 9, 62, 111
6, 147577, Note_on_c, 9, 62, 0
6, 148080, Note_on_c, 9, 62, 103
6, 148296, Note_on_c, 9, 62, 0
6, 148920, Note_on_c, 9, 62, 103
6, 149137, Note_on_c, 9, 62, 0
6, 150000, Note_on_c, 9, 63, 103
6, 150216, Note_on_c, 9, 63, 0
6, 150840, Note_on_c, 9, 62, 103
6, 151055, Note_on_c, 9, 62, 0
6, 151920, Note_on_c, 9, 63, 103
6, 152138, Note_on_c, 9, 63, 0
6, 152760, Note_on_c, 9, 63, 103
6, 152979, Note_on_c, 9, 63, 0
6, 153120, Note_on_c, 9, 62, 111
6, 153337, Note_on_c, 9, 62, 0
6, 153840, Note_on_c, 9, 63, 103
6, 154056, Note_on_c, 9, 63, 0
6, 154680, Note_on_c, 9, 62, 103
6, 154895, Note_on_c, 9, 62, 0
6, 155760, Note_on_c, 9, 63, 103
6, 155978, Note_on_c, 9, 63, 0
6, 156600, Note_on_c, 9, 63, 103
6, 156819, Note_on_c, 9, 63, 0
6, 156960, Note_on_c, 9, 62, 111
6, 157177, Note_on_c, 9, 62, 0
6, 157680, Note_on_c, 9, 63, 103
6, 157898, Note_on_c, 9, 63, 0
6, 158520, Note_on_c, 9, 63, 103
6, 158739, Note_on_c, 9, 63, 0
6, 158880, Note_on_c, 9, 62, 111
6, 159100, Note_on_c, 9, 62, 0
6, 159600, Note_on_c, 9, 63, 103
6, 159816, Note_on_c, 9, 63, 0
6, 160440, Note_on_c, 9, 62, 103
6, 160655, Note_on_c, 9, 62, 0
6, 161520, Note_on_c, 9, 63, 103
6, 161738, Note_on_c, 9, 63, 0
6, 162360, Note_on_c, 9, 63, 103
6, 162579, Note_on_c, 9, 63, 0
6, 162720, Note_on_c, 9, 62, 111
6, 162937, Note_on_c, 9, 62, 0
6, 163440, Note_on_c, 9, 62, 103
6, 163656, Note_on_c, 9, 62, 0
6, 164280, Note_on_c, 9, 62, 103
6, 164497, Note_on_c, 9, 62, 0
6, 165360, Note_on_c, 9, 63, 103
6, 165576, Note_on_c, 9, 63, 0
6, 166200, Note_on_c, 9, 62, 103
6, 166415, Note_on_c, 9, 62, 0
6, 167280, Note_on_c, 9, 63, 103
6, 167498, Note_on_c, 9, 63, 0
6, 168120, Note_on_c, 9, 63, 103
6, 168339, Note_on_c, 9, 63, 0
6, 168480, Note_on_c, 9, 62, 111
6, 168697, Note_on_c, 9, 62, 0
6, 169200, Note_on_c, 9, 63, 103
6, 169416, Note_on_c, 9, 63, 0
6, 170040, Note_on_c, 9, 62, 103
6, 170255, Note_on_c, 9, 62, 0
6, 171120, Note_on_c, 9, 63, 103
6, 171338, Note_on_c, 9, 63, 0
6, 171960, Note_on_c, 9, 63, 103
6, 172179, Note_on_c, 9, 63, 0
6, 172320, Note_on_c, 9, 62, 111
6, 172537, Note_on_c, 9, 62, 0
6, 173040, Note_on_c, 9, 63, 103
6, 173258, Note_on_c, 9, 63, 0
6, 173880, Note_on_c, 9, 63, 103
6, 174099, Note_on_c, 9, 63, 0
6, 174240, Note_on_c, 9, 62, 111
6, 174460, Note_on_c, 9, 62, 0
6, 174960, Note_on_c, 9, 63, 103
6, 175176, Note_on_c, 9, 63, 0
6, 175800, Note_on_c, 9, 62, 103
6, 176015, Note_on_c, 9, 62, 0
6, 176880, Note_on_c, 9, 63, 103
6, 177098, Note_on_c, 9, 63, 0
6, 177720, Note_on_c, 9, 63, 103
6, 177939, Note_on_c, 9, 63, 0
6, 178080, Note_on_c, 9, 62, 111
6, 178297, Note_on_c, 9, 62, 0
6, 178800, Note_on_c, 9, 62, 103
6, 179016, Note_on_c, 9, 62, 0
6, 179640, Note_on_c, 9, 62, 103
6, 179857, Note_on_c, 9, 62, 0
6, 180720, Note_on_c, 9, 63, 103
6, 180936, Note_on_c, 9, 63, 0
6, 181560, Note_on_c, 9, 62, 103
6, 181775, Note_on_c, 9, 62, 0
6, 182640, Note_on_c, 9, 63, 103
6, 182858, Note_on_c, 9, 63, 0
6, 183480, Note_on_c, 9, 63, 103
6, 183699, Note_on_c, 9, 63, 0
6, 183840, Note_on_c, 9, 62, 111
6, 184057, Note_on_c, 9, 62, 0
6, 184560, Note_on_c, 9, 63, 103
6, 184776, Note_on_c, 9, 63, 0
6, 185400, Note_on_c, 9, 62, 103
6, 185615, Note_on_c, 9, 62, 0
6, 186480, Note_on_c, 9, 63, 103
6, 186698, Note_on_c, 9, 63, 0
6, 187320, Note_on_c, 9, 63, 103
6, 187539, Note_on_c, 9, 63, 0
6, 187680, Note_on_c, 9, 62, 111
6, 187897, Note_on_c, 9, 62, 0
6, 188400, Note_on_c, 9, 63, 103
6, 188618, Note_on_c, 9, 63, 0
6, 189240, Note_on_c, 9, 63, 103
6, 189459, Note_on_c, 9, 63, 0
6, 189600, Note_on_c, 9, 62, 111
6, 189820, Note_on_c, 9, 62, 0
6, 190320, Note_on_c, 9, 63, 103
6, 190536, Note_on_c, 9, 63, 0
6, 191160, Note_on_c, 9, 62, 103
6, 191375, Note_on_c, 9, 62, 0
6, 192240, Note_on_c, 9, 63, 103
6, 192458, Note_on_c, 9, 63, 0
6, 193080, Note_on_c, 9, 63, 103
6, 193299, Note_on_c, 9, 63, 0
6, 193440, Note_on_c, 9, 62, 111
6, 193657, Note_on_c, 9, 62, 0
6, 194160, Note_on_c, 9, 62, 103
6, 194376, Note_on_c, 9, 62, 0
6, 195000, Note_on_c, 9, 62, 103
6, 195217, Note_on_c, 9, 62, 0
6, 196080, Note_on_c, 9, 63, 103
6, 196296, Note_on_c, 9, 63, 0
6, 196920, Note_on_c, 9, 62, 103
6, 197135, Note_on_c, 9, 62, 0
6, 198000, Note_on_c, 9, 63, 103
6, 198218, Note_on_c, 9, 63, 0
6, 198840, Note_on_c, 9, 63, 103
6, 199059, Note_on_c, 9, 63, 0
6, 199200, Note_on_c, 9, 62, 111
6, 199417, Note_on_c, 9, 62, 0
6, 199920, Note_on_c, 9, 63, 103
6, 200136, Note_on_c, 9, 63, 0
6, 200760, Note_on_c, 9, 62, 103
6, 200975, Note_on_c, 9, 62, 0
6, 201840, Note_on_c, 9, 63, 103
6, 202058, Note_on_c, 9, 63, 0
6, 202680, Note_on_c, 9, 63, 103
6, 202899, Note_on_c, 9, 63, 0
6, 203040, Note_on_c, 9, 62, 111
6, 203257, Note_on_c, 9, 62, 0
6, 203760, Note_on_c, 9, 63, 103
6, 203978, Note_on_c, 9, 63, 0
6, 204600, Note_on_c, 9, 63, 103
6, 204819, Note_on_c, 9, 63, 0
6, 204960, Note_on_c, 9, 62, 111
6, 205180, Note_on_c, 9, 62, 0
6, 205680, Note_on_c, 9, 63, 103
6, 205896, Note_on_c, 9, 63, 0
6, 206520, Note_on_c, 9, 62, 103
6, 206735, Note_on_c, 9, 62, 0
6, 207600, Note_on_c, 9, 63, 103
6, 207818, Note_on_c, 9, 63, 0
6, 208440, Note_on_c, 9, 63, 103
6, 208659, Note_on_c, 9, 63, 0
6, 208800, Note_on_c, 9, 62, 111
6, 209017, Note_on_c, 9, 62, 0
6, 209520, Note_on_c, 9, 62, 103
6, 209736, Note_on_c, 9, 62, 0
6, 210360, Note_on_c, 9, 62, 103
6, 210577, Note_on_c, 9, 62, 0
6, 211440, Note_on_c, 9, 63, 103
6, 211656, Note_on_c, 9, 63, 0
6, 212280, Note_on_c, 9, 62, 103
6, 212495, Note_on_c, 9, 62, 0
6, 213360, Note_on_c, 9, 63, 103
6, 213578, Note_on_c, 9, 63, 0
6, 214200, Note_on_c, 9, 63, 103
6, 214419, Note_on_c, 9, 63, 0
6, 214560, Note_on_c, 9, 62, 111
6, 214777, Note_on_c, 9, 62, 0
6, 215280, Note_on_c, 9, 63, 103
6, 215496, Note_on_c, 9, 63, 0
6, 216120, Note_on_c, 9, 62, 103
6, 216335, Note_on_c, 9, 62, 0
6, 217200, Note_on_c, 9, 63, 103
6, 217418, Note_on_c, 9, 63, 0
6, 218040, Note_on_c, 9, 63, 103
6, 218259, Note_on_c, 9, 63, 0
6, 218400, Note_on_c, 9, 62, 111
6, 218617, Note_on_c, 9, 62, 0
6, 219120, Note_on_c, 9, 63, 103
6, 219338, Note_on_c, 9, 63, 0
6, 219960, Note_on_c, 9, 63, 103
6, 220179, Note_on_c, 9, 63, 0
6, 220320, Note_on_c, 9, 62, 111
6, 220540, Note_on_c, 9, 62, 0
6, 221040, Note_on_c, 9, 63, 103
6, 221256, Note_on_c, 9, 63, 0
6, 221880, Note_on_c, 9, 62, 103
6, 222095, Note_on_c, 9, 62, 0
6, 222960, Note_on_c, 9, 63, 103
6, 223178, Note_on_c, 9, 63, 0
6, 223800, Note_on_c, 9, 63, 103
6, 224019, Note_on_c, 9, 63, 0
6, 224160, Note_on_c, 9, 62, 111
6, 224377, Note_on_c, 9, 62, 0
6, 224880, Note_on_c, 9, 62, 103
6, 225096, Note_on_c, 9, 62, 0
6, 225720, Note_on_c, 9, 62, 103
6, 225937, Note_on_c, 9, 62, 0
6, 226800, Note_on_c, 9, 63, 103
6, 227016, Note_on_c, 9, 63, 0
6, 227640, Note_on_c, 9, 62, 103
6, 227855, Note_on_c, 9, 62, 0
6, 228720, Note_on_c, 9, 63, 103
6, 228938, Note_on_c, 9, 63, 0
6, 229560, Note_on_c, 9, 63, 103
6, 229779, Note_on_c, 9, 63, 0
6, 229920, Note_on_c, 9, 62, 111
6, 230137, Note_on_c, 9, 62, 0
6, 230640, Note_on_c, 9, 63, 103
6, 230856, Note_on_c, 9, 63, 0
6, 231480, Note_on_c, 9, 62, 103
6, 231695, Note_on_c, 9, 62, 0
6, 232560, Note_on_c, 9, 63, 103
6, 232778, Note_on_c, 9, 63, 0
6, 233400, Note_on_c, 9, 63, 103
6, 233619, Note_on_c, 9, 63, 0
6, 233760, Note_on_c, 9, 62, 111
6, 233977, Note_on_c, 9, 62, 0
6, 234480, Note_on_c, 9, 63, 103
6, 234698, Note_on_c, 9, 63, 0
6, 235320, Note_on_c, 9, 63, 103
6, 235539, Note_on_c, 9, 63, 0
6, 235680, Note_on_c, 9, 62, 111
6, 235900, Note_on_c, 9, 62, 0
6, 236400, Note_on_c, 9, 63, 103
6, 236616, Note_on_c, 9, 63, 0
6, 237240, Note_on_c, 9, 62, 103
6, 237455, Note_on_c, 9, 62, 0
6, 238320, Note_on_c, 9, 63, 103
6, 238538, Note_on_c, 9, 63, 0
6, 239160, Note_on_c, 9, 63, 103
6, 239379, Note_on_c, 9, 63, 0
6, 239520, Note_on_c, 9, 62, 111
6, 239737, Note_on_c, 9, 62, 0
6, 240240, Note_on_c, 9, 62, 103
6, 240456, Note_on_c, 9, 62, 0
6, 241080, Note_on_c, 9, 62, 103
6, 241297, Note_on_c, 9, 62, 0
6, 242160, Note_on_c, 9, 63, 103
6, 242376, Note_on_c, 9, 63, 0
6, 243000, Note_on_c, 9, 62, 103
6, 243215, Note_on_c, 9, 62, 0
6, 244080, Note_on_c, 9, 63, 103
6, 244298, Note_on_c, 9, 63, 0
6, 244920, Note_on_c, 9, 63, 103
6, 245139, Note_on_c, 9, 63, 0
6, 245280, Note_on_c, 9, 62, 111
6, 245497, Note_on_c, 9, 62, 0
6, 246000, Note_on_c, 9, 63, 103
6, 246216, Note_on_c, 9, 63, 0
6, 246840, Note_on_c, 9, 62, 103
6, 247055, Note_on_c, 9, 62, 0
6, 247920, Note_on_c, 9, 63, 103
6, 248138, Note_on_c, 9, 63, 0
6, 248760, Note_on_c, 9, 63, 103
6, 248979, Note_on_c, 9, 63, 0
6, 249120, Note_on_c, 9, 62, 111
6, 249337, Note_on_c, 9, 62, 0
6, 249840, Note_on_c, 9, 63, 103
6, 250058, Note_on_c, 9, 63, 0
6, 250680, Note_on_c, 9, 63, 103
6, 250899, Note_on_c, 9, 63, 0
6, 251040, Note_on_c, 9, 62, 111
6, 251260, Note_on_c, 9, 62, 0
6, 251760, Note_on_c, 9, 63, 103
6, 251976, Note_on_c, 9, 63, 0
6, 252600, Note_on_c, 9, 62, 103
6, 252815, Note_on_c, 9, 62, 0
6, 253680, Note_on_c, 9, 63, 103
6, 253898, Note_on_c, 9, 63, 0
6, 254520, Note_on_c, 9, 63, 103
6, 254739, Note_on_c, 9, 63, 0
6, 254880, Note_on_c, 9, 62, 111
6, 255097, Note_on_c, 9, 62, 0
6, 255600, Note_on_c, 9, 62, 103
6, 255816, Note_on_c, 9, 62, 0
6, 256440, Note_on_c, 9, 62, 103
6, 256657, Note_on_c, 9, 62, 0
6, 257520, Note_on_c, 9, 63, 103
6, 257736, Note_on_c, 9, 63, 0
6, 258360, Note_on_c, 9, 62, 103
6, 258575, Note_on_c, 9, 62, 0
6, 259440, Note_on_c, 9, 63, 103
6, 259658, Note_on_c, 9, 63, 0
6, 260280, Note_on_c, 9, 63, 103
6, 260499, Note_on_c, 9, 63, 0
6, 260640, Note_on_c, 9, 62, 111
6, 260857, Note_on_c, 9, 62, 0
6, 261360, Note_on_c, 9, 63, 103
6, 261576, Note_on_c, 9, 63, 0
6, 262200, Note_on_c, 9, 62, 103
6, 262415, Note_on_c, 9, 62, 0
6, 263280, Note_on_c, 9, 63, 103
6, 263498, Note_on_c, 9, 63, 0
6, 264120, Note_on_c, 9, 63, 103
6, 264339, Note_on_c, 9, 63, 0
6, 264480, Note_on_c, 9, 62, 111
6, 264697, Note_on_c, 9, 62, 0
6, 265200, Note_on_c, 9, 63, 103
6, 265418, Note_on_c, 9, 63, 0
6, 266040, Note_on_c, 9, 63, 103
6, 266259, Note_on_c, 9, 63, 0
6, 266400, Note_on_c, 9, 62, 111
6, 266620, Note_on_c, 9, 62, 0
6, 267120, Note_on_c, 9, 63, 103
6, 267336, Note_on_c, 9, 63, 0
6, 267960, Note_on_c, 9, 62, 103
6, 268175, Note_on_c, 9, 62, 0
6, 269040, Note_on_c, 9, 63, 103
6, 269258, Note_on_c, 9, 63, 0
6, 269880, Note_on_c, 9, 63, 103
6, 270099, Note_on_c, 9, 63, 0
6, 270240, Note_on_c, 9, 62, 111
6, 270457, Note_on_c, 9, 62, 0
6, 270960, Note_on_c, 9, 62, 103
6, 271176, Note_on_c, 9, 62, 0
6, 271800, Note_on_c, 9, 62, 103
6, 272017, Note_on_c, 9, 62, 0
6, 272880, Note_on_c, 9, 63, 103
6, 273096, Note_on_c, 9, 63, 0
6, 273720, Note_on_c, 9, 62, 103
6, 273935, Note_on_c, 9, 62, 0
6, 274800, Note_on_c, 9, 63, 103
6, 275018, Note_on_c, 9, 63, 0
6, 275640, Note_on_c, 9, 63, 103
6, 275859, Note_on_c, 9, 63, 0
6, 276000, Note_on_c, 9, 62, 111
6, 276217, Note_on_c, 9, 62, 0
6, 276720, Note_on_c, 9, 63, 103
6, 276936, Note_on_c, 9, 63, 0
6, 277560, Note_on_c, 9, 62, 103
6, 277775, Note_on_c, 9, 62, 0
6, 278640, Note_on_c, 9, 63, 103
6, 278858, Note_on_c, 9, 63, 0
6, 279480, Note_on_c, 9, 63, 103
6, 279699, Note_on_c, 9, 63, 0
6, 279840, Note_on_c, 9, 62, 111
6, 280057, Note_on_c, 9, 62, 0
6, 284160, End_track
7, 0, Start_track
7, 0, Text_t, "hats"
7, 4080, Note_on_c, 9, 44, 96
7, 4123, Note_on_c, 9, 44, 0
7, 4440, Note_on_c, 9, 44, 98
7, 4483, Note_on_c, 9, 44, 0
7, 4800, Note_on_c, 9, 44, 96
7, 4843, Note_on_c, 9, 44, 0
7, 5160, Note_on_c, 9, 44, 96
7, 5203, Note_on_c, 9, 44, 0
7, 5520, Note_on_c, 9, 44, 96
7, 5564, Note_on_c, 9, 44, 0
7, 6000, Note_on_c, 9, 44, 85
7, 6043, Note_on_c, 9, 44, 0
7, 6360, Note_on_c, 9, 44, 85
7, 6404, Note_on_c, 9, 44, 0
7, 6720, Note_on_c, 9, 44, 85
7, 6763, Note_on_c, 9, 44, 0
7, 7080, Note_on_c, 9, 44, 85
7, 7124, Note_on_c, 9, 44, 0
7, 7440, Note_on_c, 9, 44, 85
7, 7483, Note_on_c, 9, 44, 0
7, 7920, Note_on_c, 9, 44, 96
7, 7963, Note_on_c, 9, 44, 0
7, 8280, Note_on_c, 9, 44, 98
7, 8324, Note_on_c, 9, 44, 0
7, 8640, Note_on_c, 9, 44, 96
7, 8684, Note_on_c, 9, 44, 0
7, 9000, Note_on_c, 9, 44, 96
7, 9043, Note_on_c, 9, 44, 0
7, 9360, Note_on_c, 9, 44, 96
7, 9404, Note_on_c, 9, 44, 0
7, 9840, Note_on_c, 9, 44, 85
7, 9883, Note_on_c, 9, 44, 0
7, 10200, Note_on_c, 9, 44, 85
7, 10244, Note_on_c, 9, 44, 0
7, 10560, Note_on_c, 9, 44, 85
7, 10604, Note_on_c, 9, 44, 0
7, 10920, Note_on_c, 9, 44, 85
7, 10963, Note_on_c, 9, 44, 0
7, 11280, Note_on_c, 9, 44, 85
7, 11323, Note_on_c, 9, 44, 0
7, 11760, Note_on_c, 9, 44, 85
7, 11803, Note_on_c, 9, 44, 0
7, 12120, Note_on_c, 9, 44, 85
7, 12164, Note_on_c, 9, 44, 0
7, 12480, Note_on_c, 9, 44, 85
7, 12523, Note_on_c, 9, 44, 0
7, 12840, Note_on_c, 9, 44, 85
7, 12884, Note_on_c, 9, 44, 0
7, 13200, Note_on_c, 9, 44, 85
7, 13243, Note_on_c, 9, 44, 0
7, 13680, Note_on_c, 9, 44, 96
7, 13723, Note_on_c, 9, 44, 0
7, 14040, Note_on_c, 9, 44, 98
7, 14084, Note_on_c, 9, 44, 0
7, 14400, Note_on_c, 9, 44, 96
7, 14444, Note_on_c, 9, 44, 0
7, 14760, Note_on_c, 9, 44, 96
7, 14803, Note_on_c, 9, 44, 0
7, 15120, Note_on_c, 9, 44, 96
7, 15164, Note_on_c, 9, 44, 0
7, 15600, Note_on_c, 9, 44, 85
7, 15643, Note_on_c, 9, 44, 0
7, 15960, Note_on_c, 9, 44, 85
7, 16004, Note_on_c, 9, 44, 0
7, 16320, Note_on_c, 9, 44, 85
7, 16363, Note_on_c, 9, 44, 0
7, 16680, Note_on_c, 9, 44, 85
7, 16724, Note_on_c, 9, 44, 0
7, 17040, Note_on_c, 9, 44, 85
7, 17083, Note_on_c, 9, 44, 0
7, 17520, Note_on_c, 9, 44, 96
7, 17563, Note_on_c, 9, 44, 0
7, 17880, Note_on_c, 9, 44, 98
7, 17924, Note_on_c, 9, 44, 0
7, 18240, Note_on_c, 9, 44, 96
7, 18284, Note_on_c, 9, 44, 0
7, 18600, Note_on_c, 9, 44, 96
7, 18643, Note_on_c, 9, 44, 0
7, 18960, Note_on_c, 9, 44, 96
7, 19004, Note_on_c, 9, 44, 0
7, 19440, Note_on_c, 9, 44, 96
7, 19483, Note_on_c, 9, 44, 0
7, 19800, Note_on_c, 9, 44, 98
7, 19843, Note_on_c, 9, 44, 0
7, 20160, Note_on_c, 9, 44, 96
7, 20203, Note_on_c, 9, 44, 0
7, 20520, Note_on_c, 9, 44, 96
7, 20563, Note_on_c, 9, 44, 0
7, 20880, Note_on_c, 9, 44, 96
7, 20924, Note_on_c, 9, 44, 0
7, 21360, Note_on_c, 9, 44, 85
7, 21403, Note_on_c, 9, 44, 0
7, 21720, Note_on_c, 9, 44, 85
7, 21764, Note_on_c, 9, 44, 0
7, 22080, Note_on_c, 9, 44, 85
7, 22123, Note_on_c, 9, 44, 0
7, 22440, Note_on_c, 9, 44, 85
7, 22484, Note_on_c, 9, 44, 0
7, 22800, Note_on_c, 9, 44, 85
7, 22843, Note_on_c, 9, 44, 0
7, 23280, Note_on_c, 9, 44, 96
7, 23323, Note_on_c, 9, 44, 0
7, 23640, Note_on_c, 9, 44, 98
7, 23684, Note_on_c, 9, 44, 0
7, 24000, Note_on_c, 9, 44, 96
7, 24044, Note_on_c, 9, 44, 0
7, 24360, Note_on_c, 9, 44, 96
7, 24403, Note_on_c, 9, 44, 0
7, 24720, Note_on_c, 9, 44, 96
7, 24764, Note_on_c, 9, 44, 0
7, 25200, Note_on_c, 9, 44, 85
7, 25243, Note_on_c, 9, 44, 0
7, 25560, Note_on_c, 9, 44, 85
7, 25604, Note_on_c, 9, 44, 0
7, 25920, Note_on_c, 9, 44, 85
7, 25964, Note_on_c, 9, 44, 0
7, 26280, Note_on_c, 9, 44, 85
7, 26323, Note_on_c, 9, 44, 0
7, 26640, Note_on_c, 9, 44, 85
7, 26683, Note_on_c, 9, 44, 0
7, 27120, Note_on_c, 9, 44, 85
7, 27163, Note_on_c, 9, 44, 0
7, 27480, Note_on_c, 9, 44, 85
7, 27524, Note_on_c, 9, 44, 0
7, 27840, Note_on_c, 9, 44, 85
7, 27883, Note_on_c, 9, 44, 0
7, 28200, Note_on_c, 9, 44, 85
7, 28244, Note_on_c, 9, 44, 0
7, 28560, Note_on_c, 9, 44, 85
7, 28603, Note_on_c, 9, 44, 0
7, 29040, Note_on_c, 9, 44, 96
7, 29083, Note_on_c, 9, 44, 0
7, 29400, Note_on_c, 9, 44, 98
7, 29444, Note_on_c, 9, 44, 0
7, 29760, Note_on_c, 9, 44, 96
7, 29804, Note_on_c, 9, 44, 0
7, 30120, Note_on_c, 9, 44, 96
7, 30163, Note_on_c, 9, 44, 0
7, 30480, Note_on_c, 9, 44, 96
7, 30524, Note_on_c, 9, 44, 0
7, 30960, Note_on_c, 9, 44, 85
7, 31003, Note_on_c, 9, 44, 0
7, 31320, Note_on_c, 9, 44, 85
7, 31364, Note_on_c, 9, 44, 0
7, 31680, Note_on_c, 9, 44, 85
7, 31723, Note_on_c, 9, 44, 0
7, 32040, Note_on_c, 9, 44, 85
7, 32084, Note_on_c, 9, 44, 0
7, 32400, Note_on_c, 9, 44, 85
7, 32443, Note_on_c, 9, 44, 0
7, 32880, Note_on_c, 9, 44, 96
7, 32923, Note_on_c, 9, 44, 0
7, 33240, Note_on_c, 9, 44, 98
7, 33284, Note_on_c, 9, 44, 0
7, 33600, Note_on_c, 9, 44, 96
7, 33644, Note_on_c, 9, 44, 0
7, 33960, Note_on_c, 9, 44, 96
7, 34003, Note_on_c, 9, 44, 0
7, 34320, Note_on_c, 9, 44, 96
7, 34364, Note_on_c, 9, 44, 0
7, 34800, Note_on_c, 9, 44, 96
7, 34843, Note_on_c, 9, 44, 0
7, 35160, Note_on_c, 9, 44, 98
7, 35203, Note_on_c, 9, 44, 0
7, 35520, Note_on_c, 9, 44, 96
7, 35563, Note_on_c, 9, 44, 0
7, 35880, Note_on_c, 9, 44, 96
7, 35923, Note_on_c, 9, 44, 0
7, 36240, Note_on_c, 9, 44, 96
7, 36284, Note_on_c, 9, 44, 0
7, 36720, Note_on_c, 9, 44, 85
7, 36763, Note_on_c, 9, 44, 0
7, 37080, Note_on_c, 9, 44, 85
7, 37124, Note_on_c, 9, 44, 0
7, 37440, Note_on_c, 9, 44, 85
7, 37483, Note_on_c, 9, 44, 0
7, 37800, Note_on_c, 9, 44, 85
7, 37844, Note_on_c, 9, 44, 0
7, 38160, Note_on_c, 9, 44, 85
7, 38203, Note_on_c, 9, 44, 0
7, 38640, Note_on_c, 9, 44, 96
7, 38683, Note_on_c, 9, 44, 0
7, 39000, Note_on_c, 9, 44, 98
7, 39044, Note_on_c, 9, 44, 0
7, 39360, Note_on_c, 9, 44, 96
7, 39404, Note_on_c, 9, 44, 0
7, 39720, Note_on_c, 9, 44, 96
7, 39763, Note_on_c, 9, 44, 0
7, 40080, Note_on_c, 9, 44, 96
7, 40124, Note_on_c, 9, 44, 0
7, 40560, Note_on_c, 9, 44, 85
7, 40603, Note_on_c, 9, 44, 0
7, 40920, Note_on_c, 9, 44, 85
7, 40964, Note_on_c, 9, 44, 0
7, 41280, Note_on_c, 9, 44, 85
7, 41324, Note_on_c, 9, 44, 0
7, 41640, Note_on_c, 9, 44, 85
7, 41683, Note_on_c, 9, 44, 0
7, 42000, Note_on_c, 9, 44, 85
7, 42043, Note_on_c, 9, 44, 0
7, 42480, Note_on_c, 9, 44, 85
7, 42523, Note_on_c, 9, 44, 0
7, 42840, Note_on_c, 9, 44, 85
7, 42884, Note_on_c, 9, 44, 0
7, 43200, Note_on_c, 9, 44, 85
7, 43243, Note_on_c, 9, 44, 0
7, 43560, Note_on_c, 9, 44, 85
7, 43604, Note_on_c, 9, 44, 0
7, 43920, Note_on_c, 9, 44, 85
7, 43963, Note_on_c, 9, 44, 0
7, 44400, Note_on_c, 9, 44, 96
7, 44443, Note_on_c, 9, 44, 0
7, 44760, Note_on_c, 9, 44, 98
7, 44804, Note_on_c, 9, 44, 0
7, 45120, Note_on_c, 9, 44, 96
7, 45164, Note_on_c, 9, 44, 0
7, 45480, Note_on_c, 9, 44, 96
7, 45523, Note_on_c, 9, 44, 0
7, 45840, Note_on_c, 9, 44, 96
7, 45884, Note_on_c, 9, 44, 0
7, 46320, Note_on_c, 9, 44, 85
7, 46363, Note_on_c, 9, 44, 0
7, 46680, Note_on_c, 9, 44, 85
7, 46724, Note_on_c, 9, 44, 0
7, 47040, Note_on_c, 9, 44, 85
7, 47083, Note_on_c, 9, 44, 0
7, 47400, Note_on_c, 9, 44, 85
7, 47444, Note_on_c, 9, 44, 0
7, 47760, Note_on_c, 9, 44, 85
7, 47803, Note_on_c, 9, 44, 0
7, 48240, Note_on_c, 9, 44, 96
7, 48283, Note_on_c, 9, 44, 0
7, 48600, Note_on_c, 9, 44, 98
7, 48644, Note_on_c, 9, 44, 0
7, 48960, Note_on_c, 9, 44, 96
7, 49004, Note_on_c, 9, 44, 0
7, 49320, Note_on_c, 9, 44, 96
7, 49363, Note_on_c, 9, 44, 0
7, 49680, Note_on_c, 9, 44, 96
7, 49724, Note_on_c, 9, 44, 0
7, 50160, Note_on_c, 9, 44, 96
7, 50203, Note_on_c, 9, 44, 0
7, 50520, Note_on_c, 9, 44, 98
7, 50563, Note_on_c, 9, 44, 0
7, 50880, Note_on_c, 9, 44, 96
7, 50923, Note_on_c, 9, 44, 0
7, 51240, Note_on_c, 9, 44, 96
7, 51283, Note_on_c, 9, 44, 0
7, 51600, Note_on_c, 9, 44, 96
7, 51644, Note_on_c, 9, 44, 0
7, 52080, Note_on_c, 9, 44, 85
7, 52123, Note_on_c, 9, 44, 0
7, 52440, Note_on_c, 9, 44, 85
7, 52484, Note_on_c, 9, 44, 0
7, 52800, Note_on_c, 9, 44, 85
7, 52843, Note_on_c, 9, 44, 0
7, 53160, Note_on_c, 9, 44, 85
7, 53204, Note_on_c, 9, 44, 0
7, 53520, Note_on_c, 9, 44, 85
7, 53563, Note_on_c, 9, 44, 0
7, 54000, Note_on_c, 9, 44, 96
7, 54043, Note_on_c, 9, 44, 0
7, 54360, Note_on_c, 9, 44, 98
7, 54404, Note_on_c, 9, 44, 0
7, 54720, Note_on_c, 9, 44, 96
7, 54764, Note_on_c, 9, 44, 0
7, 55080, Note_on_c, 9, 44, 96
7, 55123, Note_on_c, 9, 44, 0
7, 55440, Note_on_c, 9, 44, 96
7, 55484, Note_on_c, 9, 44, 0
7, 55920, Note_on_c, 9, 44, 85
7, 55963, Note_on_c, 9, 44, 0
7, 56280, Note_on_c, 9, 44, 85
7, 56324, Note_on_c, 9, 44, 0
7, 56640, Note_on_c, 9, 44, 85
7, 56684, Note_on_c, 9, 44, 0
7, 57000, Note_on_c, 9, 44, 85
7, 57043, Note_on_c, 9, 44, 0
7, 57360, Note_on_c, 9, 44, 85
7, 57403, Note_on_c, 9, 44, 0
7, 57840, Note_on_c, 9, 44, 85
7, 57883, Note_on_c, 9, 44, 0
7, 58200, Note_on_c, 9, 44, 85
7, 58244, Note_on_c, 9, 44, 0
7, 58560, Note_on_c, 9, 44, 85
7, 58603, Note_on_c, 9, 44, 0
7, 58920, Note_on_c, 9, 44, 85
7, 58964, Note_on_c, 9, 44, 0
7, 59280, Note_on_c, 9, 44, 85
7, 59323, Note_on_c, 9, 44, 0
7, 59760, Note_on_c, 9, 44, 96
7, 59803, Note_on_c, 9, 44, 0
7, 60120, Note_on_c, 9, 44, 98
7, 60164, Note_on_c, 9, 44, 0
7, 60480, Note_on_c, 9, 44, 96
7, 60524, Note_on_c, 9, 44, 0
7, 60840, Note_on_c, 9, 44, 96
7, 60883, Note_on_c, 9, 44, 0
7, 61200, Note_on_c, 9, 44, 96
7, 61244, Note_on_c, 9, 44, 0
7, 61680, Note_on_c, 9, 44, 85
7, 61723, Note_on_c, 9, 44, 0
7, 62040, Note_on_c, 9, 44, 85
7, 62084, Note_on_c, 9, 44, 0
7, 62400, Note_on_c, 9, 44, 85
7, 62443, Note_on_c, 9, 44, 0
7, 62760, Note_on_c, 9, 44, 85
7, 62804, Note_on_c, 9, 44, 0
7, 63120, Note_on_c, 9, 44, 85
7, 63163, Note_on_c, 9, 44, 0
7, 63600, Note_on_c, 9, 44, 96
7, 63643, Note_on_c, 9, 44, 0
7, 63960, Note_on_c, 9, 44, 98
7, 64004, Note_on_c, 9, 44, 0
7, 64320, Note_on_c, 9, 44, 96
7, 64364, Note_on_c, 9, 44, 0
7, 64680, Note_on_c, 9, 44, 96
7, 64723, Note_on_c, 9, 44, 0
7, 65040, Note_on_c, 9, 44, 96
7, 65084, Note_on_c, 9, 44, 0
7, 65520, Note_on_c, 9, 44, 96
7, 65563, Note_on_c, 9, 44, 0
7, 65880, Note_on_c, 9, 44, 98
7, 65923, Note_on_c, 9, 44, 0
7, 66240, Note_on_c, 9, 44, 96
7, 66283, Note_on_c, 9, 44, 0
7, 66600, Note_on_c, 9, 44, 96
7, 66643, Note_on_c, 9, 44, 0
7, 66960, Note_on_c, 9, 44, 96
7, 67004, Note_on_c, 9, 44, 0
7, 67440, Note_on_c, 9, 44, 85
7, 67483, Note_on_c, 9, 44, 0
7, 67800, Note_on_c, 9, 44, 85
7, 67844, Note_on_c, 9, 44, 0
7, 68160, Note_on_c, 9, 44, 85
7, 68203, Note_on_c, 9, 44, 0
7, 68520, Note_on_c, 9, 44, 85
7, 68564, Note_on_c, 9, 44, 0
7, 68880, Note_on_c, 9, 44, 85
7, 68923, Note_on_c, 9, 44, 0
7, 69360, Note_on_c, 9, 44, 96
7, 69403, Note_on_c, 9, 44, 0
7, 69720, Note_on_c, 9, 44, 98
7, 69764, Note_on_c, 9, 44, 0
7, 70080, Note_on_c, 9, 44, 96
7, 70124, Note_on_c, 9, 44, 0
7, 70440, Note_on_c, 9, 44, 96
7, 70483, Note_on_c, 9, 44, 0
7, 70800, Note_on_c, 9, 44, 96
7, 70844, Note_on_c, 9, 44, 0
7, 71280, Note_on_c, 9, 44, 85
7, 71323, Note_on_c, 9, 44, 0
7, 71640, Note_on_c, 9, 44, 85
7, 71684, Note_on_c, 9, 44, 0
7, 72000, Note_on_c, 9, 44, 85
7, 72044, Note_on_c, 9, 44, 0
7, 72360, Note_on_c, 9, 44, 85
7, 72403, Note_on_c, 9, 44, 0
7, 72720, Note_on_c, 9, 44, 85
7, 72763, Note_on_c, 9, 44, 0
7, 73200, Note_on_c, 9, 44, 85
7, 73243, Note_on_c, 9, 44, 0
7, 73560, Note_on_c, 9, 44, 85
7, 73604, Note_on_c, 9, 44, 0
7, 73920, Note_on_c, 9, 44, 85
7, 73963, Note_on_c, 9, 44, 0
7, 74280, Note_on_c, 9, 44, 85
7, 74324, Note_on_c, 9, 44, 0
7, 74640, Note_on_c, 9, 44, 85
7, 74683, Note_on_c, 9, 44, 0
7, 75120, Note_on_c, 9, 44, 96
7, 75163, Note_on_c, 9, 44, 0
7, 75480, Note_on_c, 9, 44, 98
7, 75524, Note_on_c, 9, 44, 0
7, 75840, Note_on_c, 9, 44, 96
7, 75884, Note_on_c, 9, 44, 0
7, 76200, Note_on_c, 9, 44, 96
7, 76243, Note_on_c, 9, 44, 0
7, 76560, Note_on_c, 9, 44, 96
7, 76604, Note_on_c, 9, 44, 0
7, 77040, Note_on_c, 9, 44, 85
7, 77083, Note_on_c, 9, 44, 0
7, 77400, Note_on_c, 9, 44, 85
7, 77444, Note_on_c, 9, 44, 0
7, 77760, Note_on_c, 9, 44, 85
7, 77803, Note_on_c, 9, 44, 0
7, 78120, Note_on_c, 9, 44, 85
7, 78164, Note_on_c, 9, 44, 0
7, 78480, Note_on_c, 9, 44, 85
7, 78523, Note_on_c, 9, 44, 0
7, 78960, Note_on_c, 9, 44, 96
7, 79003, Note_on_c, 9, 44, 0
7, 79320, Note_on_c, 9, 44, 98
7, 79364, Note_on_c, 9, 44, 0
7, 79680, Note_on_c, 9, 44, 96
7, 79724, Note_on_c, 9, 44, 0
7, 80040, Note_on_c, 9, 44, 96
7, 80083, Note_on_c, 9, 44, 0
7, 80400, Note_on_c, 9, 44, 96
7, 80444, Note_on_c, 9, 44, 0
7, 80880, Note_on_c, 9, 44, 96
7, 80923, Note_on_c, 9, 44, 0
7, 81240, Note_on_c, 9, 44, 98
7, 81283, Note_on_c, 9, 44, 0
7, 81600, Note_on_c, 9, 44, 96
7, 81643, Note_on_c, 9, 44, 0
7, 81960, Note_on_c, 9, 44, 96
7, 82003, Note_on_c, 9, 44, 0
7, 82320, Note_on_c, 9, 44, 96
7, 82364, Note_on_c, 9, 44, 0
7, 82800, Note_on_c, 9, 44, 85
7, 82843, Note_on_c, 9, 44, 0
7, 83160, Note_on_c, 9, 44, 85
7, 83204, Note_on_c, 9, 44, 0
7, 83520, Note_on_c, 9, 44, 85
7, 83563, Note_on_c, 9, 44, 0
7, 83880, Note_on_c, 9, 44, 85
7, 83924, Note_on_c, 9, 44, 0
7, 84240, Note_on_c, 9, 44, 85
7, 84283, Note_on_c, 9, 44, 0
7, 84720, Note_on_c, 9, 44, 96
7, 84763, Note_on_c, 9, 44, 0
7, 85080, Note_on_c, 9, 44, 98
7, 85124, Note_on_c, 9, 44, 0
7, 85440, Note_on_c, 9, 44, 96
7, 85484, Note_on_c, 9, 44, 0
7, 85800, Note_on_c, 9, 44, 96
7, 85843, Note_on_c, 9, 44, 0
7, 86160, Note_on_c, 9, 44, 96
7, 86204, Note_on_c, 9, 44, 0
7, 86640, Note_on_c, 9, 44, 85
7, 86683, Note_on_c, 9, 44, 0
7, 87000, Note_on_c, 9, 44, 85
7, 87044, Note_on_c, 9, 44, 0
7, 87360, Note_on_c, 9, 44, 85
7, 87404, Note_on_c, 9, 44, 0
7, 87720, Note_on_c, 9, 44, 85
7, 87763, Note_on_c, 9, 44, 0
7, 88080, Note_on_c, 9, 44, 85
7, 88123, Note_on_c, 9, 44, 0
7, 88560, Note_on_c, 9, 44, 85
7, 88603, Note_on_c, 9, 44, 0
7, 88920, Note_on_c, 9, 44, 85
7, 88964, Note_on_c, 9, 44, 0
7, 89280, Note_on_c, 9, 44, 85
7, 89323, Note_on_c, 9, 44, 0
7, 89640, Note_on_c, 9, 44, 85
7, 89684, Note_on_c, 9, 44, 0
7, 90000, Note_on_c, 9, 44, 85
7, 90043, Note_on_c, 9, 44, 0
7, 90480, Note_on_c, 9, 44, 96
7, 90523, Note_on_c, 9, 44, 0
7, 90840, Note_on_c, 9, 44, 98
7, 90884, Note_on_c, 9, 44, 0
7, 91200, Note_on_c, 9, 44, 96
7, 91244, Note_on_c, 9, 44, 0
7, 91560, Note_on_c, 9, 44, 96
7, 91603, Note_on_c, 9, 44, 0
7, 91920, Note_on_c, 9, 44, 96
7, 91964, Note_on_c, 9, 44, 0
7, 92400, Note_on_c, 9, 44, 85
7, 92443, Note_on_c, 9, 44, 0
7, 92760, Note_on_c, 9, 44, 85
7, 92804, Note_on_c, 9, 44, 0
7, 93120, Note_on_c, 9, 44, 85
7, 93163, Note_on_c, 9, 44, 0
7, 93480, Note_on_c, 9, 44, 85
7, 93524, Note_on_c, 9, 44, 0
7, 93840, Note_on_c, 9, 44, 85
7, 93883, Note_on_c, 9, 44, 0
7, 94320, Note_on_c, 9, 44, 96
7, 94363, Note_on_c, 9, 44, 0
7, 94680, Note_on_c, 9, 44, 98
7, 94724, Note_on_c, 9, 44, 0
7, 95040, Note_on_c, 9, 44, 96
7, 95084, Note_on_c, 9, 44, 0
7, 95400, Note_on_c, 9, 44, 96
7, 95443, Note_on_c, 9, 44, 0
7, 95760, Note_on_c, 9, 44, 96
7, 95804, Note_on_c, 9, 44, 0
7, 96240, Note_on_c, 9, 44, 96
7, 96283, Note_on_c, 9, 44, 0
7, 96600, Note_on_c, 9, 44, 98
7, 96643, Note_on_c, 9, 44, 0
7, 96960, Note_on_c, 9, 44, 96
7, 97003, Note_on_c, 9, 44, 0
7, 97320, Note_on_c, 9, 44, 96
7, 97363, Note_on_c, 9, 44, 0
7, 97680, Note_on_c, 9, 44, 96
7, 97724, Note_on_c, 9, 44, 0
7, 98160, Note_on_c, 9, 44, 85
7, 98203, Note_on_c, 9, 44, 0
7, 98520, Note_on_c, 9, 44, 85
7, 98564, Note_on_c, 9, 44, 0
7, 98880, Note_on_c, 9, 44, 85
7, 98923, Note_on_c, 9, 44, 0
7, 99240, Note_on_c, 9, 44, 85
7, 99284, Note_on_c, 9, 44, 0
7, 99600, Note_on_c, 9, 44, 85
7, 99643, Note_on_c, 9, 44, 0
7, 100080, Note_on_c, 9, 44, 96
7, 100123, Note_on_c, 9, 44, 0
7, 100440, Note_on_c, 9, 44, 98
7, 100484, Note_on_c, 9, 44, 0
7, 100800, Note_on_c, 9, 44, 96
7, 100844, Note_on_c, 9, 44, 0
7, 101160, Note_on_c, 9, 44, 96
7, 101203, Note_on_c, 9, 44, 0
7, 101520, Note_on_c, 9, 44, 96
7, 101564, Note_on_c, 9, 44, 0
7, 102000, Note_on_c, 9, 44, 85
7, 102043, Note_on_c, 9, 44, 0
7, 102360, Note_on_c, 9, 44, 85
7, 102404, Note_on_c, 9, 44, 0
7, 102720, Note_on_c, 9, 44, 85
7, 102764, Note_on_c, 9, 44, 0
7, 103080, Note_on_c, 9, 44, 85
7, 103123, Note_on_c, 9, 44, 0
7, 103440, Note_on_c, 9, 44, 85
7, 103483, Note_on_c, 9, 44, 0
7, 103920, Note_on_c, 9, 44, 85
7, 103963, Note_on_c, 9, 44, 0
7, 104280, Note_on_c, 9, 44, 85
7, 104324, Note_on_c, 9, 44, 0
7, 104640, Note_on_c, 9, 44, 85
7, 104683, Note_on_c, 9, 44, 0
7, 105000, Note_on_c, 9, 44, 85
7, 105044, Note_on_c, 9, 44, 0
7, 105360, Note_on_c, 9, 44, 85
7, 105403, Note_on_c, 9, 44, 0
7, 105840, Note_on_c, 9, 44, 96
7, 105883, Note_on_c, 9, 44, 0
7, 106200, Note_on_c, 9, 44, 98
7, 106244, Note_on_c, 9, 44, 0
7, 106560, Note_on_c, 9, 44, 96
7, 106604, Note_on_c, 9, 44, 0
7, 106920, Note_on_c, 9, 44, 96
7, 106963, Note_on_c, 9, 44, 0
7, 107280, Note_on_c, 9, 44, 96
7, 107324, Note_on_c, 9, 44, 0
7, 107760, Note_on_c, 9, 44, 85
7, 107803, Note_on_c, 9, 44, 0
7, 108120, Note_on_c, 9, 44, 85
7, 108164, Note_on_c, 9, 44, 0
7, 108480, Note_on_c, 9, 44, 85
7, 108523, Note_on_c, 9, 44, 0
7, 108840, Note_on_c, 9, 44, 85
7, 108884, Note_on_c, 9, 44, 0
7, 109200, Note_on_c, 9, 44, 85
7, 109243, Note_on_c, 9, 44, 0
7, 109680, Note_on_c, 9, 44, 96
7, 109723, Note_on_c, 9, 44, 0
7, 110040, Note_on_c, 9, 44, 98
7, 110084, Note_on_c, 9, 44, 0
7, 110400, Note_on_c, 9, 44, 96
7, 110444, Note_on_c, 9, 44, 0
7, 110760, Note_on_c, 9, 44, 96
7, 110803, Note_on_c, 9, 44, 0
7, 111120, Note_on_c, 9, 44, 96
7, 111164, Note_on_c, 9, 44, 0
7, 111600, Note_on_c, 9, 44, 96
7, 111643, Note_on_c, 9, 44, 0
7, 111960, Note_on_c, 9, 44, 98
7, 112003, Note_on_c, 9, 44, 0
7, 112320, Note_on_c, 9, 44, 96
7, 112363, Note_on_c, 9, 44, 0
7, 112680, Note_on_c, 9, 44, 96
7, 112723, Note_on_c, 9, 44, 0
7, 113040, Note_on_c, 9, 44, 96
7, 113084, Note_on_c, 9, 44, 0
7, 113520, Note_on_c, 9, 44, 85
7, 113563, Note_on_c, 9, 44, 0
7, 113880, Note_on_c, 9, 44, 85
7, 113924, Note_on_c, 9, 44, 0
7, 114240, Note_on_c, 9, 44, 85
7, 114283, Note_on_c, 9, 44, 0
7, 114600, Note_on_c, 9, 44, 85
7, 114644, Note_on_c, 9, 44, 0
7, 114960, Note_on_c, 9, 44, 85
7, 115003, Note_on_c, 9, 44, 0
7, 115440, Note_on_c, 9, 44, 96
7, 115483, Note_on_c, 9, 44, 0
7, 115800, Note_on_c, 9, 44, 98
7, 115844, Note_on_c, 9, 44, 0
7, 116160, Note_on_c, 9, 44, 96
7, 116204, Note_on_c, 9, 44, 0
7, 116520, Note_on_c, 9, 44, 96
7, 116563, Note_on_c, 9, 44, 0
7, 116880, Note_on_c, 9, 44, 96
7, 116924, Note_on_c, 9, 44, 0
7, 117360, Note_on_c, 9, 44, 85
7, 117403, Note_on_c, 9, 44, 0
7, 117720, Note_on_c, 9, 44, 85
7, 117764, Note_on_c, 9, 44, 0
7, 118080, Note_on_c, 9, 44, 85
7, 118124, Note_on_c, 9, 44, 0
7, 118440, Note_on_c, 9, 44, 85
7, 118483, Note_on_c, 9, 44, 0
7, 118800, Note_on_c, 9, 44, 85
7, 118843, Note_on_c, 9, 44, 0
7, 119280, Note_on_c, 9, 44, 85
7, 119323, Note_on_c, 9, 44, 0
7, 119640, Note_on_c, 9, 44, 85
7, 119684, Note_on_c, 9, 44, 0
7, 120000, Note_on_c, 9, 44, 85
7, 120043, Note_on_c, 9, 44, 0
7, 120360, Note_on_c, 9, 44, 85
7, 120404, Note_on_c, 9, 44, 0
7, 120720, Note_on_c, 9, 44, 85
7, 120763, Note_on_c, 9, 44, 0
7, 121200, Note_on_c, 9, 44, 96
7, 121243, Note_on_c, 9, 44, 0
7, 121560, Note_on_c, 9, 44, 98
7, 121604, Note_on_c, 9, 44, 0
7, 121920, Note_on_c, 9, 44, 96
7, 121964, Note_on_c, 9, 44, 0
7, 122280, Note_on_c, 9, 44, 96
7, 122323, Note_on_c, 9, 44, 0
7, 122640, Note_on_c, 9, 44, 96
7, 122684, Note_on_c, 9, 44, 0
7, 123120, Note_on_c, 9, 44, 85
7, 123163, Note_on_c, 9, 44, 0
7, 123480, Note_on_c, 9, 44, 85
7, 123524, Note_on_c, 9, 44, 0
7, 123840, Note_on_c, 9, 44, 85
7, 123883, Note_on_c, 9, 44, 0
7, 124200, Note_on_c, 9, 44, 85
7, 124244, Note_on_c, 9, 44, 0
7, 124560, Note_on_c, 9, 44, 85
7, 124603, Note_on_c, 9, 44, 0
7, 125040, Note_on_c, 9, 44, 96
7, 125083, Note_on_c, 9, 44, 0
7, 125400, Note_on_c, 9, 44, 98
7, 125444, Note_on_c, 9, 44, 0
7, 125760, Note_on_c, 9, 44, 96
7, 125804, Note_on_c, 9, 44, 0
7, 126120, Note_on_c, 9, 44, 96
7, 126163, Note_on_c, 9, 44, 0
7, 126480, Note_on_c, 9, 44, 96
7, 126524, Note_on_c, 9, 44, 0
7, 126960, Note_on_c, 9, 44, 96
7, 127003, Note_on_c, 9, 44, 0
7, 127320, Note_on_c, 9, 44, 98
7, 127363, Note_on_c, 9, 44, 0
7, 127680, Note_on_c, 9, 44, 96
7, 127723, Note_on_c, 9, 44, 0
7, 128040, Note_on_c, 9, 44, 96
7, 128083, Note_on_c, 9, 44, 0
7, 128400, Note_on_c, 9, 44, 96
7, 128444, Note_on_c, 9, 44, 0
7, 128880, Note_on_c, 9, 44, 85
7, 128923, Note_on_c, 9, 44, 0
7, 129240, Note_on_c, 9, 44, 85
7, 129284, Note_on_c, 9, 44, 0
7, 129600, Note_on_c, 9, 44, 85
7, 129643, Note_on_c, 9, 44, 0
7, 129960, Note_on_c, 9, 44, 85
7, 130004, Note_on_c, 9, 44, 0
7, 130320, Note_on_c, 9, 44, 85
7, 130363, Note_on_c, 9, 44, 0
7, 130800, Note_on_c, 9, 44, 96
7, 130843, Note_on_c, 9, 44, 0
7, 131160, Note_on_c, 9, 44, 98
7, 131204, Note_on_c, 9, 44, 0
7, 131520, Note_on_c, 9, 44, 96
7, 131564, Note_on_c, 9, 44, 0
7, 131880, Note_on_c, 9, 44, 96
7, 131923, Note_on_c, 9, 44, 0
7, 132240, Note_on_c, 9, 44, 96
7, 132284, Note_on_c, 9, 44, 0
7, 132720, Note_on_c, 9, 44, 85
7, 132763, Note_on_c, 9, 44, 0
7, 133080, Note_on_c, 9, 44, 85
7, 133124, Note_on_c, 9, 44, 0
7, 133440, Note_on_c, 9, 44, 85
7, 133484, Note_on_c, 9, 44, 0
7, 133800, Note_on_c, 9, 44, 85
7, 133843, Note_on_c, 9, 44, 0
7, 134160, Note_on_c, 9, 44, 85
7, 134203, Note_on_c, 9, 44, 0
7, 134640, Note_on_c, 9, 44, 85
7, 134683, Note_on_c, 9, 44, 0
7, 135000, Note_on_c, 9, 44, 85
7, 135044, Note_on_c, 9, 44, 0
7, 135360, Note_on_c, 9, 44, 85
7, 135403, Note_on_c, 9, 44, 0
7, 135720, Note_on_c, 9, 44, 85
7, 135764, Note_on_c, 9, 44, 0
7, 136080, Note_on_c, 9, 44, 85
7, 136123, Note_on_c, 9, 44, 0
7, 136560, Note_on_c, 9, 44, 96
7, 136603, Note_on_c, 9, 44, 0
7, 136920, Note_on_c, 9, 44, 98
7, 136964, Note_on_c, 9, 44, 0
7, 137280, Note_on_c, 9, 44, 96
7, 137324, Note_on_c, 9, 44, 0
7, 137640, Note_on_c, 9, 44, 96
7, 137683, Note_on_c, 9, 44, 0
7, 138000, Note_on_c, 9, 44, 96
7, 138044, Note_on_c, 9, 44, 0
7, 138480, Note_on_c, 9, 44, 85
7, 138523, Note_on_c, 9, 44, 0
7, 138840, Note_on_c, 9, 44, 85
7, 138884, Note_on_c, 9, 44, 0
7, 139200, Note_on_c, 9, 44, 85
7, 139243, Note_on_c, 9, 44, 0
7, 139560, Note_on_c, 9, 44, 85
7, 139604, Note_on_c, 9, 44, 0
7, 139920, Note_on_c, 9, 44, 85
7, 139963, Note_on_c, 9, 44, 0
7, 140400, Note_on_c, 9, 44, 96
7, 140443, Note_on_c, 9, 44, 0
7, 140760, Note_on_c, 9, 44, 98
7, 140804, Note_on_c, 9, 44, 0
7, 141120, Note_on_c, 9, 44, 96
7, 141164, Note_on_c, 9, 44, 0
7, 141480, Note_on_c, 9, 44, 96
7, 141523, Note_on_c, 9, 44, 0
7, 141840, Note_on_c, 9, 44, 96
7, 141884, Note_on_c, 9, 44, 0
7, 142320, Note_on_c, 9, 44, 96
7, 142363, Note_on_c, 9, 44, 0
7, 142680, Note_on_c, 9, 44, 98
7, 142723, Note_on_c, 9, 44, 0
7, 143040, Note_on_c, 9, 44, 96
7, 143083, Note_on_c, 9, 44, 0
7, 143400, Note_on_c, 9, 44, 96
7, 143443, Note_on_c, 9, 44, 0
7, 143760, Note_on_c, 9, 44, 96
7, 143804, Note_on_c, 9, 44, 0
7, 144240, Note_on_c, 9, 44, 85
7, 144283, Note_on_c, 9, 44, 0
7, 144600, Note_on_c, 9, 44, 85
7, 144644, Note_on_c, 9, 44, 0
7, 144960, Note_on_c, 9, 44, 85
7, 145003, Note_on_c, 9, 44, 0
7, 145320, Note_on_c, 9, 44, 85
7, 145364, Note_on_c, 9, 44, 0
7, 145680, Note_on_c, 9, 44, 85
7, 145723, Note_on_c, 9, 44, 0
7, 146160, Note_on_c, 9, 44, 96
7, 146203, Note_on_c, 9, 44, 0
7, 146520, Note_on_c, 9, 44, 98
7, 146564, Note_on_c, 9, 44, 0
7, 146880, Note_on_c, 9, 44, 96
7, 146924, Note_on_c, 9, 44, 0
7, 147240, Note_on_c, 9, 44, 96
7, 147283, Note_on_c, 9, 44, 0
7, 147600, Note_on_c, 9, 44, 96
7, 147644, Note_on_c, 9, 44, 0
7, 148080, Note_on_c, 9, 44, 85
7, 148123, Note_on_c, 9, 44, 0
7, 148440, Note_on_c, 9, 44, 85
7, 148484, Note_on_c, 9, 44, 0
7, 148800, Note_on_c, 9, 44, 85
7, 148844, Note_on_c, 9, 44, 0
7, 149160, Note_on_c, 9, 44, 85
7, 149203, Note_on_c, 9, 44, 0
7, 149520, Note_on_c, 9, 44, 85
7, 149563, Note_on_c, 9, 44, 0
7, 150000, Note_on_c, 9, 44, 85
7, 150043, Note_on_c, 9, 44, 0
7, 150360, Note_on_c, 9, 44, 85
7, 150404, Note_on_c, 9, 44, 0
7, 150720, Note_on_c, 9, 44, 85
7, 150763, Note_on_c, 9, 44, 0
7, 151080, Note_on_c, 9, 44, 85
7, 151124, Note_on_c, 9, 44, 0
7, 151440, Note_on_c, 9, 44, 85
7, 151483, Note_on_c, 9, 44, 0
7, 151920, Note_on_c, 9, 44, 96
7, 151963, Note_on_c, 9, 44, 0
7, 152280, Note_on_c, 9, 44, 98
7, 152324, Note_on_c, 9, 44, 0
7, 152640, Note_on_c, 9, 44, 96
7, 152684, Note_on_c, 9, 44, 0
7, 153000, Note_on_c, 9, 44, 96
7, 153043, Note_on_c, 9, 44, 0
7, 153360, Note_on_c, 9, 44, 96
7, 153404, Note_on_c, 9, 44, 0
7, 153840, Note_on_c, 9, 44, 85
7, 153883, Note_on_c, 9, 44, 0
7, 154200, Note_on_c, 9, 44, 85
7, 154244, Note_on_c, 9, 44, 0
7, 154560, Note_on_c, 9, 44, 85
7, 154603, Note_on_c, 9, 44, 0
7, 154920, Note_on_c, 9, 44, 85
7, 154964, Note_on_c, 9, 44, 0
7, 155280, Note_on_c, 9, 44, 85
7, 155323, Note_on_c, 9, 44, 0
7, 155760, Note_on_c, 9, 44, 96
7, 155803, Note_on_c, 9, 44, 0
7, 156120, Note_on_c, 9, 44, 98
7, 156164, Note_on_c, 9, 44, 0
7, 156480, Note_on_c, 9, 44, 96
7, 156524, Note_on_c, 9, 44, 0
7, 156840, Note_on_c, 9, 44, 96
7, 156883, Note_on_c, 9, 44, 0
7, 157200, Note_on_c, 9, 44, 96
7, 157244, Note_on_c, 9, 44, 0
7, 157680, Note_on_c, 9, 44, 96
7, 157723, Note_on_c, 9, 44, 0
7, 158040, Note_on_c, 9, 44, 98
7, 158083, Note_on_c, 9, 44, 0
7, 158400, Note_on_c, 9, 44, 96
7, 158443, Note_on_c, 9, 44, 0
7, 158760, Note_on_c, 9, 44, 96
7, 158803, Note_on_c, 9, 44, 0
7, 159120, Note_on_c, 9, 44, 96
7, 159164, Note_on_c, 9, 44, 0
7, 159600, Note_on_c, 9, 44, 85
7, 159643, Note_on_c, 9, 44, 0
7, 159960, Note_on_c, 9, 44, 85
7, 160004, Note_on_c, 9, 44, 0
7, 160320, Note_on_c, 9, 44, 85
7, 160363, Note_on_c, 9, 44, 0
7, 160680, Note_on_c, 9, 44, 85
7, 160724, Note_on_c, 9, 44, 0
7, 161040, Note_on_c, 9, 44, 85
7, 161083, Note_on_c, 9, 44, 0
7, 161520, Note_on_c, 9, 44, 96
7, 161563, Note_on_c, 9, 44, 0
7, 161880, Note_on_c, 9, 44, 98
7, 161924, Note_on_c, 9, 44, 0
7, 162240, Note_on_c, 9, 44, 96
7, 162284, Note_on_c, 9, 44, 0
7, 162600, Note_on_c, 9, 44, 96
7, 162643, Note_on_c, 9, 44, 0
7, 162960, Note_on_c, 9, 44, 96
7, 163004, Note_on_c, 9, 44, 0
7, 163440, Note_on_c, 9, 44, 85
7, 163483, Note_on_c, 9, 44, 0
7, 163800, Note_on_c, 9, 44, 85
7, 163844, Note_on_c, 9, 44, 0
7, 164160, Note_on_c, 9, 44, 85
7, 164204, Note_on_c, 9, 44, 0
7, 164520, Note_on_c, 9, 44, 85
7, 164563, Note_on_c, 9, 44, 0
7, 164880, Note_on_c, 9, 44, 85
7, 164923, Note_on_c, 9, 44, 0
7, 165360, Note_on_c, 9, 44, 85
7, 165403, Note_on_c, 9, 44, 0
7, 165720, Note_on_c, 9, 44, 85
7, 165764, Note_on_c, 9, 44, 0
7, 166080, Note_on_c, 9, 44, 85
7, 166123, Note_on_c, 9, 44, 0
7, 166440, Note_on_c, 9, 44, 85
7, 166484, Note_on_c, 9, 44, 0
7, 166800, Note_on_c, 9, 44, 85
7, 166843, Note_on_c, 9, 44, 0
7, 167280, Note_on_c, 9, 44, 96
7, 167323, Note_on_c, 9, 44, 0
7, 167640, Note_on_c, 9, 44, 98
7, 167684, Note_on_c, 9, 44, 0
7, 168000, Note_on_c, 9, 44, 96
7, 168044, Note_on_c, 9, 44, 0
7, 168360, Note_on_c, 9, 44, 96
7, 168403, Note_on_c, 9, 44, 0
7, 168720, Note_on_c, 9, 44, 96
7, 168764, Note_on_c, 9, 44, 0
7, 169200, Note_on_c, 9, 44, 85
7, 169243, Note_on_c, 9, 44, 0
7, 169560, Note_on_c, 9, 44, 85
7, 169604, Note_on_c, 9, 44, 0
7, 169920, Note_on_c, 9, 44, 85
7, 169963, Note_on_c, 9, 44, 0
7, 170280, Note_on_c, 9, 44, 85
7, 170324, Note_on_c, 9, 44, 0
7, 170640, Note_on_c, 9, 44, 85
7, 170683, Note_on_c, 9, 44, 0
7, 171120, Note_on_c, 9, 44, 96
7, 171163, Note_on_c, 9, 44, 0
7, 171480, Note_on_c, 9, 44, 98
7, 171524, Note_on_c, 9, 44, 0
7, 171840, Note_on_c, 9, 44, 96
7, 171884, Note_on_c, 9, 44, 0
7, 172200, Note_on_c, 9, 44, 96
7, 172243, Note_on_c, 9, 44, 0
7, 172560, Note_on_c, 9, 44, 96
7, 172604, Note_on_c, 9, 44, 0
7, 173040, Note_on_c, 9, 44, 96
7, 173083, Note_on_c, 9, 44, 0
7, 173400, Note_on_c, 9, 44, 98
7, 173443, Note_on_c, 9, 44, 0
7, 173760, Note_on_c, 9, 44, 96
7, 173803, Note_on_c, 9, 44, 0
7, 174120, Note_on_c, 9, 44, 96
7, 174163, Note_on_c, 9, 44, 0
7, 174480, Note_on_c, 9, 44, 96
7, 174524, Note_on_c, 9, 44, 0
7, 174960, Note_on_c, 9, 44, 85
7, 175003, Note_on_c, 9, 44, 0
7, 175320, Note_on_c, 9, 44, 85
7, 175364, Note_on_c, 9, 44, 0
7, 175680, Note_on_c, 9, 44, 85
7, 175723, Note_on_c, 9, 44, 0
7, 176040, Note_on_c, 9, 44, 85
7, 176084, Note_on_c, 9, 44, 0
7, 176400, Note_on_c, 9, 44, 85
7, 176443, Note_on_c, 9, 44, 0
7, 176880, Note_on_c, 9, 44, 96
7, 176923, Note_on_c, 9, 44, 0
7, 177240, Note_on_c, 9, 44, 98
7, 177284, Note_on_c, 9, 44, 0
7, 177600, Note_on_c, 9, 44, 96
7, 177644, Note_on_c, 9, 44, 0
7, 177960, Note_on_c, 9, 44, 96
7, 178003, Note_on_c, 9, 44, 0
7, 178320, Note_on_c, 9, 44, 96
7, 178364, Note_on_c, 9, 44, 0
7, 178800, Note_on_c, 9, 44, 85
7, 178843, Note_on_c, 9, 44, 0
7, 179160, Note_on_c, 9, 44, 85
7, 179204, Note_on_c, 9, 44, 0
7, 179520, Note_on_c, 9, 44, 85
7, 179564, Note_on_c, 9, 44, 0
7, 179880, Note_on_c, 9, 44, 85
7, 179923, Note_on_c, 9, 44, 0
7, 180240, Note_on_c, 9, 44, 85
7, 180283, Note_on_c, 9, 44, 0
7, 180720, Note_on_c, 9, 44, 85
7, 180763, Note_on_c, 9, 44, 0
7, 181080, Note_on_c, 9, 44, 85
7, 181124, Note_on_c, 9, 44, 0
7, 181440, Note_on_c, 9, 44, 85
7, 181483, Note_on_c, 9, 44, 0
7, 181800, Note_on_c, 9, 44, 85
7, 181844, Note_on_c, 9, 44, 0
7, 182160, Note_on_c, 9, 44, 85
7, 182203, Note_on_c, 9, 44, 0
7, 182640, Note_on_c, 9, 44, 96
7, 182683, Note_on_c, 9, 44, 0
7, 183000, Note_on_c, 9, 44, 98
7, 183044, Note_on_c, 9, 44, 0
7, 183360, Note_on_c, 9, 44, 96
7, 183404, Note_on_c, 9, 44, 0
7, 183720, Note_on_c, 9, 44, 96
7, 183763, Note_on_c, 9, 44, 0
7, 184080, Note_on_c, 9, 44, 96
7, 184124, Note_on_c, 9, 44, 0
7, 184560, Note_on_c, 9, 44, 85
7, 184603, Note_on_c, 9, 44, 0
7, 184920, Note_on_c, 9, 44, 85
7, 184964, Note_on_c, 9, 44, 0
7, 185280, Note_on_c, 9, 44, 85
7, 185323, Note_on_c, 9, 44, 0
7, 185640, Note_on_c, 9, 44, 85
7, 185684, Note_on_c, 9, 44, 0
7, 186000, Note_on_c, 9, 44, 85
7, 186043, Note_on_c, 9, 44, 0
7, 186480, Note_on_c, 9, 44, 96
7, 186523, Note_on_c, 9, 44, 0
7, 186840, Note_on_c, 9, 44, 98
7, 186884, Note_on_c, 9, 44, 0
7, 187200, Note_on_c, 9, 44, 96
7, 187244, Note_on_c, 9, 44, 0
7, 187560, Note_on_c, 9, 44, 96
7, 187603, Note_on_c, 9, 44, 0
7, 187920, Note_on_c, 9, 44, 96
7, 187964, Note_on_c, 9, 44, 0
7, 188400, Note_on_c, 9, 44, 96
7, 188443, Note_on_c, 9, 44, 0
7, 188760, Note_on_c, 9, 44, 98
7, 188803, Note_on_c, 9, 44, 0
7, 189120, Note_on_c, 9, 44, 96
7, 189163, Note_on_c, 9, 44, 0
7, 189480, Note_on_c, 9, 44, 96
7, 189523, Note_on_c, 9, 44, 0
7, 189840, Note_on_c, 9, 44, 96
7, 189884, Note_on_c, 9, 44, 0
7, 190320, Note_on_c, 9, 44, 85
7, 190363, Note_on_c, 9, 44, 0
7, 190680, Note_on_c, 9, 44, 85
7, 190724, Note_on_c, 9, 44, 0
7, 191040, Note_on_c, 9, 44, 85
7, 191083, Note_on_c, 9, 44, 0
7, 191400, Note_on_c, 9, 44, 85
7, 191444, Note_on_c, 9, 44, 0
7, 191760, Note_on_c, 9, 44, 85
7, 191803, Note_on_c, 9, 44, 0
7, 192240, Note_on_c, 9, 44, 96
7, 192283, Note_on_c, 9, 44, 0
7, 192600, Note_on_c, 9, 44, 98
7, 192644, Note_on_c, 9, 44, 0
7, 192960, Note_on_c, 9, 44, 96
7, 193004, Note_on_c, 9, 44, 0
7, 193320, Note_on_c, 9, 44, 96
7, 193363, Note_on_c, 9, 44, 0
7, 193680, Note_on_c, 9, 44, 96
7, 193724, Note_on_c, 9, 44, 0
7, 194160, Note_on_c, 9, 44, 85
7, 194203, Note_on_c, 9, 44, 0
7, 194520, Note_on_c, 9, 44, 85
7, 194564, Note_on_c, 9, 44, 0
7, 194880, Note_on_c, 9, 44, 85
7, 194924, Note_on_c, 9, 44, 0
7, 195240, Note_on_c, 9, 44, 85
7, 195283, Note_on_c, 9, 44, 0
7, 195600, Note_on_c, 9, 44, 85
7, 195643, Note_on_c, 9, 44, 0
7, 196080, Note_on_c, 9, 44, 85
7, 196123, Note_on_c, 9, 44, 0
7, 196440, Note_on_c, 9, 44, 85
7, 196484, Note_on_c, 9, 44, 0
7, 196800, Note_on_c, 9, 44, 85
7, 196843, Note_on_c, 9, 44, 0
7, 197160, Note_on_c, 9, 44, 85
7, 197204, Note_on_c, 9, 44, 0
7, 197520, Note_on_c, 9, 44, 85
7, 197563, Note_on_c, 9, 44, 0
7, 198000, Note_on_c, 9, 44, 96
7, 198043, Note_on_c, 9, 44, 0
7, 198360, Note_on_c, 9, 44, 98
7, 198404, Note_on_c, 9, 44, 0
7, 198720, Note_on_c, 9, 44, 96
7, 198764, Note_on_c, 9, 44, 0
7, 199080, Note_on_c, 9, 44, 96
7, 199123, Note_on_c, 9, 44, 0
7, 199440, Note_on_c, 9, 44, 96
7, 199484, Note_on_c, 9, 44, 0
7, 199920, Note_on_c, 9, 44, 85
7, 199963, Note_on_c, 9, 44, 0
7, 200280, Note_on_c, 9, 44, 85
7, 200324, Note_on_c, 9, 44, 0
7, 200640, Note_on_c, 9, 44, 85
7, 200683, Note_on_c, 9, 44, 0
7, 201000, Note_on_c, 9, 44, 85
7, 201044, Note_on_c, 9, 44, 0
7, 201360, Note_on_c, 9, 44, 85
7, 201403, Note_on_c, 9, 44, 0
7, 201840, Note_on_c, 9, 44, 96
7, 201883, Note_on_c, 9, 44, 0
7, 202200, Note_on_c, 9, 44, 98
7, 202244, Note_on_c, 9, 44, 0
7, 202560, Note_on_c, 9, 44, 96
7, 202604, Note_on_c, 9, 44, 0
7, 202920, Note_on_c, 9, 44, 96
7, 202963, Note_on_c, 9, 44, 0
7, 203280, Note_on_c, 9, 44, 96
7, 203324, Note_on_c, 9, 44, 0
7, 203760, Note_on_c, 9, 44, 96
7, 203803, Note_on_c, 9, 44, 0
7, 204120, Note_on_c, 9, 44, 98
7, 204163, Note_on_c, 9, 44, 0
7, 204480, Note_on_c, 9, 44, 96
7, 204523, Note_on_c, 9, 44, 0
7, 204840, Note_on_c, 9, 44, 96
7, 204883, Note_on_c, 9, 44, 0
7, 205200, Note_on_c, 9, 44, 96
7, 205244, Note_on_c, 9, 44, 0
7, 205680, Note_on_c, 9, 44, 85
7, 205723, Note_on_c, 9, 44, 0
7, 206040, Note_on_c, 9, 44, 85
7, 206084, Note_on_c, 9, 44, 0
7, 206400, Note_on_c, 9, 44, 85
7, 206443, Note_on_c, 9, 44, 0
7, 206760, Note_on_c, 9, 44, 85
7, 206804, Note_on_c, 9, 44, 0
7, 207120, Note_on_c, 9, 44, 85
7, 207163, Note_on_c, 9, 44, 0
7, 207600, Note_on_c, 9, 44, 96
7, 207643, Note_on_c, 9, 44, 0
7, 207960, Note_on_c, 9, 44, 98
7, 208004, Note_on_c, 9, 44, 0
7, 208320, Note_on_c, 9, 44, 96
7, 208364, Note_on_c, 9, 44, 0
7, 208680, Note_on_c, 9, 44, 96
7, 208723, Note_on_c, 9, 44, 0
7, 209040, Note_on_c, 9, 44, 96
7, 209084, Note_on_c, 9, 44, 0
7, 209520, Note_on_c, 9, 44, 85
7, 209563, Note_on_c, 9, 44, 0
7, 209880, Note_on_c, 9, 44, 85
7, 209924, Note_on_c, 9, 44, 0
7, 210240, Note_on_c, 9, 44, 85
7, 210284, Note_on_c, 9, 44, 0
7, 210600, Note_on_c, 9, 44, 85
7, 210643, Note_on_c, 9, 44, 0
7, 210960, Note_on_c, 9, 44, 85
7, 211003, Note_on_c, 9, 44, 0
7, 211440, Note_on_c, 9, 44, 85
7, 211483, Note_on_c, 9, 44, 0
7, 211800, Note_on_c, 9, 44, 85
7, 211844, Note_on_c, 9, 44, 0
7, 212160, Note_on_c, 9, 44, 85
7, 212203, Note_on_c, 9, 44, 0
7, 212520, Note_on_c, 9, 44, 85
7, 212564, Note_on_c, 9, 44, 0
7, 212880, Note_on_c, 9, 44, 85
7, 212923, Note_on_c, 9, 44, 0
7, 213360, Note_on_c, 9, 44, 96
7, 213403, Note_on_c, 9, 44, 0
7, 213720, Note_on_c, 9, 44, 98
7, 213764, Note_on_c, 9, 44, 0
7, 214080, Note_on_c, 9, 44, 96
7, 214124, Note_on_c, 9, 44, 0
7, 214440, Note_on_c, 9, 44, 96
7, 214483, Note_on_c, 9, 44, 0
7, 214800, Note_on_c, 9, 44, 96
7, 214844, Note_on_c, 9, 44, 0
7, 215280, Note_on_c, 9, 44, 85
7, 215323, Note_on_c, 9, 44, 0
7, 215640, Note_on_c, 9, 44, 85
7, 215684, Note_on_c, 9, 44, 0
7, 216000, Note_on_c, 9, 44, 85
7, 216043, Note_on_c, 9, 44, 0
7, 216360, Note_on_c, 9, 44, 85
7, 216404, Note_on_c, 9, 44, 0
7, 216720, Note_on_c, 9, 44, 85
7, 216763, Note_on_c, 9, 44, 0
7, 217200, Note_on_c, 9, 44, 96
7, 217243, Note_on_c, 9, 44, 0
7, 217560, Note_on_c, 9, 44, 98
7, 217604, Note_on_c, 9, 44, 0
7, 217920, Note_on_c, 9, 44, 96
7, 217964, Note_on_c, 9, 44, 0
7, 218280, Note_on_c, 9, 44, 96
7, 218323, Note_on_c, 9, 44, 0
7, 218640, Note_on_c, 9, 44, 96
7, 218684, Note_on_c, 9, 44, 0
7, 219120, Note_on_c, 9, 44, 96
7, 219163, Note_on_c, 9, 44, 0
7, 219480, Note_on_c, 9, 44, 98
7, 219523, Note_on_c, 9, 44, 0
7, 219840, Note_on_c, 9, 44, 96
7, 219883, Note_on_c, 9, 44, 0
7, 220200, Note_on_c, 9, 44, 96
7, 220243, Note_on_c, 9, 44, 0
7, 220560, Note_on_c, 9, 44, 96
7, 220604, Note_on_c, 9, 44, 0
7, 221040, Note_on_c, 9, 44, 85
7, 221083, Note_on_c, 9, 44, 0
7, 221400, Note_on_c, 9, 44, 85
7, 221444, Note_on_c, 9, 44, 0
7, 221760, Note_on_c, 9, 44, 85
7, 221803, Note_on_c, 9, 44, 0
7, 222120, Note_on_c, 9, 44, 85
7, 222164, Note_on_c, 9, 44, 0
7, 222480, Note_on_c, 9, 44, 85
7, 222523, Note_on_c, 9, 44, 0
7, 222960, Note_on_c, 9, 44, 96
7, 223003, Note_on_c, 9, 44, 0
7, 223320, Note_on_c, 9, 44, 98
7, 223364, Note_on_c, 9, 44, 0
7, 223680, Note_on_c, 9, 44, 96
7, 223724, Note_on_c, 9, 44, 0
7, 224040, Note_on_c, 9, 44, 96
7, 224083, Note_on_c, 9, 44, 0
7, 224400, Note_on_c, 9, 44, 96
7, 224444, Note_on_c, 9, 44, 0
7, 224880, Note_on_c, 9, 44, 85
7, 224923, Note_on_c, 9, 44, 0
7, 225240, Note_on_c, 9, 44, 85
7, 225284, Note_on_c, 9, 44, 0
7, 225600, Note_on_c, 9, 44, 85
7, 225644, Note_on_c, 9, 44, 0
7, 225960, Note_on_c, 9, 44, 85
7, 226003, Note_on_c, 9, 44, 0
7, 226320, Note_on_c, 9, 44, 85
7, 226363, Note_on_c, 9, 44, 0
7, 226800, Note_on_c, 9, 44, 85
7, 226843, Note_on_c, 9, 44, 0
7, 227160, Note_on_c, 9, 44, 85
7, 227204, Note_on_c, 9, 44, 0
7, 227520, Note_on_c, 9, 44, 85
7, 227563, Note_on_c, 9, 44, 0
7, 227880, Note_on_c, 9, 44, 85
7, 227924, Note_on_c, 9, 44, 0
7, 228240, Note_on_c, 9, 44, 85
7, 228283, Note_on_c, 9, 44, 0
7, 228720, Note_on_c, 9, 44, 96
7, 228763, Note_on_c, 9, 44, 0
7, 229080, Note_on_c, 9, 44, 98
7, 229124, Note_on_c, 9, 44, 0
7, 229440, Note_on_c, 9, 44, 96
7, 229484, Note_on_c, 9, 44, 0
7, 229800, Note_on_c, 9, 44, 96
7, 229843, Note_on_c, 9, 44, 0
7, 230160, Note_on_c, 9, 44, 96
7, 230204, Note_on_c, 9, 44, 0
7, 230640, Note_on_c, 9, 44, 85
7, 230683, Note_on_c, 9, 44, 0
7, 231000, Note_on_c, 9, 44, 85
7, 231044, Note_on_c, 9, 44, 0
7, 231360, Note_on_c, 9, 44, 85
7, 231403, Note_on_c, 9, 44, 0
7, 231720, Note_on_c, 9, 44, 85
7, 231764, Note_on_c, 9, 44, 0
7, 232080, Note_on_c, 9, 44, 85
7, 232123, Note_on_c, 9, 44, 0
7, 232560, Note_on_c, 9, 44, 96
7, 232603, Note_on_c, 9, 44, 0
7, 232920, Note_on_c, 9, 44, 98
7, 232964, Note_on_c, 9, 44, 0
7, 233280, Note_on_c, 9, 44, 96
7, 233324, Note_on_c, 9, 44, 0
7, 233640, Note_on_c, 9, 44, 96
7, 233683, Note_on_c, 9, 44, 0
7, 234000, Note_on_c, 9, 44, 96
7, 234044, Note_on_c, 9, 44, 0
7, 234480, Note_on_c, 9, 44, 96
7, 234523, Note_on_c, 9, 44, 0
7, 234840, Note_on_c, 9, 44, 98
7, 234883, Note_on_c, 9, 44, 0
7, 235200, Note_on_c, 9, 44, 96
7, 235243, Note_on_c, 9, 44, 0
7, 235560, Note_on_c, 9, 44, 96
7, 235603, Note_on_c, 9, 44, 0
7, 235920, Note_on_c, 9, 44, 96
7, 235964, Note_on_c, 9, 44, 0
7, 236400, Note_on_c, 9, 44, 85
7, 236443, Note_on_c, 9, 44, 0
7, 236760, Note_on_c, 9, 44, 85
7, 236804, Note_on_c, 9, 44, 0
7, 237120, Note_on_c, 9, 44, 85
7, 237163, Note_on_c, 9, 44, 0
7, 237480, Note_on_c, 9, 44, 85
7, 237524, Note_on_c, 9, 44, 0
7, 237840, Note_on_c, 9, 44, 85
7, 237883, Note_on_c, 9, 44, 0
7, 238320, Note_on_c, 9, 44, 96
7, 238363, Note_on_c, 9, 44, 0
7, 238680, Note_on_c, 9, 44, 98
7, 238724, Note_on_c, 9, 44, 0
7, 239040, Note_on_c, 9, 44, 96
7, 239084, Note_on_c, 9, 44, 0
7, 239400, Note_on_c, 9, 44, 96
7, 239443, Note_on_c, 9, 44, 0
7, 239760, Note_on_c, 9, 44, 96
7, 239804, Note_on_c, 9, 44, 0
7, 240240, Note_on_c, 9, 44, 85
7, 240283, Note_on_c, 9, 44, 0
7, 240600, Note_on_c, 9, 44, 85
7, 240644, Note_on_c, 9, 44, 0
7, 240960, Note_on_c, 9, 44, 85
7, 241004, Note_on_c, 9, 44, 0
7, 241320, Note_on_c, 9, 44, 85
7, 241363, Note_on_c, 9, 44, 0
7, 241680, Note_on_c, 9, 44, 85
7, 241723, Note_on_c, 9, 44, 0
7, 242160, Note_on_c, 9, 44, 85
7, 242203, Note_on_c, 9, 44, 0
7, 242520, Note_on_c, 9, 44, 85
7, 242564, Note_on_c, 9, 44, 0
7, 242880, Note_on_c, 9, 44, 85
7, 242923, Note_on_c, 9, 44, 0
7, 243240, Note_on_c, 9, 44, 85
7, 243284, Note_on_c, 9, 44, 0
7, 243600, Note_on_c, 9, 44, 85
7, 243643, Note_on_c, 9, 44, 0
7, 244080, Note_on_c, 9, 44, 126
7, 244123, Note_on_c, 9, 44, 0
7, 244440, Note_on_c, 9, 44, 127
7, 244484, Note_on_c, 9, 44, 0
7, 244800, Note_on_c, 9, 44, 126
7, 244844, Note_on_c, 9, 44, 0
7, 245160, Note_on_c, 9, 44, 126
7, 245203, Note_on_c, 9, 44, 0
7, 245520, Note_on_c, 9, 44, 126
7, 245564, Note_on_c, 9, 44, 0
7, 246000, Note_on_c, 9, 44, 110
7, 246043, Note_on_c, 9, 44, 0
7, 246360, Note_on_c, 9, 44, 110
7, 246404, Note_on_c, 9, 44, 0
7, 246720, Note_on_c, 9, 44, 110
7, 246763, Note_on_c, 9, 44, 0
7, 247080, Note_on_c, 9, 44, 110
7, 247124, Note_on_c, 9, 44, 0
7, 247440, Note_on_c, 9, 44, 110
7, 247483, Note_on_c, 9, 44, 0
7, 247920, Note_on_c, 9, 44, 126
7, 247963, Note_on_c, 9, 44, 0
7, 248280, Note_on_c, 9, 44, 127
7, 248324, Note_on_c, 9, 44, 0
7, 248640, Note_on_c, 9, 44, 126
7, 248684, Note_on_c, 9, 44, 0
7, 249000, Note_on_c, 9, 44, 126
7, 249043, Note_on_c, 9, 44, 0
7, 249360, Note_on_c, 9, 44, 126
7, 249404, Note_on_c, 9, 44, 0
7, 249840, Note_on_c, 9, 44, 126
7, 249883, Note_on_c, 9, 44, 0
7, 250200, Note_on_c, 9, 44, 127
7, 250243, Note_on_c, 9, 44, 0
7, 250560, Note_on_c, 9, 44, 126
7, 250603, Note_on_c, 9, 44, 0
7, 250920, Note_on_c, 9, 44, 126
7, 250963, Note_on_c, 9, 44, 0
7, 251280, Note_on_c, 9, 44, 126
7, 251324, Note_on_c, 9, 44, 0
7, 251760, Note_on_c, 9, 44, 110
7, 251803, Note_on_c, 9, 44, 0
7, 252120, Note_on_c, 9, 44, 110
7, 252164, Note_on_c, 9, 44, 0
7, 252480, Note_on_c, 9, 44, 110
7, 252523, Note_on_c, 9, 44, 0
7, 252840, Note_on_c, 9, 44, 110
7, 252884, Note_on_c, 9, 44, 0
7, 253200, Note_on_c, 9, 44, 110
7, 253243, Note_on_c, 9, 44, 0
7, 253680, Note_on_c, 9, 44, 126
7, 253723, Note_on_c, 9, 44, 0
7, 254040, Note_on_c, 9, 44, 127
7, 254084, Note_on_c, 9, 44, 0
7, 254400, Note_on_c, 9, 44, 126
7, 254444, Note_on_c, 9, 44, 0
7, 254760, Note_on_c, 9, 44, 126
7, 254803, Note_on_c, 9, 44, 0
7, 255120, Note_on_c, 9, 44, 126
7, 255164, Note_on_c, 9, 44, 0
7, 255600, Note_on_c, 9, 44, 110
7, 255643, Note_on_c, 9, 44, 0
7, 255960, Note_on_c, 9, 44, 110
7, 256004, Note_on_c, 9, 44, 0
7, 256320, Note_on_c, 9, 44, 110
7, 256364, Note_on_c, 9, 44, 0
7, 256680, Note_on_c, 9, 44, 110
7, 256723, Note_on_c, 9, 44, 0
7, 257040, Note_on_c, 9, 44, 110
7, 257083, Note_on_c, 9, 44, 0
7, 257520, Note_on_c, 9, 44, 110
7, 257563, Note_on_c, 9, 44, 0
7, 257880, Note_on_c, 9, 44, 110
7, 257924, Note_on_c, 9, 44, 0
7, 258240, Note_on_c, 9, 44, 110
7, 258283, Note_on_c, 9, 44, 0
7, 258600, Note_on_c, 9, 44, 110
7, 258644, Note_on_c, 9, 44, 0
7, 258960, Note_on_c, 9, 44, 110
7, 259003, Note_on_c, 9, 44, 0
7, 259440, Note_on_c, 9, 44, 126
7, 259483, Note_on_c, 9, 44, 0
7, 259800, Note_on_c, 9, 44, 127
7, 259844, Note_on_c, 9, 44, 0
7, 260160, Note_on_c, 9, 44, 126
7, 260204, Note_on_c, 9, 44, 0
7, 260520, Note_on_c, 9, 44, 126
7, 260563, Note_on_c, 9, 44, 0
7, 260880, Note_on_c, 9, 44, 126
7, 260924, Note_on_c, 9, 44, 0
7, 261360, Note_on_c, 9, 44, 110
7, 261403, Note_on_c, 9, 44, 0
7, 261720, Note_on_c, 9, 44, 110
7, 261764, Note_on_c, 9, 44, 0
7, 262080, Note_on_c, 9, 44, 110
7, 262123, Note_on_c, 9, 44, 0
7, 262440, Note_on_c, 9, 44, 110
7, 262484, Note_on_c, 9, 44, 0
7, 262800, Note_on_c, 9, 44, 110
7, 262843, Note_on_c, 9, 44, 0
7, 263280, Note_on_c, 9, 44, 126
7, 263323, Note_on_c, 9, 44, 0
7, 263640, Note_on_c, 9, 44, 127
7, 263684, Note_on_c, 9, 44, 0
7, 264000, Note_on_c, 9, 44, 126
7, 264044, Note_on_c, 9, 44, 0
7, 264360, Note_on_c, 9, 44, 126
7, 264403, Note_on_c, 9, 44, 0
7, 264720, Note_on_c, 9, 44, 126
7, 264764, Note_on_c, 9, 44, 0
7, 265200, Note_on_c, 9, 44, 126
7, 265243, Note_on_c, 9, 44, 0
7, 265560, Note_on_c, 9, 44, 127
7, 265603, Note_on_c, 9, 44, 0
7, 265920, Note_on_c, 9, 44, 126
7, 265963, Note_on_c, 9, 44, 0
7, 266280, Note_on_c, 9, 44, 126
7, 266323, Note_on_c, 9, 44, 0
7, 266640, Note_on_c, 9, 44, 126
7, 266684, Note_on_c, 9, 44, 0
7, 267120, Note_on_c, 9, 44, 110
7, 267163, Note_on_c, 9, 44, 0
7, 267480, Note_on_c, 9, 44, 110
7, 267524, Note_on_c, 9, 44, 0
7, 267840, Note_on_c, 9, 44, 110
7, 267883, Note_on_c, 9, 44, 0
7, 268200, Note_on_c, 9, 44, 110
7, 268244, Note_on_c, 9, 44, 0
7, 268560, Note_on_c, 9, 44, 110
7, 268603, Note_on_c, 9, 44, 0
7, 269040, Note_on_c, 9, 44, 126
7, 269083, Note_on_c, 9, 44, 0
7, 269400, Note_on_c, 9, 44, 127
7, 269444, Note_on_c, 9, 44, 0
7, 269760, Note_on_c, 9, 44, 126
7, 269804, Note_on_c, 9, 44, 0
7, 270120, Note_on_c, 9, 44, 126
7, 270163, Note_on_c, 9, 44, 0
7, 270480, Note_on_c, 9, 44, 126
7, 270524, Note_on_c, 9, 44, 0
7, 270960, Note_on_c, 9, 44, 110
7, 271003, Note_on_c, 9, 44, 0
7, 271320, Note_on_c, 9, 44, 110
7, 271364, Note_on_c, 9, 44, 0
7, 271680, Note_on_c, 9, 44, 110
7, 271724, Note_on_c, 9, 44, 0
7, 272040, Note_on_c, 9, 44, 110
7, 272083, Note_on_c, 9, 44, 0
7, 272400, Note_on_c, 9, 44, 110
7, 272443, Note_on_c, 9, 44, 0
7, 272880, Note_on_c, 9, 44, 110
7, 272923, Note_on_c, 9, 44, 0
7, 273240, Note_on_c, 9, 44, 110
7, 273284, Note_on_c, 9, 44, 0
7, 273600, Note_on_c, 9, 44, 110
7, 273643, Note_on_c, 9, 44, 0
7, 273960, Note_on_c, 9, 44, 110
7, 274004, Note_on_c, 9, 44, 0
7, 274320, Note_on_c, 9, 44, 110
7, 274363, Note_on_c, 9, 44, 0
7, 274800, Note_on_c, 9, 44, 126
7, 274843, Note_on_c, 9, 44, 0
7, 275160, Note_on_c, 9, 44, 127
7, 275204, Note_on_c, 9, 44, 0
7, 275520, Note_on_c, 9, 44, 126
7, 275564, Note_on_c, 9, 44, 0
7, 275880, Note_on_c, 9, 44, 126
7, 275923, Note_on_c, 9, 44, 0
7, 276240, Note_on_c, 9, 44, 126
7, 276284, Note_on_c, 9, 44, 0
7, 276720, Note_on_c, 9, 44, 110
7, 276763, Note_on_c, 9, 44, 0
7, 277080, Note_on_c, 9, 44, 110
7, 277124, Note_on_c, 9, 44, 0
7, 277440, Note_on_c, 9, 44, 110
7, 277483, Note_on_c, 9, 44, 0
7, 277800, Note_on_c, 9, 44, 110
7, 277844, Note_on_c, 9, 44, 0
7, 278160, Note_on_c, 9, 44, 110
7, 278203, Note_on_c, 9, 44, 0
7, 278640, Note_on_c, 9, 44, 126
7, 278683, Note_on_c, 9, 44, 0
7, 279000, Note_on_c, 9, 44, 127
7, 279044, Note_on_c, 9, 44, 0
7, 279360, Note_on_c, 9, 44, 126
7, 279404, Note_on_c, 9, 44, 0
7, 279720, Note_on_c, 9, 44, 126
7, 279763, Note_on_c, 9, 44, 0
7, 280080, Note_on_c, 9, 44, 126
7, 280124, Note_on_c, 9, 44, 0
7, 284160, End_track
8, 0, Start_track
8, 0, Text_t, "hi tom"
8, 3840, Note_on_c, 9, 53, 122
8, 4058, Note_on_c, 9, 53, 0
8, 4080, Note_on_c, 9, 53, 95
8, 4200, Note_on_c, 9, 53, 107
8, 4296, Note_on_c, 9, 53, 0
8, 4296, Note_on_c, 9, 53, 0
8, 4440, Note_on_c, 9, 53, 100
8, 4657, Note_on_c, 9, 53, 0
8, 4680, Note_on_c, 9, 53, 100
8, 4899, Note_on_c, 9, 53, 0
8, 4920, Note_on_c, 9, 53, 107
8, 5040, Note_on_c, 9, 53, 111
8, 5137, Note_on_c, 9, 53, 0
8, 5137, Note_on_c, 9, 53, 0
8, 5280, Note_on_c, 9, 53, 122
8, 5498, Note_on_c, 9, 53, 0
8, 5520, Note_on_c, 9, 53, 111
8, 5640, Note_on_c, 9, 53, 122
8, 5734, Note_on_c, 9, 53, 0
8, 5734, Note_on_c, 9, 53, 0
8, 5880, Note_on_c, 9, 53, 119
8, 6000, Note_on_c, 9, 53, 119
8, 6092, Note_on_c, 9, 53, 0
8, 6092, Note_on_c, 9, 53, 0
8, 6240, Note_on_c, 9, 53, 122
8, 6455, Note_on_c, 9, 53, 0
8, 6480, Note_on_c, 9, 53, 107
8, 6600, Note_on_c, 9, 53, 111
8, 6697, Note_on_c, 9, 53, 0
8, 6697, Note_on_c, 9, 53, 0
8, 6840, Note_on_c, 9, 53, 115
8, 6960, Note_on_c, 9, 53, 111
8, 7057, Note_on_c, 9, 53, 0
8, 7057, Note_on_c, 9, 53, 0
8, 7200, Note_on_c, 9, 53, 122
8, 7416, Note_on_c, 9, 53, 0
8, 7440, Note_on_c, 9, 53, 119
8, 7658, Note_on_c, 9, 53, 0
8, 7680, Note_on_c, 9, 53, 122
8, 7896, Note_on_c, 9, 53, 0
8, 7920, Note_on_c, 9, 53, 95
8, 8040, Note_on_c, 9, 53, 107
8, 8135, Note_on_c, 9, 53, 0
8, 8135, Note_on_c, 9, 53, 0
8, 8280, Note_on_c, 9, 53, 100
8, 8496, Note_on_c, 9, 53, 0
8, 8520, Note_on_c, 9, 53, 100
8, 8739, Note_on_c, 9, 53, 0
8, 8760, Note_on_c, 9, 53, 107
8, 8880, Note_on_c, 9, 53, 111
8, 8977, Note_on_c, 9, 53, 0
8, 8977, Note_on_c, 9, 53, 0
8, 9120, Note_on_c, 9, 53, 122
8, 9335, Note_on_c, 9, 53, 0
8, 9360, Note_on_c, 9, 53, 111
8, 9480, Note_on_c, 9, 53, 122
8, 9574, Note_on_c, 9, 53, 0
8, 9574, Note_on_c, 9, 53, 0
8, 9720, Note_on_c, 9, 53, 119
8, 9840, Note_on_c, 9, 53, 119
8, 9931, Note_on_c, 9, 53, 0
8, 9931, Note_on_c, 9, 53, 0
8, 10080, Note_on_c, 9, 53, 122
8, 10292, Note_on_c, 9, 53, 0
8, 10320, Note_on_c, 9, 53, 107
8, 10440, Note_on_c, 9, 53, 111
8, 10538, Note_on_c, 9, 53, 0
8, 10538, Note_on_c, 9, 53, 0
8, 10680, Note_on_c, 9, 53, 115
8, 10800, Note_on_c, 9, 53, 111
8, 10897, Note_on_c, 9, 53, 0
8, 10897, Note_on_c, 9, 53, 0
8, 11040, Note_on_c, 9, 53, 122
8, 11257, Note_on_c, 9, 53, 0
8, 11280, Note_on_c, 9, 53, 119
8, 11497, Note_on_c, 9, 53, 0
8, 11640, Note_on_c, 9, 53, 119
8, 11760, Note_on_c, 9, 53, 119
8, 11852, Note_on_c, 9, 53, 0
8, 11852, Note_on_c, 9, 53, 0
8, 12000, Note_on_c, 9, 53, 122
8, 12215, Note_on_c, 9, 53, 0
8, 12240, Note_on_c, 9, 53, 107
8, 12360, Note_on_c, 9, 53, 111
8, 12457, Note_on_c, 9, 53, 0
8, 12457, Note_on_c, 9, 53, 0
8, 12600, Note_on_c, 9, 53, 115
8, 12720, Note_on_c, 9, 53, 111
8, 12817, Note_on_c, 9, 53, 0
8, 12817, Note_on_c, 9, 53, 0
8, 12960, Note_on_c, 9, 53, 122
8, 13176, Note_on_c, 9, 53, 0
8, 13200, Note_on_c, 9, 53, 119
8, 13418, Note_on_c, 9, 53, 0
8, 13440, Note_on_c, 9, 53, 122
8, 13656, Note_on_c, 9, 53, 0
8, 13680, Note_on_c, 9, 53, 95
8, 13800, Note_on_c, 9, 53, 107
8, 13895, Note_on_c, 9, 53, 0
8, 13895, Note_on_c, 9, 53, 0
8, 14040, Note_on_c, 9, 53, 100
8, 14256, Note_on_c, 9, 53, 0
8, 14280, Note_on_c, 9, 53, 100
8, 14499, Note_on_c, 9, 53, 0
8, 14520, Note_on_c, 9, 53, 107
8, 14640, Note_on_c, 9, 53, 111
8, 14737, Note_on_c, 9, 53, 0
8, 14737, Note_on_c, 9, 53, 0
8, 14880, Note_on_c, 9, 53, 122
8, 15095, Note_on_c, 9, 53, 0
8, 15120, Note_on_c, 9, 53, 111
8, 15240, Note_on_c, 9, 53, 122
8, 15334, Note_on_c, 9, 53, 0
8, 15334, Note_on_c, 9, 53, 0
8, 15480, Note_on_c, 9, 53, 119
8, 15600, Note_on_c, 9, 53, 119
8, 15692, Note_on_c, 9, 53, 0
8, 15692, Note_on_c, 9, 53, 0
8, 15840, Note_on_c, 9, 53, 122
8, 16055, Note_on_c, 9, 53, 0
8, 16080, Note_on_c, 9, 53, 107
8, 16200, Note_on_c, 9, 53, 111
8, 16297, Note_on_c, 9, 53, 0
8, 16297, Note_on_c, 9, 53, 0
8, 16440, Note_on_c, 9, 53, 115
8, 16560, Note_on_c, 9, 53, 111
8, 16657, Note_on_c, 9, 53, 0
8, 16657, Note_on_c, 9, 53, 0
8, 16800, Note_on_c, 9, 53, 122
8, 17016, Note_on_c, 9, 53, 0
8, 17040, Note_on_c, 9, 53, 119
8, 17258, Note_on_c, 9, 53, 0
8, 17280, Note_on_c, 9, 53, 122
8, 17496, Note_on_c, 9, 53, 0
8, 17520, Note_on_c, 9, 53, 95
8, 17640, Note_on_c, 9, 53, 107
8, 17735, Note_on_c, 9, 53, 0
8, 17735, Note_on_c, 9, 53, 0
8, 17880, Note_on_c, 9, 53, 100
8, 18096, Note_on_c, 9, 53, 0
8, 18120, Note_on_c, 9, 53, 100
8, 18339, Note_on_c, 9, 53, 0
8, 18360, Note_on_c, 9, 53, 107
8, 18480, Note_on_c, 9, 53, 111
8, 18577, Note_on_c, 9, 53, 0
8, 18577, Note_on_c, 9, 53, 0
8, 18720, Note_on_c, 9, 53, 122
8, 18935, Note_on_c, 9, 53, 0
8, 18960, Note_on_c, 9, 53, 111
8, 19080, Note_on_c, 9, 53, 122
8, 19174, Note_on_c, 9, 53, 0
8, 19174, Note_on_c, 9, 53, 0
8, 19200, Note_on_c, 9, 53, 122
8, 19418, Note_on_c, 9, 53, 0
8, 19440, Note_on_c, 9, 53, 95
8, 19560, Note_on_c, 9, 53, 107
8, 19656, Note_on_c, 9, 53, 0
8, 19656, Note_on_c, 9, 53, 0
8, 19800, Note_on_c, 9, 53, 100
8, 20017, Note_on_c, 9, 53, 0
8, 20040, Note_on_c, 9, 53, 100
8, 20259, Note_on_c, 9, 53, 0
8, 20280, Note_on_c, 9, 53, 107
8, 20400, Note_on_c, 9, 53, 111
8, 20497, Note_on_c, 9, 53, 0
8, 20497, Note_on_c, 9, 53, 0
8, 20640, Note_on_c, 9, 53, 122
8, 20858, Note_on_c, 9, 53, 0
8, 20880, Note_on_c, 9, 53, 111
8, 21000, Note_on_c, 9, 53, 122
8, 21094, Note_on_c, 9, 53, 0
8, 21094, Note_on_c, 9, 53, 0
8, 21240, Note_on_c, 9, 53, 119
8, 21360, Note_on_c, 9, 53, 119
8, 21452, Note_on_c, 9, 53, 0
8, 21452, Note_on_c, 9, 53, 0
8, 21600, Note_on_c, 9, 53, 122
8, 21815, Note_on_c, 9, 53, 0
8, 21840, Note_on_c, 9, 53, 107
8, 21960, Note_on_c, 9, 53, 111
8, 22057, Note_on_c, 9, 53, 0
8, 22057, Note_on_c, 9, 53, 0
8, 22200, Note_on_c, 9, 53, 115
8, 22320, Note_on_c, 9, 53, 111
8, 22417, Note_on_c, 9, 53, 0
8, 22417, Note_on_c, 9, 53, 0
8, 22560, Note_on_c, 9, 53, 122
8, 22776, Note_on_c, 9, 53, 0
8, 22800, Note_on_c, 9, 53, 119
8, 23018, Note_on_c, 9, 53, 0
8, 23040, Note_on_c, 9, 53, 122
8, 23256, Note_on_c, 9, 53, 0
8, 23280, Note_on_c, 9, 53, 95
8, 23400, Note_on_c, 9, 53, 107
8, 23495, Note_on_c, 9, 53, 0
8, 23495, Note_on_c, 9, 53, 0
8, 23640, Note_on_c, 9, 53, 100
8, 23856, Note_on_c, 9, 53, 0
8, 23880, Note_on_c, 9, 53, 100
8, 24099, Note_on_c, 9, 53, 0
8, 24120, Note_on_c, 9, 53, 107
8, 24240, Note_on_c, 9, 53, 111
8, 24337, Note_on_c, 9, 53, 0
8, 24337, Note_on_c, 9, 53, 0
8, 24480, Note_on_c, 9, 53, 122
8, 24695, Note_on_c, 9, 53, 0
8, 24720, Note_on_c, 9, 53, 111
8, 24840, Note_on_c, 9, 53, 122
8, 24934, Note_on_c, 9, 53, 0
8, 24934, Note_on_c, 9, 53, 0
8, 25080, Note_on_c, 9, 53, 119
8, 25200, Note_on_c, 9, 53, 119
8, 25291, Note_on_c, 9, 53, 0
8, 25291, Note_on_c, 9, 53, 0
8, 25440, Note_on_c, 9, 53, 122
8, 25652, Note_on_c, 9, 53, 0
8, 25680, Note_on_c, 9, 53, 107
8, 25800, Note_on_c, 9, 53, 111
8, 25898, Note_on_c, 9, 53, 0
8, 25898, Note_on_c, 9, 53, 0
8, 26040, Note_on_c, 9, 53, 115
8, 26160, Note_on_c, 9, 53, 111
8, 26257, Note_on_c, 9, 53, 0
8, 26257, Note_on_c, 9, 53, 0
8, 26400, Note_on_c, 9, 53, 122
8, 26617, Note_on_c, 9, 53, 0
8, 26640, Note_on_c, 9, 53, 119
8, 26857, Note_on_c, 9, 53, 0
8, 27000, Note_on_c, 9, 53, 119
8, 27120, Note_on_c, 9, 53, 119
8, 27212, Note_on_c, 9, 53, 0
8, 27212, Note_on_c, 9, 53, 0
8, 27360, Note_on_c, 9, 53, 122
8, 27575, Note_on_c, 9, 53, 0
8, 27600, Note_on_c, 9, 53, 107
8, 27720, Note_on_c, 9, 53, 111
8, 27817, Note_on_c, 9, 53, 0
8, 27817, Note_on_c, 9, 53, 0
8, 27960, Note_on_c, 9, 53, 115
8, 28080, Note_on_c, 9, 53, 111
8, 28177, Note_on_c, 9, 53, 0
8, 28177, Note_on_c, 9, 53, 0
8, 28320, Note_on_c, 9, 53, 122
8, 28536, Note_on_c, 9, 53, 0
8, 28560, Note_on_c, 9, 53, 119
8, 28778, Note_on_c, 9, 53, 0
8, 28800, Note_on_c, 9, 53, 122
8, 29016, Note_on_c, 9, 53, 0
8, 29040, Note_on_c, 9, 53, 95
8, 29160, Note_on_c, 9, 53, 107
8, 29255, Note_on_c, 9, 53, 0
8, 29255, Note_on_c, 9, 53, 0
8, 29400, Note_on_c, 9, 53, 100
8, 29616, Note_on_c, 9, 53, 0
8, 29640, Note_on_c, 9, 53, 100
8, 29859, Note_on_c, 9, 53, 0
8, 29880, Note_on_c, 9, 53, 107
8, 30000, Note_on_c, 9, 53, 111
8, 30097, Note_on_c, 9, 53, 0
8, 30097, Note_on_c, 9, 53, 0
8, 30240, Note_on_c, 9, 53, 122
8, 30455, Note_on_c, 9, 53, 0
8, 30480, Note_on_c, 9, 53, 111
8, 30600, Note_on_c, 9, 53, 122
8, 30694, Note_on_c, 9, 53, 0
8, 30694, Note_on_c, 9, 53, 0
8, 30840, Note_on_c, 9, 53, 119
8, 30960, Note_on_c, 9, 53, 119
8, 31052, Note_on_c, 9, 53, 0
8, 31052, Note_on_c, 9, 53, 0
8, 31200, Note_on_c, 9, 53, 122
8, 31415, Note_on_c, 9, 53, 0
8, 31440, Note_on_c, 9, 53, 107
8, 31560, Note_on_c, 9, 53, 111
8, 31657, Note_on_c, 9, 53, 0
8, 31657, Note_on_c, 9, 53, 0
8, 31800, Note_on_c, 9, 53, 115
8, 31920, Note_on_c, 9, 53, 111
8, 32017, Note_on_c, 9, 53, 0
8, 32017, Note_on_c, 9, 53, 0
8, 32160, Note_on_c, 9, 53, 122
8, 32376, Note_on_c, 9, 53, 0
8, 32400, Note_on_c, 9, 53, 119
8, 32618, Note_on_c, 9, 53, 0
8, 32640, Note_on_c, 9, 53, 122
8, 32856, Note_on_c, 9, 53, 0
8, 32880, Note_on_c, 9, 53, 95
8, 33000, Note_on_c, 9, 53, 107
8, 33095, Note_on_c, 9, 53, 0
8, 33095, Note_on_c, 9, 53, 0
8, 33240, Note_on_c, 9, 53, 100
8, 33456, Note_on_c, 9, 53, 0
8, 33480, Note_on_c, 9, 53, 100
8, 33699, Note_on_c, 9, 53, 0
8, 33720, Note_on_c, 9, 53, 107
8, 33840, Note_on_c, 9, 53, 111
8, 33937, Note_on_c, 9, 53, 0
8, 33937, Note_on_c, 9, 53, 0
8, 34080, Note_on_c, 9, 53, 122
8, 34295, Note_on_c, 9, 53, 0
8, 34320, Note_on_c, 9, 53, 111
8, 34440, Note_on_c, 9, 53, 122
8, 34534, Note_on_c, 9, 53, 0
8, 34534, Note_on_c, 9, 53, 0
8, 34560, Note_on_c, 9, 53, 122
8, 34778, Note_on_c, 9, 53, 0
8, 34800, Note_on_c, 9, 53, 95
8, 34920, Note_on_c, 9, 53, 107
8, 35016, Note_on_c, 9, 53, 0
8, 35016, Note_on_c, 9, 53, 0
8, 35160, Note_on_c, 9, 53, 100
8, 35377, Note_on_c, 9, 53, 0
8, 35400, Note_on_c, 9, 53, 100
8, 35619, Note_on_c, 9, 53, 0
8, 35640, Note_on_c, 9, 53, 107
8, 35760, Note_on_c, 9, 53, 111
8, 35857, Note_on_c, 9, 53, 0
8, 35857, Note_on_c, 9, 53, 0
8, 36000, Note_on_c, 9, 53, 122
8, 36218, Note_on_c, 9, 53, 0
8, 36240, Note_on_c, 9, 53, 111
8, 36360, Note_on_c, 9, 53, 122
8, 36454, Note_on_c, 9, 53, 0
8, 36454, Note_on_c, 9, 53, 0
8, 36600, Note_on_c, 9, 53, 119
8, 36720, Note_on_c, 9, 53, 119
8, 36812, Note_on_c, 9, 53, 0
8, 36812, Note_on_c, 9, 53, 0
8, 36960, Note_on_c, 9, 53, 122
8, 37175, Note_on_c, 9, 53, 0
8, 37200, Note_on_c, 9, 53, 107
8, 37320, Note_on_c, 9, 53, 111
8, 37417, Note_on_c, 9, 53, 0
8, 37417, Note_on_c, 9, 53, 0
8, 37560, Note_on_c, 9, 53, 115
8, 37680, Note_on_c, 9, 53, 111
8, 37777, Note_on_c, 9, 53, 0
8, 37777, Note_on_c, 9, 53, 0
8, 37920, Note_on_c, 9, 53, 122
8, 38136, Note_on_c, 9, 53, 0
8, 38160, Note_on_c, 9, 53, 119
8, 38378, Note_on_c, 9, 53, 0
8, 38400, Note_on_c, 9, 53, 122
8, 38616, Note_on_c, 9, 53, 0
8, 38640, Note_on_c, 9, 53, 95
8, 38760, Note_on_c, 9, 53, 107
8, 38855, Note_on_c, 9, 53, 0
8, 38855, Note_on_c, 9, 53, 0
8, 39000, Note_on_c, 9, 53, 100
8, 39216, Note_on_c, 9, 53, 0
8, 39240, Note_on_c, 9, 53, 100
8, 39459, Note_on_c, 9, 53, 0
8, 39480, Note_on_c, 9, 53, 107
8, 39600, Note_on_c, 9, 53, 111
8, 39697, Note_on_c, 9, 53, 0
8, 39697, Note_on_c, 9, 53, 0
8, 39840, Note_on_c, 9, 53, 122
8, 40055, Note_on_c, 9, 53, 0
8, 40080, Note_on_c, 9, 53, 111
8, 40200, Note_on_c, 9, 53, 122
8, 40294, Note_on_c, 9, 53, 0
8, 40294, Note_on_c, 9, 53, 0
8, 40440, Note_on_c, 9, 53, 119
8, 40560, Note_on_c, 9, 53, 119
8, 40651, Note_on_c, 9, 53, 0
8, 40651, Note_on_c, 9, 53, 0
8, 40800, Note_on_c, 9, 53, 122
8, 41012, Note_on_c, 9, 53, 0
8, 41040, Note_on_c, 9, 53, 107
8, 41160, Note_on_c, 9, 53, 111
8, 41258, Note_on_c, 9, 53, 0
8, 41258, Note_on_c, 9, 53, 0
8, 41400, Note_on_c, 9, 53, 115
8, 41520, Note_on_c, 9, 53, 111
8, 41617, Note_on_c, 9, 53, 0
8, 41617, Note_on_c, 9, 53, 0
8, 41760, Note_on_c, 9, 53, 122
8, 41977, Note_on_c, 9, 53, 0
8, 42000, Note_on_c, 9, 53, 119
8, 42217, Note_on_c, 9, 53, 0
8, 42360, Note_on_c, 9, 53, 119
8, 42480, Note_on_c, 9, 53, 119
8, 42572, Note_on_c, 9, 53, 0
8, 42572, Note_on_c, 9, 53, 0
8, 42720, Note_on_c, 9, 53, 122
8, 42935, Note_on_c, 9, 53, 0
8, 42960, Note_on_c, 9, 53, 107
8, 43080, Note_on_c, 9, 53, 111
8, 43177, Note_on_c, 9, 53, 0
8, 43177, Note_on_c, 9, 53, 0
8, 43320, Note_on_c, 9, 53, 115
8, 43440, Note_on_c, 9, 53, 111
8, 43537, Note_on_c, 9, 53, 0
8, 43537, Note_on_c, 9, 53, 0
8, 43680, Note_on_c, 9, 53, 122
8, 43896, Note_on_c, 9, 53, 0
8, 43920, Note_on_c, 9, 53, 119
8, 44138, Note_on_c, 9, 53, 0
8, 44160, Note_on_c, 9, 53, 122
8, 44376, Note_on_c, 9, 53, 0
8, 44400, Note_on_c, 9, 53, 95
8, 44520, Note_on_c, 9, 53, 107
8, 44615, Note_on_c, 9, 53, 0
8, 44615, Note_on_c, 9, 53, 0
8, 44760, Note_on_c, 9, 53, 100
8, 44976, Note_on_c, 9, 53, 0
8, 45000, Note_on_c, 9, 53, 100
8, 45219, Note_on_c, 9, 53, 0
8, 45240, Note_on_c, 9, 53, 107
8, 45360, Note_on_c, 9, 53, 111
8, 45457, Note_on_c, 9, 53, 0
8, 45457, Note_on_c, 9, 53, 0
8, 45600, Note_on_c, 9, 53, 122
8, 45815, Note_on_c, 9, 53, 0
8, 45840, Note_on_c, 9, 53, 111
8, 45960, Note_on_c, 9, 53, 122
8, 46054, Note_on_c, 9, 53, 0
8, 46054, Note_on_c, 9, 53, 0
8, 46200, Note_on_c, 9, 53, 119
8, 46320, Note_on_c, 9, 53, 119
8, 46412, Note_on_c, 9, 53, 0
8, 46412, Note_on_c, 9, 53, 0
8, 46560, Note_on_c, 9, 53, 122
8, 46775, Note_on_c, 9, 53, 0
8, 46800, Note_on_c, 9, 53, 107
8, 46920, Note_on_c, 9, 53, 111
8, 47017, Note_on_c, 9, 53, 0
8, 47017, Note_on_c, 9, 53, 0
8, 47160, Note_on_c, 9, 53, 115
8, 47280, Note_on_c, 9, 53, 111
8, 47377, Note_on_c, 9, 53, 0
8, 47377, Note_on_c, 9, 53, 0
8, 47520, Note_on_c, 9, 53, 122
8, 47736, Note_on_c, 9, 53, 0
8, 47760, Note_on_c, 9, 53, 119
8, 47978, Note_on_c, 9, 53, 0
8, 48000, Note_on_c, 9, 53, 122
8, 48216, Note_on_c, 9, 53, 0
8, 48240, Note_on_c, 9, 53, 95
8, 48360, Note_on_c, 9, 53, 107
8, 48455, Note_on_c, 9, 53, 0
8, 48455, Note_on_c, 9, 53, 0
8, 48600, Note_on_c, 9, 53, 100
8, 48816, Note_on_c, 9, 53, 0
8, 48840, Note_on_c, 9, 53, 100
8, 49059, Note_on_c, 9, 53, 0
8, 49080, Note_on_c, 9, 53, 107
8, 49200, Note_on_c, 9, 53, 111
8, 49297, Note_on_c, 9, 53, 0
8, 49297, Note_on_c, 9, 53, 0
8, 49440, Note_on_c, 9, 53, 122
8, 49655, Note_on_c, 9, 53, 0
8, 49680, Note_on_c, 9, 53, 111
8, 49800, Note_on_c, 9, 53, 122
8, 49894, Note_on_c, 9, 53, 0
8, 49894, Note_on_c, 9, 53, 0
8, 49920, Note_on_c, 9, 53, 122
8, 50138, Note_on_c, 9, 53, 0
8, 50160, Note_on_c, 9, 53, 95
8, 50280, Note_on_c, 9, 53, 107
8, 50376, Note_on_c, 9, 53, 0
8, 50376, Note_on_c, 9, 53, 0
8, 50520, Note_on_c, 9, 53, 100
8, 50737, Note_on_c, 9, 53, 0
8, 50760, Note_on_c, 9, 53, 100
8, 50979, Note_on_c, 9, 53, 0
8, 51000, Note_on_c, 9, 53, 107
8, 51120, Note_on_c, 9, 53, 111
8, 51217, Note_on_c, 9, 53, 0
8, 51217, Note_on_c, 9, 53, 0
8, 51360, Note_on_c, 9, 53, 122
8, 51578, Note_on_c, 9, 53, 0
8, 51600, Note_on_c, 9, 53, 111
8, 51720, Note_on_c, 9, 53, 122
8, 51814, Note_on_c, 9, 53, 0
8, 51814, Note_on_c, 9, 53, 0
8, 51960, Note_on_c, 9, 53, 119
8, 52080, Note_on_c, 9, 53, 119
8, 52172, Note_on_c, 9, 53, 0
8, 52172, Note_on_c, 9, 53, 0
8, 52320, Note_on_c, 9, 53, 122
8, 52535, Note_on_c, 9, 53, 0
8, 52560, Note_on_c, 9, 53, 107
8, 52680, Note_on_c, 9, 53, 111
8, 52777, Note_on_c, 9, 53, 0
8, 52777, Note_on_c, 9, 53, 0
8, 52920, Note_on_c, 9, 53, 115
8, 53040, Note_on_c, 9, 53, 111
8, 53137, Note_on_c, 9, 53, 0
8, 53137, Note_on_c, 9, 53, 0
8, 53280, Note_on_c, 9, 53, 122
8, 53496, Note_on_c, 9, 53, 0
8, 53520, Note_on_c, 9, 53, 119
8, 53738, Note_on_c, 9, 53, 0
8, 53760, Note_on_c, 9, 53, 122
8, 53976, Note_on_c, 9, 53, 0
8, 54000, Note_on_c, 9, 53, 95
8, 54120, Note_on_c, 9, 53, 107
8, 54215, Note_on_c, 9, 53, 0
8, 54215, Note_on_c, 9, 53, 0
8, 54360, Note_on_c, 9, 53, 100
8, 54576, Note_on_c, 9, 53, 0
8, 54600, Note_on_c, 9, 53, 100
8, 54819, Note_on_c, 9, 53, 0
8, 54840, Note_on_c, 9, 53, 107
8, 54960, Note_on_c, 9, 53, 111
8, 55057, Note_on_c, 9, 53, 0
8, 55057, Note_on_c, 9, 53, 0
8, 55200, Note_on_c, 9, 53, 122
8, 55415, Note_on_c, 9, 53, 0
8, 55440, Note_on_c, 9, 53, 111
8, 55560, Note_on_c, 9, 53, 122
8, 55654, Note_on_c, 9, 53, 0
8, 55654, Note_on_c, 9, 53, 0
8, 55800, Note_on_c, 9, 53, 119
8, 55920, Note_on_c, 9, 53, 119
8, 56011, Note_on_c, 9, 53, 0
8, 56011, Note_on_c, 9, 53, 0
8, 56160, Note_on_c, 9, 53, 122
8, 56372, Note_on_c, 9, 53, 0
8, 56400, Note_on_c, 9, 53, 107
8, 56520, Note_on_c, 9, 53, 111
8, 56618, Note_on_c, 9, 53, 0
8, 56618, Note_on_c, 9, 53, 0
8, 56760, Note_on_c, 9, 53, 115
8, 56880, Note_on_c, 9, 53, 111
8, 56977, Note_on_c, 9, 53, 0
8, 56977, Note_on_c, 9, 53, 0
8, 57120, Note_on_c, 9, 53, 122
8, 57337, Note_on_c, 9, 53, 0
8, 57360, Note_on_c, 9, 53, 119
8, 57577, Note_on_c, 9, 53, 0
8, 57720, Note_on_c, 9, 53, 119
8, 57840, Note_on_c, 9, 53, 119
8, 57932, Note_on_c, 9, 53, 0
8, 57932, Note_on_c, 9, 53, 0
8, 58080, Note_on_c, 9, 53, 122
8, 58295, Note_on_c, 9, 53, 0
8, 58320, Note_on_c, 9, 53, 107
8, 58440, Note_on_c, 9, 53, 111
8, 58537, Note_on_c, 9, 53, 0
8, 58537, Note_on_c, 9, 53, 0
8, 58680, Note_on_c, 9, 53, 115
8, 58800, Note_on_c, 9, 53, 111
8, 58897, Note_on_c, 9, 53, 0
8, 58897, Note_on_c, 9, 53, 0
8, 59040, Note_on_c, 9, 53, 122
8, 59256, Note_on_c, 9, 53, 0
8, 59280, Note_on_c, 9, 53, 119
8, 59498, Note_on_c, 9, 53, 0
8, 59520, Note_on_c, 9, 53, 122
8, 59736, Note_on_c, 9, 53, 0
8, 59760, Note_on_c, 9, 53, 95
8, 59880, Note_on_c, 9, 53, 107
8, 59975, Note_on_c, 9, 53, 0
8, 59975, Note_on_c, 9, 53, 0
8, 60120, Note_on_c, 9, 53, 100
8, 60336, Note_on_c, 9, 53, 0
8, 60360, Note_on_c, 9, 53, 100
8, 60579, Note_on_c, 9, 53, 0
8, 60600, Note_on_c, 9, 53, 107
8, 60720, Note_on_c, 9, 53, 111
8, 60817, Note_on_c, 9, 53, 0
8, 60817, Note_on_c, 9, 53, 0
8, 60960, Note_on_c, 9, 53, 122
8, 61175, Note_on_c, 9, 53, 0
8, 61200, Note_on_c, 9, 53, 111
8, 61320, Note_on_c, 9, 53, 122
8, 61414, Note_on_c, 9, 53, 0
8, 61414, Note_on_c, 9, 53, 0
8, 61560, Note_on_c, 9, 53, 119
8, 61680, Note_on_c, 9, 53, 119
8, 61772, Note_on_c, 9, 53, 0
8, 61772, Note_on_c, 9, 53, 0
8, 61920, Note_on_c, 9, 53, 122
8, 62135, Note_on_c, 9, 53, 0
8, 62160, Note_on_c, 9, 53, 107
8, 62280, Note_on_c, 9, 53, 111
8, 62377, Note_on_c, 9, 53, 0
8, 62377, Note_on_c, 9, 53, 0
8, 62520, Note_on_c, 9, 53, 115
8, 62640, Note_on_c, 9, 53, 111
8, 62737, Note_on_c, 9, 53, 0
8, 62737, Note_on_c, 9, 53, 0
8, 62880, Note_on_c, 9, 53, 122
8, 63096, Note_on_c, 9, 53, 0
8, 63120, Note_on_c, 9, 53, 119
8, 63338, Note_on_c, 9, 53, 0
8, 63360, Note_on_c, 9, 53, 122
8, 63576, Note_on_c, 9, 53, 0
8, 63600, Note_on_c, 9, 53, 95
8, 63720, Note_on_c, 9, 53, 107
8, 63815, Note_on_c, 9, 53, 0
8, 63815, Note_on_c, 9, 53, 0
8, 63960, Note_on_c, 9, 53, 100
8, 64176, Note_on_c, 9, 53, 0
8, 64200, Note_on_c, 9, 53, 100
8, 64419, Note_on_c, 9, 53, 0
8, 64440, Note_on_c, 9, 53, 107
8, 64560, Note_on_c, 9, 53, 111
8, 64657, Note_on_c, 9, 53, 0
8, 64657, Note_on_c, 9, 53, 0
8, 64800, Note_on_c, 9, 53, 122
8, 65015, Note_on_c, 9, 53, 0
8, 65040, Note_on_c, 9, 53, 111
8, 65160, Note_on_c, 9, 53, 122
8, 65254, Note_on_c, 9, 53, 0
8, 65254, Note_on_c, 9, 53, 0
8, 65280, Note_on_c, 9, 53, 122
8, 65498, Note_on_c, 9, 53, 0
8, 65520, Note_on_c, 9, 53, 95
8, 65640, Note_on_c, 9, 53, 107
8, 65736, Note_on_c, 9, 53, 0
8, 65736, Note_on_c, 9, 53, 0
8, 65880, Note_on_c, 9, 53, 100
8, 66097, Note_on_c, 9, 53, 0
8, 66120, Note_on_c, 9, 53, 100
8, 66339, Note_on_c, 9, 53, 0
8, 66360, Note_on_c, 9, 53, 107
8, 66480, Note_on_c, 9, 53, 111
8, 66577, Note_on_c, 9, 53, 0
8, 66577, Note_on_c, 9, 53, 0
8, 66720, Note_on_c, 9, 53, 122
8, 66938, Note_on_c, 9, 53, 0
8, 66960, Note_on_c, 9, 53, 111
8, 67080, Note_on_c, 9, 53, 122
8, 67174, Note_on_c, 9, 53, 0
8, 67174, Note_on_c, 9, 53, 0
8, 67320, Note_on_c, 9, 53, 119
8, 67440, Note_on_c, 9, 53, 119
8, 67532, Note_on_c, 9, 53, 0
8, 67532, Note_on_c, 9, 53, 0
8, 67680, Note_on_c, 9, 53, 122
8, 67895, Note_on_c, 9, 53, 0
8, 67920, Note_on_c, 9, 53, 107
8, 68040, Note_on_c, 9, 53, 111
8, 68137, Note_on_c, 9, 53, 0
8, 68137, Note_on_c, 9, 53, 0
8, 68280, Note_on_c, 9, 53, 115
8, 68400, Note_on_c, 9, 53, 111
8, 68497, Note_on_c, 9, 53, 0
8, 68497, Note_on_c, 9, 53, 0
8, 68640, Note_on_c, 9, 53, 122
8, 68856, Note_on_c, 9, 53, 0
8, 68880, Note_on_c, 9, 53, 119
8, 69098, Note_on_c, 9, 53, 0
8, 69120, Note_on_c, 9, 53, 122
8, 69336, Note_on_c, 9, 53, 0
8, 69360, Note_on_c, 9, 53, 95
8, 69480, Note_on_c, 9, 53, 107
8, 69575, Note_on_c, 9, 53, 0
8, 69575, Note_on_c, 9, 53, 0
8, 69720, Note_on_c, 9, 53, 100
8, 69936, Note_on_c, 9, 53, 0
8, 69960, Note_on_c, 9, 53, 100
8, 70179, Note_on_c, 9, 53, 0
8, 70200, Note_on_c, 9, 53, 107
8, 70320, Note_on_c, 9, 53, 111
8, 70417, Note_on_c, 9, 53, 0
8, 70417, Note_on_c, 9, 53, 0
8, 70560, Note_on_c, 9, 53, 122
8, 70775, Note_on_c, 9, 53, 0
8, 70800, Note_on_c, 9, 53, 111
8, 70920, Note_on_c, 9, 53, 122
8, 71014, Note_on_c, 9, 53, 0
8, 71014, Note_on_c, 9, 53, 0
8, 71160, Note_on_c, 9, 53, 119
8, 71280, Note_on_c, 9, 53, 119
8, 71371, Note_on_c, 9, 53, 0
8, 71371, Note_on_c, 9, 53, 0
8, 71520, Note_on_c, 9, 53, 122
8, 71732, Note_on_c, 9, 53, 0
8, 71760, Note_on_c, 9, 53, 107
8, 71880, Note_on_c, 9, 53, 111
8, 71978, Note_on_c, 9, 53, 0
8, 71978, Note_on_c, 9, 53, 0
8, 72120, Note_on_c, 9, 53, 115
8, 72240, Note_on_c, 9, 53, 111
8, 72337, Note_on_c, 9, 53, 0
8, 72337, Note_on_c, 9, 53, 0
8, 72480, Note_on_c, 9, 53, 122
8, 72697, Note_on_c, 9, 53, 0
8, 72720, Note_on_c, 9, 53, 119
8, 72937, Note_on_c, 9, 53, 0
8, 73080, Note_on_c, 9, 53, 119
8, 73200, Note_on_c, 9, 53, 119
8, 73292, Note_on_c, 9, 53, 0
8, 73292, Note_on_c, 9, 53, 0
8, 73440, Note_on_c, 9, 53, 122
8, 73655, Note_on_c, 9, 53, 0
8, 73680, Note_on_c, 9, 53, 107
8, 73800, Note_on_c, 9, 53, 111
8, 73897, Note_on_c, 9, 53, 0
8, 73897, Note_on_c, 9, 53, 0
8, 74040, Note_on_c, 9, 53, 115
8, 74160, Note_on_c, 9, 53, 111
8, 74257, Note_on_c, 9, 53, 0
8, 74257, Note_on_c, 9, 53, 0
8, 74400, Note_on_c, 9, 53, 122
8, 74616, Note_on_c, 9, 53, 0
8, 74640, Note_on_c, 9, 53, 119
8, 74858, Note_on_c, 9, 53, 0
8, 74880, Note_on_c, 9, 53, 122
8, 75096, Note_on_c, 9, 53, 0
8, 75120, Note_on_c, 9, 53, 95
8, 75240, Note_on_c, 9, 53, 107
8, 75335, Note_on_c, 9, 53, 0
8, 75335, Note_on_c, 9, 53, 0
8, 75480, Note_on_c, 9, 53, 100
8, 75696, Note_on_c, 9, 53, 0
8, 75720, Note_on_c, 9, 53, 100
8, 75939, Note_on_c, 9, 53, 0
8, 75960, Note_on_c, 9, 53, 107
8, 76080, Note_on_c, 9, 53, 111
8, 76177, Note_on_c, 9, 53, 0
8, 76177, Note_on_c, 9, 53, 0
8, 76320, Note_on_c, 9, 53, 122
8, 76535, Note_on_c, 9, 53, 0
8, 76560, Note_on_c, 9, 53, 111
8, 76680, Note_on_c, 9, 53, 122
8, 76774, Note_on_c, 9, 53, 0
8, 76774, Note_on_c, 9, 53, 0
8, 76920, Note_on_c, 9, 53, 119
8, 77040, Note_on_c, 9, 53, 119
8, 77132, Note_on_c, 9, 53, 0
8, 77132, Note_on_c, 9, 53, 0
8, 77280, Note_on_c, 9, 53, 122
8, 77495, Note_on_c, 9, 53, 0
8, 77520, Note_on_c, 9, 53, 107
8, 77640, Note_on_c, 9, 53, 111
8, 77737, Note_on_c, 9, 53, 0
8, 77737, Note_on_c, 9, 53, 0
8, 77880, Note_on_c, 9, 53, 115
8, 78000, Note_on_c, 9, 53, 111
8, 78097, Note_on_c, 9, 53, 0
8, 78097, Note_on_c, 9, 53, 0
8, 78240, Note_on_c, 9, 53, 122
8, 78456, Note_on_c, 9, 53, 0
8, 78480, Note_on_c, 9, 53, 119
8, 78698, Note_on_c, 9, 53, 0
8, 78720, Note_on_c, 9, 53, 122
8, 78936, Note_on_c, 9, 53, 0
8, 78960, Note_on_c, 9, 53, 95
8, 79080, Note_on_c, 9, 53, 107
8, 79175, Note_on_c, 9, 53, 0
8, 79175, Note_on_c, 9, 53, 0
8, 79320, Note_on_c, 9, 53, 100
8, 79536, Note_on_c, 9, 53, 0
8, 79560, Note_on_c, 9, 53, 100
8, 79779, Note_on_c, 9, 53, 0
8, 79800, Note_on_c, 9, 53, 107
8, 79920, Note_on_c, 9, 53, 111
8, 80017, Note_on_c, 9, 53, 0
8, 80017, Note_on_c, 9, 53, 0
8, 80160, Note_on_c, 9, 53, 122
8, 80375, Note_on_c, 9, 53, 0
8, 80400, Note_on_c, 9, 53, 111
8, 80520, Note_on_c, 9, 53, 122
8, 80614, Note_on_c, 9, 53, 0
8, 80614, Note_on_c, 9, 53, 0
8, 80640, Note_on_c, 9, 53, 122
8, 80858, Note_on_c, 9, 53, 0
8, 80880, Note_on_c, 9, 53, 95
8, 81000, Note_on_c, 9, 53, 107
8, 81096, Note_on_c, 9, 53, 0
8, 81096, Note_on_c, 9, 53, 0
8, 81240, Note_on_c, 9, 53, 100
8, 81457, Note_on_c, 9, 53, 0
8, 81480, Note_on_c, 9, 53, 100
8, 81699, Note_on_c, 9, 53, 0
8, 81720, Note_on_c, 9, 53, 107
8, 81840, Note_on_c, 9, 53, 111
8, 81937, Note_on_c, 9, 53, 0
8, 81937, Note_on_c, 9, 53, 0
8, 82080, Note_on_c, 9, 53, 122
8, 82298, Note_on_c, 9, 53, 0
8, 82320, Note_on_c, 9, 53, 111
8, 82440, Note_on_c, 9, 53, 122
8, 82534, Note_on_c, 9, 53, 0
8, 82534, Note_on_c, 9, 53, 0
8, 82680, Note_on_c, 9, 53, 119
8, 82800, Note_on_c, 9, 53, 119
8, 82892, Note_on_c, 9, 53, 0
8, 82892, Note_on_c, 9, 53, 0
8, 83040, Note_on_c, 9, 53, 122
8, 83255, Note_on_c, 9, 53, 0
8, 83280, Note_on_c, 9, 53, 107
8, 83400, Note_on_c, 9, 53, 111
8, 83497, Note_on_c, 9, 53, 0
8, 83497, Note_on_c, 9, 53, 0
8, 83640, Note_on_c, 9, 53, 115
8, 83760, Note_on_c, 9, 53, 111
8, 83857, Note_on_c, 9, 53, 0
8, 83857, Note_on_c, 9, 53, 0
8, 84000, Note_on_c, 9, 53, 122
8, 84216, Note_on_c, 9, 53, 0
8, 84240, Note_on_c, 9, 53, 119
8, 84458, Note_on_c, 9, 53, 0
8, 84480, Note_on_c, 9, 53, 122
8, 84696, Note_on_c, 9, 53, 0
8, 84720, Note_on_c, 9, 53, 95
8, 84840, Note_on_c, 9, 53, 107
8, 84935, Note_on_c, 9, 53, 0
8, 84935, Note_on_c, 9, 53, 0
8, 85080, Note_on_c, 9, 53, 100
8, 85296, Note_on_c, 9, 53, 0
8, 85320, Note_on_c, 9, 53, 100
8, 85539, Note_on_c, 9, 53, 0
8, 85560, Note_on_c, 9, 53, 107
8, 85680, Note_on_c, 9, 53, 111
8, 85777, Note_on_c, 9, 53, 0
8, 85777, Note_on_c, 9, 53, 0
8, 85920, Note_on_c, 9, 53, 122
8, 86135, Note_on_c, 9, 53, 0
8, 86160, Note_on_c, 9, 53, 111
8, 86280, Note_on_c, 9, 53, 122
8, 86374, Note_on_c, 9, 53, 0
8, 86374, Note_on_c, 9, 53, 0
8, 86520, Note_on_c, 9, 53, 119
8, 86640, Note_on_c, 9, 53, 119
8, 86731, Note_on_c, 9, 53, 0
8, 86731, Note_on_c, 9, 53, 0
8, 86880, Note_on_c, 9, 53, 122
8, 87092, Note_on_c, 9, 53, 0
8, 87120, Note_on_c, 9, 53, 107
8, 87240, Note_on_c, 9, 53, 111
8, 87338, Note_on_c, 9, 53, 0
8, 87338, Note_on_c, 9, 53, 0
8, 87480, Note_on_c, 9, 53, 115
8, 87600, Note_on_c, 9, 53, 111
8, 87697, Note_on_c, 9, 53, 0
8, 87697, Note_on_c, 9, 53, 0
8, 87840, Note_on_c, 9, 53, 122
8, 88057, Note_on_c, 9, 53, 0
8, 88080, Note_on_c, 9, 53, 119
8, 88297, Note_on_c, 9, 53, 0
8, 88440, Note_on_c, 9, 53, 119
8, 88560, Note_on_c, 9, 53, 119
8, 88652, Note_on_c, 9, 53, 0
8, 88652, Note_on_c, 9, 53, 0
8, 88800, Note_on_c, 9, 53, 122
8, 89015, Note_on_c, 9, 53, 0
8, 89040, Note_on_c, 9, 53, 107
8, 89160, Note_on_c, 9, 53, 111
8, 89257, Note_on_c, 9, 53, 0
8, 89257, Note_on_c, 9, 53, 0
8, 89400, Note_on_c, 9, 53, 115
8, 89520, Note_on_c, 9, 53, 111
8, 89617, Note_on_c, 9, 53, 0
8, 89617, Note_on_c, 9, 53, 0
8, 89760, Note_on_c, 9, 53, 122
8, 89976, Note_on_c, 9, 53, 0
8, 90000, Note_on_c, 9, 53, 119
8, 90218, Note_on_c, 9, 53, 0
8, 90240, Note_on_c, 9, 53, 122
8, 90456, Note_on_c, 9, 53, 0
8, 90480, Note_on_c, 9, 53, 95
8, 90600, Note_on_c, 9, 53, 107
8, 90695, Note_on_c, 9, 53, 0
8, 90695, Note_on_c, 9, 53, 0
8, 90840, Note_on_c, 9, 53, 100
8, 91056, Note_on_c, 9, 53, 0
8, 91080, Note_on_c, 9, 53, 100
8, 91299, Note_on_c, 9, 53, 0
8, 91320, Note_on_c, 9, 53, 107
8, 91440, Note_on_c, 9, 53, 111
8, 91537, Note_on_c, 9, 53, 0
8, 91537, Note_on_c, 9, 53, 0
8, 91680, Note_on_c, 9, 53, 122
8, 91895, Note_on_c, 9, 53, 0
8, 91920, Note_on_c, 9, 53, 111
8, 92040, Note_on_c, 9, 53, 122
8, 92134, Note_on_c, 9, 53, 0
8, 92134, Note_on_c, 9, 53, 0
8, 92280, Note_on_c, 9, 53, 119
8, 92400, Note_on_c, 9, 53, 119
8, 92492, Note_on_c, 9, 53, 0
8, 92492, Note_on_c, 9, 53, 0
8, 92640, Note_on_c, 9, 53, 122
8, 92855, Note_on_c, 9, 53, 0
8, 92880, Note_on_c, 9, 53, 107
8, 93000, Note_on_c, 9, 53, 111
8, 93097, Note_on_c, 9, 53, 0
8, 93097, Note_on_c, 9, 53, 0
8, 93240, Note_on_c, 9, 53, 115
8, 93360, Note_on_c, 9, 53, 111
8, 93457, Note_on_c, 9, 53, 0
8, 93457, Note_on_c, 9, 53, 0
8, 93600, Note_on_c, 9, 53, 122
8, 93816, Note_on_c, 9, 53, 0
8, 93840, Note_on_c, 9, 53, 119
8, 94058, Note_on_c, 9, 53, 0
8, 94080, Note_on_c, 9, 53, 122
8, 94296, Note_on_c, 9, 53, 0
8, 94320, Note_on_c, 9, 53, 95
8, 94440, Note_on_c, 9, 53, 107
8, 94535, Note_on_c, 9, 53, 0
8, 94535, Note_on_c, 9, 53, 0
8, 94680, Note_on_c, 9, 53, 100
8, 94896, Note_on_c, 9, 53, 0
8, 94920, Note_on_c, 9, 53, 100
8, 95139, Note_on_c, 9, 53, 0
8, 95160, Note_on_c, 9, 53, 107
8, 95280, Note_on_c, 9, 53, 111
8, 95377, Note_on_c, 9, 53, 0
8, 95377, Note_on_c, 9, 53, 0
8, 95520, Note_on_c, 9, 53, 122
8, 95735, Note_on_c, 9, 53, 0
8, 95760, Note_on_c, 9, 53, 111
8, 95880, Note_on_c, 9, 53, 122
8, 95974, Note_on_c, 9, 53, 0
8, 95974, Note_on_c, 9, 53, 0
8, 96000, Note_on_c, 9, 53, 122
8, 96218, Note_on_c, 9, 53, 0
8, 96240, Note_on_c, 9, 53, 95
8, 96360, Note_on_c, 9, 53, 107
8, 96456, Note_on_c, 9, 53, 0
8, 96456, Note_on_c, 9, 53, 0
8, 96600, Note_on_c, 9, 53, 100
8, 96817, Note_on_c, 9, 53, 0
8, 96840, Note_on_c, 9, 53, 100
8, 97059, Note_on_c, 9, 53, 0
8, 97080, Note_on_c, 9, 53, 107
8, 97200, Note_on_c, 9, 53, 111
8, 97297, Note_on_c, 9, 53, 0
8, 97297, Note_on_c, 9, 53, 0
8, 97440, Note_on_c, 9, 53, 122
8, 97658, Note_on_c, 9, 53, 0
8, 97680, Note_on_c, 9, 53, 111
8, 97800, Note_on_c, 9, 53, 122
8, 97894, Note_on_c, 9, 53, 0
8, 97894, Note_on_c, 9, 53, 0
8, 98040, Note_on_c, 9, 53, 119
8, 98160, Note_on_c, 9, 53, 119
8, 98252, Note_on_c, 9, 53, 0
8, 98252, Note_on_c, 9, 53, 0
8, 98400, Note_on_c, 9, 53, 122
8, 98615, Note_on_c, 9, 53, 0
8, 98640, Note_on_c, 9, 53, 107
8, 98760, Note_on_c, 9, 53, 111
8, 98857, Note_on_c, 9, 53, 0
8, 98857, Note_on_c, 9, 53, 0
8, 99000, Note_on_c, 9, 53, 115
8, 99120, Note_on_c, 9, 53, 111
8, 99217, Note_on_c, 9, 53, 0
8, 99217, Note_on_c, 9, 53, 0
8, 99360, Note_on_c, 9, 53, 122
8, 99576, Note_on_c, 9, 53, 0
8, 99600, Note_on_c, 9, 53, 119
8, 99818, Note_on_c, 9, 53, 0
8, 99840, Note_on_c, 9, 53, 122
8, 100056, Note_on_c, 9, 53, 0
8, 100080, Note_on_c, 9, 53, 95
8, 100200, Note_on_c, 9, 53, 107
8, 100295, Note_on_c, 9, 53, 0
8, 100295, Note_on_c, 9, 53, 0
8, 100440, Note_on_c, 9, 53, 100
8, 100656, Note_on_c, 9, 53, 0
8, 100680, Note_on_c, 9, 53, 100
8, 100899, Note_on_c, 9, 53, 0
8, 100920, Note_on_c, 9, 53, 107
8, 101040, Note_on_c, 9, 53, 111
8, 101137, Note_on_c, 9, 53, 0
8, 101137, Note_on_c, 9, 53, 0
8, 101280, Note_on_c, 9, 53, 122
8, 101495, Note_on_c, 9, 53, 0
8, 101520, Note_on_c, 9, 53, 111
8, 101640, Note_on_c, 9, 53, 122
8, 101734, Note_on_c, 9, 53, 0
8, 101734, Note_on_c, 9, 53, 0
8, 101880, Note_on_c, 9, 53, 119
8, 102000, Note_on_c, 9, 53, 119
8, 102091, Note_on_c, 9, 53, 0
8, 102091, Note_on_c, 9, 53, 0
8, 102240, Note_on_c, 9, 53, 122
8, 102452, Note_on_c, 9, 53, 0
8, 102480, Note_on_c, 9, 53, 107
8, 102600, Note_on_c, 9, 53, 111
8, 102698, Note_on_c, 9, 53, 0
8, 102698, Note_on_c, 9, 53, 0
8, 102840, Note_on_c, 9, 53, 115
8, 102960, Note_on_c, 9, 53, 111
8, 103057, Note_on_c, 9, 53, 0
8, 103057, Note_on_c, 9, 53, 0
8, 103200, Note_on_c, 9, 53, 122
8, 103417, Note_on_c, 9, 53, 0
8, 103440, Note_on_c, 9, 53, 119
8, 103657, Note_on_c, 9, 53, 0
8, 103800, Note_on_c, 9, 53, 119
8, 103920, Note_on_c, 9, 53, 119
8, 104012, Note_on_c, 9, 53, 0
8, 104012, Note_on_c, 9, 53, 0
8, 104160, Note_on_c, 9, 53, 122
8, 104375, Note_on_c, 9, 53, 0
8, 104400, Note_on_c, 9, 53, 107
8, 104520, Note_on_c, 9, 53, 111
8, 104617, Note_on_c, 9, 53, 0
8, 104617, Note_on_c, 9, 53, 0
8, 104760, Note_on_c, 9, 53, 115
8, 104880, Note_on_c, 9, 53, 111
8, 104977, Note_on_c, 9, 53, 0
8, 104977, Note_on_c, 9, 53, 0
8, 105120, Note_on_c, 9, 53, 122
8, 105336, Note_on_c, 9, 53, 0
8, 105360, Note_on_c, 9, 53, 119
8, 105578, Note_on_c, 9, 53, 0
8, 105600, Note_on_c, 9, 53, 122
8, 105816, Note_on_c, 9, 53, 0
8, 105840, Note_on_c, 9, 53, 95
8, 105960, Note_on_c, 9, 53, 107
8, 106055, Note_on_c, 9, 53, 0
8, 106055, Note_on_c, 9, 53, 0
8, 106200, Note_on_c, 9, 53, 100
8, 106416, Note_on_c, 9, 53, 0
8, 106440, Note_on_c, 9, 53, 100
8, 106659, Note_on_c, 9, 53, 0
8, 106680, Note_on_c, 9, 53, 107
8, 106800, Note_on_c, 9, 53, 111
8, 106897, Note_on_c, 9, 53, 0
8, 106897, Note_on_c, 9, 53, 0
8, 107040, Note_on_c, 9, 53, 122
8, 107255, Note_on_c, 9, 53, 0
8, 107280, Note_on_c, 9, 53, 111
8, 107400, Note_on_c, 9, 53, 122
8, 107494, Note_on_c, 9, 53, 0
8, 107494, Note_on_c, 9, 53, 0
8, 107640, Note_on_c, 9, 53, 119
8, 107760, Note_on_c, 9, 53, 119
8, 107852, Note_on_c, 9, 53, 0
8, 107852, Note_on_c, 9, 53, 0
8, 108000, Note_on_c, 9, 53, 122
8, 108215, Note_on_c, 9, 53, 0
8, 108240, Note_on_c, 9, 53, 107
8, 108360, Note_on_c, 9, 53, 111
8, 108457, Note_on_c, 9, 53, 0
8, 108457, Note_on_c, 9, 53, 0
8, 108600, Note_on_c, 9, 53, 115
8, 108720, Note_on_c, 9, 53, 111
8, 108817, Note_on_c, 9, 53, 0
8, 108817, Note_on_c, 9, 53, 0
8, 108960, Note_on_c, 9, 53, 122
8, 109176, Note_on_c, 9, 53, 0
8, 109200, Note_on_c, 9, 53, 119
8, 109418, Note_on_c, 9, 53, 0
8, 109440, Note_on_c, 9, 53, 122
8, 109656, Note_on_c, 9, 53, 0
8, 109680, Note_on_c, 9, 53, 95
8, 109800, Note_on_c, 9, 53, 107
8, 109895, Note_on_c, 9, 53, 0
8, 109895, Note_on_c, 9, 53, 0
8, 110040, Note_on_c, 9, 53, 100
8, 110256, Note_on_c, 9, 53, 0
8, 110280, Note_on_c, 9, 53, 100
8, 110499, Note_on_c, 9, 53, 0
8, 110520, Note_on_c, 9, 53, 107
8, 110640, Note_on_c, 9, 53, 111
8, 110737, Note_on_c, 9, 53, 0
8, 110737, Note_on_c, 9, 53, 0
8, 110880, Note_on_c, 9, 53, 122
8, 111095, Note_on_c, 9, 53, 0
8, 111120, Note_on_c, 9, 53, 111
8, 111240, Note_on_c, 9, 53, 122
8, 111334, Note_on_c, 9, 53, 0
8, 111334, Note_on_c, 9, 53, 0
8, 111360, Note_on_c, 9, 53, 122
8, 111578, Note_on_c, 9, 53, 0
8, 111600, Note_on_c, 9, 53, 95
8, 111720, Note_on_c, 9, 53, 107
8, 111816, Note_on_c, 9, 53, 0
8, 111816, Note_on_c, 9, 53, 0
8, 111960, Note_on_c, 9, 53, 100
8, 112177, Note_on_c, 9, 53, 0
8, 112200, Note_on_c, 9, 53, 100
8, 112419, Note_on_c, 9, 53, 0
8, 112440, Note_on_c, 9, 53, 107
8, 112560, Note_on_c, 9, 53, 111
8, 112657, Note_on_c, 9, 53, 0
8, 112657, Note_on_c, 9, 53, 0
8, 112800, Note_on_c, 9, 53, 122
8, 113018, Note_on_c, 9, 53, 0
8, 113040, Note_on_c, 9, 53, 111
8, 113160, Note_on_c, 9, 53, 122
8, 113254, Note_on_c, 9, 53, 0
8, 113254, Note_on_c, 9, 53, 0
8, 113400, Note_on_c, 9, 53, 119
8, 113520, Note_on_c, 9, 53, 119
8, 113612, Note_on_c, 9, 53, 0
8, 113612, Note_on_c, 9, 53, 0
8, 113760, Note_on_c, 9, 53, 122
8, 113975, Note_on_c, 9, 53, 0
8, 114000, Note_on_c, 9, 53, 107
8, 114120, Note_on_c, 9, 53, 111
8, 114217, Note_on_c, 9, 53, 0
8, 114217, Note_on_c, 9, 53, 0
8, 114360, Note_on_c, 9, 53, 115
8, 114480, Note_on_c, 9, 53, 111
8, 114577, Note_on_c, 9, 53, 0
8, 114577, Note_on_c, 9, 53, 0
8, 114720, Note_on_c, 9, 53, 122
8, 114936, Note_on_c, 9, 53, 0
8, 114960, Note_on_c, 9, 53, 119
8, 115178, Note_on_c, 9, 53, 0
8, 115200, Note_on_c, 9, 53, 122
8, 115416, Note_on_c, 9, 53, 0
8, 115440, Note_on_c, 9, 53, 95
8, 115560, Note_on_c, 9, 53, 107
8, 115655, Note_on_c, 9, 53, 0
8, 115655, Note_on_c, 9, 53, 0
8, 115800, Note_on_c, 9, 53, 100
8, 116016, Note_on_c, 9, 53, 0
8, 116040, Note_on_c, 9, 53, 100
8, 116259, Note_on_c, 9, 53, 0
8, 116280, Note_on_c, 9, 53, 107
8, 116400, Note_on_c, 9, 53, 111
8, 116497, Note_on_c, 9, 53, 0
8, 116497, Note_on_c, 9, 53, 0
8, 116640, Note_on_c, 9, 53, 122
8, 116855, Note_on_c, 9, 53, 0
8, 116880, Note_on_c, 9, 53, 111
8, 117000, Note_on_c, 9, 53, 122
8, 117094, Note_on_c, 9, 53, 0
8, 117094, Note_on_c, 9, 53, 0
8, 117240, Note_on_c, 9, 53, 119
8, 117360, Note_on_c, 9, 53, 119
8, 117451, Note_on_c, 9, 53, 0
8, 117451, Note_on_c, 9, 53, 0
8, 117600, Note_on_c, 9, 53, 122
8, 117812, Note_on_c, 9, 53, 0
8, 117840, Note_on_c, 9, 53, 107
8, 117960, Note_on_c, 9, 53, 111
8, 118058, Note_on_c, 9, 53, 0
8, 118058, Note_on_c, 9, 53, 0
8, 118200, Note_on_c, 9, 53, 115
8, 118320, Note_on_c, 9, 53, 111
8, 118417, Note_on_c, 9, 53, 0
8, 118417, Note_on_c, 9, 53, 0
8, 118560, Note_on_c, 9, 53, 122
8, 118777, Note_on_c, 9, 53, 0
8, 118800, Note_on_c, 9, 53, 119
8, 119017, Note_on_c, 9, 53, 0
8, 119160, Note_on_c, 9, 53, 119
8, 119280, Note_on_c, 9, 53, 119
8, 119372, Note_on_c, 9, 53, 0
8, 119372, Note_on_c, 9, 53, 0
8, 119520, Note_on_c, 9, 53, 122
8, 119735, Note_on_c, 9, 53, 0
8, 119760, Note_on_c, 9, 53, 107
8, 119880, Note_on_c, 9, 53, 111
8, 119977, Note_on_c, 9, 53, 0
8, 119977, Note_on_c, 9, 53, 0
8, 120120, Note_on_c, 9, 53, 115
8, 120240, Note_on_c, 9, 53, 111
8, 120337, Note_on_c, 9, 53, 0
8, 120337, Note_on_c, 9, 53, 0
8, 120480, Note_on_c, 9, 53, 122
8, 120696, Note_on_c, 9, 53, 0
8, 120720, Note_on_c, 9, 53, 119
8, 120938, Note_on_c, 9, 53, 0
8, 120960, Note_on_c, 9, 53, 122
8, 121176, Note_on_c, 9, 53, 0
8, 121200, Note_on_c, 9, 53, 95
8, 121320, Note_on_c, 9, 53, 107
8, 121415, Note_on_c, 9, 53, 0
8, 121415, Note_on_c, 9, 53, 0
8, 121560, Note_on_c, 9, 53, 100
8, 121776, Note_on_c, 9, 53, 0
8, 121800, Note_on_c, 9, 53, 100
8, 122019, Note_on_c, 9, 53, 0
8, 122040, Note_on_c, 9, 53, 107
8, 122160, Note_on_c, 9, 53, 111
8, 122257, Note_on_c, 9, 53, 0
8, 122257, Note_on_c, 9, 53, 0
8, 122400, Note_on_c, 9, 53, 122
8, 122615, Note_on_c, 9, 53, 0
8, 122640, Note_on_c, 9, 53, 111
8, 122760, Note_on_c, 9, 53, 122
8, 122854, Note_on_c, 9, 53, 0
8, 122854, Note_on_c, 9, 53, 0
8, 123000, Note_on_c, 9, 53, 119
8, 123120, Note_on_c, 9, 53, 119
8, 123212, Note_on_c, 9, 53, 0
8, 123212, Note_on_c, 9, 53, 0
8, 123360, Note_on_c, 9, 53, 122
8, 123575, Note_on_c, 9, 53, 0
8, 123600, Note_on_c, 9, 53, 107
8, 123720, Note_on_c, 9, 53, 111
8, 123817, Note_on_c, 9, 53, 0
8, 123817, Note_on_c, 9, 53, 0
8, 123960, Note_on_c, 9, 53, 115
8, 124080, Note_on_c, 9, 53, 111
8, 124177, Note_on_c, 9, 53, 0
8, 124177, Note_on_c, 9, 53, 0
8, 124320, Note_on_c, 9, 53, 122
8, 124536, Note_on_c, 9, 53, 0
8, 124560, Note_on_c, 9, 53, 119
8, 124778, Note_on_c, 9, 53, 0
8, 124800, Note_on_c, 9, 53, 122
8, 125016, Note_on_c, 9, 53, 0
8, 125040, Note_on_c, 9, 53, 95
8, 125160, Note_on_c, 9, 53, 107
8, 125255, Note_on_c, 9, 53, 0
8, 125255, Note_on_c, 9, 53, 0
8, 125400, Note_on_c, 9, 53, 100
8, 125616, Note_on_c, 9, 53, 0
8, 125640, Note_on_c, 9, 53, 100
8, 125859, Note_on_c, 9, 53, 0
8, 125880, Note_on_c, 9, 53, 107
8, 126000, Note_on_c, 9, 53, 111
8, 126097, Note_on_c, 9, 53, 0
8, 126097, Note_on_c, 9, 53, 0
8, 126240, Note_on_c, 9, 53, 122
8, 126455, Note_on_c, 9, 53, 0
8, 126480, Note_on_c, 9, 53, 111
8, 126600, Note_on_c, 9, 53, 122
8, 126694, Note_on_c, 9, 53, 0
8, 126694, Note_on_c, 9, 53, 0
8, 126720, Note_on_c, 9, 53, 122
8, 126938, Note_on_c, 9, 53, 0
8, 126960, Note_on_c, 9, 53, 95
8, 127080, Note_on_c, 9, 53, 107
8, 127176, Note_on_c, 9, 53, 0
8, 127176, Note_on_c, 9, 53, 0
8, 127320, Note_on_c, 9, 53, 100
8, 127537, Note_on_c, 9, 53, 0
8, 127560, Note_on_c, 9, 53, 100
8, 127779, Note_on_c, 9, 53, 0
8, 127800, Note_on_c, 9, 53, 107
8, 127920, Note_on_c, 9, 53, 111
8, 128017, Note_on_c, 9, 53, 0
8, 128017, Note_on_c, 9, 53, 0
8, 128160, Note_on_c, 9, 53, 122
8, 128378, Note_on_c, 9, 53, 0
8, 128400, Note_on_c, 9, 53, 111
8, 128520, Note_on_c, 9, 53, 122
8, 128614, Note_on_c, 9, 53, 0
8, 128614, Note_on_c, 9, 53, 0
8, 128760, Note_on_c, 9, 53, 119
8, 128880, Note_on_c, 9, 53, 119
8, 128972, Note_on_c, 9, 53, 0
8, 128972, Note_on_c, 9, 53, 0
8, 129120, Note_on_c, 9, 53, 122
8, 129335, Note_on_c, 9, 53, 0
8, 129360, Note_on_c, 9, 53, 107
8, 129480, Note_on_c, 9, 53, 111
8, 129577, Note_on_c, 9, 53, 0
8, 129577, Note_on_c, 9, 53, 0
8, 129720, Note_on_c, 9, 53, 115
8, 129840, Note_on_c, 9, 53, 111
8, 129937, Note_on_c, 9, 53, 0
8, 129937, Note_on_c, 9, 53, 0
8, 130080, Note_on_c, 9, 53, 122
8, 130296, Note_on_c, 9, 53, 0
8, 130320, Note_on_c, 9, 53, 119
8, 130538, Note_on_c, 9, 53, 0
8, 130560, Note_on_c, 9, 53, 122
8, 130776, Note_on_c, 9, 53, 0
8, 130800, Note_on_c, 9, 53, 95
8, 130920, Note_on_c, 9, 53, 107
8, 131015, Note_on_c, 9, 53, 0
8, 131015, Note_on_c, 9, 53, 0
8, 131160, Note_on_c, 9, 53, 100
8, 131376, Note_on_c, 9, 53, 0
8, 131400, Note_on_c, 9, 53, 100
8, 131619, Note_on_c, 9, 53, 0
8, 131640, Note_on_c, 9, 53, 107
8, 131760, Note_on_c, 9, 53, 111
8, 131857, Note_on_c, 9, 53, 0
8, 131857, Note_on_c, 9, 53, 0
8, 132000, Note_on_c, 9, 53, 122
8, 132215, Note_on_c, 9, 53, 0
8, 132240, Note_on_c, 9, 53, 111
8, 132360, Note_on_c, 9, 53, 122
8, 132454, Note_on_c, 9, 53, 0
8, 132454, Note_on_c, 9, 53, 0
8, 132600, Note_on_c, 9, 53, 119
8, 132720, Note_on_c, 9, 53, 119
8, 132811, Note_on_c, 9, 53, 0
8, 132811, Note_on_c, 9, 53, 0
8, 132960, Note_on_c, 9, 53, 122
8, 133172, Note_on_c, 9, 53, 0
8, 133200, Note_on_c, 9, 53, 107
8, 133320, Note_on_c, 9, 53, 111
8, 133418, Note_on_c, 9, 53, 0
8, 133418, Note_on_c, 9, 53, 0
8, 133560, Note_on_c, 9, 53, 115
8, 133680, Note_on_c, 9, 53, 111
8, 133777, Note_on_c, 9, 53, 0
8, 133777, Note_on_c, 9, 53, 0
8, 133920, Note_on_c, 9, 53, 122
8, 134137, Note_on_c, 9, 53, 0
8, 134160, Note_on_c, 9, 53, 119
8, 134377, Note_on_c, 9, 53, 0
8, 134520, Note_on_c, 9, 53, 119
8, 134640, Note_on_c, 9, 53, 119
8, 134732, Note_on_c, 9, 53, 0
8, 134732, Note_on_c, 9, 53, 0
8, 134880, Note_on_c, 9, 53, 122
8, 135095, Note_on_c, 9, 53, 0
8, 135120, Note_on_c, 9, 53, 107
8, 135240, Note_on_c, 9, 53, 111
8, 135337, Note_on_c, 9, 53, 0
8, 135337, Note_on_c, 9, 53, 0
8, 135480, Note_on_c, 9, 53, 115
8, 135600, Note_on_c, 9, 53, 111
8, 135697, Note_on_c, 9, 53, 0
8, 135697, Note_on_c, 9, 53, 0
8, 135840, Note_on_c, 9, 53, 122
8, 136056, Note_on_c, 9, 53, 0
8, 136080, Note_on_c, 9, 53, 119
8, 136298, Note_on_c, 9, 53, 0
8, 136320, Note_on_c, 9, 53, 122
8, 136536, Note_on_c, 9, 53, 0
8, 136560, Note_on_c, 9, 53, 95
8, 136680, Note_on_c, 9, 53, 107
8, 136775, Note_on_c, 9, 53, 0
8, 136775, Note_on_c, 9, 53, 0
8, 136920, Note_on_c, 9, 53, 100
8, 137136, Note_on_c, 9, 53, 0
8, 137160, Note_on_c, 9, 53, 100
8, 137379, Note_on_c, 9, 53, 0
8, 137400, Note_on_c, 9, 53, 107
8, 137520, Note_on_c, 9, 53, 111
8, 137617, Note_on_c, 9, 53, 0
8, 137617, Note_on_c, 9, 53, 0
8, 137760, Note_on_c, 9, 53, 122
8, 137975, Note_on_c, 9, 53, 0
8, 138000, Note_on_c, 9, 53, 111
8, 138120, Note_on_c, 9, 53, 122
8, 138214, Note_on_c, 9, 53, 0
8, 138214, Note_on_c, 9, 53, 0
8, 138360, Note_on_c, 9, 53, 119
8, 138480, Note_on_c, 9, 53, 119
8, 138572, Note_on_c, 9, 53, 0
8, 138572, Note_on_c, 9, 53, 0
8, 138720, Note_on_c, 9, 53, 122
8, 138935, Note_on_c, 9, 53, 0
8, 138960, Note_on_c, 9, 53, 107
8, 139080, Note_on_c, 9, 53, 111
8, 139177, Note_on_c, 9, 53, 0
8, 139177, Note_on_c, 9, 53, 0
8, 139320, Note_on_c, 9, 53, 115
8, 139440, Note_on_c, 9, 53, 111
8, 139537, Note_on_c, 9, 53, 0
8, 139537, Note_on_c, 9, 53, 0
8, 139680, Note_on_c, 9, 53, 122
8, 139896, Note_on_c, 9, 53, 0
8, 139920, Note_on_c, 9, 53, 119
8, 140138, Note_on_c, 9, 53, 0
8, 140160, Note_on_c, 9, 53, 122
8, 140376, Note_on_c, 9, 53, 0
8, 140400, Note_on_c, 9, 53, 95
8, 140520, Note_on_c, 9, 53, 107
8, 140615, Note_on_c, 9, 53, 0
8, 140615, Note_on_c, 9, 53, 0
8, 140760, Note_on_c, 9, 53, 100
8, 140976, Note_on_c, 9, 53, 0
8, 141000, Note_on_c, 9, 53, 100
8, 141219, Note_on_c, 9, 53, 0
8, 141240, Note_on_c, 9, 53, 107
8, 141360, Note_on_c, 9, 53, 111
8, 141457, Note_on_c, 9, 53, 0
8, 141457, Note_on_c, 9, 53, 0
8, 141600, Note_on_c, 9, 53, 122
8, 141815, Note_on_c, 9, 53, 0
8, 141840, Note_on_c, 9, 53, 111
8, 141960, Note_on_c, 9, 53, 122
8, 142054, Note_on_c, 9, 53, 0
8, 142054, Note_on_c, 9, 53, 0
8, 142080, Note_on_c, 9, 53, 122
8, 142298, Note_on_c, 9, 53, 0
8, 142320, Note_on_c, 9, 53, 95
8, 142440, Note_on_c, 9, 53, 107
8, 142536, Note_on_c, 9, 53, 0
8, 142536, Note_on_c, 9, 53, 0
8, 142680, Note_on_c, 9, 53, 100
8, 142897, Note_on_c, 9, 53, 0
8, 142920, Note_on_c, 9, 53, 100
8, 143139, Note_on_c, 9, 53, 0
8, 143160, Note_on_c, 9, 53, 107
8, 143280, Note_on_c, 9, 53, 111
8, 143377, Note_on_c, 9, 53, 0
8, 143377, Note_on_c, 9, 53, 0
8, 143520, Note_on_c, 9, 53, 122
8, 143738, Note_on_c, 9, 53, 0
8, 143760, Note_on_c, 9, 53, 111
8, 143880, Note_on_c, 9, 53, 122
8, 143974, Note_on_c, 9, 53, 0
8, 143974, Note_on_c, 9, 53, 0
8, 144120, Note_on_c, 9, 53, 119
8, 144240, Note_on_c, 9, 53, 119
8, 144332, Note_on_c, 9, 53, 0
8, 144332, Note_on_c, 9, 53, 0
8, 144480, Note_on_c, 9, 53, 122
8, 144695, Note_on_c, 9, 53, 0
8, 144720, Note_on_c, 9, 53, 107
8, 144840, Note_on_c, 9, 53, 111
8, 144937, Note_on_c, 9, 53, 0
8, 144937, Note_on_c, 9, 53, 0
8, 145080, Note_on_c, 9, 53, 115
8, 145200, Note_on_c, 9, 53, 111
8, 145297, Note_on_c, 9, 53, 0
8, 145297, Note_on_c, 9, 53, 0
8, 145440, Note_on_c, 9, 53, 122
8, 145656, Note_on_c, 9, 53, 0
8, 145680, Note_on_c, 9, 53, 119
8, 145898, Note_on_c, 9, 53, 0
8, 145920, Note_on_c, 9, 53, 122
8, 146136, Note_on_c, 9, 53, 0
8, 146160, Note_on_c, 9, 53, 95
8, 146280, Note_on_c, 9, 53, 107
8, 146375, Note_on_c, 9, 53, 0
8, 146375, Note_on_c, 9, 53, 0
8, 146520, Note_on_c, 9, 53, 100
8, 146736, Note_on_c, 9, 53, 0
8, 146760, Note_on_c, 9, 53, 100
8, 146979, Note_on_c, 9, 53, 0
8, 147000, Note_on_c, 9, 53, 107
8, 147120, Note_on_c, 9, 53, 111
8, 147217, Note_on_c, 9, 53, 0
8, 147217, Note_on_c, 9, 53, 0
8, 147360, Note_on_c, 9, 53, 122
8, 147575, Note_on_c, 9, 53, 0
8, 147600, Note_on_c, 9, 53, 111
8, 147720, Note_on_c, 9, 53, 122
8, 147814, Note_on_c, 9, 53, 0
8, 147814, Note_on_c, 9, 53, 0
8, 147960, Note_on_c, 9, 53, 119
8, 148080, Note_on_c, 9, 53, 119
8, 148171, Note_on_c, 9, 53, 0
8, 148171, Note_on_c, 9, 53, 0
8, 148320, Note_on_c, 9, 53, 122
8, 148532, Note_on_c, 9, 53, 0
8, 148560, Note_on_c, 9, 53, 107
8, 148680, Note_on_c, 9, 53, 111
8, 148778, Note_on_c, 9, 53, 0
8, 148778, Note_on_c, 9, 53, 0
8, 148920, Note_on_c, 9, 53, 115
8, 149040, Note_on_c, 9, 53, 111
8, 149137, Note_on_c, 9, 53, 0
8, 149137, Note_on_c, 9, 53, 0
8, 149280, Note_on_c, 9, 53, 122
8, 149497, Note_on_c, 9, 53, 0
8, 149520, Note_on_c, 9, 53, 119
8, 149737, Note_on_c, 9, 53, 0
8, 149880, Note_on_c, 9, 53, 119
8, 150000, Note_on_c, 9, 53, 119
8, 150092, Note_on_c, 9, 53, 0
8, 150092, Note_on_c, 9, 53, 0
8, 150240, Note_on_c, 9, 53, 122
8, 150455, Note_on_c, 9, 53, 0
8, 150480, Note_on_c, 9, 53, 107
8, 150600, Note_on_c, 9, 53, 111
8, 150697, Note_on_c, 9, 53, 0
8, 150697, Note_on_c, 9, 53, 0
8, 150840, Note_on_c, 9, 53, 115
8, 150960, Note_on_c, 9, 53, 111
8, 151057, Note_on_c, 9, 53, 0
8, 151057, Note_on_c, 9, 53, 0
8, 151200, Note_on_c, 9, 53, 122
8, 151416, Note_on_c, 9, 53, 0
8, 151440, Note_on_c, 9, 53, 119
8, 151658, Note_on_c, 9, 53, 0
8, 151680, Note_on_c, 9, 53, 122
8, 151896, Note_on_c, 9, 53, 0
8, 151920, Note_on_c, 9, 53, 95
8, 152040, Note_on_c, 9, 53, 107
8, 152135, Note_on_c, 9, 53, 0
8, 152135, Note_on_c, 9, 53, 0
8, 152280, Note_on_c, 9, 53, 100
8, 152496, Note_on_c, 9, 53, 0
8, 152520, Note_on_c, 9, 53, 100
8, 152739, Note_on_c, 9, 53, 0
8, 152760, Note_on_c, 9, 53, 107
8, 152880, Note_on_c, 9, 53, 111
8, 152977, Note_on_c, 9, 53, 0
8, 152977, Note_on_c, 9, 53, 0
8, 153120, Note_on_c, 9, 53, 122
8, 153335, Note_on_c, 9, 53, 0
8, 153360, Note_on_c, 9, 53, 111
8, 153480, Note_on_c, 9, 53, 122
8, 153574, Note_on_c, 9, 53, 0
8, 153574, Note_on_c, 9, 53, 0
8, 153720, Note_on_c, 9, 53, 119
8, 153840, Note_on_c, 9, 53, 119
8, 153932, Note_on_c, 9, 53, 0
8, 153932, Note_on_c, 9, 53, 0
8, 154080, Note_on_c, 9, 53, 122
8, 154295, Note_on_c, 9, 53, 0
8, 154320, Note_on_c, 9, 53, 107
8, 154440, Note_on_c, 9, 53, 111
8, 154537, Note_on_c, 9, 53, 0
8, 154537, Note_on_c, 9, 53, 0
8, 154680, Note_on_c, 9, 53, 115
8, 154800, Note_on_c, 9, 53, 111
8, 154897, Note_on_c, 9, 53, 0
8, 154897, Note_on_c, 9, 53, 0
8, 155040, Note_on_c, 9, 53, 122
8, 155256, Note_on_c, 9, 53, 0
8, 155280, Note_on_c, 9, 53, 119
8, 155498, Note_on_c, 9, 53, 0
8, 155520, Note_on_c, 9, 53, 122
8, 155736, Note_on_c, 9, 53, 0
8, 155760, Note_on_c, 9, 53, 95
8, 155880, Note_on_c, 9, 53, 107
8, 155975, Note_on_c, 9, 53, 0
8, 155975, Note_on_c, 9, 53, 0
8, 156120, Note_on_c, 9, 53, 100
8, 156336, Note_on_c, 9, 53, 0
8, 156360, Note_on_c, 9, 53, 100
8, 156579, Note_on_c, 9, 53, 0
8, 156600, Note_on_c, 9, 53, 107
8, 156720, Note_on_c, 9, 53, 111
8, 156817, Note_on_c, 9, 53, 0
8, 156817, Note_on_c, 9, 53, 0
8, 156960, Note_on_c, 9, 53, 122
8, 157175, Note_on_c, 9, 53, 0
8, 157200, Note_on_c, 9, 53, 111
8, 157320, Note_on_c, 9, 53, 122
8, 157414, Note_on_c, 9, 53, 0
8, 157414, Note_on_c, 9, 53, 0
8, 157440, Note_on_c, 9, 53, 122
8, 157658, Note_on_c, 9, 53, 0
8, 157680, Note_on_c, 9, 53, 95
8, 157800, Note_on_c, 9, 53, 107
8, 157896, Note_on_c, 9, 53, 0
8, 157896, Note_on_c, 9, 53, 0
8, 158040, Note_on_c, 9, 53, 100
8, 158257, Note_on_c, 9, 53, 0
8, 158280, Note_on_c, 9, 53, 100
8, 158499, Note_on_c, 9, 53, 0
8, 158520, Note_on_c, 9, 53, 107
8, 158640, Note_on_c, 9, 53, 111
8, 158737, Note_on_c, 9, 53, 0
8, 158737, Note_on_c, 9, 53, 0
8, 158880, Note_on_c, 9, 53, 122
8, 159098, Note_on_c, 9, 53, 0
8, 159120, Note_on_c, 9, 53, 111
8, 159240, Note_on_c, 9, 53, 122
8, 159334, Note_on_c, 9, 53, 0
8, 159334, Note_on_c, 9, 53, 0
8, 159480, Note_on_c, 9, 53, 119
8, 159600, Note_on_c, 9, 53, 119
8, 159692, Note_on_c, 9, 53, 0
8, 159692, Note_on_c, 9, 53, 0
8, 159840, Note_on_c, 9, 53, 122
8, 160055, Note_on_c, 9, 53, 0
8, 160080, Note_on_c, 9, 53, 107
8, 160200, Note_on_c, 9, 53, 111
8, 160297, Note_on_c, 9, 53, 0
8, 160297, Note_on_c, 9, 53, 0
8, 160440, Note_on_c, 9, 53, 115
8, 160560, Note_on_c, 9, 53, 111
8, 160657, Note_on_c, 9, 53, 0
8, 160657, Note_on_c, 9, 53, 0
8, 160800, Note_on_c, 9, 53, 122
8, 161016, Note_on_c, 9, 53, 0
8, 161040, Note_on_c, 9, 53, 119
8, 161258, Note_on_c, 9, 53, 0
8, 161280, Note_on_c, 9, 53, 122
8, 161496, Note_on_c, 9, 53, 0
8, 161520, Note_on_c, 9, 53, 95
8, 161640, Note_on_c, 9, 53, 107
8, 161735, Note_on_c, 9, 53, 0
8, 161735, Note_on_c, 9, 53, 0
8, 161880, Note_on_c, 9, 53, 100
8, 162096, Note_on_c, 9, 53, 0
8, 162120, Note_on_c, 9, 53, 100
8, 162339, Note_on_c, 9, 53, 0
8, 162360, Note_on_c, 9, 53, 107
8, 162480, Note_on_c, 9, 53, 111
8, 162577, Note_on_c, 9, 53, 0
8, 162577, Note_on_c, 9, 53, 0
8, 162720, Note_on_c, 9, 53, 122
8, 162935, Note_on_c, 9, 53, 0
8, 162960, Note_on_c, 9, 53, 111
8, 163080, Note_on_c, 9, 53, 122
8, 163174, Note_on_c, 9, 53, 0
8, 163174, Note_on_c, 9, 53, 0
8, 163320, Note_on_c, 9, 53, 119
8, 163440, Note_on_c, 9, 53, 119
8, 163531, Note_on_c, 9, 53, 0
8, 163531, Note_on_c, 9, 53, 0
8, 163680, Note_on_c, 9, 53, 122
8, 163892, Note_on_c, 9, 53, 0
8, 163920, Note_on_c, 9, 53, 107
8, 164040, Note_on_c, 9, 53, 111
8, 164138, Note_on_c, 9, 53, 0
8, 164138, Note_on_c, 9, 53, 0
8, 164280, Note_on_c, 9, 53, 115
8, 164400, Note_on_c, 9, 53, 111
8, 164497, Note_on_c, 9, 53, 0
8, 164497, Note_on_c, 9, 53, 0
8, 164640, Note_on_c, 9, 53, 122
8, 164857, Note_on_c, 9, 53, 0
8, 164880, Note_on_c, 9, 53, 119
8, 165097, Note_on_c, 9, 53, 0
8, 165240, Note_on_c, 9, 53, 119
8, 165360, Note_on_c, 9, 53, 119
8, 165452, Note_on_c, 9, 53, 0
8, 165452, Note_on_c, 9, 53, 0
8, 165600, Note_on_c, 9, 53, 122
8, 165815, Note_on_c, 9, 53, 0
8, 165840, Note_on_c, 9, 53, 107
8, 165960, Note_on_c, 9, 53, 111
8, 166057, Note_on_c, 9, 53, 0
8, 166057, Note_on_c, 9, 53, 0
8, 166200, Note_on_c, 9, 53, 115
8, 166320, Note_on_c, 9, 53, 111
8, 166417, Note_on_c, 9, 53, 0
8, 166417, Note_on_c, 9, 53, 0
8, 166560, Note_on_c, 9, 53, 122
8, 166776, Note_on_c, 9, 53, 0
8, 166800, Note_on_c, 9, 53, 119
8, 167018, Note_on_c, 9, 53, 0
8, 167040, Note_on_c, 9, 53, 122
8, 167256, Note_on_c, 9, 53, 0
8, 167280, Note_on_c, 9, 53, 95
8, 167400, Note_on_c, 9, 53, 107
8, 167495, Note_on_c, 9, 53, 0
8, 167495, Note_on_c, 9, 53, 0
8, 167640, Note_on_c, 9, 53, 100
8, 167856, Note_on_c, 9, 53, 0
8, 167880, Note_on_c, 9, 53, 100
8, 168099, Note_on_c, 9, 53, 0
8, 168120, Note_on_c, 9, 53, 107
8, 168240, Note_on_c, 9, 53, 111
8, 168337, Note_on_c, 9, 53, 0
8, 168337, Note_on_c, 9, 53, 0
8, 168480, Note_on_c, 9, 53, 122
8, 168695, Note_on_c, 9, 53, 0
8, 168720, Note_on_c, 9, 53, 111
8, 168840, Note_on_c, 9, 53, 122
8, 168934, Note_on_c, 9, 53, 0
8, 168934, Note_on_c, 9, 53, 0
8, 169080, Note_on_c, 9, 53, 119
8, 169200, Note_on_c, 9, 53, 119
8, 169292, Note_on_c, 9, 53, 0
8, 169292, Note_on_c, 9, 53, 0
8, 169440, Note_on_c, 9, 53, 122
8, 169655, Note_on_c, 9, 53, 0
8, 169680, Note_on_c, 9, 53, 107
8, 169800, Note_on_c, 9, 53, 111
8, 169897, Note_on_c, 9, 53, 0
8, 169897, Note_on_c, 9, 53, 0
8, 170040, Note_on_c, 9, 53, 115
8, 170160, Note_on_c, 9, 53, 111
8, 170257, Note_on_c, 9, 53, 0
8, 170257, Note_on_c, 9, 53, 0
8, 170400, Note_on_c, 9, 53, 122
8, 170616, Note_on_c, 9, 53, 0
8, 170640, Note_on_c, 9, 53, 119
8, 170858, Note_on_c, 9, 53, 0
8, 170880, Note_on_c, 9, 53, 122
8, 171096, Note_on_c, 9, 53, 0
8, 171120, Note_on_c, 9, 53, 95
8, 171240, Note_on_c, 9, 53, 107
8, 171335, Note_on_c, 9, 53, 0
8, 171335, Note_on_c, 9, 53, 0
8, 171480, Note_on_c, 9, 53, 100
8, 171696, Note_on_c, 9, 53, 0
8, 171720, Note_on_c, 9, 53, 100
8, 171939, Note_on_c, 9, 53, 0
8, 171960, Note_on_c, 9, 53, 107
8, 172080, Note_on_c, 9, 53, 111
8, 172177, Note_on_c, 9, 53, 0
8, 172177, Note_on_c, 9, 53, 0
8, 172320, Note_on_c, 9, 53, 122
8, 172535, Note_on_c, 9, 53, 0
8, 172560, Note_on_c, 9, 53, 111
8, 172680, Note_on_c, 9, 53, 122
8, 172774, Note_on_c, 9, 53, 0
8, 172774, Note_on_c, 9, 53, 0
8, 172800, Note_on_c, 9, 53, 122
8, 173018, Note_on_c, 9, 53, 0
8, 173040, Note_on_c, 9, 53, 95
8, 173160, Note_on_c, 9, 53, 107
8, 173256, Note_on_c, 9, 53, 0
8, 173256, Note_on_c, 9, 53, 0
8, 173400, Note_on_c, 9, 53, 100
8, 173617, Note_on_c, 9, 53, 0
8, 173640, Note_on_c, 9, 53, 100
8, 173859, Note_on_c, 9, 53, 0
8, 173880, Note_on_c, 9, 53, 107
8, 174000, Note_on_c, 9, 53, 111
8, 174097, Note_on_c, 9, 53, 0
8, 174097, Note_on_c, 9, 53, 0
8, 174240, Note_on_c, 9, 53, 122
8, 174458, Note_on_c, 9, 53, 0
8, 174480, Note_on_c, 9, 53, 111
8, 174600, Note_on_c, 9, 53, 122
8, 174694, Note_on_c, 9, 53, 0
8, 174694, Note_on_c, 9, 53, 0
8, 174840, Note_on_c, 9, 53, 119
8, 174960, Note_on_c, 9, 53, 119
8, 175052, Note_on_c, 9, 53, 0
8, 175052, Note_on_c, 9, 53, 0
8, 175200, Note_on_c, 9, 53, 122
8, 175415, Note_on_c, 9, 53, 0
8, 175440, Note_on_c, 9, 53, 107
8, 175560, Note_on_c, 9, 53, 111
8, 175657, Note_on_c, 9, 53, 0
8, 175657, Note_on_c, 9, 53, 0
8, 175800, Note_on_c, 9, 53, 115
8, 175920, Note_on_c, 9, 53, 111
8, 176017, Note_on_c, 9, 53, 0
8, 176017, Note_on_c, 9, 53, 0
8, 176160, Note_on_c, 9, 53, 122
8, 176376, Note_on_c, 9, 53, 0
8, 176400, Note_on_c, 9, 53, 119
8, 176618, Note_on_c, 9, 53, 0
8, 176640, Note_on_c, 9, 53, 122
8, 176856, Note_on_c, 9, 53, 0
8, 176880, Note_on_c, 9, 53, 95
8, 177000, Note_on_c, 9, 53, 107
8, 177095, Note_on_c, 9, 53, 0
8, 177095, Note_on_c, 9, 53, 0
8, 177240, Note_on_c, 9, 53, 100
8, 177456, Note_on_c, 9, 53, 0
8, 177480, Note_on_c, 9, 53, 100
8, 177699, Note_on_c, 9, 53, 0
8, 177720, Note_on_c, 9, 53, 107
8, 177840, Note_on_c, 9, 53, 111
8, 177937, Note_on_c, 9, 53, 0
8, 177937, Note_on_c, 9, 53, 0
8, 178080, Note_on_c, 9, 53, 122
8, 178295, Note_on_c, 9, 53, 0
8, 178320, Note_on_c, 9, 53, 111
8, 178440, Note_on_c, 9, 53, 122
8, 178534, Note_on_c, 9, 53, 0
8, 178534, Note_on_c, 9, 53, 0
8, 178680, Note_on_c, 9, 53, 119
8, 178800, Note_on_c, 9, 53, 119
8, 178891, Note_on_c, 9, 53, 0
8, 178891, Note_on_c, 9, 53, 0
8, 179040, Note_on_c, 9, 53, 122
8, 179252, Note_on_c, 9, 53, 0
8, 179280, Note_on_c, 9, 53, 107
8, 179400, Note_on_c, 9, 53, 111
8, 179498, Note_on_c, 9, 53, 0
8, 179498, Note_on_c, 9, 53, 0
8, 179640, Note_on_c, 9, 53, 115
8, 179760, Note_on_c, 9, 53, 111
8, 179857, Note_on_c, 9, 53, 0
8, 179857, Note_on_c, 9, 53, 0
8, 180000, Note_on_c, 9, 53, 122
8, 180217, Note_on_c, 9, 53, 0
8, 180240, Note_on_c, 9, 53, 119
8, 180457, Note_on_c, 9, 53, 0
8, 180600, Note_on_c, 9, 53, 119
8, 180720, Note_on_c, 9, 53, 119
8, 180812, Note_on_c, 9, 53, 0
8, 180812, Note_on_c, 9, 53, 0
8, 180960, Note_on_c, 9, 53, 122
8, 181175, Note_on_c, 9, 53, 0
8, 181200, Note_on_c, 9, 53, 107
8, 181320, Note_on_c, 9, 53, 111
8, 181417, Note_on_c, 9, 53, 0
8, 181417, Note_on_c, 9, 53, 0
8, 181560, Note_on_c, 9, 53, 115
8, 181680, Note_on_c, 9, 53, 111
8, 181777, Note_on_c, 9, 53, 0
8, 181777, Note_on_c, 9, 53, 0
8, 181920, Note_on_c, 9, 53, 122
8, 182136, Note_on_c, 9, 53, 0
8, 182160, Note_on_c, 9, 53, 119
8, 182378, Note_on_c, 9, 53, 0
8, 182400, Note_on_c, 9, 53, 122
8, 182616, Note_on_c, 9, 53, 0
8, 182640, Note_on_c, 9, 53, 95
8, 182760, Note_on_c, 9, 53, 107
8, 182855, Note_on_c, 9, 53, 0
8, 182855, Note_on_c, 9, 53, 0
8, 183000, Note_on_c, 9, 53, 100
8, 183216, Note_on_c, 9, 53, 0
8, 183240, Note_on_c, 9, 53, 100
8, 183459, Note_on_c, 9, 53, 0
8, 183480, Note_on_c, 9, 53, 107
8, 183600, Note_on_c, 9, 53, 111
8, 183697, Note_on_c, 9, 53, 0
8, 183697, Note_on_c, 9, 53, 0
8, 183840, Note_on_c, 9, 53, 122
8, 184055, Note_on_c, 9, 53, 0
8, 184080, Note_on_c, 9, 53, 111
8, 184200, Note_on_c, 9, 53, 122
8, 184294, Note_on_c, 9, 53, 0
8, 184294, Note_on_c, 9, 53, 0
8, 184440, Note_on_c, 9, 53, 119
8, 184560, Note_on_c, 9, 53, 119
8, 184652, Note_on_c, 9, 53, 0
8, 184652, Note_on_c, 9, 53, 0
8, 184800, Note_on_c, 9, 53, 122
8, 185015, Note_on_c, 9, 53, 0
8, 185040, Note_on_c, 9, 53, 107
8, 185160, Note_on_c, 9, 53, 111
8, 185257, Note_on_c, 9, 53, 0
8, 185257, Note_on_c, 9, 53, 0
8, 185400, Note_on_c, 9, 53, 115
8, 185520, Note_on_c, 9, 53, 111
8, 185617, Note_on_c, 9, 53, 0
8, 185617, Note_on_c, 9, 53, 0
8, 185760, Note_on_c, 9, 53, 122
8, 185976, Note_on_c, 9, 53, 0
8, 186000, Note_on_c, 9, 53, 119
8, 186218, Note_on_c, 9, 53, 0
8, 186240, Note_on_c, 9, 53, 122
8, 186456, Note_on_c, 9, 53, 0
8, 186480, Note_on_c, 9, 53, 95
8, 186600, Note_on_c, 9, 53, 107
8, 186695, Note_on_c, 9, 53, 0
8, 186695, Note_on_c, 9, 53, 0
8, 186840, Note_on_c, 9, 53, 100
8, 187056, Note_on_c, 9, 53, 0
8, 187080, Note_on_c, 9, 53, 100
8, 187299, Note_on_c, 9, 53, 0
8, 187320, Note_on_c, 9, 53, 107
8, 187440, Note_on_c, 9, 53, 111
8, 187537, Note_on_c, 9, 53, 0
8, 187537, Note_on_c, 9, 53, 0
8, 187680, Note_on_c, 9, 53, 122
8, 187895, Note_on_c, 9, 53, 0
8, 187920, Note_on_c, 9, 53, 111
8, 188040, Note_on_c, 9, 53, 122
8, 188134, Note_on_c, 9, 53, 0
8, 188134, Note_on_c, 9, 53, 0
8, 188160, Note_on_c, 9, 53, 122
8, 188378, Note_on_c, 9, 53, 0
8, 188400, Note_on_c, 9, 53, 95
8, 188520, Note_on_c, 9, 53, 107
8, 188616, Note_on_c, 9, 53, 0
8, 188616, Note_on_c, 9, 53, 0
8, 188760, Note_on_c, 9, 53, 100
8, 188977, Note_on_c, 9, 53, 0
8, 189000, Note_on_c, 9, 53, 100
8, 189219, Note_on_c, 9, 53, 0
8, 189240, Note_on_c, 9, 53, 107
8, 189360, Note_on_c, 9, 53, 111
8, 189457, Note_on_c, 9, 53, 0
8, 189457, Note_on_c, 9, 53, 0
8, 189600, Note_on_c, 9, 53, 122
8, 189818, Note_on_c, 9, 53, 0
8, 189840, Note_on_c, 9, 53, 111
8, 189960, Note_on_c, 9, 53, 122
8, 190054, Note_on_c, 9, 53, 0
8, 190054, Note_on_c, 9, 53, 0
8, 190200, Note_on_c, 9, 53, 119
8, 190320, Note_on_c, 9, 53, 119
8, 190412, Note_on_c, 9, 53, 0
8, 190412, Note_on_c, 9, 53, 0
8, 190560, Note_on_c, 9, 53, 122
8, 190775, Note_on_c, 9, 53, 0
8, 190800, Note_on_c, 9, 53, 107
8, 190920, Note_on_c, 9, 53, 111
8, 191017, Note_on_c, 9, 53, 0
8, 191017, Note_on_c, 9, 53, 0
8, 191160, Note_on_c, 9, 53, 115
8, 191280, Note_on_c, 9, 53, 111
8, 191377, Note_on_c, 9, 53, 0
8, 191377, Note_on_c, 9, 53, 0
8, 191520, Note_on_c, 9, 53, 122
8, 191736, Note_on_c, 9, 53, 0
8, 191760, Note_on_c, 9, 53, 119
8, 191978, Note_on_c, 9, 53, 0
8, 192000, Note_on_c, 9, 53, 122
8, 192216, Note_on_c, 9, 53, 0
8, 192240, Note_on_c, 9, 53, 95
8, 192360, Note_on_c, 9, 53, 107
8, 192455, Note_on_c, 9, 53, 0
8, 192455, Note_on_c, 9, 53, 0
8, 192600, Note_on_c, 9, 53, 100
8, 192816, Note_on_c, 9, 53, 0
8, 192840, Note_on_c, 9, 53, 100
8, 193059, Note_on_c, 9, 53, 0
8, 193080, Note_on_c, 9, 53, 107
8, 193200, Note_on_c, 9, 53, 111
8, 193297, Note_on_c, 9, 53, 0
8, 193297, Note_on_c, 9, 53, 0
8, 193440, Note_on_c, 9, 53, 122
8, 193655, Note_on_c, 9, 53, 0
8, 193680, Note_on_c, 9, 53, 111
8, 193800, Note_on_c, 9, 53, 122
8, 193894, Note_on_c, 9, 53, 0
8, 193894, Note_on_c, 9, 53, 0
8, 194040, Note_on_c, 9, 53, 119
8, 194160, Note_on_c, 9, 53, 119
8, 194251, Note_on_c, 9, 53, 0
8, 194251, Note_on_c, 9, 53, 0
8, 194400, Note_on_c, 9, 53, 122
8, 194612, Note_on_c, 9, 53, 0
8, 194640, Note_on_c, 9, 53, 107
8, 194760, Note_on_c, 9, 53, 111
8, 194858, Note_on_c, 9, 53, 0
8, 194858, Note_on_c, 9, 53, 0
8, 195000, Note_on_c, 9, 53, 115
8, 195120, Note_on_c, 9, 53, 111
8, 195217, Note_on_c, 9, 53, 0
8, 195217, Note_on_c, 9, 53, 0
8, 195360, Note_on_c, 9, 53, 122
8, 195577, Note_on_c, 9, 53, 0
8, 195600, Note_on_c, 9, 53, 119
8, 195817, Note_on_c, 9, 53, 0
8, 195960, Note_on_c, 9, 53, 119
8, 196080, Note_on_c, 9, 53, 119
8, 196172, Note_on_c, 9, 53, 0
8, 196172, Note_on_c, 9, 53, 0
8, 196320, Note_on_c, 9, 53, 122
8, 196535, Note_on_c, 9, 53, 0
8, 196560, Note_on_c, 9, 53, 107
8, 196680, Note_on_c, 9, 53, 111
8, 196777, Note_on_c, 9, 53, 0
8, 196777, Note_on_c, 9, 53, 0
8, 196920, Note_on_c, 9, 53, 115
8, 197040, Note_on_c, 9, 53, 111
8, 197137, Note_on_c, 9, 53, 0
8, 197137, Note_on_c, 9, 53, 0
8, 197280, Note_on_c, 9, 53, 122
8, 197496, Note_on_c, 9, 53, 0
8, 197520, Note_on_c, 9, 53, 119
8, 197738, Note_on_c, 9, 53, 0
8, 197760, Note_on_c, 9, 53, 122
8, 197976, Note_on_c, 9, 53, 0
8, 198000, Note_on_c, 9, 53, 95
8, 198120, Note_on_c, 9, 53, 107
8, 198215, Note_on_c, 9, 53, 0
8, 198215, Note_on_c, 9, 53, 0
8, 198360, Note_on_c, 9, 53, 100
8, 198576, Note_on_c, 9, 53, 0
8, 198600, Note_on_c, 9, 53, 100
8, 198819, Note_on_c, 9, 53, 0
8, 198840, Note_on_c, 9, 53, 107
8, 198960, Note_on_c, 9, 53, 111
8, 199057, Note_on_c, 9, 53, 0
8, 199057, Note_on_c, 9, 53, 0
8, 199200, Note_on_c, 9, 53, 122
8, 199415, Note_on_c, 9, 53, 0
8, 199440, Note_on_c, 9, 53, 111
8, 199560, Note_on_c, 9, 53, 122
8, 199654, Note_on_c, 9, 53, 0
8, 199654, Note_on_c, 9, 53, 0
8, 199800, Note_on_c, 9, 53, 119
8, 199920, Note_on_c, 9, 53, 119
8, 200012, Note_on_c, 9, 53, 0
8, 200012, Note_on_c, 9, 53, 0
8, 200160, Note_on_c, 9, 53, 122
8, 200375, Note_on_c, 9, 53, 0
8, 200400, Note_on_c, 9, 53, 107
8, 200520, Note_on_c, 9, 53, 111
8, 200617, Note_on_c, 9, 53, 0
8, 200617, Note_on_c, 9, 53, 0
8, 200760, Note_on_c, 9, 53, 115
8, 200880, Note_on_c, 9, 53, 111
8, 200977, Note_on_c, 9, 53, 0
8, 200977, Note_on_c, 9, 53, 0
8, 201120, Note_on_c, 9, 53, 122
8, 201336, Note_on_c, 9, 53, 0
8, 201360, Note_on_c, 9, 53, 119
8, 201578, Note_on_c, 9, 53, 0
8, 201600, Note_on_c, 9, 53, 122
8, 201816, Note_on_c, 9, 53, 0
8, 201840, Note_on_c, 9, 53, 95
8, 201960, Note_on_c, 9, 53, 107
8, 202055, Note_on_c, 9, 53, 0
8, 202055, Note_on_c, 9, 53, 0
8, 202200, Note_on_c, 9, 53, 100
8, 202416, Note_on_c, 9, 53, 0
8, 202440, Note_on_c, 9, 53, 100
8, 202659, Note_on_c, 9, 53, 0
8, 202680, Note_on_c, 9, 53, 107
8, 202800, Note_on_c, 9, 53, 111
8, 202897, Note_on_c, 9, 53, 0
8, 202897, Note_on_c, 9, 53, 0
8, 203040, Note_on_c, 9, 53, 122
8, 203255, Note_on_c, 9, 53, 0
8, 203280, Note_on_c, 9, 53, 111
8, 203400, Note_on_c, 9, 53, 122
8, 203494, Note_on_c, 9, 53, 0
8, 203494, Note_on_c, 9, 53, 0
8, 203520, Note_on_c, 9, 53, 122
8, 203738, Note_on_c, 9, 53, 0
8, 203760, Note_on_c, 9, 53, 95
8, 203880, Note_on_c, 9, 53, 107
8, 203976, Note_on_c, 9, 53, 0
8, 203976, Note_on_c, 9, 53, 0
8, 204120, Note_on_c, 9, 53, 100
8, 204337, Note_on_c, 9, 53, 0
8, 204360, Note_on_c, 9, 53, 100
8, 204579, Note_on_c, 9, 53, 0
8, 204600, Note_on_c, 9, 53, 107
8, 204720, Note_on_c, 9, 53, 111
8, 204817, Note_on_c, 9, 53, 0
8, 204817, Note_on_c, 9, 53, 0
8, 204960, Note_on_c, 9, 53, 122
8, 205178, Note_on_c, 9, 53, 0
8, 205200, Note_on_c, 9, 53, 111
8, 205320, Note_on_c, 9, 53, 122
8, 205414, Note_on_c, 9, 53, 0
8, 205414, Note_on_c, 9, 53, 0
8, 205560, Note_on_c, 9, 53, 119
8, 205680, Note_on_c, 9, 53, 119
8, 205772, Note_on_c, 9, 53, 0
8, 205772, Note_on_c, 9, 53, 0
8, 205920, Note_on_c, 9, 53, 122
8, 206135, Note_on_c, 9, 53, 0
8, 206160, Note_on_c, 9, 53, 107
8, 206280, Note_on_c, 9, 53, 111
8, 206377, Note_on_c, 9, 53, 0
8, 206377, Note_on_c, 9, 53, 0
8, 206520, Note_on_c, 9, 53, 115
8, 206640, Note_on_c, 9, 53, 111
8, 206737, Note_on_c, 9, 53, 0
8, 206737, Note_on_c, 9, 53, 0
8, 206880, Note_on_c, 9, 53, 122
8, 207096, Note_on_c, 9, 53, 0
8, 207120, Note_on_c, 9, 53, 119
8, 207338, Note_on_c, 9, 53, 0
8, 207360, Note_on_c, 9, 53, 122
8, 207576, Note_on_c, 9, 53, 0
8, 207600, Note_on_c, 9, 53, 95
8, 207720, Note_on_c, 9, 53, 107
8, 207815, Note_on_c, 9, 53, 0
8, 207815, Note_on_c, 9, 53, 0
8, 207960, Note_on_c, 9, 53, 100
8, 208176, Note_on_c, 9, 53, 0
8, 208200, Note_on_c, 9, 53, 100
8, 208419, Note_on_c, 9, 53, 0
8, 208440, Note_on_c, 9, 53, 107
8, 208560, Note_on_c, 9, 53, 111
8, 208657, Note_on_c, 9, 53, 0
8, 208657, Note_on_c, 9, 53, 0
8, 208800, Note_on_c, 9, 53, 122
8, 209015, Note_on_c, 9, 53, 0
8, 209040, Note_on_c, 9, 53, 111
8, 209160, Note_on_c, 9, 53, 122
8, 209254, Note_on_c, 9, 53, 0
8, 209254, Note_on_c, 9, 53, 0
8, 209400, Note_on_c, 9, 53, 119
8, 209520, Note_on_c, 9, 53, 119
8, 209611, Note_on_c, 9, 53, 0
8, 209611, Note_on_c, 9, 53, 0
8, 209760, Note_on_c, 9, 53, 122
8, 209972, Note_on_c, 9, 53, 0
8, 210000, Note_on_c, 9, 53, 107
8, 210120, Note_on_c, 9, 53, 111
8, 210218, Note_on_c, 9, 53, 0
8, 210218, Note_on_c, 9, 53, 0
8, 210360, Note_on_c, 9, 53, 115
8, 210480, Note_on_c, 9, 53, 111
8, 210577, Note_on_c, 9, 53, 0
8, 210577, Note_on_c, 9, 53, 0
8, 210720, Note_on_c, 9, 53, 122
8, 210937, Note_on_c, 9, 53, 0
8, 210960, Note_on_c, 9, 53, 119
8, 211177, Note_on_c, 9, 53, 0
8, 211320, Note_on_c, 9, 53, 119
8, 211440, Note_on_c, 9, 53, 119
8, 211532, Note_on_c, 9, 53, 0
8, 211532, Note_on_c, 9, 53, 0
8, 211680, Note_on_c, 9, 53, 122
8, 211895, Note_on_c, 9, 53, 0
8, 211920, Note_on_c, 9, 53, 107
8, 212040, Note_on_c, 9, 53, 111
8, 212137, Note_on_c, 9, 53, 0
8, 212137, Note_on_c, 9, 53, 0
8, 212280, Note_on_c, 9, 53, 115
8, 212400, Note_on_c, 9, 53, 111
8, 212497, Note_on_c, 9, 53, 0
8, 212497, Note_on_c, 9, 53, 0
8, 212640, Note_on_c, 9, 53, 122
8, 212856, Note_on_c, 9, 53, 0
8, 212880, Note_on_c, 9, 53, 119
8, 213098, Note_on_c, 9, 53, 0
8, 213120, Note_on_c, 9, 53, 122
8, 213336, Note_on_c, 9, 53, 0
8, 213360, Note_on_c, 9, 53, 95
8, 213480, Note_on_c, 9, 53, 107
8, 213575, Note_on_c, 9, 53, 0
8, 213575, Note_on_c, 9, 53, 0
8, 213720, Note_on_c, 9, 53, 100
8, 213936, Note_on_c, 9, 53, 0
8, 213960, Note_on_c, 9, 53, 100
8, 214179, Note_on_c, 9, 53, 0
8, 214200, Note_on_c, 9, 53, 107
8, 214320, Note_on_c, 9, 53, 111
8, 214417, Note_on_c, 9, 53, 0
8, 214417, Note_on_c, 9, 53, 0
8, 214560, Note_on_c, 9, 53, 122
8, 214775, Note_on_c, 9, 53, 0
8, 214800, Note_on_c, 9, 53, 111
8, 214920, Note_on_c, 9, 53, 122
8, 215014, Note_on_c, 9, 53, 0
8, 215014, Note_on_c, 9, 53, 0
8, 215160, Note_on_c, 9, 53, 119
8, 215280, Note_on_c, 9, 53, 119
8, 215372, Note_on_c, 9, 53, 0
8, 215372, Note_on_c, 9, 53, 0
8, 215520, Note_on_c, 9, 53, 122
8, 215735, Note_on_c, 9, 53, 0
8, 215760, Note_on_c, 9, 53, 107
8, 215880, Note_on_c, 9, 53, 111
8, 215977, Note_on_c, 9, 53, 0
8, 215977, Note_on_c, 9, 53, 0
8, 216120, Note_on_c, 9, 53, 115
8, 216240, Note_on_c, 9, 53, 111
8, 216337, Note_on_c, 9, 53, 0
8, 216337, Note_on_c, 9, 53, 0
8, 216480, Note_on_c, 9, 53, 122
8, 216696, Note_on_c, 9, 53, 0
8, 216720, Note_on_c, 9, 53, 119
8, 216938, Note_on_c, 9, 53, 0
8, 216960, Note_on_c, 9, 53, 122
8, 217176, Note_on_c, 9, 53, 0
8, 217200, Note_on_c, 9, 53, 95
8, 217320, Note_on_c, 9, 53, 107
8, 217415, Note_on_c, 9, 53, 0
8, 217415, Note_on_c, 9, 53, 0
8, 217560, Note_on_c, 9, 53, 100
8, 217776, Note_on_c, 9, 53, 0
8, 217800, Note_on_c, 9, 53, 100
8, 218019, Note_on_c, 9, 53, 0
8, 218040, Note_on_c, 9, 53, 107
8, 218160, Note_on_c, 9, 53, 111
8, 218257, Note_on_c, 9, 53, 0
8, 218257, Note_on_c, 9, 53, 0
8, 218400, Note_on_c, 9, 53, 122
8, 218615, Note_on_c, 9, 53, 0
8, 218640, Note_on_c, 9, 53, 111
8, 218760, Note_on_c, 9, 53, 122
8, 218854, Note_on_c, 9, 53, 0
8, 218854, Note_on_c, 9, 53, 0
8, 218880, Note_on_c, 9, 53, 122
8, 219098, Note_on_c, 9, 53, 0
8, 219120, Note_on_c, 9, 53, 95
8, 219240, Note_on_c, 9, 53, 107
8, 219336, Note_on_c, 9, 53, 0
8, 219336, Note_on_c, 9, 53, 0
8, 219480, Note_on_c, 9, 53, 100
8, 219697, Note_on_c, 9, 53, 0
8, 219720, Note_on_c, 9, 53, 100
8, 219939, Note_on_c, 9, 53, 0
8, 219960, Note_on_c, 9, 53, 107
8, 220080, Note_on_c, 9, 53, 111
8, 220177, Note_on_c, 9, 53, 0
8, 220177, Note_on_c, 9, 53, 0
8, 220320, Note_on_c, 9, 53, 122
8, 220538, Note_on_c, 9, 53, 0
8, 220560, Note_on_c, 9, 53, 111
8, 220680, Note_on_c, 9, 53, 122
8, 220774, Note_on_c, 9, 53, 0
8, 220774, Note_on_c, 9, 53, 0
8, 220920, Note_on_c, 9, 53, 119
8, 221040, Note_on_c, 9, 53, 119
8, 221132, Note_on_c, 9, 53, 0
8, 221132, Note_on_c, 9, 53, 0
8, 221280, Note_on_c, 9, 53, 122
8, 221495, Note_on_c, 9, 53, 0
8, 221520, Note_on_c, 9, 53, 107
8, 221640, Note_on_c, 9, 53, 111
8, 221737, Note_on_c, 9, 53, 0
8, 221737, Note_on_c, 9, 53, 0
8, 221880, Note_on_c, 9, 53, 115
8, 222000, Note_on_c, 9, 53, 111
8, 222097, Note_on_c, 9, 53, 0
8, 222097, Note_on_c, 9, 53, 0
8, 222240, Note_on_c, 9, 53, 122
8, 222456, Note_on_c, 9, 53, 0
8, 222480, Note_on_c, 9, 53, 119
8, 222698, Note_on_c, 9, 53, 0
8, 222720, Note_on_c, 9, 53, 122
8, 222936, Note_on_c, 9, 53, 0
8, 222960, Note_on_c, 9, 53, 95
8, 223080, Note_on_c, 9, 53, 107
8, 223175, Note_on_c, 9, 53, 0
8, 223175, Note_on_c, 9, 53, 0
8, 223320, Note_on_c, 9, 53, 100
8, 223536, Note_on_c, 9, 53, 0
8, 223560, Note_on_c, 9, 53, 100
8, 223779, Note_on_c, 9, 53, 0
8, 223800, Note_on_c, 9, 53, 107
8, 223920, Note_on_c, 9, 53, 111
8, 224017, Note_on_c, 9, 53, 0
8, 224017, Note_on_c, 9, 53, 0
8, 224160, Note_on_c, 9, 53, 122
8, 224375, Note_on_c, 9, 53, 0
8, 224400, Note_on_c, 9, 53, 111
8, 224520, Note_on_c, 9, 53, 122
8, 224614, Note_on_c, 9, 53, 0
8, 224614, Note_on_c, 9, 53, 0
8, 224760, Note_on_c, 9, 53, 119
8, 224880, Note_on_c, 9, 53, 119
8, 224971, Note_on_c, 9, 53, 0
8, 224971, Note_on_c, 9, 53, 0
8, 225120, Note_on_c, 9, 53, 122
8, 225332, Note_on_c, 9, 53, 0
8, 225360, Note_on_c, 9, 53, 107
8, 225480, Note_on_c, 9, 53, 111
8, 225578, Note_on_c, 9, 53, 0
8, 225578, Note_on_c, 9, 53, 0
8, 225720, Note_on_c, 9, 53, 115
8, 225840, Note_on_c, 9, 53, 111
8, 225937, Note_on_c, 9, 53, 0
8, 225937, Note_on_c, 9, 53, 0
8, 226080, Note_on_c, 9, 53, 122
8, 226297, Note_on_c, 9, 53, 0
8, 226320, Note_on_c, 9, 53, 119
8, 226537, Note_on_c, 9, 53, 0
8, 226680, Note_on_c, 9, 53, 119
8, 226800, Note_on_c, 9, 53, 119
8, 226892, Note_on_c, 9, 53, 0
8, 226892, Note_on_c, 9, 53, 0
8, 227040, Note_on_c, 9, 53, 122
8, 227255, Note_on_c, 9, 53, 0
8, 227280, Note_on_c, 9, 53, 107
8, 227400, Note_on_c, 9, 53, 111
8, 227497, Note_on_c, 9, 53, 0
8, 227497, Note_on_c, 9, 53, 0
8, 227640, Note_on_c, 9, 53, 115
8, 227760, Note_on_c, 9, 53, 111
8, 227857, Note_on_c, 9, 53, 0
8, 227857, Note_on_c, 9, 53, 0
8, 228000, Note_on_c, 9, 53, 122
8, 228216, Note_on_c, 9, 53, 0
8, 228240, Note_on_c, 9, 53, 119
8, 228458, Note_on_c, 9, 53, 0
8, 228480, Note_on_c, 9, 53, 122
8, 228696, Note_on_c, 9, 53, 0
8, 228720, Note_on_c, 9, 53, 95
8, 228840, Note_on_c, 9, 53, 107
8, 228935, Note_on_c, 9, 53, 0
8, 228935, Note_on_c, 9, 53, 0
8, 229080, Note_on_c, 9, 53, 100
8, 229296, Note_on_c, 9, 53, 0
8, 229320, Note_on_c, 9, 53, 100
8, 229539, Note_on_c, 9, 53, 0
8, 229560, Note_on_c, 9, 53, 107
8, 229680, Note_on_c, 9, 53, 111
8, 229777, Note_on_c, 9, 53, 0
8, 229777, Note_on_c, 9, 53, 0
8, 229920, Note_on_c, 9, 53, 122
8, 230135, Note_on_c, 9, 53, 0
8, 230160, Note_on_c, 9, 53, 111
8, 230280, Note_on_c, 9, 53, 122
8, 230374, Note_on_c, 9, 53, 0
8, 230374, Note_on_c, 9, 53, 0
8, 230520, Note_on_c, 9, 53, 119
8, 230640, Note_on_c, 9, 53, 119
8, 230732, Note_on_c, 9, 53, 0
8, 230732, Note_on_c, 9, 53, 0
8, 230880, Note_on_c, 9, 53, 122
8, 231095, Note_on_c, 9, 53, 0
8, 231120, Note_on_c, 9, 53, 107
8, 231240, Note_on_c, 9, 53, 111
8, 231337, Note_on_c, 9, 53, 0
8, 231337, Note_on_c, 9, 53, 0
8, 231480, Note_on_c, 9, 53, 115
8, 231600, Note_on_c, 9, 53, 111
8, 231697, Note_on_c, 9, 53, 0
8, 231697, Note_on_c, 9, 53, 0
8, 231840, Note_on_c, 9, 53, 122
8, 232056, Note_on_c, 9, 53, 0
8, 232080, Note_on_c, 9, 53, 119
8, 232298, Note_on_c, 9, 53, 0
8, 232320, Note_on_c, 9, 53, 122
8, 232536, Note_on_c, 9, 53, 0
8, 232560, Note_on_c, 9, 53, 95
8, 232680, Note_on_c, 9, 53, 107
8, 232775, Note_on_c, 9, 53, 0
8, 232775, Note_on_c, 9, 53, 0
8, 232920, Note_on_c, 9, 53, 100
8, 233136, Note_on_c, 9, 53, 0
8, 233160, Note_on_c, 9, 53, 100
8, 233379, Note_on_c, 9, 53, 0
8, 233400, Note_on_c, 9, 53, 107
8, 233520, Note_on_c, 9, 53, 111
8, 233617, Note_on_c, 9, 53, 0
8, 233617, Note_on_c, 9, 53, 0
8, 233760, Note_on_c, 9, 53, 122
8, 233975, Note_on_c, 9, 53, 0
8, 234000, Note_on_c, 9, 53, 111
8, 234120, Note_on_c, 9, 53, 122
8, 234214, Note_on_c, 9, 53, 0
8, 234214, Note_on_c, 9, 53, 0
8, 234240, Note_on_c, 9, 53, 122
8, 234458, Note_on_c, 9, 53, 0
8, 234480, Note_on_c, 9, 53, 95
8, 234600, Note_on_c, 9, 53, 107
8, 234696, Note_on_c, 9, 53, 0
8, 234696, Note_on_c, 9, 53, 0
8, 234840, Note_on_c, 9, 53, 100
8, 235057, Note_on_c, 9, 53, 0
8, 235080, Note_on_c, 9, 53, 100
8, 235299, Note_on_c, 9, 53, 0
8, 235320, Note_on_c, 9, 53, 107
8, 235440, Note_on_c, 9, 53, 111
8, 235537, Note_on_c, 9, 53, 0
8, 235537, Note_on_c, 9, 53, 0
8, 235680, Note_on_c, 9, 53, 122
8, 235898, Note_on_c, 9, 53, 0
8, 235920, Note_on_c, 9, 53, 111
8, 236040, Note_on_c, 9, 53, 122
8, 236134, Note_on_c, 9, 53, 0
8, 236134, Note_on_c, 9, 53, 0
8, 236280, Note_on_c, 9, 53, 119
8, 236400, Note_on_c, 9, 53, 119
8, 236492, Note_on_c, 9, 53, 0
8, 236492, Note_on_c, 9, 53, 0
8, 236640, Note_on_c, 9, 53, 122
8, 236855, Note_on_c, 9, 53, 0
8, 236880, Note_on_c, 9, 53, 107
8, 237000, Note_on_c, 9, 53, 111
8, 237097, Note_on_c, 9, 53, 0
8, 237097, Note_on_c, 9, 53, 0
8, 237240, Note_on_c, 9, 53, 115
8, 237360, Note_on_c, 9, 53, 111
8, 237457, Note_on_c, 9, 53, 0
8, 237457, Note_on_c, 9, 53, 0
8, 237600, Note_on_c, 9, 53, 122
8, 237816, Note_on_c, 9, 53, 0
8, 237840, Note_on_c, 9, 53, 119
8, 238058, Note_on_c, 9, 53, 0
8, 238080, Note_on_c, 9, 53, 122
8, 238296, Note_on_c, 9, 53, 0
8, 238320, Note_on_c, 9, 53, 95
8, 238440, Note_on_c, 9, 53, 107
8, 238535, Note_on_c, 9, 53, 0
8, 238535, Note_on_c, 9, 53, 0
8, 238680, Note_on_c, 9, 53, 100
8, 238896, Note_on_c, 9, 53, 0
8, 238920, Note_on_c, 9, 53, 100
8, 239139, Note_on_c, 9, 53, 0
8, 239160, Note_on_c, 9, 53, 107
8, 239280, Note_on_c, 9, 53, 111
8, 239377, Note_on_c, 9, 53, 0
8, 239377, Note_on_c, 9, 53, 0
8, 239520, Note_on_c, 9, 53, 122
8, 239735, Note_on_c, 9, 53, 0
8, 239760, Note_on_c, 9, 53, 111
8, 239880, Note_on_c, 9, 53, 122
8, 239974, Note_on_c, 9, 53, 0
8, 239974, Note_on_c, 9, 53, 0
8, 240120, Note_on_c, 9, 53, 119
8, 240240, Note_on_c, 9, 53, 119
8, 240331, Note_on_c, 9, 53, 0
8, 240331, Note_on_c, 9, 53, 0
8, 240480, Note_on_c, 9, 53, 122
8, 240692, Note_on_c, 9, 53, 0
8, 240720, Note_on_c, 9, 53, 107
8, 240840, Note_on_c, 9, 53, 111
8, 240938, Note_on_c, 9, 53, 0
8, 240938, Note_on_c, 9, 53, 0
8, 241080, Note_on_c, 9, 53, 115
8, 241200, Note_on_c, 9, 53, 111
8, 241297, Note_on_c, 9, 53, 0
8, 241297, Note_on_c, 9, 53, 0
8, 241440, Note_on_c, 9, 53, 122
8, 241657, Note_on_c, 9, 53, 0
8, 241680, Note_on_c, 9, 53, 119
8, 241897, Note_on_c, 9, 53, 0
8, 242040, Note_on_c, 9, 53, 119
8, 242160, Note_on_c, 9, 53, 119
8, 242252, Note_on_c, 9, 53, 0
8, 242252, Note_on_c, 9, 53, 0
8, 242400, Note_on_c, 9, 53, 122
8, 242615, Note_on_c, 9, 53, 0
8, 242640, Note_on_c, 9, 53, 107
8, 242760, Note_on_c, 9, 53, 111
8, 242857, Note_on_c, 9, 53, 0
8, 242857, Note_on_c, 9, 53, 0
8, 243000, Note_on_c, 9, 53, 115
8, 243120, Note_on_c, 9, 53, 111
8, 243217, Note_on_c, 9, 53, 0
8, 243217, Note_on_c, 9, 53, 0
8, 243360, Note_on_c, 9, 53, 122
8, 243576, Note_on_c, 9, 53, 0
8, 243600, Note_on_c, 9, 53, 119
8, 243818, Note_on_c, 9, 53, 0
8, 243840, Note_on_c, 9, 53, 122
8, 244056, Note_on_c, 9, 53, 0
8, 244080, Note_on_c, 9, 53, 95
8, 244200, Note_on_c, 9, 53, 107
8, 244295, Note_on_c, 9, 53, 0
8, 244295, Note_on_c, 9, 53, 0
8, 244440, Note_on_c, 9, 53, 100
8, 244656, Note_on_c, 9, 53, 0
8, 244680, Note_on_c, 9, 53, 100
8, 244899, Note_on_c, 9, 53, 0
8, 244920, Note_on_c, 9, 53, 107
8, 245040, Note_on_c, 9, 53, 111
8, 245137, Note_on_c, 9, 53, 0
8, 245137, Note_on_c, 9, 53, 0
8, 245280, Note_on_c, 9, 53, 122
8, 245495, Note_on_c, 9, 53, 0
8, 245520, Note_on_c, 9, 53, 111
8, 245640, Note_on_c, 9, 53, 122
8, 245734, Note_on_c, 9, 53, 0
8, 245734, Note_on_c, 9, 53, 0
8, 245880, Note_on_c, 9, 53, 119
8, 246000, Note_on_c, 9, 53, 119
8, 246092, Note_on_c, 9, 53, 0
8, 246092, Note_on_c, 9, 53, 0
8, 246240, Note_on_c, 9, 53, 122
8, 246455, Note_on_c, 9, 53, 0
8, 246480, Note_on_c, 9, 53, 107
8, 246600, Note_on_c, 9, 53, 111
8, 246697, Note_on_c, 9, 53, 0
8, 246697, Note_on_c, 9, 53, 0
8, 246840, Note_on_c, 9, 53, 115
8, 246960, Note_on_c, 9, 53, 111
8, 247057, Note_on_c, 9, 53, 0
8, 247057, Note_on_c, 9, 53, 0
8, 247200, Note_on_c, 9, 53, 122
8, 247416, Note_on_c, 9, 53, 0
8, 247440, Note_on_c, 9, 53, 119
8, 247658, Note_on_c, 9, 53, 0
8, 247680, Note_on_c, 9, 53, 122
8, 247896, Note_on_c, 9, 53, 0
8, 247920, Note_on_c, 9, 53, 95
8, 248040, Note_on_c, 9, 53, 107
8, 248135, Note_on_c, 9, 53, 0
8, 248135, Note_on_c, 9, 53, 0
8, 248280, Note_on_c, 9, 53, 100
8, 248496, Note_on_c, 9, 53, 0
8, 248520, Note_on_c, 9, 53, 100
8, 248739, Note_on_c, 9, 53, 0
8, 248760, Note_on_c, 9, 53, 107
8, 248880, Note_on_c, 9, 53, 111
8, 248977, Note_on_c, 9, 53, 0
8, 248977, Note_on_c, 9, 53, 0
8, 249120, Note_on_c, 9, 53, 122
8, 249335, Note_on_c, 9, 53, 0
8, 249360, Note_on_c, 9, 53, 111
8, 249480, Note_on_c, 9, 53, 122
8, 249574, Note_on_c, 9, 53, 0
8, 249574, Note_on_c, 9, 53, 0
8, 249600, Note_on_c, 9, 53, 122
8, 249818, Note_on_c, 9, 53, 0
8, 249840, Note_on_c, 9, 53, 95
8, 249960, Note_on_c, 9, 53, 107
8, 250056, Note_on_c, 9, 53, 0
8, 250056, Note_on_c, 9, 53, 0
8, 250200, Note_on_c, 9, 53, 100
8, 250417, Note_on_c, 9, 53, 0
8, 250440, Note_on_c, 9, 53, 100
8, 250659, Note_on_c, 9, 53, 0
8, 250680, Note_on_c, 9, 53, 107
8, 250800, Note_on_c, 9, 53, 111
8, 250897, Note_on_c, 9, 53, 0
8, 250897, Note_on_c, 9, 53, 0
8, 251040, Note_on_c, 9, 53, 122
8, 251258, Note_on_c, 9, 53, 0
8, 251280, Note_on_c, 9, 53, 111
8, 251400, Note_on_c, 9, 53, 122
8, 251494, Note_on_c, 9, 53, 0
8, 251494, Note_on_c, 9, 53, 0
8, 251640, Note_on_c, 9, 53, 119
8, 251760, Note_on_c, 9, 53, 119
8, 251852, Note_on_c, 9, 53, 0
8, 251852, Note_on_c, 9, 53, 0
8, 252000, Note_on_c, 9, 53, 122
8, 252215, Note_on_c, 9, 53, 0
8, 252240, Note_on_c, 9, 53, 107
8, 252360, Note_on_c, 9, 53, 111
8, 252457, Note_on_c, 9, 53, 0
8, 252457, Note_on_c, 9, 53, 0
8, 252600, Note_on_c, 9, 53, 115
8, 252720, Note_on_c, 9, 53, 111
8, 252817, Note_on_c, 9, 53, 0
8, 252817, Note_on_c, 9, 53, 0
8, 252960, Note_on_c, 9, 53, 122
8, 253176, Note_on_c, 9, 53, 0
8, 253200, Note_on_c, 9, 53, 119
8, 253418, Note_on_c, 9, 53, 0
8, 253440, Note_on_c, 9, 53, 122
8, 253656, Note_on_c, 9, 53, 0
8, 253680, Note_on_c, 9, 53, 95
8, 253800, Note_on_c, 9, 53, 107
8, 253895, Note_on_c, 9, 53, 0
8, 253895, Note_on_c, 9, 53, 0
8, 254040, Note_on_c, 9, 53, 100
8, 254256, Note_on_c, 9, 53, 0
8, 254280, Note_on_c, 9, 53, 100
8, 254499, Note_on_c, 9, 53, 0
8, 254520, Note_on_c, 9, 53, 107
8, 254640, Note_on_c, 9, 53, 111
8, 254737, Note_on_c, 9, 53, 0
8, 254737, Note_on_c, 9, 53, 0
8, 254880, Note_on_c, 9, 53, 122
8, 255095, Note_on_c, 9, 53, 0
8, 255120, Note_on_c, 9, 53, 111
8, 255240, Note_on_c, 9, 53, 122
8, 255334, Note_on_c, 9, 53, 0
8, 255334, Note_on_c, 9, 53, 0
8, 255480, Note_on_c, 9, 53, 119
8, 255600, Note_on_c, 9, 53, 119
8, 255691, Note_on_c, 9, 53, 0
8, 255691, Note_on_c, 9, 53, 0
8, 255840, Note_on_c, 9, 53, 122
8, 256052, Note_on_c, 9, 53, 0
8, 256080, Note_on_c, 9, 53, 107
8, 256200, Note_on_c, 9, 53, 111
8, 256298, Note_on_c, 9, 53, 0
8, 256298, Note_on_c, 9, 53, 0
8, 256440, Note_on_c, 9, 53, 115
8, 256560, Note_on_c, 9, 53, 111
8, 256657, Note_on_c, 9, 53, 0
8, 256657, Note_on_c, 9, 53, 0
8, 256800, Note_on_c, 9, 53, 122
8, 257017, Note_on_c, 9, 53, 0
8, 257040, Note_on_c, 9, 53, 119
8, 257257, Note_on_c, 9, 53, 0
8, 257400, Note_on_c, 9, 53, 119
8, 257520, Note_on_c, 9, 53, 119
8, 257612, Note_on_c, 9, 53, 0
8, 257612, Note_on_c, 9, 53, 0
8, 257760, Note_on_c, 9, 53, 122
8, 257975, Note_on_c, 9, 53, 0
8, 258000, Note_on_c, 9, 53, 107
8, 258120, Note_on_c, 9, 53, 111
8, 258217, Note_on_c, 9, 53, 0
8, 258217, Note_on_c, 9, 53, 0
8, 258360, Note_on_c, 9, 53, 115
8, 258480, Note_on_c, 9, 53, 111
8, 258577, Note_on_c, 9, 53, 0
8, 258577, Note_on_c, 9, 53, 0
8, 258720, Note_on_c, 9, 53, 122
8, 258936, Note_on_c, 9, 53, 0
8, 258960, Note_on_c, 9, 53, 119
8, 259178, Note_on_c, 9, 53, 0
8, 259200, Note_on_c, 9, 53, 122
8, 259416, Note_on_c, 9, 53, 0
8, 259440, Note_on_c, 9, 53, 95
8, 259560, Note_on_c, 9, 53, 107
8, 259655, Note_on_c, 9, 53, 0
8, 259655, Note_on_c, 9, 53, 0
8, 259800, Note_on_c, 9, 53, 100
8, 260016, Note_on_c, 9, 53, 0
8, 260040, Note_on_c, 9, 53, 100
8, 260259, Note_on_c, 9, 53, 0
8, 260280, Note_on_c, 9, 53, 107
8, 260400, Note_on_c, 9, 53, 111
8, 260497, Note_on_c, 9, 53, 0
8, 260497, Note_on_c, 9, 53, 0
8, 260640, Note_on_c, 9, 53, 122
8, 260855, Note_on_c, 9, 53, 0
8, 260880, Note_on_c, 9, 53, 111
8, 261000, Note_on_c, 9, 53, 122
8, 261094, Note_on_c, 9, 53, 0
8, 261094, Note_on_c, 9, 53, 0
8, 261240, Note_on_c, 9, 53, 119
8, 261360, Note_on_c, 9, 53, 119
8, 261452, Note_on_c, 9, 53, 0
8, 261452, Note_on_c, 9, 53, 0
8, 261600, Note_on_c, 9, 53, 122
8, 261815, Note_on_c, 9, 53, 0
8, 261840, Note_on_c, 9, 53, 107
8, 261960, Note_on_c, 9, 53, 111
8, 262057, Note_on_c, 9, 53, 0
8, 262057, Note_on_c, 9, 53, 0
8, 262200, Note_on_c, 9, 53, 115
8, 262320, Note_on_c, 9, 53, 111
8, 262417, Note_on_c, 9, 53, 0
8, 262417, Note_on_c, 9, 53, 0
8, 262560, Note_on_c, 9, 53, 122
8, 262776, Note_on_c, 9, 53, 0
8, 262800, Note_on_c, 9, 53, 119
8, 263018, Note_on_c, 9, 53, 0
8, 263040, Note_on_c, 9, 53, 122
8, 263256, Note_on_c, 9, 53, 0
8, 263280, Note_on_c, 9, 53, 95
8, 263400, Note_on_c, 9, 53, 107
8, 263495, Note_on_c, 9, 53, 0
8, 263495, Note_on_c, 9, 53, 0
8, 263640, Note_on_c, 9, 53, 100
8, 263856, Note_on_c, 9, 53, 0
8, 263880, Note_on_c, 9, 53, 100
8, 264099, Note_on_c, 9, 53, 0
8, 264120, Note_on_c, 9, 53, 107
8, 264240, Note_on_c, 9, 53, 111
8, 264337, Note_on_c, 9, 53, 0
8, 264337, Note_on_c, 9, 53, 0
8, 264480, Note_on_c, 9, 53, 122
8, 264695, Note_on_c, 9, 53, 0
8, 264720, Note_on_c, 9, 53, 111
8, 264840, Note_on_c, 9, 53, 122
8, 264934, Note_on_c, 9, 53, 0
8, 264934, Note_on_c, 9, 53, 0
8, 264960, Note_on_c, 9, 53, 122
8, 265178, Note_on_c, 9, 53, 0
8, 265200, Note_on_c, 9, 53, 95
8, 265320, Note_on_c, 9, 53, 107
8, 265416, Note_on_c, 9, 53, 0
8, 265416, Note_on_c, 9, 53, 0
8, 265560, Note_on_c, 9, 53, 100
8, 265777, Note_on_c, 9, 53, 0
8, 265800, Note_on_c, 9, 53, 100
8, 266019, Note_on_c, 9, 53, 0
8, 266040, Note_on_c, 9, 53, 107
8, 266160, Note_on_c, 9, 53, 111
8, 266257, Note_on_c, 9, 53, 0
8, 266257, Note_on_c, 9, 53, 0
8, 266400, Note_on_c, 9, 53, 122
8, 266618, Note_on_c, 9, 53, 0
8, 266640, Note_on_c, 9, 53, 111
8, 266760, Note_on_c, 9, 53, 122
8, 266854, Note_on_c, 9, 53, 0
8, 266854, Note_on_c, 9, 53, 0
8, 267000, Note_on_c, 9, 53, 119
8, 267120, Note_on_c, 9, 53, 119
8, 267212, Note_on_c, 9, 53, 0
8, 267212, Note_on_c, 9, 53, 0
8, 267360, Note_on_c, 9, 53, 122
8, 267575, Note_on_c, 9, 53, 0
8, 267600, Note_on_c, 9, 53, 107
8, 267720, Note_on_c, 9, 53, 111
8, 267817, Note_on_c, 9, 53, 0
8, 267817, Note_on_c, 9, 53, 0
8, 267960, Note_on_c, 9, 53, 115
8, 268080, Note_on_c, 9, 53, 111
8, 268177, Note_on_c, 9, 53, 0
8, 268177, Note_on_c, 9, 53, 0
8, 268320, Note_on_c, 9, 53, 122
8, 268536, Note_on_c, 9, 53, 0
8, 268560, Note_on_c, 9, 53, 119
8, 268778, Note_on_c, 9, 53, 0
8, 268800, Note_on_c, 9, 53, 122
8, 269016, Note_on_c, 9, 53, 0
8, 269040, Note_on_c, 9, 53, 95
8, 269160, Note_on_c, 9, 53, 107
8, 269255, Note_on_c, 9, 53, 0
8, 269255, Note_on_c, 9, 53, 0
8, 269400, Note_on_c, 9, 53, 100
8, 269616, Note_on_c, 9, 53, 0
8, 269640, Note_on_c, 9, 53, 100
8, 269859, Note_on_c, 9, 53, 0
8, 269880, Note_on_c, 9, 53, 107
8, 270000, Note_on_c, 9, 53, 111
8, 270097, Note_on_c, 9, 53, 0
8, 270097, Note_on_c, 9, 53, 0
8, 270240, Note_on_c, 9, 53, 122
8, 270455, Note_on_c, 9, 53, 0
8, 270480, Note_on_c, 9, 53, 111
8, 270600, Note_on_c, 9, 53, 122
8, 270694, Note_on_c, 9, 53, 0
8, 270694, Note_on_c, 9, 53, 0
8, 270840, Note_on_c, 9, 53, 119
8, 270960, Note_on_c, 9, 53, 119
8, 271051, Note_on_c, 9, 53, 0
8, 271051, Note_on_c, 9, 53, 0
8, 271200, Note_on_c, 9, 53, 122
8, 271412, Note_on_c, 9, 53, 0
8, 271440, Note_on_c, 9, 53, 107
8, 271560, Note_on_c, 9, 53, 111
8, 271658, Note_on_c, 9, 53, 0
8, 271658, Note_on_c, 9, 53, 0
8, 271800, Note_on_c, 9, 53, 115
8, 271920, Note_on_c, 9, 53, 111
8, 272017, Note_on_c, 9, 53, 0
8, 272017, Note_on_c, 9, 53, 0
8, 272160, Note_on_c, 9, 53, 122
8, 272377, Note_on_c, 9, 53, 0
8, 272400, Note_on_c, 9, 53, 119
8, 272617, Note_on_c, 9, 53, 0
8, 272760, Note_on_c, 9, 53, 119
8, 272880, Note_on_c, 9, 53, 119
8, 272972, Note_on_c, 9, 53, 0
8, 272972, Note_on_c, 9, 53, 0
8, 273120, Note_on_c, 9, 53, 122
8, 273335, Note_on_c, 9, 53, 0
8, 273360, Note_on_c, 9, 53, 107
8, 273480, Note_on_c, 9, 53, 111
8, 273577, Note_on_c, 9, 53, 0
8, 273577, Note_on_c, 9, 53, 0
8, 273720, Note_on_c, 9, 53, 115
8, 273840, Note_on_c, 9, 53, 111
8, 273937, Note_on_c, 9, 53, 0
8, 273937, Note_on_c, 9, 53, 0
8, 274080, Note_on_c, 9, 53, 122
8, 274296, Note_on_c, 9, 53, 0
8, 274320, Note_on_c, 9, 53, 119
8, 274538, Note_on_c, 9, 53, 0
8, 274560, Note_on_c, 9, 53, 122
8, 274776, Note_on_c, 9, 53, 0
8, 274800, Note_on_c, 9, 53, 95
8, 274920, Note_on_c, 9, 53, 107
8, 275015, Note_on_c, 9, 53, 0
8, 275015, Note_on_c, 9, 53, 0
8, 275160, Note_on_c, 9, 53, 100
8, 275376, Note_on_c, 9, 53, 0
8, 275400, Note_on_c, 9, 53, 100
8, 275619, Note_on_c, 9, 53, 0
8, 275640, Note_on_c, 9, 53, 107
8, 275760, Note_on_c, 9, 53, 111
8, 275857, Note_on_c, 9, 53, 0
8, 275857, Note_on_c, 9, 53, 0
8, 276000, Note_on_c, 9, 53, 122
8, 276215, Note_on_c, 9, 53, 0
8, 276240, Note_on_c, 9, 53, 111
8, 276360, Note_on_c, 9, 53, 122
8, 276454, Note_on_c, 9, 53, 0
8, 276454, Note_on_c, 9, 53, 0
8, 276600, Note_on_c, 9, 53, 119
8, 276720, Note_on_c, 9, 53, 119
8, 276812, Note_on_c, 9, 53, 0
8, 276812, Note_on_c, 9, 53, 0
8, 276960, Note_on_c, 9, 53, 122
8, 277175, Note_on_c, 9, 53, 0
8, 277200, Note_on_c, 9, 53, 107
8, 277320, Note_on_c, 9, 53, 111
8, 277417, Note_on_c, 9, 53, 0
8, 277417, Note_on_c, 9, 53, 0
8, 277560, Note_on_c, 9, 53, 115
8, 277680, Note_on_c, 9, 53, 111
8, 277777, Note_on_c, 9, 53, 0
8, 277777, Note_on_c, 9, 53, 0
8, 277920, Note_on_c, 9, 53, 122
8, 278136, Note_on_c, 9, 53, 0
8, 278160, Note_on_c, 9, 53, 119
8, 278378, Note_on_c, 9, 53, 0
8, 278400, Note_on_c, 9, 53, 122
8, 278616, Note_on_c, 9, 53, 0
8, 278640, Note_on_c, 9, 53, 95
8, 278760, Note_on_c, 9, 53, 107
8, 278855, Note_on_c, 9, 53, 0
8, 278855, Note_on_c, 9, 53, 0
8, 279000, Note_on_c, 9, 53, 100
8, 279216, Note_on_c, 9, 53, 0
8, 279240, Note_on_c, 9, 53, 100
8, 279459, Note_on_c, 9, 53, 0
8, 279480, Note_on_c, 9, 53, 107
8, 279600, Note_on_c, 9, 53, 111
8, 279697, Note_on_c, 9, 53, 0
8, 279697, Note_on_c, 9, 53, 0
8, 279840, Note_on_c, 9, 53, 122
8, 280055, Note_on_c, 9, 53, 0
8, 280080, Note_on_c, 9, 53, 111
8, 280200, Note_on_c, 9, 53, 122
8, 280294, Note_on_c, 9, 53, 0
8, 280294, Note_on_c, 9, 53, 0
8, 284160, End_track
9, 0, Start_track
9, 0, Text_t, "snare"
9, 3840, Note_on_c, 9, 40, 126
9, 3913, Note_on_c, 9, 40, 0
9, 4080, Note_on_c, 9, 40, 94
9, 4193, Note_on_c, 9, 40, 0
9, 4440, Note_on_c, 9, 40, 94
9, 4547, Note_on_c, 9, 40, 0
9, 4680, Note_on_c, 9, 40, 80
9, 4807, Note_on_c, 9, 40, 0
9, 4920, Note_on_c, 9, 40, 94
9, 5064, Note_on_c, 9, 40, 0
9, 5280, Note_on_c, 9, 40, 52
9, 5360, Note_on_c, 9, 40, 0
9, 5520, Note_on_c, 9, 40, 95
9, 5628, Note_on_c, 9, 40, 0
9, 5760, Note_on_c, 9, 40, 64
9, 5864, Note_on_c, 9, 40, 0
9, 6000, Note_on_c, 9, 40, 95
9, 6127, Note_on_c, 9, 40, 0
9, 6360, Note_on_c, 9, 40, 88
9, 6471, Note_on_c, 9, 40, 0
9, 6600, Note_on_c, 9, 40, 88
9, 6711, Note_on_c, 9, 40, 0
9, 6840, Note_on_c, 9, 40, 95
9, 6982, Note_on_c, 9, 40, 0
9, 7200, Note_on_c, 9, 40, 95
9, 7288, Note_on_c, 9, 40, 0
9, 7440, Note_on_c, 9, 40, 96
9, 7549, Note_on_c, 9, 40, 0
9, 7680, Note_on_c, 9, 40, 69
9, 7764, Note_on_c, 9, 40, 0
9, 7920, Note_on_c, 9, 40, 96
9, 8058, Note_on_c, 9, 40, 0
9, 8280, Note_on_c, 9, 40, 80
9, 8405, Note_on_c, 9, 40, 0
9, 8520, Note_on_c, 9, 40, 60
9, 8618, Note_on_c, 9, 40, 0
9, 8760, Note_on_c, 9, 40, 97
9, 8887, Note_on_c, 9, 40, 0
9, 9120, Note_on_c, 9, 40, 71
9, 9120, Note_on_c, 9, 40, 76
9, 9181, Note_on_c, 9, 40, 0
9, 9181, Note_on_c, 9, 40, 0
9, 9360, Note_on_c, 9, 40, 97
9, 9483, Note_on_c, 9, 40, 0
9, 9600, Note_on_c, 9, 40, 66
9, 9693, Note_on_c, 9, 40, 0
9, 9840, Note_on_c, 9, 40, 96
9, 9967, Note_on_c, 9, 40, 0
9, 10080, Note_on_c, 9, 40, 27
9, 10121, Note_on_c, 9, 40, 0
9, 10200, Note_on_c, 9, 40, 90
9, 10308, Note_on_c, 9, 40, 0
9, 10440, Note_on_c, 9, 40, 97
9, 10543, Note_on_c, 9, 40, 0
9, 10680, Note_on_c, 9, 40, 97
9, 10809, Note_on_c, 9, 40, 0
9, 11040, Note_on_c, 9, 40, 68
9, 11155, Note_on_c, 9, 40, 0
9, 11280, Note_on_c, 9, 40, 97
9, 11399, Note_on_c, 9, 40, 0
9, 11520, Note_on_c, 9, 40, 52
9, 11603, Note_on_c, 9, 40, 0
9, 11760, Note_on_c, 9, 40, 98
9, 11882, Note_on_c, 9, 40, 0
9, 12120, Note_on_c, 9, 40, 71
9, 12233, Note_on_c, 9, 40, 0
9, 12360, Note_on_c, 9, 40, 94
9, 12473, Note_on_c, 9, 40, 0
9, 12600, Note_on_c, 9, 40, 98
9, 12734, Note_on_c, 9, 40, 0
9, 12840, Note_on_c, 9, 40, 27
9, 12885, Note_on_c, 9, 40, 0
9, 12960, Note_on_c, 9, 40, 62
9, 13069, Note_on_c, 9, 40, 0
9, 13200, Note_on_c, 9, 40, 98
9, 13315, Note_on_c, 9, 40, 0
9, 13440, Note_on_c, 9, 40, 54
9, 13534, Note_on_c, 9, 40, 0
9, 13680, Note_on_c, 9, 40, 99
9, 13922, Note_on_c, 9, 40, 0
9, 14040, Note_on_c, 9, 40, 75
9, 14110, Note_on_c, 9, 40, 0
9, 14280, Note_on_c, 9, 40, 99
9, 14378, Note_on_c, 9, 40, 0
9, 14520, Note_on_c, 9, 40, 99
9, 14635, Note_on_c, 9, 40, 0
9, 14760, Note_on_c, 9, 40, 57
9, 14815, Note_on_c, 9, 40, 0
9, 14880, Note_on_c, 9, 40, 64
9, 14952, Note_on_c, 9, 40, 0
9, 15000, Note_on_c, 9, 40, 90
9, 15074, Note_on_c, 9, 40, 0
9, 15120, Note_on_c, 9, 40, 100
9, 15242, Note_on_c, 9, 40, 0
9, 15360, Note_on_c, 9, 40, 52
9, 15443, Note_on_c, 9, 40, 0
9, 15600, Note_on_c, 9, 40, 98
9, 15722, Note_on_c, 9, 40, 0
9, 15960, Note_on_c, 9, 40, 71
9, 16073, Note_on_c, 9, 40, 0
9, 16200, Note_on_c, 9, 40, 94
9, 16313, Note_on_c, 9, 40, 0
9, 16440, Note_on_c, 9, 40, 98
9, 16574, Note_on_c, 9, 40, 0
9, 16680, Note_on_c, 9, 40, 27
9, 16725, Note_on_c, 9, 40, 0
9, 16800, Note_on_c, 9, 40, 62
9, 16909, Note_on_c, 9, 40, 0
9, 17040, Note_on_c, 9, 40, 98
9, 17155, Note_on_c, 9, 40, 0
9, 17280, Note_on_c, 9, 40, 54
9, 17374, Note_on_c, 9, 40, 0
9, 17520, Note_on_c, 9, 40, 99
9, 17762, Note_on_c, 9, 40, 0
9, 17880, Note_on_c, 9, 40, 75
9, 17950, Note_on_c, 9, 40, 0
9, 18120, Note_on_c, 9, 40, 99
9, 18218, Note_on_c, 9, 40, 0
9, 18360, Note_on_c, 9, 40, 99
9, 18475, Note_on_c, 9, 40, 0
9, 18600, Note_on_c, 9, 40, 57
9, 18655, Note_on_c, 9, 40, 0
9, 18720, Note_on_c, 9, 40, 64
9, 18792, Note_on_c, 9, 40, 0
9, 18840, Note_on_c, 9, 40, 90
9, 18914, Note_on_c, 9, 40, 0
9, 18960, Note_on_c, 9, 40, 100
9, 19082, Note_on_c, 9, 40, 0
9, 19200, Note_on_c, 9, 40, 126
9, 19273, Note_on_c, 9, 40, 0
9, 19440, Note_on_c, 9, 40, 94
9, 19553, Note_on_c, 9, 40, 0
9, 19800, Note_on_c, 9, 40, 94
9, 19907, Note_on_c, 9, 40, 0
9, 20040, Note_on_c, 9, 40, 80
9, 20167, Note_on_c, 9, 40, 0
9, 20280, Note_on_c, 9, 40, 94
9, 20424, Note_on_c, 9, 40, 0
9, 20640, Note_on_c, 9, 40, 52
9, 20720, Note_on_c, 9, 40, 0
9, 20880, Note_on_c, 9, 40, 95
9, 20988, Note_on_c, 9, 40, 0
9, 21120, Note_on_c, 9, 40, 64
9, 21224, Note_on_c, 9, 40, 0
9, 21360, Note_on_c, 9, 40, 95
9, 21487, Note_on_c, 9, 40, 0
9, 21720, Note_on_c, 9, 40, 88
9, 21831, Note_on_c, 9, 40, 0
9, 21960, Note_on_c, 9, 40, 88
9, 22071, Note_on_c, 9, 40, 0
9, 22200, Note_on_c, 9, 40, 95
9, 22342, Note_on_c, 9, 40, 0
9, 22560, Note_on_c, 9, 40, 95
9, 22648, Note_on_c, 9, 40, 0
9, 22800, Note_on_c, 9, 40, 96
9, 22909, Note_on_c, 9, 40, 0
9, 23040, Note_on_c, 9, 40, 69
9, 23124, Note_on_c, 9, 40, 0
9, 23280, Note_on_c, 9, 40, 96
9, 23418, Note_on_c, 9, 40, 0
9, 23640, Note_on_c, 9, 40, 80
9, 23765, Note_on_c, 9, 40, 0
9, 23880, Note_on_c, 9, 40, 60
9, 23978, Note_on_c, 9, 40, 0
9, 24120, Note_on_c, 9, 40, 97
9, 24247, Note_on_c, 9, 40, 0
9, 24480, Note_on_c, 9, 40, 71
9, 24480, Note_on_c, 9, 40, 76
9, 24541, Note_on_c, 9, 40, 0
9, 24541, Note_on_c, 9, 40, 0
9, 24720, Note_on_c, 9, 40, 97
9, 24843, Note_on_c, 9, 40, 0
9, 24960, Note_on_c, 9, 40, 66
9, 25053, Note_on_c, 9, 40, 0
9, 25200, Note_on_c, 9, 40, 96
9, 25327, Note_on_c, 9, 40, 0
9, 25440, Note_on_c, 9, 40, 27
9, 25481, Note_on_c, 9, 40, 0
9, 25560, Note_on_c, 9, 40, 90
9, 25668, Note_on_c, 9, 40, 0
9, 25800, Note_on_c, 9, 40, 97
9, 25903, Note_on_c, 9, 40, 0
9, 26040, Note_on_c, 9, 40, 97
9, 26169, Note_on_c, 9, 40, 0
9, 26400, Note_on_c, 9, 40, 68
9, 26515, Note_on_c, 9, 40, 0
9, 26640, Note_on_c, 9, 40, 97
9, 26759, Note_on_c, 9, 40, 0
9, 26880, Note_on_c, 9, 40, 52
9, 26963, Note_on_c, 9, 40, 0
9, 27120, Note_on_c, 9, 40, 98
9, 27242, Note_on_c, 9, 40, 0
9, 27480, Note_on_c, 9, 40, 71
9, 27593, Note_on_c, 9, 40, 0
9, 27720, Note_on_c, 9, 40, 94
9, 27833, Note_on_c, 9, 40, 0
9, 27960, Note_on_c, 9, 40, 98
9, 28094, Note_on_c, 9, 40, 0
9, 28200, Note_on_c, 9, 40, 27
9, 28245, Note_on_c, 9, 40, 0
9, 28320, Note_on_c, 9, 40, 62
9, 28429, Note_on_c, 9, 40, 0
9, 28560, Note_on_c, 9, 40, 98
9, 28675, Note_on_c, 9, 40, 0
9, 28800, Note_on_c, 9, 40, 54
9, 28894, Note_on_c, 9, 40, 0
9, 29040, Note_on_c, 9, 40, 99
9, 29282, Note_on_c, 9, 40, 0
9, 29400, Note_on_c, 9, 40, 75
9, 29470, Note_on_c, 9, 40, 0
9, 29640, Note_on_c, 9, 40, 99
9, 29738, Note_on_c, 9, 40, 0
9, 29880, Note_on_c, 9, 40, 99
9, 29995, Note_on_c, 9, 40, 0
9, 30120, Note_on_c, 9, 40, 57
9, 30175, Note_on_c, 9, 40, 0
9, 30240, Note_on_c, 9, 40, 64
9, 30312, Note_on_c, 9, 40, 0
9, 30360, Note_on_c, 9, 40, 90
9, 30434, Note_on_c, 9, 40, 0
9, 30480, Note_on_c, 9, 40, 100
9, 30602, Note_on_c, 9, 40, 0
9, 30720, Note_on_c, 9, 40, 52
9, 30803, Note_on_c, 9, 40, 0
9, 30960, Note_on_c, 9, 40, 98
9, 31082, Note_on_c, 9, 40, 0
9, 31320, Note_on_c, 9, 40, 71
9, 31433, Note_on_c, 9, 40, 0
9, 31560, Note_on_c, 9, 40, 94
9, 31673, Note_on_c, 9, 40, 0
9, 31800, Note_on_c, 9, 40, 98
9, 31934, Note_on_c, 9, 40, 0
9, 32040, Note_on_c, 9, 40, 27
9, 32085, Note_on_c, 9, 40, 0
9, 32160, Note_on_c, 9, 40, 62
9, 32269, Note_on_c, 9, 40, 0
9, 32400, Note_on_c, 9, 40, 98
9, 32515, Note_on_c, 9, 40, 0
9, 32640, Note_on_c, 9, 40, 54
9, 32734, Note_on_c, 9, 40, 0
9, 32880, Note_on_c, 9, 40, 99
9, 33122, Note_on_c, 9, 40, 0
9, 33240, Note_on_c, 9, 40, 75
9, 33310, Note_on_c, 9, 40, 0
9, 33480, Note_on_c, 9, 40, 99
9, 33578, Note_on_c, 9, 40, 0
9, 33720, Note_on_c, 9, 40, 99
9, 33835, Note_on_c, 9, 40, 0
9, 33960, Note_on_c, 9, 40, 57
9, 34015, Note_on_c, 9, 40, 0
9, 34080, Note_on_c, 9, 40, 64
9, 34152, Note_on_c, 9, 40, 0
9, 34200, Note_on_c, 9, 40, 90
9, 34274, Note_on_c, 9, 40, 0
9, 34320, Note_on_c, 9, 40, 100
9, 34442, Note_on_c, 9, 40, 0
9, 34560, Note_on_c, 9, 40, 126
9, 34633, Note_on_c, 9, 40, 0
9, 34800, Note_on_c, 9, 40, 94
9, 34913, Note_on_c, 9, 40, 0
9, 35160, Note_on_c, 9, 40, 94
9, 35267, Note_on_c, 9, 40, 0
9, 35400, Note_on_c, 9, 40, 80
9, 35527, Note_on_c, 9, 40, 0
9, 35640, Note_on_c, 9, 40, 94
9, 35784, Note_on_c, 9, 40, 0
9, 36000, Note_on_c, 9, 40, 52
9, 36080, Note_on_c, 9, 40, 0
9, 36240, Note_on_c, 9, 40, 95
9, 36348, Note_on_c, 9, 40, 0
9, 36480, Note_on_c, 9, 40, 64
9, 36584, Note_on_c, 9, 40, 0
9, 36720, Note_on_c, 9, 40, 95
9, 36847, Note_on_c, 9, 40, 0
9, 37080, Note_on_c, 9, 40, 88
9, 37191, Note_on_c, 9, 40, 0
9, 37320, Note_on_c, 9, 40, 88
9, 37431, Note_on_c, 9, 40, 0
9, 37560, Note_on_c, 9, 40, 95
9, 37702, Note_on_c, 9, 40, 0
9, 37920, Note_on_c, 9, 40, 95
9, 38008, Note_on_c, 9, 40, 0
9, 38160, Note_on_c, 9, 40, 96
9, 38269, Note_on_c, 9, 40, 0
9, 38400, Note_on_c, 9, 40, 69
9, 38484, Note_on_c, 9, 40, 0
9, 38640, Note_on_c, 9, 40, 96
9, 38778, Note_on_c, 9, 40, 0
9, 39000, Note_on_c, 9, 40, 80
9, 39125, Note_on_c, 9, 40, 0
9, 39240, Note_on_c, 9, 40, 60
9, 39338, Note_on_c, 9, 40, 0
9, 39480, Note_on_c, 9, 40, 97
9, 39607, Note_on_c, 9, 40, 0
9, 39840, Note_on_c, 9, 40, 71
9, 39840, Note_on_c, 9, 40, 76
9, 39901, Note_on_c, 9, 40, 0
9, 39901, Note_on_c, 9, 40, 0
9, 40080, Note_on_c, 9, 40, 97
9, 40203, Note_on_c, 9, 40, 0
9, 40320, Note_on_c, 9, 40, 66
9, 40413, Note_on_c, 9, 40, 0
9, 40560, Note_on_c, 9, 40, 96
9, 40687, Note_on_c, 9, 40, 0
9, 40800, Note_on_c, 9, 40, 27
9, 40841, Note_on_c, 9, 40, 0
9, 40920, Note_on_c, 9, 40, 90
9, 41028, Note_on_c, 9, 40, 0
9, 41160, Note_on_c, 9, 40, 97
9, 41263, Note_on_c, 9, 40, 0
9, 41400, Note_on_c, 9, 40, 97
9, 41529, Note_on_c, 9, 40, 0
9, 41760, Note_on_c, 9, 40, 68
9, 41875, Note_on_c, 9, 40, 0
9, 42000, Note_on_c, 9, 40, 97
9, 42119, Note_on_c, 9, 40, 0
9, 42240, Note_on_c, 9, 40, 52
9, 42323, Note_on_c, 9, 40, 0
9, 42480, Note_on_c, 9, 40, 98
9, 42602, Note_on_c, 9, 40, 0
9, 42840, Note_on_c, 9, 40, 71
9, 42953, Note_on_c, 9, 40, 0
9, 43080, Note_on_c, 9, 40, 94
9, 43193, Note_on_c, 9, 40, 0
9, 43320, Note_on_c, 9, 40, 98
9, 43454, Note_on_c, 9, 40, 0
9, 43560, Note_on_c, 9, 40, 27
9, 43605, Note_on_c, 9, 40, 0
9, 43680, Note_on_c, 9, 40, 62
9, 43789, Note_on_c, 9, 40, 0
9, 43920, Note_on_c, 9, 40, 98
9, 44035, Note_on_c, 9, 40, 0
9, 44160, Note_on_c, 9, 40, 54
9, 44254, Note_on_c, 9, 40, 0
9, 44400, Note_on_c, 9, 40, 99
9, 44642, Note_on_c, 9, 40, 0
9, 44760, Note_on_c, 9, 40, 75
9, 44830, Note_on_c, 9, 40, 0
9, 45000, Note_on_c, 9, 40, 99
9, 45098, Note_on_c, 9, 40, 0
9, 45240, Note_on_c, 9, 40, 99
9, 45355, Note_on_c, 9, 40, 0
9, 45480, Note_on_c, 9, 40, 57
9, 45535, Note_on_c, 9, 40, 0
9, 45600, Note_on_c, 9, 40, 64
9, 45672, Note_on_c, 9, 40, 0
9, 45720, Note_on_c, 9, 40, 90
9, 45794, Note_on_c, 9, 40, 0
9, 45840, Note_on_c, 9, 40, 100
9, 45962, Note_on_c, 9, 40, 0
9, 46080, Note_on_c, 9, 40, 52
9, 46163, Note_on_c, 9, 40, 0
9, 46320, Note_on_c, 9, 40, 98
9, 46442, Note_on_c, 9, 40, 0
9, 46680, Note_on_c, 9, 40, 71
9, 46793, Note_on_c, 9, 40, 0
9, 46920, Note_on_c, 9, 40, 94
9, 47033, Note_on_c, 9, 40, 0
9, 47160, Note_on_c, 9, 40, 98
9, 47294, Note_on_c, 9, 40, 0
9, 47400, Note_on_c, 9, 40, 27
9, 47445, Note_on_c, 9, 40, 0
9, 47520, Note_on_c, 9, 40, 62
9, 47629, Note_on_c, 9, 40, 0
9, 47760, Note_on_c, 9, 40, 98
9, 47875, Note_on_c, 9, 40, 0
9, 48000, Note_on_c, 9, 40, 54
9, 48094, Note_on_c, 9, 40, 0
9, 48240, Note_on_c, 9, 40, 99
9, 48482, Note_on_c, 9, 40, 0
9, 48600, Note_on_c, 9, 40, 75
9, 48670, Note_on_c, 9, 40, 0
9, 48840, Note_on_c, 9, 40, 99
9, 48938, Note_on_c, 9, 40, 0
9, 49080, Note_on_c, 9, 40, 99
9, 49195, Note_on_c, 9, 40, 0
9, 49320, Note_on_c, 9, 40, 57
9, 49375, Note_on_c, 9, 40, 0
9, 49440, Note_on_c, 9, 40, 64
9, 49512, Note_on_c, 9, 40, 0
9, 49560, Note_on_c, 9, 40, 90
9, 49634, Note_on_c, 9, 40, 0
9, 49680, Note_on_c, 9, 40, 100
9, 49802, Note_on_c, 9, 40, 0
9, 49920, Note_on_c, 9, 40, 126
9, 49993, Note_on_c, 9, 40, 0
9, 50160, Note_on_c, 9, 40, 94
9, 50273, Note_on_c, 9, 40, 0
9, 50520, Note_on_c, 9, 40, 94
9, 50627, Note_on_c, 9, 40, 0
9, 50760, Note_on_c, 9, 40, 80
9, 50887, Note_on_c, 9, 40, 0
9, 51000, Note_on_c, 9, 40, 94
9, 51144, Note_on_c, 9, 40, 0
9, 51360, Note_on_c, 9, 40, 52
9, 51440, Note_on_c, 9, 40, 0
9, 51600, Note_on_c, 9, 40, 95
9, 51708, Note_on_c, 9, 40, 0
9, 51840, Note_on_c, 9, 40, 64
9, 51944, Note_on_c, 9, 40, 0
9, 52080, Note_on_c, 9, 40, 95
9, 52207, Note_on_c, 9, 40, 0
9, 52440, Note_on_c, 9, 40, 88
9, 52551, Note_on_c, 9, 40, 0
9, 52680, Note_on_c, 9, 40, 88
9, 52791, Note_on_c, 9, 40, 0
9, 52920, Note_on_c, 9, 40, 95
9, 53062, Note_on_c, 9, 40, 0
9, 53280, Note_on_c, 9, 40, 95
9, 53368, Note_on_c, 9, 40, 0
9, 53520, Note_on_c, 9, 40, 96
9, 53629, Note_on_c, 9, 40, 0
9, 53760, Note_on_c, 9, 40, 69
9, 53844, Note_on_c, 9, 40, 0
9, 54000, Note_on_c, 9, 40, 96
9, 54138, Note_on_c, 9, 40, 0
9, 54360, Note_on_c, 9, 40, 80
9, 54485, Note_on_c, 9, 40, 0
9, 54600, Note_on_c, 9, 40, 60
9, 54698, Note_on_c, 9, 40, 0
9, 54840, Note_on_c, 9, 40, 97
9, 54967, Note_on_c, 9, 40, 0
9, 55200, Note_on_c, 9, 40, 71
9, 55200, Note_on_c, 9, 40, 76
9, 55261, Note_on_c, 9, 40, 0
9, 55261, Note_on_c, 9, 40, 0
9, 55440, Note_on_c, 9, 40, 97
9, 55563, Note_on_c, 9, 40, 0
9, 55680, Note_on_c, 9, 40, 66
9, 55773, Note_on_c, 9, 40, 0
9, 55920, Note_on_c, 9, 40, 96
9, 56047, Note_on_c, 9, 40, 0
9, 56160, Note_on_c, 9, 40, 27
9, 56201, Note_on_c, 9, 40, 0
9, 56280, Note_on_c, 9, 40, 90
9, 56388, Note_on_c, 9, 40, 0
9, 56520, Note_on_c, 9, 40, 97
9, 56623, Note_on_c, 9, 40, 0
9, 56760, Note_on_c, 9, 40, 97
9, 56889, Note_on_c, 9, 40, 0
9, 57120, Note_on_c, 9, 40, 68
9, 57235, Note_on_c, 9, 40, 0
9, 57360, Note_on_c, 9, 40, 97
9, 57479, Note_on_c, 9, 40, 0
9, 57600, Note_on_c, 9, 40, 52
9, 57683, Note_on_c, 9, 40, 0
9, 57840, Note_on_c, 9, 40, 98
9, 57962, Note_on_c, 9, 40, 0
9, 58200, Note_on_c, 9, 40, 71
9, 58313, Note_on_c, 9, 40, 0
9, 58440, Note_on_c, 9, 40, 94
9, 58553, Note_on_c, 9, 40, 0
9, 58680, Note_on_c, 9, 40, 98
9, 58814, Note_on_c, 9, 40, 0
9, 58920, Note_on_c, 9, 40, 27
9, 58965, Note_on_c, 9, 40, 0
9, 59040, Note_on_c, 9, 40, 62
9, 59149, Note_on_c, 9, 40, 0
9, 59280, Note_on_c, 9, 40, 98
9, 59395, Note_on_c, 9, 40, 0
9, 59520, Note_on_c, 9, 40, 54
9, 59614, Note_on_c, 9, 40, 0
9, 59760, Note_on_c, 9, 40, 99
9, 60002, Note_on_c, 9, 40, 0
9, 60120, Note_on_c, 9, 40, 75
9, 60190, Note_on_c, 9, 40, 0
9, 60360, Note_on_c, 9, 40, 99
9, 60458, Note_on_c, 9, 40, 0
9, 60600, Note_on_c, 9, 40, 99
9, 60715, Note_on_c, 9, 40, 0
9, 60840, Note_on_c, 9, 40, 57
9, 60895, Note_on_c, 9, 40, 0
9, 60960, Note_on_c, 9, 40, 64
9, 61032, Note_on_c, 9, 40, 0
9, 61080, Note_on_c, 9, 40, 90
9, 61154, Note_on_c, 9, 40, 0
9, 61200, Note_on_c, 9, 40, 100
9, 61322, Note_on_c, 9, 40, 0
9, 61440, Note_on_c, 9, 40, 52
9, 61523, Note_on_c, 9, 40, 0
9, 61680, Note_on_c, 9, 40, 98
9, 61802, Note_on_c, 9, 40, 0
9, 62040, Note_on_c, 9, 40, 71
9, 62153, Note_on_c, 9, 40, 0
9, 62280, Note_on_c, 9, 40, 94
9, 62393, Note_on_c, 9, 40, 0
9, 62520, Note_on_c, 9, 40, 98
9, 62654, Note_on_c, 9, 40, 0
9, 62760, Note_on_c, 9, 40, 27
9, 62805, Note_on_c, 9, 40, 0
9, 62880, Note_on_c, 9, 40, 62
9, 62989, Note_on_c, 9, 40, 0
9, 63120, Note_on_c, 9, 40, 98
9, 63235, Note_on_c, 9, 40, 0
9, 63360, Note_on_c, 9, 40, 54
9, 63454, Note_on_c, 9, 40, 0
9, 63600, Note_on_c, 9, 40, 99
9, 63842, Note_on_c, 9, 40, 0
9, 63960, Note_on_c, 9, 40, 75
9, 64030, Note_on_c, 9, 40, 0
9, 64200, Note_on_c, 9, 40, 99
9, 64298, Note_on_c, 9, 40, 0
9, 64440, Note_on_c, 9, 40, 99
9, 64555, Note_on_c, 9, 40, 0
9, 64680, Note_on_c, 9, 40, 57
9, 64735, Note_on_c, 9, 40, 0
9, 64800, Note_on_c, 9, 40, 64
9, 64872, Note_on_c, 9, 40, 0
9, 64920, Note_on_c, 9, 40, 90
9, 64994, Note_on_c, 9, 40, 0
9, 65040, Note_on_c, 9, 40, 100
9, 65162, Note_on_c, 9, 40, 0
9, 65280, Note_on_c, 9, 40, 126
9, 65353, Note_on_c, 9, 40, 0
9, 65520, Note_on_c, 9, 40, 94
9, 65633, Note_on_c, 9, 40, 0
9, 65880, Note_on_c, 9, 40, 94
9, 65987, Note_on_c, 9, 40, 0
9, 66120, Note_on_c, 9, 40, 80
9, 66247, Note_on_c, 9, 40, 0
9, 66360, Note_on_c, 9, 40, 94
9, 66504, Note_on_c, 9, 40, 0
9, 66720, Note_on_c, 9, 40, 52
9, 66800, Note_on_c, 9, 40, 0
9, 66960, Note_on_c, 9, 40, 95
9, 67068, Note_on_c, 9, 40, 0
9, 67200, Note_on_c, 9, 40, 64
9, 67304, Note_on_c, 9, 40, 0
9, 67440, Note_on_c, 9, 40, 95
9, 67567, Note_on_c, 9, 40, 0
9, 67800, Note_on_c, 9, 40, 88
9, 67911, Note_on_c, 9, 40, 0
9, 68040, Note_on_c, 9, 40, 88
9, 68151, Note_on_c, 9, 40, 0
9, 68280, Note_on_c, 9, 40, 95
9, 68422, Note_on_c, 9, 40, 0
9, 68640, Note_on_c, 9, 40, 95
9, 68728, Note_on_c, 9, 40, 0
9, 68880, Note_on_c, 9, 40, 96
9, 68989, Note_on_c, 9, 40, 0
9, 69120, Note_on_c, 9, 40, 69
9, 69204, Note_on_c, 9, 40, 0
9, 69360, Note_on_c, 9, 40, 96
9, 69498, Note_on_c, 9, 40, 0
9, 69720, Note_on_c, 9, 40, 80
9, 69845, Note_on_c, 9, 40, 0
9, 69960, Note_on_c, 9, 40, 60
9, 70058, Note_on_c, 9, 40, 0
9, 70200, Note_on_c, 9, 40, 97
9, 70327, Note_on_c, 9, 40, 0
9, 70560, Note_on_c, 9, 40, 71
9, 70560, Note_on_c, 9, 40, 76
9, 70621, Note_on_c, 9, 40, 0
9, 70621, Note_on_c, 9, 40, 0
9, 70800, Note_on_c, 9, 40, 97
9, 70923, Note_on_c, 9, 40, 0
9, 71040, Note_on_c, 9, 40, 66
9, 71133, Note_on_c, 9, 40, 0
9, 71280, Note_on_c, 9, 40, 96
9, 71407, Note_on_c, 9, 40, 0
9, 71520, Note_on_c, 9, 40, 27
9, 71561, Note_on_c, 9, 40, 0
9, 71640, Note_on_c, 9, 40, 90
9, 71748, Note_on_c, 9, 40, 0
9, 71880, Note_on_c, 9, 40, 97
9, 71983, Note_on_c, 9, 40, 0
9, 72120, Note_on_c, 9, 40, 97
9, 72249, Note_on_c, 9, 40, 0
9, 72480, Note_on_c, 9, 40, 68
9, 72595, Note_on_c, 9, 40, 0
9, 72720, Note_on_c, 9, 40, 97
9, 72839, Note_on_c, 9, 40, 0
9, 72960, Note_on_c, 9, 40, 52
9, 73043, Note_on_c, 9, 40, 0
9, 73200, Note_on_c, 9, 40, 98
9, 73322, Note_on_c, 9, 40, 0
9, 73560, Note_on_c, 9, 40, 71
9, 73673, Note_on_c, 9, 40, 0
9, 73800, Note_on_c, 9, 40, 94
9, 73913, Note_on_c, 9, 40, 0
9, 74040, Note_on_c, 9, 40, 98
9, 74174, Note_on_c, 9, 40, 0
9, 74280, Note_on_c, 9, 40, 27
9, 74325, Note_on_c, 9, 40, 0
9, 74400, Note_on_c, 9, 40, 62
9, 74509, Note_on_c, 9, 40, 0
9, 74640, Note_on_c, 9, 40, 98
9, 74755, Note_on_c, 9, 40, 0
9, 74880, Note_on_c, 9, 40, 54
9, 74974, Note_on_c, 9, 40, 0
9, 75120, Note_on_c, 9, 40, 99
9, 75362, Note_on_c, 9, 40, 0
9, 75480, Note_on_c, 9, 40, 75
9, 75550, Note_on_c, 9, 40, 0
9, 75720, Note_on_c, 9, 40, 99
9, 75818, Note_on_c, 9, 40, 0
9, 75960, Note_on_c, 9, 40, 99
9, 76075, Note_on_c, 9, 40, 0
9, 76200, Note_on_c, 9, 40, 57
9, 76255, Note_on_c, 9, 40, 0
9, 76320, Note_on_c, 9, 40, 64
9, 76392, Note_on_c, 9, 40, 0
9, 76440, Note_on_c, 9, 40, 90
9, 76514, Note_on_c, 9, 40, 0
9, 76560, Note_on_c, 9, 40, 100
9, 76682, Note_on_c, 9, 40, 0
9, 76800, Note_on_c, 9, 40, 52
9, 76883, Note_on_c, 9, 40, 0
9, 77040, Note_on_c, 9, 40, 98
9, 77162, Note_on_c, 9, 40, 0
9, 77400, Note_on_c, 9, 40, 71
9, 77513, Note_on_c, 9, 40, 0
9, 77640, Note_on_c, 9, 40, 94
9, 77753, Note_on_c, 9, 40, 0
9, 77880, Note_on_c, 9, 40, 98
9, 78014, Note_on_c, 9, 40, 0
9, 78120, Note_on_c, 9, 40, 27
9, 78165, Note_on_c, 9, 40, 0
9, 78240, Note_on_c, 9, 40, 62
9, 78349, Note_on_c, 9, 40, 0
9, 78480, Note_on_c, 9, 40, 98
9, 78595, Note_on_c, 9, 40, 0
9, 78720, Note_on_c, 9, 40, 54
9, 78814, Note_on_c, 9, 40, 0
9, 78960, Note_on_c, 9, 40, 99
9, 79202, Note_on_c, 9, 40, 0
9, 79320, Note_on_c, 9, 40, 75
9, 79390, Note_on_c, 9, 40, 0
9, 79560, Note_on_c, 9, 40, 99
9, 79658, Note_on_c, 9, 40, 0
9, 79800, Note_on_c, 9, 40, 99
9, 79915, Note_on_c, 9, 40, 0
9, 80040, Note_on_c, 9, 40, 57
9, 80095, Note_on_c, 9, 40, 0
9, 80160, Note_on_c, 9, 40, 64
9, 80232, Note_on_c, 9, 40, 0
9, 80280, Note_on_c, 9, 40, 90
9, 80354, Note_on_c, 9, 40, 0
9, 80400, Note_on_c, 9, 40, 100
9, 80522, Note_on_c, 9, 40, 0
9, 80640, Note_on_c, 9, 40, 126
9, 80713, Note_on_c, 9, 40, 0
9, 80880, Note_on_c, 9, 40, 94
9, 80993, Note_on_c, 9, 40, 0
9, 81240, Note_on_c, 9, 40, 94
9, 81347, Note_on_c, 9, 40, 0
9, 81480, Note_on_c, 9, 40, 80
9, 81607, Note_on_c, 9, 40, 0
9, 81720, Note_on_c, 9, 40, 94
9, 81864, Note_on_c, 9, 40, 0
9, 82080, Note_on_c, 9, 40, 52
9, 82160, Note_on_c, 9, 40, 0
9, 82320, Note_on_c, 9, 40, 95
9, 82428, Note_on_c, 9, 40, 0
9, 82560, Note_on_c, 9, 40, 64
9, 82664, Note_on_c, 9, 40, 0
9, 82800, Note_on_c, 9, 40, 95
9, 82927, Note_on_c, 9, 40, 0
9, 83160, Note_on_c, 9, 40, 88
9, 83271, Note_on_c, 9, 40, 0
9, 83400, Note_on_c, 9, 40, 88
9, 83511, Note_on_c, 9, 40, 0
9, 83640, Note_on_c, 9, 40, 95
9, 83782, Note_on_c, 9, 40, 0
9, 84000, Note_on_c, 9, 40, 95
9, 84088, Note_on_c, 9, 40, 0
9, 84240, Note_on_c, 9, 40, 96
9, 84349, Note_on_c, 9, 40, 0
9, 84480, Note_on_c, 9, 40, 69
9, 84564, Note_on_c, 9, 40, 0
9, 84720, Note_on_c, 9, 40, 96
9, 84858, Note_on_c, 9, 40, 0
9, 85080, Note_on_c, 9, 40, 80
9, 85205, Note_on_c, 9, 40, 0
9, 85320, Note_on_c, 9, 40, 60
9, 85418, Note_on_c, 9, 40, 0
9, 85560, Note_on_c, 9, 40, 97
9, 85687, Note_on_c, 9, 40, 0
9, 85920, Note_on_c, 9, 40, 71
9, 85920, Note_on_c, 9, 40, 76
9, 85981, Note_on_c, 9, 40, 0
9, 85981, Note_on_c, 9, 40, 0
9, 86160, Note_on_c, 9, 40, 97
9, 86283, Note_on_c, 9, 40, 0
9, 86400, Note_on_c, 9, 40, 66
9, 86493, Note_on_c, 9, 40, 0
9, 86640, Note_on_c, 9, 40, 96
9, 86767, Note_on_c, 9, 40, 0
9, 86880, Note_on_c, 9, 40, 27
9, 86921, Note_on_c, 9, 40, 0
9, 87000, Note_on_c, 9, 40, 90
9, 87108, Note_on_c, 9, 40, 0
9, 87240, Note_on_c, 9, 40, 97
9, 87343, Note_on_c, 9, 40, 0
9, 87480, Note_on_c, 9, 40, 97
9, 87609, Note_on_c, 9, 40, 0
9, 87840, Note_on_c, 9, 40, 68
9, 87955, Note_on_c, 9, 40, 0
9, 88080, Note_on_c, 9, 40, 97
9, 88199, Note_on_c, 9, 40, 0
9, 88320, Note_on_c, 9, 40, 52
9, 88403, Note_on_c, 9, 40, 0
9, 88560, Note_on_c, 9, 40, 98
9, 88682, Note_on_c, 9, 40, 0
9, 88920, Note_on_c, 9, 40, 71
9, 89033, Note_on_c, 9, 40, 0
9, 89160, Note_on_c, 9, 40, 94
9, 89273, Note_on_c, 9, 40, 0
9, 89400, Note_on_c, 9, 40, 98
9, 89534, Note_on_c, 9, 40, 0
9, 89640, Note_on_c, 9, 40, 27
9, 89685, Note_on_c, 9, 40, 0
9, 89760, Note_on_c, 9, 40, 62
9, 89869, Note_on_c, 9, 40, 0
9, 90000, Note_on_c, 9, 40, 98
9, 90115, Note_on_c, 9, 40, 0
9, 90240, Note_on_c, 9, 40, 54
9, 90334, Note_on_c, 9, 40, 0
9, 90480, Note_on_c, 9, 40, 99
9, 90722, Note_on_c, 9, 40, 0
9, 90840, Note_on_c, 9, 40, 75
9, 90910, Note_on_c, 9, 40, 0
9, 91080, Note_on_c, 9, 40, 99
9, 91178, Note_on_c, 9, 40, 0
9, 91320, Note_on_c, 9, 40, 99
9, 91435, Note_on_c, 9, 40, 0
9, 91560, Note_on_c, 9, 40, 57
9, 91615, Note_on_c, 9, 40, 0
9, 91680, Note_on_c, 9, 40, 64
9, 91752, Note_on_c, 9, 40, 0
9, 91800, Note_on_c, 9, 40, 90
9, 91874, Note_on_c, 9, 40, 0
9, 91920, Note_on_c, 9, 40, 100
9, 92042, Note_on_c, 9, 40, 0
9, 92160, Note_on_c, 9, 40, 52
9, 92243, Note_on_c, 9, 40, 0
9, 92400, Note_on_c, 9, 40, 98
9, 92522, Note_on_c, 9, 40, 0
9, 92760, Note_on_c, 9, 40, 71
9, 92873, Note_on_c, 9, 40, 0
9, 93000, Note_on_c, 9, 40, 94
9, 93113, Note_on_c, 9, 40, 0
9, 93240, Note_on_c, 9, 40, 98
9, 93374, Note_on_c, 9, 40, 0
9, 93480, Note_on_c, 9, 40, 27
9, 93525, Note_on_c, 9, 40, 0
9, 93600, Note_on_c, 9, 40, 62
9, 93709, Note_on_c, 9, 40, 0
9, 93840, Note_on_c, 9, 40, 98
9, 93955, Note_on_c, 9, 40, 0
9, 94080, Note_on_c, 9, 40, 54
9, 94174, Note_on_c, 9, 40, 0
9, 94320, Note_on_c, 9, 40, 99
9, 94562, Note_on_c, 9, 40, 0
9, 94680, Note_on_c, 9, 40, 75
9, 94750, Note_on_c, 9, 40, 0
9, 94920, Note_on_c, 9, 40, 99
9, 95018, Note_on_c, 9, 40, 0
9, 95160, Note_on_c, 9, 40, 99
9, 95275, Note_on_c, 9, 40, 0
9, 95400, Note_on_c, 9, 40, 57
9, 95455, Note_on_c, 9, 40, 0
9, 95520, Note_on_c, 9, 40, 64
9, 95592, Note_on_c, 9, 40, 0
9, 95640, Note_on_c, 9, 40, 90
9, 95714, Note_on_c, 9, 40, 0
9, 95760, Note_on_c, 9, 40, 100
9, 95882, Note_on_c, 9, 40, 0
9, 96000, Note_on_c, 9, 40, 126
9, 96073, Note_on_c, 9, 40, 0
9, 96240, Note_on_c, 9, 40, 94
9, 96353, Note_on_c, 9, 40, 0
9, 96600, Note_on_c, 9, 40, 94
9, 96707, Note_on_c, 9, 40, 0
9, 96840, Note_on_c, 9, 40, 80
9, 96967, Note_on_c, 9, 40, 0
9, 97080, Note_on_c, 9, 40, 94
9, 97224, Note_on_c, 9, 40, 0
9, 97440, Note_on_c, 9, 40, 52
9, 97520, Note_on_c, 9, 40, 0
9, 97680, Note_on_c, 9, 40, 95
9, 97788, Note_on_c, 9, 40, 0
9, 97920, Note_on_c, 9, 40, 64
9, 98024, Note_on_c, 9, 40, 0
9, 98160, Note_on_c, 9, 40, 95
9, 98287, Note_on_c, 9, 40, 0
9, 98520, Note_on_c, 9, 40, 88
9, 98631, Note_on_c, 9, 40, 0
9, 98760, Note_on_c, 9, 40, 88
9, 98871, Note_on_c, 9, 40, 0
9, 99000, Note_on_c, 9, 40, 95
9, 99142, Note_on_c, 9, 40, 0
9, 99360, Note_on_c, 9, 40, 95
9, 99448, Note_on_c, 9, 40, 0
9, 99600, Note_on_c, 9, 40, 96
9, 99709, Note_on_c, 9, 40, 0
9, 99840, Note_on_c, 9, 40, 69
9, 99924, Note_on_c, 9, 40, 0
9, 100080, Note_on_c, 9, 40, 96
9, 100218, Note_on_c, 9, 40, 0
9, 100440, Note_on_c, 9, 40, 80
9, 100565, Note_on_c, 9, 40, 0
9, 100680, Note_on_c, 9, 40, 60
9, 100778, Note_on_c, 9, 40, 0
9, 100920, Note_on_c, 9, 40, 97
9, 101047, Note_on_c, 9, 40, 0
9, 101280, Note_on_c, 9, 40, 71
9, 101280, Note_on_c, 9, 40, 76
9, 101341, Note_on_c, 9, 40, 0
9, 101341, Note_on_c, 9, 40, 0
9, 101520, Note_on_c, 9, 40, 97
9, 101643, Note_on_c, 9, 40, 0
9, 101760, Note_on_c, 9, 40, 66
9, 101853, Note_on_c, 9, 40, 0
9, 102000, Note_on_c, 9, 40, 96
9, 102127, Note_on_c, 9, 40, 0
9, 102240, Note_on_c, 9, 40, 27
9, 102281, Note_on_c, 9, 40, 0
9, 102360, Note_on_c, 9, 40, 90
9, 102468, Note_on_c, 9, 40, 0
9, 102600, Note_on_c, 9, 40, 97
9, 102703, Note_on_c, 9, 40, 0
9, 102840, Note_on_c, 9, 40, 97
9, 102969, Note_on_c, 9, 40, 0
9, 103200, Note_on_c, 9, 40, 68
9, 103315, Note_on_c, 9, 40, 0
9, 103440, Note_on_c, 9, 40, 97
9, 103559, Note_on_c, 9, 40, 0
9, 103680, Note_on_c, 9, 40, 52
9, 103763, Note_on_c, 9, 40, 0
9, 103920, Note_on_c, 9, 40, 98
9, 104042, Note_on_c, 9, 40, 0
9, 104280, Note_on_c, 9, 40, 71
9, 104393, Note_on_c, 9, 40, 0
9, 104520, Note_on_c, 9, 40, 94
9, 104633, Note_on_c, 9, 40, 0
9, 104760, Note_on_c, 9, 40, 98
9, 104894, Note_on_c, 9, 40, 0
9, 105000, Note_on_c, 9, 40, 27
9, 105045, Note_on_c, 9, 40, 0
9, 105120, Note_on_c, 9, 40, 62
9, 105229, Note_on_c, 9, 40, 0
9, 105360, Note_on_c, 9, 40, 98
9, 105475, Note_on_c, 9, 40, 0
9, 105600, Note_on_c, 9, 40, 54
9, 105694, Note_on_c, 9, 40, 0
9, 105840, Note_on_c, 9, 40, 99
9, 106082, Note_on_c, 9, 40, 0
9, 106200, Note_on_c, 9, 40, 75
9, 106270, Note_on_c, 9, 40, 0
9, 106440, Note_on_c, 9, 40, 99
9, 106538, Note_on_c, 9, 40, 0
9, 106680, Note_on_c, 9, 40, 99
9, 106795, Note_on_c, 9, 40, 0
9, 106920, Note_on_c, 9, 40, 57
9, 106975, Note_on_c, 9, 40, 0
9, 107040, Note_on_c, 9, 40, 64
9, 107112, Note_on_c, 9, 40, 0
9, 107160, Note_on_c, 9, 40, 90
9, 107234, Note_on_c, 9, 40, 0
9, 107280, Note_on_c, 9, 40, 100
9, 107402, Note_on_c, 9, 40, 0
9, 107520, Note_on_c, 9, 40, 52
9, 107603, Note_on_c, 9, 40, 0
9, 107760, Note_on_c, 9, 40, 98
9, 107882, Note_on_c, 9, 40, 0
9, 108120, Note_on_c, 9, 40, 71
9, 108233, Note_on_c, 9, 40, 0
9, 108360, Note_on_c, 9, 40, 94
9, 108473, Note_on_c, 9, 40, 0
9, 108600, Note_on_c, 9, 40, 98
9, 108734, Note_on_c, 9, 40, 0
9, 108840, Note_on_c, 9, 40, 27
9, 108885, Note_on_c, 9, 40, 0
9, 108960, Note_on_c, 9, 40, 62
9, 109069, Note_on_c, 9, 40, 0
9, 109200, Note_on_c, 9, 40, 98
9, 109315, Note_on_c, 9, 40, 0
9, 109440, Note_on_c, 9, 40, 54
9, 109534, Note_on_c, 9, 40, 0
9, 109680, Note_on_c, 9, 40, 99
9, 109922, Note_on_c, 9, 40, 0
9, 110040, Note_on_c, 9, 40, 75
9, 110110, Note_on_c, 9, 40, 0
9, 110280, Note_on_c, 9, 40, 99
9, 110378, Note_on_c, 9, 40, 0
9, 110520, Note_on_c, 9, 40, 99
9, 110635, Note_on_c, 9, 40, 0
9, 110760, Note_on_c, 9, 40, 57
9, 110815, Note_on_c, 9, 40, 0
9, 110880, Note_on_c, 9, 40, 64
9, 110952, Note_on_c, 9, 40, 0
9, 111000, Note_on_c, 9, 40, 90
9, 111074, Note_on_c, 9, 40, 0
9, 111120, Note_on_c, 9, 40, 100
9, 111242, Note_on_c, 9, 40, 0
9, 111360, Note_on_c, 9, 40, 126
9, 111433, Note_on_c, 9, 40, 0
9, 111600, Note_on_c, 9, 40, 94
9, 111713, Note_on_c, 9, 40, 0
9, 111960, Note_on_c, 9, 40, 94
9, 112067, Note_on_c, 9, 40, 0
9, 112200, Note_on_c, 9, 40, 80
9, 112327, Note_on_c, 9, 40, 0
9, 112440, Note_on_c, 9, 40, 94
9, 112584, Note_on_c, 9, 40, 0
9, 112800, Note_on_c, 9, 40, 52
9, 112880, Note_on_c, 9, 40, 0
9, 113040, Note_on_c, 9, 40, 95
9, 113148, Note_on_c, 9, 40, 0
9, 113280, Note_on_c, 9, 40, 64
9, 113384, Note_on_c, 9, 40, 0
9, 113520, Note_on_c, 9, 40, 95
9, 113647, Note_on_c, 9, 40, 0
9, 113880, Note_on_c, 9, 40, 88
9, 113991, Note_on_c, 9, 40, 0
9, 114120, Note_on_c, 9, 40, 88
9, 114231, Note_on_c, 9, 40, 0
9, 114360, Note_on_c, 9, 40, 95
9, 114502, Note_on_c, 9, 40, 0
9, 114720, Note_on_c, 9, 40, 95
9, 114808, Note_on_c, 9, 40, 0
9, 114960, Note_on_c, 9, 40, 96
9, 115069, Note_on_c, 9, 40, 0
9, 115200, Note_on_c, 9, 40, 69
9, 115284, Note_on_c, 9, 40, 0
9, 115440, Note_on_c, 9, 40, 96
9, 115578, Note_on_c, 9, 40, 0
9, 115800, Note_on_c, 9, 40, 80
9, 115925, Note_on_c, 9, 40, 0
9, 116040, Note_on_c, 9, 40, 60
9, 116138, Note_on_c, 9, 40, 0
9, 116280, Note_on_c, 9, 40, 97
9, 116407, Note_on_c, 9, 40, 0
9, 116640, Note_on_c, 9, 40, 71
9, 116640, Note_on_c, 9, 40, 76
9, 116701, Note_on_c, 9, 40, 0
9, 116701, Note_on_c, 9, 40, 0
9, 116880, Note_on_c, 9, 40, 97
9, 117003, Note_on_c, 9, 40, 0
9, 117120, Note_on_c, 9, 40, 66
9, 117213, Note_on_c, 9, 40, 0
9, 117360, Note_on_c, 9, 40, 96
9, 117487, Note_on_c, 9, 40, 0
9, 117600, Note_on_c, 9, 40, 27
9, 117641, Note_on_c, 9, 40, 0
9, 117720, Note_on_c, 9, 40, 90
9, 117828, Note_on_c, 9, 40, 0
9, 117960, Note_on_c, 9, 40, 97
9, 118063, Note_on_c, 9, 40, 0
9, 118200, Note_on_c, 9, 40, 97
9, 118329, Note_on_c, 9, 40, 0
9, 118560, Note_on_c, 9, 40, 68
9, 118675, Note_on_c, 9, 40, 0
9, 118800, Note_on_c, 9, 40, 97
9, 118919, Note_on_c, 9, 40, 0
9, 119040, Note_on_c, 9, 40, 52
9, 119123, Note_on_c, 9, 40, 0
9, 119280, Note_on_c, 9, 40, 98
9, 119402, Note_on_c, 9, 40, 0
9, 119640, Note_on_c, 9, 40, 71
9, 119753, Note_on_c, 9, 40, 0
9, 119880, Note_on_c, 9, 40, 94
9, 119993, Note_on_c, 9, 40, 0
9, 120120, Note_on_c, 9, 40, 98
9, 120254, Note_on_c, 9, 40, 0
9, 120360, Note_on_c, 9, 40, 27
9, 120405, Note_on_c, 9, 40, 0
9, 120480, Note_on_c, 9, 40, 62
9, 120589, Note_on_c, 9, 40, 0
9, 120720, Note_on_c, 9, 40, 98
9, 120835, Note_on_c, 9, 40, 0
9, 120960, Note_on_c, 9, 40, 54
9, 121054, Note_on_c, 9, 40, 0
9, 121200, Note_on_c, 9, 40, 99
9, 121442, Note_on_c, 9, 40, 0
9, 121560, Note_on_c, 9, 40, 75
9, 121630, Note_on_c, 9, 40, 0
9, 121800, Note_on_c, 9, 40, 99
9, 121898, Note_on_c, 9, 40, 0
9, 122040, Note_on_c, 9, 40, 99
9, 122155, Note_on_c, 9, 40, 0
9, 122280, Note_on_c, 9, 40, 57
9, 122335, Note_on_c, 9, 40, 0
9, 122400, Note_on_c, 9, 40, 64
9, 122472, Note_on_c, 9, 40, 0
9, 122520, Note_on_c, 9, 40, 90
9, 122594, Note_on_c, 9, 40, 0
9, 122640, Note_on_c, 9, 40, 100
9, 122762, Note_on_c, 9, 40, 0
9, 122880, Note_on_c, 9, 40, 52
9, 122963, Note_on_c, 9, 40, 0
9, 123120, Note_on_c, 9, 40, 98
9, 123242, Note_on_c, 9, 40, 0
9, 123480, Note_on_c, 9, 40, 71
9, 123593, Note_on_c, 9, 40, 0
9, 123720, Note_on_c, 9, 40, 94
9, 123833, Note_on_c, 9, 40, 0
9, 123960, Note_on_c, 9, 40, 98
9, 124094, Note_on_c, 9, 40, 0
9, 124200, Note_on_c, 9, 40, 27
9, 124245, Note_on_c, 9, 40, 0
9, 124320, Note_on_c, 9, 40, 62
9, 124429, Note_on_c, 9, 40, 0
9, 124560, Note_on_c, 9, 40, 98
9, 124675, Note_on_c, 9, 40, 0
9, 124800, Note_on_c, 9, 40, 54
9, 124894, Note_on_c, 9, 40, 0
9, 125040, Note_on_c, 9, 40, 99
9, 125282, Note_on_c, 9, 40, 0
9, 125400, Note_on_c, 9, 40, 75
9, 125470, Note_on_c, 9, 40, 0
9, 125640, Note_on_c, 9, 40, 99
9, 125738, Note_on_c, 9, 40, 0
9, 125880, Note_on_c, 9, 40, 99
9, 125995, Note_on_c, 9, 40, 0
9, 126120, Note_on_c, 9, 40, 57
9, 126175, Note_on_c, 9, 40, 0
9, 126240, Note_on_c, 9, 40, 64
9, 126312, Note_on_c, 9, 40, 0
9, 126360, Note_on_c, 9, 40, 90
9, 126434, Note_on_c, 9, 40, 0
9, 126480, Note_on_c, 9, 40, 100
9, 126602, Note_on_c, 9, 40, 0
9, 126720, Note_on_c, 9, 40, 126
9, 126793, Note_on_c, 9, 40, 0
9, 126960, Note_on_c, 9, 40, 94
9, 127073, Note_on_c, 9, 40, 0
9, 127320, Note_on_c, 9, 40, 94
9, 127427, Note_on_c, 9, 40, 0
9, 127560, Note_on_c, 9, 40, 80
9, 127687, Note_on_c, 9, 40, 0
9, 127800, Note_on_c, 9, 40, 94
9, 127944, Note_on_c, 9, 40, 0
9, 128160, Note_on_c, 9, 40, 52
9, 128240, Note_on_c, 9, 40, 0
9, 128400, Note_on_c, 9, 40, 95
9, 128508, Note_on_c, 9, 40, 0
9, 128640, Note_on_c, 9, 40, 64
9, 128744, Note_on_c, 9, 40, 0
9, 128880, Note_on_c, 9, 40, 95
9, 129007, Note_on_c, 9, 40, 0
9, 129240, Note_on_c, 9, 40, 88
9, 129351, Note_on_c, 9, 40, 0
9, 129480, Note_on_c, 9, 40, 88
9, 129591, Note_on_c, 9, 40, 0
9, 129720, Note_on_c, 9, 40, 95
9, 129862, Note_on_c, 9, 40, 0
9, 130080, Note_on_c, 9, 40, 95
9, 130168, Note_on_c, 9, 40, 0
9, 130320, Note_on_c, 9, 40, 96
9, 130429, Note_on_c, 9, 40, 0
9, 130560, Note_on_c, 9, 40, 69
9, 130644, Note_on_c, 9, 40, 0
9, 130800, Note_on_c, 9, 40, 96
9, 130938, Note_on_c, 9, 40, 0
9, 131160, Note_on_c, 9, 40, 80
9, 131285, Note_on_c, 9, 40, 0
9, 131400, Note_on_c, 9, 40, 60
9, 131498, Note_on_c, 9, 40, 0
9, 131640, Note_on_c, 9, 40, 97
9, 131767, Note_on_c, 9, 40, 0
9, 132000, Note_on_c, 9, 40, 71
9, 132000, Note_on_c, 9, 40, 76
9, 132061, Note_on_c, 9, 40, 0
9, 132061, Note_on_c, 9, 40, 0
9, 132240, Note_on_c, 9, 40, 97
9, 132363, Note_on_c, 9, 40, 0
9, 132480, Note_on_c, 9, 40, 66
9, 132573, Note_on_c, 9, 40, 0
9, 132720, Note_on_c, 9, 40, 96
9, 132847, Note_on_c, 9, 40, 0
9, 132960, Note_on_c, 9, 40, 27
9, 133001, Note_on_c, 9, 40, 0
9, 133080, Note_on_c, 9, 40, 90
9, 133188, Note_on_c, 9, 40, 0
9, 133320, Note_on_c, 9, 40, 97
9, 133423, Note_on_c, 9, 40, 0
9, 133560, Note_on_c, 9, 40, 97
9, 133689, Note_on_c, 9, 40, 0
9, 133920, Note_on_c, 9, 40, 68
9, 134035, Note_on_c, 9, 40, 0
9, 134160, Note_on_c, 9, 40, 97
9, 134279, Note_on_c, 9, 40, 0
9, 134400, Note_on_c, 9, 40, 52
9, 134483, Note_on_c, 9, 40, 0
9, 134640, Note_on_c, 9, 40, 98
9, 134762, Note_on_c, 9, 40, 0
9, 135000, Note_on_c, 9, 40, 71
9, 135113, Note_on_c, 9, 40, 0
9, 135240, Note_on_c, 9, 40, 94
9, 135353, Note_on_c, 9, 40, 0
9, 135480, Note_on_c, 9, 40, 98
9, 135614, Note_on_c, 9, 40, 0
9, 135720, Note_on_c, 9, 40, 27
9, 135765, Note_on_c, 9, 40, 0
9, 135840, Note_on_c, 9, 40, 62
9, 135949, Note_on_c, 9, 40, 0
9, 136080, Note_on_c, 9, 40, 98
9, 136195, Note_on_c, 9, 40, 0
9, 136320, Note_on_c, 9, 40, 54
9, 136414, Note_on_c, 9, 40, 0
9, 136560, Note_on_c, 9, 40, 99
9, 136802, Note_on_c, 9, 40, 0
9, 136920, Note_on_c, 9, 40, 75
9, 136990, Note_on_c, 9, 40, 0
9, 137160, Note_on_c, 9, 40, 99
9, 137258, Note_on_c, 9, 40, 0
9, 137400, Note_on_c, 9, 40, 99
9, 137515, Note_on_c, 9, 40, 0
9, 137640, Note_on_c, 9, 40, 57
9, 137695, Note_on_c, 9, 40, 0
9, 137760, Note_on_c, 9, 40, 64
9, 137832, Note_on_c, 9, 40, 0
9, 137880, Note_on_c, 9, 40, 90
9, 137954, Note_on_c, 9, 40, 0
9, 138000, Note_on_c, 9, 40, 100
9, 138122, Note_on_c, 9, 40, 0
9, 138240, Note_on_c, 9, 40, 52
9, 138323, Note_on_c, 9, 40, 0
9, 138480, Note_on_c, 9, 40, 98
9, 138602, Note_on_c, 9, 40, 0
9, 138840, Note_on_c, 9, 40, 71
9, 138953, Note_on_c, 9, 40, 0
9, 139080, Note_on_c, 9, 40, 94
9, 139193, Note_on_c, 9, 40, 0
9, 139320, Note_on_c, 9, 40, 98
9, 139454, Note_on_c, 9, 40, 0
9, 139560, Note_on_c, 9, 40, 27
9, 139605, Note_on_c, 9, 40, 0
9, 139680, Note_on_c, 9, 40, 62
9, 139789, Note_on_c, 9, 40, 0
9, 139920, Note_on_c, 9, 40, 98
9, 140035, Note_on_c, 9, 40, 0
9, 140160, Note_on_c, 9, 40, 54
9, 140254, Note_on_c, 9, 40, 0
9, 140400, Note_on_c, 9, 40, 99
9, 140642, Note_on_c, 9, 40, 0
9, 140760, Note_on_c, 9, 40, 75
9, 140830, Note_on_c, 9, 40, 0
9, 141000, Note_on_c, 9, 40, 99
9, 141098, Note_on_c, 9, 40, 0
9, 141240, Note_on_c, 9, 40, 99
9, 141355, Note_on_c, 9, 40, 0
9, 141480, Note_on_c, 9, 40, 57
9, 141535, Note_on_c, 9, 40, 0
9, 141600, Note_on_c, 9, 40, 64
9, 141672, Note_on_c, 9, 40, 0
9, 141720, Note_on_c, 9, 40, 90
9, 141794, Note_on_c, 9, 40, 0
9, 141840, Note_on_c, 9, 40, 100
9, 141962, Note_on_c, 9, 40, 0
9, 142080, Note_on_c, 9, 40, 126
9, 142153, Note_on_c, 9, 40, 0
9, 142320, Note_on_c, 9, 40, 94
9, 142433, Note_on_c, 9, 40, 0
9, 142680, Note_on_c, 9, 40, 94
9, 142787, Note_on_c, 9, 40, 0
9, 142920, Note_on_c, 9, 40, 80
9, 143047, Note_on_c, 9, 40, 0
9, 143160, Note_on_c, 9, 40, 94
9, 143304, Note_on_c, 9, 40, 0
9, 143520, Note_on_c, 9, 40, 52
9, 143600, Note_on_c, 9, 40, 0
9, 143760, Note_on_c, 9, 40, 95
9, 143868, Note_on_c, 9, 40, 0
9, 144000, Note_on_c, 9, 40, 64
9, 144104, Note_on_c, 9, 40, 0
9, 144240, Note_on_c, 9, 40, 95
9, 144367, Note_on_c, 9, 40, 0
9, 144600, Note_on_c, 9, 40, 88
9, 144711, Note_on_c, 9, 40, 0
9, 144840, Note_on_c, 9, 40, 88
9, 144951, Note_on_c, 9, 40, 0
9, 145080, Note_on_c, 9, 40, 95
9, 145222, Note_on_c, 9, 40, 0
9, 145440, Note_on_c, 9, 40, 95
9, 145528, Note_on_c, 9, 40, 0
9, 145680, Note_on_c, 9, 40, 96
9, 145789, Note_on_c, 9, 40, 0
9, 145920, Note_on_c, 9, 40, 69
9, 146004, Note_on_c, 9, 40, 0
9, 146160, Note_on_c, 9, 40, 96
9, 146298, Note_on_c, 9, 40, 0
9, 146520, Note_on_c, 9, 40, 80
9, 146645, Note_on_c, 9, 40, 0
9, 146760, Note_on_c, 9, 40, 60
9, 146858, Note_on_c, 9, 40, 0
9, 147000, Note_on_c, 9, 40, 97
9, 147127, Note_on_c, 9, 40, 0
9, 147360, Note_on_c, 9, 40, 71
9, 147360, Note_on_c, 9, 40, 76
9, 147421, Note_on_c, 9, 40, 0
9, 147421, Note_on_c, 9, 40, 0
9, 147600, Note_on_c, 9, 40, 97
9, 147723, Note_on_c, 9, 40, 0
9, 147840, Note_on_c, 9, 40, 66
9, 147933, Note_on_c, 9, 40, 0
9, 148080, Note_on_c, 9, 40, 96
9, 148207, Note_on_c, 9, 40, 0
9, 148320, Note_on_c, 9, 40, 27
9, 148361, Note_on_c, 9, 40, 0
9, 148440, Note_on_c, 9, 40, 90
9, 148548, Note_on_c, 9, 40, 0
9, 148680, Note_on_c, 9, 40, 97
9, 148783, Note_on_c, 9, 40, 0
9, 148920, Note_on_c, 9, 40, 97
9, 149049, Note_on_c, 9, 40, 0
9, 149280, Note_on_c, 9, 40, 68
9, 149395, Note_on_c, 9, 40, 0
9, 149520, Note_on_c, 9, 40, 97
9, 149639, Note_on_c, 9, 40, 0
9, 149760, Note_on_c, 9, 40, 52
9, 149843, Note_on_c, 9, 40, 0
9, 150000, Note_on_c, 9, 40, 98
9, 150122, Note_on_c, 9, 40, 0
9, 150360, Note_on_c, 9, 40, 71
9, 150473, Note_on_c, 9, 40, 0
9, 150600, Note_on_c, 9, 40, 94
9, 150713, Note_on_c, 9, 40, 0
9, 150840, Note_on_c, 9, 40, 98
9, 150974, Note_on_c, 9, 40, 0
9, 151080, Note_on_c, 9, 40, 27
9, 151125, Note_on_c, 9, 40, 0
9, 151200, Note_on_c, 9, 40, 62
9, 151309, Note_on_c, 9, 40, 0
9, 151440, Note_on_c, 9, 40, 98
9, 151555, Note_on_c, 9, 40, 0
9, 151680, Note_on_c, 9, 40, 54
9, 151774, Note_on_c, 9, 40, 0
9, 151920, Note_on_c, 9, 40, 99
9, 152162, Note_on_c, 9, 40, 0
9, 152280, Note_on_c, 9, 40, 75
9, 152350, Note_on_c, 9, 40, 0
9, 152520, Note_on_c, 9, 40, 99
9, 152618, Note_on_c, 9, 40, 0
9, 152760, Note_on_c, 9, 40, 99
9, 152875, Note_on_c, 9, 40, 0
9, 153000, Note_on_c, 9, 40, 57
9, 153055, Note_on_c, 9, 40, 0
9, 153120, Note_on_c, 9, 40, 64
9, 153192, Note_on_c, 9, 40, 0
9, 153240, Note_on_c, 9, 40, 90
9, 153314, Note_on_c, 9, 40, 0
9, 153360, Note_on_c, 9, 40, 100
9, 153482, Note_on_c, 9, 40, 0
9, 153600, Note_on_c, 9, 40, 52
9, 153683, Note_on_c, 9, 40, 0
9, 153840, Note_on_c, 9, 40, 98
9, 153962, Note_on_c, 9, 40, 0
9, 154200, Note_on_c, 9, 40, 71
9, 154313, Note_on_c, 9, 40, 0
9, 154440, Note_on_c, 9, 40, 94
9, 154553, Note_on_c, 9, 40, 0
9, 154680, Note_on_c, 9, 40, 98
9, 154814, Note_on_c, 9, 40, 0
9, 154920, Note_on_c, 9, 40, 27
9, 154965, Note_on_c, 9, 40, 0
9, 155040, Note_on_c, 9, 40, 62
9, 155149, Note_on_c, 9, 40, 0
9, 155280, Note_on_c, 9, 40, 98
9, 155395, Note_on_c, 9, 40, 0
9, 155520, Note_on_c, 9, 40, 54
9, 155614, Note_on_c, 9, 40, 0
9, 155760, Note_on_c, 9, 40, 99
9, 156002, Note_on_c, 9, 40, 0
9, 156120, Note_on_c, 9, 40, 75
9, 156190, Note_on_c, 9, 40, 0
9, 156360, Note_on_c, 9, 40, 99
9, 156458, Note_on_c, 9, 40, 0
9, 156600, Note_on_c, 9, 40, 99
9, 156715, Note_on_c, 9, 40, 0
9, 156840, Note_on_c, 9, 40, 57
9, 156895, Note_on_c, 9, 40, 0
9, 156960, Note_on_c, 9, 40, 64
9, 157032, Note_on_c, 9, 40, 0
9, 157080, Note_on_c, 9, 40, 90
9, 157154, Note_on_c, 9, 40, 0
9, 157200, Note_on_c, 9, 40, 100
9, 157322, Note_on_c, 9, 40, 0
9, 157440, Note_on_c, 9, 40, 126
9, 157513, Note_on_c, 9, 40, 0
9, 157680, Note_on_c, 9, 40, 94
9, 157793, Note_on_c, 9, 40, 0
9, 158040, Note_on_c, 9, 40, 94
9, 158147, Note_on_c, 9, 40, 0
9, 158280, Note_on_c, 9, 40, 80
9, 158407, Note_on_c, 9, 40, 0
9, 158520, Note_on_c, 9, 40, 94
9, 158664, Note_on_c, 9, 40, 0
9, 158880, Note_on_c, 9, 40, 52
9, 158960, Note_on_c, 9, 40, 0
9, 159120, Note_on_c, 9, 40, 95
9, 159228, Note_on_c, 9, 40, 0
9, 159360, Note_on_c, 9, 40, 64
9, 159464, Note_on_c, 9, 40, 0
9, 159600, Note_on_c, 9, 40, 95
9, 159727, Note_on_c, 9, 40, 0
9, 159960, Note_on_c, 9, 40, 88
9, 160071, Note_on_c, 9, 40, 0
9, 160200, Note_on_c, 9, 40, 88
9, 160311, Note_on_c, 9, 40, 0
9, 160440, Note_on_c, 9, 40, 95
9, 160582, Note_on_c, 9, 40, 0
9, 160800, Note_on_c, 9, 40, 95
9, 160888, Note_on_c, 9, 40, 0
9, 161040, Note_on_c, 9, 40, 96
9, 161149, Note_on_c, 9, 40, 0
9, 161280, Note_on_c, 9, 40, 69
9, 161364, Note_on_c, 9, 40, 0
9, 161520, Note_on_c, 9, 40, 96
9, 161658, Note_on_c, 9, 40, 0
9, 161880, Note_on_c, 9, 40, 80
9, 162005, Note_on_c, 9, 40, 0
9, 162120, Note_on_c, 9, 40, 60
9, 162218, Note_on_c, 9, 40, 0
9, 162360, Note_on_c, 9, 40, 97
9, 162487, Note_on_c, 9, 40, 0
9, 162720, Note_on_c, 9, 40, 71
9, 162720, Note_on_c, 9, 40, 76
9, 162781, Note_on_c, 9, 40, 0
9, 162781, Note_on_c, 9, 40, 0
9, 162960, Note_on_c, 9, 40, 97
9, 163083, Note_on_c, 9, 40, 0
9, 163200, Note_on_c, 9, 40, 66
9, 163293, Note_on_c, 9, 40, 0
9, 163440, Note_on_c, 9, 40, 96
9, 163567, Note_on_c, 9, 40, 0
9, 163680, Note_on_c, 9, 40, 27
9, 163721, Note_on_c, 9, 40, 0
9, 163800, Note_on_c, 9, 40, 90
9, 163908, Note_on_c, 9, 40, 0
9, 164040, Note_on_c, 9, 40, 97
9, 164143, Note_on_c, 9, 40, 0
9, 164280, Note_on_c, 9, 40, 97
9, 164409, Note_on_c, 9, 40, 0
9, 164640, Note_on_c, 9, 40, 68
9, 164755, Note_on_c, 9, 40, 0
9, 164880, Note_on_c, 9, 40, 97
9, 164999, Note_on_c, 9, 40, 0
9, 165120, Note_on_c, 9, 40, 52
9, 165203, Note_on_c, 9, 40, 0
9, 165360, Note_on_c, 9, 40, 98
9, 165482, Note_on_c, 9, 40, 0
9, 165720, Note_on_c, 9, 40, 71
9, 165833, Note_on_c, 9, 40, 0
9, 165960, Note_on_c, 9, 40, 94
9, 166073, Note_on_c, 9, 40, 0
9, 166200, Note_on_c, 9, 40, 98
9, 166334, Note_on_c, 9, 40, 0
9, 166440, Note_on_c, 9, 40, 27
9, 166485, Note_on_c, 9, 40, 0
9, 166560, Note_on_c, 9, 40, 62
9, 166669, Note_on_c, 9, 40, 0
9, 166800, Note_on_c, 9, 40, 98
9, 166915, Note_on_c, 9, 40, 0
9, 167040, Note_on_c, 9, 40, 54
9, 167134, Note_on_c, 9, 40, 0
9, 167280, Note_on_c, 9, 40, 99
9, 167522, Note_on_c, 9, 40, 0
9, 167640, Note_on_c, 9, 40, 75
9, 167710, Note_on_c, 9, 40, 0
9, 167880, Note_on_c, 9, 40, 99
9, 167978, Note_on_c, 9, 40, 0
9, 168120, Note_on_c, 9, 40, 99
9, 168235, Note_on_c, 9, 40, 0
9, 168360, Note_on_c, 9, 40, 57
9, 168415, Note_on_c, 9, 40, 0
9, 168480, Note_on_c, 9, 40, 64
9, 168552, Note_on_c, 9, 40, 0
9, 168600, Note_on_c, 9, 40, 90
9, 168674, Note_on_c, 9, 40, 0
9, 168720, Note_on_c, 9, 40, 100
9, 168842, Note_on_c, 9, 40, 0
9, 168960, Note_on_c, 9, 40, 52
9, 169043, Note_on_c, 9, 40, 0
9, 169200, Note_on_c, 9, 40, 98
9, 169322, Note_on_c, 9, 40, 0
9, 169560, Note_on_c, 9, 40, 71
9, 169673, Note_on_c, 9, 40, 0
9, 169800, Note_on_c, 9, 40, 94
9, 169913, Note_on_c, 9, 40, 0
9, 170040, Note_on_c, 9, 40, 98
9, 170174, Note_on_c, 9, 40, 0
9, 170280, Note_on_c, 9, 40, 27
9, 170325, Note_on_c, 9, 40, 0
9, 170400, Note_on_c, 9, 40, 62
9, 170509, Note_on_c, 9, 40, 0
9, 170640, Note_on_c, 9, 40, 98
9, 170755, Note_on_c, 9, 40, 0
9, 170880, Note_on_c, 9, 40, 54
9, 170974, Note_on_c, 9, 40, 0
9, 171120, Note_on_c, 9, 40, 99
9, 171362, Note_on_c, 9, 40, 0
9, 171480, Note_on_c, 9, 40, 75
9, 171550, Note_on_c, 9, 40, 0
9, 171720, Note_on_c, 9, 40, 99
9, 171818, Note_on_c, 9, 40, 0
9, 171960, Note_on_c, 9, 40, 99
9, 172075, Note_on_c, 9, 40, 0
9, 172200, Note_on_c, 9, 40, 57
9, 172255, Note_on_c, 9, 40, 0
9, 172320, Note_on_c, 9, 40, 64
9, 172392, Note_on_c, 9, 40, 0
9, 172440, Note_on_c, 9, 40, 90
9, 172514, Note_on_c, 9, 40, 0
9, 172560, Note_on_c, 9, 40, 100
9, 172682, Note_on_c, 9, 40, 0
9, 172800, Note_on_c, 9, 40, 126
9, 172873, Note_on_c, 9, 40, 0
9, 173040, Note_on_c, 9, 40, 94
9, 173153, Note_on_c, 9, 40, 0
9, 173400, Note_on_c, 9, 40, 94
9, 173507, Note_on_c, 9, 40, 0
9, 173640, Note_on_c, 9, 40, 80
9, 173767, Note_on_c, 9, 40, 0
9, 173880, Note_on_c, 9, 40, 94
9, 174024, Note_on_c, 9, 40, 0
9, 174240, Note_on_c, 9, 40, 52
9, 174320, Note_on_c, 9, 40, 0
9, 174480, Note_on_c, 9, 40, 95
9, 174588, Note_on_c, 9, 40, 0
9, 174720, Note_on_c, 9, 40, 64
9, 174824, Note_on_c, 9, 40, 0
9, 174960, Note_on_c, 9, 40, 95
9, 175087, Note_on_c, 9, 40, 0
9, 175320, Note_on_c, 9, 40, 88
9, 175431, Note_on_c, 9, 40, 0
9, 175560, Note_on_c, 9, 40, 88
9, 175671, Note_on_c, 9, 40, 0
9, 175800, Note_on_c, 9, 40, 95
9, 175942, Note_on_c, 9, 40, 0
9, 176160, Note_on_c, 9, 40, 95
9, 176248, Note_on_c, 9, 40, 0
9, 176400, Note_on_c, 9, 40, 96
9, 176509, Note_on_c, 9, 40, 0
9, 176640, Note_on_c, 9, 40, 69
9, 176724, Note_on_c, 9, 40, 0
9, 176880, Note_on_c, 9, 40, 96
9, 177018, Note_on_c, 9, 40, 0
9, 177240, Note_on_c, 9, 40, 80
9, 177365, Note_on_c, 9, 40, 0
9, 177480, Note_on_c, 9, 40, 60
9, 177578, Note_on_c, 9, 40, 0
9, 177720, Note_on_c, 9, 40, 97
9, 177847, Note_on_c, 9, 40, 0
9, 178080, Note_on_c, 9, 40, 71
9, 178080, Note_on_c, 9, 40, 76
9, 178141, Note_on_c, 9, 40, 0
9, 178141, Note_on_c, 9, 40, 0
9, 178320, Note_on_c, 9, 40, 97
9, 178443, Note_on_c, 9, 40, 0
9, 178560, Note_on_c, 9, 40, 66
9, 178653, Note_on_c, 9, 40, 0
9, 178800, Note_on_c, 9, 40, 96
9, 178927, Note_on_c, 9, 40, 0
9, 179040, Note_on_c, 9, 40, 27
9, 179081, Note_on_c, 9, 40, 0
9, 179160, Note_on_c, 9, 40, 90
9, 179268, Note_on_c, 9, 40, 0
9, 179400, Note_on_c, 9, 40, 97
9, 179503, Note_on_c, 9, 40, 0
9, 179640, Note_on_c, 9, 40, 97
9, 179769, Note_on_c, 9, 40, 0
9, 180000, Note_on_c, 9, 40, 68
9, 180115, Note_on_c, 9, 40, 0
9, 180240, Note_on_c, 9, 40, 97
9, 180359, Note_on_c, 9, 40, 0
9, 180480, Note_on_c, 9, 40, 52
9, 180563, Note_on_c, 9, 40, 0
9, 180720, Note_on_c, 9, 40, 98
9, 180842, Note_on_c, 9, 40, 0
9, 181080, Note_on_c, 9, 40, 71
9, 181193, Note_on_c, 9, 40, 0
9, 181320, Note_on_c, 9, 40, 94
9, 181433, Note_on_c, 9, 40, 0
9, 181560, Note_on_c, 9, 40, 98
9, 181694, Note_on_c, 9, 40, 0
9, 181800, Note_on_c, 9, 40, 27
9, 181845, Note_on_c, 9, 40, 0
9, 181920, Note_on_c, 9, 40, 62
9, 182029, Note_on_c, 9, 40, 0
9, 182160, Note_on_c, 9, 40, 98
9, 182275, Note_on_c, 9, 40, 0
9, 182400, Note_on_c, 9, 40, 54
9, 182494, Note_on_c, 9, 40, 0
9, 182640, Note_on_c, 9, 40, 99
9, 182882, Note_on_c, 9, 40, 0
9, 183000, Note_on_c, 9, 40, 75
9, 183070, Note_on_c, 9, 40, 0
9, 183240, Note_on_c, 9, 40, 99
9, 183338, Note_on_c, 9, 40, 0
9, 183480, Note_on_c, 9, 40, 99
9, 183595, Note_on_c, 9, 40, 0
9, 183720, Note_on_c, 9, 40, 57
9, 183775, Note_on_c, 9, 40, 0
9, 183840, Note_on_c, 9, 40, 64
9, 183912, Note_on_c, 9, 40, 0
9, 183960, Note_on_c, 9, 40, 90
9, 184034, Note_on_c, 9, 40, 0
9, 184080, Note_on_c, 9, 40, 100
9, 184202, Note_on_c, 9, 40, 0
9, 184320, Note_on_c, 9, 40, 52
9, 184403, Note_on_c, 9, 40, 0
9, 184560, Note_on_c, 9, 40, 98
9, 184682, Note_on_c, 9, 40, 0
9, 184920, Note_on_c, 9, 40, 71
9, 185033, Note_on_c, 9, 40, 0
9, 185160, Note_on_c, 9, 40, 94
9, 185273, Note_on_c, 9, 40, 0
9, 185400, Note_on_c, 9, 40, 98
9, 185534, Note_on_c, 9, 40, 0
9, 185640, Note_on_c, 9, 40, 27
9, 185685, Note_on_c, 9, 40, 0
9, 185760, Note_on_c, 9, 40, 62
9, 185869, Note_on_c, 9, 40, 0
9, 186000, Note_on_c, 9, 40, 98
9, 186115, Note_on_c, 9, 40, 0
9, 186240, Note_on_c, 9, 40, 54
9, 186334, Note_on_c, 9, 40, 0
9, 186480, Note_on_c, 9, 40, 99
9, 186722, Note_on_c, 9, 40, 0
9, 186840, Note_on_c, 9, 40, 75
9, 186910, Note_on_c, 9, 40, 0
9, 187080, Note_on_c, 9, 40, 99
9, 187178, Note_on_c, 9, 40, 0
9, 187320, Note_on_c, 9, 40, 99
9, 187435, Note_on_c, 9, 40, 0
9, 187560, Note_on_c, 9, 40, 57
9, 187615, Note_on_c, 9, 40, 0
9, 187680, Note_on_c, 9, 40, 64
9, 187752, Note_on_c, 9, 40, 0
9, 187800, Note_on_c, 9, 40, 90
9, 187874, Note_on_c, 9, 40, 0
9, 187920, Note_on_c, 9, 40, 100
9, 188042, Note_on_c, 9, 40, 0
9, 188160, Note_on_c, 9, 40, 126
9, 188233, Note_on_c, 9, 40, 0
9, 188400, Note_on_c, 9, 40, 94
9, 188513, Note_on_c, 9, 40, 0
9, 188760, Note_on_c, 9, 40, 94
9, 188867, Note_on_c, 9, 40, 0
9, 189000, Note_on_c, 9, 40, 80
9, 189127, Note_on_c, 9, 40, 0
9, 189240, Note_on_c, 9, 40, 94
9, 189384, Note_on_c, 9, 40, 0
9, 189600, Note_on_c, 9, 40, 52
9, 189680, Note_on_c, 9, 40, 0
9, 189840, Note_on_c, 9, 40, 95
9, 189948, Note_on_c, 9, 40, 0
9, 190080, Note_on_c, 9, 40, 64
9, 190184, Note_on_c, 9, 40, 0
9, 190320, Note_on_c, 9, 40, 95
9, 190447, Note_on_c, 9, 40, 0
9, 190680, Note_on_c, 9, 40, 88
9, 190791, Note_on_c, 9, 40, 0
9, 190920, Note_on_c, 9, 40, 88
9, 191031, Note_on_c, 9, 40, 0
9, 191160, Note_on_c, 9, 40, 95
9, 191302, Note_on_c, 9, 40, 0
9, 191520, Note_on_c, 9, 40, 95
9, 191608, Note_on_c, 9, 40, 0
9, 191760, Note_on_c, 9, 40, 96
9, 191869, Note_on_c, 9, 40, 0
9, 192000, Note_on_c, 9, 40, 69
9, 192084, Note_on_c, 9, 40, 0
9, 192240, Note_on_c, 9, 40, 96
9, 192378, Note_on_c, 9, 40, 0
9, 192600, Note_on_c, 9, 40, 80
9, 192725, Note_on_c, 9, 40, 0
9, 192840, Note_on_c, 9, 40, 60
9, 192938, Note_on_c, 9, 40, 0
9, 193080, Note_on_c, 9, 40, 97
9, 193207, Note_on_c, 9, 40, 0
9, 193440, Note_on_c, 9, 40, 71
9, 193440, Note_on_c, 9, 40, 76
9, 193501, Note_on_c, 9, 40, 0
9, 193501, Note_on_c, 9, 40, 0
9, 193680, Note_on_c, 9, 40, 97
9, 193803, Note_on_c, 9, 40, 0
9, 193920, Note_on_c, 9, 40, 66
9, 194013, Note_on_c, 9, 40, 0
9, 194160, Note_on_c, 9, 40, 96
9, 194287, Note_on_c, 9, 40, 0
9, 194400, Note_on_c, 9, 40, 27
9, 194441, Note_on_c, 9, 40, 0
9, 194520, Note_on_c, 9, 40, 90
9, 194628, Note_on_c, 9, 40, 0
9, 194760, Note_on_c, 9, 40, 97
9, 194863, Note_on_c, 9, 40, 0
9, 195000, Note_on_c, 9, 40, 97
9, 195129, Note_on_c, 9, 40, 0
9, 195360, Note_on_c, 9, 40, 68
9, 195475, Note_on_c, 9, 40, 0
9, 195600, Note_on_c, 9, 40, 97
9, 195719, Note_on_c, 9, 40, 0
9, 195840, Note_on_c, 9, 40, 52
9, 195923, Note_on_c, 9, 40, 0
9, 196080, Note_on_c, 9, 40, 98
9, 196202, Note_on_c, 9, 40, 0
9, 196440, Note_on_c, 9, 40, 71
9, 196553, Note_on_c, 9, 40, 0
9, 196680, Note_on_c, 9, 40, 94
9, 196793, Note_on_c, 9, 40, 0
9, 196920, Note_on_c, 9, 40, 98
9, 197054, Note_on_c, 9, 40, 0
9, 197160, Note_on_c, 9, 40, 27
9, 197205, Note_on_c, 9, 40, 0
9, 197280, Note_on_c, 9, 40, 62
9, 197389, Note_on_c, 9, 40, 0
9, 197520, Note_on_c, 9, 40, 98
9, 197635, Note_on_c, 9, 40, 0
9, 197760, Note_on_c, 9, 40, 54
9, 197854, Note_on_c, 9, 40, 0
9, 198000, Note_on_c, 9, 40, 99
9, 198242, Note_on_c, 9, 40, 0
9, 198360, Note_on_c, 9, 40, 75
9, 198430, Note_on_c, 9, 40, 0
9, 198600, Note_on_c, 9, 40, 99
9, 198698, Note_on_c, 9, 40, 0
9, 198840, Note_on_c, 9, 40, 99
9, 198955, Note_on_c, 9, 40, 0
9, 199080, Note_on_c, 9, 40, 57
9, 199135, Note_on_c, 9, 40, 0
9, 199200, Note_on_c, 9, 40, 64
9, 199272, Note_on_c, 9, 40, 0
9, 199320, Note_on_c, 9, 40, 90
9, 199394, Note_on_c, 9, 40, 0
9, 199440, Note_on_c, 9, 40, 100
9, 199562, Note_on_c, 9, 40, 0
9, 199680, Note_on_c, 9, 40, 52
9, 199763, Note_on_c, 9, 40, 0
9, 199920, Note_on_c, 9, 40, 98
9, 200042, Note_on_c, 9, 40, 0
9, 200280, Note_on_c, 9, 40, 71
9, 200393, Note_on_c, 9, 40, 0
9, 200520, Note_on_c, 9, 40, 94
9, 200633, Note_on_c, 9, 40, 0
9, 200760, Note_on_c, 9, 40, 98
9, 200894, Note_on_c, 9, 40, 0
9, 201000, Note_on_c, 9, 40, 27
9, 201045, Note_on_c, 9, 40, 0
9, 201120, Note_on_c, 9, 40, 62
9, 201229, Note_on_c, 9, 40, 0
9, 201360, Note_on_c, 9, 40, 98
9, 201475, Note_on_c, 9, 40, 0
9, 201600, Note_on_c, 9, 40, 54
9, 201694, Note_on_c, 9, 40, 0
9, 201840, Note_on_c, 9, 40, 99
9, 202082, Note_on_c, 9, 40, 0
9, 202200, Note_on_c, 9, 40, 75
9, 202270, Note_on_c, 9, 40, 0
9, 202440, Note_on_c, 9, 40, 99
9, 202538, Note_on_c, 9, 40, 0
9, 202680, Note_on_c, 9, 40, 99
9, 202795, Note_on_c, 9, 40, 0
9, 202920, Note_on_c, 9, 40, 57
9, 202975, Note_on_c, 9, 40, 0
9, 203040, Note_on_c, 9, 40, 64
9, 203112, Note_on_c, 9, 40, 0
9, 203160, Note_on_c, 9, 40, 90
9, 203234, Note_on_c, 9, 40, 0
9, 203280, Note_on_c, 9, 40, 100
9, 203402, Note_on_c, 9, 40, 0
9, 203520, Note_on_c, 9, 40, 126
9, 203593, Note_on_c, 9, 40, 0
9, 203760, Note_on_c, 9, 40, 94
9, 203873, Note_on_c, 9, 40, 0
9, 204120, Note_on_c, 9, 40, 94
9, 204227, Note_on_c, 9, 40, 0
9, 204360, Note_on_c, 9, 40, 80
9, 204487, Note_on_c, 9, 40, 0
9, 204600, Note_on_c, 9, 40, 94
9, 204744, Note_on_c, 9, 40, 0
9, 204960, Note_on_c, 9, 40, 52
9, 205040, Note_on_c, 9, 40, 0
9, 205200, Note_on_c, 9, 40, 95
9, 205308, Note_on_c, 9, 40, 0
9, 205440, Note_on_c, 9, 40, 64
9, 205544, Note_on_c, 9, 40, 0
9, 205680, Note_on_c, 9, 40, 95
9, 205807, Note_on_c, 9, 40, 0
9, 206040, Note_on_c, 9, 40, 88
9, 206151, Note_on_c, 9, 40, 0
9, 206280, Note_on_c, 9, 40, 88
9, 206391, Note_on_c, 9, 40, 0
9, 206520, Note_on_c, 9, 40, 95
9, 206662, Note_on_c, 9, 40, 0
9, 206880, Note_on_c, 9, 40, 95
9, 206968, Note_on_c, 9, 40, 0
9, 207120, Note_on_c, 9, 40, 96
9, 207229, Note_on_c, 9, 40, 0
9, 207360, Note_on_c, 9, 40, 69
9, 207444, Note_on_c, 9, 40, 0
9, 207600, Note_on_c, 9, 40, 96
9, 207738, Note_on_c, 9, 40, 0
9, 207960, Note_on_c, 9, 40, 80
9, 208085, Note_on_c, 9, 40, 0
9, 208200, Note_on_c, 9, 40, 60
9, 208298, Note_on_c, 9, 40, 0
9, 208440, Note_on_c, 9, 40, 97
9, 208567, Note_on_c, 9, 40, 0
9, 208800, Note_on_c, 9, 40, 71
9, 208800, Note_on_c, 9, 40, 76
9, 208861, Note_on_c, 9, 40, 0
9, 208861, Note_on_c, 9, 40, 0
9, 209040, Note_on_c, 9, 40, 97
9, 209163, Note_on_c, 9, 40, 0
9, 209280, Note_on_c, 9, 40, 66
9, 209373, Note_on_c, 9, 40, 0
9, 209520, Note_on_c, 9, 40, 96
9, 209647, Note_on_c, 9, 40, 0
9, 209760, Note_on_c, 9, 40, 27
9, 209801, Note_on_c, 9, 40, 0
9, 209880, Note_on_c, 9, 40, 90
9, 209988, Note_on_c, 9, 40, 0
9, 210120, Note_on_c, 9, 40, 97
9, 210223, Note_on_c, 9, 40, 0
9, 210360, Note_on_c, 9, 40, 97
9, 210489, Note_on_c, 9, 40, 0
9, 210720, Note_on_c, 9, 40, 68
9, 210835, Note_on_c, 9, 40, 0
9, 210960, Note_on_c, 9, 40, 97
9, 211079, Note_on_c, 9, 40, 0
9, 211200, Note_on_c, 9, 40, 52
9, 211283, Note_on_c, 9, 40, 0
9, 211440, Note_on_c, 9, 40, 98
9, 211562, Note_on_c, 9, 40, 0
9, 211800, Note_on_c, 9, 40, 71
9, 211913, Note_on_c, 9, 40, 0
9, 212040, Note_on_c, 9, 40, 94
9, 212153, Note_on_c, 9, 40, 0
9, 212280, Note_on_c, 9, 40, 98
9, 212414, Note_on_c, 9, 40, 0
9, 212520, Note_on_c, 9, 40, 27
9, 212565, Note_on_c, 9, 40, 0
9, 212640, Note_on_c, 9, 40, 62
9, 212749, Note_on_c, 9, 40, 0
9, 212880, Note_on_c, 9, 40, 98
9, 212995, Note_on_c, 9, 40, 0
9, 213120, Note_on_c, 9, 40, 54
9, 213214, Note_on_c, 9, 40, 0
9, 213360, Note_on_c, 9, 40, 99
9, 213602, Note_on_c, 9, 40, 0
9, 213720, Note_on_c, 9, 40, 75
9, 213790, Note_on_c, 9, 40, 0
9, 213960, Note_on_c, 9, 40, 99
9, 214058, Note_on_c, 9, 40, 0
9, 214200, Note_on_c, 9, 40, 99
9, 214315, Note_on_c, 9, 40, 0
9, 214440, Note_on_c, 9, 40, 57
9, 214495, Note_on_c, 9, 40, 0
9, 214560, Note_on_c, 9, 40, 64
9, 214632, Note_on_c, 9, 40, 0
9, 214680, Note_on_c, 9, 40, 90
9, 214754, Note_on_c, 9, 40, 0
9, 214800, Note_on_c, 9, 40, 100
9, 214922, Note_on_c, 9, 40, 0
9, 215040, Note_on_c, 9, 40, 52
9, 215123, Note_on_c, 9, 40, 0
9, 215280, Note_on_c, 9, 40, 98
9, 215402, Note_on_c, 9, 40, 0
9, 215640, Note_on_c, 9, 40, 71
9, 215753, Note_on_c, 9, 40, 0
9, 215880, Note_on_c, 9, 40, 94
9, 215993, Note_on_c, 9, 40, 0
9, 216120, Note_on_c, 9, 40, 98
9, 216254, Note_on_c, 9, 40, 0
9, 216360, Note_on_c, 9, 40, 27
9, 216405, Note_on_c, 9, 40, 0
9, 216480, Note_on_c, 9, 40, 62
9, 216589, Note_on_c, 9, 40, 0
9, 216720, Note_on_c, 9, 40, 98
9, 216835, Note_on_c, 9, 40, 0
9, 216960, Note_on_c, 9, 40, 54
9, 217054, Note_on_c, 9, 40, 0
9, 217200, Note_on_c, 9, 40, 99
9, 217442, Note_on_c, 9, 40, 0
9, 217560, Note_on_c, 9, 40, 75
9, 217630, Note_on_c, 9, 40, 0
9, 217800, Note_on_c, 9, 40, 99
9, 217898, Note_on_c, 9, 40, 0
9, 218040, Note_on_c, 9, 40, 99
9, 218155, Note_on_c, 9, 40, 0
9, 218280, Note_on_c, 9, 40, 57
9, 218335, Note_on_c, 9, 40, 0
9, 218400, Note_on_c, 9, 40, 64
9, 218472, Note_on_c, 9, 40, 0
9, 218520, Note_on_c, 9, 40, 90
9, 218594, Note_on_c, 9, 40, 0
9, 218640, Note_on_c, 9, 40, 100
9, 218762, Note_on_c, 9, 40, 0
9, 218880, Note_on_c, 9, 40, 126
9, 218953, Note_on_c, 9, 40, 0
9, 219120, Note_on_c, 9, 40, 94
9, 219233, Note_on_c, 9, 40, 0
9, 219480, Note_on_c, 9, 40, 94
9, 219587, Note_on_c, 9, 40, 0
9, 219720, Note_on_c, 9, 40, 80
9, 219847, Note_on_c, 9, 40, 0
9, 219960, Note_on_c, 9, 40, 94
9, 220104, Note_on_c, 9, 40, 0
9, 220320, Note_on_c, 9, 40, 52
9, 220400, Note_on_c, 9, 40, 0
9, 220560, Note_on_c, 9, 40, 95
9, 220668, Note_on_c, 9, 40, 0
9, 220800, Note_on_c, 9, 40, 64
9, 220904, Note_on_c, 9, 40, 0
9, 221040, Note_on_c, 9, 40, 95
9, 221167, Note_on_c, 9, 40, 0
9, 221400, Note_on_c, 9, 40, 88
9, 221511, Note_on_c, 9, 40, 0
9, 221640, Note_on_c, 9, 40, 88
9, 221751, Note_on_c, 9, 40, 0
9, 221880, Note_on_c, 9, 40, 95
9, 222022, Note_on_c, 9, 40, 0
9, 222240, Note_on_c, 9, 40, 95
9, 222328, Note_on_c, 9, 40, 0
9, 222480, Note_on_c, 9, 40, 96
9, 222589, Note_on_c, 9, 40, 0
9, 222720, Note_on_c, 9, 40, 69
9, 222804, Note_on_c, 9, 40, 0
9, 222960, Note_on_c, 9, 40, 96
9, 223098, Note_on_c, 9, 40, 0
9, 223320, Note_on_c, 9, 40, 80
9, 223445, Note_on_c, 9, 40, 0
9, 223560, Note_on_c, 9, 40, 60
9, 223658, Note_on_c, 9, 40, 0
9, 223800, Note_on_c, 9, 40, 97
9, 223927, Note_on_c, 9, 40, 0
9, 224160, Note_on_c, 9, 40, 71
9, 224160, Note_on_c, 9, 40, 76
9, 224221, Note_on_c, 9, 40, 0
9, 224221, Note_on_c, 9, 40, 0
9, 224400, Note_on_c, 9, 40, 97
9, 224523, Note_on_c, 9, 40, 0
9, 224640, Note_on_c, 9, 40, 66
9, 224733, Note_on_c, 9, 40, 0
9, 224880, Note_on_c, 9, 40, 96
9, 225007, Note_on_c, 9, 40, 0
9, 225120, Note_on_c, 9, 40, 27
9, 225161, Note_on_c, 9, 40, 0
9, 225240, Note_on_c, 9, 40, 90
9, 225348, Note_on_c, 9, 40, 0
9, 225480, Note_on_c, 9, 40, 97
9, 225583, Note_on_c, 9, 40, 0
9, 225720, Note_on_c, 9, 40, 97
9, 225849, Note_on_c, 9, 40, 0
9, 226080, Note_on_c, 9, 40, 68
9, 226195, Note_on_c, 9, 40, 0
9, 226320, Note_on_c, 9, 40, 97
9, 226439, Note_on_c, 9, 40, 0
9, 226560, Note_on_c, 9, 40, 52
9, 226643, Note_on_c, 9, 40, 0
9, 226800, Note_on_c, 9, 40, 98
9, 226922, Note_on_c, 9, 40, 0
9, 227160, Note_on_c, 9, 40, 71
9, 227273, Note_on_c, 9, 40, 0
9, 227400, Note_on_c, 9, 40, 94
9, 227513, Note_on_c, 9, 40, 0
9, 227640, Note_on_c, 9, 40, 98
9, 227774, Note_on_c, 9, 40, 0
9, 227880, Note_on_c, 9, 40, 27
9, 227925, Note_on_c, 9, 40, 0
9, 228000, Note_on_c, 9, 40, 62
9, 228109, Note_on_c, 9, 40, 0
9, 228240, Note_on_c, 9, 40, 98
9, 228355, Note_on_c, 9, 40, 0
9, 228480, Note_on_c, 9, 40, 54
9, 228574, Note_on_c, 9, 40, 0
9, 228720, Note_on_c, 9, 40, 99
9, 228962, Note_on_c, 9, 40, 0
9, 229080, Note_on_c, 9, 40, 75
9, 229150, Note_on_c, 9, 40, 0
9, 229320, Note_on_c, 9, 40, 99
9, 229418, Note_on_c, 9, 40, 0
9, 229560, Note_on_c, 9, 40, 99
9, 229675, Note_on_c, 9, 40, 0
9, 229800, Note_on_c, 9, 40, 57
9, 229855, Note_on_c, 9, 40, 0
9, 229920, Note_on_c, 9, 40, 64
9, 229992, Note_on_c, 9, 40, 0
9, 230040, Note_on_c, 9, 40, 90
9, 230114, Note_on_c, 9, 40, 0
9, 230160, Note_on_c, 9, 40, 100
9, 230282, Note_on_c, 9, 40, 0
9, 230400, Note_on_c, 9, 40, 52
9, 230483, Note_on_c, 9, 40, 0
9, 230640, Note_on_c, 9, 40, 98
9, 230762, Note_on_c, 9, 40, 0
9, 231000, Note_on_c, 9, 40, 71
9, 231113, Note_on_c, 9, 40, 0
9, 231240, Note_on_c, 9, 40, 94
9, 231353, Note_on_c, 9, 40, 0
9, 231480, Note_on_c, 9, 40, 98
9, 231614, Note_on_c, 9, 40, 0
9, 231720, Note_on_c, 9, 40, 27
9, 231765, Note_on_c, 9, 40, 0
9, 231840, Note_on_c, 9, 40, 62
9, 231949, Note_on_c, 9, 40, 0
9, 232080, Note_on_c, 9, 40, 98
9, 232195, Note_on_c, 9, 40, 0
9, 232320, Note_on_c, 9, 40, 54
9, 232414, Note_on_c, 9, 40, 0
9, 232560, Note_on_c, 9, 40, 99
9, 232802, Note_on_c, 9, 40, 0
9, 232920, Note_on_c, 9, 40, 75
9, 232990, Note_on_c, 9, 40, 0
9, 233160, Note_on_c, 9, 40, 99
9, 233258, Note_on_c, 9, 40, 0
9, 233400, Note_on_c, 9, 40, 99
9, 233515, Note_on_c, 9, 40, 0
9, 233640, Note_on_c, 9, 40, 57
9, 233695, Note_on_c, 9, 40, 0
9, 233760, Note_on_c, 9, 40, 64
9, 233832, Note_on_c, 9, 40, 0
9, 233880, Note_on_c, 9, 40, 90
9, 233954, Note_on_c, 9, 40, 0
9, 234000, Note_on_c, 9, 40, 100
9, 234122, Note_on_c, 9, 40, 0
9, 234240, Note_on_c, 9, 40, 126
9, 234313, Note_on_c, 9, 40, 0
9, 234480, Note_on_c, 9, 40, 94
9, 234593, Note_on_c, 9, 40, 0
9, 234840, Note_on_c, 9, 40, 94
9, 234947, Note_on_c, 9, 40, 0
9, 235080, Note_on_c, 9, 40, 80
9, 235207, Note_on_c, 9, 40, 0
9, 235320, Note_on_c, 9, 40, 94
9, 235464, Note_on_c, 9, 40, 0
9, 235680, Note_on_c, 9, 40, 52
9, 235760, Note_on_c, 9, 40, 0
9, 235920, Note_on_c, 9, 40, 95
9, 236028, Note_on_c, 9, 40, 0
9, 236160, Note_on_c, 9, 40, 64
9, 236264, Note_on_c, 9, 40, 0
9, 236400, Note_on_c, 9, 40, 95
9, 236527, Note_on_c, 9, 40, 0
9, 236760, Note_on_c, 9, 40, 88
9, 236871, Note_on_c, 9, 40, 0
9, 237000, Note_on_c, 9, 40, 88
9, 237111, Note_on_c, 9, 40, 0
9, 237240, Note_on_c, 9, 40, 95
9, 237382, Note_on_c, 9, 40, 0
9, 237600, Note_on_c, 9, 40, 95
9, 237688, Note_on_c, 9, 40, 0
9, 237840, Note_on_c, 9, 40, 96
9, 237949, Note_on_c, 9, 40, 0
9, 238080, Note_on_c, 9, 40, 69
9, 238164, Note_on_c, 9, 40, 0
9, 238320, Note_on_c, 9, 40, 96
9, 238458, Note_on_c, 9, 40, 0
9, 238680, Note_on_c, 9, 40, 80
9, 238805, Note_on_c, 9, 40, 0
9, 238920, Note_on_c, 9, 40, 60
9, 239018, Note_on_c, 9, 40, 0
9, 239160, Note_on_c, 9, 40, 97
9, 239287, Note_on_c, 9, 40, 0
9, 239520, Note_on_c, 9, 40, 71
9, 239520, Note_on_c, 9, 40, 76
9, 239581, Note_on_c, 9, 40, 0
9, 239581, Note_on_c, 9, 40, 0
9, 239760, Note_on_c, 9, 40, 97
9, 239883, Note_on_c, 9, 40, 0
9, 240000, Note_on_c, 9, 40, 66
9, 240093, Note_on_c, 9, 40, 0
9, 240240, Note_on_c, 9, 40, 96
9, 240367, Note_on_c, 9, 40, 0
9, 240480, Note_on_c, 9, 40, 27
9, 240521, Note_on_c, 9, 40, 0
9, 240600, Note_on_c, 9, 40, 90
9, 240708, Note_on_c, 9, 40, 0
9, 240840, Note_on_c, 9, 40, 97
9, 240943, Note_on_c, 9, 40, 0
9, 241080, Note_on_c, 9, 40, 97
9, 241209, Note_on_c, 9, 40, 0
9, 241440, Note_on_c, 9, 40, 68
9, 241555, Note_on_c, 9, 40, 0
9, 241680, Note_on_c, 9, 40, 97
9, 241799, Note_on_c, 9, 40, 0
9, 241920, Note_on_c, 9, 40, 52
9, 242003, Note_on_c, 9, 40, 0
9, 242160, Note_on_c, 9, 40, 98
9, 242282, Note_on_c, 9, 40, 0
9, 242520, Note_on_c, 9, 40, 71
9, 242633, Note_on_c, 9, 40, 0
9, 242760, Note_on_c, 9, 40, 94
9, 242873, Note_on_c, 9, 40, 0
9, 243000, Note_on_c, 9, 40, 98
9, 243134, Note_on_c, 9, 40, 0
9, 243240, Note_on_c, 9, 40, 27
9, 243285, Note_on_c, 9, 40, 0
9, 243360, Note_on_c, 9, 40, 62
9, 243469, Note_on_c, 9, 40, 0
9, 243600, Note_on_c, 9, 40, 98
9, 243715, Note_on_c, 9, 40, 0
9, 243840, Note_on_c, 9, 40, 54
9, 243934, Note_on_c, 9, 40, 0
9, 244080, Note_on_c, 9, 40, 99
9, 244322, Note_on_c, 9, 40, 0
9, 244440, Note_on_c, 9, 40, 75
9, 244510, Note_on_c, 9, 40, 0
9, 244680, Note_on_c, 9, 40, 99
9, 244778, Note_on_c, 9, 40, 0
9, 244920, Note_on_c, 9, 40, 99
9, 245035, Note_on_c, 9, 40, 0
9, 245160, Note_on_c, 9, 40, 57
9, 245215, Note_on_c, 9, 40, 0
9, 245280, Note_on_c, 9, 40, 64
9, 245352, Note_on_c, 9, 40, 0
9, 245400, Note_on_c, 9, 40, 90
9, 245474, Note_on_c, 9, 40, 0
9, 245520, Note_on_c, 9, 40, 100
9, 245642, Note_on_c, 9, 40, 0
9, 245760, Note_on_c, 9, 40, 52
9, 245843, Note_on_c, 9, 40, 0
9, 246000, Note_on_c, 9, 40, 98
9, 246122, Note_on_c, 9, 40, 0
9, 246360, Note_on_c, 9, 40, 71
9, 246473, Note_on_c, 9, 40, 0
9, 246600, Note_on_c, 9, 40, 94
9, 246713, Note_on_c, 9, 40, 0
9, 246840, Note_on_c, 9, 40, 98
9, 246974, Note_on_c, 9, 40, 0
9, 247080, Note_on_c, 9, 40, 27
9, 247125, Note_on_c, 9, 40, 0
9, 247200, Note_on_c, 9, 40, 62
9, 247309, Note_on_c, 9, 40, 0
9, 247440, Note_on_c, 9, 40, 98
9, 247555, Note_on_c, 9, 40, 0
9, 247680, Note_on_c, 9, 40, 54
9, 247774, Note_on_c, 9, 40, 0
9, 247920, Note_on_c, 9, 40, 99
9, 248162, Note_on_c, 9, 40, 0
9, 248280, Note_on_c, 9, 40, 75
9, 248350, Note_on_c, 9, 40, 0
9, 248520, Note_on_c, 9, 40, 99
9, 248618, Note_on_c, 9, 40, 0
9, 248760, Note_on_c, 9, 40, 99
9, 248875, Note_on_c, 9, 40, 0
9, 249000, Note_on_c, 9, 40, 57
9, 249055, Note_on_c, 9, 40, 0
9, 249120, Note_on_c, 9, 40, 64
9, 249192, Note_on_c, 9, 40, 0
9, 249240, Note_on_c, 9, 40, 90
9, 249314, Note_on_c, 9, 40, 0
9, 249360, Note_on_c, 9, 40, 100
9, 249482, Note_on_c, 9, 40, 0
9, 249600, Note_on_c, 9, 40, 126
9, 249673, Note_on_c, 9, 40, 0
9, 249840, Note_on_c, 9, 40, 94
9, 249953, Note_on_c, 9, 40, 0
9, 250200, Note_on_c, 9, 40, 94
9, 250307, Note_on_c, 9, 40, 0
9, 250440, Note_on_c, 9, 40, 80
9, 250567, Note_on_c, 9, 40, 0
9, 250680, Note_on_c, 9, 40, 94
9, 250824, Note_on_c, 9, 40, 0
9, 251040, Note_on_c, 9, 40, 52
9, 251120, Note_on_c, 9, 40, 0
9, 251280, Note_on_c, 9, 40, 95
9, 251388, Note_on_c, 9, 40, 0
9, 251520, Note_on_c, 9, 40, 64
9, 251624, Note_on_c, 9, 40, 0
9, 251760, Note_on_c, 9, 40, 95
9, 251887, Note_on_c, 9, 40, 0
9, 252120, Note_on_c, 9, 40, 88
9, 252231, Note_on_c, 9, 40, 0
9, 252360, Note_on_c, 9, 40, 88
9, 252471, Note_on_c, 9, 40, 0
9, 252600, Note_on_c, 9, 40, 95
9, 252742, Note_on_c, 9, 40, 0
9, 252960, Note_on_c, 9, 40, 95
9, 253048, Note_on_c, 9, 40, 0
9, 253200, Note_on_c, 9, 40, 96
9, 253309, Note_on_c, 9, 40, 0
9, 253440, Note_on_c, 9, 40, 69
9, 253524, Note_on_c, 9, 40, 0
9, 253680, Note_on_c, 9, 40, 96
9, 253818, Note_on_c, 9, 40, 0
9, 254040, Note_on_c, 9, 40, 80
9, 254165, Note_on_c, 9, 40, 0
9, 254280, Note_on_c, 9, 40, 60
9, 254378, Note_on_c, 9, 40, 0
9, 254520, Note_on_c, 9, 40, 97
9, 254647, Note_on_c, 9, 40, 0
9, 254880, Note_on_c, 9, 40, 71
9, 254880, Note_on_c, 9, 40, 76
9, 254941, Note_on_c, 9, 40, 0
9, 254941, Note_on_c, 9, 40, 0
9, 255120, Note_on_c, 9, 40, 97
9, 255243, Note_on_c, 9, 40, 0
9, 255360, Note_on_c, 9, 40, 66
9, 255453, Note_on_c, 9, 40, 0
9, 255600, Note_on_c, 9, 40, 96
9, 255727, Note_on_c, 9, 40, 0
9, 255840, Note_on_c, 9, 40, 27
9, 255881, Note_on_c, 9, 40, 0
9, 255960, Note_on_c, 9, 40, 90
9, 256068, Note_on_c, 9, 40, 0
9, 256200, Note_on_c, 9, 40, 97
9, 256303, Note_on_c, 9, 40, 0
9, 256440, Note_on_c, 9, 40, 97
9, 256569, Note_on_c, 9, 40, 0
9, 256800, Note_on_c, 9, 40, 68
9, 256915, Note_on_c, 9, 40, 0
9, 257040, Note_on_c, 9, 40, 97
9, 257159, Note_on_c, 9, 40, 0
9, 257280, Note_on_c, 9, 40, 52
9, 257363, Note_on_c, 9, 40, 0
9, 257520, Note_on_c, 9, 40, 98
9, 257642, Note_on_c, 9, 40, 0
9, 257880, Note_on_c, 9, 40, 71
9, 257993, Note_on_c, 9, 40, 0
9, 258120, Note_on_c, 9, 40, 94
9, 258233, Note_on_c, 9, 40, 0
9, 258360, Note_on_c, 9, 40, 98
9, 258494, Note_on_c, 9, 40, 0
9, 258600, Note_on_c, 9, 40, 27
9, 258645, Note_on_c, 9, 40, 0
9, 258720, Note_on_c, 9, 40, 62
9, 258829, Note_on_c, 9, 40, 0
9, 258960, Note_on_c, 9, 40, 98
9, 259075, Note_on_c, 9, 40, 0
9, 259200, Note_on_c, 9, 40, 54
9, 259294, Note_on_c, 9, 40, 0
9, 259440, Note_on_c, 9, 40, 99
9, 259682, Note_on_c, 9, 40, 0
9, 259800, Note_on_c, 9, 40, 75
9, 259870, Note_on_c, 9, 40, 0
9, 260040, Note_on_c, 9, 40, 99
9, 260138, Note_on_c, 9, 40, 0
9, 260280, Note_on_c, 9, 40, 99
9, 260395, Note_on_c, 9, 40, 0
9, 260520, Note_on_c, 9, 40, 57
9, 260575, Note_on_c, 9, 40, 0
9, 260640, Note_on_c, 9, 40, 64
9, 260712, Note_on_c, 9, 40, 0
9, 260760, Note_on_c, 9, 40, 90
9, 260834, Note_on_c, 9, 40, 0
9, 260880, Note_on_c, 9, 40, 100
9, 261002, Note_on_c, 9, 40, 0
9, 261120, Note_on_c, 9, 40, 52
9, 261203, Note_on_c, 9, 40, 0
9, 261360, Note_on_c, 9, 40, 98
9, 261482, Note_on_c, 9, 40, 0
9, 261720, Note_on_c, 9, 40, 71
9, 261833, Note_on_c, 9, 40, 0
9, 261960, Note_on_c, 9, 40, 94
9, 262073, Note_on_c, 9, 40, 0
9, 262200, Note_on_c, 9, 40, 98
9, 262334, Note_on_c, 9, 40, 0
9, 262440, Note_on_c, 9, 40, 27
9, 262485, Note_on_c, 9, 40, 0
9, 262560, Note_on_c, 9, 40, 62
9, 262669, Note_on_c, 9, 40, 0
9, 262800, Note_on_c, 9, 40, 98
9, 262915, Note_on_c, 9, 40, 0
9, 263040, Note_on_c, 9, 40, 54
9, 263134, Note_on_c, 9, 40, 0
9, 263280, Note_on_c, 9, 40, 99
9, 263522, Note_on_c, 9, 40, 0
9, 263640, Note_on_c, 9, 40, 75
9, 263710, Note_on_c, 9, 40, 0
9, 263880, Note_on_c, 9, 40, 99
9, 263978, Note_on_c, 9, 40, 0
9, 264120, Note_on_c, 9, 40, 99
9, 264235, Note_on_c, 9, 40, 0
9, 264360, Note_on_c, 9, 40, 57
9, 264415, Note_on_c, 9, 40, 0
9, 264480, Note_on_c, 9, 40, 64
9, 264552, Note_on_c, 9, 40, 0
9, 264600, Note_on_c, 9, 40, 90
9, 264674, Note_on_c, 9, 40, 0
9, 264720, Note_on_c, 9, 40, 100
9, 264842, Note_on_c, 9, 40, 0
9, 264960, Note_on_c, 9, 40, 126
9, 265033, Note_on_c, 9, 40, 0
9, 265200, Note_on_c, 9, 40, 94
9, 265313, Note_on_c, 9, 40, 0
9, 265560, Note_on_c, 9, 40, 94
9, 265667, Note_on_c, 9, 40, 0
9, 265800, Note_on_c, 9, 40, 80
9, 265927, Note_on_c, 9, 40, 0
9, 266040, Note_on_c, 9, 40, 94
9, 266184, Note_on_c, 9, 40, 0
9, 266400, Note_on_c, 9, 40, 52
9, 266480, Note_on_c, 9, 40, 0
9, 266640, Note_on_c, 9, 40, 95
9, 266748, Note_on_c, 9, 40, 0
9, 266880, Note_on_c, 9, 40, 64
9, 266984, Note_on_c, 9, 40, 0
9, 267120, Note_on_c, 9, 40, 95
9, 267247, Note_on_c, 9, 40, 0
9, 267480, Note_on_c, 9, 40, 88
9, 267591, Note_on_c, 9, 40, 0
9, 267720, Note_on_c, 9, 40, 88
9, 267831, Note_on_c, 9, 40, 0
9, 267960, Note_on_c, 9, 40, 95
9, 268102, Note_on_c, 9, 40, 0
9, 268320, Note_on_c, 9, 40, 95
9, 268408, Note_on_c, 9, 40, 0
9, 268560, Note_on_c, 9, 40, 96
9, 268669, Note_on_c, 9, 40, 0
9, 268800, Note_on_c, 9, 40, 69
9, 268884, Note_on_c, 9, 40, 0
9, 269040, Note_on_c, 9, 40, 96
9, 269178, Note_on_c, 9, 40, 0
9, 269400, Note_on_c, 9, 40, 80
9, 269525, Note_on_c, 9, 40, 0
9, 269640, Note_on_c, 9, 40, 60
9, 269738, Note_on_c, 9, 40, 0
9, 269880, Note_on_c, 9, 40, 97
9, 270007, Note_on_c, 9, 40, 0
9, 270240, Note_on_c, 9, 40, 71
9, 270240, Note_on_c, 9, 40, 76
9, 270301, Note_on_c, 9, 40, 0
9, 270301, Note_on_c, 9, 40, 0
9, 270480, Note_on_c, 9, 40, 97
9, 270603, Note_on_c, 9, 40, 0
9, 270720, Note_on_c, 9, 40, 66
9, 270813, Note_on_c, 9, 40, 0
9, 270960, Note_on_c, 9, 40, 96
9, 271087, Note_on_c, 9, 40, 0
9, 271200, Note_on_c, 9, 40, 27
9, 271241, Note_on_c, 9, 40, 0
9, 271320, Note_on_c, 9, 40, 90
9, 271428, Note_on_c, 9, 40, 0
9, 271560, Note_on_c, 9, 40, 97
9, 271663, Note_on_c, 9, 40, 0
9, 271800, Note_on_c, 9, 40, 97
9, 271929, Note_on_c, 9, 40, 0
9, 272160, Note_on_c, 9, 40, 68
9, 272275, Note_on_c, 9, 40, 0
9, 272400, Note_on_c, 9, 40, 97
9, 272519, Note_on_c, 9, 40, 0
9, 272640, Note_on_c, 9, 40, 52
9, 272723, Note_on_c, 9, 40, 0
9, 272880, Note_on_c, 9, 40, 98
9, 273002, Note_on_c, 9, 40, 0
9, 273240, Note_on_c, 9, 40, 71
9, 273353, Note_on_c, 9, 40, 0
9, 273480, Note_on_c, 9, 40, 94
9, 273593, Note_on_c, 9, 40, 0
9, 273720, Note_on_c, 9, 40, 98
9, 273854, Note_on_c, 9, 40, 0
9, 273960, Note_on_c, 9, 40, 27
9, 274005, Note_on_c, 9, 40, 0
9, 274080, Note_on_c, 9, 40, 62
9, 274189, Note_on_c, 9, 40, 0
9, 274320, Note_on_c, 9, 40, 98
9, 274435, Note_on_c, 9, 40, 0
9, 274560, Note_on_c, 9, 40, 54
9, 274654, Note_on_c, 9, 40, 0
9, 274800, Note_on_c, 9, 40, 99
9, 275042, Note_on_c, 9, 40, 0
9, 275160, Note_on_c, 9, 40, 75
9, 275230, Note_on_c, 9, 40, 0
9, 275400, Note_on_c, 9, 40, 99
9, 275498, Note_on_c, 9, 40, 0
9, 275640, Note_on_c, 9, 40, 99
9, 275755, Note_on_c, 9, 40, 0
9, 275880, Note_on_c, 9, 40, 57
9, 275935, Note_on_c, 9, 40, 0
9, 276000, Note_on_c, 9, 40, 64
9, 276072, Note_on_c, 9, 40, 0
9, 276120, Note_on_c, 9, 40, 90
9, 276194, Note_on_c, 9, 40, 0
9, 276240, Note_on_c, 9, 40, 100
9, 276362, Note_on_c, 9, 40, 0
9, 276480, Note_on_c, 9, 40, 52
9, 276563, Note_on_c, 9, 40, 0
9, 276720, Note_on_c, 9, 40, 98
9, 276842, Note_on_c, 9, 40, 0
9, 277080, Note_on_c, 9, 40, 71
9, 277193, Note_on_c, 9, 40, 0
9, 277320, Note_on_c, 9, 40, 94
9, 277433, Note_on_c, 9, 40, 0
9, 277560, Note_on_c, 9, 40, 98
9, 277694, Note_on_c, 9, 40, 0
9, 277800, Note_on_c, 9, 40, 27
9, 277845, Note_on_c, 9, 40, 0
9, 277920, Note_on_c, 9, 40, 62
9, 278029, Note_on_c, 9, 40, 0
9, 278160, Note_on_c, 9, 40, 98
9, 278275, Note_on_c, 9, 40, 0
9, 278400, Note_on_c, 9, 40, 54
9, 278494, Note_on_c, 9, 40, 0
9, 278640, Note_on_c, 9, 40, 99
9, 278882, Note_on_c, 9, 40, 0
9, 279000, Note_on_c, 9, 40, 75
9, 279070, Note_on_c, 9, 40, 0
9, 279240, Note_on_c, 9, 40, 99
9, 279338, Note_on_c, 9, 40, 0
9, 279480, Note_on_c, 9, 40, 99
9, 279595, Note_on_c, 9, 40, 0
9, 279720, Note_on_c, 9, 40, 57
9, 279775, Note_on_c, 9, 40, 0
9, 279840, Note_on_c, 9, 40, 64
9, 279912, Note_on_c, 9, 40, 0
9, 279960, Note_on_c, 9, 40, 90
9, 280034, Note_on_c, 9, 40, 0
9, 280080, Note_on_c, 9, 40, 100
9, 280202, Note_on_c, 9, 40, 0
9, 284160, End_track
10, 0, Start_track
10, 0, Text_t, "bd"
10, 3840, Note_on_c, 9, 36, 115
10, 4058, Note_on_c, 9, 36, 0
10, 4200, Note_on_c, 9, 36, 53
10, 4301, Note_on_c, 9, 36, 0
10, 4320, Note_on_c, 9, 36, 103
10, 4537, Note_on_c, 9, 36, 0
10, 4680, Note_on_c, 9, 36, 19
10, 4780, Note_on_c, 9, 36, 0
10, 4800, Note_on_c, 9, 36, 95
10, 5017, Note_on_c, 9, 36, 0
10, 5160, Note_on_c, 9, 36, 62
10, 5260, Note_on_c, 9, 36, 0
10, 5280, Note_on_c, 9, 36, 111
10, 5494, Note_on_c, 9, 36, 0
10, 5640, Note_on_c, 9, 36, 54
10, 5739, Note_on_c, 9, 36, 0
10, 5760, Note_on_c, 9, 36, 103
10, 5976, Note_on_c, 9, 36, 0
10, 6120, Note_on_c, 9, 36, 61
10, 6240, Note_on_c, 9, 36, 115
10, 6336, Note_on_c, 9, 36, 0
10, 6336, Note_on_c, 9, 36, 0
10, 6600, Note_on_c, 9, 36, 65
10, 6720, Note_on_c, 9, 36, 111
10, 6816, Note_on_c, 9, 36, 0
10, 6816, Note_on_c, 9, 36, 0
10, 7080, Note_on_c, 9, 36, 56
10, 7200, Note_on_c, 9, 36, 111
10, 7292, Note_on_c, 9, 36, 0
10, 7292, Note_on_c, 9, 36, 0
10, 7560, Note_on_c, 9, 36, 69
10, 7677, Note_on_c, 9, 36, 0
10, 7680, Note_on_c, 9, 36, 115
10, 7894, Note_on_c, 9, 36, 0
10, 8040, Note_on_c, 9, 36, 53
10, 8141, Note_on_c, 9, 36, 0
10, 8160, Note_on_c, 9, 36, 103
10, 8376, Note_on_c, 9, 36, 0
10, 8520, Note_on_c, 9, 36, 19
10, 8620, Note_on_c, 9, 36, 0
10, 8640, Note_on_c, 9, 36, 95
10, 8859, Note_on_c, 9, 36, 0
10, 9000, Note_on_c, 9, 36, 62
10, 9100, Note_on_c, 9, 36, 0
10, 9120, Note_on_c, 9, 36, 111
10, 9331, Note_on_c, 9, 36, 0
10, 9480, Note_on_c, 9, 36, 54
10, 9581, Note_on_c, 9, 36, 0
10, 9600, Note_on_c, 9, 36, 103
10, 9816, Note_on_c, 9, 36, 0
10, 9960, Note_on_c, 9, 36, 61
10, 10080, Note_on_c, 9, 36, 115
10, 10177, Note_on_c, 9, 36, 0
10, 10177, Note_on_c, 9, 36, 0
10, 10440, Note_on_c, 9, 36, 65
10, 10560, Note_on_c, 9, 36, 111
10, 10657, Note_on_c, 9, 36, 0
10, 10657, Note_on_c, 9, 36, 0
10, 10920, Note_on_c, 9, 36, 56
10, 11040, Note_on_c, 9, 36, 111
10, 11134, Note_on_c, 9, 36, 0
10, 11134, Note_on_c, 9, 36, 0
10, 11400, Note_on_c, 9, 36, 69
10, 11517, Note_on_c, 9, 36, 0
10, 11520, Note_on_c, 9, 36, 103
10, 11736, Note_on_c, 9, 36, 0
10, 11880, Note_on_c, 9, 36, 61
10, 12000, Note_on_c, 9, 36, 115
10, 12096, Note_on_c, 9, 36, 0
10, 12096, Note_on_c, 9, 36, 0
10, 12360, Note_on_c, 9, 36, 65
10, 12480, Note_on_c, 9, 36, 111
10, 12576, Note_on_c, 9, 36, 0
10, 12576, Note_on_c, 9, 36, 0
10, 12840, Note_on_c, 9, 36, 56
10, 12960, Note_on_c, 9, 36, 111
10, 13052, Note_on_c, 9, 36, 0
10, 13052, Note_on_c, 9, 36, 0
10, 13320, Note_on_c, 9, 36, 69
10, 13437, Note_on_c, 9, 36, 0
10, 13440, Note_on_c, 9, 36, 115
10, 13654, Note_on_c, 9, 36, 0
10, 13800, Note_on_c, 9, 36, 53
10, 13901, Note_on_c, 9, 36, 0
10, 13920, Note_on_c, 9, 36, 103
10, 14136, Note_on_c, 9, 36, 0
10, 14280, Note_on_c, 9, 36, 19
10, 14380, Note_on_c, 9, 36, 0
10, 14400, Note_on_c, 9, 36, 95
10, 14619, Note_on_c, 9, 36, 0
10, 14760, Note_on_c, 9, 36, 62
10, 14860, Note_on_c, 9, 36, 0
10, 14880, Note_on_c, 9, 36, 111
10, 15091, Note_on_c, 9, 36, 0
10, 15240, Note_on_c, 9, 36, 54
10, 15341, Note_on_c, 9, 36, 0
10, 15360, Note_on_c, 9, 36, 103
10, 15576, Note_on_c, 9, 36, 0
10, 15720, Note_on_c, 9, 36, 61
10, 15840, Note_on_c, 9, 36, 115
10, 15936, Note_on_c, 9, 36, 0
10, 15936, Note_on_c, 9, 36, 0
10, 16200, Note_on_c, 9, 36, 65
10, 16320, Note_on_c, 9, 36, 111
10, 16416, Note_on_c, 9, 36, 0
10, 16416, Note_on_c, 9, 36, 0
10, 16680, Note_on_c, 9, 36, 56
10, 16800, Note_on_c, 9, 36, 111
10, 16892, Note_on_c, 9, 36, 0
10, 16892, Note_on_c, 9, 36, 0
10, 17160, Note_on_c, 9, 36, 69
10, 17277, Note_on_c, 9, 36, 0
10, 17280, Note_on_c, 9, 36, 115
10, 17494, Note_on_c, 9, 36, 0
10, 17640, Note_on_c, 9, 36, 53
10, 17741, Note_on_c, 9, 36, 0
10, 17760, Note_on_c, 9, 36, 103
10, 17976, Note_on_c, 9, 36, 0
10, 18120, Note_on_c, 9, 36, 19
10, 18220, Note_on_c, 9, 36, 0
10, 18240, Note_on_c, 9, 36, 95
10, 18459, Note_on_c, 9, 36, 0
10, 18600, Note_on_c, 9, 36, 62
10, 18700, Note_on_c, 9, 36, 0
10, 18720, Note_on_c, 9, 36, 111
10, 18931, Note_on_c, 9, 36, 0
10, 19080, Note_on_c, 9, 36, 54
10, 19181, Note_on_c, 9, 36, 0
10, 19200, Note_on_c, 9, 36, 115
10, 19418, Note_on_c, 9, 36, 0
10, 19560, Note_on_c, 9, 36, 53
10, 19661, Note_on_c, 9, 36, 0
10, 19680, Note_on_c, 9, 36, 103
10, 19897, Note_on_c, 9, 36, 0
10, 20040, Note_on_c, 9, 36, 19
10, 20140, Note_on_c, 9, 36, 0
10, 20160, Note_on_c, 9, 36, 95
10, 20377, Note_on_c, 9, 36, 0
10, 20520, Note_on_c, 9, 36, 62
10, 20620, Note_on_c, 9, 36, 0
10, 20640, Note_on_c, 9, 36, 111
10, 20854, Note_on_c, 9, 36, 0
10, 21000, Note_on_c, 9, 36, 54
10, 21099, Note_on_c, 9, 36, 0
10, 21120, Note_on_c, 9, 36, 103
10, 21336, Note_on_c, 9, 36, 0
10, 21480, Note_on_c, 9, 36, 61
10, 21600, Note_on_c, 9, 36, 115
10, 21696, Note_on_c, 9, 36, 0
10, 21696, Note_on_c, 9, 36, 0
10, 21960, Note_on_c, 9, 36, 65
10, 22080, Note_on_c, 9, 36, 111
10, 22176, Note_on_c, 9, 36, 0
10, 22176, Note_on_c, 9, 36, 0
10, 22440, Note_on_c, 9, 36, 56
10, 22560, Note_on_c, 9, 36, 111
10, 22652, Note_on_c, 9, 36, 0
10, 22652, Note_on_c, 9, 36, 0
10, 22920, Note_on_c, 9, 36, 69
10, 23037, Note_on_c, 9, 36, 0
10, 23040, Note_on_c, 9, 36, 115
10, 23254, Note_on_c, 9, 36, 0
10, 23400, Note_on_c, 9, 36, 53
10, 23501, Note_on_c, 9, 36, 0
10, 23520, Note_on_c, 9, 36, 103
10, 23736, Note_on_c, 9, 36, 0
10, 23880, Note_on_c, 9, 36, 19
10, 23980, Note_on_c, 9, 36, 0
10, 24000, Note_on_c, 9, 36, 95
10, 24219, Note_on_c, 9, 36, 0
10, 24360, Note_on_c, 9, 36, 62
10, 24460, Note_on_c, 9, 36, 0
10, 24480, Note_on_c, 9, 36, 111
10, 24691, Note_on_c, 9, 36, 0
10, 24840, Note_on_c, 9, 36, 54
10, 24941, Note_on_c, 9, 36, 0
10, 24960, Note_on_c, 9, 36, 103
10, 25176, Note_on_c, 9, 36, 0
10, 25320, Note_on_c, 9, 36, 61
10, 25440, Note_on_c, 9, 36, 115
10, 25537, Note_on_c, 9, 36, 0
10, 25537, Note_on_c, 9, 36, 0
10, 25800, Note_on_c, 9, 36, 65
10, 25920, Note_on_c, 9, 36, 111
10, 26017, Note_on_c, 9, 36, 0
10, 26017, Note_on_c, 9, 36, 0
10, 26280, Note_on_c, 9, 36, 56
10, 26400, Note_on_c, 9, 36, 111
10, 26494, Note_on_c, 9, 36, 0
10, 26494, Note_on_c, 9, 36, 0
10, 26760, Note_on_c, 9, 36, 69
10, 26877, Note_on_c, 9, 36, 0
10, 26880, Note_on_c, 9, 36, 103
10, 27096, Note_on_c, 9, 36, 0
10, 27240, Note_on_c, 9, 36, 61
10, 27360, Note_on_c, 9, 36, 115
10, 27456, Note_on_c, 9, 36, 0
10, 27456, Note_on_c, 9, 36, 0
10, 27720, Note_on_c, 9, 36, 65
10, 27840, Note_on_c, 9, 36, 111
10, 27936, Note_on_c, 9, 36, 0
10, 27936, Note_on_c, 9, 36, 0
10, 28200, Note_on_c, 9, 36, 56
10, 28320, Note_on_c, 9, 36, 111
10, 28412, Note_on_c, 9, 36, 0
10, 28412, Note_on_c, 9, 36, 0
10, 28680, Note_on_c, 9, 36, 69
10, 28797, Note_on_c, 9, 36, 0
10, 28800, Note_on_c, 9, 36, 115
10, 29014, Note_on_c, 9, 36, 0
10, 29160, Note_on_c, 9, 36, 53
10, 29261, Note_on_c, 9, 36, 0
10, 29280, Note_on_c, 9, 36, 103
10, 29496, Note_on_c, 9, 36, 0
10, 29640, Note_on_c, 9, 36, 19
10, 29740, Note_on_c, 9, 36, 0
10, 29760, Note_on_c, 9, 36, 95
10, 29979, Note_on_c, 9, 36, 0
10, 30120, Note_on_c, 9, 36, 62
10, 30220, Note_on_c, 9, 36, 0
10, 30240, Note_on_c, 9, 36, 111
10, 30451, Note_on_c, 9, 36, 0
10, 30600, Note_on_c, 9, 36, 54
10, 30701, Note_on_c, 9, 36, 0
10, 30720, Note_on_c, 9, 36, 103
10, 30936, Note_on_c, 9, 36, 0
10, 31080, Note_on_c, 9, 36, 61
10, 31200, Note_on_c, 9, 36, 115
10, 31296, Note_on_c, 9, 36, 0
10, 31296, Note_on_c, 9, 36, 0
10, 31560, Note_on_c, 9, 36, 65
10, 31680, Note_on_c, 9, 36, 111
10, 31776, Note_on_c, 9, 36, 0
10, 31776, Note_on_c, 9, 36, 0
10, 32040, Note_on_c, 9, 36, 56
10, 32160, Note_on_c, 9, 36, 111
10, 32252, Note_on_c, 9, 36, 0
10, 32252, Note_on_c, 9, 36, 0
10, 32520, Note_on_c, 9, 36, 69
10, 32637, Note_on_c, 9, 36, 0
10, 32640, Note_on_c, 9, 36, 115
10, 32854, Note_on_c, 9, 36, 0
10, 33000, Note_on_c, 9, 36, 53
10, 33101, Note_on_c, 9, 36, 0
10, 33120, Note_on_c, 9, 36, 103
10, 33336, Note_on_c, 9, 36, 0
10, 33480, Note_on_c, 9, 36, 19
10, 33580, Note_on_c, 9, 36, 0
10, 33600, Note_on_c, 9, 36, 95
10, 33819, Note_on_c, 9, 36, 0
10, 33960, Note_on_c, 9, 36, 62
10, 34060, Note_on_c, 9, 36, 0
10, 34080, Note_on_c, 9, 36, 111
10, 34291, Note_on_c, 9, 36, 0
10, 34440, Note_on_c, 9, 36, 54
10, 34541, Note_on_c, 9, 36, 0
10, 34560, Note_on_c, 9, 36, 115
10, 34778, Note_on_c, 9, 36, 0
10, 34920, Note_on_c, 9, 36, 53
10, 35021, Note_on_c, 9, 36, 0
10, 35040, Note_on_c, 9, 36, 103
10, 35257, Note_on_c, 9, 36, 0
10, 35400, Note_on_c, 9, 36, 19
10, 35500, Note_on_c, 9, 36, 0
10, 35520, Note_on_c, 9, 36, 95
10, 35737, Note_on_c, 9, 36, 0
10, 35880, Note_on_c, 9, 36, 62
10, 35980, Note_on_c, 9, 36, 0
10, 36000, Note_on_c, 9, 36, 111
10, 36214, Note_on_c, 9, 36, 0
10, 36360, Note_on_c, 9, 36, 54
10, 36459, Note_on_c, 9, 36, 0
10, 36480, Note_on_c, 9, 36, 103
10, 36696, Note_on_c, 9, 36, 0
10, 36840, Note_on_c, 9, 36, 61
10, 36960, Note_on_c, 9, 36, 115
10, 37056, Note_on_c, 9, 36, 0
10, 37056, Note_on_c, 9, 36, 0
10, 37320, Note_on_c, 9, 36, 65
10, 37440, Note_on_c, 9, 36, 111
10, 37536, Note_on_c, 9, 36, 0
10, 37536, Note_on_c, 9, 36, 0
10, 37800, Note_on_c, 9, 36, 56
10, 37920, Note_on_c, 9, 36, 111
10, 38012, Note_on_c, 9, 36, 0
10, 38012, Note_on_c, 9, 36, 0
10, 38280, Note_on_c, 9, 36, 69
10, 38397, Note_on_c, 9, 36, 0
10, 38400, Note_on_c, 9, 36, 115
10, 38614, Note_on_c, 9, 36, 0
10, 38760, Note_on_c, 9, 36, 53
10, 38861, Note_on_c, 9, 36, 0
10, 38880, Note_on_c, 9, 36, 103
10, 39096, Note_on_c, 9, 36, 0
10, 39240, Note_on_c, 9, 36, 19
10, 39340, Note_on_c, 9, 36, 0
10, 39360, Note_on_c, 9, 36, 95
10, 39579, Note_on_c, 9, 36, 0
10, 39720, Note_on_c, 9, 36, 62
10, 39820, Note_on_c, 9, 36, 0
10, 39840, Note_on_c, 9, 36, 111
10, 40051, Note_on_c, 9, 36, 0
10, 40200, Note_on_c, 9, 36, 54
10, 40301, Note_on_c, 9, 36, 0
10, 40320, Note_on_c, 9, 36, 103
10, 40536, Note_on_c, 9, 36, 0
10, 40680, Note_on_c, 9, 36, 61
10, 40800, Note_on_c, 9, 36, 115
10, 40897, Note_on_c, 9, 36, 0
10, 40897, Note_on_c, 9, 36, 0
10, 41160, Note_on_c, 9, 36, 65
10, 41280, Note_on_c, 9, 36, 111
10, 41377, Note_on_c, 9, 36, 0
10, 41377, Note_on_c, 9, 36, 0
10, 41640, Note_on_c, 9, 36, 56
10, 41760, Note_on_c, 9, 36, 111
10, 41854, Note_on_c, 9, 36, 0
10, 41854, Note_on_c, 9, 36, 0
10, 42120, Note_on_c, 9, 36, 69
10, 42237, Note_on_c, 9, 36, 0
10, 42240, Note_on_c, 9, 36, 103
10, 42456, Note_on_c, 9, 36, 0
10, 42600, Note_on_c, 9, 36, 61
10, 42720, Note_on_c, 9, 36, 115
10, 42816, Note_on_c, 9, 36, 0
10, 42816, Note_on_c, 9, 36, 0
10, 43080, Note_on_c, 9, 36, 65
10, 43200, Note_on_c, 9, 36, 111
10, 43296, Note_on_c, 9, 36, 0
10, 43296, Note_on_c, 9, 36, 0
10, 43560, Note_on_c, 9, 36, 56
10, 43680, Note_on_c, 9, 36, 111
10, 43772, Note_on_c, 9, 36, 0
10, 43772, Note_on_c, 9, 36, 0
10, 44040, Note_on_c, 9, 36, 69
10, 44157, Note_on_c, 9, 36, 0
10, 44160, Note_on_c, 9, 36, 115
10, 44374, Note_on_c, 9, 36, 0
10, 44520, Note_on_c, 9, 36, 53
10, 44621, Note_on_c, 9, 36, 0
10, 44640, Note_on_c, 9, 36, 103
10, 44856, Note_on_c, 9, 36, 0
10, 45000, Note_on_c, 9, 36, 19
10, 45100, Note_on_c, 9, 36, 0
10, 45120, Note_on_c, 9, 36, 95
10, 45339, Note_on_c, 9, 36, 0
10, 45480, Note_on_c, 9, 36, 62
10, 45580, Note_on_c, 9, 36, 0
10, 45600, Note_on_c, 9, 36, 111
10, 45811, Note_on_c, 9, 36, 0
10, 45960, Note_on_c, 9, 36, 54
10, 46061, Note_on_c, 9, 36, 0
10, 46080, Note_on_c, 9, 36, 103
10, 46296, Note_on_c, 9, 36, 0
10, 46440, Note_on_c, 9, 36, 61
10, 46560, Note_on_c, 9, 36, 115
10, 46656, Note_on_c, 9, 36, 0
10, 46656, Note_on_c, 9, 36, 0
10, 46920, Note_on_c, 9, 36, 65
10, 47040, Note_on_c, 9, 36, 111
10, 47136, Note_on_c, 9, 36, 0
10, 47136, Note_on_c, 9, 36, 0
10, 47400, Note_on_c, 9, 36, 56
10, 47520, Note_on_c, 9, 36, 111
10, 47612, Note_on_c, 9, 36, 0
10, 47612, Note_on_c, 9, 36, 0
10, 47880, Note_on_c, 9, 36, 69
10, 47997, Note_on_c, 9, 36, 0
10, 48000, Note_on_c, 9, 36, 115
10, 48214, Note_on_c, 9, 36, 0
10, 48360, Note_on_c, 9, 36, 53
10, 48461, Note_on_c, 9, 36, 0
10, 48480, Note_on_c, 9, 36, 103
10, 48696, Note_on_c, 9, 36, 0
10, 48840, Note_on_c, 9, 36, 19
10, 48940, Note_on_c, 9, 36, 0
10, 48960, Note_on_c, 9, 36, 95
10, 49179, Note_on_c, 9, 36, 0
10, 49320, Note_on_c, 9, 36, 62
10, 49420, Note_on_c, 9, 36, 0
10, 49440, Note_on_c, 9, 36, 111
10, 49651, Note_on_c, 9, 36, 0
10, 49800, Note_on_c, 9, 36, 54
10, 49901, Note_on_c, 9, 36, 0
10, 49920, Note_on_c, 9, 36, 115
10, 50138, Note_on_c, 9, 36, 0
10, 50280, Note_on_c, 9, 36, 53
10, 50381, Note_on_c, 9, 36, 0
10, 50400, Note_on_c, 9, 36, 103
10, 50617, Note_on_c, 9, 36, 0
10, 50760, Note_on_c, 9, 36, 19
10, 50860, Note_on_c, 9, 36, 0
10, 50880, Note_on_c, 9, 36, 95
10, 51097, Note_on_c, 9, 36, 0
10, 51240, Note_on_c, 9, 36, 62
10, 51340, Note_on_c, 9, 36, 0
10, 51360, Note_on_c, 9, 36, 111
10, 51574, Note_on_c, 9, 36, 0
10, 51720, Note_on_c, 9, 36, 54
10, 51819, Note_on_c, 9, 36, 0
10, 51840, Note_on_c, 9, 36, 103
10, 52056, Note_on_c, 9, 36, 0
10, 52200, Note_on_c, 9, 36, 61
10, 52320, Note_on_c, 9, 36, 115
10, 52416, Note_on_c, 9, 36, 0
10, 52416, Note_on_c, 9, 36, 0
10, 52680, Note_on_c, 9, 36, 65
10, 52800, Note_on_c, 9, 36, 111
10, 52896, Note_on_c, 9, 36, 0
10, 52896, Note_on_c, 9, 36, 0
10, 53160, Note_on_c, 9, 36, 56
10, 53280, Note_on_c, 9, 36, 111
10, 53372, Note_on_c, 9, 36, 0
10, 53372, Note_on_c, 9, 36, 0
10, 53640, Note_on_c, 9, 36, 69
10, 53757, Note_on_c, 9, 36, 0
10, 53760, Note_on_c, 9, 36, 115
10, 53974, Note_on_c, 9, 36, 0
10, 54120, Note_on_c, 9, 36, 53
10, 54221, Note_on_c, 9, 36, 0
10, 54240, Note_on_c, 9, 36, 103
10, 54456, Note_on_c, 9, 36, 0
10, 54600, Note_on_c, 9, 36, 19
10, 54700, Note_on_c, 9, 36, 0
10, 54720, Note_on_c, 9, 36, 95
10, 54939, Note_on_c, 9, 36, 0
10, 55080, Note_on_c, 9, 36, 62
10, 55180, Note_on_c, 9, 36, 0
10, 55200, Note_on_c, 9, 36, 111
10, 55411, Note_on_c, 9, 36, 0
10, 55560, Note_on_c, 9, 36, 54
10, 55661, Note_on_c, 9, 36, 0
10, 55680, Note_on_c, 9, 36, 103
10, 55896, Note_on_c, 9, 36, 0
10, 56040, Note_on_c, 9, 36, 61
10, 56160, Note_on_c, 9, 36, 115
10, 56257, Note_on_c, 9, 36, 0
10, 56257, Note_on_c, 9, 36, 0
10, 56520, Note_on_c, 9, 36, 65
10, 56640, Note_on_c, 9, 36, 111
10, 56737, Note_on_c, 9, 36, 0
10, 56737, Note_on_c, 9, 36, 0
10, 57000, Note_on_c, 9, 36, 56
10, 57120, Note_on_c, 9, 36, 111
10, 57214, Note_on_c, 9, 36, 0
10, 57214, Note_on_c, 9, 36, 0
10, 57480, Note_on_c, 9, 36, 69
10, 57597, Note_on_c, 9, 36, 0
10, 57600, Note_on_c, 9, 36, 103
10, 57816, Note_on_c, 9, 36, 0
10, 57960, Note_on_c, 9, 36, 61
10, 58080, Note_on_c, 9, 36, 115
10, 58176, Note_on_c, 9, 36, 0
10, 58176, Note_on_c, 9, 36, 0
10, 58440, Note_on_c, 9, 36, 65
10, 58560, Note_on_c, 9, 36, 111
10, 58656, Note_on_c, 9, 36, 0
10, 58656, Note_on_c, 9, 36, 0
10, 58920, Note_on_c, 9, 36, 56
10, 59040, Note_on_c, 9, 36, 111
10, 59132, Note_on_c, 9, 36, 0
10, 59132, Note_on_c, 9, 36, 0
10, 59400, Note_on_c, 9, 36, 69
10, 59517, Note_on_c, 9, 36, 0
10, 59520, Note_on_c, 9, 36, 115
10, 59734, Note_on_c, 9, 36, 0
10, 59880, Note_on_c, 9, 36, 53
10, 59981, Note_on_c, 9, 36, 0
10, 60000, Note_on_c, 9, 36, 103
10, 60216, Note_on_c, 9, 36, 0
10, 60360, Note_on_c, 9, 36, 19
10, 60460, Note_on_c, 9, 36, 0
10, 60480, Note_on_c, 9, 36, 95
10, 60699, Note_on_c, 9, 36, 0
10, 60840, Note_on_c, 9, 36, 62
10, 60940, Note_on_c, 9, 36, 0
10, 60960, Note_on_c, 9, 36, 111
10, 61171, Note_on_c, 9, 36, 0
10, 61320, Note_on_c, 9, 36, 54
10, 61421, Note_on_c, 9, 36, 0
10, 61440, Note_on_c, 9, 36, 103
10, 61656, Note_on_c, 9, 36, 0
10, 61800, Note_on_c, 9, 36, 61
10, 61920, Note_on_c, 9, 36, 115
10, 62016, Note_on_c, 9, 36, 0
10, 62016, Note_on_c, 9, 36, 0
10, 62280, Note_on_c, 9, 36, 65
10, 62400, Note_on_c, 9, 36, 111
10, 62496, Note_on_c, 9, 36, 0
10, 62496, Note_on_c, 9, 36, 0
10, 62760, Note_on_c, 9, 36, 56
10, 62880, Note_on_c, 9, 36, 111
10, 62972, Note_on_c, 9, 36, 0
10, 62972, Note_on_c, 9, 36, 0
10, 63240, Note_on_c, 9, 36, 69
10, 63357, Note_on_c, 9, 36, 0
10, 63360, Note_on_c, 9, 36, 115
10, 63574, Note_on_c, 9, 36, 0
10, 63720, Note_on_c, 9, 36, 53
10, 63821, Note_on_c, 9, 36, 0
10, 63840, Note_on_c, 9, 36, 103
10, 64056, Note_on_c, 9, 36, 0
10, 64200, Note_on_c, 9, 36, 19
10, 64300, Note_on_c, 9, 36, 0
10, 64320, Note_on_c, 9, 36, 95
10, 64539, Note_on_c, 9, 36, 0
10, 64680, Note_on_c, 9, 36, 62
10, 64780, Note_on_c, 9, 36, 0
10, 64800, Note_on_c, 9, 36, 111
10, 65011, Note_on_c, 9, 36, 0
10, 65160, Note_on_c, 9, 36, 54
10, 65261, Note_on_c, 9, 36, 0
10, 65280, Note_on_c, 9, 36, 115
10, 65498, Note_on_c, 9, 36, 0
10, 65640, Note_on_c, 9, 36, 53
10, 65741, Note_on_c, 9, 36, 0
10, 65760, Note_on_c, 9, 36, 103
10, 65977, Note_on_c, 9, 36, 0
10, 66120, Note_on_c, 9, 36, 19
10, 66220, Note_on_c, 9, 36, 0
10, 66240, Note_on_c, 9, 36, 95
10, 66457, Note_on_c, 9, 36, 0
10, 66600, Note_on_c, 9, 36, 62
10, 66700, Note_on_c, 9, 36, 0
10, 66720, Note_on_c, 9, 36, 111
10, 66934, Note_on_c, 9, 36, 0
10, 67080, Note_on_c, 9, 36, 54
10, 67179, Note_on_c, 9, 36, 0
10, 67200, Note_on_c, 9, 36, 103
10, 67416, Note_on_c, 9, 36, 0
10, 67560, Note_on_c, 9, 36, 61
10, 67680, Note_on_c, 9, 36, 115
10, 67776, Note_on_c, 9, 36, 0
10, 67776, Note_on_c, 9, 36, 0
10, 68040, Note_on_c, 9, 36, 65
10, 68160, Note_on_c, 9, 36, 111
10, 68256, Note_on_c, 9, 36, 0
10, 68256, Note_on_c, 9, 36, 0
10, 68520, Note_on_c, 9, 36, 56
10, 68640, Note_on_c, 9, 36, 111
10, 68732, Note_on_c, 9, 36, 0
10, 68732, Note_on_c, 9, 36, 0
10, 69000, Note_on_c, 9, 36, 69
10, 69117, Note_on_c, 9, 36, 0
10, 69120, Note_on_c, 9, 36, 115
10, 69334, Note_on_c, 9, 36, 0
10, 69480, Note_on_c, 9, 36, 53
10, 69581, Note_on_c, 9, 36, 0
10, 69600, Note_on_c, 9, 36, 103
10, 69816, Note_on_c, 9, 36, 0
10, 69960, Note_on_c, 9, 36, 19
10, 70060, Note_on_c, 9, 36, 0
10, 70080, Note_on_c, 9, 36, 95
10, 70299, Note_on_c, 9, 36, 0
10, 70440, Note_on_c, 9, 36, 62
10, 70540, Note_on_c, 9, 36, 0
10, 70560, Note_on_c, 9, 36, 111
10, 70771, Note_on_c, 9, 36, 0
10, 70920, Note_on_c, 9, 36, 54
10, 71021, Note_on_c, 9, 36, 0
10, 71040, Note_on_c, 9, 36, 103
10, 71256, Note_on_c, 9, 36, 0
10, 71400, Note_on_c, 9, 36, 61
10, 71520, Note_on_c, 9, 36, 115
10, 71617, Note_on_c, 9, 36, 0
10, 71617, Note_on_c, 9, 36, 0
10, 71880, Note_on_c, 9, 36, 65
10, 72000, Note_on_c, 9, 36, 111
10, 72097, Note_on_c, 9, 36, 0
10, 72097, Note_on_c, 9, 36, 0
10, 72360, Note_on_c, 9, 36, 56
10, 72480, Note_on_c, 9, 36, 111
10, 72574, Note_on_c, 9, 36, 0
10, 72574, Note_on_c, 9, 36, 0
10, 72840, Note_on_c, 9, 36, 69
10, 72957, Note_on_c, 9, 36, 0
10, 72960, Note_on_c, 9, 36, 103
10, 73176, Note_on_c, 9, 36, 0
10, 73320, Note_on_c, 9, 36, 61
10, 73440, Note_on_c, 9, 36, 115
10, 73536, Note_on_c, 9, 36, 0
10, 73536, Note_on_c, 9, 36, 0
10, 73800, Note_on_c, 9, 36, 65
10, 73920, Note_on_c, 9, 36, 111
10, 74016, Note_on_c, 9, 36, 0
10, 74016, Note_on_c, 9, 36, 0
10, 74280, Note_on_c, 9, 36, 56
10, 74400, Note_on_c, 9, 36, 111
10, 74492, Note_on_c, 9, 36, 0
10, 74492, Note_on_c, 9, 36, 0
10, 74760, Note_on_c, 9, 36, 69
10, 74877, Note_on_c, 9, 36, 0
10, 74880, Note_on_c, 9, 36, 115
10, 75094, Note_on_c, 9, 36, 0
10, 75240, Note_on_c, 9, 36, 53
10, 75341, Note_on_c, 9, 36, 0
10, 75360, Note_on_c, 9, 36, 103
10, 75576, Note_on_c, 9, 36, 0
10, 75720, Note_on_c, 9, 36, 19
10, 75820, Note_on_c, 9, 36, 0
10, 75840, Note_on_c, 9, 36, 95
10, 76059, Note_on_c, 9, 36, 0
10, 76200, Note_on_c, 9, 36, 62
10, 76300, Note_on_c, 9, 36, 0
10, 76320, Note_on_c, 9, 36, 111
10, 76531, Note_on_c, 9, 36, 0
10, 76680, Note_on_c, 9, 36, 54
10, 76781, Note_on_c, 9, 36, 0
10, 76800, Note_on_c, 9, 36, 103
10, 77016, Note_on_c, 9, 36, 0
10, 77160, Note_on_c, 9, 36, 61
10, 77280, Note_on_c, 9, 36, 115
10, 77376, Note_on_c, 9, 36, 0
10, 77376, Note_on_c, 9, 36, 0
10, 77640, Note_on_c, 9, 36, 65
10, 77760, Note_on_c, 9, 36, 111
10, 77856, Note_on_c, 9, 36, 0
10, 77856, Note_on_c, 9, 36, 0
10, 78120, Note_on_c, 9, 36, 56
10, 78240, Note_on_c, 9, 36, 111
10, 78332, Note_on_c, 9, 36, 0
10, 78332, Note_on_c, 9, 36, 0
10, 78600, Note_on_c, 9, 36, 69
10, 78717, Note_on_c, 9, 36, 0
10, 78720, Note_on_c, 9, 36, 115
10, 78934, Note_on_c, 9, 36, 0
10, 79080, Note_on_c, 9, 36, 53
10, 79181, Note_on_c, 9, 36, 0
10, 79200, Note_on_c, 9, 36, 103
10, 79416, Note_on_c, 9, 36, 0
10, 79560, Note_on_c, 9, 36, 19
10, 79660, Note_on_c, 9, 36, 0
10, 79680, Note_on_c, 9, 36, 95
10, 79899, Note_on_c, 9, 36, 0
10, 80040, Note_on_c, 9, 36, 62
10, 80140, Note_on_c, 9, 36, 0
10, 80160, Note_on_c, 9, 36, 111
10, 80371, Note_on_c, 9, 36, 0
10, 80520, Note_on_c, 9, 36, 54
10, 80621, Note_on_c, 9, 36, 0
10, 80640, Note_on_c, 9, 36, 115
10, 80858, Note_on_c, 9, 36, 0
10, 81000, Note_on_c, 9, 36, 53
10, 81101, Note_on_c, 9, 36, 0
10, 81120, Note_on_c, 9, 36, 103
10, 81337, Note_on_c, 9, 36, 0
10, 81480, Note_on_c, 9, 36, 19
10, 81580, Note_on_c, 9, 36, 0
10, 81600, Note_on_c, 9, 36, 95
10, 81817, Note_on_c, 9, 36, 0
10, 81960, Note_on_c, 9, 36, 62
10, 82060, Note_on_c, 9, 36, 0
10, 82080, Note_on_c, 9, 36, 111
10, 82294, Note_on_c, 9, 36, 0
10, 82440, Note_on_c, 9, 36, 54
10, 82539, Note_on_c, 9, 36, 0
10, 82560, Note_on_c, 9, 36, 103
10, 82776, Note_on_c, 9, 36, 0
10, 82920, Note_on_c, 9, 36, 61
10, 83040, Note_on_c, 9, 36, 115
10, 83136, Note_on_c, 9, 36, 0
10, 83136, Note_on_c, 9, 36, 0
10, 83400, Note_on_c, 9, 36, 65
10, 83520, Note_on_c, 9, 36, 111
10, 83616, Note_on_c, 9, 36, 0
10, 83616, Note_on_c, 9, 36, 0
10, 83880, Note_on_c, 9, 36, 56
10, 84000, Note_on_c, 9, 36, 111
10, 84092, Note_on_c, 9, 36, 0
10, 84092, Note_on_c, 9, 36, 0
10, 84360, Note_on_c, 9, 36, 69
10, 84477, Note_on_c, 9, 36, 0
10, 84480, Note_on_c, 9, 36, 115
10, 84694, Note_on_c, 9, 36, 0
10, 84840, Note_on_c, 9, 36, 53
10, 84941, Note_on_c, 9, 36, 0
10, 84960, Note_on_c, 9, 36, 103
10, 85176, Note_on_c, 9, 36, 0
10, 85320, Note_on_c, 9, 36, 19
10, 85420, Note_on_c, 9, 36, 0
10, 85440, Note_on_c, 9, 36, 95
10, 85659, Note_on_c, 9, 36, 0
10, 85800, Note_on_c, 9, 36, 62
10, 85900, Note_on_c, 9, 36, 0
10, 85920, Note_on_c, 9, 36, 111
10, 86131, Note_on_c, 9, 36, 0
10, 86280, Note_on_c, 9, 36, 54
10, 86381, Note_on_c, 9, 36, 0
10, 86400, Note_on_c, 9, 36, 103
10, 86616, Note_on_c, 9, 36, 0
10, 86760, Note_on_c, 9, 36, 61
10, 86880, Note_on_c, 9, 36, 115
10, 86977, Note_on_c, 9, 36, 0
10, 86977, Note_on_c, 9, 36, 0
10, 87240, Note_on_c, 9, 36, 65
10, 87360, Note_on_c, 9, 36, 111
10, 87457, Note_on_c, 9, 36, 0
10, 87457, Note_on_c, 9, 36, 0
10, 87720, Note_on_c, 9, 36, 56
10, 87840, Note_on_c, 9, 36, 111
10, 87934, Note_on_c, 9, 36, 0
10, 87934, Note_on_c, 9, 36, 0
10, 88200, Note_on_c, 9, 36, 69
10, 88317, Note_on_c, 9, 36, 0
10, 88320, Note_on_c, 9, 36, 103
10, 88536, Note_on_c, 9, 36, 0
10, 88680, Note_on_c, 9, 36, 61
10, 88800, Note_on_c, 9, 36, 115
10, 88896, Note_on_c, 9, 36, 0
10, 88896, Note_on_c, 9, 36, 0
10, 89160, Note_on_c, 9, 36, 65
10, 89280, Note_on_c, 9, 36, 111
10, 89376, Note_on_c, 9, 36, 0
10, 89376, Note_on_c, 9, 36, 0
10, 89640, Note_on_c, 9, 36, 56
10, 89760, Note_on_c, 9, 36, 111
10, 89852, Note_on_c, 9, 36, 0
10, 89852, Note_on_c, 9, 36, 0
10, 90120, Note_on_c, 9, 36, 69
10, 90237, Note_on_c, 9, 36, 0
10, 90240, Note_on_c, 9, 36, 115
10, 90454, Note_on_c, 9, 36, 0
10, 90600, Note_on_c, 9, 36, 53
10, 90701, Note_on_c, 9, 36, 0
10, 90720, Note_on_c, 9, 36, 103
10, 90936, Note_on_c, 9, 36, 0
10, 91080, Note_on_c, 9, 36, 19
10, 91180, Note_on_c, 9, 36, 0
10, 91200, Note_on_c, 9, 36, 95
10, 91419, Note_on_c, 9, 36, 0
10, 91560, Note_on_c, 9, 36, 62
10, 91660, Note_on_c, 9, 36, 0
10, 91680, Note_on_c, 9, 36, 111
10, 91891, Note_on_c, 9, 36, 0
10, 92040, Note_on_c, 9, 36, 54
10, 92141, Note_on_c, 9, 36, 0
10, 92160, Note_on_c, 9, 36, 103
10, 92376, Note_on_c, 9, 36, 0
10, 92520, Note_on_c, 9, 36, 61
10, 92640, Note_on_c, 9, 36, 115
10, 92736, Note_on_c, 9, 36, 0
10, 92736, Note_on_c, 9, 36, 0
10, 93000, Note_on_c, 9, 36, 65
10, 93120, Note_on_c, 9, 36, 111
10, 93216, Note_on_c, 9, 36, 0
10, 93216, Note_on_c, 9, 36, 0
10, 93480, Note_on_c, 9, 36, 56
10, 93600, Note_on_c, 9, 36, 111
10, 93692, Note_on_c, 9, 36, 0
10, 93692, Note_on_c, 9, 36, 0
10, 93960, Note_on_c, 9, 36, 69
10, 94077, Note_on_c, 9, 36, 0
10, 94080, Note_on_c, 9, 36, 115
10, 94294, Note_on_c, 9, 36, 0
10, 94440, Note_on_c, 9, 36, 53
10, 94541, Note_on_c, 9, 36, 0
10, 94560, Note_on_c, 9, 36, 103
10, 94776, Note_on_c, 9, 36, 0
10, 94920, Note_on_c, 9, 36, 19
10, 95020, Note_on_c, 9, 36, 0
10, 95040, Note_on_c, 9, 36, 95
10, 95259, Note_on_c, 9, 36, 0
10, 95400, Note_on_c, 9, 36, 62
10, 95500, Note_on_c, 9, 36, 0
10, 95520, Note_on_c, 9, 36, 111
10, 95731, Note_on_c, 9, 36, 0
10, 95880, Note_on_c, 9, 36, 54
10, 95981, Note_on_c, 9, 36, 0
10, 96000, Note_on_c, 9, 36, 115
10, 96218, Note_on_c, 9, 36, 0
10, 96360, Note_on_c, 9, 36, 53
10, 96461, Note_on_c, 9, 36, 0
10, 96480, Note_on_c, 9, 36, 103
10, 96697, Note_on_c, 9, 36, 0
10, 96840, Note_on_c, 9, 36, 19
10, 96940, Note_on_c, 9, 36, 0
10, 96960, Note_on_c, 9, 36, 95
10, 97177, Note_on_c, 9, 36, 0
10, 97320, Note_on_c, 9, 36, 62
10, 97420, Note_on_c, 9, 36, 0
10, 97440, Note_on_c, 9, 36, 111
10, 97654, Note_on_c, 9, 36, 0
10, 97800, Note_on_c, 9, 36, 54
10, 97899, Note_on_c, 9, 36, 0
10, 97920, Note_on_c, 9, 36, 103
10, 98136, Note_on_c, 9, 36, 0
10, 98280, Note_on_c, 9, 36, 61
10, 98400, Note_on_c, 9, 36, 115
10, 98496, Note_on_c, 9, 36, 0
10, 98496, Note_on_c, 9, 36, 0
10, 98760, Note_on_c, 9, 36, 65
10, 98880, Note_on_c, 9, 36, 111
10, 98976, Note_on_c, 9, 36, 0
10, 98976, Note_on_c, 9, 36, 0
10, 99240, Note_on_c, 9, 36, 56
10, 99360, Note_on_c, 9, 36, 111
10, 99452, Note_on_c, 9, 36, 0
10, 99452, Note_on_c, 9, 36, 0
10, 99720, Note_on_c, 9, 36, 69
10, 99837, Note_on_c, 9, 36, 0
10, 99840, Note_on_c, 9, 36, 115
10, 100054, Note_on_c, 9, 36, 0
10, 100200, Note_on_c, 9, 36, 53
10, 100301, Note_on_c, 9, 36, 0
10, 100320, Note_on_c, 9, 36, 103
10, 100536, Note_on_c, 9, 36, 0
10, 100680, Note_on_c, 9, 36, 19
10, 100780, Note_on_c, 9, 36, 0
10, 100800, Note_on_c, 9, 36, 95
10, 101019, Note_on_c, 9, 36, 0
10, 101160, Note_on_c, 9, 36, 62
10, 101260, Note_on_c, 9, 36, 0
10, 101280, Note_on_c, 9, 36, 111
10, 101491, Note_on_c, 9, 36, 0
10, 101640, Note_on_c, 9, 36, 54
10, 101741, Note_on_c, 9, 36, 0
10, 101760, Note_on_c, 9, 36, 103
10, 101976, Note_on_c, 9, 36, 0
10, 102120, Note_on_c, 9, 36, 61
10, 102240, Note_on_c, 9, 36, 115
10, 102337, Note_on_c, 9, 36, 0
10, 102337, Note_on_c, 9, 36, 0
10, 102600, Note_on_c, 9, 36, 65
10, 102720, Note_on_c, 9, 36, 111
10, 102817, Note_on_c, 9, 36, 0
10, 102817, Note_on_c, 9, 36, 0
10, 103080, Note_on_c, 9, 36, 56
10, 103200, Note_on_c, 9, 36, 111
10, 103294, Note_on_c, 9, 36, 0
10, 103294, Note_on_c, 9, 36, 0
10, 103560, Note_on_c, 9, 36, 69
10, 103677, Note_on_c, 9, 36, 0
10, 103680, Note_on_c, 9, 36, 103
10, 103896, Note_on_c, 9, 36, 0
10, 104040, Note_on_c, 9, 36, 61
10, 104160, Note_on_c, 9, 36, 115
10, 104256, Note_on_c, 9, 36, 0
10, 104256, Note_on_c, 9, 36, 0
10, 104520, Note_on_c, 9, 36, 65
10, 104640, Note_on_c, 9, 36, 111
10, 104736, Note_on_c, 9, 36, 0
10, 104736, Note_on_c, 9, 36, 0
10, 105000, Note_on_c, 9, 36, 56
10, 105120, Note_on_c, 9, 36, 111
10, 105212, Note_on_c, 9, 36, 0
10, 105212, Note_on_c, 9, 36, 0
10, 105480, Note_on_c, 9, 36, 69
10, 105597, Note_on_c, 9, 36, 0
10, 105600, Note_on_c, 9, 36, 115
10, 105814, Note_on_c, 9, 36, 0
10, 105960, Note_on_c, 9, 36, 53
10, 106061, Note_on_c, 9, 36, 0
10, 106080, Note_on_c, 9, 36, 103
10, 106296, Note_on_c, 9, 36, 0
10, 106440, Note_on_c, 9, 36, 19
10, 106540, Note_on_c, 9, 36, 0
10, 106560, Note_on_c, 9, 36, 95
10, 106779, Note_on_c, 9, 36, 0
10, 106920, Note_on_c, 9, 36, 62
10, 107020, Note_on_c, 9, 36, 0
10, 107040, Note_on_c, 9, 36, 111
10, 107251, Note_on_c, 9, 36, 0
10, 107400, Note_on_c, 9, 36, 54
10, 107501, Note_on_c, 9, 36, 0
10, 107520, Note_on_c, 9, 36, 103
10, 107736, Note_on_c, 9, 36, 0
10, 107880, Note_on_c, 9, 36, 61
10, 108000, Note_on_c, 9, 36, 115
10, 108096, Note_on_c, 9, 36, 0
10, 108096, Note_on_c, 9, 36, 0
10, 108360, Note_on_c, 9, 36, 65
10, 108480, Note_on_c, 9, 36, 111
10, 108576, Note_on_c, 9, 36, 0
10, 108576, Note_on_c, 9, 36, 0
10, 108840, Note_on_c, 9, 36, 56
10, 108960, Note_on_c, 9, 36, 111
10, 109052, Note_on_c, 9, 36, 0
10, 109052, Note_on_c, 9, 36, 0
10, 109320, Note_on_c, 9, 36, 69
10, 109437, Note_on_c, 9, 36, 0
10, 109440, Note_on_c, 9, 36, 115
10, 109654, Note_on_c, 9, 36, 0
10, 109800, Note_on_c, 9, 36, 53
10, 109901, Note_on_c, 9, 36, 0
10, 109920, Note_on_c, 9, 36, 103
10, 110136, Note_on_c, 9, 36, 0
10, 110280, Note_on_c, 9, 36, 19
10, 110380, Note_on_c, 9, 36, 0
10, 110400, Note_on_c, 9, 36, 95
10, 110619, Note_on_c, 9, 36, 0
10, 110760, Note_on_c, 9, 36, 62
10, 110860, Note_on_c, 9, 36, 0
10, 110880, Note_on_c, 9, 36, 111
10, 111091, Note_on_c, 9, 36, 0
10, 111240, Note_on_c, 9, 36, 54
10, 111341, Note_on_c, 9, 36, 0
10, 111360, Note_on_c, 9, 36, 115
10, 111578, Note_on_c, 9, 36, 0
10, 111720, Note_on_c, 9, 36, 53
10, 111821, Note_on_c, 9, 36, 0
10, 111840, Note_on_c, 9, 36, 103
10, 112057, Note_on_c, 9, 36, 0
10, 112200, Note_on_c, 9, 36, 19
10, 112300, Note_on_c, 9, 36, 0
10, 112320, Note_on_c, 9, 36, 95
10, 112537, Note_on_c, 9, 36, 0
10, 112680, Note_on_c, 9, 36, 62
10, 112780, Note_on_c, 9, 36, 0
10, 112800, Note_on_c, 9, 36, 111
10, 113014, Note_on_c, 9, 36, 0
10, 113160, Note_on_c, 9, 36, 54
10, 113259, Note_on_c, 9, 36, 0
10, 113280, Note_on_c, 9, 36, 103
10, 113496, Note_on_c, 9, 36, 0
10, 113640, Note_on_c, 9, 36, 61
10, 113760, Note_on_c, 9, 36, 115
10, 113856, Note_on_c, 9, 36, 0
10, 113856, Note_on_c, 9, 36, 0
10, 114120, Note_on_c, 9, 36, 65
10, 114240, Note_on_c, 9, 36, 111
10, 114336, Note_on_c, 9, 36, 0
10, 114336, Note_on_c, 9, 36, 0
10, 114600, Note_on_c, 9, 36, 56
10, 114720, Note_on_c, 9, 36, 111
10, 114812, Note_on_c, 9, 36, 0
10, 114812, Note_on_c, 9, 36, 0
10, 115080, Note_on_c, 9, 36, 69
10, 115197, Note_on_c, 9, 36, 0
10, 115200, Note_on_c, 9, 36, 115
10, 115414, Note_on_c, 9, 36, 0
10, 115560, Note_on_c, 9, 36, 53
10, 115661, Note_on_c, 9, 36, 0
10, 115680, Note_on_c, 9, 36, 103
10, 115896, Note_on_c, 9, 36, 0
10, 116040, Note_on_c, 9, 36, 19
10, 116140, Note_on_c, 9, 36, 0
10, 116160, Note_on_c, 9, 36, 95
10, 116379, Note_on_c, 9, 36, 0
10, 116520, Note_on_c, 9, 36, 62
10, 116620, Note_on_c, 9, 36, 0
10, 116640, Note_on_c, 9, 36, 111
10, 116851, Note_on_c, 9, 36, 0
10, 117000, Note_on_c, 9, 36, 54
10, 117101, Note_on_c, 9, 36, 0
10, 117120, Note_on_c, 9, 36, 103
10, 117336, Note_on_c, 9, 36, 0
10, 117480, Note_on_c, 9, 36, 61
10, 117600, Note_on_c, 9, 36, 115
10, 117697, Note_on_c, 9, 36, 0
10, 117697, Note_on_c, 9, 36, 0
10, 117960, Note_on_c, 9, 36, 65
10, 118080, Note_on_c, 9, 36, 111
10, 118177, Note_on_c, 9, 36, 0
10, 118177, Note_on_c, 9, 36, 0
10, 118440, Note_on_c, 9, 36, 56
10, 118560, Note_on_c, 9, 36, 111
10, 118654, Note_on_c, 9, 36, 0
10, 118654, Note_on_c, 9, 36, 0
10, 118920, Note_on_c, 9, 36, 69
10, 119037, Note_on_c, 9, 36, 0
10, 119040, Note_on_c, 9, 36, 103
10, 119256, Note_on_c, 9, 36, 0
10, 119400, Note_on_c, 9, 36, 61
10, 119520, Note_on_c, 9, 36, 115
10, 119616, Note_on_c, 9, 36, 0
10, 119616, Note_on_c, 9, 36, 0
10, 119880, Note_on_c, 9, 36, 65
10, 120000, Note_on_c, 9, 36, 111
10, 120096, Note_on_c, 9, 36, 0
10, 120096, Note_on_c, 9, 36, 0
10, 120360, Note_on_c, 9, 36, 56
10, 120480, Note_on_c, 9, 36, 111
10, 120572, Note_on_c, 9, 36, 0
10, 120572, Note_on_c, 9, 36, 0
10, 120840, Note_on_c, 9, 36, 69
10, 120957, Note_on_c, 9, 36, 0
10, 120960, Note_on_c, 9, 36, 115
10, 121174, Note_on_c, 9, 36, 0
10, 121320, Note_on_c, 9, 36, 53
10, 121421, Note_on_c, 9, 36, 0
10, 121440, Note_on_c, 9, 36, 103
10, 121656, Note_on_c, 9, 36, 0
10, 121800, Note_on_c, 9, 36, 19
10, 121900, Note_on_c, 9, 36, 0
10, 121920, Note_on_c, 9, 36, 95
10, 122139, Note_on_c, 9, 36, 0
10, 122280, Note_on_c, 9, 36, 62
10, 122380, Note_on_c, 9, 36, 0
10, 122400, Note_on_c, 9, 36, 111
10, 122611, Note_on_c, 9, 36, 0
10, 122760, Note_on_c, 9, 36, 54
10, 122861, Note_on_c, 9, 36, 0
10, 122880, Note_on_c, 9, 36, 103
10, 123096, Note_on_c, 9, 36, 0
10, 123240, Note_on_c, 9, 36, 61
10, 123360, Note_on_c, 9, 36, 115
10, 123456, Note_on_c, 9, 36, 0
10, 123456, Note_on_c, 9, 36, 0
10, 123720, Note_on_c, 9, 36, 65
10, 123840, Note_on_c, 9, 36, 111
10, 123936, Note_on_c, 9, 36, 0
10, 123936, Note_on_c, 9, 36, 0
10, 124200, Note_on_c, 9, 36, 56
10, 124320, Note_on_c, 9, 36, 111
10, 124412, Note_on_c, 9, 36, 0
10, 124412, Note_on_c, 9, 36, 0
10, 124680, Note_on_c, 9, 36, 69
10, 124797, Note_on_c, 9, 36, 0
10, 124800, Note_on_c, 9, 36, 115
10, 125014, Note_on_c, 9, 36, 0
10, 125160, Note_on_c, 9, 36, 53
10, 125261, Note_on_c, 9, 36, 0
10, 125280, Note_on_c, 9, 36, 103
10, 125496, Note_on_c, 9, 36, 0
10, 125640, Note_on_c, 9, 36, 19
10, 125740, Note_on_c, 9, 36, 0
10, 125760, Note_on_c, 9, 36, 95
10, 125979, Note_on_c, 9, 36, 0
10, 126120, Note_on_c, 9, 36, 62
10, 126220, Note_on_c, 9, 36, 0
10, 126240, Note_on_c, 9, 36, 111
10, 126451, Note_on_c, 9, 36, 0
10, 126600, Note_on_c, 9, 36, 54
10, 126701, Note_on_c, 9, 36, 0
10, 126720, Note_on_c, 9, 36, 115
10, 126938, Note_on_c, 9, 36, 0
10, 127080, Note_on_c, 9, 36, 53
10, 127181, Note_on_c, 9, 36, 0
10, 127200, Note_on_c, 9, 36, 103
10, 127417, Note_on_c, 9, 36, 0
10, 127560, Note_on_c, 9, 36, 19
10, 127660, Note_on_c, 9, 36, 0
10, 127680, Note_on_c, 9, 36, 95
10, 127897, Note_on_c, 9, 36, 0
10, 128040, Note_on_c, 9, 36, 62
10, 128140, Note_on_c, 9, 36, 0
10, 128160, Note_on_c, 9, 36, 111
10, 128374, Note_on_c, 9, 36, 0
10, 128520, Note_on_c, 9, 36, 54
10, 128619, Note_on_c, 9, 36, 0
10, 128640, Note_on_c, 9, 36, 103
10, 128856, Note_on_c, 9, 36, 0
10, 129000, Note_on_c, 9, 36, 61
10, 129120, Note_on_c, 9, 36, 115
10, 129216, Note_on_c, 9, 36, 0
10, 129216, Note_on_c, 9, 36, 0
10, 129480, Note_on_c, 9, 36, 65
10, 129600, Note_on_c, 9, 36, 111
10, 129696, Note_on_c, 9, 36, 0
10, 129696, Note_on_c, 9, 36, 0
10, 129960, Note_on_c, 9, 36, 56
10, 130080, Note_on_c, 9, 36, 111
10, 130172, Note_on_c, 9, 36, 0
10, 130172, Note_on_c, 9, 36, 0
10, 130440, Note_on_c, 9, 36, 69
10, 130557, Note_on_c, 9, 36, 0
10, 130560, Note_on_c, 9, 36, 115
10, 130774, Note_on_c, 9, 36, 0
10, 130920, Note_on_c, 9, 36, 53
10, 131021, Note_on_c, 9, 36, 0
10, 131040, Note_on_c, 9, 36, 103
10, 131256, Note_on_c, 9, 36, 0
10, 131400, Note_on_c, 9, 36, 19
10, 131500, Note_on_c, 9, 36, 0
10, 131520, Note_on_c, 9, 36, 95
10, 131739, Note_on_c, 9, 36, 0
10, 131880, Note_on_c, 9, 36, 62
10, 131980, Note_on_c, 9, 36, 0
10, 132000, Note_on_c, 9, 36, 111
10, 132211, Note_on_c, 9, 36, 0
10, 132360, Note_on_c, 9, 36, 54
10, 132461, Note_on_c, 9, 36, 0
10, 132480, Note_on_c, 9, 36, 103
10, 132696, Note_on_c, 9, 36, 0
10, 132840, Note_on_c, 9, 36, 61
10, 132960, Note_on_c, 9, 36, 115
10, 133057, Note_on_c, 9, 36, 0
10, 133057, Note_on_c, 9, 36, 0
10, 133320, Note_on_c, 9, 36, 65
10, 133440, Note_on_c, 9, 36, 111
10, 133537, Note_on_c, 9, 36, 0
10, 133537, Note_on_c, 9, 36, 0
10, 133800, Note_on_c, 9, 36, 56
10, 133920, Note_on_c, 9, 36, 111
10, 134014, Note_on_c, 9, 36, 0
10, 134014, Note_on_c, 9, 36, 0
10, 134280, Note_on_c, 9, 36, 69
10, 134397, Note_on_c, 9, 36, 0
10, 134400, Note_on_c, 9, 36, 103
10, 134616, Note_on_c, 9, 36, 0
10, 134760, Note_on_c, 9, 36, 61
10, 134880, Note_on_c, 9, 36, 115
10, 134976, Note_on_c, 9, 36, 0
10, 134976, Note_on_c, 9, 36, 0
10, 135240, Note_on_c, 9, 36, 65
10, 135360, Note_on_c, 9, 36, 111
10, 135456, Note_on_c, 9, 36, 0
10, 135456, Note_on_c, 9, 36, 0
10, 135720, Note_on_c, 9, 36, 56
10, 135840, Note_on_c, 9, 36, 111
10, 135932, Note_on_c, 9, 36, 0
10, 135932, Note_on_c, 9, 36, 0
10, 136200, Note_on_c, 9, 36, 69
10, 136317, Note_on_c, 9, 36, 0
10, 136320, Note_on_c, 9, 36, 115
10, 136534, Note_on_c, 9, 36, 0
10, 136680, Note_on_c, 9, 36, 53
10, 136781, Note_on_c, 9, 36, 0
10, 136800, Note_on_c, 9, 36, 103
10, 137016, Note_on_c, 9, 36, 0
10, 137160, Note_on_c, 9, 36, 19
10, 137260, Note_on_c, 9, 36, 0
10, 137280, Note_on_c, 9, 36, 95
10, 137499, Note_on_c, 9, 36, 0
10, 137640, Note_on_c, 9, 36, 62
10, 137740, Note_on_c, 9, 36, 0
10, 137760, Note_on_c, 9, 36, 111
10, 137971, Note_on_c, 9, 36, 0
10, 138120, Note_on_c, 9, 36, 54
10, 138221, Note_on_c, 9, 36, 0
10, 138240, Note_on_c, 9, 36, 103
10, 138456, Note_on_c, 9, 36, 0
10, 138600, Note_on_c, 9, 36, 61
10, 138720, Note_on_c, 9, 36, 115
10, 138816, Note_on_c, 9, 36, 0
10, 138816, Note_on_c, 9, 36, 0
10, 139080, Note_on_c, 9, 36, 65
10, 139200, Note_on_c, 9, 36, 111
10, 139296, Note_on_c, 9, 36, 0
10, 139296, Note_on_c, 9, 36, 0
10, 139560, Note_on_c, 9, 36, 56
10, 139680, Note_on_c, 9, 36, 111
10, 139772, Note_on_c, 9, 36, 0
10, 139772, Note_on_c, 9, 36, 0
10, 140040, Note_on_c, 9, 36, 69
10, 140157, Note_on_c, 9, 36, 0
10, 140160, Note_on_c, 9, 36, 115
10, 140374, Note_on_c, 9, 36, 0
10, 140520, Note_on_c, 9, 36, 53
10, 140621, Note_on_c, 9, 36, 0
10, 140640, Note_on_c, 9, 36, 103
10, 140856, Note_on_c, 9, 36, 0
10, 141000, Note_on_c, 9, 36, 19
10, 141100, Note_on_c, 9, 36, 0
10, 141120, Note_on_c, 9, 36, 95
10, 141339, Note_on_c, 9, 36, 0
10, 141480, Note_on_c, 9, 36, 62
10, 141580, Note_on_c, 9, 36, 0
10, 141600, Note_on_c, 9, 36, 111
10, 141811, Note_on_c, 9, 36, 0
10, 141960, Note_on_c, 9, 36, 54
10, 142061, Note_on_c, 9, 36, 0
10, 142080, Note_on_c, 9, 36, 115
10, 142298, Note_on_c, 9, 36, 0
10, 142440, Note_on_c, 9, 36, 53
10, 142541, Note_on_c, 9, 36, 0
10, 142560, Note_on_c, 9, 36, 103
10, 142777, Note_on_c, 9, 36, 0
10, 142920, Note_on_c, 9, 36, 19
10, 143020, Note_on_c, 9, 36, 0
10, 143040, Note_on_c, 9, 36, 95
10, 143257, Note_on_c, 9, 36, 0
10, 143400, Note_on_c, 9, 36, 62
10, 143500, Note_on_c, 9, 36, 0
10, 143520, Note_on_c, 9, 36, 111
10, 143734, Note_on_c, 9, 36, 0
10, 143880, Note_on_c, 9, 36, 54
10, 143979, Note_on_c, 9, 36, 0
10, 144000, Note_on_c, 9, 36, 103
10, 144216, Note_on_c, 9, 36, 0
10, 144360, Note_on_c, 9, 36, 61
10, 144480, Note_on_c, 9, 36, 115
10, 144576, Note_on_c, 9, 36, 0
10, 144576, Note_on_c, 9, 36, 0
10, 144840, Note_on_c, 9, 36, 65
10, 144960, Note_on_c, 9, 36, 111
10, 145056, Note_on_c, 9, 36, 0
10, 145056, Note_on_c, 9, 36, 0
10, 145320, Note_on_c, 9, 36, 56
10, 145440, Note_on_c, 9, 36, 111
10, 145532, Note_on_c, 9, 36, 0
10, 145532, Note_on_c, 9, 36, 0
10, 145800, Note_on_c, 9, 36, 69
10, 145917, Note_on_c, 9, 36, 0
10, 145920, Note_on_c, 9, 36, 115
10, 146134, Note_on_c, 9, 36, 0
10, 146280, Note_on_c, 9, 36, 53
10, 146381, Note_on_c, 9, 36, 0
10, 146400, Note_on_c, 9, 36, 103
10, 146616, Note_on_c, 9, 36, 0
10, 146760, Note_on_c, 9, 36, 19
10, 146860, Note_on_c, 9, 36, 0
10, 146880, Note_on_c, 9, 36, 95
10, 147099, Note_on_c, 9, 36, 0
10, 147240, Note_on_c, 9, 36, 62
10, 147340, Note_on_c, 9, 36, 0
10, 147360, Note_on_c, 9, 36, 111
10, 147571, Note_on_c, 9, 36, 0
10, 147720, Note_on_c, 9, 36, 54
10, 147821, Note_on_c, 9, 36, 0
10, 147840, Note_on_c, 9, 36, 103
10, 148056, Note_on_c, 9, 36, 0
10, 148200, Note_on_c, 9, 36, 61
10, 148320, Note_on_c, 9, 36, 115
10, 148417, Note_on_c, 9, 36, 0
10, 148417, Note_on_c, 9, 36, 0
10, 148680, Note_on_c, 9, 36, 65
10, 148800, Note_on_c, 9, 36, 111
10, 148897, Note_on_c, 9, 36, 0
10, 148897, Note_on_c, 9, 36, 0
10, 149160, Note_on_c, 9, 36, 56
10, 149280, Note_on_c, 9, 36, 111
10, 149374, Note_on_c, 9, 36, 0
10, 149374, Note_on_c, 9, 36, 0
10, 149640, Note_on_c, 9, 36, 69
10, 149757, Note_on_c, 9, 36, 0
10, 149760, Note_on_c, 9, 36, 103
10, 149976, Note_on_c, 9, 36, 0
10, 150120, Note_on_c, 9, 36, 61
10, 150240, Note_on_c, 9, 36, 115
10, 150336, Note_on_c, 9, 36, 0
10, 150336, Note_on_c, 9, 36, 0
10, 150600, Note_on_c, 9, 36, 65
10, 150720, Note_on_c, 9, 36, 111
10, 150816, Note_on_c, 9, 36, 0
10, 150816, Note_on_c, 9, 36, 0
10, 151080, Note_on_c, 9, 36, 56
10, 151200, Note_on_c, 9, 36, 111
10, 151292, Note_on_c, 9, 36, 0
10, 151292, Note_on_c, 9, 36, 0
10, 151560, Note_on_c, 9, 36, 69
10, 151677, Note_on_c, 9, 36, 0
10, 151680, Note_on_c, 9, 36, 115
10, 151894, Note_on_c, 9, 36, 0
10, 152040, Note_on_c, 9, 36, 53
10, 152141, Note_on_c, 9, 36, 0
10, 152160, Note_on_c, 9, 36, 103
10, 152376, Note_on_c, 9, 36, 0
10, 152520, Note_on_c, 9, 36, 19
10, 152620, Note_on_c, 9, 36, 0
10, 152640, Note_on_c, 9, 36, 95
10, 152859, Note_on_c, 9, 36, 0
10, 153000, Note_on_c, 9, 36, 62
10, 153100, Note_on_c, 9, 36, 0
10, 153120, Note_on_c, 9, 36, 111
10, 153331, Note_on_c, 9, 36, 0
10, 153480, Note_on_c, 9, 36, 54
10, 153581, Note_on_c, 9, 36, 0
10, 153600, Note_on_c, 9, 36, 103
10, 153816, Note_on_c, 9, 36, 0
10, 153960, Note_on_c, 9, 36, 61
10, 154080, Note_on_c, 9, 36, 115
10, 154176, Note_on_c, 9, 36, 0
10, 154176, Note_on_c, 9, 36, 0
10, 154440, Note_on_c, 9, 36, 65
10, 154560, Note_on_c, 9, 36, 111
10, 154656, Note_on_c, 9, 36, 0
10, 154656, Note_on_c, 9, 36, 0
10, 154920, Note_on_c, 9, 36, 56
10, 155040, Note_on_c, 9, 36, 111
10, 155132, Note_on_c, 9, 36, 0
10, 155132, Note_on_c, 9, 36, 0
10, 155400, Note_on_c, 9, 36, 69
10, 155517, Note_on_c, 9, 36, 0
10, 155520, Note_on_c, 9, 36, 115
10, 155734, Note_on_c, 9, 36, 0
10, 155880, Note_on_c, 9, 36, 53
10, 155981, Note_on_c, 9, 36, 0
10, 156000, Note_on_c, 9, 36, 103
10, 156216, Note_on_c, 9, 36, 0
10, 156360, Note_on_c, 9, 36, 19
10, 156460, Note_on_c, 9, 36, 0
10, 156480, Note_on_c, 9, 36, 95
10, 156699, Note_on_c, 9, 36, 0
10, 156840, Note_on_c, 9, 36, 62
10, 156940, Note_on_c, 9, 36, 0
10, 156960, Note_on_c, 9, 36, 111
10, 157171, Note_on_c, 9, 36, 0
10, 157320, Note_on_c, 9, 36, 54
10, 157421, Note_on_c, 9, 36, 0
10, 157440, Note_on_c, 9, 36, 115
10, 157658, Note_on_c, 9, 36, 0
10, 157800, Note_on_c, 9, 36, 53
10, 157901, Note_on_c, 9, 36, 0
10, 157920, Note_on_c, 9, 36, 103
10, 158137, Note_on_c, 9, 36, 0
10, 158280, Note_on_c, 9, 36, 19
10, 158380, Note_on_c, 9, 36, 0
10, 158400, Note_on_c, 9, 36, 95
10, 158617, Note_on_c, 9, 36, 0
10, 158760, Note_on_c, 9, 36, 62
10, 158860, Note_on_c, 9, 36, 0
10, 158880, Note_on_c, 9, 36, 111
10, 159094, Note_on_c, 9, 36, 0
10, 159240, Note_on_c, 9, 36, 54
10, 159339, Note_on_c, 9, 36, 0
10, 159360, Note_on_c, 9, 36, 103
10, 159576, Note_on_c, 9, 36, 0
10, 159720, Note_on_c, 9, 36, 61
10, 159840, Note_on_c, 9, 36, 115
10, 159936, Note_on_c, 9, 36, 0
10, 159936, Note_on_c, 9, 36, 0
10, 160200, Note_on_c, 9, 36, 65
10, 160320, Note_on_c, 9, 36, 111
10, 160416, Note_on_c, 9, 36, 0
10, 160416, Note_on_c, 9, 36, 0
10, 160680, Note_on_c, 9, 36, 56
10, 160800, Note_on_c, 9, 36, 111
10, 160892, Note_on_c, 9, 36, 0
10, 160892, Note_on_c, 9, 36, 0
10, 161160, Note_on_c, 9, 36, 69
10, 161277, Note_on_c, 9, 36, 0
10, 161280, Note_on_c, 9, 36, 115
10, 161494, Note_on_c, 9, 36, 0
10, 161640, Note_on_c, 9, 36, 53
10, 161741, Note_on_c, 9, 36, 0
10, 161760, Note_on_c, 9, 36, 103
10, 161976, Note_on_c, 9, 36, 0
10, 162120, Note_on_c, 9, 36, 19
10, 162220, Note_on_c, 9, 36, 0
10, 162240, Note_on_c, 9, 36, 95
10, 162459, Note_on_c, 9, 36, 0
10, 162600, Note_on_c, 9, 36, 62
10, 162700, Note_on_c, 9, 36, 0
10, 162720, Note_on_c, 9, 36, 111
10, 162931, Note_on_c, 9, 36, 0
10, 163080, Note_on_c, 9, 36, 54
10, 163181, Note_on_c, 9, 36, 0
10, 163200, Note_on_c, 9, 36, 103
10, 163416, Note_on_c, 9, 36, 0
10, 163560, Note_on_c, 9, 36, 61
10, 163680, Note_on_c, 9, 36, 115
10, 163777, Note_on_c, 9, 36, 0
10, 163777, Note_on_c, 9, 36, 0
10, 164040, Note_on_c, 9, 36, 65
10, 164160, Note_on_c, 9, 36, 111
10, 164257, Note_on_c, 9, 36, 0
10, 164257, Note_on_c, 9, 36, 0
10, 164520, Note_on_c, 9, 36, 56
10, 164640, Note_on_c, 9, 36, 111
10, 164734, Note_on_c, 9, 36, 0
10, 164734, Note_on_c, 9, 36, 0
10, 165000, Note_on_c, 9, 36, 69
10, 165117, Note_on_c, 9, 36, 0
10, 165120, Note_on_c, 9, 36, 103
10, 165336, Note_on_c, 9, 36, 0
10, 165480, Note_on_c, 9, 36, 61
10, 165600, Note_on_c, 9, 36, 115
10, 165696, Note_on_c, 9, 36, 0
10, 165696, Note_on_c, 9, 36, 0
10, 165960, Note_on_c, 9, 36, 65
10, 166080, Note_on_c, 9, 36, 111
10, 166176, Note_on_c, 9, 36, 0
10, 166176, Note_on_c, 9, 36, 0
10, 166440, Note_on_c, 9, 36, 56
10, 166560, Note_on_c, 9, 36, 111
10, 166652, Note_on_c, 9, 36, 0
10, 166652, Note_on_c, 9, 36, 0
10, 166920, Note_on_c, 9, 36, 69
10, 167037, Note_on_c, 9, 36, 0
10, 167040, Note_on_c, 9, 36, 115
10, 167254, Note_on_c, 9, 36, 0
10, 167400, Note_on_c, 9, 36, 53
10, 167501, Note_on_c, 9, 36, 0
10, 167520, Note_on_c, 9, 36, 103
10, 167736, Note_on_c, 9, 36, 0
10, 167880, Note_on_c, 9, 36, 19
10, 167980, Note_on_c, 9, 36, 0
10, 168000, Note_on_c, 9, 36, 95
10, 168219, Note_on_c, 9, 36, 0
10, 168360, Note_on_c, 9, 36, 62
10, 168460, Note_on_c, 9, 36, 0
10, 168480, Note_on_c, 9, 36, 111
10, 168691, Note_on_c, 9, 36, 0
10, 168840, Note_on_c, 9, 36, 54
10, 168941, Note_on_c, 9, 36, 0
10, 168960, Note_on_c, 9, 36, 103
10, 169176, Note_on_c, 9, 36, 0
10, 169320, Note_on_c, 9, 36, 61
10, 169440, Note_on_c, 9, 36, 115
10, 169536, Note_on_c, 9, 36, 0
10, 169536, Note_on_c, 9, 36, 0
10, 169800, Note_on_c, 9, 36, 65
10, 169920, Note_on_c, 9, 36, 111
10, 170016, Note_on_c, 9, 36, 0
10, 170016, Note_on_c, 9, 36, 0
10, 170280, Note_on_c, 9, 36, 56
10, 170400, Note_on_c, 9, 36, 111
10, 170492, Note_on_c, 9, 36, 0
10, 170492, Note_on_c, 9, 36, 0
10, 170760, Note_on_c, 9, 36, 69
10, 170877, Note_on_c, 9, 36, 0
10, 170880, Note_on_c, 9, 36, 115
10, 171094, Note_on_c, 9, 36, 0
10, 171240, Note_on_c, 9, 36, 53
10, 171341, Note_on_c, 9, 36, 0
10, 171360, Note_on_c, 9, 36, 103
10, 171576, Note_on_c, 9, 36, 0
10, 171720, Note_on_c, 9, 36, 19
10, 171820, Note_on_c, 9, 36, 0
10, 171840, Note_on_c, 9, 36, 95
10, 172059, Note_on_c, 9, 36, 0
10, 172200, Note_on_c, 9, 36, 62
10, 172300, Note_on_c, 9, 36, 0
10, 172320, Note_on_c, 9, 36, 111
10, 172531, Note_on_c, 9, 36, 0
10, 172680, Note_on_c, 9, 36, 54
10, 172781, Note_on_c, 9, 36, 0
10, 172800, Note_on_c, 9, 36, 115
10, 173018, Note_on_c, 9, 36, 0
10, 173160, Note_on_c, 9, 36, 53
10, 173261, Note_on_c, 9, 36, 0
10, 173280, Note_on_c, 9, 36, 103
10, 173497, Note_on_c, 9, 36, 0
10, 173640, Note_on_c, 9, 36, 19
10, 173740, Note_on_c, 9, 36, 0
10, 173760, Note_on_c, 9, 36, 95
10, 173977, Note_on_c, 9, 36, 0
10, 174120, Note_on_c, 9, 36, 62
10, 174220, Note_on_c, 9, 36, 0
10, 174240, Note_on_c, 9, 36, 111
10, 174454, Note_on_c, 9, 36, 0
10, 174600, Note_on_c, 9, 36, 54
10, 174699, Note_on_c, 9, 36, 0
10, 174720, Note_on_c, 9, 36, 103
10, 174936, Note_on_c, 9, 36, 0
10, 175080, Note_on_c, 9, 36, 61
10, 175200, Note_on_c, 9, 36, 115
10, 175296, Note_on_c, 9, 36, 0
10, 175296, Note_on_c, 9, 36, 0
10, 175560, Note_on_c, 9, 36, 65
10, 175680, Note_on_c, 9, 36, 111
10, 175776, Note_on_c, 9, 36, 0
10, 175776, Note_on_c, 9, 36, 0
10, 176040, Note_on_c, 9, 36, 56
10, 176160, Note_on_c, 9, 36, 111
10, 176252, Note_on_c, 9, 36, 0
10, 176252, Note_on_c, 9, 36, 0
10, 176520, Note_on_c, 9, 36, 69
10, 176637, Note_on_c, 9, 36, 0
10, 176640, Note_on_c, 9, 36, 115
10, 176854, Note_on_c, 9, 36, 0
10, 177000, Note_on_c, 9, 36, 53
10, 177101, Note_on_c, 9, 36, 0
10, 177120, Note_on_c, 9, 36, 103
10, 177336, Note_on_c, 9, 36, 0
10, 177480, Note_on_c, 9, 36, 19
10, 177580, Note_on_c, 9, 36, 0
10, 177600, Note_on_c, 9, 36, 95
10, 177819, Note_on_c, 9, 36, 0
10, 177960, Note_on_c, 9, 36, 62
10, 178060, Note_on_c, 9, 36, 0
10, 178080, Note_on_c, 9, 36, 111
10, 178291, Note_on_c, 9, 36, 0
10, 178440, Note_on_c, 9, 36, 54
10, 178541, Note_on_c, 9, 36, 0
10, 178560, Note_on_c, 9, 36, 103
10, 178776, Note_on_c, 9, 36, 0
10, 178920, Note_on_c, 9, 36, 61
10, 179040, Note_on_c, 9, 36, 115
10, 179137, Note_on_c, 9, 36, 0
10, 179137, Note_on_c, 9, 36, 0
10, 179400, Note_on_c, 9, 36, 65
10, 179520, Note_on_c, 9, 36, 111
10, 179617, Note_on_c, 9, 36, 0
10, 179617, Note_on_c, 9, 36, 0
10, 179880, Note_on_c, 9, 36, 56
10, 180000, Note_on_c, 9, 36, 111
10, 180094, Note_on_c, 9, 36, 0
10, 180094, Note_on_c, 9, 36, 0
10, 180360, Note_on_c, 9, 36, 69
10, 180477, Note_on_c, 9, 36, 0
10, 180480, Note_on_c, 9, 36, 103
10, 180696, Note_on_c, 9, 36, 0
10, 180840, Note_on_c, 9, 36, 61
10, 180960, Note_on_c, 9, 36, 115
10, 181056, Note_on_c, 9, 36, 0
10, 181056, Note_on_c, 9, 36, 0
10, 181320, Note_on_c, 9, 36, 65
10, 181440, Note_on_c, 9, 36, 111
10, 181536, Note_on_c, 9, 36, 0
10, 181536, Note_on_c, 9, 36, 0
10, 181800, Note_on_c, 9, 36, 56
10, 181920, Note_on_c, 9, 36, 111
10, 182012, Note_on_c, 9, 36, 0
10, 182012, Note_on_c, 9, 36, 0
10, 182280, Note_on_c, 9, 36, 69
10, 182397, Note_on_c, 9, 36, 0
10, 182400, Note_on_c, 9, 36, 115
10, 182614, Note_on_c, 9, 36, 0
10, 182760, Note_on_c, 9, 36, 53
10, 182861, Note_on_c, 9, 36, 0
10, 182880, Note_on_c, 9, 36, 103
10, 183096, Note_on_c, 9, 36, 0
10, 183240, Note_on_c, 9, 36, 19
10, 183340, Note_on_c, 9, 36, 0
10, 183360, Note_on_c, 9, 36, 95
10, 183579, Note_on_c, 9, 36, 0
10, 183720, Note_on_c, 9, 36, 62
10, 183820, Note_on_c, 9, 36, 0
10, 183840, Note_on_c, 9, 36, 111
10, 184051, Note_on_c, 9, 36, 0
10, 184200, Note_on_c, 9, 36, 54
10, 184301, Note_on_c, 9, 36, 0
10, 184320, Note_on_c, 9, 36, 103
10, 184536, Note_on_c, 9, 36, 0
10, 184680, Note_on_c, 9, 36, 61
10, 184800, Note_on_c, 9, 36, 115
10, 184896, Note_on_c, 9, 36, 0
10, 184896, Note_on_c, 9, 36, 0
10, 185160, Note_on_c, 9, 36, 65
10, 185280, Note_on_c, 9, 36, 111
10, 185376, Note_on_c, 9, 36, 0
10, 185376, Note_on_c, 9, 36, 0
10, 185640, Note_on_c, 9, 36, 56
10, 185760, Note_on_c, 9, 36, 111
10, 185852, Note_on_c, 9, 36, 0
10, 185852, Note_on_c, 9, 36, 0
10, 186120, Note_on_c, 9, 36, 69
10, 186237, Note_on_c, 9, 36, 0
10, 186240, Note_on_c, 9, 36, 115
10, 186454, Note_on_c, 9, 36, 0
10, 186600, Note_on_c, 9, 36, 53
10, 186701, Note_on_c, 9, 36, 0
10, 186720, Note_on_c, 9, 36, 103
10, 186936, Note_on_c, 9, 36, 0
10, 187080, Note_on_c, 9, 36, 19
10, 187180, Note_on_c, 9, 36, 0
10, 187200, Note_on_c, 9, 36, 95
10, 187419, Note_on_c, 9, 36, 0
10, 187560, Note_on_c, 9, 36, 62
10, 187660, Note_on_c, 9, 36, 0
10, 187680, Note_on_c, 9, 36, 111
10, 187891, Note_on_c, 9, 36, 0
10, 188040, Note_on_c, 9, 36, 54
10, 188141, Note_on_c, 9, 36, 0
10, 188160, Note_on_c, 9, 36, 115
10, 188378, Note_on_c, 9, 36, 0
10, 188520, Note_on_c, 9, 36, 53
10, 188621, Note_on_c, 9, 36, 0
10, 188640, Note_on_c, 9, 36, 103
10, 188857, Note_on_c, 9, 36, 0
10, 189000, Note_on_c, 9, 36, 19
10, 189100, Note_on_c, 9, 36, 0
10, 189120, Note_on_c, 9, 36, 95
10, 189337, Note_on_c, 9, 36, 0
10, 189480, Note_on_c, 9, 36, 62
10, 189580, Note_on_c, 9, 36, 0
10, 189600, Note_on_c, 9, 36, 111
10, 189814, Note_on_c, 9, 36, 0
10, 189960, Note_on_c, 9, 36, 54
10, 190059, Note_on_c, 9, 36, 0
10, 190080, Note_on_c, 9, 36, 103
10, 190296, Note_on_c, 9, 36, 0
10, 190440, Note_on_c, 9, 36, 61
10, 190560, Note_on_c, 9, 36, 115
10, 190656, Note_on_c, 9, 36, 0
10, 190656, Note_on_c, 9, 36, 0
10, 190920, Note_on_c, 9, 36, 65
10, 191040, Note_on_c, 9, 36, 111
10, 191136, Note_on_c, 9, 36, 0
10, 191136, Note_on_c, 9, 36, 0
10, 191400, Note_on_c, 9, 36, 56
10, 191520, Note_on_c, 9, 36, 111
10, 191612, Note_on_c, 9, 36, 0
10, 191612, Note_on_c, 9, 36, 0
10, 191880, Note_on_c, 9, 36, 69
10, 191997, Note_on_c, 9, 36, 0
10, 192000, Note_on_c, 9, 36, 115
10, 192214, Note_on_c, 9, 36, 0
10, 192360, Note_on_c, 9, 36, 53
10, 192461, Note_on_c, 9, 36, 0
10, 192480, Note_on_c, 9, 36, 103
10, 192696, Note_on_c, 9, 36, 0
10, 192840, Note_on_c, 9, 36, 19
10, 192940, Note_on_c, 9, 36, 0
10, 192960, Note_on_c, 9, 36, 95
10, 193179, Note_on_c, 9, 36, 0
10, 193320, Note_on_c, 9, 36, 62
10, 193420, Note_on_c, 9, 36, 0
10, 193440, Note_on_c, 9, 36, 111
10, 193651, Note_on_c, 9, 36, 0
10, 193800, Note_on_c, 9, 36, 54
10, 193901, Note_on_c, 9, 36, 0
10, 193920, Note_on_c, 9, 36, 103
10, 194136, Note_on_c, 9, 36, 0
10, 194280, Note_on_c, 9, 36, 61
10, 194400, Note_on_c, 9, 36, 115
10, 194497, Note_on_c, 9, 36, 0
10, 194497, Note_on_c, 9, 36, 0
10, 194760, Note_on_c, 9, 36, 65
10, 194880, Note_on_c, 9, 36, 111
10, 194977, Note_on_c, 9, 36, 0
10, 194977, Note_on_c, 9, 36, 0
10, 195240, Note_on_c, 9, 36, 56
10, 195360, Note_on_c, 9, 36, 111
10, 195454, Note_on_c, 9, 36, 0
10, 195454, Note_on_c, 9, 36, 0
10, 195720, Note_on_c, 9, 36, 69
10, 195837, Note_on_c, 9, 36, 0
10, 195840, Note_on_c, 9, 36, 103
10, 196056, Note_on_c, 9, 36, 0
10, 196200, Note_on_c, 9, 36, 61
10, 196320, Note_on_c, 9, 36, 115
10, 196416, Note_on_c, 9, 36, 0
10, 196416, Note_on_c, 9, 36, 0
10, 196680, Note_on_c, 9, 36, 65
10, 196800, Note_on_c, 9, 36, 111
10, 196896, Note_on_c, 9, 36, 0
10, 196896, Note_on_c, 9, 36, 0
10, 197160, Note_on_c, 9, 36, 56
10, 197280, Note_on_c, 9, 36, 111
10, 197372, Note_on_c, 9, 36, 0
10, 197372, Note_on_c, 9, 36, 0
10, 197640, Note_on_c, 9, 36, 69
10, 197757, Note_on_c, 9, 36, 0
10, 197760, Note_on_c, 9, 36, 115
10, 197974, Note_on_c, 9, 36, 0
10, 198120, Note_on_c, 9, 36, 53
10, 198221, Note_on_c, 9, 36, 0
10, 198240, Note_on_c, 9, 36, 103
10, 198456, Note_on_c, 9, 36, 0
10, 198600, Note_on_c, 9, 36, 19
10, 198700, Note_on_c, 9, 36, 0
10, 198720, Note_on_c, 9, 36, 95
10, 198939, Note_on_c, 9, 36, 0
10, 199080, Note_on_c, 9, 36, 62
10, 199180, Note_on_c, 9, 36, 0
10, 199200, Note_on_c, 9, 36, 111
10, 199411, Note_on_c, 9, 36, 0
10, 199560, Note_on_c, 9, 36, 54
10, 199661, Note_on_c, 9, 36, 0
10, 199680, Note_on_c, 9, 36, 103
10, 199896, Note_on_c, 9, 36, 0
10, 200040, Note_on_c, 9, 36, 61
10, 200160, Note_on_c, 9, 36, 115
10, 200256, Note_on_c, 9, 36, 0
10, 200256, Note_on_c, 9, 36, 0
10, 200520, Note_on_c, 9, 36, 65
10, 200640, Note_on_c, 9, 36, 111
10, 200736, Note_on_c, 9, 36, 0
10, 200736, Note_on_c, 9, 36, 0
10, 201000, Note_on_c, 9, 36, 56
10, 201120, Note_on_c, 9, 36, 111
10, 201212, Note_on_c, 9, 36, 0
10, 201212, Note_on_c, 9, 36, 0
10, 201480, Note_on_c, 9, 36, 69
10, 201597, Note_on_c, 9, 36, 0
10, 201600, Note_on_c, 9, 36, 115
10, 201814, Note_on_c, 9, 36, 0
10, 201960, Note_on_c, 9, 36, 53
10, 202061, Note_on_c, 9, 36, 0
10, 202080, Note_on_c, 9, 36, 103
10, 202296, Note_on_c, 9, 36, 0
10, 202440, Note_on_c, 9, 36, 19
10, 202540, Note_on_c, 9, 36, 0
10, 202560, Note_on_c, 9, 36, 95
10, 202779, Note_on_c, 9, 36, 0
10, 202920, Note_on_c, 9, 36, 62
10, 203020, Note_on_c, 9, 36, 0
10, 203040, Note_on_c, 9, 36, 111
10, 203251, Note_on_c, 9, 36, 0
10, 203400, Note_on_c, 9, 36, 54
10, 203501, Note_on_c, 9, 36, 0
10, 203520, Note_on_c, 9, 36, 115
10, 203738, Note_on_c, 9, 36, 0
10, 203880, Note_on_c, 9, 36, 53
10, 203981, Note_on_c, 9, 36, 0
10, 204000, Note_on_c, 9, 36, 103
10, 204217, Note_on_c, 9, 36, 0
10, 204360, Note_on_c, 9, 36, 19
10, 204460, Note_on_c, 9, 36, 0
10, 204480, Note_on_c, 9, 36, 95
10, 204697, Note_on_c, 9, 36, 0
10, 204840, Note_on_c, 9, 36, 62
10, 204940, Note_on_c, 9, 36, 0
10, 204960, Note_on_c, 9, 36, 111
10, 205174, Note_on_c, 9, 36, 0
10, 205320, Note_on_c, 9, 36, 54
10, 205419, Note_on_c, 9, 36, 0
10, 205440, Note_on_c, 9, 36, 103
10, 205656, Note_on_c, 9, 36, 0
10, 205800, Note_on_c, 9, 36, 61
10, 205920, Note_on_c, 9, 36, 115
10, 206016, Note_on_c, 9, 36, 0
10, 206016, Note_on_c, 9, 36, 0
10, 206280, Note_on_c, 9, 36, 65
10, 206400, Note_on_c, 9, 36, 111
10, 206496, Note_on_c, 9, 36, 0
10, 206496, Note_on_c, 9, 36, 0
10, 206760, Note_on_c, 9, 36, 56
10, 206880, Note_on_c, 9, 36, 111
10, 206972, Note_on_c, 9, 36, 0
10, 206972, Note_on_c, 9, 36, 0
10, 207240, Note_on_c, 9, 36, 69
10, 207357, Note_on_c, 9, 36, 0
10, 207360, Note_on_c, 9, 36, 115
10, 207574, Note_on_c, 9, 36, 0
10, 207720, Note_on_c, 9, 36, 53
10, 207821, Note_on_c, 9, 36, 0
10, 207840, Note_on_c, 9, 36, 103
10, 208056, Note_on_c, 9, 36, 0
10, 208200, Note_on_c, 9, 36, 19
10, 208300, Note_on_c, 9, 36, 0
10, 208320, Note_on_c, 9, 36, 95
10, 208539, Note_on_c, 9, 36, 0
10, 208680, Note_on_c, 9, 36, 62
10, 208780, Note_on_c, 9, 36, 0
10, 208800, Note_on_c, 9, 36, 111
10, 209011, Note_on_c, 9, 36, 0
10, 209160, Note_on_c, 9, 36, 54
10, 209261, Note_on_c, 9, 36, 0
10, 209280, Note_on_c, 9, 36, 103
10, 209496, Note_on_c, 9, 36, 0
10, 209640, Note_on_c, 9, 36, 61
10, 209760, Note_on_c, 9, 36, 115
10, 209857, Note_on_c, 9, 36, 0
10, 209857, Note_on_c, 9, 36, 0
10, 210120, Note_on_c, 9, 36, 65
10, 210240, Note_on_c, 9, 36, 111
10, 210337, Note_on_c, 9, 36, 0
10, 210337, Note_on_c, 9, 36, 0
10, 210600, Note_on_c, 9, 36, 56
10, 210720, Note_on_c, 9, 36, 111
10, 210814, Note_on_c, 9, 36, 0
10, 210814, Note_on_c, 9, 36, 0
10, 211080, Note_on_c, 9, 36, 69
10, 211197, Note_on_c, 9, 36, 0
10, 211200, Note_on_c, 9, 36, 103
10, 211416, Note_on_c, 9, 36, 0
10, 211560, Note_on_c, 9, 36, 61
10, 211680, Note_on_c, 9, 36, 115
10, 211776, Note_on_c, 9, 36, 0
10, 211776, Note_on_c, 9, 36, 0
10, 212040, Note_on_c, 9, 36, 65
10, 212160, Note_on_c, 9, 36, 111
10, 212256, Note_on_c, 9, 36, 0
10, 212256, Note_on_c, 9, 36, 0
10, 212520, Note_on_c, 9, 36, 56
10, 212640, Note_on_c, 9, 36, 111
10, 212732, Note_on_c, 9, 36, 0
10, 212732, Note_on_c, 9, 36, 0
10, 213000, Note_on_c, 9, 36, 69
10, 213117, Note_on_c, 9, 36, 0
10, 213120, Note_on_c, 9, 36, 115
10, 213334, Note_on_c, 9, 36, 0
10, 213480, Note_on_c, 9, 36, 53
10, 213581, Note_on_c, 9, 36, 0
10, 213600, Note_on_c, 9, 36, 103
10, 213816, Note_on_c, 9, 36, 0
10, 213960, Note_on_c, 9, 36, 19
10, 214060, Note_on_c, 9, 36, 0
10, 214080, Note_on_c, 9, 36, 95
10, 214299, Note_on_c, 9, 36, 0
10, 214440, Note_on_c, 9, 36, 62
10, 214540, Note_on_c, 9, 36, 0
10, 214560, Note_on_c, 9, 36, 111
10, 214771, Note_on_c, 9, 36, 0
10, 214920, Note_on_c, 9, 36, 54
10, 215021, Note_on_c, 9, 36, 0
10, 215040, Note_on_c, 9, 36, 103
10, 215256, Note_on_c, 9, 36, 0
10, 215400, Note_on_c, 9, 36, 61
10, 215520, Note_on_c, 9, 36, 115
10, 215616, Note_on_c, 9, 36, 0
10, 215616, Note_on_c, 9, 36, 0
10, 215880, Note_on_c, 9, 36, 65
10, 216000, Note_on_c, 9, 36, 111
10, 216096, Note_on_c, 9, 36, 0
10, 216096, Note_on_c, 9, 36, 0
10, 216360, Note_on_c, 9, 36, 56
10, 216480, Note_on_c, 9, 36, 111
10, 216572, Note_on_c, 9, 36, 0
10, 216572, Note_on_c, 9, 36, 0
10, 216840, Note_on_c, 9, 36, 69
10, 216957, Note_on_c, 9, 36, 0
10, 216960, Note_on_c, 9, 36, 115
10, 217174, Note_on_c, 9, 36, 0
10, 217320, Note_on_c, 9, 36, 53
10, 217421, Note_on_c, 9, 36, 0
10, 217440, Note_on_c, 9, 36, 103
10, 217656, Note_on_c, 9, 36, 0
10, 217800, Note_on_c, 9, 36, 19
10, 217900, Note_on_c, 9, 36, 0
10, 217920, Note_on_c, 9, 36, 95
10, 218139, Note_on_c, 9, 36, 0
10, 218280, Note_on_c, 9, 36, 62
10, 218380, Note_on_c, 9, 36, 0
10, 218400, Note_on_c, 9, 36, 111
10, 218611, Note_on_c, 9, 36, 0
10, 218760, Note_on_c, 9, 36, 54
10, 218861, Note_on_c, 9, 36, 0
10, 218880, Note_on_c, 9, 36, 115
10, 219098, Note_on_c, 9, 36, 0
10, 219240, Note_on_c, 9, 36, 53
10, 219341, Note_on_c, 9, 36, 0
10, 219360, Note_on_c, 9, 36, 103
10, 219577, Note_on_c, 9, 36, 0
10, 219720, Note_on_c, 9, 36, 19
10, 219820, Note_on_c, 9, 36, 0
10, 219840, Note_on_c, 9, 36, 95
10, 220057, Note_on_c, 9, 36, 0
10, 220200, Note_on_c, 9, 36, 62
10, 220300, Note_on_c, 9, 36, 0
10, 220320, Note_on_c, 9, 36, 111
10, 220534, Note_on_c, 9, 36, 0
10, 220680, Note_on_c, 9, 36, 54
10, 220779, Note_on_c, 9, 36, 0
10, 220800, Note_on_c, 9, 36, 103
10, 221016, Note_on_c, 9, 36, 0
10, 221160, Note_on_c, 9, 36, 61
10, 221280, Note_on_c, 9, 36, 115
10, 221376, Note_on_c, 9, 36, 0
10, 221376, Note_on_c, 9, 36, 0
10, 221640, Note_on_c, 9, 36, 65
10, 221760, Note_on_c, 9, 36, 111
10, 221856, Note_on_c, 9, 36, 0
10, 221856, Note_on_c, 9, 36, 0
10, 222120, Note_on_c, 9, 36, 56
10, 222240, Note_on_c, 9, 36, 111
10, 222332, Note_on_c, 9, 36, 0
10, 222332, Note_on_c, 9, 36, 0
10, 222600, Note_on_c, 9, 36, 69
10, 222717, Note_on_c, 9, 36, 0
10, 222720, Note_on_c, 9, 36, 115
10, 222934, Note_on_c, 9, 36, 0
10, 223080, Note_on_c, 9, 36, 53
10, 223181, Note_on_c, 9, 36, 0
10, 223200, Note_on_c, 9, 36, 103
10, 223416, Note_on_c, 9, 36, 0
10, 223560, Note_on_c, 9, 36, 19
10, 223660, Note_on_c, 9, 36, 0
10, 223680, Note_on_c, 9, 36, 95
10, 223899, Note_on_c, 9, 36, 0
10, 224040, Note_on_c, 9, 36, 62
10, 224140, Note_on_c, 9, 36, 0
10, 224160, Note_on_c, 9, 36, 111
10, 224371, Note_on_c, 9, 36, 0
10, 224520, Note_on_c, 9, 36, 54
10, 224621, Note_on_c, 9, 36, 0
10, 224640, Note_on_c, 9, 36, 103
10, 224856, Note_on_c, 9, 36, 0
10, 225000, Note_on_c, 9, 36, 61
10, 225120, Note_on_c, 9, 36, 115
10, 225217, Note_on_c, 9, 36, 0
10, 225217, Note_on_c, 9, 36, 0
10, 225480, Note_on_c, 9, 36, 65
10, 225600, Note_on_c, 9, 36, 111
10, 225697, Note_on_c, 9, 36, 0
10, 225697, Note_on_c, 9, 36, 0
10, 225960, Note_on_c, 9, 36, 56
10, 226080, Note_on_c, 9, 36, 111
10, 226174, Note_on_c, 9, 36, 0
10, 226174, Note_on_c, 9, 36, 0
10, 226440, Note_on_c, 9, 36, 69
10, 226557, Note_on_c, 9, 36, 0
10, 226560, Note_on_c, 9, 36, 103
10, 226776, Note_on_c, 9, 36, 0
10, 226920, Note_on_c, 9, 36, 61
10, 227040, Note_on_c, 9, 36, 115
10, 227136, Note_on_c, 9, 36, 0
10, 227136, Note_on_c, 9, 36, 0
10, 227400, Note_on_c, 9, 36, 65
10, 227520, Note_on_c, 9, 36, 111
10, 227616, Note_on_c, 9, 36, 0
10, 227616, Note_on_c, 9, 36, 0
10, 227880, Note_on_c, 9, 36, 56
10, 228000, Note_on_c, 9, 36, 111
10, 228092, Note_on_c, 9, 36, 0
10, 228092, Note_on_c, 9, 36, 0
10, 228360, Note_on_c, 9, 36, 69
10, 228477, Note_on_c, 9, 36, 0
10, 228480, Note_on_c, 9, 36, 115
10, 228694, Note_on_c, 9, 36, 0
10, 228840, Note_on_c, 9, 36, 53
10, 228941, Note_on_c, 9, 36, 0
10, 228960, Note_on_c, 9, 36, 103
10, 229176, Note_on_c, 9, 36, 0
10, 229320, Note_on_c, 9, 36, 19
10, 229420, Note_on_c, 9, 36, 0
10, 229440, Note_on_c, 9, 36, 95
10, 229659, Note_on_c, 9, 36, 0
10, 229800, Note_on_c, 9, 36, 62
10, 229900, Note_on_c, 9, 36, 0
10, 229920, Note_on_c, 9, 36, 111
10, 230131, Note_on_c, 9, 36, 0
10, 230280, Note_on_c, 9, 36, 54
10, 230381, Note_on_c, 9, 36, 0
10, 230400, Note_on_c, 9, 36, 103
10, 230616, Note_on_c, 9, 36, 0
10, 230760, Note_on_c, 9, 36, 61
10, 230880, Note_on_c, 9, 36, 115
10, 230976, Note_on_c, 9, 36, 0
10, 230976, Note_on_c, 9, 36, 0
10, 231240, Note_on_c, 9, 36, 65
10, 231360, Note_on_c, 9, 36, 111
10, 231456, Note_on_c, 9, 36, 0
10, 231456, Note_on_c, 9, 36, 0
10, 231720, Note_on_c, 9, 36, 56
10, 231840, Note_on_c, 9, 36, 111
10, 231932, Note_on_c, 9, 36, 0
10, 231932, Note_on_c, 9, 36, 0
10, 232200, Note_on_c, 9, 36, 69
10, 232317, Note_on_c, 9, 36, 0
10, 232320, Note_on_c, 9, 36, 115
10, 232534, Note_on_c, 9, 36, 0
10, 232680, Note_on_c, 9, 36, 53
10, 232781, Note_on_c, 9, 36, 0
10, 232800, Note_on_c, 9, 36, 103
10, 233016, Note_on_c, 9, 36, 0
10, 233160, Note_on_c, 9, 36, 19
10, 233260, Note_on_c, 9, 36, 0
10, 233280, Note_on_c, 9, 36, 95
10, 233499, Note_on_c, 9, 36, 0
10, 233640, Note_on_c, 9, 36, 62
10, 233740, Note_on_c, 9, 36, 0
10, 233760, Note_on_c, 9, 36, 111
10, 233971, Note_on_c, 9, 36, 0
10, 234120, Note_on_c, 9, 36, 54
10, 234221, Note_on_c, 9, 36, 0
10, 234240, Note_on_c, 9, 36, 115
10, 234458, Note_on_c, 9, 36, 0
10, 234600, Note_on_c, 9, 36, 53
10, 234701, Note_on_c, 9, 36, 0
10, 234720, Note_on_c, 9, 36, 103
10, 234937, Note_on_c, 9, 36, 0
10, 235080, Note_on_c, 9, 36, 19
10, 235180, Note_on_c, 9, 36, 0
10, 235200, Note_on_c, 9, 36, 95
10, 235417, Note_on_c, 9, 36, 0
10, 235560, Note_on_c, 9, 36, 62
10, 235660, Note_on_c, 9, 36, 0
10, 235680, Note_on_c, 9, 36, 111
10, 235894, Note_on_c, 9, 36, 0
10, 236040, Note_on_c, 9, 36, 54
10, 236139, Note_on_c, 9, 36, 0
10, 236160, Note_on_c, 9, 36, 103
10, 236376, Note_on_c, 9, 36, 0
10, 236520, Note_on_c, 9, 36, 61
10, 236640, Note_on_c, 9, 36, 115
10, 236736, Note_on_c, 9, 36, 0
10, 236736, Note_on_c, 9, 36, 0
10, 237000, Note_on_c, 9, 36, 65
10, 237120, Note_on_c, 9, 36, 111
10, 237216, Note_on_c, 9, 36, 0
10, 237216, Note_on_c, 9, 36, 0
10, 237480, Note_on_c, 9, 36, 56
10, 237600, Note_on_c, 9, 36, 111
10, 237692, Note_on_c, 9, 36, 0
10, 237692, Note_on_c, 9, 36, 0
10, 237960, Note_on_c, 9, 36, 69
10, 238077, Note_on_c, 9, 36, 0
10, 238080, Note_on_c, 9, 36, 115
10, 238294, Note_on_c, 9, 36, 0
10, 238440, Note_on_c, 9, 36, 53
10, 238541, Note_on_c, 9, 36, 0
10, 238560, Note_on_c, 9, 36, 103
10, 238776, Note_on_c, 9, 36, 0
10, 238920, Note_on_c, 9, 36, 19
10, 239020, Note_on_c, 9, 36, 0
10, 239040, Note_on_c, 9, 36, 95
10, 239259, Note_on_c, 9, 36, 0
10, 239400, Note_on_c, 9, 36, 62
10, 239500, Note_on_c, 9, 36, 0
10, 239520, Note_on_c, 9, 36, 111
10, 239731, Note_on_c, 9, 36, 0
10, 239880, Note_on_c, 9, 36, 54
10, 239981, Note_on_c, 9, 36, 0
10, 240000, Note_on_c, 9, 36, 103
10, 240216, Note_on_c, 9, 36, 0
10, 240360, Note_on_c, 9, 36, 61
10, 240480, Note_on_c, 9, 36, 115
10, 240577, Note_on_c, 9, 36, 0
10, 240577, Note_on_c, 9, 36, 0
10, 240840, Note_on_c, 9, 36, 65
10, 240960, Note_on_c, 9, 36, 111
10, 241057, Note_on_c, 9, 36, 0
10, 241057, Note_on_c, 9, 36, 0
10, 241320, Note_on_c, 9, 36, 56
10, 241440, Note_on_c, 9, 36, 111
10, 241534, Note_on_c, 9, 36, 0
10, 241534, Note_on_c, 9, 36, 0
10, 241800, Note_on_c, 9, 36, 69
10, 241917, Note_on_c, 9, 36, 0
10, 241920, Note_on_c, 9, 36, 103
10, 242136, Note_on_c, 9, 36, 0
10, 242280, Note_on_c, 9, 36, 61
10, 242400, Note_on_c, 9, 36, 115
10, 242496, Note_on_c, 9, 36, 0
10, 242496, Note_on_c, 9, 36, 0
10, 242760, Note_on_c, 9, 36, 65
10, 242880, Note_on_c, 9, 36, 111
10, 242976, Note_on_c, 9, 36, 0
10, 242976, Note_on_c, 9, 36, 0
10, 243240, Note_on_c, 9, 36, 56
10, 243360, Note_on_c, 9, 36, 111
10, 243452, Note_on_c, 9, 36, 0
10, 243452, Note_on_c, 9, 36, 0
10, 243720, Note_on_c, 9, 36, 69
10, 243837, Note_on_c, 9, 36, 0
10, 243840, Note_on_c, 9, 36, 115
10, 244054, Note_on_c, 9, 36, 0
10, 244200, Note_on_c, 9, 36, 53
10, 244301, Note_on_c, 9, 36, 0
10, 244320, Note_on_c, 9, 36, 103
10, 244536, Note_on_c, 9, 36, 0
10, 244680, Note_on_c, 9, 36, 19
10, 244780, Note_on_c, 9, 36, 0
10, 244800, Note_on_c, 9, 36, 95
10, 245019, Note_on_c, 9, 36, 0
10, 245160, Note_on_c, 9, 36, 62
10, 245260, Note_on_c, 9, 36, 0
10, 245280, Note_on_c, 9, 36, 111
10, 245491, Note_on_c, 9, 36, 0
10, 245640, Note_on_c, 9, 36, 54
10, 245741, Note_on_c, 9, 36, 0
10, 245760, Note_on_c, 9, 36, 103
10, 245976, Note_on_c, 9, 36, 0
10, 246120, Note_on_c, 9, 36, 61
10, 246240, Note_on_c, 9, 36, 115
10, 246336, Note_on_c, 9, 36, 0
10, 246336, Note_on_c, 9, 36, 0
10, 246600, Note_on_c, 9, 36, 65
10, 246720, Note_on_c, 9, 36, 111
10, 246816, Note_on_c, 9, 36, 0
10, 246816, Note_on_c, 9, 36, 0
10, 247080, Note_on_c, 9, 36, 56
10, 247200, Note_on_c, 9, 36, 111
10, 247292, Note_on_c, 9, 36, 0
10, 247292, Note_on_c, 9, 36, 0
10, 247560, Note_on_c, 9, 36, 69
10, 247677, Note_on_c, 9, 36, 0
10, 247680, Note_on_c, 9, 36, 115
10, 247894, Note_on_c, 9, 36, 0
10, 248040, Note_on_c, 9, 36, 53
10, 248141, Note_on_c, 9, 36, 0
10, 248160, Note_on_c, 9, 36, 103
10, 248376, Note_on_c, 9, 36, 0
10, 248520, Note_on_c, 9, 36, 19
10, 248620, Note_on_c, 9, 36, 0
10, 248640, Note_on_c, 9, 36, 95
10, 248859, Note_on_c, 9, 36, 0
10, 249000, Note_on_c, 9, 36, 62
10, 249100, Note_on_c, 9, 36, 0
10, 249120, Note_on_c, 9, 36, 111
10, 249331, Note_on_c, 9, 36, 0
10, 249480, Note_on_c, 9, 36, 54
10, 249581, Note_on_c, 9, 36, 0
10, 249600, Note_on_c, 9, 36, 115
10, 249818, Note_on_c, 9, 36, 0
10, 249960, Note_on_c, 9, 36, 53
10, 250061, Note_on_c, 9, 36, 0
10, 250080, Note_on_c, 9, 36, 103
10, 250297, Note_on_c, 9, 36, 0
10, 250440, Note_on_c, 9, 36, 19
10, 250540, Note_on_c, 9, 36, 0
10, 250560, Note_on_c, 9, 36, 95
10, 250777, Note_on_c, 9, 36, 0
10, 250920, Note_on_c, 9, 36, 62
10, 251020, Note_on_c, 9, 36, 0
10, 251040, Note_on_c, 9, 36, 111
10, 251254, Note_on_c, 9, 36, 0
10, 251400, Note_on_c, 9, 36, 54
10, 251499, Note_on_c, 9, 36, 0
10, 251520, Note_on_c, 9, 36, 103
10, 251736, Note_on_c, 9, 36, 0
10, 251880, Note_on_c, 9, 36, 61
10, 252000, Note_on_c, 9, 36, 115
10, 252096, Note_on_c, 9, 36, 0
10, 252096, Note_on_c, 9, 36, 0
10, 252360, Note_on_c, 9, 36, 65
10, 252480, Note_on_c, 9, 36, 111
10, 252576, Note_on_c, 9, 36, 0
10, 252576, Note_on_c, 9, 36, 0
10, 252840, Note_on_c, 9, 36, 56
10, 252960, Note_on_c, 9, 36, 111
10, 253052, Note_on_c, 9, 36, 0
10, 253052, Note_on_c, 9, 36, 0
10, 253320, Note_on_c, 9, 36, 69
10, 253437, Note_on_c, 9, 36, 0
10, 253440, Note_on_c, 9, 36, 115
10, 253654, Note_on_c, 9, 36, 0
10, 253800, Note_on_c, 9, 36, 53
10, 253901, Note_on_c, 9, 36, 0
10, 253920, Note_on_c, 9, 36, 103
10, 254136, Note_on_c, 9, 36, 0
10, 254280, Note_on_c, 9, 36, 19
10, 254380, Note_on_c, 9, 36, 0
10, 254400, Note_on_c, 9, 36, 95
10, 254619, Note_on_c, 9, 36, 0
10, 254760, Note_on_c, 9, 36, 62
10, 254860, Note_on_c, 9, 36, 0
10, 254880, Note_on_c, 9, 36, 111
10, 255091, Note_on_c, 9, 36, 0
10, 255240, Note_on_c, 9, 36, 54
10, 255341, Note_on_c, 9, 36, 0
10, 255360, Note_on_c, 9, 36, 103
10, 255576, Note_on_c, 9, 36, 0
10, 255720, Note_on_c, 9, 36, 61
10, 255840, Note_on_c, 9, 36, 115
10, 255937, Note_on_c, 9, 36, 0
10, 255937, Note_on_c, 9, 36, 0
10, 256200, Note_on_c, 9, 36, 65
10, 256320, Note_on_c, 9, 36, 111
10, 256417, Note_on_c, 9, 36, 0
10, 256417, Note_on_c, 9, 36, 0
10, 256680, Note_on_c, 9, 36, 56
10, 256800, Note_on_c, 9, 36, 111
10, 256894, Note_on_c, 9, 36, 0
10, 256894, Note_on_c, 9, 36, 0
10, 257160, Note_on_c, 9, 36, 69
10, 257277, Note_on_c, 9, 36, 0
10, 257280, Note_on_c, 9, 36, 103
10, 257496, Note_on_c, 9, 36, 0
10, 257640, Note_on_c, 9, 36, 61
10, 257760, Note_on_c, 9, 36, 115
10, 257856, Note_on_c, 9, 36, 0
10, 257856, Note_on_c, 9, 36, 0
10, 258120, Note_on_c, 9, 36, 65
10, 258240, Note_on_c, 9, 36, 111
10, 258336, Note_on_c, 9, 36, 0
10, 258336, Note_on_c, 9, 36, 0
10, 258600, Note_on_c, 9, 36, 56
10, 258720, Note_on_c, 9, 36, 111
10, 258812, Note_on_c, 9, 36, 0
10, 258812, Note_on_c, 9, 36, 0
10, 259080, Note_on_c, 9, 36, 69
10, 259197, Note_on_c, 9, 36, 0
10, 259200, Note_on_c, 9, 36, 115
10, 259414, Note_on_c, 9, 36, 0
10, 259560, Note_on_c, 9, 36, 53
10, 259661, Note_on_c, 9, 36, 0
10, 259680, Note_on_c, 9, 36, 103
10, 259896, Note_on_c, 9, 36, 0
10, 260040, Note_on_c, 9, 36, 19
10, 260140, Note_on_c, 9, 36, 0
10, 260160, Note_on_c, 9, 36, 95
10, 260379, Note_on_c, 9, 36, 0
10, 260520, Note_on_c, 9, 36, 62
10, 260620, Note_on_c, 9, 36, 0
10, 260640, Note_on_c, 9, 36, 111
10, 260851, Note_on_c, 9, 36, 0
10, 261000, Note_on_c, 9, 36, 54
10, 261101, Note_on_c, 9, 36, 0
10, 261120, Note_on_c, 9, 36, 103
10, 261336, Note_on_c, 9, 36, 0
10, 261480, Note_on_c, 9, 36, 61
10, 261600, Note_on_c, 9, 36, 115
10, 261696, Note_on_c, 9, 36, 0
10, 261696, Note_on_c, 9, 36, 0
10, 261960, Note_on_c, 9, 36, 65
10, 262080, Note_on_c, 9, 36, 111
10, 262176, Note_on_c, 9, 36, 0
10, 262176, Note_on_c, 9, 36, 0
10, 262440, Note_on_c, 9, 36, 56
10, 262560, Note_on_c, 9, 36, 111
10, 262652, Note_on_c, 9, 36, 0
10, 262652, Note_on_c, 9, 36, 0
10, 262920, Note_on_c, 9, 36, 69
10, 263037, Note_on_c, 9, 36, 0
10, 263040, Note_on_c, 9, 36, 115
10, 263254, Note_on_c, 9, 36, 0
10, 263400, Note_on_c, 9, 36, 53
10, 263501, Note_on_c, 9, 36, 0
10, 263520, Note_on_c, 9, 36, 103
10, 263736, Note_on_c, 9, 36, 0
10, 263880, Note_on_c, 9, 36, 19
10, 263980, Note_on_c, 9, 36, 0
10, 264000, Note_on_c, 9, 36, 95
10, 264219, Note_on_c, 9, 36, 0
10, 264360, Note_on_c, 9, 36, 62
10, 264460, Note_on_c, 9, 36, 0
10, 264480, Note_on_c, 9, 36, 111
10, 264691, Note_on_c, 9, 36, 0
10, 264840, Note_on_c, 9, 36, 54
10, 264941, Note_on_c, 9, 36, 0
10, 264960, Note_on_c, 9, 36, 115
10, 265178, Note_on_c, 9, 36, 0
10, 265320, Note_on_c, 9, 36, 53
10, 265421, Note_on_c, 9, 36, 0
10, 265440, Note_on_c, 9, 36, 103
10, 265657, Note_on_c, 9, 36, 0
10, 265800, Note_on_c, 9, 36, 19
10, 265900, Note_on_c, 9, 36, 0
10, 265920, Note_on_c, 9, 36, 95
10, 266137, Note_on_c, 9, 36, 0
10, 266280, Note_on_c, 9, 36, 62
10, 266380, Note_on_c, 9, 36, 0
10, 266400, Note_on_c, 9, 36, 111
10, 266614, Note_on_c, 9, 36, 0
10, 266760, Note_on_c, 9, 36, 54
10, 266859, Note_on_c, 9, 36, 0
10, 266880, Note_on_c, 9, 36, 103
10, 267096, Note_on_c, 9, 36, 0
10, 267240, Note_on_c, 9, 36, 61
10, 267360, Note_on_c, 9, 36, 115
10, 267456, Note_on_c, 9, 36, 0
10, 267456, Note_on_c, 9, 36, 0
10, 267720, Note_on_c, 9, 36, 65
10, 267840, Note_on_c, 9, 36, 111
10, 267936, Note_on_c, 9, 36, 0
10, 267936, Note_on_c, 9, 36, 0
10, 268200, Note_on_c, 9, 36, 56
10, 268320, Note_on_c, 9, 36, 111
10, 268412, Note_on_c, 9, 36, 0
10, 268412, Note_on_c, 9, 36, 0
10, 268680, Note_on_c, 9, 36, 69
10, 268797, Note_on_c, 9, 36, 0
10, 268800, Note_on_c, 9, 36, 115
10, 269014, Note_on_c, 9, 36, 0
10, 269160, Note_on_c, 9, 36, 53
10, 269261, Note_on_c, 9, 36, 0
10, 269280, Note_on_c, 9, 36, 103
10, 269496, Note_on_c, 9, 36, 0
10, 269640, Note_on_c, 9, 36, 19
10, 269740, Note_on_c, 9, 36, 0
10, 269760, Note_on_c, 9, 36, 95
10, 269979, Note_on_c, 9, 36, 0
10, 270120, Note_on_c, 9, 36, 62
10, 270220, Note_on_c, 9, 36, 0
10, 270240, Note_on_c, 9, 36, 111
10, 270451, Note_on_c, 9, 36, 0
10, 270600, Note_on_c, 9, 36, 54
10, 270701, Note_on_c, 9, 36, 0
10, 270720, Note_on_c, 9, 36, 103
10, 270936, Note_on_c, 9, 36, 0
10, 271080, Note_on_c, 9, 36, 61
10, 271200, Note_on_c, 9, 36, 115
10, 271297, Note_on_c, 9, 36, 0
10, 271297, Note_on_c, 9, 36, 0
10, 271560, Note_on_c, 9, 36, 65
10, 271680, Note_on_c, 9, 36, 111
10, 271777, Note_on_c, 9, 36, 0
10, 271777, Note_on_c, 9, 36, 0
10, 272040, Note_on_c, 9, 36, 56
10, 272160, Note_on_c, 9, 36, 111
10, 272254, Note_on_c, 9, 36, 0
10, 272254, Note_on_c, 9, 36, 0
10, 272520, Note_on_c, 9, 36, 69
10, 272637, Note_on_c, 9, 36, 0
10, 272640, Note_on_c, 9, 36, 103
10, 272856, Note_on_c, 9, 36, 0
10, 273000, Note_on_c, 9, 36, 61
10, 273120, Note_on_c, 9, 36, 115
10, 273216, Note_on_c, 9, 36, 0
10, 273216, Note_on_c, 9, 36, 0
10, 273480, Note_on_c, 9, 36, 65
10, 273600, Note_on_c, 9, 36, 111
10, 273696, Note_on_c, 9, 36, 0
10, 273696, Note_on_c, 9, 36, 0
10, 273960, Note_on_c, 9, 36, 56
10, 274080, Note_on_c, 9, 36, 111
10, 274172, Note_on_c, 9, 36, 0
10, 274172, Note_on_c, 9, 36, 0
10, 274440, Note_on_c, 9, 36, 69
10, 274557, Note_on_c, 9, 36, 0
10, 274560, Note_on_c, 9, 36, 115
10, 274774, Note_on_c, 9, 36, 0
10, 274920, Note_on_c, 9, 36, 53
10, 275021, Note_on_c, 9, 36, 0
10, 275040, Note_on_c, 9, 36, 103
10, 275256, Note_on_c, 9, 36, 0
10, 275400, Note_on_c, 9, 36, 19
10, 275500, Note_on_c, 9, 36, 0
10, 275520, Note_on_c, 9, 36, 95
10, 275739, Note_on_c, 9, 36, 0
10, 275880, Note_on_c, 9, 36, 62
10, 275980, Note_on_c, 9, 36, 0
10, 276000, Note_on_c, 9, 36, 111
10, 276211, Note_on_c, 9, 36, 0
10, 276360, Note_on_c, 9, 36, 54
10, 276461, Note_on_c, 9, 36, 0
10, 276480, Note_on_c, 9, 36, 103
10, 276696, Note_on_c, 9, 36, 0
10, 276840, Note_on_c, 9, 36, 61
10, 276960, Note_on_c, 9, 36, 115
10, 277056, Note_on_c, 9, 36, 0
10, 277056, Note_on_c, 9, 36, 0
10, 277320, Note_on_c, 9, 36, 65
10, 277440, Note_on_c, 9, 36, 111
10, 277536, Note_on_c, 9, 36, 0
10, 277536, Note_on_c, 9, 36, 0
10, 277800, Note_on_c, 9, 36, 56
10, 277920, Note_on_c, 9, 36, 111
10, 278012, Note_on_c, 9, 36, 0
10, 278012, Note_on_c, 9, 36, 0
10, 278280, Note_on_c, 9, 36, 69
10, 278397, Note_on_c, 9, 36, 0
10, 278400, Note_on_c, 9, 36, 115
10, 278614, Note_on_c, 9, 36, 0
10, 278760, Note_on_c, 9, 36, 53
10, 278861, Note_on_c, 9, 36, 0
10, 278880, Note_on_c, 9, 36, 103
10, 279096, Note_on_c, 9, 36, 0
10, 279240, Note_on_c, 9, 36, 19
10, 279340, Note_on_c, 9, 36, 0
10, 279360, Note_on_c, 9, 36, 95
10, 279579, Note_on_c, 9, 36, 0
10, 279720, Note_on_c, 9, 36, 62
10, 279820, Note_on_c, 9, 36, 0
10, 279840, Note_on_c, 9, 36, 111
10, 280051, Note_on_c, 9, 36, 0
10, 280200, Note_on_c, 9, 36, 54
10, 280301, Note_on_c, 9, 36, 0
10, 284160, End_track
11, 0, Start_track
11, 0, Text_t, "pno"
11, 0, Control_c, 0, 32, 0
11, 22, Program_c, 0, 2
11, 33, Control_c, 0, 7, 120
11, 500, Control_c, 0, 11, 127
11, 520, Control_c, 0, 1, 33
11, 960, Control_c, 0, 10, 99
11, 11532, Note_on_c, 0, 57, 87
11, 11536, Note_on_c, 0, 66, 89
11, 11536, Note_on_c, 0, 62, 98
11, 11539, Note_on_c, 0, 69, 93
11, 12893, Note_on_c, 0, 69, 0
11, 12905, Note_on_c, 0, 62, 0
11, 12938, Note_on_c, 0, 66, 0
11, 12989, Note_on_c, 0, 57, 0
11, 13399, Note_on_c, 0, 55, 59
11, 13427, Note_on_c, 0, 60, 91
11, 13450, Note_on_c, 0, 64, 95
11, 13450, Note_on_c, 0, 67, 91
11, 14941, Note_on_c, 0, 60, 0
11, 14969, Note_on_c, 0, 67, 0
11, 14971, Note_on_c, 0, 64, 0
11, 14976, Note_on_c, 0, 55, 0
11, 15374, Note_on_c, 0, 55, 79
11, 15381, Note_on_c, 0, 67, 85
11, 15381, Note_on_c, 0, 59, 91
11, 15381, Note_on_c, 0, 43, 90
11, 15388, Note_on_c, 0, 62, 96
11, 16607, Note_on_c, 0, 62, 0
11, 16633, Note_on_c, 0, 59, 0
11, 16665, Note_on_c, 0, 55, 0
11, 16715, Note_on_c, 0, 67, 0
11, 17267, Note_on_c, 0, 43, 0
11, 17269, Note_on_c, 0, 45, 89
11, 17274, Note_on_c, 0, 57, 89
11, 17276, Note_on_c, 0, 66, 83
11, 17281, Note_on_c, 0, 69, 86
11, 17288, Note_on_c, 0, 62, 93
11, 18797, Note_on_c, 0, 69, 0
11, 18809, Note_on_c, 0, 66, 0
11, 18814, Note_on_c, 0, 62, 0
11, 18816, Note_on_c, 0, 57, 0
11, 18837, Note_on_c, 0, 45, 0
11, 19174, Note_on_c, 0, 57, 88
11, 19200, Note_on_c, 0, 62, 94
11, 19218, Note_on_c, 0, 66, 90
11, 19228, Note_on_c, 0, 69, 92
11, 20709, Note_on_c, 0, 62, 0
11, 20714, Note_on_c, 0, 69, 0
11, 20739, Note_on_c, 0, 57, 0
11, 20742, Note_on_c, 0, 66, 0
11, 21147, Note_on_c, 0, 67, 83
11, 21156, Note_on_c, 0, 64, 93
11, 21158, Note_on_c, 0, 60, 90
11, 21163, Note_on_c, 0, 48, 93
11, 22153, Note_on_c, 0, 60, 0
11, 22190, Note_on_c, 0, 64, 0
11, 22197, Note_on_c, 0, 67, 0
11, 22270, Note_on_c, 0, 64, 94
11, 22274, Note_on_c, 0, 62, 92
11, 22281, Note_on_c, 0, 67, 89
11, 22661, Note_on_c, 0, 62, 0
11, 22670, Note_on_c, 0, 67, 0
11, 22675, Note_on_c, 0, 64, 0
11, 22735, Note_on_c, 0, 60, 85
11, 22752, Note_on_c, 0, 67, 87
11, 22841, Note_on_c, 0, 67, 0
11, 22876, Note_on_c, 0, 60, 0
11, 22998, Note_on_c, 0, 48, 0
11, 23079, Note_on_c, 0, 67, 91
11, 23086, Note_on_c, 0, 62, 87
11, 23091, Note_on_c, 0, 43, 90
11, 23096, Note_on_c, 0, 50, 84
11, 24278, Note_on_c, 0, 62, 0
11, 24315, Note_on_c, 0, 67, 0
11, 24556, Note_on_c, 0, 50, 0
11, 24565, Note_on_c, 0, 43, 0
11, 24991, Note_on_c, 0, 57, 88
11, 25001, Note_on_c, 0, 66, 81
11, 25003, Note_on_c, 0, 45, 86
11, 25008, Note_on_c, 0, 69, 82
11, 25008, Note_on_c, 0, 62, 89
11, 25817, Note_on_c, 0, 57, 0
11, 25834, Note_on_c, 0, 62, 0
11, 25920, Note_on_c, 0, 66, 0
11, 25925, Note_on_c, 0, 69, 0
11, 26873, Note_on_c, 0, 45, 0
11, 26880, Note_on_c, 0, 62, 61
11, 26880, Note_on_c, 0, 74, 91
11, 26905, Note_on_c, 0, 50, 90
11, 26926, Note_on_c, 0, 69, 85
11, 28038, Note_on_c, 0, 50, 0
11, 28082, Note_on_c, 0, 45, 81
11, 28179, Note_on_c, 0, 74, 0
11, 28195, Note_on_c, 0, 69, 0
11, 28356, Note_on_c, 0, 62, 0
11, 28801, Note_on_c, 0, 48, 93
11, 28829, Note_on_c, 0, 45, 0
11, 28833, Note_on_c, 0, 67, 96
11, 30273, Note_on_c, 0, 64, 92
11, 30324, Note_on_c, 0, 67, 0
11, 30387, Note_on_c, 0, 48, 0
11, 30446, Note_on_c, 0, 64, 0
11, 30764, Note_on_c, 0, 67, 87
11, 30764, Note_on_c, 0, 71, 81
11, 30771, Note_on_c, 0, 43, 81
11, 30783, Note_on_c, 0, 74, 88
11, 31985, Note_on_c, 0, 71, 0
11, 31988, Note_on_c, 0, 74, 0
11, 31995, Note_on_c, 0, 67, 0
11, 32177, Note_on_c, 0, 74, 90
11, 32177, Note_on_c, 0, 67, 93
11, 32182, Note_on_c, 0, 71, 91
11, 32332, Note_on_c, 0, 67, 0
11, 32353, Note_on_c, 0, 71, 0
11, 32407, Note_on_c, 0, 43, 0
11, 32416, Note_on_c, 0, 74, 0
11, 32655, Note_on_c, 0, 66, 79
11, 32666, Note_on_c, 0, 50, 81
11, 32673, Note_on_c, 0, 74, 82
11, 32704, Note_on_c, 0, 69, 62
11, 33010, Note_on_c, 0, 69, 0
11, 33013, Note_on_c, 0, 66, 0
11, 33029, Note_on_c, 0, 74, 0
11, 33151, Note_on_c, 0, 66, 80
11, 33172, Note_on_c, 0, 74, 83
11, 33209, Note_on_c, 0, 69, 54
11, 33371, Note_on_c, 0, 69, 0
11, 33378, Note_on_c, 0, 66, 0
11, 33394, Note_on_c, 0, 74, 0
11, 33511, Note_on_c, 0, 66, 84
11, 33518, Note_on_c, 0, 74, 84
11, 33528, Note_on_c, 0, 69, 78
11, 33630, Note_on_c, 0, 69, 0
11, 33675, Note_on_c, 0, 74, 0
11, 33715, Note_on_c, 0, 66, 0
11, 33750, Note_on_c, 0, 71, 90
11, 33951, Note_on_c, 0, 71, 0
11, 34059, Note_on_c, 0, 69, 81
11, 34232, Note_on_c, 0, 69, 0
11, 34358, Note_on_c, 0, 50, 0
11, 34585, Note_on_c, 0, 50, 94
11, 34595, Note_on_c, 0, 66, 78
11, 34599, Note_on_c, 0, 74, 84
11, 34609, Note_on_c, 0, 69, 82
11, 35823, Note_on_c, 0, 66, 0
11, 35823, Note_on_c, 0, 74, 0
11, 35849, Note_on_c, 0, 69, 0
11, 35999, Note_on_c, 0, 66, 88
11, 36006, Note_on_c, 0, 69, 91
11, 36013, Note_on_c, 0, 74, 90
11, 36125, Note_on_c, 0, 69, 0
11, 36141, Note_on_c, 0, 66, 0
11, 36151, Note_on_c, 0, 74, 0
11, 36481, Note_on_c, 0, 48, 87
11, 36502, Note_on_c, 0, 64, 77
11, 36502, Note_on_c, 0, 72, 81
11, 36506, Note_on_c, 0, 67, 87
11, 36509, Note_on_c, 0, 50, 0
11, 37637, Note_on_c, 0, 67, 0
11, 37637, Note_on_c, 0, 64, 0
11, 37651, Note_on_c, 0, 72, 0
11, 37910, Note_on_c, 0, 72, 92
11, 37910, Note_on_c, 0, 67, 93
11, 37915, Note_on_c, 0, 64, 84
11, 38058, Note_on_c, 0, 72, 0
11, 38058, Note_on_c, 0, 64, 0
11, 38062, Note_on_c, 0, 67, 0
11, 38069, Note_on_c, 0, 48, 0
11, 38425, Note_on_c, 0, 62, 78
11, 38437, Note_on_c, 0, 74, 81
11, 38437, Note_on_c, 0, 67, 86
11, 38439, Note_on_c, 0, 71, 84
11, 38439, Note_on_c, 0, 43, 81
11, 39392, Note_on_c, 0, 43, 0
11, 39551, Note_on_c, 0, 71, 0
11, 39553, Note_on_c, 0, 74, 0
11, 39579, Note_on_c, 0, 67, 0
11, 39579, Note_on_c, 0, 62, 0
11, 39579, Note_on_c, 0, 43, 87
11, 39813, Note_on_c, 0, 74, 92
11, 39820, Note_on_c, 0, 71, 95
11, 39820, Note_on_c, 0, 67, 94
11, 39820, Note_on_c, 0, 62, 89
11, 39925, Note_on_c, 0, 74, 0
11, 39925, Note_on_c, 0, 71, 0
11, 39930, Note_on_c, 0, 67, 0
11, 39965, Note_on_c, 0, 62, 0
11, 40119, Note_on_c, 0, 43, 0
11, 40332, Note_on_c, 0, 45, 84
11, 40342, Note_on_c, 0, 57, 82
11, 40342, Note_on_c, 0, 66, 81
11, 40349, Note_on_c, 0, 69, 88
11, 40356, Note_on_c, 0, 62, 92
11, 40922, Note_on_c, 0, 45, 0
11, 41044, Note_on_c, 0, 45, 83
11, 41273, Note_on_c, 0, 45, 0
11, 41486, Note_on_c, 0, 45, 91
11, 41516, Note_on_c, 0, 69, 0
11, 41530, Note_on_c, 0, 62, 0
11, 41530, Note_on_c, 0, 57, 0
11, 41530, Note_on_c, 0, 66, 0
11, 41792, Note_on_c, 0, 66, 82
11, 41792, Note_on_c, 0, 57, 84
11, 41792, Note_on_c, 0, 62, 92
11, 41797, Note_on_c, 0, 69, 84
11, 41959, Note_on_c, 0, 45, 0
11, 42031, Note_on_c, 0, 45, 93
11, 42038, Note_on_c, 0, 69, 0
11, 42038, Note_on_c, 0, 62, 0
11, 42052, Note_on_c, 0, 57, 0
11, 42064, Note_on_c, 0, 66, 0
11, 42237, Note_on_c, 0, 45, 0
11, 42300, Note_on_c, 0, 45, 92
11, 42300, Note_on_c, 0, 52, 93
11, 42307, Note_on_c, 0, 57, 103
11, 42932, Note_on_c, 0, 45, 0
11, 43005, Note_on_c, 0, 45, 74
11, 43019, Note_on_c, 0, 52, 0
11, 43182, Note_on_c, 0, 52, 91
11, 43295, Note_on_c, 0, 45, 0
11, 43421, Note_on_c, 0, 45, 91
11, 43489, Note_on_c, 0, 52, 0
11, 43646, Note_on_c, 0, 52, 90
11, 43737, Note_on_c, 0, 45, 0
11, 43859, Note_on_c, 0, 52, 0
11, 43912, Note_on_c, 0, 45, 85
11, 44022, Note_on_c, 0, 57, 0
11, 44095, Note_on_c, 0, 45, 0
11, 44151, Note_on_c, 0, 52, 94
11, 44160, Note_on_c, 0, 45, 92
11, 44170, Note_on_c, 0, 57, 97
11, 44245, Note_on_c, 0, 45, 0
11, 44413, Note_on_c, 0, 45, 89
11, 44488, Note_on_c, 0, 52, 0
11, 44645, Note_on_c, 0, 52, 89
11, 44722, Note_on_c, 0, 45, 0
11, 44884, Note_on_c, 0, 45, 91
11, 44893, Note_on_c, 0, 52, 0
11, 45043, Note_on_c, 0, 52, 90
11, 45115, Note_on_c, 0, 45, 0
11, 45274, Note_on_c, 0, 52, 0
11, 45293, Note_on_c, 0, 45, 99
11, 45590, Note_on_c, 0, 52, 92
11, 45642, Note_on_c, 0, 45, 0
11, 45756, Note_on_c, 0, 52, 0
11, 45822, Note_on_c, 0, 45, 97
11, 45871, Note_on_c, 0, 57, 0
11, 46061, Note_on_c, 0, 50, 99
11, 46072, Note_on_c, 0, 62, 93
11, 46072, Note_on_c, 0, 57, 93
11, 46077, Note_on_c, 0, 66, 90
11, 46117, Note_on_c, 0, 45, 0
11, 46391, Note_on_c, 0, 50, 0
11, 46524, Note_on_c, 0, 45, 73
11, 46809, Note_on_c, 0, 50, 69
11, 46954, Note_on_c, 0, 45, 0
11, 47130, Note_on_c, 0, 50, 0
11, 47247, Note_on_c, 0, 45, 87
11, 47401, Note_on_c, 0, 66, 0
11, 47427, Note_on_c, 0, 62, 0
11, 47439, Note_on_c, 0, 57, 0
11, 47490, Note_on_c, 0, 50, 91
11, 47523, Note_on_c, 0, 57, 88
11, 47530, Note_on_c, 0, 64, 100
11, 47537, Note_on_c, 0, 63, 90
11, 47603, Note_on_c, 0, 63, 0
11, 47708, Note_on_c, 0, 45, 0
11, 47710, Note_on_c, 0, 64, 0
11, 47755, Note_on_c, 0, 50, 0
11, 47762, Note_on_c, 0, 57, 0
11, 47771, Note_on_c, 0, 45, 93
11, 47780, Note_on_c, 0, 62, 99
11, 47780, Note_on_c, 0, 57, 76
11, 47888, Note_on_c, 0, 57, 0
11, 47902, Note_on_c, 0, 62, 0
11, 47928, Note_on_c, 0, 45, 0
11, 48017, Note_on_c, 0, 50, 92
11, 48024, Note_on_c, 0, 66, 91
11, 48029, Note_on_c, 0, 57, 84
11, 48043, Note_on_c, 0, 62, 90
11, 48333, Note_on_c, 0, 50, 0
11, 48539, Note_on_c, 0, 50, 84
11, 48749, Note_on_c, 0, 45, 88
11, 48824, Note_on_c, 0, 50, 0
11, 49086, Note_on_c, 0, 66, 0
11, 49121, Note_on_c, 0, 50, 92
11, 49163, Note_on_c, 0, 62, 0
11, 49196, Note_on_c, 0, 57, 0
11, 49222, Note_on_c, 0, 45, 0
11, 49397, Note_on_c, 0, 45, 86
11, 49404, Note_on_c, 0, 66, 82
11, 49404, Note_on_c, 0, 62, 92
11, 49409, Note_on_c, 0, 57, 81
11, 49442, Note_on_c, 0, 50, 0
11, 49514, Note_on_c, 0, 62, 0
11, 49526, Note_on_c, 0, 57, 0
11, 49552, Note_on_c, 0, 66, 0
11, 49636, Note_on_c, 0, 50, 90
11, 49692, Note_on_c, 0, 45, 0
11, 49903, Note_on_c, 0, 64, 88
11, 49905, Note_on_c, 0, 69, 78
11, 49910, Note_on_c, 0, 57, 76
11, 49910, Note_on_c, 0, 45, 91
11, 49912, Note_on_c, 0, 61, 83
11, 49929, Note_on_c, 0, 50, 0
11, 50177, Note_on_c, 0, 45, 0
11, 50359, Note_on_c, 0, 45, 81
11, 50682, Note_on_c, 0, 52, 79
11, 50743, Note_on_c, 0, 45, 0
11, 50837, Note_on_c, 0, 52, 0
11, 50890, Note_on_c, 0, 45, 65
11, 51010, Note_on_c, 0, 45, 0
11, 51202, Note_on_c, 0, 45, 64
11, 51337, Note_on_c, 0, 52, 41
11, 51466, Note_on_c, 0, 69, 0
11, 51478, Note_on_c, 0, 64, 0
11, 51485, Note_on_c, 0, 61, 0
11, 51501, Note_on_c, 0, 57, 0
11, 51503, Note_on_c, 0, 52, 0
11, 51543, Note_on_c, 0, 45, 0
11, 51651, Note_on_c, 0, 49, 69
11, 51838, Note_on_c, 0, 49, 0
11, 51868, Note_on_c, 0, 57, 83
11, 51868, Note_on_c, 0, 69, 85
11, 51873, Note_on_c, 0, 61, 87
11, 51873, Note_on_c, 0, 64, 93
11, 51873, Note_on_c, 0, 45, 84
11, 51887, Note_on_c, 0, 52, 87
11, 52081, Note_on_c, 0, 45, 0
11, 52116, Note_on_c, 0, 52, 0
11, 52355, Note_on_c, 0, 45, 88
11, 52580, Note_on_c, 0, 52, 83
11, 52678, Note_on_c, 0, 45, 0
11, 52769, Note_on_c, 0, 45, 86
11, 52854, Note_on_c, 0, 52, 0
11, 52884, Note_on_c, 0, 45, 0
11, 53015, Note_on_c, 0, 45, 92
11, 53041, Note_on_c, 0, 64, 0
11, 53076, Note_on_c, 0, 57, 0
11, 53076, Note_on_c, 0, 69, 0
11, 53081, Note_on_c, 0, 61, 0
11, 53277, Note_on_c, 0, 61, 86
11, 53286, Note_on_c, 0, 52, 90
11, 53286, Note_on_c, 0, 69, 84
11, 53294, Note_on_c, 0, 57, 84
11, 53373, Note_on_c, 0, 57, 0
11, 53382, Note_on_c, 0, 61, 0
11, 53399, Note_on_c, 0, 45, 0
11, 53432, Note_on_c, 0, 69, 0
11, 53446, Note_on_c, 0, 52, 0
11, 53511, Note_on_c, 0, 45, 92
11, 53759, Note_on_c, 0, 74, 45
11, 53776, Note_on_c, 0, 66, 77
11, 53776, Note_on_c, 0, 62, 79
11, 53776, Note_on_c, 0, 50, 94
11, 53857, Note_on_c, 0, 45, 0
11, 54021, Note_on_c, 0, 50, 0
11, 54241, Note_on_c, 0, 45, 83
11, 54545, Note_on_c, 0, 50, 53
11, 54616, Note_on_c, 0, 45, 0
11, 54815, Note_on_c, 0, 50, 0
11, 54924, Note_on_c, 0, 45, 81
11, 54943, Note_on_c, 0, 74, 0
11, 55004, Note_on_c, 0, 62, 0
11, 55032, Note_on_c, 0, 66, 0
11, 55109, Note_on_c, 0, 45, 0
11, 55194, Note_on_c, 0, 50, 94
11, 55196, Note_on_c, 0, 62, 85
11, 55196, Note_on_c, 0, 71, 99
11, 55360, Note_on_c, 0, 62, 0
11, 55360, Note_on_c, 0, 71, 0
11, 55437, Note_on_c, 0, 50, 0
11, 55442, Note_on_c, 0, 45, 91
11, 55446, Note_on_c, 0, 69, 89
11, 55453, Note_on_c, 0, 62, 87
11, 55545, Note_on_c, 0, 62, 0
11, 55549, Note_on_c, 0, 69, 0
11, 55643, Note_on_c, 0, 45, 0
11, 55708, Note_on_c, 0, 50, 94
11, 55708, Note_on_c, 0, 74, 89
11, 55713, Note_on_c, 0, 62, 88
11, 55720, Note_on_c, 0, 66, 90
11, 56069, Note_on_c, 0, 50, 0
11, 56228, Note_on_c, 0, 45, 68
11, 56537, Note_on_c, 0, 45, 0
11, 56598, Note_on_c, 0, 50, 71
11, 56869, Note_on_c, 0, 45, 82
11, 56913, Note_on_c, 0, 50, 0
11, 57108, Note_on_c, 0, 50, 90
11, 57155, Note_on_c, 0, 66, 0
11, 57169, Note_on_c, 0, 45, 0
11, 57199, Note_on_c, 0, 74, 0
11, 57199, Note_on_c, 0, 62, 0
11, 57346, Note_on_c, 0, 50, 0
11, 57358, Note_on_c, 0, 45, 91
11, 57590, Note_on_c, 0, 50, 92
11, 57592, Note_on_c, 0, 45, 0
11, 57594, Note_on_c, 0, 62, 73
11, 57601, Note_on_c, 0, 66, 84
11, 57611, Note_on_c, 0, 69, 88
11, 58044, Note_on_c, 0, 45, 78
11, 58081, Note_on_c, 0, 50, 0
11, 58317, Note_on_c, 0, 50, 88
11, 58341, Note_on_c, 0, 45, 0
11, 58528, Note_on_c, 0, 45, 88
11, 58566, Note_on_c, 0, 50, 0
11, 58631, Note_on_c, 0, 69, 0
11, 58692, Note_on_c, 0, 62, 0
11, 58708, Note_on_c, 0, 66, 0
11, 58750, Note_on_c, 0, 50, 93
11, 58788, Note_on_c, 0, 45, 0
11, 59029, Note_on_c, 0, 45, 91
11, 59045, Note_on_c, 0, 62, 90
11, 59052, Note_on_c, 0, 66, 83
11, 59055, Note_on_c, 0, 69, 90
11, 59066, Note_on_c, 0, 50, 0
11, 59195, Note_on_c, 0, 66, 0
11, 59221, Note_on_c, 0, 62, 0
11, 59270, Note_on_c, 0, 50, 90
11, 59282, Note_on_c, 0, 66, 88
11, 59298, Note_on_c, 0, 62, 90
11, 59347, Note_on_c, 0, 45, 0
11, 59370, Note_on_c, 0, 69, 0
11, 59375, Note_on_c, 0, 66, 0
11, 59389, Note_on_c, 0, 62, 0
11, 59420, Note_on_c, 0, 50, 0
11, 59551, Note_on_c, 0, 67, 86
11, 59562, Note_on_c, 0, 64, 83
11, 59562, Note_on_c, 0, 43, 72
11, 59977, Note_on_c, 0, 48, 81
11, 60271, Note_on_c, 0, 52, 87
11, 60321, Note_on_c, 0, 48, 0
11, 60325, Note_on_c, 0, 43, 0
11, 60423, Note_on_c, 0, 52, 0
11, 60470, Note_on_c, 0, 48, 71
11, 60555, Note_on_c, 0, 48, 0
11, 60688, Note_on_c, 0, 48, 90
11, 60737, Note_on_c, 0, 64, 0
11, 60763, Note_on_c, 0, 67, 0
11, 60941, Note_on_c, 0, 48, 0
11, 60985, Note_on_c, 0, 67, 93
11, 60985, Note_on_c, 0, 43, 89
11, 60992, Note_on_c, 0, 64, 93
11, 61158, Note_on_c, 0, 67, 0
11, 61179, Note_on_c, 0, 64, 0
11, 61212, Note_on_c, 0, 48, 91
11, 61289, Note_on_c, 0, 43, 0
11, 61423, Note_on_c, 0, 48, 0
11, 61441, Note_on_c, 0, 62, 64
11, 61451, Note_on_c, 0, 67, 85
11, 61458, Note_on_c, 0, 71, 83
11, 61458, Note_on_c, 0, 43, 87
11, 61460, Note_on_c, 0, 74, 84
11, 61949, Note_on_c, 0, 50, 83
11, 62083, Note_on_c, 0, 43, 0
11, 62202, Note_on_c, 0, 43, 77
11, 62277, Note_on_c, 0, 50, 0
11, 62349, Note_on_c, 0, 50, 92
11, 62448, Note_on_c, 0, 43, 0
11, 62466, Note_on_c, 0, 74, 0
11, 62487, Note_on_c, 0, 71, 0
11, 62501, Note_on_c, 0, 62, 0
11, 62515, Note_on_c, 0, 67, 0
11, 62551, Note_on_c, 0, 50, 0
11, 62565, Note_on_c, 0, 43, 84
11, 62600, Note_on_c, 0, 71, 92
11, 62607, Note_on_c, 0, 74, 92
11, 62607, Note_on_c, 0, 62, 92
11, 62806, Note_on_c, 0, 62, 0
11, 62899, Note_on_c, 0, 74, 0
11, 62932, Note_on_c, 0, 50, 83
11, 63037, Note_on_c, 0, 50, 0
11, 63044, Note_on_c, 0, 71, 0
11, 63093, Note_on_c, 0, 50, 94
11, 63093, Note_on_c, 0, 62, 89
11, 63100, Note_on_c, 0, 69, 88
11, 63100, Note_on_c, 0, 67, 94
11, 63100, Note_on_c, 0, 71, 71
11, 63168, Note_on_c, 0, 43, 0
11, 63171, Note_on_c, 0, 67, 0
11, 63173, Note_on_c, 0, 71, 0
11, 63220, Note_on_c, 0, 69, 0
11, 63257, Note_on_c, 0, 62, 0
11, 63292, Note_on_c, 0, 50, 0
11, 63372, Note_on_c, 0, 62, 70
11, 63384, Note_on_c, 0, 66, 84
11, 63384, Note_on_c, 0, 69, 75
11, 63388, Note_on_c, 0, 74, 87
11, 63388, Note_on_c, 0, 45, 82
11, 63807, Note_on_c, 0, 45, 0
11, 63861, Note_on_c, 0, 45, 81
11, 63866, Note_on_c, 0, 50, 98
11, 64011, Note_on_c, 0, 45, 0
11, 64121, Note_on_c, 0, 50, 0
11, 64128, Note_on_c, 0, 45, 83
11, 64472, Note_on_c, 0, 50, 91
11, 64488, Note_on_c, 0, 45, 0
11, 64509, Note_on_c, 0, 69, 0
11, 64614, Note_on_c, 0, 74, 0
11, 64614, Note_on_c, 0, 62, 0
11, 64647, Note_on_c, 0, 66, 0
11, 64750, Note_on_c, 0, 50, 0
11, 64755, Note_on_c, 0, 45, 78
11, 64790, Note_on_c, 0, 71, 91
11, 64790, Note_on_c, 0, 62, 89
11, 64823, Note_on_c, 0, 74, 69
11, 64928, Note_on_c, 0, 74, 0
11, 64975, Note_on_c, 0, 62, 0
11, 64998, Note_on_c, 0, 71, 0
11, 65045, Note_on_c, 0, 62, 93
11, 65052, Note_on_c, 0, 66, 82
11, 65052, Note_on_c, 0, 50, 90
11, 65096, Note_on_c, 0, 45, 0
11, 65150, Note_on_c, 0, 66, 0
11, 65288, Note_on_c, 0, 50, 0
11, 65293, Note_on_c, 0, 45, 95
11, 65302, Note_on_c, 0, 69, 77
11, 65314, Note_on_c, 0, 74, 88
11, 65314, Note_on_c, 0, 66, 68
11, 65791, Note_on_c, 0, 50, 94
11, 65824, Note_on_c, 0, 45, 0
11, 65993, Note_on_c, 0, 45, 91
11, 66039, Note_on_c, 0, 50, 0
11, 66199, Note_on_c, 0, 50, 93
11, 66283, Note_on_c, 0, 45, 0
11, 66405, Note_on_c, 0, 50, 0
11, 66430, Note_on_c, 0, 69, 0
11, 66440, Note_on_c, 0, 45, 93
11, 66571, Note_on_c, 0, 74, 0
11, 66573, Note_on_c, 0, 62, 0
11, 66594, Note_on_c, 0, 66, 0
11, 66711, Note_on_c, 0, 50, 91
11, 66744, Note_on_c, 0, 71, 94
11, 66751, Note_on_c, 0, 45, 0
11, 66751, Note_on_c, 0, 62, 89
11, 66781, Note_on_c, 0, 74, 62
11, 66882, Note_on_c, 0, 74, 0
11, 66924, Note_on_c, 0, 62, 0
11, 66947, Note_on_c, 0, 50, 0
11, 66954, Note_on_c, 0, 45, 91
11, 66966, Note_on_c, 0, 71, 0
11, 66968, Note_on_c, 0, 66, 85
11, 66983, Note_on_c, 0, 62, 86
11, 67078, Note_on_c, 0, 62, 0
11, 67111, Note_on_c, 0, 66, 0
11, 67181, Note_on_c, 0, 45, 0
11, 67219, Note_on_c, 0, 43, 87
11, 67233, Note_on_c, 0, 64, 90
11, 67238, Note_on_c, 0, 72, 87
11, 67245, Note_on_c, 0, 67, 93
11, 67633, Note_on_c, 0, 48, 88
11, 67965, Note_on_c, 0, 52, 91
11, 67991, Note_on_c, 0, 48, 0
11, 68122, Note_on_c, 0, 48, 92
11, 68160, Note_on_c, 0, 43, 0
11, 68188, Note_on_c, 0, 64, 0
11, 68225, Note_on_c, 0, 52, 0
11, 68281, Note_on_c, 0, 72, 0
11, 68344, Note_on_c, 0, 67, 0
11, 68394, Note_on_c, 0, 52, 87
11, 68394, Note_on_c, 0, 43, 84
11, 68468, Note_on_c, 0, 48, 0
11, 68642, Note_on_c, 0, 48, 95
11, 68653, Note_on_c, 0, 67, 94
11, 68656, Note_on_c, 0, 64, 85
11, 68658, Note_on_c, 0, 72, 92
11, 68684, Note_on_c, 0, 43, 0
11, 68684, Note_on_c, 0, 52, 0
11, 68756, Note_on_c, 0, 67, 0
11, 68766, Note_on_c, 0, 64, 0
11, 68808, Note_on_c, 0, 72, 0
11, 68822, Note_on_c, 0, 48, 0
11, 68864, Note_on_c, 0, 43, 93
11, 69070, Note_on_c, 0, 43, 0
11, 69121, Note_on_c, 0, 50, 91
11, 69126, Note_on_c, 0, 67, 90
11, 69126, Note_on_c, 0, 71, 88
11, 69128, Note_on_c, 0, 74, 92
11, 69128, Note_on_c, 0, 43, 90
11, 69411, Note_on_c, 0, 43, 0
11, 69447, Note_on_c, 0, 50, 0
11, 69564, Note_on_c, 0, 43, 91
11, 69739, Note_on_c, 0, 43, 0
11, 69847, Note_on_c, 0, 50, 91
11, 69847, Note_on_c, 0, 43, 90
11, 69851, Note_on_c, 0, 74, 0
11, 69858, Note_on_c, 0, 71, 0
11, 69868, Note_on_c, 0, 67, 0
11, 70172, Note_on_c, 0, 43, 0
11, 70186, Note_on_c, 0, 50, 0
11, 70259, Note_on_c, 0, 43, 89
11, 70280, Note_on_c, 0, 71, 91
11, 70282, Note_on_c, 0, 67, 90
11, 70284, Note_on_c, 0, 74, 95
11, 70291, Note_on_c, 0, 50, 88
11, 70378, Note_on_c, 0, 50, 0
11, 70490, Note_on_c, 0, 67, 0
11, 70518, Note_on_c, 0, 50, 86
11, 70528, Note_on_c, 0, 71, 0
11, 70617, Note_on_c, 0, 50, 0
11, 70626, Note_on_c, 0, 74, 0
11, 70659, Note_on_c, 0, 43, 0
11, 70836, Note_on_c, 0, 50, 90
11, 71010, Note_on_c, 0, 50, 0
11, 71096, Note_on_c, 0, 45, 92
11, 71103, Note_on_c, 0, 69, 73
11, 71113, Note_on_c, 0, 78, 75
11, 71124, Note_on_c, 0, 74, 75
11, 71152, Note_on_c, 0, 81, 55
11, 71548, Note_on_c, 0, 50, 93
11, 71943, Note_on_c, 0, 54, 82
11, 71971, Note_on_c, 0, 50, 0
11, 72070, Note_on_c, 0, 81, 0
11, 72070, Note_on_c, 0, 69, 0
11, 72095, Note_on_c, 0, 74, 0
11, 72095, Note_on_c, 0, 78, 0
11, 72156, Note_on_c, 0, 54, 0
11, 72163, Note_on_c, 0, 50, 97
11, 72168, Note_on_c, 0, 45, 0
11, 72173, Note_on_c, 0, 69, 91
11, 72175, Note_on_c, 0, 74, 99
11, 72180, Note_on_c, 0, 78, 94
11, 72182, Note_on_c, 0, 81, 94
11, 72336, Note_on_c, 0, 50, 0
11, 72383, Note_on_c, 0, 81, 0
11, 72390, Note_on_c, 0, 69, 0
11, 72397, Note_on_c, 0, 45, 80
11, 72407, Note_on_c, 0, 74, 0
11, 72507, Note_on_c, 0, 69, 88
11, 72519, Note_on_c, 0, 76, 97
11, 72521, Note_on_c, 0, 50, 97
11, 72601, Note_on_c, 0, 45, 0
11, 72662, Note_on_c, 0, 69, 0
11, 72669, Note_on_c, 0, 76, 0
11, 72685, Note_on_c, 0, 78, 0
11, 72690, Note_on_c, 0, 50, 0
11, 72741, Note_on_c, 0, 74, 95
11, 72746, Note_on_c, 0, 69, 91
11, 72751, Note_on_c, 0, 45, 94
11, 72861, Note_on_c, 0, 74, 0
11, 72868, Note_on_c, 0, 69, 0
11, 72985, Note_on_c, 0, 50, 99
11, 72996, Note_on_c, 0, 78, 91
11, 72996, Note_on_c, 0, 81, 91
11, 72996, Note_on_c, 0, 69, 85
11, 72996, Note_on_c, 0, 81, 91
11, 73001, Note_on_c, 0, 74, 92
11, 73071, Note_on_c, 0, 45, 0
11, 73322, Note_on_c, 0, 50, 0
11, 73467, Note_on_c, 0, 45, 92
11, 73481, Note_on_c, 0, 74, 0
11, 73488, Note_on_c, 0, 69, 0
11, 73553, Note_on_c, 0, 78, 0
11, 73560, Note_on_c, 0, 81, 0
11, 73560, Note_on_c, 0, 81, 0
11, 73691, Note_on_c, 0, 50, 91
11, 73701, Note_on_c, 0, 45, 0
11, 73907, Note_on_c, 0, 50, 0
11, 73916, Note_on_c, 0, 45, 92
11, 73930, Note_on_c, 0, 74, 92
11, 73937, Note_on_c, 0, 86, 89
11, 74141, Note_on_c, 0, 86, 0
11, 74185, Note_on_c, 0, 74, 0
11, 74225, Note_on_c, 0, 50, 92
11, 74258, Note_on_c, 0, 45, 0
11, 74262, Note_on_c, 0, 81, 99
11, 74267, Note_on_c, 0, 74, 94
11, 74428, Note_on_c, 0, 45, 87
11, 74494, Note_on_c, 0, 50, 0
11, 74513, Note_on_c, 0, 74, 0
11, 74559, Note_on_c, 0, 81, 0
11, 74634, Note_on_c, 0, 78, 93
11, 74639, Note_on_c, 0, 74, 91
11, 74641, Note_on_c, 0, 50, 94
11, 74695, Note_on_c, 0, 45, 0
11, 74714, Note_on_c, 0, 78, 0
11, 74723, Note_on_c, 0, 74, 0
11, 74796, Note_on_c, 0, 45, 90
11, 74826, Note_on_c, 0, 50, 0
11, 74929, Note_on_c, 0, 72, 56
11, 74934, Note_on_c, 0, 76, 94
11, 74936, Note_on_c, 0, 84, 86
11, 75056, Note_on_c, 0, 45, 0
11, 75320, Note_on_c, 0, 45, 92
11, 75652, Note_on_c, 0, 45, 0
11, 75781, Note_on_c, 0, 50, 87
11, 75795, Note_on_c, 0, 45, 85
11, 75851, Note_on_c, 0, 50, 0
11, 76022, Note_on_c, 0, 76, 0
11, 76024, Note_on_c, 0, 84, 0
11, 76031, Note_on_c, 0, 48, 68
11, 76043, Note_on_c, 0, 72, 0
11, 76083, Note_on_c, 0, 45, 0
11, 76286, Note_on_c, 0, 48, 0
11, 76293, Note_on_c, 0, 72, 80
11, 76293, Note_on_c, 0, 76, 93
11, 76298, Note_on_c, 0, 45, 93
11, 76303, Note_on_c, 0, 79, 84
11, 76305, Note_on_c, 0, 84, 77
11, 76457, Note_on_c, 0, 84, 0
11, 76478, Note_on_c, 0, 76, 0
11, 76485, Note_on_c, 0, 79, 0
11, 76520, Note_on_c, 0, 45, 0
11, 76527, Note_on_c, 0, 72, 0
11, 76562, Note_on_c, 0, 48, 94
11, 76661, Note_on_c, 0, 48, 0
11, 76785, Note_on_c, 0, 43, 79
11, 76811, Note_on_c, 0, 71, 92
11, 76813, Note_on_c, 0, 74, 93
11, 76815, Note_on_c, 0, 79, 91
11, 77129, Note_on_c, 0, 43, 0
11, 77304, Note_on_c, 0, 43, 91
11, 77314, Note_on_c, 0, 50, 91
11, 77442, Note_on_c, 0, 43, 0
11, 77489, Note_on_c, 0, 50, 0
11, 77527, Note_on_c, 0, 43, 87
11, 77536, Note_on_c, 0, 74, 0
11, 77541, Note_on_c, 0, 79, 0
11, 77545, Note_on_c, 0, 50, 58
11, 77580, Note_on_c, 0, 71, 0
11, 77632, Note_on_c, 0, 50, 0
11, 77660, Note_on_c, 0, 71, 94
11, 77665, Note_on_c, 0, 67, 88
11, 77667, Note_on_c, 0, 74, 95
11, 77672, Note_on_c, 0, 79, 82
11, 77686, Note_on_c, 0, 50, 88
11, 77732, Note_on_c, 0, 43, 0
11, 77866, Note_on_c, 0, 50, 0
11, 77901, Note_on_c, 0, 74, 0
11, 77924, Note_on_c, 0, 67, 0
11, 77952, Note_on_c, 0, 71, 0
11, 78002, Note_on_c, 0, 43, 89
11, 78088, Note_on_c, 0, 79, 0
11, 78264, Note_on_c, 0, 76, 98
11, 78264, Note_on_c, 0, 69, 90
11, 78268, Note_on_c, 0, 50, 93
11, 78271, Note_on_c, 0, 71, 95
11, 78343, Note_on_c, 0, 43, 0
11, 78388, Note_on_c, 0, 71, 0
11, 78397, Note_on_c, 0, 69, 0
11, 78432, Note_on_c, 0, 76, 0
11, 78456, Note_on_c, 0, 50, 0
11, 78484, Note_on_c, 0, 43, 94
11, 78495, Note_on_c, 0, 74, 99
11, 78498, Note_on_c, 0, 69, 96
11, 78580, Note_on_c, 0, 74, 0
11, 78587, Note_on_c, 0, 69, 0
11, 78678, Note_on_c, 0, 43, 0
11, 78727, Note_on_c, 0, 50, 89
11, 78748, Note_on_c, 0, 66, 98
11, 78757, Note_on_c, 0, 69, 100
11, 78785, Note_on_c, 0, 45, 93
11, 78797, Note_on_c, 0, 50, 0
11, 79228, Note_on_c, 0, 50, 95
11, 79427, Note_on_c, 0, 54, 89
11, 79450, Note_on_c, 0, 69, 0
11, 79485, Note_on_c, 0, 50, 0
11, 79499, Note_on_c, 0, 66, 0
11, 79546, Note_on_c, 0, 45, 0
11, 79569, Note_on_c, 0, 66, 92
11, 79569, Note_on_c, 0, 74, 94
11, 79569, Note_on_c, 0, 62, 92
11, 79600, Note_on_c, 0, 50, 84
11, 79602, Note_on_c, 0, 54, 0
11, 79745, Note_on_c, 0, 50, 0
11, 79803, Note_on_c, 0, 62, 0
11, 79836, Note_on_c, 0, 66, 0
11, 79838, Note_on_c, 0, 74, 0
11, 79838, Note_on_c, 0, 45, 88
11, 79890, Note_on_c, 0, 69, 94
11, 79897, Note_on_c, 0, 64, 90
11, 80119, Note_on_c, 0, 64, 0
11, 80126, Note_on_c, 0, 69, 0
11, 80152, Note_on_c, 0, 45, 0
11, 80157, Note_on_c, 0, 50, 97
11, 80161, Note_on_c, 0, 66, 92
11, 80178, Note_on_c, 0, 64, 87
11, 80297, Note_on_c, 0, 64, 0
11, 80363, Note_on_c, 0, 50, 0
11, 80363, Note_on_c, 0, 66, 0
11, 80391, Note_on_c, 0, 45, 93
11, 80402, Note_on_c, 0, 64, 90
11, 80414, Note_on_c, 0, 69, 92
11, 80515, Note_on_c, 0, 69, 0
11, 80529, Note_on_c, 0, 64, 0
11, 80608, Note_on_c, 0, 45, 0
11, 80646, Note_on_c, 0, 66, 88
11, 80648, Note_on_c, 0, 50, 100
11, 80650, Note_on_c, 0, 74, 86
11, 80686, Note_on_c, 0, 45, 90
11, 81023, Note_on_c, 0, 50, 0
11, 81114, Note_on_c, 0, 54, 84
11, 81116, Note_on_c, 0, 45, 0
11, 81285, Note_on_c, 0, 54, 0
11, 81322, Note_on_c, 0, 45, 91
11, 81495, Note_on_c, 0, 50, 95
11, 81540, Note_on_c, 0, 45, 0
11, 81668, Note_on_c, 0, 50, 0
11, 81692, Note_on_c, 0, 74, 0
11, 81692, Note_on_c, 0, 66, 0
11, 81748, Note_on_c, 0, 45, 97
11, 81762, Note_on_c, 0, 64, 92
11, 81764, Note_on_c, 0, 69, 98
11, 81961, Note_on_c, 0, 64, 0
11, 81970, Note_on_c, 0, 69, 0
11, 82045, Note_on_c, 0, 45, 0
11, 82068, Note_on_c, 0, 50, 97
11, 82076, Note_on_c, 0, 66, 89
11, 82076, Note_on_c, 0, 64, 85
11, 82188, Note_on_c, 0, 64, 0
11, 82223, Note_on_c, 0, 66, 0
11, 82279, Note_on_c, 0, 50, 0
11, 82281, Note_on_c, 0, 45, 90
11, 82328, Note_on_c, 0, 69, 87
11, 82338, Note_on_c, 0, 64, 85
11, 82436, Note_on_c, 0, 69, 0
11, 82448, Note_on_c, 0, 64, 0
11, 82494, Note_on_c, 0, 45, 0
11, 82595, Note_on_c, 0, 43, 92
11, 82595, Note_on_c, 0, 64, 97
11, 83007, Note_on_c, 0, 48, 94
11, 83079, Note_on_c, 0, 43, 0
11, 83238, Note_on_c, 0, 48, 0
11, 83241, Note_on_c, 0, 43, 88
11, 83346, Note_on_c, 0, 64, 0
11, 83398, Note_on_c, 0, 48, 91
11, 83519, Note_on_c, 0, 43, 0
11, 83611, Note_on_c, 0, 48, 0
11, 83643, Note_on_c, 0, 43, 99
11, 83655, Note_on_c, 0, 67, 97
11, 83678, Note_on_c, 0, 64, 78
11, 83735, Note_on_c, 0, 64, 0
11, 83887, Note_on_c, 0, 43, 0
11, 83915, Note_on_c, 0, 67, 0
11, 83969, Note_on_c, 0, 48, 87
11, 83978, Note_on_c, 0, 64, 89
11, 84125, Note_on_c, 0, 48, 0
11, 84132, Note_on_c, 0, 64, 0
11, 84226, Note_on_c, 0, 43, 87
11, 84242, Note_on_c, 0, 67, 92
11, 84256, Note_on_c, 0, 64, 90
11, 84338, Note_on_c, 0, 64, 0
11, 84343, Note_on_c, 0, 67, 0
11, 84385, Note_on_c, 0, 43, 0
11, 84479, Note_on_c, 0, 43, 94
11, 84502, Note_on_c, 0, 62, 90
11, 84507, Note_on_c, 0, 67, 84
11, 84853, Note_on_c, 0, 43, 0
11, 84993, Note_on_c, 0, 50, 94
11, 85012, Note_on_c, 0, 43, 81
11, 85118, Note_on_c, 0, 43, 0
11, 85213, Note_on_c, 0, 43, 76
11, 85267, Note_on_c, 0, 50, 0
11, 85288, Note_on_c, 0, 62, 0
11, 85295, Note_on_c, 0, 67, 0
11, 85340, Note_on_c, 0, 62, 93
11, 85342, Note_on_c, 0, 67, 94
11, 85380, Note_on_c, 0, 50, 87
11, 85419, Note_on_c, 0, 43, 0
11, 85548, Note_on_c, 0, 50, 0
11, 85611, Note_on_c, 0, 62, 0
11, 85616, Note_on_c, 0, 67, 0
11, 85630, Note_on_c, 0, 43, 92
11, 85660, Note_on_c, 0, 62, 94
11, 85665, Note_on_c, 0, 67, 94
11, 85801, Note_on_c, 0, 62, 0
11, 85805, Note_on_c, 0, 67, 0
11, 85944, Note_on_c, 0, 67, 94
11, 85944, Note_on_c, 0, 62, 96
11, 85951, Note_on_c, 0, 50, 97
11, 85962, Note_on_c, 0, 43, 0
11, 86077, Note_on_c, 0, 67, 0
11, 86079, Note_on_c, 0, 62, 0
11, 86105, Note_on_c, 0, 50, 0
11, 86168, Note_on_c, 0, 43, 92
11, 86178, Note_on_c, 0, 62, 100
11, 86180, Note_on_c, 0, 67, 98
11, 86264, Note_on_c, 0, 62, 0
11, 86278, Note_on_c, 0, 67, 0
11, 86306, Note_on_c, 0, 43, 0
11, 86433, Note_on_c, 0, 57, 83
11, 86433, Note_on_c, 0, 66, 91
11, 86440, Note_on_c, 0, 62, 94
11, 86449, Note_on_c, 0, 45, 97
11, 86896, Note_on_c, 0, 50, 101
11, 86933, Note_on_c, 0, 45, 0
11, 87097, Note_on_c, 0, 45, 85
11, 87137, Note_on_c, 0, 50, 0
11, 87266, Note_on_c, 0, 50, 97
11, 87298, Note_on_c, 0, 45, 0
11, 87404, Note_on_c, 0, 50, 0
11, 87441, Note_on_c, 0, 62, 0
11, 87446, Note_on_c, 0, 66, 0
11, 87448, Note_on_c, 0, 57, 0
11, 87486, Note_on_c, 0, 45, 97
11, 87518, Note_on_c, 0, 66, 108
11, 87518, Note_on_c, 0, 57, 93
11, 87521, Note_on_c, 0, 62, 102
11, 87694, Note_on_c, 0, 57, 0
11, 87724, Note_on_c, 0, 45, 0
11, 87734, Note_on_c, 0, 66, 0
11, 87743, Note_on_c, 0, 62, 0
11, 87853, Note_on_c, 0, 57, 96
11, 87853, Note_on_c, 0, 62, 101
11, 87853, Note_on_c, 0, 66, 94
11, 87858, Note_on_c, 0, 45, 95
11, 87956, Note_on_c, 0, 57, 0
11, 87963, Note_on_c, 0, 62, 0
11, 88005, Note_on_c, 0, 66, 0
11, 88089, Note_on_c, 0, 64, 94
11, 88089, Note_on_c, 0, 50, 95
11, 88094, Note_on_c, 0, 57, 90
11, 88106, Note_on_c, 0, 45, 0
11, 88218, Note_on_c, 0, 64, 0
11, 88227, Note_on_c, 0, 57, 0
11, 88237, Note_on_c, 0, 50, 0
11, 88344, Note_on_c, 0, 57, 87
11, 88347, Note_on_c, 0, 61, 81
11, 88354, Note_on_c, 0, 64, 96
11, 88354, Note_on_c, 0, 45, 93
11, 88370, Note_on_c, 0, 52, 81
11, 88665, Note_on_c, 0, 45, 0
11, 88695, Note_on_c, 0, 52, 0
11, 88857, Note_on_c, 0, 45, 95
11, 89074, Note_on_c, 0, 52, 87
11, 89177, Note_on_c, 0, 45, 0
11, 89245, Note_on_c, 0, 45, 91
11, 89250, Note_on_c, 0, 52, 0
11, 89491, Note_on_c, 0, 52, 93
11, 89599, Note_on_c, 0, 45, 0
11, 89681, Note_on_c, 0, 52, 0
11, 89755, Note_on_c, 0, 45, 93
11, 89936, Note_on_c, 0, 45, 0
11, 89985, Note_on_c, 0, 52, 90
11, 90001, Note_on_c, 0, 61, 0
11, 90057, Note_on_c, 0, 57, 0
11, 90057, Note_on_c, 0, 64, 0
11, 90167, Note_on_c, 0, 52, 0
11, 90240, Note_on_c, 0, 57, 87
11, 90240, Note_on_c, 0, 64, 96
11, 90244, Note_on_c, 0, 61, 88
11, 90249, Note_on_c, 0, 45, 98
11, 90497, Note_on_c, 0, 52, 91
11, 90551, Note_on_c, 0, 45, 0
11, 90701, Note_on_c, 0, 52, 0
11, 90748, Note_on_c, 0, 45, 94
11, 90979, Note_on_c, 0, 52, 93
11, 91052, Note_on_c, 0, 45, 0
11, 91143, Note_on_c, 0, 45, 96
11, 91157, Note_on_c, 0, 52, 0
11, 91382, Note_on_c, 0, 45, 0
11, 91407, Note_on_c, 0, 52, 95
11, 91520, Note_on_c, 0, 57, 0
11, 91520, Note_on_c, 0, 64, 0
11, 91529, Note_on_c, 0, 61, 0
11, 91604, Note_on_c, 0, 52, 0
11, 91679, Note_on_c, 0, 45, 98
11, 91681, Note_on_c, 0, 64, 95
11, 91686, Note_on_c, 0, 61, 84
11, 91686, Note_on_c, 0, 57, 90
11, 91843, Note_on_c, 0, 64, 0
11, 91843, Note_on_c, 0, 57, 0
11, 91873, Note_on_c, 0, 61, 0
11, 91894, Note_on_c, 0, 52, 95
11, 91932, Note_on_c, 0, 61, 95
11, 91932, Note_on_c, 0, 57, 97
11, 91934, Note_on_c, 0, 69, 95
11, 92030, Note_on_c, 0, 45, 0
11, 92037, Note_on_c, 0, 57, 0
11, 92042, Note_on_c, 0, 69, 0
11, 92063, Note_on_c, 0, 61, 0
11, 92072, Note_on_c, 0, 52, 0
11, 92152, Note_on_c, 0, 45, 96
11, 92163, Note_on_c, 0, 66, 79
11, 92170, Note_on_c, 0, 57, 80
11, 92439, Note_on_c, 0, 50, 93
11, 92627, Note_on_c, 0, 50, 0
11, 92676, Note_on_c, 0, 54, 86
11, 92760, Note_on_c, 0, 45, 0
11, 92898, Note_on_c, 0, 54, 0
11, 92903, Note_on_c, 0, 45, 101
11, 93050, Note_on_c, 0, 50, 101
11, 93097, Note_on_c, 0, 45, 0
11, 93223, Note_on_c, 0, 50, 0
11, 93286, Note_on_c, 0, 45, 92
11, 93443, Note_on_c, 0, 57, 0
11, 93483, Note_on_c, 0, 66, 0
11, 93534, Note_on_c, 0, 45, 0
11, 93616, Note_on_c, 0, 50, 102
11, 93616, Note_on_c, 0, 64, 98
11, 93616, Note_on_c, 0, 57, 95
11, 93790, Note_on_c, 0, 50, 0
11, 93792, Note_on_c, 0, 64, 0
11, 93799, Note_on_c, 0, 57, 0
11, 93853, Note_on_c, 0, 45, 97
11, 93855, Note_on_c, 0, 57, 94
11, 93857, Note_on_c, 0, 62, 101
11, 93970, Note_on_c, 0, 57, 0
11, 93988, Note_on_c, 0, 62, 0
11, 94045, Note_on_c, 0, 45, 0
11, 94089, Note_on_c, 0, 50, 99
11, 94103, Note_on_c, 0, 69, 95
11, 94110, Note_on_c, 0, 57, 92
11, 94119, Note_on_c, 0, 62, 97
11, 94398, Note_on_c, 0, 50, 0
11, 94592, Note_on_c, 0, 45, 97
11, 94796, Note_on_c, 0, 45, 0
11, 94814, Note_on_c, 0, 50, 94
11, 94978, Note_on_c, 0, 45, 95
11, 95013, Note_on_c, 0, 50, 0
11, 95151, Note_on_c, 0, 69, 0
11, 95154, Note_on_c, 0, 45, 0
11, 95161, Note_on_c, 0, 57, 0
11, 95165, Note_on_c, 0, 62, 0
11, 95208, Note_on_c, 0, 50, 93
11, 95238, Note_on_c, 0, 66, 98
11, 95238, Note_on_c, 0, 57, 95
11, 95238, Note_on_c, 0, 62, 101
11, 95404, Note_on_c, 0, 62, 0
11, 95416, Note_on_c, 0, 57, 0
11, 95456, Note_on_c, 0, 50, 0
11, 95481, Note_on_c, 0, 66, 0
11, 95528, Note_on_c, 0, 45, 97
11, 95531, Note_on_c, 0, 64, 99
11, 95533, Note_on_c, 0, 57, 93
11, 95542, Note_on_c, 0, 59, 94
11, 95552, Note_on_c, 0, 66, 84
11, 95629, Note_on_c, 0, 59, 0
11, 95664, Note_on_c, 0, 66, 0
11, 95666, Note_on_c, 0, 57, 0
11, 95678, Note_on_c, 0, 64, 0
11, 95743, Note_on_c, 0, 57, 94
11, 95743, Note_on_c, 0, 62, 100
11, 95748, Note_on_c, 0, 45, 0
11, 95755, Note_on_c, 0, 50, 101
11, 95802, Note_on_c, 0, 57, 0
11, 95823, Note_on_c, 0, 62, 0
11, 95886, Note_on_c, 0, 50, 0
11, 95987, Note_on_c, 0, 45, 85
11, 96001, Note_on_c, 0, 64, 94
11, 96006, Note_on_c, 0, 69, 104
11, 96010, Note_on_c, 0, 73, 101
11, 96214, Note_on_c, 0, 45, 0
11, 96516, Note_on_c, 0, 45, 94
11, 96731, Note_on_c, 0, 52, 92
11, 96810, Note_on_c, 0, 45, 0
11, 96904, Note_on_c, 0, 45, 91
11, 97012, Note_on_c, 0, 52, 0
11, 97143, Note_on_c, 0, 52, 91
11, 97194, Note_on_c, 0, 69, 0
11, 97213, Note_on_c, 0, 64, 0
11, 97250, Note_on_c, 0, 73, 0
11, 97276, Note_on_c, 0, 45, 0
11, 97367, Note_on_c, 0, 52, 0
11, 97410, Note_on_c, 0, 45, 100
11, 97419, Note_on_c, 0, 64, 86
11, 97421, Note_on_c, 0, 71, 91
11, 97613, Note_on_c, 0, 64, 0
11, 97620, Note_on_c, 0, 71, 0
11, 97674, Note_on_c, 0, 69, 94
11, 97674, Note_on_c, 0, 64, 92
11, 97674, Note_on_c, 0, 52, 95
11, 97690, Note_on_c, 0, 45, 0
11, 97786, Note_on_c, 0, 64, 0
11, 97793, Note_on_c, 0, 52, 0
11, 97793, Note_on_c, 0, 69, 0
11, 97915, Note_on_c, 0, 45, 99
11, 97929, Note_on_c, 0, 73, 101
11, 97929, Note_on_c, 0, 64, 95
11, 97929, Note_on_c, 0, 76, 100
11, 97929, Note_on_c, 0, 69, 97
11, 98264, Note_on_c, 0, 45, 0
11, 98416, Note_on_c, 0, 49, 89
11, 98678, Note_on_c, 0, 49, 0
11, 98818, Note_on_c, 0, 52, 87
11, 98835, Note_on_c, 0, 45, 93
11, 99022, Note_on_c, 0, 76, 0
11, 99050, Note_on_c, 0, 49, 87
11, 99087, Note_on_c, 0, 69, 0
11, 99101, Note_on_c, 0, 45, 0
11, 99101, Note_on_c, 0, 64, 0
11, 99136, Note_on_c, 0, 73, 0
11, 99158, Note_on_c, 0, 52, 0
11, 99338, Note_on_c, 0, 71, 84
11, 99342, Note_on_c, 0, 64, 84
11, 99354, Note_on_c, 0, 49, 0
11, 99356, Note_on_c, 0, 52, 90
11, 99361, Note_on_c, 0, 45, 93
11, 99492, Note_on_c, 0, 45, 0
11, 99506, Note_on_c, 0, 71, 0
11, 99516, Note_on_c, 0, 64, 0
11, 99525, Note_on_c, 0, 52, 0
11, 99567, Note_on_c, 0, 69, 93
11, 99579, Note_on_c, 0, 64, 89
11, 99579, Note_on_c, 0, 52, 100
11, 99593, Note_on_c, 0, 45, 95
11, 99628, Note_on_c, 0, 64, 0
11, 99642, Note_on_c, 0, 69, 0
11, 99672, Note_on_c, 0, 45, 0
11, 99686, Note_on_c, 0, 52, 0
11, 99824, Note_on_c, 0, 45, 98
11, 99827, Note_on_c, 0, 69, 95
11, 99831, Note_on_c, 0, 74, 102
11, 99834, Note_on_c, 0, 78, 99
11, 99834, Note_on_c, 0, 50, 112
11, 99845, Note_on_c, 0, 81, 91
11, 100199, Note_on_c, 0, 50, 0
11, 100337, Note_on_c, 0, 54, 91
11, 100346, Note_on_c, 0, 45, 0
11, 100564, Note_on_c, 0, 45, 94
11, 100604, Note_on_c, 0, 54, 0
11, 100739, Note_on_c, 0, 50, 92
11, 100786, Note_on_c, 0, 45, 0
11, 100849, Note_on_c, 0, 50, 0
11, 100934, Note_on_c, 0, 74, 0
11, 100964, Note_on_c, 0, 69, 0
11, 100966, Note_on_c, 0, 81, 0
11, 100969, Note_on_c, 0, 45, 97
11, 101135, Note_on_c, 0, 78, 0
11, 101203, Note_on_c, 0, 45, 0
11, 101287, Note_on_c, 0, 50, 106
11, 101287, Note_on_c, 0, 69, 91
11, 101287, Note_on_c, 0, 76, 96
11, 101469, Note_on_c, 0, 50, 0
11, 101469, Note_on_c, 0, 76, 0
11, 101469, Note_on_c, 0, 69, 0
11, 101505, Note_on_c, 0, 45, 97
11, 101516, Note_on_c, 0, 74, 99
11, 101521, Note_on_c, 0, 69, 94
11, 101659, Note_on_c, 0, 69, 0
11, 101668, Note_on_c, 0, 74, 0
11, 101720, Note_on_c, 0, 45, 0
11, 101760, Note_on_c, 0, 50, 99
11, 101774, Note_on_c, 0, 81, 93
11, 101778, Note_on_c, 0, 78, 91
11, 101778, Note_on_c, 0, 69, 93
11, 101792, Note_on_c, 0, 74, 91
11, 102258, Note_on_c, 0, 50, 0
11, 102272, Note_on_c, 0, 45, 88
11, 102508, Note_on_c, 0, 45, 0
11, 102646, Note_on_c, 0, 50, 99
11, 102820, Note_on_c, 0, 50, 0
11, 102920, Note_on_c, 0, 45, 97
11, 102946, Note_on_c, 0, 81, 0
11, 102995, Note_on_c, 0, 74, 0
11, 103028, Note_on_c, 0, 69, 0
11, 103042, Note_on_c, 0, 78, 0
11, 103136, Note_on_c, 0, 45, 0
11, 103196, Note_on_c, 0, 69, 94
11, 103199, Note_on_c, 0, 76, 96
11, 103201, Note_on_c, 0, 50, 108
11, 103377, Note_on_c, 0, 69, 0
11, 103377, Note_on_c, 0, 50, 0
11, 103379, Note_on_c, 0, 76, 0
11, 103416, Note_on_c, 0, 45, 94
11, 103433, Note_on_c, 0, 74, 98
11, 103442, Note_on_c, 0, 69, 92
11, 103543, Note_on_c, 0, 69, 0
11, 103561, Note_on_c, 0, 74, 0
11, 103629, Note_on_c, 0, 45, 0
11, 103676, Note_on_c, 0, 50, 99
11, 103683, Note_on_c, 0, 81, 96
11, 103683, Note_on_c, 0, 69, 93
11, 103688, Note_on_c, 0, 74, 103
11, 103690, Note_on_c, 0, 78, 90
11, 104116, Note_on_c, 0, 50, 0
11, 104184, Note_on_c, 0, 45, 97
11, 104469, Note_on_c, 0, 50, 80
11, 104474, Note_on_c, 0, 45, 0
11, 104563, Note_on_c, 0, 50, 0
11, 104605, Note_on_c, 0, 45, 99
11, 104799, Note_on_c, 0, 74, 0
11, 104804, Note_on_c, 0, 45, 0
11, 104837, Note_on_c, 0, 81, 0
11, 104837, Note_on_c, 0, 69, 0
11, 104874, Note_on_c, 0, 50, 99
11, 104968, Note_on_c, 0, 78, 0
11, 105075, Note_on_c, 0, 50, 0
11, 105132, Note_on_c, 0, 69, 93
11, 105132, Note_on_c, 0, 45, 99
11, 105132, Note_on_c, 0, 76, 103
11, 105298, Note_on_c, 0, 69, 0
11, 105321, Note_on_c, 0, 76, 0
11, 105361, Note_on_c, 0, 45, 0
11, 105368, Note_on_c, 0, 50, 101
11, 105370, Note_on_c, 0, 69, 101
11, 105370, Note_on_c, 0, 74, 99
11, 105440, Note_on_c, 0, 74, 0
11, 105476, Note_on_c, 0, 69, 0
11, 105492, Note_on_c, 0, 50, 0
11, 105602, Note_on_c, 0, 76, 102
11, 105602, Note_on_c, 0, 43, 100
11, 105614, Note_on_c, 0, 79, 93
11, 105614, Note_on_c, 0, 81, 96
11, 105794, Note_on_c, 0, 81, 0
11, 105815, Note_on_c, 0, 48, 75
11, 105913, Note_on_c, 0, 48, 0
11, 105939, Note_on_c, 0, 43, 0
11, 105969, Note_on_c, 0, 48, 95
11, 106238, Note_on_c, 0, 48, 0
11, 106330, Note_on_c, 0, 52, 86
11, 106337, Note_on_c, 0, 43, 89
11, 106521, Note_on_c, 0, 52, 0
11, 106596, Note_on_c, 0, 43, 0
11, 106791, Note_on_c, 0, 43, 94
11, 106793, Note_on_c, 0, 52, 92
11, 106880, Note_on_c, 0, 76, 0
11, 106882, Note_on_c, 0, 79, 0
11, 106968, Note_on_c, 0, 43, 0
11, 106980, Note_on_c, 0, 52, 0
11, 107071, Note_on_c, 0, 76, 103
11, 107076, Note_on_c, 0, 48, 108
11, 107076, Note_on_c, 0, 79, 98
11, 107099, Note_on_c, 0, 43, 103
11, 107106, Note_on_c, 0, 52, 80
11, 107198, Note_on_c, 0, 79, 0
11, 107207, Note_on_c, 0, 43, 0
11, 107209, Note_on_c, 0, 76, 0
11, 107231, Note_on_c, 0, 52, 0
11, 107235, Note_on_c, 0, 48, 0
11, 107287, Note_on_c, 0, 43, 99
11, 107291, Note_on_c, 0, 76, 108
11, 107291, Note_on_c, 0, 79, 100
11, 107406, Note_on_c, 0, 79, 0
11, 107429, Note_on_c, 0, 76, 0
11, 107434, Note_on_c, 0, 43, 0
11, 107523, Note_on_c, 0, 79, 93
11, 107528, Note_on_c, 0, 71, 87
11, 107535, Note_on_c, 0, 74, 96
11, 107535, Note_on_c, 0, 43, 99
11, 107539, Note_on_c, 0, 50, 99
11, 107729, Note_on_c, 0, 50, 0
11, 107736, Note_on_c, 0, 43, 0
11, 108000, Note_on_c, 0, 43, 92
11, 108012, Note_on_c, 0, 50, 94
11, 108155, Note_on_c, 0, 43, 0
11, 108164, Note_on_c, 0, 50, 0
11, 108244, Note_on_c, 0, 43, 82
11, 108248, Note_on_c, 0, 50, 83
11, 108466, Note_on_c, 0, 71, 0
11, 108518, Note_on_c, 0, 43, 0
11, 108534, Note_on_c, 0, 50, 0
11, 108574, Note_on_c, 0, 74, 0
11, 108576, Note_on_c, 0, 79, 0
11, 108618, Note_on_c, 0, 43, 97
11, 108620, Note_on_c, 0, 50, 101
11, 108620, Note_on_c, 0, 71, 98
11, 108630, Note_on_c, 0, 79, 101
11, 108635, Note_on_c, 0, 76, 103
11, 108831, Note_on_c, 0, 71, 0
11, 108840, Note_on_c, 0, 79, 0
11, 108869, Note_on_c, 0, 76, 0
11, 108894, Note_on_c, 0, 50, 0
11, 108899, Note_on_c, 0, 43, 0
11, 108971, Note_on_c, 0, 74, 101
11, 108976, Note_on_c, 0, 71, 97
11, 108988, Note_on_c, 0, 43, 94
11, 108993, Note_on_c, 0, 76, 86
11, 109002, Note_on_c, 0, 50, 95
11, 109058, Note_on_c, 0, 76, 0
11, 109095, Note_on_c, 0, 50, 0
11, 109107, Note_on_c, 0, 71, 0
11, 109170, Note_on_c, 0, 74, 0
11, 109203, Note_on_c, 0, 71, 101
11, 109215, Note_on_c, 0, 50, 98
11, 109220, Note_on_c, 0, 79, 91
11, 109273, Note_on_c, 0, 79, 0
11, 109283, Note_on_c, 0, 43, 0
11, 109313, Note_on_c, 0, 71, 0
11, 109339, Note_on_c, 0, 50, 0
11, 109437, Note_on_c, 0, 78, 103
11, 109437, Note_on_c, 0, 74, 102
11, 109437, Note_on_c, 0, 69, 95
11, 109449, Note_on_c, 0, 81, 96
11, 109449, Note_on_c, 0, 45, 102
11, 109924, Note_on_c, 0, 50, 97
11, 109929, Note_on_c, 0, 45, 0
11, 110134, Note_on_c, 0, 54, 88
11, 110172, Note_on_c, 0, 50, 0
11, 110282, Note_on_c, 0, 45, 103
11, 110322, Note_on_c, 0, 54, 0
11, 110427, Note_on_c, 0, 69, 0
11, 110457, Note_on_c, 0, 74, 0
11, 110476, Note_on_c, 0, 81, 0
11, 110495, Note_on_c, 0, 45, 0
11, 110525, Note_on_c, 0, 50, 101
11, 110539, Note_on_c, 0, 78, 0
11, 110738, Note_on_c, 0, 50, 0
11, 110820, Note_on_c, 0, 45, 101
11, 110829, Note_on_c, 0, 76, 100
11, 110834, Note_on_c, 0, 81, 92
11, 110841, Note_on_c, 0, 69, 93
11, 111003, Note_on_c, 0, 69, 0
11, 111040, Note_on_c, 0, 76, 0
11, 111045, Note_on_c, 0, 81, 0
11, 111082, Note_on_c, 0, 50, 106
11, 111084, Note_on_c, 0, 45, 0
11, 111089, Note_on_c, 0, 74, 100
11, 111089, Note_on_c, 0, 69, 101
11, 111187, Note_on_c, 0, 69, 0
11, 111211, Note_on_c, 0, 74, 0
11, 111232, Note_on_c, 0, 50, 0
11, 111351, Note_on_c, 0, 45, 103
11, 111370, Note_on_c, 0, 78, 112
11, 111372, Note_on_c, 0, 69, 103
11, 111372, Note_on_c, 0, 81, 108
11, 111393, Note_on_c, 0, 74, 90
11, 111405, Note_on_c, 0, 74, 0
11, 111875, Note_on_c, 0, 54, 89
11, 111896, Note_on_c, 0, 45, 0
11, 112079, Note_on_c, 0, 45, 95
11, 112140, Note_on_c, 0, 54, 0
11, 112245, Note_on_c, 0, 50, 95
11, 112297, Note_on_c, 0, 45, 0
11, 112407, Note_on_c, 0, 50, 0
11, 112442, Note_on_c, 0, 69, 0
11, 112486, Note_on_c, 0, 45, 95
11, 112514, Note_on_c, 0, 81, 0
11, 112620, Note_on_c, 0, 78, 0
11, 112741, Note_on_c, 0, 45, 0
11, 112790, Note_on_c, 0, 76, 101
11, 112790, Note_on_c, 0, 50, 110
11, 112795, Note_on_c, 0, 69, 94
11, 112954, Note_on_c, 0, 69, 0
11, 112992, Note_on_c, 0, 50, 0
11, 112994, Note_on_c, 0, 76, 0
11, 113038, Note_on_c, 0, 45, 99
11, 113045, Note_on_c, 0, 74, 98
11, 113050, Note_on_c, 0, 69, 103
11, 113111, Note_on_c, 0, 74, 0
11, 113130, Note_on_c, 0, 69, 0
11, 113172, Note_on_c, 0, 45, 0
11, 113303, Note_on_c, 0, 79, 93
11, 113303, Note_on_c, 0, 76, 99
11, 113307, Note_on_c, 0, 48, 120
11, 113312, Note_on_c, 0, 72, 92
11, 113794, Note_on_c, 0, 43, 90
11, 113813, Note_on_c, 0, 52, 90
11, 114047, Note_on_c, 0, 43, 0
11, 114192, Note_on_c, 0, 43, 90
11, 114309, Note_on_c, 0, 52, 0
11, 114328, Note_on_c, 0, 43, 0
11, 114346, Note_on_c, 0, 48, 0
11, 114438, Note_on_c, 0, 52, 95
11, 114445, Note_on_c, 0, 43, 88
11, 114529, Note_on_c, 0, 72, 0
11, 114555, Note_on_c, 0, 79, 0
11, 114576, Note_on_c, 0, 76, 0
11, 114651, Note_on_c, 0, 43, 0
11, 114683, Note_on_c, 0, 52, 0
11, 114716, Note_on_c, 0, 48, 99
11, 114733, Note_on_c, 0, 76, 112
11, 114735, Note_on_c, 0, 74, 112
11, 114740, Note_on_c, 0, 79, 98
11, 114742, Note_on_c, 0, 67, 95
11, 114744, Note_on_c, 0, 65, 101
11, 114854, Note_on_c, 0, 65, 0
11, 114866, Note_on_c, 0, 67, 0
11, 114915, Note_on_c, 0, 48, 0
11, 114922, Note_on_c, 0, 74, 0
11, 114931, Note_on_c, 0, 79, 0
11, 114945, Note_on_c, 0, 76, 0
11, 114964, Note_on_c, 0, 43, 94
11, 114974, Note_on_c, 0, 67, 93
11, 114978, Note_on_c, 0, 72, 96
11, 114997, Note_on_c, 0, 52, 83
11, 115013, Note_on_c, 0, 52, 0
11, 115095, Note_on_c, 0, 67, 0
11, 115109, Note_on_c, 0, 72, 0
11, 115123, Note_on_c, 0, 43, 0
11, 115210, Note_on_c, 0, 79, 92
11, 115215, Note_on_c, 0, 67, 89
11, 115217, Note_on_c, 0, 74, 91
11, 115222, Note_on_c, 0, 43, 101
11, 115224, Note_on_c, 0, 71, 95
11, 115254, Note_on_c, 0, 50, 92
11, 115304, Note_on_c, 0, 74, 0
11, 115409, Note_on_c, 0, 50, 0
11, 115500, Note_on_c, 0, 43, 0
11, 115727, Note_on_c, 0, 43, 97
11, 115746, Note_on_c, 0, 50, 97
11, 115874, Note_on_c, 0, 43, 0
11, 115881, Note_on_c, 0, 50, 0
11, 115942, Note_on_c, 0, 50, 91
11, 115973, Note_on_c, 0, 43, 87
11, 116078, Note_on_c, 0, 67, 0
11, 116090, Note_on_c, 0, 79, 0
11, 116092, Note_on_c, 0, 71, 0
11, 116244, Note_on_c, 0, 43, 0
11, 116298, Note_on_c, 0, 50, 0
11, 116298, Note_on_c, 0, 67, 92
11, 116303, Note_on_c, 0, 74, 93
11, 116303, Note_on_c, 0, 71, 94
11, 116314, Note_on_c, 0, 79, 89
11, 116342, Note_on_c, 0, 43, 95
11, 116492, Note_on_c, 0, 43, 0
11, 116588, Note_on_c, 0, 67, 0
11, 116593, Note_on_c, 0, 79, 0
11, 116609, Note_on_c, 0, 74, 0
11, 116637, Note_on_c, 0, 67, 93
11, 116644, Note_on_c, 0, 50, 101
11, 116665, Note_on_c, 0, 43, 92
11, 116668, Note_on_c, 0, 41, 94
11, 116729, Note_on_c, 0, 71, 0
11, 116747, Note_on_c, 0, 41, 0
11, 116750, Note_on_c, 0, 67, 0
11, 116754, Note_on_c, 0, 43, 0
11, 116817, Note_on_c, 0, 50, 0
11, 116885, Note_on_c, 0, 50, 100
11, 116888, Note_on_c, 0, 43, 94
11, 117068, Note_on_c, 0, 43, 0
11, 117075, Note_on_c, 0, 50, 0
11, 117147, Note_on_c, 0, 66, 108
11, 117147, Note_on_c, 0, 69, 106
11, 117150, Note_on_c, 0, 62, 101
11, 117157, Note_on_c, 0, 45, 110
11, 117157, Note_on_c, 0, 74, 97
11, 117604, Note_on_c, 0, 50, 101
11, 117805, Note_on_c, 0, 50, 0
11, 117840, Note_on_c, 0, 54, 90
11, 117950, Note_on_c, 0, 45, 0
11, 117969, Note_on_c, 0, 74, 0
11, 117987, Note_on_c, 0, 62, 0
11, 118016, Note_on_c, 0, 50, 104
11, 118060, Note_on_c, 0, 54, 0
11, 118097, Note_on_c, 0, 69, 0
11, 118170, Note_on_c, 0, 50, 0
11, 118182, Note_on_c, 0, 66, 0
11, 118221, Note_on_c, 0, 45, 103
11, 118453, Note_on_c, 0, 45, 0
11, 118460, Note_on_c, 0, 50, 86
11, 118535, Note_on_c, 0, 69, 101
11, 118542, Note_on_c, 0, 62, 104
11, 118542, Note_on_c, 0, 64, 110
11, 118673, Note_on_c, 0, 50, 0
11, 118704, Note_on_c, 0, 62, 0
11, 118739, Note_on_c, 0, 69, 0
11, 118743, Note_on_c, 0, 64, 0
11, 118781, Note_on_c, 0, 45, 104
11, 118781, Note_on_c, 0, 66, 91
11, 118797, Note_on_c, 0, 62, 99
11, 118886, Note_on_c, 0, 66, 0
11, 118905, Note_on_c, 0, 62, 0
11, 118982, Note_on_c, 0, 45, 0
11, 119010, Note_on_c, 0, 50, 99
11, 119024, Note_on_c, 0, 62, 91
11, 119024, Note_on_c, 0, 74, 95
11, 119029, Note_on_c, 0, 66, 93
11, 119029, Note_on_c, 0, 72, 94
11, 119064, Note_on_c, 0, 44, 76
11, 119104, Note_on_c, 0, 72, 0
11, 119115, Note_on_c, 0, 44, 0
11, 119265, Note_on_c, 0, 50, 0
11, 119319, Note_on_c, 0, 45, 83
11, 119338, Note_on_c, 0, 54, 83
11, 119394, Note_on_c, 0, 45, 0
11, 119420, Note_on_c, 0, 54, 0
11, 119483, Note_on_c, 0, 54, 89
11, 119555, Note_on_c, 0, 45, 91
11, 119586, Note_on_c, 0, 54, 0
11, 119689, Note_on_c, 0, 45, 0
11, 119726, Note_on_c, 0, 62, 0
11, 119726, Note_on_c, 0, 50, 98
11, 119728, Note_on_c, 0, 74, 0
11, 119728, Note_on_c, 0, 66, 0
11, 119780, Note_on_c, 0, 62, 94
11, 119782, Note_on_c, 0, 66, 97
11, 119785, Note_on_c, 0, 69, 99
11, 119792, Note_on_c, 0, 74, 94
11, 119876, Note_on_c, 0, 45, 97
11, 119951, Note_on_c, 0, 50, 0
11, 120105, Note_on_c, 0, 50, 82
11, 120112, Note_on_c, 0, 45, 0
11, 120175, Note_on_c, 0, 50, 0
11, 120253, Note_on_c, 0, 45, 92
11, 120346, Note_on_c, 0, 74, 0
11, 120346, Note_on_c, 0, 62, 0
11, 120346, Note_on_c, 0, 66, 0
11, 120353, Note_on_c, 0, 69, 0
11, 120459, Note_on_c, 0, 50, 94
11, 120503, Note_on_c, 0, 45, 0
11, 120503, Note_on_c, 0, 74, 93
11, 120503, Note_on_c, 0, 66, 94
11, 120503, Note_on_c, 0, 74, 93
11, 120503, Note_on_c, 0, 62, 94
11, 120510, Note_on_c, 0, 69, 95
11, 120634, Note_on_c, 0, 62, 0
11, 120643, Note_on_c, 0, 69, 0
11, 120646, Note_on_c, 0, 74, 0
11, 120646, Note_on_c, 0, 74, 0
11, 120653, Note_on_c, 0, 66, 0
11, 120657, Note_on_c, 0, 50, 0
11, 120725, Note_on_c, 0, 45, 100
11, 120730, Note_on_c, 0, 66, 92
11, 120735, Note_on_c, 0, 74, 94
11, 120744, Note_on_c, 0, 62, 93
11, 120845, Note_on_c, 0, 62, 0
11, 120870, Note_on_c, 0, 66, 0
11, 120870, Note_on_c, 0, 74, 0
11, 120884, Note_on_c, 0, 45, 0
11, 120962, Note_on_c, 0, 72, 94
11, 120962, Note_on_c, 0, 64, 92
11, 120973, Note_on_c, 0, 43, 99
11, 121242, Note_on_c, 0, 48, 85
11, 121455, Note_on_c, 0, 52, 90
11, 121462, Note_on_c, 0, 64, 0
11, 121521, Note_on_c, 0, 48, 0
11, 121556, Note_on_c, 0, 43, 0
11, 121607, Note_on_c, 0, 72, 0
11, 121638, Note_on_c, 0, 52, 0
11, 121647, Note_on_c, 0, 43, 101
11, 121659, Note_on_c, 0, 67, 91
11, 121659, Note_on_c, 0, 64, 93
11, 121664, Note_on_c, 0, 72, 102
11, 121781, Note_on_c, 0, 67, 0
11, 121781, Note_on_c, 0, 64, 0
11, 121802, Note_on_c, 0, 72, 0
11, 121802, Note_on_c, 0, 48, 95
11, 121818, Note_on_c, 0, 72, 95
11, 121825, Note_on_c, 0, 64, 96
11, 121825, Note_on_c, 0, 67, 99
11, 121867, Note_on_c, 0, 43, 0
11, 121951, Note_on_c, 0, 52, 78
11, 121989, Note_on_c, 0, 48, 0
11, 121998, Note_on_c, 0, 64, 0
11, 121998, Note_on_c, 0, 72, 0
11, 122015, Note_on_c, 0, 67, 0
11, 122052, Note_on_c, 0, 43, 97
11, 122078, Note_on_c, 0, 64, 90
11, 122078, Note_on_c, 0, 72, 94
11, 122085, Note_on_c, 0, 67, 95
11, 122249, Note_on_c, 0, 48, 83
11, 122274, Note_on_c, 0, 43, 0
11, 122295, Note_on_c, 0, 64, 0
11, 122305, Note_on_c, 0, 72, 0
11, 122309, Note_on_c, 0, 52, 0
11, 122309, Note_on_c, 0, 67, 0
11, 122389, Note_on_c, 0, 48, 0
11, 122401, Note_on_c, 0, 72, 98
11, 122401, Note_on_c, 0, 67, 94
11, 122408, Note_on_c, 0, 64, 102
11, 122424, Note_on_c, 0, 43, 99
11, 122576, Note_on_c, 0, 64, 0
11, 122600, Note_on_c, 0, 67, 0
11, 122602, Note_on_c, 0, 43, 0
11, 122616, Note_on_c, 0, 72, 0
11, 122649, Note_on_c, 0, 48, 99
11, 122672, Note_on_c, 0, 72, 95
11, 122679, Note_on_c, 0, 67, 96
11, 122679, Note_on_c, 0, 64, 92
11, 122770, Note_on_c, 0, 64, 0
11, 122782, Note_on_c, 0, 67, 0
11, 122784, Note_on_c, 0, 72, 0
11, 122817, Note_on_c, 0, 48, 0
11, 122885, Note_on_c, 0, 43, 90
11, 122892, Note_on_c, 0, 50, 93
11, 122894, Note_on_c, 0, 67, 98
11, 122894, Note_on_c, 0, 71, 97
11, 122901, Note_on_c, 0, 74, 94
11, 122909, Note_on_c, 0, 70, 86
11, 122918, Note_on_c, 0, 62, 80
11, 122934, Note_on_c, 0, 70, 0
11, 122946, Note_on_c, 0, 62, 0
11, 123192, Note_on_c, 0, 50, 0
11, 123192, Note_on_c, 0, 43, 0
11, 123398, Note_on_c, 0, 43, 97
11, 123412, Note_on_c, 0, 50, 95
11, 123564, Note_on_c, 0, 74, 0
11, 123578, Note_on_c, 0, 43, 0
11, 123608, Note_on_c, 0, 62, 86
11, 123646, Note_on_c, 0, 71, 0
11, 123692, Note_on_c, 0, 67, 0
11, 123744, Note_on_c, 0, 50, 0
11, 123765, Note_on_c, 0, 43, 98
11, 123772, Note_on_c, 0, 67, 91
11, 123779, Note_on_c, 0, 74, 93
11, 123779, Note_on_c, 0, 71, 91
11, 123936, Note_on_c, 0, 62, 0
11, 123943, Note_on_c, 0, 71, 0
11, 123943, Note_on_c, 0, 74, 0
11, 123943, Note_on_c, 0, 67, 0
11, 123987, Note_on_c, 0, 50, 93
11, 124015, Note_on_c, 0, 74, 99
11, 124018, Note_on_c, 0, 67, 93
11, 124018, Note_on_c, 0, 71, 96
11, 124020, Note_on_c, 0, 62, 100
11, 124025, Note_on_c, 0, 43, 0
11, 124186, Note_on_c, 0, 74, 0
11, 124188, Note_on_c, 0, 67, 0
11, 124193, Note_on_c, 0, 50, 0
11, 124196, Note_on_c, 0, 62, 0
11, 124210, Note_on_c, 0, 71, 0
11, 124217, Note_on_c, 0, 43, 84
11, 124317, Note_on_c, 0, 74, 96
11, 124317, Note_on_c, 0, 71, 97
11, 124317, Note_on_c, 0, 67, 99
11, 124322, Note_on_c, 0, 62, 98
11, 124352, Note_on_c, 0, 50, 91
11, 124467, Note_on_c, 0, 43, 0
11, 124469, Note_on_c, 0, 62, 0
11, 124476, Note_on_c, 0, 74, 0
11, 124486, Note_on_c, 0, 67, 0
11, 124490, Note_on_c, 0, 71, 0
11, 124509, Note_on_c, 0, 50, 0
11, 124570, Note_on_c, 0, 74, 97
11, 124572, Note_on_c, 0, 67, 95
11, 124575, Note_on_c, 0, 62, 99
11, 124577, Note_on_c, 0, 43, 98
11, 124584, Note_on_c, 0, 71, 91
11, 124596, Note_on_c, 0, 44, 88
11, 124642, Note_on_c, 0, 44, 0
11, 124675, Note_on_c, 0, 67, 0
11, 124699, Note_on_c, 0, 74, 0
11, 124710, Note_on_c, 0, 62, 0
11, 124715, Note_on_c, 0, 71, 0
11, 124748, Note_on_c, 0, 43, 0
11, 124813, Note_on_c, 0, 62, 88
11, 124813, Note_on_c, 0, 74, 98
11, 124818, Note_on_c, 0, 66, 92
11, 124837, Note_on_c, 0, 69, 85
11, 124837, Note_on_c, 0, 45, 108
11, 125082, Note_on_c, 0, 50, 90
11, 125202, Note_on_c, 0, 50, 0
11, 125232, Note_on_c, 0, 45, 0
11, 125277, Note_on_c, 0, 50, 106
11, 125436, Note_on_c, 0, 50, 0
11, 125443, Note_on_c, 0, 74, 0
11, 125459, Note_on_c, 0, 69, 0
11, 125468, Note_on_c, 0, 62, 0
11, 125478, Note_on_c, 0, 66, 0
11, 125478, Note_on_c, 0, 45, 85
11, 125522, Note_on_c, 0, 71, 101
11, 125527, Note_on_c, 0, 62, 104
11, 125532, Note_on_c, 0, 74, 91
11, 125532, Note_on_c, 0, 66, 94
11, 125539, Note_on_c, 0, 69, 90
11, 125567, Note_on_c, 0, 66, 0
11, 125585, Note_on_c, 0, 69, 0
11, 125597, Note_on_c, 0, 74, 0
11, 125632, Note_on_c, 0, 50, 97
11, 125651, Note_on_c, 0, 69, 95
11, 125693, Note_on_c, 0, 45, 0
11, 125810, Note_on_c, 0, 50, 0
11, 125862, Note_on_c, 0, 62, 0
11, 125885, Note_on_c, 0, 45, 58
11, 125897, Note_on_c, 0, 71, 0
11, 125906, Note_on_c, 0, 66, 95
11, 125936, Note_on_c, 0, 50, 101
11, 125983, Note_on_c, 0, 69, 0
11, 126028, Note_on_c, 0, 45, 0
11, 126107, Note_on_c, 0, 50, 0
11, 126128, Note_on_c, 0, 66, 0
11, 126201, Note_on_c, 0, 64, 108
11, 126201, Note_on_c, 0, 69, 96
11, 126201, Note_on_c, 0, 45, 102
11, 126206, Note_on_c, 0, 68, 91
11, 126215, Note_on_c, 0, 66, 97
11, 126250, Note_on_c, 0, 66, 0
11, 126346, Note_on_c, 0, 64, 0
11, 126369, Note_on_c, 0, 68, 0
11, 126383, Note_on_c, 0, 69, 0
11, 126437, Note_on_c, 0, 45, 0
11, 126463, Note_on_c, 0, 50, 115
11, 126465, Note_on_c, 0, 66, 120
11, 126470, Note_on_c, 0, 64, 96
11, 126531, Note_on_c, 0, 64, 0
11, 126557, Note_on_c, 0, 50, 0
11, 126557, Note_on_c, 0, 66, 0
11, 126706, Note_on_c, 0, 70, 90
11, 126711, Note_on_c, 0, 45, 96
11, 126716, Note_on_c, 0, 70, 0
11, 126725, Note_on_c, 0, 69, 102
11, 126725, Note_on_c, 0, 62, 102
11, 126725, Note_on_c, 0, 74, 98
11, 126732, Note_on_c, 0, 66, 102
11, 126950, Note_on_c, 0, 50, 93
11, 127200, Note_on_c, 0, 54, 93
11, 127205, Note_on_c, 0, 50, 0
11, 127216, Note_on_c, 0, 45, 0
11, 127326, Note_on_c, 0, 54, 0
11, 127418, Note_on_c, 0, 74, 0
11, 127418, Note_on_c, 0, 45, 87
11, 127432, Note_on_c, 0, 62, 0
11, 127441, Note_on_c, 0, 66, 0
11, 127446, Note_on_c, 0, 69, 0
11, 127486, Note_on_c, 0, 62, 93
11, 127486, Note_on_c, 0, 66, 92
11, 127493, Note_on_c, 0, 74, 92
11, 127495, Note_on_c, 0, 69, 91
11, 127537, Note_on_c, 0, 69, 0
11, 127549, Note_on_c, 0, 50, 91
11, 127563, Note_on_c, 0, 66, 0
11, 127574, Note_on_c, 0, 62, 0
11, 127600, Note_on_c, 0, 45, 0
11, 127603, Note_on_c, 0, 62, 90
11, 127603, Note_on_c, 0, 66, 92
11, 127614, Note_on_c, 0, 69, 95
11, 127729, Note_on_c, 0, 50, 0
11, 127734, Note_on_c, 0, 62, 0
11, 127748, Note_on_c, 0, 74, 0
11, 127752, Note_on_c, 0, 69, 0
11, 127755, Note_on_c, 0, 66, 0
11, 127832, Note_on_c, 0, 45, 99
11, 127851, Note_on_c, 0, 66, 104
11, 127851, Note_on_c, 0, 74, 98
11, 127853, Note_on_c, 0, 69, 94
11, 127853, Note_on_c, 0, 62, 101
11, 127865, Note_on_c, 0, 74, 0
11, 127886, Note_on_c, 0, 72, 84
11, 127890, Note_on_c, 0, 71, 79
11, 127935, Note_on_c, 0, 71, 0
11, 127944, Note_on_c, 0, 72, 0
11, 128005, Note_on_c, 0, 62, 0
11, 128028, Note_on_c, 0, 66, 0
11, 128047, Note_on_c, 0, 69, 0
11, 128068, Note_on_c, 0, 45, 0
11, 128162, Note_on_c, 0, 64, 104
11, 128162, Note_on_c, 0, 50, 96
11, 128162, Note_on_c, 0, 71, 104
11, 128169, Note_on_c, 0, 52, 94
11, 128169, Note_on_c, 0, 66, 108
11, 128300, Note_on_c, 0, 52, 0
11, 128305, Note_on_c, 0, 66, 0
11, 128307, Note_on_c, 0, 64, 0
11, 128351, Note_on_c, 0, 50, 0
11, 128372, Note_on_c, 0, 71, 0
11, 128403, Note_on_c, 0, 45, 91
11, 128419, Note_on_c, 0, 66, 104
11, 128433, Note_on_c, 0, 64, 103
11, 128485, Note_on_c, 0, 64, 0
11, 128494, Note_on_c, 0, 66, 0
11, 128550, Note_on_c, 0, 45, 0
11, 128686, Note_on_c, 0, 63, 91
11, 128686, Note_on_c, 0, 62, 106
11, 128688, Note_on_c, 0, 64, 93
11, 128688, Note_on_c, 0, 45, 106
11, 128695, Note_on_c, 0, 60, 97
11, 128759, Note_on_c, 0, 60, 0
11, 128798, Note_on_c, 0, 63, 0
11, 129140, Note_on_c, 0, 62, 0
11, 129259, Note_on_c, 0, 64, 0
11, 129308, Note_on_c, 0, 60, 102
11, 129308, Note_on_c, 0, 64, 100
11, 129428, Note_on_c, 0, 45, 0
11, 129498, Note_on_c, 0, 45, 87
11, 129596, Note_on_c, 0, 45, 0
11, 129671, Note_on_c, 0, 45, 93
11, 129812, Note_on_c, 0, 45, 0
11, 129863, Note_on_c, 0, 45, 95
11, 129936, Note_on_c, 0, 60, 0
11, 129943, Note_on_c, 0, 64, 0
11, 130050, Note_on_c, 0, 48, 61
11, 130081, Note_on_c, 0, 64, 108
11, 130085, Note_on_c, 0, 60, 112
11, 130109, Note_on_c, 0, 45, 0
11, 130179, Note_on_c, 0, 48, 0
11, 130244, Note_on_c, 0, 60, 0
11, 130261, Note_on_c, 0, 64, 0
11, 130301, Note_on_c, 0, 45, 103
11, 130467, Note_on_c, 0, 45, 0
11, 130553, Note_on_c, 0, 62, 91
11, 130558, Note_on_c, 0, 59, 91
11, 130565, Note_on_c, 0, 67, 83
11, 130570, Note_on_c, 0, 43, 103
11, 130902, Note_on_c, 0, 43, 0
11, 131033, Note_on_c, 0, 50, 95
11, 131045, Note_on_c, 0, 43, 88
11, 131211, Note_on_c, 0, 43, 0
11, 131276, Note_on_c, 0, 43, 95
11, 131293, Note_on_c, 0, 59, 0
11, 131300, Note_on_c, 0, 62, 0
11, 131307, Note_on_c, 0, 67, 0
11, 131370, Note_on_c, 0, 62, 97
11, 131377, Note_on_c, 0, 59, 94
11, 131377, Note_on_c, 0, 67, 93
11, 131435, Note_on_c, 0, 43, 0
11, 131442, Note_on_c, 0, 50, 0
11, 131571, Note_on_c, 0, 43, 69
11, 131604, Note_on_c, 0, 43, 0
11, 131620, Note_on_c, 0, 59, 0
11, 131627, Note_on_c, 0, 62, 0
11, 131646, Note_on_c, 0, 67, 0
11, 131691, Note_on_c, 0, 64, 102
11, 131695, Note_on_c, 0, 43, 91
11, 131695, Note_on_c, 0, 67, 93
11, 131695, Note_on_c, 0, 59, 104
11, 131714, Note_on_c, 0, 50, 86
11, 131719, Note_on_c, 0, 44, 81
11, 131777, Note_on_c, 0, 44, 0
11, 131875, Note_on_c, 0, 59, 0
11, 131875, Note_on_c, 0, 67, 0
11, 131896, Note_on_c, 0, 64, 0
11, 131908, Note_on_c, 0, 43, 0
11, 131922, Note_on_c, 0, 50, 0
11, 132006, Note_on_c, 0, 67, 99
11, 132013, Note_on_c, 0, 59, 102
11, 132018, Note_on_c, 0, 43, 97
11, 132025, Note_on_c, 0, 64, 92
11, 132077, Note_on_c, 0, 64, 0
11, 132149, Note_on_c, 0, 59, 0
11, 132191, Note_on_c, 0, 67, 0
11, 132245, Note_on_c, 0, 59, 103
11, 132245, Note_on_c, 0, 62, 110
11, 132245, Note_on_c, 0, 67, 89
11, 132247, Note_on_c, 0, 64, 101
11, 132257, Note_on_c, 0, 50, 101
11, 132322, Note_on_c, 0, 43, 0
11, 132322, Note_on_c, 0, 59, 0
11, 132325, Note_on_c, 0, 64, 0
11, 132325, Note_on_c, 0, 67, 0
11, 132325, Note_on_c, 0, 62, 0
11, 132374, Note_on_c, 0, 50, 0
11, 132507, Note_on_c, 0, 66, 99
11, 132507, Note_on_c, 0, 69, 100
11, 132507, Note_on_c, 0, 45, 104
11, 132512, Note_on_c, 0, 57, 101
11, 132512, Note_on_c, 0, 62, 108
11, 132949, Note_on_c, 0, 50, 101
11, 133024, Note_on_c, 0, 45, 0
11, 133155, Note_on_c, 0, 50, 0
11, 133179, Note_on_c, 0, 57, 0
11, 133181, Note_on_c, 0, 45, 80
11, 133181, Note_on_c, 0, 54, 91
11, 133296, Note_on_c, 0, 62, 0
11, 133312, Note_on_c, 0, 57, 103
11, 133317, Note_on_c, 0, 62, 89
11, 133326, Note_on_c, 0, 64, 101
11, 133366, Note_on_c, 0, 50, 101
11, 133373, Note_on_c, 0, 45, 0
11, 133382, Note_on_c, 0, 54, 0
11, 133382, Note_on_c, 0, 62, 0
11, 133504, Note_on_c, 0, 50, 0
11, 133581, Note_on_c, 0, 57, 0
11, 133588, Note_on_c, 0, 69, 0
11, 133609, Note_on_c, 0, 64, 0
11, 133621, Note_on_c, 0, 45, 103
11, 133640, Note_on_c, 0, 62, 95
11, 133649, Note_on_c, 0, 57, 98
11, 133829, Note_on_c, 0, 57, 0
11, 133874, Note_on_c, 0, 45, 0
11, 133876, Note_on_c, 0, 62, 0
11, 133907, Note_on_c, 0, 64, 103
11, 133916, Note_on_c, 0, 50, 108
11, 133918, Note_on_c, 0, 57, 101
11, 134075, Note_on_c, 0, 57, 0
11, 134101, Note_on_c, 0, 66, 0
11, 134101, Note_on_c, 0, 50, 0
11, 134117, Note_on_c, 0, 64, 0
11, 134141, Note_on_c, 0, 61, 95
11, 134152, Note_on_c, 0, 45, 108
11, 134180, Note_on_c, 0, 50, 94
11, 134304, Note_on_c, 0, 45, 0
11, 134337, Note_on_c, 0, 61, 0
11, 134375, Note_on_c, 0, 50, 0
11, 134396, Note_on_c, 0, 64, 83
11, 134405, Note_on_c, 0, 57, 100
11, 134410, Note_on_c, 0, 45, 103
11, 134410, Note_on_c, 0, 52, 101
11, 134442, Note_on_c, 0, 66, 83
11, 134828, Note_on_c, 0, 52, 0
11, 134861, Note_on_c, 0, 45, 0
11, 134917, Note_on_c, 0, 45, 100
11, 134922, Note_on_c, 0, 52, 98
11, 135198, Note_on_c, 0, 49, 79
11, 135245, Note_on_c, 0, 52, 0
11, 135273, Note_on_c, 0, 45, 0
11, 135327, Note_on_c, 0, 52, 77
11, 135418, Note_on_c, 0, 49, 0
11, 135521, Note_on_c, 0, 52, 0
11, 135573, Note_on_c, 0, 52, 94
11, 135591, Note_on_c, 0, 45, 94
11, 135774, Note_on_c, 0, 45, 0
11, 135781, Note_on_c, 0, 52, 0
11, 135790, Note_on_c, 0, 57, 0
11, 135851, Note_on_c, 0, 52, 103
11, 135853, Note_on_c, 0, 45, 99
11, 135888, Note_on_c, 0, 57, 90
11, 135959, Note_on_c, 0, 57, 0
11, 135994, Note_on_c, 0, 64, 0
11, 135996, Note_on_c, 0, 45, 0
11, 136005, Note_on_c, 0, 66, 0
11, 136022, Note_on_c, 0, 52, 0
11, 136087, Note_on_c, 0, 52, 112
11, 136087, Note_on_c, 0, 45, 115
11, 136092, Note_on_c, 0, 55, 106
11, 136097, Note_on_c, 0, 57, 110
11, 136111, Note_on_c, 0, 46, 102
11, 136113, Note_on_c, 0, 61, 86
11, 136122, Note_on_c, 0, 57, 0
11, 136122, Note_on_c, 0, 46, 0
11, 136132, Note_on_c, 0, 61, 0
11, 136221, Note_on_c, 0, 55, 0
11, 136251, Note_on_c, 0, 45, 0
11, 136256, Note_on_c, 0, 52, 0
11, 136338, Note_on_c, 0, 57, 115
11, 136352, Note_on_c, 0, 45, 112
11, 136354, Note_on_c, 0, 52, 112
11, 136605, Note_on_c, 0, 49, 81
11, 136640, Note_on_c, 0, 52, 0
11, 136684, Note_on_c, 0, 45, 0
11, 136717, Note_on_c, 0, 49, 0
11, 136832, Note_on_c, 0, 45, 102
11, 136832, Note_on_c, 0, 52, 96
11, 137047, Note_on_c, 0, 49, 71
11, 137126, Note_on_c, 0, 45, 0
11, 137157, Note_on_c, 0, 52, 0
11, 137199, Note_on_c, 0, 52, 99
11, 137204, Note_on_c, 0, 45, 106
11, 137220, Note_on_c, 0, 57, 0
11, 137285, Note_on_c, 0, 49, 0
11, 137379, Note_on_c, 0, 49, 88
11, 137433, Note_on_c, 0, 67, 93
11, 137438, Note_on_c, 0, 61, 93
11, 137438, Note_on_c, 0, 57, 104
11, 137445, Note_on_c, 0, 64, 100
11, 137463, Note_on_c, 0, 52, 0
11, 137466, Note_on_c, 0, 45, 0
11, 137536, Note_on_c, 0, 49, 0
11, 137636, Note_on_c, 0, 57, 0
11, 137679, Note_on_c, 0, 67, 0
11, 137686, Note_on_c, 0, 61, 0
11, 137718, Note_on_c, 0, 64, 0
11, 137749, Note_on_c, 0, 45, 94
11, 137753, Note_on_c, 0, 52, 99
11, 137765, Note_on_c, 0, 61, 91
11, 137768, Note_on_c, 0, 64, 99
11, 137768, Note_on_c, 0, 57, 102
11, 137779, Note_on_c, 0, 63, 88
11, 137796, Note_on_c, 0, 67, 87
11, 137856, Note_on_c, 0, 67, 0
11, 137880, Note_on_c, 0, 45, 0
11, 137896, Note_on_c, 0, 52, 0
11, 137901, Note_on_c, 0, 57, 0
11, 137906, Note_on_c, 0, 63, 0
11, 137927, Note_on_c, 0, 61, 0
11, 137962, Note_on_c, 0, 64, 0
11, 137994, Note_on_c, 0, 52, 93
11, 137997, Note_on_c, 0, 45, 102
11, 138011, Note_on_c, 0, 57, 106
11, 138020, Note_on_c, 0, 64, 84
11, 138025, Note_on_c, 0, 61, 80
11, 138053, Note_on_c, 0, 61, 0
11, 138062, Note_on_c, 0, 64, 0
11, 138217, Note_on_c, 0, 52, 0
11, 138217, Note_on_c, 0, 57, 0
11, 138254, Note_on_c, 0, 50, 103
11, 138266, Note_on_c, 0, 62, 95
11, 138268, Note_on_c, 0, 69, 89
11, 138271, Note_on_c, 0, 57, 80
11, 138280, Note_on_c, 0, 66, 88
11, 138671, Note_on_c, 0, 50, 0
11, 138692, Note_on_c, 0, 45, 0
11, 138715, Note_on_c, 0, 54, 90
11, 138790, Note_on_c, 0, 57, 0
11, 138806, Note_on_c, 0, 62, 0
11, 138898, Note_on_c, 0, 54, 0
11, 138902, Note_on_c, 0, 66, 0
11, 138961, Note_on_c, 0, 69, 0
11, 138963, Note_on_c, 0, 45, 96
11, 139111, Note_on_c, 0, 50, 101
11, 139179, Note_on_c, 0, 45, 0
11, 139274, Note_on_c, 0, 50, 0
11, 139338, Note_on_c, 0, 45, 99
11, 139349, Note_on_c, 0, 69, 101
11, 139356, Note_on_c, 0, 74, 108
11, 139361, Note_on_c, 0, 78, 106
11, 139368, Note_on_c, 0, 81, 101
11, 139494, Note_on_c, 0, 69, 0
11, 139532, Note_on_c, 0, 81, 0
11, 139541, Note_on_c, 0, 74, 0
11, 139595, Note_on_c, 0, 45, 0
11, 139602, Note_on_c, 0, 78, 0
11, 139635, Note_on_c, 0, 50, 103
11, 139651, Note_on_c, 0, 78, 93
11, 139656, Note_on_c, 0, 74, 104
11, 139656, Note_on_c, 0, 69, 104
11, 139658, Note_on_c, 0, 81, 91
11, 139778, Note_on_c, 0, 69, 0
11, 139780, Note_on_c, 0, 81, 0
11, 139785, Note_on_c, 0, 50, 0
11, 139810, Note_on_c, 0, 74, 0
11, 139831, Note_on_c, 0, 45, 90
11, 139850, Note_on_c, 0, 78, 0
11, 139885, Note_on_c, 0, 76, 102
11, 139888, Note_on_c, 0, 69, 94
11, 139895, Note_on_c, 0, 71, 98
11, 139920, Note_on_c, 0, 77, 82
11, 139925, Note_on_c, 0, 50, 66
11, 139946, Note_on_c, 0, 77, 0
11, 139979, Note_on_c, 0, 71, 0
11, 139986, Note_on_c, 0, 50, 0
11, 140002, Note_on_c, 0, 69, 0
11, 140030, Note_on_c, 0, 76, 0
11, 140082, Note_on_c, 0, 45, 0
11, 140129, Note_on_c, 0, 50, 101
11, 140133, Note_on_c, 0, 74, 99
11, 140143, Note_on_c, 0, 69, 90
11, 140143, Note_on_c, 0, 67, 91
11, 140274, Note_on_c, 0, 45, 91
11, 140402, Note_on_c, 0, 67, 0
11, 140510, Note_on_c, 0, 69, 0
11, 140517, Note_on_c, 0, 74, 0
11, 140561, Note_on_c, 0, 50, 0
11, 140594, Note_on_c, 0, 45, 0
11, 140606, Note_on_c, 0, 54, 92
11, 140760, Note_on_c, 0, 54, 0
11, 140828, Note_on_c, 0, 45, 95
11, 140985, Note_on_c, 0, 50, 101
11, 141029, Note_on_c, 0, 45, 0
11, 141163, Note_on_c, 0, 50, 0
11, 141200, Note_on_c, 0, 45, 94
11, 141224, Note_on_c, 0, 68, 95
11, 141233, Note_on_c, 0, 66, 108
11, 141233, Note_on_c, 0, 74, 99
11, 141233, Note_on_c, 0, 69, 106
11, 141406, Note_on_c, 0, 50, 86
11, 141423, Note_on_c, 0, 68, 0
11, 141444, Note_on_c, 0, 66, 0
11, 141448, Note_on_c, 0, 74, 0
11, 141472, Note_on_c, 0, 45, 0
11, 141490, Note_on_c, 0, 69, 0
11, 141519, Note_on_c, 0, 50, 0
11, 141556, Note_on_c, 0, 64, 100
11, 141561, Note_on_c, 0, 69, 94
11, 141577, Note_on_c, 0, 45, 101
11, 141701, Note_on_c, 0, 64, 0
11, 141748, Note_on_c, 0, 69, 0
11, 141799, Note_on_c, 0, 66, 100
11, 141806, Note_on_c, 0, 50, 108
11, 141809, Note_on_c, 0, 64, 102
11, 141816, Note_on_c, 0, 45, 0
11, 141872, Note_on_c, 0, 64, 0
11, 141884, Note_on_c, 0, 66, 0
11, 141900, Note_on_c, 0, 50, 0
11, 142043, Note_on_c, 0, 45, 94
11, 142050, Note_on_c, 0, 52, 89
11, 142080, Note_on_c, 0, 64, 110
11, 142080, Note_on_c, 0, 57, 100
11, 142087, Note_on_c, 0, 59, 94
11, 142089, Note_on_c, 0, 61, 100
11, 142097, Note_on_c, 0, 59, 0
11, 142342, Note_on_c, 0, 52, 0
11, 142426, Note_on_c, 0, 45, 0
11, 142590, Note_on_c, 0, 52, 97
11, 142590, Note_on_c, 0, 45, 103
11, 142707, Note_on_c, 0, 57, 0
11, 142740, Note_on_c, 0, 61, 0
11, 142813, Note_on_c, 0, 49, 95
11, 142845, Note_on_c, 0, 64, 0
11, 142897, Note_on_c, 0, 45, 0
11, 142908, Note_on_c, 0, 64, 98
11, 142911, Note_on_c, 0, 61, 96
11, 142913, Note_on_c, 0, 57, 103
11, 142920, Note_on_c, 0, 52, 0
11, 142995, Note_on_c, 0, 49, 0
11, 143135, Note_on_c, 0, 61, 0
11, 143138, Note_on_c, 0, 57, 0
11, 143157, Note_on_c, 0, 64, 0
11, 143194, Note_on_c, 0, 45, 81
11, 143206, Note_on_c, 0, 52, 86
11, 143220, Note_on_c, 0, 57, 94
11, 143442, Note_on_c, 0, 52, 0
11, 143458, Note_on_c, 0, 45, 0
11, 143493, Note_on_c, 0, 57, 0
11, 143522, Note_on_c, 0, 59, 95
11, 143547, Note_on_c, 0, 64, 83
11, 143603, Note_on_c, 0, 45, 80
11, 143641, Note_on_c, 0, 64, 0
11, 143770, Note_on_c, 0, 59, 0
11, 143788, Note_on_c, 0, 57, 96
11, 143795, Note_on_c, 0, 52, 92
11, 143863, Note_on_c, 0, 45, 0
11, 143901, Note_on_c, 0, 57, 0
11, 143910, Note_on_c, 0, 52, 0
11, 144020, Note_on_c, 0, 69, 89
11, 144022, Note_on_c, 0, 57, 102
11, 144027, Note_on_c, 0, 61, 96
11, 144032, Note_on_c, 0, 45, 106
11, 144270, Note_on_c, 0, 45, 0
11, 144497, Note_on_c, 0, 45, 97
11, 144546, Note_on_c, 0, 52, 69
11, 144572, Note_on_c, 0, 52, 0
11, 144640, Note_on_c, 0, 57, 0
11, 144666, Note_on_c, 0, 61, 0
11, 144673, Note_on_c, 0, 45, 0
11, 144715, Note_on_c, 0, 52, 92
11, 144757, Note_on_c, 0, 69, 0
11, 144858, Note_on_c, 0, 52, 0
11, 144879, Note_on_c, 0, 45, 95
11, 145073, Note_on_c, 0, 52, 94
11, 145089, Note_on_c, 0, 74, 93
11, 145089, Note_on_c, 0, 69, 112
11, 145094, Note_on_c, 0, 76, 100
11, 145108, Note_on_c, 0, 75, 91
11, 145155, Note_on_c, 0, 75, 0
11, 145230, Note_on_c, 0, 45, 0
11, 145244, Note_on_c, 0, 74, 0
11, 145281, Note_on_c, 0, 52, 0
11, 145284, Note_on_c, 0, 69, 0
11, 145319, Note_on_c, 0, 76, 0
11, 145419, Note_on_c, 0, 45, 101
11, 145419, Note_on_c, 0, 71, 99
11, 145424, Note_on_c, 0, 69, 100
11, 145459, Note_on_c, 0, 76, 77
11, 145487, Note_on_c, 0, 76, 0
11, 145555, Note_on_c, 0, 69, 0
11, 145595, Note_on_c, 0, 71, 0
11, 145656, Note_on_c, 0, 52, 97
11, 145663, Note_on_c, 0, 69, 99
11, 145698, Note_on_c, 0, 45, 0
11, 145756, Note_on_c, 0, 69, 0
11, 145766, Note_on_c, 0, 52, 0
11, 145913, Note_on_c, 0, 74, 104
11, 145913, Note_on_c, 0, 45, 108
11, 145918, Note_on_c, 0, 69, 100
11, 145918, Note_on_c, 0, 78, 102
11, 145918, Note_on_c, 0, 50, 126
11, 145925, Note_on_c, 0, 81, 101
11, 145925, Note_on_c, 0, 44, 91
11, 145934, Note_on_c, 0, 44, 0
11, 146091, Note_on_c, 0, 50, 0
11, 146234, Note_on_c, 0, 45, 0
11, 146414, Note_on_c, 0, 54, 93
11, 146554, Note_on_c, 0, 54, 0
11, 146645, Note_on_c, 0, 45, 84
11, 146959, Note_on_c, 0, 74, 0
11, 146959, Note_on_c, 0, 69, 0
11, 146987, Note_on_c, 0, 81, 0
11, 146987, Note_on_c, 0, 45, 0
11, 147018, Note_on_c, 0, 78, 0
11, 147020, Note_on_c, 0, 50, 108
11, 147029, Note_on_c, 0, 76, 101
11, 147029, Note_on_c, 0, 69, 98
11, 147046, Note_on_c, 0, 78, 83
11, 147104, Note_on_c, 0, 78, 0
11, 147233, Note_on_c, 0, 69, 0
11, 147261, Note_on_c, 0, 50, 0
11, 147261, Note_on_c, 0, 76, 0
11, 147310, Note_on_c, 0, 45, 98
11, 147312, Note_on_c, 0, 74, 101
11, 147317, Note_on_c, 0, 69, 106
11, 147453, Note_on_c, 0, 69, 0
11, 147502, Note_on_c, 0, 74, 0
11, 147572, Note_on_c, 0, 45, 0
11, 147572, Note_on_c, 0, 50, 98
11, 147577, Note_on_c, 0, 69, 112
11, 147743, Note_on_c, 0, 50, 0
11, 147801, Note_on_c, 0, 69, 0
11, 147830, Note_on_c, 0, 45, 95
11, 147837, Note_on_c, 0, 78, 94
11, 147837, Note_on_c, 0, 81, 94
11, 147839, Note_on_c, 0, 74, 99
11, 147844, Note_on_c, 0, 69, 92
11, 148073, Note_on_c, 0, 45, 0
11, 148328, Note_on_c, 0, 54, 89
11, 148524, Note_on_c, 0, 54, 0
11, 148583, Note_on_c, 0, 45, 77
11, 148691, Note_on_c, 0, 69, 0
11, 148730, Note_on_c, 0, 50, 101
11, 148791, Note_on_c, 0, 74, 0
11, 148801, Note_on_c, 0, 45, 0
11, 148859, Note_on_c, 0, 81, 0
11, 148901, Note_on_c, 0, 50, 0
11, 148915, Note_on_c, 0, 78, 0
11, 148964, Note_on_c, 0, 69, 100
11, 148967, Note_on_c, 0, 45, 97
11, 148969, Note_on_c, 0, 76, 101
11, 148974, Note_on_c, 0, 75, 92
11, 148978, Note_on_c, 0, 78, 89
11, 149152, Note_on_c, 0, 75, 0
11, 149161, Note_on_c, 0, 69, 0
11, 149252, Note_on_c, 0, 76, 0
11, 149271, Note_on_c, 0, 78, 0
11, 149301, Note_on_c, 0, 74, 101
11, 149304, Note_on_c, 0, 69, 102
11, 149311, Note_on_c, 0, 50, 99
11, 149346, Note_on_c, 0, 45, 0
11, 149388, Note_on_c, 0, 69, 0
11, 149435, Note_on_c, 0, 50, 0
11, 149435, Note_on_c, 0, 74, 0
11, 149547, Note_on_c, 0, 45, 95
11, 149748, Note_on_c, 0, 45, 0
11, 149760, Control_c, 0, 7, 121
11, 149781, Note_on_c, 0, 50, 97
11, 149795, Note_on_c, 0, 81, 85
11, 149795, Note_on_c, 0, 90, 93
11, 149795, Note_on_c, 0, 86, 94
11, 149917, Note_on_c, 0, 50, 0
11, 150137, Note_on_c, 0, 45, 76
11, 150188, Note_on_c, 0, 45, 0
11, 150275, Note_on_c, 0, 45, 99
11, 150530, Note_on_c, 0, 50, 103
11, 150537, Note_on_c, 0, 45, 0
11, 150591, Note_on_c, 0, 50, 0
11, 150689, Note_on_c, 0, 50, 103
11, 150696, Note_on_c, 0, 52, 108
11, 150862, Note_on_c, 0, 52, 0
11, 150928, Note_on_c, 0, 50, 0
11, 150935, Note_on_c, 0, 54, 94
11, 151108, Note_on_c, 0, 54, 0
11, 151208, Note_on_c, 0, 50, 103
11, 151208, Note_on_c, 0, 57, 90
11, 151218, Note_on_c, 0, 55, 92
11, 151258, Note_on_c, 0, 81, 0
11, 151302, Note_on_c, 0, 86, 0
11, 151311, Note_on_c, 0, 55, 0
11, 151342, Note_on_c, 0, 90, 0
11, 151417, Note_on_c, 0, 54, 97
11, 151428, Note_on_c, 0, 81, 94
11, 151433, Note_on_c, 0, 88, 100
11, 151499, Note_on_c, 0, 50, 0
11, 151543, Note_on_c, 0, 88, 0
11, 151562, Note_on_c, 0, 81, 0
11, 151562, Note_on_c, 0, 57, 0
11, 151571, Note_on_c, 0, 54, 0
11, 151658, Note_on_c, 0, 50, 97
11, 151679, Note_on_c, 0, 84, 86
11, 151693, Note_on_c, 0, 88, 85
11, 152130, Note_on_c, 0, 55, 95
11, 152215, Note_on_c, 0, 50, 0
11, 152290, Note_on_c, 0, 55, 0
11, 152381, Note_on_c, 0, 50, 99
11, 152446, Note_on_c, 0, 88, 0
11, 152446, Note_on_c, 0, 84, 0
11, 152505, Note_on_c, 0, 79, 100
11, 152507, Note_on_c, 0, 84, 97
11, 152510, Note_on_c, 0, 50, 0
11, 152510, Note_on_c, 0, 88, 102
11, 152524, Note_on_c, 0, 91, 84
11, 152575, Note_on_c, 0, 48, 97
11, 152875, Note_on_c, 0, 52, 92
11, 152898, Note_on_c, 0, 48, 0
11, 153106, Note_on_c, 0, 52, 0
11, 153160, Note_on_c, 0, 55, 97
11, 153160, Note_on_c, 0, 48, 89
11, 153270, Note_on_c, 0, 79, 0
11, 153296, Note_on_c, 0, 48, 0
11, 153298, Note_on_c, 0, 91, 0
11, 153300, Note_on_c, 0, 55, 0
11, 153317, Note_on_c, 0, 88, 0
11, 153331, Note_on_c, 0, 84, 0
11, 153385, Note_on_c, 0, 79, 93
11, 153385, Note_on_c, 0, 84, 97
11, 153389, Note_on_c, 0, 48, 96
11, 153392, Note_on_c, 0, 88, 98
11, 153392, Note_on_c, 0, 55, 98
11, 153460, Note_on_c, 0, 84, 0
11, 153471, Note_on_c, 0, 88, 0
11, 153483, Note_on_c, 0, 79, 0
11, 153504, Note_on_c, 0, 48, 0
11, 153511, Note_on_c, 0, 55, 0
11, 153605, Note_on_c, 0, 83, 94
11, 153614, Note_on_c, 0, 50, 95
11, 153614, Note_on_c, 0, 86, 93
11, 153623, Note_on_c, 0, 79, 87
11, 153871, Note_on_c, 0, 55, 93
11, 153911, Note_on_c, 0, 79, 0
11, 154031, Note_on_c, 0, 83, 0
11, 154040, Note_on_c, 0, 86, 0
11, 154115, Note_on_c, 0, 79, 93
11, 154115, Note_on_c, 0, 59, 91
11, 154288, Note_on_c, 0, 55, 0
11, 154316, Note_on_c, 0, 59, 0
11, 154356, Note_on_c, 0, 55, 94
11, 154367, Note_on_c, 0, 79, 0
11, 154419, Note_on_c, 0, 50, 0
11, 154484, Note_on_c, 0, 79, 106
11, 154489, Note_on_c, 0, 55, 0
11, 154503, Note_on_c, 0, 81, 99
11, 154524, Note_on_c, 0, 50, 98
11, 154651, Note_on_c, 0, 79, 0
11, 154761, Note_on_c, 0, 81, 0
11, 154798, Note_on_c, 0, 55, 93
11, 154824, Note_on_c, 0, 79, 93
11, 154826, Note_on_c, 0, 83, 96
11, 154871, Note_on_c, 0, 50, 0
11, 154988, Note_on_c, 0, 79, 0
11, 155009, Note_on_c, 0, 55, 0
11, 155030, Note_on_c, 0, 83, 0
11, 155065, Note_on_c, 0, 81, 95
11, 155074, Note_on_c, 0, 79, 97
11, 155084, Note_on_c, 0, 50, 95
11, 155168, Note_on_c, 0, 79, 0
11, 155175, Note_on_c, 0, 81, 0
11, 155301, Note_on_c, 0, 55, 94
11, 155318, Note_on_c, 0, 50, 0
11, 155418, Note_on_c, 0, 55, 0
11, 155530, Note_on_c, 0, 78, 91
11, 155530, Note_on_c, 0, 69, 91
11, 155535, Note_on_c, 0, 81, 93
11, 155535, Note_on_c, 0, 50, 99
11, 155537, Note_on_c, 0, 74, 97
11, 155690, Note_on_c, 0, 81, 0
11, 155694, Note_on_c, 0, 74, 0
11, 155757, Note_on_c, 0, 69, 0
11, 155764, Note_on_c, 0, 78, 0
11, 155874, Note_on_c, 0, 50, 0
11, 155921, Note_on_c, 0, 69, 103
11, 155921, Note_on_c, 0, 62, 93
11, 155931, Note_on_c, 0, 66, 97
11, 155959, Note_on_c, 0, 50, 94
11, 155987, Note_on_c, 0, 66, 0
11, 156132, Note_on_c, 0, 50, 0
11, 156158, Note_on_c, 0, 62, 0
11, 156165, Note_on_c, 0, 69, 0
11, 156228, Note_on_c, 0, 66, 90
11, 156239, Note_on_c, 0, 62, 95
11, 156249, Note_on_c, 0, 69, 88
11, 156263, Note_on_c, 0, 50, 101
11, 156438, Note_on_c, 0, 62, 0
11, 156605, Note_on_c, 0, 66, 0
11, 156633, Note_on_c, 0, 69, 0
11, 156693, Note_on_c, 0, 64, 96
11, 156693, Note_on_c, 0, 57, 99
11, 156712, Note_on_c, 0, 69, 93
11, 156764, Note_on_c, 0, 50, 0
11, 156782, Note_on_c, 0, 69, 0
11, 156862, Note_on_c, 0, 57, 0
11, 156920, Note_on_c, 0, 64, 0
11, 156979, Note_on_c, 0, 66, 99
11, 156984, Note_on_c, 0, 69, 94
11, 156984, Note_on_c, 0, 50, 97
11, 157016, Note_on_c, 0, 64, 74
11, 157044, Note_on_c, 0, 64, 0
11, 157161, Note_on_c, 0, 66, 0
11, 157180, Note_on_c, 0, 69, 0
11, 157215, Note_on_c, 0, 64, 99
11, 157220, Note_on_c, 0, 57, 99
11, 157276, Note_on_c, 0, 64, 0
11, 157281, Note_on_c, 0, 57, 0
11, 157349, Note_on_c, 0, 50, 0
11, 157449, Note_on_c, 0, 50, 95
11, 157662, Note_on_c, 0, 50, 0
11, 157667, Note_on_c, 0, 90, 112
11, 157667, Note_on_c, 0, 86, 106
11, 157669, Note_on_c, 0, 81, 96
11, 157686, Note_on_c, 0, 93, 88
11, 157798, Note_on_c, 0, 81, 0
11, 158009, Note_on_c, 0, 50, 91
11, 158219, Note_on_c, 0, 57, 82
11, 158294, Note_on_c, 0, 57, 0
11, 158320, Note_on_c, 0, 86, 0
11, 158374, Note_on_c, 0, 57, 91
11, 158409, Note_on_c, 0, 93, 0
11, 158427, Note_on_c, 0, 50, 0
11, 158537, Note_on_c, 0, 57, 0
11, 158568, Note_on_c, 0, 90, 0
11, 158598, Note_on_c, 0, 50, 86
11, 158856, Note_on_c, 0, 57, 96
11, 158860, Note_on_c, 0, 88, 97
11, 158870, Note_on_c, 0, 81, 99
11, 158926, Note_on_c, 0, 50, 0
11, 159003, Note_on_c, 0, 81, 0
11, 159017, Note_on_c, 0, 57, 0
11, 159043, Note_on_c, 0, 88, 0
11, 159104, Note_on_c, 0, 50, 96
11, 159108, Note_on_c, 0, 86, 103
11, 159111, Note_on_c, 0, 81, 94
11, 159171, Note_on_c, 0, 81, 0
11, 159197, Note_on_c, 0, 86, 0
11, 159260, Note_on_c, 0, 50, 0
11, 159352, Note_on_c, 0, 84, 89
11, 159356, Note_on_c, 0, 88, 104
11, 159356, Note_on_c, 0, 91, 104
11, 159370, Note_on_c, 0, 47, 94
11, 159370, Note_on_c, 0, 48, 95
11, 159532, Note_on_c, 0, 47, 0
11, 159658, Note_on_c, 0, 55, 87
11, 159719, Note_on_c, 0, 48, 0
11, 159759, Note_on_c, 0, 84, 0
11, 159824, Note_on_c, 0, 48, 95
11, 159920, Note_on_c, 0, 55, 0
11, 159932, Note_on_c, 0, 88, 0
11, 160030, Note_on_c, 0, 55, 94
11, 160047, Note_on_c, 0, 84, 101
11, 160058, Note_on_c, 0, 91, 0
11, 160185, Note_on_c, 0, 48, 0
11, 160220, Note_on_c, 0, 55, 0
11, 160320, Note_on_c, 0, 84, 0
11, 160344, Note_on_c, 0, 48, 94
11, 160358, Note_on_c, 0, 86, 95
11, 160374, Note_on_c, 0, 91, 100
11, 160384, Note_on_c, 0, 84, 84
11, 160458, Note_on_c, 0, 84, 0
11, 160597, Note_on_c, 0, 86, 0
11, 160601, Note_on_c, 0, 55, 98
11, 160613, Note_on_c, 0, 84, 95
11, 160653, Note_on_c, 0, 91, 0
11, 160721, Note_on_c, 0, 48, 0
11, 160730, Note_on_c, 0, 84, 0
11, 160765, Note_on_c, 0, 55, 0
11, 160812, Note_on_c, 0, 91, 95
11, 160817, Note_on_c, 0, 84, 83
11, 160819, Note_on_c, 0, 88, 99
11, 160824, Note_on_c, 0, 48, 94
11, 160835, Note_on_c, 0, 89, 88
11, 160861, Note_on_c, 0, 89, 0
11, 160898, Note_on_c, 0, 84, 0
11, 161013, Note_on_c, 0, 88, 0
11, 161072, Note_on_c, 0, 84, 108
11, 161076, Note_on_c, 0, 55, 96
11, 161090, Note_on_c, 0, 91, 0
11, 161153, Note_on_c, 0, 48, 0
11, 161165, Note_on_c, 0, 84, 0
11, 161205, Note_on_c, 0, 55, 0
11, 161306, Note_on_c, 0, 86, 92
11, 161306, Note_on_c, 0, 91, 110
11, 161315, Note_on_c, 0, 50, 96
11, 161320, Note_on_c, 0, 95, 93
11, 161521, Note_on_c, 0, 86, 0
11, 161647, Note_on_c, 0, 55, 84
11, 161654, Note_on_c, 0, 91, 0
11, 161699, Note_on_c, 0, 95, 0
11, 161891, Note_on_c, 0, 55, 0
11, 161912, Note_on_c, 0, 50, 0
11, 161961, Note_on_c, 0, 59, 94
11, 161970, Note_on_c, 0, 91, 100
11, 161975, Note_on_c, 0, 86, 100
11, 161984, Note_on_c, 0, 95, 96
11, 162003, Note_on_c, 0, 50, 90
11, 162134, Note_on_c, 0, 59, 0
11, 162146, Note_on_c, 0, 50, 0
11, 162188, Note_on_c, 0, 55, 97
11, 162195, Note_on_c, 0, 86, 0
11, 162326, Note_on_c, 0, 55, 0
11, 162326, Note_on_c, 0, 91, 0
11, 162408, Note_on_c, 0, 50, 95
11, 162419, Note_on_c, 0, 86, 100
11, 162424, Note_on_c, 0, 93, 96
11, 162560, Note_on_c, 0, 86, 0
11, 162623, Note_on_c, 0, 93, 0
11, 162637, Note_on_c, 0, 50, 0
11, 162653, Note_on_c, 0, 95, 0
11, 162689, Note_on_c, 0, 55, 101
11, 162689, Note_on_c, 0, 91, 110
11, 162700, Note_on_c, 0, 86, 110
11, 162855, Note_on_c, 0, 86, 0
11, 162859, Note_on_c, 0, 55, 0
11, 162869, Note_on_c, 0, 91, 0
11, 162930, Note_on_c, 0, 50, 98
11, 162932, Note_on_c, 0, 86, 103
11, 162932, Note_on_c, 0, 93, 104
11, 163030, Note_on_c, 0, 86, 0
11, 163058, Note_on_c, 0, 93, 0
11, 163082, Note_on_c, 0, 50, 0
11, 163157, Note_on_c, 0, 93, 89
11, 163166, Note_on_c, 0, 86, 95
11, 163173, Note_on_c, 0, 50, 106
11, 163472, Note_on_c, 0, 57, 95
11, 163510, Note_on_c, 0, 86, 0
11, 163543, Note_on_c, 0, 50, 0
11, 163559, Note_on_c, 0, 57, 0
11, 163568, Note_on_c, 0, 90, 99
11, 163578, Note_on_c, 0, 86, 110
11, 163622, Note_on_c, 0, 57, 100
11, 163625, Note_on_c, 0, 50, 99
11, 163646, Note_on_c, 0, 93, 0
11, 163742, Note_on_c, 0, 90, 0
11, 163742, Note_on_c, 0, 86, 0
11, 163767, Note_on_c, 0, 50, 0
11, 163781, Note_on_c, 0, 57, 0
11, 163880, Note_on_c, 0, 50, 93
11, 163929, Note_on_c, 0, 75, 115
11, 163952, Note_on_c, 0, 78, 94
11, 163952, Note_on_c, 0, 74, 115
11, 163952, Note_on_c, 0, 79, 103
11, 164071, Note_on_c, 0, 79, 0
11, 164123, Note_on_c, 0, 57, 85
11, 164151, Note_on_c, 0, 75, 0
11, 164200, Note_on_c, 0, 50, 0
11, 164202, Note_on_c, 0, 57, 0
11, 164245, Note_on_c, 0, 78, 0
11, 164287, Note_on_c, 0, 74, 0
11, 164350, Note_on_c, 0, 50, 94
11, 164366, Note_on_c, 0, 74, 102
11, 164366, Note_on_c, 0, 78, 115
11, 164385, Note_on_c, 0, 69, 93
11, 164525, Note_on_c, 0, 69, 0
11, 164582, Note_on_c, 0, 74, 0
11, 164596, Note_on_c, 0, 78, 0
11, 164656, Note_on_c, 0, 69, 93
11, 164656, Note_on_c, 0, 57, 99
11, 164659, Note_on_c, 0, 76, 103
11, 164780, Note_on_c, 0, 50, 0
11, 164825, Note_on_c, 0, 57, 0
11, 164827, Note_on_c, 0, 69, 0
11, 164844, Note_on_c, 0, 76, 0
11, 164886, Note_on_c, 0, 74, 97
11, 164886, Note_on_c, 0, 69, 108
11, 164907, Note_on_c, 0, 50, 101
11, 164928, Note_on_c, 0, 74, 0
11, 164965, Note_on_c, 0, 69, 0
11, 165103, Note_on_c, 0, 68, 93
11, 165124, Note_on_c, 0, 57, 96
11, 165124, Note_on_c, 0, 66, 91
11, 165129, Note_on_c, 0, 69, 97
11, 165136, Note_on_c, 0, 74, 88
11, 165176, Note_on_c, 0, 50, 0
11, 165209, Note_on_c, 0, 68, 0
11, 165450, Note_on_c, 0, 57, 0
11, 165567, Note_on_c, 0, 50, 97
11, 165749, Note_on_c, 0, 66, 0
11, 165766, Note_on_c, 0, 69, 0
11, 165796, Note_on_c, 0, 57, 100
11, 165798, Note_on_c, 0, 64, 96
11, 165817, Note_on_c, 0, 74, 0
11, 165857, Note_on_c, 0, 50, 0
11, 165918, Note_on_c, 0, 66, 104
11, 165957, Note_on_c, 0, 57, 0
11, 165967, Note_on_c, 0, 50, 89
11, 166025, Note_on_c, 0, 64, 0
11, 166072, Note_on_c, 0, 66, 0
11, 166229, Note_on_c, 0, 57, 95
11, 166248, Note_on_c, 0, 69, 94
11, 166248, Note_on_c, 0, 74, 96
11, 166252, Note_on_c, 0, 64, 93
11, 166388, Note_on_c, 0, 50, 0
11, 166428, Note_on_c, 0, 57, 0
11, 166468, Note_on_c, 0, 64, 0
11, 166475, Note_on_c, 0, 74, 0
11, 166519, Note_on_c, 0, 69, 0
11, 166519, Note_on_c, 0, 66, 102
11, 166547, Note_on_c, 0, 50, 95
11, 166566, Note_on_c, 0, 51, 85
11, 166620, Note_on_c, 0, 51, 0
11, 166718, Note_on_c, 0, 66, 0
11, 166769, Note_on_c, 0, 57, 96
11, 166769, Note_on_c, 0, 64, 96
11, 166861, Note_on_c, 0, 50, 0
11, 166896, Note_on_c, 0, 57, 0
11, 166938, Note_on_c, 0, 64, 0
11, 167027, Note_on_c, 0, 72, 92
11, 167032, Note_on_c, 0, 48, 98
11, 167036, Note_on_c, 0, 67, 94
11, 167041, Note_on_c, 0, 64, 86
11, 167333, Note_on_c, 0, 48, 0
11, 167542, Note_on_c, 0, 55, 97
11, 167542, Note_on_c, 0, 48, 95
11, 167663, Note_on_c, 0, 55, 0
11, 167680, Note_on_c, 0, 48, 0
11, 167745, Note_on_c, 0, 64, 0
11, 167745, Note_on_c, 0, 67, 0
11, 167752, Note_on_c, 0, 72, 0
11, 167755, Note_on_c, 0, 55, 95
11, 167759, Note_on_c, 0, 48, 94
11, 167921, Note_on_c, 0, 72, 94
11, 167921, Note_on_c, 0, 67, 96
11, 167930, Note_on_c, 0, 64, 97
11, 167954, Note_on_c, 0, 55, 0
11, 167954, Note_on_c, 0, 48, 0
11, 168059, Note_on_c, 0, 67, 0
11, 168066, Note_on_c, 0, 64, 0
11, 168075, Note_on_c, 0, 72, 0
11, 168122, Note_on_c, 0, 48, 84
11, 168145, Note_on_c, 0, 67, 93
11, 168145, Note_on_c, 0, 72, 98
11, 168145, Note_on_c, 0, 64, 101
11, 168323, Note_on_c, 0, 64, 0
11, 168335, Note_on_c, 0, 67, 0
11, 168351, Note_on_c, 0, 72, 0
11, 168375, Note_on_c, 0, 55, 89
11, 168386, Note_on_c, 0, 48, 0
11, 168464, Note_on_c, 0, 72, 95
11, 168466, Note_on_c, 0, 64, 91
11, 168478, Note_on_c, 0, 71, 94
11, 168522, Note_on_c, 0, 48, 88
11, 168539, Note_on_c, 0, 55, 0
11, 168639, Note_on_c, 0, 64, 0
11, 168672, Note_on_c, 0, 71, 0
11, 168677, Note_on_c, 0, 72, 0
11, 168751, Note_on_c, 0, 67, 97
11, 168751, Note_on_c, 0, 55, 99
11, 168756, Note_on_c, 0, 64, 92
11, 168847, Note_on_c, 0, 48, 0
11, 168875, Note_on_c, 0, 64, 0
11, 168875, Note_on_c, 0, 67, 0
11, 168890, Note_on_c, 0, 55, 0
11, 169002, Note_on_c, 0, 71, 85
11, 169002, Note_on_c, 0, 74, 87
11, 169004, Note_on_c, 0, 62, 86
11, 169007, Note_on_c, 0, 67, 92
11, 169011, Note_on_c, 0, 50, 97
11, 169465, Note_on_c, 0, 55, 99
11, 169678, Note_on_c, 0, 62, 0
11, 169704, Note_on_c, 0, 59, 93
11, 169741, Note_on_c, 0, 74, 0
11, 169748, Note_on_c, 0, 67, 0
11, 169751, Note_on_c, 0, 50, 0
11, 169767, Note_on_c, 0, 71, 0
11, 169788, Note_on_c, 0, 55, 0
11, 169828, Note_on_c, 0, 62, 97
11, 169830, Note_on_c, 0, 67, 97
11, 169830, Note_on_c, 0, 71, 96
11, 169840, Note_on_c, 0, 74, 92
11, 169863, Note_on_c, 0, 59, 0
11, 169928, Note_on_c, 0, 50, 81
11, 169940, Note_on_c, 0, 67, 0
11, 169947, Note_on_c, 0, 62, 0
11, 169952, Note_on_c, 0, 71, 0
11, 169959, Note_on_c, 0, 74, 0
11, 170022, Note_on_c, 0, 71, 96
11, 170022, Note_on_c, 0, 67, 97
11, 170022, Note_on_c, 0, 62, 97
11, 170022, Note_on_c, 0, 74, 93
11, 170045, Note_on_c, 0, 55, 93
11, 170116, Note_on_c, 0, 50, 0
11, 170207, Note_on_c, 0, 55, 0
11, 170242, Note_on_c, 0, 62, 0
11, 170247, Note_on_c, 0, 74, 0
11, 170268, Note_on_c, 0, 50, 86
11, 170270, Note_on_c, 0, 67, 0
11, 170270, Note_on_c, 0, 71, 0
11, 170382, Note_on_c, 0, 74, 95
11, 170382, Note_on_c, 0, 62, 95
11, 170392, Note_on_c, 0, 67, 98
11, 170394, Note_on_c, 0, 71, 100
11, 170406, Note_on_c, 0, 55, 93
11, 170488, Note_on_c, 0, 50, 0
11, 170539, Note_on_c, 0, 67, 0
11, 170549, Note_on_c, 0, 55, 0
11, 170567, Note_on_c, 0, 62, 0
11, 170584, Note_on_c, 0, 71, 0
11, 170586, Note_on_c, 0, 74, 0
11, 170635, Note_on_c, 0, 50, 94
11, 170645, Note_on_c, 0, 74, 90
11, 170647, Note_on_c, 0, 62, 92
11, 170649, Note_on_c, 0, 69, 90
11, 170654, Note_on_c, 0, 71, 93
11, 170797, Note_on_c, 0, 74, 0
11, 170808, Note_on_c, 0, 71, 0
11, 170811, Note_on_c, 0, 69, 0
11, 170818, Note_on_c, 0, 62, 0
11, 170839, Note_on_c, 0, 50, 0
11, 170890, Note_on_c, 0, 74, 94
11, 170890, Note_on_c, 0, 55, 98
11, 170895, Note_on_c, 0, 66, 93
11, 170895, Note_on_c, 0, 62, 91
11, 171049, Note_on_c, 0, 55, 0
11, 171061, Note_on_c, 0, 50, 76
11, 171339, Note_on_c, 0, 50, 0
11, 171400, Note_on_c, 0, 57, 101
11, 171407, Note_on_c, 0, 50, 99
11, 171534, Note_on_c, 0, 50, 0
11, 171555, Note_on_c, 0, 57, 0
11, 171632, Note_on_c, 0, 54, 99
11, 171669, Note_on_c, 0, 57, 85
11, 171705, Note_on_c, 0, 74, 0
11, 171716, Note_on_c, 0, 66, 0
11, 171723, Note_on_c, 0, 62, 0
11, 171749, Note_on_c, 0, 57, 0
11, 171770, Note_on_c, 0, 69, 99
11, 171775, Note_on_c, 0, 62, 102
11, 171782, Note_on_c, 0, 54, 0
11, 171782, Note_on_c, 0, 66, 104
11, 171793, Note_on_c, 0, 74, 93
11, 171803, Note_on_c, 0, 57, 100
11, 171807, Note_on_c, 0, 50, 99
11, 171838, Note_on_c, 0, 66, 0
11, 171852, Note_on_c, 0, 74, 0
11, 171908, Note_on_c, 0, 62, 0
11, 171967, Note_on_c, 0, 69, 0
11, 171969, Note_on_c, 0, 54, 92
11, 171976, Note_on_c, 0, 50, 0
11, 172006, Note_on_c, 0, 57, 0
11, 172006, Note_on_c, 0, 62, 96
11, 172011, Note_on_c, 0, 69, 72
11, 172135, Note_on_c, 0, 54, 0
11, 172173, Note_on_c, 0, 69, 0
11, 172203, Note_on_c, 0, 62, 0
11, 172325, Note_on_c, 0, 67, 94
11, 172334, Note_on_c, 0, 50, 98
11, 172339, Note_on_c, 0, 62, 93
11, 172367, Note_on_c, 0, 57, 93
11, 172449, Note_on_c, 0, 67, 0
11, 172458, Note_on_c, 0, 57, 0
11, 172484, Note_on_c, 0, 62, 0
11, 172535, Note_on_c, 0, 54, 88
11, 172552, Note_on_c, 0, 66, 96
11, 172554, Note_on_c, 0, 62, 91
11, 172643, Note_on_c, 0, 50, 0
11, 172699, Note_on_c, 0, 62, 0
11, 172711, Note_on_c, 0, 66, 0
11, 172736, Note_on_c, 0, 54, 0
11, 172811, Note_on_c, 0, 69, 84
11, 172816, Note_on_c, 0, 50, 96
11, 172816, Note_on_c, 0, 57, 94
11, 172816, Note_on_c, 0, 62, 89
11, 173059, Note_on_c, 0, 54, 93
11, 173085, Note_on_c, 0, 66, 81
11, 173127, Note_on_c, 0, 57, 0
11, 173155, Note_on_c, 0, 62, 0
11, 173176, Note_on_c, 0, 50, 0
11, 173200, Note_on_c, 0, 69, 0
11, 173207, Note_on_c, 0, 66, 0
11, 173251, Note_on_c, 0, 54, 0
11, 173291, Note_on_c, 0, 69, 95
11, 173291, Note_on_c, 0, 62, 93
11, 173300, Note_on_c, 0, 57, 92
11, 173303, Note_on_c, 0, 50, 94
11, 173534, Note_on_c, 0, 54, 93
11, 173544, Note_on_c, 0, 66, 90
11, 173572, Note_on_c, 0, 69, 0
11, 173591, Note_on_c, 0, 57, 0
11, 173600, Note_on_c, 0, 62, 0
11, 173616, Note_on_c, 0, 50, 0
11, 173619, Note_on_c, 0, 66, 0
11, 173649, Note_on_c, 0, 54, 0
11, 173687, Note_on_c, 0, 62, 93
11, 173687, Note_on_c, 0, 69, 94
11, 173708, Note_on_c, 0, 57, 93
11, 173715, Note_on_c, 0, 50, 97
11, 173829, Note_on_c, 0, 62, 0
11, 173843, Note_on_c, 0, 69, 0
11, 173853, Note_on_c, 0, 57, 0
11, 173902, Note_on_c, 0, 54, 87
11, 173918, Note_on_c, 0, 69, 94
11, 173923, Note_on_c, 0, 66, 104
11, 173932, Note_on_c, 0, 62, 87
11, 173970, Note_on_c, 0, 50, 0
11, 174005, Note_on_c, 0, 62, 0
11, 174040, Note_on_c, 0, 69, 0
11, 174059, Note_on_c, 0, 66, 0
11, 174110, Note_on_c, 0, 54, 0
11, 174234, Note_on_c, 0, 50, 90
11, 174239, Note_on_c, 0, 62, 85
11, 174241, Note_on_c, 0, 69, 91
11, 174253, Note_on_c, 0, 57, 94
11, 174407, Note_on_c, 0, 62, 0
11, 174438, Note_on_c, 0, 69, 0
11, 174468, Note_on_c, 0, 57, 0
11, 174496, Note_on_c, 0, 66, 92
11, 174503, Note_on_c, 0, 54, 94
11, 174510, Note_on_c, 0, 62, 88
11, 174576, Note_on_c, 0, 50, 0
11, 174608, Note_on_c, 0, 62, 0
11, 174646, Note_on_c, 0, 66, 0
11, 174653, Note_on_c, 0, 54, 0
11, 174737, Note_on_c, 0, 72, 91
11, 174749, Note_on_c, 0, 64, 91
11, 174749, Note_on_c, 0, 48, 94
11, 174997, Note_on_c, 0, 67, 87
11, 175006, Note_on_c, 0, 55, 86
11, 175058, Note_on_c, 0, 64, 0
11, 175069, Note_on_c, 0, 48, 0
11, 175081, Note_on_c, 0, 55, 0
11, 175170, Note_on_c, 0, 67, 0
11, 175226, Note_on_c, 0, 64, 83
11, 175231, Note_on_c, 0, 55, 94
11, 175236, Note_on_c, 0, 48, 92
11, 175301, Note_on_c, 0, 72, 0
11, 175362, Note_on_c, 0, 55, 0
11, 175367, Note_on_c, 0, 48, 0
11, 175371, Note_on_c, 0, 64, 0
11, 175449, Note_on_c, 0, 72, 94
11, 175458, Note_on_c, 0, 67, 94
11, 175467, Note_on_c, 0, 48, 94
11, 175470, Note_on_c, 0, 64, 88
11, 175519, Note_on_c, 0, 67, 0
11, 175523, Note_on_c, 0, 64, 0
11, 175580, Note_on_c, 0, 64, 93
11, 175580, Note_on_c, 0, 67, 98
11, 175615, Note_on_c, 0, 55, 84
11, 175664, Note_on_c, 0, 72, 0
11, 175678, Note_on_c, 0, 67, 0
11, 175687, Note_on_c, 0, 64, 0
11, 175704, Note_on_c, 0, 48, 0
11, 175755, Note_on_c, 0, 55, 0
11, 175800, Note_on_c, 0, 64, 99
11, 175800, Note_on_c, 0, 67, 103
11, 175804, Note_on_c, 0, 72, 99
11, 175835, Note_on_c, 0, 48, 101
11, 175984, Note_on_c, 0, 64, 0
11, 175984, Note_on_c, 0, 67, 0
11, 176031, Note_on_c, 0, 72, 0
11, 176122, Note_on_c, 0, 55, 98
11, 176125, Note_on_c, 0, 69, 99
11, 176127, Note_on_c, 0, 64, 98
11, 176146, Note_on_c, 0, 72, 82
11, 176228, Note_on_c, 0, 72, 0
11, 176246, Note_on_c, 0, 48, 0
11, 176291, Note_on_c, 0, 64, 0
11, 176310, Note_on_c, 0, 55, 0
11, 176333, Note_on_c, 0, 69, 0
11, 176394, Note_on_c, 0, 67, 96
11, 176394, Note_on_c, 0, 48, 102
11, 176406, Note_on_c, 0, 64, 100
11, 176420, Note_on_c, 0, 49, 80
11, 176520, Note_on_c, 0, 64, 0
11, 176527, Note_on_c, 0, 49, 0
11, 176560, Note_on_c, 0, 67, 0
11, 176560, Note_on_c, 0, 48, 0
11, 176647, Note_on_c, 0, 74, 94
11, 176656, Note_on_c, 0, 62, 93
11, 176668, Note_on_c, 0, 71, 93
11, 176670, Note_on_c, 0, 50, 112
11, 176925, Note_on_c, 0, 55, 90
11, 177159, Note_on_c, 0, 59, 92
11, 177248, Note_on_c, 0, 55, 0
11, 177267, Note_on_c, 0, 50, 0
11, 177339, Note_on_c, 0, 59, 0
11, 177381, Note_on_c, 0, 50, 103
11, 177428, Note_on_c, 0, 71, 0
11, 177428, Note_on_c, 0, 74, 0
11, 177431, Note_on_c, 0, 62, 0
11, 177489, Note_on_c, 0, 62, 103
11, 177491, Note_on_c, 0, 71, 99
11, 177494, Note_on_c, 0, 74, 92
11, 177529, Note_on_c, 0, 55, 99
11, 177559, Note_on_c, 0, 50, 0
11, 177613, Note_on_c, 0, 62, 0
11, 177613, Note_on_c, 0, 71, 0
11, 177620, Note_on_c, 0, 74, 0
11, 177679, Note_on_c, 0, 71, 92
11, 177683, Note_on_c, 0, 55, 0
11, 177683, Note_on_c, 0, 62, 84
11, 177693, Note_on_c, 0, 74, 89
11, 177718, Note_on_c, 0, 50, 95
11, 177917, Note_on_c, 0, 62, 0
11, 177917, Note_on_c, 0, 74, 0
11, 177938, Note_on_c, 0, 50, 0
11, 177948, Note_on_c, 0, 71, 0
11, 178034, Note_on_c, 0, 71, 98
11, 178037, Note_on_c, 0, 62, 104
11, 178039, Note_on_c, 0, 74, 95
11, 178046, Note_on_c, 0, 69, 95
11, 178046, Note_on_c, 0, 55, 110
11, 178196, Note_on_c, 0, 74, 0
11, 178196, Note_on_c, 0, 55, 0
11, 178214, Note_on_c, 0, 62, 0
11, 178219, Note_on_c, 0, 71, 0
11, 178226, Note_on_c, 0, 69, 0
11, 178296, Note_on_c, 0, 50, 99
11, 178306, Note_on_c, 0, 67, 95
11, 178315, Note_on_c, 0, 62, 97
11, 178465, Note_on_c, 0, 67, 0
11, 178465, Note_on_c, 0, 62, 0
11, 178486, Note_on_c, 0, 50, 0
11, 178565, Note_on_c, 0, 74, 98
11, 178565, Note_on_c, 0, 50, 103
11, 178570, Note_on_c, 0, 62, 96
11, 178577, Note_on_c, 0, 69, 98
11, 178842, Note_on_c, 0, 50, 0
11, 178879, Note_on_c, 0, 57, 65
11, 178921, Note_on_c, 0, 57, 0
11, 179069, Note_on_c, 0, 57, 101
11, 179069, Note_on_c, 0, 50, 101
11, 179263, Note_on_c, 0, 54, 78
11, 179361, Note_on_c, 0, 69, 0
11, 179377, Note_on_c, 0, 57, 0
11, 179377, Note_on_c, 0, 62, 0
11, 179380, Note_on_c, 0, 50, 0
11, 179394, Note_on_c, 0, 74, 0
11, 179410, Note_on_c, 0, 62, 84
11, 179415, Note_on_c, 0, 69, 95
11, 179424, Note_on_c, 0, 54, 0
11, 179424, Note_on_c, 0, 74, 82
11, 179429, Note_on_c, 0, 57, 83
11, 179452, Note_on_c, 0, 50, 93
11, 179548, Note_on_c, 0, 74, 0
11, 179581, Note_on_c, 0, 62, 0
11, 179595, Note_on_c, 0, 69, 0
11, 179597, Note_on_c, 0, 50, 0
11, 179600, Note_on_c, 0, 57, 0
11, 179654, Note_on_c, 0, 54, 101
11, 179656, Note_on_c, 0, 66, 102
11, 179658, Note_on_c, 0, 69, 102
11, 179658, Note_on_c, 0, 62, 99
11, 179661, Note_on_c, 0, 74, 98
11, 179691, Note_on_c, 0, 57, 84
11, 179768, Note_on_c, 0, 57, 0
11, 179836, Note_on_c, 0, 54, 0
11, 179892, Note_on_c, 0, 66, 0
11, 179892, Note_on_c, 0, 62, 0
11, 179920, Note_on_c, 0, 69, 0
11, 179953, Note_on_c, 0, 50, 99
11, 180000, Note_on_c, 0, 64, 103
11, 180005, Note_on_c, 0, 69, 94
11, 180019, Note_on_c, 0, 57, 66
11, 180119, Note_on_c, 0, 57, 0
11, 180201, Note_on_c, 0, 69, 0
11, 180227, Note_on_c, 0, 54, 101
11, 180239, Note_on_c, 0, 66, 112
11, 180243, Note_on_c, 0, 69, 89
11, 180276, Note_on_c, 0, 74, 0
11, 180281, Note_on_c, 0, 50, 0
11, 180299, Note_on_c, 0, 64, 0
11, 180309, Note_on_c, 0, 69, 0
11, 180440, Note_on_c, 0, 54, 0
11, 180442, Note_on_c, 0, 66, 0
11, 180480, Control_c, 0, 7, 120
11, 180489, Note_on_c, 0, 62, 98
11, 180489, Note_on_c, 0, 50, 100
11, 180494, Note_on_c, 0, 66, 84
11, 180498, Note_on_c, 0, 74, 93
11, 180498, Note_on_c, 0, 71, 93
11, 180503, Note_on_c, 0, 72, 97
11, 180510, Note_on_c, 0, 57, 106
11, 180522, Note_on_c, 0, 72, 0
11, 180550, Note_on_c, 0, 66, 0
11, 180721, Note_on_c, 0, 54, 75
11, 180756, Note_on_c, 0, 57, 0
11, 180781, Note_on_c, 0, 50, 0
11, 180882, Note_on_c, 0, 54, 0
11, 180922, Note_on_c, 0, 62, 0
11, 180924, Note_on_c, 0, 71, 0
11, 180945, Note_on_c, 0, 74, 0
11, 180955, Note_on_c, 0, 57, 90
11, 180962, Note_on_c, 0, 50, 95
11, 180973, Note_on_c, 0, 74, 81
11, 180976, Note_on_c, 0, 62, 91
11, 181001, Note_on_c, 0, 71, 84
11, 181111, Note_on_c, 0, 71, 0
11, 181212, Note_on_c, 0, 57, 0
11, 181240, Note_on_c, 0, 54, 95
11, 181308, Note_on_c, 0, 50, 0
11, 181348, Note_on_c, 0, 74, 0
11, 181362, Note_on_c, 0, 62, 0
11, 181432, Note_on_c, 0, 54, 0
11, 181472, Note_on_c, 0, 74, 96
11, 181472, Note_on_c, 0, 69, 97
11, 181476, Note_on_c, 0, 50, 96
11, 181476, Note_on_c, 0, 62, 94
11, 181481, Note_on_c, 0, 57, 97
11, 181507, Note_on_c, 0, 62, 0
11, 181720, Note_on_c, 0, 54, 84
11, 181764, Note_on_c, 0, 50, 0
11, 181774, Note_on_c, 0, 57, 0
11, 181785, Note_on_c, 0, 74, 0
11, 181853, Note_on_c, 0, 69, 0
11, 181919, Note_on_c, 0, 54, 0
11, 181937, Note_on_c, 0, 74, 90
11, 181940, Note_on_c, 0, 66, 92
11, 181944, Note_on_c, 0, 62, 92
11, 181947, Note_on_c, 0, 50, 97
11, 181956, Note_on_c, 0, 57, 95
11, 182206, Note_on_c, 0, 57, 0
11, 182213, Note_on_c, 0, 54, 94
11, 182218, Note_on_c, 0, 66, 0
11, 182218, Note_on_c, 0, 62, 0
11, 182249, Note_on_c, 0, 50, 0
11, 182258, Note_on_c, 0, 74, 0
11, 182403, Note_on_c, 0, 54, 0
11, 182443, Note_on_c, 0, 74, 93
11, 182454, Note_on_c, 0, 48, 96
11, 182457, Note_on_c, 0, 64, 91
11, 182457, Note_on_c, 0, 67, 93
11, 182457, Note_on_c, 0, 55, 98
11, 182677, Note_on_c, 0, 55, 0
11, 182754, Note_on_c, 0, 55, 88
11, 182766, Note_on_c, 0, 67, 0
11, 182766, Note_on_c, 0, 64, 0
11, 182791, Note_on_c, 0, 48, 0
11, 182808, Note_on_c, 0, 55, 0
11, 182876, Note_on_c, 0, 64, 91
11, 182876, Note_on_c, 0, 67, 95
11, 182892, Note_on_c, 0, 48, 101
11, 182894, Note_on_c, 0, 72, 84
11, 182911, Note_on_c, 0, 55, 83
11, 182993, Note_on_c, 0, 55, 0
11, 183084, Note_on_c, 0, 48, 0
11, 183138, Note_on_c, 0, 72, 0
11, 183145, Note_on_c, 0, 55, 94
11, 183164, Note_on_c, 0, 67, 0
11, 183245, Note_on_c, 0, 64, 0
11, 183309, Note_on_c, 0, 55, 0
11, 183402, Note_on_c, 0, 64, 93
11, 183402, Note_on_c, 0, 67, 93
11, 183405, Note_on_c, 0, 72, 97
11, 183409, Note_on_c, 0, 48, 95
11, 183547, Note_on_c, 0, 67, 0
11, 183634, Note_on_c, 0, 55, 94
11, 183718, Note_on_c, 0, 64, 0
11, 183723, Note_on_c, 0, 48, 0
11, 183732, Note_on_c, 0, 72, 0
11, 183758, Note_on_c, 0, 74, 0
11, 183788, Note_on_c, 0, 55, 0
11, 183856, Note_on_c, 0, 48, 98
11, 183856, Note_on_c, 0, 67, 94
11, 183856, Note_on_c, 0, 74, 97
11, 183861, Note_on_c, 0, 64, 93
11, 183861, Note_on_c, 0, 72, 92
11, 184034, Note_on_c, 0, 64, 0
11, 184034, Note_on_c, 0, 72, 0
11, 184088, Note_on_c, 0, 67, 0
11, 184104, Note_on_c, 0, 74, 0
11, 184128, Note_on_c, 0, 55, 97
11, 184191, Note_on_c, 0, 48, 0
11, 184284, Note_on_c, 0, 55, 0
11, 184343, Note_on_c, 0, 74, 95
11, 184350, Note_on_c, 0, 71, 93
11, 184352, Note_on_c, 0, 50, 110
11, 184355, Note_on_c, 0, 62, 99
11, 184366, Note_on_c, 0, 67, 93
11, 184558, Note_on_c, 0, 67, 0
11, 184603, Note_on_c, 0, 55, 94
11, 184680, Note_on_c, 0, 62, 0
11, 184689, Note_on_c, 0, 74, 0
11, 184703, Note_on_c, 0, 50, 0
11, 184720, Note_on_c, 0, 71, 0
11, 184750, Note_on_c, 0, 55, 0
11, 184811, Note_on_c, 0, 62, 94
11, 184811, Note_on_c, 0, 74, 89
11, 184818, Note_on_c, 0, 71, 94
11, 184827, Note_on_c, 0, 59, 99
11, 184855, Note_on_c, 0, 50, 90
11, 184890, Note_on_c, 0, 50, 0
11, 184986, Note_on_c, 0, 59, 0
11, 185075, Note_on_c, 0, 50, 95
11, 185162, Note_on_c, 0, 71, 0
11, 185169, Note_on_c, 0, 74, 0
11, 185169, Note_on_c, 0, 62, 0
11, 185255, Note_on_c, 0, 62, 93
11, 185258, Note_on_c, 0, 55, 95
11, 185265, Note_on_c, 0, 50, 0
11, 185265, Note_on_c, 0, 71, 95
11, 185270, Note_on_c, 0, 74, 90
11, 185468, Note_on_c, 0, 55, 0
11, 185569, Note_on_c, 0, 50, 85
11, 185686, Note_on_c, 0, 62, 0
11, 185691, Note_on_c, 0, 74, 0
11, 185705, Note_on_c, 0, 71, 0
11, 185789, Note_on_c, 0, 50, 0
11, 185789, Note_on_c, 0, 62, 93
11, 185789, Note_on_c, 0, 71, 95
11, 185789, Note_on_c, 0, 55, 98
11, 185794, Note_on_c, 0, 74, 94
11, 185922, Note_on_c, 0, 55, 0
11, 185960, Note_on_c, 0, 62, 0
11, 186014, Note_on_c, 0, 71, 0
11, 186023, Note_on_c, 0, 50, 97
11, 186044, Note_on_c, 0, 74, 0
11, 186168, Note_on_c, 0, 50, 0
11, 186259, Note_on_c, 0, 50, 98
11, 186259, Note_on_c, 0, 69, 93
11, 186264, Note_on_c, 0, 74, 103
11, 186264, Note_on_c, 0, 81, 97
11, 186276, Note_on_c, 0, 78, 85
11, 186355, Note_on_c, 0, 78, 0
11, 186395, Note_on_c, 0, 69, 0
11, 186416, Note_on_c, 0, 74, 0
11, 186430, Note_on_c, 0, 81, 0
11, 186479, Note_on_c, 0, 57, 93
11, 186498, Note_on_c, 0, 69, 91
11, 186500, Note_on_c, 0, 78, 93
11, 186505, Note_on_c, 0, 74, 95
11, 186512, Note_on_c, 0, 81, 86
11, 186549, Note_on_c, 0, 50, 0
11, 186617, Note_on_c, 0, 57, 0
11, 186622, Note_on_c, 0, 74, 0
11, 186622, Note_on_c, 0, 81, 0
11, 186634, Note_on_c, 0, 69, 0
11, 186650, Note_on_c, 0, 78, 0
11, 186727, Note_on_c, 0, 50, 92
11, 186741, Note_on_c, 0, 78, 94
11, 186744, Note_on_c, 0, 69, 92
11, 186744, Note_on_c, 0, 74, 99
11, 186748, Note_on_c, 0, 81, 92
11, 186847, Note_on_c, 0, 74, 0
11, 186858, Note_on_c, 0, 81, 0
11, 186863, Note_on_c, 0, 69, 0
11, 186889, Note_on_c, 0, 78, 0
11, 186968, Note_on_c, 0, 57, 96
11, 186978, Note_on_c, 0, 69, 91
11, 186980, Note_on_c, 0, 78, 93
11, 186980, Note_on_c, 0, 74, 93
11, 186987, Note_on_c, 0, 81, 90
11, 187046, Note_on_c, 0, 50, 0
11, 187085, Note_on_c, 0, 74, 0
11, 187090, Note_on_c, 0, 81, 0
11, 187090, Note_on_c, 0, 69, 0
11, 187097, Note_on_c, 0, 57, 0
11, 187116, Note_on_c, 0, 78, 0
11, 187207, Note_on_c, 0, 50, 94
11, 187209, Note_on_c, 0, 78, 94
11, 187214, Note_on_c, 0, 74, 100
11, 187214, Note_on_c, 0, 69, 96
11, 187214, Note_on_c, 0, 81, 92
11, 187319, Note_on_c, 0, 74, 0
11, 187329, Note_on_c, 0, 69, 0
11, 187343, Note_on_c, 0, 81, 0
11, 187359, Note_on_c, 0, 78, 0
11, 187434, Note_on_c, 0, 57, 95
11, 187448, Note_on_c, 0, 78, 90
11, 187448, Note_on_c, 0, 74, 93
11, 187453, Note_on_c, 0, 69, 91
11, 187457, Note_on_c, 0, 81, 90
11, 187537, Note_on_c, 0, 50, 0
11, 187572, Note_on_c, 0, 74, 0
11, 187579, Note_on_c, 0, 69, 0
11, 187581, Note_on_c, 0, 81, 0
11, 187593, Note_on_c, 0, 57, 0
11, 187605, Note_on_c, 0, 78, 0
11, 187682, Note_on_c, 0, 50, 94
11, 187687, Note_on_c, 0, 78, 90
11, 187687, Note_on_c, 0, 69, 93
11, 187687, Note_on_c, 0, 74, 96
11, 187694, Note_on_c, 0, 81, 90
11, 187799, Note_on_c, 0, 74, 0
11, 187806, Note_on_c, 0, 69, 0
11, 187808, Note_on_c, 0, 81, 0
11, 187834, Note_on_c, 0, 78, 0
11, 187925, Note_on_c, 0, 57, 91
11, 187937, Note_on_c, 0, 69, 91
11, 187937, Note_on_c, 0, 78, 90
11, 187944, Note_on_c, 0, 81, 91
11, 187946, Note_on_c, 0, 74, 91
11, 188042, Note_on_c, 0, 50, 0
11, 188045, Note_on_c, 0, 81, 0
11, 188063, Note_on_c, 0, 74, 0
11, 188068, Note_on_c, 0, 69, 0
11, 188073, Note_on_c, 0, 57, 0
11, 188106, Note_on_c, 0, 78, 0
11, 188160, Control_c, 0, 7, 119
11, 188183, Note_on_c, 0, 50, 97
11, 188199, Note_on_c, 0, 69, 90
11, 188202, Note_on_c, 0, 81, 99
11, 188206, Note_on_c, 0, 74, 98
11, 188312, Note_on_c, 0, 69, 0
11, 188312, Note_on_c, 0, 74, 0
11, 188340, Note_on_c, 0, 81, 0
11, 188412, Note_on_c, 0, 57, 89
11, 188431, Note_on_c, 0, 69, 89
11, 188438, Note_on_c, 0, 81, 92
11, 188438, Note_on_c, 0, 74, 93
11, 188508, Note_on_c, 0, 50, 0
11, 188546, Note_on_c, 0, 74, 0
11, 188553, Note_on_c, 0, 81, 0
11, 188564, Note_on_c, 0, 69, 0
11, 188585, Note_on_c, 0, 57, 0
11, 188651, Note_on_c, 0, 50, 95
11, 188663, Note_on_c, 0, 69, 92
11, 188665, Note_on_c, 0, 74, 97
11, 188665, Note_on_c, 0, 81, 99
11, 188777, Note_on_c, 0, 74, 0
11, 188796, Note_on_c, 0, 69, 0
11, 188803, Note_on_c, 0, 81, 0
11, 188868, Note_on_c, 0, 57, 95
11, 188885, Note_on_c, 0, 69, 93
11, 188892, Note_on_c, 0, 74, 102
11, 188894, Note_on_c, 0, 81, 96
11, 188946, Note_on_c, 0, 50, 0
11, 189002, Note_on_c, 0, 57, 0
11, 189009, Note_on_c, 0, 74, 0
11, 189016, Note_on_c, 0, 69, 0
11, 189016, Note_on_c, 0, 81, 0
11, 189105, Note_on_c, 0, 50, 93
11, 189133, Note_on_c, 0, 69, 94
11, 189133, Note_on_c, 0, 74, 100
11, 189135, Note_on_c, 0, 81, 95
11, 189252, Note_on_c, 0, 74, 0
11, 189266, Note_on_c, 0, 69, 0
11, 189276, Note_on_c, 0, 81, 0
11, 189353, Note_on_c, 0, 57, 97
11, 189362, Note_on_c, 0, 69, 95
11, 189369, Note_on_c, 0, 74, 102
11, 189374, Note_on_c, 0, 81, 98
11, 189489, Note_on_c, 0, 69, 0
11, 189489, Note_on_c, 0, 74, 0
11, 189498, Note_on_c, 0, 81, 0
11, 189535, Note_on_c, 0, 57, 0
11, 189596, Note_on_c, 0, 54, 94
11, 189601, Note_on_c, 0, 74, 99
11, 189601, Note_on_c, 0, 69, 94
11, 189606, Note_on_c, 0, 81, 95
11, 189701, Note_on_c, 0, 50, 0
11, 189730, Note_on_c, 0, 81, 0
11, 189730, Note_on_c, 0, 69, 0
11, 189744, Note_on_c, 0, 74, 0
11, 189779, Note_on_c, 0, 54, 0
11, 189837, Note_on_c, 0, 57, 92
11, 189844, Note_on_c, 0, 74, 93
11, 189844, Note_on_c, 0, 69, 93
11, 189847, Note_on_c, 0, 50, 97
11, 189849, Note_on_c, 0, 81, 94
11, 189945, Note_on_c, 0, 69, 0
11, 189950, Note_on_c, 0, 74, 0
11, 189978, Note_on_c, 0, 57, 0
11, 189985, Note_on_c, 0, 81, 0
11, 189996, Note_on_c, 0, 50, 0
11, 190102, Note_on_c, 0, 72, 97
11, 190102, Note_on_c, 0, 79, 95
11, 190102, Note_on_c, 0, 81, 92
11, 190104, Note_on_c, 0, 48, 102
11, 190228, Note_on_c, 0, 72, 0
11, 190240, Note_on_c, 0, 79, 0
11, 190258, Note_on_c, 0, 81, 0
11, 190326, Note_on_c, 0, 55, 91
11, 190333, Note_on_c, 0, 81, 91
11, 190343, Note_on_c, 0, 72, 89
11, 190343, Note_on_c, 0, 79, 93
11, 190389, Note_on_c, 0, 48, 0
11, 190455, Note_on_c, 0, 79, 0
11, 190455, Note_on_c, 0, 55, 0
11, 190462, Note_on_c, 0, 72, 0
11, 190469, Note_on_c, 0, 81, 0
11, 190567, Note_on_c, 0, 48, 99
11, 190567, Note_on_c, 0, 72, 94
11, 190567, Note_on_c, 0, 81, 98
11, 190567, Note_on_c, 0, 79, 97
11, 190710, Note_on_c, 0, 72, 0
11, 190712, Note_on_c, 0, 79, 0
11, 190722, Note_on_c, 0, 81, 0
11, 190785, Note_on_c, 0, 48, 0
11, 190799, Note_on_c, 0, 55, 95
11, 190811, Note_on_c, 0, 72, 96
11, 190811, Note_on_c, 0, 81, 99
11, 190815, Note_on_c, 0, 79, 98
11, 190939, Note_on_c, 0, 55, 0
11, 190946, Note_on_c, 0, 72, 0
11, 190949, Note_on_c, 0, 79, 0
11, 190956, Note_on_c, 0, 81, 0
11, 191035, Note_on_c, 0, 48, 95
11, 191049, Note_on_c, 0, 72, 92
11, 191054, Note_on_c, 0, 79, 101
11, 191056, Note_on_c, 0, 81, 102
11, 191178, Note_on_c, 0, 72, 0
11, 191180, Note_on_c, 0, 79, 0
11, 191190, Note_on_c, 0, 81, 0
11, 191274, Note_on_c, 0, 55, 97
11, 191290, Note_on_c, 0, 72, 98
11, 191293, Note_on_c, 0, 81, 106
11, 191295, Note_on_c, 0, 79, 104
11, 191342, Note_on_c, 0, 48, 0
11, 191407, Note_on_c, 0, 79, 0
11, 191407, Note_on_c, 0, 72, 0
11, 191421, Note_on_c, 0, 81, 0
11, 191431, Note_on_c, 0, 55, 0
11, 191515, Note_on_c, 0, 48, 97
11, 191522, Note_on_c, 0, 72, 94
11, 191524, Note_on_c, 0, 81, 102
11, 191531, Note_on_c, 0, 79, 98
11, 191646, Note_on_c, 0, 72, 0
11, 191660, Note_on_c, 0, 79, 0
11, 191667, Note_on_c, 0, 81, 0
11, 191700, Note_on_c, 0, 48, 0
11, 191749, Note_on_c, 0, 55, 97
11, 191761, Note_on_c, 0, 81, 94
11, 191765, Note_on_c, 0, 72, 104
11, 191768, Note_on_c, 0, 79, 93
11, 191840, Note_on_c, 0, 79, 0
11, 191847, Note_on_c, 0, 72, 0
11, 191850, Note_on_c, 0, 81, 0
11, 191854, Note_on_c, 0, 55, 0
11, 192006, Note_on_c, 0, 43, 100
11, 192006, Note_on_c, 0, 77, 101
11, 192006, Note_on_c, 0, 45, 101
11, 192011, Note_on_c, 0, 72, 97
11, 192013, Note_on_c, 0, 83, 99
11, 192013, Note_on_c, 0, 81, 101
11, 192023, Note_on_c, 0, 80, 84
11, 192086, Note_on_c, 0, 80, 0
11, 192156, Note_on_c, 0, 83, 0
11, 192158, Note_on_c, 0, 77, 0
11, 192163, Note_on_c, 0, 72, 0
11, 192163, Note_on_c, 0, 81, 0
11, 192163, Note_on_c, 0, 45, 0
11, 192229, Note_on_c, 0, 72, 88
11, 192231, Note_on_c, 0, 50, 93
11, 192240, Note_on_c, 0, 77, 88
11, 192245, Note_on_c, 0, 81, 78
11, 192257, Note_on_c, 0, 84, 82
11, 192311, Note_on_c, 0, 77, 0
11, 192320, Note_on_c, 0, 84, 0
11, 192327, Note_on_c, 0, 81, 0
11, 192343, Note_on_c, 0, 72, 0
11, 192343, Note_on_c, 0, 43, 0
11, 192402, Note_on_c, 0, 50, 0
11, 192460, Note_on_c, 0, 72, 88
11, 192460, Note_on_c, 0, 84, 91
11, 192460, Note_on_c, 0, 77, 90
11, 192465, Note_on_c, 0, 81, 92
11, 192493, Note_on_c, 0, 43, 93
11, 192596, Note_on_c, 0, 77, 0
11, 192608, Note_on_c, 0, 72, 0
11, 192622, Note_on_c, 0, 81, 0
11, 192626, Note_on_c, 0, 84, 0
11, 192725, Note_on_c, 0, 72, 93
11, 192725, Note_on_c, 0, 77, 92
11, 192725, Note_on_c, 0, 84, 98
11, 192725, Note_on_c, 0, 81, 98
11, 192743, Note_on_c, 0, 50, 93
11, 192783, Note_on_c, 0, 43, 0
11, 192823, Note_on_c, 0, 50, 0
11, 192856, Note_on_c, 0, 77, 0
11, 192865, Note_on_c, 0, 84, 0
11, 192867, Note_on_c, 0, 81, 0
11, 192867, Note_on_c, 0, 72, 0
11, 192982, Note_on_c, 0, 84, 100
11, 192982, Note_on_c, 0, 72, 98
11, 192982, Note_on_c, 0, 55, 110
11, 192982, Note_on_c, 0, 81, 104
11, 192982, Note_on_c, 0, 77, 102
11, 193123, Note_on_c, 0, 77, 0
11, 193127, Note_on_c, 0, 72, 0
11, 193132, Note_on_c, 0, 84, 0
11, 193139, Note_on_c, 0, 81, 0
11, 193214, Note_on_c, 0, 50, 101
11, 193214, Note_on_c, 0, 72, 91
11, 193218, Note_on_c, 0, 84, 97
11, 193218, Note_on_c, 0, 81, 96
11, 193223, Note_on_c, 0, 77, 90
11, 193258, Note_on_c, 0, 55, 0
11, 193321, Note_on_c, 0, 77, 0
11, 193331, Note_on_c, 0, 81, 0
11, 193333, Note_on_c, 0, 72, 0
11, 193338, Note_on_c, 0, 84, 0
11, 193403, Note_on_c, 0, 84, 99
11, 193403, Note_on_c, 0, 72, 99
11, 193410, Note_on_c, 0, 81, 106
11, 193410, Note_on_c, 0, 77, 106
11, 193593, Note_on_c, 0, 77, 0
11, 193595, Note_on_c, 0, 72, 0
11, 193612, Note_on_c, 0, 81, 0
11, 193616, Note_on_c, 0, 84, 0
11, 193703, Note_on_c, 0, 77, 103
11, 193708, Note_on_c, 0, 55, 103
11, 193708, Note_on_c, 0, 72, 96
11, 193708, Note_on_c, 0, 84, 96
11, 193708, Note_on_c, 0, 81, 103
11, 193726, Note_on_c, 0, 50, 0
11, 193808, Note_on_c, 0, 72, 0
11, 193820, Note_on_c, 0, 77, 0
11, 193829, Note_on_c, 0, 81, 0
11, 193839, Note_on_c, 0, 55, 0
11, 193839, Note_on_c, 0, 84, 0
11, 193942, Note_on_c, 0, 50, 106
11, 193953, Note_on_c, 0, 83, 98
11, 193958, Note_on_c, 0, 86, 95
11, 193960, Note_on_c, 0, 74, 101
11, 193970, Note_on_c, 0, 82, 86
11, 193970, Note_on_c, 0, 79, 93
11, 194005, Note_on_c, 0, 82, 0
11, 194019, Note_on_c, 0, 79, 0
11, 194089, Note_on_c, 0, 74, 0
11, 194101, Note_on_c, 0, 86, 0
11, 194105, Note_on_c, 0, 50, 0
11, 194112, Note_on_c, 0, 83, 0
11, 194204, Note_on_c, 0, 74, 94
11, 194204, Note_on_c, 0, 81, 98
11, 194204, Note_on_c, 0, 78, 94
11, 194215, Note_on_c, 0, 86, 93
11, 194351, Note_on_c, 0, 74, 0
11, 194363, Note_on_c, 0, 78, 0
11, 194391, Note_on_c, 0, 81, 0
11, 194442, Note_on_c, 0, 74, 90
11, 194442, Note_on_c, 0, 81, 84
11, 194452, Note_on_c, 0, 78, 95
11, 194594, Note_on_c, 0, 74, 0
11, 194594, Note_on_c, 0, 78, 0
11, 194604, Note_on_c, 0, 86, 0
11, 194615, Note_on_c, 0, 81, 0
11, 194644, Note_on_c, 0, 57, 101
11, 194660, Note_on_c, 0, 81, 102
11, 194665, Note_on_c, 0, 74, 95
11, 194665, Note_on_c, 0, 78, 101
11, 194674, Note_on_c, 0, 86, 97
11, 194791, Note_on_c, 0, 78, 0
11, 194803, Note_on_c, 0, 74, 0
11, 194805, Note_on_c, 0, 86, 0
11, 194810, Note_on_c, 0, 81, 0
11, 194847, Note_on_c, 0, 57, 0
11, 194854, Note_on_c, 0, 62, 110
11, 194866, Note_on_c, 0, 81, 100
11, 194866, Note_on_c, 0, 74, 99
11, 194866, Note_on_c, 0, 78, 99
11, 194871, Note_on_c, 0, 86, 97
11, 195013, Note_on_c, 0, 86, 0
11, 195016, Note_on_c, 0, 78, 0
11, 195023, Note_on_c, 0, 74, 0
11, 195032, Note_on_c, 0, 81, 0
11, 195053, Note_on_c, 0, 62, 0
11, 195130, Note_on_c, 0, 81, 100
11, 195130, Note_on_c, 0, 74, 101
11, 195135, Note_on_c, 0, 78, 103
11, 195135, Note_on_c, 0, 57, 108
11, 195140, Note_on_c, 0, 86, 92
11, 195149, Note_on_c, 0, 84, 91
11, 195240, Note_on_c, 0, 84, 0
11, 195271, Note_on_c, 0, 86, 0
11, 195271, Note_on_c, 0, 78, 0
11, 195275, Note_on_c, 0, 74, 0
11, 195285, Note_on_c, 0, 81, 0
11, 195364, Note_on_c, 0, 57, 0
11, 195376, Note_on_c, 0, 81, 96
11, 195381, Note_on_c, 0, 74, 94
11, 195381, Note_on_c, 0, 78, 93
11, 195383, Note_on_c, 0, 86, 92
11, 195385, Note_on_c, 0, 62, 99
11, 195509, Note_on_c, 0, 74, 0
11, 195516, Note_on_c, 0, 81, 0
11, 195516, Note_on_c, 0, 86, 0
11, 195523, Note_on_c, 0, 78, 0
11, 195584, Note_on_c, 0, 62, 0
11, 195624, Note_on_c, 0, 78, 98
11, 195624, Note_on_c, 0, 81, 98
11, 195629, Note_on_c, 0, 74, 98
11, 195629, Note_on_c, 0, 86, 94
11, 195633, Note_on_c, 0, 57, 101
11, 195736, Note_on_c, 0, 74, 0
11, 195746, Note_on_c, 0, 78, 0
11, 195753, Note_on_c, 0, 81, 0
11, 195762, Note_on_c, 0, 86, 0
11, 195790, Note_on_c, 0, 57, 0
11, 195840, Control_c, 0, 7, 118
11, 195872, Note_on_c, 0, 57, 106
11, 195872, Note_on_c, 0, 86, 95
11, 195874, Note_on_c, 0, 74, 98
11, 195877, Note_on_c, 0, 81, 98
11, 195888, Note_on_c, 0, 78, 95
11, 196041, Note_on_c, 0, 78, 0
11, 196113, Note_on_c, 0, 78, 88
11, 196120, Note_on_c, 0, 64, 92
11, 196172, Note_on_c, 0, 78, 0
11, 196188, Note_on_c, 0, 86, 0
11, 196188, Note_on_c, 0, 74, 0
11, 196209, Note_on_c, 0, 81, 0
11, 196279, Note_on_c, 0, 64, 0
11, 196279, Note_on_c, 0, 57, 0
11, 196314, Note_on_c, 0, 74, 89
11, 196321, Note_on_c, 0, 81, 96
11, 196335, Note_on_c, 0, 86, 91
11, 196537, Note_on_c, 0, 86, 0
11, 196546, Note_on_c, 0, 74, 0
11, 196553, Note_on_c, 0, 81, 0
11, 196614, Note_on_c, 0, 74, 89
11, 196623, Note_on_c, 0, 81, 92
11, 196677, Note_on_c, 0, 74, 0
11, 196677, Note_on_c, 0, 81, 0
11, 196703, Note_on_c, 0, 43, 85
11, 196703, Note_on_c, 0, 45, 87
11, 196736, Note_on_c, 0, 74, 94
11, 196740, Note_on_c, 0, 81, 99
11, 196747, Note_on_c, 0, 86, 88
11, 196831, Note_on_c, 0, 81, 0
11, 196834, Note_on_c, 0, 74, 0
11, 196845, Note_on_c, 0, 45, 0
11, 196845, Note_on_c, 0, 43, 0
11, 196853, Note_on_c, 0, 86, 0
11, 196930, Note_on_c, 0, 74, 97
11, 196930, Note_on_c, 0, 81, 100
11, 196941, Note_on_c, 0, 86, 99
11, 196955, Note_on_c, 0, 45, 92
11, 197079, Note_on_c, 0, 74, 0
11, 197087, Note_on_c, 0, 81, 0
11, 197087, Note_on_c, 0, 86, 0
11, 197152, Note_on_c, 0, 45, 0
11, 197192, Note_on_c, 0, 81, 102
11, 197192, Note_on_c, 0, 74, 102
11, 197194, Note_on_c, 0, 50, 95
11, 197201, Note_on_c, 0, 86, 99
11, 197260, Note_on_c, 0, 81, 0
11, 197264, Note_on_c, 0, 74, 0
11, 197276, Note_on_c, 0, 86, 0
11, 197311, Note_on_c, 0, 74, 92
11, 197313, Note_on_c, 0, 81, 102
11, 197323, Note_on_c, 0, 50, 0
11, 197325, Note_on_c, 0, 86, 85
11, 197365, Note_on_c, 0, 45, 97
11, 197405, Note_on_c, 0, 74, 0
11, 197407, Note_on_c, 0, 81, 0
11, 197414, Note_on_c, 0, 86, 0
11, 197550, Note_on_c, 0, 50, 101
11, 197552, Note_on_c, 0, 81, 106
11, 197555, Note_on_c, 0, 74, 103
11, 197557, Note_on_c, 0, 86, 101
11, 197569, Note_on_c, 0, 45, 0
11, 197650, Note_on_c, 0, 74, 0
11, 197655, Note_on_c, 0, 81, 0
11, 197669, Note_on_c, 0, 50, 0
11, 197686, Note_on_c, 0, 86, 0
11, 197760, Note_on_c, 0, 43, 88
11, 197791, Note_on_c, 0, 86, 103
11, 197800, Note_on_c, 0, 76, 101
11, 197812, Note_on_c, 0, 79, 100
11, 197859, Note_on_c, 0, 79, 0
11, 197896, Note_on_c, 0, 76, 0
11, 197920, Note_on_c, 0, 86, 0
11, 197971, Note_on_c, 0, 76, 95
11, 197976, Note_on_c, 0, 79, 100
11, 197983, Note_on_c, 0, 86, 93
11, 197999, Note_on_c, 0, 43, 0
11, 198020, Note_on_c, 0, 79, 0
11, 198023, Note_on_c, 0, 86, 0
11, 198032, Note_on_c, 0, 76, 0
11, 198072, Note_on_c, 0, 76, 97
11, 198072, Note_on_c, 0, 79, 98
11, 198076, Note_on_c, 0, 86, 94
11, 198151, Note_on_c, 0, 86, 0
11, 198205, Note_on_c, 0, 43, 92
11, 198224, Note_on_c, 0, 86, 87
11, 198247, Note_on_c, 0, 86, 0
11, 198257, Note_on_c, 0, 79, 0
11, 198266, Note_on_c, 0, 76, 0
11, 198317, Note_on_c, 0, 76, 108
11, 198322, Note_on_c, 0, 79, 104
11, 198327, Note_on_c, 0, 86, 99
11, 198343, Note_on_c, 0, 84, 94
11, 198355, Note_on_c, 0, 48, 90
11, 198359, Note_on_c, 0, 84, 0
11, 198390, Note_on_c, 0, 43, 0
11, 198402, Note_on_c, 0, 79, 0
11, 198413, Note_on_c, 0, 76, 0
11, 198423, Note_on_c, 0, 86, 0
11, 198514, Note_on_c, 0, 48, 0
11, 198547, Note_on_c, 0, 43, 95
11, 198563, Note_on_c, 0, 76, 115
11, 198565, Note_on_c, 0, 86, 108
11, 198565, Note_on_c, 0, 79, 110
11, 198622, Note_on_c, 0, 79, 0
11, 198631, Note_on_c, 0, 76, 0
11, 198636, Note_on_c, 0, 86, 0
11, 198699, Note_on_c, 0, 48, 91
11, 198706, Note_on_c, 0, 76, 115
11, 198710, Note_on_c, 0, 79, 112
11, 198713, Note_on_c, 0, 86, 100
11, 198769, Note_on_c, 0, 43, 0
11, 198771, Note_on_c, 0, 79, 0
11, 198797, Note_on_c, 0, 76, 0
11, 198809, Note_on_c, 0, 86, 0
11, 198842, Note_on_c, 0, 48, 0
11, 198912, Note_on_c, 0, 43, 94
11, 198921, Note_on_c, 0, 76, 110
11, 198928, Note_on_c, 0, 86, 104
11, 198928, Note_on_c, 0, 79, 108
11, 198951, Note_on_c, 0, 84, 97
11, 198963, Note_on_c, 0, 84, 0
11, 199003, Note_on_c, 0, 79, 0
11, 199022, Note_on_c, 0, 76, 0
11, 199038, Note_on_c, 0, 86, 0
11, 199120, Note_on_c, 0, 43, 0
11, 199122, Note_on_c, 0, 48, 88
11, 199174, Note_on_c, 0, 76, 112
11, 199178, Note_on_c, 0, 79, 110
11, 199178, Note_on_c, 0, 86, 102
11, 199232, Note_on_c, 0, 79, 0
11, 199239, Note_on_c, 0, 76, 0
11, 199249, Note_on_c, 0, 48, 0
11, 199293, Note_on_c, 0, 43, 98
11, 199295, Note_on_c, 0, 76, 110
11, 199295, Note_on_c, 0, 79, 106
11, 199368, Note_on_c, 0, 79, 0
11, 199391, Note_on_c, 0, 76, 0
11, 199403, Note_on_c, 0, 86, 0
11, 199501, Note_on_c, 0, 43, 0
11, 199501, Note_on_c, 0, 48, 96
11, 199513, Note_on_c, 0, 76, 103
11, 199515, Note_on_c, 0, 79, 110
11, 199518, Note_on_c, 0, 86, 104
11, 199588, Note_on_c, 0, 76, 0
11, 199588, Note_on_c, 0, 79, 0
11, 199628, Note_on_c, 0, 86, 0
11, 199630, Note_on_c, 0, 48, 0
11, 199705, Note_on_c, 0, 43, 92
11, 199724, Note_on_c, 0, 86, 100
11, 199724, Note_on_c, 0, 74, 104
11, 199728, Note_on_c, 0, 83, 101
11, 199930, Note_on_c, 0, 83, 0
11, 199937, Note_on_c, 0, 74, 0
11, 199960, Note_on_c, 0, 50, 86
11, 199965, Note_on_c, 0, 74, 83
11, 199974, Note_on_c, 0, 43, 0
11, 199981, Note_on_c, 0, 83, 97
11, 200033, Note_on_c, 0, 86, 0
11, 200082, Note_on_c, 0, 50, 0
11, 200084, Note_on_c, 0, 74, 0
11, 200098, Note_on_c, 0, 83, 0
11, 200154, Note_on_c, 0, 74, 89
11, 200157, Note_on_c, 0, 83, 102
11, 200166, Note_on_c, 0, 86, 93
11, 200199, Note_on_c, 0, 43, 93
11, 200295, Note_on_c, 0, 74, 0
11, 200295, Note_on_c, 0, 86, 0
11, 200299, Note_on_c, 0, 83, 0
11, 200395, Note_on_c, 0, 50, 91
11, 200402, Note_on_c, 0, 74, 101
11, 200405, Note_on_c, 0, 83, 103
11, 200407, Note_on_c, 0, 86, 99
11, 200470, Note_on_c, 0, 43, 0
11, 200482, Note_on_c, 0, 83, 0
11, 200482, Note_on_c, 0, 74, 0
11, 200496, Note_on_c, 0, 86, 0
11, 200522, Note_on_c, 0, 50, 0
11, 200554, Note_on_c, 0, 74, 103
11, 200559, Note_on_c, 0, 43, 89
11, 200559, Note_on_c, 0, 86, 97
11, 200559, Note_on_c, 0, 83, 104
11, 200634, Note_on_c, 0, 74, 0
11, 200634, Note_on_c, 0, 83, 0
11, 200646, Note_on_c, 0, 86, 0
11, 200702, Note_on_c, 0, 74, 104
11, 200706, Note_on_c, 0, 83, 103
11, 200714, Note_on_c, 0, 86, 90
11, 200714, Note_on_c, 0, 50, 86
11, 200765, Note_on_c, 0, 86, 0
11, 200781, Note_on_c, 0, 74, 0
11, 200784, Note_on_c, 0, 43, 0
11, 200784, Note_on_c, 0, 83, 0
11, 200861, Note_on_c, 0, 50, 0
11, 200955, Note_on_c, 0, 43, 92
11, 200973, Note_on_c, 0, 74, 106
11, 200976, Note_on_c, 0, 83, 110
11, 200978, Note_on_c, 0, 86, 103
11, 201022, Note_on_c, 0, 86, 0
11, 201041, Note_on_c, 0, 74, 0
11, 201055, Note_on_c, 0, 83, 0
11, 201102, Note_on_c, 0, 83, 100
11, 201104, Note_on_c, 0, 74, 108
11, 201118, Note_on_c, 0, 50, 97
11, 201191, Note_on_c, 0, 74, 0
11, 201210, Note_on_c, 0, 43, 0
11, 201219, Note_on_c, 0, 83, 0
11, 201235, Note_on_c, 0, 50, 0
11, 201322, Note_on_c, 0, 83, 110
11, 201327, Note_on_c, 0, 74, 108
11, 201334, Note_on_c, 0, 86, 103
11, 201334, Note_on_c, 0, 43, 86
11, 201343, Note_on_c, 0, 50, 102
11, 201418, Note_on_c, 0, 74, 0
11, 201423, Note_on_c, 0, 86, 0
11, 201441, Note_on_c, 0, 83, 0
11, 201455, Note_on_c, 0, 43, 0
11, 201476, Note_on_c, 0, 50, 0
11, 201565, Note_on_c, 0, 45, 106
11, 201565, Note_on_c, 0, 86, 101
11, 201568, Note_on_c, 0, 81, 106
11, 201572, Note_on_c, 0, 78, 103
11, 201832, Note_on_c, 0, 50, 97
11, 201912, Note_on_c, 0, 81, 0
11, 201916, Note_on_c, 0, 78, 0
11, 201935, Note_on_c, 0, 86, 0
11, 201972, Note_on_c, 0, 45, 0
11, 202059, Note_on_c, 0, 50, 0
11, 202087, Note_on_c, 0, 78, 98
11, 202089, Note_on_c, 0, 86, 89
11, 202092, Note_on_c, 0, 83, 96
11, 202094, Note_on_c, 0, 81, 101
11, 202106, Note_on_c, 0, 45, 100
11, 202244, Note_on_c, 0, 78, 0
11, 202344, Note_on_c, 0, 45, 0
11, 202359, Note_on_c, 0, 81, 0
11, 202359, Note_on_c, 0, 50, 98
11, 202368, Note_on_c, 0, 86, 0
11, 202373, Note_on_c, 0, 83, 0
11, 202471, Note_on_c, 0, 76, 95
11, 202480, Note_on_c, 0, 83, 98
11, 202485, Note_on_c, 0, 81, 101
11, 202490, Note_on_c, 0, 86, 86
11, 202501, Note_on_c, 0, 50, 0
11, 202515, Note_on_c, 0, 45, 97
11, 202546, Note_on_c, 0, 86, 0
11, 202614, Note_on_c, 0, 76, 0
11, 202623, Note_on_c, 0, 81, 0
11, 202632, Note_on_c, 0, 83, 0
11, 202714, Note_on_c, 0, 45, 0
11, 202717, Note_on_c, 0, 50, 91
11, 202733, Note_on_c, 0, 76, 95
11, 202735, Note_on_c, 0, 83, 99
11, 202738, Note_on_c, 0, 81, 99
11, 202740, Note_on_c, 0, 78, 101
11, 202759, Note_on_c, 0, 86, 87
11, 202810, Note_on_c, 0, 86, 0
11, 202864, Note_on_c, 0, 78, 0
11, 202864, Note_on_c, 0, 76, 0
11, 202871, Note_on_c, 0, 50, 0
11, 202885, Note_on_c, 0, 81, 0
11, 202890, Note_on_c, 0, 83, 0
11, 203021, Note_on_c, 0, 45, 61
11, 203056, Note_on_c, 0, 81, 95
11, 203058, Note_on_c, 0, 78, 98
11, 203061, Note_on_c, 0, 76, 93
11, 203075, Note_on_c, 0, 83, 91
11, 203086, Note_on_c, 0, 86, 85
11, 203182, Note_on_c, 0, 86, 0
11, 203192, Note_on_c, 0, 76, 0
11, 203196, Note_on_c, 0, 83, 0
11, 203217, Note_on_c, 0, 81, 0
11, 203217, Note_on_c, 0, 78, 0
11, 203264, Note_on_c, 0, 45, 0
11, 203313, Note_on_c, 0, 50, 101
11, 203325, Note_on_c, 0, 74, 99
11, 203325, Note_on_c, 0, 78, 103
11, 203332, Note_on_c, 0, 76, 100
11, 203344, Note_on_c, 0, 81, 91
11, 203353, Note_on_c, 0, 83, 81
11, 203355, Note_on_c, 0, 86, 80
11, 203381, Note_on_c, 0, 86, 0
11, 203388, Note_on_c, 0, 83, 0
11, 203388, Note_on_c, 0, 76, 0
11, 203407, Note_on_c, 0, 81, 0
11, 203414, Note_on_c, 0, 74, 0
11, 203433, Note_on_c, 0, 78, 0
11, 203454, Note_on_c, 0, 50, 0
11, 203554, Note_on_c, 0, 43, 95
11, 203566, Note_on_c, 0, 80, 97
11, 203578, Note_on_c, 0, 86, 90
11, 203578, Note_on_c, 0, 74, 94
11, 203578, Note_on_c, 0, 72, 94
11, 203643, Note_on_c, 0, 80, 0
11, 203643, Note_on_c, 0, 72, 0
11, 203643, Note_on_c, 0, 74, 0
11, 203704, Note_on_c, 0, 81, 101
11, 203704, Note_on_c, 0, 74, 93
11, 203751, Note_on_c, 0, 43, 0
11, 203765, Note_on_c, 0, 81, 0
11, 203772, Note_on_c, 0, 74, 0
11, 203772, Note_on_c, 0, 86, 0
11, 203809, Note_on_c, 0, 74, 92
11, 203809, Note_on_c, 0, 86, 78
11, 203814, Note_on_c, 0, 81, 102
11, 203870, Note_on_c, 0, 81, 0
11, 203873, Note_on_c, 0, 74, 0
11, 203887, Note_on_c, 0, 86, 0
11, 203940, Note_on_c, 0, 74, 92
11, 203952, Note_on_c, 0, 81, 98
11, 203961, Note_on_c, 0, 86, 90
11, 203961, Note_on_c, 0, 45, 90
11, 204004, Note_on_c, 0, 74, 0
11, 204004, Note_on_c, 0, 81, 0
11, 204004, Note_on_c, 0, 86, 0
11, 204067, Note_on_c, 0, 74, 97
11, 204067, Note_on_c, 0, 81, 100
11, 204085, Note_on_c, 0, 86, 83
11, 204104, Note_on_c, 0, 50, 76
11, 204135, Note_on_c, 0, 81, 0
11, 204137, Note_on_c, 0, 45, 0
11, 204144, Note_on_c, 0, 86, 0
11, 204184, Note_on_c, 0, 81, 101
11, 204188, Note_on_c, 0, 86, 78
11, 204238, Note_on_c, 0, 50, 0
11, 204238, Note_on_c, 0, 86, 0
11, 204238, Note_on_c, 0, 81, 0
11, 204238, Note_on_c, 0, 74, 0
11, 204280, Note_on_c, 0, 45, 95
11, 204298, Note_on_c, 0, 74, 102
11, 204303, Note_on_c, 0, 81, 101
11, 204319, Note_on_c, 0, 86, 91
11, 204348, Note_on_c, 0, 86, 0
11, 204359, Note_on_c, 0, 81, 0
11, 204371, Note_on_c, 0, 74, 0
11, 204422, Note_on_c, 0, 50, 95
11, 204429, Note_on_c, 0, 74, 97
11, 204432, Note_on_c, 0, 81, 102
11, 204453, Note_on_c, 0, 86, 83
11, 204472, Note_on_c, 0, 45, 0
11, 204479, Note_on_c, 0, 86, 0
11, 204495, Note_on_c, 0, 74, 0
11, 204497, Note_on_c, 0, 81, 0
11, 204544, Note_on_c, 0, 74, 98
11, 204546, Note_on_c, 0, 50, 0
11, 204546, Note_on_c, 0, 81, 102
11, 204596, Note_on_c, 0, 45, 95
11, 204607, Note_on_c, 0, 81, 0
11, 204610, Note_on_c, 0, 74, 0
11, 204656, Note_on_c, 0, 74, 93
11, 204663, Note_on_c, 0, 81, 101
11, 204720, Note_on_c, 0, 74, 0
11, 204724, Note_on_c, 0, 81, 0
11, 204724, Note_on_c, 0, 50, 84
11, 204764, Note_on_c, 0, 45, 0
11, 204776, Note_on_c, 0, 74, 87
11, 204776, Note_on_c, 0, 81, 98
11, 204827, Note_on_c, 0, 74, 0
11, 204830, Note_on_c, 0, 81, 0
11, 204839, Note_on_c, 0, 50, 0
11, 204897, Note_on_c, 0, 74, 99
11, 204902, Note_on_c, 0, 81, 106
11, 204907, Note_on_c, 0, 45, 90
11, 204909, Note_on_c, 0, 43, 92
11, 204968, Note_on_c, 0, 74, 0
11, 204968, Note_on_c, 0, 81, 0
11, 205017, Note_on_c, 0, 50, 95
11, 205031, Note_on_c, 0, 74, 95
11, 205031, Note_on_c, 0, 81, 101
11, 205040, Note_on_c, 0, 43, 0
11, 205050, Note_on_c, 0, 45, 0
11, 205108, Note_on_c, 0, 81, 0
11, 205134, Note_on_c, 0, 74, 0
11, 205138, Note_on_c, 0, 50, 0
11, 205183, Note_on_c, 0, 74, 98
11, 205183, Note_on_c, 0, 79, 108
11, 205185, Note_on_c, 0, 81, 106
11, 205195, Note_on_c, 0, 45, 97
11, 205230, Note_on_c, 0, 81, 0
11, 205244, Note_on_c, 0, 74, 0
11, 205258, Note_on_c, 0, 79, 0
11, 205293, Note_on_c, 0, 50, 94
11, 205316, Note_on_c, 0, 79, 97
11, 205326, Note_on_c, 0, 74, 102
11, 205361, Note_on_c, 0, 45, 0
11, 205379, Note_on_c, 0, 79, 0
11, 205394, Note_on_c, 0, 74, 0
11, 205410, Note_on_c, 0, 50, 0
11, 205440, Control_c, 0, 7, 116
11, 205515, Note_on_c, 0, 45, 101
11, 205541, Note_on_c, 0, 74, 120
11, 205543, Note_on_c, 0, 81, 126
11, 205564, Note_on_c, 0, 83, 97
11, 205590, Note_on_c, 0, 83, 0
11, 205665, Note_on_c, 0, 74, 0
11, 205686, Note_on_c, 0, 45, 0
11, 205691, Note_on_c, 0, 81, 0
11, 205756, Note_on_c, 0, 50, 101
11, 205777, Note_on_c, 0, 79, 90
11, 205796, Note_on_c, 0, 74, 93
11, 205801, Note_on_c, 0, 83, 94
11, 205857, Note_on_c, 0, 83, 0
11, 205866, Note_on_c, 0, 50, 0
11, 205871, Note_on_c, 0, 74, 0
11, 205876, Note_on_c, 0, 79, 0
11, 205934, Note_on_c, 0, 45, 97
11, 205941, Note_on_c, 0, 83, 112
11, 205943, Note_on_c, 0, 74, 102
11, 205957, Note_on_c, 0, 79, 102
11, 206088, Note_on_c, 0, 74, 0
11, 206088, Note_on_c, 0, 50, 84
11, 206100, Note_on_c, 0, 79, 0
11, 206121, Note_on_c, 0, 83, 0
11, 206145, Note_on_c, 0, 45, 0
11, 206187, Note_on_c, 0, 50, 0
11, 206215, Note_on_c, 0, 81, 115
11, 206215, Note_on_c, 0, 74, 100
11, 206231, Note_on_c, 0, 83, 92
11, 206243, Note_on_c, 0, 45, 99
11, 206259, Note_on_c, 0, 83, 0
11, 206332, Note_on_c, 0, 74, 0
11, 206358, Note_on_c, 0, 81, 0
11, 206421, Note_on_c, 0, 45, 0
11, 206470, Note_on_c, 0, 50, 106
11, 206512, Note_on_c, 0, 79, 106
11, 206512, Note_on_c, 0, 76, 112
11, 206615, Note_on_c, 0, 50, 0
11, 206627, Note_on_c, 0, 76, 0
11, 206636, Note_on_c, 0, 79, 0
11, 206734, Note_on_c, 0, 45, 95
11, 206772, Note_on_c, 0, 76, 99
11, 206772, Note_on_c, 0, 79, 108
11, 206868, Note_on_c, 0, 76, 0
11, 206879, Note_on_c, 0, 79, 0
11, 206915, Note_on_c, 0, 50, 74
11, 206926, Note_on_c, 0, 45, 0
11, 206954, Note_on_c, 0, 74, 127
11, 206954, Note_on_c, 0, 79, 110
11, 207078, Note_on_c, 0, 50, 0
11, 207127, Note_on_c, 0, 74, 0
11, 207179, Note_on_c, 0, 79, 0
11, 207226, Note_on_c, 0, 45, 99
11, 207261, Note_on_c, 0, 79, 103
11, 207268, Note_on_c, 0, 74, 108
11, 207383, Note_on_c, 0, 74, 0
11, 207408, Note_on_c, 0, 79, 0
11, 207443, Note_on_c, 0, 45, 0
11, 207497, Note_on_c, 0, 50, 110
11, 207525, Note_on_c, 0, 79, 112
11, 207525, Note_on_c, 0, 72, 97
11, 207525, Note_on_c, 0, 74, 101
11, 207525, Note_on_c, 0, 83, 101
11, 207525, Note_on_c, 0, 79, 112
11, 207558, Note_on_c, 0, 50, 0
11, 207661, Note_on_c, 0, 74, 0
11, 207673, Note_on_c, 0, 72, 0
11, 207752, Note_on_c, 0, 43, 56
11, 207893, Note_on_c, 0, 79, 0
11, 207893, Note_on_c, 0, 79, 0
11, 207900, Note_on_c, 0, 83, 0
11, 207960, Note_on_c, 0, 79, 106
11, 207960, Note_on_c, 0, 83, 104
11, 207960, Note_on_c, 0, 74, 112
11, 207970, Note_on_c, 0, 86, 87
11, 207975, Note_on_c, 0, 50, 95
11, 207977, Note_on_c, 0, 84, 92
11, 207996, Note_on_c, 0, 43, 0
11, 208099, Note_on_c, 0, 84, 0
11, 208113, Note_on_c, 0, 50, 0
11, 208148, Note_on_c, 0, 86, 0
11, 208169, Note_on_c, 0, 74, 0
11, 208169, Note_on_c, 0, 79, 0
11, 208176, Note_on_c, 0, 83, 0
11, 208199, Note_on_c, 0, 43, 91
11, 208262, Note_on_c, 0, 74, 102
11, 208262, Note_on_c, 0, 79, 102
11, 208265, Note_on_c, 0, 83, 99
11, 208274, Note_on_c, 0, 86, 97
11, 208370, Note_on_c, 0, 43, 0
11, 208426, Note_on_c, 0, 86, 0
11, 208517, Note_on_c, 0, 50, 94
11, 208698, Note_on_c, 0, 50, 0
11, 208705, Note_on_c, 0, 74, 0
11, 208733, Note_on_c, 0, 43, 93
11, 208789, Note_on_c, 0, 79, 0
11, 208789, Note_on_c, 0, 83, 0
11, 208934, Note_on_c, 0, 74, 110
11, 208934, Note_on_c, 0, 79, 102
11, 208934, Note_on_c, 0, 83, 112
11, 208934, Note_on_c, 0, 50, 106
11, 208939, Note_on_c, 0, 86, 96
11, 209018, Note_on_c, 0, 43, 0
11, 209072, Note_on_c, 0, 74, 0
11, 209072, Note_on_c, 0, 86, 0
11, 209088, Note_on_c, 0, 79, 0
11, 209088, Note_on_c, 0, 50, 0
11, 209091, Note_on_c, 0, 83, 0
11, 209173, Note_on_c, 0, 43, 94
11, 209180, Note_on_c, 0, 79, 110
11, 209180, Note_on_c, 0, 83, 110
11, 209184, Note_on_c, 0, 74, 102
11, 209184, Note_on_c, 0, 86, 96
11, 209198, Note_on_c, 0, 86, 0
11, 209271, Note_on_c, 0, 74, 0
11, 209271, Note_on_c, 0, 79, 0
11, 209313, Note_on_c, 0, 83, 0
11, 209339, Note_on_c, 0, 43, 0
11, 209411, Note_on_c, 0, 74, 97
11, 209411, Note_on_c, 0, 78, 98
11, 209418, Note_on_c, 0, 81, 97
11, 209437, Note_on_c, 0, 45, 103
11, 209437, Note_on_c, 0, 86, 91
11, 209582, Note_on_c, 0, 86, 0
11, 209662, Note_on_c, 0, 50, 97
11, 209727, Note_on_c, 0, 45, 0
11, 209753, Note_on_c, 0, 74, 0
11, 209774, Note_on_c, 0, 78, 0
11, 209788, Note_on_c, 0, 81, 0
11, 209847, Note_on_c, 0, 50, 0
11, 209868, Note_on_c, 0, 78, 94
11, 209868, Note_on_c, 0, 74, 93
11, 209870, Note_on_c, 0, 81, 101
11, 209879, Note_on_c, 0, 45, 98
11, 209954, Note_on_c, 0, 81, 0
11, 209966, Note_on_c, 0, 78, 0
11, 209968, Note_on_c, 0, 74, 0
11, 210071, Note_on_c, 0, 45, 0
11, 210071, Note_on_c, 0, 50, 101
11, 210092, Note_on_c, 0, 74, 104
11, 210092, Note_on_c, 0, 78, 104
11, 210097, Note_on_c, 0, 81, 92
11, 210099, Note_on_c, 0, 69, 110
11, 210202, Note_on_c, 0, 50, 0
11, 210228, Note_on_c, 0, 81, 0
11, 210235, Note_on_c, 0, 69, 0
11, 210240, Note_on_c, 0, 45, 93
11, 210282, Note_on_c, 0, 69, 60
11, 210338, Note_on_c, 0, 69, 0
11, 210467, Note_on_c, 0, 74, 0
11, 210490, Note_on_c, 0, 45, 0
11, 210495, Note_on_c, 0, 78, 0
11, 210511, Note_on_c, 0, 50, 101
11, 210530, Note_on_c, 0, 69, 101
11, 210539, Note_on_c, 0, 75, 91
11, 210542, Note_on_c, 0, 76, 104
11, 210710, Note_on_c, 0, 50, 0
11, 210717, Note_on_c, 0, 69, 0
11, 210722, Note_on_c, 0, 75, 0
11, 210724, Note_on_c, 0, 76, 0
11, 210820, Note_on_c, 0, 45, 89
11, 210825, Note_on_c, 0, 74, 104
11, 210829, Note_on_c, 0, 69, 110
11, 210900, Note_on_c, 0, 74, 0
11, 210925, Note_on_c, 0, 69, 0
11, 211019, Note_on_c, 0, 45, 0
11, 211077, Note_on_c, 0, 50, 99
11, 211276, Note_on_c, 0, 50, 0
11, 211286, Note_on_c, 0, 74, 82
11, 211286, Note_on_c, 0, 62, 87
11, 211293, Note_on_c, 0, 66, 86
11, 211293, Note_on_c, 0, 45, 93
11, 211297, Note_on_c, 0, 69, 91
11, 211461, Note_on_c, 0, 45, 0
11, 211908, Note_on_c, 0, 45, 93
11, 212163, Note_on_c, 0, 50, 83
11, 212184, Note_on_c, 0, 45, 0
11, 212259, Note_on_c, 0, 50, 0
11, 212334, Note_on_c, 0, 45, 88
11, 212538, Note_on_c, 0, 45, 0
11, 212584, Note_on_c, 0, 50, 99
11, 212626, Note_on_c, 0, 66, 0
11, 212694, Note_on_c, 0, 62, 0
11, 212715, Note_on_c, 0, 74, 0
11, 212727, Note_on_c, 0, 69, 0
11, 212783, Note_on_c, 0, 50, 0
11, 212849, Note_on_c, 0, 45, 94
11, 212867, Note_on_c, 0, 69, 99
11, 212870, Note_on_c, 0, 64, 103
11, 213085, Note_on_c, 0, 69, 0
11, 213104, Note_on_c, 0, 64, 0
11, 213106, Note_on_c, 0, 50, 98
11, 213181, Note_on_c, 0, 45, 0
11, 213251, Note_on_c, 0, 50, 0
11, 213345, Note_on_c, 0, 72, 78
11, 213354, Note_on_c, 0, 67, 82
11, 213373, Note_on_c, 0, 64, 81
11, 213385, Note_on_c, 0, 48, 88
11, 213708, Note_on_c, 0, 48, 0
11, 213881, Note_on_c, 0, 48, 92
11, 213888, Note_on_c, 0, 55, 92
11, 213984, Note_on_c, 0, 55, 0
11, 214000, Note_on_c, 0, 48, 0
11, 214091, Note_on_c, 0, 48, 88
11, 214103, Note_on_c, 0, 55, 87
11, 214173, Note_on_c, 0, 64, 0
11, 214246, Note_on_c, 0, 48, 0
11, 214250, Note_on_c, 0, 55, 0
11, 214269, Note_on_c, 0, 67, 0
11, 214304, Note_on_c, 0, 48, 79
11, 214321, Note_on_c, 0, 55, 90
11, 214337, Note_on_c, 0, 72, 0
11, 214388, Note_on_c, 0, 55, 0
11, 214433, Note_on_c, 0, 48, 0
11, 214517, Note_on_c, 0, 48, 92
11, 214522, Note_on_c, 0, 55, 91
11, 214714, Note_on_c, 0, 48, 0
11, 214714, Note_on_c, 0, 55, 0
11, 214812, Note_on_c, 0, 67, 95
11, 214812, Note_on_c, 0, 64, 101
11, 214817, Note_on_c, 0, 48, 97
11, 214936, Note_on_c, 0, 64, 0
11, 214957, Note_on_c, 0, 67, 0
11, 215048, Note_on_c, 0, 55, 95
11, 215065, Note_on_c, 0, 67, 87
11, 215069, Note_on_c, 0, 62, 94
11, 215112, Note_on_c, 0, 48, 0
11, 215156, Note_on_c, 0, 55, 0
11, 215161, Note_on_c, 0, 62, 0
11, 215175, Note_on_c, 0, 67, 0
11, 215275, Note_on_c, 0, 43, 103
11, 215310, Note_on_c, 0, 67, 87
11, 215324, Note_on_c, 0, 59, 90
11, 215769, Note_on_c, 0, 50, 96
11, 215893, Note_on_c, 0, 43, 0
11, 215933, Note_on_c, 0, 50, 0
11, 216012, Note_on_c, 0, 43, 86
11, 216064, Note_on_c, 0, 59, 0
11, 216146, Note_on_c, 0, 67, 0
11, 216162, Note_on_c, 0, 50, 95
11, 216275, Note_on_c, 0, 43, 0
11, 216305, Note_on_c, 0, 50, 0
11, 216382, Note_on_c, 0, 64, 108
11, 216382, Note_on_c, 0, 43, 96
11, 216623, Note_on_c, 0, 50, 99
11, 216635, Note_on_c, 0, 62, 110
11, 216691, Note_on_c, 0, 43, 0
11, 216733, Note_on_c, 0, 59, 103
11, 216745, Note_on_c, 0, 64, 0
11, 216757, Note_on_c, 0, 50, 0
11, 216766, Note_on_c, 0, 62, 0
11, 216796, Note_on_c, 0, 43, 95
11, 216986, Note_on_c, 0, 62, 101
11, 216995, Note_on_c, 0, 50, 101
11, 217026, Note_on_c, 0, 59, 0
11, 217051, Note_on_c, 0, 43, 0
11, 217082, Note_on_c, 0, 62, 0
11, 217089, Note_on_c, 0, 50, 0
11, 217229, Note_on_c, 0, 45, 103
11, 217234, Note_on_c, 0, 62, 110
11, 217236, Note_on_c, 0, 50, 112
11, 217257, Note_on_c, 0, 57, 101
11, 217503, Note_on_c, 0, 50, 0
11, 217557, Note_on_c, 0, 45, 0
11, 217700, Note_on_c, 0, 50, 96
11, 217702, Note_on_c, 0, 45, 93
11, 217800, Note_on_c, 0, 50, 0
11, 217927, Note_on_c, 0, 54, 83
11, 217969, Note_on_c, 0, 45, 0
11, 217987, Note_on_c, 0, 57, 0
11, 218090, Note_on_c, 0, 45, 101
11, 218111, Note_on_c, 0, 54, 0
11, 218242, Note_on_c, 0, 62, 0
11, 218322, Note_on_c, 0, 50, 106
11, 218327, Note_on_c, 0, 45, 0
11, 218334, Note_on_c, 0, 57, 93
11, 218336, Note_on_c, 0, 64, 100
11, 218591, Note_on_c, 0, 57, 0
11, 218631, Note_on_c, 0, 64, 0
11, 218636, Note_on_c, 0, 50, 0
11, 218636, Note_on_c, 0, 45, 99
11, 218636, Note_on_c, 0, 62, 97
11, 218664, Note_on_c, 0, 57, 91
11, 218736, Note_on_c, 0, 57, 0
11, 218844, Note_on_c, 0, 62, 0
11, 218874, Note_on_c, 0, 45, 0
11, 218879, Note_on_c, 0, 50, 106
11, 218880, Control_c, 0, 7, 94
11, 218895, Note_on_c, 0, 57, 99
11, 219146, Note_on_c, 0, 66, 91
11, 219153, Note_on_c, 0, 69, 89
11, 219153, Note_on_c, 0, 62, 95
11, 219153, Note_on_c, 0, 45, 99
11, 219174, Note_on_c, 0, 50, 0
11, 219471, Note_on_c, 0, 45, 0
11, 219618, Note_on_c, 0, 45, 103
11, 219857, Note_on_c, 0, 50, 99
11, 219930, Note_on_c, 0, 45, 0
11, 220040, Note_on_c, 0, 69, 0
11, 220042, Note_on_c, 0, 62, 0
11, 220047, Note_on_c, 0, 66, 0
11, 220051, Note_on_c, 0, 45, 92
11, 220058, Note_on_c, 0, 57, 0
11, 220068, Note_on_c, 0, 50, 0
11, 220093, Note_on_c, 0, 57, 64
11, 220093, Note_on_c, 0, 69, 90
11, 220337, Note_on_c, 0, 50, 95
11, 220362, Note_on_c, 0, 69, 0
11, 220367, Note_on_c, 0, 57, 0
11, 220386, Note_on_c, 0, 45, 0
11, 220423, Note_on_c, 0, 57, 93
11, 220428, Note_on_c, 0, 69, 94
11, 220545, Note_on_c, 0, 45, 93
11, 220547, Note_on_c, 0, 50, 0
11, 220695, Note_on_c, 0, 69, 0
11, 220697, Note_on_c, 0, 57, 0
11, 220744, Note_on_c, 0, 45, 0
11, 220795, Note_on_c, 0, 50, 101
11, 220814, Note_on_c, 0, 69, 96
11, 220819, Note_on_c, 0, 57, 92
11, 220959, Note_on_c, 0, 50, 0
11, 220997, Note_on_c, 0, 57, 0
11, 221011, Note_on_c, 0, 69, 0
11, 221074, Note_on_c, 0, 43, 106
11, 221086, Note_on_c, 0, 69, 88
11, 221401, Note_on_c, 0, 67, 91
11, 221404, Note_on_c, 0, 50, 93
11, 221544, Note_on_c, 0, 43, 0
11, 221600, Note_on_c, 0, 50, 0
11, 221647, Note_on_c, 0, 67, 0
11, 221654, Note_on_c, 0, 69, 0
11, 221743, Note_on_c, 0, 43, 92
11, 221757, Note_on_c, 0, 67, 106
11, 221986, Note_on_c, 0, 50, 93
11, 222047, Note_on_c, 0, 43, 0
11, 222136, Note_on_c, 0, 50, 0
11, 222253, Note_on_c, 0, 43, 92
11, 222373, Note_on_c, 0, 67, 0
11, 222471, Note_on_c, 0, 67, 95
11, 222485, Note_on_c, 0, 50, 95
11, 222581, Note_on_c, 0, 43, 0
11, 222618, Note_on_c, 0, 50, 0
11, 222630, Note_on_c, 0, 67, 0
11, 222717, Note_on_c, 0, 43, 101
11, 222721, Note_on_c, 0, 67, 110
11, 222749, Note_on_c, 0, 50, 110
11, 222864, Note_on_c, 0, 67, 0
11, 222871, Note_on_c, 0, 50, 0
11, 222871, Note_on_c, 0, 43, 0
11, 222974, Note_on_c, 0, 45, 106
11, 223007, Note_on_c, 0, 46, 103
11, 223021, Note_on_c, 0, 46, 0
11, 223461, Note_on_c, 0, 50, 87
11, 223550, Note_on_c, 0, 50, 0
11, 223657, Note_on_c, 0, 50, 95
11, 223695, Note_on_c, 0, 45, 0
11, 223699, Note_on_c, 0, 62, 101
11, 223702, Note_on_c, 0, 69, 88
11, 223704, Note_on_c, 0, 57, 94
11, 223706, Note_on_c, 0, 71, 90
11, 223706, Note_on_c, 0, 59, 89
11, 223732, Note_on_c, 0, 59, 0
11, 223821, Note_on_c, 0, 71, 0
11, 223830, Note_on_c, 0, 50, 0
11, 223870, Note_on_c, 0, 45, 93
11, 224167, Note_on_c, 0, 50, 103
11, 224221, Note_on_c, 0, 62, 0
11, 224221, Note_on_c, 0, 69, 0
11, 224226, Note_on_c, 0, 57, 0
11, 224266, Note_on_c, 0, 45, 0
11, 224301, Note_on_c, 0, 50, 0
11, 224390, Note_on_c, 0, 69, 92
11, 224392, Note_on_c, 0, 62, 97
11, 224397, Note_on_c, 0, 57, 101
11, 224401, Note_on_c, 0, 45, 96
11, 224556, Note_on_c, 0, 57, 0
11, 224567, Note_on_c, 0, 69, 0
11, 224640, Note_on_c, 0, 62, 0
11, 224649, Note_on_c, 0, 50, 97
11, 224701, Note_on_c, 0, 45, 0
11, 224762, Note_on_c, 0, 50, 0
11, 224872, Note_on_c, 0, 45, 103
11, 224876, Note_on_c, 0, 69, 94
11, 224876, Note_on_c, 0, 62, 100
11, 224881, Note_on_c, 0, 57, 106
11, 224888, Note_on_c, 0, 66, 95
11, 225218, Note_on_c, 0, 50, 99
11, 225401, Note_on_c, 0, 54, 89
11, 225452, Note_on_c, 0, 57, 0
11, 225480, Note_on_c, 0, 50, 0
11, 225494, Note_on_c, 0, 62, 0
11, 225602, Note_on_c, 0, 57, 96
11, 225602, Note_on_c, 0, 62, 102
11, 225684, Note_on_c, 0, 45, 0
11, 225698, Note_on_c, 0, 54, 0
11, 225833, Note_on_c, 0, 45, 101
11, 225990, Note_on_c, 0, 62, 0
11, 226004, Note_on_c, 0, 57, 0
11, 226037, Note_on_c, 0, 45, 0
11, 226037, Note_on_c, 0, 66, 0
11, 226046, Note_on_c, 0, 50, 106
11, 226065, Note_on_c, 0, 62, 102
11, 226070, Note_on_c, 0, 57, 100
11, 226093, Note_on_c, 0, 69, 0
11, 226238, Note_on_c, 0, 57, 0
11, 226238, Note_on_c, 0, 50, 0
11, 226276, Note_on_c, 0, 62, 0
11, 226313, Note_on_c, 0, 45, 98
11, 226313, Note_on_c, 0, 64, 96
11, 226325, Note_on_c, 0, 57, 93
11, 226454, Note_on_c, 0, 57, 0
11, 226500, Note_on_c, 0, 64, 0
11, 226533, Note_on_c, 0, 45, 0
11, 226542, Note_on_c, 0, 62, 98
11, 226547, Note_on_c, 0, 50, 95
11, 226549, Note_on_c, 0, 57, 99
11, 226554, Note_on_c, 0, 52, 100
11, 226648, Note_on_c, 0, 52, 0
11, 226680, Note_on_c, 0, 50, 0
11, 226704, Note_on_c, 0, 57, 0
11, 226737, Note_on_c, 0, 62, 0
11, 226779, Note_on_c, 0, 45, 92
11, 226788, Note_on_c, 0, 57, 89
11, 226788, Note_on_c, 0, 66, 100
11, 226814, Note_on_c, 0, 62, 87
11, 226896, Note_on_c, 0, 62, 0
11, 227048, Note_on_c, 0, 57, 0
11, 227074, Note_on_c, 0, 66, 0
11, 227074, Note_on_c, 0, 50, 99
11, 227111, Note_on_c, 0, 45, 0
11, 227116, Note_on_c, 0, 69, 101
11, 227249, Note_on_c, 0, 50, 0
11, 227364, Note_on_c, 0, 69, 0
11, 227462, Note_on_c, 0, 45, 99
11, 227485, Note_on_c, 0, 69, 103
11, 227722, Note_on_c, 0, 50, 97
11, 227724, Note_on_c, 0, 45, 0
11, 227893, Note_on_c, 0, 69, 0
11, 227900, Note_on_c, 0, 50, 0
11, 227956, Note_on_c, 0, 45, 92
11, 227965, Note_on_c, 0, 69, 99
11, 228173, Note_on_c, 0, 50, 91
11, 228230, Note_on_c, 0, 45, 0
11, 228255, Note_on_c, 0, 69, 0
11, 228342, Note_on_c, 0, 50, 0
11, 228403, Note_on_c, 0, 45, 99
11, 228417, Note_on_c, 0, 69, 103
11, 228569, Note_on_c, 0, 69, 0
11, 228581, Note_on_c, 0, 45, 0
11, 228639, Note_on_c, 0, 50, 101
11, 228681, Note_on_c, 0, 69, 101
11, 228815, Note_on_c, 0, 50, 0
11, 228936, Note_on_c, 0, 69, 0
11, 228995, Note_on_c, 0, 43, 99
11, 229020, Note_on_c, 0, 67, 99
11, 229276, Note_on_c, 0, 43, 0
11, 229290, Note_on_c, 0, 67, 0
11, 229383, Note_on_c, 0, 43, 95
11, 229397, Note_on_c, 0, 67, 103
11, 229603, Note_on_c, 0, 48, 86
11, 229699, Note_on_c, 0, 43, 0
11, 229751, Note_on_c, 0, 48, 0
11, 229828, Note_on_c, 0, 43, 94
11, 229949, Note_on_c, 0, 67, 0
11, 230043, Note_on_c, 0, 48, 97
11, 230052, Note_on_c, 0, 67, 104
11, 230066, Note_on_c, 0, 43, 0
11, 230190, Note_on_c, 0, 48, 0
11, 230282, Note_on_c, 0, 43, 93
11, 230455, Note_on_c, 0, 67, 0
11, 230471, Note_on_c, 0, 43, 0
11, 230553, Note_on_c, 0, 43, 103
11, 230565, Note_on_c, 0, 64, 103
11, 230846, Note_on_c, 0, 43, 0
11, 230857, Note_on_c, 0, 64, 0
11, 230932, Note_on_c, 0, 43, 93
11, 230942, Note_on_c, 0, 62, 110
11, 230951, Note_on_c, 0, 50, 89
11, 231136, Note_on_c, 0, 62, 0
11, 231157, Note_on_c, 0, 50, 0
11, 231157, Note_on_c, 0, 43, 0
11, 231253, Note_on_c, 0, 62, 120
11, 231258, Note_on_c, 0, 43, 102
11, 231494, Note_on_c, 0, 50, 93
11, 231597, Note_on_c, 0, 43, 0
11, 231634, Note_on_c, 0, 50, 0
11, 231723, Note_on_c, 0, 43, 106
11, 231927, Note_on_c, 0, 62, 0
11, 231955, Note_on_c, 0, 50, 110
11, 231974, Note_on_c, 0, 59, 120
11, 231976, Note_on_c, 0, 60, 120
11, 232027, Note_on_c, 0, 43, 0
11, 232093, Note_on_c, 0, 60, 0
11, 232109, Note_on_c, 0, 50, 0
11, 232179, Note_on_c, 0, 43, 101
11, 232247, Note_on_c, 0, 59, 0
11, 232299, Note_on_c, 0, 50, 88
11, 232318, Note_on_c, 0, 43, 0
11, 232343, Note_on_c, 0, 50, 0
11, 232432, Note_on_c, 0, 62, 95
11, 232439, Note_on_c, 0, 45, 106
11, 232474, Note_on_c, 0, 50, 94
11, 232491, Note_on_c, 0, 50, 0
11, 232624, Note_on_c, 0, 50, 92
11, 232821, Note_on_c, 0, 54, 99
11, 232844, Note_on_c, 0, 50, 0
11, 232933, Note_on_c, 0, 45, 0
11, 233008, Note_on_c, 0, 62, 0
11, 233050, Note_on_c, 0, 50, 99
11, 233066, Note_on_c, 0, 54, 0
11, 233228, Note_on_c, 0, 45, 98
11, 233232, Note_on_c, 0, 50, 0
11, 233438, Note_on_c, 0, 50, 94
11, 233448, Note_on_c, 0, 45, 0
11, 233555, Note_on_c, 0, 50, 0
11, 233623, Note_on_c, 0, 45, 102
11, 233626, Note_on_c, 0, 62, 101
11, 233630, Note_on_c, 0, 57, 102
11, 233799, Note_on_c, 0, 57, 0
11, 233843, Note_on_c, 0, 62, 0
11, 233850, Note_on_c, 0, 50, 99
11, 233857, Note_on_c, 0, 45, 0
11, 233883, Note_on_c, 0, 64, 95
11, 233890, Note_on_c, 0, 57, 99
11, 234026, Note_on_c, 0, 50, 0
11, 234054, Note_on_c, 0, 57, 0
11, 234068, Note_on_c, 0, 64, 0
11, 234115, Note_on_c, 0, 62, 99
11, 234122, Note_on_c, 0, 57, 94
11, 234122, Note_on_c, 0, 45, 100
11, 234213, Note_on_c, 0, 57, 0
11, 234234, Note_on_c, 0, 62, 0
11, 234240, Control_c, 0, 7, 118
11, 234274, Note_on_c, 0, 45, 0
11, 234384, Note_on_c, 0, 44, 101
11, 234384, Note_on_c, 0, 43, 91
11, 234393, Note_on_c, 0, 45, 97
11, 234405, Note_on_c, 0, 71, 86
11, 234456, Note_on_c, 0, 45, 0
11, 234510, Note_on_c, 0, 43, 0
11, 234527, Note_on_c, 0, 44, 0
11, 234681, Note_on_c, 0, 45, 88
11, 234744, Note_on_c, 0, 69, 92
11, 234770, Note_on_c, 0, 71, 0
11, 234906, Note_on_c, 0, 69, 0
11, 234917, Note_on_c, 0, 45, 0
11, 235034, Note_on_c, 0, 69, 102
11, 235037, Note_on_c, 0, 45, 102
11, 235395, Note_on_c, 0, 45, 0
11, 235572, Note_on_c, 0, 45, 97
11, 235624, Note_on_c, 0, 69, 0
11, 235816, Note_on_c, 0, 69, 110
11, 235825, Note_on_c, 0, 52, 101
11, 235898, Note_on_c, 0, 45, 0
11, 235954, Note_on_c, 0, 52, 0
11, 236052, Note_on_c, 0, 45, 97
11, 236094, Note_on_c, 0, 46, 92
11, 236106, Note_on_c, 0, 46, 0
11, 236153, Note_on_c, 0, 69, 0
11, 236200, Note_on_c, 0, 45, 0
11, 236307, Note_on_c, 0, 69, 115
11, 236307, Note_on_c, 0, 45, 103
11, 236516, Note_on_c, 0, 45, 0
11, 236576, Note_on_c, 0, 69, 0
11, 236625, Note_on_c, 0, 43, 97
11, 236644, Note_on_c, 0, 67, 115
11, 236857, Note_on_c, 0, 67, 0
11, 236951, Note_on_c, 0, 43, 0
11, 237012, Note_on_c, 0, 43, 93
11, 237012, Note_on_c, 0, 67, 115
11, 237035, Note_on_c, 0, 44, 85
11, 237208, Note_on_c, 0, 44, 0
11, 237454, Note_on_c, 0, 43, 0
11, 237503, Note_on_c, 0, 48, 102
11, 237576, Note_on_c, 0, 67, 0
11, 237678, Note_on_c, 0, 48, 0
11, 237730, Note_on_c, 0, 43, 93
11, 237739, Note_on_c, 0, 67, 110
11, 237973, Note_on_c, 0, 48, 106
11, 238032, Note_on_c, 0, 67, 0
11, 238037, Note_on_c, 0, 43, 0
11, 238111, Note_on_c, 0, 48, 0
11, 238212, Note_on_c, 0, 43, 96
11, 238214, Note_on_c, 0, 50, 96
11, 238231, Note_on_c, 0, 67, 101
11, 238465, Note_on_c, 0, 50, 0
11, 238490, Note_on_c, 0, 67, 0
11, 238490, Note_on_c, 0, 43, 0
11, 238575, Note_on_c, 0, 50, 102
11, 238577, Note_on_c, 0, 67, 104
11, 238582, Note_on_c, 0, 43, 96
11, 238598, Note_on_c, 0, 44, 87
11, 238650, Note_on_c, 0, 44, 0
11, 238816, Note_on_c, 0, 67, 0
11, 238839, Note_on_c, 0, 50, 0
11, 238844, Note_on_c, 0, 43, 0
11, 238912, Note_on_c, 0, 67, 103
11, 238933, Note_on_c, 0, 50, 106
11, 238933, Note_on_c, 0, 43, 97
11, 239302, Note_on_c, 0, 50, 0
11, 239302, Note_on_c, 0, 43, 0
11, 239342, Note_on_c, 0, 67, 0
11, 239394, Note_on_c, 0, 69, 110
11, 239398, Note_on_c, 0, 43, 101
11, 239422, Note_on_c, 0, 71, 88
11, 239429, Note_on_c, 0, 52, 86
11, 239429, Note_on_c, 0, 50, 87
11, 239443, Note_on_c, 0, 71, 0
11, 239483, Note_on_c, 0, 50, 0
11, 239483, Note_on_c, 0, 52, 0
11, 239583, Note_on_c, 0, 69, 0
11, 239614, Note_on_c, 0, 43, 0
11, 239646, Note_on_c, 0, 50, 104
11, 239649, Note_on_c, 0, 67, 102
11, 239679, Note_on_c, 0, 43, 71
11, 239721, Note_on_c, 0, 43, 0
11, 239787, Note_on_c, 0, 50, 0
11, 239789, Note_on_c, 0, 67, 0
11, 239880, Note_on_c, 0, 43, 92
11, 239892, Note_on_c, 0, 50, 99
11, 240063, Note_on_c, 0, 43, 0
11, 240063, Note_on_c, 0, 50, 0
11, 240121, Note_on_c, 0, 74, 100
11, 240124, Note_on_c, 0, 78, 98
11, 240126, Note_on_c, 0, 69, 95
11, 240178, Note_on_c, 0, 45, 92
11, 240398, Note_on_c, 0, 45, 0
11, 240426, Note_on_c, 0, 45, 86
11, 240482, Note_on_c, 0, 69, 0
11, 240486, Note_on_c, 0, 74, 0
11, 240517, Note_on_c, 0, 78, 0
11, 240575, Note_on_c, 0, 45, 0
11, 240601, Note_on_c, 0, 74, 108
11, 240601, Note_on_c, 0, 50, 101
11, 240606, Note_on_c, 0, 69, 101
11, 240767, Note_on_c, 0, 50, 0
11, 240819, Note_on_c, 0, 45, 77
11, 240830, Note_on_c, 0, 69, 0
11, 240905, Note_on_c, 0, 74, 0
11, 240976, Note_on_c, 0, 69, 99
11, 240980, Note_on_c, 0, 76, 99
11, 240992, Note_on_c, 0, 50, 101
11, 241036, Note_on_c, 0, 45, 0
11, 241144, Note_on_c, 0, 50, 0
11, 241160, Note_on_c, 0, 69, 0
11, 241198, Note_on_c, 0, 76, 0
11, 241261, Note_on_c, 0, 45, 94
11, 241273, Note_on_c, 0, 74, 100
11, 241287, Note_on_c, 0, 69, 103
11, 241451, Note_on_c, 0, 69, 0
11, 241490, Note_on_c, 0, 74, 0
11, 241500, Note_on_c, 0, 45, 0
11, 241565, Note_on_c, 0, 76, 98
11, 241565, Note_on_c, 0, 50, 120
11, 241575, Note_on_c, 0, 69, 92
11, 241715, Note_on_c, 0, 50, 0
11, 241738, Note_on_c, 0, 69, 0
11, 241745, Note_on_c, 0, 76, 0
11, 241797, Note_on_c, 0, 45, 97
11, 241806, Note_on_c, 0, 74, 104
11, 241825, Note_on_c, 0, 69, 90
11, 241958, Note_on_c, 0, 69, 0
11, 241972, Note_on_c, 0, 74, 0
11, 241982, Note_on_c, 0, 45, 0
11, 242038, Note_on_c, 0, 50, 97
11, 242061, Note_on_c, 0, 69, 78
11, 242064, Note_on_c, 0, 74, 100
11, 242213, Note_on_c, 0, 69, 0
11, 242251, Note_on_c, 0, 50, 0
11, 242293, Note_on_c, 0, 74, 0
11, 242373, Note_on_c, 0, 45, 101
11, 242384, Note_on_c, 0, 69, 91
11, 242396, Note_on_c, 0, 78, 110
11, 242564, Note_on_c, 0, 69, 0
11, 242571, Note_on_c, 0, 45, 0
11, 242581, Note_on_c, 0, 78, 0
11, 242740, Note_on_c, 0, 50, 115
11, 242754, Note_on_c, 0, 69, 99
11, 242759, Note_on_c, 0, 78, 126
11, 242890, Note_on_c, 0, 50, 0
11, 242958, Note_on_c, 0, 45, 87
11, 243170, Note_on_c, 0, 69, 0
11, 243206, Note_on_c, 0, 45, 0
11, 243224, Note_on_c, 0, 50, 99
11, 243236, Note_on_c, 0, 76, 99
11, 243339, Note_on_c, 0, 78, 0
11, 243404, Note_on_c, 0, 50, 0
11, 243409, Note_on_c, 0, 76, 0
11, 243461, Note_on_c, 0, 45, 94
11, 243470, Note_on_c, 0, 74, 98
11, 243486, Note_on_c, 0, 69, 94
11, 243629, Note_on_c, 0, 69, 0
11, 243645, Note_on_c, 0, 74, 0
11, 243713, Note_on_c, 0, 50, 104
11, 243713, Note_on_c, 0, 74, 99
11, 243732, Note_on_c, 0, 69, 86
11, 243765, Note_on_c, 0, 45, 0
11, 243847, Note_on_c, 0, 69, 0
11, 243875, Note_on_c, 0, 50, 0
11, 243908, Note_on_c, 0, 74, 0
11, 243961, Note_on_c, 0, 79, 95
11, 243973, Note_on_c, 0, 45, 100
11, 243973, Note_on_c, 0, 43, 99
11, 243980, Note_on_c, 0, 69, 91
11, 244088, Note_on_c, 0, 69, 0
11, 244186, Note_on_c, 0, 45, 0
11, 244191, Note_on_c, 0, 79, 0
11, 244198, Note_on_c, 0, 43, 0
11, 244298, Note_on_c, 0, 76, 97
11, 244317, Note_on_c, 0, 45, 96
11, 244317, Note_on_c, 0, 43, 94
11, 244322, Note_on_c, 0, 69, 91
11, 244446, Note_on_c, 0, 43, 0
11, 244462, Note_on_c, 0, 45, 0
11, 244483, Note_on_c, 0, 69, 0
11, 244502, Note_on_c, 0, 76, 0
11, 244659, Note_on_c, 0, 76, 106
11, 244736, Note_on_c, 0, 43, 87
11, 244736, Note_on_c, 0, 41, 87
11, 244872, Note_on_c, 0, 41, 0
11, 244886, Note_on_c, 0, 43, 0
11, 244935, Note_on_c, 0, 48, 94
11, 245092, Note_on_c, 0, 48, 0
11, 245159, Note_on_c, 0, 43, 88
11, 245176, Note_on_c, 0, 52, 95
11, 245291, Note_on_c, 0, 76, 0
11, 245351, Note_on_c, 0, 52, 0
11, 245351, Note_on_c, 0, 43, 0
11, 245415, Note_on_c, 0, 48, 110
11, 245438, Note_on_c, 0, 76, 115
11, 245443, Note_on_c, 0, 74, 108
11, 245555, Note_on_c, 0, 48, 0
11, 245576, Note_on_c, 0, 74, 0
11, 245649, Note_on_c, 0, 43, 95
11, 245705, Note_on_c, 0, 48, 82
11, 245721, Note_on_c, 0, 48, 0
11, 245747, Note_on_c, 0, 76, 0
11, 245817, Note_on_c, 0, 43, 0
11, 245892, Note_on_c, 0, 74, 126
11, 245899, Note_on_c, 0, 43, 96
11, 245906, Note_on_c, 0, 42, 91
11, 245906, Note_on_c, 0, 50, 94
11, 245913, Note_on_c, 0, 48, 94
11, 245927, Note_on_c, 0, 48, 0
11, 246032, Note_on_c, 0, 42, 0
11, 246063, Note_on_c, 0, 43, 0
11, 246072, Note_on_c, 0, 50, 0
11, 246177, Note_on_c, 0, 74, 0
11, 246224, Note_on_c, 0, 50, 100
11, 246224, Note_on_c, 0, 43, 98
11, 246250, Note_on_c, 0, 74, 103
11, 246334, Note_on_c, 0, 43, 0
11, 246344, Note_on_c, 0, 50, 0
11, 246409, Note_on_c, 0, 74, 0
11, 246547, Note_on_c, 0, 43, 103
11, 246566, Note_on_c, 0, 74, 120
11, 246793, Note_on_c, 0, 43, 0
11, 246800, Note_on_c, 0, 50, 95
11, 246847, Note_on_c, 0, 43, 68
11, 246891, Note_on_c, 0, 43, 0
11, 246957, Note_on_c, 0, 50, 0
11, 246980, Note_on_c, 0, 74, 0
11, 247076, Note_on_c, 0, 43, 106
11, 247076, Note_on_c, 0, 72, 112
11, 247076, Note_on_c, 0, 74, 120
11, 247113, Note_on_c, 0, 45, 97
11, 247123, Note_on_c, 0, 45, 0
11, 247184, Note_on_c, 0, 74, 0
11, 247205, Note_on_c, 0, 72, 0
11, 247322, Note_on_c, 0, 50, 99
11, 247340, Note_on_c, 0, 71, 120
11, 247387, Note_on_c, 0, 43, 0
11, 247481, Note_on_c, 0, 71, 0
11, 247481, Note_on_c, 0, 50, 0
11, 247549, Note_on_c, 0, 43, 94
11, 247565, Note_on_c, 0, 69, 115
11, 247691, Note_on_c, 0, 69, 0
11, 247719, Note_on_c, 0, 43, 0
11, 247813, Note_on_c, 0, 43, 101
11, 247822, Note_on_c, 0, 72, 115
11, 247827, Note_on_c, 0, 76, 103
11, 248054, Note_on_c, 0, 72, 0
11, 248059, Note_on_c, 0, 43, 0
11, 248063, Note_on_c, 0, 76, 0
11, 248208, Note_on_c, 0, 72, 100
11, 248208, Note_on_c, 0, 74, 101
11, 248218, Note_on_c, 0, 45, 101
11, 248232, Note_on_c, 0, 72, 0
11, 248377, Note_on_c, 0, 74, 0
11, 248435, Note_on_c, 0, 45, 0
11, 248543, Note_on_c, 0, 69, 108
11, 248545, Note_on_c, 0, 74, 127
11, 248545, Note_on_c, 0, 51, 126
11, 248574, Note_on_c, 0, 45, 93
11, 248592, Note_on_c, 0, 45, 0
11, 248660, Note_on_c, 0, 51, 0
11, 248974, Note_on_c, 0, 69, 0
11, 249025, Note_on_c, 0, 45, 99
11, 249032, Note_on_c, 0, 74, 0
11, 249254, Note_on_c, 0, 45, 0
11, 249266, Note_on_c, 0, 50, 101
11, 249266, Note_on_c, 0, 74, 112
11, 249271, Note_on_c, 0, 78, 104
11, 249271, Note_on_c, 0, 69, 104
11, 249273, Note_on_c, 0, 81, 93
11, 249376, Note_on_c, 0, 50, 0
11, 249409, Note_on_c, 0, 69, 0
11, 249430, Note_on_c, 0, 74, 0
11, 249442, Note_on_c, 0, 81, 0
11, 249470, Note_on_c, 0, 45, 83
11, 249503, Note_on_c, 0, 78, 0
11, 249600, Control_c, 0, 7, 122
11, 249690, Note_on_c, 0, 45, 0
11, 249732, Note_on_c, 0, 81, 101
11, 249734, Note_on_c, 0, 78, 93
11, 249737, Note_on_c, 0, 69, 101
11, 249741, Note_on_c, 0, 74, 104
11, 249741, Note_on_c, 0, 50, 98
11, 249849, Note_on_c, 0, 50, 0
11, 250027, Note_on_c, 0, 54, 79
11, 250176, Note_on_c, 0, 54, 0
11, 250205, Note_on_c, 0, 45, 90
11, 250497, Note_on_c, 0, 45, 0
11, 250928, Note_on_c, 0, 45, 88
11, 250942, Note_on_c, 0, 74, 0
11, 250995, Note_on_c, 0, 78, 0
11, 251026, Note_on_c, 0, 69, 0
11, 251031, Note_on_c, 0, 81, 0
11, 251117, Note_on_c, 0, 45, 0
11, 251634, Note_on_c, 0, 48, 97
11, 251644, Note_on_c, 0, 79, 94
11, 251651, Note_on_c, 0, 72, 94
11, 251651, Note_on_c, 0, 67, 90
11, 251651, Note_on_c, 0, 76, 96
11, 253352, Note_on_c, 0, 72, 0
11, 253380, Note_on_c, 0, 79, 0
11, 253396, Note_on_c, 0, 76, 0
11, 253403, Note_on_c, 0, 67, 0
11, 253502, Note_on_c, 0, 48, 0
11, 253581, Note_on_c, 0, 71, 92
11, 253583, Note_on_c, 0, 79, 93
11, 253586, Note_on_c, 0, 67, 94
11, 253590, Note_on_c, 0, 74, 98
11, 253605, Note_on_c, 0, 50, 99
11, 253605, Note_on_c, 0, 43, 89
11, 255016, Note_on_c, 0, 79, 0
11, 255016, Note_on_c, 0, 74, 0
11, 255032, Note_on_c, 0, 71, 0
11, 255062, Note_on_c, 0, 67, 0
11, 255193, Note_on_c, 0, 43, 0
11, 255193, Note_on_c, 0, 50, 0
11, 255292, Note_on_c, 0, 43, 97
11, 255423, Note_on_c, 0, 43, 0
11, 255505, Note_on_c, 0, 69, 93
11, 255509, Note_on_c, 0, 66, 91
11, 255512, Note_on_c, 0, 57, 99
11, 255516, Note_on_c, 0, 62, 101
11, 256635, Note_on_c, 0, 45, 90
11, 256969, Note_on_c, 0, 50, 93
11, 257075, Note_on_c, 0, 50, 0
11, 257178, Note_on_c, 0, 62, 0
11, 257196, Note_on_c, 0, 45, 0
11, 257203, Note_on_c, 0, 50, 97
11, 257215, Note_on_c, 0, 66, 0
11, 257217, Note_on_c, 0, 69, 0
11, 257220, Note_on_c, 0, 57, 0
11, 257363, Note_on_c, 0, 50, 0
11, 257423, Note_on_c, 0, 45, 101
11, 257423, Note_on_c, 0, 66, 88
11, 257423, Note_on_c, 0, 69, 93
11, 257423, Note_on_c, 0, 57, 93
11, 257428, Note_on_c, 0, 62, 97
11, 259120, Note_on_c, 0, 62, 0
11, 259129, Note_on_c, 0, 57, 0
11, 259136, Note_on_c, 0, 69, 0
11, 259160, Note_on_c, 0, 66, 0
11, 259258, Note_on_c, 0, 45, 0
11, 259340, Note_on_c, 0, 67, 80
11, 259342, Note_on_c, 0, 48, 97
11, 259354, Note_on_c, 0, 60, 79
11, 259370, Note_on_c, 0, 64, 68
11, 261064, Note_on_c, 0, 60, 0
11, 261107, Note_on_c, 0, 64, 0
11, 261125, Note_on_c, 0, 67, 0
11, 261228, Note_on_c, 0, 59, 86
11, 261238, Note_on_c, 0, 62, 89
11, 261249, Note_on_c, 0, 43, 86
11, 261254, Note_on_c, 0, 67, 88
11, 261261, Note_on_c, 0, 48, 0
11, 261263, Note_on_c, 0, 50, 87
11, 262815, Note_on_c, 0, 59, 0
11, 262855, Note_on_c, 0, 67, 0
11, 262857, Note_on_c, 0, 62, 0
11, 262939, Note_on_c, 0, 50, 0
11, 262955, Note_on_c, 0, 43, 0
11, 263135, Note_on_c, 0, 66, 81
11, 263140, Note_on_c, 0, 45, 96
11, 263159, Note_on_c, 0, 57, 88
11, 263180, Note_on_c, 0, 62, 87
11, 264811, Note_on_c, 0, 62, 0
11, 264848, Note_on_c, 0, 45, 0
11, 264872, Note_on_c, 0, 57, 0
11, 264897, Note_on_c, 0, 66, 0
11, 265110, Note_on_c, 0, 50, 96
11, 265113, Note_on_c, 0, 57, 88
11, 265117, Note_on_c, 0, 62, 90
11, 266882, Note_on_c, 0, 57, 0
11, 266896, Note_on_c, 0, 62, 0
11, 266917, Note_on_c, 0, 50, 0
11, 267043, Note_on_c, 0, 62, 96
11, 267048, Note_on_c, 0, 57, 93
11, 268735, Note_on_c, 0, 62, 0
11, 268737, Note_on_c, 0, 57, 0
11, 268920, Note_on_c, 0, 50, 101
11, 268922, Note_on_c, 0, 62, 100
11, 268925, Note_on_c, 0, 57, 94
11, 270637, Note_on_c, 0, 62, 0
11, 270642, Note_on_c, 0, 57, 0
11, 270670, Note_on_c, 0, 50, 0
11, 270864, Note_on_c, 0, 57, 93
11, 270864, Note_on_c, 0, 50, 97
11, 270869, Note_on_c, 0, 62, 97
11, 272404, Note_on_c, 0, 62, 0
11, 272456, Note_on_c, 0, 57, 0
11, 272601, Note_on_c, 0, 50, 0
11, 272764, Note_on_c, 0, 69, 90
11, 272769, Note_on_c, 0, 50, 96
11, 272774, Note_on_c, 0, 57, 87
11, 272778, Note_on_c, 0, 62, 93
11, 274065, Note_on_c, 0, 57, 0
11, 274089, Note_on_c, 0, 62, 0
11, 274143, Note_on_c, 0, 69, 0
11, 274393, Note_on_c, 0, 50, 0
11, 274665, Note_on_c, 0, 74, 89
11, 274676, Note_on_c, 0, 62, 91
11, 274676, Note_on_c, 0, 50, 95
11, 274683, Note_on_c, 0, 66, 85
11, 276333, Note_on_c, 0, 74, 0
11, 276352, Note_on_c, 0, 66, 0
11, 276370, Note_on_c, 0, 62, 0
11, 276398, Note_on_c, 0, 50, 0
11, 276618, Note_on_c, 0, 66, 86
11, 276621, Note_on_c, 0, 74, 81
11, 276625, Note_on_c, 0, 62, 79
11, 276628, Note_on_c, 0, 50, 94
11, 276630, Note_on_c, 0, 60, 78
11, 276761, Note_on_c, 0, 60, 0
11, 278118, Note_on_c, 0, 74, 0
11, 278128, Note_on_c, 0, 66, 0
11, 278142, Note_on_c, 0, 62, 0
11, 278198, Note_on_c, 0, 50, 0
11, 278516, Note_on_c, 0, 60, 83
11, 278516, Note_on_c, 0, 62, 96
11, 278521, Note_on_c, 0, 66, 90
11, 278526, Note_on_c, 0, 50, 100
11, 280182, Note_on_c, 0, 62, 0
11, 280203, Note_on_c, 0, 66, 0
11, 280220, Note_on_c, 0, 60, 0
11, 280252, Note_on_c, 0, 50, 0
11, 280489, Note_on_c, 0, 62, 95
11, 280489, Note_on_c, 0, 57, 78
11, 280489, Note_on_c, 0, 66, 88
11, 280489, Note_on_c, 0, 50, 94
11, 282409, Note_on_c, 0, 62, 0
11, 282409, Note_on_c, 0, 50, 0
11, 282409, Note_on_c, 0, 66, 0
11, 282409, Note_on_c, 0, 57, 0
11, 284160, End_track
12, 0, Start_track
12, 0, Text_t, "syn ld"
12, 0, Control_c, 1, 32, 0
12, 22, Program_c, 1, 90
12, 33, Control_c, 1, 7, 127
12, 500, Control_c, 1, 11, 127
12, 520, Control_c, 1, 1, 33
12, 960, Control_c, 1, 10, 12
12, 980, Pitch_bend_c, 1, 8192
12, 44654, Note_on_c, 1, 69, 57
12, 44657, Note_on_c, 1, 73, 76
12, 44657, Note_on_c, 1, 76, 83
12, 44818, Note_on_c, 1, 73, 0
12, 44823, Note_on_c, 1, 76, 0
12, 44841, Note_on_c, 1, 69, 0
12, 44996, Note_on_c, 1, 73, 74
12, 44998, Note_on_c, 1, 76, 87
12, 45001, Note_on_c, 1, 69, 74
12, 45696, Note_on_c, 1, 69, 0
12, 45733, Note_on_c, 1, 73, 0
12, 45738, Note_on_c, 1, 76, 0
12, 47530, Note_on_c, 1, 78, 69
12, 47532, Note_on_c, 1, 74, 81
12, 47535, Note_on_c, 1, 81, 81
12, 47736, Note_on_c, 1, 74, 0
12, 47773, Note_on_c, 1, 78, 0
12, 47781, Note_on_c, 1, 81, 0
12, 49456, Note_on_c, 1, 86, 70
12, 49458, Note_on_c, 1, 78, 78
12, 49468, Note_on_c, 1, 81, 85
12, 49617, Note_on_c, 1, 86, 0
12, 49622, Note_on_c, 1, 81, 0
12, 49641, Note_on_c, 1, 78, 0
12, 50387, Note_on_c, 1, 73, 69
12, 50399, Note_on_c, 1, 76, 85
12, 50401, Note_on_c, 1, 81, 64
12, 50570, Note_on_c, 1, 73, 0
12, 50577, Note_on_c, 1, 76, 0
12, 50596, Note_on_c, 1, 81, 0
12, 50722, Note_on_c, 1, 73, 78
12, 50722, Note_on_c, 1, 76, 86
12, 50729, Note_on_c, 1, 81, 74
12, 51471, Note_on_c, 1, 81, 0
12, 51485, Note_on_c, 1, 76, 0
12, 51527, Note_on_c, 1, 73, 0
12, 52297, Note_on_c, 1, 76, 86
12, 52297, Note_on_c, 1, 81, 75
12, 52297, Note_on_c, 1, 73, 79
12, 52503, Note_on_c, 1, 81, 0
12, 52507, Note_on_c, 1, 73, 0
12, 52507, Note_on_c, 1, 76, 0
12, 52622, Note_on_c, 1, 76, 86
12, 52624, Note_on_c, 1, 73, 80
12, 52627, Note_on_c, 1, 81, 78
12, 53425, Note_on_c, 1, 76, 0
12, 53462, Note_on_c, 1, 73, 0
12, 53464, Note_on_c, 1, 81, 0
12, 54258, Note_on_c, 1, 78, 69
12, 54265, Note_on_c, 1, 86, 68
12, 54265, Note_on_c, 1, 81, 76
12, 54496, Note_on_c, 1, 81, 0
12, 54503, Note_on_c, 1, 78, 0
12, 54527, Note_on_c, 1, 86, 0
12, 56137, Note_on_c, 1, 86, 63
12, 56141, Note_on_c, 1, 78, 75
12, 56148, Note_on_c, 1, 74, 71
12, 56160, Note_on_c, 1, 81, 74
12, 56450, Note_on_c, 1, 78, 0
12, 56462, Note_on_c, 1, 74, 0
12, 56464, Note_on_c, 1, 81, 0
12, 56495, Note_on_c, 1, 86, 0
12, 88822, Note_on_c, 1, 73, 81
12, 88826, Note_on_c, 1, 69, 73
12, 88831, Note_on_c, 1, 76, 87
12, 89018, Note_on_c, 1, 73, 0
12, 89025, Note_on_c, 1, 69, 0
12, 89030, Note_on_c, 1, 76, 0
12, 89156, Note_on_c, 1, 76, 82
12, 89161, Note_on_c, 1, 73, 80
12, 89168, Note_on_c, 1, 69, 72
12, 90263, Note_on_c, 1, 57, 73
12, 90277, Note_on_c, 1, 76, 0
12, 90331, Note_on_c, 1, 69, 0
12, 90345, Note_on_c, 1, 73, 0
12, 90509, Note_on_c, 1, 61, 77
12, 90584, Note_on_c, 1, 57, 0
12, 90738, Note_on_c, 1, 81, 79
12, 90741, Note_on_c, 1, 69, 77
12, 90750, Note_on_c, 1, 73, 87
12, 90940, Note_on_c, 1, 81, 0
12, 90940, Note_on_c, 1, 73, 0
12, 90968, Note_on_c, 1, 69, 0
12, 91075, Note_on_c, 1, 81, 81
12, 91080, Note_on_c, 1, 69, 72
12, 91080, Note_on_c, 1, 73, 86
12, 91389, Note_on_c, 1, 61, 0
12, 91550, Note_on_c, 1, 57, 86
12, 91829, Note_on_c, 1, 57, 0
12, 92016, Note_on_c, 1, 57, 82
12, 92243, Note_on_c, 1, 73, 0
12, 92269, Note_on_c, 1, 81, 0
12, 92306, Note_on_c, 1, 69, 0
12, 92379, Note_on_c, 1, 62, 89
12, 92636, Note_on_c, 1, 78, 78
12, 92641, Note_on_c, 1, 81, 80
12, 92641, Note_on_c, 1, 69, 77
12, 92641, Note_on_c, 1, 74, 88
12, 92737, Note_on_c, 1, 57, 0
12, 92828, Note_on_c, 1, 62, 0
12, 92893, Note_on_c, 1, 81, 0
12, 92893, Note_on_c, 1, 74, 0
12, 92914, Note_on_c, 1, 78, 0
12, 92936, Note_on_c, 1, 69, 0
12, 92989, Note_on_c, 1, 69, 67
12, 93001, Note_on_c, 1, 74, 88
12, 93001, Note_on_c, 1, 78, 82
12, 93001, Note_on_c, 1, 81, 85
12, 93883, Note_on_c, 1, 62, 86
12, 93942, Note_on_c, 1, 69, 0
12, 93942, Note_on_c, 1, 74, 0
12, 94000, Note_on_c, 1, 78, 0
12, 94073, Note_on_c, 1, 81, 0
12, 94578, Note_on_c, 1, 86, 85
12, 94583, Note_on_c, 1, 74, 81
12, 94585, Note_on_c, 1, 81, 83
12, 94808, Note_on_c, 1, 81, 0
12, 94812, Note_on_c, 1, 86, 0
12, 94815, Note_on_c, 1, 62, 0
12, 94838, Note_on_c, 1, 74, 0
12, 94915, Note_on_c, 1, 74, 74
12, 94918, Note_on_c, 1, 81, 82
12, 94932, Note_on_c, 1, 86, 86
12, 95357, Note_on_c, 1, 62, 85
12, 95720, Note_on_c, 1, 74, 0
12, 95790, Note_on_c, 1, 78, 83
12, 95811, Note_on_c, 1, 74, 86
12, 95968, Note_on_c, 1, 62, 0
12, 96041, Note_on_c, 1, 57, 83
12, 96048, Note_on_c, 1, 81, 0
12, 96085, Note_on_c, 1, 78, 0
12, 96090, Note_on_c, 1, 74, 0
12, 96172, Note_on_c, 1, 86, 0
12, 96511, Note_on_c, 1, 76, 84
12, 96511, Note_on_c, 1, 85, 58
12, 96523, Note_on_c, 1, 88, 71
12, 96523, Note_on_c, 1, 81, 86
12, 96689, Note_on_c, 1, 81, 0
12, 96715, Note_on_c, 1, 88, 0
12, 96729, Note_on_c, 1, 76, 0
12, 96750, Note_on_c, 1, 85, 0
12, 96829, Note_on_c, 1, 85, 78
12, 96839, Note_on_c, 1, 76, 83
12, 96841, Note_on_c, 1, 81, 89
12, 97199, Note_on_c, 1, 57, 0
12, 97510, Note_on_c, 1, 57, 87
12, 97592, Note_on_c, 1, 81, 0
12, 97625, Note_on_c, 1, 85, 0
12, 97632, Note_on_c, 1, 76, 0
12, 97952, Note_on_c, 1, 61, 83
12, 98086, Note_on_c, 1, 57, 0
12, 98360, Note_on_c, 1, 81, 76
12, 98362, Note_on_c, 1, 73, 81
12, 98362, Note_on_c, 1, 76, 84
12, 98608, Note_on_c, 1, 81, 0
12, 98617, Note_on_c, 1, 76, 0
12, 98624, Note_on_c, 1, 73, 0
12, 98683, Note_on_c, 1, 76, 90
12, 98685, Note_on_c, 1, 73, 83
12, 98692, Note_on_c, 1, 81, 89
12, 98753, Note_on_c, 1, 61, 0
12, 99871, Note_on_c, 1, 62, 76
12, 99876, Note_on_c, 1, 76, 0
12, 99881, Note_on_c, 1, 81, 0
12, 99920, Note_on_c, 1, 73, 0
12, 100290, Note_on_c, 1, 81, 70
12, 100295, Note_on_c, 1, 78, 74
12, 100295, Note_on_c, 1, 74, 82
12, 100477, Note_on_c, 1, 74, 0
12, 100494, Note_on_c, 1, 81, 0
12, 100543, Note_on_c, 1, 78, 0
12, 100669, Note_on_c, 1, 74, 83
12, 100672, Note_on_c, 1, 78, 78
12, 100672, Note_on_c, 1, 81, 82
12, 101016, Note_on_c, 1, 62, 0
12, 101792, Note_on_c, 1, 62, 89
12, 101816, Note_on_c, 1, 74, 0
12, 101844, Note_on_c, 1, 81, 0
12, 101853, Note_on_c, 1, 78, 0
12, 102237, Note_on_c, 1, 81, 88
12, 102242, Note_on_c, 1, 78, 85
12, 102448, Note_on_c, 1, 81, 0
12, 102485, Note_on_c, 1, 78, 0
12, 102609, Note_on_c, 1, 78, 87
12, 102616, Note_on_c, 1, 81, 85
12, 102906, Note_on_c, 1, 62, 0
12, 103697, Note_on_c, 1, 62, 96
12, 103765, Note_on_c, 1, 81, 0
12, 103774, Note_on_c, 1, 78, 0
12, 104165, Note_on_c, 1, 81, 83
12, 104172, Note_on_c, 1, 78, 85
12, 104395, Note_on_c, 1, 81, 0
12, 104418, Note_on_c, 1, 78, 0
12, 104542, Note_on_c, 1, 81, 82
12, 104544, Note_on_c, 1, 78, 84
12, 104783, Note_on_c, 1, 62, 0
12, 105153, Note_on_c, 1, 62, 90
12, 105625, Note_on_c, 1, 60, 87
12, 105663, Note_on_c, 1, 62, 0
12, 105731, Note_on_c, 1, 78, 0
12, 105777, Note_on_c, 1, 81, 0
12, 106065, Note_on_c, 1, 79, 84
12, 106077, Note_on_c, 1, 76, 87
12, 106269, Note_on_c, 1, 76, 0
12, 106290, Note_on_c, 1, 79, 0
12, 106423, Note_on_c, 1, 79, 87
12, 106430, Note_on_c, 1, 76, 84
12, 107114, Note_on_c, 1, 60, 0
12, 107582, Note_on_c, 1, 55, 86
12, 107626, Note_on_c, 1, 76, 0
12, 107638, Note_on_c, 1, 79, 0
12, 107979, Note_on_c, 1, 79, 77
12, 107982, Note_on_c, 1, 74, 81
12, 108188, Note_on_c, 1, 74, 0
12, 108199, Note_on_c, 1, 79, 0
12, 108333, Note_on_c, 1, 74, 79
12, 108333, Note_on_c, 1, 79, 79
12, 109465, Note_on_c, 1, 57, 89
12, 109489, Note_on_c, 1, 55, 0
12, 109545, Note_on_c, 1, 74, 0
12, 109561, Note_on_c, 1, 79, 0
12, 109950, Note_on_c, 1, 69, 76
12, 109950, Note_on_c, 1, 78, 78
12, 109952, Note_on_c, 1, 74, 88
12, 110193, Note_on_c, 1, 74, 0
12, 110212, Note_on_c, 1, 78, 0
12, 110223, Note_on_c, 1, 69, 0
12, 110301, Note_on_c, 1, 74, 88
12, 110301, Note_on_c, 1, 69, 80
12, 110305, Note_on_c, 1, 78, 85
12, 110947, Note_on_c, 1, 74, 0
12, 110963, Note_on_c, 1, 78, 0
12, 110979, Note_on_c, 1, 69, 0
12, 111679, Note_on_c, 1, 57, 0
12, 111801, Note_on_c, 1, 74, 72
12, 111805, Note_on_c, 1, 81, 79
12, 112107, Note_on_c, 1, 74, 0
12, 112140, Note_on_c, 1, 81, 0
12, 112229, Note_on_c, 1, 74, 87
12, 112229, Note_on_c, 1, 81, 87
12, 113294, Note_on_c, 1, 55, 79
12, 113350, Note_on_c, 1, 74, 0
12, 113361, Note_on_c, 1, 81, 0
12, 113762, Note_on_c, 1, 60, 83
12, 113792, Note_on_c, 1, 79, 81
12, 113808, Note_on_c, 1, 76, 82
12, 114021, Note_on_c, 1, 76, 0
12, 114033, Note_on_c, 1, 79, 0
12, 114143, Note_on_c, 1, 76, 86
12, 114145, Note_on_c, 1, 79, 86
12, 115088, Note_on_c, 1, 60, 0
12, 115215, Note_on_c, 1, 79, 0
12, 115252, Note_on_c, 1, 76, 0
12, 115360, Note_on_c, 1, 55, 0
12, 115481, Note_on_c, 1, 55, 80
12, 115914, Note_on_c, 1, 74, 82
12, 115921, Note_on_c, 1, 79, 78
12, 117138, Note_on_c, 1, 69, 81
12, 117145, Note_on_c, 1, 57, 89
12, 117155, Note_on_c, 1, 78, 80
12, 117176, Note_on_c, 1, 79, 0
12, 117201, Note_on_c, 1, 55, 0
12, 117592, Note_on_c, 1, 57, 0
12, 117646, Note_on_c, 1, 55, 80
12, 117899, Note_on_c, 1, 57, 94
12, 118135, Note_on_c, 1, 74, 0
12, 118184, Note_on_c, 1, 76, 90
12, 118392, Note_on_c, 1, 69, 0
12, 118549, Note_on_c, 1, 74, 88
12, 118736, Note_on_c, 1, 76, 0
12, 118797, Note_on_c, 1, 69, 87
12, 118835, Note_on_c, 1, 78, 0
12, 118853, Note_on_c, 1, 74, 0
12, 119270, Note_on_c, 1, 55, 0
12, 119509, Note_on_c, 1, 81, 88
12, 119509, Note_on_c, 1, 78, 79
12, 119516, Note_on_c, 1, 74, 87
12, 119743, Note_on_c, 1, 81, 0
12, 119754, Note_on_c, 1, 74, 0
12, 119771, Note_on_c, 1, 78, 0
12, 119876, Note_on_c, 1, 78, 85
12, 119881, Note_on_c, 1, 74, 92
12, 119885, Note_on_c, 1, 81, 88
12, 120782, Note_on_c, 1, 55, 87
12, 120812, Note_on_c, 1, 57, 0
12, 120924, Note_on_c, 1, 69, 0
12, 120943, Note_on_c, 1, 78, 0
12, 120971, Note_on_c, 1, 74, 0
12, 121027, Note_on_c, 1, 60, 75
12, 121058, Note_on_c, 1, 81, 0
12, 121451, Note_on_c, 1, 72, 72
12, 121451, Note_on_c, 1, 79, 85
12, 121713, Note_on_c, 1, 79, 0
12, 121727, Note_on_c, 1, 72, 0
12, 121828, Note_on_c, 1, 79, 87
12, 121830, Note_on_c, 1, 72, 81
12, 122675, Note_on_c, 1, 55, 0
12, 122752, Note_on_c, 1, 60, 0
12, 122771, Note_on_c, 1, 55, 55
12, 122817, Note_on_c, 1, 55, 0
12, 122930, Note_on_c, 1, 55, 83
12, 122981, Note_on_c, 1, 79, 0
12, 122993, Note_on_c, 1, 72, 0
12, 123384, Note_on_c, 1, 71, 82
12, 123384, Note_on_c, 1, 79, 79
12, 123384, Note_on_c, 1, 74, 85
12, 123606, Note_on_c, 1, 74, 0
12, 123629, Note_on_c, 1, 79, 0
12, 123646, Note_on_c, 1, 71, 0
12, 123737, Note_on_c, 1, 74, 87
12, 123739, Note_on_c, 1, 71, 80
12, 123739, Note_on_c, 1, 79, 86
12, 124505, Note_on_c, 1, 74, 0
12, 124568, Note_on_c, 1, 79, 0
12, 124598, Note_on_c, 1, 71, 0
12, 124823, Note_on_c, 1, 69, 78
12, 124823, Note_on_c, 1, 74, 87
12, 124823, Note_on_c, 1, 78, 78
12, 124837, Note_on_c, 1, 55, 0
12, 125522, Note_on_c, 1, 57, 70
12, 126004, Note_on_c, 1, 62, 87
12, 126215, Note_on_c, 1, 78, 0
12, 126281, Note_on_c, 1, 81, 70
12, 126494, Note_on_c, 1, 62, 0
12, 126503, Note_on_c, 1, 57, 0
12, 126718, Note_on_c, 1, 57, 83
12, 126847, Note_on_c, 1, 69, 0
12, 126908, Note_on_c, 1, 81, 0
12, 126947, Note_on_c, 1, 74, 0
12, 126987, Note_on_c, 1, 62, 85
12, 127200, Note_on_c, 1, 78, 78
12, 127205, Note_on_c, 1, 69, 81
12, 127217, Note_on_c, 1, 81, 68
12, 127415, Note_on_c, 1, 81, 0
12, 127446, Note_on_c, 1, 69, 0
12, 127458, Note_on_c, 1, 78, 0
12, 127547, Note_on_c, 1, 78, 80
12, 127551, Note_on_c, 1, 69, 75
12, 127554, Note_on_c, 1, 81, 85
12, 127986, Note_on_c, 1, 57, 0
12, 127986, Note_on_c, 1, 62, 0
12, 128174, Note_on_c, 1, 57, 87
12, 128412, Note_on_c, 1, 62, 89
12, 128487, Note_on_c, 1, 81, 0
12, 128518, Note_on_c, 1, 78, 0
12, 128525, Note_on_c, 1, 69, 0
12, 128974, Note_on_c, 1, 62, 0
12, 128974, Note_on_c, 1, 57, 0
12, 129161, Note_on_c, 1, 79, 80
12, 129161, Note_on_c, 1, 76, 82
12, 129168, Note_on_c, 1, 72, 76
12, 129428, Note_on_c, 1, 72, 0
12, 129440, Note_on_c, 1, 79, 0
12, 129440, Note_on_c, 1, 76, 0
12, 129528, Note_on_c, 1, 72, 85
12, 129528, Note_on_c, 1, 79, 87
12, 129531, Note_on_c, 1, 76, 88
12, 130137, Note_on_c, 1, 55, 72
12, 130472, Note_on_c, 1, 72, 0
12, 130516, Note_on_c, 1, 76, 0
12, 130581, Note_on_c, 1, 74, 82
12, 130846, Note_on_c, 1, 74, 0
12, 131031, Note_on_c, 1, 62, 80
12, 131045, Note_on_c, 1, 71, 86
12, 131045, Note_on_c, 1, 74, 90
12, 131286, Note_on_c, 1, 74, 0
12, 131293, Note_on_c, 1, 71, 0
12, 131424, Note_on_c, 1, 74, 84
12, 131426, Note_on_c, 1, 71, 82
12, 131660, Note_on_c, 1, 55, 0
12, 131705, Note_on_c, 1, 62, 0
12, 131822, Note_on_c, 1, 55, 90
12, 132079, Note_on_c, 1, 62, 84
12, 132161, Note_on_c, 1, 74, 0
12, 132177, Note_on_c, 1, 71, 0
12, 132482, Note_on_c, 1, 57, 94
12, 132549, Note_on_c, 1, 62, 0
12, 132575, Note_on_c, 1, 55, 0
12, 132971, Note_on_c, 1, 78, 75
12, 132975, Note_on_c, 1, 74, 86
12, 132982, Note_on_c, 1, 69, 70
12, 133076, Note_on_c, 1, 79, 0
12, 133221, Note_on_c, 1, 74, 0
12, 133268, Note_on_c, 1, 69, 0
12, 133354, Note_on_c, 1, 74, 90
12, 133357, Note_on_c, 1, 69, 79
12, 133715, Note_on_c, 1, 57, 0
12, 133942, Note_on_c, 1, 57, 87
12, 134084, Note_on_c, 1, 57, 0
12, 134208, Note_on_c, 1, 57, 85
12, 134440, Note_on_c, 1, 69, 0
12, 134487, Note_on_c, 1, 74, 0
12, 134693, Note_on_c, 1, 64, 76
12, 134871, Note_on_c, 1, 78, 0
12, 134927, Note_on_c, 1, 76, 87
12, 134934, Note_on_c, 1, 69, 81
12, 135163, Note_on_c, 1, 76, 0
12, 135201, Note_on_c, 1, 69, 0
12, 135240, Note_on_c, 1, 69, 66
12, 135240, Note_on_c, 1, 76, 88
12, 135465, Note_on_c, 1, 57, 0
12, 135528, Note_on_c, 1, 64, 0
12, 135631, Note_on_c, 1, 57, 96
12, 135917, Note_on_c, 1, 64, 72
12, 136013, Note_on_c, 1, 64, 0
12, 136095, Note_on_c, 1, 64, 84
12, 136209, Note_on_c, 1, 57, 0
12, 136336, Note_on_c, 1, 57, 96
12, 136647, Note_on_c, 1, 76, 0
12, 136818, Note_on_c, 1, 81, 83
12, 136822, Note_on_c, 1, 73, 85
12, 137061, Note_on_c, 1, 81, 0
12, 137063, Note_on_c, 1, 73, 0
12, 137162, Note_on_c, 1, 73, 86
12, 137162, Note_on_c, 1, 81, 88
12, 137433, Note_on_c, 1, 64, 0
12, 137438, Note_on_c, 1, 57, 0
12, 137564, Note_on_c, 1, 57, 94
12, 137807, Note_on_c, 1, 64, 84
12, 138264, Note_on_c, 1, 62, 92
12, 138322, Note_on_c, 1, 64, 0
12, 138332, Note_on_c, 1, 73, 0
12, 138341, Note_on_c, 1, 69, 0
12, 138442, Note_on_c, 1, 81, 0
12, 138728, Note_on_c, 1, 62, 87
12, 138762, Note_on_c, 1, 81, 81
12, 138762, Note_on_c, 1, 86, 89
12, 138769, Note_on_c, 1, 90, 84
12, 138829, Note_on_c, 1, 74, 85
12, 138846, Note_on_c, 1, 62, 0
12, 138981, Note_on_c, 1, 74, 0
12, 139055, Note_on_c, 1, 86, 0
12, 139057, Note_on_c, 1, 90, 0
12, 139069, Note_on_c, 1, 81, 0
12, 139080, Note_on_c, 1, 62, 84
12, 139120, Note_on_c, 1, 81, 88
12, 139120, Note_on_c, 1, 86, 98
12, 139125, Note_on_c, 1, 90, 96
12, 139202, Note_on_c, 1, 74, 83
12, 139226, Note_on_c, 1, 62, 0
12, 139331, Note_on_c, 1, 57, 0
12, 139422, Note_on_c, 1, 62, 0
12, 139442, Note_on_c, 1, 74, 0
12, 139445, Note_on_c, 1, 62, 87
12, 139499, Note_on_c, 1, 57, 98
12, 139548, Note_on_c, 1, 74, 88
12, 139571, Note_on_c, 1, 62, 0
12, 139719, Note_on_c, 1, 62, 74
12, 139768, Note_on_c, 1, 74, 0
12, 139768, Note_on_c, 1, 62, 88
12, 139827, Note_on_c, 1, 86, 0
12, 139843, Note_on_c, 1, 90, 0
12, 139850, Note_on_c, 1, 81, 0
12, 139892, Note_on_c, 1, 74, 88
12, 139911, Note_on_c, 1, 62, 0
12, 140059, Note_on_c, 1, 74, 0
12, 140192, Note_on_c, 1, 74, 75
12, 140199, Note_on_c, 1, 76, 80
12, 140318, Note_on_c, 1, 76, 0
12, 140566, Note_on_c, 1, 74, 0
12, 140599, Note_on_c, 1, 81, 86
12, 140601, Note_on_c, 1, 76, 93
12, 140899, Note_on_c, 1, 74, 83
12, 141027, Note_on_c, 1, 76, 0
12, 141350, Note_on_c, 1, 79, 88
12, 141353, Note_on_c, 1, 76, 68
12, 141455, Note_on_c, 1, 76, 0
12, 141624, Note_on_c, 1, 78, 92
12, 141680, Note_on_c, 1, 74, 0
12, 141839, Note_on_c, 1, 76, 89
12, 141980, Note_on_c, 1, 57, 0
12, 142024, Note_on_c, 1, 62, 0
12, 142087, Note_on_c, 1, 57, 87
12, 142094, Note_on_c, 1, 64, 85
12, 142143, Note_on_c, 1, 76, 0
12, 142146, Note_on_c, 1, 78, 0
12, 142186, Note_on_c, 1, 81, 0
12, 142202, Note_on_c, 1, 79, 0
12, 142518, Note_on_c, 1, 61, 83
12, 142548, Note_on_c, 1, 76, 87
12, 142553, Note_on_c, 1, 79, 85
12, 142731, Note_on_c, 1, 79, 0
12, 142778, Note_on_c, 1, 76, 0
12, 142850, Note_on_c, 1, 76, 87
12, 142862, Note_on_c, 1, 81, 88
12, 142867, Note_on_c, 1, 79, 87
12, 143508, Note_on_c, 1, 61, 0
12, 143606, Note_on_c, 1, 64, 0
12, 143611, Note_on_c, 1, 57, 0
12, 143999, Note_on_c, 1, 57, 93
12, 144004, Note_on_c, 1, 64, 89
12, 144039, Note_on_c, 1, 79, 0
12, 144051, Note_on_c, 1, 76, 0
12, 144107, Note_on_c, 1, 81, 0
12, 144287, Note_on_c, 1, 61, 76
12, 144710, Note_on_c, 1, 88, 91
12, 144713, Note_on_c, 1, 76, 87
12, 144715, Note_on_c, 1, 81, 93
12, 144767, Note_on_c, 1, 61, 0
12, 144856, Note_on_c, 1, 57, 0
12, 144867, Note_on_c, 1, 64, 0
12, 145017, Note_on_c, 1, 57, 90
12, 145265, Note_on_c, 1, 64, 80
12, 145316, Note_on_c, 1, 81, 0
12, 145319, Note_on_c, 1, 64, 0
12, 145324, Note_on_c, 1, 76, 0
12, 145359, Note_on_c, 1, 88, 0
12, 145471, Note_on_c, 1, 88, 88
12, 145473, Note_on_c, 1, 76, 86
12, 145478, Note_on_c, 1, 81, 84
12, 145483, Note_on_c, 1, 85, 85
12, 145607, Note_on_c, 1, 57, 0
12, 145682, Note_on_c, 1, 57, 94
12, 145803, Note_on_c, 1, 85, 0
12, 145904, Note_on_c, 1, 62, 90
12, 145909, Note_on_c, 1, 81, 0
12, 145953, Note_on_c, 1, 76, 0
12, 145983, Note_on_c, 1, 88, 0
12, 146323, Note_on_c, 1, 81, 88
12, 146327, Note_on_c, 1, 86, 88
12, 146430, Note_on_c, 1, 57, 0
12, 146444, Note_on_c, 1, 62, 0
12, 146540, Note_on_c, 1, 81, 0
12, 146540, Note_on_c, 1, 86, 0
12, 146585, Note_on_c, 1, 57, 85
12, 146760, Note_on_c, 1, 78, 69
12, 146770, Note_on_c, 1, 74, 75
12, 146871, Note_on_c, 1, 62, 85
12, 146989, Note_on_c, 1, 74, 89
12, 147018, Note_on_c, 1, 62, 0
12, 147120, Note_on_c, 1, 74, 0
12, 147217, Note_on_c, 1, 62, 84
12, 147345, Note_on_c, 1, 74, 79
12, 147360, Note_on_c, 1, 62, 0
12, 147408, Note_on_c, 1, 62, 71
12, 147521, Note_on_c, 1, 74, 0
12, 147582, Note_on_c, 1, 74, 0
12, 147605, Note_on_c, 1, 78, 0
12, 147813, Note_on_c, 1, 81, 92
12, 147823, Note_on_c, 1, 74, 88
12, 147834, Note_on_c, 1, 78, 79
12, 148216, Note_on_c, 1, 66, 78
12, 148377, Note_on_c, 1, 74, 0
12, 148543, Note_on_c, 1, 76, 89
12, 148805, Note_on_c, 1, 62, 87
12, 148924, Note_on_c, 1, 74, 89
12, 148940, Note_on_c, 1, 62, 0
12, 149059, Note_on_c, 1, 74, 0
12, 149156, Note_on_c, 1, 62, 86
12, 149271, Note_on_c, 1, 74, 89
12, 149282, Note_on_c, 1, 62, 0
12, 149285, Note_on_c, 1, 74, 88
12, 149426, Note_on_c, 1, 76, 0
12, 149472, Note_on_c, 1, 57, 0
12, 149477, Note_on_c, 1, 66, 0
12, 149484, Note_on_c, 1, 62, 0
12, 149576, Note_on_c, 1, 74, 0
12, 149582, Note_on_c, 1, 78, 0
12, 149777, Note_on_c, 1, 57, 97
12, 149777, Note_on_c, 1, 62, 95
12, 149959, Note_on_c, 1, 81, 0
12, 149999, Note_on_c, 1, 74, 0
12, 150259, Note_on_c, 1, 62, 86
12, 150266, Note_on_c, 1, 69, 78
12, 150266, Note_on_c, 1, 74, 88
12, 150268, Note_on_c, 1, 78, 78
12, 150356, Note_on_c, 1, 66, 81
12, 150408, Note_on_c, 1, 62, 0
12, 150440, Note_on_c, 1, 66, 0
12, 150464, Note_on_c, 1, 74, 0
12, 150480, Note_on_c, 1, 67, 84
12, 150481, Note_on_c, 1, 78, 0
12, 150488, Note_on_c, 1, 69, 0
12, 150565, Note_on_c, 1, 67, 0
12, 150600, Note_on_c, 1, 69, 78
12, 150600, Note_on_c, 1, 74, 88
12, 150601, Note_on_c, 1, 69, 89
12, 150603, Note_on_c, 1, 78, 81
12, 150721, Note_on_c, 1, 69, 0
12, 150900, Note_on_c, 1, 57, 0
12, 150923, Note_on_c, 1, 62, 0
12, 151160, Note_on_c, 1, 69, 89
12, 151237, Note_on_c, 1, 57, 89
12, 151256, Note_on_c, 1, 69, 0
12, 151290, Note_on_c, 1, 71, 90
12, 151409, Note_on_c, 1, 71, 0
12, 151426, Note_on_c, 1, 72, 89
12, 151438, Note_on_c, 1, 74, 0
12, 151447, Note_on_c, 1, 62, 86
12, 151471, Note_on_c, 1, 78, 0
12, 151506, Note_on_c, 1, 72, 0
12, 151529, Note_on_c, 1, 69, 0
12, 151557, Note_on_c, 1, 74, 93
12, 151907, Note_on_c, 1, 74, 0
12, 151916, Note_on_c, 1, 76, 90
12, 152142, Note_on_c, 1, 76, 0
12, 152154, Note_on_c, 1, 74, 79
12, 152154, Note_on_c, 1, 76, 80
12, 152154, Note_on_c, 1, 79, 78
12, 152154, Note_on_c, 1, 72, 76
12, 152205, Note_on_c, 1, 57, 0
12, 152212, Note_on_c, 1, 62, 0
12, 152276, Note_on_c, 1, 74, 0
12, 152280, Note_on_c, 1, 76, 89
12, 152369, Note_on_c, 1, 72, 0
12, 152372, Note_on_c, 1, 79, 0
12, 152376, Note_on_c, 1, 76, 0
12, 152419, Note_on_c, 1, 76, 0
12, 152484, Note_on_c, 1, 72, 82
12, 152486, Note_on_c, 1, 79, 84
12, 152491, Note_on_c, 1, 76, 87
12, 152844, Note_on_c, 1, 69, 85
12, 152960, Note_on_c, 1, 71, 89
12, 153005, Note_on_c, 1, 69, 0
12, 153087, Note_on_c, 1, 74, 88
12, 153091, Note_on_c, 1, 71, 0
12, 153102, Note_on_c, 1, 55, 88
12, 153623, Note_on_c, 1, 62, 85
12, 153691, Note_on_c, 1, 72, 0
12, 153698, Note_on_c, 1, 76, 0
12, 153701, Note_on_c, 1, 79, 0
12, 153875, Control_c, 1, 1, 20
12, 153885, Control_c, 1, 1, 24
12, 153902, Control_c, 1, 1, 28
12, 153918, Control_c, 1, 1, 33
12, 153929, Control_c, 1, 1, 37
12, 153942, Control_c, 1, 1, 41
12, 153959, Control_c, 1, 1, 45
12, 154026, Control_c, 1, 1, 49
12, 154039, Control_c, 1, 1, 57
12, 154053, Control_c, 1, 1, 61
12, 154080, Note_on_c, 1, 79, 85
12, 154080, Note_on_c, 1, 71, 79
12, 154084, Note_on_c, 1, 74, 86
12, 154096, Control_c, 1, 1, 66
12, 154126, Control_c, 1, 1, 70
12, 154142, Control_c, 1, 1, 74
12, 154167, Control_c, 1, 1, 78
12, 154183, Control_c, 1, 1, 82
12, 154199, Control_c, 1, 1, 86
12, 154214, Control_c, 1, 1, 90
12, 154237, Control_c, 1, 1, 94
12, 154253, Control_c, 1, 1, 99
12, 154270, Control_c, 1, 1, 103
12, 154276, Note_on_c, 1, 71, 0
12, 154286, Note_on_c, 1, 74, 0
12, 154287, Control_c, 1, 1, 107
12, 154293, Note_on_c, 1, 79, 0
12, 154313, Control_c, 1, 1, 111
12, 154337, Control_c, 1, 1, 115
12, 154377, Control_c, 1, 1, 119
12, 154397, Control_c, 1, 1, 123
12, 154410, Note_on_c, 1, 71, 79
12, 154412, Note_on_c, 1, 74, 77
12, 154417, Note_on_c, 1, 79, 80
12, 154548, Note_on_c, 1, 55, 0
12, 154548, Note_on_c, 1, 62, 0
12, 154593, Control_c, 1, 1, 127
12, 154773, Control_c, 1, 1, 123
12, 154782, Control_c, 1, 1, 119
12, 154795, Control_c, 1, 1, 115
12, 154810, Control_c, 1, 1, 111
12, 154829, Control_c, 1, 1, 107
12, 154840, Control_c, 1, 1, 103
12, 154857, Control_c, 1, 1, 99
12, 154870, Control_c, 1, 1, 94
12, 154887, Control_c, 1, 1, 90
12, 154904, Control_c, 1, 1, 86
12, 154920, Control_c, 1, 1, 82
12, 154931, Control_c, 1, 1, 78
12, 154944, Control_c, 1, 1, 70
12, 154954, Control_c, 1, 1, 66
12, 154965, Control_c, 1, 1, 61
12, 154974, Control_c, 1, 1, 57
12, 154984, Control_c, 1, 1, 53
12, 155021, Control_c, 1, 1, 49
12, 155042, Control_c, 1, 1, 45
12, 155055, Control_c, 1, 1, 41
12, 155068, Control_c, 1, 1, 37
12, 155074, Note_on_c, 1, 57, 96
12, 155082, Control_c, 1, 1, 33
12, 155142, Note_on_c, 1, 74, 0
12, 155144, Note_on_c, 1, 79, 0
12, 155152, Control_c, 1, 1, 37
12, 155163, Note_on_c, 1, 71, 0
12, 155165, Control_c, 1, 1, 41
12, 155165, Note_on_c, 1, 72, 88
12, 155175, Control_c, 1, 1, 45
12, 155179, Note_on_c, 1, 74, 0
12, 155186, Control_c, 1, 1, 49
12, 155196, Control_c, 1, 1, 53
12, 155202, Control_c, 1, 1, 61
12, 155214, Control_c, 1, 1, 66
12, 155223, Control_c, 1, 1, 70
12, 155236, Control_c, 1, 1, 74
12, 155256, Control_c, 1, 1, 78
12, 155275, Note_on_c, 1, 74, 86
12, 155291, Note_on_c, 1, 72, 0
12, 155327, Note_on_c, 1, 70, 64
12, 155363, Control_c, 1, 1, 82
12, 155381, Note_on_c, 1, 70, 0
12, 155401, Note_on_c, 1, 72, 81
12, 155408, Note_on_c, 1, 74, 0
12, 155524, Note_on_c, 1, 74, 87
12, 155534, Note_on_c, 1, 72, 0
12, 155545, Note_on_c, 1, 74, 59
12, 155549, Note_on_c, 1, 69, 80
12, 155552, Note_on_c, 1, 66, 85
12, 155577, Control_c, 1, 1, 86
12, 155617, Note_on_c, 1, 57, 0
12, 155708, Note_on_c, 1, 74, 0
12, 155992, Note_on_c, 1, 50, 74
12, 156135, Note_on_c, 1, 86, 101
12, 156247, Note_on_c, 1, 84, 81
12, 156270, Note_on_c, 1, 86, 0
12, 156440, Note_on_c, 1, 83, 78
12, 156457, Note_on_c, 1, 84, 0
12, 156523, Note_on_c, 1, 57, 89
12, 156619, Note_on_c, 1, 81, 80
12, 156628, Note_on_c, 1, 83, 0
12, 156807, Note_on_c, 1, 79, 88
12, 156813, Note_on_c, 1, 81, 0
12, 156979, Note_on_c, 1, 62, 88
12, 157064, Note_on_c, 1, 79, 0
12, 157065, Note_on_c, 1, 77, 87
12, 157110, Note_on_c, 1, 57, 0
12, 157115, Note_on_c, 1, 50, 0
12, 157192, Note_on_c, 1, 76, 88
12, 157208, Note_on_c, 1, 50, 88
12, 157222, Note_on_c, 1, 77, 0
12, 157313, Note_on_c, 1, 74, 79
12, 157320, Note_on_c, 1, 76, 0
12, 157436, Note_on_c, 1, 76, 90
12, 157452, Note_on_c, 1, 74, 0
12, 157473, Note_on_c, 1, 62, 0
12, 157473, Note_on_c, 1, 57, 90
12, 157484, Note_on_c, 1, 69, 0
12, 157508, Note_on_c, 1, 66, 0
12, 157574, Note_on_c, 1, 76, 0
12, 157576, Note_on_c, 1, 74, 0
12, 157576, Note_on_c, 1, 74, 96
12, 157740, Note_on_c, 1, 74, 0
12, 157922, Note_on_c, 1, 78, 83
12, 157927, Note_on_c, 1, 69, 82
12, 157934, Note_on_c, 1, 74, 90
12, 158054, Note_on_c, 1, 62, 90
12, 158114, Note_on_c, 1, 64, 85
12, 158140, Note_on_c, 1, 74, 0
12, 158154, Note_on_c, 1, 62, 0
12, 158170, Note_on_c, 1, 69, 0
12, 158172, Note_on_c, 1, 78, 0
12, 158182, Note_on_c, 1, 66, 79
12, 158204, Note_on_c, 1, 64, 0
12, 158247, Note_on_c, 1, 69, 81
12, 158247, Note_on_c, 1, 74, 92
12, 158254, Note_on_c, 1, 78, 89
12, 158261, Note_on_c, 1, 67, 83
12, 158263, Note_on_c, 1, 66, 0
12, 158338, Note_on_c, 1, 69, 88
12, 158377, Note_on_c, 1, 67, 0
12, 158434, Note_on_c, 1, 71, 86
12, 158459, Note_on_c, 1, 69, 0
12, 158573, Note_on_c, 1, 69, 92
12, 158583, Note_on_c, 1, 71, 0
12, 158589, Note_on_c, 1, 50, 0
12, 158636, Note_on_c, 1, 57, 0
12, 158664, Note_on_c, 1, 71, 85
12, 158685, Note_on_c, 1, 50, 84
12, 158695, Note_on_c, 1, 69, 0
12, 158771, Note_on_c, 1, 73, 83
12, 158807, Note_on_c, 1, 71, 0
12, 158868, Note_on_c, 1, 73, 0
12, 158896, Note_on_c, 1, 74, 87
12, 158899, Note_on_c, 1, 76, 92
12, 158937, Note_on_c, 1, 76, 0
12, 158987, Note_on_c, 1, 76, 90
12, 159031, Note_on_c, 1, 74, 0
12, 159111, Note_on_c, 1, 74, 89
12, 159116, Note_on_c, 1, 76, 0
12, 159125, Note_on_c, 1, 57, 90
12, 159139, Note_on_c, 1, 69, 0
12, 159183, Note_on_c, 1, 74, 0
12, 159204, Note_on_c, 1, 78, 0
12, 159213, Note_on_c, 1, 76, 94
12, 159233, Note_on_c, 1, 74, 0
12, 159324, Note_on_c, 1, 76, 0
12, 159327, Note_on_c, 1, 74, 86
12, 159452, Note_on_c, 1, 76, 86
12, 159472, Note_on_c, 1, 74, 0
12, 159567, Note_on_c, 1, 77, 86
12, 159583, Note_on_c, 1, 76, 0
12, 159692, Note_on_c, 1, 77, 0
12, 159700, Note_on_c, 1, 79, 88
12, 159799, Note_on_c, 1, 72, 85
12, 159799, Note_on_c, 1, 79, 84
12, 159799, Note_on_c, 1, 76, 87
12, 159807, Note_on_c, 1, 79, 0
12, 159808, Note_on_c, 1, 81, 93
12, 159836, Note_on_c, 1, 57, 0
12, 159848, Note_on_c, 1, 50, 0
12, 159924, Note_on_c, 1, 79, 90
12, 159953, Note_on_c, 1, 81, 0
12, 160040, Note_on_c, 1, 78, 94
12, 160059, Note_on_c, 1, 79, 0
12, 160073, Note_on_c, 1, 79, 0
12, 160087, Note_on_c, 1, 76, 0
12, 160094, Note_on_c, 1, 72, 0
12, 160147, Note_on_c, 1, 79, 90
12, 160150, Note_on_c, 1, 72, 85
12, 160154, Note_on_c, 1, 76, 92
12, 160160, Note_on_c, 1, 76, 90
12, 160170, Note_on_c, 1, 78, 0
12, 160279, Note_on_c, 1, 76, 0
12, 160279, Note_on_c, 1, 74, 88
12, 160441, Note_on_c, 1, 76, 90
12, 160462, Note_on_c, 1, 74, 0
12, 160529, Note_on_c, 1, 78, 82
12, 160541, Note_on_c, 1, 48, 84
12, 160552, Note_on_c, 1, 76, 0
12, 160626, Note_on_c, 1, 78, 0
12, 160634, Note_on_c, 1, 79, 89
12, 160747, Note_on_c, 1, 79, 0
12, 160747, Note_on_c, 1, 81, 94
12, 160842, Note_on_c, 1, 72, 0
12, 160852, Note_on_c, 1, 74, 90
12, 160859, Note_on_c, 1, 55, 82
12, 160875, Note_on_c, 1, 79, 89
12, 160906, Note_on_c, 1, 81, 0
12, 161015, Note_on_c, 1, 77, 105
12, 161036, Note_on_c, 1, 79, 0
12, 161076, Note_on_c, 1, 72, 84
12, 161149, Note_on_c, 1, 77, 0
12, 161149, Note_on_c, 1, 76, 86
12, 161175, Note_on_c, 1, 48, 0
12, 161196, Note_on_c, 1, 55, 0
12, 161271, Note_on_c, 1, 77, 88
12, 161286, Note_on_c, 1, 76, 0
12, 161299, Note_on_c, 1, 50, 96
12, 161336, Note_on_c, 1, 74, 0
12, 161397, Note_on_c, 1, 72, 0
12, 161452, Note_on_c, 1, 75, 80
12, 161470, Note_on_c, 1, 76, 0
12, 161474, Note_on_c, 1, 77, 0
12, 161554, Note_on_c, 1, 55, 90
12, 161563, Note_on_c, 1, 74, 88
12, 161568, Note_on_c, 1, 75, 0
12, 161654, Note_on_c, 1, 79, 0
12, 161766, Note_on_c, 1, 73, 80
12, 161783, Note_on_c, 1, 74, 86
12, 161788, Note_on_c, 1, 71, 84
12, 161790, Note_on_c, 1, 74, 0
12, 161799, Note_on_c, 1, 79, 84
12, 161884, Note_on_c, 1, 73, 0
12, 161888, Note_on_c, 1, 74, 86
12, 161989, Note_on_c, 1, 79, 0
12, 162001, Note_on_c, 1, 71, 0
12, 162008, Note_on_c, 1, 74, 0
12, 162091, Note_on_c, 1, 73, 110
12, 162092, Note_on_c, 1, 74, 81
12, 162106, Note_on_c, 1, 71, 87
12, 162106, Note_on_c, 1, 79, 89
12, 162110, Note_on_c, 1, 74, 0
12, 162205, Note_on_c, 1, 73, 0
12, 162213, Note_on_c, 1, 74, 87
12, 162370, Note_on_c, 1, 50, 0
12, 162382, Note_on_c, 1, 55, 0
12, 162437, Note_on_c, 1, 73, 105
12, 162464, Note_on_c, 1, 74, 0
12, 162464, Note_on_c, 1, 50, 89
12, 162560, Note_on_c, 1, 73, 0
12, 162563, Note_on_c, 1, 74, 90
12, 162623, Note_on_c, 1, 71, 0
12, 162623, Note_on_c, 1, 79, 0
12, 162637, Note_on_c, 1, 74, 0
12, 162682, Note_on_c, 1, 74, 87
12, 162689, Note_on_c, 1, 71, 89
12, 162696, Note_on_c, 1, 79, 88
12, 162790, Note_on_c, 1, 73, 101
12, 162807, Note_on_c, 1, 74, 0
12, 162840, Note_on_c, 1, 73, 0
12, 162851, Note_on_c, 1, 74, 91
12, 162898, Note_on_c, 1, 73, 89
12, 162926, Note_on_c, 1, 74, 0
12, 162951, Note_on_c, 1, 55, 92
12, 162988, Note_on_c, 1, 50, 0
12, 163038, Note_on_c, 1, 73, 0
12, 163046, Note_on_c, 1, 75, 89
12, 163182, Note_on_c, 1, 75, 0
12, 163189, Note_on_c, 1, 74, 91
12, 163206, Note_on_c, 1, 50, 87
12, 163208, Note_on_c, 1, 57, 86
12, 163236, Note_on_c, 1, 55, 0
12, 163248, Note_on_c, 1, 74, 0
12, 163337, Note_on_c, 1, 71, 0
12, 163337, Note_on_c, 1, 79, 0
12, 163669, Note_on_c, 1, 69, 86
12, 163671, Note_on_c, 1, 74, 88
12, 163828, Note_on_c, 1, 57, 0
12, 163849, Note_on_c, 1, 50, 0
12, 163941, Note_on_c, 1, 74, 0
12, 163952, Note_on_c, 1, 57, 91
12, 163957, Note_on_c, 1, 50, 90
12, 163978, Note_on_c, 1, 74, 87
12, 164331, Note_on_c, 1, 50, 0
12, 164366, Note_on_c, 1, 50, 85
12, 164589, Note_on_c, 1, 72, 91
12, 164673, Note_on_c, 1, 69, 0
12, 164832, Note_on_c, 1, 50, 0
12, 164858, Note_on_c, 1, 69, 84
12, 164870, Note_on_c, 1, 57, 0
12, 165090, Note_on_c, 1, 50, 89
12, 165097, Note_on_c, 1, 57, 86
12, 165101, Note_on_c, 1, 72, 0
12, 165191, Note_on_c, 1, 74, 0
12, 165214, Note_on_c, 1, 74, 0
12, 165234, Note_on_c, 1, 72, 89
12, 165249, Note_on_c, 1, 69, 0
12, 165367, Note_on_c, 1, 71, 84
12, 165471, Note_on_c, 1, 71, 0
12, 165473, Note_on_c, 1, 72, 0
12, 165476, Note_on_c, 1, 69, 86
12, 165595, Note_on_c, 1, 71, 92
12, 165612, Note_on_c, 1, 69, 0
12, 165616, Note_on_c, 1, 69, 87
12, 165621, Note_on_c, 1, 74, 93
12, 165723, Note_on_c, 1, 69, 85
12, 165741, Note_on_c, 1, 71, 0
12, 165832, Note_on_c, 1, 70, 91
12, 165841, Note_on_c, 1, 69, 0
12, 165848, Note_on_c, 1, 74, 0
12, 165860, Note_on_c, 1, 69, 0
12, 165953, Note_on_c, 1, 69, 88
12, 165960, Note_on_c, 1, 74, 94
12, 165965, Note_on_c, 1, 69, 82
12, 165969, Note_on_c, 1, 70, 0
12, 166065, Note_on_c, 1, 72, 89
12, 166087, Note_on_c, 1, 69, 0
12, 166186, Note_on_c, 1, 69, 82
12, 166215, Note_on_c, 1, 72, 0
12, 166294, Note_on_c, 1, 69, 0
12, 166296, Note_on_c, 1, 71, 89
12, 166372, Note_on_c, 1, 50, 0
12, 166424, Note_on_c, 1, 70, 91
12, 166435, Note_on_c, 1, 57, 0
12, 166442, Note_on_c, 1, 71, 0
12, 166539, Note_on_c, 1, 70, 0
12, 166542, Note_on_c, 1, 69, 88
12, 166606, Note_on_c, 1, 50, 91
12, 166608, Note_on_c, 1, 57, 89
12, 166669, Note_on_c, 1, 70, 84
12, 166697, Note_on_c, 1, 69, 0
12, 166794, Note_on_c, 1, 69, 87
12, 166804, Note_on_c, 1, 70, 0
12, 166819, Note_on_c, 1, 50, 0
12, 166847, Note_on_c, 1, 57, 0
12, 166902, Note_on_c, 1, 70, 82
12, 166945, Note_on_c, 1, 57, 81
12, 167037, Note_on_c, 1, 74, 88
12, 167043, Note_on_c, 1, 70, 0
12, 167048, Note_on_c, 1, 69, 0
12, 167064, Note_on_c, 1, 50, 94
12, 167151, Note_on_c, 1, 74, 0
12, 167151, Note_on_c, 1, 69, 0
12, 167156, Note_on_c, 1, 72, 84
12, 167237, Note_on_c, 1, 74, 0
12, 167265, Note_on_c, 1, 69, 83
12, 167273, Note_on_c, 1, 72, 0
12, 167390, Note_on_c, 1, 72, 85
12, 167417, Note_on_c, 1, 69, 0
12, 167507, Note_on_c, 1, 71, 84
12, 167525, Note_on_c, 1, 79, 73
12, 167529, Note_on_c, 1, 72, 0
12, 167535, Note_on_c, 1, 72, 87
12, 167539, Note_on_c, 1, 67, 83
12, 167591, Note_on_c, 1, 57, 0
12, 167615, Note_on_c, 1, 69, 86
12, 167622, Note_on_c, 1, 71, 0
12, 167664, Note_on_c, 1, 50, 0
12, 167735, Note_on_c, 1, 71, 89
12, 167751, Note_on_c, 1, 69, 0
12, 167795, Note_on_c, 1, 72, 0
12, 167806, Note_on_c, 1, 79, 0
12, 167809, Note_on_c, 1, 67, 0
12, 167844, Note_on_c, 1, 67, 82
12, 167848, Note_on_c, 1, 79, 89
12, 167848, Note_on_c, 1, 72, 89
12, 167865, Note_on_c, 1, 69, 86
12, 167865, Note_on_c, 1, 50, 83
12, 167905, Note_on_c, 1, 71, 0
12, 167979, Note_on_c, 1, 74, 89
12, 168005, Note_on_c, 1, 69, 0
12, 168107, Note_on_c, 1, 69, 86
12, 168113, Note_on_c, 1, 50, 0
12, 168127, Note_on_c, 1, 74, 0
12, 168218, Note_on_c, 1, 72, 84
12, 168247, Note_on_c, 1, 69, 0
12, 168277, Note_on_c, 1, 50, 84
12, 168345, Note_on_c, 1, 69, 84
12, 168364, Note_on_c, 1, 72, 0
12, 168451, Note_on_c, 1, 71, 84
12, 168457, Note_on_c, 1, 72, 0
12, 168468, Note_on_c, 1, 67, 0
12, 168478, Note_on_c, 1, 69, 0
12, 168515, Note_on_c, 1, 67, 86
12, 168520, Note_on_c, 1, 76, 93
12, 168527, Note_on_c, 1, 72, 85
12, 168572, Note_on_c, 1, 69, 83
12, 168591, Note_on_c, 1, 71, 0
12, 168658, Note_on_c, 1, 50, 0
12, 168698, Note_on_c, 1, 71, 88
12, 168719, Note_on_c, 1, 72, 0
12, 168722, Note_on_c, 1, 69, 0
12, 168747, Note_on_c, 1, 50, 92
12, 168812, Note_on_c, 1, 67, 0
12, 168823, Note_on_c, 1, 69, 86
12, 168874, Note_on_c, 1, 71, 0
12, 168950, Note_on_c, 1, 76, 95
12, 168957, Note_on_c, 1, 71, 67
12, 168974, Note_on_c, 1, 76, 0
12, 168981, Note_on_c, 1, 69, 0
12, 168983, Note_on_c, 1, 71, 0
12, 168997, Note_on_c, 1, 67, 86
12, 169085, Note_on_c, 1, 69, 85
12, 169089, Note_on_c, 1, 79, 0
12, 169123, Note_on_c, 1, 76, 0
12, 169196, Note_on_c, 1, 74, 89
12, 169230, Note_on_c, 1, 69, 0
12, 169285, Note_on_c, 1, 55, 80
12, 169322, Note_on_c, 1, 69, 87
12, 169334, Note_on_c, 1, 74, 0
12, 169434, Note_on_c, 1, 72, 87
12, 169437, Note_on_c, 1, 73, 75
12, 169466, Note_on_c, 1, 69, 0
12, 169475, Note_on_c, 1, 74, 87
12, 169477, Note_on_c, 1, 71, 87
12, 169482, Note_on_c, 1, 79, 89
12, 169508, Note_on_c, 1, 73, 0
12, 169524, Note_on_c, 1, 50, 0
12, 169542, Note_on_c, 1, 69, 85
12, 169546, Note_on_c, 1, 72, 0
12, 169671, Note_on_c, 1, 71, 89
12, 169709, Note_on_c, 1, 69, 0
12, 169713, Note_on_c, 1, 74, 0
12, 169716, Note_on_c, 1, 71, 0
12, 169739, Note_on_c, 1, 79, 0
12, 169741, Note_on_c, 1, 67, 0
12, 169784, Note_on_c, 1, 69, 88
12, 169791, Note_on_c, 1, 67, 82
12, 169791, Note_on_c, 1, 79, 87
12, 169795, Note_on_c, 1, 71, 90
12, 169795, Note_on_c, 1, 74, 92
12, 169805, Note_on_c, 1, 71, 0
12, 169906, Note_on_c, 1, 76, 92
12, 169941, Note_on_c, 1, 69, 0
12, 169971, Note_on_c, 1, 55, 0
12, 170030, Note_on_c, 1, 69, 85
12, 170072, Note_on_c, 1, 76, 0
12, 170179, Note_on_c, 1, 69, 0
12, 170198, Note_on_c, 1, 55, 87
12, 170245, Note_on_c, 1, 69, 82
12, 170303, Note_on_c, 1, 74, 0
12, 170305, Note_on_c, 1, 72, 84
12, 170333, Note_on_c, 1, 71, 0
12, 170362, Note_on_c, 1, 67, 0
12, 170367, Note_on_c, 1, 74, 89
12, 170376, Note_on_c, 1, 69, 0
12, 170399, Note_on_c, 1, 72, 0
12, 170415, Note_on_c, 1, 71, 88
12, 170415, Note_on_c, 1, 67, 73
12, 170422, Note_on_c, 1, 76, 86
12, 170491, Note_on_c, 1, 76, 90
12, 170517, Note_on_c, 1, 74, 0
12, 170602, Note_on_c, 1, 69, 84
12, 170604, Note_on_c, 1, 76, 0
12, 170640, Note_on_c, 1, 55, 0
12, 170652, Note_on_c, 1, 72, 81
12, 170668, Note_on_c, 1, 55, 81
12, 170718, Note_on_c, 1, 69, 0
12, 170727, Note_on_c, 1, 74, 82
12, 170750, Note_on_c, 1, 67, 0
12, 170773, Note_on_c, 1, 71, 0
12, 170780, Note_on_c, 1, 76, 0
12, 170828, Note_on_c, 1, 72, 0
12, 170834, Note_on_c, 1, 76, 89
12, 170855, Note_on_c, 1, 74, 0
12, 170909, Note_on_c, 1, 50, 90
12, 170956, Note_on_c, 1, 55, 0
12, 170980, Note_on_c, 1, 77, 86
12, 170993, Note_on_c, 1, 76, 0
12, 171103, Note_on_c, 1, 79, 0
12, 171106, Note_on_c, 1, 79, 74
12, 171150, Note_on_c, 1, 77, 0
12, 171155, Note_on_c, 1, 57, 90
12, 171227, Note_on_c, 1, 81, 84
12, 171248, Note_on_c, 1, 79, 0
12, 171358, Note_on_c, 1, 81, 85
12, 171363, Note_on_c, 1, 78, 87
12, 171370, Note_on_c, 1, 69, 84
12, 171379, Note_on_c, 1, 74, 92
12, 171482, Note_on_c, 1, 74, 88
12, 171534, Note_on_c, 1, 76, 89
12, 171537, Note_on_c, 1, 81, 0
12, 171561, Note_on_c, 1, 74, 0
12, 171571, Note_on_c, 1, 74, 0
12, 171588, Note_on_c, 1, 81, 0
12, 171599, Note_on_c, 1, 77, 86
12, 171602, Note_on_c, 1, 69, 0
12, 171611, Note_on_c, 1, 78, 0
12, 171636, Note_on_c, 1, 76, 0
12, 171700, Note_on_c, 1, 78, 88
12, 171702, Note_on_c, 1, 69, 84
12, 171705, Note_on_c, 1, 81, 87
12, 171709, Note_on_c, 1, 74, 86
12, 171716, Note_on_c, 1, 77, 0
12, 171722, Note_on_c, 1, 79, 92
12, 171806, Control_c, 1, 1, 4
12, 171850, Note_on_c, 1, 81, 89
12, 171865, Note_on_c, 1, 79, 0
12, 171887, Note_on_c, 1, 50, 0
12, 171946, Control_c, 1, 1, 8
12, 171953, Note_on_c, 1, 57, 0
12, 171969, Note_on_c, 1, 81, 0
12, 171973, Note_on_c, 1, 74, 86
12, 172012, Control_c, 1, 1, 12
12, 172026, Note_on_c, 1, 76, 92
12, 172046, Note_on_c, 1, 74, 0
12, 172090, Note_on_c, 1, 77, 76
12, 172110, Note_on_c, 1, 50, 92
12, 172111, Note_on_c, 1, 76, 0
12, 172120, Control_c, 1, 1, 16
12, 172203, Note_on_c, 1, 79, 90
12, 172211, Control_c, 1, 1, 20
12, 172246, Note_on_c, 1, 77, 0
12, 172302, Control_c, 1, 1, 24
12, 172327, Note_on_c, 1, 74, 0
12, 172327, Note_on_c, 1, 81, 92
12, 172334, Note_on_c, 1, 79, 0
12, 172341, Note_on_c, 1, 57, 92
12, 172376, Note_on_c, 1, 76, 82
12, 172426, Control_c, 1, 1, 28
12, 172454, Note_on_c, 1, 74, 87
12, 172473, Note_on_c, 1, 81, 0
12, 172503, Note_on_c, 1, 76, 90
12, 172531, Note_on_c, 1, 69, 0
12, 172534, Note_on_c, 1, 74, 0
12, 172561, Note_on_c, 1, 74, 88
12, 172571, Note_on_c, 1, 77, 86
12, 172576, Control_c, 1, 1, 33
12, 172608, Note_on_c, 1, 76, 0
12, 172657, Note_on_c, 1, 50, 0
12, 172667, Control_c, 1, 1, 37
12, 172687, Note_on_c, 1, 77, 0
12, 172693, Note_on_c, 1, 79, 89
12, 172711, Note_on_c, 1, 57, 0
12, 172807, Control_c, 1, 1, 41
12, 172816, Note_on_c, 1, 50, 94
12, 172827, Note_on_c, 1, 81, 94
12, 172842, Note_on_c, 1, 76, 0
12, 172856, Note_on_c, 1, 81, 0
12, 172869, Note_on_c, 1, 79, 0
12, 172875, Note_on_c, 1, 74, 0
12, 172875, Note_on_c, 1, 78, 0
12, 172882, Note_on_c, 1, 81, 0
12, 172896, Note_on_c, 1, 69, 57
12, 172940, Note_on_c, 1, 50, 110
12, 173030, Control_c, 1, 1, 45
12, 173041, Note_on_c, 1, 69, 0
12, 173055, Note_on_c, 1, 57, 89
12, 173166, Note_on_c, 1, 79, 76
12, 173291, Note_on_c, 1, 81, 90
12, 173294, Note_on_c, 1, 74, 80
12, 173301, Note_on_c, 1, 83, 80
12, 173305, Note_on_c, 1, 79, 0
12, 173317, Note_on_c, 1, 69, 78
12, 173419, Note_on_c, 1, 79, 90
12, 173425, Note_on_c, 1, 81, 0
12, 173504, Note_on_c, 1, 69, 0
12, 173537, Note_on_c, 1, 74, 0
12, 173576, Note_on_c, 1, 79, 0
12, 173604, Note_on_c, 1, 83, 92
12, 173647, Note_on_c, 1, 74, 89
12, 173656, Note_on_c, 1, 69, 85
12, 173762, Note_on_c, 1, 50, 0
12, 173762, Note_on_c, 1, 57, 0
12, 173782, Note_on_c, 1, 83, 0
12, 173843, Note_on_c, 1, 83, 84
12, 173913, Note_on_c, 1, 81, 73
12, 173982, Note_on_c, 1, 79, 81
12, 173985, Note_on_c, 1, 83, 0
12, 173987, Note_on_c, 1, 81, 0
12, 174024, Note_on_c, 1, 50, 89
12, 174055, Note_on_c, 1, 79, 0
12, 174077, Note_on_c, 1, 83, 87
12, 174190, Note_on_c, 1, 81, 88
12, 174260, Note_on_c, 1, 78, 79
12, 174260, Note_on_c, 1, 57, 87
12, 174302, Note_on_c, 1, 79, 86
12, 174342, Note_on_c, 1, 81, 0
12, 174356, Note_on_c, 1, 83, 0
12, 174372, Note_on_c, 1, 74, 0
12, 174377, Note_on_c, 1, 69, 0
12, 174427, Note_on_c, 1, 76, 93
12, 174433, Note_on_c, 1, 79, 0
12, 174517, Note_on_c, 1, 69, 91
12, 174563, Note_on_c, 1, 79, 97
12, 174574, Note_on_c, 1, 50, 0
12, 174578, Note_on_c, 1, 76, 0
12, 174595, Note_on_c, 1, 50, 0
12, 174597, Note_on_c, 1, 83, 0
12, 174608, Note_on_c, 1, 79, 0
12, 174653, Note_on_c, 1, 57, 0
12, 174689, Note_on_c, 1, 60, 88
12, 174691, Note_on_c, 1, 62, 86
12, 174700, Note_on_c, 1, 68, 76
12, 174701, Note_on_c, 1, 62, 0
12, 174720, Note_on_c, 1, 60, 96
12, 174737, Note_on_c, 1, 50, 94
12, 174739, Note_on_c, 1, 68, 0
12, 174757, Note_on_c, 1, 64, 87
12, 174784, Note_on_c, 1, 60, 0
12, 174798, Note_on_c, 1, 78, 0
12, 174830, Note_on_c, 1, 67, 79
12, 174848, Note_on_c, 1, 64, 0
12, 174933, Note_on_c, 1, 69, 88
12, 174962, Note_on_c, 1, 67, 0
12, 174971, Note_on_c, 1, 55, 86
12, 175013, Note_on_c, 1, 69, 0
12, 175036, Note_on_c, 1, 67, 87
12, 175103, Note_on_c, 1, 69, 0
12, 175134, Note_on_c, 1, 64, 79
12, 175143, Note_on_c, 1, 67, 0
12, 175194, Note_on_c, 1, 67, 88
12, 175194, Note_on_c, 1, 72, 84
12, 175205, Note_on_c, 1, 81, 77
12, 175215, Note_on_c, 1, 79, 69
12, 175222, Note_on_c, 1, 76, 87
12, 175257, Note_on_c, 1, 64, 0
12, 175277, Note_on_c, 1, 69, 74
12, 175393, Note_on_c, 1, 72, 85
12, 175404, Note_on_c, 1, 67, 0
12, 175416, Note_on_c, 1, 79, 0
12, 175425, Note_on_c, 1, 81, 0
12, 175437, Note_on_c, 1, 76, 0
12, 175449, Note_on_c, 1, 72, 0
12, 175534, Note_on_c, 1, 74, 89
12, 175536, Note_on_c, 1, 69, 0
12, 175550, Note_on_c, 1, 72, 0
12, 175554, Note_on_c, 1, 79, 95
12, 175561, Note_on_c, 1, 76, 93
12, 175561, Note_on_c, 1, 72, 88
12, 175678, Note_on_c, 1, 67, 90
12, 175694, Note_on_c, 1, 74, 0
12, 175747, Note_on_c, 1, 72, 92
12, 175769, Note_on_c, 1, 55, 0
12, 175814, Note_on_c, 1, 74, 88
12, 175842, Note_on_c, 1, 67, 0
12, 175907, Note_on_c, 1, 50, 0
12, 175928, Note_on_c, 1, 76, 94
12, 175932, Note_on_c, 1, 72, 0
12, 175979, Note_on_c, 1, 74, 0
12, 175985, Note_on_c, 1, 55, 88
12, 176060, Note_on_c, 1, 79, 90
12, 176112, Note_on_c, 1, 76, 0
12, 176160, Note_on_c, 1, 60, 0
12, 176169, Note_on_c, 1, 76, 92
12, 176183, Note_on_c, 1, 50, 91
12, 176183, Note_on_c, 1, 74, 91
12, 176221, Note_on_c, 1, 72, 0
12, 176247, Note_on_c, 1, 55, 0
12, 176286, Note_on_c, 1, 74, 99
12, 176352, Note_on_c, 1, 79, 0
12, 176407, Note_on_c, 1, 72, 96
12, 176408, Note_on_c, 1, 76, 0
12, 176417, Note_on_c, 1, 72, 81
12, 176417, Note_on_c, 1, 55, 91
12, 176418, Note_on_c, 1, 74, 0
12, 176460, Note_on_c, 1, 74, 0
12, 176504, Note_on_c, 1, 50, 0
12, 176521, Note_on_c, 1, 74, 97
12, 176552, Note_on_c, 1, 72, 0
12, 176560, Note_on_c, 1, 76, 0
12, 176595, Note_on_c, 1, 55, 0
12, 176633, Note_on_c, 1, 50, 90
12, 176637, Note_on_c, 1, 76, 92
12, 176640, Note_on_c, 1, 55, 96
12, 176656, Note_on_c, 1, 79, 0
12, 176663, Note_on_c, 1, 72, 0
12, 176664, Note_on_c, 1, 74, 0
12, 176826, Note_on_c, 1, 77, 84
12, 176859, Note_on_c, 1, 76, 0
12, 176885, Note_on_c, 1, 57, 77
12, 176985, Note_on_c, 1, 77, 0
12, 176995, Note_on_c, 1, 79, 94
12, 177101, Note_on_c, 1, 79, 87
12, 177105, Note_on_c, 1, 71, 86
12, 177105, Note_on_c, 1, 74, 92
12, 177131, Note_on_c, 1, 81, 96
12, 177163, Note_on_c, 1, 79, 0
12, 177176, Note_on_c, 1, 57, 0
12, 177213, Note_on_c, 1, 50, 0
12, 177272, Note_on_c, 1, 77, 90
12, 177295, Note_on_c, 1, 81, 0
12, 177391, Note_on_c, 1, 55, 94
12, 177414, Note_on_c, 1, 79, 0
12, 177417, Note_on_c, 1, 74, 0
12, 177417, Note_on_c, 1, 71, 0
12, 177447, Note_on_c, 1, 77, 0
12, 177457, Note_on_c, 1, 79, 90
12, 177471, Note_on_c, 1, 77, 71
12, 177497, Note_on_c, 1, 77, 0
12, 177508, Note_on_c, 1, 74, 98
12, 177510, Note_on_c, 1, 71, 92
12, 177517, Note_on_c, 1, 79, 91
12, 177602, Note_on_c, 1, 79, 0
12, 177607, Note_on_c, 1, 84, 90
12, 177763, Note_on_c, 1, 81, 90
12, 177807, Note_on_c, 1, 84, 0
12, 177948, Note_on_c, 1, 71, 0
12, 177949, Note_on_c, 1, 77, 90
12, 177955, Note_on_c, 1, 79, 0
12, 177957, Note_on_c, 1, 84, 80
12, 177960, Note_on_c, 1, 74, 0
12, 178068, Note_on_c, 1, 81, 0
12, 178069, Note_on_c, 1, 84, 0
12, 178074, Note_on_c, 1, 74, 89
12, 178075, Note_on_c, 1, 86, 94
12, 178079, Note_on_c, 1, 71, 88
12, 178080, Note_on_c, 1, 55, 0
12, 178086, Note_on_c, 1, 79, 91
12, 178108, Note_on_c, 1, 77, 0
12, 178295, Note_on_c, 1, 79, 94
12, 178303, Note_on_c, 1, 50, 88
12, 178329, Note_on_c, 1, 79, 0
12, 178334, Note_on_c, 1, 74, 0
12, 178353, Note_on_c, 1, 55, 0
12, 178371, Note_on_c, 1, 71, 0
12, 178387, Note_on_c, 1, 86, 0
12, 178420, Note_on_c, 1, 83, 92
12, 178523, Note_on_c, 1, 57, 88
12, 178548, Note_on_c, 1, 86, 95
12, 178552, Note_on_c, 1, 83, 0
12, 178560, Note_on_c, 1, 50, 96
12, 178580, Note_on_c, 1, 79, 0
12, 178780, Note_on_c, 1, 84, 88
12, 178875, Note_on_c, 1, 86, 0
12, 179009, Note_on_c, 1, 79, 92
12, 179057, Note_on_c, 1, 66, 83
12, 179057, Note_on_c, 1, 69, 86
12, 179062, Note_on_c, 1, 74, 85
12, 179146, Note_on_c, 1, 62, 92
12, 179180, Note_on_c, 1, 79, 0
12, 179188, Note_on_c, 1, 84, 0
12, 179232, Note_on_c, 1, 50, 0
12, 179254, Note_on_c, 1, 57, 0
12, 179317, Note_on_c, 1, 50, 96
12, 179364, Note_on_c, 1, 66, 0
12, 179368, Note_on_c, 1, 69, 0
12, 179371, Note_on_c, 1, 74, 0
12, 179394, Note_on_c, 1, 64, 92
12, 179424, Note_on_c, 1, 74, 86
12, 179424, Note_on_c, 1, 66, 85
12, 179429, Note_on_c, 1, 69, 92
12, 179525, Note_on_c, 1, 69, 92
12, 179564, Note_on_c, 1, 64, 0
12, 179646, Note_on_c, 1, 62, 0
12, 179722, Note_on_c, 1, 57, 89
12, 179777, Note_on_c, 1, 66, 85
12, 179823, Note_on_c, 1, 69, 0
12, 179881, Note_on_c, 1, 67, 85
12, 179909, Note_on_c, 1, 66, 0
12, 179979, Note_on_c, 1, 64, 83
12, 179992, Note_on_c, 1, 71, 78
12, 180096, Note_on_c, 1, 73, 87
12, 180103, Note_on_c, 1, 50, 0
12, 180125, Note_on_c, 1, 71, 0
12, 180159, Note_on_c, 1, 57, 0
12, 180232, Note_on_c, 1, 50, 98
12, 180233, Note_on_c, 1, 74, 95
12, 180235, Note_on_c, 1, 73, 0
12, 180266, Note_on_c, 1, 67, 0
12, 180345, Note_on_c, 1, 76, 90
12, 180346, Note_on_c, 1, 74, 0
12, 180360, Note_on_c, 1, 66, 0
12, 180433, Note_on_c, 1, 69, 0
12, 180466, Note_on_c, 1, 66, 88
12, 180480, Note_on_c, 1, 50, 0
12, 180480, Note_on_c, 1, 74, 96
12, 180487, Note_on_c, 1, 57, 91
12, 180503, Note_on_c, 1, 76, 0
12, 180515, Note_on_c, 1, 74, 0
12, 180534, Note_on_c, 1, 64, 0
12, 180548, Note_on_c, 1, 69, 74
12, 180572, Note_on_c, 1, 66, 0
12, 180606, Note_on_c, 1, 71, 76
12, 180662, Note_on_c, 1, 73, 85
12, 180687, Note_on_c, 1, 71, 0
12, 180730, Note_on_c, 1, 69, 0
12, 180732, Note_on_c, 1, 74, 88
12, 180755, Note_on_c, 1, 73, 0
12, 180815, Note_on_c, 1, 76, 89
12, 180830, Note_on_c, 1, 74, 0
12, 180927, Note_on_c, 1, 78, 78
12, 180962, Note_on_c, 1, 76, 0
12, 180987, Note_on_c, 1, 69, 84
12, 180987, Note_on_c, 1, 62, 83
12, 180999, Note_on_c, 1, 74, 85
12, 181034, Note_on_c, 1, 79, 85
12, 181055, Note_on_c, 1, 50, 0
12, 181062, Note_on_c, 1, 57, 0
12, 181130, Note_on_c, 1, 81, 88
12, 181200, Note_on_c, 1, 69, 0
12, 181207, Note_on_c, 1, 74, 0
12, 181218, Note_on_c, 1, 83, 87
12, 181219, Note_on_c, 1, 62, 0
12, 181258, Note_on_c, 1, 81, 0
12, 181273, Note_on_c, 1, 62, 82
12, 181273, Note_on_c, 1, 69, 86
12, 181278, Note_on_c, 1, 74, 81
12, 181290, Note_on_c, 1, 85, 84
12, 181308, Note_on_c, 1, 50, 87
12, 181311, Note_on_c, 1, 83, 0
12, 181329, Note_on_c, 1, 79, 0
12, 181354, Note_on_c, 1, 78, 0
12, 181371, Note_on_c, 1, 86, 82
12, 181472, Note_on_c, 1, 85, 0
12, 181474, Note_on_c, 1, 88, 76
12, 181477, Note_on_c, 1, 86, 0
12, 181625, Note_on_c, 1, 86, 86
12, 181674, Note_on_c, 1, 88, 0
12, 181718, Note_on_c, 1, 57, 90
12, 181732, Note_on_c, 1, 85, 79
12, 181767, Note_on_c, 1, 50, 0
12, 181825, Note_on_c, 1, 74, 0
12, 181846, Note_on_c, 1, 69, 0
12, 181855, Note_on_c, 1, 86, 0
12, 181855, Note_on_c, 1, 83, 85
12, 181867, Note_on_c, 1, 62, 0
12, 181872, Note_on_c, 1, 85, 0
12, 181945, Note_on_c, 1, 62, 82
12, 181945, Note_on_c, 1, 69, 88
12, 181956, Note_on_c, 1, 74, 85
12, 181980, Note_on_c, 1, 81, 94
12, 181984, Note_on_c, 1, 83, 0
12, 182069, Note_on_c, 1, 83, 89
12, 182078, Note_on_c, 1, 57, 0
12, 182086, Note_on_c, 1, 81, 0
12, 182188, Note_on_c, 1, 85, 78
12, 182204, Note_on_c, 1, 50, 94
12, 182205, Note_on_c, 1, 83, 0
12, 182290, Note_on_c, 1, 86, 94
12, 182314, Note_on_c, 1, 85, 0
12, 182400, Note_on_c, 1, 74, 0
12, 182400, Note_on_c, 1, 60, 96
12, 182425, Note_on_c, 1, 85, 86
12, 182441, Note_on_c, 1, 57, 85
12, 182455, Note_on_c, 1, 62, 0
12, 182476, Note_on_c, 1, 69, 0
12, 182487, Note_on_c, 1, 74, 0
12, 182512, Note_on_c, 1, 86, 0
12, 182521, Note_on_c, 1, 83, 84
12, 182535, Note_on_c, 1, 85, 0
12, 182624, Note_on_c, 1, 81, 85
12, 182632, Note_on_c, 1, 83, 0
12, 182740, Note_on_c, 1, 83, 88
12, 182759, Note_on_c, 1, 81, 0
12, 182866, Note_on_c, 1, 81, 89
12, 182872, Note_on_c, 1, 83, 0
12, 182920, Note_on_c, 1, 72, 85
12, 182932, Note_on_c, 1, 64, 81
12, 182932, Note_on_c, 1, 67, 84
12, 182955, Note_on_c, 1, 57, 0
12, 182978, Note_on_c, 1, 83, 89
12, 182991, Note_on_c, 1, 50, 0
12, 183010, Note_on_c, 1, 81, 0
12, 183081, Note_on_c, 1, 81, 86
12, 183093, Note_on_c, 1, 83, 0
12, 183112, Note_on_c, 1, 67, 0
12, 183112, Note_on_c, 1, 72, 0
12, 183129, Note_on_c, 1, 64, 0
12, 183206, Note_on_c, 1, 83, 101
12, 183220, Note_on_c, 1, 72, 86
12, 183222, Note_on_c, 1, 81, 0
12, 183222, Note_on_c, 1, 67, 89
12, 183227, Note_on_c, 1, 64, 80
12, 183255, Note_on_c, 1, 48, 84
12, 183328, Note_on_c, 1, 81, 89
12, 183334, Note_on_c, 1, 83, 0
12, 183346, Note_on_c, 1, 48, 0
12, 183436, Note_on_c, 1, 83, 94
12, 183458, Note_on_c, 1, 81, 0
12, 183539, Note_on_c, 1, 81, 88
12, 183542, Note_on_c, 1, 83, 0
12, 183622, Note_on_c, 1, 48, 81
12, 183643, Note_on_c, 1, 83, 101
12, 183658, Note_on_c, 1, 81, 0
12, 183732, Note_on_c, 1, 64, 0
12, 183746, Note_on_c, 1, 72, 0
12, 183758, Note_on_c, 1, 67, 0
12, 183762, Note_on_c, 1, 81, 90
12, 183768, Note_on_c, 1, 83, 0
12, 183849, Note_on_c, 1, 64, 85
12, 183849, Note_on_c, 1, 72, 87
12, 183849, Note_on_c, 1, 67, 87
12, 183871, Note_on_c, 1, 83, 89
12, 183890, Note_on_c, 1, 81, 0
12, 183941, Note_on_c, 1, 48, 0
12, 183975, Note_on_c, 1, 81, 90
12, 183997, Note_on_c, 1, 83, 0
12, 184094, Note_on_c, 1, 88, 90
12, 184095, Note_on_c, 1, 48, 90
12, 184117, Note_on_c, 1, 81, 0
12, 184163, Note_on_c, 1, 86, 90
12, 184174, Note_on_c, 1, 88, 0
12, 184231, Note_on_c, 1, 88, 90
12, 184240, Note_on_c, 1, 86, 0
12, 184263, Note_on_c, 1, 48, 0
12, 184288, Note_on_c, 1, 86, 90
12, 184301, Note_on_c, 1, 88, 0
12, 184320, Note_on_c, 1, 60, 0
12, 184320, Note_on_c, 1, 55, 96
12, 184328, Note_on_c, 1, 86, 0
12, 184347, Note_on_c, 1, 86, 101
12, 184357, Note_on_c, 1, 50, 88
12, 184415, Note_on_c, 1, 88, 86
12, 184421, Note_on_c, 1, 86, 0
12, 184423, Note_on_c, 1, 72, 0
12, 184451, Note_on_c, 1, 64, 0
12, 184469, Note_on_c, 1, 86, 94
12, 184479, Note_on_c, 1, 88, 0
12, 184529, Note_on_c, 1, 88, 89
12, 184539, Note_on_c, 1, 86, 0
12, 184577, Note_on_c, 1, 86, 89
12, 184589, Note_on_c, 1, 88, 0
12, 184596, Note_on_c, 1, 67, 0
12, 184626, Note_on_c, 1, 55, 86
12, 184641, Note_on_c, 1, 88, 88
12, 184644, Note_on_c, 1, 86, 0
12, 184686, Note_on_c, 1, 86, 87
12, 184699, Note_on_c, 1, 88, 0
12, 184745, Note_on_c, 1, 88, 89
12, 184750, Note_on_c, 1, 86, 0
12, 184793, Note_on_c, 1, 86, 89
12, 184803, Note_on_c, 1, 88, 0
12, 184839, Note_on_c, 1, 74, 88
12, 184848, Note_on_c, 1, 88, 87
12, 184851, Note_on_c, 1, 67, 88
12, 184851, Note_on_c, 1, 62, 85
12, 184856, Note_on_c, 1, 86, 0
12, 184894, Note_on_c, 1, 86, 90
12, 184909, Note_on_c, 1, 88, 0
12, 184963, Note_on_c, 1, 88, 84
12, 184965, Note_on_c, 1, 55, 0
12, 184970, Note_on_c, 1, 50, 0
12, 184984, Note_on_c, 1, 86, 0
12, 185080, Note_on_c, 1, 74, 0
12, 185080, Note_on_c, 1, 67, 0
12, 185092, Note_on_c, 1, 62, 0
12, 185115, Note_on_c, 1, 55, 89
12, 185123, Note_on_c, 1, 88, 0
12, 185128, Note_on_c, 1, 89, 80
12, 185162, Note_on_c, 1, 74, 91
12, 185167, Note_on_c, 1, 67, 93
12, 185169, Note_on_c, 1, 62, 85
12, 185190, Note_on_c, 1, 88, 89
12, 185203, Note_on_c, 1, 89, 0
12, 185257, Note_on_c, 1, 88, 0
12, 185261, Note_on_c, 1, 89, 86
12, 185313, Note_on_c, 1, 88, 88
12, 185314, Note_on_c, 1, 55, 0
12, 185334, Note_on_c, 1, 89, 0
12, 185373, Note_on_c, 1, 88, 0
12, 185380, Note_on_c, 1, 89, 86
12, 185426, Note_on_c, 1, 88, 87
12, 185446, Note_on_c, 1, 89, 0
12, 185488, Note_on_c, 1, 88, 0
12, 185499, Note_on_c, 1, 89, 86
12, 185527, Note_on_c, 1, 50, 84
12, 185551, Note_on_c, 1, 88, 88
12, 185569, Note_on_c, 1, 89, 0
12, 185595, Note_on_c, 1, 67, 0
12, 185602, Note_on_c, 1, 74, 0
12, 185615, Note_on_c, 1, 88, 0
12, 185625, Note_on_c, 1, 89, 87
12, 185644, Note_on_c, 1, 62, 0
12, 185666, Note_on_c, 1, 88, 90
12, 185691, Note_on_c, 1, 89, 0
12, 185743, Note_on_c, 1, 89, 79
12, 185745, Note_on_c, 1, 88, 0
12, 185749, Note_on_c, 1, 65, 90
12, 185761, Note_on_c, 1, 62, 89
12, 185784, Note_on_c, 1, 55, 86
12, 185804, Note_on_c, 1, 88, 88
12, 185820, Note_on_c, 1, 89, 0
12, 185888, Note_on_c, 1, 89, 88
12, 185916, Note_on_c, 1, 88, 0
12, 186033, Note_on_c, 1, 93, 90
12, 186044, Note_on_c, 1, 67, 90
12, 186055, Note_on_c, 1, 89, 0
12, 186061, Note_on_c, 1, 65, 0
12, 186199, Note_on_c, 1, 62, 0
12, 186240, Note_on_c, 1, 55, 0
12, 186240, Note_on_c, 1, 38, 96
12, 186252, Note_on_c, 1, 50, 0
12, 186260, Note_on_c, 1, 67, 0
12, 186264, Note_on_c, 1, 55, 0
12, 186281, Note_on_c, 1, 62, 89
12, 186323, Note_on_c, 1, 50, 90
12, 186685, Control_c, 1, 1, 90
12, 186694, Control_c, 1, 1, 94
12, 186702, Control_c, 1, 1, 99
12, 186708, Control_c, 1, 1, 103
12, 186719, Control_c, 1, 1, 111
12, 186729, Control_c, 1, 1, 115
12, 186739, Control_c, 1, 1, 119
12, 186753, Control_c, 1, 1, 123
12, 186765, Note_on_c, 1, 66, 82
12, 186765, Note_on_c, 1, 74, 89
12, 186766, Control_c, 1, 1, 127
12, 186777, Note_on_c, 1, 69, 83
12, 186816, Note_on_c, 1, 50, 0
12, 187001, Note_on_c, 1, 74, 0
12, 187008, Note_on_c, 1, 69, 0
12, 187015, Note_on_c, 1, 66, 0
12, 187015, Note_on_c, 1, 62, 0
12, 187048, Note_on_c, 1, 50, 92
12, 187056, Note_on_c, 1, 91, 87
12, 187095, Note_on_c, 1, 66, 80
12, 187102, Note_on_c, 1, 74, 85
12, 187102, Note_on_c, 1, 62, 84
12, 187107, Note_on_c, 1, 69, 87
12, 187227, Control_c, 1, 1, 123
12, 187323, Control_c, 1, 1, 127
12, 187328, Note_on_c, 1, 90, 96
12, 187364, Note_on_c, 1, 50, 0
12, 187437, Control_c, 1, 1, 123
12, 187446, Control_c, 1, 1, 119
12, 187457, Control_c, 1, 1, 115
12, 187471, Control_c, 1, 1, 107
12, 187481, Note_on_c, 1, 57, 89
12, 187484, Control_c, 1, 1, 103
12, 187523, Control_c, 1, 1, 107
12, 187534, Control_c, 1, 1, 111
12, 187544, Control_c, 1, 1, 119
12, 187554, Control_c, 1, 1, 123
12, 187568, Control_c, 1, 1, 127
12, 187575, Note_on_c, 1, 90, 0
12, 187607, Note_on_c, 1, 91, 0
12, 187666, Note_on_c, 1, 91, 87
12, 187710, Note_on_c, 1, 50, 92
12, 187792, Note_on_c, 1, 62, 0
12, 187825, Note_on_c, 1, 69, 0
12, 187829, Note_on_c, 1, 93, 0
12, 187834, Note_on_c, 1, 66, 0
12, 187836, Note_on_c, 1, 91, 0
12, 187940, Note_on_c, 1, 64, 88
12, 187965, Note_on_c, 1, 54, 78
12, 188019, Note_on_c, 1, 74, 0
12, 188051, Note_on_c, 1, 66, 86
12, 188140, Control_c, 1, 1, 123
12, 188160, Note_on_c, 1, 38, 0
12, 188160, Control_c, 1, 1, 119
12, 188173, Control_c, 1, 1, 115
12, 188183, Note_on_c, 1, 69, 77
12, 188187, Control_c, 1, 1, 107
12, 188196, Control_c, 1, 1, 103
12, 188207, Control_c, 1, 1, 99
12, 188213, Control_c, 1, 1, 94
12, 188227, Control_c, 1, 1, 90
12, 188237, Control_c, 1, 1, 86
12, 188254, Control_c, 1, 1, 82
12, 188270, Note_on_c, 1, 64, 0
12, 188272, Note_on_c, 1, 69, 92
12, 188285, Control_c, 1, 1, 78
12, 188307, Note_on_c, 1, 57, 0
12, 188319, Note_on_c, 1, 66, 0
12, 188424, Note_on_c, 1, 54, 0
12, 188492, Note_on_c, 1, 57, 89
12, 188670, Note_on_c, 1, 81, 88
12, 188674, Note_on_c, 1, 69, 0
12, 188681, Note_on_c, 1, 78, 88
12, 188684, Note_on_c, 1, 74, 89
12, 188752, Note_on_c, 1, 50, 0
12, 188775, Note_on_c, 1, 57, 0
12, 188885, Note_on_c, 1, 64, 94
12, 188925, Note_on_c, 1, 74, 0
12, 188941, Note_on_c, 1, 81, 0
12, 188948, Note_on_c, 1, 78, 0
12, 188948, Note_on_c, 1, 50, 83
12, 189000, Note_on_c, 1, 78, 84
12, 189000, Note_on_c, 1, 81, 87
12, 189009, Note_on_c, 1, 74, 89
12, 189024, Note_on_c, 1, 66, 101
12, 189074, Note_on_c, 1, 64, 0
12, 189240, Note_on_c, 1, 74, 91
12, 189434, Note_on_c, 1, 66, 0
12, 189559, Note_on_c, 1, 50, 0
12, 189585, Note_on_c, 1, 71, 83
12, 189627, Note_on_c, 1, 57, 90
12, 189714, Note_on_c, 1, 69, 90
12, 189847, Note_on_c, 1, 50, 90
12, 189863, Note_on_c, 1, 81, 0
12, 189865, Note_on_c, 1, 74, 0
12, 189912, Note_on_c, 1, 78, 0
12, 189960, Note_on_c, 1, 64, 72
12, 189982, Note_on_c, 1, 69, 0
12, 189985, Note_on_c, 1, 69, 0
12, 189993, Note_on_c, 1, 71, 0
12, 190003, Note_on_c, 1, 74, 0
12, 190047, Note_on_c, 1, 67, 78
12, 190080, Note_on_c, 1, 60, 96
12, 190160, Note_on_c, 1, 64, 0
12, 190177, Note_on_c, 1, 69, 85
12, 190197, Note_on_c, 1, 67, 0
12, 190292, Note_on_c, 1, 72, 92
12, 190332, Note_on_c, 1, 69, 0
12, 190385, Note_on_c, 1, 72, 0
12, 190414, Note_on_c, 1, 76, 92
12, 190472, Note_on_c, 1, 76, 0
12, 190499, Note_on_c, 1, 72, 88
12, 190570, Note_on_c, 1, 76, 90
12, 190584, Note_on_c, 1, 79, 83
12, 190584, Note_on_c, 1, 76, 87
12, 190589, Note_on_c, 1, 67, 83
12, 190642, Note_on_c, 1, 50, 0
12, 190647, Note_on_c, 1, 57, 0
12, 190651, Note_on_c, 1, 79, 91
12, 190677, Note_on_c, 1, 72, 0
12, 190708, Note_on_c, 1, 76, 0
12, 190746, Note_on_c, 1, 81, 92
12, 190797, Note_on_c, 1, 79, 0
12, 190811, Note_on_c, 1, 79, 0
12, 190823, Note_on_c, 1, 76, 0
12, 190830, Note_on_c, 1, 67, 0
12, 190885, Note_on_c, 1, 81, 0
12, 190899, Note_on_c, 1, 79, 88
12, 190925, Note_on_c, 1, 79, 78
12, 190930, Note_on_c, 1, 76, 89
12, 190932, Note_on_c, 1, 67, 81
12, 190941, Note_on_c, 1, 79, 0
12, 190963, Note_on_c, 1, 76, 94
12, 191023, Note_on_c, 1, 79, 90
12, 191097, Note_on_c, 1, 76, 0
12, 191151, Note_on_c, 1, 82, 98
12, 191173, Note_on_c, 1, 79, 0
12, 191269, Note_on_c, 1, 82, 0
12, 191275, Note_on_c, 1, 81, 98
12, 191337, Note_on_c, 1, 55, 78
12, 191395, Note_on_c, 1, 79, 92
12, 191418, Note_on_c, 1, 81, 0
12, 191523, Note_on_c, 1, 76, 99
12, 191526, Note_on_c, 1, 79, 0
12, 191761, Note_on_c, 1, 55, 0
12, 191778, Note_on_c, 1, 86, 89
12, 191787, Note_on_c, 1, 60, 76
12, 191796, Note_on_c, 1, 76, 0
12, 191901, Note_on_c, 1, 84, 85
12, 191974, Note_on_c, 1, 60, 0
12, 192000, Note_on_c, 1, 60, 0
12, 192000, Note_on_c, 1, 43, 96
12, 192016, Note_on_c, 1, 55, 86
12, 192016, Note_on_c, 1, 81, 80
12, 192060, Note_on_c, 1, 67, 0
12, 192084, Note_on_c, 1, 76, 0
12, 192084, Note_on_c, 1, 79, 0
12, 192115, Note_on_c, 1, 83, 86
12, 192141, Note_on_c, 1, 81, 0
12, 192192, Note_on_c, 1, 86, 0
12, 192195, Note_on_c, 1, 84, 0
12, 192247, Note_on_c, 1, 79, 86
12, 192262, Note_on_c, 1, 62, 77
12, 192269, Note_on_c, 1, 83, 0
12, 192370, Note_on_c, 1, 79, 0
12, 192388, Note_on_c, 1, 77, 82
12, 192480, Note_on_c, 1, 79, 85
12, 192491, Note_on_c, 1, 74, 78
12, 192491, Note_on_c, 1, 67, 79
12, 192500, Note_on_c, 1, 79, 85
12, 192546, Note_on_c, 1, 77, 0
12, 192596, Note_on_c, 1, 55, 0
12, 192597, Note_on_c, 1, 81, 89
12, 192620, Note_on_c, 1, 79, 0
12, 192634, Note_on_c, 1, 62, 0
12, 192719, Note_on_c, 1, 74, 93
12, 192734, Note_on_c, 1, 74, 0
12, 192741, Note_on_c, 1, 79, 0
12, 192746, Note_on_c, 1, 81, 0
12, 192760, Note_on_c, 1, 67, 0
12, 192812, Note_on_c, 1, 67, 81
12, 192812, Note_on_c, 1, 74, 87
12, 192814, Note_on_c, 1, 79, 89
12, 192851, Note_on_c, 1, 76, 87
12, 192921, Note_on_c, 1, 74, 0
12, 192966, Note_on_c, 1, 77, 87
12, 193005, Note_on_c, 1, 76, 0
12, 193084, Note_on_c, 1, 79, 92
12, 193214, Note_on_c, 1, 77, 0
12, 193214, Note_on_c, 1, 55, 89
12, 193229, Note_on_c, 1, 79, 0
12, 193319, Note_on_c, 1, 64, 98
12, 193378, Note_on_c, 1, 74, 0
12, 193380, Note_on_c, 1, 65, 96
12, 193389, Note_on_c, 1, 67, 0
12, 193401, Note_on_c, 1, 79, 0
12, 193417, Note_on_c, 1, 64, 0
12, 193425, Note_on_c, 1, 79, 80
12, 193425, Note_on_c, 1, 74, 86
12, 193429, Note_on_c, 1, 67, 77
12, 193440, Note_on_c, 1, 67, 87
12, 193461, Note_on_c, 1, 65, 0
12, 193549, Note_on_c, 1, 67, 0
12, 193555, Note_on_c, 1, 69, 89
12, 193600, Note_on_c, 1, 55, 0
12, 193661, Note_on_c, 1, 69, 0
12, 193666, Note_on_c, 1, 62, 105
12, 193689, Note_on_c, 1, 62, 86
12, 193826, Note_on_c, 1, 74, 71
12, 193911, Note_on_c, 1, 67, 0
12, 193911, Note_on_c, 1, 62, 0
12, 193920, Note_on_c, 1, 43, 0
12, 193920, Note_on_c, 1, 50, 96
12, 193937, Note_on_c, 1, 57, 95
12, 193956, Note_on_c, 1, 74, 0
12, 194016, Note_on_c, 1, 50, 76
12, 194040, Note_on_c, 1, 79, 0
12, 194075, Note_on_c, 1, 62, 0
12, 194165, Note_on_c, 1, 74, 0
12, 194271, Note_on_c, 1, 57, 83
12, 194342, Note_on_c, 1, 50, 0
12, 194393, Note_on_c, 1, 62, 88
12, 194424, Note_on_c, 1, 74, 86
12, 194426, Note_on_c, 1, 86, 88
12, 194437, Note_on_c, 1, 57, 0
12, 194440, Note_on_c, 1, 78, 84
12, 194442, Note_on_c, 1, 81, 91
12, 194512, Note_on_c, 1, 66, 86
12, 194590, Note_on_c, 1, 57, 0
12, 194665, Note_on_c, 1, 74, 68
12, 194674, Note_on_c, 1, 78, 0
12, 194700, Note_on_c, 1, 81, 0
12, 194721, Note_on_c, 1, 74, 0
12, 194726, Note_on_c, 1, 62, 0
12, 194726, Note_on_c, 1, 66, 0
12, 194733, Note_on_c, 1, 86, 0
12, 194737, Note_on_c, 1, 57, 84
12, 194776, Note_on_c, 1, 57, 88
12, 194796, Note_on_c, 1, 74, 87
12, 194801, Note_on_c, 1, 81, 89
12, 194805, Note_on_c, 1, 86, 88
12, 194886, Note_on_c, 1, 50, 90
12, 194906, Note_on_c, 1, 74, 0
12, 194919, Note_on_c, 1, 57, 0
12, 194964, Note_on_c, 1, 57, 0
12, 195008, Note_on_c, 1, 54, 87
12, 195024, Note_on_c, 1, 50, 0
12, 195120, Note_on_c, 1, 74, 89
12, 195121, Note_on_c, 1, 76, 88
12, 195130, Note_on_c, 1, 76, 0
12, 195212, Note_on_c, 1, 57, 74
12, 195249, Note_on_c, 1, 78, 98
12, 195281, Note_on_c, 1, 54, 0
12, 195365, Note_on_c, 1, 86, 101
12, 195379, Note_on_c, 1, 78, 0
12, 195379, Note_on_c, 1, 74, 0
12, 195395, Note_on_c, 1, 78, 81
12, 195449, Note_on_c, 1, 57, 0
12, 195494, Note_on_c, 1, 86, 0
12, 195494, Note_on_c, 1, 74, 96
12, 195596, Note_on_c, 1, 74, 0
12, 195612, Note_on_c, 1, 36, 73
12, 195615, Note_on_c, 1, 38, 81
12, 195638, Note_on_c, 1, 74, 0
12, 195662, Note_on_c, 1, 57, 90
12, 195683, Note_on_c, 1, 86, 0
12, 195686, Note_on_c, 1, 36, 0
12, 195732, Note_on_c, 1, 81, 0
12, 195734, Note_on_c, 1, 78, 0
12, 195755, Note_on_c, 1, 74, 95
12, 195824, Note_on_c, 1, 38, 0
12, 195840, Note_on_c, 1, 50, 0
12, 195846, Note_on_c, 1, 78, 83
12, 195861, Note_on_c, 1, 62, 87
12, 195898, Note_on_c, 1, 57, 0
12, 195956, Note_on_c, 1, 86, 101
12, 195969, Note_on_c, 1, 78, 0
12, 195975, Note_on_c, 1, 74, 0
12, 196099, Note_on_c, 1, 50, 87
12, 196182, Note_on_c, 1, 86, 0
12, 196198, Note_on_c, 1, 74, 95
12, 196226, Note_on_c, 1, 50, 0
12, 196319, Note_on_c, 1, 86, 101
12, 196340, Note_on_c, 1, 74, 0
12, 196366, Note_on_c, 1, 78, 78
12, 196366, Note_on_c, 1, 81, 83
12, 196366, Note_on_c, 1, 86, 86
12, 196403, Note_on_c, 1, 62, 0
12, 196437, Note_on_c, 1, 86, 0
12, 196440, Note_on_c, 1, 74, 93
12, 196571, Note_on_c, 1, 86, 94
12, 196619, Note_on_c, 1, 74, 0
12, 196637, Note_on_c, 1, 81, 0
12, 196637, Note_on_c, 1, 78, 0
12, 196642, Note_on_c, 1, 86, 0
12, 196690, Note_on_c, 1, 78, 81
12, 196710, Note_on_c, 1, 86, 82
12, 196710, Note_on_c, 1, 78, 85
12, 196717, Note_on_c, 1, 81, 86
12, 196784, Note_on_c, 1, 78, 0
12, 196794, Note_on_c, 1, 76, 89
12, 196827, Note_on_c, 1, 86, 0
12, 196925, Note_on_c, 1, 78, 96
12, 196935, Note_on_c, 1, 86, 86
12, 196936, Note_on_c, 1, 87, 76
12, 196973, Note_on_c, 1, 76, 0
12, 197003, Note_on_c, 1, 87, 0
12, 197004, Note_on_c, 1, 86, 0
12, 197084, Note_on_c, 1, 76, 74
12, 197103, Note_on_c, 1, 78, 0
12, 197107, Note_on_c, 1, 76, 0
12, 197142, Note_on_c, 1, 76, 92
12, 197281, Note_on_c, 1, 83, 94
12, 197303, Note_on_c, 1, 76, 0
12, 197340, Note_on_c, 1, 81, 86
12, 197346, Note_on_c, 1, 62, 88
12, 197409, Note_on_c, 1, 78, 92
12, 197421, Note_on_c, 1, 79, 83
12, 197425, Note_on_c, 1, 83, 0
12, 197442, Note_on_c, 1, 81, 0
12, 197460, Note_on_c, 1, 79, 0
12, 197465, Note_on_c, 1, 78, 0
12, 197512, Note_on_c, 1, 71, 89
12, 197635, Note_on_c, 1, 72, 78
12, 197705, Note_on_c, 1, 71, 0
12, 197757, Note_on_c, 1, 74, 93
12, 197798, Note_on_c, 1, 72, 0
12, 197828, Note_on_c, 1, 60, 86
12, 197859, Note_on_c, 1, 62, 0
12, 197871, Note_on_c, 1, 74, 0
12, 197881, Note_on_c, 1, 76, 96
12, 197899, Note_on_c, 1, 78, 0
12, 197952, Note_on_c, 1, 86, 0
12, 197997, Note_on_c, 1, 81, 0
12, 198002, Note_on_c, 1, 74, 89
12, 198110, Note_on_c, 1, 76, 0
12, 198132, Note_on_c, 1, 72, 94
12, 198145, Note_on_c, 1, 74, 0
12, 198210, Note_on_c, 1, 72, 0
12, 198246, Note_on_c, 1, 70, 99
12, 198303, Note_on_c, 1, 76, 85
12, 198313, Note_on_c, 1, 83, 83
12, 198315, Note_on_c, 1, 79, 87
12, 198340, Note_on_c, 1, 70, 0
12, 198369, Note_on_c, 1, 72, 81
12, 198371, Note_on_c, 1, 71, 88
12, 198445, Note_on_c, 1, 71, 0
12, 198477, Note_on_c, 1, 83, 0
12, 198495, Note_on_c, 1, 74, 73
12, 198541, Note_on_c, 1, 72, 0
12, 198596, Note_on_c, 1, 79, 0
12, 198603, Note_on_c, 1, 74, 0
12, 198604, Note_on_c, 1, 76, 89
12, 198615, Note_on_c, 1, 76, 0
12, 198659, Note_on_c, 1, 79, 89
12, 198662, Note_on_c, 1, 76, 88
12, 198720, Note_on_c, 1, 74, 87
12, 198844, Note_on_c, 1, 72, 89
12, 198870, Note_on_c, 1, 60, 0
12, 198874, Note_on_c, 1, 74, 0
12, 198881, Note_on_c, 1, 76, 0
12, 198961, Note_on_c, 1, 71, 94
12, 198972, Note_on_c, 1, 72, 0
12, 199043, Note_on_c, 1, 60, 81
12, 199074, Note_on_c, 1, 69, 98
12, 199098, Note_on_c, 1, 71, 0
12, 199183, Note_on_c, 1, 71, 94
12, 199215, Note_on_c, 1, 69, 0
12, 199301, Note_on_c, 1, 72, 90
12, 199321, Note_on_c, 1, 71, 0
12, 199414, Note_on_c, 1, 71, 94
12, 199452, Note_on_c, 1, 60, 0
12, 199539, Note_on_c, 1, 69, 101
12, 199549, Note_on_c, 1, 71, 0
12, 199556, Note_on_c, 1, 72, 0
12, 199558, Note_on_c, 1, 60, 80
12, 199619, Note_on_c, 1, 76, 0
12, 199648, Note_on_c, 1, 65, 96
12, 199651, Note_on_c, 1, 69, 0
12, 199789, Note_on_c, 1, 79, 0
12, 199789, Note_on_c, 1, 69, 88
12, 199792, Note_on_c, 1, 74, 88
12, 199822, Note_on_c, 1, 60, 0
12, 199881, Note_on_c, 1, 65, 0
12, 199915, Note_on_c, 1, 72, 86
12, 199933, Note_on_c, 1, 69, 0
12, 200016, Note_on_c, 1, 69, 87
12, 200047, Note_on_c, 1, 55, 74
12, 200073, Note_on_c, 1, 72, 0
12, 200134, Note_on_c, 1, 69, 0
12, 200134, Note_on_c, 1, 65, 91
12, 200222, Note_on_c, 1, 79, 87
12, 200229, Note_on_c, 1, 83, 86
12, 200234, Note_on_c, 1, 86, 84
12, 200263, Note_on_c, 1, 68, 89
12, 200289, Note_on_c, 1, 65, 0
12, 200328, Note_on_c, 1, 55, 0
12, 200386, Note_on_c, 1, 65, 86
12, 200401, Note_on_c, 1, 68, 0
12, 200487, Note_on_c, 1, 79, 0
12, 200501, Note_on_c, 1, 55, 74
12, 200508, Note_on_c, 1, 83, 0
12, 200511, Note_on_c, 1, 69, 92
12, 200531, Note_on_c, 1, 86, 0
12, 200571, Note_on_c, 1, 65, 0
12, 200578, Note_on_c, 1, 79, 89
12, 200578, Note_on_c, 1, 86, 84
12, 200583, Note_on_c, 1, 83, 90
12, 200637, Note_on_c, 1, 72, 87
12, 200663, Note_on_c, 1, 69, 0
12, 200763, Note_on_c, 1, 74, 93
12, 200781, Note_on_c, 1, 72, 0
12, 200842, Note_on_c, 1, 55, 0
12, 200987, Note_on_c, 1, 55, 78
12, 201000, Note_on_c, 1, 67, 87
12, 201004, Note_on_c, 1, 74, 0
12, 201105, Note_on_c, 1, 76, 90
12, 201109, Note_on_c, 1, 55, 0
12, 201141, Note_on_c, 1, 67, 0
12, 201214, Note_on_c, 1, 55, 78
12, 201242, Note_on_c, 1, 67, 88
12, 201310, Note_on_c, 1, 76, 0
12, 201327, Note_on_c, 1, 55, 0
12, 201351, Note_on_c, 1, 77, 87
12, 201433, Note_on_c, 1, 67, 0
12, 201460, Note_on_c, 1, 55, 87
12, 201473, Note_on_c, 1, 67, 86
12, 201526, Note_on_c, 1, 79, 0
12, 201532, Note_on_c, 1, 77, 0
12, 201577, Note_on_c, 1, 83, 0
12, 201598, Note_on_c, 1, 86, 0
12, 201624, Note_on_c, 1, 74, 75
12, 201720, Note_on_c, 1, 67, 0
12, 201983, Note_on_c, 1, 81, 68
12, 201998, Note_on_c, 1, 55, 0
12, 202028, Note_on_c, 1, 81, 0
12, 202059, Note_on_c, 1, 78, 80
12, 202059, Note_on_c, 1, 86, 87
12, 202078, Note_on_c, 1, 81, 84
12, 202087, Note_on_c, 1, 81, 88
12, 202211, Note_on_c, 1, 78, 87
12, 202222, Note_on_c, 1, 74, 0
12, 202322, Note_on_c, 1, 74, 95
12, 202328, Note_on_c, 1, 81, 0
12, 202340, Note_on_c, 1, 78, 0
12, 202366, Note_on_c, 1, 81, 0
12, 202366, Note_on_c, 1, 78, 0
12, 202382, Note_on_c, 1, 86, 0
12, 202389, Note_on_c, 1, 74, 0
12, 202442, Note_on_c, 1, 81, 94
12, 202443, Note_on_c, 1, 78, 85
12, 202450, Note_on_c, 1, 74, 72
12, 202450, Note_on_c, 1, 86, 87
12, 202455, Note_on_c, 1, 81, 88
12, 202468, Note_on_c, 1, 74, 0
12, 202571, Note_on_c, 1, 74, 88
12, 202592, Note_on_c, 1, 81, 0
12, 202684, Note_on_c, 1, 81, 94
12, 202700, Note_on_c, 1, 74, 0
12, 202785, Note_on_c, 1, 78, 85
12, 202913, Note_on_c, 1, 74, 88
12, 202917, Note_on_c, 1, 81, 0
12, 203004, Note_on_c, 1, 78, 0
12, 203032, Note_on_c, 1, 81, 94
12, 203034, Note_on_c, 1, 74, 0
12, 203103, Note_on_c, 1, 78, 0
12, 203108, Note_on_c, 1, 57, 64
12, 203112, Note_on_c, 1, 81, 0
12, 203140, Note_on_c, 1, 86, 0
12, 203152, Note_on_c, 1, 74, 0
12, 203165, Note_on_c, 1, 78, 38
12, 203228, Note_on_c, 1, 81, 0
12, 203283, Note_on_c, 1, 74, 91
12, 203314, Note_on_c, 1, 78, 0
12, 203455, Note_on_c, 1, 74, 0
12, 203520, Note_on_c, 1, 74, 107
12, 203585, Note_on_c, 1, 57, 0
12, 203590, Note_on_c, 1, 62, 83
12, 204044, Note_on_c, 1, 81, 80
12, 204044, Note_on_c, 1, 78, 83
12, 204247, Note_on_c, 1, 81, 0
12, 204252, Note_on_c, 1, 62, 0
12, 204259, Note_on_c, 1, 78, 0
12, 204420, Note_on_c, 1, 78, 83
12, 204427, Note_on_c, 1, 81, 84
12, 205073, Note_on_c, 1, 62, 83
12, 205183, Note_on_c, 1, 81, 0
12, 205270, Note_on_c, 1, 78, 0
12, 205440, Note_on_c, 1, 74, 0
12, 205440, Note_on_c, 1, 60, 112
12, 205490, Note_on_c, 1, 62, 0
12, 205529, Note_on_c, 1, 57, 87
12, 205703, Note_on_c, 1, 57, 0
12, 206007, Note_on_c, 1, 79, 84
12, 206007, Note_on_c, 1, 76, 89
12, 206007, Note_on_c, 1, 72, 86
12, 206196, Note_on_c, 1, 72, 0
12, 206255, Note_on_c, 1, 79, 0
12, 206264, Note_on_c, 1, 76, 0
12, 206369, Note_on_c, 1, 79, 82
12, 206369, Note_on_c, 1, 72, 85
12, 206377, Note_on_c, 1, 76, 89
12, 207273, Note_on_c, 1, 62, 79
12, 207301, Note_on_c, 1, 72, 0
12, 207348, Note_on_c, 1, 79, 0
12, 207360, Note_on_c, 1, 60, 0
12, 207362, Note_on_c, 1, 76, 0
12, 207380, Note_on_c, 1, 79, 96
12, 207446, Note_on_c, 1, 81, 97
12, 207449, Note_on_c, 1, 79, 0
12, 207525, Note_on_c, 1, 55, 90
12, 207552, Note_on_c, 1, 81, 0
12, 207565, Note_on_c, 1, 76, 94
12, 207575, Note_on_c, 1, 62, 0
12, 207622, Note_on_c, 1, 77, 96
12, 207644, Note_on_c, 1, 76, 0
12, 207685, Note_on_c, 1, 77, 0
12, 207687, Note_on_c, 1, 79, 105
12, 207826, Note_on_c, 1, 77, 88
12, 207845, Note_on_c, 1, 79, 0
12, 207940, Note_on_c, 1, 79, 96
12, 207959, Note_on_c, 1, 77, 0
12, 208007, Note_on_c, 1, 71, 78
12, 208010, Note_on_c, 1, 74, 85
12, 208012, Note_on_c, 1, 79, 80
12, 208056, Note_on_c, 1, 81, 92
12, 208110, Note_on_c, 1, 79, 0
12, 208132, Note_on_c, 1, 55, 0
12, 208183, Note_on_c, 1, 81, 0
12, 208185, Note_on_c, 1, 83, 103
12, 208232, Note_on_c, 1, 74, 0
12, 208239, Note_on_c, 1, 71, 0
12, 208244, Note_on_c, 1, 79, 0
12, 208284, Note_on_c, 1, 55, 82
12, 208312, Note_on_c, 1, 81, 89
12, 208323, Note_on_c, 1, 83, 0
12, 208335, Note_on_c, 1, 74, 81
12, 208337, Note_on_c, 1, 71, 77
12, 208342, Note_on_c, 1, 79, 81
12, 208432, Note_on_c, 1, 83, 93
12, 208508, Note_on_c, 1, 81, 0
12, 208553, Note_on_c, 1, 83, 0
12, 208553, Note_on_c, 1, 81, 93
12, 208670, Note_on_c, 1, 79, 96
12, 208749, Note_on_c, 1, 62, 86
12, 208780, Note_on_c, 1, 79, 0
12, 208781, Note_on_c, 1, 81, 0
12, 208803, Note_on_c, 1, 86, 96
12, 208929, Note_on_c, 1, 84, 88
12, 208936, Note_on_c, 1, 55, 0
12, 209032, Note_on_c, 1, 55, 70
12, 209057, Note_on_c, 1, 83, 92
12, 209068, Note_on_c, 1, 79, 0
12, 209082, Note_on_c, 1, 86, 0
12, 209084, Note_on_c, 1, 84, 0
12, 209084, Note_on_c, 1, 74, 0
12, 209159, Note_on_c, 1, 71, 0
12, 209184, Note_on_c, 1, 81, 90
12, 209194, Note_on_c, 1, 83, 0
12, 209412, Note_on_c, 1, 86, 98
12, 209438, Note_on_c, 1, 81, 0
12, 209449, Note_on_c, 1, 59, 89
12, 209498, Note_on_c, 1, 62, 0
12, 209526, Note_on_c, 1, 55, 0
12, 209645, Note_on_c, 1, 59, 0
12, 209657, Note_on_c, 1, 81, 89
12, 209660, Note_on_c, 1, 86, 0
12, 209772, Note_on_c, 1, 86, 101
12, 209792, Note_on_c, 1, 84, 79
12, 209825, Note_on_c, 1, 81, 0
12, 209847, Note_on_c, 1, 84, 0
12, 209915, Note_on_c, 1, 66, 73
12, 209922, Note_on_c, 1, 74, 73
12, 209922, Note_on_c, 1, 69, 83
12, 210125, Note_on_c, 1, 69, 0
12, 210139, Note_on_c, 1, 66, 0
12, 210165, Note_on_c, 1, 74, 0
12, 210256, Note_on_c, 1, 74, 78
12, 210256, Note_on_c, 1, 66, 78
12, 210266, Note_on_c, 1, 69, 84
12, 210343, Note_on_c, 1, 71, 127
12, 210344, Note_on_c, 1, 86, 0
12, 210464, Note_on_c, 1, 76, 127
12, 210469, Note_on_c, 1, 71, 0
12, 210593, Note_on_c, 1, 69, 105
12, 210605, Note_on_c, 1, 76, 0
12, 210640, Note_on_c, 1, 50, 79
12, 210697, Note_on_c, 1, 74, 127
12, 210711, Note_on_c, 1, 80, 76
12, 210724, Note_on_c, 1, 80, 0
12, 210733, Note_on_c, 1, 69, 0
12, 210812, Note_on_c, 1, 67, 90
12, 210827, Note_on_c, 1, 74, 0
12, 210907, Note_on_c, 1, 54, 76
12, 210926, Note_on_c, 1, 72, 127
12, 210928, Note_on_c, 1, 75, 87
12, 210936, Note_on_c, 1, 78, 85
12, 210954, Note_on_c, 1, 78, 0
12, 210958, Note_on_c, 1, 75, 0
12, 210965, Note_on_c, 1, 50, 0
12, 210968, Note_on_c, 1, 67, 0
12, 211060, Note_on_c, 1, 62, 76
12, 211062, Note_on_c, 1, 64, 79
12, 211091, Note_on_c, 1, 72, 0
12, 211106, Note_on_c, 1, 54, 0
12, 211114, Note_on_c, 1, 64, 0
12, 211174, Note_on_c, 1, 71, 127
12, 211182, Note_on_c, 1, 75, 88
12, 211185, Note_on_c, 1, 72, 86
12, 211194, Note_on_c, 1, 72, 0
12, 211197, Note_on_c, 1, 75, 0
12, 211211, Note_on_c, 1, 50, 81
12, 211217, Note_on_c, 1, 62, 0
12, 211227, Note_on_c, 1, 57, 48
12, 211291, Note_on_c, 1, 74, 0
12, 211293, Note_on_c, 1, 64, 88
12, 211298, Note_on_c, 1, 69, 0
12, 211330, Note_on_c, 1, 66, 0
12, 211333, Note_on_c, 1, 71, 0
12, 211411, Note_on_c, 1, 69, 121
12, 211492, Note_on_c, 1, 64, 0
12, 211501, Note_on_c, 1, 54, 76
12, 211527, Note_on_c, 1, 62, 85
12, 211527, Note_on_c, 1, 60, 85
12, 211567, Note_on_c, 1, 57, 0
12, 211613, Note_on_c, 1, 69, 0
12, 211634, Note_on_c, 1, 67, 96
12, 211669, Note_on_c, 1, 60, 0
12, 211681, Note_on_c, 1, 62, 0
12, 211739, Note_on_c, 1, 62, 86
12, 211883, Note_on_c, 1, 64, 84
12, 211904, Note_on_c, 1, 67, 0
12, 211922, Note_on_c, 1, 66, 78
12, 211926, Note_on_c, 1, 62, 0
12, 211927, Note_on_c, 1, 69, 81
12, 211934, Note_on_c, 1, 74, 74
12, 212003, Note_on_c, 1, 66, 93
12, 212046, Note_on_c, 1, 50, 0
12, 212064, Note_on_c, 1, 64, 0
12, 212093, Note_on_c, 1, 54, 0
12, 212142, Note_on_c, 1, 62, 83
12, 212205, Note_on_c, 1, 69, 0
12, 212215, Note_on_c, 1, 74, 0
12, 212219, Note_on_c, 1, 66, 0
12, 212235, Note_on_c, 1, 66, 0
12, 212246, Note_on_c, 1, 65, 92
12, 212273, Note_on_c, 1, 50, 41
12, 212292, Note_on_c, 1, 66, 74
12, 212292, Note_on_c, 1, 69, 83
12, 212304, Note_on_c, 1, 74, 80
12, 212305, Note_on_c, 1, 62, 0
12, 212389, Note_on_c, 1, 64, 88
12, 212443, Note_on_c, 1, 65, 0
12, 212502, Note_on_c, 1, 67, 127
12, 212550, Note_on_c, 1, 64, 0
12, 212644, Note_on_c, 1, 62, 83
12, 212716, Note_on_c, 1, 67, 0
12, 212761, Note_on_c, 1, 66, 103
12, 212793, Note_on_c, 1, 50, 0
12, 212895, Note_on_c, 1, 64, 92
12, 212913, Note_on_c, 1, 62, 0
12, 212918, Note_on_c, 1, 66, 0
12, 212978, Note_on_c, 1, 50, 74
12, 213004, Note_on_c, 1, 69, 96
12, 213059, Note_on_c, 1, 64, 0
12, 213145, Note_on_c, 1, 67, 84
12, 213209, Note_on_c, 1, 57, 75
12, 213229, Note_on_c, 1, 69, 0
12, 213244, Note_on_c, 1, 71, 105
12, 213285, Note_on_c, 1, 67, 0
12, 213361, Note_on_c, 1, 66, 0
12, 213367, Note_on_c, 1, 67, 98
12, 213391, Note_on_c, 1, 71, 0
12, 213408, Note_on_c, 1, 69, 0
12, 213411, Note_on_c, 1, 52, 89
12, 213455, Note_on_c, 1, 50, 0
12, 213455, Note_on_c, 1, 57, 0
12, 213474, Note_on_c, 1, 73, 110
12, 213492, Note_on_c, 1, 74, 0
12, 213527, Note_on_c, 1, 67, 0
12, 213603, Note_on_c, 1, 67, 89
12, 213660, Note_on_c, 1, 73, 0
12, 213724, Note_on_c, 1, 72, 105
12, 213779, Note_on_c, 1, 67, 0
12, 213832, Note_on_c, 1, 64, 75
12, 213836, Note_on_c, 1, 72, 74
12, 213842, Note_on_c, 1, 67, 90
12, 213846, Note_on_c, 1, 67, 84
12, 213934, Note_on_c, 1, 72, 0
12, 213949, Note_on_c, 1, 71, 92
12, 213982, Note_on_c, 1, 67, 0
12, 214033, Note_on_c, 1, 67, 0
12, 214061, Note_on_c, 1, 72, 0
12, 214077, Note_on_c, 1, 69, 92
12, 214084, Note_on_c, 1, 64, 0
12, 214141, Note_on_c, 1, 71, 0
12, 214173, Note_on_c, 1, 67, 87
12, 214180, Note_on_c, 1, 72, 86
12, 214185, Note_on_c, 1, 64, 82
12, 214196, Note_on_c, 1, 72, 105
12, 214234, Note_on_c, 1, 69, 0
12, 214299, Note_on_c, 1, 72, 0
12, 214299, Note_on_c, 1, 74, 88
12, 214430, Note_on_c, 1, 76, 98
12, 214441, Note_on_c, 1, 74, 0
12, 214471, Note_on_c, 1, 52, 0
12, 214557, Note_on_c, 1, 74, 99
12, 214570, Note_on_c, 1, 76, 0
12, 214646, Note_on_c, 1, 52, 63
12, 214654, Note_on_c, 1, 74, 0
12, 214666, Note_on_c, 1, 72, 90
12, 214772, Note_on_c, 1, 52, 0
12, 214786, Note_on_c, 1, 67, 94
12, 214829, Note_on_c, 1, 72, 0
12, 214880, Note_on_c, 1, 52, 75
12, 214914, Note_on_c, 1, 74, 115
12, 214944, Note_on_c, 1, 67, 0
12, 215035, Note_on_c, 1, 52, 0
12, 215039, Note_on_c, 1, 67, 85
12, 215070, Note_on_c, 1, 64, 0
12, 215079, Note_on_c, 1, 52, 65
12, 215133, Note_on_c, 1, 72, 0
12, 215153, Note_on_c, 1, 74, 0
12, 215154, Note_on_c, 1, 76, 101
12, 215204, Note_on_c, 1, 67, 0
12, 215280, Note_on_c, 1, 67, 88
12, 215304, Note_on_c, 1, 67, 0
12, 215308, Note_on_c, 1, 50, 84
12, 215343, Note_on_c, 1, 52, 0
12, 215393, Note_on_c, 1, 76, 0
12, 215396, Note_on_c, 1, 77, 98
12, 215464, Note_on_c, 1, 67, 0
12, 215533, Note_on_c, 1, 69, 86
12, 215533, Note_on_c, 1, 71, 83
12, 215579, Note_on_c, 1, 77, 0
12, 215633, Note_on_c, 1, 76, 121
12, 215659, Note_on_c, 1, 71, 0
12, 215660, Note_on_c, 1, 69, 0
12, 215760, Note_on_c, 1, 67, 87
12, 215779, Note_on_c, 1, 62, 73
12, 215779, Note_on_c, 1, 71, 76
12, 215779, Note_on_c, 1, 67, 82
12, 215836, Note_on_c, 1, 76, 0
12, 215863, Note_on_c, 1, 74, 115
12, 215906, Note_on_c, 1, 67, 0
12, 215978, Note_on_c, 1, 71, 0
12, 215978, Note_on_c, 1, 67, 0
12, 215992, Note_on_c, 1, 62, 0
12, 215996, Note_on_c, 1, 67, 89
12, 216097, Note_on_c, 1, 62, 63
12, 216102, Note_on_c, 1, 67, 83
12, 216102, Note_on_c, 1, 71, 84
12, 216107, Note_on_c, 1, 76, 121
12, 216162, Note_on_c, 1, 74, 0
12, 216165, Note_on_c, 1, 67, 0
12, 216234, Note_on_c, 1, 67, 92
12, 216292, Note_on_c, 1, 76, 0
12, 216303, Note_on_c, 1, 50, 0
12, 216357, Note_on_c, 1, 79, 121
12, 216397, Note_on_c, 1, 67, 0
12, 216435, Note_on_c, 1, 79, 0
12, 216468, Note_on_c, 1, 81, 105
12, 216579, Note_on_c, 1, 50, 61
12, 216602, Note_on_c, 1, 79, 94
12, 216650, Note_on_c, 1, 81, 0
12, 216654, Note_on_c, 1, 50, 0
12, 216662, Note_on_c, 1, 77, 90
12, 216685, Note_on_c, 1, 79, 0
12, 216729, Note_on_c, 1, 76, 110
12, 216737, Note_on_c, 1, 77, 0
12, 216752, Note_on_c, 1, 50, 84
12, 216840, Note_on_c, 1, 81, 98
12, 216856, Note_on_c, 1, 76, 0
12, 217007, Note_on_c, 1, 67, 0
12, 217012, Note_on_c, 1, 71, 0
12, 217016, Note_on_c, 1, 55, 79
12, 217066, Note_on_c, 1, 62, 0
12, 217198, Note_on_c, 1, 72, 94
12, 217439, Note_on_c, 1, 79, 89
12, 217564, Note_on_c, 1, 50, 90
12, 217566, Note_on_c, 1, 55, 0
12, 217613, Note_on_c, 1, 72, 0
12, 217690, Note_on_c, 1, 57, 90
12, 217721, Note_on_c, 1, 66, 71
12, 217728, Note_on_c, 1, 69, 77
12, 217730, Note_on_c, 1, 62, 82
12, 217747, Note_on_c, 1, 50, 0
12, 217814, Note_on_c, 1, 74, 101
12, 217916, Note_on_c, 1, 81, 0
12, 217920, Note_on_c, 1, 62, 0
12, 217936, Note_on_c, 1, 69, 0
12, 217942, Note_on_c, 1, 69, 101
12, 217945, Note_on_c, 1, 79, 0
12, 217953, Note_on_c, 1, 74, 0
12, 218067, Note_on_c, 1, 69, 75
12, 218067, Note_on_c, 1, 62, 81
12, 218072, Note_on_c, 1, 66, 85
12, 218121, Note_on_c, 1, 69, 0
12, 218278, Note_on_c, 1, 67, 94
12, 218302, Note_on_c, 1, 66, 0
12, 218413, Note_on_c, 1, 66, 101
12, 218542, Note_on_c, 1, 64, 94
12, 218580, Note_on_c, 1, 67, 0
12, 218588, Note_on_c, 1, 66, 0
12, 218767, Note_on_c, 1, 69, 90
12, 218772, Note_on_c, 1, 62, 89
12, 218778, Note_on_c, 1, 64, 0
12, 218789, Note_on_c, 1, 66, 73
12, 218793, Note_on_c, 1, 57, 0
12, 218824, Note_on_c, 1, 50, 0
12, 219076, Note_on_c, 1, 69, 0
12, 219087, Note_on_c, 1, 62, 0
12, 219124, Note_on_c, 1, 64, 88
12, 219176, Note_on_c, 1, 66, 0
12, 219222, Note_on_c, 1, 62, 0
12, 219261, Note_on_c, 1, 66, 0
12, 219262, Note_on_c, 1, 50, 93
12, 219310, Note_on_c, 1, 69, 0
12, 219640, Note_on_c, 1, 62, 88
12, 219640, Note_on_c, 1, 66, 78
12, 219644, Note_on_c, 1, 57, 83
12, 219836, Note_on_c, 1, 62, 0
12, 219860, Note_on_c, 1, 57, 0
12, 219888, Note_on_c, 1, 66, 0
12, 219988, Note_on_c, 1, 57, 82
12, 219988, Note_on_c, 1, 66, 82
12, 219993, Note_on_c, 1, 62, 87
12, 220449, Note_on_c, 1, 66, 79
12, 220450, Note_on_c, 1, 69, 80
12, 220524, Note_on_c, 1, 64, 0
12, 220525, Note_on_c, 1, 69, 0
12, 220537, Note_on_c, 1, 66, 0
12, 220695, Note_on_c, 1, 48, 80
12, 220728, Note_on_c, 1, 50, 0
12, 221020, Note_on_c, 1, 62, 0
12, 221053, Note_on_c, 1, 57, 0
12, 221086, Note_on_c, 1, 66, 0
12, 221512, Note_on_c, 1, 48, 87
12, 221512, Note_on_c, 1, 64, 85
12, 221516, Note_on_c, 1, 67, 77
12, 221729, Note_on_c, 1, 64, 0
12, 221736, Note_on_c, 1, 67, 0
12, 221881, Note_on_c, 1, 67, 81
12, 221886, Note_on_c, 1, 64, 84
12, 222720, Note_on_c, 1, 43, 120
12, 223005, Note_on_c, 1, 67, 0
12, 223016, Note_on_c, 1, 48, 0
12, 223016, Note_on_c, 1, 43, 80
12, 223023, Note_on_c, 1, 64, 0
12, 223023, Note_on_c, 1, 50, 80
12, 223045, Note_on_c, 1, 48, 0
12, 223442, Note_on_c, 1, 62, 85
12, 223695, Note_on_c, 1, 62, 0
12, 223810, Note_on_c, 1, 62, 85
12, 224640, Note_on_c, 1, 43, 0
12, 224640, Note_on_c, 1, 38, 127
12, 224914, Note_on_c, 1, 57, 83
12, 224914, Note_on_c, 1, 66, 66
12, 224916, Note_on_c, 1, 50, 0
12, 224933, Note_on_c, 1, 43, 0
12, 226355, Note_on_c, 1, 62, 0
12, 226367, Note_on_c, 1, 57, 0
12, 226386, Note_on_c, 1, 66, 0
12, 226560, Note_on_c, 1, 50, 127
12, 227294, Note_on_c, 1, 74, 74
12, 227294, Note_on_c, 1, 66, 76
12, 227294, Note_on_c, 1, 69, 81
12, 227294, Note_on_c, 1, 50, 88
12, 227502, Note_on_c, 1, 66, 0
12, 227514, Note_on_c, 1, 69, 0
12, 227530, Note_on_c, 1, 74, 0
12, 227649, Note_on_c, 1, 74, 75
12, 227652, Note_on_c, 1, 66, 79
12, 227652, Note_on_c, 1, 69, 81
12, 228480, Note_on_c, 1, 50, 0
12, 228480, Note_on_c, 1, 38, 0
12, 228480, Note_on_c, 1, 48, 127
12, 228761, Note_on_c, 1, 48, 86
12, 228777, Note_on_c, 1, 74, 0
12, 228791, Note_on_c, 1, 66, 0
12, 228791, Note_on_c, 1, 50, 0
12, 228801, Note_on_c, 1, 69, 0
12, 229201, Note_on_c, 1, 72, 78
12, 229213, Note_on_c, 1, 67, 85
12, 229217, Note_on_c, 1, 64, 75
12, 229386, Note_on_c, 1, 67, 0
12, 229414, Note_on_c, 1, 64, 0
12, 229428, Note_on_c, 1, 72, 0
12, 229561, Note_on_c, 1, 67, 79
12, 229566, Note_on_c, 1, 72, 85
12, 229568, Note_on_c, 1, 64, 77
12, 230324, Note_on_c, 1, 72, 0
12, 230352, Note_on_c, 1, 64, 0
12, 230352, Note_on_c, 1, 67, 0
12, 230400, Note_on_c, 1, 48, 0
12, 230400, Note_on_c, 1, 43, 127
12, 230591, Note_on_c, 1, 48, 0
12, 230607, Note_on_c, 1, 43, 79
12, 231087, Note_on_c, 1, 62, 74
12, 231099, Note_on_c, 1, 59, 65
12, 231103, Note_on_c, 1, 67, 67
12, 231262, Note_on_c, 1, 59, 0
12, 231272, Note_on_c, 1, 62, 0
12, 231293, Note_on_c, 1, 67, 0
12, 231438, Note_on_c, 1, 62, 67
12, 231445, Note_on_c, 1, 59, 70
12, 231447, Note_on_c, 1, 67, 76
12, 232051, Note_on_c, 1, 67, 0
12, 232056, Note_on_c, 1, 62, 0
12, 232065, Note_on_c, 1, 59, 0
12, 232320, Note_on_c, 1, 43, 0
12, 232320, Note_on_c, 1, 38, 127
12, 232517, Note_on_c, 1, 43, 0
12, 232919, Note_on_c, 1, 62, 64
12, 232919, Note_on_c, 1, 54, 70
12, 232919, Note_on_c, 1, 57, 79
12, 234403, Note_on_c, 1, 38, 88
12, 234410, Note_on_c, 1, 54, 0
12, 234412, Note_on_c, 1, 57, 0
12, 234473, Note_on_c, 1, 62, 0
12, 236289, Note_on_c, 1, 38, 0
12, 236314, Note_on_c, 1, 36, 65
12, 236338, Note_on_c, 1, 38, 60
12, 236420, Note_on_c, 1, 38, 0
12, 236745, Note_on_c, 1, 72, 76
12, 236747, Note_on_c, 1, 64, 74
12, 236754, Note_on_c, 1, 67, 70
12, 236878, Note_on_c, 1, 67, 0
12, 236895, Note_on_c, 1, 64, 0
12, 236932, Note_on_c, 1, 72, 0
12, 237080, Note_on_c, 1, 64, 74
12, 237091, Note_on_c, 1, 67, 70
12, 237091, Note_on_c, 1, 72, 76
12, 238231, Note_on_c, 1, 67, 0
12, 238240, Note_on_c, 1, 64, 0
12, 238254, Note_on_c, 1, 72, 0
12, 238332, Note_on_c, 1, 36, 0
12, 240110, Note_on_c, 1, 38, 79
12, 240550, Note_on_c, 1, 62, 54
12, 240573, Note_on_c, 1, 57, 82
12, 240583, Note_on_c, 1, 54, 71
12, 240723, Note_on_c, 1, 54, 0
12, 240732, Note_on_c, 1, 57, 0
12, 240746, Note_on_c, 1, 62, 0
12, 240901, Note_on_c, 1, 62, 70
12, 240908, Note_on_c, 1, 54, 79
12, 240908, Note_on_c, 1, 57, 85
12, 241638, Note_on_c, 1, 57, 0
12, 241652, Note_on_c, 1, 54, 0
12, 241664, Note_on_c, 1, 62, 0
12, 242417, Note_on_c, 1, 38, 0
12, 243840, Note_on_c, 1, 38, 0
12, 244343, Note_on_c, 1, 38, 79
12, 244680, Note_on_c, 1, 62, 68
12, 244694, Note_on_c, 1, 57, 79
12, 244696, Note_on_c, 1, 54, 69
12, 245422, Note_on_c, 1, 38, 0
12, 245953, Note_on_c, 1, 38, 69
12, 246016, Note_on_c, 1, 57, 0
12, 246018, Note_on_c, 1, 54, 0
12, 246033, Note_on_c, 1, 62, 0
12, 247825, Note_on_c, 1, 62, 59
12, 247841, Note_on_c, 1, 57, 76
12, 247841, Note_on_c, 1, 54, 71
12, 248059, Note_on_c, 1, 38, 0
12, 249755, Note_on_c, 1, 57, 0
12, 249760, Note_on_c, 1, 62, 0
12, 249770, Note_on_c, 1, 54, 0
12, 284160, End_track
13, 0, Start_track
13, 0, Text_t, "dist gtr"
13, 0, Control_c, 2, 32, 0
13, 22, Program_c, 2, 30
13, 33, Control_c, 2, 7, 127
13, 500, Control_c, 2, 11, 127
13, 520, Control_c, 2, 1, 22
13, 960, Control_c, 2, 10, 107
13, 138728, Note_on_c, 2, 62, 85
13, 138829, Note_on_c, 2, 74, 83
13, 138846, Note_on_c, 2, 62, 0
13, 138981, Note_on_c, 2, 74, 0
13, 139080, Note_on_c, 2, 62, 82
13, 139202, Note_on_c, 2, 74, 81
13, 139226, Note_on_c, 2, 62, 0
13, 139442, Note_on_c, 2, 74, 0
13, 139445, Note_on_c, 2, 62, 85
13, 139548, Note_on_c, 2, 74, 87
13, 139571, Note_on_c, 2, 62, 0
13, 139768, Note_on_c, 2, 74, 0
13, 139768, Note_on_c, 2, 62, 87
13, 139892, Note_on_c, 2, 74, 87
13, 139911, Note_on_c, 2, 62, 0
13, 140059, Note_on_c, 2, 74, 0
13, 146871, Note_on_c, 2, 62, 83
13, 146989, Note_on_c, 2, 74, 88
13, 147018, Note_on_c, 2, 62, 0
13, 147120, Note_on_c, 2, 74, 0
13, 147217, Note_on_c, 2, 62, 82
13, 147345, Note_on_c, 2, 74, 76
13, 147360, Note_on_c, 2, 62, 0
13, 147582, Note_on_c, 2, 74, 0
13, 148805, Note_on_c, 2, 62, 85
13, 148924, Note_on_c, 2, 74, 88
13, 148940, Note_on_c, 2, 62, 0
13, 149059, Note_on_c, 2, 74, 0
13, 149156, Note_on_c, 2, 62, 84
13, 149271, Note_on_c, 2, 74, 88
13, 149282, Note_on_c, 2, 62, 0
13, 149576, Note_on_c, 2, 74, 0
13, 150259, Note_on_c, 2, 62, 84
13, 150356, Note_on_c, 2, 66, 78
13, 150408, Note_on_c, 2, 62, 0
13, 150440, Note_on_c, 2, 66, 0
13, 150480, Note_on_c, 2, 67, 82
13, 150565, Note_on_c, 2, 67, 0
13, 150601, Note_on_c, 2, 69, 88
13, 150721, Note_on_c, 2, 69, 0
13, 151160, Note_on_c, 2, 69, 88
13, 151256, Note_on_c, 2, 69, 0
13, 151290, Note_on_c, 2, 71, 89
13, 151409, Note_on_c, 2, 71, 0
13, 151426, Note_on_c, 2, 72, 88
13, 151506, Note_on_c, 2, 72, 0
13, 151557, Note_on_c, 2, 74, 93
13, 151907, Note_on_c, 2, 74, 0
13, 151916, Note_on_c, 2, 76, 89
13, 152142, Note_on_c, 2, 76, 0
13, 152154, Note_on_c, 2, 74, 76
13, 152276, Note_on_c, 2, 74, 0
13, 152280, Note_on_c, 2, 76, 88
13, 152419, Note_on_c, 2, 76, 0
13, 152844, Note_on_c, 2, 69, 83
13, 152960, Note_on_c, 2, 71, 88
13, 153005, Note_on_c, 2, 69, 0
13, 153087, Note_on_c, 2, 74, 87
13, 153091, Note_on_c, 2, 71, 0
13, 153875, Control_c, 2, 1, 20
13, 153885, Control_c, 2, 1, 24
13, 153902, Control_c, 2, 1, 28
13, 153918, Control_c, 2, 1, 33
13, 153929, Control_c, 2, 1, 37
13, 153942, Control_c, 2, 1, 41
13, 153959, Control_c, 2, 1, 45
13, 154026, Control_c, 2, 1, 49
13, 154039, Control_c, 2, 1, 57
13, 154053, Control_c, 2, 1, 61
13, 154096, Control_c, 2, 1, 66
13, 154126, Control_c, 2, 1, 70
13, 154142, Control_c, 2, 1, 74
13, 154167, Control_c, 2, 1, 78
13, 154183, Control_c, 2, 1, 82
13, 154199, Control_c, 2, 1, 86
13, 154214, Control_c, 2, 1, 90
13, 154237, Control_c, 2, 1, 94
13, 154253, Control_c, 2, 1, 99
13, 154270, Control_c, 2, 1, 103
13, 154287, Control_c, 2, 1, 107
13, 154313, Control_c, 2, 1, 111
13, 154337, Control_c, 2, 1, 115
13, 154377, Control_c, 2, 1, 119
13, 154397, Control_c, 2, 1, 123
13, 154593, Control_c, 2, 1, 127
13, 154773, Control_c, 2, 1, 123
13, 154782, Control_c, 2, 1, 119
13, 154795, Control_c, 2, 1, 115
13, 154810, Control_c, 2, 1, 111
13, 154829, Control_c, 2, 1, 107
13, 154840, Control_c, 2, 1, 103
13, 154857, Control_c, 2, 1, 99
13, 154870, Control_c, 2, 1, 94
13, 154887, Control_c, 2, 1, 90
13, 154904, Control_c, 2, 1, 86
13, 154920, Control_c, 2, 1, 82
13, 154931, Control_c, 2, 1, 78
13, 154944, Control_c, 2, 1, 70
13, 154954, Control_c, 2, 1, 66
13, 154965, Control_c, 2, 1, 61
13, 154974, Control_c, 2, 1, 57
13, 154984, Control_c, 2, 1, 53
13, 155021, Control_c, 2, 1, 49
13, 155042, Control_c, 2, 1, 45
13, 155055, Control_c, 2, 1, 41
13, 155068, Control_c, 2, 1, 37
13, 155082, Control_c, 2, 1, 33
13, 155152, Control_c, 2, 1, 37
13, 155159, Pitch_bend_c, 2, 8064
13, 155165, Control_c, 2, 1, 41
13, 155165, Note_on_c, 2, 72, 87
13, 155166, Pitch_bend_c, 2, 7936
13, 155175, Control_c, 2, 1, 45
13, 155176, Pitch_bend_c, 2, 7808
13, 155179, Note_on_c, 2, 74, 0
13, 155185, Pitch_bend_c, 2, 7680
13, 155186, Control_c, 2, 1, 49
13, 155194, Pitch_bend_c, 2, 7552
13, 155196, Control_c, 2, 1, 53
13, 155202, Control_c, 2, 1, 61
13, 155211, Pitch_bend_c, 2, 7424
13, 155214, Control_c, 2, 1, 66
13, 155220, Pitch_bend_c, 2, 7296
13, 155223, Control_c, 2, 1, 70
13, 155236, Control_c, 2, 1, 74
13, 155256, Control_c, 2, 1, 78
13, 155275, Note_on_c, 2, 74, 84
13, 155291, Note_on_c, 2, 72, 0
13, 155363, Control_c, 2, 1, 82
13, 155370, Pitch_bend_c, 2, 7424
13, 155386, Pitch_bend_c, 2, 7552
13, 155401, Note_on_c, 2, 72, 78
13, 155403, Pitch_bend_c, 2, 7680
13, 155408, Note_on_c, 2, 74, 0
13, 155419, Pitch_bend_c, 2, 7808
13, 155438, Pitch_bend_c, 2, 7936
13, 155454, Pitch_bend_c, 2, 8192
13, 155524, Note_on_c, 2, 74, 85
13, 155534, Note_on_c, 2, 72, 0
13, 155577, Control_c, 2, 1, 86
13, 155708, Note_on_c, 2, 74, 0
13, 156135, Note_on_c, 2, 86, 102
13, 156247, Note_on_c, 2, 84, 78
13, 156270, Note_on_c, 2, 86, 0
13, 156440, Note_on_c, 2, 83, 74
13, 156457, Note_on_c, 2, 84, 0
13, 156619, Note_on_c, 2, 81, 77
13, 156628, Note_on_c, 2, 83, 0
13, 156807, Note_on_c, 2, 79, 87
13, 156813, Note_on_c, 2, 81, 0
13, 157064, Note_on_c, 2, 79, 0
13, 157065, Note_on_c, 2, 77, 85
13, 157192, Note_on_c, 2, 76, 87
13, 157222, Note_on_c, 2, 77, 0
13, 157313, Note_on_c, 2, 74, 76
13, 157320, Note_on_c, 2, 76, 0
13, 157436, Note_on_c, 2, 76, 89
13, 157452, Note_on_c, 2, 74, 0
13, 157574, Note_on_c, 2, 76, 0
13, 157576, Note_on_c, 2, 74, 96
13, 157740, Note_on_c, 2, 74, 0
13, 158054, Note_on_c, 2, 62, 89
13, 158114, Note_on_c, 2, 64, 83
13, 158154, Note_on_c, 2, 62, 0
13, 158182, Note_on_c, 2, 66, 76
13, 158204, Note_on_c, 2, 64, 0
13, 158261, Note_on_c, 2, 67, 81
13, 158263, Note_on_c, 2, 66, 0
13, 158338, Note_on_c, 2, 69, 87
13, 158377, Note_on_c, 2, 67, 0
13, 158434, Note_on_c, 2, 71, 84
13, 158459, Note_on_c, 2, 69, 0
13, 158573, Note_on_c, 2, 69, 92
13, 158583, Note_on_c, 2, 71, 0
13, 158664, Note_on_c, 2, 71, 83
13, 158695, Note_on_c, 2, 69, 0
13, 158771, Note_on_c, 2, 73, 81
13, 158807, Note_on_c, 2, 71, 0
13, 158868, Note_on_c, 2, 73, 0
13, 158896, Note_on_c, 2, 74, 85
13, 158899, Note_on_c, 2, 76, 92
13, 158937, Note_on_c, 2, 76, 0
13, 158987, Note_on_c, 2, 76, 89
13, 159031, Note_on_c, 2, 74, 0
13, 159111, Note_on_c, 2, 74, 88
13, 159116, Note_on_c, 2, 76, 0
13, 159213, Note_on_c, 2, 76, 94
13, 159233, Note_on_c, 2, 74, 0
13, 159324, Note_on_c, 2, 76, 0
13, 159327, Note_on_c, 2, 74, 84
13, 159452, Note_on_c, 2, 76, 84
13, 159472, Note_on_c, 2, 74, 0
13, 159567, Note_on_c, 2, 77, 84
13, 159583, Note_on_c, 2, 76, 0
13, 159692, Note_on_c, 2, 77, 0
13, 159700, Note_on_c, 2, 79, 87
13, 159807, Note_on_c, 2, 79, 0
13, 159808, Note_on_c, 2, 81, 93
13, 159924, Note_on_c, 2, 79, 89
13, 159953, Note_on_c, 2, 81, 0
13, 160040, Note_on_c, 2, 78, 94
13, 160059, Note_on_c, 2, 79, 0
13, 160160, Note_on_c, 2, 76, 89
13, 160170, Note_on_c, 2, 78, 0
13, 160279, Note_on_c, 2, 76, 0
13, 160279, Note_on_c, 2, 74, 87
13, 160441, Note_on_c, 2, 76, 89
13, 160462, Note_on_c, 2, 74, 0
13, 160529, Note_on_c, 2, 78, 79
13, 160552, Note_on_c, 2, 76, 0
13, 160626, Note_on_c, 2, 78, 0
13, 160634, Note_on_c, 2, 79, 88
13, 160747, Note_on_c, 2, 79, 0
13, 160747, Note_on_c, 2, 81, 94
13, 160875, Note_on_c, 2, 79, 88
13, 160906, Note_on_c, 2, 81, 0
13, 161015, Note_on_c, 2, 77, 107
13, 161036, Note_on_c, 2, 79, 0
13, 161149, Note_on_c, 2, 77, 0
13, 161149, Note_on_c, 2, 76, 84
13, 161271, Note_on_c, 2, 77, 87
13, 161286, Note_on_c, 2, 76, 0
13, 161452, Note_on_c, 2, 75, 77
13, 161474, Note_on_c, 2, 77, 0
13, 161563, Note_on_c, 2, 74, 87
13, 161568, Note_on_c, 2, 75, 0
13, 161766, Note_on_c, 2, 73, 77
13, 161790, Note_on_c, 2, 74, 0
13, 161884, Note_on_c, 2, 73, 0
13, 161888, Note_on_c, 2, 74, 84
13, 162091, Note_on_c, 2, 73, 113
13, 162110, Note_on_c, 2, 74, 0
13, 162205, Note_on_c, 2, 73, 0
13, 162213, Note_on_c, 2, 74, 85
13, 162437, Note_on_c, 2, 73, 107
13, 162464, Note_on_c, 2, 74, 0
13, 162560, Note_on_c, 2, 73, 0
13, 162563, Note_on_c, 2, 74, 89
13, 162790, Note_on_c, 2, 73, 102
13, 162807, Note_on_c, 2, 74, 0
13, 162840, Note_on_c, 2, 73, 0
13, 162851, Note_on_c, 2, 74, 90
13, 162898, Note_on_c, 2, 73, 88
13, 162926, Note_on_c, 2, 74, 0
13, 163038, Note_on_c, 2, 73, 0
13, 163046, Note_on_c, 2, 75, 88
13, 163182, Note_on_c, 2, 75, 0
13, 163189, Note_on_c, 2, 74, 90
13, 163824, Pitch_bend_c, 2, 8064
13, 163848, Pitch_bend_c, 2, 7936
13, 163873, Pitch_bend_c, 2, 7808
13, 163899, Pitch_bend_c, 2, 7680
13, 163925, Pitch_bend_c, 2, 7552
13, 163951, Pitch_bend_c, 2, 7424
13, 163976, Pitch_bend_c, 2, 7296
13, 164000, Pitch_bend_c, 2, 7168
13, 164016, Pitch_bend_c, 2, 7040
13, 164035, Pitch_bend_c, 2, 6912
13, 164044, Pitch_bend_c, 2, 6656
13, 164061, Pitch_bend_c, 2, 6528
13, 164086, Pitch_bend_c, 2, 6400
13, 164103, Pitch_bend_c, 2, 6272
13, 164128, Pitch_bend_c, 2, 6144
13, 164145, Pitch_bend_c, 2, 6016
13, 164161, Pitch_bend_c, 2, 5888
13, 164178, Pitch_bend_c, 2, 5760
13, 164210, Pitch_bend_c, 2, 5632
13, 164255, Pitch_bend_c, 2, 5504
13, 164288, Pitch_bend_c, 2, 5376
13, 164320, Pitch_bend_c, 2, 5248
13, 164379, Pitch_bend_c, 2, 5120
13, 164578, Pitch_bend_c, 2, 4992
13, 164685, Pitch_bend_c, 2, 4864
13, 164777, Pitch_bend_c, 2, 4992
13, 164819, Pitch_bend_c, 2, 5120
13, 164877, Pitch_bend_c, 2, 5248
13, 164901, Pitch_bend_c, 2, 5376
13, 164919, Pitch_bend_c, 2, 5504
13, 164936, Pitch_bend_c, 2, 5632
13, 164961, Pitch_bend_c, 2, 5760
13, 165004, Pitch_bend_c, 2, 5888
13, 165020, Pitch_bend_c, 2, 6016
13, 165046, Pitch_bend_c, 2, 6144
13, 165071, Pitch_bend_c, 2, 6272
13, 165078, Pitch_bend_c, 2, 6400
13, 165095, Pitch_bend_c, 2, 6528
13, 165114, Pitch_bend_c, 2, 6784
13, 165130, Pitch_bend_c, 2, 6912
13, 165139, Pitch_bend_c, 2, 7040
13, 165156, Pitch_bend_c, 2, 7296
13, 165165, Pitch_bend_c, 2, 7424
13, 165181, Pitch_bend_c, 2, 7552
13, 165191, Note_on_c, 2, 74, 0
13, 165191, Pitch_bend_c, 2, 7680
13, 165200, Pitch_bend_c, 2, 7808
13, 165207, Pitch_bend_c, 2, 7936
13, 165217, Pitch_bend_c, 2, 8192
13, 165234, Note_on_c, 2, 72, 88
13, 165367, Note_on_c, 2, 71, 82
13, 165471, Note_on_c, 2, 71, 0
13, 165473, Note_on_c, 2, 72, 0
13, 165476, Note_on_c, 2, 69, 84
13, 165595, Note_on_c, 2, 71, 92
13, 165612, Note_on_c, 2, 69, 0
13, 165723, Note_on_c, 2, 69, 83
13, 165741, Note_on_c, 2, 71, 0
13, 165832, Note_on_c, 2, 70, 90
13, 165860, Note_on_c, 2, 69, 0
13, 165953, Note_on_c, 2, 69, 87
13, 165969, Note_on_c, 2, 70, 0
13, 166065, Note_on_c, 2, 72, 88
13, 166087, Note_on_c, 2, 69, 0
13, 166186, Note_on_c, 2, 69, 79
13, 166215, Note_on_c, 2, 72, 0
13, 166294, Note_on_c, 2, 69, 0
13, 166296, Note_on_c, 2, 71, 88
13, 166424, Note_on_c, 2, 70, 90
13, 166442, Note_on_c, 2, 71, 0
13, 166539, Note_on_c, 2, 70, 0
13, 166542, Note_on_c, 2, 69, 87
13, 166669, Note_on_c, 2, 70, 82
13, 166697, Note_on_c, 2, 69, 0
13, 166794, Note_on_c, 2, 69, 85
13, 166804, Note_on_c, 2, 70, 0
13, 166902, Note_on_c, 2, 70, 79
13, 167037, Note_on_c, 2, 74, 87
13, 167043, Note_on_c, 2, 70, 0
13, 167048, Note_on_c, 2, 69, 0
13, 167156, Note_on_c, 2, 72, 82
13, 167237, Note_on_c, 2, 74, 0
13, 167265, Note_on_c, 2, 69, 81
13, 167273, Note_on_c, 2, 72, 0
13, 167390, Note_on_c, 2, 72, 83
13, 167417, Note_on_c, 2, 69, 0
13, 167507, Note_on_c, 2, 71, 82
13, 167529, Note_on_c, 2, 72, 0
13, 167615, Note_on_c, 2, 69, 84
13, 167622, Note_on_c, 2, 71, 0
13, 167735, Note_on_c, 2, 71, 88
13, 167751, Note_on_c, 2, 69, 0
13, 167865, Note_on_c, 2, 69, 84
13, 167905, Note_on_c, 2, 71, 0
13, 167979, Note_on_c, 2, 74, 88
13, 168005, Note_on_c, 2, 69, 0
13, 168107, Note_on_c, 2, 69, 84
13, 168127, Note_on_c, 2, 74, 0
13, 168218, Note_on_c, 2, 72, 82
13, 168247, Note_on_c, 2, 69, 0
13, 168345, Note_on_c, 2, 69, 82
13, 168364, Note_on_c, 2, 72, 0
13, 168451, Note_on_c, 2, 71, 82
13, 168478, Note_on_c, 2, 69, 0
13, 168572, Note_on_c, 2, 69, 81
13, 168591, Note_on_c, 2, 71, 0
13, 168698, Note_on_c, 2, 71, 87
13, 168722, Note_on_c, 2, 69, 0
13, 168823, Note_on_c, 2, 69, 84
13, 168874, Note_on_c, 2, 71, 0
13, 168950, Note_on_c, 2, 76, 95
13, 168957, Note_on_c, 2, 71, 61
13, 168981, Note_on_c, 2, 69, 0
13, 168983, Note_on_c, 2, 71, 0
13, 169085, Note_on_c, 2, 69, 83
13, 169123, Note_on_c, 2, 76, 0
13, 169196, Note_on_c, 2, 74, 88
13, 169230, Note_on_c, 2, 69, 0
13, 169322, Note_on_c, 2, 69, 85
13, 169334, Note_on_c, 2, 74, 0
13, 169434, Note_on_c, 2, 72, 85
13, 169437, Note_on_c, 2, 73, 71
13, 169466, Note_on_c, 2, 69, 0
13, 169508, Note_on_c, 2, 73, 0
13, 169542, Note_on_c, 2, 69, 83
13, 169546, Note_on_c, 2, 72, 0
13, 169671, Note_on_c, 2, 71, 88
13, 169709, Note_on_c, 2, 69, 0
13, 169784, Note_on_c, 2, 69, 87
13, 169805, Note_on_c, 2, 71, 0
13, 169906, Note_on_c, 2, 76, 92
13, 169941, Note_on_c, 2, 69, 0
13, 170030, Note_on_c, 2, 69, 83
13, 170072, Note_on_c, 2, 76, 0
13, 170179, Note_on_c, 2, 69, 0
13, 170245, Note_on_c, 2, 69, 79
13, 170305, Note_on_c, 2, 72, 82
13, 170367, Note_on_c, 2, 74, 88
13, 170376, Note_on_c, 2, 69, 0
13, 170399, Note_on_c, 2, 72, 0
13, 170491, Note_on_c, 2, 76, 89
13, 170517, Note_on_c, 2, 74, 0
13, 170602, Note_on_c, 2, 69, 82
13, 170604, Note_on_c, 2, 76, 0
13, 170652, Note_on_c, 2, 72, 78
13, 170718, Note_on_c, 2, 69, 0
13, 170727, Note_on_c, 2, 74, 79
13, 170828, Note_on_c, 2, 72, 0
13, 170834, Note_on_c, 2, 76, 88
13, 170855, Note_on_c, 2, 74, 0
13, 170980, Note_on_c, 2, 77, 84
13, 170993, Note_on_c, 2, 76, 0
13, 171106, Note_on_c, 2, 79, 70
13, 171150, Note_on_c, 2, 77, 0
13, 171227, Note_on_c, 2, 81, 82
13, 171248, Note_on_c, 2, 79, 0
13, 171482, Note_on_c, 2, 74, 87
13, 171534, Note_on_c, 2, 76, 88
13, 171537, Note_on_c, 2, 81, 0
13, 171561, Note_on_c, 2, 74, 0
13, 171599, Note_on_c, 2, 77, 84
13, 171636, Note_on_c, 2, 76, 0
13, 171716, Note_on_c, 2, 77, 0
13, 171722, Note_on_c, 2, 79, 92
13, 171850, Note_on_c, 2, 81, 88
13, 171865, Note_on_c, 2, 79, 0
13, 171969, Note_on_c, 2, 81, 0
13, 171973, Note_on_c, 2, 74, 84
13, 172026, Note_on_c, 2, 76, 92
13, 172046, Note_on_c, 2, 74, 0
13, 172090, Note_on_c, 2, 77, 72
13, 172111, Note_on_c, 2, 76, 0
13, 172203, Note_on_c, 2, 79, 89
13, 172246, Note_on_c, 2, 77, 0
13, 172327, Note_on_c, 2, 81, 92
13, 172334, Note_on_c, 2, 79, 0
13, 172454, Note_on_c, 2, 74, 85
13, 172473, Note_on_c, 2, 81, 0
13, 172503, Note_on_c, 2, 76, 89
13, 172534, Note_on_c, 2, 74, 0
13, 172571, Note_on_c, 2, 77, 84
13, 172608, Note_on_c, 2, 76, 0
13, 172687, Note_on_c, 2, 77, 0
13, 172693, Note_on_c, 2, 79, 88
13, 172827, Note_on_c, 2, 81, 94
13, 172869, Note_on_c, 2, 79, 0
13, 172882, Note_on_c, 2, 81, 0
13, 172940, Note_on_c, 2, 50, 113
13, 173166, Note_on_c, 2, 79, 72
13, 173291, Note_on_c, 2, 81, 89
13, 173305, Note_on_c, 2, 79, 0
13, 173419, Note_on_c, 2, 79, 89
13, 173425, Note_on_c, 2, 81, 0
13, 173576, Note_on_c, 2, 79, 0
13, 173604, Note_on_c, 2, 83, 92
13, 173782, Note_on_c, 2, 83, 0
13, 173843, Note_on_c, 2, 83, 82
13, 173913, Note_on_c, 2, 81, 68
13, 173982, Note_on_c, 2, 79, 78
13, 173985, Note_on_c, 2, 83, 0
13, 173987, Note_on_c, 2, 81, 0
13, 174055, Note_on_c, 2, 79, 0
13, 174077, Note_on_c, 2, 83, 85
13, 174190, Note_on_c, 2, 81, 87
13, 174302, Note_on_c, 2, 79, 84
13, 174342, Note_on_c, 2, 81, 0
13, 174356, Note_on_c, 2, 83, 0
13, 174427, Note_on_c, 2, 76, 93
13, 174433, Note_on_c, 2, 79, 0
13, 174563, Note_on_c, 2, 79, 98
13, 174574, Note_on_c, 2, 50, 0
13, 174578, Note_on_c, 2, 76, 0
13, 174608, Note_on_c, 2, 79, 0
13, 174689, Note_on_c, 2, 60, 87
13, 174691, Note_on_c, 2, 62, 84
13, 174700, Note_on_c, 2, 68, 72
13, 174701, Note_on_c, 2, 62, 0
13, 174720, Note_on_c, 2, 60, 96
13, 174739, Note_on_c, 2, 68, 0
13, 174757, Note_on_c, 2, 64, 85
13, 174784, Note_on_c, 2, 60, 0
13, 174830, Note_on_c, 2, 67, 76
13, 174848, Note_on_c, 2, 64, 0
13, 174933, Note_on_c, 2, 69, 87
13, 174962, Note_on_c, 2, 67, 0
13, 175036, Note_on_c, 2, 67, 85
13, 175103, Note_on_c, 2, 69, 0
13, 175134, Note_on_c, 2, 64, 76
13, 175143, Note_on_c, 2, 67, 0
13, 175194, Note_on_c, 2, 67, 87
13, 175257, Note_on_c, 2, 64, 0
13, 175277, Note_on_c, 2, 69, 70
13, 175393, Note_on_c, 2, 72, 83
13, 175404, Note_on_c, 2, 67, 0
13, 175534, Note_on_c, 2, 74, 88
13, 175536, Note_on_c, 2, 69, 0
13, 175550, Note_on_c, 2, 72, 0
13, 175678, Note_on_c, 2, 67, 89
13, 175694, Note_on_c, 2, 74, 0
13, 175747, Note_on_c, 2, 72, 92
13, 175814, Note_on_c, 2, 74, 87
13, 175842, Note_on_c, 2, 67, 0
13, 175928, Note_on_c, 2, 76, 94
13, 175932, Note_on_c, 2, 72, 0
13, 175979, Note_on_c, 2, 74, 0
13, 176060, Note_on_c, 2, 79, 89
13, 176112, Note_on_c, 2, 76, 0
13, 176147, Control_c, 2, 1, 49
13, 176160, Note_on_c, 2, 60, 0
13, 176169, Note_on_c, 2, 76, 92
13, 176271, Control_c, 2, 1, 53
13, 176286, Note_on_c, 2, 74, 100
13, 176352, Note_on_c, 2, 79, 0
13, 176355, Control_c, 2, 1, 57
13, 176407, Note_on_c, 2, 72, 96
13, 176408, Note_on_c, 2, 76, 0
13, 176418, Note_on_c, 2, 74, 0
13, 176430, Control_c, 2, 1, 61
13, 176502, Control_c, 2, 1, 66
13, 176521, Note_on_c, 2, 74, 98
13, 176552, Note_on_c, 2, 72, 0
13, 176612, Control_c, 2, 1, 70
13, 176637, Note_on_c, 2, 76, 92
13, 176640, Note_on_c, 2, 55, 96
13, 176664, Note_on_c, 2, 74, 0
13, 176694, Control_c, 2, 1, 74
13, 176826, Note_on_c, 2, 77, 82
13, 176859, Note_on_c, 2, 76, 0
13, 176860, Control_c, 2, 1, 78
13, 176985, Note_on_c, 2, 77, 0
13, 176995, Note_on_c, 2, 79, 94
13, 177131, Note_on_c, 2, 81, 96
13, 177163, Note_on_c, 2, 79, 0
13, 177272, Note_on_c, 2, 77, 89
13, 177295, Note_on_c, 2, 81, 0
13, 177447, Note_on_c, 2, 77, 0
13, 177457, Note_on_c, 2, 79, 89
13, 177471, Note_on_c, 2, 77, 66
13, 177497, Note_on_c, 2, 77, 0
13, 177602, Note_on_c, 2, 79, 0
13, 177607, Note_on_c, 2, 84, 89
13, 177763, Note_on_c, 2, 81, 89
13, 177807, Note_on_c, 2, 84, 0
13, 177949, Note_on_c, 2, 77, 89
13, 177957, Note_on_c, 2, 84, 77
13, 178000, Control_c, 2, 1, 82
13, 178065, Control_c, 2, 1, 86
13, 178068, Note_on_c, 2, 81, 0
13, 178069, Note_on_c, 2, 84, 0
13, 178075, Note_on_c, 2, 86, 94
13, 178080, Note_on_c, 2, 55, 0
13, 178108, Note_on_c, 2, 77, 0
13, 178295, Note_on_c, 2, 79, 94
13, 178387, Note_on_c, 2, 86, 0
13, 178420, Note_on_c, 2, 83, 92
13, 178548, Note_on_c, 2, 86, 95
13, 178552, Note_on_c, 2, 83, 0
13, 178560, Note_on_c, 2, 50, 96
13, 178580, Note_on_c, 2, 79, 0
13, 178780, Note_on_c, 2, 84, 87
13, 178875, Note_on_c, 2, 86, 0
13, 179009, Note_on_c, 2, 79, 92
13, 179146, Note_on_c, 2, 62, 92
13, 179180, Note_on_c, 2, 79, 0
13, 179188, Note_on_c, 2, 84, 0
13, 179394, Note_on_c, 2, 64, 92
13, 179525, Note_on_c, 2, 69, 92
13, 179564, Note_on_c, 2, 64, 0
13, 179646, Note_on_c, 2, 62, 0
13, 179777, Note_on_c, 2, 66, 83
13, 179823, Note_on_c, 2, 69, 0
13, 179881, Note_on_c, 2, 67, 83
13, 179992, Note_on_c, 2, 71, 74
13, 180096, Note_on_c, 2, 73, 85
13, 180125, Note_on_c, 2, 71, 0
13, 180233, Note_on_c, 2, 74, 95
13, 180235, Note_on_c, 2, 73, 0
13, 180266, Note_on_c, 2, 67, 0
13, 180345, Note_on_c, 2, 76, 89
13, 180346, Note_on_c, 2, 74, 0
13, 180360, Note_on_c, 2, 66, 0
13, 180466, Note_on_c, 2, 66, 87
13, 180480, Note_on_c, 2, 50, 0
13, 180480, Note_on_c, 2, 74, 96
13, 180503, Note_on_c, 2, 76, 0
13, 180548, Note_on_c, 2, 69, 70
13, 180572, Note_on_c, 2, 66, 0
13, 180606, Note_on_c, 2, 71, 72
13, 180662, Note_on_c, 2, 73, 83
13, 180687, Note_on_c, 2, 71, 0
13, 180730, Note_on_c, 2, 69, 0
13, 180732, Note_on_c, 2, 74, 87
13, 180755, Note_on_c, 2, 73, 0
13, 180815, Note_on_c, 2, 76, 88
13, 180830, Note_on_c, 2, 74, 0
13, 180878, Control_c, 2, 1, 82
13, 180927, Note_on_c, 2, 78, 74
13, 180951, Control_c, 2, 1, 78
13, 180962, Note_on_c, 2, 76, 0
13, 181026, Control_c, 2, 1, 74
13, 181034, Note_on_c, 2, 79, 83
13, 181091, Control_c, 2, 1, 70
13, 181130, Note_on_c, 2, 81, 87
13, 181168, Control_c, 2, 1, 66
13, 181218, Note_on_c, 2, 83, 85
13, 181250, Control_c, 2, 1, 61
13, 181258, Note_on_c, 2, 81, 0
13, 181290, Note_on_c, 2, 85, 82
13, 181309, Control_c, 2, 1, 57
13, 181311, Note_on_c, 2, 83, 0
13, 181329, Note_on_c, 2, 79, 0
13, 181354, Note_on_c, 2, 78, 0
13, 181371, Note_on_c, 2, 86, 79
13, 181374, Control_c, 2, 1, 53
13, 181433, Control_c, 2, 1, 49
13, 181472, Note_on_c, 2, 85, 0
13, 181474, Note_on_c, 2, 88, 72
13, 181477, Note_on_c, 2, 86, 0
13, 181524, Control_c, 2, 1, 45
13, 181625, Note_on_c, 2, 86, 84
13, 181674, Note_on_c, 2, 88, 0
13, 181732, Note_on_c, 2, 85, 76
13, 181855, Note_on_c, 2, 86, 0
13, 181855, Note_on_c, 2, 83, 83
13, 181872, Note_on_c, 2, 85, 0
13, 181980, Note_on_c, 2, 81, 94
13, 181984, Note_on_c, 2, 83, 0
13, 182069, Note_on_c, 2, 83, 88
13, 182086, Note_on_c, 2, 81, 0
13, 182188, Note_on_c, 2, 85, 74
13, 182205, Note_on_c, 2, 83, 0
13, 182290, Note_on_c, 2, 86, 94
13, 182314, Note_on_c, 2, 85, 0
13, 182400, Note_on_c, 2, 74, 0
13, 182400, Note_on_c, 2, 60, 96
13, 182425, Note_on_c, 2, 85, 84
13, 182512, Note_on_c, 2, 86, 0
13, 182521, Note_on_c, 2, 83, 82
13, 182535, Note_on_c, 2, 85, 0
13, 182624, Note_on_c, 2, 81, 83
13, 182632, Note_on_c, 2, 83, 0
13, 182740, Note_on_c, 2, 83, 87
13, 182759, Note_on_c, 2, 81, 0
13, 182820, Control_c, 2, 1, 41
13, 182866, Note_on_c, 2, 81, 88
13, 182872, Note_on_c, 2, 83, 0
13, 182978, Note_on_c, 2, 83, 88
13, 183010, Note_on_c, 2, 81, 0
13, 183081, Note_on_c, 2, 81, 84
13, 183092, Control_c, 2, 1, 37
13, 183093, Note_on_c, 2, 83, 0
13, 183206, Note_on_c, 2, 83, 102
13, 183222, Note_on_c, 2, 81, 0
13, 183328, Note_on_c, 2, 81, 88
13, 183334, Note_on_c, 2, 83, 0
13, 183389, Control_c, 2, 1, 33
13, 183436, Note_on_c, 2, 83, 94
13, 183458, Note_on_c, 2, 81, 0
13, 183539, Note_on_c, 2, 81, 87
13, 183542, Note_on_c, 2, 83, 0
13, 183643, Note_on_c, 2, 83, 102
13, 183658, Note_on_c, 2, 81, 0
13, 183762, Note_on_c, 2, 81, 89
13, 183768, Note_on_c, 2, 83, 0
13, 183871, Note_on_c, 2, 83, 88
13, 183890, Note_on_c, 2, 81, 0
13, 183975, Note_on_c, 2, 81, 89
13, 183997, Note_on_c, 2, 83, 0
13, 184094, Note_on_c, 2, 88, 89
13, 184117, Note_on_c, 2, 81, 0
13, 184163, Note_on_c, 2, 86, 89
13, 184174, Note_on_c, 2, 88, 0
13, 184231, Note_on_c, 2, 88, 89
13, 184240, Note_on_c, 2, 86, 0
13, 184288, Note_on_c, 2, 86, 89
13, 184301, Note_on_c, 2, 88, 0
13, 184320, Note_on_c, 2, 60, 0
13, 184320, Note_on_c, 2, 55, 96
13, 184328, Note_on_c, 2, 86, 0
13, 184347, Note_on_c, 2, 86, 102
13, 184415, Note_on_c, 2, 88, 84
13, 184421, Note_on_c, 2, 86, 0
13, 184469, Note_on_c, 2, 86, 94
13, 184479, Note_on_c, 2, 88, 0
13, 184529, Note_on_c, 2, 88, 88
13, 184539, Note_on_c, 2, 86, 0
13, 184577, Note_on_c, 2, 86, 88
13, 184589, Note_on_c, 2, 88, 0
13, 184641, Note_on_c, 2, 88, 87
13, 184644, Note_on_c, 2, 86, 0
13, 184686, Note_on_c, 2, 86, 85
13, 184699, Note_on_c, 2, 88, 0
13, 184745, Note_on_c, 2, 88, 88
13, 184750, Note_on_c, 2, 86, 0
13, 184793, Note_on_c, 2, 86, 88
13, 184803, Note_on_c, 2, 88, 0
13, 184848, Note_on_c, 2, 88, 85
13, 184856, Note_on_c, 2, 86, 0
13, 184894, Note_on_c, 2, 86, 89
13, 184909, Note_on_c, 2, 88, 0
13, 184963, Note_on_c, 2, 88, 82
13, 184984, Note_on_c, 2, 86, 0
13, 185123, Note_on_c, 2, 88, 0
13, 185128, Note_on_c, 2, 89, 77
13, 185190, Note_on_c, 2, 88, 88
13, 185203, Note_on_c, 2, 89, 0
13, 185257, Note_on_c, 2, 88, 0
13, 185261, Note_on_c, 2, 89, 84
13, 185313, Note_on_c, 2, 88, 87
13, 185334, Note_on_c, 2, 89, 0
13, 185373, Note_on_c, 2, 88, 0
13, 185380, Note_on_c, 2, 89, 84
13, 185426, Note_on_c, 2, 88, 85
13, 185446, Note_on_c, 2, 89, 0
13, 185488, Note_on_c, 2, 88, 0
13, 185499, Note_on_c, 2, 89, 84
13, 185551, Note_on_c, 2, 88, 87
13, 185569, Note_on_c, 2, 89, 0
13, 185615, Note_on_c, 2, 88, 0
13, 185625, Note_on_c, 2, 89, 85
13, 185666, Note_on_c, 2, 88, 89
13, 185691, Note_on_c, 2, 89, 0
13, 185743, Note_on_c, 2, 89, 76
13, 185745, Note_on_c, 2, 88, 0
13, 185804, Note_on_c, 2, 88, 87
13, 185820, Note_on_c, 2, 89, 0
13, 185888, Note_on_c, 2, 89, 87
13, 185916, Note_on_c, 2, 88, 0
13, 186033, Note_on_c, 2, 93, 89
13, 186055, Note_on_c, 2, 89, 0
13, 186240, Note_on_c, 2, 55, 0
13, 186240, Note_on_c, 2, 38, 96
13, 186685, Control_c, 2, 1, 90
13, 186694, Control_c, 2, 1, 94
13, 186702, Control_c, 2, 1, 99
13, 186708, Control_c, 2, 1, 103
13, 186719, Control_c, 2, 1, 111
13, 186729, Control_c, 2, 1, 115
13, 186739, Control_c, 2, 1, 119
13, 186753, Control_c, 2, 1, 123
13, 186766, Control_c, 2, 1, 127
13, 187009, Pitch_bend_c, 2, 8064
13, 187035, Pitch_bend_c, 2, 7936
13, 187051, Pitch_bend_c, 2, 7808
13, 187056, Note_on_c, 2, 91, 85
13, 187067, Pitch_bend_c, 2, 7680
13, 187093, Pitch_bend_c, 2, 7552
13, 187112, Pitch_bend_c, 2, 7424
13, 187145, Pitch_bend_c, 2, 7296
13, 187161, Pitch_bend_c, 2, 7168
13, 187177, Pitch_bend_c, 2, 7040
13, 187196, Pitch_bend_c, 2, 6912
13, 187213, Pitch_bend_c, 2, 6656
13, 187227, Control_c, 2, 1, 123
13, 187236, Pitch_bend_c, 2, 6528
13, 187294, Pitch_bend_c, 2, 6400
13, 187323, Control_c, 2, 1, 127
13, 187328, Note_on_c, 2, 90, 96
13, 187330, Pitch_bend_c, 2, 6272
13, 187353, Pitch_bend_c, 2, 6144
13, 187437, Control_c, 2, 1, 123
13, 187446, Control_c, 2, 1, 119
13, 187454, Pitch_bend_c, 2, 6016
13, 187457, Control_c, 2, 1, 115
13, 187471, Control_c, 2, 1, 107
13, 187484, Control_c, 2, 1, 103
13, 187523, Control_c, 2, 1, 107
13, 187534, Control_c, 2, 1, 111
13, 187544, Control_c, 2, 1, 119
13, 187554, Control_c, 2, 1, 123
13, 187568, Control_c, 2, 1, 127
13, 187575, Note_on_c, 2, 90, 0
13, 187607, Note_on_c, 2, 91, 0
13, 187666, Note_on_c, 2, 91, 85
13, 187793, Pitch_bend_c, 2, 6144
13, 187829, Note_on_c, 2, 93, 0
13, 187835, Pitch_bend_c, 2, 6272
13, 187836, Note_on_c, 2, 91, 0
13, 187868, Pitch_bend_c, 2, 6400
13, 187901, Pitch_bend_c, 2, 6528
13, 187926, Pitch_bend_c, 2, 6656
13, 187936, Pitch_bend_c, 2, 6784
13, 187940, Note_on_c, 2, 64, 87
13, 187952, Pitch_bend_c, 2, 6912
13, 187978, Pitch_bend_c, 2, 7040
13, 187994, Pitch_bend_c, 2, 7168
13, 188010, Pitch_bend_c, 2, 7296
13, 188036, Pitch_bend_c, 2, 7424
13, 188051, Note_on_c, 2, 66, 84
13, 188053, Pitch_bend_c, 2, 7552
13, 188071, Pitch_bend_c, 2, 7680
13, 188088, Pitch_bend_c, 2, 7808
13, 188104, Pitch_bend_c, 2, 7936
13, 188120, Pitch_bend_c, 2, 8192
13, 188140, Control_c, 2, 1, 123
13, 188160, Note_on_c, 2, 38, 0
13, 188160, Control_c, 2, 1, 119
13, 188173, Control_c, 2, 1, 115
13, 188187, Control_c, 2, 1, 107
13, 188196, Control_c, 2, 1, 103
13, 188207, Control_c, 2, 1, 99
13, 188213, Control_c, 2, 1, 94
13, 188227, Control_c, 2, 1, 90
13, 188237, Control_c, 2, 1, 86
13, 188254, Control_c, 2, 1, 82
13, 188270, Note_on_c, 2, 64, 0
13, 188272, Note_on_c, 2, 69, 92
13, 188285, Control_c, 2, 1, 78
13, 188319, Note_on_c, 2, 66, 0
13, 188674, Note_on_c, 2, 69, 0
13, 188885, Note_on_c, 2, 64, 94
13, 189024, Note_on_c, 2, 66, 102
13, 189074, Note_on_c, 2, 64, 0
13, 189240, Note_on_c, 2, 74, 90
13, 189434, Note_on_c, 2, 66, 0
13, 189585, Note_on_c, 2, 71, 81
13, 189714, Note_on_c, 2, 69, 89
13, 189960, Note_on_c, 2, 64, 67
13, 189985, Note_on_c, 2, 69, 0
13, 189993, Note_on_c, 2, 71, 0
13, 190003, Note_on_c, 2, 74, 0
13, 190047, Note_on_c, 2, 67, 74
13, 190080, Note_on_c, 2, 60, 96
13, 190160, Note_on_c, 2, 64, 0
13, 190177, Note_on_c, 2, 69, 83
13, 190197, Note_on_c, 2, 67, 0
13, 190292, Note_on_c, 2, 72, 92
13, 190332, Note_on_c, 2, 69, 0
13, 190385, Note_on_c, 2, 72, 0
13, 190414, Note_on_c, 2, 76, 92
13, 190472, Note_on_c, 2, 76, 0
13, 190499, Note_on_c, 2, 72, 87
13, 190570, Note_on_c, 2, 76, 89
13, 190651, Note_on_c, 2, 79, 90
13, 190677, Note_on_c, 2, 72, 0
13, 190708, Note_on_c, 2, 76, 0
13, 190746, Note_on_c, 2, 81, 92
13, 190797, Note_on_c, 2, 79, 0
13, 190885, Note_on_c, 2, 81, 0
13, 190899, Note_on_c, 2, 79, 87
13, 190941, Note_on_c, 2, 79, 0
13, 190963, Note_on_c, 2, 76, 94
13, 191023, Note_on_c, 2, 79, 89
13, 191097, Note_on_c, 2, 76, 0
13, 191151, Note_on_c, 2, 82, 99
13, 191173, Note_on_c, 2, 79, 0
13, 191269, Note_on_c, 2, 82, 0
13, 191275, Note_on_c, 2, 81, 99
13, 191395, Note_on_c, 2, 79, 92
13, 191418, Note_on_c, 2, 81, 0
13, 191523, Note_on_c, 2, 76, 100
13, 191526, Note_on_c, 2, 79, 0
13, 191778, Note_on_c, 2, 86, 88
13, 191796, Note_on_c, 2, 76, 0
13, 191901, Note_on_c, 2, 84, 83
13, 192000, Note_on_c, 2, 60, 0
13, 192000, Note_on_c, 2, 43, 96
13, 192016, Note_on_c, 2, 81, 77
13, 192115, Note_on_c, 2, 83, 84
13, 192141, Note_on_c, 2, 81, 0
13, 192192, Note_on_c, 2, 86, 0
13, 192195, Note_on_c, 2, 84, 0
13, 192247, Note_on_c, 2, 79, 84
13, 192269, Note_on_c, 2, 83, 0
13, 192370, Note_on_c, 2, 79, 0
13, 192388, Note_on_c, 2, 77, 79
13, 192480, Note_on_c, 2, 79, 83
13, 192546, Note_on_c, 2, 77, 0
13, 192597, Note_on_c, 2, 81, 88
13, 192620, Note_on_c, 2, 79, 0
13, 192719, Note_on_c, 2, 74, 93
13, 192746, Note_on_c, 2, 81, 0
13, 192851, Note_on_c, 2, 76, 85
13, 192921, Note_on_c, 2, 74, 0
13, 192966, Note_on_c, 2, 77, 85
13, 193005, Note_on_c, 2, 76, 0
13, 193084, Note_on_c, 2, 79, 92
13, 193214, Note_on_c, 2, 77, 0
13, 193229, Note_on_c, 2, 79, 0
13, 193319, Note_on_c, 2, 64, 99
13, 193380, Note_on_c, 2, 65, 96
13, 193417, Note_on_c, 2, 64, 0
13, 193440, Note_on_c, 2, 67, 85
13, 193461, Note_on_c, 2, 65, 0
13, 193549, Note_on_c, 2, 67, 0
13, 193555, Note_on_c, 2, 69, 88
13, 193661, Note_on_c, 2, 69, 0
13, 193666, Note_on_c, 2, 62, 107
13, 193826, Note_on_c, 2, 74, 66
13, 193920, Note_on_c, 2, 43, 0
13, 193920, Note_on_c, 2, 50, 96
13, 194016, Note_on_c, 2, 50, 72
13, 194075, Note_on_c, 2, 62, 0
13, 194165, Note_on_c, 2, 74, 0
13, 194271, Note_on_c, 2, 57, 81
13, 194342, Note_on_c, 2, 50, 0
13, 194393, Note_on_c, 2, 62, 87
13, 194437, Note_on_c, 2, 57, 0
13, 194512, Note_on_c, 2, 66, 84
13, 194665, Note_on_c, 2, 74, 62
13, 194694, Pitch_bend_c, 2, 8064
13, 194726, Note_on_c, 2, 62, 0
13, 194726, Note_on_c, 2, 66, 0
13, 194776, Note_on_c, 2, 57, 87
13, 194827, Pitch_bend_c, 2, 7936
13, 194860, Pitch_bend_c, 2, 7808
13, 194886, Note_on_c, 2, 50, 89
13, 194906, Note_on_c, 2, 74, 0
13, 194918, Pitch_bend_c, 2, 7680
13, 194919, Note_on_c, 2, 57, 0
13, 195008, Note_on_c, 2, 54, 85
13, 195024, Note_on_c, 2, 50, 0
13, 195120, Note_on_c, 2, 74, 88
13, 195121, Note_on_c, 2, 76, 87
13, 195130, Note_on_c, 2, 76, 0
13, 195249, Note_on_c, 2, 78, 99
13, 195281, Note_on_c, 2, 54, 0
13, 195281, Pitch_bend_c, 2, 7808
13, 195365, Note_on_c, 2, 86, 102
13, 195379, Note_on_c, 2, 78, 0
13, 195379, Note_on_c, 2, 74, 0
13, 195480, Pitch_bend_c, 2, 7936
13, 195494, Note_on_c, 2, 86, 0
13, 195494, Note_on_c, 2, 74, 96
13, 195538, Pitch_bend_c, 2, 8064
13, 195571, Pitch_bend_c, 2, 8192
13, 195612, Note_on_c, 2, 36, 68
13, 195615, Note_on_c, 2, 38, 78
13, 195638, Note_on_c, 2, 74, 0
13, 195686, Note_on_c, 2, 36, 0
13, 195755, Note_on_c, 2, 74, 95
13, 195824, Note_on_c, 2, 38, 0
13, 195840, Note_on_c, 2, 50, 0
13, 195846, Note_on_c, 2, 78, 81
13, 195956, Note_on_c, 2, 86, 102
13, 195969, Note_on_c, 2, 78, 0
13, 195975, Note_on_c, 2, 74, 0
13, 196099, Note_on_c, 2, 50, 85
13, 196182, Note_on_c, 2, 86, 0
13, 196198, Note_on_c, 2, 74, 95
13, 196226, Note_on_c, 2, 50, 0
13, 196319, Note_on_c, 2, 86, 102
13, 196340, Note_on_c, 2, 74, 0
13, 196437, Note_on_c, 2, 86, 0
13, 196440, Note_on_c, 2, 74, 93
13, 196571, Note_on_c, 2, 86, 94
13, 196619, Note_on_c, 2, 74, 0
13, 196690, Note_on_c, 2, 78, 78
13, 196784, Note_on_c, 2, 78, 0
13, 196794, Note_on_c, 2, 76, 88
13, 196827, Note_on_c, 2, 86, 0
13, 196925, Note_on_c, 2, 78, 96
13, 196935, Note_on_c, 2, 86, 84
13, 196936, Note_on_c, 2, 87, 72
13, 196973, Note_on_c, 2, 76, 0
13, 197003, Note_on_c, 2, 87, 0
13, 197004, Note_on_c, 2, 86, 0
13, 197084, Note_on_c, 2, 76, 70
13, 197103, Note_on_c, 2, 78, 0
13, 197107, Note_on_c, 2, 76, 0
13, 197142, Note_on_c, 2, 76, 92
13, 197281, Note_on_c, 2, 83, 94
13, 197303, Note_on_c, 2, 76, 0
13, 197340, Note_on_c, 2, 81, 84
13, 197409, Note_on_c, 2, 78, 92
13, 197421, Note_on_c, 2, 79, 81
13, 197425, Note_on_c, 2, 83, 0
13, 197442, Note_on_c, 2, 81, 0
13, 197460, Note_on_c, 2, 79, 0
13, 197465, Note_on_c, 2, 78, 0
13, 197512, Note_on_c, 2, 71, 88
13, 197635, Note_on_c, 2, 72, 74
13, 197705, Note_on_c, 2, 71, 0
13, 197757, Note_on_c, 2, 74, 93
13, 197798, Note_on_c, 2, 72, 0
13, 197871, Note_on_c, 2, 74, 0
13, 197881, Note_on_c, 2, 76, 96
13, 198002, Note_on_c, 2, 74, 88
13, 198110, Note_on_c, 2, 76, 0
13, 198132, Note_on_c, 2, 72, 94
13, 198145, Note_on_c, 2, 74, 0
13, 198210, Note_on_c, 2, 72, 0
13, 198246, Note_on_c, 2, 70, 100
13, 198340, Note_on_c, 2, 70, 0
13, 198369, Note_on_c, 2, 72, 78
13, 198371, Note_on_c, 2, 71, 87
13, 198445, Note_on_c, 2, 71, 0
13, 198495, Note_on_c, 2, 74, 68
13, 198508, Pitch_bend_c, 2, 8064
13, 198541, Note_on_c, 2, 72, 0
13, 198550, Pitch_bend_c, 2, 7936
13, 198603, Note_on_c, 2, 74, 0
13, 198604, Note_on_c, 2, 76, 88
13, 198720, Note_on_c, 2, 74, 85
13, 198844, Note_on_c, 2, 72, 88
13, 198874, Note_on_c, 2, 74, 0
13, 198881, Note_on_c, 2, 76, 0
13, 198961, Note_on_c, 2, 71, 94
13, 198972, Note_on_c, 2, 72, 0
13, 199074, Note_on_c, 2, 69, 99
13, 199098, Note_on_c, 2, 71, 0
13, 199183, Note_on_c, 2, 71, 94
13, 199215, Note_on_c, 2, 69, 0
13, 199301, Note_on_c, 2, 72, 89
13, 199308, Pitch_bend_c, 2, 8064
13, 199321, Note_on_c, 2, 71, 0
13, 199414, Note_on_c, 2, 71, 94
13, 199539, Note_on_c, 2, 69, 102
13, 199549, Note_on_c, 2, 71, 0
13, 199556, Note_on_c, 2, 72, 0
13, 199648, Note_on_c, 2, 65, 96
13, 199651, Note_on_c, 2, 69, 0
13, 199789, Note_on_c, 2, 69, 87
13, 199881, Note_on_c, 2, 65, 0
13, 199915, Note_on_c, 2, 72, 84
13, 199933, Note_on_c, 2, 69, 0
13, 199935, Pitch_bend_c, 2, 7936
13, 200016, Note_on_c, 2, 69, 85
13, 200073, Note_on_c, 2, 72, 0
13, 200134, Note_on_c, 2, 69, 0
13, 200134, Note_on_c, 2, 65, 90
13, 200263, Note_on_c, 2, 68, 88
13, 200289, Note_on_c, 2, 65, 0
13, 200386, Note_on_c, 2, 65, 84
13, 200401, Note_on_c, 2, 68, 0
13, 200464, Pitch_bend_c, 2, 7808
13, 200511, Note_on_c, 2, 69, 92
13, 200571, Note_on_c, 2, 65, 0
13, 200637, Note_on_c, 2, 72, 85
13, 200663, Note_on_c, 2, 69, 0
13, 200763, Note_on_c, 2, 74, 93
13, 200781, Note_on_c, 2, 72, 0
13, 200911, Pitch_bend_c, 2, 7680
13, 201000, Note_on_c, 2, 67, 85
13, 201004, Note_on_c, 2, 74, 0
13, 201105, Note_on_c, 2, 76, 89
13, 201141, Note_on_c, 2, 67, 0
13, 201242, Note_on_c, 2, 67, 87
13, 201310, Note_on_c, 2, 76, 0
13, 201351, Note_on_c, 2, 77, 85
13, 201433, Note_on_c, 2, 67, 0
13, 201473, Note_on_c, 2, 67, 84
13, 201531, Pitch_bend_c, 2, 7808
13, 201532, Note_on_c, 2, 77, 0
13, 201587, Pitch_bend_c, 2, 7936
13, 201624, Note_on_c, 2, 74, 71
13, 201629, Pitch_bend_c, 2, 8064
13, 201646, Pitch_bend_c, 2, 8192
13, 201720, Note_on_c, 2, 67, 0
13, 201983, Note_on_c, 2, 81, 62
13, 202028, Note_on_c, 2, 81, 0
13, 202087, Note_on_c, 2, 81, 87
13, 202211, Note_on_c, 2, 78, 85
13, 202222, Note_on_c, 2, 74, 0
13, 202322, Note_on_c, 2, 74, 95
13, 202328, Note_on_c, 2, 81, 0
13, 202340, Note_on_c, 2, 78, 0
13, 202442, Note_on_c, 2, 81, 94
13, 202468, Note_on_c, 2, 74, 0
13, 202571, Note_on_c, 2, 74, 87
13, 202592, Note_on_c, 2, 81, 0
13, 202684, Note_on_c, 2, 81, 94
13, 202700, Note_on_c, 2, 74, 0
13, 202785, Note_on_c, 2, 78, 83
13, 202877, Pitch_bend_c, 2, 8064
13, 202913, Note_on_c, 2, 74, 87
13, 202917, Note_on_c, 2, 81, 0
13, 203004, Note_on_c, 2, 78, 0
13, 203032, Note_on_c, 2, 81, 94
13, 203034, Note_on_c, 2, 74, 0
13, 203125, Pitch_bend_c, 2, 7936
13, 203165, Note_on_c, 2, 78, 26
13, 203228, Note_on_c, 2, 81, 0
13, 203283, Note_on_c, 2, 74, 90
13, 203314, Note_on_c, 2, 78, 0
13, 203398, Pitch_bend_c, 2, 8064
13, 203455, Note_on_c, 2, 74, 0
13, 203513, Pitch_bend_c, 2, 8192
13, 203520, Note_on_c, 2, 74, 110
13, 204480, Control_c, 2, 1, 77
13, 204898, Control_c, 2, 1, 37
13, 205032, Control_c, 2, 1, 41
13, 205156, Control_c, 2, 1, 45
13, 205247, Control_c, 2, 1, 49
13, 205296, Control_c, 2, 1, 53
13, 205371, Control_c, 2, 1, 57
13, 205439, Control_c, 2, 1, 61
13, 205440, Note_on_c, 2, 74, 0
13, 205440, Note_on_c, 2, 60, 116
13, 205514, Control_c, 2, 1, 66
13, 205605, Control_c, 2, 1, 70
13, 205680, Control_c, 2, 1, 74
13, 205785, Control_c, 2, 1, 78
13, 205919, Control_c, 2, 1, 82
13, 206043, Control_c, 2, 1, 86
13, 206232, Control_c, 2, 1, 90
13, 206365, Control_c, 2, 1, 94
13, 206473, Control_c, 2, 1, 99
13, 206597, Control_c, 2, 1, 103
13, 206688, Control_c, 2, 1, 107
13, 206812, Control_c, 2, 1, 111
13, 206913, Control_c, 2, 1, 115
13, 207360, Note_on_c, 2, 60, 0
13, 207374, Control_c, 2, 1, 111
13, 207380, Note_on_c, 2, 79, 96
13, 207446, Note_on_c, 2, 81, 98
13, 207449, Note_on_c, 2, 79, 0
13, 207456, Control_c, 2, 1, 107
13, 207552, Note_on_c, 2, 81, 0
13, 207557, Control_c, 2, 1, 103
13, 207565, Note_on_c, 2, 76, 94
13, 207622, Note_on_c, 2, 77, 96
13, 207644, Note_on_c, 2, 76, 0
13, 207685, Note_on_c, 2, 77, 0
13, 207687, Note_on_c, 2, 79, 107
13, 207826, Note_on_c, 2, 77, 87
13, 207845, Note_on_c, 2, 79, 0
13, 207847, Control_c, 2, 1, 99
13, 207919, Control_c, 2, 1, 94
13, 207940, Note_on_c, 2, 79, 96
13, 207959, Note_on_c, 2, 77, 0
13, 207978, Control_c, 2, 1, 90
13, 208036, Control_c, 2, 1, 86
13, 208056, Note_on_c, 2, 81, 92
13, 208110, Note_on_c, 2, 79, 0
13, 208153, Control_c, 2, 1, 82
13, 208183, Note_on_c, 2, 81, 0
13, 208185, Note_on_c, 2, 83, 105
13, 208235, Control_c, 2, 1, 78
13, 208312, Note_on_c, 2, 81, 88
13, 208323, Note_on_c, 2, 83, 0
13, 208352, Control_c, 2, 1, 74
13, 208432, Note_on_c, 2, 83, 93
13, 208460, Control_c, 2, 1, 70
13, 208508, Note_on_c, 2, 81, 0
13, 208553, Note_on_c, 2, 83, 0
13, 208553, Note_on_c, 2, 81, 93
13, 208600, Control_c, 2, 1, 66
13, 208670, Note_on_c, 2, 79, 96
13, 208717, Control_c, 2, 1, 61
13, 208780, Note_on_c, 2, 79, 0
13, 208781, Note_on_c, 2, 81, 0
13, 208803, Note_on_c, 2, 86, 96
13, 208841, Control_c, 2, 1, 57
13, 208929, Note_on_c, 2, 84, 87
13, 209057, Note_on_c, 2, 83, 92
13, 209082, Note_on_c, 2, 86, 0
13, 209084, Note_on_c, 2, 84, 0
13, 209184, Note_on_c, 2, 81, 89
13, 209194, Note_on_c, 2, 83, 0
13, 209237, Control_c, 2, 1, 53
13, 209354, Control_c, 2, 1, 49
13, 209412, Note_on_c, 2, 86, 99
13, 209438, Note_on_c, 2, 81, 0
13, 209452, Control_c, 2, 1, 45
13, 209627, Control_c, 2, 1, 41
13, 209657, Note_on_c, 2, 81, 88
13, 209660, Note_on_c, 2, 86, 0
13, 209772, Note_on_c, 2, 86, 102
13, 209792, Note_on_c, 2, 84, 76
13, 209825, Note_on_c, 2, 81, 0
13, 209847, Note_on_c, 2, 84, 0
13, 209948, Control_c, 2, 1, 37
13, 210343, Note_on_c, 2, 71, 127
13, 210344, Note_on_c, 2, 86, 0
13, 210464, Note_on_c, 2, 76, 127
13, 210469, Note_on_c, 2, 71, 0
13, 210484, Control_c, 2, 1, 33
13, 210593, Note_on_c, 2, 69, 107
13, 210605, Note_on_c, 2, 76, 0
13, 210697, Note_on_c, 2, 74, 127
13, 210711, Note_on_c, 2, 80, 72
13, 210724, Note_on_c, 2, 80, 0
13, 210733, Note_on_c, 2, 69, 0
13, 210812, Note_on_c, 2, 67, 89
13, 210827, Note_on_c, 2, 74, 0
13, 210926, Note_on_c, 2, 72, 127
13, 210928, Note_on_c, 2, 75, 85
13, 210936, Note_on_c, 2, 78, 83
13, 210954, Note_on_c, 2, 78, 0
13, 210958, Note_on_c, 2, 75, 0
13, 210968, Note_on_c, 2, 67, 0
13, 211060, Note_on_c, 2, 62, 72
13, 211062, Note_on_c, 2, 64, 76
13, 211091, Note_on_c, 2, 72, 0
13, 211114, Note_on_c, 2, 64, 0
13, 211174, Note_on_c, 2, 71, 127
13, 211182, Note_on_c, 2, 75, 87
13, 211185, Note_on_c, 2, 72, 84
13, 211194, Note_on_c, 2, 72, 0
13, 211197, Note_on_c, 2, 75, 0
13, 211217, Note_on_c, 2, 62, 0
13, 211293, Note_on_c, 2, 64, 87
13, 211326, Control_c, 2, 1, 28
13, 211333, Note_on_c, 2, 71, 0
13, 211411, Note_on_c, 2, 69, 127
13, 211492, Note_on_c, 2, 64, 0
13, 211527, Note_on_c, 2, 62, 83
13, 211527, Note_on_c, 2, 60, 83
13, 211613, Note_on_c, 2, 69, 0
13, 211634, Note_on_c, 2, 67, 96
13, 211669, Note_on_c, 2, 60, 0
13, 211681, Note_on_c, 2, 62, 0
13, 211739, Note_on_c, 2, 62, 84
13, 211883, Note_on_c, 2, 64, 82
13, 211904, Note_on_c, 2, 67, 0
13, 211926, Note_on_c, 2, 62, 0
13, 212003, Note_on_c, 2, 66, 93
13, 212064, Note_on_c, 2, 64, 0
13, 212103, Control_c, 2, 1, 24
13, 212142, Note_on_c, 2, 62, 81
13, 212235, Note_on_c, 2, 66, 0
13, 212246, Note_on_c, 2, 65, 92
13, 212305, Note_on_c, 2, 62, 0
13, 212389, Note_on_c, 2, 64, 87
13, 212443, Note_on_c, 2, 65, 0
13, 212502, Note_on_c, 2, 67, 127
13, 212550, Note_on_c, 2, 64, 0
13, 212644, Note_on_c, 2, 62, 81
13, 212716, Note_on_c, 2, 67, 0
13, 212761, Note_on_c, 2, 66, 105
13, 212895, Note_on_c, 2, 64, 92
13, 212913, Note_on_c, 2, 62, 0
13, 212918, Note_on_c, 2, 66, 0
13, 213004, Note_on_c, 2, 69, 96
13, 213059, Note_on_c, 2, 64, 0
13, 213145, Note_on_c, 2, 67, 82
13, 213229, Note_on_c, 2, 69, 0
13, 213244, Note_on_c, 2, 71, 107
13, 213285, Note_on_c, 2, 67, 0
13, 213348, Control_c, 2, 1, 28
13, 213367, Note_on_c, 2, 67, 99
13, 213391, Note_on_c, 2, 71, 0
13, 213397, Control_c, 2, 1, 33
13, 213439, Control_c, 2, 1, 37
13, 213472, Control_c, 2, 1, 41
13, 213474, Note_on_c, 2, 73, 113
13, 213507, Control_c, 2, 1, 45
13, 213527, Note_on_c, 2, 67, 0
13, 213549, Control_c, 2, 1, 49
13, 213589, Control_c, 2, 1, 53
13, 213603, Note_on_c, 2, 67, 88
13, 213631, Control_c, 2, 1, 57
13, 213660, Note_on_c, 2, 73, 0
13, 213715, Control_c, 2, 1, 61
13, 213724, Note_on_c, 2, 72, 107
13, 213779, Note_on_c, 2, 67, 0
13, 213797, Control_c, 2, 1, 66
13, 213842, Note_on_c, 2, 67, 89
13, 213898, Control_c, 2, 1, 70
13, 213934, Note_on_c, 2, 72, 0
13, 213949, Note_on_c, 2, 71, 92
13, 213982, Note_on_c, 2, 67, 0
13, 214077, Note_on_c, 2, 69, 92
13, 214141, Note_on_c, 2, 71, 0
13, 214162, Control_c, 2, 1, 74
13, 214196, Note_on_c, 2, 72, 107
13, 214234, Note_on_c, 2, 69, 0
13, 214299, Note_on_c, 2, 72, 0
13, 214299, Note_on_c, 2, 74, 87
13, 214430, Note_on_c, 2, 76, 99
13, 214441, Note_on_c, 2, 74, 0
13, 214557, Note_on_c, 2, 74, 100
13, 214570, Note_on_c, 2, 76, 0
13, 214654, Note_on_c, 2, 74, 0
13, 214666, Note_on_c, 2, 72, 89
13, 214786, Note_on_c, 2, 67, 94
13, 214829, Note_on_c, 2, 72, 0
13, 214914, Note_on_c, 2, 74, 120
13, 214944, Note_on_c, 2, 67, 0
13, 215039, Note_on_c, 2, 67, 83
13, 215153, Note_on_c, 2, 74, 0
13, 215154, Note_on_c, 2, 76, 102
13, 215204, Note_on_c, 2, 67, 0
13, 215280, Note_on_c, 2, 67, 87
13, 215393, Note_on_c, 2, 76, 0
13, 215396, Note_on_c, 2, 77, 99
13, 215464, Note_on_c, 2, 67, 0
13, 215533, Note_on_c, 2, 69, 84
13, 215533, Note_on_c, 2, 71, 81
13, 215579, Note_on_c, 2, 77, 0
13, 215633, Note_on_c, 2, 76, 127
13, 215659, Note_on_c, 2, 71, 0
13, 215660, Note_on_c, 2, 69, 0
13, 215760, Note_on_c, 2, 67, 85
13, 215836, Note_on_c, 2, 76, 0
13, 215863, Note_on_c, 2, 74, 120
13, 215906, Note_on_c, 2, 67, 0
13, 215996, Note_on_c, 2, 67, 88
13, 216107, Note_on_c, 2, 76, 127
13, 216162, Note_on_c, 2, 74, 0
13, 216165, Note_on_c, 2, 67, 0
13, 216234, Note_on_c, 2, 67, 92
13, 216292, Note_on_c, 2, 76, 0
13, 216357, Note_on_c, 2, 79, 127
13, 216397, Note_on_c, 2, 67, 0
13, 216435, Note_on_c, 2, 79, 0
13, 216468, Note_on_c, 2, 81, 107
13, 216602, Note_on_c, 2, 79, 94
13, 216650, Note_on_c, 2, 81, 0
13, 216662, Note_on_c, 2, 77, 89
13, 216685, Note_on_c, 2, 79, 0
13, 216729, Note_on_c, 2, 76, 113
13, 216737, Note_on_c, 2, 77, 0
13, 216840, Note_on_c, 2, 81, 99
13, 216856, Note_on_c, 2, 76, 0
13, 217198, Note_on_c, 2, 72, 94
13, 217439, Note_on_c, 2, 79, 88
13, 217564, Note_on_c, 2, 50, 89
13, 217613, Note_on_c, 2, 72, 0
13, 217690, Note_on_c, 2, 57, 89
13, 217814, Note_on_c, 2, 74, 102
13, 217916, Note_on_c, 2, 81, 0
13, 217942, Note_on_c, 2, 69, 102
13, 217945, Note_on_c, 2, 79, 0
13, 217953, Note_on_c, 2, 74, 0
13, 218045, Pitch_bend_c, 2, 8322
13, 218048, Pitch_bend_c, 2, 8192
13, 218072, Note_on_c, 2, 66, 83
13, 218121, Note_on_c, 2, 69, 0
13, 218278, Note_on_c, 2, 67, 94
13, 218302, Note_on_c, 2, 66, 0
13, 218413, Note_on_c, 2, 66, 102
13, 218542, Note_on_c, 2, 64, 94
13, 218580, Note_on_c, 2, 67, 0
13, 218588, Note_on_c, 2, 66, 0
13, 218767, Note_on_c, 2, 69, 89
13, 218772, Note_on_c, 2, 62, 88
13, 218778, Note_on_c, 2, 64, 0
13, 218789, Note_on_c, 2, 66, 68
13, 218793, Note_on_c, 2, 57, 0
13, 218824, Note_on_c, 2, 50, 0
13, 219124, Note_on_c, 2, 64, 87
13, 219200, Control_c, 2, 1, 70
13, 219222, Note_on_c, 2, 62, 0
13, 219257, Control_c, 2, 1, 66
13, 219261, Note_on_c, 2, 66, 0
13, 219262, Note_on_c, 2, 50, 93
13, 219310, Note_on_c, 2, 69, 0
13, 219317, Control_c, 2, 1, 61
13, 219390, Control_c, 2, 1, 57
13, 219458, Control_c, 2, 1, 53
13, 219516, Control_c, 2, 1, 49
13, 219591, Control_c, 2, 1, 45
13, 219666, Control_c, 2, 1, 41
13, 219732, Control_c, 2, 1, 37
13, 219790, Control_c, 2, 1, 33
13, 219921, Control_c, 2, 1, 28
13, 220449, Note_on_c, 2, 66, 76
13, 220450, Note_on_c, 2, 69, 77
13, 220524, Note_on_c, 2, 64, 0
13, 220525, Note_on_c, 2, 69, 0
13, 220537, Note_on_c, 2, 66, 0
13, 220695, Note_on_c, 2, 48, 77
13, 220728, Note_on_c, 2, 50, 0
13, 221870, Control_c, 2, 1, 33
13, 221894, Control_c, 2, 1, 37
13, 221919, Control_c, 2, 1, 41
13, 221936, Control_c, 2, 1, 45
13, 221962, Control_c, 2, 1, 49
13, 221994, Control_c, 2, 1, 53
13, 222036, Control_c, 2, 1, 57
13, 222088, Control_c, 2, 1, 61
13, 222137, Control_c, 2, 1, 66
13, 222196, Control_c, 2, 1, 70
13, 222245, Control_c, 2, 1, 74
13, 222296, Control_c, 2, 1, 78
13, 222371, Control_c, 2, 1, 82
13, 222460, Control_c, 2, 1, 86
13, 222720, Note_on_c, 2, 43, 96
13, 223045, Note_on_c, 2, 48, 0
13, 223731, Pitch_bend_c, 2, 8064
13, 223749, Pitch_bend_c, 2, 7936
13, 223766, Pitch_bend_c, 2, 7808
13, 223791, Pitch_bend_c, 2, 7680
13, 223808, Pitch_bend_c, 2, 7552
13, 223831, Pitch_bend_c, 2, 7424
13, 223850, Pitch_bend_c, 2, 7296
13, 223866, Pitch_bend_c, 2, 7168
13, 223885, Pitch_bend_c, 2, 7040
13, 223901, Pitch_bend_c, 2, 6912
13, 223918, Pitch_bend_c, 2, 6656
13, 223934, Pitch_bend_c, 2, 6528
13, 223951, Pitch_bend_c, 2, 6400
13, 223969, Pitch_bend_c, 2, 6272
13, 223979, Pitch_bend_c, 2, 6144
13, 223995, Pitch_bend_c, 2, 6016
13, 224011, Pitch_bend_c, 2, 5888
13, 224037, Pitch_bend_c, 2, 5760
13, 224063, Pitch_bend_c, 2, 5632
13, 224079, Pitch_bend_c, 2, 5504
13, 224112, Pitch_bend_c, 2, 5376
13, 224138, Pitch_bend_c, 2, 5248
13, 224180, Pitch_bend_c, 2, 5120
13, 224213, Pitch_bend_c, 2, 4992
13, 224238, Pitch_bend_c, 2, 4864
13, 224271, Pitch_bend_c, 2, 4736
13, 224297, Pitch_bend_c, 2, 4608
13, 224313, Pitch_bend_c, 2, 4480
13, 224332, Pitch_bend_c, 2, 4352
13, 224365, Pitch_bend_c, 2, 4224
13, 224479, Pitch_bend_c, 2, 4352
13, 224505, Pitch_bend_c, 2, 4480
13, 224531, Pitch_bend_c, 2, 4608
13, 224557, Pitch_bend_c, 2, 4736
13, 224582, Pitch_bend_c, 2, 4864
13, 224608, Pitch_bend_c, 2, 4992
13, 224632, Pitch_bend_c, 2, 5120
13, 224640, Note_on_c, 2, 43, 0
13, 224640, Note_on_c, 2, 38, 96
13, 224650, Pitch_bend_c, 2, 5248
13, 224674, Pitch_bend_c, 2, 5504
13, 224699, Pitch_bend_c, 2, 5632
13, 224716, Pitch_bend_c, 2, 5760
13, 224734, Pitch_bend_c, 2, 5888
13, 224742, Pitch_bend_c, 2, 6016
13, 224760, Pitch_bend_c, 2, 6144
13, 224777, Pitch_bend_c, 2, 6400
13, 224793, Pitch_bend_c, 2, 6528
13, 224802, Pitch_bend_c, 2, 6656
13, 224819, Pitch_bend_c, 2, 6912
13, 224828, Pitch_bend_c, 2, 7040
13, 224844, Pitch_bend_c, 2, 7168
13, 224863, Pitch_bend_c, 2, 7424
13, 224870, Pitch_bend_c, 2, 7552
13, 224889, Pitch_bend_c, 2, 7680
13, 224898, Pitch_bend_c, 2, 7808
13, 224905, Pitch_bend_c, 2, 7936
13, 224915, Pitch_bend_c, 2, 8192
13, 226560, Note_on_c, 2, 50, 127
13, 228480, Note_on_c, 2, 38, 0
13, 228480, Note_on_c, 2, 50, 0
13, 228480, Note_on_c, 2, 48, 127
13, 229185, Pitch_bend_c, 2, 8064
13, 229202, Pitch_bend_c, 2, 7936
13, 229220, Pitch_bend_c, 2, 7808
13, 229227, Pitch_bend_c, 2, 7680
13, 229246, Pitch_bend_c, 2, 7552
13, 229253, Pitch_bend_c, 2, 7424
13, 229272, Pitch_bend_c, 2, 7296
13, 229288, Pitch_bend_c, 2, 7040
13, 229305, Pitch_bend_c, 2, 6912
13, 229314, Pitch_bend_c, 2, 6784
13, 229321, Pitch_bend_c, 2, 6656
13, 229330, Pitch_bend_c, 2, 6528
13, 229349, Pitch_bend_c, 2, 6400
13, 229356, Pitch_bend_c, 2, 6272
13, 229365, Pitch_bend_c, 2, 6144
13, 229375, Pitch_bend_c, 2, 6016
13, 229391, Pitch_bend_c, 2, 5888
13, 229398, Pitch_bend_c, 2, 5760
13, 229417, Pitch_bend_c, 2, 5504
13, 229433, Pitch_bend_c, 2, 5248
13, 229452, Pitch_bend_c, 2, 5120
13, 229468, Pitch_bend_c, 2, 4864
13, 229485, Pitch_bend_c, 2, 4736
13, 229501, Pitch_bend_c, 2, 4608
13, 229520, Pitch_bend_c, 2, 4480
13, 229536, Pitch_bend_c, 2, 4352
13, 229553, Pitch_bend_c, 2, 4224
13, 229569, Pitch_bend_c, 2, 4096
13, 229578, Pitch_bend_c, 2, 3968
13, 229595, Pitch_bend_c, 2, 3840
13, 229620, Pitch_bend_c, 2, 3712
13, 229637, Pitch_bend_c, 2, 3584
13, 229672, Pitch_bend_c, 2, 3328
13, 229712, Pitch_bend_c, 2, 3200
13, 229747, Pitch_bend_c, 2, 3072
13, 230044, Pitch_bend_c, 2, 3200
13, 230086, Pitch_bend_c, 2, 3328
13, 230119, Pitch_bend_c, 2, 3456
13, 230152, Pitch_bend_c, 2, 3584
13, 230177, Pitch_bend_c, 2, 3712
13, 230203, Pitch_bend_c, 2, 3968
13, 230219, Pitch_bend_c, 2, 4096
13, 230236, Pitch_bend_c, 2, 4224
13, 230255, Pitch_bend_c, 2, 4352
13, 230271, Pitch_bend_c, 2, 4480
13, 230280, Pitch_bend_c, 2, 4608
13, 230290, Pitch_bend_c, 2, 4736
13, 230306, Pitch_bend_c, 2, 4992
13, 230315, Pitch_bend_c, 2, 5120
13, 230332, Pitch_bend_c, 2, 5248
13, 230341, Pitch_bend_c, 2, 5504
13, 230348, Pitch_bend_c, 2, 5632
13, 230358, Pitch_bend_c, 2, 5760
13, 230374, Pitch_bend_c, 2, 5888
13, 230383, Pitch_bend_c, 2, 6016
13, 230400, Note_on_c, 2, 48, 0
13, 230400, Pitch_bend_c, 2, 6272
13, 230400, Note_on_c, 2, 43, 127
13, 230418, Pitch_bend_c, 2, 6400
13, 230435, Pitch_bend_c, 2, 6528
13, 230451, Pitch_bend_c, 2, 6656
13, 230460, Pitch_bend_c, 2, 6784
13, 230470, Pitch_bend_c, 2, 6912
13, 230486, Pitch_bend_c, 2, 7168
13, 230503, Pitch_bend_c, 2, 7296
13, 230519, Pitch_bend_c, 2, 7552
13, 230528, Pitch_bend_c, 2, 7680
13, 230538, Pitch_bend_c, 2, 7808
13, 230554, Pitch_bend_c, 2, 7936
13, 230563, Pitch_bend_c, 2, 8192
13, 232320, Note_on_c, 2, 43, 0
13, 232320, Control_c, 2, 7, 99
13, 232320, Note_on_c, 2, 38, 127
13, 232465, Control_c, 2, 7, 98
13, 232611, Control_c, 2, 7, 97
13, 232757, Control_c, 2, 7, 96
13, 232903, Control_c, 2, 7, 95
13, 233049, Control_c, 2, 7, 94
13, 233194, Control_c, 2, 7, 93
13, 233311, Pitch_bend_c, 2, 8064
13, 233334, Pitch_bend_c, 2, 7936
13, 233340, Control_c, 2, 7, 92
13, 233350, Pitch_bend_c, 2, 7808
13, 233369, Pitch_bend_c, 2, 7680
13, 233392, Pitch_bend_c, 2, 7552
13, 233418, Pitch_bend_c, 2, 7424
13, 233460, Pitch_bend_c, 2, 7296
13, 233486, Pitch_bend_c, 2, 7168
13, 233486, Control_c, 2, 7, 91
13, 233519, Pitch_bend_c, 2, 7040
13, 233545, Pitch_bend_c, 2, 6912
13, 233570, Pitch_bend_c, 2, 6656
13, 233596, Pitch_bend_c, 2, 6528
13, 233612, Pitch_bend_c, 2, 6400
13, 233629, Pitch_bend_c, 2, 6272
13, 233632, Control_c, 2, 7, 90
13, 233655, Pitch_bend_c, 2, 6144
13, 233671, Pitch_bend_c, 2, 6016
13, 233697, Pitch_bend_c, 2, 5888
13, 233729, Pitch_bend_c, 2, 5760
13, 233765, Pitch_bend_c, 2, 5632
13, 233778, Control_c, 2, 7, 89
13, 233797, Pitch_bend_c, 2, 5504
13, 233823, Pitch_bend_c, 2, 5376
13, 233856, Pitch_bend_c, 2, 5248
13, 233882, Pitch_bend_c, 2, 5120
13, 233907, Pitch_bend_c, 2, 4992
13, 233924, Control_c, 2, 7, 88
13, 233931, Pitch_bend_c, 2, 4864
13, 233949, Pitch_bend_c, 2, 4736
13, 233973, Pitch_bend_c, 2, 4480
13, 233999, Pitch_bend_c, 2, 4352
13, 234017, Pitch_bend_c, 2, 4224
13, 234041, Pitch_bend_c, 2, 4096
13, 234066, Pitch_bend_c, 2, 3968
13, 234069, Control_c, 2, 7, 87
13, 234109, Pitch_bend_c, 2, 3840
13, 234134, Pitch_bend_c, 2, 3712
13, 234151, Pitch_bend_c, 2, 3584
13, 234183, Pitch_bend_c, 2, 3456
13, 234215, Control_c, 2, 7, 86
13, 234219, Pitch_bend_c, 2, 3328
13, 234275, Pitch_bend_c, 2, 3200
13, 234319, Pitch_bend_c, 2, 3072
13, 234361, Control_c, 2, 7, 85
13, 234368, Pitch_bend_c, 2, 2944
13, 234476, Pitch_bend_c, 2, 2816
13, 234507, Control_c, 2, 7, 84
13, 234584, Pitch_bend_c, 2, 2560
13, 234653, Control_c, 2, 7, 83
13, 234717, Pitch_bend_c, 2, 2688
13, 234724, Pitch_bend_c, 2, 2560
13, 234733, Pitch_bend_c, 2, 2688
13, 234766, Pitch_bend_c, 2, 2560
13, 234775, Pitch_bend_c, 2, 2688
13, 234785, Pitch_bend_c, 2, 2560
13, 234798, Control_c, 2, 7, 82
13, 234818, Pitch_bend_c, 2, 2688
13, 234836, Pitch_bend_c, 2, 2560
13, 234853, Pitch_bend_c, 2, 2688
13, 234860, Pitch_bend_c, 2, 2560
13, 234895, Pitch_bend_c, 2, 2688
13, 234944, Pitch_bend_c, 2, 2560
13, 234944, Control_c, 2, 7, 81
13, 234960, Pitch_bend_c, 2, 2688
13, 234986, Pitch_bend_c, 2, 2560
13, 235012, Pitch_bend_c, 2, 2688
13, 235028, Pitch_bend_c, 2, 2560
13, 235038, Pitch_bend_c, 2, 2688
13, 235047, Pitch_bend_c, 2, 2560
13, 235054, Pitch_bend_c, 2, 2688
13, 235063, Pitch_bend_c, 2, 2560
13, 235073, Pitch_bend_c, 2, 2688
13, 235080, Pitch_bend_c, 2, 2560
13, 235090, Control_c, 2, 7, 80
13, 235091, Pitch_bend_c, 2, 2688
13, 235098, Pitch_bend_c, 2, 2560
13, 235157, Pitch_bend_c, 2, 2688
13, 235166, Pitch_bend_c, 2, 2560
13, 235176, Pitch_bend_c, 2, 2688
13, 235183, Pitch_bend_c, 2, 2560
13, 235225, Pitch_bend_c, 2, 2688
13, 235234, Pitch_bend_c, 2, 2560
13, 235236, Control_c, 2, 7, 79
13, 235335, Pitch_bend_c, 2, 2688
13, 235342, Pitch_bend_c, 2, 2560
13, 235358, Pitch_bend_c, 2, 2688
13, 235367, Pitch_bend_c, 2, 2560
13, 235382, Control_c, 2, 7, 78
13, 235393, Pitch_bend_c, 2, 2688
13, 235403, Pitch_bend_c, 2, 2560
13, 235419, Pitch_bend_c, 2, 2688
13, 235528, Control_c, 2, 7, 77
13, 235673, Control_c, 2, 7, 76
13, 235742, Pitch_bend_c, 2, 2816
13, 235775, Pitch_bend_c, 2, 2944
13, 235819, Control_c, 2, 7, 75
13, 235833, Pitch_bend_c, 2, 3072
13, 235882, Pitch_bend_c, 2, 3200
13, 235934, Pitch_bend_c, 2, 3328
13, 235965, Control_c, 2, 7, 74
13, 235999, Pitch_bend_c, 2, 3456
13, 236051, Pitch_bend_c, 2, 3584
13, 236074, Pitch_bend_c, 2, 3712
13, 236100, Pitch_bend_c, 2, 3840
13, 236111, Control_c, 2, 7, 73
13, 236116, Pitch_bend_c, 2, 4096
13, 236142, Pitch_bend_c, 2, 4224
13, 236168, Pitch_bend_c, 2, 4352
13, 236193, Pitch_bend_c, 2, 4480
13, 236217, Pitch_bend_c, 2, 4608
13, 236243, Pitch_bend_c, 2, 4736
13, 236257, Control_c, 2, 7, 72
13, 236278, Pitch_bend_c, 2, 4864
13, 236317, Pitch_bend_c, 2, 4992
13, 236360, Pitch_bend_c, 2, 5120
13, 236402, Pitch_bend_c, 2, 5248
13, 236403, Control_c, 2, 7, 71
13, 236444, Pitch_bend_c, 2, 5376
13, 236470, Pitch_bend_c, 2, 5504
13, 236528, Pitch_bend_c, 2, 5632
13, 236548, Control_c, 2, 7, 70
13, 236554, Pitch_bend_c, 2, 5760
13, 236603, Pitch_bend_c, 2, 5888
13, 236652, Pitch_bend_c, 2, 6016
13, 236687, Pitch_bend_c, 2, 6144
13, 236694, Control_c, 2, 7, 69
13, 236760, Pitch_bend_c, 2, 6272
13, 236840, Control_c, 2, 7, 68
13, 236968, Pitch_bend_c, 2, 6144
13, 236986, Control_c, 2, 7, 67
13, 237132, Control_c, 2, 7, 66
13, 237249, Pitch_bend_c, 2, 6016
13, 237277, Control_c, 2, 7, 65
13, 237423, Control_c, 2, 7, 64
13, 237480, Pitch_bend_c, 2, 5888
13, 237562, Pitch_bend_c, 2, 5760
13, 237569, Control_c, 2, 7, 63
13, 237604, Pitch_bend_c, 2, 5632
13, 237637, Pitch_bend_c, 2, 5504
13, 237656, Pitch_bend_c, 2, 5376
13, 237698, Pitch_bend_c, 2, 5248
13, 237715, Control_c, 2, 7, 62
13, 237740, Pitch_bend_c, 2, 5120
13, 237796, Pitch_bend_c, 2, 4992
13, 237831, Pitch_bend_c, 2, 4864
13, 237855, Pitch_bend_c, 2, 4736
13, 237861, Control_c, 2, 7, 61
13, 237890, Pitch_bend_c, 2, 4608
13, 237923, Pitch_bend_c, 2, 4480
13, 237955, Pitch_bend_c, 2, 4352
13, 237981, Pitch_bend_c, 2, 4224
13, 238007, Control_c, 2, 7, 60
13, 238023, Pitch_bend_c, 2, 4096
13, 238049, Pitch_bend_c, 2, 3968
13, 238098, Pitch_bend_c, 2, 3840
13, 238124, Pitch_bend_c, 2, 3712
13, 238150, Pitch_bend_c, 2, 3584
13, 238152, Control_c, 2, 7, 59
13, 238182, Pitch_bend_c, 2, 3456
13, 238225, Pitch_bend_c, 2, 3328
13, 238283, Pitch_bend_c, 2, 3200
13, 238298, Control_c, 2, 7, 58
13, 238358, Pitch_bend_c, 2, 3072
13, 238414, Pitch_bend_c, 2, 2944
13, 238444, Control_c, 2, 7, 57
13, 238466, Pitch_bend_c, 2, 2816
13, 238498, Pitch_bend_c, 2, 2560
13, 238548, Pitch_bend_c, 2, 2432
13, 238590, Pitch_bend_c, 2, 2304
13, 238590, Control_c, 2, 7, 56
13, 238632, Pitch_bend_c, 2, 2176
13, 238648, Pitch_bend_c, 2, 2048
13, 238700, Pitch_bend_c, 2, 1920
13, 238736, Control_c, 2, 7, 55
13, 238758, Pitch_bend_c, 2, 1792
13, 238791, Pitch_bend_c, 2, 1664
13, 238840, Pitch_bend_c, 2, 1536
13, 238882, Pitch_bend_c, 2, 1408
13, 238882, Control_c, 2, 7, 54
13, 238950, Pitch_bend_c, 2, 1280
13, 239027, Control_c, 2, 7, 53
13, 239048, Pitch_bend_c, 2, 1152
13, 239133, Pitch_bend_c, 2, 1024
13, 239173, Control_c, 2, 7, 52
13, 239182, Pitch_bend_c, 2, 1152
13, 239266, Pitch_bend_c, 2, 1280
13, 239319, Control_c, 2, 7, 51
13, 239465, Control_c, 2, 7, 50
13, 239611, Control_c, 2, 7, 49
13, 239756, Control_c, 2, 7, 48
13, 239828, Pitch_bend_c, 2, 1408
13, 239867, Pitch_bend_c, 2, 1536
13, 239893, Pitch_bend_c, 2, 1664
13, 239902, Control_c, 2, 7, 47
13, 239919, Pitch_bend_c, 2, 1792
13, 239935, Pitch_bend_c, 2, 1920
13, 239945, Pitch_bend_c, 2, 2048
13, 239961, Pitch_bend_c, 2, 2176
13, 239970, Pitch_bend_c, 2, 2304
13, 239987, Pitch_bend_c, 2, 2432
13, 240005, Pitch_bend_c, 2, 2560
13, 240012, Pitch_bend_c, 2, 2816
13, 240022, Pitch_bend_c, 2, 2944
13, 240031, Pitch_bend_c, 2, 3072
13, 240038, Pitch_bend_c, 2, 3200
13, 240047, Pitch_bend_c, 2, 3328
13, 240048, Control_c, 2, 7, 46
13, 240057, Pitch_bend_c, 2, 3584
13, 240064, Pitch_bend_c, 2, 3712
13, 240076, Pitch_bend_c, 2, 3840
13, 240083, Pitch_bend_c, 2, 4096
13, 240099, Pitch_bend_c, 2, 4352
13, 240108, Pitch_bend_c, 2, 4480
13, 240118, Pitch_bend_c, 2, 4608
13, 240134, Pitch_bend_c, 2, 4864
13, 240153, Pitch_bend_c, 2, 4992
13, 240176, Pitch_bend_c, 2, 5120
13, 240193, Pitch_bend_c, 2, 5248
13, 240194, Control_c, 2, 7, 45
13, 240209, Pitch_bend_c, 2, 5504
13, 240228, Pitch_bend_c, 2, 5632
13, 240244, Pitch_bend_c, 2, 5760
13, 240270, Pitch_bend_c, 2, 5888
13, 240296, Pitch_bend_c, 2, 6016
13, 240340, Control_c, 2, 7, 44
13, 240345, Pitch_bend_c, 2, 6144
13, 240377, Pitch_bend_c, 2, 6272
13, 240403, Pitch_bend_c, 2, 6400
13, 240438, Pitch_bend_c, 2, 6528
13, 240480, Pitch_bend_c, 2, 6656
13, 240486, Control_c, 2, 7, 43
13, 240520, Pitch_bend_c, 2, 6784
13, 240555, Pitch_bend_c, 2, 6912
13, 240572, Pitch_bend_c, 2, 7040
13, 240597, Pitch_bend_c, 2, 7168
13, 240614, Pitch_bend_c, 2, 7424
13, 240630, Pitch_bend_c, 2, 7552
13, 240631, Control_c, 2, 7, 42
13, 240656, Pitch_bend_c, 2, 7680
13, 240682, Pitch_bend_c, 2, 7808
13, 240714, Pitch_bend_c, 2, 7936
13, 240766, Pitch_bend_c, 2, 8064
13, 240777, Control_c, 2, 7, 41
13, 240782, Pitch_bend_c, 2, 8192
13, 240923, Control_c, 2, 7, 40
13, 241069, Control_c, 2, 7, 39
13, 241215, Control_c, 2, 7, 38
13, 241361, Control_c, 2, 7, 37
13, 241506, Control_c, 2, 7, 36
13, 241652, Control_c, 2, 7, 35
13, 241798, Control_c, 2, 7, 34
13, 241944, Control_c, 2, 7, 33
13, 242090, Control_c, 2, 7, 32
13, 242235, Control_c, 2, 7, 31
13, 242381, Control_c, 2, 7, 30
13, 242527, Control_c, 2, 7, 29
13, 242673, Control_c, 2, 7, 28
13, 242819, Control_c, 2, 7, 27
13, 242965, Control_c, 2, 7, 26
13, 243110, Control_c, 2, 7, 25
13, 243256, Control_c, 2, 7, 24
13, 243402, Control_c, 2, 7, 23
13, 243548, Control_c, 2, 7, 22
13, 243694, Control_c, 2, 7, 21
13, 243840, Note_on_c, 2, 38, 0
13, 284160, End_track
14, 0, Start_track
14, 0, Text_t, "bass"
14, 0, Control_c, 3, 32, 0
14, 22, Program_c, 3, 33
14, 33, Control_c, 3, 7, 127
14, 500, Control_c, 3, 11, 127
14, 520, Control_c, 3, 1, 33
14, 960, Control_c, 3, 10, 33
14, 980, Channel_aftertouch_c, 3, 0
14, 7406, Pitch_bend_c, 3, 384
14, 7415, Pitch_bend_c, 3, 0
14, 7682, Note_on_c, 3, 50, 127
14, 7846, Pitch_bend_c, 3, 256
14, 7855, Pitch_bend_c, 3, 640
14, 7862, Pitch_bend_c, 3, 768
14, 7872, Pitch_bend_c, 3, 896
14, 7914, Pitch_bend_c, 3, 1024
14, 7921, Pitch_bend_c, 3, 1408
14, 7930, Pitch_bend_c, 3, 1664
14, 7940, Pitch_bend_c, 3, 2048
14, 7949, Pitch_bend_c, 3, 2560
14, 7958, Pitch_bend_c, 3, 3200
14, 7965, Pitch_bend_c, 3, 3840
14, 7975, Pitch_bend_c, 3, 4352
14, 7984, Pitch_bend_c, 3, 4608
14, 7993, Pitch_bend_c, 3, 4992
14, 8000, Pitch_bend_c, 3, 5120
14, 8010, Pitch_bend_c, 3, 5248
14, 8026, Pitch_bend_c, 3, 5632
14, 8036, Pitch_bend_c, 3, 5760
14, 8045, Pitch_bend_c, 3, 6016
14, 8052, Pitch_bend_c, 3, 6272
14, 8061, Pitch_bend_c, 3, 6656
14, 8071, Pitch_bend_c, 3, 7040
14, 8080, Pitch_bend_c, 3, 7424
14, 8087, Pitch_bend_c, 3, 7808
14, 8096, Pitch_bend_c, 3, 8192
14, 13804, Note_on_c, 3, 50, 0
14, 15360, Control_c, 3, 10, 60
14, 15603, Note_on_c, 3, 55, 95
14, 15811, Note_on_c, 3, 55, 0
14, 16073, Note_on_c, 3, 55, 97
14, 16277, Note_on_c, 3, 55, 0
14, 16422, Note_on_c, 3, 55, 94
14, 16654, Note_on_c, 3, 55, 0
14, 16792, Note_on_c, 3, 55, 97
14, 17052, Note_on_c, 3, 53, 96
14, 17063, Note_on_c, 3, 55, 0
14, 17297, Note_on_c, 3, 50, 95
14, 17300, Note_on_c, 3, 53, 0
14, 18226, Pitch_bend_c, 3, 7936
14, 18233, Pitch_bend_c, 3, 7808
14, 18252, Pitch_bend_c, 3, 7680
14, 18268, Pitch_bend_c, 3, 7552
14, 18275, Pitch_bend_c, 3, 7424
14, 18285, Pitch_bend_c, 3, 7296
14, 18303, Pitch_bend_c, 3, 7168
14, 18311, Pitch_bend_c, 3, 7040
14, 18320, Pitch_bend_c, 3, 6784
14, 18329, Pitch_bend_c, 3, 6656
14, 18355, Pitch_bend_c, 3, 6528
14, 18371, Pitch_bend_c, 3, 6400
14, 18381, Pitch_bend_c, 3, 6272
14, 18388, Pitch_bend_c, 3, 6016
14, 18397, Pitch_bend_c, 3, 5760
14, 18406, Pitch_bend_c, 3, 5376
14, 18416, Pitch_bend_c, 3, 4992
14, 18423, Pitch_bend_c, 3, 4736
14, 18432, Pitch_bend_c, 3, 4480
14, 18442, Pitch_bend_c, 3, 4224
14, 18451, Pitch_bend_c, 3, 4096
14, 18458, Pitch_bend_c, 3, 3840
14, 18542, Pitch_bend_c, 3, 4096
14, 18552, Pitch_bend_c, 3, 3968
14, 18559, Pitch_bend_c, 3, 4096
14, 18568, Pitch_bend_c, 3, 3968
14, 18594, Pitch_bend_c, 3, 4096
14, 18601, Pitch_bend_c, 3, 4224
14, 18610, Pitch_bend_c, 3, 4352
14, 18619, Pitch_bend_c, 3, 4480
14, 18629, Pitch_bend_c, 3, 4736
14, 18638, Pitch_bend_c, 3, 4992
14, 18645, Pitch_bend_c, 3, 5120
14, 18654, Pitch_bend_c, 3, 5376
14, 18664, Pitch_bend_c, 3, 5632
14, 18671, Pitch_bend_c, 3, 5760
14, 18680, Pitch_bend_c, 3, 5888
14, 18697, Pitch_bend_c, 3, 6144
14, 18706, Pitch_bend_c, 3, 6272
14, 18715, Pitch_bend_c, 3, 6400
14, 18725, Pitch_bend_c, 3, 6528
14, 18732, Pitch_bend_c, 3, 6784
14, 18741, Pitch_bend_c, 3, 7040
14, 18750, Pitch_bend_c, 3, 7168
14, 18760, Pitch_bend_c, 3, 7424
14, 18767, Pitch_bend_c, 3, 7552
14, 18776, Pitch_bend_c, 3, 7680
14, 18786, Pitch_bend_c, 3, 7936
14, 18795, Pitch_bend_c, 3, 8192
14, 19101, Note_on_c, 3, 50, 0
14, 19211, Note_on_c, 3, 50, 108
14, 23103, Note_on_c, 3, 50, 0
14, 24221, Note_on_c, 3, 55, 99
14, 24383, Note_on_c, 3, 55, 0
14, 24490, Note_on_c, 3, 55, 97
14, 24715, Note_on_c, 3, 55, 0
14, 24729, Note_on_c, 3, 57, 103
14, 25080, Note_on_c, 3, 50, 96
14, 25089, Note_on_c, 3, 57, 0
14, 26709, Note_on_c, 3, 50, 0
14, 26889, Note_on_c, 3, 50, 108
14, 27331, Note_on_c, 3, 62, 97
14, 27500, Note_on_c, 3, 62, 0
14, 27614, Note_on_c, 3, 60, 99
14, 27827, Note_on_c, 3, 50, 0
14, 28557, Note_on_c, 3, 50, 101
14, 28574, Note_on_c, 3, 60, 0
14, 28943, Note_on_c, 3, 50, 0
14, 29500, Note_on_c, 3, 52, 97
14, 30263, Note_on_c, 3, 55, 99
14, 30336, Note_on_c, 3, 52, 0
14, 30509, Note_on_c, 3, 55, 0
14, 30724, Note_on_c, 3, 50, 99
14, 31152, Note_on_c, 3, 55, 95
14, 31337, Note_on_c, 3, 50, 0
14, 31426, Note_on_c, 3, 55, 0
14, 31489, Note_on_c, 3, 50, 99
14, 32205, Note_on_c, 3, 53, 97
14, 32259, Note_on_c, 3, 50, 0
14, 32664, Note_on_c, 3, 53, 0
14, 32664, Note_on_c, 3, 50, 96
14, 33345, Note_on_c, 3, 57, 95
14, 33483, Note_on_c, 3, 50, 0
14, 33696, Note_on_c, 3, 54, 92
14, 34045, Note_on_c, 3, 48, 96
14, 34075, Note_on_c, 3, 54, 0
14, 34084, Note_on_c, 3, 57, 0
14, 34321, Note_on_c, 3, 50, 92
14, 34377, Note_on_c, 3, 48, 0
14, 34927, Note_on_c, 3, 50, 0
14, 35042, Note_on_c, 3, 50, 99
14, 35325, Note_on_c, 3, 50, 0
14, 35400, Note_on_c, 3, 50, 101
14, 35722, Note_on_c, 3, 52, 96
14, 35786, Note_on_c, 3, 50, 0
14, 36237, Note_on_c, 3, 50, 101
14, 36263, Note_on_c, 3, 52, 0
14, 36371, Note_on_c, 3, 50, 0
14, 36481, Note_on_c, 3, 48, 96
14, 36956, Note_on_c, 3, 43, 89
14, 37019, Note_on_c, 3, 48, 0
14, 37250, Note_on_c, 3, 48, 101
14, 37311, Note_on_c, 3, 43, 0
14, 37702, Note_on_c, 3, 50, 97
14, 37758, Note_on_c, 3, 48, 0
14, 38128, Note_on_c, 3, 50, 0
14, 38165, Note_on_c, 3, 52, 94
14, 38435, Note_on_c, 3, 43, 83
14, 38767, Note_on_c, 3, 52, 0
14, 38793, Note_on_c, 3, 47, 95
14, 39148, Note_on_c, 3, 50, 99
14, 39249, Note_on_c, 3, 47, 0
14, 39270, Note_on_c, 3, 43, 0
14, 39612, Note_on_c, 3, 43, 92
14, 39649, Note_on_c, 3, 47, 89
14, 39745, Note_on_c, 3, 50, 0
14, 40342, Note_on_c, 3, 50, 101
14, 40358, Note_on_c, 3, 43, 0
14, 40367, Note_on_c, 3, 47, 0
14, 40709, Note_on_c, 3, 50, 0
14, 40758, Note_on_c, 3, 50, 104
14, 41069, Note_on_c, 3, 45, 97
14, 41111, Note_on_c, 3, 50, 0
14, 41528, Note_on_c, 3, 47, 101
14, 41582, Note_on_c, 3, 45, 0
14, 42001, Note_on_c, 3, 47, 0
14, 42001, Note_on_c, 3, 45, 95
14, 42188, Note_on_c, 3, 45, 0
14, 42267, Note_on_c, 3, 45, 99
14, 42696, Note_on_c, 3, 49, 88
14, 43009, Note_on_c, 3, 52, 96
14, 43028, Note_on_c, 3, 49, 0
14, 43695, Note_on_c, 3, 49, 93
14, 43718, Note_on_c, 3, 45, 0
14, 44111, Note_on_c, 3, 52, 0
14, 44146, Note_on_c, 3, 45, 96
14, 44191, Note_on_c, 3, 49, 0
14, 44558, Note_on_c, 3, 55, 99
14, 44893, Note_on_c, 3, 52, 94
14, 45064, Note_on_c, 3, 45, 0
14, 45590, Note_on_c, 3, 49, 94
14, 45656, Note_on_c, 3, 55, 0
14, 45667, Note_on_c, 3, 52, 0
14, 45824, Note_on_c, 3, 45, 97
14, 45855, Note_on_c, 3, 49, 0
14, 46065, Note_on_c, 3, 50, 105
14, 46112, Note_on_c, 3, 45, 0
14, 46234, Pitch_bend_c, 3, 7808
14, 46241, Pitch_bend_c, 3, 7552
14, 46250, Pitch_bend_c, 3, 7424
14, 46259, Pitch_bend_c, 3, 7296
14, 46269, Pitch_bend_c, 3, 7168
14, 46276, Pitch_bend_c, 3, 7040
14, 46292, Pitch_bend_c, 3, 6784
14, 46302, Pitch_bend_c, 3, 6656
14, 46320, Pitch_bend_c, 3, 6528
14, 46327, Pitch_bend_c, 3, 6400
14, 46337, Pitch_bend_c, 3, 6272
14, 46346, Pitch_bend_c, 3, 6144
14, 46362, Pitch_bend_c, 3, 5888
14, 46372, Pitch_bend_c, 3, 5760
14, 46388, Pitch_bend_c, 3, 5632
14, 46405, Pitch_bend_c, 3, 5504
14, 46430, Pitch_bend_c, 3, 5376
14, 46447, Pitch_bend_c, 3, 5248
14, 46456, Pitch_bend_c, 3, 5120
14, 46465, Pitch_bend_c, 3, 4992
14, 46472, Pitch_bend_c, 3, 4864
14, 46482, Pitch_bend_c, 3, 4736
14, 46491, Pitch_bend_c, 3, 4608
14, 46500, Pitch_bend_c, 3, 4480
14, 46508, Pitch_bend_c, 3, 4352
14, 46517, Pitch_bend_c, 3, 4224
14, 46526, Pitch_bend_c, 3, 3968
14, 46536, Pitch_bend_c, 3, 3840
14, 46543, Pitch_bend_c, 3, 3712
14, 46552, Pitch_bend_c, 3, 3456
14, 46561, Pitch_bend_c, 3, 3328
14, 46571, Pitch_bend_c, 3, 3200
14, 46578, Pitch_bend_c, 3, 3072
14, 46587, Pitch_bend_c, 3, 2944
14, 46596, Pitch_bend_c, 3, 2816
14, 46603, Pitch_bend_c, 3, 2688
14, 46613, Pitch_bend_c, 3, 2560
14, 46622, Pitch_bend_c, 3, 2432
14, 46632, Pitch_bend_c, 3, 2176
14, 46639, Pitch_bend_c, 3, 2048
14, 46648, Pitch_bend_c, 3, 1792
14, 46657, Pitch_bend_c, 3, 1664
14, 46667, Pitch_bend_c, 3, 1408
14, 46674, Pitch_bend_c, 3, 1280
14, 46683, Pitch_bend_c, 3, 1024
14, 46692, Pitch_bend_c, 3, 896
14, 46702, Pitch_bend_c, 3, 768
14, 46711, Pitch_bend_c, 3, 640
14, 46718, Pitch_bend_c, 3, 512
14, 46727, Pitch_bend_c, 3, 384
14, 46753, Pitch_bend_c, 3, 256
14, 46795, Pitch_bend_c, 3, 128
14, 46809, Pitch_bend_c, 3, 0
14, 46887, Pitch_bend_c, 3, 384
14, 46894, Pitch_bend_c, 3, 512
14, 46903, Pitch_bend_c, 3, 768
14, 46912, Pitch_bend_c, 3, 1024
14, 46922, Pitch_bend_c, 3, 1408
14, 46929, Pitch_bend_c, 3, 1536
14, 46938, Pitch_bend_c, 3, 1664
14, 46954, Pitch_bend_c, 3, 1792
14, 46964, Pitch_bend_c, 3, 1920
14, 46973, Pitch_bend_c, 3, 2048
14, 46983, Pitch_bend_c, 3, 2304
14, 46990, Pitch_bend_c, 3, 2432
14, 46999, Pitch_bend_c, 3, 2688
14, 47008, Pitch_bend_c, 3, 2944
14, 47015, Pitch_bend_c, 3, 3072
14, 47025, Pitch_bend_c, 3, 3328
14, 47034, Pitch_bend_c, 3, 3584
14, 47043, Pitch_bend_c, 3, 4096
14, 47050, Pitch_bend_c, 3, 4480
14, 47060, Pitch_bend_c, 3, 4864
14, 47069, Pitch_bend_c, 3, 5376
14, 47078, Pitch_bend_c, 3, 5888
14, 47088, Pitch_bend_c, 3, 6272
14, 47095, Pitch_bend_c, 3, 6656
14, 47104, Pitch_bend_c, 3, 7168
14, 47114, Pitch_bend_c, 3, 7424
14, 47121, Pitch_bend_c, 3, 7808
14, 47130, Pitch_bend_c, 3, 8192
14, 47511, Note_on_c, 3, 52, 97
14, 47579, Note_on_c, 3, 50, 0
14, 47745, Note_on_c, 3, 50, 101
14, 47776, Note_on_c, 3, 52, 0
14, 47893, Note_on_c, 3, 50, 0
14, 48005, Note_on_c, 3, 50, 103
14, 48487, Note_on_c, 3, 48, 96
14, 48501, Note_on_c, 3, 50, 0
14, 48782, Note_on_c, 3, 50, 101
14, 48850, Note_on_c, 3, 48, 0
14, 49227, Note_on_c, 3, 52, 99
14, 49266, Note_on_c, 3, 50, 0
14, 49671, Note_on_c, 3, 50, 94
14, 49681, Note_on_c, 3, 52, 0
14, 49908, Note_on_c, 3, 50, 0
14, 49933, Note_on_c, 3, 45, 91
14, 49973, Note_on_c, 3, 54, 73
14, 50338, Note_on_c, 3, 49, 88
14, 50376, Note_on_c, 3, 54, 0
14, 50689, Note_on_c, 3, 52, 91
14, 50703, Note_on_c, 3, 45, 0
14, 50813, Note_on_c, 3, 49, 0
14, 51365, Note_on_c, 3, 49, 92
14, 51403, Note_on_c, 3, 52, 0
14, 51864, Note_on_c, 3, 49, 0
14, 51864, Note_on_c, 3, 45, 95
14, 52252, Note_on_c, 3, 49, 96
14, 52329, Note_on_c, 3, 45, 0
14, 52582, Note_on_c, 3, 45, 96
14, 52610, Note_on_c, 3, 49, 0
14, 53296, Note_on_c, 3, 43, 105
14, 53322, Note_on_c, 3, 45, 0
14, 53766, Note_on_c, 3, 50, 98
14, 53780, Note_on_c, 3, 43, 0
14, 54199, Pitch_bend_c, 3, 8064
14, 54208, Pitch_bend_c, 3, 7936
14, 54225, Pitch_bend_c, 3, 7680
14, 54234, Pitch_bend_c, 3, 7552
14, 54241, Pitch_bend_c, 3, 7424
14, 54260, Pitch_bend_c, 3, 7168
14, 54269, Pitch_bend_c, 3, 7040
14, 54286, Pitch_bend_c, 3, 6912
14, 54295, Pitch_bend_c, 3, 6784
14, 54302, Pitch_bend_c, 3, 6656
14, 54328, Pitch_bend_c, 3, 6528
14, 54344, Pitch_bend_c, 3, 6400
14, 54354, Pitch_bend_c, 3, 6272
14, 54361, Pitch_bend_c, 3, 6144
14, 54379, Pitch_bend_c, 3, 5888
14, 54396, Pitch_bend_c, 3, 5760
14, 54414, Pitch_bend_c, 3, 5632
14, 54421, Pitch_bend_c, 3, 5504
14, 54431, Pitch_bend_c, 3, 5376
14, 54440, Pitch_bend_c, 3, 5248
14, 54449, Pitch_bend_c, 3, 5120
14, 54456, Pitch_bend_c, 3, 4864
14, 54466, Pitch_bend_c, 3, 4736
14, 54475, Pitch_bend_c, 3, 4480
14, 54485, Pitch_bend_c, 3, 4352
14, 54492, Pitch_bend_c, 3, 4224
14, 54501, Pitch_bend_c, 3, 3968
14, 54510, Pitch_bend_c, 3, 3712
14, 54520, Pitch_bend_c, 3, 3456
14, 54527, Pitch_bend_c, 3, 3328
14, 54536, Pitch_bend_c, 3, 3200
14, 54545, Pitch_bend_c, 3, 2944
14, 54562, Pitch_bend_c, 3, 2816
14, 54571, Pitch_bend_c, 3, 2688
14, 54578, Pitch_bend_c, 3, 2432
14, 54588, Pitch_bend_c, 3, 2304
14, 54597, Pitch_bend_c, 3, 1920
14, 54606, Pitch_bend_c, 3, 1792
14, 54613, Pitch_bend_c, 3, 1536
14, 54623, Pitch_bend_c, 3, 1280
14, 54632, Pitch_bend_c, 3, 1024
14, 54641, Pitch_bend_c, 3, 896
14, 54648, Pitch_bend_c, 3, 768
14, 54658, Pitch_bend_c, 3, 640
14, 54667, Pitch_bend_c, 3, 384
14, 54676, Pitch_bend_c, 3, 256
14, 54693, Pitch_bend_c, 3, 128
14, 54700, Pitch_bend_c, 3, 0
14, 54859, Pitch_bend_c, 3, 256
14, 54868, Pitch_bend_c, 3, 512
14, 54875, Pitch_bend_c, 3, 768
14, 54885, Pitch_bend_c, 3, 1152
14, 54894, Pitch_bend_c, 3, 1536
14, 54903, Pitch_bend_c, 3, 1920
14, 54910, Pitch_bend_c, 3, 2304
14, 54920, Pitch_bend_c, 3, 2560
14, 54929, Pitch_bend_c, 3, 2688
14, 54939, Pitch_bend_c, 3, 2944
14, 54946, Pitch_bend_c, 3, 3072
14, 54955, Pitch_bend_c, 3, 3200
14, 54964, Pitch_bend_c, 3, 3456
14, 54971, Pitch_bend_c, 3, 3712
14, 54981, Pitch_bend_c, 3, 4224
14, 54990, Pitch_bend_c, 3, 4864
14, 54999, Pitch_bend_c, 3, 5632
14, 55009, Pitch_bend_c, 3, 6272
14, 55018, Pitch_bend_c, 3, 6912
14, 55025, Pitch_bend_c, 3, 7296
14, 55034, Pitch_bend_c, 3, 7680
14, 55044, Pitch_bend_c, 3, 8192
14, 55381, Note_on_c, 3, 50, 0
14, 55425, Note_on_c, 3, 48, 99
14, 55697, Note_on_c, 3, 50, 94
14, 55704, Note_on_c, 3, 48, 0
14, 56843, Note_on_c, 3, 52, 103
14, 56846, Note_on_c, 3, 50, 0
14, 57634, Note_on_c, 3, 52, 0
14, 57646, Note_on_c, 3, 50, 103
14, 58423, Note_on_c, 3, 54, 90
14, 58725, Note_on_c, 3, 54, 0
14, 58755, Note_on_c, 3, 57, 93
14, 58931, Note_on_c, 3, 50, 0
14, 59080, Note_on_c, 3, 50, 97
14, 59466, Note_on_c, 3, 50, 0
14, 59558, Note_on_c, 3, 52, 100
14, 59560, Note_on_c, 3, 50, 96
14, 59569, Note_on_c, 3, 50, 0
14, 59604, Note_on_c, 3, 57, 0
14, 59948, Note_on_c, 3, 55, 96
14, 60295, Note_on_c, 3, 60, 97
14, 60337, Note_on_c, 3, 55, 0
14, 60480, Note_on_c, 3, 52, 0
14, 61006, Note_on_c, 3, 52, 96
14, 61453, Note_on_c, 3, 55, 97
14, 61491, Note_on_c, 3, 52, 0
14, 61502, Note_on_c, 3, 60, 0
14, 61886, Note_on_c, 3, 50, 101
14, 62136, Note_on_c, 3, 55, 0
14, 62235, Note_on_c, 3, 55, 99
14, 62331, Note_on_c, 3, 50, 0
14, 62586, Note_on_c, 3, 55, 0
14, 62651, Note_on_c, 3, 55, 101
14, 62834, Note_on_c, 3, 55, 0
14, 62913, Note_on_c, 3, 53, 103
14, 63119, Note_on_c, 3, 50, 95
14, 63145, Note_on_c, 3, 53, 0
14, 63353, Note_on_c, 3, 50, 0
14, 63419, Note_on_c, 3, 50, 112
14, 64455, Note_on_c, 3, 50, 0
14, 64460, Note_on_c, 3, 48, 106
14, 64785, Note_on_c, 3, 50, 99
14, 64837, Note_on_c, 3, 48, 0
14, 65057, Note_on_c, 3, 48, 101
14, 65066, Note_on_c, 3, 50, 0
14, 65293, Note_on_c, 3, 50, 99
14, 65345, Note_on_c, 3, 48, 0
14, 65719, Note_on_c, 3, 45, 99
14, 66054, Note_on_c, 3, 50, 0
14, 66082, Note_on_c, 3, 48, 95
14, 66543, Note_on_c, 3, 50, 100
14, 66578, Note_on_c, 3, 48, 0
14, 66589, Note_on_c, 3, 45, 0
14, 67224, Note_on_c, 3, 48, 101
14, 67242, Note_on_c, 3, 50, 0
14, 67598, Note_on_c, 3, 43, 95
14, 67652, Note_on_c, 3, 48, 0
14, 67933, Note_on_c, 3, 48, 101
14, 67982, Note_on_c, 3, 43, 0
14, 68443, Note_on_c, 3, 50, 96
14, 68649, Note_on_c, 3, 48, 0
14, 68869, Note_on_c, 3, 50, 0
14, 68892, Note_on_c, 3, 52, 92
14, 69175, Note_on_c, 3, 43, 96
14, 69180, Note_on_c, 3, 52, 0
14, 69491, Note_on_c, 3, 47, 95
14, 69847, Note_on_c, 3, 50, 101
14, 69926, Note_on_c, 3, 47, 0
14, 70282, Note_on_c, 3, 53, 99
14, 70333, Note_on_c, 3, 50, 0
14, 70343, Note_on_c, 3, 43, 0
14, 70574, Note_on_c, 3, 50, 95
14, 70811, Note_on_c, 3, 47, 96
14, 70836, Note_on_c, 3, 53, 0
14, 70855, Note_on_c, 3, 50, 0
14, 71063, Note_on_c, 3, 50, 98
14, 71070, Note_on_c, 3, 51, 89
14, 71124, Note_on_c, 3, 51, 0
14, 71141, Note_on_c, 3, 47, 0
14, 71730, Note_on_c, 3, 45, 95
14, 72149, Note_on_c, 3, 50, 0
14, 72472, Note_on_c, 3, 48, 99
14, 72662, Note_on_c, 3, 45, 0
14, 72779, Note_on_c, 3, 45, 99
14, 72840, Note_on_c, 3, 48, 0
14, 72996, Note_on_c, 3, 50, 101
14, 73090, Note_on_c, 3, 45, 0
14, 73340, Note_on_c, 3, 50, 0
14, 73396, Note_on_c, 3, 50, 112
14, 73635, Note_on_c, 3, 50, 0
14, 73696, Note_on_c, 3, 50, 103
14, 74157, Note_on_c, 3, 45, 96
14, 74253, Note_on_c, 3, 50, 0
14, 74431, Note_on_c, 3, 50, 101
14, 74531, Note_on_c, 3, 45, 0
14, 74667, Note_on_c, 3, 52, 97
14, 74751, Note_on_c, 3, 50, 0
14, 74924, Note_on_c, 3, 48, 101
14, 74974, Note_on_c, 3, 52, 0
14, 75236, Note_on_c, 3, 48, 0
14, 75282, Note_on_c, 3, 48, 108
14, 75573, Note_on_c, 3, 48, 0
14, 75619, Note_on_c, 3, 48, 101
14, 76052, Note_on_c, 3, 55, 103
14, 76109, Note_on_c, 3, 48, 0
14, 76324, Note_on_c, 3, 52, 96
14, 76546, Note_on_c, 3, 55, 0
14, 76548, Note_on_c, 3, 48, 100
14, 76579, Note_on_c, 3, 52, 0
14, 76803, Note_on_c, 3, 55, 99
14, 76867, Note_on_c, 3, 48, 0
14, 77204, Note_on_c, 3, 53, 90
14, 77529, Note_on_c, 3, 53, 0
14, 77529, Note_on_c, 3, 50, 98
14, 77990, Note_on_c, 3, 53, 101
14, 78025, Note_on_c, 3, 50, 0
14, 78217, Note_on_c, 3, 53, 0
14, 78257, Note_on_c, 3, 50, 96
14, 78495, Note_on_c, 3, 53, 99
14, 78500, Note_on_c, 3, 50, 0
14, 78753, Note_on_c, 3, 53, 0
14, 78753, Note_on_c, 3, 50, 114
14, 78821, Note_on_c, 3, 55, 0
14, 79169, Note_on_c, 3, 54, 95
14, 79317, Note_on_c, 3, 50, 0
14, 79492, Note_on_c, 3, 48, 96
14, 79504, Note_on_c, 3, 54, 0
14, 79967, Note_on_c, 3, 50, 108
14, 80023, Note_on_c, 3, 48, 0
14, 80426, Note_on_c, 3, 48, 106
14, 80435, Note_on_c, 3, 50, 0
14, 80679, Note_on_c, 3, 50, 112
14, 80725, Note_on_c, 3, 48, 0
14, 81369, Note_on_c, 3, 45, 93
14, 81437, Note_on_c, 3, 50, 0
14, 82092, Note_on_c, 3, 50, 103
14, 82148, Note_on_c, 3, 45, 0
14, 82338, Note_on_c, 3, 45, 99
14, 82366, Note_on_c, 3, 50, 0
14, 82565, Note_on_c, 3, 48, 99
14, 82602, Note_on_c, 3, 45, 0
14, 82906, Note_on_c, 3, 48, 0
14, 82960, Note_on_c, 3, 48, 108
14, 83269, Note_on_c, 3, 50, 99
14, 83386, Note_on_c, 3, 48, 0
14, 83746, Note_on_c, 3, 50, 0
14, 83751, Note_on_c, 3, 52, 95
14, 84039, Note_on_c, 3, 50, 99
14, 84235, Note_on_c, 3, 52, 0
14, 84242, Note_on_c, 3, 50, 0
14, 84242, Note_on_c, 3, 48, 101
14, 84488, Note_on_c, 3, 48, 0
14, 84507, Note_on_c, 3, 45, 87
14, 85181, Note_on_c, 3, 45, 0
14, 85249, Note_on_c, 3, 43, 103
14, 85256, Note_on_c, 3, 45, 101
14, 85265, Note_on_c, 3, 45, 0
14, 85679, Note_on_c, 3, 47, 96
14, 85944, Note_on_c, 3, 50, 96
14, 85993, Note_on_c, 3, 47, 0
14, 86044, Note_on_c, 3, 43, 0
14, 86166, Note_on_c, 3, 47, 95
14, 86213, Note_on_c, 3, 50, 0
14, 86409, Note_on_c, 3, 50, 99
14, 86491, Note_on_c, 3, 47, 0
14, 87565, Note_on_c, 3, 50, 0
14, 87579, Note_on_c, 3, 43, 105
14, 87886, Note_on_c, 3, 45, 99
14, 87930, Note_on_c, 3, 43, 0
14, 88124, Note_on_c, 3, 43, 97
14, 88167, Note_on_c, 3, 45, 0
14, 88344, Note_on_c, 3, 45, 101
14, 88372, Note_on_c, 3, 43, 0
14, 88817, Note_on_c, 3, 49, 94
14, 89138, Note_on_c, 3, 52, 101
14, 89243, Note_on_c, 3, 49, 0
14, 89421, Note_on_c, 3, 45, 0
14, 89573, Note_on_c, 3, 49, 101
14, 89973, Note_on_c, 3, 45, 99
14, 90010, Note_on_c, 3, 49, 0
14, 90022, Note_on_c, 3, 52, 0
14, 90240, Note_on_c, 3, 45, 0
14, 90240, Note_on_c, 3, 43, 99
14, 90570, Note_on_c, 3, 45, 99
14, 90642, Note_on_c, 3, 43, 0
14, 90872, Note_on_c, 3, 45, 0
14, 90939, Note_on_c, 3, 45, 103
14, 91400, Note_on_c, 3, 45, 0
14, 91400, Note_on_c, 3, 43, 96
14, 91667, Note_on_c, 3, 45, 101
14, 91744, Note_on_c, 3, 43, 0
14, 92140, Note_on_c, 3, 50, 101
14, 92285, Note_on_c, 3, 45, 0
14, 92545, Pitch_bend_c, 3, 7936
14, 92552, Pitch_bend_c, 3, 7808
14, 92561, Pitch_bend_c, 3, 7680
14, 92570, Pitch_bend_c, 3, 7552
14, 92580, Pitch_bend_c, 3, 7296
14, 92587, Pitch_bend_c, 3, 7168
14, 92596, Pitch_bend_c, 3, 7040
14, 92606, Pitch_bend_c, 3, 6912
14, 92615, Pitch_bend_c, 3, 6656
14, 92622, Pitch_bend_c, 3, 6400
14, 92631, Pitch_bend_c, 3, 6272
14, 92641, Pitch_bend_c, 3, 6016
14, 92650, Pitch_bend_c, 3, 5760
14, 92657, Pitch_bend_c, 3, 5504
14, 92666, Pitch_bend_c, 3, 5248
14, 92676, Pitch_bend_c, 3, 4992
14, 92685, Pitch_bend_c, 3, 4864
14, 92701, Pitch_bend_c, 3, 4736
14, 92751, Pitch_bend_c, 3, 4608
14, 92760, Pitch_bend_c, 3, 4480
14, 92769, Pitch_bend_c, 3, 4224
14, 92776, Pitch_bend_c, 3, 3840
14, 92786, Pitch_bend_c, 3, 3584
14, 92795, Pitch_bend_c, 3, 3200
14, 92804, Pitch_bend_c, 3, 2944
14, 92811, Pitch_bend_c, 3, 2688
14, 92821, Pitch_bend_c, 3, 2432
14, 92830, Pitch_bend_c, 3, 2304
14, 92840, Pitch_bend_c, 3, 2176
14, 92847, Pitch_bend_c, 3, 1920
14, 92856, Pitch_bend_c, 3, 1664
14, 92865, Pitch_bend_c, 3, 1536
14, 92872, Pitch_bend_c, 3, 1024
14, 92882, Pitch_bend_c, 3, 768
14, 92891, Pitch_bend_c, 3, 512
14, 92900, Pitch_bend_c, 3, 384
14, 92907, Pitch_bend_c, 3, 0
14, 93123, Pitch_bend_c, 3, 256
14, 93132, Pitch_bend_c, 3, 512
14, 93141, Pitch_bend_c, 3, 1024
14, 93151, Pitch_bend_c, 3, 1536
14, 93158, Pitch_bend_c, 3, 2176
14, 93167, Pitch_bend_c, 3, 2944
14, 93176, Pitch_bend_c, 3, 3840
14, 93186, Pitch_bend_c, 3, 4864
14, 93193, Pitch_bend_c, 3, 5888
14, 93202, Pitch_bend_c, 3, 6912
14, 93212, Pitch_bend_c, 3, 7552
14, 93219, Pitch_bend_c, 3, 8192
14, 93586, Note_on_c, 3, 43, 96
14, 93792, Note_on_c, 3, 50, 0
14, 93839, Note_on_c, 3, 45, 101
14, 93897, Note_on_c, 3, 43, 0
14, 94068, Note_on_c, 3, 45, 0
14, 94091, Note_on_c, 3, 50, 103
14, 94578, Pitch_bend_c, 3, 8064
14, 94585, Pitch_bend_c, 3, 7936
14, 94595, Pitch_bend_c, 3, 7680
14, 94604, Pitch_bend_c, 3, 7552
14, 94613, Pitch_bend_c, 3, 7424
14, 94620, Pitch_bend_c, 3, 7296
14, 94630, Pitch_bend_c, 3, 7168
14, 94639, Pitch_bend_c, 3, 7040
14, 94646, Pitch_bend_c, 3, 6784
14, 94655, Pitch_bend_c, 3, 6656
14, 94665, Pitch_bend_c, 3, 6528
14, 94674, Pitch_bend_c, 3, 6272
14, 94681, Pitch_bend_c, 3, 6016
14, 94690, Pitch_bend_c, 3, 5632
14, 94700, Pitch_bend_c, 3, 5248
14, 94709, Pitch_bend_c, 3, 4992
14, 94719, Pitch_bend_c, 3, 4608
14, 94726, Pitch_bend_c, 3, 4224
14, 94735, Pitch_bend_c, 3, 3584
14, 94744, Pitch_bend_c, 3, 2944
14, 94751, Pitch_bend_c, 3, 2432
14, 94761, Pitch_bend_c, 3, 1792
14, 94770, Pitch_bend_c, 3, 1408
14, 94777, Pitch_bend_c, 3, 896
14, 94786, Pitch_bend_c, 3, 640
14, 94796, Pitch_bend_c, 3, 128
14, 94805, Pitch_bend_c, 3, 0
14, 94988, Pitch_bend_c, 3, 384
14, 94995, Pitch_bend_c, 3, 896
14, 95004, Pitch_bend_c, 3, 1664
14, 95013, Pitch_bend_c, 3, 2560
14, 95023, Pitch_bend_c, 3, 3712
14, 95032, Pitch_bend_c, 3, 4992
14, 95039, Pitch_bend_c, 3, 6272
14, 95048, Pitch_bend_c, 3, 7296
14, 95058, Pitch_bend_c, 3, 8192
14, 95304, Note_on_c, 3, 45, 105
14, 95376, Note_on_c, 3, 50, 0
14, 95521, Note_on_c, 3, 43, 97
14, 95570, Note_on_c, 3, 45, 0
14, 95776, Note_on_c, 3, 45, 97
14, 95783, Note_on_c, 3, 43, 0
14, 96020, Note_on_c, 3, 45, 0
14, 96027, Note_on_c, 3, 47, 95
14, 96265, Note_on_c, 3, 45, 103
14, 96298, Note_on_c, 3, 47, 0
14, 96726, Note_on_c, 3, 49, 97
14, 96953, Note_on_c, 3, 45, 0
14, 96991, Note_on_c, 3, 52, 96
14, 97000, Note_on_c, 3, 45, 70
14, 97033, Note_on_c, 3, 49, 0
14, 97063, Note_on_c, 3, 45, 0
14, 97346, Note_on_c, 3, 49, 105
14, 97709, Note_on_c, 3, 49, 0
14, 97714, Note_on_c, 3, 45, 104
14, 97737, Note_on_c, 3, 52, 0
14, 97889, Note_on_c, 3, 45, 0
14, 97955, Note_on_c, 3, 45, 108
14, 98299, Note_on_c, 3, 49, 99
14, 98378, Note_on_c, 3, 45, 0
14, 98631, Note_on_c, 3, 49, 0
14, 98633, Note_on_c, 3, 52, 95
14, 99071, Note_on_c, 3, 45, 103
14, 99094, Note_on_c, 3, 52, 0
14, 99349, Note_on_c, 3, 49, 95
14, 99424, Note_on_c, 3, 45, 0
14, 99581, Note_on_c, 3, 47, 97
14, 99654, Note_on_c, 3, 49, 0
14, 99817, Note_on_c, 3, 47, 0
14, 99862, Note_on_c, 3, 50, 95
14, 100384, Pitch_bend_c, 3, 8064
14, 100391, Pitch_bend_c, 3, 7936
14, 100400, Pitch_bend_c, 3, 7808
14, 100409, Pitch_bend_c, 3, 7680
14, 100426, Pitch_bend_c, 3, 7424
14, 100433, Pitch_bend_c, 3, 7296
14, 100442, Pitch_bend_c, 3, 7168
14, 100452, Pitch_bend_c, 3, 7040
14, 100468, Pitch_bend_c, 3, 6912
14, 100487, Pitch_bend_c, 3, 6784
14, 100494, Pitch_bend_c, 3, 6656
14, 100512, Pitch_bend_c, 3, 6528
14, 100519, Pitch_bend_c, 3, 6400
14, 100529, Pitch_bend_c, 3, 6272
14, 100536, Pitch_bend_c, 3, 6144
14, 100554, Pitch_bend_c, 3, 5888
14, 100571, Pitch_bend_c, 3, 5760
14, 100613, Pitch_bend_c, 3, 5632
14, 100629, Pitch_bend_c, 3, 5376
14, 100639, Pitch_bend_c, 3, 5248
14, 100648, Pitch_bend_c, 3, 5120
14, 100657, Pitch_bend_c, 3, 4864
14, 100674, Pitch_bend_c, 3, 4736
14, 100681, Pitch_bend_c, 3, 4608
14, 100690, Pitch_bend_c, 3, 4480
14, 100709, Pitch_bend_c, 3, 4352
14, 100725, Pitch_bend_c, 3, 4224
14, 100735, Pitch_bend_c, 3, 3968
14, 100742, Pitch_bend_c, 3, 3840
14, 100751, Pitch_bend_c, 3, 3584
14, 100760, Pitch_bend_c, 3, 3456
14, 100770, Pitch_bend_c, 3, 3328
14, 100777, Pitch_bend_c, 3, 3072
14, 100786, Pitch_bend_c, 3, 2816
14, 100796, Pitch_bend_c, 3, 2432
14, 100805, Pitch_bend_c, 3, 2048
14, 100812, Pitch_bend_c, 3, 1664
14, 100821, Pitch_bend_c, 3, 1408
14, 100828, Pitch_bend_c, 3, 896
14, 100838, Pitch_bend_c, 3, 640
14, 100847, Pitch_bend_c, 3, 384
14, 100856, Pitch_bend_c, 3, 256
14, 100866, Pitch_bend_c, 3, 0
14, 100999, Note_on_c, 3, 48, 101
14, 101088, Pitch_bend_c, 3, 128
14, 101114, Pitch_bend_c, 3, 384
14, 101123, Pitch_bend_c, 3, 512
14, 101132, Pitch_bend_c, 3, 768
14, 101139, Pitch_bend_c, 3, 1152
14, 101149, Pitch_bend_c, 3, 1408
14, 101158, Pitch_bend_c, 3, 1664
14, 101165, Pitch_bend_c, 3, 1792
14, 101182, Pitch_bend_c, 3, 1920
14, 101266, Pitch_bend_c, 3, 2048
14, 101282, Pitch_bend_c, 3, 2176
14, 101292, Pitch_bend_c, 3, 2304
14, 101301, Pitch_bend_c, 3, 2432
14, 101308, Pitch_bend_c, 3, 2560
14, 101317, Pitch_bend_c, 3, 2688
14, 101327, Pitch_bend_c, 3, 2816
14, 101336, Pitch_bend_c, 3, 2944
14, 101343, Pitch_bend_c, 3, 3072
14, 101352, Pitch_bend_c, 3, 3200
14, 101362, Pitch_bend_c, 3, 3456
14, 101371, Pitch_bend_c, 3, 3584
14, 101378, Pitch_bend_c, 3, 3840
14, 101388, Pitch_bend_c, 3, 4096
14, 101397, Pitch_bend_c, 3, 4352
14, 101406, Pitch_bend_c, 3, 4736
14, 101413, Pitch_bend_c, 3, 5120
14, 101423, Pitch_bend_c, 3, 5504
14, 101432, Pitch_bend_c, 3, 5760
14, 101474, Pitch_bend_c, 3, 5632
14, 101481, Pitch_bend_c, 3, 5504
14, 101490, Pitch_bend_c, 3, 5376
14, 101507, Pitch_bend_c, 3, 5248
14, 101533, Pitch_bend_c, 3, 5120
14, 101549, Pitch_bend_c, 3, 4864
14, 101558, Pitch_bend_c, 3, 4736
14, 101568, Pitch_bend_c, 3, 4480
14, 101577, Pitch_bend_c, 3, 4224
14, 101584, Pitch_bend_c, 3, 4096
14, 101593, Pitch_bend_c, 3, 3840
14, 101603, Pitch_bend_c, 3, 3584
14, 101612, Pitch_bend_c, 3, 3328
14, 101622, Pitch_bend_c, 3, 3072
14, 101629, Pitch_bend_c, 3, 2688
14, 101638, Pitch_bend_c, 3, 2432
14, 101645, Pitch_bend_c, 3, 2048
14, 101654, Pitch_bend_c, 3, 1792
14, 101664, Pitch_bend_c, 3, 1536
14, 101680, Pitch_bend_c, 3, 1408
14, 101755, Pitch_bend_c, 3, 1152
14, 101764, Pitch_bend_c, 3, 1024
14, 101774, Pitch_bend_c, 3, 896
14, 101783, Pitch_bend_c, 3, 640
14, 101790, Pitch_bend_c, 3, 384
14, 101799, Pitch_bend_c, 3, 256
14, 101891, Pitch_bend_c, 3, 128
14, 101900, Pitch_bend_c, 3, 0
14, 102230, Pitch_bend_c, 3, 256
14, 102239, Pitch_bend_c, 3, 1024
14, 102246, Pitch_bend_c, 3, 1920
14, 102256, Pitch_bend_c, 3, 2432
14, 102265, Pitch_bend_c, 3, 2816
14, 102331, Pitch_bend_c, 3, 2944
14, 102340, Pitch_bend_c, 3, 3456
14, 102349, Pitch_bend_c, 3, 4096
14, 102356, Pitch_bend_c, 3, 4992
14, 102366, Pitch_bend_c, 3, 6144
14, 102375, Pitch_bend_c, 3, 7168
14, 102384, Pitch_bend_c, 3, 7936
14, 102394, Pitch_bend_c, 3, 8192
14, 102894, Note_on_c, 3, 48, 0
14, 102894, Note_on_c, 3, 43, 101
14, 102934, Note_on_c, 3, 50, 0
14, 103220, Note_on_c, 3, 45, 103
14, 103288, Note_on_c, 3, 43, 0
14, 103449, Note_on_c, 3, 43, 99
14, 103508, Note_on_c, 3, 45, 0
14, 103676, Note_on_c, 3, 50, 105
14, 103749, Note_on_c, 3, 43, 0
14, 104109, Note_on_c, 3, 50, 0
14, 104151, Note_on_c, 3, 50, 99
14, 104832, Note_on_c, 3, 45, 95
14, 105057, Note_on_c, 3, 50, 0
14, 105143, Note_on_c, 3, 50, 96
14, 105347, Note_on_c, 3, 45, 0
14, 105394, Note_on_c, 3, 52, 99
14, 105422, Note_on_c, 3, 50, 0
14, 105625, Note_on_c, 3, 50, 95
14, 105731, Note_on_c, 3, 52, 0
14, 106014, Note_on_c, 3, 48, 96
14, 106121, Note_on_c, 3, 50, 0
14, 106306, Note_on_c, 3, 48, 0
14, 106353, Note_on_c, 3, 48, 103
14, 106821, Note_on_c, 3, 48, 0
14, 106835, Note_on_c, 3, 50, 100
14, 106847, Note_on_c, 3, 48, 82
14, 106938, Note_on_c, 3, 48, 0
14, 107081, Note_on_c, 3, 52, 103
14, 107099, Note_on_c, 3, 50, 0
14, 107434, Note_on_c, 3, 52, 0
14, 107560, Note_on_c, 3, 55, 105
14, 107928, Note_on_c, 3, 50, 92
14, 108237, Note_on_c, 3, 55, 0
14, 108276, Note_on_c, 3, 53, 95
14, 108752, Note_on_c, 3, 55, 97
14, 108857, Note_on_c, 3, 53, 0
14, 108997, Note_on_c, 3, 50, 0
14, 109442, Note_on_c, 3, 57, 105
14, 109477, Note_on_c, 3, 50, 87
14, 109486, Note_on_c, 3, 55, 0
14, 109559, Note_on_c, 3, 50, 0
14, 109858, Note_on_c, 3, 50, 93
14, 110141, Note_on_c, 3, 57, 0
14, 110198, Note_on_c, 3, 54, 93
14, 110514, Note_on_c, 3, 50, 0
14, 110642, Note_on_c, 3, 50, 97
14, 110719, Note_on_c, 3, 54, 0
14, 111066, Note_on_c, 3, 54, 97
14, 111365, Note_on_c, 3, 62, 101
14, 111517, Note_on_c, 3, 50, 0
14, 111719, Note_on_c, 3, 50, 83
14, 111784, Note_on_c, 3, 54, 0
14, 112098, Note_on_c, 3, 54, 96
14, 112517, Note_on_c, 3, 62, 0
14, 112561, Note_on_c, 3, 57, 101
14, 112664, Note_on_c, 3, 54, 0
14, 112823, Note_on_c, 3, 54, 101
14, 112900, Note_on_c, 3, 50, 0
14, 112996, Note_on_c, 3, 57, 0
14, 113055, Note_on_c, 3, 50, 108
14, 113176, Note_on_c, 3, 54, 0
14, 113286, Note_on_c, 3, 60, 94
14, 113450, Note_on_c, 3, 50, 0
14, 113890, Note_on_c, 3, 59, 95
14, 114131, Note_on_c, 3, 57, 97
14, 114274, Note_on_c, 3, 57, 0
14, 114293, Note_on_c, 3, 59, 0
14, 114445, Note_on_c, 3, 55, 96
14, 114819, Note_on_c, 3, 55, 0
14, 114950, Note_on_c, 3, 59, 97
14, 115224, Note_on_c, 3, 55, 127
14, 115254, Note_on_c, 3, 59, 0
14, 115282, Note_on_c, 3, 60, 0
14, 115624, Note_on_c, 3, 50, 101
14, 115666, Note_on_c, 3, 55, 0
14, 115954, Note_on_c, 3, 53, 117
14, 115998, Note_on_c, 3, 50, 0
14, 116406, Note_on_c, 3, 53, 0
14, 116406, Note_on_c, 3, 50, 102
14, 116661, Note_on_c, 3, 53, 117
14, 116698, Note_on_c, 3, 50, 0
14, 116890, Note_on_c, 3, 50, 99
14, 116918, Note_on_c, 3, 53, 0
14, 117061, Note_on_c, 3, 50, 0
14, 117136, Note_on_c, 3, 50, 108
14, 117534, Note_on_c, 3, 57, 95
14, 117735, Note_on_c, 3, 50, 0
14, 117889, Note_on_c, 3, 48, 112
14, 118058, Note_on_c, 3, 57, 0
14, 118350, Note_on_c, 3, 50, 108
14, 118390, Note_on_c, 3, 48, 0
14, 118785, Note_on_c, 3, 50, 0
14, 118785, Note_on_c, 3, 48, 100
14, 119059, Note_on_c, 3, 50, 112
14, 119113, Note_on_c, 3, 48, 0
14, 119445, Note_on_c, 3, 45, 97
14, 119654, Note_on_c, 3, 50, 0
14, 119771, Note_on_c, 3, 50, 103
14, 120040, Note_on_c, 3, 45, 0
14, 120218, Note_on_c, 3, 45, 99
14, 120267, Note_on_c, 3, 50, 0
14, 120484, Note_on_c, 3, 50, 101
14, 120587, Note_on_c, 3, 45, 0
14, 120735, Note_on_c, 3, 52, 99
14, 120774, Note_on_c, 3, 50, 0
14, 120983, Note_on_c, 3, 48, 105
14, 120990, Note_on_c, 3, 52, 0
14, 120999, Note_on_c, 3, 54, 46
14, 121041, Note_on_c, 3, 54, 0
14, 121338, Note_on_c, 3, 50, 97
14, 121530, Note_on_c, 3, 48, 0
14, 121699, Note_on_c, 3, 48, 112
14, 121743, Note_on_c, 3, 50, 0
14, 122127, Note_on_c, 3, 52, 96
14, 122244, Note_on_c, 3, 48, 0
14, 122401, Note_on_c, 3, 50, 95
14, 122632, Note_on_c, 3, 50, 0
14, 122639, Note_on_c, 3, 48, 103
14, 122672, Note_on_c, 3, 52, 0
14, 122909, Note_on_c, 3, 43, 99
14, 122923, Note_on_c, 3, 48, 0
14, 123238, Note_on_c, 3, 47, 99
14, 123639, Note_on_c, 3, 50, 99
14, 123653, Note_on_c, 3, 52, 87
14, 123699, Note_on_c, 3, 47, 0
14, 123795, Note_on_c, 3, 52, 0
14, 124067, Note_on_c, 3, 43, 0
14, 124095, Note_on_c, 3, 47, 103
14, 124172, Note_on_c, 3, 50, 0
14, 124369, Note_on_c, 3, 43, 97
14, 124420, Note_on_c, 3, 47, 0
14, 124584, Note_on_c, 3, 47, 99
14, 124825, Note_on_c, 3, 50, 103
14, 124919, Note_on_c, 3, 43, 0
14, 124951, Note_on_c, 3, 47, 0
14, 125181, Note_on_c, 3, 45, 95
14, 125377, Note_on_c, 3, 50, 0
14, 125543, Note_on_c, 3, 50, 103
14, 125628, Note_on_c, 3, 45, 0
14, 125988, Note_on_c, 3, 45, 96
14, 126037, Note_on_c, 3, 50, 0
14, 126248, Note_on_c, 3, 48, 103
14, 126304, Note_on_c, 3, 45, 0
14, 126482, Note_on_c, 3, 45, 97
14, 126500, Note_on_c, 3, 48, 0
14, 126716, Note_on_c, 3, 50, 103
14, 126912, Note_on_c, 3, 45, 0
14, 126978, Note_on_c, 3, 50, 0
14, 127081, Note_on_c, 3, 50, 101
14, 127322, Note_on_c, 3, 50, 0
14, 127415, Note_on_c, 3, 50, 105
14, 127883, Note_on_c, 3, 50, 0
14, 127883, Note_on_c, 3, 45, 103
14, 128131, Note_on_c, 3, 48, 101
14, 128162, Note_on_c, 3, 45, 0
14, 128370, Note_on_c, 3, 48, 0
14, 128375, Note_on_c, 3, 45, 94
14, 128642, Note_on_c, 3, 48, 106
14, 128686, Note_on_c, 3, 45, 0
14, 128988, Note_on_c, 3, 48, 0
14, 129042, Note_on_c, 3, 48, 108
14, 129395, Note_on_c, 3, 55, 103
14, 129461, Note_on_c, 3, 48, 0
14, 129872, Note_on_c, 3, 48, 97
14, 129950, Note_on_c, 3, 55, 0
14, 130160, Note_on_c, 3, 52, 97
14, 130230, Note_on_c, 3, 48, 0
14, 130387, Note_on_c, 3, 50, 97
14, 131073, Note_on_c, 3, 43, 91
14, 131300, Note_on_c, 3, 47, 99
14, 131330, Note_on_c, 3, 52, 0
14, 131335, Note_on_c, 3, 50, 0
14, 131765, Note_on_c, 3, 50, 97
14, 131808, Note_on_c, 3, 47, 0
14, 131819, Note_on_c, 3, 43, 0
14, 132027, Note_on_c, 3, 47, 97
14, 132063, Note_on_c, 3, 50, 0
14, 132247, Note_on_c, 3, 43, 95
14, 132453, Note_on_c, 3, 47, 0
14, 132495, Note_on_c, 3, 50, 103
14, 132570, Note_on_c, 3, 43, 0
14, 132889, Note_on_c, 3, 45, 97
14, 133155, Note_on_c, 3, 50, 0
14, 133265, Note_on_c, 3, 50, 103
14, 133455, Note_on_c, 3, 45, 0
14, 133724, Note_on_c, 3, 45, 103
14, 133761, Note_on_c, 3, 50, 0
14, 133958, Note_on_c, 3, 50, 103
14, 134038, Note_on_c, 3, 45, 0
14, 134176, Note_on_c, 3, 45, 95
14, 134220, Note_on_c, 3, 50, 0
14, 134389, Note_on_c, 3, 50, 97
14, 134433, Note_on_c, 3, 45, 0
14, 134627, Note_on_c, 3, 45, 97
14, 134686, Note_on_c, 3, 50, 0
14, 135313, Note_on_c, 3, 45, 0
14, 135388, Note_on_c, 3, 45, 101
14, 135704, Note_on_c, 3, 49, 93
14, 135940, Note_on_c, 3, 45, 0
14, 136059, Note_on_c, 3, 45, 101
14, 136242, Note_on_c, 3, 49, 0
14, 136254, Note_on_c, 3, 45, 0
14, 136324, Note_on_c, 3, 45, 112
14, 136712, Note_on_c, 3, 49, 94
14, 137033, Note_on_c, 3, 49, 0
14, 137119, Note_on_c, 3, 49, 95
14, 137295, Note_on_c, 3, 45, 0
14, 137508, Note_on_c, 3, 45, 103
14, 137562, Note_on_c, 3, 49, 0
14, 137786, Note_on_c, 3, 49, 117
14, 137847, Note_on_c, 3, 45, 0
14, 138011, Note_on_c, 3, 45, 99
14, 138039, Note_on_c, 3, 49, 0
14, 138238, Note_on_c, 3, 50, 103
14, 138299, Note_on_c, 3, 45, 0
14, 138685, Note_on_c, 3, 50, 0
14, 138727, Note_on_c, 3, 50, 108
14, 138973, Note_on_c, 3, 50, 0
14, 139040, Note_on_c, 3, 50, 117
14, 139069, Note_on_c, 3, 54, 83
14, 139176, Note_on_c, 3, 54, 0
14, 139293, Note_on_c, 3, 50, 0
14, 139415, Note_on_c, 3, 62, 102
14, 139415, Note_on_c, 3, 60, 102
14, 139635, Note_on_c, 3, 60, 0
14, 139892, Note_on_c, 3, 60, 97
14, 140138, Note_on_c, 3, 57, 89
14, 140416, Note_on_c, 3, 57, 0
14, 140501, Note_on_c, 3, 59, 101
14, 140641, Note_on_c, 3, 60, 0
14, 140896, Note_on_c, 3, 57, 127
14, 141322, Note_on_c, 3, 57, 0
14, 141345, Note_on_c, 3, 59, 0
14, 141348, Note_on_c, 3, 55, 117
14, 141605, Note_on_c, 3, 57, 112
14, 141629, Note_on_c, 3, 59, 82
14, 141636, Note_on_c, 3, 55, 0
14, 141846, Note_on_c, 3, 55, 127
14, 141886, Note_on_c, 3, 62, 0
14, 141898, Note_on_c, 3, 59, 0
14, 141900, Note_on_c, 3, 57, 0
14, 141933, Note_on_c, 3, 55, 0
14, 142080, Note_on_c, 3, 45, 127
14, 142120, Note_on_c, 3, 54, 87
14, 142139, Note_on_c, 3, 54, 0
14, 142480, Note_on_c, 3, 49, 94
14, 142822, Note_on_c, 3, 52, 103
14, 142831, Note_on_c, 3, 49, 0
14, 143016, Note_on_c, 3, 45, 0
14, 143362, Pitch_bend_c, 3, 7936
14, 143379, Pitch_bend_c, 3, 7808
14, 143388, Pitch_bend_c, 3, 7680
14, 143405, Pitch_bend_c, 3, 7552
14, 143414, Pitch_bend_c, 3, 7424
14, 143430, Pitch_bend_c, 3, 7296
14, 143456, Pitch_bend_c, 3, 7168
14, 143465, Pitch_bend_c, 3, 7040
14, 143472, Pitch_bend_c, 3, 6912
14, 143491, Pitch_bend_c, 3, 6656
14, 143498, Pitch_bend_c, 3, 6528
14, 143522, Pitch_bend_c, 3, 6400
14, 143620, Note_on_c, 3, 45, 101
14, 143625, Pitch_bend_c, 3, 6656
14, 143634, Pitch_bend_c, 3, 7040
14, 143641, Pitch_bend_c, 3, 7424
14, 143650, Pitch_bend_c, 3, 7936
14, 143660, Pitch_bend_c, 3, 8192
14, 144011, Note_on_c, 3, 49, 99
14, 144067, Note_on_c, 3, 45, 0
14, 144081, Note_on_c, 3, 52, 0
14, 144387, Note_on_c, 3, 45, 101
14, 144408, Note_on_c, 3, 49, 0
14, 144678, Note_on_c, 3, 45, 0
14, 144741, Note_on_c, 3, 43, 117
14, 145192, Note_on_c, 3, 45, 103
14, 145232, Note_on_c, 3, 43, 0
14, 145445, Note_on_c, 3, 47, 94
14, 145487, Note_on_c, 3, 45, 0
14, 145665, Note_on_c, 3, 45, 112
14, 145681, Note_on_c, 3, 47, 0
14, 145761, Note_on_c, 3, 45, 0
14, 145915, Note_on_c, 3, 45, 103
14, 146262, Note_on_c, 3, 38, 96
14, 146669, Note_on_c, 3, 42, 89
14, 147076, Note_on_c, 3, 45, 0
14, 147078, Note_on_c, 3, 38, 0
14, 147170, Note_on_c, 3, 38, 112
14, 147205, Note_on_c, 3, 42, 0
14, 147617, Note_on_c, 3, 42, 103
14, 147853, Note_on_c, 3, 50, 92
14, 148017, Note_on_c, 3, 38, 0
14, 148129, Note_on_c, 3, 42, 0
14, 148206, Note_on_c, 3, 38, 96
14, 148555, Note_on_c, 3, 42, 112
14, 148583, Note_on_c, 3, 50, 0
14, 148665, Note_on_c, 3, 38, 0
14, 149009, Note_on_c, 3, 42, 0
14, 149009, Note_on_c, 3, 38, 97
14, 149280, Note_on_c, 3, 42, 99
14, 149582, Note_on_c, 3, 48, 97
14, 149601, Note_on_c, 3, 38, 0
14, 149631, Note_on_c, 3, 42, 0
14, 149786, Note_on_c, 3, 50, 103
14, 149821, Note_on_c, 3, 48, 0
14, 150921, Note_on_c, 3, 45, 97
14, 150960, Note_on_c, 3, 50, 0
14, 151180, Note_on_c, 3, 48, 93
14, 151283, Note_on_c, 3, 45, 0
14, 151435, Note_on_c, 3, 50, 96
14, 151492, Note_on_c, 3, 48, 0
14, 151688, Note_on_c, 3, 48, 117
14, 151716, Note_on_c, 3, 50, 0
14, 151990, Note_on_c, 3, 48, 0
14, 152044, Note_on_c, 3, 48, 105
14, 152547, Control_c, 3, 1, 28
14, 152563, Control_c, 3, 1, 33
14, 152580, Control_c, 3, 1, 37
14, 152596, Control_c, 3, 1, 41
14, 152615, Control_c, 3, 1, 49
14, 152631, Control_c, 3, 1, 53
14, 152648, Control_c, 3, 1, 57
14, 152664, Control_c, 3, 1, 61
14, 152683, Control_c, 3, 1, 70
14, 152699, Control_c, 3, 1, 74
14, 152715, Control_c, 3, 1, 78
14, 152734, Control_c, 3, 1, 82
14, 152758, Control_c, 3, 1, 86
14, 152966, Control_c, 3, 1, 82
14, 152992, Control_c, 3, 1, 78
14, 153080, Control_c, 3, 1, 74
14, 153116, Control_c, 3, 1, 70
14, 153118, Note_on_c, 3, 50, 101
14, 153141, Control_c, 3, 1, 61
14, 153174, Note_on_c, 3, 48, 0
14, 153200, Control_c, 3, 1, 57
14, 153361, Note_on_c, 3, 52, 100
14, 153467, Note_on_c, 3, 50, 0
14, 153600, Note_on_c, 3, 52, 0
14, 153637, Note_on_c, 3, 43, 103
14, 153979, Note_on_c, 3, 47, 95
14, 154335, Note_on_c, 3, 53, 101
14, 154435, Note_on_c, 3, 47, 0
14, 154484, Note_on_c, 3, 43, 0
14, 154805, Note_on_c, 3, 50, 99
14, 155060, Note_on_c, 3, 47, 99
14, 155112, Note_on_c, 3, 53, 0
14, 155313, Note_on_c, 3, 43, 97
14, 155329, Note_on_c, 3, 50, 0
14, 155355, Note_on_c, 3, 47, 0
14, 155552, Note_on_c, 3, 50, 103
14, 155596, Note_on_c, 3, 43, 0
14, 155853, Note_on_c, 3, 50, 0
14, 155903, Note_on_c, 3, 50, 105
14, 156244, Note_on_c, 3, 45, 105
14, 156258, Note_on_c, 3, 50, 0
14, 156693, Note_on_c, 3, 48, 101
14, 156738, Note_on_c, 3, 45, 0
14, 156958, Note_on_c, 3, 50, 97
14, 156991, Note_on_c, 3, 48, 0
14, 157194, Note_on_c, 3, 45, 101
14, 157234, Note_on_c, 3, 50, 0
14, 157449, Note_on_c, 3, 50, 101
14, 157524, Note_on_c, 3, 45, 0
14, 157805, Note_on_c, 3, 43, 94
14, 158186, Note_on_c, 3, 48, 97
14, 158228, Note_on_c, 3, 50, 0
14, 158231, Note_on_c, 3, 43, 0
14, 158680, Note_on_c, 3, 45, 105
14, 158701, Note_on_c, 3, 48, 0
14, 158914, Note_on_c, 3, 48, 101
14, 159017, Note_on_c, 3, 45, 0
14, 159146, Note_on_c, 3, 50, 103
14, 159171, Note_on_c, 3, 48, 0
14, 159380, Note_on_c, 3, 48, 105
14, 159431, Note_on_c, 3, 50, 0
14, 159719, Note_on_c, 3, 48, 0
14, 159756, Note_on_c, 3, 48, 101
14, 160030, Note_on_c, 3, 48, 0
14, 160082, Note_on_c, 3, 48, 108
14, 160524, Pitch_bend_c, 3, 7936
14, 160531, Pitch_bend_c, 3, 7808
14, 160538, Pitch_bend_c, 3, 7680
14, 160547, Pitch_bend_c, 3, 7424
14, 160557, Pitch_bend_c, 3, 7296
14, 160566, Pitch_bend_c, 3, 7040
14, 160575, Pitch_bend_c, 3, 6912
14, 160583, Pitch_bend_c, 3, 6528
14, 160601, Pitch_bend_c, 3, 6400
14, 160611, Pitch_bend_c, 3, 6272
14, 160627, Pitch_bend_c, 3, 6144
14, 160643, Pitch_bend_c, 3, 6016
14, 160660, Pitch_bend_c, 3, 5888
14, 160669, Pitch_bend_c, 3, 5632
14, 160676, Pitch_bend_c, 3, 5504
14, 160685, Pitch_bend_c, 3, 5248
14, 160695, Pitch_bend_c, 3, 4992
14, 160704, Pitch_bend_c, 3, 4864
14, 160714, Pitch_bend_c, 3, 4736
14, 160721, Pitch_bend_c, 3, 4608
14, 160739, Pitch_bend_c, 3, 4480
14, 160788, Pitch_bend_c, 3, 4608
14, 160798, Pitch_bend_c, 3, 4736
14, 160807, Pitch_bend_c, 3, 4992
14, 160814, Pitch_bend_c, 3, 5248
14, 160824, Pitch_bend_c, 3, 5632
14, 160833, Pitch_bend_c, 3, 6016
14, 160842, Pitch_bend_c, 3, 6400
14, 160849, Pitch_bend_c, 3, 7040
14, 160859, Pitch_bend_c, 3, 7552
14, 160866, Pitch_bend_c, 3, 8192
14, 161299, Note_on_c, 3, 48, 0
14, 161306, Note_on_c, 3, 43, 105
14, 161329, Note_on_c, 3, 48, 88
14, 161352, Note_on_c, 3, 48, 0
14, 161666, Note_on_c, 3, 47, 105
14, 161802, Note_on_c, 3, 43, 0
14, 162017, Note_on_c, 3, 50, 105
14, 162085, Note_on_c, 3, 47, 0
14, 162483, Note_on_c, 3, 43, 97
14, 162681, Note_on_c, 3, 50, 0
14, 162735, Note_on_c, 3, 53, 101
14, 162969, Note_on_c, 3, 50, 99
14, 163054, Note_on_c, 3, 43, 0
14, 163075, Note_on_c, 3, 53, 0
14, 163166, Note_on_c, 3, 47, 103
14, 163201, Note_on_c, 3, 50, 0
14, 163440, Note_on_c, 3, 50, 101
14, 163554, Note_on_c, 3, 47, 0
14, 163830, Note_on_c, 3, 50, 0
14, 163868, Note_on_c, 3, 50, 94
14, 164350, Note_on_c, 3, 45, 99
14, 164390, Note_on_c, 3, 50, 0
14, 164607, Note_on_c, 3, 50, 101
14, 164617, Note_on_c, 3, 45, 0
14, 164902, Note_on_c, 3, 52, 94
14, 164982, Note_on_c, 3, 50, 0
14, 165124, Note_on_c, 3, 50, 101
14, 165225, Note_on_c, 3, 52, 0
14, 165457, Note_on_c, 3, 50, 0
14, 165501, Note_on_c, 3, 50, 96
14, 165787, Note_on_c, 3, 50, 0
14, 165850, Note_on_c, 3, 50, 103
14, 166348, Note_on_c, 3, 52, 101
14, 166451, Note_on_c, 3, 50, 0
14, 166800, Note_on_c, 3, 50, 105
14, 166858, Note_on_c, 3, 52, 0
14, 167074, Note_on_c, 3, 48, 99
14, 167076, Note_on_c, 3, 50, 0
14, 167415, Note_on_c, 3, 52, 95
14, 167731, Note_on_c, 3, 48, 0
14, 167752, Note_on_c, 3, 60, 94
14, 167825, Note_on_c, 3, 52, 0
14, 168213, Note_on_c, 3, 55, 95
14, 168295, Note_on_c, 3, 60, 0
14, 168487, Note_on_c, 3, 52, 97
14, 168562, Note_on_c, 3, 55, 0
14, 168733, Note_on_c, 3, 48, 97
14, 168983, Note_on_c, 3, 59, 99
14, 169056, Note_on_c, 3, 52, 0
14, 169070, Note_on_c, 3, 48, 0
14, 169379, Note_on_c, 3, 50, 96
14, 169744, Note_on_c, 3, 55, 92
14, 169919, Note_on_c, 3, 50, 0
14, 170139, Note_on_c, 3, 55, 0
14, 170223, Note_on_c, 3, 57, 96
14, 170476, Note_on_c, 3, 55, 99
14, 170680, Note_on_c, 3, 50, 94
14, 170726, Note_on_c, 3, 55, 0
14, 170750, Note_on_c, 3, 57, 0
14, 170869, Note_on_c, 3, 54, 97
14, 170925, Note_on_c, 3, 59, 0
14, 170949, Note_on_c, 3, 50, 0
14, 171239, Note_on_c, 3, 50, 96
14, 171288, Note_on_c, 3, 54, 0
14, 171641, Note_on_c, 3, 54, 96
14, 172084, Note_on_c, 3, 57, 105
14, 172147, Note_on_c, 3, 50, 0
14, 172149, Note_on_c, 3, 54, 0
14, 172568, Note_on_c, 3, 54, 99
14, 172631, Note_on_c, 3, 57, 0
14, 172811, Note_on_c, 3, 50, 101
14, 172858, Note_on_c, 3, 54, 0
14, 173172, Note_on_c, 3, 54, 95
14, 173537, Note_on_c, 3, 57, 108
14, 173567, Note_on_c, 3, 54, 0
14, 173584, Note_on_c, 3, 50, 0
14, 174000, Note_on_c, 3, 50, 96
14, 174059, Note_on_c, 3, 57, 0
14, 174253, Note_on_c, 3, 54, 101
14, 174496, Note_on_c, 3, 57, 99
14, 174531, Note_on_c, 3, 50, 0
14, 174559, Note_on_c, 3, 54, 0
14, 174740, Note_on_c, 3, 52, 99
14, 175058, Note_on_c, 3, 57, 0
14, 175105, Note_on_c, 3, 55, 103
14, 175458, Note_on_c, 3, 52, 0
14, 175463, Note_on_c, 3, 60, 100
14, 175523, Note_on_c, 3, 55, 0
14, 175931, Note_on_c, 3, 52, 103
14, 176122, Note_on_c, 3, 60, 0
14, 176181, Note_on_c, 3, 55, 97
14, 176265, Note_on_c, 3, 52, 0
14, 176396, Note_on_c, 3, 59, 99
14, 176478, Note_on_c, 3, 55, 0
14, 176647, Note_on_c, 3, 50, 101
14, 176843, Note_on_c, 3, 59, 0
14, 177005, Note_on_c, 3, 53, 96
14, 177374, Note_on_c, 3, 55, 99
14, 177412, Note_on_c, 3, 53, 0
14, 177463, Note_on_c, 3, 50, 0
14, 177835, Note_on_c, 3, 50, 101
14, 177873, Note_on_c, 3, 55, 0
14, 178093, Note_on_c, 3, 53, 97
14, 178172, Note_on_c, 3, 50, 0
14, 178313, Note_on_c, 3, 55, 99
14, 178392, Note_on_c, 3, 53, 0
14, 178558, Note_on_c, 3, 55, 0
14, 178561, Note_on_c, 3, 50, 102
14, 178603, Note_on_c, 3, 57, 91
14, 178769, Note_on_c, 3, 57, 0
14, 178956, Note_on_c, 3, 54, 89
14, 179288, Note_on_c, 3, 57, 103
14, 179326, Note_on_c, 3, 54, 0
14, 179363, Note_on_c, 3, 50, 0
14, 179759, Note_on_c, 3, 50, 108
14, 179827, Note_on_c, 3, 57, 0
14, 180005, Note_on_c, 3, 54, 97
14, 180075, Note_on_c, 3, 50, 0
14, 180255, Note_on_c, 3, 50, 103
14, 180304, Note_on_c, 3, 54, 0
14, 180454, Note_on_c, 3, 50, 0
14, 180498, Note_on_c, 3, 48, 99
14, 180655, Note_on_c, 3, 50, 108
14, 180711, Note_on_c, 3, 48, 0
14, 180838, Note_on_c, 3, 50, 0
14, 180887, Note_on_c, 3, 50, 105
14, 180971, Note_on_c, 3, 50, 0
14, 181018, Note_on_c, 3, 50, 105
14, 181189, Note_on_c, 3, 50, 0
14, 181245, Note_on_c, 3, 50, 112
14, 181352, Note_on_c, 3, 50, 0
14, 181397, Note_on_c, 3, 50, 105
14, 181514, Note_on_c, 3, 50, 0
14, 181596, Control_c, 3, 1, 53
14, 181605, Note_on_c, 3, 50, 103
14, 181638, Control_c, 3, 1, 49
14, 181671, Control_c, 3, 1, 45
14, 181689, Control_c, 3, 1, 41
14, 181713, Control_c, 3, 1, 37
14, 181729, Note_on_c, 3, 50, 0
14, 181741, Control_c, 3, 1, 33
14, 181781, Control_c, 3, 1, 28
14, 181813, Note_on_c, 3, 50, 95
14, 181881, Note_on_c, 3, 50, 0
14, 181947, Note_on_c, 3, 50, 96
14, 182012, Note_on_c, 3, 50, 0
14, 182078, Note_on_c, 3, 50, 97
14, 182183, Note_on_c, 3, 50, 0
14, 182253, Note_on_c, 3, 50, 103
14, 182356, Note_on_c, 3, 50, 0
14, 182436, Note_on_c, 3, 50, 108
14, 182579, Note_on_c, 3, 50, 0
14, 182642, Note_on_c, 3, 50, 103
14, 182768, Note_on_c, 3, 50, 0
14, 182836, Note_on_c, 3, 50, 99
14, 182922, Note_on_c, 3, 50, 0
14, 182976, Note_on_c, 3, 50, 99
14, 183100, Note_on_c, 3, 50, 0
14, 183164, Note_on_c, 3, 50, 96
14, 183196, Note_on_c, 3, 52, 103
14, 183252, Note_on_c, 3, 50, 0
14, 183507, Note_on_c, 3, 50, 105
14, 183540, Note_on_c, 3, 52, 0
14, 183828, Note_on_c, 3, 52, 103
14, 183910, Note_on_c, 3, 50, 0
14, 184074, Note_on_c, 3, 52, 0
14, 184085, Note_on_c, 3, 50, 112
14, 184336, Note_on_c, 3, 43, 95
14, 184376, Note_on_c, 3, 50, 0
14, 184680, Note_on_c, 3, 47, 97
14, 185054, Note_on_c, 3, 50, 105
14, 185206, Note_on_c, 3, 43, 0
14, 185230, Note_on_c, 3, 47, 0
14, 185496, Note_on_c, 3, 53, 99
14, 185564, Note_on_c, 3, 50, 0
14, 185775, Pitch_bend_c, 3, 7936
14, 185782, Pitch_bend_c, 3, 7808
14, 185789, Pitch_bend_c, 3, 7680
14, 185801, Pitch_bend_c, 3, 7552
14, 185808, Pitch_bend_c, 3, 7424
14, 185826, Pitch_bend_c, 3, 7296
14, 185833, Pitch_bend_c, 3, 7168
14, 185850, Pitch_bend_c, 3, 7040
14, 185869, Pitch_bend_c, 3, 6912
14, 185878, Pitch_bend_c, 3, 6656
14, 185885, Pitch_bend_c, 3, 6528
14, 185894, Pitch_bend_c, 3, 6400
14, 185904, Pitch_bend_c, 3, 6272
14, 185913, Pitch_bend_c, 3, 6144
14, 185920, Pitch_bend_c, 3, 5888
14, 185929, Pitch_bend_c, 3, 5760
14, 185939, Pitch_bend_c, 3, 5632
14, 185946, Pitch_bend_c, 3, 5376
14, 185955, Pitch_bend_c, 3, 5120
14, 185964, Pitch_bend_c, 3, 4864
14, 185974, Pitch_bend_c, 3, 4736
14, 185981, Pitch_bend_c, 3, 4480
14, 185990, Pitch_bend_c, 3, 4224
14, 186000, Pitch_bend_c, 3, 3968
14, 186009, Pitch_bend_c, 3, 3712
14, 186016, Pitch_bend_c, 3, 3456
14, 186025, Pitch_bend_c, 3, 3200
14, 186035, Pitch_bend_c, 3, 2944
14, 186044, Pitch_bend_c, 3, 2688
14, 186053, Pitch_bend_c, 3, 2304
14, 186060, Pitch_bend_c, 3, 1920
14, 186070, Pitch_bend_c, 3, 1664
14, 186079, Pitch_bend_c, 3, 1408
14, 186086, Pitch_bend_c, 3, 896
14, 186096, Pitch_bend_c, 3, 512
14, 186105, Pitch_bend_c, 3, 128
14, 186114, Pitch_bend_c, 3, 0
14, 186257, Note_on_c, 3, 50, 108
14, 186280, Pitch_bend_c, 3, 384
14, 186287, Pitch_bend_c, 3, 896
14, 186297, Pitch_bend_c, 3, 1280
14, 186306, Pitch_bend_c, 3, 1536
14, 186315, Pitch_bend_c, 3, 1920
14, 186323, Pitch_bend_c, 3, 2304
14, 186332, Note_on_c, 3, 53, 0
14, 186332, Pitch_bend_c, 3, 3072
14, 186341, Pitch_bend_c, 3, 3712
14, 186351, Pitch_bend_c, 3, 4864
14, 186360, Pitch_bend_c, 3, 6144
14, 186367, Pitch_bend_c, 3, 7168
14, 186376, Pitch_bend_c, 3, 8192
14, 186620, Note_on_c, 3, 52, 99
14, 186748, Note_on_c, 3, 50, 0
14, 186954, Note_on_c, 3, 50, 101
14, 187020, Note_on_c, 3, 52, 0
14, 187401, Note_on_c, 3, 45, 94
14, 187418, Note_on_c, 3, 50, 0
14, 187691, Note_on_c, 3, 48, 101
14, 187745, Note_on_c, 3, 45, 0
14, 187937, Note_on_c, 3, 45, 108
14, 187953, Note_on_c, 3, 48, 0
14, 188190, Note_on_c, 3, 50, 117
14, 188265, Note_on_c, 3, 45, 0
14, 188485, Note_on_c, 3, 50, 0
14, 188489, Note_on_c, 3, 45, 100
14, 188660, Note_on_c, 3, 48, 96
14, 188733, Note_on_c, 3, 45, 0
14, 188911, Note_on_c, 3, 45, 96
14, 188939, Note_on_c, 3, 48, 0
14, 189056, Note_on_c, 3, 50, 101
14, 189166, Note_on_c, 3, 45, 0
14, 189360, Note_on_c, 3, 45, 99
14, 189404, Note_on_c, 3, 50, 0
14, 189596, Note_on_c, 3, 48, 101
14, 189669, Note_on_c, 3, 45, 0
14, 189849, Note_on_c, 3, 45, 101
14, 189868, Note_on_c, 3, 48, 0
14, 190081, Note_on_c, 3, 48, 103
14, 190111, Note_on_c, 3, 45, 0
14, 190343, Note_on_c, 3, 43, 94
14, 190373, Note_on_c, 3, 48, 0
14, 190570, Note_on_c, 3, 48, 101
14, 190626, Note_on_c, 3, 43, 0
14, 190815, Note_on_c, 3, 43, 96
14, 190857, Note_on_c, 3, 48, 0
14, 191042, Note_on_c, 3, 52, 101
14, 191131, Note_on_c, 3, 43, 0
14, 191274, Note_on_c, 3, 43, 93
14, 191354, Note_on_c, 3, 52, 0
14, 191407, Note_on_c, 3, 48, 97
14, 191529, Note_on_c, 3, 43, 0
14, 191756, Note_on_c, 3, 43, 96
14, 191803, Note_on_c, 3, 48, 0
14, 191999, Note_on_c, 3, 50, 105
14, 192072, Note_on_c, 3, 43, 0
14, 192252, Note_on_c, 3, 43, 95
14, 192318, Note_on_c, 3, 50, 0
14, 192467, Note_on_c, 3, 47, 103
14, 192521, Note_on_c, 3, 43, 0
14, 192713, Note_on_c, 3, 43, 97
14, 192753, Note_on_c, 3, 47, 0
14, 192842, Note_on_c, 3, 47, 99
14, 193078, Note_on_c, 3, 43, 0
14, 193165, Note_on_c, 3, 53, 96
14, 193345, Note_on_c, 3, 47, 0
14, 193443, Note_on_c, 3, 50, 97
14, 193670, Note_on_c, 3, 53, 0
14, 193670, Note_on_c, 3, 47, 96
14, 193726, Note_on_c, 3, 50, 0
14, 193937, Note_on_c, 3, 50, 99
14, 193981, Note_on_c, 3, 47, 0
14, 194438, Note_on_c, 3, 45, 108
14, 194821, Note_on_c, 3, 50, 0
14, 194903, Note_on_c, 3, 48, 108
14, 194992, Note_on_c, 3, 45, 0
14, 195261, Note_on_c, 3, 45, 103
14, 195278, Note_on_c, 3, 48, 0
14, 195886, Note_on_c, 3, 50, 127
14, 195942, Note_on_c, 3, 45, 0
14, 196291, Pitch_bend_c, 3, 8064
14, 196300, Pitch_bend_c, 3, 7936
14, 196317, Pitch_bend_c, 3, 7808
14, 196333, Pitch_bend_c, 3, 7552
14, 196342, Pitch_bend_c, 3, 7424
14, 196352, Pitch_bend_c, 3, 7296
14, 196359, Pitch_bend_c, 3, 7168
14, 196368, Pitch_bend_c, 3, 7040
14, 196377, Pitch_bend_c, 3, 6784
14, 196387, Pitch_bend_c, 3, 6528
14, 196394, Pitch_bend_c, 3, 6400
14, 196403, Pitch_bend_c, 3, 6272
14, 196413, Pitch_bend_c, 3, 6016
14, 196422, Pitch_bend_c, 3, 5888
14, 196431, Pitch_bend_c, 3, 5632
14, 196438, Pitch_bend_c, 3, 5376
14, 196448, Pitch_bend_c, 3, 5120
14, 196457, Pitch_bend_c, 3, 4864
14, 196464, Pitch_bend_c, 3, 4608
14, 196473, Pitch_bend_c, 3, 4352
14, 196483, Pitch_bend_c, 3, 4096
14, 196490, Pitch_bend_c, 3, 3840
14, 196499, Pitch_bend_c, 3, 3584
14, 196509, Pitch_bend_c, 3, 3328
14, 196518, Pitch_bend_c, 3, 3072
14, 196527, Pitch_bend_c, 3, 2816
14, 196534, Pitch_bend_c, 3, 2560
14, 196544, Pitch_bend_c, 3, 2304
14, 196553, Pitch_bend_c, 3, 2048
14, 196560, Pitch_bend_c, 3, 1792
14, 196569, Pitch_bend_c, 3, 1536
14, 196579, Pitch_bend_c, 3, 1408
14, 196588, Pitch_bend_c, 3, 1152
14, 196597, Pitch_bend_c, 3, 896
14, 196604, Pitch_bend_c, 3, 768
14, 196614, Pitch_bend_c, 3, 512
14, 196623, Pitch_bend_c, 3, 256
14, 196630, Pitch_bend_c, 3, 0
14, 196759, Note_on_c, 3, 45, 97
14, 196864, Pitch_bend_c, 3, 128
14, 196871, Pitch_bend_c, 3, 512
14, 196881, Pitch_bend_c, 3, 896
14, 196890, Pitch_bend_c, 3, 1280
14, 196897, Pitch_bend_c, 3, 1664
14, 196906, Pitch_bend_c, 3, 1792
14, 196916, Pitch_bend_c, 3, 2048
14, 196925, Pitch_bend_c, 3, 2304
14, 196932, Pitch_bend_c, 3, 2432
14, 196941, Pitch_bend_c, 3, 2560
14, 196951, Pitch_bend_c, 3, 2816
14, 196960, Pitch_bend_c, 3, 2944
14, 196967, Pitch_bend_c, 3, 3072
14, 196977, Pitch_bend_c, 3, 3328
14, 196986, Pitch_bend_c, 3, 3584
14, 196995, Pitch_bend_c, 3, 3712
14, 197002, Pitch_bend_c, 3, 4096
14, 197009, Note_on_c, 3, 50, 0
14, 197014, Pitch_bend_c, 3, 4352
14, 197021, Pitch_bend_c, 3, 4608
14, 197030, Pitch_bend_c, 3, 4864
14, 197037, Pitch_bend_c, 3, 5120
14, 197047, Pitch_bend_c, 3, 5376
14, 197056, Pitch_bend_c, 3, 5760
14, 197065, Pitch_bend_c, 3, 6144
14, 197072, Pitch_bend_c, 3, 6656
14, 197082, Pitch_bend_c, 3, 7168
14, 197091, Pitch_bend_c, 3, 7808
14, 197101, Pitch_bend_c, 3, 8192
14, 197304, Note_on_c, 3, 50, 117
14, 197416, Note_on_c, 3, 45, 0
14, 197473, Note_on_c, 3, 50, 0
14, 197557, Note_on_c, 3, 50, 117
14, 197718, Note_on_c, 3, 50, 0
14, 197791, Note_on_c, 3, 48, 117
14, 198264, Note_on_c, 3, 52, 96
14, 198579, Note_on_c, 3, 55, 99
14, 198622, Note_on_c, 3, 48, 0
14, 198622, Note_on_c, 3, 52, 0
14, 198947, Note_on_c, 3, 52, 101
14, 199242, Note_on_c, 3, 50, 96
14, 199476, Note_on_c, 3, 48, 95
14, 199506, Note_on_c, 3, 52, 0
14, 199515, Note_on_c, 3, 50, 0
14, 199520, Note_on_c, 3, 55, 0
14, 199768, Note_on_c, 3, 48, 0
14, 199796, Note_on_c, 3, 43, 95
14, 200187, Note_on_c, 3, 47, 101
14, 200608, Note_on_c, 3, 50, 99
14, 200671, Note_on_c, 3, 43, 0
14, 200702, Note_on_c, 3, 47, 0
14, 201125, Note_on_c, 3, 53, 103
14, 201142, Note_on_c, 3, 47, 73
14, 201165, Note_on_c, 3, 50, 0
14, 201219, Note_on_c, 3, 47, 0
14, 201600, Note_on_c, 3, 50, 112
14, 201640, Note_on_c, 3, 53, 0
14, 202323, Note_on_c, 3, 45, 101
14, 202352, Note_on_c, 3, 50, 0
14, 202564, Note_on_c, 3, 48, 105
14, 202604, Note_on_c, 3, 45, 0
14, 202808, Note_on_c, 3, 45, 99
14, 202815, Note_on_c, 3, 48, 0
14, 202944, Note_on_c, 3, 48, 108
14, 202993, Note_on_c, 3, 45, 0
14, 203189, Note_on_c, 3, 48, 0
14, 203189, Note_on_c, 3, 45, 99
14, 203276, Note_on_c, 3, 48, 99
14, 203330, Note_on_c, 3, 45, 0
14, 203564, Note_on_c, 3, 43, 95
14, 203610, Note_on_c, 3, 48, 0
14, 203779, Note_on_c, 3, 43, 0
14, 203826, Note_on_c, 3, 45, 103
14, 204060, Note_on_c, 3, 48, 99
14, 204252, Note_on_c, 3, 45, 0
14, 204310, Note_on_c, 3, 50, 97
14, 204378, Note_on_c, 3, 48, 0
14, 204539, Note_on_c, 3, 48, 101
14, 204614, Note_on_c, 3, 50, 0
14, 204780, Note_on_c, 3, 45, 97
14, 204792, Note_on_c, 3, 48, 0
14, 204918, Note_on_c, 3, 48, 105
14, 205026, Note_on_c, 3, 45, 0
14, 205269, Note_on_c, 3, 50, 99
14, 205309, Note_on_c, 3, 48, 0
14, 205529, Note_on_c, 3, 48, 101
14, 205597, Note_on_c, 3, 50, 0
14, 205859, Note_on_c, 3, 43, 96
14, 206145, Note_on_c, 3, 48, 0
14, 206276, Note_on_c, 3, 48, 96
14, 206447, Note_on_c, 3, 43, 0
14, 206748, Note_on_c, 3, 43, 99
14, 206781, Note_on_c, 3, 48, 0
14, 206989, Note_on_c, 3, 48, 99
14, 207046, Note_on_c, 3, 43, 0
14, 207228, Note_on_c, 3, 43, 96
14, 207263, Note_on_c, 3, 48, 0
14, 207455, Note_on_c, 3, 47, 97
14, 207492, Note_on_c, 3, 43, 0
14, 207773, Note_on_c, 3, 43, 96
14, 207829, Note_on_c, 3, 47, 0
14, 207989, Note_on_c, 3, 47, 97
14, 208042, Note_on_c, 3, 43, 0
14, 208216, Note_on_c, 3, 43, 90
14, 208234, Note_on_c, 3, 47, 0
14, 208328, Note_on_c, 3, 47, 103
14, 208646, Note_on_c, 3, 50, 101
14, 208751, Note_on_c, 3, 43, 0
14, 208936, Note_on_c, 3, 53, 97
14, 209030, Note_on_c, 3, 50, 0
14, 209037, Note_on_c, 3, 47, 0
14, 209194, Note_on_c, 3, 50, 101
14, 209313, Note_on_c, 3, 53, 0
14, 209470, Note_on_c, 3, 52, 97
14, 209954, Note_on_c, 3, 52, 0
14, 210345, Note_on_c, 3, 50, 0
14, 210392, Note_on_c, 3, 50, 112
14, 210719, Note_on_c, 3, 45, 99
14, 210766, Note_on_c, 3, 50, 0
14, 211042, Note_on_c, 3, 50, 101
14, 211124, Note_on_c, 3, 45, 0
14, 211304, Note_on_c, 3, 52, 99
14, 211372, Note_on_c, 3, 50, 0
14, 211625, Note_on_c, 3, 50, 99
14, 211742, Note_on_c, 3, 52, 0
14, 212762, Note_on_c, 3, 50, 0
14, 212762, Note_on_c, 3, 45, 103
14, 212900, Note_on_c, 3, 50, 89
14, 212961, Note_on_c, 3, 45, 0
14, 213034, Note_on_c, 3, 50, 0
14, 213048, Note_on_c, 3, 52, 96
14, 213214, Note_on_c, 3, 50, 85
14, 213286, Note_on_c, 3, 48, 88
14, 213387, Note_on_c, 3, 50, 0
14, 213452, Note_on_c, 3, 52, 0
14, 214524, Note_on_c, 3, 48, 0
14, 214541, Note_on_c, 3, 43, 103
14, 214770, Note_on_c, 3, 43, 0
14, 214812, Note_on_c, 3, 48, 112
14, 215018, Note_on_c, 3, 48, 0
14, 215046, Note_on_c, 3, 50, 103
14, 215289, Note_on_c, 3, 43, 99
14, 215303, Note_on_c, 3, 50, 0
14, 215697, Note_on_c, 3, 47, 97
14, 215959, Note_on_c, 3, 43, 0
14, 215980, Note_on_c, 3, 47, 0
14, 216017, Note_on_c, 3, 50, 99
14, 216052, Note_on_c, 3, 47, 84
14, 216120, Note_on_c, 3, 47, 0
14, 216469, Note_on_c, 3, 50, 0
14, 216478, Note_on_c, 3, 53, 101
14, 216735, Note_on_c, 3, 50, 96
14, 216834, Note_on_c, 3, 53, 0
14, 216977, Note_on_c, 3, 47, 96
14, 216981, Note_on_c, 3, 50, 0
14, 217227, Note_on_c, 3, 50, 99
14, 217262, Note_on_c, 3, 47, 0
14, 218420, Note_on_c, 3, 45, 127
14, 218458, Note_on_c, 3, 53, 94
14, 218465, Note_on_c, 3, 52, 84
14, 218476, Note_on_c, 3, 50, 0
14, 218500, Note_on_c, 3, 53, 0
14, 218558, Note_on_c, 3, 52, 0
14, 218680, Note_on_c, 3, 48, 103
14, 218802, Note_on_c, 3, 45, 0
14, 218923, Note_on_c, 3, 50, 103
14, 218968, Note_on_c, 3, 48, 0
14, 219019, Note_on_c, 3, 50, 0
14, 219162, Note_on_c, 3, 62, 112
14, 219553, Note_on_c, 3, 55, 94
14, 219864, Note_on_c, 3, 55, 0
14, 219876, Note_on_c, 3, 60, 95
14, 220358, Note_on_c, 3, 57, 96
14, 220496, Note_on_c, 3, 60, 0
14, 220508, Note_on_c, 3, 62, 0
14, 220606, Note_on_c, 3, 60, 105
14, 220838, Note_on_c, 3, 62, 95
14, 220901, Note_on_c, 3, 60, 0
14, 220910, Note_on_c, 3, 57, 0
14, 221067, Note_on_c, 3, 64, 97
14, 221097, Note_on_c, 3, 62, 0
14, 221427, Note_on_c, 3, 60, 92
14, 221762, Note_on_c, 3, 55, 101
14, 222202, Note_on_c, 3, 60, 0
14, 222211, Note_on_c, 3, 57, 105
14, 222277, Note_on_c, 3, 64, 0
14, 222476, Note_on_c, 3, 60, 91
14, 222749, Note_on_c, 3, 62, 97
14, 222768, Note_on_c, 3, 57, 0
14, 222796, Note_on_c, 3, 55, 0
14, 222876, Note_on_c, 3, 60, 0
14, 222976, Note_on_c, 3, 59, 103
14, 223016, Note_on_c, 3, 62, 0
14, 223334, Note_on_c, 3, 55, 103
14, 223423, Note_on_c, 3, 59, 0
14, 223660, Note_on_c, 3, 59, 97
14, 223936, Note_on_c, 3, 65, 97
14, 224109, Note_on_c, 3, 55, 0
14, 224111, Note_on_c, 3, 59, 0
14, 224263, Note_on_c, 3, 62, 97
14, 224631, Note_on_c, 3, 59, 96
14, 224666, Note_on_c, 3, 62, 0
14, 224677, Note_on_c, 3, 65, 0
14, 224904, Note_on_c, 3, 62, 105
14, 224949, Note_on_c, 3, 59, 0
14, 225269, Note_on_c, 3, 60, 97
14, 225330, Note_on_c, 3, 62, 0
14, 225620, Note_on_c, 3, 57, 99
14, 225656, Note_on_c, 3, 60, 0
14, 226065, Note_on_c, 3, 55, 103
14, 226138, Note_on_c, 3, 57, 0
14, 226306, Note_on_c, 3, 54, 89
14, 226351, Note_on_c, 3, 55, 0
14, 226552, Note_on_c, 3, 52, 100
14, 226571, Note_on_c, 3, 54, 0
14, 226807, Note_on_c, 3, 52, 0
14, 226812, Note_on_c, 3, 50, 105
14, 227205, Note_on_c, 3, 52, 103
14, 227263, Note_on_c, 3, 50, 0
14, 227537, Note_on_c, 3, 54, 97
14, 227591, Note_on_c, 3, 52, 0
14, 227982, Note_on_c, 3, 50, 99
14, 228087, Note_on_c, 3, 54, 0
14, 228223, Note_on_c, 3, 52, 103
14, 228293, Note_on_c, 3, 50, 0
14, 228459, Note_on_c, 3, 54, 92
14, 228522, Note_on_c, 3, 52, 0
14, 228747, Note_on_c, 3, 48, 96
14, 228829, Note_on_c, 3, 54, 0
14, 229063, Note_on_c, 3, 50, 99
14, 229149, Note_on_c, 3, 48, 0
14, 229411, Note_on_c, 3, 52, 103
14, 229477, Note_on_c, 3, 50, 0
14, 229832, Note_on_c, 3, 48, 103
14, 229875, Note_on_c, 3, 52, 0
14, 230092, Note_on_c, 3, 50, 99
14, 230254, Note_on_c, 3, 48, 0
14, 230336, Note_on_c, 3, 52, 99
14, 230380, Note_on_c, 3, 50, 0
14, 230584, Note_on_c, 3, 47, 105
14, 230612, Note_on_c, 3, 52, 0
14, 230925, Note_on_c, 3, 48, 96
14, 231162, Note_on_c, 3, 47, 0
14, 231276, Note_on_c, 3, 50, 101
14, 231375, Note_on_c, 3, 48, 0
14, 231695, Note_on_c, 3, 52, 97
14, 231969, Note_on_c, 3, 50, 0
14, 231969, Note_on_c, 3, 53, 103
14, 232009, Note_on_c, 3, 52, 0
14, 232231, Note_on_c, 3, 52, 96
14, 232470, Note_on_c, 3, 50, 117
14, 232505, Note_on_c, 3, 53, 0
14, 232516, Note_on_c, 3, 52, 0
14, 232910, Note_on_c, 3, 43, 82
14, 232914, Note_on_c, 3, 45, 78
14, 233101, Note_on_c, 3, 45, 0
14, 233179, Note_on_c, 3, 43, 0
14, 233216, Note_on_c, 3, 48, 101
14, 233635, Note_on_c, 3, 45, 91
14, 233661, Note_on_c, 3, 48, 0
14, 233881, Note_on_c, 3, 47, 108
14, 233906, Note_on_c, 3, 45, 0
14, 234096, Note_on_c, 3, 50, 0
14, 234122, Note_on_c, 3, 45, 112
14, 234157, Note_on_c, 3, 47, 0
14, 234356, Note_on_c, 3, 50, 112
14, 234414, Note_on_c, 3, 45, 0
14, 234711, Note_on_c, 3, 43, 97
14, 235009, Note_on_c, 3, 50, 0
14, 235032, Note_on_c, 3, 48, 103
14, 235086, Note_on_c, 3, 43, 0
14, 235481, Note_on_c, 3, 48, 0
14, 235481, Note_on_c, 3, 45, 104
14, 235762, Note_on_c, 3, 48, 108
14, 235797, Note_on_c, 3, 45, 0
14, 236017, Note_on_c, 3, 45, 101
14, 236066, Note_on_c, 3, 48, 0
14, 236277, Note_on_c, 3, 50, 99
14, 236335, Note_on_c, 3, 45, 0
14, 236656, Note_on_c, 3, 43, 99
14, 236787, Note_on_c, 3, 50, 0
14, 236976, Note_on_c, 3, 48, 105
14, 237044, Note_on_c, 3, 43, 0
14, 237461, Note_on_c, 3, 43, 97
14, 237489, Note_on_c, 3, 48, 0
14, 237704, Note_on_c, 3, 47, 101
14, 237763, Note_on_c, 3, 43, 0
14, 237964, Note_on_c, 3, 43, 96
14, 238011, Note_on_c, 3, 47, 0
14, 238266, Note_on_c, 3, 48, 90
14, 238329, Note_on_c, 3, 43, 0
14, 238329, Note_on_c, 3, 50, 50
14, 238432, Note_on_c, 3, 48, 0
14, 238479, Note_on_c, 3, 43, 48
14, 238593, Note_on_c, 3, 43, 0
14, 238731, Note_on_c, 3, 43, 94
14, 238895, Note_on_c, 3, 50, 0
14, 238961, Note_on_c, 3, 47, 127
14, 239054, Note_on_c, 3, 43, 0
14, 239366, Note_on_c, 3, 47, 0
14, 239389, Note_on_c, 3, 43, 99
14, 239644, Note_on_c, 3, 45, 112
14, 239672, Note_on_c, 3, 43, 0
14, 239899, Note_on_c, 3, 43, 101
14, 239967, Note_on_c, 3, 45, 0
14, 240119, Note_on_c, 3, 50, 105
14, 240208, Note_on_c, 3, 43, 0
14, 240482, Note_on_c, 3, 45, 93
14, 240868, Note_on_c, 3, 48, 95
14, 241022, Note_on_c, 3, 45, 0
14, 241315, Note_on_c, 3, 47, 117
14, 241488, Note_on_c, 3, 50, 0
14, 241605, Note_on_c, 3, 45, 102
14, 241610, Note_on_c, 3, 47, 0
14, 241656, Note_on_c, 3, 48, 0
14, 241825, Note_on_c, 3, 47, 103
14, 241898, Note_on_c, 3, 45, 0
14, 242136, Note_on_c, 3, 38, 95
14, 242211, Note_on_c, 3, 47, 0
14, 242539, Note_on_c, 3, 46, 81
14, 242623, Note_on_c, 3, 46, 0
14, 242796, Note_on_c, 3, 45, 87
14, 243332, Note_on_c, 3, 38, 0
14, 243489, Note_on_c, 3, 47, 88
14, 243571, Note_on_c, 3, 45, 0
14, 243940, Note_on_c, 3, 48, 105
14, 244029, Note_on_c, 3, 47, 0
14, 244355, Note_on_c, 3, 43, 92
14, 244385, Note_on_c, 3, 48, 0
14, 244661, Note_on_c, 3, 48, 117
14, 244694, Note_on_c, 3, 43, 0
14, 245122, Note_on_c, 3, 43, 97
14, 245131, Note_on_c, 3, 48, 0
14, 245358, Note_on_c, 3, 43, 0
14, 245386, Note_on_c, 3, 48, 117
14, 245649, Note_on_c, 3, 50, 99
14, 245735, Note_on_c, 3, 48, 0
14, 245859, Note_on_c, 3, 50, 0
14, 245911, Note_on_c, 3, 47, 112
14, 246262, Note_on_c, 3, 47, 0
14, 246273, Note_on_c, 3, 41, 96
14, 246273, Note_on_c, 3, 43, 93
14, 246423, Note_on_c, 3, 41, 0
14, 246510, Note_on_c, 3, 43, 0
14, 246601, Note_on_c, 3, 47, 127
14, 247041, Note_on_c, 3, 47, 0
14, 247071, Note_on_c, 3, 43, 105
14, 247237, Note_on_c, 3, 43, 0
14, 247317, Note_on_c, 3, 41, 117
14, 247347, Note_on_c, 3, 49, 79
14, 247453, Note_on_c, 3, 49, 0
14, 247504, Note_on_c, 3, 41, 0
14, 247586, Note_on_c, 3, 43, 112
14, 247832, Note_on_c, 3, 50, 101
14, 247944, Note_on_c, 3, 43, 0
14, 248223, Note_on_c, 3, 45, 103
14, 248480, Note_on_c, 3, 50, 0
14, 248494, Note_on_c, 3, 45, 0
14, 248527, Note_on_c, 3, 48, 108
14, 248974, Note_on_c, 3, 48, 0
14, 248983, Note_on_c, 3, 45, 99
14, 249245, Note_on_c, 3, 48, 97
14, 249292, Note_on_c, 3, 45, 0
14, 249495, Note_on_c, 3, 45, 101
14, 249545, Note_on_c, 3, 48, 0
14, 249737, Note_on_c, 3, 50, 105
14, 249870, Note_on_c, 3, 45, 0
14, 250092, Note_on_c, 3, 50, 0
14, 250106, Note_on_c, 3, 43, 97
14, 250333, Note_on_c, 3, 43, 0
14, 250455, Note_on_c, 3, 50, 105
14, 250476, Note_on_c, 3, 52, 93
14, 250914, Note_on_c, 3, 45, 105
14, 250939, Note_on_c, 3, 52, 0
14, 250949, Note_on_c, 3, 50, 0
14, 251173, Note_on_c, 3, 48, 105
14, 251225, Note_on_c, 3, 45, 0
14, 251419, Note_on_c, 3, 45, 104
14, 251421, Note_on_c, 3, 48, 0
14, 251648, Note_on_c, 3, 45, 0
14, 251681, Note_on_c, 3, 52, 99
14, 252016, Note_on_c, 3, 52, 0
14, 252030, Note_on_c, 3, 49, 91
14, 252051, Note_on_c, 3, 45, 89
14, 252093, Note_on_c, 3, 45, 0
14, 252219, Note_on_c, 3, 49, 0
14, 252311, Note_on_c, 3, 48, 103
14, 252800, Note_on_c, 3, 50, 99
14, 252842, Note_on_c, 3, 48, 0
14, 253057, Note_on_c, 3, 50, 0
14, 253062, Note_on_c, 3, 48, 108
14, 253314, Note_on_c, 3, 50, 97
14, 253392, Note_on_c, 3, 48, 0
14, 253548, Note_on_c, 3, 43, 99
14, 253572, Note_on_c, 3, 50, 0
14, 253661, Note_on_c, 3, 50, 76
14, 253743, Note_on_c, 3, 50, 0
14, 253958, Note_on_c, 3, 47, 101
14, 254016, Note_on_c, 3, 43, 0
14, 254199, Note_on_c, 3, 47, 0
14, 254276, Note_on_c, 3, 53, 94
14, 254339, Note_on_c, 3, 52, 90
14, 254512, Note_on_c, 3, 52, 0
14, 254753, Note_on_c, 3, 50, 97
14, 254772, Note_on_c, 3, 53, 0
14, 255011, Note_on_c, 3, 47, 101
14, 255046, Note_on_c, 3, 50, 0
14, 255252, Note_on_c, 3, 47, 0
14, 255252, Note_on_c, 3, 43, 100
14, 255500, Note_on_c, 3, 50, 105
14, 255603, Note_on_c, 3, 43, 0
14, 256890, Note_on_c, 3, 50, 0
14, 256906, Note_on_c, 3, 45, 112
14, 257028, Note_on_c, 3, 48, 99
14, 257079, Note_on_c, 3, 45, 0
14, 257243, Note_on_c, 3, 45, 93
14, 257248, Note_on_c, 3, 48, 0
14, 257470, Note_on_c, 3, 50, 101
14, 257498, Note_on_c, 3, 52, 79
14, 257519, Note_on_c, 3, 52, 0
14, 257533, Note_on_c, 3, 45, 0
14, 258863, Note_on_c, 3, 45, 105
14, 258867, Note_on_c, 3, 50, 0
14, 258968, Note_on_c, 3, 48, 96
14, 259026, Note_on_c, 3, 45, 0
14, 259120, Note_on_c, 3, 45, 97
14, 259157, Note_on_c, 3, 48, 0
14, 259349, Note_on_c, 3, 50, 101
14, 259445, Note_on_c, 3, 45, 0
14, 260777, Note_on_c, 3, 45, 99
14, 260786, Note_on_c, 3, 50, 0
14, 260870, Note_on_c, 3, 48, 95
14, 260950, Note_on_c, 3, 45, 0
14, 261093, Note_on_c, 3, 50, 87
14, 261100, Note_on_c, 3, 48, 0
14, 261275, Note_on_c, 3, 45, 94
14, 261289, Note_on_c, 3, 50, 0
14, 261376, Note_on_c, 3, 50, 88
14, 261467, Note_on_c, 3, 50, 0
14, 262415, Note_on_c, 3, 45, 0
14, 262473, Note_on_c, 3, 45, 112
14, 262609, Note_on_c, 3, 45, 0
14, 262686, Note_on_c, 3, 45, 117
14, 262838, Note_on_c, 3, 48, 97
14, 262892, Note_on_c, 3, 45, 0
14, 263016, Note_on_c, 3, 50, 96
14, 263056, Note_on_c, 3, 48, 0
14, 263213, Note_on_c, 3, 50, 0
14, 263229, Note_on_c, 3, 45, 90
14, 263402, Note_on_c, 3, 50, 82
14, 263636, Note_on_c, 3, 45, 0
14, 264469, Note_on_c, 3, 50, 0
14, 264596, Note_on_c, 3, 45, 103
14, 264705, Note_on_c, 3, 48, 95
14, 264766, Note_on_c, 3, 45, 0
14, 264916, Note_on_c, 3, 50, 83
14, 264960, Control_c, 3, 1, 115
14, 264986, Note_on_c, 3, 50, 0
14, 265103, Note_on_c, 3, 48, 0
14, 265108, Note_on_c, 3, 45, 91
14, 266198, Note_on_c, 3, 45, 0
14, 266507, Note_on_c, 3, 45, 103
14, 266631, Note_on_c, 3, 48, 88
14, 266699, Note_on_c, 3, 45, 0
14, 266821, Note_on_c, 3, 45, 100
14, 266828, Note_on_c, 3, 48, 0
14, 266961, Note_on_c, 3, 48, 79
14, 267048, Note_on_c, 3, 45, 0
14, 268445, Note_on_c, 3, 48, 0
14, 268562, Note_on_c, 3, 45, 95
14, 268662, Note_on_c, 3, 48, 89
14, 268744, Note_on_c, 3, 45, 0
14, 268864, Note_on_c, 3, 45, 94
14, 268871, Note_on_c, 3, 48, 0
14, 269056, Note_on_c, 3, 48, 101
14, 269109, Note_on_c, 3, 45, 0
14, 270006, Control_c, 3, 1, 33
14, 270029, Control_c, 3, 1, 37
14, 270048, Control_c, 3, 1, 41
14, 270064, Control_c, 3, 1, 49
14, 270080, Control_c, 3, 1, 53
14, 270106, Control_c, 3, 1, 57
14, 270132, Control_c, 3, 1, 61
14, 270158, Control_c, 3, 1, 66
14, 270190, Control_c, 3, 1, 70
14, 270314, Control_c, 3, 1, 66
14, 270340, Control_c, 3, 1, 61
14, 270366, Control_c, 3, 1, 57
14, 270382, Control_c, 3, 1, 53
14, 270399, Control_c, 3, 1, 45
14, 270415, Control_c, 3, 1, 41
14, 270434, Control_c, 3, 1, 37
14, 270450, Control_c, 3, 1, 28
14, 270467, Control_c, 3, 1, 24
14, 270485, Note_on_c, 3, 48, 0
14, 270485, Control_c, 3, 1, 20
14, 270495, Control_c, 3, 1, 16
14, 270495, Note_on_c, 3, 45, 95
14, 270511, Control_c, 3, 1, 8
14, 270527, Control_c, 3, 1, 4
14, 270553, Control_c, 3, 1, 0
14, 270614, Note_on_c, 3, 48, 93
14, 270684, Note_on_c, 3, 45, 0
14, 270804, Note_on_c, 3, 48, 0
14, 270832, Note_on_c, 3, 45, 97
14, 271009, Note_on_c, 3, 50, 97
14, 271066, Note_on_c, 3, 45, 0
14, 272399, Note_on_c, 3, 50, 0
14, 272411, Note_on_c, 3, 45, 97
14, 272528, Note_on_c, 3, 48, 90
14, 272580, Note_on_c, 3, 45, 0
14, 272673, Note_on_c, 3, 45, 96
14, 272683, Note_on_c, 3, 48, 0
14, 272888, Note_on_c, 3, 50, 99
14, 272895, Note_on_c, 3, 45, 0
14, 274328, Note_on_c, 3, 50, 0
14, 274332, Note_on_c, 3, 45, 96
14, 274459, Note_on_c, 3, 48, 97
14, 274505, Note_on_c, 3, 45, 0
14, 274601, Note_on_c, 3, 45, 103
14, 274615, Note_on_c, 3, 48, 0
14, 274824, Note_on_c, 3, 50, 99
14, 274873, Note_on_c, 3, 45, 0
14, 276237, Note_on_c, 3, 45, 98
14, 276246, Note_on_c, 3, 50, 0
14, 276352, Note_on_c, 3, 48, 93
14, 276408, Note_on_c, 3, 45, 0
14, 276515, Note_on_c, 3, 45, 103
14, 276534, Note_on_c, 3, 48, 0
14, 276742, Note_on_c, 3, 50, 97
14, 276845, Note_on_c, 3, 45, 0
14, 278170, Note_on_c, 3, 45, 98
14, 278177, Note_on_c, 3, 50, 0
14, 278282, Note_on_c, 3, 48, 90
14, 278345, Note_on_c, 3, 45, 0
14, 278400, Control_c, 3, 1, 105
14, 278460, Note_on_c, 3, 45, 95
14, 278472, Note_on_c, 3, 48, 0
14, 278666, Note_on_c, 3, 50, 99
14, 278724, Note_on_c, 3, 45, 0
14, 279824, Control_c, 3, 1, 4
14, 279841, Control_c, 3, 1, 12
14, 279850, Control_c, 3, 1, 16
14, 279869, Control_c, 3, 1, 24
14, 279876, Control_c, 3, 1, 28
14, 279885, Control_c, 3, 1, 33
14, 279894, Control_c, 3, 1, 37
14, 279901, Control_c, 3, 1, 41
14, 279911, Control_c, 3, 1, 45
14, 279920, Control_c, 3, 1, 49
14, 279937, Control_c, 3, 1, 57
14, 279955, Control_c, 3, 1, 66
14, 279972, Control_c, 3, 1, 70
14, 279988, Control_c, 3, 1, 74
14, 280004, Control_c, 3, 1, 78
14, 280023, Control_c, 3, 1, 82
14, 280040, Control_c, 3, 1, 86
14, 280056, Control_c, 3, 1, 90
14, 280082, Control_c, 3, 1, 99
14, 280098, Control_c, 3, 1, 103
14, 280103, Note_on_c, 3, 50, 0
14, 280105, Note_on_c, 3, 45, 96
14, 280117, Control_c, 3, 1, 107
14, 280133, Control_c, 3, 1, 111
14, 280152, Control_c, 3, 1, 119
14, 280168, Control_c, 3, 1, 123
14, 280194, Control_c, 3, 1, 127
14, 280229, Note_on_c, 3, 48, 89
14, 280295, Note_on_c, 3, 45, 0
14, 280322, Control_c, 3, 7, 125
14, 280369, Control_c, 3, 7, 124
14, 280416, Control_c, 3, 7, 123
14, 280419, Note_on_c, 3, 45, 97
14, 280426, Note_on_c, 3, 48, 0
14, 280462, Control_c, 3, 7, 122
14, 280509, Control_c, 3, 7, 121
14, 280556, Control_c, 3, 7, 120
14, 280603, Control_c, 3, 7, 119
14, 280620, Note_on_c, 3, 50, 105
14, 280650, Control_c, 3, 7, 118
14, 280660, Note_on_c, 3, 45, 0
14, 280696, Control_c, 3, 7, 117
14, 280743, Control_c, 3, 7, 116
14, 280790, Control_c, 3, 7, 115
14, 280837, Control_c, 3, 7, 114
14, 280884, Control_c, 3, 7, 113
14, 280930, Control_c, 3, 7, 112
14, 280977, Control_c, 3, 7, 111
14, 281024, Control_c, 3, 7, 110
14, 281071, Control_c, 3, 7, 109
14, 281118, Control_c, 3, 7, 108
14, 281164, Control_c, 3, 7, 107
14, 281211, Control_c, 3, 7, 106
14, 281258, Control_c, 3, 7, 105
14, 281305, Control_c, 3, 7, 104
14, 281352, Control_c, 3, 7, 103
14, 281398, Control_c, 3, 7, 102
14, 281445, Control_c, 3, 7, 101
14, 281492, Control_c, 3, 7, 100
14, 281539, Control_c, 3, 7, 99
14, 281586, Control_c, 3, 7, 98
14, 281632, Control_c, 3, 7, 97
14, 281675, Control_c, 3, 1, 123
14, 281679, Control_c, 3, 7, 96
14, 281724, Control_c, 3, 1, 115
14, 281726, Control_c, 3, 7, 95
14, 281773, Control_c, 3, 7, 94
14, 281773, Control_c, 3, 1, 111
14, 281820, Control_c, 3, 7, 93
14, 281825, Control_c, 3, 1, 107
14, 281858, Control_c, 3, 1, 103
14, 281866, Control_c, 3, 7, 92
14, 281900, Control_c, 3, 1, 99
14, 281913, Control_c, 3, 7, 91
14, 281926, Control_c, 3, 1, 94
14, 281949, Control_c, 3, 1, 90
14, 281960, Control_c, 3, 7, 90
14, 281975, Control_c, 3, 1, 86
14, 282000, Control_c, 3, 1, 78
14, 282007, Control_c, 3, 7, 89
14, 282017, Control_c, 3, 1, 74
14, 282043, Control_c, 3, 1, 70
14, 282054, Control_c, 3, 7, 88
14, 282068, Control_c, 3, 1, 66
14, 282094, Control_c, 3, 1, 61
14, 282100, Control_c, 3, 7, 87
14, 282117, Control_c, 3, 1, 53
14, 282143, Control_c, 3, 1, 49
14, 282147, Control_c, 3, 7, 86
14, 282169, Control_c, 3, 1, 45
14, 282192, Control_c, 3, 1, 41
14, 282194, Control_c, 3, 7, 85
14, 282211, Control_c, 3, 1, 37
14, 282227, Control_c, 3, 1, 33
14, 282241, Control_c, 3, 7, 84
14, 282246, Control_c, 3, 1, 28
14, 282263, Control_c, 3, 1, 24
14, 282286, Control_c, 3, 1, 20
14, 282288, Control_c, 3, 7, 83
14, 282305, Control_c, 3, 1, 16
14, 282321, Control_c, 3, 1, 8
14, 282334, Control_c, 3, 7, 82
14, 282337, Control_c, 3, 1, 4
14, 282356, Control_c, 3, 1, 0
14, 282381, Control_c, 3, 7, 81
14, 282428, Control_c, 3, 7, 80
14, 282475, Control_c, 3, 7, 79
14, 282522, Control_c, 3, 7, 78
14, 282568, Control_c, 3, 7, 77
14, 282615, Control_c, 3, 7, 76
14, 282662, Control_c, 3, 7, 75
14, 282709, Control_c, 3, 7, 74
14, 282756, Control_c, 3, 7, 73
14, 282802, Control_c, 3, 7, 72
14, 282849, Control_c, 3, 7, 71
14, 282896, Control_c, 3, 7, 70
14, 282943, Control_c, 3, 7, 69
14, 282990, Control_c, 3, 7, 68
14, 283036, Control_c, 3, 7, 67
14, 283083, Control_c, 3, 7, 66
14, 283130, Control_c, 3, 7, 65
14, 283177, Control_c, 3, 7, 64
14, 283224, Control_c, 3, 7, 63
14, 283270, Control_c, 3, 7, 62
14, 283317, Control_c, 3, 7, 61
14, 283364, Control_c, 3, 7, 60
14, 283369, Note_on_c, 3, 50, 0
14, 283411, Control_c, 3, 7, 59
14, 283458, Control_c, 3, 7, 58
14, 283504, Control_c, 3, 7, 57
14, 283551, Control_c, 3, 7, 56
14, 283598, Control_c, 3, 7, 55
14, 283645, Control_c, 3, 7, 54
14, 283692, Control_c, 3, 7, 53
14, 283738, Control_c, 3, 7, 52
14, 283785, Control_c, 3, 7, 51
14, 283832, Control_c, 3, 7, 50
14, 283879, Control_c, 3, 7, 49
14, 283926, Control_c, 3, 7, 48
14, 283972, Control_c, 3, 7, 47
14, 284160, End_track
15, 0, Start_track
15, 0, Text_t, "trp"
15, 0, Control_c, 4, 32, 0
15, 22, Program_c, 4, 56
15, 33, Control_c, 4, 7, 127
15, 500, Control_c, 4, 11, 127
15, 520, Control_c, 4, 1, 33
15, 960, Control_c, 4, 10, 23
15, 1920, Pitch_bend_c, 4, 8192
15, 58088, Note_on_c, 4, 69, 98
15, 58303, Note_on_c, 4, 69, 0
15, 58432, Note_on_c, 4, 69, 98
15, 59012, Note_on_c, 4, 69, 0
15, 60028, Note_on_c, 4, 69, 103
15, 60229, Note_on_c, 4, 69, 0
15, 60402, Note_on_c, 4, 69, 100
15, 60863, Note_on_c, 4, 69, 0
15, 61923, Note_on_c, 4, 69, 99
15, 62146, Note_on_c, 4, 69, 0
15, 62298, Note_on_c, 4, 69, 98
15, 62754, Note_on_c, 4, 69, 0
15, 63875, Note_on_c, 4, 69, 91
15, 64074, Note_on_c, 4, 69, 0
15, 64233, Note_on_c, 4, 69, 100
15, 64750, Note_on_c, 4, 69, 0
15, 65773, Note_on_c, 4, 69, 98
15, 65962, Note_on_c, 4, 69, 0
15, 66170, Note_on_c, 4, 69, 95
15, 66678, Note_on_c, 4, 69, 0
15, 67701, Note_on_c, 4, 69, 97
15, 67886, Note_on_c, 4, 69, 0
15, 68068, Note_on_c, 4, 69, 99
15, 68574, Note_on_c, 4, 69, 0
15, 69615, Note_on_c, 4, 69, 94
15, 69821, Note_on_c, 4, 69, 0
15, 69985, Note_on_c, 4, 69, 99
15, 70570, Note_on_c, 4, 69, 0
15, 71534, Note_on_c, 4, 69, 98
15, 71761, Note_on_c, 4, 69, 0
15, 71932, Note_on_c, 4, 69, 99
15, 72521, Note_on_c, 4, 69, 0
15, 73431, Note_on_c, 4, 69, 91
15, 73691, Note_on_c, 4, 69, 0
15, 73855, Note_on_c, 4, 69, 100
15, 74522, Note_on_c, 4, 69, 0
15, 75390, Note_on_c, 4, 69, 99
15, 75605, Note_on_c, 4, 69, 0
15, 75764, Note_on_c, 4, 69, 101
15, 76490, Note_on_c, 4, 69, 0
15, 77297, Note_on_c, 4, 69, 99
15, 77543, Note_on_c, 4, 69, 0
15, 77669, Note_on_c, 4, 69, 101
15, 78465, Note_on_c, 4, 69, 0
15, 79244, Note_on_c, 4, 69, 99
15, 79448, Note_on_c, 4, 69, 0
15, 79597, Note_on_c, 4, 69, 100
15, 80086, Note_on_c, 4, 69, 0
15, 81132, Note_on_c, 4, 69, 99
15, 81331, Note_on_c, 4, 69, 0
15, 81509, Note_on_c, 4, 69, 97
15, 82066, Note_on_c, 4, 69, 0
15, 83056, Note_on_c, 4, 69, 84
15, 83252, Note_on_c, 4, 69, 0
15, 83428, Note_on_c, 4, 69, 98
15, 84008, Note_on_c, 4, 69, 0
15, 84982, Note_on_c, 4, 69, 96
15, 85181, Note_on_c, 4, 69, 0
15, 85349, Note_on_c, 4, 69, 99
15, 85946, Note_on_c, 4, 69, 0
15, 86905, Note_on_c, 4, 69, 106
15, 87111, Note_on_c, 4, 69, 0
15, 87270, Note_on_c, 4, 69, 104
15, 88134, Note_on_c, 4, 69, 0
15, 92622, Note_on_c, 4, 69, 104
15, 92828, Note_on_c, 4, 69, 0
15, 92977, Note_on_c, 4, 69, 108
15, 93516, Note_on_c, 4, 69, 0
15, 94564, Note_on_c, 4, 69, 105
15, 94782, Note_on_c, 4, 69, 0
15, 94931, Note_on_c, 4, 69, 107
15, 95551, Note_on_c, 4, 69, 0
15, 100316, Note_on_c, 4, 69, 91
15, 100505, Note_on_c, 4, 69, 0
15, 100657, Note_on_c, 4, 69, 108
15, 101191, Note_on_c, 4, 69, 0
15, 102249, Note_on_c, 4, 69, 106
15, 102433, Note_on_c, 4, 69, 0
15, 102604, Note_on_c, 4, 69, 104
15, 103096, Note_on_c, 4, 69, 0
15, 104184, Note_on_c, 4, 69, 106
15, 104362, Note_on_c, 4, 69, 0
15, 104525, Note_on_c, 4, 69, 107
15, 105127, Note_on_c, 4, 69, 0
15, 106077, Note_on_c, 4, 69, 103
15, 106252, Note_on_c, 4, 69, 0
15, 106440, Note_on_c, 4, 69, 99
15, 106971, Note_on_c, 4, 69, 0
15, 107984, Note_on_c, 4, 69, 90
15, 108169, Note_on_c, 4, 69, 0
15, 108316, Note_on_c, 4, 69, 104
15, 108932, Note_on_c, 4, 69, 0
15, 109886, Note_on_c, 4, 69, 99
15, 110057, Note_on_c, 4, 69, 0
15, 110254, Note_on_c, 4, 69, 106
15, 111007, Note_on_c, 4, 69, 0
15, 111590, Control_c, 4, 1, 61
15, 111599, Control_c, 4, 1, 70
15, 111606, Control_c, 4, 1, 78
15, 111616, Control_c, 4, 1, 86
15, 111625, Control_c, 4, 1, 90
15, 111641, Control_c, 4, 1, 99
15, 111660, Control_c, 4, 1, 107
15, 111676, Control_c, 4, 1, 111
15, 111693, Control_c, 4, 1, 115
15, 111719, Control_c, 4, 1, 119
15, 111735, Control_c, 4, 1, 123
15, 111829, Note_on_c, 4, 69, 97
15, 112016, Note_on_c, 4, 69, 0
15, 112215, Note_on_c, 4, 69, 103
15, 112828, Control_c, 4, 1, 127
15, 113080, Note_on_c, 4, 69, 0
15, 113796, Note_on_c, 4, 69, 109
15, 113974, Note_on_c, 4, 69, 0
15, 114154, Note_on_c, 4, 69, 104
15, 115037, Note_on_c, 4, 69, 0
15, 115690, Note_on_c, 4, 69, 108
15, 115888, Note_on_c, 4, 69, 0
15, 116092, Note_on_c, 4, 69, 107
15, 117016, Note_on_c, 4, 69, 0
15, 117082, Control_c, 4, 1, 119
15, 117098, Control_c, 4, 1, 115
15, 117115, Control_c, 4, 1, 111
15, 117131, Control_c, 4, 1, 107
15, 117147, Control_c, 4, 1, 103
15, 117166, Control_c, 4, 1, 94
15, 117189, Control_c, 4, 1, 90
15, 117215, Control_c, 4, 1, 86
15, 117606, Note_on_c, 4, 69, 102
15, 117817, Note_on_c, 4, 69, 0
15, 117983, Note_on_c, 4, 69, 106
15, 118741, Note_on_c, 4, 69, 0
15, 119281, Control_c, 4, 1, 82
15, 119305, Control_c, 4, 1, 78
15, 119331, Control_c, 4, 1, 74
15, 119347, Control_c, 4, 1, 66
15, 119366, Control_c, 4, 1, 61
15, 119382, Control_c, 4, 1, 57
15, 119398, Control_c, 4, 1, 49
15, 119415, Control_c, 4, 1, 45
15, 119515, Note_on_c, 4, 69, 103
15, 119731, Note_on_c, 4, 69, 0
15, 119902, Note_on_c, 4, 69, 104
15, 120634, Note_on_c, 4, 69, 0
15, 121469, Note_on_c, 4, 69, 108
15, 121657, Note_on_c, 4, 69, 0
15, 121825, Note_on_c, 4, 69, 105
15, 122667, Note_on_c, 4, 69, 0
15, 123049, Control_c, 4, 1, 49
15, 123075, Control_c, 4, 1, 57
15, 123091, Control_c, 4, 1, 61
15, 123121, Control_c, 4, 1, 66
15, 123388, Note_on_c, 4, 69, 103
15, 123592, Note_on_c, 4, 69, 0
15, 123744, Note_on_c, 4, 69, 105
15, 124415, Note_on_c, 4, 69, 0
15, 124968, Control_c, 4, 1, 70
15, 125000, Control_c, 4, 1, 74
15, 125033, Control_c, 4, 1, 78
15, 125293, Note_on_c, 4, 69, 105
15, 125503, Note_on_c, 4, 69, 0
15, 125677, Note_on_c, 4, 69, 104
15, 126234, Note_on_c, 4, 69, 0
15, 126505, Control_c, 4, 1, 82
15, 126561, Control_c, 4, 1, 78
15, 126580, Control_c, 4, 1, 74
15, 126596, Control_c, 4, 1, 70
15, 126613, Control_c, 4, 1, 66
15, 126622, Control_c, 4, 1, 61
15, 126638, Control_c, 4, 1, 53
15, 126657, Control_c, 4, 1, 49
15, 126690, Control_c, 4, 1, 45
15, 126732, Control_c, 4, 1, 41
15, 126781, Control_c, 4, 1, 37
15, 127219, Note_on_c, 4, 69, 103
15, 127427, Note_on_c, 4, 69, 0
15, 127572, Note_on_c, 4, 69, 108
15, 128407, Note_on_c, 4, 69, 0
15, 129021, Control_c, 4, 1, 41
15, 129037, Control_c, 4, 1, 45
15, 129053, Control_c, 4, 1, 53
15, 129070, Control_c, 4, 1, 57
15, 129086, Control_c, 4, 1, 61
15, 129105, Control_c, 4, 1, 66
15, 129121, Control_c, 4, 1, 74
15, 129161, Note_on_c, 4, 69, 100
15, 129388, Note_on_c, 4, 69, 0
15, 129535, Note_on_c, 4, 69, 107
15, 130291, Note_on_c, 4, 69, 0
15, 131059, Note_on_c, 4, 69, 110
15, 131244, Note_on_c, 4, 69, 0
15, 131417, Note_on_c, 4, 69, 106
15, 131861, Note_on_c, 4, 69, 0
15, 132984, Note_on_c, 4, 69, 108
15, 133183, Note_on_c, 4, 69, 0
15, 133338, Note_on_c, 4, 69, 108
15, 133981, Note_on_c, 4, 69, 0
15, 134889, Note_on_c, 4, 69, 108
15, 135076, Note_on_c, 4, 69, 0
15, 138774, Note_on_c, 4, 69, 89
15, 138951, Note_on_c, 4, 69, 0
15, 139078, Note_on_c, 4, 69, 107
15, 139689, Note_on_c, 4, 69, 0
15, 140615, Note_on_c, 4, 69, 106
15, 140809, Note_on_c, 4, 69, 0
15, 140947, Note_on_c, 4, 69, 107
15, 141673, Note_on_c, 4, 69, 0
15, 146393, Note_on_c, 4, 69, 102
15, 146578, Note_on_c, 4, 69, 0
15, 146713, Note_on_c, 4, 69, 108
15, 147181, Note_on_c, 4, 69, 0
15, 148309, Note_on_c, 4, 69, 104
15, 148503, Note_on_c, 4, 69, 0
15, 148651, Note_on_c, 4, 69, 104
15, 149334, Note_on_c, 4, 69, 0
15, 152149, Note_on_c, 4, 69, 105
15, 152313, Note_on_c, 4, 69, 0
15, 152472, Note_on_c, 4, 69, 103
15, 153050, Note_on_c, 4, 69, 0
15, 154080, Note_on_c, 4, 69, 104
15, 154243, Note_on_c, 4, 69, 0
15, 154421, Note_on_c, 4, 69, 99
15, 155170, Note_on_c, 4, 69, 0
15, 156003, Note_on_c, 4, 69, 104
15, 156183, Note_on_c, 4, 69, 0
15, 156335, Note_on_c, 4, 69, 103
15, 157051, Note_on_c, 4, 69, 0
15, 157922, Note_on_c, 4, 69, 106
15, 158116, Note_on_c, 4, 69, 0
15, 158280, Note_on_c, 4, 69, 105
15, 158956, Note_on_c, 4, 69, 0
15, 159841, Note_on_c, 4, 69, 106
15, 160035, Note_on_c, 4, 69, 0
15, 160192, Note_on_c, 4, 69, 107
15, 160823, Note_on_c, 4, 69, 0
15, 161752, Note_on_c, 4, 69, 101
15, 161930, Note_on_c, 4, 69, 0
15, 162103, Note_on_c, 4, 69, 106
15, 162656, Note_on_c, 4, 69, 0
15, 163657, Note_on_c, 4, 69, 105
15, 163840, Note_on_c, 4, 69, 0
15, 163985, Note_on_c, 4, 69, 107
15, 164521, Note_on_c, 4, 69, 0
15, 165602, Note_on_c, 4, 69, 105
15, 165794, Note_on_c, 4, 69, 0
15, 165964, Note_on_c, 4, 69, 108
15, 166435, Note_on_c, 4, 69, 0
15, 167488, Note_on_c, 4, 69, 103
15, 167663, Note_on_c, 4, 69, 0
15, 167848, Note_on_c, 4, 69, 103
15, 168386, Note_on_c, 4, 69, 0
15, 169451, Note_on_c, 4, 69, 98
15, 169612, Note_on_c, 4, 69, 0
15, 169788, Note_on_c, 4, 69, 99
15, 170275, Note_on_c, 4, 69, 0
15, 171351, Note_on_c, 4, 69, 105
15, 171541, Note_on_c, 4, 69, 0
15, 171733, Note_on_c, 4, 69, 103
15, 172285, Note_on_c, 4, 69, 0
15, 173277, Note_on_c, 4, 69, 102
15, 173455, Note_on_c, 4, 69, 0
15, 173670, Note_on_c, 4, 69, 99
15, 174168, Note_on_c, 4, 69, 0
15, 174990, Control_c, 4, 1, 82
15, 174997, Control_c, 4, 1, 86
15, 175006, Control_c, 4, 1, 90
15, 175023, Control_c, 4, 1, 99
15, 175041, Control_c, 4, 1, 103
15, 175065, Control_c, 4, 1, 107
15, 175116, Control_c, 4, 1, 111
15, 175193, Note_on_c, 4, 69, 101
15, 175374, Note_on_c, 4, 69, 0
15, 175570, Note_on_c, 4, 69, 105
15, 176172, Note_on_c, 4, 69, 0
15, 177115, Note_on_c, 4, 69, 102
15, 177292, Note_on_c, 4, 69, 0
15, 177447, Note_on_c, 4, 69, 103
15, 178123, Note_on_c, 4, 69, 0
15, 178980, Note_on_c, 4, 69, 104
15, 179174, Note_on_c, 4, 69, 0
15, 179335, Note_on_c, 4, 69, 105
15, 180075, Note_on_c, 4, 69, 0
15, 180945, Note_on_c, 4, 69, 105
15, 181151, Note_on_c, 4, 69, 0
15, 181305, Note_on_c, 4, 69, 105
15, 181961, Note_on_c, 4, 69, 0
15, 182887, Note_on_c, 4, 69, 108
15, 183058, Note_on_c, 4, 69, 0
15, 183215, Note_on_c, 4, 69, 104
15, 184179, Note_on_c, 4, 69, 0
15, 184822, Note_on_c, 4, 69, 107
15, 185014, Note_on_c, 4, 69, 0
15, 185185, Note_on_c, 4, 69, 107
15, 185936, Note_on_c, 4, 69, 0
15, 186746, Note_on_c, 4, 69, 106
15, 186943, Note_on_c, 4, 69, 0
15, 187104, Note_on_c, 4, 69, 105
15, 187864, Note_on_c, 4, 69, 0
15, 188648, Note_on_c, 4, 69, 105
15, 188889, Note_on_c, 4, 69, 0
15, 189018, Note_on_c, 4, 69, 106
15, 189765, Note_on_c, 4, 69, 0
15, 190580, Note_on_c, 4, 69, 106
15, 190800, Note_on_c, 4, 69, 0
15, 190935, Note_on_c, 4, 69, 106
15, 191436, Note_on_c, 4, 69, 0
15, 192480, Note_on_c, 4, 69, 105
15, 192695, Note_on_c, 4, 69, 0
15, 192861, Note_on_c, 4, 69, 103
15, 193355, Note_on_c, 4, 69, 0
15, 194441, Note_on_c, 4, 69, 106
15, 194649, Note_on_c, 4, 69, 0
15, 194778, Note_on_c, 4, 69, 108
15, 195162, Note_on_c, 4, 69, 0
15, 196369, Note_on_c, 4, 69, 126
15, 196556, Note_on_c, 4, 69, 0
15, 196711, Note_on_c, 4, 69, 127
15, 197202, Note_on_c, 4, 69, 0
15, 198243, Note_on_c, 4, 69, 110
15, 198468, Note_on_c, 4, 69, 0
15, 198636, Note_on_c, 4, 69, 117
15, 199100, Note_on_c, 4, 69, 0
15, 200223, Note_on_c, 4, 69, 126
15, 200403, Note_on_c, 4, 69, 0
15, 200567, Note_on_c, 4, 69, 126
15, 200990, Note_on_c, 4, 69, 0
15, 202093, Note_on_c, 4, 69, 109
15, 202301, Note_on_c, 4, 69, 0
15, 202441, Note_on_c, 4, 69, 110
15, 202914, Note_on_c, 4, 69, 0
15, 204037, Note_on_c, 4, 69, 110
15, 204299, Note_on_c, 4, 69, 0
15, 204419, Note_on_c, 4, 69, 108
15, 204807, Note_on_c, 4, 69, 0
15, 206026, Note_on_c, 4, 69, 109
15, 206206, Note_on_c, 4, 69, 0
15, 206377, Note_on_c, 4, 69, 107
15, 206798, Note_on_c, 4, 69, 0
15, 207996, Note_on_c, 4, 69, 117
15, 208198, Note_on_c, 4, 69, 0
15, 208338, Note_on_c, 4, 69, 110
15, 208715, Note_on_c, 4, 69, 0
15, 209934, Note_on_c, 4, 69, 109
15, 210116, Note_on_c, 4, 69, 0
15, 210299, Note_on_c, 4, 69, 109
15, 210814, Note_on_c, 4, 69, 0
15, 211787, Note_on_c, 4, 69, 109
15, 212000, Note_on_c, 4, 69, 0
15, 212155, Note_on_c, 4, 69, 106
15, 212669, Note_on_c, 4, 69, 0
15, 213863, Note_on_c, 4, 69, 107
15, 214041, Note_on_c, 4, 69, 0
15, 214188, Note_on_c, 4, 69, 103
15, 214588, Note_on_c, 4, 69, 0
15, 215777, Note_on_c, 4, 69, 106
15, 215966, Note_on_c, 4, 69, 0
15, 216128, Note_on_c, 4, 69, 106
15, 216626, Note_on_c, 4, 69, 0
15, 217700, Note_on_c, 4, 69, 108
15, 217909, Note_on_c, 4, 69, 0
15, 218061, Note_on_c, 4, 69, 105
15, 218723, Note_on_c, 4, 69, 0
15, 219629, Note_on_c, 4, 69, 106
15, 219811, Note_on_c, 4, 69, 0
15, 219982, Note_on_c, 4, 69, 103
15, 220434, Note_on_c, 4, 69, 0
15, 221550, Note_on_c, 4, 69, 107
15, 221725, Note_on_c, 4, 69, 0
15, 221889, Note_on_c, 4, 69, 103
15, 222542, Note_on_c, 4, 69, 0
15, 223440, Note_on_c, 4, 69, 106
15, 223614, Note_on_c, 4, 69, 0
15, 223749, Note_on_c, 4, 69, 100
15, 224634, Note_on_c, 4, 69, 0
15, 225355, Note_on_c, 4, 69, 104
15, 225502, Note_on_c, 4, 69, 0
15, 225708, Note_on_c, 4, 69, 97
15, 226333, Note_on_c, 4, 69, 0
15, 227262, Note_on_c, 4, 69, 102
15, 227428, Note_on_c, 4, 69, 0
15, 227596, Note_on_c, 4, 69, 99
15, 228191, Note_on_c, 4, 69, 0
15, 229187, Note_on_c, 4, 69, 82
15, 229358, Note_on_c, 4, 69, 0
15, 229531, Note_on_c, 4, 69, 95
15, 230140, Note_on_c, 4, 69, 0
15, 231120, Note_on_c, 4, 69, 95
15, 231298, Note_on_c, 4, 69, 0
15, 231434, Note_on_c, 4, 69, 108
15, 231930, Note_on_c, 4, 69, 0
15, 232929, Note_on_c, 4, 69, 96
15, 233128, Note_on_c, 4, 69, 0
15, 233264, Note_on_c, 4, 69, 103
15, 234151, Note_on_c, 4, 69, 0
15, 234822, Note_on_c, 4, 69, 99
15, 235026, Note_on_c, 4, 69, 0
15, 235176, Note_on_c, 4, 69, 97
15, 235814, Note_on_c, 4, 69, 0
15, 236762, Note_on_c, 4, 69, 95
15, 236959, Note_on_c, 4, 69, 0
15, 237193, Note_on_c, 4, 69, 100
15, 237625, Note_on_c, 4, 69, 0
15, 238718, Note_on_c, 4, 69, 103
15, 238938, Note_on_c, 4, 69, 0
15, 239079, Note_on_c, 4, 69, 105
15, 239851, Note_on_c, 4, 69, 0
15, 240600, Note_on_c, 4, 69, 102
15, 240803, Note_on_c, 4, 69, 0
15, 240958, Note_on_c, 4, 69, 103
15, 241765, Note_on_c, 4, 69, 0
15, 242577, Note_on_c, 4, 69, 99
15, 242825, Note_on_c, 4, 69, 0
15, 243005, Note_on_c, 4, 69, 101
15, 243756, Note_on_c, 4, 69, 0
15, 244414, Note_on_c, 4, 69, 102
15, 244599, Note_on_c, 4, 69, 0
15, 244727, Note_on_c, 4, 69, 102
15, 245443, Note_on_c, 4, 69, 0
15, 246361, Note_on_c, 4, 69, 100
15, 246541, Note_on_c, 4, 69, 0
15, 246707, Note_on_c, 4, 69, 102
15, 247461, Note_on_c, 4, 69, 0
15, 248298, Note_on_c, 4, 69, 97
15, 248474, Note_on_c, 4, 69, 0
15, 248642, Note_on_c, 4, 69, 100
15, 249368, Note_on_c, 4, 69, 0
15, 250173, Note_on_c, 4, 69, 95
15, 250329, Note_on_c, 4, 69, 0
15, 250524, Note_on_c, 4, 69, 99
15, 251216, Note_on_c, 4, 69, 0
15, 252077, Note_on_c, 4, 69, 93
15, 252276, Note_on_c, 4, 69, 0
15, 252445, Note_on_c, 4, 69, 99
15, 253147, Note_on_c, 4, 69, 0
15, 253991, Note_on_c, 4, 69, 91
15, 254202, Note_on_c, 4, 69, 0
15, 254392, Note_on_c, 4, 69, 98
15, 255534, Note_on_c, 4, 69, 0
15, 255922, Note_on_c, 4, 69, 97
15, 256119, Note_on_c, 4, 69, 0
15, 256287, Note_on_c, 4, 69, 99
15, 257232, Note_on_c, 4, 69, 0
15, 284160, End_track
16, 0, Start_track
16, 0, Text_t, "bass copy"
16, 0, Control_c, 11, 32, 0
16, 22, Program_c, 11, 33
16, 33, Control_c, 11, 7, 127
16, 500, Control_c, 11, 11, 127
16, 520, Control_c, 11, 1, 33
16, 960, Control_c, 11, 10, 33
16, 980, Channel_aftertouch_c, 11, 0
16, 7406, Pitch_bend_c, 11, 384
16, 7415, Pitch_bend_c, 11, 0
16, 7682, Note_on_c, 11, 38, 127
16, 7846, Pitch_bend_c, 11, 256
16, 7855, Pitch_bend_c, 11, 640
16, 7862, Pitch_bend_c, 11, 768
16, 7872, Pitch_bend_c, 11, 896
16, 7914, Pitch_bend_c, 11, 1024
16, 7921, Pitch_bend_c, 11, 1408
16, 7930, Pitch_bend_c, 11, 1664
16, 7940, Pitch_bend_c, 11, 2048
16, 7949, Pitch_bend_c, 11, 2560
16, 7958, Pitch_bend_c, 11, 3200
16, 7965, Pitch_bend_c, 11, 3840
16, 7975, Pitch_bend_c, 11, 4352
16, 7984, Pitch_bend_c, 11, 4608
16, 7993, Pitch_bend_c, 11, 4992
16, 8000, Pitch_bend_c, 11, 5120
16, 8010, Pitch_bend_c, 11, 5248
16, 8026, Pitch_bend_c, 11, 5632
16, 8036, Pitch_bend_c, 11, 5760
16, 8045, Pitch_bend_c, 11, 6016
16, 8052, Pitch_bend_c, 11, 6272
16, 8061, Pitch_bend_c, 11, 6656
16, 8071, Pitch_bend_c, 11, 7040
16, 8080, Pitch_bend_c, 11, 7424
16, 8087, Pitch_bend_c, 11, 7808
16, 8096, Pitch_bend_c, 11, 8192
16, 13804, Note_on_c, 11, 38, 0
16, 15360, Control_c, 11, 10, 58
16, 15603, Note_on_c, 11, 43, 86
16, 15811, Note_on_c, 11, 43, 0
16, 16073, Note_on_c, 11, 43, 88
16, 16277, Note_on_c, 11, 43, 0
16, 16422, Note_on_c, 11, 43, 85
16, 16654, Note_on_c, 11, 43, 0
16, 16792, Note_on_c, 11, 43, 88
16, 17052, Note_on_c, 11, 41, 87
16, 17063, Note_on_c, 11, 43, 0
16, 17297, Note_on_c, 11, 38, 86
16, 17300, Note_on_c, 11, 41, 0
16, 18226, Pitch_bend_c, 11, 7936
16, 18233, Pitch_bend_c, 11, 7808
16, 18252, Pitch_bend_c, 11, 7680
16, 18268, Pitch_bend_c, 11, 7552
16, 18275, Pitch_bend_c, 11, 7424
16, 18285, Pitch_bend_c, 11, 7296
16, 18303, Pitch_bend_c, 11, 7168
16, 18311, Pitch_bend_c, 11, 7040
16, 18320, Pitch_bend_c, 11, 6784
16, 18329, Pitch_bend_c, 11, 6656
16, 18355, Pitch_bend_c, 11, 6528
16, 18371, Pitch_bend_c, 11, 6400
16, 18381, Pitch_bend_c, 11, 6272
16, 18388, Pitch_bend_c, 11, 6016
16, 18397, Pitch_bend_c, 11, 5760
16, 18406, Pitch_bend_c, 11, 5376
16, 18416, Pitch_bend_c, 11, 4992
16, 18423, Pitch_bend_c, 11, 4736
16, 18432, Pitch_bend_c, 11, 4480
16, 18442, Pitch_bend_c, 11, 4224
16, 18451, Pitch_bend_c, 11, 4096
16, 18458, Pitch_bend_c, 11, 3840
16, 18542, Pitch_bend_c, 11, 4096
16, 18552, Pitch_bend_c, 11, 3968
16, 18559, Pitch_bend_c, 11, 4096
16, 18568, Pitch_bend_c, 11, 3968
16, 18594, Pitch_bend_c, 11, 4096
16, 18601, Pitch_bend_c, 11, 4224
16, 18610, Pitch_bend_c, 11, 4352
16, 18619, Pitch_bend_c, 11, 4480
16, 18629, Pitch_bend_c, 11, 4736
16, 18638, Pitch_bend_c, 11, 4992
16, 18645, Pitch_bend_c, 11, 5120
16, 18654, Pitch_bend_c, 11, 5376
16, 18664, Pitch_bend_c, 11, 5632
16, 18671, Pitch_bend_c, 11, 5760
16, 18680, Pitch_bend_c, 11, 5888
16, 18697, Pitch_bend_c, 11, 6144
16, 18706, Pitch_bend_c, 11, 6272
16, 18715, Pitch_bend_c, 11, 6400
16, 18725, Pitch_bend_c, 11, 6528
16, 18732, Pitch_bend_c, 11, 6784
16, 18741, Pitch_bend_c, 11, 7040
16, 18750, Pitch_bend_c, 11, 7168
16, 18760, Pitch_bend_c, 11, 7424
16, 18767, Pitch_bend_c, 11, 7552
16, 18776, Pitch_bend_c, 11, 7680
16, 18786, Pitch_bend_c, 11, 7936
16, 18795, Pitch_bend_c, 11, 8192
16, 19101, Note_on_c, 11, 38, 0
16, 19211, Note_on_c, 11, 38, 99
16, 23103, Note_on_c, 11, 38, 0
16, 24221, Note_on_c, 11, 43, 90
16, 24383, Note_on_c, 11, 43, 0
16, 24490, Note_on_c, 11, 43, 88
16, 24715, Note_on_c, 11, 43, 0
16, 24729, Note_on_c, 11, 45, 94
16, 25080, Note_on_c, 11, 38, 87
16, 25089, Note_on_c, 11, 45, 0
16, 26709, Note_on_c, 11, 38, 0
16, 26889, Note_on_c, 11, 38, 99
16, 27331, Note_on_c, 11, 50, 88
16, 27500, Note_on_c, 11, 50, 0
16, 27614, Note_on_c, 11, 48, 90
16, 27827, Note_on_c, 11, 38, 0
16, 28557, Note_on_c, 11, 38, 92
16, 28574, Note_on_c, 11, 48, 0
16, 28943, Note_on_c, 11, 38, 0
16, 29500, Note_on_c, 11, 40, 88
16, 30263, Note_on_c, 11, 43, 90
16, 30336, Note_on_c, 11, 40, 0
16, 30509, Note_on_c, 11, 43, 0
16, 30724, Note_on_c, 11, 38, 90
16, 31152, Note_on_c, 11, 43, 86
16, 31337, Note_on_c, 11, 38, 0
16, 31426, Note_on_c, 11, 43, 0
16, 31489, Note_on_c, 11, 38, 90
16, 32205, Note_on_c, 11, 41, 88
16, 32259, Note_on_c, 11, 38, 0
16, 32664, Note_on_c, 11, 41, 0
16, 32664, Note_on_c, 11, 38, 87
16, 33345, Note_on_c, 11, 45, 86
16, 33483, Note_on_c, 11, 38, 0
16, 33696, Note_on_c, 11, 42, 83
16, 34045, Note_on_c, 11, 36, 87
16, 34075, Note_on_c, 11, 42, 0
16, 34084, Note_on_c, 11, 45, 0
16, 34321, Note_on_c, 11, 38, 83
16, 34377, Note_on_c, 11, 36, 0
16, 34927, Note_on_c, 11, 38, 0
16, 35042, Note_on_c, 11, 38, 90
16, 35325, Note_on_c, 11, 38, 0
16, 35400, Note_on_c, 11, 38, 92
16, 35722, Note_on_c, 11, 40, 87
16, 35786, Note_on_c, 11, 38, 0
16, 36237, Note_on_c, 11, 38, 92
16, 36263, Note_on_c, 11, 40, 0
16, 36371, Note_on_c, 11, 38, 0
16, 36481, Note_on_c, 11, 36, 87
16, 36956, Note_on_c, 11, 31, 80
16, 37019, Note_on_c, 11, 36, 0
16, 37250, Note_on_c, 11, 36, 92
16, 37311, Note_on_c, 11, 31, 0
16, 37702, Note_on_c, 11, 38, 88
16, 37758, Note_on_c, 11, 36, 0
16, 38128, Note_on_c, 11, 38, 0
16, 38165, Note_on_c, 11, 40, 85
16, 38435, Note_on_c, 11, 31, 74
16, 38767, Note_on_c, 11, 40, 0
16, 38793, Note_on_c, 11, 35, 86
16, 39148, Note_on_c, 11, 38, 90
16, 39249, Note_on_c, 11, 35, 0
16, 39270, Note_on_c, 11, 31, 0
16, 39612, Note_on_c, 11, 31, 83
16, 39649, Note_on_c, 11, 35, 80
16, 39745, Note_on_c, 11, 38, 0
16, 40342, Note_on_c, 11, 38, 92
16, 40358, Note_on_c, 11, 31, 0
16, 40367, Note_on_c, 11, 35, 0
16, 40709, Note_on_c, 11, 38, 0
16, 40758, Note_on_c, 11, 38, 95
16, 41069, Note_on_c, 11, 33, 88
16, 41111, Note_on_c, 11, 38, 0
16, 41528, Note_on_c, 11, 35, 92
16, 41582, Note_on_c, 11, 33, 0
16, 42001, Note_on_c, 11, 35, 0
16, 42001, Note_on_c, 11, 33, 86
16, 42188, Note_on_c, 11, 33, 0
16, 42267, Note_on_c, 11, 33, 90
16, 42696, Note_on_c, 11, 37, 79
16, 43009, Note_on_c, 11, 40, 87
16, 43028, Note_on_c, 11, 37, 0
16, 43695, Note_on_c, 11, 37, 84
16, 43718, Note_on_c, 11, 33, 0
16, 44111, Note_on_c, 11, 40, 0
16, 44146, Note_on_c, 11, 33, 87
16, 44191, Note_on_c, 11, 37, 0
16, 44558, Note_on_c, 11, 43, 90
16, 44893, Note_on_c, 11, 40, 85
16, 45064, Note_on_c, 11, 33, 0
16, 45590, Note_on_c, 11, 37, 85
16, 45656, Note_on_c, 11, 43, 0
16, 45667, Note_on_c, 11, 40, 0
16, 45824, Note_on_c, 11, 33, 88
16, 45855, Note_on_c, 11, 37, 0
16, 46065, Note_on_c, 11, 38, 96
16, 46112, Note_on_c, 11, 33, 0
16, 46234, Pitch_bend_c, 11, 7808
16, 46241, Pitch_bend_c, 11, 7552
16, 46250, Pitch_bend_c, 11, 7424
16, 46259, Pitch_bend_c, 11, 7296
16, 46269, Pitch_bend_c, 11, 7168
16, 46276, Pitch_bend_c, 11, 7040
16, 46292, Pitch_bend_c, 11, 6784
16, 46302, Pitch_bend_c, 11, 6656
16, 46320, Pitch_bend_c, 11, 6528
16, 46327, Pitch_bend_c, 11, 6400
16, 46337, Pitch_bend_c, 11, 6272
16, 46346, Pitch_bend_c, 11, 6144
16, 46362, Pitch_bend_c, 11, 5888
16, 46372, Pitch_bend_c, 11, 5760
16, 46388, Pitch_bend_c, 11, 5632
16, 46405, Pitch_bend_c, 11, 5504
16, 46430, Pitch_bend_c, 11, 5376
16, 46447, Pitch_bend_c, 11, 5248
16, 46456, Pitch_bend_c, 11, 5120
16, 46465, Pitch_bend_c, 11, 4992
16, 46472, Pitch_bend_c, 11, 4864
16, 46482, Pitch_bend_c, 11, 4736
16, 46491, Pitch_bend_c, 11, 4608
16, 46500, Pitch_bend_c, 11, 4480
16, 46508, Pitch_bend_c, 11, 4352
16, 46517, Pitch_bend_c, 11, 4224
16, 46526, Pitch_bend_c, 11, 3968
16, 46536, Pitch_bend_c, 11, 3840
16, 46543, Pitch_bend_c, 11, 3712
16, 46552, Pitch_bend_c, 11, 3456
16, 46561, Pitch_bend_c, 11, 3328
16, 46571, Pitch_bend_c, 11, 3200
16, 46578, Pitch_bend_c, 11, 3072
16, 46587, Pitch_bend_c, 11, 2944
16, 46596, Pitch_bend_c, 11, 2816
16, 46603, Pitch_bend_c, 11, 2688
16, 46613, Pitch_bend_c, 11, 2560
16, 46622, Pitch_bend_c, 11, 2432
16, 46632, Pitch_bend_c, 11, 2176
16, 46639, Pitch_bend_c, 11, 2048
16, 46648, Pitch_bend_c, 11, 1792
16, 46657, Pitch_bend_c, 11, 1664
16, 46667, Pitch_bend_c, 11, 1408
16, 46674, Pitch_bend_c, 11, 1280
16, 46683, Pitch_bend_c, 11, 1024
16, 46692, Pitch_bend_c, 11, 896
16, 46702, Pitch_bend_c, 11, 768
16, 46711, Pitch_bend_c, 11, 640
16, 46718, Pitch_bend_c, 11, 512
16, 46727, Pitch_bend_c, 11, 384
16, 46753, Pitch_bend_c, 11, 256
16, 46795, Pitch_bend_c, 11, 128
16, 46809, Pitch_bend_c, 11, 0
16, 46887, Pitch_bend_c, 11, 384
16, 46894, Pitch_bend_c, 11, 512
16, 46903, Pitch_bend_c, 11, 768
16, 46912, Pitch_bend_c, 11, 1024
16, 46922, Pitch_bend_c, 11, 1408
16, 46929, Pitch_bend_c, 11, 1536
16, 46938, Pitch_bend_c, 11, 1664
16, 46954, Pitch_bend_c, 11, 1792
16, 46964, Pitch_bend_c, 11, 1920
16, 46973, Pitch_bend_c, 11, 2048
16, 46983, Pitch_bend_c, 11, 2304
16, 46990, Pitch_bend_c, 11, 2432
16, 46999, Pitch_bend_c, 11, 2688
16, 47008, Pitch_bend_c, 11, 2944
16, 47015, Pitch_bend_c, 11, 3072
16, 47025, Pitch_bend_c, 11, 3328
16, 47034, Pitch_bend_c, 11, 3584
16, 47043, Pitch_bend_c, 11, 4096
16, 47050, Pitch_bend_c, 11, 4480
16, 47060, Pitch_bend_c, 11, 4864
16, 47069, Pitch_bend_c, 11, 5376
16, 47078, Pitch_bend_c, 11, 5888
16, 47088, Pitch_bend_c, 11, 6272
16, 47095, Pitch_bend_c, 11, 6656
16, 47104, Pitch_bend_c, 11, 7168
16, 47114, Pitch_bend_c, 11, 7424
16, 47121, Pitch_bend_c, 11, 7808
16, 47130, Pitch_bend_c, 11, 8192
16, 47511, Note_on_c, 11, 40, 88
16, 47579, Note_on_c, 11, 38, 0
16, 47745, Note_on_c, 11, 38, 92
16, 47776, Note_on_c, 11, 40, 0
16, 47893, Note_on_c, 11, 38, 0
16, 48005, Note_on_c, 11, 38, 94
16, 48487, Note_on_c, 11, 36, 87
16, 48501, Note_on_c, 11, 38, 0
16, 48782, Note_on_c, 11, 38, 92
16, 48850, Note_on_c, 11, 36, 0
16, 49227, Note_on_c, 11, 40, 90
16, 49266, Note_on_c, 11, 38, 0
16, 49671, Note_on_c, 11, 38, 85
16, 49681, Note_on_c, 11, 40, 0
16, 49908, Note_on_c, 11, 38, 0
16, 49933, Note_on_c, 11, 33, 82
16, 49973, Note_on_c, 11, 42, 64
16, 50338, Note_on_c, 11, 37, 79
16, 50376, Note_on_c, 11, 42, 0
16, 50689, Note_on_c, 11, 40, 82
16, 50703, Note_on_c, 11, 33, 0
16, 50813, Note_on_c, 11, 37, 0
16, 51365, Note_on_c, 11, 37, 83
16, 51403, Note_on_c, 11, 40, 0
16, 51864, Note_on_c, 11, 37, 0
16, 51864, Note_on_c, 11, 33, 86
16, 52252, Note_on_c, 11, 37, 87
16, 52329, Note_on_c, 11, 33, 0
16, 52582, Note_on_c, 11, 33, 87
16, 52610, Note_on_c, 11, 37, 0
16, 53296, Note_on_c, 11, 31, 96
16, 53322, Note_on_c, 11, 33, 0
16, 53766, Note_on_c, 11, 38, 89
16, 53780, Note_on_c, 11, 31, 0
16, 54199, Pitch_bend_c, 11, 8064
16, 54208, Pitch_bend_c, 11, 7936
16, 54225, Pitch_bend_c, 11, 7680
16, 54234, Pitch_bend_c, 11, 7552
16, 54241, Pitch_bend_c, 11, 7424
16, 54260, Pitch_bend_c, 11, 7168
16, 54269, Pitch_bend_c, 11, 7040
16, 54286, Pitch_bend_c, 11, 6912
16, 54295, Pitch_bend_c, 11, 6784
16, 54302, Pitch_bend_c, 11, 6656
16, 54328, Pitch_bend_c, 11, 6528
16, 54344, Pitch_bend_c, 11, 6400
16, 54354, Pitch_bend_c, 11, 6272
16, 54361, Pitch_bend_c, 11, 6144
16, 54379, Pitch_bend_c, 11, 5888
16, 54396, Pitch_bend_c, 11, 5760
16, 54414, Pitch_bend_c, 11, 5632
16, 54421, Pitch_bend_c, 11, 5504
16, 54431, Pitch_bend_c, 11, 5376
16, 54440, Pitch_bend_c, 11, 5248
16, 54449, Pitch_bend_c, 11, 5120
16, 54456, Pitch_bend_c, 11, 4864
16, 54466, Pitch_bend_c, 11, 4736
16, 54475, Pitch_bend_c, 11, 4480
16, 54485, Pitch_bend_c, 11, 4352
16, 54492, Pitch_bend_c, 11, 4224
16, 54501, Pitch_bend_c, 11, 3968
16, 54510, Pitch_bend_c, 11, 3712
16, 54520, Pitch_bend_c, 11, 3456
16, 54527, Pitch_bend_c, 11, 3328
16, 54536, Pitch_bend_c, 11, 3200
16, 54545, Pitch_bend_c, 11, 2944
16, 54562, Pitch_bend_c, 11, 2816
16, 54571, Pitch_bend_c, 11, 2688
16, 54578, Pitch_bend_c, 11, 2432
16, 54588, Pitch_bend_c, 11, 2304
16, 54597, Pitch_bend_c, 11, 1920
16, 54606, Pitch_bend_c, 11, 1792
16, 54613, Pitch_bend_c, 11, 1536
16, 54623, Pitch_bend_c, 11, 1280
16, 54632, Pitch_bend_c, 11, 1024
16, 54641, Pitch_bend_c, 11, 896
16, 54648, Pitch_bend_c, 11, 768
16, 54658, Pitch_bend_c, 11, 640
16, 54667, Pitch_bend_c, 11, 384
16, 54676, Pitch_bend_c, 11, 256
16, 54693, Pitch_bend_c, 11, 128
16, 54700, Pitch_bend_c, 11, 0
16, 54859, Pitch_bend_c, 11, 256
16, 54868, Pitch_bend_c, 11, 512
16, 54875, Pitch_bend_c, 11, 768
16, 54885, Pitch_bend_c, 11, 1152
16, 54894, Pitch_bend_c, 11, 1536
16, 54903, Pitch_bend_c, 11, 1920
16, 54910, Pitch_bend_c, 11, 2304
16, 54920, Pitch_bend_c, 11, 2560
16, 54929, Pitch_bend_c, 11, 2688
16, 54939, Pitch_bend_c, 11, 2944
16, 54946, Pitch_bend_c, 11, 3072
16, 54955, Pitch_bend_c, 11, 3200
16, 54964, Pitch_bend_c, 11, 3456
16, 54971, Pitch_bend_c, 11, 3712
16, 54981, Pitch_bend_c, 11, 4224
16, 54990, Pitch_bend_c, 11, 4864
16, 54999, Pitch_bend_c, 11, 5632
16, 55009, Pitch_bend_c, 11, 6272
16, 55018, Pitch_bend_c, 11, 6912
16, 55025, Pitch_bend_c, 11, 7296
16, 55034, Pitch_bend_c, 11, 7680
16, 55044, Pitch_bend_c, 11, 8192
16, 55381, Note_on_c, 11, 38, 0
16, 55425, Note_on_c, 11, 36, 90
16, 55697, Note_on_c, 11, 38, 85
16, 55704, Note_on_c, 11, 36, 0
16, 56843, Note_on_c, 11, 40, 94
16, 56846, Note_on_c, 11, 38, 0
16, 57634, Note_on_c, 11, 40, 0
16, 57646, Note_on_c, 11, 38, 94
16, 58423, Note_on_c, 11, 42, 81
16, 58725, Note_on_c, 11, 42, 0
16, 58755, Note_on_c, 11, 45, 84
16, 58931, Note_on_c, 11, 38, 0
16, 59080, Note_on_c, 11, 38, 88
16, 59466, Note_on_c, 11, 38, 0
16, 59558, Note_on_c, 11, 40, 91
16, 59560, Note_on_c, 11, 38, 87
16, 59569, Note_on_c, 11, 38, 0
16, 59604, Note_on_c, 11, 45, 0
16, 59948, Note_on_c, 11, 43, 87
16, 60295, Note_on_c, 11, 48, 88
16, 60337, Note_on_c, 11, 43, 0
16, 60480, Note_on_c, 11, 40, 0
16, 61006, Note_on_c, 11, 40, 87
16, 61453, Note_on_c, 11, 43, 88
16, 61491, Note_on_c, 11, 40, 0
16, 61502, Note_on_c, 11, 48, 0
16, 61886, Note_on_c, 11, 38, 92
16, 62136, Note_on_c, 11, 43, 0
16, 62235, Note_on_c, 11, 43, 90
16, 62331, Note_on_c, 11, 38, 0
16, 62586, Note_on_c, 11, 43, 0
16, 62651, Note_on_c, 11, 43, 92
16, 62834, Note_on_c, 11, 43, 0
16, 62913, Note_on_c, 11, 41, 94
16, 63119, Note_on_c, 11, 38, 86
16, 63145, Note_on_c, 11, 41, 0
16, 63353, Note_on_c, 11, 38, 0
16, 63419, Note_on_c, 11, 38, 103
16, 64455, Note_on_c, 11, 38, 0
16, 64460, Note_on_c, 11, 36, 97
16, 64785, Note_on_c, 11, 38, 90
16, 64837, Note_on_c, 11, 36, 0
16, 65057, Note_on_c, 11, 36, 92
16, 65066, Note_on_c, 11, 38, 0
16, 65293, Note_on_c, 11, 38, 90
16, 65345, Note_on_c, 11, 36, 0
16, 65719, Note_on_c, 11, 33, 90
16, 66054, Note_on_c, 11, 38, 0
16, 66082, Note_on_c, 11, 36, 86
16, 66543, Note_on_c, 11, 38, 91
16, 66578, Note_on_c, 11, 36, 0
16, 66589, Note_on_c, 11, 33, 0
16, 67224, Note_on_c, 11, 36, 92
16, 67242, Note_on_c, 11, 38, 0
16, 67598, Note_on_c, 11, 31, 86
16, 67652, Note_on_c, 11, 36, 0
16, 67933, Note_on_c, 11, 36, 92
16, 67982, Note_on_c, 11, 31, 0
16, 68443, Note_on_c, 11, 38, 87
16, 68649, Note_on_c, 11, 36, 0
16, 68869, Note_on_c, 11, 38, 0
16, 68892, Note_on_c, 11, 40, 83
16, 69175, Note_on_c, 11, 31, 87
16, 69180, Note_on_c, 11, 40, 0
16, 69491, Note_on_c, 11, 35, 86
16, 69847, Note_on_c, 11, 38, 92
16, 69926, Note_on_c, 11, 35, 0
16, 70282, Note_on_c, 11, 41, 90
16, 70333, Note_on_c, 11, 38, 0
16, 70343, Note_on_c, 11, 31, 0
16, 70574, Note_on_c, 11, 38, 86
16, 70811, Note_on_c, 11, 35, 87
16, 70836, Note_on_c, 11, 41, 0
16, 70855, Note_on_c, 11, 38, 0
16, 71063, Note_on_c, 11, 38, 89
16, 71070, Note_on_c, 11, 39, 80
16, 71124, Note_on_c, 11, 39, 0
16, 71141, Note_on_c, 11, 35, 0
16, 71730, Note_on_c, 11, 33, 86
16, 72149, Note_on_c, 11, 38, 0
16, 72472, Note_on_c, 11, 36, 90
16, 72662, Note_on_c, 11, 33, 0
16, 72779, Note_on_c, 11, 33, 90
16, 72840, Note_on_c, 11, 36, 0
16, 72996, Note_on_c, 11, 38, 92
16, 73090, Note_on_c, 11, 33, 0
16, 73340, Note_on_c, 11, 38, 0
16, 73396, Note_on_c, 11, 38, 103
16, 73635, Note_on_c, 11, 38, 0
16, 73696, Note_on_c, 11, 38, 94
16, 74157, Note_on_c, 11, 33, 87
16, 74253, Note_on_c, 11, 38, 0
16, 74431, Note_on_c, 11, 38, 92
16, 74531, Note_on_c, 11, 33, 0
16, 74667, Note_on_c, 11, 40, 88
16, 74751, Note_on_c, 11, 38, 0
16, 74924, Note_on_c, 11, 36, 92
16, 74974, Note_on_c, 11, 40, 0
16, 75236, Note_on_c, 11, 36, 0
16, 75282, Note_on_c, 11, 36, 99
16, 75573, Note_on_c, 11, 36, 0
16, 75619, Note_on_c, 11, 36, 92
16, 76052, Note_on_c, 11, 43, 94
16, 76109, Note_on_c, 11, 36, 0
16, 76324, Note_on_c, 11, 40, 87
16, 76546, Note_on_c, 11, 43, 0
16, 76548, Note_on_c, 11, 36, 91
16, 76579, Note_on_c, 11, 40, 0
16, 76803, Note_on_c, 11, 43, 90
16, 76867, Note_on_c, 11, 36, 0
16, 77204, Note_on_c, 11, 41, 81
16, 77529, Note_on_c, 11, 41, 0
16, 77529, Note_on_c, 11, 38, 89
16, 77990, Note_on_c, 11, 41, 92
16, 78025, Note_on_c, 11, 38, 0
16, 78217, Note_on_c, 11, 41, 0
16, 78257, Note_on_c, 11, 38, 87
16, 78495, Note_on_c, 11, 41, 90
16, 78500, Note_on_c, 11, 38, 0
16, 78753, Note_on_c, 11, 41, 0
16, 78753, Note_on_c, 11, 38, 105
16, 78821, Note_on_c, 11, 43, 0
16, 79169, Note_on_c, 11, 42, 86
16, 79317, Note_on_c, 11, 38, 0
16, 79492, Note_on_c, 11, 36, 87
16, 79504, Note_on_c, 11, 42, 0
16, 79967, Note_on_c, 11, 38, 99
16, 80023, Note_on_c, 11, 36, 0
16, 80426, Note_on_c, 11, 36, 97
16, 80435, Note_on_c, 11, 38, 0
16, 80679, Note_on_c, 11, 38, 103
16, 80725, Note_on_c, 11, 36, 0
16, 81369, Note_on_c, 11, 33, 84
16, 81437, Note_on_c, 11, 38, 0
16, 82092, Note_on_c, 11, 38, 94
16, 82148, Note_on_c, 11, 33, 0
16, 82338, Note_on_c, 11, 33, 90
16, 82366, Note_on_c, 11, 38, 0
16, 82565, Note_on_c, 11, 36, 90
16, 82602, Note_on_c, 11, 33, 0
16, 82906, Note_on_c, 11, 36, 0
16, 82960, Note_on_c, 11, 36, 99
16, 83269, Note_on_c, 11, 38, 90
16, 83386, Note_on_c, 11, 36, 0
16, 83746, Note_on_c, 11, 38, 0
16, 83751, Note_on_c, 11, 40, 86
16, 84039, Note_on_c, 11, 38, 90
16, 84235, Note_on_c, 11, 40, 0
16, 84242, Note_on_c, 11, 38, 0
16, 84242, Note_on_c, 11, 36, 92
16, 84488, Note_on_c, 11, 36, 0
16, 84507, Note_on_c, 11, 33, 78
16, 85181, Note_on_c, 11, 33, 0
16, 85249, Note_on_c, 11, 31, 94
16, 85256, Note_on_c, 11, 33, 92
16, 85265, Note_on_c, 11, 33, 0
16, 85679, Note_on_c, 11, 35, 87
16, 85944, Note_on_c, 11, 38, 87
16, 85993, Note_on_c, 11, 35, 0
16, 86044, Note_on_c, 11, 31, 0
16, 86166, Note_on_c, 11, 35, 86
16, 86213, Note_on_c, 11, 38, 0
16, 86409, Note_on_c, 11, 38, 90
16, 86491, Note_on_c, 11, 35, 0
16, 87565, Note_on_c, 11, 38, 0
16, 87579, Note_on_c, 11, 31, 96
16, 87886, Note_on_c, 11, 33, 90
16, 87930, Note_on_c, 11, 31, 0
16, 88124, Note_on_c, 11, 31, 88
16, 88167, Note_on_c, 11, 33, 0
16, 88344, Note_on_c, 11, 33, 92
16, 88372, Note_on_c, 11, 31, 0
16, 88817, Note_on_c, 11, 37, 85
16, 89138, Note_on_c, 11, 40, 92
16, 89243, Note_on_c, 11, 37, 0
16, 89421, Note_on_c, 11, 33, 0
16, 89573, Note_on_c, 11, 37, 92
16, 89973, Note_on_c, 11, 33, 90
16, 90010, Note_on_c, 11, 37, 0
16, 90022, Note_on_c, 11, 40, 0
16, 90240, Note_on_c, 11, 33, 0
16, 90240, Note_on_c, 11, 31, 90
16, 90570, Note_on_c, 11, 33, 90
16, 90642, Note_on_c, 11, 31, 0
16, 90872, Note_on_c, 11, 33, 0
16, 90939, Note_on_c, 11, 33, 94
16, 91400, Note_on_c, 11, 33, 0
16, 91400, Note_on_c, 11, 31, 87
16, 91667, Note_on_c, 11, 33, 92
16, 91744, Note_on_c, 11, 31, 0
16, 92140, Note_on_c, 11, 38, 92
16, 92285, Note_on_c, 11, 33, 0
16, 92545, Pitch_bend_c, 11, 7936
16, 92552, Pitch_bend_c, 11, 7808
16, 92561, Pitch_bend_c, 11, 7680
16, 92570, Pitch_bend_c, 11, 7552
16, 92580, Pitch_bend_c, 11, 7296
16, 92587, Pitch_bend_c, 11, 7168
16, 92596, Pitch_bend_c, 11, 7040
16, 92606, Pitch_bend_c, 11, 6912
16, 92615, Pitch_bend_c, 11, 6656
16, 92622, Pitch_bend_c, 11, 6400
16, 92631, Pitch_bend_c, 11, 6272
16, 92641, Pitch_bend_c, 11, 6016
16, 92650, Pitch_bend_c, 11, 5760
16, 92657, Pitch_bend_c, 11, 5504
16, 92666, Pitch_bend_c, 11, 5248
16, 92676, Pitch_bend_c, 11, 4992
16, 92685, Pitch_bend_c, 11, 4864
16, 92701, Pitch_bend_c, 11, 4736
16, 92751, Pitch_bend_c, 11, 4608
16, 92760, Pitch_bend_c, 11, 4480
16, 92769, Pitch_bend_c, 11, 4224
16, 92776, Pitch_bend_c, 11, 3840
16, 92786, Pitch_bend_c, 11, 3584
16, 92795, Pitch_bend_c, 11, 3200
16, 92804, Pitch_bend_c, 11, 2944
16, 92811, Pitch_bend_c, 11, 2688
16, 92821, Pitch_bend_c, 11, 2432
16, 92830, Pitch_bend_c, 11, 2304
16, 92840, Pitch_bend_c, 11, 2176
16, 92847, Pitch_bend_c, 11, 1920
16, 92856, Pitch_bend_c, 11, 1664
16, 92865, Pitch_bend_c, 11, 1536
16, 92872, Pitch_bend_c, 11, 1024
16, 92882, Pitch_bend_c, 11, 768
16, 92891, Pitch_bend_c, 11, 512
16, 92900, Pitch_bend_c, 11, 384
16, 92907, Pitch_bend_c, 11, 0
16, 93123, Pitch_bend_c, 11, 256
16, 93132, Pitch_bend_c, 11, 512
16, 93141, Pitch_bend_c, 11, 1024
16, 93151, Pitch_bend_c, 11, 1536
16, 93158, Pitch_bend_c, 11, 2176
16, 93167, Pitch_bend_c, 11, 2944
16, 93176, Pitch_bend_c, 11, 3840
16, 93186, Pitch_bend_c, 11, 4864
16, 93193, Pitch_bend_c, 11, 5888
16, 93202, Pitch_bend_c, 11, 6912
16, 93212, Pitch_bend_c, 11, 7552
16, 93219, Pitch_bend_c, 11, 8192
16, 93586, Note_on_c, 11, 31, 87
16, 93792, Note_on_c, 11, 38, 0
16, 93839, Note_on_c, 11, 33, 92
16, 93897, Note_on_c, 11, 31, 0
16, 94068, Note_on_c, 11, 33, 0
16, 94091, Note_on_c, 11, 38, 94
16, 94578, Pitch_bend_c, 11, 8064
16, 94585, Pitch_bend_c, 11, 7936
16, 94595, Pitch_bend_c, 11, 7680
16, 94604, Pitch_bend_c, 11, 7552
16, 94613, Pitch_bend_c, 11, 7424
16, 94620, Pitch_bend_c, 11, 7296
16, 94630, Pitch_bend_c, 11, 7168
16, 94639, Pitch_bend_c, 11, 7040
16, 94646, Pitch_bend_c, 11, 6784
16, 94655, Pitch_bend_c, 11, 6656
16, 94665, Pitch_bend_c, 11, 6528
16, 94674, Pitch_bend_c, 11, 6272
16, 94681, Pitch_bend_c, 11, 6016
16, 94690, Pitch_bend_c, 11, 5632
16, 94700, Pitch_bend_c, 11, 5248
16, 94709, Pitch_bend_c, 11, 4992
16, 94719, Pitch_bend_c, 11, 4608
16, 94726, Pitch_bend_c, 11, 4224
16, 94735, Pitch_bend_c, 11, 3584
16, 94744, Pitch_bend_c, 11, 2944
16, 94751, Pitch_bend_c, 11, 2432
16, 94761, Pitch_bend_c, 11, 1792
16, 94770, Pitch_bend_c, 11, 1408
16, 94777, Pitch_bend_c, 11, 896
16, 94786, Pitch_bend_c, 11, 640
16, 94796, Pitch_bend_c, 11, 128
16, 94805, Pitch_bend_c, 11, 0
16, 94988, Pitch_bend_c, 11, 384
16, 94995, Pitch_bend_c, 11, 896
16, 95004, Pitch_bend_c, 11, 1664
16, 95013, Pitch_bend_c, 11, 2560
16, 95023, Pitch_bend_c, 11, 3712
16, 95032, Pitch_bend_c, 11, 4992
16, 95039, Pitch_bend_c, 11, 6272
16, 95048, Pitch_bend_c, 11, 7296
16, 95058, Pitch_bend_c, 11, 8192
16, 95304, Note_on_c, 11, 33, 96
16, 95376, Note_on_c, 11, 38, 0
16, 95521, Note_on_c, 11, 31, 88
16, 95570, Note_on_c, 11, 33, 0
16, 95776, Note_on_c, 11, 33, 88
16, 95783, Note_on_c, 11, 31, 0
16, 96020, Note_on_c, 11, 33, 0
16, 96027, Note_on_c, 11, 35, 86
16, 96265, Note_on_c, 11, 33, 94
16, 96298, Note_on_c, 11, 35, 0
16, 96726, Note_on_c, 11, 37, 88
16, 96953, Note_on_c, 11, 33, 0
16, 96991, Note_on_c, 11, 40, 87
16, 97000, Note_on_c, 11, 33, 61
16, 97033, Note_on_c, 11, 37, 0
16, 97063, Note_on_c, 11, 33, 0
16, 97346, Note_on_c, 11, 37, 96
16, 97709, Note_on_c, 11, 37, 0
16, 97714, Note_on_c, 11, 33, 95
16, 97737, Note_on_c, 11, 40, 0
16, 97889, Note_on_c, 11, 33, 0
16, 97955, Note_on_c, 11, 33, 99
16, 98299, Note_on_c, 11, 37, 90
16, 98378, Note_on_c, 11, 33, 0
16, 98631, Note_on_c, 11, 37, 0
16, 98633, Note_on_c, 11, 40, 86
16, 99071, Note_on_c, 11, 33, 94
16, 99094, Note_on_c, 11, 40, 0
16, 99349, Note_on_c, 11, 37, 86
16, 99424, Note_on_c, 11, 33, 0
16, 99581, Note_on_c, 11, 35, 88
16, 99654, Note_on_c, 11, 37, 0
16, 99817, Note_on_c, 11, 35, 0
16, 99862, Note_on_c, 11, 38, 86
16, 100384, Pitch_bend_c, 11, 8064
16, 100391, Pitch_bend_c, 11, 7936
16, 100400, Pitch_bend_c, 11, 7808
16, 100409, Pitch_bend_c, 11, 7680
16, 100426, Pitch_bend_c, 11, 7424
16, 100433, Pitch_bend_c, 11, 7296
16, 100442, Pitch_bend_c, 11, 7168
16, 100452, Pitch_bend_c, 11, 7040
16, 100468, Pitch_bend_c, 11, 6912
16, 100487, Pitch_bend_c, 11, 6784
16, 100494, Pitch_bend_c, 11, 6656
16, 100512, Pitch_bend_c, 11, 6528
16, 100519, Pitch_bend_c, 11, 6400
16, 100529, Pitch_bend_c, 11, 6272
16, 100536, Pitch_bend_c, 11, 6144
16, 100554, Pitch_bend_c, 11, 5888
16, 100571, Pitch_bend_c, 11, 5760
16, 100613, Pitch_bend_c, 11, 5632
16, 100629, Pitch_bend_c, 11, 5376
16, 100639, Pitch_bend_c, 11, 5248
16, 100648, Pitch_bend_c, 11, 5120
16, 100657, Pitch_bend_c, 11, 4864
16, 100674, Pitch_bend_c, 11, 4736
16, 100681, Pitch_bend_c, 11, 4608
16, 100690, Pitch_bend_c, 11, 4480
16, 100709, Pitch_bend_c, 11, 4352
16, 100725, Pitch_bend_c, 11, 4224
16, 100735, Pitch_bend_c, 11, 3968
16, 100742, Pitch_bend_c, 11, 3840
16, 100751, Pitch_bend_c, 11, 3584
16, 100760, Pitch_bend_c, 11, 3456
16, 100770, Pitch_bend_c, 11, 3328
16, 100777, Pitch_bend_c, 11, 3072
16, 100786, Pitch_bend_c, 11, 2816
16, 100796, Pitch_bend_c, 11, 2432
16, 100805, Pitch_bend_c, 11, 2048
16, 100812, Pitch_bend_c, 11, 1664
16, 100821, Pitch_bend_c, 11, 1408
16, 100828, Pitch_bend_c, 11, 896
16, 100838, Pitch_bend_c, 11, 640
16, 100847, Pitch_bend_c, 11, 384
16, 100856, Pitch_bend_c, 11, 256
16, 100866, Pitch_bend_c, 11, 0
16, 100999, Note_on_c, 11, 36, 92
16, 101088, Pitch_bend_c, 11, 128
16, 101114, Pitch_bend_c, 11, 384
16, 101123, Pitch_bend_c, 11, 512
16, 101132, Pitch_bend_c, 11, 768
16, 101139, Pitch_bend_c, 11, 1152
16, 101149, Pitch_bend_c, 11, 1408
16, 101158, Pitch_bend_c, 11, 1664
16, 101165, Pitch_bend_c, 11, 1792
16, 101182, Pitch_bend_c, 11, 1920
16, 101266, Pitch_bend_c, 11, 2048
16, 101282, Pitch_bend_c, 11, 2176
16, 101292, Pitch_bend_c, 11, 2304
16, 101301, Pitch_bend_c, 11, 2432
16, 101308, Pitch_bend_c, 11, 2560
16, 101317, Pitch_bend_c, 11, 2688
16, 101327, Pitch_bend_c, 11, 2816
16, 101336, Pitch_bend_c, 11, 2944
16, 101343, Pitch_bend_c, 11, 3072
16, 101352, Pitch_bend_c, 11, 3200
16, 101362, Pitch_bend_c, 11, 3456
16, 101371, Pitch_bend_c, 11, 3584
16, 101378, Pitch_bend_c, 11, 3840
16, 101388, Pitch_bend_c, 11, 4096
16, 101397, Pitch_bend_c, 11, 4352
16, 101406, Pitch_bend_c, 11, 4736
16, 101413, Pitch_bend_c, 11, 5120
16, 101423, Pitch_bend_c, 11, 5504
16, 101432, Pitch_bend_c, 11, 5760
16, 101474, Pitch_bend_c, 11, 5632
16, 101481, Pitch_bend_c, 11, 5504
16, 101490, Pitch_bend_c, 11, 5376
16, 101507, Pitch_bend_c, 11, 5248
16, 101533, Pitch_bend_c, 11, 5120
16, 101549, Pitch_bend_c, 11, 4864
16, 101558, Pitch_bend_c, 11, 4736
16, 101568, Pitch_bend_c, 11, 4480
16, 101577, Pitch_bend_c, 11, 4224
16, 101584, Pitch_bend_c, 11, 4096
16, 101593, Pitch_bend_c, 11, 3840
16, 101603, Pitch_bend_c, 11, 3584
16, 101612, Pitch_bend_c, 11, 3328
16, 101622, Pitch_bend_c, 11, 3072
16, 101629, Pitch_bend_c, 11, 2688
16, 101638, Pitch_bend_c, 11, 2432
16, 101645, Pitch_bend_c, 11, 2048
16, 101654, Pitch_bend_c, 11, 1792
16, 101664, Pitch_bend_c, 11, 1536
16, 101680, Pitch_bend_c, 11, 1408
16, 101755, Pitch_bend_c, 11, 1152
16, 101764, Pitch_bend_c, 11, 1024
16, 101774, Pitch_bend_c, 11, 896
16, 101783, Pitch_bend_c, 11, 640
16, 101790, Pitch_bend_c, 11, 384
16, 101799, Pitch_bend_c, 11, 256
16, 101891, Pitch_bend_c, 11, 128
16, 101900, Pitch_bend_c, 11, 0
16, 102230, Pitch_bend_c, 11, 256
16, 102239, Pitch_bend_c, 11, 1024
16, 102246, Pitch_bend_c, 11, 1920
16, 102256, Pitch_bend_c, 11, 2432
16, 102265, Pitch_bend_c, 11, 2816
16, 102331, Pitch_bend_c, 11, 2944
16, 102340, Pitch_bend_c, 11, 3456
16, 102349, Pitch_bend_c, 11, 4096
16, 102356, Pitch_bend_c, 11, 4992
16, 102366, Pitch_bend_c, 11, 6144
16, 102375, Pitch_bend_c, 11, 7168
16, 102384, Pitch_bend_c, 11, 7936
16, 102394, Pitch_bend_c, 11, 8192
16, 102894, Note_on_c, 11, 36, 0
16, 102894, Note_on_c, 11, 31, 92
16, 102934, Note_on_c, 11, 38, 0
16, 103220, Note_on_c, 11, 33, 94
16, 103288, Note_on_c, 11, 31, 0
16, 103449, Note_on_c, 11, 31, 90
16, 103508, Note_on_c, 11, 33, 0
16, 103676, Note_on_c, 11, 38, 96
16, 103749, Note_on_c, 11, 31, 0
16, 104109, Note_on_c, 11, 38, 0
16, 104151, Note_on_c, 11, 38, 90
16, 104832, Note_on_c, 11, 33, 86
16, 105057, Note_on_c, 11, 38, 0
16, 105143, Note_on_c, 11, 38, 87
16, 105347, Note_on_c, 11, 33, 0
16, 105394, Note_on_c, 11, 40, 90
16, 105422, Note_on_c, 11, 38, 0
16, 105625, Note_on_c, 11, 38, 86
16, 105731, Note_on_c, 11, 40, 0
16, 106014, Note_on_c, 11, 36, 87
16, 106121, Note_on_c, 11, 38, 0
16, 106306, Note_on_c, 11, 36, 0
16, 106353, Note_on_c, 11, 36, 94
16, 106821, Note_on_c, 11, 36, 0
16, 106835, Note_on_c, 11, 38, 91
16, 106847, Note_on_c, 11, 36, 73
16, 106938, Note_on_c, 11, 36, 0
16, 107081, Note_on_c, 11, 40, 94
16, 107099, Note_on_c, 11, 38, 0
16, 107434, Note_on_c, 11, 40, 0
16, 107560, Note_on_c, 11, 43, 96
16, 107928, Note_on_c, 11, 38, 83
16, 108237, Note_on_c, 11, 43, 0
16, 108276, Note_on_c, 11, 41, 86
16, 108752, Note_on_c, 11, 43, 88
16, 108857, Note_on_c, 11, 41, 0
16, 108997, Note_on_c, 11, 38, 0
16, 109442, Note_on_c, 11, 45, 96
16, 109477, Note_on_c, 11, 38, 78
16, 109486, Note_on_c, 11, 43, 0
16, 109559, Note_on_c, 11, 38, 0
16, 109858, Note_on_c, 11, 38, 84
16, 110141, Note_on_c, 11, 45, 0
16, 110198, Note_on_c, 11, 42, 84
16, 110514, Note_on_c, 11, 38, 0
16, 110642, Note_on_c, 11, 38, 88
16, 110719, Note_on_c, 11, 42, 0
16, 111066, Note_on_c, 11, 42, 88
16, 111365, Note_on_c, 11, 50, 92
16, 111517, Note_on_c, 11, 38, 0
16, 111719, Note_on_c, 11, 38, 74
16, 111784, Note_on_c, 11, 42, 0
16, 112098, Note_on_c, 11, 42, 87
16, 112517, Note_on_c, 11, 50, 0
16, 112561, Note_on_c, 11, 45, 92
16, 112664, Note_on_c, 11, 42, 0
16, 112823, Note_on_c, 11, 42, 92
16, 112900, Note_on_c, 11, 38, 0
16, 112996, Note_on_c, 11, 45, 0
16, 113055, Note_on_c, 11, 38, 99
16, 113176, Note_on_c, 11, 42, 0
16, 113286, Note_on_c, 11, 48, 85
16, 113450, Note_on_c, 11, 38, 0
16, 113890, Note_on_c, 11, 47, 86
16, 114131, Note_on_c, 11, 45, 88
16, 114274, Note_on_c, 11, 45, 0
16, 114293, Note_on_c, 11, 47, 0
16, 114445, Note_on_c, 11, 43, 87
16, 114819, Note_on_c, 11, 43, 0
16, 114950, Note_on_c, 11, 47, 88
16, 115224, Note_on_c, 11, 43, 119
16, 115254, Note_on_c, 11, 47, 0
16, 115282, Note_on_c, 11, 48, 0
16, 115624, Note_on_c, 11, 38, 92
16, 115666, Note_on_c, 11, 43, 0
16, 115954, Note_on_c, 11, 41, 108
16, 115998, Note_on_c, 11, 38, 0
16, 116406, Note_on_c, 11, 41, 0
16, 116406, Note_on_c, 11, 38, 93
16, 116661, Note_on_c, 11, 41, 108
16, 116698, Note_on_c, 11, 38, 0
16, 116890, Note_on_c, 11, 38, 90
16, 116918, Note_on_c, 11, 41, 0
16, 117061, Note_on_c, 11, 38, 0
16, 117136, Note_on_c, 11, 38, 99
16, 117534, Note_on_c, 11, 45, 86
16, 117735, Note_on_c, 11, 38, 0
16, 117889, Note_on_c, 11, 36, 103
16, 118058, Note_on_c, 11, 45, 0
16, 118350, Note_on_c, 11, 38, 99
16, 118390, Note_on_c, 11, 36, 0
16, 118785, Note_on_c, 11, 38, 0
16, 118785, Note_on_c, 11, 36, 91
16, 119059, Note_on_c, 11, 38, 103
16, 119113, Note_on_c, 11, 36, 0
16, 119445, Note_on_c, 11, 33, 88
16, 119654, Note_on_c, 11, 38, 0
16, 119771, Note_on_c, 11, 38, 94
16, 120040, Note_on_c, 11, 33, 0
16, 120218, Note_on_c, 11, 33, 90
16, 120267, Note_on_c, 11, 38, 0
16, 120484, Note_on_c, 11, 38, 92
16, 120587, Note_on_c, 11, 33, 0
16, 120735, Note_on_c, 11, 40, 90
16, 120774, Note_on_c, 11, 38, 0
16, 120983, Note_on_c, 11, 36, 96
16, 120990, Note_on_c, 11, 40, 0
16, 120999, Note_on_c, 11, 42, 37
16, 121041, Note_on_c, 11, 42, 0
16, 121338, Note_on_c, 11, 38, 88
16, 121530, Note_on_c, 11, 36, 0
16, 121699, Note_on_c, 11, 36, 103
16, 121743, Note_on_c, 11, 38, 0
16, 122127, Note_on_c, 11, 40, 87
16, 122244, Note_on_c, 11, 36, 0
16, 122401, Note_on_c, 11, 38, 86
16, 122632, Note_on_c, 11, 38, 0
16, 122639, Note_on_c, 11, 36, 94
16, 122672, Note_on_c, 11, 40, 0
16, 122909, Note_on_c, 11, 31, 90
16, 122923, Note_on_c, 11, 36, 0
16, 123238, Note_on_c, 11, 35, 90
16, 123639, Note_on_c, 11, 38, 90
16, 123653, Note_on_c, 11, 40, 78
16, 123699, Note_on_c, 11, 35, 0
16, 123795, Note_on_c, 11, 40, 0
16, 124067, Note_on_c, 11, 31, 0
16, 124095, Note_on_c, 11, 35, 94
16, 124172, Note_on_c, 11, 38, 0
16, 124369, Note_on_c, 11, 31, 88
16, 124420, Note_on_c, 11, 35, 0
16, 124584, Note_on_c, 11, 35, 90
16, 124825, Note_on_c, 11, 38, 94
16, 124919, Note_on_c, 11, 31, 0
16, 124951, Note_on_c, 11, 35, 0
16, 125181, Note_on_c, 11, 33, 86
16, 125377, Note_on_c, 11, 38, 0
16, 125543, Note_on_c, 11, 38, 94
16, 125628, Note_on_c, 11, 33, 0
16, 125988, Note_on_c, 11, 33, 87
16, 126037, Note_on_c, 11, 38, 0
16, 126248, Note_on_c, 11, 36, 94
16, 126304, Note_on_c, 11, 33, 0
16, 126482, Note_on_c, 11, 33, 88
16, 126500, Note_on_c, 11, 36, 0
16, 126716, Note_on_c, 11, 38, 94
16, 126912, Note_on_c, 11, 33, 0
16, 126978, Note_on_c, 11, 38, 0
16, 127081, Note_on_c, 11, 38, 92
16, 127322, Note_on_c, 11, 38, 0
16, 127415, Note_on_c, 11, 38, 96
16, 127883, Note_on_c, 11, 38, 0
16, 127883, Note_on_c, 11, 33, 94
16, 128131, Note_on_c, 11, 36, 92
16, 128162, Note_on_c, 11, 33, 0
16, 128370, Note_on_c, 11, 36, 0
16, 128375, Note_on_c, 11, 33, 85
16, 128642, Note_on_c, 11, 36, 97
16, 128686, Note_on_c, 11, 33, 0
16, 128988, Note_on_c, 11, 36, 0
16, 129042, Note_on_c, 11, 36, 99
16, 129395, Note_on_c, 11, 43, 94
16, 129461, Note_on_c, 11, 36, 0
16, 129872, Note_on_c, 11, 36, 88
16, 129950, Note_on_c, 11, 43, 0
16, 130160, Note_on_c, 11, 40, 88
16, 130230, Note_on_c, 11, 36, 0
16, 130387, Note_on_c, 11, 38, 88
16, 131073, Note_on_c, 11, 31, 82
16, 131300, Note_on_c, 11, 35, 90
16, 131330, Note_on_c, 11, 40, 0
16, 131335, Note_on_c, 11, 38, 0
16, 131765, Note_on_c, 11, 38, 88
16, 131808, Note_on_c, 11, 35, 0
16, 131819, Note_on_c, 11, 31, 0
16, 132027, Note_on_c, 11, 35, 88
16, 132063, Note_on_c, 11, 38, 0
16, 132247, Note_on_c, 11, 31, 86
16, 132453, Note_on_c, 11, 35, 0
16, 132495, Note_on_c, 11, 38, 94
16, 132570, Note_on_c, 11, 31, 0
16, 132889, Note_on_c, 11, 33, 88
16, 133155, Note_on_c, 11, 38, 0
16, 133265, Note_on_c, 11, 38, 94
16, 133455, Note_on_c, 11, 33, 0
16, 133724, Note_on_c, 11, 33, 94
16, 133761, Note_on_c, 11, 38, 0
16, 133958, Note_on_c, 11, 38, 94
16, 134038, Note_on_c, 11, 33, 0
16, 134176, Note_on_c, 11, 33, 86
16, 134220, Note_on_c, 11, 38, 0
16, 134389, Note_on_c, 11, 38, 88
16, 134433, Note_on_c, 11, 33, 0
16, 134627, Note_on_c, 11, 33, 88
16, 134686, Note_on_c, 11, 38, 0
16, 135313, Note_on_c, 11, 33, 0
16, 135388, Note_on_c, 11, 33, 92
16, 135704, Note_on_c, 11, 37, 84
16, 135940, Note_on_c, 11, 33, 0
16, 136059, Note_on_c, 11, 33, 92
16, 136242, Note_on_c, 11, 37, 0
16, 136254, Note_on_c, 11, 33, 0
16, 136324, Note_on_c, 11, 33, 103
16, 136712, Note_on_c, 11, 37, 85
16, 137033, Note_on_c, 11, 37, 0
16, 137119, Note_on_c, 11, 37, 86
16, 137295, Note_on_c, 11, 33, 0
16, 137508, Note_on_c, 11, 33, 94
16, 137562, Note_on_c, 11, 37, 0
16, 137786, Note_on_c, 11, 37, 108
16, 137847, Note_on_c, 11, 33, 0
16, 138011, Note_on_c, 11, 33, 90
16, 138039, Note_on_c, 11, 37, 0
16, 138238, Note_on_c, 11, 38, 94
16, 138299, Note_on_c, 11, 33, 0
16, 138685, Note_on_c, 11, 38, 0
16, 138727, Note_on_c, 11, 38, 99
16, 138973, Note_on_c, 11, 38, 0
16, 139040, Note_on_c, 11, 38, 108
16, 139069, Note_on_c, 11, 42, 74
16, 139176, Note_on_c, 11, 42, 0
16, 139293, Note_on_c, 11, 38, 0
16, 139415, Note_on_c, 11, 50, 93
16, 139415, Note_on_c, 11, 48, 93
16, 139635, Note_on_c, 11, 48, 0
16, 139892, Note_on_c, 11, 48, 88
16, 140138, Note_on_c, 11, 45, 80
16, 140416, Note_on_c, 11, 45, 0
16, 140501, Note_on_c, 11, 47, 92
16, 140641, Note_on_c, 11, 48, 0
16, 140896, Note_on_c, 11, 45, 119
16, 141322, Note_on_c, 11, 45, 0
16, 141345, Note_on_c, 11, 47, 0
16, 141348, Note_on_c, 11, 43, 108
16, 141605, Note_on_c, 11, 45, 103
16, 141629, Note_on_c, 11, 47, 73
16, 141636, Note_on_c, 11, 43, 0
16, 141846, Note_on_c, 11, 43, 119
16, 141886, Note_on_c, 11, 50, 0
16, 141898, Note_on_c, 11, 47, 0
16, 141900, Note_on_c, 11, 45, 0
16, 141933, Note_on_c, 11, 43, 0
16, 142080, Note_on_c, 11, 33, 119
16, 142120, Note_on_c, 11, 42, 78
16, 142139, Note_on_c, 11, 42, 0
16, 142480, Note_on_c, 11, 37, 85
16, 142822, Note_on_c, 11, 40, 94
16, 142831, Note_on_c, 11, 37, 0
16, 143016, Note_on_c, 11, 33, 0
16, 143362, Pitch_bend_c, 11, 7936
16, 143379, Pitch_bend_c, 11, 7808
16, 143388, Pitch_bend_c, 11, 7680
16, 143405, Pitch_bend_c, 11, 7552
16, 143414, Pitch_bend_c, 11, 7424
16, 143430, Pitch_bend_c, 11, 7296
16, 143456, Pitch_bend_c, 11, 7168
16, 143465, Pitch_bend_c, 11, 7040
16, 143472, Pitch_bend_c, 11, 6912
16, 143491, Pitch_bend_c, 11, 6656
16, 143498, Pitch_bend_c, 11, 6528
16, 143522, Pitch_bend_c, 11, 6400
16, 143620, Note_on_c, 11, 33, 92
16, 143625, Pitch_bend_c, 11, 6656
16, 143634, Pitch_bend_c, 11, 7040
16, 143641, Pitch_bend_c, 11, 7424
16, 143650, Pitch_bend_c, 11, 7936
16, 143660, Pitch_bend_c, 11, 8192
16, 144011, Note_on_c, 11, 37, 90
16, 144067, Note_on_c, 11, 33, 0
16, 144081, Note_on_c, 11, 40, 0
16, 144387, Note_on_c, 11, 33, 92
16, 144408, Note_on_c, 11, 37, 0
16, 144678, Note_on_c, 11, 33, 0
16, 144741, Note_on_c, 11, 31, 108
16, 145192, Note_on_c, 11, 33, 94
16, 145232, Note_on_c, 11, 31, 0
16, 145445, Note_on_c, 11, 35, 85
16, 145487, Note_on_c, 11, 33, 0
16, 145665, Note_on_c, 11, 33, 103
16, 145681, Note_on_c, 11, 35, 0
16, 145761, Note_on_c, 11, 33, 0
16, 145915, Note_on_c, 11, 33, 94
16, 146262, Note_on_c, 11, 26, 87
16, 146669, Note_on_c, 11, 30, 80
16, 147076, Note_on_c, 11, 33, 0
16, 147078, Note_on_c, 11, 26, 0
16, 147170, Note_on_c, 11, 26, 103
16, 147205, Note_on_c, 11, 30, 0
16, 147617, Note_on_c, 11, 30, 94
16, 147853, Note_on_c, 11, 38, 83
16, 148017, Note_on_c, 11, 26, 0
16, 148129, Note_on_c, 11, 30, 0
16, 148206, Note_on_c, 11, 26, 87
16, 148555, Note_on_c, 11, 30, 103
16, 148583, Note_on_c, 11, 38, 0
16, 148665, Note_on_c, 11, 26, 0
16, 149009, Note_on_c, 11, 30, 0
16, 149009, Note_on_c, 11, 26, 88
16, 149280, Note_on_c, 11, 30, 90
16, 149582, Note_on_c, 11, 36, 88
16, 149601, Note_on_c, 11, 26, 0
16, 149631, Note_on_c, 11, 30, 0
16, 149786, Note_on_c, 11, 38, 94
16, 149821, Note_on_c, 11, 36, 0
16, 150921, Note_on_c, 11, 33, 88
16, 150960, Note_on_c, 11, 38, 0
16, 151180, Note_on_c, 11, 36, 84
16, 151283, Note_on_c, 11, 33, 0
16, 151435, Note_on_c, 11, 38, 87
16, 151492, Note_on_c, 11, 36, 0
16, 151688, Note_on_c, 11, 36, 108
16, 151716, Note_on_c, 11, 38, 0
16, 151990, Note_on_c, 11, 36, 0
16, 152044, Note_on_c, 11, 36, 96
16, 152547, Control_c, 11, 1, 28
16, 152563, Control_c, 11, 1, 33
16, 152580, Control_c, 11, 1, 37
16, 152596, Control_c, 11, 1, 41
16, 152615, Control_c, 11, 1, 49
16, 152631, Control_c, 11, 1, 53
16, 152648, Control_c, 11, 1, 57
16, 152664, Control_c, 11, 1, 61
16, 152683, Control_c, 11, 1, 70
16, 152699, Control_c, 11, 1, 74
16, 152715, Control_c, 11, 1, 78
16, 152734, Control_c, 11, 1, 82
16, 152758, Control_c, 11, 1, 86
16, 152966, Control_c, 11, 1, 82
16, 152992, Control_c, 11, 1, 78
16, 153080, Control_c, 11, 1, 74
16, 153116, Control_c, 11, 1, 70
16, 153118, Note_on_c, 11, 38, 92
16, 153141, Control_c, 11, 1, 61
16, 153174, Note_on_c, 11, 36, 0
16, 153200, Control_c, 11, 1, 57
16, 153361, Note_on_c, 11, 40, 91
16, 153467, Note_on_c, 11, 38, 0
16, 153600, Note_on_c, 11, 40, 0
16, 153637, Note_on_c, 11, 31, 94
16, 153979, Note_on_c, 11, 35, 86
16, 154335, Note_on_c, 11, 41, 92
16, 154435, Note_on_c, 11, 35, 0
16, 154484, Note_on_c, 11, 31, 0
16, 154805, Note_on_c, 11, 38, 90
16, 155060, Note_on_c, 11, 35, 90
16, 155112, Note_on_c, 11, 41, 0
16, 155313, Note_on_c, 11, 31, 88
16, 155329, Note_on_c, 11, 38, 0
16, 155355, Note_on_c, 11, 35, 0
16, 155552, Note_on_c, 11, 38, 94
16, 155596, Note_on_c, 11, 31, 0
16, 155853, Note_on_c, 11, 38, 0
16, 155903, Note_on_c, 11, 38, 96
16, 156244, Note_on_c, 11, 33, 96
16, 156258, Note_on_c, 11, 38, 0
16, 156693, Note_on_c, 11, 36, 92
16, 156738, Note_on_c, 11, 33, 0
16, 156958, Note_on_c, 11, 38, 88
16, 156991, Note_on_c, 11, 36, 0
16, 157194, Note_on_c, 11, 33, 92
16, 157234, Note_on_c, 11, 38, 0
16, 157449, Note_on_c, 11, 38, 92
16, 157524, Note_on_c, 11, 33, 0
16, 157805, Note_on_c, 11, 31, 85
16, 158186, Note_on_c, 11, 36, 88
16, 158228, Note_on_c, 11, 38, 0
16, 158231, Note_on_c, 11, 31, 0
16, 158680, Note_on_c, 11, 33, 96
16, 158701, Note_on_c, 11, 36, 0
16, 158914, Note_on_c, 11, 36, 92
16, 159017, Note_on_c, 11, 33, 0
16, 159146, Note_on_c, 11, 38, 94
16, 159171, Note_on_c, 11, 36, 0
16, 159380, Note_on_c, 11, 36, 96
16, 159431, Note_on_c, 11, 38, 0
16, 159719, Note_on_c, 11, 36, 0
16, 159756, Note_on_c, 11, 36, 92
16, 160030, Note_on_c, 11, 36, 0
16, 160082, Note_on_c, 11, 36, 99
16, 160524, Pitch_bend_c, 11, 7936
16, 160531, Pitch_bend_c, 11, 7808
16, 160538, Pitch_bend_c, 11, 7680
16, 160547, Pitch_bend_c, 11, 7424
16, 160557, Pitch_bend_c, 11, 7296
16, 160566, Pitch_bend_c, 11, 7040
16, 160575, Pitch_bend_c, 11, 6912
16, 160583, Pitch_bend_c, 11, 6528
16, 160601, Pitch_bend_c, 11, 6400
16, 160611, Pitch_bend_c, 11, 6272
16, 160627, Pitch_bend_c, 11, 6144
16, 160643, Pitch_bend_c, 11, 6016
16, 160660, Pitch_bend_c, 11, 5888
16, 160669, Pitch_bend_c, 11, 5632
16, 160676, Pitch_bend_c, 11, 5504
16, 160685, Pitch_bend_c, 11, 5248
16, 160695, Pitch_bend_c, 11, 4992
16, 160704, Pitch_bend_c, 11, 4864
16, 160714, Pitch_bend_c, 11, 4736
16, 160721, Pitch_bend_c, 11, 4608
16, 160739, Pitch_bend_c, 11, 4480
16, 160788, Pitch_bend_c, 11, 4608
16, 160798, Pitch_bend_c, 11, 4736
16, 160807, Pitch_bend_c, 11, 4992
16, 160814, Pitch_bend_c, 11, 5248
16, 160824, Pitch_bend_c, 11, 5632
16, 160833, Pitch_bend_c, 11, 6016
16, 160842, Pitch_bend_c, 11, 6400
16, 160849, Pitch_bend_c, 11, 7040
16, 160859, Pitch_bend_c, 11, 7552
16, 160866, Pitch_bend_c, 11, 8192
16, 161299, Note_on_c, 11, 36, 0
16, 161306, Note_on_c, 11, 31, 96
16, 161329, Note_on_c, 11, 36, 79
16, 161352, Note_on_c, 11, 36, 0
16, 161666, Note_on_c, 11, 35, 96
16, 161802, Note_on_c, 11, 31, 0
16, 162017, Note_on_c, 11, 38, 96
16, 162085, Note_on_c, 11, 35, 0
16, 162483, Note_on_c, 11, 31, 88
16, 162681, Note_on_c, 11, 38, 0
16, 162735, Note_on_c, 11, 41, 92
16, 162969, Note_on_c, 11, 38, 90
16, 163054, Note_on_c, 11, 31, 0
16, 163075, Note_on_c, 11, 41, 0
16, 163166, Note_on_c, 11, 35, 94
16, 163201, Note_on_c, 11, 38, 0
16, 163440, Note_on_c, 11, 38, 92
16, 163554, Note_on_c, 11, 35, 0
16, 163830, Note_on_c, 11, 38, 0
16, 163868, Note_on_c, 11, 38, 85
16, 164350, Note_on_c, 11, 33, 90
16, 164390, Note_on_c, 11, 38, 0
16, 164607, Note_on_c, 11, 38, 92
16, 164617, Note_on_c, 11, 33, 0
16, 164902, Note_on_c, 11, 40, 85
16, 164982, Note_on_c, 11, 38, 0
16, 165124, Note_on_c, 11, 38, 92
16, 165225, Note_on_c, 11, 40, 0
16, 165457, Note_on_c, 11, 38, 0
16, 165501, Note_on_c, 11, 38, 87
16, 165787, Note_on_c, 11, 38, 0
16, 165850, Note_on_c, 11, 38, 94
16, 166348, Note_on_c, 11, 40, 92
16, 166451, Note_on_c, 11, 38, 0
16, 166800, Note_on_c, 11, 38, 96
16, 166858, Note_on_c, 11, 40, 0
16, 167074, Note_on_c, 11, 36, 90
16, 167076, Note_on_c, 11, 38, 0
16, 167415, Note_on_c, 11, 40, 86
16, 167731, Note_on_c, 11, 36, 0
16, 167752, Note_on_c, 11, 48, 85
16, 167825, Note_on_c, 11, 40, 0
16, 168213, Note_on_c, 11, 43, 86
16, 168295, Note_on_c, 11, 48, 0
16, 168487, Note_on_c, 11, 40, 88
16, 168562, Note_on_c, 11, 43, 0
16, 168733, Note_on_c, 11, 36, 88
16, 168983, Note_on_c, 11, 47, 90
16, 169056, Note_on_c, 11, 40, 0
16, 169070, Note_on_c, 11, 36, 0
16, 169379, Note_on_c, 11, 38, 87
16, 169744, Note_on_c, 11, 43, 83
16, 169919, Note_on_c, 11, 38, 0
16, 170139, Note_on_c, 11, 43, 0
16, 170223, Note_on_c, 11, 45, 87
16, 170476, Note_on_c, 11, 43, 90
16, 170680, Note_on_c, 11, 38, 85
16, 170726, Note_on_c, 11, 43, 0
16, 170750, Note_on_c, 11, 45, 0
16, 170869, Note_on_c, 11, 42, 88
16, 170925, Note_on_c, 11, 47, 0
16, 170949, Note_on_c, 11, 38, 0
16, 171239, Note_on_c, 11, 38, 87
16, 171288, Note_on_c, 11, 42, 0
16, 171641, Note_on_c, 11, 42, 87
16, 172084, Note_on_c, 11, 45, 96
16, 172147, Note_on_c, 11, 38, 0
16, 172149, Note_on_c, 11, 42, 0
16, 172568, Note_on_c, 11, 42, 90
16, 172631, Note_on_c, 11, 45, 0
16, 172811, Note_on_c, 11, 38, 92
16, 172858, Note_on_c, 11, 42, 0
16, 173172, Note_on_c, 11, 42, 86
16, 173537, Note_on_c, 11, 45, 99
16, 173567, Note_on_c, 11, 42, 0
16, 173584, Note_on_c, 11, 38, 0
16, 174000, Note_on_c, 11, 38, 87
16, 174059, Note_on_c, 11, 45, 0
16, 174253, Note_on_c, 11, 42, 92
16, 174496, Note_on_c, 11, 45, 90
16, 174531, Note_on_c, 11, 38, 0
16, 174559, Note_on_c, 11, 42, 0
16, 174740, Note_on_c, 11, 40, 90
16, 175058, Note_on_c, 11, 45, 0
16, 175105, Note_on_c, 11, 43, 94
16, 175458, Note_on_c, 11, 40, 0
16, 175463, Note_on_c, 11, 48, 91
16, 175523, Note_on_c, 11, 43, 0
16, 175931, Note_on_c, 11, 40, 94
16, 176122, Note_on_c, 11, 48, 0
16, 176181, Note_on_c, 11, 43, 88
16, 176265, Note_on_c, 11, 40, 0
16, 176396, Note_on_c, 11, 47, 90
16, 176478, Note_on_c, 11, 43, 0
16, 176647, Note_on_c, 11, 38, 92
16, 176843, Note_on_c, 11, 47, 0
16, 177005, Note_on_c, 11, 41, 87
16, 177374, Note_on_c, 11, 43, 90
16, 177412, Note_on_c, 11, 41, 0
16, 177463, Note_on_c, 11, 38, 0
16, 177835, Note_on_c, 11, 38, 92
16, 177873, Note_on_c, 11, 43, 0
16, 178093, Note_on_c, 11, 41, 88
16, 178172, Note_on_c, 11, 38, 0
16, 178313, Note_on_c, 11, 43, 90
16, 178392, Note_on_c, 11, 41, 0
16, 178558, Note_on_c, 11, 43, 0
16, 178561, Note_on_c, 11, 38, 93
16, 178603, Note_on_c, 11, 45, 82
16, 178769, Note_on_c, 11, 45, 0
16, 178956, Note_on_c, 11, 42, 80
16, 179288, Note_on_c, 11, 45, 94
16, 179326, Note_on_c, 11, 42, 0
16, 179363, Note_on_c, 11, 38, 0
16, 179759, Note_on_c, 11, 38, 99
16, 179827, Note_on_c, 11, 45, 0
16, 180005, Note_on_c, 11, 42, 88
16, 180075, Note_on_c, 11, 38, 0
16, 180255, Note_on_c, 11, 38, 94
16, 180304, Note_on_c, 11, 42, 0
16, 180454, Note_on_c, 11, 38, 0
16, 180498, Note_on_c, 11, 36, 90
16, 180655, Note_on_c, 11, 38, 99
16, 180711, Note_on_c, 11, 36, 0
16, 180838, Note_on_c, 11, 38, 0
16, 180887, Note_on_c, 11, 38, 96
16, 180971, Note_on_c, 11, 38, 0
16, 181018, Note_on_c, 11, 38, 96
16, 181189, Note_on_c, 11, 38, 0
16, 181245, Note_on_c, 11, 38, 103
16, 181352, Note_on_c, 11, 38, 0
16, 181397, Note_on_c, 11, 38, 96
16, 181514, Note_on_c, 11, 38, 0
16, 181596, Control_c, 11, 1, 53
16, 181605, Note_on_c, 11, 38, 94
16, 181638, Control_c, 11, 1, 49
16, 181671, Control_c, 11, 1, 45
16, 181689, Control_c, 11, 1, 41
16, 181713, Control_c, 11, 1, 37
16, 181729, Note_on_c, 11, 38, 0
16, 181741, Control_c, 11, 1, 33
16, 181781, Control_c, 11, 1, 28
16, 181813, Note_on_c, 11, 38, 86
16, 181881, Note_on_c, 11, 38, 0
16, 181947, Note_on_c, 11, 38, 87
16, 182012, Note_on_c, 11, 38, 0
16, 182078, Note_on_c, 11, 38, 88
16, 182183, Note_on_c, 11, 38, 0
16, 182253, Note_on_c, 11, 38, 94
16, 182356, Note_on_c, 11, 38, 0
16, 182436, Note_on_c, 11, 38, 99
16, 182579, Note_on_c, 11, 38, 0
16, 182642, Note_on_c, 11, 38, 94
16, 182768, Note_on_c, 11, 38, 0
16, 182836, Note_on_c, 11, 38, 90
16, 182922, Note_on_c, 11, 38, 0
16, 182976, Note_on_c, 11, 38, 90
16, 183100, Note_on_c, 11, 38, 0
16, 183164, Note_on_c, 11, 38, 87
16, 183196, Note_on_c, 11, 40, 94
16, 183252, Note_on_c, 11, 38, 0
16, 183507, Note_on_c, 11, 38, 96
16, 183540, Note_on_c, 11, 40, 0
16, 183828, Note_on_c, 11, 40, 94
16, 183910, Note_on_c, 11, 38, 0
16, 184074, Note_on_c, 11, 40, 0
16, 184085, Note_on_c, 11, 38, 103
16, 184336, Note_on_c, 11, 31, 86
16, 184376, Note_on_c, 11, 38, 0
16, 184680, Note_on_c, 11, 35, 88
16, 185054, Note_on_c, 11, 38, 96
16, 185206, Note_on_c, 11, 31, 0
16, 185230, Note_on_c, 11, 35, 0
16, 185496, Note_on_c, 11, 41, 90
16, 185564, Note_on_c, 11, 38, 0
16, 185775, Pitch_bend_c, 11, 7936
16, 185782, Pitch_bend_c, 11, 7808
16, 185789, Pitch_bend_c, 11, 7680
16, 185801, Pitch_bend_c, 11, 7552
16, 185808, Pitch_bend_c, 11, 7424
16, 185826, Pitch_bend_c, 11, 7296
16, 185833, Pitch_bend_c, 11, 7168
16, 185850, Pitch_bend_c, 11, 7040
16, 185869, Pitch_bend_c, 11, 6912
16, 185878, Pitch_bend_c, 11, 6656
16, 185885, Pitch_bend_c, 11, 6528
16, 185894, Pitch_bend_c, 11, 6400
16, 185904, Pitch_bend_c, 11, 6272
16, 185913, Pitch_bend_c, 11, 6144
16, 185920, Pitch_bend_c, 11, 5888
16, 185929, Pitch_bend_c, 11, 5760
16, 185939, Pitch_bend_c, 11, 5632
16, 185946, Pitch_bend_c, 11, 5376
16, 185955, Pitch_bend_c, 11, 5120
16, 185964, Pitch_bend_c, 11, 4864
16, 185974, Pitch_bend_c, 11, 4736
16, 185981, Pitch_bend_c, 11, 4480
16, 185990, Pitch_bend_c, 11, 4224
16, 186000, Pitch_bend_c, 11, 3968
16, 186009, Pitch_bend_c, 11, 3712
16, 186016, Pitch_bend_c, 11, 3456
16, 186025, Pitch_bend_c, 11, 3200
16, 186035, Pitch_bend_c, 11, 2944
16, 186044, Pitch_bend_c, 11, 2688
16, 186053, Pitch_bend_c, 11, 2304
16, 186060, Pitch_bend_c, 11, 1920
16, 186070, Pitch_bend_c, 11, 1664
16, 186079, Pitch_bend_c, 11, 1408
16, 186086, Pitch_bend_c, 11, 896
16, 186096, Pitch_bend_c, 11, 512
16, 186105, Pitch_bend_c, 11, 128
16, 186114, Pitch_bend_c, 11, 0
16, 186257, Note_on_c, 11, 38, 99
16, 186280, Pitch_bend_c, 11, 384
16, 186287, Pitch_bend_c, 11, 896
16, 186297, Pitch_bend_c, 11, 1280
16, 186306, Pitch_bend_c, 11, 1536
16, 186315, Pitch_bend_c, 11, 1920
16, 186323, Pitch_bend_c, 11, 2304
16, 186332, Note_on_c, 11, 41, 0
16, 186332, Pitch_bend_c, 11, 3072
16, 186341, Pitch_bend_c, 11, 3712
16, 186351, Pitch_bend_c, 11, 4864
16, 186360, Pitch_bend_c, 11, 6144
16, 186367, Pitch_bend_c, 11, 7168
16, 186376, Pitch_bend_c, 11, 8192
16, 186620, Note_on_c, 11, 40, 90
16, 186748, Note_on_c, 11, 38, 0
16, 186954, Note_on_c, 11, 38, 92
16, 187020, Note_on_c, 11, 40, 0
16, 187401, Note_on_c, 11, 33, 85
16, 187418, Note_on_c, 11, 38, 0
16, 187691, Note_on_c, 11, 36, 92
16, 187745, Note_on_c, 11, 33, 0
16, 187937, Note_on_c, 11, 33, 99
16, 187953, Note_on_c, 11, 36, 0
16, 188190, Note_on_c, 11, 38, 108
16, 188265, Note_on_c, 11, 33, 0
16, 188485, Note_on_c, 11, 38, 0
16, 188489, Note_on_c, 11, 33, 91
16, 188660, Note_on_c, 11, 36, 87
16, 188733, Note_on_c, 11, 33, 0
16, 188911, Note_on_c, 11, 33, 87
16, 188939, Note_on_c, 11, 36, 0
16, 189056, Note_on_c, 11, 38, 92
16, 189166, Note_on_c, 11, 33, 0
16, 189360, Note_on_c, 11, 33, 90
16, 189404, Note_on_c, 11, 38, 0
16, 189596, Note_on_c, 11, 36, 92
16, 189669, Note_on_c, 11, 33, 0
16, 189849, Note_on_c, 11, 33, 92
16, 189868, Note_on_c, 11, 36, 0
16, 190081, Note_on_c, 11, 36, 94
16, 190111, Note_on_c, 11, 33, 0
16, 190343, Note_on_c, 11, 31, 85
16, 190373, Note_on_c, 11, 36, 0
16, 190570, Note_on_c, 11, 36, 92
16, 190626, Note_on_c, 11, 31, 0
16, 190815, Note_on_c, 11, 31, 87
16, 190857, Note_on_c, 11, 36, 0
16, 191042, Note_on_c, 11, 40, 92
16, 191131, Note_on_c, 11, 31, 0
16, 191274, Note_on_c, 11, 31, 84
16, 191354, Note_on_c, 11, 40, 0
16, 191407, Note_on_c, 11, 36, 88
16, 191529, Note_on_c, 11, 31, 0
16, 191756, Note_on_c, 11, 31, 87
16, 191803, Note_on_c, 11, 36, 0
16, 191999, Note_on_c, 11, 38, 96
16, 192072, Note_on_c, 11, 31, 0
16, 192252, Note_on_c, 11, 31, 86
16, 192318, Note_on_c, 11, 38, 0
16, 192467, Note_on_c, 11, 35, 94
16, 192521, Note_on_c, 11, 31, 0
16, 192713, Note_on_c, 11, 31, 88
16, 192753, Note_on_c, 11, 35, 0
16, 192842, Note_on_c, 11, 35, 90
16, 193078, Note_on_c, 11, 31, 0
16, 193165, Note_on_c, 11, 41, 87
16, 193345, Note_on_c, 11, 35, 0
16, 193443, Note_on_c, 11, 38, 88
16, 193670, Note_on_c, 11, 41, 0
16, 193670, Note_on_c, 11, 35, 87
16, 193726, Note_on_c, 11, 38, 0
16, 193937, Note_on_c, 11, 38, 90
16, 193981, Note_on_c, 11, 35, 0
16, 194438, Note_on_c, 11, 33, 99
16, 194821, Note_on_c, 11, 38, 0
16, 194903, Note_on_c, 11, 36, 99
16, 194992, Note_on_c, 11, 33, 0
16, 195261, Note_on_c, 11, 33, 94
16, 195278, Note_on_c, 11, 36, 0
16, 195886, Note_on_c, 11, 38, 127
16, 195942, Note_on_c, 11, 33, 0
16, 196291, Pitch_bend_c, 11, 8064
16, 196300, Pitch_bend_c, 11, 7936
16, 196317, Pitch_bend_c, 11, 7808
16, 196333, Pitch_bend_c, 11, 7552
16, 196342, Pitch_bend_c, 11, 7424
16, 196352, Pitch_bend_c, 11, 7296
16, 196359, Pitch_bend_c, 11, 7168
16, 196368, Pitch_bend_c, 11, 7040
16, 196377, Pitch_bend_c, 11, 6784
16, 196387, Pitch_bend_c, 11, 6528
16, 196394, Pitch_bend_c, 11, 6400
16, 196403, Pitch_bend_c, 11, 6272
16, 196413, Pitch_bend_c, 11, 6016
16, 196422, Pitch_bend_c, 11, 5888
16, 196431, Pitch_bend_c, 11, 5632
16, 196438, Pitch_bend_c, 11, 5376
16, 196448, Pitch_bend_c, 11, 5120
16, 196457, Pitch_bend_c, 11, 4864
16, 196464, Pitch_bend_c, 11, 4608
16, 196473, Pitch_bend_c, 11, 4352
16, 196483, Pitch_bend_c, 11, 4096
16, 196490, Pitch_bend_c, 11, 3840
16, 196499, Pitch_bend_c, 11, 3584
16, 196509, Pitch_bend_c, 11, 3328
16, 196518, Pitch_bend_c, 11, 3072
16, 196527, Pitch_bend_c, 11, 2816
16, 196534, Pitch_bend_c, 11, 2560
16, 196544, Pitch_bend_c, 11, 2304
16, 196553, Pitch_bend_c, 11, 2048
16, 196560, Pitch_bend_c, 11, 1792
16, 196569, Pitch_bend_c, 11, 1536
16, 196579, Pitch_bend_c, 11, 1408
16, 196588, Pitch_bend_c, 11, 1152
16, 196597, Pitch_bend_c, 11, 896
16, 196604, Pitch_bend_c, 11, 768
16, 196614, Pitch_bend_c, 11, 512
16, 196623, Pitch_bend_c, 11, 256
16, 196630, Pitch_bend_c, 11, 0
16, 196759, Note_on_c, 11, 33, 88
16, 196864, Pitch_bend_c, 11, 128
16, 196871, Pitch_bend_c, 11, 512
16, 196881, Pitch_bend_c, 11, 896
16, 196890, Pitch_bend_c, 11, 1280
16, 196897, Pitch_bend_c, 11, 1664
16, 196906, Pitch_bend_c, 11, 1792
16, 196916, Pitch_bend_c, 11, 2048
16, 196925, Pitch_bend_c, 11, 2304
16, 196932, Pitch_bend_c, 11, 2432
16, 196941, Pitch_bend_c, 11, 2560
16, 196951, Pitch_bend_c, 11, 2816
16, 196960, Pitch_bend_c, 11, 2944
16, 196967, Pitch_bend_c, 11, 3072
16, 196977, Pitch_bend_c, 11, 3328
16, 196986, Pitch_bend_c, 11, 3584
16, 196995, Pitch_bend_c, 11, 3712
16, 197002, Pitch_bend_c, 11, 4096
16, 197009, Note_on_c, 11, 38, 0
16, 197014, Pitch_bend_c, 11, 4352
16, 197021, Pitch_bend_c, 11, 4608
16, 197030, Pitch_bend_c, 11, 4864
16, 197037, Pitch_bend_c, 11, 5120
16, 197047, Pitch_bend_c, 11, 5376
16, 197056, Pitch_bend_c, 11, 5760
16, 197065, Pitch_bend_c, 11, 6144
16, 197072, Pitch_bend_c, 11, 6656
16, 197082, Pitch_bend_c, 11, 7168
16, 197091, Pitch_bend_c, 11, 7808
16, 197101, Pitch_bend_c, 11, 8192
16, 197304, Note_on_c, 11, 38, 108
16, 197416, Note_on_c, 11, 33, 0
16, 197473, Note_on_c, 11, 38, 0
16, 197557, Note_on_c, 11, 38, 108
16, 197718, Note_on_c, 11, 38, 0
16, 197791, Note_on_c, 11, 36, 108
16, 198264, Note_on_c, 11, 40, 87
16, 198579, Note_on_c, 11, 43, 90
16, 198622, Note_on_c, 11, 36, 0
16, 198622, Note_on_c, 11, 40, 0
16, 198947, Note_on_c, 11, 40, 92
16, 199242, Note_on_c, 11, 38, 87
16, 199476, Note_on_c, 11, 36, 86
16, 199506, Note_on_c, 11, 40, 0
16, 199515, Note_on_c, 11, 38, 0
16, 199520, Note_on_c, 11, 43, 0
16, 199768, Note_on_c, 11, 36, 0
16, 199796, Note_on_c, 11, 31, 86
16, 200187, Note_on_c, 11, 35, 92
16, 200608, Note_on_c, 11, 38, 90
16, 200671, Note_on_c, 11, 31, 0
16, 200702, Note_on_c, 11, 35, 0
16, 201125, Note_on_c, 11, 41, 94
16, 201142, Note_on_c, 11, 35, 64
16, 201165, Note_on_c, 11, 38, 0
16, 201219, Note_on_c, 11, 35, 0
16, 201600, Note_on_c, 11, 38, 103
16, 201640, Note_on_c, 11, 41, 0
16, 202323, Note_on_c, 11, 33, 92
16, 202352, Note_on_c, 11, 38, 0
16, 202564, Note_on_c, 11, 36, 96
16, 202604, Note_on_c, 11, 33, 0
16, 202808, Note_on_c, 11, 33, 90
16, 202815, Note_on_c, 11, 36, 0
16, 202944, Note_on_c, 11, 36, 99
16, 202993, Note_on_c, 11, 33, 0
16, 203189, Note_on_c, 11, 36, 0
16, 203189, Note_on_c, 11, 33, 90
16, 203276, Note_on_c, 11, 36, 90
16, 203330, Note_on_c, 11, 33, 0
16, 203564, Note_on_c, 11, 31, 86
16, 203610, Note_on_c, 11, 36, 0
16, 203779, Note_on_c, 11, 31, 0
16, 203826, Note_on_c, 11, 33, 94
16, 204060, Note_on_c, 11, 36, 90
16, 204252, Note_on_c, 11, 33, 0
16, 204310, Note_on_c, 11, 38, 88
16, 204378, Note_on_c, 11, 36, 0
16, 204539, Note_on_c, 11, 36, 92
16, 204614, Note_on_c, 11, 38, 0
16, 204780, Note_on_c, 11, 33, 88
16, 204792, Note_on_c, 11, 36, 0
16, 204918, Note_on_c, 11, 36, 96
16, 205026, Note_on_c, 11, 33, 0
16, 205269, Note_on_c, 11, 38, 90
16, 205309, Note_on_c, 11, 36, 0
16, 205529, Note_on_c, 11, 36, 92
16, 205597, Note_on_c, 11, 38, 0
16, 205859, Note_on_c, 11, 31, 87
16, 206145, Note_on_c, 11, 36, 0
16, 206276, Note_on_c, 11, 36, 87
16, 206447, Note_on_c, 11, 31, 0
16, 206748, Note_on_c, 11, 31, 90
16, 206781, Note_on_c, 11, 36, 0
16, 206989, Note_on_c, 11, 36, 90
16, 207046, Note_on_c, 11, 31, 0
16, 207228, Note_on_c, 11, 31, 87
16, 207263, Note_on_c, 11, 36, 0
16, 207455, Note_on_c, 11, 35, 88
16, 207492, Note_on_c, 11, 31, 0
16, 207773, Note_on_c, 11, 31, 87
16, 207829, Note_on_c, 11, 35, 0
16, 207989, Note_on_c, 11, 35, 88
16, 208042, Note_on_c, 11, 31, 0
16, 208216, Note_on_c, 11, 31, 81
16, 208234, Note_on_c, 11, 35, 0
16, 208328, Note_on_c, 11, 35, 94
16, 208646, Note_on_c, 11, 38, 92
16, 208751, Note_on_c, 11, 31, 0
16, 208936, Note_on_c, 11, 41, 88
16, 209030, Note_on_c, 11, 38, 0
16, 209037, Note_on_c, 11, 35, 0
16, 209194, Note_on_c, 11, 38, 92
16, 209313, Note_on_c, 11, 41, 0
16, 209470, Note_on_c, 11, 40, 88
16, 209954, Note_on_c, 11, 40, 0
16, 210345, Note_on_c, 11, 38, 0
16, 210392, Note_on_c, 11, 38, 103
16, 210719, Note_on_c, 11, 33, 90
16, 210766, Note_on_c, 11, 38, 0
16, 211042, Note_on_c, 11, 38, 92
16, 211124, Note_on_c, 11, 33, 0
16, 211304, Note_on_c, 11, 40, 90
16, 211372, Note_on_c, 11, 38, 0
16, 211625, Note_on_c, 11, 38, 90
16, 211742, Note_on_c, 11, 40, 0
16, 212762, Note_on_c, 11, 38, 0
16, 212762, Note_on_c, 11, 33, 94
16, 212900, Note_on_c, 11, 38, 80
16, 212961, Note_on_c, 11, 33, 0
16, 213034, Note_on_c, 11, 38, 0
16, 213048, Note_on_c, 11, 40, 87
16, 213214, Note_on_c, 11, 38, 76
16, 213286, Note_on_c, 11, 36, 79
16, 213387, Note_on_c, 11, 38, 0
16, 213452, Note_on_c, 11, 40, 0
16, 214524, Note_on_c, 11, 36, 0
16, 214541, Note_on_c, 11, 31, 94
16, 214770, Note_on_c, 11, 31, 0
16, 214812, Note_on_c, 11, 36, 103
16, 215018, Note_on_c, 11, 36, 0
16, 215046, Note_on_c, 11, 38, 94
16, 215289, Note_on_c, 11, 31, 90
16, 215303, Note_on_c, 11, 38, 0
16, 215697, Note_on_c, 11, 35, 88
16, 215959, Note_on_c, 11, 31, 0
16, 215980, Note_on_c, 11, 35, 0
16, 216017, Note_on_c, 11, 38, 90
16, 216052, Note_on_c, 11, 35, 75
16, 216120, Note_on_c, 11, 35, 0
16, 216469, Note_on_c, 11, 38, 0
16, 216478, Note_on_c, 11, 41, 92
16, 216735, Note_on_c, 11, 38, 87
16, 216834, Note_on_c, 11, 41, 0
16, 216977, Note_on_c, 11, 35, 87
16, 216981, Note_on_c, 11, 38, 0
16, 217227, Note_on_c, 11, 38, 90
16, 217262, Note_on_c, 11, 35, 0
16, 218420, Note_on_c, 11, 33, 119
16, 218458, Note_on_c, 11, 41, 85
16, 218465, Note_on_c, 11, 40, 75
16, 218476, Note_on_c, 11, 38, 0
16, 218500, Note_on_c, 11, 41, 0
16, 218558, Note_on_c, 11, 40, 0
16, 218680, Note_on_c, 11, 36, 94
16, 218802, Note_on_c, 11, 33, 0
16, 218923, Note_on_c, 11, 38, 94
16, 218968, Note_on_c, 11, 36, 0
16, 219019, Note_on_c, 11, 38, 0
16, 219162, Note_on_c, 11, 50, 103
16, 219553, Note_on_c, 11, 43, 85
16, 219864, Note_on_c, 11, 43, 0
16, 219876, Note_on_c, 11, 48, 86
16, 220358, Note_on_c, 11, 45, 87
16, 220496, Note_on_c, 11, 48, 0
16, 220508, Note_on_c, 11, 50, 0
16, 220606, Note_on_c, 11, 48, 96
16, 220838, Note_on_c, 11, 50, 86
16, 220901, Note_on_c, 11, 48, 0
16, 220910, Note_on_c, 11, 45, 0
16, 221067, Note_on_c, 11, 52, 88
16, 221097, Note_on_c, 11, 50, 0
16, 221427, Note_on_c, 11, 48, 83
16, 221762, Note_on_c, 11, 43, 92
16, 222202, Note_on_c, 11, 48, 0
16, 222211, Note_on_c, 11, 45, 96
16, 222277, Note_on_c, 11, 52, 0
16, 222476, Note_on_c, 11, 48, 82
16, 222749, Note_on_c, 11, 50, 88
16, 222768, Note_on_c, 11, 45, 0
16, 222796, Note_on_c, 11, 43, 0
16, 222876, Note_on_c, 11, 48, 0
16, 222976, Note_on_c, 11, 47, 94
16, 223016, Note_on_c, 11, 50, 0
16, 223334, Note_on_c, 11, 43, 94
16, 223423, Note_on_c, 11, 47, 0
16, 223660, Note_on_c, 11, 47, 88
16, 223936, Note_on_c, 11, 53, 88
16, 224109, Note_on_c, 11, 43, 0
16, 224111, Note_on_c, 11, 47, 0
16, 224263, Note_on_c, 11, 50, 88
16, 224631, Note_on_c, 11, 47, 87
16, 224666, Note_on_c, 11, 50, 0
16, 224677, Note_on_c, 11, 53, 0
16, 224904, Note_on_c, 11, 50, 96
16, 224949, Note_on_c, 11, 47, 0
16, 225269, Note_on_c, 11, 48, 88
16, 225330, Note_on_c, 11, 50, 0
16, 225620, Note_on_c, 11, 45, 90
16, 225656, Note_on_c, 11, 48, 0
16, 226065, Note_on_c, 11, 43, 94
16, 226138, Note_on_c, 11, 45, 0
16, 226306, Note_on_c, 11, 42, 80
16, 226351, Note_on_c, 11, 43, 0
16, 226552, Note_on_c, 11, 40, 91
16, 226571, Note_on_c, 11, 42, 0
16, 226807, Note_on_c, 11, 40, 0
16, 226812, Note_on_c, 11, 38, 96
16, 227205, Note_on_c, 11, 40, 94
16, 227263, Note_on_c, 11, 38, 0
16, 227537, Note_on_c, 11, 42, 88
16, 227591, Note_on_c, 11, 40, 0
16, 227982, Note_on_c, 11, 38, 90
16, 228087, Note_on_c, 11, 42, 0
16, 228223, Note_on_c, 11, 40, 94
16, 228293, Note_on_c, 11, 38, 0
16, 228459, Note_on_c, 11, 42, 83
16, 228522, Note_on_c, 11, 40, 0
16, 228747, Note_on_c, 11, 36, 87
16, 228829, Note_on_c, 11, 42, 0
16, 229063, Note_on_c, 11, 38, 90
16, 229149, Note_on_c, 11, 36, 0
16, 229411, Note_on_c, 11, 40, 94
16, 229477, Note_on_c, 11, 38, 0
16, 229832, Note_on_c, 11, 36, 94
16, 229875, Note_on_c, 11, 40, 0
16, 230092, Note_on_c, 11, 38, 90
16, 230254, Note_on_c, 11, 36, 0
16, 230336, Note_on_c, 11, 40, 90
16, 230380, Note_on_c, 11, 38, 0
16, 230584, Note_on_c, 11, 35, 96
16, 230612, Note_on_c, 11, 40, 0
16, 230925, Note_on_c, 11, 36, 87
16, 231162, Note_on_c, 11, 35, 0
16, 231276, Note_on_c, 11, 38, 92
16, 231375, Note_on_c, 11, 36, 0
16, 231695, Note_on_c, 11, 40, 88
16, 231969, Note_on_c, 11, 38, 0
16, 231969, Note_on_c, 11, 41, 94
16, 232009, Note_on_c, 11, 40, 0
16, 232231, Note_on_c, 11, 40, 87
16, 232470, Note_on_c, 11, 38, 108
16, 232505, Note_on_c, 11, 41, 0
16, 232516, Note_on_c, 11, 40, 0
16, 232910, Note_on_c, 11, 31, 73
16, 232914, Note_on_c, 11, 33, 69
16, 233101, Note_on_c, 11, 33, 0
16, 233179, Note_on_c, 11, 31, 0
16, 233216, Note_on_c, 11, 36, 92
16, 233635, Note_on_c, 11, 33, 82
16, 233661, Note_on_c, 11, 36, 0
16, 233881, Note_on_c, 11, 35, 99
16, 233906, Note_on_c, 11, 33, 0
16, 234096, Note_on_c, 11, 38, 0
16, 234122, Note_on_c, 11, 33, 103
16, 234157, Note_on_c, 11, 35, 0
16, 234356, Note_on_c, 11, 38, 103
16, 234414, Note_on_c, 11, 33, 0
16, 234711, Note_on_c, 11, 31, 88
16, 235009, Note_on_c, 11, 38, 0
16, 235032, Note_on_c, 11, 36, 94
16, 235086, Note_on_c, 11, 31, 0
16, 235481, Note_on_c, 11, 36, 0
16, 235481, Note_on_c, 11, 33, 95
16, 235762, Note_on_c, 11, 36, 99
16, 235797, Note_on_c, 11, 33, 0
16, 236017, Note_on_c, 11, 33, 92
16, 236066, Note_on_c, 11, 36, 0
16, 236277, Note_on_c, 11, 38, 90
16, 236335, Note_on_c, 11, 33, 0
16, 236656, Note_on_c, 11, 31, 90
16, 236787, Note_on_c, 11, 38, 0
16, 236976, Note_on_c, 11, 36, 96
16, 237044, Note_on_c, 11, 31, 0
16, 237461, Note_on_c, 11, 31, 88
16, 237489, Note_on_c, 11, 36, 0
16, 237704, Note_on_c, 11, 35, 92
16, 237763, Note_on_c, 11, 31, 0
16, 237964, Note_on_c, 11, 31, 87
16, 238011, Note_on_c, 11, 35, 0
16, 238266, Note_on_c, 11, 36, 81
16, 238329, Note_on_c, 11, 31, 0
16, 238329, Note_on_c, 11, 38, 41
16, 238432, Note_on_c, 11, 36, 0
16, 238479, Note_on_c, 11, 31, 39
16, 238593, Note_on_c, 11, 31, 0
16, 238731, Note_on_c, 11, 31, 85
16, 238895, Note_on_c, 11, 38, 0
16, 238961, Note_on_c, 11, 35, 119
16, 239054, Note_on_c, 11, 31, 0
16, 239366, Note_on_c, 11, 35, 0
16, 239389, Note_on_c, 11, 31, 90
16, 239644, Note_on_c, 11, 33, 103
16, 239672, Note_on_c, 11, 31, 0
16, 239899, Note_on_c, 11, 31, 92
16, 239967, Note_on_c, 11, 33, 0
16, 240119, Note_on_c, 11, 38, 96
16, 240208, Note_on_c, 11, 31, 0
16, 240482, Note_on_c, 11, 33, 84
16, 240868, Note_on_c, 11, 36, 86
16, 241022, Note_on_c, 11, 33, 0
16, 241315, Note_on_c, 11, 35, 108
16, 241488, Note_on_c, 11, 38, 0
16, 241605, Note_on_c, 11, 33, 93
16, 241610, Note_on_c, 11, 35, 0
16, 241656, Note_on_c, 11, 36, 0
16, 241825, Note_on_c, 11, 35, 94
16, 241898, Note_on_c, 11, 33, 0
16, 242136, Note_on_c, 11, 26, 86
16, 242211, Note_on_c, 11, 35, 0
16, 242539, Note_on_c, 11, 34, 72
16, 242623, Note_on_c, 11, 34, 0
16, 242796, Note_on_c, 11, 33, 78
16, 243332, Note_on_c, 11, 26, 0
16, 243489, Note_on_c, 11, 35, 79
16, 243571, Note_on_c, 11, 33, 0
16, 243940, Note_on_c, 11, 36, 96
16, 244029, Note_on_c, 11, 35, 0
16, 244355, Note_on_c, 11, 31, 83
16, 244385, Note_on_c, 11, 36, 0
16, 244661, Note_on_c, 11, 36, 108
16, 244694, Note_on_c, 11, 31, 0
16, 245122, Note_on_c, 11, 31, 88
16, 245131, Note_on_c, 11, 36, 0
16, 245358, Note_on_c, 11, 31, 0
16, 245386, Note_on_c, 11, 36, 108
16, 245649, Note_on_c, 11, 38, 90
16, 245735, Note_on_c, 11, 36, 0
16, 245859, Note_on_c, 11, 38, 0
16, 245911, Note_on_c, 11, 35, 103
16, 246262, Note_on_c, 11, 35, 0
16, 246273, Note_on_c, 11, 29, 87
16, 246273, Note_on_c, 11, 31, 84
16, 246423, Note_on_c, 11, 29, 0
16, 246510, Note_on_c, 11, 31, 0
16, 246601, Note_on_c, 11, 35, 119
16, 247041, Note_on_c, 11, 35, 0
16, 247071, Note_on_c, 11, 31, 96
16, 247237, Note_on_c, 11, 31, 0
16, 247317, Note_on_c, 11, 29, 108
16, 247347, Note_on_c, 11, 37, 70
16, 247453, Note_on_c, 11, 37, 0
16, 247504, Note_on_c, 11, 29, 0
16, 247586, Note_on_c, 11, 31, 103
16, 247832, Note_on_c, 11, 38, 92
16, 247944, Note_on_c, 11, 31, 0
16, 248223, Note_on_c, 11, 33, 94
16, 248480, Note_on_c, 11, 38, 0
16, 248494, Note_on_c, 11, 33, 0
16, 248527, Note_on_c, 11, 36, 99
16, 248974, Note_on_c, 11, 36, 0
16, 248983, Note_on_c, 11, 33, 90
16, 249245, Note_on_c, 11, 36, 88
16, 249292, Note_on_c, 11, 33, 0
16, 249495, Note_on_c, 11, 33, 92
16, 249545, Note_on_c, 11, 36, 0
16, 249737, Note_on_c, 11, 38, 96
16, 249870, Note_on_c, 11, 33, 0
16, 250092, Note_on_c, 11, 38, 0
16, 250106, Note_on_c, 11, 31, 88
16, 250333, Note_on_c, 11, 31, 0
16, 250455, Note_on_c, 11, 38, 96
16, 250476, Note_on_c, 11, 40, 84
16, 250914, Note_on_c, 11, 33, 96
16, 250939, Note_on_c, 11, 40, 0
16, 250949, Note_on_c, 11, 38, 0
16, 251173, Note_on_c, 11, 36, 96
16, 251225, Note_on_c, 11, 33, 0
16, 251419, Note_on_c, 11, 33, 95
16, 251421, Note_on_c, 11, 36, 0
16, 251648, Note_on_c, 11, 33, 0
16, 251681, Note_on_c, 11, 40, 90
16, 252016, Note_on_c, 11, 40, 0
16, 252030, Note_on_c, 11, 37, 82
16, 252051, Note_on_c, 11, 33, 80
16, 252093, Note_on_c, 11, 33, 0
16, 252219, Note_on_c, 11, 37, 0
16, 252311, Note_on_c, 11, 36, 94
16, 252800, Note_on_c, 11, 38, 90
16, 252842, Note_on_c, 11, 36, 0
16, 253057, Note_on_c, 11, 38, 0
16, 253062, Note_on_c, 11, 36, 99
16, 253314, Note_on_c, 11, 38, 88
16, 253392, Note_on_c, 11, 36, 0
16, 253548, Note_on_c, 11, 31, 90
16, 253572, Note_on_c, 11, 38, 0
16, 253661, Note_on_c, 11, 38, 67
16, 253743, Note_on_c, 11, 38, 0
16, 253958, Note_on_c, 11, 35, 92
16, 254016, Note_on_c, 11, 31, 0
16, 254199, Note_on_c, 11, 35, 0
16, 254276, Note_on_c, 11, 41, 85
16, 254339, Note_on_c, 11, 40, 81
16, 254512, Note_on_c, 11, 40, 0
16, 254753, Note_on_c, 11, 38, 88
16, 254772, Note_on_c, 11, 41, 0
16, 255011, Note_on_c, 11, 35, 92
16, 255046, Note_on_c, 11, 38, 0
16, 255252, Note_on_c, 11, 35, 0
16, 255252, Note_on_c, 11, 31, 91
16, 255500, Note_on_c, 11, 38, 96
16, 255603, Note_on_c, 11, 31, 0
16, 256890, Note_on_c, 11, 38, 0
16, 256906, Note_on_c, 11, 33, 103
16, 257028, Note_on_c, 11, 36, 90
16, 257079, Note_on_c, 11, 33, 0
16, 257243, Note_on_c, 11, 33, 84
16, 257248, Note_on_c, 11, 36, 0
16, 257470, Note_on_c, 11, 38, 92
16, 257498, Note_on_c, 11, 40, 70
16, 257519, Note_on_c, 11, 40, 0
16, 257533, Note_on_c, 11, 33, 0
16, 258863, Note_on_c, 11, 33, 96
16, 258867, Note_on_c, 11, 38, 0
16, 258968, Note_on_c, 11, 36, 87
16, 259026, Note_on_c, 11, 33, 0
16, 259120, Note_on_c, 11, 33, 88
16, 259157, Note_on_c, 11, 36, 0
16, 259349, Note_on_c, 11, 38, 92
16, 259445, Note_on_c, 11, 33, 0
16, 260777, Note_on_c, 11, 33, 90
16, 260786, Note_on_c, 11, 38, 0
16, 260870, Note_on_c, 11, 36, 86
16, 260950, Note_on_c, 11, 33, 0
16, 261093, Note_on_c, 11, 38, 78
16, 261100, Note_on_c, 11, 36, 0
16, 261275, Note_on_c, 11, 33, 85
16, 261289, Note_on_c, 11, 38, 0
16, 261376, Note_on_c, 11, 38, 79
16, 261467, Note_on_c, 11, 38, 0
16, 262415, Note_on_c, 11, 33, 0
16, 262473, Note_on_c, 11, 33, 103
16, 262609, Note_on_c, 11, 33, 0
16, 262686, Note_on_c, 11, 33, 108
16, 262838, Note_on_c, 11, 36, 88
16, 262892, Note_on_c, 11, 33, 0
16, 263016, Note_on_c, 11, 38, 87
16, 263056, Note_on_c, 11, 36, 0
16, 263213, Note_on_c, 11, 38, 0
16, 263229, Note_on_c, 11, 33, 81
16, 263402, Note_on_c, 11, 38, 73
16, 263636, Note_on_c, 11, 33, 0
16, 264469, Note_on_c, 11, 38, 0
16, 264596, Note_on_c, 11, 33, 94
16, 264705, Note_on_c, 11, 36, 86
16, 264766, Note_on_c, 11, 33, 0
16, 264916, Note_on_c, 11, 38, 74
16, 264960, Control_c, 11, 1, 115
16, 264986, Note_on_c, 11, 38, 0
16, 265103, Note_on_c, 11, 36, 0
16, 265108, Note_on_c, 11, 33, 82
16, 266198, Note_on_c, 11, 33, 0
16, 266507, Note_on_c, 11, 33, 94
16, 266631, Note_on_c, 11, 36, 79
16, 266699, Note_on_c, 11, 33, 0
16, 266821, Note_on_c, 11, 33, 91
16, 266828, Note_on_c, 11, 36, 0
16, 266961, Note_on_c, 11, 36, 70
16, 267048, Note_on_c, 11, 33, 0
16, 268445, Note_on_c, 11, 36, 0
16, 268562, Note_on_c, 11, 33, 86
16, 268662, Note_on_c, 11, 36, 80
16, 268744, Note_on_c, 11, 33, 0
16, 268864, Note_on_c, 11, 33, 85
16, 268871, Note_on_c, 11, 36, 0
16, 269056, Note_on_c, 11, 36, 92
16, 269109, Note_on_c, 11, 33, 0
16, 270006, Control_c, 11, 1, 33
16, 270029, Control_c, 11, 1, 37
16, 270048, Control_c, 11, 1, 41
16, 270064, Control_c, 11, 1, 49
16, 270080, Control_c, 11, 1, 53
16, 270106, Control_c, 11, 1, 57
16, 270132, Control_c, 11, 1, 61
16, 270158, Control_c, 11, 1, 66
16, 270190, Control_c, 11, 1, 70
16, 270314, Control_c, 11, 1, 66
16, 270340, Control_c, 11, 1, 61
16, 270366, Control_c, 11, 1, 57
16, 270382, Control_c, 11, 1, 53
16, 270399, Control_c, 11, 1, 45
16, 270415, Control_c, 11, 1, 41
16, 270434, Control_c, 11, 1, 37
16, 270450, Control_c, 11, 1, 28
16, 270467, Control_c, 11, 1, 24
16, 270485, Note_on_c, 11, 36, 0
16, 270485, Control_c, 11, 1, 20
16, 270495, Control_c, 11, 1, 16
16, 270495, Note_on_c, 11, 33, 86
16, 270511, Control_c, 11, 1, 8
16, 270527, Control_c, 11, 1, 4
16, 270553, Control_c, 11, 1, 0
16, 270614, Note_on_c, 11, 36, 84
16, 270684, Note_on_c, 11, 33, 0
16, 270804, Note_on_c, 11, 36, 0
16, 270832, Note_on_c, 11, 33, 88
16, 271009, Note_on_c, 11, 38, 88
16, 271066, Note_on_c, 11, 33, 0
16, 272399, Note_on_c, 11, 38, 0
16, 272411, Note_on_c, 11, 33, 88
16, 272528, Note_on_c, 11, 36, 81
16, 272580, Note_on_c, 11, 33, 0
16, 272673, Note_on_c, 11, 33, 87
16, 272683, Note_on_c, 11, 36, 0
16, 272888, Note_on_c, 11, 38, 90
16, 272895, Note_on_c, 11, 33, 0
16, 274328, Note_on_c, 11, 38, 0
16, 274332, Note_on_c, 11, 33, 87
16, 274459, Note_on_c, 11, 36, 88
16, 274505, Note_on_c, 11, 33, 0
16, 274601, Note_on_c, 11, 33, 94
16, 274615, Note_on_c, 11, 36, 0
16, 274824, Note_on_c, 11, 38, 90
16, 274873, Note_on_c, 11, 33, 0
16, 276237, Note_on_c, 11, 33, 89
16, 276246, Note_on_c, 11, 38, 0
16, 276352, Note_on_c, 11, 36, 84
16, 276408, Note_on_c, 11, 33, 0
16, 276515, Note_on_c, 11, 33, 94
16, 276534, Note_on_c, 11, 36, 0
16, 276742, Note_on_c, 11, 38, 88
16, 276845, Note_on_c, 11, 33, 0
16, 278170, Note_on_c, 11, 33, 89
16, 278177, Note_on_c, 11, 38, 0
16, 278282, Note_on_c, 11, 36, 81
16, 278345, Note_on_c, 11, 33, 0
16, 278400, Control_c, 11, 1, 105
16, 278460, Note_on_c, 11, 33, 86
16, 278472, Note_on_c, 11, 36, 0
16, 278666, Note_on_c, 11, 38, 90
16, 278724, Note_on_c, 11, 33, 0
16, 279824, Control_c, 11, 1, 4
16, 279841, Control_c, 11, 1, 12
16, 279850, Control_c, 11, 1, 16
16, 279869, Control_c, 11, 1, 24
16, 279876, Control_c, 11, 1, 28
16, 279885, Control_c, 11, 1, 33
16, 279894, Control_c, 11, 1, 37
16, 279901, Control_c, 11, 1, 41
16, 279911, Control_c, 11, 1, 45
16, 279920, Control_c, 11, 1, 49
16, 279937, Control_c, 11, 1, 57
16, 279955, Control_c, 11, 1, 66
16, 279972, Control_c, 11, 1, 70
16, 279988, Control_c, 11, 1, 74
16, 280004, Control_c, 11, 1, 78
16, 280023, Control_c, 11, 1, 82
16, 280040, Control_c, 11, 1, 86
16, 280056, Control_c, 11, 1, 90
16, 280082, Control_c, 11, 1, 99
16, 280098, Control_c, 11, 1, 103
16, 280103, Note_on_c, 11, 38, 0
16, 280105, Note_on_c, 11, 33, 87
16, 280117, Control_c, 11, 1, 107
16, 280133, Control_c, 11, 1, 111
16, 280152, Control_c, 11, 1, 119
16, 280168, Control_c, 11, 1, 123
16, 280194, Control_c, 11, 1, 127
16, 280229, Note_on_c, 11, 36, 80
16, 280295, Note_on_c, 11, 33, 0
16, 280320, Control_c, 11, 7, 127
16, 280365, Control_c, 11, 7, 126
16, 280411, Control_c, 11, 7, 125
16, 280419, Note_on_c, 11, 33, 88
16, 280426, Note_on_c, 11, 36, 0
16, 280457, Control_c, 11, 7, 124
16, 280502, Control_c, 11, 7, 123
16, 280548, Control_c, 11, 7, 122
16, 280594, Control_c, 11, 7, 121
16, 280620, Note_on_c, 11, 38, 83
16, 280640, Control_c, 11, 7, 120
16, 280660, Note_on_c, 11, 33, 0
16, 280685, Control_c, 11, 7, 119
16, 280731, Control_c, 11, 7, 118
16, 280777, Control_c, 11, 7, 117
16, 280822, Control_c, 11, 7, 116
16, 280868, Control_c, 11, 7, 115
16, 280914, Control_c, 11, 7, 114
16, 280960, Control_c, 11, 7, 113
16, 281005, Control_c, 11, 7, 112
16, 281051, Control_c, 11, 7, 111
16, 281097, Control_c, 11, 7, 110
16, 281142, Control_c, 11, 7, 109
16, 281188, Control_c, 11, 7, 108
16, 281234, Control_c, 11, 7, 107
16, 281280, Control_c, 11, 7, 106
16, 281325, Control_c, 11, 7, 105
16, 281371, Control_c, 11, 7, 104
16, 281417, Control_c, 11, 7, 103
16, 281462, Control_c, 11, 7, 102
16, 281508, Control_c, 11, 7, 101
16, 281554, Control_c, 11, 7, 100
16, 281600, Control_c, 11, 7, 99
16, 281645, Control_c, 11, 7, 98
16, 281675, Control_c, 11, 1, 123
16, 281691, Control_c, 11, 7, 97
16, 281724, Control_c, 11, 1, 115
16, 281737, Control_c, 11, 7, 96
16, 281773, Control_c, 11, 1, 111
16, 281782, Control_c, 11, 7, 95
16, 281825, Control_c, 11, 1, 107
16, 281828, Control_c, 11, 7, 94
16, 281858, Control_c, 11, 1, 103
16, 281874, Control_c, 11, 7, 93
16, 281900, Control_c, 11, 1, 99
16, 281920, Control_c, 11, 7, 92
16, 281926, Control_c, 11, 1, 94
16, 281949, Control_c, 11, 1, 90
16, 281965, Control_c, 11, 7, 91
16, 281975, Control_c, 11, 1, 86
16, 282000, Control_c, 11, 1, 78
16, 282011, Control_c, 11, 7, 90
16, 282017, Control_c, 11, 1, 74
16, 282043, Control_c, 11, 1, 70
16, 282057, Control_c, 11, 7, 89
16, 282068, Control_c, 11, 1, 66
16, 282094, Control_c, 11, 1, 61
16, 282102, Control_c, 11, 7, 88
16, 282117, Control_c, 11, 1, 53
16, 282143, Control_c, 11, 1, 49
16, 282148, Control_c, 11, 7, 87
16, 282169, Control_c, 11, 1, 45
16, 282192, Control_c, 11, 1, 41
16, 282194, Control_c, 11, 7, 86
16, 282211, Control_c, 11, 1, 37
16, 282227, Control_c, 11, 1, 33
16, 282240, Control_c, 11, 7, 85
16, 282246, Control_c, 11, 1, 28
16, 282263, Control_c, 11, 1, 24
16, 282285, Control_c, 11, 7, 84
16, 282286, Control_c, 11, 1, 20
16, 282305, Control_c, 11, 1, 16
16, 282321, Control_c, 11, 1, 8
16, 282331, Control_c, 11, 7, 83
16, 282337, Control_c, 11, 1, 4
16, 282356, Control_c, 11, 1, 0
16, 282377, Control_c, 11, 7, 82
16, 282422, Control_c, 11, 7, 81
16, 282468, Control_c, 11, 7, 80
16, 282514, Control_c, 11, 7, 79
16, 282560, Control_c, 11, 7, 78
16, 282605, Control_c, 11, 7, 77
16, 282651, Control_c, 11, 7, 76
16, 282697, Control_c, 11, 7, 75
16, 282742, Control_c, 11, 7, 74
16, 282788, Control_c, 11, 7, 73
16, 282834, Control_c, 11, 7, 72
16, 282880, Control_c, 11, 7, 71
16, 282925, Control_c, 11, 7, 70
16, 282971, Control_c, 11, 7, 69
16, 283017, Control_c, 11, 7, 68
16, 283062, Control_c, 11, 7, 67
16, 283108, Control_c, 11, 7, 66
16, 283154, Control_c, 11, 7, 65
16, 283200, Control_c, 11, 7, 64
16, 283245, Control_c, 11, 7, 63
16, 283291, Control_c, 11, 7, 62
16, 283337, Control_c, 11, 7, 61
16, 283369, Note_on_c, 11, 38, 0
16, 283382, Control_c, 11, 7, 60
16, 283428, Control_c, 11, 7, 59
16, 283474, Control_c, 11, 7, 58
16, 283520, Control_c, 11, 7, 57
16, 283565, Control_c, 11, 7, 56
16, 283611, Control_c, 11, 7, 55
16, 283657, Control_c, 11, 7, 54
16, 283702, Control_c, 11, 7, 53
16, 283748, Control_c, 11, 7, 52
16, 283794, Control_c, 11, 7, 51
16, 283840, Control_c, 11, 7, 50
16, 283885, Control_c, 11, 7, 49
16, 283931, Control_c, 11, 7, 48
16, 283977, Control_c, 11, 7, 47
16, 284160, End_track
17, 0, Start_track
17, 0, Text_t, "ch 1"
17, 0, Control_c, 6, 32, 0
17, 22, Program_c, 6, 52
17, 33, Control_c, 6, 7, 127
17, 500, Control_c, 6, 11, 127
17, 520, Control_c, 6, 1, 33
17, 960, Control_c, 6, 10, 111
17, 970, Pitch_bend_c, 6, 8198
17, 73476, Note_on_c, 6, 69, 93
17, 73680, Note_on_c, 6, 69, 0
17, 73839, Note_on_c, 6, 69, 95
17, 74700, Note_on_c, 6, 69, 0
17, 75409, Note_on_c, 6, 69, 93
17, 75582, Note_on_c, 6, 69, 0
17, 75765, Note_on_c, 6, 69, 89
17, 76572, Note_on_c, 6, 69, 0
17, 77293, Note_on_c, 6, 69, 92
17, 77517, Note_on_c, 6, 69, 0
17, 77674, Note_on_c, 6, 69, 94
17, 78640, Note_on_c, 6, 69, 0
17, 79211, Note_on_c, 6, 69, 94
17, 79424, Note_on_c, 6, 69, 0
17, 79581, Note_on_c, 6, 69, 95
17, 80622, Note_on_c, 6, 69, 0
17, 81142, Note_on_c, 6, 69, 91
17, 81336, Note_on_c, 6, 69, 0
17, 81486, Note_on_c, 6, 69, 92
17, 82347, Note_on_c, 6, 69, 0
17, 83037, Note_on_c, 6, 69, 91
17, 83208, Note_on_c, 6, 69, 0
17, 83409, Note_on_c, 6, 69, 92
17, 84100, Note_on_c, 6, 69, 0
17, 84961, Note_on_c, 6, 69, 89
17, 85141, Note_on_c, 6, 69, 0
17, 85319, Note_on_c, 6, 69, 92
17, 86086, Note_on_c, 6, 69, 0
17, 86880, Note_on_c, 6, 69, 94
17, 87036, Note_on_c, 6, 69, 0
17, 87240, Note_on_c, 6, 69, 92
17, 87614, Note_on_c, 6, 69, 0
17, 88817, Note_on_c, 6, 69, 91
17, 89065, Note_on_c, 6, 69, 0
17, 89241, Note_on_c, 6, 69, 91
17, 90062, Note_on_c, 6, 69, 0
17, 90696, Note_on_c, 6, 69, 95
17, 90879, Note_on_c, 6, 69, 0
17, 91054, Note_on_c, 6, 69, 92
17, 91817, Note_on_c, 6, 69, 0
17, 92641, Note_on_c, 6, 69, 96
17, 92793, Note_on_c, 6, 69, 0
17, 92994, Note_on_c, 6, 69, 94
17, 93368, Note_on_c, 6, 69, 0
17, 94557, Note_on_c, 6, 69, 97
17, 94742, Note_on_c, 6, 69, 0
17, 94910, Note_on_c, 6, 69, 94
17, 95252, Note_on_c, 6, 69, 0
17, 96474, Note_on_c, 6, 69, 93
17, 96710, Note_on_c, 6, 69, 0
17, 96846, Note_on_c, 6, 69, 97
17, 98006, Note_on_c, 6, 69, 0
17, 98413, Note_on_c, 6, 69, 98
17, 98610, Note_on_c, 6, 69, 0
17, 98767, Note_on_c, 6, 69, 98
17, 99841, Note_on_c, 6, 69, 0
17, 100278, Note_on_c, 6, 69, 97
17, 100473, Note_on_c, 6, 69, 0
17, 100658, Note_on_c, 6, 69, 93
17, 100936, Note_on_c, 6, 69, 0
17, 102246, Note_on_c, 6, 69, 94
17, 102438, Note_on_c, 6, 69, 0
17, 102618, Note_on_c, 6, 69, 97
17, 102967, Note_on_c, 6, 69, 0
17, 104158, Note_on_c, 6, 69, 96
17, 104355, Note_on_c, 6, 69, 0
17, 104542, Note_on_c, 6, 69, 97
17, 105258, Note_on_c, 6, 69, 0
17, 106096, Note_on_c, 6, 69, 97
17, 106269, Note_on_c, 6, 69, 0
17, 106449, Note_on_c, 6, 69, 96
17, 107123, Note_on_c, 6, 69, 0
17, 108007, Note_on_c, 6, 69, 94
17, 108171, Note_on_c, 6, 69, 0
17, 108335, Note_on_c, 6, 69, 93
17, 108616, Note_on_c, 6, 69, 0
17, 109440, Control_c, 6, 7, 90
17, 109922, Note_on_c, 6, 69, 93
17, 110102, Note_on_c, 6, 69, 0
17, 110273, Note_on_c, 6, 69, 97
17, 110402, Control_c, 6, 7, 91
17, 110612, Note_on_c, 6, 69, 0
17, 111365, Control_c, 6, 7, 92
17, 111406, Note_on_c, 6, 69, 115
17, 111838, Note_on_c, 6, 69, 94
17, 112025, Note_on_c, 6, 69, 0
17, 112210, Note_on_c, 6, 69, 93
17, 112328, Control_c, 6, 7, 93
17, 112690, Note_on_c, 6, 69, 0
17, 113273, Note_on_c, 6, 69, 0
17, 113291, Control_c, 6, 7, 94
17, 113299, Note_on_c, 6, 67, 108
17, 113778, Note_on_c, 6, 69, 97
17, 113949, Note_on_c, 6, 69, 0
17, 114138, Note_on_c, 6, 69, 94
17, 114253, Control_c, 6, 7, 95
17, 114634, Note_on_c, 6, 69, 0
17, 115190, Note_on_c, 6, 67, 0
17, 115201, Note_on_c, 6, 65, 108
17, 115216, Control_c, 6, 7, 96
17, 116179, Control_c, 6, 7, 97
17, 117111, Note_on_c, 6, 69, 111
17, 117142, Control_c, 6, 7, 98
17, 117190, Note_on_c, 6, 65, 0
17, 118104, Control_c, 6, 7, 99
17, 118791, Note_on_c, 6, 69, 0
17, 119060, Note_on_c, 6, 69, 109
17, 119067, Control_c, 6, 7, 100
17, 120030, Control_c, 6, 7, 101
17, 120934, Note_on_c, 6, 69, 0
17, 120967, Note_on_c, 6, 67, 115
17, 120993, Control_c, 6, 7, 102
17, 121955, Control_c, 6, 7, 103
17, 122918, Control_c, 6, 7, 104
17, 123005, Note_on_c, 6, 67, 0
17, 123115, Note_on_c, 6, 74, 113
17, 123881, Control_c, 6, 7, 105
17, 124844, Control_c, 6, 7, 106
17, 124875, Note_on_c, 6, 74, 0
17, 124975, Note_on_c, 6, 74, 111
17, 125807, Control_c, 6, 7, 107
17, 126578, Note_on_c, 6, 74, 0
17, 126726, Note_on_c, 6, 74, 120
17, 126769, Control_c, 6, 7, 108
17, 127732, Control_c, 6, 7, 109
17, 128656, Note_on_c, 6, 72, 113
17, 128661, Note_on_c, 6, 74, 0
17, 128695, Control_c, 6, 7, 110
17, 129658, Control_c, 6, 7, 111
17, 130580, Note_on_c, 6, 72, 0
17, 130601, Note_on_c, 6, 67, 109
17, 130620, Control_c, 6, 7, 112
17, 131583, Control_c, 6, 7, 113
17, 132496, Note_on_c, 6, 69, 118
17, 132529, Note_on_c, 6, 67, 0
17, 132546, Control_c, 6, 7, 114
17, 133509, Control_c, 6, 7, 115
17, 134422, Note_on_c, 6, 69, 0
17, 134471, Control_c, 6, 7, 116
17, 135434, Control_c, 6, 7, 117
17, 136397, Control_c, 6, 7, 118
17, 137360, Control_c, 6, 7, 119
17, 138323, Control_c, 6, 7, 120
17, 139285, Control_c, 6, 7, 121
17, 140248, Control_c, 6, 7, 122
17, 141211, Control_c, 6, 7, 123
17, 142174, Control_c, 6, 7, 124
17, 143136, Control_c, 6, 7, 125
17, 144099, Control_c, 6, 7, 126
17, 145062, Control_c, 6, 7, 127
17, 149760, Note_on_c, 6, 74, 108
17, 149786, Note_on_c, 6, 74, 110
17, 151639, Note_on_c, 6, 72, 114
17, 151677, Note_on_c, 6, 74, 0
17, 151686, Note_on_c, 6, 72, 111
17, 151724, Note_on_c, 6, 74, 0
17, 153600, Note_on_c, 6, 67, 113
17, 153614, Note_on_c, 6, 72, 0
17, 153631, Note_on_c, 6, 67, 106
17, 153638, Note_on_c, 6, 72, 0
17, 155507, Note_on_c, 6, 69, 114
17, 155529, Note_on_c, 6, 67, 0
17, 155533, Note_on_c, 6, 62, 116
17, 155545, Note_on_c, 6, 67, 0
17, 155652, Control_c, 6, 7, 127
17, 156615, Control_c, 6, 7, 127
17, 157248, Note_on_c, 6, 69, 0
17, 157431, Note_on_c, 6, 69, 120
17, 157463, Note_on_c, 6, 69, 106
17, 157478, Note_on_c, 6, 62, 0
17, 157578, Control_c, 6, 7, 127
17, 159366, Note_on_c, 6, 69, 0
17, 159366, Note_on_c, 6, 67, 117
17, 159488, Note_on_c, 6, 69, 0
17, 159488, Note_on_c, 6, 67, 112
17, 161278, Note_on_c, 6, 67, 0
17, 161299, Note_on_c, 6, 65, 121
17, 161427, Note_on_c, 6, 67, 0
17, 161434, Note_on_c, 6, 62, 115
17, 163211, Note_on_c, 6, 65, 0
17, 163227, Note_on_c, 6, 62, 120
17, 163367, Note_on_c, 6, 62, 0
17, 165141, Note_on_c, 6, 62, 0
17, 165144, Note_on_c, 6, 74, 123
17, 167058, Note_on_c, 6, 72, 118
17, 167086, Note_on_c, 6, 74, 0
17, 168974, Note_on_c, 6, 72, 0
17, 168979, Note_on_c, 6, 71, 119
17, 170858, Note_on_c, 6, 71, 0
17, 170886, Note_on_c, 6, 69, 113
17, 172819, Note_on_c, 6, 74, 121
17, 172838, Note_on_c, 6, 69, 0
17, 174714, Note_on_c, 6, 72, 121
17, 174726, Note_on_c, 6, 74, 0
17, 176652, Note_on_c, 6, 72, 0
17, 176661, Note_on_c, 6, 67, 120
17, 178542, Note_on_c, 6, 69, 124
17, 178596, Note_on_c, 6, 67, 0
17, 180501, Note_on_c, 6, 69, 0
17, 180501, Note_on_c, 6, 74, 121
17, 182399, Note_on_c, 6, 72, 118
17, 182441, Note_on_c, 6, 74, 0
17, 184343, Note_on_c, 6, 71, 120
17, 184381, Note_on_c, 6, 72, 0
17, 186241, Note_on_c, 6, 71, 0
17, 186253, Note_on_c, 6, 69, 118
17, 188179, Note_on_c, 6, 74, 120
17, 188200, Note_on_c, 6, 69, 0
17, 190093, Note_on_c, 6, 72, 121
17, 190097, Note_on_c, 6, 74, 0
17, 192009, Note_on_c, 6, 72, 0
17, 192021, Note_on_c, 6, 67, 115
17, 193928, Note_on_c, 6, 69, 121
17, 193975, Note_on_c, 6, 67, 0
17, 195681, Note_on_c, 6, 69, 0
17, 195863, Note_on_c, 6, 69, 117
17, 197805, Note_on_c, 6, 69, 0
17, 197817, Note_on_c, 6, 67, 119
17, 199696, Note_on_c, 6, 67, 0
17, 199708, Note_on_c, 6, 65, 124
17, 201598, Note_on_c, 6, 65, 0
17, 201617, Note_on_c, 6, 62, 117
17, 203564, Note_on_c, 6, 69, 117
17, 203618, Note_on_c, 6, 62, 0
17, 205455, Note_on_c, 6, 67, 117
17, 205485, Note_on_c, 6, 69, 0
17, 207479, Note_on_c, 6, 65, 121
17, 207491, Note_on_c, 6, 67, 0
17, 209438, Note_on_c, 6, 65, 0
17, 209442, Note_on_c, 6, 62, 116
17, 211464, Note_on_c, 6, 74, 116
17, 211501, Note_on_c, 6, 62, 0
17, 213291, Note_on_c, 6, 72, 93
17, 213310, Note_on_c, 6, 74, 0
17, 215135, Note_on_c, 6, 72, 0
17, 215161, Note_on_c, 6, 71, 116
17, 217075, Note_on_c, 6, 69, 121
17, 217096, Note_on_c, 6, 71, 0
17, 219132, Note_on_c, 6, 74, 116
17, 219156, Note_on_c, 6, 69, 0
17, 221072, Note_on_c, 6, 72, 113
17, 221133, Note_on_c, 6, 74, 0
17, 222981, Note_on_c, 6, 67, 111
17, 222988, Note_on_c, 6, 72, 0
17, 224898, Note_on_c, 6, 69, 120
17, 224947, Note_on_c, 6, 67, 0
17, 226789, Note_on_c, 6, 74, 122
17, 226810, Note_on_c, 6, 69, 0
17, 228731, Note_on_c, 6, 72, 117
17, 228787, Note_on_c, 6, 74, 0
17, 230629, Note_on_c, 6, 71, 114
17, 230654, Note_on_c, 6, 72, 0
17, 232529, Note_on_c, 6, 71, 0
17, 232529, Note_on_c, 6, 69, 112
17, 234377, Note_on_c, 6, 74, 119
17, 234384, Note_on_c, 6, 69, 0
17, 236252, Note_on_c, 6, 72, 112
17, 236317, Note_on_c, 6, 74, 0
17, 238208, Note_on_c, 6, 71, 112
17, 238243, Note_on_c, 6, 72, 0
17, 240152, Note_on_c, 6, 71, 0
17, 240155, Note_on_c, 6, 69, 115
17, 242062, Note_on_c, 6, 74, 108
17, 242090, Note_on_c, 6, 69, 0
17, 243946, Note_on_c, 6, 72, 113
17, 243978, Note_on_c, 6, 74, 0
17, 245899, Note_on_c, 6, 67, 107
17, 245904, Note_on_c, 6, 72, 0
17, 247818, Note_on_c, 6, 69, 117
17, 247874, Note_on_c, 6, 67, 0
17, 249739, Note_on_c, 6, 69, 0
17, 249739, Note_on_c, 6, 74, 114
17, 251632, Note_on_c, 6, 72, 116
17, 251689, Note_on_c, 6, 74, 0
17, 253558, Note_on_c, 6, 67, 111
17, 253565, Note_on_c, 6, 72, 0
17, 255500, Note_on_c, 6, 69, 94
17, 255519, Note_on_c, 6, 67, 0
17, 257445, Note_on_c, 6, 69, 0
17, 284160, End_track
18, 0, Start_track
18, 0, Text_t, "ch2"
18, 0, Control_c, 8, 32, 0
18, 22, Program_c, 8, 52
18, 33, Control_c, 8, 7, 127
18, 500, Control_c, 8, 11, 127
18, 520, Control_c, 8, 1, 33
18, 960, Control_c, 8, 10, 46
18, 970, Pitch_bend_c, 8, 8186
18, 109440, Control_c, 8, 7, 69
18, 110402, Control_c, 8, 7, 70
18, 111365, Control_c, 8, 7, 71
18, 111406, Note_on_c, 8, 69, 81
18, 112328, Control_c, 8, 7, 72
18, 113273, Note_on_c, 8, 69, 0
18, 113291, Control_c, 8, 7, 73
18, 113299, Note_on_c, 8, 67, 74
18, 114253, Control_c, 8, 7, 74
18, 115190, Note_on_c, 8, 67, 0
18, 115201, Note_on_c, 8, 65, 74
18, 115216, Control_c, 8, 7, 75
18, 116179, Control_c, 8, 7, 76
18, 117111, Note_on_c, 8, 69, 77
18, 117142, Control_c, 8, 7, 77
18, 117190, Note_on_c, 8, 65, 0
18, 118104, Control_c, 8, 7, 78
18, 118791, Note_on_c, 8, 69, 0
18, 119060, Note_on_c, 8, 69, 75
18, 119067, Control_c, 8, 7, 79
18, 120030, Control_c, 8, 7, 80
18, 120934, Note_on_c, 8, 69, 0
18, 120967, Note_on_c, 8, 67, 81
18, 120993, Control_c, 8, 7, 81
18, 121955, Control_c, 8, 7, 82
18, 122918, Control_c, 8, 7, 83
18, 123005, Note_on_c, 8, 67, 0
18, 123115, Note_on_c, 8, 74, 79
18, 123881, Control_c, 8, 7, 84
18, 124844, Control_c, 8, 7, 85
18, 124875, Note_on_c, 8, 74, 0
18, 124975, Note_on_c, 8, 74, 77
18, 125807, Control_c, 8, 7, 86
18, 126578, Note_on_c, 8, 74, 0
18, 126726, Note_on_c, 8, 74, 86
18, 126769, Control_c, 8, 7, 87
18, 127732, Control_c, 8, 7, 88
18, 128656, Note_on_c, 8, 72, 79
18, 128661, Note_on_c, 8, 74, 0
18, 128695, Control_c, 8, 7, 89
18, 129658, Control_c, 8, 7, 90
18, 130580, Note_on_c, 8, 72, 0
18, 130601, Note_on_c, 8, 67, 75
18, 130620, Control_c, 8, 7, 91
18, 131583, Control_c, 8, 7, 92
18, 132496, Note_on_c, 8, 69, 84
18, 132529, Note_on_c, 8, 67, 0
18, 132546, Control_c, 8, 7, 93
18, 133509, Control_c, 8, 7, 94
18, 134422, Note_on_c, 8, 69, 0
18, 134471, Control_c, 8, 7, 95
18, 135434, Control_c, 8, 7, 96
18, 136397, Control_c, 8, 7, 97
18, 137360, Control_c, 8, 7, 98
18, 138323, Control_c, 8, 7, 99
18, 139285, Control_c, 8, 7, 100
18, 140248, Control_c, 8, 7, 101
18, 141211, Control_c, 8, 7, 102
18, 142174, Control_c, 8, 7, 103
18, 143136, Control_c, 8, 7, 104
18, 144099, Control_c, 8, 7, 105
18, 145062, Control_c, 8, 7, 106
18, 146025, Control_c, 8, 7, 107
18, 146987, Control_c, 8, 7, 108
18, 147950, Control_c, 8, 7, 109
18, 148913, Control_c, 8, 7, 110
18, 149760, Note_on_c, 8, 74, 74
18, 149786, Note_on_c, 8, 74, 76
18, 149876, Control_c, 8, 7, 111
18, 150838, Control_c, 8, 7, 112
18, 151639, Note_on_c, 8, 72, 80
18, 151677, Note_on_c, 8, 74, 0
18, 151686, Note_on_c, 8, 72, 77
18, 151724, Note_on_c, 8, 74, 0
18, 151801, Control_c, 8, 7, 113
18, 152764, Control_c, 8, 7, 114
18, 153600, Note_on_c, 8, 67, 79
18, 153614, Note_on_c, 8, 72, 0
18, 153631, Note_on_c, 8, 67, 72
18, 153638, Note_on_c, 8, 72, 0
18, 153727, Control_c, 8, 7, 115
18, 154690, Control_c, 8, 7, 116
18, 155507, Note_on_c, 8, 69, 80
18, 155529, Note_on_c, 8, 67, 0
18, 155533, Note_on_c, 8, 62, 82
18, 155545, Note_on_c, 8, 67, 0
18, 155652, Control_c, 8, 7, 117
18, 156615, Control_c, 8, 7, 118
18, 157248, Note_on_c, 8, 69, 0
18, 157431, Note_on_c, 8, 69, 86
18, 157463, Note_on_c, 8, 69, 72
18, 157478, Note_on_c, 8, 62, 0
18, 157578, Control_c, 8, 7, 119
18, 158541, Control_c, 8, 7, 120
18, 159366, Note_on_c, 8, 69, 0
18, 159366, Note_on_c, 8, 67, 83
18, 159488, Note_on_c, 8, 69, 0
18, 159488, Note_on_c, 8, 67, 78
18, 159503, Control_c, 8, 7, 121
18, 160466, Control_c, 8, 7, 122
18, 161278, Note_on_c, 8, 67, 0
18, 161299, Note_on_c, 8, 65, 87
18, 161427, Note_on_c, 8, 67, 0
18, 161429, Control_c, 8, 7, 123
18, 161434, Note_on_c, 8, 62, 81
18, 162392, Control_c, 8, 7, 124
18, 163211, Note_on_c, 8, 65, 0
18, 163227, Note_on_c, 8, 62, 86
18, 163354, Control_c, 8, 7, 125
18, 163367, Note_on_c, 8, 62, 0
18, 164317, Control_c, 8, 7, 126
18, 165141, Note_on_c, 8, 62, 0
18, 165144, Note_on_c, 8, 74, 89
18, 166243, Control_c, 8, 7, 127
18, 167058, Note_on_c, 8, 72, 84
18, 167086, Note_on_c, 8, 74, 0
18, 168974, Note_on_c, 8, 72, 0
18, 168979, Note_on_c, 8, 71, 85
18, 170858, Note_on_c, 8, 71, 0
18, 170886, Note_on_c, 8, 69, 79
18, 172819, Note_on_c, 8, 74, 87
18, 172838, Note_on_c, 8, 69, 0
18, 174714, Note_on_c, 8, 72, 87
18, 174726, Note_on_c, 8, 74, 0
18, 176652, Note_on_c, 8, 72, 0
18, 176661, Note_on_c, 8, 67, 86
18, 178542, Note_on_c, 8, 69, 90
18, 178596, Note_on_c, 8, 67, 0
18, 180501, Note_on_c, 8, 69, 0
18, 180501, Note_on_c, 8, 74, 87
18, 182399, Note_on_c, 8, 72, 84
18, 182441, Note_on_c, 8, 74, 0
18, 184343, Note_on_c, 8, 71, 86
18, 184381, Note_on_c, 8, 72, 0
18, 186241, Note_on_c, 8, 71, 0
18, 186253, Note_on_c, 8, 69, 84
18, 188179, Note_on_c, 8, 74, 86
18, 188200, Note_on_c, 8, 69, 0
18, 190093, Note_on_c, 8, 72, 87
18, 190097, Note_on_c, 8, 74, 0
18, 192009, Note_on_c, 8, 72, 0
18, 192021, Note_on_c, 8, 67, 81
18, 193928, Note_on_c, 8, 69, 87
18, 193975, Note_on_c, 8, 67, 0
18, 195681, Note_on_c, 8, 69, 0
18, 195863, Note_on_c, 8, 69, 83
18, 197805, Note_on_c, 8, 69, 0
18, 197817, Note_on_c, 8, 67, 85
18, 199696, Note_on_c, 8, 67, 0
18, 199708, Note_on_c, 8, 65, 90
18, 201598, Note_on_c, 8, 65, 0
18, 201617, Note_on_c, 8, 62, 83
18, 203564, Note_on_c, 8, 69, 83
18, 203618, Note_on_c, 8, 62, 0
18, 205455, Note_on_c, 8, 67, 83
18, 205485, Note_on_c, 8, 69, 0
18, 207479, Note_on_c, 8, 65, 87
18, 207491, Note_on_c, 8, 67, 0
18, 209438, Note_on_c, 8, 65, 0
18, 209442, Note_on_c, 8, 62, 82
18, 211464, Note_on_c, 8, 74, 82
18, 211501, Note_on_c, 8, 62, 0
18, 213291, Note_on_c, 8, 72, 59
18, 213310, Note_on_c, 8, 74, 0
18, 215135, Note_on_c, 8, 72, 0
18, 215161, Note_on_c, 8, 71, 82
18, 217075, Note_on_c, 8, 69, 87
18, 217096, Note_on_c, 8, 71, 0
18, 219132, Note_on_c, 8, 74, 82
18, 219156, Note_on_c, 8, 69, 0
18, 221072, Note_on_c, 8, 72, 79
18, 221133, Note_on_c, 8, 74, 0
18, 222981, Note_on_c, 8, 67, 77
18, 222988, Note_on_c, 8, 72, 0
18, 224898, Note_on_c, 8, 69, 86
18, 224947, Note_on_c, 8, 67, 0
18, 226789, Note_on_c, 8, 74, 88
18, 226810, Note_on_c, 8, 69, 0
18, 228731, Note_on_c, 8, 72, 83
18, 228787, Note_on_c, 8, 74, 0
18, 230629, Note_on_c, 8, 71, 80
18, 230654, Note_on_c, 8, 72, 0
18, 232529, Note_on_c, 8, 71, 0
18, 232529, Note_on_c, 8, 69, 78
18, 234377, Note_on_c, 8, 74, 85
18, 234384, Note_on_c, 8, 69, 0
18, 236252, Note_on_c, 8, 72, 78
18, 236317, Note_on_c, 8, 74, 0
18, 238208, Note_on_c, 8, 71, 78
18, 238243, Note_on_c, 8, 72, 0
18, 240152, Note_on_c, 8, 71, 0
18, 240155, Note_on_c, 8, 69, 81
18, 242062, Note_on_c, 8, 74, 74
18, 242090, Note_on_c, 8, 69, 0
18, 243946, Note_on_c, 8, 72, 79
18, 243978, Note_on_c, 8, 74, 0
18, 245899, Note_on_c, 8, 67, 73
18, 245904, Note_on_c, 8, 72, 0
18, 247818, Note_on_c, 8, 69, 83
18, 247874, Note_on_c, 8, 67, 0
18, 249739, Note_on_c, 8, 69, 0
18, 249739, Note_on_c, 8, 74, 80
18, 251632, Note_on_c, 8, 72, 82
18, 251689, Note_on_c, 8, 74, 0
18, 253558, Note_on_c, 8, 67, 77
18, 253565, Note_on_c, 8, 72, 0
18, 255500, Note_on_c, 8, 69, 60
18, 255519, Note_on_c, 8, 67, 0
18, 257445, Note_on_c, 8, 69, 0
18, 284160, End_track
19, 0, Start_track
19, 0, Text_t, "ch port"
19, 0, Control_c, 5, 32, 0
19, 22, Program_c, 5, 54
19, 33, Control_c, 5, 7, 127
19, 500, Control_c, 5, 11, 127
19, 520, Control_c, 5, 1, 33
19, 960, Control_c, 5, 10, 12
19, 1920, Pitch_bend_c, 5, 8189
19, 73469, Note_on_c, 5, 74, 80
19, 73766, Note_on_c, 5, 74, 0
19, 73871, Note_on_c, 5, 74, 85
19, 74779, Note_on_c, 5, 74, 0
19, 75376, Note_on_c, 5, 74, 87
19, 75603, Note_on_c, 5, 74, 0
19, 75771, Note_on_c, 5, 74, 92
19, 76576, Note_on_c, 5, 74, 0
19, 77290, Note_on_c, 5, 74, 89
19, 77545, Note_on_c, 5, 74, 0
19, 77688, Note_on_c, 5, 74, 86
19, 78425, Note_on_c, 5, 74, 0
19, 79190, Note_on_c, 5, 74, 91
19, 79464, Note_on_c, 5, 74, 0
19, 79606, Note_on_c, 5, 74, 89
19, 80374, Note_on_c, 5, 74, 0
19, 81111, Note_on_c, 5, 74, 89
19, 81366, Note_on_c, 5, 74, 0
19, 81516, Note_on_c, 5, 74, 92
19, 81972, Pitch_bend_c, 5, 8322
19, 81991, Pitch_bend_c, 5, 8452
19, 82007, Pitch_bend_c, 5, 8582
19, 82023, Pitch_bend_c, 5, 8712
19, 82058, Pitch_bend_c, 5, 8842
19, 82108, Pitch_bend_c, 5, 8972
19, 82150, Pitch_bend_c, 5, 9102
19, 82286, Note_on_c, 5, 74, 0
19, 82332, Pitch_bend_c, 5, 8972
19, 82349, Pitch_bend_c, 5, 8712
19, 82365, Pitch_bend_c, 5, 8452
19, 82374, Pitch_bend_c, 5, 8322
19, 82384, Pitch_bend_c, 5, 8192
19, 83051, Note_on_c, 5, 74, 89
19, 83257, Note_on_c, 5, 74, 0
19, 83437, Note_on_c, 5, 74, 87
19, 84148, Note_on_c, 5, 74, 0
19, 84963, Note_on_c, 5, 74, 63
19, 85194, Note_on_c, 5, 74, 0
19, 85349, Note_on_c, 5, 74, 96
19, 86170, Note_on_c, 5, 74, 0
19, 86898, Note_on_c, 5, 74, 92
19, 87127, Note_on_c, 5, 74, 0
19, 87286, Note_on_c, 5, 74, 94
19, 88428, Note_on_c, 5, 74, 0
19, 88784, Note_on_c, 5, 76, 95
19, 89013, Note_on_c, 5, 76, 0
19, 89170, Note_on_c, 5, 76, 94
19, 90090, Note_on_c, 5, 76, 0
19, 90726, Note_on_c, 5, 76, 94
19, 90920, Note_on_c, 5, 76, 0
19, 91114, Note_on_c, 5, 76, 94
19, 92015, Note_on_c, 5, 76, 0
19, 92652, Note_on_c, 5, 74, 90
19, 92869, Note_on_c, 5, 74, 0
19, 93036, Note_on_c, 5, 74, 89
19, 93419, Pitch_bend_c, 5, 8452
19, 93433, Pitch_bend_c, 5, 8582
19, 93452, Pitch_bend_c, 5, 8712
19, 93468, Pitch_bend_c, 5, 8842
19, 93485, Pitch_bend_c, 5, 9102
19, 93503, Pitch_bend_c, 5, 9232
19, 93520, Pitch_bend_c, 5, 9362
19, 93536, Pitch_bend_c, 5, 9492
19, 93562, Pitch_bend_c, 5, 9622
19, 93578, Pitch_bend_c, 5, 9752
19, 93597, Pitch_bend_c, 5, 9882
19, 93613, Pitch_bend_c, 5, 10012
19, 93620, Pitch_bend_c, 5, 10142
19, 93630, Pitch_bend_c, 5, 10272
19, 93635, Note_on_c, 5, 74, 0
19, 93646, Pitch_bend_c, 5, 10402
19, 93665, Pitch_bend_c, 5, 10532
19, 93681, Pitch_bend_c, 5, 10792
19, 93698, Pitch_bend_c, 5, 10922
19, 93716, Pitch_bend_c, 5, 11052
19, 93808, Pitch_bend_c, 5, 10922
19, 93815, Pitch_bend_c, 5, 10792
19, 93824, Pitch_bend_c, 5, 10662
19, 93833, Pitch_bend_c, 5, 10402
19, 93840, Pitch_bend_c, 5, 10272
19, 93850, Pitch_bend_c, 5, 10012
19, 93868, Pitch_bend_c, 5, 9882
19, 93885, Pitch_bend_c, 5, 9752
19, 93901, Pitch_bend_c, 5, 9622
19, 93920, Pitch_bend_c, 5, 9492
19, 93927, Pitch_bend_c, 5, 9362
19, 93943, Pitch_bend_c, 5, 9102
19, 93953, Pitch_bend_c, 5, 8972
19, 93971, Pitch_bend_c, 5, 8842
19, 93988, Pitch_bend_c, 5, 8712
19, 94004, Pitch_bend_c, 5, 8582
19, 94020, Pitch_bend_c, 5, 8322
19, 94030, Pitch_bend_c, 5, 8192
19, 94571, Note_on_c, 5, 74, 94
19, 94795, Note_on_c, 5, 74, 0
19, 94985, Note_on_c, 5, 74, 91
19, 95626, Note_on_c, 5, 74, 0
19, 96492, Note_on_c, 5, 76, 94
19, 96719, Note_on_c, 5, 76, 0
19, 96887, Note_on_c, 5, 76, 95
19, 97554, Note_on_c, 5, 76, 0
19, 98366, Note_on_c, 5, 76, 86
19, 98560, Note_on_c, 5, 76, 0
19, 98762, Note_on_c, 5, 76, 84
19, 99712, Note_on_c, 5, 76, 0
19, 100346, Note_on_c, 5, 74, 97
19, 100570, Note_on_c, 5, 74, 0
19, 100746, Note_on_c, 5, 74, 92
19, 100916, Pitch_bend_c, 5, 8452
19, 100923, Pitch_bend_c, 5, 8582
19, 100933, Pitch_bend_c, 5, 8712
19, 100942, Pitch_bend_c, 5, 8842
19, 100959, Pitch_bend_c, 5, 8972
19, 100975, Pitch_bend_c, 5, 9102
19, 100991, Pitch_bend_c, 5, 9232
19, 101001, Pitch_bend_c, 5, 9362
19, 101017, Pitch_bend_c, 5, 9492
19, 101036, Pitch_bend_c, 5, 9622
19, 101052, Pitch_bend_c, 5, 9752
19, 101085, Pitch_bend_c, 5, 9882
19, 101120, Pitch_bend_c, 5, 10012
19, 101146, Pitch_bend_c, 5, 10142
19, 101169, Pitch_bend_c, 5, 10272
19, 101211, Pitch_bend_c, 5, 10402
19, 101246, Pitch_bend_c, 5, 10532
19, 101263, Pitch_bend_c, 5, 10662
19, 101279, Pitch_bend_c, 5, 10922
19, 101305, Pitch_bend_c, 5, 11052
19, 101363, Pitch_bend_c, 5, 11182
19, 101368, Note_on_c, 5, 74, 0
19, 101445, Pitch_bend_c, 5, 11052
19, 101464, Pitch_bend_c, 5, 10922
19, 101480, Pitch_bend_c, 5, 10792
19, 101497, Pitch_bend_c, 5, 10662
19, 101523, Pitch_bend_c, 5, 10532
19, 101548, Pitch_bend_c, 5, 10402
19, 101574, Pitch_bend_c, 5, 10142
19, 101607, Pitch_bend_c, 5, 10012
19, 101623, Pitch_bend_c, 5, 9882
19, 101640, Pitch_bend_c, 5, 9752
19, 101665, Pitch_bend_c, 5, 9622
19, 101691, Pitch_bend_c, 5, 9492
19, 101717, Pitch_bend_c, 5, 9362
19, 101733, Pitch_bend_c, 5, 9232
19, 101749, Pitch_bend_c, 5, 9102
19, 101768, Pitch_bend_c, 5, 8972
19, 101785, Pitch_bend_c, 5, 8842
19, 101801, Pitch_bend_c, 5, 8712
19, 101810, Pitch_bend_c, 5, 8582
19, 101817, Pitch_bend_c, 5, 8322
19, 101827, Pitch_bend_c, 5, 8192
19, 102253, Note_on_c, 5, 74, 91
19, 102496, Note_on_c, 5, 74, 0
19, 102637, Note_on_c, 5, 74, 91
19, 103067, Pitch_bend_c, 5, 8322
19, 103081, Pitch_bend_c, 5, 8452
19, 103090, Pitch_bend_c, 5, 8582
19, 103109, Pitch_bend_c, 5, 8712
19, 103149, Pitch_bend_c, 5, 8842
19, 103175, Pitch_bend_c, 5, 8972
19, 103200, Pitch_bend_c, 5, 9102
19, 103259, Pitch_bend_c, 5, 9232
19, 103317, Pitch_bend_c, 5, 9362
19, 103376, Pitch_bend_c, 5, 9492
19, 103425, Pitch_bend_c, 5, 9752
19, 103430, Note_on_c, 5, 74, 0
19, 103451, Pitch_bend_c, 5, 9882
19, 103467, Pitch_bend_c, 5, 10012
19, 103483, Pitch_bend_c, 5, 10142
19, 103542, Pitch_bend_c, 5, 10272
19, 103617, Pitch_bend_c, 5, 10142
19, 103633, Pitch_bend_c, 5, 10012
19, 103643, Pitch_bend_c, 5, 9752
19, 103652, Pitch_bend_c, 5, 9622
19, 103661, Pitch_bend_c, 5, 9492
19, 103668, Pitch_bend_c, 5, 9232
19, 103678, Pitch_bend_c, 5, 9102
19, 103687, Pitch_bend_c, 5, 8972
19, 103696, Pitch_bend_c, 5, 8712
19, 103703, Pitch_bend_c, 5, 8322
19, 103713, Pitch_bend_c, 5, 8192
19, 104188, Note_on_c, 5, 74, 95
19, 104378, Note_on_c, 5, 74, 0
19, 104567, Note_on_c, 5, 74, 91
19, 104976, Pitch_bend_c, 5, 8322
19, 104993, Pitch_bend_c, 5, 8452
19, 105016, Pitch_bend_c, 5, 8712
19, 105042, Pitch_bend_c, 5, 8842
19, 105075, Pitch_bend_c, 5, 8972
19, 105110, Pitch_bend_c, 5, 9102
19, 105142, Pitch_bend_c, 5, 9232
19, 105168, Pitch_bend_c, 5, 9362
19, 105201, Pitch_bend_c, 5, 9492
19, 105243, Pitch_bend_c, 5, 9622
19, 105285, Pitch_bend_c, 5, 9752
19, 105318, Note_on_c, 5, 74, 0
19, 105360, Pitch_bend_c, 5, 9882
19, 105393, Pitch_bend_c, 5, 10012
19, 105510, Pitch_bend_c, 5, 9882
19, 105526, Pitch_bend_c, 5, 9752
19, 105536, Pitch_bend_c, 5, 9622
19, 105545, Pitch_bend_c, 5, 9492
19, 105561, Pitch_bend_c, 5, 9232
19, 105571, Pitch_bend_c, 5, 9102
19, 105578, Pitch_bend_c, 5, 8972
19, 105596, Pitch_bend_c, 5, 8842
19, 105603, Pitch_bend_c, 5, 8712
19, 105613, Pitch_bend_c, 5, 8452
19, 105622, Pitch_bend_c, 5, 8192
19, 106098, Note_on_c, 5, 74, 95
19, 106296, Note_on_c, 5, 74, 0
19, 106465, Note_on_c, 5, 74, 94
19, 107134, Note_on_c, 5, 74, 0
19, 108009, Note_on_c, 5, 74, 91
19, 108218, Note_on_c, 5, 74, 0
19, 108379, Note_on_c, 5, 74, 91
19, 109247, Note_on_c, 5, 74, 0
19, 109935, Note_on_c, 5, 74, 94
19, 110118, Note_on_c, 5, 74, 0
19, 110312, Note_on_c, 5, 74, 94
19, 111021, Note_on_c, 5, 74, 0
19, 111852, Note_on_c, 5, 74, 94
19, 112025, Note_on_c, 5, 74, 0
19, 112212, Note_on_c, 5, 74, 90
19, 112696, Pitch_bend_c, 5, 8452
19, 112712, Pitch_bend_c, 5, 8582
19, 112729, Pitch_bend_c, 5, 8712
19, 112745, Pitch_bend_c, 5, 8842
19, 112771, Pitch_bend_c, 5, 8972
19, 112797, Pitch_bend_c, 5, 9102
19, 112813, Pitch_bend_c, 5, 9232
19, 112829, Pitch_bend_c, 5, 9362
19, 112848, Pitch_bend_c, 5, 9492
19, 112881, Pitch_bend_c, 5, 9622
19, 112890, Pitch_bend_c, 5, 9752
19, 112916, Pitch_bend_c, 5, 9882
19, 112928, Note_on_c, 5, 74, 0
19, 112942, Pitch_bend_c, 5, 10012
19, 112974, Pitch_bend_c, 5, 10142
19, 113056, Pitch_bend_c, 5, 10272
19, 113108, Pitch_bend_c, 5, 10142
19, 113124, Pitch_bend_c, 5, 9882
19, 113134, Pitch_bend_c, 5, 9752
19, 113143, Pitch_bend_c, 5, 9622
19, 113159, Pitch_bend_c, 5, 9492
19, 113166, Pitch_bend_c, 5, 9362
19, 113176, Pitch_bend_c, 5, 9232
19, 113192, Pitch_bend_c, 5, 8972
19, 113201, Pitch_bend_c, 5, 8842
19, 113220, Pitch_bend_c, 5, 8712
19, 113227, Pitch_bend_c, 5, 8582
19, 113237, Pitch_bend_c, 5, 8322
19, 113246, Pitch_bend_c, 5, 8192
19, 113780, Note_on_c, 5, 74, 89
19, 113986, Note_on_c, 5, 74, 0
19, 114161, Note_on_c, 5, 74, 93
19, 114680, Pitch_bend_c, 5, 8322
19, 114697, Pitch_bend_c, 5, 8452
19, 114706, Pitch_bend_c, 5, 8582
19, 114722, Pitch_bend_c, 5, 8712
19, 114732, Pitch_bend_c, 5, 8842
19, 114748, Pitch_bend_c, 5, 8972
19, 114760, Note_on_c, 5, 74, 0
19, 114774, Pitch_bend_c, 5, 9102
19, 114790, Pitch_bend_c, 5, 9232
19, 114832, Pitch_bend_c, 5, 9362
19, 114858, Pitch_bend_c, 5, 9492
19, 114875, Pitch_bend_c, 5, 9622
19, 114884, Pitch_bend_c, 5, 9752
19, 114910, Pitch_bend_c, 5, 9882
19, 114926, Pitch_bend_c, 5, 10012
19, 114952, Pitch_bend_c, 5, 10142
19, 114994, Pitch_bend_c, 5, 10272
19, 115059, Pitch_bend_c, 5, 10142
19, 115085, Pitch_bend_c, 5, 10012
19, 115102, Pitch_bend_c, 5, 9752
19, 115111, Pitch_bend_c, 5, 9622
19, 115120, Pitch_bend_c, 5, 9492
19, 115127, Pitch_bend_c, 5, 9362
19, 115137, Pitch_bend_c, 5, 9232
19, 115155, Pitch_bend_c, 5, 9102
19, 115172, Pitch_bend_c, 5, 8972
19, 115188, Pitch_bend_c, 5, 8842
19, 115197, Pitch_bend_c, 5, 8712
19, 115205, Pitch_bend_c, 5, 8452
19, 115214, Pitch_bend_c, 5, 8192
19, 115685, Note_on_c, 5, 74, 89
19, 115919, Note_on_c, 5, 74, 0
19, 116054, Note_on_c, 5, 74, 88
19, 116791, Pitch_bend_c, 5, 8322
19, 116817, Pitch_bend_c, 5, 8452
19, 116833, Pitch_bend_c, 5, 8582
19, 116866, Pitch_bend_c, 5, 8712
19, 116880, Note_on_c, 5, 74, 0
19, 116892, Pitch_bend_c, 5, 8842
19, 116927, Pitch_bend_c, 5, 8972
19, 117002, Pitch_bend_c, 5, 9102
19, 117093, Pitch_bend_c, 5, 8972
19, 117109, Pitch_bend_c, 5, 8842
19, 117119, Pitch_bend_c, 5, 8712
19, 117128, Pitch_bend_c, 5, 8582
19, 117135, Pitch_bend_c, 5, 8192
19, 117643, Note_on_c, 5, 74, 91
19, 117863, Note_on_c, 5, 74, 0
19, 118013, Note_on_c, 5, 74, 94
19, 118806, Note_on_c, 5, 74, 0
19, 119536, Note_on_c, 5, 74, 89
19, 119719, Note_on_c, 5, 74, 0
19, 119904, Note_on_c, 5, 74, 91
19, 120402, Pitch_bend_c, 5, 8322
19, 120411, Pitch_bend_c, 5, 8452
19, 120418, Pitch_bend_c, 5, 8582
19, 120437, Pitch_bend_c, 5, 8712
19, 120453, Pitch_bend_c, 5, 8842
19, 120470, Pitch_bend_c, 5, 9102
19, 120488, Pitch_bend_c, 5, 9232
19, 120512, Pitch_bend_c, 5, 9362
19, 120537, Pitch_bend_c, 5, 9492
19, 120563, Pitch_bend_c, 5, 9622
19, 120680, Pitch_bend_c, 5, 9492
19, 120696, Pitch_bend_c, 5, 9362
19, 120713, Pitch_bend_c, 5, 9232
19, 120732, Pitch_bend_c, 5, 8972
19, 120748, Pitch_bend_c, 5, 8842
19, 120755, Pitch_bend_c, 5, 8712
19, 120764, Pitch_bend_c, 5, 8582
19, 120774, Pitch_bend_c, 5, 8452
19, 120783, Pitch_bend_c, 5, 8192
19, 120933, Note_on_c, 5, 74, 0
19, 121460, Note_on_c, 5, 74, 91
19, 121687, Note_on_c, 5, 74, 0
19, 121829, Note_on_c, 5, 74, 91
19, 122435, Pitch_bend_c, 5, 8322
19, 122442, Pitch_bend_c, 5, 8582
19, 122459, Pitch_bend_c, 5, 8712
19, 122475, Pitch_bend_c, 5, 8972
19, 122494, Pitch_bend_c, 5, 9102
19, 122510, Pitch_bend_c, 5, 9232
19, 122536, Pitch_bend_c, 5, 9362
19, 122552, Pitch_bend_c, 5, 9492
19, 122564, Note_on_c, 5, 74, 0
19, 122594, Pitch_bend_c, 5, 9622
19, 122877, Pitch_bend_c, 5, 9492
19, 122894, Pitch_bend_c, 5, 9232
19, 122910, Pitch_bend_c, 5, 8972
19, 122917, Pitch_bend_c, 5, 8842
19, 122927, Pitch_bend_c, 5, 8712
19, 122936, Pitch_bend_c, 5, 8322
19, 122945, Pitch_bend_c, 5, 8192
19, 123383, Note_on_c, 5, 74, 93
19, 123580, Note_on_c, 5, 74, 0
19, 123734, Note_on_c, 5, 74, 92
19, 124553, Pitch_bend_c, 5, 8322
19, 124569, Pitch_bend_c, 5, 8452
19, 124574, Note_on_c, 5, 74, 0
19, 124586, Pitch_bend_c, 5, 8582
19, 124604, Pitch_bend_c, 5, 8712
19, 124630, Pitch_bend_c, 5, 8842
19, 124761, Pitch_bend_c, 5, 8712
19, 124777, Pitch_bend_c, 5, 8582
19, 124787, Pitch_bend_c, 5, 8452
19, 124796, Pitch_bend_c, 5, 8192
19, 125304, Note_on_c, 5, 74, 94
19, 125534, Note_on_c, 5, 74, 0
19, 125667, Note_on_c, 5, 74, 94
19, 126315, Pitch_bend_c, 5, 8064
19, 126331, Pitch_bend_c, 5, 7936
19, 126359, Pitch_bend_c, 5, 7808
19, 126383, Pitch_bend_c, 5, 7680
19, 126399, Pitch_bend_c, 5, 7552
19, 126408, Pitch_bend_c, 5, 7424
19, 126451, Pitch_bend_c, 5, 7296
19, 126483, Pitch_bend_c, 5, 7168
19, 126551, Note_on_c, 5, 74, 0
19, 126607, Pitch_bend_c, 5, 7296
19, 126624, Pitch_bend_c, 5, 7424
19, 126633, Pitch_bend_c, 5, 7552
19, 126649, Pitch_bend_c, 5, 7680
19, 126668, Pitch_bend_c, 5, 7936
19, 126685, Pitch_bend_c, 5, 8192
19, 127218, Note_on_c, 5, 74, 94
19, 127434, Note_on_c, 5, 74, 0
19, 127593, Note_on_c, 5, 74, 93
19, 128105, Pitch_bend_c, 5, 8452
19, 128112, Pitch_bend_c, 5, 8582
19, 128121, Pitch_bend_c, 5, 8712
19, 128131, Pitch_bend_c, 5, 8842
19, 128140, Pitch_bend_c, 5, 8972
19, 128156, Pitch_bend_c, 5, 9102
19, 128163, Pitch_bend_c, 5, 9232
19, 128182, Pitch_bend_c, 5, 9492
19, 128199, Pitch_bend_c, 5, 9622
19, 128217, Pitch_bend_c, 5, 9752
19, 128234, Pitch_bend_c, 5, 9882
19, 128259, Pitch_bend_c, 5, 10012
19, 128283, Pitch_bend_c, 5, 10142
19, 128332, Note_on_c, 5, 74, 0
19, 128498, Pitch_bend_c, 5, 10012
19, 128514, Pitch_bend_c, 5, 9882
19, 128533, Pitch_bend_c, 5, 9752
19, 128543, Pitch_bend_c, 5, 9622
19, 128568, Pitch_bend_c, 5, 9362
19, 128575, Pitch_bend_c, 5, 9232
19, 128594, Pitch_bend_c, 5, 9102
19, 128601, Pitch_bend_c, 5, 8972
19, 128617, Pitch_bend_c, 5, 8712
19, 128636, Pitch_bend_c, 5, 8452
19, 128643, Pitch_bend_c, 5, 8322
19, 128652, Pitch_bend_c, 5, 8192
19, 129125, Note_on_c, 5, 74, 93
19, 129296, Note_on_c, 5, 74, 0
19, 129505, Note_on_c, 5, 74, 88
19, 130223, Note_on_c, 5, 74, 0
19, 131047, Note_on_c, 5, 74, 92
19, 131224, Note_on_c, 5, 74, 0
19, 131442, Note_on_c, 5, 74, 91
19, 132317, Note_on_c, 5, 74, 0
19, 132989, Note_on_c, 5, 74, 92
19, 133167, Note_on_c, 5, 74, 0
19, 133349, Note_on_c, 5, 74, 93
19, 133791, Pitch_bend_c, 5, 8322
19, 133798, Pitch_bend_c, 5, 8452
19, 133817, Pitch_bend_c, 5, 8582
19, 133840, Pitch_bend_c, 5, 8712
19, 133875, Pitch_bend_c, 5, 8842
19, 133908, Pitch_bend_c, 5, 8972
19, 133950, Pitch_bend_c, 5, 9102
19, 133976, Pitch_bend_c, 5, 9232
19, 134009, Pitch_bend_c, 5, 9362
19, 134027, Pitch_bend_c, 5, 9492
19, 134109, Pitch_bend_c, 5, 9622
19, 134318, Pitch_bend_c, 5, 9492
19, 134341, Pitch_bend_c, 5, 9362
19, 134357, Pitch_bend_c, 5, 9232
19, 134376, Pitch_bend_c, 5, 9102
19, 134386, Pitch_bend_c, 5, 8972
19, 134400, Pitch_bend_c, 5, 8712
19, 134412, Note_on_c, 5, 74, 0
19, 134418, Pitch_bend_c, 5, 8582
19, 134428, Pitch_bend_c, 5, 8322
19, 134435, Pitch_bend_c, 5, 8192
19, 134917, Note_on_c, 5, 74, 81
19, 135125, Note_on_c, 5, 74, 0
19, 135350, Note_on_c, 5, 76, 90
19, 136085, Note_on_c, 5, 76, 0
19, 136808, Note_on_c, 5, 76, 96
19, 136871, Control_c, 5, 1, 4
19, 136903, Control_c, 5, 1, 8
19, 136952, Control_c, 5, 1, 12
19, 137009, Note_on_c, 5, 76, 0
19, 137027, Control_c, 5, 1, 16
19, 137182, Note_on_c, 5, 76, 98
19, 138181, Note_on_c, 5, 76, 0
19, 138727, Note_on_c, 5, 74, 96
19, 138954, Note_on_c, 5, 74, 0
19, 139103, Note_on_c, 5, 74, 89
19, 139510, Pitch_bend_c, 5, 8452
19, 139517, Pitch_bend_c, 5, 8582
19, 139526, Pitch_bend_c, 5, 8712
19, 139543, Pitch_bend_c, 5, 8842
19, 139552, Pitch_bend_c, 5, 8972
19, 139578, Pitch_bend_c, 5, 9102
19, 139594, Pitch_bend_c, 5, 9232
19, 139613, Pitch_bend_c, 5, 9362
19, 139629, Pitch_bend_c, 5, 9492
19, 139646, Pitch_bend_c, 5, 9622
19, 139662, Pitch_bend_c, 5, 9752
19, 139688, Pitch_bend_c, 5, 9882
19, 139721, Pitch_bend_c, 5, 10012
19, 139746, Pitch_bend_c, 5, 10142
19, 139765, Pitch_bend_c, 5, 10272
19, 139780, Note_on_c, 5, 74, 0
19, 139789, Pitch_bend_c, 5, 10402
19, 139805, Pitch_bend_c, 5, 10532
19, 139824, Pitch_bend_c, 5, 10662
19, 139847, Pitch_bend_c, 5, 10792
19, 139866, Pitch_bend_c, 5, 10922
19, 139889, Pitch_bend_c, 5, 11052
19, 140006, Pitch_bend_c, 5, 10922
19, 140016, Pitch_bend_c, 5, 10792
19, 140032, Pitch_bend_c, 5, 10662
19, 140048, Pitch_bend_c, 5, 10402
19, 140058, Pitch_bend_c, 5, 10272
19, 140067, Pitch_bend_c, 5, 10142
19, 140076, Pitch_bend_c, 5, 10012
19, 140093, Pitch_bend_c, 5, 9882
19, 140102, Pitch_bend_c, 5, 9752
19, 140109, Pitch_bend_c, 5, 9622
19, 140119, Pitch_bend_c, 5, 9492
19, 140128, Pitch_bend_c, 5, 9362
19, 140137, Pitch_bend_c, 5, 9232
19, 140144, Pitch_bend_c, 5, 9102
19, 140154, Pitch_bend_c, 5, 8972
19, 140161, Pitch_bend_c, 5, 8842
19, 140170, Pitch_bend_c, 5, 8582
19, 140179, Pitch_bend_c, 5, 8322
19, 140189, Pitch_bend_c, 5, 8192
19, 140643, Note_on_c, 5, 74, 94
19, 140816, Note_on_c, 5, 74, 0
19, 141010, Note_on_c, 5, 74, 95
19, 141794, Note_on_c, 5, 74, 0
19, 142227, Control_c, 5, 1, 20
19, 142243, Control_c, 5, 1, 24
19, 142269, Control_c, 5, 1, 28
19, 142325, Control_c, 5, 1, 33
19, 142377, Control_c, 5, 1, 37
19, 142459, Control_c, 5, 1, 41
19, 142569, Note_on_c, 5, 76, 95
19, 142758, Note_on_c, 5, 76, 0
19, 142939, Note_on_c, 5, 76, 95
19, 143308, Control_c, 5, 1, 37
19, 143357, Control_c, 5, 1, 33
19, 143390, Control_c, 5, 1, 24
19, 143416, Control_c, 5, 1, 20
19, 143451, Control_c, 5, 1, 16
19, 143483, Control_c, 5, 1, 12
19, 143509, Control_c, 5, 1, 4
19, 143542, Control_c, 5, 1, 0
19, 143664, Note_on_c, 5, 76, 0
19, 144485, Note_on_c, 5, 76, 97
19, 144679, Note_on_c, 5, 76, 0
19, 144850, Note_on_c, 5, 76, 98
19, 145068, Control_c, 5, 1, 4
19, 145093, Control_c, 5, 1, 8
19, 145126, Control_c, 5, 1, 16
19, 145168, Control_c, 5, 1, 20
19, 145250, Control_c, 5, 1, 24
19, 145309, Control_c, 5, 1, 28
19, 145393, Control_c, 5, 1, 33
19, 145997, Note_on_c, 5, 76, 0
19, 146434, Note_on_c, 5, 74, 91
19, 146622, Note_on_c, 5, 74, 0
19, 146788, Note_on_c, 5, 74, 94
19, 147305, Pitch_bend_c, 5, 8452
19, 147314, Pitch_bend_c, 5, 8582
19, 147323, Pitch_bend_c, 5, 8712
19, 147340, Pitch_bend_c, 5, 8972
19, 147347, Pitch_bend_c, 5, 9102
19, 147365, Pitch_bend_c, 5, 9232
19, 147375, Pitch_bend_c, 5, 9362
19, 147391, Pitch_bend_c, 5, 9492
19, 147401, Pitch_bend_c, 5, 9622
19, 147408, Pitch_bend_c, 5, 9752
19, 147426, Pitch_bend_c, 5, 9882
19, 147436, Pitch_bend_c, 5, 10012
19, 147452, Pitch_bend_c, 5, 10142
19, 147459, Pitch_bend_c, 5, 10272
19, 147468, Pitch_bend_c, 5, 10532
19, 147485, Pitch_bend_c, 5, 10662
19, 147487, Note_on_c, 5, 74, 0
19, 147504, Pitch_bend_c, 5, 10792
19, 147520, Pitch_bend_c, 5, 10922
19, 147578, Pitch_bend_c, 5, 10792
19, 147588, Pitch_bend_c, 5, 10662
19, 147604, Pitch_bend_c, 5, 10532
19, 147621, Pitch_bend_c, 5, 10272
19, 147637, Pitch_bend_c, 5, 10142
19, 147656, Pitch_bend_c, 5, 10012
19, 147672, Pitch_bend_c, 5, 9882
19, 147688, Pitch_bend_c, 5, 9622
19, 147707, Pitch_bend_c, 5, 9492
19, 147714, Pitch_bend_c, 5, 9362
19, 147724, Pitch_bend_c, 5, 9232
19, 147733, Pitch_bend_c, 5, 9102
19, 147749, Pitch_bend_c, 5, 8842
19, 147766, Pitch_bend_c, 5, 8712
19, 147775, Pitch_bend_c, 5, 8582
19, 147794, Pitch_bend_c, 5, 8452
19, 147801, Pitch_bend_c, 5, 8192
19, 148337, Note_on_c, 5, 74, 96
19, 148543, Note_on_c, 5, 74, 0
19, 148716, Note_on_c, 5, 74, 93
19, 149221, Pitch_bend_c, 5, 8452
19, 149237, Pitch_bend_c, 5, 8582
19, 149247, Pitch_bend_c, 5, 8712
19, 149263, Pitch_bend_c, 5, 8842
19, 149273, Pitch_bend_c, 5, 8972
19, 149289, Pitch_bend_c, 5, 9102
19, 149305, Pitch_bend_c, 5, 9232
19, 149324, Pitch_bend_c, 5, 9492
19, 149347, Pitch_bend_c, 5, 9622
19, 149366, Pitch_bend_c, 5, 9752
19, 149383, Pitch_bend_c, 5, 9882
19, 149408, Pitch_bend_c, 5, 10012
19, 149441, Pitch_bend_c, 5, 10142
19, 149467, Pitch_bend_c, 5, 10272
19, 149479, Note_on_c, 5, 74, 0
19, 149509, Pitch_bend_c, 5, 10402
19, 149642, Pitch_bend_c, 5, 10272
19, 149652, Pitch_bend_c, 5, 10142
19, 149659, Pitch_bend_c, 5, 10012
19, 149668, Pitch_bend_c, 5, 9882
19, 149677, Pitch_bend_c, 5, 9622
19, 149684, Pitch_bend_c, 5, 9492
19, 149694, Pitch_bend_c, 5, 9362
19, 149703, Pitch_bend_c, 5, 9232
19, 149713, Pitch_bend_c, 5, 9102
19, 149729, Pitch_bend_c, 5, 8972
19, 149745, Pitch_bend_c, 5, 8712
19, 149755, Pitch_bend_c, 5, 8582
19, 149762, Pitch_bend_c, 5, 8322
19, 149771, Pitch_bend_c, 5, 8192
19, 150253, Note_on_c, 5, 74, 93
19, 150455, Note_on_c, 5, 74, 0
19, 150628, Note_on_c, 5, 74, 91
19, 151140, Pitch_bend_c, 5, 8452
19, 151149, Pitch_bend_c, 5, 8582
19, 151166, Pitch_bend_c, 5, 8712
19, 151175, Pitch_bend_c, 5, 8842
19, 151184, Pitch_bend_c, 5, 8972
19, 151201, Pitch_bend_c, 5, 9232
19, 151210, Pitch_bend_c, 5, 9362
19, 151219, Pitch_bend_c, 5, 9492
19, 151236, Pitch_bend_c, 5, 9622
19, 151252, Pitch_bend_c, 5, 9752
19, 151269, Pitch_bend_c, 5, 10012
19, 151287, Pitch_bend_c, 5, 10142
19, 151297, Pitch_bend_c, 5, 10272
19, 151304, Pitch_bend_c, 5, 10402
19, 151313, Pitch_bend_c, 5, 10532
19, 151329, Pitch_bend_c, 5, 10662
19, 151339, Pitch_bend_c, 5, 10792
19, 151348, Pitch_bend_c, 5, 10922
19, 151365, Pitch_bend_c, 5, 11052
19, 151390, Pitch_bend_c, 5, 11182
19, 151407, Pitch_bend_c, 5, 11312
19, 151498, Pitch_bend_c, 5, 11182
19, 151514, Pitch_bend_c, 5, 11052
19, 151524, Pitch_bend_c, 5, 10922
19, 151533, Pitch_bend_c, 5, 10662
19, 151542, Pitch_bend_c, 5, 10532
19, 151549, Pitch_bend_c, 5, 10402
19, 151559, Pitch_bend_c, 5, 10142
19, 151568, Pitch_bend_c, 5, 10012
19, 151578, Pitch_bend_c, 5, 9882
19, 151585, Pitch_bend_c, 5, 9752
19, 151594, Pitch_bend_c, 5, 9622
19, 151603, Pitch_bend_c, 5, 9492
19, 151613, Pitch_bend_c, 5, 9232
19, 151620, Pitch_bend_c, 5, 9102
19, 151629, Pitch_bend_c, 5, 8842
19, 151638, Pitch_bend_c, 5, 8712
19, 151648, Pitch_bend_c, 5, 8452
19, 151655, Pitch_bend_c, 5, 8192
19, 151707, Note_on_c, 5, 74, 0
19, 152179, Note_on_c, 5, 74, 91
19, 152359, Note_on_c, 5, 74, 0
19, 152551, Note_on_c, 5, 74, 97
19, 152974, Pitch_bend_c, 5, 8322
19, 152982, Pitch_bend_c, 5, 8582
19, 152991, Pitch_bend_c, 5, 8712
19, 153010, Pitch_bend_c, 5, 8842
19, 153017, Pitch_bend_c, 5, 8972
19, 153035, Pitch_bend_c, 5, 9102
19, 153052, Pitch_bend_c, 5, 9232
19, 153075, Pitch_bend_c, 5, 9362
19, 153084, Pitch_bend_c, 5, 9492
19, 153103, Pitch_bend_c, 5, 9622
19, 153120, Pitch_bend_c, 5, 9752
19, 153136, Pitch_bend_c, 5, 9882
19, 153152, Pitch_bend_c, 5, 10012
19, 153187, Pitch_bend_c, 5, 10142
19, 153213, Pitch_bend_c, 5, 10272
19, 153237, Pitch_bend_c, 5, 10402
19, 153255, Pitch_bend_c, 5, 10532
19, 153281, Pitch_bend_c, 5, 10662
19, 153304, Pitch_bend_c, 5, 10792
19, 153321, Pitch_bend_c, 5, 10922
19, 153340, Pitch_bend_c, 5, 11052
19, 153382, Pitch_bend_c, 5, 11182
19, 153414, Pitch_bend_c, 5, 11052
19, 153431, Pitch_bend_c, 5, 10922
19, 153440, Pitch_bend_c, 5, 10792
19, 153450, Pitch_bend_c, 5, 10662
19, 153457, Pitch_bend_c, 5, 10532
19, 153466, Pitch_bend_c, 5, 10402
19, 153475, Pitch_bend_c, 5, 10272
19, 153485, Pitch_bend_c, 5, 10142
19, 153494, Pitch_bend_c, 5, 10012
19, 153501, Pitch_bend_c, 5, 9882
19, 153517, Pitch_bend_c, 5, 9622
19, 153527, Pitch_bend_c, 5, 9492
19, 153536, Pitch_bend_c, 5, 9362
19, 153545, Pitch_bend_c, 5, 9232
19, 153555, Pitch_bend_c, 5, 9102
19, 153562, Pitch_bend_c, 5, 8972
19, 153571, Pitch_bend_c, 5, 8842
19, 153581, Pitch_bend_c, 5, 8582
19, 153590, Pitch_bend_c, 5, 8452
19, 153597, Pitch_bend_c, 5, 8192
19, 153681, Note_on_c, 5, 74, 0
19, 154105, Note_on_c, 5, 74, 78
19, 154320, Note_on_c, 5, 74, 0
19, 154463, Note_on_c, 5, 74, 98
19, 155097, Pitch_bend_c, 5, 8322
19, 155116, Pitch_bend_c, 5, 8452
19, 155132, Pitch_bend_c, 5, 8582
19, 155158, Pitch_bend_c, 5, 8712
19, 155174, Pitch_bend_c, 5, 8842
19, 155200, Pitch_bend_c, 5, 8972
19, 155223, Pitch_bend_c, 5, 9102
19, 155268, Pitch_bend_c, 5, 9232
19, 155291, Pitch_bend_c, 5, 9362
19, 155310, Pitch_bend_c, 5, 9492
19, 155333, Pitch_bend_c, 5, 9622
19, 155394, Pitch_bend_c, 5, 9752
19, 155499, Pitch_bend_c, 5, 9622
19, 155518, Pitch_bend_c, 5, 9492
19, 155541, Pitch_bend_c, 5, 9362
19, 155560, Pitch_bend_c, 5, 9232
19, 155584, Pitch_bend_c, 5, 9102
19, 155602, Pitch_bend_c, 5, 8842
19, 155603, Note_on_c, 5, 74, 0
19, 155612, Pitch_bend_c, 5, 8712
19, 155628, Pitch_bend_c, 5, 8582
19, 155661, Pitch_bend_c, 5, 8452
19, 155677, Pitch_bend_c, 5, 8322
19, 155687, Pitch_bend_c, 5, 8192
19, 156031, Note_on_c, 5, 74, 96
19, 156143, Control_c, 5, 1, 37
19, 156157, Control_c, 5, 1, 41
19, 156176, Control_c, 5, 1, 49
19, 156192, Control_c, 5, 1, 53
19, 156208, Control_c, 5, 1, 57
19, 156227, Control_c, 5, 1, 61
19, 156232, Note_on_c, 5, 74, 0
19, 156243, Control_c, 5, 1, 70
19, 156260, Control_c, 5, 1, 74
19, 156295, Control_c, 5, 1, 78
19, 156380, Note_on_c, 5, 74, 90
19, 157318, Note_on_c, 5, 74, 0
19, 157922, Note_on_c, 5, 74, 91
19, 158127, Note_on_c, 5, 74, 0
19, 158315, Note_on_c, 5, 74, 86
19, 158857, Pitch_bend_c, 5, 8322
19, 158867, Pitch_bend_c, 5, 8452
19, 158876, Pitch_bend_c, 5, 8582
19, 158892, Pitch_bend_c, 5, 8842
19, 158909, Pitch_bend_c, 5, 8972
19, 158927, Pitch_bend_c, 5, 9102
19, 158944, Pitch_bend_c, 5, 9232
19, 158960, Pitch_bend_c, 5, 9362
19, 158977, Pitch_bend_c, 5, 9492
19, 158995, Pitch_bend_c, 5, 9622
19, 159019, Pitch_bend_c, 5, 9752
19, 159054, Pitch_bend_c, 5, 9882
19, 159070, Pitch_bend_c, 5, 10012
19, 159152, Note_on_c, 5, 74, 0
19, 159178, Pitch_bend_c, 5, 9882
19, 159204, Pitch_bend_c, 5, 9752
19, 159220, Pitch_bend_c, 5, 9622
19, 159246, Pitch_bend_c, 5, 9492
19, 159271, Pitch_bend_c, 5, 9362
19, 159288, Pitch_bend_c, 5, 9232
19, 159304, Pitch_bend_c, 5, 9102
19, 159314, Pitch_bend_c, 5, 8972
19, 159323, Pitch_bend_c, 5, 8842
19, 159332, Pitch_bend_c, 5, 8712
19, 159339, Pitch_bend_c, 5, 8582
19, 159349, Pitch_bend_c, 5, 8452
19, 159358, Pitch_bend_c, 5, 8192
19, 159822, Note_on_c, 5, 74, 87
19, 160018, Note_on_c, 5, 74, 0
19, 160196, Note_on_c, 5, 74, 85
19, 160762, Pitch_bend_c, 5, 8452
19, 160778, Pitch_bend_c, 5, 8582
19, 160795, Pitch_bend_c, 5, 8712
19, 160811, Pitch_bend_c, 5, 8842
19, 160837, Pitch_bend_c, 5, 8972
19, 160853, Pitch_bend_c, 5, 9102
19, 160872, Pitch_bend_c, 5, 9362
19, 160898, Pitch_bend_c, 5, 9492
19, 160930, Pitch_bend_c, 5, 9622
19, 160956, Pitch_bend_c, 5, 9752
19, 160973, Pitch_bend_c, 5, 9882
19, 160998, Pitch_bend_c, 5, 10012
19, 161197, Pitch_bend_c, 5, 9882
19, 161239, Pitch_bend_c, 5, 9752
19, 161272, Note_on_c, 5, 74, 0
19, 161272, Pitch_bend_c, 5, 9622
19, 161289, Pitch_bend_c, 5, 9492
19, 161314, Pitch_bend_c, 5, 9362
19, 161340, Pitch_bend_c, 5, 9232
19, 161366, Pitch_bend_c, 5, 9102
19, 161389, Pitch_bend_c, 5, 8972
19, 161408, Pitch_bend_c, 5, 8842
19, 161431, Pitch_bend_c, 5, 8712
19, 161473, Pitch_bend_c, 5, 8582
19, 161508, Pitch_bend_c, 5, 8322
19, 161534, Pitch_bend_c, 5, 8192
19, 161771, Note_on_c, 5, 77, 87
19, 161838, Control_c, 5, 1, 74
19, 161881, Control_c, 5, 1, 70
19, 161930, Control_c, 5, 1, 61
19, 161955, Control_c, 5, 1, 57
19, 161991, Control_c, 5, 1, 53
19, 162019, Note_on_c, 5, 77, 0
19, 162138, Note_on_c, 5, 77, 90
19, 163257, Note_on_c, 5, 77, 0
19, 163662, Note_on_c, 5, 74, 93
19, 163875, Note_on_c, 5, 74, 0
19, 164041, Note_on_c, 5, 74, 92
19, 164979, Note_on_c, 5, 74, 0
19, 165601, Note_on_c, 5, 74, 95
19, 165821, Note_on_c, 5, 74, 0
19, 165992, Note_on_c, 5, 74, 95
19, 166462, Pitch_bend_c, 5, 8322
19, 166472, Pitch_bend_c, 5, 8452
19, 166488, Pitch_bend_c, 5, 8712
19, 166507, Pitch_bend_c, 5, 8842
19, 166514, Pitch_bend_c, 5, 8972
19, 166532, Pitch_bend_c, 5, 9102
19, 166549, Pitch_bend_c, 5, 9232
19, 166565, Pitch_bend_c, 5, 9492
19, 166591, Pitch_bend_c, 5, 9622
19, 166600, Pitch_bend_c, 5, 9752
19, 166617, Pitch_bend_c, 5, 9882
19, 166633, Pitch_bend_c, 5, 10012
19, 166649, Pitch_bend_c, 5, 10142
19, 166685, Pitch_bend_c, 5, 10272
19, 166701, Pitch_bend_c, 5, 10402
19, 166710, Pitch_bend_c, 5, 10532
19, 166720, Pitch_bend_c, 5, 10662
19, 166727, Pitch_bend_c, 5, 10792
19, 166736, Pitch_bend_c, 5, 10922
19, 166745, Pitch_bend_c, 5, 11052
19, 166762, Pitch_bend_c, 5, 11182
19, 166830, Pitch_bend_c, 5, 11312
19, 166853, Pitch_bend_c, 5, 11442
19, 167019, Pitch_bend_c, 5, 11312
19, 167038, Pitch_bend_c, 5, 11052
19, 167045, Pitch_bend_c, 5, 10922
19, 167054, Pitch_bend_c, 5, 10792
19, 167064, Pitch_bend_c, 5, 10662
19, 167071, Pitch_bend_c, 5, 10532
19, 167080, Pitch_bend_c, 5, 10402
19, 167089, Pitch_bend_c, 5, 10272
19, 167099, Pitch_bend_c, 5, 10142
19, 167122, Pitch_bend_c, 5, 10012
19, 167136, Note_on_c, 5, 74, 0
19, 167157, Pitch_bend_c, 5, 9882
19, 167209, Pitch_bend_c, 5, 9752
19, 167281, Pitch_bend_c, 5, 9622
19, 167314, Pitch_bend_c, 5, 9492
19, 167333, Pitch_bend_c, 5, 9362
19, 167349, Pitch_bend_c, 5, 9232
19, 167365, Pitch_bend_c, 5, 9102
19, 167382, Pitch_bend_c, 5, 8972
19, 167401, Pitch_bend_c, 5, 8842
19, 167417, Pitch_bend_c, 5, 8712
19, 167433, Pitch_bend_c, 5, 8582
19, 167443, Pitch_bend_c, 5, 8452
19, 167452, Pitch_bend_c, 5, 8192
19, 167541, Note_on_c, 5, 76, 80
19, 167771, Note_on_c, 5, 76, 0
19, 167902, Note_on_c, 5, 76, 99
19, 169123, Note_on_c, 5, 76, 0
19, 169441, Note_on_c, 5, 77, 97
19, 169673, Note_on_c, 5, 77, 0
19, 169823, Note_on_c, 5, 77, 96
19, 170349, Pitch_bend_c, 5, 8322
19, 170356, Pitch_bend_c, 5, 8452
19, 170372, Pitch_bend_c, 5, 8582
19, 170391, Pitch_bend_c, 5, 8712
19, 170415, Pitch_bend_c, 5, 8842
19, 170440, Pitch_bend_c, 5, 8972
19, 170459, Pitch_bend_c, 5, 9102
19, 170475, Pitch_bend_c, 5, 9232
19, 170492, Pitch_bend_c, 5, 9362
19, 170517, Pitch_bend_c, 5, 9492
19, 170543, Pitch_bend_c, 5, 9622
19, 170560, Pitch_bend_c, 5, 9752
19, 170592, Pitch_bend_c, 5, 9882
19, 170609, Pitch_bend_c, 5, 10012
19, 170634, Pitch_bend_c, 5, 10142
19, 170684, Pitch_bend_c, 5, 10272
19, 170709, Pitch_bend_c, 5, 10402
19, 170826, Pitch_bend_c, 5, 10272
19, 170836, Pitch_bend_c, 5, 10142
19, 170852, Pitch_bend_c, 5, 9882
19, 170871, Pitch_bend_c, 5, 9752
19, 170887, Pitch_bend_c, 5, 9492
19, 170904, Pitch_bend_c, 5, 9362
19, 170920, Pitch_bend_c, 5, 9232
19, 170936, Pitch_bend_c, 5, 9102
19, 170962, Pitch_bend_c, 5, 8972
19, 170978, Pitch_bend_c, 5, 8842
19, 170988, Pitch_bend_c, 5, 8712
19, 170997, Note_on_c, 5, 77, 0
19, 171004, Pitch_bend_c, 5, 8582
19, 171014, Pitch_bend_c, 5, 8452
19, 171032, Pitch_bend_c, 5, 8322
19, 171039, Pitch_bend_c, 5, 8192
19, 171358, Note_on_c, 5, 79, 94
19, 171599, Note_on_c, 5, 79, 0
19, 171791, Note_on_c, 5, 81, 85
19, 172839, Note_on_c, 5, 81, 0
19, 173253, Note_on_c, 5, 74, 95
19, 173462, Note_on_c, 5, 74, 0
19, 173649, Note_on_c, 5, 74, 95
19, 174191, Pitch_bend_c, 5, 8322
19, 174198, Pitch_bend_c, 5, 8452
19, 174208, Pitch_bend_c, 5, 8712
19, 174217, Pitch_bend_c, 5, 8842
19, 174224, Pitch_bend_c, 5, 8972
19, 174240, Pitch_bend_c, 5, 9102
19, 174259, Pitch_bend_c, 5, 9232
19, 174276, Pitch_bend_c, 5, 9362
19, 174294, Pitch_bend_c, 5, 9492
19, 174311, Pitch_bend_c, 5, 9622
19, 174327, Pitch_bend_c, 5, 9752
19, 174343, Pitch_bend_c, 5, 9882
19, 174362, Pitch_bend_c, 5, 10012
19, 174378, Pitch_bend_c, 5, 10142
19, 174479, Pitch_bend_c, 5, 10012
19, 174486, Pitch_bend_c, 5, 9882
19, 174495, Pitch_bend_c, 5, 9752
19, 174505, Pitch_bend_c, 5, 9622
19, 174514, Pitch_bend_c, 5, 9362
19, 174521, Pitch_bend_c, 5, 9102
19, 174531, Pitch_bend_c, 5, 8972
19, 174540, Pitch_bend_c, 5, 8712
19, 174547, Pitch_bend_c, 5, 8322
19, 174556, Pitch_bend_c, 5, 8192
19, 174634, Note_on_c, 5, 74, 0
19, 175205, Note_on_c, 5, 76, 95
19, 175408, Note_on_c, 5, 76, 0
19, 175589, Note_on_c, 5, 76, 95
19, 176878, Note_on_c, 5, 76, 0
19, 177175, Note_on_c, 5, 77, 92
19, 177414, Note_on_c, 5, 77, 0
19, 177535, Note_on_c, 5, 77, 94
19, 177956, Pitch_bend_c, 5, 8322
19, 177973, Pitch_bend_c, 5, 8582
19, 177989, Pitch_bend_c, 5, 8712
19, 178005, Pitch_bend_c, 5, 8842
19, 178024, Pitch_bend_c, 5, 8972
19, 178041, Pitch_bend_c, 5, 9102
19, 178057, Pitch_bend_c, 5, 9232
19, 178080, Pitch_bend_c, 5, 9362
19, 178115, Pitch_bend_c, 5, 9492
19, 178174, Pitch_bend_c, 5, 9622
19, 178389, Pitch_bend_c, 5, 9362
19, 178399, Pitch_bend_c, 5, 9232
19, 178408, Pitch_bend_c, 5, 9102
19, 178424, Pitch_bend_c, 5, 8972
19, 178434, Pitch_bend_c, 5, 8712
19, 178441, Pitch_bend_c, 5, 8582
19, 178518, Pitch_bend_c, 5, 8452
19, 178541, Pitch_bend_c, 5, 8322
19, 178551, Pitch_bend_c, 5, 8192
19, 178591, Note_on_c, 5, 77, 0
19, 179075, Note_on_c, 5, 74, 97
19, 179295, Note_on_c, 5, 74, 0
19, 179450, Note_on_c, 5, 74, 93
19, 180259, Note_on_c, 5, 74, 0
19, 180982, Note_on_c, 5, 86, 95
19, 181207, Note_on_c, 5, 86, 0
19, 181354, Note_on_c, 5, 86, 97
19, 182513, Note_on_c, 5, 86, 0
19, 182887, Note_on_c, 5, 86, 95
19, 183102, Note_on_c, 5, 86, 0
19, 183304, Note_on_c, 5, 88, 97
19, 184359, Note_on_c, 5, 88, 0
19, 184839, Note_on_c, 5, 88, 93
19, 185075, Note_on_c, 5, 88, 0
19, 185227, Note_on_c, 5, 88, 93
19, 186357, Note_on_c, 5, 88, 0
19, 186743, Note_on_c, 5, 86, 96
19, 186952, Note_on_c, 5, 86, 0
19, 187148, Note_on_c, 5, 86, 93
19, 187679, Pitch_bend_c, 5, 8452
19, 187695, Pitch_bend_c, 5, 8582
19, 187712, Pitch_bend_c, 5, 8842
19, 187738, Pitch_bend_c, 5, 8972
19, 187754, Pitch_bend_c, 5, 9102
19, 187770, Pitch_bend_c, 5, 9232
19, 187796, Pitch_bend_c, 5, 9362
19, 187805, Pitch_bend_c, 5, 9492
19, 187850, Note_on_c, 5, 86, 0
19, 187855, Pitch_bend_c, 5, 9622
19, 187979, Pitch_bend_c, 5, 9492
19, 187995, Pitch_bend_c, 5, 9362
19, 188004, Pitch_bend_c, 5, 9232
19, 188023, Pitch_bend_c, 5, 9102
19, 188030, Pitch_bend_c, 5, 8972
19, 188039, Pitch_bend_c, 5, 8842
19, 188049, Pitch_bend_c, 5, 8712
19, 188058, Pitch_bend_c, 5, 8582
19, 188075, Pitch_bend_c, 5, 8322
19, 188082, Pitch_bend_c, 5, 8192
19, 188679, Note_on_c, 5, 86, 98
19, 188894, Note_on_c, 5, 86, 0
19, 189065, Note_on_c, 5, 86, 98
19, 189961, Note_on_c, 5, 86, 0
19, 190590, Note_on_c, 5, 86, 97
19, 190778, Note_on_c, 5, 86, 0
19, 190955, Note_on_c, 5, 86, 99
19, 191784, Note_on_c, 5, 86, 0
19, 192497, Note_on_c, 5, 86, 99
19, 192727, Note_on_c, 5, 86, 0
19, 192874, Note_on_c, 5, 86, 101
19, 193361, Pitch_bend_c, 5, 8322
19, 193370, Pitch_bend_c, 5, 8452
19, 193386, Pitch_bend_c, 5, 8582
19, 193403, Pitch_bend_c, 5, 8712
19, 193445, Pitch_bend_c, 5, 8842
19, 193487, Pitch_bend_c, 5, 8972
19, 193609, Note_on_c, 5, 86, 0
19, 193613, Pitch_bend_c, 5, 8842
19, 193630, Pitch_bend_c, 5, 8712
19, 193637, Pitch_bend_c, 5, 8582
19, 193655, Pitch_bend_c, 5, 8322
19, 193662, Pitch_bend_c, 5, 8192
19, 194435, Note_on_c, 5, 86, 99
19, 194671, Note_on_c, 5, 86, 0
19, 194802, Note_on_c, 5, 86, 104
19, 195806, Note_on_c, 5, 86, 0
19, 196361, Note_on_c, 5, 74, 107
19, 196614, Note_on_c, 5, 74, 0
19, 196747, Note_on_c, 5, 74, 99
19, 197030, Pitch_bend_c, 5, 8322
19, 197037, Pitch_bend_c, 5, 8582
19, 197046, Pitch_bend_c, 5, 8712
19, 197062, Pitch_bend_c, 5, 8842
19, 197081, Pitch_bend_c, 5, 8972
19, 197105, Pitch_bend_c, 5, 9102
19, 197123, Pitch_bend_c, 5, 9232
19, 197137, Pitch_bend_c, 5, 9492
19, 197156, Pitch_bend_c, 5, 9622
19, 197165, Pitch_bend_c, 5, 9752
19, 197182, Pitch_bend_c, 5, 9882
19, 197201, Pitch_bend_c, 5, 10012
19, 197224, Pitch_bend_c, 5, 10142
19, 197259, Pitch_bend_c, 5, 10272
19, 197282, Pitch_bend_c, 5, 10402
19, 197301, Pitch_bend_c, 5, 10532
19, 197318, Pitch_bend_c, 5, 10662
19, 197334, Pitch_bend_c, 5, 10792
19, 197367, Pitch_bend_c, 5, 10922
19, 197385, Pitch_bend_c, 5, 11052
19, 197395, Pitch_bend_c, 5, 11182
19, 197428, Pitch_bend_c, 5, 11312
19, 197470, Pitch_bend_c, 5, 11442
19, 197568, Pitch_bend_c, 5, 11182
19, 197577, Pitch_bend_c, 5, 11052
19, 197587, Pitch_bend_c, 5, 10922
19, 197596, Pitch_bend_c, 5, 10792
19, 197603, Pitch_bend_c, 5, 10662
19, 197612, Pitch_bend_c, 5, 10402
19, 197622, Pitch_bend_c, 5, 10272
19, 197631, Pitch_bend_c, 5, 10142
19, 197638, Pitch_bend_c, 5, 10012
19, 197654, Pitch_bend_c, 5, 9882
19, 197673, Pitch_bend_c, 5, 9752
19, 197699, Pitch_bend_c, 5, 9622
19, 197715, Pitch_bend_c, 5, 9362
19, 197732, Pitch_bend_c, 5, 9232
19, 197741, Pitch_bend_c, 5, 9102
19, 197767, Pitch_bend_c, 5, 8972
19, 197783, Pitch_bend_c, 5, 8712
19, 197800, Pitch_bend_c, 5, 8582
19, 197809, Pitch_bend_c, 5, 8322
19, 197818, Pitch_bend_c, 5, 8192
19, 197994, Note_on_c, 5, 74, 0
19, 284160, End_track
20, 0, Start_track
20, 0, Text_t, "ch4"
20, 0, Control_c, 7, 32, 0
20, 22, Program_c, 7, 54
20, 33, Control_c, 7, 7, 127
20, 500, Control_c, 7, 11, 127
20, 520, Control_c, 7, 1, 33
20, 960, Control_c, 7, 10, 16
20, 1920, Pitch_bend_c, 7, 8189
20, 135070, Note_on_c, 7, 69, 46
20, 135217, Note_on_c, 7, 69, 0
20, 135332, Note_on_c, 7, 69, 56
20, 136146, Note_on_c, 7, 69, 0
20, 136808, Note_on_c, 7, 69, 54
20, 137026, Note_on_c, 7, 69, 0
20, 137173, Note_on_c, 7, 69, 54
20, 138100, Note_on_c, 7, 69, 0
20, 138753, Note_on_c, 7, 74, 53
20, 138942, Note_on_c, 7, 74, 0
20, 139146, Note_on_c, 7, 74, 56
20, 139525, Control_c, 7, 1, 57
20, 139576, Control_c, 7, 1, 61
20, 139626, Control_c, 7, 1, 66
20, 139707, Control_c, 7, 1, 70
20, 139824, Control_c, 7, 1, 74
20, 139883, Control_c, 7, 1, 78
20, 140157, Note_on_c, 7, 74, 0
20, 140206, Control_c, 7, 1, 82
20, 140470, Control_c, 7, 1, 86
20, 140529, Control_c, 7, 1, 90
20, 140662, Note_on_c, 7, 74, 56
20, 140913, Note_on_c, 7, 74, 0
20, 141023, Note_on_c, 7, 74, 56
20, 141299, Control_c, 7, 1, 86
20, 141324, Control_c, 7, 1, 82
20, 141350, Control_c, 7, 1, 78
20, 141376, Control_c, 7, 1, 74
20, 141409, Control_c, 7, 1, 70
20, 141434, Control_c, 7, 1, 66
20, 141458, Control_c, 7, 1, 61
20, 141484, Control_c, 7, 1, 57
20, 141509, Control_c, 7, 1, 53
20, 141542, Control_c, 7, 1, 49
20, 141584, Control_c, 7, 1, 41
20, 141610, Control_c, 7, 1, 37
20, 141643, Control_c, 7, 1, 33
20, 141668, Control_c, 7, 1, 28
20, 141687, Control_c, 7, 1, 24
20, 141704, Control_c, 7, 1, 20
20, 141727, Control_c, 7, 1, 16
20, 141753, Control_c, 7, 1, 12
20, 141771, Control_c, 7, 1, 4
20, 141788, Control_c, 7, 1, 0
20, 142101, Note_on_c, 7, 74, 0
20, 142579, Note_on_c, 7, 69, 51
20, 142813, Note_on_c, 7, 69, 0
20, 142948, Note_on_c, 7, 69, 54
20, 143676, Note_on_c, 7, 69, 0
20, 144497, Note_on_c, 7, 69, 54
20, 144673, Note_on_c, 7, 69, 0
20, 144841, Note_on_c, 7, 69, 55
20, 145092, Control_c, 7, 1, 12
20, 145101, Control_c, 7, 1, 16
20, 145108, Control_c, 7, 1, 20
20, 145134, Control_c, 7, 1, 24
20, 145176, Control_c, 7, 1, 28
20, 145202, Control_c, 7, 1, 37
20, 145218, Control_c, 7, 1, 41
20, 145244, Control_c, 7, 1, 45
20, 145286, Control_c, 7, 1, 49
20, 145782, Note_on_c, 7, 69, 0
20, 146428, Note_on_c, 7, 74, 55
20, 146667, Note_on_c, 7, 74, 0
20, 146802, Note_on_c, 7, 74, 55
20, 147476, Note_on_c, 7, 74, 0
20, 148344, Note_on_c, 7, 74, 52
20, 148548, Note_on_c, 7, 74, 0
20, 148721, Note_on_c, 7, 74, 52
20, 149442, Note_on_c, 7, 74, 0
20, 150284, Note_on_c, 7, 74, 50
20, 150495, Note_on_c, 7, 74, 0
20, 150659, Note_on_c, 7, 74, 50
20, 151436, Note_on_c, 7, 74, 0
20, 152189, Note_on_c, 7, 74, 52
20, 152388, Note_on_c, 7, 74, 0
20, 152570, Note_on_c, 7, 74, 49
20, 153109, Note_on_c, 7, 74, 0
20, 154096, Note_on_c, 7, 74, 48
20, 154300, Note_on_c, 7, 74, 0
20, 154480, Note_on_c, 7, 74, 52
20, 155098, Note_on_c, 7, 74, 0
20, 156006, Note_on_c, 7, 69, 51
20, 156242, Note_on_c, 7, 69, 0
20, 156401, Note_on_c, 7, 69, 50
20, 157002, Control_c, 7, 1, 53
20, 157012, Note_on_c, 7, 69, 0
20, 157019, Control_c, 7, 1, 57
20, 157045, Control_c, 7, 1, 61
20, 157152, Control_c, 7, 1, 57
20, 157178, Control_c, 7, 1, 53
20, 157194, Control_c, 7, 1, 49
20, 157213, Control_c, 7, 1, 41
20, 157220, Control_c, 7, 1, 37
20, 157229, Control_c, 7, 1, 33
20, 157239, Control_c, 7, 1, 24
20, 157246, Control_c, 7, 1, 20
20, 157255, Control_c, 7, 1, 16
20, 157265, Control_c, 7, 1, 8
20, 157274, Control_c, 7, 1, 4
20, 157281, Control_c, 7, 1, 0
20, 157948, Note_on_c, 7, 74, 53
20, 158186, Note_on_c, 7, 74, 0
20, 158350, Note_on_c, 7, 74, 54
20, 158989, Note_on_c, 7, 74, 0
20, 159848, Note_on_c, 7, 74, 55
20, 160063, Note_on_c, 7, 74, 0
20, 160232, Note_on_c, 7, 74, 56
20, 160878, Note_on_c, 7, 74, 0
20, 161809, Note_on_c, 7, 74, 53
20, 161987, Note_on_c, 7, 74, 0
20, 162195, Note_on_c, 7, 74, 53
20, 162874, Note_on_c, 7, 74, 0
20, 163676, Note_on_c, 7, 74, 50
20, 163915, Note_on_c, 7, 74, 0
20, 164055, Note_on_c, 7, 74, 52
20, 164715, Note_on_c, 7, 74, 0
20, 165621, Note_on_c, 7, 74, 56
20, 165852, Note_on_c, 7, 74, 0
20, 166000, Note_on_c, 7, 74, 56
20, 166709, Note_on_c, 7, 74, 0
20, 167518, Note_on_c, 7, 74, 55
20, 167759, Note_on_c, 7, 74, 0
20, 167900, Note_on_c, 7, 74, 54
20, 168646, Note_on_c, 7, 74, 0
20, 169470, Note_on_c, 7, 74, 53
20, 169683, Note_on_c, 7, 74, 0
20, 169847, Note_on_c, 7, 74, 55
20, 170539, Note_on_c, 7, 74, 0
20, 171384, Note_on_c, 7, 74, 52
20, 171611, Note_on_c, 7, 74, 0
20, 171766, Note_on_c, 7, 74, 54
20, 172449, Note_on_c, 7, 74, 0
20, 173303, Note_on_c, 7, 74, 54
20, 173535, Note_on_c, 7, 74, 0
20, 173694, Note_on_c, 7, 74, 54
20, 174684, Note_on_c, 7, 74, 0
20, 175219, Note_on_c, 7, 72, 53
20, 175458, Note_on_c, 7, 72, 0
20, 175615, Note_on_c, 7, 72, 51
20, 176785, Note_on_c, 7, 72, 0
20, 177141, Note_on_c, 7, 71, 52
20, 177389, Note_on_c, 7, 71, 0
20, 177541, Note_on_c, 7, 71, 53
20, 178715, Note_on_c, 7, 71, 0
20, 179062, Note_on_c, 7, 74, 50
20, 179321, Note_on_c, 7, 74, 0
20, 179424, Note_on_c, 7, 74, 51
20, 180143, Note_on_c, 7, 74, 0
20, 180564, Control_c, 7, 1, 8
20, 180580, Control_c, 7, 1, 12
20, 180597, Control_c, 7, 1, 16
20, 180639, Control_c, 7, 1, 20
20, 180658, Control_c, 7, 1, 24
20, 180674, Control_c, 7, 1, 28
20, 180697, Control_c, 7, 1, 33
20, 180725, Control_c, 7, 1, 41
20, 180749, Control_c, 7, 1, 45
20, 181020, Note_on_c, 7, 74, 54
20, 181238, Note_on_c, 7, 74, 0
20, 181383, Note_on_c, 7, 74, 54
20, 182160, Note_on_c, 7, 74, 0
20, 182916, Note_on_c, 7, 72, 51
20, 183133, Note_on_c, 7, 72, 0
20, 183283, Note_on_c, 7, 72, 45
20, 184114, Control_c, 7, 1, 37
20, 184121, Control_c, 7, 1, 33
20, 184130, Control_c, 7, 1, 28
20, 184139, Control_c, 7, 1, 20
20, 184149, Control_c, 7, 1, 16
20, 184156, Control_c, 7, 1, 8
20, 184165, Control_c, 7, 1, 0
20, 184228, Note_on_c, 7, 72, 0
20, 184853, Note_on_c, 7, 71, 54
20, 185078, Note_on_c, 7, 71, 0
20, 185221, Note_on_c, 7, 71, 53
20, 186374, Note_on_c, 7, 71, 0
20, 186742, Note_on_c, 7, 69, 52
20, 186994, Note_on_c, 7, 69, 0
20, 187116, Note_on_c, 7, 69, 55
20, 188007, Note_on_c, 7, 69, 0
20, 188695, Note_on_c, 7, 74, 55
20, 188976, Note_on_c, 7, 74, 0
20, 189089, Note_on_c, 7, 74, 52
20, 189617, Note_on_c, 7, 74, 0
20, 190579, Note_on_c, 7, 84, 47
20, 190830, Note_on_c, 7, 84, 0
20, 190963, Note_on_c, 7, 84, 48
20, 192100, Note_on_c, 7, 84, 0
20, 192526, Note_on_c, 7, 83, 52
20, 192732, Note_on_c, 7, 83, 0
20, 192865, Note_on_c, 7, 83, 52
20, 193953, Note_on_c, 7, 81, 41
20, 193960, Note_on_c, 7, 83, 0
20, 195409, Note_on_c, 7, 79, 47
20, 195428, Note_on_c, 7, 81, 0
20, 196116, Note_on_c, 7, 79, 0
20, 196116, Note_on_c, 7, 81, 46
20, 197805, Note_on_c, 7, 79, 49
20, 197824, Note_on_c, 7, 81, 0
20, 199761, Note_on_c, 7, 77, 50
20, 199778, Note_on_c, 7, 79, 0
20, 201631, Note_on_c, 7, 81, 49
20, 201685, Note_on_c, 7, 77, 0
20, 203398, Note_on_c, 7, 81, 0
20, 203573, Note_on_c, 7, 81, 54
20, 205497, Note_on_c, 7, 81, 0
20, 205515, Note_on_c, 7, 79, 42
20, 207668, Note_on_c, 7, 79, 0
20, 207696, Note_on_c, 7, 72, 42
20, 209428, Note_on_c, 7, 74, 51
20, 209470, Note_on_c, 7, 72, 0
20, 211279, Note_on_c, 7, 74, 0
20, 211948, Note_on_c, 7, 74, 54
20, 212152, Note_on_c, 7, 74, 0
20, 212301, Note_on_c, 7, 74, 51
20, 212980, Note_on_c, 7, 74, 0
20, 213818, Note_on_c, 7, 74, 51
20, 214007, Note_on_c, 7, 74, 0
20, 214197, Note_on_c, 7, 74, 40
20, 214880, Note_on_c, 7, 74, 0
20, 215793, Note_on_c, 7, 74, 50
20, 215961, Note_on_c, 7, 74, 0
20, 216169, Note_on_c, 7, 74, 47
20, 216850, Note_on_c, 7, 74, 0
20, 217758, Note_on_c, 7, 74, 45
20, 217957, Note_on_c, 7, 74, 0
20, 218095, Note_on_c, 7, 74, 50
20, 218692, Note_on_c, 7, 74, 0
20, 219640, Note_on_c, 7, 74, 47
20, 219836, Note_on_c, 7, 74, 0
20, 220019, Note_on_c, 7, 74, 45
20, 220697, Note_on_c, 7, 74, 0
20, 221547, Note_on_c, 7, 74, 48
20, 221711, Note_on_c, 7, 74, 0
20, 221888, Note_on_c, 7, 74, 47
20, 222663, Note_on_c, 7, 74, 0
20, 223456, Note_on_c, 7, 74, 44
20, 223627, Note_on_c, 7, 74, 0
20, 223833, Note_on_c, 7, 74, 45
20, 224549, Note_on_c, 7, 74, 0
20, 225377, Note_on_c, 7, 74, 47
20, 225550, Note_on_c, 7, 74, 0
20, 225754, Note_on_c, 7, 74, 46
20, 226809, Note_on_c, 7, 74, 0
20, 227291, Note_on_c, 7, 62, 54
20, 227518, Note_on_c, 7, 62, 0
20, 227666, Note_on_c, 7, 62, 54
20, 228408, Note_on_c, 7, 62, 0
20, 229201, Note_on_c, 7, 74, 48
20, 229390, Note_on_c, 7, 74, 0
20, 229575, Note_on_c, 7, 74, 47
20, 230574, Note_on_c, 7, 74, 0
20, 231089, Note_on_c, 7, 62, 51
20, 231330, Note_on_c, 7, 62, 0
20, 231489, Note_on_c, 7, 62, 53
20, 232180, Note_on_c, 7, 62, 0
20, 233022, Note_on_c, 7, 74, 55
20, 233219, Note_on_c, 7, 74, 0
20, 233378, Note_on_c, 7, 74, 56
20, 234084, Note_on_c, 7, 74, 0
20, 234464, Note_on_c, 7, 62, 50
20, 234810, Note_on_c, 7, 62, 0
20, 238718, Note_on_c, 7, 74, 54
20, 238907, Note_on_c, 7, 74, 0
20, 239090, Note_on_c, 7, 74, 53
20, 239918, Note_on_c, 7, 74, 0
20, 240636, Note_on_c, 7, 74, 54
20, 240838, Note_on_c, 7, 74, 0
20, 240999, Note_on_c, 7, 74, 47
20, 241706, Note_on_c, 7, 74, 0
20, 242602, Note_on_c, 7, 74, 47
20, 242806, Note_on_c, 7, 74, 0
20, 242993, Note_on_c, 7, 74, 50
20, 243681, Note_on_c, 7, 74, 0
20, 244441, Note_on_c, 7, 74, 49
20, 244624, Note_on_c, 7, 74, 0
20, 244820, Note_on_c, 7, 74, 43
20, 245558, Note_on_c, 7, 74, 0
20, 246391, Note_on_c, 7, 74, 44
20, 246573, Note_on_c, 7, 74, 0
20, 246751, Note_on_c, 7, 74, 49
20, 247886, Note_on_c, 7, 74, 0
20, 250221, Note_on_c, 7, 74, 48
20, 250432, Note_on_c, 7, 74, 0
20, 250598, Note_on_c, 7, 74, 48
20, 251403, Note_on_c, 7, 74, 0
20, 252126, Note_on_c, 7, 74, 49
20, 252304, Note_on_c, 7, 74, 0
20, 252507, Note_on_c, 7, 74, 47
20, 253581, Note_on_c, 7, 74, 0
20, 254052, Note_on_c, 7, 74, 47
20, 254244, Note_on_c, 7, 74, 0
20, 254414, Note_on_c, 7, 74, 47
20, 255563, Note_on_c, 7, 74, 0
20, 284160, End_track
21, 0, Start_track
21, 0, Text_t, "ch3"
21, 0, Control_c, 10, 32, 0
21, 22, Program_c, 10, 52
21, 33, Control_c, 10, 7, 127
21, 500, Control_c, 10, 11, 127
21, 520, Control_c, 10, 1, 5
21, 960, Control_c, 10, 10, 80
21, 970, Pitch_bend_c, 10, 8192
21, 90722, Note_on_c, 10, 57, 84
21, 90928, Note_on_c, 10, 57, 0
21, 91113, Note_on_c, 10, 57, 81
21, 92073, Note_on_c, 10, 57, 0
21, 109440, Control_c, 10, 7, 91
21, 109440, Note_on_c, 10, 38, 78
21, 110400, Note_on_c, 10, 38, 0
21, 110402, Control_c, 10, 7, 92
21, 111088, Note_on_c, 10, 36, 79
21, 111354, Note_on_c, 10, 38, 84
21, 111365, Control_c, 10, 7, 93
21, 111415, Note_on_c, 10, 36, 0
21, 112314, Note_on_c, 10, 38, 0
21, 112328, Control_c, 10, 7, 94
21, 113287, Note_on_c, 10, 36, 78
21, 113291, Control_c, 10, 7, 95
21, 114247, Note_on_c, 10, 36, 0
21, 114253, Control_c, 10, 7, 96
21, 115187, Note_on_c, 10, 43, 79
21, 115216, Control_c, 10, 7, 97
21, 116147, Note_on_c, 10, 43, 0
21, 116179, Control_c, 10, 7, 98
21, 117115, Note_on_c, 10, 38, 77
21, 117142, Control_c, 10, 7, 99
21, 118075, Note_on_c, 10, 38, 0
21, 118104, Control_c, 10, 7, 100
21, 119067, Control_c, 10, 7, 101
21, 119521, Note_on_c, 10, 57, 90
21, 119764, Note_on_c, 10, 57, 0
21, 119907, Note_on_c, 10, 57, 89
21, 120030, Control_c, 10, 7, 102
21, 120745, Note_on_c, 10, 57, 0
21, 120993, Control_c, 10, 7, 103
21, 121468, Note_on_c, 10, 62, 81
21, 121695, Note_on_c, 10, 62, 0
21, 121826, Note_on_c, 10, 62, 82
21, 121955, Control_c, 10, 7, 104
21, 122682, Note_on_c, 10, 62, 0
21, 122918, Control_c, 10, 7, 105
21, 123412, Note_on_c, 10, 62, 85
21, 123649, Note_on_c, 10, 62, 0
21, 123775, Note_on_c, 10, 62, 83
21, 123881, Control_c, 10, 7, 106
21, 124735, Note_on_c, 10, 62, 0
21, 124844, Control_c, 10, 7, 107
21, 125324, Note_on_c, 10, 57, 82
21, 125553, Note_on_c, 10, 57, 0
21, 125687, Note_on_c, 10, 57, 85
21, 125807, Control_c, 10, 7, 108
21, 126436, Note_on_c, 10, 57, 0
21, 126769, Control_c, 10, 7, 109
21, 127208, Note_on_c, 10, 57, 85
21, 127409, Note_on_c, 10, 57, 0
21, 127603, Note_on_c, 10, 57, 88
21, 127732, Control_c, 10, 7, 110
21, 128563, Note_on_c, 10, 57, 0
21, 128695, Control_c, 10, 7, 111
21, 129148, Note_on_c, 10, 62, 83
21, 129370, Note_on_c, 10, 62, 0
21, 129522, Note_on_c, 10, 62, 86
21, 129658, Control_c, 10, 7, 112
21, 130299, Note_on_c, 10, 62, 0
21, 130620, Control_c, 10, 7, 113
21, 131043, Note_on_c, 10, 62, 81
21, 131270, Note_on_c, 10, 62, 0
21, 131441, Note_on_c, 10, 62, 82
21, 131583, Control_c, 10, 7, 114
21, 132401, Note_on_c, 10, 62, 0
21, 132546, Control_c, 10, 7, 115
21, 132997, Note_on_c, 10, 57, 82
21, 133238, Note_on_c, 10, 57, 0
21, 133383, Note_on_c, 10, 57, 85
21, 133509, Control_c, 10, 7, 116
21, 134076, Note_on_c, 10, 57, 0
21, 134471, Control_c, 10, 7, 117
21, 134923, Note_on_c, 10, 57, 75
21, 135115, Note_on_c, 10, 57, 0
21, 135260, Note_on_c, 10, 57, 87
21, 135434, Control_c, 10, 7, 118
21, 136220, Note_on_c, 10, 57, 0
21, 136397, Control_c, 10, 7, 119
21, 136806, Note_on_c, 10, 57, 82
21, 136994, Note_on_c, 10, 57, 0
21, 137204, Note_on_c, 10, 57, 79
21, 137360, Control_c, 10, 7, 120
21, 138164, Note_on_c, 10, 57, 0
21, 138323, Control_c, 10, 7, 121
21, 138737, Note_on_c, 10, 38, 64
21, 138749, Note_on_c, 10, 50, 72
21, 138978, Note_on_c, 10, 50, 0
21, 138985, Note_on_c, 10, 38, 0
21, 139135, Note_on_c, 10, 50, 83
21, 139285, Control_c, 10, 7, 122
21, 139834, Note_on_c, 10, 50, 0
21, 140248, Control_c, 10, 7, 123
21, 140632, Note_on_c, 10, 50, 86
21, 140873, Note_on_c, 10, 50, 0
21, 141037, Note_on_c, 10, 50, 89
21, 141211, Control_c, 10, 7, 124
21, 141997, Note_on_c, 10, 50, 0
21, 142174, Control_c, 10, 7, 125
21, 142561, Note_on_c, 10, 57, 79
21, 142820, Note_on_c, 10, 57, 0
21, 142977, Note_on_c, 10, 57, 80
21, 143136, Control_c, 10, 7, 126
21, 143937, Note_on_c, 10, 57, 0
21, 144021, Note_on_c, 10, 45, 89
21, 144099, Control_c, 10, 7, 127
21, 144482, Note_on_c, 10, 45, 0
21, 144489, Note_on_c, 10, 57, 78
21, 144695, Note_on_c, 10, 57, 0
21, 144879, Note_on_c, 10, 57, 83
21, 145062, Control_c, 10, 7, 127
21, 145446, Note_on_c, 10, 45, 85
21, 145518, Note_on_c, 10, 57, 0
21, 145935, Note_on_c, 10, 50, 80
21, 145954, Note_on_c, 10, 45, 0
21, 146025, Control_c, 10, 7, 127
21, 146286, Note_on_c, 10, 50, 0
21, 146408, Note_on_c, 10, 50, 87
21, 146644, Note_on_c, 10, 50, 0
21, 146791, Note_on_c, 10, 50, 87
21, 146987, Control_c, 10, 7, 127
21, 147397, Note_on_c, 10, 50, 0
21, 147950, Control_c, 10, 7, 127
21, 148336, Note_on_c, 10, 50, 87
21, 148607, Note_on_c, 10, 50, 0
21, 148731, Note_on_c, 10, 50, 87
21, 148913, Control_c, 10, 7, 127
21, 149691, Note_on_c, 10, 50, 0
21, 149876, Control_c, 10, 7, 127
21, 150280, Note_on_c, 10, 69, 89
21, 150491, Note_on_c, 10, 69, 0
21, 150650, Note_on_c, 10, 69, 85
21, 150838, Control_c, 10, 7, 127
21, 151467, Note_on_c, 10, 69, 0
21, 151801, Control_c, 10, 7, 127
21, 152197, Note_on_c, 10, 69, 77
21, 152403, Note_on_c, 10, 69, 0
21, 152571, Note_on_c, 10, 69, 83
21, 152764, Control_c, 10, 7, 127
21, 153219, Note_on_c, 10, 69, 0
21, 153727, Control_c, 10, 7, 127
21, 154132, Note_on_c, 10, 69, 77
21, 154321, Note_on_c, 10, 69, 0
21, 154497, Note_on_c, 10, 69, 72
21, 154690, Control_c, 10, 7, 127
21, 155180, Note_on_c, 10, 69, 0
21, 155652, Control_c, 10, 7, 127
21, 156039, Note_on_c, 10, 69, 86
21, 156259, Note_on_c, 10, 69, 0
21, 156441, Note_on_c, 10, 69, 83
21, 156615, Control_c, 10, 7, 127
21, 157099, Note_on_c, 10, 69, 0
21, 157578, Control_c, 10, 7, 127
21, 157930, Note_on_c, 10, 69, 84
21, 158145, Note_on_c, 10, 69, 0
21, 158332, Note_on_c, 10, 69, 84
21, 158541, Control_c, 10, 7, 127
21, 159008, Note_on_c, 10, 69, 0
21, 159503, Control_c, 10, 7, 127
21, 159830, Note_on_c, 10, 57, 91
21, 160094, Note_on_c, 10, 57, 0
21, 160221, Note_on_c, 10, 57, 89
21, 160466, Control_c, 10, 7, 127
21, 161033, Note_on_c, 10, 57, 0
21, 161429, Control_c, 10, 7, 127
21, 161791, Note_on_c, 10, 57, 89
21, 162015, Note_on_c, 10, 57, 0
21, 162181, Note_on_c, 10, 57, 89
21, 162392, Control_c, 10, 7, 127
21, 162923, Note_on_c, 10, 57, 0
21, 163354, Control_c, 10, 7, 127
21, 163672, Note_on_c, 10, 57, 88
21, 163890, Note_on_c, 10, 57, 0
21, 164072, Note_on_c, 10, 57, 83
21, 164317, Control_c, 10, 7, 127
21, 164819, Note_on_c, 10, 57, 0
21, 165280, Control_c, 10, 7, 127
21, 165621, Note_on_c, 10, 62, 80
21, 165881, Note_on_c, 10, 62, 0
21, 166031, Note_on_c, 10, 62, 82
21, 166243, Control_c, 10, 7, 127
21, 166761, Note_on_c, 10, 62, 0
21, 167540, Note_on_c, 10, 62, 86
21, 167758, Note_on_c, 10, 62, 0
21, 167926, Note_on_c, 10, 62, 84
21, 168619, Note_on_c, 10, 62, 0
21, 169475, Note_on_c, 10, 62, 86
21, 169679, Note_on_c, 10, 62, 0
21, 169845, Note_on_c, 10, 62, 89
21, 170219, Control_c, 10, 1, 4
21, 170243, Control_c, 10, 1, 8
21, 170269, Control_c, 10, 1, 16
21, 170294, Control_c, 10, 1, 20
21, 170320, Control_c, 10, 1, 24
21, 170346, Control_c, 10, 1, 33
21, 170362, Control_c, 10, 1, 37
21, 170378, Control_c, 10, 1, 41
21, 170395, Control_c, 10, 1, 45
21, 170421, Control_c, 10, 1, 49
21, 170446, Control_c, 10, 1, 53
21, 170479, Control_c, 10, 1, 57
21, 170580, Note_on_c, 10, 62, 0
21, 171364, Note_on_c, 10, 62, 89
21, 171609, Note_on_c, 10, 62, 0
21, 171745, Note_on_c, 10, 62, 86
21, 172637, Note_on_c, 10, 62, 0
21, 173304, Note_on_c, 10, 62, 86
21, 173502, Note_on_c, 10, 62, 0
21, 173676, Note_on_c, 10, 62, 88
21, 174621, Note_on_c, 10, 62, 0
21, 175232, Note_on_c, 10, 62, 93
21, 175475, Note_on_c, 10, 62, 0
21, 175625, Note_on_c, 10, 62, 97
21, 176547, Note_on_c, 10, 62, 0
21, 177148, Note_on_c, 10, 62, 91
21, 177340, Note_on_c, 10, 62, 0
21, 177546, Note_on_c, 10, 62, 91
21, 178482, Note_on_c, 10, 62, 0
21, 179048, Note_on_c, 10, 62, 83
21, 179263, Note_on_c, 10, 62, 0
21, 179430, Note_on_c, 10, 62, 89
21, 180054, Pitch_bend_c, 10, 8192
21, 180331, Note_on_c, 10, 62, 0
21, 180981, Note_on_c, 10, 69, 82
21, 181210, Note_on_c, 10, 69, 0
21, 181341, Note_on_c, 10, 69, 85
21, 181863, Pitch_bend_c, 10, 7936
21, 181870, Pitch_bend_c, 10, 7808
21, 181880, Pitch_bend_c, 10, 7680
21, 181889, Pitch_bend_c, 10, 7552
21, 181905, Pitch_bend_c, 10, 7424
21, 181922, Pitch_bend_c, 10, 7296
21, 181931, Pitch_bend_c, 10, 7168
21, 181940, Pitch_bend_c, 10, 7040
21, 181957, Pitch_bend_c, 10, 6784
21, 181966, Pitch_bend_c, 10, 6656
21, 181999, Pitch_bend_c, 10, 6528
21, 182100, Pitch_bend_c, 10, 6400
21, 182116, Pitch_bend_c, 10, 6144
21, 182132, Pitch_bend_c, 10, 6016
21, 182149, Pitch_bend_c, 10, 5888
21, 182158, Pitch_bend_c, 10, 5760
21, 182167, Note_on_c, 10, 69, 0
21, 182242, Pitch_bend_c, 10, 5888
21, 182259, Pitch_bend_c, 10, 6016
21, 182268, Pitch_bend_c, 10, 6144
21, 182275, Pitch_bend_c, 10, 6400
21, 182284, Pitch_bend_c, 10, 6528
21, 182294, Pitch_bend_c, 10, 6784
21, 182303, Pitch_bend_c, 10, 6912
21, 182313, Pitch_bend_c, 10, 7040
21, 182320, Pitch_bend_c, 10, 7296
21, 182329, Pitch_bend_c, 10, 7424
21, 182338, Pitch_bend_c, 10, 7552
21, 182348, Pitch_bend_c, 10, 7808
21, 182355, Pitch_bend_c, 10, 7936
21, 182364, Pitch_bend_c, 10, 8192
21, 182912, Note_on_c, 10, 69, 84
21, 183099, Note_on_c, 10, 69, 0
21, 183260, Note_on_c, 10, 69, 84
21, 183784, Pitch_bend_c, 10, 7936
21, 183794, Pitch_bend_c, 10, 7808
21, 183810, Pitch_bend_c, 10, 7680
21, 183817, Pitch_bend_c, 10, 7552
21, 183836, Pitch_bend_c, 10, 7296
21, 183845, Pitch_bend_c, 10, 7168
21, 183852, Pitch_bend_c, 10, 7040
21, 183862, Pitch_bend_c, 10, 6912
21, 183871, Pitch_bend_c, 10, 6656
21, 183880, Pitch_bend_c, 10, 6528
21, 183897, Pitch_bend_c, 10, 6400
21, 183906, Pitch_bend_c, 10, 6272
21, 183913, Pitch_bend_c, 10, 6144
21, 183929, Pitch_bend_c, 10, 5888
21, 183939, Pitch_bend_c, 10, 5760
21, 183948, Pitch_bend_c, 10, 5632
21, 183958, Pitch_bend_c, 10, 5504
21, 183974, Pitch_bend_c, 10, 5376
21, 183983, Pitch_bend_c, 10, 5248
21, 184075, Pitch_bend_c, 10, 5376
21, 184107, Pitch_bend_c, 10, 5504
21, 184182, Pitch_bend_c, 10, 5632
21, 184199, Pitch_bend_c, 10, 5760
21, 184203, Note_on_c, 10, 69, 0
21, 184208, Pitch_bend_c, 10, 5888
21, 184217, Pitch_bend_c, 10, 6016
21, 184227, Pitch_bend_c, 10, 6144
21, 184236, Pitch_bend_c, 10, 6272
21, 184243, Pitch_bend_c, 10, 6400
21, 184252, Pitch_bend_c, 10, 6528
21, 184259, Pitch_bend_c, 10, 6784
21, 184269, Pitch_bend_c, 10, 7040
21, 184278, Pitch_bend_c, 10, 7296
21, 184287, Pitch_bend_c, 10, 7680
21, 184294, Pitch_bend_c, 10, 8192
21, 184863, Note_on_c, 10, 69, 84
21, 185074, Note_on_c, 10, 69, 0
21, 185223, Note_on_c, 10, 69, 86
21, 185691, Pitch_bend_c, 10, 8064
21, 185698, Pitch_bend_c, 10, 7936
21, 185715, Pitch_bend_c, 10, 7680
21, 185724, Pitch_bend_c, 10, 7552
21, 185734, Pitch_bend_c, 10, 7424
21, 185750, Pitch_bend_c, 10, 7296
21, 185759, Pitch_bend_c, 10, 7168
21, 185769, Pitch_bend_c, 10, 7040
21, 185785, Pitch_bend_c, 10, 6912
21, 185794, Pitch_bend_c, 10, 6784
21, 185801, Pitch_bend_c, 10, 6656
21, 185820, Pitch_bend_c, 10, 6528
21, 185837, Pitch_bend_c, 10, 6400
21, 185853, Pitch_bend_c, 10, 6144
21, 185869, Pitch_bend_c, 10, 6016
21, 185888, Pitch_bend_c, 10, 5888
21, 185921, Pitch_bend_c, 10, 5760
21, 185963, Pitch_bend_c, 10, 5632
21, 186071, Pitch_bend_c, 10, 5760
21, 186136, Pitch_bend_c, 10, 5888
21, 186145, Pitch_bend_c, 10, 6016
21, 186162, Pitch_bend_c, 10, 6144
21, 186171, Pitch_bend_c, 10, 6272
21, 186181, Pitch_bend_c, 10, 6400
21, 186183, Note_on_c, 10, 69, 0
21, 186190, Pitch_bend_c, 10, 6528
21, 186204, Pitch_bend_c, 10, 6784
21, 186213, Pitch_bend_c, 10, 7040
21, 186223, Pitch_bend_c, 10, 7168
21, 186232, Pitch_bend_c, 10, 7424
21, 186241, Pitch_bend_c, 10, 7552
21, 186251, Pitch_bend_c, 10, 7808
21, 186258, Pitch_bend_c, 10, 8192
21, 186763, Note_on_c, 10, 69, 89
21, 187025, Note_on_c, 10, 69, 0
21, 187105, Note_on_c, 10, 69, 89
21, 187804, Note_on_c, 10, 69, 0
21, 188148, Control_c, 10, 1, 61
21, 188165, Control_c, 10, 1, 66
21, 188174, Control_c, 10, 1, 70
21, 188191, Control_c, 10, 1, 78
21, 188200, Control_c, 10, 1, 82
21, 188216, Control_c, 10, 1, 90
21, 188233, Control_c, 10, 1, 99
21, 188242, Control_c, 10, 1, 103
21, 188251, Control_c, 10, 1, 107
21, 188268, Control_c, 10, 1, 115
21, 188287, Control_c, 10, 1, 123
21, 188303, Control_c, 10, 1, 127
21, 188684, Note_on_c, 10, 69, 87
21, 188900, Note_on_c, 10, 69, 0
21, 189075, Note_on_c, 10, 69, 87
21, 190035, Note_on_c, 10, 69, 0
21, 190594, Note_on_c, 10, 69, 87
21, 190788, Note_on_c, 10, 69, 0
21, 190963, Note_on_c, 10, 69, 88
21, 191516, Pitch_bend_c, 10, 8064
21, 191523, Pitch_bend_c, 10, 7808
21, 191532, Pitch_bend_c, 10, 7552
21, 191541, Pitch_bend_c, 10, 7424
21, 191551, Pitch_bend_c, 10, 7296
21, 191558, Pitch_bend_c, 10, 7040
21, 191567, Pitch_bend_c, 10, 6912
21, 191577, Pitch_bend_c, 10, 6784
21, 191584, Pitch_bend_c, 10, 6656
21, 191602, Pitch_bend_c, 10, 6528
21, 191609, Pitch_bend_c, 10, 6400
21, 191619, Pitch_bend_c, 10, 6272
21, 191628, Pitch_bend_c, 10, 6144
21, 191637, Pitch_bend_c, 10, 6016
21, 191654, Pitch_bend_c, 10, 5760
21, 191680, Pitch_bend_c, 10, 5632
21, 191878, Pitch_bend_c, 10, 5760
21, 191902, Pitch_bend_c, 10, 5888
21, 191921, Pitch_bend_c, 10, 6016
21, 191923, Note_on_c, 10, 69, 0
21, 191928, Pitch_bend_c, 10, 6144
21, 191946, Pitch_bend_c, 10, 6400
21, 191953, Pitch_bend_c, 10, 6528
21, 191963, Pitch_bend_c, 10, 6656
21, 191972, Pitch_bend_c, 10, 6784
21, 191979, Pitch_bend_c, 10, 6912
21, 191988, Pitch_bend_c, 10, 7168
21, 191998, Pitch_bend_c, 10, 7296
21, 192007, Pitch_bend_c, 10, 7552
21, 192014, Pitch_bend_c, 10, 7808
21, 192024, Pitch_bend_c, 10, 8192
21, 192506, Note_on_c, 10, 69, 86
21, 192740, Note_on_c, 10, 69, 0
21, 192889, Note_on_c, 10, 69, 86
21, 193470, Pitch_bend_c, 10, 8064
21, 193479, Pitch_bend_c, 10, 7936
21, 193495, Pitch_bend_c, 10, 7808
21, 193512, Pitch_bend_c, 10, 7552
21, 193530, Pitch_bend_c, 10, 7424
21, 193538, Pitch_bend_c, 10, 7296
21, 193556, Pitch_bend_c, 10, 7168
21, 193573, Pitch_bend_c, 10, 7040
21, 193589, Pitch_bend_c, 10, 6784
21, 193598, Pitch_bend_c, 10, 6656
21, 193631, Pitch_bend_c, 10, 6528
21, 193673, Pitch_bend_c, 10, 6400
21, 193839, Pitch_bend_c, 10, 6528
21, 193849, Note_on_c, 10, 69, 0
21, 193881, Pitch_bend_c, 10, 6656
21, 193891, Pitch_bend_c, 10, 6784
21, 193907, Pitch_bend_c, 10, 6912
21, 193914, Pitch_bend_c, 10, 7040
21, 193921, Pitch_bend_c, 10, 7296
21, 193933, Pitch_bend_c, 10, 7552
21, 193942, Pitch_bend_c, 10, 7808
21, 193949, Pitch_bend_c, 10, 8192
21, 194462, Note_on_c, 10, 69, 87
21, 194722, Note_on_c, 10, 69, 0
21, 194827, Note_on_c, 10, 69, 85
21, 195157, Control_c, 10, 1, 123
21, 195183, Control_c, 10, 1, 119
21, 195215, Control_c, 10, 1, 115
21, 195248, Control_c, 10, 1, 111
21, 195281, Control_c, 10, 1, 107
21, 195323, Control_c, 10, 1, 103
21, 195349, Control_c, 10, 1, 94
21, 195374, Control_c, 10, 1, 90
21, 195426, Control_c, 10, 1, 86
21, 195449, Control_c, 10, 1, 82
21, 195787, Note_on_c, 10, 69, 0
21, 196353, Note_on_c, 10, 74, 88
21, 196594, Note_on_c, 10, 74, 0
21, 196729, Note_on_c, 10, 74, 88
21, 197689, Note_on_c, 10, 74, 0
21, 198236, Note_on_c, 10, 74, 89
21, 198484, Note_on_c, 10, 74, 0
21, 198620, Note_on_c, 10, 74, 90
21, 199259, Pitch_bend_c, 10, 8322
21, 199273, Pitch_bend_c, 10, 8452
21, 199455, Pitch_bend_c, 10, 8322
21, 199481, Pitch_bend_c, 10, 8192
21, 199580, Note_on_c, 10, 74, 0
21, 200218, Note_on_c, 10, 74, 89
21, 200466, Note_on_c, 10, 74, 0
21, 200595, Note_on_c, 10, 74, 89
21, 201316, Pitch_bend_c, 10, 8064
21, 201323, Pitch_bend_c, 10, 7808
21, 201332, Pitch_bend_c, 10, 7552
21, 201341, Pitch_bend_c, 10, 7296
21, 201351, Pitch_bend_c, 10, 7040
21, 201358, Pitch_bend_c, 10, 6656
21, 201369, Pitch_bend_c, 10, 6528
21, 201377, Pitch_bend_c, 10, 6272
21, 201386, Pitch_bend_c, 10, 6016
21, 201393, Pitch_bend_c, 10, 5888
21, 201402, Pitch_bend_c, 10, 5632
21, 201412, Pitch_bend_c, 10, 5504
21, 201419, Pitch_bend_c, 10, 5248
21, 201437, Pitch_bend_c, 10, 5120
21, 201555, Note_on_c, 10, 74, 0
21, 201662, Pitch_bend_c, 10, 5248
21, 201678, Pitch_bend_c, 10, 5504
21, 201685, Pitch_bend_c, 10, 5632
21, 201695, Pitch_bend_c, 10, 5888
21, 201704, Pitch_bend_c, 10, 6016
21, 201713, Pitch_bend_c, 10, 6144
21, 201720, Pitch_bend_c, 10, 6400
21, 201730, Pitch_bend_c, 10, 6656
21, 201739, Pitch_bend_c, 10, 7040
21, 201746, Pitch_bend_c, 10, 7296
21, 201756, Pitch_bend_c, 10, 7808
21, 201765, Pitch_bend_c, 10, 8192
21, 204025, Note_on_c, 10, 57, 89
21, 204248, Note_on_c, 10, 57, 0
21, 204395, Note_on_c, 10, 57, 89
21, 205200, Note_on_c, 10, 57, 0
21, 205729, Control_c, 10, 1, 78
21, 205755, Control_c, 10, 1, 74
21, 205771, Control_c, 10, 1, 70
21, 205787, Control_c, 10, 1, 66
21, 205804, Control_c, 10, 1, 57
21, 205823, Control_c, 10, 1, 53
21, 205839, Control_c, 10, 1, 45
21, 205855, Control_c, 10, 1, 41
21, 205872, Control_c, 10, 1, 37
21, 205890, Control_c, 10, 1, 33
21, 205916, Control_c, 10, 1, 24
21, 205932, Control_c, 10, 1, 20
21, 205956, Control_c, 10, 1, 16
21, 205975, Control_c, 10, 1, 12
21, 206026, Note_on_c, 10, 57, 88
21, 206251, Note_on_c, 10, 57, 0
21, 206408, Note_on_c, 10, 57, 89
21, 206712, Control_c, 10, 1, 8
21, 207098, Note_on_c, 10, 57, 0
21, 207989, Note_on_c, 10, 57, 88
21, 208233, Note_on_c, 10, 57, 0
21, 208429, Note_on_c, 10, 57, 89
21, 209244, Note_on_c, 10, 57, 0
21, 209953, Note_on_c, 10, 57, 87
21, 210161, Note_on_c, 10, 57, 0
21, 210315, Note_on_c, 10, 57, 90
21, 210947, Note_on_c, 10, 57, 0
21, 211832, Note_on_c, 10, 69, 73
21, 212063, Note_on_c, 10, 69, 0
21, 212185, Note_on_c, 10, 69, 81
21, 212983, Pitch_bend_c, 10, 8064
21, 212999, Pitch_bend_c, 10, 7936
21, 213016, Pitch_bend_c, 10, 7808
21, 213032, Pitch_bend_c, 10, 7680
21, 213048, Pitch_bend_c, 10, 7552
21, 213067, Pitch_bend_c, 10, 7296
21, 213074, Pitch_bend_c, 10, 7168
21, 213093, Pitch_bend_c, 10, 7040
21, 213102, Pitch_bend_c, 10, 6912
21, 213109, Pitch_bend_c, 10, 6656
21, 213119, Pitch_bend_c, 10, 6528
21, 213135, Pitch_bend_c, 10, 6272
21, 213144, Pitch_bend_c, 10, 6144
21, 213145, Note_on_c, 10, 69, 0
21, 213161, Pitch_bend_c, 10, 6016
21, 213179, Pitch_bend_c, 10, 5888
21, 213203, Pitch_bend_c, 10, 5760
21, 213245, Pitch_bend_c, 10, 5632
21, 213385, Pitch_bend_c, 10, 5760
21, 213395, Pitch_bend_c, 10, 5888
21, 213404, Pitch_bend_c, 10, 6144
21, 213413, Pitch_bend_c, 10, 6272
21, 213423, Pitch_bend_c, 10, 6528
21, 213430, Pitch_bend_c, 10, 6656
21, 213439, Pitch_bend_c, 10, 6912
21, 213449, Pitch_bend_c, 10, 7040
21, 213465, Pitch_bend_c, 10, 7296
21, 213474, Pitch_bend_c, 10, 7424
21, 213481, Pitch_bend_c, 10, 7552
21, 213491, Pitch_bend_c, 10, 7680
21, 213500, Pitch_bend_c, 10, 7808
21, 213516, Pitch_bend_c, 10, 7936
21, 213535, Pitch_bend_c, 10, 8192
21, 215660, Note_on_c, 10, 69, 81
21, 215903, Note_on_c, 10, 69, 0
21, 216048, Note_on_c, 10, 69, 84
21, 217008, Note_on_c, 10, 69, 0
21, 219509, Note_on_c, 10, 62, 89
21, 219893, Note_on_c, 10, 62, 0
21, 220005, Note_on_c, 10, 62, 87
21, 220817, Note_on_c, 10, 62, 0
21, 221540, Note_on_c, 10, 62, 86
21, 221763, Note_on_c, 10, 62, 0
21, 221915, Note_on_c, 10, 62, 85
21, 222724, Note_on_c, 10, 62, 0
21, 222905, Control_c, 10, 1, 4
21, 222928, Control_c, 10, 1, 0
21, 223445, Note_on_c, 10, 74, 84
21, 223695, Note_on_c, 10, 74, 0
21, 223815, Note_on_c, 10, 74, 88
21, 224585, Note_on_c, 10, 74, 0
21, 225357, Note_on_c, 10, 62, 87
21, 225593, Note_on_c, 10, 62, 0
21, 225722, Note_on_c, 10, 62, 87
21, 226682, Note_on_c, 10, 62, 0
21, 227304, Note_on_c, 10, 62, 90
21, 227521, Note_on_c, 10, 62, 0
21, 227662, Note_on_c, 10, 62, 88
21, 228462, Note_on_c, 10, 62, 0
21, 229206, Note_on_c, 10, 62, 90
21, 229433, Note_on_c, 10, 62, 0
21, 229588, Note_on_c, 10, 62, 87
21, 230261, Pitch_bend_c, 10, 7808
21, 230269, Pitch_bend_c, 10, 7552
21, 230278, Pitch_bend_c, 10, 7296
21, 230287, Pitch_bend_c, 10, 7040
21, 230294, Pitch_bend_c, 10, 6784
21, 230304, Pitch_bend_c, 10, 6528
21, 230313, Pitch_bend_c, 10, 6272
21, 230320, Pitch_bend_c, 10, 6144
21, 230329, Pitch_bend_c, 10, 5888
21, 230339, Pitch_bend_c, 10, 5760
21, 230348, Pitch_bend_c, 10, 5632
21, 230364, Pitch_bend_c, 10, 5504
21, 230374, Pitch_bend_c, 10, 5376
21, 230390, Pitch_bend_c, 10, 5120
21, 230407, Pitch_bend_c, 10, 4992
21, 230423, Pitch_bend_c, 10, 4864
21, 230449, Pitch_bend_c, 10, 4736
21, 230542, Pitch_bend_c, 10, 4864
21, 230548, Note_on_c, 10, 62, 0
21, 230556, Pitch_bend_c, 10, 4992
21, 230566, Pitch_bend_c, 10, 5120
21, 230575, Pitch_bend_c, 10, 5248
21, 230584, Pitch_bend_c, 10, 5376
21, 230591, Pitch_bend_c, 10, 5632
21, 230601, Pitch_bend_c, 10, 5760
21, 230610, Pitch_bend_c, 10, 5888
21, 230617, Pitch_bend_c, 10, 6144
21, 230627, Pitch_bend_c, 10, 6400
21, 230636, Pitch_bend_c, 10, 6656
21, 230645, Pitch_bend_c, 10, 6912
21, 230655, Pitch_bend_c, 10, 7168
21, 230664, Pitch_bend_c, 10, 7424
21, 230671, Pitch_bend_c, 10, 7680
21, 230680, Pitch_bend_c, 10, 8064
21, 230690, Pitch_bend_c, 10, 8192
21, 231045, Note_on_c, 10, 62, 85
21, 231291, Note_on_c, 10, 62, 0
21, 231469, Note_on_c, 10, 62, 86
21, 232194, Note_on_c, 10, 62, 0
21, 234984, Note_on_c, 10, 74, 88
21, 235204, Note_on_c, 10, 74, 0
21, 235316, Note_on_c, 10, 74, 87
21, 236044, Note_on_c, 10, 74, 0
21, 236823, Note_on_c, 10, 62, 78
21, 237057, Note_on_c, 10, 62, 0
21, 237172, Note_on_c, 10, 62, 88
21, 237925, Note_on_c, 10, 62, 0
21, 240663, Note_on_c, 10, 62, 79
21, 240880, Note_on_c, 10, 62, 0
21, 241011, Note_on_c, 10, 62, 86
21, 241620, Pitch_bend_c, 10, 8064
21, 241627, Pitch_bend_c, 10, 7808
21, 241636, Pitch_bend_c, 10, 7552
21, 241646, Pitch_bend_c, 10, 7424
21, 241653, Pitch_bend_c, 10, 7296
21, 241662, Pitch_bend_c, 10, 7168
21, 241681, Pitch_bend_c, 10, 6912
21, 241697, Pitch_bend_c, 10, 6656
21, 241713, Pitch_bend_c, 10, 6528
21, 241730, Pitch_bend_c, 10, 6272
21, 241746, Pitch_bend_c, 10, 6144
21, 241772, Pitch_bend_c, 10, 6016
21, 241954, Pitch_bend_c, 10, 6144
21, 241971, Note_on_c, 10, 62, 0
21, 241971, Pitch_bend_c, 10, 6272
21, 241980, Pitch_bend_c, 10, 6400
21, 241997, Pitch_bend_c, 10, 6656
21, 242015, Pitch_bend_c, 10, 6912
21, 242032, Pitch_bend_c, 10, 7040
21, 242039, Pitch_bend_c, 10, 7168
21, 242048, Pitch_bend_c, 10, 7296
21, 242057, Pitch_bend_c, 10, 7424
21, 242067, Pitch_bend_c, 10, 7680
21, 242076, Pitch_bend_c, 10, 7936
21, 242086, Pitch_bend_c, 10, 8192
21, 242542, Note_on_c, 10, 62, 77
21, 242802, Note_on_c, 10, 62, 0
21, 242947, Note_on_c, 10, 62, 80
21, 243907, Note_on_c, 10, 62, 0
21, 244456, Note_on_c, 10, 62, 81
21, 244681, Note_on_c, 10, 62, 0
21, 244840, Note_on_c, 10, 62, 84
21, 245800, Note_on_c, 10, 62, 0
21, 246408, Note_on_c, 10, 62, 80
21, 246611, Note_on_c, 10, 62, 0
21, 246770, Note_on_c, 10, 62, 82
21, 247730, Note_on_c, 10, 62, 0
21, 248331, Note_on_c, 10, 62, 73
21, 248542, Note_on_c, 10, 62, 0
21, 248694, Note_on_c, 10, 62, 82
21, 249654, Note_on_c, 10, 62, 0
21, 250215, Note_on_c, 10, 50, 85
21, 250449, Note_on_c, 10, 50, 0
21, 250608, Note_on_c, 10, 50, 86
21, 251568, Note_on_c, 10, 50, 0
21, 252159, Note_on_c, 10, 50, 88
21, 252377, Note_on_c, 10, 50, 0
21, 252545, Note_on_c, 10, 50, 85
21, 253505, Note_on_c, 10, 50, 0
21, 254066, Note_on_c, 10, 50, 77
21, 254261, Note_on_c, 10, 50, 0
21, 254448, Note_on_c, 10, 50, 81
21, 255408, Note_on_c, 10, 50, 0
21, 284160, End_track
0, 0, End_of_file
