0, 0, Header, 1, 20, 192
1, 0, Start_track
1, 0, Title_t, "The One I Love"
1, 0, Text_t, "By Tim Cronin "
1, 0, Copyright_t, "This Arrangement Copyright 1999 by Tim Cronin"
1, 0, Copyright_t, "All Rights Reserved (original by: Berry/Buck/Mills/Stipe)"
1, 0, Text_t, "Generated by NoteWorthy Composer"
1, 0, Tempo, 461538
1, 0, Time_signature, 4, 2, 24, 8
1, 75456, Tempo, 465116
1, 75648, Tempo, 468750
1, 75840, Tempo, 476190
1, 76032, Tempo, 480000
1, 76224, Tempo, 491803
1, 76416, Tempo, 491803
1, 76800, Tempo, 500000
1, 76992, Tempo, 512820
1, 77184, Tempo, 517241
1, 77376, Tempo, 517241
1, 77568, Tempo, 521739
1, 77760, Tempo, 530973
1, 78144, Tempo, 535714
1, 78336, Tempo, 555555
1, 78336, Time_signature, 3, 2, 24, 8
1, 78528, Tempo, 491803
1, 78720, Tempo, 500000
1, 79296, Tempo, 512820
1, 79680, Tempo, 517241
1, 79680, End_track
2, 0, Start_track
2, 0, MIDI_port, 0
2, 0, Title_t, "Staff"
2, 0, Program_c, 2, 52
2, 0, Control_c, 2, 7, 120
2, 0, Control_c, 2, 10, 64
2, 0, Time_signature, 4, 2, 24, 8
2, 38784, Note_on_c, 2, 69, 110
2, 39040, Note_on_c, 2, 69, 0
2, 39072, Note_on_c, 2, 66, 110
2, 39406, Note_on_c, 2, 66, 0
2, 39408, Note_on_c, 2, 64, 110
2, 39646, Note_on_c, 2, 64, 0
2, 39648, Note_on_c, 2, 62, 110
2, 39904, Note_on_c, 2, 62, 0
2, 39936, Note_on_c, 2, 64, 110
2, 41232, Note_on_c, 2, 64, 0
2, 41856, Note_on_c, 2, 69, 110
2, 42112, Note_on_c, 2, 69, 0
2, 42144, Note_on_c, 2, 66, 110
2, 42478, Note_on_c, 2, 66, 0
2, 42480, Note_on_c, 2, 64, 110
2, 42718, Note_on_c, 2, 64, 0
2, 42720, Note_on_c, 2, 62, 110
2, 42976, Note_on_c, 2, 62, 0
2, 43008, Note_on_c, 2, 64, 110
2, 44304, Note_on_c, 2, 64, 0
2, 63360, Note_on_c, 2, 69, 110
2, 63616, Note_on_c, 2, 69, 0
2, 63648, Note_on_c, 2, 66, 110
2, 63982, Note_on_c, 2, 66, 0
2, 63984, Note_on_c, 2, 64, 110
2, 64222, Note_on_c, 2, 64, 0
2, 64224, Note_on_c, 2, 62, 110
2, 64480, Note_on_c, 2, 62, 0
2, 64512, Note_on_c, 2, 64, 110
2, 65808, Note_on_c, 2, 64, 0
2, 66432, Note_on_c, 2, 69, 110
2, 66688, Note_on_c, 2, 69, 0
2, 66720, Note_on_c, 2, 66, 110
2, 67054, Note_on_c, 2, 66, 0
2, 67056, Note_on_c, 2, 64, 110
2, 67294, Note_on_c, 2, 64, 0
2, 67296, Note_on_c, 2, 62, 110
2, 67552, Note_on_c, 2, 62, 0
2, 67584, Note_on_c, 2, 64, 110
2, 68880, Note_on_c, 2, 64, 0
2, 69504, Note_on_c, 2, 69, 110
2, 69760, Note_on_c, 2, 69, 0
2, 69792, Note_on_c, 2, 66, 110
2, 70126, Note_on_c, 2, 66, 0
2, 70128, Note_on_c, 2, 64, 110
2, 70366, Note_on_c, 2, 64, 0
2, 70368, Note_on_c, 2, 62, 110
2, 70624, Note_on_c, 2, 62, 0
2, 70656, Note_on_c, 2, 64, 110
2, 71952, Note_on_c, 2, 64, 0
2, 72576, Note_on_c, 2, 69, 110
2, 72832, Note_on_c, 2, 69, 0
2, 72864, Note_on_c, 2, 66, 110
2, 73198, Note_on_c, 2, 66, 0
2, 73200, Note_on_c, 2, 64, 110
2, 73438, Note_on_c, 2, 64, 0
2, 73440, Note_on_c, 2, 62, 110
2, 73696, Note_on_c, 2, 62, 0
2, 73728, Note_on_c, 2, 64, 110
2, 75024, Note_on_c, 2, 64, 0
2, 78336, Time_signature, 3, 2, 24, 8
2, 78336, End_track
3, 0, Start_track
3, 0, MIDI_port, 0
3, 0, Title_t, "sn"
3, 0, Control_c, 9, 7, 127
3, 0, Control_c, 9, 10, 64
3, 0, Time_signature, 4, 2, 24, 8
3, 1152, Note_on_c, 9, 40, 110
3, 1312, Note_on_c, 9, 40, 0
3, 1344, Note_on_c, 9, 40, 110
3, 1504, Note_on_c, 9, 40, 0
3, 1728, Note_on_c, 9, 40, 110
3, 1888, Note_on_c, 9, 40, 0
3, 2112, Note_on_c, 9, 40, 110
3, 2272, Note_on_c, 9, 40, 0
3, 2496, Note_on_c, 9, 40, 110
3, 2656, Note_on_c, 9, 40, 0
3, 2880, Note_on_c, 9, 40, 110
3, 3040, Note_on_c, 9, 40, 0
3, 3264, Note_on_c, 9, 40, 110
3, 3424, Note_on_c, 9, 40, 0
3, 3648, Note_on_c, 9, 40, 110
3, 3808, Note_on_c, 9, 40, 0
3, 4032, Note_on_c, 9, 40, 110
3, 4192, Note_on_c, 9, 40, 0
3, 4272, Note_on_c, 9, 40, 110
3, 4318, Note_on_c, 9, 40, 0
3, 4320, Note_on_c, 9, 40, 110
3, 4366, Note_on_c, 9, 40, 0
3, 4368, Note_on_c, 9, 40, 110
3, 4414, Note_on_c, 9, 40, 0
3, 4416, Note_on_c, 9, 40, 110
3, 4462, Note_on_c, 9, 40, 0
3, 4464, Note_on_c, 9, 40, 110
3, 4510, Note_on_c, 9, 40, 0
3, 4512, Note_on_c, 9, 40, 110
3, 4558, Note_on_c, 9, 40, 0
3, 4560, Note_on_c, 9, 40, 110
3, 4606, Note_on_c, 9, 40, 0
3, 4800, Note_on_c, 9, 40, 110
3, 4960, Note_on_c, 9, 40, 0
3, 5184, Note_on_c, 9, 40, 110
3, 5344, Note_on_c, 9, 40, 0
3, 5568, Note_on_c, 9, 40, 110
3, 5728, Note_on_c, 9, 40, 0
3, 5952, Note_on_c, 9, 40, 110
3, 6112, Note_on_c, 9, 40, 0
3, 6336, Note_on_c, 9, 40, 110
3, 6496, Note_on_c, 9, 40, 0
3, 6720, Note_on_c, 9, 40, 110
3, 6880, Note_on_c, 9, 40, 0
3, 7104, Note_on_c, 9, 40, 110
3, 7246, Note_on_c, 9, 40, 0
3, 7248, Note_on_c, 9, 40, 110
3, 7294, Note_on_c, 9, 40, 0
3, 7296, Note_on_c, 9, 40, 110
3, 7456, Note_on_c, 9, 40, 0
3, 7584, Note_on_c, 9, 40, 110
3, 7678, Note_on_c, 9, 40, 0
3, 7872, Note_on_c, 9, 40, 110
3, 8032, Note_on_c, 9, 40, 0
3, 8256, Note_on_c, 9, 40, 110
3, 8416, Note_on_c, 9, 40, 0
3, 8640, Note_on_c, 9, 40, 110
3, 8800, Note_on_c, 9, 40, 0
3, 9024, Note_on_c, 9, 40, 110
3, 9184, Note_on_c, 9, 40, 0
3, 9408, Note_on_c, 9, 40, 110
3, 9568, Note_on_c, 9, 40, 0
3, 9792, Note_on_c, 9, 40, 110
3, 9952, Note_on_c, 9, 40, 0
3, 10176, Note_on_c, 9, 40, 110
3, 10336, Note_on_c, 9, 40, 0
3, 10560, Note_on_c, 9, 40, 110
3, 10720, Note_on_c, 9, 40, 0
3, 10944, Note_on_c, 9, 40, 110
3, 11104, Note_on_c, 9, 40, 0
3, 11328, Note_on_c, 9, 40, 110
3, 11488, Note_on_c, 9, 40, 0
3, 11712, Note_on_c, 9, 40, 110
3, 11872, Note_on_c, 9, 40, 0
3, 12096, Note_on_c, 9, 40, 110
3, 12256, Note_on_c, 9, 40, 0
3, 12480, Note_on_c, 9, 40, 110
3, 12640, Note_on_c, 9, 40, 0
3, 12864, Note_on_c, 9, 40, 110
3, 13024, Note_on_c, 9, 40, 0
3, 13248, Note_on_c, 9, 40, 110
3, 13408, Note_on_c, 9, 40, 0
3, 13440, Note_on_c, 9, 40, 110
3, 13582, Note_on_c, 9, 40, 0
3, 13584, Note_on_c, 9, 40, 110
3, 13630, Note_on_c, 9, 40, 0
3, 13632, Note_on_c, 9, 40, 110
3, 13792, Note_on_c, 9, 40, 0
3, 14016, Note_on_c, 9, 40, 110
3, 14176, Note_on_c, 9, 40, 0
3, 14400, Note_on_c, 9, 40, 110
3, 14560, Note_on_c, 9, 40, 0
3, 14784, Note_on_c, 9, 40, 110
3, 14944, Note_on_c, 9, 40, 0
3, 15168, Note_on_c, 9, 40, 110
3, 15328, Note_on_c, 9, 40, 0
3, 15552, Note_on_c, 9, 40, 110
3, 15712, Note_on_c, 9, 40, 0
3, 15936, Note_on_c, 9, 40, 110
3, 16096, Note_on_c, 9, 40, 0
3, 16320, Note_on_c, 9, 40, 110
3, 16462, Note_on_c, 9, 40, 0
3, 16464, Note_on_c, 9, 40, 110
3, 16510, Note_on_c, 9, 40, 0
3, 16512, Note_on_c, 9, 40, 110
3, 16672, Note_on_c, 9, 40, 0
3, 16800, Note_on_c, 9, 40, 110
3, 16894, Note_on_c, 9, 40, 0
3, 17088, Note_on_c, 9, 40, 110
3, 17248, Note_on_c, 9, 40, 0
3, 17472, Note_on_c, 9, 40, 110
3, 17632, Note_on_c, 9, 40, 0
3, 17856, Note_on_c, 9, 40, 110
3, 18016, Note_on_c, 9, 40, 0
3, 18240, Note_on_c, 9, 40, 110
3, 18400, Note_on_c, 9, 40, 0
3, 18624, Note_on_c, 9, 40, 110
3, 18784, Note_on_c, 9, 40, 0
3, 19008, Note_on_c, 9, 40, 110
3, 19168, Note_on_c, 9, 40, 0
3, 19392, Note_on_c, 9, 40, 110
3, 19552, Note_on_c, 9, 40, 0
3, 19680, Note_on_c, 9, 40, 110
3, 19774, Note_on_c, 9, 40, 0
3, 19776, Note_on_c, 9, 40, 110
3, 19870, Note_on_c, 9, 40, 0
3, 19872, Note_on_c, 9, 40, 110
3, 19966, Note_on_c, 9, 40, 0
3, 20160, Note_on_c, 9, 40, 110
3, 20320, Note_on_c, 9, 40, 0
3, 20544, Note_on_c, 9, 40, 110
3, 20704, Note_on_c, 9, 40, 0
3, 20928, Note_on_c, 9, 40, 110
3, 21088, Note_on_c, 9, 40, 0
3, 21312, Note_on_c, 9, 40, 110
3, 21472, Note_on_c, 9, 40, 0
3, 21696, Note_on_c, 9, 40, 110
3, 21856, Note_on_c, 9, 40, 0
3, 22080, Note_on_c, 9, 40, 110
3, 22240, Note_on_c, 9, 40, 0
3, 22464, Note_on_c, 9, 40, 110
3, 22624, Note_on_c, 9, 40, 0
3, 22704, Note_on_c, 9, 40, 110
3, 22750, Note_on_c, 9, 40, 0
3, 22752, Note_on_c, 9, 40, 110
3, 22798, Note_on_c, 9, 40, 0
3, 22800, Note_on_c, 9, 40, 110
3, 22846, Note_on_c, 9, 40, 0
3, 22848, Note_on_c, 9, 40, 110
3, 22894, Note_on_c, 9, 40, 0
3, 22896, Note_on_c, 9, 40, 110
3, 22942, Note_on_c, 9, 40, 0
3, 22944, Note_on_c, 9, 40, 110
3, 22990, Note_on_c, 9, 40, 0
3, 22992, Note_on_c, 9, 40, 110
3, 23038, Note_on_c, 9, 40, 0
3, 23232, Note_on_c, 9, 40, 110
3, 23392, Note_on_c, 9, 40, 0
3, 23616, Note_on_c, 9, 40, 110
3, 23776, Note_on_c, 9, 40, 0
3, 24000, Note_on_c, 9, 40, 110
3, 24160, Note_on_c, 9, 40, 0
3, 24384, Note_on_c, 9, 40, 110
3, 24544, Note_on_c, 9, 40, 0
3, 24768, Note_on_c, 9, 40, 110
3, 24928, Note_on_c, 9, 40, 0
3, 25152, Note_on_c, 9, 40, 110
3, 25312, Note_on_c, 9, 40, 0
3, 25536, Note_on_c, 9, 40, 110
3, 25678, Note_on_c, 9, 40, 0
3, 25680, Note_on_c, 9, 40, 110
3, 25726, Note_on_c, 9, 40, 0
3, 25728, Note_on_c, 9, 40, 110
3, 25888, Note_on_c, 9, 40, 0
3, 26016, Note_on_c, 9, 40, 110
3, 26110, Note_on_c, 9, 40, 0
3, 26304, Note_on_c, 9, 40, 110
3, 26464, Note_on_c, 9, 40, 0
3, 26688, Note_on_c, 9, 40, 110
3, 26848, Note_on_c, 9, 40, 0
3, 27072, Note_on_c, 9, 40, 110
3, 27232, Note_on_c, 9, 40, 0
3, 27456, Note_on_c, 9, 40, 110
3, 27616, Note_on_c, 9, 40, 0
3, 27840, Note_on_c, 9, 40, 110
3, 28000, Note_on_c, 9, 40, 0
3, 28224, Note_on_c, 9, 40, 110
3, 28384, Note_on_c, 9, 40, 0
3, 28608, Note_on_c, 9, 40, 110
3, 28768, Note_on_c, 9, 40, 0
3, 28992, Note_on_c, 9, 40, 110
3, 29152, Note_on_c, 9, 40, 0
3, 29376, Note_on_c, 9, 40, 110
3, 29536, Note_on_c, 9, 40, 0
3, 29760, Note_on_c, 9, 40, 110
3, 29920, Note_on_c, 9, 40, 0
3, 30144, Note_on_c, 9, 40, 110
3, 30304, Note_on_c, 9, 40, 0
3, 30528, Note_on_c, 9, 40, 110
3, 30688, Note_on_c, 9, 40, 0
3, 30912, Note_on_c, 9, 40, 110
3, 31072, Note_on_c, 9, 40, 0
3, 31296, Note_on_c, 9, 40, 110
3, 31456, Note_on_c, 9, 40, 0
3, 31680, Note_on_c, 9, 40, 110
3, 31840, Note_on_c, 9, 40, 0
3, 31872, Note_on_c, 9, 40, 110
3, 32014, Note_on_c, 9, 40, 0
3, 32016, Note_on_c, 9, 40, 110
3, 32062, Note_on_c, 9, 40, 0
3, 32064, Note_on_c, 9, 40, 110
3, 32224, Note_on_c, 9, 40, 0
3, 32448, Note_on_c, 9, 40, 110
3, 32608, Note_on_c, 9, 40, 0
3, 32832, Note_on_c, 9, 40, 110
3, 32992, Note_on_c, 9, 40, 0
3, 33216, Note_on_c, 9, 40, 110
3, 33376, Note_on_c, 9, 40, 0
3, 33600, Note_on_c, 9, 40, 110
3, 33760, Note_on_c, 9, 40, 0
3, 33984, Note_on_c, 9, 40, 110
3, 34144, Note_on_c, 9, 40, 0
3, 34368, Note_on_c, 9, 40, 110
3, 34528, Note_on_c, 9, 40, 0
3, 34752, Note_on_c, 9, 40, 110
3, 34894, Note_on_c, 9, 40, 0
3, 34896, Note_on_c, 9, 40, 110
3, 34942, Note_on_c, 9, 40, 0
3, 34944, Note_on_c, 9, 40, 110
3, 35104, Note_on_c, 9, 40, 0
3, 35232, Note_on_c, 9, 40, 110
3, 35326, Note_on_c, 9, 40, 0
3, 35520, Note_on_c, 9, 40, 110
3, 35680, Note_on_c, 9, 40, 0
3, 35904, Note_on_c, 9, 40, 110
3, 36064, Note_on_c, 9, 40, 0
3, 36288, Note_on_c, 9, 40, 110
3, 36448, Note_on_c, 9, 40, 0
3, 36672, Note_on_c, 9, 40, 110
3, 36832, Note_on_c, 9, 40, 0
3, 37056, Note_on_c, 9, 40, 110
3, 37216, Note_on_c, 9, 40, 0
3, 37440, Note_on_c, 9, 40, 110
3, 37600, Note_on_c, 9, 40, 0
3, 37824, Note_on_c, 9, 40, 110
3, 37984, Note_on_c, 9, 40, 0
3, 38112, Note_on_c, 9, 40, 110
3, 38206, Note_on_c, 9, 40, 0
3, 38208, Note_on_c, 9, 40, 110
3, 38302, Note_on_c, 9, 40, 0
3, 38304, Note_on_c, 9, 40, 110
3, 38398, Note_on_c, 9, 40, 0
3, 38592, Note_on_c, 9, 40, 110
3, 38752, Note_on_c, 9, 40, 0
3, 38976, Note_on_c, 9, 40, 110
3, 39136, Note_on_c, 9, 40, 0
3, 39360, Note_on_c, 9, 40, 110
3, 39520, Note_on_c, 9, 40, 0
3, 39744, Note_on_c, 9, 40, 110
3, 39904, Note_on_c, 9, 40, 0
3, 40128, Note_on_c, 9, 40, 110
3, 40288, Note_on_c, 9, 40, 0
3, 40512, Note_on_c, 9, 40, 110
3, 40672, Note_on_c, 9, 40, 0
3, 40896, Note_on_c, 9, 40, 110
3, 41056, Note_on_c, 9, 40, 0
3, 41136, Note_on_c, 9, 40, 110
3, 41182, Note_on_c, 9, 40, 0
3, 41184, Note_on_c, 9, 40, 110
3, 41230, Note_on_c, 9, 40, 0
3, 41232, Note_on_c, 9, 40, 110
3, 41278, Note_on_c, 9, 40, 0
3, 41280, Note_on_c, 9, 40, 110
3, 41326, Note_on_c, 9, 40, 0
3, 41328, Note_on_c, 9, 40, 110
3, 41374, Note_on_c, 9, 40, 0
3, 41376, Note_on_c, 9, 40, 110
3, 41422, Note_on_c, 9, 40, 0
3, 41424, Note_on_c, 9, 40, 110
3, 41470, Note_on_c, 9, 40, 0
3, 41664, Note_on_c, 9, 40, 110
3, 41824, Note_on_c, 9, 40, 0
3, 42048, Note_on_c, 9, 40, 110
3, 42208, Note_on_c, 9, 40, 0
3, 42432, Note_on_c, 9, 40, 110
3, 42592, Note_on_c, 9, 40, 0
3, 42816, Note_on_c, 9, 40, 110
3, 42976, Note_on_c, 9, 40, 0
3, 43200, Note_on_c, 9, 40, 110
3, 43360, Note_on_c, 9, 40, 0
3, 43584, Note_on_c, 9, 40, 110
3, 43744, Note_on_c, 9, 40, 0
3, 43968, Note_on_c, 9, 40, 110
3, 44110, Note_on_c, 9, 40, 0
3, 44112, Note_on_c, 9, 40, 110
3, 44158, Note_on_c, 9, 40, 0
3, 44160, Note_on_c, 9, 40, 110
3, 44320, Note_on_c, 9, 40, 0
3, 44448, Note_on_c, 9, 40, 110
3, 44542, Note_on_c, 9, 40, 0
3, 44736, Note_on_c, 9, 40, 110
3, 44896, Note_on_c, 9, 40, 0
3, 45120, Note_on_c, 9, 40, 110
3, 45280, Note_on_c, 9, 40, 0
3, 45504, Note_on_c, 9, 40, 110
3, 45664, Note_on_c, 9, 40, 0
3, 45888, Note_on_c, 9, 40, 110
3, 46048, Note_on_c, 9, 40, 0
3, 46272, Note_on_c, 9, 40, 110
3, 46432, Note_on_c, 9, 40, 0
3, 46656, Note_on_c, 9, 40, 110
3, 46816, Note_on_c, 9, 40, 0
3, 47040, Note_on_c, 9, 40, 110
3, 47182, Note_on_c, 9, 40, 0
3, 47184, Note_on_c, 9, 40, 110
3, 47230, Note_on_c, 9, 40, 0
3, 47232, Note_on_c, 9, 40, 110
3, 47392, Note_on_c, 9, 40, 0
3, 47520, Note_on_c, 9, 40, 110
3, 47614, Note_on_c, 9, 40, 0
3, 47808, Note_on_c, 9, 40, 110
3, 47968, Note_on_c, 9, 40, 0
3, 48192, Note_on_c, 9, 40, 110
3, 48352, Note_on_c, 9, 40, 0
3, 48576, Note_on_c, 9, 40, 110
3, 48736, Note_on_c, 9, 40, 0
3, 48960, Note_on_c, 9, 40, 110
3, 49120, Note_on_c, 9, 40, 0
3, 49344, Note_on_c, 9, 40, 110
3, 49504, Note_on_c, 9, 40, 0
3, 49728, Note_on_c, 9, 40, 110
3, 49888, Note_on_c, 9, 40, 0
3, 50112, Note_on_c, 9, 40, 110
3, 50272, Note_on_c, 9, 40, 0
3, 50400, Note_on_c, 9, 40, 110
3, 50494, Note_on_c, 9, 40, 0
3, 50496, Note_on_c, 9, 40, 110
3, 50590, Note_on_c, 9, 40, 0
3, 50592, Note_on_c, 9, 40, 110
3, 50686, Note_on_c, 9, 40, 0
3, 50880, Note_on_c, 9, 40, 110
3, 51040, Note_on_c, 9, 40, 0
3, 51264, Note_on_c, 9, 40, 110
3, 51424, Note_on_c, 9, 40, 0
3, 51648, Note_on_c, 9, 40, 110
3, 51808, Note_on_c, 9, 40, 0
3, 52032, Note_on_c, 9, 40, 110
3, 52192, Note_on_c, 9, 40, 0
3, 52416, Note_on_c, 9, 40, 110
3, 52576, Note_on_c, 9, 40, 0
3, 52800, Note_on_c, 9, 40, 110
3, 52960, Note_on_c, 9, 40, 0
3, 53184, Note_on_c, 9, 40, 110
3, 53344, Note_on_c, 9, 40, 0
3, 53568, Note_on_c, 9, 40, 110
3, 53728, Note_on_c, 9, 40, 0
3, 53952, Note_on_c, 9, 40, 110
3, 54112, Note_on_c, 9, 40, 0
3, 54336, Note_on_c, 9, 40, 110
3, 54496, Note_on_c, 9, 40, 0
3, 54720, Note_on_c, 9, 40, 110
3, 54880, Note_on_c, 9, 40, 0
3, 55104, Note_on_c, 9, 40, 110
3, 55264, Note_on_c, 9, 40, 0
3, 55488, Note_on_c, 9, 40, 110
3, 55648, Note_on_c, 9, 40, 0
3, 55872, Note_on_c, 9, 40, 110
3, 56032, Note_on_c, 9, 40, 0
3, 56256, Note_on_c, 9, 40, 110
3, 56416, Note_on_c, 9, 40, 0
3, 56448, Note_on_c, 9, 40, 110
3, 56590, Note_on_c, 9, 40, 0
3, 56592, Note_on_c, 9, 40, 110
3, 56638, Note_on_c, 9, 40, 0
3, 56640, Note_on_c, 9, 40, 110
3, 56800, Note_on_c, 9, 40, 0
3, 57024, Note_on_c, 9, 40, 110
3, 57184, Note_on_c, 9, 40, 0
3, 57408, Note_on_c, 9, 40, 110
3, 57568, Note_on_c, 9, 40, 0
3, 57792, Note_on_c, 9, 40, 110
3, 57952, Note_on_c, 9, 40, 0
3, 58176, Note_on_c, 9, 40, 110
3, 58336, Note_on_c, 9, 40, 0
3, 58560, Note_on_c, 9, 40, 110
3, 58720, Note_on_c, 9, 40, 0
3, 58944, Note_on_c, 9, 40, 110
3, 59104, Note_on_c, 9, 40, 0
3, 59328, Note_on_c, 9, 40, 110
3, 59470, Note_on_c, 9, 40, 0
3, 59472, Note_on_c, 9, 40, 110
3, 59518, Note_on_c, 9, 40, 0
3, 59520, Note_on_c, 9, 40, 110
3, 59680, Note_on_c, 9, 40, 0
3, 59808, Note_on_c, 9, 40, 110
3, 59902, Note_on_c, 9, 40, 0
3, 60096, Note_on_c, 9, 40, 110
3, 60256, Note_on_c, 9, 40, 0
3, 60480, Note_on_c, 9, 40, 110
3, 60640, Note_on_c, 9, 40, 0
3, 60864, Note_on_c, 9, 40, 110
3, 61024, Note_on_c, 9, 40, 0
3, 61248, Note_on_c, 9, 40, 110
3, 61408, Note_on_c, 9, 40, 0
3, 61632, Note_on_c, 9, 40, 110
3, 61792, Note_on_c, 9, 40, 0
3, 62016, Note_on_c, 9, 40, 110
3, 62176, Note_on_c, 9, 40, 0
3, 62400, Note_on_c, 9, 40, 110
3, 62560, Note_on_c, 9, 40, 0
3, 62688, Note_on_c, 9, 40, 110
3, 62782, Note_on_c, 9, 40, 0
3, 62784, Note_on_c, 9, 40, 110
3, 62878, Note_on_c, 9, 40, 0
3, 62880, Note_on_c, 9, 40, 110
3, 62974, Note_on_c, 9, 40, 0
3, 63168, Note_on_c, 9, 40, 110
3, 63328, Note_on_c, 9, 40, 0
3, 63552, Note_on_c, 9, 40, 110
3, 63712, Note_on_c, 9, 40, 0
3, 63936, Note_on_c, 9, 40, 110
3, 64096, Note_on_c, 9, 40, 0
3, 64320, Note_on_c, 9, 40, 110
3, 64480, Note_on_c, 9, 40, 0
3, 64704, Note_on_c, 9, 40, 110
3, 64864, Note_on_c, 9, 40, 0
3, 65088, Note_on_c, 9, 40, 110
3, 65248, Note_on_c, 9, 40, 0
3, 65472, Note_on_c, 9, 40, 110
3, 65632, Note_on_c, 9, 40, 0
3, 65712, Note_on_c, 9, 40, 110
3, 65758, Note_on_c, 9, 40, 0
3, 65760, Note_on_c, 9, 40, 110
3, 65806, Note_on_c, 9, 40, 0
3, 65808, Note_on_c, 9, 40, 110
3, 65854, Note_on_c, 9, 40, 0
3, 65856, Note_on_c, 9, 40, 110
3, 65902, Note_on_c, 9, 40, 0
3, 65904, Note_on_c, 9, 40, 110
3, 65950, Note_on_c, 9, 40, 0
3, 65952, Note_on_c, 9, 40, 110
3, 65998, Note_on_c, 9, 40, 0
3, 66000, Note_on_c, 9, 40, 110
3, 66046, Note_on_c, 9, 40, 0
3, 66240, Note_on_c, 9, 40, 110
3, 66400, Note_on_c, 9, 40, 0
3, 66624, Note_on_c, 9, 40, 110
3, 66784, Note_on_c, 9, 40, 0
3, 67008, Note_on_c, 9, 40, 110
3, 67168, Note_on_c, 9, 40, 0
3, 67392, Note_on_c, 9, 40, 110
3, 67552, Note_on_c, 9, 40, 0
3, 67776, Note_on_c, 9, 40, 110
3, 67936, Note_on_c, 9, 40, 0
3, 68160, Note_on_c, 9, 40, 110
3, 68320, Note_on_c, 9, 40, 0
3, 68544, Note_on_c, 9, 40, 110
3, 68686, Note_on_c, 9, 40, 0
3, 68688, Note_on_c, 9, 40, 110
3, 68734, Note_on_c, 9, 40, 0
3, 68736, Note_on_c, 9, 40, 110
3, 68896, Note_on_c, 9, 40, 0
3, 69024, Note_on_c, 9, 40, 110
3, 69118, Note_on_c, 9, 40, 0
3, 69312, Note_on_c, 9, 40, 110
3, 69472, Note_on_c, 9, 40, 0
3, 69696, Note_on_c, 9, 40, 110
3, 69856, Note_on_c, 9, 40, 0
3, 70080, Note_on_c, 9, 40, 110
3, 70240, Note_on_c, 9, 40, 0
3, 70464, Note_on_c, 9, 40, 110
3, 70624, Note_on_c, 9, 40, 0
3, 70848, Note_on_c, 9, 40, 110
3, 71008, Note_on_c, 9, 40, 0
3, 71232, Note_on_c, 9, 40, 110
3, 71392, Note_on_c, 9, 40, 0
3, 71616, Note_on_c, 9, 40, 110
3, 71776, Note_on_c, 9, 40, 0
3, 71856, Note_on_c, 9, 40, 110
3, 71902, Note_on_c, 9, 40, 0
3, 71904, Note_on_c, 9, 40, 110
3, 71950, Note_on_c, 9, 40, 0
3, 71952, Note_on_c, 9, 40, 110
3, 71998, Note_on_c, 9, 40, 0
3, 72000, Note_on_c, 9, 40, 110
3, 72046, Note_on_c, 9, 40, 0
3, 72048, Note_on_c, 9, 40, 110
3, 72094, Note_on_c, 9, 40, 0
3, 72096, Note_on_c, 9, 40, 110
3, 72142, Note_on_c, 9, 40, 0
3, 72144, Note_on_c, 9, 40, 110
3, 72190, Note_on_c, 9, 40, 0
3, 72384, Note_on_c, 9, 40, 110
3, 72544, Note_on_c, 9, 40, 0
3, 72768, Note_on_c, 9, 40, 110
3, 72928, Note_on_c, 9, 40, 0
3, 73152, Note_on_c, 9, 40, 110
3, 73312, Note_on_c, 9, 40, 0
3, 73536, Note_on_c, 9, 40, 110
3, 73696, Note_on_c, 9, 40, 0
3, 73920, Note_on_c, 9, 40, 110
3, 74080, Note_on_c, 9, 40, 0
3, 74304, Note_on_c, 9, 40, 110
3, 74464, Note_on_c, 9, 40, 0
3, 74688, Note_on_c, 9, 40, 110
3, 74830, Note_on_c, 9, 40, 0
3, 74832, Note_on_c, 9, 40, 110
3, 74878, Note_on_c, 9, 40, 0
3, 74880, Note_on_c, 9, 40, 110
3, 75040, Note_on_c, 9, 40, 0
3, 75168, Note_on_c, 9, 40, 110
3, 75262, Note_on_c, 9, 40, 0
3, 75840, Note_on_c, 9, 40, 110
3, 75862, Note_on_c, 9, 40, 0
3, 75864, Note_on_c, 9, 40, 110
3, 76030, Note_on_c, 9, 40, 0
3, 76800, Note_on_c, 9, 40, 110
3, 76822, Note_on_c, 9, 40, 0
3, 76824, Note_on_c, 9, 40, 110
3, 76990, Note_on_c, 9, 40, 0
3, 78336, Time_signature, 3, 2, 24, 8
3, 78336, End_track
4, 0, Start_track
4, 0, MIDI_port, 0
4, 0, Title_t, "ki"
4, 0, Control_c, 9, 7, 127
4, 0, Control_c, 9, 10, 64
4, 0, Time_signature, 4, 2, 24, 8
4, 1248, Note_on_c, 9, 35, 110
4, 1294, Note_on_c, 9, 35, 0
4, 1296, Note_on_c, 9, 35, 110
4, 1342, Note_on_c, 9, 35, 0
4, 1536, Note_on_c, 9, 35, 110
4, 1696, Note_on_c, 9, 35, 0
4, 1920, Note_on_c, 9, 35, 110
4, 2014, Note_on_c, 9, 35, 0
4, 2016, Note_on_c, 9, 35, 110
4, 2110, Note_on_c, 9, 35, 0
4, 2208, Note_on_c, 9, 35, 110
4, 2302, Note_on_c, 9, 35, 0
4, 2688, Note_on_c, 9, 35, 110
4, 2782, Note_on_c, 9, 35, 0
4, 2784, Note_on_c, 9, 35, 110
4, 2878, Note_on_c, 9, 35, 0
4, 2976, Note_on_c, 9, 35, 110
4, 3070, Note_on_c, 9, 35, 0
4, 3072, Note_on_c, 9, 35, 110
4, 3232, Note_on_c, 9, 35, 0
4, 3456, Note_on_c, 9, 35, 110
4, 3550, Note_on_c, 9, 35, 0
4, 3552, Note_on_c, 9, 35, 110
4, 3646, Note_on_c, 9, 35, 0
4, 3840, Note_on_c, 9, 35, 110
4, 4000, Note_on_c, 9, 35, 0
4, 4224, Note_on_c, 9, 35, 110
4, 4384, Note_on_c, 9, 35, 0
4, 4608, Note_on_c, 9, 35, 110
4, 4768, Note_on_c, 9, 35, 0
4, 4992, Note_on_c, 9, 35, 110
4, 5086, Note_on_c, 9, 35, 0
4, 5088, Note_on_c, 9, 35, 110
4, 5182, Note_on_c, 9, 35, 0
4, 5280, Note_on_c, 9, 35, 110
4, 5374, Note_on_c, 9, 35, 0
4, 5760, Note_on_c, 9, 35, 110
4, 5854, Note_on_c, 9, 35, 0
4, 5856, Note_on_c, 9, 35, 110
4, 5950, Note_on_c, 9, 35, 0
4, 6048, Note_on_c, 9, 35, 110
4, 6142, Note_on_c, 9, 35, 0
4, 6144, Note_on_c, 9, 35, 110
4, 6304, Note_on_c, 9, 35, 0
4, 6528, Note_on_c, 9, 35, 110
4, 6622, Note_on_c, 9, 35, 0
4, 6624, Note_on_c, 9, 35, 110
4, 6718, Note_on_c, 9, 35, 0
4, 6912, Note_on_c, 9, 35, 110
4, 7072, Note_on_c, 9, 35, 0
4, 7200, Note_on_c, 9, 35, 110
4, 7294, Note_on_c, 9, 35, 0
4, 7296, Note_on_c, 9, 35, 110
4, 7456, Note_on_c, 9, 35, 0
4, 7584, Note_on_c, 9, 35, 110
4, 7678, Note_on_c, 9, 35, 0
4, 7680, Note_on_c, 9, 35, 110
4, 7840, Note_on_c, 9, 35, 0
4, 8064, Note_on_c, 9, 35, 110
4, 8158, Note_on_c, 9, 35, 0
4, 8160, Note_on_c, 9, 35, 110
4, 8254, Note_on_c, 9, 35, 0
4, 8448, Note_on_c, 9, 35, 110
4, 8608, Note_on_c, 9, 35, 0
4, 8832, Note_on_c, 9, 35, 110
4, 8926, Note_on_c, 9, 35, 0
4, 8928, Note_on_c, 9, 35, 110
4, 9022, Note_on_c, 9, 35, 0
4, 9216, Note_on_c, 9, 35, 110
4, 9376, Note_on_c, 9, 35, 0
4, 9600, Note_on_c, 9, 35, 110
4, 9694, Note_on_c, 9, 35, 0
4, 9696, Note_on_c, 9, 35, 110
4, 9790, Note_on_c, 9, 35, 0
4, 9984, Note_on_c, 9, 35, 110
4, 10144, Note_on_c, 9, 35, 0
4, 10368, Note_on_c, 9, 35, 110
4, 10462, Note_on_c, 9, 35, 0
4, 10464, Note_on_c, 9, 35, 110
4, 10558, Note_on_c, 9, 35, 0
4, 10752, Note_on_c, 9, 35, 110
4, 10912, Note_on_c, 9, 35, 0
4, 11136, Note_on_c, 9, 35, 110
4, 11230, Note_on_c, 9, 35, 0
4, 11232, Note_on_c, 9, 35, 110
4, 11326, Note_on_c, 9, 35, 0
4, 11520, Note_on_c, 9, 35, 110
4, 11680, Note_on_c, 9, 35, 0
4, 11904, Note_on_c, 9, 35, 110
4, 11998, Note_on_c, 9, 35, 0
4, 12000, Note_on_c, 9, 35, 110
4, 12094, Note_on_c, 9, 35, 0
4, 12288, Note_on_c, 9, 35, 110
4, 12448, Note_on_c, 9, 35, 0
4, 12672, Note_on_c, 9, 35, 110
4, 12766, Note_on_c, 9, 35, 0
4, 12768, Note_on_c, 9, 35, 110
4, 12862, Note_on_c, 9, 35, 0
4, 13056, Note_on_c, 9, 35, 110
4, 13216, Note_on_c, 9, 35, 0
4, 13344, Note_on_c, 9, 35, 110
4, 13438, Note_on_c, 9, 35, 0
4, 13536, Note_on_c, 9, 35, 110
4, 13630, Note_on_c, 9, 35, 0
4, 13824, Note_on_c, 9, 35, 110
4, 13984, Note_on_c, 9, 35, 0
4, 14208, Note_on_c, 9, 35, 110
4, 14302, Note_on_c, 9, 35, 0
4, 14304, Note_on_c, 9, 35, 110
4, 14398, Note_on_c, 9, 35, 0
4, 14592, Note_on_c, 9, 35, 110
4, 14752, Note_on_c, 9, 35, 0
4, 14976, Note_on_c, 9, 35, 110
4, 15070, Note_on_c, 9, 35, 0
4, 15072, Note_on_c, 9, 35, 110
4, 15166, Note_on_c, 9, 35, 0
4, 15264, Note_on_c, 9, 35, 110
4, 15358, Note_on_c, 9, 35, 0
4, 15360, Note_on_c, 9, 35, 110
4, 15520, Note_on_c, 9, 35, 0
4, 15744, Note_on_c, 9, 35, 110
4, 15838, Note_on_c, 9, 35, 0
4, 15840, Note_on_c, 9, 35, 110
4, 15934, Note_on_c, 9, 35, 0
4, 16128, Note_on_c, 9, 35, 110
4, 16288, Note_on_c, 9, 35, 0
4, 16416, Note_on_c, 9, 35, 110
4, 16510, Note_on_c, 9, 35, 0
4, 16512, Note_on_c, 9, 35, 110
4, 16672, Note_on_c, 9, 35, 0
4, 16800, Note_on_c, 9, 35, 110
4, 16894, Note_on_c, 9, 35, 0
4, 16896, Note_on_c, 9, 35, 110
4, 17056, Note_on_c, 9, 35, 0
4, 17280, Note_on_c, 9, 35, 110
4, 17374, Note_on_c, 9, 35, 0
4, 17376, Note_on_c, 9, 35, 110
4, 17470, Note_on_c, 9, 35, 0
4, 17664, Note_on_c, 9, 35, 110
4, 17824, Note_on_c, 9, 35, 0
4, 18048, Note_on_c, 9, 35, 110
4, 18142, Note_on_c, 9, 35, 0
4, 18144, Note_on_c, 9, 35, 110
4, 18238, Note_on_c, 9, 35, 0
4, 18432, Note_on_c, 9, 35, 110
4, 18592, Note_on_c, 9, 35, 0
4, 18816, Note_on_c, 9, 35, 110
4, 18910, Note_on_c, 9, 35, 0
4, 18912, Note_on_c, 9, 35, 110
4, 19006, Note_on_c, 9, 35, 0
4, 19200, Note_on_c, 9, 35, 110
4, 19360, Note_on_c, 9, 35, 0
4, 19584, Note_on_c, 9, 35, 110
4, 19678, Note_on_c, 9, 35, 0
4, 19680, Note_on_c, 9, 35, 110
4, 19774, Note_on_c, 9, 35, 0
4, 19968, Note_on_c, 9, 35, 110
4, 20128, Note_on_c, 9, 35, 0
4, 20352, Note_on_c, 9, 35, 110
4, 20446, Note_on_c, 9, 35, 0
4, 20448, Note_on_c, 9, 35, 110
4, 20542, Note_on_c, 9, 35, 0
4, 20640, Note_on_c, 9, 35, 110
4, 20734, Note_on_c, 9, 35, 0
4, 21120, Note_on_c, 9, 35, 110
4, 21214, Note_on_c, 9, 35, 0
4, 21216, Note_on_c, 9, 35, 110
4, 21310, Note_on_c, 9, 35, 0
4, 21408, Note_on_c, 9, 35, 110
4, 21502, Note_on_c, 9, 35, 0
4, 21504, Note_on_c, 9, 35, 110
4, 21664, Note_on_c, 9, 35, 0
4, 21888, Note_on_c, 9, 35, 110
4, 21982, Note_on_c, 9, 35, 0
4, 21984, Note_on_c, 9, 35, 110
4, 22078, Note_on_c, 9, 35, 0
4, 22272, Note_on_c, 9, 35, 110
4, 22432, Note_on_c, 9, 35, 0
4, 22656, Note_on_c, 9, 35, 110
4, 22816, Note_on_c, 9, 35, 0
4, 23040, Note_on_c, 9, 35, 110
4, 23200, Note_on_c, 9, 35, 0
4, 23424, Note_on_c, 9, 35, 110
4, 23518, Note_on_c, 9, 35, 0
4, 23520, Note_on_c, 9, 35, 110
4, 23614, Note_on_c, 9, 35, 0
4, 23712, Note_on_c, 9, 35, 110
4, 23806, Note_on_c, 9, 35, 0
4, 24192, Note_on_c, 9, 35, 110
4, 24286, Note_on_c, 9, 35, 0
4, 24288, Note_on_c, 9, 35, 110
4, 24382, Note_on_c, 9, 35, 0
4, 24480, Note_on_c, 9, 35, 110
4, 24574, Note_on_c, 9, 35, 0
4, 24576, Note_on_c, 9, 35, 110
4, 24736, Note_on_c, 9, 35, 0
4, 24960, Note_on_c, 9, 35, 110
4, 25054, Note_on_c, 9, 35, 0
4, 25056, Note_on_c, 9, 35, 110
4, 25150, Note_on_c, 9, 35, 0
4, 25344, Note_on_c, 9, 35, 110
4, 25504, Note_on_c, 9, 35, 0
4, 25632, Note_on_c, 9, 35, 110
4, 25726, Note_on_c, 9, 35, 0
4, 25728, Note_on_c, 9, 35, 110
4, 25888, Note_on_c, 9, 35, 0
4, 26016, Note_on_c, 9, 35, 110
4, 26110, Note_on_c, 9, 35, 0
4, 26112, Note_on_c, 9, 35, 110
4, 26272, Note_on_c, 9, 35, 0
4, 26496, Note_on_c, 9, 35, 110
4, 26590, Note_on_c, 9, 35, 0
4, 26592, Note_on_c, 9, 35, 110
4, 26686, Note_on_c, 9, 35, 0
4, 26880, Note_on_c, 9, 35, 110
4, 27040, Note_on_c, 9, 35, 0
4, 27264, Note_on_c, 9, 35, 110
4, 27358, Note_on_c, 9, 35, 0
4, 27360, Note_on_c, 9, 35, 110
4, 27454, Note_on_c, 9, 35, 0
4, 27648, Note_on_c, 9, 35, 110
4, 27808, Note_on_c, 9, 35, 0
4, 28032, Note_on_c, 9, 35, 110
4, 28126, Note_on_c, 9, 35, 0
4, 28128, Note_on_c, 9, 35, 110
4, 28222, Note_on_c, 9, 35, 0
4, 28416, Note_on_c, 9, 35, 110
4, 28576, Note_on_c, 9, 35, 0
4, 28800, Note_on_c, 9, 35, 110
4, 28894, Note_on_c, 9, 35, 0
4, 28896, Note_on_c, 9, 35, 110
4, 28990, Note_on_c, 9, 35, 0
4, 29184, Note_on_c, 9, 35, 110
4, 29344, Note_on_c, 9, 35, 0
4, 29568, Note_on_c, 9, 35, 110
4, 29662, Note_on_c, 9, 35, 0
4, 29664, Note_on_c, 9, 35, 110
4, 29758, Note_on_c, 9, 35, 0
4, 29952, Note_on_c, 9, 35, 110
4, 30112, Note_on_c, 9, 35, 0
4, 30336, Note_on_c, 9, 35, 110
4, 30430, Note_on_c, 9, 35, 0
4, 30432, Note_on_c, 9, 35, 110
4, 30526, Note_on_c, 9, 35, 0
4, 30720, Note_on_c, 9, 35, 110
4, 30880, Note_on_c, 9, 35, 0
4, 31104, Note_on_c, 9, 35, 110
4, 31198, Note_on_c, 9, 35, 0
4, 31200, Note_on_c, 9, 35, 110
4, 31294, Note_on_c, 9, 35, 0
4, 31488, Note_on_c, 9, 35, 110
4, 31648, Note_on_c, 9, 35, 0
4, 31776, Note_on_c, 9, 35, 110
4, 31870, Note_on_c, 9, 35, 0
4, 31968, Note_on_c, 9, 35, 110
4, 32062, Note_on_c, 9, 35, 0
4, 32256, Note_on_c, 9, 35, 110
4, 32416, Note_on_c, 9, 35, 0
4, 32640, Note_on_c, 9, 35, 110
4, 32734, Note_on_c, 9, 35, 0
4, 32736, Note_on_c, 9, 35, 110
4, 32830, Note_on_c, 9, 35, 0
4, 33024, Note_on_c, 9, 35, 110
4, 33184, Note_on_c, 9, 35, 0
4, 33408, Note_on_c, 9, 35, 110
4, 33502, Note_on_c, 9, 35, 0
4, 33504, Note_on_c, 9, 35, 110
4, 33598, Note_on_c, 9, 35, 0
4, 33696, Note_on_c, 9, 35, 110
4, 33790, Note_on_c, 9, 35, 0
4, 33792, Note_on_c, 9, 35, 110
4, 33952, Note_on_c, 9, 35, 0
4, 34176, Note_on_c, 9, 35, 110
4, 34270, Note_on_c, 9, 35, 0
4, 34272, Note_on_c, 9, 35, 110
4, 34366, Note_on_c, 9, 35, 0
4, 34560, Note_on_c, 9, 35, 110
4, 34720, Note_on_c, 9, 35, 0
4, 34848, Note_on_c, 9, 35, 110
4, 34942, Note_on_c, 9, 35, 0
4, 34944, Note_on_c, 9, 35, 110
4, 35104, Note_on_c, 9, 35, 0
4, 35232, Note_on_c, 9, 35, 110
4, 35326, Note_on_c, 9, 35, 0
4, 35328, Note_on_c, 9, 35, 110
4, 35488, Note_on_c, 9, 35, 0
4, 35712, Note_on_c, 9, 35, 110
4, 35806, Note_on_c, 9, 35, 0
4, 35808, Note_on_c, 9, 35, 110
4, 35902, Note_on_c, 9, 35, 0
4, 36096, Note_on_c, 9, 35, 110
4, 36256, Note_on_c, 9, 35, 0
4, 36480, Note_on_c, 9, 35, 110
4, 36574, Note_on_c, 9, 35, 0
4, 36576, Note_on_c, 9, 35, 110
4, 36670, Note_on_c, 9, 35, 0
4, 36864, Note_on_c, 9, 35, 110
4, 37024, Note_on_c, 9, 35, 0
4, 37248, Note_on_c, 9, 35, 110
4, 37342, Note_on_c, 9, 35, 0
4, 37344, Note_on_c, 9, 35, 110
4, 37438, Note_on_c, 9, 35, 0
4, 37632, Note_on_c, 9, 35, 110
4, 37792, Note_on_c, 9, 35, 0
4, 38016, Note_on_c, 9, 35, 110
4, 38110, Note_on_c, 9, 35, 0
4, 38112, Note_on_c, 9, 35, 110
4, 38206, Note_on_c, 9, 35, 0
4, 38400, Note_on_c, 9, 35, 110
4, 38560, Note_on_c, 9, 35, 0
4, 38784, Note_on_c, 9, 35, 110
4, 38878, Note_on_c, 9, 35, 0
4, 38880, Note_on_c, 9, 35, 110
4, 38974, Note_on_c, 9, 35, 0
4, 39072, Note_on_c, 9, 35, 110
4, 39166, Note_on_c, 9, 35, 0
4, 39552, Note_on_c, 9, 35, 110
4, 39646, Note_on_c, 9, 35, 0
4, 39648, Note_on_c, 9, 35, 110
4, 39742, Note_on_c, 9, 35, 0
4, 39840, Note_on_c, 9, 35, 110
4, 39934, Note_on_c, 9, 35, 0
4, 39936, Note_on_c, 9, 35, 110
4, 40096, Note_on_c, 9, 35, 0
4, 40320, Note_on_c, 9, 35, 110
4, 40414, Note_on_c, 9, 35, 0
4, 40416, Note_on_c, 9, 35, 110
4, 40510, Note_on_c, 9, 35, 0
4, 40704, Note_on_c, 9, 35, 110
4, 40864, Note_on_c, 9, 35, 0
4, 41088, Note_on_c, 9, 35, 110
4, 41248, Note_on_c, 9, 35, 0
4, 41472, Note_on_c, 9, 35, 110
4, 41632, Note_on_c, 9, 35, 0
4, 41856, Note_on_c, 9, 35, 110
4, 41950, Note_on_c, 9, 35, 0
4, 41952, Note_on_c, 9, 35, 110
4, 42046, Note_on_c, 9, 35, 0
4, 42144, Note_on_c, 9, 35, 110
4, 42238, Note_on_c, 9, 35, 0
4, 42624, Note_on_c, 9, 35, 110
4, 42718, Note_on_c, 9, 35, 0
4, 42720, Note_on_c, 9, 35, 110
4, 42814, Note_on_c, 9, 35, 0
4, 42912, Note_on_c, 9, 35, 110
4, 43006, Note_on_c, 9, 35, 0
4, 43008, Note_on_c, 9, 35, 110
4, 43168, Note_on_c, 9, 35, 0
4, 43392, Note_on_c, 9, 35, 110
4, 43486, Note_on_c, 9, 35, 0
4, 43488, Note_on_c, 9, 35, 110
4, 43582, Note_on_c, 9, 35, 0
4, 43776, Note_on_c, 9, 35, 110
4, 43936, Note_on_c, 9, 35, 0
4, 44064, Note_on_c, 9, 35, 110
4, 44158, Note_on_c, 9, 35, 0
4, 44160, Note_on_c, 9, 35, 110
4, 44320, Note_on_c, 9, 35, 0
4, 44448, Note_on_c, 9, 35, 110
4, 44542, Note_on_c, 9, 35, 0
4, 44544, Note_on_c, 9, 35, 110
4, 44704, Note_on_c, 9, 35, 0
4, 44928, Note_on_c, 9, 35, 110
4, 45022, Note_on_c, 9, 35, 0
4, 45024, Note_on_c, 9, 35, 110
4, 45118, Note_on_c, 9, 35, 0
4, 45312, Note_on_c, 9, 35, 110
4, 45472, Note_on_c, 9, 35, 0
4, 45696, Note_on_c, 9, 35, 110
4, 45790, Note_on_c, 9, 35, 0
4, 45792, Note_on_c, 9, 35, 110
4, 45886, Note_on_c, 9, 35, 0
4, 45984, Note_on_c, 9, 35, 110
4, 46078, Note_on_c, 9, 35, 0
4, 46080, Note_on_c, 9, 35, 110
4, 46240, Note_on_c, 9, 35, 0
4, 46464, Note_on_c, 9, 35, 110
4, 46558, Note_on_c, 9, 35, 0
4, 46560, Note_on_c, 9, 35, 110
4, 46654, Note_on_c, 9, 35, 0
4, 46848, Note_on_c, 9, 35, 110
4, 47008, Note_on_c, 9, 35, 0
4, 47136, Note_on_c, 9, 35, 110
4, 47230, Note_on_c, 9, 35, 0
4, 47232, Note_on_c, 9, 35, 110
4, 47392, Note_on_c, 9, 35, 0
4, 47520, Note_on_c, 9, 35, 110
4, 47614, Note_on_c, 9, 35, 0
4, 47616, Note_on_c, 9, 35, 110
4, 47776, Note_on_c, 9, 35, 0
4, 48000, Note_on_c, 9, 35, 110
4, 48094, Note_on_c, 9, 35, 0
4, 48096, Note_on_c, 9, 35, 110
4, 48190, Note_on_c, 9, 35, 0
4, 48384, Note_on_c, 9, 35, 110
4, 48544, Note_on_c, 9, 35, 0
4, 48768, Note_on_c, 9, 35, 110
4, 48862, Note_on_c, 9, 35, 0
4, 48864, Note_on_c, 9, 35, 110
4, 48958, Note_on_c, 9, 35, 0
4, 49152, Note_on_c, 9, 35, 110
4, 49312, Note_on_c, 9, 35, 0
4, 49536, Note_on_c, 9, 35, 110
4, 49630, Note_on_c, 9, 35, 0
4, 49632, Note_on_c, 9, 35, 110
4, 49726, Note_on_c, 9, 35, 0
4, 49920, Note_on_c, 9, 35, 110
4, 50080, Note_on_c, 9, 35, 0
4, 50304, Note_on_c, 9, 35, 110
4, 50398, Note_on_c, 9, 35, 0
4, 50400, Note_on_c, 9, 35, 110
4, 50494, Note_on_c, 9, 35, 0
4, 50688, Note_on_c, 9, 35, 110
4, 50848, Note_on_c, 9, 35, 0
4, 51072, Note_on_c, 9, 35, 110
4, 51166, Note_on_c, 9, 35, 0
4, 51168, Note_on_c, 9, 35, 110
4, 51262, Note_on_c, 9, 35, 0
4, 51456, Note_on_c, 9, 35, 110
4, 51616, Note_on_c, 9, 35, 0
4, 51840, Note_on_c, 9, 35, 110
4, 51934, Note_on_c, 9, 35, 0
4, 51936, Note_on_c, 9, 35, 110
4, 52030, Note_on_c, 9, 35, 0
4, 52224, Note_on_c, 9, 35, 110
4, 52384, Note_on_c, 9, 35, 0
4, 52608, Note_on_c, 9, 35, 110
4, 52702, Note_on_c, 9, 35, 0
4, 52704, Note_on_c, 9, 35, 110
4, 52798, Note_on_c, 9, 35, 0
4, 52992, Note_on_c, 9, 35, 110
4, 53152, Note_on_c, 9, 35, 0
4, 53376, Note_on_c, 9, 35, 110
4, 53470, Note_on_c, 9, 35, 0
4, 53472, Note_on_c, 9, 35, 110
4, 53566, Note_on_c, 9, 35, 0
4, 53760, Note_on_c, 9, 35, 110
4, 53920, Note_on_c, 9, 35, 0
4, 54144, Note_on_c, 9, 35, 110
4, 54238, Note_on_c, 9, 35, 0
4, 54240, Note_on_c, 9, 35, 110
4, 54334, Note_on_c, 9, 35, 0
4, 54528, Note_on_c, 9, 35, 110
4, 54688, Note_on_c, 9, 35, 0
4, 54912, Note_on_c, 9, 35, 110
4, 55006, Note_on_c, 9, 35, 0
4, 55008, Note_on_c, 9, 35, 110
4, 55102, Note_on_c, 9, 35, 0
4, 55296, Note_on_c, 9, 35, 110
4, 55456, Note_on_c, 9, 35, 0
4, 55680, Note_on_c, 9, 35, 110
4, 55774, Note_on_c, 9, 35, 0
4, 55776, Note_on_c, 9, 35, 110
4, 55870, Note_on_c, 9, 35, 0
4, 56064, Note_on_c, 9, 35, 110
4, 56224, Note_on_c, 9, 35, 0
4, 56352, Note_on_c, 9, 35, 110
4, 56446, Note_on_c, 9, 35, 0
4, 56544, Note_on_c, 9, 35, 110
4, 56638, Note_on_c, 9, 35, 0
4, 56832, Note_on_c, 9, 35, 110
4, 56992, Note_on_c, 9, 35, 0
4, 57216, Note_on_c, 9, 35, 110
4, 57310, Note_on_c, 9, 35, 0
4, 57312, Note_on_c, 9, 35, 110
4, 57406, Note_on_c, 9, 35, 0
4, 57600, Note_on_c, 9, 35, 110
4, 57760, Note_on_c, 9, 35, 0
4, 57984, Note_on_c, 9, 35, 110
4, 58078, Note_on_c, 9, 35, 0
4, 58080, Note_on_c, 9, 35, 110
4, 58174, Note_on_c, 9, 35, 0
4, 58272, Note_on_c, 9, 35, 110
4, 58366, Note_on_c, 9, 35, 0
4, 58368, Note_on_c, 9, 35, 110
4, 58528, Note_on_c, 9, 35, 0
4, 58752, Note_on_c, 9, 35, 110
4, 58846, Note_on_c, 9, 35, 0
4, 58848, Note_on_c, 9, 35, 110
4, 58942, Note_on_c, 9, 35, 0
4, 59136, Note_on_c, 9, 35, 110
4, 59296, Note_on_c, 9, 35, 0
4, 59424, Note_on_c, 9, 35, 110
4, 59518, Note_on_c, 9, 35, 0
4, 59520, Note_on_c, 9, 35, 110
4, 59680, Note_on_c, 9, 35, 0
4, 59808, Note_on_c, 9, 35, 110
4, 59902, Note_on_c, 9, 35, 0
4, 59904, Note_on_c, 9, 35, 110
4, 60064, Note_on_c, 9, 35, 0
4, 60288, Note_on_c, 9, 35, 110
4, 60382, Note_on_c, 9, 35, 0
4, 60384, Note_on_c, 9, 35, 110
4, 60478, Note_on_c, 9, 35, 0
4, 60672, Note_on_c, 9, 35, 110
4, 60832, Note_on_c, 9, 35, 0
4, 61056, Note_on_c, 9, 35, 110
4, 61150, Note_on_c, 9, 35, 0
4, 61152, Note_on_c, 9, 35, 110
4, 61246, Note_on_c, 9, 35, 0
4, 61440, Note_on_c, 9, 35, 110
4, 61600, Note_on_c, 9, 35, 0
4, 61824, Note_on_c, 9, 35, 110
4, 61918, Note_on_c, 9, 35, 0
4, 61920, Note_on_c, 9, 35, 110
4, 62014, Note_on_c, 9, 35, 0
4, 62208, Note_on_c, 9, 35, 110
4, 62368, Note_on_c, 9, 35, 0
4, 62592, Note_on_c, 9, 35, 110
4, 62686, Note_on_c, 9, 35, 0
4, 62688, Note_on_c, 9, 35, 110
4, 62782, Note_on_c, 9, 35, 0
4, 62976, Note_on_c, 9, 35, 110
4, 63136, Note_on_c, 9, 35, 0
4, 63360, Note_on_c, 9, 35, 110
4, 63454, Note_on_c, 9, 35, 0
4, 63456, Note_on_c, 9, 35, 110
4, 63550, Note_on_c, 9, 35, 0
4, 63648, Note_on_c, 9, 35, 110
4, 63742, Note_on_c, 9, 35, 0
4, 64128, Note_on_c, 9, 35, 110
4, 64222, Note_on_c, 9, 35, 0
4, 64224, Note_on_c, 9, 35, 110
4, 64318, Note_on_c, 9, 35, 0
4, 64416, Note_on_c, 9, 35, 110
4, 64510, Note_on_c, 9, 35, 0
4, 64512, Note_on_c, 9, 35, 110
4, 64672, Note_on_c, 9, 35, 0
4, 64896, Note_on_c, 9, 35, 110
4, 64990, Note_on_c, 9, 35, 0
4, 64992, Note_on_c, 9, 35, 110
4, 65086, Note_on_c, 9, 35, 0
4, 65280, Note_on_c, 9, 35, 110
4, 65440, Note_on_c, 9, 35, 0
4, 65664, Note_on_c, 9, 35, 110
4, 65824, Note_on_c, 9, 35, 0
4, 66048, Note_on_c, 9, 35, 110
4, 66208, Note_on_c, 9, 35, 0
4, 66432, Note_on_c, 9, 35, 110
4, 66526, Note_on_c, 9, 35, 0
4, 66528, Note_on_c, 9, 35, 110
4, 66622, Note_on_c, 9, 35, 0
4, 66720, Note_on_c, 9, 35, 110
4, 66814, Note_on_c, 9, 35, 0
4, 67200, Note_on_c, 9, 35, 110
4, 67294, Note_on_c, 9, 35, 0
4, 67296, Note_on_c, 9, 35, 110
4, 67390, Note_on_c, 9, 35, 0
4, 67488, Note_on_c, 9, 35, 110
4, 67582, Note_on_c, 9, 35, 0
4, 67584, Note_on_c, 9, 35, 110
4, 67744, Note_on_c, 9, 35, 0
4, 67968, Note_on_c, 9, 35, 110
4, 68062, Note_on_c, 9, 35, 0
4, 68064, Note_on_c, 9, 35, 110
4, 68158, Note_on_c, 9, 35, 0
4, 68352, Note_on_c, 9, 35, 110
4, 68512, Note_on_c, 9, 35, 0
4, 68640, Note_on_c, 9, 35, 110
4, 68734, Note_on_c, 9, 35, 0
4, 68736, Note_on_c, 9, 35, 110
4, 68896, Note_on_c, 9, 35, 0
4, 69024, Note_on_c, 9, 35, 110
4, 69118, Note_on_c, 9, 35, 0
4, 69120, Note_on_c, 9, 35, 110
4, 69280, Note_on_c, 9, 35, 0
4, 69504, Note_on_c, 9, 35, 110
4, 69598, Note_on_c, 9, 35, 0
4, 69600, Note_on_c, 9, 35, 110
4, 69694, Note_on_c, 9, 35, 0
4, 69792, Note_on_c, 9, 35, 110
4, 69886, Note_on_c, 9, 35, 0
4, 70272, Note_on_c, 9, 35, 110
4, 70366, Note_on_c, 9, 35, 0
4, 70368, Note_on_c, 9, 35, 110
4, 70462, Note_on_c, 9, 35, 0
4, 70560, Note_on_c, 9, 35, 110
4, 70654, Note_on_c, 9, 35, 0
4, 70656, Note_on_c, 9, 35, 110
4, 70816, Note_on_c, 9, 35, 0
4, 71040, Note_on_c, 9, 35, 110
4, 71134, Note_on_c, 9, 35, 0
4, 71136, Note_on_c, 9, 35, 110
4, 71230, Note_on_c, 9, 35, 0
4, 71424, Note_on_c, 9, 35, 110
4, 71584, Note_on_c, 9, 35, 0
4, 71808, Note_on_c, 9, 35, 110
4, 71968, Note_on_c, 9, 35, 0
4, 72192, Note_on_c, 9, 35, 110
4, 72352, Note_on_c, 9, 35, 0
4, 72576, Note_on_c, 9, 35, 110
4, 72670, Note_on_c, 9, 35, 0
4, 72672, Note_on_c, 9, 35, 110
4, 72766, Note_on_c, 9, 35, 0
4, 72864, Note_on_c, 9, 35, 110
4, 72958, Note_on_c, 9, 35, 0
4, 73344, Note_on_c, 9, 35, 110
4, 73438, Note_on_c, 9, 35, 0
4, 73440, Note_on_c, 9, 35, 110
4, 73534, Note_on_c, 9, 35, 0
4, 73632, Note_on_c, 9, 35, 110
4, 73726, Note_on_c, 9, 35, 0
4, 73728, Note_on_c, 9, 35, 110
4, 73888, Note_on_c, 9, 35, 0
4, 74112, Note_on_c, 9, 35, 110
4, 74206, Note_on_c, 9, 35, 0
4, 74208, Note_on_c, 9, 35, 110
4, 74302, Note_on_c, 9, 35, 0
4, 74496, Note_on_c, 9, 35, 110
4, 74656, Note_on_c, 9, 35, 0
4, 74784, Note_on_c, 9, 35, 110
4, 74878, Note_on_c, 9, 35, 0
4, 74880, Note_on_c, 9, 35, 110
4, 75040, Note_on_c, 9, 35, 0
4, 75168, Note_on_c, 9, 35, 110
4, 75262, Note_on_c, 9, 35, 0
4, 76776, Note_on_c, 9, 35, 110
4, 76798, Note_on_c, 9, 35, 0
4, 78336, Time_signature, 3, 2, 24, 8
4, 78336, End_track
5, 0, Start_track
5, 0, MIDI_port, 0
5, 0, Title_t, "Staff-2"
5, 0, Control_c, 9, 7, 127
5, 0, Control_c, 9, 10, 64
5, 0, Time_signature, 4, 2, 24, 8
5, 1536, Note_on_c, 9, 55, 110
5, 1696, Note_on_c, 9, 55, 0
5, 4224, Note_on_c, 9, 55, 110
5, 4384, Note_on_c, 9, 55, 0
5, 4608, Note_on_c, 9, 55, 110
5, 4768, Note_on_c, 9, 55, 0
5, 19968, Note_on_c, 9, 55, 110
5, 20128, Note_on_c, 9, 55, 0
5, 22656, Note_on_c, 9, 55, 110
5, 22816, Note_on_c, 9, 55, 0
5, 23040, Note_on_c, 9, 55, 110
5, 23200, Note_on_c, 9, 55, 0
5, 38400, Note_on_c, 9, 55, 110
5, 38560, Note_on_c, 9, 55, 0
5, 41088, Note_on_c, 9, 55, 110
5, 41248, Note_on_c, 9, 55, 0
5, 41472, Note_on_c, 9, 55, 110
5, 41632, Note_on_c, 9, 55, 0
5, 62976, Note_on_c, 9, 55, 110
5, 63136, Note_on_c, 9, 55, 0
5, 65664, Note_on_c, 9, 55, 110
5, 65824, Note_on_c, 9, 55, 0
5, 66048, Note_on_c, 9, 55, 110
5, 66208, Note_on_c, 9, 55, 0
5, 69120, Note_on_c, 9, 55, 110
5, 69280, Note_on_c, 9, 55, 0
5, 71808, Note_on_c, 9, 55, 110
5, 71968, Note_on_c, 9, 55, 0
5, 72192, Note_on_c, 9, 55, 110
5, 72352, Note_on_c, 9, 55, 0
5, 75264, Note_on_c, 9, 55, 110
5, 75424, Note_on_c, 9, 55, 0
5, 78336, Time_signature, 3, 2, 24, 8
5, 78336, End_track
6, 0, Start_track
6, 0, MIDI_port, 0
6, 0, Title_t, "hat"
6, 0, Control_c, 9, 7, 127
6, 0, Control_c, 9, 10, 64
6, 0, Time_signature, 4, 2, 24, 8
6, 1632, Note_on_c, 9, 42, 110
6, 1726, Note_on_c, 9, 42, 0
6, 1824, Note_on_c, 9, 42, 110
6, 1918, Note_on_c, 9, 42, 0
6, 2400, Note_on_c, 9, 42, 110
6, 2494, Note_on_c, 9, 42, 0
6, 2592, Note_on_c, 9, 42, 110
6, 2686, Note_on_c, 9, 42, 0
6, 2784, Note_on_c, 9, 42, 110
6, 2878, Note_on_c, 9, 42, 0
6, 3168, Note_on_c, 9, 42, 110
6, 3262, Note_on_c, 9, 42, 0
6, 3360, Note_on_c, 9, 42, 110
6, 3454, Note_on_c, 9, 42, 0
6, 3552, Note_on_c, 9, 42, 110
6, 3646, Note_on_c, 9, 42, 0
6, 3936, Note_on_c, 9, 42, 110
6, 4030, Note_on_c, 9, 42, 0
6, 4128, Note_on_c, 9, 42, 110
6, 4222, Note_on_c, 9, 42, 0
6, 4704, Note_on_c, 9, 42, 110
6, 4798, Note_on_c, 9, 42, 0
6, 4896, Note_on_c, 9, 42, 110
6, 4990, Note_on_c, 9, 42, 0
6, 5088, Note_on_c, 9, 42, 110
6, 5182, Note_on_c, 9, 42, 0
6, 5472, Note_on_c, 9, 42, 110
6, 5566, Note_on_c, 9, 42, 0
6, 5664, Note_on_c, 9, 42, 110
6, 5758, Note_on_c, 9, 42, 0
6, 5856, Note_on_c, 9, 42, 110
6, 5950, Note_on_c, 9, 42, 0
6, 6240, Note_on_c, 9, 42, 110
6, 6334, Note_on_c, 9, 42, 0
6, 6432, Note_on_c, 9, 42, 110
6, 6526, Note_on_c, 9, 42, 0
6, 6624, Note_on_c, 9, 42, 110
6, 6718, Note_on_c, 9, 42, 0
6, 7008, Note_on_c, 9, 42, 110
6, 7102, Note_on_c, 9, 42, 0
6, 7200, Note_on_c, 9, 42, 110
6, 7294, Note_on_c, 9, 42, 0
6, 7776, Note_on_c, 9, 42, 110
6, 7870, Note_on_c, 9, 42, 0
6, 7968, Note_on_c, 9, 42, 110
6, 8062, Note_on_c, 9, 42, 0
6, 8160, Note_on_c, 9, 42, 110
6, 8254, Note_on_c, 9, 42, 0
6, 8352, Note_on_c, 9, 42, 110
6, 8446, Note_on_c, 9, 42, 0
6, 8544, Note_on_c, 9, 42, 110
6, 8638, Note_on_c, 9, 42, 0
6, 8736, Note_on_c, 9, 42, 110
6, 8830, Note_on_c, 9, 42, 0
6, 8928, Note_on_c, 9, 42, 110
6, 9022, Note_on_c, 9, 42, 0
6, 9312, Note_on_c, 9, 42, 110
6, 9406, Note_on_c, 9, 42, 0
6, 9504, Note_on_c, 9, 42, 110
6, 9598, Note_on_c, 9, 42, 0
6, 9696, Note_on_c, 9, 42, 110
6, 9790, Note_on_c, 9, 42, 0
6, 9888, Note_on_c, 9, 42, 110
6, 9982, Note_on_c, 9, 42, 0
6, 10080, Note_on_c, 9, 42, 110
6, 10174, Note_on_c, 9, 42, 0
6, 10272, Note_on_c, 9, 42, 110
6, 10366, Note_on_c, 9, 42, 0
6, 10464, Note_on_c, 9, 42, 110
6, 10558, Note_on_c, 9, 42, 0
6, 10848, Note_on_c, 9, 42, 110
6, 10942, Note_on_c, 9, 42, 0
6, 11040, Note_on_c, 9, 42, 110
6, 11134, Note_on_c, 9, 42, 0
6, 11232, Note_on_c, 9, 42, 110
6, 11326, Note_on_c, 9, 42, 0
6, 11424, Note_on_c, 9, 42, 110
6, 11518, Note_on_c, 9, 42, 0
6, 11616, Note_on_c, 9, 42, 110
6, 11710, Note_on_c, 9, 42, 0
6, 11808, Note_on_c, 9, 42, 110
6, 11902, Note_on_c, 9, 42, 0
6, 12000, Note_on_c, 9, 42, 110
6, 12094, Note_on_c, 9, 42, 0
6, 12384, Note_on_c, 9, 42, 110
6, 12478, Note_on_c, 9, 42, 0
6, 12576, Note_on_c, 9, 42, 110
6, 12670, Note_on_c, 9, 42, 0
6, 12768, Note_on_c, 9, 42, 110
6, 12862, Note_on_c, 9, 42, 0
6, 12960, Note_on_c, 9, 42, 110
6, 13054, Note_on_c, 9, 42, 0
6, 13152, Note_on_c, 9, 42, 110
6, 13246, Note_on_c, 9, 42, 0
6, 13344, Note_on_c, 9, 42, 110
6, 13438, Note_on_c, 9, 42, 0
6, 16992, Note_on_c, 9, 42, 110
6, 17086, Note_on_c, 9, 42, 0
6, 17184, Note_on_c, 9, 42, 110
6, 17278, Note_on_c, 9, 42, 0
6, 17376, Note_on_c, 9, 42, 110
6, 17470, Note_on_c, 9, 42, 0
6, 17568, Note_on_c, 9, 42, 110
6, 17662, Note_on_c, 9, 42, 0
6, 17760, Note_on_c, 9, 42, 110
6, 17854, Note_on_c, 9, 42, 0
6, 17952, Note_on_c, 9, 42, 110
6, 18046, Note_on_c, 9, 42, 0
6, 18144, Note_on_c, 9, 42, 110
6, 18238, Note_on_c, 9, 42, 0
6, 18528, Note_on_c, 9, 42, 110
6, 18622, Note_on_c, 9, 42, 0
6, 18720, Note_on_c, 9, 42, 110
6, 18814, Note_on_c, 9, 42, 0
6, 18912, Note_on_c, 9, 42, 110
6, 19006, Note_on_c, 9, 42, 0
6, 19104, Note_on_c, 9, 42, 110
6, 19198, Note_on_c, 9, 42, 0
6, 19296, Note_on_c, 9, 42, 110
6, 19390, Note_on_c, 9, 42, 0
6, 19488, Note_on_c, 9, 42, 110
6, 19582, Note_on_c, 9, 42, 0
6, 20064, Note_on_c, 9, 42, 110
6, 20158, Note_on_c, 9, 42, 0
6, 20256, Note_on_c, 9, 42, 110
6, 20350, Note_on_c, 9, 42, 0
6, 20832, Note_on_c, 9, 42, 110
6, 20926, Note_on_c, 9, 42, 0
6, 21024, Note_on_c, 9, 42, 110
6, 21118, Note_on_c, 9, 42, 0
6, 21216, Note_on_c, 9, 42, 110
6, 21310, Note_on_c, 9, 42, 0
6, 21600, Note_on_c, 9, 42, 110
6, 21694, Note_on_c, 9, 42, 0
6, 21792, Note_on_c, 9, 42, 110
6, 21886, Note_on_c, 9, 42, 0
6, 21984, Note_on_c, 9, 42, 110
6, 22078, Note_on_c, 9, 42, 0
6, 22368, Note_on_c, 9, 42, 110
6, 22462, Note_on_c, 9, 42, 0
6, 22560, Note_on_c, 9, 42, 110
6, 22654, Note_on_c, 9, 42, 0
6, 23136, Note_on_c, 9, 42, 110
6, 23230, Note_on_c, 9, 42, 0
6, 23328, Note_on_c, 9, 42, 110
6, 23422, Note_on_c, 9, 42, 0
6, 23520, Note_on_c, 9, 42, 110
6, 23614, Note_on_c, 9, 42, 0
6, 23904, Note_on_c, 9, 42, 110
6, 23998, Note_on_c, 9, 42, 0
6, 24096, Note_on_c, 9, 42, 110
6, 24190, Note_on_c, 9, 42, 0
6, 24288, Note_on_c, 9, 42, 110
6, 24382, Note_on_c, 9, 42, 0
6, 24672, Note_on_c, 9, 42, 110
6, 24766, Note_on_c, 9, 42, 0
6, 24864, Note_on_c, 9, 42, 110
6, 24958, Note_on_c, 9, 42, 0
6, 25056, Note_on_c, 9, 42, 110
6, 25150, Note_on_c, 9, 42, 0
6, 25440, Note_on_c, 9, 42, 110
6, 25534, Note_on_c, 9, 42, 0
6, 25632, Note_on_c, 9, 42, 110
6, 25726, Note_on_c, 9, 42, 0
6, 26208, Note_on_c, 9, 42, 110
6, 26302, Note_on_c, 9, 42, 0
6, 26400, Note_on_c, 9, 42, 110
6, 26494, Note_on_c, 9, 42, 0
6, 26592, Note_on_c, 9, 42, 110
6, 26686, Note_on_c, 9, 42, 0
6, 26784, Note_on_c, 9, 42, 110
6, 26878, Note_on_c, 9, 42, 0
6, 26976, Note_on_c, 9, 42, 110
6, 27070, Note_on_c, 9, 42, 0
6, 27168, Note_on_c, 9, 42, 110
6, 27262, Note_on_c, 9, 42, 0
6, 27360, Note_on_c, 9, 42, 110
6, 27454, Note_on_c, 9, 42, 0
6, 27744, Note_on_c, 9, 42, 110
6, 27838, Note_on_c, 9, 42, 0
6, 27936, Note_on_c, 9, 42, 110
6, 28030, Note_on_c, 9, 42, 0
6, 28128, Note_on_c, 9, 42, 110
6, 28222, Note_on_c, 9, 42, 0
6, 28320, Note_on_c, 9, 42, 110
6, 28414, Note_on_c, 9, 42, 0
6, 28512, Note_on_c, 9, 42, 110
6, 28606, Note_on_c, 9, 42, 0
6, 28704, Note_on_c, 9, 42, 110
6, 28798, Note_on_c, 9, 42, 0
6, 28896, Note_on_c, 9, 42, 110
6, 28990, Note_on_c, 9, 42, 0
6, 29280, Note_on_c, 9, 42, 110
6, 29374, Note_on_c, 9, 42, 0
6, 29472, Note_on_c, 9, 42, 110
6, 29566, Note_on_c, 9, 42, 0
6, 29664, Note_on_c, 9, 42, 110
6, 29758, Note_on_c, 9, 42, 0
6, 29856, Note_on_c, 9, 42, 110
6, 29950, Note_on_c, 9, 42, 0
6, 30048, Note_on_c, 9, 42, 110
6, 30142, Note_on_c, 9, 42, 0
6, 30240, Note_on_c, 9, 42, 110
6, 30334, Note_on_c, 9, 42, 0
6, 30432, Note_on_c, 9, 42, 110
6, 30526, Note_on_c, 9, 42, 0
6, 30816, Note_on_c, 9, 42, 110
6, 30910, Note_on_c, 9, 42, 0
6, 31008, Note_on_c, 9, 42, 110
6, 31102, Note_on_c, 9, 42, 0
6, 31200, Note_on_c, 9, 42, 110
6, 31294, Note_on_c, 9, 42, 0
6, 31392, Note_on_c, 9, 42, 110
6, 31486, Note_on_c, 9, 42, 0
6, 31584, Note_on_c, 9, 42, 110
6, 31678, Note_on_c, 9, 42, 0
6, 31776, Note_on_c, 9, 42, 110
6, 31870, Note_on_c, 9, 42, 0
6, 35424, Note_on_c, 9, 42, 110
6, 35518, Note_on_c, 9, 42, 0
6, 35616, Note_on_c, 9, 42, 110
6, 35710, Note_on_c, 9, 42, 0
6, 35808, Note_on_c, 9, 42, 110
6, 35902, Note_on_c, 9, 42, 0
6, 36000, Note_on_c, 9, 42, 110
6, 36094, Note_on_c, 9, 42, 0
6, 36192, Note_on_c, 9, 42, 110
6, 36286, Note_on_c, 9, 42, 0
6, 36384, Note_on_c, 9, 42, 110
6, 36478, Note_on_c, 9, 42, 0
6, 36576, Note_on_c, 9, 42, 110
6, 36670, Note_on_c, 9, 42, 0
6, 36960, Note_on_c, 9, 42, 110
6, 37054, Note_on_c, 9, 42, 0
6, 37152, Note_on_c, 9, 42, 110
6, 37246, Note_on_c, 9, 42, 0
6, 37344, Note_on_c, 9, 42, 110
6, 37438, Note_on_c, 9, 42, 0
6, 37536, Note_on_c, 9, 42, 110
6, 37630, Note_on_c, 9, 42, 0
6, 37728, Note_on_c, 9, 42, 110
6, 37822, Note_on_c, 9, 42, 0
6, 37920, Note_on_c, 9, 42, 110
6, 38014, Note_on_c, 9, 42, 0
6, 38496, Note_on_c, 9, 42, 110
6, 38590, Note_on_c, 9, 42, 0
6, 38688, Note_on_c, 9, 42, 110
6, 38782, Note_on_c, 9, 42, 0
6, 39264, Note_on_c, 9, 42, 110
6, 39358, Note_on_c, 9, 42, 0
6, 39456, Note_on_c, 9, 42, 110
6, 39550, Note_on_c, 9, 42, 0
6, 39648, Note_on_c, 9, 42, 110
6, 39742, Note_on_c, 9, 42, 0
6, 40032, Note_on_c, 9, 42, 110
6, 40126, Note_on_c, 9, 42, 0
6, 40224, Note_on_c, 9, 42, 110
6, 40318, Note_on_c, 9, 42, 0
6, 40416, Note_on_c, 9, 42, 110
6, 40510, Note_on_c, 9, 42, 0
6, 40800, Note_on_c, 9, 42, 110
6, 40894, Note_on_c, 9, 42, 0
6, 40992, Note_on_c, 9, 42, 110
6, 41086, Note_on_c, 9, 42, 0
6, 41568, Note_on_c, 9, 42, 110
6, 41662, Note_on_c, 9, 42, 0
6, 41760, Note_on_c, 9, 42, 110
6, 41854, Note_on_c, 9, 42, 0
6, 41952, Note_on_c, 9, 42, 110
6, 42046, Note_on_c, 9, 42, 0
6, 42336, Note_on_c, 9, 42, 110
6, 42430, Note_on_c, 9, 42, 0
6, 42528, Note_on_c, 9, 42, 110
6, 42622, Note_on_c, 9, 42, 0
6, 42720, Note_on_c, 9, 42, 110
6, 42814, Note_on_c, 9, 42, 0
6, 43104, Note_on_c, 9, 42, 110
6, 43198, Note_on_c, 9, 42, 0
6, 43296, Note_on_c, 9, 42, 110
6, 43390, Note_on_c, 9, 42, 0
6, 43488, Note_on_c, 9, 42, 110
6, 43582, Note_on_c, 9, 42, 0
6, 43872, Note_on_c, 9, 42, 110
6, 43966, Note_on_c, 9, 42, 0
6, 44064, Note_on_c, 9, 42, 110
6, 44158, Note_on_c, 9, 42, 0
6, 47712, Note_on_c, 9, 42, 110
6, 47806, Note_on_c, 9, 42, 0
6, 47904, Note_on_c, 9, 42, 110
6, 47998, Note_on_c, 9, 42, 0
6, 48096, Note_on_c, 9, 42, 110
6, 48190, Note_on_c, 9, 42, 0
6, 48288, Note_on_c, 9, 42, 110
6, 48382, Note_on_c, 9, 42, 0
6, 48480, Note_on_c, 9, 42, 110
6, 48574, Note_on_c, 9, 42, 0
6, 48672, Note_on_c, 9, 42, 110
6, 48766, Note_on_c, 9, 42, 0
6, 48864, Note_on_c, 9, 42, 110
6, 48958, Note_on_c, 9, 42, 0
6, 49248, Note_on_c, 9, 42, 110
6, 49342, Note_on_c, 9, 42, 0
6, 49440, Note_on_c, 9, 42, 110
6, 49534, Note_on_c, 9, 42, 0
6, 49632, Note_on_c, 9, 42, 110
6, 49726, Note_on_c, 9, 42, 0
6, 49824, Note_on_c, 9, 42, 110
6, 49918, Note_on_c, 9, 42, 0
6, 50016, Note_on_c, 9, 42, 110
6, 50110, Note_on_c, 9, 42, 0
6, 50208, Note_on_c, 9, 42, 110
6, 50302, Note_on_c, 9, 42, 0
6, 50784, Note_on_c, 9, 42, 110
6, 50878, Note_on_c, 9, 42, 0
6, 50976, Note_on_c, 9, 42, 110
6, 51070, Note_on_c, 9, 42, 0
6, 51168, Note_on_c, 9, 42, 110
6, 51262, Note_on_c, 9, 42, 0
6, 51360, Note_on_c, 9, 42, 110
6, 51454, Note_on_c, 9, 42, 0
6, 51552, Note_on_c, 9, 42, 110
6, 51646, Note_on_c, 9, 42, 0
6, 51744, Note_on_c, 9, 42, 110
6, 51838, Note_on_c, 9, 42, 0
6, 51936, Note_on_c, 9, 42, 110
6, 52030, Note_on_c, 9, 42, 0
6, 52320, Note_on_c, 9, 42, 110
6, 52414, Note_on_c, 9, 42, 0
6, 52512, Note_on_c, 9, 42, 110
6, 52606, Note_on_c, 9, 42, 0
6, 52704, Note_on_c, 9, 42, 110
6, 52798, Note_on_c, 9, 42, 0
6, 52896, Note_on_c, 9, 42, 110
6, 52990, Note_on_c, 9, 42, 0
6, 53088, Note_on_c, 9, 42, 110
6, 53182, Note_on_c, 9, 42, 0
6, 53280, Note_on_c, 9, 42, 110
6, 53374, Note_on_c, 9, 42, 0
6, 53472, Note_on_c, 9, 42, 110
6, 53566, Note_on_c, 9, 42, 0
6, 53856, Note_on_c, 9, 42, 110
6, 53950, Note_on_c, 9, 42, 0
6, 54048, Note_on_c, 9, 42, 110
6, 54142, Note_on_c, 9, 42, 0
6, 54240, Note_on_c, 9, 42, 110
6, 54334, Note_on_c, 9, 42, 0
6, 54432, Note_on_c, 9, 42, 110
6, 54526, Note_on_c, 9, 42, 0
6, 54624, Note_on_c, 9, 42, 110
6, 54718, Note_on_c, 9, 42, 0
6, 54816, Note_on_c, 9, 42, 110
6, 54910, Note_on_c, 9, 42, 0
6, 55008, Note_on_c, 9, 42, 110
6, 55102, Note_on_c, 9, 42, 0
6, 55392, Note_on_c, 9, 42, 110
6, 55486, Note_on_c, 9, 42, 0
6, 55584, Note_on_c, 9, 42, 110
6, 55678, Note_on_c, 9, 42, 0
6, 55776, Note_on_c, 9, 42, 110
6, 55870, Note_on_c, 9, 42, 0
6, 55968, Note_on_c, 9, 42, 110
6, 56062, Note_on_c, 9, 42, 0
6, 56160, Note_on_c, 9, 42, 110
6, 56254, Note_on_c, 9, 42, 0
6, 56352, Note_on_c, 9, 42, 110
6, 56446, Note_on_c, 9, 42, 0
6, 60000, Note_on_c, 9, 42, 110
6, 60094, Note_on_c, 9, 42, 0
6, 60192, Note_on_c, 9, 42, 110
6, 60286, Note_on_c, 9, 42, 0
6, 60384, Note_on_c, 9, 42, 110
6, 60478, Note_on_c, 9, 42, 0
6, 60576, Note_on_c, 9, 42, 110
6, 60670, Note_on_c, 9, 42, 0
6, 60768, Note_on_c, 9, 42, 110
6, 60862, Note_on_c, 9, 42, 0
6, 60960, Note_on_c, 9, 42, 110
6, 61054, Note_on_c, 9, 42, 0
6, 61152, Note_on_c, 9, 42, 110
6, 61246, Note_on_c, 9, 42, 0
6, 61536, Note_on_c, 9, 42, 110
6, 61630, Note_on_c, 9, 42, 0
6, 61728, Note_on_c, 9, 42, 110
6, 61822, Note_on_c, 9, 42, 0
6, 61920, Note_on_c, 9, 42, 110
6, 62014, Note_on_c, 9, 42, 0
6, 62112, Note_on_c, 9, 42, 110
6, 62206, Note_on_c, 9, 42, 0
6, 62304, Note_on_c, 9, 42, 110
6, 62398, Note_on_c, 9, 42, 0
6, 62496, Note_on_c, 9, 42, 110
6, 62590, Note_on_c, 9, 42, 0
6, 78336, Time_signature, 3, 2, 24, 8
6, 78336, End_track
7, 0, Start_track
7, 0, MIDI_port, 0
7, 0, Title_t, "hat-2"
7, 0, Control_c, 9, 7, 127
7, 0, Control_c, 9, 10, 64
7, 0, Time_signature, 4, 2, 24, 8
7, 1728, Note_on_c, 9, 44, 110
7, 1888, Note_on_c, 9, 44, 0
7, 1920, Note_on_c, 9, 44, 110
7, 2080, Note_on_c, 9, 44, 0
7, 2112, Note_on_c, 9, 44, 110
7, 2272, Note_on_c, 9, 44, 0
7, 2304, Note_on_c, 9, 44, 110
7, 2464, Note_on_c, 9, 44, 0
7, 2496, Note_on_c, 9, 44, 110
7, 2656, Note_on_c, 9, 44, 0
7, 2688, Note_on_c, 9, 44, 110
7, 2848, Note_on_c, 9, 44, 0
7, 2880, Note_on_c, 9, 44, 110
7, 3040, Note_on_c, 9, 44, 0
7, 3072, Note_on_c, 9, 44, 110
7, 3232, Note_on_c, 9, 44, 0
7, 3264, Note_on_c, 9, 44, 110
7, 3424, Note_on_c, 9, 44, 0
7, 3456, Note_on_c, 9, 44, 110
7, 3616, Note_on_c, 9, 44, 0
7, 3648, Note_on_c, 9, 44, 110
7, 3808, Note_on_c, 9, 44, 0
7, 3840, Note_on_c, 9, 44, 110
7, 4000, Note_on_c, 9, 44, 0
7, 4032, Note_on_c, 9, 44, 110
7, 4192, Note_on_c, 9, 44, 0
7, 4800, Note_on_c, 9, 44, 110
7, 4960, Note_on_c, 9, 44, 0
7, 4992, Note_on_c, 9, 44, 110
7, 5152, Note_on_c, 9, 44, 0
7, 5184, Note_on_c, 9, 44, 110
7, 5344, Note_on_c, 9, 44, 0
7, 5376, Note_on_c, 9, 44, 110
7, 5536, Note_on_c, 9, 44, 0
7, 5568, Note_on_c, 9, 44, 110
7, 5728, Note_on_c, 9, 44, 0
7, 5760, Note_on_c, 9, 44, 110
7, 5920, Note_on_c, 9, 44, 0
7, 5952, Note_on_c, 9, 44, 110
7, 6112, Note_on_c, 9, 44, 0
7, 6144, Note_on_c, 9, 44, 110
7, 6304, Note_on_c, 9, 44, 0
7, 6336, Note_on_c, 9, 44, 110
7, 6496, Note_on_c, 9, 44, 0
7, 6528, Note_on_c, 9, 44, 110
7, 6688, Note_on_c, 9, 44, 0
7, 6720, Note_on_c, 9, 44, 110
7, 6880, Note_on_c, 9, 44, 0
7, 6912, Note_on_c, 9, 44, 110
7, 7072, Note_on_c, 9, 44, 0
7, 7104, Note_on_c, 9, 44, 110
7, 7264, Note_on_c, 9, 44, 0
7, 7680, Note_on_c, 9, 44, 110
7, 7840, Note_on_c, 9, 44, 0
7, 7872, Note_on_c, 9, 44, 110
7, 8032, Note_on_c, 9, 44, 0
7, 8064, Note_on_c, 9, 44, 110
7, 8224, Note_on_c, 9, 44, 0
7, 8256, Note_on_c, 9, 44, 110
7, 8416, Note_on_c, 9, 44, 0
7, 8448, Note_on_c, 9, 44, 110
7, 8608, Note_on_c, 9, 44, 0
7, 8640, Note_on_c, 9, 44, 110
7, 8800, Note_on_c, 9, 44, 0
7, 8832, Note_on_c, 9, 44, 110
7, 8992, Note_on_c, 9, 44, 0
7, 9024, Note_on_c, 9, 44, 110
7, 9184, Note_on_c, 9, 44, 0
7, 9216, Note_on_c, 9, 44, 110
7, 9376, Note_on_c, 9, 44, 0
7, 9408, Note_on_c, 9, 44, 110
7, 9568, Note_on_c, 9, 44, 0
7, 9600, Note_on_c, 9, 44, 110
7, 9760, Note_on_c, 9, 44, 0
7, 9792, Note_on_c, 9, 44, 110
7, 9952, Note_on_c, 9, 44, 0
7, 9984, Note_on_c, 9, 44, 110
7, 10144, Note_on_c, 9, 44, 0
7, 10176, Note_on_c, 9, 44, 110
7, 10336, Note_on_c, 9, 44, 0
7, 10368, Note_on_c, 9, 44, 110
7, 10528, Note_on_c, 9, 44, 0
7, 10560, Note_on_c, 9, 44, 110
7, 10720, Note_on_c, 9, 44, 0
7, 10752, Note_on_c, 9, 44, 110
7, 10912, Note_on_c, 9, 44, 0
7, 10944, Note_on_c, 9, 44, 110
7, 11104, Note_on_c, 9, 44, 0
7, 11136, Note_on_c, 9, 44, 110
7, 11296, Note_on_c, 9, 44, 0
7, 11328, Note_on_c, 9, 44, 110
7, 11488, Note_on_c, 9, 44, 0
7, 11520, Note_on_c, 9, 44, 110
7, 11680, Note_on_c, 9, 44, 0
7, 11712, Note_on_c, 9, 44, 110
7, 11872, Note_on_c, 9, 44, 0
7, 11904, Note_on_c, 9, 44, 110
7, 12064, Note_on_c, 9, 44, 0
7, 12096, Note_on_c, 9, 44, 110
7, 12256, Note_on_c, 9, 44, 0
7, 12288, Note_on_c, 9, 44, 110
7, 12448, Note_on_c, 9, 44, 0
7, 12480, Note_on_c, 9, 44, 110
7, 12640, Note_on_c, 9, 44, 0
7, 12672, Note_on_c, 9, 44, 110
7, 12832, Note_on_c, 9, 44, 0
7, 12864, Note_on_c, 9, 44, 110
7, 13024, Note_on_c, 9, 44, 0
7, 13056, Note_on_c, 9, 44, 110
7, 13216, Note_on_c, 9, 44, 0
7, 13248, Note_on_c, 9, 44, 110
7, 13408, Note_on_c, 9, 44, 0
7, 13440, Note_on_c, 9, 44, 110
7, 13600, Note_on_c, 9, 44, 0
7, 16896, Note_on_c, 9, 44, 110
7, 17056, Note_on_c, 9, 44, 0
7, 17088, Note_on_c, 9, 44, 110
7, 17248, Note_on_c, 9, 44, 0
7, 17280, Note_on_c, 9, 44, 110
7, 17440, Note_on_c, 9, 44, 0
7, 17472, Note_on_c, 9, 44, 110
7, 17632, Note_on_c, 9, 44, 0
7, 17664, Note_on_c, 9, 44, 110
7, 17824, Note_on_c, 9, 44, 0
7, 17856, Note_on_c, 9, 44, 110
7, 18016, Note_on_c, 9, 44, 0
7, 18048, Note_on_c, 9, 44, 110
7, 18208, Note_on_c, 9, 44, 0
7, 18240, Note_on_c, 9, 44, 110
7, 18400, Note_on_c, 9, 44, 0
7, 18432, Note_on_c, 9, 44, 110
7, 18592, Note_on_c, 9, 44, 0
7, 18624, Note_on_c, 9, 44, 110
7, 18784, Note_on_c, 9, 44, 0
7, 18816, Note_on_c, 9, 44, 110
7, 18976, Note_on_c, 9, 44, 0
7, 19008, Note_on_c, 9, 44, 110
7, 19168, Note_on_c, 9, 44, 0
7, 19200, Note_on_c, 9, 44, 110
7, 19360, Note_on_c, 9, 44, 0
7, 19392, Note_on_c, 9, 44, 110
7, 19552, Note_on_c, 9, 44, 0
7, 19584, Note_on_c, 9, 44, 110
7, 19744, Note_on_c, 9, 44, 0
7, 20160, Note_on_c, 9, 44, 110
7, 20320, Note_on_c, 9, 44, 0
7, 20352, Note_on_c, 9, 44, 110
7, 20512, Note_on_c, 9, 44, 0
7, 20544, Note_on_c, 9, 44, 110
7, 20704, Note_on_c, 9, 44, 0
7, 20736, Note_on_c, 9, 44, 110
7, 20896, Note_on_c, 9, 44, 0
7, 20928, Note_on_c, 9, 44, 110
7, 21088, Note_on_c, 9, 44, 0
7, 21120, Note_on_c, 9, 44, 110
7, 21280, Note_on_c, 9, 44, 0
7, 21312, Note_on_c, 9, 44, 110
7, 21472, Note_on_c, 9, 44, 0
7, 21504, Note_on_c, 9, 44, 110
7, 21664, Note_on_c, 9, 44, 0
7, 21696, Note_on_c, 9, 44, 110
7, 21856, Note_on_c, 9, 44, 0
7, 21888, Note_on_c, 9, 44, 110
7, 22048, Note_on_c, 9, 44, 0
7, 22080, Note_on_c, 9, 44, 110
7, 22240, Note_on_c, 9, 44, 0
7, 22272, Note_on_c, 9, 44, 110
7, 22432, Note_on_c, 9, 44, 0
7, 22464, Note_on_c, 9, 44, 110
7, 22624, Note_on_c, 9, 44, 0
7, 23232, Note_on_c, 9, 44, 110
7, 23392, Note_on_c, 9, 44, 0
7, 23424, Note_on_c, 9, 44, 110
7, 23584, Note_on_c, 9, 44, 0
7, 23616, Note_on_c, 9, 44, 110
7, 23776, Note_on_c, 9, 44, 0
7, 23808, Note_on_c, 9, 44, 110
7, 23968, Note_on_c, 9, 44, 0
7, 24000, Note_on_c, 9, 44, 110
7, 24160, Note_on_c, 9, 44, 0
7, 24192, Note_on_c, 9, 44, 110
7, 24352, Note_on_c, 9, 44, 0
7, 24384, Note_on_c, 9, 44, 110
7, 24544, Note_on_c, 9, 44, 0
7, 24576, Note_on_c, 9, 44, 110
7, 24736, Note_on_c, 9, 44, 0
7, 24768, Note_on_c, 9, 44, 110
7, 24928, Note_on_c, 9, 44, 0
7, 24960, Note_on_c, 9, 44, 110
7, 25120, Note_on_c, 9, 44, 0
7, 25152, Note_on_c, 9, 44, 110
7, 25312, Note_on_c, 9, 44, 0
7, 25344, Note_on_c, 9, 44, 110
7, 25504, Note_on_c, 9, 44, 0
7, 25536, Note_on_c, 9, 44, 110
7, 25696, Note_on_c, 9, 44, 0
7, 26112, Note_on_c, 9, 44, 110
7, 26272, Note_on_c, 9, 44, 0
7, 26304, Note_on_c, 9, 44, 110
7, 26464, Note_on_c, 9, 44, 0
7, 26496, Note_on_c, 9, 44, 110
7, 26656, Note_on_c, 9, 44, 0
7, 26688, Note_on_c, 9, 44, 110
7, 26848, Note_on_c, 9, 44, 0
7, 26880, Note_on_c, 9, 44, 110
7, 27040, Note_on_c, 9, 44, 0
7, 27072, Note_on_c, 9, 44, 110
7, 27232, Note_on_c, 9, 44, 0
7, 27264, Note_on_c, 9, 44, 110
7, 27424, Note_on_c, 9, 44, 0
7, 27456, Note_on_c, 9, 44, 110
7, 27616, Note_on_c, 9, 44, 0
7, 27648, Note_on_c, 9, 44, 110
7, 27808, Note_on_c, 9, 44, 0
7, 27840, Note_on_c, 9, 44, 110
7, 28000, Note_on_c, 9, 44, 0
7, 28032, Note_on_c, 9, 44, 110
7, 28192, Note_on_c, 9, 44, 0
7, 28224, Note_on_c, 9, 44, 110
7, 28384, Note_on_c, 9, 44, 0
7, 28416, Note_on_c, 9, 44, 110
7, 28576, Note_on_c, 9, 44, 0
7, 28608, Note_on_c, 9, 44, 110
7, 28768, Note_on_c, 9, 44, 0
7, 28800, Note_on_c, 9, 44, 110
7, 28960, Note_on_c, 9, 44, 0
7, 28992, Note_on_c, 9, 44, 110
7, 29152, Note_on_c, 9, 44, 0
7, 29184, Note_on_c, 9, 44, 110
7, 29344, Note_on_c, 9, 44, 0
7, 29376, Note_on_c, 9, 44, 110
7, 29536, Note_on_c, 9, 44, 0
7, 29568, Note_on_c, 9, 44, 110
7, 29728, Note_on_c, 9, 44, 0
7, 29760, Note_on_c, 9, 44, 110
7, 29920, Note_on_c, 9, 44, 0
7, 29952, Note_on_c, 9, 44, 110
7, 30112, Note_on_c, 9, 44, 0
7, 30144, Note_on_c, 9, 44, 110
7, 30304, Note_on_c, 9, 44, 0
7, 30336, Note_on_c, 9, 44, 110
7, 30496, Note_on_c, 9, 44, 0
7, 30528, Note_on_c, 9, 44, 110
7, 30688, Note_on_c, 9, 44, 0
7, 30720, Note_on_c, 9, 44, 110
7, 30880, Note_on_c, 9, 44, 0
7, 30912, Note_on_c, 9, 44, 110
7, 31072, Note_on_c, 9, 44, 0
7, 31104, Note_on_c, 9, 44, 110
7, 31264, Note_on_c, 9, 44, 0
7, 31296, Note_on_c, 9, 44, 110
7, 31456, Note_on_c, 9, 44, 0
7, 31488, Note_on_c, 9, 44, 110
7, 31648, Note_on_c, 9, 44, 0
7, 31680, Note_on_c, 9, 44, 110
7, 31840, Note_on_c, 9, 44, 0
7, 31872, Note_on_c, 9, 44, 110
7, 32032, Note_on_c, 9, 44, 0
7, 35328, Note_on_c, 9, 44, 110
7, 35488, Note_on_c, 9, 44, 0
7, 35520, Note_on_c, 9, 44, 110
7, 35680, Note_on_c, 9, 44, 0
7, 35712, Note_on_c, 9, 44, 110
7, 35872, Note_on_c, 9, 44, 0
7, 35904, Note_on_c, 9, 44, 110
7, 36064, Note_on_c, 9, 44, 0
7, 36096, Note_on_c, 9, 44, 110
7, 36256, Note_on_c, 9, 44, 0
7, 36288, Note_on_c, 9, 44, 110
7, 36448, Note_on_c, 9, 44, 0
7, 36480, Note_on_c, 9, 44, 110
7, 36640, Note_on_c, 9, 44, 0
7, 36672, Note_on_c, 9, 44, 110
7, 36832, Note_on_c, 9, 44, 0
7, 36864, Note_on_c, 9, 44, 110
7, 37024, Note_on_c, 9, 44, 0
7, 37056, Note_on_c, 9, 44, 110
7, 37216, Note_on_c, 9, 44, 0
7, 37248, Note_on_c, 9, 44, 110
7, 37408, Note_on_c, 9, 44, 0
7, 37440, Note_on_c, 9, 44, 110
7, 37600, Note_on_c, 9, 44, 0
7, 37632, Note_on_c, 9, 44, 110
7, 37792, Note_on_c, 9, 44, 0
7, 37824, Note_on_c, 9, 44, 110
7, 37984, Note_on_c, 9, 44, 0
7, 38016, Note_on_c, 9, 44, 110
7, 38176, Note_on_c, 9, 44, 0
7, 38592, Note_on_c, 9, 44, 110
7, 38752, Note_on_c, 9, 44, 0
7, 38784, Note_on_c, 9, 44, 110
7, 38944, Note_on_c, 9, 44, 0
7, 38976, Note_on_c, 9, 44, 110
7, 39136, Note_on_c, 9, 44, 0
7, 39168, Note_on_c, 9, 44, 110
7, 39328, Note_on_c, 9, 44, 0
7, 39360, Note_on_c, 9, 44, 110
7, 39520, Note_on_c, 9, 44, 0
7, 39552, Note_on_c, 9, 44, 110
7, 39712, Note_on_c, 9, 44, 0
7, 39744, Note_on_c, 9, 44, 110
7, 39904, Note_on_c, 9, 44, 0
7, 39936, Note_on_c, 9, 44, 110
7, 40096, Note_on_c, 9, 44, 0
7, 40128, Note_on_c, 9, 44, 110
7, 40288, Note_on_c, 9, 44, 0
7, 40320, Note_on_c, 9, 44, 110
7, 40480, Note_on_c, 9, 44, 0
7, 40512, Note_on_c, 9, 44, 110
7, 40672, Note_on_c, 9, 44, 0
7, 40704, Note_on_c, 9, 44, 110
7, 40864, Note_on_c, 9, 44, 0
7, 40896, Note_on_c, 9, 44, 110
7, 41056, Note_on_c, 9, 44, 0
7, 41664, Note_on_c, 9, 44, 110
7, 41824, Note_on_c, 9, 44, 0
7, 41856, Note_on_c, 9, 44, 110
7, 42016, Note_on_c, 9, 44, 0
7, 42048, Note_on_c, 9, 44, 110
7, 42208, Note_on_c, 9, 44, 0
7, 42240, Note_on_c, 9, 44, 110
7, 42400, Note_on_c, 9, 44, 0
7, 42432, Note_on_c, 9, 44, 110
7, 42592, Note_on_c, 9, 44, 0
7, 42624, Note_on_c, 9, 44, 110
7, 42784, Note_on_c, 9, 44, 0
7, 42816, Note_on_c, 9, 44, 110
7, 42976, Note_on_c, 9, 44, 0
7, 43008, Note_on_c, 9, 44, 110
7, 43168, Note_on_c, 9, 44, 0
7, 43200, Note_on_c, 9, 44, 110
7, 43360, Note_on_c, 9, 44, 0
7, 43392, Note_on_c, 9, 44, 110
7, 43552, Note_on_c, 9, 44, 0
7, 43584, Note_on_c, 9, 44, 110
7, 43744, Note_on_c, 9, 44, 0
7, 43776, Note_on_c, 9, 44, 110
7, 43936, Note_on_c, 9, 44, 0
7, 43968, Note_on_c, 9, 44, 110
7, 44128, Note_on_c, 9, 44, 0
7, 47616, Note_on_c, 9, 44, 110
7, 47776, Note_on_c, 9, 44, 0
7, 47808, Note_on_c, 9, 44, 110
7, 47968, Note_on_c, 9, 44, 0
7, 48000, Note_on_c, 9, 44, 110
7, 48160, Note_on_c, 9, 44, 0
7, 48192, Note_on_c, 9, 44, 110
7, 48352, Note_on_c, 9, 44, 0
7, 48384, Note_on_c, 9, 44, 110
7, 48544, Note_on_c, 9, 44, 0
7, 48576, Note_on_c, 9, 44, 110
7, 48736, Note_on_c, 9, 44, 0
7, 48768, Note_on_c, 9, 44, 110
7, 48928, Note_on_c, 9, 44, 0
7, 48960, Note_on_c, 9, 44, 110
7, 49120, Note_on_c, 9, 44, 0
7, 49152, Note_on_c, 9, 44, 110
7, 49312, Note_on_c, 9, 44, 0
7, 49344, Note_on_c, 9, 44, 110
7, 49504, Note_on_c, 9, 44, 0
7, 49536, Note_on_c, 9, 44, 110
7, 49696, Note_on_c, 9, 44, 0
7, 49728, Note_on_c, 9, 44, 110
7, 49888, Note_on_c, 9, 44, 0
7, 49920, Note_on_c, 9, 44, 110
7, 50080, Note_on_c, 9, 44, 0
7, 50112, Note_on_c, 9, 44, 110
7, 50272, Note_on_c, 9, 44, 0
7, 50304, Note_on_c, 9, 44, 110
7, 50464, Note_on_c, 9, 44, 0
7, 50688, Note_on_c, 9, 44, 110
7, 50848, Note_on_c, 9, 44, 0
7, 50880, Note_on_c, 9, 44, 110
7, 51040, Note_on_c, 9, 44, 0
7, 51072, Note_on_c, 9, 44, 110
7, 51232, Note_on_c, 9, 44, 0
7, 51264, Note_on_c, 9, 44, 110
7, 51424, Note_on_c, 9, 44, 0
7, 51456, Note_on_c, 9, 44, 110
7, 51616, Note_on_c, 9, 44, 0
7, 51648, Note_on_c, 9, 44, 110
7, 51808, Note_on_c, 9, 44, 0
7, 51840, Note_on_c, 9, 44, 110
7, 52000, Note_on_c, 9, 44, 0
7, 52032, Note_on_c, 9, 44, 110
7, 52192, Note_on_c, 9, 44, 0
7, 52224, Note_on_c, 9, 44, 110
7, 52384, Note_on_c, 9, 44, 0
7, 52416, Note_on_c, 9, 44, 110
7, 52576, Note_on_c, 9, 44, 0
7, 52608, Note_on_c, 9, 44, 110
7, 52768, Note_on_c, 9, 44, 0
7, 52800, Note_on_c, 9, 44, 110
7, 52960, Note_on_c, 9, 44, 0
7, 52992, Note_on_c, 9, 44, 110
7, 53152, Note_on_c, 9, 44, 0
7, 53184, Note_on_c, 9, 44, 110
7, 53344, Note_on_c, 9, 44, 0
7, 53376, Note_on_c, 9, 44, 110
7, 53536, Note_on_c, 9, 44, 0
7, 53568, Note_on_c, 9, 44, 110
7, 53728, Note_on_c, 9, 44, 0
7, 53760, Note_on_c, 9, 44, 110
7, 53920, Note_on_c, 9, 44, 0
7, 53952, Note_on_c, 9, 44, 110
7, 54112, Note_on_c, 9, 44, 0
7, 54144, Note_on_c, 9, 44, 110
7, 54304, Note_on_c, 9, 44, 0
7, 54336, Note_on_c, 9, 44, 110
7, 54496, Note_on_c, 9, 44, 0
7, 54528, Note_on_c, 9, 44, 110
7, 54688, Note_on_c, 9, 44, 0
7, 54720, Note_on_c, 9, 44, 110
7, 54880, Note_on_c, 9, 44, 0
7, 54912, Note_on_c, 9, 44, 110
7, 55072, Note_on_c, 9, 44, 0
7, 55104, Note_on_c, 9, 44, 110
7, 55264, Note_on_c, 9, 44, 0
7, 55296, Note_on_c, 9, 44, 110
7, 55456, Note_on_c, 9, 44, 0
7, 55488, Note_on_c, 9, 44, 110
7, 55648, Note_on_c, 9, 44, 0
7, 55680, Note_on_c, 9, 44, 110
7, 55840, Note_on_c, 9, 44, 0
7, 55872, Note_on_c, 9, 44, 110
7, 56032, Note_on_c, 9, 44, 0
7, 56064, Note_on_c, 9, 44, 110
7, 56224, Note_on_c, 9, 44, 0
7, 56256, Note_on_c, 9, 44, 110
7, 56416, Note_on_c, 9, 44, 0
7, 56448, Note_on_c, 9, 44, 110
7, 56608, Note_on_c, 9, 44, 0
7, 59904, Note_on_c, 9, 44, 110
7, 60064, Note_on_c, 9, 44, 0
7, 60096, Note_on_c, 9, 44, 110
7, 60256, Note_on_c, 9, 44, 0
7, 60288, Note_on_c, 9, 44, 110
7, 60448, Note_on_c, 9, 44, 0
7, 60480, Note_on_c, 9, 44, 110
7, 60640, Note_on_c, 9, 44, 0
7, 60672, Note_on_c, 9, 44, 110
7, 60832, Note_on_c, 9, 44, 0
7, 60864, Note_on_c, 9, 44, 110
7, 61024, Note_on_c, 9, 44, 0
7, 61056, Note_on_c, 9, 44, 110
7, 61216, Note_on_c, 9, 44, 0
7, 61248, Note_on_c, 9, 44, 110
7, 61408, Note_on_c, 9, 44, 0
7, 61440, Note_on_c, 9, 44, 110
7, 61600, Note_on_c, 9, 44, 0
7, 61632, Note_on_c, 9, 44, 110
7, 61792, Note_on_c, 9, 44, 0
7, 61824, Note_on_c, 9, 44, 110
7, 61984, Note_on_c, 9, 44, 0
7, 62016, Note_on_c, 9, 44, 110
7, 62176, Note_on_c, 9, 44, 0
7, 62208, Note_on_c, 9, 44, 110
7, 62368, Note_on_c, 9, 44, 0
7, 62400, Note_on_c, 9, 44, 110
7, 62560, Note_on_c, 9, 44, 0
7, 62592, Note_on_c, 9, 44, 110
7, 62752, Note_on_c, 9, 44, 0
7, 78336, Time_signature, 3, 2, 24, 8
7, 78336, End_track
8, 0, Start_track
8, 0, MIDI_port, 0
8, 0, Title_t, "o hat"
8, 0, Control_c, 9, 7, 127
8, 0, Control_c, 9, 10, 64
8, 0, Time_signature, 4, 2, 24, 8
8, 2016, Note_on_c, 9, 46, 110
8, 2110, Note_on_c, 9, 46, 0
8, 2976, Note_on_c, 9, 46, 110
8, 3070, Note_on_c, 9, 46, 0
8, 3744, Note_on_c, 9, 46, 110
8, 3838, Note_on_c, 9, 46, 0
8, 6048, Note_on_c, 9, 46, 110
8, 6142, Note_on_c, 9, 46, 0
8, 6816, Note_on_c, 9, 46, 110
8, 6910, Note_on_c, 9, 46, 0
8, 9120, Note_on_c, 9, 46, 110
8, 9214, Note_on_c, 9, 46, 0
8, 10656, Note_on_c, 9, 46, 110
8, 10750, Note_on_c, 9, 46, 0
8, 12192, Note_on_c, 9, 46, 110
8, 12286, Note_on_c, 9, 46, 0
8, 18336, Note_on_c, 9, 46, 110
8, 18430, Note_on_c, 9, 46, 0
8, 20448, Note_on_c, 9, 46, 110
8, 20542, Note_on_c, 9, 46, 0
8, 21408, Note_on_c, 9, 46, 110
8, 21502, Note_on_c, 9, 46, 0
8, 22176, Note_on_c, 9, 46, 110
8, 22270, Note_on_c, 9, 46, 0
8, 24480, Note_on_c, 9, 46, 110
8, 24574, Note_on_c, 9, 46, 0
8, 25248, Note_on_c, 9, 46, 110
8, 25342, Note_on_c, 9, 46, 0
8, 27552, Note_on_c, 9, 46, 110
8, 27646, Note_on_c, 9, 46, 0
8, 29088, Note_on_c, 9, 46, 110
8, 29182, Note_on_c, 9, 46, 0
8, 30624, Note_on_c, 9, 46, 110
8, 30718, Note_on_c, 9, 46, 0
8, 36768, Note_on_c, 9, 46, 110
8, 36862, Note_on_c, 9, 46, 0
8, 38880, Note_on_c, 9, 46, 110
8, 38974, Note_on_c, 9, 46, 0
8, 39840, Note_on_c, 9, 46, 110
8, 39934, Note_on_c, 9, 46, 0
8, 40608, Note_on_c, 9, 46, 110
8, 40702, Note_on_c, 9, 46, 0
8, 42912, Note_on_c, 9, 46, 110
8, 43006, Note_on_c, 9, 46, 0
8, 43680, Note_on_c, 9, 46, 110
8, 43774, Note_on_c, 9, 46, 0
8, 49056, Note_on_c, 9, 46, 110
8, 49150, Note_on_c, 9, 46, 0
8, 52128, Note_on_c, 9, 46, 110
8, 52222, Note_on_c, 9, 46, 0
8, 53664, Note_on_c, 9, 46, 110
8, 53758, Note_on_c, 9, 46, 0
8, 55200, Note_on_c, 9, 46, 110
8, 55294, Note_on_c, 9, 46, 0
8, 61344, Note_on_c, 9, 46, 110
8, 61438, Note_on_c, 9, 46, 0
8, 78336, Time_signature, 3, 2, 24, 8
8, 78336, End_track
9, 0, Start_track
9, 0, MIDI_port, 0
9, 0, Title_t, "Staff-3"
9, 0, Control_c, 9, 7, 127
9, 0, Control_c, 9, 10, 64
9, 0, Time_signature, 4, 2, 24, 8
9, 2208, Note_on_c, 9, 49, 110
9, 2302, Note_on_c, 9, 49, 0
9, 5280, Note_on_c, 9, 49, 110
9, 5374, Note_on_c, 9, 49, 0
9, 13824, Note_on_c, 9, 49, 110
9, 13984, Note_on_c, 9, 49, 0
9, 20640, Note_on_c, 9, 49, 110
9, 20734, Note_on_c, 9, 49, 0
9, 23712, Note_on_c, 9, 49, 110
9, 23806, Note_on_c, 9, 49, 0
9, 32256, Note_on_c, 9, 49, 110
9, 32416, Note_on_c, 9, 49, 0
9, 39072, Note_on_c, 9, 49, 110
9, 39166, Note_on_c, 9, 49, 0
9, 42144, Note_on_c, 9, 49, 110
9, 42238, Note_on_c, 9, 49, 0
9, 44544, Note_on_c, 9, 49, 110
9, 44704, Note_on_c, 9, 49, 0
9, 56832, Note_on_c, 9, 49, 110
9, 56992, Note_on_c, 9, 49, 0
9, 63648, Note_on_c, 9, 49, 110
9, 63742, Note_on_c, 9, 49, 0
9, 66720, Note_on_c, 9, 49, 110
9, 66814, Note_on_c, 9, 49, 0
9, 69792, Note_on_c, 9, 49, 110
9, 69886, Note_on_c, 9, 49, 0
9, 72864, Note_on_c, 9, 49, 110
9, 72958, Note_on_c, 9, 49, 0
9, 76992, Note_on_c, 9, 49, 110
9, 77152, Note_on_c, 9, 49, 0
9, 78336, Time_signature, 3, 2, 24, 8
9, 78336, End_track
10, 0, Start_track
10, 0, MIDI_port, 0
10, 0, Title_t, "Staff-4"
10, 0, Control_c, 9, 7, 127
10, 0, Control_c, 9, 10, 64
10, 0, Time_signature, 4, 2, 24, 8
10, 7392, Note_on_c, 9, 47, 110
10, 7438, Note_on_c, 9, 47, 0
10, 7440, Note_on_c, 9, 47, 110
10, 7486, Note_on_c, 9, 47, 0
10, 16608, Note_on_c, 9, 47, 110
10, 16654, Note_on_c, 9, 47, 0
10, 16656, Note_on_c, 9, 47, 110
10, 16702, Note_on_c, 9, 47, 0
10, 25824, Note_on_c, 9, 47, 110
10, 25870, Note_on_c, 9, 47, 0
10, 25872, Note_on_c, 9, 47, 110
10, 25918, Note_on_c, 9, 47, 0
10, 35040, Note_on_c, 9, 47, 110
10, 35086, Note_on_c, 9, 47, 0
10, 35088, Note_on_c, 9, 47, 110
10, 35134, Note_on_c, 9, 47, 0
10, 44256, Note_on_c, 9, 47, 110
10, 44302, Note_on_c, 9, 47, 0
10, 44304, Note_on_c, 9, 47, 110
10, 44350, Note_on_c, 9, 47, 0
10, 47328, Note_on_c, 9, 47, 110
10, 47374, Note_on_c, 9, 47, 0
10, 47376, Note_on_c, 9, 47, 110
10, 47422, Note_on_c, 9, 47, 0
10, 59616, Note_on_c, 9, 47, 110
10, 59662, Note_on_c, 9, 47, 0
10, 59664, Note_on_c, 9, 47, 110
10, 59710, Note_on_c, 9, 47, 0
10, 68832, Note_on_c, 9, 47, 110
10, 68878, Note_on_c, 9, 47, 0
10, 68880, Note_on_c, 9, 47, 110
10, 68926, Note_on_c, 9, 47, 0
10, 74976, Note_on_c, 9, 47, 110
10, 75022, Note_on_c, 9, 47, 0
10, 75024, Note_on_c, 9, 47, 110
10, 75070, Note_on_c, 9, 47, 0
10, 76032, Note_on_c, 9, 47, 110
10, 76192, Note_on_c, 9, 47, 0
10, 78336, Time_signature, 3, 2, 24, 8
10, 78336, End_track
11, 0, Start_track
11, 0, MIDI_port, 0
11, 0, Title_t, "Staff-5"
11, 0, Control_c, 9, 7, 127
11, 0, Control_c, 9, 10, 64
11, 0, Time_signature, 4, 2, 24, 8
11, 7488, Note_on_c, 9, 45, 110
11, 7648, Note_on_c, 9, 45, 0
11, 16704, Note_on_c, 9, 45, 110
11, 16864, Note_on_c, 9, 45, 0
11, 25920, Note_on_c, 9, 45, 110
11, 26080, Note_on_c, 9, 45, 0
11, 35136, Note_on_c, 9, 45, 110
11, 35296, Note_on_c, 9, 45, 0
11, 44352, Note_on_c, 9, 45, 110
11, 44512, Note_on_c, 9, 45, 0
11, 47424, Note_on_c, 9, 45, 110
11, 47584, Note_on_c, 9, 45, 0
11, 59712, Note_on_c, 9, 45, 110
11, 59872, Note_on_c, 9, 45, 0
11, 68928, Note_on_c, 9, 45, 110
11, 69088, Note_on_c, 9, 45, 0
11, 75072, Note_on_c, 9, 45, 110
11, 75232, Note_on_c, 9, 45, 0
11, 78336, Time_signature, 3, 2, 24, 8
11, 78336, End_track
12, 0, Start_track
12, 0, MIDI_port, 0
12, 0, Title_t, "Staff-6"
12, 0, Control_c, 9, 7, 127
12, 0, Control_c, 9, 10, 64
12, 0, Time_signature, 4, 2, 24, 8
12, 7584, Note_on_c, 9, 41, 110
12, 7678, Note_on_c, 9, 41, 0
12, 13728, Note_on_c, 9, 41, 110
12, 13822, Note_on_c, 9, 41, 0
12, 16800, Note_on_c, 9, 41, 110
12, 16894, Note_on_c, 9, 41, 0
12, 19680, Note_on_c, 9, 41, 110
12, 19774, Note_on_c, 9, 41, 0
12, 19776, Note_on_c, 9, 41, 110
12, 19870, Note_on_c, 9, 41, 0
12, 19872, Note_on_c, 9, 41, 110
12, 19966, Note_on_c, 9, 41, 0
12, 26016, Note_on_c, 9, 41, 110
12, 26110, Note_on_c, 9, 41, 0
12, 32160, Note_on_c, 9, 41, 110
12, 32254, Note_on_c, 9, 41, 0
12, 35232, Note_on_c, 9, 41, 110
12, 35326, Note_on_c, 9, 41, 0
12, 38112, Note_on_c, 9, 41, 110
12, 38206, Note_on_c, 9, 41, 0
12, 38208, Note_on_c, 9, 41, 110
12, 38302, Note_on_c, 9, 41, 0
12, 38304, Note_on_c, 9, 41, 110
12, 38398, Note_on_c, 9, 41, 0
12, 44448, Note_on_c, 9, 41, 110
12, 44542, Note_on_c, 9, 41, 0
12, 47520, Note_on_c, 9, 41, 110
12, 47614, Note_on_c, 9, 41, 0
12, 50400, Note_on_c, 9, 41, 110
12, 50494, Note_on_c, 9, 41, 0
12, 50496, Note_on_c, 9, 41, 110
12, 50590, Note_on_c, 9, 41, 0
12, 50592, Note_on_c, 9, 41, 110
12, 50686, Note_on_c, 9, 41, 0
12, 56736, Note_on_c, 9, 41, 110
12, 56830, Note_on_c, 9, 41, 0
12, 59808, Note_on_c, 9, 41, 110
12, 59902, Note_on_c, 9, 41, 0
12, 62688, Note_on_c, 9, 41, 110
12, 62782, Note_on_c, 9, 41, 0
12, 62784, Note_on_c, 9, 41, 110
12, 62878, Note_on_c, 9, 41, 0
12, 62880, Note_on_c, 9, 41, 110
12, 62974, Note_on_c, 9, 41, 0
12, 69024, Note_on_c, 9, 41, 110
12, 69118, Note_on_c, 9, 41, 0
12, 75168, Note_on_c, 9, 41, 110
12, 75262, Note_on_c, 9, 41, 0
12, 77352, Note_on_c, 9, 41, 110
12, 77374, Note_on_c, 9, 41, 0
12, 78336, Time_signature, 3, 2, 24, 8
12, 78336, End_track
13, 0, Start_track
13, 0, MIDI_port, 0
13, 0, Title_t, "Staff-7"
13, 0, Control_c, 9, 7, 127
13, 0, Control_c, 9, 10, 64
13, 0, Time_signature, 4, 2, 24, 8
13, 13920, Note_on_c, 9, 51, 110
13, 14014, Note_on_c, 9, 51, 0
13, 14112, Note_on_c, 9, 51, 110
13, 14206, Note_on_c, 9, 51, 0
13, 14208, Note_on_c, 9, 51, 110
13, 14302, Note_on_c, 9, 51, 0
13, 14304, Note_on_c, 9, 51, 110
13, 14398, Note_on_c, 9, 51, 0
13, 14496, Note_on_c, 9, 51, 110
13, 14590, Note_on_c, 9, 51, 0
13, 14592, Note_on_c, 9, 51, 110
13, 14686, Note_on_c, 9, 51, 0
13, 14688, Note_on_c, 9, 51, 110
13, 14782, Note_on_c, 9, 51, 0
13, 14880, Note_on_c, 9, 51, 110
13, 14974, Note_on_c, 9, 51, 0
13, 14976, Note_on_c, 9, 51, 110
13, 15070, Note_on_c, 9, 51, 0
13, 15072, Note_on_c, 9, 51, 110
13, 15166, Note_on_c, 9, 51, 0
13, 15264, Note_on_c, 9, 51, 110
13, 15358, Note_on_c, 9, 51, 0
13, 15360, Note_on_c, 9, 51, 110
13, 15454, Note_on_c, 9, 51, 0
13, 15456, Note_on_c, 9, 51, 110
13, 15550, Note_on_c, 9, 51, 0
13, 15648, Note_on_c, 9, 51, 110
13, 15742, Note_on_c, 9, 51, 0
13, 15744, Note_on_c, 9, 51, 110
13, 15838, Note_on_c, 9, 51, 0
13, 15840, Note_on_c, 9, 51, 110
13, 15934, Note_on_c, 9, 51, 0
13, 16032, Note_on_c, 9, 51, 110
13, 16126, Note_on_c, 9, 51, 0
13, 16128, Note_on_c, 9, 51, 110
13, 16222, Note_on_c, 9, 51, 0
13, 16224, Note_on_c, 9, 51, 110
13, 16318, Note_on_c, 9, 51, 0
13, 16416, Note_on_c, 9, 51, 110
13, 16510, Note_on_c, 9, 51, 0
13, 32352, Note_on_c, 9, 51, 110
13, 32446, Note_on_c, 9, 51, 0
13, 32544, Note_on_c, 9, 51, 110
13, 32638, Note_on_c, 9, 51, 0
13, 32640, Note_on_c, 9, 51, 110
13, 32734, Note_on_c, 9, 51, 0
13, 32736, Note_on_c, 9, 51, 110
13, 32830, Note_on_c, 9, 51, 0
13, 32928, Note_on_c, 9, 51, 110
13, 33022, Note_on_c, 9, 51, 0
13, 33024, Note_on_c, 9, 51, 110
13, 33118, Note_on_c, 9, 51, 0
13, 33120, Note_on_c, 9, 51, 110
13, 33214, Note_on_c, 9, 51, 0
13, 33312, Note_on_c, 9, 51, 110
13, 33406, Note_on_c, 9, 51, 0
13, 33408, Note_on_c, 9, 51, 110
13, 33502, Note_on_c, 9, 51, 0
13, 33504, Note_on_c, 9, 51, 110
13, 33598, Note_on_c, 9, 51, 0
13, 33696, Note_on_c, 9, 51, 110
13, 33790, Note_on_c, 9, 51, 0
13, 33792, Note_on_c, 9, 51, 110
13, 33886, Note_on_c, 9, 51, 0
13, 33888, Note_on_c, 9, 51, 110
13, 33982, Note_on_c, 9, 51, 0
13, 34080, Note_on_c, 9, 51, 110
13, 34174, Note_on_c, 9, 51, 0
13, 34176, Note_on_c, 9, 51, 110
13, 34270, Note_on_c, 9, 51, 0
13, 34272, Note_on_c, 9, 51, 110
13, 34366, Note_on_c, 9, 51, 0
13, 34464, Note_on_c, 9, 51, 110
13, 34558, Note_on_c, 9, 51, 0
13, 34560, Note_on_c, 9, 51, 110
13, 34654, Note_on_c, 9, 51, 0
13, 34656, Note_on_c, 9, 51, 110
13, 34750, Note_on_c, 9, 51, 0
13, 34848, Note_on_c, 9, 51, 110
13, 34942, Note_on_c, 9, 51, 0
13, 44640, Note_on_c, 9, 51, 110
13, 44734, Note_on_c, 9, 51, 0
13, 44832, Note_on_c, 9, 51, 110
13, 44926, Note_on_c, 9, 51, 0
13, 44928, Note_on_c, 9, 51, 110
13, 45022, Note_on_c, 9, 51, 0
13, 45024, Note_on_c, 9, 51, 110
13, 45118, Note_on_c, 9, 51, 0
13, 45216, Note_on_c, 9, 51, 110
13, 45310, Note_on_c, 9, 51, 0
13, 45312, Note_on_c, 9, 51, 110
13, 45406, Note_on_c, 9, 51, 0
13, 45408, Note_on_c, 9, 51, 110
13, 45502, Note_on_c, 9, 51, 0
13, 45600, Note_on_c, 9, 51, 110
13, 45694, Note_on_c, 9, 51, 0
13, 45696, Note_on_c, 9, 51, 110
13, 45790, Note_on_c, 9, 51, 0
13, 45792, Note_on_c, 9, 51, 110
13, 45886, Note_on_c, 9, 51, 0
13, 45984, Note_on_c, 9, 51, 110
13, 46078, Note_on_c, 9, 51, 0
13, 46080, Note_on_c, 9, 51, 110
13, 46174, Note_on_c, 9, 51, 0
13, 46176, Note_on_c, 9, 51, 110
13, 46270, Note_on_c, 9, 51, 0
13, 46368, Note_on_c, 9, 51, 110
13, 46462, Note_on_c, 9, 51, 0
13, 46464, Note_on_c, 9, 51, 110
13, 46558, Note_on_c, 9, 51, 0
13, 46560, Note_on_c, 9, 51, 110
13, 46654, Note_on_c, 9, 51, 0
13, 46752, Note_on_c, 9, 51, 110
13, 46846, Note_on_c, 9, 51, 0
13, 46848, Note_on_c, 9, 51, 110
13, 46942, Note_on_c, 9, 51, 0
13, 46944, Note_on_c, 9, 51, 110
13, 47038, Note_on_c, 9, 51, 0
13, 47136, Note_on_c, 9, 51, 110
13, 47230, Note_on_c, 9, 51, 0
13, 56928, Note_on_c, 9, 51, 110
13, 57022, Note_on_c, 9, 51, 0
13, 57120, Note_on_c, 9, 51, 110
13, 57214, Note_on_c, 9, 51, 0
13, 57216, Note_on_c, 9, 51, 110
13, 57310, Note_on_c, 9, 51, 0
13, 57312, Note_on_c, 9, 51, 110
13, 57406, Note_on_c, 9, 51, 0
13, 57504, Note_on_c, 9, 51, 110
13, 57598, Note_on_c, 9, 51, 0
13, 57600, Note_on_c, 9, 51, 110
13, 57694, Note_on_c, 9, 51, 0
13, 57696, Note_on_c, 9, 51, 110
13, 57790, Note_on_c, 9, 51, 0
13, 57888, Note_on_c, 9, 51, 110
13, 57982, Note_on_c, 9, 51, 0
13, 57984, Note_on_c, 9, 51, 110
13, 58078, Note_on_c, 9, 51, 0
13, 58080, Note_on_c, 9, 51, 110
13, 58174, Note_on_c, 9, 51, 0
13, 58272, Note_on_c, 9, 51, 110
13, 58366, Note_on_c, 9, 51, 0
13, 58368, Note_on_c, 9, 51, 110
13, 58462, Note_on_c, 9, 51, 0
13, 58464, Note_on_c, 9, 51, 110
13, 58558, Note_on_c, 9, 51, 0
13, 58656, Note_on_c, 9, 51, 110
13, 58750, Note_on_c, 9, 51, 0
13, 58752, Note_on_c, 9, 51, 110
13, 58846, Note_on_c, 9, 51, 0
13, 58848, Note_on_c, 9, 51, 110
13, 58942, Note_on_c, 9, 51, 0
13, 59040, Note_on_c, 9, 51, 110
13, 59134, Note_on_c, 9, 51, 0
13, 59136, Note_on_c, 9, 51, 110
13, 59230, Note_on_c, 9, 51, 0
13, 59232, Note_on_c, 9, 51, 110
13, 59326, Note_on_c, 9, 51, 0
13, 59424, Note_on_c, 9, 51, 110
13, 59518, Note_on_c, 9, 51, 0
13, 63072, Note_on_c, 9, 51, 110
13, 63166, Note_on_c, 9, 51, 0
13, 63264, Note_on_c, 9, 51, 110
13, 63358, Note_on_c, 9, 51, 0
13, 63360, Note_on_c, 9, 51, 110
13, 63454, Note_on_c, 9, 51, 0
13, 63456, Note_on_c, 9, 51, 110
13, 63550, Note_on_c, 9, 51, 0
13, 63648, Note_on_c, 9, 51, 110
13, 63742, Note_on_c, 9, 51, 0
13, 63744, Note_on_c, 9, 51, 110
13, 63838, Note_on_c, 9, 51, 0
13, 63840, Note_on_c, 9, 51, 110
13, 63934, Note_on_c, 9, 51, 0
13, 64032, Note_on_c, 9, 51, 110
13, 64126, Note_on_c, 9, 51, 0
13, 64128, Note_on_c, 9, 51, 110
13, 64222, Note_on_c, 9, 51, 0
13, 64224, Note_on_c, 9, 51, 110
13, 64318, Note_on_c, 9, 51, 0
13, 64416, Note_on_c, 9, 51, 110
13, 64510, Note_on_c, 9, 51, 0
13, 64512, Note_on_c, 9, 51, 110
13, 64606, Note_on_c, 9, 51, 0
13, 64608, Note_on_c, 9, 51, 110
13, 64702, Note_on_c, 9, 51, 0
13, 64800, Note_on_c, 9, 51, 110
13, 64894, Note_on_c, 9, 51, 0
13, 64896, Note_on_c, 9, 51, 110
13, 64990, Note_on_c, 9, 51, 0
13, 64992, Note_on_c, 9, 51, 110
13, 65086, Note_on_c, 9, 51, 0
13, 65184, Note_on_c, 9, 51, 110
13, 65278, Note_on_c, 9, 51, 0
13, 65280, Note_on_c, 9, 51, 110
13, 65374, Note_on_c, 9, 51, 0
13, 65376, Note_on_c, 9, 51, 110
13, 65470, Note_on_c, 9, 51, 0
13, 65568, Note_on_c, 9, 51, 110
13, 65662, Note_on_c, 9, 51, 0
13, 66144, Note_on_c, 9, 51, 110
13, 66238, Note_on_c, 9, 51, 0
13, 66336, Note_on_c, 9, 51, 110
13, 66430, Note_on_c, 9, 51, 0
13, 66432, Note_on_c, 9, 51, 110
13, 66526, Note_on_c, 9, 51, 0
13, 66528, Note_on_c, 9, 51, 110
13, 66622, Note_on_c, 9, 51, 0
13, 66720, Note_on_c, 9, 51, 110
13, 66814, Note_on_c, 9, 51, 0
13, 66816, Note_on_c, 9, 51, 110
13, 66910, Note_on_c, 9, 51, 0
13, 66912, Note_on_c, 9, 51, 110
13, 67006, Note_on_c, 9, 51, 0
13, 67104, Note_on_c, 9, 51, 110
13, 67198, Note_on_c, 9, 51, 0
13, 67200, Note_on_c, 9, 51, 110
13, 67294, Note_on_c, 9, 51, 0
13, 67296, Note_on_c, 9, 51, 110
13, 67390, Note_on_c, 9, 51, 0
13, 67488, Note_on_c, 9, 51, 110
13, 67582, Note_on_c, 9, 51, 0
13, 67584, Note_on_c, 9, 51, 110
13, 67678, Note_on_c, 9, 51, 0
13, 67680, Note_on_c, 9, 51, 110
13, 67774, Note_on_c, 9, 51, 0
13, 67872, Note_on_c, 9, 51, 110
13, 67966, Note_on_c, 9, 51, 0
13, 67968, Note_on_c, 9, 51, 110
13, 68062, Note_on_c, 9, 51, 0
13, 68064, Note_on_c, 9, 51, 110
13, 68158, Note_on_c, 9, 51, 0
13, 68256, Note_on_c, 9, 51, 110
13, 68350, Note_on_c, 9, 51, 0
13, 68352, Note_on_c, 9, 51, 110
13, 68446, Note_on_c, 9, 51, 0
13, 68448, Note_on_c, 9, 51, 110
13, 68542, Note_on_c, 9, 51, 0
13, 68640, Note_on_c, 9, 51, 110
13, 68734, Note_on_c, 9, 51, 0
13, 69216, Note_on_c, 9, 51, 110
13, 69310, Note_on_c, 9, 51, 0
13, 69408, Note_on_c, 9, 51, 110
13, 69502, Note_on_c, 9, 51, 0
13, 69504, Note_on_c, 9, 51, 110
13, 69598, Note_on_c, 9, 51, 0
13, 69600, Note_on_c, 9, 51, 110
13, 69694, Note_on_c, 9, 51, 0
13, 69792, Note_on_c, 9, 51, 110
13, 69886, Note_on_c, 9, 51, 0
13, 69888, Note_on_c, 9, 51, 110
13, 69982, Note_on_c, 9, 51, 0
13, 69984, Note_on_c, 9, 51, 110
13, 70078, Note_on_c, 9, 51, 0
13, 70176, Note_on_c, 9, 51, 110
13, 70270, Note_on_c, 9, 51, 0
13, 70272, Note_on_c, 9, 51, 110
13, 70366, Note_on_c, 9, 51, 0
13, 70368, Note_on_c, 9, 51, 110
13, 70462, Note_on_c, 9, 51, 0
13, 70560, Note_on_c, 9, 51, 110
13, 70654, Note_on_c, 9, 51, 0
13, 70656, Note_on_c, 9, 51, 110
13, 70750, Note_on_c, 9, 51, 0
13, 70752, Note_on_c, 9, 51, 110
13, 70846, Note_on_c, 9, 51, 0
13, 70944, Note_on_c, 9, 51, 110
13, 71038, Note_on_c, 9, 51, 0
13, 71040, Note_on_c, 9, 51, 110
13, 71134, Note_on_c, 9, 51, 0
13, 71136, Note_on_c, 9, 51, 110
13, 71230, Note_on_c, 9, 51, 0
13, 71328, Note_on_c, 9, 51, 110
13, 71422, Note_on_c, 9, 51, 0
13, 71424, Note_on_c, 9, 51, 110
13, 71518, Note_on_c, 9, 51, 0
13, 71520, Note_on_c, 9, 51, 110
13, 71614, Note_on_c, 9, 51, 0
13, 71712, Note_on_c, 9, 51, 110
13, 71806, Note_on_c, 9, 51, 0
13, 72288, Note_on_c, 9, 51, 110
13, 72382, Note_on_c, 9, 51, 0
13, 72480, Note_on_c, 9, 51, 110
13, 72574, Note_on_c, 9, 51, 0
13, 72576, Note_on_c, 9, 51, 110
13, 72670, Note_on_c, 9, 51, 0
13, 72672, Note_on_c, 9, 51, 110
13, 72766, Note_on_c, 9, 51, 0
13, 72864, Note_on_c, 9, 51, 110
13, 72958, Note_on_c, 9, 51, 0
13, 72960, Note_on_c, 9, 51, 110
13, 73054, Note_on_c, 9, 51, 0
13, 73056, Note_on_c, 9, 51, 110
13, 73150, Note_on_c, 9, 51, 0
13, 73248, Note_on_c, 9, 51, 110
13, 73342, Note_on_c, 9, 51, 0
13, 73344, Note_on_c, 9, 51, 110
13, 73438, Note_on_c, 9, 51, 0
13, 73440, Note_on_c, 9, 51, 110
13, 73534, Note_on_c, 9, 51, 0
13, 73632, Note_on_c, 9, 51, 110
13, 73726, Note_on_c, 9, 51, 0
13, 73728, Note_on_c, 9, 51, 110
13, 73822, Note_on_c, 9, 51, 0
13, 73824, Note_on_c, 9, 51, 110
13, 73918, Note_on_c, 9, 51, 0
13, 74016, Note_on_c, 9, 51, 110
13, 74110, Note_on_c, 9, 51, 0
13, 74112, Note_on_c, 9, 51, 110
13, 74206, Note_on_c, 9, 51, 0
13, 74208, Note_on_c, 9, 51, 110
13, 74302, Note_on_c, 9, 51, 0
13, 74400, Note_on_c, 9, 51, 110
13, 74494, Note_on_c, 9, 51, 0
13, 74496, Note_on_c, 9, 51, 110
13, 74590, Note_on_c, 9, 51, 0
13, 74592, Note_on_c, 9, 51, 110
13, 74686, Note_on_c, 9, 51, 0
13, 74784, Note_on_c, 9, 51, 110
13, 74878, Note_on_c, 9, 51, 0
13, 78336, Time_signature, 3, 2, 24, 8
13, 78336, End_track
14, 0, Start_track
14, 0, MIDI_port, 0
14, 0, Title_t, "Staff-8"
14, 0, Control_c, 9, 7, 127
14, 0, Control_c, 9, 10, 64
14, 0, Time_signature, 4, 2, 24, 8
14, 14016, Note_on_c, 9, 53, 110
14, 14176, Note_on_c, 9, 53, 0
14, 14400, Note_on_c, 9, 53, 110
14, 14560, Note_on_c, 9, 53, 0
14, 14784, Note_on_c, 9, 53, 110
14, 14944, Note_on_c, 9, 53, 0
14, 15168, Note_on_c, 9, 53, 110
14, 15328, Note_on_c, 9, 53, 0
14, 15552, Note_on_c, 9, 53, 110
14, 15712, Note_on_c, 9, 53, 0
14, 15936, Note_on_c, 9, 53, 110
14, 16096, Note_on_c, 9, 53, 0
14, 16320, Note_on_c, 9, 53, 110
14, 16480, Note_on_c, 9, 53, 0
14, 32448, Note_on_c, 9, 53, 110
14, 32608, Note_on_c, 9, 53, 0
14, 32832, Note_on_c, 9, 53, 110
14, 32992, Note_on_c, 9, 53, 0
14, 33216, Note_on_c, 9, 53, 110
14, 33376, Note_on_c, 9, 53, 0
14, 33600, Note_on_c, 9, 53, 110
14, 33760, Note_on_c, 9, 53, 0
14, 33984, Note_on_c, 9, 53, 110
14, 34144, Note_on_c, 9, 53, 0
14, 34368, Note_on_c, 9, 53, 110
14, 34528, Note_on_c, 9, 53, 0
14, 34752, Note_on_c, 9, 53, 110
14, 34912, Note_on_c, 9, 53, 0
14, 44736, Note_on_c, 9, 53, 110
14, 44896, Note_on_c, 9, 53, 0
14, 45120, Note_on_c, 9, 53, 110
14, 45280, Note_on_c, 9, 53, 0
14, 45504, Note_on_c, 9, 53, 110
14, 45664, Note_on_c, 9, 53, 0
14, 45888, Note_on_c, 9, 53, 110
14, 46048, Note_on_c, 9, 53, 0
14, 46272, Note_on_c, 9, 53, 110
14, 46432, Note_on_c, 9, 53, 0
14, 46656, Note_on_c, 9, 53, 110
14, 46816, Note_on_c, 9, 53, 0
14, 47040, Note_on_c, 9, 53, 110
14, 47200, Note_on_c, 9, 53, 0
14, 57024, Note_on_c, 9, 53, 110
14, 57184, Note_on_c, 9, 53, 0
14, 57408, Note_on_c, 9, 53, 110
14, 57568, Note_on_c, 9, 53, 0
14, 57792, Note_on_c, 9, 53, 110
14, 57952, Note_on_c, 9, 53, 0
14, 58176, Note_on_c, 9, 53, 110
14, 58336, Note_on_c, 9, 53, 0
14, 58560, Note_on_c, 9, 53, 110
14, 58720, Note_on_c, 9, 53, 0
14, 58944, Note_on_c, 9, 53, 110
14, 59104, Note_on_c, 9, 53, 0
14, 59328, Note_on_c, 9, 53, 110
14, 59488, Note_on_c, 9, 53, 0
14, 63168, Note_on_c, 9, 53, 110
14, 63328, Note_on_c, 9, 53, 0
14, 63552, Note_on_c, 9, 53, 110
14, 63712, Note_on_c, 9, 53, 0
14, 63936, Note_on_c, 9, 53, 110
14, 64096, Note_on_c, 9, 53, 0
14, 64320, Note_on_c, 9, 53, 110
14, 64480, Note_on_c, 9, 53, 0
14, 64704, Note_on_c, 9, 53, 110
14, 64864, Note_on_c, 9, 53, 0
14, 65088, Note_on_c, 9, 53, 110
14, 65248, Note_on_c, 9, 53, 0
14, 65472, Note_on_c, 9, 53, 110
14, 65632, Note_on_c, 9, 53, 0
14, 66240, Note_on_c, 9, 53, 110
14, 66400, Note_on_c, 9, 53, 0
14, 66624, Note_on_c, 9, 53, 110
14, 66784, Note_on_c, 9, 53, 0
14, 67008, Note_on_c, 9, 53, 110
14, 67168, Note_on_c, 9, 53, 0
14, 67392, Note_on_c, 9, 53, 110
14, 67552, Note_on_c, 9, 53, 0
14, 67776, Note_on_c, 9, 53, 110
14, 67936, Note_on_c, 9, 53, 0
14, 68160, Note_on_c, 9, 53, 110
14, 68320, Note_on_c, 9, 53, 0
14, 68544, Note_on_c, 9, 53, 110
14, 68704, Note_on_c, 9, 53, 0
14, 69312, Note_on_c, 9, 53, 110
14, 69472, Note_on_c, 9, 53, 0
14, 69696, Note_on_c, 9, 53, 110
14, 69856, Note_on_c, 9, 53, 0
14, 70080, Note_on_c, 9, 53, 110
14, 70240, Note_on_c, 9, 53, 0
14, 70464, Note_on_c, 9, 53, 110
14, 70624, Note_on_c, 9, 53, 0
14, 70848, Note_on_c, 9, 53, 110
14, 71008, Note_on_c, 9, 53, 0
14, 71232, Note_on_c, 9, 53, 110
14, 71392, Note_on_c, 9, 53, 0
14, 71616, Note_on_c, 9, 53, 110
14, 71776, Note_on_c, 9, 53, 0
14, 72384, Note_on_c, 9, 53, 110
14, 72544, Note_on_c, 9, 53, 0
14, 72768, Note_on_c, 9, 53, 110
14, 72928, Note_on_c, 9, 53, 0
14, 73152, Note_on_c, 9, 53, 110
14, 73312, Note_on_c, 9, 53, 0
14, 73536, Note_on_c, 9, 53, 110
14, 73696, Note_on_c, 9, 53, 0
14, 73920, Note_on_c, 9, 53, 110
14, 74080, Note_on_c, 9, 53, 0
14, 74304, Note_on_c, 9, 53, 110
14, 74464, Note_on_c, 9, 53, 0
14, 74688, Note_on_c, 9, 53, 110
14, 74848, Note_on_c, 9, 53, 0
14, 78336, Time_signature, 3, 2, 24, 8
14, 78336, End_track
15, 0, Start_track
15, 0, MIDI_port, 0
15, 0, Title_t, "Staff-9"
15, 0, Control_c, 9, 7, 127
15, 0, Control_c, 9, 10, 64
15, 0, Time_signature, 4, 2, 24, 8
15, 76200, Note_on_c, 9, 43, 110
15, 76222, Note_on_c, 9, 43, 0
15, 77304, Note_on_c, 9, 43, 110
15, 77326, Note_on_c, 9, 43, 0
15, 77328, Note_on_c, 9, 43, 110
15, 77374, Note_on_c, 9, 43, 0
15, 78336, Time_signature, 3, 2, 24, 8
15, 78336, End_track
16, 0, Start_track
16, 0, MIDI_port, 0
16, 0, Title_t, "Staff-10"
16, 0, Control_c, 9, 7, 127
16, 0, Control_c, 9, 10, 64
16, 0, Time_signature, 4, 2, 24, 8
16, 76416, Note_on_c, 9, 57, 110
16, 76576, Note_on_c, 9, 57, 0
16, 77568, Note_on_c, 9, 57, 110
16, 77728, Note_on_c, 9, 57, 0
16, 78336, Time_signature, 3, 2, 24, 8
16, 78336, End_track
17, 0, Start_track
17, 0, MIDI_port, 0
17, 0, Title_t, "Tempo Track"
17, 0, Control_c, 0, 7, 127
17, 0, Control_c, 0, 10, 64
17, 0, Time_signature, 4, 2, 24, 8
17, 78336, Time_signature, 3, 2, 24, 8
17, 78336, End_track
18, 0, Start_track
18, 0, MIDI_port, 0
18, 0, Title_t, "Staff-1"
18, 0, Program_c, 1, 27
18, 0, Control_c, 1, 7, 120
18, 0, Control_c, 1, 10, 64
18, 0, Time_signature, 4, 2, 24, 8
18, 1536, Note_on_c, 1, 40, 110
18, 1792, Note_on_c, 1, 40, 0
18, 1824, Note_on_c, 1, 40, 110
18, 1918, Note_on_c, 1, 40, 0
18, 1920, Note_on_c, 1, 43, 110
18, 2014, Note_on_c, 1, 43, 0
18, 2016, Note_on_c, 1, 45, 110
18, 2206, Note_on_c, 1, 45, 0
18, 2208, Note_on_c, 1, 50, 110
18, 2464, Note_on_c, 1, 50, 0
18, 2496, Note_on_c, 1, 64, 110
18, 2656, Note_on_c, 1, 64, 0
18, 2688, Note_on_c, 1, 62, 110
18, 2782, Note_on_c, 1, 62, 0
18, 2784, Note_on_c, 1, 64, 110
18, 2878, Note_on_c, 1, 64, 0
18, 2880, Note_on_c, 1, 64, 110
18, 2974, Note_on_c, 1, 64, 0
18, 2976, Note_on_c, 1, 59, 110
18, 3328, Note_on_c, 1, 59, 0
18, 3360, Note_on_c, 1, 64, 110
18, 3520, Note_on_c, 1, 64, 0
18, 3552, Note_on_c, 1, 62, 110
18, 3712, Note_on_c, 1, 62, 0
18, 3744, Note_on_c, 1, 64, 110
18, 3934, Note_on_c, 1, 64, 0
18, 3936, Note_on_c, 1, 59, 110
18, 4096, Note_on_c, 1, 59, 0
18, 4128, Note_on_c, 1, 64, 110
18, 4288, Note_on_c, 1, 64, 0
18, 4320, Note_on_c, 1, 59, 110
18, 4480, Note_on_c, 1, 59, 0
18, 4512, Note_on_c, 1, 64, 110
18, 4606, Note_on_c, 1, 64, 0
18, 4608, Note_on_c, 1, 40, 110
18, 4864, Note_on_c, 1, 40, 0
18, 4896, Note_on_c, 1, 40, 110
18, 4990, Note_on_c, 1, 40, 0
18, 4992, Note_on_c, 1, 43, 110
18, 5086, Note_on_c, 1, 43, 0
18, 5088, Note_on_c, 1, 45, 110
18, 5278, Note_on_c, 1, 45, 0
18, 5280, Note_on_c, 1, 50, 110
18, 5536, Note_on_c, 1, 50, 0
18, 5568, Note_on_c, 1, 64, 110
18, 5728, Note_on_c, 1, 64, 0
18, 5760, Note_on_c, 1, 62, 110
18, 5854, Note_on_c, 1, 62, 0
18, 5856, Note_on_c, 1, 64, 110
18, 5950, Note_on_c, 1, 64, 0
18, 5952, Note_on_c, 1, 64, 110
18, 6046, Note_on_c, 1, 64, 0
18, 6048, Note_on_c, 1, 59, 110
18, 6400, Note_on_c, 1, 59, 0
18, 6432, Note_on_c, 1, 64, 110
18, 6592, Note_on_c, 1, 64, 0
18, 6624, Note_on_c, 1, 62, 110
18, 6784, Note_on_c, 1, 62, 0
18, 6816, Note_on_c, 1, 64, 110
18, 7006, Note_on_c, 1, 64, 0
18, 7008, Note_on_c, 1, 59, 110
18, 7168, Note_on_c, 1, 59, 0
18, 7200, Note_on_c, 1, 64, 110
18, 7360, Note_on_c, 1, 64, 0
18, 7392, Note_on_c, 1, 59, 110
18, 7552, Note_on_c, 1, 59, 0
18, 7584, Note_on_c, 1, 64, 110
18, 7678, Note_on_c, 1, 64, 0
18, 19968, Note_on_c, 1, 40, 110
18, 20224, Note_on_c, 1, 40, 0
18, 20256, Note_on_c, 1, 40, 110
18, 20350, Note_on_c, 1, 40, 0
18, 20352, Note_on_c, 1, 43, 110
18, 20446, Note_on_c, 1, 43, 0
18, 20448, Note_on_c, 1, 45, 110
18, 20638, Note_on_c, 1, 45, 0
18, 20640, Note_on_c, 1, 50, 110
18, 20896, Note_on_c, 1, 50, 0
18, 20928, Note_on_c, 1, 64, 110
18, 21088, Note_on_c, 1, 64, 0
18, 21120, Note_on_c, 1, 62, 110
18, 21214, Note_on_c, 1, 62, 0
18, 21216, Note_on_c, 1, 64, 110
18, 21310, Note_on_c, 1, 64, 0
18, 21312, Note_on_c, 1, 64, 110
18, 21406, Note_on_c, 1, 64, 0
18, 21408, Note_on_c, 1, 59, 110
18, 21760, Note_on_c, 1, 59, 0
18, 21792, Note_on_c, 1, 64, 110
18, 21952, Note_on_c, 1, 64, 0
18, 21984, Note_on_c, 1, 62, 110
18, 22144, Note_on_c, 1, 62, 0
18, 22176, Note_on_c, 1, 64, 110
18, 22366, Note_on_c, 1, 64, 0
18, 22368, Note_on_c, 1, 59, 110
18, 22528, Note_on_c, 1, 59, 0
18, 22560, Note_on_c, 1, 64, 110
18, 22720, Note_on_c, 1, 64, 0
18, 22752, Note_on_c, 1, 59, 110
18, 22912, Note_on_c, 1, 59, 0
18, 22944, Note_on_c, 1, 64, 110
18, 23038, Note_on_c, 1, 64, 0
18, 23040, Note_on_c, 1, 40, 110
18, 23296, Note_on_c, 1, 40, 0
18, 23328, Note_on_c, 1, 40, 110
18, 23422, Note_on_c, 1, 40, 0
18, 23424, Note_on_c, 1, 43, 110
18, 23518, Note_on_c, 1, 43, 0
18, 23520, Note_on_c, 1, 45, 110
18, 23710, Note_on_c, 1, 45, 0
18, 23712, Note_on_c, 1, 50, 110
18, 23968, Note_on_c, 1, 50, 0
18, 24000, Note_on_c, 1, 64, 110
18, 24160, Note_on_c, 1, 64, 0
18, 24192, Note_on_c, 1, 62, 110
18, 24286, Note_on_c, 1, 62, 0
18, 24288, Note_on_c, 1, 64, 110
18, 24382, Note_on_c, 1, 64, 0
18, 24384, Note_on_c, 1, 64, 110
18, 24478, Note_on_c, 1, 64, 0
18, 24480, Note_on_c, 1, 59, 110
18, 24832, Note_on_c, 1, 59, 0
18, 24864, Note_on_c, 1, 64, 110
18, 25024, Note_on_c, 1, 64, 0
18, 25056, Note_on_c, 1, 62, 110
18, 25216, Note_on_c, 1, 62, 0
18, 25248, Note_on_c, 1, 64, 110
18, 25438, Note_on_c, 1, 64, 0
18, 25440, Note_on_c, 1, 59, 110
18, 25600, Note_on_c, 1, 59, 0
18, 25632, Note_on_c, 1, 64, 110
18, 25792, Note_on_c, 1, 64, 0
18, 25824, Note_on_c, 1, 59, 110
18, 25984, Note_on_c, 1, 59, 0
18, 26016, Note_on_c, 1, 64, 110
18, 26110, Note_on_c, 1, 64, 0
18, 38400, Note_on_c, 1, 40, 110
18, 38656, Note_on_c, 1, 40, 0
18, 38688, Note_on_c, 1, 40, 110
18, 38782, Note_on_c, 1, 40, 0
18, 38784, Note_on_c, 1, 43, 110
18, 38878, Note_on_c, 1, 43, 0
18, 38880, Note_on_c, 1, 45, 110
18, 39070, Note_on_c, 1, 45, 0
18, 39072, Note_on_c, 1, 50, 110
18, 39328, Note_on_c, 1, 50, 0
18, 39360, Note_on_c, 1, 64, 110
18, 39520, Note_on_c, 1, 64, 0
18, 39552, Note_on_c, 1, 62, 110
18, 39646, Note_on_c, 1, 62, 0
18, 39648, Note_on_c, 1, 64, 110
18, 39742, Note_on_c, 1, 64, 0
18, 39744, Note_on_c, 1, 64, 110
18, 39838, Note_on_c, 1, 64, 0
18, 39840, Note_on_c, 1, 59, 110
18, 40192, Note_on_c, 1, 59, 0
18, 40224, Note_on_c, 1, 64, 110
18, 40384, Note_on_c, 1, 64, 0
18, 40416, Note_on_c, 1, 62, 110
18, 40576, Note_on_c, 1, 62, 0
18, 40608, Note_on_c, 1, 64, 110
18, 40798, Note_on_c, 1, 64, 0
18, 40800, Note_on_c, 1, 59, 110
18, 40960, Note_on_c, 1, 59, 0
18, 40992, Note_on_c, 1, 64, 110
18, 41152, Note_on_c, 1, 64, 0
18, 41184, Note_on_c, 1, 59, 110
18, 41344, Note_on_c, 1, 59, 0
18, 41376, Note_on_c, 1, 64, 110
18, 41470, Note_on_c, 1, 64, 0
18, 41472, Note_on_c, 1, 40, 110
18, 41728, Note_on_c, 1, 40, 0
18, 41760, Note_on_c, 1, 40, 110
18, 41854, Note_on_c, 1, 40, 0
18, 41856, Note_on_c, 1, 43, 110
18, 41950, Note_on_c, 1, 43, 0
18, 41952, Note_on_c, 1, 45, 110
18, 42142, Note_on_c, 1, 45, 0
18, 42144, Note_on_c, 1, 50, 110
18, 42400, Note_on_c, 1, 50, 0
18, 42432, Note_on_c, 1, 64, 110
18, 42592, Note_on_c, 1, 64, 0
18, 42624, Note_on_c, 1, 62, 110
18, 42718, Note_on_c, 1, 62, 0
18, 42720, Note_on_c, 1, 64, 110
18, 42814, Note_on_c, 1, 64, 0
18, 42816, Note_on_c, 1, 64, 110
18, 42910, Note_on_c, 1, 64, 0
18, 42912, Note_on_c, 1, 59, 110
18, 43264, Note_on_c, 1, 59, 0
18, 43296, Note_on_c, 1, 64, 110
18, 43456, Note_on_c, 1, 64, 0
18, 43488, Note_on_c, 1, 62, 110
18, 43648, Note_on_c, 1, 62, 0
18, 43680, Note_on_c, 1, 64, 110
18, 43870, Note_on_c, 1, 64, 0
18, 43872, Note_on_c, 1, 59, 110
18, 44032, Note_on_c, 1, 59, 0
18, 44064, Note_on_c, 1, 64, 110
18, 44224, Note_on_c, 1, 64, 0
18, 44256, Note_on_c, 1, 59, 110
18, 44416, Note_on_c, 1, 59, 0
18, 44448, Note_on_c, 1, 64, 110
18, 44542, Note_on_c, 1, 64, 0
18, 44544, Note_on_c, 1, 59, 110
18, 44704, Note_on_c, 1, 59, 0
18, 44736, Note_on_c, 1, 62, 110
18, 44830, Note_on_c, 1, 62, 0
18, 44832, Note_on_c, 1, 59, 110
18, 44926, Note_on_c, 1, 59, 0
18, 44928, Note_on_c, 1, 64, 110
18, 45022, Note_on_c, 1, 64, 0
18, 45024, Note_on_c, 1, 62, 110
18, 45184, Note_on_c, 1, 62, 0
18, 45216, Note_on_c, 1, 59, 110
18, 45472, Note_on_c, 1, 59, 0
18, 45504, Note_on_c, 1, 62, 110
18, 45598, Note_on_c, 1, 62, 0
18, 45600, Note_on_c, 1, 59, 110
18, 45694, Note_on_c, 1, 59, 0
18, 45696, Note_on_c, 1, 64, 110
18, 45790, Note_on_c, 1, 64, 0
18, 45792, Note_on_c, 1, 62, 110
18, 45952, Note_on_c, 1, 62, 0
18, 45984, Note_on_c, 1, 59, 110
18, 46240, Note_on_c, 1, 59, 0
18, 46272, Note_on_c, 1, 62, 110
18, 46366, Note_on_c, 1, 62, 0
18, 46368, Note_on_c, 1, 59, 110
18, 46462, Note_on_c, 1, 59, 0
18, 46464, Note_on_c, 1, 64, 110
18, 46558, Note_on_c, 1, 64, 0
18, 46560, Note_on_c, 1, 62, 110
18, 46720, Note_on_c, 1, 62, 0
18, 46752, Note_on_c, 1, 64, 110
18, 47008, Note_on_c, 1, 64, 0
18, 47040, Note_on_c, 1, 62, 110
18, 47200, Note_on_c, 1, 62, 0
18, 47232, Note_on_c, 1, 59, 110
18, 47326, Note_on_c, 1, 59, 0
18, 47328, Note_on_c, 1, 57, 110
18, 47422, Note_on_c, 1, 57, 0
18, 47424, Note_on_c, 1, 55, 110
18, 47518, Note_on_c, 1, 55, 0
18, 47520, Note_on_c, 1, 50, 110
18, 47614, Note_on_c, 1, 50, 0
18, 47616, Note_on_c, 1, 52, 110
18, 47776, Note_on_c, 1, 52, 0
18, 47808, Note_on_c, 1, 55, 110
18, 47902, Note_on_c, 1, 55, 0
18, 47904, Note_on_c, 1, 52, 110
18, 47998, Note_on_c, 1, 52, 0
18, 48000, Note_on_c, 1, 55, 110
18, 48094, Note_on_c, 1, 55, 0
18, 48096, Note_on_c, 1, 57, 110
18, 48190, Note_on_c, 1, 57, 0
18, 48192, Note_on_c, 1, 59, 110
18, 48286, Note_on_c, 1, 59, 0
18, 48288, Note_on_c, 1, 62, 110
18, 48544, Note_on_c, 1, 62, 0
18, 48576, Note_on_c, 1, 59, 110
18, 48736, Note_on_c, 1, 59, 0
18, 48768, Note_on_c, 1, 57, 110
18, 48862, Note_on_c, 1, 57, 0
18, 48864, Note_on_c, 1, 55, 110
18, 49024, Note_on_c, 1, 55, 0
18, 49056, Note_on_c, 1, 52, 110
18, 49102, Note_on_c, 1, 52, 0
18, 49104, Note_on_c, 1, 50, 110
18, 49150, Note_on_c, 1, 50, 0
18, 49152, Note_on_c, 1, 52, 110
18, 49312, Note_on_c, 1, 52, 0
18, 49344, Note_on_c, 1, 59, 110
18, 49438, Note_on_c, 1, 59, 0
18, 49440, Note_on_c, 1, 64, 110
18, 49696, Note_on_c, 1, 64, 0
18, 49728, Note_on_c, 1, 43, 110
18, 49888, Note_on_c, 1, 43, 0
18, 49920, Note_on_c, 1, 52, 110
18, 50256, Note_on_c, 1, 52, 0
18, 62976, Note_on_c, 1, 40, 110
18, 63232, Note_on_c, 1, 40, 0
18, 63264, Note_on_c, 1, 40, 110
18, 63358, Note_on_c, 1, 40, 0
18, 63360, Note_on_c, 1, 43, 110
18, 63454, Note_on_c, 1, 43, 0
18, 63456, Note_on_c, 1, 45, 110
18, 63646, Note_on_c, 1, 45, 0
18, 63648, Note_on_c, 1, 50, 110
18, 63904, Note_on_c, 1, 50, 0
18, 63936, Note_on_c, 1, 64, 110
18, 64096, Note_on_c, 1, 64, 0
18, 64128, Note_on_c, 1, 62, 110
18, 64222, Note_on_c, 1, 62, 0
18, 64224, Note_on_c, 1, 64, 110
18, 64318, Note_on_c, 1, 64, 0
18, 64320, Note_on_c, 1, 64, 110
18, 64414, Note_on_c, 1, 64, 0
18, 64416, Note_on_c, 1, 59, 110
18, 64768, Note_on_c, 1, 59, 0
18, 64800, Note_on_c, 1, 64, 110
18, 64960, Note_on_c, 1, 64, 0
18, 64992, Note_on_c, 1, 62, 110
18, 65152, Note_on_c, 1, 62, 0
18, 65184, Note_on_c, 1, 64, 110
18, 65374, Note_on_c, 1, 64, 0
18, 65376, Note_on_c, 1, 59, 110
18, 65536, Note_on_c, 1, 59, 0
18, 65568, Note_on_c, 1, 64, 110
18, 65728, Note_on_c, 1, 64, 0
18, 65760, Note_on_c, 1, 59, 110
18, 65920, Note_on_c, 1, 59, 0
18, 65952, Note_on_c, 1, 64, 110
18, 66046, Note_on_c, 1, 64, 0
18, 66048, Note_on_c, 1, 40, 110
18, 66304, Note_on_c, 1, 40, 0
18, 66336, Note_on_c, 1, 40, 110
18, 66430, Note_on_c, 1, 40, 0
18, 66432, Note_on_c, 1, 43, 110
18, 66526, Note_on_c, 1, 43, 0
18, 66528, Note_on_c, 1, 45, 110
18, 66718, Note_on_c, 1, 45, 0
18, 66720, Note_on_c, 1, 50, 110
18, 66976, Note_on_c, 1, 50, 0
18, 67008, Note_on_c, 1, 64, 110
18, 67168, Note_on_c, 1, 64, 0
18, 67200, Note_on_c, 1, 62, 110
18, 67294, Note_on_c, 1, 62, 0
18, 67296, Note_on_c, 1, 64, 110
18, 67390, Note_on_c, 1, 64, 0
18, 67392, Note_on_c, 1, 64, 110
18, 67486, Note_on_c, 1, 64, 0
18, 67488, Note_on_c, 1, 59, 110
18, 67840, Note_on_c, 1, 59, 0
18, 67872, Note_on_c, 1, 64, 110
18, 68032, Note_on_c, 1, 64, 0
18, 68064, Note_on_c, 1, 62, 110
18, 68224, Note_on_c, 1, 62, 0
18, 68256, Note_on_c, 1, 64, 110
18, 68446, Note_on_c, 1, 64, 0
18, 68448, Note_on_c, 1, 59, 110
18, 68608, Note_on_c, 1, 59, 0
18, 68640, Note_on_c, 1, 64, 110
18, 68800, Note_on_c, 1, 64, 0
18, 68832, Note_on_c, 1, 59, 110
18, 68992, Note_on_c, 1, 59, 0
18, 69024, Note_on_c, 1, 64, 110
18, 69118, Note_on_c, 1, 64, 0
18, 69120, Note_on_c, 1, 40, 110
18, 69376, Note_on_c, 1, 40, 0
18, 69408, Note_on_c, 1, 40, 110
18, 69502, Note_on_c, 1, 40, 0
18, 69504, Note_on_c, 1, 43, 110
18, 69598, Note_on_c, 1, 43, 0
18, 69600, Note_on_c, 1, 45, 110
18, 69790, Note_on_c, 1, 45, 0
18, 69792, Note_on_c, 1, 50, 110
18, 70048, Note_on_c, 1, 50, 0
18, 70080, Note_on_c, 1, 64, 110
18, 70240, Note_on_c, 1, 64, 0
18, 70272, Note_on_c, 1, 62, 110
18, 70366, Note_on_c, 1, 62, 0
18, 70368, Note_on_c, 1, 64, 110
18, 70462, Note_on_c, 1, 64, 0
18, 70464, Note_on_c, 1, 64, 110
18, 70558, Note_on_c, 1, 64, 0
18, 70560, Note_on_c, 1, 59, 110
18, 70912, Note_on_c, 1, 59, 0
18, 70944, Note_on_c, 1, 64, 110
18, 71104, Note_on_c, 1, 64, 0
18, 71136, Note_on_c, 1, 62, 110
18, 71296, Note_on_c, 1, 62, 0
18, 71328, Note_on_c, 1, 64, 110
18, 71518, Note_on_c, 1, 64, 0
18, 71520, Note_on_c, 1, 59, 110
18, 71680, Note_on_c, 1, 59, 0
18, 71712, Note_on_c, 1, 64, 110
18, 71872, Note_on_c, 1, 64, 0
18, 71904, Note_on_c, 1, 59, 110
18, 72064, Note_on_c, 1, 59, 0
18, 72096, Note_on_c, 1, 64, 110
18, 72190, Note_on_c, 1, 64, 0
18, 72192, Note_on_c, 1, 40, 110
18, 72448, Note_on_c, 1, 40, 0
18, 72480, Note_on_c, 1, 40, 110
18, 72574, Note_on_c, 1, 40, 0
18, 72576, Note_on_c, 1, 43, 110
18, 72670, Note_on_c, 1, 43, 0
18, 72672, Note_on_c, 1, 45, 110
18, 72862, Note_on_c, 1, 45, 0
18, 72864, Note_on_c, 1, 50, 110
18, 73120, Note_on_c, 1, 50, 0
18, 73152, Note_on_c, 1, 64, 110
18, 73312, Note_on_c, 1, 64, 0
18, 73344, Note_on_c, 1, 62, 110
18, 73438, Note_on_c, 1, 62, 0
18, 73440, Note_on_c, 1, 64, 110
18, 73534, Note_on_c, 1, 64, 0
18, 73536, Note_on_c, 1, 64, 110
18, 73630, Note_on_c, 1, 64, 0
18, 73632, Note_on_c, 1, 59, 110
18, 73984, Note_on_c, 1, 59, 0
18, 74016, Note_on_c, 1, 64, 110
18, 74176, Note_on_c, 1, 64, 0
18, 74208, Note_on_c, 1, 62, 110
18, 74368, Note_on_c, 1, 62, 0
18, 74400, Note_on_c, 1, 64, 110
18, 74590, Note_on_c, 1, 64, 0
18, 74592, Note_on_c, 1, 59, 110
18, 74752, Note_on_c, 1, 59, 0
18, 74784, Note_on_c, 1, 64, 110
18, 74944, Note_on_c, 1, 64, 0
18, 74976, Note_on_c, 1, 59, 110
18, 75136, Note_on_c, 1, 59, 0
18, 75168, Note_on_c, 1, 64, 110
18, 75262, Note_on_c, 1, 64, 0
18, 75264, Note_on_c, 1, 40, 110
18, 75792, Note_on_c, 1, 40, 0
18, 75840, Note_on_c, 1, 43, 110
18, 76000, Note_on_c, 1, 43, 0
18, 76032, Note_on_c, 1, 45, 110
18, 76192, Note_on_c, 1, 45, 0
18, 76224, Note_on_c, 1, 50, 110
18, 76414, Note_on_c, 1, 50, 0
18, 76416, Note_on_c, 1, 38, 110
18, 76416, Note_on_c, 1, 50, 110
18, 76416, Note_on_c, 1, 62, 110
18, 76960, Note_on_c, 1, 38, 0
18, 76960, Note_on_c, 1, 50, 0
18, 76960, Note_on_c, 1, 62, 0
18, 76992, Note_on_c, 1, 39, 110
18, 76992, Note_on_c, 1, 51, 110
18, 76992, Note_on_c, 1, 63, 110
18, 77520, Note_on_c, 1, 39, 0
18, 77520, Note_on_c, 1, 51, 0
18, 77520, Note_on_c, 1, 63, 0
18, 77568, Note_on_c, 1, 40, 110
18, 77568, Note_on_c, 1, 52, 110
18, 77568, Note_on_c, 1, 64, 110
18, 78336, Time_signature, 3, 2, 24, 8
18, 80016, Note_on_c, 1, 40, 0
18, 80016, Note_on_c, 1, 52, 0
18, 80016, Note_on_c, 1, 64, 0
18, 80016, End_track
19, 0, Start_track
19, 0, MIDI_port, 0
19, 0, Title_t, "Staff-11"
19, 0, Program_c, 0, 33
19, 0, Control_c, 0, 7, 115
19, 0, Control_c, 0, 10, 64
19, 0, Time_signature, 4, 2, 24, 8
19, 1536, Note_on_c, 0, 28, 110
19, 1792, Note_on_c, 0, 28, 0
19, 1824, Note_on_c, 0, 28, 110
19, 1918, Note_on_c, 0, 28, 0
19, 1920, Note_on_c, 0, 31, 110
19, 2014, Note_on_c, 0, 31, 0
19, 2016, Note_on_c, 0, 33, 110
19, 2206, Note_on_c, 0, 33, 0
19, 2208, Note_on_c, 0, 26, 110
19, 2464, Note_on_c, 0, 26, 0
19, 2592, Note_on_c, 0, 26, 110
19, 2686, Note_on_c, 0, 26, 0
19, 2688, Note_on_c, 0, 31, 110
19, 2782, Note_on_c, 0, 31, 0
19, 2784, Note_on_c, 0, 30, 110
19, 2974, Note_on_c, 0, 30, 0
19, 2976, Note_on_c, 0, 28, 110
19, 3328, Note_on_c, 0, 28, 0
19, 3360, Note_on_c, 0, 28, 110
19, 3454, Note_on_c, 0, 28, 0
19, 3456, Note_on_c, 0, 31, 110
19, 3550, Note_on_c, 0, 31, 0
19, 3552, Note_on_c, 0, 33, 110
19, 3742, Note_on_c, 0, 33, 0
19, 3744, Note_on_c, 0, 28, 110
19, 4096, Note_on_c, 0, 28, 0
19, 4128, Note_on_c, 0, 23, 110
19, 4222, Note_on_c, 0, 23, 0
19, 4224, Note_on_c, 0, 28, 110
19, 4480, Note_on_c, 0, 28, 0
19, 4512, Note_on_c, 0, 23, 110
19, 4606, Note_on_c, 0, 23, 0
19, 4608, Note_on_c, 0, 28, 110
19, 4864, Note_on_c, 0, 28, 0
19, 4896, Note_on_c, 0, 28, 110
19, 4990, Note_on_c, 0, 28, 0
19, 4992, Note_on_c, 0, 31, 110
19, 5086, Note_on_c, 0, 31, 0
19, 5088, Note_on_c, 0, 33, 110
19, 5278, Note_on_c, 0, 33, 0
19, 5280, Note_on_c, 0, 26, 110
19, 5536, Note_on_c, 0, 26, 0
19, 5664, Note_on_c, 0, 26, 110
19, 5758, Note_on_c, 0, 26, 0
19, 5760, Note_on_c, 0, 31, 110
19, 5854, Note_on_c, 0, 31, 0
19, 5856, Note_on_c, 0, 30, 110
19, 6046, Note_on_c, 0, 30, 0
19, 6048, Note_on_c, 0, 28, 110
19, 6400, Note_on_c, 0, 28, 0
19, 6432, Note_on_c, 0, 28, 110
19, 6526, Note_on_c, 0, 28, 0
19, 6528, Note_on_c, 0, 31, 110
19, 6622, Note_on_c, 0, 31, 0
19, 6624, Note_on_c, 0, 33, 110
19, 6814, Note_on_c, 0, 33, 0
19, 6816, Note_on_c, 0, 28, 110
19, 7168, Note_on_c, 0, 28, 0
19, 7200, Note_on_c, 0, 23, 110
19, 7294, Note_on_c, 0, 23, 0
19, 7296, Note_on_c, 0, 28, 110
19, 7552, Note_on_c, 0, 28, 0
19, 7584, Note_on_c, 0, 23, 110
19, 7678, Note_on_c, 0, 23, 0
19, 7680, Note_on_c, 0, 28, 110
19, 7936, Note_on_c, 0, 28, 0
19, 7968, Note_on_c, 0, 28, 110
19, 8062, Note_on_c, 0, 28, 0
19, 8064, Note_on_c, 0, 23, 110
19, 8320, Note_on_c, 0, 23, 0
19, 8352, Note_on_c, 0, 23, 110
19, 8446, Note_on_c, 0, 23, 0
19, 8448, Note_on_c, 0, 33, 110
19, 8608, Note_on_c, 0, 33, 0
19, 8736, Note_on_c, 0, 33, 110
19, 8830, Note_on_c, 0, 33, 0
19, 8832, Note_on_c, 0, 26, 110
19, 8992, Note_on_c, 0, 26, 0
19, 9120, Note_on_c, 0, 26, 110
19, 9214, Note_on_c, 0, 26, 0
19, 9216, Note_on_c, 0, 28, 110
19, 9376, Note_on_c, 0, 28, 0
19, 9504, Note_on_c, 0, 28, 110
19, 9598, Note_on_c, 0, 28, 0
19, 9600, Note_on_c, 0, 23, 110
19, 9760, Note_on_c, 0, 23, 0
19, 9888, Note_on_c, 0, 23, 110
19, 9982, Note_on_c, 0, 23, 0
19, 9984, Note_on_c, 0, 28, 110
19, 10144, Note_on_c, 0, 28, 0
19, 10272, Note_on_c, 0, 28, 110
19, 10366, Note_on_c, 0, 28, 0
19, 10368, Note_on_c, 0, 23, 110
19, 10528, Note_on_c, 0, 23, 0
19, 10656, Note_on_c, 0, 23, 110
19, 10750, Note_on_c, 0, 23, 0
19, 10752, Note_on_c, 0, 28, 110
19, 10912, Note_on_c, 0, 28, 0
19, 11040, Note_on_c, 0, 28, 110
19, 11134, Note_on_c, 0, 28, 0
19, 11136, Note_on_c, 0, 23, 110
19, 11296, Note_on_c, 0, 23, 0
19, 11424, Note_on_c, 0, 23, 110
19, 11518, Note_on_c, 0, 23, 0
19, 11520, Note_on_c, 0, 33, 110
19, 11680, Note_on_c, 0, 33, 0
19, 11808, Note_on_c, 0, 33, 110
19, 11902, Note_on_c, 0, 33, 0
19, 11904, Note_on_c, 0, 26, 110
19, 12064, Note_on_c, 0, 26, 0
19, 12192, Note_on_c, 0, 26, 110
19, 12286, Note_on_c, 0, 26, 0
19, 12288, Note_on_c, 0, 28, 110
19, 12448, Note_on_c, 0, 28, 0
19, 12576, Note_on_c, 0, 28, 110
19, 12670, Note_on_c, 0, 28, 0
19, 12672, Note_on_c, 0, 23, 110
19, 12832, Note_on_c, 0, 23, 0
19, 12960, Note_on_c, 0, 23, 110
19, 13054, Note_on_c, 0, 23, 0
19, 13056, Note_on_c, 0, 28, 110
19, 13216, Note_on_c, 0, 28, 0
19, 13344, Note_on_c, 0, 28, 110
19, 13438, Note_on_c, 0, 28, 0
19, 13440, Note_on_c, 0, 23, 110
19, 13600, Note_on_c, 0, 23, 0
19, 13632, Note_on_c, 0, 26, 110
19, 13792, Note_on_c, 0, 26, 0
19, 13824, Note_on_c, 0, 31, 110
19, 14080, Note_on_c, 0, 31, 0
19, 14112, Note_on_c, 0, 31, 110
19, 14206, Note_on_c, 0, 31, 0
19, 14208, Note_on_c, 0, 29, 110
19, 14302, Note_on_c, 0, 29, 0
19, 14304, Note_on_c, 0, 28, 110
19, 14494, Note_on_c, 0, 28, 0
19, 14496, Note_on_c, 0, 26, 110
19, 15070, Note_on_c, 0, 26, 0
19, 15072, Note_on_c, 0, 28, 110
19, 15328, Note_on_c, 0, 28, 0
19, 15360, Note_on_c, 0, 31, 110
19, 15616, Note_on_c, 0, 31, 0
19, 15648, Note_on_c, 0, 21, 110
19, 15838, Note_on_c, 0, 21, 0
19, 15840, Note_on_c, 0, 23, 110
19, 16030, Note_on_c, 0, 23, 0
19, 16032, Note_on_c, 0, 24, 110
19, 16848, Note_on_c, 0, 24, 0
19, 16896, Note_on_c, 0, 28, 110
19, 17152, Note_on_c, 0, 28, 0
19, 17184, Note_on_c, 0, 28, 110
19, 17278, Note_on_c, 0, 28, 0
19, 17280, Note_on_c, 0, 23, 110
19, 17536, Note_on_c, 0, 23, 0
19, 17568, Note_on_c, 0, 23, 110
19, 17662, Note_on_c, 0, 23, 0
19, 17664, Note_on_c, 0, 33, 110
19, 17824, Note_on_c, 0, 33, 0
19, 17952, Note_on_c, 0, 33, 110
19, 18046, Note_on_c, 0, 33, 0
19, 18048, Note_on_c, 0, 26, 110
19, 18208, Note_on_c, 0, 26, 0
19, 18336, Note_on_c, 0, 26, 110
19, 18430, Note_on_c, 0, 26, 0
19, 18432, Note_on_c, 0, 28, 110
19, 18592, Note_on_c, 0, 28, 0
19, 18720, Note_on_c, 0, 28, 110
19, 18814, Note_on_c, 0, 28, 0
19, 18816, Note_on_c, 0, 23, 110
19, 18976, Note_on_c, 0, 23, 0
19, 19104, Note_on_c, 0, 23, 110
19, 19198, Note_on_c, 0, 23, 0
19, 19200, Note_on_c, 0, 28, 110
19, 19360, Note_on_c, 0, 28, 0
19, 19488, Note_on_c, 0, 28, 110
19, 19582, Note_on_c, 0, 28, 0
19, 19584, Note_on_c, 0, 23, 110
19, 19744, Note_on_c, 0, 23, 0
19, 19872, Note_on_c, 0, 23, 110
19, 19966, Note_on_c, 0, 23, 0
19, 19968, Note_on_c, 0, 28, 110
19, 20224, Note_on_c, 0, 28, 0
19, 20256, Note_on_c, 0, 28, 110
19, 20350, Note_on_c, 0, 28, 0
19, 20352, Note_on_c, 0, 31, 110
19, 20446, Note_on_c, 0, 31, 0
19, 20448, Note_on_c, 0, 33, 110
19, 20638, Note_on_c, 0, 33, 0
19, 20640, Note_on_c, 0, 26, 110
19, 20896, Note_on_c, 0, 26, 0
19, 21024, Note_on_c, 0, 26, 110
19, 21118, Note_on_c, 0, 26, 0
19, 21120, Note_on_c, 0, 31, 110
19, 21214, Note_on_c, 0, 31, 0
19, 21216, Note_on_c, 0, 30, 110
19, 21406, Note_on_c, 0, 30, 0
19, 21408, Note_on_c, 0, 28, 110
19, 21760, Note_on_c, 0, 28, 0
19, 21792, Note_on_c, 0, 28, 110
19, 21886, Note_on_c, 0, 28, 0
19, 21888, Note_on_c, 0, 31, 110
19, 21982, Note_on_c, 0, 31, 0
19, 21984, Note_on_c, 0, 33, 110
19, 22174, Note_on_c, 0, 33, 0
19, 22176, Note_on_c, 0, 28, 110
19, 22528, Note_on_c, 0, 28, 0
19, 22560, Note_on_c, 0, 23, 110
19, 22654, Note_on_c, 0, 23, 0
19, 22656, Note_on_c, 0, 28, 110
19, 22912, Note_on_c, 0, 28, 0
19, 22944, Note_on_c, 0, 23, 110
19, 23038, Note_on_c, 0, 23, 0
19, 23040, Note_on_c, 0, 28, 110
19, 23296, Note_on_c, 0, 28, 0
19, 23328, Note_on_c, 0, 28, 110
19, 23422, Note_on_c, 0, 28, 0
19, 23424, Note_on_c, 0, 31, 110
19, 23518, Note_on_c, 0, 31, 0
19, 23520, Note_on_c, 0, 33, 110
19, 23710, Note_on_c, 0, 33, 0
19, 23712, Note_on_c, 0, 26, 110
19, 23968, Note_on_c, 0, 26, 0
19, 24096, Note_on_c, 0, 26, 110
19, 24190, Note_on_c, 0, 26, 0
19, 24192, Note_on_c, 0, 31, 110
19, 24286, Note_on_c, 0, 31, 0
19, 24288, Note_on_c, 0, 30, 110
19, 24478, Note_on_c, 0, 30, 0
19, 24480, Note_on_c, 0, 28, 110
19, 24832, Note_on_c, 0, 28, 0
19, 24864, Note_on_c, 0, 28, 110
19, 24958, Note_on_c, 0, 28, 0
19, 24960, Note_on_c, 0, 31, 110
19, 25054, Note_on_c, 0, 31, 0
19, 25056, Note_on_c, 0, 33, 110
19, 25246, Note_on_c, 0, 33, 0
19, 25248, Note_on_c, 0, 28, 110
19, 25600, Note_on_c, 0, 28, 0
19, 25632, Note_on_c, 0, 23, 110
19, 25726, Note_on_c, 0, 23, 0
19, 25728, Note_on_c, 0, 28, 110
19, 25984, Note_on_c, 0, 28, 0
19, 26016, Note_on_c, 0, 23, 110
19, 26110, Note_on_c, 0, 23, 0
19, 26112, Note_on_c, 0, 28, 110
19, 26368, Note_on_c, 0, 28, 0
19, 26400, Note_on_c, 0, 28, 110
19, 26494, Note_on_c, 0, 28, 0
19, 26496, Note_on_c, 0, 23, 110
19, 26752, Note_on_c, 0, 23, 0
19, 26784, Note_on_c, 0, 23, 110
19, 26878, Note_on_c, 0, 23, 0
19, 26880, Note_on_c, 0, 33, 110
19, 27040, Note_on_c, 0, 33, 0
19, 27168, Note_on_c, 0, 33, 110
19, 27262, Note_on_c, 0, 33, 0
19, 27264, Note_on_c, 0, 26, 110
19, 27424, Note_on_c, 0, 26, 0
19, 27552, Note_on_c, 0, 26, 110
19, 27646, Note_on_c, 0, 26, 0
19, 27648, Note_on_c, 0, 28, 110
19, 27808, Note_on_c, 0, 28, 0
19, 27936, Note_on_c, 0, 28, 110
19, 28030, Note_on_c, 0, 28, 0
19, 28032, Note_on_c, 0, 23, 110
19, 28192, Note_on_c, 0, 23, 0
19, 28320, Note_on_c, 0, 23, 110
19, 28414, Note_on_c, 0, 23, 0
19, 28416, Note_on_c, 0, 28, 110
19, 28576, Note_on_c, 0, 28, 0
19, 28704, Note_on_c, 0, 28, 110
19, 28798, Note_on_c, 0, 28, 0
19, 28800, Note_on_c, 0, 23, 110
19, 28960, Note_on_c, 0, 23, 0
19, 29088, Note_on_c, 0, 23, 110
19, 29182, Note_on_c, 0, 23, 0
19, 29184, Note_on_c, 0, 28, 110
19, 29344, Note_on_c, 0, 28, 0
19, 29472, Note_on_c, 0, 28, 110
19, 29566, Note_on_c, 0, 28, 0
19, 29568, Note_on_c, 0, 23, 110
19, 29728, Note_on_c, 0, 23, 0
19, 29856, Note_on_c, 0, 23, 110
19, 29950, Note_on_c, 0, 23, 0
19, 29952, Note_on_c, 0, 33, 110
19, 30112, Note_on_c, 0, 33, 0
19, 30240, Note_on_c, 0, 33, 110
19, 30334, Note_on_c, 0, 33, 0
19, 30336, Note_on_c, 0, 26, 110
19, 30496, Note_on_c, 0, 26, 0
19, 30624, Note_on_c, 0, 26, 110
19, 30718, Note_on_c, 0, 26, 0
19, 30720, Note_on_c, 0, 28, 110
19, 30880, Note_on_c, 0, 28, 0
19, 31008, Note_on_c, 0, 28, 110
19, 31102, Note_on_c, 0, 28, 0
19, 31104, Note_on_c, 0, 23, 110
19, 31264, Note_on_c, 0, 23, 0
19, 31392, Note_on_c, 0, 23, 110
19, 31486, Note_on_c, 0, 23, 0
19, 31488, Note_on_c, 0, 28, 110
19, 31648, Note_on_c, 0, 28, 0
19, 31776, Note_on_c, 0, 28, 110
19, 31870, Note_on_c, 0, 28, 0
19, 31872, Note_on_c, 0, 23, 110
19, 32032, Note_on_c, 0, 23, 0
19, 32064, Note_on_c, 0, 26, 110
19, 32224, Note_on_c, 0, 26, 0
19, 32256, Note_on_c, 0, 31, 110
19, 32512, Note_on_c, 0, 31, 0
19, 32544, Note_on_c, 0, 31, 110
19, 32638, Note_on_c, 0, 31, 0
19, 32640, Note_on_c, 0, 29, 110
19, 32734, Note_on_c, 0, 29, 0
19, 32736, Note_on_c, 0, 28, 110
19, 32926, Note_on_c, 0, 28, 0
19, 32928, Note_on_c, 0, 26, 110
19, 33502, Note_on_c, 0, 26, 0
19, 33504, Note_on_c, 0, 28, 110
19, 33760, Note_on_c, 0, 28, 0
19, 33792, Note_on_c, 0, 31, 110
19, 34048, Note_on_c, 0, 31, 0
19, 34080, Note_on_c, 0, 21, 110
19, 34270, Note_on_c, 0, 21, 0
19, 34272, Note_on_c, 0, 23, 110
19, 34462, Note_on_c, 0, 23, 0
19, 34464, Note_on_c, 0, 24, 110
19, 35280, Note_on_c, 0, 24, 0
19, 35328, Note_on_c, 0, 28, 110
19, 35584, Note_on_c, 0, 28, 0
19, 35616, Note_on_c, 0, 28, 110
19, 35710, Note_on_c, 0, 28, 0
19, 35712, Note_on_c, 0, 23, 110
19, 35968, Note_on_c, 0, 23, 0
19, 36000, Note_on_c, 0, 23, 110
19, 36094, Note_on_c, 0, 23, 0
19, 36096, Note_on_c, 0, 33, 110
19, 36256, Note_on_c, 0, 33, 0
19, 36384, Note_on_c, 0, 33, 110
19, 36478, Note_on_c, 0, 33, 0
19, 36480, Note_on_c, 0, 26, 110
19, 36640, Note_on_c, 0, 26, 0
19, 36768, Note_on_c, 0, 26, 110
19, 36862, Note_on_c, 0, 26, 0
19, 36864, Note_on_c, 0, 28, 110
19, 37024, Note_on_c, 0, 28, 0
19, 37152, Note_on_c, 0, 28, 110
19, 37246, Note_on_c, 0, 28, 0
19, 37248, Note_on_c, 0, 23, 110
19, 37408, Note_on_c, 0, 23, 0
19, 37536, Note_on_c, 0, 23, 110
19, 37630, Note_on_c, 0, 23, 0
19, 37632, Note_on_c, 0, 28, 110
19, 37792, Note_on_c, 0, 28, 0
19, 37920, Note_on_c, 0, 28, 110
19, 38014, Note_on_c, 0, 28, 0
19, 38016, Note_on_c, 0, 23, 110
19, 38176, Note_on_c, 0, 23, 0
19, 38304, Note_on_c, 0, 23, 110
19, 38398, Note_on_c, 0, 23, 0
19, 38400, Note_on_c, 0, 28, 110
19, 38656, Note_on_c, 0, 28, 0
19, 38688, Note_on_c, 0, 28, 110
19, 38782, Note_on_c, 0, 28, 0
19, 38784, Note_on_c, 0, 31, 110
19, 38878, Note_on_c, 0, 31, 0
19, 38880, Note_on_c, 0, 33, 110
19, 39070, Note_on_c, 0, 33, 0
19, 39072, Note_on_c, 0, 26, 110
19, 39328, Note_on_c, 0, 26, 0
19, 39456, Note_on_c, 0, 26, 110
19, 39550, Note_on_c, 0, 26, 0
19, 39552, Note_on_c, 0, 31, 110
19, 39646, Note_on_c, 0, 31, 0
19, 39648, Note_on_c, 0, 30, 110
19, 39838, Note_on_c, 0, 30, 0
19, 39840, Note_on_c, 0, 28, 110
19, 40192, Note_on_c, 0, 28, 0
19, 40224, Note_on_c, 0, 28, 110
19, 40318, Note_on_c, 0, 28, 0
19, 40320, Note_on_c, 0, 31, 110
19, 40414, Note_on_c, 0, 31, 0
19, 40416, Note_on_c, 0, 33, 110
19, 40606, Note_on_c, 0, 33, 0
19, 40608, Note_on_c, 0, 28, 110
19, 40960, Note_on_c, 0, 28, 0
19, 40992, Note_on_c, 0, 23, 110
19, 41086, Note_on_c, 0, 23, 0
19, 41088, Note_on_c, 0, 28, 110
19, 41344, Note_on_c, 0, 28, 0
19, 41376, Note_on_c, 0, 23, 110
19, 41470, Note_on_c, 0, 23, 0
19, 41472, Note_on_c, 0, 28, 110
19, 41728, Note_on_c, 0, 28, 0
19, 41760, Note_on_c, 0, 28, 110
19, 41854, Note_on_c, 0, 28, 0
19, 41856, Note_on_c, 0, 31, 110
19, 41950, Note_on_c, 0, 31, 0
19, 41952, Note_on_c, 0, 33, 110
19, 42142, Note_on_c, 0, 33, 0
19, 42144, Note_on_c, 0, 26, 110
19, 42400, Note_on_c, 0, 26, 0
19, 42528, Note_on_c, 0, 26, 110
19, 42622, Note_on_c, 0, 26, 0
19, 42624, Note_on_c, 0, 31, 110
19, 42718, Note_on_c, 0, 31, 0
19, 42720, Note_on_c, 0, 30, 110
19, 42910, Note_on_c, 0, 30, 0
19, 42912, Note_on_c, 0, 28, 110
19, 43264, Note_on_c, 0, 28, 0
19, 43296, Note_on_c, 0, 28, 110
19, 43390, Note_on_c, 0, 28, 0
19, 43392, Note_on_c, 0, 31, 110
19, 43486, Note_on_c, 0, 31, 0
19, 43488, Note_on_c, 0, 33, 110
19, 43678, Note_on_c, 0, 33, 0
19, 43680, Note_on_c, 0, 28, 110
19, 44032, Note_on_c, 0, 28, 0
19, 44064, Note_on_c, 0, 23, 110
19, 44158, Note_on_c, 0, 23, 0
19, 44160, Note_on_c, 0, 28, 110
19, 44416, Note_on_c, 0, 28, 0
19, 44448, Note_on_c, 0, 23, 110
19, 44542, Note_on_c, 0, 23, 0
19, 44544, Note_on_c, 0, 31, 110
19, 44800, Note_on_c, 0, 31, 0
19, 44832, Note_on_c, 0, 31, 110
19, 44926, Note_on_c, 0, 31, 0
19, 44928, Note_on_c, 0, 29, 110
19, 45022, Note_on_c, 0, 29, 0
19, 45024, Note_on_c, 0, 28, 110
19, 45214, Note_on_c, 0, 28, 0
19, 45216, Note_on_c, 0, 26, 110
19, 45790, Note_on_c, 0, 26, 0
19, 45792, Note_on_c, 0, 28, 110
19, 46048, Note_on_c, 0, 28, 0
19, 46080, Note_on_c, 0, 31, 110
19, 46336, Note_on_c, 0, 31, 0
19, 46368, Note_on_c, 0, 21, 110
19, 46558, Note_on_c, 0, 21, 0
19, 46560, Note_on_c, 0, 23, 110
19, 46750, Note_on_c, 0, 23, 0
19, 46752, Note_on_c, 0, 24, 110
19, 47568, Note_on_c, 0, 24, 0
19, 47616, Note_on_c, 0, 28, 110
19, 47872, Note_on_c, 0, 28, 0
19, 47904, Note_on_c, 0, 28, 110
19, 47998, Note_on_c, 0, 28, 0
19, 48000, Note_on_c, 0, 23, 110
19, 48256, Note_on_c, 0, 23, 0
19, 48288, Note_on_c, 0, 23, 110
19, 48382, Note_on_c, 0, 23, 0
19, 48384, Note_on_c, 0, 33, 110
19, 48544, Note_on_c, 0, 33, 0
19, 48672, Note_on_c, 0, 33, 110
19, 48766, Note_on_c, 0, 33, 0
19, 48768, Note_on_c, 0, 26, 110
19, 48928, Note_on_c, 0, 26, 0
19, 49056, Note_on_c, 0, 26, 110
19, 49150, Note_on_c, 0, 26, 0
19, 49152, Note_on_c, 0, 28, 110
19, 49312, Note_on_c, 0, 28, 0
19, 49440, Note_on_c, 0, 28, 110
19, 49534, Note_on_c, 0, 28, 0
19, 49536, Note_on_c, 0, 23, 110
19, 49696, Note_on_c, 0, 23, 0
19, 49824, Note_on_c, 0, 23, 110
19, 49918, Note_on_c, 0, 23, 0
19, 49920, Note_on_c, 0, 28, 110
19, 50080, Note_on_c, 0, 28, 0
19, 50208, Note_on_c, 0, 28, 110
19, 50302, Note_on_c, 0, 28, 0
19, 50304, Note_on_c, 0, 23, 110
19, 50464, Note_on_c, 0, 23, 0
19, 50592, Note_on_c, 0, 23, 110
19, 50686, Note_on_c, 0, 23, 0
19, 50688, Note_on_c, 0, 28, 110
19, 50944, Note_on_c, 0, 28, 0
19, 50976, Note_on_c, 0, 28, 110
19, 51070, Note_on_c, 0, 28, 0
19, 51072, Note_on_c, 0, 23, 110
19, 51328, Note_on_c, 0, 23, 0
19, 51360, Note_on_c, 0, 23, 110
19, 51454, Note_on_c, 0, 23, 0
19, 51456, Note_on_c, 0, 33, 110
19, 51616, Note_on_c, 0, 33, 0
19, 51744, Note_on_c, 0, 33, 110
19, 51838, Note_on_c, 0, 33, 0
19, 51840, Note_on_c, 0, 26, 110
19, 52000, Note_on_c, 0, 26, 0
19, 52128, Note_on_c, 0, 26, 110
19, 52222, Note_on_c, 0, 26, 0
19, 52224, Note_on_c, 0, 28, 110
19, 52384, Note_on_c, 0, 28, 0
19, 52512, Note_on_c, 0, 28, 110
19, 52606, Note_on_c, 0, 28, 0
19, 52608, Note_on_c, 0, 23, 110
19, 52768, Note_on_c, 0, 23, 0
19, 52896, Note_on_c, 0, 23, 110
19, 52990, Note_on_c, 0, 23, 0
19, 52992, Note_on_c, 0, 28, 110
19, 53152, Note_on_c, 0, 28, 0
19, 53280, Note_on_c, 0, 28, 110
19, 53374, Note_on_c, 0, 28, 0
19, 53376, Note_on_c, 0, 23, 110
19, 53536, Note_on_c, 0, 23, 0
19, 53664, Note_on_c, 0, 23, 110
19, 53758, Note_on_c, 0, 23, 0
19, 53760, Note_on_c, 0, 28, 110
19, 53920, Note_on_c, 0, 28, 0
19, 54048, Note_on_c, 0, 28, 110
19, 54142, Note_on_c, 0, 28, 0
19, 54144, Note_on_c, 0, 23, 110
19, 54304, Note_on_c, 0, 23, 0
19, 54432, Note_on_c, 0, 23, 110
19, 54526, Note_on_c, 0, 23, 0
19, 54528, Note_on_c, 0, 33, 110
19, 54688, Note_on_c, 0, 33, 0
19, 54816, Note_on_c, 0, 33, 110
19, 54910, Note_on_c, 0, 33, 0
19, 54912, Note_on_c, 0, 26, 110
19, 55072, Note_on_c, 0, 26, 0
19, 55200, Note_on_c, 0, 26, 110
19, 55294, Note_on_c, 0, 26, 0
19, 55296, Note_on_c, 0, 28, 110
19, 55456, Note_on_c, 0, 28, 0
19, 55584, Note_on_c, 0, 28, 110
19, 55678, Note_on_c, 0, 28, 0
19, 55680, Note_on_c, 0, 23, 110
19, 55840, Note_on_c, 0, 23, 0
19, 55968, Note_on_c, 0, 23, 110
19, 56062, Note_on_c, 0, 23, 0
19, 56064, Note_on_c, 0, 28, 110
19, 56224, Note_on_c, 0, 28, 0
19, 56352, Note_on_c, 0, 28, 110
19, 56446, Note_on_c, 0, 28, 0
19, 56448, Note_on_c, 0, 23, 110
19, 56608, Note_on_c, 0, 23, 0
19, 56640, Note_on_c, 0, 26, 110
19, 56800, Note_on_c, 0, 26, 0
19, 56832, Note_on_c, 0, 31, 110
19, 57088, Note_on_c, 0, 31, 0
19, 57120, Note_on_c, 0, 31, 110
19, 57214, Note_on_c, 0, 31, 0
19, 57216, Note_on_c, 0, 29, 110
19, 57310, Note_on_c, 0, 29, 0
19, 57312, Note_on_c, 0, 28, 110
19, 57502, Note_on_c, 0, 28, 0
19, 57504, Note_on_c, 0, 26, 110
19, 58078, Note_on_c, 0, 26, 0
19, 58080, Note_on_c, 0, 28, 110
19, 58336, Note_on_c, 0, 28, 0
19, 58368, Note_on_c, 0, 31, 110
19, 58624, Note_on_c, 0, 31, 0
19, 58656, Note_on_c, 0, 21, 110
19, 58846, Note_on_c, 0, 21, 0
19, 58848, Note_on_c, 0, 23, 110
19, 59038, Note_on_c, 0, 23, 0
19, 59040, Note_on_c, 0, 24, 110
19, 59856, Note_on_c, 0, 24, 0
19, 59904, Note_on_c, 0, 28, 110
19, 60160, Note_on_c, 0, 28, 0
19, 60192, Note_on_c, 0, 28, 110
19, 60286, Note_on_c, 0, 28, 0
19, 60288, Note_on_c, 0, 23, 110
19, 60544, Note_on_c, 0, 23, 0
19, 60576, Note_on_c, 0, 23, 110
19, 60670, Note_on_c, 0, 23, 0
19, 60672, Note_on_c, 0, 33, 110
19, 60832, Note_on_c, 0, 33, 0
19, 60960, Note_on_c, 0, 33, 110
19, 61054, Note_on_c, 0, 33, 0
19, 61056, Note_on_c, 0, 26, 110
19, 61216, Note_on_c, 0, 26, 0
19, 61344, Note_on_c, 0, 26, 110
19, 61438, Note_on_c, 0, 26, 0
19, 61440, Note_on_c, 0, 28, 110
19, 61600, Note_on_c, 0, 28, 0
19, 61728, Note_on_c, 0, 28, 110
19, 61822, Note_on_c, 0, 28, 0
19, 61824, Note_on_c, 0, 23, 110
19, 61984, Note_on_c, 0, 23, 0
19, 62112, Note_on_c, 0, 23, 110
19, 62206, Note_on_c, 0, 23, 0
19, 62208, Note_on_c, 0, 28, 110
19, 62368, Note_on_c, 0, 28, 0
19, 62496, Note_on_c, 0, 28, 110
19, 62590, Note_on_c, 0, 28, 0
19, 62592, Note_on_c, 0, 23, 110
19, 62752, Note_on_c, 0, 23, 0
19, 62880, Note_on_c, 0, 23, 110
19, 62974, Note_on_c, 0, 23, 0
19, 62976, Note_on_c, 0, 28, 110
19, 63232, Note_on_c, 0, 28, 0
19, 63264, Note_on_c, 0, 28, 110
19, 63358, Note_on_c, 0, 28, 0
19, 63360, Note_on_c, 0, 31, 110
19, 63454, Note_on_c, 0, 31, 0
19, 63456, Note_on_c, 0, 33, 110
19, 63646, Note_on_c, 0, 33, 0
19, 63648, Note_on_c, 0, 26, 110
19, 63904, Note_on_c, 0, 26, 0
19, 64032, Note_on_c, 0, 26, 110
19, 64126, Note_on_c, 0, 26, 0
19, 64128, Note_on_c, 0, 31, 110
19, 64222, Note_on_c, 0, 31, 0
19, 64224, Note_on_c, 0, 30, 110
19, 64414, Note_on_c, 0, 30, 0
19, 64416, Note_on_c, 0, 28, 110
19, 64768, Note_on_c, 0, 28, 0
19, 64800, Note_on_c, 0, 28, 110
19, 64894, Note_on_c, 0, 28, 0
19, 64896, Note_on_c, 0, 31, 110
19, 64990, Note_on_c, 0, 31, 0
19, 64992, Note_on_c, 0, 33, 110
19, 65182, Note_on_c, 0, 33, 0
19, 65184, Note_on_c, 0, 28, 110
19, 65536, Note_on_c, 0, 28, 0
19, 65568, Note_on_c, 0, 23, 110
19, 65662, Note_on_c, 0, 23, 0
19, 65664, Note_on_c, 0, 28, 110
19, 65920, Note_on_c, 0, 28, 0
19, 65952, Note_on_c, 0, 23, 110
19, 66046, Note_on_c, 0, 23, 0
19, 66048, Note_on_c, 0, 28, 110
19, 66304, Note_on_c, 0, 28, 0
19, 66336, Note_on_c, 0, 28, 110
19, 66430, Note_on_c, 0, 28, 0
19, 66432, Note_on_c, 0, 31, 110
19, 66526, Note_on_c, 0, 31, 0
19, 66528, Note_on_c, 0, 33, 110
19, 66718, Note_on_c, 0, 33, 0
19, 66720, Note_on_c, 0, 26, 110
19, 66976, Note_on_c, 0, 26, 0
19, 67104, Note_on_c, 0, 26, 110
19, 67198, Note_on_c, 0, 26, 0
19, 67200, Note_on_c, 0, 31, 110
19, 67294, Note_on_c, 0, 31, 0
19, 67296, Note_on_c, 0, 30, 110
19, 67486, Note_on_c, 0, 30, 0
19, 67488, Note_on_c, 0, 28, 110
19, 67840, Note_on_c, 0, 28, 0
19, 67872, Note_on_c, 0, 28, 110
19, 67966, Note_on_c, 0, 28, 0
19, 67968, Note_on_c, 0, 31, 110
19, 68062, Note_on_c, 0, 31, 0
19, 68064, Note_on_c, 0, 33, 110
19, 68254, Note_on_c, 0, 33, 0
19, 68256, Note_on_c, 0, 28, 110
19, 68608, Note_on_c, 0, 28, 0
19, 68640, Note_on_c, 0, 23, 110
19, 68734, Note_on_c, 0, 23, 0
19, 68736, Note_on_c, 0, 28, 110
19, 68992, Note_on_c, 0, 28, 0
19, 69024, Note_on_c, 0, 23, 110
19, 69118, Note_on_c, 0, 23, 0
19, 69120, Note_on_c, 0, 28, 110
19, 69376, Note_on_c, 0, 28, 0
19, 69408, Note_on_c, 0, 28, 110
19, 69502, Note_on_c, 0, 28, 0
19, 69504, Note_on_c, 0, 31, 110
19, 69598, Note_on_c, 0, 31, 0
19, 69600, Note_on_c, 0, 33, 110
19, 69790, Note_on_c, 0, 33, 0
19, 69792, Note_on_c, 0, 26, 110
19, 70048, Note_on_c, 0, 26, 0
19, 70176, Note_on_c, 0, 26, 110
19, 70270, Note_on_c, 0, 26, 0
19, 70272, Note_on_c, 0, 31, 110
19, 70366, Note_on_c, 0, 31, 0
19, 70368, Note_on_c, 0, 30, 110
19, 70558, Note_on_c, 0, 30, 0
19, 70560, Note_on_c, 0, 28, 110
19, 70912, Note_on_c, 0, 28, 0
19, 70944, Note_on_c, 0, 28, 110
19, 71038, Note_on_c, 0, 28, 0
19, 71040, Note_on_c, 0, 31, 110
19, 71134, Note_on_c, 0, 31, 0
19, 71136, Note_on_c, 0, 33, 110
19, 71326, Note_on_c, 0, 33, 0
19, 71328, Note_on_c, 0, 28, 110
19, 71680, Note_on_c, 0, 28, 0
19, 71712, Note_on_c, 0, 23, 110
19, 71806, Note_on_c, 0, 23, 0
19, 71808, Note_on_c, 0, 28, 110
19, 72064, Note_on_c, 0, 28, 0
19, 72096, Note_on_c, 0, 23, 110
19, 72190, Note_on_c, 0, 23, 0
19, 72192, Note_on_c, 0, 28, 110
19, 72448, Note_on_c, 0, 28, 0
19, 72480, Note_on_c, 0, 28, 110
19, 72574, Note_on_c, 0, 28, 0
19, 72576, Note_on_c, 0, 31, 110
19, 72670, Note_on_c, 0, 31, 0
19, 72672, Note_on_c, 0, 33, 110
19, 72862, Note_on_c, 0, 33, 0
19, 72864, Note_on_c, 0, 26, 110
19, 73120, Note_on_c, 0, 26, 0
19, 73248, Note_on_c, 0, 26, 110
19, 73342, Note_on_c, 0, 26, 0
19, 73344, Note_on_c, 0, 31, 110
19, 73438, Note_on_c, 0, 31, 0
19, 73440, Note_on_c, 0, 30, 110
19, 73630, Note_on_c, 0, 30, 0
19, 73632, Note_on_c, 0, 28, 110
19, 73984, Note_on_c, 0, 28, 0
19, 74016, Note_on_c, 0, 28, 110
19, 74110, Note_on_c, 0, 28, 0
19, 74112, Note_on_c, 0, 31, 110
19, 74206, Note_on_c, 0, 31, 0
19, 74208, Note_on_c, 0, 33, 110
19, 74398, Note_on_c, 0, 33, 0
19, 74400, Note_on_c, 0, 28, 110
19, 74752, Note_on_c, 0, 28, 0
19, 74784, Note_on_c, 0, 23, 110
19, 74878, Note_on_c, 0, 23, 0
19, 74880, Note_on_c, 0, 28, 110
19, 75136, Note_on_c, 0, 28, 0
19, 75168, Note_on_c, 0, 23, 110
19, 75262, Note_on_c, 0, 23, 0
19, 75264, Note_on_c, 0, 28, 110
19, 75792, Note_on_c, 0, 28, 0
19, 75840, Note_on_c, 0, 31, 110
19, 76000, Note_on_c, 0, 31, 0
19, 76032, Note_on_c, 0, 33, 110
19, 76192, Note_on_c, 0, 33, 0
19, 76224, Note_on_c, 0, 38, 110
19, 76384, Note_on_c, 0, 38, 0
19, 76416, Note_on_c, 0, 26, 110
19, 76960, Note_on_c, 0, 26, 0
19, 76992, Note_on_c, 0, 27, 110
19, 77520, Note_on_c, 0, 27, 0
19, 77568, Note_on_c, 0, 28, 110
19, 78336, Time_signature, 3, 2, 24, 8
19, 80016, Note_on_c, 0, 28, 0
19, 80016, End_track
20, 0, Start_track
20, 0, MIDI_port, 0
20, 0, Title_t, "Staff-12"
20, 0, Program_c, 3, 54
20, 0, Control_c, 3, 7, 127
20, 0, Control_c, 3, 10, 64
20, 0, Time_signature, 4, 2, 24, 8
20, 7680, Note_on_c, 3, 71, 110
20, 7774, Note_on_c, 3, 71, 0
20, 7776, Note_on_c, 3, 71, 110
20, 7936, Note_on_c, 3, 71, 0
20, 7968, Note_on_c, 3, 71, 110
20, 8128, Note_on_c, 3, 71, 0
20, 8160, Note_on_c, 3, 71, 110
20, 8416, Note_on_c, 3, 71, 0
20, 8448, Note_on_c, 3, 69, 110
20, 8704, Note_on_c, 3, 69, 0
20, 8736, Note_on_c, 3, 66, 110
20, 8830, Note_on_c, 3, 66, 0
20, 8832, Note_on_c, 3, 67, 110
20, 8926, Note_on_c, 3, 67, 0
20, 8928, Note_on_c, 3, 66, 110
20, 9088, Note_on_c, 3, 66, 0
20, 9120, Note_on_c, 3, 64, 110
20, 9936, Note_on_c, 3, 64, 0
20, 10752, Note_on_c, 3, 71, 110
20, 10846, Note_on_c, 3, 71, 0
20, 10848, Note_on_c, 3, 71, 110
20, 11008, Note_on_c, 3, 71, 0
20, 11040, Note_on_c, 3, 71, 110
20, 11200, Note_on_c, 3, 71, 0
20, 11232, Note_on_c, 3, 69, 110
20, 11488, Note_on_c, 3, 69, 0
20, 11520, Note_on_c, 3, 74, 110
20, 11680, Note_on_c, 3, 74, 0
20, 11712, Note_on_c, 3, 74, 110
20, 11806, Note_on_c, 3, 74, 0
20, 11808, Note_on_c, 3, 74, 110
20, 11968, Note_on_c, 3, 74, 0
20, 12000, Note_on_c, 3, 69, 110
20, 12256, Note_on_c, 3, 69, 0
20, 12288, Note_on_c, 3, 71, 110
20, 12448, Note_on_c, 3, 71, 0
20, 12480, Note_on_c, 3, 71, 110
20, 12574, Note_on_c, 3, 71, 0
20, 12576, Note_on_c, 3, 71, 110
20, 13776, Note_on_c, 3, 71, 0
20, 14112, Note_on_c, 3, 67, 110
20, 14206, Note_on_c, 3, 67, 0
20, 14208, Note_on_c, 3, 72, 110
20, 14302, Note_on_c, 3, 72, 0
20, 14304, Note_on_c, 3, 71, 110
20, 14464, Note_on_c, 3, 71, 0
20, 14496, Note_on_c, 3, 69, 110
20, 14686, Note_on_c, 3, 69, 0
20, 15264, Note_on_c, 3, 62, 110
20, 15358, Note_on_c, 3, 62, 0
20, 15360, Note_on_c, 3, 72, 110
20, 15454, Note_on_c, 3, 72, 0
20, 15456, Note_on_c, 3, 72, 110
20, 15616, Note_on_c, 3, 72, 0
20, 15648, Note_on_c, 3, 72, 110
20, 15808, Note_on_c, 3, 72, 0
20, 15840, Note_on_c, 3, 71, 110
20, 16000, Note_on_c, 3, 71, 0
20, 16032, Note_on_c, 3, 67, 110
20, 16848, Note_on_c, 3, 67, 0
20, 16896, Note_on_c, 3, 64, 110
20, 16990, Note_on_c, 3, 64, 0
20, 16992, Note_on_c, 3, 64, 110
20, 17152, Note_on_c, 3, 64, 0
20, 17184, Note_on_c, 3, 67, 110
20, 17344, Note_on_c, 3, 67, 0
20, 17376, Note_on_c, 3, 67, 110
20, 17632, Note_on_c, 3, 67, 0
20, 17664, Note_on_c, 3, 69, 110
20, 17920, Note_on_c, 3, 69, 0
20, 17952, Note_on_c, 3, 66, 110
20, 18046, Note_on_c, 3, 66, 0
20, 18048, Note_on_c, 3, 67, 110
20, 18142, Note_on_c, 3, 67, 0
20, 18144, Note_on_c, 3, 66, 110
20, 18304, Note_on_c, 3, 66, 0
20, 18336, Note_on_c, 3, 64, 110
20, 19152, Note_on_c, 3, 64, 0
20, 19776, Note_on_c, 3, 76, 110
20, 19870, Note_on_c, 3, 76, 0
20, 19872, Note_on_c, 3, 76, 110
20, 20896, Note_on_c, 3, 76, 0
20, 20928, Note_on_c, 3, 74, 110
20, 22432, Note_on_c, 3, 74, 0
20, 22848, Note_on_c, 3, 76, 110
20, 22942, Note_on_c, 3, 76, 0
20, 22944, Note_on_c, 3, 76, 110
20, 23968, Note_on_c, 3, 76, 0
20, 24000, Note_on_c, 3, 74, 110
20, 25504, Note_on_c, 3, 74, 0
20, 26112, Note_on_c, 3, 71, 110
20, 26206, Note_on_c, 3, 71, 0
20, 26208, Note_on_c, 3, 71, 110
20, 26368, Note_on_c, 3, 71, 0
20, 26400, Note_on_c, 3, 71, 110
20, 26560, Note_on_c, 3, 71, 0
20, 26592, Note_on_c, 3, 71, 110
20, 26848, Note_on_c, 3, 71, 0
20, 26880, Note_on_c, 3, 69, 110
20, 27136, Note_on_c, 3, 69, 0
20, 27168, Note_on_c, 3, 66, 110
20, 27262, Note_on_c, 3, 66, 0
20, 27264, Note_on_c, 3, 67, 110
20, 27358, Note_on_c, 3, 67, 0
20, 27360, Note_on_c, 3, 66, 110
20, 27520, Note_on_c, 3, 66, 0
20, 27552, Note_on_c, 3, 64, 110
20, 28368, Note_on_c, 3, 64, 0
20, 29184, Note_on_c, 3, 71, 110
20, 29278, Note_on_c, 3, 71, 0
20, 29280, Note_on_c, 3, 71, 110
20, 29440, Note_on_c, 3, 71, 0
20, 29472, Note_on_c, 3, 71, 110
20, 29632, Note_on_c, 3, 71, 0
20, 29664, Note_on_c, 3, 69, 110
20, 29920, Note_on_c, 3, 69, 0
20, 29952, Note_on_c, 3, 74, 110
20, 30112, Note_on_c, 3, 74, 0
20, 30144, Note_on_c, 3, 74, 110
20, 30238, Note_on_c, 3, 74, 0
20, 30240, Note_on_c, 3, 74, 110
20, 30400, Note_on_c, 3, 74, 0
20, 30432, Note_on_c, 3, 69, 110
20, 30688, Note_on_c, 3, 69, 0
20, 30720, Note_on_c, 3, 71, 110
20, 30880, Note_on_c, 3, 71, 0
20, 30912, Note_on_c, 3, 71, 110
20, 31006, Note_on_c, 3, 71, 0
20, 31008, Note_on_c, 3, 71, 110
20, 32208, Note_on_c, 3, 71, 0
20, 32544, Note_on_c, 3, 67, 110
20, 32638, Note_on_c, 3, 67, 0
20, 32640, Note_on_c, 3, 72, 110
20, 32734, Note_on_c, 3, 72, 0
20, 32736, Note_on_c, 3, 71, 110
20, 32896, Note_on_c, 3, 71, 0
20, 32928, Note_on_c, 3, 69, 110
20, 33118, Note_on_c, 3, 69, 0
20, 33696, Note_on_c, 3, 62, 110
20, 33790, Note_on_c, 3, 62, 0
20, 33792, Note_on_c, 3, 72, 110
20, 33886, Note_on_c, 3, 72, 0
20, 33888, Note_on_c, 3, 72, 110
20, 34048, Note_on_c, 3, 72, 0
20, 34080, Note_on_c, 3, 72, 110
20, 34240, Note_on_c, 3, 72, 0
20, 34272, Note_on_c, 3, 71, 110
20, 34432, Note_on_c, 3, 71, 0
20, 34464, Note_on_c, 3, 67, 110
20, 35280, Note_on_c, 3, 67, 0
20, 35328, Note_on_c, 3, 64, 110
20, 35422, Note_on_c, 3, 64, 0
20, 35424, Note_on_c, 3, 64, 110
20, 35584, Note_on_c, 3, 64, 0
20, 35616, Note_on_c, 3, 67, 110
20, 35776, Note_on_c, 3, 67, 0
20, 35808, Note_on_c, 3, 67, 110
20, 36064, Note_on_c, 3, 67, 0
20, 36096, Note_on_c, 3, 69, 110
20, 36352, Note_on_c, 3, 69, 0
20, 36384, Note_on_c, 3, 66, 110
20, 36478, Note_on_c, 3, 66, 0
20, 36480, Note_on_c, 3, 67, 110
20, 36574, Note_on_c, 3, 67, 0
20, 36576, Note_on_c, 3, 66, 110
20, 36736, Note_on_c, 3, 66, 0
20, 36768, Note_on_c, 3, 64, 110
20, 37584, Note_on_c, 3, 64, 0
20, 38208, Note_on_c, 3, 76, 110
20, 38302, Note_on_c, 3, 76, 0
20, 38304, Note_on_c, 3, 76, 110
20, 39328, Note_on_c, 3, 76, 0
20, 39360, Note_on_c, 3, 74, 110
20, 40864, Note_on_c, 3, 74, 0
20, 41088, Note_on_c, 3, 76, 110
20, 41182, Note_on_c, 3, 76, 0
20, 41184, Note_on_c, 3, 76, 110
20, 42400, Note_on_c, 3, 76, 0
20, 42432, Note_on_c, 3, 74, 110
20, 43936, Note_on_c, 3, 74, 0
20, 50688, Note_on_c, 3, 71, 110
20, 50782, Note_on_c, 3, 71, 0
20, 50784, Note_on_c, 3, 71, 110
20, 50944, Note_on_c, 3, 71, 0
20, 50976, Note_on_c, 3, 71, 110
20, 51136, Note_on_c, 3, 71, 0
20, 51168, Note_on_c, 3, 71, 110
20, 51424, Note_on_c, 3, 71, 0
20, 51456, Note_on_c, 3, 69, 110
20, 51712, Note_on_c, 3, 69, 0
20, 51744, Note_on_c, 3, 66, 110
20, 51838, Note_on_c, 3, 66, 0
20, 51840, Note_on_c, 3, 67, 110
20, 51934, Note_on_c, 3, 67, 0
20, 51936, Note_on_c, 3, 66, 110
20, 52096, Note_on_c, 3, 66, 0
20, 52128, Note_on_c, 3, 64, 110
20, 52944, Note_on_c, 3, 64, 0
20, 53760, Note_on_c, 3, 71, 110
20, 53854, Note_on_c, 3, 71, 0
20, 53856, Note_on_c, 3, 71, 110
20, 54016, Note_on_c, 3, 71, 0
20, 54048, Note_on_c, 3, 71, 110
20, 54208, Note_on_c, 3, 71, 0
20, 54240, Note_on_c, 3, 69, 110
20, 54496, Note_on_c, 3, 69, 0
20, 54528, Note_on_c, 3, 74, 110
20, 54688, Note_on_c, 3, 74, 0
20, 54720, Note_on_c, 3, 74, 110
20, 54814, Note_on_c, 3, 74, 0
20, 54816, Note_on_c, 3, 74, 110
20, 54976, Note_on_c, 3, 74, 0
20, 55008, Note_on_c, 3, 69, 110
20, 55264, Note_on_c, 3, 69, 0
20, 55296, Note_on_c, 3, 71, 110
20, 55456, Note_on_c, 3, 71, 0
20, 55872, Note_on_c, 3, 71, 110
20, 55966, Note_on_c, 3, 71, 0
20, 55968, Note_on_c, 3, 71, 110
20, 56784, Note_on_c, 3, 71, 0
20, 57120, Note_on_c, 3, 67, 110
20, 57214, Note_on_c, 3, 67, 0
20, 57216, Note_on_c, 3, 72, 110
20, 57310, Note_on_c, 3, 72, 0
20, 57312, Note_on_c, 3, 71, 110
20, 57472, Note_on_c, 3, 71, 0
20, 57504, Note_on_c, 3, 69, 110
20, 57694, Note_on_c, 3, 69, 0
20, 58272, Note_on_c, 3, 62, 110
20, 58366, Note_on_c, 3, 62, 0
20, 58368, Note_on_c, 3, 76, 110
20, 58462, Note_on_c, 3, 76, 0
20, 58464, Note_on_c, 3, 76, 110
20, 58624, Note_on_c, 3, 76, 0
20, 58656, Note_on_c, 3, 76, 110
20, 58816, Note_on_c, 3, 76, 0
20, 58848, Note_on_c, 3, 74, 110
20, 59008, Note_on_c, 3, 74, 0
20, 59040, Note_on_c, 3, 72, 110
20, 59856, Note_on_c, 3, 72, 0
20, 59904, Note_on_c, 3, 64, 110
20, 59998, Note_on_c, 3, 64, 0
20, 60000, Note_on_c, 3, 64, 110
20, 60160, Note_on_c, 3, 64, 0
20, 60192, Note_on_c, 3, 67, 110
20, 60352, Note_on_c, 3, 67, 0
20, 60384, Note_on_c, 3, 64, 110
20, 60640, Note_on_c, 3, 64, 0
20, 60672, Note_on_c, 3, 69, 110
20, 60928, Note_on_c, 3, 69, 0
20, 60960, Note_on_c, 3, 66, 110
20, 61054, Note_on_c, 3, 66, 0
20, 61056, Note_on_c, 3, 67, 110
20, 61150, Note_on_c, 3, 67, 0
20, 61152, Note_on_c, 3, 66, 110
20, 61312, Note_on_c, 3, 66, 0
20, 61344, Note_on_c, 3, 64, 110
20, 62160, Note_on_c, 3, 64, 0
20, 62592, Note_on_c, 3, 76, 110
20, 62686, Note_on_c, 3, 76, 0
20, 62688, Note_on_c, 3, 76, 110
20, 63904, Note_on_c, 3, 76, 0
20, 63936, Note_on_c, 3, 74, 110
20, 65440, Note_on_c, 3, 74, 0
20, 65856, Note_on_c, 3, 76, 110
20, 65950, Note_on_c, 3, 76, 0
20, 65952, Note_on_c, 3, 76, 110
20, 66976, Note_on_c, 3, 76, 0
20, 67008, Note_on_c, 3, 74, 110
20, 68512, Note_on_c, 3, 74, 0
20, 68928, Note_on_c, 3, 76, 110
20, 69022, Note_on_c, 3, 76, 0
20, 69024, Note_on_c, 3, 76, 110
20, 70048, Note_on_c, 3, 76, 0
20, 70080, Note_on_c, 3, 74, 110
20, 71584, Note_on_c, 3, 74, 0
20, 72000, Note_on_c, 3, 76, 110
20, 72094, Note_on_c, 3, 76, 0
20, 72096, Note_on_c, 3, 76, 110
20, 73120, Note_on_c, 3, 76, 0
20, 73152, Note_on_c, 3, 74, 110
20, 75600, Note_on_c, 3, 74, 0
20, 78336, Time_signature, 3, 2, 24, 8
20, 78336, End_track
0, 0, End_of_file
