0, 0, Header, 1, 8, 960
1, 0, Start_track
1, 0, Control_c, 0, 101, 0
1, 0, Control_c, 0, 100, 0
1, 0, Control_c, 0, 6, 12
1, 0, Control_c, 0, 38, 0
1, 0, Control_c, 1, 101, 0
1, 0, Control_c, 1, 100, 0
1, 0, Control_c, 1, 6, 12
1, 0, Control_c, 1, 38, 0
1, 0, Control_c, 2, 101, 0
1, 0, Control_c, 2, 100, 0
1, 0, Control_c, 2, 6, 12
1, 0, Control_c, 2, 38, 0
1, 0, Control_c, 3, 101, 0
1, 0, Control_c, 3, 100, 0
1, 0, Control_c, 3, 6, 12
1, 0, Control_c, 3, 38, 0
1, 0, Control_c, 4, 101, 0
1, 0, Control_c, 4, 100, 0
1, 0, Control_c, 4, 6, 12
1, 0, Control_c, 4, 38, 0
1, 0, Control_c, 5, 101, 0
1, 0, Control_c, 5, 100, 0
1, 0, Control_c, 5, 6, 12
1, 0, Control_c, 5, 38, 0
1, 0, Control_c, 6, 101, 0
1, 0, Control_c, 6, 100, 0
1, 0, Control_c, 6, 6, 12
1, 0, Control_c, 6, 38, 0
1, 0, Control_c, 7, 101, 0
1, 0, Control_c, 7, 100, 0
1, 0, Control_c, 7, 6, 12
1, 0, Control_c, 7, 38, 0
1, 0, Control_c, 8, 101, 0
1, 0, Control_c, 8, 100, 0
1, 0, Control_c, 8, 6, 12
1, 0, Control_c, 8, 38, 0
1, 0, Control_c, 9, 101, 0
1, 0, Control_c, 9, 100, 0
1, 0, Control_c, 9, 6, 12
1, 0, Control_c, 9, 38, 0
1, 0, Control_c, 10, 101, 0
1, 0, Control_c, 10, 100, 0
1, 0, Control_c, 10, 6, 12
1, 0, Control_c, 10, 38, 0
1, 0, Control_c, 11, 101, 0
1, 0, Control_c, 11, 100, 0
1, 0, Control_c, 11, 6, 12
1, 0, Control_c, 11, 38, 0
1, 0, Control_c, 12, 101, 0
1, 0, Control_c, 12, 100, 0
1, 0, Control_c, 12, 6, 12
1, 0, Control_c, 12, 38, 0
1, 0, Control_c, 13, 101, 0
1, 0, Control_c, 13, 100, 0
1, 0, Control_c, 13, 6, 12
1, 0, Control_c, 13, 38, 0
1, 0, Control_c, 14, 101, 0
1, 0, Control_c, 14, 100, 0
1, 0, Control_c, 14, 6, 12
1, 0, Control_c, 14, 38, 0
1, 0, Control_c, 15, 101, 0
1, 0, Control_c, 15, 100, 0
1, 0, Control_c, 15, 6, 12
1, 0, Control_c, 15, 38, 0
1, 0, Time_signature, 4, 2, 24, 8
1, 0, Tempo, 472440
1, 0, End_track
2, 0, Start_track
2, 0, Pitch_bend_c, 6, 8192
2, 0, Control_c, 6, 7, 87
2, 0, Control_c, 6, 10, 15
2, 0, Control_c, 6, 93, 0
2, 0, Control_c, 6, 91, 0
2, 0, Control_c, 6, 95, 0
2, 0, Control_c, 6, 92, 0
2, 0, Control_c, 6, 11, 127
2, 0, Program_c, 6, 26
2, 0, Control_c, 7, 7, 87
2, 0, Control_c, 7, 10, 15
2, 0, Control_c, 7, 93, 0
2, 0, Control_c, 7, 91, 0
2, 0, Control_c, 7, 95, 0
2, 0, Control_c, 7, 92, 0
2, 0, Control_c, 7, 11, 127
2, 0, Program_c, 7, 26
2, 76800, Note_on_c, 6, 47, 95
2, 77760, Note_off_c, 6, 47, 95
2, 77760, Note_on_c, 6, 57, 95
2, 79200, Note_off_c, 6, 57, 95
2, 79200, Note_on_c, 6, 57, 95
2, 80160, Note_off_c, 6, 57, 95
2, 80160, Note_on_c, 6, 59, 95
2, 81120, Note_off_c, 6, 59, 95
2, 81120, Note_on_c, 6, 57, 95
2, 81600, Note_off_c, 6, 57, 95
2, 81600, Note_on_c, 6, 47, 95
2, 82560, Note_off_c, 6, 47, 95
2, 82560, Note_on_c, 6, 64, 95
2, 83040, Note_off_c, 6, 64, 95
2, 83040, Note_on_c, 6, 66, 95
2, 84000, Note_off_c, 6, 66, 95
2, 84000, Note_on_c, 6, 59, 95
2, 85440, Note_off_c, 6, 59, 95
2, 85440, Note_on_c, 6, 47, 95
2, 86880, Note_off_c, 6, 47, 95
2, 86880, Note_on_c, 6, 57, 95
2, 87840, Note_off_c, 6, 57, 95
2, 87840, Note_on_c, 6, 59, 95
2, 88800, Note_off_c, 6, 59, 95
2, 88800, Note_on_c, 6, 57, 95
2, 89280, Note_off_c, 6, 57, 95
2, 89280, Note_on_c, 6, 47, 95
2, 90240, Note_off_c, 6, 47, 95
2, 90240, Note_on_c, 6, 66, 95
2, 90720, Note_off_c, 6, 66, 95
2, 90720, Note_on_c, 6, 64, 95
2, 91200, Note_off_c, 6, 64, 95
2, 91200, Note_on_c, 6, 59, 95
2, 92160, Note_off_c, 6, 59, 95
2, 92160, Note_on_c, 6, 64, 95
2, 92640, Note_off_c, 6, 64, 95
2, 92640, Note_on_c, 6, 66, 95
2, 93120, Note_off_c, 6, 66, 95
2, 93120, Note_on_c, 6, 47, 95
2, 93600, Note_off_c, 6, 47, 95
2, 93600, Note_on_c, 6, 59, 95
2, 94560, Note_off_c, 6, 59, 95
2, 94560, Note_on_c, 6, 57, 95
2, 95040, Note_off_c, 6, 57, 95
2, 95040, Note_on_c, 6, 47, 95
2, 95520, Note_off_c, 6, 47, 95
2, 95520, Note_on_c, 6, 59, 95
2, 96480, Note_off_c, 6, 59, 95
2, 96480, Note_on_c, 6, 57, 95
2, 96960, Note_off_c, 6, 57, 95
2, 96960, Note_on_c, 6, 47, 95
2, 97920, Note_off_c, 6, 47, 95
2, 97920, Note_on_c, 6, 66, 95
2, 98400, Note_off_c, 6, 66, 95
2, 98400, Note_on_c, 6, 64, 95
2, 99360, Note_off_c, 6, 64, 95
2, 99360, Note_on_c, 6, 66, 95
2, 100800, Note_off_c, 6, 66, 95
2, 100800, Note_on_c, 6, 47, 95
2, 102240, Note_off_c, 6, 47, 95
2, 102240, Note_on_c, 6, 57, 95
2, 103200, Note_off_c, 6, 57, 95
2, 103200, Note_on_c, 6, 59, 95
2, 104160, Note_off_c, 6, 59, 95
2, 104160, Note_on_c, 6, 57, 95
2, 105600, Note_off_c, 6, 57, 95
2, 105600, Note_on_c, 6, 64, 95
2, 106080, Note_off_c, 6, 64, 95
2, 106080, Note_on_c, 6, 66, 95
2, 107040, Note_off_c, 6, 66, 95
2, 107040, Note_on_c, 6, 59, 95
2, 107520, Note_off_c, 6, 59, 95
2, 107520, Note_on_c, 6, 47, 95
2, 108480, Note_off_c, 6, 47, 95
2, 108480, Note_on_c, 6, 57, 95
2, 108480, Note_on_c, 6, 50, 95
2, 108480, Note_on_c, 6, 47, 95
2, 109920, Note_off_c, 6, 57, 95
2, 109920, Note_off_c, 6, 50, 95
2, 109920, Note_off_c, 6, 47, 95
2, 109920, Note_on_c, 6, 57, 95
2, 109920, Note_on_c, 6, 50, 95
2, 109920, Note_on_c, 6, 47, 95
2, 110880, Note_off_c, 6, 57, 95
2, 110880, Note_off_c, 6, 50, 95
2, 110880, Note_off_c, 6, 47, 95
2, 110880, Note_on_c, 6, 57, 95
2, 110880, Note_on_c, 6, 50, 95
2, 110880, Note_on_c, 6, 47, 95
2, 112320, Note_off_c, 6, 57, 95
2, 112320, Note_off_c, 6, 50, 95
2, 112320, Note_off_c, 6, 47, 95
2, 112320, Note_on_c, 6, 57, 95
2, 112320, Note_on_c, 6, 50, 95
2, 112320, Note_on_c, 6, 47, 95
2, 113760, Note_off_c, 6, 57, 95
2, 113760, Note_off_c, 6, 50, 95
2, 113760, Note_off_c, 6, 47, 95
2, 113760, Note_on_c, 6, 64, 95
2, 113760, Note_on_c, 6, 59, 95
2, 113760, Note_on_c, 6, 57, 95
2, 113760, Note_on_c, 6, 50, 95
2, 113760, Note_on_c, 6, 47, 95
2, 114720, Note_off_c, 6, 64, 95
2, 114720, Note_off_c, 6, 59, 95
2, 114720, Note_off_c, 6, 57, 95
2, 114720, Note_off_c, 6, 50, 95
2, 114720, Note_off_c, 6, 47, 95
2, 114720, Note_on_c, 6, 66, 95
2, 114720, Note_on_c, 6, 59, 95
2, 114720, Note_on_c, 6, 57, 95
2, 114720, Note_on_c, 6, 50, 95
2, 114720, Note_on_c, 6, 47, 95
2, 116160, Note_off_c, 6, 66, 95
2, 116160, Note_off_c, 6, 59, 95
2, 116160, Note_off_c, 6, 57, 95
2, 116160, Note_off_c, 6, 50, 95
2, 116160, Note_off_c, 6, 47, 95
2, 116160, Note_on_c, 6, 57, 95
2, 116160, Note_on_c, 6, 50, 95
2, 116160, Note_on_c, 6, 47, 95
2, 117600, Note_off_c, 6, 57, 95
2, 117600, Note_off_c, 6, 50, 95
2, 117600, Note_off_c, 6, 47, 95
2, 117600, Note_on_c, 6, 57, 95
2, 117600, Note_on_c, 6, 50, 95
2, 117600, Note_on_c, 6, 47, 95
2, 118560, Note_off_c, 6, 57, 95
2, 118560, Note_off_c, 6, 50, 95
2, 118560, Note_off_c, 6, 47, 95
2, 118560, Note_on_c, 6, 67, 95
2, 118560, Note_on_c, 6, 59, 95
2, 118560, Note_on_c, 6, 57, 95
2, 118560, Note_on_c, 6, 50, 95
2, 118560, Note_on_c, 6, 47, 95
2, 119520, Note_off_c, 6, 67, 95
2, 119520, Note_off_c, 6, 59, 95
2, 119520, Note_off_c, 6, 57, 95
2, 119520, Note_off_c, 6, 50, 95
2, 119520, Note_off_c, 6, 47, 95
2, 119520, Note_on_c, 6, 59, 95
2, 119520, Note_on_c, 6, 57, 95
2, 119520, Note_on_c, 6, 50, 95
2, 119520, Note_on_c, 6, 47, 95
2, 120000, Note_off_c, 6, 59, 95
2, 120000, Note_off_c, 6, 57, 95
2, 120000, Note_off_c, 6, 50, 95
2, 120000, Note_off_c, 6, 47, 95
2, 120000, Note_on_c, 6, 47, 95
2, 120480, Note_off_c, 6, 47, 95
2, 120480, Note_on_c, 6, 66, 95
2, 120480, Note_on_c, 6, 59, 95
2, 120480, Note_on_c, 6, 57, 95
2, 120480, Note_on_c, 6, 50, 95
2, 120480, Note_on_c, 6, 47, 95
2, 121440, Note_off_c, 6, 66, 95
2, 121440, Note_off_c, 6, 59, 95
2, 121440, Note_off_c, 6, 57, 95
2, 121440, Note_off_c, 6, 50, 95
2, 121440, Note_off_c, 6, 47, 95
2, 121440, Note_on_c, 6, 59, 95
2, 121440, Note_on_c, 6, 57, 95
2, 121440, Note_on_c, 6, 50, 95
2, 121440, Note_on_c, 6, 47, 95
2, 121920, Note_off_c, 6, 59, 95
2, 121920, Note_off_c, 6, 57, 95
2, 121920, Note_off_c, 6, 50, 95
2, 121920, Note_off_c, 6, 47, 95
2, 121920, Note_on_c, 6, 47, 95
2, 122400, Note_off_c, 6, 47, 95
2, 122400, Note_on_c, 6, 59, 95
2, 122400, Note_on_c, 6, 57, 95
2, 122400, Note_on_c, 6, 50, 95
2, 122400, Note_on_c, 6, 47, 95
2, 122880, Note_off_c, 6, 59, 95
2, 122880, Note_off_c, 6, 57, 95
2, 122880, Note_off_c, 6, 50, 95
2, 122880, Note_off_c, 6, 47, 95
2, 122880, Note_on_c, 6, 43, 95
2, 123840, Note_off_c, 6, 43, 95
2, 123840, Note_on_c, 6, 59, 95
2, 123840, Note_on_c, 6, 43, 95
2, 125280, Note_off_c, 6, 59, 95
2, 125280, Note_off_c, 6, 43, 95
2, 125280, Note_on_c, 6, 59, 95
2, 125280, Note_on_c, 6, 43, 95
2, 126240, Note_off_c, 6, 59, 95
2, 126240, Note_off_c, 6, 43, 95
2, 126240, Note_on_c, 6, 57, 95
2, 126240, Note_on_c, 6, 42, 95
2, 127200, Note_off_c, 6, 57, 95
2, 127200, Note_off_c, 6, 42, 95
2, 127200, Note_on_c, 6, 57, 95
2, 127200, Note_on_c, 6, 42, 95
2, 128160, Note_off_c, 6, 57, 95
2, 128160, Note_off_c, 6, 42, 95
2, 128160, Note_on_c, 6, 55, 95
2, 128160, Note_on_c, 6, 40, 95
2, 129120, Note_off_c, 6, 55, 95
2, 129120, Note_off_c, 6, 40, 95
2, 129120, Note_on_c, 6, 40, 95
2, 129600, Note_off_c, 6, 40, 95
2, 129600, Note_on_c, 6, 55, 95
2, 129600, Note_on_c, 6, 40, 95
2, 130080, Note_off_c, 6, 55, 95
2, 130080, Note_off_c, 6, 40, 95
2, 130080, Note_on_c, 6, 40, 95
2, 130560, Note_off_c, 6, 40, 95
2, 130560, Note_on_c, 6, 43, 95
2, 131520, Note_off_c, 6, 43, 95
2, 131520, Note_on_c, 6, 59, 95
2, 131520, Note_on_c, 6, 43, 95
2, 132960, Note_off_c, 6, 59, 95
2, 132960, Note_off_c, 6, 43, 95
2, 132960, Note_on_c, 6, 59, 95
2, 132960, Note_on_c, 6, 43, 95
2, 133920, Note_off_c, 6, 59, 95
2, 133920, Note_off_c, 6, 43, 95
2, 133920, Note_on_c, 6, 57, 95
2, 133920, Note_on_c, 6, 42, 95
2, 134880, Note_off_c, 6, 57, 95
2, 134880, Note_off_c, 6, 42, 95
2, 134880, Note_on_c, 6, 57, 95
2, 134880, Note_on_c, 6, 42, 95
2, 135840, Note_off_c, 6, 57, 95
2, 135840, Note_off_c, 6, 42, 95
2, 135840, Note_on_c, 6, 55, 95
2, 135840, Note_on_c, 6, 40, 95
2, 136800, Note_off_c, 6, 55, 95
2, 136800, Note_off_c, 6, 40, 95
2, 136800, Note_on_c, 6, 40, 95
2, 137280, Note_off_c, 6, 40, 95
2, 137280, Note_on_c, 6, 55, 95
2, 137280, Note_on_c, 6, 40, 95
2, 137760, Note_off_c, 6, 55, 95
2, 137760, Note_off_c, 6, 40, 95
2, 137760, Note_on_c, 6, 45, 95
2, 138240, Note_off_c, 6, 45, 95
2, 138240, Note_on_c, 6, 47, 95
2, 139200, Note_off_c, 6, 47, 95
2, 139200, Note_on_c, 6, 57, 95
2, 139200, Note_on_c, 6, 50, 95
2, 139200, Note_on_c, 6, 47, 95
2, 140640, Note_off_c, 6, 57, 95
2, 140640, Note_off_c, 6, 50, 95
2, 140640, Note_off_c, 6, 47, 95
2, 140640, Note_on_c, 6, 57, 95
2, 140640, Note_on_c, 6, 50, 95
2, 140640, Note_on_c, 6, 47, 95
2, 141600, Note_off_c, 6, 57, 95
2, 141600, Note_off_c, 6, 50, 95
2, 141600, Note_off_c, 6, 47, 95
2, 141600, Note_on_c, 6, 57, 95
2, 141600, Note_on_c, 6, 50, 95
2, 141600, Note_on_c, 6, 47, 95
2, 143040, Note_off_c, 6, 57, 95
2, 143040, Note_off_c, 6, 50, 95
2, 143040, Note_off_c, 6, 47, 95
2, 143040, Note_on_c, 6, 57, 95
2, 143040, Note_on_c, 6, 50, 95
2, 143040, Note_on_c, 6, 47, 95
2, 144480, Note_off_c, 6, 57, 95
2, 144480, Note_off_c, 6, 50, 95
2, 144480, Note_off_c, 6, 47, 95
2, 144480, Note_on_c, 6, 64, 95
2, 144480, Note_on_c, 6, 59, 95
2, 144480, Note_on_c, 6, 57, 95
2, 144480, Note_on_c, 6, 50, 95
2, 144480, Note_on_c, 6, 47, 95
2, 145440, Note_off_c, 6, 64, 95
2, 145440, Note_off_c, 6, 59, 95
2, 145440, Note_off_c, 6, 57, 95
2, 145440, Note_off_c, 6, 50, 95
2, 145440, Note_off_c, 6, 47, 95
2, 145440, Note_on_c, 6, 66, 95
2, 145440, Note_on_c, 6, 59, 95
2, 145440, Note_on_c, 6, 57, 95
2, 145440, Note_on_c, 6, 50, 95
2, 145440, Note_on_c, 6, 47, 95
2, 146880, Note_off_c, 6, 66, 95
2, 146880, Note_off_c, 6, 59, 95
2, 146880, Note_off_c, 6, 57, 95
2, 146880, Note_off_c, 6, 50, 95
2, 146880, Note_off_c, 6, 47, 95
2, 146880, Note_on_c, 6, 57, 95
2, 146880, Note_on_c, 6, 50, 95
2, 146880, Note_on_c, 6, 47, 95
2, 148320, Note_off_c, 6, 57, 95
2, 148320, Note_off_c, 6, 50, 95
2, 148320, Note_off_c, 6, 47, 95
2, 148320, Note_on_c, 6, 57, 95
2, 148320, Note_on_c, 6, 50, 95
2, 148320, Note_on_c, 6, 47, 95
2, 149280, Note_off_c, 6, 57, 95
2, 149280, Note_off_c, 6, 50, 95
2, 149280, Note_off_c, 6, 47, 95
2, 149280, Note_on_c, 6, 67, 95
2, 149280, Note_on_c, 6, 59, 95
2, 149280, Note_on_c, 6, 57, 95
2, 149280, Note_on_c, 6, 50, 95
2, 149280, Note_on_c, 6, 47, 95
2, 150240, Note_off_c, 6, 67, 95
2, 150240, Note_off_c, 6, 59, 95
2, 150240, Note_off_c, 6, 57, 95
2, 150240, Note_off_c, 6, 50, 95
2, 150240, Note_off_c, 6, 47, 95
2, 150240, Note_on_c, 6, 59, 95
2, 150240, Note_on_c, 6, 57, 95
2, 150240, Note_on_c, 6, 50, 95
2, 150240, Note_on_c, 6, 47, 95
2, 150720, Note_off_c, 6, 59, 95
2, 150720, Note_off_c, 6, 57, 95
2, 150720, Note_off_c, 6, 50, 95
2, 150720, Note_off_c, 6, 47, 95
2, 150720, Note_on_c, 6, 47, 95
2, 151200, Note_off_c, 6, 47, 95
2, 151200, Note_on_c, 6, 66, 95
2, 151200, Note_on_c, 6, 59, 95
2, 151200, Note_on_c, 6, 57, 95
2, 151200, Note_on_c, 6, 50, 95
2, 151200, Note_on_c, 6, 47, 95
2, 152160, Note_off_c, 6, 66, 95
2, 152160, Note_off_c, 6, 59, 95
2, 152160, Note_off_c, 6, 57, 95
2, 152160, Note_off_c, 6, 50, 95
2, 152160, Note_off_c, 6, 47, 95
2, 152160, Note_on_c, 6, 59, 95
2, 152160, Note_on_c, 6, 57, 95
2, 152160, Note_on_c, 6, 50, 95
2, 152160, Note_on_c, 6, 47, 95
2, 152640, Note_off_c, 6, 59, 95
2, 152640, Note_off_c, 6, 57, 95
2, 152640, Note_off_c, 6, 50, 95
2, 152640, Note_off_c, 6, 47, 95
2, 152640, Note_on_c, 6, 47, 95
2, 153120, Note_off_c, 6, 47, 95
2, 153120, Note_on_c, 6, 59, 95
2, 153120, Note_on_c, 6, 57, 95
2, 153120, Note_on_c, 6, 50, 95
2, 153120, Note_on_c, 6, 47, 95
2, 153600, Note_off_c, 6, 59, 95
2, 153600, Note_off_c, 6, 57, 95
2, 153600, Note_off_c, 6, 50, 95
2, 153600, Note_off_c, 6, 47, 95
2, 153600, Note_on_c, 6, 43, 95
2, 154560, Note_off_c, 6, 43, 95
2, 154560, Note_on_c, 6, 59, 95
2, 154560, Note_on_c, 6, 43, 95
2, 156000, Note_off_c, 6, 59, 95
2, 156000, Note_off_c, 6, 43, 95
2, 156000, Note_on_c, 6, 59, 95
2, 156000, Note_on_c, 6, 43, 95
2, 156960, Note_off_c, 6, 59, 95
2, 156960, Note_off_c, 6, 43, 95
2, 156960, Note_on_c, 6, 57, 95
2, 156960, Note_on_c, 6, 42, 95
2, 157920, Note_off_c, 6, 57, 95
2, 157920, Note_off_c, 6, 42, 95
2, 157920, Note_on_c, 6, 57, 95
2, 157920, Note_on_c, 6, 42, 95
2, 158880, Note_off_c, 6, 57, 95
2, 158880, Note_off_c, 6, 42, 95
2, 158880, Note_on_c, 6, 55, 95
2, 158880, Note_on_c, 6, 40, 95
2, 159840, Note_off_c, 6, 55, 95
2, 159840, Note_off_c, 6, 40, 95
2, 159840, Note_on_c, 6, 40, 95
2, 160320, Note_off_c, 6, 40, 95
2, 160320, Note_on_c, 6, 55, 95
2, 160320, Note_on_c, 6, 40, 95
2, 160800, Note_off_c, 6, 55, 95
2, 160800, Note_off_c, 6, 40, 95
2, 160800, Note_on_c, 6, 40, 95
2, 161280, Note_off_c, 6, 40, 95
2, 161280, Note_on_c, 6, 43, 95
2, 162240, Note_off_c, 6, 43, 95
2, 162240, Note_on_c, 6, 59, 95
2, 162240, Note_on_c, 6, 43, 95
2, 163680, Note_off_c, 6, 59, 95
2, 163680, Note_off_c, 6, 43, 95
2, 163680, Note_on_c, 6, 59, 95
2, 163680, Note_on_c, 6, 43, 95
2, 164640, Note_off_c, 6, 59, 95
2, 164640, Note_off_c, 6, 43, 95
2, 164640, Note_on_c, 6, 57, 95
2, 164640, Note_on_c, 6, 42, 95
2, 165600, Note_off_c, 6, 57, 95
2, 165600, Note_off_c, 6, 42, 95
2, 165600, Note_on_c, 6, 57, 95
2, 165600, Note_on_c, 6, 42, 95
2, 166560, Note_off_c, 6, 57, 95
2, 166560, Note_off_c, 6, 42, 95
2, 166560, Note_on_c, 6, 55, 95
2, 166560, Note_on_c, 6, 40, 95
2, 167520, Note_off_c, 6, 55, 95
2, 167520, Note_off_c, 6, 40, 95
2, 167520, Note_on_c, 6, 40, 95
2, 168000, Note_off_c, 6, 40, 95
2, 168000, Note_on_c, 6, 55, 95
2, 168000, Note_on_c, 6, 40, 95
2, 168480, Note_off_c, 6, 55, 95
2, 168480, Note_off_c, 6, 40, 95
2, 168480, Note_on_c, 6, 45, 95
2, 168960, Note_off_c, 6, 45, 95
2, 168960, Note_on_c, 6, 45, 95
2, 169920, Note_off_c, 6, 45, 95
2, 169920, Note_on_c, 6, 61, 95
2, 169920, Note_on_c, 6, 45, 95
2, 171360, Note_off_c, 6, 61, 95
2, 171360, Note_off_c, 6, 45, 95
2, 171360, Note_on_c, 6, 61, 95
2, 171360, Note_on_c, 6, 45, 95
2, 172320, Note_off_c, 6, 61, 95
2, 172320, Note_off_c, 6, 45, 95
2, 172320, Note_on_c, 6, 61, 95
2, 172320, Note_on_c, 6, 45, 95
2, 173760, Note_off_c, 6, 61, 95
2, 173760, Note_off_c, 6, 45, 95
2, 173760, Note_on_c, 6, 61, 95
2, 173760, Note_on_c, 6, 45, 95
2, 175200, Note_off_c, 6, 61, 95
2, 175200, Note_off_c, 6, 45, 95
2, 175200, Note_on_c, 6, 61, 95
2, 175200, Note_on_c, 6, 45, 95
2, 176160, Note_off_c, 6, 61, 95
2, 176160, Note_off_c, 6, 45, 95
2, 176160, Note_on_c, 6, 45, 95
2, 176640, Note_off_c, 6, 45, 95
2, 176640, Note_on_c, 6, 42, 95
2, 177600, Note_off_c, 6, 42, 95
2, 177600, Note_on_c, 6, 61, 95
2, 177600, Note_on_c, 6, 42, 95
2, 179040, Note_off_c, 6, 61, 95
2, 179040, Note_off_c, 6, 42, 95
2, 179040, Note_on_c, 6, 61, 95
2, 179040, Note_on_c, 6, 42, 95
2, 179520, Note_off_c, 6, 61, 95
2, 179520, Note_off_c, 6, 42, 95
2, 180000, Note_on_c, 6, 62, 95
2, 180000, Note_on_c, 6, 42, 95
2, 181440, Note_off_c, 6, 62, 95
2, 181440, Note_off_c, 6, 42, 95
2, 181440, Note_on_c, 6, 62, 95
2, 181440, Note_on_c, 6, 42, 95
2, 182880, Note_off_c, 6, 62, 95
2, 182880, Note_off_c, 6, 42, 95
2, 182880, Note_on_c, 6, 62, 95
2, 182880, Note_on_c, 6, 42, 95
2, 183840, Note_off_c, 6, 62, 95
2, 183840, Note_off_c, 6, 42, 95
2, 183840, Note_on_c, 6, 50, 95
2, 184320, Note_off_c, 6, 50, 95
2, 184320, Note_on_c, 6, 43, 95
2, 185280, Note_off_c, 6, 43, 95
2, 185280, Note_on_c, 6, 59, 95
2, 185280, Note_on_c, 6, 43, 95
2, 186720, Note_off_c, 6, 59, 95
2, 186720, Note_off_c, 6, 43, 95
2, 186720, Note_on_c, 6, 59, 95
2, 186720, Note_on_c, 6, 43, 95
2, 187680, Note_off_c, 6, 59, 95
2, 187680, Note_off_c, 6, 43, 95
2, 187680, Note_on_c, 6, 57, 95
2, 187680, Note_on_c, 6, 42, 95
2, 188640, Note_off_c, 6, 57, 95
2, 188640, Note_off_c, 6, 42, 95
2, 188640, Note_on_c, 6, 57, 95
2, 188640, Note_on_c, 6, 42, 95
2, 189600, Note_off_c, 6, 57, 95
2, 189600, Note_off_c, 6, 42, 95
2, 189600, Note_on_c, 6, 55, 95
2, 189600, Note_on_c, 6, 40, 95
2, 190560, Note_off_c, 6, 55, 95
2, 190560, Note_off_c, 6, 40, 95
2, 190560, Note_on_c, 6, 40, 95
2, 191040, Note_off_c, 6, 40, 95
2, 191040, Note_on_c, 6, 55, 95
2, 191040, Note_on_c, 6, 40, 95
2, 191520, Note_off_c, 6, 55, 95
2, 191520, Note_off_c, 6, 40, 95
2, 191520, Note_on_c, 6, 40, 95
2, 192000, Note_off_c, 6, 40, 95
2, 192000, Note_on_c, 6, 43, 95
2, 192960, Note_off_c, 6, 43, 95
2, 192960, Note_on_c, 6, 59, 95
2, 192960, Note_on_c, 6, 43, 95
2, 194400, Note_off_c, 6, 59, 95
2, 194400, Note_off_c, 6, 43, 95
2, 194400, Note_on_c, 6, 59, 95
2, 194400, Note_on_c, 6, 43, 95
2, 195360, Note_off_c, 6, 59, 95
2, 195360, Note_off_c, 6, 43, 95
2, 195360, Note_on_c, 6, 57, 95
2, 195360, Note_on_c, 6, 42, 95
2, 196320, Note_off_c, 6, 57, 95
2, 196320, Note_off_c, 6, 42, 95
2, 196320, Note_on_c, 6, 57, 95
2, 196320, Note_on_c, 6, 42, 95
2, 197280, Note_off_c, 6, 57, 95
2, 197280, Note_off_c, 6, 42, 95
2, 197280, Note_on_c, 6, 55, 95
2, 197280, Note_on_c, 6, 40, 95
2, 198240, Note_off_c, 6, 55, 95
2, 198240, Note_off_c, 6, 40, 95
2, 198240, Note_on_c, 6, 40, 95
2, 198720, Note_off_c, 6, 40, 95
2, 198720, Note_on_c, 6, 55, 95
2, 198720, Note_on_c, 6, 40, 95
2, 199200, Note_off_c, 6, 55, 95
2, 199200, Note_off_c, 6, 40, 95
2, 199200, Note_on_c, 6, 40, 95
2, 199680, Note_off_c, 6, 40, 95
2, 199680, Note_on_c, 6, 45, 95
2, 200640, Note_off_c, 6, 45, 95
2, 200640, Note_on_c, 6, 61, 95
2, 200640, Note_on_c, 6, 45, 95
2, 202080, Note_off_c, 6, 61, 95
2, 202080, Note_off_c, 6, 45, 95
2, 202080, Note_on_c, 6, 61, 95
2, 202080, Note_on_c, 6, 45, 95
2, 203040, Note_off_c, 6, 61, 95
2, 203040, Note_off_c, 6, 45, 95
2, 203040, Note_on_c, 6, 61, 95
2, 203040, Note_on_c, 6, 45, 95
2, 204480, Note_off_c, 6, 61, 95
2, 204480, Note_off_c, 6, 45, 95
2, 204480, Note_on_c, 6, 61, 95
2, 204480, Note_on_c, 6, 45, 95
2, 205920, Note_off_c, 6, 61, 95
2, 205920, Note_off_c, 6, 45, 95
2, 205920, Note_on_c, 6, 61, 95
2, 205920, Note_on_c, 6, 45, 95
2, 206880, Note_off_c, 6, 61, 95
2, 206880, Note_off_c, 6, 45, 95
2, 206880, Note_on_c, 6, 45, 95
2, 207360, Note_off_c, 6, 45, 95
2, 207360, Note_on_c, 6, 42, 95
2, 208320, Note_off_c, 6, 42, 95
2, 208320, Note_on_c, 6, 61, 95
2, 208320, Note_on_c, 6, 42, 95
2, 209760, Note_off_c, 6, 61, 95
2, 209760, Note_off_c, 6, 42, 95
2, 209760, Note_on_c, 6, 61, 95
2, 209760, Note_on_c, 6, 42, 95
2, 210240, Note_off_c, 6, 61, 95
2, 210240, Note_off_c, 6, 42, 95
2, 210720, Note_on_c, 6, 62, 95
2, 210720, Note_on_c, 6, 42, 95
2, 212160, Note_off_c, 6, 62, 95
2, 212160, Note_off_c, 6, 42, 95
2, 212160, Note_on_c, 6, 62, 95
2, 212160, Note_on_c, 6, 42, 95
2, 213600, Note_off_c, 6, 62, 95
2, 213600, Note_off_c, 6, 42, 95
2, 213600, Note_on_c, 6, 62, 95
2, 213600, Note_on_c, 6, 42, 95
2, 214560, Note_off_c, 6, 62, 95
2, 214560, Note_off_c, 6, 42, 95
2, 214560, Note_on_c, 6, 50, 95
2, 215040, Note_off_c, 6, 50, 95
2, 215040, Note_on_c, 6, 43, 95
2, 216000, Note_off_c, 6, 43, 95
2, 216000, Note_on_c, 6, 59, 95
2, 216000, Note_on_c, 6, 43, 95
2, 217440, Note_off_c, 6, 59, 95
2, 217440, Note_off_c, 6, 43, 95
2, 217440, Note_on_c, 6, 59, 95
2, 217440, Note_on_c, 6, 43, 95
2, 218400, Note_off_c, 6, 59, 95
2, 218400, Note_off_c, 6, 43, 95
2, 218400, Note_on_c, 6, 57, 95
2, 218400, Note_on_c, 6, 42, 95
2, 219360, Note_off_c, 6, 57, 95
2, 219360, Note_off_c, 6, 42, 95
2, 219360, Note_on_c, 6, 57, 95
2, 219360, Note_on_c, 6, 42, 95
2, 220320, Note_off_c, 6, 57, 95
2, 220320, Note_off_c, 6, 42, 95
2, 220320, Note_on_c, 6, 55, 95
2, 220320, Note_on_c, 6, 40, 95
2, 221280, Note_off_c, 6, 55, 95
2, 221280, Note_off_c, 6, 40, 95
2, 221280, Note_on_c, 6, 40, 95
2, 221760, Note_off_c, 6, 40, 95
2, 221760, Note_on_c, 6, 55, 95
2, 221760, Note_on_c, 6, 40, 95
2, 222240, Note_off_c, 6, 55, 95
2, 222240, Note_off_c, 6, 40, 95
2, 222240, Note_on_c, 6, 40, 95
2, 222720, Note_off_c, 6, 40, 95
2, 222720, Note_on_c, 6, 43, 95
2, 223680, Note_off_c, 6, 43, 95
2, 223680, Note_on_c, 6, 59, 95
2, 223680, Note_on_c, 6, 43, 95
2, 225120, Note_off_c, 6, 59, 95
2, 225120, Note_off_c, 6, 43, 95
2, 225120, Note_on_c, 6, 59, 95
2, 225120, Note_on_c, 6, 43, 95
2, 226080, Note_off_c, 6, 59, 95
2, 226080, Note_off_c, 6, 43, 95
2, 226080, Note_on_c, 6, 57, 95
2, 226080, Note_on_c, 6, 42, 95
2, 227040, Note_off_c, 6, 57, 95
2, 227040, Note_off_c, 6, 42, 95
2, 227040, Note_on_c, 6, 57, 95
2, 227040, Note_on_c, 6, 42, 95
2, 228000, Note_off_c, 6, 57, 95
2, 228000, Note_off_c, 6, 42, 95
2, 228000, Note_on_c, 6, 55, 95
2, 228000, Note_on_c, 6, 40, 95
2, 228960, Note_off_c, 6, 55, 95
2, 228960, Note_off_c, 6, 40, 95
2, 228960, Note_on_c, 6, 40, 95
2, 229440, Note_off_c, 6, 40, 95
2, 229440, Note_on_c, 6, 55, 95
2, 229440, Note_on_c, 6, 40, 95
2, 229920, Note_off_c, 6, 55, 95
2, 229920, Note_off_c, 6, 40, 95
2, 229920, Note_on_c, 6, 40, 95
2, 230400, Note_off_c, 6, 40, 95
2, 230400, Note_on_c, 6, 59, 95
2, 230400, Note_on_c, 6, 47, 95
2, 245760, Note_off_c, 6, 59, 95
2, 245760, Note_off_c, 6, 47, 95
2, 245760, Note_on_c, 6, 47, 95
2, 246720, Note_off_c, 6, 47, 95
2, 246720, Note_on_c, 6, 57, 95
2, 246720, Note_on_c, 6, 50, 95
2, 246720, Note_on_c, 6, 47, 95
2, 248160, Note_off_c, 6, 57, 95
2, 248160, Note_off_c, 6, 50, 95
2, 248160, Note_off_c, 6, 47, 95
2, 248160, Note_on_c, 6, 57, 95
2, 248160, Note_on_c, 6, 50, 95
2, 248160, Note_on_c, 6, 47, 95
2, 249120, Note_off_c, 6, 57, 95
2, 249120, Note_off_c, 6, 50, 95
2, 249120, Note_off_c, 6, 47, 95
2, 249120, Note_on_c, 6, 57, 95
2, 249120, Note_on_c, 6, 50, 95
2, 249120, Note_on_c, 6, 47, 95
2, 250560, Note_off_c, 6, 57, 95
2, 250560, Note_off_c, 6, 50, 95
2, 250560, Note_off_c, 6, 47, 95
2, 250560, Note_on_c, 6, 57, 95
2, 250560, Note_on_c, 6, 50, 95
2, 250560, Note_on_c, 6, 47, 95
2, 252000, Note_off_c, 6, 57, 95
2, 252000, Note_off_c, 6, 50, 95
2, 252000, Note_off_c, 6, 47, 95
2, 252000, Note_on_c, 6, 64, 95
2, 252000, Note_on_c, 6, 59, 95
2, 252000, Note_on_c, 6, 57, 95
2, 252000, Note_on_c, 6, 50, 95
2, 252000, Note_on_c, 6, 47, 95
2, 252960, Note_off_c, 6, 64, 95
2, 252960, Note_off_c, 6, 59, 95
2, 252960, Note_off_c, 6, 57, 95
2, 252960, Note_off_c, 6, 50, 95
2, 252960, Note_off_c, 6, 47, 95
2, 252960, Note_on_c, 6, 66, 95
2, 252960, Note_on_c, 6, 59, 95
2, 252960, Note_on_c, 6, 57, 95
2, 252960, Note_on_c, 6, 50, 95
2, 252960, Note_on_c, 6, 47, 95
2, 254400, Note_off_c, 6, 66, 95
2, 254400, Note_off_c, 6, 59, 95
2, 254400, Note_off_c, 6, 57, 95
2, 254400, Note_off_c, 6, 50, 95
2, 254400, Note_off_c, 6, 47, 95
2, 254400, Note_on_c, 6, 57, 95
2, 254400, Note_on_c, 6, 50, 95
2, 254400, Note_on_c, 6, 47, 95
2, 255840, Note_off_c, 6, 57, 95
2, 255840, Note_off_c, 6, 50, 95
2, 255840, Note_off_c, 6, 47, 95
2, 255840, Note_on_c, 6, 57, 95
2, 255840, Note_on_c, 6, 50, 95
2, 255840, Note_on_c, 6, 47, 95
2, 256800, Note_off_c, 6, 57, 95
2, 256800, Note_off_c, 6, 50, 95
2, 256800, Note_off_c, 6, 47, 95
2, 256800, Note_on_c, 6, 67, 95
2, 256800, Note_on_c, 6, 59, 95
2, 256800, Note_on_c, 6, 57, 95
2, 256800, Note_on_c, 6, 50, 95
2, 256800, Note_on_c, 6, 47, 95
2, 257760, Note_off_c, 6, 67, 95
2, 257760, Note_off_c, 6, 59, 95
2, 257760, Note_off_c, 6, 57, 95
2, 257760, Note_off_c, 6, 50, 95
2, 257760, Note_off_c, 6, 47, 95
2, 257760, Note_on_c, 6, 59, 95
2, 257760, Note_on_c, 6, 57, 95
2, 257760, Note_on_c, 6, 50, 95
2, 257760, Note_on_c, 6, 47, 95
2, 258240, Note_off_c, 6, 59, 95
2, 258240, Note_off_c, 6, 57, 95
2, 258240, Note_off_c, 6, 50, 95
2, 258240, Note_off_c, 6, 47, 95
2, 258240, Note_on_c, 6, 47, 95
2, 258720, Note_off_c, 6, 47, 95
2, 258720, Note_on_c, 6, 66, 95
2, 258720, Note_on_c, 6, 59, 95
2, 258720, Note_on_c, 6, 57, 95
2, 258720, Note_on_c, 6, 50, 95
2, 258720, Note_on_c, 6, 47, 95
2, 259680, Note_off_c, 6, 66, 95
2, 259680, Note_off_c, 6, 59, 95
2, 259680, Note_off_c, 6, 57, 95
2, 259680, Note_off_c, 6, 50, 95
2, 259680, Note_off_c, 6, 47, 95
2, 259680, Note_on_c, 6, 59, 95
2, 259680, Note_on_c, 6, 57, 95
2, 259680, Note_on_c, 6, 50, 95
2, 259680, Note_on_c, 6, 47, 95
2, 260160, Note_off_c, 6, 59, 95
2, 260160, Note_off_c, 6, 57, 95
2, 260160, Note_off_c, 6, 50, 95
2, 260160, Note_off_c, 6, 47, 95
2, 260160, Note_on_c, 6, 47, 95
2, 260640, Note_off_c, 6, 47, 95
2, 260640, Note_on_c, 6, 59, 95
2, 260640, Note_on_c, 6, 57, 95
2, 260640, Note_on_c, 6, 50, 95
2, 260640, Note_on_c, 6, 47, 95
2, 261120, Note_off_c, 6, 59, 95
2, 261120, Note_off_c, 6, 57, 95
2, 261120, Note_off_c, 6, 50, 95
2, 261120, Note_off_c, 6, 47, 95
2, 261120, Note_on_c, 6, 43, 95
2, 262080, Note_off_c, 6, 43, 95
2, 262080, Note_on_c, 6, 59, 95
2, 262080, Note_on_c, 6, 43, 95
2, 263520, Note_off_c, 6, 59, 95
2, 263520, Note_off_c, 6, 43, 95
2, 263520, Note_on_c, 6, 59, 95
2, 263520, Note_on_c, 6, 43, 95
2, 264480, Note_off_c, 6, 59, 95
2, 264480, Note_off_c, 6, 43, 95
2, 264480, Note_on_c, 6, 57, 95
2, 264480, Note_on_c, 6, 42, 95
2, 265440, Note_off_c, 6, 57, 95
2, 265440, Note_off_c, 6, 42, 95
2, 265440, Note_on_c, 6, 57, 95
2, 265440, Note_on_c, 6, 42, 95
2, 266400, Note_off_c, 6, 57, 95
2, 266400, Note_off_c, 6, 42, 95
2, 266400, Note_on_c, 6, 55, 95
2, 266400, Note_on_c, 6, 40, 95
2, 267360, Note_off_c, 6, 55, 95
2, 267360, Note_off_c, 6, 40, 95
2, 267360, Note_on_c, 6, 40, 95
2, 267840, Note_off_c, 6, 40, 95
2, 267840, Note_on_c, 6, 55, 95
2, 267840, Note_on_c, 6, 40, 95
2, 268320, Note_off_c, 6, 55, 95
2, 268320, Note_off_c, 6, 40, 95
2, 268320, Note_on_c, 6, 40, 95
2, 268800, Note_off_c, 6, 40, 95
2, 268800, Note_on_c, 6, 43, 95
2, 269760, Note_off_c, 6, 43, 95
2, 269760, Note_on_c, 6, 59, 95
2, 269760, Note_on_c, 6, 43, 95
2, 271200, Note_off_c, 6, 59, 95
2, 271200, Note_off_c, 6, 43, 95
2, 271200, Note_on_c, 6, 59, 95
2, 271200, Note_on_c, 6, 43, 95
2, 272160, Note_off_c, 6, 59, 95
2, 272160, Note_off_c, 6, 43, 95
2, 272160, Note_on_c, 6, 57, 95
2, 272160, Note_on_c, 6, 42, 95
2, 273120, Note_off_c, 6, 57, 95
2, 273120, Note_off_c, 6, 42, 95
2, 273120, Note_on_c, 6, 57, 95
2, 273120, Note_on_c, 6, 42, 95
2, 274080, Note_off_c, 6, 57, 95
2, 274080, Note_off_c, 6, 42, 95
2, 274080, Note_on_c, 6, 55, 95
2, 274080, Note_on_c, 6, 40, 95
2, 275040, Note_off_c, 6, 55, 95
2, 275040, Note_off_c, 6, 40, 95
2, 275040, Note_on_c, 6, 40, 95
2, 275520, Note_off_c, 6, 40, 95
2, 275520, Note_on_c, 6, 55, 95
2, 275520, Note_on_c, 6, 40, 95
2, 276000, Note_off_c, 6, 55, 95
2, 276000, Note_off_c, 6, 40, 95
2, 276000, Note_on_c, 6, 45, 95
2, 276480, Note_off_c, 6, 45, 95
2, 276480, Note_on_c, 6, 47, 95
2, 277440, Note_off_c, 6, 47, 95
2, 277440, Note_on_c, 6, 57, 95
2, 277440, Note_on_c, 6, 50, 95
2, 277440, Note_on_c, 6, 47, 95
2, 278880, Note_off_c, 6, 57, 95
2, 278880, Note_off_c, 6, 50, 95
2, 278880, Note_off_c, 6, 47, 95
2, 278880, Note_on_c, 6, 57, 95
2, 278880, Note_on_c, 6, 50, 95
2, 278880, Note_on_c, 6, 47, 95
2, 279840, Note_off_c, 6, 57, 95
2, 279840, Note_off_c, 6, 50, 95
2, 279840, Note_off_c, 6, 47, 95
2, 279840, Note_on_c, 6, 57, 95
2, 279840, Note_on_c, 6, 50, 95
2, 279840, Note_on_c, 6, 47, 95
2, 281280, Note_off_c, 6, 57, 95
2, 281280, Note_off_c, 6, 50, 95
2, 281280, Note_off_c, 6, 47, 95
2, 281280, Note_on_c, 6, 57, 95
2, 281280, Note_on_c, 6, 50, 95
2, 281280, Note_on_c, 6, 47, 95
2, 282720, Note_off_c, 6, 57, 95
2, 282720, Note_off_c, 6, 50, 95
2, 282720, Note_off_c, 6, 47, 95
2, 282720, Note_on_c, 6, 64, 95
2, 282720, Note_on_c, 6, 59, 95
2, 282720, Note_on_c, 6, 57, 95
2, 282720, Note_on_c, 6, 50, 95
2, 282720, Note_on_c, 6, 47, 95
2, 283680, Note_off_c, 6, 64, 95
2, 283680, Note_off_c, 6, 59, 95
2, 283680, Note_off_c, 6, 57, 95
2, 283680, Note_off_c, 6, 50, 95
2, 283680, Note_off_c, 6, 47, 95
2, 283680, Note_on_c, 6, 66, 95
2, 283680, Note_on_c, 6, 59, 95
2, 283680, Note_on_c, 6, 57, 95
2, 283680, Note_on_c, 6, 50, 95
2, 283680, Note_on_c, 6, 47, 95
2, 285120, Note_off_c, 6, 66, 95
2, 285120, Note_off_c, 6, 59, 95
2, 285120, Note_off_c, 6, 57, 95
2, 285120, Note_off_c, 6, 50, 95
2, 285120, Note_off_c, 6, 47, 95
2, 285120, Note_on_c, 6, 57, 95
2, 285120, Note_on_c, 6, 50, 95
2, 285120, Note_on_c, 6, 47, 95
2, 286560, Note_off_c, 6, 57, 95
2, 286560, Note_off_c, 6, 50, 95
2, 286560, Note_off_c, 6, 47, 95
2, 286560, Note_on_c, 6, 57, 95
2, 286560, Note_on_c, 6, 50, 95
2, 286560, Note_on_c, 6, 47, 95
2, 287520, Note_off_c, 6, 57, 95
2, 287520, Note_off_c, 6, 50, 95
2, 287520, Note_off_c, 6, 47, 95
2, 287520, Note_on_c, 6, 67, 95
2, 287520, Note_on_c, 6, 59, 95
2, 287520, Note_on_c, 6, 57, 95
2, 287520, Note_on_c, 6, 50, 95
2, 287520, Note_on_c, 6, 47, 95
2, 288480, Note_off_c, 6, 67, 95
2, 288480, Note_off_c, 6, 59, 95
2, 288480, Note_off_c, 6, 57, 95
2, 288480, Note_off_c, 6, 50, 95
2, 288480, Note_off_c, 6, 47, 95
2, 288480, Note_on_c, 6, 59, 95
2, 288480, Note_on_c, 6, 57, 95
2, 288480, Note_on_c, 6, 50, 95
2, 288480, Note_on_c, 6, 47, 95
2, 288960, Note_off_c, 6, 59, 95
2, 288960, Note_off_c, 6, 57, 95
2, 288960, Note_off_c, 6, 50, 95
2, 288960, Note_off_c, 6, 47, 95
2, 288960, Note_on_c, 6, 47, 95
2, 289440, Note_off_c, 6, 47, 95
2, 289440, Note_on_c, 6, 66, 95
2, 289440, Note_on_c, 6, 59, 95
2, 289440, Note_on_c, 6, 57, 95
2, 289440, Note_on_c, 6, 50, 95
2, 289440, Note_on_c, 6, 47, 95
2, 290400, Note_off_c, 6, 66, 95
2, 290400, Note_off_c, 6, 59, 95
2, 290400, Note_off_c, 6, 57, 95
2, 290400, Note_off_c, 6, 50, 95
2, 290400, Note_off_c, 6, 47, 95
2, 290400, Note_on_c, 6, 59, 95
2, 290400, Note_on_c, 6, 57, 95
2, 290400, Note_on_c, 6, 50, 95
2, 290400, Note_on_c, 6, 47, 95
2, 290880, Note_off_c, 6, 59, 95
2, 290880, Note_off_c, 6, 57, 95
2, 290880, Note_off_c, 6, 50, 95
2, 290880, Note_off_c, 6, 47, 95
2, 290880, Note_on_c, 6, 47, 95
2, 291360, Note_off_c, 6, 47, 95
2, 291360, Note_on_c, 6, 59, 95
2, 291360, Note_on_c, 6, 57, 95
2, 291360, Note_on_c, 6, 50, 95
2, 291360, Note_on_c, 6, 47, 95
2, 291840, Note_off_c, 6, 59, 95
2, 291840, Note_off_c, 6, 57, 95
2, 291840, Note_off_c, 6, 50, 95
2, 291840, Note_off_c, 6, 47, 95
2, 291840, Note_on_c, 6, 43, 95
2, 292800, Note_off_c, 6, 43, 95
2, 292800, Note_on_c, 6, 59, 95
2, 292800, Note_on_c, 6, 43, 95
2, 294240, Note_off_c, 6, 59, 95
2, 294240, Note_off_c, 6, 43, 95
2, 294240, Note_on_c, 6, 59, 95
2, 294240, Note_on_c, 6, 43, 95
2, 295200, Note_off_c, 6, 59, 95
2, 295200, Note_off_c, 6, 43, 95
2, 295200, Note_on_c, 6, 57, 95
2, 295200, Note_on_c, 6, 42, 95
2, 296160, Note_off_c, 6, 57, 95
2, 296160, Note_off_c, 6, 42, 95
2, 296160, Note_on_c, 6, 57, 95
2, 296160, Note_on_c, 6, 42, 95
2, 297120, Note_off_c, 6, 57, 95
2, 297120, Note_off_c, 6, 42, 95
2, 297120, Note_on_c, 6, 55, 95
2, 297120, Note_on_c, 6, 40, 95
2, 298080, Note_off_c, 6, 55, 95
2, 298080, Note_off_c, 6, 40, 95
2, 298080, Note_on_c, 6, 40, 95
2, 298560, Note_off_c, 6, 40, 95
2, 298560, Note_on_c, 6, 55, 95
2, 298560, Note_on_c, 6, 40, 95
2, 299040, Note_off_c, 6, 55, 95
2, 299040, Note_off_c, 6, 40, 95
2, 299040, Note_on_c, 6, 40, 95
2, 299520, Note_off_c, 6, 40, 95
2, 299520, Note_on_c, 6, 43, 95
2, 300480, Note_off_c, 6, 43, 95
2, 300480, Note_on_c, 6, 59, 95
2, 300480, Note_on_c, 6, 43, 95
2, 301920, Note_off_c, 6, 59, 95
2, 301920, Note_off_c, 6, 43, 95
2, 301920, Note_on_c, 6, 59, 95
2, 301920, Note_on_c, 6, 43, 95
2, 302880, Note_off_c, 6, 59, 95
2, 302880, Note_off_c, 6, 43, 95
2, 302880, Note_on_c, 6, 57, 95
2, 302880, Note_on_c, 6, 42, 95
2, 303840, Note_off_c, 6, 57, 95
2, 303840, Note_off_c, 6, 42, 95
2, 303840, Note_on_c, 6, 57, 95
2, 303840, Note_on_c, 6, 42, 95
2, 304800, Note_off_c, 6, 57, 95
2, 304800, Note_off_c, 6, 42, 95
2, 304800, Note_on_c, 6, 55, 95
2, 304800, Note_on_c, 6, 40, 95
2, 305760, Note_off_c, 6, 55, 95
2, 305760, Note_off_c, 6, 40, 95
2, 305760, Note_on_c, 6, 40, 95
2, 306240, Note_off_c, 6, 40, 95
2, 306240, Note_on_c, 6, 55, 95
2, 306240, Note_on_c, 6, 40, 95
2, 306720, Note_off_c, 6, 55, 95
2, 306720, Note_off_c, 6, 40, 95
2, 306720, Note_on_c, 6, 45, 95
2, 307200, Note_off_c, 6, 45, 95
2, 307200, Note_on_c, 6, 45, 95
2, 308160, Note_off_c, 6, 45, 95
2, 308160, Note_on_c, 6, 61, 95
2, 308160, Note_on_c, 6, 45, 95
2, 309600, Note_off_c, 6, 61, 95
2, 309600, Note_off_c, 6, 45, 95
2, 309600, Note_on_c, 6, 61, 95
2, 309600, Note_on_c, 6, 45, 95
2, 310560, Note_off_c, 6, 61, 95
2, 310560, Note_off_c, 6, 45, 95
2, 310560, Note_on_c, 6, 61, 95
2, 310560, Note_on_c, 6, 45, 95
2, 312000, Note_off_c, 6, 61, 95
2, 312000, Note_off_c, 6, 45, 95
2, 312000, Note_on_c, 6, 61, 95
2, 312000, Note_on_c, 6, 45, 95
2, 313440, Note_off_c, 6, 61, 95
2, 313440, Note_off_c, 6, 45, 95
2, 313440, Note_on_c, 6, 61, 95
2, 313440, Note_on_c, 6, 45, 95
2, 314400, Note_off_c, 6, 61, 95
2, 314400, Note_off_c, 6, 45, 95
2, 314400, Note_on_c, 6, 45, 95
2, 314880, Note_off_c, 6, 45, 95
2, 314880, Note_on_c, 6, 42, 95
2, 315840, Note_off_c, 6, 42, 95
2, 315840, Note_on_c, 6, 61, 95
2, 315840, Note_on_c, 6, 42, 95
2, 317280, Note_off_c, 6, 61, 95
2, 317280, Note_off_c, 6, 42, 95
2, 317280, Note_on_c, 6, 61, 95
2, 317280, Note_on_c, 6, 42, 95
2, 317760, Note_off_c, 6, 61, 95
2, 317760, Note_off_c, 6, 42, 95
2, 318240, Note_on_c, 6, 62, 95
2, 318240, Note_on_c, 6, 42, 95
2, 319680, Note_off_c, 6, 62, 95
2, 319680, Note_off_c, 6, 42, 95
2, 319680, Note_on_c, 6, 62, 95
2, 319680, Note_on_c, 6, 42, 95
2, 321120, Note_off_c, 6, 62, 95
2, 321120, Note_off_c, 6, 42, 95
2, 321120, Note_on_c, 6, 62, 95
2, 321120, Note_on_c, 6, 42, 95
2, 322080, Note_off_c, 6, 62, 95
2, 322080, Note_off_c, 6, 42, 95
2, 322080, Note_on_c, 6, 50, 95
2, 322560, Note_off_c, 6, 50, 95
2, 322560, Note_on_c, 6, 43, 95
2, 323520, Note_off_c, 6, 43, 95
2, 323520, Note_on_c, 6, 59, 95
2, 323520, Note_on_c, 6, 43, 95
2, 324960, Note_off_c, 6, 59, 95
2, 324960, Note_off_c, 6, 43, 95
2, 324960, Note_on_c, 6, 59, 95
2, 324960, Note_on_c, 6, 43, 95
2, 325920, Note_off_c, 6, 59, 95
2, 325920, Note_off_c, 6, 43, 95
2, 325920, Note_on_c, 6, 57, 95
2, 325920, Note_on_c, 6, 42, 95
2, 326880, Note_off_c, 6, 57, 95
2, 326880, Note_off_c, 6, 42, 95
2, 326880, Note_on_c, 6, 57, 95
2, 326880, Note_on_c, 6, 42, 95
2, 327840, Note_off_c, 6, 57, 95
2, 327840, Note_off_c, 6, 42, 95
2, 327840, Note_on_c, 6, 55, 95
2, 327840, Note_on_c, 6, 40, 95
2, 328800, Note_off_c, 6, 55, 95
2, 328800, Note_off_c, 6, 40, 95
2, 328800, Note_on_c, 6, 40, 95
2, 329280, Note_off_c, 6, 40, 95
2, 329280, Note_on_c, 6, 55, 95
2, 329280, Note_on_c, 6, 40, 95
2, 329760, Note_off_c, 6, 55, 95
2, 329760, Note_off_c, 6, 40, 95
2, 329760, Note_on_c, 6, 40, 95
2, 330240, Note_off_c, 6, 40, 95
2, 330240, Note_on_c, 6, 43, 95
2, 331200, Note_off_c, 6, 43, 95
2, 331200, Note_on_c, 6, 59, 95
2, 331200, Note_on_c, 6, 43, 95
2, 332640, Note_off_c, 6, 59, 95
2, 332640, Note_off_c, 6, 43, 95
2, 332640, Note_on_c, 6, 59, 95
2, 332640, Note_on_c, 6, 43, 95
2, 333600, Note_off_c, 6, 59, 95
2, 333600, Note_off_c, 6, 43, 95
2, 333600, Note_on_c, 6, 57, 95
2, 333600, Note_on_c, 6, 42, 95
2, 334560, Note_off_c, 6, 57, 95
2, 334560, Note_off_c, 6, 42, 95
2, 334560, Note_on_c, 6, 57, 95
2, 334560, Note_on_c, 6, 42, 95
2, 335520, Note_off_c, 6, 57, 95
2, 335520, Note_off_c, 6, 42, 95
2, 335520, Note_on_c, 6, 55, 95
2, 335520, Note_on_c, 6, 40, 95
2, 336480, Note_off_c, 6, 55, 95
2, 336480, Note_off_c, 6, 40, 95
2, 336480, Note_on_c, 6, 40, 95
2, 336960, Note_off_c, 6, 40, 95
2, 336960, Note_on_c, 6, 55, 95
2, 336960, Note_on_c, 6, 40, 95
2, 337440, Note_off_c, 6, 55, 95
2, 337440, Note_off_c, 6, 40, 95
2, 337440, Note_on_c, 6, 40, 95
2, 337920, Note_off_c, 6, 40, 95
2, 337920, Note_on_c, 6, 45, 95
2, 338880, Note_off_c, 6, 45, 95
2, 338880, Note_on_c, 6, 61, 95
2, 338880, Note_on_c, 6, 45, 95
2, 340320, Note_off_c, 6, 61, 95
2, 340320, Note_off_c, 6, 45, 95
2, 340320, Note_on_c, 6, 61, 95
2, 340320, Note_on_c, 6, 45, 95
2, 341280, Note_off_c, 6, 61, 95
2, 341280, Note_off_c, 6, 45, 95
2, 341280, Note_on_c, 6, 61, 95
2, 341280, Note_on_c, 6, 45, 95
2, 342720, Note_off_c, 6, 61, 95
2, 342720, Note_off_c, 6, 45, 95
2, 342720, Note_on_c, 6, 61, 95
2, 342720, Note_on_c, 6, 45, 95
2, 344160, Note_off_c, 6, 61, 95
2, 344160, Note_off_c, 6, 45, 95
2, 344160, Note_on_c, 6, 61, 95
2, 344160, Note_on_c, 6, 45, 95
2, 345120, Note_off_c, 6, 61, 95
2, 345120, Note_off_c, 6, 45, 95
2, 345120, Note_on_c, 6, 45, 95
2, 345600, Note_off_c, 6, 45, 95
2, 345600, Note_on_c, 6, 42, 95
2, 346560, Note_off_c, 6, 42, 95
2, 346560, Note_on_c, 6, 61, 95
2, 346560, Note_on_c, 6, 42, 95
2, 348000, Note_off_c, 6, 61, 95
2, 348000, Note_off_c, 6, 42, 95
2, 348000, Note_on_c, 6, 61, 95
2, 348000, Note_on_c, 6, 42, 95
2, 348480, Note_off_c, 6, 61, 95
2, 348480, Note_off_c, 6, 42, 95
2, 348960, Note_on_c, 6, 62, 95
2, 348960, Note_on_c, 6, 42, 95
2, 350400, Note_off_c, 6, 62, 95
2, 350400, Note_off_c, 6, 42, 95
2, 350400, Note_on_c, 6, 62, 95
2, 350400, Note_on_c, 6, 42, 95
2, 351840, Note_off_c, 6, 62, 95
2, 351840, Note_off_c, 6, 42, 95
2, 351840, Note_on_c, 6, 62, 95
2, 351840, Note_on_c, 6, 42, 95
2, 352800, Note_off_c, 6, 62, 95
2, 352800, Note_off_c, 6, 42, 95
2, 352800, Note_on_c, 6, 50, 95
2, 353280, Note_off_c, 6, 50, 95
2, 353280, Note_on_c, 6, 43, 95
2, 354240, Note_off_c, 6, 43, 95
2, 354240, Note_on_c, 6, 59, 95
2, 354240, Note_on_c, 6, 43, 95
2, 355680, Note_off_c, 6, 59, 95
2, 355680, Note_off_c, 6, 43, 95
2, 355680, Note_on_c, 6, 59, 95
2, 355680, Note_on_c, 6, 43, 95
2, 356640, Note_off_c, 6, 59, 95
2, 356640, Note_off_c, 6, 43, 95
2, 356640, Note_on_c, 6, 57, 95
2, 356640, Note_on_c, 6, 42, 95
2, 357600, Note_off_c, 6, 57, 95
2, 357600, Note_off_c, 6, 42, 95
2, 357600, Note_on_c, 6, 57, 95
2, 357600, Note_on_c, 6, 42, 95
2, 358560, Note_off_c, 6, 57, 95
2, 358560, Note_off_c, 6, 42, 95
2, 358560, Note_on_c, 6, 55, 95
2, 358560, Note_on_c, 6, 40, 95
2, 359520, Note_off_c, 6, 55, 95
2, 359520, Note_off_c, 6, 40, 95
2, 359520, Note_on_c, 6, 40, 95
2, 360000, Note_off_c, 6, 40, 95
2, 360000, Note_on_c, 6, 55, 95
2, 360000, Note_on_c, 6, 40, 95
2, 360480, Note_off_c, 6, 55, 95
2, 360480, Note_off_c, 6, 40, 95
2, 360480, Note_on_c, 6, 40, 95
2, 360960, Note_off_c, 6, 40, 95
2, 360960, Note_on_c, 6, 43, 95
2, 361920, Note_off_c, 6, 43, 95
2, 361920, Note_on_c, 6, 59, 95
2, 361920, Note_on_c, 6, 43, 95
2, 363360, Note_off_c, 6, 59, 95
2, 363360, Note_off_c, 6, 43, 95
2, 363360, Note_on_c, 6, 59, 95
2, 363360, Note_on_c, 6, 43, 95
2, 364320, Note_off_c, 6, 59, 95
2, 364320, Note_off_c, 6, 43, 95
2, 364320, Note_on_c, 6, 57, 95
2, 364320, Note_on_c, 6, 42, 95
2, 365280, Note_off_c, 6, 57, 95
2, 365280, Note_off_c, 6, 42, 95
2, 365280, Note_on_c, 6, 57, 95
2, 365280, Note_on_c, 6, 42, 95
2, 366240, Note_off_c, 6, 57, 95
2, 366240, Note_off_c, 6, 42, 95
2, 366240, Note_on_c, 6, 55, 95
2, 366240, Note_on_c, 6, 40, 95
2, 367200, Note_off_c, 6, 55, 95
2, 367200, Note_off_c, 6, 40, 95
2, 367200, Note_on_c, 6, 40, 95
2, 367680, Note_off_c, 6, 40, 95
2, 367680, Note_on_c, 6, 55, 95
2, 367680, Note_on_c, 6, 40, 95
2, 368160, Note_off_c, 6, 55, 95
2, 368160, Note_off_c, 6, 40, 95
2, 368160, Note_on_c, 6, 40, 95
2, 368640, Note_off_c, 6, 40, 95
2, 368640, Note_on_c, 6, 47, 95
2, 369600, Note_off_c, 6, 47, 95
2, 369600, Note_on_c, 6, 57, 95
2, 369600, Note_on_c, 6, 54, 95
2, 370080, Note_off_c, 6, 57, 95
2, 370080, Note_off_c, 6, 54, 95
2, 370080, Note_on_c, 6, 47, 95
2, 370560, Note_off_c, 6, 47, 95
2, 370560, Note_on_c, 6, 47, 95
2, 371040, Note_off_c, 6, 47, 95
2, 371040, Note_on_c, 6, 57, 95
2, 371040, Note_on_c, 6, 54, 95
2, 372000, Note_off_c, 6, 57, 95
2, 372000, Note_off_c, 6, 54, 95
2, 372000, Note_on_c, 6, 47, 95
2, 373440, Note_off_c, 6, 47, 95
2, 373440, Note_on_c, 6, 57, 95
2, 373440, Note_on_c, 6, 54, 95
2, 373920, Note_off_c, 6, 57, 95
2, 373920, Note_off_c, 6, 54, 95
2, 373920, Note_on_c, 6, 47, 95
2, 374400, Note_off_c, 6, 47, 95
2, 374400, Note_on_c, 6, 57, 95
2, 374400, Note_on_c, 6, 54, 95
2, 374880, Note_off_c, 6, 57, 95
2, 374880, Note_off_c, 6, 54, 95
2, 374880, Note_on_c, 6, 59, 95
2, 374880, Note_on_c, 6, 56, 95
2, 375360, Note_off_c, 6, 59, 95
2, 375360, Note_off_c, 6, 56, 95
2, 375360, Note_on_c, 6, 57, 95
2, 375360, Note_on_c, 6, 54, 95
2, 375840, Note_off_c, 6, 57, 95
2, 375840, Note_off_c, 6, 54, 95
2, 375840, Note_on_c, 6, 47, 95
2, 376320, Note_off_c, 6, 47, 95
2, 376320, Note_on_c, 6, 47, 95
2, 377280, Note_off_c, 6, 47, 95
2, 377280, Note_on_c, 6, 57, 95
2, 377280, Note_on_c, 6, 54, 95
2, 377760, Note_off_c, 6, 57, 95
2, 377760, Note_off_c, 6, 54, 95
2, 377760, Note_on_c, 6, 47, 95
2, 378240, Note_off_c, 6, 47, 95
2, 378240, Note_on_c, 6, 47, 95
2, 378720, Note_off_c, 6, 47, 95
2, 378720, Note_on_c, 6, 57, 95
2, 378720, Note_on_c, 6, 54, 95
2, 379680, Note_off_c, 6, 57, 95
2, 379680, Note_off_c, 6, 54, 95
2, 379680, Note_on_c, 6, 47, 95
2, 381120, Note_off_c, 6, 47, 95
2, 381120, Note_on_c, 6, 57, 95
2, 381120, Note_on_c, 6, 54, 95
2, 381600, Note_off_c, 6, 57, 95
2, 381600, Note_off_c, 6, 54, 95
2, 381600, Note_on_c, 6, 47, 95
2, 382080, Note_off_c, 6, 47, 95
2, 382080, Note_on_c, 6, 47, 95
2, 382560, Note_off_c, 6, 47, 95
2, 382560, Note_on_c, 6, 57, 95
2, 382560, Note_on_c, 6, 54, 95
2, 383520, Note_off_c, 6, 57, 95
2, 383520, Note_off_c, 6, 54, 95
2, 383520, Note_on_c, 7, 47, 95
2, 383640, Pitch_bend_c, 7, 8704
2, 383760, Pitch_bend_c, 7, 9216
2, 383880, Pitch_bend_c, 7, 9728
2, 384000, Pitch_bend_c, 7, 10240
2, 384000, Pitch_bend_c, 7, 8192
2, 384000, Note_off_c, 7, 47, 95
2, 384000, Note_on_c, 6, 50, 95
2, 384960, Note_off_c, 6, 50, 95
2, 384960, Note_on_c, 6, 60, 95
2, 384960, Note_on_c, 6, 57, 95
2, 385440, Note_off_c, 6, 60, 95
2, 385440, Note_off_c, 6, 57, 95
2, 385440, Note_on_c, 6, 50, 95
2, 385920, Note_off_c, 6, 50, 95
2, 385920, Note_on_c, 6, 50, 95
2, 386400, Note_off_c, 6, 50, 95
2, 386400, Note_on_c, 6, 60, 95
2, 386400, Note_on_c, 6, 57, 95
2, 387360, Note_off_c, 6, 60, 95
2, 387360, Note_off_c, 6, 57, 95
2, 387360, Note_on_c, 6, 50, 95
2, 388800, Note_off_c, 6, 50, 95
2, 388800, Note_on_c, 6, 60, 95
2, 388800, Note_on_c, 6, 57, 95
2, 389280, Note_off_c, 6, 60, 95
2, 389280, Note_off_c, 6, 57, 95
2, 389280, Note_on_c, 6, 50, 95
2, 389760, Note_off_c, 6, 50, 95
2, 389760, Note_on_c, 6, 60, 95
2, 389760, Note_on_c, 6, 57, 95
2, 389760, Note_on_c, 6, 50, 95
2, 390240, Note_off_c, 6, 60, 95
2, 390240, Note_off_c, 6, 57, 95
2, 390240, Note_off_c, 6, 50, 95
2, 390240, Note_on_c, 6, 62, 79
2, 390240, Note_on_c, 6, 59, 95
2, 390720, Note_off_c, 6, 62, 79
2, 390720, Note_off_c, 6, 59, 95
2, 390720, Note_on_c, 6, 60, 95
2, 390720, Note_on_c, 6, 57, 95
2, 390720, Note_on_c, 6, 50, 95
2, 391200, Note_off_c, 6, 60, 95
2, 391200, Note_off_c, 6, 57, 95
2, 391200, Note_off_c, 6, 50, 95
2, 391200, Note_on_c, 6, 45, 95
2, 391680, Note_off_c, 6, 45, 95
2, 391680, Note_on_c, 6, 45, 95
2, 392640, Note_off_c, 6, 45, 95
2, 392640, Note_on_c, 6, 55, 95
2, 392640, Note_on_c, 6, 52, 95
2, 393120, Note_off_c, 6, 55, 95
2, 393120, Note_off_c, 6, 52, 95
2, 393120, Note_on_c, 6, 45, 95
2, 394080, Note_off_c, 6, 45, 95
2, 394080, Note_on_c, 6, 55, 95
2, 394080, Note_on_c, 6, 52, 95
2, 395040, Note_off_c, 6, 55, 95
2, 395040, Note_off_c, 6, 52, 95
2, 395040, Note_on_c, 6, 45, 95
2, 396000, Note_off_c, 6, 45, 95
2, 396000, Note_on_c, 6, 55, 95
2, 396000, Note_on_c, 6, 52, 95
2, 396480, Note_off_c, 6, 55, 95
2, 396480, Note_off_c, 6, 52, 95
2, 396480, Note_on_c, 6, 57, 95
2, 396480, Note_on_c, 6, 54, 95
2, 396960, Note_off_c, 6, 57, 95
2, 396960, Note_off_c, 6, 54, 95
2, 396960, Note_on_c, 6, 57, 95
2, 396960, Note_on_c, 6, 54, 95
2, 397440, Note_off_c, 6, 57, 95
2, 397440, Note_off_c, 6, 54, 95
2, 397440, Note_on_c, 6, 57, 95
2, 397440, Note_on_c, 6, 54, 95
2, 397920, Note_off_c, 6, 57, 95
2, 397920, Note_off_c, 6, 54, 95
2, 397920, Note_on_c, 6, 55, 95
2, 397920, Note_on_c, 6, 52, 95
2, 398400, Note_off_c, 6, 55, 95
2, 398400, Note_off_c, 6, 52, 95
2, 398400, Note_on_c, 7, 45, 95
2, 398520, Pitch_bend_c, 7, 7808
2, 398640, Pitch_bend_c, 7, 7424
2, 398760, Pitch_bend_c, 7, 6912
2, 398880, Pitch_bend_c, 7, 6528
2, 399000, Pitch_bend_c, 7, 6016
2, 399120, Pitch_bend_c, 7, 5632
2, 399240, Pitch_bend_c, 7, 5120
2, 399360, Pitch_bend_c, 7, 4736
2, 399360, Pitch_bend_c, 7, 8192
2, 399360, Note_off_c, 7, 45, 95
2, 399360, Note_on_c, 6, 40, 95
2, 400320, Note_off_c, 6, 40, 95
2, 400320, Note_on_c, 6, 59, 95
2, 400320, Note_on_c, 6, 55, 95
2, 400320, Note_on_c, 6, 52, 95
2, 400800, Note_off_c, 6, 59, 95
2, 400800, Note_off_c, 6, 55, 95
2, 400800, Note_off_c, 6, 52, 95
2, 400800, Note_on_c, 6, 40, 95
2, 401280, Note_off_c, 6, 40, 95
2, 401280, Note_on_c, 6, 50, 95
2, 401760, Note_off_c, 6, 50, 95
2, 401760, Note_on_c, 6, 52, 95
2, 402240, Note_off_c, 6, 52, 95
2, 402240, Note_on_c, 6, 59, 95
2, 402240, Note_on_c, 6, 55, 95
2, 402240, Note_on_c, 7, 50, 95
2, 402360, Pitch_bend_c, 7, 8832
2, 402480, Pitch_bend_c, 7, 9600
2, 402600, Pitch_bend_c, 7, 10240
2, 402720, Note_off_c, 6, 59, 95
2, 402720, Note_off_c, 6, 55, 95
2, 402720, Pitch_bend_c, 7, 11008
2, 402720, Pitch_bend_c, 7, 8192
2, 402720, Note_off_c, 7, 50, 95
2, 402720, Note_on_c, 6, 54, 95
2, 403680, Note_off_c, 6, 54, 95
2, 403680, Note_on_c, 6, 40, 95
2, 404160, Note_off_c, 6, 40, 95
2, 404160, Note_on_c, 6, 59, 95
2, 404160, Note_on_c, 6, 55, 95
2, 404160, Note_on_c, 6, 52, 95
2, 404640, Note_off_c, 6, 59, 95
2, 404640, Note_off_c, 6, 55, 95
2, 404640, Note_off_c, 6, 52, 95
2, 404640, Note_on_c, 6, 40, 95
2, 405120, Note_off_c, 6, 40, 95
2, 405120, Note_on_c, 6, 50, 95
2, 405600, Note_off_c, 6, 50, 95
2, 405600, Note_on_c, 6, 52, 95
2, 406080, Note_off_c, 6, 52, 95
2, 406080, Note_on_c, 6, 59, 95
2, 406080, Note_on_c, 6, 55, 95
2, 406080, Note_on_c, 7, 50, 95
2, 406200, Pitch_bend_c, 7, 8832
2, 406320, Pitch_bend_c, 7, 9600
2, 406440, Pitch_bend_c, 7, 10240
2, 406560, Note_off_c, 6, 59, 95
2, 406560, Note_off_c, 6, 55, 95
2, 406560, Pitch_bend_c, 7, 11008
2, 406560, Pitch_bend_c, 7, 8192
2, 406560, Note_off_c, 7, 50, 95
2, 406560, Note_on_c, 6, 54, 95
2, 407520, Note_off_c, 6, 54, 95
2, 407520, Note_on_c, 6, 40, 95
2, 408000, Note_off_c, 6, 40, 95
2, 408000, Note_on_c, 6, 59, 95
2, 408000, Note_on_c, 6, 55, 95
2, 408000, Note_on_c, 6, 52, 95
2, 408480, Note_off_c, 6, 59, 95
2, 408480, Note_off_c, 6, 55, 95
2, 408480, Note_off_c, 6, 52, 95
2, 408480, Note_on_c, 6, 40, 95
2, 408960, Note_off_c, 6, 40, 95
2, 408960, Note_on_c, 6, 50, 95
2, 409440, Note_off_c, 6, 50, 95
2, 409440, Note_on_c, 6, 52, 95
2, 409920, Note_off_c, 6, 52, 95
2, 409920, Note_on_c, 6, 50, 95
2, 410400, Note_off_c, 6, 50, 95
2, 410400, Note_on_c, 6, 45, 95
2, 410880, Note_off_c, 6, 45, 95
2, 410880, Note_on_c, 6, 47, 95
2, 411840, Note_off_c, 6, 47, 95
2, 411840, Note_on_c, 6, 57, 95
2, 411840, Note_on_c, 6, 54, 95
2, 412320, Note_off_c, 6, 57, 95
2, 412320, Note_off_c, 6, 54, 95
2, 412320, Note_on_c, 6, 47, 95
2, 412800, Note_off_c, 6, 47, 95
2, 412800, Note_on_c, 6, 47, 95
2, 413280, Note_off_c, 6, 47, 95
2, 413280, Note_on_c, 6, 57, 95
2, 413280, Note_on_c, 6, 54, 95
2, 414240, Note_off_c, 6, 57, 95
2, 414240, Note_off_c, 6, 54, 95
2, 414240, Note_on_c, 6, 47, 95
2, 415680, Note_off_c, 6, 47, 95
2, 415680, Note_on_c, 6, 57, 95
2, 415680, Note_on_c, 6, 54, 95
2, 416160, Note_off_c, 6, 57, 95
2, 416160, Note_off_c, 6, 54, 95
2, 416160, Note_on_c, 6, 47, 95
2, 416640, Note_off_c, 6, 47, 95
2, 416640, Note_on_c, 6, 57, 95
2, 416640, Note_on_c, 6, 54, 95
2, 417120, Note_off_c, 6, 57, 95
2, 417120, Note_off_c, 6, 54, 95
2, 417120, Note_on_c, 6, 59, 95
2, 417120, Note_on_c, 6, 56, 95
2, 417600, Note_off_c, 6, 59, 95
2, 417600, Note_off_c, 6, 56, 95
2, 417600, Note_on_c, 6, 57, 95
2, 417600, Note_on_c, 6, 54, 95
2, 418080, Note_off_c, 6, 57, 95
2, 418080, Note_off_c, 6, 54, 95
2, 418080, Note_on_c, 6, 47, 95
2, 418560, Note_off_c, 6, 47, 95
2, 418560, Note_on_c, 6, 47, 95
2, 419520, Note_off_c, 6, 47, 95
2, 419520, Note_on_c, 6, 57, 95
2, 419520, Note_on_c, 6, 54, 95
2, 420000, Note_off_c, 6, 57, 95
2, 420000, Note_off_c, 6, 54, 95
2, 420000, Note_on_c, 6, 47, 95
2, 420480, Note_off_c, 6, 47, 95
2, 420480, Note_on_c, 6, 47, 95
2, 420960, Note_off_c, 6, 47, 95
2, 420960, Note_on_c, 6, 57, 95
2, 420960, Note_on_c, 6, 54, 95
2, 421920, Note_off_c, 6, 57, 95
2, 421920, Note_off_c, 6, 54, 95
2, 421920, Note_on_c, 6, 47, 95
2, 423360, Note_off_c, 6, 47, 95
2, 423360, Note_on_c, 6, 57, 95
2, 423360, Note_on_c, 6, 54, 95
2, 423840, Note_off_c, 6, 57, 95
2, 423840, Note_off_c, 6, 54, 95
2, 423840, Note_on_c, 6, 47, 95
2, 424320, Note_off_c, 6, 47, 95
2, 424320, Note_on_c, 6, 47, 95
2, 424800, Note_off_c, 6, 47, 95
2, 424800, Note_on_c, 6, 57, 95
2, 424800, Note_on_c, 6, 54, 95
2, 425760, Note_off_c, 6, 57, 95
2, 425760, Note_off_c, 6, 54, 95
2, 425760, Note_on_c, 7, 47, 95
2, 425880, Pitch_bend_c, 7, 8704
2, 426000, Pitch_bend_c, 7, 9216
2, 426120, Pitch_bend_c, 7, 9728
2, 426240, Pitch_bend_c, 7, 10240
2, 426240, Pitch_bend_c, 7, 8192
2, 426240, Note_off_c, 7, 47, 95
2, 426240, Note_on_c, 6, 50, 95
2, 427200, Note_off_c, 6, 50, 95
2, 427200, Note_on_c, 6, 60, 95
2, 427200, Note_on_c, 6, 57, 95
2, 427680, Note_off_c, 6, 60, 95
2, 427680, Note_off_c, 6, 57, 95
2, 427680, Note_on_c, 6, 50, 95
2, 428160, Note_off_c, 6, 50, 95
2, 428160, Note_on_c, 6, 50, 95
2, 428640, Note_off_c, 6, 50, 95
2, 428640, Note_on_c, 6, 60, 95
2, 428640, Note_on_c, 6, 57, 95
2, 429600, Note_off_c, 6, 60, 95
2, 429600, Note_off_c, 6, 57, 95
2, 429600, Note_on_c, 6, 50, 95
2, 431040, Note_off_c, 6, 50, 95
2, 431040, Note_on_c, 6, 60, 95
2, 431040, Note_on_c, 6, 57, 95
2, 431520, Note_off_c, 6, 60, 95
2, 431520, Note_off_c, 6, 57, 95
2, 431520, Note_on_c, 6, 50, 95
2, 432000, Note_off_c, 6, 50, 95
2, 432000, Note_on_c, 6, 60, 95
2, 432000, Note_on_c, 6, 57, 95
2, 432000, Note_on_c, 6, 50, 95
2, 432480, Note_off_c, 6, 60, 95
2, 432480, Note_off_c, 6, 57, 95
2, 432480, Note_off_c, 6, 50, 95
2, 432480, Note_on_c, 6, 62, 79
2, 432480, Note_on_c, 6, 59, 95
2, 432960, Note_off_c, 6, 62, 79
2, 432960, Note_off_c, 6, 59, 95
2, 432960, Note_on_c, 6, 60, 95
2, 432960, Note_on_c, 6, 57, 95
2, 432960, Note_on_c, 6, 50, 95
2, 433440, Note_off_c, 6, 60, 95
2, 433440, Note_off_c, 6, 57, 95
2, 433440, Note_off_c, 6, 50, 95
2, 433440, Note_on_c, 6, 45, 95
2, 433920, Note_off_c, 6, 45, 95
2, 433920, Note_on_c, 6, 45, 95
2, 434880, Note_off_c, 6, 45, 95
2, 434880, Note_on_c, 6, 55, 95
2, 434880, Note_on_c, 6, 52, 95
2, 435360, Note_off_c, 6, 55, 95
2, 435360, Note_off_c, 6, 52, 95
2, 435360, Note_on_c, 6, 45, 95
2, 436320, Note_off_c, 6, 45, 95
2, 436320, Note_on_c, 6, 55, 95
2, 436320, Note_on_c, 6, 52, 95
2, 437280, Note_off_c, 6, 55, 95
2, 437280, Note_off_c, 6, 52, 95
2, 437280, Note_on_c, 6, 45, 95
2, 438240, Note_off_c, 6, 45, 95
2, 438240, Note_on_c, 6, 55, 95
2, 438240, Note_on_c, 6, 52, 95
2, 438720, Note_off_c, 6, 55, 95
2, 438720, Note_off_c, 6, 52, 95
2, 438720, Note_on_c, 6, 57, 95
2, 438720, Note_on_c, 6, 54, 95
2, 439200, Note_off_c, 6, 57, 95
2, 439200, Note_off_c, 6, 54, 95
2, 439200, Note_on_c, 6, 57, 95
2, 439200, Note_on_c, 6, 54, 95
2, 439680, Note_off_c, 6, 57, 95
2, 439680, Note_off_c, 6, 54, 95
2, 439680, Note_on_c, 6, 57, 95
2, 439680, Note_on_c, 6, 54, 95
2, 440160, Note_off_c, 6, 57, 95
2, 440160, Note_off_c, 6, 54, 95
2, 440160, Note_on_c, 6, 55, 95
2, 440160, Note_on_c, 6, 52, 95
2, 440640, Note_off_c, 6, 55, 95
2, 440640, Note_off_c, 6, 52, 95
2, 440640, Note_on_c, 7, 45, 95
2, 440760, Pitch_bend_c, 7, 7808
2, 440880, Pitch_bend_c, 7, 7424
2, 441000, Pitch_bend_c, 7, 6912
2, 441120, Pitch_bend_c, 7, 6528
2, 441240, Pitch_bend_c, 7, 6016
2, 441360, Pitch_bend_c, 7, 5632
2, 441480, Pitch_bend_c, 7, 5120
2, 441600, Pitch_bend_c, 7, 4736
2, 441600, Pitch_bend_c, 7, 8192
2, 441600, Note_off_c, 7, 45, 95
2, 441600, Note_on_c, 6, 40, 95
2, 442560, Note_off_c, 6, 40, 95
2, 442560, Note_on_c, 6, 59, 95
2, 442560, Note_on_c, 6, 55, 95
2, 442560, Note_on_c, 6, 52, 95
2, 443040, Note_off_c, 6, 59, 95
2, 443040, Note_off_c, 6, 55, 95
2, 443040, Note_off_c, 6, 52, 95
2, 443040, Note_on_c, 6, 40, 95
2, 443520, Note_off_c, 6, 40, 95
2, 443520, Note_on_c, 6, 50, 95
2, 444000, Note_off_c, 6, 50, 95
2, 444000, Note_on_c, 6, 52, 95
2, 444480, Note_off_c, 6, 52, 95
2, 444480, Note_on_c, 6, 59, 95
2, 444480, Note_on_c, 6, 55, 95
2, 444480, Note_on_c, 7, 50, 95
2, 444600, Pitch_bend_c, 7, 8832
2, 444720, Pitch_bend_c, 7, 9600
2, 444840, Pitch_bend_c, 7, 10240
2, 444960, Note_off_c, 6, 59, 95
2, 444960, Note_off_c, 6, 55, 95
2, 444960, Pitch_bend_c, 7, 11008
2, 444960, Pitch_bend_c, 7, 8192
2, 444960, Note_off_c, 7, 50, 95
2, 444960, Note_on_c, 6, 54, 95
2, 445920, Note_off_c, 6, 54, 95
2, 445920, Note_on_c, 6, 40, 95
2, 446400, Note_off_c, 6, 40, 95
2, 446400, Note_on_c, 6, 59, 95
2, 446400, Note_on_c, 6, 55, 95
2, 446400, Note_on_c, 6, 52, 95
2, 446880, Note_off_c, 6, 59, 95
2, 446880, Note_off_c, 6, 55, 95
2, 446880, Note_off_c, 6, 52, 95
2, 446880, Note_on_c, 6, 40, 95
2, 447360, Note_off_c, 6, 40, 95
2, 447360, Note_on_c, 6, 50, 95
2, 447840, Note_off_c, 6, 50, 95
2, 447840, Note_on_c, 6, 52, 95
2, 448320, Note_off_c, 6, 52, 95
2, 448320, Note_on_c, 6, 59, 95
2, 448320, Note_on_c, 6, 55, 95
2, 448320, Note_on_c, 7, 50, 95
2, 448440, Pitch_bend_c, 7, 8832
2, 448560, Pitch_bend_c, 7, 9600
2, 448680, Pitch_bend_c, 7, 10240
2, 448800, Note_off_c, 6, 59, 95
2, 448800, Note_off_c, 6, 55, 95
2, 448800, Pitch_bend_c, 7, 11008
2, 448800, Pitch_bend_c, 7, 8192
2, 448800, Note_off_c, 7, 50, 95
2, 448800, Note_on_c, 6, 54, 95
2, 449760, Note_off_c, 6, 54, 95
2, 449760, Note_on_c, 6, 40, 95
2, 450240, Note_off_c, 6, 40, 95
2, 450240, Note_on_c, 6, 59, 95
2, 450240, Note_on_c, 6, 55, 95
2, 450240, Note_on_c, 6, 52, 95
2, 450720, Note_off_c, 6, 59, 95
2, 450720, Note_off_c, 6, 55, 95
2, 450720, Note_off_c, 6, 52, 95
2, 450720, Note_on_c, 6, 40, 95
2, 451200, Note_off_c, 6, 40, 95
2, 451200, Note_on_c, 6, 50, 95
2, 451680, Note_off_c, 6, 50, 95
2, 451680, Note_on_c, 6, 52, 95
2, 452160, Note_off_c, 6, 52, 95
2, 452160, Note_on_c, 6, 50, 95
2, 452640, Note_off_c, 6, 50, 95
2, 452640, Note_on_c, 6, 45, 95
2, 453120, Note_off_c, 6, 45, 95
2, 453120, Note_on_c, 6, 47, 95
2, 454080, Note_off_c, 6, 47, 95
2, 454080, Note_on_c, 6, 57, 95
2, 454080, Note_on_c, 6, 54, 95
2, 454560, Note_off_c, 6, 57, 95
2, 454560, Note_off_c, 6, 54, 95
2, 454560, Note_on_c, 6, 47, 95
2, 455040, Note_off_c, 6, 47, 95
2, 455040, Note_on_c, 6, 47, 95
2, 455520, Note_off_c, 6, 47, 95
2, 455520, Note_on_c, 6, 57, 95
2, 455520, Note_on_c, 6, 54, 95
2, 456480, Note_off_c, 6, 57, 95
2, 456480, Note_off_c, 6, 54, 95
2, 456480, Note_on_c, 6, 47, 95
2, 457920, Note_off_c, 6, 47, 95
2, 457920, Note_on_c, 6, 57, 95
2, 457920, Note_on_c, 6, 54, 95
2, 458400, Note_off_c, 6, 57, 95
2, 458400, Note_off_c, 6, 54, 95
2, 458400, Note_on_c, 6, 47, 95
2, 458880, Note_off_c, 6, 47, 95
2, 458880, Note_on_c, 6, 57, 95
2, 458880, Note_on_c, 6, 54, 95
2, 459360, Note_off_c, 6, 57, 95
2, 459360, Note_off_c, 6, 54, 95
2, 459360, Note_on_c, 6, 59, 95
2, 459360, Note_on_c, 6, 56, 95
2, 459840, Note_off_c, 6, 59, 95
2, 459840, Note_off_c, 6, 56, 95
2, 459840, Note_on_c, 6, 57, 95
2, 459840, Note_on_c, 6, 54, 95
2, 460320, Note_off_c, 6, 57, 95
2, 460320, Note_off_c, 6, 54, 95
2, 460320, Note_on_c, 6, 47, 95
2, 460800, Note_off_c, 6, 47, 95
2, 460800, Note_on_c, 6, 47, 95
2, 461760, Note_off_c, 6, 47, 95
2, 461760, Note_on_c, 6, 57, 95
2, 461760, Note_on_c, 6, 54, 95
2, 462240, Note_off_c, 6, 57, 95
2, 462240, Note_off_c, 6, 54, 95
2, 462240, Note_on_c, 6, 47, 95
2, 462720, Note_off_c, 6, 47, 95
2, 462720, Note_on_c, 6, 47, 95
2, 463200, Note_off_c, 6, 47, 95
2, 463200, Note_on_c, 6, 57, 95
2, 463200, Note_on_c, 6, 54, 95
2, 464160, Note_off_c, 6, 57, 95
2, 464160, Note_off_c, 6, 54, 95
2, 464160, Note_on_c, 6, 47, 95
2, 465600, Note_off_c, 6, 47, 95
2, 465600, Note_on_c, 6, 57, 95
2, 465600, Note_on_c, 6, 54, 95
2, 466080, Note_off_c, 6, 57, 95
2, 466080, Note_off_c, 6, 54, 95
2, 466080, Note_on_c, 6, 47, 95
2, 466560, Note_off_c, 6, 47, 95
2, 466560, Note_on_c, 6, 47, 95
2, 467040, Note_off_c, 6, 47, 95
2, 467040, Note_on_c, 6, 57, 95
2, 467040, Note_on_c, 6, 54, 95
2, 468000, Note_off_c, 6, 57, 95
2, 468000, Note_off_c, 6, 54, 95
2, 468000, Note_on_c, 7, 47, 95
2, 468120, Pitch_bend_c, 7, 8704
2, 468240, Pitch_bend_c, 7, 9216
2, 468360, Pitch_bend_c, 7, 9728
2, 468480, Pitch_bend_c, 7, 10240
2, 468480, Pitch_bend_c, 7, 8192
2, 468480, Note_off_c, 7, 47, 95
2, 468480, Note_on_c, 6, 50, 95
2, 469440, Note_off_c, 6, 50, 95
2, 469440, Note_on_c, 6, 60, 95
2, 469440, Note_on_c, 6, 57, 95
2, 469920, Note_off_c, 6, 60, 95
2, 469920, Note_off_c, 6, 57, 95
2, 469920, Note_on_c, 6, 50, 95
2, 470400, Note_off_c, 6, 50, 95
2, 470400, Note_on_c, 6, 50, 95
2, 470880, Note_off_c, 6, 50, 95
2, 470880, Note_on_c, 6, 60, 95
2, 470880, Note_on_c, 6, 57, 95
2, 471840, Note_off_c, 6, 60, 95
2, 471840, Note_off_c, 6, 57, 95
2, 471840, Note_on_c, 6, 50, 95
2, 473280, Note_off_c, 6, 50, 95
2, 473280, Note_on_c, 6, 60, 95
2, 473280, Note_on_c, 6, 57, 95
2, 473760, Note_off_c, 6, 60, 95
2, 473760, Note_off_c, 6, 57, 95
2, 473760, Note_on_c, 6, 50, 95
2, 474240, Note_off_c, 6, 50, 95
2, 474240, Note_on_c, 6, 60, 95
2, 474240, Note_on_c, 6, 57, 95
2, 474240, Note_on_c, 6, 50, 95
2, 474720, Note_off_c, 6, 60, 95
2, 474720, Note_off_c, 6, 57, 95
2, 474720, Note_off_c, 6, 50, 95
2, 474720, Note_on_c, 6, 62, 79
2, 474720, Note_on_c, 6, 59, 95
2, 475200, Note_off_c, 6, 62, 79
2, 475200, Note_off_c, 6, 59, 95
2, 475200, Note_on_c, 6, 60, 95
2, 475200, Note_on_c, 6, 57, 95
2, 475200, Note_on_c, 6, 50, 95
2, 475680, Note_off_c, 6, 60, 95
2, 475680, Note_off_c, 6, 57, 95
2, 475680, Note_off_c, 6, 50, 95
2, 475680, Note_on_c, 6, 45, 95
2, 476160, Note_off_c, 6, 45, 95
2, 476160, Note_on_c, 6, 45, 95
2, 477120, Note_off_c, 6, 45, 95
2, 477120, Note_on_c, 6, 55, 95
2, 477120, Note_on_c, 6, 52, 95
2, 477600, Note_off_c, 6, 55, 95
2, 477600, Note_off_c, 6, 52, 95
2, 477600, Note_on_c, 6, 45, 95
2, 478560, Note_off_c, 6, 45, 95
2, 478560, Note_on_c, 6, 55, 95
2, 478560, Note_on_c, 6, 52, 95
2, 479520, Note_off_c, 6, 55, 95
2, 479520, Note_off_c, 6, 52, 95
2, 479520, Note_on_c, 6, 45, 95
2, 480480, Note_off_c, 6, 45, 95
2, 480480, Note_on_c, 6, 55, 95
2, 480480, Note_on_c, 6, 52, 95
2, 480960, Note_off_c, 6, 55, 95
2, 480960, Note_off_c, 6, 52, 95
2, 480960, Note_on_c, 6, 57, 95
2, 480960, Note_on_c, 6, 54, 95
2, 481440, Note_off_c, 6, 57, 95
2, 481440, Note_off_c, 6, 54, 95
2, 481440, Note_on_c, 6, 57, 95
2, 481440, Note_on_c, 6, 54, 95
2, 481920, Note_off_c, 6, 57, 95
2, 481920, Note_off_c, 6, 54, 95
2, 481920, Note_on_c, 6, 57, 95
2, 481920, Note_on_c, 6, 54, 95
2, 482400, Note_off_c, 6, 57, 95
2, 482400, Note_off_c, 6, 54, 95
2, 482400, Note_on_c, 6, 55, 95
2, 482400, Note_on_c, 6, 52, 95
2, 482880, Note_off_c, 6, 55, 95
2, 482880, Note_off_c, 6, 52, 95
2, 482880, Note_on_c, 7, 45, 95
2, 483000, Pitch_bend_c, 7, 7808
2, 483120, Pitch_bend_c, 7, 7424
2, 483240, Pitch_bend_c, 7, 6912
2, 483360, Pitch_bend_c, 7, 6528
2, 483480, Pitch_bend_c, 7, 6016
2, 483600, Pitch_bend_c, 7, 5632
2, 483720, Pitch_bend_c, 7, 5120
2, 483840, Pitch_bend_c, 7, 4736
2, 483840, Pitch_bend_c, 7, 8192
2, 483840, Note_off_c, 7, 45, 95
2, 483840, Note_on_c, 6, 40, 95
2, 484800, Note_off_c, 6, 40, 95
2, 484800, Note_on_c, 6, 59, 95
2, 484800, Note_on_c, 6, 55, 95
2, 484800, Note_on_c, 6, 52, 95
2, 485280, Note_off_c, 6, 59, 95
2, 485280, Note_off_c, 6, 55, 95
2, 485280, Note_off_c, 6, 52, 95
2, 485280, Note_on_c, 6, 40, 95
2, 485760, Note_off_c, 6, 40, 95
2, 485760, Note_on_c, 6, 50, 95
2, 486240, Note_off_c, 6, 50, 95
2, 486240, Note_on_c, 6, 52, 95
2, 486720, Note_off_c, 6, 52, 95
2, 486720, Note_on_c, 6, 59, 95
2, 486720, Note_on_c, 6, 55, 95
2, 486720, Note_on_c, 7, 50, 95
2, 486840, Pitch_bend_c, 7, 8832
2, 486960, Pitch_bend_c, 7, 9600
2, 487080, Pitch_bend_c, 7, 10240
2, 487200, Note_off_c, 6, 59, 95
2, 487200, Note_off_c, 6, 55, 95
2, 487200, Pitch_bend_c, 7, 11008
2, 487200, Pitch_bend_c, 7, 8192
2, 487200, Note_off_c, 7, 50, 95
2, 487200, Note_on_c, 6, 54, 95
2, 488160, Note_off_c, 6, 54, 95
2, 488160, Note_on_c, 6, 40, 95
2, 488640, Note_off_c, 6, 40, 95
2, 488640, Note_on_c, 6, 59, 95
2, 488640, Note_on_c, 6, 55, 95
2, 488640, Note_on_c, 6, 52, 95
2, 489120, Note_off_c, 6, 59, 95
2, 489120, Note_off_c, 6, 55, 95
2, 489120, Note_off_c, 6, 52, 95
2, 489120, Note_on_c, 6, 40, 95
2, 489600, Note_off_c, 6, 40, 95
2, 489600, Note_on_c, 6, 50, 95
2, 490080, Note_off_c, 6, 50, 95
2, 490080, Note_on_c, 6, 52, 95
2, 490560, Note_off_c, 6, 52, 95
2, 490560, Note_on_c, 6, 59, 95
2, 490560, Note_on_c, 6, 55, 95
2, 490560, Note_on_c, 7, 50, 95
2, 490680, Pitch_bend_c, 7, 8832
2, 490800, Pitch_bend_c, 7, 9600
2, 490920, Pitch_bend_c, 7, 10240
2, 491040, Note_off_c, 6, 59, 95
2, 491040, Note_off_c, 6, 55, 95
2, 491040, Pitch_bend_c, 7, 11008
2, 491040, Pitch_bend_c, 7, 8192
2, 491040, Note_off_c, 7, 50, 95
2, 491040, Note_on_c, 6, 54, 95
2, 492000, Note_off_c, 6, 54, 95
2, 492000, Note_on_c, 6, 40, 95
2, 492480, Note_off_c, 6, 40, 95
2, 492480, Note_on_c, 6, 59, 95
2, 492480, Note_on_c, 6, 55, 95
2, 492480, Note_on_c, 6, 52, 95
2, 492960, Note_off_c, 6, 59, 95
2, 492960, Note_off_c, 6, 55, 95
2, 492960, Note_off_c, 6, 52, 95
2, 492960, Note_on_c, 6, 40, 95
2, 493440, Note_off_c, 6, 40, 95
2, 493440, Note_on_c, 6, 50, 95
2, 493920, Note_off_c, 6, 50, 95
2, 493920, Note_on_c, 6, 52, 95
2, 494400, Note_off_c, 6, 52, 95
2, 494400, Note_on_c, 6, 50, 95
2, 494880, Note_off_c, 6, 50, 95
2, 494880, Note_on_c, 6, 45, 95
2, 495360, Note_off_c, 6, 45, 95
2, 495360, Note_on_c, 6, 47, 95
2, 496320, Note_off_c, 6, 47, 95
2, 496320, Note_on_c, 6, 57, 95
2, 496320, Note_on_c, 6, 54, 95
2, 496800, Note_off_c, 6, 57, 95
2, 496800, Note_off_c, 6, 54, 95
2, 496800, Note_on_c, 6, 47, 95
2, 497280, Note_off_c, 6, 47, 95
2, 497280, Note_on_c, 6, 47, 95
2, 497760, Note_off_c, 6, 47, 95
2, 497760, Note_on_c, 6, 57, 95
2, 497760, Note_on_c, 6, 54, 95
2, 498720, Note_off_c, 6, 57, 95
2, 498720, Note_off_c, 6, 54, 95
2, 498720, Note_on_c, 6, 47, 95
2, 500160, Note_off_c, 6, 47, 95
2, 500160, Note_on_c, 6, 57, 95
2, 500160, Note_on_c, 6, 54, 95
2, 500640, Note_off_c, 6, 57, 95
2, 500640, Note_off_c, 6, 54, 95
2, 500640, Note_on_c, 6, 47, 95
2, 501120, Note_off_c, 6, 47, 95
2, 501120, Note_on_c, 6, 57, 95
2, 501120, Note_on_c, 6, 54, 95
2, 501600, Note_off_c, 6, 57, 95
2, 501600, Note_off_c, 6, 54, 95
2, 501600, Note_on_c, 6, 59, 95
2, 501600, Note_on_c, 6, 56, 95
2, 502080, Note_off_c, 6, 59, 95
2, 502080, Note_off_c, 6, 56, 95
2, 502080, Note_on_c, 6, 57, 95
2, 502080, Note_on_c, 6, 54, 95
2, 502560, Note_off_c, 6, 57, 95
2, 502560, Note_off_c, 6, 54, 95
2, 502560, Note_on_c, 6, 47, 95
2, 503040, Note_off_c, 6, 47, 95
2, 503040, Note_on_c, 6, 47, 95
2, 504000, Note_off_c, 6, 47, 95
2, 504000, Note_on_c, 6, 57, 95
2, 504000, Note_on_c, 6, 54, 95
2, 504480, Note_off_c, 6, 57, 95
2, 504480, Note_off_c, 6, 54, 95
2, 504480, Note_on_c, 6, 47, 95
2, 504960, Note_off_c, 6, 47, 95
2, 504960, Note_on_c, 6, 47, 95
2, 505440, Note_off_c, 6, 47, 95
2, 505440, Note_on_c, 6, 57, 95
2, 505440, Note_on_c, 6, 54, 95
2, 506400, Note_off_c, 6, 57, 95
2, 506400, Note_off_c, 6, 54, 95
2, 506400, Note_on_c, 6, 47, 95
2, 507840, Note_off_c, 6, 47, 95
2, 507840, Note_on_c, 6, 57, 95
2, 507840, Note_on_c, 6, 54, 95
2, 508320, Note_off_c, 6, 57, 95
2, 508320, Note_off_c, 6, 54, 95
2, 508320, Note_on_c, 6, 47, 95
2, 508800, Note_off_c, 6, 47, 95
2, 508800, Note_on_c, 6, 47, 95
2, 509280, Note_off_c, 6, 47, 95
2, 509280, Note_on_c, 6, 57, 95
2, 509280, Note_on_c, 6, 54, 95
2, 510240, Note_off_c, 6, 57, 95
2, 510240, Note_off_c, 6, 54, 95
2, 510240, Note_on_c, 7, 47, 95
2, 510360, Pitch_bend_c, 7, 8704
2, 510480, Pitch_bend_c, 7, 9216
2, 510600, Pitch_bend_c, 7, 9728
2, 510720, Pitch_bend_c, 7, 10240
2, 510720, Pitch_bend_c, 7, 8192
2, 510720, Note_off_c, 7, 47, 95
2, 510720, Note_on_c, 6, 50, 95
2, 511680, Note_off_c, 6, 50, 95
2, 511680, Note_on_c, 6, 60, 95
2, 511680, Note_on_c, 6, 57, 95
2, 512160, Note_off_c, 6, 60, 95
2, 512160, Note_off_c, 6, 57, 95
2, 512160, Note_on_c, 6, 50, 95
2, 512640, Note_off_c, 6, 50, 95
2, 512640, Note_on_c, 6, 50, 95
2, 513120, Note_off_c, 6, 50, 95
2, 513120, Note_on_c, 6, 60, 95
2, 513120, Note_on_c, 6, 57, 95
2, 514080, Note_off_c, 6, 60, 95
2, 514080, Note_off_c, 6, 57, 95
2, 514080, Note_on_c, 6, 50, 95
2, 515520, Note_off_c, 6, 50, 95
2, 515520, Note_on_c, 6, 60, 95
2, 515520, Note_on_c, 6, 57, 95
2, 516000, Note_off_c, 6, 60, 95
2, 516000, Note_off_c, 6, 57, 95
2, 516000, Note_on_c, 6, 50, 95
2, 516480, Note_off_c, 6, 50, 95
2, 516480, Note_on_c, 6, 60, 95
2, 516480, Note_on_c, 6, 57, 95
2, 516480, Note_on_c, 6, 50, 95
2, 516960, Note_off_c, 6, 60, 95
2, 516960, Note_off_c, 6, 57, 95
2, 516960, Note_off_c, 6, 50, 95
2, 516960, Note_on_c, 6, 62, 79
2, 516960, Note_on_c, 6, 59, 95
2, 517440, Note_off_c, 6, 62, 79
2, 517440, Note_off_c, 6, 59, 95
2, 517440, Note_on_c, 6, 60, 95
2, 517440, Note_on_c, 6, 57, 95
2, 517440, Note_on_c, 6, 50, 95
2, 517920, Note_off_c, 6, 60, 95
2, 517920, Note_off_c, 6, 57, 95
2, 517920, Note_off_c, 6, 50, 95
2, 517920, Note_on_c, 6, 45, 95
2, 518400, Note_off_c, 6, 45, 95
2, 518400, Note_on_c, 6, 45, 95
2, 519360, Note_off_c, 6, 45, 95
2, 519360, Note_on_c, 6, 55, 95
2, 519360, Note_on_c, 6, 52, 95
2, 519840, Note_off_c, 6, 55, 95
2, 519840, Note_off_c, 6, 52, 95
2, 519840, Note_on_c, 6, 45, 95
2, 520800, Note_off_c, 6, 45, 95
2, 520800, Note_on_c, 6, 55, 95
2, 520800, Note_on_c, 6, 52, 95
2, 521760, Note_off_c, 6, 55, 95
2, 521760, Note_off_c, 6, 52, 95
2, 521760, Note_on_c, 6, 45, 95
2, 522720, Note_off_c, 6, 45, 95
2, 522720, Note_on_c, 6, 55, 95
2, 522720, Note_on_c, 6, 52, 95
2, 523200, Note_off_c, 6, 55, 95
2, 523200, Note_off_c, 6, 52, 95
2, 523200, Note_on_c, 6, 57, 95
2, 523200, Note_on_c, 6, 54, 95
2, 523680, Note_off_c, 6, 57, 95
2, 523680, Note_off_c, 6, 54, 95
2, 523680, Note_on_c, 6, 57, 95
2, 523680, Note_on_c, 6, 54, 95
2, 524160, Note_off_c, 6, 57, 95
2, 524160, Note_off_c, 6, 54, 95
2, 524160, Note_on_c, 6, 57, 95
2, 524160, Note_on_c, 6, 54, 95
2, 524640, Note_off_c, 6, 57, 95
2, 524640, Note_off_c, 6, 54, 95
2, 524640, Note_on_c, 6, 55, 95
2, 524640, Note_on_c, 6, 52, 95
2, 525120, Note_off_c, 6, 55, 95
2, 525120, Note_off_c, 6, 52, 95
2, 525120, Note_on_c, 7, 45, 95
2, 525240, Pitch_bend_c, 7, 7808
2, 525360, Pitch_bend_c, 7, 7424
2, 525480, Pitch_bend_c, 7, 6912
2, 525600, Pitch_bend_c, 7, 6528
2, 525720, Pitch_bend_c, 7, 6016
2, 525840, Pitch_bend_c, 7, 5632
2, 525960, Pitch_bend_c, 7, 5120
2, 526080, Pitch_bend_c, 7, 4736
2, 526080, Pitch_bend_c, 7, 8192
2, 526080, Note_off_c, 7, 45, 95
2, 526080, Note_on_c, 6, 40, 95
2, 527040, Note_off_c, 6, 40, 95
2, 527040, Note_on_c, 6, 59, 95
2, 527040, Note_on_c, 6, 55, 95
2, 527040, Note_on_c, 6, 52, 95
2, 527520, Note_off_c, 6, 59, 95
2, 527520, Note_off_c, 6, 55, 95
2, 527520, Note_off_c, 6, 52, 95
2, 527520, Note_on_c, 6, 40, 95
2, 528000, Note_off_c, 6, 40, 95
2, 528000, Note_on_c, 6, 50, 95
2, 528480, Note_off_c, 6, 50, 95
2, 528480, Note_on_c, 6, 52, 95
2, 528960, Note_off_c, 6, 52, 95
2, 528960, Note_on_c, 6, 59, 95
2, 528960, Note_on_c, 6, 55, 95
2, 528960, Note_on_c, 7, 50, 95
2, 529080, Pitch_bend_c, 7, 8832
2, 529200, Pitch_bend_c, 7, 9600
2, 529320, Pitch_bend_c, 7, 10240
2, 529440, Note_off_c, 6, 59, 95
2, 529440, Note_off_c, 6, 55, 95
2, 529440, Pitch_bend_c, 7, 11008
2, 529440, Pitch_bend_c, 7, 8192
2, 529440, Note_off_c, 7, 50, 95
2, 529440, Note_on_c, 6, 54, 95
2, 530400, Note_off_c, 6, 54, 95
2, 530400, Note_on_c, 6, 40, 95
2, 530880, Note_off_c, 6, 40, 95
2, 530880, Note_on_c, 6, 59, 95
2, 530880, Note_on_c, 6, 55, 95
2, 530880, Note_on_c, 6, 52, 95
2, 531360, Note_off_c, 6, 59, 95
2, 531360, Note_off_c, 6, 55, 95
2, 531360, Note_off_c, 6, 52, 95
2, 531360, Note_on_c, 6, 40, 95
2, 531840, Note_off_c, 6, 40, 95
2, 531840, Note_on_c, 6, 50, 95
2, 532320, Note_off_c, 6, 50, 95
2, 532320, Note_on_c, 6, 52, 95
2, 532800, Note_off_c, 6, 52, 95
2, 532800, Note_on_c, 6, 59, 95
2, 532800, Note_on_c, 6, 55, 95
2, 532800, Note_on_c, 7, 50, 95
2, 532920, Pitch_bend_c, 7, 8832
2, 533040, Pitch_bend_c, 7, 9600
2, 533160, Pitch_bend_c, 7, 10240
2, 533280, Note_off_c, 6, 59, 95
2, 533280, Note_off_c, 6, 55, 95
2, 533280, Pitch_bend_c, 7, 11008
2, 533280, Pitch_bend_c, 7, 8192
2, 533280, Note_off_c, 7, 50, 95
2, 533280, Note_on_c, 6, 54, 95
2, 534240, Note_off_c, 6, 54, 95
2, 534240, Note_on_c, 6, 40, 95
2, 534720, Note_off_c, 6, 40, 95
2, 534720, Note_on_c, 6, 59, 95
2, 534720, Note_on_c, 6, 55, 95
2, 534720, Note_on_c, 6, 52, 95
2, 535200, Note_off_c, 6, 59, 95
2, 535200, Note_off_c, 6, 55, 95
2, 535200, Note_off_c, 6, 52, 95
2, 535200, Note_on_c, 6, 40, 95
2, 535680, Note_off_c, 6, 40, 95
2, 535680, Note_on_c, 6, 50, 95
2, 536160, Note_off_c, 6, 50, 95
2, 536160, Note_on_c, 6, 52, 95
2, 536640, Note_off_c, 6, 52, 95
2, 536640, Note_on_c, 6, 50, 95
2, 537120, Note_off_c, 6, 50, 95
2, 537120, Note_on_c, 6, 45, 95
2, 537600, Note_off_c, 6, 45, 95
2, 537600, Note_on_c, 6, 47, 95
2, 538560, Note_off_c, 6, 47, 95
2, 538560, Note_on_c, 6, 57, 95
2, 538560, Note_on_c, 6, 54, 95
2, 539040, Note_off_c, 6, 57, 95
2, 539040, Note_off_c, 6, 54, 95
2, 539040, Note_on_c, 6, 47, 95
2, 539520, Note_off_c, 6, 47, 95
2, 539520, Note_on_c, 6, 47, 95
2, 540000, Note_off_c, 6, 47, 95
2, 540000, Note_on_c, 6, 57, 95
2, 540000, Note_on_c, 6, 54, 95
2, 540960, Note_off_c, 6, 57, 95
2, 540960, Note_off_c, 6, 54, 95
2, 540960, Note_on_c, 6, 47, 95
2, 542400, Note_off_c, 6, 47, 95
2, 542400, Note_on_c, 6, 57, 95
2, 542400, Note_on_c, 6, 54, 95
2, 542880, Note_off_c, 6, 57, 95
2, 542880, Note_off_c, 6, 54, 95
2, 542880, Note_on_c, 6, 47, 95
2, 543360, Note_off_c, 6, 47, 95
2, 543360, Note_on_c, 6, 57, 95
2, 543360, Note_on_c, 6, 54, 95
2, 543840, Note_off_c, 6, 57, 95
2, 543840, Note_off_c, 6, 54, 95
2, 543840, Note_on_c, 6, 59, 95
2, 543840, Note_on_c, 6, 56, 95
2, 544320, Note_off_c, 6, 59, 95
2, 544320, Note_off_c, 6, 56, 95
2, 544320, Note_on_c, 6, 57, 95
2, 544320, Note_on_c, 6, 54, 95
2, 544800, Note_off_c, 6, 57, 95
2, 544800, Note_off_c, 6, 54, 95
2, 544800, Note_on_c, 6, 47, 95
2, 545280, Note_off_c, 6, 47, 95
2, 545280, Note_on_c, 6, 47, 95
2, 546240, Note_off_c, 6, 47, 95
2, 546240, Note_on_c, 6, 57, 95
2, 546240, Note_on_c, 6, 54, 95
2, 546720, Note_off_c, 6, 57, 95
2, 546720, Note_off_c, 6, 54, 95
2, 546720, Note_on_c, 6, 47, 95
2, 547200, Note_off_c, 6, 47, 95
2, 547200, Note_on_c, 6, 47, 95
2, 547680, Note_off_c, 6, 47, 95
2, 547680, Note_on_c, 6, 57, 95
2, 547680, Note_on_c, 6, 54, 95
2, 548640, Note_off_c, 6, 57, 95
2, 548640, Note_off_c, 6, 54, 95
2, 548640, Note_on_c, 6, 47, 95
2, 550080, Note_off_c, 6, 47, 95
2, 550080, Note_on_c, 6, 57, 95
2, 550080, Note_on_c, 6, 54, 95
2, 550560, Note_off_c, 6, 57, 95
2, 550560, Note_off_c, 6, 54, 95
2, 550560, Note_on_c, 6, 47, 95
2, 551040, Note_off_c, 6, 47, 95
2, 551040, Note_on_c, 6, 47, 95
2, 551520, Note_off_c, 6, 47, 95
2, 551520, Note_on_c, 6, 57, 95
2, 551520, Note_on_c, 6, 54, 95
2, 552480, Note_off_c, 6, 57, 95
2, 552480, Note_off_c, 6, 54, 95
2, 552480, Note_on_c, 7, 47, 95
2, 552600, Pitch_bend_c, 7, 8704
2, 552720, Pitch_bend_c, 7, 9216
2, 552840, Pitch_bend_c, 7, 9728
2, 552960, Pitch_bend_c, 7, 10240
2, 552960, Pitch_bend_c, 7, 8192
2, 552960, Note_off_c, 7, 47, 95
2, 552960, Note_on_c, 6, 50, 95
2, 553920, Note_off_c, 6, 50, 95
2, 553920, Note_on_c, 6, 60, 95
2, 553920, Note_on_c, 6, 57, 95
2, 554400, Note_off_c, 6, 60, 95
2, 554400, Note_off_c, 6, 57, 95
2, 554400, Note_on_c, 6, 50, 95
2, 554880, Note_off_c, 6, 50, 95
2, 554880, Note_on_c, 6, 50, 95
2, 555360, Note_off_c, 6, 50, 95
2, 555360, Note_on_c, 6, 60, 95
2, 555360, Note_on_c, 6, 57, 95
2, 556320, Note_off_c, 6, 60, 95
2, 556320, Note_off_c, 6, 57, 95
2, 556320, Note_on_c, 6, 50, 95
2, 557760, Note_off_c, 6, 50, 95
2, 557760, Note_on_c, 6, 60, 95
2, 557760, Note_on_c, 6, 57, 95
2, 558240, Note_off_c, 6, 60, 95
2, 558240, Note_off_c, 6, 57, 95
2, 558240, Note_on_c, 6, 50, 95
2, 558720, Note_off_c, 6, 50, 95
2, 558720, Note_on_c, 6, 60, 95
2, 558720, Note_on_c, 6, 57, 95
2, 558720, Note_on_c, 6, 50, 95
2, 559200, Note_off_c, 6, 60, 95
2, 559200, Note_off_c, 6, 57, 95
2, 559200, Note_off_c, 6, 50, 95
2, 559200, Note_on_c, 6, 62, 79
2, 559200, Note_on_c, 6, 59, 95
2, 559680, Note_off_c, 6, 62, 79
2, 559680, Note_off_c, 6, 59, 95
2, 559680, Note_on_c, 6, 60, 95
2, 559680, Note_on_c, 6, 57, 95
2, 559680, Note_on_c, 6, 50, 95
2, 560160, Note_off_c, 6, 60, 95
2, 560160, Note_off_c, 6, 57, 95
2, 560160, Note_off_c, 6, 50, 95
2, 560160, Note_on_c, 6, 45, 95
2, 560640, Note_off_c, 6, 45, 95
2, 560640, Note_on_c, 6, 45, 95
2, 561600, Note_off_c, 6, 45, 95
2, 561600, Note_on_c, 6, 55, 95
2, 561600, Note_on_c, 6, 52, 95
2, 562080, Note_off_c, 6, 55, 95
2, 562080, Note_off_c, 6, 52, 95
2, 562080, Note_on_c, 6, 45, 95
2, 563040, Note_off_c, 6, 45, 95
2, 563040, Note_on_c, 6, 55, 95
2, 563040, Note_on_c, 6, 52, 95
2, 564000, Note_off_c, 6, 55, 95
2, 564000, Note_off_c, 6, 52, 95
2, 564000, Note_on_c, 6, 45, 95
2, 564960, Note_off_c, 6, 45, 95
2, 564960, Note_on_c, 6, 55, 95
2, 564960, Note_on_c, 6, 52, 95
2, 565440, Note_off_c, 6, 55, 95
2, 565440, Note_off_c, 6, 52, 95
2, 565440, Note_on_c, 6, 57, 95
2, 565440, Note_on_c, 6, 54, 95
2, 565920, Note_off_c, 6, 57, 95
2, 565920, Note_off_c, 6, 54, 95
2, 565920, Note_on_c, 6, 57, 95
2, 565920, Note_on_c, 6, 54, 95
2, 566400, Note_off_c, 6, 57, 95
2, 566400, Note_off_c, 6, 54, 95
2, 566400, Note_on_c, 6, 57, 95
2, 566400, Note_on_c, 6, 54, 95
2, 566880, Note_off_c, 6, 57, 95
2, 566880, Note_off_c, 6, 54, 95
2, 566880, Note_on_c, 6, 55, 95
2, 566880, Note_on_c, 6, 52, 95
2, 567360, Note_off_c, 6, 55, 95
2, 567360, Note_off_c, 6, 52, 95
2, 567360, Note_on_c, 7, 45, 95
2, 567480, Pitch_bend_c, 7, 7808
2, 567600, Pitch_bend_c, 7, 7424
2, 567720, Pitch_bend_c, 7, 6912
2, 567840, Pitch_bend_c, 7, 6528
2, 567960, Pitch_bend_c, 7, 6016
2, 568080, Pitch_bend_c, 7, 5632
2, 568200, Pitch_bend_c, 7, 5120
2, 568320, Pitch_bend_c, 7, 4736
2, 568320, Pitch_bend_c, 7, 8192
2, 568320, Note_off_c, 7, 45, 95
2, 568320, Note_on_c, 6, 40, 95
2, 569280, Note_off_c, 6, 40, 95
2, 569280, Note_on_c, 6, 59, 95
2, 569280, Note_on_c, 6, 55, 95
2, 569280, Note_on_c, 6, 52, 95
2, 569760, Note_off_c, 6, 59, 95
2, 569760, Note_off_c, 6, 55, 95
2, 569760, Note_off_c, 6, 52, 95
2, 569760, Note_on_c, 6, 40, 95
2, 570240, Note_off_c, 6, 40, 95
2, 570240, Note_on_c, 6, 50, 95
2, 570720, Note_off_c, 6, 50, 95
2, 570720, Note_on_c, 6, 52, 95
2, 571200, Note_off_c, 6, 52, 95
2, 571200, Note_on_c, 6, 59, 95
2, 571200, Note_on_c, 6, 55, 95
2, 571200, Note_on_c, 7, 50, 95
2, 571320, Pitch_bend_c, 7, 8832
2, 571440, Pitch_bend_c, 7, 9600
2, 571560, Pitch_bend_c, 7, 10240
2, 571680, Note_off_c, 6, 59, 95
2, 571680, Note_off_c, 6, 55, 95
2, 571680, Pitch_bend_c, 7, 11008
2, 571680, Pitch_bend_c, 7, 8192
2, 571680, Note_off_c, 7, 50, 95
2, 571680, Note_on_c, 6, 54, 95
2, 572640, Note_off_c, 6, 54, 95
2, 572640, Note_on_c, 6, 40, 95
2, 573120, Note_off_c, 6, 40, 95
2, 573120, Note_on_c, 6, 59, 95
2, 573120, Note_on_c, 6, 55, 95
2, 573120, Note_on_c, 6, 52, 95
2, 573600, Note_off_c, 6, 59, 95
2, 573600, Note_off_c, 6, 55, 95
2, 573600, Note_off_c, 6, 52, 95
2, 573600, Note_on_c, 6, 40, 95
2, 574080, Note_off_c, 6, 40, 95
2, 574080, Note_on_c, 6, 50, 95
2, 574560, Note_off_c, 6, 50, 95
2, 574560, Note_on_c, 6, 52, 95
2, 575040, Note_off_c, 6, 52, 95
2, 575040, Note_on_c, 6, 59, 95
2, 575040, Note_on_c, 6, 55, 95
2, 575040, Note_on_c, 7, 50, 95
2, 575160, Pitch_bend_c, 7, 8832
2, 575280, Pitch_bend_c, 7, 9600
2, 575400, Pitch_bend_c, 7, 10240
2, 575520, Note_off_c, 6, 59, 95
2, 575520, Note_off_c, 6, 55, 95
2, 575520, Pitch_bend_c, 7, 11008
2, 575520, Pitch_bend_c, 7, 8192
2, 575520, Note_off_c, 7, 50, 95
2, 575520, Note_on_c, 6, 54, 95
2, 576480, Note_off_c, 6, 54, 95
2, 576480, Note_on_c, 6, 40, 95
2, 576960, Note_off_c, 6, 40, 95
2, 576960, Note_on_c, 6, 59, 95
2, 576960, Note_on_c, 6, 55, 95
2, 576960, Note_on_c, 6, 52, 95
2, 577440, Note_off_c, 6, 59, 95
2, 577440, Note_off_c, 6, 55, 95
2, 577440, Note_off_c, 6, 52, 95
2, 577440, Note_on_c, 6, 40, 95
2, 577920, Note_off_c, 6, 40, 95
2, 577920, Note_on_c, 6, 50, 95
2, 578400, Note_off_c, 6, 50, 95
2, 578400, Note_on_c, 6, 52, 95
2, 578880, Note_off_c, 6, 52, 95
2, 578880, Note_on_c, 6, 50, 95
2, 579360, Note_off_c, 6, 50, 95
2, 579360, Note_on_c, 6, 45, 95
2, 579840, Note_off_c, 6, 45, 95
2, 579840, Note_on_c, 6, 47, 95
2, 580800, Note_off_c, 6, 47, 95
2, 580800, Note_on_c, 6, 57, 95
2, 580800, Note_on_c, 6, 54, 95
2, 581280, Note_off_c, 6, 57, 95
2, 581280, Note_off_c, 6, 54, 95
2, 581280, Note_on_c, 6, 47, 95
2, 581760, Note_off_c, 6, 47, 95
2, 581760, Note_on_c, 6, 47, 95
2, 582240, Note_off_c, 6, 47, 95
2, 582240, Note_on_c, 6, 57, 95
2, 582240, Note_on_c, 6, 54, 95
2, 583200, Note_off_c, 6, 57, 95
2, 583200, Note_off_c, 6, 54, 95
2, 583200, Note_on_c, 6, 47, 95
2, 584640, Note_off_c, 6, 47, 95
2, 584640, Note_on_c, 6, 57, 95
2, 584640, Note_on_c, 6, 54, 95
2, 585120, Note_off_c, 6, 57, 95
2, 585120, Note_off_c, 6, 54, 95
2, 585120, Note_on_c, 6, 47, 95
2, 585600, Note_off_c, 6, 47, 95
2, 585600, Note_on_c, 6, 57, 95
2, 585600, Note_on_c, 6, 54, 95
2, 586080, Note_off_c, 6, 57, 95
2, 586080, Note_off_c, 6, 54, 95
2, 586080, Note_on_c, 6, 59, 95
2, 586080, Note_on_c, 6, 56, 95
2, 586560, Note_off_c, 6, 59, 95
2, 586560, Note_off_c, 6, 56, 95
2, 586560, Note_on_c, 6, 57, 95
2, 586560, Note_on_c, 6, 54, 95
2, 587040, Note_off_c, 6, 57, 95
2, 587040, Note_off_c, 6, 54, 95
2, 587040, Note_on_c, 6, 47, 95
2, 587520, Note_off_c, 6, 47, 95
2, 587520, Note_on_c, 6, 47, 95
2, 588480, Note_off_c, 6, 47, 95
2, 588480, Note_on_c, 6, 57, 95
2, 588480, Note_on_c, 6, 54, 95
2, 588960, Note_off_c, 6, 57, 95
2, 588960, Note_off_c, 6, 54, 95
2, 588960, Note_on_c, 6, 47, 95
2, 589440, Note_off_c, 6, 47, 95
2, 589440, Note_on_c, 6, 47, 95
2, 589920, Note_off_c, 6, 47, 95
2, 589920, Note_on_c, 6, 57, 95
2, 589920, Note_on_c, 6, 54, 95
2, 590880, Note_off_c, 6, 57, 95
2, 590880, Note_off_c, 6, 54, 95
2, 590880, Note_on_c, 6, 47, 95
2, 592320, Note_off_c, 6, 47, 95
2, 592320, Note_on_c, 6, 57, 95
2, 592320, Note_on_c, 6, 54, 95
2, 592800, Note_off_c, 6, 57, 95
2, 592800, Note_off_c, 6, 54, 95
2, 592800, Note_on_c, 6, 47, 95
2, 593280, Note_off_c, 6, 47, 95
2, 593280, Note_on_c, 6, 47, 95
2, 593760, Note_off_c, 6, 47, 95
2, 593760, Note_on_c, 6, 57, 95
2, 593760, Note_on_c, 6, 54, 95
2, 594720, Note_off_c, 6, 57, 95
2, 594720, Note_off_c, 6, 54, 95
2, 594720, Note_on_c, 7, 47, 95
2, 594840, Pitch_bend_c, 7, 8704
2, 594960, Pitch_bend_c, 7, 9216
2, 595080, Pitch_bend_c, 7, 9728
2, 595200, Pitch_bend_c, 7, 10240
2, 595200, Pitch_bend_c, 7, 8192
2, 595200, Note_off_c, 7, 47, 95
2, 595200, Note_on_c, 6, 50, 95
2, 596160, Note_off_c, 6, 50, 95
2, 596160, Note_on_c, 6, 60, 95
2, 596160, Note_on_c, 6, 57, 95
2, 596640, Note_off_c, 6, 60, 95
2, 596640, Note_off_c, 6, 57, 95
2, 596640, Note_on_c, 6, 50, 95
2, 597120, Note_off_c, 6, 50, 95
2, 597120, Note_on_c, 6, 50, 95
2, 597600, Note_off_c, 6, 50, 95
2, 597600, Note_on_c, 6, 60, 95
2, 597600, Note_on_c, 6, 57, 95
2, 598560, Note_off_c, 6, 60, 95
2, 598560, Note_off_c, 6, 57, 95
2, 598560, Note_on_c, 6, 50, 95
2, 600000, Note_off_c, 6, 50, 95
2, 600000, Note_on_c, 6, 60, 95
2, 600000, Note_on_c, 6, 57, 95
2, 600480, Note_off_c, 6, 60, 95
2, 600480, Note_off_c, 6, 57, 95
2, 600480, Note_on_c, 6, 50, 95
2, 600960, Note_off_c, 6, 50, 95
2, 600960, Note_on_c, 6, 60, 95
2, 600960, Note_on_c, 6, 57, 95
2, 600960, Note_on_c, 6, 50, 95
2, 601440, Note_off_c, 6, 60, 95
2, 601440, Note_off_c, 6, 57, 95
2, 601440, Note_off_c, 6, 50, 95
2, 601440, Note_on_c, 6, 62, 79
2, 601440, Note_on_c, 6, 59, 95
2, 601920, Note_off_c, 6, 62, 79
2, 601920, Note_off_c, 6, 59, 95
2, 601920, Note_on_c, 6, 60, 95
2, 601920, Note_on_c, 6, 57, 95
2, 601920, Note_on_c, 6, 50, 95
2, 602400, Note_off_c, 6, 60, 95
2, 602400, Note_off_c, 6, 57, 95
2, 602400, Note_off_c, 6, 50, 95
2, 602400, Note_on_c, 6, 45, 95
2, 602880, Note_off_c, 6, 45, 95
2, 602880, Note_on_c, 6, 45, 95
2, 603840, Note_off_c, 6, 45, 95
2, 603840, Note_on_c, 6, 55, 95
2, 603840, Note_on_c, 6, 52, 95
2, 604320, Note_off_c, 6, 55, 95
2, 604320, Note_off_c, 6, 52, 95
2, 604320, Note_on_c, 6, 45, 95
2, 605280, Note_off_c, 6, 45, 95
2, 605280, Note_on_c, 6, 55, 95
2, 605280, Note_on_c, 6, 52, 95
2, 606240, Note_off_c, 6, 55, 95
2, 606240, Note_off_c, 6, 52, 95
2, 606240, Note_on_c, 6, 45, 95
2, 607200, Note_off_c, 6, 45, 95
2, 607200, Note_on_c, 6, 55, 95
2, 607200, Note_on_c, 6, 52, 95
2, 607680, Note_off_c, 6, 55, 95
2, 607680, Note_off_c, 6, 52, 95
2, 607680, Note_on_c, 6, 57, 95
2, 607680, Note_on_c, 6, 54, 95
2, 608160, Note_off_c, 6, 57, 95
2, 608160, Note_off_c, 6, 54, 95
2, 608160, Note_on_c, 6, 57, 95
2, 608160, Note_on_c, 6, 54, 95
2, 608640, Note_off_c, 6, 57, 95
2, 608640, Note_off_c, 6, 54, 95
2, 608640, Note_on_c, 6, 57, 95
2, 608640, Note_on_c, 6, 54, 95
2, 609120, Note_off_c, 6, 57, 95
2, 609120, Note_off_c, 6, 54, 95
2, 609120, Note_on_c, 6, 55, 95
2, 609120, Note_on_c, 6, 52, 95
2, 609600, Note_off_c, 6, 55, 95
2, 609600, Note_off_c, 6, 52, 95
2, 609600, Note_on_c, 7, 45, 95
2, 609720, Pitch_bend_c, 7, 7808
2, 609840, Pitch_bend_c, 7, 7424
2, 609960, Pitch_bend_c, 7, 6912
2, 610080, Pitch_bend_c, 7, 6528
2, 610200, Pitch_bend_c, 7, 6016
2, 610320, Pitch_bend_c, 7, 5632
2, 610440, Pitch_bend_c, 7, 5120
2, 610560, Pitch_bend_c, 7, 4736
2, 610560, Pitch_bend_c, 7, 8192
2, 610560, Note_off_c, 7, 45, 95
2, 610560, Note_on_c, 6, 40, 95
2, 611520, Note_off_c, 6, 40, 95
2, 611520, Note_on_c, 6, 59, 95
2, 611520, Note_on_c, 6, 55, 95
2, 611520, Note_on_c, 6, 52, 95
2, 612000, Note_off_c, 6, 59, 95
2, 612000, Note_off_c, 6, 55, 95
2, 612000, Note_off_c, 6, 52, 95
2, 612000, Note_on_c, 6, 40, 95
2, 612480, Note_off_c, 6, 40, 95
2, 612480, Note_on_c, 6, 50, 95
2, 612960, Note_off_c, 6, 50, 95
2, 612960, Note_on_c, 6, 52, 95
2, 613440, Note_off_c, 6, 52, 95
2, 613440, Note_on_c, 6, 59, 95
2, 613440, Note_on_c, 6, 55, 95
2, 613440, Note_on_c, 7, 50, 95
2, 613560, Pitch_bend_c, 7, 8832
2, 613680, Pitch_bend_c, 7, 9600
2, 613800, Pitch_bend_c, 7, 10240
2, 613920, Note_off_c, 6, 59, 95
2, 613920, Note_off_c, 6, 55, 95
2, 613920, Pitch_bend_c, 7, 11008
2, 613920, Pitch_bend_c, 7, 8192
2, 613920, Note_off_c, 7, 50, 95
2, 613920, Note_on_c, 6, 54, 95
2, 614880, Note_off_c, 6, 54, 95
2, 614880, Note_on_c, 6, 40, 95
2, 615360, Note_off_c, 6, 40, 95
2, 615360, Note_on_c, 6, 59, 95
2, 615360, Note_on_c, 6, 55, 95
2, 615360, Note_on_c, 6, 52, 95
2, 615840, Note_off_c, 6, 59, 95
2, 615840, Note_off_c, 6, 55, 95
2, 615840, Note_off_c, 6, 52, 95
2, 615840, Note_on_c, 6, 40, 95
2, 616320, Note_off_c, 6, 40, 95
2, 616320, Note_on_c, 6, 50, 95
2, 616800, Note_off_c, 6, 50, 95
2, 616800, Note_on_c, 6, 52, 95
2, 617280, Note_off_c, 6, 52, 95
2, 617280, Note_on_c, 6, 59, 95
2, 617280, Note_on_c, 6, 55, 95
2, 617280, Note_on_c, 7, 50, 95
2, 617400, Pitch_bend_c, 7, 8832
2, 617520, Pitch_bend_c, 7, 9600
2, 617640, Pitch_bend_c, 7, 10240
2, 617760, Note_off_c, 6, 59, 95
2, 617760, Note_off_c, 6, 55, 95
2, 617760, Pitch_bend_c, 7, 11008
2, 617760, Pitch_bend_c, 7, 8192
2, 617760, Note_off_c, 7, 50, 95
2, 617760, Note_on_c, 6, 54, 95
2, 618720, Note_off_c, 6, 54, 95
2, 618720, Note_on_c, 6, 40, 95
2, 619200, Note_off_c, 6, 40, 95
2, 619200, Note_on_c, 6, 59, 95
2, 619200, Note_on_c, 6, 55, 95
2, 619200, Note_on_c, 6, 52, 95
2, 619680, Note_off_c, 6, 59, 95
2, 619680, Note_off_c, 6, 55, 95
2, 619680, Note_off_c, 6, 52, 95
2, 619680, Note_on_c, 6, 40, 95
2, 620160, Note_off_c, 6, 40, 95
2, 620160, Note_on_c, 6, 50, 95
2, 620640, Note_off_c, 6, 50, 95
2, 620640, Note_on_c, 6, 52, 95
2, 621120, Note_off_c, 6, 52, 95
2, 621120, Note_on_c, 6, 50, 95
2, 621600, Note_off_c, 6, 50, 95
2, 621600, Note_on_c, 6, 45, 95
2, 622080, Note_off_c, 6, 45, 95
2, 622080, Note_on_c, 6, 47, 95
2, 625920, Note_off_c, 6, 47, 95
2, 625920, End_track
3, 0, Start_track
3, 0, Pitch_bend_c, 0, 8192
3, 0, Control_c, 0, 7, 111
3, 0, Control_c, 0, 10, 63
3, 0, Control_c, 0, 93, 0
3, 0, Control_c, 0, 91, 0
3, 0, Control_c, 0, 95, 0
3, 0, Control_c, 0, 92, 0
3, 0, Control_c, 0, 11, 127
3, 0, Program_c, 0, 33
3, 0, Control_c, 1, 7, 111
3, 0, Control_c, 1, 10, 63
3, 0, Control_c, 1, 93, 0
3, 0, Control_c, 1, 91, 0
3, 0, Control_c, 1, 95, 0
3, 0, Control_c, 1, 92, 0
3, 0, Control_c, 1, 11, 127
3, 0, Program_c, 1, 33
3, 13920, Note_on_c, 0, 45, 95
3, 14400, Note_off_c, 0, 45, 95
3, 14880, Note_on_c, 0, 47, 95
3, 16800, Note_off_c, 0, 47, 95
3, 16800, Note_on_c, 0, 47, 95
3, 17280, Note_off_c, 0, 47, 95
3, 17760, Note_on_c, 0, 45, 95
3, 18240, Note_off_c, 0, 45, 95
3, 18720, Note_on_c, 0, 47, 95
3, 20640, Note_off_c, 0, 47, 95
3, 20640, Note_on_c, 0, 47, 95
3, 21120, Note_off_c, 0, 47, 95
3, 21600, Note_on_c, 0, 45, 95
3, 22080, Note_off_c, 0, 45, 95
3, 22560, Note_on_c, 0, 47, 95
3, 24480, Note_off_c, 0, 47, 95
3, 24480, Note_on_c, 0, 47, 95
3, 24960, Note_off_c, 0, 47, 95
3, 25440, Note_on_c, 0, 45, 95
3, 25920, Note_off_c, 0, 45, 95
3, 26400, Note_on_c, 0, 47, 95
3, 27840, Note_off_c, 0, 47, 95
3, 27840, Note_on_c, 0, 40, 95
3, 28320, Note_off_c, 0, 40, 95
3, 28320, Note_on_c, 0, 42, 95
3, 28800, Note_off_c, 0, 42, 95
3, 29280, Note_on_c, 0, 45, 95
3, 29760, Note_off_c, 0, 45, 95
3, 30240, Note_on_c, 0, 47, 95
3, 32160, Note_off_c, 0, 47, 95
3, 32160, Note_on_c, 0, 47, 95
3, 32640, Note_off_c, 0, 47, 95
3, 33120, Note_on_c, 0, 45, 95
3, 33600, Note_off_c, 0, 45, 95
3, 34080, Note_on_c, 0, 47, 95
3, 36000, Note_off_c, 0, 47, 95
3, 36000, Note_on_c, 0, 47, 95
3, 36480, Note_off_c, 0, 47, 95
3, 36960, Note_on_c, 0, 45, 95
3, 37440, Note_off_c, 0, 45, 95
3, 37920, Note_on_c, 0, 47, 95
3, 39840, Note_off_c, 0, 47, 95
3, 39840, Note_on_c, 0, 47, 95
3, 40320, Note_off_c, 0, 47, 95
3, 40800, Note_on_c, 0, 45, 95
3, 41280, Note_off_c, 0, 45, 95
3, 41760, Note_on_c, 0, 47, 95
3, 43200, Note_off_c, 0, 47, 95
3, 43200, Note_on_c, 0, 40, 95
3, 43680, Note_off_c, 0, 40, 95
3, 43680, Note_on_c, 0, 42, 95
3, 44160, Note_off_c, 0, 42, 95
3, 44640, Note_on_c, 0, 45, 95
3, 45120, Note_off_c, 0, 45, 95
3, 45600, Note_on_c, 0, 47, 95
3, 47520, Note_off_c, 0, 47, 95
3, 47520, Note_on_c, 0, 47, 95
3, 48000, Note_off_c, 0, 47, 95
3, 48480, Note_on_c, 0, 45, 95
3, 48960, Note_off_c, 0, 45, 95
3, 49440, Note_on_c, 0, 47, 95
3, 51360, Note_off_c, 0, 47, 95
3, 51360, Note_on_c, 0, 47, 95
3, 51840, Note_off_c, 0, 47, 95
3, 52320, Note_on_c, 0, 45, 95
3, 52800, Note_off_c, 0, 45, 95
3, 53280, Note_on_c, 0, 47, 95
3, 55200, Note_off_c, 0, 47, 95
3, 55200, Note_on_c, 0, 47, 95
3, 55680, Note_off_c, 0, 47, 95
3, 56160, Note_on_c, 0, 45, 95
3, 56640, Note_off_c, 0, 45, 95
3, 57120, Note_on_c, 0, 47, 95
3, 58560, Note_off_c, 0, 47, 95
3, 58560, Note_on_c, 0, 40, 95
3, 59040, Note_off_c, 0, 40, 95
3, 59040, Note_on_c, 0, 42, 95
3, 59520, Note_off_c, 0, 42, 95
3, 60000, Note_on_c, 0, 45, 95
3, 60480, Note_off_c, 0, 45, 95
3, 60960, Note_on_c, 0, 47, 95
3, 62880, Note_off_c, 0, 47, 95
3, 62880, Note_on_c, 0, 47, 95
3, 63360, Note_off_c, 0, 47, 95
3, 63840, Note_on_c, 0, 45, 95
3, 64320, Note_off_c, 0, 45, 95
3, 64800, Note_on_c, 0, 47, 95
3, 66720, Note_off_c, 0, 47, 95
3, 66720, Note_on_c, 0, 47, 95
3, 67200, Note_off_c, 0, 47, 95
3, 67680, Note_on_c, 0, 45, 95
3, 68160, Note_off_c, 0, 45, 95
3, 68640, Note_on_c, 0, 47, 95
3, 70560, Note_off_c, 0, 47, 95
3, 70560, Note_on_c, 0, 47, 95
3, 71040, Note_off_c, 0, 47, 95
3, 71520, Note_on_c, 0, 45, 95
3, 72000, Note_off_c, 0, 45, 95
3, 72480, Note_on_c, 0, 47, 95
3, 73920, Note_off_c, 0, 47, 95
3, 73920, Note_on_c, 0, 40, 95
3, 74400, Note_off_c, 0, 40, 95
3, 74400, Note_on_c, 0, 42, 95
3, 74880, Note_off_c, 0, 42, 95
3, 75360, Note_on_c, 0, 45, 95
3, 75840, Note_off_c, 0, 45, 95
3, 76320, Note_on_c, 0, 47, 95
3, 78240, Note_off_c, 0, 47, 95
3, 78240, Note_on_c, 0, 47, 95
3, 78720, Note_off_c, 0, 47, 95
3, 79200, Note_on_c, 0, 45, 95
3, 79680, Note_off_c, 0, 45, 95
3, 80160, Note_on_c, 0, 47, 95
3, 82080, Note_off_c, 0, 47, 95
3, 82080, Note_on_c, 0, 47, 95
3, 82560, Note_off_c, 0, 47, 95
3, 83040, Note_on_c, 0, 45, 95
3, 83520, Note_off_c, 0, 45, 95
3, 84000, Note_on_c, 0, 47, 95
3, 85920, Note_off_c, 0, 47, 95
3, 85920, Note_on_c, 0, 47, 95
3, 86400, Note_off_c, 0, 47, 95
3, 86880, Note_on_c, 0, 45, 95
3, 87360, Note_off_c, 0, 45, 95
3, 87840, Note_on_c, 0, 47, 95
3, 89280, Note_off_c, 0, 47, 95
3, 89280, Note_on_c, 0, 40, 95
3, 89760, Note_off_c, 0, 40, 95
3, 89760, Note_on_c, 0, 42, 95
3, 90240, Note_off_c, 0, 42, 95
3, 90720, Note_on_c, 0, 45, 95
3, 91200, Note_off_c, 0, 45, 95
3, 91680, Note_on_c, 0, 47, 95
3, 93600, Note_off_c, 0, 47, 95
3, 93600, Note_on_c, 0, 47, 95
3, 94080, Note_off_c, 0, 47, 95
3, 94560, Note_on_c, 0, 45, 95
3, 95040, Note_off_c, 0, 45, 95
3, 95520, Note_on_c, 0, 47, 95
3, 97440, Note_off_c, 0, 47, 95
3, 97440, Note_on_c, 0, 47, 95
3, 97920, Note_off_c, 0, 47, 95
3, 98400, Note_on_c, 0, 45, 95
3, 98880, Note_off_c, 0, 45, 95
3, 99360, Note_on_c, 0, 47, 95
3, 101280, Note_off_c, 0, 47, 95
3, 101280, Note_on_c, 0, 47, 95
3, 101760, Note_off_c, 0, 47, 95
3, 102240, Note_on_c, 0, 45, 95
3, 102720, Note_off_c, 0, 45, 95
3, 103200, Note_on_c, 0, 47, 95
3, 104640, Note_off_c, 0, 47, 95
3, 104640, Note_on_c, 0, 40, 95
3, 105120, Note_off_c, 0, 40, 95
3, 105120, Note_on_c, 0, 42, 95
3, 105600, Note_off_c, 0, 42, 95
3, 106080, Note_on_c, 0, 45, 95
3, 106560, Note_off_c, 0, 45, 95
3, 107040, Note_on_c, 0, 47, 95
3, 108960, Note_off_c, 0, 47, 95
3, 108960, Note_on_c, 0, 47, 95
3, 109440, Note_off_c, 0, 47, 95
3, 109920, Note_on_c, 0, 45, 95
3, 110400, Note_off_c, 0, 45, 95
3, 110880, Note_on_c, 0, 47, 95
3, 112800, Note_off_c, 0, 47, 95
3, 112800, Note_on_c, 0, 47, 95
3, 113280, Note_off_c, 0, 47, 95
3, 113760, Note_on_c, 0, 45, 95
3, 114240, Note_off_c, 0, 45, 95
3, 114720, Note_on_c, 0, 47, 95
3, 116640, Note_off_c, 0, 47, 95
3, 116640, Note_on_c, 0, 47, 95
3, 117120, Note_off_c, 0, 47, 95
3, 117600, Note_on_c, 0, 45, 95
3, 118080, Note_off_c, 0, 45, 95
3, 118560, Note_on_c, 0, 47, 95
3, 120480, Note_off_c, 0, 47, 95
3, 120480, Note_on_c, 0, 47, 95
3, 120960, Note_off_c, 0, 47, 95
3, 121440, Note_on_c, 0, 45, 95
3, 121920, Note_off_c, 0, 45, 95
3, 122400, Note_on_c, 0, 47, 95
3, 122880, Note_off_c, 0, 47, 95
3, 122880, Note_on_c, 0, 45, 95
3, 123360, Note_off_c, 0, 45, 95
3, 123360, Note_on_c, 0, 47, 95
3, 123840, Note_off_c, 0, 47, 95
3, 124320, Note_on_c, 0, 52, 95
3, 125280, Note_off_c, 0, 52, 95
3, 125280, Note_on_c, 0, 50, 95
3, 125760, Note_off_c, 0, 50, 95
3, 126240, Note_on_c, 0, 45, 95
3, 127200, Note_off_c, 0, 45, 95
3, 127200, Note_on_c, 0, 47, 95
3, 127680, Note_off_c, 0, 47, 95
3, 128160, Note_on_c, 0, 47, 95
3, 129120, Note_off_c, 0, 47, 95
3, 129120, Note_on_c, 0, 45, 95
3, 129600, Note_off_c, 0, 45, 95
3, 130080, Note_on_c, 0, 47, 95
3, 130560, Note_off_c, 0, 47, 95
3, 130560, Note_on_c, 0, 45, 95
3, 131040, Note_off_c, 0, 45, 95
3, 131040, Note_on_c, 0, 47, 95
3, 131520, Note_off_c, 0, 47, 95
3, 132000, Note_on_c, 0, 52, 95
3, 132960, Note_off_c, 0, 52, 95
3, 132960, Note_on_c, 0, 50, 95
3, 133440, Note_off_c, 0, 50, 95
3, 133920, Note_on_c, 0, 45, 95
3, 134880, Note_off_c, 0, 45, 95
3, 134880, Note_on_c, 0, 47, 95
3, 135360, Note_off_c, 0, 47, 95
3, 135840, Note_on_c, 0, 47, 95
3, 136800, Note_off_c, 0, 47, 95
3, 136800, Note_on_c, 0, 45, 95
3, 137280, Note_off_c, 0, 45, 95
3, 137760, Note_on_c, 0, 47, 95
3, 139680, Note_off_c, 0, 47, 95
3, 139680, Note_on_c, 0, 47, 95
3, 140160, Note_off_c, 0, 47, 95
3, 140640, Note_on_c, 0, 45, 95
3, 141120, Note_off_c, 0, 45, 95
3, 141600, Note_on_c, 0, 47, 95
3, 143520, Note_off_c, 0, 47, 95
3, 143520, Note_on_c, 0, 47, 95
3, 144000, Note_off_c, 0, 47, 95
3, 144480, Note_on_c, 0, 45, 95
3, 144960, Note_off_c, 0, 45, 95
3, 145440, Note_on_c, 0, 47, 95
3, 147360, Note_off_c, 0, 47, 95
3, 147360, Note_on_c, 0, 47, 95
3, 147840, Note_off_c, 0, 47, 95
3, 148320, Note_on_c, 0, 45, 95
3, 148800, Note_off_c, 0, 45, 95
3, 149280, Note_on_c, 0, 47, 95
3, 151200, Note_off_c, 0, 47, 95
3, 151200, Note_on_c, 0, 47, 95
3, 151680, Note_off_c, 0, 47, 95
3, 152160, Note_on_c, 0, 45, 95
3, 152640, Note_off_c, 0, 45, 95
3, 153120, Note_on_c, 0, 47, 95
3, 153600, Note_off_c, 0, 47, 95
3, 153600, Note_on_c, 0, 45, 95
3, 154080, Note_off_c, 0, 45, 95
3, 154080, Note_on_c, 0, 47, 95
3, 154560, Note_off_c, 0, 47, 95
3, 155040, Note_on_c, 0, 52, 95
3, 156000, Note_off_c, 0, 52, 95
3, 156000, Note_on_c, 0, 50, 95
3, 156480, Note_off_c, 0, 50, 95
3, 156960, Note_on_c, 0, 45, 95
3, 157920, Note_off_c, 0, 45, 95
3, 157920, Note_on_c, 0, 47, 95
3, 158400, Note_off_c, 0, 47, 95
3, 158880, Note_on_c, 0, 47, 95
3, 159840, Note_off_c, 0, 47, 95
3, 159840, Note_on_c, 0, 50, 95
3, 160320, Note_off_c, 0, 50, 95
3, 160800, Note_on_c, 0, 47, 95
3, 161280, Note_off_c, 0, 47, 95
3, 161280, Note_on_c, 0, 45, 95
3, 161760, Note_off_c, 0, 45, 95
3, 161760, Note_on_c, 0, 47, 95
3, 162240, Note_off_c, 0, 47, 95
3, 162720, Note_on_c, 0, 52, 95
3, 163680, Note_off_c, 0, 52, 95
3, 163680, Note_on_c, 0, 50, 95
3, 164160, Note_off_c, 0, 50, 95
3, 164640, Note_on_c, 0, 45, 95
3, 165600, Note_off_c, 0, 45, 95
3, 165600, Note_on_c, 0, 47, 95
3, 166080, Note_off_c, 0, 47, 95
3, 166560, Note_on_c, 0, 47, 95
3, 167520, Note_off_c, 0, 47, 95
3, 167520, Note_on_c, 0, 50, 95
3, 168000, Note_off_c, 0, 50, 95
3, 168480, Note_on_c, 0, 47, 95
3, 168960, Note_off_c, 0, 47, 95
3, 168960, Note_on_c, 0, 45, 95
3, 169440, Note_off_c, 0, 45, 95
3, 169440, Note_on_c, 0, 45, 95
3, 169920, Note_off_c, 0, 45, 95
3, 169920, Note_on_c, 0, 45, 95
3, 170400, Note_off_c, 0, 45, 95
3, 170400, Note_on_c, 0, 45, 95
3, 170880, Note_off_c, 0, 45, 95
3, 170880, Note_on_c, 0, 45, 95
3, 171360, Note_off_c, 0, 45, 95
3, 171360, Note_on_c, 0, 45, 95
3, 171840, Note_off_c, 0, 45, 95
3, 171840, Note_on_c, 0, 45, 95
3, 172320, Note_off_c, 0, 45, 95
3, 172320, Note_on_c, 0, 45, 95
3, 172800, Note_off_c, 0, 45, 95
3, 172800, Note_on_c, 0, 45, 95
3, 173280, Note_off_c, 0, 45, 95
3, 173280, Note_on_c, 0, 45, 95
3, 173760, Note_off_c, 0, 45, 95
3, 173760, Note_on_c, 0, 45, 95
3, 174240, Note_off_c, 0, 45, 95
3, 174240, Note_on_c, 0, 45, 95
3, 174720, Note_off_c, 0, 45, 95
3, 174720, Note_on_c, 0, 45, 95
3, 175200, Note_off_c, 0, 45, 95
3, 175200, Note_on_c, 0, 45, 95
3, 175680, Note_off_c, 0, 45, 95
3, 175680, Note_on_c, 0, 45, 95
3, 176160, Note_off_c, 0, 45, 95
3, 176160, Note_on_c, 0, 38, 95
3, 176640, Note_off_c, 0, 38, 95
3, 176640, Note_on_c, 0, 42, 95
3, 177120, Note_off_c, 0, 42, 95
3, 177120, Note_on_c, 0, 42, 95
3, 177600, Note_off_c, 0, 42, 95
3, 177600, Note_on_c, 0, 42, 95
3, 178080, Note_off_c, 0, 42, 95
3, 178080, Note_on_c, 0, 42, 95
3, 178560, Note_off_c, 0, 42, 95
3, 178560, Note_on_c, 0, 42, 95
3, 179040, Note_off_c, 0, 42, 95
3, 179040, Note_on_c, 0, 42, 95
3, 179520, Note_off_c, 0, 42, 95
3, 179520, Note_on_c, 0, 42, 95
3, 180000, Note_off_c, 0, 42, 95
3, 180000, Note_on_c, 0, 42, 95
3, 180480, Note_off_c, 0, 42, 95
3, 180480, Note_on_c, 0, 42, 95
3, 180960, Note_off_c, 0, 42, 95
3, 180960, Note_on_c, 0, 42, 95
3, 181440, Note_off_c, 0, 42, 95
3, 181440, Note_on_c, 0, 42, 95
3, 181920, Note_off_c, 0, 42, 95
3, 181920, Note_on_c, 0, 42, 95
3, 182400, Note_off_c, 0, 42, 95
3, 182400, Note_on_c, 0, 42, 95
3, 182880, Note_off_c, 0, 42, 95
3, 182880, Note_on_c, 0, 42, 95
3, 183360, Note_off_c, 0, 42, 95
3, 183360, Note_on_c, 0, 42, 95
3, 183840, Note_off_c, 0, 42, 95
3, 183840, Note_on_c, 0, 42, 95
3, 184320, Note_off_c, 0, 42, 95
3, 184320, Note_on_c, 0, 45, 95
3, 184800, Note_off_c, 0, 45, 95
3, 184800, Note_on_c, 0, 47, 95
3, 185280, Note_off_c, 0, 47, 95
3, 185760, Note_on_c, 0, 52, 95
3, 186720, Note_off_c, 0, 52, 95
3, 186720, Note_on_c, 0, 50, 95
3, 187200, Note_off_c, 0, 50, 95
3, 187680, Note_on_c, 0, 45, 95
3, 188640, Note_off_c, 0, 45, 95
3, 188640, Note_on_c, 0, 47, 95
3, 189120, Note_off_c, 0, 47, 95
3, 189600, Note_on_c, 0, 47, 95
3, 190560, Note_off_c, 0, 47, 95
3, 190560, Note_on_c, 0, 50, 95
3, 191040, Note_off_c, 0, 50, 95
3, 191520, Note_on_c, 0, 47, 95
3, 192000, Note_off_c, 0, 47, 95
3, 192000, Note_on_c, 0, 45, 95
3, 192480, Note_off_c, 0, 45, 95
3, 192480, Note_on_c, 0, 47, 95
3, 192960, Note_off_c, 0, 47, 95
3, 193440, Note_on_c, 0, 52, 95
3, 194400, Note_off_c, 0, 52, 95
3, 194400, Note_on_c, 0, 50, 95
3, 194880, Note_off_c, 0, 50, 95
3, 195360, Note_on_c, 0, 45, 95
3, 196320, Note_off_c, 0, 45, 95
3, 196320, Note_on_c, 0, 47, 95
3, 196800, Note_off_c, 0, 47, 95
3, 197280, Note_on_c, 0, 47, 95
3, 198240, Note_off_c, 0, 47, 95
3, 198240, Note_on_c, 0, 50, 95
3, 198720, Note_off_c, 0, 50, 95
3, 199200, Note_on_c, 0, 47, 95
3, 199680, Note_off_c, 0, 47, 95
3, 199680, Note_on_c, 0, 45, 95
3, 200160, Note_off_c, 0, 45, 95
3, 200160, Note_on_c, 0, 45, 95
3, 200640, Note_off_c, 0, 45, 95
3, 200640, Note_on_c, 0, 45, 95
3, 201120, Note_off_c, 0, 45, 95
3, 201120, Note_on_c, 0, 45, 95
3, 201600, Note_off_c, 0, 45, 95
3, 201600, Note_on_c, 0, 45, 95
3, 202080, Note_off_c, 0, 45, 95
3, 202080, Note_on_c, 0, 45, 95
3, 202560, Note_off_c, 0, 45, 95
3, 202560, Note_on_c, 0, 45, 95
3, 203040, Note_off_c, 0, 45, 95
3, 203040, Note_on_c, 0, 45, 95
3, 203520, Note_off_c, 0, 45, 95
3, 203520, Note_on_c, 0, 45, 95
3, 204000, Note_off_c, 0, 45, 95
3, 204000, Note_on_c, 0, 45, 95
3, 204480, Note_off_c, 0, 45, 95
3, 204480, Note_on_c, 0, 45, 95
3, 204960, Note_off_c, 0, 45, 95
3, 204960, Note_on_c, 0, 45, 95
3, 205440, Note_off_c, 0, 45, 95
3, 205440, Note_on_c, 0, 45, 95
3, 205920, Note_off_c, 0, 45, 95
3, 205920, Note_on_c, 0, 45, 95
3, 206400, Note_off_c, 0, 45, 95
3, 206400, Note_on_c, 0, 45, 95
3, 206880, Note_off_c, 0, 45, 95
3, 206880, Note_on_c, 0, 38, 95
3, 207360, Note_off_c, 0, 38, 95
3, 207360, Note_on_c, 0, 42, 95
3, 207840, Note_off_c, 0, 42, 95
3, 207840, Note_on_c, 0, 42, 95
3, 208320, Note_off_c, 0, 42, 95
3, 208320, Note_on_c, 0, 42, 95
3, 208800, Note_off_c, 0, 42, 95
3, 208800, Note_on_c, 0, 42, 95
3, 209280, Note_off_c, 0, 42, 95
3, 209280, Note_on_c, 0, 42, 95
3, 209760, Note_off_c, 0, 42, 95
3, 209760, Note_on_c, 0, 42, 95
3, 210240, Note_off_c, 0, 42, 95
3, 210240, Note_on_c, 0, 42, 95
3, 210720, Note_off_c, 0, 42, 95
3, 210720, Note_on_c, 0, 42, 95
3, 211200, Note_off_c, 0, 42, 95
3, 211200, Note_on_c, 0, 42, 95
3, 211680, Note_off_c, 0, 42, 95
3, 211680, Note_on_c, 0, 42, 95
3, 212160, Note_off_c, 0, 42, 95
3, 212160, Note_on_c, 0, 42, 95
3, 212640, Note_off_c, 0, 42, 95
3, 212640, Note_on_c, 0, 42, 95
3, 213120, Note_off_c, 0, 42, 95
3, 213120, Note_on_c, 0, 42, 95
3, 213600, Note_off_c, 0, 42, 95
3, 213600, Note_on_c, 0, 42, 95
3, 214080, Note_off_c, 0, 42, 95
3, 214080, Note_on_c, 0, 42, 95
3, 214560, Note_off_c, 0, 42, 95
3, 214560, Note_on_c, 0, 42, 95
3, 215040, Note_off_c, 0, 42, 95
3, 215040, Note_on_c, 0, 45, 95
3, 215520, Note_off_c, 0, 45, 95
3, 215520, Note_on_c, 0, 47, 95
3, 216000, Note_off_c, 0, 47, 95
3, 216480, Note_on_c, 0, 52, 95
3, 217440, Note_off_c, 0, 52, 95
3, 217440, Note_on_c, 0, 50, 95
3, 217920, Note_off_c, 0, 50, 95
3, 218400, Note_on_c, 0, 45, 95
3, 219360, Note_off_c, 0, 45, 95
3, 219360, Note_on_c, 0, 47, 95
3, 219840, Note_off_c, 0, 47, 95
3, 220320, Note_on_c, 0, 47, 95
3, 221280, Note_off_c, 0, 47, 95
3, 221280, Note_on_c, 0, 50, 95
3, 221760, Note_off_c, 0, 50, 95
3, 222240, Note_on_c, 0, 47, 95
3, 222720, Note_off_c, 0, 47, 95
3, 222720, Note_on_c, 0, 45, 95
3, 223200, Note_off_c, 0, 45, 95
3, 223200, Note_on_c, 0, 47, 95
3, 223680, Note_off_c, 0, 47, 95
3, 224160, Note_on_c, 0, 52, 95
3, 225120, Note_off_c, 0, 52, 95
3, 225120, Note_on_c, 0, 50, 95
3, 225600, Note_off_c, 0, 50, 95
3, 226080, Note_on_c, 0, 45, 95
3, 227040, Note_off_c, 0, 45, 95
3, 227040, Note_on_c, 0, 47, 95
3, 227520, Note_off_c, 0, 47, 95
3, 228000, Note_on_c, 0, 47, 95
3, 228960, Note_off_c, 0, 47, 95
3, 228960, Note_on_c, 0, 50, 95
3, 229440, Note_off_c, 0, 50, 95
3, 229920, Note_on_c, 0, 47, 95
3, 231840, Note_off_c, 0, 47, 95
3, 231840, Note_on_c, 0, 47, 95
3, 232320, Note_off_c, 0, 47, 95
3, 232800, Note_on_c, 0, 45, 95
3, 233280, Note_off_c, 0, 45, 95
3, 233760, Note_on_c, 0, 47, 95
3, 235680, Note_off_c, 0, 47, 95
3, 235680, Note_on_c, 0, 47, 95
3, 236160, Note_off_c, 0, 47, 95
3, 236640, Note_on_c, 0, 45, 95
3, 237120, Note_off_c, 0, 45, 95
3, 237600, Note_on_c, 0, 47, 95
3, 239520, Note_off_c, 0, 47, 95
3, 239520, Note_on_c, 0, 47, 95
3, 240000, Note_off_c, 0, 47, 95
3, 240480, Note_on_c, 0, 45, 95
3, 240960, Note_off_c, 0, 45, 95
3, 241440, Note_on_c, 0, 47, 95
3, 242880, Note_off_c, 0, 47, 95
3, 242880, Note_on_c, 0, 40, 95
3, 243360, Note_off_c, 0, 40, 95
3, 243360, Note_on_c, 0, 42, 95
3, 243840, Note_off_c, 0, 42, 95
3, 244320, Note_on_c, 0, 45, 95
3, 244800, Note_off_c, 0, 45, 95
3, 245280, Note_on_c, 0, 47, 95
3, 245760, Note_off_c, 0, 47, 95
3, 247200, Note_on_c, 0, 47, 95
3, 247680, Note_off_c, 0, 47, 95
3, 248160, Note_on_c, 0, 45, 95
3, 248640, Note_off_c, 0, 45, 95
3, 249120, Note_on_c, 0, 47, 95
3, 251040, Note_off_c, 0, 47, 95
3, 251040, Note_on_c, 0, 47, 95
3, 251520, Note_off_c, 0, 47, 95
3, 252000, Note_on_c, 0, 45, 95
3, 252480, Note_off_c, 0, 45, 95
3, 252960, Note_on_c, 0, 47, 95
3, 254880, Note_off_c, 0, 47, 95
3, 254880, Note_on_c, 0, 47, 95
3, 255360, Note_off_c, 0, 47, 95
3, 255840, Note_on_c, 0, 45, 95
3, 256320, Note_off_c, 0, 45, 95
3, 256800, Note_on_c, 0, 47, 95
3, 258720, Note_off_c, 0, 47, 95
3, 258720, Note_on_c, 0, 47, 95
3, 259200, Note_off_c, 0, 47, 95
3, 259680, Note_on_c, 0, 45, 95
3, 260160, Note_off_c, 0, 45, 95
3, 260640, Note_on_c, 0, 47, 95
3, 261120, Note_off_c, 0, 47, 95
3, 261120, Note_on_c, 0, 45, 95
3, 261600, Note_off_c, 0, 45, 95
3, 261600, Note_on_c, 0, 47, 95
3, 262080, Note_off_c, 0, 47, 95
3, 262560, Note_on_c, 0, 52, 95
3, 263520, Note_off_c, 0, 52, 95
3, 263520, Note_on_c, 0, 50, 95
3, 264000, Note_off_c, 0, 50, 95
3, 264480, Note_on_c, 0, 45, 95
3, 265440, Note_off_c, 0, 45, 95
3, 265440, Note_on_c, 0, 47, 95
3, 265920, Note_off_c, 0, 47, 95
3, 266400, Note_on_c, 0, 47, 95
3, 267360, Note_off_c, 0, 47, 95
3, 267360, Note_on_c, 0, 45, 95
3, 267840, Note_off_c, 0, 45, 95
3, 268320, Note_on_c, 0, 47, 95
3, 268800, Note_off_c, 0, 47, 95
3, 268800, Note_on_c, 0, 45, 95
3, 269280, Note_off_c, 0, 45, 95
3, 269280, Note_on_c, 0, 47, 95
3, 269760, Note_off_c, 0, 47, 95
3, 270240, Note_on_c, 0, 52, 95
3, 271200, Note_off_c, 0, 52, 95
3, 271200, Note_on_c, 0, 50, 95
3, 271680, Note_off_c, 0, 50, 95
3, 272160, Note_on_c, 0, 45, 95
3, 273120, Note_off_c, 0, 45, 95
3, 273120, Note_on_c, 0, 47, 95
3, 273600, Note_off_c, 0, 47, 95
3, 274080, Note_on_c, 0, 47, 95
3, 275040, Note_off_c, 0, 47, 95
3, 275040, Note_on_c, 0, 45, 95
3, 275520, Note_off_c, 0, 45, 95
3, 276000, Note_on_c, 0, 47, 95
3, 277920, Note_off_c, 0, 47, 95
3, 277920, Note_on_c, 0, 47, 95
3, 278400, Note_off_c, 0, 47, 95
3, 278880, Note_on_c, 0, 45, 95
3, 279360, Note_off_c, 0, 45, 95
3, 279840, Note_on_c, 0, 47, 95
3, 281760, Note_off_c, 0, 47, 95
3, 281760, Note_on_c, 0, 47, 95
3, 282240, Note_off_c, 0, 47, 95
3, 282720, Note_on_c, 0, 45, 95
3, 283200, Note_off_c, 0, 45, 95
3, 283680, Note_on_c, 0, 47, 95
3, 285600, Note_off_c, 0, 47, 95
3, 285600, Note_on_c, 0, 47, 95
3, 286080, Note_off_c, 0, 47, 95
3, 286560, Note_on_c, 0, 45, 95
3, 287040, Note_off_c, 0, 45, 95
3, 287520, Note_on_c, 0, 47, 95
3, 289440, Note_off_c, 0, 47, 95
3, 289440, Note_on_c, 0, 47, 95
3, 289920, Note_off_c, 0, 47, 95
3, 290400, Note_on_c, 0, 45, 95
3, 290880, Note_off_c, 0, 45, 95
3, 291360, Note_on_c, 0, 47, 95
3, 291840, Note_off_c, 0, 47, 95
3, 291840, Note_on_c, 0, 45, 95
3, 292320, Note_off_c, 0, 45, 95
3, 292320, Note_on_c, 0, 47, 95
3, 292800, Note_off_c, 0, 47, 95
3, 293280, Note_on_c, 0, 52, 95
3, 294240, Note_off_c, 0, 52, 95
3, 294240, Note_on_c, 0, 50, 95
3, 294720, Note_off_c, 0, 50, 95
3, 295200, Note_on_c, 0, 45, 95
3, 296160, Note_off_c, 0, 45, 95
3, 296160, Note_on_c, 0, 47, 95
3, 296640, Note_off_c, 0, 47, 95
3, 297120, Note_on_c, 0, 47, 95
3, 298080, Note_off_c, 0, 47, 95
3, 298080, Note_on_c, 0, 50, 95
3, 298560, Note_off_c, 0, 50, 95
3, 299040, Note_on_c, 0, 47, 95
3, 299520, Note_off_c, 0, 47, 95
3, 299520, Note_on_c, 0, 45, 95
3, 300000, Note_off_c, 0, 45, 95
3, 300000, Note_on_c, 0, 47, 95
3, 300480, Note_off_c, 0, 47, 95
3, 300960, Note_on_c, 0, 52, 95
3, 301920, Note_off_c, 0, 52, 95
3, 301920, Note_on_c, 0, 50, 95
3, 302400, Note_off_c, 0, 50, 95
3, 302880, Note_on_c, 0, 45, 95
3, 303840, Note_off_c, 0, 45, 95
3, 303840, Note_on_c, 0, 47, 95
3, 304320, Note_off_c, 0, 47, 95
3, 304800, Note_on_c, 0, 47, 95
3, 305760, Note_off_c, 0, 47, 95
3, 305760, Note_on_c, 0, 50, 95
3, 306240, Note_off_c, 0, 50, 95
3, 306720, Note_on_c, 0, 47, 95
3, 307200, Note_off_c, 0, 47, 95
3, 307200, Note_on_c, 0, 45, 95
3, 307680, Note_off_c, 0, 45, 95
3, 307680, Note_on_c, 0, 45, 95
3, 308160, Note_off_c, 0, 45, 95
3, 308160, Note_on_c, 0, 45, 95
3, 308640, Note_off_c, 0, 45, 95
3, 308640, Note_on_c, 0, 45, 95
3, 309120, Note_off_c, 0, 45, 95
3, 309120, Note_on_c, 0, 45, 95
3, 309600, Note_off_c, 0, 45, 95
3, 309600, Note_on_c, 0, 45, 95
3, 310080, Note_off_c, 0, 45, 95
3, 310080, Note_on_c, 0, 45, 95
3, 310560, Note_off_c, 0, 45, 95
3, 310560, Note_on_c, 0, 45, 95
3, 311040, Note_off_c, 0, 45, 95
3, 311040, Note_on_c, 0, 45, 95
3, 311520, Note_off_c, 0, 45, 95
3, 311520, Note_on_c, 0, 45, 95
3, 312000, Note_off_c, 0, 45, 95
3, 312000, Note_on_c, 0, 45, 95
3, 312480, Note_off_c, 0, 45, 95
3, 312480, Note_on_c, 0, 45, 95
3, 312960, Note_off_c, 0, 45, 95
3, 312960, Note_on_c, 0, 45, 95
3, 313440, Note_off_c, 0, 45, 95
3, 313440, Note_on_c, 0, 45, 95
3, 313920, Note_off_c, 0, 45, 95
3, 313920, Note_on_c, 0, 45, 95
3, 314400, Note_off_c, 0, 45, 95
3, 314400, Note_on_c, 0, 38, 95
3, 314880, Note_off_c, 0, 38, 95
3, 314880, Note_on_c, 0, 42, 95
3, 315360, Note_off_c, 0, 42, 95
3, 315360, Note_on_c, 0, 42, 95
3, 315840, Note_off_c, 0, 42, 95
3, 315840, Note_on_c, 0, 42, 95
3, 316320, Note_off_c, 0, 42, 95
3, 316320, Note_on_c, 0, 42, 95
3, 316800, Note_off_c, 0, 42, 95
3, 316800, Note_on_c, 0, 42, 95
3, 317280, Note_off_c, 0, 42, 95
3, 317280, Note_on_c, 0, 42, 95
3, 317760, Note_off_c, 0, 42, 95
3, 317760, Note_on_c, 0, 42, 95
3, 318240, Note_off_c, 0, 42, 95
3, 318240, Note_on_c, 0, 42, 95
3, 318720, Note_off_c, 0, 42, 95
3, 318720, Note_on_c, 0, 42, 95
3, 319200, Note_off_c, 0, 42, 95
3, 319200, Note_on_c, 0, 42, 95
3, 319680, Note_off_c, 0, 42, 95
3, 319680, Note_on_c, 0, 42, 95
3, 320160, Note_off_c, 0, 42, 95
3, 320160, Note_on_c, 0, 42, 95
3, 320640, Note_off_c, 0, 42, 95
3, 320640, Note_on_c, 0, 42, 95
3, 321120, Note_off_c, 0, 42, 95
3, 321120, Note_on_c, 0, 42, 95
3, 321600, Note_off_c, 0, 42, 95
3, 321600, Note_on_c, 0, 42, 95
3, 322080, Note_off_c, 0, 42, 95
3, 322080, Note_on_c, 0, 42, 95
3, 322560, Note_off_c, 0, 42, 95
3, 322560, Note_on_c, 0, 45, 95
3, 323040, Note_off_c, 0, 45, 95
3, 323040, Note_on_c, 0, 47, 95
3, 323520, Note_off_c, 0, 47, 95
3, 324000, Note_on_c, 0, 52, 95
3, 324960, Note_off_c, 0, 52, 95
3, 324960, Note_on_c, 0, 50, 95
3, 325440, Note_off_c, 0, 50, 95
3, 325920, Note_on_c, 0, 45, 95
3, 326880, Note_off_c, 0, 45, 95
3, 326880, Note_on_c, 0, 47, 95
3, 327360, Note_off_c, 0, 47, 95
3, 327840, Note_on_c, 0, 47, 95
3, 328800, Note_off_c, 0, 47, 95
3, 328800, Note_on_c, 0, 50, 95
3, 329280, Note_off_c, 0, 50, 95
3, 329760, Note_on_c, 0, 47, 95
3, 330240, Note_off_c, 0, 47, 95
3, 330240, Note_on_c, 0, 45, 95
3, 330720, Note_off_c, 0, 45, 95
3, 330720, Note_on_c, 0, 47, 95
3, 331200, Note_off_c, 0, 47, 95
3, 331680, Note_on_c, 0, 52, 95
3, 332640, Note_off_c, 0, 52, 95
3, 332640, Note_on_c, 0, 50, 95
3, 333120, Note_off_c, 0, 50, 95
3, 333600, Note_on_c, 0, 45, 95
3, 334560, Note_off_c, 0, 45, 95
3, 334560, Note_on_c, 0, 47, 95
3, 335040, Note_off_c, 0, 47, 95
3, 335520, Note_on_c, 0, 47, 95
3, 336480, Note_off_c, 0, 47, 95
3, 336480, Note_on_c, 0, 50, 95
3, 336960, Note_off_c, 0, 50, 95
3, 337440, Note_on_c, 0, 47, 95
3, 337920, Note_off_c, 0, 47, 95
3, 337920, Note_on_c, 0, 45, 95
3, 338400, Note_off_c, 0, 45, 95
3, 338400, Note_on_c, 0, 45, 95
3, 338880, Note_off_c, 0, 45, 95
3, 338880, Note_on_c, 0, 45, 95
3, 339360, Note_off_c, 0, 45, 95
3, 339360, Note_on_c, 0, 45, 95
3, 339840, Note_off_c, 0, 45, 95
3, 339840, Note_on_c, 0, 45, 95
3, 340320, Note_off_c, 0, 45, 95
3, 340320, Note_on_c, 0, 45, 95
3, 340800, Note_off_c, 0, 45, 95
3, 340800, Note_on_c, 0, 45, 95
3, 341280, Note_off_c, 0, 45, 95
3, 341280, Note_on_c, 0, 45, 95
3, 341760, Note_off_c, 0, 45, 95
3, 341760, Note_on_c, 0, 45, 95
3, 342240, Note_off_c, 0, 45, 95
3, 342240, Note_on_c, 0, 45, 95
3, 342720, Note_off_c, 0, 45, 95
3, 342720, Note_on_c, 0, 45, 95
3, 343200, Note_off_c, 0, 45, 95
3, 343200, Note_on_c, 0, 45, 95
3, 343680, Note_off_c, 0, 45, 95
3, 343680, Note_on_c, 0, 45, 95
3, 344160, Note_off_c, 0, 45, 95
3, 344160, Note_on_c, 0, 45, 95
3, 344640, Note_off_c, 0, 45, 95
3, 344640, Note_on_c, 0, 45, 95
3, 345120, Note_off_c, 0, 45, 95
3, 345120, Note_on_c, 0, 38, 95
3, 345600, Note_off_c, 0, 38, 95
3, 345600, Note_on_c, 0, 42, 95
3, 346080, Note_off_c, 0, 42, 95
3, 346080, Note_on_c, 0, 42, 95
3, 346560, Note_off_c, 0, 42, 95
3, 346560, Note_on_c, 0, 42, 95
3, 347040, Note_off_c, 0, 42, 95
3, 347040, Note_on_c, 0, 42, 95
3, 347520, Note_off_c, 0, 42, 95
3, 347520, Note_on_c, 0, 42, 95
3, 348000, Note_off_c, 0, 42, 95
3, 348000, Note_on_c, 0, 42, 95
3, 348480, Note_off_c, 0, 42, 95
3, 348480, Note_on_c, 0, 42, 95
3, 348960, Note_off_c, 0, 42, 95
3, 348960, Note_on_c, 0, 42, 95
3, 349440, Note_off_c, 0, 42, 95
3, 349440, Note_on_c, 0, 42, 95
3, 349920, Note_off_c, 0, 42, 95
3, 349920, Note_on_c, 0, 42, 95
3, 350400, Note_off_c, 0, 42, 95
3, 350400, Note_on_c, 0, 42, 95
3, 350880, Note_off_c, 0, 42, 95
3, 350880, Note_on_c, 0, 42, 95
3, 351360, Note_off_c, 0, 42, 95
3, 351360, Note_on_c, 0, 42, 95
3, 351840, Note_off_c, 0, 42, 95
3, 351840, Note_on_c, 0, 42, 95
3, 352320, Note_off_c, 0, 42, 95
3, 352320, Note_on_c, 0, 42, 95
3, 352800, Note_off_c, 0, 42, 95
3, 352800, Note_on_c, 0, 42, 95
3, 353280, Note_off_c, 0, 42, 95
3, 353280, Note_on_c, 0, 45, 95
3, 353760, Note_off_c, 0, 45, 95
3, 353760, Note_on_c, 0, 47, 95
3, 354240, Note_off_c, 0, 47, 95
3, 354720, Note_on_c, 0, 52, 95
3, 355680, Note_off_c, 0, 52, 95
3, 355680, Note_on_c, 0, 50, 95
3, 356160, Note_off_c, 0, 50, 95
3, 356640, Note_on_c, 0, 45, 95
3, 357600, Note_off_c, 0, 45, 95
3, 357600, Note_on_c, 0, 47, 95
3, 358080, Note_off_c, 0, 47, 95
3, 358560, Note_on_c, 0, 47, 95
3, 359520, Note_off_c, 0, 47, 95
3, 359520, Note_on_c, 0, 50, 95
3, 360000, Note_off_c, 0, 50, 95
3, 360480, Note_on_c, 0, 47, 95
3, 360960, Note_off_c, 0, 47, 95
3, 360960, Note_on_c, 0, 45, 95
3, 361440, Note_off_c, 0, 45, 95
3, 361440, Note_on_c, 0, 47, 95
3, 361920, Note_off_c, 0, 47, 95
3, 362400, Note_on_c, 0, 52, 95
3, 363360, Note_off_c, 0, 52, 95
3, 363360, Note_on_c, 0, 50, 95
3, 363840, Note_off_c, 0, 50, 95
3, 364320, Note_on_c, 0, 45, 95
3, 365280, Note_off_c, 0, 45, 95
3, 365280, Note_on_c, 0, 47, 95
3, 365760, Note_off_c, 0, 47, 95
3, 366240, Note_on_c, 0, 47, 95
3, 367200, Note_off_c, 0, 47, 95
3, 367200, Note_on_c, 0, 50, 95
3, 367680, Note_off_c, 0, 50, 95
3, 368160, Note_on_c, 0, 47, 95
3, 368640, Note_on_c, 0, 35, 95
3, 370080, Note_off_c, 0, 47, 95
3, 370080, Note_off_c, 0, 35, 95
3, 370080, Note_on_c, 0, 35, 95
3, 370560, Note_off_c, 0, 35, 95
3, 371040, Note_on_c, 0, 33, 95
3, 371520, Note_off_c, 0, 33, 95
3, 372000, Note_on_c, 0, 35, 95
3, 373920, Note_off_c, 0, 35, 95
3, 373920, Note_on_c, 0, 35, 95
3, 374400, Note_off_c, 0, 35, 95
3, 374880, Note_on_c, 0, 33, 95
3, 375360, Note_off_c, 0, 33, 95
3, 375840, Note_on_c, 0, 35, 95
3, 377760, Note_off_c, 0, 35, 95
3, 377760, Note_on_c, 0, 35, 95
3, 378240, Note_off_c, 0, 35, 95
3, 378720, Note_on_c, 0, 33, 95
3, 379200, Note_off_c, 0, 33, 95
3, 379680, Note_on_c, 0, 35, 95
3, 381600, Note_off_c, 0, 35, 95
3, 381600, Note_on_c, 0, 35, 95
3, 382080, Note_off_c, 0, 35, 95
3, 382560, Note_on_c, 0, 35, 95
3, 383040, Note_off_c, 0, 35, 95
3, 383040, Note_on_c, 0, 36, 95
3, 383520, Note_off_c, 0, 36, 95
3, 383520, Note_on_c, 0, 37, 95
3, 384000, Note_off_c, 0, 37, 95
3, 384000, Note_on_c, 0, 38, 95
3, 385440, Note_off_c, 0, 38, 95
3, 385440, Note_on_c, 0, 38, 95
3, 385920, Note_off_c, 0, 38, 95
3, 386400, Note_on_c, 0, 36, 95
3, 386880, Note_off_c, 0, 36, 95
3, 387360, Note_on_c, 0, 38, 95
3, 389280, Note_off_c, 0, 38, 95
3, 389280, Note_on_c, 0, 38, 95
3, 389760, Note_off_c, 0, 38, 95
3, 390240, Note_on_c, 0, 36, 95
3, 390720, Note_off_c, 0, 36, 95
3, 391200, Note_on_c, 0, 33, 95
3, 391680, Note_off_c, 0, 33, 95
3, 391680, Note_on_c, 0, 33, 95
3, 393120, Note_off_c, 0, 33, 95
3, 393120, Note_on_c, 0, 33, 95
3, 393600, Note_off_c, 0, 33, 95
3, 394080, Note_on_c, 0, 31, 95
3, 394560, Note_off_c, 0, 31, 95
3, 395040, Note_on_c, 0, 33, 95
3, 396960, Note_off_c, 0, 33, 95
3, 396960, Note_on_c, 0, 33, 95
3, 397440, Note_off_c, 0, 33, 95
3, 397920, Note_on_c, 0, 31, 95
3, 398400, Note_off_c, 0, 31, 95
3, 398880, Note_on_c, 0, 33, 95
3, 399360, Note_off_c, 0, 33, 95
3, 399360, Note_on_c, 0, 40, 95
3, 400320, Note_off_c, 0, 40, 95
3, 400320, Note_on_c, 0, 40, 95
3, 401280, Note_off_c, 0, 40, 95
3, 401280, Note_on_c, 0, 38, 95
3, 401760, Note_off_c, 0, 38, 95
3, 401760, Note_on_c, 0, 40, 95
3, 402240, Note_off_c, 0, 40, 95
3, 402240, Note_on_c, 0, 38, 95
3, 402720, Note_off_c, 0, 38, 95
3, 402720, Note_on_c, 0, 40, 95
3, 404160, Note_off_c, 0, 40, 95
3, 404160, Note_on_c, 0, 40, 95
3, 405120, Note_off_c, 0, 40, 95
3, 405120, Note_on_c, 0, 38, 95
3, 405600, Note_off_c, 0, 38, 95
3, 405600, Note_on_c, 0, 40, 95
3, 406080, Note_off_c, 0, 40, 95
3, 406080, Note_on_c, 0, 38, 95
3, 406560, Note_off_c, 0, 38, 95
3, 406560, Note_on_c, 0, 40, 95
3, 408000, Note_off_c, 0, 40, 95
3, 408000, Note_on_c, 0, 40, 95
3, 408960, Note_off_c, 0, 40, 95
3, 408960, Note_on_c, 0, 40, 95
3, 409440, Note_off_c, 0, 40, 95
3, 409440, Note_on_c, 0, 38, 95
3, 409920, Note_off_c, 0, 38, 95
3, 409920, Note_on_c, 0, 33, 95
3, 410400, Note_off_c, 0, 33, 95
3, 410400, Note_on_c, 0, 34, 95
3, 410880, Note_off_c, 0, 34, 95
3, 410880, Note_on_c, 0, 35, 95
3, 412320, Note_off_c, 0, 35, 95
3, 412320, Note_on_c, 0, 35, 95
3, 412800, Note_off_c, 0, 35, 95
3, 413280, Note_on_c, 0, 33, 95
3, 413760, Note_off_c, 0, 33, 95
3, 414240, Note_on_c, 0, 35, 95
3, 416160, Note_off_c, 0, 35, 95
3, 416160, Note_on_c, 0, 35, 95
3, 416640, Note_off_c, 0, 35, 95
3, 417120, Note_on_c, 0, 33, 95
3, 417600, Note_off_c, 0, 33, 95
3, 418080, Note_on_c, 0, 35, 95
3, 420000, Note_off_c, 0, 35, 95
3, 420000, Note_on_c, 0, 35, 95
3, 420480, Note_off_c, 0, 35, 95
3, 420960, Note_on_c, 0, 33, 95
3, 421440, Note_off_c, 0, 33, 95
3, 421920, Note_on_c, 0, 35, 95
3, 423840, Note_off_c, 0, 35, 95
3, 423840, Note_on_c, 0, 35, 95
3, 424320, Note_off_c, 0, 35, 95
3, 424800, Note_on_c, 0, 35, 95
3, 425280, Note_off_c, 0, 35, 95
3, 425280, Note_on_c, 0, 36, 95
3, 425760, Note_off_c, 0, 36, 95
3, 425760, Note_on_c, 0, 37, 95
3, 426240, Note_off_c, 0, 37, 95
3, 426240, Note_on_c, 0, 38, 95
3, 427680, Note_off_c, 0, 38, 95
3, 427680, Note_on_c, 0, 38, 95
3, 428160, Note_off_c, 0, 38, 95
3, 428640, Note_on_c, 0, 36, 95
3, 429120, Note_off_c, 0, 36, 95
3, 429600, Note_on_c, 0, 38, 95
3, 431520, Note_off_c, 0, 38, 95
3, 431520, Note_on_c, 0, 38, 95
3, 432000, Note_off_c, 0, 38, 95
3, 432480, Note_on_c, 0, 36, 95
3, 432960, Note_off_c, 0, 36, 95
3, 433440, Note_on_c, 0, 33, 95
3, 433920, Note_off_c, 0, 33, 95
3, 433920, Note_on_c, 0, 33, 95
3, 435360, Note_off_c, 0, 33, 95
3, 435360, Note_on_c, 0, 33, 95
3, 435840, Note_off_c, 0, 33, 95
3, 436320, Note_on_c, 0, 31, 95
3, 436800, Note_off_c, 0, 31, 95
3, 437280, Note_on_c, 0, 33, 95
3, 439200, Note_off_c, 0, 33, 95
3, 439200, Note_on_c, 0, 33, 95
3, 439680, Note_off_c, 0, 33, 95
3, 440160, Note_on_c, 0, 31, 95
3, 440640, Note_off_c, 0, 31, 95
3, 441120, Note_on_c, 0, 33, 95
3, 441600, Note_off_c, 0, 33, 95
3, 441600, Note_on_c, 0, 40, 95
3, 442560, Note_off_c, 0, 40, 95
3, 442560, Note_on_c, 0, 40, 95
3, 443520, Note_off_c, 0, 40, 95
3, 443520, Note_on_c, 0, 38, 95
3, 444000, Note_off_c, 0, 38, 95
3, 444000, Note_on_c, 0, 40, 95
3, 444480, Note_off_c, 0, 40, 95
3, 444480, Note_on_c, 0, 38, 95
3, 444960, Note_off_c, 0, 38, 95
3, 444960, Note_on_c, 0, 40, 95
3, 446400, Note_off_c, 0, 40, 95
3, 446400, Note_on_c, 0, 40, 95
3, 447360, Note_off_c, 0, 40, 95
3, 447360, Note_on_c, 0, 38, 95
3, 447840, Note_off_c, 0, 38, 95
3, 447840, Note_on_c, 0, 40, 95
3, 448320, Note_off_c, 0, 40, 95
3, 448320, Note_on_c, 0, 38, 95
3, 448800, Note_off_c, 0, 38, 95
3, 448800, Note_on_c, 0, 40, 95
3, 450240, Note_off_c, 0, 40, 95
3, 450240, Note_on_c, 0, 40, 95
3, 451200, Note_off_c, 0, 40, 95
3, 451200, Note_on_c, 0, 40, 95
3, 451680, Note_off_c, 0, 40, 95
3, 451680, Note_on_c, 0, 38, 95
3, 452160, Note_off_c, 0, 38, 95
3, 452160, Note_on_c, 0, 33, 95
3, 452640, Note_off_c, 0, 33, 95
3, 452640, Note_on_c, 0, 34, 95
3, 453120, Note_off_c, 0, 34, 95
3, 453120, Note_on_c, 0, 35, 95
3, 454560, Note_off_c, 0, 35, 95
3, 454560, Note_on_c, 0, 35, 95
3, 455040, Note_off_c, 0, 35, 95
3, 455520, Note_on_c, 0, 33, 95
3, 456000, Note_off_c, 0, 33, 95
3, 456480, Note_on_c, 0, 35, 95
3, 458400, Note_off_c, 0, 35, 95
3, 458400, Note_on_c, 0, 35, 95
3, 458880, Note_off_c, 0, 35, 95
3, 459360, Note_on_c, 0, 33, 95
3, 459840, Note_off_c, 0, 33, 95
3, 460320, Note_on_c, 0, 35, 95
3, 462240, Note_off_c, 0, 35, 95
3, 462240, Note_on_c, 0, 35, 95
3, 462720, Note_off_c, 0, 35, 95
3, 463200, Note_on_c, 0, 33, 95
3, 463680, Note_off_c, 0, 33, 95
3, 464160, Note_on_c, 0, 35, 95
3, 466080, Note_off_c, 0, 35, 95
3, 466080, Note_on_c, 0, 35, 95
3, 466560, Note_off_c, 0, 35, 95
3, 467040, Note_on_c, 0, 35, 95
3, 467520, Note_off_c, 0, 35, 95
3, 467520, Note_on_c, 0, 36, 95
3, 468000, Note_off_c, 0, 36, 95
3, 468000, Note_on_c, 0, 37, 95
3, 468480, Note_off_c, 0, 37, 95
3, 468480, Note_on_c, 0, 38, 95
3, 469920, Note_off_c, 0, 38, 95
3, 469920, Note_on_c, 0, 38, 95
3, 470400, Note_off_c, 0, 38, 95
3, 470880, Note_on_c, 0, 36, 95
3, 471360, Note_off_c, 0, 36, 95
3, 471840, Note_on_c, 0, 38, 95
3, 473760, Note_off_c, 0, 38, 95
3, 473760, Note_on_c, 0, 38, 95
3, 474240, Note_off_c, 0, 38, 95
3, 474720, Note_on_c, 0, 36, 95
3, 475200, Note_off_c, 0, 36, 95
3, 475680, Note_on_c, 0, 33, 95
3, 476160, Note_off_c, 0, 33, 95
3, 476160, Note_on_c, 0, 33, 95
3, 477600, Note_off_c, 0, 33, 95
3, 477600, Note_on_c, 0, 33, 95
3, 478080, Note_off_c, 0, 33, 95
3, 478560, Note_on_c, 0, 31, 95
3, 479040, Note_off_c, 0, 31, 95
3, 479520, Note_on_c, 0, 33, 95
3, 481440, Note_off_c, 0, 33, 95
3, 481440, Note_on_c, 0, 33, 95
3, 481920, Note_off_c, 0, 33, 95
3, 482400, Note_on_c, 0, 31, 95
3, 482880, Note_off_c, 0, 31, 95
3, 483360, Note_on_c, 0, 33, 95
3, 483840, Note_off_c, 0, 33, 95
3, 483840, Note_on_c, 0, 40, 95
3, 484800, Note_off_c, 0, 40, 95
3, 484800, Note_on_c, 0, 40, 95
3, 485760, Note_off_c, 0, 40, 95
3, 485760, Note_on_c, 0, 38, 95
3, 486240, Note_off_c, 0, 38, 95
3, 486240, Note_on_c, 0, 40, 95
3, 486720, Note_off_c, 0, 40, 95
3, 486720, Note_on_c, 0, 38, 95
3, 487200, Note_off_c, 0, 38, 95
3, 487200, Note_on_c, 0, 40, 95
3, 488640, Note_off_c, 0, 40, 95
3, 488640, Note_on_c, 0, 40, 95
3, 489600, Note_off_c, 0, 40, 95
3, 489600, Note_on_c, 0, 38, 95
3, 490080, Note_off_c, 0, 38, 95
3, 490080, Note_on_c, 0, 40, 95
3, 490560, Note_off_c, 0, 40, 95
3, 490560, Note_on_c, 0, 38, 95
3, 491040, Note_off_c, 0, 38, 95
3, 491040, Note_on_c, 0, 40, 95
3, 492480, Note_off_c, 0, 40, 95
3, 492480, Note_on_c, 0, 40, 95
3, 493440, Note_off_c, 0, 40, 95
3, 493440, Note_on_c, 0, 40, 95
3, 493920, Note_off_c, 0, 40, 95
3, 493920, Note_on_c, 0, 38, 95
3, 494400, Note_off_c, 0, 38, 95
3, 494400, Note_on_c, 0, 33, 95
3, 494880, Note_off_c, 0, 33, 95
3, 494880, Note_on_c, 0, 34, 95
3, 495360, Note_off_c, 0, 34, 95
3, 495360, Note_on_c, 0, 35, 95
3, 496800, Note_off_c, 0, 35, 95
3, 496800, Note_on_c, 0, 35, 95
3, 497280, Note_off_c, 0, 35, 95
3, 497760, Note_on_c, 0, 33, 95
3, 498240, Note_off_c, 0, 33, 95
3, 498720, Note_on_c, 0, 35, 95
3, 500640, Note_off_c, 0, 35, 95
3, 500640, Note_on_c, 0, 35, 95
3, 501120, Note_off_c, 0, 35, 95
3, 501600, Note_on_c, 0, 33, 95
3, 502080, Note_off_c, 0, 33, 95
3, 502560, Note_on_c, 0, 35, 95
3, 504480, Note_off_c, 0, 35, 95
3, 504480, Note_on_c, 0, 35, 95
3, 504960, Note_off_c, 0, 35, 95
3, 505440, Note_on_c, 0, 33, 95
3, 505920, Note_off_c, 0, 33, 95
3, 506400, Note_on_c, 0, 35, 95
3, 508320, Note_off_c, 0, 35, 95
3, 508320, Note_on_c, 0, 35, 95
3, 508800, Note_off_c, 0, 35, 95
3, 509280, Note_on_c, 0, 35, 95
3, 509760, Note_off_c, 0, 35, 95
3, 509760, Note_on_c, 0, 36, 95
3, 510240, Note_off_c, 0, 36, 95
3, 510240, Note_on_c, 0, 37, 95
3, 510720, Note_off_c, 0, 37, 95
3, 510720, Note_on_c, 0, 38, 95
3, 512160, Note_off_c, 0, 38, 95
3, 512160, Note_on_c, 0, 38, 95
3, 512640, Note_off_c, 0, 38, 95
3, 513120, Note_on_c, 0, 36, 95
3, 513600, Note_off_c, 0, 36, 95
3, 514080, Note_on_c, 0, 38, 95
3, 516000, Note_off_c, 0, 38, 95
3, 516000, Note_on_c, 0, 38, 95
3, 516480, Note_off_c, 0, 38, 95
3, 516960, Note_on_c, 0, 36, 95
3, 517440, Note_off_c, 0, 36, 95
3, 517920, Note_on_c, 0, 33, 95
3, 518400, Note_off_c, 0, 33, 95
3, 518400, Note_on_c, 0, 33, 95
3, 519840, Note_off_c, 0, 33, 95
3, 519840, Note_on_c, 0, 33, 95
3, 520320, Note_off_c, 0, 33, 95
3, 520800, Note_on_c, 0, 31, 95
3, 521280, Note_off_c, 0, 31, 95
3, 521760, Note_on_c, 0, 33, 95
3, 523680, Note_off_c, 0, 33, 95
3, 523680, Note_on_c, 0, 33, 95
3, 524160, Note_off_c, 0, 33, 95
3, 524640, Note_on_c, 0, 31, 95
3, 525120, Note_off_c, 0, 31, 95
3, 525600, Note_on_c, 0, 33, 95
3, 526080, Note_off_c, 0, 33, 95
3, 526080, Note_on_c, 0, 40, 95
3, 527040, Note_off_c, 0, 40, 95
3, 527040, Note_on_c, 0, 40, 95
3, 528000, Note_off_c, 0, 40, 95
3, 528000, Note_on_c, 0, 38, 95
3, 528480, Note_off_c, 0, 38, 95
3, 528480, Note_on_c, 0, 40, 95
3, 528960, Note_off_c, 0, 40, 95
3, 528960, Note_on_c, 0, 38, 95
3, 529440, Note_off_c, 0, 38, 95
3, 529440, Note_on_c, 0, 40, 95
3, 530880, Note_off_c, 0, 40, 95
3, 530880, Note_on_c, 0, 40, 95
3, 531840, Note_off_c, 0, 40, 95
3, 531840, Note_on_c, 0, 38, 95
3, 532320, Note_off_c, 0, 38, 95
3, 532320, Note_on_c, 0, 40, 95
3, 532800, Note_off_c, 0, 40, 95
3, 532800, Note_on_c, 0, 38, 95
3, 533280, Note_off_c, 0, 38, 95
3, 533280, Note_on_c, 0, 40, 95
3, 534720, Note_off_c, 0, 40, 95
3, 534720, Note_on_c, 0, 40, 95
3, 535680, Note_off_c, 0, 40, 95
3, 535680, Note_on_c, 0, 40, 95
3, 536160, Note_off_c, 0, 40, 95
3, 536160, Note_on_c, 0, 38, 95
3, 536640, Note_off_c, 0, 38, 95
3, 536640, Note_on_c, 0, 33, 95
3, 537120, Note_off_c, 0, 33, 95
3, 537120, Note_on_c, 0, 34, 95
3, 537600, Note_off_c, 0, 34, 95
3, 537600, Note_on_c, 0, 35, 95
3, 539040, Note_off_c, 0, 35, 95
3, 539040, Note_on_c, 0, 35, 95
3, 539520, Note_off_c, 0, 35, 95
3, 540000, Note_on_c, 0, 33, 95
3, 540480, Note_off_c, 0, 33, 95
3, 540960, Note_on_c, 0, 35, 95
3, 542880, Note_off_c, 0, 35, 95
3, 542880, Note_on_c, 0, 35, 95
3, 543360, Note_off_c, 0, 35, 95
3, 543840, Note_on_c, 0, 33, 95
3, 544320, Note_off_c, 0, 33, 95
3, 544800, Note_on_c, 0, 35, 95
3, 546720, Note_off_c, 0, 35, 95
3, 546720, Note_on_c, 0, 35, 95
3, 547200, Note_off_c, 0, 35, 95
3, 547680, Note_on_c, 0, 33, 95
3, 548160, Note_off_c, 0, 33, 95
3, 548640, Note_on_c, 0, 35, 95
3, 550560, Note_off_c, 0, 35, 95
3, 550560, Note_on_c, 0, 35, 95
3, 551040, Note_off_c, 0, 35, 95
3, 551520, Note_on_c, 0, 35, 95
3, 552000, Note_off_c, 0, 35, 95
3, 552000, Note_on_c, 0, 36, 95
3, 552480, Note_off_c, 0, 36, 95
3, 552480, Note_on_c, 0, 37, 95
3, 552960, Note_off_c, 0, 37, 95
3, 552960, Note_on_c, 0, 38, 95
3, 554400, Note_off_c, 0, 38, 95
3, 554400, Note_on_c, 0, 38, 95
3, 554880, Note_off_c, 0, 38, 95
3, 555360, Note_on_c, 0, 36, 95
3, 555840, Note_off_c, 0, 36, 95
3, 556320, Note_on_c, 0, 38, 95
3, 558240, Note_off_c, 0, 38, 95
3, 558240, Note_on_c, 0, 38, 95
3, 558720, Note_off_c, 0, 38, 95
3, 559200, Note_on_c, 0, 36, 95
3, 559680, Note_off_c, 0, 36, 95
3, 560160, Note_on_c, 0, 33, 95
3, 560640, Note_off_c, 0, 33, 95
3, 560640, Note_on_c, 0, 33, 95
3, 562080, Note_off_c, 0, 33, 95
3, 562080, Note_on_c, 0, 33, 95
3, 562560, Note_off_c, 0, 33, 95
3, 563040, Note_on_c, 0, 31, 95
3, 563520, Note_off_c, 0, 31, 95
3, 564000, Note_on_c, 0, 33, 95
3, 565920, Note_off_c, 0, 33, 95
3, 565920, Note_on_c, 0, 33, 95
3, 566400, Note_off_c, 0, 33, 95
3, 566880, Note_on_c, 0, 31, 95
3, 567360, Note_off_c, 0, 31, 95
3, 567840, Note_on_c, 0, 33, 95
3, 568320, Note_off_c, 0, 33, 95
3, 568320, Note_on_c, 0, 40, 95
3, 569280, Note_off_c, 0, 40, 95
3, 569280, Note_on_c, 0, 40, 95
3, 570240, Note_off_c, 0, 40, 95
3, 570240, Note_on_c, 0, 38, 95
3, 570720, Note_off_c, 0, 38, 95
3, 570720, Note_on_c, 0, 40, 95
3, 571200, Note_off_c, 0, 40, 95
3, 571200, Note_on_c, 0, 38, 95
3, 571680, Note_off_c, 0, 38, 95
3, 571680, Note_on_c, 0, 40, 95
3, 573120, Note_off_c, 0, 40, 95
3, 573120, Note_on_c, 0, 40, 95
3, 574080, Note_off_c, 0, 40, 95
3, 574080, Note_on_c, 0, 38, 95
3, 574560, Note_off_c, 0, 38, 95
3, 574560, Note_on_c, 0, 40, 95
3, 575040, Note_off_c, 0, 40, 95
3, 575040, Note_on_c, 0, 38, 95
3, 575520, Note_off_c, 0, 38, 95
3, 575520, Note_on_c, 0, 40, 95
3, 576960, Note_off_c, 0, 40, 95
3, 576960, Note_on_c, 0, 40, 95
3, 577920, Note_off_c, 0, 40, 95
3, 577920, Note_on_c, 0, 40, 95
3, 578400, Note_off_c, 0, 40, 95
3, 578400, Note_on_c, 0, 38, 95
3, 578880, Note_off_c, 0, 38, 95
3, 578880, Note_on_c, 0, 33, 95
3, 579360, Note_off_c, 0, 33, 95
3, 579360, Note_on_c, 0, 34, 95
3, 579840, Note_off_c, 0, 34, 95
3, 579840, Note_on_c, 0, 35, 95
3, 581280, Note_off_c, 0, 35, 95
3, 581280, Note_on_c, 0, 35, 95
3, 581760, Note_off_c, 0, 35, 95
3, 582240, Note_on_c, 0, 33, 95
3, 582720, Note_off_c, 0, 33, 95
3, 583200, Note_on_c, 0, 35, 95
3, 585120, Note_off_c, 0, 35, 95
3, 585120, Note_on_c, 0, 35, 95
3, 585600, Note_off_c, 0, 35, 95
3, 586080, Note_on_c, 0, 33, 95
3, 586560, Note_off_c, 0, 33, 95
3, 587040, Note_on_c, 0, 35, 95
3, 588960, Note_off_c, 0, 35, 95
3, 588960, Note_on_c, 0, 35, 95
3, 589440, Note_off_c, 0, 35, 95
3, 589920, Note_on_c, 0, 33, 95
3, 590400, Note_off_c, 0, 33, 95
3, 590880, Note_on_c, 0, 35, 95
3, 592800, Note_off_c, 0, 35, 95
3, 592800, Note_on_c, 0, 35, 95
3, 593280, Note_off_c, 0, 35, 95
3, 593760, Note_on_c, 0, 35, 95
3, 594240, Note_off_c, 0, 35, 95
3, 594240, Note_on_c, 0, 36, 95
3, 594720, Note_off_c, 0, 36, 95
3, 594720, Note_on_c, 0, 37, 95
3, 595200, Note_off_c, 0, 37, 95
3, 595200, Note_on_c, 0, 38, 95
3, 596640, Note_off_c, 0, 38, 95
3, 596640, Note_on_c, 0, 38, 95
3, 597120, Note_off_c, 0, 38, 95
3, 597600, Note_on_c, 0, 36, 95
3, 598080, Note_off_c, 0, 36, 95
3, 598560, Note_on_c, 0, 38, 95
3, 600480, Note_off_c, 0, 38, 95
3, 600480, Note_on_c, 0, 38, 95
3, 600960, Note_off_c, 0, 38, 95
3, 601440, Note_on_c, 0, 36, 95
3, 601920, Note_off_c, 0, 36, 95
3, 602400, Note_on_c, 0, 33, 95
3, 602880, Note_off_c, 0, 33, 95
3, 602880, Note_on_c, 0, 33, 95
3, 604320, Note_off_c, 0, 33, 95
3, 604320, Note_on_c, 0, 33, 95
3, 604800, Note_off_c, 0, 33, 95
3, 605280, Note_on_c, 0, 31, 95
3, 605760, Note_off_c, 0, 31, 95
3, 606240, Note_on_c, 0, 33, 95
3, 608160, Note_off_c, 0, 33, 95
3, 608160, Note_on_c, 0, 33, 95
3, 608640, Note_off_c, 0, 33, 95
3, 609120, Note_on_c, 0, 31, 95
3, 609600, Note_off_c, 0, 31, 95
3, 610080, Note_on_c, 0, 33, 95
3, 610560, Note_off_c, 0, 33, 95
3, 610560, Note_on_c, 0, 40, 95
3, 611520, Note_off_c, 0, 40, 95
3, 611520, Note_on_c, 0, 40, 95
3, 612480, Note_off_c, 0, 40, 95
3, 612480, Note_on_c, 0, 38, 95
3, 612960, Note_off_c, 0, 38, 95
3, 612960, Note_on_c, 0, 40, 95
3, 613440, Note_off_c, 0, 40, 95
3, 613440, Note_on_c, 0, 38, 95
3, 613920, Note_off_c, 0, 38, 95
3, 613920, Note_on_c, 0, 40, 95
3, 615360, Note_off_c, 0, 40, 95
3, 615360, Note_on_c, 0, 40, 95
3, 616320, Note_off_c, 0, 40, 95
3, 616320, Note_on_c, 0, 38, 95
3, 616800, Note_off_c, 0, 38, 95
3, 616800, Note_on_c, 0, 40, 95
3, 617280, Note_off_c, 0, 40, 95
3, 617280, Note_on_c, 0, 38, 95
3, 617760, Note_off_c, 0, 38, 95
3, 617760, Note_on_c, 0, 40, 95
3, 619200, Note_off_c, 0, 40, 95
3, 619200, Note_on_c, 0, 40, 95
3, 620160, Note_off_c, 0, 40, 95
3, 620160, Note_on_c, 0, 40, 95
3, 620640, Note_off_c, 0, 40, 95
3, 620640, Note_on_c, 0, 38, 95
3, 621120, Note_off_c, 0, 38, 95
3, 621120, Note_on_c, 0, 33, 95
3, 621600, Note_off_c, 0, 33, 95
3, 621600, Note_on_c, 0, 34, 95
3, 622080, Note_off_c, 0, 34, 95
3, 622080, Note_on_c, 0, 35, 95
3, 623520, Note_off_c, 0, 35, 95
3, 623520, Note_on_c, 0, 35, 95
3, 624000, Note_off_c, 0, 35, 95
3, 624480, Note_on_c, 0, 33, 95
3, 624960, Note_off_c, 0, 33, 95
3, 625440, Note_on_c, 0, 35, 95
3, 627360, Note_off_c, 0, 35, 95
3, 627360, Note_on_c, 0, 35, 95
3, 627840, Note_off_c, 0, 35, 95
3, 628320, Note_on_c, 0, 33, 95
3, 628800, Note_off_c, 0, 33, 95
3, 629280, Note_on_c, 0, 35, 95
3, 631200, Note_off_c, 0, 35, 95
3, 631200, Note_on_c, 0, 35, 95
3, 631680, Note_off_c, 0, 35, 95
3, 632160, Note_on_c, 0, 33, 95
3, 632640, Note_off_c, 0, 33, 95
3, 633120, Note_on_c, 0, 35, 95
3, 635040, Note_off_c, 0, 35, 95
3, 635040, Note_on_c, 0, 30, 95
3, 635520, Note_off_c, 0, 30, 95
3, 636000, Note_on_c, 0, 33, 95
3, 636480, Note_off_c, 0, 33, 95
3, 636960, Note_on_c, 0, 35, 95
3, 638880, Note_off_c, 0, 35, 95
3, 638880, Note_on_c, 0, 35, 95
3, 639360, Note_off_c, 0, 35, 95
3, 639840, Note_on_c, 0, 33, 95
3, 640320, Note_off_c, 0, 33, 95
3, 640800, Note_on_c, 0, 35, 95
3, 642720, Note_off_c, 0, 35, 95
3, 642720, Note_on_c, 0, 35, 95
3, 643200, Note_off_c, 0, 35, 95
3, 643680, Note_on_c, 0, 33, 95
3, 644160, Note_off_c, 0, 33, 95
3, 644640, Note_on_c, 0, 35, 95
3, 646560, Note_off_c, 0, 35, 95
3, 646560, Note_on_c, 0, 35, 95
3, 647040, Note_off_c, 0, 35, 95
3, 647520, Note_on_c, 0, 33, 95
3, 648000, Note_off_c, 0, 33, 95
3, 648480, Note_on_c, 0, 35, 95
3, 650400, Note_off_c, 0, 35, 95
3, 650400, Note_on_c, 0, 30, 95
3, 650880, Note_off_c, 0, 30, 95
3, 651360, Note_on_c, 0, 33, 95
3, 651840, Note_off_c, 0, 33, 95
3, 652320, Note_on_c, 0, 33, 95
3, 652800, Note_off_c, 0, 33, 95
3, 652800, End_track
4, 0, Start_track
4, 0, Pitch_bend_c, 8, 8192
4, 0, Control_c, 8, 7, 127
4, 0, Control_c, 8, 10, 15
4, 0, Control_c, 8, 93, 0
4, 0, Control_c, 8, 91, 0
4, 0, Control_c, 8, 95, 0
4, 0, Control_c, 8, 92, 0
4, 0, Control_c, 8, 11, 127
4, 0, Program_c, 8, 29
4, 0, Control_c, 10, 7, 127
4, 0, Control_c, 10, 10, 15
4, 0, Control_c, 10, 93, 0
4, 0, Control_c, 10, 91, 0
4, 0, Control_c, 10, 95, 0
4, 0, Control_c, 10, 92, 0
4, 0, Control_c, 10, 11, 127
4, 0, Program_c, 10, 29
4, 410400, Note_on_c, 8, 45, 95
4, 410880, Note_off_c, 8, 45, 95
4, 410880, Note_on_c, 8, 47, 95
4, 411840, Note_off_c, 8, 47, 95
4, 411840, Note_on_c, 8, 62, 95
4, 412800, Note_off_c, 8, 62, 95
4, 412800, Note_on_c, 8, 71, 95
4, 413760, Note_off_c, 8, 71, 95
4, 413760, Note_on_c, 8, 62, 95
4, 414720, Note_off_c, 8, 62, 95
4, 414720, Note_on_c, 8, 47, 95
4, 415680, Note_off_c, 8, 47, 95
4, 415680, Note_on_c, 8, 62, 95
4, 416640, Note_off_c, 8, 62, 95
4, 416640, Note_on_c, 8, 71, 95
4, 417600, Note_off_c, 8, 71, 95
4, 417600, Note_on_c, 8, 62, 95
4, 418560, Note_off_c, 8, 62, 95
4, 418560, Note_on_c, 8, 47, 95
4, 419520, Note_off_c, 8, 47, 95
4, 419520, Note_on_c, 8, 62, 95
4, 420480, Note_off_c, 8, 62, 95
4, 420480, Note_on_c, 8, 71, 95
4, 421440, Note_off_c, 8, 71, 95
4, 421440, Note_on_c, 8, 62, 95
4, 422400, Note_off_c, 8, 62, 95
4, 422400, Note_on_c, 8, 47, 95
4, 423360, Note_off_c, 8, 47, 95
4, 423360, Note_on_c, 8, 62, 95
4, 424320, Note_off_c, 8, 62, 95
4, 424320, Note_on_c, 8, 71, 95
4, 425280, Note_off_c, 8, 71, 95
4, 425280, Note_on_c, 8, 62, 95
4, 426240, Note_off_c, 8, 62, 95
4, 426240, Note_on_c, 8, 50, 95
4, 427200, Note_off_c, 8, 50, 95
4, 427200, Note_on_c, 8, 57, 95
4, 428160, Note_off_c, 8, 57, 95
4, 428160, Note_on_c, 8, 71, 95
4, 429120, Note_off_c, 8, 71, 95
4, 429120, Note_on_c, 8, 65, 95
4, 430080, Note_off_c, 8, 65, 95
4, 430080, Note_on_c, 8, 50, 95
4, 431040, Note_off_c, 8, 50, 95
4, 431040, Note_on_c, 8, 57, 95
4, 432000, Note_off_c, 8, 57, 95
4, 432000, Note_on_c, 8, 71, 95
4, 432960, Note_off_c, 8, 71, 95
4, 432960, Note_on_c, 8, 65, 95
4, 433920, Note_off_c, 8, 65, 95
4, 433920, Note_on_c, 8, 45, 95
4, 434880, Note_off_c, 8, 45, 95
4, 434880, Note_on_c, 8, 57, 95
4, 435840, Note_off_c, 8, 57, 95
4, 435840, Note_on_c, 8, 71, 95
4, 436800, Note_off_c, 8, 71, 95
4, 436800, Note_on_c, 8, 60, 95
4, 437760, Note_off_c, 8, 60, 95
4, 437760, Note_on_c, 8, 45, 95
4, 438720, Note_off_c, 8, 45, 95
4, 438720, Note_on_c, 8, 57, 95
4, 439680, Note_off_c, 8, 57, 95
4, 439680, Note_on_c, 8, 71, 95
4, 440640, Note_off_c, 8, 71, 95
4, 440640, Note_on_c, 8, 60, 95
4, 441600, Note_off_c, 8, 60, 95
4, 441600, Note_on_c, 8, 40, 95
4, 442560, Note_off_c, 8, 40, 95
4, 442560, Note_on_c, 8, 52, 95
4, 443520, Note_off_c, 8, 52, 95
4, 443520, Note_on_c, 8, 71, 95
4, 444480, Note_off_c, 8, 71, 95
4, 444480, Note_on_c, 8, 59, 95
4, 445440, Note_off_c, 8, 59, 95
4, 445440, Note_on_c, 8, 40, 95
4, 446400, Note_off_c, 8, 40, 95
4, 446400, Note_on_c, 8, 52, 95
4, 447360, Note_off_c, 8, 52, 95
4, 447360, Note_on_c, 8, 71, 95
4, 448320, Note_off_c, 8, 71, 95
4, 448320, Note_on_c, 8, 59, 95
4, 449280, Note_off_c, 8, 59, 95
4, 449280, Note_on_c, 8, 40, 95
4, 450240, Note_off_c, 8, 40, 95
4, 450240, Note_on_c, 8, 52, 95
4, 451200, Note_off_c, 8, 52, 95
4, 451200, Note_on_c, 8, 71, 95
4, 452160, Note_off_c, 8, 71, 95
4, 452160, Note_on_c, 8, 59, 95
4, 452640, Note_off_c, 8, 59, 95
4, 452640, Note_on_c, 8, 45, 95
4, 453120, Note_off_c, 8, 45, 95
4, 453120, Note_on_c, 8, 47, 95
4, 454080, Note_off_c, 8, 47, 95
4, 454080, Note_on_c, 8, 62, 95
4, 455040, Note_off_c, 8, 62, 95
4, 455040, Note_on_c, 8, 71, 95
4, 456000, Note_off_c, 8, 71, 95
4, 456000, Note_on_c, 8, 62, 95
4, 456960, Note_off_c, 8, 62, 95
4, 456960, Note_on_c, 8, 47, 95
4, 457920, Note_off_c, 8, 47, 95
4, 457920, Note_on_c, 8, 62, 95
4, 458880, Note_off_c, 8, 62, 95
4, 458880, Note_on_c, 8, 71, 95
4, 459840, Note_off_c, 8, 71, 95
4, 459840, Note_on_c, 8, 62, 95
4, 460800, Note_off_c, 8, 62, 95
4, 460800, Note_on_c, 8, 47, 95
4, 461760, Note_off_c, 8, 47, 95
4, 461760, Note_on_c, 8, 62, 95
4, 462720, Note_off_c, 8, 62, 95
4, 462720, Note_on_c, 8, 71, 95
4, 463680, Note_off_c, 8, 71, 95
4, 463680, Note_on_c, 8, 62, 95
4, 464640, Note_off_c, 8, 62, 95
4, 464640, Note_on_c, 8, 47, 95
4, 465600, Note_off_c, 8, 47, 95
4, 465600, Note_on_c, 8, 62, 95
4, 466560, Note_off_c, 8, 62, 95
4, 466560, Note_on_c, 8, 71, 95
4, 467520, Note_off_c, 8, 71, 95
4, 467520, Note_on_c, 8, 62, 95
4, 468480, Note_off_c, 8, 62, 95
4, 468480, Note_on_c, 8, 50, 95
4, 469440, Note_off_c, 8, 50, 95
4, 469440, Note_on_c, 8, 57, 95
4, 470400, Note_off_c, 8, 57, 95
4, 470400, Note_on_c, 8, 71, 95
4, 471360, Note_off_c, 8, 71, 95
4, 471360, Note_on_c, 8, 65, 95
4, 472320, Note_off_c, 8, 65, 95
4, 472320, Note_on_c, 8, 50, 95
4, 473280, Note_off_c, 8, 50, 95
4, 473280, Note_on_c, 8, 57, 95
4, 474240, Note_off_c, 8, 57, 95
4, 474240, Note_on_c, 8, 71, 95
4, 475200, Note_off_c, 8, 71, 95
4, 475200, Note_on_c, 8, 65, 95
4, 476160, Note_off_c, 8, 65, 95
4, 476160, Note_on_c, 8, 45, 95
4, 477120, Note_off_c, 8, 45, 95
4, 477120, Note_on_c, 8, 57, 95
4, 478080, Note_off_c, 8, 57, 95
4, 478080, Note_on_c, 8, 71, 95
4, 479040, Note_off_c, 8, 71, 95
4, 479040, Note_on_c, 8, 60, 95
4, 480000, Note_off_c, 8, 60, 95
4, 480000, Note_on_c, 8, 45, 95
4, 480960, Note_off_c, 8, 45, 95
4, 480960, Note_on_c, 8, 57, 95
4, 481920, Note_off_c, 8, 57, 95
4, 481920, Note_on_c, 8, 71, 95
4, 482880, Note_off_c, 8, 71, 95
4, 482880, Note_on_c, 8, 60, 95
4, 483840, Note_off_c, 8, 60, 95
4, 483840, Note_on_c, 8, 40, 95
4, 484800, Note_off_c, 8, 40, 95
4, 484800, Note_on_c, 8, 52, 95
4, 485760, Note_off_c, 8, 52, 95
4, 485760, Note_on_c, 8, 71, 95
4, 486720, Note_off_c, 8, 71, 95
4, 486720, Note_on_c, 8, 59, 95
4, 487680, Note_off_c, 8, 59, 95
4, 487680, Note_on_c, 8, 40, 95
4, 488640, Note_off_c, 8, 40, 95
4, 488640, Note_on_c, 8, 52, 95
4, 489600, Note_off_c, 8, 52, 95
4, 489600, Note_on_c, 8, 71, 95
4, 490560, Note_off_c, 8, 71, 95
4, 490560, Note_on_c, 8, 59, 95
4, 491520, Note_off_c, 8, 59, 95
4, 491520, Note_on_c, 8, 40, 95
4, 492480, Note_off_c, 8, 40, 95
4, 492480, Note_on_c, 8, 52, 95
4, 493440, Note_off_c, 8, 52, 95
4, 493440, Note_on_c, 8, 71, 95
4, 494400, Note_off_c, 8, 71, 95
4, 494400, Note_on_c, 8, 59, 95
4, 494880, Note_off_c, 8, 59, 95
4, 494880, Note_on_c, 8, 45, 95
4, 495360, Note_off_c, 8, 45, 95
4, 495360, Note_on_c, 8, 47, 95
4, 496320, Note_off_c, 8, 47, 95
4, 496320, Note_on_c, 8, 62, 95
4, 497280, Note_off_c, 8, 62, 95
4, 497280, Note_on_c, 8, 71, 95
4, 498240, Note_off_c, 8, 71, 95
4, 498240, Note_on_c, 8, 62, 95
4, 498720, Note_off_c, 8, 62, 95
4, 498720, Note_on_c, 8, 45, 95
4, 499200, Note_off_c, 8, 45, 95
4, 499200, Note_on_c, 8, 47, 95
4, 500160, Note_off_c, 8, 47, 95
4, 500160, Note_on_c, 8, 62, 95
4, 501120, Note_off_c, 8, 62, 95
4, 501120, Note_on_c, 8, 71, 95
4, 502080, Note_off_c, 8, 71, 95
4, 502080, Note_on_c, 8, 62, 95
4, 502560, Note_off_c, 8, 62, 95
4, 502560, Note_on_c, 8, 45, 95
4, 503040, Note_off_c, 8, 45, 95
4, 503040, Note_on_c, 8, 47, 95
4, 504000, Note_off_c, 8, 47, 95
4, 504000, Note_on_c, 8, 62, 95
4, 504960, Note_off_c, 8, 62, 95
4, 504960, Note_on_c, 8, 71, 95
4, 505920, Note_off_c, 8, 71, 95
4, 505920, Note_on_c, 8, 62, 95
4, 506400, Note_off_c, 8, 62, 95
4, 506400, Note_on_c, 8, 45, 95
4, 506880, Note_off_c, 8, 45, 95
4, 506880, Note_on_c, 8, 47, 95
4, 507360, Note_off_c, 8, 47, 95
4, 507360, Note_on_c, 8, 52, 95
4, 507840, Note_off_c, 8, 52, 95
4, 507840, Note_on_c, 8, 52, 95
4, 508320, Note_off_c, 8, 52, 95
4, 508320, Note_on_c, 8, 52, 95
4, 508800, Note_off_c, 8, 52, 95
4, 508800, Note_on_c, 8, 52, 95
4, 509280, Note_off_c, 8, 52, 95
4, 509280, Note_on_c, 8, 52, 95
4, 509760, Note_off_c, 8, 52, 95
4, 509760, Note_on_c, 8, 51, 95
4, 510240, Note_off_c, 8, 51, 95
4, 510240, Note_on_c, 10, 50, 95
4, 510400, Pitch_bend_c, 10, 8192
4, 510560, Pitch_bend_c, 10, 8320
4, 510720, Pitch_bend_c, 10, 8192
4, 510880, Pitch_bend_c, 10, 8320
4, 511040, Pitch_bend_c, 10, 8192
4, 511200, Pitch_bend_c, 10, 8320
4, 511360, Pitch_bend_c, 10, 8192
4, 511520, Pitch_bend_c, 10, 8320
4, 511680, Pitch_bend_c, 10, 8192
4, 511680, Pitch_bend_c, 10, 8320
4, 511680, Pitch_bend_c, 10, 8192
4, 511680, Note_off_c, 10, 50, 95
4, 511680, Note_on_c, 8, 57, 95
4, 512640, Note_off_c, 8, 57, 95
4, 512640, Note_on_c, 8, 71, 95
4, 513600, Note_off_c, 8, 71, 95
4, 513600, Note_on_c, 8, 65, 95
4, 514560, Note_off_c, 8, 65, 95
4, 514560, Note_on_c, 8, 50, 95
4, 515040, Note_off_c, 8, 50, 95
4, 515040, Note_on_c, 8, 52, 95
4, 515520, Note_off_c, 8, 52, 95
4, 515520, Note_on_c, 8, 52, 95
4, 516000, Note_off_c, 8, 52, 95
4, 516000, Note_on_c, 8, 52, 95
4, 516480, Note_off_c, 8, 52, 95
4, 516480, Note_on_c, 8, 52, 95
4, 516960, Note_off_c, 8, 52, 95
4, 516960, Note_on_c, 8, 51, 95
4, 517440, Note_off_c, 8, 51, 95
4, 517440, Note_on_c, 8, 50, 95
4, 517920, Note_off_c, 8, 50, 95
4, 517920, Note_on_c, 8, 48, 95
4, 518880, Note_off_c, 8, 48, 95
4, 518880, Note_on_c, 8, 45, 95
4, 519360, Note_off_c, 8, 45, 95
4, 519360, Note_on_c, 8, 57, 95
4, 520320, Note_off_c, 8, 57, 95
4, 520320, Note_on_c, 8, 71, 95
4, 521280, Note_off_c, 8, 71, 95
4, 521280, Note_on_c, 8, 60, 95
4, 522240, Note_off_c, 8, 60, 95
4, 522240, Note_on_c, 8, 52, 95
4, 522720, Note_off_c, 8, 52, 95
4, 522720, Note_on_c, 8, 51, 95
4, 523200, Note_off_c, 8, 51, 95
4, 523200, Note_on_c, 8, 50, 95
4, 523680, Note_off_c, 8, 50, 95
4, 523680, Note_on_c, 8, 49, 95
4, 524160, Note_off_c, 8, 49, 95
4, 524160, Note_on_c, 8, 48, 95
4, 524640, Note_off_c, 8, 48, 95
4, 524640, Note_on_c, 8, 45, 95
4, 525120, Note_off_c, 8, 45, 95
4, 525120, Note_on_c, 8, 44, 95
4, 525600, Note_off_c, 8, 44, 95
4, 525600, Note_on_c, 8, 43, 95
4, 526080, Note_off_c, 8, 43, 95
4, 526080, Note_on_c, 8, 69, 95
4, 526080, Pitch_bend_c, 10, 8192
4, 526080, Note_on_c, 10, 67, 95
4, 526101, Pitch_bend_c, 10, 8320
4, 526122, Pitch_bend_c, 10, 8448
4, 526143, Pitch_bend_c, 10, 8576
4, 526164, Pitch_bend_c, 10, 8704
4, 526185, Pitch_bend_c, 10, 8832
4, 526206, Pitch_bend_c, 10, 8960
4, 526227, Pitch_bend_c, 10, 9088
4, 526248, Pitch_bend_c, 10, 9216
4, 526269, Pitch_bend_c, 10, 9344
4, 526290, Pitch_bend_c, 10, 9472
4, 526311, Pitch_bend_c, 10, 9600
4, 526320, Pitch_bend_c, 10, 9600
4, 526800, Pitch_bend_c, 10, 9600
4, 526821, Pitch_bend_c, 10, 9472
4, 526842, Pitch_bend_c, 10, 9344
4, 526863, Pitch_bend_c, 10, 9216
4, 526884, Pitch_bend_c, 10, 9088
4, 526905, Pitch_bend_c, 10, 8960
4, 526926, Pitch_bend_c, 10, 8832
4, 526947, Pitch_bend_c, 10, 8704
4, 526968, Pitch_bend_c, 10, 8576
4, 526989, Pitch_bend_c, 10, 8448
4, 527010, Pitch_bend_c, 10, 8320
4, 527031, Pitch_bend_c, 10, 8192
4, 527040, Note_off_c, 8, 69, 95
4, 527040, Pitch_bend_c, 10, 8192
4, 527040, Pitch_bend_c, 10, 8192
4, 527040, Note_off_c, 10, 67, 95
4, 527040, Note_on_c, 8, 69, 95
4, 527040, Pitch_bend_c, 10, 8192
4, 527040, Note_on_c, 10, 67, 95
4, 527050, Pitch_bend_c, 10, 8320
4, 527060, Pitch_bend_c, 10, 8448
4, 527070, Pitch_bend_c, 10, 8576
4, 527080, Pitch_bend_c, 10, 8704
4, 527090, Pitch_bend_c, 10, 8832
4, 527100, Pitch_bend_c, 10, 8960
4, 527110, Pitch_bend_c, 10, 9088
4, 527120, Pitch_bend_c, 10, 9216
4, 527130, Pitch_bend_c, 10, 9344
4, 527140, Pitch_bend_c, 10, 9472
4, 527150, Pitch_bend_c, 10, 9600
4, 527160, Pitch_bend_c, 10, 9600
4, 527400, Pitch_bend_c, 10, 9600
4, 527410, Pitch_bend_c, 10, 9472
4, 527420, Pitch_bend_c, 10, 9344
4, 527430, Pitch_bend_c, 10, 9216
4, 527440, Pitch_bend_c, 10, 9088
4, 527450, Pitch_bend_c, 10, 8960
4, 527460, Pitch_bend_c, 10, 8832
4, 527470, Pitch_bend_c, 10, 8704
4, 527480, Pitch_bend_c, 10, 8576
4, 527490, Pitch_bend_c, 10, 8448
4, 527500, Pitch_bend_c, 10, 8320
4, 527510, Pitch_bend_c, 10, 8192
4, 527520, Note_off_c, 8, 69, 95
4, 527520, Pitch_bend_c, 10, 8192
4, 527520, Pitch_bend_c, 10, 8192
4, 527520, Note_off_c, 10, 67, 95
4, 527520, Note_on_c, 8, 69, 95
4, 527520, Pitch_bend_c, 10, 8192
4, 527520, Note_on_c, 10, 67, 95
4, 527530, Pitch_bend_c, 10, 8320
4, 527540, Pitch_bend_c, 10, 8448
4, 527550, Pitch_bend_c, 10, 8576
4, 527560, Pitch_bend_c, 10, 8704
4, 527570, Pitch_bend_c, 10, 8832
4, 527580, Pitch_bend_c, 10, 8960
4, 527590, Pitch_bend_c, 10, 9088
4, 527600, Pitch_bend_c, 10, 9216
4, 527610, Pitch_bend_c, 10, 9344
4, 527620, Pitch_bend_c, 10, 9472
4, 527630, Pitch_bend_c, 10, 9600
4, 527640, Pitch_bend_c, 10, 9600
4, 527880, Pitch_bend_c, 10, 9600
4, 527890, Pitch_bend_c, 10, 9472
4, 527900, Pitch_bend_c, 10, 9344
4, 527910, Pitch_bend_c, 10, 9216
4, 527920, Pitch_bend_c, 10, 9088
4, 527930, Pitch_bend_c, 10, 8960
4, 527940, Pitch_bend_c, 10, 8832
4, 527950, Pitch_bend_c, 10, 8704
4, 527960, Pitch_bend_c, 10, 8576
4, 527970, Pitch_bend_c, 10, 8448
4, 527980, Pitch_bend_c, 10, 8320
4, 527990, Pitch_bend_c, 10, 8192
4, 528000, Note_off_c, 8, 69, 95
4, 528000, Pitch_bend_c, 10, 8192
4, 528000, Pitch_bend_c, 10, 8192
4, 528000, Note_off_c, 10, 67, 95
4, 528000, Note_on_c, 8, 69, 95
4, 528000, Pitch_bend_c, 10, 8192
4, 528000, Note_on_c, 10, 67, 95
4, 528010, Pitch_bend_c, 10, 8320
4, 528020, Pitch_bend_c, 10, 8448
4, 528030, Pitch_bend_c, 10, 8576
4, 528040, Pitch_bend_c, 10, 8704
4, 528050, Pitch_bend_c, 10, 8832
4, 528060, Pitch_bend_c, 10, 8960
4, 528070, Pitch_bend_c, 10, 9088
4, 528080, Pitch_bend_c, 10, 9216
4, 528090, Pitch_bend_c, 10, 9344
4, 528100, Pitch_bend_c, 10, 9472
4, 528110, Pitch_bend_c, 10, 9600
4, 528120, Pitch_bend_c, 10, 9600
4, 528360, Pitch_bend_c, 10, 9600
4, 528370, Pitch_bend_c, 10, 9472
4, 528380, Pitch_bend_c, 10, 9344
4, 528390, Pitch_bend_c, 10, 9216
4, 528400, Pitch_bend_c, 10, 9088
4, 528410, Pitch_bend_c, 10, 8960
4, 528420, Pitch_bend_c, 10, 8832
4, 528430, Pitch_bend_c, 10, 8704
4, 528440, Pitch_bend_c, 10, 8576
4, 528450, Pitch_bend_c, 10, 8448
4, 528460, Pitch_bend_c, 10, 8320
4, 528470, Pitch_bend_c, 10, 8192
4, 528480, Note_off_c, 8, 69, 95
4, 528480, Pitch_bend_c, 10, 8192
4, 528480, Pitch_bend_c, 10, 8192
4, 528480, Note_off_c, 10, 67, 95
4, 528480, Note_on_c, 8, 69, 95
4, 528480, Pitch_bend_c, 10, 8192
4, 528480, Note_on_c, 10, 67, 95
4, 528490, Pitch_bend_c, 10, 8320
4, 528500, Pitch_bend_c, 10, 8448
4, 528510, Pitch_bend_c, 10, 8576
4, 528520, Pitch_bend_c, 10, 8704
4, 528530, Pitch_bend_c, 10, 8832
4, 528540, Pitch_bend_c, 10, 8960
4, 528550, Pitch_bend_c, 10, 9088
4, 528560, Pitch_bend_c, 10, 9216
4, 528570, Pitch_bend_c, 10, 9344
4, 528580, Pitch_bend_c, 10, 9472
4, 528590, Pitch_bend_c, 10, 9600
4, 528600, Pitch_bend_c, 10, 9600
4, 528840, Pitch_bend_c, 10, 9600
4, 528850, Pitch_bend_c, 10, 9472
4, 528860, Pitch_bend_c, 10, 9344
4, 528870, Pitch_bend_c, 10, 9216
4, 528880, Pitch_bend_c, 10, 9088
4, 528890, Pitch_bend_c, 10, 8960
4, 528900, Pitch_bend_c, 10, 8832
4, 528910, Pitch_bend_c, 10, 8704
4, 528920, Pitch_bend_c, 10, 8576
4, 528930, Pitch_bend_c, 10, 8448
4, 528940, Pitch_bend_c, 10, 8320
4, 528950, Pitch_bend_c, 10, 8192
4, 528960, Note_off_c, 8, 69, 95
4, 528960, Pitch_bend_c, 10, 8192
4, 528960, Pitch_bend_c, 10, 8192
4, 528960, Note_off_c, 10, 67, 95
4, 528960, Note_on_c, 8, 40, 95
4, 529440, Note_off_c, 8, 40, 95
4, 529440, Note_on_c, 8, 67, 95
4, 529440, Pitch_bend_c, 10, 8192
4, 529440, Note_on_c, 10, 65, 95
4, 529461, Pitch_bend_c, 10, 8320
4, 529482, Pitch_bend_c, 10, 8448
4, 529503, Pitch_bend_c, 10, 8576
4, 529524, Pitch_bend_c, 10, 8704
4, 529545, Pitch_bend_c, 10, 8832
4, 529566, Pitch_bend_c, 10, 8960
4, 529587, Pitch_bend_c, 10, 9088
4, 529608, Pitch_bend_c, 10, 9216
4, 529629, Pitch_bend_c, 10, 9344
4, 529650, Pitch_bend_c, 10, 9472
4, 529671, Pitch_bend_c, 10, 9600
4, 529680, Pitch_bend_c, 10, 9600
4, 530160, Pitch_bend_c, 10, 9600
4, 530181, Pitch_bend_c, 10, 9472
4, 530202, Pitch_bend_c, 10, 9344
4, 530223, Pitch_bend_c, 10, 9216
4, 530244, Pitch_bend_c, 10, 9088
4, 530265, Pitch_bend_c, 10, 8960
4, 530286, Pitch_bend_c, 10, 8832
4, 530307, Pitch_bend_c, 10, 8704
4, 530328, Pitch_bend_c, 10, 8576
4, 530349, Pitch_bend_c, 10, 8448
4, 530370, Pitch_bend_c, 10, 8320
4, 530391, Pitch_bend_c, 10, 8192
4, 530400, Note_off_c, 8, 67, 95
4, 530400, Pitch_bend_c, 10, 8192
4, 530400, Pitch_bend_c, 10, 8192
4, 530400, Note_off_c, 10, 65, 95
4, 530400, Note_on_c, 8, 67, 95
4, 530400, Pitch_bend_c, 10, 8192
4, 530400, Note_on_c, 10, 65, 95
4, 530410, Pitch_bend_c, 10, 8320
4, 530420, Pitch_bend_c, 10, 8448
4, 530430, Pitch_bend_c, 10, 8576
4, 530440, Pitch_bend_c, 10, 8704
4, 530450, Pitch_bend_c, 10, 8832
4, 530460, Pitch_bend_c, 10, 8960
4, 530470, Pitch_bend_c, 10, 9088
4, 530480, Pitch_bend_c, 10, 9216
4, 530490, Pitch_bend_c, 10, 9344
4, 530500, Pitch_bend_c, 10, 9472
4, 530510, Pitch_bend_c, 10, 9600
4, 530520, Pitch_bend_c, 10, 9600
4, 530760, Pitch_bend_c, 10, 9600
4, 530770, Pitch_bend_c, 10, 9472
4, 530780, Pitch_bend_c, 10, 9344
4, 530790, Pitch_bend_c, 10, 9216
4, 530800, Pitch_bend_c, 10, 9088
4, 530810, Pitch_bend_c, 10, 8960
4, 530820, Pitch_bend_c, 10, 8832
4, 530830, Pitch_bend_c, 10, 8704
4, 530840, Pitch_bend_c, 10, 8576
4, 530850, Pitch_bend_c, 10, 8448
4, 530860, Pitch_bend_c, 10, 8320
4, 530870, Pitch_bend_c, 10, 8192
4, 530880, Note_off_c, 8, 67, 95
4, 530880, Pitch_bend_c, 10, 8192
4, 530880, Pitch_bend_c, 10, 8192
4, 530880, Note_off_c, 10, 65, 95
4, 530880, Note_on_c, 8, 67, 95
4, 530880, Pitch_bend_c, 10, 8192
4, 530880, Note_on_c, 10, 65, 95
4, 530890, Pitch_bend_c, 10, 8320
4, 530900, Pitch_bend_c, 10, 8448
4, 530910, Pitch_bend_c, 10, 8576
4, 530920, Pitch_bend_c, 10, 8704
4, 530930, Pitch_bend_c, 10, 8832
4, 530940, Pitch_bend_c, 10, 8960
4, 530950, Pitch_bend_c, 10, 9088
4, 530960, Pitch_bend_c, 10, 9216
4, 530970, Pitch_bend_c, 10, 9344
4, 530980, Pitch_bend_c, 10, 9472
4, 530990, Pitch_bend_c, 10, 9600
4, 531000, Pitch_bend_c, 10, 9600
4, 531240, Pitch_bend_c, 10, 9600
4, 531250, Pitch_bend_c, 10, 9472
4, 531260, Pitch_bend_c, 10, 9344
4, 531270, Pitch_bend_c, 10, 9216
4, 531280, Pitch_bend_c, 10, 9088
4, 531290, Pitch_bend_c, 10, 8960
4, 531300, Pitch_bend_c, 10, 8832
4, 531310, Pitch_bend_c, 10, 8704
4, 531320, Pitch_bend_c, 10, 8576
4, 531330, Pitch_bend_c, 10, 8448
4, 531340, Pitch_bend_c, 10, 8320
4, 531350, Pitch_bend_c, 10, 8192
4, 531360, Note_off_c, 8, 67, 95
4, 531360, Pitch_bend_c, 10, 8192
4, 531360, Pitch_bend_c, 10, 8192
4, 531360, Note_off_c, 10, 65, 95
4, 531360, Note_on_c, 8, 67, 95
4, 531360, Pitch_bend_c, 10, 8192
4, 531360, Note_on_c, 10, 65, 95
4, 531370, Pitch_bend_c, 10, 8320
4, 531380, Pitch_bend_c, 10, 8448
4, 531390, Pitch_bend_c, 10, 8576
4, 531400, Pitch_bend_c, 10, 8704
4, 531410, Pitch_bend_c, 10, 8832
4, 531420, Pitch_bend_c, 10, 8960
4, 531430, Pitch_bend_c, 10, 9088
4, 531440, Pitch_bend_c, 10, 9216
4, 531450, Pitch_bend_c, 10, 9344
4, 531460, Pitch_bend_c, 10, 9472
4, 531470, Pitch_bend_c, 10, 9600
4, 531480, Pitch_bend_c, 10, 9600
4, 531720, Pitch_bend_c, 10, 9600
4, 531730, Pitch_bend_c, 10, 9472
4, 531740, Pitch_bend_c, 10, 9344
4, 531750, Pitch_bend_c, 10, 9216
4, 531760, Pitch_bend_c, 10, 9088
4, 531770, Pitch_bend_c, 10, 8960
4, 531780, Pitch_bend_c, 10, 8832
4, 531790, Pitch_bend_c, 10, 8704
4, 531800, Pitch_bend_c, 10, 8576
4, 531810, Pitch_bend_c, 10, 8448
4, 531820, Pitch_bend_c, 10, 8320
4, 531830, Pitch_bend_c, 10, 8192
4, 531840, Note_off_c, 8, 67, 95
4, 531840, Pitch_bend_c, 10, 8192
4, 531840, Pitch_bend_c, 10, 8192
4, 531840, Note_off_c, 10, 65, 95
4, 531840, Note_on_c, 8, 40, 95
4, 532320, Note_off_c, 8, 40, 95
4, 532320, Note_on_c, 8, 40, 95
4, 532800, Note_off_c, 8, 40, 95
4, 532800, Note_on_c, 8, 40, 95
4, 533280, Note_off_c, 8, 40, 95
4, 533280, Note_on_c, 8, 40, 95
4, 533760, Note_off_c, 8, 40, 95
4, 533760, Note_on_c, 8, 69, 95
4, 533760, Pitch_bend_c, 10, 8192
4, 533760, Note_on_c, 10, 67, 95
4, 533770, Pitch_bend_c, 10, 8320
4, 533780, Pitch_bend_c, 10, 8448
4, 533790, Pitch_bend_c, 10, 8576
4, 533800, Pitch_bend_c, 10, 8704
4, 533810, Pitch_bend_c, 10, 8832
4, 533820, Pitch_bend_c, 10, 8960
4, 533830, Pitch_bend_c, 10, 9088
4, 533840, Pitch_bend_c, 10, 9216
4, 533850, Pitch_bend_c, 10, 9344
4, 533860, Pitch_bend_c, 10, 9472
4, 533870, Pitch_bend_c, 10, 9600
4, 533880, Pitch_bend_c, 10, 9600
4, 534120, Pitch_bend_c, 10, 9600
4, 534130, Pitch_bend_c, 10, 9472
4, 534140, Pitch_bend_c, 10, 9344
4, 534150, Pitch_bend_c, 10, 9216
4, 534160, Pitch_bend_c, 10, 9088
4, 534170, Pitch_bend_c, 10, 8960
4, 534180, Pitch_bend_c, 10, 8832
4, 534190, Pitch_bend_c, 10, 8704
4, 534200, Pitch_bend_c, 10, 8576
4, 534210, Pitch_bend_c, 10, 8448
4, 534220, Pitch_bend_c, 10, 8320
4, 534230, Pitch_bend_c, 10, 8192
4, 534240, Note_off_c, 8, 69, 95
4, 534240, Pitch_bend_c, 10, 8192
4, 534240, Pitch_bend_c, 10, 8192
4, 534240, Note_off_c, 10, 67, 95
4, 534240, Note_on_c, 8, 69, 95
4, 534240, Pitch_bend_c, 10, 8192
4, 534240, Note_on_c, 10, 67, 95
4, 534250, Pitch_bend_c, 10, 8320
4, 534260, Pitch_bend_c, 10, 8448
4, 534270, Pitch_bend_c, 10, 8576
4, 534280, Pitch_bend_c, 10, 8704
4, 534290, Pitch_bend_c, 10, 8832
4, 534300, Pitch_bend_c, 10, 8960
4, 534310, Pitch_bend_c, 10, 9088
4, 534320, Pitch_bend_c, 10, 9216
4, 534330, Pitch_bend_c, 10, 9344
4, 534340, Pitch_bend_c, 10, 9472
4, 534350, Pitch_bend_c, 10, 9600
4, 534360, Pitch_bend_c, 10, 9600
4, 534600, Pitch_bend_c, 10, 9600
4, 534610, Pitch_bend_c, 10, 9472
4, 534620, Pitch_bend_c, 10, 9344
4, 534630, Pitch_bend_c, 10, 9216
4, 534640, Pitch_bend_c, 10, 9088
4, 534650, Pitch_bend_c, 10, 8960
4, 534660, Pitch_bend_c, 10, 8832
4, 534670, Pitch_bend_c, 10, 8704
4, 534680, Pitch_bend_c, 10, 8576
4, 534690, Pitch_bend_c, 10, 8448
4, 534700, Pitch_bend_c, 10, 8320
4, 534710, Pitch_bend_c, 10, 8192
4, 534720, Note_off_c, 8, 69, 95
4, 534720, Pitch_bend_c, 10, 8192
4, 534720, Pitch_bend_c, 10, 8192
4, 534720, Note_off_c, 10, 67, 95
4, 534720, Note_on_c, 8, 40, 95
4, 535200, Note_off_c, 8, 40, 95
4, 535200, Note_on_c, 8, 67, 95
4, 535200, Pitch_bend_c, 10, 8192
4, 535200, Note_on_c, 10, 65, 95
4, 535210, Pitch_bend_c, 10, 8320
4, 535220, Pitch_bend_c, 10, 8448
4, 535230, Pitch_bend_c, 10, 8576
4, 535240, Pitch_bend_c, 10, 8704
4, 535250, Pitch_bend_c, 10, 8832
4, 535260, Pitch_bend_c, 10, 8960
4, 535270, Pitch_bend_c, 10, 9088
4, 535280, Pitch_bend_c, 10, 9216
4, 535290, Pitch_bend_c, 10, 9344
4, 535300, Pitch_bend_c, 10, 9472
4, 535310, Pitch_bend_c, 10, 9600
4, 535320, Pitch_bend_c, 10, 9600
4, 535560, Pitch_bend_c, 10, 9600
4, 535570, Pitch_bend_c, 10, 9472
4, 535580, Pitch_bend_c, 10, 9344
4, 535590, Pitch_bend_c, 10, 9216
4, 535600, Pitch_bend_c, 10, 9088
4, 535610, Pitch_bend_c, 10, 8960
4, 535620, Pitch_bend_c, 10, 8832
4, 535630, Pitch_bend_c, 10, 8704
4, 535640, Pitch_bend_c, 10, 8576
4, 535650, Pitch_bend_c, 10, 8448
4, 535660, Pitch_bend_c, 10, 8320
4, 535670, Pitch_bend_c, 10, 8192
4, 535680, Note_off_c, 8, 67, 95
4, 535680, Pitch_bend_c, 10, 8192
4, 535680, Pitch_bend_c, 10, 8192
4, 535680, Note_off_c, 10, 65, 95
4, 535680, Note_on_c, 8, 67, 95
4, 535680, Pitch_bend_c, 10, 8192
4, 535680, Note_on_c, 10, 65, 95
4, 535690, Pitch_bend_c, 10, 8320
4, 535700, Pitch_bend_c, 10, 8448
4, 535710, Pitch_bend_c, 10, 8576
4, 535720, Pitch_bend_c, 10, 8704
4, 535730, Pitch_bend_c, 10, 8832
4, 535740, Pitch_bend_c, 10, 8960
4, 535750, Pitch_bend_c, 10, 9088
4, 535760, Pitch_bend_c, 10, 9216
4, 535770, Pitch_bend_c, 10, 9344
4, 535780, Pitch_bend_c, 10, 9472
4, 535790, Pitch_bend_c, 10, 9600
4, 535800, Pitch_bend_c, 10, 9600
4, 536040, Pitch_bend_c, 10, 9600
4, 536050, Pitch_bend_c, 10, 9472
4, 536060, Pitch_bend_c, 10, 9344
4, 536070, Pitch_bend_c, 10, 9216
4, 536080, Pitch_bend_c, 10, 9088
4, 536090, Pitch_bend_c, 10, 8960
4, 536100, Pitch_bend_c, 10, 8832
4, 536110, Pitch_bend_c, 10, 8704
4, 536120, Pitch_bend_c, 10, 8576
4, 536130, Pitch_bend_c, 10, 8448
4, 536140, Pitch_bend_c, 10, 8320
4, 536150, Pitch_bend_c, 10, 8192
4, 536160, Note_off_c, 8, 67, 95
4, 536160, Pitch_bend_c, 10, 8192
4, 536160, Pitch_bend_c, 10, 8192
4, 536160, Note_off_c, 10, 65, 95
4, 536160, Note_on_c, 8, 69, 95
4, 536160, Pitch_bend_c, 10, 8192
4, 536160, Note_on_c, 10, 67, 95
4, 536170, Pitch_bend_c, 10, 8320
4, 536180, Pitch_bend_c, 10, 8448
4, 536190, Pitch_bend_c, 10, 8576
4, 536200, Pitch_bend_c, 10, 8704
4, 536210, Pitch_bend_c, 10, 8832
4, 536220, Pitch_bend_c, 10, 8960
4, 536230, Pitch_bend_c, 10, 9088
4, 536240, Pitch_bend_c, 10, 9216
4, 536250, Pitch_bend_c, 10, 9344
4, 536260, Pitch_bend_c, 10, 9472
4, 536270, Pitch_bend_c, 10, 9600
4, 536280, Pitch_bend_c, 10, 9600
4, 536520, Pitch_bend_c, 10, 9600
4, 536530, Pitch_bend_c, 10, 9472
4, 536540, Pitch_bend_c, 10, 9344
4, 536550, Pitch_bend_c, 10, 9216
4, 536560, Pitch_bend_c, 10, 9088
4, 536570, Pitch_bend_c, 10, 8960
4, 536580, Pitch_bend_c, 10, 8832
4, 536590, Pitch_bend_c, 10, 8704
4, 536600, Pitch_bend_c, 10, 8576
4, 536610, Pitch_bend_c, 10, 8448
4, 536620, Pitch_bend_c, 10, 8320
4, 536630, Pitch_bend_c, 10, 8192
4, 536640, Note_off_c, 8, 69, 95
4, 536640, Pitch_bend_c, 10, 8192
4, 536640, Pitch_bend_c, 10, 8192
4, 536640, Note_off_c, 10, 67, 95
4, 536640, Note_on_c, 8, 67, 95
4, 536640, Pitch_bend_c, 10, 8192
4, 536640, Note_on_c, 10, 65, 95
4, 536650, Pitch_bend_c, 10, 8320
4, 536660, Pitch_bend_c, 10, 8448
4, 536670, Pitch_bend_c, 10, 8576
4, 536680, Pitch_bend_c, 10, 8704
4, 536690, Pitch_bend_c, 10, 8832
4, 536700, Pitch_bend_c, 10, 8960
4, 536710, Pitch_bend_c, 10, 9088
4, 536720, Pitch_bend_c, 10, 9216
4, 536730, Pitch_bend_c, 10, 9344
4, 536740, Pitch_bend_c, 10, 9472
4, 536750, Pitch_bend_c, 10, 9600
4, 536760, Pitch_bend_c, 10, 9600
4, 537000, Pitch_bend_c, 10, 9600
4, 537010, Pitch_bend_c, 10, 9472
4, 537020, Pitch_bend_c, 10, 9344
4, 537030, Pitch_bend_c, 10, 9216
4, 537040, Pitch_bend_c, 10, 9088
4, 537050, Pitch_bend_c, 10, 8960
4, 537060, Pitch_bend_c, 10, 8832
4, 537070, Pitch_bend_c, 10, 8704
4, 537080, Pitch_bend_c, 10, 8576
4, 537090, Pitch_bend_c, 10, 8448
4, 537100, Pitch_bend_c, 10, 8320
4, 537110, Pitch_bend_c, 10, 8192
4, 537120, Note_off_c, 8, 67, 95
4, 537120, Pitch_bend_c, 10, 8192
4, 537120, Pitch_bend_c, 10, 8192
4, 537120, Note_off_c, 10, 65, 95
4, 537120, Note_on_c, 8, 45, 95
4, 537600, Note_off_c, 8, 45, 95
4, 537600, Note_on_c, 8, 47, 95
4, 538560, Note_off_c, 8, 47, 95
4, 538560, Note_on_c, 8, 62, 95
4, 539520, Note_off_c, 8, 62, 95
4, 539520, Note_on_c, 8, 71, 95
4, 540480, Note_off_c, 8, 71, 95
4, 540480, Note_on_c, 8, 62, 95
4, 540960, Note_off_c, 8, 62, 95
4, 540960, Note_on_c, 8, 45, 95
4, 541440, Note_off_c, 8, 45, 95
4, 541440, Note_on_c, 8, 47, 95
4, 542400, Note_off_c, 8, 47, 95
4, 542400, Note_on_c, 8, 62, 95
4, 543360, Note_off_c, 8, 62, 95
4, 543360, Note_on_c, 8, 71, 95
4, 544320, Note_off_c, 8, 71, 95
4, 544320, Note_on_c, 8, 62, 95
4, 544800, Note_off_c, 8, 62, 95
4, 544800, Note_on_c, 8, 45, 95
4, 545280, Note_off_c, 8, 45, 95
4, 545280, Note_on_c, 8, 47, 95
4, 546240, Note_off_c, 8, 47, 95
4, 546240, Note_on_c, 8, 62, 95
4, 547200, Note_off_c, 8, 62, 95
4, 547200, Note_on_c, 8, 71, 95
4, 548160, Note_off_c, 8, 71, 95
4, 548160, Note_on_c, 8, 62, 95
4, 548640, Note_off_c, 8, 62, 95
4, 548640, Note_on_c, 8, 45, 95
4, 549120, Note_off_c, 8, 45, 95
4, 549120, Note_on_c, 8, 47, 95
4, 549600, Note_off_c, 8, 47, 95
4, 549600, Note_on_c, 8, 52, 95
4, 550080, Note_off_c, 8, 52, 95
4, 550080, Note_on_c, 8, 52, 95
4, 550560, Note_off_c, 8, 52, 95
4, 550560, Note_on_c, 8, 52, 95
4, 551040, Note_off_c, 8, 52, 95
4, 551040, Note_on_c, 8, 52, 95
4, 551520, Note_off_c, 8, 52, 95
4, 551520, Note_on_c, 8, 52, 95
4, 552000, Note_off_c, 8, 52, 95
4, 552000, Note_on_c, 8, 51, 95
4, 552480, Note_off_c, 8, 51, 95
4, 552480, Note_on_c, 10, 50, 95
4, 552640, Pitch_bend_c, 10, 8192
4, 552800, Pitch_bend_c, 10, 8320
4, 552960, Pitch_bend_c, 10, 8192
4, 553120, Pitch_bend_c, 10, 8320
4, 553280, Pitch_bend_c, 10, 8192
4, 553440, Pitch_bend_c, 10, 8320
4, 553600, Pitch_bend_c, 10, 8192
4, 553760, Pitch_bend_c, 10, 8320
4, 553920, Pitch_bend_c, 10, 8192
4, 553920, Pitch_bend_c, 10, 8320
4, 553920, Pitch_bend_c, 10, 8192
4, 553920, Note_off_c, 10, 50, 95
4, 553920, Note_on_c, 8, 57, 95
4, 554880, Note_off_c, 8, 57, 95
4, 554880, Note_on_c, 8, 71, 95
4, 555840, Note_off_c, 8, 71, 95
4, 555840, Note_on_c, 8, 65, 95
4, 556800, Note_off_c, 8, 65, 95
4, 556800, Note_on_c, 8, 50, 95
4, 557280, Note_off_c, 8, 50, 95
4, 557280, Note_on_c, 8, 52, 95
4, 557760, Note_off_c, 8, 52, 95
4, 557760, Note_on_c, 8, 52, 95
4, 558240, Note_off_c, 8, 52, 95
4, 558240, Note_on_c, 8, 52, 95
4, 558720, Note_off_c, 8, 52, 95
4, 558720, Note_on_c, 8, 52, 95
4, 559200, Note_off_c, 8, 52, 95
4, 559200, Note_on_c, 8, 51, 95
4, 559680, Note_off_c, 8, 51, 95
4, 559680, Note_on_c, 8, 50, 95
4, 560160, Note_off_c, 8, 50, 95
4, 560160, Note_on_c, 8, 48, 95
4, 561120, Note_off_c, 8, 48, 95
4, 561120, Note_on_c, 8, 45, 95
4, 561600, Note_off_c, 8, 45, 95
4, 561600, Note_on_c, 8, 57, 95
4, 562560, Note_off_c, 8, 57, 95
4, 562560, Note_on_c, 8, 71, 95
4, 563520, Note_off_c, 8, 71, 95
4, 563520, Note_on_c, 8, 60, 95
4, 564480, Note_off_c, 8, 60, 95
4, 564480, Note_on_c, 8, 52, 95
4, 564960, Note_off_c, 8, 52, 95
4, 564960, Note_on_c, 8, 51, 95
4, 565440, Note_off_c, 8, 51, 95
4, 565440, Note_on_c, 8, 50, 95
4, 565920, Note_off_c, 8, 50, 95
4, 565920, Note_on_c, 8, 49, 95
4, 566400, Note_off_c, 8, 49, 95
4, 566400, Note_on_c, 8, 48, 95
4, 566880, Note_off_c, 8, 48, 95
4, 566880, Note_on_c, 8, 45, 95
4, 567360, Note_off_c, 8, 45, 95
4, 567360, Note_on_c, 8, 44, 95
4, 567840, Note_off_c, 8, 44, 95
4, 567840, Note_on_c, 8, 43, 95
4, 568320, Note_off_c, 8, 43, 95
4, 568320, Note_on_c, 8, 69, 95
4, 568320, Pitch_bend_c, 10, 8192
4, 568320, Note_on_c, 10, 67, 95
4, 568341, Pitch_bend_c, 10, 8320
4, 568362, Pitch_bend_c, 10, 8448
4, 568383, Pitch_bend_c, 10, 8576
4, 568404, Pitch_bend_c, 10, 8704
4, 568425, Pitch_bend_c, 10, 8832
4, 568446, Pitch_bend_c, 10, 8960
4, 568467, Pitch_bend_c, 10, 9088
4, 568488, Pitch_bend_c, 10, 9216
4, 568509, Pitch_bend_c, 10, 9344
4, 568530, Pitch_bend_c, 10, 9472
4, 568551, Pitch_bend_c, 10, 9600
4, 568560, Pitch_bend_c, 10, 9600
4, 569040, Pitch_bend_c, 10, 9600
4, 569061, Pitch_bend_c, 10, 9472
4, 569082, Pitch_bend_c, 10, 9344
4, 569103, Pitch_bend_c, 10, 9216
4, 569124, Pitch_bend_c, 10, 9088
4, 569145, Pitch_bend_c, 10, 8960
4, 569166, Pitch_bend_c, 10, 8832
4, 569187, Pitch_bend_c, 10, 8704
4, 569208, Pitch_bend_c, 10, 8576
4, 569229, Pitch_bend_c, 10, 8448
4, 569250, Pitch_bend_c, 10, 8320
4, 569271, Pitch_bend_c, 10, 8192
4, 569280, Note_off_c, 8, 69, 95
4, 569280, Pitch_bend_c, 10, 8192
4, 569280, Pitch_bend_c, 10, 8192
4, 569280, Note_off_c, 10, 67, 95
4, 569280, Note_on_c, 8, 69, 95
4, 569280, Pitch_bend_c, 10, 8192
4, 569280, Note_on_c, 10, 67, 95
4, 569290, Pitch_bend_c, 10, 8320
4, 569300, Pitch_bend_c, 10, 8448
4, 569310, Pitch_bend_c, 10, 8576
4, 569320, Pitch_bend_c, 10, 8704
4, 569330, Pitch_bend_c, 10, 8832
4, 569340, Pitch_bend_c, 10, 8960
4, 569350, Pitch_bend_c, 10, 9088
4, 569360, Pitch_bend_c, 10, 9216
4, 569370, Pitch_bend_c, 10, 9344
4, 569380, Pitch_bend_c, 10, 9472
4, 569390, Pitch_bend_c, 10, 9600
4, 569400, Pitch_bend_c, 10, 9600
4, 569640, Pitch_bend_c, 10, 9600
4, 569650, Pitch_bend_c, 10, 9472
4, 569660, Pitch_bend_c, 10, 9344
4, 569670, Pitch_bend_c, 10, 9216
4, 569680, Pitch_bend_c, 10, 9088
4, 569690, Pitch_bend_c, 10, 8960
4, 569700, Pitch_bend_c, 10, 8832
4, 569710, Pitch_bend_c, 10, 8704
4, 569720, Pitch_bend_c, 10, 8576
4, 569730, Pitch_bend_c, 10, 8448
4, 569740, Pitch_bend_c, 10, 8320
4, 569750, Pitch_bend_c, 10, 8192
4, 569760, Note_off_c, 8, 69, 95
4, 569760, Pitch_bend_c, 10, 8192
4, 569760, Pitch_bend_c, 10, 8192
4, 569760, Note_off_c, 10, 67, 95
4, 569760, Note_on_c, 8, 69, 95
4, 569760, Pitch_bend_c, 10, 8192
4, 569760, Note_on_c, 10, 67, 95
4, 569770, Pitch_bend_c, 10, 8320
4, 569780, Pitch_bend_c, 10, 8448
4, 569790, Pitch_bend_c, 10, 8576
4, 569800, Pitch_bend_c, 10, 8704
4, 569810, Pitch_bend_c, 10, 8832
4, 569820, Pitch_bend_c, 10, 8960
4, 569830, Pitch_bend_c, 10, 9088
4, 569840, Pitch_bend_c, 10, 9216
4, 569850, Pitch_bend_c, 10, 9344
4, 569860, Pitch_bend_c, 10, 9472
4, 569870, Pitch_bend_c, 10, 9600
4, 569880, Pitch_bend_c, 10, 9600
4, 570120, Pitch_bend_c, 10, 9600
4, 570130, Pitch_bend_c, 10, 9472
4, 570140, Pitch_bend_c, 10, 9344
4, 570150, Pitch_bend_c, 10, 9216
4, 570160, Pitch_bend_c, 10, 9088
4, 570170, Pitch_bend_c, 10, 8960
4, 570180, Pitch_bend_c, 10, 8832
4, 570190, Pitch_bend_c, 10, 8704
4, 570200, Pitch_bend_c, 10, 8576
4, 570210, Pitch_bend_c, 10, 8448
4, 570220, Pitch_bend_c, 10, 8320
4, 570230, Pitch_bend_c, 10, 8192
4, 570240, Note_off_c, 8, 69, 95
4, 570240, Pitch_bend_c, 10, 8192
4, 570240, Pitch_bend_c, 10, 8192
4, 570240, Note_off_c, 10, 67, 95
4, 570240, Note_on_c, 8, 69, 95
4, 570240, Pitch_bend_c, 10, 8192
4, 570240, Note_on_c, 10, 67, 95
4, 570250, Pitch_bend_c, 10, 8320
4, 570260, Pitch_bend_c, 10, 8448
4, 570270, Pitch_bend_c, 10, 8576
4, 570280, Pitch_bend_c, 10, 8704
4, 570290, Pitch_bend_c, 10, 8832
4, 570300, Pitch_bend_c, 10, 8960
4, 570310, Pitch_bend_c, 10, 9088
4, 570320, Pitch_bend_c, 10, 9216
4, 570330, Pitch_bend_c, 10, 9344
4, 570340, Pitch_bend_c, 10, 9472
4, 570350, Pitch_bend_c, 10, 9600
4, 570360, Pitch_bend_c, 10, 9600
4, 570600, Pitch_bend_c, 10, 9600
4, 570610, Pitch_bend_c, 10, 9472
4, 570620, Pitch_bend_c, 10, 9344
4, 570630, Pitch_bend_c, 10, 9216
4, 570640, Pitch_bend_c, 10, 9088
4, 570650, Pitch_bend_c, 10, 8960
4, 570660, Pitch_bend_c, 10, 8832
4, 570670, Pitch_bend_c, 10, 8704
4, 570680, Pitch_bend_c, 10, 8576
4, 570690, Pitch_bend_c, 10, 8448
4, 570700, Pitch_bend_c, 10, 8320
4, 570710, Pitch_bend_c, 10, 8192
4, 570720, Note_off_c, 8, 69, 95
4, 570720, Pitch_bend_c, 10, 8192
4, 570720, Pitch_bend_c, 10, 8192
4, 570720, Note_off_c, 10, 67, 95
4, 570720, Note_on_c, 8, 69, 95
4, 570720, Pitch_bend_c, 10, 8192
4, 570720, Note_on_c, 10, 67, 95
4, 570730, Pitch_bend_c, 10, 8320
4, 570740, Pitch_bend_c, 10, 8448
4, 570750, Pitch_bend_c, 10, 8576
4, 570760, Pitch_bend_c, 10, 8704
4, 570770, Pitch_bend_c, 10, 8832
4, 570780, Pitch_bend_c, 10, 8960
4, 570790, Pitch_bend_c, 10, 9088
4, 570800, Pitch_bend_c, 10, 9216
4, 570810, Pitch_bend_c, 10, 9344
4, 570820, Pitch_bend_c, 10, 9472
4, 570830, Pitch_bend_c, 10, 9600
4, 570840, Pitch_bend_c, 10, 9600
4, 571080, Pitch_bend_c, 10, 9600
4, 571090, Pitch_bend_c, 10, 9472
4, 571100, Pitch_bend_c, 10, 9344
4, 571110, Pitch_bend_c, 10, 9216
4, 571120, Pitch_bend_c, 10, 9088
4, 571130, Pitch_bend_c, 10, 8960
4, 571140, Pitch_bend_c, 10, 8832
4, 571150, Pitch_bend_c, 10, 8704
4, 571160, Pitch_bend_c, 10, 8576
4, 571170, Pitch_bend_c, 10, 8448
4, 571180, Pitch_bend_c, 10, 8320
4, 571190, Pitch_bend_c, 10, 8192
4, 571200, Note_off_c, 8, 69, 95
4, 571200, Pitch_bend_c, 10, 8192
4, 571200, Pitch_bend_c, 10, 8192
4, 571200, Note_off_c, 10, 67, 95
4, 571200, Note_on_c, 8, 40, 95
4, 571680, Note_off_c, 8, 40, 95
4, 571680, Note_on_c, 8, 67, 95
4, 571680, Pitch_bend_c, 10, 8192
4, 571680, Note_on_c, 10, 65, 95
4, 571701, Pitch_bend_c, 10, 8320
4, 571722, Pitch_bend_c, 10, 8448
4, 571743, Pitch_bend_c, 10, 8576
4, 571764, Pitch_bend_c, 10, 8704
4, 571785, Pitch_bend_c, 10, 8832
4, 571806, Pitch_bend_c, 10, 8960
4, 571827, Pitch_bend_c, 10, 9088
4, 571848, Pitch_bend_c, 10, 9216
4, 571869, Pitch_bend_c, 10, 9344
4, 571890, Pitch_bend_c, 10, 9472
4, 571911, Pitch_bend_c, 10, 9600
4, 571920, Pitch_bend_c, 10, 9600
4, 572400, Pitch_bend_c, 10, 9600
4, 572421, Pitch_bend_c, 10, 9472
4, 572442, Pitch_bend_c, 10, 9344
4, 572463, Pitch_bend_c, 10, 9216
4, 572484, Pitch_bend_c, 10, 9088
4, 572505, Pitch_bend_c, 10, 8960
4, 572526, Pitch_bend_c, 10, 8832
4, 572547, Pitch_bend_c, 10, 8704
4, 572568, Pitch_bend_c, 10, 8576
4, 572589, Pitch_bend_c, 10, 8448
4, 572610, Pitch_bend_c, 10, 8320
4, 572631, Pitch_bend_c, 10, 8192
4, 572640, Note_off_c, 8, 67, 95
4, 572640, Pitch_bend_c, 10, 8192
4, 572640, Pitch_bend_c, 10, 8192
4, 572640, Note_off_c, 10, 65, 95
4, 572640, Note_on_c, 8, 67, 95
4, 572640, Pitch_bend_c, 10, 8192
4, 572640, Note_on_c, 10, 65, 95
4, 572650, Pitch_bend_c, 10, 8320
4, 572660, Pitch_bend_c, 10, 8448
4, 572670, Pitch_bend_c, 10, 8576
4, 572680, Pitch_bend_c, 10, 8704
4, 572690, Pitch_bend_c, 10, 8832
4, 572700, Pitch_bend_c, 10, 8960
4, 572710, Pitch_bend_c, 10, 9088
4, 572720, Pitch_bend_c, 10, 9216
4, 572730, Pitch_bend_c, 10, 9344
4, 572740, Pitch_bend_c, 10, 9472
4, 572750, Pitch_bend_c, 10, 9600
4, 572760, Pitch_bend_c, 10, 9600
4, 573000, Pitch_bend_c, 10, 9600
4, 573010, Pitch_bend_c, 10, 9472
4, 573020, Pitch_bend_c, 10, 9344
4, 573030, Pitch_bend_c, 10, 9216
4, 573040, Pitch_bend_c, 10, 9088
4, 573050, Pitch_bend_c, 10, 8960
4, 573060, Pitch_bend_c, 10, 8832
4, 573070, Pitch_bend_c, 10, 8704
4, 573080, Pitch_bend_c, 10, 8576
4, 573090, Pitch_bend_c, 10, 8448
4, 573100, Pitch_bend_c, 10, 8320
4, 573110, Pitch_bend_c, 10, 8192
4, 573120, Note_off_c, 8, 67, 95
4, 573120, Pitch_bend_c, 10, 8192
4, 573120, Pitch_bend_c, 10, 8192
4, 573120, Note_off_c, 10, 65, 95
4, 573120, Note_on_c, 8, 67, 95
4, 573120, Pitch_bend_c, 10, 8192
4, 573120, Note_on_c, 10, 65, 95
4, 573130, Pitch_bend_c, 10, 8320
4, 573140, Pitch_bend_c, 10, 8448
4, 573150, Pitch_bend_c, 10, 8576
4, 573160, Pitch_bend_c, 10, 8704
4, 573170, Pitch_bend_c, 10, 8832
4, 573180, Pitch_bend_c, 10, 8960
4, 573190, Pitch_bend_c, 10, 9088
4, 573200, Pitch_bend_c, 10, 9216
4, 573210, Pitch_bend_c, 10, 9344
4, 573220, Pitch_bend_c, 10, 9472
4, 573230, Pitch_bend_c, 10, 9600
4, 573240, Pitch_bend_c, 10, 9600
4, 573480, Pitch_bend_c, 10, 9600
4, 573490, Pitch_bend_c, 10, 9472
4, 573500, Pitch_bend_c, 10, 9344
4, 573510, Pitch_bend_c, 10, 9216
4, 573520, Pitch_bend_c, 10, 9088
4, 573530, Pitch_bend_c, 10, 8960
4, 573540, Pitch_bend_c, 10, 8832
4, 573550, Pitch_bend_c, 10, 8704
4, 573560, Pitch_bend_c, 10, 8576
4, 573570, Pitch_bend_c, 10, 8448
4, 573580, Pitch_bend_c, 10, 8320
4, 573590, Pitch_bend_c, 10, 8192
4, 573600, Note_off_c, 8, 67, 95
4, 573600, Pitch_bend_c, 10, 8192
4, 573600, Pitch_bend_c, 10, 8192
4, 573600, Note_off_c, 10, 65, 95
4, 573600, Note_on_c, 8, 67, 95
4, 573600, Pitch_bend_c, 10, 8192
4, 573600, Note_on_c, 10, 65, 95
4, 573610, Pitch_bend_c, 10, 8320
4, 573620, Pitch_bend_c, 10, 8448
4, 573630, Pitch_bend_c, 10, 8576
4, 573640, Pitch_bend_c, 10, 8704
4, 573650, Pitch_bend_c, 10, 8832
4, 573660, Pitch_bend_c, 10, 8960
4, 573670, Pitch_bend_c, 10, 9088
4, 573680, Pitch_bend_c, 10, 9216
4, 573690, Pitch_bend_c, 10, 9344
4, 573700, Pitch_bend_c, 10, 9472
4, 573710, Pitch_bend_c, 10, 9600
4, 573720, Pitch_bend_c, 10, 9600
4, 573960, Pitch_bend_c, 10, 9600
4, 573970, Pitch_bend_c, 10, 9472
4, 573980, Pitch_bend_c, 10, 9344
4, 573990, Pitch_bend_c, 10, 9216
4, 574000, Pitch_bend_c, 10, 9088
4, 574010, Pitch_bend_c, 10, 8960
4, 574020, Pitch_bend_c, 10, 8832
4, 574030, Pitch_bend_c, 10, 8704
4, 574040, Pitch_bend_c, 10, 8576
4, 574050, Pitch_bend_c, 10, 8448
4, 574060, Pitch_bend_c, 10, 8320
4, 574070, Pitch_bend_c, 10, 8192
4, 574080, Note_off_c, 8, 67, 95
4, 574080, Pitch_bend_c, 10, 8192
4, 574080, Pitch_bend_c, 10, 8192
4, 574080, Note_off_c, 10, 65, 95
4, 574080, Note_on_c, 8, 40, 95
4, 574560, Note_off_c, 8, 40, 95
4, 574560, Note_on_c, 8, 40, 95
4, 575040, Note_off_c, 8, 40, 95
4, 575040, Note_on_c, 8, 40, 95
4, 575520, Note_off_c, 8, 40, 95
4, 575520, Note_on_c, 8, 40, 95
4, 576000, Note_off_c, 8, 40, 95
4, 576000, Note_on_c, 8, 69, 95
4, 576000, Pitch_bend_c, 10, 8192
4, 576000, Note_on_c, 10, 67, 95
4, 576010, Pitch_bend_c, 10, 8320
4, 576020, Pitch_bend_c, 10, 8448
4, 576030, Pitch_bend_c, 10, 8576
4, 576040, Pitch_bend_c, 10, 8704
4, 576050, Pitch_bend_c, 10, 8832
4, 576060, Pitch_bend_c, 10, 8960
4, 576070, Pitch_bend_c, 10, 9088
4, 576080, Pitch_bend_c, 10, 9216
4, 576090, Pitch_bend_c, 10, 9344
4, 576100, Pitch_bend_c, 10, 9472
4, 576110, Pitch_bend_c, 10, 9600
4, 576120, Pitch_bend_c, 10, 9600
4, 576360, Pitch_bend_c, 10, 9600
4, 576370, Pitch_bend_c, 10, 9472
4, 576380, Pitch_bend_c, 10, 9344
4, 576390, Pitch_bend_c, 10, 9216
4, 576400, Pitch_bend_c, 10, 9088
4, 576410, Pitch_bend_c, 10, 8960
4, 576420, Pitch_bend_c, 10, 8832
4, 576430, Pitch_bend_c, 10, 8704
4, 576440, Pitch_bend_c, 10, 8576
4, 576450, Pitch_bend_c, 10, 8448
4, 576460, Pitch_bend_c, 10, 8320
4, 576470, Pitch_bend_c, 10, 8192
4, 576480, Note_off_c, 8, 69, 95
4, 576480, Pitch_bend_c, 10, 8192
4, 576480, Pitch_bend_c, 10, 8192
4, 576480, Note_off_c, 10, 67, 95
4, 576480, Note_on_c, 8, 69, 95
4, 576480, Pitch_bend_c, 10, 8192
4, 576480, Note_on_c, 10, 67, 95
4, 576490, Pitch_bend_c, 10, 8320
4, 576500, Pitch_bend_c, 10, 8448
4, 576510, Pitch_bend_c, 10, 8576
4, 576520, Pitch_bend_c, 10, 8704
4, 576530, Pitch_bend_c, 10, 8832
4, 576540, Pitch_bend_c, 10, 8960
4, 576550, Pitch_bend_c, 10, 9088
4, 576560, Pitch_bend_c, 10, 9216
4, 576570, Pitch_bend_c, 10, 9344
4, 576580, Pitch_bend_c, 10, 9472
4, 576590, Pitch_bend_c, 10, 9600
4, 576600, Pitch_bend_c, 10, 9600
4, 576840, Pitch_bend_c, 10, 9600
4, 576850, Pitch_bend_c, 10, 9472
4, 576860, Pitch_bend_c, 10, 9344
4, 576870, Pitch_bend_c, 10, 9216
4, 576880, Pitch_bend_c, 10, 9088
4, 576890, Pitch_bend_c, 10, 8960
4, 576900, Pitch_bend_c, 10, 8832
4, 576910, Pitch_bend_c, 10, 8704
4, 576920, Pitch_bend_c, 10, 8576
4, 576930, Pitch_bend_c, 10, 8448
4, 576940, Pitch_bend_c, 10, 8320
4, 576950, Pitch_bend_c, 10, 8192
4, 576960, Note_off_c, 8, 69, 95
4, 576960, Pitch_bend_c, 10, 8192
4, 576960, Pitch_bend_c, 10, 8192
4, 576960, Note_off_c, 10, 67, 95
4, 576960, Note_on_c, 8, 40, 95
4, 577440, Note_off_c, 8, 40, 95
4, 577440, Note_on_c, 8, 67, 95
4, 577440, Pitch_bend_c, 10, 8192
4, 577440, Note_on_c, 10, 65, 95
4, 577450, Pitch_bend_c, 10, 8320
4, 577460, Pitch_bend_c, 10, 8448
4, 577470, Pitch_bend_c, 10, 8576
4, 577480, Pitch_bend_c, 10, 8704
4, 577490, Pitch_bend_c, 10, 8832
4, 577500, Pitch_bend_c, 10, 8960
4, 577510, Pitch_bend_c, 10, 9088
4, 577520, Pitch_bend_c, 10, 9216
4, 577530, Pitch_bend_c, 10, 9344
4, 577540, Pitch_bend_c, 10, 9472
4, 577550, Pitch_bend_c, 10, 9600
4, 577560, Pitch_bend_c, 10, 9600
4, 577800, Pitch_bend_c, 10, 9600
4, 577810, Pitch_bend_c, 10, 9472
4, 577820, Pitch_bend_c, 10, 9344
4, 577830, Pitch_bend_c, 10, 9216
4, 577840, Pitch_bend_c, 10, 9088
4, 577850, Pitch_bend_c, 10, 8960
4, 577860, Pitch_bend_c, 10, 8832
4, 577870, Pitch_bend_c, 10, 8704
4, 577880, Pitch_bend_c, 10, 8576
4, 577890, Pitch_bend_c, 10, 8448
4, 577900, Pitch_bend_c, 10, 8320
4, 577910, Pitch_bend_c, 10, 8192
4, 577920, Note_off_c, 8, 67, 95
4, 577920, Pitch_bend_c, 10, 8192
4, 577920, Pitch_bend_c, 10, 8192
4, 577920, Note_off_c, 10, 65, 95
4, 577920, Note_on_c, 8, 67, 95
4, 577920, Pitch_bend_c, 10, 8192
4, 577920, Note_on_c, 10, 65, 95
4, 577930, Pitch_bend_c, 10, 8320
4, 577940, Pitch_bend_c, 10, 8448
4, 577950, Pitch_bend_c, 10, 8576
4, 577960, Pitch_bend_c, 10, 8704
4, 577970, Pitch_bend_c, 10, 8832
4, 577980, Pitch_bend_c, 10, 8960
4, 577990, Pitch_bend_c, 10, 9088
4, 578000, Pitch_bend_c, 10, 9216
4, 578010, Pitch_bend_c, 10, 9344
4, 578020, Pitch_bend_c, 10, 9472
4, 578030, Pitch_bend_c, 10, 9600
4, 578040, Pitch_bend_c, 10, 9600
4, 578280, Pitch_bend_c, 10, 9600
4, 578290, Pitch_bend_c, 10, 9472
4, 578300, Pitch_bend_c, 10, 9344
4, 578310, Pitch_bend_c, 10, 9216
4, 578320, Pitch_bend_c, 10, 9088
4, 578330, Pitch_bend_c, 10, 8960
4, 578340, Pitch_bend_c, 10, 8832
4, 578350, Pitch_bend_c, 10, 8704
4, 578360, Pitch_bend_c, 10, 8576
4, 578370, Pitch_bend_c, 10, 8448
4, 578380, Pitch_bend_c, 10, 8320
4, 578390, Pitch_bend_c, 10, 8192
4, 578400, Note_off_c, 8, 67, 95
4, 578400, Pitch_bend_c, 10, 8192
4, 578400, Pitch_bend_c, 10, 8192
4, 578400, Note_off_c, 10, 65, 95
4, 578400, Note_on_c, 8, 69, 95
4, 578400, Pitch_bend_c, 10, 8192
4, 578400, Note_on_c, 10, 67, 95
4, 578410, Pitch_bend_c, 10, 8320
4, 578420, Pitch_bend_c, 10, 8448
4, 578430, Pitch_bend_c, 10, 8576
4, 578440, Pitch_bend_c, 10, 8704
4, 578450, Pitch_bend_c, 10, 8832
4, 578460, Pitch_bend_c, 10, 8960
4, 578470, Pitch_bend_c, 10, 9088
4, 578480, Pitch_bend_c, 10, 9216
4, 578490, Pitch_bend_c, 10, 9344
4, 578500, Pitch_bend_c, 10, 9472
4, 578510, Pitch_bend_c, 10, 9600
4, 578520, Pitch_bend_c, 10, 9600
4, 578760, Pitch_bend_c, 10, 9600
4, 578770, Pitch_bend_c, 10, 9472
4, 578780, Pitch_bend_c, 10, 9344
4, 578790, Pitch_bend_c, 10, 9216
4, 578800, Pitch_bend_c, 10, 9088
4, 578810, Pitch_bend_c, 10, 8960
4, 578820, Pitch_bend_c, 10, 8832
4, 578830, Pitch_bend_c, 10, 8704
4, 578840, Pitch_bend_c, 10, 8576
4, 578850, Pitch_bend_c, 10, 8448
4, 578860, Pitch_bend_c, 10, 8320
4, 578870, Pitch_bend_c, 10, 8192
4, 578880, Note_off_c, 8, 69, 95
4, 578880, Pitch_bend_c, 10, 8192
4, 578880, Pitch_bend_c, 10, 8192
4, 578880, Note_off_c, 10, 67, 95
4, 578880, Note_on_c, 8, 67, 95
4, 578880, Pitch_bend_c, 10, 8192
4, 578880, Note_on_c, 10, 65, 95
4, 578890, Pitch_bend_c, 10, 8320
4, 578900, Pitch_bend_c, 10, 8448
4, 578910, Pitch_bend_c, 10, 8576
4, 578920, Pitch_bend_c, 10, 8704
4, 578930, Pitch_bend_c, 10, 8832
4, 578940, Pitch_bend_c, 10, 8960
4, 578950, Pitch_bend_c, 10, 9088
4, 578960, Pitch_bend_c, 10, 9216
4, 578970, Pitch_bend_c, 10, 9344
4, 578980, Pitch_bend_c, 10, 9472
4, 578990, Pitch_bend_c, 10, 9600
4, 579000, Pitch_bend_c, 10, 9600
4, 579240, Pitch_bend_c, 10, 9600
4, 579250, Pitch_bend_c, 10, 9472
4, 579260, Pitch_bend_c, 10, 9344
4, 579270, Pitch_bend_c, 10, 9216
4, 579280, Pitch_bend_c, 10, 9088
4, 579290, Pitch_bend_c, 10, 8960
4, 579300, Pitch_bend_c, 10, 8832
4, 579310, Pitch_bend_c, 10, 8704
4, 579320, Pitch_bend_c, 10, 8576
4, 579330, Pitch_bend_c, 10, 8448
4, 579340, Pitch_bend_c, 10, 8320
4, 579350, Pitch_bend_c, 10, 8192
4, 579360, Note_off_c, 8, 67, 95
4, 579360, Pitch_bend_c, 10, 8192
4, 579360, Pitch_bend_c, 10, 8192
4, 579360, Note_off_c, 10, 65, 95
4, 579360, Note_on_c, 8, 45, 95
4, 579840, Note_off_c, 8, 45, 95
4, 579840, Note_on_c, 8, 47, 95
4, 580800, Note_off_c, 8, 47, 95
4, 580800, Note_on_c, 8, 62, 95
4, 581760, Note_off_c, 8, 62, 95
4, 581760, Note_on_c, 8, 71, 95
4, 582720, Note_off_c, 8, 71, 95
4, 582720, Note_on_c, 8, 62, 95
4, 583200, Note_off_c, 8, 62, 95
4, 583200, Note_on_c, 8, 45, 95
4, 583680, Note_off_c, 8, 45, 95
4, 583680, Note_on_c, 8, 47, 95
4, 584640, Note_off_c, 8, 47, 95
4, 584640, Note_on_c, 8, 62, 95
4, 585600, Note_off_c, 8, 62, 95
4, 585600, Note_on_c, 8, 71, 95
4, 586560, Note_off_c, 8, 71, 95
4, 586560, Note_on_c, 8, 62, 95
4, 587040, Note_off_c, 8, 62, 95
4, 587040, Note_on_c, 8, 45, 95
4, 587520, Note_off_c, 8, 45, 95
4, 587520, Note_on_c, 8, 47, 95
4, 588480, Note_off_c, 8, 47, 95
4, 588480, Note_on_c, 8, 62, 95
4, 589440, Note_off_c, 8, 62, 95
4, 589440, Note_on_c, 8, 71, 95
4, 590400, Note_off_c, 8, 71, 95
4, 590400, Note_on_c, 8, 62, 95
4, 590880, Note_off_c, 8, 62, 95
4, 590880, Note_on_c, 8, 45, 95
4, 591360, Note_off_c, 8, 45, 95
4, 591360, Note_on_c, 8, 47, 95
4, 591840, Note_off_c, 8, 47, 95
4, 591840, Note_on_c, 8, 52, 95
4, 592320, Note_off_c, 8, 52, 95
4, 592320, Note_on_c, 8, 52, 95
4, 592800, Note_off_c, 8, 52, 95
4, 592800, Note_on_c, 8, 52, 95
4, 593280, Note_off_c, 8, 52, 95
4, 593280, Note_on_c, 8, 52, 95
4, 593760, Note_off_c, 8, 52, 95
4, 593760, Note_on_c, 8, 52, 95
4, 594240, Note_off_c, 8, 52, 95
4, 594240, Note_on_c, 8, 51, 95
4, 594720, Note_off_c, 8, 51, 95
4, 594720, Note_on_c, 10, 50, 95
4, 594880, Pitch_bend_c, 10, 8192
4, 595040, Pitch_bend_c, 10, 8320
4, 595200, Pitch_bend_c, 10, 8192
4, 595360, Pitch_bend_c, 10, 8320
4, 595520, Pitch_bend_c, 10, 8192
4, 595680, Pitch_bend_c, 10, 8320
4, 595840, Pitch_bend_c, 10, 8192
4, 596000, Pitch_bend_c, 10, 8320
4, 596160, Pitch_bend_c, 10, 8192
4, 596160, Pitch_bend_c, 10, 8320
4, 596160, Pitch_bend_c, 10, 8192
4, 596160, Note_off_c, 10, 50, 95
4, 596160, Note_on_c, 8, 57, 95
4, 597120, Note_off_c, 8, 57, 95
4, 597120, Note_on_c, 8, 71, 95
4, 598080, Note_off_c, 8, 71, 95
4, 598080, Note_on_c, 8, 65, 95
4, 599040, Note_off_c, 8, 65, 95
4, 599040, Note_on_c, 8, 50, 95
4, 599520, Note_off_c, 8, 50, 95
4, 599520, Note_on_c, 8, 52, 95
4, 600000, Note_off_c, 8, 52, 95
4, 600000, Note_on_c, 8, 52, 95
4, 600480, Note_off_c, 8, 52, 95
4, 600480, Note_on_c, 8, 52, 95
4, 600960, Note_off_c, 8, 52, 95
4, 600960, Note_on_c, 8, 52, 95
4, 601440, Note_off_c, 8, 52, 95
4, 601440, Note_on_c, 8, 51, 95
4, 601920, Note_off_c, 8, 51, 95
4, 601920, Note_on_c, 8, 50, 95
4, 602400, Note_off_c, 8, 50, 95
4, 602400, Note_on_c, 8, 48, 95
4, 603360, Note_off_c, 8, 48, 95
4, 603360, Note_on_c, 8, 45, 95
4, 603840, Note_off_c, 8, 45, 95
4, 603840, Note_on_c, 8, 57, 95
4, 604800, Note_off_c, 8, 57, 95
4, 604800, Note_on_c, 8, 71, 95
4, 605760, Note_off_c, 8, 71, 95
4, 605760, Note_on_c, 8, 60, 95
4, 606720, Note_off_c, 8, 60, 95
4, 606720, Note_on_c, 8, 52, 95
4, 607200, Note_off_c, 8, 52, 95
4, 607200, Note_on_c, 8, 51, 95
4, 607680, Note_off_c, 8, 51, 95
4, 607680, Note_on_c, 8, 50, 95
4, 608160, Note_off_c, 8, 50, 95
4, 608160, Note_on_c, 8, 49, 95
4, 608640, Note_off_c, 8, 49, 95
4, 608640, Note_on_c, 8, 48, 95
4, 609120, Note_off_c, 8, 48, 95
4, 609120, Note_on_c, 8, 45, 95
4, 609600, Note_off_c, 8, 45, 95
4, 609600, Note_on_c, 8, 44, 95
4, 610080, Note_off_c, 8, 44, 95
4, 610080, Note_on_c, 8, 43, 95
4, 610560, Note_off_c, 8, 43, 95
4, 610560, Note_on_c, 8, 69, 95
4, 610560, Pitch_bend_c, 10, 8192
4, 610560, Note_on_c, 10, 67, 95
4, 610581, Pitch_bend_c, 10, 8320
4, 610602, Pitch_bend_c, 10, 8448
4, 610623, Pitch_bend_c, 10, 8576
4, 610644, Pitch_bend_c, 10, 8704
4, 610665, Pitch_bend_c, 10, 8832
4, 610686, Pitch_bend_c, 10, 8960
4, 610707, Pitch_bend_c, 10, 9088
4, 610728, Pitch_bend_c, 10, 9216
4, 610749, Pitch_bend_c, 10, 9344
4, 610770, Pitch_bend_c, 10, 9472
4, 610791, Pitch_bend_c, 10, 9600
4, 610800, Pitch_bend_c, 10, 9600
4, 611280, Pitch_bend_c, 10, 9600
4, 611301, Pitch_bend_c, 10, 9472
4, 611322, Pitch_bend_c, 10, 9344
4, 611343, Pitch_bend_c, 10, 9216
4, 611364, Pitch_bend_c, 10, 9088
4, 611385, Pitch_bend_c, 10, 8960
4, 611406, Pitch_bend_c, 10, 8832
4, 611427, Pitch_bend_c, 10, 8704
4, 611448, Pitch_bend_c, 10, 8576
4, 611469, Pitch_bend_c, 10, 8448
4, 611490, Pitch_bend_c, 10, 8320
4, 611511, Pitch_bend_c, 10, 8192
4, 611520, Note_off_c, 8, 69, 95
4, 611520, Pitch_bend_c, 10, 8192
4, 611520, Pitch_bend_c, 10, 8192
4, 611520, Note_off_c, 10, 67, 95
4, 611520, Note_on_c, 8, 69, 95
4, 611520, Pitch_bend_c, 10, 8192
4, 611520, Note_on_c, 10, 67, 95
4, 611530, Pitch_bend_c, 10, 8320
4, 611540, Pitch_bend_c, 10, 8448
4, 611550, Pitch_bend_c, 10, 8576
4, 611560, Pitch_bend_c, 10, 8704
4, 611570, Pitch_bend_c, 10, 8832
4, 611580, Pitch_bend_c, 10, 8960
4, 611590, Pitch_bend_c, 10, 9088
4, 611600, Pitch_bend_c, 10, 9216
4, 611610, Pitch_bend_c, 10, 9344
4, 611620, Pitch_bend_c, 10, 9472
4, 611630, Pitch_bend_c, 10, 9600
4, 611640, Pitch_bend_c, 10, 9600
4, 611880, Pitch_bend_c, 10, 9600
4, 611890, Pitch_bend_c, 10, 9472
4, 611900, Pitch_bend_c, 10, 9344
4, 611910, Pitch_bend_c, 10, 9216
4, 611920, Pitch_bend_c, 10, 9088
4, 611930, Pitch_bend_c, 10, 8960
4, 611940, Pitch_bend_c, 10, 8832
4, 611950, Pitch_bend_c, 10, 8704
4, 611960, Pitch_bend_c, 10, 8576
4, 611970, Pitch_bend_c, 10, 8448
4, 611980, Pitch_bend_c, 10, 8320
4, 611990, Pitch_bend_c, 10, 8192
4, 612000, Note_off_c, 8, 69, 95
4, 612000, Pitch_bend_c, 10, 8192
4, 612000, Pitch_bend_c, 10, 8192
4, 612000, Note_off_c, 10, 67, 95
4, 612000, Note_on_c, 8, 69, 95
4, 612000, Pitch_bend_c, 10, 8192
4, 612000, Note_on_c, 10, 67, 95
4, 612010, Pitch_bend_c, 10, 8320
4, 612020, Pitch_bend_c, 10, 8448
4, 612030, Pitch_bend_c, 10, 8576
4, 612040, Pitch_bend_c, 10, 8704
4, 612050, Pitch_bend_c, 10, 8832
4, 612060, Pitch_bend_c, 10, 8960
4, 612070, Pitch_bend_c, 10, 9088
4, 612080, Pitch_bend_c, 10, 9216
4, 612090, Pitch_bend_c, 10, 9344
4, 612100, Pitch_bend_c, 10, 9472
4, 612110, Pitch_bend_c, 10, 9600
4, 612120, Pitch_bend_c, 10, 9600
4, 612360, Pitch_bend_c, 10, 9600
4, 612370, Pitch_bend_c, 10, 9472
4, 612380, Pitch_bend_c, 10, 9344
4, 612390, Pitch_bend_c, 10, 9216
4, 612400, Pitch_bend_c, 10, 9088
4, 612410, Pitch_bend_c, 10, 8960
4, 612420, Pitch_bend_c, 10, 8832
4, 612430, Pitch_bend_c, 10, 8704
4, 612440, Pitch_bend_c, 10, 8576
4, 612450, Pitch_bend_c, 10, 8448
4, 612460, Pitch_bend_c, 10, 8320
4, 612470, Pitch_bend_c, 10, 8192
4, 612480, Note_off_c, 8, 69, 95
4, 612480, Pitch_bend_c, 10, 8192
4, 612480, Pitch_bend_c, 10, 8192
4, 612480, Note_off_c, 10, 67, 95
4, 612480, Note_on_c, 8, 69, 95
4, 612480, Pitch_bend_c, 10, 8192
4, 612480, Note_on_c, 10, 67, 95
4, 612490, Pitch_bend_c, 10, 8320
4, 612500, Pitch_bend_c, 10, 8448
4, 612510, Pitch_bend_c, 10, 8576
4, 612520, Pitch_bend_c, 10, 8704
4, 612530, Pitch_bend_c, 10, 8832
4, 612540, Pitch_bend_c, 10, 8960
4, 612550, Pitch_bend_c, 10, 9088
4, 612560, Pitch_bend_c, 10, 9216
4, 612570, Pitch_bend_c, 10, 9344
4, 612580, Pitch_bend_c, 10, 9472
4, 612590, Pitch_bend_c, 10, 9600
4, 612600, Pitch_bend_c, 10, 9600
4, 612840, Pitch_bend_c, 10, 9600
4, 612850, Pitch_bend_c, 10, 9472
4, 612860, Pitch_bend_c, 10, 9344
4, 612870, Pitch_bend_c, 10, 9216
4, 612880, Pitch_bend_c, 10, 9088
4, 612890, Pitch_bend_c, 10, 8960
4, 612900, Pitch_bend_c, 10, 8832
4, 612910, Pitch_bend_c, 10, 8704
4, 612920, Pitch_bend_c, 10, 8576
4, 612930, Pitch_bend_c, 10, 8448
4, 612940, Pitch_bend_c, 10, 8320
4, 612950, Pitch_bend_c, 10, 8192
4, 612960, Note_off_c, 8, 69, 95
4, 612960, Pitch_bend_c, 10, 8192
4, 612960, Pitch_bend_c, 10, 8192
4, 612960, Note_off_c, 10, 67, 95
4, 612960, Note_on_c, 8, 69, 95
4, 612960, Pitch_bend_c, 10, 8192
4, 612960, Note_on_c, 10, 67, 95
4, 612970, Pitch_bend_c, 10, 8320
4, 612980, Pitch_bend_c, 10, 8448
4, 612990, Pitch_bend_c, 10, 8576
4, 613000, Pitch_bend_c, 10, 8704
4, 613010, Pitch_bend_c, 10, 8832
4, 613020, Pitch_bend_c, 10, 8960
4, 613030, Pitch_bend_c, 10, 9088
4, 613040, Pitch_bend_c, 10, 9216
4, 613050, Pitch_bend_c, 10, 9344
4, 613060, Pitch_bend_c, 10, 9472
4, 613070, Pitch_bend_c, 10, 9600
4, 613080, Pitch_bend_c, 10, 9600
4, 613320, Pitch_bend_c, 10, 9600
4, 613330, Pitch_bend_c, 10, 9472
4, 613340, Pitch_bend_c, 10, 9344
4, 613350, Pitch_bend_c, 10, 9216
4, 613360, Pitch_bend_c, 10, 9088
4, 613370, Pitch_bend_c, 10, 8960
4, 613380, Pitch_bend_c, 10, 8832
4, 613390, Pitch_bend_c, 10, 8704
4, 613400, Pitch_bend_c, 10, 8576
4, 613410, Pitch_bend_c, 10, 8448
4, 613420, Pitch_bend_c, 10, 8320
4, 613430, Pitch_bend_c, 10, 8192
4, 613440, Note_off_c, 8, 69, 95
4, 613440, Pitch_bend_c, 10, 8192
4, 613440, Pitch_bend_c, 10, 8192
4, 613440, Note_off_c, 10, 67, 95
4, 613440, Note_on_c, 8, 40, 95
4, 613920, Note_off_c, 8, 40, 95
4, 613920, Note_on_c, 8, 67, 95
4, 613920, Pitch_bend_c, 10, 8192
4, 613920, Note_on_c, 10, 65, 95
4, 613941, Pitch_bend_c, 10, 8320
4, 613962, Pitch_bend_c, 10, 8448
4, 613983, Pitch_bend_c, 10, 8576
4, 614004, Pitch_bend_c, 10, 8704
4, 614025, Pitch_bend_c, 10, 8832
4, 614046, Pitch_bend_c, 10, 8960
4, 614067, Pitch_bend_c, 10, 9088
4, 614088, Pitch_bend_c, 10, 9216
4, 614109, Pitch_bend_c, 10, 9344
4, 614130, Pitch_bend_c, 10, 9472
4, 614151, Pitch_bend_c, 10, 9600
4, 614160, Pitch_bend_c, 10, 9600
4, 614640, Pitch_bend_c, 10, 9600
4, 614661, Pitch_bend_c, 10, 9472
4, 614682, Pitch_bend_c, 10, 9344
4, 614703, Pitch_bend_c, 10, 9216
4, 614724, Pitch_bend_c, 10, 9088
4, 614745, Pitch_bend_c, 10, 8960
4, 614766, Pitch_bend_c, 10, 8832
4, 614787, Pitch_bend_c, 10, 8704
4, 614808, Pitch_bend_c, 10, 8576
4, 614829, Pitch_bend_c, 10, 8448
4, 614850, Pitch_bend_c, 10, 8320
4, 614871, Pitch_bend_c, 10, 8192
4, 614880, Note_off_c, 8, 67, 95
4, 614880, Pitch_bend_c, 10, 8192
4, 614880, Pitch_bend_c, 10, 8192
4, 614880, Note_off_c, 10, 65, 95
4, 614880, Note_on_c, 8, 67, 95
4, 614880, Pitch_bend_c, 10, 8192
4, 614880, Note_on_c, 10, 65, 95
4, 614890, Pitch_bend_c, 10, 8320
4, 614900, Pitch_bend_c, 10, 8448
4, 614910, Pitch_bend_c, 10, 8576
4, 614920, Pitch_bend_c, 10, 8704
4, 614930, Pitch_bend_c, 10, 8832
4, 614940, Pitch_bend_c, 10, 8960
4, 614950, Pitch_bend_c, 10, 9088
4, 614960, Pitch_bend_c, 10, 9216
4, 614970, Pitch_bend_c, 10, 9344
4, 614980, Pitch_bend_c, 10, 9472
4, 614990, Pitch_bend_c, 10, 9600
4, 615000, Pitch_bend_c, 10, 9600
4, 615240, Pitch_bend_c, 10, 9600
4, 615250, Pitch_bend_c, 10, 9472
4, 615260, Pitch_bend_c, 10, 9344
4, 615270, Pitch_bend_c, 10, 9216
4, 615280, Pitch_bend_c, 10, 9088
4, 615290, Pitch_bend_c, 10, 8960
4, 615300, Pitch_bend_c, 10, 8832
4, 615310, Pitch_bend_c, 10, 8704
4, 615320, Pitch_bend_c, 10, 8576
4, 615330, Pitch_bend_c, 10, 8448
4, 615340, Pitch_bend_c, 10, 8320
4, 615350, Pitch_bend_c, 10, 8192
4, 615360, Note_off_c, 8, 67, 95
4, 615360, Pitch_bend_c, 10, 8192
4, 615360, Pitch_bend_c, 10, 8192
4, 615360, Note_off_c, 10, 65, 95
4, 615360, Note_on_c, 8, 67, 95
4, 615360, Pitch_bend_c, 10, 8192
4, 615360, Note_on_c, 10, 65, 95
4, 615370, Pitch_bend_c, 10, 8320
4, 615380, Pitch_bend_c, 10, 8448
4, 615390, Pitch_bend_c, 10, 8576
4, 615400, Pitch_bend_c, 10, 8704
4, 615410, Pitch_bend_c, 10, 8832
4, 615420, Pitch_bend_c, 10, 8960
4, 615430, Pitch_bend_c, 10, 9088
4, 615440, Pitch_bend_c, 10, 9216
4, 615450, Pitch_bend_c, 10, 9344
4, 615460, Pitch_bend_c, 10, 9472
4, 615470, Pitch_bend_c, 10, 9600
4, 615480, Pitch_bend_c, 10, 9600
4, 615720, Pitch_bend_c, 10, 9600
4, 615730, Pitch_bend_c, 10, 9472
4, 615740, Pitch_bend_c, 10, 9344
4, 615750, Pitch_bend_c, 10, 9216
4, 615760, Pitch_bend_c, 10, 9088
4, 615770, Pitch_bend_c, 10, 8960
4, 615780, Pitch_bend_c, 10, 8832
4, 615790, Pitch_bend_c, 10, 8704
4, 615800, Pitch_bend_c, 10, 8576
4, 615810, Pitch_bend_c, 10, 8448
4, 615820, Pitch_bend_c, 10, 8320
4, 615830, Pitch_bend_c, 10, 8192
4, 615840, Note_off_c, 8, 67, 95
4, 615840, Pitch_bend_c, 10, 8192
4, 615840, Pitch_bend_c, 10, 8192
4, 615840, Note_off_c, 10, 65, 95
4, 615840, Note_on_c, 8, 67, 95
4, 615840, Pitch_bend_c, 10, 8192
4, 615840, Note_on_c, 10, 65, 95
4, 615850, Pitch_bend_c, 10, 8320
4, 615860, Pitch_bend_c, 10, 8448
4, 615870, Pitch_bend_c, 10, 8576
4, 615880, Pitch_bend_c, 10, 8704
4, 615890, Pitch_bend_c, 10, 8832
4, 615900, Pitch_bend_c, 10, 8960
4, 615910, Pitch_bend_c, 10, 9088
4, 615920, Pitch_bend_c, 10, 9216
4, 615930, Pitch_bend_c, 10, 9344
4, 615940, Pitch_bend_c, 10, 9472
4, 615950, Pitch_bend_c, 10, 9600
4, 615960, Pitch_bend_c, 10, 9600
4, 616200, Pitch_bend_c, 10, 9600
4, 616210, Pitch_bend_c, 10, 9472
4, 616220, Pitch_bend_c, 10, 9344
4, 616230, Pitch_bend_c, 10, 9216
4, 616240, Pitch_bend_c, 10, 9088
4, 616250, Pitch_bend_c, 10, 8960
4, 616260, Pitch_bend_c, 10, 8832
4, 616270, Pitch_bend_c, 10, 8704
4, 616280, Pitch_bend_c, 10, 8576
4, 616290, Pitch_bend_c, 10, 8448
4, 616300, Pitch_bend_c, 10, 8320
4, 616310, Pitch_bend_c, 10, 8192
4, 616320, Note_off_c, 8, 67, 95
4, 616320, Pitch_bend_c, 10, 8192
4, 616320, Pitch_bend_c, 10, 8192
4, 616320, Note_off_c, 10, 65, 95
4, 616320, Note_on_c, 8, 40, 95
4, 616800, Note_off_c, 8, 40, 95
4, 616800, Note_on_c, 8, 40, 95
4, 617280, Note_off_c, 8, 40, 95
4, 617280, Note_on_c, 8, 40, 95
4, 617760, Note_off_c, 8, 40, 95
4, 617760, Note_on_c, 8, 40, 95
4, 618240, Note_off_c, 8, 40, 95
4, 618240, Note_on_c, 8, 69, 95
4, 618240, Pitch_bend_c, 10, 8192
4, 618240, Note_on_c, 10, 67, 95
4, 618250, Pitch_bend_c, 10, 8320
4, 618260, Pitch_bend_c, 10, 8448
4, 618270, Pitch_bend_c, 10, 8576
4, 618280, Pitch_bend_c, 10, 8704
4, 618290, Pitch_bend_c, 10, 8832
4, 618300, Pitch_bend_c, 10, 8960
4, 618310, Pitch_bend_c, 10, 9088
4, 618320, Pitch_bend_c, 10, 9216
4, 618330, Pitch_bend_c, 10, 9344
4, 618340, Pitch_bend_c, 10, 9472
4, 618350, Pitch_bend_c, 10, 9600
4, 618360, Pitch_bend_c, 10, 9600
4, 618600, Pitch_bend_c, 10, 9600
4, 618610, Pitch_bend_c, 10, 9472
4, 618620, Pitch_bend_c, 10, 9344
4, 618630, Pitch_bend_c, 10, 9216
4, 618640, Pitch_bend_c, 10, 9088
4, 618650, Pitch_bend_c, 10, 8960
4, 618660, Pitch_bend_c, 10, 8832
4, 618670, Pitch_bend_c, 10, 8704
4, 618680, Pitch_bend_c, 10, 8576
4, 618690, Pitch_bend_c, 10, 8448
4, 618700, Pitch_bend_c, 10, 8320
4, 618710, Pitch_bend_c, 10, 8192
4, 618720, Note_off_c, 8, 69, 95
4, 618720, Pitch_bend_c, 10, 8192
4, 618720, Pitch_bend_c, 10, 8192
4, 618720, Note_off_c, 10, 67, 95
4, 618720, Note_on_c, 8, 69, 95
4, 618720, Pitch_bend_c, 10, 8192
4, 618720, Note_on_c, 10, 67, 95
4, 618730, Pitch_bend_c, 10, 8320
4, 618740, Pitch_bend_c, 10, 8448
4, 618750, Pitch_bend_c, 10, 8576
4, 618760, Pitch_bend_c, 10, 8704
4, 618770, Pitch_bend_c, 10, 8832
4, 618780, Pitch_bend_c, 10, 8960
4, 618790, Pitch_bend_c, 10, 9088
4, 618800, Pitch_bend_c, 10, 9216
4, 618810, Pitch_bend_c, 10, 9344
4, 618820, Pitch_bend_c, 10, 9472
4, 618830, Pitch_bend_c, 10, 9600
4, 618840, Pitch_bend_c, 10, 9600
4, 619080, Pitch_bend_c, 10, 9600
4, 619090, Pitch_bend_c, 10, 9472
4, 619100, Pitch_bend_c, 10, 9344
4, 619110, Pitch_bend_c, 10, 9216
4, 619120, Pitch_bend_c, 10, 9088
4, 619130, Pitch_bend_c, 10, 8960
4, 619140, Pitch_bend_c, 10, 8832
4, 619150, Pitch_bend_c, 10, 8704
4, 619160, Pitch_bend_c, 10, 8576
4, 619170, Pitch_bend_c, 10, 8448
4, 619180, Pitch_bend_c, 10, 8320
4, 619190, Pitch_bend_c, 10, 8192
4, 619200, Note_off_c, 8, 69, 95
4, 619200, Pitch_bend_c, 10, 8192
4, 619200, Pitch_bend_c, 10, 8192
4, 619200, Note_off_c, 10, 67, 95
4, 619200, Note_on_c, 8, 40, 95
4, 619680, Note_off_c, 8, 40, 95
4, 619680, Note_on_c, 8, 67, 95
4, 619680, Pitch_bend_c, 10, 8192
4, 619680, Note_on_c, 10, 65, 95
4, 619690, Pitch_bend_c, 10, 8320
4, 619700, Pitch_bend_c, 10, 8448
4, 619710, Pitch_bend_c, 10, 8576
4, 619720, Pitch_bend_c, 10, 8704
4, 619730, Pitch_bend_c, 10, 8832
4, 619740, Pitch_bend_c, 10, 8960
4, 619750, Pitch_bend_c, 10, 9088
4, 619760, Pitch_bend_c, 10, 9216
4, 619770, Pitch_bend_c, 10, 9344
4, 619780, Pitch_bend_c, 10, 9472
4, 619790, Pitch_bend_c, 10, 9600
4, 619800, Pitch_bend_c, 10, 9600
4, 620040, Pitch_bend_c, 10, 9600
4, 620050, Pitch_bend_c, 10, 9472
4, 620060, Pitch_bend_c, 10, 9344
4, 620070, Pitch_bend_c, 10, 9216
4, 620080, Pitch_bend_c, 10, 9088
4, 620090, Pitch_bend_c, 10, 8960
4, 620100, Pitch_bend_c, 10, 8832
4, 620110, Pitch_bend_c, 10, 8704
4, 620120, Pitch_bend_c, 10, 8576
4, 620130, Pitch_bend_c, 10, 8448
4, 620140, Pitch_bend_c, 10, 8320
4, 620150, Pitch_bend_c, 10, 8192
4, 620160, Note_off_c, 8, 67, 95
4, 620160, Pitch_bend_c, 10, 8192
4, 620160, Pitch_bend_c, 10, 8192
4, 620160, Note_off_c, 10, 65, 95
4, 620160, Note_on_c, 8, 67, 95
4, 620160, Pitch_bend_c, 10, 8192
4, 620160, Note_on_c, 10, 65, 95
4, 620170, Pitch_bend_c, 10, 8320
4, 620180, Pitch_bend_c, 10, 8448
4, 620190, Pitch_bend_c, 10, 8576
4, 620200, Pitch_bend_c, 10, 8704
4, 620210, Pitch_bend_c, 10, 8832
4, 620220, Pitch_bend_c, 10, 8960
4, 620230, Pitch_bend_c, 10, 9088
4, 620240, Pitch_bend_c, 10, 9216
4, 620250, Pitch_bend_c, 10, 9344
4, 620260, Pitch_bend_c, 10, 9472
4, 620270, Pitch_bend_c, 10, 9600
4, 620280, Pitch_bend_c, 10, 9600
4, 620520, Pitch_bend_c, 10, 9600
4, 620530, Pitch_bend_c, 10, 9472
4, 620540, Pitch_bend_c, 10, 9344
4, 620550, Pitch_bend_c, 10, 9216
4, 620560, Pitch_bend_c, 10, 9088
4, 620570, Pitch_bend_c, 10, 8960
4, 620580, Pitch_bend_c, 10, 8832
4, 620590, Pitch_bend_c, 10, 8704
4, 620600, Pitch_bend_c, 10, 8576
4, 620610, Pitch_bend_c, 10, 8448
4, 620620, Pitch_bend_c, 10, 8320
4, 620630, Pitch_bend_c, 10, 8192
4, 620640, Note_off_c, 8, 67, 95
4, 620640, Pitch_bend_c, 10, 8192
4, 620640, Pitch_bend_c, 10, 8192
4, 620640, Note_off_c, 10, 65, 95
4, 620640, Note_on_c, 8, 69, 95
4, 620640, Pitch_bend_c, 10, 8192
4, 620640, Note_on_c, 10, 67, 95
4, 620650, Pitch_bend_c, 10, 8320
4, 620660, Pitch_bend_c, 10, 8448
4, 620670, Pitch_bend_c, 10, 8576
4, 620680, Pitch_bend_c, 10, 8704
4, 620690, Pitch_bend_c, 10, 8832
4, 620700, Pitch_bend_c, 10, 8960
4, 620710, Pitch_bend_c, 10, 9088
4, 620720, Pitch_bend_c, 10, 9216
4, 620730, Pitch_bend_c, 10, 9344
4, 620740, Pitch_bend_c, 10, 9472
4, 620750, Pitch_bend_c, 10, 9600
4, 620760, Pitch_bend_c, 10, 9600
4, 621000, Pitch_bend_c, 10, 9600
4, 621010, Pitch_bend_c, 10, 9472
4, 621020, Pitch_bend_c, 10, 9344
4, 621030, Pitch_bend_c, 10, 9216
4, 621040, Pitch_bend_c, 10, 9088
4, 621050, Pitch_bend_c, 10, 8960
4, 621060, Pitch_bend_c, 10, 8832
4, 621070, Pitch_bend_c, 10, 8704
4, 621080, Pitch_bend_c, 10, 8576
4, 621090, Pitch_bend_c, 10, 8448
4, 621100, Pitch_bend_c, 10, 8320
4, 621110, Pitch_bend_c, 10, 8192
4, 621120, Note_off_c, 8, 69, 95
4, 621120, Pitch_bend_c, 10, 8192
4, 621120, Pitch_bend_c, 10, 8192
4, 621120, Note_off_c, 10, 67, 95
4, 621120, Note_on_c, 8, 67, 95
4, 621120, Pitch_bend_c, 10, 8192
4, 621120, Note_on_c, 10, 65, 95
4, 621130, Pitch_bend_c, 10, 8320
4, 621140, Pitch_bend_c, 10, 8448
4, 621150, Pitch_bend_c, 10, 8576
4, 621160, Pitch_bend_c, 10, 8704
4, 621170, Pitch_bend_c, 10, 8832
4, 621180, Pitch_bend_c, 10, 8960
4, 621190, Pitch_bend_c, 10, 9088
4, 621200, Pitch_bend_c, 10, 9216
4, 621210, Pitch_bend_c, 10, 9344
4, 621220, Pitch_bend_c, 10, 9472
4, 621230, Pitch_bend_c, 10, 9600
4, 621240, Pitch_bend_c, 10, 9600
4, 621480, Pitch_bend_c, 10, 9600
4, 621490, Pitch_bend_c, 10, 9472
4, 621500, Pitch_bend_c, 10, 9344
4, 621510, Pitch_bend_c, 10, 9216
4, 621520, Pitch_bend_c, 10, 9088
4, 621530, Pitch_bend_c, 10, 8960
4, 621540, Pitch_bend_c, 10, 8832
4, 621550, Pitch_bend_c, 10, 8704
4, 621560, Pitch_bend_c, 10, 8576
4, 621570, Pitch_bend_c, 10, 8448
4, 621580, Pitch_bend_c, 10, 8320
4, 621590, Pitch_bend_c, 10, 8192
4, 621600, Note_off_c, 8, 67, 95
4, 621600, Pitch_bend_c, 10, 8192
4, 621600, Pitch_bend_c, 10, 8192
4, 621600, Note_off_c, 10, 65, 95
4, 621600, Note_on_c, 8, 45, 95
4, 622080, Note_off_c, 8, 45, 95
4, 622080, Note_on_c, 8, 69, 95
4, 625920, Note_off_c, 8, 69, 95
4, 625920, End_track
5, 0, Start_track
5, 0, Pitch_bend_c, 11, 8192
5, 0, Control_c, 11, 7, 87
5, 0, Control_c, 11, 10, 111
5, 0, Control_c, 11, 93, 0
5, 0, Control_c, 11, 91, 0
5, 0, Control_c, 11, 95, 0
5, 0, Control_c, 11, 92, 0
5, 0, Control_c, 11, 11, 127
5, 0, Program_c, 11, 29
5, 0, Control_c, 12, 7, 87
5, 0, Control_c, 12, 10, 111
5, 0, Control_c, 12, 93, 0
5, 0, Control_c, 12, 91, 0
5, 0, Control_c, 12, 95, 0
5, 0, Control_c, 12, 92, 0
5, 0, Control_c, 12, 11, 127
5, 0, Program_c, 12, 29
5, 26880, Note_on_c, 12, 59, 95
5, 26880, Note_on_c, 12, 47, 95
5, 27040, Pitch_bend_c, 12, 8192
5, 27040, Pitch_bend_c, 12, 8192
5, 27200, Pitch_bend_c, 12, 8320
5, 27200, Pitch_bend_c, 12, 8320
5, 27360, Pitch_bend_c, 12, 8192
5, 27360, Pitch_bend_c, 12, 8192
5, 27520, Pitch_bend_c, 12, 8320
5, 27520, Pitch_bend_c, 12, 8320
5, 27680, Pitch_bend_c, 12, 8192
5, 27680, Pitch_bend_c, 12, 8192
5, 27840, Pitch_bend_c, 12, 8320
5, 27840, Pitch_bend_c, 12, 8320
5, 28000, Pitch_bend_c, 12, 8192
5, 28000, Pitch_bend_c, 12, 8192
5, 28160, Pitch_bend_c, 12, 8320
5, 28160, Pitch_bend_c, 12, 8320
5, 28320, Pitch_bend_c, 12, 8192
5, 28320, Pitch_bend_c, 12, 8192
5, 28480, Pitch_bend_c, 12, 8320
5, 28480, Pitch_bend_c, 12, 8320
5, 28640, Pitch_bend_c, 12, 8192
5, 28640, Pitch_bend_c, 12, 8192
5, 28800, Pitch_bend_c, 12, 8320
5, 28800, Pitch_bend_c, 12, 8320
5, 28960, Pitch_bend_c, 12, 8192
5, 28960, Pitch_bend_c, 12, 8192
5, 29120, Pitch_bend_c, 12, 8320
5, 29120, Pitch_bend_c, 12, 8320
5, 29280, Pitch_bend_c, 12, 8192
5, 29280, Pitch_bend_c, 12, 8192
5, 29440, Pitch_bend_c, 12, 8320
5, 29440, Pitch_bend_c, 12, 8320
5, 29600, Pitch_bend_c, 12, 8192
5, 29600, Pitch_bend_c, 12, 8192
5, 29760, Pitch_bend_c, 12, 8320
5, 29760, Pitch_bend_c, 12, 8320
5, 29920, Pitch_bend_c, 12, 8192
5, 29920, Pitch_bend_c, 12, 8192
5, 30080, Pitch_bend_c, 12, 8320
5, 30080, Pitch_bend_c, 12, 8320
5, 30240, Pitch_bend_c, 12, 8192
5, 30240, Pitch_bend_c, 12, 8192
5, 30400, Pitch_bend_c, 12, 8320
5, 30400, Pitch_bend_c, 12, 8320
5, 30560, Pitch_bend_c, 12, 8192
5, 30560, Pitch_bend_c, 12, 8192
5, 30720, Pitch_bend_c, 12, 8320
5, 30720, Pitch_bend_c, 12, 8320
5, 30880, Pitch_bend_c, 12, 8192
5, 30880, Pitch_bend_c, 12, 8192
5, 31040, Pitch_bend_c, 12, 8320
5, 31040, Pitch_bend_c, 12, 8320
5, 31200, Pitch_bend_c, 12, 8192
5, 31200, Pitch_bend_c, 12, 8192
5, 31360, Pitch_bend_c, 12, 8320
5, 31360, Pitch_bend_c, 12, 8320
5, 31520, Pitch_bend_c, 12, 8192
5, 31520, Pitch_bend_c, 12, 8192
5, 31680, Pitch_bend_c, 12, 8320
5, 31680, Pitch_bend_c, 12, 8320
5, 31840, Pitch_bend_c, 12, 8192
5, 31840, Pitch_bend_c, 12, 8192
5, 32000, Pitch_bend_c, 12, 8320
5, 32000, Pitch_bend_c, 12, 8320
5, 32160, Pitch_bend_c, 12, 8192
5, 32160, Pitch_bend_c, 12, 8192
5, 32320, Pitch_bend_c, 12, 8320
5, 32320, Pitch_bend_c, 12, 8320
5, 32480, Pitch_bend_c, 12, 8192
5, 32480, Pitch_bend_c, 12, 8192
5, 32640, Pitch_bend_c, 12, 8320
5, 32640, Pitch_bend_c, 12, 8320
5, 32800, Pitch_bend_c, 12, 8192
5, 32800, Pitch_bend_c, 12, 8192
5, 32960, Pitch_bend_c, 12, 8320
5, 32960, Pitch_bend_c, 12, 8320
5, 33120, Pitch_bend_c, 12, 8192
5, 33120, Pitch_bend_c, 12, 8192
5, 33280, Pitch_bend_c, 12, 8320
5, 33280, Pitch_bend_c, 12, 8320
5, 33440, Pitch_bend_c, 12, 8192
5, 33440, Pitch_bend_c, 12, 8192
5, 33600, Pitch_bend_c, 12, 8320
5, 33600, Pitch_bend_c, 12, 8320
5, 33760, Pitch_bend_c, 12, 8192
5, 33760, Pitch_bend_c, 12, 8192
5, 33920, Pitch_bend_c, 12, 8320
5, 33920, Pitch_bend_c, 12, 8320
5, 34080, Pitch_bend_c, 12, 8192
5, 34080, Pitch_bend_c, 12, 8192
5, 34240, Pitch_bend_c, 12, 8320
5, 34240, Pitch_bend_c, 12, 8320
5, 34400, Pitch_bend_c, 12, 8192
5, 34400, Pitch_bend_c, 12, 8192
5, 34560, Pitch_bend_c, 12, 8320
5, 34560, Pitch_bend_c, 12, 8320
5, 34720, Pitch_bend_c, 12, 8192
5, 34720, Pitch_bend_c, 12, 8192
5, 34880, Pitch_bend_c, 12, 8320
5, 34880, Pitch_bend_c, 12, 8320
5, 35040, Pitch_bend_c, 12, 8192
5, 35040, Pitch_bend_c, 12, 8192
5, 35200, Pitch_bend_c, 12, 8320
5, 35200, Pitch_bend_c, 12, 8320
5, 35360, Pitch_bend_c, 12, 8192
5, 35360, Pitch_bend_c, 12, 8192
5, 35520, Pitch_bend_c, 12, 8320
5, 35520, Pitch_bend_c, 12, 8320
5, 35680, Pitch_bend_c, 12, 8192
5, 35680, Pitch_bend_c, 12, 8192
5, 35840, Pitch_bend_c, 12, 8320
5, 35840, Pitch_bend_c, 12, 8320
5, 36000, Pitch_bend_c, 12, 8192
5, 36000, Pitch_bend_c, 12, 8192
5, 36160, Pitch_bend_c, 12, 8320
5, 36160, Pitch_bend_c, 12, 8320
5, 36320, Pitch_bend_c, 12, 8192
5, 36320, Pitch_bend_c, 12, 8192
5, 36480, Pitch_bend_c, 12, 8320
5, 36480, Pitch_bend_c, 12, 8320
5, 36640, Pitch_bend_c, 12, 8192
5, 36640, Pitch_bend_c, 12, 8192
5, 36800, Pitch_bend_c, 12, 8320
5, 36800, Pitch_bend_c, 12, 8320
5, 36960, Pitch_bend_c, 12, 8192
5, 36960, Pitch_bend_c, 12, 8192
5, 37120, Pitch_bend_c, 12, 8320
5, 37120, Pitch_bend_c, 12, 8320
5, 37280, Pitch_bend_c, 12, 8192
5, 37280, Pitch_bend_c, 12, 8192
5, 37440, Pitch_bend_c, 12, 8320
5, 37440, Pitch_bend_c, 12, 8320
5, 37600, Pitch_bend_c, 12, 8192
5, 37600, Pitch_bend_c, 12, 8192
5, 37760, Pitch_bend_c, 12, 8320
5, 37760, Pitch_bend_c, 12, 8320
5, 37920, Pitch_bend_c, 12, 8192
5, 37920, Pitch_bend_c, 12, 8192
5, 38080, Pitch_bend_c, 12, 8320
5, 38080, Pitch_bend_c, 12, 8320
5, 38240, Pitch_bend_c, 12, 8192
5, 38240, Pitch_bend_c, 12, 8192
5, 38400, Pitch_bend_c, 12, 8320
5, 38400, Pitch_bend_c, 12, 8320
5, 38560, Pitch_bend_c, 12, 8192
5, 38560, Pitch_bend_c, 12, 8192
5, 38720, Pitch_bend_c, 12, 8320
5, 38720, Pitch_bend_c, 12, 8320
5, 38880, Pitch_bend_c, 12, 8192
5, 38880, Pitch_bend_c, 12, 8192
5, 39040, Pitch_bend_c, 12, 8320
5, 39040, Pitch_bend_c, 12, 8320
5, 39200, Pitch_bend_c, 12, 8192
5, 39200, Pitch_bend_c, 12, 8192
5, 39360, Pitch_bend_c, 12, 8320
5, 39360, Pitch_bend_c, 12, 8320
5, 39520, Pitch_bend_c, 12, 8192
5, 39520, Pitch_bend_c, 12, 8192
5, 39680, Pitch_bend_c, 12, 8320
5, 39680, Pitch_bend_c, 12, 8320
5, 39840, Pitch_bend_c, 12, 8192
5, 39840, Pitch_bend_c, 12, 8192
5, 40000, Pitch_bend_c, 12, 8320
5, 40000, Pitch_bend_c, 12, 8320
5, 40160, Pitch_bend_c, 12, 8192
5, 40160, Pitch_bend_c, 12, 8192
5, 40320, Pitch_bend_c, 12, 8320
5, 40320, Pitch_bend_c, 12, 8320
5, 40480, Pitch_bend_c, 12, 8192
5, 40480, Pitch_bend_c, 12, 8192
5, 40640, Pitch_bend_c, 12, 8320
5, 40640, Pitch_bend_c, 12, 8320
5, 40800, Pitch_bend_c, 12, 8192
5, 40800, Pitch_bend_c, 12, 8192
5, 40960, Pitch_bend_c, 12, 8320
5, 40960, Pitch_bend_c, 12, 8320
5, 41120, Pitch_bend_c, 12, 8192
5, 41120, Pitch_bend_c, 12, 8192
5, 41280, Pitch_bend_c, 12, 8320
5, 41280, Pitch_bend_c, 12, 8320
5, 41440, Pitch_bend_c, 12, 8192
5, 41440, Pitch_bend_c, 12, 8192
5, 41600, Pitch_bend_c, 12, 8320
5, 41600, Pitch_bend_c, 12, 8320
5, 41760, Pitch_bend_c, 12, 8192
5, 41760, Pitch_bend_c, 12, 8192
5, 41920, Pitch_bend_c, 12, 8320
5, 41920, Pitch_bend_c, 12, 8320
5, 42080, Pitch_bend_c, 12, 8192
5, 42080, Pitch_bend_c, 12, 8192
5, 42240, Pitch_bend_c, 12, 8320
5, 42240, Pitch_bend_c, 12, 8320
5, 42400, Pitch_bend_c, 12, 8192
5, 42400, Pitch_bend_c, 12, 8192
5, 42560, Pitch_bend_c, 12, 8320
5, 42560, Pitch_bend_c, 12, 8320
5, 42720, Pitch_bend_c, 12, 8192
5, 42720, Pitch_bend_c, 12, 8192
5, 42880, Pitch_bend_c, 12, 8320
5, 42880, Pitch_bend_c, 12, 8320
5, 43040, Pitch_bend_c, 12, 8192
5, 43040, Pitch_bend_c, 12, 8192
5, 43200, Pitch_bend_c, 12, 8320
5, 43200, Pitch_bend_c, 12, 8320
5, 43360, Pitch_bend_c, 12, 8192
5, 43360, Pitch_bend_c, 12, 8192
5, 43520, Pitch_bend_c, 12, 8320
5, 43520, Pitch_bend_c, 12, 8320
5, 43680, Pitch_bend_c, 12, 8192
5, 43680, Pitch_bend_c, 12, 8192
5, 43840, Pitch_bend_c, 12, 8320
5, 43840, Pitch_bend_c, 12, 8320
5, 44000, Pitch_bend_c, 12, 8192
5, 44000, Pitch_bend_c, 12, 8192
5, 44160, Pitch_bend_c, 12, 8320
5, 44160, Pitch_bend_c, 12, 8320
5, 44320, Pitch_bend_c, 12, 8192
5, 44320, Pitch_bend_c, 12, 8192
5, 44480, Pitch_bend_c, 12, 8320
5, 44480, Pitch_bend_c, 12, 8320
5, 44640, Pitch_bend_c, 12, 8192
5, 44640, Pitch_bend_c, 12, 8192
5, 44800, Pitch_bend_c, 12, 8320
5, 44800, Pitch_bend_c, 12, 8320
5, 44960, Pitch_bend_c, 12, 8192
5, 44960, Pitch_bend_c, 12, 8192
5, 45120, Pitch_bend_c, 12, 8320
5, 45120, Pitch_bend_c, 12, 8320
5, 45280, Pitch_bend_c, 12, 8192
5, 45280, Pitch_bend_c, 12, 8192
5, 45440, Pitch_bend_c, 12, 8320
5, 45440, Pitch_bend_c, 12, 8320
5, 45600, Pitch_bend_c, 12, 8192
5, 45600, Pitch_bend_c, 12, 8192
5, 45760, Pitch_bend_c, 12, 8320
5, 45760, Pitch_bend_c, 12, 8320
5, 45920, Pitch_bend_c, 12, 8192
5, 45920, Pitch_bend_c, 12, 8192
5, 46080, Pitch_bend_c, 12, 8320
5, 46080, Pitch_bend_c, 12, 8320
5, 46240, Pitch_bend_c, 12, 8192
5, 46240, Pitch_bend_c, 12, 8192
5, 46400, Pitch_bend_c, 12, 8320
5, 46400, Pitch_bend_c, 12, 8320
5, 46560, Pitch_bend_c, 12, 8192
5, 46560, Pitch_bend_c, 12, 8192
5, 46720, Pitch_bend_c, 12, 8320
5, 46720, Pitch_bend_c, 12, 8320
5, 46880, Pitch_bend_c, 12, 8192
5, 46880, Pitch_bend_c, 12, 8192
5, 47040, Pitch_bend_c, 12, 8320
5, 47040, Pitch_bend_c, 12, 8320
5, 47200, Pitch_bend_c, 12, 8192
5, 47200, Pitch_bend_c, 12, 8192
5, 47360, Pitch_bend_c, 12, 8320
5, 47360, Pitch_bend_c, 12, 8320
5, 47520, Pitch_bend_c, 12, 8192
5, 47520, Pitch_bend_c, 12, 8192
5, 47680, Pitch_bend_c, 12, 8320
5, 47680, Pitch_bend_c, 12, 8320
5, 47840, Pitch_bend_c, 12, 8192
5, 47840, Pitch_bend_c, 12, 8192
5, 48000, Pitch_bend_c, 12, 8320
5, 48000, Pitch_bend_c, 12, 8320
5, 48160, Pitch_bend_c, 12, 8192
5, 48160, Pitch_bend_c, 12, 8192
5, 48320, Pitch_bend_c, 12, 8320
5, 48320, Pitch_bend_c, 12, 8320
5, 48480, Pitch_bend_c, 12, 8192
5, 48480, Pitch_bend_c, 12, 8192
5, 48640, Pitch_bend_c, 12, 8320
5, 48640, Pitch_bend_c, 12, 8320
5, 48800, Pitch_bend_c, 12, 8192
5, 48800, Pitch_bend_c, 12, 8192
5, 48960, Pitch_bend_c, 12, 8320
5, 48960, Pitch_bend_c, 12, 8320
5, 49120, Pitch_bend_c, 12, 8192
5, 49120, Pitch_bend_c, 12, 8192
5, 49280, Pitch_bend_c, 12, 8320
5, 49280, Pitch_bend_c, 12, 8320
5, 49440, Pitch_bend_c, 12, 8192
5, 49440, Pitch_bend_c, 12, 8192
5, 49600, Pitch_bend_c, 12, 8320
5, 49600, Pitch_bend_c, 12, 8320
5, 49760, Pitch_bend_c, 12, 8192
5, 49760, Pitch_bend_c, 12, 8192
5, 49920, Pitch_bend_c, 12, 8320
5, 49920, Pitch_bend_c, 12, 8320
5, 50080, Pitch_bend_c, 12, 8192
5, 50080, Pitch_bend_c, 12, 8192
5, 50240, Pitch_bend_c, 12, 8320
5, 50240, Pitch_bend_c, 12, 8320
5, 50400, Pitch_bend_c, 12, 8192
5, 50400, Pitch_bend_c, 12, 8192
5, 50560, Pitch_bend_c, 12, 8320
5, 50560, Pitch_bend_c, 12, 8320
5, 50720, Pitch_bend_c, 12, 8192
5, 50720, Pitch_bend_c, 12, 8192
5, 50880, Pitch_bend_c, 12, 8320
5, 50880, Pitch_bend_c, 12, 8320
5, 51040, Pitch_bend_c, 12, 8192
5, 51040, Pitch_bend_c, 12, 8192
5, 51200, Pitch_bend_c, 12, 8320
5, 51200, Pitch_bend_c, 12, 8320
5, 51360, Pitch_bend_c, 12, 8192
5, 51360, Pitch_bend_c, 12, 8192
5, 51520, Pitch_bend_c, 12, 8320
5, 51520, Pitch_bend_c, 12, 8320
5, 51680, Pitch_bend_c, 12, 8192
5, 51680, Pitch_bend_c, 12, 8192
5, 51840, Pitch_bend_c, 12, 8320
5, 51840, Pitch_bend_c, 12, 8320
5, 52000, Pitch_bend_c, 12, 8192
5, 52000, Pitch_bend_c, 12, 8192
5, 52160, Pitch_bend_c, 12, 8320
5, 52160, Pitch_bend_c, 12, 8320
5, 52320, Pitch_bend_c, 12, 8192
5, 52320, Pitch_bend_c, 12, 8192
5, 52480, Pitch_bend_c, 12, 8320
5, 52480, Pitch_bend_c, 12, 8320
5, 52640, Pitch_bend_c, 12, 8192
5, 52640, Pitch_bend_c, 12, 8192
5, 52800, Pitch_bend_c, 12, 8320
5, 52800, Pitch_bend_c, 12, 8320
5, 52960, Pitch_bend_c, 12, 8192
5, 52960, Pitch_bend_c, 12, 8192
5, 53120, Pitch_bend_c, 12, 8320
5, 53120, Pitch_bend_c, 12, 8320
5, 53280, Pitch_bend_c, 12, 8192
5, 53280, Pitch_bend_c, 12, 8192
5, 53440, Pitch_bend_c, 12, 8320
5, 53440, Pitch_bend_c, 12, 8320
5, 53600, Pitch_bend_c, 12, 8192
5, 53600, Pitch_bend_c, 12, 8192
5, 53760, Pitch_bend_c, 12, 8320
5, 53760, Pitch_bend_c, 12, 8320
5, 53920, Pitch_bend_c, 12, 8192
5, 53920, Pitch_bend_c, 12, 8192
5, 54080, Pitch_bend_c, 12, 8320
5, 54080, Pitch_bend_c, 12, 8320
5, 54240, Pitch_bend_c, 12, 8192
5, 54240, Pitch_bend_c, 12, 8192
5, 54400, Pitch_bend_c, 12, 8320
5, 54400, Pitch_bend_c, 12, 8320
5, 54560, Pitch_bend_c, 12, 8192
5, 54560, Pitch_bend_c, 12, 8192
5, 54720, Pitch_bend_c, 12, 8320
5, 54720, Pitch_bend_c, 12, 8320
5, 54880, Pitch_bend_c, 12, 8192
5, 54880, Pitch_bend_c, 12, 8192
5, 55040, Pitch_bend_c, 12, 8320
5, 55040, Pitch_bend_c, 12, 8320
5, 55200, Pitch_bend_c, 12, 8192
5, 55200, Pitch_bend_c, 12, 8192
5, 55360, Pitch_bend_c, 12, 8320
5, 55360, Pitch_bend_c, 12, 8320
5, 55520, Pitch_bend_c, 12, 8192
5, 55520, Pitch_bend_c, 12, 8192
5, 55680, Pitch_bend_c, 12, 8320
5, 55680, Pitch_bend_c, 12, 8320
5, 55840, Pitch_bend_c, 12, 8192
5, 55840, Pitch_bend_c, 12, 8192
5, 56000, Pitch_bend_c, 12, 8320
5, 56000, Pitch_bend_c, 12, 8320
5, 56160, Pitch_bend_c, 12, 8192
5, 56160, Pitch_bend_c, 12, 8192
5, 56320, Pitch_bend_c, 12, 8320
5, 56320, Pitch_bend_c, 12, 8320
5, 56480, Pitch_bend_c, 12, 8192
5, 56480, Pitch_bend_c, 12, 8192
5, 56640, Pitch_bend_c, 12, 8320
5, 56640, Pitch_bend_c, 12, 8320
5, 56800, Pitch_bend_c, 12, 8192
5, 56800, Pitch_bend_c, 12, 8192
5, 56960, Pitch_bend_c, 12, 8320
5, 56960, Pitch_bend_c, 12, 8320
5, 57120, Pitch_bend_c, 12, 8192
5, 57120, Pitch_bend_c, 12, 8192
5, 57280, Pitch_bend_c, 12, 8320
5, 57280, Pitch_bend_c, 12, 8320
5, 57440, Pitch_bend_c, 12, 8192
5, 57440, Pitch_bend_c, 12, 8192
5, 57600, Pitch_bend_c, 12, 8320
5, 57600, Pitch_bend_c, 12, 8320
5, 57760, Pitch_bend_c, 12, 8192
5, 57760, Pitch_bend_c, 12, 8192
5, 57920, Pitch_bend_c, 12, 8320
5, 57920, Pitch_bend_c, 12, 8320
5, 58080, Pitch_bend_c, 12, 8192
5, 58080, Pitch_bend_c, 12, 8192
5, 58240, Pitch_bend_c, 12, 8320
5, 58240, Pitch_bend_c, 12, 8320
5, 58400, Pitch_bend_c, 12, 8192
5, 58400, Pitch_bend_c, 12, 8192
5, 58560, Pitch_bend_c, 12, 8320
5, 58560, Pitch_bend_c, 12, 8320
5, 58720, Pitch_bend_c, 12, 8192
5, 58720, Pitch_bend_c, 12, 8192
5, 58880, Pitch_bend_c, 12, 8320
5, 58880, Pitch_bend_c, 12, 8320
5, 59040, Pitch_bend_c, 12, 8192
5, 59040, Pitch_bend_c, 12, 8192
5, 59200, Pitch_bend_c, 12, 8320
5, 59200, Pitch_bend_c, 12, 8320
5, 59360, Pitch_bend_c, 12, 8192
5, 59360, Pitch_bend_c, 12, 8192
5, 59520, Pitch_bend_c, 12, 8320
5, 59520, Pitch_bend_c, 12, 8320
5, 59680, Pitch_bend_c, 12, 8192
5, 59680, Pitch_bend_c, 12, 8192
5, 59840, Pitch_bend_c, 12, 8320
5, 59840, Pitch_bend_c, 12, 8320
5, 60000, Pitch_bend_c, 12, 8192
5, 60000, Pitch_bend_c, 12, 8192
5, 60160, Pitch_bend_c, 12, 8320
5, 60160, Pitch_bend_c, 12, 8320
5, 60320, Pitch_bend_c, 12, 8192
5, 60320, Pitch_bend_c, 12, 8192
5, 60480, Pitch_bend_c, 12, 8320
5, 60480, Pitch_bend_c, 12, 8320
5, 60640, Pitch_bend_c, 12, 8192
5, 60640, Pitch_bend_c, 12, 8192
5, 60800, Pitch_bend_c, 12, 8320
5, 60800, Pitch_bend_c, 12, 8320
5, 60960, Pitch_bend_c, 12, 8192
5, 60960, Pitch_bend_c, 12, 8192
5, 61120, Pitch_bend_c, 12, 8320
5, 61120, Pitch_bend_c, 12, 8320
5, 61280, Pitch_bend_c, 12, 8192
5, 61280, Pitch_bend_c, 12, 8192
5, 61440, Pitch_bend_c, 12, 8320
5, 61440, Pitch_bend_c, 12, 8320
5, 61600, Pitch_bend_c, 12, 8192
5, 61600, Pitch_bend_c, 12, 8192
5, 61760, Pitch_bend_c, 12, 8320
5, 61760, Pitch_bend_c, 12, 8320
5, 61920, Pitch_bend_c, 12, 8192
5, 61920, Pitch_bend_c, 12, 8192
5, 62080, Pitch_bend_c, 12, 8320
5, 62080, Pitch_bend_c, 12, 8320
5, 62240, Pitch_bend_c, 12, 8192
5, 62240, Pitch_bend_c, 12, 8192
5, 62400, Pitch_bend_c, 12, 8320
5, 62400, Pitch_bend_c, 12, 8320
5, 62560, Pitch_bend_c, 12, 8192
5, 62560, Pitch_bend_c, 12, 8192
5, 62720, Pitch_bend_c, 12, 8320
5, 62720, Pitch_bend_c, 12, 8320
5, 62880, Pitch_bend_c, 12, 8192
5, 62880, Pitch_bend_c, 12, 8192
5, 63040, Pitch_bend_c, 12, 8320
5, 63040, Pitch_bend_c, 12, 8320
5, 63200, Pitch_bend_c, 12, 8192
5, 63200, Pitch_bend_c, 12, 8192
5, 63360, Pitch_bend_c, 12, 8320
5, 63360, Pitch_bend_c, 12, 8320
5, 63520, Pitch_bend_c, 12, 8192
5, 63520, Pitch_bend_c, 12, 8192
5, 63680, Pitch_bend_c, 12, 8320
5, 63680, Pitch_bend_c, 12, 8320
5, 63840, Pitch_bend_c, 12, 8192
5, 63840, Pitch_bend_c, 12, 8192
5, 64000, Pitch_bend_c, 12, 8320
5, 64000, Pitch_bend_c, 12, 8320
5, 64160, Pitch_bend_c, 12, 8192
5, 64160, Pitch_bend_c, 12, 8192
5, 64320, Pitch_bend_c, 12, 8320
5, 64320, Pitch_bend_c, 12, 8320
5, 64480, Pitch_bend_c, 12, 8192
5, 64480, Pitch_bend_c, 12, 8192
5, 64640, Pitch_bend_c, 12, 8320
5, 64640, Pitch_bend_c, 12, 8320
5, 64800, Pitch_bend_c, 12, 8192
5, 64800, Pitch_bend_c, 12, 8192
5, 64960, Pitch_bend_c, 12, 8320
5, 64960, Pitch_bend_c, 12, 8320
5, 65120, Pitch_bend_c, 12, 8192
5, 65120, Pitch_bend_c, 12, 8192
5, 65280, Pitch_bend_c, 12, 8320
5, 65280, Pitch_bend_c, 12, 8320
5, 65440, Pitch_bend_c, 12, 8192
5, 65440, Pitch_bend_c, 12, 8192
5, 65600, Pitch_bend_c, 12, 8320
5, 65600, Pitch_bend_c, 12, 8320
5, 65760, Pitch_bend_c, 12, 8192
5, 65760, Pitch_bend_c, 12, 8192
5, 65920, Pitch_bend_c, 12, 8320
5, 65920, Pitch_bend_c, 12, 8320
5, 66080, Pitch_bend_c, 12, 8192
5, 66080, Pitch_bend_c, 12, 8192
5, 66240, Pitch_bend_c, 12, 8320
5, 66240, Pitch_bend_c, 12, 8320
5, 66400, Pitch_bend_c, 12, 8192
5, 66400, Pitch_bend_c, 12, 8192
5, 66560, Pitch_bend_c, 12, 8320
5, 66560, Pitch_bend_c, 12, 8320
5, 66720, Pitch_bend_c, 12, 8192
5, 66720, Pitch_bend_c, 12, 8192
5, 66880, Pitch_bend_c, 12, 8320
5, 66880, Pitch_bend_c, 12, 8320
5, 67040, Pitch_bend_c, 12, 8192
5, 67040, Pitch_bend_c, 12, 8192
5, 67200, Pitch_bend_c, 12, 8320
5, 67200, Pitch_bend_c, 12, 8320
5, 67360, Pitch_bend_c, 12, 8192
5, 67360, Pitch_bend_c, 12, 8192
5, 67520, Pitch_bend_c, 12, 8320
5, 67520, Pitch_bend_c, 12, 8320
5, 67680, Pitch_bend_c, 12, 8192
5, 67680, Pitch_bend_c, 12, 8192
5, 67840, Pitch_bend_c, 12, 8320
5, 67840, Pitch_bend_c, 12, 8320
5, 68000, Pitch_bend_c, 12, 8192
5, 68000, Pitch_bend_c, 12, 8192
5, 68160, Pitch_bend_c, 12, 8320
5, 68160, Pitch_bend_c, 12, 8320
5, 68320, Pitch_bend_c, 12, 8192
5, 68320, Pitch_bend_c, 12, 8192
5, 68480, Pitch_bend_c, 12, 8320
5, 68480, Pitch_bend_c, 12, 8320
5, 68640, Pitch_bend_c, 12, 8192
5, 68640, Pitch_bend_c, 12, 8192
5, 68800, Pitch_bend_c, 12, 8320
5, 68800, Pitch_bend_c, 12, 8320
5, 68960, Pitch_bend_c, 12, 8192
5, 68960, Pitch_bend_c, 12, 8192
5, 69120, Pitch_bend_c, 12, 8320
5, 69120, Pitch_bend_c, 12, 8320
5, 69280, Pitch_bend_c, 12, 8192
5, 69280, Pitch_bend_c, 12, 8192
5, 69440, Pitch_bend_c, 12, 8320
5, 69440, Pitch_bend_c, 12, 8320
5, 69600, Pitch_bend_c, 12, 8192
5, 69600, Pitch_bend_c, 12, 8192
5, 69760, Pitch_bend_c, 12, 8320
5, 69760, Pitch_bend_c, 12, 8320
5, 69920, Pitch_bend_c, 12, 8192
5, 69920, Pitch_bend_c, 12, 8192
5, 70080, Pitch_bend_c, 12, 8320
5, 70080, Pitch_bend_c, 12, 8320
5, 70240, Pitch_bend_c, 12, 8192
5, 70240, Pitch_bend_c, 12, 8192
5, 70400, Pitch_bend_c, 12, 8320
5, 70400, Pitch_bend_c, 12, 8320
5, 70560, Pitch_bend_c, 12, 8192
5, 70560, Pitch_bend_c, 12, 8192
5, 70720, Pitch_bend_c, 12, 8320
5, 70720, Pitch_bend_c, 12, 8320
5, 70880, Pitch_bend_c, 12, 8192
5, 70880, Pitch_bend_c, 12, 8192
5, 71040, Pitch_bend_c, 12, 8320
5, 71040, Pitch_bend_c, 12, 8320
5, 71200, Pitch_bend_c, 12, 8192
5, 71200, Pitch_bend_c, 12, 8192
5, 71360, Pitch_bend_c, 12, 8320
5, 71360, Pitch_bend_c, 12, 8320
5, 71520, Pitch_bend_c, 12, 8192
5, 71520, Pitch_bend_c, 12, 8192
5, 71680, Pitch_bend_c, 12, 8320
5, 71680, Pitch_bend_c, 12, 8320
5, 71840, Pitch_bend_c, 12, 8192
5, 71840, Pitch_bend_c, 12, 8192
5, 72000, Pitch_bend_c, 12, 8320
5, 72000, Pitch_bend_c, 12, 8320
5, 72160, Pitch_bend_c, 12, 8192
5, 72160, Pitch_bend_c, 12, 8192
5, 72320, Pitch_bend_c, 12, 8320
5, 72320, Pitch_bend_c, 12, 8320
5, 72480, Pitch_bend_c, 12, 8192
5, 72480, Pitch_bend_c, 12, 8192
5, 72640, Pitch_bend_c, 12, 8320
5, 72640, Pitch_bend_c, 12, 8320
5, 72800, Pitch_bend_c, 12, 8192
5, 72800, Pitch_bend_c, 12, 8192
5, 72960, Pitch_bend_c, 12, 8320
5, 72960, Pitch_bend_c, 12, 8320
5, 73120, Pitch_bend_c, 12, 8192
5, 73120, Pitch_bend_c, 12, 8192
5, 73280, Pitch_bend_c, 12, 8320
5, 73280, Pitch_bend_c, 12, 8320
5, 73440, Pitch_bend_c, 12, 8192
5, 73440, Pitch_bend_c, 12, 8192
5, 73600, Pitch_bend_c, 12, 8320
5, 73600, Pitch_bend_c, 12, 8320
5, 73760, Pitch_bend_c, 12, 8192
5, 73760, Pitch_bend_c, 12, 8192
5, 73920, Pitch_bend_c, 12, 8320
5, 73920, Pitch_bend_c, 12, 8320
5, 74080, Pitch_bend_c, 12, 8192
5, 74080, Pitch_bend_c, 12, 8192
5, 74240, Pitch_bend_c, 12, 8320
5, 74240, Pitch_bend_c, 12, 8320
5, 74400, Pitch_bend_c, 12, 8192
5, 74400, Pitch_bend_c, 12, 8192
5, 74560, Pitch_bend_c, 12, 8320
5, 74560, Pitch_bend_c, 12, 8320
5, 74720, Pitch_bend_c, 12, 8192
5, 74720, Pitch_bend_c, 12, 8192
5, 74880, Pitch_bend_c, 12, 8320
5, 74880, Pitch_bend_c, 12, 8320
5, 75040, Pitch_bend_c, 12, 8192
5, 75040, Pitch_bend_c, 12, 8192
5, 75200, Pitch_bend_c, 12, 8320
5, 75200, Pitch_bend_c, 12, 8320
5, 75360, Pitch_bend_c, 12, 8192
5, 75360, Pitch_bend_c, 12, 8192
5, 75520, Pitch_bend_c, 12, 8320
5, 75520, Pitch_bend_c, 12, 8320
5, 75680, Pitch_bend_c, 12, 8192
5, 75680, Pitch_bend_c, 12, 8192
5, 75840, Pitch_bend_c, 12, 8320
5, 75840, Pitch_bend_c, 12, 8320
5, 76000, Pitch_bend_c, 12, 8192
5, 76000, Pitch_bend_c, 12, 8192
5, 76160, Pitch_bend_c, 12, 8320
5, 76160, Pitch_bend_c, 12, 8320
5, 76320, Pitch_bend_c, 12, 8192
5, 76320, Pitch_bend_c, 12, 8192
5, 76480, Pitch_bend_c, 12, 8320
5, 76480, Pitch_bend_c, 12, 8320
5, 76640, Pitch_bend_c, 12, 8192
5, 76640, Pitch_bend_c, 12, 8192
5, 76800, Pitch_bend_c, 12, 8320
5, 76800, Pitch_bend_c, 12, 8192
5, 76800, Note_off_c, 12, 59, 95
5, 76800, Pitch_bend_c, 12, 8320
5, 76800, Pitch_bend_c, 12, 8192
5, 76800, Note_off_c, 12, 47, 95
5, 76800, Note_on_c, 11, 47, 95
5, 77760, Note_off_c, 11, 47, 95
5, 77760, Note_on_c, 11, 57, 95
5, 79200, Note_off_c, 11, 57, 95
5, 79200, Note_on_c, 11, 57, 95
5, 80160, Note_off_c, 11, 57, 95
5, 80160, Note_on_c, 11, 59, 95
5, 81120, Note_off_c, 11, 59, 95
5, 81120, Note_on_c, 11, 57, 95
5, 81600, Note_off_c, 11, 57, 95
5, 81600, Note_on_c, 11, 47, 95
5, 82560, Note_off_c, 11, 47, 95
5, 82560, Note_on_c, 11, 64, 95
5, 83040, Note_off_c, 11, 64, 95
5, 83040, Note_on_c, 11, 66, 95
5, 84000, Note_off_c, 11, 66, 95
5, 84000, Note_on_c, 11, 59, 95
5, 85440, Note_off_c, 11, 59, 95
5, 85440, Note_on_c, 11, 47, 95
5, 86880, Note_off_c, 11, 47, 95
5, 86880, Note_on_c, 11, 57, 95
5, 87840, Note_off_c, 11, 57, 95
5, 87840, Note_on_c, 11, 59, 95
5, 88800, Note_off_c, 11, 59, 95
5, 88800, Note_on_c, 11, 57, 95
5, 89280, Note_off_c, 11, 57, 95
5, 89280, Note_on_c, 11, 47, 95
5, 90240, Note_off_c, 11, 47, 95
5, 90240, Note_on_c, 11, 66, 95
5, 90720, Note_off_c, 11, 66, 95
5, 90720, Note_on_c, 11, 64, 95
5, 91200, Note_off_c, 11, 64, 95
5, 91200, Note_on_c, 11, 59, 95
5, 92160, Note_off_c, 11, 59, 95
5, 92160, Note_on_c, 11, 64, 95
5, 92640, Note_off_c, 11, 64, 95
5, 92640, Note_on_c, 11, 66, 95
5, 93120, Note_off_c, 11, 66, 95
5, 93120, Note_on_c, 11, 47, 95
5, 93600, Note_off_c, 11, 47, 95
5, 93600, Note_on_c, 11, 59, 95
5, 94560, Note_off_c, 11, 59, 95
5, 94560, Note_on_c, 11, 57, 95
5, 95040, Note_off_c, 11, 57, 95
5, 95040, Note_on_c, 11, 47, 95
5, 95520, Note_off_c, 11, 47, 95
5, 95520, Note_on_c, 11, 59, 95
5, 96480, Note_off_c, 11, 59, 95
5, 96480, Note_on_c, 11, 57, 95
5, 96960, Note_off_c, 11, 57, 95
5, 96960, Note_on_c, 11, 47, 95
5, 97920, Note_off_c, 11, 47, 95
5, 97920, Note_on_c, 11, 66, 95
5, 98400, Note_off_c, 11, 66, 95
5, 98400, Note_on_c, 11, 64, 95
5, 99360, Note_off_c, 11, 64, 95
5, 99360, Note_on_c, 11, 66, 95
5, 100800, Note_off_c, 11, 66, 95
5, 100800, Note_on_c, 11, 47, 95
5, 102240, Note_off_c, 11, 47, 95
5, 102240, Note_on_c, 11, 57, 95
5, 103200, Note_off_c, 11, 57, 95
5, 103200, Note_on_c, 11, 59, 95
5, 104160, Note_off_c, 11, 59, 95
5, 104160, Note_on_c, 11, 57, 95
5, 105600, Note_off_c, 11, 57, 95
5, 105600, Note_on_c, 11, 64, 95
5, 106080, Note_off_c, 11, 64, 95
5, 106080, Note_on_c, 11, 66, 95
5, 107040, Note_off_c, 11, 66, 95
5, 107040, Note_on_c, 11, 59, 95
5, 107520, Note_off_c, 11, 59, 95
5, 168960, Note_on_c, 11, 45, 95
5, 169920, Note_off_c, 11, 45, 95
5, 169920, Note_on_c, 11, 61, 95
5, 169920, Note_on_c, 11, 45, 95
5, 171360, Note_off_c, 11, 61, 95
5, 171360, Note_off_c, 11, 45, 95
5, 171360, Note_on_c, 11, 61, 95
5, 171360, Note_on_c, 11, 45, 95
5, 172320, Note_off_c, 11, 61, 95
5, 172320, Note_off_c, 11, 45, 95
5, 172320, Note_on_c, 11, 61, 95
5, 172320, Note_on_c, 11, 45, 95
5, 173760, Note_off_c, 11, 61, 95
5, 173760, Note_off_c, 11, 45, 95
5, 173760, Note_on_c, 11, 61, 95
5, 173760, Note_on_c, 11, 45, 95
5, 175200, Note_off_c, 11, 61, 95
5, 175200, Note_off_c, 11, 45, 95
5, 175200, Note_on_c, 11, 61, 95
5, 175200, Note_on_c, 11, 45, 95
5, 176160, Note_off_c, 11, 61, 95
5, 176160, Note_off_c, 11, 45, 95
5, 176160, Note_on_c, 11, 45, 95
5, 176640, Note_off_c, 11, 45, 95
5, 176640, Note_on_c, 11, 42, 95
5, 177600, Note_off_c, 11, 42, 95
5, 177600, Note_on_c, 11, 61, 95
5, 177600, Note_on_c, 11, 42, 95
5, 179040, Note_off_c, 11, 61, 95
5, 179040, Note_off_c, 11, 42, 95
5, 179040, Note_on_c, 11, 61, 95
5, 179040, Note_on_c, 11, 42, 95
5, 179520, Note_off_c, 11, 61, 95
5, 179520, Note_off_c, 11, 42, 95
5, 180000, Note_on_c, 11, 62, 95
5, 180000, Note_on_c, 11, 42, 95
5, 181440, Note_off_c, 11, 62, 95
5, 181440, Note_off_c, 11, 42, 95
5, 181440, Note_on_c, 11, 62, 95
5, 181440, Note_on_c, 11, 42, 95
5, 182880, Note_off_c, 11, 62, 95
5, 182880, Note_off_c, 11, 42, 95
5, 182880, Note_on_c, 11, 62, 95
5, 182880, Note_on_c, 11, 42, 95
5, 183840, Note_off_c, 11, 62, 95
5, 183840, Note_off_c, 11, 42, 95
5, 183840, Note_on_c, 11, 50, 95
5, 184320, Note_off_c, 11, 50, 95
5, 184320, Note_on_c, 11, 43, 95
5, 185280, Note_off_c, 11, 43, 95
5, 185280, Note_on_c, 11, 59, 95
5, 185280, Note_on_c, 11, 43, 95
5, 186720, Note_off_c, 11, 59, 95
5, 186720, Note_off_c, 11, 43, 95
5, 186720, Note_on_c, 11, 59, 95
5, 186720, Note_on_c, 11, 43, 95
5, 187680, Note_off_c, 11, 59, 95
5, 187680, Note_off_c, 11, 43, 95
5, 187680, Note_on_c, 11, 57, 95
5, 187680, Note_on_c, 11, 42, 95
5, 188640, Note_off_c, 11, 57, 95
5, 188640, Note_off_c, 11, 42, 95
5, 188640, Note_on_c, 11, 57, 95
5, 188640, Note_on_c, 11, 42, 95
5, 189600, Note_off_c, 11, 57, 95
5, 189600, Note_off_c, 11, 42, 95
5, 189600, Note_on_c, 11, 55, 95
5, 189600, Note_on_c, 11, 40, 95
5, 190560, Note_off_c, 11, 55, 95
5, 190560, Note_off_c, 11, 40, 95
5, 190560, Note_on_c, 11, 40, 95
5, 191040, Note_off_c, 11, 40, 95
5, 191040, Note_on_c, 11, 55, 95
5, 191040, Note_on_c, 11, 40, 95
5, 191520, Note_off_c, 11, 55, 95
5, 191520, Note_off_c, 11, 40, 95
5, 191520, Note_on_c, 11, 40, 95
5, 192000, Note_off_c, 11, 40, 95
5, 192000, Note_on_c, 11, 43, 95
5, 192960, Note_off_c, 11, 43, 95
5, 192960, Note_on_c, 11, 59, 95
5, 192960, Note_on_c, 11, 43, 95
5, 194400, Note_off_c, 11, 59, 95
5, 194400, Note_off_c, 11, 43, 95
5, 194400, Note_on_c, 11, 59, 95
5, 194400, Note_on_c, 11, 43, 95
5, 195360, Note_off_c, 11, 59, 95
5, 195360, Note_off_c, 11, 43, 95
5, 195360, Note_on_c, 11, 57, 95
5, 195360, Note_on_c, 11, 42, 95
5, 196320, Note_off_c, 11, 57, 95
5, 196320, Note_off_c, 11, 42, 95
5, 196320, Note_on_c, 11, 57, 95
5, 196320, Note_on_c, 11, 42, 95
5, 197280, Note_off_c, 11, 57, 95
5, 197280, Note_off_c, 11, 42, 95
5, 197280, Note_on_c, 11, 55, 95
5, 197280, Note_on_c, 11, 40, 95
5, 198240, Note_off_c, 11, 55, 95
5, 198240, Note_off_c, 11, 40, 95
5, 198240, Note_on_c, 11, 40, 95
5, 198720, Note_off_c, 11, 40, 95
5, 198720, Note_on_c, 11, 55, 95
5, 198720, Note_on_c, 11, 40, 95
5, 199200, Note_off_c, 11, 55, 95
5, 199200, Note_off_c, 11, 40, 95
5, 199200, Note_on_c, 11, 40, 95
5, 199680, Note_off_c, 11, 40, 95
5, 199680, Note_on_c, 11, 45, 95
5, 200640, Note_off_c, 11, 45, 95
5, 200640, Note_on_c, 11, 61, 95
5, 200640, Note_on_c, 11, 45, 95
5, 202080, Note_off_c, 11, 61, 95
5, 202080, Note_off_c, 11, 45, 95
5, 202080, Note_on_c, 11, 61, 95
5, 202080, Note_on_c, 11, 45, 95
5, 203040, Note_off_c, 11, 61, 95
5, 203040, Note_off_c, 11, 45, 95
5, 203040, Note_on_c, 11, 61, 95
5, 203040, Note_on_c, 11, 45, 95
5, 204480, Note_off_c, 11, 61, 95
5, 204480, Note_off_c, 11, 45, 95
5, 204480, Note_on_c, 11, 61, 95
5, 204480, Note_on_c, 11, 45, 95
5, 205920, Note_off_c, 11, 61, 95
5, 205920, Note_off_c, 11, 45, 95
5, 205920, Note_on_c, 11, 61, 95
5, 205920, Note_on_c, 11, 45, 95
5, 206880, Note_off_c, 11, 61, 95
5, 206880, Note_off_c, 11, 45, 95
5, 206880, Note_on_c, 11, 45, 95
5, 207360, Note_off_c, 11, 45, 95
5, 207360, Note_on_c, 11, 42, 95
5, 208320, Note_off_c, 11, 42, 95
5, 208320, Note_on_c, 11, 61, 95
5, 208320, Note_on_c, 11, 42, 95
5, 209760, Note_off_c, 11, 61, 95
5, 209760, Note_off_c, 11, 42, 95
5, 209760, Note_on_c, 11, 61, 95
5, 209760, Note_on_c, 11, 42, 95
5, 210240, Note_off_c, 11, 61, 95
5, 210240, Note_off_c, 11, 42, 95
5, 210720, Note_on_c, 11, 62, 95
5, 210720, Note_on_c, 11, 42, 95
5, 212160, Note_off_c, 11, 62, 95
5, 212160, Note_off_c, 11, 42, 95
5, 212160, Note_on_c, 11, 62, 95
5, 212160, Note_on_c, 11, 42, 95
5, 213600, Note_off_c, 11, 62, 95
5, 213600, Note_off_c, 11, 42, 95
5, 213600, Note_on_c, 11, 62, 95
5, 213600, Note_on_c, 11, 42, 95
5, 214560, Note_off_c, 11, 62, 95
5, 214560, Note_off_c, 11, 42, 95
5, 214560, Note_on_c, 11, 50, 95
5, 215040, Note_off_c, 11, 50, 95
5, 215040, Note_on_c, 11, 43, 95
5, 216000, Note_off_c, 11, 43, 95
5, 216000, Note_on_c, 11, 59, 95
5, 216000, Note_on_c, 11, 43, 95
5, 217440, Note_off_c, 11, 59, 95
5, 217440, Note_off_c, 11, 43, 95
5, 217440, Note_on_c, 11, 59, 95
5, 217440, Note_on_c, 11, 43, 95
5, 218400, Note_off_c, 11, 59, 95
5, 218400, Note_off_c, 11, 43, 95
5, 218400, Note_on_c, 11, 57, 95
5, 218400, Note_on_c, 11, 42, 95
5, 219360, Note_off_c, 11, 57, 95
5, 219360, Note_off_c, 11, 42, 95
5, 219360, Note_on_c, 11, 57, 95
5, 219360, Note_on_c, 11, 42, 95
5, 220320, Note_off_c, 11, 57, 95
5, 220320, Note_off_c, 11, 42, 95
5, 220320, Note_on_c, 11, 55, 95
5, 220320, Note_on_c, 11, 40, 95
5, 221280, Note_off_c, 11, 55, 95
5, 221280, Note_off_c, 11, 40, 95
5, 221280, Note_on_c, 11, 40, 95
5, 221760, Note_off_c, 11, 40, 95
5, 221760, Note_on_c, 11, 55, 95
5, 221760, Note_on_c, 11, 40, 95
5, 222240, Note_off_c, 11, 55, 95
5, 222240, Note_off_c, 11, 40, 95
5, 222240, Note_on_c, 11, 40, 95
5, 222720, Note_off_c, 11, 40, 95
5, 222720, Note_on_c, 11, 43, 95
5, 223680, Note_off_c, 11, 43, 95
5, 223680, Note_on_c, 11, 59, 95
5, 223680, Note_on_c, 11, 43, 95
5, 225120, Note_off_c, 11, 59, 95
5, 225120, Note_off_c, 11, 43, 95
5, 225120, Note_on_c, 11, 59, 95
5, 225120, Note_on_c, 11, 43, 95
5, 226080, Note_off_c, 11, 59, 95
5, 226080, Note_off_c, 11, 43, 95
5, 226080, Note_on_c, 11, 57, 95
5, 226080, Note_on_c, 11, 42, 95
5, 227040, Note_off_c, 11, 57, 95
5, 227040, Note_off_c, 11, 42, 95
5, 227040, Note_on_c, 11, 57, 95
5, 227040, Note_on_c, 11, 42, 95
5, 228000, Note_off_c, 11, 57, 95
5, 228000, Note_off_c, 11, 42, 95
5, 228000, Note_on_c, 11, 55, 95
5, 228000, Note_on_c, 11, 40, 95
5, 228960, Note_off_c, 11, 55, 95
5, 228960, Note_off_c, 11, 40, 95
5, 228960, Note_on_c, 11, 40, 95
5, 229440, Note_off_c, 11, 40, 95
5, 229440, Note_on_c, 11, 55, 95
5, 229440, Note_on_c, 11, 40, 95
5, 229920, Note_off_c, 11, 55, 95
5, 229920, Note_off_c, 11, 40, 95
5, 229920, Note_on_c, 11, 40, 95
5, 230400, Note_off_c, 11, 40, 95
5, 230400, Note_on_c, 11, 47, 95
5, 231360, Note_off_c, 11, 47, 95
5, 231360, Note_on_c, 11, 50, 95
5, 232800, Note_off_c, 11, 50, 95
5, 232800, Note_on_c, 11, 50, 95
5, 233760, Note_off_c, 11, 50, 95
5, 233760, Note_on_c, 11, 50, 95
5, 234240, Note_on_c, 11, 47, 95
5, 235200, Note_off_c, 11, 50, 95
5, 235200, Note_off_c, 11, 47, 95
5, 235200, Note_on_c, 11, 50, 95
5, 236640, Note_off_c, 11, 50, 95
5, 236640, Note_on_c, 11, 50, 95
5, 237120, Note_off_c, 11, 50, 95
5, 237120, Note_on_c, 11, 50, 95
5, 237600, Note_off_c, 11, 50, 95
5, 237600, Note_on_c, 11, 50, 95
5, 239040, Note_off_c, 11, 50, 95
5, 239040, Note_on_c, 11, 50, 95
5, 240480, Note_off_c, 11, 50, 95
5, 240480, Note_on_c, 11, 50, 95
5, 241440, Note_on_c, 11, 57, 95
5, 242400, Note_off_c, 11, 50, 95
5, 242400, Note_off_c, 11, 57, 95
5, 242400, Note_on_c, 11, 59, 95
5, 243840, Note_off_c, 11, 59, 95
5, 243840, Note_on_c, 11, 64, 95
5, 244320, Note_off_c, 11, 64, 95
5, 244320, Note_on_c, 11, 66, 95
5, 245760, Note_off_c, 11, 66, 95
5, 307200, Note_on_c, 11, 45, 95
5, 308160, Note_off_c, 11, 45, 95
5, 308160, Note_on_c, 11, 61, 95
5, 308160, Note_on_c, 11, 45, 95
5, 309600, Note_off_c, 11, 61, 95
5, 309600, Note_off_c, 11, 45, 95
5, 309600, Note_on_c, 11, 61, 95
5, 309600, Note_on_c, 11, 45, 95
5, 310560, Note_off_c, 11, 61, 95
5, 310560, Note_off_c, 11, 45, 95
5, 310560, Note_on_c, 11, 61, 95
5, 310560, Note_on_c, 11, 45, 95
5, 312000, Note_off_c, 11, 61, 95
5, 312000, Note_off_c, 11, 45, 95
5, 312000, Note_on_c, 11, 61, 95
5, 312000, Note_on_c, 11, 45, 95
5, 313440, Note_off_c, 11, 61, 95
5, 313440, Note_off_c, 11, 45, 95
5, 313440, Note_on_c, 11, 61, 95
5, 313440, Note_on_c, 11, 45, 95
5, 314400, Note_off_c, 11, 61, 95
5, 314400, Note_off_c, 11, 45, 95
5, 314400, Note_on_c, 11, 45, 95
5, 314880, Note_off_c, 11, 45, 95
5, 314880, Note_on_c, 11, 42, 95
5, 315840, Note_off_c, 11, 42, 95
5, 315840, Note_on_c, 11, 61, 95
5, 315840, Note_on_c, 11, 42, 95
5, 317280, Note_off_c, 11, 61, 95
5, 317280, Note_off_c, 11, 42, 95
5, 317280, Note_on_c, 11, 61, 95
5, 317280, Note_on_c, 11, 42, 95
5, 317760, Note_off_c, 11, 61, 95
5, 317760, Note_off_c, 11, 42, 95
5, 318240, Note_on_c, 11, 62, 95
5, 318240, Note_on_c, 11, 42, 95
5, 319680, Note_off_c, 11, 62, 95
5, 319680, Note_off_c, 11, 42, 95
5, 319680, Note_on_c, 11, 62, 95
5, 319680, Note_on_c, 11, 42, 95
5, 321120, Note_off_c, 11, 62, 95
5, 321120, Note_off_c, 11, 42, 95
5, 321120, Note_on_c, 11, 62, 95
5, 321120, Note_on_c, 11, 42, 95
5, 322080, Note_off_c, 11, 62, 95
5, 322080, Note_off_c, 11, 42, 95
5, 322080, Note_on_c, 11, 50, 95
5, 322560, Note_off_c, 11, 50, 95
5, 322560, Note_on_c, 11, 43, 95
5, 323520, Note_off_c, 11, 43, 95
5, 323520, Note_on_c, 11, 59, 95
5, 323520, Note_on_c, 11, 43, 95
5, 324960, Note_off_c, 11, 59, 95
5, 324960, Note_off_c, 11, 43, 95
5, 324960, Note_on_c, 11, 59, 95
5, 324960, Note_on_c, 11, 43, 95
5, 325920, Note_off_c, 11, 59, 95
5, 325920, Note_off_c, 11, 43, 95
5, 325920, Note_on_c, 11, 57, 95
5, 325920, Note_on_c, 11, 42, 95
5, 326880, Note_off_c, 11, 57, 95
5, 326880, Note_off_c, 11, 42, 95
5, 326880, Note_on_c, 11, 57, 95
5, 326880, Note_on_c, 11, 42, 95
5, 327840, Note_off_c, 11, 57, 95
5, 327840, Note_off_c, 11, 42, 95
5, 327840, Note_on_c, 11, 55, 95
5, 327840, Note_on_c, 11, 40, 95
5, 328800, Note_off_c, 11, 55, 95
5, 328800, Note_off_c, 11, 40, 95
5, 328800, Note_on_c, 11, 40, 95
5, 329280, Note_off_c, 11, 40, 95
5, 329280, Note_on_c, 11, 55, 95
5, 329280, Note_on_c, 11, 40, 95
5, 329760, Note_off_c, 11, 55, 95
5, 329760, Note_off_c, 11, 40, 95
5, 329760, Note_on_c, 11, 40, 95
5, 330240, Note_off_c, 11, 40, 95
5, 330240, Note_on_c, 11, 43, 95
5, 331200, Note_off_c, 11, 43, 95
5, 331200, Note_on_c, 11, 59, 95
5, 331200, Note_on_c, 11, 43, 95
5, 332640, Note_off_c, 11, 59, 95
5, 332640, Note_off_c, 11, 43, 95
5, 332640, Note_on_c, 11, 59, 95
5, 332640, Note_on_c, 11, 43, 95
5, 333600, Note_off_c, 11, 59, 95
5, 333600, Note_off_c, 11, 43, 95
5, 333600, Note_on_c, 11, 57, 95
5, 333600, Note_on_c, 11, 42, 95
5, 334560, Note_off_c, 11, 57, 95
5, 334560, Note_off_c, 11, 42, 95
5, 334560, Note_on_c, 11, 57, 95
5, 334560, Note_on_c, 11, 42, 95
5, 335520, Note_off_c, 11, 57, 95
5, 335520, Note_off_c, 11, 42, 95
5, 335520, Note_on_c, 11, 55, 95
5, 335520, Note_on_c, 11, 40, 95
5, 336480, Note_off_c, 11, 55, 95
5, 336480, Note_off_c, 11, 40, 95
5, 336480, Note_on_c, 11, 40, 95
5, 336960, Note_off_c, 11, 40, 95
5, 336960, Note_on_c, 11, 55, 95
5, 336960, Note_on_c, 11, 40, 95
5, 337440, Note_off_c, 11, 55, 95
5, 337440, Note_off_c, 11, 40, 95
5, 337440, Note_on_c, 11, 40, 95
5, 337920, Note_off_c, 11, 40, 95
5, 337920, Note_on_c, 11, 45, 95
5, 338880, Note_off_c, 11, 45, 95
5, 338880, Note_on_c, 11, 61, 95
5, 338880, Note_on_c, 11, 45, 95
5, 340320, Note_off_c, 11, 61, 95
5, 340320, Note_off_c, 11, 45, 95
5, 340320, Note_on_c, 11, 61, 95
5, 340320, Note_on_c, 11, 45, 95
5, 341280, Note_off_c, 11, 61, 95
5, 341280, Note_off_c, 11, 45, 95
5, 341280, Note_on_c, 11, 61, 95
5, 341280, Note_on_c, 11, 45, 95
5, 342720, Note_off_c, 11, 61, 95
5, 342720, Note_off_c, 11, 45, 95
5, 342720, Note_on_c, 11, 61, 95
5, 342720, Note_on_c, 11, 45, 95
5, 344160, Note_off_c, 11, 61, 95
5, 344160, Note_off_c, 11, 45, 95
5, 344160, Note_on_c, 11, 61, 95
5, 344160, Note_on_c, 11, 45, 95
5, 345120, Note_off_c, 11, 61, 95
5, 345120, Note_off_c, 11, 45, 95
5, 345120, Note_on_c, 11, 45, 95
5, 345600, Note_off_c, 11, 45, 95
5, 345600, Note_on_c, 11, 42, 95
5, 346560, Note_off_c, 11, 42, 95
5, 346560, Note_on_c, 11, 61, 95
5, 346560, Note_on_c, 11, 42, 95
5, 348000, Note_off_c, 11, 61, 95
5, 348000, Note_off_c, 11, 42, 95
5, 348000, Note_on_c, 11, 61, 95
5, 348000, Note_on_c, 11, 42, 95
5, 348480, Note_off_c, 11, 61, 95
5, 348480, Note_off_c, 11, 42, 95
5, 348960, Note_on_c, 11, 62, 95
5, 348960, Note_on_c, 11, 42, 95
5, 350400, Note_off_c, 11, 62, 95
5, 350400, Note_off_c, 11, 42, 95
5, 350400, Note_on_c, 11, 62, 95
5, 350400, Note_on_c, 11, 42, 95
5, 351840, Note_off_c, 11, 62, 95
5, 351840, Note_off_c, 11, 42, 95
5, 351840, Note_on_c, 11, 62, 95
5, 351840, Note_on_c, 11, 42, 95
5, 352800, Note_off_c, 11, 62, 95
5, 352800, Note_off_c, 11, 42, 95
5, 352800, Note_on_c, 11, 50, 95
5, 353280, Note_off_c, 11, 50, 95
5, 353280, Note_on_c, 11, 43, 95
5, 354240, Note_off_c, 11, 43, 95
5, 354240, Note_on_c, 11, 59, 95
5, 354240, Note_on_c, 11, 43, 95
5, 355680, Note_off_c, 11, 59, 95
5, 355680, Note_off_c, 11, 43, 95
5, 355680, Note_on_c, 11, 59, 95
5, 355680, Note_on_c, 11, 43, 95
5, 356640, Note_off_c, 11, 59, 95
5, 356640, Note_off_c, 11, 43, 95
5, 356640, Note_on_c, 11, 57, 95
5, 356640, Note_on_c, 11, 42, 95
5, 357600, Note_off_c, 11, 57, 95
5, 357600, Note_off_c, 11, 42, 95
5, 357600, Note_on_c, 11, 57, 95
5, 357600, Note_on_c, 11, 42, 95
5, 358560, Note_off_c, 11, 57, 95
5, 358560, Note_off_c, 11, 42, 95
5, 358560, Note_on_c, 11, 55, 95
5, 358560, Note_on_c, 11, 40, 95
5, 359520, Note_off_c, 11, 55, 95
5, 359520, Note_off_c, 11, 40, 95
5, 359520, Note_on_c, 11, 40, 95
5, 360000, Note_off_c, 11, 40, 95
5, 360000, Note_on_c, 11, 55, 95
5, 360000, Note_on_c, 11, 40, 95
5, 360480, Note_off_c, 11, 55, 95
5, 360480, Note_off_c, 11, 40, 95
5, 360480, Note_on_c, 11, 40, 95
5, 360960, Note_off_c, 11, 40, 95
5, 360960, Note_on_c, 11, 43, 95
5, 361920, Note_off_c, 11, 43, 95
5, 361920, Note_on_c, 11, 59, 95
5, 361920, Note_on_c, 11, 43, 95
5, 363360, Note_off_c, 11, 59, 95
5, 363360, Note_off_c, 11, 43, 95
5, 363360, Note_on_c, 11, 59, 95
5, 363360, Note_on_c, 11, 43, 95
5, 364320, Note_off_c, 11, 59, 95
5, 364320, Note_off_c, 11, 43, 95
5, 364320, Note_on_c, 11, 57, 95
5, 364320, Note_on_c, 11, 42, 95
5, 365280, Note_off_c, 11, 57, 95
5, 365280, Note_off_c, 11, 42, 95
5, 365280, Note_on_c, 11, 57, 95
5, 365280, Note_on_c, 11, 42, 95
5, 366240, Note_off_c, 11, 57, 95
5, 366240, Note_off_c, 11, 42, 95
5, 366240, Note_on_c, 11, 55, 95
5, 366240, Note_on_c, 11, 40, 95
5, 367200, Note_off_c, 11, 55, 95
5, 367200, Note_off_c, 11, 40, 95
5, 367200, Note_on_c, 11, 40, 95
5, 367680, Note_off_c, 11, 40, 95
5, 367680, Note_on_c, 11, 55, 95
5, 367680, Note_on_c, 11, 40, 95
5, 368160, Note_off_c, 11, 55, 95
5, 368160, Note_off_c, 11, 40, 95
5, 368160, Note_on_c, 11, 40, 95
5, 368640, Note_off_c, 11, 40, 95
5, 384000, Note_on_c, 11, 50, 95
5, 384960, Note_off_c, 11, 50, 95
5, 384960, Note_on_c, 11, 60, 95
5, 384960, Note_on_c, 11, 57, 95
5, 385440, Note_off_c, 11, 60, 95
5, 385440, Note_off_c, 11, 57, 95
5, 385440, Note_on_c, 11, 50, 95
5, 385920, Note_off_c, 11, 50, 95
5, 385920, Note_on_c, 11, 50, 95
5, 386400, Note_off_c, 11, 50, 95
5, 386400, Note_on_c, 11, 60, 95
5, 386400, Note_on_c, 11, 57, 95
5, 387360, Note_off_c, 11, 60, 95
5, 387360, Note_off_c, 11, 57, 95
5, 387360, Note_on_c, 11, 50, 95
5, 388800, Note_off_c, 11, 50, 95
5, 388800, Note_on_c, 11, 60, 95
5, 388800, Note_on_c, 11, 57, 95
5, 389280, Note_off_c, 11, 60, 95
5, 389280, Note_off_c, 11, 57, 95
5, 389280, Note_on_c, 11, 50, 95
5, 389760, Note_off_c, 11, 50, 95
5, 389760, Note_on_c, 11, 60, 95
5, 389760, Note_on_c, 11, 57, 95
5, 389760, Note_on_c, 11, 50, 95
5, 390240, Note_off_c, 11, 60, 95
5, 390240, Note_off_c, 11, 57, 95
5, 390240, Note_off_c, 11, 50, 95
5, 390240, Note_on_c, 11, 62, 79
5, 390240, Note_on_c, 11, 59, 95
5, 390720, Note_off_c, 11, 62, 79
5, 390720, Note_off_c, 11, 59, 95
5, 390720, Note_on_c, 11, 60, 95
5, 390720, Note_on_c, 11, 57, 95
5, 390720, Note_on_c, 11, 50, 95
5, 391200, Note_off_c, 11, 60, 95
5, 391200, Note_off_c, 11, 57, 95
5, 391200, Note_off_c, 11, 50, 95
5, 391200, Note_on_c, 11, 45, 95
5, 391680, Note_off_c, 11, 45, 95
5, 391680, Note_on_c, 11, 45, 95
5, 392640, Note_off_c, 11, 45, 95
5, 392640, Note_on_c, 11, 55, 95
5, 392640, Note_on_c, 11, 52, 95
5, 393120, Note_off_c, 11, 55, 95
5, 393120, Note_off_c, 11, 52, 95
5, 393120, Note_on_c, 11, 45, 95
5, 394080, Note_off_c, 11, 45, 95
5, 394080, Note_on_c, 11, 55, 95
5, 394080, Note_on_c, 11, 52, 95
5, 395040, Note_off_c, 11, 55, 95
5, 395040, Note_off_c, 11, 52, 95
5, 395040, Note_on_c, 11, 45, 95
5, 396000, Note_off_c, 11, 45, 95
5, 396000, Note_on_c, 11, 55, 95
5, 396000, Note_on_c, 11, 52, 95
5, 396480, Note_off_c, 11, 55, 95
5, 396480, Note_off_c, 11, 52, 95
5, 396480, Note_on_c, 11, 57, 95
5, 396480, Note_on_c, 11, 54, 95
5, 396960, Note_off_c, 11, 57, 95
5, 396960, Note_off_c, 11, 54, 95
5, 396960, Note_on_c, 11, 57, 95
5, 396960, Note_on_c, 11, 54, 95
5, 397440, Note_off_c, 11, 57, 95
5, 397440, Note_off_c, 11, 54, 95
5, 397440, Note_on_c, 11, 57, 95
5, 397440, Note_on_c, 11, 54, 95
5, 397920, Note_off_c, 11, 57, 95
5, 397920, Note_off_c, 11, 54, 95
5, 397920, Note_on_c, 11, 55, 95
5, 397920, Note_on_c, 11, 52, 95
5, 398400, Note_off_c, 11, 55, 95
5, 398400, Note_off_c, 11, 52, 95
5, 398400, Note_on_c, 12, 45, 95
5, 398520, Pitch_bend_c, 12, 7808
5, 398640, Pitch_bend_c, 12, 7424
5, 398760, Pitch_bend_c, 12, 6912
5, 398880, Pitch_bend_c, 12, 6528
5, 399000, Pitch_bend_c, 12, 6016
5, 399120, Pitch_bend_c, 12, 5632
5, 399240, Pitch_bend_c, 12, 5120
5, 399360, Pitch_bend_c, 12, 4736
5, 399360, Pitch_bend_c, 12, 8192
5, 399360, Note_off_c, 12, 45, 95
5, 399360, Note_on_c, 11, 40, 95
5, 400320, Note_off_c, 11, 40, 95
5, 400320, Note_on_c, 11, 59, 95
5, 400320, Note_on_c, 11, 55, 95
5, 400320, Note_on_c, 11, 52, 95
5, 400320, Note_on_c, 11, 47, 95
5, 400320, Note_on_c, 11, 40, 95
5, 401280, Note_off_c, 11, 59, 95
5, 401280, Note_off_c, 11, 55, 95
5, 401280, Note_off_c, 11, 52, 95
5, 401280, Note_off_c, 11, 47, 95
5, 401280, Note_off_c, 11, 40, 95
5, 401280, Note_on_c, 11, 40, 95
5, 402240, Note_off_c, 11, 40, 95
5, 402240, Note_on_c, 11, 59, 95
5, 402240, Note_on_c, 11, 55, 95
5, 402240, Note_on_c, 11, 52, 95
5, 402240, Note_on_c, 11, 47, 95
5, 402240, Note_on_c, 11, 40, 95
5, 403200, Note_off_c, 11, 59, 95
5, 403200, Note_off_c, 11, 55, 95
5, 403200, Note_off_c, 11, 52, 95
5, 403200, Note_off_c, 11, 47, 95
5, 403200, Note_off_c, 11, 40, 95
5, 403200, Note_on_c, 11, 40, 95
5, 404160, Note_off_c, 11, 40, 95
5, 404160, Note_on_c, 11, 59, 95
5, 404160, Note_on_c, 11, 55, 95
5, 404160, Note_on_c, 11, 52, 95
5, 404160, Note_on_c, 11, 47, 95
5, 404160, Note_on_c, 11, 40, 95
5, 405120, Note_off_c, 11, 59, 95
5, 405120, Note_off_c, 11, 55, 95
5, 405120, Note_off_c, 11, 52, 95
5, 405120, Note_off_c, 11, 47, 95
5, 405120, Note_off_c, 11, 40, 95
5, 405120, Note_on_c, 11, 40, 95
5, 406080, Note_off_c, 11, 40, 95
5, 406080, Note_on_c, 11, 59, 95
5, 406080, Note_on_c, 11, 55, 95
5, 406080, Note_on_c, 11, 52, 95
5, 406080, Note_on_c, 11, 47, 95
5, 406080, Note_on_c, 11, 40, 95
5, 407040, Note_off_c, 11, 59, 95
5, 407040, Note_off_c, 11, 55, 95
5, 407040, Note_off_c, 11, 52, 95
5, 407040, Note_off_c, 11, 47, 95
5, 407040, Note_off_c, 11, 40, 95
5, 407040, Note_on_c, 11, 40, 95
5, 408000, Note_off_c, 11, 40, 95
5, 408000, Note_on_c, 11, 59, 95
5, 408000, Note_on_c, 11, 55, 95
5, 408000, Note_on_c, 11, 52, 95
5, 408000, Note_on_c, 11, 47, 95
5, 408000, Note_on_c, 11, 40, 95
5, 408960, Note_off_c, 11, 59, 95
5, 408960, Note_off_c, 11, 55, 95
5, 408960, Note_off_c, 11, 52, 95
5, 408960, Note_off_c, 11, 47, 95
5, 408960, Note_off_c, 11, 40, 95
5, 408960, Note_on_c, 11, 40, 95
5, 409920, Note_off_c, 11, 40, 95
5, 409920, Note_on_c, 11, 59, 95
5, 409920, Note_on_c, 11, 55, 95
5, 409920, Note_on_c, 11, 52, 95
5, 409920, Note_on_c, 11, 47, 95
5, 409920, Note_on_c, 11, 40, 95
5, 410880, Note_off_c, 11, 59, 95
5, 410880, Note_off_c, 11, 55, 95
5, 410880, Note_off_c, 11, 52, 95
5, 410880, Note_off_c, 11, 47, 95
5, 410880, Note_off_c, 11, 40, 95
5, 410880, Note_on_c, 11, 47, 95
5, 411840, Note_off_c, 11, 47, 95
5, 411840, Note_on_c, 11, 57, 95
5, 411840, Note_on_c, 11, 54, 95
5, 412320, Note_off_c, 11, 57, 95
5, 412320, Note_off_c, 11, 54, 95
5, 412320, Note_on_c, 11, 47, 95
5, 412800, Note_off_c, 11, 47, 95
5, 412800, Note_on_c, 11, 47, 95
5, 413280, Note_off_c, 11, 47, 95
5, 413280, Note_on_c, 11, 57, 95
5, 413280, Note_on_c, 11, 54, 95
5, 414240, Note_off_c, 11, 57, 95
5, 414240, Note_off_c, 11, 54, 95
5, 414240, Note_on_c, 11, 47, 95
5, 415680, Note_off_c, 11, 47, 95
5, 415680, Note_on_c, 11, 57, 95
5, 415680, Note_on_c, 11, 54, 95
5, 416160, Note_off_c, 11, 57, 95
5, 416160, Note_off_c, 11, 54, 95
5, 416160, Note_on_c, 11, 47, 95
5, 416640, Note_off_c, 11, 47, 95
5, 416640, Note_on_c, 11, 57, 95
5, 416640, Note_on_c, 11, 54, 95
5, 417120, Note_off_c, 11, 57, 95
5, 417120, Note_off_c, 11, 54, 95
5, 417120, Note_on_c, 11, 59, 95
5, 417120, Note_on_c, 11, 56, 95
5, 417600, Note_off_c, 11, 59, 95
5, 417600, Note_off_c, 11, 56, 95
5, 417600, Note_on_c, 11, 57, 95
5, 417600, Note_on_c, 11, 54, 95
5, 418080, Note_off_c, 11, 57, 95
5, 418080, Note_off_c, 11, 54, 95
5, 418080, Note_on_c, 11, 47, 95
5, 418560, Note_off_c, 11, 47, 95
5, 418560, Note_on_c, 11, 47, 95
5, 419520, Note_off_c, 11, 47, 95
5, 419520, Note_on_c, 11, 57, 95
5, 419520, Note_on_c, 11, 54, 95
5, 420000, Note_off_c, 11, 57, 95
5, 420000, Note_off_c, 11, 54, 95
5, 420000, Note_on_c, 11, 47, 95
5, 420480, Note_off_c, 11, 47, 95
5, 420480, Note_on_c, 11, 47, 95
5, 420960, Note_off_c, 11, 47, 95
5, 420960, Note_on_c, 11, 57, 95
5, 420960, Note_on_c, 11, 54, 95
5, 421920, Note_off_c, 11, 57, 95
5, 421920, Note_off_c, 11, 54, 95
5, 421920, Note_on_c, 11, 47, 95
5, 423360, Note_off_c, 11, 47, 95
5, 423360, Note_on_c, 11, 57, 95
5, 423360, Note_on_c, 11, 54, 95
5, 423840, Note_off_c, 11, 57, 95
5, 423840, Note_off_c, 11, 54, 95
5, 423840, Note_on_c, 11, 47, 95
5, 424320, Note_off_c, 11, 47, 95
5, 424320, Note_on_c, 11, 47, 95
5, 424800, Note_off_c, 11, 47, 95
5, 424800, Note_on_c, 11, 57, 95
5, 424800, Note_on_c, 11, 54, 95
5, 425760, Note_off_c, 11, 57, 95
5, 425760, Note_off_c, 11, 54, 95
5, 425760, Note_on_c, 12, 47, 95
5, 425880, Pitch_bend_c, 12, 8704
5, 426000, Pitch_bend_c, 12, 9216
5, 426120, Pitch_bend_c, 12, 9728
5, 426240, Pitch_bend_c, 12, 10240
5, 426240, Pitch_bend_c, 12, 8192
5, 426240, Note_off_c, 12, 47, 95
5, 426240, Note_on_c, 11, 50, 95
5, 427200, Note_off_c, 11, 50, 95
5, 427200, Note_on_c, 11, 60, 95
5, 427200, Note_on_c, 11, 57, 95
5, 427680, Note_off_c, 11, 60, 95
5, 427680, Note_off_c, 11, 57, 95
5, 427680, Note_on_c, 11, 50, 95
5, 428160, Note_off_c, 11, 50, 95
5, 428160, Note_on_c, 11, 50, 95
5, 428640, Note_off_c, 11, 50, 95
5, 428640, Note_on_c, 11, 60, 95
5, 428640, Note_on_c, 11, 57, 95
5, 429600, Note_off_c, 11, 60, 95
5, 429600, Note_off_c, 11, 57, 95
5, 429600, Note_on_c, 11, 50, 95
5, 431040, Note_off_c, 11, 50, 95
5, 431040, Note_on_c, 11, 60, 95
5, 431040, Note_on_c, 11, 57, 95
5, 431520, Note_off_c, 11, 60, 95
5, 431520, Note_off_c, 11, 57, 95
5, 431520, Note_on_c, 11, 50, 95
5, 432000, Note_off_c, 11, 50, 95
5, 432000, Note_on_c, 11, 60, 95
5, 432000, Note_on_c, 11, 57, 95
5, 432000, Note_on_c, 11, 50, 95
5, 432480, Note_off_c, 11, 60, 95
5, 432480, Note_off_c, 11, 57, 95
5, 432480, Note_off_c, 11, 50, 95
5, 432480, Note_on_c, 11, 62, 79
5, 432480, Note_on_c, 11, 59, 95
5, 432960, Note_off_c, 11, 62, 79
5, 432960, Note_off_c, 11, 59, 95
5, 432960, Note_on_c, 11, 60, 95
5, 432960, Note_on_c, 11, 57, 95
5, 432960, Note_on_c, 11, 50, 95
5, 433440, Note_off_c, 11, 60, 95
5, 433440, Note_off_c, 11, 57, 95
5, 433440, Note_off_c, 11, 50, 95
5, 433440, Note_on_c, 11, 45, 95
5, 433920, Note_off_c, 11, 45, 95
5, 433920, Note_on_c, 11, 45, 95
5, 434880, Note_off_c, 11, 45, 95
5, 434880, Note_on_c, 11, 55, 95
5, 434880, Note_on_c, 11, 52, 95
5, 435360, Note_off_c, 11, 55, 95
5, 435360, Note_off_c, 11, 52, 95
5, 435360, Note_on_c, 11, 45, 95
5, 436320, Note_off_c, 11, 45, 95
5, 436320, Note_on_c, 11, 55, 95
5, 436320, Note_on_c, 11, 52, 95
5, 437280, Note_off_c, 11, 55, 95
5, 437280, Note_off_c, 11, 52, 95
5, 437280, Note_on_c, 11, 45, 95
5, 438240, Note_off_c, 11, 45, 95
5, 438240, Note_on_c, 11, 55, 95
5, 438240, Note_on_c, 11, 52, 95
5, 438720, Note_off_c, 11, 55, 95
5, 438720, Note_off_c, 11, 52, 95
5, 438720, Note_on_c, 11, 57, 95
5, 438720, Note_on_c, 11, 54, 95
5, 439200, Note_off_c, 11, 57, 95
5, 439200, Note_off_c, 11, 54, 95
5, 439200, Note_on_c, 11, 57, 95
5, 439200, Note_on_c, 11, 54, 95
5, 439680, Note_off_c, 11, 57, 95
5, 439680, Note_off_c, 11, 54, 95
5, 439680, Note_on_c, 11, 57, 95
5, 439680, Note_on_c, 11, 54, 95
5, 440160, Note_off_c, 11, 57, 95
5, 440160, Note_off_c, 11, 54, 95
5, 440160, Note_on_c, 11, 55, 95
5, 440160, Note_on_c, 11, 52, 95
5, 440640, Note_off_c, 11, 55, 95
5, 440640, Note_off_c, 11, 52, 95
5, 440640, Note_on_c, 12, 45, 95
5, 440760, Pitch_bend_c, 12, 7808
5, 440880, Pitch_bend_c, 12, 7424
5, 441000, Pitch_bend_c, 12, 6912
5, 441120, Pitch_bend_c, 12, 6528
5, 441240, Pitch_bend_c, 12, 6016
5, 441360, Pitch_bend_c, 12, 5632
5, 441480, Pitch_bend_c, 12, 5120
5, 441600, Pitch_bend_c, 12, 4736
5, 441600, Pitch_bend_c, 12, 8192
5, 441600, Note_off_c, 12, 45, 95
5, 441600, Note_on_c, 11, 40, 95
5, 442560, Note_off_c, 11, 40, 95
5, 442560, Note_on_c, 11, 59, 95
5, 442560, Note_on_c, 11, 55, 95
5, 442560, Note_on_c, 11, 52, 95
5, 442560, Note_on_c, 11, 47, 95
5, 442560, Note_on_c, 11, 40, 95
5, 443520, Note_off_c, 11, 59, 95
5, 443520, Note_off_c, 11, 55, 95
5, 443520, Note_off_c, 11, 52, 95
5, 443520, Note_off_c, 11, 47, 95
5, 443520, Note_off_c, 11, 40, 95
5, 443520, Note_on_c, 11, 40, 95
5, 444480, Note_off_c, 11, 40, 95
5, 444480, Note_on_c, 11, 59, 95
5, 444480, Note_on_c, 11, 55, 95
5, 444480, Note_on_c, 11, 52, 95
5, 444480, Note_on_c, 11, 47, 95
5, 444480, Note_on_c, 11, 40, 95
5, 445440, Note_off_c, 11, 59, 95
5, 445440, Note_off_c, 11, 55, 95
5, 445440, Note_off_c, 11, 52, 95
5, 445440, Note_off_c, 11, 47, 95
5, 445440, Note_off_c, 11, 40, 95
5, 445440, Note_on_c, 11, 40, 95
5, 446400, Note_off_c, 11, 40, 95
5, 446400, Note_on_c, 11, 59, 95
5, 446400, Note_on_c, 11, 55, 95
5, 446400, Note_on_c, 11, 52, 95
5, 446400, Note_on_c, 11, 47, 95
5, 446400, Note_on_c, 11, 40, 95
5, 447360, Note_off_c, 11, 59, 95
5, 447360, Note_off_c, 11, 55, 95
5, 447360, Note_off_c, 11, 52, 95
5, 447360, Note_off_c, 11, 47, 95
5, 447360, Note_off_c, 11, 40, 95
5, 447360, Note_on_c, 11, 40, 95
5, 448320, Note_off_c, 11, 40, 95
5, 448320, Note_on_c, 11, 59, 95
5, 448320, Note_on_c, 11, 55, 95
5, 448320, Note_on_c, 11, 52, 95
5, 448320, Note_on_c, 11, 47, 95
5, 448320, Note_on_c, 11, 40, 95
5, 449280, Note_off_c, 11, 59, 95
5, 449280, Note_off_c, 11, 55, 95
5, 449280, Note_off_c, 11, 52, 95
5, 449280, Note_off_c, 11, 47, 95
5, 449280, Note_off_c, 11, 40, 95
5, 449280, Note_on_c, 11, 40, 95
5, 450240, Note_off_c, 11, 40, 95
5, 450240, Note_on_c, 11, 59, 95
5, 450240, Note_on_c, 11, 55, 95
5, 450240, Note_on_c, 11, 52, 95
5, 450240, Note_on_c, 11, 47, 95
5, 450240, Note_on_c, 11, 40, 95
5, 451200, Note_off_c, 11, 59, 95
5, 451200, Note_off_c, 11, 55, 95
5, 451200, Note_off_c, 11, 52, 95
5, 451200, Note_off_c, 11, 47, 95
5, 451200, Note_off_c, 11, 40, 95
5, 451200, Note_on_c, 11, 40, 95
5, 452160, Note_off_c, 11, 40, 95
5, 452160, Note_on_c, 11, 59, 95
5, 452160, Note_on_c, 11, 55, 95
5, 452160, Note_on_c, 11, 52, 95
5, 452160, Note_on_c, 11, 47, 95
5, 452160, Note_on_c, 11, 40, 95
5, 453120, Note_off_c, 11, 59, 95
5, 453120, Note_off_c, 11, 55, 95
5, 453120, Note_off_c, 11, 52, 95
5, 453120, Note_off_c, 11, 47, 95
5, 453120, Note_off_c, 11, 40, 95
5, 453120, Note_on_c, 11, 47, 95
5, 454080, Note_off_c, 11, 47, 95
5, 454080, Note_on_c, 11, 57, 95
5, 454080, Note_on_c, 11, 54, 95
5, 454560, Note_off_c, 11, 57, 95
5, 454560, Note_off_c, 11, 54, 95
5, 454560, Note_on_c, 11, 47, 95
5, 455040, Note_off_c, 11, 47, 95
5, 455040, Note_on_c, 11, 47, 95
5, 455520, Note_off_c, 11, 47, 95
5, 455520, Note_on_c, 11, 57, 95
5, 455520, Note_on_c, 11, 54, 95
5, 456480, Note_off_c, 11, 57, 95
5, 456480, Note_off_c, 11, 54, 95
5, 456480, Note_on_c, 11, 47, 95
5, 457920, Note_off_c, 11, 47, 95
5, 457920, Note_on_c, 11, 57, 95
5, 457920, Note_on_c, 11, 54, 95
5, 458400, Note_off_c, 11, 57, 95
5, 458400, Note_off_c, 11, 54, 95
5, 458400, Note_on_c, 11, 47, 95
5, 458880, Note_off_c, 11, 47, 95
5, 458880, Note_on_c, 11, 57, 95
5, 458880, Note_on_c, 11, 54, 95
5, 459360, Note_off_c, 11, 57, 95
5, 459360, Note_off_c, 11, 54, 95
5, 459360, Note_on_c, 11, 59, 95
5, 459360, Note_on_c, 11, 56, 95
5, 459840, Note_off_c, 11, 59, 95
5, 459840, Note_off_c, 11, 56, 95
5, 459840, Note_on_c, 11, 57, 95
5, 459840, Note_on_c, 11, 54, 95
5, 460320, Note_off_c, 11, 57, 95
5, 460320, Note_off_c, 11, 54, 95
5, 460320, Note_on_c, 11, 47, 95
5, 460800, Note_off_c, 11, 47, 95
5, 460800, Note_on_c, 11, 47, 95
5, 461760, Note_off_c, 11, 47, 95
5, 461760, Note_on_c, 11, 57, 95
5, 461760, Note_on_c, 11, 54, 95
5, 462240, Note_off_c, 11, 57, 95
5, 462240, Note_off_c, 11, 54, 95
5, 462240, Note_on_c, 11, 47, 95
5, 462720, Note_off_c, 11, 47, 95
5, 462720, Note_on_c, 11, 47, 95
5, 463200, Note_off_c, 11, 47, 95
5, 463200, Note_on_c, 11, 57, 95
5, 463200, Note_on_c, 11, 54, 95
5, 464160, Note_off_c, 11, 57, 95
5, 464160, Note_off_c, 11, 54, 95
5, 464160, Note_on_c, 11, 47, 95
5, 465600, Note_off_c, 11, 47, 95
5, 465600, Note_on_c, 11, 57, 95
5, 465600, Note_on_c, 11, 54, 95
5, 466080, Note_off_c, 11, 57, 95
5, 466080, Note_off_c, 11, 54, 95
5, 466080, Note_on_c, 11, 47, 95
5, 466560, Note_off_c, 11, 47, 95
5, 466560, Note_on_c, 11, 47, 95
5, 467040, Note_off_c, 11, 47, 95
5, 467040, Note_on_c, 11, 57, 95
5, 467040, Note_on_c, 11, 54, 95
5, 468000, Note_off_c, 11, 57, 95
5, 468000, Note_off_c, 11, 54, 95
5, 468000, Note_on_c, 12, 47, 95
5, 468120, Pitch_bend_c, 12, 8704
5, 468240, Pitch_bend_c, 12, 9216
5, 468360, Pitch_bend_c, 12, 9728
5, 468480, Pitch_bend_c, 12, 10240
5, 468480, Pitch_bend_c, 12, 8192
5, 468480, Note_off_c, 12, 47, 95
5, 468480, Note_on_c, 11, 50, 95
5, 469440, Note_off_c, 11, 50, 95
5, 469440, Note_on_c, 11, 60, 95
5, 469440, Note_on_c, 11, 57, 95
5, 469920, Note_off_c, 11, 60, 95
5, 469920, Note_off_c, 11, 57, 95
5, 469920, Note_on_c, 11, 50, 95
5, 470400, Note_off_c, 11, 50, 95
5, 470400, Note_on_c, 11, 50, 95
5, 470880, Note_off_c, 11, 50, 95
5, 470880, Note_on_c, 11, 60, 95
5, 470880, Note_on_c, 11, 57, 95
5, 471840, Note_off_c, 11, 60, 95
5, 471840, Note_off_c, 11, 57, 95
5, 471840, Note_on_c, 11, 50, 95
5, 473280, Note_off_c, 11, 50, 95
5, 473280, Note_on_c, 11, 60, 95
5, 473280, Note_on_c, 11, 57, 95
5, 473760, Note_off_c, 11, 60, 95
5, 473760, Note_off_c, 11, 57, 95
5, 473760, Note_on_c, 11, 50, 95
5, 474240, Note_off_c, 11, 50, 95
5, 474240, Note_on_c, 11, 60, 95
5, 474240, Note_on_c, 11, 57, 95
5, 474240, Note_on_c, 11, 50, 95
5, 474720, Note_off_c, 11, 60, 95
5, 474720, Note_off_c, 11, 57, 95
5, 474720, Note_off_c, 11, 50, 95
5, 474720, Note_on_c, 11, 62, 79
5, 474720, Note_on_c, 11, 59, 95
5, 475200, Note_off_c, 11, 62, 79
5, 475200, Note_off_c, 11, 59, 95
5, 475200, Note_on_c, 11, 60, 95
5, 475200, Note_on_c, 11, 57, 95
5, 475200, Note_on_c, 11, 50, 95
5, 475680, Note_off_c, 11, 60, 95
5, 475680, Note_off_c, 11, 57, 95
5, 475680, Note_off_c, 11, 50, 95
5, 475680, Note_on_c, 11, 45, 95
5, 476160, Note_off_c, 11, 45, 95
5, 476160, Note_on_c, 11, 45, 95
5, 477120, Note_off_c, 11, 45, 95
5, 477120, Note_on_c, 11, 55, 95
5, 477120, Note_on_c, 11, 52, 95
5, 477600, Note_off_c, 11, 55, 95
5, 477600, Note_off_c, 11, 52, 95
5, 477600, Note_on_c, 11, 45, 95
5, 478560, Note_off_c, 11, 45, 95
5, 478560, Note_on_c, 11, 55, 95
5, 478560, Note_on_c, 11, 52, 95
5, 479520, Note_off_c, 11, 55, 95
5, 479520, Note_off_c, 11, 52, 95
5, 479520, Note_on_c, 11, 45, 95
5, 480480, Note_off_c, 11, 45, 95
5, 480480, Note_on_c, 11, 55, 95
5, 480480, Note_on_c, 11, 52, 95
5, 480960, Note_off_c, 11, 55, 95
5, 480960, Note_off_c, 11, 52, 95
5, 480960, Note_on_c, 11, 57, 95
5, 480960, Note_on_c, 11, 54, 95
5, 481440, Note_off_c, 11, 57, 95
5, 481440, Note_off_c, 11, 54, 95
5, 481440, Note_on_c, 11, 57, 95
5, 481440, Note_on_c, 11, 54, 95
5, 481920, Note_off_c, 11, 57, 95
5, 481920, Note_off_c, 11, 54, 95
5, 481920, Note_on_c, 11, 57, 95
5, 481920, Note_on_c, 11, 54, 95
5, 482400, Note_off_c, 11, 57, 95
5, 482400, Note_off_c, 11, 54, 95
5, 482400, Note_on_c, 11, 55, 95
5, 482400, Note_on_c, 11, 52, 95
5, 482880, Note_off_c, 11, 55, 95
5, 482880, Note_off_c, 11, 52, 95
5, 482880, Note_on_c, 12, 45, 95
5, 483000, Pitch_bend_c, 12, 7808
5, 483120, Pitch_bend_c, 12, 7424
5, 483240, Pitch_bend_c, 12, 6912
5, 483360, Pitch_bend_c, 12, 6528
5, 483480, Pitch_bend_c, 12, 6016
5, 483600, Pitch_bend_c, 12, 5632
5, 483720, Pitch_bend_c, 12, 5120
5, 483840, Pitch_bend_c, 12, 4736
5, 483840, Pitch_bend_c, 12, 8192
5, 483840, Note_off_c, 12, 45, 95
5, 483840, Note_on_c, 11, 40, 95
5, 484800, Note_off_c, 11, 40, 95
5, 484800, Note_on_c, 11, 59, 95
5, 484800, Note_on_c, 11, 55, 95
5, 484800, Note_on_c, 11, 52, 95
5, 484800, Note_on_c, 11, 47, 95
5, 484800, Note_on_c, 11, 40, 95
5, 485760, Note_off_c, 11, 59, 95
5, 485760, Note_off_c, 11, 55, 95
5, 485760, Note_off_c, 11, 52, 95
5, 485760, Note_off_c, 11, 47, 95
5, 485760, Note_off_c, 11, 40, 95
5, 485760, Note_on_c, 11, 40, 95
5, 486720, Note_off_c, 11, 40, 95
5, 486720, Note_on_c, 11, 59, 95
5, 486720, Note_on_c, 11, 55, 95
5, 486720, Note_on_c, 11, 52, 95
5, 486720, Note_on_c, 11, 47, 95
5, 486720, Note_on_c, 11, 40, 95
5, 487680, Note_off_c, 11, 59, 95
5, 487680, Note_off_c, 11, 55, 95
5, 487680, Note_off_c, 11, 52, 95
5, 487680, Note_off_c, 11, 47, 95
5, 487680, Note_off_c, 11, 40, 95
5, 487680, Note_on_c, 11, 40, 95
5, 488640, Note_off_c, 11, 40, 95
5, 488640, Note_on_c, 11, 59, 95
5, 488640, Note_on_c, 11, 55, 95
5, 488640, Note_on_c, 11, 52, 95
5, 488640, Note_on_c, 11, 47, 95
5, 488640, Note_on_c, 11, 40, 95
5, 489600, Note_off_c, 11, 59, 95
5, 489600, Note_off_c, 11, 55, 95
5, 489600, Note_off_c, 11, 52, 95
5, 489600, Note_off_c, 11, 47, 95
5, 489600, Note_off_c, 11, 40, 95
5, 489600, Note_on_c, 11, 40, 95
5, 490560, Note_off_c, 11, 40, 95
5, 490560, Note_on_c, 11, 59, 95
5, 490560, Note_on_c, 11, 55, 95
5, 490560, Note_on_c, 11, 52, 95
5, 490560, Note_on_c, 11, 47, 95
5, 490560, Note_on_c, 11, 40, 95
5, 491520, Note_off_c, 11, 59, 95
5, 491520, Note_off_c, 11, 55, 95
5, 491520, Note_off_c, 11, 52, 95
5, 491520, Note_off_c, 11, 47, 95
5, 491520, Note_off_c, 11, 40, 95
5, 491520, Note_on_c, 11, 40, 95
5, 492480, Note_off_c, 11, 40, 95
5, 492480, Note_on_c, 11, 59, 95
5, 492480, Note_on_c, 11, 55, 95
5, 492480, Note_on_c, 11, 52, 95
5, 492480, Note_on_c, 11, 47, 95
5, 492480, Note_on_c, 11, 40, 95
5, 493440, Note_off_c, 11, 59, 95
5, 493440, Note_off_c, 11, 55, 95
5, 493440, Note_off_c, 11, 52, 95
5, 493440, Note_off_c, 11, 47, 95
5, 493440, Note_off_c, 11, 40, 95
5, 493440, Note_on_c, 11, 40, 95
5, 494400, Note_off_c, 11, 40, 95
5, 494400, Note_on_c, 11, 59, 95
5, 494400, Note_on_c, 11, 55, 95
5, 494400, Note_on_c, 11, 52, 95
5, 494400, Note_on_c, 11, 47, 95
5, 494400, Note_on_c, 11, 40, 95
5, 495360, Note_off_c, 11, 59, 95
5, 495360, Note_off_c, 11, 55, 95
5, 495360, Note_off_c, 11, 52, 95
5, 495360, Note_off_c, 11, 47, 95
5, 495360, Note_off_c, 11, 40, 95
5, 495360, Note_on_c, 11, 47, 95
5, 496320, Note_off_c, 11, 47, 95
5, 496320, Note_on_c, 11, 57, 95
5, 496320, Note_on_c, 11, 54, 95
5, 496800, Note_off_c, 11, 57, 95
5, 496800, Note_off_c, 11, 54, 95
5, 496800, Note_on_c, 11, 47, 95
5, 497280, Note_off_c, 11, 47, 95
5, 497280, Note_on_c, 11, 47, 95
5, 497760, Note_off_c, 11, 47, 95
5, 497760, Note_on_c, 11, 57, 95
5, 497760, Note_on_c, 11, 54, 95
5, 498720, Note_off_c, 11, 57, 95
5, 498720, Note_off_c, 11, 54, 95
5, 498720, Note_on_c, 11, 47, 95
5, 500160, Note_off_c, 11, 47, 95
5, 500160, Note_on_c, 11, 57, 95
5, 500160, Note_on_c, 11, 54, 95
5, 500640, Note_off_c, 11, 57, 95
5, 500640, Note_off_c, 11, 54, 95
5, 500640, Note_on_c, 11, 47, 95
5, 501120, Note_off_c, 11, 47, 95
5, 501120, Note_on_c, 11, 57, 95
5, 501120, Note_on_c, 11, 54, 95
5, 501600, Note_off_c, 11, 57, 95
5, 501600, Note_off_c, 11, 54, 95
5, 501600, Note_on_c, 11, 59, 95
5, 501600, Note_on_c, 11, 56, 95
5, 502080, Note_off_c, 11, 59, 95
5, 502080, Note_off_c, 11, 56, 95
5, 502080, Note_on_c, 11, 57, 95
5, 502080, Note_on_c, 11, 54, 95
5, 502560, Note_off_c, 11, 57, 95
5, 502560, Note_off_c, 11, 54, 95
5, 502560, Note_on_c, 11, 47, 95
5, 503040, Note_off_c, 11, 47, 95
5, 503040, Note_on_c, 11, 47, 95
5, 504000, Note_off_c, 11, 47, 95
5, 504000, Note_on_c, 11, 57, 95
5, 504000, Note_on_c, 11, 54, 95
5, 504480, Note_off_c, 11, 57, 95
5, 504480, Note_off_c, 11, 54, 95
5, 504480, Note_on_c, 11, 47, 95
5, 504960, Note_off_c, 11, 47, 95
5, 504960, Note_on_c, 11, 47, 95
5, 505440, Note_off_c, 11, 47, 95
5, 505440, Note_on_c, 11, 57, 95
5, 505440, Note_on_c, 11, 54, 95
5, 506400, Note_off_c, 11, 57, 95
5, 506400, Note_off_c, 11, 54, 95
5, 506400, Note_on_c, 11, 47, 95
5, 507840, Note_off_c, 11, 47, 95
5, 507840, Note_on_c, 11, 57, 95
5, 507840, Note_on_c, 11, 54, 95
5, 508320, Note_off_c, 11, 57, 95
5, 508320, Note_off_c, 11, 54, 95
5, 508320, Note_on_c, 11, 47, 95
5, 508800, Note_off_c, 11, 47, 95
5, 508800, Note_on_c, 11, 47, 95
5, 509280, Note_off_c, 11, 47, 95
5, 509280, Note_on_c, 11, 57, 95
5, 509280, Note_on_c, 11, 54, 95
5, 510240, Note_off_c, 11, 57, 95
5, 510240, Note_off_c, 11, 54, 95
5, 510240, Note_on_c, 12, 47, 95
5, 510360, Pitch_bend_c, 12, 8704
5, 510480, Pitch_bend_c, 12, 9216
5, 510600, Pitch_bend_c, 12, 9728
5, 510720, Pitch_bend_c, 12, 10240
5, 510720, Pitch_bend_c, 12, 8192
5, 510720, Note_off_c, 12, 47, 95
5, 510720, Note_on_c, 11, 50, 95
5, 511680, Note_off_c, 11, 50, 95
5, 511680, Note_on_c, 11, 60, 95
5, 511680, Note_on_c, 11, 57, 95
5, 512160, Note_off_c, 11, 60, 95
5, 512160, Note_off_c, 11, 57, 95
5, 512160, Note_on_c, 11, 50, 95
5, 512640, Note_off_c, 11, 50, 95
5, 512640, Note_on_c, 11, 50, 95
5, 513120, Note_off_c, 11, 50, 95
5, 513120, Note_on_c, 11, 60, 95
5, 513120, Note_on_c, 11, 57, 95
5, 514080, Note_off_c, 11, 60, 95
5, 514080, Note_off_c, 11, 57, 95
5, 514080, Note_on_c, 11, 50, 95
5, 515520, Note_off_c, 11, 50, 95
5, 515520, Note_on_c, 11, 60, 95
5, 515520, Note_on_c, 11, 57, 95
5, 516000, Note_off_c, 11, 60, 95
5, 516000, Note_off_c, 11, 57, 95
5, 516000, Note_on_c, 11, 50, 95
5, 516480, Note_off_c, 11, 50, 95
5, 516480, Note_on_c, 11, 60, 95
5, 516480, Note_on_c, 11, 57, 95
5, 516480, Note_on_c, 11, 50, 95
5, 516960, Note_off_c, 11, 60, 95
5, 516960, Note_off_c, 11, 57, 95
5, 516960, Note_off_c, 11, 50, 95
5, 516960, Note_on_c, 11, 62, 79
5, 516960, Note_on_c, 11, 59, 95
5, 517440, Note_off_c, 11, 62, 79
5, 517440, Note_off_c, 11, 59, 95
5, 517440, Note_on_c, 11, 60, 95
5, 517440, Note_on_c, 11, 57, 95
5, 517440, Note_on_c, 11, 50, 95
5, 517920, Note_off_c, 11, 60, 95
5, 517920, Note_off_c, 11, 57, 95
5, 517920, Note_off_c, 11, 50, 95
5, 517920, Note_on_c, 11, 45, 95
5, 518400, Note_off_c, 11, 45, 95
5, 518400, Note_on_c, 11, 45, 95
5, 519360, Note_off_c, 11, 45, 95
5, 519360, Note_on_c, 11, 55, 95
5, 519360, Note_on_c, 11, 52, 95
5, 519840, Note_off_c, 11, 55, 95
5, 519840, Note_off_c, 11, 52, 95
5, 519840, Note_on_c, 11, 45, 95
5, 520800, Note_off_c, 11, 45, 95
5, 520800, Note_on_c, 11, 55, 95
5, 520800, Note_on_c, 11, 52, 95
5, 521760, Note_off_c, 11, 55, 95
5, 521760, Note_off_c, 11, 52, 95
5, 521760, Note_on_c, 11, 45, 95
5, 522720, Note_off_c, 11, 45, 95
5, 522720, Note_on_c, 11, 55, 95
5, 522720, Note_on_c, 11, 52, 95
5, 523200, Note_off_c, 11, 55, 95
5, 523200, Note_off_c, 11, 52, 95
5, 523200, Note_on_c, 11, 57, 95
5, 523200, Note_on_c, 11, 54, 95
5, 523680, Note_off_c, 11, 57, 95
5, 523680, Note_off_c, 11, 54, 95
5, 523680, Note_on_c, 11, 57, 95
5, 523680, Note_on_c, 11, 54, 95
5, 524160, Note_off_c, 11, 57, 95
5, 524160, Note_off_c, 11, 54, 95
5, 524160, Note_on_c, 11, 57, 95
5, 524160, Note_on_c, 11, 54, 95
5, 524640, Note_off_c, 11, 57, 95
5, 524640, Note_off_c, 11, 54, 95
5, 524640, Note_on_c, 11, 55, 95
5, 524640, Note_on_c, 11, 52, 95
5, 525120, Note_off_c, 11, 55, 95
5, 525120, Note_off_c, 11, 52, 95
5, 525120, Note_on_c, 12, 45, 95
5, 525240, Pitch_bend_c, 12, 7808
5, 525360, Pitch_bend_c, 12, 7424
5, 525480, Pitch_bend_c, 12, 6912
5, 525600, Pitch_bend_c, 12, 6528
5, 525720, Pitch_bend_c, 12, 6016
5, 525840, Pitch_bend_c, 12, 5632
5, 525960, Pitch_bend_c, 12, 5120
5, 526080, Pitch_bend_c, 12, 4736
5, 526080, Pitch_bend_c, 12, 8192
5, 526080, Note_off_c, 12, 45, 95
5, 526080, Note_on_c, 11, 40, 95
5, 527040, Note_off_c, 11, 40, 95
5, 527040, Note_on_c, 11, 59, 95
5, 527040, Note_on_c, 11, 55, 95
5, 527040, Note_on_c, 11, 52, 95
5, 527040, Note_on_c, 11, 47, 95
5, 527040, Note_on_c, 11, 40, 95
5, 528000, Note_off_c, 11, 59, 95
5, 528000, Note_off_c, 11, 55, 95
5, 528000, Note_off_c, 11, 52, 95
5, 528000, Note_off_c, 11, 47, 95
5, 528000, Note_off_c, 11, 40, 95
5, 528000, Note_on_c, 11, 40, 95
5, 528960, Note_off_c, 11, 40, 95
5, 528960, Note_on_c, 11, 59, 95
5, 528960, Note_on_c, 11, 55, 95
5, 528960, Note_on_c, 11, 52, 95
5, 528960, Note_on_c, 11, 47, 95
5, 528960, Note_on_c, 11, 40, 95
5, 529920, Note_off_c, 11, 59, 95
5, 529920, Note_off_c, 11, 55, 95
5, 529920, Note_off_c, 11, 52, 95
5, 529920, Note_off_c, 11, 47, 95
5, 529920, Note_off_c, 11, 40, 95
5, 529920, Note_on_c, 11, 40, 95
5, 530880, Note_off_c, 11, 40, 95
5, 530880, Note_on_c, 11, 59, 95
5, 530880, Note_on_c, 11, 55, 95
5, 530880, Note_on_c, 11, 52, 95
5, 530880, Note_on_c, 11, 47, 95
5, 530880, Note_on_c, 11, 40, 95
5, 531840, Note_off_c, 11, 59, 95
5, 531840, Note_off_c, 11, 55, 95
5, 531840, Note_off_c, 11, 52, 95
5, 531840, Note_off_c, 11, 47, 95
5, 531840, Note_off_c, 11, 40, 95
5, 531840, Note_on_c, 11, 40, 95
5, 532800, Note_off_c, 11, 40, 95
5, 532800, Note_on_c, 11, 59, 95
5, 532800, Note_on_c, 11, 55, 95
5, 532800, Note_on_c, 11, 52, 95
5, 532800, Note_on_c, 11, 47, 95
5, 532800, Note_on_c, 11, 40, 95
5, 533760, Note_off_c, 11, 59, 95
5, 533760, Note_off_c, 11, 55, 95
5, 533760, Note_off_c, 11, 52, 95
5, 533760, Note_off_c, 11, 47, 95
5, 533760, Note_off_c, 11, 40, 95
5, 533760, Note_on_c, 11, 40, 95
5, 534720, Note_off_c, 11, 40, 95
5, 534720, Note_on_c, 11, 59, 95
5, 534720, Note_on_c, 11, 55, 95
5, 534720, Note_on_c, 11, 52, 95
5, 534720, Note_on_c, 11, 47, 95
5, 534720, Note_on_c, 11, 40, 95
5, 535680, Note_off_c, 11, 59, 95
5, 535680, Note_off_c, 11, 55, 95
5, 535680, Note_off_c, 11, 52, 95
5, 535680, Note_off_c, 11, 47, 95
5, 535680, Note_off_c, 11, 40, 95
5, 535680, Note_on_c, 11, 40, 95
5, 536640, Note_off_c, 11, 40, 95
5, 536640, Note_on_c, 11, 59, 95
5, 536640, Note_on_c, 11, 55, 95
5, 536640, Note_on_c, 11, 52, 95
5, 536640, Note_on_c, 11, 47, 95
5, 536640, Note_on_c, 11, 40, 95
5, 537600, Note_off_c, 11, 59, 95
5, 537600, Note_off_c, 11, 55, 95
5, 537600, Note_off_c, 11, 52, 95
5, 537600, Note_off_c, 11, 47, 95
5, 537600, Note_off_c, 11, 40, 95
5, 537600, Note_on_c, 11, 47, 95
5, 538560, Note_off_c, 11, 47, 95
5, 538560, Note_on_c, 11, 57, 95
5, 538560, Note_on_c, 11, 54, 95
5, 539040, Note_off_c, 11, 57, 95
5, 539040, Note_off_c, 11, 54, 95
5, 539040, Note_on_c, 11, 47, 95
5, 539520, Note_off_c, 11, 47, 95
5, 539520, Note_on_c, 11, 47, 95
5, 540000, Note_off_c, 11, 47, 95
5, 540000, Note_on_c, 11, 57, 95
5, 540000, Note_on_c, 11, 54, 95
5, 540960, Note_off_c, 11, 57, 95
5, 540960, Note_off_c, 11, 54, 95
5, 540960, Note_on_c, 11, 47, 95
5, 542400, Note_off_c, 11, 47, 95
5, 542400, Note_on_c, 11, 57, 95
5, 542400, Note_on_c, 11, 54, 95
5, 542880, Note_off_c, 11, 57, 95
5, 542880, Note_off_c, 11, 54, 95
5, 542880, Note_on_c, 11, 47, 95
5, 543360, Note_off_c, 11, 47, 95
5, 543360, Note_on_c, 11, 57, 95
5, 543360, Note_on_c, 11, 54, 95
5, 543840, Note_off_c, 11, 57, 95
5, 543840, Note_off_c, 11, 54, 95
5, 543840, Note_on_c, 11, 59, 95
5, 543840, Note_on_c, 11, 56, 95
5, 544320, Note_off_c, 11, 59, 95
5, 544320, Note_off_c, 11, 56, 95
5, 544320, Note_on_c, 11, 57, 95
5, 544320, Note_on_c, 11, 54, 95
5, 544800, Note_off_c, 11, 57, 95
5, 544800, Note_off_c, 11, 54, 95
5, 544800, Note_on_c, 11, 47, 95
5, 545280, Note_off_c, 11, 47, 95
5, 545280, Note_on_c, 11, 47, 95
5, 546240, Note_off_c, 11, 47, 95
5, 546240, Note_on_c, 11, 57, 95
5, 546240, Note_on_c, 11, 54, 95
5, 546720, Note_off_c, 11, 57, 95
5, 546720, Note_off_c, 11, 54, 95
5, 546720, Note_on_c, 11, 47, 95
5, 547200, Note_off_c, 11, 47, 95
5, 547200, Note_on_c, 11, 47, 95
5, 547680, Note_off_c, 11, 47, 95
5, 547680, Note_on_c, 11, 57, 95
5, 547680, Note_on_c, 11, 54, 95
5, 548640, Note_off_c, 11, 57, 95
5, 548640, Note_off_c, 11, 54, 95
5, 548640, Note_on_c, 11, 47, 95
5, 550080, Note_off_c, 11, 47, 95
5, 550080, Note_on_c, 11, 57, 95
5, 550080, Note_on_c, 11, 54, 95
5, 550560, Note_off_c, 11, 57, 95
5, 550560, Note_off_c, 11, 54, 95
5, 550560, Note_on_c, 11, 47, 95
5, 551040, Note_off_c, 11, 47, 95
5, 551040, Note_on_c, 11, 47, 95
5, 551520, Note_off_c, 11, 47, 95
5, 551520, Note_on_c, 11, 57, 95
5, 551520, Note_on_c, 11, 54, 95
5, 552480, Note_off_c, 11, 57, 95
5, 552480, Note_off_c, 11, 54, 95
5, 552480, Note_on_c, 12, 47, 95
5, 552600, Pitch_bend_c, 12, 8704
5, 552720, Pitch_bend_c, 12, 9216
5, 552840, Pitch_bend_c, 12, 9728
5, 552960, Pitch_bend_c, 12, 10240
5, 552960, Pitch_bend_c, 12, 8192
5, 552960, Note_off_c, 12, 47, 95
5, 552960, Note_on_c, 11, 50, 95
5, 553920, Note_off_c, 11, 50, 95
5, 553920, Note_on_c, 11, 60, 95
5, 553920, Note_on_c, 11, 57, 95
5, 554400, Note_off_c, 11, 60, 95
5, 554400, Note_off_c, 11, 57, 95
5, 554400, Note_on_c, 11, 50, 95
5, 554880, Note_off_c, 11, 50, 95
5, 554880, Note_on_c, 11, 50, 95
5, 555360, Note_off_c, 11, 50, 95
5, 555360, Note_on_c, 11, 60, 95
5, 555360, Note_on_c, 11, 57, 95
5, 556320, Note_off_c, 11, 60, 95
5, 556320, Note_off_c, 11, 57, 95
5, 556320, Note_on_c, 11, 50, 95
5, 557760, Note_off_c, 11, 50, 95
5, 557760, Note_on_c, 11, 60, 95
5, 557760, Note_on_c, 11, 57, 95
5, 558240, Note_off_c, 11, 60, 95
5, 558240, Note_off_c, 11, 57, 95
5, 558240, Note_on_c, 11, 50, 95
5, 558720, Note_off_c, 11, 50, 95
5, 558720, Note_on_c, 11, 60, 95
5, 558720, Note_on_c, 11, 57, 95
5, 558720, Note_on_c, 11, 50, 95
5, 559200, Note_off_c, 11, 60, 95
5, 559200, Note_off_c, 11, 57, 95
5, 559200, Note_off_c, 11, 50, 95
5, 559200, Note_on_c, 11, 62, 79
5, 559200, Note_on_c, 11, 59, 95
5, 559680, Note_off_c, 11, 62, 79
5, 559680, Note_off_c, 11, 59, 95
5, 559680, Note_on_c, 11, 60, 95
5, 559680, Note_on_c, 11, 57, 95
5, 559680, Note_on_c, 11, 50, 95
5, 560160, Note_off_c, 11, 60, 95
5, 560160, Note_off_c, 11, 57, 95
5, 560160, Note_off_c, 11, 50, 95
5, 560160, Note_on_c, 11, 45, 95
5, 560640, Note_off_c, 11, 45, 95
5, 560640, Note_on_c, 11, 45, 95
5, 561600, Note_off_c, 11, 45, 95
5, 561600, Note_on_c, 11, 55, 95
5, 561600, Note_on_c, 11, 52, 95
5, 562080, Note_off_c, 11, 55, 95
5, 562080, Note_off_c, 11, 52, 95
5, 562080, Note_on_c, 11, 45, 95
5, 563040, Note_off_c, 11, 45, 95
5, 563040, Note_on_c, 11, 55, 95
5, 563040, Note_on_c, 11, 52, 95
5, 564000, Note_off_c, 11, 55, 95
5, 564000, Note_off_c, 11, 52, 95
5, 564000, Note_on_c, 11, 45, 95
5, 564960, Note_off_c, 11, 45, 95
5, 564960, Note_on_c, 11, 55, 95
5, 564960, Note_on_c, 11, 52, 95
5, 565440, Note_off_c, 11, 55, 95
5, 565440, Note_off_c, 11, 52, 95
5, 565440, Note_on_c, 11, 57, 95
5, 565440, Note_on_c, 11, 54, 95
5, 565920, Note_off_c, 11, 57, 95
5, 565920, Note_off_c, 11, 54, 95
5, 565920, Note_on_c, 11, 57, 95
5, 565920, Note_on_c, 11, 54, 95
5, 566400, Note_off_c, 11, 57, 95
5, 566400, Note_off_c, 11, 54, 95
5, 566400, Note_on_c, 11, 57, 95
5, 566400, Note_on_c, 11, 54, 95
5, 566880, Note_off_c, 11, 57, 95
5, 566880, Note_off_c, 11, 54, 95
5, 566880, Note_on_c, 11, 55, 95
5, 566880, Note_on_c, 11, 52, 95
5, 567360, Note_off_c, 11, 55, 95
5, 567360, Note_off_c, 11, 52, 95
5, 567360, Note_on_c, 12, 45, 95
5, 567480, Pitch_bend_c, 12, 7808
5, 567600, Pitch_bend_c, 12, 7424
5, 567720, Pitch_bend_c, 12, 6912
5, 567840, Pitch_bend_c, 12, 6528
5, 567960, Pitch_bend_c, 12, 6016
5, 568080, Pitch_bend_c, 12, 5632
5, 568200, Pitch_bend_c, 12, 5120
5, 568320, Pitch_bend_c, 12, 4736
5, 568320, Pitch_bend_c, 12, 8192
5, 568320, Note_off_c, 12, 45, 95
5, 568320, Note_on_c, 11, 40, 95
5, 569280, Note_off_c, 11, 40, 95
5, 569280, Note_on_c, 11, 59, 95
5, 569280, Note_on_c, 11, 55, 95
5, 569280, Note_on_c, 11, 52, 95
5, 569280, Note_on_c, 11, 47, 95
5, 569280, Note_on_c, 11, 40, 95
5, 570240, Note_off_c, 11, 59, 95
5, 570240, Note_off_c, 11, 55, 95
5, 570240, Note_off_c, 11, 52, 95
5, 570240, Note_off_c, 11, 47, 95
5, 570240, Note_off_c, 11, 40, 95
5, 570240, Note_on_c, 11, 40, 95
5, 571200, Note_off_c, 11, 40, 95
5, 571200, Note_on_c, 11, 59, 95
5, 571200, Note_on_c, 11, 55, 95
5, 571200, Note_on_c, 11, 52, 95
5, 571200, Note_on_c, 11, 47, 95
5, 571200, Note_on_c, 11, 40, 95
5, 572160, Note_off_c, 11, 59, 95
5, 572160, Note_off_c, 11, 55, 95
5, 572160, Note_off_c, 11, 52, 95
5, 572160, Note_off_c, 11, 47, 95
5, 572160, Note_off_c, 11, 40, 95
5, 572160, Note_on_c, 11, 40, 95
5, 573120, Note_off_c, 11, 40, 95
5, 573120, Note_on_c, 11, 59, 95
5, 573120, Note_on_c, 11, 55, 95
5, 573120, Note_on_c, 11, 52, 95
5, 573120, Note_on_c, 11, 47, 95
5, 573120, Note_on_c, 11, 40, 95
5, 574080, Note_off_c, 11, 59, 95
5, 574080, Note_off_c, 11, 55, 95
5, 574080, Note_off_c, 11, 52, 95
5, 574080, Note_off_c, 11, 47, 95
5, 574080, Note_off_c, 11, 40, 95
5, 574080, Note_on_c, 11, 40, 95
5, 575040, Note_off_c, 11, 40, 95
5, 575040, Note_on_c, 11, 59, 95
5, 575040, Note_on_c, 11, 55, 95
5, 575040, Note_on_c, 11, 52, 95
5, 575040, Note_on_c, 11, 47, 95
5, 575040, Note_on_c, 11, 40, 95
5, 576000, Note_off_c, 11, 59, 95
5, 576000, Note_off_c, 11, 55, 95
5, 576000, Note_off_c, 11, 52, 95
5, 576000, Note_off_c, 11, 47, 95
5, 576000, Note_off_c, 11, 40, 95
5, 576000, Note_on_c, 11, 40, 95
5, 576960, Note_off_c, 11, 40, 95
5, 576960, Note_on_c, 11, 59, 95
5, 576960, Note_on_c, 11, 55, 95
5, 576960, Note_on_c, 11, 52, 95
5, 576960, Note_on_c, 11, 47, 95
5, 576960, Note_on_c, 11, 40, 95
5, 577920, Note_off_c, 11, 59, 95
5, 577920, Note_off_c, 11, 55, 95
5, 577920, Note_off_c, 11, 52, 95
5, 577920, Note_off_c, 11, 47, 95
5, 577920, Note_off_c, 11, 40, 95
5, 577920, Note_on_c, 11, 40, 95
5, 578880, Note_off_c, 11, 40, 95
5, 578880, Note_on_c, 11, 59, 95
5, 578880, Note_on_c, 11, 55, 95
5, 578880, Note_on_c, 11, 52, 95
5, 578880, Note_on_c, 11, 47, 95
5, 578880, Note_on_c, 11, 40, 95
5, 579840, Note_off_c, 11, 59, 95
5, 579840, Note_off_c, 11, 55, 95
5, 579840, Note_off_c, 11, 52, 95
5, 579840, Note_off_c, 11, 47, 95
5, 579840, Note_off_c, 11, 40, 95
5, 579840, Note_on_c, 11, 47, 95
5, 580800, Note_off_c, 11, 47, 95
5, 580800, Note_on_c, 11, 57, 95
5, 580800, Note_on_c, 11, 54, 95
5, 581280, Note_off_c, 11, 57, 95
5, 581280, Note_off_c, 11, 54, 95
5, 581280, Note_on_c, 11, 47, 95
5, 581760, Note_off_c, 11, 47, 95
5, 581760, Note_on_c, 11, 47, 95
5, 582240, Note_off_c, 11, 47, 95
5, 582240, Note_on_c, 11, 57, 95
5, 582240, Note_on_c, 11, 54, 95
5, 583200, Note_off_c, 11, 57, 95
5, 583200, Note_off_c, 11, 54, 95
5, 583200, Note_on_c, 11, 47, 95
5, 584640, Note_off_c, 11, 47, 95
5, 584640, Note_on_c, 11, 57, 95
5, 584640, Note_on_c, 11, 54, 95
5, 585120, Note_off_c, 11, 57, 95
5, 585120, Note_off_c, 11, 54, 95
5, 585120, Note_on_c, 11, 47, 95
5, 585600, Note_off_c, 11, 47, 95
5, 585600, Note_on_c, 11, 57, 95
5, 585600, Note_on_c, 11, 54, 95
5, 586080, Note_off_c, 11, 57, 95
5, 586080, Note_off_c, 11, 54, 95
5, 586080, Note_on_c, 11, 59, 95
5, 586080, Note_on_c, 11, 56, 95
5, 586560, Note_off_c, 11, 59, 95
5, 586560, Note_off_c, 11, 56, 95
5, 586560, Note_on_c, 11, 57, 95
5, 586560, Note_on_c, 11, 54, 95
5, 587040, Note_off_c, 11, 57, 95
5, 587040, Note_off_c, 11, 54, 95
5, 587040, Note_on_c, 11, 47, 95
5, 587520, Note_off_c, 11, 47, 95
5, 587520, Note_on_c, 11, 47, 95
5, 588480, Note_off_c, 11, 47, 95
5, 588480, Note_on_c, 11, 57, 95
5, 588480, Note_on_c, 11, 54, 95
5, 588960, Note_off_c, 11, 57, 95
5, 588960, Note_off_c, 11, 54, 95
5, 588960, Note_on_c, 11, 47, 95
5, 589440, Note_off_c, 11, 47, 95
5, 589440, Note_on_c, 11, 47, 95
5, 589920, Note_off_c, 11, 47, 95
5, 589920, Note_on_c, 11, 57, 95
5, 589920, Note_on_c, 11, 54, 95
5, 590880, Note_off_c, 11, 57, 95
5, 590880, Note_off_c, 11, 54, 95
5, 590880, Note_on_c, 11, 47, 95
5, 592320, Note_off_c, 11, 47, 95
5, 592320, Note_on_c, 11, 57, 95
5, 592320, Note_on_c, 11, 54, 95
5, 592800, Note_off_c, 11, 57, 95
5, 592800, Note_off_c, 11, 54, 95
5, 592800, Note_on_c, 11, 47, 95
5, 593280, Note_off_c, 11, 47, 95
5, 593280, Note_on_c, 11, 47, 95
5, 593760, Note_off_c, 11, 47, 95
5, 593760, Note_on_c, 11, 57, 95
5, 593760, Note_on_c, 11, 54, 95
5, 594720, Note_off_c, 11, 57, 95
5, 594720, Note_off_c, 11, 54, 95
5, 594720, Note_on_c, 12, 47, 95
5, 594840, Pitch_bend_c, 12, 8704
5, 594960, Pitch_bend_c, 12, 9216
5, 595080, Pitch_bend_c, 12, 9728
5, 595200, Pitch_bend_c, 12, 10240
5, 595200, Pitch_bend_c, 12, 8192
5, 595200, Note_off_c, 12, 47, 95
5, 595200, Note_on_c, 11, 50, 95
5, 596160, Note_off_c, 11, 50, 95
5, 596160, Note_on_c, 11, 60, 95
5, 596160, Note_on_c, 11, 57, 95
5, 596640, Note_off_c, 11, 60, 95
5, 596640, Note_off_c, 11, 57, 95
5, 596640, Note_on_c, 11, 50, 95
5, 597120, Note_off_c, 11, 50, 95
5, 597120, Note_on_c, 11, 50, 95
5, 597600, Note_off_c, 11, 50, 95
5, 597600, Note_on_c, 11, 60, 95
5, 597600, Note_on_c, 11, 57, 95
5, 598560, Note_off_c, 11, 60, 95
5, 598560, Note_off_c, 11, 57, 95
5, 598560, Note_on_c, 11, 50, 95
5, 600000, Note_off_c, 11, 50, 95
5, 600000, Note_on_c, 11, 60, 95
5, 600000, Note_on_c, 11, 57, 95
5, 600480, Note_off_c, 11, 60, 95
5, 600480, Note_off_c, 11, 57, 95
5, 600480, Note_on_c, 11, 50, 95
5, 600960, Note_off_c, 11, 50, 95
5, 600960, Note_on_c, 11, 60, 95
5, 600960, Note_on_c, 11, 57, 95
5, 600960, Note_on_c, 11, 50, 95
5, 601440, Note_off_c, 11, 60, 95
5, 601440, Note_off_c, 11, 57, 95
5, 601440, Note_off_c, 11, 50, 95
5, 601440, Note_on_c, 11, 62, 79
5, 601440, Note_on_c, 11, 59, 95
5, 601920, Note_off_c, 11, 62, 79
5, 601920, Note_off_c, 11, 59, 95
5, 601920, Note_on_c, 11, 60, 95
5, 601920, Note_on_c, 11, 57, 95
5, 601920, Note_on_c, 11, 50, 95
5, 602400, Note_off_c, 11, 60, 95
5, 602400, Note_off_c, 11, 57, 95
5, 602400, Note_off_c, 11, 50, 95
5, 602400, Note_on_c, 11, 45, 95
5, 602880, Note_off_c, 11, 45, 95
5, 602880, Note_on_c, 11, 45, 95
5, 603840, Note_off_c, 11, 45, 95
5, 603840, Note_on_c, 11, 55, 95
5, 603840, Note_on_c, 11, 52, 95
5, 604320, Note_off_c, 11, 55, 95
5, 604320, Note_off_c, 11, 52, 95
5, 604320, Note_on_c, 11, 45, 95
5, 605280, Note_off_c, 11, 45, 95
5, 605280, Note_on_c, 11, 55, 95
5, 605280, Note_on_c, 11, 52, 95
5, 606240, Note_off_c, 11, 55, 95
5, 606240, Note_off_c, 11, 52, 95
5, 606240, Note_on_c, 11, 45, 95
5, 607200, Note_off_c, 11, 45, 95
5, 607200, Note_on_c, 11, 55, 95
5, 607200, Note_on_c, 11, 52, 95
5, 607680, Note_off_c, 11, 55, 95
5, 607680, Note_off_c, 11, 52, 95
5, 607680, Note_on_c, 11, 57, 95
5, 607680, Note_on_c, 11, 54, 95
5, 608160, Note_off_c, 11, 57, 95
5, 608160, Note_off_c, 11, 54, 95
5, 608160, Note_on_c, 11, 57, 95
5, 608160, Note_on_c, 11, 54, 95
5, 608640, Note_off_c, 11, 57, 95
5, 608640, Note_off_c, 11, 54, 95
5, 608640, Note_on_c, 11, 57, 95
5, 608640, Note_on_c, 11, 54, 95
5, 609120, Note_off_c, 11, 57, 95
5, 609120, Note_off_c, 11, 54, 95
5, 609120, Note_on_c, 11, 55, 95
5, 609120, Note_on_c, 11, 52, 95
5, 609600, Note_off_c, 11, 55, 95
5, 609600, Note_off_c, 11, 52, 95
5, 609600, Note_on_c, 12, 45, 95
5, 609720, Pitch_bend_c, 12, 7808
5, 609840, Pitch_bend_c, 12, 7424
5, 609960, Pitch_bend_c, 12, 6912
5, 610080, Pitch_bend_c, 12, 6528
5, 610200, Pitch_bend_c, 12, 6016
5, 610320, Pitch_bend_c, 12, 5632
5, 610440, Pitch_bend_c, 12, 5120
5, 610560, Pitch_bend_c, 12, 4736
5, 610560, Pitch_bend_c, 12, 8192
5, 610560, Note_off_c, 12, 45, 95
5, 610560, Note_on_c, 11, 40, 95
5, 611520, Note_off_c, 11, 40, 95
5, 611520, Note_on_c, 11, 59, 95
5, 611520, Note_on_c, 11, 55, 95
5, 611520, Note_on_c, 11, 52, 95
5, 611520, Note_on_c, 11, 47, 95
5, 611520, Note_on_c, 11, 40, 95
5, 612480, Note_off_c, 11, 59, 95
5, 612480, Note_off_c, 11, 55, 95
5, 612480, Note_off_c, 11, 52, 95
5, 612480, Note_off_c, 11, 47, 95
5, 612480, Note_off_c, 11, 40, 95
5, 612480, Note_on_c, 11, 40, 95
5, 613440, Note_off_c, 11, 40, 95
5, 613440, Note_on_c, 11, 59, 95
5, 613440, Note_on_c, 11, 55, 95
5, 613440, Note_on_c, 11, 52, 95
5, 613440, Note_on_c, 11, 47, 95
5, 613440, Note_on_c, 11, 40, 95
5, 614400, Note_off_c, 11, 59, 95
5, 614400, Note_off_c, 11, 55, 95
5, 614400, Note_off_c, 11, 52, 95
5, 614400, Note_off_c, 11, 47, 95
5, 614400, Note_off_c, 11, 40, 95
5, 614400, Note_on_c, 11, 40, 95
5, 615360, Note_off_c, 11, 40, 95
5, 615360, Note_on_c, 11, 59, 95
5, 615360, Note_on_c, 11, 55, 95
5, 615360, Note_on_c, 11, 52, 95
5, 615360, Note_on_c, 11, 47, 95
5, 615360, Note_on_c, 11, 40, 95
5, 616320, Note_off_c, 11, 59, 95
5, 616320, Note_off_c, 11, 55, 95
5, 616320, Note_off_c, 11, 52, 95
5, 616320, Note_off_c, 11, 47, 95
5, 616320, Note_off_c, 11, 40, 95
5, 616320, Note_on_c, 11, 40, 95
5, 617280, Note_off_c, 11, 40, 95
5, 617280, Note_on_c, 11, 59, 95
5, 617280, Note_on_c, 11, 55, 95
5, 617280, Note_on_c, 11, 52, 95
5, 617280, Note_on_c, 11, 47, 95
5, 617280, Note_on_c, 11, 40, 95
5, 618240, Note_off_c, 11, 59, 95
5, 618240, Note_off_c, 11, 55, 95
5, 618240, Note_off_c, 11, 52, 95
5, 618240, Note_off_c, 11, 47, 95
5, 618240, Note_off_c, 11, 40, 95
5, 618240, Note_on_c, 11, 40, 95
5, 619200, Note_off_c, 11, 40, 95
5, 619200, Note_on_c, 11, 59, 95
5, 619200, Note_on_c, 11, 55, 95
5, 619200, Note_on_c, 11, 52, 95
5, 619200, Note_on_c, 11, 47, 95
5, 619200, Note_on_c, 11, 40, 95
5, 620160, Note_off_c, 11, 59, 95
5, 620160, Note_off_c, 11, 55, 95
5, 620160, Note_off_c, 11, 52, 95
5, 620160, Note_off_c, 11, 47, 95
5, 620160, Note_off_c, 11, 40, 95
5, 620160, Note_on_c, 11, 40, 95
5, 621120, Note_off_c, 11, 40, 95
5, 621120, Note_on_c, 11, 59, 95
5, 621120, Note_on_c, 11, 55, 95
5, 621120, Note_on_c, 11, 52, 95
5, 621120, Note_on_c, 11, 47, 95
5, 621120, Note_on_c, 11, 40, 95
5, 622080, Note_off_c, 11, 59, 95
5, 622080, Note_off_c, 11, 55, 95
5, 622080, Note_off_c, 11, 52, 95
5, 622080, Note_off_c, 11, 47, 95
5, 622080, Note_off_c, 11, 40, 95
5, 622080, Note_on_c, 12, 47, 95
5, 622240, Pitch_bend_c, 12, 8192
5, 622400, Pitch_bend_c, 12, 8320
5, 622560, Pitch_bend_c, 12, 8192
5, 622720, Pitch_bend_c, 12, 8320
5, 622880, Pitch_bend_c, 12, 8192
5, 623040, Pitch_bend_c, 12, 8320
5, 623200, Pitch_bend_c, 12, 8192
5, 623360, Pitch_bend_c, 12, 8320
5, 623520, Pitch_bend_c, 12, 8192
5, 623680, Pitch_bend_c, 12, 8320
5, 623840, Pitch_bend_c, 12, 8192
5, 624000, Pitch_bend_c, 12, 8320
5, 624160, Pitch_bend_c, 12, 8192
5, 624320, Pitch_bend_c, 12, 8320
5, 624480, Pitch_bend_c, 12, 8192
5, 624640, Pitch_bend_c, 12, 8320
5, 624800, Pitch_bend_c, 12, 8192
5, 624960, Pitch_bend_c, 12, 8320
5, 625120, Pitch_bend_c, 12, 8192
5, 625280, Pitch_bend_c, 12, 8320
5, 625440, Pitch_bend_c, 12, 8192
5, 625600, Pitch_bend_c, 12, 8320
5, 625760, Pitch_bend_c, 12, 8192
5, 625920, Pitch_bend_c, 12, 8320
5, 626080, Pitch_bend_c, 12, 8192
5, 626240, Pitch_bend_c, 12, 8320
5, 626400, Pitch_bend_c, 12, 8192
5, 626560, Pitch_bend_c, 12, 8320
5, 626720, Pitch_bend_c, 12, 8192
5, 626880, Pitch_bend_c, 12, 8320
5, 627040, Pitch_bend_c, 12, 8192
5, 627200, Pitch_bend_c, 12, 8320
5, 627360, Pitch_bend_c, 12, 8192
5, 627520, Pitch_bend_c, 12, 8320
5, 627680, Pitch_bend_c, 12, 8192
5, 627840, Pitch_bend_c, 12, 8320
5, 628000, Pitch_bend_c, 12, 8192
5, 628160, Pitch_bend_c, 12, 8320
5, 628320, Pitch_bend_c, 12, 8192
5, 628480, Pitch_bend_c, 12, 8320
5, 628640, Pitch_bend_c, 12, 8192
5, 628800, Pitch_bend_c, 12, 8320
5, 628960, Pitch_bend_c, 12, 8192
5, 629120, Pitch_bend_c, 12, 8320
5, 629280, Pitch_bend_c, 12, 8192
5, 629440, Pitch_bend_c, 12, 8320
5, 629600, Pitch_bend_c, 12, 8192
5, 629760, Pitch_bend_c, 12, 8320
5, 629760, Pitch_bend_c, 12, 8192
5, 629760, Note_off_c, 12, 47, 95
5, 629760, Note_on_c, 12, 59, 95
5, 629920, Pitch_bend_c, 12, 8192
5, 630080, Pitch_bend_c, 12, 8320
5, 630240, Pitch_bend_c, 12, 8192
5, 630400, Pitch_bend_c, 12, 8320
5, 630560, Pitch_bend_c, 12, 8192
5, 630720, Pitch_bend_c, 12, 8320
5, 630880, Pitch_bend_c, 12, 8192
5, 631040, Pitch_bend_c, 12, 8320
5, 631200, Pitch_bend_c, 12, 8192
5, 631360, Pitch_bend_c, 12, 8320
5, 631520, Pitch_bend_c, 12, 8192
5, 631680, Pitch_bend_c, 12, 8320
5, 631840, Pitch_bend_c, 12, 8192
5, 632000, Pitch_bend_c, 12, 8320
5, 632160, Pitch_bend_c, 12, 8192
5, 632320, Pitch_bend_c, 12, 8320
5, 632480, Pitch_bend_c, 12, 8192
5, 632640, Pitch_bend_c, 12, 8320
5, 632800, Pitch_bend_c, 12, 8192
5, 632960, Pitch_bend_c, 12, 8320
5, 633120, Pitch_bend_c, 12, 8192
5, 633280, Pitch_bend_c, 12, 8320
5, 633440, Pitch_bend_c, 12, 8192
5, 633600, Pitch_bend_c, 12, 8320
5, 633760, Pitch_bend_c, 12, 8192
5, 633920, Pitch_bend_c, 12, 8320
5, 634080, Pitch_bend_c, 12, 8192
5, 634240, Pitch_bend_c, 12, 8320
5, 634400, Pitch_bend_c, 12, 8192
5, 634560, Pitch_bend_c, 12, 8320
5, 634720, Pitch_bend_c, 12, 8192
5, 634880, Pitch_bend_c, 12, 8320
5, 635040, Pitch_bend_c, 12, 8192
5, 635200, Pitch_bend_c, 12, 8320
5, 635360, Pitch_bend_c, 12, 8192
5, 635520, Pitch_bend_c, 12, 8320
5, 635680, Pitch_bend_c, 12, 8192
5, 635840, Pitch_bend_c, 12, 8320
5, 636000, Pitch_bend_c, 12, 8192
5, 636160, Pitch_bend_c, 12, 8320
5, 636320, Pitch_bend_c, 12, 8192
5, 636480, Pitch_bend_c, 12, 8320
5, 636640, Pitch_bend_c, 12, 8192
5, 636800, Pitch_bend_c, 12, 8320
5, 636960, Pitch_bend_c, 12, 8192
5, 637120, Pitch_bend_c, 12, 8320
5, 637280, Pitch_bend_c, 12, 8192
5, 637440, Pitch_bend_c, 12, 8320
5, 637600, Pitch_bend_c, 12, 8192
5, 637760, Pitch_bend_c, 12, 8320
5, 637920, Pitch_bend_c, 12, 8192
5, 638080, Pitch_bend_c, 12, 8320
5, 638240, Pitch_bend_c, 12, 8192
5, 638400, Pitch_bend_c, 12, 8320
5, 638560, Pitch_bend_c, 12, 8192
5, 638720, Pitch_bend_c, 12, 8320
5, 638880, Pitch_bend_c, 12, 8192
5, 639040, Pitch_bend_c, 12, 8320
5, 639200, Pitch_bend_c, 12, 8192
5, 639360, Pitch_bend_c, 12, 8320
5, 639520, Pitch_bend_c, 12, 8192
5, 639680, Pitch_bend_c, 12, 8320
5, 639840, Pitch_bend_c, 12, 8192
5, 640000, Pitch_bend_c, 12, 8320
5, 640160, Pitch_bend_c, 12, 8192
5, 640320, Pitch_bend_c, 12, 8320
5, 640480, Pitch_bend_c, 12, 8192
5, 640640, Pitch_bend_c, 12, 8320
5, 640800, Pitch_bend_c, 12, 8192
5, 640960, Pitch_bend_c, 12, 8320
5, 641120, Pitch_bend_c, 12, 8192
5, 641280, Pitch_bend_c, 12, 8320
5, 641440, Pitch_bend_c, 12, 8192
5, 641600, Pitch_bend_c, 12, 8320
5, 641760, Pitch_bend_c, 12, 8192
5, 641920, Pitch_bend_c, 12, 8320
5, 642080, Pitch_bend_c, 12, 8192
5, 642240, Pitch_bend_c, 12, 8320
5, 642400, Pitch_bend_c, 12, 8192
5, 642560, Pitch_bend_c, 12, 8320
5, 642720, Pitch_bend_c, 12, 8192
5, 642880, Pitch_bend_c, 12, 8320
5, 643040, Pitch_bend_c, 12, 8192
5, 643200, Pitch_bend_c, 12, 8320
5, 643360, Pitch_bend_c, 12, 8192
5, 643520, Pitch_bend_c, 12, 8320
5, 643680, Pitch_bend_c, 12, 8192
5, 643840, Pitch_bend_c, 12, 8320
5, 644000, Pitch_bend_c, 12, 8192
5, 644160, Pitch_bend_c, 12, 8320
5, 644320, Pitch_bend_c, 12, 8192
5, 644480, Pitch_bend_c, 12, 8320
5, 644640, Pitch_bend_c, 12, 8192
5, 644800, Pitch_bend_c, 12, 8320
5, 644960, Pitch_bend_c, 12, 8192
5, 645120, Pitch_bend_c, 12, 8320
5, 645120, Pitch_bend_c, 12, 8192
5, 645120, Note_off_c, 12, 59, 95
5, 645120, Control_c, 12, 11, 31
5, 645120, Note_on_c, 12, 61, 95
5, 645155, Control_c, 12, 11, 32
5, 645190, Control_c, 12, 11, 33
5, 645225, Control_c, 12, 11, 34
5, 645260, Control_c, 12, 11, 35
5, 645295, Control_c, 12, 11, 36
5, 645330, Control_c, 12, 11, 37
5, 645365, Control_c, 12, 11, 38
5, 645400, Control_c, 12, 11, 39
5, 645435, Control_c, 12, 11, 40
5, 645470, Control_c, 12, 11, 41
5, 645505, Control_c, 12, 11, 42
5, 645540, Control_c, 12, 11, 43
5, 645575, Control_c, 12, 11, 44
5, 645610, Control_c, 12, 11, 45
5, 645645, Control_c, 12, 11, 46
5, 645680, Control_c, 12, 11, 47
5, 645715, Control_c, 12, 11, 48
5, 645750, Control_c, 12, 11, 49
5, 645785, Control_c, 12, 11, 50
5, 645820, Control_c, 12, 11, 51
5, 645855, Control_c, 12, 11, 52
5, 645890, Control_c, 12, 11, 53
5, 645925, Control_c, 12, 11, 54
5, 645960, Control_c, 12, 11, 55
5, 645995, Control_c, 12, 11, 56
5, 646030, Control_c, 12, 11, 57
5, 646065, Control_c, 12, 11, 58
5, 646100, Control_c, 12, 11, 59
5, 646135, Control_c, 12, 11, 60
5, 646170, Control_c, 12, 11, 61
5, 646205, Control_c, 12, 11, 62
5, 646240, Control_c, 12, 11, 63
5, 646275, Control_c, 12, 11, 64
5, 646310, Control_c, 12, 11, 65
5, 646345, Control_c, 12, 11, 66
5, 646380, Control_c, 12, 11, 67
5, 646415, Control_c, 12, 11, 68
5, 646450, Control_c, 12, 11, 69
5, 646485, Control_c, 12, 11, 70
5, 646520, Control_c, 12, 11, 71
5, 646555, Control_c, 12, 11, 72
5, 646590, Control_c, 12, 11, 73
5, 646625, Control_c, 12, 11, 74
5, 646660, Control_c, 12, 11, 75
5, 646695, Control_c, 12, 11, 76
5, 646730, Control_c, 12, 11, 77
5, 646765, Control_c, 12, 11, 78
5, 646800, Control_c, 12, 11, 79
5, 646835, Control_c, 12, 11, 80
5, 646870, Control_c, 12, 11, 81
5, 646905, Control_c, 12, 11, 82
5, 646940, Control_c, 12, 11, 83
5, 646975, Control_c, 12, 11, 84
5, 647010, Control_c, 12, 11, 85
5, 647045, Control_c, 12, 11, 86
5, 647080, Control_c, 12, 11, 87
5, 647115, Control_c, 12, 11, 88
5, 647150, Control_c, 12, 11, 89
5, 647185, Control_c, 12, 11, 90
5, 647220, Control_c, 12, 11, 91
5, 647255, Control_c, 12, 11, 92
5, 647290, Control_c, 12, 11, 93
5, 647325, Control_c, 12, 11, 94
5, 647360, Control_c, 12, 11, 95
5, 647395, Control_c, 12, 11, 96
5, 647430, Control_c, 12, 11, 97
5, 647465, Control_c, 12, 11, 98
5, 647500, Control_c, 12, 11, 99
5, 647535, Control_c, 12, 11, 100
5, 647570, Control_c, 12, 11, 101
5, 647605, Control_c, 12, 11, 102
5, 647640, Control_c, 12, 11, 103
5, 647675, Control_c, 12, 11, 104
5, 647710, Control_c, 12, 11, 105
5, 647745, Control_c, 12, 11, 106
5, 647780, Control_c, 12, 11, 107
5, 647815, Control_c, 12, 11, 108
5, 647850, Control_c, 12, 11, 109
5, 647885, Control_c, 12, 11, 110
5, 647920, Control_c, 12, 11, 111
5, 647955, Control_c, 12, 11, 112
5, 647990, Control_c, 12, 11, 113
5, 648025, Control_c, 12, 11, 114
5, 648060, Control_c, 12, 11, 115
5, 648095, Control_c, 12, 11, 116
5, 648130, Control_c, 12, 11, 117
5, 648165, Control_c, 12, 11, 118
5, 648200, Control_c, 12, 11, 119
5, 648235, Control_c, 12, 11, 120
5, 648270, Control_c, 12, 11, 121
5, 648305, Control_c, 12, 11, 122
5, 648340, Control_c, 12, 11, 123
5, 648375, Control_c, 12, 11, 124
5, 648410, Control_c, 12, 11, 125
5, 648445, Control_c, 12, 11, 126
5, 648480, Control_c, 12, 11, 127
5, 648480, Note_off_c, 12, 61, 95
5, 648480, Control_c, 12, 11, 31
5, 648480, Note_on_c, 12, 62, 95
5, 648525, Control_c, 12, 11, 32
5, 648570, Control_c, 12, 11, 33
5, 648615, Control_c, 12, 11, 34
5, 648660, Control_c, 12, 11, 35
5, 648705, Control_c, 12, 11, 36
5, 648750, Control_c, 12, 11, 37
5, 648795, Control_c, 12, 11, 38
5, 648840, Control_c, 12, 11, 39
5, 648885, Control_c, 12, 11, 40
5, 648930, Control_c, 12, 11, 41
5, 648975, Control_c, 12, 11, 42
5, 649020, Control_c, 12, 11, 43
5, 649065, Control_c, 12, 11, 44
5, 649110, Control_c, 12, 11, 45
5, 649155, Control_c, 12, 11, 46
5, 649200, Control_c, 12, 11, 47
5, 649245, Control_c, 12, 11, 48
5, 649290, Control_c, 12, 11, 49
5, 649335, Control_c, 12, 11, 50
5, 649380, Control_c, 12, 11, 51
5, 649425, Control_c, 12, 11, 52
5, 649470, Control_c, 12, 11, 53
5, 649515, Control_c, 12, 11, 54
5, 649560, Control_c, 12, 11, 55
5, 649605, Control_c, 12, 11, 56
5, 649650, Control_c, 12, 11, 57
5, 649695, Control_c, 12, 11, 58
5, 649740, Control_c, 12, 11, 59
5, 649785, Control_c, 12, 11, 60
5, 649830, Control_c, 12, 11, 61
5, 649875, Control_c, 12, 11, 62
5, 649920, Control_c, 12, 11, 63
5, 649965, Control_c, 12, 11, 64
5, 650010, Control_c, 12, 11, 65
5, 650055, Control_c, 12, 11, 66
5, 650100, Control_c, 12, 11, 67
5, 650145, Control_c, 12, 11, 68
5, 650190, Control_c, 12, 11, 69
5, 650235, Control_c, 12, 11, 70
5, 650280, Control_c, 12, 11, 71
5, 650325, Control_c, 12, 11, 72
5, 650370, Control_c, 12, 11, 73
5, 650415, Control_c, 12, 11, 74
5, 650460, Control_c, 12, 11, 75
5, 650505, Control_c, 12, 11, 76
5, 650550, Control_c, 12, 11, 77
5, 650595, Control_c, 12, 11, 78
5, 650640, Control_c, 12, 11, 79
5, 650685, Control_c, 12, 11, 80
5, 650730, Control_c, 12, 11, 81
5, 650775, Control_c, 12, 11, 82
5, 650820, Control_c, 12, 11, 83
5, 650865, Control_c, 12, 11, 84
5, 650910, Control_c, 12, 11, 85
5, 650955, Control_c, 12, 11, 86
5, 651000, Control_c, 12, 11, 87
5, 651045, Control_c, 12, 11, 88
5, 651090, Control_c, 12, 11, 89
5, 651135, Control_c, 12, 11, 90
5, 651180, Control_c, 12, 11, 91
5, 651225, Control_c, 12, 11, 92
5, 651270, Control_c, 12, 11, 93
5, 651315, Control_c, 12, 11, 94
5, 651360, Control_c, 12, 11, 95
5, 651405, Control_c, 12, 11, 96
5, 651450, Control_c, 12, 11, 97
5, 651495, Control_c, 12, 11, 98
5, 651540, Control_c, 12, 11, 99
5, 651585, Control_c, 12, 11, 100
5, 651630, Control_c, 12, 11, 101
5, 651675, Control_c, 12, 11, 102
5, 651720, Control_c, 12, 11, 103
5, 651765, Control_c, 12, 11, 104
5, 651810, Control_c, 12, 11, 105
5, 651855, Control_c, 12, 11, 106
5, 651900, Control_c, 12, 11, 107
5, 651945, Control_c, 12, 11, 108
5, 651990, Control_c, 12, 11, 109
5, 652035, Control_c, 12, 11, 110
5, 652080, Control_c, 12, 11, 111
5, 652125, Control_c, 12, 11, 112
5, 652170, Control_c, 12, 11, 113
5, 652215, Control_c, 12, 11, 114
5, 652260, Control_c, 12, 11, 115
5, 652305, Control_c, 12, 11, 116
5, 652350, Control_c, 12, 11, 117
5, 652395, Control_c, 12, 11, 118
5, 652440, Control_c, 12, 11, 119
5, 652485, Control_c, 12, 11, 120
5, 652530, Control_c, 12, 11, 121
5, 652575, Control_c, 12, 11, 122
5, 652620, Control_c, 12, 11, 123
5, 652665, Control_c, 12, 11, 124
5, 652710, Control_c, 12, 11, 125
5, 652755, Control_c, 12, 11, 126
5, 652800, Control_c, 12, 11, 127
5, 652800, Note_off_c, 12, 62, 95
5, 652800, End_track
6, 0, Start_track
6, 0, Pitch_bend_c, 2, 8192
6, 0, Control_c, 2, 7, 103
6, 0, Control_c, 2, 10, 127
6, 0, Control_c, 2, 93, 0
6, 0, Control_c, 2, 91, 0
6, 0, Control_c, 2, 95, 0
6, 0, Control_c, 2, 92, 0
6, 0, Control_c, 2, 11, 127
6, 0, Program_c, 2, 117
6, 0, Control_c, 3, 7, 103
6, 0, Control_c, 3, 10, 127
6, 0, Control_c, 3, 93, 0
6, 0, Control_c, 3, 91, 0
6, 0, Control_c, 3, 95, 0
6, 0, Control_c, 3, 92, 0
6, 0, Control_c, 3, 11, 127
6, 0, Program_c, 3, 117
6, 0, Note_on_c, 2, 50, 79
6, 480, Note_off_c, 2, 50, 79
6, 480, Note_on_c, 2, 50, 79
6, 960, Note_off_c, 2, 50, 79
6, 960, Note_on_c, 2, 50, 79
6, 1440, Note_off_c, 2, 50, 79
6, 1440, Note_on_c, 2, 50, 111
6, 1920, Note_off_c, 2, 50, 111
6, 1920, Note_on_c, 2, 50, 95
6, 2400, Note_off_c, 2, 50, 95
6, 2400, Note_on_c, 2, 50, 79
6, 2880, Note_off_c, 2, 50, 79
6, 2880, Note_on_c, 2, 50, 111
6, 3360, Note_off_c, 2, 50, 111
6, 3360, Note_on_c, 2, 50, 95
6, 3840, Note_off_c, 2, 50, 95
6, 3840, Note_on_c, 2, 50, 79
6, 4320, Note_off_c, 2, 50, 79
6, 4320, Note_on_c, 2, 50, 79
6, 4800, Note_off_c, 2, 50, 79
6, 4800, Note_on_c, 2, 50, 79
6, 5280, Note_off_c, 2, 50, 79
6, 5280, Note_on_c, 2, 50, 111
6, 5760, Note_off_c, 2, 50, 111
6, 5760, Note_on_c, 2, 50, 95
6, 6240, Note_off_c, 2, 50, 95
6, 6240, Note_on_c, 2, 50, 79
6, 6720, Note_off_c, 2, 50, 79
6, 6720, Note_on_c, 2, 50, 111
6, 7200, Note_off_c, 2, 50, 111
6, 7200, Note_on_c, 2, 50, 95
6, 7680, Note_off_c, 2, 50, 95
6, 7680, Note_on_c, 2, 50, 79
6, 8160, Note_off_c, 2, 50, 79
6, 8160, Note_on_c, 2, 50, 79
6, 8640, Note_off_c, 2, 50, 79
6, 8640, Note_on_c, 2, 50, 79
6, 9120, Note_off_c, 2, 50, 79
6, 9120, Note_on_c, 2, 50, 111
6, 9600, Note_off_c, 2, 50, 111
6, 9600, Note_on_c, 2, 50, 95
6, 10080, Note_off_c, 2, 50, 95
6, 10080, Note_on_c, 2, 50, 79
6, 10560, Note_off_c, 2, 50, 79
6, 10560, Note_on_c, 2, 50, 111
6, 11040, Note_off_c, 2, 50, 111
6, 11040, Note_on_c, 2, 50, 95
6, 11520, Note_off_c, 2, 50, 95
6, 11520, Note_on_c, 2, 50, 79
6, 12000, Note_off_c, 2, 50, 79
6, 12000, Note_on_c, 2, 50, 79
6, 12480, Note_off_c, 2, 50, 79
6, 12480, Note_on_c, 2, 50, 79
6, 12960, Note_off_c, 2, 50, 79
6, 12960, Note_on_c, 2, 50, 111
6, 13440, Note_off_c, 2, 50, 111
6, 13440, Note_on_c, 2, 50, 95
6, 13920, Note_off_c, 2, 50, 95
6, 13920, Note_on_c, 2, 50, 79
6, 14400, Note_off_c, 2, 50, 79
6, 14400, Note_on_c, 2, 50, 111
6, 14880, Note_off_c, 2, 50, 111
6, 14880, Note_on_c, 2, 50, 95
6, 15360, Note_off_c, 2, 50, 95
6, 15360, Note_on_c, 2, 50, 79
6, 15840, Note_off_c, 2, 50, 79
6, 15840, Note_on_c, 2, 50, 79
6, 16320, Note_off_c, 2, 50, 79
6, 16320, Note_on_c, 2, 50, 79
6, 16800, Note_off_c, 2, 50, 79
6, 16800, Note_on_c, 2, 50, 111
6, 17280, Note_off_c, 2, 50, 111
6, 17280, Note_on_c, 2, 50, 95
6, 17760, Note_off_c, 2, 50, 95
6, 17760, Note_on_c, 2, 50, 79
6, 18240, Note_off_c, 2, 50, 79
6, 18240, Note_on_c, 2, 50, 111
6, 18720, Note_off_c, 2, 50, 111
6, 18720, Note_on_c, 2, 50, 95
6, 19200, Note_off_c, 2, 50, 95
6, 19200, Note_on_c, 2, 50, 79
6, 19680, Note_off_c, 2, 50, 79
6, 19680, Note_on_c, 2, 50, 79
6, 20160, Note_off_c, 2, 50, 79
6, 20160, Note_on_c, 2, 50, 79
6, 20640, Note_off_c, 2, 50, 79
6, 20640, Note_on_c, 2, 50, 111
6, 21120, Note_off_c, 2, 50, 111
6, 21120, Note_on_c, 2, 50, 95
6, 21600, Note_off_c, 2, 50, 95
6, 21600, Note_on_c, 2, 50, 79
6, 22080, Note_off_c, 2, 50, 79
6, 22080, Note_on_c, 2, 50, 111
6, 22560, Note_off_c, 2, 50, 111
6, 22560, Note_on_c, 2, 50, 95
6, 23040, Note_off_c, 2, 50, 95
6, 23040, Note_on_c, 2, 50, 79
6, 23520, Note_off_c, 2, 50, 79
6, 23520, Note_on_c, 2, 50, 79
6, 24000, Note_off_c, 2, 50, 79
6, 24000, Note_on_c, 2, 50, 79
6, 24480, Note_off_c, 2, 50, 79
6, 24480, Note_on_c, 2, 50, 111
6, 24960, Note_off_c, 2, 50, 111
6, 24960, Note_on_c, 2, 50, 95
6, 25440, Note_off_c, 2, 50, 95
6, 25440, Note_on_c, 2, 50, 79
6, 25920, Note_off_c, 2, 50, 79
6, 25920, Note_on_c, 2, 50, 111
6, 26400, Note_off_c, 2, 50, 111
6, 26400, Note_on_c, 2, 50, 95
6, 26880, Note_off_c, 2, 50, 95
6, 26880, Note_on_c, 2, 50, 79
6, 27360, Note_off_c, 2, 50, 79
6, 27360, Note_on_c, 2, 50, 79
6, 27840, Note_off_c, 2, 50, 79
6, 27840, Note_on_c, 2, 50, 79
6, 28320, Note_off_c, 2, 50, 79
6, 28320, Note_on_c, 2, 50, 111
6, 28800, Note_off_c, 2, 50, 111
6, 28800, Note_on_c, 2, 50, 95
6, 29280, Note_off_c, 2, 50, 95
6, 29280, Note_on_c, 2, 50, 79
6, 29760, Note_off_c, 2, 50, 79
6, 29760, Note_on_c, 2, 50, 111
6, 30240, Note_off_c, 2, 50, 111
6, 30240, Note_on_c, 2, 50, 95
6, 30720, Note_off_c, 2, 50, 95
6, 30720, Note_on_c, 2, 50, 79
6, 31200, Note_off_c, 2, 50, 79
6, 31200, Note_on_c, 2, 50, 79
6, 31680, Note_off_c, 2, 50, 79
6, 31680, Note_on_c, 2, 50, 79
6, 32160, Note_off_c, 2, 50, 79
6, 32160, Note_on_c, 2, 50, 111
6, 32640, Note_off_c, 2, 50, 111
6, 32640, Note_on_c, 2, 50, 95
6, 33120, Note_off_c, 2, 50, 95
6, 33120, Note_on_c, 2, 50, 79
6, 33600, Note_off_c, 2, 50, 79
6, 33600, Note_on_c, 2, 50, 111
6, 34080, Note_off_c, 2, 50, 111
6, 34080, Note_on_c, 2, 50, 95
6, 34560, Note_off_c, 2, 50, 95
6, 34560, Note_on_c, 2, 50, 79
6, 35040, Note_off_c, 2, 50, 79
6, 35040, Note_on_c, 2, 50, 79
6, 35520, Note_off_c, 2, 50, 79
6, 35520, Note_on_c, 2, 50, 79
6, 36000, Note_off_c, 2, 50, 79
6, 36000, Note_on_c, 2, 50, 111
6, 36480, Note_off_c, 2, 50, 111
6, 36480, Note_on_c, 2, 50, 95
6, 36960, Note_off_c, 2, 50, 95
6, 36960, Note_on_c, 2, 50, 79
6, 37440, Note_off_c, 2, 50, 79
6, 37440, Note_on_c, 2, 50, 111
6, 37920, Note_off_c, 2, 50, 111
6, 37920, Note_on_c, 2, 50, 95
6, 38400, Note_off_c, 2, 50, 95
6, 38400, Note_on_c, 2, 50, 79
6, 38880, Note_off_c, 2, 50, 79
6, 38880, Note_on_c, 2, 50, 79
6, 39360, Note_off_c, 2, 50, 79
6, 39360, Note_on_c, 2, 50, 79
6, 39840, Note_off_c, 2, 50, 79
6, 39840, Note_on_c, 2, 50, 111
6, 40320, Note_off_c, 2, 50, 111
6, 40320, Note_on_c, 2, 50, 95
6, 40800, Note_off_c, 2, 50, 95
6, 40800, Note_on_c, 2, 50, 79
6, 41280, Note_off_c, 2, 50, 79
6, 41280, Note_on_c, 2, 50, 111
6, 41760, Note_off_c, 2, 50, 111
6, 41760, Note_on_c, 2, 50, 95
6, 42240, Note_off_c, 2, 50, 95
6, 42240, Note_on_c, 2, 50, 79
6, 42720, Note_off_c, 2, 50, 79
6, 42720, Note_on_c, 2, 50, 79
6, 43200, Note_off_c, 2, 50, 79
6, 43200, Note_on_c, 2, 50, 79
6, 43680, Note_off_c, 2, 50, 79
6, 43680, Note_on_c, 2, 50, 111
6, 44160, Note_off_c, 2, 50, 111
6, 44160, Note_on_c, 2, 50, 95
6, 44640, Note_off_c, 2, 50, 95
6, 44640, Note_on_c, 2, 50, 79
6, 45120, Note_off_c, 2, 50, 79
6, 45120, Note_on_c, 2, 50, 111
6, 45600, Note_off_c, 2, 50, 111
6, 45600, Note_on_c, 2, 50, 95
6, 46080, Note_off_c, 2, 50, 95
6, 46080, Note_on_c, 2, 50, 79
6, 46560, Note_off_c, 2, 50, 79
6, 46560, Note_on_c, 2, 50, 79
6, 47040, Note_off_c, 2, 50, 79
6, 47040, Note_on_c, 2, 50, 79
6, 47520, Note_off_c, 2, 50, 79
6, 47520, Note_on_c, 2, 50, 111
6, 48000, Note_off_c, 2, 50, 111
6, 48000, Note_on_c, 2, 50, 95
6, 48480, Note_off_c, 2, 50, 95
6, 48480, Note_on_c, 2, 50, 79
6, 48960, Note_off_c, 2, 50, 79
6, 48960, Note_on_c, 2, 50, 111
6, 49440, Note_off_c, 2, 50, 111
6, 49440, Note_on_c, 2, 50, 95
6, 49920, Note_off_c, 2, 50, 95
6, 49920, Note_on_c, 2, 50, 79
6, 50400, Note_off_c, 2, 50, 79
6, 50400, Note_on_c, 2, 50, 79
6, 50880, Note_off_c, 2, 50, 79
6, 50880, Note_on_c, 2, 50, 79
6, 51360, Note_off_c, 2, 50, 79
6, 51360, Note_on_c, 2, 50, 111
6, 51840, Note_off_c, 2, 50, 111
6, 51840, Note_on_c, 2, 50, 95
6, 52320, Note_off_c, 2, 50, 95
6, 52320, Note_on_c, 2, 50, 79
6, 52800, Note_off_c, 2, 50, 79
6, 52800, Note_on_c, 2, 50, 111
6, 53280, Note_off_c, 2, 50, 111
6, 53280, Note_on_c, 2, 50, 95
6, 53760, Note_off_c, 2, 50, 95
6, 53760, Note_on_c, 2, 50, 79
6, 54240, Note_off_c, 2, 50, 79
6, 54240, Note_on_c, 2, 50, 79
6, 54720, Note_off_c, 2, 50, 79
6, 54720, Note_on_c, 2, 50, 79
6, 55200, Note_off_c, 2, 50, 79
6, 55200, Note_on_c, 2, 50, 111
6, 55680, Note_off_c, 2, 50, 111
6, 55680, Note_on_c, 2, 50, 95
6, 56160, Note_off_c, 2, 50, 95
6, 56160, Note_on_c, 2, 50, 79
6, 56640, Note_off_c, 2, 50, 79
6, 56640, Note_on_c, 2, 50, 111
6, 57120, Note_off_c, 2, 50, 111
6, 57120, Note_on_c, 2, 50, 95
6, 57600, Note_off_c, 2, 50, 95
6, 57600, Note_on_c, 2, 50, 79
6, 58080, Note_off_c, 2, 50, 79
6, 58080, Note_on_c, 2, 50, 79
6, 58560, Note_off_c, 2, 50, 79
6, 58560, Note_on_c, 2, 50, 79
6, 59040, Note_off_c, 2, 50, 79
6, 59040, Note_on_c, 2, 50, 111
6, 59520, Note_off_c, 2, 50, 111
6, 59520, Note_on_c, 2, 50, 95
6, 60000, Note_off_c, 2, 50, 95
6, 60000, Note_on_c, 2, 50, 79
6, 60480, Note_off_c, 2, 50, 79
6, 60480, Note_on_c, 2, 50, 111
6, 60960, Note_off_c, 2, 50, 111
6, 60960, Note_on_c, 2, 50, 95
6, 61440, Note_off_c, 2, 50, 95
6, 61440, Note_on_c, 2, 50, 79
6, 61920, Note_off_c, 2, 50, 79
6, 61920, Note_on_c, 2, 50, 79
6, 62400, Note_off_c, 2, 50, 79
6, 62400, Note_on_c, 2, 50, 79
6, 62880, Note_off_c, 2, 50, 79
6, 62880, Note_on_c, 2, 50, 111
6, 63360, Note_off_c, 2, 50, 111
6, 63360, Note_on_c, 2, 50, 95
6, 63840, Note_off_c, 2, 50, 95
6, 63840, Note_on_c, 2, 50, 79
6, 64320, Note_off_c, 2, 50, 79
6, 64320, Note_on_c, 2, 50, 111
6, 64800, Note_off_c, 2, 50, 111
6, 64800, Note_on_c, 2, 50, 95
6, 65280, Note_off_c, 2, 50, 95
6, 65280, Note_on_c, 2, 50, 79
6, 65760, Note_off_c, 2, 50, 79
6, 65760, Note_on_c, 2, 50, 79
6, 66240, Note_off_c, 2, 50, 79
6, 66240, Note_on_c, 2, 50, 79
6, 66720, Note_off_c, 2, 50, 79
6, 66720, Note_on_c, 2, 50, 111
6, 67200, Note_off_c, 2, 50, 111
6, 67200, Note_on_c, 2, 50, 95
6, 67680, Note_off_c, 2, 50, 95
6, 67680, Note_on_c, 2, 50, 79
6, 68160, Note_off_c, 2, 50, 79
6, 68160, Note_on_c, 2, 50, 111
6, 68640, Note_off_c, 2, 50, 111
6, 68640, Note_on_c, 2, 50, 95
6, 69120, Note_off_c, 2, 50, 95
6, 69120, Note_on_c, 2, 50, 79
6, 69600, Note_off_c, 2, 50, 79
6, 69600, Note_on_c, 2, 50, 79
6, 70080, Note_off_c, 2, 50, 79
6, 70080, Note_on_c, 2, 50, 79
6, 70560, Note_off_c, 2, 50, 79
6, 70560, Note_on_c, 2, 50, 111
6, 71040, Note_off_c, 2, 50, 111
6, 71040, Note_on_c, 2, 50, 95
6, 71520, Note_off_c, 2, 50, 95
6, 71520, Note_on_c, 2, 50, 79
6, 72000, Note_off_c, 2, 50, 79
6, 72000, Note_on_c, 2, 50, 111
6, 72480, Note_off_c, 2, 50, 111
6, 72480, Note_on_c, 2, 50, 95
6, 72960, Note_off_c, 2, 50, 95
6, 72960, Note_on_c, 2, 50, 79
6, 73440, Note_off_c, 2, 50, 79
6, 73440, Note_on_c, 2, 50, 79
6, 73920, Note_off_c, 2, 50, 79
6, 73920, Note_on_c, 2, 50, 79
6, 74400, Note_off_c, 2, 50, 79
6, 74400, Note_on_c, 2, 50, 111
6, 74880, Note_off_c, 2, 50, 111
6, 74880, Note_on_c, 2, 50, 95
6, 75360, Note_off_c, 2, 50, 95
6, 75360, Note_on_c, 2, 50, 79
6, 75840, Note_off_c, 2, 50, 79
6, 75840, Note_on_c, 2, 50, 111
6, 76320, Note_off_c, 2, 50, 111
6, 76320, Note_on_c, 2, 50, 95
6, 76800, Note_off_c, 2, 50, 95
6, 76800, Note_on_c, 2, 50, 79
6, 77280, Note_off_c, 2, 50, 79
6, 77280, Note_on_c, 2, 50, 79
6, 77760, Note_off_c, 2, 50, 79
6, 77760, Note_on_c, 2, 50, 79
6, 78240, Note_off_c, 2, 50, 79
6, 78240, Note_on_c, 2, 50, 111
6, 78720, Note_off_c, 2, 50, 111
6, 78720, Note_on_c, 2, 50, 95
6, 79200, Note_off_c, 2, 50, 95
6, 79200, Note_on_c, 2, 50, 79
6, 79680, Note_off_c, 2, 50, 79
6, 79680, Note_on_c, 2, 50, 111
6, 80160, Note_off_c, 2, 50, 111
6, 80160, Note_on_c, 2, 50, 95
6, 80640, Note_off_c, 2, 50, 95
6, 80640, Note_on_c, 2, 50, 79
6, 81120, Note_off_c, 2, 50, 79
6, 81120, Note_on_c, 2, 50, 79
6, 81600, Note_off_c, 2, 50, 79
6, 81600, Note_on_c, 2, 50, 79
6, 82080, Note_off_c, 2, 50, 79
6, 82080, Note_on_c, 2, 50, 111
6, 82560, Note_off_c, 2, 50, 111
6, 82560, Note_on_c, 2, 50, 95
6, 83040, Note_off_c, 2, 50, 95
6, 83040, Note_on_c, 2, 50, 79
6, 83520, Note_off_c, 2, 50, 79
6, 83520, Note_on_c, 2, 50, 111
6, 84000, Note_off_c, 2, 50, 111
6, 84000, Note_on_c, 2, 50, 95
6, 84480, Note_off_c, 2, 50, 95
6, 84480, Note_on_c, 2, 50, 79
6, 84960, Note_off_c, 2, 50, 79
6, 84960, Note_on_c, 2, 50, 79
6, 85440, Note_off_c, 2, 50, 79
6, 85440, Note_on_c, 2, 50, 79
6, 85920, Note_off_c, 2, 50, 79
6, 85920, Note_on_c, 2, 50, 111
6, 86400, Note_off_c, 2, 50, 111
6, 86400, Note_on_c, 2, 50, 95
6, 86880, Note_off_c, 2, 50, 95
6, 86880, Note_on_c, 2, 50, 79
6, 87360, Note_off_c, 2, 50, 79
6, 87360, Note_on_c, 2, 50, 111
6, 87840, Note_off_c, 2, 50, 111
6, 87840, Note_on_c, 2, 50, 95
6, 88320, Note_off_c, 2, 50, 95
6, 88320, Note_on_c, 2, 50, 79
6, 88800, Note_off_c, 2, 50, 79
6, 88800, Note_on_c, 2, 50, 79
6, 89280, Note_off_c, 2, 50, 79
6, 89280, Note_on_c, 2, 50, 79
6, 89760, Note_off_c, 2, 50, 79
6, 89760, Note_on_c, 2, 50, 111
6, 90240, Note_off_c, 2, 50, 111
6, 90240, Note_on_c, 2, 50, 95
6, 90720, Note_off_c, 2, 50, 95
6, 90720, Note_on_c, 2, 50, 79
6, 91200, Note_off_c, 2, 50, 79
6, 91200, Note_on_c, 2, 50, 111
6, 91680, Note_off_c, 2, 50, 111
6, 91680, Note_on_c, 2, 50, 95
6, 92160, Note_off_c, 2, 50, 95
6, 92160, Note_on_c, 2, 50, 79
6, 92640, Note_off_c, 2, 50, 79
6, 92640, Note_on_c, 2, 50, 79
6, 93120, Note_off_c, 2, 50, 79
6, 93120, Note_on_c, 2, 50, 79
6, 93600, Note_off_c, 2, 50, 79
6, 93600, Note_on_c, 2, 50, 111
6, 94080, Note_off_c, 2, 50, 111
6, 94080, Note_on_c, 2, 50, 95
6, 94560, Note_off_c, 2, 50, 95
6, 94560, Note_on_c, 2, 50, 79
6, 95040, Note_off_c, 2, 50, 79
6, 95040, Note_on_c, 2, 50, 111
6, 95520, Note_off_c, 2, 50, 111
6, 95520, Note_on_c, 2, 50, 95
6, 96000, Note_off_c, 2, 50, 95
6, 96000, Note_on_c, 2, 50, 79
6, 96480, Note_off_c, 2, 50, 79
6, 96480, Note_on_c, 2, 50, 79
6, 96960, Note_off_c, 2, 50, 79
6, 96960, Note_on_c, 2, 50, 79
6, 97440, Note_off_c, 2, 50, 79
6, 97440, Note_on_c, 2, 50, 111
6, 97920, Note_off_c, 2, 50, 111
6, 97920, Note_on_c, 2, 50, 95
6, 98400, Note_off_c, 2, 50, 95
6, 98400, Note_on_c, 2, 50, 79
6, 98880, Note_off_c, 2, 50, 79
6, 98880, Note_on_c, 2, 50, 111
6, 99360, Note_off_c, 2, 50, 111
6, 99360, Note_on_c, 2, 50, 95
6, 99840, Note_off_c, 2, 50, 95
6, 99840, Note_on_c, 2, 50, 79
6, 100320, Note_off_c, 2, 50, 79
6, 100320, Note_on_c, 2, 50, 79
6, 100800, Note_off_c, 2, 50, 79
6, 100800, Note_on_c, 2, 50, 79
6, 101280, Note_off_c, 2, 50, 79
6, 101280, Note_on_c, 2, 50, 111
6, 101760, Note_off_c, 2, 50, 111
6, 101760, Note_on_c, 2, 50, 95
6, 102240, Note_off_c, 2, 50, 95
6, 102240, Note_on_c, 2, 50, 79
6, 102720, Note_off_c, 2, 50, 79
6, 102720, Note_on_c, 2, 50, 111
6, 103200, Note_off_c, 2, 50, 111
6, 103200, Note_on_c, 2, 50, 95
6, 103680, Note_off_c, 2, 50, 95
6, 103680, Note_on_c, 2, 50, 79
6, 104160, Note_off_c, 2, 50, 79
6, 104160, Note_on_c, 2, 50, 79
6, 104640, Note_off_c, 2, 50, 79
6, 104640, Note_on_c, 2, 50, 79
6, 105120, Note_off_c, 2, 50, 79
6, 105120, Note_on_c, 2, 50, 111
6, 105600, Note_off_c, 2, 50, 111
6, 105600, Note_on_c, 2, 50, 95
6, 106080, Note_off_c, 2, 50, 95
6, 106080, Note_on_c, 2, 50, 79
6, 106560, Note_off_c, 2, 50, 79
6, 106560, Note_on_c, 2, 50, 111
6, 107040, Note_off_c, 2, 50, 111
6, 107040, Note_on_c, 2, 50, 95
6, 107520, Note_off_c, 2, 50, 95
6, 107520, Note_on_c, 2, 50, 79
6, 108000, Note_off_c, 2, 50, 79
6, 108000, Note_on_c, 2, 50, 79
6, 108480, Note_off_c, 2, 50, 79
6, 108480, Note_on_c, 2, 50, 79
6, 108960, Note_off_c, 2, 50, 79
6, 108960, Note_on_c, 2, 50, 111
6, 109440, Note_off_c, 2, 50, 111
6, 109440, Note_on_c, 2, 50, 95
6, 109920, Note_off_c, 2, 50, 95
6, 109920, Note_on_c, 2, 50, 79
6, 110400, Note_off_c, 2, 50, 79
6, 110400, Note_on_c, 2, 50, 111
6, 110880, Note_off_c, 2, 50, 111
6, 110880, Note_on_c, 2, 50, 95
6, 111360, Note_off_c, 2, 50, 95
6, 111360, Note_on_c, 2, 50, 79
6, 111840, Note_off_c, 2, 50, 79
6, 111840, Note_on_c, 2, 50, 79
6, 112320, Note_off_c, 2, 50, 79
6, 112320, Note_on_c, 2, 50, 79
6, 112800, Note_off_c, 2, 50, 79
6, 112800, Note_on_c, 2, 50, 111
6, 113280, Note_off_c, 2, 50, 111
6, 113280, Note_on_c, 2, 50, 95
6, 113760, Note_off_c, 2, 50, 95
6, 113760, Note_on_c, 2, 50, 79
6, 114240, Note_off_c, 2, 50, 79
6, 114240, Note_on_c, 2, 50, 111
6, 114720, Note_off_c, 2, 50, 111
6, 114720, Note_on_c, 2, 50, 95
6, 115200, Note_off_c, 2, 50, 95
6, 115200, Note_on_c, 2, 50, 79
6, 115680, Note_off_c, 2, 50, 79
6, 115680, Note_on_c, 2, 50, 79
6, 116160, Note_off_c, 2, 50, 79
6, 116160, Note_on_c, 2, 50, 79
6, 116640, Note_off_c, 2, 50, 79
6, 116640, Note_on_c, 2, 50, 111
6, 117120, Note_off_c, 2, 50, 111
6, 117120, Note_on_c, 2, 50, 95
6, 117600, Note_off_c, 2, 50, 95
6, 117600, Note_on_c, 2, 50, 79
6, 118080, Note_off_c, 2, 50, 79
6, 118080, Note_on_c, 2, 50, 111
6, 118560, Note_off_c, 2, 50, 111
6, 118560, Note_on_c, 2, 50, 95
6, 119040, Note_off_c, 2, 50, 95
6, 119040, Note_on_c, 2, 50, 79
6, 119520, Note_off_c, 2, 50, 79
6, 119520, Note_on_c, 2, 50, 79
6, 120000, Note_off_c, 2, 50, 79
6, 120000, Note_on_c, 2, 50, 79
6, 120480, Note_off_c, 2, 50, 79
6, 120480, Note_on_c, 2, 50, 111
6, 120960, Note_off_c, 2, 50, 111
6, 120960, Note_on_c, 2, 50, 95
6, 121440, Note_off_c, 2, 50, 95
6, 121440, Note_on_c, 2, 50, 79
6, 121920, Note_off_c, 2, 50, 79
6, 121920, Note_on_c, 2, 50, 111
6, 122400, Note_off_c, 2, 50, 111
6, 122400, Note_on_c, 2, 50, 95
6, 122880, Note_off_c, 2, 50, 95
6, 122880, Note_on_c, 2, 50, 79
6, 123360, Note_off_c, 2, 50, 79
6, 123360, Note_on_c, 2, 50, 79
6, 123840, Note_off_c, 2, 50, 79
6, 123840, Note_on_c, 2, 50, 79
6, 124320, Note_off_c, 2, 50, 79
6, 124320, Note_on_c, 2, 50, 111
6, 124800, Note_off_c, 2, 50, 111
6, 124800, Note_on_c, 2, 50, 95
6, 125280, Note_off_c, 2, 50, 95
6, 125280, Note_on_c, 2, 50, 79
6, 125760, Note_off_c, 2, 50, 79
6, 125760, Note_on_c, 2, 50, 111
6, 126240, Note_off_c, 2, 50, 111
6, 126240, Note_on_c, 2, 50, 95
6, 126720, Note_off_c, 2, 50, 95
6, 126720, Note_on_c, 2, 50, 79
6, 127200, Note_off_c, 2, 50, 79
6, 127200, Note_on_c, 2, 50, 79
6, 127680, Note_off_c, 2, 50, 79
6, 127680, Note_on_c, 2, 50, 79
6, 128160, Note_off_c, 2, 50, 79
6, 128160, Note_on_c, 2, 50, 111
6, 128640, Note_off_c, 2, 50, 111
6, 128640, Note_on_c, 2, 50, 95
6, 129120, Note_off_c, 2, 50, 95
6, 129120, Note_on_c, 2, 50, 79
6, 129600, Note_off_c, 2, 50, 79
6, 129600, Note_on_c, 2, 50, 111
6, 130080, Note_off_c, 2, 50, 111
6, 130080, Note_on_c, 2, 50, 95
6, 130560, Note_off_c, 2, 50, 95
6, 130560, Note_on_c, 2, 50, 79
6, 131040, Note_off_c, 2, 50, 79
6, 131040, Note_on_c, 2, 50, 79
6, 131520, Note_off_c, 2, 50, 79
6, 131520, Note_on_c, 2, 50, 79
6, 132000, Note_off_c, 2, 50, 79
6, 132000, Note_on_c, 2, 50, 111
6, 132480, Note_off_c, 2, 50, 111
6, 132480, Note_on_c, 2, 50, 95
6, 132960, Note_off_c, 2, 50, 95
6, 132960, Note_on_c, 2, 50, 79
6, 133440, Note_off_c, 2, 50, 79
6, 133440, Note_on_c, 2, 50, 111
6, 133920, Note_off_c, 2, 50, 111
6, 133920, Note_on_c, 2, 50, 95
6, 134400, Note_off_c, 2, 50, 95
6, 134400, Note_on_c, 2, 50, 79
6, 134880, Note_off_c, 2, 50, 79
6, 134880, Note_on_c, 2, 50, 79
6, 135360, Note_off_c, 2, 50, 79
6, 135360, Note_on_c, 2, 50, 79
6, 135840, Note_off_c, 2, 50, 79
6, 135840, Note_on_c, 2, 50, 111
6, 136320, Note_off_c, 2, 50, 111
6, 136320, Note_on_c, 2, 50, 95
6, 136800, Note_off_c, 2, 50, 95
6, 136800, Note_on_c, 2, 50, 79
6, 137280, Note_off_c, 2, 50, 79
6, 137280, Note_on_c, 2, 50, 111
6, 137760, Note_off_c, 2, 50, 111
6, 137760, Note_on_c, 2, 50, 95
6, 138240, Note_off_c, 2, 50, 95
6, 138240, Note_on_c, 2, 50, 79
6, 138720, Note_off_c, 2, 50, 79
6, 138720, Note_on_c, 2, 50, 79
6, 139200, Note_off_c, 2, 50, 79
6, 139200, Note_on_c, 2, 50, 79
6, 139680, Note_off_c, 2, 50, 79
6, 139680, Note_on_c, 2, 50, 111
6, 140160, Note_off_c, 2, 50, 111
6, 140160, Note_on_c, 2, 50, 95
6, 140640, Note_off_c, 2, 50, 95
6, 140640, Note_on_c, 2, 50, 79
6, 141120, Note_off_c, 2, 50, 79
6, 141120, Note_on_c, 2, 50, 111
6, 141600, Note_off_c, 2, 50, 111
6, 141600, Note_on_c, 2, 50, 95
6, 142080, Note_off_c, 2, 50, 95
6, 142080, Note_on_c, 2, 50, 79
6, 142560, Note_off_c, 2, 50, 79
6, 142560, Note_on_c, 2, 50, 79
6, 143040, Note_off_c, 2, 50, 79
6, 143040, Note_on_c, 2, 50, 79
6, 143520, Note_off_c, 2, 50, 79
6, 143520, Note_on_c, 2, 50, 111
6, 144000, Note_off_c, 2, 50, 111
6, 144000, Note_on_c, 2, 50, 95
6, 144480, Note_off_c, 2, 50, 95
6, 144480, Note_on_c, 2, 50, 79
6, 144960, Note_off_c, 2, 50, 79
6, 144960, Note_on_c, 2, 50, 111
6, 145440, Note_off_c, 2, 50, 111
6, 145440, Note_on_c, 2, 50, 95
6, 145920, Note_off_c, 2, 50, 95
6, 145920, Note_on_c, 2, 50, 79
6, 146400, Note_off_c, 2, 50, 79
6, 146400, Note_on_c, 2, 50, 79
6, 146880, Note_off_c, 2, 50, 79
6, 146880, Note_on_c, 2, 50, 79
6, 147360, Note_off_c, 2, 50, 79
6, 147360, Note_on_c, 2, 50, 111
6, 147840, Note_off_c, 2, 50, 111
6, 147840, Note_on_c, 2, 50, 95
6, 148320, Note_off_c, 2, 50, 95
6, 148320, Note_on_c, 2, 50, 79
6, 148800, Note_off_c, 2, 50, 79
6, 148800, Note_on_c, 2, 50, 111
6, 149280, Note_off_c, 2, 50, 111
6, 149280, Note_on_c, 2, 50, 95
6, 149760, Note_off_c, 2, 50, 95
6, 149760, Note_on_c, 2, 50, 79
6, 150240, Note_off_c, 2, 50, 79
6, 150240, Note_on_c, 2, 50, 79
6, 150720, Note_off_c, 2, 50, 79
6, 150720, Note_on_c, 2, 50, 79
6, 151200, Note_off_c, 2, 50, 79
6, 151200, Note_on_c, 2, 50, 111
6, 151680, Note_off_c, 2, 50, 111
6, 151680, Note_on_c, 2, 50, 95
6, 152160, Note_off_c, 2, 50, 95
6, 152160, Note_on_c, 2, 50, 79
6, 152640, Note_off_c, 2, 50, 79
6, 152640, Note_on_c, 2, 50, 111
6, 153120, Note_off_c, 2, 50, 111
6, 153120, Note_on_c, 2, 50, 95
6, 153600, Note_off_c, 2, 50, 95
6, 153600, Note_on_c, 2, 50, 79
6, 154080, Note_off_c, 2, 50, 79
6, 154080, Note_on_c, 2, 50, 79
6, 154560, Note_off_c, 2, 50, 79
6, 154560, Note_on_c, 2, 50, 79
6, 155040, Note_off_c, 2, 50, 79
6, 155040, Note_on_c, 2, 50, 111
6, 155520, Note_off_c, 2, 50, 111
6, 155520, Note_on_c, 2, 50, 95
6, 156000, Note_off_c, 2, 50, 95
6, 156000, Note_on_c, 2, 50, 79
6, 156480, Note_off_c, 2, 50, 79
6, 156480, Note_on_c, 2, 50, 111
6, 156960, Note_off_c, 2, 50, 111
6, 156960, Note_on_c, 2, 50, 95
6, 157440, Note_off_c, 2, 50, 95
6, 157440, Note_on_c, 2, 50, 79
6, 157920, Note_off_c, 2, 50, 79
6, 157920, Note_on_c, 2, 50, 79
6, 158400, Note_off_c, 2, 50, 79
6, 158400, Note_on_c, 2, 50, 79
6, 158880, Note_off_c, 2, 50, 79
6, 158880, Note_on_c, 2, 50, 111
6, 159360, Note_off_c, 2, 50, 111
6, 159360, Note_on_c, 2, 50, 95
6, 159840, Note_off_c, 2, 50, 95
6, 159840, Note_on_c, 2, 50, 79
6, 160320, Note_off_c, 2, 50, 79
6, 160320, Note_on_c, 2, 50, 111
6, 160800, Note_off_c, 2, 50, 111
6, 160800, Note_on_c, 2, 50, 95
6, 161280, Note_off_c, 2, 50, 95
6, 161280, Note_on_c, 2, 50, 79
6, 161760, Note_off_c, 2, 50, 79
6, 161760, Note_on_c, 2, 50, 79
6, 162240, Note_off_c, 2, 50, 79
6, 162240, Note_on_c, 2, 50, 79
6, 162720, Note_off_c, 2, 50, 79
6, 162720, Note_on_c, 2, 50, 111
6, 163200, Note_off_c, 2, 50, 111
6, 163200, Note_on_c, 2, 50, 95
6, 163680, Note_off_c, 2, 50, 95
6, 163680, Note_on_c, 2, 50, 79
6, 164160, Note_off_c, 2, 50, 79
6, 164160, Note_on_c, 2, 50, 111
6, 164640, Note_off_c, 2, 50, 111
6, 164640, Note_on_c, 2, 50, 95
6, 165120, Note_off_c, 2, 50, 95
6, 165120, Note_on_c, 2, 50, 79
6, 165600, Note_off_c, 2, 50, 79
6, 165600, Note_on_c, 2, 50, 79
6, 166080, Note_off_c, 2, 50, 79
6, 166080, Note_on_c, 2, 50, 79
6, 166560, Note_off_c, 2, 50, 79
6, 166560, Note_on_c, 2, 50, 111
6, 167040, Note_off_c, 2, 50, 111
6, 167040, Note_on_c, 2, 50, 95
6, 167520, Note_off_c, 2, 50, 95
6, 167520, Note_on_c, 2, 50, 79
6, 168000, Note_off_c, 2, 50, 79
6, 168000, Note_on_c, 2, 50, 111
6, 168480, Note_off_c, 2, 50, 111
6, 168480, Note_on_c, 2, 50, 95
6, 168960, Note_off_c, 2, 50, 95
6, 168960, Note_on_c, 2, 50, 79
6, 169440, Note_off_c, 2, 50, 79
6, 169440, Note_on_c, 2, 50, 79
6, 169920, Note_off_c, 2, 50, 79
6, 169920, Note_on_c, 2, 50, 79
6, 170400, Note_off_c, 2, 50, 79
6, 170400, Note_on_c, 2, 50, 111
6, 170880, Note_off_c, 2, 50, 111
6, 170880, Note_on_c, 2, 50, 95
6, 171360, Note_off_c, 2, 50, 95
6, 171360, Note_on_c, 2, 50, 79
6, 171840, Note_off_c, 2, 50, 79
6, 171840, Note_on_c, 2, 50, 111
6, 172320, Note_off_c, 2, 50, 111
6, 172320, Note_on_c, 2, 50, 95
6, 172800, Note_off_c, 2, 50, 95
6, 172800, Note_on_c, 2, 50, 79
6, 173280, Note_off_c, 2, 50, 79
6, 173280, Note_on_c, 2, 50, 79
6, 173760, Note_off_c, 2, 50, 79
6, 173760, Note_on_c, 2, 50, 79
6, 174240, Note_off_c, 2, 50, 79
6, 174240, Note_on_c, 2, 50, 111
6, 174720, Note_off_c, 2, 50, 111
6, 174720, Note_on_c, 2, 50, 95
6, 175200, Note_off_c, 2, 50, 95
6, 175200, Note_on_c, 2, 50, 79
6, 175680, Note_off_c, 2, 50, 79
6, 175680, Note_on_c, 2, 50, 111
6, 176160, Note_off_c, 2, 50, 111
6, 176160, Note_on_c, 2, 50, 95
6, 176640, Note_off_c, 2, 50, 95
6, 176640, Note_on_c, 2, 50, 79
6, 177120, Note_off_c, 2, 50, 79
6, 177120, Note_on_c, 2, 50, 79
6, 177600, Note_off_c, 2, 50, 79
6, 177600, Note_on_c, 2, 50, 79
6, 178080, Note_off_c, 2, 50, 79
6, 178080, Note_on_c, 2, 50, 111
6, 178560, Note_off_c, 2, 50, 111
6, 178560, Note_on_c, 2, 50, 95
6, 179040, Note_off_c, 2, 50, 95
6, 179040, Note_on_c, 2, 50, 79
6, 179520, Note_off_c, 2, 50, 79
6, 179520, Note_on_c, 2, 50, 111
6, 180000, Note_off_c, 2, 50, 111
6, 180000, Note_on_c, 2, 50, 95
6, 180480, Note_off_c, 2, 50, 95
6, 180480, Note_on_c, 2, 50, 79
6, 180960, Note_off_c, 2, 50, 79
6, 180960, Note_on_c, 2, 50, 79
6, 181440, Note_off_c, 2, 50, 79
6, 181440, Note_on_c, 2, 50, 79
6, 181920, Note_off_c, 2, 50, 79
6, 181920, Note_on_c, 2, 50, 111
6, 182400, Note_off_c, 2, 50, 111
6, 182400, Note_on_c, 2, 50, 95
6, 182880, Note_off_c, 2, 50, 95
6, 182880, Note_on_c, 2, 50, 79
6, 183360, Note_off_c, 2, 50, 79
6, 183360, Note_on_c, 2, 50, 111
6, 183840, Note_off_c, 2, 50, 111
6, 183840, Note_on_c, 2, 50, 95
6, 184320, Note_off_c, 2, 50, 95
6, 184320, Note_on_c, 2, 50, 79
6, 184800, Note_off_c, 2, 50, 79
6, 184800, Note_on_c, 2, 50, 79
6, 185280, Note_off_c, 2, 50, 79
6, 185280, Note_on_c, 2, 50, 79
6, 185760, Note_off_c, 2, 50, 79
6, 185760, Note_on_c, 2, 50, 111
6, 186240, Note_off_c, 2, 50, 111
6, 186240, Note_on_c, 2, 50, 95
6, 186720, Note_off_c, 2, 50, 95
6, 186720, Note_on_c, 2, 50, 79
6, 187200, Note_off_c, 2, 50, 79
6, 187200, Note_on_c, 2, 50, 111
6, 187680, Note_off_c, 2, 50, 111
6, 187680, Note_on_c, 2, 50, 95
6, 188160, Note_off_c, 2, 50, 95
6, 188160, Note_on_c, 2, 50, 79
6, 188640, Note_off_c, 2, 50, 79
6, 188640, Note_on_c, 2, 50, 79
6, 189120, Note_off_c, 2, 50, 79
6, 189120, Note_on_c, 2, 50, 79
6, 189600, Note_off_c, 2, 50, 79
6, 189600, Note_on_c, 2, 50, 111
6, 190080, Note_off_c, 2, 50, 111
6, 190080, Note_on_c, 2, 50, 95
6, 190560, Note_off_c, 2, 50, 95
6, 190560, Note_on_c, 2, 50, 79
6, 191040, Note_off_c, 2, 50, 79
6, 191040, Note_on_c, 2, 50, 111
6, 191520, Note_off_c, 2, 50, 111
6, 191520, Note_on_c, 2, 50, 95
6, 192000, Note_off_c, 2, 50, 95
6, 192000, Note_on_c, 2, 50, 79
6, 192480, Note_off_c, 2, 50, 79
6, 192480, Note_on_c, 2, 50, 79
6, 192960, Note_off_c, 2, 50, 79
6, 192960, Note_on_c, 2, 50, 79
6, 193440, Note_off_c, 2, 50, 79
6, 193440, Note_on_c, 2, 50, 111
6, 193920, Note_off_c, 2, 50, 111
6, 193920, Note_on_c, 2, 50, 95
6, 194400, Note_off_c, 2, 50, 95
6, 194400, Note_on_c, 2, 50, 79
6, 194880, Note_off_c, 2, 50, 79
6, 194880, Note_on_c, 2, 50, 111
6, 195360, Note_off_c, 2, 50, 111
6, 195360, Note_on_c, 2, 50, 95
6, 195840, Note_off_c, 2, 50, 95
6, 195840, Note_on_c, 2, 50, 79
6, 196320, Note_off_c, 2, 50, 79
6, 196320, Note_on_c, 2, 50, 79
6, 196800, Note_off_c, 2, 50, 79
6, 196800, Note_on_c, 2, 50, 79
6, 197280, Note_off_c, 2, 50, 79
6, 197280, Note_on_c, 2, 50, 111
6, 197760, Note_off_c, 2, 50, 111
6, 197760, Note_on_c, 2, 50, 95
6, 198240, Note_off_c, 2, 50, 95
6, 198240, Note_on_c, 2, 50, 79
6, 198720, Note_off_c, 2, 50, 79
6, 198720, Note_on_c, 2, 50, 111
6, 199200, Note_off_c, 2, 50, 111
6, 199200, Note_on_c, 2, 50, 95
6, 199680, Note_off_c, 2, 50, 95
6, 199680, Note_on_c, 2, 50, 79
6, 200160, Note_off_c, 2, 50, 79
6, 200160, Note_on_c, 2, 50, 79
6, 200640, Note_off_c, 2, 50, 79
6, 200640, Note_on_c, 2, 50, 79
6, 201120, Note_off_c, 2, 50, 79
6, 201120, Note_on_c, 2, 50, 111
6, 201600, Note_off_c, 2, 50, 111
6, 201600, Note_on_c, 2, 50, 95
6, 202080, Note_off_c, 2, 50, 95
6, 202080, Note_on_c, 2, 50, 79
6, 202560, Note_off_c, 2, 50, 79
6, 202560, Note_on_c, 2, 50, 111
6, 203040, Note_off_c, 2, 50, 111
6, 203040, Note_on_c, 2, 50, 95
6, 203520, Note_off_c, 2, 50, 95
6, 203520, Note_on_c, 2, 50, 79
6, 204000, Note_off_c, 2, 50, 79
6, 204000, Note_on_c, 2, 50, 79
6, 204480, Note_off_c, 2, 50, 79
6, 204480, Note_on_c, 2, 50, 79
6, 204960, Note_off_c, 2, 50, 79
6, 204960, Note_on_c, 2, 50, 111
6, 205440, Note_off_c, 2, 50, 111
6, 205440, Note_on_c, 2, 50, 95
6, 205920, Note_off_c, 2, 50, 95
6, 205920, Note_on_c, 2, 50, 79
6, 206400, Note_off_c, 2, 50, 79
6, 206400, Note_on_c, 2, 50, 111
6, 206880, Note_off_c, 2, 50, 111
6, 206880, Note_on_c, 2, 50, 95
6, 207360, Note_off_c, 2, 50, 95
6, 207360, Note_on_c, 2, 50, 79
6, 207840, Note_off_c, 2, 50, 79
6, 207840, Note_on_c, 2, 50, 79
6, 208320, Note_off_c, 2, 50, 79
6, 208320, Note_on_c, 2, 50, 79
6, 208800, Note_off_c, 2, 50, 79
6, 208800, Note_on_c, 2, 50, 111
6, 209280, Note_off_c, 2, 50, 111
6, 209280, Note_on_c, 2, 50, 95
6, 209760, Note_off_c, 2, 50, 95
6, 209760, Note_on_c, 2, 50, 79
6, 210240, Note_off_c, 2, 50, 79
6, 210240, Note_on_c, 2, 50, 111
6, 210720, Note_off_c, 2, 50, 111
6, 210720, Note_on_c, 2, 50, 95
6, 211200, Note_off_c, 2, 50, 95
6, 211200, Note_on_c, 2, 50, 79
6, 211680, Note_off_c, 2, 50, 79
6, 211680, Note_on_c, 2, 50, 79
6, 212160, Note_off_c, 2, 50, 79
6, 212160, Note_on_c, 2, 50, 79
6, 212640, Note_off_c, 2, 50, 79
6, 212640, Note_on_c, 2, 50, 111
6, 213120, Note_off_c, 2, 50, 111
6, 213120, Note_on_c, 2, 50, 95
6, 213600, Note_off_c, 2, 50, 95
6, 213600, Note_on_c, 2, 50, 79
6, 214080, Note_off_c, 2, 50, 79
6, 214080, Note_on_c, 2, 50, 111
6, 214560, Note_off_c, 2, 50, 111
6, 214560, Note_on_c, 2, 50, 95
6, 215040, Note_off_c, 2, 50, 95
6, 215040, Note_on_c, 2, 50, 79
6, 215520, Note_off_c, 2, 50, 79
6, 215520, Note_on_c, 2, 50, 79
6, 216000, Note_off_c, 2, 50, 79
6, 216000, Note_on_c, 2, 50, 79
6, 216480, Note_off_c, 2, 50, 79
6, 216480, Note_on_c, 2, 50, 111
6, 216960, Note_off_c, 2, 50, 111
6, 216960, Note_on_c, 2, 50, 95
6, 217440, Note_off_c, 2, 50, 95
6, 217440, Note_on_c, 2, 50, 79
6, 217920, Note_off_c, 2, 50, 79
6, 217920, Note_on_c, 2, 50, 111
6, 218400, Note_off_c, 2, 50, 111
6, 218400, Note_on_c, 2, 50, 95
6, 218880, Note_off_c, 2, 50, 95
6, 218880, Note_on_c, 2, 50, 79
6, 219360, Note_off_c, 2, 50, 79
6, 219360, Note_on_c, 2, 50, 79
6, 219840, Note_off_c, 2, 50, 79
6, 219840, Note_on_c, 2, 50, 79
6, 220320, Note_off_c, 2, 50, 79
6, 220320, Note_on_c, 2, 50, 111
6, 220800, Note_off_c, 2, 50, 111
6, 220800, Note_on_c, 2, 50, 95
6, 221280, Note_off_c, 2, 50, 95
6, 221280, Note_on_c, 2, 50, 79
6, 221760, Note_off_c, 2, 50, 79
6, 221760, Note_on_c, 2, 50, 111
6, 222240, Note_off_c, 2, 50, 111
6, 222240, Note_on_c, 2, 50, 95
6, 222720, Note_off_c, 2, 50, 95
6, 222720, Note_on_c, 2, 50, 79
6, 223200, Note_off_c, 2, 50, 79
6, 223200, Note_on_c, 2, 50, 79
6, 223680, Note_off_c, 2, 50, 79
6, 223680, Note_on_c, 2, 50, 79
6, 224160, Note_off_c, 2, 50, 79
6, 224160, Note_on_c, 2, 50, 111
6, 224640, Note_off_c, 2, 50, 111
6, 224640, Note_on_c, 2, 50, 95
6, 225120, Note_off_c, 2, 50, 95
6, 225120, Note_on_c, 2, 50, 79
6, 225600, Note_off_c, 2, 50, 79
6, 225600, Note_on_c, 2, 50, 111
6, 226080, Note_off_c, 2, 50, 111
6, 226080, Note_on_c, 2, 50, 95
6, 226560, Note_off_c, 2, 50, 95
6, 226560, Note_on_c, 2, 50, 79
6, 227040, Note_off_c, 2, 50, 79
6, 227040, Note_on_c, 2, 50, 79
6, 227520, Note_off_c, 2, 50, 79
6, 227520, Note_on_c, 2, 50, 79
6, 228000, Note_off_c, 2, 50, 79
6, 228000, Note_on_c, 2, 50, 111
6, 228480, Note_off_c, 2, 50, 111
6, 228480, Note_on_c, 2, 50, 95
6, 228960, Note_off_c, 2, 50, 95
6, 228960, Note_on_c, 2, 50, 79
6, 229440, Note_off_c, 2, 50, 79
6, 229440, Note_on_c, 2, 50, 111
6, 229920, Note_off_c, 2, 50, 111
6, 229920, Note_on_c, 2, 50, 95
6, 230160, Note_off_c, 2, 50, 95
6, 230160, Note_on_c, 2, 50, 95
6, 230400, Note_off_c, 2, 50, 95
6, 230400, Note_on_c, 2, 50, 79
6, 230880, Note_off_c, 2, 50, 79
6, 230880, Note_on_c, 2, 50, 79
6, 231360, Note_off_c, 2, 50, 79
6, 231360, Note_on_c, 2, 50, 79
6, 231840, Note_off_c, 2, 50, 79
6, 231840, Note_on_c, 2, 50, 111
6, 232320, Note_off_c, 2, 50, 111
6, 232320, Note_on_c, 2, 50, 95
6, 232800, Note_off_c, 2, 50, 95
6, 232800, Note_on_c, 2, 50, 79
6, 233280, Note_off_c, 2, 50, 79
6, 233280, Note_on_c, 2, 50, 111
6, 233760, Note_off_c, 2, 50, 111
6, 233760, Note_on_c, 2, 50, 95
6, 234240, Note_off_c, 2, 50, 95
6, 234240, Note_on_c, 2, 50, 79
6, 234720, Note_off_c, 2, 50, 79
6, 234720, Note_on_c, 2, 50, 79
6, 235200, Note_off_c, 2, 50, 79
6, 235200, Note_on_c, 2, 50, 79
6, 235680, Note_off_c, 2, 50, 79
6, 235680, Note_on_c, 2, 50, 111
6, 236160, Note_off_c, 2, 50, 111
6, 236160, Note_on_c, 2, 50, 95
6, 236640, Note_off_c, 2, 50, 95
6, 236640, Note_on_c, 2, 50, 79
6, 237120, Note_off_c, 2, 50, 79
6, 237120, Note_on_c, 2, 50, 111
6, 237600, Note_off_c, 2, 50, 111
6, 237600, Note_on_c, 2, 50, 95
6, 238080, Note_off_c, 2, 50, 95
6, 238080, Note_on_c, 2, 50, 79
6, 238560, Note_off_c, 2, 50, 79
6, 238560, Note_on_c, 2, 50, 79
6, 239040, Note_off_c, 2, 50, 79
6, 239040, Note_on_c, 2, 50, 79
6, 239520, Note_off_c, 2, 50, 79
6, 239520, Note_on_c, 2, 50, 111
6, 240000, Note_off_c, 2, 50, 111
6, 240000, Note_on_c, 2, 50, 95
6, 240480, Note_off_c, 2, 50, 95
6, 240480, Note_on_c, 2, 50, 79
6, 240960, Note_off_c, 2, 50, 79
6, 240960, Note_on_c, 2, 50, 111
6, 241440, Note_off_c, 2, 50, 111
6, 241440, Note_on_c, 2, 50, 95
6, 241920, Note_off_c, 2, 50, 95
6, 241920, Note_on_c, 2, 50, 79
6, 242400, Note_off_c, 2, 50, 79
6, 242400, Note_on_c, 2, 50, 79
6, 242880, Note_off_c, 2, 50, 79
6, 242880, Note_on_c, 2, 50, 79
6, 243360, Note_off_c, 2, 50, 79
6, 243360, Note_on_c, 2, 50, 111
6, 243840, Note_off_c, 2, 50, 111
6, 243840, Note_on_c, 2, 50, 95
6, 244320, Note_off_c, 2, 50, 95
6, 244320, Note_on_c, 2, 50, 79
6, 244800, Note_off_c, 2, 50, 79
6, 244800, Note_on_c, 2, 50, 111
6, 245280, Note_off_c, 2, 50, 111
6, 245280, Note_on_c, 2, 50, 95
6, 245760, Note_off_c, 2, 50, 95
6, 245760, Note_on_c, 2, 50, 79
6, 246240, Note_off_c, 2, 50, 79
6, 246240, Note_on_c, 2, 50, 79
6, 246720, Note_off_c, 2, 50, 79
6, 246720, Note_on_c, 2, 50, 79
6, 247200, Note_off_c, 2, 50, 79
6, 247200, Note_on_c, 2, 50, 111
6, 247680, Note_off_c, 2, 50, 111
6, 247680, Note_on_c, 2, 50, 95
6, 248160, Note_off_c, 2, 50, 95
6, 248160, Note_on_c, 2, 50, 79
6, 248640, Note_off_c, 2, 50, 79
6, 248640, Note_on_c, 2, 50, 111
6, 249120, Note_off_c, 2, 50, 111
6, 249120, Note_on_c, 2, 50, 95
6, 249600, Note_off_c, 2, 50, 95
6, 249600, Note_on_c, 2, 50, 79
6, 250080, Note_off_c, 2, 50, 79
6, 250080, Note_on_c, 2, 50, 79
6, 250560, Note_off_c, 2, 50, 79
6, 250560, Note_on_c, 2, 50, 79
6, 251040, Note_off_c, 2, 50, 79
6, 251040, Note_on_c, 2, 50, 111
6, 251520, Note_off_c, 2, 50, 111
6, 251520, Note_on_c, 2, 50, 95
6, 252000, Note_off_c, 2, 50, 95
6, 252000, Note_on_c, 2, 50, 79
6, 252480, Note_off_c, 2, 50, 79
6, 252480, Note_on_c, 2, 50, 111
6, 252960, Note_off_c, 2, 50, 111
6, 252960, Note_on_c, 2, 50, 95
6, 253440, Note_off_c, 2, 50, 95
6, 253440, Note_on_c, 2, 50, 79
6, 253920, Note_off_c, 2, 50, 79
6, 253920, Note_on_c, 2, 50, 79
6, 254400, Note_off_c, 2, 50, 79
6, 254400, Note_on_c, 2, 50, 79
6, 254880, Note_off_c, 2, 50, 79
6, 254880, Note_on_c, 2, 50, 111
6, 255360, Note_off_c, 2, 50, 111
6, 255360, Note_on_c, 2, 50, 95
6, 255840, Note_off_c, 2, 50, 95
6, 255840, Note_on_c, 2, 50, 79
6, 256320, Note_off_c, 2, 50, 79
6, 256320, Note_on_c, 2, 50, 111
6, 256800, Note_off_c, 2, 50, 111
6, 256800, Note_on_c, 2, 50, 95
6, 257280, Note_off_c, 2, 50, 95
6, 257280, Note_on_c, 2, 50, 79
6, 257760, Note_off_c, 2, 50, 79
6, 257760, Note_on_c, 2, 50, 79
6, 258240, Note_off_c, 2, 50, 79
6, 258240, Note_on_c, 2, 50, 79
6, 258720, Note_off_c, 2, 50, 79
6, 258720, Note_on_c, 2, 50, 111
6, 259200, Note_off_c, 2, 50, 111
6, 259200, Note_on_c, 2, 50, 95
6, 259680, Note_off_c, 2, 50, 95
6, 259680, Note_on_c, 2, 50, 79
6, 260160, Note_off_c, 2, 50, 79
6, 260160, Note_on_c, 2, 50, 111
6, 260640, Note_off_c, 2, 50, 111
6, 260640, Note_on_c, 2, 50, 95
6, 261120, Note_off_c, 2, 50, 95
6, 261120, Note_on_c, 2, 50, 79
6, 261600, Note_off_c, 2, 50, 79
6, 261600, Note_on_c, 2, 50, 79
6, 262080, Note_off_c, 2, 50, 79
6, 262080, Note_on_c, 2, 50, 79
6, 262560, Note_off_c, 2, 50, 79
6, 262560, Note_on_c, 2, 50, 111
6, 263040, Note_off_c, 2, 50, 111
6, 263040, Note_on_c, 2, 50, 95
6, 263520, Note_off_c, 2, 50, 95
6, 263520, Note_on_c, 2, 50, 79
6, 264000, Note_off_c, 2, 50, 79
6, 264000, Note_on_c, 2, 50, 111
6, 264480, Note_off_c, 2, 50, 111
6, 264480, Note_on_c, 2, 50, 95
6, 264960, Note_off_c, 2, 50, 95
6, 264960, Note_on_c, 2, 50, 79
6, 265440, Note_off_c, 2, 50, 79
6, 265440, Note_on_c, 2, 50, 79
6, 265920, Note_off_c, 2, 50, 79
6, 265920, Note_on_c, 2, 50, 79
6, 266400, Note_off_c, 2, 50, 79
6, 266400, Note_on_c, 2, 50, 111
6, 266880, Note_off_c, 2, 50, 111
6, 266880, Note_on_c, 2, 50, 95
6, 267360, Note_off_c, 2, 50, 95
6, 267360, Note_on_c, 2, 50, 79
6, 267840, Note_off_c, 2, 50, 79
6, 267840, Note_on_c, 2, 50, 111
6, 268320, Note_off_c, 2, 50, 111
6, 268320, Note_on_c, 2, 50, 95
6, 268800, Note_off_c, 2, 50, 95
6, 268800, Note_on_c, 2, 50, 79
6, 269280, Note_off_c, 2, 50, 79
6, 269280, Note_on_c, 2, 50, 79
6, 269760, Note_off_c, 2, 50, 79
6, 269760, Note_on_c, 2, 50, 79
6, 270240, Note_off_c, 2, 50, 79
6, 270240, Note_on_c, 2, 50, 111
6, 270720, Note_off_c, 2, 50, 111
6, 270720, Note_on_c, 2, 50, 95
6, 271200, Note_off_c, 2, 50, 95
6, 271200, Note_on_c, 2, 50, 79
6, 271680, Note_off_c, 2, 50, 79
6, 271680, Note_on_c, 2, 50, 111
6, 272160, Note_off_c, 2, 50, 111
6, 272160, Note_on_c, 2, 50, 95
6, 272640, Note_off_c, 2, 50, 95
6, 272640, Note_on_c, 2, 50, 79
6, 273120, Note_off_c, 2, 50, 79
6, 273120, Note_on_c, 2, 50, 79
6, 273600, Note_off_c, 2, 50, 79
6, 273600, Note_on_c, 2, 50, 79
6, 274080, Note_off_c, 2, 50, 79
6, 274080, Note_on_c, 2, 50, 111
6, 274560, Note_off_c, 2, 50, 111
6, 274560, Note_on_c, 2, 50, 95
6, 275040, Note_off_c, 2, 50, 95
6, 275040, Note_on_c, 2, 50, 79
6, 275520, Note_off_c, 2, 50, 79
6, 275520, Note_on_c, 2, 50, 111
6, 276000, Note_off_c, 2, 50, 111
6, 276000, Note_on_c, 2, 50, 95
6, 276480, Note_off_c, 2, 50, 95
6, 276480, Note_on_c, 2, 50, 79
6, 276960, Note_off_c, 2, 50, 79
6, 276960, Note_on_c, 2, 50, 79
6, 277440, Note_off_c, 2, 50, 79
6, 277440, Note_on_c, 2, 50, 79
6, 277920, Note_off_c, 2, 50, 79
6, 277920, Note_on_c, 2, 50, 111
6, 278400, Note_off_c, 2, 50, 111
6, 278400, Note_on_c, 2, 50, 95
6, 278880, Note_off_c, 2, 50, 95
6, 278880, Note_on_c, 2, 50, 79
6, 279360, Note_off_c, 2, 50, 79
6, 279360, Note_on_c, 2, 50, 111
6, 279840, Note_off_c, 2, 50, 111
6, 279840, Note_on_c, 2, 50, 95
6, 280320, Note_off_c, 2, 50, 95
6, 280320, Note_on_c, 2, 50, 79
6, 280800, Note_off_c, 2, 50, 79
6, 280800, Note_on_c, 2, 50, 79
6, 281280, Note_off_c, 2, 50, 79
6, 281280, Note_on_c, 2, 50, 79
6, 281760, Note_off_c, 2, 50, 79
6, 281760, Note_on_c, 2, 50, 111
6, 282240, Note_off_c, 2, 50, 111
6, 282240, Note_on_c, 2, 50, 95
6, 282720, Note_off_c, 2, 50, 95
6, 282720, Note_on_c, 2, 50, 79
6, 283200, Note_off_c, 2, 50, 79
6, 283200, Note_on_c, 2, 50, 111
6, 283680, Note_off_c, 2, 50, 111
6, 283680, Note_on_c, 2, 50, 95
6, 284160, Note_off_c, 2, 50, 95
6, 284160, Note_on_c, 2, 50, 79
6, 284640, Note_off_c, 2, 50, 79
6, 284640, Note_on_c, 2, 50, 79
6, 285120, Note_off_c, 2, 50, 79
6, 285120, Note_on_c, 2, 50, 79
6, 285600, Note_off_c, 2, 50, 79
6, 285600, Note_on_c, 2, 50, 111
6, 286080, Note_off_c, 2, 50, 111
6, 286080, Note_on_c, 2, 50, 95
6, 286560, Note_off_c, 2, 50, 95
6, 286560, Note_on_c, 2, 50, 79
6, 287040, Note_off_c, 2, 50, 79
6, 287040, Note_on_c, 2, 50, 111
6, 287520, Note_off_c, 2, 50, 111
6, 287520, Note_on_c, 2, 50, 95
6, 288000, Note_off_c, 2, 50, 95
6, 288000, Note_on_c, 2, 50, 79
6, 288480, Note_off_c, 2, 50, 79
6, 288480, Note_on_c, 2, 50, 79
6, 288960, Note_off_c, 2, 50, 79
6, 288960, Note_on_c, 2, 50, 79
6, 289440, Note_off_c, 2, 50, 79
6, 289440, Note_on_c, 2, 50, 111
6, 289920, Note_off_c, 2, 50, 111
6, 289920, Note_on_c, 2, 50, 95
6, 290400, Note_off_c, 2, 50, 95
6, 290400, Note_on_c, 2, 50, 79
6, 290880, Note_off_c, 2, 50, 79
6, 290880, Note_on_c, 2, 50, 111
6, 291360, Note_off_c, 2, 50, 111
6, 291360, Note_on_c, 2, 50, 95
6, 291840, Note_off_c, 2, 50, 95
6, 291840, Note_on_c, 2, 50, 79
6, 292320, Note_off_c, 2, 50, 79
6, 292320, Note_on_c, 2, 50, 79
6, 292800, Note_off_c, 2, 50, 79
6, 292800, Note_on_c, 2, 50, 79
6, 293280, Note_off_c, 2, 50, 79
6, 293280, Note_on_c, 2, 50, 111
6, 293760, Note_off_c, 2, 50, 111
6, 293760, Note_on_c, 2, 50, 95
6, 294240, Note_off_c, 2, 50, 95
6, 294240, Note_on_c, 2, 50, 79
6, 294720, Note_off_c, 2, 50, 79
6, 294720, Note_on_c, 2, 50, 111
6, 295200, Note_off_c, 2, 50, 111
6, 295200, Note_on_c, 2, 50, 95
6, 295680, Note_off_c, 2, 50, 95
6, 295680, Note_on_c, 2, 50, 79
6, 296160, Note_off_c, 2, 50, 79
6, 296160, Note_on_c, 2, 50, 79
6, 296640, Note_off_c, 2, 50, 79
6, 296640, Note_on_c, 2, 50, 79
6, 297120, Note_off_c, 2, 50, 79
6, 297120, Note_on_c, 2, 50, 111
6, 297600, Note_off_c, 2, 50, 111
6, 297600, Note_on_c, 2, 50, 95
6, 298080, Note_off_c, 2, 50, 95
6, 298080, Note_on_c, 2, 50, 79
6, 298560, Note_off_c, 2, 50, 79
6, 298560, Note_on_c, 2, 50, 111
6, 299040, Note_off_c, 2, 50, 111
6, 299040, Note_on_c, 2, 50, 95
6, 299520, Note_off_c, 2, 50, 95
6, 299520, Note_on_c, 2, 50, 79
6, 300000, Note_off_c, 2, 50, 79
6, 300000, Note_on_c, 2, 50, 79
6, 300480, Note_off_c, 2, 50, 79
6, 300480, Note_on_c, 2, 50, 79
6, 300960, Note_off_c, 2, 50, 79
6, 300960, Note_on_c, 2, 50, 111
6, 301440, Note_off_c, 2, 50, 111
6, 301440, Note_on_c, 2, 50, 95
6, 301920, Note_off_c, 2, 50, 95
6, 301920, Note_on_c, 2, 50, 79
6, 302400, Note_off_c, 2, 50, 79
6, 302400, Note_on_c, 2, 50, 111
6, 302880, Note_off_c, 2, 50, 111
6, 302880, Note_on_c, 2, 50, 95
6, 303360, Note_off_c, 2, 50, 95
6, 303360, Note_on_c, 2, 50, 79
6, 303840, Note_off_c, 2, 50, 79
6, 303840, Note_on_c, 2, 50, 79
6, 304320, Note_off_c, 2, 50, 79
6, 304320, Note_on_c, 2, 50, 79
6, 304800, Note_off_c, 2, 50, 79
6, 304800, Note_on_c, 2, 50, 111
6, 305280, Note_off_c, 2, 50, 111
6, 305280, Note_on_c, 2, 50, 95
6, 305760, Note_off_c, 2, 50, 95
6, 305760, Note_on_c, 2, 50, 79
6, 306240, Note_off_c, 2, 50, 79
6, 306240, Note_on_c, 2, 50, 111
6, 306720, Note_off_c, 2, 50, 111
6, 306720, Note_on_c, 2, 50, 95
6, 307200, Note_off_c, 2, 50, 95
6, 307200, Note_on_c, 2, 50, 79
6, 307680, Note_off_c, 2, 50, 79
6, 307680, Note_on_c, 2, 50, 79
6, 308160, Note_off_c, 2, 50, 79
6, 308160, Note_on_c, 2, 50, 79
6, 308640, Note_off_c, 2, 50, 79
6, 308640, Note_on_c, 2, 50, 111
6, 309120, Note_off_c, 2, 50, 111
6, 309120, Note_on_c, 2, 50, 95
6, 309600, Note_off_c, 2, 50, 95
6, 309600, Note_on_c, 2, 50, 79
6, 310080, Note_off_c, 2, 50, 79
6, 310080, Note_on_c, 2, 50, 111
6, 310560, Note_off_c, 2, 50, 111
6, 310560, Note_on_c, 2, 50, 95
6, 311040, Note_off_c, 2, 50, 95
6, 311040, Note_on_c, 2, 50, 79
6, 311520, Note_off_c, 2, 50, 79
6, 311520, Note_on_c, 2, 50, 79
6, 312000, Note_off_c, 2, 50, 79
6, 312000, Note_on_c, 2, 50, 79
6, 312480, Note_off_c, 2, 50, 79
6, 312480, Note_on_c, 2, 50, 111
6, 312960, Note_off_c, 2, 50, 111
6, 312960, Note_on_c, 2, 50, 95
6, 313440, Note_off_c, 2, 50, 95
6, 313440, Note_on_c, 2, 50, 79
6, 313920, Note_off_c, 2, 50, 79
6, 313920, Note_on_c, 2, 50, 111
6, 314400, Note_off_c, 2, 50, 111
6, 314400, Note_on_c, 2, 50, 95
6, 314880, Note_off_c, 2, 50, 95
6, 314880, Note_on_c, 2, 50, 79
6, 315360, Note_off_c, 2, 50, 79
6, 315360, Note_on_c, 2, 50, 79
6, 315840, Note_off_c, 2, 50, 79
6, 315840, Note_on_c, 2, 50, 79
6, 316320, Note_off_c, 2, 50, 79
6, 316320, Note_on_c, 2, 50, 111
6, 316800, Note_off_c, 2, 50, 111
6, 316800, Note_on_c, 2, 50, 95
6, 317280, Note_off_c, 2, 50, 95
6, 317280, Note_on_c, 2, 50, 79
6, 317760, Note_off_c, 2, 50, 79
6, 317760, Note_on_c, 2, 50, 111
6, 318240, Note_off_c, 2, 50, 111
6, 318240, Note_on_c, 2, 50, 95
6, 318720, Note_off_c, 2, 50, 95
6, 318720, Note_on_c, 2, 50, 79
6, 319200, Note_off_c, 2, 50, 79
6, 319200, Note_on_c, 2, 50, 79
6, 319680, Note_off_c, 2, 50, 79
6, 319680, Note_on_c, 2, 50, 79
6, 320160, Note_off_c, 2, 50, 79
6, 320160, Note_on_c, 2, 50, 111
6, 320640, Note_off_c, 2, 50, 111
6, 320640, Note_on_c, 2, 50, 95
6, 321120, Note_off_c, 2, 50, 95
6, 321120, Note_on_c, 2, 50, 79
6, 321600, Note_off_c, 2, 50, 79
6, 321600, Note_on_c, 2, 50, 111
6, 322080, Note_off_c, 2, 50, 111
6, 322080, Note_on_c, 2, 50, 95
6, 322560, Note_off_c, 2, 50, 95
6, 322560, Note_on_c, 2, 50, 79
6, 323040, Note_off_c, 2, 50, 79
6, 323040, Note_on_c, 2, 50, 79
6, 323520, Note_off_c, 2, 50, 79
6, 323520, Note_on_c, 2, 50, 79
6, 324000, Note_off_c, 2, 50, 79
6, 324000, Note_on_c, 2, 50, 111
6, 324480, Note_off_c, 2, 50, 111
6, 324480, Note_on_c, 2, 50, 95
6, 324960, Note_off_c, 2, 50, 95
6, 324960, Note_on_c, 2, 50, 79
6, 325440, Note_off_c, 2, 50, 79
6, 325440, Note_on_c, 2, 50, 111
6, 325920, Note_off_c, 2, 50, 111
6, 325920, Note_on_c, 2, 50, 95
6, 326400, Note_off_c, 2, 50, 95
6, 326400, Note_on_c, 2, 50, 79
6, 326880, Note_off_c, 2, 50, 79
6, 326880, Note_on_c, 2, 50, 79
6, 327360, Note_off_c, 2, 50, 79
6, 327360, Note_on_c, 2, 50, 79
6, 327840, Note_off_c, 2, 50, 79
6, 327840, Note_on_c, 2, 50, 111
6, 328320, Note_off_c, 2, 50, 111
6, 328320, Note_on_c, 2, 50, 95
6, 328800, Note_off_c, 2, 50, 95
6, 328800, Note_on_c, 2, 50, 79
6, 329280, Note_off_c, 2, 50, 79
6, 329280, Note_on_c, 2, 50, 111
6, 329760, Note_off_c, 2, 50, 111
6, 329760, Note_on_c, 2, 50, 95
6, 330240, Note_off_c, 2, 50, 95
6, 330240, Note_on_c, 2, 50, 79
6, 330720, Note_off_c, 2, 50, 79
6, 330720, Note_on_c, 2, 50, 79
6, 331200, Note_off_c, 2, 50, 79
6, 331200, Note_on_c, 2, 50, 79
6, 331680, Note_off_c, 2, 50, 79
6, 331680, Note_on_c, 2, 50, 111
6, 332160, Note_off_c, 2, 50, 111
6, 332160, Note_on_c, 2, 50, 95
6, 332640, Note_off_c, 2, 50, 95
6, 332640, Note_on_c, 2, 50, 79
6, 333120, Note_off_c, 2, 50, 79
6, 333120, Note_on_c, 2, 50, 111
6, 333600, Note_off_c, 2, 50, 111
6, 333600, Note_on_c, 2, 50, 95
6, 334080, Note_off_c, 2, 50, 95
6, 334080, Note_on_c, 2, 50, 79
6, 334560, Note_off_c, 2, 50, 79
6, 334560, Note_on_c, 2, 50, 79
6, 335040, Note_off_c, 2, 50, 79
6, 335040, Note_on_c, 2, 50, 79
6, 335520, Note_off_c, 2, 50, 79
6, 335520, Note_on_c, 2, 50, 111
6, 336000, Note_off_c, 2, 50, 111
6, 336000, Note_on_c, 2, 50, 95
6, 336480, Note_off_c, 2, 50, 95
6, 336480, Note_on_c, 2, 50, 79
6, 336960, Note_off_c, 2, 50, 79
6, 336960, Note_on_c, 2, 50, 111
6, 337440, Note_off_c, 2, 50, 111
6, 337440, Note_on_c, 2, 50, 95
6, 337920, Note_off_c, 2, 50, 95
6, 337920, Note_on_c, 2, 50, 79
6, 338400, Note_off_c, 2, 50, 79
6, 338400, Note_on_c, 2, 50, 79
6, 338880, Note_off_c, 2, 50, 79
6, 338880, Note_on_c, 2, 50, 79
6, 339360, Note_off_c, 2, 50, 79
6, 339360, Note_on_c, 2, 50, 111
6, 339840, Note_off_c, 2, 50, 111
6, 339840, Note_on_c, 2, 50, 95
6, 340320, Note_off_c, 2, 50, 95
6, 340320, Note_on_c, 2, 50, 79
6, 340800, Note_off_c, 2, 50, 79
6, 340800, Note_on_c, 2, 50, 111
6, 341280, Note_off_c, 2, 50, 111
6, 341280, Note_on_c, 2, 50, 95
6, 341760, Note_off_c, 2, 50, 95
6, 341760, Note_on_c, 2, 50, 79
6, 342240, Note_off_c, 2, 50, 79
6, 342240, Note_on_c, 2, 50, 79
6, 342720, Note_off_c, 2, 50, 79
6, 342720, Note_on_c, 2, 50, 79
6, 343200, Note_off_c, 2, 50, 79
6, 343200, Note_on_c, 2, 50, 111
6, 343680, Note_off_c, 2, 50, 111
6, 343680, Note_on_c, 2, 50, 95
6, 344160, Note_off_c, 2, 50, 95
6, 344160, Note_on_c, 2, 50, 79
6, 344640, Note_off_c, 2, 50, 79
6, 344640, Note_on_c, 2, 50, 111
6, 345120, Note_off_c, 2, 50, 111
6, 345120, Note_on_c, 2, 50, 95
6, 345600, Note_off_c, 2, 50, 95
6, 345600, Note_on_c, 2, 50, 79
6, 346080, Note_off_c, 2, 50, 79
6, 346080, Note_on_c, 2, 50, 79
6, 346560, Note_off_c, 2, 50, 79
6, 346560, Note_on_c, 2, 50, 79
6, 347040, Note_off_c, 2, 50, 79
6, 347040, Note_on_c, 2, 50, 111
6, 347520, Note_off_c, 2, 50, 111
6, 347520, Note_on_c, 2, 50, 95
6, 348000, Note_off_c, 2, 50, 95
6, 348000, Note_on_c, 2, 50, 79
6, 348480, Note_off_c, 2, 50, 79
6, 348480, Note_on_c, 2, 50, 111
6, 348960, Note_off_c, 2, 50, 111
6, 348960, Note_on_c, 2, 50, 95
6, 349440, Note_off_c, 2, 50, 95
6, 349440, Note_on_c, 2, 50, 79
6, 349920, Note_off_c, 2, 50, 79
6, 349920, Note_on_c, 2, 50, 79
6, 350400, Note_off_c, 2, 50, 79
6, 350400, Note_on_c, 2, 50, 79
6, 350880, Note_off_c, 2, 50, 79
6, 350880, Note_on_c, 2, 50, 111
6, 351360, Note_off_c, 2, 50, 111
6, 351360, Note_on_c, 2, 50, 95
6, 351840, Note_off_c, 2, 50, 95
6, 351840, Note_on_c, 2, 50, 79
6, 352320, Note_off_c, 2, 50, 79
6, 352320, Note_on_c, 2, 50, 111
6, 352800, Note_off_c, 2, 50, 111
6, 352800, Note_on_c, 2, 50, 95
6, 353280, Note_off_c, 2, 50, 95
6, 353280, Note_on_c, 2, 50, 79
6, 353760, Note_off_c, 2, 50, 79
6, 353760, Note_on_c, 2, 50, 79
6, 354240, Note_off_c, 2, 50, 79
6, 354240, Note_on_c, 2, 50, 79
6, 354720, Note_off_c, 2, 50, 79
6, 354720, Note_on_c, 2, 50, 111
6, 355200, Note_off_c, 2, 50, 111
6, 355200, Note_on_c, 2, 50, 95
6, 355680, Note_off_c, 2, 50, 95
6, 355680, Note_on_c, 2, 50, 79
6, 356160, Note_off_c, 2, 50, 79
6, 356160, Note_on_c, 2, 50, 111
6, 356640, Note_off_c, 2, 50, 111
6, 356640, Note_on_c, 2, 50, 95
6, 357120, Note_off_c, 2, 50, 95
6, 357120, Note_on_c, 2, 50, 79
6, 357600, Note_off_c, 2, 50, 79
6, 357600, Note_on_c, 2, 50, 79
6, 358080, Note_off_c, 2, 50, 79
6, 358080, Note_on_c, 2, 50, 79
6, 358560, Note_off_c, 2, 50, 79
6, 358560, Note_on_c, 2, 50, 111
6, 359040, Note_off_c, 2, 50, 111
6, 359040, Note_on_c, 2, 50, 95
6, 359520, Note_off_c, 2, 50, 95
6, 359520, Note_on_c, 2, 50, 79
6, 360000, Note_off_c, 2, 50, 79
6, 360000, Note_on_c, 2, 50, 111
6, 360480, Note_off_c, 2, 50, 111
6, 360480, Note_on_c, 2, 50, 95
6, 360960, Note_off_c, 2, 50, 95
6, 360960, Note_on_c, 2, 50, 79
6, 361440, Note_off_c, 2, 50, 79
6, 361440, Note_on_c, 2, 50, 79
6, 361920, Note_off_c, 2, 50, 79
6, 361920, Note_on_c, 2, 50, 79
6, 362400, Note_off_c, 2, 50, 79
6, 362400, Note_on_c, 2, 50, 111
6, 362880, Note_off_c, 2, 50, 111
6, 362880, Note_on_c, 2, 50, 95
6, 363360, Note_off_c, 2, 50, 95
6, 363360, Note_on_c, 2, 50, 79
6, 363840, Note_off_c, 2, 50, 79
6, 363840, Note_on_c, 2, 50, 111
6, 364320, Note_off_c, 2, 50, 111
6, 364320, Note_on_c, 2, 50, 95
6, 364800, Note_off_c, 2, 50, 95
6, 364800, Note_on_c, 2, 50, 79
6, 365280, Note_off_c, 2, 50, 79
6, 365280, Note_on_c, 2, 50, 79
6, 365760, Note_off_c, 2, 50, 79
6, 365760, Note_on_c, 2, 50, 79
6, 366240, Note_off_c, 2, 50, 79
6, 366240, Note_on_c, 2, 50, 111
6, 366720, Note_off_c, 2, 50, 111
6, 366720, Note_on_c, 2, 50, 95
6, 367200, Note_off_c, 2, 50, 95
6, 367200, Note_on_c, 2, 50, 79
6, 367680, Note_off_c, 2, 50, 79
6, 367680, Note_on_c, 2, 50, 111
6, 368160, Note_off_c, 2, 50, 111
6, 368160, Note_on_c, 2, 50, 95
6, 368400, Note_off_c, 2, 50, 95
6, 368400, Note_on_c, 2, 50, 95
6, 368640, Note_off_c, 2, 50, 95
6, 368640, Note_on_c, 2, 50, 79
6, 369120, Note_off_c, 2, 50, 79
6, 369120, Note_on_c, 2, 50, 79
6, 369600, Note_off_c, 2, 50, 79
6, 369600, Note_on_c, 2, 50, 79
6, 370080, Note_off_c, 2, 50, 79
6, 370080, Note_on_c, 2, 50, 111
6, 370560, Note_off_c, 2, 50, 111
6, 370560, Note_on_c, 2, 50, 95
6, 371040, Note_off_c, 2, 50, 95
6, 371040, Note_on_c, 2, 50, 79
6, 371520, Note_off_c, 2, 50, 79
6, 371520, Note_on_c, 2, 50, 111
6, 372000, Note_off_c, 2, 50, 111
6, 372000, Note_on_c, 2, 50, 95
6, 372480, Note_off_c, 2, 50, 95
6, 372480, Note_on_c, 2, 50, 79
6, 372960, Note_off_c, 2, 50, 79
6, 372960, Note_on_c, 2, 50, 79
6, 373440, Note_off_c, 2, 50, 79
6, 373440, Note_on_c, 2, 50, 79
6, 373920, Note_off_c, 2, 50, 79
6, 373920, Note_on_c, 2, 50, 111
6, 374400, Note_off_c, 2, 50, 111
6, 374400, Note_on_c, 2, 50, 95
6, 374880, Note_off_c, 2, 50, 95
6, 374880, Note_on_c, 2, 50, 79
6, 375360, Note_off_c, 2, 50, 79
6, 375360, Note_on_c, 2, 50, 111
6, 375840, Note_off_c, 2, 50, 111
6, 375840, Note_on_c, 2, 50, 95
6, 376320, Note_off_c, 2, 50, 95
6, 376320, Note_on_c, 2, 50, 79
6, 376800, Note_off_c, 2, 50, 79
6, 376800, Note_on_c, 2, 50, 79
6, 377280, Note_off_c, 2, 50, 79
6, 377280, Note_on_c, 2, 50, 79
6, 377760, Note_off_c, 2, 50, 79
6, 377760, Note_on_c, 2, 50, 111
6, 378240, Note_off_c, 2, 50, 111
6, 378240, Note_on_c, 2, 50, 95
6, 378720, Note_off_c, 2, 50, 95
6, 378720, Note_on_c, 2, 50, 79
6, 379200, Note_off_c, 2, 50, 79
6, 379200, Note_on_c, 2, 50, 111
6, 379680, Note_off_c, 2, 50, 111
6, 379680, Note_on_c, 2, 50, 95
6, 380160, Note_off_c, 2, 50, 95
6, 380160, Note_on_c, 2, 50, 79
6, 380640, Note_off_c, 2, 50, 79
6, 380640, Note_on_c, 2, 50, 79
6, 381120, Note_off_c, 2, 50, 79
6, 381120, Note_on_c, 2, 50, 79
6, 381600, Note_off_c, 2, 50, 79
6, 381600, Note_on_c, 2, 50, 111
6, 382080, Note_off_c, 2, 50, 111
6, 382080, Note_on_c, 2, 50, 95
6, 382560, Note_off_c, 2, 50, 95
6, 382560, Note_on_c, 2, 50, 79
6, 383040, Note_off_c, 2, 50, 79
6, 383040, Note_on_c, 2, 50, 111
6, 383520, Note_off_c, 2, 50, 111
6, 383520, Note_on_c, 2, 50, 95
6, 384000, Note_off_c, 2, 50, 95
6, 384000, Note_on_c, 2, 50, 79
6, 384480, Note_off_c, 2, 50, 79
6, 384480, Note_on_c, 2, 50, 79
6, 384960, Note_off_c, 2, 50, 79
6, 384960, Note_on_c, 2, 50, 79
6, 385440, Note_off_c, 2, 50, 79
6, 385440, Note_on_c, 2, 50, 111
6, 385920, Note_off_c, 2, 50, 111
6, 385920, Note_on_c, 2, 50, 95
6, 386400, Note_off_c, 2, 50, 95
6, 386400, Note_on_c, 2, 50, 79
6, 386880, Note_off_c, 2, 50, 79
6, 386880, Note_on_c, 2, 50, 111
6, 387360, Note_off_c, 2, 50, 111
6, 387360, Note_on_c, 2, 50, 95
6, 387840, Note_off_c, 2, 50, 95
6, 387840, Note_on_c, 2, 50, 79
6, 388320, Note_off_c, 2, 50, 79
6, 388320, Note_on_c, 2, 50, 79
6, 388800, Note_off_c, 2, 50, 79
6, 388800, Note_on_c, 2, 50, 79
6, 389280, Note_off_c, 2, 50, 79
6, 389280, Note_on_c, 2, 50, 111
6, 389760, Note_off_c, 2, 50, 111
6, 389760, Note_on_c, 2, 50, 95
6, 390240, Note_off_c, 2, 50, 95
6, 390240, Note_on_c, 2, 50, 79
6, 390720, Note_off_c, 2, 50, 79
6, 390720, Note_on_c, 2, 50, 111
6, 391200, Note_off_c, 2, 50, 111
6, 391200, Note_on_c, 2, 50, 95
6, 391680, Note_off_c, 2, 50, 95
6, 391680, Note_on_c, 2, 50, 79
6, 392160, Note_off_c, 2, 50, 79
6, 392160, Note_on_c, 2, 50, 79
6, 392640, Note_off_c, 2, 50, 79
6, 392640, Note_on_c, 2, 50, 79
6, 393120, Note_off_c, 2, 50, 79
6, 393120, Note_on_c, 2, 50, 111
6, 393600, Note_off_c, 2, 50, 111
6, 393600, Note_on_c, 2, 50, 95
6, 394080, Note_off_c, 2, 50, 95
6, 394080, Note_on_c, 2, 50, 79
6, 394560, Note_off_c, 2, 50, 79
6, 394560, Note_on_c, 2, 50, 111
6, 395040, Note_off_c, 2, 50, 111
6, 395040, Note_on_c, 2, 50, 95
6, 395520, Note_off_c, 2, 50, 95
6, 395520, Note_on_c, 2, 50, 79
6, 396000, Note_off_c, 2, 50, 79
6, 396000, Note_on_c, 2, 50, 79
6, 396480, Note_off_c, 2, 50, 79
6, 396480, Note_on_c, 2, 50, 79
6, 396960, Note_off_c, 2, 50, 79
6, 396960, Note_on_c, 2, 50, 111
6, 397440, Note_off_c, 2, 50, 111
6, 397440, Note_on_c, 2, 50, 95
6, 397920, Note_off_c, 2, 50, 95
6, 397920, Note_on_c, 2, 50, 79
6, 398400, Note_off_c, 2, 50, 79
6, 398400, Note_on_c, 2, 50, 111
6, 398880, Note_off_c, 2, 50, 111
6, 398880, Note_on_c, 2, 50, 95
6, 399360, Note_off_c, 2, 50, 95
6, 399360, Note_on_c, 2, 50, 79
6, 399840, Note_off_c, 2, 50, 79
6, 399840, Note_on_c, 2, 50, 79
6, 400320, Note_off_c, 2, 50, 79
6, 400320, Note_on_c, 2, 50, 79
6, 400800, Note_off_c, 2, 50, 79
6, 400800, Note_on_c, 2, 50, 111
6, 401280, Note_off_c, 2, 50, 111
6, 401280, Note_on_c, 2, 50, 95
6, 401760, Note_off_c, 2, 50, 95
6, 401760, Note_on_c, 2, 50, 79
6, 402240, Note_off_c, 2, 50, 79
6, 402240, Note_on_c, 2, 50, 111
6, 402720, Note_off_c, 2, 50, 111
6, 402720, Note_on_c, 2, 50, 95
6, 403200, Note_off_c, 2, 50, 95
6, 403200, Note_on_c, 2, 50, 79
6, 403680, Note_off_c, 2, 50, 79
6, 403680, Note_on_c, 2, 50, 79
6, 404160, Note_off_c, 2, 50, 79
6, 404160, Note_on_c, 2, 50, 79
6, 404640, Note_off_c, 2, 50, 79
6, 404640, Note_on_c, 2, 50, 111
6, 405120, Note_off_c, 2, 50, 111
6, 405120, Note_on_c, 2, 50, 95
6, 405600, Note_off_c, 2, 50, 95
6, 405600, Note_on_c, 2, 50, 79
6, 406080, Note_off_c, 2, 50, 79
6, 406080, Note_on_c, 2, 50, 111
6, 406560, Note_off_c, 2, 50, 111
6, 406560, Note_on_c, 2, 50, 95
6, 407040, Note_off_c, 2, 50, 95
6, 407040, Note_on_c, 2, 50, 79
6, 407520, Note_off_c, 2, 50, 79
6, 407520, Note_on_c, 2, 50, 79
6, 408000, Note_off_c, 2, 50, 79
6, 408000, Note_on_c, 2, 50, 79
6, 408480, Note_off_c, 2, 50, 79
6, 408480, Note_on_c, 2, 50, 111
6, 408960, Note_off_c, 2, 50, 111
6, 408960, Note_on_c, 2, 50, 95
6, 409440, Note_off_c, 2, 50, 95
6, 409440, Note_on_c, 2, 50, 79
6, 409920, Note_off_c, 2, 50, 79
6, 409920, Note_on_c, 2, 50, 111
6, 410400, Note_off_c, 2, 50, 111
6, 410400, Note_on_c, 2, 50, 95
6, 410880, Note_off_c, 2, 50, 95
6, 410880, Note_on_c, 2, 50, 79
6, 411360, Note_off_c, 2, 50, 79
6, 411360, Note_on_c, 2, 50, 79
6, 411840, Note_off_c, 2, 50, 79
6, 411840, Note_on_c, 2, 50, 79
6, 412320, Note_off_c, 2, 50, 79
6, 412320, Note_on_c, 2, 50, 111
6, 412800, Note_off_c, 2, 50, 111
6, 412800, Note_on_c, 2, 50, 95
6, 413280, Note_off_c, 2, 50, 95
6, 413280, Note_on_c, 2, 50, 79
6, 413760, Note_off_c, 2, 50, 79
6, 413760, Note_on_c, 2, 50, 111
6, 414240, Note_off_c, 2, 50, 111
6, 414240, Note_on_c, 2, 50, 95
6, 414720, Note_off_c, 2, 50, 95
6, 414720, Note_on_c, 2, 50, 79
6, 415200, Note_off_c, 2, 50, 79
6, 415200, Note_on_c, 2, 50, 79
6, 415680, Note_off_c, 2, 50, 79
6, 415680, Note_on_c, 2, 50, 79
6, 416160, Note_off_c, 2, 50, 79
6, 416160, Note_on_c, 2, 50, 111
6, 416640, Note_off_c, 2, 50, 111
6, 416640, Note_on_c, 2, 50, 95
6, 417120, Note_off_c, 2, 50, 95
6, 417120, Note_on_c, 2, 50, 79
6, 417600, Note_off_c, 2, 50, 79
6, 417600, Note_on_c, 2, 50, 111
6, 418080, Note_off_c, 2, 50, 111
6, 418080, Note_on_c, 2, 50, 95
6, 418560, Note_off_c, 2, 50, 95
6, 418560, Note_on_c, 2, 50, 79
6, 419040, Note_off_c, 2, 50, 79
6, 419040, Note_on_c, 2, 50, 79
6, 419520, Note_off_c, 2, 50, 79
6, 419520, Note_on_c, 2, 50, 79
6, 420000, Note_off_c, 2, 50, 79
6, 420000, Note_on_c, 2, 50, 111
6, 420480, Note_off_c, 2, 50, 111
6, 420480, Note_on_c, 2, 50, 95
6, 420960, Note_off_c, 2, 50, 95
6, 420960, Note_on_c, 2, 50, 79
6, 421440, Note_off_c, 2, 50, 79
6, 421440, Note_on_c, 2, 50, 111
6, 421920, Note_off_c, 2, 50, 111
6, 421920, Note_on_c, 2, 50, 95
6, 422400, Note_off_c, 2, 50, 95
6, 422400, Note_on_c, 2, 50, 79
6, 422880, Note_off_c, 2, 50, 79
6, 422880, Note_on_c, 2, 50, 79
6, 423360, Note_off_c, 2, 50, 79
6, 423360, Note_on_c, 2, 50, 79
6, 423840, Note_off_c, 2, 50, 79
6, 423840, Note_on_c, 2, 50, 111
6, 424320, Note_off_c, 2, 50, 111
6, 424320, Note_on_c, 2, 50, 95
6, 424800, Note_off_c, 2, 50, 95
6, 424800, Note_on_c, 2, 50, 79
6, 425280, Note_off_c, 2, 50, 79
6, 425280, Note_on_c, 2, 50, 111
6, 425760, Note_off_c, 2, 50, 111
6, 425760, Note_on_c, 2, 50, 95
6, 426240, Note_off_c, 2, 50, 95
6, 426240, Note_on_c, 2, 50, 79
6, 426720, Note_off_c, 2, 50, 79
6, 426720, Note_on_c, 2, 50, 79
6, 427200, Note_off_c, 2, 50, 79
6, 427200, Note_on_c, 2, 50, 79
6, 427680, Note_off_c, 2, 50, 79
6, 427680, Note_on_c, 2, 50, 111
6, 428160, Note_off_c, 2, 50, 111
6, 428160, Note_on_c, 2, 50, 95
6, 428640, Note_off_c, 2, 50, 95
6, 428640, Note_on_c, 2, 50, 79
6, 429120, Note_off_c, 2, 50, 79
6, 429120, Note_on_c, 2, 50, 111
6, 429600, Note_off_c, 2, 50, 111
6, 429600, Note_on_c, 2, 50, 95
6, 430080, Note_off_c, 2, 50, 95
6, 430080, Note_on_c, 2, 50, 79
6, 430560, Note_off_c, 2, 50, 79
6, 430560, Note_on_c, 2, 50, 79
6, 431040, Note_off_c, 2, 50, 79
6, 431040, Note_on_c, 2, 50, 79
6, 431520, Note_off_c, 2, 50, 79
6, 431520, Note_on_c, 2, 50, 111
6, 432000, Note_off_c, 2, 50, 111
6, 432000, Note_on_c, 2, 50, 95
6, 432480, Note_off_c, 2, 50, 95
6, 432480, Note_on_c, 2, 50, 79
6, 432960, Note_off_c, 2, 50, 79
6, 432960, Note_on_c, 2, 50, 111
6, 433440, Note_off_c, 2, 50, 111
6, 433440, Note_on_c, 2, 50, 95
6, 433920, Note_off_c, 2, 50, 95
6, 433920, Note_on_c, 2, 50, 79
6, 434400, Note_off_c, 2, 50, 79
6, 434400, Note_on_c, 2, 50, 79
6, 434880, Note_off_c, 2, 50, 79
6, 434880, Note_on_c, 2, 50, 79
6, 435360, Note_off_c, 2, 50, 79
6, 435360, Note_on_c, 2, 50, 111
6, 435840, Note_off_c, 2, 50, 111
6, 435840, Note_on_c, 2, 50, 95
6, 436320, Note_off_c, 2, 50, 95
6, 436320, Note_on_c, 2, 50, 79
6, 436800, Note_off_c, 2, 50, 79
6, 436800, Note_on_c, 2, 50, 111
6, 437280, Note_off_c, 2, 50, 111
6, 437280, Note_on_c, 2, 50, 95
6, 437760, Note_off_c, 2, 50, 95
6, 437760, Note_on_c, 2, 50, 79
6, 438240, Note_off_c, 2, 50, 79
6, 438240, Note_on_c, 2, 50, 79
6, 438720, Note_off_c, 2, 50, 79
6, 438720, Note_on_c, 2, 50, 79
6, 439200, Note_off_c, 2, 50, 79
6, 439200, Note_on_c, 2, 50, 111
6, 439680, Note_off_c, 2, 50, 111
6, 439680, Note_on_c, 2, 50, 95
6, 440160, Note_off_c, 2, 50, 95
6, 440160, Note_on_c, 2, 50, 79
6, 440640, Note_off_c, 2, 50, 79
6, 440640, Note_on_c, 2, 50, 111
6, 441120, Note_off_c, 2, 50, 111
6, 441120, Note_on_c, 2, 50, 95
6, 441600, Note_off_c, 2, 50, 95
6, 441600, Note_on_c, 2, 50, 79
6, 442080, Note_off_c, 2, 50, 79
6, 442080, Note_on_c, 2, 50, 79
6, 442560, Note_off_c, 2, 50, 79
6, 442560, Note_on_c, 2, 50, 79
6, 443040, Note_off_c, 2, 50, 79
6, 443040, Note_on_c, 2, 50, 111
6, 443520, Note_off_c, 2, 50, 111
6, 443520, Note_on_c, 2, 50, 95
6, 444000, Note_off_c, 2, 50, 95
6, 444000, Note_on_c, 2, 50, 79
6, 444480, Note_off_c, 2, 50, 79
6, 444480, Note_on_c, 2, 50, 111
6, 444960, Note_off_c, 2, 50, 111
6, 444960, Note_on_c, 2, 50, 95
6, 445440, Note_off_c, 2, 50, 95
6, 445440, Note_on_c, 2, 50, 79
6, 445920, Note_off_c, 2, 50, 79
6, 445920, Note_on_c, 2, 50, 79
6, 446400, Note_off_c, 2, 50, 79
6, 446400, Note_on_c, 2, 50, 79
6, 446880, Note_off_c, 2, 50, 79
6, 446880, Note_on_c, 2, 50, 111
6, 447360, Note_off_c, 2, 50, 111
6, 447360, Note_on_c, 2, 50, 95
6, 447840, Note_off_c, 2, 50, 95
6, 447840, Note_on_c, 2, 50, 79
6, 448320, Note_off_c, 2, 50, 79
6, 448320, Note_on_c, 2, 50, 111
6, 448800, Note_off_c, 2, 50, 111
6, 448800, Note_on_c, 2, 50, 95
6, 449280, Note_off_c, 2, 50, 95
6, 449280, Note_on_c, 2, 50, 79
6, 449760, Note_off_c, 2, 50, 79
6, 449760, Note_on_c, 2, 50, 79
6, 450240, Note_off_c, 2, 50, 79
6, 450240, Note_on_c, 2, 50, 79
6, 450720, Note_off_c, 2, 50, 79
6, 450720, Note_on_c, 2, 50, 111
6, 451200, Note_off_c, 2, 50, 111
6, 451200, Note_on_c, 2, 50, 95
6, 451680, Note_off_c, 2, 50, 95
6, 451680, Note_on_c, 2, 50, 79
6, 452160, Note_off_c, 2, 50, 79
6, 452160, Note_on_c, 2, 50, 111
6, 452640, Note_off_c, 2, 50, 111
6, 452640, Note_on_c, 2, 50, 95
6, 453120, Note_off_c, 2, 50, 95
6, 453120, Note_on_c, 2, 50, 79
6, 453600, Note_off_c, 2, 50, 79
6, 453600, Note_on_c, 2, 50, 79
6, 454080, Note_off_c, 2, 50, 79
6, 454080, Note_on_c, 2, 50, 79
6, 454560, Note_off_c, 2, 50, 79
6, 454560, Note_on_c, 2, 50, 111
6, 455040, Note_off_c, 2, 50, 111
6, 455040, Note_on_c, 2, 50, 95
6, 455520, Note_off_c, 2, 50, 95
6, 455520, Note_on_c, 2, 50, 79
6, 456000, Note_off_c, 2, 50, 79
6, 456000, Note_on_c, 2, 50, 111
6, 456480, Note_off_c, 2, 50, 111
6, 456480, Note_on_c, 2, 50, 95
6, 456960, Note_off_c, 2, 50, 95
6, 456960, Note_on_c, 2, 50, 79
6, 457440, Note_off_c, 2, 50, 79
6, 457440, Note_on_c, 2, 50, 79
6, 457920, Note_off_c, 2, 50, 79
6, 457920, Note_on_c, 2, 50, 79
6, 458400, Note_off_c, 2, 50, 79
6, 458400, Note_on_c, 2, 50, 111
6, 458880, Note_off_c, 2, 50, 111
6, 458880, Note_on_c, 2, 50, 95
6, 459360, Note_off_c, 2, 50, 95
6, 459360, Note_on_c, 2, 50, 79
6, 459840, Note_off_c, 2, 50, 79
6, 459840, Note_on_c, 2, 50, 111
6, 460320, Note_off_c, 2, 50, 111
6, 460320, Note_on_c, 2, 50, 95
6, 460800, Note_off_c, 2, 50, 95
6, 460800, Note_on_c, 2, 50, 79
6, 461280, Note_off_c, 2, 50, 79
6, 461280, Note_on_c, 2, 50, 79
6, 461760, Note_off_c, 2, 50, 79
6, 461760, Note_on_c, 2, 50, 79
6, 462240, Note_off_c, 2, 50, 79
6, 462240, Note_on_c, 2, 50, 111
6, 462720, Note_off_c, 2, 50, 111
6, 462720, Note_on_c, 2, 50, 95
6, 463200, Note_off_c, 2, 50, 95
6, 463200, Note_on_c, 2, 50, 79
6, 463680, Note_off_c, 2, 50, 79
6, 463680, Note_on_c, 2, 50, 111
6, 464160, Note_off_c, 2, 50, 111
6, 464160, Note_on_c, 2, 50, 95
6, 464640, Note_off_c, 2, 50, 95
6, 464640, Note_on_c, 2, 50, 79
6, 465120, Note_off_c, 2, 50, 79
6, 465120, Note_on_c, 2, 50, 79
6, 465600, Note_off_c, 2, 50, 79
6, 465600, Note_on_c, 2, 50, 79
6, 466080, Note_off_c, 2, 50, 79
6, 466080, Note_on_c, 2, 50, 111
6, 466560, Note_off_c, 2, 50, 111
6, 466560, Note_on_c, 2, 50, 95
6, 467040, Note_off_c, 2, 50, 95
6, 467040, Note_on_c, 2, 50, 79
6, 467520, Note_off_c, 2, 50, 79
6, 467520, Note_on_c, 2, 50, 111
6, 468000, Note_off_c, 2, 50, 111
6, 468000, Note_on_c, 2, 50, 95
6, 468480, Note_off_c, 2, 50, 95
6, 468480, Note_on_c, 2, 50, 79
6, 468960, Note_off_c, 2, 50, 79
6, 468960, Note_on_c, 2, 50, 79
6, 469440, Note_off_c, 2, 50, 79
6, 469440, Note_on_c, 2, 50, 79
6, 469920, Note_off_c, 2, 50, 79
6, 469920, Note_on_c, 2, 50, 111
6, 470400, Note_off_c, 2, 50, 111
6, 470400, Note_on_c, 2, 50, 95
6, 470880, Note_off_c, 2, 50, 95
6, 470880, Note_on_c, 2, 50, 79
6, 471360, Note_off_c, 2, 50, 79
6, 471360, Note_on_c, 2, 50, 111
6, 471840, Note_off_c, 2, 50, 111
6, 471840, Note_on_c, 2, 50, 95
6, 472320, Note_off_c, 2, 50, 95
6, 472320, Note_on_c, 2, 50, 79
6, 472800, Note_off_c, 2, 50, 79
6, 472800, Note_on_c, 2, 50, 79
6, 473280, Note_off_c, 2, 50, 79
6, 473280, Note_on_c, 2, 50, 79
6, 473760, Note_off_c, 2, 50, 79
6, 473760, Note_on_c, 2, 50, 111
6, 474240, Note_off_c, 2, 50, 111
6, 474240, Note_on_c, 2, 50, 95
6, 474720, Note_off_c, 2, 50, 95
6, 474720, Note_on_c, 2, 50, 79
6, 475200, Note_off_c, 2, 50, 79
6, 475200, Note_on_c, 2, 50, 111
6, 475680, Note_off_c, 2, 50, 111
6, 475680, Note_on_c, 2, 50, 95
6, 476160, Note_off_c, 2, 50, 95
6, 476160, Note_on_c, 2, 50, 79
6, 476640, Note_off_c, 2, 50, 79
6, 476640, Note_on_c, 2, 50, 79
6, 477120, Note_off_c, 2, 50, 79
6, 477120, Note_on_c, 2, 50, 79
6, 477600, Note_off_c, 2, 50, 79
6, 477600, Note_on_c, 2, 50, 111
6, 478080, Note_off_c, 2, 50, 111
6, 478080, Note_on_c, 2, 50, 95
6, 478560, Note_off_c, 2, 50, 95
6, 478560, Note_on_c, 2, 50, 79
6, 479040, Note_off_c, 2, 50, 79
6, 479040, Note_on_c, 2, 50, 111
6, 479520, Note_off_c, 2, 50, 111
6, 479520, Note_on_c, 2, 50, 95
6, 480000, Note_off_c, 2, 50, 95
6, 480000, Note_on_c, 2, 50, 79
6, 480480, Note_off_c, 2, 50, 79
6, 480480, Note_on_c, 2, 50, 79
6, 480960, Note_off_c, 2, 50, 79
6, 480960, Note_on_c, 2, 50, 79
6, 481440, Note_off_c, 2, 50, 79
6, 481440, Note_on_c, 2, 50, 111
6, 481920, Note_off_c, 2, 50, 111
6, 481920, Note_on_c, 2, 50, 95
6, 482400, Note_off_c, 2, 50, 95
6, 482400, Note_on_c, 2, 50, 79
6, 482880, Note_off_c, 2, 50, 79
6, 482880, Note_on_c, 2, 50, 111
6, 483360, Note_off_c, 2, 50, 111
6, 483360, Note_on_c, 2, 50, 95
6, 483840, Note_off_c, 2, 50, 95
6, 483840, Note_on_c, 2, 50, 79
6, 484320, Note_off_c, 2, 50, 79
6, 484320, Note_on_c, 2, 50, 79
6, 484800, Note_off_c, 2, 50, 79
6, 484800, Note_on_c, 2, 50, 79
6, 485280, Note_off_c, 2, 50, 79
6, 485280, Note_on_c, 2, 50, 111
6, 485760, Note_off_c, 2, 50, 111
6, 485760, Note_on_c, 2, 50, 95
6, 486240, Note_off_c, 2, 50, 95
6, 486240, Note_on_c, 2, 50, 79
6, 486720, Note_off_c, 2, 50, 79
6, 486720, Note_on_c, 2, 50, 111
6, 487200, Note_off_c, 2, 50, 111
6, 487200, Note_on_c, 2, 50, 95
6, 487680, Note_off_c, 2, 50, 95
6, 487680, Note_on_c, 2, 50, 79
6, 488160, Note_off_c, 2, 50, 79
6, 488160, Note_on_c, 2, 50, 79
6, 488640, Note_off_c, 2, 50, 79
6, 488640, Note_on_c, 2, 50, 79
6, 489120, Note_off_c, 2, 50, 79
6, 489120, Note_on_c, 2, 50, 111
6, 489600, Note_off_c, 2, 50, 111
6, 489600, Note_on_c, 2, 50, 95
6, 490080, Note_off_c, 2, 50, 95
6, 490080, Note_on_c, 2, 50, 79
6, 490560, Note_off_c, 2, 50, 79
6, 490560, Note_on_c, 2, 50, 111
6, 491040, Note_off_c, 2, 50, 111
6, 491040, Note_on_c, 2, 50, 95
6, 491520, Note_off_c, 2, 50, 95
6, 491520, Note_on_c, 2, 50, 79
6, 492000, Note_off_c, 2, 50, 79
6, 492000, Note_on_c, 2, 50, 79
6, 492480, Note_off_c, 2, 50, 79
6, 492480, Note_on_c, 2, 50, 79
6, 492960, Note_off_c, 2, 50, 79
6, 492960, Note_on_c, 2, 50, 111
6, 493440, Note_off_c, 2, 50, 111
6, 493440, Note_on_c, 2, 50, 95
6, 493920, Note_off_c, 2, 50, 95
6, 493920, Note_on_c, 2, 50, 79
6, 494400, Note_off_c, 2, 50, 79
6, 494400, Note_on_c, 2, 50, 111
6, 494880, Note_off_c, 2, 50, 111
6, 494880, Note_on_c, 2, 50, 95
6, 495360, Note_off_c, 2, 50, 95
6, 495360, Note_on_c, 2, 50, 79
6, 495840, Note_off_c, 2, 50, 79
6, 495840, Note_on_c, 2, 50, 79
6, 496320, Note_off_c, 2, 50, 79
6, 496320, Note_on_c, 2, 50, 79
6, 496800, Note_off_c, 2, 50, 79
6, 496800, Note_on_c, 2, 50, 111
6, 497280, Note_off_c, 2, 50, 111
6, 497280, Note_on_c, 2, 50, 95
6, 497760, Note_off_c, 2, 50, 95
6, 497760, Note_on_c, 2, 50, 79
6, 498240, Note_off_c, 2, 50, 79
6, 498240, Note_on_c, 2, 50, 111
6, 498720, Note_off_c, 2, 50, 111
6, 498720, Note_on_c, 2, 50, 95
6, 499200, Note_off_c, 2, 50, 95
6, 499200, Note_on_c, 2, 50, 79
6, 499680, Note_off_c, 2, 50, 79
6, 499680, Note_on_c, 2, 50, 79
6, 500160, Note_off_c, 2, 50, 79
6, 500160, Note_on_c, 2, 50, 79
6, 500640, Note_off_c, 2, 50, 79
6, 500640, Note_on_c, 2, 50, 111
6, 501120, Note_off_c, 2, 50, 111
6, 501120, Note_on_c, 2, 50, 95
6, 501600, Note_off_c, 2, 50, 95
6, 501600, Note_on_c, 2, 50, 79
6, 502080, Note_off_c, 2, 50, 79
6, 502080, Note_on_c, 2, 50, 111
6, 502560, Note_off_c, 2, 50, 111
6, 502560, Note_on_c, 2, 50, 95
6, 503040, Note_off_c, 2, 50, 95
6, 503040, Note_on_c, 2, 50, 79
6, 503520, Note_off_c, 2, 50, 79
6, 503520, Note_on_c, 2, 50, 79
6, 504000, Note_off_c, 2, 50, 79
6, 504000, Note_on_c, 2, 50, 79
6, 504480, Note_off_c, 2, 50, 79
6, 504480, Note_on_c, 2, 50, 111
6, 504960, Note_off_c, 2, 50, 111
6, 504960, Note_on_c, 2, 50, 95
6, 505440, Note_off_c, 2, 50, 95
6, 505440, Note_on_c, 2, 50, 79
6, 505920, Note_off_c, 2, 50, 79
6, 505920, Note_on_c, 2, 50, 111
6, 506400, Note_off_c, 2, 50, 111
6, 506400, Note_on_c, 2, 50, 95
6, 506880, Note_off_c, 2, 50, 95
6, 506880, Note_on_c, 2, 50, 79
6, 507360, Note_off_c, 2, 50, 79
6, 507360, Note_on_c, 2, 50, 79
6, 507840, Note_off_c, 2, 50, 79
6, 507840, Note_on_c, 2, 50, 79
6, 508320, Note_off_c, 2, 50, 79
6, 508320, Note_on_c, 2, 50, 111
6, 508800, Note_off_c, 2, 50, 111
6, 508800, Note_on_c, 2, 50, 95
6, 509280, Note_off_c, 2, 50, 95
6, 509280, Note_on_c, 2, 50, 79
6, 509760, Note_off_c, 2, 50, 79
6, 509760, Note_on_c, 2, 50, 111
6, 510240, Note_off_c, 2, 50, 111
6, 510240, Note_on_c, 2, 50, 95
6, 510720, Note_off_c, 2, 50, 95
6, 510720, Note_on_c, 2, 50, 79
6, 511200, Note_off_c, 2, 50, 79
6, 511200, Note_on_c, 2, 50, 79
6, 511680, Note_off_c, 2, 50, 79
6, 511680, Note_on_c, 2, 50, 79
6, 512160, Note_off_c, 2, 50, 79
6, 512160, Note_on_c, 2, 50, 111
6, 512640, Note_off_c, 2, 50, 111
6, 512640, Note_on_c, 2, 50, 95
6, 513120, Note_off_c, 2, 50, 95
6, 513120, Note_on_c, 2, 50, 79
6, 513600, Note_off_c, 2, 50, 79
6, 513600, Note_on_c, 2, 50, 111
6, 514080, Note_off_c, 2, 50, 111
6, 514080, Note_on_c, 2, 50, 95
6, 514560, Note_off_c, 2, 50, 95
6, 514560, Note_on_c, 2, 50, 79
6, 515040, Note_off_c, 2, 50, 79
6, 515040, Note_on_c, 2, 50, 79
6, 515520, Note_off_c, 2, 50, 79
6, 515520, Note_on_c, 2, 50, 79
6, 516000, Note_off_c, 2, 50, 79
6, 516000, Note_on_c, 2, 50, 111
6, 516480, Note_off_c, 2, 50, 111
6, 516480, Note_on_c, 2, 50, 95
6, 516960, Note_off_c, 2, 50, 95
6, 516960, Note_on_c, 2, 50, 79
6, 517440, Note_off_c, 2, 50, 79
6, 517440, Note_on_c, 2, 50, 111
6, 517920, Note_off_c, 2, 50, 111
6, 517920, Note_on_c, 2, 50, 95
6, 518400, Note_off_c, 2, 50, 95
6, 518400, Note_on_c, 2, 50, 79
6, 518880, Note_off_c, 2, 50, 79
6, 518880, Note_on_c, 2, 50, 79
6, 519360, Note_off_c, 2, 50, 79
6, 519360, Note_on_c, 2, 50, 79
6, 519840, Note_off_c, 2, 50, 79
6, 519840, Note_on_c, 2, 50, 111
6, 520320, Note_off_c, 2, 50, 111
6, 520320, Note_on_c, 2, 50, 95
6, 520800, Note_off_c, 2, 50, 95
6, 520800, Note_on_c, 2, 50, 79
6, 521280, Note_off_c, 2, 50, 79
6, 521280, Note_on_c, 2, 50, 111
6, 521760, Note_off_c, 2, 50, 111
6, 521760, Note_on_c, 2, 50, 95
6, 522240, Note_off_c, 2, 50, 95
6, 522240, Note_on_c, 2, 50, 79
6, 522720, Note_off_c, 2, 50, 79
6, 522720, Note_on_c, 2, 50, 79
6, 523200, Note_off_c, 2, 50, 79
6, 523200, Note_on_c, 2, 50, 79
6, 523680, Note_off_c, 2, 50, 79
6, 523680, Note_on_c, 2, 50, 111
6, 524160, Note_off_c, 2, 50, 111
6, 524160, Note_on_c, 2, 50, 95
6, 524640, Note_off_c, 2, 50, 95
6, 524640, Note_on_c, 2, 50, 79
6, 525120, Note_off_c, 2, 50, 79
6, 525120, Note_on_c, 2, 50, 111
6, 525600, Note_off_c, 2, 50, 111
6, 525600, Note_on_c, 2, 50, 95
6, 526080, Note_off_c, 2, 50, 95
6, 526080, Note_on_c, 2, 50, 79
6, 526560, Note_off_c, 2, 50, 79
6, 526560, Note_on_c, 2, 50, 79
6, 527040, Note_off_c, 2, 50, 79
6, 527040, Note_on_c, 2, 50, 79
6, 527520, Note_off_c, 2, 50, 79
6, 527520, Note_on_c, 2, 50, 111
6, 528000, Note_off_c, 2, 50, 111
6, 528000, Note_on_c, 2, 50, 95
6, 528480, Note_off_c, 2, 50, 95
6, 528480, Note_on_c, 2, 50, 79
6, 528960, Note_off_c, 2, 50, 79
6, 528960, Note_on_c, 2, 50, 111
6, 529440, Note_off_c, 2, 50, 111
6, 529440, Note_on_c, 2, 50, 95
6, 529920, Note_off_c, 2, 50, 95
6, 529920, Note_on_c, 2, 50, 79
6, 530400, Note_off_c, 2, 50, 79
6, 530400, Note_on_c, 2, 50, 79
6, 530880, Note_off_c, 2, 50, 79
6, 530880, Note_on_c, 2, 50, 79
6, 531360, Note_off_c, 2, 50, 79
6, 531360, Note_on_c, 2, 50, 111
6, 531840, Note_off_c, 2, 50, 111
6, 531840, Note_on_c, 2, 50, 95
6, 532320, Note_off_c, 2, 50, 95
6, 532320, Note_on_c, 2, 50, 79
6, 532800, Note_off_c, 2, 50, 79
6, 532800, Note_on_c, 2, 50, 111
6, 533280, Note_off_c, 2, 50, 111
6, 533280, Note_on_c, 2, 50, 95
6, 533760, Note_off_c, 2, 50, 95
6, 533760, Note_on_c, 2, 50, 79
6, 534240, Note_off_c, 2, 50, 79
6, 534240, Note_on_c, 2, 50, 79
6, 534720, Note_off_c, 2, 50, 79
6, 534720, Note_on_c, 2, 50, 79
6, 535200, Note_off_c, 2, 50, 79
6, 535200, Note_on_c, 2, 50, 111
6, 535680, Note_off_c, 2, 50, 111
6, 535680, Note_on_c, 2, 50, 95
6, 536160, Note_off_c, 2, 50, 95
6, 536160, Note_on_c, 2, 50, 79
6, 536640, Note_off_c, 2, 50, 79
6, 536640, Note_on_c, 2, 50, 111
6, 537120, Note_off_c, 2, 50, 111
6, 537120, Note_on_c, 2, 50, 95
6, 537600, Note_off_c, 2, 50, 95
6, 537600, Note_on_c, 2, 50, 79
6, 538080, Note_off_c, 2, 50, 79
6, 538080, Note_on_c, 2, 50, 79
6, 538560, Note_off_c, 2, 50, 79
6, 538560, Note_on_c, 2, 50, 79
6, 539040, Note_off_c, 2, 50, 79
6, 539040, Note_on_c, 2, 50, 111
6, 539520, Note_off_c, 2, 50, 111
6, 539520, Note_on_c, 2, 50, 95
6, 540000, Note_off_c, 2, 50, 95
6, 540000, Note_on_c, 2, 50, 79
6, 540480, Note_off_c, 2, 50, 79
6, 540480, Note_on_c, 2, 50, 111
6, 540960, Note_off_c, 2, 50, 111
6, 540960, Note_on_c, 2, 50, 95
6, 541440, Note_off_c, 2, 50, 95
6, 541440, Note_on_c, 2, 50, 79
6, 541920, Note_off_c, 2, 50, 79
6, 541920, Note_on_c, 2, 50, 79
6, 542400, Note_off_c, 2, 50, 79
6, 542400, Note_on_c, 2, 50, 79
6, 542880, Note_off_c, 2, 50, 79
6, 542880, Note_on_c, 2, 50, 111
6, 543360, Note_off_c, 2, 50, 111
6, 543360, Note_on_c, 2, 50, 95
6, 543840, Note_off_c, 2, 50, 95
6, 543840, Note_on_c, 2, 50, 79
6, 544320, Note_off_c, 2, 50, 79
6, 544320, Note_on_c, 2, 50, 111
6, 544800, Note_off_c, 2, 50, 111
6, 544800, Note_on_c, 2, 50, 95
6, 545280, Note_off_c, 2, 50, 95
6, 545280, Note_on_c, 2, 50, 79
6, 545760, Note_off_c, 2, 50, 79
6, 545760, Note_on_c, 2, 50, 79
6, 546240, Note_off_c, 2, 50, 79
6, 546240, Note_on_c, 2, 50, 79
6, 546720, Note_off_c, 2, 50, 79
6, 546720, Note_on_c, 2, 50, 111
6, 547200, Note_off_c, 2, 50, 111
6, 547200, Note_on_c, 2, 50, 95
6, 547680, Note_off_c, 2, 50, 95
6, 547680, Note_on_c, 2, 50, 79
6, 548160, Note_off_c, 2, 50, 79
6, 548160, Note_on_c, 2, 50, 111
6, 548640, Note_off_c, 2, 50, 111
6, 548640, Note_on_c, 2, 50, 95
6, 549120, Note_off_c, 2, 50, 95
6, 549120, Note_on_c, 2, 50, 79
6, 549600, Note_off_c, 2, 50, 79
6, 549600, Note_on_c, 2, 50, 79
6, 550080, Note_off_c, 2, 50, 79
6, 550080, Note_on_c, 2, 50, 79
6, 550560, Note_off_c, 2, 50, 79
6, 550560, Note_on_c, 2, 50, 111
6, 551040, Note_off_c, 2, 50, 111
6, 551040, Note_on_c, 2, 50, 95
6, 551520, Note_off_c, 2, 50, 95
6, 551520, Note_on_c, 2, 50, 79
6, 552000, Note_off_c, 2, 50, 79
6, 552000, Note_on_c, 2, 50, 111
6, 552480, Note_off_c, 2, 50, 111
6, 552480, Note_on_c, 2, 50, 95
6, 552960, Note_off_c, 2, 50, 95
6, 552960, Note_on_c, 2, 50, 79
6, 553440, Note_off_c, 2, 50, 79
6, 553440, Note_on_c, 2, 50, 79
6, 553920, Note_off_c, 2, 50, 79
6, 553920, Note_on_c, 2, 50, 79
6, 554400, Note_off_c, 2, 50, 79
6, 554400, Note_on_c, 2, 50, 111
6, 554880, Note_off_c, 2, 50, 111
6, 554880, Note_on_c, 2, 50, 95
6, 555360, Note_off_c, 2, 50, 95
6, 555360, Note_on_c, 2, 50, 79
6, 555840, Note_off_c, 2, 50, 79
6, 555840, Note_on_c, 2, 50, 111
6, 556320, Note_off_c, 2, 50, 111
6, 556320, Note_on_c, 2, 50, 95
6, 556800, Note_off_c, 2, 50, 95
6, 556800, Note_on_c, 2, 50, 79
6, 557280, Note_off_c, 2, 50, 79
6, 557280, Note_on_c, 2, 50, 79
6, 557760, Note_off_c, 2, 50, 79
6, 557760, Note_on_c, 2, 50, 79
6, 558240, Note_off_c, 2, 50, 79
6, 558240, Note_on_c, 2, 50, 111
6, 558720, Note_off_c, 2, 50, 111
6, 558720, Note_on_c, 2, 50, 95
6, 559200, Note_off_c, 2, 50, 95
6, 559200, Note_on_c, 2, 50, 79
6, 559680, Note_off_c, 2, 50, 79
6, 559680, Note_on_c, 2, 50, 111
6, 560160, Note_off_c, 2, 50, 111
6, 560160, Note_on_c, 2, 50, 95
6, 560640, Note_off_c, 2, 50, 95
6, 560640, Note_on_c, 2, 50, 79
6, 561120, Note_off_c, 2, 50, 79
6, 561120, Note_on_c, 2, 50, 79
6, 561600, Note_off_c, 2, 50, 79
6, 561600, Note_on_c, 2, 50, 79
6, 562080, Note_off_c, 2, 50, 79
6, 562080, Note_on_c, 2, 50, 111
6, 562560, Note_off_c, 2, 50, 111
6, 562560, Note_on_c, 2, 50, 95
6, 563040, Note_off_c, 2, 50, 95
6, 563040, Note_on_c, 2, 50, 79
6, 563520, Note_off_c, 2, 50, 79
6, 563520, Note_on_c, 2, 50, 111
6, 564000, Note_off_c, 2, 50, 111
6, 564000, Note_on_c, 2, 50, 95
6, 564480, Note_off_c, 2, 50, 95
6, 564480, Note_on_c, 2, 50, 79
6, 564960, Note_off_c, 2, 50, 79
6, 564960, Note_on_c, 2, 50, 79
6, 565440, Note_off_c, 2, 50, 79
6, 565440, Note_on_c, 2, 50, 79
6, 565920, Note_off_c, 2, 50, 79
6, 565920, Note_on_c, 2, 50, 111
6, 566400, Note_off_c, 2, 50, 111
6, 566400, Note_on_c, 2, 50, 95
6, 566880, Note_off_c, 2, 50, 95
6, 566880, Note_on_c, 2, 50, 79
6, 567360, Note_off_c, 2, 50, 79
6, 567360, Note_on_c, 2, 50, 111
6, 567840, Note_off_c, 2, 50, 111
6, 567840, Note_on_c, 2, 50, 95
6, 568320, Note_off_c, 2, 50, 95
6, 568320, Note_on_c, 2, 50, 79
6, 568800, Note_off_c, 2, 50, 79
6, 568800, Note_on_c, 2, 50, 79
6, 569280, Note_off_c, 2, 50, 79
6, 569280, Note_on_c, 2, 50, 79
6, 569760, Note_off_c, 2, 50, 79
6, 569760, Note_on_c, 2, 50, 111
6, 570240, Note_off_c, 2, 50, 111
6, 570240, Note_on_c, 2, 50, 95
6, 570720, Note_off_c, 2, 50, 95
6, 570720, Note_on_c, 2, 50, 79
6, 571200, Note_off_c, 2, 50, 79
6, 571200, Note_on_c, 2, 50, 111
6, 571680, Note_off_c, 2, 50, 111
6, 571680, Note_on_c, 2, 50, 95
6, 572160, Note_off_c, 2, 50, 95
6, 572160, Note_on_c, 2, 50, 79
6, 572640, Note_off_c, 2, 50, 79
6, 572640, Note_on_c, 2, 50, 79
6, 573120, Note_off_c, 2, 50, 79
6, 573120, Note_on_c, 2, 50, 79
6, 573600, Note_off_c, 2, 50, 79
6, 573600, Note_on_c, 2, 50, 111
6, 574080, Note_off_c, 2, 50, 111
6, 574080, Note_on_c, 2, 50, 95
6, 574560, Note_off_c, 2, 50, 95
6, 574560, Note_on_c, 2, 50, 79
6, 575040, Note_off_c, 2, 50, 79
6, 575040, Note_on_c, 2, 50, 111
6, 575520, Note_off_c, 2, 50, 111
6, 575520, Note_on_c, 2, 50, 95
6, 576000, Note_off_c, 2, 50, 95
6, 576000, Note_on_c, 2, 50, 79
6, 576480, Note_off_c, 2, 50, 79
6, 576480, Note_on_c, 2, 50, 79
6, 576960, Note_off_c, 2, 50, 79
6, 576960, Note_on_c, 2, 50, 79
6, 577440, Note_off_c, 2, 50, 79
6, 577440, Note_on_c, 2, 50, 111
6, 577920, Note_off_c, 2, 50, 111
6, 577920, Note_on_c, 2, 50, 95
6, 578400, Note_off_c, 2, 50, 95
6, 578400, Note_on_c, 2, 50, 79
6, 578880, Note_off_c, 2, 50, 79
6, 578880, Note_on_c, 2, 50, 111
6, 579360, Note_off_c, 2, 50, 111
6, 579360, Note_on_c, 2, 50, 95
6, 579840, Note_off_c, 2, 50, 95
6, 579840, Note_on_c, 2, 50, 79
6, 580320, Note_off_c, 2, 50, 79
6, 580320, Note_on_c, 2, 50, 79
6, 580800, Note_off_c, 2, 50, 79
6, 580800, Note_on_c, 2, 50, 79
6, 581280, Note_off_c, 2, 50, 79
6, 581280, Note_on_c, 2, 50, 111
6, 581760, Note_off_c, 2, 50, 111
6, 581760, Note_on_c, 2, 50, 95
6, 582240, Note_off_c, 2, 50, 95
6, 582240, Note_on_c, 2, 50, 79
6, 582720, Note_off_c, 2, 50, 79
6, 582720, Note_on_c, 2, 50, 111
6, 583200, Note_off_c, 2, 50, 111
6, 583200, Note_on_c, 2, 50, 95
6, 583680, Note_off_c, 2, 50, 95
6, 583680, Note_on_c, 2, 50, 79
6, 584160, Note_off_c, 2, 50, 79
6, 584160, Note_on_c, 2, 50, 79
6, 584640, Note_off_c, 2, 50, 79
6, 584640, Note_on_c, 2, 50, 79
6, 585120, Note_off_c, 2, 50, 79
6, 585120, Note_on_c, 2, 50, 111
6, 585600, Note_off_c, 2, 50, 111
6, 585600, Note_on_c, 2, 50, 95
6, 586080, Note_off_c, 2, 50, 95
6, 586080, Note_on_c, 2, 50, 79
6, 586560, Note_off_c, 2, 50, 79
6, 586560, Note_on_c, 2, 50, 111
6, 587040, Note_off_c, 2, 50, 111
6, 587040, Note_on_c, 2, 50, 95
6, 587520, Note_off_c, 2, 50, 95
6, 587520, Note_on_c, 2, 50, 79
6, 588000, Note_off_c, 2, 50, 79
6, 588000, Note_on_c, 2, 50, 79
6, 588480, Note_off_c, 2, 50, 79
6, 588480, Note_on_c, 2, 50, 79
6, 588960, Note_off_c, 2, 50, 79
6, 588960, Note_on_c, 2, 50, 111
6, 589440, Note_off_c, 2, 50, 111
6, 589440, Note_on_c, 2, 50, 95
6, 589920, Note_off_c, 2, 50, 95
6, 589920, Note_on_c, 2, 50, 79
6, 590400, Note_off_c, 2, 50, 79
6, 590400, Note_on_c, 2, 50, 111
6, 590880, Note_off_c, 2, 50, 111
6, 590880, Note_on_c, 2, 50, 95
6, 591360, Note_off_c, 2, 50, 95
6, 591360, Note_on_c, 2, 50, 79
6, 591840, Note_off_c, 2, 50, 79
6, 591840, Note_on_c, 2, 50, 79
6, 592320, Note_off_c, 2, 50, 79
6, 592320, Note_on_c, 2, 50, 79
6, 592800, Note_off_c, 2, 50, 79
6, 592800, Note_on_c, 2, 50, 111
6, 593280, Note_off_c, 2, 50, 111
6, 593280, Note_on_c, 2, 50, 95
6, 593760, Note_off_c, 2, 50, 95
6, 593760, Note_on_c, 2, 50, 79
6, 594240, Note_off_c, 2, 50, 79
6, 594240, Note_on_c, 2, 50, 111
6, 594720, Note_off_c, 2, 50, 111
6, 594720, Note_on_c, 2, 50, 95
6, 595200, Note_off_c, 2, 50, 95
6, 595200, Note_on_c, 2, 50, 79
6, 595680, Note_off_c, 2, 50, 79
6, 595680, Note_on_c, 2, 50, 79
6, 596160, Note_off_c, 2, 50, 79
6, 596160, Note_on_c, 2, 50, 79
6, 596640, Note_off_c, 2, 50, 79
6, 596640, Note_on_c, 2, 50, 111
6, 597120, Note_off_c, 2, 50, 111
6, 597120, Note_on_c, 2, 50, 95
6, 597600, Note_off_c, 2, 50, 95
6, 597600, Note_on_c, 2, 50, 79
6, 598080, Note_off_c, 2, 50, 79
6, 598080, Note_on_c, 2, 50, 111
6, 598560, Note_off_c, 2, 50, 111
6, 598560, Note_on_c, 2, 50, 95
6, 599040, Note_off_c, 2, 50, 95
6, 599040, Note_on_c, 2, 50, 79
6, 599520, Note_off_c, 2, 50, 79
6, 599520, Note_on_c, 2, 50, 79
6, 600000, Note_off_c, 2, 50, 79
6, 600000, Note_on_c, 2, 50, 79
6, 600480, Note_off_c, 2, 50, 79
6, 600480, Note_on_c, 2, 50, 111
6, 600960, Note_off_c, 2, 50, 111
6, 600960, Note_on_c, 2, 50, 95
6, 601440, Note_off_c, 2, 50, 95
6, 601440, Note_on_c, 2, 50, 79
6, 601920, Note_off_c, 2, 50, 79
6, 601920, Note_on_c, 2, 50, 111
6, 602400, Note_off_c, 2, 50, 111
6, 602400, Note_on_c, 2, 50, 95
6, 602880, Note_off_c, 2, 50, 95
6, 602880, Note_on_c, 2, 50, 79
6, 603360, Note_off_c, 2, 50, 79
6, 603360, Note_on_c, 2, 50, 79
6, 603840, Note_off_c, 2, 50, 79
6, 603840, Note_on_c, 2, 50, 79
6, 604320, Note_off_c, 2, 50, 79
6, 604320, Note_on_c, 2, 50, 111
6, 604800, Note_off_c, 2, 50, 111
6, 604800, Note_on_c, 2, 50, 95
6, 605280, Note_off_c, 2, 50, 95
6, 605280, Note_on_c, 2, 50, 79
6, 605760, Note_off_c, 2, 50, 79
6, 605760, Note_on_c, 2, 50, 111
6, 606240, Note_off_c, 2, 50, 111
6, 606240, Note_on_c, 2, 50, 95
6, 606720, Note_off_c, 2, 50, 95
6, 606720, Note_on_c, 2, 50, 79
6, 607200, Note_off_c, 2, 50, 79
6, 607200, Note_on_c, 2, 50, 79
6, 607680, Note_off_c, 2, 50, 79
6, 607680, Note_on_c, 2, 50, 79
6, 608160, Note_off_c, 2, 50, 79
6, 608160, Note_on_c, 2, 50, 111
6, 608640, Note_off_c, 2, 50, 111
6, 608640, Note_on_c, 2, 50, 95
6, 609120, Note_off_c, 2, 50, 95
6, 609120, Note_on_c, 2, 50, 79
6, 609600, Note_off_c, 2, 50, 79
6, 609600, Note_on_c, 2, 50, 111
6, 610080, Note_off_c, 2, 50, 111
6, 610080, Note_on_c, 2, 50, 95
6, 610560, Note_off_c, 2, 50, 95
6, 610560, Note_on_c, 2, 50, 79
6, 611040, Note_off_c, 2, 50, 79
6, 611040, Note_on_c, 2, 50, 79
6, 611520, Note_off_c, 2, 50, 79
6, 611520, Note_on_c, 2, 50, 79
6, 612000, Note_off_c, 2, 50, 79
6, 612000, Note_on_c, 2, 50, 111
6, 612480, Note_off_c, 2, 50, 111
6, 612480, Note_on_c, 2, 50, 95
6, 612960, Note_off_c, 2, 50, 95
6, 612960, Note_on_c, 2, 50, 79
6, 613440, Note_off_c, 2, 50, 79
6, 613440, Note_on_c, 2, 50, 111
6, 613920, Note_off_c, 2, 50, 111
6, 613920, Note_on_c, 2, 50, 95
6, 614400, Note_off_c, 2, 50, 95
6, 614400, Note_on_c, 2, 50, 79
6, 614880, Note_off_c, 2, 50, 79
6, 614880, Note_on_c, 2, 50, 79
6, 615360, Note_off_c, 2, 50, 79
6, 615360, Note_on_c, 2, 50, 79
6, 615840, Note_off_c, 2, 50, 79
6, 615840, Note_on_c, 2, 50, 111
6, 616320, Note_off_c, 2, 50, 111
6, 616320, Note_on_c, 2, 50, 95
6, 616800, Note_off_c, 2, 50, 95
6, 616800, Note_on_c, 2, 50, 79
6, 617280, Note_off_c, 2, 50, 79
6, 617280, Note_on_c, 2, 50, 111
6, 617760, Note_off_c, 2, 50, 111
6, 617760, Note_on_c, 2, 50, 95
6, 618240, Note_off_c, 2, 50, 95
6, 618240, Note_on_c, 2, 50, 79
6, 618720, Note_off_c, 2, 50, 79
6, 618720, Note_on_c, 2, 50, 79
6, 619200, Note_off_c, 2, 50, 79
6, 619200, Note_on_c, 2, 50, 79
6, 619680, Note_off_c, 2, 50, 79
6, 619680, Note_on_c, 2, 50, 111
6, 620160, Note_off_c, 2, 50, 111
6, 620160, Note_on_c, 2, 50, 95
6, 620640, Note_off_c, 2, 50, 95
6, 620640, Note_on_c, 2, 50, 79
6, 621120, Note_off_c, 2, 50, 79
6, 621120, Note_on_c, 2, 50, 111
6, 621600, Note_off_c, 2, 50, 111
6, 621600, Note_on_c, 2, 50, 95
6, 622080, Note_off_c, 2, 50, 95
6, 622080, Note_on_c, 2, 50, 79
6, 622560, Note_off_c, 2, 50, 79
6, 622560, Note_on_c, 2, 50, 79
6, 623040, Note_off_c, 2, 50, 79
6, 623040, Note_on_c, 2, 50, 79
6, 623520, Note_off_c, 2, 50, 79
6, 623520, Note_on_c, 2, 50, 111
6, 624000, Note_off_c, 2, 50, 111
6, 624000, Note_on_c, 2, 50, 95
6, 624480, Note_off_c, 2, 50, 95
6, 624480, Note_on_c, 2, 50, 79
6, 624960, Note_off_c, 2, 50, 79
6, 624960, Note_on_c, 2, 50, 111
6, 625440, Note_off_c, 2, 50, 111
6, 625440, Note_on_c, 2, 50, 95
6, 625920, Note_off_c, 2, 50, 95
6, 625920, Note_on_c, 2, 50, 79
6, 626400, Note_off_c, 2, 50, 79
6, 626400, Note_on_c, 2, 50, 79
6, 626880, Note_off_c, 2, 50, 79
6, 626880, Note_on_c, 2, 50, 79
6, 627360, Note_off_c, 2, 50, 79
6, 627360, Note_on_c, 2, 50, 111
6, 627840, Note_off_c, 2, 50, 111
6, 627840, Note_on_c, 2, 50, 95
6, 628320, Note_off_c, 2, 50, 95
6, 628320, Note_on_c, 2, 50, 79
6, 628800, Note_off_c, 2, 50, 79
6, 628800, Note_on_c, 2, 50, 111
6, 629280, Note_off_c, 2, 50, 111
6, 629280, Note_on_c, 2, 50, 95
6, 629760, Note_off_c, 2, 50, 95
6, 629760, Note_on_c, 2, 50, 79
6, 630240, Note_off_c, 2, 50, 79
6, 630240, Note_on_c, 2, 50, 79
6, 630720, Note_off_c, 2, 50, 79
6, 630720, Note_on_c, 2, 50, 79
6, 631200, Note_off_c, 2, 50, 79
6, 631200, Note_on_c, 2, 50, 111
6, 631680, Note_off_c, 2, 50, 111
6, 631680, Note_on_c, 2, 50, 95
6, 632160, Note_off_c, 2, 50, 95
6, 632160, Note_on_c, 2, 50, 79
6, 632640, Note_off_c, 2, 50, 79
6, 632640, Note_on_c, 2, 50, 111
6, 633120, Note_off_c, 2, 50, 111
6, 633120, Note_on_c, 2, 50, 95
6, 633600, Note_off_c, 2, 50, 95
6, 633600, Note_on_c, 2, 50, 79
6, 634080, Note_off_c, 2, 50, 79
6, 634080, Note_on_c, 2, 50, 79
6, 634560, Note_off_c, 2, 50, 79
6, 634560, Note_on_c, 2, 50, 79
6, 635040, Note_off_c, 2, 50, 79
6, 635040, Note_on_c, 2, 50, 111
6, 635520, Note_off_c, 2, 50, 111
6, 635520, Note_on_c, 2, 50, 95
6, 636000, Note_off_c, 2, 50, 95
6, 636000, Note_on_c, 2, 50, 79
6, 636480, Note_off_c, 2, 50, 79
6, 636480, Note_on_c, 2, 50, 111
6, 636960, Note_off_c, 2, 50, 111
6, 636960, Note_on_c, 2, 50, 95
6, 637440, Note_off_c, 2, 50, 95
6, 637440, Note_on_c, 2, 50, 79
6, 637920, Note_off_c, 2, 50, 79
6, 637920, Note_on_c, 2, 50, 79
6, 638400, Note_off_c, 2, 50, 79
6, 638400, Note_on_c, 2, 50, 79
6, 638880, Note_off_c, 2, 50, 79
6, 638880, Note_on_c, 2, 50, 111
6, 639360, Note_off_c, 2, 50, 111
6, 639360, Note_on_c, 2, 50, 95
6, 639840, Note_off_c, 2, 50, 95
6, 639840, Note_on_c, 2, 50, 79
6, 640320, Note_off_c, 2, 50, 79
6, 640320, Note_on_c, 2, 50, 111
6, 640800, Note_off_c, 2, 50, 111
6, 640800, Note_on_c, 2, 50, 95
6, 641280, Note_off_c, 2, 50, 95
6, 641280, Note_on_c, 2, 50, 79
6, 641760, Note_off_c, 2, 50, 79
6, 641760, Note_on_c, 2, 50, 79
6, 642240, Note_off_c, 2, 50, 79
6, 642240, Note_on_c, 2, 50, 79
6, 642720, Note_off_c, 2, 50, 79
6, 642720, Note_on_c, 2, 50, 111
6, 643200, Note_off_c, 2, 50, 111
6, 643200, Note_on_c, 2, 50, 95
6, 643680, Note_off_c, 2, 50, 95
6, 643680, Note_on_c, 2, 50, 79
6, 644160, Note_off_c, 2, 50, 79
6, 644160, Note_on_c, 2, 50, 111
6, 644640, Note_off_c, 2, 50, 111
6, 644640, Note_on_c, 2, 50, 95
6, 645120, Note_off_c, 2, 50, 95
6, 645120, Note_on_c, 2, 50, 79
6, 645600, Note_off_c, 2, 50, 79
6, 645600, Note_on_c, 2, 50, 79
6, 646080, Note_off_c, 2, 50, 79
6, 646080, Note_on_c, 2, 50, 79
6, 646560, Note_off_c, 2, 50, 79
6, 646560, Note_on_c, 2, 50, 111
6, 647040, Note_off_c, 2, 50, 111
6, 647040, Note_on_c, 2, 50, 95
6, 647520, Note_off_c, 2, 50, 95
6, 647520, Note_on_c, 2, 50, 79
6, 648000, Note_off_c, 2, 50, 79
6, 648000, Note_on_c, 2, 50, 111
6, 648480, Note_off_c, 2, 50, 111
6, 648480, Note_on_c, 2, 50, 95
6, 648960, Note_off_c, 2, 50, 95
6, 648960, Note_on_c, 2, 50, 79
6, 649440, Note_off_c, 2, 50, 79
6, 649440, Note_on_c, 2, 50, 79
6, 649920, Note_off_c, 2, 50, 79
6, 649920, Note_on_c, 2, 50, 79
6, 650400, Note_off_c, 2, 50, 79
6, 650400, Note_on_c, 2, 50, 111
6, 650880, Note_off_c, 2, 50, 111
6, 650880, Note_on_c, 2, 50, 95
6, 651360, Note_off_c, 2, 50, 95
6, 651360, Note_on_c, 2, 50, 79
6, 651840, Note_off_c, 2, 50, 79
6, 651840, Note_on_c, 2, 50, 111
6, 652320, Note_off_c, 2, 50, 111
6, 652320, Note_on_c, 2, 50, 95
6, 652800, Note_off_c, 2, 50, 95
6, 652800, End_track
7, 0, Start_track
7, 0, Pitch_bend_c, 4, 8192
7, 0, Control_c, 4, 7, 103
7, 0, Control_c, 4, 10, 0
7, 0, Control_c, 4, 93, 0
7, 0, Control_c, 4, 91, 0
7, 0, Control_c, 4, 95, 0
7, 0, Control_c, 4, 92, 0
7, 0, Control_c, 4, 11, 127
7, 0, Program_c, 4, 117
7, 0, Control_c, 5, 7, 103
7, 0, Control_c, 5, 10, 0
7, 0, Control_c, 5, 93, 0
7, 0, Control_c, 5, 91, 0
7, 0, Control_c, 5, 95, 0
7, 0, Control_c, 5, 92, 0
7, 0, Control_c, 5, 11, 127
7, 0, Program_c, 5, 117
7, 0, Note_on_c, 4, 52, 63
7, 480, Note_off_c, 4, 52, 63
7, 480, Note_on_c, 4, 52, 63
7, 960, Note_off_c, 4, 52, 63
7, 960, Note_on_c, 4, 52, 63
7, 1440, Note_off_c, 4, 52, 63
7, 1440, Note_on_c, 4, 52, 95
7, 1920, Note_off_c, 4, 52, 95
7, 1920, Note_on_c, 4, 52, 79
7, 2400, Note_off_c, 4, 52, 79
7, 2400, Note_on_c, 4, 52, 63
7, 2880, Note_off_c, 4, 52, 63
7, 2880, Note_on_c, 4, 52, 95
7, 3360, Note_off_c, 4, 52, 95
7, 3360, Note_on_c, 4, 52, 79
7, 3840, Note_off_c, 4, 52, 79
7, 3840, Note_on_c, 4, 52, 63
7, 4320, Note_off_c, 4, 52, 63
7, 4320, Note_on_c, 4, 52, 63
7, 4800, Note_off_c, 4, 52, 63
7, 4800, Note_on_c, 4, 52, 63
7, 5280, Note_off_c, 4, 52, 63
7, 5280, Note_on_c, 4, 52, 95
7, 5760, Note_off_c, 4, 52, 95
7, 5760, Note_on_c, 4, 52, 79
7, 6240, Note_off_c, 4, 52, 79
7, 6240, Note_on_c, 4, 52, 63
7, 6720, Note_off_c, 4, 52, 63
7, 6720, Note_on_c, 4, 52, 95
7, 7200, Note_off_c, 4, 52, 95
7, 7200, Note_on_c, 4, 52, 79
7, 7680, Note_off_c, 4, 52, 79
7, 7680, Note_on_c, 4, 52, 63
7, 8160, Note_off_c, 4, 52, 63
7, 8160, Note_on_c, 4, 52, 63
7, 8640, Note_off_c, 4, 52, 63
7, 8640, Note_on_c, 4, 52, 63
7, 9120, Note_off_c, 4, 52, 63
7, 9120, Note_on_c, 4, 52, 95
7, 9600, Note_off_c, 4, 52, 95
7, 9600, Note_on_c, 4, 52, 79
7, 10080, Note_off_c, 4, 52, 79
7, 10080, Note_on_c, 4, 52, 63
7, 10560, Note_off_c, 4, 52, 63
7, 10560, Note_on_c, 4, 52, 95
7, 11040, Note_off_c, 4, 52, 95
7, 11040, Note_on_c, 4, 52, 79
7, 11520, Note_off_c, 4, 52, 79
7, 11520, Note_on_c, 4, 52, 63
7, 12000, Note_off_c, 4, 52, 63
7, 12000, Note_on_c, 4, 52, 63
7, 12480, Note_off_c, 4, 52, 63
7, 12480, Note_on_c, 4, 52, 63
7, 12960, Note_off_c, 4, 52, 63
7, 12960, Note_on_c, 4, 52, 95
7, 13440, Note_off_c, 4, 52, 95
7, 13440, Note_on_c, 4, 52, 79
7, 13920, Note_off_c, 4, 52, 79
7, 13920, Note_on_c, 4, 52, 63
7, 14400, Note_off_c, 4, 52, 63
7, 14400, Note_on_c, 4, 52, 95
7, 14880, Note_off_c, 4, 52, 95
7, 14880, Note_on_c, 4, 52, 79
7, 15360, Note_off_c, 4, 52, 79
7, 15360, Note_on_c, 4, 52, 63
7, 15840, Note_off_c, 4, 52, 63
7, 15840, Note_on_c, 4, 52, 63
7, 16320, Note_off_c, 4, 52, 63
7, 16320, Note_on_c, 4, 52, 63
7, 16800, Note_off_c, 4, 52, 63
7, 16800, Note_on_c, 4, 52, 95
7, 17280, Note_off_c, 4, 52, 95
7, 17280, Note_on_c, 4, 52, 79
7, 17760, Note_off_c, 4, 52, 79
7, 17760, Note_on_c, 4, 52, 63
7, 18240, Note_off_c, 4, 52, 63
7, 18240, Note_on_c, 4, 52, 95
7, 18720, Note_off_c, 4, 52, 95
7, 18720, Note_on_c, 4, 52, 79
7, 19200, Note_off_c, 4, 52, 79
7, 19200, Note_on_c, 4, 52, 63
7, 19680, Note_off_c, 4, 52, 63
7, 19680, Note_on_c, 4, 52, 63
7, 20160, Note_off_c, 4, 52, 63
7, 20160, Note_on_c, 4, 52, 63
7, 20640, Note_off_c, 4, 52, 63
7, 20640, Note_on_c, 4, 52, 95
7, 21120, Note_off_c, 4, 52, 95
7, 21120, Note_on_c, 4, 52, 79
7, 21600, Note_off_c, 4, 52, 79
7, 21600, Note_on_c, 4, 52, 63
7, 22080, Note_off_c, 4, 52, 63
7, 22080, Note_on_c, 4, 52, 95
7, 22560, Note_off_c, 4, 52, 95
7, 22560, Note_on_c, 4, 52, 79
7, 23040, Note_off_c, 4, 52, 79
7, 23040, Note_on_c, 4, 52, 63
7, 23520, Note_off_c, 4, 52, 63
7, 23520, Note_on_c, 4, 52, 63
7, 24000, Note_off_c, 4, 52, 63
7, 24000, Note_on_c, 4, 52, 63
7, 24480, Note_off_c, 4, 52, 63
7, 24480, Note_on_c, 4, 52, 95
7, 24960, Note_off_c, 4, 52, 95
7, 24960, Note_on_c, 4, 52, 79
7, 25440, Note_off_c, 4, 52, 79
7, 25440, Note_on_c, 4, 52, 63
7, 25920, Note_off_c, 4, 52, 63
7, 25920, Note_on_c, 4, 52, 95
7, 26400, Note_off_c, 4, 52, 95
7, 26400, Note_on_c, 4, 52, 79
7, 26880, Note_off_c, 4, 52, 79
7, 26880, Note_on_c, 4, 52, 63
7, 27360, Note_off_c, 4, 52, 63
7, 27360, Note_on_c, 4, 52, 63
7, 27840, Note_off_c, 4, 52, 63
7, 27840, Note_on_c, 4, 52, 63
7, 28320, Note_off_c, 4, 52, 63
7, 28320, Note_on_c, 4, 52, 95
7, 28800, Note_off_c, 4, 52, 95
7, 28800, Note_on_c, 4, 52, 79
7, 29280, Note_off_c, 4, 52, 79
7, 29280, Note_on_c, 4, 52, 63
7, 29760, Note_off_c, 4, 52, 63
7, 29760, Note_on_c, 4, 52, 95
7, 30240, Note_off_c, 4, 52, 95
7, 30240, Note_on_c, 4, 52, 79
7, 30720, Note_off_c, 4, 52, 79
7, 30720, Note_on_c, 4, 52, 63
7, 31200, Note_off_c, 4, 52, 63
7, 31200, Note_on_c, 4, 52, 63
7, 31680, Note_off_c, 4, 52, 63
7, 31680, Note_on_c, 4, 52, 63
7, 32160, Note_off_c, 4, 52, 63
7, 32160, Note_on_c, 4, 52, 95
7, 32640, Note_off_c, 4, 52, 95
7, 32640, Note_on_c, 4, 52, 79
7, 33120, Note_off_c, 4, 52, 79
7, 33120, Note_on_c, 4, 52, 63
7, 33600, Note_off_c, 4, 52, 63
7, 33600, Note_on_c, 4, 52, 95
7, 34080, Note_off_c, 4, 52, 95
7, 34080, Note_on_c, 4, 52, 79
7, 34560, Note_off_c, 4, 52, 79
7, 34560, Note_on_c, 4, 52, 63
7, 35040, Note_off_c, 4, 52, 63
7, 35040, Note_on_c, 4, 52, 63
7, 35520, Note_off_c, 4, 52, 63
7, 35520, Note_on_c, 4, 52, 63
7, 36000, Note_off_c, 4, 52, 63
7, 36000, Note_on_c, 4, 52, 95
7, 36480, Note_off_c, 4, 52, 95
7, 36480, Note_on_c, 4, 52, 79
7, 36960, Note_off_c, 4, 52, 79
7, 36960, Note_on_c, 4, 52, 63
7, 37440, Note_off_c, 4, 52, 63
7, 37440, Note_on_c, 4, 52, 95
7, 37920, Note_off_c, 4, 52, 95
7, 37920, Note_on_c, 4, 52, 79
7, 38400, Note_off_c, 4, 52, 79
7, 38400, Note_on_c, 4, 52, 63
7, 38880, Note_off_c, 4, 52, 63
7, 38880, Note_on_c, 4, 52, 63
7, 39360, Note_off_c, 4, 52, 63
7, 39360, Note_on_c, 4, 52, 63
7, 39840, Note_off_c, 4, 52, 63
7, 39840, Note_on_c, 4, 52, 95
7, 40320, Note_off_c, 4, 52, 95
7, 40320, Note_on_c, 4, 52, 79
7, 40800, Note_off_c, 4, 52, 79
7, 40800, Note_on_c, 4, 52, 63
7, 41280, Note_off_c, 4, 52, 63
7, 41280, Note_on_c, 4, 52, 95
7, 41760, Note_off_c, 4, 52, 95
7, 41760, Note_on_c, 4, 52, 79
7, 42240, Note_off_c, 4, 52, 79
7, 42240, Note_on_c, 4, 52, 63
7, 42720, Note_off_c, 4, 52, 63
7, 42720, Note_on_c, 4, 52, 63
7, 43200, Note_off_c, 4, 52, 63
7, 43200, Note_on_c, 4, 52, 63
7, 43680, Note_off_c, 4, 52, 63
7, 43680, Note_on_c, 4, 52, 95
7, 44160, Note_off_c, 4, 52, 95
7, 44160, Note_on_c, 4, 52, 79
7, 44640, Note_off_c, 4, 52, 79
7, 44640, Note_on_c, 4, 52, 63
7, 45120, Note_off_c, 4, 52, 63
7, 45120, Note_on_c, 4, 52, 95
7, 45600, Note_off_c, 4, 52, 95
7, 45600, Note_on_c, 4, 52, 79
7, 46080, Note_off_c, 4, 52, 79
7, 46080, Note_on_c, 4, 52, 63
7, 46560, Note_off_c, 4, 52, 63
7, 46560, Note_on_c, 4, 52, 63
7, 47040, Note_off_c, 4, 52, 63
7, 47040, Note_on_c, 4, 52, 63
7, 47520, Note_off_c, 4, 52, 63
7, 47520, Note_on_c, 4, 52, 95
7, 48000, Note_off_c, 4, 52, 95
7, 48000, Note_on_c, 4, 52, 79
7, 48480, Note_off_c, 4, 52, 79
7, 48480, Note_on_c, 4, 52, 63
7, 48960, Note_off_c, 4, 52, 63
7, 48960, Note_on_c, 4, 52, 95
7, 49440, Note_off_c, 4, 52, 95
7, 49440, Note_on_c, 4, 52, 79
7, 49920, Note_off_c, 4, 52, 79
7, 49920, Note_on_c, 4, 52, 63
7, 50400, Note_off_c, 4, 52, 63
7, 50400, Note_on_c, 4, 52, 63
7, 50880, Note_off_c, 4, 52, 63
7, 50880, Note_on_c, 4, 52, 63
7, 51360, Note_off_c, 4, 52, 63
7, 51360, Note_on_c, 4, 52, 95
7, 51840, Note_off_c, 4, 52, 95
7, 51840, Note_on_c, 4, 52, 79
7, 52320, Note_off_c, 4, 52, 79
7, 52320, Note_on_c, 4, 52, 63
7, 52800, Note_off_c, 4, 52, 63
7, 52800, Note_on_c, 4, 52, 95
7, 53280, Note_off_c, 4, 52, 95
7, 53280, Note_on_c, 4, 52, 79
7, 53760, Note_off_c, 4, 52, 79
7, 53760, Note_on_c, 4, 52, 63
7, 54240, Note_off_c, 4, 52, 63
7, 54240, Note_on_c, 4, 52, 63
7, 54720, Note_off_c, 4, 52, 63
7, 54720, Note_on_c, 4, 52, 63
7, 55200, Note_off_c, 4, 52, 63
7, 55200, Note_on_c, 4, 52, 95
7, 55680, Note_off_c, 4, 52, 95
7, 55680, Note_on_c, 4, 52, 79
7, 56160, Note_off_c, 4, 52, 79
7, 56160, Note_on_c, 4, 52, 63
7, 56640, Note_off_c, 4, 52, 63
7, 56640, Note_on_c, 4, 52, 95
7, 57120, Note_off_c, 4, 52, 95
7, 57120, Note_on_c, 4, 52, 79
7, 57600, Note_off_c, 4, 52, 79
7, 57600, Note_on_c, 4, 52, 63
7, 58080, Note_off_c, 4, 52, 63
7, 58080, Note_on_c, 4, 52, 63
7, 58560, Note_off_c, 4, 52, 63
7, 58560, Note_on_c, 4, 52, 63
7, 59040, Note_off_c, 4, 52, 63
7, 59040, Note_on_c, 4, 52, 95
7, 59520, Note_off_c, 4, 52, 95
7, 59520, Note_on_c, 4, 52, 79
7, 60000, Note_off_c, 4, 52, 79
7, 60000, Note_on_c, 4, 52, 63
7, 60480, Note_off_c, 4, 52, 63
7, 60480, Note_on_c, 4, 52, 95
7, 60960, Note_off_c, 4, 52, 95
7, 60960, Note_on_c, 4, 52, 79
7, 61440, Note_off_c, 4, 52, 79
7, 61440, Note_on_c, 4, 52, 63
7, 61920, Note_off_c, 4, 52, 63
7, 61920, Note_on_c, 4, 52, 63
7, 62400, Note_off_c, 4, 52, 63
7, 62400, Note_on_c, 4, 52, 63
7, 62880, Note_off_c, 4, 52, 63
7, 62880, Note_on_c, 4, 52, 95
7, 63360, Note_off_c, 4, 52, 95
7, 63360, Note_on_c, 4, 52, 79
7, 63840, Note_off_c, 4, 52, 79
7, 63840, Note_on_c, 4, 52, 63
7, 64320, Note_off_c, 4, 52, 63
7, 64320, Note_on_c, 4, 52, 95
7, 64800, Note_off_c, 4, 52, 95
7, 64800, Note_on_c, 4, 52, 79
7, 65280, Note_off_c, 4, 52, 79
7, 65280, Note_on_c, 4, 52, 63
7, 65760, Note_off_c, 4, 52, 63
7, 65760, Note_on_c, 4, 52, 63
7, 66240, Note_off_c, 4, 52, 63
7, 66240, Note_on_c, 4, 52, 63
7, 66720, Note_off_c, 4, 52, 63
7, 66720, Note_on_c, 4, 52, 95
7, 67200, Note_off_c, 4, 52, 95
7, 67200, Note_on_c, 4, 52, 79
7, 67680, Note_off_c, 4, 52, 79
7, 67680, Note_on_c, 4, 52, 63
7, 68160, Note_off_c, 4, 52, 63
7, 68160, Note_on_c, 4, 52, 95
7, 68640, Note_off_c, 4, 52, 95
7, 68640, Note_on_c, 4, 52, 79
7, 69120, Note_off_c, 4, 52, 79
7, 69120, Note_on_c, 4, 52, 63
7, 69600, Note_off_c, 4, 52, 63
7, 69600, Note_on_c, 4, 52, 63
7, 70080, Note_off_c, 4, 52, 63
7, 70080, Note_on_c, 4, 52, 63
7, 70560, Note_off_c, 4, 52, 63
7, 70560, Note_on_c, 4, 52, 95
7, 71040, Note_off_c, 4, 52, 95
7, 71040, Note_on_c, 4, 52, 79
7, 71520, Note_off_c, 4, 52, 79
7, 71520, Note_on_c, 4, 52, 63
7, 72000, Note_off_c, 4, 52, 63
7, 72000, Note_on_c, 4, 52, 95
7, 72480, Note_off_c, 4, 52, 95
7, 72480, Note_on_c, 4, 52, 79
7, 72960, Note_off_c, 4, 52, 79
7, 72960, Note_on_c, 4, 52, 63
7, 73440, Note_off_c, 4, 52, 63
7, 73440, Note_on_c, 4, 52, 63
7, 73920, Note_off_c, 4, 52, 63
7, 73920, Note_on_c, 4, 52, 63
7, 74400, Note_off_c, 4, 52, 63
7, 74400, Note_on_c, 4, 52, 95
7, 74880, Note_off_c, 4, 52, 95
7, 74880, Note_on_c, 4, 52, 79
7, 75360, Note_off_c, 4, 52, 79
7, 75360, Note_on_c, 4, 52, 63
7, 75840, Note_off_c, 4, 52, 63
7, 75840, Note_on_c, 4, 52, 95
7, 76320, Note_off_c, 4, 52, 95
7, 76320, Note_on_c, 4, 52, 79
7, 76800, Note_off_c, 4, 52, 79
7, 76800, Note_on_c, 4, 52, 63
7, 77280, Note_off_c, 4, 52, 63
7, 77280, Note_on_c, 4, 52, 63
7, 77760, Note_off_c, 4, 52, 63
7, 77760, Note_on_c, 4, 52, 63
7, 78240, Note_off_c, 4, 52, 63
7, 78240, Note_on_c, 4, 52, 95
7, 78720, Note_off_c, 4, 52, 95
7, 78720, Note_on_c, 4, 52, 79
7, 79200, Note_off_c, 4, 52, 79
7, 79200, Note_on_c, 4, 52, 63
7, 79680, Note_off_c, 4, 52, 63
7, 79680, Note_on_c, 4, 52, 95
7, 80160, Note_off_c, 4, 52, 95
7, 80160, Note_on_c, 4, 52, 79
7, 80640, Note_off_c, 4, 52, 79
7, 80640, Note_on_c, 4, 52, 63
7, 81120, Note_off_c, 4, 52, 63
7, 81120, Note_on_c, 4, 52, 63
7, 81600, Note_off_c, 4, 52, 63
7, 81600, Note_on_c, 4, 52, 63
7, 82080, Note_off_c, 4, 52, 63
7, 82080, Note_on_c, 4, 52, 95
7, 82560, Note_off_c, 4, 52, 95
7, 82560, Note_on_c, 4, 52, 79
7, 83040, Note_off_c, 4, 52, 79
7, 83040, Note_on_c, 4, 52, 63
7, 83520, Note_off_c, 4, 52, 63
7, 83520, Note_on_c, 4, 52, 95
7, 84000, Note_off_c, 4, 52, 95
7, 84000, Note_on_c, 4, 52, 79
7, 84480, Note_off_c, 4, 52, 79
7, 84480, Note_on_c, 4, 52, 63
7, 84960, Note_off_c, 4, 52, 63
7, 84960, Note_on_c, 4, 52, 63
7, 85440, Note_off_c, 4, 52, 63
7, 85440, Note_on_c, 4, 52, 63
7, 85920, Note_off_c, 4, 52, 63
7, 85920, Note_on_c, 4, 52, 95
7, 86400, Note_off_c, 4, 52, 95
7, 86400, Note_on_c, 4, 52, 79
7, 86880, Note_off_c, 4, 52, 79
7, 86880, Note_on_c, 4, 52, 63
7, 87360, Note_off_c, 4, 52, 63
7, 87360, Note_on_c, 4, 52, 95
7, 87840, Note_off_c, 4, 52, 95
7, 87840, Note_on_c, 4, 52, 79
7, 88320, Note_off_c, 4, 52, 79
7, 88320, Note_on_c, 4, 52, 63
7, 88800, Note_off_c, 4, 52, 63
7, 88800, Note_on_c, 4, 52, 63
7, 89280, Note_off_c, 4, 52, 63
7, 89280, Note_on_c, 4, 52, 63
7, 89760, Note_off_c, 4, 52, 63
7, 89760, Note_on_c, 4, 52, 95
7, 90240, Note_off_c, 4, 52, 95
7, 90240, Note_on_c, 4, 52, 79
7, 90720, Note_off_c, 4, 52, 79
7, 90720, Note_on_c, 4, 52, 63
7, 91200, Note_off_c, 4, 52, 63
7, 91200, Note_on_c, 4, 52, 95
7, 91680, Note_off_c, 4, 52, 95
7, 91680, Note_on_c, 4, 52, 79
7, 92160, Note_off_c, 4, 52, 79
7, 92160, Note_on_c, 4, 52, 63
7, 92640, Note_off_c, 4, 52, 63
7, 92640, Note_on_c, 4, 52, 63
7, 93120, Note_off_c, 4, 52, 63
7, 93120, Note_on_c, 4, 52, 63
7, 93600, Note_off_c, 4, 52, 63
7, 93600, Note_on_c, 4, 52, 95
7, 94080, Note_off_c, 4, 52, 95
7, 94080, Note_on_c, 4, 52, 79
7, 94560, Note_off_c, 4, 52, 79
7, 94560, Note_on_c, 4, 52, 63
7, 95040, Note_off_c, 4, 52, 63
7, 95040, Note_on_c, 4, 52, 95
7, 95520, Note_off_c, 4, 52, 95
7, 95520, Note_on_c, 4, 52, 79
7, 96000, Note_off_c, 4, 52, 79
7, 96000, Note_on_c, 4, 52, 63
7, 96480, Note_off_c, 4, 52, 63
7, 96480, Note_on_c, 4, 52, 63
7, 96960, Note_off_c, 4, 52, 63
7, 96960, Note_on_c, 4, 52, 63
7, 97440, Note_off_c, 4, 52, 63
7, 97440, Note_on_c, 4, 52, 95
7, 97920, Note_off_c, 4, 52, 95
7, 97920, Note_on_c, 4, 52, 79
7, 98400, Note_off_c, 4, 52, 79
7, 98400, Note_on_c, 4, 52, 63
7, 98880, Note_off_c, 4, 52, 63
7, 98880, Note_on_c, 4, 52, 95
7, 99360, Note_off_c, 4, 52, 95
7, 99360, Note_on_c, 4, 52, 79
7, 99840, Note_off_c, 4, 52, 79
7, 99840, Note_on_c, 4, 52, 63
7, 100320, Note_off_c, 4, 52, 63
7, 100320, Note_on_c, 4, 52, 63
7, 100800, Note_off_c, 4, 52, 63
7, 100800, Note_on_c, 4, 52, 63
7, 101280, Note_off_c, 4, 52, 63
7, 101280, Note_on_c, 4, 52, 95
7, 101760, Note_off_c, 4, 52, 95
7, 101760, Note_on_c, 4, 52, 79
7, 102240, Note_off_c, 4, 52, 79
7, 102240, Note_on_c, 4, 52, 63
7, 102720, Note_off_c, 4, 52, 63
7, 102720, Note_on_c, 4, 52, 95
7, 103200, Note_off_c, 4, 52, 95
7, 103200, Note_on_c, 4, 52, 79
7, 103680, Note_off_c, 4, 52, 79
7, 103680, Note_on_c, 4, 52, 63
7, 104160, Note_off_c, 4, 52, 63
7, 104160, Note_on_c, 4, 52, 63
7, 104640, Note_off_c, 4, 52, 63
7, 104640, Note_on_c, 4, 52, 63
7, 105120, Note_off_c, 4, 52, 63
7, 105120, Note_on_c, 4, 52, 95
7, 105600, Note_off_c, 4, 52, 95
7, 105600, Note_on_c, 4, 52, 79
7, 106080, Note_off_c, 4, 52, 79
7, 106080, Note_on_c, 4, 52, 63
7, 106560, Note_off_c, 4, 52, 63
7, 106560, Note_on_c, 4, 52, 95
7, 107040, Note_off_c, 4, 52, 95
7, 107040, Note_on_c, 4, 52, 79
7, 107520, Note_off_c, 4, 52, 79
7, 107520, Note_on_c, 4, 52, 63
7, 108000, Note_off_c, 4, 52, 63
7, 108000, Note_on_c, 4, 52, 63
7, 108480, Note_off_c, 4, 52, 63
7, 108480, Note_on_c, 4, 52, 63
7, 108960, Note_off_c, 4, 52, 63
7, 108960, Note_on_c, 4, 52, 95
7, 109440, Note_off_c, 4, 52, 95
7, 109440, Note_on_c, 4, 52, 79
7, 109920, Note_off_c, 4, 52, 79
7, 109920, Note_on_c, 4, 52, 63
7, 110400, Note_off_c, 4, 52, 63
7, 110400, Note_on_c, 4, 52, 95
7, 110880, Note_off_c, 4, 52, 95
7, 110880, Note_on_c, 4, 52, 79
7, 111360, Note_off_c, 4, 52, 79
7, 111360, Note_on_c, 4, 52, 63
7, 111840, Note_off_c, 4, 52, 63
7, 111840, Note_on_c, 4, 52, 63
7, 112320, Note_off_c, 4, 52, 63
7, 112320, Note_on_c, 4, 52, 63
7, 112800, Note_off_c, 4, 52, 63
7, 112800, Note_on_c, 4, 52, 95
7, 113280, Note_off_c, 4, 52, 95
7, 113280, Note_on_c, 4, 52, 79
7, 113760, Note_off_c, 4, 52, 79
7, 113760, Note_on_c, 4, 52, 63
7, 114240, Note_off_c, 4, 52, 63
7, 114240, Note_on_c, 4, 52, 95
7, 114720, Note_off_c, 4, 52, 95
7, 114720, Note_on_c, 4, 52, 79
7, 115200, Note_off_c, 4, 52, 79
7, 115200, Note_on_c, 4, 52, 63
7, 115680, Note_off_c, 4, 52, 63
7, 115680, Note_on_c, 4, 52, 63
7, 116160, Note_off_c, 4, 52, 63
7, 116160, Note_on_c, 4, 52, 63
7, 116640, Note_off_c, 4, 52, 63
7, 116640, Note_on_c, 4, 52, 95
7, 117120, Note_off_c, 4, 52, 95
7, 117120, Note_on_c, 4, 52, 79
7, 117600, Note_off_c, 4, 52, 79
7, 117600, Note_on_c, 4, 52, 63
7, 118080, Note_off_c, 4, 52, 63
7, 118080, Note_on_c, 4, 52, 95
7, 118560, Note_off_c, 4, 52, 95
7, 118560, Note_on_c, 4, 52, 79
7, 119040, Note_off_c, 4, 52, 79
7, 119040, Note_on_c, 4, 52, 63
7, 119520, Note_off_c, 4, 52, 63
7, 119520, Note_on_c, 4, 52, 63
7, 120000, Note_off_c, 4, 52, 63
7, 120000, Note_on_c, 4, 52, 63
7, 120480, Note_off_c, 4, 52, 63
7, 120480, Note_on_c, 4, 52, 95
7, 120960, Note_off_c, 4, 52, 95
7, 120960, Note_on_c, 4, 52, 79
7, 121440, Note_off_c, 4, 52, 79
7, 121440, Note_on_c, 4, 52, 63
7, 121920, Note_off_c, 4, 52, 63
7, 121920, Note_on_c, 4, 52, 95
7, 122400, Note_off_c, 4, 52, 95
7, 122400, Note_on_c, 4, 52, 79
7, 122880, Note_off_c, 4, 52, 79
7, 122880, Note_on_c, 4, 52, 63
7, 123360, Note_off_c, 4, 52, 63
7, 123360, Note_on_c, 4, 52, 63
7, 123840, Note_off_c, 4, 52, 63
7, 123840, Note_on_c, 4, 52, 63
7, 124320, Note_off_c, 4, 52, 63
7, 124320, Note_on_c, 4, 52, 95
7, 124800, Note_off_c, 4, 52, 95
7, 124800, Note_on_c, 4, 52, 79
7, 125280, Note_off_c, 4, 52, 79
7, 125280, Note_on_c, 4, 52, 63
7, 125760, Note_off_c, 4, 52, 63
7, 125760, Note_on_c, 4, 52, 95
7, 126240, Note_off_c, 4, 52, 95
7, 126240, Note_on_c, 4, 52, 79
7, 126720, Note_off_c, 4, 52, 79
7, 126720, Note_on_c, 4, 52, 63
7, 127200, Note_off_c, 4, 52, 63
7, 127200, Note_on_c, 4, 52, 63
7, 127680, Note_off_c, 4, 52, 63
7, 127680, Note_on_c, 4, 52, 63
7, 128160, Note_off_c, 4, 52, 63
7, 128160, Note_on_c, 4, 52, 95
7, 128640, Note_off_c, 4, 52, 95
7, 128640, Note_on_c, 4, 52, 79
7, 129120, Note_off_c, 4, 52, 79
7, 129120, Note_on_c, 4, 52, 63
7, 129600, Note_off_c, 4, 52, 63
7, 129600, Note_on_c, 4, 52, 95
7, 130080, Note_off_c, 4, 52, 95
7, 130080, Note_on_c, 4, 52, 79
7, 130560, Note_off_c, 4, 52, 79
7, 130560, Note_on_c, 4, 52, 63
7, 131040, Note_off_c, 4, 52, 63
7, 131040, Note_on_c, 4, 52, 63
7, 131520, Note_off_c, 4, 52, 63
7, 131520, Note_on_c, 4, 52, 63
7, 132000, Note_off_c, 4, 52, 63
7, 132000, Note_on_c, 4, 52, 95
7, 132480, Note_off_c, 4, 52, 95
7, 132480, Note_on_c, 4, 52, 79
7, 132960, Note_off_c, 4, 52, 79
7, 132960, Note_on_c, 4, 52, 63
7, 133440, Note_off_c, 4, 52, 63
7, 133440, Note_on_c, 4, 52, 95
7, 133920, Note_off_c, 4, 52, 95
7, 133920, Note_on_c, 4, 52, 79
7, 134400, Note_off_c, 4, 52, 79
7, 134400, Note_on_c, 4, 52, 63
7, 134880, Note_off_c, 4, 52, 63
7, 134880, Note_on_c, 4, 52, 63
7, 135360, Note_off_c, 4, 52, 63
7, 135360, Note_on_c, 4, 52, 63
7, 135840, Note_off_c, 4, 52, 63
7, 135840, Note_on_c, 4, 52, 95
7, 136320, Note_off_c, 4, 52, 95
7, 136320, Note_on_c, 4, 52, 79
7, 136800, Note_off_c, 4, 52, 79
7, 136800, Note_on_c, 4, 52, 63
7, 137280, Note_off_c, 4, 52, 63
7, 137280, Note_on_c, 4, 52, 95
7, 137760, Note_off_c, 4, 52, 95
7, 137760, Note_on_c, 4, 52, 79
7, 138240, Note_off_c, 4, 52, 79
7, 138240, Note_on_c, 4, 52, 63
7, 138720, Note_off_c, 4, 52, 63
7, 138720, Note_on_c, 4, 52, 63
7, 139200, Note_off_c, 4, 52, 63
7, 139200, Note_on_c, 4, 52, 63
7, 139680, Note_off_c, 4, 52, 63
7, 139680, Note_on_c, 4, 52, 95
7, 140160, Note_off_c, 4, 52, 95
7, 140160, Note_on_c, 4, 52, 79
7, 140640, Note_off_c, 4, 52, 79
7, 140640, Note_on_c, 4, 52, 63
7, 141120, Note_off_c, 4, 52, 63
7, 141120, Note_on_c, 4, 52, 95
7, 141600, Note_off_c, 4, 52, 95
7, 141600, Note_on_c, 4, 52, 79
7, 142080, Note_off_c, 4, 52, 79
7, 142080, Note_on_c, 4, 52, 63
7, 142560, Note_off_c, 4, 52, 63
7, 142560, Note_on_c, 4, 52, 63
7, 143040, Note_off_c, 4, 52, 63
7, 143040, Note_on_c, 4, 52, 63
7, 143520, Note_off_c, 4, 52, 63
7, 143520, Note_on_c, 4, 52, 95
7, 144000, Note_off_c, 4, 52, 95
7, 144000, Note_on_c, 4, 52, 79
7, 144480, Note_off_c, 4, 52, 79
7, 144480, Note_on_c, 4, 52, 63
7, 144960, Note_off_c, 4, 52, 63
7, 144960, Note_on_c, 4, 52, 95
7, 145440, Note_off_c, 4, 52, 95
7, 145440, Note_on_c, 4, 52, 79
7, 145920, Note_off_c, 4, 52, 79
7, 145920, Note_on_c, 4, 52, 63
7, 146400, Note_off_c, 4, 52, 63
7, 146400, Note_on_c, 4, 52, 63
7, 146880, Note_off_c, 4, 52, 63
7, 146880, Note_on_c, 4, 52, 63
7, 147360, Note_off_c, 4, 52, 63
7, 147360, Note_on_c, 4, 52, 95
7, 147840, Note_off_c, 4, 52, 95
7, 147840, Note_on_c, 4, 52, 79
7, 148320, Note_off_c, 4, 52, 79
7, 148320, Note_on_c, 4, 52, 63
7, 148800, Note_off_c, 4, 52, 63
7, 148800, Note_on_c, 4, 52, 95
7, 149280, Note_off_c, 4, 52, 95
7, 149280, Note_on_c, 4, 52, 79
7, 149760, Note_off_c, 4, 52, 79
7, 149760, Note_on_c, 4, 52, 63
7, 150240, Note_off_c, 4, 52, 63
7, 150240, Note_on_c, 4, 52, 63
7, 150720, Note_off_c, 4, 52, 63
7, 150720, Note_on_c, 4, 52, 63
7, 151200, Note_off_c, 4, 52, 63
7, 151200, Note_on_c, 4, 52, 95
7, 151680, Note_off_c, 4, 52, 95
7, 151680, Note_on_c, 4, 52, 79
7, 152160, Note_off_c, 4, 52, 79
7, 152160, Note_on_c, 4, 52, 63
7, 152640, Note_off_c, 4, 52, 63
7, 152640, Note_on_c, 4, 52, 95
7, 153120, Note_off_c, 4, 52, 95
7, 153120, Note_on_c, 4, 52, 79
7, 153600, Note_off_c, 4, 52, 79
7, 153600, Note_on_c, 4, 52, 63
7, 154080, Note_off_c, 4, 52, 63
7, 154080, Note_on_c, 4, 52, 63
7, 154560, Note_off_c, 4, 52, 63
7, 154560, Note_on_c, 4, 52, 63
7, 155040, Note_off_c, 4, 52, 63
7, 155040, Note_on_c, 4, 52, 95
7, 155520, Note_off_c, 4, 52, 95
7, 155520, Note_on_c, 4, 52, 79
7, 156000, Note_off_c, 4, 52, 79
7, 156000, Note_on_c, 4, 52, 63
7, 156480, Note_off_c, 4, 52, 63
7, 156480, Note_on_c, 4, 52, 95
7, 156960, Note_off_c, 4, 52, 95
7, 156960, Note_on_c, 4, 52, 79
7, 157440, Note_off_c, 4, 52, 79
7, 157440, Note_on_c, 4, 52, 63
7, 157920, Note_off_c, 4, 52, 63
7, 157920, Note_on_c, 4, 52, 63
7, 158400, Note_off_c, 4, 52, 63
7, 158400, Note_on_c, 4, 52, 63
7, 158880, Note_off_c, 4, 52, 63
7, 158880, Note_on_c, 4, 52, 95
7, 159360, Note_off_c, 4, 52, 95
7, 159360, Note_on_c, 4, 52, 79
7, 159840, Note_off_c, 4, 52, 79
7, 159840, Note_on_c, 4, 52, 63
7, 160320, Note_off_c, 4, 52, 63
7, 160320, Note_on_c, 4, 52, 95
7, 160800, Note_off_c, 4, 52, 95
7, 160800, Note_on_c, 4, 52, 79
7, 161280, Note_off_c, 4, 52, 79
7, 161280, Note_on_c, 4, 52, 63
7, 161760, Note_off_c, 4, 52, 63
7, 161760, Note_on_c, 4, 52, 63
7, 162240, Note_off_c, 4, 52, 63
7, 162240, Note_on_c, 4, 52, 63
7, 162720, Note_off_c, 4, 52, 63
7, 162720, Note_on_c, 4, 52, 95
7, 163200, Note_off_c, 4, 52, 95
7, 163200, Note_on_c, 4, 52, 79
7, 163680, Note_off_c, 4, 52, 79
7, 163680, Note_on_c, 4, 52, 63
7, 164160, Note_off_c, 4, 52, 63
7, 164160, Note_on_c, 4, 52, 95
7, 164640, Note_off_c, 4, 52, 95
7, 164640, Note_on_c, 4, 52, 79
7, 165120, Note_off_c, 4, 52, 79
7, 165120, Note_on_c, 4, 52, 63
7, 165600, Note_off_c, 4, 52, 63
7, 165600, Note_on_c, 4, 52, 63
7, 166080, Note_off_c, 4, 52, 63
7, 166080, Note_on_c, 4, 52, 63
7, 166560, Note_off_c, 4, 52, 63
7, 166560, Note_on_c, 4, 52, 95
7, 167040, Note_off_c, 4, 52, 95
7, 167040, Note_on_c, 4, 52, 79
7, 167520, Note_off_c, 4, 52, 79
7, 167520, Note_on_c, 4, 52, 63
7, 168000, Note_off_c, 4, 52, 63
7, 168000, Note_on_c, 4, 52, 95
7, 168480, Note_off_c, 4, 52, 95
7, 168480, Note_on_c, 4, 52, 79
7, 168720, Note_off_c, 4, 52, 79
7, 168720, Note_on_c, 4, 52, 95
7, 168960, Note_off_c, 4, 52, 95
7, 168960, Note_on_c, 4, 52, 63
7, 169440, Note_off_c, 4, 52, 63
7, 169440, Note_on_c, 4, 52, 63
7, 169920, Note_off_c, 4, 52, 63
7, 169920, Note_on_c, 4, 52, 63
7, 170400, Note_off_c, 4, 52, 63
7, 170400, Note_on_c, 4, 52, 95
7, 170880, Note_off_c, 4, 52, 95
7, 170880, Note_on_c, 4, 52, 79
7, 171360, Note_off_c, 4, 52, 79
7, 171360, Note_on_c, 4, 52, 63
7, 171840, Note_off_c, 4, 52, 63
7, 171840, Note_on_c, 4, 52, 95
7, 172320, Note_off_c, 4, 52, 95
7, 172320, Note_on_c, 4, 52, 79
7, 172800, Note_off_c, 4, 52, 79
7, 172800, Note_on_c, 4, 52, 63
7, 173280, Note_off_c, 4, 52, 63
7, 173280, Note_on_c, 4, 52, 63
7, 173760, Note_off_c, 4, 52, 63
7, 173760, Note_on_c, 4, 52, 63
7, 174240, Note_off_c, 4, 52, 63
7, 174240, Note_on_c, 4, 52, 95
7, 174720, Note_off_c, 4, 52, 95
7, 174720, Note_on_c, 4, 52, 79
7, 175200, Note_off_c, 4, 52, 79
7, 175200, Note_on_c, 4, 52, 63
7, 175680, Note_off_c, 4, 52, 63
7, 175680, Note_on_c, 4, 52, 95
7, 176160, Note_off_c, 4, 52, 95
7, 176160, Note_on_c, 4, 52, 79
7, 176640, Note_off_c, 4, 52, 79
7, 176640, Note_on_c, 4, 52, 63
7, 177120, Note_off_c, 4, 52, 63
7, 177120, Note_on_c, 4, 52, 63
7, 177600, Note_off_c, 4, 52, 63
7, 177600, Note_on_c, 4, 52, 63
7, 178080, Note_off_c, 4, 52, 63
7, 178080, Note_on_c, 4, 52, 95
7, 178560, Note_off_c, 4, 52, 95
7, 178560, Note_on_c, 4, 52, 79
7, 179040, Note_off_c, 4, 52, 79
7, 179040, Note_on_c, 4, 52, 63
7, 179520, Note_off_c, 4, 52, 63
7, 179520, Note_on_c, 4, 52, 95
7, 180000, Note_off_c, 4, 52, 95
7, 180000, Note_on_c, 4, 52, 79
7, 180480, Note_off_c, 4, 52, 79
7, 180480, Note_on_c, 4, 52, 63
7, 180960, Note_off_c, 4, 52, 63
7, 180960, Note_on_c, 4, 52, 63
7, 181440, Note_off_c, 4, 52, 63
7, 181440, Note_on_c, 4, 52, 63
7, 181920, Note_off_c, 4, 52, 63
7, 181920, Note_on_c, 4, 52, 95
7, 182400, Note_off_c, 4, 52, 95
7, 182400, Note_on_c, 4, 52, 79
7, 182880, Note_off_c, 4, 52, 79
7, 182880, Note_on_c, 4, 52, 63
7, 183360, Note_off_c, 4, 52, 63
7, 183360, Note_on_c, 4, 52, 95
7, 183840, Note_off_c, 4, 52, 95
7, 183840, Note_on_c, 4, 52, 79
7, 184320, Note_off_c, 4, 52, 79
7, 184320, Note_on_c, 4, 52, 63
7, 184800, Note_off_c, 4, 52, 63
7, 184800, Note_on_c, 4, 52, 63
7, 185280, Note_off_c, 4, 52, 63
7, 185280, Note_on_c, 4, 52, 63
7, 185760, Note_off_c, 4, 52, 63
7, 185760, Note_on_c, 4, 52, 95
7, 186240, Note_off_c, 4, 52, 95
7, 186240, Note_on_c, 4, 52, 79
7, 186720, Note_off_c, 4, 52, 79
7, 186720, Note_on_c, 4, 52, 63
7, 187200, Note_off_c, 4, 52, 63
7, 187200, Note_on_c, 4, 52, 95
7, 187680, Note_off_c, 4, 52, 95
7, 187680, Note_on_c, 4, 52, 79
7, 188160, Note_off_c, 4, 52, 79
7, 188160, Note_on_c, 4, 52, 63
7, 188640, Note_off_c, 4, 52, 63
7, 188640, Note_on_c, 4, 52, 63
7, 189120, Note_off_c, 4, 52, 63
7, 189120, Note_on_c, 4, 52, 63
7, 189600, Note_off_c, 4, 52, 63
7, 189600, Note_on_c, 4, 52, 95
7, 190080, Note_off_c, 4, 52, 95
7, 190080, Note_on_c, 4, 52, 79
7, 190560, Note_off_c, 4, 52, 79
7, 190560, Note_on_c, 4, 52, 63
7, 191040, Note_off_c, 4, 52, 63
7, 191040, Note_on_c, 4, 52, 95
7, 191520, Note_off_c, 4, 52, 95
7, 191520, Note_on_c, 4, 52, 79
7, 192000, Note_off_c, 4, 52, 79
7, 192000, Note_on_c, 4, 52, 63
7, 192480, Note_off_c, 4, 52, 63
7, 192480, Note_on_c, 4, 52, 63
7, 192960, Note_off_c, 4, 52, 63
7, 192960, Note_on_c, 4, 52, 63
7, 193440, Note_off_c, 4, 52, 63
7, 193440, Note_on_c, 4, 52, 95
7, 193920, Note_off_c, 4, 52, 95
7, 193920, Note_on_c, 4, 52, 79
7, 194400, Note_off_c, 4, 52, 79
7, 194400, Note_on_c, 4, 52, 63
7, 194880, Note_off_c, 4, 52, 63
7, 194880, Note_on_c, 4, 52, 95
7, 195360, Note_off_c, 4, 52, 95
7, 195360, Note_on_c, 4, 52, 79
7, 195840, Note_off_c, 4, 52, 79
7, 195840, Note_on_c, 4, 52, 63
7, 196320, Note_off_c, 4, 52, 63
7, 196320, Note_on_c, 4, 52, 63
7, 196800, Note_off_c, 4, 52, 63
7, 196800, Note_on_c, 4, 52, 63
7, 197280, Note_off_c, 4, 52, 63
7, 197280, Note_on_c, 4, 52, 95
7, 197760, Note_off_c, 4, 52, 95
7, 197760, Note_on_c, 4, 52, 79
7, 198240, Note_off_c, 4, 52, 79
7, 198240, Note_on_c, 4, 52, 63
7, 198720, Note_off_c, 4, 52, 63
7, 198720, Note_on_c, 4, 52, 95
7, 199200, Note_off_c, 4, 52, 95
7, 199200, Note_on_c, 4, 52, 79
7, 199680, Note_off_c, 4, 52, 79
7, 199680, Note_on_c, 4, 52, 63
7, 200160, Note_off_c, 4, 52, 63
7, 200160, Note_on_c, 4, 52, 63
7, 200640, Note_off_c, 4, 52, 63
7, 200640, Note_on_c, 4, 52, 63
7, 201120, Note_off_c, 4, 52, 63
7, 201120, Note_on_c, 4, 52, 95
7, 201600, Note_off_c, 4, 52, 95
7, 201600, Note_on_c, 4, 52, 79
7, 202080, Note_off_c, 4, 52, 79
7, 202080, Note_on_c, 4, 52, 63
7, 202560, Note_off_c, 4, 52, 63
7, 202560, Note_on_c, 4, 52, 95
7, 203040, Note_off_c, 4, 52, 95
7, 203040, Note_on_c, 4, 52, 79
7, 203520, Note_off_c, 4, 52, 79
7, 203520, Note_on_c, 4, 52, 63
7, 204000, Note_off_c, 4, 52, 63
7, 204000, Note_on_c, 4, 52, 63
7, 204480, Note_off_c, 4, 52, 63
7, 204480, Note_on_c, 4, 52, 63
7, 204960, Note_off_c, 4, 52, 63
7, 204960, Note_on_c, 4, 52, 95
7, 205440, Note_off_c, 4, 52, 95
7, 205440, Note_on_c, 4, 52, 79
7, 205920, Note_off_c, 4, 52, 79
7, 205920, Note_on_c, 4, 52, 63
7, 206400, Note_off_c, 4, 52, 63
7, 206400, Note_on_c, 4, 52, 95
7, 206880, Note_off_c, 4, 52, 95
7, 206880, Note_on_c, 4, 52, 79
7, 207360, Note_off_c, 4, 52, 79
7, 207360, Note_on_c, 4, 52, 63
7, 207840, Note_off_c, 4, 52, 63
7, 207840, Note_on_c, 4, 52, 63
7, 208320, Note_off_c, 4, 52, 63
7, 208320, Note_on_c, 4, 52, 63
7, 208800, Note_off_c, 4, 52, 63
7, 208800, Note_on_c, 4, 52, 95
7, 209280, Note_off_c, 4, 52, 95
7, 209280, Note_on_c, 4, 52, 79
7, 209760, Note_off_c, 4, 52, 79
7, 209760, Note_on_c, 4, 52, 63
7, 210240, Note_off_c, 4, 52, 63
7, 210240, Note_on_c, 4, 52, 95
7, 210720, Note_off_c, 4, 52, 95
7, 210720, Note_on_c, 4, 52, 79
7, 211200, Note_off_c, 4, 52, 79
7, 211200, Note_on_c, 4, 52, 63
7, 211680, Note_off_c, 4, 52, 63
7, 211680, Note_on_c, 4, 52, 63
7, 212160, Note_off_c, 4, 52, 63
7, 212160, Note_on_c, 4, 52, 63
7, 212640, Note_off_c, 4, 52, 63
7, 212640, Note_on_c, 4, 52, 95
7, 213120, Note_off_c, 4, 52, 95
7, 213120, Note_on_c, 4, 52, 79
7, 213600, Note_off_c, 4, 52, 79
7, 213600, Note_on_c, 4, 52, 63
7, 214080, Note_off_c, 4, 52, 63
7, 214080, Note_on_c, 4, 52, 95
7, 214560, Note_off_c, 4, 52, 95
7, 214560, Note_on_c, 4, 52, 79
7, 215040, Note_off_c, 4, 52, 79
7, 215040, Note_on_c, 4, 52, 63
7, 215520, Note_off_c, 4, 52, 63
7, 215520, Note_on_c, 4, 52, 63
7, 216000, Note_off_c, 4, 52, 63
7, 216000, Note_on_c, 4, 52, 63
7, 216480, Note_off_c, 4, 52, 63
7, 216480, Note_on_c, 4, 52, 95
7, 216960, Note_off_c, 4, 52, 95
7, 216960, Note_on_c, 4, 52, 79
7, 217440, Note_off_c, 4, 52, 79
7, 217440, Note_on_c, 4, 52, 63
7, 217920, Note_off_c, 4, 52, 63
7, 217920, Note_on_c, 4, 52, 95
7, 218400, Note_off_c, 4, 52, 95
7, 218400, Note_on_c, 4, 52, 79
7, 218880, Note_off_c, 4, 52, 79
7, 218880, Note_on_c, 4, 52, 63
7, 219360, Note_off_c, 4, 52, 63
7, 219360, Note_on_c, 4, 52, 63
7, 219840, Note_off_c, 4, 52, 63
7, 219840, Note_on_c, 4, 52, 63
7, 220320, Note_off_c, 4, 52, 63
7, 220320, Note_on_c, 4, 52, 95
7, 220800, Note_off_c, 4, 52, 95
7, 220800, Note_on_c, 4, 52, 79
7, 221280, Note_off_c, 4, 52, 79
7, 221280, Note_on_c, 4, 52, 63
7, 221760, Note_off_c, 4, 52, 63
7, 221760, Note_on_c, 4, 52, 95
7, 222240, Note_off_c, 4, 52, 95
7, 222240, Note_on_c, 4, 52, 79
7, 222720, Note_off_c, 4, 52, 79
7, 222720, Note_on_c, 4, 52, 63
7, 223200, Note_off_c, 4, 52, 63
7, 223200, Note_on_c, 4, 52, 63
7, 223680, Note_off_c, 4, 52, 63
7, 223680, Note_on_c, 4, 52, 63
7, 224160, Note_off_c, 4, 52, 63
7, 224160, Note_on_c, 4, 52, 95
7, 224640, Note_off_c, 4, 52, 95
7, 224640, Note_on_c, 4, 52, 79
7, 225120, Note_off_c, 4, 52, 79
7, 225120, Note_on_c, 4, 52, 63
7, 225600, Note_off_c, 4, 52, 63
7, 225600, Note_on_c, 4, 52, 95
7, 226080, Note_off_c, 4, 52, 95
7, 226080, Note_on_c, 4, 52, 79
7, 226560, Note_off_c, 4, 52, 79
7, 226560, Note_on_c, 4, 52, 63
7, 227040, Note_off_c, 4, 52, 63
7, 227040, Note_on_c, 4, 52, 63
7, 227520, Note_off_c, 4, 52, 63
7, 227520, Note_on_c, 4, 52, 63
7, 228000, Note_off_c, 4, 52, 63
7, 228000, Note_on_c, 4, 52, 95
7, 228480, Note_off_c, 4, 52, 95
7, 228480, Note_on_c, 4, 52, 79
7, 228960, Note_off_c, 4, 52, 79
7, 228960, Note_on_c, 4, 52, 63
7, 229440, Note_off_c, 4, 52, 63
7, 229440, Note_on_c, 4, 52, 95
7, 229920, Note_off_c, 4, 52, 95
7, 229920, Note_on_c, 4, 52, 79
7, 230400, Note_off_c, 4, 52, 79
7, 230400, Note_on_c, 4, 52, 63
7, 230880, Note_off_c, 4, 52, 63
7, 230880, Note_on_c, 4, 52, 63
7, 231360, Note_off_c, 4, 52, 63
7, 231360, Note_on_c, 4, 52, 63
7, 231840, Note_off_c, 4, 52, 63
7, 231840, Note_on_c, 4, 52, 95
7, 232320, Note_off_c, 4, 52, 95
7, 232320, Note_on_c, 4, 52, 79
7, 232800, Note_off_c, 4, 52, 79
7, 232800, Note_on_c, 4, 52, 63
7, 233280, Note_off_c, 4, 52, 63
7, 233280, Note_on_c, 4, 52, 95
7, 233760, Note_off_c, 4, 52, 95
7, 233760, Note_on_c, 4, 52, 79
7, 234240, Note_off_c, 4, 52, 79
7, 234240, Note_on_c, 4, 52, 63
7, 234720, Note_off_c, 4, 52, 63
7, 234720, Note_on_c, 4, 52, 63
7, 235200, Note_off_c, 4, 52, 63
7, 235200, Note_on_c, 4, 52, 63
7, 235680, Note_off_c, 4, 52, 63
7, 235680, Note_on_c, 4, 52, 95
7, 236160, Note_off_c, 4, 52, 95
7, 236160, Note_on_c, 4, 52, 79
7, 236640, Note_off_c, 4, 52, 79
7, 236640, Note_on_c, 4, 52, 63
7, 237120, Note_off_c, 4, 52, 63
7, 237120, Note_on_c, 4, 52, 95
7, 237600, Note_off_c, 4, 52, 95
7, 237600, Note_on_c, 4, 52, 79
7, 238080, Note_off_c, 4, 52, 79
7, 238080, Note_on_c, 4, 52, 63
7, 238560, Note_off_c, 4, 52, 63
7, 238560, Note_on_c, 4, 52, 63
7, 239040, Note_off_c, 4, 52, 63
7, 239040, Note_on_c, 4, 52, 63
7, 239520, Note_off_c, 4, 52, 63
7, 239520, Note_on_c, 4, 52, 95
7, 240000, Note_off_c, 4, 52, 95
7, 240000, Note_on_c, 4, 52, 79
7, 240480, Note_off_c, 4, 52, 79
7, 240480, Note_on_c, 4, 52, 63
7, 240960, Note_off_c, 4, 52, 63
7, 240960, Note_on_c, 4, 52, 95
7, 241440, Note_off_c, 4, 52, 95
7, 241440, Note_on_c, 4, 52, 79
7, 241920, Note_off_c, 4, 52, 79
7, 241920, Note_on_c, 4, 52, 63
7, 242400, Note_off_c, 4, 52, 63
7, 242400, Note_on_c, 4, 52, 63
7, 242880, Note_off_c, 4, 52, 63
7, 242880, Note_on_c, 4, 52, 63
7, 243360, Note_off_c, 4, 52, 63
7, 243360, Note_on_c, 4, 52, 95
7, 243840, Note_off_c, 4, 52, 95
7, 243840, Note_on_c, 4, 52, 79
7, 244320, Note_off_c, 4, 52, 79
7, 244320, Note_on_c, 4, 52, 63
7, 244800, Note_off_c, 4, 52, 63
7, 244800, Note_on_c, 4, 52, 95
7, 245280, Note_off_c, 4, 52, 95
7, 245280, Note_on_c, 4, 52, 79
7, 245760, Note_off_c, 4, 52, 79
7, 245760, Note_on_c, 4, 52, 63
7, 246240, Note_off_c, 4, 52, 63
7, 246240, Note_on_c, 4, 52, 63
7, 246720, Note_off_c, 4, 52, 63
7, 246720, Note_on_c, 4, 52, 63
7, 247200, Note_off_c, 4, 52, 63
7, 247200, Note_on_c, 4, 52, 95
7, 247680, Note_off_c, 4, 52, 95
7, 247680, Note_on_c, 4, 52, 79
7, 248160, Note_off_c, 4, 52, 79
7, 248160, Note_on_c, 4, 52, 63
7, 248640, Note_off_c, 4, 52, 63
7, 248640, Note_on_c, 4, 52, 95
7, 249120, Note_off_c, 4, 52, 95
7, 249120, Note_on_c, 4, 52, 79
7, 249600, Note_off_c, 4, 52, 79
7, 249600, Note_on_c, 4, 52, 63
7, 250080, Note_off_c, 4, 52, 63
7, 250080, Note_on_c, 4, 52, 63
7, 250560, Note_off_c, 4, 52, 63
7, 250560, Note_on_c, 4, 52, 63
7, 251040, Note_off_c, 4, 52, 63
7, 251040, Note_on_c, 4, 52, 95
7, 251520, Note_off_c, 4, 52, 95
7, 251520, Note_on_c, 4, 52, 79
7, 252000, Note_off_c, 4, 52, 79
7, 252000, Note_on_c, 4, 52, 63
7, 252480, Note_off_c, 4, 52, 63
7, 252480, Note_on_c, 4, 52, 95
7, 252960, Note_off_c, 4, 52, 95
7, 252960, Note_on_c, 4, 52, 79
7, 253440, Note_off_c, 4, 52, 79
7, 253440, Note_on_c, 4, 52, 63
7, 253920, Note_off_c, 4, 52, 63
7, 253920, Note_on_c, 4, 52, 63
7, 254400, Note_off_c, 4, 52, 63
7, 254400, Note_on_c, 4, 52, 63
7, 254880, Note_off_c, 4, 52, 63
7, 254880, Note_on_c, 4, 52, 95
7, 255360, Note_off_c, 4, 52, 95
7, 255360, Note_on_c, 4, 52, 79
7, 255840, Note_off_c, 4, 52, 79
7, 255840, Note_on_c, 4, 52, 63
7, 256320, Note_off_c, 4, 52, 63
7, 256320, Note_on_c, 4, 52, 95
7, 256800, Note_off_c, 4, 52, 95
7, 256800, Note_on_c, 4, 52, 79
7, 257280, Note_off_c, 4, 52, 79
7, 257280, Note_on_c, 4, 52, 63
7, 257760, Note_off_c, 4, 52, 63
7, 257760, Note_on_c, 4, 52, 63
7, 258240, Note_off_c, 4, 52, 63
7, 258240, Note_on_c, 4, 52, 63
7, 258720, Note_off_c, 4, 52, 63
7, 258720, Note_on_c, 4, 52, 95
7, 259200, Note_off_c, 4, 52, 95
7, 259200, Note_on_c, 4, 52, 79
7, 259680, Note_off_c, 4, 52, 79
7, 259680, Note_on_c, 4, 52, 63
7, 260160, Note_off_c, 4, 52, 63
7, 260160, Note_on_c, 4, 52, 95
7, 260640, Note_off_c, 4, 52, 95
7, 260640, Note_on_c, 4, 52, 79
7, 261120, Note_off_c, 4, 52, 79
7, 261120, Note_on_c, 4, 52, 63
7, 261600, Note_off_c, 4, 52, 63
7, 261600, Note_on_c, 4, 52, 63
7, 262080, Note_off_c, 4, 52, 63
7, 262080, Note_on_c, 4, 52, 63
7, 262560, Note_off_c, 4, 52, 63
7, 262560, Note_on_c, 4, 52, 95
7, 263040, Note_off_c, 4, 52, 95
7, 263040, Note_on_c, 4, 52, 79
7, 263520, Note_off_c, 4, 52, 79
7, 263520, Note_on_c, 4, 52, 63
7, 264000, Note_off_c, 4, 52, 63
7, 264000, Note_on_c, 4, 52, 95
7, 264480, Note_off_c, 4, 52, 95
7, 264480, Note_on_c, 4, 52, 79
7, 264960, Note_off_c, 4, 52, 79
7, 264960, Note_on_c, 4, 52, 63
7, 265440, Note_off_c, 4, 52, 63
7, 265440, Note_on_c, 4, 52, 63
7, 265920, Note_off_c, 4, 52, 63
7, 265920, Note_on_c, 4, 52, 63
7, 266400, Note_off_c, 4, 52, 63
7, 266400, Note_on_c, 4, 52, 95
7, 266880, Note_off_c, 4, 52, 95
7, 266880, Note_on_c, 4, 52, 79
7, 267360, Note_off_c, 4, 52, 79
7, 267360, Note_on_c, 4, 52, 63
7, 267840, Note_off_c, 4, 52, 63
7, 267840, Note_on_c, 4, 52, 95
7, 268320, Note_off_c, 4, 52, 95
7, 268320, Note_on_c, 4, 52, 79
7, 268800, Note_off_c, 4, 52, 79
7, 268800, Note_on_c, 4, 52, 63
7, 269280, Note_off_c, 4, 52, 63
7, 269280, Note_on_c, 4, 52, 63
7, 269760, Note_off_c, 4, 52, 63
7, 269760, Note_on_c, 4, 52, 63
7, 270240, Note_off_c, 4, 52, 63
7, 270240, Note_on_c, 4, 52, 95
7, 270720, Note_off_c, 4, 52, 95
7, 270720, Note_on_c, 4, 52, 79
7, 271200, Note_off_c, 4, 52, 79
7, 271200, Note_on_c, 4, 52, 63
7, 271680, Note_off_c, 4, 52, 63
7, 271680, Note_on_c, 4, 52, 95
7, 272160, Note_off_c, 4, 52, 95
7, 272160, Note_on_c, 4, 52, 79
7, 272640, Note_off_c, 4, 52, 79
7, 272640, Note_on_c, 4, 52, 63
7, 273120, Note_off_c, 4, 52, 63
7, 273120, Note_on_c, 4, 52, 63
7, 273600, Note_off_c, 4, 52, 63
7, 273600, Note_on_c, 4, 52, 63
7, 274080, Note_off_c, 4, 52, 63
7, 274080, Note_on_c, 4, 52, 95
7, 274560, Note_off_c, 4, 52, 95
7, 274560, Note_on_c, 4, 52, 79
7, 275040, Note_off_c, 4, 52, 79
7, 275040, Note_on_c, 4, 52, 63
7, 275520, Note_off_c, 4, 52, 63
7, 275520, Note_on_c, 4, 52, 95
7, 276000, Note_off_c, 4, 52, 95
7, 276000, Note_on_c, 4, 52, 79
7, 276480, Note_off_c, 4, 52, 79
7, 276480, Note_on_c, 4, 52, 63
7, 276960, Note_off_c, 4, 52, 63
7, 276960, Note_on_c, 4, 52, 63
7, 277440, Note_off_c, 4, 52, 63
7, 277440, Note_on_c, 4, 52, 63
7, 277920, Note_off_c, 4, 52, 63
7, 277920, Note_on_c, 4, 52, 95
7, 278400, Note_off_c, 4, 52, 95
7, 278400, Note_on_c, 4, 52, 79
7, 278880, Note_off_c, 4, 52, 79
7, 278880, Note_on_c, 4, 52, 63
7, 279360, Note_off_c, 4, 52, 63
7, 279360, Note_on_c, 4, 52, 95
7, 279840, Note_off_c, 4, 52, 95
7, 279840, Note_on_c, 4, 52, 79
7, 280320, Note_off_c, 4, 52, 79
7, 280320, Note_on_c, 4, 52, 63
7, 280800, Note_off_c, 4, 52, 63
7, 280800, Note_on_c, 4, 52, 63
7, 281280, Note_off_c, 4, 52, 63
7, 281280, Note_on_c, 4, 52, 63
7, 281760, Note_off_c, 4, 52, 63
7, 281760, Note_on_c, 4, 52, 95
7, 282240, Note_off_c, 4, 52, 95
7, 282240, Note_on_c, 4, 52, 79
7, 282720, Note_off_c, 4, 52, 79
7, 282720, Note_on_c, 4, 52, 63
7, 283200, Note_off_c, 4, 52, 63
7, 283200, Note_on_c, 4, 52, 95
7, 283680, Note_off_c, 4, 52, 95
7, 283680, Note_on_c, 4, 52, 79
7, 284160, Note_off_c, 4, 52, 79
7, 284160, Note_on_c, 4, 52, 63
7, 284640, Note_off_c, 4, 52, 63
7, 284640, Note_on_c, 4, 52, 63
7, 285120, Note_off_c, 4, 52, 63
7, 285120, Note_on_c, 4, 52, 63
7, 285600, Note_off_c, 4, 52, 63
7, 285600, Note_on_c, 4, 52, 95
7, 286080, Note_off_c, 4, 52, 95
7, 286080, Note_on_c, 4, 52, 79
7, 286560, Note_off_c, 4, 52, 79
7, 286560, Note_on_c, 4, 52, 63
7, 287040, Note_off_c, 4, 52, 63
7, 287040, Note_on_c, 4, 52, 95
7, 287520, Note_off_c, 4, 52, 95
7, 287520, Note_on_c, 4, 52, 79
7, 288000, Note_off_c, 4, 52, 79
7, 288000, Note_on_c, 4, 52, 63
7, 288480, Note_off_c, 4, 52, 63
7, 288480, Note_on_c, 4, 52, 63
7, 288960, Note_off_c, 4, 52, 63
7, 288960, Note_on_c, 4, 52, 63
7, 289440, Note_off_c, 4, 52, 63
7, 289440, Note_on_c, 4, 52, 95
7, 289920, Note_off_c, 4, 52, 95
7, 289920, Note_on_c, 4, 52, 79
7, 290400, Note_off_c, 4, 52, 79
7, 290400, Note_on_c, 4, 52, 63
7, 290880, Note_off_c, 4, 52, 63
7, 290880, Note_on_c, 4, 52, 95
7, 291360, Note_off_c, 4, 52, 95
7, 291360, Note_on_c, 4, 52, 79
7, 291840, Note_off_c, 4, 52, 79
7, 291840, Note_on_c, 4, 52, 63
7, 292320, Note_off_c, 4, 52, 63
7, 292320, Note_on_c, 4, 52, 63
7, 292800, Note_off_c, 4, 52, 63
7, 292800, Note_on_c, 4, 52, 63
7, 293280, Note_off_c, 4, 52, 63
7, 293280, Note_on_c, 4, 52, 95
7, 293760, Note_off_c, 4, 52, 95
7, 293760, Note_on_c, 4, 52, 79
7, 294240, Note_off_c, 4, 52, 79
7, 294240, Note_on_c, 4, 52, 63
7, 294720, Note_off_c, 4, 52, 63
7, 294720, Note_on_c, 4, 52, 95
7, 295200, Note_off_c, 4, 52, 95
7, 295200, Note_on_c, 4, 52, 79
7, 295680, Note_off_c, 4, 52, 79
7, 295680, Note_on_c, 4, 52, 63
7, 296160, Note_off_c, 4, 52, 63
7, 296160, Note_on_c, 4, 52, 63
7, 296640, Note_off_c, 4, 52, 63
7, 296640, Note_on_c, 4, 52, 63
7, 297120, Note_off_c, 4, 52, 63
7, 297120, Note_on_c, 4, 52, 95
7, 297600, Note_off_c, 4, 52, 95
7, 297600, Note_on_c, 4, 52, 79
7, 298080, Note_off_c, 4, 52, 79
7, 298080, Note_on_c, 4, 52, 63
7, 298560, Note_off_c, 4, 52, 63
7, 298560, Note_on_c, 4, 52, 95
7, 299040, Note_off_c, 4, 52, 95
7, 299040, Note_on_c, 4, 52, 79
7, 299520, Note_off_c, 4, 52, 79
7, 299520, Note_on_c, 4, 52, 63
7, 300000, Note_off_c, 4, 52, 63
7, 300000, Note_on_c, 4, 52, 63
7, 300480, Note_off_c, 4, 52, 63
7, 300480, Note_on_c, 4, 52, 63
7, 300960, Note_off_c, 4, 52, 63
7, 300960, Note_on_c, 4, 52, 95
7, 301440, Note_off_c, 4, 52, 95
7, 301440, Note_on_c, 4, 52, 79
7, 301920, Note_off_c, 4, 52, 79
7, 301920, Note_on_c, 4, 52, 63
7, 302400, Note_off_c, 4, 52, 63
7, 302400, Note_on_c, 4, 52, 95
7, 302880, Note_off_c, 4, 52, 95
7, 302880, Note_on_c, 4, 52, 79
7, 303360, Note_off_c, 4, 52, 79
7, 303360, Note_on_c, 4, 52, 63
7, 303840, Note_off_c, 4, 52, 63
7, 303840, Note_on_c, 4, 52, 63
7, 304320, Note_off_c, 4, 52, 63
7, 304320, Note_on_c, 4, 52, 63
7, 304800, Note_off_c, 4, 52, 63
7, 304800, Note_on_c, 4, 52, 95
7, 305280, Note_off_c, 4, 52, 95
7, 305280, Note_on_c, 4, 52, 79
7, 305760, Note_off_c, 4, 52, 79
7, 305760, Note_on_c, 4, 52, 63
7, 306240, Note_off_c, 4, 52, 63
7, 306240, Note_on_c, 4, 52, 95
7, 306720, Note_off_c, 4, 52, 95
7, 306720, Note_on_c, 4, 52, 79
7, 306960, Note_off_c, 4, 52, 79
7, 306960, Note_on_c, 4, 52, 95
7, 307200, Note_off_c, 4, 52, 95
7, 307200, Note_on_c, 4, 52, 63
7, 307680, Note_off_c, 4, 52, 63
7, 307680, Note_on_c, 4, 52, 63
7, 308160, Note_off_c, 4, 52, 63
7, 308160, Note_on_c, 4, 52, 63
7, 308640, Note_off_c, 4, 52, 63
7, 308640, Note_on_c, 4, 52, 95
7, 309120, Note_off_c, 4, 52, 95
7, 309120, Note_on_c, 4, 52, 79
7, 309600, Note_off_c, 4, 52, 79
7, 309600, Note_on_c, 4, 52, 63
7, 310080, Note_off_c, 4, 52, 63
7, 310080, Note_on_c, 4, 52, 95
7, 310560, Note_off_c, 4, 52, 95
7, 310560, Note_on_c, 4, 52, 79
7, 311040, Note_off_c, 4, 52, 79
7, 311040, Note_on_c, 4, 52, 63
7, 311520, Note_off_c, 4, 52, 63
7, 311520, Note_on_c, 4, 52, 63
7, 312000, Note_off_c, 4, 52, 63
7, 312000, Note_on_c, 4, 52, 63
7, 312480, Note_off_c, 4, 52, 63
7, 312480, Note_on_c, 4, 52, 95
7, 312960, Note_off_c, 4, 52, 95
7, 312960, Note_on_c, 4, 52, 79
7, 313440, Note_off_c, 4, 52, 79
7, 313440, Note_on_c, 4, 52, 63
7, 313920, Note_off_c, 4, 52, 63
7, 313920, Note_on_c, 4, 52, 95
7, 314400, Note_off_c, 4, 52, 95
7, 314400, Note_on_c, 4, 52, 79
7, 314880, Note_off_c, 4, 52, 79
7, 314880, Note_on_c, 4, 52, 63
7, 315360, Note_off_c, 4, 52, 63
7, 315360, Note_on_c, 4, 52, 63
7, 315840, Note_off_c, 4, 52, 63
7, 315840, Note_on_c, 4, 52, 63
7, 316320, Note_off_c, 4, 52, 63
7, 316320, Note_on_c, 4, 52, 95
7, 316800, Note_off_c, 4, 52, 95
7, 316800, Note_on_c, 4, 52, 79
7, 317280, Note_off_c, 4, 52, 79
7, 317280, Note_on_c, 4, 52, 63
7, 317760, Note_off_c, 4, 52, 63
7, 317760, Note_on_c, 4, 52, 95
7, 318240, Note_off_c, 4, 52, 95
7, 318240, Note_on_c, 4, 52, 79
7, 318720, Note_off_c, 4, 52, 79
7, 318720, Note_on_c, 4, 52, 63
7, 319200, Note_off_c, 4, 52, 63
7, 319200, Note_on_c, 4, 52, 63
7, 319680, Note_off_c, 4, 52, 63
7, 319680, Note_on_c, 4, 52, 63
7, 320160, Note_off_c, 4, 52, 63
7, 320160, Note_on_c, 4, 52, 95
7, 320640, Note_off_c, 4, 52, 95
7, 320640, Note_on_c, 4, 52, 79
7, 321120, Note_off_c, 4, 52, 79
7, 321120, Note_on_c, 4, 52, 63
7, 321600, Note_off_c, 4, 52, 63
7, 321600, Note_on_c, 4, 52, 95
7, 322080, Note_off_c, 4, 52, 95
7, 322080, Note_on_c, 4, 52, 79
7, 322560, Note_off_c, 4, 52, 79
7, 322560, Note_on_c, 4, 52, 63
7, 323040, Note_off_c, 4, 52, 63
7, 323040, Note_on_c, 4, 52, 63
7, 323520, Note_off_c, 4, 52, 63
7, 323520, Note_on_c, 4, 52, 63
7, 324000, Note_off_c, 4, 52, 63
7, 324000, Note_on_c, 4, 52, 95
7, 324480, Note_off_c, 4, 52, 95
7, 324480, Note_on_c, 4, 52, 79
7, 324960, Note_off_c, 4, 52, 79
7, 324960, Note_on_c, 4, 52, 63
7, 325440, Note_off_c, 4, 52, 63
7, 325440, Note_on_c, 4, 52, 95
7, 325920, Note_off_c, 4, 52, 95
7, 325920, Note_on_c, 4, 52, 79
7, 326400, Note_off_c, 4, 52, 79
7, 326400, Note_on_c, 4, 52, 63
7, 326880, Note_off_c, 4, 52, 63
7, 326880, Note_on_c, 4, 52, 63
7, 327360, Note_off_c, 4, 52, 63
7, 327360, Note_on_c, 4, 52, 63
7, 327840, Note_off_c, 4, 52, 63
7, 327840, Note_on_c, 4, 52, 95
7, 328320, Note_off_c, 4, 52, 95
7, 328320, Note_on_c, 4, 52, 79
7, 328800, Note_off_c, 4, 52, 79
7, 328800, Note_on_c, 4, 52, 63
7, 329280, Note_off_c, 4, 52, 63
7, 329280, Note_on_c, 4, 52, 95
7, 329760, Note_off_c, 4, 52, 95
7, 329760, Note_on_c, 4, 52, 79
7, 330240, Note_off_c, 4, 52, 79
7, 330240, Note_on_c, 4, 52, 63
7, 330720, Note_off_c, 4, 52, 63
7, 330720, Note_on_c, 4, 52, 63
7, 331200, Note_off_c, 4, 52, 63
7, 331200, Note_on_c, 4, 52, 63
7, 331680, Note_off_c, 4, 52, 63
7, 331680, Note_on_c, 4, 52, 95
7, 332160, Note_off_c, 4, 52, 95
7, 332160, Note_on_c, 4, 52, 79
7, 332640, Note_off_c, 4, 52, 79
7, 332640, Note_on_c, 4, 52, 63
7, 333120, Note_off_c, 4, 52, 63
7, 333120, Note_on_c, 4, 52, 95
7, 333600, Note_off_c, 4, 52, 95
7, 333600, Note_on_c, 4, 52, 79
7, 334080, Note_off_c, 4, 52, 79
7, 334080, Note_on_c, 4, 52, 63
7, 334560, Note_off_c, 4, 52, 63
7, 334560, Note_on_c, 4, 52, 63
7, 335040, Note_off_c, 4, 52, 63
7, 335040, Note_on_c, 4, 52, 63
7, 335520, Note_off_c, 4, 52, 63
7, 335520, Note_on_c, 4, 52, 95
7, 336000, Note_off_c, 4, 52, 95
7, 336000, Note_on_c, 4, 52, 79
7, 336480, Note_off_c, 4, 52, 79
7, 336480, Note_on_c, 4, 52, 63
7, 336960, Note_off_c, 4, 52, 63
7, 336960, Note_on_c, 4, 52, 95
7, 337440, Note_off_c, 4, 52, 95
7, 337440, Note_on_c, 4, 52, 79
7, 337920, Note_off_c, 4, 52, 79
7, 337920, Note_on_c, 4, 52, 63
7, 338400, Note_off_c, 4, 52, 63
7, 338400, Note_on_c, 4, 52, 63
7, 338880, Note_off_c, 4, 52, 63
7, 338880, Note_on_c, 4, 52, 63
7, 339360, Note_off_c, 4, 52, 63
7, 339360, Note_on_c, 4, 52, 95
7, 339840, Note_off_c, 4, 52, 95
7, 339840, Note_on_c, 4, 52, 79
7, 340320, Note_off_c, 4, 52, 79
7, 340320, Note_on_c, 4, 52, 63
7, 340800, Note_off_c, 4, 52, 63
7, 340800, Note_on_c, 4, 52, 95
7, 341280, Note_off_c, 4, 52, 95
7, 341280, Note_on_c, 4, 52, 79
7, 341760, Note_off_c, 4, 52, 79
7, 341760, Note_on_c, 4, 52, 63
7, 342240, Note_off_c, 4, 52, 63
7, 342240, Note_on_c, 4, 52, 63
7, 342720, Note_off_c, 4, 52, 63
7, 342720, Note_on_c, 4, 52, 63
7, 343200, Note_off_c, 4, 52, 63
7, 343200, Note_on_c, 4, 52, 95
7, 343680, Note_off_c, 4, 52, 95
7, 343680, Note_on_c, 4, 52, 79
7, 344160, Note_off_c, 4, 52, 79
7, 344160, Note_on_c, 4, 52, 63
7, 344640, Note_off_c, 4, 52, 63
7, 344640, Note_on_c, 4, 52, 95
7, 345120, Note_off_c, 4, 52, 95
7, 345120, Note_on_c, 4, 52, 79
7, 345600, Note_off_c, 4, 52, 79
7, 345600, Note_on_c, 4, 52, 63
7, 346080, Note_off_c, 4, 52, 63
7, 346080, Note_on_c, 4, 52, 63
7, 346560, Note_off_c, 4, 52, 63
7, 346560, Note_on_c, 4, 52, 63
7, 347040, Note_off_c, 4, 52, 63
7, 347040, Note_on_c, 4, 52, 95
7, 347520, Note_off_c, 4, 52, 95
7, 347520, Note_on_c, 4, 52, 79
7, 348000, Note_off_c, 4, 52, 79
7, 348000, Note_on_c, 4, 52, 63
7, 348480, Note_off_c, 4, 52, 63
7, 348480, Note_on_c, 4, 52, 95
7, 348960, Note_off_c, 4, 52, 95
7, 348960, Note_on_c, 4, 52, 79
7, 349440, Note_off_c, 4, 52, 79
7, 349440, Note_on_c, 4, 52, 63
7, 349920, Note_off_c, 4, 52, 63
7, 349920, Note_on_c, 4, 52, 63
7, 350400, Note_off_c, 4, 52, 63
7, 350400, Note_on_c, 4, 52, 63
7, 350880, Note_off_c, 4, 52, 63
7, 350880, Note_on_c, 4, 52, 95
7, 351360, Note_off_c, 4, 52, 95
7, 351360, Note_on_c, 4, 52, 79
7, 351840, Note_off_c, 4, 52, 79
7, 351840, Note_on_c, 4, 52, 63
7, 352320, Note_off_c, 4, 52, 63
7, 352320, Note_on_c, 4, 52, 95
7, 352800, Note_off_c, 4, 52, 95
7, 352800, Note_on_c, 4, 52, 79
7, 353280, Note_off_c, 4, 52, 79
7, 353280, Note_on_c, 4, 52, 63
7, 353760, Note_off_c, 4, 52, 63
7, 353760, Note_on_c, 4, 52, 63
7, 354240, Note_off_c, 4, 52, 63
7, 354240, Note_on_c, 4, 52, 63
7, 354720, Note_off_c, 4, 52, 63
7, 354720, Note_on_c, 4, 52, 95
7, 355200, Note_off_c, 4, 52, 95
7, 355200, Note_on_c, 4, 52, 79
7, 355680, Note_off_c, 4, 52, 79
7, 355680, Note_on_c, 4, 52, 63
7, 356160, Note_off_c, 4, 52, 63
7, 356160, Note_on_c, 4, 52, 95
7, 356640, Note_off_c, 4, 52, 95
7, 356640, Note_on_c, 4, 52, 79
7, 357120, Note_off_c, 4, 52, 79
7, 357120, Note_on_c, 4, 52, 63
7, 357600, Note_off_c, 4, 52, 63
7, 357600, Note_on_c, 4, 52, 63
7, 358080, Note_off_c, 4, 52, 63
7, 358080, Note_on_c, 4, 52, 63
7, 358560, Note_off_c, 4, 52, 63
7, 358560, Note_on_c, 4, 52, 95
7, 359040, Note_off_c, 4, 52, 95
7, 359040, Note_on_c, 4, 52, 79
7, 359520, Note_off_c, 4, 52, 79
7, 359520, Note_on_c, 4, 52, 63
7, 360000, Note_off_c, 4, 52, 63
7, 360000, Note_on_c, 4, 52, 95
7, 360480, Note_off_c, 4, 52, 95
7, 360480, Note_on_c, 4, 52, 79
7, 360960, Note_off_c, 4, 52, 79
7, 360960, Note_on_c, 4, 52, 63
7, 361440, Note_off_c, 4, 52, 63
7, 361440, Note_on_c, 4, 52, 63
7, 361920, Note_off_c, 4, 52, 63
7, 361920, Note_on_c, 4, 52, 63
7, 362400, Note_off_c, 4, 52, 63
7, 362400, Note_on_c, 4, 52, 95
7, 362880, Note_off_c, 4, 52, 95
7, 362880, Note_on_c, 4, 52, 79
7, 363360, Note_off_c, 4, 52, 79
7, 363360, Note_on_c, 4, 52, 63
7, 363840, Note_off_c, 4, 52, 63
7, 363840, Note_on_c, 4, 52, 95
7, 364320, Note_off_c, 4, 52, 95
7, 364320, Note_on_c, 4, 52, 79
7, 364800, Note_off_c, 4, 52, 79
7, 364800, Note_on_c, 4, 52, 63
7, 365280, Note_off_c, 4, 52, 63
7, 365280, Note_on_c, 4, 52, 63
7, 365760, Note_off_c, 4, 52, 63
7, 365760, Note_on_c, 4, 52, 63
7, 366240, Note_off_c, 4, 52, 63
7, 366240, Note_on_c, 4, 52, 95
7, 366720, Note_off_c, 4, 52, 95
7, 366720, Note_on_c, 4, 52, 79
7, 367200, Note_off_c, 4, 52, 79
7, 367200, Note_on_c, 4, 52, 63
7, 367680, Note_off_c, 4, 52, 63
7, 367680, Note_on_c, 4, 52, 95
7, 368160, Note_off_c, 4, 52, 95
7, 368160, Note_on_c, 4, 52, 79
7, 368640, Note_off_c, 4, 52, 79
7, 368640, End_track
8, 0, Start_track
8, 0, Pitch_bend_c, 9, 8192
8, 0, Control_c, 9, 7, 127
8, 0, Control_c, 9, 10, 63
8, 0, Control_c, 9, 93, 0
8, 0, Control_c, 9, 91, 0
8, 0, Control_c, 9, 95, 0
8, 0, Control_c, 9, 92, 0
8, 0, Control_c, 9, 11, 127
8, 0, Program_c, 9, 0
8, 0, Note_on_c, 9, 44, 31
8, 0, Note_on_c, 9, 35, 95
8, 960, Note_off_c, 9, 44, 31
8, 960, Note_off_c, 9, 35, 95
8, 960, Note_on_c, 9, 44, 95
8, 960, Note_on_c, 9, 37, 127
8, 1440, Note_off_c, 9, 44, 95
8, 1440, Note_off_c, 9, 37, 127
8, 1440, Note_on_c, 9, 45, 95
8, 1920, Note_off_c, 9, 45, 95
8, 1920, Note_on_c, 9, 44, 31
8, 2400, Note_off_c, 9, 44, 31
8, 2400, Note_on_c, 9, 35, 95
8, 2880, Note_off_c, 9, 35, 95
8, 2880, Note_on_c, 9, 44, 95
8, 2880, Note_on_c, 9, 37, 127
8, 3360, Note_off_c, 9, 44, 95
8, 3360, Note_off_c, 9, 37, 127
8, 3360, Note_on_c, 9, 35, 95
8, 3840, Note_off_c, 9, 35, 95
8, 3840, Note_on_c, 9, 44, 31
8, 3840, Note_on_c, 9, 35, 95
8, 4800, Note_off_c, 9, 44, 31
8, 4800, Note_off_c, 9, 35, 95
8, 4800, Note_on_c, 9, 44, 95
8, 4800, Note_on_c, 9, 37, 127
8, 5280, Note_off_c, 9, 44, 95
8, 5280, Note_off_c, 9, 37, 127
8, 5280, Note_on_c, 9, 45, 95
8, 5760, Note_off_c, 9, 45, 95
8, 5760, Note_on_c, 9, 44, 31
8, 6240, Note_off_c, 9, 44, 31
8, 6240, Note_on_c, 9, 35, 95
8, 6720, Note_off_c, 9, 35, 95
8, 6720, Note_on_c, 9, 44, 95
8, 6720, Note_on_c, 9, 37, 127
8, 7200, Note_off_c, 9, 44, 95
8, 7200, Note_off_c, 9, 37, 127
8, 7200, Note_on_c, 9, 35, 95
8, 7680, Note_off_c, 9, 35, 95
8, 7680, Note_on_c, 9, 44, 31
8, 7680, Note_on_c, 9, 35, 95
8, 8640, Note_off_c, 9, 44, 31
8, 8640, Note_off_c, 9, 35, 95
8, 8640, Note_on_c, 9, 44, 95
8, 8640, Note_on_c, 9, 37, 127
8, 9120, Note_off_c, 9, 44, 95
8, 9120, Note_off_c, 9, 37, 127
8, 9120, Note_on_c, 9, 45, 95
8, 9600, Note_off_c, 9, 45, 95
8, 9600, Note_on_c, 9, 44, 31
8, 10080, Note_off_c, 9, 44, 31
8, 10080, Note_on_c, 9, 35, 95
8, 10560, Note_off_c, 9, 35, 95
8, 10560, Note_on_c, 9, 44, 95
8, 10560, Note_on_c, 9, 37, 127
8, 11040, Note_off_c, 9, 44, 95
8, 11040, Note_off_c, 9, 37, 127
8, 11040, Note_on_c, 9, 35, 95
8, 11520, Note_off_c, 9, 35, 95
8, 11520, Note_on_c, 9, 44, 31
8, 11520, Note_on_c, 9, 35, 95
8, 12480, Note_off_c, 9, 44, 31
8, 12480, Note_off_c, 9, 35, 95
8, 12480, Note_on_c, 9, 44, 95
8, 12480, Note_on_c, 9, 37, 127
8, 12960, Note_off_c, 9, 44, 95
8, 12960, Note_off_c, 9, 37, 127
8, 12960, Note_on_c, 9, 45, 95
8, 13440, Note_off_c, 9, 45, 95
8, 13440, Note_on_c, 9, 44, 31
8, 13920, Note_off_c, 9, 44, 31
8, 13920, Note_on_c, 9, 35, 95
8, 14400, Note_off_c, 9, 35, 95
8, 14400, Note_on_c, 9, 44, 95
8, 14400, Note_on_c, 9, 37, 127
8, 14880, Note_off_c, 9, 44, 95
8, 14880, Note_off_c, 9, 37, 127
8, 14880, Note_on_c, 9, 35, 95
8, 15360, Note_off_c, 9, 35, 95
8, 15360, Note_on_c, 9, 44, 31
8, 15360, Note_on_c, 9, 35, 95
8, 16320, Note_off_c, 9, 44, 31
8, 16320, Note_off_c, 9, 35, 95
8, 16320, Note_on_c, 9, 44, 95
8, 16320, Note_on_c, 9, 37, 127
8, 16800, Note_off_c, 9, 44, 95
8, 16800, Note_off_c, 9, 37, 127
8, 16800, Note_on_c, 9, 45, 95
8, 17280, Note_off_c, 9, 45, 95
8, 17280, Note_on_c, 9, 44, 31
8, 17760, Note_off_c, 9, 44, 31
8, 17760, Note_on_c, 9, 35, 95
8, 18240, Note_off_c, 9, 35, 95
8, 18240, Note_on_c, 9, 44, 95
8, 18240, Note_on_c, 9, 37, 127
8, 18720, Note_off_c, 9, 44, 95
8, 18720, Note_off_c, 9, 37, 127
8, 18720, Note_on_c, 9, 35, 95
8, 19200, Note_off_c, 9, 35, 95
8, 19200, Note_on_c, 9, 44, 31
8, 19200, Note_on_c, 9, 35, 95
8, 20160, Note_off_c, 9, 44, 31
8, 20160, Note_off_c, 9, 35, 95
8, 20160, Note_on_c, 9, 44, 95
8, 20160, Note_on_c, 9, 37, 127
8, 20640, Note_off_c, 9, 44, 95
8, 20640, Note_off_c, 9, 37, 127
8, 20640, Note_on_c, 9, 45, 95
8, 21120, Note_off_c, 9, 45, 95
8, 21120, Note_on_c, 9, 44, 31
8, 21600, Note_off_c, 9, 44, 31
8, 21600, Note_on_c, 9, 35, 95
8, 22080, Note_off_c, 9, 35, 95
8, 22080, Note_on_c, 9, 44, 95
8, 22080, Note_on_c, 9, 37, 127
8, 22560, Note_off_c, 9, 44, 95
8, 22560, Note_off_c, 9, 37, 127
8, 22560, Note_on_c, 9, 35, 95
8, 23040, Note_off_c, 9, 35, 95
8, 23040, Note_on_c, 9, 44, 31
8, 23040, Note_on_c, 9, 35, 95
8, 24000, Note_off_c, 9, 44, 31
8, 24000, Note_off_c, 9, 35, 95
8, 24000, Note_on_c, 9, 44, 95
8, 24000, Note_on_c, 9, 37, 127
8, 24480, Note_off_c, 9, 44, 95
8, 24480, Note_off_c, 9, 37, 127
8, 24480, Note_on_c, 9, 45, 95
8, 24960, Note_off_c, 9, 45, 95
8, 24960, Note_on_c, 9, 44, 31
8, 25440, Note_off_c, 9, 44, 31
8, 25440, Note_on_c, 9, 35, 95
8, 25920, Note_off_c, 9, 35, 95
8, 25920, Note_on_c, 9, 44, 95
8, 25920, Note_on_c, 9, 37, 127
8, 26400, Note_off_c, 9, 44, 95
8, 26400, Note_off_c, 9, 37, 127
8, 26400, Note_on_c, 9, 35, 95
8, 26880, Note_off_c, 9, 35, 95
8, 26880, Note_on_c, 9, 44, 31
8, 26880, Note_on_c, 9, 35, 95
8, 27840, Note_off_c, 9, 44, 31
8, 27840, Note_off_c, 9, 35, 95
8, 27840, Note_on_c, 9, 44, 95
8, 27840, Note_on_c, 9, 37, 127
8, 28320, Note_off_c, 9, 44, 95
8, 28320, Note_off_c, 9, 37, 127
8, 28320, Note_on_c, 9, 45, 95
8, 28800, Note_off_c, 9, 45, 95
8, 28800, Note_on_c, 9, 44, 31
8, 29280, Note_off_c, 9, 44, 31
8, 29280, Note_on_c, 9, 35, 95
8, 29760, Note_off_c, 9, 35, 95
8, 29760, Note_on_c, 9, 44, 95
8, 29760, Note_on_c, 9, 37, 127
8, 30240, Note_off_c, 9, 44, 95
8, 30240, Note_off_c, 9, 37, 127
8, 30240, Note_on_c, 9, 35, 95
8, 30720, Note_off_c, 9, 35, 95
8, 30720, Note_on_c, 9, 44, 31
8, 30720, Note_on_c, 9, 35, 95
8, 31680, Note_off_c, 9, 44, 31
8, 31680, Note_off_c, 9, 35, 95
8, 31680, Note_on_c, 9, 44, 95
8, 31680, Note_on_c, 9, 37, 127
8, 32160, Note_off_c, 9, 44, 95
8, 32160, Note_off_c, 9, 37, 127
8, 32160, Note_on_c, 9, 45, 95
8, 32640, Note_off_c, 9, 45, 95
8, 32640, Note_on_c, 9, 44, 31
8, 33120, Note_off_c, 9, 44, 31
8, 33120, Note_on_c, 9, 35, 95
8, 33600, Note_off_c, 9, 35, 95
8, 33600, Note_on_c, 9, 44, 95
8, 33600, Note_on_c, 9, 37, 127
8, 34080, Note_off_c, 9, 44, 95
8, 34080, Note_off_c, 9, 37, 127
8, 34080, Note_on_c, 9, 35, 95
8, 34560, Note_off_c, 9, 35, 95
8, 34560, Note_on_c, 9, 44, 31
8, 34560, Note_on_c, 9, 35, 95
8, 35520, Note_off_c, 9, 44, 31
8, 35520, Note_off_c, 9, 35, 95
8, 35520, Note_on_c, 9, 44, 95
8, 35520, Note_on_c, 9, 37, 127
8, 36000, Note_off_c, 9, 44, 95
8, 36000, Note_off_c, 9, 37, 127
8, 36000, Note_on_c, 9, 45, 95
8, 36480, Note_off_c, 9, 45, 95
8, 36480, Note_on_c, 9, 44, 31
8, 36960, Note_off_c, 9, 44, 31
8, 36960, Note_on_c, 9, 35, 95
8, 37440, Note_off_c, 9, 35, 95
8, 37440, Note_on_c, 9, 44, 95
8, 37440, Note_on_c, 9, 37, 127
8, 37920, Note_off_c, 9, 44, 95
8, 37920, Note_off_c, 9, 37, 127
8, 37920, Note_on_c, 9, 35, 95
8, 38400, Note_off_c, 9, 35, 95
8, 38400, Note_on_c, 9, 44, 31
8, 38400, Note_on_c, 9, 35, 95
8, 39360, Note_off_c, 9, 44, 31
8, 39360, Note_off_c, 9, 35, 95
8, 39360, Note_on_c, 9, 44, 95
8, 39360, Note_on_c, 9, 37, 127
8, 39840, Note_off_c, 9, 44, 95
8, 39840, Note_off_c, 9, 37, 127
8, 39840, Note_on_c, 9, 45, 95
8, 40320, Note_off_c, 9, 45, 95
8, 40320, Note_on_c, 9, 44, 31
8, 40800, Note_off_c, 9, 44, 31
8, 40800, Note_on_c, 9, 35, 95
8, 41280, Note_off_c, 9, 35, 95
8, 41280, Note_on_c, 9, 44, 95
8, 41280, Note_on_c, 9, 37, 127
8, 41760, Note_off_c, 9, 44, 95
8, 41760, Note_off_c, 9, 37, 127
8, 41760, Note_on_c, 9, 35, 95
8, 42240, Note_off_c, 9, 35, 95
8, 42240, Note_on_c, 9, 44, 31
8, 42240, Note_on_c, 9, 35, 95
8, 43200, Note_off_c, 9, 44, 31
8, 43200, Note_off_c, 9, 35, 95
8, 43200, Note_on_c, 9, 44, 95
8, 43200, Note_on_c, 9, 37, 127
8, 43680, Note_off_c, 9, 44, 95
8, 43680, Note_off_c, 9, 37, 127
8, 43680, Note_on_c, 9, 45, 95
8, 44160, Note_off_c, 9, 45, 95
8, 44160, Note_on_c, 9, 44, 31
8, 44640, Note_off_c, 9, 44, 31
8, 44640, Note_on_c, 9, 35, 95
8, 45120, Note_off_c, 9, 35, 95
8, 45120, Note_on_c, 9, 44, 95
8, 45120, Note_on_c, 9, 37, 127
8, 45600, Note_off_c, 9, 44, 95
8, 45600, Note_off_c, 9, 37, 127
8, 45600, Note_on_c, 9, 35, 95
8, 46080, Note_off_c, 9, 35, 95
8, 46080, Note_on_c, 9, 44, 31
8, 46080, Note_on_c, 9, 35, 95
8, 47040, Note_off_c, 9, 44, 31
8, 47040, Note_off_c, 9, 35, 95
8, 47040, Note_on_c, 9, 44, 95
8, 47040, Note_on_c, 9, 37, 127
8, 47520, Note_off_c, 9, 44, 95
8, 47520, Note_off_c, 9, 37, 127
8, 47520, Note_on_c, 9, 45, 95
8, 48000, Note_off_c, 9, 45, 95
8, 48000, Note_on_c, 9, 44, 31
8, 48480, Note_off_c, 9, 44, 31
8, 48480, Note_on_c, 9, 35, 95
8, 48960, Note_off_c, 9, 35, 95
8, 48960, Note_on_c, 9, 44, 95
8, 48960, Note_on_c, 9, 37, 127
8, 49440, Note_off_c, 9, 44, 95
8, 49440, Note_off_c, 9, 37, 127
8, 49440, Note_on_c, 9, 35, 95
8, 49920, Note_off_c, 9, 35, 95
8, 49920, Note_on_c, 9, 44, 31
8, 49920, Note_on_c, 9, 35, 95
8, 50880, Note_off_c, 9, 44, 31
8, 50880, Note_off_c, 9, 35, 95
8, 50880, Note_on_c, 9, 44, 95
8, 50880, Note_on_c, 9, 37, 127
8, 51360, Note_off_c, 9, 44, 95
8, 51360, Note_off_c, 9, 37, 127
8, 51360, Note_on_c, 9, 45, 95
8, 51840, Note_off_c, 9, 45, 95
8, 51840, Note_on_c, 9, 44, 31
8, 52320, Note_off_c, 9, 44, 31
8, 52320, Note_on_c, 9, 35, 95
8, 52800, Note_off_c, 9, 35, 95
8, 52800, Note_on_c, 9, 44, 95
8, 52800, Note_on_c, 9, 37, 127
8, 53280, Note_off_c, 9, 44, 95
8, 53280, Note_off_c, 9, 37, 127
8, 53280, Note_on_c, 9, 35, 95
8, 53760, Note_off_c, 9, 35, 95
8, 53760, Note_on_c, 9, 44, 31
8, 53760, Note_on_c, 9, 35, 95
8, 54720, Note_off_c, 9, 44, 31
8, 54720, Note_off_c, 9, 35, 95
8, 54720, Note_on_c, 9, 44, 95
8, 54720, Note_on_c, 9, 37, 127
8, 55200, Note_off_c, 9, 44, 95
8, 55200, Note_off_c, 9, 37, 127
8, 55200, Note_on_c, 9, 45, 95
8, 55680, Note_off_c, 9, 45, 95
8, 55680, Note_on_c, 9, 44, 31
8, 56160, Note_off_c, 9, 44, 31
8, 56160, Note_on_c, 9, 35, 95
8, 56640, Note_off_c, 9, 35, 95
8, 56640, Note_on_c, 9, 44, 95
8, 56640, Note_on_c, 9, 37, 127
8, 57120, Note_off_c, 9, 44, 95
8, 57120, Note_off_c, 9, 37, 127
8, 57120, Note_on_c, 9, 35, 95
8, 57600, Note_off_c, 9, 35, 95
8, 57600, Note_on_c, 9, 44, 31
8, 57600, Note_on_c, 9, 35, 95
8, 58560, Note_off_c, 9, 44, 31
8, 58560, Note_off_c, 9, 35, 95
8, 58560, Note_on_c, 9, 44, 95
8, 58560, Note_on_c, 9, 37, 127
8, 59040, Note_off_c, 9, 44, 95
8, 59040, Note_off_c, 9, 37, 127
8, 59040, Note_on_c, 9, 45, 95
8, 59520, Note_off_c, 9, 45, 95
8, 59520, Note_on_c, 9, 44, 31
8, 60000, Note_off_c, 9, 44, 31
8, 60000, Note_on_c, 9, 35, 95
8, 60480, Note_off_c, 9, 35, 95
8, 60480, Note_on_c, 9, 44, 95
8, 60480, Note_on_c, 9, 37, 127
8, 60960, Note_off_c, 9, 44, 95
8, 60960, Note_off_c, 9, 37, 127
8, 60960, Note_on_c, 9, 35, 95
8, 61440, Note_off_c, 9, 35, 95
8, 61440, Note_on_c, 9, 44, 31
8, 61440, Note_on_c, 9, 35, 95
8, 62400, Note_off_c, 9, 44, 31
8, 62400, Note_off_c, 9, 35, 95
8, 62400, Note_on_c, 9, 44, 95
8, 62400, Note_on_c, 9, 37, 127
8, 62880, Note_off_c, 9, 44, 95
8, 62880, Note_off_c, 9, 37, 127
8, 62880, Note_on_c, 9, 45, 95
8, 63360, Note_off_c, 9, 45, 95
8, 63360, Note_on_c, 9, 44, 31
8, 63840, Note_off_c, 9, 44, 31
8, 63840, Note_on_c, 9, 35, 95
8, 64320, Note_off_c, 9, 35, 95
8, 64320, Note_on_c, 9, 44, 95
8, 64320, Note_on_c, 9, 37, 127
8, 64800, Note_off_c, 9, 44, 95
8, 64800, Note_off_c, 9, 37, 127
8, 64800, Note_on_c, 9, 35, 95
8, 65280, Note_off_c, 9, 35, 95
8, 65280, Note_on_c, 9, 44, 31
8, 65280, Note_on_c, 9, 35, 95
8, 66240, Note_off_c, 9, 44, 31
8, 66240, Note_off_c, 9, 35, 95
8, 66240, Note_on_c, 9, 44, 95
8, 66240, Note_on_c, 9, 37, 127
8, 66720, Note_off_c, 9, 44, 95
8, 66720, Note_off_c, 9, 37, 127
8, 66720, Note_on_c, 9, 45, 95
8, 67200, Note_off_c, 9, 45, 95
8, 67200, Note_on_c, 9, 44, 31
8, 67680, Note_off_c, 9, 44, 31
8, 67680, Note_on_c, 9, 35, 95
8, 68160, Note_off_c, 9, 35, 95
8, 68160, Note_on_c, 9, 44, 95
8, 68160, Note_on_c, 9, 37, 127
8, 68640, Note_off_c, 9, 44, 95
8, 68640, Note_off_c, 9, 37, 127
8, 68640, Note_on_c, 9, 35, 95
8, 69120, Note_off_c, 9, 35, 95
8, 69120, Note_on_c, 9, 44, 31
8, 69120, Note_on_c, 9, 35, 95
8, 70080, Note_off_c, 9, 44, 31
8, 70080, Note_off_c, 9, 35, 95
8, 70080, Note_on_c, 9, 44, 95
8, 70080, Note_on_c, 9, 37, 127
8, 70560, Note_off_c, 9, 44, 95
8, 70560, Note_off_c, 9, 37, 127
8, 70560, Note_on_c, 9, 45, 95
8, 71040, Note_off_c, 9, 45, 95
8, 71040, Note_on_c, 9, 44, 31
8, 71520, Note_off_c, 9, 44, 31
8, 71520, Note_on_c, 9, 35, 95
8, 72000, Note_off_c, 9, 35, 95
8, 72000, Note_on_c, 9, 44, 95
8, 72000, Note_on_c, 9, 37, 127
8, 72480, Note_off_c, 9, 44, 95
8, 72480, Note_off_c, 9, 37, 127
8, 72480, Note_on_c, 9, 35, 95
8, 72960, Note_off_c, 9, 35, 95
8, 72960, Note_on_c, 9, 44, 31
8, 72960, Note_on_c, 9, 35, 95
8, 73920, Note_off_c, 9, 44, 31
8, 73920, Note_off_c, 9, 35, 95
8, 73920, Note_on_c, 9, 44, 95
8, 73920, Note_on_c, 9, 37, 127
8, 74400, Note_off_c, 9, 44, 95
8, 74400, Note_off_c, 9, 37, 127
8, 74400, Note_on_c, 9, 45, 95
8, 74880, Note_off_c, 9, 45, 95
8, 74880, Note_on_c, 9, 44, 31
8, 75360, Note_off_c, 9, 44, 31
8, 75360, Note_on_c, 9, 35, 95
8, 75840, Note_off_c, 9, 35, 95
8, 75840, Note_on_c, 9, 44, 95
8, 75840, Note_on_c, 9, 37, 127
8, 76320, Note_off_c, 9, 44, 95
8, 76320, Note_off_c, 9, 37, 127
8, 76320, Note_on_c, 9, 35, 95
8, 76800, Note_off_c, 9, 35, 95
8, 76800, Note_on_c, 9, 44, 31
8, 76800, Note_on_c, 9, 35, 95
8, 77760, Note_off_c, 9, 44, 31
8, 77760, Note_off_c, 9, 35, 95
8, 77760, Note_on_c, 9, 44, 95
8, 77760, Note_on_c, 9, 37, 127
8, 78240, Note_off_c, 9, 44, 95
8, 78240, Note_off_c, 9, 37, 127
8, 78240, Note_on_c, 9, 45, 95
8, 78720, Note_off_c, 9, 45, 95
8, 78720, Note_on_c, 9, 44, 31
8, 79200, Note_off_c, 9, 44, 31
8, 79200, Note_on_c, 9, 35, 95
8, 79680, Note_off_c, 9, 35, 95
8, 79680, Note_on_c, 9, 44, 95
8, 79680, Note_on_c, 9, 37, 127
8, 80160, Note_off_c, 9, 44, 95
8, 80160, Note_off_c, 9, 37, 127
8, 80160, Note_on_c, 9, 35, 95
8, 80640, Note_off_c, 9, 35, 95
8, 80640, Note_on_c, 9, 44, 31
8, 80640, Note_on_c, 9, 35, 95
8, 81600, Note_off_c, 9, 44, 31
8, 81600, Note_off_c, 9, 35, 95
8, 81600, Note_on_c, 9, 44, 95
8, 81600, Note_on_c, 9, 37, 127
8, 82080, Note_off_c, 9, 44, 95
8, 82080, Note_off_c, 9, 37, 127
8, 82080, Note_on_c, 9, 45, 95
8, 82560, Note_off_c, 9, 45, 95
8, 82560, Note_on_c, 9, 44, 31
8, 83040, Note_off_c, 9, 44, 31
8, 83040, Note_on_c, 9, 35, 95
8, 83520, Note_off_c, 9, 35, 95
8, 83520, Note_on_c, 9, 44, 95
8, 83520, Note_on_c, 9, 37, 127
8, 84000, Note_off_c, 9, 44, 95
8, 84000, Note_off_c, 9, 37, 127
8, 84000, Note_on_c, 9, 35, 95
8, 84480, Note_off_c, 9, 35, 95
8, 84480, Note_on_c, 9, 44, 31
8, 84480, Note_on_c, 9, 35, 95
8, 85440, Note_off_c, 9, 44, 31
8, 85440, Note_off_c, 9, 35, 95
8, 85440, Note_on_c, 9, 44, 95
8, 85440, Note_on_c, 9, 37, 127
8, 85920, Note_off_c, 9, 44, 95
8, 85920, Note_off_c, 9, 37, 127
8, 85920, Note_on_c, 9, 45, 95
8, 86400, Note_off_c, 9, 45, 95
8, 86400, Note_on_c, 9, 44, 31
8, 86880, Note_off_c, 9, 44, 31
8, 86880, Note_on_c, 9, 35, 95
8, 87360, Note_off_c, 9, 35, 95
8, 87360, Note_on_c, 9, 44, 95
8, 87360, Note_on_c, 9, 37, 127
8, 87840, Note_off_c, 9, 44, 95
8, 87840, Note_off_c, 9, 37, 127
8, 87840, Note_on_c, 9, 35, 95
8, 88320, Note_off_c, 9, 35, 95
8, 88320, Note_on_c, 9, 44, 31
8, 88320, Note_on_c, 9, 35, 95
8, 89280, Note_off_c, 9, 44, 31
8, 89280, Note_off_c, 9, 35, 95
8, 89280, Note_on_c, 9, 44, 95
8, 89280, Note_on_c, 9, 37, 127
8, 89760, Note_off_c, 9, 44, 95
8, 89760, Note_off_c, 9, 37, 127
8, 89760, Note_on_c, 9, 45, 95
8, 90240, Note_off_c, 9, 45, 95
8, 90240, Note_on_c, 9, 44, 31
8, 90720, Note_off_c, 9, 44, 31
8, 90720, Note_on_c, 9, 35, 95
8, 91200, Note_off_c, 9, 35, 95
8, 91200, Note_on_c, 9, 44, 95
8, 91200, Note_on_c, 9, 37, 127
8, 91680, Note_off_c, 9, 44, 95
8, 91680, Note_off_c, 9, 37, 127
8, 91680, Note_on_c, 9, 35, 95
8, 92160, Note_off_c, 9, 35, 95
8, 92160, Note_on_c, 9, 44, 31
8, 92160, Note_on_c, 9, 35, 95
8, 93120, Note_off_c, 9, 44, 31
8, 93120, Note_off_c, 9, 35, 95
8, 93120, Note_on_c, 9, 44, 95
8, 93120, Note_on_c, 9, 37, 127
8, 93600, Note_off_c, 9, 44, 95
8, 93600, Note_off_c, 9, 37, 127
8, 93600, Note_on_c, 9, 45, 95
8, 94080, Note_off_c, 9, 45, 95
8, 94080, Note_on_c, 9, 44, 31
8, 94560, Note_off_c, 9, 44, 31
8, 94560, Note_on_c, 9, 35, 95
8, 95040, Note_off_c, 9, 35, 95
8, 95040, Note_on_c, 9, 44, 95
8, 95040, Note_on_c, 9, 37, 127
8, 95520, Note_off_c, 9, 44, 95
8, 95520, Note_off_c, 9, 37, 127
8, 95520, Note_on_c, 9, 35, 95
8, 96000, Note_off_c, 9, 35, 95
8, 96000, Note_on_c, 9, 44, 31
8, 96000, Note_on_c, 9, 35, 95
8, 96960, Note_off_c, 9, 44, 31
8, 96960, Note_off_c, 9, 35, 95
8, 96960, Note_on_c, 9, 44, 95
8, 96960, Note_on_c, 9, 37, 127
8, 97440, Note_off_c, 9, 44, 95
8, 97440, Note_off_c, 9, 37, 127
8, 97440, Note_on_c, 9, 45, 95
8, 97920, Note_off_c, 9, 45, 95
8, 97920, Note_on_c, 9, 44, 31
8, 98400, Note_off_c, 9, 44, 31
8, 98400, Note_on_c, 9, 35, 95
8, 98880, Note_off_c, 9, 35, 95
8, 98880, Note_on_c, 9, 44, 95
8, 98880, Note_on_c, 9, 37, 127
8, 99360, Note_off_c, 9, 44, 95
8, 99360, Note_off_c, 9, 37, 127
8, 99360, Note_on_c, 9, 35, 95
8, 99840, Note_off_c, 9, 35, 95
8, 99840, Note_on_c, 9, 44, 31
8, 99840, Note_on_c, 9, 35, 95
8, 100800, Note_off_c, 9, 44, 31
8, 100800, Note_off_c, 9, 35, 95
8, 100800, Note_on_c, 9, 44, 95
8, 100800, Note_on_c, 9, 37, 127
8, 101280, Note_off_c, 9, 44, 95
8, 101280, Note_off_c, 9, 37, 127
8, 101280, Note_on_c, 9, 45, 95
8, 101760, Note_off_c, 9, 45, 95
8, 101760, Note_on_c, 9, 44, 31
8, 102240, Note_off_c, 9, 44, 31
8, 102240, Note_on_c, 9, 35, 95
8, 102720, Note_off_c, 9, 35, 95
8, 102720, Note_on_c, 9, 44, 95
8, 102720, Note_on_c, 9, 37, 127
8, 103200, Note_off_c, 9, 44, 95
8, 103200, Note_off_c, 9, 37, 127
8, 103200, Note_on_c, 9, 35, 95
8, 103680, Note_off_c, 9, 35, 95
8, 103680, Note_on_c, 9, 44, 31
8, 103680, Note_on_c, 9, 35, 95
8, 104640, Note_off_c, 9, 44, 31
8, 104640, Note_off_c, 9, 35, 95
8, 104640, Note_on_c, 9, 44, 95
8, 104640, Note_on_c, 9, 37, 127
8, 105120, Note_off_c, 9, 44, 95
8, 105120, Note_off_c, 9, 37, 127
8, 105120, Note_on_c, 9, 45, 95
8, 105600, Note_off_c, 9, 45, 95
8, 105600, Note_on_c, 9, 44, 31
8, 106080, Note_off_c, 9, 44, 31
8, 106080, Note_on_c, 9, 35, 95
8, 106560, Note_off_c, 9, 35, 95
8, 106560, Note_on_c, 9, 44, 95
8, 106560, Note_on_c, 9, 37, 127
8, 107040, Note_off_c, 9, 44, 95
8, 107040, Note_off_c, 9, 37, 127
8, 107040, Note_on_c, 9, 35, 95
8, 107520, Note_off_c, 9, 35, 95
8, 107520, Note_on_c, 9, 44, 31
8, 107520, Note_on_c, 9, 35, 95
8, 108480, Note_off_c, 9, 44, 31
8, 108480, Note_off_c, 9, 35, 95
8, 108480, Note_on_c, 9, 44, 95
8, 108480, Note_on_c, 9, 37, 127
8, 108960, Note_off_c, 9, 44, 95
8, 108960, Note_off_c, 9, 37, 127
8, 108960, Note_on_c, 9, 45, 95
8, 109440, Note_off_c, 9, 45, 95
8, 109440, Note_on_c, 9, 44, 31
8, 109920, Note_off_c, 9, 44, 31
8, 109920, Note_on_c, 9, 35, 95
8, 110400, Note_off_c, 9, 35, 95
8, 110400, Note_on_c, 9, 44, 95
8, 110400, Note_on_c, 9, 37, 127
8, 110880, Note_off_c, 9, 44, 95
8, 110880, Note_off_c, 9, 37, 127
8, 110880, Note_on_c, 9, 35, 95
8, 111360, Note_off_c, 9, 35, 95
8, 111360, Note_on_c, 9, 44, 31
8, 111360, Note_on_c, 9, 35, 95
8, 112320, Note_off_c, 9, 44, 31
8, 112320, Note_off_c, 9, 35, 95
8, 112320, Note_on_c, 9, 44, 95
8, 112320, Note_on_c, 9, 37, 127
8, 112800, Note_off_c, 9, 44, 95
8, 112800, Note_off_c, 9, 37, 127
8, 112800, Note_on_c, 9, 45, 95
8, 113280, Note_off_c, 9, 45, 95
8, 113280, Note_on_c, 9, 44, 31
8, 113760, Note_off_c, 9, 44, 31
8, 113760, Note_on_c, 9, 35, 95
8, 114240, Note_off_c, 9, 35, 95
8, 114240, Note_on_c, 9, 44, 95
8, 114240, Note_on_c, 9, 37, 127
8, 114720, Note_off_c, 9, 44, 95
8, 114720, Note_off_c, 9, 37, 127
8, 114720, Note_on_c, 9, 35, 95
8, 115200, Note_off_c, 9, 35, 95
8, 115200, Note_on_c, 9, 44, 31
8, 115200, Note_on_c, 9, 35, 95
8, 116160, Note_off_c, 9, 44, 31
8, 116160, Note_off_c, 9, 35, 95
8, 116160, Note_on_c, 9, 44, 95
8, 116160, Note_on_c, 9, 37, 127
8, 116640, Note_off_c, 9, 44, 95
8, 116640, Note_off_c, 9, 37, 127
8, 116640, Note_on_c, 9, 45, 95
8, 117120, Note_off_c, 9, 45, 95
8, 117120, Note_on_c, 9, 44, 31
8, 117600, Note_off_c, 9, 44, 31
8, 117600, Note_on_c, 9, 35, 95
8, 118080, Note_off_c, 9, 35, 95
8, 118080, Note_on_c, 9, 44, 95
8, 118080, Note_on_c, 9, 37, 127
8, 118560, Note_off_c, 9, 44, 95
8, 118560, Note_off_c, 9, 37, 127
8, 118560, Note_on_c, 9, 35, 95
8, 119040, Note_off_c, 9, 35, 95
8, 119040, Note_on_c, 9, 44, 31
8, 119040, Note_on_c, 9, 35, 95
8, 120000, Note_off_c, 9, 44, 31
8, 120000, Note_off_c, 9, 35, 95
8, 120000, Note_on_c, 9, 44, 95
8, 120000, Note_on_c, 9, 37, 127
8, 120480, Note_off_c, 9, 44, 95
8, 120480, Note_off_c, 9, 37, 127
8, 120480, Note_on_c, 9, 45, 95
8, 120960, Note_off_c, 9, 45, 95
8, 120960, Note_on_c, 9, 44, 31
8, 121440, Note_off_c, 9, 44, 31
8, 121440, Note_on_c, 9, 35, 95
8, 121920, Note_off_c, 9, 35, 95
8, 121920, Note_on_c, 9, 44, 95
8, 121920, Note_on_c, 9, 37, 127
8, 122400, Note_off_c, 9, 44, 95
8, 122400, Note_off_c, 9, 37, 127
8, 122400, Note_on_c, 9, 35, 95
8, 122880, Note_off_c, 9, 35, 95
8, 122880, Note_on_c, 9, 44, 31
8, 122880, Note_on_c, 9, 35, 95
8, 123840, Note_off_c, 9, 44, 31
8, 123840, Note_off_c, 9, 35, 95
8, 123840, Note_on_c, 9, 44, 95
8, 123840, Note_on_c, 9, 37, 127
8, 124320, Note_off_c, 9, 44, 95
8, 124320, Note_off_c, 9, 37, 127
8, 124320, Note_on_c, 9, 45, 95
8, 124800, Note_off_c, 9, 45, 95
8, 124800, Note_on_c, 9, 44, 31
8, 125280, Note_off_c, 9, 44, 31
8, 125280, Note_on_c, 9, 35, 95
8, 125760, Note_off_c, 9, 35, 95
8, 125760, Note_on_c, 9, 44, 95
8, 125760, Note_on_c, 9, 37, 127
8, 126240, Note_off_c, 9, 44, 95
8, 126240, Note_off_c, 9, 37, 127
8, 126240, Note_on_c, 9, 35, 95
8, 126720, Note_off_c, 9, 35, 95
8, 126720, Note_on_c, 9, 44, 31
8, 126720, Note_on_c, 9, 35, 95
8, 127680, Note_off_c, 9, 44, 31
8, 127680, Note_off_c, 9, 35, 95
8, 127680, Note_on_c, 9, 44, 95
8, 127680, Note_on_c, 9, 37, 127
8, 128160, Note_off_c, 9, 44, 95
8, 128160, Note_off_c, 9, 37, 127
8, 128160, Note_on_c, 9, 45, 95
8, 128640, Note_off_c, 9, 45, 95
8, 128640, Note_on_c, 9, 44, 31
8, 129120, Note_off_c, 9, 44, 31
8, 129120, Note_on_c, 9, 35, 95
8, 129600, Note_off_c, 9, 35, 95
8, 129600, Note_on_c, 9, 44, 95
8, 129600, Note_on_c, 9, 37, 127
8, 130080, Note_off_c, 9, 44, 95
8, 130080, Note_off_c, 9, 37, 127
8, 130080, Note_on_c, 9, 35, 95
8, 130560, Note_off_c, 9, 35, 95
8, 130560, Note_on_c, 9, 44, 31
8, 130560, Note_on_c, 9, 35, 95
8, 131520, Note_off_c, 9, 44, 31
8, 131520, Note_off_c, 9, 35, 95
8, 131520, Note_on_c, 9, 44, 95
8, 131520, Note_on_c, 9, 37, 127
8, 132000, Note_off_c, 9, 44, 95
8, 132000, Note_off_c, 9, 37, 127
8, 132000, Note_on_c, 9, 45, 95
8, 132480, Note_off_c, 9, 45, 95
8, 132480, Note_on_c, 9, 44, 31
8, 132960, Note_off_c, 9, 44, 31
8, 132960, Note_on_c, 9, 35, 95
8, 133440, Note_off_c, 9, 35, 95
8, 133440, Note_on_c, 9, 44, 95
8, 133440, Note_on_c, 9, 37, 127
8, 133920, Note_off_c, 9, 44, 95
8, 133920, Note_off_c, 9, 37, 127
8, 133920, Note_on_c, 9, 35, 95
8, 134400, Note_off_c, 9, 35, 95
8, 134400, Note_on_c, 9, 44, 31
8, 134400, Note_on_c, 9, 35, 95
8, 135360, Note_off_c, 9, 44, 31
8, 135360, Note_off_c, 9, 35, 95
8, 135360, Note_on_c, 9, 44, 95
8, 135360, Note_on_c, 9, 37, 127
8, 135840, Note_off_c, 9, 44, 95
8, 135840, Note_off_c, 9, 37, 127
8, 135840, Note_on_c, 9, 45, 95
8, 136320, Note_off_c, 9, 45, 95
8, 136320, Note_on_c, 9, 44, 31
8, 136800, Note_off_c, 9, 44, 31
8, 136800, Note_on_c, 9, 35, 95
8, 137280, Note_off_c, 9, 35, 95
8, 137280, Note_on_c, 9, 44, 95
8, 137280, Note_on_c, 9, 37, 127
8, 137760, Note_off_c, 9, 44, 95
8, 137760, Note_off_c, 9, 37, 127
8, 137760, Note_on_c, 9, 35, 95
8, 138240, Note_off_c, 9, 35, 95
8, 138240, Note_on_c, 9, 44, 31
8, 138240, Note_on_c, 9, 35, 95
8, 139200, Note_off_c, 9, 44, 31
8, 139200, Note_off_c, 9, 35, 95
8, 139200, Note_on_c, 9, 44, 95
8, 139200, Note_on_c, 9, 37, 127
8, 139680, Note_off_c, 9, 44, 95
8, 139680, Note_off_c, 9, 37, 127
8, 139680, Note_on_c, 9, 45, 95
8, 140160, Note_off_c, 9, 45, 95
8, 140160, Note_on_c, 9, 44, 31
8, 140640, Note_off_c, 9, 44, 31
8, 140640, Note_on_c, 9, 35, 95
8, 141120, Note_off_c, 9, 35, 95
8, 141120, Note_on_c, 9, 44, 95
8, 141120, Note_on_c, 9, 37, 127
8, 141600, Note_off_c, 9, 44, 95
8, 141600, Note_off_c, 9, 37, 127
8, 141600, Note_on_c, 9, 35, 95
8, 142080, Note_off_c, 9, 35, 95
8, 142080, Note_on_c, 9, 44, 31
8, 142080, Note_on_c, 9, 35, 95
8, 143040, Note_off_c, 9, 44, 31
8, 143040, Note_off_c, 9, 35, 95
8, 143040, Note_on_c, 9, 44, 95
8, 143040, Note_on_c, 9, 37, 127
8, 143520, Note_off_c, 9, 44, 95
8, 143520, Note_off_c, 9, 37, 127
8, 143520, Note_on_c, 9, 45, 95
8, 144000, Note_off_c, 9, 45, 95
8, 144000, Note_on_c, 9, 44, 31
8, 144480, Note_off_c, 9, 44, 31
8, 144480, Note_on_c, 9, 35, 95
8, 144960, Note_off_c, 9, 35, 95
8, 144960, Note_on_c, 9, 44, 95
8, 144960, Note_on_c, 9, 37, 127
8, 145440, Note_off_c, 9, 44, 95
8, 145440, Note_off_c, 9, 37, 127
8, 145440, Note_on_c, 9, 35, 95
8, 145920, Note_off_c, 9, 35, 95
8, 145920, Note_on_c, 9, 44, 31
8, 145920, Note_on_c, 9, 35, 95
8, 146880, Note_off_c, 9, 44, 31
8, 146880, Note_off_c, 9, 35, 95
8, 146880, Note_on_c, 9, 44, 95
8, 146880, Note_on_c, 9, 37, 127
8, 147360, Note_off_c, 9, 44, 95
8, 147360, Note_off_c, 9, 37, 127
8, 147360, Note_on_c, 9, 45, 95
8, 147840, Note_off_c, 9, 45, 95
8, 147840, Note_on_c, 9, 44, 31
8, 148320, Note_off_c, 9, 44, 31
8, 148320, Note_on_c, 9, 35, 95
8, 148800, Note_off_c, 9, 35, 95
8, 148800, Note_on_c, 9, 44, 95
8, 148800, Note_on_c, 9, 37, 127
8, 149280, Note_off_c, 9, 44, 95
8, 149280, Note_off_c, 9, 37, 127
8, 149280, Note_on_c, 9, 35, 95
8, 149760, Note_off_c, 9, 35, 95
8, 149760, Note_on_c, 9, 44, 31
8, 149760, Note_on_c, 9, 35, 95
8, 150720, Note_off_c, 9, 44, 31
8, 150720, Note_off_c, 9, 35, 95
8, 150720, Note_on_c, 9, 44, 95
8, 150720, Note_on_c, 9, 37, 127
8, 151200, Note_off_c, 9, 44, 95
8, 151200, Note_off_c, 9, 37, 127
8, 151200, Note_on_c, 9, 45, 95
8, 151680, Note_off_c, 9, 45, 95
8, 151680, Note_on_c, 9, 44, 31
8, 152160, Note_off_c, 9, 44, 31
8, 152160, Note_on_c, 9, 35, 95
8, 152640, Note_off_c, 9, 35, 95
8, 152640, Note_on_c, 9, 44, 95
8, 152640, Note_on_c, 9, 37, 127
8, 153120, Note_off_c, 9, 44, 95
8, 153120, Note_off_c, 9, 37, 127
8, 153120, Note_on_c, 9, 35, 95
8, 153600, Note_off_c, 9, 35, 95
8, 153600, Note_on_c, 9, 44, 31
8, 153600, Note_on_c, 9, 35, 95
8, 154560, Note_off_c, 9, 44, 31
8, 154560, Note_off_c, 9, 35, 95
8, 154560, Note_on_c, 9, 44, 95
8, 154560, Note_on_c, 9, 37, 127
8, 155040, Note_off_c, 9, 44, 95
8, 155040, Note_off_c, 9, 37, 127
8, 155040, Note_on_c, 9, 45, 95
8, 155520, Note_off_c, 9, 45, 95
8, 155520, Note_on_c, 9, 44, 31
8, 156000, Note_off_c, 9, 44, 31
8, 156000, Note_on_c, 9, 35, 95
8, 156480, Note_off_c, 9, 35, 95
8, 156480, Note_on_c, 9, 44, 95
8, 156480, Note_on_c, 9, 37, 127
8, 156960, Note_off_c, 9, 44, 95
8, 156960, Note_off_c, 9, 37, 127
8, 156960, Note_on_c, 9, 35, 95
8, 157440, Note_off_c, 9, 35, 95
8, 157440, Note_on_c, 9, 44, 31
8, 157440, Note_on_c, 9, 35, 95
8, 158400, Note_off_c, 9, 44, 31
8, 158400, Note_off_c, 9, 35, 95
8, 158400, Note_on_c, 9, 44, 95
8, 158400, Note_on_c, 9, 37, 127
8, 158880, Note_off_c, 9, 44, 95
8, 158880, Note_off_c, 9, 37, 127
8, 158880, Note_on_c, 9, 45, 95
8, 159360, Note_off_c, 9, 45, 95
8, 159360, Note_on_c, 9, 44, 31
8, 159840, Note_off_c, 9, 44, 31
8, 159840, Note_on_c, 9, 35, 95
8, 160320, Note_off_c, 9, 35, 95
8, 160320, Note_on_c, 9, 44, 95
8, 160320, Note_on_c, 9, 37, 127
8, 160800, Note_off_c, 9, 44, 95
8, 160800, Note_off_c, 9, 37, 127
8, 160800, Note_on_c, 9, 35, 95
8, 161280, Note_off_c, 9, 35, 95
8, 161280, Note_on_c, 9, 44, 31
8, 161280, Note_on_c, 9, 35, 95
8, 162240, Note_off_c, 9, 44, 31
8, 162240, Note_off_c, 9, 35, 95
8, 162240, Note_on_c, 9, 44, 95
8, 162240, Note_on_c, 9, 37, 127
8, 162720, Note_off_c, 9, 44, 95
8, 162720, Note_off_c, 9, 37, 127
8, 162720, Note_on_c, 9, 45, 95
8, 163200, Note_off_c, 9, 45, 95
8, 163200, Note_on_c, 9, 44, 31
8, 163680, Note_off_c, 9, 44, 31
8, 163680, Note_on_c, 9, 35, 95
8, 164160, Note_off_c, 9, 35, 95
8, 164160, Note_on_c, 9, 44, 95
8, 164160, Note_on_c, 9, 37, 127
8, 164640, Note_off_c, 9, 44, 95
8, 164640, Note_off_c, 9, 37, 127
8, 164640, Note_on_c, 9, 35, 95
8, 165120, Note_off_c, 9, 35, 95
8, 165120, Note_on_c, 9, 44, 31
8, 165120, Note_on_c, 9, 35, 95
8, 166080, Note_off_c, 9, 44, 31
8, 166080, Note_off_c, 9, 35, 95
8, 166080, Note_on_c, 9, 44, 95
8, 166080, Note_on_c, 9, 37, 127
8, 166560, Note_off_c, 9, 44, 95
8, 166560, Note_off_c, 9, 37, 127
8, 166560, Note_on_c, 9, 45, 95
8, 167040, Note_off_c, 9, 45, 95
8, 167040, Note_on_c, 9, 44, 31
8, 167520, Note_off_c, 9, 44, 31
8, 167520, Note_on_c, 9, 35, 95
8, 168000, Note_off_c, 9, 35, 95
8, 168000, Note_on_c, 9, 44, 95
8, 168000, Note_on_c, 9, 37, 127
8, 168480, Note_off_c, 9, 44, 95
8, 168480, Note_off_c, 9, 37, 127
8, 168480, Note_on_c, 9, 35, 95
8, 168960, Note_off_c, 9, 35, 95
8, 168960, Note_on_c, 9, 44, 31
8, 168960, Note_on_c, 9, 35, 95
8, 169920, Note_off_c, 9, 44, 31
8, 169920, Note_off_c, 9, 35, 95
8, 169920, Note_on_c, 9, 44, 95
8, 169920, Note_on_c, 9, 37, 127
8, 170400, Note_off_c, 9, 44, 95
8, 170400, Note_off_c, 9, 37, 127
8, 170400, Note_on_c, 9, 45, 95
8, 170880, Note_off_c, 9, 45, 95
8, 170880, Note_on_c, 9, 44, 31
8, 171360, Note_off_c, 9, 44, 31
8, 171360, Note_on_c, 9, 35, 95
8, 171840, Note_off_c, 9, 35, 95
8, 171840, Note_on_c, 9, 44, 95
8, 171840, Note_on_c, 9, 37, 127
8, 172320, Note_off_c, 9, 44, 95
8, 172320, Note_off_c, 9, 37, 127
8, 172320, Note_on_c, 9, 35, 95
8, 172800, Note_off_c, 9, 35, 95
8, 172800, Note_on_c, 9, 44, 31
8, 172800, Note_on_c, 9, 35, 95
8, 173760, Note_off_c, 9, 44, 31
8, 173760, Note_off_c, 9, 35, 95
8, 173760, Note_on_c, 9, 44, 95
8, 173760, Note_on_c, 9, 37, 127
8, 174240, Note_off_c, 9, 44, 95
8, 174240, Note_off_c, 9, 37, 127
8, 174240, Note_on_c, 9, 45, 95
8, 174720, Note_off_c, 9, 45, 95
8, 174720, Note_on_c, 9, 44, 31
8, 175200, Note_off_c, 9, 44, 31
8, 175200, Note_on_c, 9, 35, 95
8, 175680, Note_off_c, 9, 35, 95
8, 175680, Note_on_c, 9, 44, 95
8, 175680, Note_on_c, 9, 37, 127
8, 176160, Note_off_c, 9, 44, 95
8, 176160, Note_off_c, 9, 37, 127
8, 176160, Note_on_c, 9, 35, 95
8, 176640, Note_off_c, 9, 35, 95
8, 176640, Note_on_c, 9, 44, 31
8, 176640, Note_on_c, 9, 35, 95
8, 177600, Note_off_c, 9, 44, 31
8, 177600, Note_off_c, 9, 35, 95
8, 177600, Note_on_c, 9, 44, 95
8, 177600, Note_on_c, 9, 37, 127
8, 178080, Note_off_c, 9, 44, 95
8, 178080, Note_off_c, 9, 37, 127
8, 178080, Note_on_c, 9, 45, 95
8, 178560, Note_off_c, 9, 45, 95
8, 178560, Note_on_c, 9, 44, 31
8, 179040, Note_off_c, 9, 44, 31
8, 179040, Note_on_c, 9, 35, 95
8, 179520, Note_off_c, 9, 35, 95
8, 179520, Note_on_c, 9, 44, 95
8, 179520, Note_on_c, 9, 37, 127
8, 180000, Note_off_c, 9, 44, 95
8, 180000, Note_off_c, 9, 37, 127
8, 180000, Note_on_c, 9, 35, 95
8, 180480, Note_off_c, 9, 35, 95
8, 180480, Note_on_c, 9, 44, 31
8, 180480, Note_on_c, 9, 35, 95
8, 181440, Note_off_c, 9, 44, 31
8, 181440, Note_off_c, 9, 35, 95
8, 181440, Note_on_c, 9, 44, 95
8, 181440, Note_on_c, 9, 37, 127
8, 181920, Note_off_c, 9, 44, 95
8, 181920, Note_off_c, 9, 37, 127
8, 181920, Note_on_c, 9, 45, 95
8, 182400, Note_off_c, 9, 45, 95
8, 182400, Note_on_c, 9, 44, 31
8, 182880, Note_off_c, 9, 44, 31
8, 182880, Note_on_c, 9, 35, 95
8, 183360, Note_off_c, 9, 35, 95
8, 183360, Note_on_c, 9, 44, 95
8, 183360, Note_on_c, 9, 37, 127
8, 183840, Note_off_c, 9, 44, 95
8, 183840, Note_off_c, 9, 37, 127
8, 183840, Note_on_c, 9, 35, 95
8, 184320, Note_off_c, 9, 35, 95
8, 184320, Note_on_c, 9, 44, 31
8, 184320, Note_on_c, 9, 35, 95
8, 185280, Note_off_c, 9, 44, 31
8, 185280, Note_off_c, 9, 35, 95
8, 185280, Note_on_c, 9, 44, 95
8, 185280, Note_on_c, 9, 37, 127
8, 185760, Note_off_c, 9, 44, 95
8, 185760, Note_off_c, 9, 37, 127
8, 185760, Note_on_c, 9, 45, 95
8, 186240, Note_off_c, 9, 45, 95
8, 186240, Note_on_c, 9, 44, 31
8, 186720, Note_off_c, 9, 44, 31
8, 186720, Note_on_c, 9, 35, 95
8, 187200, Note_off_c, 9, 35, 95
8, 187200, Note_on_c, 9, 44, 95
8, 187200, Note_on_c, 9, 37, 127
8, 187680, Note_off_c, 9, 44, 95
8, 187680, Note_off_c, 9, 37, 127
8, 187680, Note_on_c, 9, 35, 95
8, 188160, Note_off_c, 9, 35, 95
8, 188160, Note_on_c, 9, 44, 31
8, 188160, Note_on_c, 9, 35, 95
8, 189120, Note_off_c, 9, 44, 31
8, 189120, Note_off_c, 9, 35, 95
8, 189120, Note_on_c, 9, 44, 95
8, 189120, Note_on_c, 9, 37, 127
8, 189600, Note_off_c, 9, 44, 95
8, 189600, Note_off_c, 9, 37, 127
8, 189600, Note_on_c, 9, 45, 95
8, 190080, Note_off_c, 9, 45, 95
8, 190080, Note_on_c, 9, 44, 31
8, 190560, Note_off_c, 9, 44, 31
8, 190560, Note_on_c, 9, 35, 95
8, 191040, Note_off_c, 9, 35, 95
8, 191040, Note_on_c, 9, 44, 95
8, 191040, Note_on_c, 9, 37, 127
8, 191520, Note_off_c, 9, 44, 95
8, 191520, Note_off_c, 9, 37, 127
8, 191520, Note_on_c, 9, 35, 95
8, 192000, Note_off_c, 9, 35, 95
8, 192000, Note_on_c, 9, 44, 31
8, 192000, Note_on_c, 9, 35, 95
8, 192960, Note_off_c, 9, 44, 31
8, 192960, Note_off_c, 9, 35, 95
8, 192960, Note_on_c, 9, 44, 95
8, 192960, Note_on_c, 9, 37, 127
8, 193440, Note_off_c, 9, 44, 95
8, 193440, Note_off_c, 9, 37, 127
8, 193440, Note_on_c, 9, 45, 95
8, 193920, Note_off_c, 9, 45, 95
8, 193920, Note_on_c, 9, 44, 31
8, 194400, Note_off_c, 9, 44, 31
8, 194400, Note_on_c, 9, 35, 95
8, 194880, Note_off_c, 9, 35, 95
8, 194880, Note_on_c, 9, 44, 95
8, 194880, Note_on_c, 9, 37, 127
8, 195360, Note_off_c, 9, 44, 95
8, 195360, Note_off_c, 9, 37, 127
8, 195360, Note_on_c, 9, 35, 95
8, 195840, Note_off_c, 9, 35, 95
8, 195840, Note_on_c, 9, 44, 31
8, 195840, Note_on_c, 9, 35, 95
8, 196800, Note_off_c, 9, 44, 31
8, 196800, Note_off_c, 9, 35, 95
8, 196800, Note_on_c, 9, 44, 95
8, 196800, Note_on_c, 9, 37, 127
8, 197280, Note_off_c, 9, 44, 95
8, 197280, Note_off_c, 9, 37, 127
8, 197280, Note_on_c, 9, 45, 95
8, 197760, Note_off_c, 9, 45, 95
8, 197760, Note_on_c, 9, 44, 31
8, 198240, Note_off_c, 9, 44, 31
8, 198240, Note_on_c, 9, 35, 95
8, 198720, Note_off_c, 9, 35, 95
8, 198720, Note_on_c, 9, 44, 95
8, 198720, Note_on_c, 9, 37, 127
8, 199200, Note_off_c, 9, 44, 95
8, 199200, Note_off_c, 9, 37, 127
8, 199200, Note_on_c, 9, 35, 95
8, 199680, Note_off_c, 9, 35, 95
8, 199680, Note_on_c, 9, 44, 31
8, 199680, Note_on_c, 9, 35, 95
8, 200640, Note_off_c, 9, 44, 31
8, 200640, Note_off_c, 9, 35, 95
8, 200640, Note_on_c, 9, 44, 95
8, 200640, Note_on_c, 9, 37, 127
8, 201120, Note_off_c, 9, 44, 95
8, 201120, Note_off_c, 9, 37, 127
8, 201120, Note_on_c, 9, 45, 95
8, 201600, Note_off_c, 9, 45, 95
8, 201600, Note_on_c, 9, 44, 31
8, 202080, Note_off_c, 9, 44, 31
8, 202080, Note_on_c, 9, 35, 95
8, 202560, Note_off_c, 9, 35, 95
8, 202560, Note_on_c, 9, 44, 95
8, 202560, Note_on_c, 9, 37, 127
8, 203040, Note_off_c, 9, 44, 95
8, 203040, Note_off_c, 9, 37, 127
8, 203040, Note_on_c, 9, 35, 95
8, 203520, Note_off_c, 9, 35, 95
8, 203520, Note_on_c, 9, 44, 31
8, 203520, Note_on_c, 9, 35, 95
8, 204480, Note_off_c, 9, 44, 31
8, 204480, Note_off_c, 9, 35, 95
8, 204480, Note_on_c, 9, 44, 95
8, 204480, Note_on_c, 9, 37, 127
8, 204960, Note_off_c, 9, 44, 95
8, 204960, Note_off_c, 9, 37, 127
8, 204960, Note_on_c, 9, 45, 95
8, 205440, Note_off_c, 9, 45, 95
8, 205440, Note_on_c, 9, 44, 31
8, 205920, Note_off_c, 9, 44, 31
8, 205920, Note_on_c, 9, 35, 95
8, 206400, Note_off_c, 9, 35, 95
8, 206400, Note_on_c, 9, 44, 95
8, 206400, Note_on_c, 9, 37, 127
8, 206880, Note_off_c, 9, 44, 95
8, 206880, Note_off_c, 9, 37, 127
8, 206880, Note_on_c, 9, 35, 95
8, 207360, Note_off_c, 9, 35, 95
8, 207360, Note_on_c, 9, 44, 31
8, 207360, Note_on_c, 9, 35, 95
8, 208320, Note_off_c, 9, 44, 31
8, 208320, Note_off_c, 9, 35, 95
8, 208320, Note_on_c, 9, 44, 95
8, 208320, Note_on_c, 9, 37, 127
8, 208800, Note_off_c, 9, 44, 95
8, 208800, Note_off_c, 9, 37, 127
8, 208800, Note_on_c, 9, 45, 95
8, 209280, Note_off_c, 9, 45, 95
8, 209280, Note_on_c, 9, 44, 31
8, 209760, Note_off_c, 9, 44, 31
8, 209760, Note_on_c, 9, 35, 95
8, 210240, Note_off_c, 9, 35, 95
8, 210240, Note_on_c, 9, 44, 95
8, 210240, Note_on_c, 9, 37, 127
8, 210720, Note_off_c, 9, 44, 95
8, 210720, Note_off_c, 9, 37, 127
8, 210720, Note_on_c, 9, 35, 95
8, 211200, Note_off_c, 9, 35, 95
8, 211200, Note_on_c, 9, 44, 31
8, 211200, Note_on_c, 9, 35, 95
8, 212160, Note_off_c, 9, 44, 31
8, 212160, Note_off_c, 9, 35, 95
8, 212160, Note_on_c, 9, 44, 95
8, 212160, Note_on_c, 9, 37, 127
8, 212640, Note_off_c, 9, 44, 95
8, 212640, Note_off_c, 9, 37, 127
8, 212640, Note_on_c, 9, 45, 95
8, 213120, Note_off_c, 9, 45, 95
8, 213120, Note_on_c, 9, 44, 31
8, 213600, Note_off_c, 9, 44, 31
8, 213600, Note_on_c, 9, 35, 95
8, 214080, Note_off_c, 9, 35, 95
8, 214080, Note_on_c, 9, 44, 95
8, 214080, Note_on_c, 9, 37, 127
8, 214560, Note_off_c, 9, 44, 95
8, 214560, Note_off_c, 9, 37, 127
8, 214560, Note_on_c, 9, 35, 95
8, 215040, Note_off_c, 9, 35, 95
8, 215040, Note_on_c, 9, 44, 31
8, 215040, Note_on_c, 9, 35, 95
8, 216000, Note_off_c, 9, 44, 31
8, 216000, Note_off_c, 9, 35, 95
8, 216000, Note_on_c, 9, 44, 95
8, 216000, Note_on_c, 9, 37, 127
8, 216480, Note_off_c, 9, 44, 95
8, 216480, Note_off_c, 9, 37, 127
8, 216480, Note_on_c, 9, 45, 95
8, 216960, Note_off_c, 9, 45, 95
8, 216960, Note_on_c, 9, 44, 31
8, 217440, Note_off_c, 9, 44, 31
8, 217440, Note_on_c, 9, 35, 95
8, 217920, Note_off_c, 9, 35, 95
8, 217920, Note_on_c, 9, 44, 95
8, 217920, Note_on_c, 9, 37, 127
8, 218400, Note_off_c, 9, 44, 95
8, 218400, Note_off_c, 9, 37, 127
8, 218400, Note_on_c, 9, 35, 95
8, 218880, Note_off_c, 9, 35, 95
8, 218880, Note_on_c, 9, 44, 31
8, 218880, Note_on_c, 9, 35, 95
8, 219840, Note_off_c, 9, 44, 31
8, 219840, Note_off_c, 9, 35, 95
8, 219840, Note_on_c, 9, 44, 95
8, 219840, Note_on_c, 9, 37, 127
8, 220320, Note_off_c, 9, 44, 95
8, 220320, Note_off_c, 9, 37, 127
8, 220320, Note_on_c, 9, 45, 95
8, 220800, Note_off_c, 9, 45, 95
8, 220800, Note_on_c, 9, 44, 31
8, 221280, Note_off_c, 9, 44, 31
8, 221280, Note_on_c, 9, 35, 95
8, 221760, Note_off_c, 9, 35, 95
8, 221760, Note_on_c, 9, 44, 95
8, 221760, Note_on_c, 9, 37, 127
8, 222240, Note_off_c, 9, 44, 95
8, 222240, Note_off_c, 9, 37, 127
8, 222240, Note_on_c, 9, 35, 95
8, 222720, Note_off_c, 9, 35, 95
8, 222720, Note_on_c, 9, 44, 31
8, 222720, Note_on_c, 9, 35, 95
8, 223680, Note_off_c, 9, 44, 31
8, 223680, Note_off_c, 9, 35, 95
8, 223680, Note_on_c, 9, 44, 95
8, 223680, Note_on_c, 9, 37, 127
8, 224160, Note_off_c, 9, 44, 95
8, 224160, Note_off_c, 9, 37, 127
8, 224160, Note_on_c, 9, 45, 95
8, 224640, Note_off_c, 9, 45, 95
8, 224640, Note_on_c, 9, 44, 31
8, 225120, Note_off_c, 9, 44, 31
8, 225120, Note_on_c, 9, 35, 95
8, 225600, Note_off_c, 9, 35, 95
8, 225600, Note_on_c, 9, 44, 95
8, 225600, Note_on_c, 9, 37, 127
8, 226080, Note_off_c, 9, 44, 95
8, 226080, Note_off_c, 9, 37, 127
8, 226080, Note_on_c, 9, 35, 95
8, 226560, Note_off_c, 9, 35, 95
8, 226560, Note_on_c, 9, 44, 31
8, 226560, Note_on_c, 9, 35, 95
8, 227520, Note_off_c, 9, 44, 31
8, 227520, Note_off_c, 9, 35, 95
8, 227520, Note_on_c, 9, 44, 95
8, 227520, Note_on_c, 9, 37, 127
8, 228000, Note_off_c, 9, 44, 95
8, 228000, Note_off_c, 9, 37, 127
8, 228000, Note_on_c, 9, 45, 95
8, 228480, Note_off_c, 9, 45, 95
8, 228480, Note_on_c, 9, 44, 31
8, 228960, Note_off_c, 9, 44, 31
8, 228960, Note_on_c, 9, 35, 95
8, 229440, Note_off_c, 9, 35, 95
8, 229440, Note_on_c, 9, 44, 95
8, 229440, Note_on_c, 9, 37, 127
8, 229920, Note_off_c, 9, 44, 95
8, 229920, Note_off_c, 9, 37, 127
8, 229920, Note_on_c, 9, 35, 95
8, 230400, Note_off_c, 9, 35, 95
8, 230400, Note_on_c, 9, 44, 31
8, 230400, Note_on_c, 9, 35, 95
8, 231360, Note_off_c, 9, 44, 31
8, 231360, Note_off_c, 9, 35, 95
8, 231360, Note_on_c, 9, 44, 95
8, 231360, Note_on_c, 9, 37, 127
8, 231840, Note_off_c, 9, 44, 95
8, 231840, Note_off_c, 9, 37, 127
8, 231840, Note_on_c, 9, 45, 95
8, 232320, Note_off_c, 9, 45, 95
8, 232320, Note_on_c, 9, 44, 31
8, 232800, Note_off_c, 9, 44, 31
8, 232800, Note_on_c, 9, 35, 95
8, 233280, Note_off_c, 9, 35, 95
8, 233280, Note_on_c, 9, 44, 95
8, 233280, Note_on_c, 9, 37, 127
8, 233760, Note_off_c, 9, 44, 95
8, 233760, Note_off_c, 9, 37, 127
8, 233760, Note_on_c, 9, 35, 95
8, 234240, Note_off_c, 9, 35, 95
8, 234240, Note_on_c, 9, 44, 31
8, 234240, Note_on_c, 9, 35, 95
8, 235200, Note_off_c, 9, 44, 31
8, 235200, Note_off_c, 9, 35, 95
8, 235200, Note_on_c, 9, 44, 95
8, 235200, Note_on_c, 9, 37, 127
8, 235680, Note_off_c, 9, 44, 95
8, 235680, Note_off_c, 9, 37, 127
8, 235680, Note_on_c, 9, 45, 95
8, 236160, Note_off_c, 9, 45, 95
8, 236160, Note_on_c, 9, 44, 31
8, 236640, Note_off_c, 9, 44, 31
8, 236640, Note_on_c, 9, 35, 95
8, 237120, Note_off_c, 9, 35, 95
8, 237120, Note_on_c, 9, 44, 95
8, 237120, Note_on_c, 9, 37, 127
8, 237600, Note_off_c, 9, 44, 95
8, 237600, Note_off_c, 9, 37, 127
8, 237600, Note_on_c, 9, 35, 95
8, 238080, Note_off_c, 9, 35, 95
8, 238080, Note_on_c, 9, 44, 31
8, 238080, Note_on_c, 9, 35, 95
8, 239040, Note_off_c, 9, 44, 31
8, 239040, Note_off_c, 9, 35, 95
8, 239040, Note_on_c, 9, 44, 95
8, 239040, Note_on_c, 9, 37, 127
8, 239520, Note_off_c, 9, 44, 95
8, 239520, Note_off_c, 9, 37, 127
8, 239520, Note_on_c, 9, 45, 95
8, 240000, Note_off_c, 9, 45, 95
8, 240000, Note_on_c, 9, 44, 31
8, 240480, Note_off_c, 9, 44, 31
8, 240480, Note_on_c, 9, 35, 95
8, 240960, Note_off_c, 9, 35, 95
8, 240960, Note_on_c, 9, 44, 95
8, 240960, Note_on_c, 9, 37, 127
8, 241440, Note_off_c, 9, 44, 95
8, 241440, Note_off_c, 9, 37, 127
8, 241440, Note_on_c, 9, 35, 95
8, 241920, Note_off_c, 9, 35, 95
8, 241920, Note_on_c, 9, 44, 31
8, 241920, Note_on_c, 9, 35, 95
8, 242880, Note_off_c, 9, 44, 31
8, 242880, Note_off_c, 9, 35, 95
8, 242880, Note_on_c, 9, 44, 95
8, 242880, Note_on_c, 9, 37, 127
8, 243360, Note_off_c, 9, 44, 95
8, 243360, Note_off_c, 9, 37, 127
8, 243840, Note_on_c, 9, 44, 31
8, 243840, Note_on_c, 9, 40, 95
8, 244080, Note_off_c, 9, 44, 31
8, 244080, Note_off_c, 9, 40, 95
8, 244080, Note_on_c, 9, 40, 95
8, 244320, Note_off_c, 9, 40, 95
8, 244320, Note_on_c, 9, 40, 95
8, 244800, Note_off_c, 9, 40, 95
8, 244800, Note_on_c, 9, 40, 127
8, 245040, Note_off_c, 9, 40, 127
8, 245040, Note_on_c, 9, 40, 95
8, 245280, Note_off_c, 9, 40, 95
8, 245280, Note_on_c, 9, 40, 95
8, 245760, Note_off_c, 9, 40, 95
8, 245760, Note_on_c, 9, 44, 31
8, 245760, Note_on_c, 9, 35, 95
8, 246720, Note_off_c, 9, 44, 31
8, 246720, Note_off_c, 9, 35, 95
8, 246720, Note_on_c, 9, 44, 95
8, 246720, Note_on_c, 9, 37, 127
8, 247200, Note_off_c, 9, 44, 95
8, 247200, Note_off_c, 9, 37, 127
8, 247200, Note_on_c, 9, 45, 95
8, 247680, Note_off_c, 9, 45, 95
8, 247680, Note_on_c, 9, 44, 31
8, 248160, Note_off_c, 9, 44, 31
8, 248160, Note_on_c, 9, 35, 95
8, 248640, Note_off_c, 9, 35, 95
8, 248640, Note_on_c, 9, 44, 95
8, 248640, Note_on_c, 9, 37, 127
8, 249120, Note_off_c, 9, 44, 95
8, 249120, Note_off_c, 9, 37, 127
8, 249120, Note_on_c, 9, 35, 95
8, 249600, Note_off_c, 9, 35, 95
8, 249600, Note_on_c, 9, 44, 31
8, 249600, Note_on_c, 9, 35, 95
8, 250560, Note_off_c, 9, 44, 31
8, 250560, Note_off_c, 9, 35, 95
8, 250560, Note_on_c, 9, 44, 95
8, 250560, Note_on_c, 9, 37, 127
8, 251040, Note_off_c, 9, 44, 95
8, 251040, Note_off_c, 9, 37, 127
8, 251040, Note_on_c, 9, 45, 95
8, 251520, Note_off_c, 9, 45, 95
8, 251520, Note_on_c, 9, 44, 31
8, 252000, Note_off_c, 9, 44, 31
8, 252000, Note_on_c, 9, 35, 95
8, 252480, Note_off_c, 9, 35, 95
8, 252480, Note_on_c, 9, 44, 95
8, 252480, Note_on_c, 9, 37, 127
8, 252960, Note_off_c, 9, 44, 95
8, 252960, Note_off_c, 9, 37, 127
8, 252960, Note_on_c, 9, 35, 95
8, 253440, Note_off_c, 9, 35, 95
8, 253440, Note_on_c, 9, 44, 31
8, 253440, Note_on_c, 9, 35, 95
8, 254400, Note_off_c, 9, 44, 31
8, 254400, Note_off_c, 9, 35, 95
8, 254400, Note_on_c, 9, 44, 95
8, 254400, Note_on_c, 9, 37, 127
8, 254880, Note_off_c, 9, 44, 95
8, 254880, Note_off_c, 9, 37, 127
8, 254880, Note_on_c, 9, 45, 95
8, 255360, Note_off_c, 9, 45, 95
8, 255360, Note_on_c, 9, 44, 31
8, 255840, Note_off_c, 9, 44, 31
8, 255840, Note_on_c, 9, 35, 95
8, 256320, Note_off_c, 9, 35, 95
8, 256320, Note_on_c, 9, 44, 95
8, 256320, Note_on_c, 9, 37, 127
8, 256800, Note_off_c, 9, 44, 95
8, 256800, Note_off_c, 9, 37, 127
8, 256800, Note_on_c, 9, 35, 95
8, 257280, Note_off_c, 9, 35, 95
8, 257280, Note_on_c, 9, 44, 31
8, 257280, Note_on_c, 9, 35, 95
8, 258240, Note_off_c, 9, 44, 31
8, 258240, Note_off_c, 9, 35, 95
8, 258240, Note_on_c, 9, 44, 95
8, 258240, Note_on_c, 9, 37, 127
8, 258720, Note_off_c, 9, 44, 95
8, 258720, Note_off_c, 9, 37, 127
8, 258720, Note_on_c, 9, 45, 95
8, 259200, Note_off_c, 9, 45, 95
8, 259200, Note_on_c, 9, 44, 31
8, 259680, Note_off_c, 9, 44, 31
8, 259680, Note_on_c, 9, 35, 95
8, 260160, Note_off_c, 9, 35, 95
8, 260160, Note_on_c, 9, 44, 95
8, 260160, Note_on_c, 9, 37, 127
8, 260640, Note_off_c, 9, 44, 95
8, 260640, Note_off_c, 9, 37, 127
8, 260640, Note_on_c, 9, 35, 95
8, 261120, Note_off_c, 9, 35, 95
8, 261120, Note_on_c, 9, 44, 31
8, 261120, Note_on_c, 9, 35, 95
8, 262080, Note_off_c, 9, 44, 31
8, 262080, Note_off_c, 9, 35, 95
8, 262080, Note_on_c, 9, 44, 95
8, 262080, Note_on_c, 9, 37, 127
8, 262560, Note_off_c, 9, 44, 95
8, 262560, Note_off_c, 9, 37, 127
8, 262560, Note_on_c, 9, 45, 95
8, 263040, Note_off_c, 9, 45, 95
8, 263040, Note_on_c, 9, 44, 31
8, 263520, Note_off_c, 9, 44, 31
8, 263520, Note_on_c, 9, 35, 95
8, 264000, Note_off_c, 9, 35, 95
8, 264000, Note_on_c, 9, 44, 95
8, 264000, Note_on_c, 9, 37, 127
8, 264480, Note_off_c, 9, 44, 95
8, 264480, Note_off_c, 9, 37, 127
8, 264480, Note_on_c, 9, 35, 95
8, 264960, Note_off_c, 9, 35, 95
8, 264960, Note_on_c, 9, 44, 31
8, 264960, Note_on_c, 9, 35, 95
8, 265920, Note_off_c, 9, 44, 31
8, 265920, Note_off_c, 9, 35, 95
8, 265920, Note_on_c, 9, 44, 95
8, 265920, Note_on_c, 9, 37, 127
8, 266400, Note_off_c, 9, 44, 95
8, 266400, Note_off_c, 9, 37, 127
8, 266400, Note_on_c, 9, 45, 95
8, 266880, Note_off_c, 9, 45, 95
8, 266880, Note_on_c, 9, 44, 31
8, 267360, Note_off_c, 9, 44, 31
8, 267360, Note_on_c, 9, 35, 95
8, 267840, Note_off_c, 9, 35, 95
8, 267840, Note_on_c, 9, 44, 95
8, 267840, Note_on_c, 9, 37, 127
8, 268320, Note_off_c, 9, 44, 95
8, 268320, Note_off_c, 9, 37, 127
8, 268320, Note_on_c, 9, 35, 95
8, 268800, Note_off_c, 9, 35, 95
8, 268800, Note_on_c, 9, 44, 31
8, 268800, Note_on_c, 9, 35, 95
8, 269760, Note_off_c, 9, 44, 31
8, 269760, Note_off_c, 9, 35, 95
8, 269760, Note_on_c, 9, 44, 95
8, 269760, Note_on_c, 9, 37, 127
8, 270240, Note_off_c, 9, 44, 95
8, 270240, Note_off_c, 9, 37, 127
8, 270240, Note_on_c, 9, 45, 95
8, 270720, Note_off_c, 9, 45, 95
8, 270720, Note_on_c, 9, 44, 31
8, 271200, Note_off_c, 9, 44, 31
8, 271200, Note_on_c, 9, 35, 95
8, 271680, Note_off_c, 9, 35, 95
8, 271680, Note_on_c, 9, 44, 95
8, 271680, Note_on_c, 9, 37, 127
8, 272160, Note_off_c, 9, 44, 95
8, 272160, Note_off_c, 9, 37, 127
8, 272160, Note_on_c, 9, 35, 95
8, 272640, Note_off_c, 9, 35, 95
8, 272640, Note_on_c, 9, 44, 31
8, 272640, Note_on_c, 9, 35, 95
8, 273600, Note_off_c, 9, 44, 31
8, 273600, Note_off_c, 9, 35, 95
8, 273600, Note_on_c, 9, 44, 95
8, 273600, Note_on_c, 9, 37, 127
8, 274080, Note_off_c, 9, 44, 95
8, 274080, Note_off_c, 9, 37, 127
8, 274080, Note_on_c, 9, 45, 95
8, 274560, Note_off_c, 9, 45, 95
8, 274560, Note_on_c, 9, 44, 31
8, 275040, Note_off_c, 9, 44, 31
8, 275040, Note_on_c, 9, 35, 95
8, 275520, Note_off_c, 9, 35, 95
8, 275520, Note_on_c, 9, 44, 95
8, 275520, Note_on_c, 9, 37, 127
8, 276000, Note_off_c, 9, 44, 95
8, 276000, Note_off_c, 9, 37, 127
8, 276000, Note_on_c, 9, 35, 95
8, 276480, Note_off_c, 9, 35, 95
8, 276480, Note_on_c, 9, 44, 31
8, 276480, Note_on_c, 9, 35, 95
8, 277440, Note_off_c, 9, 44, 31
8, 277440, Note_off_c, 9, 35, 95
8, 277440, Note_on_c, 9, 44, 95
8, 277440, Note_on_c, 9, 37, 127
8, 277920, Note_off_c, 9, 44, 95
8, 277920, Note_off_c, 9, 37, 127
8, 277920, Note_on_c, 9, 45, 95
8, 278400, Note_off_c, 9, 45, 95
8, 278400, Note_on_c, 9, 44, 31
8, 278880, Note_off_c, 9, 44, 31
8, 278880, Note_on_c, 9, 35, 95
8, 279360, Note_off_c, 9, 35, 95
8, 279360, Note_on_c, 9, 44, 95
8, 279360, Note_on_c, 9, 37, 127
8, 279840, Note_off_c, 9, 44, 95
8, 279840, Note_off_c, 9, 37, 127
8, 279840, Note_on_c, 9, 35, 95
8, 280320, Note_off_c, 9, 35, 95
8, 280320, Note_on_c, 9, 44, 31
8, 280320, Note_on_c, 9, 35, 95
8, 281280, Note_off_c, 9, 44, 31
8, 281280, Note_off_c, 9, 35, 95
8, 281280, Note_on_c, 9, 44, 95
8, 281280, Note_on_c, 9, 37, 127
8, 281760, Note_off_c, 9, 44, 95
8, 281760, Note_off_c, 9, 37, 127
8, 281760, Note_on_c, 9, 45, 95
8, 282240, Note_off_c, 9, 45, 95
8, 282240, Note_on_c, 9, 44, 31
8, 282720, Note_off_c, 9, 44, 31
8, 282720, Note_on_c, 9, 35, 95
8, 283200, Note_off_c, 9, 35, 95
8, 283200, Note_on_c, 9, 44, 95
8, 283200, Note_on_c, 9, 37, 127
8, 283680, Note_off_c, 9, 44, 95
8, 283680, Note_off_c, 9, 37, 127
8, 283680, Note_on_c, 9, 35, 95
8, 284160, Note_off_c, 9, 35, 95
8, 284160, Note_on_c, 9, 44, 31
8, 284160, Note_on_c, 9, 35, 95
8, 285120, Note_off_c, 9, 44, 31
8, 285120, Note_off_c, 9, 35, 95
8, 285120, Note_on_c, 9, 44, 95
8, 285120, Note_on_c, 9, 37, 127
8, 285600, Note_off_c, 9, 44, 95
8, 285600, Note_off_c, 9, 37, 127
8, 285600, Note_on_c, 9, 45, 95
8, 286080, Note_off_c, 9, 45, 95
8, 286080, Note_on_c, 9, 44, 31
8, 286560, Note_off_c, 9, 44, 31
8, 286560, Note_on_c, 9, 35, 95
8, 287040, Note_off_c, 9, 35, 95
8, 287040, Note_on_c, 9, 44, 95
8, 287040, Note_on_c, 9, 37, 127
8, 287520, Note_off_c, 9, 44, 95
8, 287520, Note_off_c, 9, 37, 127
8, 287520, Note_on_c, 9, 35, 95
8, 288000, Note_off_c, 9, 35, 95
8, 288000, Note_on_c, 9, 44, 31
8, 288000, Note_on_c, 9, 35, 95
8, 288960, Note_off_c, 9, 44, 31
8, 288960, Note_off_c, 9, 35, 95
8, 288960, Note_on_c, 9, 44, 95
8, 288960, Note_on_c, 9, 37, 127
8, 289440, Note_off_c, 9, 44, 95
8, 289440, Note_off_c, 9, 37, 127
8, 289440, Note_on_c, 9, 45, 95
8, 289920, Note_off_c, 9, 45, 95
8, 289920, Note_on_c, 9, 44, 31
8, 290400, Note_off_c, 9, 44, 31
8, 290400, Note_on_c, 9, 35, 95
8, 290880, Note_off_c, 9, 35, 95
8, 290880, Note_on_c, 9, 44, 95
8, 290880, Note_on_c, 9, 37, 127
8, 291360, Note_off_c, 9, 44, 95
8, 291360, Note_off_c, 9, 37, 127
8, 291360, Note_on_c, 9, 35, 95
8, 291840, Note_off_c, 9, 35, 95
8, 291840, Note_on_c, 9, 44, 31
8, 291840, Note_on_c, 9, 35, 95
8, 292800, Note_off_c, 9, 44, 31
8, 292800, Note_off_c, 9, 35, 95
8, 292800, Note_on_c, 9, 44, 95
8, 292800, Note_on_c, 9, 37, 127
8, 293280, Note_off_c, 9, 44, 95
8, 293280, Note_off_c, 9, 37, 127
8, 293280, Note_on_c, 9, 45, 95
8, 293760, Note_off_c, 9, 45, 95
8, 293760, Note_on_c, 9, 44, 31
8, 294240, Note_off_c, 9, 44, 31
8, 294240, Note_on_c, 9, 35, 95
8, 294720, Note_off_c, 9, 35, 95
8, 294720, Note_on_c, 9, 44, 95
8, 294720, Note_on_c, 9, 37, 127
8, 295200, Note_off_c, 9, 44, 95
8, 295200, Note_off_c, 9, 37, 127
8, 295200, Note_on_c, 9, 35, 95
8, 295680, Note_off_c, 9, 35, 95
8, 295680, Note_on_c, 9, 44, 31
8, 295680, Note_on_c, 9, 35, 95
8, 296640, Note_off_c, 9, 44, 31
8, 296640, Note_off_c, 9, 35, 95
8, 296640, Note_on_c, 9, 44, 95
8, 296640, Note_on_c, 9, 37, 127
8, 297120, Note_off_c, 9, 44, 95
8, 297120, Note_off_c, 9, 37, 127
8, 297120, Note_on_c, 9, 45, 95
8, 297600, Note_off_c, 9, 45, 95
8, 297600, Note_on_c, 9, 44, 31
8, 298080, Note_off_c, 9, 44, 31
8, 298080, Note_on_c, 9, 35, 95
8, 298560, Note_off_c, 9, 35, 95
8, 298560, Note_on_c, 9, 44, 95
8, 298560, Note_on_c, 9, 37, 127
8, 299040, Note_off_c, 9, 44, 95
8, 299040, Note_off_c, 9, 37, 127
8, 299040, Note_on_c, 9, 35, 95
8, 299520, Note_off_c, 9, 35, 95
8, 299520, Note_on_c, 9, 44, 31
8, 299520, Note_on_c, 9, 35, 95
8, 300480, Note_off_c, 9, 44, 31
8, 300480, Note_off_c, 9, 35, 95
8, 300480, Note_on_c, 9, 44, 95
8, 300480, Note_on_c, 9, 37, 127
8, 300960, Note_off_c, 9, 44, 95
8, 300960, Note_off_c, 9, 37, 127
8, 300960, Note_on_c, 9, 45, 95
8, 301440, Note_off_c, 9, 45, 95
8, 301440, Note_on_c, 9, 44, 31
8, 301920, Note_off_c, 9, 44, 31
8, 301920, Note_on_c, 9, 35, 95
8, 302400, Note_off_c, 9, 35, 95
8, 302400, Note_on_c, 9, 44, 95
8, 302400, Note_on_c, 9, 37, 127
8, 302880, Note_off_c, 9, 44, 95
8, 302880, Note_off_c, 9, 37, 127
8, 302880, Note_on_c, 9, 35, 95
8, 303360, Note_off_c, 9, 35, 95
8, 303360, Note_on_c, 9, 44, 31
8, 303360, Note_on_c, 9, 35, 95
8, 304320, Note_off_c, 9, 44, 31
8, 304320, Note_off_c, 9, 35, 95
8, 304320, Note_on_c, 9, 44, 95
8, 304320, Note_on_c, 9, 37, 127
8, 304800, Note_off_c, 9, 44, 95
8, 304800, Note_off_c, 9, 37, 127
8, 304800, Note_on_c, 9, 45, 95
8, 305280, Note_off_c, 9, 45, 95
8, 305280, Note_on_c, 9, 44, 31
8, 305760, Note_off_c, 9, 44, 31
8, 305760, Note_on_c, 9, 35, 95
8, 306240, Note_off_c, 9, 35, 95
8, 306240, Note_on_c, 9, 44, 95
8, 306240, Note_on_c, 9, 37, 127
8, 306720, Note_off_c, 9, 44, 95
8, 306720, Note_off_c, 9, 37, 127
8, 306720, Note_on_c, 9, 35, 95
8, 307200, Note_off_c, 9, 35, 95
8, 307200, Note_on_c, 9, 44, 31
8, 307200, Note_on_c, 9, 35, 95
8, 308160, Note_off_c, 9, 44, 31
8, 308160, Note_off_c, 9, 35, 95
8, 308160, Note_on_c, 9, 44, 95
8, 308160, Note_on_c, 9, 37, 127
8, 308640, Note_off_c, 9, 44, 95
8, 308640, Note_off_c, 9, 37, 127
8, 308640, Note_on_c, 9, 45, 95
8, 309120, Note_off_c, 9, 45, 95
8, 309120, Note_on_c, 9, 44, 31
8, 309600, Note_off_c, 9, 44, 31
8, 309600, Note_on_c, 9, 35, 95
8, 310080, Note_off_c, 9, 35, 95
8, 310080, Note_on_c, 9, 44, 95
8, 310080, Note_on_c, 9, 37, 127
8, 310560, Note_off_c, 9, 44, 95
8, 310560, Note_off_c, 9, 37, 127
8, 310560, Note_on_c, 9, 35, 95
8, 311040, Note_off_c, 9, 35, 95
8, 311040, Note_on_c, 9, 44, 31
8, 311040, Note_on_c, 9, 35, 95
8, 312000, Note_off_c, 9, 44, 31
8, 312000, Note_off_c, 9, 35, 95
8, 312000, Note_on_c, 9, 44, 95
8, 312000, Note_on_c, 9, 37, 127
8, 312480, Note_off_c, 9, 44, 95
8, 312480, Note_off_c, 9, 37, 127
8, 312480, Note_on_c, 9, 45, 95
8, 312960, Note_off_c, 9, 45, 95
8, 312960, Note_on_c, 9, 44, 31
8, 313440, Note_off_c, 9, 44, 31
8, 313440, Note_on_c, 9, 35, 95
8, 313920, Note_off_c, 9, 35, 95
8, 313920, Note_on_c, 9, 44, 95
8, 313920, Note_on_c, 9, 37, 127
8, 314400, Note_off_c, 9, 44, 95
8, 314400, Note_off_c, 9, 37, 127
8, 314400, Note_on_c, 9, 35, 95
8, 314880, Note_off_c, 9, 35, 95
8, 314880, Note_on_c, 9, 44, 31
8, 314880, Note_on_c, 9, 35, 95
8, 315840, Note_off_c, 9, 44, 31
8, 315840, Note_off_c, 9, 35, 95
8, 315840, Note_on_c, 9, 44, 95
8, 315840, Note_on_c, 9, 37, 127
8, 316320, Note_off_c, 9, 44, 95
8, 316320, Note_off_c, 9, 37, 127
8, 316320, Note_on_c, 9, 45, 95
8, 316800, Note_off_c, 9, 45, 95
8, 316800, Note_on_c, 9, 44, 31
8, 317280, Note_off_c, 9, 44, 31
8, 317280, Note_on_c, 9, 35, 95
8, 317760, Note_off_c, 9, 35, 95
8, 317760, Note_on_c, 9, 44, 95
8, 317760, Note_on_c, 9, 37, 127
8, 318240, Note_off_c, 9, 44, 95
8, 318240, Note_off_c, 9, 37, 127
8, 318240, Note_on_c, 9, 35, 95
8, 318720, Note_off_c, 9, 35, 95
8, 318720, Note_on_c, 9, 44, 31
8, 318720, Note_on_c, 9, 35, 95
8, 319680, Note_off_c, 9, 44, 31
8, 319680, Note_off_c, 9, 35, 95
8, 319680, Note_on_c, 9, 44, 95
8, 319680, Note_on_c, 9, 37, 127
8, 320160, Note_off_c, 9, 44, 95
8, 320160, Note_off_c, 9, 37, 127
8, 320160, Note_on_c, 9, 45, 95
8, 320640, Note_off_c, 9, 45, 95
8, 320640, Note_on_c, 9, 44, 31
8, 321120, Note_off_c, 9, 44, 31
8, 321120, Note_on_c, 9, 35, 95
8, 321600, Note_off_c, 9, 35, 95
8, 321600, Note_on_c, 9, 44, 95
8, 321600, Note_on_c, 9, 37, 127
8, 322080, Note_off_c, 9, 44, 95
8, 322080, Note_off_c, 9, 37, 127
8, 322080, Note_on_c, 9, 35, 95
8, 322560, Note_off_c, 9, 35, 95
8, 322560, Note_on_c, 9, 44, 31
8, 322560, Note_on_c, 9, 35, 95
8, 323520, Note_off_c, 9, 44, 31
8, 323520, Note_off_c, 9, 35, 95
8, 323520, Note_on_c, 9, 44, 95
8, 323520, Note_on_c, 9, 37, 127
8, 324000, Note_off_c, 9, 44, 95
8, 324000, Note_off_c, 9, 37, 127
8, 324000, Note_on_c, 9, 45, 95
8, 324480, Note_off_c, 9, 45, 95
8, 324480, Note_on_c, 9, 44, 31
8, 324960, Note_off_c, 9, 44, 31
8, 324960, Note_on_c, 9, 35, 95
8, 325440, Note_off_c, 9, 35, 95
8, 325440, Note_on_c, 9, 44, 95
8, 325440, Note_on_c, 9, 37, 127
8, 325920, Note_off_c, 9, 44, 95
8, 325920, Note_off_c, 9, 37, 127
8, 325920, Note_on_c, 9, 35, 95
8, 326400, Note_off_c, 9, 35, 95
8, 326400, Note_on_c, 9, 44, 31
8, 326400, Note_on_c, 9, 35, 95
8, 327360, Note_off_c, 9, 44, 31
8, 327360, Note_off_c, 9, 35, 95
8, 327360, Note_on_c, 9, 44, 95
8, 327360, Note_on_c, 9, 37, 127
8, 327840, Note_off_c, 9, 44, 95
8, 327840, Note_off_c, 9, 37, 127
8, 327840, Note_on_c, 9, 45, 95
8, 328320, Note_off_c, 9, 45, 95
8, 328320, Note_on_c, 9, 44, 31
8, 328800, Note_off_c, 9, 44, 31
8, 328800, Note_on_c, 9, 35, 95
8, 329280, Note_off_c, 9, 35, 95
8, 329280, Note_on_c, 9, 44, 95
8, 329280, Note_on_c, 9, 37, 127
8, 329760, Note_off_c, 9, 44, 95
8, 329760, Note_off_c, 9, 37, 127
8, 329760, Note_on_c, 9, 35, 95
8, 330240, Note_off_c, 9, 35, 95
8, 330240, Note_on_c, 9, 44, 31
8, 330240, Note_on_c, 9, 35, 95
8, 331200, Note_off_c, 9, 44, 31
8, 331200, Note_off_c, 9, 35, 95
8, 331200, Note_on_c, 9, 44, 95
8, 331200, Note_on_c, 9, 37, 127
8, 331680, Note_off_c, 9, 44, 95
8, 331680, Note_off_c, 9, 37, 127
8, 331680, Note_on_c, 9, 45, 95
8, 332160, Note_off_c, 9, 45, 95
8, 332160, Note_on_c, 9, 44, 31
8, 332640, Note_off_c, 9, 44, 31
8, 332640, Note_on_c, 9, 35, 95
8, 333120, Note_off_c, 9, 35, 95
8, 333120, Note_on_c, 9, 44, 95
8, 333120, Note_on_c, 9, 37, 127
8, 333600, Note_off_c, 9, 44, 95
8, 333600, Note_off_c, 9, 37, 127
8, 333600, Note_on_c, 9, 35, 95
8, 334080, Note_off_c, 9, 35, 95
8, 334080, Note_on_c, 9, 44, 31
8, 334080, Note_on_c, 9, 35, 95
8, 335040, Note_off_c, 9, 44, 31
8, 335040, Note_off_c, 9, 35, 95
8, 335040, Note_on_c, 9, 44, 95
8, 335040, Note_on_c, 9, 37, 127
8, 335520, Note_off_c, 9, 44, 95
8, 335520, Note_off_c, 9, 37, 127
8, 335520, Note_on_c, 9, 45, 95
8, 336000, Note_off_c, 9, 45, 95
8, 336000, Note_on_c, 9, 44, 31
8, 336480, Note_off_c, 9, 44, 31
8, 336480, Note_on_c, 9, 35, 95
8, 336960, Note_off_c, 9, 35, 95
8, 336960, Note_on_c, 9, 44, 95
8, 336960, Note_on_c, 9, 37, 127
8, 337440, Note_off_c, 9, 44, 95
8, 337440, Note_off_c, 9, 37, 127
8, 337440, Note_on_c, 9, 35, 95
8, 337920, Note_off_c, 9, 35, 95
8, 337920, Note_on_c, 9, 44, 31
8, 337920, Note_on_c, 9, 35, 95
8, 338880, Note_off_c, 9, 44, 31
8, 338880, Note_off_c, 9, 35, 95
8, 338880, Note_on_c, 9, 44, 95
8, 338880, Note_on_c, 9, 37, 127
8, 339360, Note_off_c, 9, 44, 95
8, 339360, Note_off_c, 9, 37, 127
8, 339360, Note_on_c, 9, 45, 95
8, 339840, Note_off_c, 9, 45, 95
8, 339840, Note_on_c, 9, 44, 31
8, 340320, Note_off_c, 9, 44, 31
8, 340320, Note_on_c, 9, 35, 95
8, 340800, Note_off_c, 9, 35, 95
8, 340800, Note_on_c, 9, 44, 95
8, 340800, Note_on_c, 9, 37, 127
8, 341280, Note_off_c, 9, 44, 95
8, 341280, Note_off_c, 9, 37, 127
8, 341280, Note_on_c, 9, 35, 95
8, 341760, Note_off_c, 9, 35, 95
8, 341760, Note_on_c, 9, 44, 31
8, 341760, Note_on_c, 9, 35, 95
8, 342720, Note_off_c, 9, 44, 31
8, 342720, Note_off_c, 9, 35, 95
8, 342720, Note_on_c, 9, 44, 95
8, 342720, Note_on_c, 9, 37, 127
8, 343200, Note_off_c, 9, 44, 95
8, 343200, Note_off_c, 9, 37, 127
8, 343200, Note_on_c, 9, 45, 95
8, 343680, Note_off_c, 9, 45, 95
8, 343680, Note_on_c, 9, 44, 31
8, 344160, Note_off_c, 9, 44, 31
8, 344160, Note_on_c, 9, 35, 95
8, 344640, Note_off_c, 9, 35, 95
8, 344640, Note_on_c, 9, 44, 95
8, 344640, Note_on_c, 9, 37, 127
8, 345120, Note_off_c, 9, 44, 95
8, 345120, Note_off_c, 9, 37, 127
8, 345120, Note_on_c, 9, 35, 95
8, 345600, Note_off_c, 9, 35, 95
8, 345600, Note_on_c, 9, 44, 31
8, 345600, Note_on_c, 9, 35, 95
8, 346560, Note_off_c, 9, 44, 31
8, 346560, Note_off_c, 9, 35, 95
8, 346560, Note_on_c, 9, 44, 95
8, 346560, Note_on_c, 9, 37, 127
8, 347040, Note_off_c, 9, 44, 95
8, 347040, Note_off_c, 9, 37, 127
8, 347040, Note_on_c, 9, 45, 95
8, 347520, Note_off_c, 9, 45, 95
8, 347520, Note_on_c, 9, 44, 31
8, 348000, Note_off_c, 9, 44, 31
8, 348000, Note_on_c, 9, 35, 95
8, 348480, Note_off_c, 9, 35, 95
8, 348480, Note_on_c, 9, 44, 95
8, 348480, Note_on_c, 9, 37, 127
8, 348960, Note_off_c, 9, 44, 95
8, 348960, Note_off_c, 9, 37, 127
8, 348960, Note_on_c, 9, 35, 95
8, 349440, Note_off_c, 9, 35, 95
8, 349440, Note_on_c, 9, 44, 31
8, 349440, Note_on_c, 9, 35, 95
8, 350400, Note_off_c, 9, 44, 31
8, 350400, Note_off_c, 9, 35, 95
8, 350400, Note_on_c, 9, 44, 95
8, 350400, Note_on_c, 9, 37, 127
8, 350880, Note_off_c, 9, 44, 95
8, 350880, Note_off_c, 9, 37, 127
8, 350880, Note_on_c, 9, 45, 95
8, 351360, Note_off_c, 9, 45, 95
8, 351360, Note_on_c, 9, 44, 31
8, 351840, Note_off_c, 9, 44, 31
8, 351840, Note_on_c, 9, 35, 95
8, 352320, Note_off_c, 9, 35, 95
8, 352320, Note_on_c, 9, 44, 95
8, 352320, Note_on_c, 9, 37, 127
8, 352800, Note_off_c, 9, 44, 95
8, 352800, Note_off_c, 9, 37, 127
8, 352800, Note_on_c, 9, 35, 95
8, 353280, Note_off_c, 9, 35, 95
8, 353280, Note_on_c, 9, 44, 31
8, 353280, Note_on_c, 9, 35, 95
8, 354240, Note_off_c, 9, 44, 31
8, 354240, Note_off_c, 9, 35, 95
8, 354240, Note_on_c, 9, 44, 95
8, 354240, Note_on_c, 9, 37, 127
8, 354720, Note_off_c, 9, 44, 95
8, 354720, Note_off_c, 9, 37, 127
8, 354720, Note_on_c, 9, 45, 95
8, 355200, Note_off_c, 9, 45, 95
8, 355200, Note_on_c, 9, 44, 31
8, 355680, Note_off_c, 9, 44, 31
8, 355680, Note_on_c, 9, 35, 95
8, 356160, Note_off_c, 9, 35, 95
8, 356160, Note_on_c, 9, 44, 95
8, 356160, Note_on_c, 9, 37, 127
8, 356640, Note_off_c, 9, 44, 95
8, 356640, Note_off_c, 9, 37, 127
8, 356640, Note_on_c, 9, 35, 95
8, 357120, Note_off_c, 9, 35, 95
8, 357120, Note_on_c, 9, 44, 31
8, 357120, Note_on_c, 9, 35, 95
8, 358080, Note_off_c, 9, 44, 31
8, 358080, Note_off_c, 9, 35, 95
8, 358080, Note_on_c, 9, 44, 95
8, 358080, Note_on_c, 9, 37, 127
8, 358560, Note_off_c, 9, 44, 95
8, 358560, Note_off_c, 9, 37, 127
8, 358560, Note_on_c, 9, 45, 95
8, 359040, Note_off_c, 9, 45, 95
8, 359040, Note_on_c, 9, 44, 31
8, 359520, Note_off_c, 9, 44, 31
8, 359520, Note_on_c, 9, 35, 95
8, 360000, Note_off_c, 9, 35, 95
8, 360000, Note_on_c, 9, 44, 95
8, 360000, Note_on_c, 9, 37, 127
8, 360480, Note_off_c, 9, 44, 95
8, 360480, Note_off_c, 9, 37, 127
8, 360480, Note_on_c, 9, 35, 95
8, 360960, Note_off_c, 9, 35, 95
8, 360960, Note_on_c, 9, 44, 31
8, 360960, Note_on_c, 9, 35, 95
8, 361920, Note_off_c, 9, 44, 31
8, 361920, Note_off_c, 9, 35, 95
8, 361920, Note_on_c, 9, 44, 95
8, 361920, Note_on_c, 9, 37, 127
8, 362400, Note_off_c, 9, 44, 95
8, 362400, Note_off_c, 9, 37, 127
8, 362400, Note_on_c, 9, 45, 95
8, 362880, Note_off_c, 9, 45, 95
8, 362880, Note_on_c, 9, 44, 31
8, 363360, Note_off_c, 9, 44, 31
8, 363360, Note_on_c, 9, 35, 95
8, 363840, Note_off_c, 9, 35, 95
8, 363840, Note_on_c, 9, 44, 95
8, 363840, Note_on_c, 9, 37, 127
8, 364320, Note_off_c, 9, 44, 95
8, 364320, Note_off_c, 9, 37, 127
8, 364320, Note_on_c, 9, 35, 95
8, 364800, Note_off_c, 9, 35, 95
8, 364800, Note_on_c, 9, 44, 31
8, 364800, Note_on_c, 9, 35, 95
8, 365760, Note_off_c, 9, 44, 31
8, 365760, Note_off_c, 9, 35, 95
8, 365760, Note_on_c, 9, 44, 95
8, 365760, Note_on_c, 9, 37, 127
8, 366240, Note_off_c, 9, 44, 95
8, 366240, Note_off_c, 9, 37, 127
8, 366240, Note_on_c, 9, 45, 95
8, 366720, Note_off_c, 9, 45, 95
8, 366720, Note_on_c, 9, 44, 31
8, 367200, Note_off_c, 9, 44, 31
8, 367200, Note_on_c, 9, 35, 95
8, 367680, Note_off_c, 9, 35, 95
8, 367680, Note_on_c, 9, 44, 95
8, 367680, Note_on_c, 9, 37, 127
8, 368160, Note_off_c, 9, 44, 95
8, 368160, Note_off_c, 9, 37, 127
8, 368160, Note_on_c, 9, 35, 95
8, 368640, Note_off_c, 9, 35, 95
8, 368640, Note_on_c, 9, 49, 95
8, 368640, Note_on_c, 9, 44, 31
8, 368640, Note_on_c, 9, 35, 95
8, 369600, Note_off_c, 9, 49, 95
8, 369600, Note_off_c, 9, 44, 31
8, 369600, Note_off_c, 9, 35, 95
8, 369600, Note_on_c, 9, 44, 95
8, 369600, Note_on_c, 9, 37, 127
8, 370080, Note_off_c, 9, 44, 95
8, 370080, Note_off_c, 9, 37, 127
8, 370080, Note_on_c, 9, 45, 95
8, 370560, Note_off_c, 9, 45, 95
8, 370560, Note_on_c, 9, 44, 31
8, 371040, Note_off_c, 9, 44, 31
8, 371040, Note_on_c, 9, 35, 95
8, 371520, Note_off_c, 9, 35, 95
8, 371520, Note_on_c, 9, 44, 95
8, 371520, Note_on_c, 9, 37, 127
8, 372000, Note_off_c, 9, 44, 95
8, 372000, Note_off_c, 9, 37, 127
8, 372000, Note_on_c, 9, 35, 95
8, 372480, Note_off_c, 9, 35, 95
8, 372480, Note_on_c, 9, 44, 31
8, 372480, Note_on_c, 9, 35, 95
8, 373440, Note_off_c, 9, 44, 31
8, 373440, Note_off_c, 9, 35, 95
8, 373440, Note_on_c, 9, 44, 95
8, 373440, Note_on_c, 9, 37, 127
8, 373920, Note_off_c, 9, 44, 95
8, 373920, Note_off_c, 9, 37, 127
8, 373920, Note_on_c, 9, 45, 95
8, 374400, Note_off_c, 9, 45, 95
8, 374400, Note_on_c, 9, 44, 31
8, 374880, Note_off_c, 9, 44, 31
8, 374880, Note_on_c, 9, 35, 95
8, 375360, Note_off_c, 9, 35, 95
8, 375360, Note_on_c, 9, 44, 95
8, 375360, Note_on_c, 9, 37, 127
8, 375840, Note_off_c, 9, 44, 95
8, 375840, Note_off_c, 9, 37, 127
8, 375840, Note_on_c, 9, 35, 95
8, 376320, Note_off_c, 9, 35, 95
8, 376320, Note_on_c, 9, 44, 31
8, 376320, Note_on_c, 9, 35, 95
8, 377280, Note_off_c, 9, 44, 31
8, 377280, Note_off_c, 9, 35, 95
8, 377280, Note_on_c, 9, 44, 95
8, 377280, Note_on_c, 9, 37, 127
8, 377760, Note_off_c, 9, 44, 95
8, 377760, Note_off_c, 9, 37, 127
8, 377760, Note_on_c, 9, 45, 95
8, 378240, Note_off_c, 9, 45, 95
8, 378240, Note_on_c, 9, 44, 31
8, 378720, Note_off_c, 9, 44, 31
8, 378720, Note_on_c, 9, 35, 95
8, 379200, Note_off_c, 9, 35, 95
8, 379200, Note_on_c, 9, 44, 95
8, 379200, Note_on_c, 9, 37, 127
8, 379680, Note_off_c, 9, 44, 95
8, 379680, Note_off_c, 9, 37, 127
8, 379680, Note_on_c, 9, 35, 95
8, 380160, Note_off_c, 9, 35, 95
8, 380160, Note_on_c, 9, 44, 31
8, 380160, Note_on_c, 9, 35, 95
8, 381120, Note_off_c, 9, 44, 31
8, 381120, Note_off_c, 9, 35, 95
8, 381120, Note_on_c, 9, 44, 95
8, 381120, Note_on_c, 9, 37, 127
8, 381600, Note_off_c, 9, 44, 95
8, 381600, Note_off_c, 9, 37, 127
8, 381600, Note_on_c, 9, 45, 95
8, 382080, Note_off_c, 9, 45, 95
8, 382080, Note_on_c, 9, 44, 31
8, 382560, Note_off_c, 9, 44, 31
8, 382560, Note_on_c, 9, 35, 95
8, 383040, Note_off_c, 9, 35, 95
8, 383040, Note_on_c, 9, 44, 95
8, 383040, Note_on_c, 9, 37, 127
8, 383520, Note_off_c, 9, 44, 95
8, 383520, Note_off_c, 9, 37, 127
8, 383520, Note_on_c, 9, 35, 95
8, 384000, Note_off_c, 9, 35, 95
8, 384000, Note_on_c, 9, 44, 31
8, 384000, Note_on_c, 9, 35, 95
8, 384960, Note_off_c, 9, 44, 31
8, 384960, Note_off_c, 9, 35, 95
8, 384960, Note_on_c, 9, 44, 95
8, 384960, Note_on_c, 9, 37, 127
8, 385440, Note_off_c, 9, 44, 95
8, 385440, Note_off_c, 9, 37, 127
8, 385440, Note_on_c, 9, 45, 95
8, 385920, Note_off_c, 9, 45, 95
8, 385920, Note_on_c, 9, 44, 31
8, 386400, Note_off_c, 9, 44, 31
8, 386400, Note_on_c, 9, 35, 95
8, 386880, Note_off_c, 9, 35, 95
8, 386880, Note_on_c, 9, 44, 95
8, 386880, Note_on_c, 9, 37, 127
8, 387360, Note_off_c, 9, 44, 95
8, 387360, Note_off_c, 9, 37, 127
8, 387360, Note_on_c, 9, 35, 95
8, 387840, Note_off_c, 9, 35, 95
8, 387840, Note_on_c, 9, 44, 31
8, 387840, Note_on_c, 9, 35, 95
8, 388800, Note_off_c, 9, 44, 31
8, 388800, Note_off_c, 9, 35, 95
8, 388800, Note_on_c, 9, 44, 95
8, 388800, Note_on_c, 9, 37, 127
8, 389280, Note_off_c, 9, 44, 95
8, 389280, Note_off_c, 9, 37, 127
8, 389280, Note_on_c, 9, 45, 95
8, 389760, Note_off_c, 9, 45, 95
8, 389760, Note_on_c, 9, 44, 31
8, 390240, Note_off_c, 9, 44, 31
8, 390240, Note_on_c, 9, 35, 95
8, 390720, Note_off_c, 9, 35, 95
8, 390720, Note_on_c, 9, 44, 95
8, 390720, Note_on_c, 9, 37, 127
8, 391200, Note_off_c, 9, 44, 95
8, 391200, Note_off_c, 9, 37, 127
8, 391200, Note_on_c, 9, 35, 95
8, 391680, Note_off_c, 9, 35, 95
8, 391680, Note_on_c, 9, 44, 31
8, 391680, Note_on_c, 9, 35, 95
8, 392640, Note_off_c, 9, 44, 31
8, 392640, Note_off_c, 9, 35, 95
8, 392640, Note_on_c, 9, 44, 95
8, 392640, Note_on_c, 9, 37, 127
8, 393120, Note_off_c, 9, 44, 95
8, 393120, Note_off_c, 9, 37, 127
8, 393120, Note_on_c, 9, 45, 95
8, 393600, Note_off_c, 9, 45, 95
8, 393600, Note_on_c, 9, 44, 31
8, 394080, Note_off_c, 9, 44, 31
8, 394080, Note_on_c, 9, 35, 95
8, 394560, Note_off_c, 9, 35, 95
8, 394560, Note_on_c, 9, 44, 95
8, 394560, Note_on_c, 9, 37, 127
8, 395040, Note_off_c, 9, 44, 95
8, 395040, Note_off_c, 9, 37, 127
8, 395040, Note_on_c, 9, 35, 95
8, 395520, Note_off_c, 9, 35, 95
8, 395520, Note_on_c, 9, 44, 31
8, 395520, Note_on_c, 9, 35, 95
8, 396480, Note_off_c, 9, 44, 31
8, 396480, Note_off_c, 9, 35, 95
8, 396480, Note_on_c, 9, 44, 95
8, 396480, Note_on_c, 9, 37, 127
8, 396960, Note_off_c, 9, 44, 95
8, 396960, Note_off_c, 9, 37, 127
8, 396960, Note_on_c, 9, 45, 95
8, 397440, Note_off_c, 9, 45, 95
8, 397440, Note_on_c, 9, 44, 31
8, 397920, Note_off_c, 9, 44, 31
8, 397920, Note_on_c, 9, 35, 95
8, 398400, Note_off_c, 9, 35, 95
8, 398400, Note_on_c, 9, 44, 95
8, 398400, Note_on_c, 9, 37, 127
8, 398880, Note_off_c, 9, 44, 95
8, 398880, Note_off_c, 9, 37, 127
8, 398880, Note_on_c, 9, 35, 95
8, 399360, Note_off_c, 9, 35, 95
8, 399360, Note_on_c, 9, 44, 31
8, 399360, Note_on_c, 9, 35, 95
8, 400320, Note_off_c, 9, 44, 31
8, 400320, Note_off_c, 9, 35, 95
8, 400320, Note_on_c, 9, 44, 95
8, 400320, Note_on_c, 9, 37, 127
8, 400800, Note_off_c, 9, 44, 95
8, 400800, Note_off_c, 9, 37, 127
8, 400800, Note_on_c, 9, 45, 95
8, 401280, Note_off_c, 9, 45, 95
8, 401280, Note_on_c, 9, 44, 31
8, 401760, Note_off_c, 9, 44, 31
8, 401760, Note_on_c, 9, 35, 95
8, 402240, Note_off_c, 9, 35, 95
8, 402240, Note_on_c, 9, 44, 95
8, 402240, Note_on_c, 9, 37, 127
8, 402720, Note_off_c, 9, 44, 95
8, 402720, Note_off_c, 9, 37, 127
8, 402720, Note_on_c, 9, 35, 95
8, 403200, Note_off_c, 9, 35, 95
8, 403200, Note_on_c, 9, 44, 31
8, 403200, Note_on_c, 9, 35, 95
8, 404160, Note_off_c, 9, 44, 31
8, 404160, Note_off_c, 9, 35, 95
8, 404160, Note_on_c, 9, 44, 95
8, 404160, Note_on_c, 9, 37, 127
8, 404640, Note_off_c, 9, 44, 95
8, 404640, Note_off_c, 9, 37, 127
8, 404640, Note_on_c, 9, 45, 95
8, 405120, Note_off_c, 9, 45, 95
8, 405120, Note_on_c, 9, 44, 31
8, 405600, Note_off_c, 9, 44, 31
8, 405600, Note_on_c, 9, 35, 95
8, 406080, Note_off_c, 9, 35, 95
8, 406080, Note_on_c, 9, 44, 95
8, 406080, Note_on_c, 9, 37, 127
8, 406560, Note_off_c, 9, 44, 95
8, 406560, Note_off_c, 9, 37, 127
8, 406560, Note_on_c, 9, 35, 95
8, 407040, Note_off_c, 9, 35, 95
8, 407040, Note_on_c, 9, 44, 31
8, 407040, Note_on_c, 9, 35, 95
8, 408000, Note_off_c, 9, 44, 31
8, 408000, Note_off_c, 9, 35, 95
8, 408000, Note_on_c, 9, 44, 95
8, 408000, Note_on_c, 9, 37, 127
8, 408480, Note_off_c, 9, 44, 95
8, 408480, Note_off_c, 9, 37, 127
8, 408480, Note_on_c, 9, 45, 95
8, 408960, Note_off_c, 9, 45, 95
8, 408960, Note_on_c, 9, 44, 31
8, 409440, Note_off_c, 9, 44, 31
8, 409440, Note_on_c, 9, 35, 95
8, 409920, Note_off_c, 9, 35, 95
8, 409920, Note_on_c, 9, 44, 95
8, 409920, Note_on_c, 9, 37, 127
8, 410400, Note_off_c, 9, 44, 95
8, 410400, Note_off_c, 9, 37, 127
8, 410400, Note_on_c, 9, 35, 95
8, 410880, Note_off_c, 9, 35, 95
8, 410880, Note_on_c, 9, 44, 31
8, 410880, Note_on_c, 9, 35, 95
8, 411840, Note_off_c, 9, 44, 31
8, 411840, Note_off_c, 9, 35, 95
8, 411840, Note_on_c, 9, 44, 95
8, 411840, Note_on_c, 9, 37, 127
8, 412320, Note_off_c, 9, 44, 95
8, 412320, Note_off_c, 9, 37, 127
8, 412320, Note_on_c, 9, 45, 95
8, 412800, Note_off_c, 9, 45, 95
8, 412800, Note_on_c, 9, 44, 31
8, 413280, Note_off_c, 9, 44, 31
8, 413280, Note_on_c, 9, 35, 95
8, 413760, Note_off_c, 9, 35, 95
8, 413760, Note_on_c, 9, 44, 95
8, 413760, Note_on_c, 9, 37, 127
8, 414240, Note_off_c, 9, 44, 95
8, 414240, Note_off_c, 9, 37, 127
8, 414240, Note_on_c, 9, 35, 95
8, 414720, Note_off_c, 9, 35, 95
8, 414720, Note_on_c, 9, 44, 31
8, 414720, Note_on_c, 9, 35, 95
8, 415680, Note_off_c, 9, 44, 31
8, 415680, Note_off_c, 9, 35, 95
8, 415680, Note_on_c, 9, 44, 95
8, 415680, Note_on_c, 9, 37, 127
8, 416160, Note_off_c, 9, 44, 95
8, 416160, Note_off_c, 9, 37, 127
8, 416160, Note_on_c, 9, 45, 95
8, 416640, Note_off_c, 9, 45, 95
8, 416640, Note_on_c, 9, 44, 31
8, 417120, Note_off_c, 9, 44, 31
8, 417120, Note_on_c, 9, 35, 95
8, 417600, Note_off_c, 9, 35, 95
8, 417600, Note_on_c, 9, 44, 95
8, 417600, Note_on_c, 9, 37, 127
8, 418080, Note_off_c, 9, 44, 95
8, 418080, Note_off_c, 9, 37, 127
8, 418080, Note_on_c, 9, 35, 95
8, 418560, Note_off_c, 9, 35, 95
8, 418560, Note_on_c, 9, 44, 31
8, 418560, Note_on_c, 9, 35, 95
8, 419520, Note_off_c, 9, 44, 31
8, 419520, Note_off_c, 9, 35, 95
8, 419520, Note_on_c, 9, 44, 95
8, 419520, Note_on_c, 9, 37, 127
8, 420000, Note_off_c, 9, 44, 95
8, 420000, Note_off_c, 9, 37, 127
8, 420000, Note_on_c, 9, 45, 95
8, 420480, Note_off_c, 9, 45, 95
8, 420480, Note_on_c, 9, 44, 31
8, 420960, Note_off_c, 9, 44, 31
8, 420960, Note_on_c, 9, 35, 95
8, 421440, Note_off_c, 9, 35, 95
8, 421440, Note_on_c, 9, 44, 95
8, 421440, Note_on_c, 9, 37, 127
8, 421920, Note_off_c, 9, 44, 95
8, 421920, Note_off_c, 9, 37, 127
8, 421920, Note_on_c, 9, 35, 95
8, 422400, Note_off_c, 9, 35, 95
8, 422400, Note_on_c, 9, 44, 31
8, 422400, Note_on_c, 9, 35, 95
8, 423360, Note_off_c, 9, 44, 31
8, 423360, Note_off_c, 9, 35, 95
8, 423360, Note_on_c, 9, 44, 95
8, 423360, Note_on_c, 9, 37, 127
8, 423840, Note_off_c, 9, 44, 95
8, 423840, Note_off_c, 9, 37, 127
8, 423840, Note_on_c, 9, 45, 95
8, 424320, Note_off_c, 9, 45, 95
8, 424320, Note_on_c, 9, 44, 31
8, 424800, Note_off_c, 9, 44, 31
8, 424800, Note_on_c, 9, 35, 95
8, 425280, Note_off_c, 9, 35, 95
8, 425280, Note_on_c, 9, 44, 95
8, 425280, Note_on_c, 9, 37, 127
8, 425760, Note_off_c, 9, 44, 95
8, 425760, Note_off_c, 9, 37, 127
8, 425760, Note_on_c, 9, 35, 95
8, 426240, Note_off_c, 9, 35, 95
8, 426240, Note_on_c, 9, 44, 31
8, 426240, Note_on_c, 9, 35, 95
8, 427200, Note_off_c, 9, 44, 31
8, 427200, Note_off_c, 9, 35, 95
8, 427200, Note_on_c, 9, 44, 95
8, 427200, Note_on_c, 9, 37, 127
8, 427680, Note_off_c, 9, 44, 95
8, 427680, Note_off_c, 9, 37, 127
8, 427680, Note_on_c, 9, 45, 95
8, 428160, Note_off_c, 9, 45, 95
8, 428160, Note_on_c, 9, 44, 31
8, 428640, Note_off_c, 9, 44, 31
8, 428640, Note_on_c, 9, 35, 95
8, 429120, Note_off_c, 9, 35, 95
8, 429120, Note_on_c, 9, 44, 95
8, 429120, Note_on_c, 9, 37, 127
8, 429600, Note_off_c, 9, 44, 95
8, 429600, Note_off_c, 9, 37, 127
8, 429600, Note_on_c, 9, 35, 95
8, 430080, Note_off_c, 9, 35, 95
8, 430080, Note_on_c, 9, 44, 31
8, 430080, Note_on_c, 9, 35, 95
8, 431040, Note_off_c, 9, 44, 31
8, 431040, Note_off_c, 9, 35, 95
8, 431040, Note_on_c, 9, 44, 95
8, 431040, Note_on_c, 9, 37, 127
8, 431520, Note_off_c, 9, 44, 95
8, 431520, Note_off_c, 9, 37, 127
8, 431520, Note_on_c, 9, 45, 95
8, 432000, Note_off_c, 9, 45, 95
8, 432000, Note_on_c, 9, 44, 31
8, 432480, Note_off_c, 9, 44, 31
8, 432480, Note_on_c, 9, 35, 95
8, 432960, Note_off_c, 9, 35, 95
8, 432960, Note_on_c, 9, 44, 95
8, 432960, Note_on_c, 9, 37, 127
8, 433440, Note_off_c, 9, 44, 95
8, 433440, Note_off_c, 9, 37, 127
8, 433440, Note_on_c, 9, 35, 95
8, 433920, Note_off_c, 9, 35, 95
8, 433920, Note_on_c, 9, 44, 31
8, 433920, Note_on_c, 9, 35, 95
8, 434880, Note_off_c, 9, 44, 31
8, 434880, Note_off_c, 9, 35, 95
8, 434880, Note_on_c, 9, 44, 95
8, 434880, Note_on_c, 9, 37, 127
8, 435360, Note_off_c, 9, 44, 95
8, 435360, Note_off_c, 9, 37, 127
8, 435360, Note_on_c, 9, 45, 95
8, 435840, Note_off_c, 9, 45, 95
8, 435840, Note_on_c, 9, 44, 31
8, 436320, Note_off_c, 9, 44, 31
8, 436320, Note_on_c, 9, 35, 95
8, 436800, Note_off_c, 9, 35, 95
8, 436800, Note_on_c, 9, 44, 95
8, 436800, Note_on_c, 9, 37, 127
8, 437280, Note_off_c, 9, 44, 95
8, 437280, Note_off_c, 9, 37, 127
8, 437280, Note_on_c, 9, 35, 95
8, 437760, Note_off_c, 9, 35, 95
8, 437760, Note_on_c, 9, 44, 31
8, 437760, Note_on_c, 9, 35, 95
8, 438720, Note_off_c, 9, 44, 31
8, 438720, Note_off_c, 9, 35, 95
8, 438720, Note_on_c, 9, 44, 95
8, 438720, Note_on_c, 9, 37, 127
8, 439200, Note_off_c, 9, 44, 95
8, 439200, Note_off_c, 9, 37, 127
8, 439200, Note_on_c, 9, 45, 95
8, 439680, Note_off_c, 9, 45, 95
8, 439680, Note_on_c, 9, 44, 31
8, 440160, Note_off_c, 9, 44, 31
8, 440160, Note_on_c, 9, 35, 95
8, 440640, Note_off_c, 9, 35, 95
8, 440640, Note_on_c, 9, 44, 95
8, 440640, Note_on_c, 9, 37, 127
8, 441120, Note_off_c, 9, 44, 95
8, 441120, Note_off_c, 9, 37, 127
8, 441120, Note_on_c, 9, 35, 95
8, 441600, Note_off_c, 9, 35, 95
8, 441600, Note_on_c, 9, 44, 31
8, 441600, Note_on_c, 9, 35, 95
8, 442560, Note_off_c, 9, 44, 31
8, 442560, Note_off_c, 9, 35, 95
8, 442560, Note_on_c, 9, 44, 95
8, 442560, Note_on_c, 9, 37, 127
8, 443040, Note_off_c, 9, 44, 95
8, 443040, Note_off_c, 9, 37, 127
8, 443040, Note_on_c, 9, 45, 95
8, 443520, Note_off_c, 9, 45, 95
8, 443520, Note_on_c, 9, 44, 31
8, 444000, Note_off_c, 9, 44, 31
8, 444000, Note_on_c, 9, 35, 95
8, 444480, Note_off_c, 9, 35, 95
8, 444480, Note_on_c, 9, 44, 95
8, 444480, Note_on_c, 9, 37, 127
8, 444960, Note_off_c, 9, 44, 95
8, 444960, Note_off_c, 9, 37, 127
8, 444960, Note_on_c, 9, 35, 95
8, 445440, Note_off_c, 9, 35, 95
8, 445440, Note_on_c, 9, 44, 31
8, 445440, Note_on_c, 9, 35, 95
8, 446400, Note_off_c, 9, 44, 31
8, 446400, Note_off_c, 9, 35, 95
8, 446400, Note_on_c, 9, 44, 95
8, 446400, Note_on_c, 9, 37, 127
8, 446880, Note_off_c, 9, 44, 95
8, 446880, Note_off_c, 9, 37, 127
8, 446880, Note_on_c, 9, 45, 95
8, 447360, Note_off_c, 9, 45, 95
8, 447360, Note_on_c, 9, 44, 31
8, 447840, Note_off_c, 9, 44, 31
8, 447840, Note_on_c, 9, 35, 95
8, 448320, Note_off_c, 9, 35, 95
8, 448320, Note_on_c, 9, 44, 95
8, 448320, Note_on_c, 9, 37, 127
8, 448800, Note_off_c, 9, 44, 95
8, 448800, Note_off_c, 9, 37, 127
8, 448800, Note_on_c, 9, 35, 95
8, 449280, Note_off_c, 9, 35, 95
8, 449280, Note_on_c, 9, 44, 31
8, 449280, Note_on_c, 9, 35, 95
8, 450240, Note_off_c, 9, 44, 31
8, 450240, Note_off_c, 9, 35, 95
8, 450240, Note_on_c, 9, 44, 95
8, 450240, Note_on_c, 9, 37, 127
8, 450720, Note_off_c, 9, 44, 95
8, 450720, Note_off_c, 9, 37, 127
8, 450720, Note_on_c, 9, 45, 95
8, 451200, Note_off_c, 9, 45, 95
8, 451200, Note_on_c, 9, 44, 31
8, 451680, Note_off_c, 9, 44, 31
8, 451680, Note_on_c, 9, 35, 95
8, 452160, Note_off_c, 9, 35, 95
8, 452160, Note_on_c, 9, 44, 95
8, 452160, Note_on_c, 9, 37, 127
8, 452640, Note_off_c, 9, 44, 95
8, 452640, Note_off_c, 9, 37, 127
8, 452640, Note_on_c, 9, 35, 95
8, 453120, Note_off_c, 9, 35, 95
8, 453120, Note_on_c, 9, 44, 31
8, 453120, Note_on_c, 9, 35, 95
8, 454080, Note_off_c, 9, 44, 31
8, 454080, Note_off_c, 9, 35, 95
8, 454080, Note_on_c, 9, 44, 95
8, 454080, Note_on_c, 9, 37, 127
8, 454560, Note_off_c, 9, 44, 95
8, 454560, Note_off_c, 9, 37, 127
8, 454560, Note_on_c, 9, 45, 95
8, 455040, Note_off_c, 9, 45, 95
8, 455040, Note_on_c, 9, 44, 31
8, 455520, Note_off_c, 9, 44, 31
8, 455520, Note_on_c, 9, 35, 95
8, 456000, Note_off_c, 9, 35, 95
8, 456000, Note_on_c, 9, 44, 95
8, 456000, Note_on_c, 9, 37, 127
8, 456480, Note_off_c, 9, 44, 95
8, 456480, Note_off_c, 9, 37, 127
8, 456480, Note_on_c, 9, 35, 95
8, 456960, Note_off_c, 9, 35, 95
8, 456960, Note_on_c, 9, 44, 31
8, 456960, Note_on_c, 9, 35, 95
8, 457920, Note_off_c, 9, 44, 31
8, 457920, Note_off_c, 9, 35, 95
8, 457920, Note_on_c, 9, 44, 95
8, 457920, Note_on_c, 9, 37, 127
8, 458400, Note_off_c, 9, 44, 95
8, 458400, Note_off_c, 9, 37, 127
8, 458400, Note_on_c, 9, 45, 95
8, 458880, Note_off_c, 9, 45, 95
8, 458880, Note_on_c, 9, 44, 31
8, 459360, Note_off_c, 9, 44, 31
8, 459360, Note_on_c, 9, 35, 95
8, 459840, Note_off_c, 9, 35, 95
8, 459840, Note_on_c, 9, 44, 95
8, 459840, Note_on_c, 9, 37, 127
8, 460320, Note_off_c, 9, 44, 95
8, 460320, Note_off_c, 9, 37, 127
8, 460320, Note_on_c, 9, 35, 95
8, 460800, Note_off_c, 9, 35, 95
8, 460800, Note_on_c, 9, 44, 31
8, 460800, Note_on_c, 9, 35, 95
8, 461760, Note_off_c, 9, 44, 31
8, 461760, Note_off_c, 9, 35, 95
8, 461760, Note_on_c, 9, 44, 95
8, 461760, Note_on_c, 9, 37, 127
8, 462240, Note_off_c, 9, 44, 95
8, 462240, Note_off_c, 9, 37, 127
8, 462240, Note_on_c, 9, 45, 95
8, 462720, Note_off_c, 9, 45, 95
8, 462720, Note_on_c, 9, 44, 31
8, 463200, Note_off_c, 9, 44, 31
8, 463200, Note_on_c, 9, 35, 95
8, 463680, Note_off_c, 9, 35, 95
8, 463680, Note_on_c, 9, 44, 95
8, 463680, Note_on_c, 9, 37, 127
8, 464160, Note_off_c, 9, 44, 95
8, 464160, Note_off_c, 9, 37, 127
8, 464160, Note_on_c, 9, 35, 95
8, 464640, Note_off_c, 9, 35, 95
8, 464640, Note_on_c, 9, 44, 31
8, 464640, Note_on_c, 9, 35, 95
8, 465600, Note_off_c, 9, 44, 31
8, 465600, Note_off_c, 9, 35, 95
8, 465600, Note_on_c, 9, 44, 95
8, 465600, Note_on_c, 9, 37, 127
8, 466080, Note_off_c, 9, 44, 95
8, 466080, Note_off_c, 9, 37, 127
8, 466080, Note_on_c, 9, 45, 95
8, 466560, Note_off_c, 9, 45, 95
8, 466560, Note_on_c, 9, 44, 31
8, 467040, Note_off_c, 9, 44, 31
8, 467040, Note_on_c, 9, 35, 95
8, 467520, Note_off_c, 9, 35, 95
8, 467520, Note_on_c, 9, 44, 95
8, 467520, Note_on_c, 9, 37, 127
8, 468000, Note_off_c, 9, 44, 95
8, 468000, Note_off_c, 9, 37, 127
8, 468000, Note_on_c, 9, 35, 95
8, 468480, Note_off_c, 9, 35, 95
8, 468480, Note_on_c, 9, 44, 31
8, 468480, Note_on_c, 9, 35, 95
8, 469440, Note_off_c, 9, 44, 31
8, 469440, Note_off_c, 9, 35, 95
8, 469440, Note_on_c, 9, 44, 95
8, 469440, Note_on_c, 9, 37, 127
8, 469920, Note_off_c, 9, 44, 95
8, 469920, Note_off_c, 9, 37, 127
8, 469920, Note_on_c, 9, 45, 95
8, 470400, Note_off_c, 9, 45, 95
8, 470400, Note_on_c, 9, 44, 31
8, 470880, Note_off_c, 9, 44, 31
8, 470880, Note_on_c, 9, 35, 95
8, 471360, Note_off_c, 9, 35, 95
8, 471360, Note_on_c, 9, 44, 95
8, 471360, Note_on_c, 9, 37, 127
8, 471840, Note_off_c, 9, 44, 95
8, 471840, Note_off_c, 9, 37, 127
8, 471840, Note_on_c, 9, 35, 95
8, 472320, Note_off_c, 9, 35, 95
8, 472320, Note_on_c, 9, 44, 31
8, 472320, Note_on_c, 9, 35, 95
8, 473280, Note_off_c, 9, 44, 31
8, 473280, Note_off_c, 9, 35, 95
8, 473280, Note_on_c, 9, 44, 95
8, 473280, Note_on_c, 9, 37, 127
8, 473760, Note_off_c, 9, 44, 95
8, 473760, Note_off_c, 9, 37, 127
8, 473760, Note_on_c, 9, 45, 95
8, 474240, Note_off_c, 9, 45, 95
8, 474240, Note_on_c, 9, 44, 31
8, 474720, Note_off_c, 9, 44, 31
8, 474720, Note_on_c, 9, 35, 95
8, 475200, Note_off_c, 9, 35, 95
8, 475200, Note_on_c, 9, 44, 95
8, 475200, Note_on_c, 9, 37, 127
8, 475680, Note_off_c, 9, 44, 95
8, 475680, Note_off_c, 9, 37, 127
8, 475680, Note_on_c, 9, 35, 95
8, 476160, Note_off_c, 9, 35, 95
8, 476160, Note_on_c, 9, 44, 31
8, 476160, Note_on_c, 9, 35, 95
8, 477120, Note_off_c, 9, 44, 31
8, 477120, Note_off_c, 9, 35, 95
8, 477120, Note_on_c, 9, 44, 95
8, 477120, Note_on_c, 9, 37, 127
8, 477600, Note_off_c, 9, 44, 95
8, 477600, Note_off_c, 9, 37, 127
8, 477600, Note_on_c, 9, 45, 95
8, 478080, Note_off_c, 9, 45, 95
8, 478080, Note_on_c, 9, 44, 31
8, 478560, Note_off_c, 9, 44, 31
8, 478560, Note_on_c, 9, 35, 95
8, 479040, Note_off_c, 9, 35, 95
8, 479040, Note_on_c, 9, 44, 95
8, 479040, Note_on_c, 9, 37, 127
8, 479520, Note_off_c, 9, 44, 95
8, 479520, Note_off_c, 9, 37, 127
8, 479520, Note_on_c, 9, 35, 95
8, 480000, Note_off_c, 9, 35, 95
8, 480000, Note_on_c, 9, 44, 31
8, 480000, Note_on_c, 9, 35, 95
8, 480960, Note_off_c, 9, 44, 31
8, 480960, Note_off_c, 9, 35, 95
8, 480960, Note_on_c, 9, 44, 95
8, 480960, Note_on_c, 9, 37, 127
8, 481440, Note_off_c, 9, 44, 95
8, 481440, Note_off_c, 9, 37, 127
8, 481440, Note_on_c, 9, 45, 95
8, 481920, Note_off_c, 9, 45, 95
8, 481920, Note_on_c, 9, 44, 31
8, 482400, Note_off_c, 9, 44, 31
8, 482400, Note_on_c, 9, 35, 95
8, 482880, Note_off_c, 9, 35, 95
8, 482880, Note_on_c, 9, 44, 95
8, 482880, Note_on_c, 9, 37, 127
8, 483360, Note_off_c, 9, 44, 95
8, 483360, Note_off_c, 9, 37, 127
8, 483360, Note_on_c, 9, 35, 95
8, 483840, Note_off_c, 9, 35, 95
8, 483840, Note_on_c, 9, 44, 31
8, 483840, Note_on_c, 9, 35, 95
8, 484800, Note_off_c, 9, 44, 31
8, 484800, Note_off_c, 9, 35, 95
8, 484800, Note_on_c, 9, 44, 95
8, 484800, Note_on_c, 9, 37, 127
8, 485280, Note_off_c, 9, 44, 95
8, 485280, Note_off_c, 9, 37, 127
8, 485280, Note_on_c, 9, 45, 95
8, 485760, Note_off_c, 9, 45, 95
8, 485760, Note_on_c, 9, 44, 31
8, 486240, Note_off_c, 9, 44, 31
8, 486240, Note_on_c, 9, 35, 95
8, 486720, Note_off_c, 9, 35, 95
8, 486720, Note_on_c, 9, 44, 95
8, 486720, Note_on_c, 9, 37, 127
8, 487200, Note_off_c, 9, 44, 95
8, 487200, Note_off_c, 9, 37, 127
8, 487200, Note_on_c, 9, 35, 95
8, 487680, Note_off_c, 9, 35, 95
8, 487680, Note_on_c, 9, 44, 31
8, 487680, Note_on_c, 9, 35, 95
8, 488640, Note_off_c, 9, 44, 31
8, 488640, Note_off_c, 9, 35, 95
8, 488640, Note_on_c, 9, 44, 95
8, 488640, Note_on_c, 9, 37, 127
8, 489120, Note_off_c, 9, 44, 95
8, 489120, Note_off_c, 9, 37, 127
8, 489120, Note_on_c, 9, 45, 95
8, 489600, Note_off_c, 9, 45, 95
8, 489600, Note_on_c, 9, 44, 31
8, 490080, Note_off_c, 9, 44, 31
8, 490080, Note_on_c, 9, 35, 95
8, 490560, Note_off_c, 9, 35, 95
8, 490560, Note_on_c, 9, 44, 95
8, 490560, Note_on_c, 9, 37, 127
8, 491040, Note_off_c, 9, 44, 95
8, 491040, Note_off_c, 9, 37, 127
8, 491040, Note_on_c, 9, 35, 95
8, 491520, Note_off_c, 9, 35, 95
8, 491520, Note_on_c, 9, 44, 31
8, 491520, Note_on_c, 9, 35, 95
8, 492480, Note_off_c, 9, 44, 31
8, 492480, Note_off_c, 9, 35, 95
8, 492480, Note_on_c, 9, 44, 95
8, 492480, Note_on_c, 9, 37, 127
8, 492960, Note_off_c, 9, 44, 95
8, 492960, Note_off_c, 9, 37, 127
8, 492960, Note_on_c, 9, 45, 95
8, 493440, Note_off_c, 9, 45, 95
8, 493440, Note_on_c, 9, 46, 95
8, 493440, Note_on_c, 9, 40, 95
8, 493920, Note_off_c, 9, 46, 95
8, 493920, Note_off_c, 9, 40, 95
8, 493920, Note_on_c, 9, 45, 95
8, 494400, Note_off_c, 9, 45, 95
8, 494400, Note_on_c, 9, 44, 95
8, 494400, Note_on_c, 9, 45, 95
8, 494880, Note_off_c, 9, 44, 95
8, 494880, Note_off_c, 9, 45, 95
8, 494880, Note_on_c, 9, 45, 95
8, 495360, Note_off_c, 9, 45, 95
8, 495360, Note_on_c, 9, 49, 95
8, 495360, Note_on_c, 9, 35, 95
8, 495840, Note_off_c, 9, 49, 95
8, 495840, Note_off_c, 9, 35, 95
8, 495840, Note_on_c, 9, 51, 79
8, 496320, Note_off_c, 9, 51, 79
8, 496320, Note_on_c, 9, 51, 95
8, 496320, Note_on_c, 9, 40, 127
8, 496800, Note_off_c, 9, 51, 95
8, 496800, Note_off_c, 9, 40, 127
8, 496800, Note_on_c, 9, 51, 79
8, 496800, Note_on_c, 9, 45, 95
8, 497280, Note_off_c, 9, 51, 79
8, 497280, Note_off_c, 9, 45, 95
8, 497280, Note_on_c, 9, 51, 79
8, 497760, Note_off_c, 9, 51, 79
8, 497760, Note_on_c, 9, 51, 79
8, 497760, Note_on_c, 9, 35, 95
8, 498240, Note_off_c, 9, 51, 79
8, 498240, Note_off_c, 9, 35, 95
8, 498240, Note_on_c, 9, 51, 95
8, 498240, Note_on_c, 9, 40, 127
8, 498720, Note_off_c, 9, 51, 95
8, 498720, Note_off_c, 9, 40, 127
8, 498720, Note_on_c, 9, 51, 79
8, 498720, Note_on_c, 9, 35, 95
8, 499200, Note_off_c, 9, 51, 79
8, 499200, Note_off_c, 9, 35, 95
8, 499200, Note_on_c, 9, 51, 79
8, 499200, Note_on_c, 9, 35, 95
8, 499680, Note_off_c, 9, 51, 79
8, 499680, Note_off_c, 9, 35, 95
8, 499680, Note_on_c, 9, 51, 79
8, 500160, Note_off_c, 9, 51, 79
8, 500160, Note_on_c, 9, 51, 95
8, 500160, Note_on_c, 9, 40, 127
8, 500640, Note_off_c, 9, 51, 95
8, 500640, Note_off_c, 9, 40, 127
8, 500640, Note_on_c, 9, 51, 79
8, 500640, Note_on_c, 9, 45, 95
8, 501120, Note_off_c, 9, 51, 79
8, 501120, Note_off_c, 9, 45, 95
8, 501120, Note_on_c, 9, 51, 79
8, 501600, Note_off_c, 9, 51, 79
8, 501600, Note_on_c, 9, 51, 79
8, 501600, Note_on_c, 9, 35, 95
8, 502080, Note_off_c, 9, 51, 79
8, 502080, Note_off_c, 9, 35, 95
8, 502080, Note_on_c, 9, 51, 95
8, 502080, Note_on_c, 9, 40, 127
8, 502560, Note_off_c, 9, 51, 95
8, 502560, Note_off_c, 9, 40, 127
8, 502560, Note_on_c, 9, 51, 79
8, 502560, Note_on_c, 9, 35, 95
8, 503040, Note_off_c, 9, 51, 79
8, 503040, Note_off_c, 9, 35, 95
8, 503040, Note_on_c, 9, 51, 79
8, 503040, Note_on_c, 9, 35, 95
8, 503520, Note_off_c, 9, 51, 79
8, 503520, Note_off_c, 9, 35, 95
8, 503520, Note_on_c, 9, 51, 79
8, 504000, Note_off_c, 9, 51, 79
8, 504000, Note_on_c, 9, 51, 95
8, 504000, Note_on_c, 9, 40, 127
8, 504480, Note_off_c, 9, 51, 95
8, 504480, Note_off_c, 9, 40, 127
8, 504480, Note_on_c, 9, 51, 79
8, 504480, Note_on_c, 9, 45, 95
8, 504960, Note_off_c, 9, 51, 79
8, 504960, Note_off_c, 9, 45, 95
8, 504960, Note_on_c, 9, 51, 79
8, 505440, Note_off_c, 9, 51, 79
8, 505440, Note_on_c, 9, 51, 79
8, 505440, Note_on_c, 9, 35, 95
8, 505920, Note_off_c, 9, 51, 79
8, 505920, Note_off_c, 9, 35, 95
8, 505920, Note_on_c, 9, 51, 95
8, 505920, Note_on_c, 9, 40, 127
8, 506400, Note_off_c, 9, 51, 95
8, 506400, Note_off_c, 9, 40, 127
8, 506400, Note_on_c, 9, 51, 79
8, 506400, Note_on_c, 9, 35, 95
8, 506880, Note_off_c, 9, 51, 79
8, 506880, Note_off_c, 9, 35, 95
8, 506880, Note_on_c, 9, 51, 79
8, 506880, Note_on_c, 9, 35, 95
8, 507360, Note_off_c, 9, 51, 79
8, 507360, Note_off_c, 9, 35, 95
8, 507360, Note_on_c, 9, 51, 79
8, 507840, Note_off_c, 9, 51, 79
8, 507840, Note_on_c, 9, 51, 95
8, 507840, Note_on_c, 9, 40, 127
8, 508320, Note_off_c, 9, 51, 95
8, 508320, Note_off_c, 9, 40, 127
8, 508320, Note_on_c, 9, 51, 79
8, 508320, Note_on_c, 9, 45, 95
8, 508560, Note_off_c, 9, 51, 79
8, 508560, Note_off_c, 9, 45, 95
8, 508560, Note_on_c, 9, 40, 63
8, 508800, Note_off_c, 9, 40, 63
8, 508800, Note_on_c, 9, 49, 95
8, 509040, Note_off_c, 9, 49, 95
8, 509040, Note_on_c, 9, 40, 63
8, 509280, Note_off_c, 9, 40, 63
8, 509280, Note_on_c, 9, 40, 63
8, 509520, Note_off_c, 9, 40, 63
8, 509520, Note_on_c, 9, 40, 95
8, 509760, Note_off_c, 9, 40, 95
8, 509760, Note_on_c, 9, 40, 127
8, 510000, Note_off_c, 9, 40, 127
8, 510000, Note_on_c, 9, 40, 95
8, 510240, Note_off_c, 9, 40, 95
8, 510240, Note_on_c, 9, 45, 95
8, 510240, Note_on_c, 9, 35, 95
8, 510480, Note_off_c, 9, 45, 95
8, 510480, Note_off_c, 9, 35, 95
8, 510480, Note_on_c, 9, 45, 95
8, 510720, Note_off_c, 9, 45, 95
8, 510720, Note_on_c, 9, 49, 95
8, 510720, Note_on_c, 9, 35, 95
8, 511200, Note_off_c, 9, 49, 95
8, 511200, Note_off_c, 9, 35, 95
8, 511200, Note_on_c, 9, 51, 79
8, 511680, Note_off_c, 9, 51, 79
8, 511680, Note_on_c, 9, 51, 95
8, 511680, Note_on_c, 9, 40, 127
8, 512160, Note_off_c, 9, 51, 95
8, 512160, Note_off_c, 9, 40, 127
8, 512160, Note_on_c, 9, 51, 79
8, 512160, Note_on_c, 9, 45, 95
8, 512640, Note_off_c, 9, 51, 79
8, 512640, Note_off_c, 9, 45, 95
8, 512640, Note_on_c, 9, 51, 79
8, 513120, Note_off_c, 9, 51, 79
8, 513120, Note_on_c, 9, 51, 79
8, 513120, Note_on_c, 9, 35, 95
8, 513600, Note_off_c, 9, 51, 79
8, 513600, Note_off_c, 9, 35, 95
8, 513600, Note_on_c, 9, 51, 95
8, 513600, Note_on_c, 9, 40, 127
8, 514080, Note_off_c, 9, 51, 95
8, 514080, Note_off_c, 9, 40, 127
8, 514080, Note_on_c, 9, 51, 79
8, 514080, Note_on_c, 9, 35, 95
8, 514560, Note_off_c, 9, 51, 79
8, 514560, Note_off_c, 9, 35, 95
8, 514560, Note_on_c, 9, 51, 79
8, 514560, Note_on_c, 9, 35, 95
8, 515040, Note_off_c, 9, 51, 79
8, 515040, Note_off_c, 9, 35, 95
8, 515040, Note_on_c, 9, 51, 79
8, 515520, Note_off_c, 9, 51, 79
8, 515520, Note_on_c, 9, 51, 95
8, 515520, Note_on_c, 9, 40, 127
8, 516000, Note_off_c, 9, 51, 95
8, 516000, Note_off_c, 9, 40, 127
8, 516000, Note_on_c, 9, 51, 79
8, 516000, Note_on_c, 9, 45, 95
8, 516480, Note_off_c, 9, 51, 79
8, 516480, Note_off_c, 9, 45, 95
8, 516480, Note_on_c, 9, 51, 79
8, 516960, Note_off_c, 9, 51, 79
8, 516960, Note_on_c, 9, 51, 79
8, 516960, Note_on_c, 9, 35, 95
8, 517440, Note_off_c, 9, 51, 79
8, 517440, Note_off_c, 9, 35, 95
8, 517440, Note_on_c, 9, 51, 95
8, 517440, Note_on_c, 9, 40, 127
8, 517920, Note_off_c, 9, 51, 95
8, 517920, Note_off_c, 9, 40, 127
8, 517920, Note_on_c, 9, 51, 79
8, 517920, Note_on_c, 9, 35, 95
8, 518400, Note_off_c, 9, 51, 79
8, 518400, Note_off_c, 9, 35, 95
8, 518400, Note_on_c, 9, 51, 79
8, 518400, Note_on_c, 9, 35, 95
8, 518880, Note_off_c, 9, 51, 79
8, 518880, Note_off_c, 9, 35, 95
8, 518880, Note_on_c, 9, 51, 79
8, 519360, Note_off_c, 9, 51, 79
8, 519360, Note_on_c, 9, 51, 95
8, 519360, Note_on_c, 9, 40, 127
8, 519840, Note_off_c, 9, 51, 95
8, 519840, Note_off_c, 9, 40, 127
8, 519840, Note_on_c, 9, 51, 79
8, 519840, Note_on_c, 9, 45, 95
8, 520320, Note_off_c, 9, 51, 79
8, 520320, Note_off_c, 9, 45, 95
8, 520320, Note_on_c, 9, 51, 79
8, 520800, Note_off_c, 9, 51, 79
8, 520800, Note_on_c, 9, 51, 79
8, 520800, Note_on_c, 9, 35, 95
8, 521280, Note_off_c, 9, 51, 79
8, 521280, Note_off_c, 9, 35, 95
8, 521280, Note_on_c, 9, 51, 95
8, 521280, Note_on_c, 9, 40, 127
8, 521760, Note_off_c, 9, 51, 95
8, 521760, Note_off_c, 9, 40, 127
8, 521760, Note_on_c, 9, 51, 79
8, 521760, Note_on_c, 9, 35, 95
8, 522240, Note_off_c, 9, 51, 79
8, 522240, Note_off_c, 9, 35, 95
8, 522240, Note_on_c, 9, 51, 79
8, 522240, Note_on_c, 9, 35, 95
8, 522720, Note_off_c, 9, 51, 79
8, 522720, Note_off_c, 9, 35, 95
8, 522720, Note_on_c, 9, 51, 79
8, 523200, Note_off_c, 9, 51, 79
8, 523200, Note_on_c, 9, 51, 95
8, 523200, Note_on_c, 9, 40, 127
8, 523680, Note_off_c, 9, 51, 95
8, 523680, Note_off_c, 9, 40, 127
8, 523680, Note_on_c, 9, 51, 79
8, 523680, Note_on_c, 9, 45, 95
8, 524160, Note_off_c, 9, 51, 79
8, 524160, Note_off_c, 9, 45, 95
8, 524160, Note_on_c, 9, 51, 79
8, 524640, Note_off_c, 9, 51, 79
8, 524640, Note_on_c, 9, 51, 79
8, 524640, Note_on_c, 9, 35, 95
8, 525120, Note_off_c, 9, 51, 79
8, 525120, Note_off_c, 9, 35, 95
8, 525120, Note_on_c, 9, 40, 127
8, 525360, Note_off_c, 9, 40, 127
8, 525360, Note_on_c, 9, 40, 95
8, 525600, Note_off_c, 9, 40, 95
8, 525600, Note_on_c, 9, 40, 95
8, 525840, Note_off_c, 9, 40, 95
8, 525840, Note_on_c, 9, 40, 95
8, 526080, Note_off_c, 9, 40, 95
8, 526080, Note_on_c, 9, 51, 79
8, 526080, Note_on_c, 9, 35, 95
8, 526560, Note_off_c, 9, 51, 79
8, 526560, Note_off_c, 9, 35, 95
8, 526560, Note_on_c, 9, 51, 79
8, 527040, Note_off_c, 9, 51, 79
8, 527040, Note_on_c, 9, 51, 95
8, 527040, Note_on_c, 9, 40, 127
8, 527520, Note_off_c, 9, 51, 95
8, 527520, Note_off_c, 9, 40, 127
8, 527520, Note_on_c, 9, 51, 79
8, 527520, Note_on_c, 9, 45, 95
8, 528000, Note_off_c, 9, 51, 79
8, 528000, Note_off_c, 9, 45, 95
8, 528000, Note_on_c, 9, 51, 79
8, 528480, Note_off_c, 9, 51, 79
8, 528480, Note_on_c, 9, 51, 79
8, 528480, Note_on_c, 9, 35, 95
8, 528960, Note_off_c, 9, 51, 79
8, 528960, Note_off_c, 9, 35, 95
8, 528960, Note_on_c, 9, 51, 95
8, 528960, Note_on_c, 9, 40, 127
8, 529440, Note_off_c, 9, 51, 95
8, 529440, Note_off_c, 9, 40, 127
8, 529440, Note_on_c, 9, 51, 79
8, 529440, Note_on_c, 9, 35, 95
8, 529920, Note_off_c, 9, 51, 79
8, 529920, Note_off_c, 9, 35, 95
8, 529920, Note_on_c, 9, 51, 79
8, 529920, Note_on_c, 9, 35, 95
8, 530400, Note_off_c, 9, 51, 79
8, 530400, Note_off_c, 9, 35, 95
8, 530400, Note_on_c, 9, 51, 79
8, 530880, Note_off_c, 9, 51, 79
8, 530880, Note_on_c, 9, 51, 95
8, 530880, Note_on_c, 9, 40, 127
8, 531360, Note_off_c, 9, 51, 95
8, 531360, Note_off_c, 9, 40, 127
8, 531360, Note_on_c, 9, 51, 79
8, 531360, Note_on_c, 9, 45, 95
8, 531840, Note_off_c, 9, 51, 79
8, 531840, Note_off_c, 9, 45, 95
8, 531840, Note_on_c, 9, 51, 79
8, 532320, Note_off_c, 9, 51, 79
8, 532320, Note_on_c, 9, 51, 79
8, 532320, Note_on_c, 9, 35, 95
8, 532800, Note_off_c, 9, 51, 79
8, 532800, Note_off_c, 9, 35, 95
8, 532800, Note_on_c, 9, 51, 95
8, 532800, Note_on_c, 9, 40, 127
8, 533280, Note_off_c, 9, 51, 95
8, 533280, Note_off_c, 9, 40, 127
8, 533280, Note_on_c, 9, 51, 79
8, 533280, Note_on_c, 9, 40, 95
8, 533520, Note_off_c, 9, 51, 79
8, 533520, Note_off_c, 9, 40, 95
8, 533520, Note_on_c, 9, 40, 95
8, 533760, Note_off_c, 9, 40, 95
8, 533760, Note_on_c, 9, 51, 79
8, 533760, Note_on_c, 9, 35, 95
8, 534240, Note_off_c, 9, 51, 79
8, 534240, Note_off_c, 9, 35, 95
8, 534240, Note_on_c, 9, 51, 79
8, 534720, Note_off_c, 9, 51, 79
8, 534720, Note_on_c, 9, 51, 95
8, 534720, Note_on_c, 9, 40, 127
8, 535200, Note_off_c, 9, 51, 95
8, 535200, Note_off_c, 9, 40, 127
8, 535200, Note_on_c, 9, 51, 79
8, 535200, Note_on_c, 9, 45, 95
8, 535680, Note_off_c, 9, 51, 79
8, 535680, Note_off_c, 9, 45, 95
8, 535680, Note_on_c, 9, 51, 79
8, 536160, Note_off_c, 9, 51, 79
8, 536160, Note_on_c, 9, 51, 79
8, 536160, Note_on_c, 9, 35, 95
8, 536640, Note_off_c, 9, 51, 79
8, 536640, Note_off_c, 9, 35, 95
8, 536640, Note_on_c, 9, 51, 95
8, 536640, Note_on_c, 9, 40, 127
8, 537120, Note_off_c, 9, 51, 95
8, 537120, Note_off_c, 9, 40, 127
8, 537120, Note_on_c, 9, 40, 95
8, 537120, Note_on_c, 9, 43, 95
8, 537600, Note_off_c, 9, 40, 95
8, 537600, Note_off_c, 9, 43, 95
8, 537600, Note_on_c, 9, 49, 95
8, 537600, Note_on_c, 9, 35, 95
8, 538080, Note_off_c, 9, 49, 95
8, 538080, Note_off_c, 9, 35, 95
8, 538080, Note_on_c, 9, 51, 79
8, 538560, Note_off_c, 9, 51, 79
8, 538560, Note_on_c, 9, 51, 95
8, 538560, Note_on_c, 9, 40, 127
8, 539040, Note_off_c, 9, 51, 95
8, 539040, Note_off_c, 9, 40, 127
8, 539040, Note_on_c, 9, 51, 79
8, 539040, Note_on_c, 9, 45, 95
8, 539520, Note_off_c, 9, 51, 79
8, 539520, Note_off_c, 9, 45, 95
8, 539520, Note_on_c, 9, 51, 79
8, 540000, Note_off_c, 9, 51, 79
8, 540000, Note_on_c, 9, 51, 79
8, 540000, Note_on_c, 9, 35, 95
8, 540480, Note_off_c, 9, 51, 79
8, 540480, Note_off_c, 9, 35, 95
8, 540480, Note_on_c, 9, 51, 95
8, 540480, Note_on_c, 9, 40, 127
8, 540960, Note_off_c, 9, 51, 95
8, 540960, Note_off_c, 9, 40, 127
8, 540960, Note_on_c, 9, 51, 79
8, 540960, Note_on_c, 9, 35, 95
8, 541440, Note_off_c, 9, 51, 79
8, 541440, Note_off_c, 9, 35, 95
8, 541440, Note_on_c, 9, 51, 79
8, 541440, Note_on_c, 9, 35, 95
8, 541920, Note_off_c, 9, 51, 79
8, 541920, Note_off_c, 9, 35, 95
8, 541920, Note_on_c, 9, 51, 79
8, 542400, Note_off_c, 9, 51, 79
8, 542400, Note_on_c, 9, 51, 95
8, 542400, Note_on_c, 9, 40, 127
8, 542880, Note_off_c, 9, 51, 95
8, 542880, Note_off_c, 9, 40, 127
8, 542880, Note_on_c, 9, 51, 79
8, 542880, Note_on_c, 9, 45, 95
8, 543360, Note_off_c, 9, 51, 79
8, 543360, Note_off_c, 9, 45, 95
8, 543360, Note_on_c, 9, 51, 79
8, 543840, Note_off_c, 9, 51, 79
8, 543840, Note_on_c, 9, 51, 79
8, 543840, Note_on_c, 9, 35, 95
8, 544320, Note_off_c, 9, 51, 79
8, 544320, Note_off_c, 9, 35, 95
8, 544320, Note_on_c, 9, 51, 95
8, 544320, Note_on_c, 9, 40, 127
8, 544800, Note_off_c, 9, 51, 95
8, 544800, Note_off_c, 9, 40, 127
8, 544800, Note_on_c, 9, 51, 79
8, 544800, Note_on_c, 9, 35, 95
8, 545280, Note_off_c, 9, 51, 79
8, 545280, Note_off_c, 9, 35, 95
8, 545280, Note_on_c, 9, 51, 79
8, 545280, Note_on_c, 9, 35, 95
8, 545760, Note_off_c, 9, 51, 79
8, 545760, Note_off_c, 9, 35, 95
8, 545760, Note_on_c, 9, 51, 79
8, 546240, Note_off_c, 9, 51, 79
8, 546240, Note_on_c, 9, 51, 95
8, 546240, Note_on_c, 9, 40, 127
8, 546720, Note_off_c, 9, 51, 95
8, 546720, Note_off_c, 9, 40, 127
8, 546720, Note_on_c, 9, 51, 79
8, 546720, Note_on_c, 9, 45, 95
8, 547200, Note_off_c, 9, 51, 79
8, 547200, Note_off_c, 9, 45, 95
8, 547200, Note_on_c, 9, 51, 79
8, 547680, Note_off_c, 9, 51, 79
8, 547680, Note_on_c, 9, 51, 79
8, 547680, Note_on_c, 9, 35, 95
8, 548160, Note_off_c, 9, 51, 79
8, 548160, Note_off_c, 9, 35, 95
8, 548160, Note_on_c, 9, 51, 95
8, 548160, Note_on_c, 9, 40, 127
8, 548640, Note_off_c, 9, 51, 95
8, 548640, Note_off_c, 9, 40, 127
8, 548640, Note_on_c, 9, 51, 79
8, 548640, Note_on_c, 9, 35, 95
8, 549120, Note_off_c, 9, 51, 79
8, 549120, Note_off_c, 9, 35, 95
8, 549120, Note_on_c, 9, 51, 79
8, 549120, Note_on_c, 9, 35, 95
8, 549600, Note_off_c, 9, 51, 79
8, 549600, Note_off_c, 9, 35, 95
8, 549600, Note_on_c, 9, 51, 79
8, 550080, Note_off_c, 9, 51, 79
8, 550080, Note_on_c, 9, 51, 95
8, 550080, Note_on_c, 9, 40, 127
8, 550560, Note_off_c, 9, 51, 95
8, 550560, Note_off_c, 9, 40, 127
8, 550560, Note_on_c, 9, 51, 79
8, 550560, Note_on_c, 9, 45, 95
8, 550800, Note_off_c, 9, 51, 79
8, 550800, Note_off_c, 9, 45, 95
8, 550800, Note_on_c, 9, 40, 63
8, 551040, Note_off_c, 9, 40, 63
8, 551040, Note_on_c, 9, 49, 95
8, 551280, Note_off_c, 9, 49, 95
8, 551280, Note_on_c, 9, 40, 63
8, 551520, Note_off_c, 9, 40, 63
8, 551520, Note_on_c, 9, 40, 63
8, 551760, Note_off_c, 9, 40, 63
8, 551760, Note_on_c, 9, 40, 95
8, 552000, Note_off_c, 9, 40, 95
8, 552000, Note_on_c, 9, 40, 127
8, 552240, Note_off_c, 9, 40, 127
8, 552240, Note_on_c, 9, 40, 95
8, 552480, Note_off_c, 9, 40, 95
8, 552480, Note_on_c, 9, 45, 95
8, 552480, Note_on_c, 9, 35, 95
8, 552720, Note_off_c, 9, 45, 95
8, 552720, Note_off_c, 9, 35, 95
8, 552720, Note_on_c, 9, 45, 95
8, 552960, Note_off_c, 9, 45, 95
8, 552960, Note_on_c, 9, 49, 95
8, 552960, Note_on_c, 9, 35, 95
8, 553440, Note_off_c, 9, 49, 95
8, 553440, Note_off_c, 9, 35, 95
8, 553440, Note_on_c, 9, 51, 79
8, 553920, Note_off_c, 9, 51, 79
8, 553920, Note_on_c, 9, 51, 95
8, 553920, Note_on_c, 9, 40, 127
8, 554400, Note_off_c, 9, 51, 95
8, 554400, Note_off_c, 9, 40, 127
8, 554400, Note_on_c, 9, 51, 79
8, 554400, Note_on_c, 9, 45, 95
8, 554880, Note_off_c, 9, 51, 79
8, 554880, Note_off_c, 9, 45, 95
8, 554880, Note_on_c, 9, 51, 79
8, 555360, Note_off_c, 9, 51, 79
8, 555360, Note_on_c, 9, 51, 79
8, 555360, Note_on_c, 9, 35, 95
8, 555840, Note_off_c, 9, 51, 79
8, 555840, Note_off_c, 9, 35, 95
8, 555840, Note_on_c, 9, 51, 95
8, 555840, Note_on_c, 9, 40, 127
8, 556320, Note_off_c, 9, 51, 95
8, 556320, Note_off_c, 9, 40, 127
8, 556320, Note_on_c, 9, 51, 79
8, 556320, Note_on_c, 9, 35, 95
8, 556800, Note_off_c, 9, 51, 79
8, 556800, Note_off_c, 9, 35, 95
8, 556800, Note_on_c, 9, 51, 79
8, 556800, Note_on_c, 9, 35, 95
8, 557280, Note_off_c, 9, 51, 79
8, 557280, Note_off_c, 9, 35, 95
8, 557280, Note_on_c, 9, 51, 79
8, 557760, Note_off_c, 9, 51, 79
8, 557760, Note_on_c, 9, 51, 95
8, 557760, Note_on_c, 9, 40, 127
8, 558240, Note_off_c, 9, 51, 95
8, 558240, Note_off_c, 9, 40, 127
8, 558240, Note_on_c, 9, 51, 79
8, 558240, Note_on_c, 9, 45, 95
8, 558720, Note_off_c, 9, 51, 79
8, 558720, Note_off_c, 9, 45, 95
8, 558720, Note_on_c, 9, 51, 79
8, 559200, Note_off_c, 9, 51, 79
8, 559200, Note_on_c, 9, 51, 79
8, 559200, Note_on_c, 9, 35, 95
8, 559680, Note_off_c, 9, 51, 79
8, 559680, Note_off_c, 9, 35, 95
8, 559680, Note_on_c, 9, 51, 95
8, 559680, Note_on_c, 9, 40, 127
8, 560160, Note_off_c, 9, 51, 95
8, 560160, Note_off_c, 9, 40, 127
8, 560160, Note_on_c, 9, 51, 79
8, 560160, Note_on_c, 9, 35, 95
8, 560640, Note_off_c, 9, 51, 79
8, 560640, Note_off_c, 9, 35, 95
8, 560640, Note_on_c, 9, 51, 79
8, 560640, Note_on_c, 9, 35, 95
8, 561120, Note_off_c, 9, 51, 79
8, 561120, Note_off_c, 9, 35, 95
8, 561120, Note_on_c, 9, 51, 79
8, 561600, Note_off_c, 9, 51, 79
8, 561600, Note_on_c, 9, 51, 95
8, 561600, Note_on_c, 9, 40, 127
8, 562080, Note_off_c, 9, 51, 95
8, 562080, Note_off_c, 9, 40, 127
8, 562080, Note_on_c, 9, 51, 79
8, 562080, Note_on_c, 9, 45, 95
8, 562560, Note_off_c, 9, 51, 79
8, 562560, Note_off_c, 9, 45, 95
8, 562560, Note_on_c, 9, 51, 79
8, 563040, Note_off_c, 9, 51, 79
8, 563040, Note_on_c, 9, 51, 79
8, 563040, Note_on_c, 9, 35, 95
8, 563520, Note_off_c, 9, 51, 79
8, 563520, Note_off_c, 9, 35, 95
8, 563520, Note_on_c, 9, 51, 95
8, 563520, Note_on_c, 9, 40, 127
8, 564000, Note_off_c, 9, 51, 95
8, 564000, Note_off_c, 9, 40, 127
8, 564000, Note_on_c, 9, 51, 79
8, 564000, Note_on_c, 9, 35, 95
8, 564480, Note_off_c, 9, 51, 79
8, 564480, Note_off_c, 9, 35, 95
8, 564480, Note_on_c, 9, 51, 79
8, 564480, Note_on_c, 9, 35, 95
8, 564960, Note_off_c, 9, 51, 79
8, 564960, Note_off_c, 9, 35, 95
8, 564960, Note_on_c, 9, 51, 79
8, 565440, Note_off_c, 9, 51, 79
8, 565440, Note_on_c, 9, 51, 95
8, 565440, Note_on_c, 9, 40, 127
8, 565920, Note_off_c, 9, 51, 95
8, 565920, Note_off_c, 9, 40, 127
8, 565920, Note_on_c, 9, 51, 79
8, 565920, Note_on_c, 9, 45, 95
8, 566400, Note_off_c, 9, 51, 79
8, 566400, Note_off_c, 9, 45, 95
8, 566400, Note_on_c, 9, 51, 79
8, 566880, Note_off_c, 9, 51, 79
8, 566880, Note_on_c, 9, 51, 79
8, 566880, Note_on_c, 9, 35, 95
8, 567360, Note_off_c, 9, 51, 79
8, 567360, Note_off_c, 9, 35, 95
8, 567360, Note_on_c, 9, 40, 127
8, 567600, Note_off_c, 9, 40, 127
8, 567600, Note_on_c, 9, 40, 95
8, 567840, Note_off_c, 9, 40, 95
8, 567840, Note_on_c, 9, 40, 95
8, 568080, Note_off_c, 9, 40, 95
8, 568080, Note_on_c, 9, 40, 95
8, 568320, Note_off_c, 9, 40, 95
8, 568320, Note_on_c, 9, 51, 79
8, 568320, Note_on_c, 9, 35, 95
8, 568800, Note_off_c, 9, 51, 79
8, 568800, Note_off_c, 9, 35, 95
8, 568800, Note_on_c, 9, 51, 79
8, 569280, Note_off_c, 9, 51, 79
8, 569280, Note_on_c, 9, 51, 95
8, 569280, Note_on_c, 9, 40, 127
8, 569760, Note_off_c, 9, 51, 95
8, 569760, Note_off_c, 9, 40, 127
8, 569760, Note_on_c, 9, 51, 79
8, 569760, Note_on_c, 9, 45, 95
8, 570240, Note_off_c, 9, 51, 79
8, 570240, Note_off_c, 9, 45, 95
8, 570240, Note_on_c, 9, 51, 79
8, 570720, Note_off_c, 9, 51, 79
8, 570720, Note_on_c, 9, 51, 79
8, 570720, Note_on_c, 9, 35, 95
8, 571200, Note_off_c, 9, 51, 79
8, 571200, Note_off_c, 9, 35, 95
8, 571200, Note_on_c, 9, 51, 95
8, 571200, Note_on_c, 9, 40, 127
8, 571680, Note_off_c, 9, 51, 95
8, 571680, Note_off_c, 9, 40, 127
8, 571680, Note_on_c, 9, 51, 79
8, 571680, Note_on_c, 9, 35, 95
8, 572160, Note_off_c, 9, 51, 79
8, 572160, Note_off_c, 9, 35, 95
8, 572160, Note_on_c, 9, 51, 79
8, 572160, Note_on_c, 9, 35, 95
8, 572640, Note_off_c, 9, 51, 79
8, 572640, Note_off_c, 9, 35, 95
8, 572640, Note_on_c, 9, 51, 79
8, 573120, Note_off_c, 9, 51, 79
8, 573120, Note_on_c, 9, 51, 95
8, 573120, Note_on_c, 9, 40, 127
8, 573600, Note_off_c, 9, 51, 95
8, 573600, Note_off_c, 9, 40, 127
8, 573600, Note_on_c, 9, 51, 79
8, 573600, Note_on_c, 9, 45, 95
8, 574080, Note_off_c, 9, 51, 79
8, 574080, Note_off_c, 9, 45, 95
8, 574080, Note_on_c, 9, 51, 79
8, 574560, Note_off_c, 9, 51, 79
8, 574560, Note_on_c, 9, 51, 79
8, 574560, Note_on_c, 9, 35, 95
8, 575040, Note_off_c, 9, 51, 79
8, 575040, Note_off_c, 9, 35, 95
8, 575040, Note_on_c, 9, 51, 95
8, 575040, Note_on_c, 9, 40, 127
8, 575520, Note_off_c, 9, 51, 95
8, 575520, Note_off_c, 9, 40, 127
8, 575520, Note_on_c, 9, 51, 79
8, 575520, Note_on_c, 9, 40, 95
8, 575760, Note_off_c, 9, 51, 79
8, 575760, Note_off_c, 9, 40, 95
8, 575760, Note_on_c, 9, 40, 95
8, 576000, Note_off_c, 9, 40, 95
8, 576000, Note_on_c, 9, 51, 79
8, 576000, Note_on_c, 9, 35, 95
8, 576480, Note_off_c, 9, 51, 79
8, 576480, Note_off_c, 9, 35, 95
8, 576480, Note_on_c, 9, 51, 79
8, 576960, Note_off_c, 9, 51, 79
8, 576960, Note_on_c, 9, 51, 95
8, 576960, Note_on_c, 9, 40, 127
8, 577440, Note_off_c, 9, 51, 95
8, 577440, Note_off_c, 9, 40, 127
8, 577440, Note_on_c, 9, 51, 79
8, 577440, Note_on_c, 9, 45, 95
8, 577920, Note_off_c, 9, 51, 79
8, 577920, Note_off_c, 9, 45, 95
8, 577920, Note_on_c, 9, 51, 79
8, 578400, Note_off_c, 9, 51, 79
8, 578400, Note_on_c, 9, 51, 79
8, 578400, Note_on_c, 9, 35, 95
8, 578880, Note_off_c, 9, 51, 79
8, 578880, Note_off_c, 9, 35, 95
8, 578880, Note_on_c, 9, 51, 95
8, 578880, Note_on_c, 9, 40, 127
8, 579360, Note_off_c, 9, 51, 95
8, 579360, Note_off_c, 9, 40, 127
8, 579360, Note_on_c, 9, 40, 95
8, 579360, Note_on_c, 9, 43, 95
8, 579840, Note_off_c, 9, 40, 95
8, 579840, Note_off_c, 9, 43, 95
8, 579840, Note_on_c, 9, 49, 95
8, 579840, Note_on_c, 9, 35, 95
8, 580320, Note_off_c, 9, 49, 95
8, 580320, Note_off_c, 9, 35, 95
8, 580320, Note_on_c, 9, 51, 79
8, 580800, Note_off_c, 9, 51, 79
8, 580800, Note_on_c, 9, 51, 95
8, 580800, Note_on_c, 9, 40, 127
8, 581280, Note_off_c, 9, 51, 95
8, 581280, Note_off_c, 9, 40, 127
8, 581280, Note_on_c, 9, 51, 79
8, 581280, Note_on_c, 9, 45, 95
8, 581760, Note_off_c, 9, 51, 79
8, 581760, Note_off_c, 9, 45, 95
8, 581760, Note_on_c, 9, 51, 79
8, 582240, Note_off_c, 9, 51, 79
8, 582240, Note_on_c, 9, 51, 79
8, 582240, Note_on_c, 9, 35, 95
8, 582720, Note_off_c, 9, 51, 79
8, 582720, Note_off_c, 9, 35, 95
8, 582720, Note_on_c, 9, 51, 95
8, 582720, Note_on_c, 9, 40, 127
8, 583200, Note_off_c, 9, 51, 95
8, 583200, Note_off_c, 9, 40, 127
8, 583200, Note_on_c, 9, 51, 79
8, 583200, Note_on_c, 9, 35, 95
8, 583680, Note_off_c, 9, 51, 79
8, 583680, Note_off_c, 9, 35, 95
8, 583680, Note_on_c, 9, 51, 79
8, 583680, Note_on_c, 9, 35, 95
8, 584160, Note_off_c, 9, 51, 79
8, 584160, Note_off_c, 9, 35, 95
8, 584160, Note_on_c, 9, 51, 79
8, 584640, Note_off_c, 9, 51, 79
8, 584640, Note_on_c, 9, 51, 95
8, 584640, Note_on_c, 9, 40, 127
8, 585120, Note_off_c, 9, 51, 95
8, 585120, Note_off_c, 9, 40, 127
8, 585120, Note_on_c, 9, 51, 79
8, 585120, Note_on_c, 9, 45, 95
8, 585600, Note_off_c, 9, 51, 79
8, 585600, Note_off_c, 9, 45, 95
8, 585600, Note_on_c, 9, 51, 79
8, 586080, Note_off_c, 9, 51, 79
8, 586080, Note_on_c, 9, 51, 79
8, 586080, Note_on_c, 9, 35, 95
8, 586560, Note_off_c, 9, 51, 79
8, 586560, Note_off_c, 9, 35, 95
8, 586560, Note_on_c, 9, 51, 95
8, 586560, Note_on_c, 9, 40, 127
8, 587040, Note_off_c, 9, 51, 95
8, 587040, Note_off_c, 9, 40, 127
8, 587040, Note_on_c, 9, 51, 79
8, 587040, Note_on_c, 9, 35, 95
8, 587520, Note_off_c, 9, 51, 79
8, 587520, Note_off_c, 9, 35, 95
8, 587520, Note_on_c, 9, 51, 79
8, 587520, Note_on_c, 9, 35, 95
8, 588000, Note_off_c, 9, 51, 79
8, 588000, Note_off_c, 9, 35, 95
8, 588000, Note_on_c, 9, 51, 79
8, 588480, Note_off_c, 9, 51, 79
8, 588480, Note_on_c, 9, 51, 95
8, 588480, Note_on_c, 9, 40, 127
8, 588960, Note_off_c, 9, 51, 95
8, 588960, Note_off_c, 9, 40, 127
8, 588960, Note_on_c, 9, 51, 79
8, 588960, Note_on_c, 9, 45, 95
8, 589440, Note_off_c, 9, 51, 79
8, 589440, Note_off_c, 9, 45, 95
8, 589440, Note_on_c, 9, 51, 79
8, 589920, Note_off_c, 9, 51, 79
8, 589920, Note_on_c, 9, 51, 79
8, 589920, Note_on_c, 9, 35, 95
8, 590400, Note_off_c, 9, 51, 79
8, 590400, Note_off_c, 9, 35, 95
8, 590400, Note_on_c, 9, 51, 95
8, 590400, Note_on_c, 9, 40, 127
8, 590880, Note_off_c, 9, 51, 95
8, 590880, Note_off_c, 9, 40, 127
8, 590880, Note_on_c, 9, 51, 79
8, 590880, Note_on_c, 9, 35, 95
8, 591360, Note_off_c, 9, 51, 79
8, 591360, Note_off_c, 9, 35, 95
8, 591360, Note_on_c, 9, 51, 79
8, 591360, Note_on_c, 9, 35, 95
8, 591840, Note_off_c, 9, 51, 79
8, 591840, Note_off_c, 9, 35, 95
8, 591840, Note_on_c, 9, 51, 79
8, 592320, Note_off_c, 9, 51, 79
8, 592320, Note_on_c, 9, 51, 95
8, 592320, Note_on_c, 9, 40, 127
8, 592800, Note_off_c, 9, 51, 95
8, 592800, Note_off_c, 9, 40, 127
8, 592800, Note_on_c, 9, 51, 79
8, 592800, Note_on_c, 9, 45, 95
8, 593040, Note_off_c, 9, 51, 79
8, 593040, Note_off_c, 9, 45, 95
8, 593040, Note_on_c, 9, 40, 63
8, 593280, Note_off_c, 9, 40, 63
8, 593280, Note_on_c, 9, 49, 95
8, 593520, Note_off_c, 9, 49, 95
8, 593520, Note_on_c, 9, 40, 63
8, 593760, Note_off_c, 9, 40, 63
8, 593760, Note_on_c, 9, 40, 63
8, 594000, Note_off_c, 9, 40, 63
8, 594000, Note_on_c, 9, 40, 95
8, 594240, Note_off_c, 9, 40, 95
8, 594240, Note_on_c, 9, 40, 127
8, 594480, Note_off_c, 9, 40, 127
8, 594480, Note_on_c, 9, 40, 95
8, 594720, Note_off_c, 9, 40, 95
8, 594720, Note_on_c, 9, 45, 95
8, 594720, Note_on_c, 9, 35, 95
8, 594960, Note_off_c, 9, 45, 95
8, 594960, Note_off_c, 9, 35, 95
8, 594960, Note_on_c, 9, 45, 95
8, 595200, Note_off_c, 9, 45, 95
8, 595200, Note_on_c, 9, 49, 95
8, 595200, Note_on_c, 9, 35, 95
8, 595680, Note_off_c, 9, 49, 95
8, 595680, Note_off_c, 9, 35, 95
8, 595680, Note_on_c, 9, 51, 79
8, 596160, Note_off_c, 9, 51, 79
8, 596160, Note_on_c, 9, 51, 95
8, 596160, Note_on_c, 9, 40, 127
8, 596640, Note_off_c, 9, 51, 95
8, 596640, Note_off_c, 9, 40, 127
8, 596640, Note_on_c, 9, 51, 79
8, 596640, Note_on_c, 9, 45, 95
8, 597120, Note_off_c, 9, 51, 79
8, 597120, Note_off_c, 9, 45, 95
8, 597120, Note_on_c, 9, 51, 79
8, 597600, Note_off_c, 9, 51, 79
8, 597600, Note_on_c, 9, 51, 79
8, 597600, Note_on_c, 9, 35, 95
8, 598080, Note_off_c, 9, 51, 79
8, 598080, Note_off_c, 9, 35, 95
8, 598080, Note_on_c, 9, 51, 95
8, 598080, Note_on_c, 9, 40, 127
8, 598560, Note_off_c, 9, 51, 95
8, 598560, Note_off_c, 9, 40, 127
8, 598560, Note_on_c, 9, 51, 79
8, 598560, Note_on_c, 9, 35, 95
8, 599040, Note_off_c, 9, 51, 79
8, 599040, Note_off_c, 9, 35, 95
8, 599040, Note_on_c, 9, 51, 79
8, 599040, Note_on_c, 9, 35, 95
8, 599520, Note_off_c, 9, 51, 79
8, 599520, Note_off_c, 9, 35, 95
8, 599520, Note_on_c, 9, 51, 79
8, 600000, Note_off_c, 9, 51, 79
8, 600000, Note_on_c, 9, 51, 95
8, 600000, Note_on_c, 9, 40, 127
8, 600480, Note_off_c, 9, 51, 95
8, 600480, Note_off_c, 9, 40, 127
8, 600480, Note_on_c, 9, 51, 79
8, 600480, Note_on_c, 9, 45, 95
8, 600960, Note_off_c, 9, 51, 79
8, 600960, Note_off_c, 9, 45, 95
8, 600960, Note_on_c, 9, 51, 79
8, 601440, Note_off_c, 9, 51, 79
8, 601440, Note_on_c, 9, 51, 79
8, 601440, Note_on_c, 9, 35, 95
8, 601920, Note_off_c, 9, 51, 79
8, 601920, Note_off_c, 9, 35, 95
8, 601920, Note_on_c, 9, 51, 95
8, 601920, Note_on_c, 9, 40, 127
8, 602400, Note_off_c, 9, 51, 95
8, 602400, Note_off_c, 9, 40, 127
8, 602400, Note_on_c, 9, 51, 79
8, 602400, Note_on_c, 9, 35, 95
8, 602880, Note_off_c, 9, 51, 79
8, 602880, Note_off_c, 9, 35, 95
8, 602880, Note_on_c, 9, 51, 79
8, 602880, Note_on_c, 9, 35, 95
8, 603360, Note_off_c, 9, 51, 79
8, 603360, Note_off_c, 9, 35, 95
8, 603360, Note_on_c, 9, 51, 79
8, 603840, Note_off_c, 9, 51, 79
8, 603840, Note_on_c, 9, 51, 95
8, 603840, Note_on_c, 9, 40, 127
8, 604320, Note_off_c, 9, 51, 95
8, 604320, Note_off_c, 9, 40, 127
8, 604320, Note_on_c, 9, 51, 79
8, 604320, Note_on_c, 9, 45, 95
8, 604800, Note_off_c, 9, 51, 79
8, 604800, Note_off_c, 9, 45, 95
8, 604800, Note_on_c, 9, 51, 79
8, 605280, Note_off_c, 9, 51, 79
8, 605280, Note_on_c, 9, 51, 79
8, 605280, Note_on_c, 9, 35, 95
8, 605760, Note_off_c, 9, 51, 79
8, 605760, Note_off_c, 9, 35, 95
8, 605760, Note_on_c, 9, 51, 95
8, 605760, Note_on_c, 9, 40, 127
8, 606240, Note_off_c, 9, 51, 95
8, 606240, Note_off_c, 9, 40, 127
8, 606240, Note_on_c, 9, 51, 79
8, 606240, Note_on_c, 9, 35, 95
8, 606720, Note_off_c, 9, 51, 79
8, 606720, Note_off_c, 9, 35, 95
8, 606720, Note_on_c, 9, 51, 79
8, 606720, Note_on_c, 9, 35, 95
8, 607200, Note_off_c, 9, 51, 79
8, 607200, Note_off_c, 9, 35, 95
8, 607200, Note_on_c, 9, 51, 79
8, 607680, Note_off_c, 9, 51, 79
8, 607680, Note_on_c, 9, 51, 95
8, 607680, Note_on_c, 9, 40, 127
8, 608160, Note_off_c, 9, 51, 95
8, 608160, Note_off_c, 9, 40, 127
8, 608160, Note_on_c, 9, 51, 79
8, 608160, Note_on_c, 9, 45, 95
8, 608640, Note_off_c, 9, 51, 79
8, 608640, Note_off_c, 9, 45, 95
8, 608640, Note_on_c, 9, 51, 79
8, 609120, Note_off_c, 9, 51, 79
8, 609120, Note_on_c, 9, 51, 79
8, 609120, Note_on_c, 9, 35, 95
8, 609600, Note_off_c, 9, 51, 79
8, 609600, Note_off_c, 9, 35, 95
8, 609600, Note_on_c, 9, 40, 127
8, 609840, Note_off_c, 9, 40, 127
8, 609840, Note_on_c, 9, 40, 95
8, 610080, Note_off_c, 9, 40, 95
8, 610080, Note_on_c, 9, 40, 95
8, 610320, Note_off_c, 9, 40, 95
8, 610320, Note_on_c, 9, 40, 95
8, 610560, Note_off_c, 9, 40, 95
8, 610560, Note_on_c, 9, 51, 79
8, 610560, Note_on_c, 9, 35, 95
8, 611040, Note_off_c, 9, 51, 79
8, 611040, Note_off_c, 9, 35, 95
8, 611040, Note_on_c, 9, 51, 79
8, 611520, Note_off_c, 9, 51, 79
8, 611520, Note_on_c, 9, 51, 95
8, 611520, Note_on_c, 9, 40, 127
8, 612000, Note_off_c, 9, 51, 95
8, 612000, Note_off_c, 9, 40, 127
8, 612000, Note_on_c, 9, 51, 79
8, 612000, Note_on_c, 9, 45, 95
8, 612480, Note_off_c, 9, 51, 79
8, 612480, Note_off_c, 9, 45, 95
8, 612480, Note_on_c, 9, 51, 79
8, 612960, Note_off_c, 9, 51, 79
8, 612960, Note_on_c, 9, 51, 79
8, 612960, Note_on_c, 9, 35, 95
8, 613440, Note_off_c, 9, 51, 79
8, 613440, Note_off_c, 9, 35, 95
8, 613440, Note_on_c, 9, 51, 95
8, 613440, Note_on_c, 9, 40, 127
8, 613920, Note_off_c, 9, 51, 95
8, 613920, Note_off_c, 9, 40, 127
8, 613920, Note_on_c, 9, 51, 79
8, 613920, Note_on_c, 9, 35, 95
8, 614400, Note_off_c, 9, 51, 79
8, 614400, Note_off_c, 9, 35, 95
8, 614400, Note_on_c, 9, 51, 79
8, 614400, Note_on_c, 9, 35, 95
8, 614880, Note_off_c, 9, 51, 79
8, 614880, Note_off_c, 9, 35, 95
8, 614880, Note_on_c, 9, 51, 79
8, 615360, Note_off_c, 9, 51, 79
8, 615360, Note_on_c, 9, 51, 95
8, 615360, Note_on_c, 9, 40, 127
8, 615840, Note_off_c, 9, 51, 95
8, 615840, Note_off_c, 9, 40, 127
8, 615840, Note_on_c, 9, 51, 79
8, 615840, Note_on_c, 9, 45, 95
8, 616320, Note_off_c, 9, 51, 79
8, 616320, Note_off_c, 9, 45, 95
8, 616320, Note_on_c, 9, 51, 79
8, 616800, Note_off_c, 9, 51, 79
8, 616800, Note_on_c, 9, 51, 79
8, 616800, Note_on_c, 9, 35, 95
8, 617280, Note_off_c, 9, 51, 79
8, 617280, Note_off_c, 9, 35, 95
8, 617280, Note_on_c, 9, 51, 95
8, 617280, Note_on_c, 9, 40, 127
8, 617760, Note_off_c, 9, 51, 95
8, 617760, Note_off_c, 9, 40, 127
8, 617760, Note_on_c, 9, 51, 79
8, 617760, Note_on_c, 9, 40, 95
8, 618000, Note_off_c, 9, 51, 79
8, 618000, Note_off_c, 9, 40, 95
8, 618000, Note_on_c, 9, 40, 95
8, 618240, Note_off_c, 9, 40, 95
8, 618240, Note_on_c, 9, 51, 79
8, 618240, Note_on_c, 9, 35, 95
8, 618720, Note_off_c, 9, 51, 79
8, 618720, Note_off_c, 9, 35, 95
8, 618720, Note_on_c, 9, 51, 79
8, 619200, Note_off_c, 9, 51, 79
8, 619200, Note_on_c, 9, 51, 95
8, 619200, Note_on_c, 9, 40, 127
8, 619680, Note_off_c, 9, 51, 95
8, 619680, Note_off_c, 9, 40, 127
8, 619680, Note_on_c, 9, 51, 79
8, 619680, Note_on_c, 9, 45, 95
8, 620160, Note_off_c, 9, 51, 79
8, 620160, Note_off_c, 9, 45, 95
8, 620160, Note_on_c, 9, 51, 79
8, 620640, Note_off_c, 9, 51, 79
8, 620640, Note_on_c, 9, 51, 79
8, 620640, Note_on_c, 9, 35, 95
8, 621120, Note_off_c, 9, 51, 79
8, 621120, Note_off_c, 9, 35, 95
8, 621120, Note_on_c, 9, 51, 95
8, 621120, Note_on_c, 9, 40, 127
8, 621600, Note_off_c, 9, 51, 95
8, 621600, Note_off_c, 9, 40, 127
8, 621600, Note_on_c, 9, 40, 95
8, 621600, Note_on_c, 9, 43, 95
8, 622080, Note_off_c, 9, 40, 95
8, 622080, Note_off_c, 9, 43, 95
8, 622080, Note_on_c, 9, 49, 95
8, 622080, Note_on_c, 9, 44, 31
8, 622080, Note_on_c, 9, 35, 95
8, 623040, Note_off_c, 9, 49, 95
8, 623040, Note_off_c, 9, 44, 31
8, 623040, Note_off_c, 9, 35, 95
8, 623040, Note_on_c, 9, 44, 95
8, 623040, Note_on_c, 9, 37, 127
8, 623520, Note_off_c, 9, 44, 95
8, 623520, Note_off_c, 9, 37, 127
8, 623520, Note_on_c, 9, 45, 95
8, 624000, Note_off_c, 9, 45, 95
8, 624000, Note_on_c, 9, 44, 31
8, 624480, Note_off_c, 9, 44, 31
8, 624480, Note_on_c, 9, 35, 95
8, 624960, Note_off_c, 9, 35, 95
8, 624960, Note_on_c, 9, 44, 95
8, 624960, Note_on_c, 9, 37, 127
8, 625440, Note_off_c, 9, 44, 95
8, 625440, Note_off_c, 9, 37, 127
8, 625440, Note_on_c, 9, 35, 95
8, 625920, Note_off_c, 9, 35, 95
8, 625920, Note_on_c, 9, 44, 31
8, 625920, Note_on_c, 9, 35, 95
8, 626880, Note_off_c, 9, 44, 31
8, 626880, Note_off_c, 9, 35, 95
8, 626880, Note_on_c, 9, 44, 95
8, 626880, Note_on_c, 9, 37, 127
8, 627360, Note_off_c, 9, 44, 95
8, 627360, Note_off_c, 9, 37, 127
8, 627360, Note_on_c, 9, 45, 95
8, 627840, Note_off_c, 9, 45, 95
8, 627840, Note_on_c, 9, 44, 31
8, 628320, Note_off_c, 9, 44, 31
8, 628320, Note_on_c, 9, 35, 95
8, 628800, Note_off_c, 9, 35, 95
8, 628800, Note_on_c, 9, 44, 95
8, 628800, Note_on_c, 9, 37, 127
8, 629280, Note_off_c, 9, 44, 95
8, 629280, Note_off_c, 9, 37, 127
8, 629280, Note_on_c, 9, 35, 95
8, 629760, Note_off_c, 9, 35, 95
8, 629760, Note_on_c, 9, 44, 31
8, 629760, Note_on_c, 9, 35, 95
8, 630720, Note_off_c, 9, 44, 31
8, 630720, Note_off_c, 9, 35, 95
8, 630720, Note_on_c, 9, 44, 95
8, 630720, Note_on_c, 9, 37, 127
8, 631200, Note_off_c, 9, 44, 95
8, 631200, Note_off_c, 9, 37, 127
8, 631200, Note_on_c, 9, 45, 95
8, 631680, Note_off_c, 9, 45, 95
8, 631680, Note_on_c, 9, 44, 31
8, 632160, Note_off_c, 9, 44, 31
8, 632160, Note_on_c, 9, 35, 95
8, 632640, Note_off_c, 9, 35, 95
8, 632640, Note_on_c, 9, 44, 95
8, 632640, Note_on_c, 9, 37, 127
8, 633120, Note_off_c, 9, 44, 95
8, 633120, Note_off_c, 9, 37, 127
8, 633120, Note_on_c, 9, 35, 95
8, 633600, Note_off_c, 9, 35, 95
8, 633600, Note_on_c, 9, 44, 31
8, 633600, Note_on_c, 9, 35, 95
8, 634560, Note_off_c, 9, 44, 31
8, 634560, Note_off_c, 9, 35, 95
8, 634560, Note_on_c, 9, 44, 95
8, 634560, Note_on_c, 9, 37, 127
8, 635040, Note_off_c, 9, 44, 95
8, 635040, Note_off_c, 9, 37, 127
8, 635040, Note_on_c, 9, 45, 95
8, 635520, Note_off_c, 9, 45, 95
8, 635520, Note_on_c, 9, 44, 31
8, 636000, Note_off_c, 9, 44, 31
8, 636000, Note_on_c, 9, 35, 95
8, 636480, Note_off_c, 9, 35, 95
8, 636480, Note_on_c, 9, 44, 95
8, 636480, Note_on_c, 9, 37, 127
8, 636960, Note_off_c, 9, 44, 95
8, 636960, Note_off_c, 9, 37, 127
8, 636960, Note_on_c, 9, 35, 95
8, 637440, Note_off_c, 9, 35, 95
8, 637440, Note_on_c, 9, 44, 31
8, 637440, Note_on_c, 9, 35, 95
8, 638400, Note_off_c, 9, 44, 31
8, 638400, Note_off_c, 9, 35, 95
8, 638400, Note_on_c, 9, 44, 95
8, 638400, Note_on_c, 9, 37, 127
8, 638880, Note_off_c, 9, 44, 95
8, 638880, Note_off_c, 9, 37, 127
8, 638880, Note_on_c, 9, 45, 95
8, 639360, Note_off_c, 9, 45, 95
8, 639360, Note_on_c, 9, 44, 31
8, 639840, Note_off_c, 9, 44, 31
8, 639840, Note_on_c, 9, 35, 95
8, 640320, Note_off_c, 9, 35, 95
8, 640320, Note_on_c, 9, 44, 95
8, 640320, Note_on_c, 9, 37, 127
8, 640800, Note_off_c, 9, 44, 95
8, 640800, Note_off_c, 9, 37, 127
8, 640800, Note_on_c, 9, 35, 95
8, 641280, Note_off_c, 9, 35, 95
8, 641280, Note_on_c, 9, 44, 31
8, 641280, Note_on_c, 9, 35, 95
8, 642240, Note_off_c, 9, 44, 31
8, 642240, Note_off_c, 9, 35, 95
8, 642240, Note_on_c, 9, 44, 95
8, 642240, Note_on_c, 9, 37, 127
8, 642720, Note_off_c, 9, 44, 95
8, 642720, Note_off_c, 9, 37, 127
8, 642720, Note_on_c, 9, 45, 95
8, 643200, Note_off_c, 9, 45, 95
8, 643200, Note_on_c, 9, 44, 31
8, 643680, Note_off_c, 9, 44, 31
8, 643680, Note_on_c, 9, 35, 95
8, 644160, Note_off_c, 9, 35, 95
8, 644160, Note_on_c, 9, 44, 95
8, 644160, Note_on_c, 9, 37, 127
8, 644640, Note_off_c, 9, 44, 95
8, 644640, Note_off_c, 9, 37, 127
8, 644640, Note_on_c, 9, 35, 95
8, 645120, Note_off_c, 9, 35, 95
8, 645120, Note_on_c, 9, 44, 31
8, 645120, Note_on_c, 9, 35, 95
8, 646080, Note_off_c, 9, 44, 31
8, 646080, Note_off_c, 9, 35, 95
8, 646080, Note_on_c, 9, 44, 95
8, 646080, Note_on_c, 9, 37, 127
8, 646560, Note_off_c, 9, 44, 95
8, 646560, Note_off_c, 9, 37, 127
8, 646560, Note_on_c, 9, 45, 95
8, 647040, Note_off_c, 9, 45, 95
8, 647040, Note_on_c, 9, 44, 31
8, 647520, Note_off_c, 9, 44, 31
8, 647520, Note_on_c, 9, 35, 95
8, 648000, Note_off_c, 9, 35, 95
8, 648000, Note_on_c, 9, 44, 95
8, 648000, Note_on_c, 9, 37, 127
8, 648480, Note_off_c, 9, 44, 95
8, 648480, Note_off_c, 9, 37, 127
8, 648480, Note_on_c, 9, 35, 95
8, 648960, Note_off_c, 9, 35, 95
8, 648960, Note_on_c, 9, 44, 31
8, 648960, Note_on_c, 9, 35, 95
8, 649920, Note_off_c, 9, 44, 31
8, 649920, Note_off_c, 9, 35, 95
8, 649920, Note_on_c, 9, 44, 95
8, 649920, Note_on_c, 9, 37, 127
8, 650400, Note_off_c, 9, 44, 95
8, 650400, Note_off_c, 9, 37, 127
8, 650400, Note_on_c, 9, 45, 95
8, 650880, Note_off_c, 9, 45, 95
8, 650880, Note_on_c, 9, 44, 31
8, 650880, Note_on_c, 9, 40, 95
8, 651120, Note_off_c, 9, 44, 31
8, 651120, Note_off_c, 9, 40, 95
8, 651120, Note_on_c, 9, 40, 95
8, 651360, Note_off_c, 9, 40, 95
8, 651360, Note_on_c, 9, 40, 95
8, 651840, Note_off_c, 9, 40, 95
8, 651840, Note_on_c, 9, 40, 95
8, 652080, Note_off_c, 9, 40, 95
8, 652080, Note_on_c, 9, 40, 95
8, 652320, Note_off_c, 9, 40, 95
8, 652320, Note_on_c, 9, 40, 95
8, 652800, Note_off_c, 9, 40, 95
8, 652800, End_track
0, 0, End_of_file
