0, 0, Header, 1, 17, 96
1, 0, Start_track
1, 0, Time_signature, 4, 2, 24, 8
1, 0, End_track
2, 0, Start_track
2, 0, Tempo, 495868
2, 0, End_track
3, 0, Start_track
3, 0, Title_t, "MIDI out #5"
3, 0, Control_c, 4, 10, 64
3, 0, Control_c, 4, 7, 100
3, 0, Pitch_bend_c, 4, 8192
3, 0, Control_c, 4, 101, 0
3, 0, Control_c, 4, 100, 0
3, 0, Control_c, 4, 6, 12
3, 0, Control_c, 4, 10, 64
3, 0, Control_c, 4, 7, 100
3, 0, Pitch_bend_c, 4, 8192
3, 0, Program_c, 4, 117
3, 0, Control_c, 4, 101, 0
3, 0, Control_c, 4, 100, 0
3, 0, Control_c, 4, 6, 12
3, 0, Control_c, 4, 10, 64
3, 0, Control_c, 4, 7, 100
3, 0, Pitch_bend_c, 4, 8192
3, 0, Program_c, 4, 117
3, 0, Control_c, 4, 101, 0
3, 0, Control_c, 4, 100, 0
3, 0, Control_c, 4, 6, 12
3, 0, Control_c, 4, 10, 64
3, 0, Control_c, 4, 7, 100
3, 0, Pitch_bend_c, 4, 8192
3, 0, Program_c, 4, 117
3, 2688, Note_on_c, 4, 72, 100
3, 2784, Note_off_c, 4, 72, 64
3, 2784, Note_on_c, 4, 72, 100
3, 2880, Note_off_c, 4, 72, 64
3, 2880, Note_on_c, 4, 72, 100
3, 2976, Note_off_c, 4, 72, 64
3, 2976, Note_on_c, 4, 72, 100
3, 3072, Note_off_c, 4, 72, 64
3, 3072, Note_on_c, 4, 72, 100
3, 3168, Note_off_c, 4, 72, 64
3, 3168, Note_on_c, 4, 72, 100
3, 3264, Note_off_c, 4, 72, 64
3, 3264, Note_on_c, 4, 72, 100
3, 3360, Note_off_c, 4, 72, 64
3, 3360, Note_on_c, 4, 72, 100
3, 3456, Note_off_c, 4, 72, 64
3, 3456, Note_on_c, 4, 72, 100
3, 3552, Note_off_c, 4, 72, 64
3, 3552, Note_on_c, 4, 72, 100
3, 3648, Note_off_c, 4, 72, 64
3, 3648, Note_on_c, 4, 72, 100
3, 3744, Note_off_c, 4, 72, 64
3, 3744, Note_on_c, 4, 72, 100
3, 3840, Note_off_c, 4, 72, 64
3, 3840, Note_on_c, 4, 72, 100
3, 3936, Note_off_c, 4, 72, 64
3, 3936, Note_on_c, 4, 72, 100
3, 4032, Note_off_c, 4, 72, 64
3, 4032, Note_on_c, 4, 72, 100
3, 4128, Note_off_c, 4, 72, 64
3, 4128, Note_on_c, 4, 72, 100
3, 4224, Note_off_c, 4, 72, 64
3, 4224, Note_on_c, 4, 72, 100
3, 4320, Note_off_c, 4, 72, 64
3, 4320, Note_on_c, 4, 72, 100
3, 4416, Note_off_c, 4, 72, 64
3, 4416, Note_on_c, 4, 72, 100
3, 4512, Note_off_c, 4, 72, 64
3, 4512, Note_on_c, 4, 72, 100
3, 4608, Note_off_c, 4, 72, 64
3, 4608, Note_on_c, 4, 72, 100
3, 4704, Note_off_c, 4, 72, 64
3, 4704, Note_on_c, 4, 72, 100
3, 4800, Note_off_c, 4, 72, 64
3, 4800, Note_on_c, 4, 72, 100
3, 4896, Note_off_c, 4, 72, 64
3, 4896, Note_on_c, 4, 72, 100
3, 4992, Note_off_c, 4, 72, 64
3, 4992, Note_on_c, 4, 72, 100
3, 5088, Note_off_c, 4, 72, 64
3, 5088, Note_on_c, 4, 72, 100
3, 5184, Note_off_c, 4, 72, 64
3, 5184, Note_on_c, 4, 72, 100
3, 5280, Note_off_c, 4, 72, 64
3, 5280, Note_on_c, 4, 72, 100
3, 5376, Note_off_c, 4, 72, 64
3, 5376, Note_on_c, 4, 72, 100
3, 5472, Note_off_c, 4, 72, 64
3, 5472, Note_on_c, 4, 72, 100
3, 5568, Note_off_c, 4, 72, 64
3, 5568, Note_on_c, 4, 72, 100
3, 5664, Note_off_c, 4, 72, 64
3, 5664, Note_on_c, 4, 72, 100
3, 5760, Note_off_c, 4, 72, 64
3, 5760, Note_on_c, 4, 72, 100
3, 5856, Note_off_c, 4, 72, 64
3, 5856, Note_on_c, 4, 72, 100
3, 5952, Note_off_c, 4, 72, 64
3, 5952, Note_on_c, 4, 72, 100
3, 6048, Note_off_c, 4, 72, 64
3, 6048, Note_on_c, 4, 72, 100
3, 6144, Note_off_c, 4, 72, 64
3, 6144, Note_on_c, 4, 72, 100
3, 6240, Note_off_c, 4, 72, 64
3, 6240, Note_on_c, 4, 72, 100
3, 6336, Note_off_c, 4, 72, 64
3, 6336, Note_on_c, 4, 72, 100
3, 6432, Note_off_c, 4, 72, 64
3, 6432, Note_on_c, 4, 72, 100
3, 6528, Note_off_c, 4, 72, 64
3, 6528, Note_on_c, 4, 72, 100
3, 6624, Note_off_c, 4, 72, 64
3, 6624, Note_on_c, 4, 72, 100
3, 6720, Note_off_c, 4, 72, 64
3, 6720, Note_on_c, 4, 72, 100
3, 6816, Note_off_c, 4, 72, 64
3, 6816, Note_on_c, 4, 72, 100
3, 6912, Note_off_c, 4, 72, 64
3, 6912, Note_on_c, 4, 72, 100
3, 7008, Note_off_c, 4, 72, 64
3, 7008, Note_on_c, 4, 72, 100
3, 7104, Note_off_c, 4, 72, 64
3, 7104, Note_on_c, 4, 72, 100
3, 7200, Note_off_c, 4, 72, 64
3, 7200, Note_on_c, 4, 72, 100
3, 7296, Note_off_c, 4, 72, 64
3, 7296, Note_on_c, 4, 72, 100
3, 7392, Note_off_c, 4, 72, 64
3, 7392, Note_on_c, 4, 72, 100
3, 7488, Note_off_c, 4, 72, 64
3, 7488, Note_on_c, 4, 72, 100
3, 7584, Note_off_c, 4, 72, 64
3, 7584, Note_on_c, 4, 72, 100
3, 7680, Note_off_c, 4, 72, 64
3, 7680, Note_on_c, 4, 72, 100
3, 7776, Note_off_c, 4, 72, 64
3, 7776, Note_on_c, 4, 72, 100
3, 7872, Note_off_c, 4, 72, 64
3, 7872, Note_on_c, 4, 72, 100
3, 7968, Note_off_c, 4, 72, 64
3, 7968, Note_on_c, 4, 72, 100
3, 8064, Note_off_c, 4, 72, 64
3, 8064, Note_on_c, 4, 72, 100
3, 8160, Note_off_c, 4, 72, 64
3, 8160, Note_on_c, 4, 72, 100
3, 8256, Note_off_c, 4, 72, 64
3, 8256, Note_on_c, 4, 72, 100
3, 8352, Note_off_c, 4, 72, 64
3, 8352, Note_on_c, 4, 72, 100
3, 8448, Note_off_c, 4, 72, 64
3, 8448, Note_on_c, 4, 72, 100
3, 8544, Note_off_c, 4, 72, 64
3, 8544, Note_on_c, 4, 72, 100
3, 8640, Note_off_c, 4, 72, 64
3, 8640, Note_on_c, 4, 72, 100
3, 8736, Note_off_c, 4, 72, 64
3, 8736, Note_on_c, 4, 72, 100
3, 8832, Note_off_c, 4, 72, 64
3, 8832, Note_on_c, 4, 72, 100
3, 8928, Note_off_c, 4, 72, 64
3, 8928, Note_on_c, 4, 72, 100
3, 9024, Note_off_c, 4, 72, 64
3, 9024, Note_on_c, 4, 72, 100
3, 9120, Note_off_c, 4, 72, 64
3, 9120, Note_on_c, 4, 72, 100
3, 9216, Note_off_c, 4, 72, 64
3, 9216, Note_on_c, 4, 72, 100
3, 9312, Note_off_c, 4, 72, 64
3, 9312, Note_on_c, 4, 72, 100
3, 9408, Note_off_c, 4, 72, 64
3, 9408, Note_on_c, 4, 72, 100
3, 9504, Note_off_c, 4, 72, 64
3, 9504, Note_on_c, 4, 72, 100
3, 9600, Note_off_c, 4, 72, 64
3, 9600, Note_on_c, 4, 72, 100
3, 9696, Note_off_c, 4, 72, 64
3, 9696, Note_on_c, 4, 72, 100
3, 9792, Note_off_c, 4, 72, 64
3, 9792, Note_on_c, 4, 72, 100
3, 9888, Note_off_c, 4, 72, 64
3, 9888, Note_on_c, 4, 72, 100
3, 9984, Note_off_c, 4, 72, 64
3, 9984, Note_on_c, 4, 72, 100
3, 10080, Note_off_c, 4, 72, 64
3, 10080, Note_on_c, 4, 72, 100
3, 10176, Note_off_c, 4, 72, 64
3, 10176, Note_on_c, 4, 72, 100
3, 10272, Note_off_c, 4, 72, 64
3, 10272, Note_on_c, 4, 72, 100
3, 10368, Note_off_c, 4, 72, 64
3, 10368, Note_on_c, 4, 72, 100
3, 10464, Note_off_c, 4, 72, 64
3, 10464, Note_on_c, 4, 72, 100
3, 10560, Note_off_c, 4, 72, 64
3, 10560, Note_on_c, 4, 72, 100
3, 10656, Note_off_c, 4, 72, 64
3, 10656, Note_on_c, 4, 72, 100
3, 10752, Note_off_c, 4, 72, 64
3, 10752, Note_on_c, 4, 72, 100
3, 10848, Note_off_c, 4, 72, 64
3, 10848, Note_on_c, 4, 72, 100
3, 10944, Note_off_c, 4, 72, 64
3, 10944, Note_on_c, 4, 72, 100
3, 11040, Note_off_c, 4, 72, 64
3, 11040, Note_on_c, 4, 72, 100
3, 11136, Note_off_c, 4, 72, 64
3, 11136, Note_on_c, 4, 72, 100
3, 11232, Note_off_c, 4, 72, 64
3, 11232, Note_on_c, 4, 72, 100
3, 11328, Note_off_c, 4, 72, 64
3, 11328, Note_on_c, 4, 72, 100
3, 11424, Note_off_c, 4, 72, 64
3, 11424, Note_on_c, 4, 72, 100
3, 11520, Note_off_c, 4, 72, 64
3, 11520, Note_on_c, 4, 72, 100
3, 11616, Note_off_c, 4, 72, 64
3, 11616, Note_on_c, 4, 72, 100
3, 11712, Note_off_c, 4, 72, 64
3, 11712, Note_on_c, 4, 72, 100
3, 11808, Note_off_c, 4, 72, 64
3, 11808, Note_on_c, 4, 72, 100
3, 11904, Note_off_c, 4, 72, 64
3, 11904, Note_on_c, 4, 72, 100
3, 12000, Note_off_c, 4, 72, 64
3, 12000, Note_on_c, 4, 72, 100
3, 12096, Note_off_c, 4, 72, 64
3, 12096, Note_on_c, 4, 72, 100
3, 12192, Note_off_c, 4, 72, 64
3, 12192, Note_on_c, 4, 72, 100
3, 12288, Note_off_c, 4, 72, 64
3, 12288, Note_on_c, 4, 72, 100
3, 12384, Note_off_c, 4, 72, 64
3, 12384, Note_on_c, 4, 72, 100
3, 12480, Note_off_c, 4, 72, 64
3, 12480, Note_on_c, 4, 72, 100
3, 12576, Note_off_c, 4, 72, 64
3, 12576, Note_on_c, 4, 72, 100
3, 12672, Note_off_c, 4, 72, 64
3, 12672, Note_on_c, 4, 72, 100
3, 12768, Note_off_c, 4, 72, 64
3, 12768, Note_on_c, 4, 72, 100
3, 12864, Note_off_c, 4, 72, 64
3, 12864, Note_on_c, 4, 72, 100
3, 12960, Note_off_c, 4, 72, 64
3, 12960, Note_on_c, 4, 72, 100
3, 13056, Note_off_c, 4, 72, 64
3, 13056, Note_on_c, 4, 72, 100
3, 13152, Note_off_c, 4, 72, 64
3, 13152, Note_on_c, 4, 72, 100
3, 13248, Note_off_c, 4, 72, 64
3, 13248, Note_on_c, 4, 72, 100
3, 13344, Note_off_c, 4, 72, 64
3, 13344, Note_on_c, 4, 72, 100
3, 13440, Note_off_c, 4, 72, 64
3, 13440, Note_on_c, 4, 72, 100
3, 13536, Note_off_c, 4, 72, 64
3, 13536, Note_on_c, 4, 72, 100
3, 13632, Note_off_c, 4, 72, 64
3, 13632, Note_on_c, 4, 72, 100
3, 13728, Note_off_c, 4, 72, 64
3, 13728, Note_on_c, 4, 72, 100
3, 13824, Note_off_c, 4, 72, 64
3, 13824, Note_on_c, 4, 72, 100
3, 13920, Note_off_c, 4, 72, 64
3, 13920, Note_on_c, 4, 72, 100
3, 14016, Note_off_c, 4, 72, 64
3, 14016, Note_on_c, 4, 72, 100
3, 14112, Note_off_c, 4, 72, 64
3, 14112, Note_on_c, 4, 72, 100
3, 14208, Note_off_c, 4, 72, 64
3, 14208, Note_on_c, 4, 72, 100
3, 14304, Note_off_c, 4, 72, 64
3, 14304, Note_on_c, 4, 72, 100
3, 14400, Note_off_c, 4, 72, 64
3, 14400, Note_on_c, 4, 72, 100
3, 14496, Note_off_c, 4, 72, 64
3, 14496, Note_on_c, 4, 72, 100
3, 14592, Note_off_c, 4, 72, 64
3, 14592, Note_on_c, 4, 72, 100
3, 14688, Note_off_c, 4, 72, 64
3, 14688, Note_on_c, 4, 72, 100
3, 14784, Note_off_c, 4, 72, 64
3, 14784, Note_on_c, 4, 72, 100
3, 14880, Note_off_c, 4, 72, 64
3, 14880, Note_on_c, 4, 72, 100
3, 14976, Note_off_c, 4, 72, 64
3, 14976, Note_on_c, 4, 72, 100
3, 15072, Note_off_c, 4, 72, 64
3, 15072, Note_on_c, 4, 72, 100
3, 15168, Note_off_c, 4, 72, 64
3, 15168, Note_on_c, 4, 72, 100
3, 15264, Note_off_c, 4, 72, 64
3, 15264, Note_on_c, 4, 72, 100
3, 15360, Note_off_c, 4, 72, 64
3, 15360, Note_on_c, 4, 72, 100
3, 15456, Note_off_c, 4, 72, 64
3, 15456, Note_on_c, 4, 72, 100
3, 15552, Note_off_c, 4, 72, 64
3, 15552, Note_on_c, 4, 72, 100
3, 15648, Note_off_c, 4, 72, 64
3, 15648, Note_on_c, 4, 72, 100
3, 15744, Note_off_c, 4, 72, 64
3, 15744, Note_on_c, 4, 72, 100
3, 15840, Note_off_c, 4, 72, 64
3, 15840, Note_on_c, 4, 72, 100
3, 15936, Note_off_c, 4, 72, 64
3, 15936, Note_on_c, 4, 72, 100
3, 16032, Note_off_c, 4, 72, 64
3, 16032, Note_on_c, 4, 72, 100
3, 16128, Note_off_c, 4, 72, 64
3, 16128, Note_on_c, 4, 72, 100
3, 16224, Note_off_c, 4, 72, 64
3, 16224, Note_on_c, 4, 72, 100
3, 16320, Note_off_c, 4, 72, 64
3, 16320, Note_on_c, 4, 72, 100
3, 16416, Note_off_c, 4, 72, 64
3, 16416, Note_on_c, 4, 72, 100
3, 16512, Note_off_c, 4, 72, 64
3, 16512, Note_on_c, 4, 72, 100
3, 16608, Note_off_c, 4, 72, 64
3, 16608, Note_on_c, 4, 72, 100
3, 16704, Note_off_c, 4, 72, 64
3, 16704, Note_on_c, 4, 72, 100
3, 16800, Note_off_c, 4, 72, 64
3, 16800, Note_on_c, 4, 72, 100
3, 16896, Note_off_c, 4, 72, 64
3, 16896, Note_on_c, 4, 72, 100
3, 16992, Note_off_c, 4, 72, 64
3, 16992, Note_on_c, 4, 72, 100
3, 17088, Note_off_c, 4, 72, 64
3, 17088, Note_on_c, 4, 72, 100
3, 17184, Note_off_c, 4, 72, 64
3, 17184, Note_on_c, 4, 72, 100
3, 17280, Note_off_c, 4, 72, 64
3, 17280, Note_on_c, 4, 72, 100
3, 17376, Note_off_c, 4, 72, 64
3, 17376, Note_on_c, 4, 72, 100
3, 17472, Note_off_c, 4, 72, 64
3, 17472, Note_on_c, 4, 72, 100
3, 17568, Note_off_c, 4, 72, 64
3, 17568, Note_on_c, 4, 72, 100
3, 17664, Note_off_c, 4, 72, 64
3, 17664, Note_on_c, 4, 72, 100
3, 17760, Note_off_c, 4, 72, 64
3, 17760, Note_on_c, 4, 72, 100
3, 17856, Note_off_c, 4, 72, 64
3, 17856, Note_on_c, 4, 72, 100
3, 17952, Note_off_c, 4, 72, 64
3, 17952, Note_on_c, 4, 72, 100
3, 18048, Note_off_c, 4, 72, 64
3, 18048, Note_on_c, 4, 72, 100
3, 18144, Note_off_c, 4, 72, 64
3, 18144, Note_on_c, 4, 72, 100
3, 18240, Note_off_c, 4, 72, 64
3, 18240, Note_on_c, 4, 72, 100
3, 18336, Note_off_c, 4, 72, 64
3, 18336, Note_on_c, 4, 72, 100
3, 18432, Note_off_c, 4, 72, 64
3, 18432, Note_on_c, 4, 72, 100
3, 18528, Note_off_c, 4, 72, 64
3, 18528, Note_on_c, 4, 72, 100
3, 18624, Note_off_c, 4, 72, 64
3, 18624, Note_on_c, 4, 72, 100
3, 18720, Note_off_c, 4, 72, 64
3, 18720, Note_on_c, 4, 72, 100
3, 18816, Note_off_c, 4, 72, 64
3, 18816, Note_on_c, 4, 72, 100
3, 18912, Note_off_c, 4, 72, 64
3, 18912, Note_on_c, 4, 72, 100
3, 19008, Note_off_c, 4, 72, 64
3, 19008, Note_on_c, 4, 72, 100
3, 19104, Note_off_c, 4, 72, 64
3, 19104, Note_on_c, 4, 72, 100
3, 19200, Note_off_c, 4, 72, 64
3, 19200, Note_on_c, 4, 72, 100
3, 19296, Note_off_c, 4, 72, 64
3, 19296, Note_on_c, 4, 72, 100
3, 19392, Note_off_c, 4, 72, 64
3, 19392, Note_on_c, 4, 72, 100
3, 19488, Note_off_c, 4, 72, 64
3, 19488, Note_on_c, 4, 72, 100
3, 19584, Note_off_c, 4, 72, 64
3, 19584, Note_on_c, 4, 72, 100
3, 19680, Note_off_c, 4, 72, 64
3, 19680, Note_on_c, 4, 72, 100
3, 19776, Note_off_c, 4, 72, 64
3, 19776, Note_on_c, 4, 72, 100
3, 19872, Note_off_c, 4, 72, 64
3, 19872, Note_on_c, 4, 72, 100
3, 19968, Note_off_c, 4, 72, 64
3, 19968, Note_on_c, 4, 72, 100
3, 20064, Note_off_c, 4, 72, 64
3, 20064, Note_on_c, 4, 72, 100
3, 20160, Note_off_c, 4, 72, 64
3, 20160, Note_on_c, 4, 72, 100
3, 20256, Note_off_c, 4, 72, 64
3, 20256, Note_on_c, 4, 72, 100
3, 20352, Note_off_c, 4, 72, 64
3, 20352, Note_on_c, 4, 72, 100
3, 20448, Note_off_c, 4, 72, 64
3, 20448, Note_on_c, 4, 72, 100
3, 20544, Note_off_c, 4, 72, 64
3, 20544, Note_on_c, 4, 72, 100
3, 20640, Note_off_c, 4, 72, 64
3, 20640, Note_on_c, 4, 72, 100
3, 20736, Note_off_c, 4, 72, 64
3, 20736, Note_on_c, 4, 72, 100
3, 20832, Note_off_c, 4, 72, 64
3, 20832, Note_on_c, 4, 72, 100
3, 20928, Note_off_c, 4, 72, 64
3, 20928, Note_on_c, 4, 72, 100
3, 21024, Note_off_c, 4, 72, 64
3, 21024, Note_on_c, 4, 72, 100
3, 21120, Note_off_c, 4, 72, 64
3, 21120, Note_on_c, 4, 72, 100
3, 21216, Note_off_c, 4, 72, 64
3, 21216, Note_on_c, 4, 72, 100
3, 21312, Note_off_c, 4, 72, 64
3, 21312, Note_on_c, 4, 72, 100
3, 21408, Note_off_c, 4, 72, 64
3, 21408, Note_on_c, 4, 72, 100
3, 21504, Note_off_c, 4, 72, 64
3, 21504, Note_on_c, 4, 72, 100
3, 21600, Note_off_c, 4, 72, 64
3, 21600, Note_on_c, 4, 72, 100
3, 21696, Note_off_c, 4, 72, 64
3, 21696, Note_on_c, 4, 72, 100
3, 21792, Note_off_c, 4, 72, 64
3, 21792, Note_on_c, 4, 72, 100
3, 21888, Note_off_c, 4, 72, 64
3, 21888, Note_on_c, 4, 72, 100
3, 21984, Note_off_c, 4, 72, 64
3, 21984, Note_on_c, 4, 72, 100
3, 22080, Note_off_c, 4, 72, 64
3, 22080, Note_on_c, 4, 72, 100
3, 22176, Note_off_c, 4, 72, 64
3, 22176, Note_on_c, 4, 72, 100
3, 22272, Note_off_c, 4, 72, 64
3, 22272, Note_on_c, 4, 72, 100
3, 22368, Note_off_c, 4, 72, 64
3, 22368, Note_on_c, 4, 72, 100
3, 22464, Note_off_c, 4, 72, 64
3, 22464, Note_on_c, 4, 72, 100
3, 22560, Note_off_c, 4, 72, 64
3, 22560, Note_on_c, 4, 72, 100
3, 22656, Note_off_c, 4, 72, 64
3, 22656, Note_on_c, 4, 72, 100
3, 22752, Note_off_c, 4, 72, 64
3, 22752, Note_on_c, 4, 72, 100
3, 22848, Note_off_c, 4, 72, 64
3, 22848, Note_on_c, 4, 72, 100
3, 22944, Note_off_c, 4, 72, 64
3, 22944, Note_on_c, 4, 72, 100
3, 23040, Note_off_c, 4, 72, 64
3, 23040, Note_on_c, 4, 72, 100
3, 23136, Note_off_c, 4, 72, 64
3, 23136, Note_on_c, 4, 72, 100
3, 23232, Note_off_c, 4, 72, 64
3, 23232, Note_on_c, 4, 72, 100
3, 23328, Note_off_c, 4, 72, 64
3, 23328, Note_on_c, 4, 72, 100
3, 23424, Note_off_c, 4, 72, 64
3, 23424, Note_on_c, 4, 72, 100
3, 23520, Note_off_c, 4, 72, 64
3, 23520, Note_on_c, 4, 72, 100
3, 23616, Note_off_c, 4, 72, 64
3, 23616, Note_on_c, 4, 72, 100
3, 23712, Note_off_c, 4, 72, 64
3, 23712, Note_on_c, 4, 72, 100
3, 23808, Note_off_c, 4, 72, 64
3, 23808, Note_on_c, 4, 72, 100
3, 23904, Note_off_c, 4, 72, 64
3, 23904, Note_on_c, 4, 72, 100
3, 24000, Note_off_c, 4, 72, 64
3, 24000, Note_on_c, 4, 72, 100
3, 24096, Note_off_c, 4, 72, 64
3, 24096, Note_on_c, 4, 72, 100
3, 24192, Note_off_c, 4, 72, 64
3, 24192, Note_on_c, 4, 72, 100
3, 24288, Note_off_c, 4, 72, 64
3, 24288, Note_on_c, 4, 72, 100
3, 24384, Note_off_c, 4, 72, 64
3, 24384, Note_on_c, 4, 72, 100
3, 24480, Note_off_c, 4, 72, 64
3, 24480, Note_on_c, 4, 72, 100
3, 24576, Note_off_c, 4, 72, 64
3, 24576, Note_on_c, 4, 72, 100
3, 24672, Note_off_c, 4, 72, 64
3, 24672, Note_on_c, 4, 72, 100
3, 24768, Note_off_c, 4, 72, 64
3, 24768, Note_on_c, 4, 72, 100
3, 24864, Note_off_c, 4, 72, 64
3, 24864, Note_on_c, 4, 72, 100
3, 24960, Note_off_c, 4, 72, 64
3, 24960, Note_on_c, 4, 72, 100
3, 25056, Note_off_c, 4, 72, 64
3, 25056, Note_on_c, 4, 72, 100
3, 25152, Note_off_c, 4, 72, 64
3, 25152, Note_on_c, 4, 72, 100
3, 25248, Note_off_c, 4, 72, 64
3, 25248, Note_on_c, 4, 72, 100
3, 25344, Note_off_c, 4, 72, 64
3, 25344, Note_on_c, 4, 72, 100
3, 25440, Note_off_c, 4, 72, 64
3, 25440, Note_on_c, 4, 72, 100
3, 25536, Note_off_c, 4, 72, 64
3, 25536, Note_on_c, 4, 72, 100
3, 25632, Note_off_c, 4, 72, 64
3, 25632, Note_on_c, 4, 72, 100
3, 25728, Note_off_c, 4, 72, 64
3, 25728, Note_on_c, 4, 72, 100
3, 25824, Note_off_c, 4, 72, 64
3, 25824, Note_on_c, 4, 72, 100
3, 25920, Note_off_c, 4, 72, 64
3, 25920, Note_on_c, 4, 72, 100
3, 26016, Note_off_c, 4, 72, 64
3, 26016, Note_on_c, 4, 72, 100
3, 26112, Note_off_c, 4, 72, 64
3, 26112, Note_on_c, 4, 72, 100
3, 26208, Note_off_c, 4, 72, 64
3, 26208, Note_on_c, 4, 72, 100
3, 26304, Note_off_c, 4, 72, 64
3, 26304, Note_on_c, 4, 72, 100
3, 26400, Note_off_c, 4, 72, 64
3, 26400, Note_on_c, 4, 72, 100
3, 26496, Note_off_c, 4, 72, 64
3, 28608, Note_on_c, 4, 72, 100
3, 28704, Note_off_c, 4, 72, 64
3, 28704, Note_on_c, 4, 72, 100
3, 28800, Note_off_c, 4, 72, 64
3, 28800, Note_on_c, 4, 72, 100
3, 28896, Note_off_c, 4, 72, 64
3, 28896, Note_on_c, 4, 72, 100
3, 28992, Note_off_c, 4, 72, 64
3, 28992, Note_on_c, 4, 72, 100
3, 29088, Note_off_c, 4, 72, 64
3, 29088, Note_on_c, 4, 72, 100
3, 29184, Note_off_c, 4, 72, 64
3, 29184, Note_on_c, 4, 72, 100
3, 29280, Note_off_c, 4, 72, 64
3, 29280, Note_on_c, 4, 72, 100
3, 29376, Note_off_c, 4, 72, 64
3, 29376, Note_on_c, 4, 72, 100
3, 29472, Note_off_c, 4, 72, 64
3, 29472, Note_on_c, 4, 72, 100
3, 29568, Note_off_c, 4, 72, 64
3, 29568, Note_on_c, 4, 72, 100
3, 29664, Note_off_c, 4, 72, 64
3, 29664, Note_on_c, 4, 72, 100
3, 29760, Note_off_c, 4, 72, 64
3, 29760, Note_on_c, 4, 72, 100
3, 29856, Note_off_c, 4, 72, 64
3, 29856, Note_on_c, 4, 72, 100
3, 29952, Note_off_c, 4, 72, 64
3, 29952, Note_on_c, 4, 72, 100
3, 30048, Note_off_c, 4, 72, 64
3, 30048, Note_on_c, 4, 72, 100
3, 30144, Note_off_c, 4, 72, 64
3, 30144, Note_on_c, 4, 72, 100
3, 30240, Note_off_c, 4, 72, 64
3, 30240, Note_on_c, 4, 72, 100
3, 30336, Note_off_c, 4, 72, 64
3, 30336, Note_on_c, 4, 72, 100
3, 30432, Note_off_c, 4, 72, 64
3, 30432, Note_on_c, 4, 72, 100
3, 30528, Note_off_c, 4, 72, 64
3, 30528, Note_on_c, 4, 72, 100
3, 30624, Note_off_c, 4, 72, 64
3, 30624, Note_on_c, 4, 72, 100
3, 30720, Note_off_c, 4, 72, 64
3, 30720, Note_on_c, 4, 72, 100
3, 30816, Note_off_c, 4, 72, 64
3, 30816, Note_on_c, 4, 72, 100
3, 30912, Note_off_c, 4, 72, 64
3, 30912, Note_on_c, 4, 72, 100
3, 31008, Note_off_c, 4, 72, 64
3, 31008, Note_on_c, 4, 72, 100
3, 31104, Note_off_c, 4, 72, 64
3, 31104, Note_on_c, 4, 72, 100
3, 31200, Note_off_c, 4, 72, 64
3, 31200, Note_on_c, 4, 72, 100
3, 31296, Note_off_c, 4, 72, 64
3, 31296, Note_on_c, 4, 72, 100
3, 31392, Note_off_c, 4, 72, 64
3, 31392, Note_on_c, 4, 72, 100
3, 31488, Note_off_c, 4, 72, 64
3, 31488, Note_on_c, 4, 72, 100
3, 31584, Note_off_c, 4, 72, 64
3, 31584, Note_on_c, 4, 72, 100
3, 31680, Note_off_c, 4, 72, 64
3, 31680, Note_on_c, 4, 72, 100
3, 31776, Note_off_c, 4, 72, 64
3, 31776, Note_on_c, 4, 72, 100
3, 31872, Note_off_c, 4, 72, 64
3, 31872, Note_on_c, 4, 72, 100
3, 31968, Note_off_c, 4, 72, 64
3, 31968, Note_on_c, 4, 72, 100
3, 32064, Note_off_c, 4, 72, 64
3, 32064, Note_on_c, 4, 72, 100
3, 32160, Note_off_c, 4, 72, 64
3, 32160, Note_on_c, 4, 72, 100
3, 32256, Note_off_c, 4, 72, 64
3, 32256, Note_on_c, 4, 72, 100
3, 32352, Note_off_c, 4, 72, 64
3, 32352, Note_on_c, 4, 72, 100
3, 32448, Note_off_c, 4, 72, 64
3, 32448, Note_on_c, 4, 72, 100
3, 32544, Note_off_c, 4, 72, 64
3, 32544, Note_on_c, 4, 72, 100
3, 32640, Note_off_c, 4, 72, 64
3, 32640, Note_on_c, 4, 72, 100
3, 32736, Note_off_c, 4, 72, 64
3, 32736, Note_on_c, 4, 72, 100
3, 32832, Note_off_c, 4, 72, 64
3, 32832, Note_on_c, 4, 72, 100
3, 32928, Note_off_c, 4, 72, 64
3, 32928, Note_on_c, 4, 72, 100
3, 33024, Note_off_c, 4, 72, 64
3, 33024, Note_on_c, 4, 72, 100
3, 33120, Note_off_c, 4, 72, 64
3, 33120, Note_on_c, 4, 72, 100
3, 33216, Note_off_c, 4, 72, 64
3, 33216, Note_on_c, 4, 72, 100
3, 33312, Note_off_c, 4, 72, 64
3, 33312, Note_on_c, 4, 72, 100
3, 33408, Note_off_c, 4, 72, 64
3, 33408, Note_on_c, 4, 72, 100
3, 33504, Note_off_c, 4, 72, 64
3, 33504, Note_on_c, 4, 72, 100
3, 33600, Note_off_c, 4, 72, 64
3, 33600, Note_on_c, 4, 72, 100
3, 33696, Note_off_c, 4, 72, 64
3, 33696, Note_on_c, 4, 72, 100
3, 33792, Note_off_c, 4, 72, 64
3, 33792, Note_on_c, 4, 72, 100
3, 33888, Note_off_c, 4, 72, 64
3, 33888, Note_on_c, 4, 72, 100
3, 33984, Note_off_c, 4, 72, 64
3, 33984, Note_on_c, 4, 72, 100
3, 34080, Note_off_c, 4, 72, 64
3, 34080, Note_on_c, 4, 72, 100
3, 34176, Note_off_c, 4, 72, 64
3, 34176, Note_on_c, 4, 72, 100
3, 34272, Note_off_c, 4, 72, 64
3, 34272, Note_on_c, 4, 72, 100
3, 34368, Note_off_c, 4, 72, 64
3, 34368, Note_on_c, 4, 72, 100
3, 34464, Note_off_c, 4, 72, 64
3, 34464, Note_on_c, 4, 72, 100
3, 34560, Note_off_c, 4, 72, 64
3, 34560, Note_on_c, 4, 72, 100
3, 34656, Note_off_c, 4, 72, 64
3, 34656, Note_on_c, 4, 72, 100
3, 34752, Note_off_c, 4, 72, 64
3, 34752, Note_on_c, 4, 72, 100
3, 34848, Note_off_c, 4, 72, 64
3, 34848, Note_on_c, 4, 72, 100
3, 34944, Note_off_c, 4, 72, 64
3, 34944, Note_on_c, 4, 72, 100
3, 35040, Note_off_c, 4, 72, 64
3, 35040, Note_on_c, 4, 72, 100
3, 35136, Note_off_c, 4, 72, 64
3, 35136, Note_on_c, 4, 72, 100
3, 35232, Note_off_c, 4, 72, 64
3, 35232, Note_on_c, 4, 72, 100
3, 35328, Note_off_c, 4, 72, 64
3, 35328, Note_on_c, 4, 72, 100
3, 35424, Note_off_c, 4, 72, 64
3, 35424, Note_on_c, 4, 72, 100
3, 35520, Note_off_c, 4, 72, 64
3, 35520, Note_on_c, 4, 72, 100
3, 35616, Note_off_c, 4, 72, 64
3, 35616, Note_on_c, 4, 72, 100
3, 35712, Note_off_c, 4, 72, 64
3, 35712, Note_on_c, 4, 72, 100
3, 35808, Note_off_c, 4, 72, 64
3, 35808, Note_on_c, 4, 72, 100
3, 35904, Note_off_c, 4, 72, 64
3, 35904, Note_on_c, 4, 72, 100
3, 36000, Note_off_c, 4, 72, 64
3, 36000, Note_on_c, 4, 72, 100
3, 36096, Note_off_c, 4, 72, 64
3, 36096, Note_on_c, 4, 72, 100
3, 36192, Note_off_c, 4, 72, 64
3, 36192, Note_on_c, 4, 72, 100
3, 36288, Note_off_c, 4, 72, 64
3, 36288, Note_on_c, 4, 72, 100
3, 36384, Note_off_c, 4, 72, 64
3, 36384, Note_on_c, 4, 72, 100
3, 36480, Note_off_c, 4, 72, 64
3, 36480, Note_on_c, 4, 72, 100
3, 36576, Note_off_c, 4, 72, 64
3, 36576, Note_on_c, 4, 72, 100
3, 36672, Note_off_c, 4, 72, 64
3, 36672, Note_on_c, 4, 72, 100
3, 36768, Note_off_c, 4, 72, 64
3, 36768, Note_on_c, 4, 72, 100
3, 36864, Note_off_c, 4, 72, 64
3, 36864, Note_on_c, 4, 72, 100
3, 36960, Note_off_c, 4, 72, 64
3, 36960, Note_on_c, 4, 72, 100
3, 37056, Note_off_c, 4, 72, 64
3, 37056, Note_on_c, 4, 72, 100
3, 37152, Note_off_c, 4, 72, 64
3, 37152, Note_on_c, 4, 72, 100
3, 37248, Note_off_c, 4, 72, 64
3, 37248, Note_on_c, 4, 72, 100
3, 37344, Note_off_c, 4, 72, 64
3, 37344, Note_on_c, 4, 72, 100
3, 37440, Note_off_c, 4, 72, 64
3, 37440, Note_on_c, 4, 72, 100
3, 37536, Note_off_c, 4, 72, 64
3, 37536, Note_on_c, 4, 72, 100
3, 37632, Note_off_c, 4, 72, 64
3, 37632, Note_on_c, 4, 72, 100
3, 37728, Note_off_c, 4, 72, 64
3, 37728, Note_on_c, 4, 72, 100
3, 37824, Note_off_c, 4, 72, 64
3, 37824, Note_on_c, 4, 72, 100
3, 37920, Note_off_c, 4, 72, 64
3, 37920, Note_on_c, 4, 72, 100
3, 38016, Note_off_c, 4, 72, 64
3, 38016, Note_on_c, 4, 72, 100
3, 38112, Note_off_c, 4, 72, 64
3, 38112, Note_on_c, 4, 72, 100
3, 38208, Note_off_c, 4, 72, 64
3, 38208, Note_on_c, 4, 72, 100
3, 38304, Note_off_c, 4, 72, 64
3, 38304, Note_on_c, 4, 72, 100
3, 38400, Note_off_c, 4, 72, 64
3, 38400, Note_on_c, 4, 72, 100
3, 38496, Note_off_c, 4, 72, 64
3, 38496, Note_on_c, 4, 72, 100
3, 38592, Note_off_c, 4, 72, 64
3, 38592, Note_on_c, 4, 72, 100
3, 38688, Note_off_c, 4, 72, 64
3, 38688, Note_on_c, 4, 72, 100
3, 38784, Note_off_c, 4, 72, 64
3, 38784, Note_on_c, 4, 72, 100
3, 38880, Note_off_c, 4, 72, 64
3, 38880, Note_on_c, 4, 72, 100
3, 38976, Note_off_c, 4, 72, 64
3, 38976, Note_on_c, 4, 72, 100
3, 39072, Note_off_c, 4, 72, 64
3, 39072, Note_on_c, 4, 72, 100
3, 39168, Note_off_c, 4, 72, 64
3, 39168, Note_on_c, 4, 72, 100
3, 39264, Note_off_c, 4, 72, 64
3, 39264, Note_on_c, 4, 72, 100
3, 39360, Note_off_c, 4, 72, 64
3, 39360, Note_on_c, 4, 72, 100
3, 39456, Note_off_c, 4, 72, 64
3, 39456, Note_on_c, 4, 72, 100
3, 39552, Note_off_c, 4, 72, 64
3, 39552, Note_on_c, 4, 72, 100
3, 39648, Note_off_c, 4, 72, 64
3, 39648, Note_on_c, 4, 72, 100
3, 39744, Note_off_c, 4, 72, 64
3, 39744, Note_on_c, 4, 72, 100
3, 39840, Note_off_c, 4, 72, 64
3, 39840, Note_on_c, 4, 72, 100
3, 39936, Note_off_c, 4, 72, 64
3, 39936, Note_on_c, 4, 72, 100
3, 40032, Note_off_c, 4, 72, 64
3, 40032, Note_on_c, 4, 72, 100
3, 40128, Note_off_c, 4, 72, 64
3, 40128, Note_on_c, 4, 72, 100
3, 40224, Note_off_c, 4, 72, 64
3, 40224, Note_on_c, 4, 72, 100
3, 40320, Note_off_c, 4, 72, 64
3, 40320, Note_on_c, 4, 72, 100
3, 40416, Note_off_c, 4, 72, 64
3, 40416, Note_on_c, 4, 72, 100
3, 40512, Note_off_c, 4, 72, 64
3, 40512, Note_on_c, 4, 72, 100
3, 40608, Note_off_c, 4, 72, 64
3, 40608, Note_on_c, 4, 72, 100
3, 40704, Note_off_c, 4, 72, 64
3, 40704, Note_on_c, 4, 72, 100
3, 40800, Note_off_c, 4, 72, 64
3, 40800, Note_on_c, 4, 72, 100
3, 40896, Note_off_c, 4, 72, 64
3, 40896, Note_on_c, 4, 72, 100
3, 40992, Note_off_c, 4, 72, 64
3, 40992, Note_on_c, 4, 72, 100
3, 41088, Note_off_c, 4, 72, 64
3, 41088, Note_on_c, 4, 72, 100
3, 41184, Note_off_c, 4, 72, 64
3, 41184, Note_on_c, 4, 72, 100
3, 41280, Note_off_c, 4, 72, 64
3, 41280, Note_on_c, 4, 72, 100
3, 41376, Note_off_c, 4, 72, 64
3, 41376, Note_on_c, 4, 72, 100
3, 41472, Note_off_c, 4, 72, 64
3, 41472, Note_on_c, 4, 72, 100
3, 41568, Note_off_c, 4, 72, 64
3, 41568, Note_on_c, 4, 72, 100
3, 41664, Note_off_c, 4, 72, 64
3, 41664, Note_on_c, 4, 72, 100
3, 41760, Note_off_c, 4, 72, 64
3, 41760, Note_on_c, 4, 72, 100
3, 41856, Note_off_c, 4, 72, 64
3, 41856, Note_on_c, 4, 72, 100
3, 41952, Note_off_c, 4, 72, 64
3, 41952, Note_on_c, 4, 72, 100
3, 42048, Note_off_c, 4, 72, 64
3, 42048, Note_on_c, 4, 72, 100
3, 42144, Note_off_c, 4, 72, 64
3, 42144, Note_on_c, 4, 72, 100
3, 42240, Note_off_c, 4, 72, 64
3, 42240, Note_on_c, 4, 72, 100
3, 42336, Note_off_c, 4, 72, 64
3, 42336, Note_on_c, 4, 72, 100
3, 42432, Note_off_c, 4, 72, 64
3, 42432, Note_on_c, 4, 72, 100
3, 42528, Note_off_c, 4, 72, 64
3, 42528, Note_on_c, 4, 72, 100
3, 42624, Note_off_c, 4, 72, 64
3, 42624, Note_on_c, 4, 72, 100
3, 42720, Note_off_c, 4, 72, 64
3, 42720, Note_on_c, 4, 72, 100
3, 42816, Note_off_c, 4, 72, 64
3, 42816, Note_on_c, 4, 72, 100
3, 42912, Note_off_c, 4, 72, 64
3, 42912, Note_on_c, 4, 72, 100
3, 43008, Note_off_c, 4, 72, 64
3, 43008, Note_on_c, 4, 72, 100
3, 43104, Note_off_c, 4, 72, 64
3, 43104, Note_on_c, 4, 72, 100
3, 43200, Note_off_c, 4, 72, 64
3, 43200, Note_on_c, 4, 72, 100
3, 43296, Note_off_c, 4, 72, 64
3, 43296, Note_on_c, 4, 72, 100
3, 43392, Note_off_c, 4, 72, 64
3, 43392, Note_on_c, 4, 72, 100
3, 43488, Note_off_c, 4, 72, 64
3, 43488, Note_on_c, 4, 72, 100
3, 43584, Note_off_c, 4, 72, 64
3, 43584, Note_on_c, 4, 72, 100
3, 43680, Note_off_c, 4, 72, 64
3, 43680, Note_on_c, 4, 72, 100
3, 43776, Note_off_c, 4, 72, 64
3, 43776, Note_on_c, 4, 72, 100
3, 43872, Note_off_c, 4, 72, 64
3, 43872, Note_on_c, 4, 72, 100
3, 43968, Note_off_c, 4, 72, 64
3, 43968, Note_on_c, 4, 72, 100
3, 44064, Note_off_c, 4, 72, 64
3, 44064, Note_on_c, 4, 72, 100
3, 44160, Note_off_c, 4, 72, 64
3, 44160, Note_on_c, 4, 72, 100
3, 44256, Note_off_c, 4, 72, 64
3, 44256, Note_on_c, 4, 72, 100
3, 44352, Note_off_c, 4, 72, 64
3, 44352, Note_on_c, 4, 72, 100
3, 44448, Note_off_c, 4, 72, 64
3, 44448, Note_on_c, 4, 72, 100
3, 44544, Note_off_c, 4, 72, 64
3, 44544, Note_on_c, 4, 72, 100
3, 44640, Note_off_c, 4, 72, 64
3, 44640, Note_on_c, 4, 72, 100
3, 44736, Note_off_c, 4, 72, 64
3, 44736, Note_on_c, 4, 72, 100
3, 44832, Note_off_c, 4, 72, 64
3, 44832, Note_on_c, 4, 72, 100
3, 44928, Note_off_c, 4, 72, 64
3, 44928, Note_on_c, 4, 72, 100
3, 45024, Note_off_c, 4, 72, 64
3, 45024, Note_on_c, 4, 72, 100
3, 45120, Note_off_c, 4, 72, 64
3, 45120, Note_on_c, 4, 72, 100
3, 45216, Note_off_c, 4, 72, 64
3, 45216, Note_on_c, 4, 72, 100
3, 45312, Note_off_c, 4, 72, 64
3, 45312, Note_on_c, 4, 72, 100
3, 45408, Note_off_c, 4, 72, 64
3, 45408, Note_on_c, 4, 72, 100
3, 45504, Note_off_c, 4, 72, 64
3, 45504, Note_on_c, 4, 72, 100
3, 45600, Note_off_c, 4, 72, 64
3, 45600, Note_on_c, 4, 72, 100
3, 45696, Note_off_c, 4, 72, 64
3, 45696, Note_on_c, 4, 72, 100
3, 45792, Note_off_c, 4, 72, 64
3, 45792, Note_on_c, 4, 72, 100
3, 45888, Note_off_c, 4, 72, 64
3, 45888, Note_on_c, 4, 72, 100
3, 45984, Note_off_c, 4, 72, 64
3, 45984, Note_on_c, 4, 72, 100
3, 46080, Note_off_c, 4, 72, 64
3, 46080, Note_on_c, 4, 72, 100
3, 46176, Note_off_c, 4, 72, 64
3, 46176, Note_on_c, 4, 72, 100
3, 46272, Note_off_c, 4, 72, 64
3, 46272, Note_on_c, 4, 72, 100
3, 46368, Note_off_c, 4, 72, 64
3, 46368, Note_on_c, 4, 72, 100
3, 46464, Note_off_c, 4, 72, 64
3, 46464, Note_on_c, 4, 72, 100
3, 46560, Note_off_c, 4, 72, 64
3, 46560, Note_on_c, 4, 72, 100
3, 46656, Note_off_c, 4, 72, 64
3, 46656, Note_on_c, 4, 72, 100
3, 46752, Note_off_c, 4, 72, 64
3, 46752, Note_on_c, 4, 72, 100
3, 46848, Note_off_c, 4, 72, 64
3, 50592, Control_c, 4, 101, 0
3, 50592, Control_c, 4, 100, 0
3, 50592, Control_c, 4, 6, 12
3, 50592, Control_c, 4, 10, 64
3, 50592, Control_c, 4, 7, 100
3, 50592, Pitch_bend_c, 4, 8192
3, 50592, Program_c, 4, 117
3, 50593, Control_c, 4, 101, 0
3, 50593, Control_c, 4, 100, 0
3, 50593, Control_c, 4, 6, 12
3, 50593, Control_c, 4, 10, 64
3, 50593, Control_c, 4, 7, 100
3, 50593, Pitch_bend_c, 4, 8192
3, 50593, Program_c, 4, 117
3, 50593, Control_c, 4, 101, 0
3, 50593, Control_c, 4, 100, 0
3, 50593, Control_c, 4, 6, 12
3, 50593, Control_c, 4, 10, 64
3, 50593, Control_c, 4, 7, 100
3, 50593, Pitch_bend_c, 4, 8192
3, 50593, Program_c, 4, 117
3, 50593, End_track
4, 0, Start_track
4, 0, Title_t, "MIDI out"
4, 0, Control_c, 0, 10, 64
4, 0, Control_c, 0, 7, 43
4, 0, Pitch_bend_c, 0, 8192
4, 0, Control_c, 0, 101, 0
4, 0, Control_c, 0, 100, 0
4, 0, Control_c, 0, 6, 12
4, 0, Control_c, 0, 10, 64
4, 0, Control_c, 0, 7, 43
4, 0, Pitch_bend_c, 0, 8192
4, 0, Program_c, 0, 23
4, 0, Control_c, 0, 101, 0
4, 0, Control_c, 0, 100, 0
4, 0, Control_c, 0, 6, 12
4, 0, Control_c, 0, 10, 64
4, 0, Control_c, 0, 7, 43
4, 0, Pitch_bend_c, 0, 8192
4, 0, Program_c, 0, 23
4, 0, Control_c, 0, 101, 0
4, 0, Control_c, 0, 100, 0
4, 0, Control_c, 0, 6, 12
4, 0, Control_c, 0, 10, 64
4, 0, Control_c, 0, 7, 43
4, 0, Pitch_bend_c, 0, 8192
4, 0, Program_c, 0, 23
4, 0, Note_on_c, 0, 76, 64
4, 0, Note_on_c, 0, 69, 64
4, 24, Note_off_c, 0, 76, 64
4, 24, Note_off_c, 0, 69, 64
4, 24, Note_on_c, 0, 69, 64
4, 24, Note_on_c, 0, 76, 64
4, 48, Note_off_c, 0, 76, 64
4, 48, Note_off_c, 0, 69, 64
4, 48, Note_on_c, 0, 69, 64
4, 48, Note_on_c, 0, 76, 64
4, 72, Note_off_c, 0, 76, 64
4, 72, Note_off_c, 0, 69, 64
4, 72, Note_on_c, 0, 69, 64
4, 72, Note_on_c, 0, 76, 64
4, 96, Note_off_c, 0, 76, 64
4, 96, Note_off_c, 0, 69, 64
4, 96, Note_on_c, 0, 66, 64
4, 96, Note_on_c, 0, 71, 64
4, 120, Note_off_c, 0, 71, 64
4, 120, Note_off_c, 0, 66, 64
4, 120, Note_on_c, 0, 66, 64
4, 120, Note_on_c, 0, 71, 64
4, 144, Note_off_c, 0, 71, 64
4, 144, Note_off_c, 0, 66, 64
4, 144, Note_on_c, 0, 66, 64
4, 144, Note_on_c, 0, 71, 64
4, 168, Note_off_c, 0, 71, 64
4, 168, Note_off_c, 0, 66, 64
4, 168, Note_on_c, 0, 66, 64
4, 168, Note_on_c, 0, 71, 64
4, 192, Note_off_c, 0, 71, 64
4, 192, Note_off_c, 0, 66, 64
4, 192, Note_on_c, 0, 64, 64
4, 192, Note_on_c, 0, 69, 64
4, 216, Note_off_c, 0, 69, 64
4, 216, Note_off_c, 0, 64, 64
4, 216, Note_on_c, 0, 69, 64
4, 216, Note_on_c, 0, 64, 64
4, 240, Note_off_c, 0, 64, 64
4, 240, Note_off_c, 0, 69, 64
4, 240, Note_on_c, 0, 69, 64
4, 240, Note_on_c, 0, 64, 64
4, 264, Note_off_c, 0, 64, 64
4, 264, Note_off_c, 0, 69, 64
4, 264, Note_on_c, 0, 69, 64
4, 264, Note_on_c, 0, 64, 64
4, 288, Note_off_c, 0, 64, 64
4, 288, Note_off_c, 0, 69, 64
4, 288, Note_on_c, 0, 71, 64
4, 288, Note_on_c, 0, 66, 64
4, 312, Note_off_c, 0, 66, 64
4, 312, Note_off_c, 0, 71, 64
4, 312, Note_on_c, 0, 71, 64
4, 312, Note_on_c, 0, 66, 64
4, 336, Note_off_c, 0, 66, 64
4, 336, Note_off_c, 0, 71, 64
4, 336, Note_on_c, 0, 71, 64
4, 336, Note_on_c, 0, 66, 64
4, 360, Note_off_c, 0, 66, 64
4, 360, Note_off_c, 0, 71, 64
4, 360, Note_on_c, 0, 71, 64
4, 360, Note_on_c, 0, 66, 64
4, 384, Note_off_c, 0, 66, 64
4, 384, Note_off_c, 0, 71, 64
4, 384, Note_on_c, 0, 69, 64
4, 384, Note_on_c, 0, 76, 64
4, 408, Note_off_c, 0, 76, 64
4, 408, Note_off_c, 0, 69, 64
4, 408, Note_on_c, 0, 69, 64
4, 408, Note_on_c, 0, 76, 64
4, 432, Note_off_c, 0, 76, 64
4, 432, Note_off_c, 0, 69, 64
4, 432, Note_on_c, 0, 69, 64
4, 432, Note_on_c, 0, 76, 64
4, 456, Note_off_c, 0, 76, 64
4, 456, Note_off_c, 0, 69, 64
4, 456, Note_on_c, 0, 69, 64
4, 456, Note_on_c, 0, 76, 64
4, 480, Note_off_c, 0, 76, 64
4, 480, Note_off_c, 0, 69, 64
4, 480, Note_on_c, 0, 66, 64
4, 480, Note_on_c, 0, 71, 64
4, 504, Note_off_c, 0, 71, 64
4, 504, Note_off_c, 0, 66, 64
4, 504, Note_on_c, 0, 66, 64
4, 504, Note_on_c, 0, 71, 64
4, 528, Note_off_c, 0, 71, 64
4, 528, Note_off_c, 0, 66, 64
4, 528, Note_on_c, 0, 66, 64
4, 528, Note_on_c, 0, 71, 64
4, 552, Note_off_c, 0, 71, 64
4, 552, Note_off_c, 0, 66, 64
4, 552, Note_on_c, 0, 66, 64
4, 552, Note_on_c, 0, 71, 64
4, 576, Note_off_c, 0, 71, 64
4, 576, Note_off_c, 0, 66, 64
4, 576, Note_on_c, 0, 69, 64
4, 576, Note_on_c, 0, 64, 64
4, 600, Note_off_c, 0, 64, 64
4, 600, Note_off_c, 0, 69, 64
4, 600, Note_on_c, 0, 69, 64
4, 600, Note_on_c, 0, 64, 64
4, 624, Note_off_c, 0, 64, 64
4, 624, Note_off_c, 0, 69, 64
4, 624, Note_on_c, 0, 64, 64
4, 624, Note_on_c, 0, 69, 64
4, 648, Note_off_c, 0, 69, 64
4, 648, Note_off_c, 0, 64, 64
4, 648, Note_on_c, 0, 66, 64
4, 648, Note_on_c, 0, 71, 64
4, 672, Note_off_c, 0, 71, 64
4, 672, Note_off_c, 0, 66, 64
4, 672, Note_on_c, 0, 66, 64
4, 672, Note_on_c, 0, 71, 64
4, 696, Note_off_c, 0, 71, 64
4, 696, Note_off_c, 0, 66, 64
4, 696, Note_on_c, 0, 66, 64
4, 696, Note_on_c, 0, 71, 64
4, 720, Note_off_c, 0, 71, 64
4, 720, Note_off_c, 0, 66, 64
4, 720, Note_on_c, 0, 69, 64
4, 720, Note_on_c, 0, 64, 64
4, 744, Note_off_c, 0, 64, 64
4, 744, Note_off_c, 0, 69, 64
4, 744, Note_on_c, 0, 64, 64
4, 744, Note_on_c, 0, 69, 64
4, 768, Note_off_c, 0, 69, 64
4, 768, Note_off_c, 0, 64, 64
4, 768, Note_on_c, 0, 69, 64
4, 768, Note_on_c, 0, 76, 64
4, 792, Note_off_c, 0, 76, 64
4, 792, Note_off_c, 0, 69, 64
4, 792, Note_on_c, 0, 69, 64
4, 792, Note_on_c, 0, 76, 64
4, 816, Note_off_c, 0, 76, 64
4, 816, Note_off_c, 0, 69, 64
4, 816, Note_on_c, 0, 69, 64
4, 816, Note_on_c, 0, 76, 64
4, 840, Note_off_c, 0, 76, 64
4, 840, Note_off_c, 0, 69, 64
4, 840, Note_on_c, 0, 69, 64
4, 840, Note_on_c, 0, 76, 64
4, 864, Note_off_c, 0, 76, 64
4, 864, Note_off_c, 0, 69, 64
4, 864, Note_on_c, 0, 66, 64
4, 864, Note_on_c, 0, 71, 64
4, 888, Note_off_c, 0, 71, 64
4, 888, Note_off_c, 0, 66, 64
4, 888, Note_on_c, 0, 66, 64
4, 888, Note_on_c, 0, 71, 64
4, 912, Note_off_c, 0, 71, 64
4, 912, Note_off_c, 0, 66, 64
4, 912, Note_on_c, 0, 66, 64
4, 912, Note_on_c, 0, 71, 64
4, 936, Note_off_c, 0, 71, 64
4, 936, Note_off_c, 0, 66, 64
4, 936, Note_on_c, 0, 71, 64
4, 936, Note_on_c, 0, 66, 64
4, 960, Note_off_c, 0, 66, 64
4, 960, Note_off_c, 0, 71, 64
4, 960, Note_on_c, 0, 64, 64
4, 960, Note_on_c, 0, 69, 64
4, 984, Note_off_c, 0, 69, 64
4, 984, Note_off_c, 0, 64, 64
4, 984, Note_on_c, 0, 64, 64
4, 984, Note_on_c, 0, 69, 64
4, 1008, Note_off_c, 0, 69, 64
4, 1008, Note_off_c, 0, 64, 64
4, 1008, Note_on_c, 0, 64, 64
4, 1008, Note_on_c, 0, 69, 64
4, 1032, Note_off_c, 0, 69, 64
4, 1032, Note_off_c, 0, 64, 64
4, 1032, Note_on_c, 0, 64, 64
4, 1032, Note_on_c, 0, 69, 64
4, 1056, Note_off_c, 0, 69, 64
4, 1056, Note_off_c, 0, 64, 64
4, 1056, Note_on_c, 0, 66, 64
4, 1056, Note_on_c, 0, 71, 64
4, 1080, Note_off_c, 0, 71, 64
4, 1080, Note_off_c, 0, 66, 64
4, 1080, Note_on_c, 0, 66, 64
4, 1080, Note_on_c, 0, 71, 64
4, 1104, Note_off_c, 0, 71, 64
4, 1104, Note_off_c, 0, 66, 64
4, 1104, Note_on_c, 0, 66, 64
4, 1104, Note_on_c, 0, 71, 64
4, 1128, Note_off_c, 0, 71, 64
4, 1128, Note_off_c, 0, 66, 64
4, 1128, Note_on_c, 0, 66, 64
4, 1128, Note_on_c, 0, 71, 64
4, 1152, Note_off_c, 0, 71, 64
4, 1152, Note_off_c, 0, 66, 64
4, 1152, Note_on_c, 0, 69, 64
4, 1152, Note_on_c, 0, 76, 64
4, 1176, Note_off_c, 0, 76, 64
4, 1176, Note_off_c, 0, 69, 64
4, 1176, Note_on_c, 0, 69, 64
4, 1176, Note_on_c, 0, 76, 64
4, 1200, Note_off_c, 0, 76, 64
4, 1200, Note_off_c, 0, 69, 64
4, 1200, Note_on_c, 0, 69, 64
4, 1200, Note_on_c, 0, 76, 64
4, 1224, Note_off_c, 0, 76, 64
4, 1224, Note_off_c, 0, 69, 64
4, 1224, Note_on_c, 0, 69, 64
4, 1224, Note_on_c, 0, 76, 64
4, 1248, Note_off_c, 0, 76, 64
4, 1248, Note_off_c, 0, 69, 64
4, 1248, Note_on_c, 0, 66, 64
4, 1248, Note_on_c, 0, 71, 64
4, 1272, Note_off_c, 0, 71, 64
4, 1272, Note_off_c, 0, 66, 64
4, 1272, Note_on_c, 0, 66, 64
4, 1272, Note_on_c, 0, 71, 64
4, 1296, Note_off_c, 0, 71, 64
4, 1296, Note_off_c, 0, 66, 64
4, 1296, Note_on_c, 0, 66, 64
4, 1296, Note_on_c, 0, 71, 64
4, 1320, Note_off_c, 0, 71, 64
4, 1320, Note_off_c, 0, 66, 64
4, 1320, Note_on_c, 0, 66, 64
4, 1320, Note_on_c, 0, 71, 64
4, 1344, Note_off_c, 0, 71, 64
4, 1344, Note_off_c, 0, 66, 64
4, 1344, Note_on_c, 0, 64, 64
4, 1344, Note_on_c, 0, 69, 64
4, 1368, Note_off_c, 0, 69, 64
4, 1368, Note_off_c, 0, 64, 64
4, 1368, Note_on_c, 0, 64, 64
4, 1368, Note_on_c, 0, 69, 64
4, 1392, Note_off_c, 0, 69, 64
4, 1392, Note_off_c, 0, 64, 64
4, 1392, Note_on_c, 0, 69, 64
4, 1392, Note_on_c, 0, 64, 64
4, 1416, Note_off_c, 0, 64, 64
4, 1416, Note_off_c, 0, 69, 64
4, 1416, Note_on_c, 0, 66, 64
4, 1416, Note_on_c, 0, 71, 64
4, 1440, Note_off_c, 0, 71, 64
4, 1440, Note_off_c, 0, 66, 64
4, 1440, Note_on_c, 0, 66, 64
4, 1440, Note_on_c, 0, 71, 64
4, 1464, Note_off_c, 0, 71, 64
4, 1464, Note_off_c, 0, 66, 64
4, 1464, Note_on_c, 0, 66, 64
4, 1464, Note_on_c, 0, 71, 64
4, 1488, Note_off_c, 0, 71, 64
4, 1488, Note_off_c, 0, 66, 64
4, 1488, Note_on_c, 0, 64, 64
4, 1488, Note_on_c, 0, 69, 64
4, 1512, Note_off_c, 0, 64, 64
4, 1512, Note_off_c, 0, 69, 64
4, 1512, Note_on_c, 0, 64, 64
4, 1512, Note_on_c, 0, 69, 64
4, 1536, Note_off_c, 0, 69, 64
4, 1536, Note_off_c, 0, 64, 64
4, 1536, Note_on_c, 0, 76, 64
4, 1536, Note_on_c, 0, 69, 64
4, 1560, Note_off_c, 0, 69, 64
4, 1560, Note_off_c, 0, 76, 64
4, 1560, Note_on_c, 0, 69, 64
4, 1560, Note_on_c, 0, 76, 64
4, 1584, Note_off_c, 0, 76, 64
4, 1584, Note_off_c, 0, 69, 64
4, 1584, Note_on_c, 0, 69, 64
4, 1584, Note_on_c, 0, 76, 64
4, 1608, Note_off_c, 0, 76, 64
4, 1608, Note_off_c, 0, 69, 64
4, 1608, Note_on_c, 0, 69, 64
4, 1608, Note_on_c, 0, 76, 64
4, 1632, Note_off_c, 0, 76, 64
4, 1632, Note_off_c, 0, 69, 64
4, 1632, Note_on_c, 0, 66, 64
4, 1632, Note_on_c, 0, 71, 64
4, 1656, Note_off_c, 0, 71, 64
4, 1656, Note_off_c, 0, 66, 64
4, 1656, Note_on_c, 0, 66, 64
4, 1656, Note_on_c, 0, 71, 64
4, 1680, Note_off_c, 0, 71, 64
4, 1680, Note_off_c, 0, 66, 64
4, 1680, Note_on_c, 0, 66, 64
4, 1680, Note_on_c, 0, 71, 64
4, 1704, Note_off_c, 0, 71, 64
4, 1704, Note_off_c, 0, 66, 64
4, 1704, Note_on_c, 0, 66, 64
4, 1704, Note_on_c, 0, 71, 64
4, 1728, Note_off_c, 0, 71, 64
4, 1728, Note_off_c, 0, 66, 64
4, 1728, Note_on_c, 0, 64, 64
4, 1728, Note_on_c, 0, 69, 64
4, 1752, Note_off_c, 0, 69, 64
4, 1752, Note_off_c, 0, 64, 64
4, 1752, Note_on_c, 0, 69, 64
4, 1752, Note_on_c, 0, 64, 64
4, 1776, Note_off_c, 0, 64, 64
4, 1776, Note_off_c, 0, 69, 64
4, 1776, Note_on_c, 0, 69, 64
4, 1776, Note_on_c, 0, 64, 64
4, 1800, Note_off_c, 0, 64, 64
4, 1800, Note_off_c, 0, 69, 64
4, 1800, Note_on_c, 0, 69, 64
4, 1800, Note_on_c, 0, 64, 64
4, 1824, Note_off_c, 0, 64, 64
4, 1824, Note_off_c, 0, 69, 64
4, 1824, Note_on_c, 0, 71, 64
4, 1824, Note_on_c, 0, 66, 64
4, 1848, Note_off_c, 0, 66, 64
4, 1848, Note_off_c, 0, 71, 64
4, 1848, Note_on_c, 0, 71, 64
4, 1848, Note_on_c, 0, 66, 64
4, 1872, Note_off_c, 0, 66, 64
4, 1872, Note_off_c, 0, 71, 64
4, 1872, Note_on_c, 0, 71, 64
4, 1872, Note_on_c, 0, 66, 64
4, 1896, Note_off_c, 0, 66, 64
4, 1896, Note_off_c, 0, 71, 64
4, 1896, Note_on_c, 0, 71, 64
4, 1896, Note_on_c, 0, 66, 64
4, 1920, Note_off_c, 0, 66, 64
4, 1920, Note_off_c, 0, 71, 64
4, 1920, Note_on_c, 0, 69, 64
4, 1920, Note_on_c, 0, 76, 64
4, 1944, Note_off_c, 0, 76, 64
4, 1944, Note_off_c, 0, 69, 64
4, 1944, Note_on_c, 0, 69, 64
4, 1944, Note_on_c, 0, 76, 64
4, 1968, Note_off_c, 0, 76, 64
4, 1968, Note_off_c, 0, 69, 64
4, 1968, Note_on_c, 0, 69, 64
4, 1968, Note_on_c, 0, 76, 64
4, 1992, Note_off_c, 0, 76, 64
4, 1992, Note_off_c, 0, 69, 64
4, 1992, Note_on_c, 0, 69, 64
4, 1992, Note_on_c, 0, 76, 64
4, 2016, Note_off_c, 0, 76, 64
4, 2016, Note_off_c, 0, 69, 64
4, 2016, Note_on_c, 0, 66, 64
4, 2016, Note_on_c, 0, 71, 64
4, 2040, Note_off_c, 0, 71, 64
4, 2040, Note_off_c, 0, 66, 64
4, 2040, Note_on_c, 0, 66, 64
4, 2040, Note_on_c, 0, 71, 64
4, 2064, Note_off_c, 0, 71, 64
4, 2064, Note_off_c, 0, 66, 64
4, 2064, Note_on_c, 0, 66, 64
4, 2064, Note_on_c, 0, 71, 64
4, 2088, Note_off_c, 0, 71, 64
4, 2088, Note_off_c, 0, 66, 64
4, 2088, Note_on_c, 0, 66, 64
4, 2088, Note_on_c, 0, 71, 64
4, 2112, Note_off_c, 0, 71, 64
4, 2112, Note_off_c, 0, 66, 64
4, 2112, Note_on_c, 0, 69, 64
4, 2112, Note_on_c, 0, 64, 64
4, 2136, Note_off_c, 0, 64, 64
4, 2136, Note_off_c, 0, 69, 64
4, 2136, Note_on_c, 0, 69, 64
4, 2136, Note_on_c, 0, 64, 64
4, 2160, Note_off_c, 0, 64, 64
4, 2160, Note_off_c, 0, 69, 64
4, 2160, Note_on_c, 0, 64, 64
4, 2160, Note_on_c, 0, 69, 64
4, 2184, Note_off_c, 0, 69, 64
4, 2184, Note_off_c, 0, 64, 64
4, 2184, Note_on_c, 0, 66, 64
4, 2184, Note_on_c, 0, 71, 64
4, 2208, Note_off_c, 0, 71, 64
4, 2208, Note_off_c, 0, 66, 64
4, 2208, Note_on_c, 0, 66, 64
4, 2208, Note_on_c, 0, 71, 64
4, 2232, Note_off_c, 0, 71, 64
4, 2232, Note_off_c, 0, 66, 64
4, 2232, Note_on_c, 0, 66, 64
4, 2232, Note_on_c, 0, 71, 64
4, 2256, Note_off_c, 0, 71, 64
4, 2256, Note_off_c, 0, 66, 64
4, 2256, Note_on_c, 0, 69, 64
4, 2256, Note_on_c, 0, 64, 64
4, 2280, Note_off_c, 0, 69, 64
4, 2280, Note_off_c, 0, 64, 64
4, 2280, Note_on_c, 0, 64, 64
4, 2280, Note_on_c, 0, 69, 64
4, 2304, Note_off_c, 0, 69, 64
4, 2304, Note_off_c, 0, 64, 64
4, 2304, Note_on_c, 0, 69, 64
4, 2304, Note_on_c, 0, 76, 64
4, 2328, Note_off_c, 0, 76, 64
4, 2328, Note_off_c, 0, 69, 64
4, 2328, Note_on_c, 0, 69, 64
4, 2328, Note_on_c, 0, 76, 64
4, 2352, Note_off_c, 0, 76, 64
4, 2352, Note_off_c, 0, 69, 64
4, 2352, Note_on_c, 0, 69, 64
4, 2352, Note_on_c, 0, 76, 64
4, 2376, Note_off_c, 0, 76, 64
4, 2376, Note_off_c, 0, 69, 64
4, 2376, Note_on_c, 0, 69, 64
4, 2376, Note_on_c, 0, 76, 64
4, 2400, Note_off_c, 0, 76, 64
4, 2400, Note_off_c, 0, 69, 64
4, 2400, Note_on_c, 0, 66, 64
4, 2400, Note_on_c, 0, 71, 64
4, 2424, Note_off_c, 0, 71, 64
4, 2424, Note_off_c, 0, 66, 64
4, 2424, Note_on_c, 0, 66, 64
4, 2424, Note_on_c, 0, 71, 64
4, 2448, Note_off_c, 0, 71, 64
4, 2448, Note_off_c, 0, 66, 64
4, 2448, Note_on_c, 0, 66, 64
4, 2448, Note_on_c, 0, 71, 64
4, 2472, Note_off_c, 0, 66, 64
4, 2472, Note_off_c, 0, 71, 64
4, 2472, Note_on_c, 0, 71, 64
4, 2472, Note_on_c, 0, 66, 64
4, 2496, Note_off_c, 0, 66, 64
4, 2496, Note_off_c, 0, 71, 64
4, 2496, Note_on_c, 0, 64, 64
4, 2496, Note_on_c, 0, 69, 64
4, 2520, Note_off_c, 0, 69, 64
4, 2520, Note_off_c, 0, 64, 64
4, 2520, Note_on_c, 0, 64, 64
4, 2520, Note_on_c, 0, 69, 64
4, 2544, Note_off_c, 0, 69, 64
4, 2544, Note_off_c, 0, 64, 64
4, 2544, Note_on_c, 0, 64, 64
4, 2544, Note_on_c, 0, 69, 64
4, 2568, Note_off_c, 0, 69, 64
4, 2568, Note_off_c, 0, 64, 64
4, 2568, Note_on_c, 0, 64, 64
4, 2568, Note_on_c, 0, 69, 64
4, 2592, Note_off_c, 0, 69, 64
4, 2592, Note_off_c, 0, 64, 64
4, 2592, Note_on_c, 0, 66, 64
4, 2592, Note_on_c, 0, 71, 64
4, 2616, Note_off_c, 0, 71, 64
4, 2616, Note_off_c, 0, 66, 64
4, 2616, Note_on_c, 0, 66, 64
4, 2616, Note_on_c, 0, 71, 64
4, 2640, Note_off_c, 0, 71, 64
4, 2640, Note_off_c, 0, 66, 64
4, 2640, Note_on_c, 0, 66, 64
4, 2640, Note_on_c, 0, 71, 64
4, 2664, Note_off_c, 0, 71, 64
4, 2664, Note_off_c, 0, 66, 64
4, 2664, Note_on_c, 0, 66, 64
4, 2664, Note_on_c, 0, 71, 64
4, 2688, Note_off_c, 0, 71, 64
4, 2688, Note_off_c, 0, 66, 64
4, 2688, Note_on_c, 0, 69, 64
4, 2688, Note_on_c, 0, 76, 64
4, 2712, Note_off_c, 0, 69, 64
4, 2712, Note_off_c, 0, 76, 64
4, 2712, Note_on_c, 0, 69, 64
4, 2712, Note_on_c, 0, 76, 64
4, 2736, Note_off_c, 0, 76, 64
4, 2736, Note_off_c, 0, 69, 64
4, 2736, Note_on_c, 0, 69, 64
4, 2736, Note_on_c, 0, 76, 64
4, 2760, Note_off_c, 0, 76, 64
4, 2760, Note_off_c, 0, 69, 64
4, 2760, Note_on_c, 0, 69, 64
4, 2760, Note_on_c, 0, 76, 64
4, 2784, Note_off_c, 0, 76, 64
4, 2784, Note_off_c, 0, 69, 64
4, 2784, Note_on_c, 0, 66, 64
4, 2784, Note_on_c, 0, 71, 64
4, 2808, Note_off_c, 0, 66, 64
4, 2808, Note_off_c, 0, 71, 64
4, 2808, Note_on_c, 0, 66, 64
4, 2808, Note_on_c, 0, 71, 64
4, 2832, Note_off_c, 0, 71, 64
4, 2832, Note_off_c, 0, 66, 64
4, 2832, Note_on_c, 0, 66, 64
4, 2832, Note_on_c, 0, 71, 64
4, 2856, Note_off_c, 0, 71, 64
4, 2856, Note_off_c, 0, 66, 64
4, 2856, Note_on_c, 0, 66, 64
4, 2856, Note_on_c, 0, 71, 64
4, 2880, Note_off_c, 0, 71, 64
4, 2880, Note_off_c, 0, 66, 64
4, 2880, Note_on_c, 0, 64, 64
4, 2880, Note_on_c, 0, 69, 64
4, 2904, Note_off_c, 0, 69, 64
4, 2904, Note_off_c, 0, 64, 64
4, 2904, Note_on_c, 0, 64, 64
4, 2904, Note_on_c, 0, 69, 64
4, 2928, Note_off_c, 0, 69, 64
4, 2928, Note_off_c, 0, 64, 64
4, 2928, Note_on_c, 0, 69, 64
4, 2928, Note_on_c, 0, 64, 64
4, 2952, Note_off_c, 0, 64, 64
4, 2952, Note_off_c, 0, 69, 64
4, 2952, Note_on_c, 0, 66, 64
4, 2952, Note_on_c, 0, 71, 64
4, 2976, Note_off_c, 0, 71, 64
4, 2976, Note_off_c, 0, 66, 64
4, 2976, Note_on_c, 0, 66, 64
4, 2976, Note_on_c, 0, 71, 64
4, 3000, Note_off_c, 0, 66, 64
4, 3000, Note_off_c, 0, 71, 64
4, 3000, Note_on_c, 0, 66, 64
4, 3000, Note_on_c, 0, 71, 64
4, 3024, Note_off_c, 0, 71, 64
4, 3024, Note_off_c, 0, 66, 64
4, 3024, Note_on_c, 0, 64, 64
4, 3024, Note_on_c, 0, 69, 64
4, 3048, Note_off_c, 0, 69, 64
4, 3048, Note_off_c, 0, 64, 64
4, 3048, Note_on_c, 0, 64, 64
4, 3048, Note_on_c, 0, 69, 64
4, 3072, Note_off_c, 0, 69, 64
4, 3072, Note_off_c, 0, 64, 64
4, 3072, Note_on_c, 0, 76, 64
4, 3072, Note_on_c, 0, 69, 64
4, 3096, Note_off_c, 0, 76, 64
4, 3096, Note_off_c, 0, 69, 64
4, 3096, Note_on_c, 0, 69, 64
4, 3096, Note_on_c, 0, 76, 64
4, 3120, Note_off_c, 0, 76, 64
4, 3120, Note_off_c, 0, 69, 64
4, 3120, Note_on_c, 0, 69, 64
4, 3120, Note_on_c, 0, 76, 64
4, 3144, Note_off_c, 0, 76, 64
4, 3144, Note_off_c, 0, 69, 64
4, 3144, Note_on_c, 0, 69, 64
4, 3144, Note_on_c, 0, 76, 64
4, 3168, Note_off_c, 0, 76, 64
4, 3168, Note_off_c, 0, 69, 64
4, 3168, Note_on_c, 0, 66, 64
4, 3168, Note_on_c, 0, 71, 64
4, 3192, Note_off_c, 0, 66, 64
4, 3192, Note_off_c, 0, 71, 64
4, 3192, Note_on_c, 0, 66, 64
4, 3192, Note_on_c, 0, 71, 64
4, 3216, Note_off_c, 0, 71, 64
4, 3216, Note_off_c, 0, 66, 64
4, 3216, Note_on_c, 0, 66, 64
4, 3216, Note_on_c, 0, 71, 64
4, 3240, Note_off_c, 0, 71, 64
4, 3240, Note_off_c, 0, 66, 64
4, 3240, Note_on_c, 0, 66, 64
4, 3240, Note_on_c, 0, 71, 64
4, 3264, Note_off_c, 0, 71, 64
4, 3264, Note_off_c, 0, 66, 64
4, 3264, Note_on_c, 0, 64, 64
4, 3264, Note_on_c, 0, 69, 64
4, 3288, Note_off_c, 0, 69, 64
4, 3288, Note_off_c, 0, 64, 64
4, 3288, Note_on_c, 0, 69, 64
4, 3288, Note_on_c, 0, 64, 64
4, 3312, Note_off_c, 0, 64, 64
4, 3312, Note_off_c, 0, 69, 64
4, 3312, Note_on_c, 0, 69, 64
4, 3312, Note_on_c, 0, 64, 64
4, 3336, Note_off_c, 0, 64, 64
4, 3336, Note_off_c, 0, 69, 64
4, 3336, Note_on_c, 0, 69, 64
4, 3336, Note_on_c, 0, 64, 64
4, 3360, Note_off_c, 0, 64, 64
4, 3360, Note_off_c, 0, 69, 64
4, 3360, Note_on_c, 0, 71, 64
4, 3360, Note_on_c, 0, 66, 64
4, 3384, Note_off_c, 0, 71, 64
4, 3384, Note_off_c, 0, 66, 64
4, 3384, Note_on_c, 0, 71, 64
4, 3384, Note_on_c, 0, 66, 64
4, 3408, Note_off_c, 0, 66, 64
4, 3408, Note_off_c, 0, 71, 64
4, 3408, Note_on_c, 0, 71, 64
4, 3408, Note_on_c, 0, 66, 64
4, 3432, Note_off_c, 0, 66, 64
4, 3432, Note_off_c, 0, 71, 64
4, 3432, Note_on_c, 0, 71, 64
4, 3432, Note_on_c, 0, 66, 64
4, 3456, Note_off_c, 0, 66, 64
4, 3456, Note_off_c, 0, 71, 64
4, 3456, Note_on_c, 0, 69, 64
4, 3456, Note_on_c, 0, 76, 64
4, 3480, Note_off_c, 0, 69, 64
4, 3480, Note_off_c, 0, 76, 64
4, 3480, Note_on_c, 0, 69, 64
4, 3480, Note_on_c, 0, 76, 64
4, 3504, Note_off_c, 0, 76, 64
4, 3504, Note_off_c, 0, 69, 64
4, 3504, Note_on_c, 0, 69, 64
4, 3504, Note_on_c, 0, 76, 64
4, 3528, Note_off_c, 0, 76, 64
4, 3528, Note_off_c, 0, 69, 64
4, 3528, Note_on_c, 0, 69, 64
4, 3528, Note_on_c, 0, 76, 64
4, 3552, Note_off_c, 0, 76, 64
4, 3552, Note_off_c, 0, 69, 64
4, 3552, Note_on_c, 0, 66, 64
4, 3552, Note_on_c, 0, 71, 64
4, 3576, Note_off_c, 0, 66, 64
4, 3576, Note_off_c, 0, 71, 64
4, 3576, Note_on_c, 0, 66, 64
4, 3576, Note_on_c, 0, 71, 64
4, 3600, Note_off_c, 0, 71, 64
4, 3600, Note_off_c, 0, 66, 64
4, 3600, Note_on_c, 0, 66, 64
4, 3600, Note_on_c, 0, 71, 64
4, 3624, Note_off_c, 0, 71, 64
4, 3624, Note_off_c, 0, 66, 64
4, 3624, Note_on_c, 0, 66, 64
4, 3624, Note_on_c, 0, 71, 64
4, 3648, Note_off_c, 0, 71, 64
4, 3648, Note_off_c, 0, 66, 64
4, 3648, Note_on_c, 0, 69, 64
4, 3648, Note_on_c, 0, 64, 64
4, 3672, Note_off_c, 0, 64, 64
4, 3672, Note_off_c, 0, 69, 64
4, 3672, Note_on_c, 0, 69, 64
4, 3672, Note_on_c, 0, 64, 64
4, 3696, Note_off_c, 0, 64, 64
4, 3696, Note_off_c, 0, 69, 64
4, 3696, Note_on_c, 0, 64, 64
4, 3696, Note_on_c, 0, 69, 64
4, 3720, Note_off_c, 0, 69, 64
4, 3720, Note_off_c, 0, 64, 64
4, 3720, Note_on_c, 0, 66, 64
4, 3720, Note_on_c, 0, 71, 64
4, 3744, Note_off_c, 0, 71, 64
4, 3744, Note_off_c, 0, 66, 64
4, 3744, Note_on_c, 0, 66, 64
4, 3744, Note_on_c, 0, 71, 64
4, 3768, Note_off_c, 0, 66, 64
4, 3768, Note_off_c, 0, 71, 64
4, 3768, Note_on_c, 0, 66, 64
4, 3768, Note_on_c, 0, 71, 64
4, 3792, Note_off_c, 0, 71, 64
4, 3792, Note_off_c, 0, 66, 64
4, 3792, Note_on_c, 0, 69, 64
4, 3792, Note_on_c, 0, 64, 64
4, 3816, Note_off_c, 0, 64, 64
4, 3816, Note_off_c, 0, 69, 64
4, 3816, Note_on_c, 0, 64, 64
4, 3816, Note_on_c, 0, 69, 64
4, 3840, Note_off_c, 0, 69, 64
4, 3840, Note_off_c, 0, 64, 64
4, 3840, Note_on_c, 0, 69, 64
4, 3840, Note_on_c, 0, 76, 64
4, 3864, Note_off_c, 0, 69, 64
4, 3864, Note_off_c, 0, 76, 64
4, 3864, Note_on_c, 0, 69, 64
4, 3864, Note_on_c, 0, 76, 64
4, 3888, Note_off_c, 0, 76, 64
4, 3888, Note_off_c, 0, 69, 64
4, 3888, Note_on_c, 0, 69, 64
4, 3888, Note_on_c, 0, 76, 64
4, 3912, Note_off_c, 0, 76, 64
4, 3912, Note_off_c, 0, 69, 64
4, 3912, Note_on_c, 0, 69, 64
4, 3912, Note_on_c, 0, 76, 64
4, 3936, Note_off_c, 0, 76, 64
4, 3936, Note_off_c, 0, 69, 64
4, 3936, Note_on_c, 0, 66, 64
4, 3936, Note_on_c, 0, 71, 64
4, 3960, Note_off_c, 0, 66, 64
4, 3960, Note_off_c, 0, 71, 64
4, 3960, Note_on_c, 0, 66, 64
4, 3960, Note_on_c, 0, 71, 64
4, 3984, Note_off_c, 0, 71, 64
4, 3984, Note_off_c, 0, 66, 64
4, 3984, Note_on_c, 0, 66, 64
4, 3984, Note_on_c, 0, 71, 64
4, 4008, Note_off_c, 0, 71, 64
4, 4008, Note_off_c, 0, 66, 64
4, 4008, Note_on_c, 0, 71, 64
4, 4008, Note_on_c, 0, 66, 64
4, 4032, Note_off_c, 0, 66, 64
4, 4032, Note_off_c, 0, 71, 64
4, 4032, Note_on_c, 0, 64, 64
4, 4032, Note_on_c, 0, 69, 64
4, 4056, Note_off_c, 0, 69, 64
4, 4056, Note_off_c, 0, 64, 64
4, 4056, Note_on_c, 0, 64, 64
4, 4056, Note_on_c, 0, 69, 64
4, 4080, Note_off_c, 0, 69, 64
4, 4080, Note_off_c, 0, 64, 64
4, 4080, Note_on_c, 0, 64, 64
4, 4080, Note_on_c, 0, 69, 64
4, 4104, Note_off_c, 0, 69, 64
4, 4104, Note_off_c, 0, 64, 64
4, 4104, Note_on_c, 0, 64, 64
4, 4104, Note_on_c, 0, 69, 64
4, 4128, Note_off_c, 0, 69, 64
4, 4128, Note_off_c, 0, 64, 64
4, 4128, Note_on_c, 0, 66, 64
4, 4128, Note_on_c, 0, 71, 64
4, 4152, Note_off_c, 0, 66, 64
4, 4152, Note_off_c, 0, 71, 64
4, 4152, Note_on_c, 0, 66, 64
4, 4152, Note_on_c, 0, 71, 64
4, 4176, Note_off_c, 0, 71, 64
4, 4176, Note_off_c, 0, 66, 64
4, 4176, Note_on_c, 0, 66, 64
4, 4176, Note_on_c, 0, 71, 64
4, 4200, Note_off_c, 0, 71, 64
4, 4200, Note_off_c, 0, 66, 64
4, 4200, Note_on_c, 0, 66, 64
4, 4200, Note_on_c, 0, 71, 64
4, 4224, Note_off_c, 0, 71, 64
4, 4224, Note_off_c, 0, 66, 64
4, 4224, Note_on_c, 0, 69, 64
4, 4224, Note_on_c, 0, 76, 64
4, 4248, Note_off_c, 0, 69, 64
4, 4248, Note_off_c, 0, 76, 64
4, 4248, Note_on_c, 0, 69, 64
4, 4248, Note_on_c, 0, 76, 64
4, 4272, Note_off_c, 0, 76, 64
4, 4272, Note_off_c, 0, 69, 64
4, 4272, Note_on_c, 0, 69, 64
4, 4272, Note_on_c, 0, 76, 64
4, 4296, Note_off_c, 0, 76, 64
4, 4296, Note_off_c, 0, 69, 64
4, 4296, Note_on_c, 0, 69, 64
4, 4296, Note_on_c, 0, 76, 64
4, 4320, Note_off_c, 0, 76, 64
4, 4320, Note_off_c, 0, 69, 64
4, 4320, Note_on_c, 0, 66, 64
4, 4320, Note_on_c, 0, 71, 64
4, 4344, Note_off_c, 0, 66, 64
4, 4344, Note_off_c, 0, 71, 64
4, 4344, Note_on_c, 0, 66, 64
4, 4344, Note_on_c, 0, 71, 64
4, 4368, Note_off_c, 0, 71, 64
4, 4368, Note_off_c, 0, 66, 64
4, 4368, Note_on_c, 0, 66, 64
4, 4368, Note_on_c, 0, 71, 64
4, 4392, Note_off_c, 0, 71, 64
4, 4392, Note_off_c, 0, 66, 64
4, 4392, Note_on_c, 0, 66, 64
4, 4392, Note_on_c, 0, 71, 64
4, 4416, Note_off_c, 0, 71, 64
4, 4416, Note_off_c, 0, 66, 64
4, 4416, Note_on_c, 0, 64, 64
4, 4416, Note_on_c, 0, 69, 64
4, 4440, Note_off_c, 0, 69, 64
4, 4440, Note_off_c, 0, 64, 64
4, 4440, Note_on_c, 0, 64, 64
4, 4440, Note_on_c, 0, 69, 64
4, 4464, Note_off_c, 0, 69, 64
4, 4464, Note_off_c, 0, 64, 64
4, 4464, Note_on_c, 0, 69, 64
4, 4464, Note_on_c, 0, 64, 64
4, 4488, Note_off_c, 0, 64, 64
4, 4488, Note_off_c, 0, 69, 64
4, 4488, Note_on_c, 0, 66, 64
4, 4488, Note_on_c, 0, 71, 64
4, 4512, Note_off_c, 0, 71, 64
4, 4512, Note_off_c, 0, 66, 64
4, 4512, Note_on_c, 0, 66, 64
4, 4512, Note_on_c, 0, 71, 64
4, 4536, Note_off_c, 0, 66, 64
4, 4536, Note_off_c, 0, 71, 64
4, 4536, Note_on_c, 0, 66, 64
4, 4536, Note_on_c, 0, 71, 64
4, 4560, Note_off_c, 0, 71, 64
4, 4560, Note_off_c, 0, 66, 64
4, 4560, Note_on_c, 0, 64, 64
4, 4560, Note_on_c, 0, 69, 64
4, 4584, Note_off_c, 0, 69, 64
4, 4584, Note_off_c, 0, 64, 64
4, 4584, Note_on_c, 0, 64, 64
4, 4584, Note_on_c, 0, 69, 64
4, 4608, Note_off_c, 0, 69, 64
4, 4608, Note_off_c, 0, 64, 64
4, 4608, Note_on_c, 0, 76, 64
4, 4608, Note_on_c, 0, 69, 64
4, 4632, Note_off_c, 0, 76, 64
4, 4632, Note_off_c, 0, 69, 64
4, 4632, Note_on_c, 0, 69, 64
4, 4632, Note_on_c, 0, 76, 64
4, 4656, Note_off_c, 0, 76, 64
4, 4656, Note_off_c, 0, 69, 64
4, 4656, Note_on_c, 0, 69, 64
4, 4656, Note_on_c, 0, 76, 64
4, 4680, Note_off_c, 0, 76, 64
4, 4680, Note_off_c, 0, 69, 64
4, 4680, Note_on_c, 0, 69, 64
4, 4680, Note_on_c, 0, 76, 64
4, 4704, Note_off_c, 0, 76, 64
4, 4704, Note_off_c, 0, 69, 64
4, 4704, Note_on_c, 0, 66, 64
4, 4704, Note_on_c, 0, 71, 64
4, 4728, Note_off_c, 0, 66, 64
4, 4728, Note_off_c, 0, 71, 64
4, 4728, Note_on_c, 0, 66, 64
4, 4728, Note_on_c, 0, 71, 64
4, 4752, Note_off_c, 0, 71, 64
4, 4752, Note_off_c, 0, 66, 64
4, 4752, Note_on_c, 0, 66, 64
4, 4752, Note_on_c, 0, 71, 64
4, 4776, Note_off_c, 0, 71, 64
4, 4776, Note_off_c, 0, 66, 64
4, 4776, Note_on_c, 0, 66, 64
4, 4776, Note_on_c, 0, 71, 64
4, 4800, Note_off_c, 0, 71, 64
4, 4800, Note_off_c, 0, 66, 64
4, 4800, Note_on_c, 0, 64, 64
4, 4800, Note_on_c, 0, 69, 64
4, 4824, Note_off_c, 0, 69, 64
4, 4824, Note_off_c, 0, 64, 64
4, 4824, Note_on_c, 0, 69, 64
4, 4824, Note_on_c, 0, 64, 64
4, 4848, Note_off_c, 0, 64, 64
4, 4848, Note_off_c, 0, 69, 64
4, 4848, Note_on_c, 0, 69, 64
4, 4848, Note_on_c, 0, 64, 64
4, 4872, Note_off_c, 0, 64, 64
4, 4872, Note_off_c, 0, 69, 64
4, 4872, Note_on_c, 0, 69, 64
4, 4872, Note_on_c, 0, 64, 64
4, 4896, Note_off_c, 0, 64, 64
4, 4896, Note_off_c, 0, 69, 64
4, 4896, Note_on_c, 0, 71, 64
4, 4896, Note_on_c, 0, 66, 64
4, 4920, Note_off_c, 0, 71, 64
4, 4920, Note_off_c, 0, 66, 64
4, 4920, Note_on_c, 0, 71, 64
4, 4920, Note_on_c, 0, 66, 64
4, 4944, Note_off_c, 0, 66, 64
4, 4944, Note_off_c, 0, 71, 64
4, 4944, Note_on_c, 0, 71, 64
4, 4944, Note_on_c, 0, 66, 64
4, 4968, Note_off_c, 0, 66, 64
4, 4968, Note_off_c, 0, 71, 64
4, 4968, Note_on_c, 0, 71, 64
4, 4968, Note_on_c, 0, 66, 64
4, 4992, Note_off_c, 0, 66, 64
4, 4992, Note_off_c, 0, 71, 64
4, 4992, Note_on_c, 0, 69, 64
4, 4992, Note_on_c, 0, 76, 64
4, 5016, Note_off_c, 0, 69, 64
4, 5016, Note_off_c, 0, 76, 64
4, 5016, Note_on_c, 0, 69, 64
4, 5016, Note_on_c, 0, 76, 64
4, 5040, Note_off_c, 0, 76, 64
4, 5040, Note_off_c, 0, 69, 64
4, 5040, Note_on_c, 0, 69, 64
4, 5040, Note_on_c, 0, 76, 64
4, 5064, Note_off_c, 0, 76, 64
4, 5064, Note_off_c, 0, 69, 64
4, 5064, Note_on_c, 0, 69, 64
4, 5064, Note_on_c, 0, 76, 64
4, 5088, Note_off_c, 0, 76, 64
4, 5088, Note_off_c, 0, 69, 64
4, 5088, Note_on_c, 0, 66, 64
4, 5088, Note_on_c, 0, 71, 64
4, 5112, Note_off_c, 0, 66, 64
4, 5112, Note_off_c, 0, 71, 64
4, 5112, Note_on_c, 0, 66, 64
4, 5112, Note_on_c, 0, 71, 64
4, 5136, Note_off_c, 0, 71, 64
4, 5136, Note_off_c, 0, 66, 64
4, 5136, Note_on_c, 0, 66, 64
4, 5136, Note_on_c, 0, 71, 64
4, 5160, Note_off_c, 0, 71, 64
4, 5160, Note_off_c, 0, 66, 64
4, 5160, Note_on_c, 0, 66, 64
4, 5160, Note_on_c, 0, 71, 64
4, 5184, Note_off_c, 0, 71, 64
4, 5184, Note_off_c, 0, 66, 64
4, 5184, Note_on_c, 0, 69, 64
4, 5184, Note_on_c, 0, 64, 64
4, 5208, Note_off_c, 0, 64, 64
4, 5208, Note_off_c, 0, 69, 64
4, 5208, Note_on_c, 0, 69, 64
4, 5208, Note_on_c, 0, 64, 64
4, 5232, Note_off_c, 0, 64, 64
4, 5232, Note_off_c, 0, 69, 64
4, 5232, Note_on_c, 0, 64, 64
4, 5232, Note_on_c, 0, 69, 64
4, 5256, Note_off_c, 0, 69, 64
4, 5256, Note_off_c, 0, 64, 64
4, 5256, Note_on_c, 0, 66, 64
4, 5256, Note_on_c, 0, 71, 64
4, 5280, Note_off_c, 0, 71, 64
4, 5280, Note_off_c, 0, 66, 64
4, 5280, Note_on_c, 0, 66, 64
4, 5280, Note_on_c, 0, 71, 64
4, 5304, Note_off_c, 0, 66, 64
4, 5304, Note_off_c, 0, 71, 64
4, 5304, Note_on_c, 0, 66, 64
4, 5304, Note_on_c, 0, 71, 64
4, 5328, Note_off_c, 0, 71, 64
4, 5328, Note_off_c, 0, 66, 64
4, 5328, Note_on_c, 0, 69, 64
4, 5328, Note_on_c, 0, 64, 64
4, 5352, Note_off_c, 0, 64, 64
4, 5352, Note_off_c, 0, 69, 64
4, 5352, Note_on_c, 0, 64, 64
4, 5352, Note_on_c, 0, 69, 64
4, 5376, Note_off_c, 0, 69, 64
4, 5376, Note_off_c, 0, 64, 64
4, 5376, Note_on_c, 0, 69, 64
4, 5376, Note_on_c, 0, 76, 64
4, 5400, Note_off_c, 0, 69, 64
4, 5400, Note_off_c, 0, 76, 64
4, 5400, Note_on_c, 0, 69, 64
4, 5400, Note_on_c, 0, 76, 64
4, 5424, Note_off_c, 0, 76, 64
4, 5424, Note_off_c, 0, 69, 64
4, 5424, Note_on_c, 0, 69, 64
4, 5424, Note_on_c, 0, 76, 64
4, 5448, Note_off_c, 0, 76, 64
4, 5448, Note_off_c, 0, 69, 64
4, 5448, Note_on_c, 0, 69, 64
4, 5448, Note_on_c, 0, 76, 64
4, 5472, Note_off_c, 0, 76, 64
4, 5472, Note_off_c, 0, 69, 64
4, 5472, Note_on_c, 0, 66, 64
4, 5472, Note_on_c, 0, 71, 64
4, 5496, Note_off_c, 0, 66, 64
4, 5496, Note_off_c, 0, 71, 64
4, 5496, Note_on_c, 0, 66, 64
4, 5496, Note_on_c, 0, 71, 64
4, 5520, Note_off_c, 0, 71, 64
4, 5520, Note_off_c, 0, 66, 64
4, 5520, Note_on_c, 0, 66, 64
4, 5520, Note_on_c, 0, 71, 64
4, 5544, Note_off_c, 0, 71, 64
4, 5544, Note_off_c, 0, 66, 64
4, 5544, Note_on_c, 0, 71, 64
4, 5544, Note_on_c, 0, 66, 64
4, 5568, Note_off_c, 0, 66, 64
4, 5568, Note_off_c, 0, 71, 64
4, 5568, Note_on_c, 0, 64, 64
4, 5568, Note_on_c, 0, 69, 64
4, 5592, Note_off_c, 0, 64, 64
4, 5592, Note_off_c, 0, 69, 64
4, 5592, Note_on_c, 0, 64, 64
4, 5592, Note_on_c, 0, 69, 64
4, 5616, Note_off_c, 0, 69, 64
4, 5616, Note_off_c, 0, 64, 64
4, 5616, Note_on_c, 0, 64, 64
4, 5616, Note_on_c, 0, 69, 64
4, 5640, Note_off_c, 0, 69, 64
4, 5640, Note_off_c, 0, 64, 64
4, 5640, Note_on_c, 0, 64, 64
4, 5640, Note_on_c, 0, 69, 64
4, 5664, Note_off_c, 0, 69, 64
4, 5664, Note_off_c, 0, 64, 64
4, 5664, Note_on_c, 0, 66, 64
4, 5664, Note_on_c, 0, 71, 64
4, 5688, Note_off_c, 0, 66, 64
4, 5688, Note_off_c, 0, 71, 64
4, 5688, Note_on_c, 0, 66, 64
4, 5688, Note_on_c, 0, 71, 64
4, 5712, Note_off_c, 0, 71, 64
4, 5712, Note_off_c, 0, 66, 64
4, 5712, Note_on_c, 0, 66, 64
4, 5712, Note_on_c, 0, 71, 64
4, 5736, Note_off_c, 0, 71, 64
4, 5736, Note_off_c, 0, 66, 64
4, 5736, Note_on_c, 0, 66, 64
4, 5736, Note_on_c, 0, 71, 64
4, 5760, Note_off_c, 0, 71, 64
4, 5760, Note_off_c, 0, 66, 64
4, 5760, Note_on_c, 0, 69, 64
4, 5760, Note_on_c, 0, 76, 64
4, 5784, Note_off_c, 0, 69, 64
4, 5784, Note_off_c, 0, 76, 64
4, 5784, Note_on_c, 0, 69, 64
4, 5784, Note_on_c, 0, 76, 64
4, 5808, Note_off_c, 0, 76, 64
4, 5808, Note_off_c, 0, 69, 64
4, 5808, Note_on_c, 0, 69, 64
4, 5808, Note_on_c, 0, 76, 64
4, 5832, Note_off_c, 0, 76, 64
4, 5832, Note_off_c, 0, 69, 64
4, 5832, Note_on_c, 0, 69, 64
4, 5832, Note_on_c, 0, 76, 64
4, 5856, Note_off_c, 0, 76, 64
4, 5856, Note_off_c, 0, 69, 64
4, 5856, Note_on_c, 0, 66, 64
4, 5856, Note_on_c, 0, 71, 64
4, 5880, Note_off_c, 0, 66, 64
4, 5880, Note_off_c, 0, 71, 64
4, 5880, Note_on_c, 0, 66, 64
4, 5880, Note_on_c, 0, 71, 64
4, 5904, Note_off_c, 0, 71, 64
4, 5904, Note_off_c, 0, 66, 64
4, 5904, Note_on_c, 0, 66, 64
4, 5904, Note_on_c, 0, 71, 64
4, 5928, Note_off_c, 0, 71, 64
4, 5928, Note_off_c, 0, 66, 64
4, 5928, Note_on_c, 0, 66, 64
4, 5928, Note_on_c, 0, 71, 64
4, 5952, Note_off_c, 0, 71, 64
4, 5952, Note_off_c, 0, 66, 64
4, 5952, Note_on_c, 0, 64, 64
4, 5952, Note_on_c, 0, 69, 64
4, 5976, Note_off_c, 0, 69, 64
4, 5976, Note_off_c, 0, 64, 64
4, 5976, Note_on_c, 0, 64, 64
4, 5976, Note_on_c, 0, 69, 64
4, 6000, Note_off_c, 0, 69, 64
4, 6000, Note_off_c, 0, 64, 64
4, 6000, Note_on_c, 0, 69, 64
4, 6000, Note_on_c, 0, 64, 64
4, 6024, Note_off_c, 0, 64, 64
4, 6024, Note_off_c, 0, 69, 64
4, 6024, Note_on_c, 0, 66, 64
4, 6024, Note_on_c, 0, 71, 64
4, 6048, Note_off_c, 0, 71, 64
4, 6048, Note_off_c, 0, 66, 64
4, 6048, Note_on_c, 0, 66, 64
4, 6048, Note_on_c, 0, 71, 64
4, 6072, Note_off_c, 0, 66, 64
4, 6072, Note_off_c, 0, 71, 64
4, 6072, Note_on_c, 0, 66, 64
4, 6072, Note_on_c, 0, 71, 64
4, 6096, Note_off_c, 0, 71, 64
4, 6096, Note_off_c, 0, 66, 64
4, 6096, Note_on_c, 0, 64, 64
4, 6096, Note_on_c, 0, 69, 64
4, 6120, Note_off_c, 0, 69, 64
4, 6120, Note_off_c, 0, 64, 64
4, 6120, Note_on_c, 0, 64, 64
4, 6120, Note_on_c, 0, 69, 64
4, 6144, Note_off_c, 0, 69, 64
4, 6144, Note_off_c, 0, 64, 64
4, 6144, Note_on_c, 0, 76, 64
4, 6144, Note_on_c, 0, 69, 64
4, 6168, Note_off_c, 0, 76, 64
4, 6168, Note_off_c, 0, 69, 64
4, 6168, Note_on_c, 0, 69, 64
4, 6168, Note_on_c, 0, 76, 64
4, 6192, Note_off_c, 0, 76, 64
4, 6192, Note_off_c, 0, 69, 64
4, 6192, Note_on_c, 0, 69, 64
4, 6192, Note_on_c, 0, 76, 64
4, 6216, Note_off_c, 0, 76, 64
4, 6216, Note_off_c, 0, 69, 64
4, 6216, Note_on_c, 0, 69, 64
4, 6216, Note_on_c, 0, 76, 64
4, 6240, Note_off_c, 0, 76, 64
4, 6240, Note_off_c, 0, 69, 64
4, 6240, Note_on_c, 0, 66, 64
4, 6240, Note_on_c, 0, 71, 64
4, 6264, Note_off_c, 0, 66, 64
4, 6264, Note_off_c, 0, 71, 64
4, 6264, Note_on_c, 0, 66, 64
4, 6264, Note_on_c, 0, 71, 64
4, 6288, Note_off_c, 0, 71, 64
4, 6288, Note_off_c, 0, 66, 64
4, 6288, Note_on_c, 0, 66, 64
4, 6288, Note_on_c, 0, 71, 64
4, 6312, Note_off_c, 0, 71, 64
4, 6312, Note_off_c, 0, 66, 64
4, 6312, Note_on_c, 0, 66, 64
4, 6312, Note_on_c, 0, 71, 64
4, 6336, Note_off_c, 0, 71, 64
4, 6336, Note_off_c, 0, 66, 64
4, 6336, Note_on_c, 0, 64, 64
4, 6336, Note_on_c, 0, 69, 64
4, 6360, Note_off_c, 0, 69, 64
4, 6360, Note_off_c, 0, 64, 64
4, 6360, Note_on_c, 0, 69, 64
4, 6360, Note_on_c, 0, 64, 64
4, 6384, Note_off_c, 0, 64, 64
4, 6384, Note_off_c, 0, 69, 64
4, 6384, Note_on_c, 0, 69, 64
4, 6384, Note_on_c, 0, 64, 64
4, 6408, Note_off_c, 0, 64, 64
4, 6408, Note_off_c, 0, 69, 64
4, 6408, Note_on_c, 0, 69, 64
4, 6408, Note_on_c, 0, 64, 64
4, 6432, Note_off_c, 0, 64, 64
4, 6432, Note_off_c, 0, 69, 64
4, 6432, Note_on_c, 0, 71, 64
4, 6432, Note_on_c, 0, 66, 64
4, 6456, Note_off_c, 0, 71, 64
4, 6456, Note_off_c, 0, 66, 64
4, 6456, Note_on_c, 0, 71, 64
4, 6456, Note_on_c, 0, 66, 64
4, 6480, Note_off_c, 0, 66, 64
4, 6480, Note_off_c, 0, 71, 64
4, 6480, Note_on_c, 0, 71, 64
4, 6480, Note_on_c, 0, 66, 64
4, 6504, Note_off_c, 0, 66, 64
4, 6504, Note_off_c, 0, 71, 64
4, 6504, Note_on_c, 0, 71, 64
4, 6504, Note_on_c, 0, 66, 64
4, 6528, Note_off_c, 0, 66, 64
4, 6528, Note_off_c, 0, 71, 64
4, 6528, Note_on_c, 0, 69, 64
4, 6528, Note_on_c, 0, 76, 64
4, 6552, Note_off_c, 0, 69, 64
4, 6552, Note_off_c, 0, 76, 64
4, 6552, Note_on_c, 0, 69, 64
4, 6552, Note_on_c, 0, 76, 64
4, 6576, Note_off_c, 0, 76, 64
4, 6576, Note_off_c, 0, 69, 64
4, 6576, Note_on_c, 0, 69, 64
4, 6576, Note_on_c, 0, 76, 64
4, 6600, Note_off_c, 0, 76, 64
4, 6600, Note_off_c, 0, 69, 64
4, 6600, Note_on_c, 0, 69, 64
4, 6600, Note_on_c, 0, 76, 64
4, 6624, Note_off_c, 0, 76, 64
4, 6624, Note_off_c, 0, 69, 64
4, 6624, Note_on_c, 0, 66, 64
4, 6624, Note_on_c, 0, 71, 64
4, 6648, Note_off_c, 0, 66, 64
4, 6648, Note_off_c, 0, 71, 64
4, 6648, Note_on_c, 0, 66, 64
4, 6648, Note_on_c, 0, 71, 64
4, 6672, Note_off_c, 0, 71, 64
4, 6672, Note_off_c, 0, 66, 64
4, 6672, Note_on_c, 0, 66, 64
4, 6672, Note_on_c, 0, 71, 64
4, 6696, Note_off_c, 0, 71, 64
4, 6696, Note_off_c, 0, 66, 64
4, 6696, Note_on_c, 0, 66, 64
4, 6696, Note_on_c, 0, 71, 64
4, 6720, Note_off_c, 0, 71, 64
4, 6720, Note_off_c, 0, 66, 64
4, 6720, Note_on_c, 0, 69, 64
4, 6720, Note_on_c, 0, 64, 64
4, 6744, Note_off_c, 0, 64, 64
4, 6744, Note_off_c, 0, 69, 64
4, 6744, Note_on_c, 0, 69, 64
4, 6744, Note_on_c, 0, 64, 64
4, 6768, Note_off_c, 0, 64, 64
4, 6768, Note_off_c, 0, 69, 64
4, 6768, Note_on_c, 0, 64, 64
4, 6768, Note_on_c, 0, 69, 64
4, 6792, Note_off_c, 0, 69, 64
4, 6792, Note_off_c, 0, 64, 64
4, 6792, Note_on_c, 0, 66, 64
4, 6792, Note_on_c, 0, 71, 64
4, 6816, Note_off_c, 0, 71, 64
4, 6816, Note_off_c, 0, 66, 64
4, 6816, Note_on_c, 0, 66, 64
4, 6816, Note_on_c, 0, 71, 64
4, 6840, Note_off_c, 0, 66, 64
4, 6840, Note_off_c, 0, 71, 64
4, 6840, Note_on_c, 0, 66, 64
4, 6840, Note_on_c, 0, 71, 64
4, 6864, Note_off_c, 0, 71, 64
4, 6864, Note_off_c, 0, 66, 64
4, 6864, Note_on_c, 0, 69, 64
4, 6864, Note_on_c, 0, 64, 64
4, 6888, Note_off_c, 0, 64, 64
4, 6888, Note_off_c, 0, 69, 64
4, 6888, Note_on_c, 0, 64, 64
4, 6888, Note_on_c, 0, 69, 64
4, 6912, Note_off_c, 0, 69, 64
4, 6912, Note_off_c, 0, 64, 64
4, 6912, Note_on_c, 0, 69, 64
4, 6912, Note_on_c, 0, 76, 64
4, 6936, Note_off_c, 0, 69, 64
4, 6936, Note_off_c, 0, 76, 64
4, 6936, Note_on_c, 0, 69, 64
4, 6936, Note_on_c, 0, 76, 64
4, 6960, Note_off_c, 0, 76, 64
4, 6960, Note_off_c, 0, 69, 64
4, 6960, Note_on_c, 0, 69, 64
4, 6960, Note_on_c, 0, 76, 64
4, 6984, Note_off_c, 0, 76, 64
4, 6984, Note_off_c, 0, 69, 64
4, 6984, Note_on_c, 0, 69, 64
4, 6984, Note_on_c, 0, 76, 64
4, 7008, Note_off_c, 0, 76, 64
4, 7008, Note_off_c, 0, 69, 64
4, 7008, Note_on_c, 0, 66, 64
4, 7008, Note_on_c, 0, 71, 64
4, 7032, Note_off_c, 0, 66, 64
4, 7032, Note_off_c, 0, 71, 64
4, 7032, Note_on_c, 0, 66, 64
4, 7032, Note_on_c, 0, 71, 64
4, 7056, Note_off_c, 0, 71, 64
4, 7056, Note_off_c, 0, 66, 64
4, 7056, Note_on_c, 0, 66, 64
4, 7056, Note_on_c, 0, 71, 64
4, 7080, Note_off_c, 0, 71, 64
4, 7080, Note_off_c, 0, 66, 64
4, 7080, Note_on_c, 0, 71, 64
4, 7080, Note_on_c, 0, 66, 64
4, 7104, Note_off_c, 0, 66, 64
4, 7104, Note_off_c, 0, 71, 64
4, 7104, Note_on_c, 0, 64, 64
4, 7104, Note_on_c, 0, 69, 64
4, 7128, Note_off_c, 0, 69, 64
4, 7128, Note_off_c, 0, 64, 64
4, 7128, Note_on_c, 0, 64, 64
4, 7128, Note_on_c, 0, 69, 64
4, 7152, Note_off_c, 0, 69, 64
4, 7152, Note_off_c, 0, 64, 64
4, 7152, Note_on_c, 0, 64, 64
4, 7152, Note_on_c, 0, 69, 64
4, 7176, Note_off_c, 0, 69, 64
4, 7176, Note_off_c, 0, 64, 64
4, 7176, Note_on_c, 0, 64, 64
4, 7176, Note_on_c, 0, 69, 64
4, 7200, Note_off_c, 0, 69, 64
4, 7200, Note_off_c, 0, 64, 64
4, 7200, Note_on_c, 0, 66, 64
4, 7200, Note_on_c, 0, 71, 64
4, 7224, Note_off_c, 0, 66, 64
4, 7224, Note_off_c, 0, 71, 64
4, 7224, Note_on_c, 0, 66, 64
4, 7224, Note_on_c, 0, 71, 64
4, 7248, Note_off_c, 0, 71, 64
4, 7248, Note_off_c, 0, 66, 64
4, 7248, Note_on_c, 0, 66, 64
4, 7248, Note_on_c, 0, 71, 64
4, 7272, Note_off_c, 0, 71, 64
4, 7272, Note_off_c, 0, 66, 64
4, 7272, Note_on_c, 0, 66, 64
4, 7272, Note_on_c, 0, 71, 64
4, 7296, Note_off_c, 0, 71, 64
4, 7296, Note_off_c, 0, 66, 64
4, 7296, Note_on_c, 0, 69, 64
4, 7296, Note_on_c, 0, 76, 64
4, 7320, Note_off_c, 0, 69, 64
4, 7320, Note_off_c, 0, 76, 64
4, 7320, Note_on_c, 0, 69, 64
4, 7320, Note_on_c, 0, 76, 64
4, 7344, Note_off_c, 0, 76, 64
4, 7344, Note_off_c, 0, 69, 64
4, 7344, Note_on_c, 0, 69, 64
4, 7344, Note_on_c, 0, 76, 64
4, 7368, Note_off_c, 0, 76, 64
4, 7368, Note_off_c, 0, 69, 64
4, 7368, Note_on_c, 0, 69, 64
4, 7368, Note_on_c, 0, 76, 64
4, 7392, Note_off_c, 0, 76, 64
4, 7392, Note_off_c, 0, 69, 64
4, 7392, Note_on_c, 0, 66, 64
4, 7392, Note_on_c, 0, 71, 64
4, 7416, Note_off_c, 0, 66, 64
4, 7416, Note_off_c, 0, 71, 64
4, 7416, Note_on_c, 0, 66, 64
4, 7416, Note_on_c, 0, 71, 64
4, 7440, Note_off_c, 0, 71, 64
4, 7440, Note_off_c, 0, 66, 64
4, 7440, Note_on_c, 0, 66, 64
4, 7440, Note_on_c, 0, 71, 64
4, 7464, Note_off_c, 0, 71, 64
4, 7464, Note_off_c, 0, 66, 64
4, 7464, Note_on_c, 0, 66, 64
4, 7464, Note_on_c, 0, 71, 64
4, 7488, Note_off_c, 0, 71, 64
4, 7488, Note_off_c, 0, 66, 64
4, 7488, Note_on_c, 0, 64, 64
4, 7488, Note_on_c, 0, 69, 64
4, 7512, Note_off_c, 0, 69, 64
4, 7512, Note_off_c, 0, 64, 64
4, 7512, Note_on_c, 0, 64, 64
4, 7512, Note_on_c, 0, 69, 64
4, 7536, Note_off_c, 0, 69, 64
4, 7536, Note_off_c, 0, 64, 64
4, 7536, Note_on_c, 0, 69, 64
4, 7536, Note_on_c, 0, 64, 64
4, 7560, Note_off_c, 0, 64, 64
4, 7560, Note_off_c, 0, 69, 64
4, 7560, Note_on_c, 0, 66, 64
4, 7560, Note_on_c, 0, 71, 64
4, 7584, Note_off_c, 0, 71, 64
4, 7584, Note_off_c, 0, 66, 64
4, 7584, Note_on_c, 0, 66, 64
4, 7584, Note_on_c, 0, 71, 64
4, 7608, Note_off_c, 0, 66, 64
4, 7608, Note_off_c, 0, 71, 64
4, 7608, Note_on_c, 0, 66, 64
4, 7608, Note_on_c, 0, 71, 64
4, 7632, Note_off_c, 0, 71, 64
4, 7632, Note_off_c, 0, 66, 64
4, 7632, Note_on_c, 0, 64, 64
4, 7632, Note_on_c, 0, 69, 64
4, 7656, Note_off_c, 0, 69, 64
4, 7656, Note_off_c, 0, 64, 64
4, 7656, Note_on_c, 0, 64, 64
4, 7656, Note_on_c, 0, 69, 64
4, 7680, Note_off_c, 0, 69, 64
4, 7680, Note_off_c, 0, 64, 64
4, 7680, Note_on_c, 0, 76, 64
4, 7680, Note_on_c, 0, 69, 64
4, 7704, Note_off_c, 0, 76, 64
4, 7704, Note_off_c, 0, 69, 64
4, 7704, Note_on_c, 0, 69, 64
4, 7704, Note_on_c, 0, 76, 64
4, 7728, Note_off_c, 0, 76, 64
4, 7728, Note_off_c, 0, 69, 64
4, 7728, Note_on_c, 0, 69, 64
4, 7728, Note_on_c, 0, 76, 64
4, 7752, Note_off_c, 0, 76, 64
4, 7752, Note_off_c, 0, 69, 64
4, 7752, Note_on_c, 0, 69, 64
4, 7752, Note_on_c, 0, 76, 64
4, 7776, Note_off_c, 0, 76, 64
4, 7776, Note_off_c, 0, 69, 64
4, 7776, Note_on_c, 0, 66, 64
4, 7776, Note_on_c, 0, 71, 64
4, 7800, Note_off_c, 0, 66, 64
4, 7800, Note_off_c, 0, 71, 64
4, 7800, Note_on_c, 0, 66, 64
4, 7800, Note_on_c, 0, 71, 64
4, 7824, Note_off_c, 0, 71, 64
4, 7824, Note_off_c, 0, 66, 64
4, 7824, Note_on_c, 0, 66, 64
4, 7824, Note_on_c, 0, 71, 64
4, 7848, Note_off_c, 0, 71, 64
4, 7848, Note_off_c, 0, 66, 64
4, 7848, Note_on_c, 0, 66, 64
4, 7848, Note_on_c, 0, 71, 64
4, 7872, Note_off_c, 0, 71, 64
4, 7872, Note_off_c, 0, 66, 64
4, 7872, Note_on_c, 0, 64, 64
4, 7872, Note_on_c, 0, 69, 64
4, 7896, Note_off_c, 0, 69, 64
4, 7896, Note_off_c, 0, 64, 64
4, 7896, Note_on_c, 0, 69, 64
4, 7896, Note_on_c, 0, 64, 64
4, 7920, Note_off_c, 0, 64, 64
4, 7920, Note_off_c, 0, 69, 64
4, 7920, Note_on_c, 0, 69, 64
4, 7920, Note_on_c, 0, 64, 64
4, 7944, Note_off_c, 0, 64, 64
4, 7944, Note_off_c, 0, 69, 64
4, 7944, Note_on_c, 0, 69, 64
4, 7944, Note_on_c, 0, 64, 64
4, 7968, Note_off_c, 0, 64, 64
4, 7968, Note_off_c, 0, 69, 64
4, 7968, Note_on_c, 0, 71, 64
4, 7968, Note_on_c, 0, 66, 64
4, 7992, Note_off_c, 0, 71, 64
4, 7992, Note_off_c, 0, 66, 64
4, 7992, Note_on_c, 0, 71, 64
4, 7992, Note_on_c, 0, 66, 64
4, 8016, Note_off_c, 0, 66, 64
4, 8016, Note_off_c, 0, 71, 64
4, 8016, Note_on_c, 0, 71, 64
4, 8016, Note_on_c, 0, 66, 64
4, 8040, Note_off_c, 0, 66, 64
4, 8040, Note_off_c, 0, 71, 64
4, 8040, Note_on_c, 0, 71, 64
4, 8040, Note_on_c, 0, 66, 64
4, 8064, Note_off_c, 0, 66, 64
4, 8064, Note_off_c, 0, 71, 64
4, 8064, Note_on_c, 0, 69, 64
4, 8064, Note_on_c, 0, 76, 64
4, 8088, Note_off_c, 0, 69, 64
4, 8088, Note_off_c, 0, 76, 64
4, 8088, Note_on_c, 0, 69, 64
4, 8088, Note_on_c, 0, 76, 64
4, 8112, Note_off_c, 0, 76, 64
4, 8112, Note_off_c, 0, 69, 64
4, 8112, Note_on_c, 0, 69, 64
4, 8112, Note_on_c, 0, 76, 64
4, 8136, Note_off_c, 0, 76, 64
4, 8136, Note_off_c, 0, 69, 64
4, 8136, Note_on_c, 0, 69, 64
4, 8136, Note_on_c, 0, 76, 64
4, 8160, Note_off_c, 0, 76, 64
4, 8160, Note_off_c, 0, 69, 64
4, 8160, Note_on_c, 0, 66, 64
4, 8160, Note_on_c, 0, 71, 64
4, 8184, Note_off_c, 0, 66, 64
4, 8184, Note_off_c, 0, 71, 64
4, 8184, Note_on_c, 0, 66, 64
4, 8184, Note_on_c, 0, 71, 64
4, 8208, Note_off_c, 0, 71, 64
4, 8208, Note_off_c, 0, 66, 64
4, 8208, Note_on_c, 0, 66, 64
4, 8208, Note_on_c, 0, 71, 64
4, 8232, Note_off_c, 0, 71, 64
4, 8232, Note_off_c, 0, 66, 64
4, 8232, Note_on_c, 0, 66, 64
4, 8232, Note_on_c, 0, 71, 64
4, 8256, Note_off_c, 0, 71, 64
4, 8256, Note_off_c, 0, 66, 64
4, 8256, Note_on_c, 0, 69, 64
4, 8256, Note_on_c, 0, 64, 64
4, 8280, Note_off_c, 0, 64, 64
4, 8280, Note_off_c, 0, 69, 64
4, 8280, Note_on_c, 0, 69, 64
4, 8280, Note_on_c, 0, 64, 64
4, 8304, Note_off_c, 0, 64, 64
4, 8304, Note_off_c, 0, 69, 64
4, 8304, Note_on_c, 0, 64, 64
4, 8304, Note_on_c, 0, 69, 64
4, 8328, Note_off_c, 0, 69, 64
4, 8328, Note_off_c, 0, 64, 64
4, 8328, Note_on_c, 0, 66, 64
4, 8328, Note_on_c, 0, 71, 64
4, 8352, Note_off_c, 0, 71, 64
4, 8352, Note_off_c, 0, 66, 64
4, 8352, Note_on_c, 0, 66, 64
4, 8352, Note_on_c, 0, 71, 64
4, 8376, Note_off_c, 0, 66, 64
4, 8376, Note_off_c, 0, 71, 64
4, 8376, Note_on_c, 0, 66, 64
4, 8376, Note_on_c, 0, 71, 64
4, 8400, Note_off_c, 0, 71, 64
4, 8400, Note_off_c, 0, 66, 64
4, 8400, Note_on_c, 0, 69, 64
4, 8400, Note_on_c, 0, 64, 64
4, 8424, Note_off_c, 0, 64, 64
4, 8424, Note_off_c, 0, 69, 64
4, 8424, Note_on_c, 0, 64, 64
4, 8424, Note_on_c, 0, 69, 64
4, 8448, Note_off_c, 0, 69, 64
4, 8448, Note_off_c, 0, 64, 64
4, 8448, Note_on_c, 0, 69, 64
4, 8448, Note_on_c, 0, 76, 64
4, 8472, Note_off_c, 0, 69, 64
4, 8472, Note_off_c, 0, 76, 64
4, 8472, Note_on_c, 0, 69, 64
4, 8472, Note_on_c, 0, 76, 64
4, 8496, Note_off_c, 0, 76, 64
4, 8496, Note_off_c, 0, 69, 64
4, 8496, Note_on_c, 0, 69, 64
4, 8496, Note_on_c, 0, 76, 64
4, 8520, Note_off_c, 0, 76, 64
4, 8520, Note_off_c, 0, 69, 64
4, 8520, Note_on_c, 0, 69, 64
4, 8520, Note_on_c, 0, 76, 64
4, 8544, Note_off_c, 0, 76, 64
4, 8544, Note_off_c, 0, 69, 64
4, 8544, Note_on_c, 0, 66, 64
4, 8544, Note_on_c, 0, 71, 64
4, 8568, Note_off_c, 0, 66, 64
4, 8568, Note_off_c, 0, 71, 64
4, 8568, Note_on_c, 0, 66, 64
4, 8568, Note_on_c, 0, 71, 64
4, 8592, Note_off_c, 0, 71, 64
4, 8592, Note_off_c, 0, 66, 64
4, 8592, Note_on_c, 0, 66, 64
4, 8592, Note_on_c, 0, 71, 64
4, 8616, Note_off_c, 0, 71, 64
4, 8616, Note_off_c, 0, 66, 64
4, 8616, Note_on_c, 0, 71, 64
4, 8616, Note_on_c, 0, 66, 64
4, 8640, Note_off_c, 0, 66, 64
4, 8640, Note_off_c, 0, 71, 64
4, 8640, Note_on_c, 0, 64, 64
4, 8640, Note_on_c, 0, 69, 64
4, 8664, Note_off_c, 0, 69, 64
4, 8664, Note_off_c, 0, 64, 64
4, 8664, Note_on_c, 0, 64, 64
4, 8664, Note_on_c, 0, 69, 64
4, 8688, Note_off_c, 0, 69, 64
4, 8688, Note_off_c, 0, 64, 64
4, 8688, Note_on_c, 0, 64, 64
4, 8688, Note_on_c, 0, 69, 64
4, 8712, Note_off_c, 0, 69, 64
4, 8712, Note_off_c, 0, 64, 64
4, 8712, Note_on_c, 0, 64, 64
4, 8712, Note_on_c, 0, 69, 64
4, 8736, Note_off_c, 0, 69, 64
4, 8736, Note_off_c, 0, 64, 64
4, 8736, Note_on_c, 0, 66, 64
4, 8736, Note_on_c, 0, 71, 64
4, 8760, Note_off_c, 0, 66, 64
4, 8760, Note_off_c, 0, 71, 64
4, 8760, Note_on_c, 0, 66, 64
4, 8760, Note_on_c, 0, 71, 64
4, 8784, Note_off_c, 0, 71, 64
4, 8784, Note_off_c, 0, 66, 64
4, 8784, Note_on_c, 0, 66, 64
4, 8784, Note_on_c, 0, 71, 64
4, 8808, Note_off_c, 0, 71, 64
4, 8808, Note_off_c, 0, 66, 64
4, 8808, Note_on_c, 0, 66, 64
4, 8808, Note_on_c, 0, 71, 64
4, 8832, Note_off_c, 0, 71, 64
4, 8832, Note_off_c, 0, 66, 64
4, 8832, Note_on_c, 0, 69, 64
4, 8832, Note_on_c, 0, 76, 64
4, 8856, Note_off_c, 0, 69, 64
4, 8856, Note_off_c, 0, 76, 64
4, 8856, Note_on_c, 0, 69, 64
4, 8856, Note_on_c, 0, 76, 64
4, 8880, Note_off_c, 0, 76, 64
4, 8880, Note_off_c, 0, 69, 64
4, 8880, Note_on_c, 0, 69, 64
4, 8880, Note_on_c, 0, 76, 64
4, 8904, Note_off_c, 0, 76, 64
4, 8904, Note_off_c, 0, 69, 64
4, 8904, Note_on_c, 0, 69, 64
4, 8904, Note_on_c, 0, 76, 64
4, 8928, Note_off_c, 0, 76, 64
4, 8928, Note_off_c, 0, 69, 64
4, 8928, Note_on_c, 0, 66, 64
4, 8928, Note_on_c, 0, 71, 64
4, 8952, Note_off_c, 0, 66, 64
4, 8952, Note_off_c, 0, 71, 64
4, 8952, Note_on_c, 0, 66, 64
4, 8952, Note_on_c, 0, 71, 64
4, 8976, Note_off_c, 0, 71, 64
4, 8976, Note_off_c, 0, 66, 64
4, 8976, Note_on_c, 0, 66, 64
4, 8976, Note_on_c, 0, 71, 64
4, 9000, Note_off_c, 0, 71, 64
4, 9000, Note_off_c, 0, 66, 64
4, 9000, Note_on_c, 0, 66, 64
4, 9000, Note_on_c, 0, 71, 64
4, 9024, Note_off_c, 0, 71, 64
4, 9024, Note_off_c, 0, 66, 64
4, 9024, Note_on_c, 0, 64, 64
4, 9024, Note_on_c, 0, 69, 64
4, 9048, Note_off_c, 0, 69, 64
4, 9048, Note_off_c, 0, 64, 64
4, 9048, Note_on_c, 0, 64, 64
4, 9048, Note_on_c, 0, 69, 64
4, 9072, Note_off_c, 0, 69, 64
4, 9072, Note_off_c, 0, 64, 64
4, 9072, Note_on_c, 0, 69, 64
4, 9072, Note_on_c, 0, 64, 64
4, 9096, Note_off_c, 0, 64, 64
4, 9096, Note_off_c, 0, 69, 64
4, 9096, Note_on_c, 0, 66, 64
4, 9096, Note_on_c, 0, 71, 64
4, 9120, Note_off_c, 0, 71, 64
4, 9120, Note_off_c, 0, 66, 64
4, 9120, Note_on_c, 0, 66, 64
4, 9120, Note_on_c, 0, 71, 64
4, 9144, Note_off_c, 0, 66, 64
4, 9144, Note_off_c, 0, 71, 64
4, 9144, Note_on_c, 0, 66, 64
4, 9144, Note_on_c, 0, 71, 64
4, 9168, Note_off_c, 0, 71, 64
4, 9168, Note_off_c, 0, 66, 64
4, 9168, Note_on_c, 0, 64, 64
4, 9168, Note_on_c, 0, 69, 64
4, 9192, Note_off_c, 0, 69, 64
4, 9192, Note_off_c, 0, 64, 64
4, 9192, Note_on_c, 0, 64, 64
4, 9192, Note_on_c, 0, 69, 64
4, 9216, Note_off_c, 0, 69, 64
4, 9216, Note_off_c, 0, 64, 64
4, 9216, Note_on_c, 0, 76, 64
4, 9216, Note_on_c, 0, 69, 64
4, 9240, Note_off_c, 0, 76, 64
4, 9240, Note_off_c, 0, 69, 64
4, 9240, Note_on_c, 0, 69, 64
4, 9240, Note_on_c, 0, 76, 64
4, 9264, Note_off_c, 0, 76, 64
4, 9264, Note_off_c, 0, 69, 64
4, 9264, Note_on_c, 0, 69, 64
4, 9264, Note_on_c, 0, 76, 64
4, 9288, Note_off_c, 0, 76, 64
4, 9288, Note_off_c, 0, 69, 64
4, 9288, Note_on_c, 0, 69, 64
4, 9288, Note_on_c, 0, 76, 64
4, 9312, Note_off_c, 0, 76, 64
4, 9312, Note_off_c, 0, 69, 64
4, 9312, Note_on_c, 0, 66, 64
4, 9312, Note_on_c, 0, 71, 64
4, 9336, Note_off_c, 0, 66, 64
4, 9336, Note_off_c, 0, 71, 64
4, 9336, Note_on_c, 0, 66, 64
4, 9336, Note_on_c, 0, 71, 64
4, 9360, Note_off_c, 0, 71, 64
4, 9360, Note_off_c, 0, 66, 64
4, 9360, Note_on_c, 0, 66, 64
4, 9360, Note_on_c, 0, 71, 64
4, 9384, Note_off_c, 0, 71, 64
4, 9384, Note_off_c, 0, 66, 64
4, 9384, Note_on_c, 0, 66, 64
4, 9384, Note_on_c, 0, 71, 64
4, 9408, Note_off_c, 0, 71, 64
4, 9408, Note_off_c, 0, 66, 64
4, 9408, Note_on_c, 0, 64, 64
4, 9408, Note_on_c, 0, 69, 64
4, 9432, Note_off_c, 0, 69, 64
4, 9432, Note_off_c, 0, 64, 64
4, 9432, Note_on_c, 0, 69, 64
4, 9432, Note_on_c, 0, 64, 64
4, 9456, Note_off_c, 0, 64, 64
4, 9456, Note_off_c, 0, 69, 64
4, 9456, Note_on_c, 0, 69, 64
4, 9456, Note_on_c, 0, 64, 64
4, 9480, Note_off_c, 0, 64, 64
4, 9480, Note_off_c, 0, 69, 64
4, 9480, Note_on_c, 0, 69, 64
4, 9480, Note_on_c, 0, 64, 64
4, 9504, Note_off_c, 0, 64, 64
4, 9504, Note_off_c, 0, 69, 64
4, 9504, Note_on_c, 0, 71, 64
4, 9504, Note_on_c, 0, 66, 64
4, 9528, Note_off_c, 0, 71, 64
4, 9528, Note_off_c, 0, 66, 64
4, 9528, Note_on_c, 0, 71, 64
4, 9528, Note_on_c, 0, 66, 64
4, 9552, Note_off_c, 0, 66, 64
4, 9552, Note_off_c, 0, 71, 64
4, 9552, Note_on_c, 0, 71, 64
4, 9552, Note_on_c, 0, 66, 64
4, 9576, Note_off_c, 0, 66, 64
4, 9576, Note_off_c, 0, 71, 64
4, 9576, Note_on_c, 0, 71, 64
4, 9576, Note_on_c, 0, 66, 64
4, 9600, Note_off_c, 0, 66, 64
4, 9600, Note_off_c, 0, 71, 64
4, 9600, Note_on_c, 0, 69, 64
4, 9600, Note_on_c, 0, 76, 64
4, 9624, Note_off_c, 0, 69, 64
4, 9624, Note_off_c, 0, 76, 64
4, 9624, Note_on_c, 0, 69, 64
4, 9624, Note_on_c, 0, 76, 64
4, 9648, Note_off_c, 0, 76, 64
4, 9648, Note_off_c, 0, 69, 64
4, 9648, Note_on_c, 0, 69, 64
4, 9648, Note_on_c, 0, 76, 64
4, 9672, Note_off_c, 0, 76, 64
4, 9672, Note_off_c, 0, 69, 64
4, 9672, Note_on_c, 0, 69, 64
4, 9672, Note_on_c, 0, 76, 64
4, 9696, Note_off_c, 0, 76, 64
4, 9696, Note_off_c, 0, 69, 64
4, 9696, Note_on_c, 0, 66, 64
4, 9696, Note_on_c, 0, 71, 64
4, 9720, Note_off_c, 0, 66, 64
4, 9720, Note_off_c, 0, 71, 64
4, 9720, Note_on_c, 0, 66, 64
4, 9720, Note_on_c, 0, 71, 64
4, 9744, Note_off_c, 0, 71, 64
4, 9744, Note_off_c, 0, 66, 64
4, 9744, Note_on_c, 0, 66, 64
4, 9744, Note_on_c, 0, 71, 64
4, 9768, Note_off_c, 0, 71, 64
4, 9768, Note_off_c, 0, 66, 64
4, 9768, Note_on_c, 0, 66, 64
4, 9768, Note_on_c, 0, 71, 64
4, 9792, Note_off_c, 0, 71, 64
4, 9792, Note_off_c, 0, 66, 64
4, 9792, Note_on_c, 0, 69, 64
4, 9792, Note_on_c, 0, 64, 64
4, 9816, Note_off_c, 0, 64, 64
4, 9816, Note_off_c, 0, 69, 64
4, 9816, Note_on_c, 0, 69, 64
4, 9816, Note_on_c, 0, 64, 64
4, 9840, Note_off_c, 0, 64, 64
4, 9840, Note_off_c, 0, 69, 64
4, 9840, Note_on_c, 0, 64, 64
4, 9840, Note_on_c, 0, 69, 64
4, 9864, Note_off_c, 0, 69, 64
4, 9864, Note_off_c, 0, 64, 64
4, 9864, Note_on_c, 0, 66, 64
4, 9864, Note_on_c, 0, 71, 64
4, 9888, Note_off_c, 0, 71, 64
4, 9888, Note_off_c, 0, 66, 64
4, 9888, Note_on_c, 0, 66, 64
4, 9888, Note_on_c, 0, 71, 64
4, 9912, Note_off_c, 0, 66, 64
4, 9912, Note_off_c, 0, 71, 64
4, 9912, Note_on_c, 0, 66, 64
4, 9912, Note_on_c, 0, 71, 64
4, 9936, Note_off_c, 0, 71, 64
4, 9936, Note_off_c, 0, 66, 64
4, 9936, Note_on_c, 0, 69, 64
4, 9936, Note_on_c, 0, 64, 64
4, 9960, Note_off_c, 0, 64, 64
4, 9960, Note_off_c, 0, 69, 64
4, 9960, Note_on_c, 0, 64, 64
4, 9960, Note_on_c, 0, 69, 64
4, 9984, Note_off_c, 0, 69, 64
4, 9984, Note_off_c, 0, 64, 64
4, 9984, Note_on_c, 0, 69, 64
4, 9984, Note_on_c, 0, 76, 64
4, 10008, Note_off_c, 0, 69, 64
4, 10008, Note_off_c, 0, 76, 64
4, 10008, Note_on_c, 0, 69, 64
4, 10008, Note_on_c, 0, 76, 64
4, 10032, Note_off_c, 0, 76, 64
4, 10032, Note_off_c, 0, 69, 64
4, 10032, Note_on_c, 0, 69, 64
4, 10032, Note_on_c, 0, 76, 64
4, 10056, Note_off_c, 0, 76, 64
4, 10056, Note_off_c, 0, 69, 64
4, 10056, Note_on_c, 0, 69, 64
4, 10056, Note_on_c, 0, 76, 64
4, 10080, Note_off_c, 0, 76, 64
4, 10080, Note_off_c, 0, 69, 64
4, 10080, Note_on_c, 0, 66, 64
4, 10080, Note_on_c, 0, 71, 64
4, 10104, Note_off_c, 0, 66, 64
4, 10104, Note_off_c, 0, 71, 64
4, 10104, Note_on_c, 0, 66, 64
4, 10104, Note_on_c, 0, 71, 64
4, 10128, Note_off_c, 0, 71, 64
4, 10128, Note_off_c, 0, 66, 64
4, 10128, Note_on_c, 0, 66, 64
4, 10128, Note_on_c, 0, 71, 64
4, 10152, Note_off_c, 0, 71, 64
4, 10152, Note_off_c, 0, 66, 64
4, 10152, Note_on_c, 0, 71, 64
4, 10152, Note_on_c, 0, 66, 64
4, 10176, Note_off_c, 0, 66, 64
4, 10176, Note_off_c, 0, 71, 64
4, 10176, Note_on_c, 0, 64, 64
4, 10176, Note_on_c, 0, 69, 64
4, 10200, Note_off_c, 0, 69, 64
4, 10200, Note_off_c, 0, 64, 64
4, 10200, Note_on_c, 0, 64, 64
4, 10200, Note_on_c, 0, 69, 64
4, 10224, Note_off_c, 0, 69, 64
4, 10224, Note_off_c, 0, 64, 64
4, 10224, Note_on_c, 0, 64, 64
4, 10224, Note_on_c, 0, 69, 64
4, 10248, Note_off_c, 0, 69, 64
4, 10248, Note_off_c, 0, 64, 64
4, 10248, Note_on_c, 0, 64, 64
4, 10248, Note_on_c, 0, 69, 64
4, 10272, Note_off_c, 0, 69, 64
4, 10272, Note_off_c, 0, 64, 64
4, 10272, Note_on_c, 0, 66, 64
4, 10272, Note_on_c, 0, 71, 64
4, 10296, Note_off_c, 0, 66, 64
4, 10296, Note_off_c, 0, 71, 64
4, 10296, Note_on_c, 0, 66, 64
4, 10296, Note_on_c, 0, 71, 64
4, 10320, Note_off_c, 0, 71, 64
4, 10320, Note_off_c, 0, 66, 64
4, 10320, Note_on_c, 0, 66, 64
4, 10320, Note_on_c, 0, 71, 64
4, 10344, Note_off_c, 0, 71, 64
4, 10344, Note_off_c, 0, 66, 64
4, 10344, Note_on_c, 0, 66, 64
4, 10344, Note_on_c, 0, 71, 64
4, 10368, Note_off_c, 0, 71, 64
4, 10368, Note_off_c, 0, 66, 64
4, 10368, Note_on_c, 0, 69, 64
4, 10368, Note_on_c, 0, 76, 64
4, 10392, Note_off_c, 0, 69, 64
4, 10392, Note_off_c, 0, 76, 64
4, 10392, Note_on_c, 0, 69, 64
4, 10392, Note_on_c, 0, 76, 64
4, 10416, Note_off_c, 0, 76, 64
4, 10416, Note_off_c, 0, 69, 64
4, 10416, Note_on_c, 0, 69, 64
4, 10416, Note_on_c, 0, 76, 64
4, 10440, Note_off_c, 0, 76, 64
4, 10440, Note_off_c, 0, 69, 64
4, 10440, Note_on_c, 0, 69, 64
4, 10440, Note_on_c, 0, 76, 64
4, 10464, Note_off_c, 0, 76, 64
4, 10464, Note_off_c, 0, 69, 64
4, 10464, Note_on_c, 0, 66, 64
4, 10464, Note_on_c, 0, 71, 64
4, 10488, Note_off_c, 0, 66, 64
4, 10488, Note_off_c, 0, 71, 64
4, 10488, Note_on_c, 0, 66, 64
4, 10488, Note_on_c, 0, 71, 64
4, 10512, Note_off_c, 0, 71, 64
4, 10512, Note_off_c, 0, 66, 64
4, 10512, Note_on_c, 0, 66, 64
4, 10512, Note_on_c, 0, 71, 64
4, 10536, Note_off_c, 0, 71, 64
4, 10536, Note_off_c, 0, 66, 64
4, 10536, Note_on_c, 0, 66, 64
4, 10536, Note_on_c, 0, 71, 64
4, 10560, Note_off_c, 0, 71, 64
4, 10560, Note_off_c, 0, 66, 64
4, 10560, Note_on_c, 0, 64, 64
4, 10560, Note_on_c, 0, 69, 64
4, 10584, Note_off_c, 0, 69, 64
4, 10584, Note_off_c, 0, 64, 64
4, 10584, Note_on_c, 0, 64, 64
4, 10584, Note_on_c, 0, 69, 64
4, 10608, Note_off_c, 0, 69, 64
4, 10608, Note_off_c, 0, 64, 64
4, 10608, Note_on_c, 0, 69, 64
4, 10608, Note_on_c, 0, 64, 64
4, 10632, Note_off_c, 0, 64, 64
4, 10632, Note_off_c, 0, 69, 64
4, 10632, Note_on_c, 0, 66, 64
4, 10632, Note_on_c, 0, 71, 64
4, 10656, Note_off_c, 0, 71, 64
4, 10656, Note_off_c, 0, 66, 64
4, 10656, Note_on_c, 0, 66, 64
4, 10656, Note_on_c, 0, 71, 64
4, 10680, Note_off_c, 0, 66, 64
4, 10680, Note_off_c, 0, 71, 64
4, 10680, Note_on_c, 0, 66, 64
4, 10680, Note_on_c, 0, 71, 64
4, 10704, Note_off_c, 0, 71, 64
4, 10704, Note_off_c, 0, 66, 64
4, 10704, Note_on_c, 0, 64, 64
4, 10704, Note_on_c, 0, 69, 64
4, 10728, Note_off_c, 0, 69, 64
4, 10728, Note_off_c, 0, 64, 64
4, 10728, Note_on_c, 0, 64, 64
4, 10728, Note_on_c, 0, 69, 64
4, 10752, Note_off_c, 0, 69, 64
4, 10752, Note_off_c, 0, 64, 64
4, 10752, Note_on_c, 0, 76, 64
4, 10752, Note_on_c, 0, 69, 64
4, 10776, Note_off_c, 0, 76, 64
4, 10776, Note_off_c, 0, 69, 64
4, 10776, Note_on_c, 0, 69, 64
4, 10776, Note_on_c, 0, 76, 64
4, 10800, Note_off_c, 0, 76, 64
4, 10800, Note_off_c, 0, 69, 64
4, 10800, Note_on_c, 0, 69, 64
4, 10800, Note_on_c, 0, 76, 64
4, 10824, Note_off_c, 0, 76, 64
4, 10824, Note_off_c, 0, 69, 64
4, 10824, Note_on_c, 0, 69, 64
4, 10824, Note_on_c, 0, 76, 64
4, 10848, Note_off_c, 0, 76, 64
4, 10848, Note_off_c, 0, 69, 64
4, 10848, Note_on_c, 0, 66, 64
4, 10848, Note_on_c, 0, 71, 64
4, 10872, Note_off_c, 0, 66, 64
4, 10872, Note_off_c, 0, 71, 64
4, 10872, Note_on_c, 0, 66, 64
4, 10872, Note_on_c, 0, 71, 64
4, 10896, Note_off_c, 0, 71, 64
4, 10896, Note_off_c, 0, 66, 64
4, 10896, Note_on_c, 0, 66, 64
4, 10896, Note_on_c, 0, 71, 64
4, 10920, Note_off_c, 0, 71, 64
4, 10920, Note_off_c, 0, 66, 64
4, 10920, Note_on_c, 0, 66, 64
4, 10920, Note_on_c, 0, 71, 64
4, 10944, Note_off_c, 0, 71, 64
4, 10944, Note_off_c, 0, 66, 64
4, 10944, Note_on_c, 0, 64, 64
4, 10944, Note_on_c, 0, 69, 64
4, 10968, Note_off_c, 0, 69, 64
4, 10968, Note_off_c, 0, 64, 64
4, 10968, Note_on_c, 0, 69, 64
4, 10968, Note_on_c, 0, 64, 64
4, 10992, Note_off_c, 0, 64, 64
4, 10992, Note_off_c, 0, 69, 64
4, 10992, Note_on_c, 0, 69, 64
4, 10992, Note_on_c, 0, 64, 64
4, 11016, Note_off_c, 0, 64, 64
4, 11016, Note_off_c, 0, 69, 64
4, 11016, Note_on_c, 0, 69, 64
4, 11016, Note_on_c, 0, 64, 64
4, 11040, Note_off_c, 0, 64, 64
4, 11040, Note_off_c, 0, 69, 64
4, 11040, Note_on_c, 0, 71, 64
4, 11040, Note_on_c, 0, 66, 64
4, 11064, Note_off_c, 0, 71, 64
4, 11064, Note_off_c, 0, 66, 64
4, 11064, Note_on_c, 0, 71, 64
4, 11064, Note_on_c, 0, 66, 64
4, 11088, Note_off_c, 0, 66, 64
4, 11088, Note_off_c, 0, 71, 64
4, 11088, Note_on_c, 0, 71, 64
4, 11088, Note_on_c, 0, 66, 64
4, 11112, Note_off_c, 0, 66, 64
4, 11112, Note_off_c, 0, 71, 64
4, 11112, Note_on_c, 0, 71, 64
4, 11112, Note_on_c, 0, 66, 64
4, 11136, Note_off_c, 0, 66, 64
4, 11136, Note_off_c, 0, 71, 64
4, 11136, Note_on_c, 0, 69, 64
4, 11136, Note_on_c, 0, 76, 64
4, 11160, Note_off_c, 0, 69, 64
4, 11160, Note_off_c, 0, 76, 64
4, 11160, Note_on_c, 0, 69, 64
4, 11160, Note_on_c, 0, 76, 64
4, 11184, Note_off_c, 0, 76, 64
4, 11184, Note_off_c, 0, 69, 64
4, 11184, Note_on_c, 0, 69, 64
4, 11184, Note_on_c, 0, 76, 64
4, 11208, Note_off_c, 0, 76, 64
4, 11208, Note_off_c, 0, 69, 64
4, 11208, Note_on_c, 0, 69, 64
4, 11208, Note_on_c, 0, 76, 64
4, 11232, Note_off_c, 0, 76, 64
4, 11232, Note_off_c, 0, 69, 64
4, 11232, Note_on_c, 0, 66, 64
4, 11232, Note_on_c, 0, 71, 64
4, 11256, Note_off_c, 0, 66, 64
4, 11256, Note_off_c, 0, 71, 64
4, 11256, Note_on_c, 0, 66, 64
4, 11256, Note_on_c, 0, 71, 64
4, 11280, Note_off_c, 0, 71, 64
4, 11280, Note_off_c, 0, 66, 64
4, 11280, Note_on_c, 0, 66, 64
4, 11280, Note_on_c, 0, 71, 64
4, 11304, Note_off_c, 0, 71, 64
4, 11304, Note_off_c, 0, 66, 64
4, 11304, Note_on_c, 0, 66, 64
4, 11304, Note_on_c, 0, 71, 64
4, 11328, Note_off_c, 0, 71, 64
4, 11328, Note_off_c, 0, 66, 64
4, 11328, Note_on_c, 0, 69, 64
4, 11328, Note_on_c, 0, 64, 64
4, 11352, Note_off_c, 0, 64, 64
4, 11352, Note_off_c, 0, 69, 64
4, 11352, Note_on_c, 0, 69, 64
4, 11352, Note_on_c, 0, 64, 64
4, 11376, Note_off_c, 0, 64, 64
4, 11376, Note_off_c, 0, 69, 64
4, 11376, Note_on_c, 0, 64, 64
4, 11376, Note_on_c, 0, 69, 64
4, 11400, Note_off_c, 0, 69, 64
4, 11400, Note_off_c, 0, 64, 64
4, 11400, Note_on_c, 0, 66, 64
4, 11400, Note_on_c, 0, 71, 64
4, 11424, Note_off_c, 0, 71, 64
4, 11424, Note_off_c, 0, 66, 64
4, 11424, Note_on_c, 0, 66, 64
4, 11424, Note_on_c, 0, 71, 64
4, 11448, Note_off_c, 0, 66, 64
4, 11448, Note_off_c, 0, 71, 64
4, 11448, Note_on_c, 0, 66, 64
4, 11448, Note_on_c, 0, 71, 64
4, 11472, Note_off_c, 0, 71, 64
4, 11472, Note_off_c, 0, 66, 64
4, 11472, Note_on_c, 0, 69, 64
4, 11472, Note_on_c, 0, 64, 64
4, 11496, Note_off_c, 0, 64, 64
4, 11496, Note_off_c, 0, 69, 64
4, 11496, Note_on_c, 0, 64, 64
4, 11496, Note_on_c, 0, 69, 64
4, 11520, Note_off_c, 0, 69, 64
4, 11520, Note_off_c, 0, 64, 64
4, 11520, Note_on_c, 0, 69, 64
4, 11520, Note_on_c, 0, 76, 64
4, 11544, Note_off_c, 0, 69, 64
4, 11544, Note_off_c, 0, 76, 64
4, 11544, Note_on_c, 0, 69, 64
4, 11544, Note_on_c, 0, 76, 64
4, 11568, Note_off_c, 0, 76, 64
4, 11568, Note_off_c, 0, 69, 64
4, 11568, Note_on_c, 0, 69, 64
4, 11568, Note_on_c, 0, 76, 64
4, 11592, Note_off_c, 0, 76, 64
4, 11592, Note_off_c, 0, 69, 64
4, 11592, Note_on_c, 0, 69, 64
4, 11592, Note_on_c, 0, 76, 64
4, 11616, Note_off_c, 0, 76, 64
4, 11616, Note_off_c, 0, 69, 64
4, 11616, Note_on_c, 0, 66, 64
4, 11616, Note_on_c, 0, 71, 64
4, 11640, Note_off_c, 0, 66, 64
4, 11640, Note_off_c, 0, 71, 64
4, 11640, Note_on_c, 0, 66, 64
4, 11640, Note_on_c, 0, 71, 64
4, 11664, Note_off_c, 0, 71, 64
4, 11664, Note_off_c, 0, 66, 64
4, 11664, Note_on_c, 0, 66, 64
4, 11664, Note_on_c, 0, 71, 64
4, 11688, Note_off_c, 0, 71, 64
4, 11688, Note_off_c, 0, 66, 64
4, 11688, Note_on_c, 0, 71, 64
4, 11688, Note_on_c, 0, 66, 64
4, 11712, Note_off_c, 0, 66, 64
4, 11712, Note_off_c, 0, 71, 64
4, 11712, Note_on_c, 0, 64, 64
4, 11712, Note_on_c, 0, 69, 64
4, 11736, Note_off_c, 0, 69, 64
4, 11736, Note_off_c, 0, 64, 64
4, 11736, Note_on_c, 0, 64, 64
4, 11736, Note_on_c, 0, 69, 64
4, 11760, Note_off_c, 0, 69, 64
4, 11760, Note_off_c, 0, 64, 64
4, 11760, Note_on_c, 0, 64, 64
4, 11760, Note_on_c, 0, 69, 64
4, 11784, Note_off_c, 0, 69, 64
4, 11784, Note_off_c, 0, 64, 64
4, 11784, Note_on_c, 0, 64, 64
4, 11784, Note_on_c, 0, 69, 64
4, 11808, Note_off_c, 0, 69, 64
4, 11808, Note_off_c, 0, 64, 64
4, 11808, Note_on_c, 0, 66, 64
4, 11808, Note_on_c, 0, 71, 64
4, 11832, Note_off_c, 0, 66, 64
4, 11832, Note_off_c, 0, 71, 64
4, 11832, Note_on_c, 0, 66, 64
4, 11832, Note_on_c, 0, 71, 64
4, 11856, Note_off_c, 0, 71, 64
4, 11856, Note_off_c, 0, 66, 64
4, 11856, Note_on_c, 0, 66, 64
4, 11856, Note_on_c, 0, 71, 64
4, 11880, Note_off_c, 0, 71, 64
4, 11880, Note_off_c, 0, 66, 64
4, 11880, Note_on_c, 0, 66, 64
4, 11880, Note_on_c, 0, 71, 64
4, 11904, Note_off_c, 0, 71, 64
4, 11904, Note_off_c, 0, 66, 64
4, 14592, Note_on_c, 0, 76, 64
4, 14592, Note_on_c, 0, 69, 64
4, 14616, Note_off_c, 0, 76, 64
4, 14616, Note_off_c, 0, 69, 64
4, 14616, Note_on_c, 0, 69, 64
4, 14616, Note_on_c, 0, 76, 64
4, 14640, Note_off_c, 0, 76, 64
4, 14640, Note_off_c, 0, 69, 64
4, 14640, Note_on_c, 0, 69, 64
4, 14640, Note_on_c, 0, 76, 64
4, 14664, Note_off_c, 0, 76, 64
4, 14664, Note_off_c, 0, 69, 64
4, 14664, Note_on_c, 0, 69, 64
4, 14664, Note_on_c, 0, 76, 64
4, 14688, Note_off_c, 0, 76, 64
4, 14688, Note_off_c, 0, 69, 64
4, 14688, Note_on_c, 0, 66, 64
4, 14688, Note_on_c, 0, 71, 64
4, 14712, Note_off_c, 0, 66, 64
4, 14712, Note_off_c, 0, 71, 64
4, 14712, Note_on_c, 0, 66, 64
4, 14712, Note_on_c, 0, 71, 64
4, 14736, Note_off_c, 0, 71, 64
4, 14736, Note_off_c, 0, 66, 64
4, 14736, Note_on_c, 0, 66, 64
4, 14736, Note_on_c, 0, 71, 64
4, 14760, Note_off_c, 0, 71, 64
4, 14760, Note_off_c, 0, 66, 64
4, 14760, Note_on_c, 0, 66, 64
4, 14760, Note_on_c, 0, 71, 64
4, 14784, Note_off_c, 0, 71, 64
4, 14784, Note_off_c, 0, 66, 64
4, 14784, Note_on_c, 0, 64, 64
4, 14784, Note_on_c, 0, 69, 64
4, 14808, Note_off_c, 0, 69, 64
4, 14808, Note_off_c, 0, 64, 64
4, 14808, Note_on_c, 0, 69, 64
4, 14808, Note_on_c, 0, 64, 64
4, 14832, Note_off_c, 0, 64, 64
4, 14832, Note_off_c, 0, 69, 64
4, 14832, Note_on_c, 0, 69, 64
4, 14832, Note_on_c, 0, 64, 64
4, 14856, Note_off_c, 0, 64, 64
4, 14856, Note_off_c, 0, 69, 64
4, 14856, Note_on_c, 0, 69, 64
4, 14856, Note_on_c, 0, 64, 64
4, 14880, Note_off_c, 0, 64, 64
4, 14880, Note_off_c, 0, 69, 64
4, 14880, Note_on_c, 0, 71, 64
4, 14880, Note_on_c, 0, 66, 64
4, 14904, Note_off_c, 0, 71, 64
4, 14904, Note_off_c, 0, 66, 64
4, 14904, Note_on_c, 0, 71, 64
4, 14904, Note_on_c, 0, 66, 64
4, 14928, Note_off_c, 0, 66, 64
4, 14928, Note_off_c, 0, 71, 64
4, 14928, Note_on_c, 0, 71, 64
4, 14928, Note_on_c, 0, 66, 64
4, 14952, Note_off_c, 0, 66, 64
4, 14952, Note_off_c, 0, 71, 64
4, 14952, Note_on_c, 0, 71, 64
4, 14952, Note_on_c, 0, 66, 64
4, 14976, Note_off_c, 0, 66, 64
4, 14976, Note_off_c, 0, 71, 64
4, 14976, Note_on_c, 0, 69, 64
4, 14976, Note_on_c, 0, 76, 64
4, 15000, Note_off_c, 0, 69, 64
4, 15000, Note_off_c, 0, 76, 64
4, 15000, Note_on_c, 0, 69, 64
4, 15000, Note_on_c, 0, 76, 64
4, 15024, Note_off_c, 0, 76, 64
4, 15024, Note_off_c, 0, 69, 64
4, 15024, Note_on_c, 0, 69, 64
4, 15024, Note_on_c, 0, 76, 64
4, 15048, Note_off_c, 0, 76, 64
4, 15048, Note_off_c, 0, 69, 64
4, 15048, Note_on_c, 0, 69, 64
4, 15048, Note_on_c, 0, 76, 64
4, 15072, Note_off_c, 0, 76, 64
4, 15072, Note_off_c, 0, 69, 64
4, 15072, Note_on_c, 0, 66, 64
4, 15072, Note_on_c, 0, 71, 64
4, 15096, Note_off_c, 0, 66, 64
4, 15096, Note_off_c, 0, 71, 64
4, 15096, Note_on_c, 0, 66, 64
4, 15096, Note_on_c, 0, 71, 64
4, 15120, Note_off_c, 0, 71, 64
4, 15120, Note_off_c, 0, 66, 64
4, 15120, Note_on_c, 0, 66, 64
4, 15120, Note_on_c, 0, 71, 64
4, 15144, Note_off_c, 0, 71, 64
4, 15144, Note_off_c, 0, 66, 64
4, 15144, Note_on_c, 0, 66, 64
4, 15144, Note_on_c, 0, 71, 64
4, 15168, Note_off_c, 0, 71, 64
4, 15168, Note_off_c, 0, 66, 64
4, 15168, Note_on_c, 0, 69, 64
4, 15168, Note_on_c, 0, 64, 64
4, 15192, Note_off_c, 0, 64, 64
4, 15192, Note_off_c, 0, 69, 64
4, 15192, Note_on_c, 0, 69, 64
4, 15192, Note_on_c, 0, 64, 64
4, 15216, Note_off_c, 0, 64, 64
4, 15216, Note_off_c, 0, 69, 64
4, 15216, Note_on_c, 0, 64, 64
4, 15216, Note_on_c, 0, 69, 64
4, 15240, Note_off_c, 0, 69, 64
4, 15240, Note_off_c, 0, 64, 64
4, 15240, Note_on_c, 0, 66, 64
4, 15240, Note_on_c, 0, 71, 64
4, 15264, Note_off_c, 0, 71, 64
4, 15264, Note_off_c, 0, 66, 64
4, 15264, Note_on_c, 0, 66, 64
4, 15264, Note_on_c, 0, 71, 64
4, 15288, Note_off_c, 0, 66, 64
4, 15288, Note_off_c, 0, 71, 64
4, 15288, Note_on_c, 0, 66, 64
4, 15288, Note_on_c, 0, 71, 64
4, 15312, Note_off_c, 0, 71, 64
4, 15312, Note_off_c, 0, 66, 64
4, 15312, Note_on_c, 0, 69, 64
4, 15312, Note_on_c, 0, 64, 64
4, 15336, Note_off_c, 0, 64, 64
4, 15336, Note_off_c, 0, 69, 64
4, 15336, Note_on_c, 0, 64, 64
4, 15336, Note_on_c, 0, 69, 64
4, 15360, Note_off_c, 0, 69, 64
4, 15360, Note_off_c, 0, 64, 64
4, 15360, Note_on_c, 0, 69, 64
4, 15360, Note_on_c, 0, 76, 64
4, 15384, Note_off_c, 0, 69, 64
4, 15384, Note_off_c, 0, 76, 64
4, 15384, Note_on_c, 0, 69, 64
4, 15384, Note_on_c, 0, 76, 64
4, 15408, Note_off_c, 0, 76, 64
4, 15408, Note_off_c, 0, 69, 64
4, 15408, Note_on_c, 0, 69, 64
4, 15408, Note_on_c, 0, 76, 64
4, 15432, Note_off_c, 0, 76, 64
4, 15432, Note_off_c, 0, 69, 64
4, 15432, Note_on_c, 0, 69, 64
4, 15432, Note_on_c, 0, 76, 64
4, 15456, Note_off_c, 0, 76, 64
4, 15456, Note_off_c, 0, 69, 64
4, 15456, Note_on_c, 0, 66, 64
4, 15456, Note_on_c, 0, 71, 64
4, 15480, Note_off_c, 0, 66, 64
4, 15480, Note_off_c, 0, 71, 64
4, 15480, Note_on_c, 0, 66, 64
4, 15480, Note_on_c, 0, 71, 64
4, 15504, Note_off_c, 0, 71, 64
4, 15504, Note_off_c, 0, 66, 64
4, 15504, Note_on_c, 0, 66, 64
4, 15504, Note_on_c, 0, 71, 64
4, 15528, Note_off_c, 0, 71, 64
4, 15528, Note_off_c, 0, 66, 64
4, 15528, Note_on_c, 0, 71, 64
4, 15528, Note_on_c, 0, 66, 64
4, 15552, Note_off_c, 0, 66, 64
4, 15552, Note_off_c, 0, 71, 64
4, 15552, Note_on_c, 0, 64, 64
4, 15552, Note_on_c, 0, 69, 64
4, 15576, Note_off_c, 0, 69, 64
4, 15576, Note_off_c, 0, 64, 64
4, 15576, Note_on_c, 0, 64, 64
4, 15576, Note_on_c, 0, 69, 64
4, 15600, Note_off_c, 0, 69, 64
4, 15600, Note_off_c, 0, 64, 64
4, 15600, Note_on_c, 0, 64, 64
4, 15600, Note_on_c, 0, 69, 64
4, 15624, Note_off_c, 0, 69, 64
4, 15624, Note_off_c, 0, 64, 64
4, 15624, Note_on_c, 0, 64, 64
4, 15624, Note_on_c, 0, 69, 64
4, 15648, Note_off_c, 0, 69, 64
4, 15648, Note_off_c, 0, 64, 64
4, 15648, Note_on_c, 0, 66, 64
4, 15648, Note_on_c, 0, 71, 64
4, 15672, Note_off_c, 0, 66, 64
4, 15672, Note_off_c, 0, 71, 64
4, 15672, Note_on_c, 0, 66, 64
4, 15672, Note_on_c, 0, 71, 64
4, 15696, Note_off_c, 0, 71, 64
4, 15696, Note_off_c, 0, 66, 64
4, 15696, Note_on_c, 0, 66, 64
4, 15696, Note_on_c, 0, 71, 64
4, 15720, Note_off_c, 0, 71, 64
4, 15720, Note_off_c, 0, 66, 64
4, 15720, Note_on_c, 0, 66, 64
4, 15720, Note_on_c, 0, 71, 64
4, 15744, Note_off_c, 0, 71, 64
4, 15744, Note_off_c, 0, 66, 64
4, 15744, Note_on_c, 0, 69, 64
4, 15744, Note_on_c, 0, 76, 64
4, 15768, Note_off_c, 0, 69, 64
4, 15768, Note_off_c, 0, 76, 64
4, 15768, Note_on_c, 0, 69, 64
4, 15768, Note_on_c, 0, 76, 64
4, 15792, Note_off_c, 0, 76, 64
4, 15792, Note_off_c, 0, 69, 64
4, 15792, Note_on_c, 0, 69, 64
4, 15792, Note_on_c, 0, 76, 64
4, 15816, Note_off_c, 0, 76, 64
4, 15816, Note_off_c, 0, 69, 64
4, 15816, Note_on_c, 0, 69, 64
4, 15816, Note_on_c, 0, 76, 64
4, 15840, Note_off_c, 0, 76, 64
4, 15840, Note_off_c, 0, 69, 64
4, 15840, Note_on_c, 0, 66, 64
4, 15840, Note_on_c, 0, 71, 64
4, 15864, Note_off_c, 0, 66, 64
4, 15864, Note_off_c, 0, 71, 64
4, 15864, Note_on_c, 0, 66, 64
4, 15864, Note_on_c, 0, 71, 64
4, 15888, Note_off_c, 0, 71, 64
4, 15888, Note_off_c, 0, 66, 64
4, 15888, Note_on_c, 0, 66, 64
4, 15888, Note_on_c, 0, 71, 64
4, 15912, Note_off_c, 0, 71, 64
4, 15912, Note_off_c, 0, 66, 64
4, 15912, Note_on_c, 0, 66, 64
4, 15912, Note_on_c, 0, 71, 64
4, 15936, Note_off_c, 0, 71, 64
4, 15936, Note_off_c, 0, 66, 64
4, 15936, Note_on_c, 0, 64, 64
4, 15936, Note_on_c, 0, 69, 64
4, 15960, Note_off_c, 0, 69, 64
4, 15960, Note_off_c, 0, 64, 64
4, 15960, Note_on_c, 0, 64, 64
4, 15960, Note_on_c, 0, 69, 64
4, 15984, Note_off_c, 0, 69, 64
4, 15984, Note_off_c, 0, 64, 64
4, 15984, Note_on_c, 0, 69, 64
4, 15984, Note_on_c, 0, 64, 64
4, 16008, Note_off_c, 0, 64, 64
4, 16008, Note_off_c, 0, 69, 64
4, 16008, Note_on_c, 0, 66, 64
4, 16008, Note_on_c, 0, 71, 64
4, 16032, Note_off_c, 0, 71, 64
4, 16032, Note_off_c, 0, 66, 64
4, 16032, Note_on_c, 0, 66, 64
4, 16032, Note_on_c, 0, 71, 64
4, 16056, Note_off_c, 0, 66, 64
4, 16056, Note_off_c, 0, 71, 64
4, 16056, Note_on_c, 0, 66, 64
4, 16056, Note_on_c, 0, 71, 64
4, 16080, Note_off_c, 0, 71, 64
4, 16080, Note_off_c, 0, 66, 64
4, 16080, Note_on_c, 0, 64, 64
4, 16080, Note_on_c, 0, 69, 64
4, 16104, Note_off_c, 0, 69, 64
4, 16104, Note_off_c, 0, 64, 64
4, 16104, Note_on_c, 0, 64, 64
4, 16104, Note_on_c, 0, 69, 64
4, 16128, Note_off_c, 0, 69, 64
4, 16128, Note_off_c, 0, 64, 64
4, 16128, Note_on_c, 0, 76, 64
4, 16128, Note_on_c, 0, 69, 64
4, 16152, Note_off_c, 0, 76, 64
4, 16152, Note_off_c, 0, 69, 64
4, 16152, Note_on_c, 0, 69, 64
4, 16152, Note_on_c, 0, 76, 64
4, 16176, Note_off_c, 0, 76, 64
4, 16176, Note_off_c, 0, 69, 64
4, 16176, Note_on_c, 0, 69, 64
4, 16176, Note_on_c, 0, 76, 64
4, 16200, Note_off_c, 0, 76, 64
4, 16200, Note_off_c, 0, 69, 64
4, 16200, Note_on_c, 0, 69, 64
4, 16200, Note_on_c, 0, 76, 64
4, 16224, Note_off_c, 0, 76, 64
4, 16224, Note_off_c, 0, 69, 64
4, 16224, Note_on_c, 0, 66, 64
4, 16224, Note_on_c, 0, 71, 64
4, 16248, Note_off_c, 0, 66, 64
4, 16248, Note_off_c, 0, 71, 64
4, 16248, Note_on_c, 0, 66, 64
4, 16248, Note_on_c, 0, 71, 64
4, 16272, Note_off_c, 0, 71, 64
4, 16272, Note_off_c, 0, 66, 64
4, 16272, Note_on_c, 0, 66, 64
4, 16272, Note_on_c, 0, 71, 64
4, 16296, Note_off_c, 0, 71, 64
4, 16296, Note_off_c, 0, 66, 64
4, 16296, Note_on_c, 0, 66, 64
4, 16296, Note_on_c, 0, 71, 64
4, 16320, Note_off_c, 0, 71, 64
4, 16320, Note_off_c, 0, 66, 64
4, 16320, Note_on_c, 0, 64, 64
4, 16320, Note_on_c, 0, 69, 64
4, 16344, Note_off_c, 0, 69, 64
4, 16344, Note_off_c, 0, 64, 64
4, 16344, Note_on_c, 0, 69, 64
4, 16344, Note_on_c, 0, 64, 64
4, 16368, Note_off_c, 0, 64, 64
4, 16368, Note_off_c, 0, 69, 64
4, 16368, Note_on_c, 0, 69, 64
4, 16368, Note_on_c, 0, 64, 64
4, 16392, Note_off_c, 0, 64, 64
4, 16392, Note_off_c, 0, 69, 64
4, 16392, Note_on_c, 0, 69, 64
4, 16392, Note_on_c, 0, 64, 64
4, 16416, Note_off_c, 0, 64, 64
4, 16416, Note_off_c, 0, 69, 64
4, 16416, Note_on_c, 0, 71, 64
4, 16416, Note_on_c, 0, 66, 64
4, 16440, Note_off_c, 0, 71, 64
4, 16440, Note_off_c, 0, 66, 64
4, 16440, Note_on_c, 0, 71, 64
4, 16440, Note_on_c, 0, 66, 64
4, 16464, Note_off_c, 0, 66, 64
4, 16464, Note_off_c, 0, 71, 64
4, 16464, Note_on_c, 0, 71, 64
4, 16464, Note_on_c, 0, 66, 64
4, 16488, Note_off_c, 0, 66, 64
4, 16488, Note_off_c, 0, 71, 64
4, 16488, Note_on_c, 0, 71, 64
4, 16488, Note_on_c, 0, 66, 64
4, 16512, Note_off_c, 0, 66, 64
4, 16512, Note_off_c, 0, 71, 64
4, 16512, Note_on_c, 0, 69, 64
4, 16512, Note_on_c, 0, 76, 64
4, 16536, Note_off_c, 0, 69, 64
4, 16536, Note_off_c, 0, 76, 64
4, 16536, Note_on_c, 0, 69, 64
4, 16536, Note_on_c, 0, 76, 64
4, 16560, Note_off_c, 0, 76, 64
4, 16560, Note_off_c, 0, 69, 64
4, 16560, Note_on_c, 0, 69, 64
4, 16560, Note_on_c, 0, 76, 64
4, 16584, Note_off_c, 0, 76, 64
4, 16584, Note_off_c, 0, 69, 64
4, 16584, Note_on_c, 0, 69, 64
4, 16584, Note_on_c, 0, 76, 64
4, 16608, Note_off_c, 0, 76, 64
4, 16608, Note_off_c, 0, 69, 64
4, 16608, Note_on_c, 0, 66, 64
4, 16608, Note_on_c, 0, 71, 64
4, 16632, Note_off_c, 0, 66, 64
4, 16632, Note_off_c, 0, 71, 64
4, 16632, Note_on_c, 0, 66, 64
4, 16632, Note_on_c, 0, 71, 64
4, 16656, Note_off_c, 0, 71, 64
4, 16656, Note_off_c, 0, 66, 64
4, 16656, Note_on_c, 0, 66, 64
4, 16656, Note_on_c, 0, 71, 64
4, 16680, Note_off_c, 0, 71, 64
4, 16680, Note_off_c, 0, 66, 64
4, 16680, Note_on_c, 0, 66, 64
4, 16680, Note_on_c, 0, 71, 64
4, 16704, Note_off_c, 0, 71, 64
4, 16704, Note_off_c, 0, 66, 64
4, 16704, Note_on_c, 0, 69, 64
4, 16704, Note_on_c, 0, 64, 64
4, 16728, Note_off_c, 0, 64, 64
4, 16728, Note_off_c, 0, 69, 64
4, 16728, Note_on_c, 0, 69, 64
4, 16728, Note_on_c, 0, 64, 64
4, 16752, Note_off_c, 0, 64, 64
4, 16752, Note_off_c, 0, 69, 64
4, 16752, Note_on_c, 0, 64, 64
4, 16752, Note_on_c, 0, 69, 64
4, 16776, Note_off_c, 0, 69, 64
4, 16776, Note_off_c, 0, 64, 64
4, 16776, Note_on_c, 0, 66, 64
4, 16776, Note_on_c, 0, 71, 64
4, 16800, Note_off_c, 0, 71, 64
4, 16800, Note_off_c, 0, 66, 64
4, 16800, Note_on_c, 0, 66, 64
4, 16800, Note_on_c, 0, 71, 64
4, 16824, Note_off_c, 0, 66, 64
4, 16824, Note_off_c, 0, 71, 64
4, 16824, Note_on_c, 0, 66, 64
4, 16824, Note_on_c, 0, 71, 64
4, 16848, Note_off_c, 0, 71, 64
4, 16848, Note_off_c, 0, 66, 64
4, 16848, Note_on_c, 0, 69, 64
4, 16848, Note_on_c, 0, 64, 64
4, 16872, Note_off_c, 0, 64, 64
4, 16872, Note_off_c, 0, 69, 64
4, 16872, Note_on_c, 0, 64, 64
4, 16872, Note_on_c, 0, 69, 64
4, 16896, Note_off_c, 0, 69, 64
4, 16896, Note_off_c, 0, 64, 64
4, 16896, Note_on_c, 0, 69, 64
4, 16896, Note_on_c, 0, 76, 64
4, 16920, Note_off_c, 0, 69, 64
4, 16920, Note_off_c, 0, 76, 64
4, 16920, Note_on_c, 0, 69, 64
4, 16920, Note_on_c, 0, 76, 64
4, 16944, Note_off_c, 0, 76, 64
4, 16944, Note_off_c, 0, 69, 64
4, 16944, Note_on_c, 0, 69, 64
4, 16944, Note_on_c, 0, 76, 64
4, 16968, Note_off_c, 0, 76, 64
4, 16968, Note_off_c, 0, 69, 64
4, 16968, Note_on_c, 0, 69, 64
4, 16968, Note_on_c, 0, 76, 64
4, 16992, Note_off_c, 0, 76, 64
4, 16992, Note_off_c, 0, 69, 64
4, 16992, Note_on_c, 0, 66, 64
4, 16992, Note_on_c, 0, 71, 64
4, 17016, Note_off_c, 0, 66, 64
4, 17016, Note_off_c, 0, 71, 64
4, 17016, Note_on_c, 0, 66, 64
4, 17016, Note_on_c, 0, 71, 64
4, 17040, Note_off_c, 0, 71, 64
4, 17040, Note_off_c, 0, 66, 64
4, 17040, Note_on_c, 0, 66, 64
4, 17040, Note_on_c, 0, 71, 64
4, 17064, Note_off_c, 0, 71, 64
4, 17064, Note_off_c, 0, 66, 64
4, 17064, Note_on_c, 0, 71, 64
4, 17064, Note_on_c, 0, 66, 64
4, 17088, Note_off_c, 0, 66, 64
4, 17088, Note_off_c, 0, 71, 64
4, 17088, Note_on_c, 0, 64, 64
4, 17088, Note_on_c, 0, 69, 64
4, 17112, Note_off_c, 0, 69, 64
4, 17112, Note_off_c, 0, 64, 64
4, 17112, Note_on_c, 0, 64, 64
4, 17112, Note_on_c, 0, 69, 64
4, 17136, Note_off_c, 0, 69, 64
4, 17136, Note_off_c, 0, 64, 64
4, 17136, Note_on_c, 0, 64, 64
4, 17136, Note_on_c, 0, 69, 64
4, 17160, Note_off_c, 0, 69, 64
4, 17160, Note_off_c, 0, 64, 64
4, 17160, Note_on_c, 0, 64, 64
4, 17160, Note_on_c, 0, 69, 64
4, 17184, Note_off_c, 0, 69, 64
4, 17184, Note_off_c, 0, 64, 64
4, 17184, Note_on_c, 0, 66, 64
4, 17184, Note_on_c, 0, 71, 64
4, 17208, Note_off_c, 0, 66, 64
4, 17208, Note_off_c, 0, 71, 64
4, 17208, Note_on_c, 0, 66, 64
4, 17208, Note_on_c, 0, 71, 64
4, 17232, Note_off_c, 0, 71, 64
4, 17232, Note_off_c, 0, 66, 64
4, 17232, Note_on_c, 0, 66, 64
4, 17232, Note_on_c, 0, 71, 64
4, 17256, Note_off_c, 0, 71, 64
4, 17256, Note_off_c, 0, 66, 64
4, 17256, Note_on_c, 0, 66, 64
4, 17256, Note_on_c, 0, 71, 64
4, 17280, Note_off_c, 0, 71, 64
4, 17280, Note_off_c, 0, 66, 64
4, 17280, Note_on_c, 0, 69, 64
4, 17280, Note_on_c, 0, 76, 64
4, 17304, Note_off_c, 0, 69, 64
4, 17304, Note_off_c, 0, 76, 64
4, 17304, Note_on_c, 0, 69, 64
4, 17304, Note_on_c, 0, 76, 64
4, 17328, Note_off_c, 0, 76, 64
4, 17328, Note_off_c, 0, 69, 64
4, 17328, Note_on_c, 0, 69, 64
4, 17328, Note_on_c, 0, 76, 64
4, 17352, Note_off_c, 0, 76, 64
4, 17352, Note_off_c, 0, 69, 64
4, 17352, Note_on_c, 0, 69, 64
4, 17352, Note_on_c, 0, 76, 64
4, 17376, Note_off_c, 0, 76, 64
4, 17376, Note_off_c, 0, 69, 64
4, 17376, Note_on_c, 0, 66, 64
4, 17376, Note_on_c, 0, 71, 64
4, 17400, Note_off_c, 0, 66, 64
4, 17400, Note_off_c, 0, 71, 64
4, 17400, Note_on_c, 0, 66, 64
4, 17400, Note_on_c, 0, 71, 64
4, 17424, Note_off_c, 0, 71, 64
4, 17424, Note_off_c, 0, 66, 64
4, 17424, Note_on_c, 0, 66, 64
4, 17424, Note_on_c, 0, 71, 64
4, 17448, Note_off_c, 0, 71, 64
4, 17448, Note_off_c, 0, 66, 64
4, 17448, Note_on_c, 0, 66, 64
4, 17448, Note_on_c, 0, 71, 64
4, 17472, Note_off_c, 0, 71, 64
4, 17472, Note_off_c, 0, 66, 64
4, 17472, Note_on_c, 0, 64, 64
4, 17472, Note_on_c, 0, 69, 64
4, 17496, Note_off_c, 0, 69, 64
4, 17496, Note_off_c, 0, 64, 64
4, 17496, Note_on_c, 0, 64, 64
4, 17496, Note_on_c, 0, 69, 64
4, 17520, Note_off_c, 0, 69, 64
4, 17520, Note_off_c, 0, 64, 64
4, 17520, Note_on_c, 0, 69, 64
4, 17520, Note_on_c, 0, 64, 64
4, 17544, Note_off_c, 0, 64, 64
4, 17544, Note_off_c, 0, 69, 64
4, 17544, Note_on_c, 0, 66, 64
4, 17544, Note_on_c, 0, 71, 64
4, 17568, Note_off_c, 0, 71, 64
4, 17568, Note_off_c, 0, 66, 64
4, 17568, Note_on_c, 0, 66, 64
4, 17568, Note_on_c, 0, 71, 64
4, 17592, Note_off_c, 0, 66, 64
4, 17592, Note_off_c, 0, 71, 64
4, 17592, Note_on_c, 0, 66, 64
4, 17592, Note_on_c, 0, 71, 64
4, 17616, Note_off_c, 0, 71, 64
4, 17616, Note_off_c, 0, 66, 64
4, 17616, Note_on_c, 0, 64, 64
4, 17616, Note_on_c, 0, 69, 64
4, 17640, Note_off_c, 0, 69, 64
4, 17640, Note_off_c, 0, 64, 64
4, 17640, Note_on_c, 0, 64, 64
4, 17640, Note_on_c, 0, 69, 64
4, 17664, Note_off_c, 0, 69, 64
4, 17664, Note_off_c, 0, 64, 64
4, 17664, Note_on_c, 0, 76, 64
4, 17664, Note_on_c, 0, 69, 64
4, 17688, Note_off_c, 0, 76, 64
4, 17688, Note_off_c, 0, 69, 64
4, 17688, Note_on_c, 0, 69, 64
4, 17688, Note_on_c, 0, 76, 64
4, 17712, Note_off_c, 0, 76, 64
4, 17712, Note_off_c, 0, 69, 64
4, 17712, Note_on_c, 0, 69, 64
4, 17712, Note_on_c, 0, 76, 64
4, 17736, Note_off_c, 0, 76, 64
4, 17736, Note_off_c, 0, 69, 64
4, 17736, Note_on_c, 0, 69, 64
4, 17736, Note_on_c, 0, 76, 64
4, 17760, Note_off_c, 0, 76, 64
4, 17760, Note_off_c, 0, 69, 64
4, 17760, Note_on_c, 0, 66, 64
4, 17760, Note_on_c, 0, 71, 64
4, 17784, Note_off_c, 0, 66, 64
4, 17784, Note_off_c, 0, 71, 64
4, 17784, Note_on_c, 0, 66, 64
4, 17784, Note_on_c, 0, 71, 64
4, 17808, Note_off_c, 0, 71, 64
4, 17808, Note_off_c, 0, 66, 64
4, 17808, Note_on_c, 0, 66, 64
4, 17808, Note_on_c, 0, 71, 64
4, 17832, Note_off_c, 0, 71, 64
4, 17832, Note_off_c, 0, 66, 64
4, 17832, Note_on_c, 0, 66, 64
4, 17832, Note_on_c, 0, 71, 64
4, 17856, Note_off_c, 0, 71, 64
4, 17856, Note_off_c, 0, 66, 64
4, 17856, Note_on_c, 0, 64, 64
4, 17856, Note_on_c, 0, 69, 64
4, 17880, Note_off_c, 0, 69, 64
4, 17880, Note_off_c, 0, 64, 64
4, 17880, Note_on_c, 0, 69, 64
4, 17880, Note_on_c, 0, 64, 64
4, 17904, Note_off_c, 0, 64, 64
4, 17904, Note_off_c, 0, 69, 64
4, 17904, Note_on_c, 0, 69, 64
4, 17904, Note_on_c, 0, 64, 64
4, 17928, Note_off_c, 0, 64, 64
4, 17928, Note_off_c, 0, 69, 64
4, 17928, Note_on_c, 0, 69, 64
4, 17928, Note_on_c, 0, 64, 64
4, 17952, Note_off_c, 0, 64, 64
4, 17952, Note_off_c, 0, 69, 64
4, 17952, Note_on_c, 0, 71, 64
4, 17952, Note_on_c, 0, 66, 64
4, 17976, Note_off_c, 0, 71, 64
4, 17976, Note_off_c, 0, 66, 64
4, 17976, Note_on_c, 0, 71, 64
4, 17976, Note_on_c, 0, 66, 64
4, 18000, Note_off_c, 0, 66, 64
4, 18000, Note_off_c, 0, 71, 64
4, 18000, Note_on_c, 0, 71, 64
4, 18000, Note_on_c, 0, 66, 64
4, 18024, Note_off_c, 0, 66, 64
4, 18024, Note_off_c, 0, 71, 64
4, 18024, Note_on_c, 0, 71, 64
4, 18024, Note_on_c, 0, 66, 64
4, 18048, Note_off_c, 0, 66, 64
4, 18048, Note_off_c, 0, 71, 64
4, 18048, Note_on_c, 0, 69, 64
4, 18048, Note_on_c, 0, 76, 64
4, 18072, Note_off_c, 0, 69, 64
4, 18072, Note_off_c, 0, 76, 64
4, 18072, Note_on_c, 0, 69, 64
4, 18072, Note_on_c, 0, 76, 64
4, 18096, Note_off_c, 0, 76, 64
4, 18096, Note_off_c, 0, 69, 64
4, 18096, Note_on_c, 0, 69, 64
4, 18096, Note_on_c, 0, 76, 64
4, 18120, Note_off_c, 0, 76, 64
4, 18120, Note_off_c, 0, 69, 64
4, 18120, Note_on_c, 0, 69, 64
4, 18120, Note_on_c, 0, 76, 64
4, 18144, Note_off_c, 0, 76, 64
4, 18144, Note_off_c, 0, 69, 64
4, 18144, Note_on_c, 0, 66, 64
4, 18144, Note_on_c, 0, 71, 64
4, 18168, Note_off_c, 0, 66, 64
4, 18168, Note_off_c, 0, 71, 64
4, 18168, Note_on_c, 0, 66, 64
4, 18168, Note_on_c, 0, 71, 64
4, 18192, Note_off_c, 0, 71, 64
4, 18192, Note_off_c, 0, 66, 64
4, 18192, Note_on_c, 0, 66, 64
4, 18192, Note_on_c, 0, 71, 64
4, 18216, Note_off_c, 0, 71, 64
4, 18216, Note_off_c, 0, 66, 64
4, 18216, Note_on_c, 0, 66, 64
4, 18216, Note_on_c, 0, 71, 64
4, 18240, Note_off_c, 0, 71, 64
4, 18240, Note_off_c, 0, 66, 64
4, 18240, Note_on_c, 0, 69, 64
4, 18240, Note_on_c, 0, 64, 64
4, 18264, Note_off_c, 0, 64, 64
4, 18264, Note_off_c, 0, 69, 64
4, 18264, Note_on_c, 0, 69, 64
4, 18264, Note_on_c, 0, 64, 64
4, 18288, Note_off_c, 0, 64, 64
4, 18288, Note_off_c, 0, 69, 64
4, 18288, Note_on_c, 0, 64, 64
4, 18288, Note_on_c, 0, 69, 64
4, 18312, Note_off_c, 0, 69, 64
4, 18312, Note_off_c, 0, 64, 64
4, 18312, Note_on_c, 0, 66, 64
4, 18312, Note_on_c, 0, 71, 64
4, 18336, Note_off_c, 0, 71, 64
4, 18336, Note_off_c, 0, 66, 64
4, 18336, Note_on_c, 0, 66, 64
4, 18336, Note_on_c, 0, 71, 64
4, 18360, Note_off_c, 0, 66, 64
4, 18360, Note_off_c, 0, 71, 64
4, 18360, Note_on_c, 0, 66, 64
4, 18360, Note_on_c, 0, 71, 64
4, 18384, Note_off_c, 0, 71, 64
4, 18384, Note_off_c, 0, 66, 64
4, 18384, Note_on_c, 0, 69, 64
4, 18384, Note_on_c, 0, 64, 64
4, 18408, Note_off_c, 0, 64, 64
4, 18408, Note_off_c, 0, 69, 64
4, 18408, Note_on_c, 0, 64, 64
4, 18408, Note_on_c, 0, 69, 64
4, 18432, Note_off_c, 0, 69, 64
4, 18432, Note_off_c, 0, 64, 64
4, 18432, Note_on_c, 0, 69, 64
4, 18432, Note_on_c, 0, 76, 64
4, 18456, Note_off_c, 0, 69, 64
4, 18456, Note_off_c, 0, 76, 64
4, 18456, Note_on_c, 0, 69, 64
4, 18456, Note_on_c, 0, 76, 64
4, 18480, Note_off_c, 0, 76, 64
4, 18480, Note_off_c, 0, 69, 64
4, 18480, Note_on_c, 0, 69, 64
4, 18480, Note_on_c, 0, 76, 64
4, 18504, Note_off_c, 0, 76, 64
4, 18504, Note_off_c, 0, 69, 64
4, 18504, Note_on_c, 0, 69, 64
4, 18504, Note_on_c, 0, 76, 64
4, 18528, Note_off_c, 0, 76, 64
4, 18528, Note_off_c, 0, 69, 64
4, 18528, Note_on_c, 0, 66, 64
4, 18528, Note_on_c, 0, 71, 64
4, 18552, Note_off_c, 0, 66, 64
4, 18552, Note_off_c, 0, 71, 64
4, 18552, Note_on_c, 0, 66, 64
4, 18552, Note_on_c, 0, 71, 64
4, 18576, Note_off_c, 0, 71, 64
4, 18576, Note_off_c, 0, 66, 64
4, 18576, Note_on_c, 0, 66, 64
4, 18576, Note_on_c, 0, 71, 64
4, 18600, Note_off_c, 0, 71, 64
4, 18600, Note_off_c, 0, 66, 64
4, 18600, Note_on_c, 0, 71, 64
4, 18600, Note_on_c, 0, 66, 64
4, 18624, Note_off_c, 0, 66, 64
4, 18624, Note_off_c, 0, 71, 64
4, 18624, Note_on_c, 0, 64, 64
4, 18624, Note_on_c, 0, 69, 64
4, 18648, Note_off_c, 0, 69, 64
4, 18648, Note_off_c, 0, 64, 64
4, 18648, Note_on_c, 0, 64, 64
4, 18648, Note_on_c, 0, 69, 64
4, 18672, Note_off_c, 0, 69, 64
4, 18672, Note_off_c, 0, 64, 64
4, 18672, Note_on_c, 0, 64, 64
4, 18672, Note_on_c, 0, 69, 64
4, 18696, Note_off_c, 0, 69, 64
4, 18696, Note_off_c, 0, 64, 64
4, 18696, Note_on_c, 0, 64, 64
4, 18696, Note_on_c, 0, 69, 64
4, 18720, Note_off_c, 0, 69, 64
4, 18720, Note_off_c, 0, 64, 64
4, 18720, Note_on_c, 0, 66, 64
4, 18720, Note_on_c, 0, 71, 64
4, 18744, Note_off_c, 0, 66, 64
4, 18744, Note_off_c, 0, 71, 64
4, 18744, Note_on_c, 0, 66, 64
4, 18744, Note_on_c, 0, 71, 64
4, 18768, Note_off_c, 0, 71, 64
4, 18768, Note_off_c, 0, 66, 64
4, 18768, Note_on_c, 0, 66, 64
4, 18768, Note_on_c, 0, 71, 64
4, 18792, Note_off_c, 0, 71, 64
4, 18792, Note_off_c, 0, 66, 64
4, 18792, Note_on_c, 0, 66, 64
4, 18792, Note_on_c, 0, 71, 64
4, 18816, Note_off_c, 0, 71, 64
4, 18816, Note_off_c, 0, 66, 64
4, 18816, Note_on_c, 0, 69, 64
4, 18816, Note_on_c, 0, 76, 64
4, 18840, Note_off_c, 0, 69, 64
4, 18840, Note_off_c, 0, 76, 64
4, 18840, Note_on_c, 0, 69, 64
4, 18840, Note_on_c, 0, 76, 64
4, 18864, Note_off_c, 0, 76, 64
4, 18864, Note_off_c, 0, 69, 64
4, 18864, Note_on_c, 0, 69, 64
4, 18864, Note_on_c, 0, 76, 64
4, 18888, Note_off_c, 0, 76, 64
4, 18888, Note_off_c, 0, 69, 64
4, 18888, Note_on_c, 0, 69, 64
4, 18888, Note_on_c, 0, 76, 64
4, 18912, Note_off_c, 0, 76, 64
4, 18912, Note_off_c, 0, 69, 64
4, 18912, Note_on_c, 0, 66, 64
4, 18912, Note_on_c, 0, 71, 64
4, 18936, Note_off_c, 0, 66, 64
4, 18936, Note_off_c, 0, 71, 64
4, 18936, Note_on_c, 0, 66, 64
4, 18936, Note_on_c, 0, 71, 64
4, 18960, Note_off_c, 0, 71, 64
4, 18960, Note_off_c, 0, 66, 64
4, 18960, Note_on_c, 0, 66, 64
4, 18960, Note_on_c, 0, 71, 64
4, 18984, Note_off_c, 0, 71, 64
4, 18984, Note_off_c, 0, 66, 64
4, 18984, Note_on_c, 0, 66, 64
4, 18984, Note_on_c, 0, 71, 64
4, 19008, Note_off_c, 0, 71, 64
4, 19008, Note_off_c, 0, 66, 64
4, 19008, Note_on_c, 0, 64, 64
4, 19008, Note_on_c, 0, 69, 64
4, 19032, Note_off_c, 0, 69, 64
4, 19032, Note_off_c, 0, 64, 64
4, 19032, Note_on_c, 0, 64, 64
4, 19032, Note_on_c, 0, 69, 64
4, 19056, Note_off_c, 0, 69, 64
4, 19056, Note_off_c, 0, 64, 64
4, 19056, Note_on_c, 0, 69, 64
4, 19056, Note_on_c, 0, 64, 64
4, 19080, Note_off_c, 0, 64, 64
4, 19080, Note_off_c, 0, 69, 64
4, 19080, Note_on_c, 0, 66, 64
4, 19080, Note_on_c, 0, 71, 64
4, 19104, Note_off_c, 0, 71, 64
4, 19104, Note_off_c, 0, 66, 64
4, 19104, Note_on_c, 0, 66, 64
4, 19104, Note_on_c, 0, 71, 64
4, 19128, Note_off_c, 0, 66, 64
4, 19128, Note_off_c, 0, 71, 64
4, 19128, Note_on_c, 0, 66, 64
4, 19128, Note_on_c, 0, 71, 64
4, 19152, Note_off_c, 0, 71, 64
4, 19152, Note_off_c, 0, 66, 64
4, 19152, Note_on_c, 0, 64, 64
4, 19152, Note_on_c, 0, 69, 64
4, 19176, Note_off_c, 0, 69, 64
4, 19176, Note_off_c, 0, 64, 64
4, 19176, Note_on_c, 0, 64, 64
4, 19176, Note_on_c, 0, 69, 64
4, 19200, Note_off_c, 0, 69, 64
4, 19200, Note_off_c, 0, 64, 64
4, 19200, Note_on_c, 0, 76, 64
4, 19200, Note_on_c, 0, 69, 64
4, 19224, Note_off_c, 0, 76, 64
4, 19224, Note_off_c, 0, 69, 64
4, 19224, Note_on_c, 0, 69, 64
4, 19224, Note_on_c, 0, 76, 64
4, 19248, Note_off_c, 0, 76, 64
4, 19248, Note_off_c, 0, 69, 64
4, 19248, Note_on_c, 0, 69, 64
4, 19248, Note_on_c, 0, 76, 64
4, 19272, Note_off_c, 0, 76, 64
4, 19272, Note_off_c, 0, 69, 64
4, 19272, Note_on_c, 0, 69, 64
4, 19272, Note_on_c, 0, 76, 64
4, 19296, Note_off_c, 0, 76, 64
4, 19296, Note_off_c, 0, 69, 64
4, 19296, Note_on_c, 0, 66, 64
4, 19296, Note_on_c, 0, 71, 64
4, 19320, Note_off_c, 0, 66, 64
4, 19320, Note_off_c, 0, 71, 64
4, 19320, Note_on_c, 0, 66, 64
4, 19320, Note_on_c, 0, 71, 64
4, 19344, Note_off_c, 0, 71, 64
4, 19344, Note_off_c, 0, 66, 64
4, 19344, Note_on_c, 0, 66, 64
4, 19344, Note_on_c, 0, 71, 64
4, 19368, Note_off_c, 0, 71, 64
4, 19368, Note_off_c, 0, 66, 64
4, 19368, Note_on_c, 0, 66, 64
4, 19368, Note_on_c, 0, 71, 64
4, 19392, Note_off_c, 0, 71, 64
4, 19392, Note_off_c, 0, 66, 64
4, 19392, Note_on_c, 0, 64, 64
4, 19392, Note_on_c, 0, 69, 64
4, 19416, Note_off_c, 0, 69, 64
4, 19416, Note_off_c, 0, 64, 64
4, 19416, Note_on_c, 0, 69, 64
4, 19416, Note_on_c, 0, 64, 64
4, 19440, Note_off_c, 0, 64, 64
4, 19440, Note_off_c, 0, 69, 64
4, 19440, Note_on_c, 0, 69, 64
4, 19440, Note_on_c, 0, 64, 64
4, 19464, Note_off_c, 0, 64, 64
4, 19464, Note_off_c, 0, 69, 64
4, 19464, Note_on_c, 0, 69, 64
4, 19464, Note_on_c, 0, 64, 64
4, 19488, Note_off_c, 0, 64, 64
4, 19488, Note_off_c, 0, 69, 64
4, 19488, Note_on_c, 0, 71, 64
4, 19488, Note_on_c, 0, 66, 64
4, 19512, Note_off_c, 0, 71, 64
4, 19512, Note_off_c, 0, 66, 64
4, 19512, Note_on_c, 0, 71, 64
4, 19512, Note_on_c, 0, 66, 64
4, 19536, Note_off_c, 0, 66, 64
4, 19536, Note_off_c, 0, 71, 64
4, 19536, Note_on_c, 0, 71, 64
4, 19536, Note_on_c, 0, 66, 64
4, 19560, Note_off_c, 0, 66, 64
4, 19560, Note_off_c, 0, 71, 64
4, 19560, Note_on_c, 0, 71, 64
4, 19560, Note_on_c, 0, 66, 64
4, 19584, Note_off_c, 0, 66, 64
4, 19584, Note_off_c, 0, 71, 64
4, 19584, Note_on_c, 0, 69, 64
4, 19584, Note_on_c, 0, 76, 64
4, 19608, Note_off_c, 0, 69, 64
4, 19608, Note_off_c, 0, 76, 64
4, 19608, Note_on_c, 0, 69, 64
4, 19608, Note_on_c, 0, 76, 64
4, 19632, Note_off_c, 0, 76, 64
4, 19632, Note_off_c, 0, 69, 64
4, 19632, Note_on_c, 0, 69, 64
4, 19632, Note_on_c, 0, 76, 64
4, 19656, Note_off_c, 0, 76, 64
4, 19656, Note_off_c, 0, 69, 64
4, 19656, Note_on_c, 0, 69, 64
4, 19656, Note_on_c, 0, 76, 64
4, 19680, Note_off_c, 0, 76, 64
4, 19680, Note_off_c, 0, 69, 64
4, 19680, Note_on_c, 0, 66, 64
4, 19680, Note_on_c, 0, 71, 64
4, 19704, Note_off_c, 0, 66, 64
4, 19704, Note_off_c, 0, 71, 64
4, 19704, Note_on_c, 0, 66, 64
4, 19704, Note_on_c, 0, 71, 64
4, 19728, Note_off_c, 0, 71, 64
4, 19728, Note_off_c, 0, 66, 64
4, 19728, Note_on_c, 0, 66, 64
4, 19728, Note_on_c, 0, 71, 64
4, 19752, Note_off_c, 0, 71, 64
4, 19752, Note_off_c, 0, 66, 64
4, 19752, Note_on_c, 0, 66, 64
4, 19752, Note_on_c, 0, 71, 64
4, 19776, Note_off_c, 0, 71, 64
4, 19776, Note_off_c, 0, 66, 64
4, 19776, Note_on_c, 0, 69, 64
4, 19776, Note_on_c, 0, 64, 64
4, 19800, Note_off_c, 0, 64, 64
4, 19800, Note_off_c, 0, 69, 64
4, 19800, Note_on_c, 0, 69, 64
4, 19800, Note_on_c, 0, 64, 64
4, 19824, Note_off_c, 0, 64, 64
4, 19824, Note_off_c, 0, 69, 64
4, 19824, Note_on_c, 0, 64, 64
4, 19824, Note_on_c, 0, 69, 64
4, 19848, Note_off_c, 0, 69, 64
4, 19848, Note_off_c, 0, 64, 64
4, 19848, Note_on_c, 0, 66, 64
4, 19848, Note_on_c, 0, 71, 64
4, 19872, Note_off_c, 0, 71, 64
4, 19872, Note_off_c, 0, 66, 64
4, 19872, Note_on_c, 0, 66, 64
4, 19872, Note_on_c, 0, 71, 64
4, 19896, Note_off_c, 0, 66, 64
4, 19896, Note_off_c, 0, 71, 64
4, 19896, Note_on_c, 0, 66, 64
4, 19896, Note_on_c, 0, 71, 64
4, 19920, Note_off_c, 0, 71, 64
4, 19920, Note_off_c, 0, 66, 64
4, 19920, Note_on_c, 0, 69, 64
4, 19920, Note_on_c, 0, 64, 64
4, 19944, Note_off_c, 0, 64, 64
4, 19944, Note_off_c, 0, 69, 64
4, 19944, Note_on_c, 0, 64, 64
4, 19944, Note_on_c, 0, 69, 64
4, 19968, Note_off_c, 0, 69, 64
4, 19968, Note_off_c, 0, 64, 64
4, 19968, Note_on_c, 0, 69, 64
4, 19968, Note_on_c, 0, 76, 64
4, 19992, Note_off_c, 0, 69, 64
4, 19992, Note_off_c, 0, 76, 64
4, 19992, Note_on_c, 0, 69, 64
4, 19992, Note_on_c, 0, 76, 64
4, 20016, Note_off_c, 0, 76, 64
4, 20016, Note_off_c, 0, 69, 64
4, 20016, Note_on_c, 0, 69, 64
4, 20016, Note_on_c, 0, 76, 64
4, 20040, Note_off_c, 0, 76, 64
4, 20040, Note_off_c, 0, 69, 64
4, 20040, Note_on_c, 0, 69, 64
4, 20040, Note_on_c, 0, 76, 64
4, 20064, Note_off_c, 0, 76, 64
4, 20064, Note_off_c, 0, 69, 64
4, 20064, Note_on_c, 0, 66, 64
4, 20064, Note_on_c, 0, 71, 64
4, 20088, Note_off_c, 0, 66, 64
4, 20088, Note_off_c, 0, 71, 64
4, 20088, Note_on_c, 0, 66, 64
4, 20088, Note_on_c, 0, 71, 64
4, 20112, Note_off_c, 0, 71, 64
4, 20112, Note_off_c, 0, 66, 64
4, 20112, Note_on_c, 0, 66, 64
4, 20112, Note_on_c, 0, 71, 64
4, 20136, Note_off_c, 0, 71, 64
4, 20136, Note_off_c, 0, 66, 64
4, 20136, Note_on_c, 0, 71, 64
4, 20136, Note_on_c, 0, 66, 64
4, 20160, Note_off_c, 0, 66, 64
4, 20160, Note_off_c, 0, 71, 64
4, 20160, Note_on_c, 0, 64, 64
4, 20160, Note_on_c, 0, 69, 64
4, 20184, Note_off_c, 0, 69, 64
4, 20184, Note_off_c, 0, 64, 64
4, 20184, Note_on_c, 0, 64, 64
4, 20184, Note_on_c, 0, 69, 64
4, 20208, Note_off_c, 0, 69, 64
4, 20208, Note_off_c, 0, 64, 64
4, 20208, Note_on_c, 0, 64, 64
4, 20208, Note_on_c, 0, 69, 64
4, 20232, Note_off_c, 0, 69, 64
4, 20232, Note_off_c, 0, 64, 64
4, 20232, Note_on_c, 0, 64, 64
4, 20232, Note_on_c, 0, 69, 64
4, 20256, Note_off_c, 0, 69, 64
4, 20256, Note_off_c, 0, 64, 64
4, 20256, Note_on_c, 0, 66, 64
4, 20256, Note_on_c, 0, 71, 64
4, 20280, Note_off_c, 0, 66, 64
4, 20280, Note_off_c, 0, 71, 64
4, 20280, Note_on_c, 0, 66, 64
4, 20280, Note_on_c, 0, 71, 64
4, 20304, Note_off_c, 0, 71, 64
4, 20304, Note_off_c, 0, 66, 64
4, 20304, Note_on_c, 0, 66, 64
4, 20304, Note_on_c, 0, 71, 64
4, 20328, Note_off_c, 0, 71, 64
4, 20328, Note_off_c, 0, 66, 64
4, 20328, Note_on_c, 0, 66, 64
4, 20328, Note_on_c, 0, 71, 64
4, 20352, Note_off_c, 0, 71, 64
4, 20352, Note_off_c, 0, 66, 64
4, 20352, Note_on_c, 0, 69, 64
4, 20352, Note_on_c, 0, 76, 64
4, 20376, Note_off_c, 0, 69, 64
4, 20376, Note_off_c, 0, 76, 64
4, 20376, Note_on_c, 0, 69, 64
4, 20376, Note_on_c, 0, 76, 64
4, 20400, Note_off_c, 0, 76, 64
4, 20400, Note_off_c, 0, 69, 64
4, 20400, Note_on_c, 0, 69, 64
4, 20400, Note_on_c, 0, 76, 64
4, 20424, Note_off_c, 0, 76, 64
4, 20424, Note_off_c, 0, 69, 64
4, 20424, Note_on_c, 0, 69, 64
4, 20424, Note_on_c, 0, 76, 64
4, 20448, Note_off_c, 0, 76, 64
4, 20448, Note_off_c, 0, 69, 64
4, 20448, Note_on_c, 0, 66, 64
4, 20448, Note_on_c, 0, 71, 64
4, 20472, Note_off_c, 0, 66, 64
4, 20472, Note_off_c, 0, 71, 64
4, 20472, Note_on_c, 0, 66, 64
4, 20472, Note_on_c, 0, 71, 64
4, 20496, Note_off_c, 0, 71, 64
4, 20496, Note_off_c, 0, 66, 64
4, 20496, Note_on_c, 0, 66, 64
4, 20496, Note_on_c, 0, 71, 64
4, 20520, Note_off_c, 0, 71, 64
4, 20520, Note_off_c, 0, 66, 64
4, 20520, Note_on_c, 0, 66, 64
4, 20520, Note_on_c, 0, 71, 64
4, 20544, Note_off_c, 0, 71, 64
4, 20544, Note_off_c, 0, 66, 64
4, 20544, Note_on_c, 0, 64, 64
4, 20544, Note_on_c, 0, 69, 64
4, 20568, Note_off_c, 0, 69, 64
4, 20568, Note_off_c, 0, 64, 64
4, 20568, Note_on_c, 0, 64, 64
4, 20568, Note_on_c, 0, 69, 64
4, 20592, Note_off_c, 0, 69, 64
4, 20592, Note_off_c, 0, 64, 64
4, 20592, Note_on_c, 0, 69, 64
4, 20592, Note_on_c, 0, 64, 64
4, 20616, Note_off_c, 0, 64, 64
4, 20616, Note_off_c, 0, 69, 64
4, 20616, Note_on_c, 0, 66, 64
4, 20616, Note_on_c, 0, 71, 64
4, 20640, Note_off_c, 0, 71, 64
4, 20640, Note_off_c, 0, 66, 64
4, 20640, Note_on_c, 0, 66, 64
4, 20640, Note_on_c, 0, 71, 64
4, 20664, Note_off_c, 0, 66, 64
4, 20664, Note_off_c, 0, 71, 64
4, 20664, Note_on_c, 0, 66, 64
4, 20664, Note_on_c, 0, 71, 64
4, 20688, Note_off_c, 0, 71, 64
4, 20688, Note_off_c, 0, 66, 64
4, 20688, Note_on_c, 0, 64, 64
4, 20688, Note_on_c, 0, 69, 64
4, 20712, Note_off_c, 0, 69, 64
4, 20712, Note_off_c, 0, 64, 64
4, 20712, Note_on_c, 0, 64, 64
4, 20712, Note_on_c, 0, 69, 64
4, 20736, Note_off_c, 0, 69, 64
4, 20736, Note_off_c, 0, 64, 64
4, 23424, Note_on_c, 0, 76, 64
4, 23424, Note_on_c, 0, 69, 64
4, 23448, Note_off_c, 0, 76, 64
4, 23448, Note_off_c, 0, 69, 64
4, 23448, Note_on_c, 0, 69, 64
4, 23448, Note_on_c, 0, 76, 64
4, 23472, Note_off_c, 0, 76, 64
4, 23472, Note_off_c, 0, 69, 64
4, 23472, Note_on_c, 0, 69, 64
4, 23472, Note_on_c, 0, 76, 64
4, 23496, Note_off_c, 0, 76, 64
4, 23496, Note_off_c, 0, 69, 64
4, 23496, Note_on_c, 0, 69, 64
4, 23496, Note_on_c, 0, 76, 64
4, 23520, Note_off_c, 0, 76, 64
4, 23520, Note_off_c, 0, 69, 64
4, 23520, Note_on_c, 0, 66, 64
4, 23520, Note_on_c, 0, 71, 64
4, 23544, Note_off_c, 0, 66, 64
4, 23544, Note_off_c, 0, 71, 64
4, 23544, Note_on_c, 0, 66, 64
4, 23544, Note_on_c, 0, 71, 64
4, 23568, Note_off_c, 0, 71, 64
4, 23568, Note_off_c, 0, 66, 64
4, 23568, Note_on_c, 0, 66, 64
4, 23568, Note_on_c, 0, 71, 64
4, 23592, Note_off_c, 0, 71, 64
4, 23592, Note_off_c, 0, 66, 64
4, 23592, Note_on_c, 0, 66, 64
4, 23592, Note_on_c, 0, 71, 64
4, 23616, Note_off_c, 0, 71, 64
4, 23616, Note_off_c, 0, 66, 64
4, 23616, Note_on_c, 0, 64, 64
4, 23616, Note_on_c, 0, 69, 64
4, 23640, Note_off_c, 0, 69, 64
4, 23640, Note_off_c, 0, 64, 64
4, 23640, Note_on_c, 0, 69, 64
4, 23640, Note_on_c, 0, 64, 64
4, 23664, Note_off_c, 0, 64, 64
4, 23664, Note_off_c, 0, 69, 64
4, 23664, Note_on_c, 0, 69, 64
4, 23664, Note_on_c, 0, 64, 64
4, 23688, Note_off_c, 0, 64, 64
4, 23688, Note_off_c, 0, 69, 64
4, 23688, Note_on_c, 0, 69, 64
4, 23688, Note_on_c, 0, 64, 64
4, 23712, Note_off_c, 0, 64, 64
4, 23712, Note_off_c, 0, 69, 64
4, 23712, Note_on_c, 0, 71, 64
4, 23712, Note_on_c, 0, 66, 64
4, 23736, Note_off_c, 0, 71, 64
4, 23736, Note_off_c, 0, 66, 64
4, 23736, Note_on_c, 0, 71, 64
4, 23736, Note_on_c, 0, 66, 64
4, 23760, Note_off_c, 0, 66, 64
4, 23760, Note_off_c, 0, 71, 64
4, 23760, Note_on_c, 0, 71, 64
4, 23760, Note_on_c, 0, 66, 64
4, 23784, Note_off_c, 0, 66, 64
4, 23784, Note_off_c, 0, 71, 64
4, 23784, Note_on_c, 0, 71, 64
4, 23784, Note_on_c, 0, 66, 64
4, 23808, Note_off_c, 0, 66, 64
4, 23808, Note_off_c, 0, 71, 64
4, 23808, Note_on_c, 0, 69, 64
4, 23808, Note_on_c, 0, 76, 64
4, 23832, Note_off_c, 0, 69, 64
4, 23832, Note_off_c, 0, 76, 64
4, 23832, Note_on_c, 0, 69, 64
4, 23832, Note_on_c, 0, 76, 64
4, 23856, Note_off_c, 0, 76, 64
4, 23856, Note_off_c, 0, 69, 64
4, 23856, Note_on_c, 0, 69, 64
4, 23856, Note_on_c, 0, 76, 64
4, 23880, Note_off_c, 0, 76, 64
4, 23880, Note_off_c, 0, 69, 64
4, 23880, Note_on_c, 0, 69, 64
4, 23880, Note_on_c, 0, 76, 64
4, 23904, Note_off_c, 0, 76, 64
4, 23904, Note_off_c, 0, 69, 64
4, 23904, Note_on_c, 0, 66, 64
4, 23904, Note_on_c, 0, 71, 64
4, 23928, Note_off_c, 0, 66, 64
4, 23928, Note_off_c, 0, 71, 64
4, 23928, Note_on_c, 0, 66, 64
4, 23928, Note_on_c, 0, 71, 64
4, 23952, Note_off_c, 0, 71, 64
4, 23952, Note_off_c, 0, 66, 64
4, 23952, Note_on_c, 0, 66, 64
4, 23952, Note_on_c, 0, 71, 64
4, 23976, Note_off_c, 0, 71, 64
4, 23976, Note_off_c, 0, 66, 64
4, 23976, Note_on_c, 0, 66, 64
4, 23976, Note_on_c, 0, 71, 64
4, 24000, Note_off_c, 0, 71, 64
4, 24000, Note_off_c, 0, 66, 64
4, 24000, Note_on_c, 0, 69, 64
4, 24000, Note_on_c, 0, 64, 64
4, 24024, Note_off_c, 0, 64, 64
4, 24024, Note_off_c, 0, 69, 64
4, 24024, Note_on_c, 0, 69, 64
4, 24024, Note_on_c, 0, 64, 64
4, 24048, Note_off_c, 0, 64, 64
4, 24048, Note_off_c, 0, 69, 64
4, 24048, Note_on_c, 0, 64, 64
4, 24048, Note_on_c, 0, 69, 64
4, 24072, Note_off_c, 0, 69, 64
4, 24072, Note_off_c, 0, 64, 64
4, 24072, Note_on_c, 0, 66, 64
4, 24072, Note_on_c, 0, 71, 64
4, 24096, Note_off_c, 0, 71, 64
4, 24096, Note_off_c, 0, 66, 64
4, 24096, Note_on_c, 0, 66, 64
4, 24096, Note_on_c, 0, 71, 64
4, 24120, Note_off_c, 0, 66, 64
4, 24120, Note_off_c, 0, 71, 64
4, 24120, Note_on_c, 0, 66, 64
4, 24120, Note_on_c, 0, 71, 64
4, 24144, Note_off_c, 0, 71, 64
4, 24144, Note_off_c, 0, 66, 64
4, 24144, Note_on_c, 0, 69, 64
4, 24144, Note_on_c, 0, 64, 64
4, 24168, Note_off_c, 0, 64, 64
4, 24168, Note_off_c, 0, 69, 64
4, 24168, Note_on_c, 0, 64, 64
4, 24168, Note_on_c, 0, 69, 64
4, 24192, Note_off_c, 0, 69, 64
4, 24192, Note_off_c, 0, 64, 64
4, 24192, Note_on_c, 0, 69, 64
4, 24192, Note_on_c, 0, 76, 64
4, 24216, Note_off_c, 0, 69, 64
4, 24216, Note_off_c, 0, 76, 64
4, 24216, Note_on_c, 0, 69, 64
4, 24216, Note_on_c, 0, 76, 64
4, 24240, Note_off_c, 0, 76, 64
4, 24240, Note_off_c, 0, 69, 64
4, 24240, Note_on_c, 0, 69, 64
4, 24240, Note_on_c, 0, 76, 64
4, 24264, Note_off_c, 0, 76, 64
4, 24264, Note_off_c, 0, 69, 64
4, 24264, Note_on_c, 0, 69, 64
4, 24264, Note_on_c, 0, 76, 64
4, 24288, Note_off_c, 0, 76, 64
4, 24288, Note_off_c, 0, 69, 64
4, 24288, Note_on_c, 0, 66, 64
4, 24288, Note_on_c, 0, 71, 64
4, 24312, Note_off_c, 0, 66, 64
4, 24312, Note_off_c, 0, 71, 64
4, 24312, Note_on_c, 0, 66, 64
4, 24312, Note_on_c, 0, 71, 64
4, 24336, Note_off_c, 0, 71, 64
4, 24336, Note_off_c, 0, 66, 64
4, 24336, Note_on_c, 0, 66, 64
4, 24336, Note_on_c, 0, 71, 64
4, 24360, Note_off_c, 0, 71, 64
4, 24360, Note_off_c, 0, 66, 64
4, 24360, Note_on_c, 0, 71, 64
4, 24360, Note_on_c, 0, 66, 64
4, 24384, Note_off_c, 0, 66, 64
4, 24384, Note_off_c, 0, 71, 64
4, 24384, Note_on_c, 0, 64, 64
4, 24384, Note_on_c, 0, 69, 64
4, 24408, Note_off_c, 0, 69, 64
4, 24408, Note_off_c, 0, 64, 64
4, 24408, Note_on_c, 0, 64, 64
4, 24408, Note_on_c, 0, 69, 64
4, 24432, Note_off_c, 0, 69, 64
4, 24432, Note_off_c, 0, 64, 64
4, 24432, Note_on_c, 0, 64, 64
4, 24432, Note_on_c, 0, 69, 64
4, 24456, Note_off_c, 0, 69, 64
4, 24456, Note_off_c, 0, 64, 64
4, 24456, Note_on_c, 0, 64, 64
4, 24456, Note_on_c, 0, 69, 64
4, 24480, Note_off_c, 0, 69, 64
4, 24480, Note_off_c, 0, 64, 64
4, 24480, Note_on_c, 0, 66, 64
4, 24480, Note_on_c, 0, 71, 64
4, 24504, Note_off_c, 0, 66, 64
4, 24504, Note_off_c, 0, 71, 64
4, 24504, Note_on_c, 0, 66, 64
4, 24504, Note_on_c, 0, 71, 64
4, 24528, Note_off_c, 0, 71, 64
4, 24528, Note_off_c, 0, 66, 64
4, 24528, Note_on_c, 0, 66, 64
4, 24528, Note_on_c, 0, 71, 64
4, 24552, Note_off_c, 0, 71, 64
4, 24552, Note_off_c, 0, 66, 64
4, 24552, Note_on_c, 0, 66, 64
4, 24552, Note_on_c, 0, 71, 64
4, 24576, Note_off_c, 0, 71, 64
4, 24576, Note_off_c, 0, 66, 64
4, 24576, Note_on_c, 0, 69, 64
4, 24576, Note_on_c, 0, 76, 64
4, 24600, Note_off_c, 0, 69, 64
4, 24600, Note_off_c, 0, 76, 64
4, 24600, Note_on_c, 0, 69, 64
4, 24600, Note_on_c, 0, 76, 64
4, 24624, Note_off_c, 0, 76, 64
4, 24624, Note_off_c, 0, 69, 64
4, 24624, Note_on_c, 0, 69, 64
4, 24624, Note_on_c, 0, 76, 64
4, 24648, Note_off_c, 0, 76, 64
4, 24648, Note_off_c, 0, 69, 64
4, 24648, Note_on_c, 0, 69, 64
4, 24648, Note_on_c, 0, 76, 64
4, 24672, Note_off_c, 0, 76, 64
4, 24672, Note_off_c, 0, 69, 64
4, 24672, Note_on_c, 0, 66, 64
4, 24672, Note_on_c, 0, 71, 64
4, 24696, Note_off_c, 0, 66, 64
4, 24696, Note_off_c, 0, 71, 64
4, 24696, Note_on_c, 0, 66, 64
4, 24696, Note_on_c, 0, 71, 64
4, 24720, Note_off_c, 0, 71, 64
4, 24720, Note_off_c, 0, 66, 64
4, 24720, Note_on_c, 0, 66, 64
4, 24720, Note_on_c, 0, 71, 64
4, 24744, Note_off_c, 0, 71, 64
4, 24744, Note_off_c, 0, 66, 64
4, 24744, Note_on_c, 0, 66, 64
4, 24744, Note_on_c, 0, 71, 64
4, 24768, Note_off_c, 0, 71, 64
4, 24768, Note_off_c, 0, 66, 64
4, 24768, Note_on_c, 0, 64, 64
4, 24768, Note_on_c, 0, 69, 64
4, 24792, Note_off_c, 0, 69, 64
4, 24792, Note_off_c, 0, 64, 64
4, 24792, Note_on_c, 0, 64, 64
4, 24792, Note_on_c, 0, 69, 64
4, 24816, Note_off_c, 0, 69, 64
4, 24816, Note_off_c, 0, 64, 64
4, 24816, Note_on_c, 0, 69, 64
4, 24816, Note_on_c, 0, 64, 64
4, 24840, Note_off_c, 0, 64, 64
4, 24840, Note_off_c, 0, 69, 64
4, 24840, Note_on_c, 0, 66, 64
4, 24840, Note_on_c, 0, 71, 64
4, 24864, Note_off_c, 0, 71, 64
4, 24864, Note_off_c, 0, 66, 64
4, 24864, Note_on_c, 0, 66, 64
4, 24864, Note_on_c, 0, 71, 64
4, 24888, Note_off_c, 0, 66, 64
4, 24888, Note_off_c, 0, 71, 64
4, 24888, Note_on_c, 0, 66, 64
4, 24888, Note_on_c, 0, 71, 64
4, 24912, Note_off_c, 0, 71, 64
4, 24912, Note_off_c, 0, 66, 64
4, 24912, Note_on_c, 0, 64, 64
4, 24912, Note_on_c, 0, 69, 64
4, 24936, Note_off_c, 0, 69, 64
4, 24936, Note_off_c, 0, 64, 64
4, 24936, Note_on_c, 0, 64, 64
4, 24936, Note_on_c, 0, 69, 64
4, 24960, Note_off_c, 0, 69, 64
4, 24960, Note_off_c, 0, 64, 64
4, 24960, Note_on_c, 0, 76, 64
4, 24960, Note_on_c, 0, 69, 64
4, 24984, Note_off_c, 0, 76, 64
4, 24984, Note_off_c, 0, 69, 64
4, 24984, Note_on_c, 0, 69, 64
4, 24984, Note_on_c, 0, 76, 64
4, 25008, Note_off_c, 0, 76, 64
4, 25008, Note_off_c, 0, 69, 64
4, 25008, Note_on_c, 0, 69, 64
4, 25008, Note_on_c, 0, 76, 64
4, 25032, Note_off_c, 0, 76, 64
4, 25032, Note_off_c, 0, 69, 64
4, 25032, Note_on_c, 0, 69, 64
4, 25032, Note_on_c, 0, 76, 64
4, 25056, Note_off_c, 0, 76, 64
4, 25056, Note_off_c, 0, 69, 64
4, 25056, Note_on_c, 0, 66, 64
4, 25056, Note_on_c, 0, 71, 64
4, 25080, Note_off_c, 0, 66, 64
4, 25080, Note_off_c, 0, 71, 64
4, 25080, Note_on_c, 0, 66, 64
4, 25080, Note_on_c, 0, 71, 64
4, 25104, Note_off_c, 0, 71, 64
4, 25104, Note_off_c, 0, 66, 64
4, 25104, Note_on_c, 0, 66, 64
4, 25104, Note_on_c, 0, 71, 64
4, 25128, Note_off_c, 0, 71, 64
4, 25128, Note_off_c, 0, 66, 64
4, 25128, Note_on_c, 0, 66, 64
4, 25128, Note_on_c, 0, 71, 64
4, 25152, Note_off_c, 0, 71, 64
4, 25152, Note_off_c, 0, 66, 64
4, 25152, Note_on_c, 0, 64, 64
4, 25152, Note_on_c, 0, 69, 64
4, 25176, Note_off_c, 0, 69, 64
4, 25176, Note_off_c, 0, 64, 64
4, 25176, Note_on_c, 0, 69, 64
4, 25176, Note_on_c, 0, 64, 64
4, 25200, Note_off_c, 0, 64, 64
4, 25200, Note_off_c, 0, 69, 64
4, 25200, Note_on_c, 0, 69, 64
4, 25200, Note_on_c, 0, 64, 64
4, 25224, Note_off_c, 0, 64, 64
4, 25224, Note_off_c, 0, 69, 64
4, 25224, Note_on_c, 0, 69, 64
4, 25224, Note_on_c, 0, 64, 64
4, 25248, Note_off_c, 0, 64, 64
4, 25248, Note_off_c, 0, 69, 64
4, 25248, Note_on_c, 0, 71, 64
4, 25248, Note_on_c, 0, 66, 64
4, 25272, Note_off_c, 0, 71, 64
4, 25272, Note_off_c, 0, 66, 64
4, 25272, Note_on_c, 0, 71, 64
4, 25272, Note_on_c, 0, 66, 64
4, 25296, Note_off_c, 0, 66, 64
4, 25296, Note_off_c, 0, 71, 64
4, 25296, Note_on_c, 0, 71, 64
4, 25296, Note_on_c, 0, 66, 64
4, 25320, Note_off_c, 0, 66, 64
4, 25320, Note_off_c, 0, 71, 64
4, 25320, Note_on_c, 0, 71, 64
4, 25320, Note_on_c, 0, 66, 64
4, 25344, Note_off_c, 0, 66, 64
4, 25344, Note_off_c, 0, 71, 64
4, 25344, Note_on_c, 0, 69, 64
4, 25344, Note_on_c, 0, 76, 64
4, 25368, Note_off_c, 0, 69, 64
4, 25368, Note_off_c, 0, 76, 64
4, 25368, Note_on_c, 0, 69, 64
4, 25368, Note_on_c, 0, 76, 64
4, 25392, Note_off_c, 0, 76, 64
4, 25392, Note_off_c, 0, 69, 64
4, 25392, Note_on_c, 0, 69, 64
4, 25392, Note_on_c, 0, 76, 64
4, 25416, Note_off_c, 0, 76, 64
4, 25416, Note_off_c, 0, 69, 64
4, 25416, Note_on_c, 0, 69, 64
4, 25416, Note_on_c, 0, 76, 64
4, 25440, Note_off_c, 0, 76, 64
4, 25440, Note_off_c, 0, 69, 64
4, 25440, Note_on_c, 0, 66, 64
4, 25440, Note_on_c, 0, 71, 64
4, 25464, Note_off_c, 0, 66, 64
4, 25464, Note_off_c, 0, 71, 64
4, 25464, Note_on_c, 0, 66, 64
4, 25464, Note_on_c, 0, 71, 64
4, 25488, Note_off_c, 0, 71, 64
4, 25488, Note_off_c, 0, 66, 64
4, 25488, Note_on_c, 0, 66, 64
4, 25488, Note_on_c, 0, 71, 64
4, 25512, Note_off_c, 0, 71, 64
4, 25512, Note_off_c, 0, 66, 64
4, 25512, Note_on_c, 0, 66, 64
4, 25512, Note_on_c, 0, 71, 64
4, 25536, Note_off_c, 0, 71, 64
4, 25536, Note_off_c, 0, 66, 64
4, 25536, Note_on_c, 0, 69, 64
4, 25536, Note_on_c, 0, 64, 64
4, 25560, Note_off_c, 0, 64, 64
4, 25560, Note_off_c, 0, 69, 64
4, 25560, Note_on_c, 0, 69, 64
4, 25560, Note_on_c, 0, 64, 64
4, 25584, Note_off_c, 0, 64, 64
4, 25584, Note_off_c, 0, 69, 64
4, 25584, Note_on_c, 0, 64, 64
4, 25584, Note_on_c, 0, 69, 64
4, 25608, Note_off_c, 0, 69, 64
4, 25608, Note_off_c, 0, 64, 64
4, 25608, Note_on_c, 0, 66, 64
4, 25608, Note_on_c, 0, 71, 64
4, 25632, Note_off_c, 0, 71, 64
4, 25632, Note_off_c, 0, 66, 64
4, 25632, Note_on_c, 0, 66, 64
4, 25632, Note_on_c, 0, 71, 64
4, 25656, Note_off_c, 0, 66, 64
4, 25656, Note_off_c, 0, 71, 64
4, 25656, Note_on_c, 0, 66, 64
4, 25656, Note_on_c, 0, 71, 64
4, 25680, Note_off_c, 0, 71, 64
4, 25680, Note_off_c, 0, 66, 64
4, 25680, Note_on_c, 0, 69, 64
4, 25680, Note_on_c, 0, 64, 64
4, 25704, Note_off_c, 0, 64, 64
4, 25704, Note_off_c, 0, 69, 64
4, 25704, Note_on_c, 0, 64, 64
4, 25704, Note_on_c, 0, 69, 64
4, 25728, Note_off_c, 0, 69, 64
4, 25728, Note_off_c, 0, 64, 64
4, 25728, Note_on_c, 0, 69, 64
4, 25728, Note_on_c, 0, 76, 64
4, 25752, Note_off_c, 0, 69, 64
4, 25752, Note_off_c, 0, 76, 64
4, 25752, Note_on_c, 0, 69, 64
4, 25752, Note_on_c, 0, 76, 64
4, 25776, Note_off_c, 0, 76, 64
4, 25776, Note_off_c, 0, 69, 64
4, 25776, Note_on_c, 0, 69, 64
4, 25776, Note_on_c, 0, 76, 64
4, 25800, Note_off_c, 0, 76, 64
4, 25800, Note_off_c, 0, 69, 64
4, 25800, Note_on_c, 0, 69, 64
4, 25800, Note_on_c, 0, 76, 64
4, 25824, Note_off_c, 0, 76, 64
4, 25824, Note_off_c, 0, 69, 64
4, 25824, Note_on_c, 0, 66, 64
4, 25824, Note_on_c, 0, 71, 64
4, 25848, Note_off_c, 0, 66, 64
4, 25848, Note_off_c, 0, 71, 64
4, 25848, Note_on_c, 0, 66, 64
4, 25848, Note_on_c, 0, 71, 64
4, 25872, Note_off_c, 0, 71, 64
4, 25872, Note_off_c, 0, 66, 64
4, 25872, Note_on_c, 0, 66, 64
4, 25872, Note_on_c, 0, 71, 64
4, 25896, Note_off_c, 0, 71, 64
4, 25896, Note_off_c, 0, 66, 64
4, 25896, Note_on_c, 0, 71, 64
4, 25896, Note_on_c, 0, 66, 64
4, 25920, Note_off_c, 0, 66, 64
4, 25920, Note_off_c, 0, 71, 64
4, 25920, Note_on_c, 0, 64, 64
4, 25920, Note_on_c, 0, 69, 64
4, 25944, Note_off_c, 0, 69, 64
4, 25944, Note_off_c, 0, 64, 64
4, 25944, Note_on_c, 0, 64, 64
4, 25944, Note_on_c, 0, 69, 64
4, 25968, Note_off_c, 0, 69, 64
4, 25968, Note_off_c, 0, 64, 64
4, 25968, Note_on_c, 0, 64, 64
4, 25968, Note_on_c, 0, 69, 64
4, 25992, Note_off_c, 0, 69, 64
4, 25992, Note_off_c, 0, 64, 64
4, 25992, Note_on_c, 0, 64, 64
4, 25992, Note_on_c, 0, 69, 64
4, 26016, Note_off_c, 0, 69, 64
4, 26016, Note_off_c, 0, 64, 64
4, 26016, Note_on_c, 0, 66, 64
4, 26016, Note_on_c, 0, 71, 64
4, 26040, Note_off_c, 0, 66, 64
4, 26040, Note_off_c, 0, 71, 64
4, 26040, Note_on_c, 0, 66, 64
4, 26040, Note_on_c, 0, 71, 64
4, 26064, Note_off_c, 0, 71, 64
4, 26064, Note_off_c, 0, 66, 64
4, 26064, Note_on_c, 0, 66, 64
4, 26064, Note_on_c, 0, 71, 64
4, 26088, Note_off_c, 0, 71, 64
4, 26088, Note_off_c, 0, 66, 64
4, 26088, Note_on_c, 0, 66, 64
4, 26088, Note_on_c, 0, 71, 64
4, 26112, Note_off_c, 0, 71, 64
4, 26112, Note_off_c, 0, 66, 64
4, 26112, Note_on_c, 0, 69, 64
4, 26112, Note_on_c, 0, 76, 64
4, 26136, Note_off_c, 0, 69, 64
4, 26136, Note_off_c, 0, 76, 64
4, 26136, Note_on_c, 0, 69, 64
4, 26136, Note_on_c, 0, 76, 64
4, 26160, Note_off_c, 0, 76, 64
4, 26160, Note_off_c, 0, 69, 64
4, 26160, Note_on_c, 0, 69, 64
4, 26160, Note_on_c, 0, 76, 64
4, 26184, Note_off_c, 0, 76, 64
4, 26184, Note_off_c, 0, 69, 64
4, 26184, Note_on_c, 0, 69, 64
4, 26184, Note_on_c, 0, 76, 64
4, 26208, Note_off_c, 0, 76, 64
4, 26208, Note_off_c, 0, 69, 64
4, 26208, Note_on_c, 0, 66, 64
4, 26208, Note_on_c, 0, 71, 64
4, 26232, Note_off_c, 0, 66, 64
4, 26232, Note_off_c, 0, 71, 64
4, 26232, Note_on_c, 0, 66, 64
4, 26232, Note_on_c, 0, 71, 64
4, 26256, Note_off_c, 0, 71, 64
4, 26256, Note_off_c, 0, 66, 64
4, 26256, Note_on_c, 0, 66, 64
4, 26256, Note_on_c, 0, 71, 64
4, 26280, Note_off_c, 0, 71, 64
4, 26280, Note_off_c, 0, 66, 64
4, 26280, Note_on_c, 0, 66, 64
4, 26280, Note_on_c, 0, 71, 64
4, 26304, Note_off_c, 0, 71, 64
4, 26304, Note_off_c, 0, 66, 64
4, 26304, Note_on_c, 0, 64, 64
4, 26304, Note_on_c, 0, 69, 64
4, 26328, Note_off_c, 0, 64, 64
4, 26328, Note_off_c, 0, 69, 64
4, 26328, Note_on_c, 0, 64, 64
4, 26328, Note_on_c, 0, 69, 64
4, 26352, Note_off_c, 0, 69, 64
4, 26352, Note_off_c, 0, 64, 64
4, 26352, Note_on_c, 0, 69, 64
4, 26352, Note_on_c, 0, 64, 64
4, 26376, Note_off_c, 0, 64, 64
4, 26376, Note_off_c, 0, 69, 64
4, 26376, Note_on_c, 0, 66, 64
4, 26376, Note_on_c, 0, 71, 64
4, 26400, Note_off_c, 0, 71, 64
4, 26400, Note_off_c, 0, 66, 64
4, 26400, Note_on_c, 0, 66, 64
4, 26400, Note_on_c, 0, 71, 64
4, 26424, Note_off_c, 0, 66, 64
4, 26424, Note_off_c, 0, 71, 64
4, 26424, Note_on_c, 0, 66, 64
4, 26424, Note_on_c, 0, 71, 64
4, 26448, Note_off_c, 0, 71, 64
4, 26448, Note_off_c, 0, 66, 64
4, 26448, Note_on_c, 0, 64, 64
4, 26448, Note_on_c, 0, 69, 64
4, 26472, Note_off_c, 0, 69, 64
4, 26472, Note_off_c, 0, 64, 64
4, 26472, Note_on_c, 0, 64, 64
4, 26472, Note_on_c, 0, 69, 64
4, 26496, Note_off_c, 0, 69, 64
4, 26496, Note_off_c, 0, 64, 64
4, 28800, Note_on_c, 0, 76, 64
4, 28800, Note_on_c, 0, 69, 64
4, 28824, Note_off_c, 0, 69, 64
4, 28824, Note_off_c, 0, 76, 64
4, 28824, Note_on_c, 0, 69, 64
4, 28824, Note_on_c, 0, 76, 64
4, 28848, Note_off_c, 0, 76, 64
4, 28848, Note_off_c, 0, 69, 64
4, 28848, Note_on_c, 0, 69, 64
4, 28848, Note_on_c, 0, 76, 64
4, 28872, Note_off_c, 0, 76, 64
4, 28872, Note_off_c, 0, 69, 64
4, 28872, Note_on_c, 0, 69, 64
4, 28872, Note_on_c, 0, 76, 64
4, 28896, Note_off_c, 0, 76, 64
4, 28896, Note_off_c, 0, 69, 64
4, 28896, Note_on_c, 0, 66, 64
4, 28896, Note_on_c, 0, 71, 64
4, 28920, Note_off_c, 0, 66, 64
4, 28920, Note_off_c, 0, 71, 64
4, 28920, Note_on_c, 0, 66, 64
4, 28920, Note_on_c, 0, 71, 64
4, 28944, Note_off_c, 0, 71, 64
4, 28944, Note_off_c, 0, 66, 64
4, 28944, Note_on_c, 0, 66, 64
4, 28944, Note_on_c, 0, 71, 64
4, 28968, Note_off_c, 0, 71, 64
4, 28968, Note_off_c, 0, 66, 64
4, 28968, Note_on_c, 0, 66, 64
4, 28968, Note_on_c, 0, 71, 64
4, 28992, Note_off_c, 0, 71, 64
4, 28992, Note_off_c, 0, 66, 64
4, 28992, Note_on_c, 0, 64, 64
4, 28992, Note_on_c, 0, 69, 64
4, 29016, Note_off_c, 0, 69, 64
4, 29016, Note_off_c, 0, 64, 64
4, 29016, Note_on_c, 0, 69, 64
4, 29016, Note_on_c, 0, 64, 64
4, 29040, Note_off_c, 0, 64, 64
4, 29040, Note_off_c, 0, 69, 64
4, 29040, Note_on_c, 0, 69, 64
4, 29040, Note_on_c, 0, 64, 64
4, 29064, Note_off_c, 0, 64, 64
4, 29064, Note_off_c, 0, 69, 64
4, 29064, Note_on_c, 0, 69, 64
4, 29064, Note_on_c, 0, 64, 64
4, 29088, Note_off_c, 0, 64, 64
4, 29088, Note_off_c, 0, 69, 64
4, 29088, Note_on_c, 0, 71, 64
4, 29088, Note_on_c, 0, 66, 64
4, 29112, Note_off_c, 0, 71, 64
4, 29112, Note_off_c, 0, 66, 64
4, 29112, Note_on_c, 0, 71, 64
4, 29112, Note_on_c, 0, 66, 64
4, 29136, Note_off_c, 0, 66, 64
4, 29136, Note_off_c, 0, 71, 64
4, 29136, Note_on_c, 0, 71, 64
4, 29136, Note_on_c, 0, 66, 64
4, 29160, Note_off_c, 0, 66, 64
4, 29160, Note_off_c, 0, 71, 64
4, 29160, Note_on_c, 0, 71, 64
4, 29160, Note_on_c, 0, 66, 64
4, 29184, Note_off_c, 0, 66, 64
4, 29184, Note_off_c, 0, 71, 64
4, 29184, Note_on_c, 0, 69, 64
4, 29184, Note_on_c, 0, 76, 64
4, 29208, Note_off_c, 0, 76, 64
4, 29208, Note_off_c, 0, 69, 64
4, 29208, Note_on_c, 0, 69, 64
4, 29208, Note_on_c, 0, 76, 64
4, 29232, Note_off_c, 0, 76, 64
4, 29232, Note_off_c, 0, 69, 64
4, 29232, Note_on_c, 0, 69, 64
4, 29232, Note_on_c, 0, 76, 64
4, 29256, Note_off_c, 0, 76, 64
4, 29256, Note_off_c, 0, 69, 64
4, 29256, Note_on_c, 0, 69, 64
4, 29256, Note_on_c, 0, 76, 64
4, 29280, Note_off_c, 0, 76, 64
4, 29280, Note_off_c, 0, 69, 64
4, 29280, Note_on_c, 0, 66, 64
4, 29280, Note_on_c, 0, 71, 64
4, 29304, Note_off_c, 0, 66, 64
4, 29304, Note_off_c, 0, 71, 64
4, 29304, Note_on_c, 0, 66, 64
4, 29304, Note_on_c, 0, 71, 64
4, 29328, Note_off_c, 0, 71, 64
4, 29328, Note_off_c, 0, 66, 64
4, 29328, Note_on_c, 0, 66, 64
4, 29328, Note_on_c, 0, 71, 64
4, 29352, Note_off_c, 0, 71, 64
4, 29352, Note_off_c, 0, 66, 64
4, 29352, Note_on_c, 0, 66, 64
4, 29352, Note_on_c, 0, 71, 64
4, 29376, Note_off_c, 0, 71, 64
4, 29376, Note_off_c, 0, 66, 64
4, 29376, Note_on_c, 0, 69, 64
4, 29376, Note_on_c, 0, 64, 64
4, 29400, Note_off_c, 0, 64, 64
4, 29400, Note_off_c, 0, 69, 64
4, 29400, Note_on_c, 0, 69, 64
4, 29400, Note_on_c, 0, 64, 64
4, 29424, Note_off_c, 0, 64, 64
4, 29424, Note_off_c, 0, 69, 64
4, 29424, Note_on_c, 0, 64, 64
4, 29424, Note_on_c, 0, 69, 64
4, 29448, Note_off_c, 0, 69, 64
4, 29448, Note_off_c, 0, 64, 64
4, 29448, Note_on_c, 0, 66, 64
4, 29448, Note_on_c, 0, 71, 64
4, 29472, Note_off_c, 0, 71, 64
4, 29472, Note_off_c, 0, 66, 64
4, 29472, Note_on_c, 0, 66, 64
4, 29472, Note_on_c, 0, 71, 64
4, 29496, Note_off_c, 0, 66, 64
4, 29496, Note_off_c, 0, 71, 64
4, 29496, Note_on_c, 0, 66, 64
4, 29496, Note_on_c, 0, 71, 64
4, 29520, Note_off_c, 0, 71, 64
4, 29520, Note_off_c, 0, 66, 64
4, 29520, Note_on_c, 0, 69, 64
4, 29520, Note_on_c, 0, 64, 64
4, 29544, Note_off_c, 0, 64, 64
4, 29544, Note_off_c, 0, 69, 64
4, 29544, Note_on_c, 0, 64, 64
4, 29544, Note_on_c, 0, 69, 64
4, 29568, Note_off_c, 0, 69, 64
4, 29568, Note_off_c, 0, 64, 64
4, 29568, Note_on_c, 0, 69, 64
4, 29568, Note_on_c, 0, 76, 64
4, 29592, Note_off_c, 0, 69, 64
4, 29592, Note_off_c, 0, 76, 64
4, 29592, Note_on_c, 0, 69, 64
4, 29592, Note_on_c, 0, 76, 64
4, 29616, Note_off_c, 0, 76, 64
4, 29616, Note_off_c, 0, 69, 64
4, 29616, Note_on_c, 0, 69, 64
4, 29616, Note_on_c, 0, 76, 64
4, 29640, Note_off_c, 0, 76, 64
4, 29640, Note_off_c, 0, 69, 64
4, 29640, Note_on_c, 0, 69, 64
4, 29640, Note_on_c, 0, 76, 64
4, 29664, Note_off_c, 0, 76, 64
4, 29664, Note_off_c, 0, 69, 64
4, 29664, Note_on_c, 0, 66, 64
4, 29664, Note_on_c, 0, 71, 64
4, 29688, Note_off_c, 0, 66, 64
4, 29688, Note_off_c, 0, 71, 64
4, 29688, Note_on_c, 0, 66, 64
4, 29688, Note_on_c, 0, 71, 64
4, 29712, Note_off_c, 0, 71, 64
4, 29712, Note_off_c, 0, 66, 64
4, 29712, Note_on_c, 0, 66, 64
4, 29712, Note_on_c, 0, 71, 64
4, 29736, Note_off_c, 0, 71, 64
4, 29736, Note_off_c, 0, 66, 64
4, 29736, Note_on_c, 0, 71, 64
4, 29736, Note_on_c, 0, 66, 64
4, 29760, Note_off_c, 0, 66, 64
4, 29760, Note_off_c, 0, 71, 64
4, 29760, Note_on_c, 0, 64, 64
4, 29760, Note_on_c, 0, 69, 64
4, 29784, Note_off_c, 0, 69, 64
4, 29784, Note_off_c, 0, 64, 64
4, 29784, Note_on_c, 0, 64, 64
4, 29784, Note_on_c, 0, 69, 64
4, 29808, Note_off_c, 0, 69, 64
4, 29808, Note_off_c, 0, 64, 64
4, 29808, Note_on_c, 0, 64, 64
4, 29808, Note_on_c, 0, 69, 64
4, 29832, Note_off_c, 0, 69, 64
4, 29832, Note_off_c, 0, 64, 64
4, 29832, Note_on_c, 0, 64, 64
4, 29832, Note_on_c, 0, 69, 64
4, 29856, Note_off_c, 0, 69, 64
4, 29856, Note_off_c, 0, 64, 64
4, 29856, Note_on_c, 0, 66, 64
4, 29856, Note_on_c, 0, 71, 64
4, 29880, Note_off_c, 0, 66, 64
4, 29880, Note_off_c, 0, 71, 64
4, 29880, Note_on_c, 0, 66, 64
4, 29880, Note_on_c, 0, 71, 64
4, 29904, Note_off_c, 0, 71, 64
4, 29904, Note_off_c, 0, 66, 64
4, 29904, Note_on_c, 0, 66, 64
4, 29904, Note_on_c, 0, 71, 64
4, 29928, Note_off_c, 0, 71, 64
4, 29928, Note_off_c, 0, 66, 64
4, 29928, Note_on_c, 0, 66, 64
4, 29928, Note_on_c, 0, 71, 64
4, 29952, Note_off_c, 0, 71, 64
4, 29952, Note_off_c, 0, 66, 64
4, 29952, Note_on_c, 0, 69, 64
4, 29952, Note_on_c, 0, 76, 64
4, 29976, Note_off_c, 0, 69, 64
4, 29976, Note_off_c, 0, 76, 64
4, 29976, Note_on_c, 0, 69, 64
4, 29976, Note_on_c, 0, 76, 64
4, 30000, Note_off_c, 0, 76, 64
4, 30000, Note_off_c, 0, 69, 64
4, 30000, Note_on_c, 0, 69, 64
4, 30000, Note_on_c, 0, 76, 64
4, 30024, Note_off_c, 0, 76, 64
4, 30024, Note_off_c, 0, 69, 64
4, 30024, Note_on_c, 0, 69, 64
4, 30024, Note_on_c, 0, 76, 64
4, 30048, Note_off_c, 0, 76, 64
4, 30048, Note_off_c, 0, 69, 64
4, 30048, Note_on_c, 0, 66, 64
4, 30048, Note_on_c, 0, 71, 64
4, 30072, Note_off_c, 0, 66, 64
4, 30072, Note_off_c, 0, 71, 64
4, 30072, Note_on_c, 0, 66, 64
4, 30072, Note_on_c, 0, 71, 64
4, 30096, Note_off_c, 0, 71, 64
4, 30096, Note_off_c, 0, 66, 64
4, 30096, Note_on_c, 0, 66, 64
4, 30096, Note_on_c, 0, 71, 64
4, 30120, Note_off_c, 0, 71, 64
4, 30120, Note_off_c, 0, 66, 64
4, 30120, Note_on_c, 0, 66, 64
4, 30120, Note_on_c, 0, 71, 64
4, 30144, Note_off_c, 0, 71, 64
4, 30144, Note_off_c, 0, 66, 64
4, 30144, Note_on_c, 0, 64, 64
4, 30144, Note_on_c, 0, 69, 64
4, 30168, Note_off_c, 0, 69, 64
4, 30168, Note_off_c, 0, 64, 64
4, 30168, Note_on_c, 0, 64, 64
4, 30168, Note_on_c, 0, 69, 64
4, 30192, Note_off_c, 0, 69, 64
4, 30192, Note_off_c, 0, 64, 64
4, 30192, Note_on_c, 0, 69, 64
4, 30192, Note_on_c, 0, 64, 64
4, 30216, Note_off_c, 0, 64, 64
4, 30216, Note_off_c, 0, 69, 64
4, 30216, Note_on_c, 0, 66, 64
4, 30216, Note_on_c, 0, 71, 64
4, 30240, Note_off_c, 0, 71, 64
4, 30240, Note_off_c, 0, 66, 64
4, 30240, Note_on_c, 0, 66, 64
4, 30240, Note_on_c, 0, 71, 64
4, 30264, Note_off_c, 0, 66, 64
4, 30264, Note_off_c, 0, 71, 64
4, 30264, Note_on_c, 0, 66, 64
4, 30264, Note_on_c, 0, 71, 64
4, 30288, Note_off_c, 0, 71, 64
4, 30288, Note_off_c, 0, 66, 64
4, 30288, Note_on_c, 0, 64, 64
4, 30288, Note_on_c, 0, 69, 64
4, 30312, Note_off_c, 0, 69, 64
4, 30312, Note_off_c, 0, 64, 64
4, 30312, Note_on_c, 0, 64, 64
4, 30312, Note_on_c, 0, 69, 64
4, 30336, Note_off_c, 0, 69, 64
4, 30336, Note_off_c, 0, 64, 64
4, 30336, Note_on_c, 0, 76, 64
4, 30336, Note_on_c, 0, 69, 64
4, 30360, Note_off_c, 0, 76, 64
4, 30360, Note_off_c, 0, 69, 64
4, 30360, Note_on_c, 0, 69, 64
4, 30360, Note_on_c, 0, 76, 64
4, 30384, Note_off_c, 0, 76, 64
4, 30384, Note_off_c, 0, 69, 64
4, 30384, Note_on_c, 0, 69, 64
4, 30384, Note_on_c, 0, 76, 64
4, 30408, Note_off_c, 0, 76, 64
4, 30408, Note_off_c, 0, 69, 64
4, 30408, Note_on_c, 0, 69, 64
4, 30408, Note_on_c, 0, 76, 64
4, 30432, Note_off_c, 0, 76, 64
4, 30432, Note_off_c, 0, 69, 64
4, 30432, Note_on_c, 0, 66, 64
4, 30432, Note_on_c, 0, 71, 64
4, 30456, Note_off_c, 0, 66, 64
4, 30456, Note_off_c, 0, 71, 64
4, 30456, Note_on_c, 0, 66, 64
4, 30456, Note_on_c, 0, 71, 64
4, 30480, Note_off_c, 0, 71, 64
4, 30480, Note_off_c, 0, 66, 64
4, 30480, Note_on_c, 0, 66, 64
4, 30480, Note_on_c, 0, 71, 64
4, 30504, Note_off_c, 0, 71, 64
4, 30504, Note_off_c, 0, 66, 64
4, 30504, Note_on_c, 0, 66, 64
4, 30504, Note_on_c, 0, 71, 64
4, 30528, Note_off_c, 0, 71, 64
4, 30528, Note_off_c, 0, 66, 64
4, 30528, Note_on_c, 0, 64, 64
4, 30528, Note_on_c, 0, 69, 64
4, 30552, Note_off_c, 0, 69, 64
4, 30552, Note_off_c, 0, 64, 64
4, 30552, Note_on_c, 0, 69, 64
4, 30552, Note_on_c, 0, 64, 64
4, 30576, Note_off_c, 0, 64, 64
4, 30576, Note_off_c, 0, 69, 64
4, 30576, Note_on_c, 0, 69, 64
4, 30576, Note_on_c, 0, 64, 64
4, 30600, Note_off_c, 0, 64, 64
4, 30600, Note_off_c, 0, 69, 64
4, 30600, Note_on_c, 0, 69, 64
4, 30600, Note_on_c, 0, 64, 64
4, 30624, Note_off_c, 0, 64, 64
4, 30624, Note_off_c, 0, 69, 64
4, 30624, Note_on_c, 0, 71, 64
4, 30624, Note_on_c, 0, 66, 64
4, 30648, Note_off_c, 0, 71, 64
4, 30648, Note_off_c, 0, 66, 64
4, 30648, Note_on_c, 0, 71, 64
4, 30648, Note_on_c, 0, 66, 64
4, 30672, Note_off_c, 0, 66, 64
4, 30672, Note_off_c, 0, 71, 64
4, 30672, Note_on_c, 0, 71, 64
4, 30672, Note_on_c, 0, 66, 64
4, 30696, Note_off_c, 0, 66, 64
4, 30696, Note_off_c, 0, 71, 64
4, 30696, Note_on_c, 0, 71, 64
4, 30696, Note_on_c, 0, 66, 64
4, 30720, Note_off_c, 0, 66, 64
4, 30720, Note_off_c, 0, 71, 64
4, 30720, Note_on_c, 0, 69, 64
4, 30720, Note_on_c, 0, 76, 64
4, 30744, Note_off_c, 0, 69, 64
4, 30744, Note_off_c, 0, 76, 64
4, 30744, Note_on_c, 0, 69, 64
4, 30744, Note_on_c, 0, 76, 64
4, 30768, Note_off_c, 0, 76, 64
4, 30768, Note_off_c, 0, 69, 64
4, 30768, Note_on_c, 0, 69, 64
4, 30768, Note_on_c, 0, 76, 64
4, 30792, Note_off_c, 0, 76, 64
4, 30792, Note_off_c, 0, 69, 64
4, 30792, Note_on_c, 0, 69, 64
4, 30792, Note_on_c, 0, 76, 64
4, 30816, Note_off_c, 0, 76, 64
4, 30816, Note_off_c, 0, 69, 64
4, 30816, Note_on_c, 0, 66, 64
4, 30816, Note_on_c, 0, 71, 64
4, 30840, Note_off_c, 0, 66, 64
4, 30840, Note_off_c, 0, 71, 64
4, 30840, Note_on_c, 0, 66, 64
4, 30840, Note_on_c, 0, 71, 64
4, 30864, Note_off_c, 0, 71, 64
4, 30864, Note_off_c, 0, 66, 64
4, 30864, Note_on_c, 0, 66, 64
4, 30864, Note_on_c, 0, 71, 64
4, 30888, Note_off_c, 0, 71, 64
4, 30888, Note_off_c, 0, 66, 64
4, 30888, Note_on_c, 0, 66, 64
4, 30888, Note_on_c, 0, 71, 64
4, 30912, Note_off_c, 0, 71, 64
4, 30912, Note_off_c, 0, 66, 64
4, 30912, Note_on_c, 0, 69, 64
4, 30912, Note_on_c, 0, 64, 64
4, 30936, Note_off_c, 0, 64, 64
4, 30936, Note_off_c, 0, 69, 64
4, 30936, Note_on_c, 0, 69, 64
4, 30936, Note_on_c, 0, 64, 64
4, 30960, Note_off_c, 0, 64, 64
4, 30960, Note_off_c, 0, 69, 64
4, 30960, Note_on_c, 0, 64, 64
4, 30960, Note_on_c, 0, 69, 64
4, 30984, Note_off_c, 0, 69, 64
4, 30984, Note_off_c, 0, 64, 64
4, 30984, Note_on_c, 0, 66, 64
4, 30984, Note_on_c, 0, 71, 64
4, 31008, Note_off_c, 0, 71, 64
4, 31008, Note_off_c, 0, 66, 64
4, 31008, Note_on_c, 0, 66, 64
4, 31008, Note_on_c, 0, 71, 64
4, 31032, Note_off_c, 0, 66, 64
4, 31032, Note_off_c, 0, 71, 64
4, 31032, Note_on_c, 0, 66, 64
4, 31032, Note_on_c, 0, 71, 64
4, 31056, Note_off_c, 0, 71, 64
4, 31056, Note_off_c, 0, 66, 64
4, 31056, Note_on_c, 0, 69, 64
4, 31056, Note_on_c, 0, 64, 64
4, 31080, Note_off_c, 0, 64, 64
4, 31080, Note_off_c, 0, 69, 64
4, 31080, Note_on_c, 0, 64, 64
4, 31080, Note_on_c, 0, 69, 64
4, 31104, Note_off_c, 0, 69, 64
4, 31104, Note_off_c, 0, 64, 64
4, 31104, Note_on_c, 0, 69, 64
4, 31104, Note_on_c, 0, 76, 64
4, 31128, Note_off_c, 0, 69, 64
4, 31128, Note_off_c, 0, 76, 64
4, 31128, Note_on_c, 0, 69, 64
4, 31128, Note_on_c, 0, 76, 64
4, 31152, Note_off_c, 0, 76, 64
4, 31152, Note_off_c, 0, 69, 64
4, 31152, Note_on_c, 0, 69, 64
4, 31152, Note_on_c, 0, 76, 64
4, 31176, Note_off_c, 0, 76, 64
4, 31176, Note_off_c, 0, 69, 64
4, 31176, Note_on_c, 0, 69, 64
4, 31176, Note_on_c, 0, 76, 64
4, 31200, Note_off_c, 0, 76, 64
4, 31200, Note_off_c, 0, 69, 64
4, 31200, Note_on_c, 0, 66, 64
4, 31200, Note_on_c, 0, 71, 64
4, 31224, Note_off_c, 0, 66, 64
4, 31224, Note_off_c, 0, 71, 64
4, 31224, Note_on_c, 0, 66, 64
4, 31224, Note_on_c, 0, 71, 64
4, 31248, Note_off_c, 0, 71, 64
4, 31248, Note_off_c, 0, 66, 64
4, 31248, Note_on_c, 0, 66, 64
4, 31248, Note_on_c, 0, 71, 64
4, 31272, Note_off_c, 0, 71, 64
4, 31272, Note_off_c, 0, 66, 64
4, 31272, Note_on_c, 0, 71, 64
4, 31272, Note_on_c, 0, 66, 64
4, 31296, Note_off_c, 0, 66, 64
4, 31296, Note_off_c, 0, 71, 64
4, 31296, Note_on_c, 0, 64, 64
4, 31296, Note_on_c, 0, 69, 64
4, 31320, Note_off_c, 0, 69, 64
4, 31320, Note_off_c, 0, 64, 64
4, 31320, Note_on_c, 0, 64, 64
4, 31320, Note_on_c, 0, 69, 64
4, 31344, Note_off_c, 0, 69, 64
4, 31344, Note_off_c, 0, 64, 64
4, 31344, Note_on_c, 0, 64, 64
4, 31344, Note_on_c, 0, 69, 64
4, 31368, Note_off_c, 0, 69, 64
4, 31368, Note_off_c, 0, 64, 64
4, 31368, Note_on_c, 0, 64, 64
4, 31368, Note_on_c, 0, 69, 64
4, 31392, Note_off_c, 0, 69, 64
4, 31392, Note_off_c, 0, 64, 64
4, 31392, Note_on_c, 0, 66, 64
4, 31392, Note_on_c, 0, 71, 64
4, 31416, Note_off_c, 0, 66, 64
4, 31416, Note_off_c, 0, 71, 64
4, 31416, Note_on_c, 0, 66, 64
4, 31416, Note_on_c, 0, 71, 64
4, 31440, Note_off_c, 0, 71, 64
4, 31440, Note_off_c, 0, 66, 64
4, 31440, Note_on_c, 0, 66, 64
4, 31440, Note_on_c, 0, 71, 64
4, 31464, Note_off_c, 0, 71, 64
4, 31464, Note_off_c, 0, 66, 64
4, 31464, Note_on_c, 0, 66, 64
4, 31464, Note_on_c, 0, 71, 64
4, 31488, Note_off_c, 0, 71, 64
4, 31488, Note_off_c, 0, 66, 64
4, 31488, Note_on_c, 0, 69, 64
4, 31488, Note_on_c, 0, 76, 64
4, 31512, Note_off_c, 0, 69, 64
4, 31512, Note_off_c, 0, 76, 64
4, 31512, Note_on_c, 0, 69, 64
4, 31512, Note_on_c, 0, 76, 64
4, 31536, Note_off_c, 0, 76, 64
4, 31536, Note_off_c, 0, 69, 64
4, 31536, Note_on_c, 0, 69, 64
4, 31536, Note_on_c, 0, 76, 64
4, 31560, Note_off_c, 0, 76, 64
4, 31560, Note_off_c, 0, 69, 64
4, 31560, Note_on_c, 0, 69, 64
4, 31560, Note_on_c, 0, 76, 64
4, 31584, Note_off_c, 0, 76, 64
4, 31584, Note_off_c, 0, 69, 64
4, 31584, Note_on_c, 0, 66, 64
4, 31584, Note_on_c, 0, 71, 64
4, 31608, Note_off_c, 0, 66, 64
4, 31608, Note_off_c, 0, 71, 64
4, 31608, Note_on_c, 0, 66, 64
4, 31608, Note_on_c, 0, 71, 64
4, 31632, Note_off_c, 0, 71, 64
4, 31632, Note_off_c, 0, 66, 64
4, 31632, Note_on_c, 0, 66, 64
4, 31632, Note_on_c, 0, 71, 64
4, 31656, Note_off_c, 0, 71, 64
4, 31656, Note_off_c, 0, 66, 64
4, 31656, Note_on_c, 0, 66, 64
4, 31656, Note_on_c, 0, 71, 64
4, 31680, Note_off_c, 0, 71, 64
4, 31680, Note_off_c, 0, 66, 64
4, 31680, Note_on_c, 0, 64, 64
4, 31680, Note_on_c, 0, 69, 64
4, 31704, Note_off_c, 0, 69, 64
4, 31704, Note_off_c, 0, 64, 64
4, 31704, Note_on_c, 0, 64, 64
4, 31704, Note_on_c, 0, 69, 64
4, 31728, Note_off_c, 0, 69, 64
4, 31728, Note_off_c, 0, 64, 64
4, 31728, Note_on_c, 0, 69, 64
4, 31728, Note_on_c, 0, 64, 64
4, 31752, Note_off_c, 0, 64, 64
4, 31752, Note_off_c, 0, 69, 64
4, 31752, Note_on_c, 0, 66, 64
4, 31752, Note_on_c, 0, 71, 64
4, 31776, Note_off_c, 0, 71, 64
4, 31776, Note_off_c, 0, 66, 64
4, 31776, Note_on_c, 0, 66, 64
4, 31776, Note_on_c, 0, 71, 64
4, 31800, Note_off_c, 0, 66, 64
4, 31800, Note_off_c, 0, 71, 64
4, 31800, Note_on_c, 0, 66, 64
4, 31800, Note_on_c, 0, 71, 64
4, 31824, Note_off_c, 0, 71, 64
4, 31824, Note_off_c, 0, 66, 64
4, 31824, Note_on_c, 0, 64, 64
4, 31824, Note_on_c, 0, 69, 64
4, 31848, Note_off_c, 0, 69, 64
4, 31848, Note_off_c, 0, 64, 64
4, 31848, Note_on_c, 0, 64, 64
4, 31848, Note_on_c, 0, 69, 64
4, 31872, Note_off_c, 0, 69, 64
4, 31872, Note_off_c, 0, 64, 64
4, 31872, Note_on_c, 0, 76, 64
4, 31872, Note_on_c, 0, 69, 64
4, 31896, Note_off_c, 0, 76, 64
4, 31896, Note_off_c, 0, 69, 64
4, 31896, Note_on_c, 0, 69, 64
4, 31896, Note_on_c, 0, 76, 64
4, 31920, Note_off_c, 0, 76, 64
4, 31920, Note_off_c, 0, 69, 64
4, 31920, Note_on_c, 0, 69, 64
4, 31920, Note_on_c, 0, 76, 64
4, 31944, Note_off_c, 0, 76, 64
4, 31944, Note_off_c, 0, 69, 64
4, 31944, Note_on_c, 0, 69, 64
4, 31944, Note_on_c, 0, 76, 64
4, 31968, Note_off_c, 0, 76, 64
4, 31968, Note_off_c, 0, 69, 64
4, 31968, Note_on_c, 0, 66, 64
4, 31968, Note_on_c, 0, 71, 64
4, 31992, Note_off_c, 0, 66, 64
4, 31992, Note_off_c, 0, 71, 64
4, 31992, Note_on_c, 0, 66, 64
4, 31992, Note_on_c, 0, 71, 64
4, 32016, Note_off_c, 0, 71, 64
4, 32016, Note_off_c, 0, 66, 64
4, 32016, Note_on_c, 0, 66, 64
4, 32016, Note_on_c, 0, 71, 64
4, 32040, Note_off_c, 0, 71, 64
4, 32040, Note_off_c, 0, 66, 64
4, 32040, Note_on_c, 0, 66, 64
4, 32040, Note_on_c, 0, 71, 64
4, 32064, Note_off_c, 0, 71, 64
4, 32064, Note_off_c, 0, 66, 64
4, 32064, Note_on_c, 0, 64, 64
4, 32064, Note_on_c, 0, 69, 64
4, 32088, Note_off_c, 0, 69, 64
4, 32088, Note_off_c, 0, 64, 64
4, 32088, Note_on_c, 0, 69, 64
4, 32088, Note_on_c, 0, 64, 64
4, 32112, Note_off_c, 0, 64, 64
4, 32112, Note_off_c, 0, 69, 64
4, 32112, Note_on_c, 0, 69, 64
4, 32112, Note_on_c, 0, 64, 64
4, 32136, Note_off_c, 0, 64, 64
4, 32136, Note_off_c, 0, 69, 64
4, 32136, Note_on_c, 0, 69, 64
4, 32136, Note_on_c, 0, 64, 64
4, 32160, Note_off_c, 0, 64, 64
4, 32160, Note_off_c, 0, 69, 64
4, 32160, Note_on_c, 0, 71, 64
4, 32160, Note_on_c, 0, 66, 64
4, 32184, Note_off_c, 0, 71, 64
4, 32184, Note_off_c, 0, 66, 64
4, 32184, Note_on_c, 0, 71, 64
4, 32184, Note_on_c, 0, 66, 64
4, 32208, Note_off_c, 0, 66, 64
4, 32208, Note_off_c, 0, 71, 64
4, 32208, Note_on_c, 0, 71, 64
4, 32208, Note_on_c, 0, 66, 64
4, 32232, Note_off_c, 0, 66, 64
4, 32232, Note_off_c, 0, 71, 64
4, 32232, Note_on_c, 0, 71, 64
4, 32232, Note_on_c, 0, 66, 64
4, 32256, Note_off_c, 0, 66, 64
4, 32256, Note_off_c, 0, 71, 64
4, 32256, Note_on_c, 0, 69, 64
4, 32256, Note_on_c, 0, 76, 64
4, 32280, Note_off_c, 0, 69, 64
4, 32280, Note_off_c, 0, 76, 64
4, 32280, Note_on_c, 0, 69, 64
4, 32280, Note_on_c, 0, 76, 64
4, 32304, Note_off_c, 0, 76, 64
4, 32304, Note_off_c, 0, 69, 64
4, 32304, Note_on_c, 0, 69, 64
4, 32304, Note_on_c, 0, 76, 64
4, 32328, Note_off_c, 0, 76, 64
4, 32328, Note_off_c, 0, 69, 64
4, 32328, Note_on_c, 0, 69, 64
4, 32328, Note_on_c, 0, 76, 64
4, 32352, Note_off_c, 0, 76, 64
4, 32352, Note_off_c, 0, 69, 64
4, 32352, Note_on_c, 0, 66, 64
4, 32352, Note_on_c, 0, 71, 64
4, 32376, Note_off_c, 0, 66, 64
4, 32376, Note_off_c, 0, 71, 64
4, 32376, Note_on_c, 0, 66, 64
4, 32376, Note_on_c, 0, 71, 64
4, 32400, Note_off_c, 0, 71, 64
4, 32400, Note_off_c, 0, 66, 64
4, 32400, Note_on_c, 0, 66, 64
4, 32400, Note_on_c, 0, 71, 64
4, 32424, Note_off_c, 0, 71, 64
4, 32424, Note_off_c, 0, 66, 64
4, 32424, Note_on_c, 0, 66, 64
4, 32424, Note_on_c, 0, 71, 64
4, 32448, Note_off_c, 0, 71, 64
4, 32448, Note_off_c, 0, 66, 64
4, 32448, Note_on_c, 0, 69, 64
4, 32448, Note_on_c, 0, 64, 64
4, 32472, Note_off_c, 0, 64, 64
4, 32472, Note_off_c, 0, 69, 64
4, 32472, Note_on_c, 0, 69, 64
4, 32472, Note_on_c, 0, 64, 64
4, 32496, Note_off_c, 0, 64, 64
4, 32496, Note_off_c, 0, 69, 64
4, 32496, Note_on_c, 0, 64, 64
4, 32496, Note_on_c, 0, 69, 64
4, 32520, Note_off_c, 0, 69, 64
4, 32520, Note_off_c, 0, 64, 64
4, 32520, Note_on_c, 0, 66, 64
4, 32520, Note_on_c, 0, 71, 64
4, 32544, Note_off_c, 0, 71, 64
4, 32544, Note_off_c, 0, 66, 64
4, 32544, Note_on_c, 0, 66, 64
4, 32544, Note_on_c, 0, 71, 64
4, 32568, Note_off_c, 0, 66, 64
4, 32568, Note_off_c, 0, 71, 64
4, 32568, Note_on_c, 0, 66, 64
4, 32568, Note_on_c, 0, 71, 64
4, 32592, Note_off_c, 0, 71, 64
4, 32592, Note_off_c, 0, 66, 64
4, 32592, Note_on_c, 0, 69, 64
4, 32592, Note_on_c, 0, 64, 64
4, 32616, Note_off_c, 0, 64, 64
4, 32616, Note_off_c, 0, 69, 64
4, 32616, Note_on_c, 0, 64, 64
4, 32616, Note_on_c, 0, 69, 64
4, 32640, Note_off_c, 0, 69, 64
4, 32640, Note_off_c, 0, 64, 64
4, 32640, Note_on_c, 0, 69, 64
4, 32640, Note_on_c, 0, 76, 64
4, 32664, Note_off_c, 0, 69, 64
4, 32664, Note_off_c, 0, 76, 64
4, 32664, Note_on_c, 0, 69, 64
4, 32664, Note_on_c, 0, 76, 64
4, 32688, Note_off_c, 0, 76, 64
4, 32688, Note_off_c, 0, 69, 64
4, 32688, Note_on_c, 0, 69, 64
4, 32688, Note_on_c, 0, 76, 64
4, 32712, Note_off_c, 0, 76, 64
4, 32712, Note_off_c, 0, 69, 64
4, 32712, Note_on_c, 0, 69, 64
4, 32712, Note_on_c, 0, 76, 64
4, 32736, Note_off_c, 0, 76, 64
4, 32736, Note_off_c, 0, 69, 64
4, 32736, Note_on_c, 0, 66, 64
4, 32736, Note_on_c, 0, 71, 64
4, 32760, Note_off_c, 0, 66, 64
4, 32760, Note_off_c, 0, 71, 64
4, 32760, Note_on_c, 0, 66, 64
4, 32760, Note_on_c, 0, 71, 64
4, 32784, Note_off_c, 0, 71, 64
4, 32784, Note_off_c, 0, 66, 64
4, 32784, Note_on_c, 0, 66, 64
4, 32784, Note_on_c, 0, 71, 64
4, 32808, Note_off_c, 0, 71, 64
4, 32808, Note_off_c, 0, 66, 64
4, 32808, Note_on_c, 0, 71, 64
4, 32808, Note_on_c, 0, 66, 64
4, 32832, Note_off_c, 0, 66, 64
4, 32832, Note_off_c, 0, 71, 64
4, 32832, Note_on_c, 0, 64, 64
4, 32832, Note_on_c, 0, 69, 64
4, 32856, Note_off_c, 0, 69, 64
4, 32856, Note_off_c, 0, 64, 64
4, 32856, Note_on_c, 0, 64, 64
4, 32856, Note_on_c, 0, 69, 64
4, 32880, Note_off_c, 0, 69, 64
4, 32880, Note_off_c, 0, 64, 64
4, 32880, Note_on_c, 0, 64, 64
4, 32880, Note_on_c, 0, 69, 64
4, 32904, Note_off_c, 0, 69, 64
4, 32904, Note_off_c, 0, 64, 64
4, 32904, Note_on_c, 0, 64, 64
4, 32904, Note_on_c, 0, 69, 64
4, 32928, Note_off_c, 0, 69, 64
4, 32928, Note_off_c, 0, 64, 64
4, 32928, Note_on_c, 0, 66, 64
4, 32928, Note_on_c, 0, 71, 64
4, 32952, Note_off_c, 0, 66, 64
4, 32952, Note_off_c, 0, 71, 64
4, 32952, Note_on_c, 0, 66, 64
4, 32952, Note_on_c, 0, 71, 64
4, 32976, Note_off_c, 0, 71, 64
4, 32976, Note_off_c, 0, 66, 64
4, 32976, Note_on_c, 0, 66, 64
4, 32976, Note_on_c, 0, 71, 64
4, 33000, Note_off_c, 0, 71, 64
4, 33000, Note_off_c, 0, 66, 64
4, 33000, Note_on_c, 0, 66, 64
4, 33000, Note_on_c, 0, 71, 64
4, 33024, Note_off_c, 0, 71, 64
4, 33024, Note_off_c, 0, 66, 64
4, 33024, Note_on_c, 0, 69, 64
4, 33024, Note_on_c, 0, 76, 64
4, 33048, Note_off_c, 0, 69, 64
4, 33048, Note_off_c, 0, 76, 64
4, 33048, Note_on_c, 0, 69, 64
4, 33048, Note_on_c, 0, 76, 64
4, 33072, Note_off_c, 0, 76, 64
4, 33072, Note_off_c, 0, 69, 64
4, 33072, Note_on_c, 0, 69, 64
4, 33072, Note_on_c, 0, 76, 64
4, 33096, Note_off_c, 0, 76, 64
4, 33096, Note_off_c, 0, 69, 64
4, 33096, Note_on_c, 0, 69, 64
4, 33096, Note_on_c, 0, 76, 64
4, 33120, Note_off_c, 0, 76, 64
4, 33120, Note_off_c, 0, 69, 64
4, 33120, Note_on_c, 0, 66, 64
4, 33120, Note_on_c, 0, 71, 64
4, 33144, Note_off_c, 0, 66, 64
4, 33144, Note_off_c, 0, 71, 64
4, 33144, Note_on_c, 0, 66, 64
4, 33144, Note_on_c, 0, 71, 64
4, 33168, Note_off_c, 0, 71, 64
4, 33168, Note_off_c, 0, 66, 64
4, 33168, Note_on_c, 0, 66, 64
4, 33168, Note_on_c, 0, 71, 64
4, 33192, Note_off_c, 0, 71, 64
4, 33192, Note_off_c, 0, 66, 64
4, 33192, Note_on_c, 0, 66, 64
4, 33192, Note_on_c, 0, 71, 64
4, 33216, Note_off_c, 0, 71, 64
4, 33216, Note_off_c, 0, 66, 64
4, 33216, Note_on_c, 0, 64, 64
4, 33216, Note_on_c, 0, 69, 64
4, 33240, Note_off_c, 0, 69, 64
4, 33240, Note_off_c, 0, 64, 64
4, 33240, Note_on_c, 0, 64, 64
4, 33240, Note_on_c, 0, 69, 64
4, 33264, Note_off_c, 0, 69, 64
4, 33264, Note_off_c, 0, 64, 64
4, 33264, Note_on_c, 0, 69, 64
4, 33264, Note_on_c, 0, 64, 64
4, 33288, Note_off_c, 0, 64, 64
4, 33288, Note_off_c, 0, 69, 64
4, 33288, Note_on_c, 0, 66, 64
4, 33288, Note_on_c, 0, 71, 64
4, 33312, Note_off_c, 0, 71, 64
4, 33312, Note_off_c, 0, 66, 64
4, 33312, Note_on_c, 0, 66, 64
4, 33312, Note_on_c, 0, 71, 64
4, 33336, Note_off_c, 0, 66, 64
4, 33336, Note_off_c, 0, 71, 64
4, 33336, Note_on_c, 0, 66, 64
4, 33336, Note_on_c, 0, 71, 64
4, 33360, Note_off_c, 0, 71, 64
4, 33360, Note_off_c, 0, 66, 64
4, 33360, Note_on_c, 0, 64, 64
4, 33360, Note_on_c, 0, 69, 64
4, 33384, Note_off_c, 0, 69, 64
4, 33384, Note_off_c, 0, 64, 64
4, 33384, Note_on_c, 0, 64, 64
4, 33384, Note_on_c, 0, 69, 64
4, 33408, Note_off_c, 0, 69, 64
4, 33408, Note_off_c, 0, 64, 64
4, 33408, Note_on_c, 0, 76, 64
4, 33408, Note_on_c, 0, 69, 64
4, 33432, Note_off_c, 0, 76, 64
4, 33432, Note_off_c, 0, 69, 64
4, 33432, Note_on_c, 0, 69, 64
4, 33432, Note_on_c, 0, 76, 64
4, 33456, Note_off_c, 0, 76, 64
4, 33456, Note_off_c, 0, 69, 64
4, 33456, Note_on_c, 0, 69, 64
4, 33456, Note_on_c, 0, 76, 64
4, 33480, Note_off_c, 0, 76, 64
4, 33480, Note_off_c, 0, 69, 64
4, 33480, Note_on_c, 0, 69, 64
4, 33480, Note_on_c, 0, 76, 64
4, 33504, Note_off_c, 0, 76, 64
4, 33504, Note_off_c, 0, 69, 64
4, 33504, Note_on_c, 0, 66, 64
4, 33504, Note_on_c, 0, 71, 64
4, 33528, Note_off_c, 0, 66, 64
4, 33528, Note_off_c, 0, 71, 64
4, 33528, Note_on_c, 0, 66, 64
4, 33528, Note_on_c, 0, 71, 64
4, 33552, Note_off_c, 0, 71, 64
4, 33552, Note_off_c, 0, 66, 64
4, 33552, Note_on_c, 0, 66, 64
4, 33552, Note_on_c, 0, 71, 64
4, 33576, Note_off_c, 0, 71, 64
4, 33576, Note_off_c, 0, 66, 64
4, 33576, Note_on_c, 0, 66, 64
4, 33576, Note_on_c, 0, 71, 64
4, 33600, Note_off_c, 0, 71, 64
4, 33600, Note_off_c, 0, 66, 64
4, 33600, Note_on_c, 0, 64, 64
4, 33600, Note_on_c, 0, 69, 64
4, 33624, Note_off_c, 0, 69, 64
4, 33624, Note_off_c, 0, 64, 64
4, 33624, Note_on_c, 0, 69, 64
4, 33624, Note_on_c, 0, 64, 64
4, 33648, Note_off_c, 0, 64, 64
4, 33648, Note_off_c, 0, 69, 64
4, 33648, Note_on_c, 0, 69, 64
4, 33648, Note_on_c, 0, 64, 64
4, 33672, Note_off_c, 0, 64, 64
4, 33672, Note_off_c, 0, 69, 64
4, 33672, Note_on_c, 0, 69, 64
4, 33672, Note_on_c, 0, 64, 64
4, 33696, Note_off_c, 0, 64, 64
4, 33696, Note_off_c, 0, 69, 64
4, 33696, Note_on_c, 0, 71, 64
4, 33696, Note_on_c, 0, 66, 64
4, 33720, Note_off_c, 0, 71, 64
4, 33720, Note_off_c, 0, 66, 64
4, 33720, Note_on_c, 0, 71, 64
4, 33720, Note_on_c, 0, 66, 64
4, 33744, Note_off_c, 0, 66, 64
4, 33744, Note_off_c, 0, 71, 64
4, 33744, Note_on_c, 0, 71, 64
4, 33744, Note_on_c, 0, 66, 64
4, 33768, Note_off_c, 0, 66, 64
4, 33768, Note_off_c, 0, 71, 64
4, 33768, Note_on_c, 0, 71, 64
4, 33768, Note_on_c, 0, 66, 64
4, 33792, Note_off_c, 0, 66, 64
4, 33792, Note_off_c, 0, 71, 64
4, 33792, Note_on_c, 0, 69, 64
4, 33792, Note_on_c, 0, 76, 64
4, 33816, Note_off_c, 0, 69, 64
4, 33816, Note_off_c, 0, 76, 64
4, 33816, Note_on_c, 0, 69, 64
4, 33816, Note_on_c, 0, 76, 64
4, 33840, Note_off_c, 0, 76, 64
4, 33840, Note_off_c, 0, 69, 64
4, 33840, Note_on_c, 0, 69, 64
4, 33840, Note_on_c, 0, 76, 64
4, 33864, Note_off_c, 0, 76, 64
4, 33864, Note_off_c, 0, 69, 64
4, 33864, Note_on_c, 0, 69, 64
4, 33864, Note_on_c, 0, 76, 64
4, 33888, Note_off_c, 0, 76, 64
4, 33888, Note_off_c, 0, 69, 64
4, 33888, Note_on_c, 0, 66, 64
4, 33888, Note_on_c, 0, 71, 64
4, 33912, Note_off_c, 0, 66, 64
4, 33912, Note_off_c, 0, 71, 64
4, 33912, Note_on_c, 0, 66, 64
4, 33912, Note_on_c, 0, 71, 64
4, 33936, Note_off_c, 0, 71, 64
4, 33936, Note_off_c, 0, 66, 64
4, 33936, Note_on_c, 0, 66, 64
4, 33936, Note_on_c, 0, 71, 64
4, 33960, Note_off_c, 0, 71, 64
4, 33960, Note_off_c, 0, 66, 64
4, 33960, Note_on_c, 0, 66, 64
4, 33960, Note_on_c, 0, 71, 64
4, 33984, Note_off_c, 0, 71, 64
4, 33984, Note_off_c, 0, 66, 64
4, 33984, Note_on_c, 0, 69, 64
4, 33984, Note_on_c, 0, 64, 64
4, 34008, Note_off_c, 0, 64, 64
4, 34008, Note_off_c, 0, 69, 64
4, 34008, Note_on_c, 0, 69, 64
4, 34008, Note_on_c, 0, 64, 64
4, 34032, Note_off_c, 0, 64, 64
4, 34032, Note_off_c, 0, 69, 64
4, 34032, Note_on_c, 0, 64, 64
4, 34032, Note_on_c, 0, 69, 64
4, 34056, Note_off_c, 0, 69, 64
4, 34056, Note_off_c, 0, 64, 64
4, 34056, Note_on_c, 0, 66, 64
4, 34056, Note_on_c, 0, 71, 64
4, 34080, Note_off_c, 0, 71, 64
4, 34080, Note_off_c, 0, 66, 64
4, 34080, Note_on_c, 0, 66, 64
4, 34080, Note_on_c, 0, 71, 64
4, 34104, Note_off_c, 0, 66, 64
4, 34104, Note_off_c, 0, 71, 64
4, 34104, Note_on_c, 0, 66, 64
4, 34104, Note_on_c, 0, 71, 64
4, 34128, Note_off_c, 0, 71, 64
4, 34128, Note_off_c, 0, 66, 64
4, 34128, Note_on_c, 0, 69, 64
4, 34128, Note_on_c, 0, 64, 64
4, 34152, Note_off_c, 0, 64, 64
4, 34152, Note_off_c, 0, 69, 64
4, 34152, Note_on_c, 0, 64, 64
4, 34152, Note_on_c, 0, 69, 64
4, 34176, Note_off_c, 0, 69, 64
4, 34176, Note_off_c, 0, 64, 64
4, 34176, Note_on_c, 0, 69, 64
4, 34176, Note_on_c, 0, 76, 64
4, 34200, Note_off_c, 0, 69, 64
4, 34200, Note_off_c, 0, 76, 64
4, 34200, Note_on_c, 0, 69, 64
4, 34200, Note_on_c, 0, 76, 64
4, 34224, Note_off_c, 0, 76, 64
4, 34224, Note_off_c, 0, 69, 64
4, 34224, Note_on_c, 0, 69, 64
4, 34224, Note_on_c, 0, 76, 64
4, 34248, Note_off_c, 0, 76, 64
4, 34248, Note_off_c, 0, 69, 64
4, 34248, Note_on_c, 0, 69, 64
4, 34248, Note_on_c, 0, 76, 64
4, 34272, Note_off_c, 0, 76, 64
4, 34272, Note_off_c, 0, 69, 64
4, 34272, Note_on_c, 0, 66, 64
4, 34272, Note_on_c, 0, 71, 64
4, 34296, Note_off_c, 0, 66, 64
4, 34296, Note_off_c, 0, 71, 64
4, 34296, Note_on_c, 0, 66, 64
4, 34296, Note_on_c, 0, 71, 64
4, 34320, Note_off_c, 0, 71, 64
4, 34320, Note_off_c, 0, 66, 64
4, 34320, Note_on_c, 0, 66, 64
4, 34320, Note_on_c, 0, 71, 64
4, 34344, Note_off_c, 0, 71, 64
4, 34344, Note_off_c, 0, 66, 64
4, 34344, Note_on_c, 0, 71, 64
4, 34344, Note_on_c, 0, 66, 64
4, 34368, Note_off_c, 0, 66, 64
4, 34368, Note_off_c, 0, 71, 64
4, 34368, Note_on_c, 0, 64, 64
4, 34368, Note_on_c, 0, 69, 64
4, 34392, Note_off_c, 0, 69, 64
4, 34392, Note_off_c, 0, 64, 64
4, 34392, Note_on_c, 0, 64, 64
4, 34392, Note_on_c, 0, 69, 64
4, 34416, Note_off_c, 0, 69, 64
4, 34416, Note_off_c, 0, 64, 64
4, 34416, Note_on_c, 0, 64, 64
4, 34416, Note_on_c, 0, 69, 64
4, 34440, Note_off_c, 0, 69, 64
4, 34440, Note_off_c, 0, 64, 64
4, 34440, Note_on_c, 0, 64, 64
4, 34440, Note_on_c, 0, 69, 64
4, 34464, Note_off_c, 0, 69, 64
4, 34464, Note_off_c, 0, 64, 64
4, 34464, Note_on_c, 0, 66, 64
4, 34464, Note_on_c, 0, 71, 64
4, 34488, Note_off_c, 0, 66, 64
4, 34488, Note_off_c, 0, 71, 64
4, 34488, Note_on_c, 0, 66, 64
4, 34488, Note_on_c, 0, 71, 64
4, 34512, Note_off_c, 0, 71, 64
4, 34512, Note_off_c, 0, 66, 64
4, 34512, Note_on_c, 0, 66, 64
4, 34512, Note_on_c, 0, 71, 64
4, 34536, Note_off_c, 0, 71, 64
4, 34536, Note_off_c, 0, 66, 64
4, 34536, Note_on_c, 0, 66, 64
4, 34536, Note_on_c, 0, 71, 64
4, 34560, Note_off_c, 0, 71, 64
4, 34560, Note_off_c, 0, 66, 64
4, 34560, Note_on_c, 0, 69, 64
4, 34560, Note_on_c, 0, 76, 64
4, 34584, Note_off_c, 0, 69, 64
4, 34584, Note_off_c, 0, 76, 64
4, 34584, Note_on_c, 0, 69, 64
4, 34584, Note_on_c, 0, 76, 64
4, 34608, Note_off_c, 0, 76, 64
4, 34608, Note_off_c, 0, 69, 64
4, 34608, Note_on_c, 0, 69, 64
4, 34608, Note_on_c, 0, 76, 64
4, 34632, Note_off_c, 0, 76, 64
4, 34632, Note_off_c, 0, 69, 64
4, 34632, Note_on_c, 0, 69, 64
4, 34632, Note_on_c, 0, 76, 64
4, 34656, Note_off_c, 0, 76, 64
4, 34656, Note_off_c, 0, 69, 64
4, 34656, Note_on_c, 0, 66, 64
4, 34656, Note_on_c, 0, 71, 64
4, 34680, Note_off_c, 0, 66, 64
4, 34680, Note_off_c, 0, 71, 64
4, 34680, Note_on_c, 0, 66, 64
4, 34680, Note_on_c, 0, 71, 64
4, 34704, Note_off_c, 0, 71, 64
4, 34704, Note_off_c, 0, 66, 64
4, 34704, Note_on_c, 0, 66, 64
4, 34704, Note_on_c, 0, 71, 64
4, 34728, Note_off_c, 0, 71, 64
4, 34728, Note_off_c, 0, 66, 64
4, 34728, Note_on_c, 0, 66, 64
4, 34728, Note_on_c, 0, 71, 64
4, 34752, Note_off_c, 0, 71, 64
4, 34752, Note_off_c, 0, 66, 64
4, 34752, Note_on_c, 0, 64, 64
4, 34752, Note_on_c, 0, 69, 64
4, 34776, Note_off_c, 0, 64, 64
4, 34776, Note_off_c, 0, 69, 64
4, 34776, Note_on_c, 0, 64, 64
4, 34776, Note_on_c, 0, 69, 64
4, 34800, Note_off_c, 0, 69, 64
4, 34800, Note_off_c, 0, 64, 64
4, 34800, Note_on_c, 0, 69, 64
4, 34800, Note_on_c, 0, 64, 64
4, 34824, Note_off_c, 0, 64, 64
4, 34824, Note_off_c, 0, 69, 64
4, 34824, Note_on_c, 0, 66, 64
4, 34824, Note_on_c, 0, 71, 64
4, 34848, Note_off_c, 0, 71, 64
4, 34848, Note_off_c, 0, 66, 64
4, 34848, Note_on_c, 0, 66, 64
4, 34848, Note_on_c, 0, 71, 64
4, 34872, Note_off_c, 0, 71, 64
4, 34872, Note_off_c, 0, 66, 64
4, 34872, Note_on_c, 0, 66, 64
4, 34872, Note_on_c, 0, 71, 64
4, 34896, Note_off_c, 0, 71, 64
4, 34896, Note_off_c, 0, 66, 64
4, 34896, Note_on_c, 0, 64, 64
4, 34896, Note_on_c, 0, 69, 64
4, 34920, Note_off_c, 0, 69, 64
4, 34920, Note_off_c, 0, 64, 64
4, 34920, Note_on_c, 0, 64, 64
4, 34920, Note_on_c, 0, 69, 64
4, 34944, Note_off_c, 0, 69, 64
4, 34944, Note_off_c, 0, 64, 64
4, 37632, Note_on_c, 0, 76, 64
4, 37632, Note_on_c, 0, 69, 64
4, 37656, Note_off_c, 0, 76, 64
4, 37656, Note_off_c, 0, 69, 64
4, 37656, Note_on_c, 0, 69, 64
4, 37656, Note_on_c, 0, 76, 64
4, 37680, Note_off_c, 0, 76, 64
4, 37680, Note_off_c, 0, 69, 64
4, 37680, Note_on_c, 0, 69, 64
4, 37680, Note_on_c, 0, 76, 64
4, 37704, Note_off_c, 0, 76, 64
4, 37704, Note_off_c, 0, 69, 64
4, 37704, Note_on_c, 0, 69, 64
4, 37704, Note_on_c, 0, 76, 64
4, 37728, Note_off_c, 0, 76, 64
4, 37728, Note_off_c, 0, 69, 64
4, 37728, Note_on_c, 0, 66, 64
4, 37728, Note_on_c, 0, 71, 64
4, 37752, Note_off_c, 0, 66, 64
4, 37752, Note_off_c, 0, 71, 64
4, 37752, Note_on_c, 0, 66, 64
4, 37752, Note_on_c, 0, 71, 64
4, 37776, Note_off_c, 0, 71, 64
4, 37776, Note_off_c, 0, 66, 64
4, 37776, Note_on_c, 0, 66, 64
4, 37776, Note_on_c, 0, 71, 64
4, 37800, Note_off_c, 0, 71, 64
4, 37800, Note_off_c, 0, 66, 64
4, 37800, Note_on_c, 0, 66, 64
4, 37800, Note_on_c, 0, 71, 64
4, 37824, Note_off_c, 0, 71, 64
4, 37824, Note_off_c, 0, 66, 64
4, 37824, Note_on_c, 0, 64, 64
4, 37824, Note_on_c, 0, 69, 64
4, 37848, Note_off_c, 0, 69, 64
4, 37848, Note_off_c, 0, 64, 64
4, 37848, Note_on_c, 0, 69, 64
4, 37848, Note_on_c, 0, 64, 64
4, 37872, Note_off_c, 0, 64, 64
4, 37872, Note_off_c, 0, 69, 64
4, 37872, Note_on_c, 0, 69, 64
4, 37872, Note_on_c, 0, 64, 64
4, 37896, Note_off_c, 0, 64, 64
4, 37896, Note_off_c, 0, 69, 64
4, 37896, Note_on_c, 0, 69, 64
4, 37896, Note_on_c, 0, 64, 64
4, 37920, Note_off_c, 0, 64, 64
4, 37920, Note_off_c, 0, 69, 64
4, 37920, Note_on_c, 0, 71, 64
4, 37920, Note_on_c, 0, 66, 64
4, 37944, Note_off_c, 0, 71, 64
4, 37944, Note_off_c, 0, 66, 64
4, 37944, Note_on_c, 0, 71, 64
4, 37944, Note_on_c, 0, 66, 64
4, 37968, Note_off_c, 0, 66, 64
4, 37968, Note_off_c, 0, 71, 64
4, 37968, Note_on_c, 0, 71, 64
4, 37968, Note_on_c, 0, 66, 64
4, 37992, Note_off_c, 0, 66, 64
4, 37992, Note_off_c, 0, 71, 64
4, 37992, Note_on_c, 0, 71, 64
4, 37992, Note_on_c, 0, 66, 64
4, 38016, Note_off_c, 0, 66, 64
4, 38016, Note_off_c, 0, 71, 64
4, 38016, Note_on_c, 0, 69, 64
4, 38016, Note_on_c, 0, 76, 64
4, 38040, Note_off_c, 0, 69, 64
4, 38040, Note_off_c, 0, 76, 64
4, 38040, Note_on_c, 0, 69, 64
4, 38040, Note_on_c, 0, 76, 64
4, 38064, Note_off_c, 0, 76, 64
4, 38064, Note_off_c, 0, 69, 64
4, 38064, Note_on_c, 0, 69, 64
4, 38064, Note_on_c, 0, 76, 64
4, 38088, Note_off_c, 0, 76, 64
4, 38088, Note_off_c, 0, 69, 64
4, 38088, Note_on_c, 0, 69, 64
4, 38088, Note_on_c, 0, 76, 64
4, 38112, Note_off_c, 0, 76, 64
4, 38112, Note_off_c, 0, 69, 64
4, 38112, Note_on_c, 0, 66, 64
4, 38112, Note_on_c, 0, 71, 64
4, 38136, Note_off_c, 0, 66, 64
4, 38136, Note_off_c, 0, 71, 64
4, 38136, Note_on_c, 0, 66, 64
4, 38136, Note_on_c, 0, 71, 64
4, 38160, Note_off_c, 0, 71, 64
4, 38160, Note_off_c, 0, 66, 64
4, 38160, Note_on_c, 0, 66, 64
4, 38160, Note_on_c, 0, 71, 64
4, 38184, Note_off_c, 0, 71, 64
4, 38184, Note_off_c, 0, 66, 64
4, 38184, Note_on_c, 0, 66, 64
4, 38184, Note_on_c, 0, 71, 64
4, 38208, Note_off_c, 0, 71, 64
4, 38208, Note_off_c, 0, 66, 64
4, 38208, Note_on_c, 0, 69, 64
4, 38208, Note_on_c, 0, 64, 64
4, 38232, Note_off_c, 0, 64, 64
4, 38232, Note_off_c, 0, 69, 64
4, 38232, Note_on_c, 0, 69, 64
4, 38232, Note_on_c, 0, 64, 64
4, 38256, Note_off_c, 0, 64, 64
4, 38256, Note_off_c, 0, 69, 64
4, 38256, Note_on_c, 0, 64, 64
4, 38256, Note_on_c, 0, 69, 64
4, 38280, Note_off_c, 0, 69, 64
4, 38280, Note_off_c, 0, 64, 64
4, 38280, Note_on_c, 0, 66, 64
4, 38280, Note_on_c, 0, 71, 64
4, 38304, Note_off_c, 0, 71, 64
4, 38304, Note_off_c, 0, 66, 64
4, 38304, Note_on_c, 0, 66, 64
4, 38304, Note_on_c, 0, 71, 64
4, 38328, Note_off_c, 0, 66, 64
4, 38328, Note_off_c, 0, 71, 64
4, 38328, Note_on_c, 0, 66, 64
4, 38328, Note_on_c, 0, 71, 64
4, 38352, Note_off_c, 0, 71, 64
4, 38352, Note_off_c, 0, 66, 64
4, 38352, Note_on_c, 0, 69, 64
4, 38352, Note_on_c, 0, 64, 64
4, 38376, Note_off_c, 0, 64, 64
4, 38376, Note_off_c, 0, 69, 64
4, 38376, Note_on_c, 0, 64, 64
4, 38376, Note_on_c, 0, 69, 64
4, 38400, Note_off_c, 0, 69, 64
4, 38400, Note_off_c, 0, 64, 64
4, 38400, Note_on_c, 0, 69, 64
4, 38400, Note_on_c, 0, 76, 64
4, 38424, Note_off_c, 0, 69, 64
4, 38424, Note_off_c, 0, 76, 64
4, 38424, Note_on_c, 0, 69, 64
4, 38424, Note_on_c, 0, 76, 64
4, 38448, Note_off_c, 0, 76, 64
4, 38448, Note_off_c, 0, 69, 64
4, 38448, Note_on_c, 0, 69, 64
4, 38448, Note_on_c, 0, 76, 64
4, 38472, Note_off_c, 0, 76, 64
4, 38472, Note_off_c, 0, 69, 64
4, 38472, Note_on_c, 0, 69, 64
4, 38472, Note_on_c, 0, 76, 64
4, 38496, Note_off_c, 0, 76, 64
4, 38496, Note_off_c, 0, 69, 64
4, 38496, Note_on_c, 0, 66, 64
4, 38496, Note_on_c, 0, 71, 64
4, 38520, Note_off_c, 0, 66, 64
4, 38520, Note_off_c, 0, 71, 64
4, 38520, Note_on_c, 0, 66, 64
4, 38520, Note_on_c, 0, 71, 64
4, 38544, Note_off_c, 0, 71, 64
4, 38544, Note_off_c, 0, 66, 64
4, 38544, Note_on_c, 0, 66, 64
4, 38544, Note_on_c, 0, 71, 64
4, 38568, Note_off_c, 0, 71, 64
4, 38568, Note_off_c, 0, 66, 64
4, 38568, Note_on_c, 0, 71, 64
4, 38568, Note_on_c, 0, 66, 64
4, 38592, Note_off_c, 0, 66, 64
4, 38592, Note_off_c, 0, 71, 64
4, 38592, Note_on_c, 0, 64, 64
4, 38592, Note_on_c, 0, 69, 64
4, 38616, Note_off_c, 0, 69, 64
4, 38616, Note_off_c, 0, 64, 64
4, 38616, Note_on_c, 0, 64, 64
4, 38616, Note_on_c, 0, 69, 64
4, 38640, Note_off_c, 0, 69, 64
4, 38640, Note_off_c, 0, 64, 64
4, 38640, Note_on_c, 0, 64, 64
4, 38640, Note_on_c, 0, 69, 64
4, 38664, Note_off_c, 0, 69, 64
4, 38664, Note_off_c, 0, 64, 64
4, 38664, Note_on_c, 0, 64, 64
4, 38664, Note_on_c, 0, 69, 64
4, 38688, Note_off_c, 0, 69, 64
4, 38688, Note_off_c, 0, 64, 64
4, 38688, Note_on_c, 0, 66, 64
4, 38688, Note_on_c, 0, 71, 64
4, 38712, Note_off_c, 0, 66, 64
4, 38712, Note_off_c, 0, 71, 64
4, 38712, Note_on_c, 0, 66, 64
4, 38712, Note_on_c, 0, 71, 64
4, 38736, Note_off_c, 0, 71, 64
4, 38736, Note_off_c, 0, 66, 64
4, 38736, Note_on_c, 0, 66, 64
4, 38736, Note_on_c, 0, 71, 64
4, 38760, Note_off_c, 0, 71, 64
4, 38760, Note_off_c, 0, 66, 64
4, 38760, Note_on_c, 0, 66, 64
4, 38760, Note_on_c, 0, 71, 64
4, 38784, Note_off_c, 0, 71, 64
4, 38784, Note_off_c, 0, 66, 64
4, 38784, Note_on_c, 0, 69, 64
4, 38784, Note_on_c, 0, 76, 64
4, 38808, Note_off_c, 0, 69, 64
4, 38808, Note_off_c, 0, 76, 64
4, 38808, Note_on_c, 0, 69, 64
4, 38808, Note_on_c, 0, 76, 64
4, 38832, Note_off_c, 0, 76, 64
4, 38832, Note_off_c, 0, 69, 64
4, 38832, Note_on_c, 0, 69, 64
4, 38832, Note_on_c, 0, 76, 64
4, 38856, Note_off_c, 0, 76, 64
4, 38856, Note_off_c, 0, 69, 64
4, 38856, Note_on_c, 0, 69, 64
4, 38856, Note_on_c, 0, 76, 64
4, 38880, Note_off_c, 0, 76, 64
4, 38880, Note_off_c, 0, 69, 64
4, 38880, Note_on_c, 0, 66, 64
4, 38880, Note_on_c, 0, 71, 64
4, 38904, Note_off_c, 0, 66, 64
4, 38904, Note_off_c, 0, 71, 64
4, 38904, Note_on_c, 0, 66, 64
4, 38904, Note_on_c, 0, 71, 64
4, 38928, Note_off_c, 0, 71, 64
4, 38928, Note_off_c, 0, 66, 64
4, 38928, Note_on_c, 0, 66, 64
4, 38928, Note_on_c, 0, 71, 64
4, 38952, Note_off_c, 0, 71, 64
4, 38952, Note_off_c, 0, 66, 64
4, 38952, Note_on_c, 0, 66, 64
4, 38952, Note_on_c, 0, 71, 64
4, 38976, Note_off_c, 0, 71, 64
4, 38976, Note_off_c, 0, 66, 64
4, 38976, Note_on_c, 0, 64, 64
4, 38976, Note_on_c, 0, 69, 64
4, 39000, Note_off_c, 0, 64, 64
4, 39000, Note_off_c, 0, 69, 64
4, 39000, Note_on_c, 0, 64, 64
4, 39000, Note_on_c, 0, 69, 64
4, 39024, Note_off_c, 0, 69, 64
4, 39024, Note_off_c, 0, 64, 64
4, 39024, Note_on_c, 0, 69, 64
4, 39024, Note_on_c, 0, 64, 64
4, 39048, Note_off_c, 0, 64, 64
4, 39048, Note_off_c, 0, 69, 64
4, 39048, Note_on_c, 0, 66, 64
4, 39048, Note_on_c, 0, 71, 64
4, 39072, Note_off_c, 0, 71, 64
4, 39072, Note_off_c, 0, 66, 64
4, 39072, Note_on_c, 0, 66, 64
4, 39072, Note_on_c, 0, 71, 64
4, 39096, Note_off_c, 0, 66, 64
4, 39096, Note_off_c, 0, 71, 64
4, 39096, Note_on_c, 0, 66, 64
4, 39096, Note_on_c, 0, 71, 64
4, 39120, Note_off_c, 0, 71, 64
4, 39120, Note_off_c, 0, 66, 64
4, 39120, Note_on_c, 0, 64, 64
4, 39120, Note_on_c, 0, 69, 64
4, 39144, Note_off_c, 0, 69, 64
4, 39144, Note_off_c, 0, 64, 64
4, 39144, Note_on_c, 0, 64, 64
4, 39144, Note_on_c, 0, 69, 64
4, 39168, Note_off_c, 0, 69, 64
4, 39168, Note_off_c, 0, 64, 64
4, 39168, Note_on_c, 0, 76, 64
4, 39168, Note_on_c, 0, 69, 64
4, 39192, Note_off_c, 0, 76, 64
4, 39192, Note_off_c, 0, 69, 64
4, 39192, Note_on_c, 0, 69, 64
4, 39192, Note_on_c, 0, 76, 64
4, 39216, Note_off_c, 0, 76, 64
4, 39216, Note_off_c, 0, 69, 64
4, 39216, Note_on_c, 0, 69, 64
4, 39216, Note_on_c, 0, 76, 64
4, 39240, Note_off_c, 0, 76, 64
4, 39240, Note_off_c, 0, 69, 64
4, 39240, Note_on_c, 0, 69, 64
4, 39240, Note_on_c, 0, 76, 64
4, 39264, Note_off_c, 0, 76, 64
4, 39264, Note_off_c, 0, 69, 64
4, 39264, Note_on_c, 0, 66, 64
4, 39264, Note_on_c, 0, 71, 64
4, 39288, Note_off_c, 0, 66, 64
4, 39288, Note_off_c, 0, 71, 64
4, 39288, Note_on_c, 0, 66, 64
4, 39288, Note_on_c, 0, 71, 64
4, 39312, Note_off_c, 0, 71, 64
4, 39312, Note_off_c, 0, 66, 64
4, 39312, Note_on_c, 0, 66, 64
4, 39312, Note_on_c, 0, 71, 64
4, 39336, Note_off_c, 0, 71, 64
4, 39336, Note_off_c, 0, 66, 64
4, 39336, Note_on_c, 0, 66, 64
4, 39336, Note_on_c, 0, 71, 64
4, 39360, Note_off_c, 0, 71, 64
4, 39360, Note_off_c, 0, 66, 64
4, 39360, Note_on_c, 0, 64, 64
4, 39360, Note_on_c, 0, 69, 64
4, 39384, Note_off_c, 0, 69, 64
4, 39384, Note_off_c, 0, 64, 64
4, 39384, Note_on_c, 0, 69, 64
4, 39384, Note_on_c, 0, 64, 64
4, 39408, Note_off_c, 0, 64, 64
4, 39408, Note_off_c, 0, 69, 64
4, 39408, Note_on_c, 0, 69, 64
4, 39408, Note_on_c, 0, 64, 64
4, 39432, Note_off_c, 0, 64, 64
4, 39432, Note_off_c, 0, 69, 64
4, 39432, Note_on_c, 0, 69, 64
4, 39432, Note_on_c, 0, 64, 64
4, 39456, Note_off_c, 0, 64, 64
4, 39456, Note_off_c, 0, 69, 64
4, 39456, Note_on_c, 0, 71, 64
4, 39456, Note_on_c, 0, 66, 64
4, 39480, Note_off_c, 0, 71, 64
4, 39480, Note_off_c, 0, 66, 64
4, 39480, Note_on_c, 0, 71, 64
4, 39480, Note_on_c, 0, 66, 64
4, 39504, Note_off_c, 0, 66, 64
4, 39504, Note_off_c, 0, 71, 64
4, 39504, Note_on_c, 0, 71, 64
4, 39504, Note_on_c, 0, 66, 64
4, 39528, Note_off_c, 0, 66, 64
4, 39528, Note_off_c, 0, 71, 64
4, 39528, Note_on_c, 0, 71, 64
4, 39528, Note_on_c, 0, 66, 64
4, 39552, Note_off_c, 0, 66, 64
4, 39552, Note_off_c, 0, 71, 64
4, 39552, Note_on_c, 0, 69, 64
4, 39552, Note_on_c, 0, 76, 64
4, 39576, Note_off_c, 0, 69, 64
4, 39576, Note_off_c, 0, 76, 64
4, 39576, Note_on_c, 0, 69, 64
4, 39576, Note_on_c, 0, 76, 64
4, 39600, Note_off_c, 0, 76, 64
4, 39600, Note_off_c, 0, 69, 64
4, 39600, Note_on_c, 0, 69, 64
4, 39600, Note_on_c, 0, 76, 64
4, 39624, Note_off_c, 0, 76, 64
4, 39624, Note_off_c, 0, 69, 64
4, 39624, Note_on_c, 0, 69, 64
4, 39624, Note_on_c, 0, 76, 64
4, 39648, Note_off_c, 0, 76, 64
4, 39648, Note_off_c, 0, 69, 64
4, 39648, Note_on_c, 0, 66, 64
4, 39648, Note_on_c, 0, 71, 64
4, 39672, Note_off_c, 0, 66, 64
4, 39672, Note_off_c, 0, 71, 64
4, 39672, Note_on_c, 0, 66, 64
4, 39672, Note_on_c, 0, 71, 64
4, 39696, Note_off_c, 0, 71, 64
4, 39696, Note_off_c, 0, 66, 64
4, 39696, Note_on_c, 0, 66, 64
4, 39696, Note_on_c, 0, 71, 64
4, 39720, Note_off_c, 0, 71, 64
4, 39720, Note_off_c, 0, 66, 64
4, 39720, Note_on_c, 0, 66, 64
4, 39720, Note_on_c, 0, 71, 64
4, 39744, Note_off_c, 0, 71, 64
4, 39744, Note_off_c, 0, 66, 64
4, 39744, Note_on_c, 0, 69, 64
4, 39744, Note_on_c, 0, 64, 64
4, 39768, Note_off_c, 0, 64, 64
4, 39768, Note_off_c, 0, 69, 64
4, 39768, Note_on_c, 0, 69, 64
4, 39768, Note_on_c, 0, 64, 64
4, 39792, Note_off_c, 0, 64, 64
4, 39792, Note_off_c, 0, 69, 64
4, 39792, Note_on_c, 0, 64, 64
4, 39792, Note_on_c, 0, 69, 64
4, 39816, Note_off_c, 0, 69, 64
4, 39816, Note_off_c, 0, 64, 64
4, 39816, Note_on_c, 0, 66, 64
4, 39816, Note_on_c, 0, 71, 64
4, 39840, Note_off_c, 0, 71, 64
4, 39840, Note_off_c, 0, 66, 64
4, 39840, Note_on_c, 0, 66, 64
4, 39840, Note_on_c, 0, 71, 64
4, 39864, Note_off_c, 0, 66, 64
4, 39864, Note_off_c, 0, 71, 64
4, 39864, Note_on_c, 0, 66, 64
4, 39864, Note_on_c, 0, 71, 64
4, 39888, Note_off_c, 0, 71, 64
4, 39888, Note_off_c, 0, 66, 64
4, 39888, Note_on_c, 0, 69, 64
4, 39888, Note_on_c, 0, 64, 64
4, 39912, Note_off_c, 0, 64, 64
4, 39912, Note_off_c, 0, 69, 64
4, 39912, Note_on_c, 0, 64, 64
4, 39912, Note_on_c, 0, 69, 64
4, 39936, Note_off_c, 0, 69, 64
4, 39936, Note_off_c, 0, 64, 64
4, 39936, Note_on_c, 0, 69, 64
4, 39936, Note_on_c, 0, 76, 64
4, 39960, Note_off_c, 0, 69, 64
4, 39960, Note_off_c, 0, 76, 64
4, 39960, Note_on_c, 0, 69, 64
4, 39960, Note_on_c, 0, 76, 64
4, 39984, Note_off_c, 0, 76, 64
4, 39984, Note_off_c, 0, 69, 64
4, 39984, Note_on_c, 0, 69, 64
4, 39984, Note_on_c, 0, 76, 64
4, 40008, Note_off_c, 0, 76, 64
4, 40008, Note_off_c, 0, 69, 64
4, 40008, Note_on_c, 0, 69, 64
4, 40008, Note_on_c, 0, 76, 64
4, 40032, Note_off_c, 0, 76, 64
4, 40032, Note_off_c, 0, 69, 64
4, 40032, Note_on_c, 0, 66, 64
4, 40032, Note_on_c, 0, 71, 64
4, 40056, Note_off_c, 0, 66, 64
4, 40056, Note_off_c, 0, 71, 64
4, 40056, Note_on_c, 0, 66, 64
4, 40056, Note_on_c, 0, 71, 64
4, 40080, Note_off_c, 0, 71, 64
4, 40080, Note_off_c, 0, 66, 64
4, 40080, Note_on_c, 0, 66, 64
4, 40080, Note_on_c, 0, 71, 64
4, 40104, Note_off_c, 0, 71, 64
4, 40104, Note_off_c, 0, 66, 64
4, 40104, Note_on_c, 0, 71, 64
4, 40104, Note_on_c, 0, 66, 64
4, 40128, Note_off_c, 0, 66, 64
4, 40128, Note_off_c, 0, 71, 64
4, 40128, Note_on_c, 0, 64, 64
4, 40128, Note_on_c, 0, 69, 64
4, 40152, Note_off_c, 0, 69, 64
4, 40152, Note_off_c, 0, 64, 64
4, 40152, Note_on_c, 0, 64, 64
4, 40152, Note_on_c, 0, 69, 64
4, 40176, Note_off_c, 0, 69, 64
4, 40176, Note_off_c, 0, 64, 64
4, 40176, Note_on_c, 0, 64, 64
4, 40176, Note_on_c, 0, 69, 64
4, 40200, Note_off_c, 0, 69, 64
4, 40200, Note_off_c, 0, 64, 64
4, 40200, Note_on_c, 0, 64, 64
4, 40200, Note_on_c, 0, 69, 64
4, 40224, Note_off_c, 0, 69, 64
4, 40224, Note_off_c, 0, 64, 64
4, 40224, Note_on_c, 0, 66, 64
4, 40224, Note_on_c, 0, 71, 64
4, 40248, Note_off_c, 0, 66, 64
4, 40248, Note_off_c, 0, 71, 64
4, 40248, Note_on_c, 0, 66, 64
4, 40248, Note_on_c, 0, 71, 64
4, 40272, Note_off_c, 0, 71, 64
4, 40272, Note_off_c, 0, 66, 64
4, 40272, Note_on_c, 0, 66, 64
4, 40272, Note_on_c, 0, 71, 64
4, 40296, Note_off_c, 0, 71, 64
4, 40296, Note_off_c, 0, 66, 64
4, 40296, Note_on_c, 0, 66, 64
4, 40296, Note_on_c, 0, 71, 64
4, 40320, Note_off_c, 0, 71, 64
4, 40320, Note_off_c, 0, 66, 64
4, 40320, Note_on_c, 0, 69, 64
4, 40320, Note_on_c, 0, 76, 64
4, 40344, Note_off_c, 0, 69, 64
4, 40344, Note_off_c, 0, 76, 64
4, 40344, Note_on_c, 0, 69, 64
4, 40344, Note_on_c, 0, 76, 64
4, 40368, Note_off_c, 0, 76, 64
4, 40368, Note_off_c, 0, 69, 64
4, 40368, Note_on_c, 0, 69, 64
4, 40368, Note_on_c, 0, 76, 64
4, 40392, Note_off_c, 0, 76, 64
4, 40392, Note_off_c, 0, 69, 64
4, 40392, Note_on_c, 0, 69, 64
4, 40392, Note_on_c, 0, 76, 64
4, 40416, Note_off_c, 0, 76, 64
4, 40416, Note_off_c, 0, 69, 64
4, 40416, Note_on_c, 0, 66, 64
4, 40416, Note_on_c, 0, 71, 64
4, 40440, Note_off_c, 0, 66, 64
4, 40440, Note_off_c, 0, 71, 64
4, 40440, Note_on_c, 0, 66, 64
4, 40440, Note_on_c, 0, 71, 64
4, 40464, Note_off_c, 0, 71, 64
4, 40464, Note_off_c, 0, 66, 64
4, 40464, Note_on_c, 0, 66, 64
4, 40464, Note_on_c, 0, 71, 64
4, 40488, Note_off_c, 0, 71, 64
4, 40488, Note_off_c, 0, 66, 64
4, 40488, Note_on_c, 0, 66, 64
4, 40488, Note_on_c, 0, 71, 64
4, 40512, Note_off_c, 0, 71, 64
4, 40512, Note_off_c, 0, 66, 64
4, 40512, Note_on_c, 0, 64, 64
4, 40512, Note_on_c, 0, 69, 64
4, 40536, Note_off_c, 0, 69, 64
4, 40536, Note_off_c, 0, 64, 64
4, 40536, Note_on_c, 0, 64, 64
4, 40536, Note_on_c, 0, 69, 64
4, 40560, Note_off_c, 0, 69, 64
4, 40560, Note_off_c, 0, 64, 64
4, 40560, Note_on_c, 0, 69, 64
4, 40560, Note_on_c, 0, 64, 64
4, 40584, Note_off_c, 0, 64, 64
4, 40584, Note_off_c, 0, 69, 64
4, 40584, Note_on_c, 0, 66, 64
4, 40584, Note_on_c, 0, 71, 64
4, 40608, Note_off_c, 0, 71, 64
4, 40608, Note_off_c, 0, 66, 64
4, 40608, Note_on_c, 0, 66, 64
4, 40608, Note_on_c, 0, 71, 64
4, 40632, Note_off_c, 0, 66, 64
4, 40632, Note_off_c, 0, 71, 64
4, 40632, Note_on_c, 0, 66, 64
4, 40632, Note_on_c, 0, 71, 64
4, 40656, Note_off_c, 0, 71, 64
4, 40656, Note_off_c, 0, 66, 64
4, 40656, Note_on_c, 0, 64, 64
4, 40656, Note_on_c, 0, 69, 64
4, 40680, Note_off_c, 0, 69, 64
4, 40680, Note_off_c, 0, 64, 64
4, 40680, Note_on_c, 0, 64, 64
4, 40680, Note_on_c, 0, 69, 64
4, 40704, Note_off_c, 0, 69, 64
4, 40704, Note_off_c, 0, 64, 64
4, 40704, Note_on_c, 0, 76, 64
4, 40704, Note_on_c, 0, 69, 64
4, 40728, Note_off_c, 0, 76, 64
4, 40728, Note_off_c, 0, 69, 64
4, 40728, Note_on_c, 0, 69, 64
4, 40728, Note_on_c, 0, 76, 64
4, 40752, Note_off_c, 0, 76, 64
4, 40752, Note_off_c, 0, 69, 64
4, 40752, Note_on_c, 0, 69, 64
4, 40752, Note_on_c, 0, 76, 64
4, 40776, Note_off_c, 0, 76, 64
4, 40776, Note_off_c, 0, 69, 64
4, 40776, Note_on_c, 0, 69, 64
4, 40776, Note_on_c, 0, 76, 64
4, 40800, Note_off_c, 0, 76, 64
4, 40800, Note_off_c, 0, 69, 64
4, 40800, Note_on_c, 0, 66, 64
4, 40800, Note_on_c, 0, 71, 64
4, 40824, Note_off_c, 0, 66, 64
4, 40824, Note_off_c, 0, 71, 64
4, 40824, Note_on_c, 0, 66, 64
4, 40824, Note_on_c, 0, 71, 64
4, 40848, Note_off_c, 0, 71, 64
4, 40848, Note_off_c, 0, 66, 64
4, 40848, Note_on_c, 0, 66, 64
4, 40848, Note_on_c, 0, 71, 64
4, 40872, Note_off_c, 0, 71, 64
4, 40872, Note_off_c, 0, 66, 64
4, 40872, Note_on_c, 0, 66, 64
4, 40872, Note_on_c, 0, 71, 64
4, 40896, Note_off_c, 0, 71, 64
4, 40896, Note_off_c, 0, 66, 64
4, 40896, Note_on_c, 0, 64, 64
4, 40896, Note_on_c, 0, 69, 64
4, 40920, Note_off_c, 0, 69, 64
4, 40920, Note_off_c, 0, 64, 64
4, 40920, Note_on_c, 0, 69, 64
4, 40920, Note_on_c, 0, 64, 64
4, 40944, Note_off_c, 0, 64, 64
4, 40944, Note_off_c, 0, 69, 64
4, 40944, Note_on_c, 0, 69, 64
4, 40944, Note_on_c, 0, 64, 64
4, 40968, Note_off_c, 0, 64, 64
4, 40968, Note_off_c, 0, 69, 64
4, 40968, Note_on_c, 0, 69, 64
4, 40968, Note_on_c, 0, 64, 64
4, 40992, Note_off_c, 0, 64, 64
4, 40992, Note_off_c, 0, 69, 64
4, 40992, Note_on_c, 0, 71, 64
4, 40992, Note_on_c, 0, 66, 64
4, 41016, Note_off_c, 0, 71, 64
4, 41016, Note_off_c, 0, 66, 64
4, 41016, Note_on_c, 0, 71, 64
4, 41016, Note_on_c, 0, 66, 64
4, 41040, Note_off_c, 0, 66, 64
4, 41040, Note_off_c, 0, 71, 64
4, 41040, Note_on_c, 0, 71, 64
4, 41040, Note_on_c, 0, 66, 64
4, 41064, Note_off_c, 0, 66, 64
4, 41064, Note_off_c, 0, 71, 64
4, 41064, Note_on_c, 0, 71, 64
4, 41064, Note_on_c, 0, 66, 64
4, 41088, Note_off_c, 0, 66, 64
4, 41088, Note_off_c, 0, 71, 64
4, 41088, Note_on_c, 0, 69, 64
4, 41088, Note_on_c, 0, 76, 64
4, 41112, Note_off_c, 0, 69, 64
4, 41112, Note_off_c, 0, 76, 64
4, 41112, Note_on_c, 0, 69, 64
4, 41112, Note_on_c, 0, 76, 64
4, 41136, Note_off_c, 0, 76, 64
4, 41136, Note_off_c, 0, 69, 64
4, 41136, Note_on_c, 0, 69, 64
4, 41136, Note_on_c, 0, 76, 64
4, 41160, Note_off_c, 0, 76, 64
4, 41160, Note_off_c, 0, 69, 64
4, 41160, Note_on_c, 0, 69, 64
4, 41160, Note_on_c, 0, 76, 64
4, 41184, Note_off_c, 0, 76, 64
4, 41184, Note_off_c, 0, 69, 64
4, 41184, Note_on_c, 0, 66, 64
4, 41184, Note_on_c, 0, 71, 64
4, 41208, Note_off_c, 0, 66, 64
4, 41208, Note_off_c, 0, 71, 64
4, 41208, Note_on_c, 0, 66, 64
4, 41208, Note_on_c, 0, 71, 64
4, 41232, Note_off_c, 0, 71, 64
4, 41232, Note_off_c, 0, 66, 64
4, 41232, Note_on_c, 0, 66, 64
4, 41232, Note_on_c, 0, 71, 64
4, 41256, Note_off_c, 0, 71, 64
4, 41256, Note_off_c, 0, 66, 64
4, 41256, Note_on_c, 0, 66, 64
4, 41256, Note_on_c, 0, 71, 64
4, 41280, Note_off_c, 0, 71, 64
4, 41280, Note_off_c, 0, 66, 64
4, 41280, Note_on_c, 0, 69, 64
4, 41280, Note_on_c, 0, 64, 64
4, 41304, Note_off_c, 0, 64, 64
4, 41304, Note_off_c, 0, 69, 64
4, 41304, Note_on_c, 0, 69, 64
4, 41304, Note_on_c, 0, 64, 64
4, 41328, Note_off_c, 0, 64, 64
4, 41328, Note_off_c, 0, 69, 64
4, 41328, Note_on_c, 0, 64, 64
4, 41328, Note_on_c, 0, 69, 64
4, 41352, Note_off_c, 0, 69, 64
4, 41352, Note_off_c, 0, 64, 64
4, 41352, Note_on_c, 0, 66, 64
4, 41352, Note_on_c, 0, 71, 64
4, 41376, Note_off_c, 0, 71, 64
4, 41376, Note_off_c, 0, 66, 64
4, 41376, Note_on_c, 0, 66, 64
4, 41376, Note_on_c, 0, 71, 64
4, 41400, Note_off_c, 0, 66, 64
4, 41400, Note_off_c, 0, 71, 64
4, 41400, Note_on_c, 0, 66, 64
4, 41400, Note_on_c, 0, 71, 64
4, 41424, Note_off_c, 0, 71, 64
4, 41424, Note_off_c, 0, 66, 64
4, 41424, Note_on_c, 0, 69, 64
4, 41424, Note_on_c, 0, 64, 64
4, 41448, Note_off_c, 0, 64, 64
4, 41448, Note_off_c, 0, 69, 64
4, 41448, Note_on_c, 0, 64, 64
4, 41448, Note_on_c, 0, 69, 64
4, 41472, Note_off_c, 0, 69, 64
4, 41472, Note_off_c, 0, 64, 64
4, 41472, Note_on_c, 0, 69, 64
4, 41472, Note_on_c, 0, 76, 64
4, 41496, Note_off_c, 0, 69, 64
4, 41496, Note_off_c, 0, 76, 64
4, 41496, Note_on_c, 0, 69, 64
4, 41496, Note_on_c, 0, 76, 64
4, 41520, Note_off_c, 0, 76, 64
4, 41520, Note_off_c, 0, 69, 64
4, 41520, Note_on_c, 0, 69, 64
4, 41520, Note_on_c, 0, 76, 64
4, 41544, Note_off_c, 0, 76, 64
4, 41544, Note_off_c, 0, 69, 64
4, 41544, Note_on_c, 0, 69, 64
4, 41544, Note_on_c, 0, 76, 64
4, 41568, Note_off_c, 0, 76, 64
4, 41568, Note_off_c, 0, 69, 64
4, 41568, Note_on_c, 0, 66, 64
4, 41568, Note_on_c, 0, 71, 64
4, 41592, Note_off_c, 0, 66, 64
4, 41592, Note_off_c, 0, 71, 64
4, 41592, Note_on_c, 0, 66, 64
4, 41592, Note_on_c, 0, 71, 64
4, 41616, Note_off_c, 0, 71, 64
4, 41616, Note_off_c, 0, 66, 64
4, 41616, Note_on_c, 0, 66, 64
4, 41616, Note_on_c, 0, 71, 64
4, 41640, Note_off_c, 0, 71, 64
4, 41640, Note_off_c, 0, 66, 64
4, 41640, Note_on_c, 0, 71, 64
4, 41640, Note_on_c, 0, 66, 64
4, 41664, Note_off_c, 0, 66, 64
4, 41664, Note_off_c, 0, 71, 64
4, 41664, Note_on_c, 0, 64, 64
4, 41664, Note_on_c, 0, 69, 64
4, 41688, Note_off_c, 0, 69, 64
4, 41688, Note_off_c, 0, 64, 64
4, 41688, Note_on_c, 0, 64, 64
4, 41688, Note_on_c, 0, 69, 64
4, 41712, Note_off_c, 0, 69, 64
4, 41712, Note_off_c, 0, 64, 64
4, 41712, Note_on_c, 0, 64, 64
4, 41712, Note_on_c, 0, 69, 64
4, 41736, Note_off_c, 0, 69, 64
4, 41736, Note_off_c, 0, 64, 64
4, 41736, Note_on_c, 0, 64, 64
4, 41736, Note_on_c, 0, 69, 64
4, 41760, Note_off_c, 0, 69, 64
4, 41760, Note_off_c, 0, 64, 64
4, 41760, Note_on_c, 0, 66, 64
4, 41760, Note_on_c, 0, 71, 64
4, 41784, Note_off_c, 0, 66, 64
4, 41784, Note_off_c, 0, 71, 64
4, 41784, Note_on_c, 0, 66, 64
4, 41784, Note_on_c, 0, 71, 64
4, 41808, Note_off_c, 0, 71, 64
4, 41808, Note_off_c, 0, 66, 64
4, 41808, Note_on_c, 0, 66, 64
4, 41808, Note_on_c, 0, 71, 64
4, 41832, Note_off_c, 0, 71, 64
4, 41832, Note_off_c, 0, 66, 64
4, 41832, Note_on_c, 0, 66, 64
4, 41832, Note_on_c, 0, 71, 64
4, 41856, Note_off_c, 0, 71, 64
4, 41856, Note_off_c, 0, 66, 64
4, 41856, Note_on_c, 0, 69, 64
4, 41856, Note_on_c, 0, 76, 64
4, 41880, Note_off_c, 0, 69, 64
4, 41880, Note_off_c, 0, 76, 64
4, 41880, Note_on_c, 0, 69, 64
4, 41880, Note_on_c, 0, 76, 64
4, 41904, Note_off_c, 0, 76, 64
4, 41904, Note_off_c, 0, 69, 64
4, 41904, Note_on_c, 0, 69, 64
4, 41904, Note_on_c, 0, 76, 64
4, 41928, Note_off_c, 0, 76, 64
4, 41928, Note_off_c, 0, 69, 64
4, 41928, Note_on_c, 0, 69, 64
4, 41928, Note_on_c, 0, 76, 64
4, 41952, Note_off_c, 0, 76, 64
4, 41952, Note_off_c, 0, 69, 64
4, 41952, Note_on_c, 0, 66, 64
4, 41952, Note_on_c, 0, 71, 64
4, 41976, Note_off_c, 0, 66, 64
4, 41976, Note_off_c, 0, 71, 64
4, 41976, Note_on_c, 0, 66, 64
4, 41976, Note_on_c, 0, 71, 64
4, 42000, Note_off_c, 0, 71, 64
4, 42000, Note_off_c, 0, 66, 64
4, 42000, Note_on_c, 0, 66, 64
4, 42000, Note_on_c, 0, 71, 64
4, 42024, Note_off_c, 0, 71, 64
4, 42024, Note_off_c, 0, 66, 64
4, 42024, Note_on_c, 0, 66, 64
4, 42024, Note_on_c, 0, 71, 64
4, 42048, Note_off_c, 0, 71, 64
4, 42048, Note_off_c, 0, 66, 64
4, 42048, Note_on_c, 0, 64, 64
4, 42048, Note_on_c, 0, 69, 64
4, 42072, Note_off_c, 0, 64, 64
4, 42072, Note_off_c, 0, 69, 64
4, 42072, Note_on_c, 0, 64, 64
4, 42072, Note_on_c, 0, 69, 64
4, 42096, Note_off_c, 0, 69, 64
4, 42096, Note_off_c, 0, 64, 64
4, 42096, Note_on_c, 0, 69, 64
4, 42096, Note_on_c, 0, 64, 64
4, 42120, Note_off_c, 0, 64, 64
4, 42120, Note_off_c, 0, 69, 64
4, 42120, Note_on_c, 0, 66, 64
4, 42120, Note_on_c, 0, 71, 64
4, 42144, Note_off_c, 0, 71, 64
4, 42144, Note_off_c, 0, 66, 64
4, 42144, Note_on_c, 0, 66, 64
4, 42144, Note_on_c, 0, 71, 64
4, 42168, Note_off_c, 0, 66, 64
4, 42168, Note_off_c, 0, 71, 64
4, 42168, Note_on_c, 0, 66, 64
4, 42168, Note_on_c, 0, 71, 64
4, 42192, Note_off_c, 0, 71, 64
4, 42192, Note_off_c, 0, 66, 64
4, 42192, Note_on_c, 0, 64, 64
4, 42192, Note_on_c, 0, 69, 64
4, 42216, Note_off_c, 0, 69, 64
4, 42216, Note_off_c, 0, 64, 64
4, 42216, Note_on_c, 0, 64, 64
4, 42216, Note_on_c, 0, 69, 64
4, 42240, Note_off_c, 0, 69, 64
4, 42240, Note_off_c, 0, 64, 64
4, 42240, Note_on_c, 0, 76, 64
4, 42240, Note_on_c, 0, 69, 64
4, 42264, Note_off_c, 0, 69, 64
4, 42264, Note_off_c, 0, 76, 64
4, 42264, Note_on_c, 0, 69, 64
4, 42264, Note_on_c, 0, 76, 64
4, 42288, Note_off_c, 0, 76, 64
4, 42288, Note_off_c, 0, 69, 64
4, 42288, Note_on_c, 0, 69, 64
4, 42288, Note_on_c, 0, 76, 64
4, 42312, Note_off_c, 0, 76, 64
4, 42312, Note_off_c, 0, 69, 64
4, 42312, Note_on_c, 0, 69, 64
4, 42312, Note_on_c, 0, 76, 64
4, 42336, Note_off_c, 0, 76, 64
4, 42336, Note_off_c, 0, 69, 64
4, 42336, Note_on_c, 0, 66, 64
4, 42336, Note_on_c, 0, 71, 64
4, 42360, Note_off_c, 0, 66, 64
4, 42360, Note_off_c, 0, 71, 64
4, 42360, Note_on_c, 0, 66, 64
4, 42360, Note_on_c, 0, 71, 64
4, 42384, Note_off_c, 0, 71, 64
4, 42384, Note_off_c, 0, 66, 64
4, 42384, Note_on_c, 0, 66, 64
4, 42384, Note_on_c, 0, 71, 64
4, 42408, Note_off_c, 0, 71, 64
4, 42408, Note_off_c, 0, 66, 64
4, 42408, Note_on_c, 0, 66, 64
4, 42408, Note_on_c, 0, 71, 64
4, 42432, Note_off_c, 0, 71, 64
4, 42432, Note_off_c, 0, 66, 64
4, 42432, Note_on_c, 0, 64, 64
4, 42432, Note_on_c, 0, 69, 64
4, 42456, Note_off_c, 0, 69, 64
4, 42456, Note_off_c, 0, 64, 64
4, 42456, Note_on_c, 0, 69, 64
4, 42456, Note_on_c, 0, 64, 64
4, 42480, Note_off_c, 0, 64, 64
4, 42480, Note_off_c, 0, 69, 64
4, 42480, Note_on_c, 0, 69, 64
4, 42480, Note_on_c, 0, 64, 64
4, 42504, Note_off_c, 0, 64, 64
4, 42504, Note_off_c, 0, 69, 64
4, 42504, Note_on_c, 0, 69, 64
4, 42504, Note_on_c, 0, 64, 64
4, 42528, Note_off_c, 0, 64, 64
4, 42528, Note_off_c, 0, 69, 64
4, 42528, Note_on_c, 0, 71, 64
4, 42528, Note_on_c, 0, 66, 64
4, 42552, Note_off_c, 0, 71, 64
4, 42552, Note_off_c, 0, 66, 64
4, 42552, Note_on_c, 0, 71, 64
4, 42552, Note_on_c, 0, 66, 64
4, 42576, Note_off_c, 0, 66, 64
4, 42576, Note_off_c, 0, 71, 64
4, 42576, Note_on_c, 0, 71, 64
4, 42576, Note_on_c, 0, 66, 64
4, 42600, Note_off_c, 0, 66, 64
4, 42600, Note_off_c, 0, 71, 64
4, 42600, Note_on_c, 0, 71, 64
4, 42600, Note_on_c, 0, 66, 64
4, 42624, Note_off_c, 0, 66, 64
4, 42624, Note_off_c, 0, 71, 64
4, 42624, Note_on_c, 0, 69, 64
4, 42624, Note_on_c, 0, 76, 64
4, 42648, Note_off_c, 0, 69, 64
4, 42648, Note_off_c, 0, 76, 64
4, 42648, Note_on_c, 0, 69, 64
4, 42648, Note_on_c, 0, 76, 64
4, 42672, Note_off_c, 0, 76, 64
4, 42672, Note_off_c, 0, 69, 64
4, 42672, Note_on_c, 0, 69, 64
4, 42672, Note_on_c, 0, 76, 64
4, 42696, Note_off_c, 0, 76, 64
4, 42696, Note_off_c, 0, 69, 64
4, 42696, Note_on_c, 0, 69, 64
4, 42696, Note_on_c, 0, 76, 64
4, 42720, Note_off_c, 0, 76, 64
4, 42720, Note_off_c, 0, 69, 64
4, 42720, Note_on_c, 0, 66, 64
4, 42720, Note_on_c, 0, 71, 64
4, 42744, Note_off_c, 0, 66, 64
4, 42744, Note_off_c, 0, 71, 64
4, 42744, Note_on_c, 0, 66, 64
4, 42744, Note_on_c, 0, 71, 64
4, 42768, Note_off_c, 0, 71, 64
4, 42768, Note_off_c, 0, 66, 64
4, 42768, Note_on_c, 0, 66, 64
4, 42768, Note_on_c, 0, 71, 64
4, 42792, Note_off_c, 0, 71, 64
4, 42792, Note_off_c, 0, 66, 64
4, 42792, Note_on_c, 0, 66, 64
4, 42792, Note_on_c, 0, 71, 64
4, 42816, Note_off_c, 0, 71, 64
4, 42816, Note_off_c, 0, 66, 64
4, 42816, Note_on_c, 0, 69, 64
4, 42816, Note_on_c, 0, 64, 64
4, 42840, Note_off_c, 0, 64, 64
4, 42840, Note_off_c, 0, 69, 64
4, 42840, Note_on_c, 0, 69, 64
4, 42840, Note_on_c, 0, 64, 64
4, 42864, Note_off_c, 0, 64, 64
4, 42864, Note_off_c, 0, 69, 64
4, 42864, Note_on_c, 0, 64, 64
4, 42864, Note_on_c, 0, 69, 64
4, 42888, Note_off_c, 0, 69, 64
4, 42888, Note_off_c, 0, 64, 64
4, 42888, Note_on_c, 0, 66, 64
4, 42888, Note_on_c, 0, 71, 64
4, 42912, Note_off_c, 0, 71, 64
4, 42912, Note_off_c, 0, 66, 64
4, 42912, Note_on_c, 0, 66, 64
4, 42912, Note_on_c, 0, 71, 64
4, 42936, Note_off_c, 0, 66, 64
4, 42936, Note_off_c, 0, 71, 64
4, 42936, Note_on_c, 0, 66, 64
4, 42936, Note_on_c, 0, 71, 64
4, 42960, Note_off_c, 0, 71, 64
4, 42960, Note_off_c, 0, 66, 64
4, 42960, Note_on_c, 0, 69, 64
4, 42960, Note_on_c, 0, 64, 64
4, 42984, Note_off_c, 0, 64, 64
4, 42984, Note_off_c, 0, 69, 64
4, 42984, Note_on_c, 0, 64, 64
4, 42984, Note_on_c, 0, 69, 64
4, 43008, Note_off_c, 0, 69, 64
4, 43008, Note_off_c, 0, 64, 64
4, 43008, Note_on_c, 0, 69, 64
4, 43008, Note_on_c, 0, 76, 64
4, 43032, Note_off_c, 0, 69, 64
4, 43032, Note_off_c, 0, 76, 64
4, 43032, Note_on_c, 0, 69, 64
4, 43032, Note_on_c, 0, 76, 64
4, 43056, Note_off_c, 0, 76, 64
4, 43056, Note_off_c, 0, 69, 64
4, 43056, Note_on_c, 0, 69, 64
4, 43056, Note_on_c, 0, 76, 64
4, 43080, Note_off_c, 0, 76, 64
4, 43080, Note_off_c, 0, 69, 64
4, 43080, Note_on_c, 0, 69, 64
4, 43080, Note_on_c, 0, 76, 64
4, 43104, Note_off_c, 0, 76, 64
4, 43104, Note_off_c, 0, 69, 64
4, 43104, Note_on_c, 0, 66, 64
4, 43104, Note_on_c, 0, 71, 64
4, 43128, Note_off_c, 0, 66, 64
4, 43128, Note_off_c, 0, 71, 64
4, 43128, Note_on_c, 0, 66, 64
4, 43128, Note_on_c, 0, 71, 64
4, 43152, Note_off_c, 0, 71, 64
4, 43152, Note_off_c, 0, 66, 64
4, 43152, Note_on_c, 0, 66, 64
4, 43152, Note_on_c, 0, 71, 64
4, 43176, Note_off_c, 0, 71, 64
4, 43176, Note_off_c, 0, 66, 64
4, 43176, Note_on_c, 0, 71, 64
4, 43176, Note_on_c, 0, 66, 64
4, 43200, Note_off_c, 0, 66, 64
4, 43200, Note_off_c, 0, 71, 64
4, 43200, Note_on_c, 0, 64, 64
4, 43200, Note_on_c, 0, 69, 64
4, 43224, Note_off_c, 0, 69, 64
4, 43224, Note_off_c, 0, 64, 64
4, 43224, Note_on_c, 0, 64, 64
4, 43224, Note_on_c, 0, 69, 64
4, 43248, Note_off_c, 0, 69, 64
4, 43248, Note_off_c, 0, 64, 64
4, 43248, Note_on_c, 0, 64, 64
4, 43248, Note_on_c, 0, 69, 64
4, 43272, Note_off_c, 0, 69, 64
4, 43272, Note_off_c, 0, 64, 64
4, 43272, Note_on_c, 0, 64, 64
4, 43272, Note_on_c, 0, 69, 64
4, 43296, Note_off_c, 0, 69, 64
4, 43296, Note_off_c, 0, 64, 64
4, 43296, Note_on_c, 0, 66, 64
4, 43296, Note_on_c, 0, 71, 64
4, 43320, Note_off_c, 0, 66, 64
4, 43320, Note_off_c, 0, 71, 64
4, 43320, Note_on_c, 0, 66, 64
4, 43320, Note_on_c, 0, 71, 64
4, 43344, Note_off_c, 0, 71, 64
4, 43344, Note_off_c, 0, 66, 64
4, 43344, Note_on_c, 0, 66, 64
4, 43344, Note_on_c, 0, 71, 64
4, 43368, Note_off_c, 0, 71, 64
4, 43368, Note_off_c, 0, 66, 64
4, 43368, Note_on_c, 0, 66, 64
4, 43368, Note_on_c, 0, 71, 64
4, 43392, Note_off_c, 0, 71, 64
4, 43392, Note_off_c, 0, 66, 64
4, 43392, Note_on_c, 0, 69, 64
4, 43392, Note_on_c, 0, 76, 64
4, 43416, Note_off_c, 0, 69, 64
4, 43416, Note_off_c, 0, 76, 64
4, 43416, Note_on_c, 0, 69, 64
4, 43416, Note_on_c, 0, 76, 64
4, 43440, Note_off_c, 0, 76, 64
4, 43440, Note_off_c, 0, 69, 64
4, 43440, Note_on_c, 0, 69, 64
4, 43440, Note_on_c, 0, 76, 64
4, 43464, Note_off_c, 0, 76, 64
4, 43464, Note_off_c, 0, 69, 64
4, 43464, Note_on_c, 0, 69, 64
4, 43464, Note_on_c, 0, 76, 64
4, 43488, Note_off_c, 0, 76, 64
4, 43488, Note_off_c, 0, 69, 64
4, 43488, Note_on_c, 0, 66, 64
4, 43488, Note_on_c, 0, 71, 64
4, 43512, Note_off_c, 0, 66, 64
4, 43512, Note_off_c, 0, 71, 64
4, 43512, Note_on_c, 0, 66, 64
4, 43512, Note_on_c, 0, 71, 64
4, 43536, Note_off_c, 0, 71, 64
4, 43536, Note_off_c, 0, 66, 64
4, 43536, Note_on_c, 0, 66, 64
4, 43536, Note_on_c, 0, 71, 64
4, 43560, Note_off_c, 0, 71, 64
4, 43560, Note_off_c, 0, 66, 64
4, 43560, Note_on_c, 0, 66, 64
4, 43560, Note_on_c, 0, 71, 64
4, 43584, Note_off_c, 0, 71, 64
4, 43584, Note_off_c, 0, 66, 64
4, 43584, Note_on_c, 0, 64, 64
4, 43584, Note_on_c, 0, 69, 64
4, 43608, Note_off_c, 0, 69, 64
4, 43608, Note_off_c, 0, 64, 64
4, 43608, Note_on_c, 0, 64, 64
4, 43608, Note_on_c, 0, 69, 64
4, 43632, Note_off_c, 0, 69, 64
4, 43632, Note_off_c, 0, 64, 64
4, 43632, Note_on_c, 0, 69, 64
4, 43632, Note_on_c, 0, 64, 64
4, 43656, Note_off_c, 0, 64, 64
4, 43656, Note_off_c, 0, 69, 64
4, 43656, Note_on_c, 0, 66, 64
4, 43656, Note_on_c, 0, 71, 64
4, 43680, Note_off_c, 0, 71, 64
4, 43680, Note_off_c, 0, 66, 64
4, 43680, Note_on_c, 0, 66, 64
4, 43680, Note_on_c, 0, 71, 64
4, 43704, Note_off_c, 0, 66, 64
4, 43704, Note_off_c, 0, 71, 64
4, 43704, Note_on_c, 0, 66, 64
4, 43704, Note_on_c, 0, 71, 64
4, 43728, Note_off_c, 0, 71, 64
4, 43728, Note_off_c, 0, 66, 64
4, 43728, Note_on_c, 0, 64, 64
4, 43728, Note_on_c, 0, 69, 64
4, 43752, Note_off_c, 0, 69, 64
4, 43752, Note_off_c, 0, 64, 64
4, 43752, Note_on_c, 0, 64, 64
4, 43752, Note_on_c, 0, 69, 64
4, 43776, Note_off_c, 0, 69, 64
4, 43776, Note_off_c, 0, 64, 64
4, 43776, Note_on_c, 0, 76, 64
4, 43776, Note_on_c, 0, 69, 64
4, 43800, Note_off_c, 0, 76, 64
4, 43800, Note_off_c, 0, 69, 64
4, 43800, Note_on_c, 0, 69, 64
4, 43800, Note_on_c, 0, 76, 64
4, 43824, Note_off_c, 0, 76, 64
4, 43824, Note_off_c, 0, 69, 64
4, 43824, Note_on_c, 0, 69, 64
4, 43824, Note_on_c, 0, 76, 64
4, 43848, Note_off_c, 0, 76, 64
4, 43848, Note_off_c, 0, 69, 64
4, 43848, Note_on_c, 0, 69, 64
4, 43848, Note_on_c, 0, 76, 64
4, 43872, Note_off_c, 0, 76, 64
4, 43872, Note_off_c, 0, 69, 64
4, 43872, Note_on_c, 0, 66, 64
4, 43872, Note_on_c, 0, 71, 64
4, 43896, Note_off_c, 0, 66, 64
4, 43896, Note_off_c, 0, 71, 64
4, 43896, Note_on_c, 0, 66, 64
4, 43896, Note_on_c, 0, 71, 64
4, 43920, Note_off_c, 0, 71, 64
4, 43920, Note_off_c, 0, 66, 64
4, 43920, Note_on_c, 0, 66, 64
4, 43920, Note_on_c, 0, 71, 64
4, 43944, Note_off_c, 0, 71, 64
4, 43944, Note_off_c, 0, 66, 64
4, 43944, Note_on_c, 0, 66, 64
4, 43944, Note_on_c, 0, 71, 64
4, 43968, Note_off_c, 0, 71, 64
4, 43968, Note_off_c, 0, 66, 64
4, 43968, Note_on_c, 0, 64, 64
4, 43968, Note_on_c, 0, 69, 64
4, 43992, Note_off_c, 0, 69, 64
4, 43992, Note_off_c, 0, 64, 64
4, 43992, Note_on_c, 0, 69, 64
4, 43992, Note_on_c, 0, 64, 64
4, 44016, Note_off_c, 0, 64, 64
4, 44016, Note_off_c, 0, 69, 64
4, 44016, Note_on_c, 0, 69, 64
4, 44016, Note_on_c, 0, 64, 64
4, 44040, Note_off_c, 0, 64, 64
4, 44040, Note_off_c, 0, 69, 64
4, 44040, Note_on_c, 0, 69, 64
4, 44040, Note_on_c, 0, 64, 64
4, 44064, Note_off_c, 0, 64, 64
4, 44064, Note_off_c, 0, 69, 64
4, 44064, Note_on_c, 0, 71, 64
4, 44064, Note_on_c, 0, 66, 64
4, 44088, Note_off_c, 0, 71, 64
4, 44088, Note_off_c, 0, 66, 64
4, 44088, Note_on_c, 0, 71, 64
4, 44088, Note_on_c, 0, 66, 64
4, 44112, Note_off_c, 0, 66, 64
4, 44112, Note_off_c, 0, 71, 64
4, 44112, Note_on_c, 0, 71, 64
4, 44112, Note_on_c, 0, 66, 64
4, 44136, Note_off_c, 0, 66, 64
4, 44136, Note_off_c, 0, 71, 64
4, 44136, Note_on_c, 0, 71, 64
4, 44136, Note_on_c, 0, 66, 64
4, 44160, Note_off_c, 0, 66, 64
4, 44160, Note_off_c, 0, 71, 64
4, 44160, Note_on_c, 0, 69, 64
4, 44160, Note_on_c, 0, 76, 64
4, 44184, Note_off_c, 0, 69, 64
4, 44184, Note_off_c, 0, 76, 64
4, 44184, Note_on_c, 0, 69, 64
4, 44184, Note_on_c, 0, 76, 64
4, 44208, Note_off_c, 0, 76, 64
4, 44208, Note_off_c, 0, 69, 64
4, 44208, Note_on_c, 0, 69, 64
4, 44208, Note_on_c, 0, 76, 64
4, 44232, Note_off_c, 0, 76, 64
4, 44232, Note_off_c, 0, 69, 64
4, 44232, Note_on_c, 0, 69, 64
4, 44232, Note_on_c, 0, 76, 64
4, 44256, Note_off_c, 0, 76, 64
4, 44256, Note_off_c, 0, 69, 64
4, 44256, Note_on_c, 0, 66, 64
4, 44256, Note_on_c, 0, 71, 64
4, 44280, Note_off_c, 0, 66, 64
4, 44280, Note_off_c, 0, 71, 64
4, 44280, Note_on_c, 0, 66, 64
4, 44280, Note_on_c, 0, 71, 64
4, 44304, Note_off_c, 0, 71, 64
4, 44304, Note_off_c, 0, 66, 64
4, 44304, Note_on_c, 0, 66, 64
4, 44304, Note_on_c, 0, 71, 64
4, 44328, Note_off_c, 0, 71, 64
4, 44328, Note_off_c, 0, 66, 64
4, 44328, Note_on_c, 0, 66, 64
4, 44328, Note_on_c, 0, 71, 64
4, 44352, Note_off_c, 0, 71, 64
4, 44352, Note_off_c, 0, 66, 64
4, 44352, Note_on_c, 0, 69, 64
4, 44352, Note_on_c, 0, 64, 64
4, 44376, Note_off_c, 0, 64, 64
4, 44376, Note_off_c, 0, 69, 64
4, 44376, Note_on_c, 0, 69, 64
4, 44376, Note_on_c, 0, 64, 64
4, 44400, Note_off_c, 0, 64, 64
4, 44400, Note_off_c, 0, 69, 64
4, 44400, Note_on_c, 0, 64, 64
4, 44400, Note_on_c, 0, 69, 64
4, 44424, Note_off_c, 0, 69, 64
4, 44424, Note_off_c, 0, 64, 64
4, 44424, Note_on_c, 0, 66, 64
4, 44424, Note_on_c, 0, 71, 64
4, 44448, Note_off_c, 0, 71, 64
4, 44448, Note_off_c, 0, 66, 64
4, 44448, Note_on_c, 0, 66, 64
4, 44448, Note_on_c, 0, 71, 64
4, 44472, Note_off_c, 0, 66, 64
4, 44472, Note_off_c, 0, 71, 64
4, 44472, Note_on_c, 0, 66, 64
4, 44472, Note_on_c, 0, 71, 64
4, 44496, Note_off_c, 0, 71, 64
4, 44496, Note_off_c, 0, 66, 64
4, 44496, Note_on_c, 0, 69, 64
4, 44496, Note_on_c, 0, 64, 64
4, 44520, Note_off_c, 0, 64, 64
4, 44520, Note_off_c, 0, 69, 64
4, 44520, Note_on_c, 0, 64, 64
4, 44520, Note_on_c, 0, 69, 64
4, 44544, Note_off_c, 0, 69, 64
4, 44544, Note_off_c, 0, 64, 64
4, 44544, Note_on_c, 0, 69, 64
4, 44544, Note_on_c, 0, 76, 64
4, 44568, Note_off_c, 0, 69, 64
4, 44568, Note_off_c, 0, 76, 64
4, 44568, Note_on_c, 0, 69, 64
4, 44568, Note_on_c, 0, 76, 64
4, 44592, Note_off_c, 0, 76, 64
4, 44592, Note_off_c, 0, 69, 64
4, 44592, Note_on_c, 0, 69, 64
4, 44592, Note_on_c, 0, 76, 64
4, 44616, Note_off_c, 0, 76, 64
4, 44616, Note_off_c, 0, 69, 64
4, 44616, Note_on_c, 0, 69, 64
4, 44616, Note_on_c, 0, 76, 64
4, 44640, Note_off_c, 0, 76, 64
4, 44640, Note_off_c, 0, 69, 64
4, 44640, Note_on_c, 0, 66, 64
4, 44640, Note_on_c, 0, 71, 64
4, 44664, Note_off_c, 0, 66, 64
4, 44664, Note_off_c, 0, 71, 64
4, 44664, Note_on_c, 0, 66, 64
4, 44664, Note_on_c, 0, 71, 64
4, 44688, Note_off_c, 0, 71, 64
4, 44688, Note_off_c, 0, 66, 64
4, 44688, Note_on_c, 0, 66, 64
4, 44688, Note_on_c, 0, 71, 64
4, 44712, Note_off_c, 0, 71, 64
4, 44712, Note_off_c, 0, 66, 64
4, 44712, Note_on_c, 0, 71, 64
4, 44712, Note_on_c, 0, 66, 64
4, 44736, Note_off_c, 0, 66, 64
4, 44736, Note_off_c, 0, 71, 64
4, 44736, Note_on_c, 0, 64, 64
4, 44736, Note_on_c, 0, 69, 64
4, 44760, Note_off_c, 0, 69, 64
4, 44760, Note_off_c, 0, 64, 64
4, 44760, Note_on_c, 0, 64, 64
4, 44760, Note_on_c, 0, 69, 64
4, 44784, Note_off_c, 0, 69, 64
4, 44784, Note_off_c, 0, 64, 64
4, 44784, Note_on_c, 0, 64, 64
4, 44784, Note_on_c, 0, 69, 64
4, 44808, Note_off_c, 0, 69, 64
4, 44808, Note_off_c, 0, 64, 64
4, 44808, Note_on_c, 0, 64, 64
4, 44808, Note_on_c, 0, 69, 64
4, 44832, Note_off_c, 0, 69, 64
4, 44832, Note_off_c, 0, 64, 64
4, 44832, Note_on_c, 0, 66, 64
4, 44832, Note_on_c, 0, 71, 64
4, 44856, Note_off_c, 0, 66, 64
4, 44856, Note_off_c, 0, 71, 64
4, 44856, Note_on_c, 0, 66, 64
4, 44856, Note_on_c, 0, 71, 64
4, 44880, Note_off_c, 0, 71, 64
4, 44880, Note_off_c, 0, 66, 64
4, 44880, Note_on_c, 0, 66, 64
4, 44880, Note_on_c, 0, 71, 64
4, 44904, Note_off_c, 0, 71, 64
4, 44904, Note_off_c, 0, 66, 64
4, 44904, Note_on_c, 0, 66, 64
4, 44904, Note_on_c, 0, 71, 64
4, 44928, Note_off_c, 0, 71, 64
4, 44928, Note_off_c, 0, 66, 64
4, 44928, Note_on_c, 0, 69, 64
4, 44928, Note_on_c, 0, 76, 64
4, 44952, Note_off_c, 0, 69, 64
4, 44952, Note_off_c, 0, 76, 64
4, 44952, Note_on_c, 0, 69, 64
4, 44952, Note_on_c, 0, 76, 64
4, 44976, Note_off_c, 0, 76, 64
4, 44976, Note_off_c, 0, 69, 64
4, 44976, Note_on_c, 0, 69, 64
4, 44976, Note_on_c, 0, 76, 64
4, 45000, Note_off_c, 0, 76, 64
4, 45000, Note_off_c, 0, 69, 64
4, 45000, Note_on_c, 0, 69, 64
4, 45000, Note_on_c, 0, 76, 64
4, 45024, Note_off_c, 0, 76, 64
4, 45024, Note_off_c, 0, 69, 64
4, 45024, Note_on_c, 0, 66, 64
4, 45024, Note_on_c, 0, 71, 64
4, 45048, Note_off_c, 0, 66, 64
4, 45048, Note_off_c, 0, 71, 64
4, 45048, Note_on_c, 0, 66, 64
4, 45048, Note_on_c, 0, 71, 64
4, 45072, Note_off_c, 0, 71, 64
4, 45072, Note_off_c, 0, 66, 64
4, 45072, Note_on_c, 0, 66, 64
4, 45072, Note_on_c, 0, 71, 64
4, 45096, Note_off_c, 0, 71, 64
4, 45096, Note_off_c, 0, 66, 64
4, 45096, Note_on_c, 0, 66, 64
4, 45096, Note_on_c, 0, 71, 64
4, 45120, Note_off_c, 0, 71, 64
4, 45120, Note_off_c, 0, 66, 64
4, 45120, Note_on_c, 0, 64, 64
4, 45120, Note_on_c, 0, 69, 64
4, 45144, Note_off_c, 0, 64, 64
4, 45144, Note_off_c, 0, 69, 64
4, 45144, Note_on_c, 0, 64, 64
4, 45144, Note_on_c, 0, 69, 64
4, 45168, Note_off_c, 0, 69, 64
4, 45168, Note_off_c, 0, 64, 64
4, 45168, Note_on_c, 0, 69, 64
4, 45168, Note_on_c, 0, 64, 64
4, 45192, Note_off_c, 0, 64, 64
4, 45192, Note_off_c, 0, 69, 64
4, 45192, Note_on_c, 0, 66, 64
4, 45192, Note_on_c, 0, 71, 64
4, 45216, Note_off_c, 0, 71, 64
4, 45216, Note_off_c, 0, 66, 64
4, 45216, Note_on_c, 0, 66, 64
4, 45216, Note_on_c, 0, 71, 64
4, 45240, Note_off_c, 0, 66, 64
4, 45240, Note_off_c, 0, 71, 64
4, 45240, Note_on_c, 0, 66, 64
4, 45240, Note_on_c, 0, 71, 64
4, 45264, Note_off_c, 0, 71, 64
4, 45264, Note_off_c, 0, 66, 64
4, 45264, Note_on_c, 0, 64, 64
4, 45264, Note_on_c, 0, 69, 64
4, 45288, Note_off_c, 0, 69, 64
4, 45288, Note_off_c, 0, 64, 64
4, 45288, Note_on_c, 0, 64, 64
4, 45288, Note_on_c, 0, 69, 64
4, 45312, Note_off_c, 0, 69, 64
4, 45312, Note_off_c, 0, 64, 64
4, 45312, Note_on_c, 0, 76, 64
4, 45312, Note_on_c, 0, 69, 64
4, 45336, Note_off_c, 0, 69, 64
4, 45336, Note_off_c, 0, 76, 64
4, 45336, Note_on_c, 0, 69, 64
4, 45336, Note_on_c, 0, 76, 64
4, 45360, Note_off_c, 0, 76, 64
4, 45360, Note_off_c, 0, 69, 64
4, 45360, Note_on_c, 0, 69, 64
4, 45360, Note_on_c, 0, 76, 64
4, 45384, Note_off_c, 0, 76, 64
4, 45384, Note_off_c, 0, 69, 64
4, 45384, Note_on_c, 0, 69, 64
4, 45384, Note_on_c, 0, 76, 64
4, 45408, Note_off_c, 0, 76, 64
4, 45408, Note_off_c, 0, 69, 64
4, 45408, Note_on_c, 0, 66, 64
4, 45408, Note_on_c, 0, 71, 64
4, 45432, Note_off_c, 0, 66, 64
4, 45432, Note_off_c, 0, 71, 64
4, 45432, Note_on_c, 0, 66, 64
4, 45432, Note_on_c, 0, 71, 64
4, 45456, Note_off_c, 0, 71, 64
4, 45456, Note_off_c, 0, 66, 64
4, 45456, Note_on_c, 0, 66, 64
4, 45456, Note_on_c, 0, 71, 64
4, 45480, Note_off_c, 0, 71, 64
4, 45480, Note_off_c, 0, 66, 64
4, 45480, Note_on_c, 0, 66, 64
4, 45480, Note_on_c, 0, 71, 64
4, 45504, Note_off_c, 0, 71, 64
4, 45504, Note_off_c, 0, 66, 64
4, 45504, Note_on_c, 0, 64, 64
4, 45504, Note_on_c, 0, 69, 64
4, 45528, Note_off_c, 0, 69, 64
4, 45528, Note_off_c, 0, 64, 64
4, 45528, Note_on_c, 0, 69, 64
4, 45528, Note_on_c, 0, 64, 64
4, 45552, Note_off_c, 0, 64, 64
4, 45552, Note_off_c, 0, 69, 64
4, 45552, Note_on_c, 0, 69, 64
4, 45552, Note_on_c, 0, 64, 64
4, 45576, Note_off_c, 0, 64, 64
4, 45576, Note_off_c, 0, 69, 64
4, 45576, Note_on_c, 0, 69, 64
4, 45576, Note_on_c, 0, 64, 64
4, 45600, Note_off_c, 0, 64, 64
4, 45600, Note_off_c, 0, 69, 64
4, 45600, Note_on_c, 0, 71, 64
4, 45600, Note_on_c, 0, 66, 64
4, 45624, Note_off_c, 0, 71, 64
4, 45624, Note_off_c, 0, 66, 64
4, 45624, Note_on_c, 0, 71, 64
4, 45624, Note_on_c, 0, 66, 64
4, 45648, Note_off_c, 0, 66, 64
4, 45648, Note_off_c, 0, 71, 64
4, 45648, Note_on_c, 0, 71, 64
4, 45648, Note_on_c, 0, 66, 64
4, 45672, Note_off_c, 0, 66, 64
4, 45672, Note_off_c, 0, 71, 64
4, 45672, Note_on_c, 0, 71, 64
4, 45672, Note_on_c, 0, 66, 64
4, 45696, Note_off_c, 0, 66, 64
4, 45696, Note_off_c, 0, 71, 64
4, 45696, Note_on_c, 0, 69, 64
4, 45696, Note_on_c, 0, 76, 64
4, 45720, Note_off_c, 0, 69, 64
4, 45720, Note_off_c, 0, 76, 64
4, 45720, Note_on_c, 0, 69, 64
4, 45720, Note_on_c, 0, 76, 64
4, 45744, Note_off_c, 0, 76, 64
4, 45744, Note_off_c, 0, 69, 64
4, 45744, Note_on_c, 0, 69, 64
4, 45744, Note_on_c, 0, 76, 64
4, 45768, Note_off_c, 0, 76, 64
4, 45768, Note_off_c, 0, 69, 64
4, 45768, Note_on_c, 0, 69, 64
4, 45768, Note_on_c, 0, 76, 64
4, 45792, Note_off_c, 0, 76, 64
4, 45792, Note_off_c, 0, 69, 64
4, 45792, Note_on_c, 0, 66, 64
4, 45792, Note_on_c, 0, 71, 64
4, 45816, Note_off_c, 0, 66, 64
4, 45816, Note_off_c, 0, 71, 64
4, 45816, Note_on_c, 0, 66, 64
4, 45816, Note_on_c, 0, 71, 64
4, 45840, Note_off_c, 0, 71, 64
4, 45840, Note_off_c, 0, 66, 64
4, 45840, Note_on_c, 0, 66, 64
4, 45840, Note_on_c, 0, 71, 64
4, 45864, Note_off_c, 0, 71, 64
4, 45864, Note_off_c, 0, 66, 64
4, 45864, Note_on_c, 0, 66, 64
4, 45864, Note_on_c, 0, 71, 64
4, 45888, Note_off_c, 0, 71, 64
4, 45888, Note_off_c, 0, 66, 64
4, 45888, Note_on_c, 0, 69, 64
4, 45888, Note_on_c, 0, 64, 64
4, 45912, Note_off_c, 0, 64, 64
4, 45912, Note_off_c, 0, 69, 64
4, 45912, Note_on_c, 0, 69, 64
4, 45912, Note_on_c, 0, 64, 64
4, 45936, Note_off_c, 0, 64, 64
4, 45936, Note_off_c, 0, 69, 64
4, 45936, Note_on_c, 0, 64, 64
4, 45936, Note_on_c, 0, 69, 64
4, 45960, Note_off_c, 0, 69, 64
4, 45960, Note_off_c, 0, 64, 64
4, 45960, Note_on_c, 0, 66, 64
4, 45960, Note_on_c, 0, 71, 64
4, 45984, Note_off_c, 0, 71, 64
4, 45984, Note_off_c, 0, 66, 64
4, 45984, Note_on_c, 0, 66, 64
4, 45984, Note_on_c, 0, 71, 64
4, 46008, Note_off_c, 0, 66, 64
4, 46008, Note_off_c, 0, 71, 64
4, 46008, Note_on_c, 0, 66, 64
4, 46008, Note_on_c, 0, 71, 64
4, 46032, Note_off_c, 0, 71, 64
4, 46032, Note_off_c, 0, 66, 64
4, 46032, Note_on_c, 0, 69, 64
4, 46032, Note_on_c, 0, 64, 64
4, 46056, Note_off_c, 0, 64, 64
4, 46056, Note_off_c, 0, 69, 64
4, 46056, Note_on_c, 0, 64, 64
4, 46056, Note_on_c, 0, 69, 64
4, 46080, Note_off_c, 0, 69, 64
4, 46080, Note_off_c, 0, 64, 64
4, 46080, Note_on_c, 0, 69, 64
4, 46080, Note_on_c, 0, 76, 64
4, 46104, Note_off_c, 0, 69, 64
4, 46104, Note_off_c, 0, 76, 64
4, 46104, Note_on_c, 0, 69, 64
4, 46104, Note_on_c, 0, 76, 64
4, 46128, Note_off_c, 0, 76, 64
4, 46128, Note_off_c, 0, 69, 64
4, 46128, Note_on_c, 0, 69, 64
4, 46128, Note_on_c, 0, 76, 64
4, 46152, Note_off_c, 0, 76, 64
4, 46152, Note_off_c, 0, 69, 64
4, 46152, Note_on_c, 0, 69, 64
4, 46152, Note_on_c, 0, 76, 64
4, 46176, Note_off_c, 0, 76, 64
4, 46176, Note_off_c, 0, 69, 64
4, 46176, Note_on_c, 0, 66, 64
4, 46176, Note_on_c, 0, 71, 64
4, 46200, Note_off_c, 0, 66, 64
4, 46200, Note_off_c, 0, 71, 64
4, 46200, Note_on_c, 0, 66, 64
4, 46200, Note_on_c, 0, 71, 64
4, 46224, Note_off_c, 0, 71, 64
4, 46224, Note_off_c, 0, 66, 64
4, 46224, Note_on_c, 0, 66, 64
4, 46224, Note_on_c, 0, 71, 64
4, 46248, Note_off_c, 0, 71, 64
4, 46248, Note_off_c, 0, 66, 64
4, 46248, Note_on_c, 0, 71, 64
4, 46248, Note_on_c, 0, 66, 64
4, 46272, Note_off_c, 0, 66, 64
4, 46272, Note_off_c, 0, 71, 64
4, 46272, Note_on_c, 0, 64, 64
4, 46272, Note_on_c, 0, 69, 64
4, 46296, Note_off_c, 0, 69, 64
4, 46296, Note_off_c, 0, 64, 64
4, 46296, Note_on_c, 0, 64, 64
4, 46296, Note_on_c, 0, 69, 64
4, 46320, Note_off_c, 0, 69, 64
4, 46320, Note_off_c, 0, 64, 64
4, 46320, Note_on_c, 0, 64, 64
4, 46320, Note_on_c, 0, 69, 64
4, 46344, Note_off_c, 0, 69, 64
4, 46344, Note_off_c, 0, 64, 64
4, 46344, Note_on_c, 0, 64, 64
4, 46344, Note_on_c, 0, 69, 64
4, 46368, Note_off_c, 0, 69, 64
4, 46368, Note_off_c, 0, 64, 64
4, 46368, Note_on_c, 0, 66, 64
4, 46368, Note_on_c, 0, 71, 64
4, 46392, Note_off_c, 0, 66, 64
4, 46392, Note_off_c, 0, 71, 64
4, 46392, Note_on_c, 0, 66, 64
4, 46392, Note_on_c, 0, 71, 64
4, 46416, Note_off_c, 0, 71, 64
4, 46416, Note_off_c, 0, 66, 64
4, 46416, Note_on_c, 0, 66, 64
4, 46416, Note_on_c, 0, 71, 64
4, 46440, Note_off_c, 0, 71, 64
4, 46440, Note_off_c, 0, 66, 64
4, 46440, Note_on_c, 0, 66, 64
4, 46440, Note_on_c, 0, 71, 64
4, 46464, Note_off_c, 0, 71, 64
4, 46464, Note_off_c, 0, 66, 64
4, 46464, Note_on_c, 0, 69, 64
4, 46464, Note_on_c, 0, 76, 64
4, 46488, Note_off_c, 0, 69, 64
4, 46488, Note_off_c, 0, 76, 64
4, 46488, Note_on_c, 0, 69, 64
4, 46488, Note_on_c, 0, 76, 64
4, 46512, Note_off_c, 0, 76, 64
4, 46512, Note_off_c, 0, 69, 64
4, 46512, Note_on_c, 0, 69, 64
4, 46512, Note_on_c, 0, 76, 64
4, 46536, Note_off_c, 0, 76, 64
4, 46536, Note_off_c, 0, 69, 64
4, 46536, Note_on_c, 0, 69, 64
4, 46536, Note_on_c, 0, 76, 64
4, 46560, Note_off_c, 0, 76, 64
4, 46560, Note_off_c, 0, 69, 64
4, 46560, Note_on_c, 0, 66, 64
4, 46560, Note_on_c, 0, 71, 64
4, 46584, Note_off_c, 0, 66, 64
4, 46584, Note_off_c, 0, 71, 64
4, 46584, Note_on_c, 0, 66, 64
4, 46584, Note_on_c, 0, 71, 64
4, 46608, Note_off_c, 0, 71, 64
4, 46608, Note_off_c, 0, 66, 64
4, 46608, Note_on_c, 0, 66, 64
4, 46608, Note_on_c, 0, 71, 64
4, 46632, Note_off_c, 0, 71, 64
4, 46632, Note_off_c, 0, 66, 64
4, 46632, Note_on_c, 0, 66, 64
4, 46632, Note_on_c, 0, 71, 64
4, 46656, Note_off_c, 0, 71, 64
4, 46656, Note_off_c, 0, 66, 64
4, 46656, Note_on_c, 0, 64, 64
4, 46656, Note_on_c, 0, 69, 64
4, 46680, Note_off_c, 0, 64, 64
4, 46680, Note_off_c, 0, 69, 64
4, 46680, Note_on_c, 0, 64, 64
4, 46680, Note_on_c, 0, 69, 64
4, 46704, Note_off_c, 0, 69, 64
4, 46704, Note_off_c, 0, 64, 64
4, 46704, Note_on_c, 0, 69, 64
4, 46704, Note_on_c, 0, 64, 64
4, 46728, Note_off_c, 0, 64, 64
4, 46728, Note_off_c, 0, 69, 64
4, 46728, Note_on_c, 0, 66, 64
4, 46728, Note_on_c, 0, 71, 64
4, 46752, Note_off_c, 0, 71, 64
4, 46752, Note_off_c, 0, 66, 64
4, 46752, Note_on_c, 0, 66, 64
4, 46752, Note_on_c, 0, 71, 64
4, 46776, Note_off_c, 0, 66, 64
4, 46776, Note_off_c, 0, 71, 64
4, 46776, Note_on_c, 0, 66, 64
4, 46776, Note_on_c, 0, 71, 64
4, 46800, Note_off_c, 0, 71, 64
4, 46800, Note_off_c, 0, 66, 64
4, 46800, Note_on_c, 0, 64, 64
4, 46800, Note_on_c, 0, 69, 64
4, 46824, Note_off_c, 0, 69, 64
4, 46824, Note_off_c, 0, 64, 64
4, 46824, Note_on_c, 0, 64, 64
4, 46824, Note_on_c, 0, 69, 64
4, 46848, Note_off_c, 0, 69, 64
4, 46848, Note_off_c, 0, 64, 64
4, 46848, Note_on_c, 0, 76, 64
4, 46848, Note_on_c, 0, 69, 64
4, 46872, Note_off_c, 0, 69, 64
4, 46872, Note_off_c, 0, 76, 64
4, 46872, Note_on_c, 0, 69, 64
4, 46872, Note_on_c, 0, 76, 64
4, 46896, Note_off_c, 0, 76, 64
4, 46896, Note_off_c, 0, 69, 64
4, 46896, Note_on_c, 0, 69, 64
4, 46896, Note_on_c, 0, 76, 64
4, 46920, Note_off_c, 0, 76, 64
4, 46920, Note_off_c, 0, 69, 64
4, 46920, Note_on_c, 0, 69, 64
4, 46920, Note_on_c, 0, 76, 64
4, 46944, Note_off_c, 0, 76, 64
4, 46944, Note_off_c, 0, 69, 64
4, 46944, Note_on_c, 0, 66, 64
4, 46944, Note_on_c, 0, 71, 64
4, 46968, Note_off_c, 0, 71, 64
4, 46968, Note_off_c, 0, 66, 64
4, 46968, Note_on_c, 0, 66, 64
4, 46968, Note_on_c, 0, 71, 64
4, 46992, Note_off_c, 0, 71, 64
4, 46992, Note_off_c, 0, 66, 64
4, 46992, Note_on_c, 0, 66, 64
4, 46992, Note_on_c, 0, 71, 64
4, 47016, Note_off_c, 0, 71, 64
4, 47016, Note_off_c, 0, 66, 64
4, 47016, Note_on_c, 0, 66, 64
4, 47016, Note_on_c, 0, 71, 64
4, 47040, Note_off_c, 0, 71, 64
4, 47040, Note_off_c, 0, 66, 64
4, 47040, Note_on_c, 0, 64, 64
4, 47040, Note_on_c, 0, 69, 64
4, 47064, Note_off_c, 0, 69, 64
4, 47064, Note_off_c, 0, 64, 64
4, 47064, Note_on_c, 0, 69, 64
4, 47064, Note_on_c, 0, 64, 64
4, 47088, Note_off_c, 0, 64, 64
4, 47088, Note_off_c, 0, 69, 64
4, 47088, Note_on_c, 0, 69, 64
4, 47088, Note_on_c, 0, 64, 64
4, 47112, Note_off_c, 0, 64, 64
4, 47112, Note_off_c, 0, 69, 64
4, 47112, Note_on_c, 0, 69, 64
4, 47112, Note_on_c, 0, 64, 64
4, 47136, Note_off_c, 0, 64, 64
4, 47136, Note_off_c, 0, 69, 64
4, 47136, Note_on_c, 0, 71, 64
4, 47136, Note_on_c, 0, 66, 64
4, 47160, Note_off_c, 0, 66, 64
4, 47160, Note_off_c, 0, 71, 64
4, 47160, Note_on_c, 0, 71, 64
4, 47160, Note_on_c, 0, 66, 64
4, 47184, Note_off_c, 0, 66, 64
4, 47184, Note_off_c, 0, 71, 64
4, 47184, Note_on_c, 0, 71, 64
4, 47184, Note_on_c, 0, 66, 64
4, 47208, Note_off_c, 0, 66, 64
4, 47208, Note_off_c, 0, 71, 64
4, 47208, Note_on_c, 0, 71, 64
4, 47208, Note_on_c, 0, 66, 64
4, 47232, Note_off_c, 0, 66, 64
4, 47232, Note_off_c, 0, 71, 64
4, 47232, Note_on_c, 0, 69, 64
4, 47232, Note_on_c, 0, 76, 64
4, 47256, Note_off_c, 0, 76, 64
4, 47256, Note_off_c, 0, 69, 64
4, 47256, Note_on_c, 0, 69, 64
4, 47256, Note_on_c, 0, 76, 64
4, 47280, Note_off_c, 0, 76, 64
4, 47280, Note_off_c, 0, 69, 64
4, 47280, Note_on_c, 0, 69, 64
4, 47280, Note_on_c, 0, 76, 64
4, 47304, Note_off_c, 0, 76, 64
4, 47304, Note_off_c, 0, 69, 64
4, 47304, Note_on_c, 0, 69, 64
4, 47304, Note_on_c, 0, 76, 64
4, 47328, Note_off_c, 0, 76, 64
4, 47328, Note_off_c, 0, 69, 64
4, 47328, Note_on_c, 0, 66, 64
4, 47328, Note_on_c, 0, 71, 64
4, 47352, Note_off_c, 0, 71, 64
4, 47352, Note_off_c, 0, 66, 64
4, 47352, Note_on_c, 0, 66, 64
4, 47352, Note_on_c, 0, 71, 64
4, 47376, Note_off_c, 0, 71, 64
4, 47376, Note_off_c, 0, 66, 64
4, 47376, Note_on_c, 0, 66, 64
4, 47376, Note_on_c, 0, 71, 64
4, 47400, Note_off_c, 0, 71, 64
4, 47400, Note_off_c, 0, 66, 64
4, 47400, Note_on_c, 0, 66, 64
4, 47400, Note_on_c, 0, 71, 64
4, 47424, Note_off_c, 0, 71, 64
4, 47424, Note_off_c, 0, 66, 64
4, 47424, Note_on_c, 0, 69, 64
4, 47424, Note_on_c, 0, 64, 64
4, 47448, Note_off_c, 0, 64, 64
4, 47448, Note_off_c, 0, 69, 64
4, 47448, Note_on_c, 0, 69, 64
4, 47448, Note_on_c, 0, 64, 64
4, 47472, Note_off_c, 0, 64, 64
4, 47472, Note_off_c, 0, 69, 64
4, 47472, Note_on_c, 0, 64, 64
4, 47472, Note_on_c, 0, 69, 64
4, 47496, Note_off_c, 0, 69, 64
4, 47496, Note_off_c, 0, 64, 64
4, 47496, Note_on_c, 0, 66, 64
4, 47496, Note_on_c, 0, 71, 64
4, 47520, Note_off_c, 0, 71, 64
4, 47520, Note_off_c, 0, 66, 64
4, 47520, Note_on_c, 0, 66, 64
4, 47520, Note_on_c, 0, 71, 64
4, 47544, Note_off_c, 0, 71, 64
4, 47544, Note_off_c, 0, 66, 64
4, 47544, Note_on_c, 0, 66, 64
4, 47544, Note_on_c, 0, 71, 64
4, 47568, Note_off_c, 0, 71, 64
4, 47568, Note_off_c, 0, 66, 64
4, 47568, Note_on_c, 0, 69, 64
4, 47568, Note_on_c, 0, 64, 64
4, 47592, Note_off_c, 0, 64, 64
4, 47592, Note_off_c, 0, 69, 64
4, 47592, Note_on_c, 0, 64, 64
4, 47592, Note_on_c, 0, 69, 64
4, 47616, Note_off_c, 0, 69, 64
4, 47616, Note_off_c, 0, 64, 64
4, 47616, Note_on_c, 0, 69, 64
4, 47616, Note_on_c, 0, 76, 64
4, 47640, Note_off_c, 0, 76, 64
4, 47640, Note_off_c, 0, 69, 64
4, 47640, Note_on_c, 0, 69, 64
4, 47640, Note_on_c, 0, 76, 64
4, 47664, Note_off_c, 0, 76, 64
4, 47664, Note_off_c, 0, 69, 64
4, 47664, Note_on_c, 0, 69, 64
4, 47664, Note_on_c, 0, 76, 64
4, 47688, Note_off_c, 0, 76, 64
4, 47688, Note_off_c, 0, 69, 64
4, 47688, Note_on_c, 0, 69, 64
4, 47688, Note_on_c, 0, 76, 64
4, 47712, Note_off_c, 0, 76, 64
4, 47712, Note_off_c, 0, 69, 64
4, 47712, Note_on_c, 0, 66, 64
4, 47712, Note_on_c, 0, 71, 64
4, 47736, Note_off_c, 0, 71, 64
4, 47736, Note_off_c, 0, 66, 64
4, 47736, Note_on_c, 0, 66, 64
4, 47736, Note_on_c, 0, 71, 64
4, 47760, Note_off_c, 0, 71, 64
4, 47760, Note_off_c, 0, 66, 64
4, 47760, Note_on_c, 0, 66, 64
4, 47760, Note_on_c, 0, 71, 64
4, 47784, Note_off_c, 0, 71, 64
4, 47784, Note_off_c, 0, 66, 64
4, 47784, Note_on_c, 0, 71, 64
4, 47784, Note_on_c, 0, 66, 64
4, 47808, Note_off_c, 0, 66, 64
4, 47808, Note_off_c, 0, 71, 64
4, 47808, Note_on_c, 0, 64, 64
4, 47808, Note_on_c, 0, 69, 64
4, 47832, Note_off_c, 0, 69, 64
4, 47832, Note_off_c, 0, 64, 64
4, 47832, Note_on_c, 0, 64, 64
4, 47832, Note_on_c, 0, 69, 64
4, 47856, Note_off_c, 0, 69, 64
4, 47856, Note_off_c, 0, 64, 64
4, 47856, Note_on_c, 0, 64, 64
4, 47856, Note_on_c, 0, 69, 64
4, 47880, Note_off_c, 0, 69, 64
4, 47880, Note_off_c, 0, 64, 64
4, 47880, Note_on_c, 0, 64, 64
4, 47880, Note_on_c, 0, 69, 64
4, 47904, Note_off_c, 0, 69, 64
4, 47904, Note_off_c, 0, 64, 64
4, 47904, Note_on_c, 0, 66, 64
4, 47904, Note_on_c, 0, 71, 64
4, 47928, Note_off_c, 0, 71, 64
4, 47928, Note_off_c, 0, 66, 64
4, 47928, Note_on_c, 0, 66, 64
4, 47928, Note_on_c, 0, 71, 64
4, 47952, Note_off_c, 0, 71, 64
4, 47952, Note_off_c, 0, 66, 64
4, 47952, Note_on_c, 0, 66, 64
4, 47952, Note_on_c, 0, 71, 64
4, 47976, Note_off_c, 0, 71, 64
4, 47976, Note_off_c, 0, 66, 64
4, 47976, Note_on_c, 0, 66, 64
4, 47976, Note_on_c, 0, 71, 64
4, 48000, Note_off_c, 0, 71, 64
4, 48000, Note_off_c, 0, 66, 64
4, 48000, Note_on_c, 0, 69, 64
4, 48000, Note_on_c, 0, 76, 64
4, 48024, Note_off_c, 0, 76, 64
4, 48024, Note_off_c, 0, 69, 64
4, 48024, Note_on_c, 0, 69, 64
4, 48024, Note_on_c, 0, 76, 64
4, 48048, Note_off_c, 0, 76, 64
4, 48048, Note_off_c, 0, 69, 64
4, 48048, Note_on_c, 0, 69, 64
4, 48048, Note_on_c, 0, 76, 64
4, 48072, Note_off_c, 0, 76, 64
4, 48072, Note_off_c, 0, 69, 64
4, 48072, Note_on_c, 0, 69, 64
4, 48072, Note_on_c, 0, 76, 64
4, 48096, Note_off_c, 0, 76, 64
4, 48096, Note_off_c, 0, 69, 64
4, 48096, Note_on_c, 0, 66, 64
4, 48096, Note_on_c, 0, 71, 64
4, 48120, Note_off_c, 0, 71, 64
4, 48120, Note_off_c, 0, 66, 64
4, 48120, Note_on_c, 0, 66, 64
4, 48120, Note_on_c, 0, 71, 64
4, 48144, Note_off_c, 0, 71, 64
4, 48144, Note_off_c, 0, 66, 64
4, 48144, Note_on_c, 0, 66, 64
4, 48144, Note_on_c, 0, 71, 64
4, 48168, Note_off_c, 0, 71, 64
4, 48168, Note_off_c, 0, 66, 64
4, 48168, Note_on_c, 0, 66, 64
4, 48168, Note_on_c, 0, 71, 64
4, 48192, Note_off_c, 0, 71, 64
4, 48192, Note_off_c, 0, 66, 64
4, 48192, Note_on_c, 0, 64, 64
4, 48192, Note_on_c, 0, 69, 64
4, 48216, Note_off_c, 0, 69, 64
4, 48216, Note_off_c, 0, 64, 64
4, 48216, Note_on_c, 0, 64, 64
4, 48216, Note_on_c, 0, 69, 64
4, 48240, Note_off_c, 0, 69, 64
4, 48240, Note_off_c, 0, 64, 64
4, 48240, Note_on_c, 0, 69, 64
4, 48240, Note_on_c, 0, 64, 64
4, 48264, Note_off_c, 0, 64, 64
4, 48264, Note_off_c, 0, 69, 64
4, 48264, Note_on_c, 0, 66, 64
4, 48264, Note_on_c, 0, 71, 64
4, 48288, Note_off_c, 0, 71, 64
4, 48288, Note_off_c, 0, 66, 64
4, 48288, Note_on_c, 0, 66, 64
4, 48288, Note_on_c, 0, 71, 64
4, 48312, Note_off_c, 0, 71, 64
4, 48312, Note_off_c, 0, 66, 64
4, 48312, Note_on_c, 0, 66, 64
4, 48312, Note_on_c, 0, 71, 64
4, 48336, Note_off_c, 0, 71, 64
4, 48336, Note_off_c, 0, 66, 64
4, 48336, Note_on_c, 0, 64, 64
4, 48336, Note_on_c, 0, 69, 64
4, 48360, Note_off_c, 0, 69, 64
4, 48360, Note_off_c, 0, 64, 64
4, 48360, Note_on_c, 0, 64, 64
4, 48360, Note_on_c, 0, 69, 64
4, 48384, Note_off_c, 0, 69, 64
4, 48384, Note_off_c, 0, 64, 64
4, 48384, Note_on_c, 0, 76, 64
4, 48384, Note_on_c, 0, 69, 64
4, 48408, Note_off_c, 0, 69, 64
4, 48408, Note_off_c, 0, 76, 64
4, 48408, Note_on_c, 0, 69, 64
4, 48408, Note_on_c, 0, 76, 64
4, 48432, Note_off_c, 0, 76, 64
4, 48432, Note_off_c, 0, 69, 64
4, 48432, Note_on_c, 0, 69, 64
4, 48432, Note_on_c, 0, 76, 64
4, 48456, Note_off_c, 0, 76, 64
4, 48456, Note_off_c, 0, 69, 64
4, 48456, Note_on_c, 0, 69, 64
4, 48456, Note_on_c, 0, 76, 64
4, 48480, Note_off_c, 0, 76, 64
4, 48480, Note_off_c, 0, 69, 64
4, 48480, Note_on_c, 0, 66, 64
4, 48480, Note_on_c, 0, 71, 64
4, 48504, Note_off_c, 0, 71, 64
4, 48504, Note_off_c, 0, 66, 64
4, 48504, Note_on_c, 0, 66, 64
4, 48504, Note_on_c, 0, 71, 64
4, 48528, Note_off_c, 0, 71, 64
4, 48528, Note_off_c, 0, 66, 64
4, 48528, Note_on_c, 0, 66, 64
4, 48528, Note_on_c, 0, 71, 64
4, 48552, Note_off_c, 0, 71, 64
4, 48552, Note_off_c, 0, 66, 64
4, 48552, Note_on_c, 0, 66, 64
4, 48552, Note_on_c, 0, 71, 64
4, 48576, Note_off_c, 0, 71, 64
4, 48576, Note_off_c, 0, 66, 64
4, 48576, Note_on_c, 0, 64, 64
4, 48576, Note_on_c, 0, 69, 64
4, 48600, Note_off_c, 0, 69, 64
4, 48600, Note_off_c, 0, 64, 64
4, 48600, Note_on_c, 0, 69, 64
4, 48600, Note_on_c, 0, 64, 64
4, 48624, Note_off_c, 0, 64, 64
4, 48624, Note_off_c, 0, 69, 64
4, 48624, Note_on_c, 0, 69, 64
4, 48624, Note_on_c, 0, 64, 64
4, 48648, Note_off_c, 0, 64, 64
4, 48648, Note_off_c, 0, 69, 64
4, 48648, Note_on_c, 0, 69, 64
4, 48648, Note_on_c, 0, 64, 64
4, 48672, Note_off_c, 0, 64, 64
4, 48672, Note_off_c, 0, 69, 64
4, 48672, Note_on_c, 0, 71, 64
4, 48672, Note_on_c, 0, 66, 64
4, 48696, Note_off_c, 0, 66, 64
4, 48696, Note_off_c, 0, 71, 64
4, 48696, Note_on_c, 0, 71, 64
4, 48696, Note_on_c, 0, 66, 64
4, 48720, Note_off_c, 0, 66, 64
4, 48720, Note_off_c, 0, 71, 64
4, 48720, Note_on_c, 0, 71, 64
4, 48720, Note_on_c, 0, 66, 64
4, 48744, Note_off_c, 0, 66, 64
4, 48744, Note_off_c, 0, 71, 64
4, 48744, Note_on_c, 0, 71, 64
4, 48744, Note_on_c, 0, 66, 64
4, 48768, Note_off_c, 0, 66, 64
4, 48768, Note_off_c, 0, 71, 64
4, 48768, Note_on_c, 0, 69, 64
4, 48768, Note_on_c, 0, 76, 64
4, 48792, Note_off_c, 0, 76, 64
4, 48792, Note_off_c, 0, 69, 64
4, 48792, Note_on_c, 0, 69, 64
4, 48792, Note_on_c, 0, 76, 64
4, 48816, Note_off_c, 0, 76, 64
4, 48816, Note_off_c, 0, 69, 64
4, 48816, Note_on_c, 0, 69, 64
4, 48816, Note_on_c, 0, 76, 64
4, 48840, Note_off_c, 0, 76, 64
4, 48840, Note_off_c, 0, 69, 64
4, 48840, Note_on_c, 0, 69, 64
4, 48840, Note_on_c, 0, 76, 64
4, 48864, Note_off_c, 0, 76, 64
4, 48864, Note_off_c, 0, 69, 64
4, 48864, Note_on_c, 0, 66, 64
4, 48864, Note_on_c, 0, 71, 64
4, 48888, Note_off_c, 0, 71, 64
4, 48888, Note_off_c, 0, 66, 64
4, 48888, Note_on_c, 0, 66, 64
4, 48888, Note_on_c, 0, 71, 64
4, 48912, Note_off_c, 0, 71, 64
4, 48912, Note_off_c, 0, 66, 64
4, 48912, Note_on_c, 0, 66, 64
4, 48912, Note_on_c, 0, 71, 64
4, 48936, Note_off_c, 0, 71, 64
4, 48936, Note_off_c, 0, 66, 64
4, 48936, Note_on_c, 0, 66, 64
4, 48936, Note_on_c, 0, 71, 64
4, 48960, Note_off_c, 0, 71, 64
4, 48960, Note_off_c, 0, 66, 64
4, 48960, Note_on_c, 0, 69, 64
4, 48960, Note_on_c, 0, 64, 64
4, 48984, Note_off_c, 0, 64, 64
4, 48984, Note_off_c, 0, 69, 64
4, 48984, Note_on_c, 0, 69, 64
4, 48984, Note_on_c, 0, 64, 64
4, 49008, Note_off_c, 0, 64, 64
4, 49008, Note_off_c, 0, 69, 64
4, 49008, Note_on_c, 0, 64, 64
4, 49008, Note_on_c, 0, 69, 64
4, 49032, Note_off_c, 0, 69, 64
4, 49032, Note_off_c, 0, 64, 64
4, 49032, Note_on_c, 0, 66, 64
4, 49032, Note_on_c, 0, 71, 64
4, 49056, Note_off_c, 0, 71, 64
4, 49056, Note_off_c, 0, 66, 64
4, 49056, Note_on_c, 0, 66, 64
4, 49056, Note_on_c, 0, 71, 64
4, 49080, Note_off_c, 0, 71, 64
4, 49080, Note_off_c, 0, 66, 64
4, 49080, Note_on_c, 0, 66, 64
4, 49080, Note_on_c, 0, 71, 64
4, 49104, Note_off_c, 0, 71, 64
4, 49104, Note_off_c, 0, 66, 64
4, 49104, Note_on_c, 0, 69, 64
4, 49104, Note_on_c, 0, 64, 64
4, 49128, Note_off_c, 0, 64, 64
4, 49128, Note_off_c, 0, 69, 64
4, 49128, Note_on_c, 0, 64, 64
4, 49128, Note_on_c, 0, 69, 64
4, 49152, Note_off_c, 0, 69, 64
4, 49152, Note_off_c, 0, 64, 64
4, 49152, Note_on_c, 0, 69, 64
4, 49152, Note_on_c, 0, 76, 64
4, 49176, Note_off_c, 0, 76, 64
4, 49176, Note_off_c, 0, 69, 64
4, 49176, Note_on_c, 0, 69, 64
4, 49176, Note_on_c, 0, 76, 64
4, 49200, Note_off_c, 0, 76, 64
4, 49200, Note_off_c, 0, 69, 64
4, 49200, Note_on_c, 0, 69, 64
4, 49200, Note_on_c, 0, 76, 64
4, 49224, Note_off_c, 0, 76, 64
4, 49224, Note_off_c, 0, 69, 64
4, 49224, Note_on_c, 0, 69, 64
4, 49224, Note_on_c, 0, 76, 64
4, 49248, Note_off_c, 0, 76, 64
4, 49248, Note_off_c, 0, 69, 64
4, 49248, Note_on_c, 0, 66, 64
4, 49248, Note_on_c, 0, 71, 64
4, 49272, Note_off_c, 0, 71, 64
4, 49272, Note_off_c, 0, 66, 64
4, 49272, Note_on_c, 0, 66, 64
4, 49272, Note_on_c, 0, 71, 64
4, 49296, Note_off_c, 0, 71, 64
4, 49296, Note_off_c, 0, 66, 64
4, 49296, Note_on_c, 0, 66, 64
4, 49296, Note_on_c, 0, 71, 64
4, 49320, Note_off_c, 0, 71, 64
4, 49320, Note_off_c, 0, 66, 64
4, 49320, Note_on_c, 0, 71, 64
4, 49320, Note_on_c, 0, 66, 64
4, 49344, Note_off_c, 0, 66, 64
4, 49344, Note_off_c, 0, 71, 64
4, 49344, Note_on_c, 0, 64, 64
4, 49344, Note_on_c, 0, 69, 64
4, 49368, Note_off_c, 0, 69, 64
4, 49368, Note_off_c, 0, 64, 64
4, 49368, Note_on_c, 0, 64, 64
4, 49368, Note_on_c, 0, 69, 64
4, 49392, Note_off_c, 0, 69, 64
4, 49392, Note_off_c, 0, 64, 64
4, 49392, Note_on_c, 0, 64, 64
4, 49392, Note_on_c, 0, 69, 64
4, 49416, Note_off_c, 0, 69, 64
4, 49416, Note_off_c, 0, 64, 64
4, 49416, Note_on_c, 0, 64, 64
4, 49416, Note_on_c, 0, 69, 64
4, 49440, Note_off_c, 0, 69, 64
4, 49440, Note_off_c, 0, 64, 64
4, 49440, Note_on_c, 0, 66, 64
4, 49440, Note_on_c, 0, 71, 64
4, 49464, Note_off_c, 0, 71, 64
4, 49464, Note_off_c, 0, 66, 64
4, 49464, Note_on_c, 0, 66, 64
4, 49464, Note_on_c, 0, 71, 64
4, 49488, Note_off_c, 0, 71, 64
4, 49488, Note_off_c, 0, 66, 64
4, 49488, Note_on_c, 0, 66, 64
4, 49488, Note_on_c, 0, 71, 64
4, 49512, Note_off_c, 0, 71, 64
4, 49512, Note_off_c, 0, 66, 64
4, 49512, Note_on_c, 0, 66, 64
4, 49512, Note_on_c, 0, 71, 64
4, 49536, Note_off_c, 0, 71, 64
4, 49536, Note_off_c, 0, 66, 64
4, 49536, Note_on_c, 0, 69, 64
4, 49536, Note_on_c, 0, 76, 64
4, 49560, Note_off_c, 0, 76, 64
4, 49560, Note_off_c, 0, 69, 64
4, 49560, Note_on_c, 0, 69, 64
4, 49560, Note_on_c, 0, 76, 64
4, 49584, Note_off_c, 0, 76, 64
4, 49584, Note_off_c, 0, 69, 64
4, 49584, Note_on_c, 0, 69, 64
4, 49584, Note_on_c, 0, 76, 64
4, 49608, Note_off_c, 0, 76, 64
4, 49608, Note_off_c, 0, 69, 64
4, 49608, Note_on_c, 0, 69, 64
4, 49608, Note_on_c, 0, 76, 64
4, 49632, Note_off_c, 0, 76, 64
4, 49632, Note_off_c, 0, 69, 64
4, 49632, Note_on_c, 0, 66, 64
4, 49632, Note_on_c, 0, 71, 64
4, 49656, Note_off_c, 0, 71, 64
4, 49656, Note_off_c, 0, 66, 64
4, 49656, Note_on_c, 0, 66, 64
4, 49656, Note_on_c, 0, 71, 64
4, 49680, Note_off_c, 0, 71, 64
4, 49680, Note_off_c, 0, 66, 64
4, 49680, Note_on_c, 0, 66, 64
4, 49680, Note_on_c, 0, 71, 64
4, 49704, Note_off_c, 0, 71, 64
4, 49704, Note_off_c, 0, 66, 64
4, 49704, Note_on_c, 0, 66, 64
4, 49704, Note_on_c, 0, 71, 64
4, 49728, Note_off_c, 0, 71, 64
4, 49728, Note_off_c, 0, 66, 64
4, 49728, Note_on_c, 0, 64, 64
4, 49728, Note_on_c, 0, 69, 64
4, 49752, Note_off_c, 0, 69, 64
4, 49752, Note_off_c, 0, 64, 64
4, 49752, Note_on_c, 0, 64, 64
4, 49752, Note_on_c, 0, 69, 64
4, 49776, Note_off_c, 0, 69, 64
4, 49776, Note_off_c, 0, 64, 64
4, 49776, Note_on_c, 0, 69, 64
4, 49776, Note_on_c, 0, 64, 64
4, 49800, Note_off_c, 0, 64, 64
4, 49800, Note_off_c, 0, 69, 64
4, 49800, Note_on_c, 0, 66, 64
4, 49800, Note_on_c, 0, 71, 64
4, 49824, Note_off_c, 0, 71, 64
4, 49824, Note_off_c, 0, 66, 64
4, 49824, Note_on_c, 0, 66, 64
4, 49824, Note_on_c, 0, 71, 64
4, 49848, Note_off_c, 0, 71, 64
4, 49848, Note_off_c, 0, 66, 64
4, 49848, Note_on_c, 0, 66, 64
4, 49848, Note_on_c, 0, 71, 64
4, 49872, Note_off_c, 0, 71, 64
4, 49872, Note_off_c, 0, 66, 64
4, 49872, Note_on_c, 0, 64, 64
4, 49872, Note_on_c, 0, 69, 64
4, 49896, Note_off_c, 0, 69, 64
4, 49896, Note_off_c, 0, 64, 64
4, 49896, Note_on_c, 0, 64, 64
4, 49896, Note_on_c, 0, 69, 64
4, 49920, Note_off_c, 0, 69, 64
4, 49920, Note_off_c, 0, 64, 64
4, 50592, Control_c, 0, 101, 0
4, 50592, Control_c, 0, 100, 0
4, 50592, Control_c, 0, 6, 12
4, 50592, Control_c, 0, 10, 64
4, 50592, Control_c, 0, 7, 43
4, 50592, Pitch_bend_c, 0, 8192
4, 50592, Program_c, 0, 23
4, 50593, Control_c, 0, 101, 0
4, 50593, Control_c, 0, 100, 0
4, 50593, Control_c, 0, 6, 12
4, 50593, Control_c, 0, 10, 64
4, 50593, Control_c, 0, 7, 43
4, 50593, Pitch_bend_c, 0, 8192
4, 50593, Program_c, 0, 23
4, 50593, Control_c, 0, 101, 0
4, 50593, Control_c, 0, 100, 0
4, 50593, Control_c, 0, 6, 12
4, 50593, Control_c, 0, 10, 64
4, 50593, Control_c, 0, 7, 43
4, 50593, Pitch_bend_c, 0, 8192
4, 50593, Program_c, 0, 23
4, 50593, End_track
5, 0, Start_track
5, 0, Title_t, "MIDI out #2"
5, 0, Control_c, 1, 10, 64
5, 0, Control_c, 1, 7, 100
5, 0, Pitch_bend_c, 1, 8192
5, 0, Control_c, 1, 101, 0
5, 0, Control_c, 1, 100, 0
5, 0, Control_c, 1, 6, 12
5, 0, Control_c, 1, 10, 64
5, 0, Control_c, 1, 7, 100
5, 0, Pitch_bend_c, 1, 8192
5, 0, Program_c, 1, 29
5, 0, Control_c, 1, 101, 0
5, 0, Control_c, 1, 100, 0
5, 0, Control_c, 1, 6, 12
5, 0, Control_c, 1, 10, 64
5, 0, Control_c, 1, 7, 100
5, 0, Pitch_bend_c, 1, 8192
5, 0, Program_c, 1, 29
5, 0, Control_c, 1, 101, 0
5, 0, Control_c, 1, 100, 0
5, 0, Control_c, 1, 6, 12
5, 0, Control_c, 1, 10, 64
5, 0, Control_c, 1, 7, 100
5, 0, Pitch_bend_c, 1, 8192
5, 0, Program_c, 1, 29
5, 1488, Note_on_c, 1, 57, 100
5, 1488, Note_on_c, 1, 64, 100
5, 1512, Note_off_c, 1, 64, 64
5, 1512, Note_off_c, 1, 57, 64
5, 1512, Note_on_c, 1, 57, 100
5, 1512, Note_on_c, 1, 64, 100
5, 1536, Note_off_c, 1, 64, 64
5, 1536, Note_off_c, 1, 57, 64
5, 1536, Note_on_c, 1, 57, 100
5, 1536, Note_on_c, 1, 64, 100
5, 1536, Note_on_c, 1, 40, 100
5, 1584, Note_off_c, 1, 40, 64
5, 1584, Note_off_c, 1, 64, 64
5, 1584, Note_off_c, 1, 57, 64
5, 1584, Note_on_c, 1, 40, 100
5, 1584, Note_on_c, 1, 57, 91
5, 1584, Note_on_c, 1, 64, 91
5, 1632, Note_off_c, 1, 64, 64
5, 1632, Note_off_c, 1, 57, 64
5, 1632, Note_off_c, 1, 40, 64
5, 1632, Note_on_c, 1, 57, 78
5, 1632, Note_on_c, 1, 64, 78
5, 1632, Note_on_c, 1, 40, 100
5, 1680, Note_off_c, 1, 40, 64
5, 1680, Note_off_c, 1, 64, 64
5, 1680, Note_off_c, 1, 57, 64
5, 1680, Note_on_c, 1, 40, 100
5, 1680, Note_on_c, 1, 57, 64
5, 1680, Note_on_c, 1, 64, 64
5, 1728, Note_off_c, 1, 64, 64
5, 1728, Note_off_c, 1, 57, 64
5, 1728, Note_off_c, 1, 40, 64
5, 1728, Note_on_c, 1, 57, 49
5, 1728, Note_on_c, 1, 64, 49
5, 1728, Note_on_c, 1, 40, 100
5, 1776, Note_off_c, 1, 40, 64
5, 1776, Note_off_c, 1, 64, 64
5, 1776, Note_off_c, 1, 57, 64
5, 1776, Note_on_c, 1, 40, 100
5, 1824, Note_off_c, 1, 40, 64
5, 1824, Note_on_c, 1, 40, 100
5, 1872, Note_off_c, 1, 40, 64
5, 1872, Note_on_c, 1, 40, 100
5, 1920, Note_off_c, 1, 40, 64
5, 1920, Note_on_c, 1, 40, 100
5, 1968, Note_off_c, 1, 40, 64
5, 1968, Note_on_c, 1, 40, 100
5, 2016, Note_off_c, 1, 40, 64
5, 2016, Note_on_c, 1, 40, 100
5, 2064, Note_off_c, 1, 40, 64
5, 2064, Note_on_c, 1, 40, 100
5, 2112, Note_off_c, 1, 40, 64
5, 2112, Note_on_c, 1, 40, 100
5, 2160, Note_off_c, 1, 40, 64
5, 2160, Note_on_c, 1, 40, 100
5, 2208, Note_off_c, 1, 40, 64
5, 2208, Note_on_c, 1, 40, 100
5, 2256, Note_off_c, 1, 40, 64
5, 2256, Note_on_c, 1, 40, 100
5, 2256, Note_on_c, 1, 64, 100
5, 2256, Note_on_c, 1, 57, 100
5, 2280, Note_off_c, 1, 57, 64
5, 2280, Note_off_c, 1, 64, 64
5, 2280, Note_on_c, 1, 57, 100
5, 2280, Note_on_c, 1, 64, 100
5, 2304, Note_off_c, 1, 64, 64
5, 2304, Note_off_c, 1, 57, 64
5, 2304, Note_off_c, 1, 40, 64
5, 2304, Note_on_c, 1, 45, 100
5, 2304, Note_on_c, 1, 64, 100
5, 2304, Note_on_c, 1, 57, 100
5, 2352, Note_off_c, 1, 57, 64
5, 2352, Note_off_c, 1, 64, 64
5, 2352, Note_off_c, 1, 45, 64
5, 2352, Note_on_c, 1, 64, 91
5, 2352, Note_on_c, 1, 45, 100
5, 2352, Note_on_c, 1, 57, 91
5, 2400, Note_off_c, 1, 57, 64
5, 2400, Note_off_c, 1, 45, 64
5, 2400, Note_off_c, 1, 64, 64
5, 2400, Note_on_c, 1, 64, 78
5, 2400, Note_on_c, 1, 45, 100
5, 2400, Note_on_c, 1, 57, 78
5, 2448, Note_off_c, 1, 57, 64
5, 2448, Note_off_c, 1, 45, 64
5, 2448, Note_off_c, 1, 64, 64
5, 2448, Note_on_c, 1, 61, 100
5, 2448, Note_on_c, 1, 54, 100
5, 2448, Note_on_c, 1, 45, 100
5, 2448, Note_on_c, 1, 64, 64
5, 2448, Note_on_c, 1, 57, 64
5, 2496, Note_off_c, 1, 57, 64
5, 2496, Note_off_c, 1, 64, 64
5, 2496, Note_off_c, 1, 45, 64
5, 2496, Note_off_c, 1, 54, 64
5, 2496, Note_off_c, 1, 61, 64
5, 2496, Note_on_c, 1, 64, 49
5, 2496, Note_on_c, 1, 54, 100
5, 2496, Note_on_c, 1, 45, 100
5, 2496, Note_on_c, 1, 61, 100
5, 2496, Note_on_c, 1, 57, 49
5, 2544, Note_off_c, 1, 57, 64
5, 2544, Note_off_c, 1, 61, 64
5, 2544, Note_off_c, 1, 45, 64
5, 2544, Note_off_c, 1, 54, 64
5, 2544, Note_off_c, 1, 64, 64
5, 2544, Note_on_c, 1, 45, 100
5, 2544, Note_on_c, 1, 63, 100
5, 2544, Note_on_c, 1, 57, 100
5, 2592, Note_off_c, 1, 57, 64
5, 2592, Note_off_c, 1, 63, 64
5, 2592, Note_off_c, 1, 45, 64
5, 2592, Note_on_c, 1, 57, 100
5, 2592, Note_on_c, 1, 63, 100
5, 2592, Note_on_c, 1, 45, 100
5, 2640, Note_off_c, 1, 45, 64
5, 2640, Note_off_c, 1, 63, 64
5, 2640, Note_off_c, 1, 57, 64
5, 2640, Note_on_c, 1, 61, 100
5, 2640, Note_on_c, 1, 45, 100
5, 2640, Note_on_c, 1, 54, 100
5, 2688, Note_off_c, 1, 54, 64
5, 2688, Note_off_c, 1, 45, 64
5, 2688, Note_off_c, 1, 61, 64
5, 2688, Note_on_c, 1, 28, 100
5, 2688, Note_on_c, 1, 40, 100
5, 2736, Note_off_c, 1, 40, 64
5, 2736, Note_off_c, 1, 28, 64
5, 2736, Note_on_c, 1, 40, 100
5, 2784, Note_off_c, 1, 40, 64
5, 2784, Note_on_c, 1, 28, 100
5, 2784, Note_on_c, 1, 40, 100
5, 2832, Note_off_c, 1, 28, 64
5, 2832, Note_off_c, 1, 40, 64
5, 2832, Note_on_c, 1, 40, 100
5, 2880, Note_off_c, 1, 40, 64
5, 2880, Note_on_c, 1, 28, 100
5, 2880, Note_on_c, 1, 40, 100
5, 2928, Note_off_c, 1, 40, 64
5, 2928, Note_off_c, 1, 28, 64
5, 2928, Note_on_c, 1, 40, 100
5, 2976, Note_off_c, 1, 40, 64
5, 2976, Note_on_c, 1, 28, 100
5, 2976, Note_on_c, 1, 40, 100
5, 3024, Note_off_c, 1, 40, 64
5, 3024, Note_off_c, 1, 28, 64
5, 3024, Note_on_c, 1, 40, 100
5, 3072, Note_off_c, 1, 40, 64
5, 3072, Note_on_c, 1, 33, 100
5, 3072, Note_on_c, 1, 45, 100
5, 3120, Note_off_c, 1, 45, 64
5, 3120, Note_off_c, 1, 33, 64
5, 3120, Note_on_c, 1, 45, 100
5, 3168, Note_off_c, 1, 45, 64
5, 3168, Note_on_c, 1, 33, 100
5, 3168, Note_on_c, 1, 45, 100
5, 3216, Note_off_c, 1, 33, 64
5, 3216, Note_off_c, 1, 45, 64
5, 3216, Note_on_c, 1, 45, 100
5, 3264, Note_off_c, 1, 45, 64
5, 3264, Note_on_c, 1, 33, 100
5, 3264, Note_on_c, 1, 45, 100
5, 3312, Note_off_c, 1, 45, 64
5, 3312, Note_off_c, 1, 33, 64
5, 3312, Note_on_c, 1, 45, 100
5, 3360, Note_off_c, 1, 45, 64
5, 3360, Note_on_c, 1, 33, 100
5, 3360, Note_on_c, 1, 45, 100
5, 3408, Note_off_c, 1, 45, 64
5, 3408, Note_off_c, 1, 33, 64
5, 3408, Note_on_c, 1, 45, 100
5, 3456, Note_off_c, 1, 45, 64
5, 3456, Note_on_c, 1, 28, 100
5, 3456, Note_on_c, 1, 40, 100
5, 3504, Note_off_c, 1, 40, 64
5, 3504, Note_off_c, 1, 28, 64
5, 3504, Note_on_c, 1, 40, 100
5, 3552, Note_off_c, 1, 40, 64
5, 3552, Note_on_c, 1, 28, 100
5, 3552, Note_on_c, 1, 40, 100
5, 3600, Note_off_c, 1, 40, 64
5, 3600, Note_off_c, 1, 28, 64
5, 3600, Note_on_c, 1, 40, 100
5, 3648, Note_off_c, 1, 40, 64
5, 3648, Note_on_c, 1, 28, 100
5, 3648, Note_on_c, 1, 40, 100
5, 3696, Note_off_c, 1, 40, 64
5, 3696, Note_off_c, 1, 28, 64
5, 3696, Note_on_c, 1, 40, 100
5, 3744, Note_off_c, 1, 40, 64
5, 3744, Note_on_c, 1, 28, 100
5, 3744, Note_on_c, 1, 40, 100
5, 3792, Note_off_c, 1, 40, 64
5, 3792, Note_off_c, 1, 28, 64
5, 3792, Note_on_c, 1, 40, 100
5, 3840, Note_off_c, 1, 40, 64
5, 3840, Note_on_c, 1, 33, 100
5, 3840, Note_on_c, 1, 45, 100
5, 3888, Note_off_c, 1, 45, 64
5, 3888, Note_off_c, 1, 33, 64
5, 3888, Note_on_c, 1, 45, 100
5, 3936, Note_off_c, 1, 45, 64
5, 3936, Note_on_c, 1, 33, 100
5, 3936, Note_on_c, 1, 45, 100
5, 3984, Note_off_c, 1, 45, 64
5, 3984, Note_off_c, 1, 33, 64
5, 3984, Note_on_c, 1, 45, 100
5, 4032, Note_off_c, 1, 45, 64
5, 4032, Note_on_c, 1, 33, 100
5, 4032, Note_on_c, 1, 45, 100
5, 4080, Note_off_c, 1, 45, 64
5, 4080, Note_off_c, 1, 33, 64
5, 4080, Note_on_c, 1, 45, 100
5, 4128, Note_off_c, 1, 45, 64
5, 4128, Note_on_c, 1, 33, 100
5, 4128, Note_on_c, 1, 45, 100
5, 4176, Note_off_c, 1, 45, 64
5, 4176, Note_off_c, 1, 33, 64
5, 4176, Note_on_c, 1, 45, 100
5, 4224, Note_off_c, 1, 45, 64
5, 4224, Note_on_c, 1, 28, 100
5, 4224, Note_on_c, 1, 40, 100
5, 4272, Note_off_c, 1, 40, 64
5, 4272, Note_off_c, 1, 28, 64
5, 4272, Note_on_c, 1, 40, 100
5, 4320, Note_off_c, 1, 40, 64
5, 4320, Note_on_c, 1, 28, 100
5, 4320, Note_on_c, 1, 40, 100
5, 4368, Note_off_c, 1, 28, 64
5, 4368, Note_off_c, 1, 40, 64
5, 4368, Note_on_c, 1, 40, 100
5, 4416, Note_off_c, 1, 40, 64
5, 4416, Note_on_c, 1, 28, 100
5, 4416, Note_on_c, 1, 40, 100
5, 4464, Note_off_c, 1, 40, 64
5, 4464, Note_off_c, 1, 28, 64
5, 4464, Note_on_c, 1, 40, 100
5, 4512, Note_off_c, 1, 40, 64
5, 4512, Note_on_c, 1, 28, 100
5, 4512, Note_on_c, 1, 40, 100
5, 4560, Note_off_c, 1, 40, 64
5, 4560, Note_off_c, 1, 28, 64
5, 4560, Note_on_c, 1, 40, 100
5, 4608, Note_off_c, 1, 40, 64
5, 4608, Note_on_c, 1, 33, 100
5, 4608, Note_on_c, 1, 45, 100
5, 4656, Note_off_c, 1, 45, 64
5, 4656, Note_off_c, 1, 33, 64
5, 4656, Note_on_c, 1, 45, 100
5, 4704, Note_off_c, 1, 45, 64
5, 4704, Note_on_c, 1, 33, 100
5, 4704, Note_on_c, 1, 45, 100
5, 4752, Note_off_c, 1, 33, 64
5, 4752, Note_off_c, 1, 45, 64
5, 4752, Note_on_c, 1, 45, 100
5, 4800, Note_off_c, 1, 45, 64
5, 4800, Note_on_c, 1, 33, 100
5, 4800, Note_on_c, 1, 45, 100
5, 4848, Note_off_c, 1, 45, 64
5, 4848, Note_off_c, 1, 33, 64
5, 4848, Note_on_c, 1, 45, 100
5, 4896, Note_off_c, 1, 45, 64
5, 4896, Note_on_c, 1, 33, 100
5, 4896, Note_on_c, 1, 45, 100
5, 4944, Note_off_c, 1, 45, 64
5, 4944, Note_off_c, 1, 33, 64
5, 4944, Note_on_c, 1, 45, 100
5, 4992, Note_off_c, 1, 45, 64
5, 4992, Note_on_c, 1, 28, 100
5, 4992, Note_on_c, 1, 40, 100
5, 5040, Note_off_c, 1, 40, 64
5, 5040, Note_off_c, 1, 28, 64
5, 5040, Note_on_c, 1, 40, 100
5, 5088, Note_off_c, 1, 40, 64
5, 5088, Note_on_c, 1, 28, 100
5, 5088, Note_on_c, 1, 40, 100
5, 5136, Note_off_c, 1, 40, 64
5, 5136, Note_off_c, 1, 28, 64
5, 5136, Note_on_c, 1, 40, 100
5, 5184, Note_off_c, 1, 40, 64
5, 5184, Note_on_c, 1, 28, 100
5, 5184, Note_on_c, 1, 40, 100
5, 5232, Note_off_c, 1, 40, 64
5, 5232, Note_off_c, 1, 28, 64
5, 5232, Note_on_c, 1, 40, 100
5, 5280, Note_off_c, 1, 40, 64
5, 5280, Note_on_c, 1, 28, 100
5, 5280, Note_on_c, 1, 40, 100
5, 5328, Note_off_c, 1, 40, 64
5, 5328, Note_off_c, 1, 28, 64
5, 5328, Note_on_c, 1, 40, 100
5, 5376, Note_off_c, 1, 40, 64
5, 5376, Note_on_c, 1, 33, 100
5, 5376, Note_on_c, 1, 45, 100
5, 5424, Note_off_c, 1, 45, 64
5, 5424, Note_off_c, 1, 33, 64
5, 5424, Note_on_c, 1, 45, 100
5, 5472, Note_off_c, 1, 45, 64
5, 5472, Note_on_c, 1, 33, 100
5, 5472, Note_on_c, 1, 45, 100
5, 5520, Note_off_c, 1, 45, 64
5, 5520, Note_off_c, 1, 33, 64
5, 5520, Note_on_c, 1, 45, 100
5, 5568, Note_off_c, 1, 45, 64
5, 5568, Note_on_c, 1, 33, 100
5, 5568, Note_on_c, 1, 45, 100
5, 5616, Note_off_c, 1, 45, 64
5, 5616, Note_off_c, 1, 33, 64
5, 5616, Note_on_c, 1, 45, 100
5, 5664, Note_off_c, 1, 45, 64
5, 5664, Note_on_c, 1, 33, 100
5, 5664, Note_on_c, 1, 45, 100
5, 5712, Note_off_c, 1, 45, 64
5, 5712, Note_off_c, 1, 33, 64
5, 5712, Note_on_c, 1, 45, 100
5, 5760, Note_off_c, 1, 45, 64
5, 5760, Note_on_c, 1, 28, 100
5, 5760, Note_on_c, 1, 40, 100
5, 5808, Note_off_c, 1, 40, 64
5, 5808, Note_off_c, 1, 28, 64
5, 5808, Note_on_c, 1, 40, 100
5, 5856, Note_off_c, 1, 40, 64
5, 5856, Note_on_c, 1, 28, 100
5, 5856, Note_on_c, 1, 40, 100
5, 5904, Note_off_c, 1, 40, 64
5, 5904, Note_off_c, 1, 28, 64
5, 5904, Note_on_c, 1, 40, 100
5, 5952, Note_off_c, 1, 40, 64
5, 5952, Note_on_c, 1, 28, 100
5, 5952, Note_on_c, 1, 40, 100
5, 6000, Note_off_c, 1, 40, 64
5, 6000, Note_off_c, 1, 28, 64
5, 6000, Note_on_c, 1, 40, 100
5, 6048, Note_off_c, 1, 40, 64
5, 6048, Note_on_c, 1, 28, 100
5, 6048, Note_on_c, 1, 40, 100
5, 6096, Note_off_c, 1, 40, 64
5, 6096, Note_off_c, 1, 28, 64
5, 6096, Note_on_c, 1, 40, 100
5, 6144, Note_off_c, 1, 40, 64
5, 6144, Note_on_c, 1, 33, 100
5, 6144, Note_on_c, 1, 45, 100
5, 6192, Note_off_c, 1, 45, 64
5, 6192, Note_off_c, 1, 33, 64
5, 6192, Note_on_c, 1, 45, 100
5, 6240, Note_off_c, 1, 45, 64
5, 6240, Note_on_c, 1, 33, 100
5, 6240, Note_on_c, 1, 45, 100
5, 6288, Note_off_c, 1, 45, 64
5, 6288, Note_off_c, 1, 33, 64
5, 6288, Note_on_c, 1, 45, 100
5, 6336, Note_off_c, 1, 45, 64
5, 6336, Note_on_c, 1, 33, 100
5, 6336, Note_on_c, 1, 45, 100
5, 6384, Note_off_c, 1, 45, 64
5, 6384, Note_off_c, 1, 33, 64
5, 6384, Note_on_c, 1, 45, 100
5, 6432, Note_off_c, 1, 45, 64
5, 6432, Note_on_c, 1, 33, 100
5, 6432, Note_on_c, 1, 45, 100
5, 6480, Note_off_c, 1, 45, 64
5, 6480, Note_off_c, 1, 33, 64
5, 6480, Note_on_c, 1, 45, 100
5, 6528, Note_off_c, 1, 45, 64
5, 6528, Note_on_c, 1, 28, 100
5, 6528, Note_on_c, 1, 40, 100
5, 6576, Note_off_c, 1, 40, 64
5, 6576, Note_off_c, 1, 28, 64
5, 6576, Note_on_c, 1, 40, 100
5, 6624, Note_off_c, 1, 40, 64
5, 6624, Note_on_c, 1, 28, 100
5, 6624, Note_on_c, 1, 40, 100
5, 6672, Note_off_c, 1, 40, 64
5, 6672, Note_off_c, 1, 28, 64
5, 6672, Note_on_c, 1, 40, 100
5, 6720, Note_off_c, 1, 40, 64
5, 6720, Note_on_c, 1, 28, 100
5, 6720, Note_on_c, 1, 40, 100
5, 6768, Note_off_c, 1, 40, 64
5, 6768, Note_off_c, 1, 28, 64
5, 6768, Note_on_c, 1, 40, 100
5, 6816, Note_off_c, 1, 40, 64
5, 6816, Note_on_c, 1, 28, 100
5, 6816, Note_on_c, 1, 40, 100
5, 6864, Note_off_c, 1, 40, 64
5, 6864, Note_off_c, 1, 28, 64
5, 6864, Note_on_c, 1, 40, 100
5, 6912, Note_off_c, 1, 40, 64
5, 6912, Note_on_c, 1, 33, 100
5, 6912, Note_on_c, 1, 45, 100
5, 6960, Note_off_c, 1, 45, 64
5, 6960, Note_off_c, 1, 33, 64
5, 6960, Note_on_c, 1, 45, 100
5, 7008, Note_off_c, 1, 45, 64
5, 7008, Note_on_c, 1, 33, 100
5, 7008, Note_on_c, 1, 45, 100
5, 7056, Note_off_c, 1, 45, 64
5, 7056, Note_off_c, 1, 33, 64
5, 7056, Note_on_c, 1, 45, 100
5, 7104, Note_off_c, 1, 45, 64
5, 7104, Note_on_c, 1, 33, 100
5, 7104, Note_on_c, 1, 45, 100
5, 7152, Note_off_c, 1, 45, 64
5, 7152, Note_off_c, 1, 33, 64
5, 7152, Note_on_c, 1, 45, 100
5, 7200, Note_off_c, 1, 45, 64
5, 7200, Note_on_c, 1, 33, 100
5, 7200, Note_on_c, 1, 45, 100
5, 7248, Note_off_c, 1, 45, 64
5, 7248, Note_off_c, 1, 33, 64
5, 7248, Note_on_c, 1, 45, 100
5, 7296, Note_off_c, 1, 45, 64
5, 7296, Note_on_c, 1, 28, 100
5, 7296, Note_on_c, 1, 40, 100
5, 7344, Note_off_c, 1, 40, 64
5, 7344, Note_off_c, 1, 28, 64
5, 7344, Note_on_c, 1, 40, 100
5, 7392, Note_off_c, 1, 40, 64
5, 7392, Note_on_c, 1, 28, 100
5, 7392, Note_on_c, 1, 40, 100
5, 7440, Note_off_c, 1, 40, 64
5, 7440, Note_off_c, 1, 28, 64
5, 7440, Note_on_c, 1, 40, 100
5, 7488, Note_off_c, 1, 40, 64
5, 7488, Note_on_c, 1, 28, 100
5, 7488, Note_on_c, 1, 40, 100
5, 7536, Note_off_c, 1, 40, 64
5, 7536, Note_off_c, 1, 28, 64
5, 7536, Note_on_c, 1, 40, 100
5, 7584, Note_off_c, 1, 40, 64
5, 7584, Note_on_c, 1, 28, 100
5, 7584, Note_on_c, 1, 40, 100
5, 7632, Note_off_c, 1, 40, 64
5, 7632, Note_off_c, 1, 28, 64
5, 7632, Note_on_c, 1, 40, 100
5, 7680, Note_off_c, 1, 40, 64
5, 7680, Note_on_c, 1, 33, 100
5, 7680, Note_on_c, 1, 45, 100
5, 7728, Note_off_c, 1, 45, 64
5, 7728, Note_off_c, 1, 33, 64
5, 7728, Note_on_c, 1, 45, 100
5, 7776, Note_off_c, 1, 45, 64
5, 7776, Note_on_c, 1, 33, 100
5, 7776, Note_on_c, 1, 45, 100
5, 7824, Note_off_c, 1, 45, 64
5, 7824, Note_off_c, 1, 33, 64
5, 7824, Note_on_c, 1, 45, 100
5, 7872, Note_off_c, 1, 45, 64
5, 7872, Note_on_c, 1, 33, 100
5, 7872, Note_on_c, 1, 45, 100
5, 7920, Note_off_c, 1, 45, 64
5, 7920, Note_off_c, 1, 33, 64
5, 7920, Note_on_c, 1, 45, 100
5, 7968, Note_off_c, 1, 45, 64
5, 7968, Note_on_c, 1, 33, 100
5, 7968, Note_on_c, 1, 45, 100
5, 8016, Note_off_c, 1, 45, 64
5, 8016, Note_off_c, 1, 33, 64
5, 8016, Note_on_c, 1, 45, 100
5, 8064, Note_off_c, 1, 45, 64
5, 8064, Note_on_c, 1, 28, 100
5, 8064, Note_on_c, 1, 40, 100
5, 8112, Note_off_c, 1, 40, 64
5, 8112, Note_off_c, 1, 28, 64
5, 8112, Note_on_c, 1, 40, 100
5, 8160, Note_off_c, 1, 40, 64
5, 8160, Note_on_c, 1, 28, 100
5, 8160, Note_on_c, 1, 40, 100
5, 8208, Note_off_c, 1, 40, 64
5, 8208, Note_off_c, 1, 28, 64
5, 8208, Note_on_c, 1, 40, 100
5, 8256, Note_off_c, 1, 40, 64
5, 8256, Note_on_c, 1, 28, 100
5, 8256, Note_on_c, 1, 40, 100
5, 8304, Note_off_c, 1, 40, 64
5, 8304, Note_off_c, 1, 28, 64
5, 8304, Note_on_c, 1, 40, 100
5, 8352, Note_off_c, 1, 40, 64
5, 8352, Note_on_c, 1, 28, 100
5, 8352, Note_on_c, 1, 40, 100
5, 8400, Note_off_c, 1, 40, 64
5, 8400, Note_off_c, 1, 28, 64
5, 8400, Note_on_c, 1, 40, 100
5, 8448, Note_off_c, 1, 40, 64
5, 8448, Note_on_c, 1, 33, 100
5, 8448, Note_on_c, 1, 45, 100
5, 8496, Note_off_c, 1, 45, 64
5, 8496, Note_off_c, 1, 33, 64
5, 8496, Note_on_c, 1, 45, 100
5, 8544, Note_off_c, 1, 45, 64
5, 8544, Note_on_c, 1, 33, 100
5, 8544, Note_on_c, 1, 45, 100
5, 8592, Note_off_c, 1, 45, 64
5, 8592, Note_off_c, 1, 33, 64
5, 8592, Note_on_c, 1, 45, 100
5, 8640, Note_off_c, 1, 45, 64
5, 8640, Note_on_c, 1, 33, 100
5, 8640, Note_on_c, 1, 45, 100
5, 8688, Note_off_c, 1, 45, 64
5, 8688, Note_off_c, 1, 33, 64
5, 8688, Note_on_c, 1, 45, 100
5, 8736, Note_off_c, 1, 45, 64
5, 8736, Note_on_c, 1, 33, 100
5, 8736, Note_on_c, 1, 45, 100
5, 8784, Note_off_c, 1, 45, 64
5, 8784, Note_off_c, 1, 33, 64
5, 8784, Note_on_c, 1, 45, 100
5, 8832, Note_off_c, 1, 45, 64
5, 8832, Note_on_c, 1, 28, 100
5, 8832, Note_on_c, 1, 40, 100
5, 8880, Note_off_c, 1, 40, 64
5, 8880, Note_off_c, 1, 28, 64
5, 8880, Note_on_c, 1, 40, 100
5, 8928, Note_off_c, 1, 40, 64
5, 8928, Note_on_c, 1, 28, 100
5, 8928, Note_on_c, 1, 40, 100
5, 8976, Note_off_c, 1, 40, 64
5, 8976, Note_off_c, 1, 28, 64
5, 8976, Note_on_c, 1, 40, 100
5, 9024, Note_off_c, 1, 40, 64
5, 9024, Note_on_c, 1, 28, 100
5, 9024, Note_on_c, 1, 40, 100
5, 9072, Note_off_c, 1, 40, 64
5, 9072, Note_off_c, 1, 28, 64
5, 9072, Note_on_c, 1, 40, 100
5, 9120, Note_off_c, 1, 40, 64
5, 9120, Note_on_c, 1, 28, 100
5, 9120, Note_on_c, 1, 40, 100
5, 9168, Note_off_c, 1, 40, 64
5, 9168, Note_off_c, 1, 28, 64
5, 9168, Note_on_c, 1, 40, 100
5, 9216, Note_off_c, 1, 40, 64
5, 9216, Note_on_c, 1, 33, 100
5, 9216, Note_on_c, 1, 45, 100
5, 9264, Note_off_c, 1, 45, 64
5, 9264, Note_off_c, 1, 33, 64
5, 9264, Note_on_c, 1, 45, 100
5, 9312, Note_off_c, 1, 45, 64
5, 9312, Note_on_c, 1, 33, 100
5, 9312, Note_on_c, 1, 45, 100
5, 9360, Note_off_c, 1, 45, 64
5, 9360, Note_off_c, 1, 33, 64
5, 9360, Note_on_c, 1, 45, 100
5, 9408, Note_off_c, 1, 45, 64
5, 9408, Note_on_c, 1, 33, 100
5, 9408, Note_on_c, 1, 45, 100
5, 9456, Note_off_c, 1, 45, 64
5, 9456, Note_off_c, 1, 33, 64
5, 9456, Note_on_c, 1, 45, 100
5, 9504, Note_off_c, 1, 45, 64
5, 9504, Note_on_c, 1, 33, 100
5, 9504, Note_on_c, 1, 45, 100
5, 9552, Note_off_c, 1, 45, 64
5, 9552, Note_off_c, 1, 33, 64
5, 9552, Note_on_c, 1, 45, 100
5, 9600, Note_off_c, 1, 45, 64
5, 9600, Note_on_c, 1, 28, 100
5, 9600, Note_on_c, 1, 40, 100
5, 9648, Note_off_c, 1, 40, 64
5, 9648, Note_off_c, 1, 28, 64
5, 9648, Note_on_c, 1, 40, 100
5, 9696, Note_off_c, 1, 40, 64
5, 9696, Note_on_c, 1, 28, 100
5, 9696, Note_on_c, 1, 40, 100
5, 9744, Note_off_c, 1, 40, 64
5, 9744, Note_off_c, 1, 28, 64
5, 9744, Note_on_c, 1, 40, 100
5, 9792, Note_off_c, 1, 40, 64
5, 9792, Note_on_c, 1, 28, 100
5, 9792, Note_on_c, 1, 40, 100
5, 9840, Note_off_c, 1, 40, 64
5, 9840, Note_off_c, 1, 28, 64
5, 9840, Note_on_c, 1, 40, 100
5, 9888, Note_off_c, 1, 40, 64
5, 9888, Note_on_c, 1, 28, 100
5, 9888, Note_on_c, 1, 40, 100
5, 9936, Note_off_c, 1, 40, 64
5, 9936, Note_off_c, 1, 28, 64
5, 9936, Note_on_c, 1, 40, 100
5, 9984, Note_off_c, 1, 40, 64
5, 9984, Note_on_c, 1, 33, 100
5, 9984, Note_on_c, 1, 45, 100
5, 10032, Note_off_c, 1, 45, 64
5, 10032, Note_off_c, 1, 33, 64
5, 10032, Note_on_c, 1, 45, 100
5, 10080, Note_off_c, 1, 45, 64
5, 10080, Note_on_c, 1, 33, 100
5, 10080, Note_on_c, 1, 45, 100
5, 10128, Note_off_c, 1, 45, 64
5, 10128, Note_off_c, 1, 33, 64
5, 10128, Note_on_c, 1, 45, 100
5, 10176, Note_off_c, 1, 45, 64
5, 10176, Note_on_c, 1, 33, 100
5, 10176, Note_on_c, 1, 45, 100
5, 10224, Note_off_c, 1, 45, 64
5, 10224, Note_off_c, 1, 33, 64
5, 10224, Note_on_c, 1, 45, 100
5, 10272, Note_off_c, 1, 45, 64
5, 10272, Note_on_c, 1, 33, 100
5, 10272, Note_on_c, 1, 45, 100
5, 10320, Note_off_c, 1, 45, 64
5, 10320, Note_off_c, 1, 33, 64
5, 10320, Note_on_c, 1, 45, 100
5, 10368, Note_off_c, 1, 45, 64
5, 10368, Note_on_c, 1, 28, 100
5, 10368, Note_on_c, 1, 40, 100
5, 10416, Note_off_c, 1, 40, 64
5, 10416, Note_off_c, 1, 28, 64
5, 10416, Note_on_c, 1, 40, 100
5, 10464, Note_off_c, 1, 40, 64
5, 10464, Note_on_c, 1, 28, 100
5, 10464, Note_on_c, 1, 40, 100
5, 10512, Note_off_c, 1, 40, 64
5, 10512, Note_off_c, 1, 28, 64
5, 10512, Note_on_c, 1, 40, 100
5, 10560, Note_off_c, 1, 40, 64
5, 10560, Note_on_c, 1, 28, 100
5, 10560, Note_on_c, 1, 40, 100
5, 10608, Note_off_c, 1, 40, 64
5, 10608, Note_off_c, 1, 28, 64
5, 10608, Note_on_c, 1, 40, 100
5, 10656, Note_off_c, 1, 40, 64
5, 10656, Note_on_c, 1, 28, 100
5, 10656, Note_on_c, 1, 40, 100
5, 10704, Note_off_c, 1, 40, 64
5, 10704, Note_off_c, 1, 28, 64
5, 10704, Note_on_c, 1, 40, 100
5, 10752, Note_off_c, 1, 40, 64
5, 10752, Note_on_c, 1, 33, 100
5, 10752, Note_on_c, 1, 45, 100
5, 10800, Note_off_c, 1, 45, 64
5, 10800, Note_off_c, 1, 33, 64
5, 10800, Note_on_c, 1, 45, 100
5, 10848, Note_off_c, 1, 45, 64
5, 10848, Note_on_c, 1, 33, 100
5, 10848, Note_on_c, 1, 45, 100
5, 10896, Note_off_c, 1, 45, 64
5, 10896, Note_off_c, 1, 33, 64
5, 10896, Note_on_c, 1, 45, 100
5, 10944, Note_off_c, 1, 45, 64
5, 10944, Note_on_c, 1, 33, 100
5, 10944, Note_on_c, 1, 45, 100
5, 10992, Note_off_c, 1, 45, 64
5, 10992, Note_off_c, 1, 33, 64
5, 10992, Note_on_c, 1, 45, 100
5, 11040, Note_off_c, 1, 45, 64
5, 11040, Note_on_c, 1, 33, 100
5, 11040, Note_on_c, 1, 45, 100
5, 11088, Note_off_c, 1, 45, 64
5, 11088, Note_off_c, 1, 33, 64
5, 11088, Note_on_c, 1, 45, 100
5, 11136, Note_off_c, 1, 45, 64
5, 11136, Note_on_c, 1, 28, 100
5, 11136, Note_on_c, 1, 40, 100
5, 11184, Note_off_c, 1, 40, 64
5, 11184, Note_off_c, 1, 28, 64
5, 11184, Note_on_c, 1, 40, 100
5, 11232, Note_off_c, 1, 40, 64
5, 11232, Note_on_c, 1, 28, 100
5, 11232, Note_on_c, 1, 40, 100
5, 11280, Note_off_c, 1, 40, 64
5, 11280, Note_off_c, 1, 28, 64
5, 11280, Note_on_c, 1, 40, 100
5, 11328, Note_off_c, 1, 40, 64
5, 11328, Note_on_c, 1, 28, 100
5, 11328, Note_on_c, 1, 40, 100
5, 11376, Note_off_c, 1, 40, 64
5, 11376, Note_off_c, 1, 28, 64
5, 11376, Note_on_c, 1, 40, 100
5, 11424, Note_off_c, 1, 40, 64
5, 11424, Note_on_c, 1, 28, 100
5, 11424, Note_on_c, 1, 40, 100
5, 11472, Note_off_c, 1, 40, 64
5, 11472, Note_off_c, 1, 28, 64
5, 11472, Note_on_c, 1, 40, 100
5, 11520, Note_off_c, 1, 40, 64
5, 11520, Note_on_c, 1, 33, 100
5, 11520, Note_on_c, 1, 45, 100
5, 11568, Note_off_c, 1, 45, 64
5, 11568, Note_off_c, 1, 33, 64
5, 11568, Note_on_c, 1, 45, 100
5, 11616, Note_off_c, 1, 45, 64
5, 11616, Note_on_c, 1, 33, 100
5, 11616, Note_on_c, 1, 45, 100
5, 11664, Note_off_c, 1, 45, 64
5, 11664, Note_off_c, 1, 33, 64
5, 11664, Note_on_c, 1, 45, 100
5, 11712, Note_off_c, 1, 45, 64
5, 11712, Note_on_c, 1, 33, 100
5, 11712, Note_on_c, 1, 45, 100
5, 11760, Note_off_c, 1, 45, 64
5, 11760, Note_off_c, 1, 33, 64
5, 11760, Note_on_c, 1, 45, 100
5, 11808, Note_off_c, 1, 45, 64
5, 11808, Note_on_c, 1, 33, 100
5, 11808, Note_on_c, 1, 45, 100
5, 11856, Note_off_c, 1, 45, 64
5, 11856, Note_off_c, 1, 33, 64
5, 11856, Note_on_c, 1, 45, 100
5, 11904, Note_off_c, 1, 45, 64
5, 11904, Note_on_c, 1, 47, 100
5, 11952, Note_off_c, 1, 47, 64
5, 11952, Note_on_c, 1, 47, 100
5, 12000, Note_off_c, 1, 47, 64
5, 12000, Note_on_c, 1, 51, 100
5, 12096, Note_off_c, 1, 51, 64
5, 12096, Note_on_c, 1, 47, 100
5, 12120, Note_off_c, 1, 47, 64
5, 12120, Note_on_c, 1, 47, 100
5, 12144, Note_off_c, 1, 47, 64
5, 12168, Note_on_c, 1, 47, 100
5, 12192, Note_off_c, 1, 47, 64
5, 12192, Note_on_c, 1, 51, 100
5, 12288, Note_off_c, 1, 51, 64
5, 12288, Note_on_c, 1, 47, 100
5, 12336, Note_off_c, 1, 47, 64
5, 12336, Note_on_c, 1, 47, 100
5, 12384, Note_off_c, 1, 47, 64
5, 12384, Note_on_c, 1, 51, 100
5, 12480, Note_off_c, 1, 51, 64
5, 12480, Note_on_c, 1, 47, 100
5, 12504, Note_off_c, 1, 47, 64
5, 12504, Note_on_c, 1, 47, 100
5, 12528, Note_off_c, 1, 47, 64
5, 12552, Note_on_c, 1, 47, 100
5, 12576, Note_off_c, 1, 47, 64
5, 12576, Note_on_c, 1, 51, 100
5, 12672, Note_off_c, 1, 51, 64
5, 12672, Note_on_c, 1, 47, 100
5, 12720, Note_off_c, 1, 47, 64
5, 12720, Note_on_c, 1, 47, 100
5, 12768, Note_off_c, 1, 47, 64
5, 12768, Note_on_c, 1, 51, 100
5, 12864, Note_off_c, 1, 51, 64
5, 12864, Note_on_c, 1, 47, 100
5, 12888, Note_off_c, 1, 47, 64
5, 12888, Note_on_c, 1, 47, 100
5, 12912, Note_off_c, 1, 47, 64
5, 12936, Note_on_c, 1, 47, 100
5, 12960, Note_off_c, 1, 47, 64
5, 12960, Note_on_c, 1, 51, 100
5, 13056, Note_off_c, 1, 51, 64
5, 13056, Note_on_c, 1, 52, 100
5, 13104, Note_off_c, 1, 52, 64
5, 13104, Note_on_c, 1, 52, 100
5, 13152, Note_off_c, 1, 52, 64
5, 13152, Note_on_c, 1, 56, 100
5, 13248, Note_off_c, 1, 56, 64
5, 13248, Note_on_c, 1, 52, 100
5, 13272, Note_off_c, 1, 52, 64
5, 13272, Note_on_c, 1, 52, 100
5, 13296, Note_off_c, 1, 52, 64
5, 13320, Note_on_c, 1, 52, 100
5, 13344, Note_off_c, 1, 52, 64
5, 13344, Note_on_c, 1, 56, 100
5, 13440, Note_off_c, 1, 56, 64
5, 13440, Note_on_c, 1, 47, 100
5, 13488, Note_off_c, 1, 47, 64
5, 13488, Note_on_c, 1, 47, 100
5, 13536, Note_off_c, 1, 47, 64
5, 13536, Note_on_c, 1, 51, 100
5, 13632, Note_off_c, 1, 51, 64
5, 13632, Note_on_c, 1, 47, 100
5, 13656, Note_off_c, 1, 47, 64
5, 13656, Note_on_c, 1, 47, 100
5, 13680, Note_off_c, 1, 47, 64
5, 13704, Note_on_c, 1, 47, 100
5, 13728, Note_off_c, 1, 47, 64
5, 13728, Note_on_c, 1, 51, 100
5, 13824, Note_off_c, 1, 51, 64
5, 13824, Note_on_c, 1, 47, 100
5, 13872, Note_off_c, 1, 47, 64
5, 13872, Note_on_c, 1, 47, 100
5, 13920, Note_off_c, 1, 47, 64
5, 13920, Note_on_c, 1, 51, 100
5, 14016, Note_off_c, 1, 51, 64
5, 14016, Note_on_c, 1, 47, 100
5, 14040, Note_off_c, 1, 47, 64
5, 14040, Note_on_c, 1, 47, 100
5, 14064, Note_off_c, 1, 47, 64
5, 14088, Note_on_c, 1, 47, 100
5, 14112, Note_off_c, 1, 47, 64
5, 14112, Note_on_c, 1, 51, 100
5, 14208, Note_off_c, 1, 51, 64
5, 14208, Note_on_c, 1, 51, 100
5, 14256, Note_off_c, 1, 51, 64
5, 14256, Note_on_c, 1, 51, 100
5, 14304, Note_off_c, 1, 51, 64
5, 14304, Note_on_c, 1, 51, 100
5, 14352, Note_off_c, 1, 51, 64
5, 14352, Note_on_c, 1, 51, 100
5, 14400, Note_off_c, 1, 51, 64
5, 14400, Note_on_c, 1, 51, 100
5, 14448, Note_off_c, 1, 51, 64
5, 14448, Note_on_c, 1, 51, 100
5, 14496, Note_off_c, 1, 51, 64
5, 14496, Note_on_c, 1, 51, 100
5, 14544, Note_off_c, 1, 51, 64
5, 14544, Note_on_c, 1, 51, 100
5, 14592, Note_off_c, 1, 51, 64
5, 14592, Note_on_c, 1, 28, 100
5, 14592, Note_on_c, 1, 40, 100
5, 14640, Note_off_c, 1, 40, 64
5, 14640, Note_off_c, 1, 28, 64
5, 14640, Note_on_c, 1, 40, 100
5, 14688, Note_off_c, 1, 40, 64
5, 14688, Note_on_c, 1, 28, 100
5, 14688, Note_on_c, 1, 40, 100
5, 14736, Note_off_c, 1, 40, 64
5, 14736, Note_off_c, 1, 28, 64
5, 14736, Note_on_c, 1, 40, 100
5, 14784, Note_off_c, 1, 40, 64
5, 14784, Note_on_c, 1, 28, 100
5, 14784, Note_on_c, 1, 40, 100
5, 14832, Note_off_c, 1, 40, 64
5, 14832, Note_off_c, 1, 28, 64
5, 14832, Note_on_c, 1, 40, 100
5, 14880, Note_off_c, 1, 40, 64
5, 14880, Note_on_c, 1, 28, 100
5, 14880, Note_on_c, 1, 40, 100
5, 14928, Note_off_c, 1, 40, 64
5, 14928, Note_off_c, 1, 28, 64
5, 14928, Note_on_c, 1, 40, 100
5, 14976, Note_off_c, 1, 40, 64
5, 14976, Note_on_c, 1, 33, 100
5, 14976, Note_on_c, 1, 45, 100
5, 15024, Note_off_c, 1, 45, 64
5, 15024, Note_off_c, 1, 33, 64
5, 15024, Note_on_c, 1, 45, 100
5, 15072, Note_off_c, 1, 45, 64
5, 15072, Note_on_c, 1, 33, 100
5, 15072, Note_on_c, 1, 45, 100
5, 15120, Note_off_c, 1, 45, 64
5, 15120, Note_off_c, 1, 33, 64
5, 15120, Note_on_c, 1, 45, 100
5, 15168, Note_off_c, 1, 45, 64
5, 15168, Note_on_c, 1, 33, 100
5, 15168, Note_on_c, 1, 45, 100
5, 15216, Note_off_c, 1, 45, 64
5, 15216, Note_off_c, 1, 33, 64
5, 15216, Note_on_c, 1, 45, 100
5, 15264, Note_off_c, 1, 45, 64
5, 15264, Note_on_c, 1, 33, 100
5, 15264, Note_on_c, 1, 45, 100
5, 15312, Note_off_c, 1, 45, 64
5, 15312, Note_off_c, 1, 33, 64
5, 15312, Note_on_c, 1, 45, 100
5, 15360, Note_off_c, 1, 45, 64
5, 15360, Note_on_c, 1, 28, 100
5, 15360, Note_on_c, 1, 40, 100
5, 15408, Note_off_c, 1, 40, 64
5, 15408, Note_off_c, 1, 28, 64
5, 15408, Note_on_c, 1, 40, 100
5, 15456, Note_off_c, 1, 40, 64
5, 15456, Note_on_c, 1, 28, 100
5, 15456, Note_on_c, 1, 40, 100
5, 15504, Note_off_c, 1, 40, 64
5, 15504, Note_off_c, 1, 28, 64
5, 15504, Note_on_c, 1, 40, 100
5, 15552, Note_off_c, 1, 40, 64
5, 15552, Note_on_c, 1, 28, 100
5, 15552, Note_on_c, 1, 40, 100
5, 15600, Note_off_c, 1, 40, 64
5, 15600, Note_off_c, 1, 28, 64
5, 15600, Note_on_c, 1, 40, 100
5, 15648, Note_off_c, 1, 40, 64
5, 15648, Note_on_c, 1, 28, 100
5, 15648, Note_on_c, 1, 40, 100
5, 15696, Note_off_c, 1, 40, 64
5, 15696, Note_off_c, 1, 28, 64
5, 15696, Note_on_c, 1, 40, 100
5, 15744, Note_off_c, 1, 40, 64
5, 15744, Note_on_c, 1, 33, 100
5, 15744, Note_on_c, 1, 45, 100
5, 15792, Note_off_c, 1, 45, 64
5, 15792, Note_off_c, 1, 33, 64
5, 15792, Note_on_c, 1, 45, 100
5, 15840, Note_off_c, 1, 45, 64
5, 15840, Note_on_c, 1, 33, 100
5, 15840, Note_on_c, 1, 45, 100
5, 15888, Note_off_c, 1, 45, 64
5, 15888, Note_off_c, 1, 33, 64
5, 15888, Note_on_c, 1, 45, 100
5, 15936, Note_off_c, 1, 45, 64
5, 15936, Note_on_c, 1, 33, 100
5, 15936, Note_on_c, 1, 45, 100
5, 15984, Note_off_c, 1, 45, 64
5, 15984, Note_off_c, 1, 33, 64
5, 15984, Note_on_c, 1, 45, 100
5, 16032, Note_off_c, 1, 45, 64
5, 16032, Note_on_c, 1, 33, 100
5, 16032, Note_on_c, 1, 45, 100
5, 16080, Note_off_c, 1, 45, 64
5, 16080, Note_off_c, 1, 33, 64
5, 16080, Note_on_c, 1, 45, 100
5, 16128, Note_off_c, 1, 45, 64
5, 16128, Note_on_c, 1, 28, 100
5, 16128, Note_on_c, 1, 40, 100
5, 16176, Note_off_c, 1, 40, 64
5, 16176, Note_off_c, 1, 28, 64
5, 16176, Note_on_c, 1, 40, 100
5, 16224, Note_off_c, 1, 40, 64
5, 16224, Note_on_c, 1, 28, 100
5, 16224, Note_on_c, 1, 40, 100
5, 16272, Note_off_c, 1, 40, 64
5, 16272, Note_off_c, 1, 28, 64
5, 16272, Note_on_c, 1, 40, 100
5, 16320, Note_off_c, 1, 40, 64
5, 16320, Note_on_c, 1, 28, 100
5, 16320, Note_on_c, 1, 40, 100
5, 16368, Note_off_c, 1, 40, 64
5, 16368, Note_off_c, 1, 28, 64
5, 16368, Note_on_c, 1, 40, 100
5, 16416, Note_off_c, 1, 40, 64
5, 16416, Note_on_c, 1, 28, 100
5, 16416, Note_on_c, 1, 40, 100
5, 16464, Note_off_c, 1, 40, 64
5, 16464, Note_off_c, 1, 28, 64
5, 16464, Note_on_c, 1, 40, 100
5, 16512, Note_off_c, 1, 40, 64
5, 16512, Note_on_c, 1, 33, 100
5, 16512, Note_on_c, 1, 45, 100
5, 16560, Note_off_c, 1, 45, 64
5, 16560, Note_off_c, 1, 33, 64
5, 16560, Note_on_c, 1, 45, 100
5, 16608, Note_off_c, 1, 45, 64
5, 16608, Note_on_c, 1, 33, 100
5, 16608, Note_on_c, 1, 45, 100
5, 16656, Note_off_c, 1, 45, 64
5, 16656, Note_off_c, 1, 33, 64
5, 16656, Note_on_c, 1, 45, 100
5, 16704, Note_off_c, 1, 45, 64
5, 16704, Note_on_c, 1, 33, 100
5, 16704, Note_on_c, 1, 45, 100
5, 16752, Note_off_c, 1, 45, 64
5, 16752, Note_off_c, 1, 33, 64
5, 16752, Note_on_c, 1, 45, 100
5, 16800, Note_off_c, 1, 45, 64
5, 16800, Note_on_c, 1, 33, 100
5, 16800, Note_on_c, 1, 45, 100
5, 16848, Note_off_c, 1, 45, 64
5, 16848, Note_off_c, 1, 33, 64
5, 16848, Note_on_c, 1, 45, 100
5, 16896, Note_off_c, 1, 45, 64
5, 16896, Note_on_c, 1, 28, 100
5, 16896, Note_on_c, 1, 40, 100
5, 16944, Note_off_c, 1, 40, 64
5, 16944, Note_off_c, 1, 28, 64
5, 16944, Note_on_c, 1, 40, 100
5, 16992, Note_off_c, 1, 40, 64
5, 16992, Note_on_c, 1, 28, 100
5, 16992, Note_on_c, 1, 40, 100
5, 17040, Note_off_c, 1, 40, 64
5, 17040, Note_off_c, 1, 28, 64
5, 17040, Note_on_c, 1, 40, 100
5, 17088, Note_off_c, 1, 40, 64
5, 17088, Note_on_c, 1, 28, 100
5, 17088, Note_on_c, 1, 40, 100
5, 17136, Note_off_c, 1, 40, 64
5, 17136, Note_off_c, 1, 28, 64
5, 17136, Note_on_c, 1, 40, 100
5, 17184, Note_off_c, 1, 40, 64
5, 17184, Note_on_c, 1, 28, 100
5, 17184, Note_on_c, 1, 40, 100
5, 17232, Note_off_c, 1, 40, 64
5, 17232, Note_off_c, 1, 28, 64
5, 17232, Note_on_c, 1, 40, 100
5, 17280, Note_off_c, 1, 40, 64
5, 17280, Note_on_c, 1, 33, 100
5, 17280, Note_on_c, 1, 45, 100
5, 17328, Note_off_c, 1, 45, 64
5, 17328, Note_off_c, 1, 33, 64
5, 17328, Note_on_c, 1, 45, 100
5, 17376, Note_off_c, 1, 45, 64
5, 17376, Note_on_c, 1, 33, 100
5, 17376, Note_on_c, 1, 45, 100
5, 17424, Note_off_c, 1, 45, 64
5, 17424, Note_off_c, 1, 33, 64
5, 17424, Note_on_c, 1, 45, 100
5, 17472, Note_off_c, 1, 45, 64
5, 17472, Note_on_c, 1, 33, 100
5, 17472, Note_on_c, 1, 45, 100
5, 17520, Note_off_c, 1, 45, 64
5, 17520, Note_off_c, 1, 33, 64
5, 17520, Note_on_c, 1, 45, 100
5, 17568, Note_off_c, 1, 45, 64
5, 17568, Note_on_c, 1, 33, 100
5, 17568, Note_on_c, 1, 45, 100
5, 17616, Note_off_c, 1, 45, 64
5, 17616, Note_off_c, 1, 33, 64
5, 17616, Note_on_c, 1, 45, 100
5, 17664, Note_off_c, 1, 45, 64
5, 17664, Note_on_c, 1, 28, 100
5, 17664, Note_on_c, 1, 40, 100
5, 17712, Note_off_c, 1, 40, 64
5, 17712, Note_off_c, 1, 28, 64
5, 17712, Note_on_c, 1, 40, 100
5, 17760, Note_off_c, 1, 40, 64
5, 17760, Note_on_c, 1, 28, 100
5, 17760, Note_on_c, 1, 40, 100
5, 17808, Note_off_c, 1, 40, 64
5, 17808, Note_off_c, 1, 28, 64
5, 17808, Note_on_c, 1, 40, 100
5, 17856, Note_off_c, 1, 40, 64
5, 17856, Note_on_c, 1, 28, 100
5, 17856, Note_on_c, 1, 40, 100
5, 17904, Note_off_c, 1, 40, 64
5, 17904, Note_off_c, 1, 28, 64
5, 17904, Note_on_c, 1, 40, 100
5, 17952, Note_off_c, 1, 40, 64
5, 17952, Note_on_c, 1, 28, 100
5, 17952, Note_on_c, 1, 40, 100
5, 18000, Note_off_c, 1, 40, 64
5, 18000, Note_off_c, 1, 28, 64
5, 18000, Note_on_c, 1, 40, 100
5, 18048, Note_off_c, 1, 40, 64
5, 18048, Note_on_c, 1, 33, 100
5, 18048, Note_on_c, 1, 45, 100
5, 18096, Note_off_c, 1, 45, 64
5, 18096, Note_off_c, 1, 33, 64
5, 18096, Note_on_c, 1, 45, 100
5, 18144, Note_off_c, 1, 45, 64
5, 18144, Note_on_c, 1, 33, 100
5, 18144, Note_on_c, 1, 45, 100
5, 18192, Note_off_c, 1, 45, 64
5, 18192, Note_off_c, 1, 33, 64
5, 18192, Note_on_c, 1, 45, 100
5, 18240, Note_off_c, 1, 45, 64
5, 18240, Note_on_c, 1, 33, 100
5, 18240, Note_on_c, 1, 45, 100
5, 18288, Note_off_c, 1, 45, 64
5, 18288, Note_off_c, 1, 33, 64
5, 18288, Note_on_c, 1, 45, 100
5, 18336, Note_off_c, 1, 45, 64
5, 18336, Note_on_c, 1, 33, 100
5, 18336, Note_on_c, 1, 45, 100
5, 18384, Note_off_c, 1, 45, 64
5, 18384, Note_off_c, 1, 33, 64
5, 18384, Note_on_c, 1, 45, 100
5, 18432, Note_off_c, 1, 45, 64
5, 18432, Note_on_c, 1, 28, 100
5, 18432, Note_on_c, 1, 40, 100
5, 18480, Note_off_c, 1, 40, 64
5, 18480, Note_off_c, 1, 28, 64
5, 18480, Note_on_c, 1, 40, 100
5, 18528, Note_off_c, 1, 40, 64
5, 18528, Note_on_c, 1, 28, 100
5, 18528, Note_on_c, 1, 40, 100
5, 18576, Note_off_c, 1, 40, 64
5, 18576, Note_off_c, 1, 28, 64
5, 18576, Note_on_c, 1, 40, 100
5, 18624, Note_off_c, 1, 40, 64
5, 18624, Note_on_c, 1, 28, 100
5, 18624, Note_on_c, 1, 40, 100
5, 18672, Note_off_c, 1, 40, 64
5, 18672, Note_off_c, 1, 28, 64
5, 18672, Note_on_c, 1, 40, 100
5, 18720, Note_off_c, 1, 40, 64
5, 18720, Note_on_c, 1, 28, 100
5, 18720, Note_on_c, 1, 40, 100
5, 18768, Note_off_c, 1, 40, 64
5, 18768, Note_off_c, 1, 28, 64
5, 18768, Note_on_c, 1, 40, 100
5, 18816, Note_off_c, 1, 40, 64
5, 18816, Note_on_c, 1, 33, 100
5, 18816, Note_on_c, 1, 45, 100
5, 18864, Note_off_c, 1, 45, 64
5, 18864, Note_off_c, 1, 33, 64
5, 18864, Note_on_c, 1, 45, 100
5, 18912, Note_off_c, 1, 45, 64
5, 18912, Note_on_c, 1, 33, 100
5, 18912, Note_on_c, 1, 45, 100
5, 18960, Note_off_c, 1, 45, 64
5, 18960, Note_off_c, 1, 33, 64
5, 18960, Note_on_c, 1, 45, 100
5, 19008, Note_off_c, 1, 45, 64
5, 19008, Note_on_c, 1, 33, 100
5, 19008, Note_on_c, 1, 45, 100
5, 19056, Note_off_c, 1, 45, 64
5, 19056, Note_off_c, 1, 33, 64
5, 19056, Note_on_c, 1, 45, 100
5, 19104, Note_off_c, 1, 45, 64
5, 19104, Note_on_c, 1, 33, 100
5, 19104, Note_on_c, 1, 45, 100
5, 19152, Note_off_c, 1, 45, 64
5, 19152, Note_off_c, 1, 33, 64
5, 19152, Note_on_c, 1, 45, 100
5, 19200, Note_off_c, 1, 45, 64
5, 19200, Note_on_c, 1, 28, 100
5, 19200, Note_on_c, 1, 40, 100
5, 19248, Note_off_c, 1, 40, 64
5, 19248, Note_off_c, 1, 28, 64
5, 19248, Note_on_c, 1, 40, 100
5, 19296, Note_off_c, 1, 40, 64
5, 19296, Note_on_c, 1, 28, 100
5, 19296, Note_on_c, 1, 40, 100
5, 19344, Note_off_c, 1, 40, 64
5, 19344, Note_off_c, 1, 28, 64
5, 19344, Note_on_c, 1, 40, 100
5, 19392, Note_off_c, 1, 40, 64
5, 19392, Note_on_c, 1, 28, 100
5, 19392, Note_on_c, 1, 40, 100
5, 19440, Note_off_c, 1, 40, 64
5, 19440, Note_off_c, 1, 28, 64
5, 19440, Note_on_c, 1, 40, 100
5, 19488, Note_off_c, 1, 40, 64
5, 19488, Note_on_c, 1, 28, 100
5, 19488, Note_on_c, 1, 40, 100
5, 19536, Note_off_c, 1, 40, 64
5, 19536, Note_off_c, 1, 28, 64
5, 19536, Note_on_c, 1, 40, 100
5, 19584, Note_off_c, 1, 40, 64
5, 19584, Note_on_c, 1, 33, 100
5, 19584, Note_on_c, 1, 45, 100
5, 19632, Note_off_c, 1, 45, 64
5, 19632, Note_off_c, 1, 33, 64
5, 19632, Note_on_c, 1, 45, 100
5, 19680, Note_off_c, 1, 45, 64
5, 19680, Note_on_c, 1, 33, 100
5, 19680, Note_on_c, 1, 45, 100
5, 19728, Note_off_c, 1, 45, 64
5, 19728, Note_off_c, 1, 33, 64
5, 19728, Note_on_c, 1, 45, 100
5, 19776, Note_off_c, 1, 45, 64
5, 19776, Note_on_c, 1, 33, 100
5, 19776, Note_on_c, 1, 45, 100
5, 19824, Note_off_c, 1, 45, 64
5, 19824, Note_off_c, 1, 33, 64
5, 19824, Note_on_c, 1, 45, 100
5, 19872, Note_off_c, 1, 45, 64
5, 19872, Note_on_c, 1, 33, 100
5, 19872, Note_on_c, 1, 45, 100
5, 19920, Note_off_c, 1, 45, 64
5, 19920, Note_off_c, 1, 33, 64
5, 19920, Note_on_c, 1, 45, 100
5, 19968, Note_off_c, 1, 45, 64
5, 19968, Note_on_c, 1, 28, 100
5, 19968, Note_on_c, 1, 40, 100
5, 20016, Note_off_c, 1, 40, 64
5, 20016, Note_off_c, 1, 28, 64
5, 20016, Note_on_c, 1, 40, 100
5, 20064, Note_off_c, 1, 40, 64
5, 20064, Note_on_c, 1, 28, 100
5, 20064, Note_on_c, 1, 40, 100
5, 20112, Note_off_c, 1, 40, 64
5, 20112, Note_off_c, 1, 28, 64
5, 20112, Note_on_c, 1, 40, 100
5, 20160, Note_off_c, 1, 40, 64
5, 20160, Note_on_c, 1, 28, 100
5, 20160, Note_on_c, 1, 40, 100
5, 20208, Note_off_c, 1, 40, 64
5, 20208, Note_off_c, 1, 28, 64
5, 20208, Note_on_c, 1, 40, 100
5, 20256, Note_off_c, 1, 40, 64
5, 20256, Note_on_c, 1, 28, 100
5, 20256, Note_on_c, 1, 40, 100
5, 20304, Note_off_c, 1, 40, 64
5, 20304, Note_off_c, 1, 28, 64
5, 20304, Note_on_c, 1, 40, 100
5, 20352, Note_off_c, 1, 40, 64
5, 20352, Note_on_c, 1, 33, 100
5, 20352, Note_on_c, 1, 45, 100
5, 20400, Note_off_c, 1, 45, 64
5, 20400, Note_off_c, 1, 33, 64
5, 20400, Note_on_c, 1, 45, 100
5, 20448, Note_off_c, 1, 45, 64
5, 20448, Note_on_c, 1, 33, 100
5, 20448, Note_on_c, 1, 45, 100
5, 20496, Note_off_c, 1, 45, 64
5, 20496, Note_off_c, 1, 33, 64
5, 20496, Note_on_c, 1, 45, 100
5, 20544, Note_off_c, 1, 45, 64
5, 20544, Note_on_c, 1, 33, 100
5, 20544, Note_on_c, 1, 45, 100
5, 20592, Note_off_c, 1, 45, 64
5, 20592, Note_off_c, 1, 33, 64
5, 20592, Note_on_c, 1, 45, 100
5, 20640, Note_off_c, 1, 45, 64
5, 20640, Note_on_c, 1, 33, 100
5, 20640, Note_on_c, 1, 45, 100
5, 20688, Note_off_c, 1, 45, 64
5, 20688, Note_off_c, 1, 33, 64
5, 20688, Note_on_c, 1, 45, 100
5, 20736, Note_off_c, 1, 45, 64
5, 20736, Note_on_c, 1, 47, 100
5, 20784, Note_off_c, 1, 47, 64
5, 20784, Note_on_c, 1, 47, 100
5, 20832, Note_off_c, 1, 47, 64
5, 20832, Note_on_c, 1, 51, 100
5, 20928, Note_off_c, 1, 51, 64
5, 20928, Note_on_c, 1, 47, 100
5, 20952, Note_off_c, 1, 47, 64
5, 20952, Note_on_c, 1, 47, 100
5, 20976, Note_off_c, 1, 47, 64
5, 21000, Note_on_c, 1, 47, 100
5, 21024, Note_off_c, 1, 47, 64
5, 21024, Note_on_c, 1, 51, 100
5, 21120, Note_off_c, 1, 51, 64
5, 21120, Note_on_c, 1, 47, 100
5, 21168, Note_off_c, 1, 47, 64
5, 21168, Note_on_c, 1, 47, 100
5, 21216, Note_off_c, 1, 47, 64
5, 21216, Note_on_c, 1, 51, 100
5, 21312, Note_off_c, 1, 51, 64
5, 21312, Note_on_c, 1, 47, 100
5, 21336, Note_off_c, 1, 47, 64
5, 21336, Note_on_c, 1, 47, 100
5, 21360, Note_off_c, 1, 47, 64
5, 21384, Note_on_c, 1, 47, 100
5, 21408, Note_off_c, 1, 47, 64
5, 21408, Note_on_c, 1, 51, 100
5, 21504, Note_off_c, 1, 51, 64
5, 21504, Note_on_c, 1, 47, 100
5, 21552, Note_off_c, 1, 47, 64
5, 21552, Note_on_c, 1, 47, 100
5, 21600, Note_off_c, 1, 47, 64
5, 21600, Note_on_c, 1, 51, 100
5, 21696, Note_off_c, 1, 51, 64
5, 21696, Note_on_c, 1, 47, 100
5, 21720, Note_off_c, 1, 47, 64
5, 21720, Note_on_c, 1, 47, 100
5, 21744, Note_off_c, 1, 47, 64
5, 21768, Note_on_c, 1, 47, 100
5, 21792, Note_off_c, 1, 47, 64
5, 21792, Note_on_c, 1, 51, 100
5, 21888, Note_off_c, 1, 51, 64
5, 21888, Note_on_c, 1, 52, 100
5, 21936, Note_off_c, 1, 52, 64
5, 21936, Note_on_c, 1, 52, 100
5, 21984, Note_off_c, 1, 52, 64
5, 21984, Note_on_c, 1, 56, 100
5, 22080, Note_off_c, 1, 56, 64
5, 22080, Note_on_c, 1, 52, 100
5, 22104, Note_off_c, 1, 52, 64
5, 22104, Note_on_c, 1, 52, 100
5, 22128, Note_off_c, 1, 52, 64
5, 22152, Note_on_c, 1, 52, 100
5, 22176, Note_off_c, 1, 52, 64
5, 22176, Note_on_c, 1, 56, 100
5, 22272, Note_off_c, 1, 56, 64
5, 22272, Note_on_c, 1, 47, 100
5, 22320, Note_off_c, 1, 47, 64
5, 22320, Note_on_c, 1, 47, 100
5, 22368, Note_off_c, 1, 47, 64
5, 22368, Note_on_c, 1, 51, 100
5, 22464, Note_off_c, 1, 51, 64
5, 22464, Note_on_c, 1, 47, 100
5, 22488, Note_off_c, 1, 47, 64
5, 22488, Note_on_c, 1, 47, 100
5, 22512, Note_off_c, 1, 47, 64
5, 22536, Note_on_c, 1, 47, 100
5, 22560, Note_off_c, 1, 47, 64
5, 22560, Note_on_c, 1, 51, 100
5, 22656, Note_off_c, 1, 51, 64
5, 22656, Note_on_c, 1, 47, 100
5, 22704, Note_off_c, 1, 47, 64
5, 22704, Note_on_c, 1, 47, 100
5, 22752, Note_off_c, 1, 47, 64
5, 22752, Note_on_c, 1, 51, 100
5, 22848, Note_off_c, 1, 51, 64
5, 22848, Note_on_c, 1, 47, 100
5, 22872, Note_off_c, 1, 47, 64
5, 22872, Note_on_c, 1, 47, 100
5, 22896, Note_off_c, 1, 47, 64
5, 22920, Note_on_c, 1, 47, 100
5, 22944, Note_off_c, 1, 47, 64
5, 22944, Note_on_c, 1, 51, 100
5, 23040, Note_off_c, 1, 51, 64
5, 23040, Note_on_c, 1, 51, 100
5, 23088, Note_off_c, 1, 51, 64
5, 23088, Note_on_c, 1, 51, 100
5, 23136, Note_off_c, 1, 51, 64
5, 23136, Note_on_c, 1, 51, 100
5, 23184, Note_off_c, 1, 51, 64
5, 23184, Note_on_c, 1, 51, 100
5, 23232, Note_off_c, 1, 51, 64
5, 23232, Note_on_c, 1, 51, 100
5, 23280, Note_off_c, 1, 51, 64
5, 23280, Note_on_c, 1, 51, 100
5, 23328, Note_off_c, 1, 51, 64
5, 23328, Note_on_c, 1, 51, 100
5, 23376, Note_off_c, 1, 51, 64
5, 23376, Note_on_c, 1, 51, 100
5, 23424, Note_off_c, 1, 51, 64
5, 23424, Note_on_c, 1, 28, 100
5, 23424, Note_on_c, 1, 40, 100
5, 23472, Note_off_c, 1, 40, 64
5, 23472, Note_off_c, 1, 28, 64
5, 23472, Note_on_c, 1, 40, 100
5, 23520, Note_off_c, 1, 40, 64
5, 23520, Note_on_c, 1, 28, 100
5, 23520, Note_on_c, 1, 40, 100
5, 23568, Note_off_c, 1, 40, 64
5, 23568, Note_off_c, 1, 28, 64
5, 23568, Note_on_c, 1, 40, 100
5, 23616, Note_off_c, 1, 40, 64
5, 23616, Note_on_c, 1, 28, 100
5, 23616, Note_on_c, 1, 40, 100
5, 23664, Note_off_c, 1, 40, 64
5, 23664, Note_off_c, 1, 28, 64
5, 23664, Note_on_c, 1, 40, 100
5, 23712, Note_off_c, 1, 40, 64
5, 23712, Note_on_c, 1, 28, 100
5, 23712, Note_on_c, 1, 40, 100
5, 23760, Note_off_c, 1, 40, 64
5, 23760, Note_off_c, 1, 28, 64
5, 23760, Note_on_c, 1, 40, 100
5, 23808, Note_off_c, 1, 40, 64
5, 23808, Note_on_c, 1, 33, 100
5, 23808, Note_on_c, 1, 45, 100
5, 23856, Note_off_c, 1, 45, 64
5, 23856, Note_off_c, 1, 33, 64
5, 23856, Note_on_c, 1, 45, 100
5, 23904, Note_off_c, 1, 45, 64
5, 23904, Note_on_c, 1, 33, 100
5, 23904, Note_on_c, 1, 45, 100
5, 23952, Note_off_c, 1, 45, 64
5, 23952, Note_off_c, 1, 33, 64
5, 23952, Note_on_c, 1, 45, 100
5, 24000, Note_off_c, 1, 45, 64
5, 24000, Note_on_c, 1, 33, 100
5, 24000, Note_on_c, 1, 45, 100
5, 24048, Note_off_c, 1, 45, 64
5, 24048, Note_off_c, 1, 33, 64
5, 24048, Note_on_c, 1, 45, 100
5, 24096, Note_off_c, 1, 45, 64
5, 24096, Note_on_c, 1, 33, 100
5, 24096, Note_on_c, 1, 45, 100
5, 24144, Note_off_c, 1, 45, 64
5, 24144, Note_off_c, 1, 33, 64
5, 24144, Note_on_c, 1, 45, 100
5, 24192, Note_off_c, 1, 45, 64
5, 24192, Note_on_c, 1, 28, 100
5, 24192, Note_on_c, 1, 40, 100
5, 24240, Note_off_c, 1, 40, 64
5, 24240, Note_off_c, 1, 28, 64
5, 24240, Note_on_c, 1, 40, 100
5, 24288, Note_off_c, 1, 40, 64
5, 24288, Note_on_c, 1, 28, 100
5, 24288, Note_on_c, 1, 40, 100
5, 24336, Note_off_c, 1, 40, 64
5, 24336, Note_off_c, 1, 28, 64
5, 24336, Note_on_c, 1, 40, 100
5, 24384, Note_off_c, 1, 40, 64
5, 24384, Note_on_c, 1, 28, 100
5, 24384, Note_on_c, 1, 40, 100
5, 24432, Note_off_c, 1, 40, 64
5, 24432, Note_off_c, 1, 28, 64
5, 24432, Note_on_c, 1, 40, 100
5, 24480, Note_off_c, 1, 40, 64
5, 24480, Note_on_c, 1, 28, 100
5, 24480, Note_on_c, 1, 40, 100
5, 24528, Note_off_c, 1, 40, 64
5, 24528, Note_off_c, 1, 28, 64
5, 24528, Note_on_c, 1, 40, 100
5, 24576, Note_off_c, 1, 40, 64
5, 24576, Note_on_c, 1, 33, 100
5, 24576, Note_on_c, 1, 45, 100
5, 24624, Note_off_c, 1, 45, 64
5, 24624, Note_off_c, 1, 33, 64
5, 24624, Note_on_c, 1, 45, 100
5, 24672, Note_off_c, 1, 45, 64
5, 24672, Note_on_c, 1, 33, 100
5, 24672, Note_on_c, 1, 45, 100
5, 24720, Note_off_c, 1, 45, 64
5, 24720, Note_off_c, 1, 33, 64
5, 24720, Note_on_c, 1, 45, 100
5, 24768, Note_off_c, 1, 45, 64
5, 24768, Note_on_c, 1, 33, 100
5, 24768, Note_on_c, 1, 45, 100
5, 24816, Note_off_c, 1, 45, 64
5, 24816, Note_off_c, 1, 33, 64
5, 24816, Note_on_c, 1, 45, 100
5, 24864, Note_off_c, 1, 45, 64
5, 24864, Note_on_c, 1, 33, 100
5, 24864, Note_on_c, 1, 45, 100
5, 24912, Note_off_c, 1, 45, 64
5, 24912, Note_off_c, 1, 33, 64
5, 24912, Note_on_c, 1, 45, 100
5, 24960, Note_off_c, 1, 45, 64
5, 24960, Note_on_c, 1, 28, 100
5, 24960, Note_on_c, 1, 40, 100
5, 25008, Note_off_c, 1, 40, 64
5, 25008, Note_off_c, 1, 28, 64
5, 25008, Note_on_c, 1, 40, 100
5, 25056, Note_off_c, 1, 40, 64
5, 25056, Note_on_c, 1, 28, 100
5, 25056, Note_on_c, 1, 40, 100
5, 25104, Note_off_c, 1, 40, 64
5, 25104, Note_off_c, 1, 28, 64
5, 25104, Note_on_c, 1, 40, 100
5, 25152, Note_off_c, 1, 40, 64
5, 25152, Note_on_c, 1, 28, 100
5, 25152, Note_on_c, 1, 40, 100
5, 25200, Note_off_c, 1, 40, 64
5, 25200, Note_off_c, 1, 28, 64
5, 25200, Note_on_c, 1, 40, 100
5, 25248, Note_off_c, 1, 40, 64
5, 25248, Note_on_c, 1, 28, 100
5, 25248, Note_on_c, 1, 40, 100
5, 25296, Note_off_c, 1, 40, 64
5, 25296, Note_off_c, 1, 28, 64
5, 25296, Note_on_c, 1, 40, 100
5, 25344, Note_off_c, 1, 40, 64
5, 25344, Note_on_c, 1, 33, 100
5, 25344, Note_on_c, 1, 45, 100
5, 25392, Note_off_c, 1, 45, 64
5, 25392, Note_off_c, 1, 33, 64
5, 25392, Note_on_c, 1, 45, 100
5, 25440, Note_off_c, 1, 45, 64
5, 25440, Note_on_c, 1, 33, 100
5, 25440, Note_on_c, 1, 45, 100
5, 25488, Note_off_c, 1, 45, 64
5, 25488, Note_off_c, 1, 33, 64
5, 25488, Note_on_c, 1, 45, 100
5, 25536, Note_off_c, 1, 45, 64
5, 25536, Note_on_c, 1, 33, 100
5, 25536, Note_on_c, 1, 45, 100
5, 25584, Note_off_c, 1, 45, 64
5, 25584, Note_off_c, 1, 33, 64
5, 25584, Note_on_c, 1, 45, 100
5, 25632, Note_off_c, 1, 45, 64
5, 25632, Note_on_c, 1, 33, 100
5, 25632, Note_on_c, 1, 45, 100
5, 25680, Note_off_c, 1, 45, 64
5, 25680, Note_off_c, 1, 33, 64
5, 25680, Note_on_c, 1, 45, 100
5, 25728, Note_off_c, 1, 45, 64
5, 25728, Note_on_c, 1, 28, 100
5, 25728, Note_on_c, 1, 40, 100
5, 25776, Note_off_c, 1, 40, 64
5, 25776, Note_off_c, 1, 28, 64
5, 25776, Note_on_c, 1, 40, 100
5, 25824, Note_off_c, 1, 40, 64
5, 25824, Note_on_c, 1, 28, 100
5, 25824, Note_on_c, 1, 40, 100
5, 25872, Note_off_c, 1, 40, 64
5, 25872, Note_off_c, 1, 28, 64
5, 25872, Note_on_c, 1, 40, 100
5, 25920, Note_off_c, 1, 40, 64
5, 25920, Note_on_c, 1, 28, 100
5, 25920, Note_on_c, 1, 40, 100
5, 25968, Note_off_c, 1, 40, 64
5, 25968, Note_off_c, 1, 28, 64
5, 25968, Note_on_c, 1, 40, 100
5, 26016, Note_off_c, 1, 40, 64
5, 26016, Note_on_c, 1, 28, 100
5, 26016, Note_on_c, 1, 40, 100
5, 26064, Note_off_c, 1, 40, 64
5, 26064, Note_off_c, 1, 28, 64
5, 26064, Note_on_c, 1, 40, 100
5, 26112, Note_off_c, 1, 40, 64
5, 26112, Note_on_c, 1, 33, 100
5, 26112, Note_on_c, 1, 45, 100
5, 26160, Note_off_c, 1, 45, 64
5, 26160, Note_off_c, 1, 33, 64
5, 26160, Note_on_c, 1, 45, 100
5, 26208, Note_off_c, 1, 45, 64
5, 26208, Note_on_c, 1, 33, 100
5, 26208, Note_on_c, 1, 45, 100
5, 26256, Note_off_c, 1, 45, 64
5, 26256, Note_off_c, 1, 33, 64
5, 26256, Note_on_c, 1, 45, 100
5, 26304, Note_off_c, 1, 45, 64
5, 26304, Note_on_c, 1, 33, 100
5, 26304, Note_on_c, 1, 45, 100
5, 26352, Note_off_c, 1, 45, 64
5, 26352, Note_off_c, 1, 33, 64
5, 26352, Note_on_c, 1, 45, 100
5, 26400, Note_off_c, 1, 45, 64
5, 26400, Note_on_c, 1, 33, 100
5, 26400, Note_on_c, 1, 45, 100
5, 26448, Note_off_c, 1, 45, 64
5, 26448, Note_off_c, 1, 33, 64
5, 26448, Note_on_c, 1, 45, 100
5, 26496, Note_off_c, 1, 45, 64
5, 26496, Note_on_c, 1, 28, 100
5, 26496, Note_on_c, 1, 40, 100
5, 26544, Note_off_c, 1, 40, 64
5, 26544, Note_off_c, 1, 28, 64
5, 26544, Note_on_c, 1, 40, 100
5, 26592, Note_off_c, 1, 40, 64
5, 26592, Note_on_c, 1, 28, 100
5, 26592, Note_on_c, 1, 40, 100
5, 26640, Note_off_c, 1, 40, 64
5, 26640, Note_off_c, 1, 28, 64
5, 26640, Note_on_c, 1, 40, 100
5, 26688, Note_off_c, 1, 40, 64
5, 26688, Note_on_c, 1, 28, 100
5, 26688, Note_on_c, 1, 40, 100
5, 26736, Note_off_c, 1, 40, 64
5, 26736, Note_off_c, 1, 28, 64
5, 26736, Note_on_c, 1, 40, 100
5, 26784, Note_off_c, 1, 40, 64
5, 26784, Note_on_c, 1, 28, 100
5, 26784, Note_on_c, 1, 40, 100
5, 26832, Note_off_c, 1, 40, 64
5, 26832, Note_off_c, 1, 28, 64
5, 26832, Note_on_c, 1, 40, 100
5, 26880, Note_off_c, 1, 40, 64
5, 26880, Note_on_c, 1, 33, 100
5, 26880, Note_on_c, 1, 45, 100
5, 26928, Note_off_c, 1, 45, 64
5, 26928, Note_off_c, 1, 33, 64
5, 26928, Note_on_c, 1, 45, 100
5, 26976, Note_off_c, 1, 45, 64
5, 26976, Note_on_c, 1, 33, 100
5, 26976, Note_on_c, 1, 45, 100
5, 27024, Note_off_c, 1, 45, 64
5, 27024, Note_off_c, 1, 33, 64
5, 27024, Note_on_c, 1, 45, 100
5, 27072, Note_off_c, 1, 45, 64
5, 27072, Note_on_c, 1, 33, 100
5, 27072, Note_on_c, 1, 45, 100
5, 27120, Note_off_c, 1, 45, 64
5, 27120, Note_off_c, 1, 33, 64
5, 27120, Note_on_c, 1, 45, 100
5, 27168, Note_off_c, 1, 45, 64
5, 27168, Note_on_c, 1, 33, 100
5, 27168, Note_on_c, 1, 45, 100
5, 27216, Note_off_c, 1, 45, 64
5, 27216, Note_off_c, 1, 33, 64
5, 27216, Note_on_c, 1, 45, 100
5, 27264, Note_off_c, 1, 45, 64
5, 27264, Note_on_c, 1, 28, 100
5, 27264, Note_on_c, 1, 40, 100
5, 27312, Note_off_c, 1, 40, 64
5, 27312, Note_off_c, 1, 28, 64
5, 27312, Note_on_c, 1, 40, 100
5, 27360, Note_off_c, 1, 40, 64
5, 27360, Note_on_c, 1, 28, 100
5, 27360, Note_on_c, 1, 40, 100
5, 27408, Note_off_c, 1, 40, 64
5, 27408, Note_off_c, 1, 28, 64
5, 27408, Note_on_c, 1, 40, 100
5, 27456, Note_off_c, 1, 40, 64
5, 27456, Note_on_c, 1, 28, 100
5, 27456, Note_on_c, 1, 40, 100
5, 27504, Note_off_c, 1, 40, 64
5, 27504, Note_off_c, 1, 28, 64
5, 27504, Note_on_c, 1, 40, 100
5, 27552, Note_off_c, 1, 40, 64
5, 27552, Note_on_c, 1, 28, 100
5, 27552, Note_on_c, 1, 40, 100
5, 27600, Note_off_c, 1, 40, 64
5, 27600, Note_off_c, 1, 28, 64
5, 27600, Note_on_c, 1, 40, 100
5, 27648, Note_off_c, 1, 40, 64
5, 27648, Note_on_c, 1, 33, 100
5, 27648, Note_on_c, 1, 45, 100
5, 27696, Note_off_c, 1, 45, 64
5, 27696, Note_off_c, 1, 33, 64
5, 27696, Note_on_c, 1, 45, 100
5, 27744, Note_off_c, 1, 45, 64
5, 27744, Note_on_c, 1, 33, 100
5, 27744, Note_on_c, 1, 45, 100
5, 27792, Note_off_c, 1, 45, 64
5, 27792, Note_off_c, 1, 33, 64
5, 27792, Note_on_c, 1, 45, 100
5, 27840, Note_off_c, 1, 45, 64
5, 27840, Note_on_c, 1, 33, 100
5, 27840, Note_on_c, 1, 45, 100
5, 27888, Note_off_c, 1, 45, 64
5, 27888, Note_off_c, 1, 33, 64
5, 27888, Note_on_c, 1, 45, 100
5, 27936, Note_off_c, 1, 45, 64
5, 27936, Note_on_c, 1, 33, 100
5, 27936, Note_on_c, 1, 45, 100
5, 27984, Note_off_c, 1, 45, 64
5, 27984, Note_off_c, 1, 33, 64
5, 27984, Note_on_c, 1, 45, 100
5, 28032, Note_off_c, 1, 45, 64
5, 28032, Note_on_c, 1, 28, 100
5, 28032, Note_on_c, 1, 40, 100
5, 28080, Note_off_c, 1, 40, 64
5, 28080, Note_off_c, 1, 28, 64
5, 28080, Note_on_c, 1, 40, 100
5, 28128, Note_off_c, 1, 40, 64
5, 28128, Note_on_c, 1, 28, 100
5, 28128, Note_on_c, 1, 40, 100
5, 28176, Note_off_c, 1, 40, 64
5, 28176, Note_off_c, 1, 28, 64
5, 28176, Note_on_c, 1, 40, 100
5, 28224, Note_off_c, 1, 40, 64
5, 28224, Note_on_c, 1, 28, 100
5, 28224, Note_on_c, 1, 40, 100
5, 28272, Note_off_c, 1, 40, 64
5, 28272, Note_off_c, 1, 28, 64
5, 28272, Note_on_c, 1, 40, 100
5, 28320, Note_off_c, 1, 40, 64
5, 28320, Note_on_c, 1, 28, 100
5, 28320, Note_on_c, 1, 40, 100
5, 28368, Note_off_c, 1, 40, 64
5, 28368, Note_off_c, 1, 28, 64
5, 28368, Note_on_c, 1, 40, 100
5, 28416, Note_off_c, 1, 40, 64
5, 28416, Note_on_c, 1, 33, 100
5, 28416, Note_on_c, 1, 45, 100
5, 28464, Note_off_c, 1, 45, 64
5, 28464, Note_off_c, 1, 33, 64
5, 28464, Note_on_c, 1, 45, 100
5, 28512, Note_off_c, 1, 45, 64
5, 28512, Note_on_c, 1, 33, 100
5, 28512, Note_on_c, 1, 45, 100
5, 28560, Note_off_c, 1, 45, 64
5, 28560, Note_off_c, 1, 33, 64
5, 28560, Note_on_c, 1, 45, 100
5, 28608, Note_off_c, 1, 45, 64
5, 28608, Note_on_c, 1, 33, 100
5, 28608, Note_on_c, 1, 45, 100
5, 28656, Note_off_c, 1, 45, 64
5, 28656, Note_off_c, 1, 33, 64
5, 28656, Note_on_c, 1, 45, 100
5, 28704, Note_off_c, 1, 45, 64
5, 28704, Note_on_c, 1, 33, 100
5, 28704, Note_on_c, 1, 45, 100
5, 28752, Note_off_c, 1, 45, 64
5, 28752, Note_off_c, 1, 33, 64
5, 28752, Note_on_c, 1, 45, 100
5, 28800, Note_off_c, 1, 45, 64
5, 28800, Note_on_c, 1, 28, 100
5, 28800, Note_on_c, 1, 40, 100
5, 28848, Note_off_c, 1, 40, 64
5, 28848, Note_off_c, 1, 28, 64
5, 28848, Note_on_c, 1, 40, 100
5, 28896, Note_off_c, 1, 40, 64
5, 28896, Note_on_c, 1, 28, 100
5, 28896, Note_on_c, 1, 40, 100
5, 28944, Note_off_c, 1, 40, 64
5, 28944, Note_off_c, 1, 28, 64
5, 28944, Note_on_c, 1, 40, 100
5, 28992, Note_off_c, 1, 40, 64
5, 28992, Note_on_c, 1, 28, 100
5, 28992, Note_on_c, 1, 40, 100
5, 29040, Note_off_c, 1, 40, 64
5, 29040, Note_off_c, 1, 28, 64
5, 29040, Note_on_c, 1, 40, 100
5, 29088, Note_off_c, 1, 40, 64
5, 29088, Note_on_c, 1, 28, 100
5, 29088, Note_on_c, 1, 40, 100
5, 29136, Note_off_c, 1, 40, 64
5, 29136, Note_off_c, 1, 28, 64
5, 29136, Note_on_c, 1, 40, 100
5, 29184, Note_off_c, 1, 40, 64
5, 29184, Note_on_c, 1, 33, 100
5, 29184, Note_on_c, 1, 45, 100
5, 29232, Note_off_c, 1, 45, 64
5, 29232, Note_off_c, 1, 33, 64
5, 29232, Note_on_c, 1, 45, 100
5, 29280, Note_off_c, 1, 45, 64
5, 29280, Note_on_c, 1, 33, 100
5, 29280, Note_on_c, 1, 45, 100
5, 29328, Note_off_c, 1, 45, 64
5, 29328, Note_off_c, 1, 33, 64
5, 29328, Note_on_c, 1, 45, 100
5, 29376, Note_off_c, 1, 45, 64
5, 29376, Note_on_c, 1, 33, 100
5, 29376, Note_on_c, 1, 45, 100
5, 29424, Note_off_c, 1, 45, 64
5, 29424, Note_off_c, 1, 33, 64
5, 29424, Note_on_c, 1, 45, 100
5, 29472, Note_off_c, 1, 45, 64
5, 29472, Note_on_c, 1, 33, 100
5, 29472, Note_on_c, 1, 45, 100
5, 29520, Note_off_c, 1, 45, 64
5, 29520, Note_off_c, 1, 33, 64
5, 29520, Note_on_c, 1, 45, 100
5, 29568, Note_off_c, 1, 45, 64
5, 29568, Note_on_c, 1, 28, 100
5, 29568, Note_on_c, 1, 40, 100
5, 29616, Note_off_c, 1, 40, 64
5, 29616, Note_off_c, 1, 28, 64
5, 29616, Note_on_c, 1, 40, 100
5, 29664, Note_off_c, 1, 40, 64
5, 29664, Note_on_c, 1, 28, 100
5, 29664, Note_on_c, 1, 40, 100
5, 29712, Note_off_c, 1, 40, 64
5, 29712, Note_off_c, 1, 28, 64
5, 29712, Note_on_c, 1, 40, 100
5, 29760, Note_off_c, 1, 40, 64
5, 29760, Note_on_c, 1, 28, 100
5, 29760, Note_on_c, 1, 40, 100
5, 29808, Note_off_c, 1, 40, 64
5, 29808, Note_off_c, 1, 28, 64
5, 29808, Note_on_c, 1, 40, 100
5, 29856, Note_off_c, 1, 40, 64
5, 29856, Note_on_c, 1, 28, 100
5, 29856, Note_on_c, 1, 40, 100
5, 29904, Note_off_c, 1, 40, 64
5, 29904, Note_off_c, 1, 28, 64
5, 29904, Note_on_c, 1, 40, 100
5, 29952, Note_off_c, 1, 40, 64
5, 29952, Note_on_c, 1, 33, 100
5, 29952, Note_on_c, 1, 45, 100
5, 30000, Note_off_c, 1, 45, 64
5, 30000, Note_off_c, 1, 33, 64
5, 30000, Note_on_c, 1, 45, 100
5, 30048, Note_off_c, 1, 45, 64
5, 30048, Note_on_c, 1, 33, 100
5, 30048, Note_on_c, 1, 45, 100
5, 30096, Note_off_c, 1, 45, 64
5, 30096, Note_off_c, 1, 33, 64
5, 30096, Note_on_c, 1, 45, 100
5, 30144, Note_off_c, 1, 45, 64
5, 30144, Note_on_c, 1, 33, 100
5, 30144, Note_on_c, 1, 45, 100
5, 30192, Note_off_c, 1, 45, 64
5, 30192, Note_off_c, 1, 33, 64
5, 30192, Note_on_c, 1, 45, 100
5, 30240, Note_off_c, 1, 45, 64
5, 30240, Note_on_c, 1, 33, 100
5, 30240, Note_on_c, 1, 45, 100
5, 30288, Note_off_c, 1, 45, 64
5, 30288, Note_off_c, 1, 33, 64
5, 30288, Note_on_c, 1, 45, 100
5, 30336, Note_off_c, 1, 45, 64
5, 30336, Note_on_c, 1, 28, 100
5, 30336, Note_on_c, 1, 40, 100
5, 30384, Note_off_c, 1, 40, 64
5, 30384, Note_off_c, 1, 28, 64
5, 30384, Note_on_c, 1, 40, 100
5, 30432, Note_off_c, 1, 40, 64
5, 30432, Note_on_c, 1, 28, 100
5, 30432, Note_on_c, 1, 40, 100
5, 30480, Note_off_c, 1, 40, 64
5, 30480, Note_off_c, 1, 28, 64
5, 30480, Note_on_c, 1, 40, 100
5, 30528, Note_off_c, 1, 40, 64
5, 30528, Note_on_c, 1, 28, 100
5, 30528, Note_on_c, 1, 40, 100
5, 30576, Note_off_c, 1, 40, 64
5, 30576, Note_off_c, 1, 28, 64
5, 30576, Note_on_c, 1, 40, 100
5, 30624, Note_off_c, 1, 40, 64
5, 30624, Note_on_c, 1, 28, 100
5, 30624, Note_on_c, 1, 40, 100
5, 30672, Note_off_c, 1, 40, 64
5, 30672, Note_off_c, 1, 28, 64
5, 30672, Note_on_c, 1, 40, 100
5, 30720, Note_off_c, 1, 40, 64
5, 30720, Note_on_c, 1, 33, 100
5, 30720, Note_on_c, 1, 45, 100
5, 30768, Note_off_c, 1, 45, 64
5, 30768, Note_off_c, 1, 33, 64
5, 30768, Note_on_c, 1, 45, 100
5, 30816, Note_off_c, 1, 45, 64
5, 30816, Note_on_c, 1, 33, 100
5, 30816, Note_on_c, 1, 45, 100
5, 30864, Note_off_c, 1, 45, 64
5, 30864, Note_off_c, 1, 33, 64
5, 30864, Note_on_c, 1, 45, 100
5, 30912, Note_off_c, 1, 45, 64
5, 30912, Note_on_c, 1, 33, 100
5, 30912, Note_on_c, 1, 45, 100
5, 30960, Note_off_c, 1, 45, 64
5, 30960, Note_off_c, 1, 33, 64
5, 30960, Note_on_c, 1, 45, 100
5, 31008, Note_off_c, 1, 45, 64
5, 31008, Note_on_c, 1, 33, 100
5, 31008, Note_on_c, 1, 45, 100
5, 31056, Note_off_c, 1, 45, 64
5, 31056, Note_off_c, 1, 33, 64
5, 31056, Note_on_c, 1, 45, 100
5, 31104, Note_off_c, 1, 45, 64
5, 31104, Note_on_c, 1, 28, 100
5, 31104, Note_on_c, 1, 40, 100
5, 31152, Note_off_c, 1, 40, 64
5, 31152, Note_off_c, 1, 28, 64
5, 31152, Note_on_c, 1, 40, 100
5, 31200, Note_off_c, 1, 40, 64
5, 31200, Note_on_c, 1, 28, 100
5, 31200, Note_on_c, 1, 40, 100
5, 31248, Note_off_c, 1, 40, 64
5, 31248, Note_off_c, 1, 28, 64
5, 31248, Note_on_c, 1, 40, 100
5, 31296, Note_off_c, 1, 40, 64
5, 31296, Note_on_c, 1, 28, 100
5, 31296, Note_on_c, 1, 40, 100
5, 31344, Note_off_c, 1, 40, 64
5, 31344, Note_off_c, 1, 28, 64
5, 31344, Note_on_c, 1, 40, 100
5, 31392, Note_off_c, 1, 40, 64
5, 31392, Note_on_c, 1, 28, 100
5, 31392, Note_on_c, 1, 40, 100
5, 31440, Note_off_c, 1, 40, 64
5, 31440, Note_off_c, 1, 28, 64
5, 31440, Note_on_c, 1, 40, 100
5, 31488, Note_off_c, 1, 40, 64
5, 31488, Note_on_c, 1, 33, 100
5, 31488, Note_on_c, 1, 45, 100
5, 31536, Note_off_c, 1, 45, 64
5, 31536, Note_off_c, 1, 33, 64
5, 31536, Note_on_c, 1, 45, 100
5, 31584, Note_off_c, 1, 45, 64
5, 31584, Note_on_c, 1, 33, 100
5, 31584, Note_on_c, 1, 45, 100
5, 31632, Note_off_c, 1, 45, 64
5, 31632, Note_off_c, 1, 33, 64
5, 31632, Note_on_c, 1, 45, 100
5, 31680, Note_off_c, 1, 45, 64
5, 31680, Note_on_c, 1, 33, 100
5, 31680, Note_on_c, 1, 45, 100
5, 31728, Note_off_c, 1, 45, 64
5, 31728, Note_off_c, 1, 33, 64
5, 31728, Note_on_c, 1, 45, 100
5, 31776, Note_off_c, 1, 45, 64
5, 31776, Note_on_c, 1, 33, 100
5, 31776, Note_on_c, 1, 45, 100
5, 31824, Note_off_c, 1, 45, 64
5, 31824, Note_off_c, 1, 33, 64
5, 31824, Note_on_c, 1, 45, 100
5, 31872, Note_off_c, 1, 45, 64
5, 31872, Note_on_c, 1, 28, 100
5, 31872, Note_on_c, 1, 40, 100
5, 31920, Note_off_c, 1, 40, 64
5, 31920, Note_off_c, 1, 28, 64
5, 31920, Note_on_c, 1, 40, 100
5, 31968, Note_off_c, 1, 40, 64
5, 31968, Note_on_c, 1, 28, 100
5, 31968, Note_on_c, 1, 40, 100
5, 32016, Note_off_c, 1, 40, 64
5, 32016, Note_off_c, 1, 28, 64
5, 32016, Note_on_c, 1, 40, 100
5, 32064, Note_off_c, 1, 40, 64
5, 32064, Note_on_c, 1, 28, 100
5, 32064, Note_on_c, 1, 40, 100
5, 32112, Note_off_c, 1, 40, 64
5, 32112, Note_off_c, 1, 28, 64
5, 32112, Note_on_c, 1, 40, 100
5, 32160, Note_off_c, 1, 40, 64
5, 32160, Note_on_c, 1, 28, 100
5, 32160, Note_on_c, 1, 40, 100
5, 32208, Note_off_c, 1, 40, 64
5, 32208, Note_off_c, 1, 28, 64
5, 32208, Note_on_c, 1, 40, 100
5, 32256, Note_off_c, 1, 40, 64
5, 32256, Note_on_c, 1, 33, 100
5, 32256, Note_on_c, 1, 45, 100
5, 32304, Note_off_c, 1, 45, 64
5, 32304, Note_off_c, 1, 33, 64
5, 32304, Note_on_c, 1, 45, 100
5, 32352, Note_off_c, 1, 45, 64
5, 32352, Note_on_c, 1, 33, 100
5, 32352, Note_on_c, 1, 45, 100
5, 32400, Note_off_c, 1, 45, 64
5, 32400, Note_off_c, 1, 33, 64
5, 32400, Note_on_c, 1, 45, 100
5, 32448, Note_off_c, 1, 45, 64
5, 32448, Note_on_c, 1, 33, 100
5, 32448, Note_on_c, 1, 45, 100
5, 32496, Note_off_c, 1, 45, 64
5, 32496, Note_off_c, 1, 33, 64
5, 32496, Note_on_c, 1, 45, 100
5, 32544, Note_off_c, 1, 45, 64
5, 32544, Note_on_c, 1, 33, 100
5, 32544, Note_on_c, 1, 45, 100
5, 32592, Note_off_c, 1, 45, 64
5, 32592, Note_off_c, 1, 33, 64
5, 32592, Note_on_c, 1, 45, 100
5, 32640, Note_off_c, 1, 45, 64
5, 32640, Note_on_c, 1, 28, 100
5, 32640, Note_on_c, 1, 40, 100
5, 32688, Note_off_c, 1, 40, 64
5, 32688, Note_off_c, 1, 28, 64
5, 32688, Note_on_c, 1, 40, 100
5, 32736, Note_off_c, 1, 40, 64
5, 32736, Note_on_c, 1, 28, 100
5, 32736, Note_on_c, 1, 40, 100
5, 32784, Note_off_c, 1, 40, 64
5, 32784, Note_off_c, 1, 28, 64
5, 32784, Note_on_c, 1, 40, 100
5, 32832, Note_off_c, 1, 40, 64
5, 32832, Note_on_c, 1, 28, 100
5, 32832, Note_on_c, 1, 40, 100
5, 32880, Note_off_c, 1, 40, 64
5, 32880, Note_off_c, 1, 28, 64
5, 32880, Note_on_c, 1, 40, 100
5, 32928, Note_off_c, 1, 40, 64
5, 32928, Note_on_c, 1, 28, 100
5, 32928, Note_on_c, 1, 40, 100
5, 32976, Note_off_c, 1, 40, 64
5, 32976, Note_off_c, 1, 28, 64
5, 32976, Note_on_c, 1, 40, 100
5, 33024, Note_off_c, 1, 40, 64
5, 33024, Note_on_c, 1, 33, 100
5, 33024, Note_on_c, 1, 45, 100
5, 33072, Note_off_c, 1, 45, 64
5, 33072, Note_off_c, 1, 33, 64
5, 33072, Note_on_c, 1, 45, 100
5, 33120, Note_off_c, 1, 45, 64
5, 33120, Note_on_c, 1, 33, 100
5, 33120, Note_on_c, 1, 45, 100
5, 33168, Note_off_c, 1, 45, 64
5, 33168, Note_off_c, 1, 33, 64
5, 33168, Note_on_c, 1, 45, 100
5, 33216, Note_off_c, 1, 45, 64
5, 33216, Note_on_c, 1, 33, 100
5, 33216, Note_on_c, 1, 45, 100
5, 33264, Note_off_c, 1, 45, 64
5, 33264, Note_off_c, 1, 33, 64
5, 33264, Note_on_c, 1, 45, 100
5, 33312, Note_off_c, 1, 45, 64
5, 33312, Note_on_c, 1, 33, 100
5, 33312, Note_on_c, 1, 45, 100
5, 33360, Note_off_c, 1, 45, 64
5, 33360, Note_off_c, 1, 33, 64
5, 33360, Note_on_c, 1, 45, 100
5, 33408, Note_off_c, 1, 45, 64
5, 33408, Note_on_c, 1, 28, 100
5, 33408, Note_on_c, 1, 40, 100
5, 33456, Note_off_c, 1, 40, 64
5, 33456, Note_off_c, 1, 28, 64
5, 33456, Note_on_c, 1, 40, 100
5, 33504, Note_off_c, 1, 40, 64
5, 33504, Note_on_c, 1, 28, 100
5, 33504, Note_on_c, 1, 40, 100
5, 33552, Note_off_c, 1, 40, 64
5, 33552, Note_off_c, 1, 28, 64
5, 33552, Note_on_c, 1, 40, 100
5, 33600, Note_off_c, 1, 40, 64
5, 33600, Note_on_c, 1, 28, 100
5, 33600, Note_on_c, 1, 40, 100
5, 33648, Note_off_c, 1, 40, 64
5, 33648, Note_off_c, 1, 28, 64
5, 33648, Note_on_c, 1, 40, 100
5, 33696, Note_off_c, 1, 40, 64
5, 33696, Note_on_c, 1, 28, 100
5, 33696, Note_on_c, 1, 40, 100
5, 33744, Note_off_c, 1, 40, 64
5, 33744, Note_off_c, 1, 28, 64
5, 33744, Note_on_c, 1, 40, 100
5, 33792, Note_off_c, 1, 40, 64
5, 33792, Note_on_c, 1, 33, 100
5, 33792, Note_on_c, 1, 45, 100
5, 33840, Note_off_c, 1, 45, 64
5, 33840, Note_off_c, 1, 33, 64
5, 33840, Note_on_c, 1, 45, 100
5, 33888, Note_off_c, 1, 45, 64
5, 33888, Note_on_c, 1, 33, 100
5, 33888, Note_on_c, 1, 45, 100
5, 33936, Note_off_c, 1, 45, 64
5, 33936, Note_off_c, 1, 33, 64
5, 33936, Note_on_c, 1, 45, 100
5, 33984, Note_off_c, 1, 45, 64
5, 33984, Note_on_c, 1, 33, 100
5, 33984, Note_on_c, 1, 45, 100
5, 34032, Note_off_c, 1, 45, 64
5, 34032, Note_off_c, 1, 33, 64
5, 34032, Note_on_c, 1, 45, 100
5, 34080, Note_off_c, 1, 45, 64
5, 34080, Note_on_c, 1, 33, 100
5, 34080, Note_on_c, 1, 45, 100
5, 34128, Note_off_c, 1, 45, 64
5, 34128, Note_off_c, 1, 33, 64
5, 34128, Note_on_c, 1, 45, 100
5, 34176, Note_off_c, 1, 45, 64
5, 34176, Note_on_c, 1, 28, 100
5, 34176, Note_on_c, 1, 40, 100
5, 34224, Note_off_c, 1, 40, 64
5, 34224, Note_off_c, 1, 28, 64
5, 34224, Note_on_c, 1, 40, 100
5, 34272, Note_off_c, 1, 40, 64
5, 34272, Note_on_c, 1, 28, 100
5, 34272, Note_on_c, 1, 40, 100
5, 34320, Note_off_c, 1, 40, 64
5, 34320, Note_off_c, 1, 28, 64
5, 34320, Note_on_c, 1, 40, 100
5, 34368, Note_off_c, 1, 40, 64
5, 34368, Note_on_c, 1, 28, 100
5, 34368, Note_on_c, 1, 40, 100
5, 34416, Note_off_c, 1, 40, 64
5, 34416, Note_off_c, 1, 28, 64
5, 34416, Note_on_c, 1, 40, 100
5, 34464, Note_off_c, 1, 40, 64
5, 34464, Note_on_c, 1, 28, 100
5, 34464, Note_on_c, 1, 40, 100
5, 34512, Note_off_c, 1, 40, 64
5, 34512, Note_off_c, 1, 28, 64
5, 34512, Note_on_c, 1, 40, 100
5, 34560, Note_off_c, 1, 40, 64
5, 34944, Note_on_c, 1, 47, 100
5, 34992, Note_off_c, 1, 47, 64
5, 34992, Note_on_c, 1, 47, 100
5, 35040, Note_off_c, 1, 47, 64
5, 35040, Note_on_c, 1, 51, 100
5, 35136, Note_off_c, 1, 51, 64
5, 35136, Note_on_c, 1, 47, 100
5, 35160, Note_off_c, 1, 47, 64
5, 35160, Note_on_c, 1, 47, 100
5, 35184, Note_off_c, 1, 47, 64
5, 35208, Note_on_c, 1, 47, 100
5, 35232, Note_off_c, 1, 47, 64
5, 35232, Note_on_c, 1, 51, 100
5, 35328, Note_off_c, 1, 51, 64
5, 35328, Note_on_c, 1, 47, 100
5, 35376, Note_off_c, 1, 47, 64
5, 35376, Note_on_c, 1, 47, 100
5, 35424, Note_off_c, 1, 47, 64
5, 35424, Note_on_c, 1, 51, 100
5, 35520, Note_off_c, 1, 51, 64
5, 35520, Note_on_c, 1, 47, 100
5, 35544, Note_off_c, 1, 47, 64
5, 35544, Note_on_c, 1, 47, 100
5, 35568, Note_off_c, 1, 47, 64
5, 35592, Note_on_c, 1, 47, 100
5, 35616, Note_off_c, 1, 47, 64
5, 35616, Note_on_c, 1, 51, 100
5, 35712, Note_off_c, 1, 51, 64
5, 35712, Note_on_c, 1, 47, 100
5, 35760, Note_off_c, 1, 47, 64
5, 35760, Note_on_c, 1, 47, 100
5, 35808, Note_off_c, 1, 47, 64
5, 35808, Note_on_c, 1, 51, 100
5, 35904, Note_off_c, 1, 51, 64
5, 35904, Note_on_c, 1, 47, 100
5, 35928, Note_off_c, 1, 47, 64
5, 35928, Note_on_c, 1, 47, 100
5, 35952, Note_off_c, 1, 47, 64
5, 35976, Note_on_c, 1, 47, 100
5, 36000, Note_off_c, 1, 47, 64
5, 36000, Note_on_c, 1, 51, 100
5, 36096, Note_off_c, 1, 51, 64
5, 36096, Note_on_c, 1, 52, 100
5, 36144, Note_off_c, 1, 52, 64
5, 36144, Note_on_c, 1, 52, 100
5, 36192, Note_off_c, 1, 52, 64
5, 36192, Note_on_c, 1, 56, 100
5, 36288, Note_off_c, 1, 56, 64
5, 36288, Note_on_c, 1, 52, 100
5, 36312, Note_off_c, 1, 52, 64
5, 36312, Note_on_c, 1, 52, 100
5, 36336, Note_off_c, 1, 52, 64
5, 36360, Note_on_c, 1, 52, 100
5, 36384, Note_off_c, 1, 52, 64
5, 36384, Note_on_c, 1, 56, 100
5, 36480, Note_off_c, 1, 56, 64
5, 36480, Note_on_c, 1, 47, 100
5, 36528, Note_off_c, 1, 47, 64
5, 36528, Note_on_c, 1, 47, 100
5, 36576, Note_off_c, 1, 47, 64
5, 36576, Note_on_c, 1, 51, 100
5, 36672, Note_off_c, 1, 51, 64
5, 36672, Note_on_c, 1, 47, 100
5, 36696, Note_off_c, 1, 47, 64
5, 36696, Note_on_c, 1, 47, 100
5, 36720, Note_off_c, 1, 47, 64
5, 36744, Note_on_c, 1, 47, 100
5, 36768, Note_off_c, 1, 47, 64
5, 36768, Note_on_c, 1, 51, 100
5, 36864, Note_off_c, 1, 51, 64
5, 36864, Note_on_c, 1, 47, 100
5, 36912, Note_off_c, 1, 47, 64
5, 36912, Note_on_c, 1, 47, 100
5, 36960, Note_off_c, 1, 47, 64
5, 36960, Note_on_c, 1, 51, 100
5, 37056, Note_off_c, 1, 51, 64
5, 37056, Note_on_c, 1, 47, 100
5, 37080, Note_off_c, 1, 47, 64
5, 37080, Note_on_c, 1, 47, 100
5, 37104, Note_off_c, 1, 47, 64
5, 37128, Note_on_c, 1, 47, 100
5, 37152, Note_off_c, 1, 47, 64
5, 37152, Note_on_c, 1, 51, 100
5, 37248, Note_off_c, 1, 51, 64
5, 37248, Note_on_c, 1, 51, 100
5, 37296, Note_off_c, 1, 51, 64
5, 37296, Note_on_c, 1, 51, 100
5, 37344, Note_off_c, 1, 51, 64
5, 37344, Note_on_c, 1, 51, 100
5, 37392, Note_off_c, 1, 51, 64
5, 37392, Note_on_c, 1, 51, 100
5, 37440, Note_off_c, 1, 51, 64
5, 37440, Note_on_c, 1, 51, 100
5, 37488, Note_off_c, 1, 51, 64
5, 37488, Note_on_c, 1, 51, 100
5, 37536, Note_off_c, 1, 51, 64
5, 37536, Note_on_c, 1, 51, 100
5, 37584, Note_off_c, 1, 51, 64
5, 37584, Note_on_c, 1, 51, 100
5, 37632, Note_off_c, 1, 51, 64
5, 37632, Note_on_c, 1, 28, 100
5, 37632, Note_on_c, 1, 40, 100
5, 37680, Note_off_c, 1, 40, 64
5, 37680, Note_off_c, 1, 28, 64
5, 37680, Note_on_c, 1, 40, 100
5, 37728, Note_off_c, 1, 40, 64
5, 37728, Note_on_c, 1, 28, 100
5, 37728, Note_on_c, 1, 40, 100
5, 37776, Note_off_c, 1, 28, 64
5, 37776, Note_off_c, 1, 40, 64
5, 37776, Note_on_c, 1, 40, 100
5, 37824, Note_off_c, 1, 40, 64
5, 37824, Note_on_c, 1, 28, 100
5, 37824, Note_on_c, 1, 40, 100
5, 37872, Note_off_c, 1, 40, 64
5, 37872, Note_off_c, 1, 28, 64
5, 37872, Note_on_c, 1, 40, 100
5, 37920, Note_off_c, 1, 40, 64
5, 37920, Note_on_c, 1, 28, 100
5, 37920, Note_on_c, 1, 40, 100
5, 37968, Note_off_c, 1, 28, 64
5, 37968, Note_off_c, 1, 40, 64
5, 37968, Note_on_c, 1, 40, 100
5, 38016, Note_off_c, 1, 40, 64
5, 38016, Note_on_c, 1, 33, 100
5, 38016, Note_on_c, 1, 45, 100
5, 38064, Note_off_c, 1, 33, 64
5, 38064, Note_off_c, 1, 45, 64
5, 38064, Note_on_c, 1, 45, 100
5, 38112, Note_off_c, 1, 45, 64
5, 38112, Note_on_c, 1, 33, 100
5, 38112, Note_on_c, 1, 45, 100
5, 38160, Note_off_c, 1, 33, 64
5, 38160, Note_off_c, 1, 45, 64
5, 38160, Note_on_c, 1, 45, 100
5, 38208, Note_off_c, 1, 45, 64
5, 38208, Note_on_c, 1, 33, 100
5, 38208, Note_on_c, 1, 45, 100
5, 38256, Note_off_c, 1, 45, 64
5, 38256, Note_off_c, 1, 33, 64
5, 38256, Note_on_c, 1, 45, 100
5, 38304, Note_off_c, 1, 45, 64
5, 38304, Note_on_c, 1, 33, 100
5, 38304, Note_on_c, 1, 45, 100
5, 38352, Note_off_c, 1, 33, 64
5, 38352, Note_off_c, 1, 45, 64
5, 38352, Note_on_c, 1, 45, 100
5, 38400, Note_off_c, 1, 45, 64
5, 38400, Note_on_c, 1, 28, 100
5, 38400, Note_on_c, 1, 40, 100
5, 38448, Note_off_c, 1, 40, 64
5, 38448, Note_off_c, 1, 28, 64
5, 38448, Note_on_c, 1, 40, 100
5, 38496, Note_off_c, 1, 40, 64
5, 38496, Note_on_c, 1, 28, 100
5, 38496, Note_on_c, 1, 40, 100
5, 38544, Note_off_c, 1, 40, 64
5, 38544, Note_off_c, 1, 28, 64
5, 38544, Note_on_c, 1, 40, 100
5, 38592, Note_off_c, 1, 40, 64
5, 38592, Note_on_c, 1, 28, 100
5, 38592, Note_on_c, 1, 40, 100
5, 38640, Note_off_c, 1, 40, 64
5, 38640, Note_off_c, 1, 28, 64
5, 38640, Note_on_c, 1, 40, 100
5, 38688, Note_off_c, 1, 40, 64
5, 38688, Note_on_c, 1, 28, 100
5, 38688, Note_on_c, 1, 40, 100
5, 38736, Note_off_c, 1, 40, 64
5, 38736, Note_off_c, 1, 28, 64
5, 38736, Note_on_c, 1, 40, 100
5, 38784, Note_off_c, 1, 40, 64
5, 38784, Note_on_c, 1, 33, 100
5, 38784, Note_on_c, 1, 45, 100
5, 38832, Note_off_c, 1, 45, 64
5, 38832, Note_off_c, 1, 33, 64
5, 38832, Note_on_c, 1, 45, 100
5, 38880, Note_off_c, 1, 45, 64
5, 38880, Note_on_c, 1, 33, 100
5, 38880, Note_on_c, 1, 45, 100
5, 38928, Note_off_c, 1, 45, 64
5, 38928, Note_off_c, 1, 33, 64
5, 38928, Note_on_c, 1, 45, 100
5, 38976, Note_off_c, 1, 45, 64
5, 38976, Note_on_c, 1, 33, 100
5, 38976, Note_on_c, 1, 45, 100
5, 39024, Note_off_c, 1, 45, 64
5, 39024, Note_off_c, 1, 33, 64
5, 39024, Note_on_c, 1, 45, 100
5, 39072, Note_off_c, 1, 45, 64
5, 39072, Note_on_c, 1, 33, 100
5, 39072, Note_on_c, 1, 45, 100
5, 39120, Note_off_c, 1, 45, 64
5, 39120, Note_off_c, 1, 33, 64
5, 39120, Note_on_c, 1, 45, 100
5, 39168, Note_off_c, 1, 45, 64
5, 39168, Note_on_c, 1, 28, 100
5, 39168, Note_on_c, 1, 40, 100
5, 39216, Note_off_c, 1, 40, 64
5, 39216, Note_off_c, 1, 28, 64
5, 39216, Note_on_c, 1, 40, 100
5, 39264, Note_off_c, 1, 40, 64
5, 39264, Note_on_c, 1, 28, 100
5, 39264, Note_on_c, 1, 40, 100
5, 39312, Note_off_c, 1, 40, 64
5, 39312, Note_off_c, 1, 28, 64
5, 39312, Note_on_c, 1, 40, 100
5, 39360, Note_off_c, 1, 40, 64
5, 39360, Note_on_c, 1, 28, 100
5, 39360, Note_on_c, 1, 40, 100
5, 39408, Note_off_c, 1, 40, 64
5, 39408, Note_off_c, 1, 28, 64
5, 39408, Note_on_c, 1, 40, 100
5, 39456, Note_off_c, 1, 40, 64
5, 39456, Note_on_c, 1, 28, 100
5, 39456, Note_on_c, 1, 40, 100
5, 39504, Note_off_c, 1, 40, 64
5, 39504, Note_off_c, 1, 28, 64
5, 39504, Note_on_c, 1, 40, 100
5, 39552, Note_off_c, 1, 40, 64
5, 39552, Note_on_c, 1, 33, 100
5, 39552, Note_on_c, 1, 45, 100
5, 39600, Note_off_c, 1, 45, 64
5, 39600, Note_off_c, 1, 33, 64
5, 39600, Note_on_c, 1, 45, 100
5, 39648, Note_off_c, 1, 45, 64
5, 39648, Note_on_c, 1, 33, 100
5, 39648, Note_on_c, 1, 45, 100
5, 39696, Note_off_c, 1, 45, 64
5, 39696, Note_off_c, 1, 33, 64
5, 39696, Note_on_c, 1, 45, 100
5, 39744, Note_off_c, 1, 45, 64
5, 39744, Note_on_c, 1, 33, 100
5, 39744, Note_on_c, 1, 45, 100
5, 39792, Note_off_c, 1, 45, 64
5, 39792, Note_off_c, 1, 33, 64
5, 39792, Note_on_c, 1, 45, 100
5, 39840, Note_off_c, 1, 45, 64
5, 39840, Note_on_c, 1, 33, 100
5, 39840, Note_on_c, 1, 45, 100
5, 39888, Note_off_c, 1, 45, 64
5, 39888, Note_off_c, 1, 33, 64
5, 39888, Note_on_c, 1, 45, 100
5, 39936, Note_off_c, 1, 45, 64
5, 39936, Note_on_c, 1, 28, 100
5, 39936, Note_on_c, 1, 40, 100
5, 39984, Note_off_c, 1, 40, 64
5, 39984, Note_off_c, 1, 28, 64
5, 39984, Note_on_c, 1, 40, 100
5, 40032, Note_off_c, 1, 40, 64
5, 40032, Note_on_c, 1, 28, 100
5, 40032, Note_on_c, 1, 40, 100
5, 40080, Note_off_c, 1, 40, 64
5, 40080, Note_off_c, 1, 28, 64
5, 40080, Note_on_c, 1, 40, 100
5, 40128, Note_off_c, 1, 40, 64
5, 40128, Note_on_c, 1, 28, 100
5, 40128, Note_on_c, 1, 40, 100
5, 40176, Note_off_c, 1, 40, 64
5, 40176, Note_off_c, 1, 28, 64
5, 40176, Note_on_c, 1, 40, 100
5, 40224, Note_off_c, 1, 40, 64
5, 40224, Note_on_c, 1, 28, 100
5, 40224, Note_on_c, 1, 40, 100
5, 40272, Note_off_c, 1, 40, 64
5, 40272, Note_off_c, 1, 28, 64
5, 40272, Note_on_c, 1, 40, 100
5, 40320, Note_off_c, 1, 40, 64
5, 40320, Note_on_c, 1, 33, 100
5, 40320, Note_on_c, 1, 45, 100
5, 40368, Note_off_c, 1, 45, 64
5, 40368, Note_off_c, 1, 33, 64
5, 40368, Note_on_c, 1, 45, 100
5, 40416, Note_off_c, 1, 45, 64
5, 40416, Note_on_c, 1, 33, 100
5, 40416, Note_on_c, 1, 45, 100
5, 40464, Note_off_c, 1, 45, 64
5, 40464, Note_off_c, 1, 33, 64
5, 40464, Note_on_c, 1, 45, 100
5, 40512, Note_off_c, 1, 45, 64
5, 40512, Note_on_c, 1, 33, 100
5, 40512, Note_on_c, 1, 45, 100
5, 40560, Note_off_c, 1, 45, 64
5, 40560, Note_off_c, 1, 33, 64
5, 40560, Note_on_c, 1, 45, 100
5, 40608, Note_off_c, 1, 45, 64
5, 40608, Note_on_c, 1, 33, 100
5, 40608, Note_on_c, 1, 45, 100
5, 40656, Note_off_c, 1, 45, 64
5, 40656, Note_off_c, 1, 33, 64
5, 40656, Note_on_c, 1, 45, 100
5, 40704, Note_off_c, 1, 45, 64
5, 40704, Note_on_c, 1, 28, 100
5, 40704, Note_on_c, 1, 40, 100
5, 40752, Note_off_c, 1, 40, 64
5, 40752, Note_off_c, 1, 28, 64
5, 40752, Note_on_c, 1, 40, 100
5, 40800, Note_off_c, 1, 40, 64
5, 40800, Note_on_c, 1, 28, 100
5, 40800, Note_on_c, 1, 40, 100
5, 40848, Note_off_c, 1, 40, 64
5, 40848, Note_off_c, 1, 28, 64
5, 40848, Note_on_c, 1, 40, 100
5, 40896, Note_off_c, 1, 40, 64
5, 40896, Note_on_c, 1, 28, 100
5, 40896, Note_on_c, 1, 40, 100
5, 40944, Note_off_c, 1, 40, 64
5, 40944, Note_off_c, 1, 28, 64
5, 40944, Note_on_c, 1, 40, 100
5, 40992, Note_off_c, 1, 40, 64
5, 40992, Note_on_c, 1, 28, 100
5, 40992, Note_on_c, 1, 40, 100
5, 41040, Note_off_c, 1, 40, 64
5, 41040, Note_off_c, 1, 28, 64
5, 41040, Note_on_c, 1, 40, 100
5, 41088, Note_off_c, 1, 40, 64
5, 41088, Note_on_c, 1, 33, 100
5, 41088, Note_on_c, 1, 45, 100
5, 41136, Note_off_c, 1, 45, 64
5, 41136, Note_off_c, 1, 33, 64
5, 41136, Note_on_c, 1, 45, 100
5, 41184, Note_off_c, 1, 45, 64
5, 41184, Note_on_c, 1, 33, 100
5, 41184, Note_on_c, 1, 45, 100
5, 41232, Note_off_c, 1, 45, 64
5, 41232, Note_off_c, 1, 33, 64
5, 41232, Note_on_c, 1, 45, 100
5, 41280, Note_off_c, 1, 45, 64
5, 41280, Note_on_c, 1, 33, 100
5, 41280, Note_on_c, 1, 45, 100
5, 41328, Note_off_c, 1, 45, 64
5, 41328, Note_off_c, 1, 33, 64
5, 41328, Note_on_c, 1, 45, 100
5, 41376, Note_off_c, 1, 45, 64
5, 41376, Note_on_c, 1, 33, 100
5, 41376, Note_on_c, 1, 45, 100
5, 41424, Note_off_c, 1, 45, 64
5, 41424, Note_off_c, 1, 33, 64
5, 41424, Note_on_c, 1, 45, 100
5, 41472, Note_off_c, 1, 45, 64
5, 41472, Note_on_c, 1, 28, 100
5, 41472, Note_on_c, 1, 40, 100
5, 41520, Note_off_c, 1, 40, 64
5, 41520, Note_off_c, 1, 28, 64
5, 41520, Note_on_c, 1, 40, 100
5, 41568, Note_off_c, 1, 40, 64
5, 41568, Note_on_c, 1, 28, 100
5, 41568, Note_on_c, 1, 40, 100
5, 41616, Note_off_c, 1, 40, 64
5, 41616, Note_off_c, 1, 28, 64
5, 41616, Note_on_c, 1, 40, 100
5, 41664, Note_off_c, 1, 40, 64
5, 41664, Note_on_c, 1, 28, 100
5, 41664, Note_on_c, 1, 40, 100
5, 41712, Note_off_c, 1, 40, 64
5, 41712, Note_off_c, 1, 28, 64
5, 41712, Note_on_c, 1, 40, 100
5, 41760, Note_off_c, 1, 40, 64
5, 41760, Note_on_c, 1, 28, 100
5, 41760, Note_on_c, 1, 40, 100
5, 41808, Note_off_c, 1, 40, 64
5, 41808, Note_off_c, 1, 28, 64
5, 41808, Note_on_c, 1, 40, 100
5, 41856, Note_off_c, 1, 40, 64
5, 41856, Note_on_c, 1, 33, 100
5, 41856, Note_on_c, 1, 45, 100
5, 41904, Note_off_c, 1, 45, 64
5, 41904, Note_off_c, 1, 33, 64
5, 41904, Note_on_c, 1, 45, 100
5, 41952, Note_off_c, 1, 45, 64
5, 41952, Note_on_c, 1, 33, 100
5, 41952, Note_on_c, 1, 45, 100
5, 42000, Note_off_c, 1, 45, 64
5, 42000, Note_off_c, 1, 33, 64
5, 42000, Note_on_c, 1, 45, 100
5, 42048, Note_off_c, 1, 45, 64
5, 42048, Note_on_c, 1, 33, 100
5, 42048, Note_on_c, 1, 45, 100
5, 42096, Note_off_c, 1, 45, 64
5, 42096, Note_off_c, 1, 33, 64
5, 42096, Note_on_c, 1, 45, 100
5, 42144, Note_off_c, 1, 45, 64
5, 42144, Note_on_c, 1, 33, 100
5, 42144, Note_on_c, 1, 45, 100
5, 42192, Note_off_c, 1, 45, 64
5, 42192, Note_off_c, 1, 33, 64
5, 42192, Note_on_c, 1, 45, 100
5, 42240, Note_off_c, 1, 45, 64
5, 42240, Note_on_c, 1, 28, 100
5, 42240, Note_on_c, 1, 40, 100
5, 42288, Note_off_c, 1, 40, 64
5, 42288, Note_off_c, 1, 28, 64
5, 42288, Note_on_c, 1, 40, 100
5, 42336, Note_off_c, 1, 40, 64
5, 42336, Note_on_c, 1, 28, 100
5, 42336, Note_on_c, 1, 40, 100
5, 42384, Note_off_c, 1, 40, 64
5, 42384, Note_off_c, 1, 28, 64
5, 42384, Note_on_c, 1, 40, 100
5, 42432, Note_off_c, 1, 40, 64
5, 42432, Note_on_c, 1, 28, 100
5, 42432, Note_on_c, 1, 40, 100
5, 42480, Note_off_c, 1, 40, 64
5, 42480, Note_off_c, 1, 28, 64
5, 42480, Note_on_c, 1, 40, 100
5, 42528, Note_off_c, 1, 40, 64
5, 42528, Note_on_c, 1, 28, 100
5, 42528, Note_on_c, 1, 40, 100
5, 42576, Note_off_c, 1, 40, 64
5, 42576, Note_off_c, 1, 28, 64
5, 42576, Note_on_c, 1, 40, 100
5, 42624, Note_off_c, 1, 40, 64
5, 42624, Note_on_c, 1, 33, 100
5, 42624, Note_on_c, 1, 45, 100
5, 42672, Note_off_c, 1, 45, 64
5, 42672, Note_off_c, 1, 33, 64
5, 42672, Note_on_c, 1, 45, 100
5, 42720, Note_off_c, 1, 45, 64
5, 42720, Note_on_c, 1, 33, 100
5, 42720, Note_on_c, 1, 45, 100
5, 42768, Note_off_c, 1, 45, 64
5, 42768, Note_off_c, 1, 33, 64
5, 42768, Note_on_c, 1, 45, 100
5, 42816, Note_off_c, 1, 45, 64
5, 42816, Note_on_c, 1, 33, 100
5, 42816, Note_on_c, 1, 45, 100
5, 42864, Note_off_c, 1, 45, 64
5, 42864, Note_off_c, 1, 33, 64
5, 42864, Note_on_c, 1, 45, 100
5, 42912, Note_off_c, 1, 45, 64
5, 42912, Note_on_c, 1, 33, 100
5, 42912, Note_on_c, 1, 45, 100
5, 42960, Note_off_c, 1, 45, 64
5, 42960, Note_off_c, 1, 33, 64
5, 42960, Note_on_c, 1, 45, 100
5, 43008, Note_off_c, 1, 45, 64
5, 43008, Note_on_c, 1, 28, 100
5, 43008, Note_on_c, 1, 40, 100
5, 43056, Note_off_c, 1, 40, 64
5, 43056, Note_off_c, 1, 28, 64
5, 43056, Note_on_c, 1, 40, 100
5, 43104, Note_off_c, 1, 40, 64
5, 43104, Note_on_c, 1, 28, 100
5, 43104, Note_on_c, 1, 40, 100
5, 43152, Note_off_c, 1, 40, 64
5, 43152, Note_off_c, 1, 28, 64
5, 43152, Note_on_c, 1, 40, 100
5, 43200, Note_off_c, 1, 40, 64
5, 43200, Note_on_c, 1, 28, 100
5, 43200, Note_on_c, 1, 40, 100
5, 43248, Note_off_c, 1, 40, 64
5, 43248, Note_off_c, 1, 28, 64
5, 43248, Note_on_c, 1, 40, 100
5, 43296, Note_off_c, 1, 40, 64
5, 43296, Note_on_c, 1, 28, 100
5, 43296, Note_on_c, 1, 40, 100
5, 43344, Note_off_c, 1, 40, 64
5, 43344, Note_off_c, 1, 28, 64
5, 43344, Note_on_c, 1, 40, 100
5, 43392, Note_off_c, 1, 40, 64
5, 43392, Note_on_c, 1, 33, 100
5, 43392, Note_on_c, 1, 45, 100
5, 43440, Note_off_c, 1, 45, 64
5, 43440, Note_off_c, 1, 33, 64
5, 43440, Note_on_c, 1, 45, 100
5, 43488, Note_off_c, 1, 45, 64
5, 43488, Note_on_c, 1, 33, 100
5, 43488, Note_on_c, 1, 45, 100
5, 43536, Note_off_c, 1, 33, 64
5, 43536, Note_off_c, 1, 45, 64
5, 43536, Note_on_c, 1, 45, 100
5, 43584, Note_off_c, 1, 45, 64
5, 43584, Note_on_c, 1, 33, 100
5, 43584, Note_on_c, 1, 45, 100
5, 43632, Note_off_c, 1, 45, 64
5, 43632, Note_off_c, 1, 33, 64
5, 43632, Note_on_c, 1, 45, 100
5, 43680, Note_off_c, 1, 45, 64
5, 43680, Note_on_c, 1, 33, 100
5, 43680, Note_on_c, 1, 45, 100
5, 43728, Note_off_c, 1, 45, 64
5, 43728, Note_off_c, 1, 33, 64
5, 43728, Note_on_c, 1, 45, 100
5, 43776, Note_off_c, 1, 45, 64
5, 43776, Note_on_c, 1, 28, 100
5, 43776, Note_on_c, 1, 40, 100
5, 43824, Note_off_c, 1, 40, 64
5, 43824, Note_off_c, 1, 28, 64
5, 43824, Note_on_c, 1, 40, 100
5, 43872, Note_off_c, 1, 40, 64
5, 43872, Note_on_c, 1, 28, 100
5, 43872, Note_on_c, 1, 40, 100
5, 43920, Note_off_c, 1, 40, 64
5, 43920, Note_off_c, 1, 28, 64
5, 43920, Note_on_c, 1, 40, 100
5, 43968, Note_off_c, 1, 40, 64
5, 43968, Note_on_c, 1, 28, 100
5, 43968, Note_on_c, 1, 40, 100
5, 44016, Note_off_c, 1, 40, 64
5, 44016, Note_off_c, 1, 28, 64
5, 44016, Note_on_c, 1, 40, 100
5, 44064, Note_off_c, 1, 40, 64
5, 44064, Note_on_c, 1, 28, 100
5, 44064, Note_on_c, 1, 40, 100
5, 44112, Note_off_c, 1, 40, 64
5, 44112, Note_off_c, 1, 28, 64
5, 44112, Note_on_c, 1, 40, 100
5, 44160, Note_off_c, 1, 40, 64
5, 44160, Note_on_c, 1, 33, 100
5, 44160, Note_on_c, 1, 45, 100
5, 44208, Note_off_c, 1, 45, 64
5, 44208, Note_off_c, 1, 33, 64
5, 44208, Note_on_c, 1, 45, 100
5, 44256, Note_off_c, 1, 45, 64
5, 44256, Note_on_c, 1, 33, 100
5, 44256, Note_on_c, 1, 45, 100
5, 44304, Note_off_c, 1, 45, 64
5, 44304, Note_off_c, 1, 33, 64
5, 44304, Note_on_c, 1, 45, 100
5, 44352, Note_off_c, 1, 45, 64
5, 44352, Note_on_c, 1, 33, 100
5, 44352, Note_on_c, 1, 45, 100
5, 44400, Note_off_c, 1, 45, 64
5, 44400, Note_off_c, 1, 33, 64
5, 44400, Note_on_c, 1, 45, 100
5, 44448, Note_off_c, 1, 45, 64
5, 44448, Note_on_c, 1, 33, 100
5, 44448, Note_on_c, 1, 45, 100
5, 44496, Note_off_c, 1, 45, 64
5, 44496, Note_off_c, 1, 33, 64
5, 44496, Note_on_c, 1, 45, 100
5, 44544, Note_off_c, 1, 45, 64
5, 44544, Note_on_c, 1, 28, 100
5, 44544, Note_on_c, 1, 40, 100
5, 44592, Note_off_c, 1, 40, 64
5, 44592, Note_off_c, 1, 28, 64
5, 44592, Note_on_c, 1, 40, 100
5, 44640, Note_off_c, 1, 40, 64
5, 44640, Note_on_c, 1, 28, 100
5, 44640, Note_on_c, 1, 40, 100
5, 44688, Note_off_c, 1, 40, 64
5, 44688, Note_off_c, 1, 28, 64
5, 44688, Note_on_c, 1, 40, 100
5, 44736, Note_off_c, 1, 40, 64
5, 44736, Note_on_c, 1, 28, 100
5, 44736, Note_on_c, 1, 40, 100
5, 44784, Note_off_c, 1, 40, 64
5, 44784, Note_off_c, 1, 28, 64
5, 44784, Note_on_c, 1, 40, 100
5, 44832, Note_off_c, 1, 40, 64
5, 44832, Note_on_c, 1, 28, 100
5, 44832, Note_on_c, 1, 40, 100
5, 44880, Note_off_c, 1, 40, 64
5, 44880, Note_off_c, 1, 28, 64
5, 44880, Note_on_c, 1, 40, 100
5, 44928, Note_off_c, 1, 40, 64
5, 44928, Note_on_c, 1, 33, 100
5, 44928, Note_on_c, 1, 45, 100
5, 44976, Note_off_c, 1, 45, 64
5, 44976, Note_off_c, 1, 33, 64
5, 44976, Note_on_c, 1, 45, 100
5, 45024, Note_off_c, 1, 45, 64
5, 45024, Note_on_c, 1, 33, 100
5, 45024, Note_on_c, 1, 45, 100
5, 45072, Note_off_c, 1, 45, 64
5, 45072, Note_off_c, 1, 33, 64
5, 45072, Note_on_c, 1, 45, 100
5, 45120, Note_off_c, 1, 45, 64
5, 45120, Note_on_c, 1, 33, 100
5, 45120, Note_on_c, 1, 45, 100
5, 45168, Note_off_c, 1, 45, 64
5, 45168, Note_off_c, 1, 33, 64
5, 45168, Note_on_c, 1, 45, 100
5, 45216, Note_off_c, 1, 45, 64
5, 45216, Note_on_c, 1, 33, 100
5, 45216, Note_on_c, 1, 45, 100
5, 45264, Note_off_c, 1, 45, 64
5, 45264, Note_off_c, 1, 33, 64
5, 45264, Note_on_c, 1, 45, 100
5, 45312, Note_off_c, 1, 45, 64
5, 45312, Note_on_c, 1, 28, 100
5, 45312, Note_on_c, 1, 40, 100
5, 45360, Note_off_c, 1, 40, 64
5, 45360, Note_off_c, 1, 28, 64
5, 45360, Note_on_c, 1, 40, 100
5, 45408, Note_off_c, 1, 40, 64
5, 45408, Note_on_c, 1, 28, 100
5, 45408, Note_on_c, 1, 40, 100
5, 45456, Note_off_c, 1, 40, 64
5, 45456, Note_off_c, 1, 28, 64
5, 45456, Note_on_c, 1, 40, 100
5, 45504, Note_off_c, 1, 40, 64
5, 45504, Note_on_c, 1, 28, 100
5, 45504, Note_on_c, 1, 40, 100
5, 45552, Note_off_c, 1, 40, 64
5, 45552, Note_off_c, 1, 28, 64
5, 45552, Note_on_c, 1, 40, 100
5, 45600, Note_off_c, 1, 40, 64
5, 45600, Note_on_c, 1, 28, 100
5, 45600, Note_on_c, 1, 40, 100
5, 45648, Note_off_c, 1, 40, 64
5, 45648, Note_off_c, 1, 28, 64
5, 45648, Note_on_c, 1, 40, 100
5, 45696, Note_off_c, 1, 40, 64
5, 45696, Note_on_c, 1, 33, 100
5, 45696, Note_on_c, 1, 45, 100
5, 45744, Note_off_c, 1, 45, 64
5, 45744, Note_off_c, 1, 33, 64
5, 45744, Note_on_c, 1, 45, 100
5, 45792, Note_off_c, 1, 45, 64
5, 45792, Note_on_c, 1, 33, 100
5, 45792, Note_on_c, 1, 45, 100
5, 45840, Note_off_c, 1, 45, 64
5, 45840, Note_off_c, 1, 33, 64
5, 45840, Note_on_c, 1, 45, 100
5, 45888, Note_off_c, 1, 45, 64
5, 45888, Note_on_c, 1, 33, 100
5, 45888, Note_on_c, 1, 45, 100
5, 45936, Note_off_c, 1, 45, 64
5, 45936, Note_off_c, 1, 33, 64
5, 45936, Note_on_c, 1, 45, 100
5, 45984, Note_off_c, 1, 45, 64
5, 45984, Note_on_c, 1, 33, 100
5, 45984, Note_on_c, 1, 45, 100
5, 46032, Note_off_c, 1, 45, 64
5, 46032, Note_off_c, 1, 33, 64
5, 46032, Note_on_c, 1, 45, 100
5, 46080, Note_off_c, 1, 45, 64
5, 46080, Note_on_c, 1, 28, 100
5, 46080, Note_on_c, 1, 40, 100
5, 46128, Note_off_c, 1, 40, 64
5, 46128, Note_off_c, 1, 28, 64
5, 46128, Note_on_c, 1, 40, 100
5, 46176, Note_off_c, 1, 40, 64
5, 46176, Note_on_c, 1, 28, 100
5, 46176, Note_on_c, 1, 40, 100
5, 46224, Note_off_c, 1, 40, 64
5, 46224, Note_off_c, 1, 28, 64
5, 46224, Note_on_c, 1, 40, 100
5, 46272, Note_off_c, 1, 40, 64
5, 46272, Note_on_c, 1, 28, 100
5, 46272, Note_on_c, 1, 40, 100
5, 46320, Note_off_c, 1, 40, 64
5, 46320, Note_off_c, 1, 28, 64
5, 46320, Note_on_c, 1, 40, 100
5, 46368, Note_off_c, 1, 40, 64
5, 46368, Note_on_c, 1, 28, 100
5, 46368, Note_on_c, 1, 40, 100
5, 46416, Note_off_c, 1, 40, 64
5, 46416, Note_off_c, 1, 28, 64
5, 46416, Note_on_c, 1, 40, 100
5, 46464, Note_off_c, 1, 40, 64
5, 46464, Note_on_c, 1, 33, 100
5, 46464, Note_on_c, 1, 45, 100
5, 46512, Note_off_c, 1, 45, 64
5, 46512, Note_off_c, 1, 33, 64
5, 46512, Note_on_c, 1, 45, 100
5, 46560, Note_off_c, 1, 45, 64
5, 46560, Note_on_c, 1, 33, 100
5, 46560, Note_on_c, 1, 45, 100
5, 46608, Note_off_c, 1, 45, 64
5, 46608, Note_off_c, 1, 33, 64
5, 46608, Note_on_c, 1, 45, 100
5, 46656, Note_off_c, 1, 45, 64
5, 46656, Note_on_c, 1, 33, 100
5, 46656, Note_on_c, 1, 45, 100
5, 46704, Note_off_c, 1, 45, 64
5, 46704, Note_off_c, 1, 33, 64
5, 46704, Note_on_c, 1, 45, 100
5, 46752, Note_off_c, 1, 45, 64
5, 46752, Note_on_c, 1, 33, 100
5, 46752, Note_on_c, 1, 45, 100
5, 46800, Note_off_c, 1, 45, 64
5, 46800, Note_off_c, 1, 33, 64
5, 46800, Note_on_c, 1, 45, 100
5, 46848, Note_off_c, 1, 45, 64
5, 50592, Control_c, 1, 101, 0
5, 50592, Control_c, 1, 100, 0
5, 50592, Control_c, 1, 6, 12
5, 50592, Control_c, 1, 10, 64
5, 50592, Control_c, 1, 7, 100
5, 50592, Pitch_bend_c, 1, 8192
5, 50592, Program_c, 1, 29
5, 50593, Control_c, 1, 101, 0
5, 50593, Control_c, 1, 100, 0
5, 50593, Control_c, 1, 6, 12
5, 50593, Control_c, 1, 10, 64
5, 50593, Control_c, 1, 7, 100
5, 50593, Pitch_bend_c, 1, 8192
5, 50593, Program_c, 1, 29
5, 50593, Control_c, 1, 101, 0
5, 50593, Control_c, 1, 100, 0
5, 50593, Control_c, 1, 6, 12
5, 50593, Control_c, 1, 10, 64
5, 50593, Control_c, 1, 7, 100
5, 50593, Pitch_bend_c, 1, 8192
5, 50593, Program_c, 1, 29
5, 50593, End_track
6, 0, Start_track
6, 0, Title_t, "MIDI out #3"
6, 0, Control_c, 2, 10, 64
6, 0, Control_c, 2, 7, 100
6, 0, Pitch_bend_c, 2, 8192
6, 0, Control_c, 2, 101, 0
6, 0, Control_c, 2, 100, 0
6, 0, Control_c, 2, 6, 12
6, 0, Control_c, 2, 10, 64
6, 0, Control_c, 2, 7, 100
6, 0, Pitch_bend_c, 2, 8192
6, 0, Program_c, 2, 30
6, 0, Control_c, 2, 101, 0
6, 0, Control_c, 2, 100, 0
6, 0, Control_c, 2, 6, 12
6, 0, Control_c, 2, 10, 64
6, 0, Control_c, 2, 7, 100
6, 0, Pitch_bend_c, 2, 8192
6, 0, Program_c, 2, 30
6, 0, Control_c, 2, 101, 0
6, 0, Control_c, 2, 100, 0
6, 0, Control_c, 2, 6, 12
6, 0, Control_c, 2, 10, 64
6, 0, Control_c, 2, 7, 100
6, 0, Pitch_bend_c, 2, 8192
6, 0, Program_c, 2, 30
6, 2688, Note_on_c, 2, 59, 100
6, 2688, Note_on_c, 2, 63, 100
6, 2736, Note_off_c, 2, 59, 64
6, 2736, Note_off_c, 2, 63, 64
6, 2784, Note_on_c, 2, 59, 100
6, 2784, Note_on_c, 2, 63, 100
6, 2832, Note_off_c, 2, 59, 64
6, 2832, Note_off_c, 2, 63, 64
6, 2928, Note_on_c, 2, 59, 100
6, 2976, Note_off_c, 2, 59, 64
6, 2976, Note_on_c, 2, 61, 100
6, 3024, Note_off_c, 2, 61, 64
6, 3072, Note_on_c, 2, 59, 100
6, 3072, Note_on_c, 2, 63, 100
6, 3120, Note_off_c, 2, 63, 64
6, 3120, Note_off_c, 2, 59, 64
6, 3168, Note_on_c, 2, 56, 100
6, 3168, Note_on_c, 2, 59, 100
6, 3216, Note_off_c, 2, 56, 64
6, 3216, Note_off_c, 2, 59, 64
6, 3312, Note_on_c, 2, 59, 100
6, 3360, Note_off_c, 2, 59, 64
6, 3360, Note_on_c, 2, 61, 100
6, 3408, Note_off_c, 2, 61, 64
6, 3456, Note_on_c, 2, 63, 100
6, 3456, Note_on_c, 2, 59, 100
6, 3504, Note_off_c, 2, 59, 64
6, 3504, Note_off_c, 2, 63, 64
6, 3552, Note_on_c, 2, 59, 100
6, 3552, Note_on_c, 2, 63, 100
6, 3600, Note_off_c, 2, 59, 64
6, 3600, Note_off_c, 2, 63, 64
6, 3696, Note_on_c, 2, 59, 100
6, 3744, Note_off_c, 2, 59, 64
6, 3744, Note_on_c, 2, 61, 100
6, 3792, Note_off_c, 2, 61, 64
6, 3840, Note_on_c, 2, 59, 100
6, 3840, Note_on_c, 2, 63, 100
6, 3888, Note_off_c, 2, 63, 64
6, 3888, Note_off_c, 2, 59, 64
6, 3936, Note_on_c, 2, 56, 100
6, 3936, Note_on_c, 2, 59, 100
6, 3984, Note_off_c, 2, 56, 64
6, 3984, Note_off_c, 2, 59, 64
6, 4080, Note_on_c, 2, 59, 100
6, 4128, Note_off_c, 2, 59, 64
6, 4128, Note_on_c, 2, 61, 100
6, 4176, Note_off_c, 2, 61, 64
6, 4224, Note_on_c, 2, 59, 100
6, 4224, Note_on_c, 2, 63, 100
6, 4272, Note_off_c, 2, 63, 64
6, 4272, Note_off_c, 2, 59, 64
6, 4320, Note_on_c, 2, 63, 100
6, 4320, Note_on_c, 2, 59, 100
6, 4368, Note_off_c, 2, 63, 64
6, 4368, Note_off_c, 2, 59, 64
6, 4464, Note_on_c, 2, 59, 100
6, 4512, Note_off_c, 2, 59, 64
6, 4512, Note_on_c, 2, 61, 100
6, 4560, Note_off_c, 2, 61, 64
6, 4608, Note_on_c, 2, 63, 100
6, 4608, Note_on_c, 2, 59, 100
6, 4656, Note_off_c, 2, 59, 64
6, 4656, Note_off_c, 2, 63, 64
6, 4704, Note_on_c, 2, 56, 100
6, 4704, Note_on_c, 2, 59, 100
6, 4752, Note_off_c, 2, 56, 64
6, 4752, Note_off_c, 2, 59, 64
6, 4848, Note_on_c, 2, 59, 100
6, 4896, Note_off_c, 2, 59, 64
6, 4896, Note_on_c, 2, 61, 100
6, 4944, Note_off_c, 2, 61, 64
6, 4992, Note_on_c, 2, 59, 100
6, 4992, Note_on_c, 2, 63, 100
6, 5040, Note_off_c, 2, 63, 64
6, 5040, Note_off_c, 2, 59, 64
6, 5088, Note_on_c, 2, 63, 100
6, 5088, Note_on_c, 2, 59, 100
6, 5136, Note_off_c, 2, 63, 64
6, 5136, Note_off_c, 2, 59, 64
6, 5232, Note_on_c, 2, 59, 100
6, 5280, Note_off_c, 2, 59, 64
6, 5280, Note_on_c, 2, 61, 100
6, 5328, Note_off_c, 2, 61, 64
6, 5376, Note_on_c, 2, 63, 100
6, 5376, Note_on_c, 2, 59, 100
6, 5424, Note_off_c, 2, 59, 64
6, 5424, Note_off_c, 2, 63, 64
6, 5472, Note_on_c, 2, 56, 100
6, 5472, Note_on_c, 2, 59, 100
6, 5520, Note_off_c, 2, 56, 64
6, 5520, Note_off_c, 2, 59, 64
6, 5568, Note_on_c, 2, 61, 100
6, 5616, Note_off_c, 2, 61, 64
6, 5664, Note_on_c, 2, 61, 100
6, 5712, Note_off_c, 2, 61, 64
6, 5760, Note_on_c, 2, 59, 100
6, 5760, Note_on_c, 2, 63, 100
6, 5808, Note_off_c, 2, 59, 64
6, 5808, Note_off_c, 2, 63, 64
6, 5856, Note_on_c, 2, 59, 100
6, 5856, Note_on_c, 2, 63, 100
6, 5904, Note_off_c, 2, 59, 64
6, 5904, Note_off_c, 2, 63, 64
6, 6000, Note_on_c, 2, 59, 100
6, 6048, Note_off_c, 2, 59, 64
6, 6048, Note_on_c, 2, 61, 100
6, 6096, Note_off_c, 2, 61, 64
6, 6144, Note_on_c, 2, 63, 100
6, 6144, Note_on_c, 2, 59, 100
6, 6192, Note_off_c, 2, 63, 64
6, 6192, Note_off_c, 2, 59, 64
6, 6240, Note_on_c, 2, 59, 100
6, 6240, Note_on_c, 2, 56, 100
6, 6288, Note_off_c, 2, 59, 64
6, 6288, Note_off_c, 2, 56, 64
6, 6384, Note_on_c, 2, 59, 100
6, 6432, Note_off_c, 2, 59, 64
6, 6432, Note_on_c, 2, 61, 100
6, 6480, Note_off_c, 2, 61, 64
6, 6528, Note_on_c, 2, 63, 100
6, 6528, Note_on_c, 2, 59, 100
6, 6576, Note_off_c, 2, 63, 64
6, 6576, Note_off_c, 2, 59, 64
6, 6624, Note_on_c, 2, 59, 100
6, 6624, Note_on_c, 2, 63, 100
6, 6672, Note_off_c, 2, 59, 64
6, 6672, Note_off_c, 2, 63, 64
6, 6768, Note_on_c, 2, 59, 100
6, 6816, Note_off_c, 2, 59, 64
6, 6816, Note_on_c, 2, 61, 100
6, 6864, Note_off_c, 2, 61, 64
6, 6912, Note_on_c, 2, 59, 100
6, 6912, Note_on_c, 2, 63, 100
6, 6960, Note_off_c, 2, 59, 64
6, 6960, Note_off_c, 2, 63, 64
6, 7008, Note_on_c, 2, 56, 100
6, 7008, Note_on_c, 2, 59, 100
6, 7056, Note_off_c, 2, 56, 64
6, 7056, Note_off_c, 2, 59, 64
6, 7152, Note_on_c, 2, 59, 100
6, 7200, Note_off_c, 2, 59, 64
6, 7200, Note_on_c, 2, 61, 100
6, 7248, Note_off_c, 2, 61, 64
6, 7296, Note_on_c, 2, 63, 100
6, 7296, Note_on_c, 2, 59, 100
6, 7344, Note_off_c, 2, 63, 64
6, 7344, Note_off_c, 2, 59, 64
6, 7392, Note_on_c, 2, 59, 100
6, 7392, Note_on_c, 2, 63, 100
6, 7440, Note_off_c, 2, 59, 64
6, 7440, Note_off_c, 2, 63, 64
6, 7536, Note_on_c, 2, 59, 100
6, 7584, Note_off_c, 2, 59, 64
6, 7584, Note_on_c, 2, 61, 100
6, 7632, Note_off_c, 2, 61, 64
6, 7680, Note_on_c, 2, 59, 100
6, 7680, Note_on_c, 2, 63, 100
6, 7728, Note_off_c, 2, 59, 64
6, 7728, Note_off_c, 2, 63, 64
6, 7776, Note_on_c, 2, 56, 100
6, 7776, Note_on_c, 2, 59, 100
6, 7824, Note_off_c, 2, 56, 64
6, 7824, Note_off_c, 2, 59, 64
6, 7920, Note_on_c, 2, 59, 100
6, 7968, Note_off_c, 2, 59, 64
6, 7968, Note_on_c, 2, 61, 100
6, 8016, Note_off_c, 2, 61, 64
6, 8064, Note_on_c, 2, 59, 100
6, 8064, Note_on_c, 2, 63, 100
6, 8112, Note_off_c, 2, 59, 64
6, 8112, Note_off_c, 2, 63, 64
6, 8160, Note_on_c, 2, 63, 100
6, 8160, Note_on_c, 2, 59, 100
6, 8208, Note_off_c, 2, 63, 64
6, 8208, Note_off_c, 2, 59, 64
6, 8304, Note_on_c, 2, 59, 100
6, 8352, Note_off_c, 2, 59, 64
6, 8352, Note_on_c, 2, 61, 100
6, 8400, Note_off_c, 2, 61, 64
6, 8448, Note_on_c, 2, 63, 100
6, 8448, Note_on_c, 2, 59, 100
6, 8496, Note_off_c, 2, 63, 64
6, 8496, Note_off_c, 2, 59, 64
6, 8544, Note_on_c, 2, 59, 100
6, 8544, Note_on_c, 2, 56, 100
6, 8592, Note_off_c, 2, 59, 64
6, 8592, Note_off_c, 2, 56, 64
6, 8640, Note_on_c, 2, 61, 100
6, 8688, Note_off_c, 2, 61, 64
6, 8736, Note_on_c, 2, 61, 100
6, 8784, Note_off_c, 2, 61, 64
6, 8832, Note_on_c, 2, 63, 100
6, 8832, Note_on_c, 2, 59, 100
6, 8880, Note_off_c, 2, 63, 64
6, 8880, Note_off_c, 2, 59, 64
6, 8928, Note_on_c, 2, 59, 100
6, 8928, Note_on_c, 2, 63, 100
6, 8976, Note_off_c, 2, 59, 64
6, 8976, Note_off_c, 2, 63, 64
6, 9072, Note_on_c, 2, 59, 100
6, 9120, Note_off_c, 2, 59, 64
6, 9120, Note_on_c, 2, 61, 100
6, 9168, Note_off_c, 2, 61, 64
6, 9216, Note_on_c, 2, 59, 100
6, 9216, Note_on_c, 2, 63, 100
6, 9264, Note_off_c, 2, 59, 64
6, 9264, Note_off_c, 2, 63, 64
6, 9312, Note_on_c, 2, 59, 100
6, 9312, Note_on_c, 2, 56, 100
6, 9360, Note_off_c, 2, 59, 64
6, 9360, Note_off_c, 2, 56, 64
6, 9456, Note_on_c, 2, 59, 100
6, 9504, Note_off_c, 2, 59, 64
6, 9504, Note_on_c, 2, 61, 100
6, 9552, Note_off_c, 2, 61, 64
6, 9600, Note_on_c, 2, 63, 100
6, 9600, Note_on_c, 2, 59, 100
6, 9648, Note_off_c, 2, 63, 64
6, 9648, Note_off_c, 2, 59, 64
6, 9696, Note_on_c, 2, 63, 100
6, 9696, Note_on_c, 2, 59, 100
6, 9744, Note_off_c, 2, 63, 64
6, 9744, Note_off_c, 2, 59, 64
6, 9840, Note_on_c, 2, 59, 100
6, 9888, Note_off_c, 2, 59, 64
6, 9888, Note_on_c, 2, 61, 100
6, 9936, Note_off_c, 2, 61, 64
6, 9984, Note_on_c, 2, 59, 100
6, 9984, Note_on_c, 2, 63, 100
6, 10032, Note_off_c, 2, 59, 64
6, 10032, Note_off_c, 2, 63, 64
6, 10080, Note_on_c, 2, 56, 100
6, 10080, Note_on_c, 2, 59, 100
6, 10128, Note_off_c, 2, 56, 64
6, 10128, Note_off_c, 2, 59, 64
6, 10224, Note_on_c, 2, 59, 100
6, 10272, Note_off_c, 2, 59, 64
6, 10272, Note_on_c, 2, 61, 100
6, 10320, Note_off_c, 2, 61, 64
6, 10368, Note_on_c, 2, 59, 100
6, 10368, Note_on_c, 2, 63, 100
6, 10416, Note_off_c, 2, 59, 64
6, 10416, Note_off_c, 2, 63, 64
6, 10464, Note_on_c, 2, 59, 100
6, 10464, Note_on_c, 2, 63, 100
6, 10512, Note_off_c, 2, 59, 64
6, 10512, Note_off_c, 2, 63, 64
6, 10608, Note_on_c, 2, 59, 100
6, 10656, Note_off_c, 2, 59, 64
6, 10656, Note_on_c, 2, 61, 100
6, 10704, Note_off_c, 2, 61, 64
6, 10752, Note_on_c, 2, 63, 100
6, 10752, Note_on_c, 2, 59, 100
6, 10800, Note_off_c, 2, 63, 64
6, 10800, Note_off_c, 2, 59, 64
6, 10848, Note_on_c, 2, 56, 100
6, 10848, Note_on_c, 2, 59, 100
6, 10896, Note_off_c, 2, 56, 64
6, 10896, Note_off_c, 2, 59, 64
6, 10992, Note_on_c, 2, 59, 100
6, 11040, Note_off_c, 2, 59, 64
6, 11040, Note_on_c, 2, 61, 100
6, 11088, Note_off_c, 2, 61, 64
6, 11136, Note_on_c, 2, 63, 100
6, 11136, Note_on_c, 2, 59, 100
6, 11184, Note_off_c, 2, 63, 64
6, 11184, Note_off_c, 2, 59, 64
6, 11232, Note_on_c, 2, 59, 100
6, 11232, Note_on_c, 2, 63, 100
6, 11280, Note_off_c, 2, 59, 64
6, 11280, Note_off_c, 2, 63, 64
6, 11376, Note_on_c, 2, 59, 100
6, 11424, Note_off_c, 2, 59, 64
6, 11424, Note_on_c, 2, 61, 100
6, 11472, Note_off_c, 2, 61, 64
6, 11520, Note_on_c, 2, 59, 100
6, 11520, Note_on_c, 2, 63, 100
6, 11568, Note_off_c, 2, 59, 64
6, 11568, Note_off_c, 2, 63, 64
6, 11616, Note_on_c, 2, 59, 100
6, 11616, Note_on_c, 2, 56, 100
6, 11664, Note_off_c, 2, 59, 64
6, 11664, Note_off_c, 2, 56, 64
6, 11712, Note_on_c, 2, 61, 100
6, 11760, Note_off_c, 2, 61, 64
6, 11808, Note_on_c, 2, 61, 100
6, 11856, Note_off_c, 2, 61, 64
6, 12000, Note_on_c, 2, 63, 100
6, 12048, Note_on_c, 2, 59, 100
6, 12096, Note_off_c, 2, 63, 64
6, 12144, Note_off_c, 2, 59, 64
6, 12192, Note_on_c, 2, 63, 100
6, 12240, Note_on_c, 2, 59, 100
6, 12288, Note_off_c, 2, 63, 64
6, 12336, Note_off_c, 2, 59, 64
6, 12384, Note_on_c, 2, 63, 100
6, 12432, Note_on_c, 2, 59, 100
6, 12480, Note_off_c, 2, 63, 64
6, 12528, Note_off_c, 2, 59, 64
6, 12576, Note_on_c, 2, 63, 100
6, 12624, Note_on_c, 2, 59, 100
6, 12672, Note_off_c, 2, 63, 64
6, 12720, Note_off_c, 2, 59, 64
6, 12768, Note_on_c, 2, 63, 100
6, 12816, Note_on_c, 2, 59, 100
6, 12864, Note_off_c, 2, 63, 64
6, 12912, Note_off_c, 2, 59, 64
6, 12960, Note_on_c, 2, 63, 100
6, 13008, Note_on_c, 2, 59, 100
6, 13056, Note_off_c, 2, 63, 64
6, 13104, Note_off_c, 2, 59, 64
6, 13152, Note_on_c, 2, 68, 100
6, 13200, Note_on_c, 2, 64, 100
6, 13248, Note_off_c, 2, 68, 64
6, 13296, Note_off_c, 2, 64, 64
6, 13344, Note_on_c, 2, 68, 100
6, 13392, Note_on_c, 2, 64, 100
6, 13440, Note_off_c, 2, 68, 64
6, 13488, Note_off_c, 2, 64, 64
6, 13536, Note_on_c, 2, 63, 100
6, 13584, Note_on_c, 2, 59, 100
6, 13632, Note_off_c, 2, 63, 64
6, 13680, Note_off_c, 2, 59, 64
6, 13728, Note_on_c, 2, 63, 100
6, 13776, Note_on_c, 2, 59, 100
6, 13824, Note_off_c, 2, 63, 64
6, 13872, Note_off_c, 2, 59, 64
6, 13920, Note_on_c, 2, 63, 100
6, 13968, Note_on_c, 2, 59, 100
6, 14016, Note_off_c, 2, 63, 64
6, 14064, Note_off_c, 2, 59, 64
6, 14112, Note_on_c, 2, 63, 100
6, 14160, Note_on_c, 2, 59, 100
6, 14208, Note_off_c, 2, 63, 64
6, 14256, Note_off_c, 2, 59, 64
6, 14304, Note_on_c, 2, 63, 100
6, 14352, Note_on_c, 2, 59, 100
6, 14400, Note_off_c, 2, 63, 64
6, 14448, Note_off_c, 2, 59, 64
6, 14496, Note_on_c, 2, 63, 100
6, 14544, Note_on_c, 2, 59, 100
6, 14592, Note_off_c, 2, 63, 64
6, 14592, Note_on_c, 2, 59, 100
6, 14592, Note_on_c, 2, 63, 100
6, 14640, Note_off_c, 2, 63, 64
6, 14640, Note_off_c, 2, 59, 64
6, 14640, Note_off_c, 2, 59, 64
6, 14688, Note_on_c, 2, 59, 100
6, 14688, Note_on_c, 2, 63, 100
6, 14736, Note_off_c, 2, 59, 64
6, 14736, Note_off_c, 2, 63, 64
6, 14832, Note_on_c, 2, 59, 100
6, 14880, Note_off_c, 2, 59, 64
6, 14880, Note_on_c, 2, 61, 100
6, 14928, Note_off_c, 2, 61, 64
6, 14976, Note_on_c, 2, 63, 100
6, 14976, Note_on_c, 2, 59, 100
6, 15024, Note_off_c, 2, 59, 64
6, 15024, Note_off_c, 2, 63, 64
6, 15072, Note_on_c, 2, 59, 100
6, 15072, Note_on_c, 2, 56, 100
6, 15120, Note_off_c, 2, 59, 64
6, 15120, Note_off_c, 2, 56, 64
6, 15216, Note_on_c, 2, 59, 100
6, 15264, Note_off_c, 2, 59, 64
6, 15264, Note_on_c, 2, 61, 100
6, 15312, Note_off_c, 2, 61, 64
6, 15360, Note_on_c, 2, 63, 100
6, 15360, Note_on_c, 2, 59, 100
6, 15408, Note_off_c, 2, 59, 64
6, 15408, Note_off_c, 2, 63, 64
6, 15456, Note_on_c, 2, 59, 100
6, 15456, Note_on_c, 2, 63, 100
6, 15504, Note_off_c, 2, 59, 64
6, 15504, Note_off_c, 2, 63, 64
6, 15600, Note_on_c, 2, 59, 100
6, 15648, Note_off_c, 2, 59, 64
6, 15648, Note_on_c, 2, 61, 100
6, 15696, Note_off_c, 2, 61, 64
6, 15744, Note_on_c, 2, 59, 100
6, 15744, Note_on_c, 2, 63, 100
6, 15792, Note_off_c, 2, 63, 64
6, 15792, Note_off_c, 2, 59, 64
6, 15840, Note_on_c, 2, 56, 100
6, 15840, Note_on_c, 2, 59, 100
6, 15888, Note_off_c, 2, 59, 64
6, 15888, Note_off_c, 2, 56, 64
6, 15984, Note_on_c, 2, 59, 100
6, 16032, Note_off_c, 2, 59, 64
6, 16032, Note_on_c, 2, 61, 100
6, 16080, Note_off_c, 2, 61, 64
6, 16128, Note_on_c, 2, 63, 100
6, 16128, Note_on_c, 2, 59, 100
6, 16176, Note_off_c, 2, 59, 64
6, 16176, Note_off_c, 2, 63, 64
6, 16224, Note_on_c, 2, 59, 100
6, 16224, Note_on_c, 2, 63, 100
6, 16272, Note_off_c, 2, 59, 64
6, 16272, Note_off_c, 2, 63, 64
6, 16368, Note_on_c, 2, 59, 100
6, 16416, Note_off_c, 2, 59, 64
6, 16416, Note_on_c, 2, 61, 100
6, 16464, Note_off_c, 2, 61, 64
6, 16512, Note_on_c, 2, 59, 100
6, 16512, Note_on_c, 2, 63, 100
6, 16560, Note_off_c, 2, 63, 64
6, 16560, Note_off_c, 2, 59, 64
6, 16608, Note_on_c, 2, 56, 100
6, 16608, Note_on_c, 2, 59, 100
6, 16656, Note_off_c, 2, 59, 64
6, 16656, Note_off_c, 2, 56, 64
6, 16752, Note_on_c, 2, 59, 100
6, 16800, Note_off_c, 2, 59, 64
6, 16800, Note_on_c, 2, 61, 100
6, 16848, Note_off_c, 2, 61, 64
6, 16896, Note_on_c, 2, 59, 100
6, 16896, Note_on_c, 2, 63, 100
6, 16944, Note_off_c, 2, 63, 64
6, 16944, Note_off_c, 2, 59, 64
6, 16992, Note_on_c, 2, 63, 100
6, 16992, Note_on_c, 2, 59, 100
6, 17040, Note_off_c, 2, 63, 64
6, 17040, Note_off_c, 2, 59, 64
6, 17136, Note_on_c, 2, 59, 100
6, 17184, Note_off_c, 2, 59, 64
6, 17184, Note_on_c, 2, 61, 100
6, 17232, Note_off_c, 2, 61, 64
6, 17280, Note_on_c, 2, 63, 100
6, 17280, Note_on_c, 2, 59, 100
6, 17328, Note_off_c, 2, 59, 64
6, 17328, Note_off_c, 2, 63, 64
6, 17376, Note_on_c, 2, 59, 100
6, 17376, Note_on_c, 2, 56, 100
6, 17424, Note_off_c, 2, 56, 64
6, 17424, Note_off_c, 2, 59, 64
6, 17472, Note_on_c, 2, 61, 100
6, 17520, Note_off_c, 2, 61, 64
6, 17568, Note_on_c, 2, 61, 100
6, 17616, Note_off_c, 2, 61, 64
6, 17664, Note_on_c, 2, 63, 100
6, 17664, Note_on_c, 2, 59, 100
6, 17712, Note_off_c, 2, 59, 64
6, 17712, Note_off_c, 2, 63, 64
6, 17760, Note_on_c, 2, 59, 100
6, 17760, Note_on_c, 2, 63, 100
6, 17808, Note_off_c, 2, 59, 64
6, 17808, Note_off_c, 2, 63, 64
6, 17904, Note_on_c, 2, 59, 100
6, 17952, Note_off_c, 2, 59, 64
6, 17952, Note_on_c, 2, 61, 100
6, 18000, Note_off_c, 2, 61, 64
6, 18048, Note_on_c, 2, 59, 100
6, 18048, Note_on_c, 2, 63, 100
6, 18096, Note_off_c, 2, 63, 64
6, 18096, Note_off_c, 2, 59, 64
6, 18144, Note_on_c, 2, 59, 100
6, 18144, Note_on_c, 2, 56, 100
6, 18192, Note_off_c, 2, 59, 64
6, 18192, Note_off_c, 2, 56, 64
6, 18288, Note_on_c, 2, 59, 100
6, 18336, Note_off_c, 2, 59, 64
6, 18336, Note_on_c, 2, 61, 100
6, 18384, Note_off_c, 2, 61, 64
6, 18432, Note_on_c, 2, 63, 100
6, 18432, Note_on_c, 2, 59, 100
6, 18480, Note_off_c, 2, 59, 64
6, 18480, Note_off_c, 2, 63, 64
6, 18528, Note_on_c, 2, 63, 100
6, 18528, Note_on_c, 2, 59, 100
6, 18576, Note_off_c, 2, 63, 64
6, 18576, Note_off_c, 2, 59, 64
6, 18672, Note_on_c, 2, 59, 100
6, 18720, Note_off_c, 2, 59, 64
6, 18720, Note_on_c, 2, 61, 100
6, 18768, Note_off_c, 2, 61, 64
6, 18816, Note_on_c, 2, 59, 100
6, 18816, Note_on_c, 2, 63, 100
6, 18864, Note_off_c, 2, 63, 64
6, 18864, Note_off_c, 2, 59, 64
6, 18912, Note_on_c, 2, 56, 100
6, 18912, Note_on_c, 2, 59, 100
6, 18960, Note_off_c, 2, 56, 64
6, 18960, Note_off_c, 2, 59, 64
6, 19056, Note_on_c, 2, 59, 100
6, 19104, Note_off_c, 2, 59, 64
6, 19104, Note_on_c, 2, 61, 100
6, 19152, Note_off_c, 2, 61, 64
6, 19200, Note_on_c, 2, 59, 100
6, 19200, Note_on_c, 2, 63, 100
6, 19248, Note_off_c, 2, 63, 64
6, 19248, Note_off_c, 2, 59, 64
6, 19296, Note_on_c, 2, 59, 100
6, 19296, Note_on_c, 2, 63, 100
6, 19344, Note_off_c, 2, 59, 64
6, 19344, Note_off_c, 2, 63, 64
6, 19440, Note_on_c, 2, 59, 100
6, 19488, Note_off_c, 2, 59, 64
6, 19488, Note_on_c, 2, 61, 100
6, 19536, Note_off_c, 2, 61, 64
6, 19584, Note_on_c, 2, 63, 100
6, 19584, Note_on_c, 2, 59, 100
6, 19632, Note_off_c, 2, 59, 64
6, 19632, Note_off_c, 2, 63, 64
6, 19680, Note_on_c, 2, 56, 100
6, 19680, Note_on_c, 2, 59, 100
6, 19728, Note_off_c, 2, 56, 64
6, 19728, Note_off_c, 2, 59, 64
6, 19824, Note_on_c, 2, 59, 100
6, 19872, Note_off_c, 2, 59, 64
6, 19872, Note_on_c, 2, 61, 100
6, 19920, Note_off_c, 2, 61, 64
6, 19968, Note_on_c, 2, 63, 100
6, 19968, Note_on_c, 2, 59, 100
6, 20016, Note_off_c, 2, 59, 64
6, 20016, Note_off_c, 2, 63, 64
6, 20064, Note_on_c, 2, 59, 100
6, 20064, Note_on_c, 2, 63, 100
6, 20112, Note_off_c, 2, 59, 64
6, 20112, Note_off_c, 2, 63, 64
6, 20208, Note_on_c, 2, 59, 100
6, 20256, Note_off_c, 2, 59, 64
6, 20256, Note_on_c, 2, 61, 100
6, 20304, Note_off_c, 2, 61, 64
6, 20352, Note_on_c, 2, 59, 100
6, 20352, Note_on_c, 2, 63, 100
6, 20400, Note_off_c, 2, 63, 64
6, 20400, Note_off_c, 2, 59, 64
6, 20448, Note_on_c, 2, 59, 100
6, 20448, Note_on_c, 2, 56, 100
6, 20496, Note_off_c, 2, 59, 64
6, 20496, Note_off_c, 2, 56, 64
6, 20544, Note_on_c, 2, 61, 100
6, 20592, Note_off_c, 2, 61, 64
6, 20640, Note_on_c, 2, 61, 100
6, 20688, Note_off_c, 2, 61, 64
6, 20832, Note_on_c, 2, 63, 100
6, 20880, Note_on_c, 2, 59, 100
6, 20928, Note_off_c, 2, 63, 64
6, 20976, Note_off_c, 2, 59, 64
6, 21024, Note_on_c, 2, 63, 100
6, 21072, Note_on_c, 2, 59, 100
6, 21120, Note_off_c, 2, 63, 64
6, 21168, Note_off_c, 2, 59, 64
6, 21216, Note_on_c, 2, 63, 100
6, 21264, Note_on_c, 2, 59, 100
6, 21312, Note_off_c, 2, 63, 64
6, 21360, Note_off_c, 2, 59, 64
6, 21408, Note_on_c, 2, 63, 100
6, 21456, Note_on_c, 2, 59, 100
6, 21504, Note_off_c, 2, 63, 64
6, 21552, Note_off_c, 2, 59, 64
6, 21600, Note_on_c, 2, 63, 100
6, 21648, Note_on_c, 2, 59, 100
6, 21696, Note_off_c, 2, 63, 64
6, 21744, Note_off_c, 2, 59, 64
6, 21792, Note_on_c, 2, 63, 100
6, 21840, Note_on_c, 2, 59, 100
6, 21888, Note_off_c, 2, 63, 64
6, 21936, Note_off_c, 2, 59, 64
6, 21984, Note_on_c, 2, 68, 100
6, 22032, Note_on_c, 2, 64, 100
6, 22080, Note_off_c, 2, 68, 64
6, 22128, Note_off_c, 2, 64, 64
6, 22176, Note_on_c, 2, 68, 100
6, 22224, Note_on_c, 2, 64, 100
6, 22272, Note_off_c, 2, 68, 64
6, 22320, Note_off_c, 2, 64, 64
6, 22368, Note_on_c, 2, 63, 100
6, 22416, Note_on_c, 2, 59, 100
6, 22464, Note_off_c, 2, 63, 64
6, 22512, Note_off_c, 2, 59, 64
6, 22560, Note_on_c, 2, 63, 100
6, 22608, Note_on_c, 2, 59, 100
6, 22656, Note_off_c, 2, 63, 64
6, 22704, Note_off_c, 2, 59, 64
6, 22752, Note_on_c, 2, 63, 100
6, 22800, Note_on_c, 2, 59, 100
6, 22848, Note_off_c, 2, 63, 64
6, 22896, Note_off_c, 2, 59, 64
6, 22944, Note_on_c, 2, 63, 100
6, 22992, Note_on_c, 2, 59, 100
6, 23040, Note_off_c, 2, 63, 64
6, 23088, Note_off_c, 2, 59, 64
6, 23136, Note_on_c, 2, 63, 100
6, 23184, Note_on_c, 2, 59, 100
6, 23232, Note_off_c, 2, 63, 64
6, 23280, Note_off_c, 2, 59, 64
6, 23328, Note_on_c, 2, 63, 100
6, 23376, Note_on_c, 2, 59, 100
6, 23424, Note_off_c, 2, 63, 64
6, 23424, Note_on_c, 2, 59, 100
6, 23424, Note_on_c, 2, 63, 100
6, 23472, Note_off_c, 2, 59, 64
6, 23472, Note_off_c, 2, 63, 64
6, 23472, Note_off_c, 2, 59, 64
6, 23520, Note_on_c, 2, 59, 100
6, 23520, Note_on_c, 2, 63, 100
6, 23568, Note_off_c, 2, 59, 64
6, 23568, Note_off_c, 2, 63, 64
6, 23664, Note_on_c, 2, 59, 100
6, 23712, Note_off_c, 2, 59, 64
6, 23712, Note_on_c, 2, 61, 100
6, 23760, Note_off_c, 2, 61, 64
6, 23808, Note_on_c, 2, 63, 100
6, 23808, Note_on_c, 2, 59, 100
6, 23856, Note_off_c, 2, 63, 64
6, 23856, Note_off_c, 2, 59, 64
6, 23904, Note_on_c, 2, 59, 100
6, 23904, Note_on_c, 2, 56, 100
6, 23952, Note_off_c, 2, 59, 64
6, 23952, Note_off_c, 2, 56, 64
6, 24048, Note_on_c, 2, 59, 100
6, 24096, Note_off_c, 2, 59, 64
6, 24096, Note_on_c, 2, 61, 100
6, 24144, Note_off_c, 2, 61, 64
6, 24192, Note_on_c, 2, 63, 100
6, 24192, Note_on_c, 2, 59, 100
6, 24240, Note_off_c, 2, 59, 64
6, 24240, Note_off_c, 2, 63, 64
6, 24288, Note_on_c, 2, 59, 100
6, 24288, Note_on_c, 2, 63, 100
6, 24336, Note_off_c, 2, 59, 64
6, 24336, Note_off_c, 2, 63, 64
6, 24432, Note_on_c, 2, 59, 100
6, 24480, Note_off_c, 2, 59, 64
6, 24480, Note_on_c, 2, 61, 100
6, 24528, Note_off_c, 2, 61, 64
6, 24576, Note_on_c, 2, 59, 100
6, 24576, Note_on_c, 2, 63, 100
6, 24624, Note_off_c, 2, 59, 64
6, 24624, Note_off_c, 2, 63, 64
6, 24672, Note_on_c, 2, 56, 100
6, 24672, Note_on_c, 2, 59, 100
6, 24720, Note_off_c, 2, 56, 64
6, 24720, Note_off_c, 2, 59, 64
6, 24816, Note_on_c, 2, 59, 100
6, 24864, Note_off_c, 2, 59, 64
6, 24864, Note_on_c, 2, 61, 100
6, 24912, Note_off_c, 2, 61, 64
6, 24960, Note_on_c, 2, 63, 100
6, 24960, Note_on_c, 2, 59, 100
6, 25008, Note_off_c, 2, 59, 64
6, 25008, Note_off_c, 2, 63, 64
6, 25056, Note_on_c, 2, 59, 100
6, 25056, Note_on_c, 2, 63, 100
6, 25104, Note_off_c, 2, 59, 64
6, 25104, Note_off_c, 2, 63, 64
6, 25200, Note_on_c, 2, 59, 100
6, 25248, Note_off_c, 2, 59, 64
6, 25248, Note_on_c, 2, 61, 100
6, 25296, Note_off_c, 2, 61, 64
6, 25344, Note_on_c, 2, 59, 100
6, 25344, Note_on_c, 2, 63, 100
6, 25392, Note_off_c, 2, 59, 64
6, 25392, Note_off_c, 2, 63, 64
6, 25440, Note_on_c, 2, 56, 100
6, 25440, Note_on_c, 2, 59, 100
6, 25488, Note_off_c, 2, 56, 64
6, 25488, Note_off_c, 2, 59, 64
6, 25584, Note_on_c, 2, 59, 100
6, 25632, Note_off_c, 2, 59, 64
6, 25632, Note_on_c, 2, 61, 100
6, 25680, Note_off_c, 2, 61, 64
6, 25728, Note_on_c, 2, 59, 100
6, 25728, Note_on_c, 2, 63, 100
6, 25776, Note_off_c, 2, 63, 64
6, 25776, Note_off_c, 2, 59, 64
6, 25824, Note_on_c, 2, 63, 100
6, 25824, Note_on_c, 2, 59, 100
6, 25872, Note_off_c, 2, 63, 64
6, 25872, Note_off_c, 2, 59, 64
6, 25968, Note_on_c, 2, 59, 100
6, 26016, Note_off_c, 2, 59, 64
6, 26016, Note_on_c, 2, 61, 100
6, 26064, Note_off_c, 2, 61, 64
6, 26112, Note_on_c, 2, 63, 100
6, 26112, Note_on_c, 2, 59, 100
6, 26160, Note_off_c, 2, 63, 64
6, 26160, Note_off_c, 2, 59, 64
6, 26208, Note_on_c, 2, 59, 100
6, 26208, Note_on_c, 2, 56, 100
6, 26256, Note_off_c, 2, 59, 64
6, 26256, Note_off_c, 2, 56, 64
6, 26304, Note_on_c, 2, 61, 100
6, 26352, Note_off_c, 2, 61, 64
6, 26400, Note_on_c, 2, 61, 100
6, 26448, Note_off_c, 2, 61, 64
6, 27552, Note_on_c, 2, 68, 100
6, 27552, Note_on_c, 2, 56, 100
6, 27552, Note_on_c, 2, 51, 100
6, 27552, Note_on_c, 2, 63, 100
6, 27648, Note_off_c, 2, 68, 64
6, 27648, Note_off_c, 2, 56, 64
6, 27648, Note_off_c, 2, 51, 64
6, 27648, Note_off_c, 2, 63, 64
6, 27648, Note_on_c, 2, 64, 100
6, 27648, Note_on_c, 2, 57, 100
6, 27648, Note_on_c, 2, 52, 100
6, 27648, Note_on_c, 2, 69, 100
6, 27792, Note_off_c, 2, 52, 64
6, 27792, Note_off_c, 2, 57, 64
6, 27792, Note_off_c, 2, 64, 64
6, 27792, Note_off_c, 2, 69, 64
6, 27792, Note_on_c, 2, 52, 100
6, 27792, Note_on_c, 2, 57, 100
6, 27792, Note_on_c, 2, 69, 100
6, 27792, Note_on_c, 2, 64, 100
6, 27840, Note_off_c, 2, 64, 64
6, 27840, Note_off_c, 2, 69, 64
6, 27840, Note_off_c, 2, 57, 64
6, 27840, Note_off_c, 2, 52, 64
6, 27840, Note_on_c, 2, 64, 100
6, 27840, Note_on_c, 2, 69, 100
6, 27840, Note_on_c, 2, 52, 100
6, 27840, Note_on_c, 2, 57, 100
6, 27984, Note_off_c, 2, 69, 64
6, 27984, Note_off_c, 2, 64, 64
6, 28032, Note_off_c, 2, 52, 64
6, 28032, Note_off_c, 2, 57, 64
6, 28032, Note_on_c, 2, 68, 100
6, 28032, Note_on_c, 2, 63, 100
6, 28032, Note_on_c, 2, 75, 100
6, 28032, Note_on_c, 2, 51, 100
6, 28032, Note_on_c, 2, 56, 100
6, 28080, Note_off_c, 2, 56, 64
6, 28080, Note_off_c, 2, 51, 64
6, 28080, Note_off_c, 2, 68, 64
6, 28080, Note_off_c, 2, 63, 64
6, 28080, Note_off_c, 2, 75, 64
6, 28080, Note_on_c, 2, 52, 100
6, 28080, Note_on_c, 2, 57, 100
6, 28080, Note_on_c, 2, 69, 100
6, 28080, Note_on_c, 2, 64, 100
6, 28080, Note_on_c, 2, 76, 100
6, 28128, Note_off_c, 2, 52, 64
6, 28128, Note_off_c, 2, 57, 64
6, 28128, Note_off_c, 2, 76, 64
6, 28128, Note_off_c, 2, 64, 64
6, 28128, Note_off_c, 2, 69, 64
6, 28128, Note_on_c, 2, 75, 100
6, 28128, Note_on_c, 2, 63, 100
6, 28128, Note_on_c, 2, 68, 100
6, 28128, Note_on_c, 2, 51, 100
6, 28128, Note_on_c, 2, 56, 100
6, 28320, Note_off_c, 2, 68, 64
6, 28320, Note_off_c, 2, 75, 64
6, 28320, Note_off_c, 2, 63, 64
6, 28368, Note_off_c, 2, 51, 64
6, 28368, Note_off_c, 2, 56, 64
6, 28368, Note_on_c, 2, 51, 100
6, 28368, Note_on_c, 2, 56, 100
6, 28368, Note_on_c, 2, 63, 100
6, 28368, Note_on_c, 2, 68, 100
6, 28416, Note_off_c, 2, 63, 64
6, 28416, Note_off_c, 2, 56, 64
6, 28416, Note_off_c, 2, 68, 64
6, 28416, Note_off_c, 2, 51, 64
6, 28416, Note_on_c, 2, 64, 100
6, 28416, Note_on_c, 2, 69, 100
6, 28416, Note_on_c, 2, 52, 100
6, 28416, Note_on_c, 2, 57, 100
6, 28464, Note_off_c, 2, 57, 64
6, 28464, Note_off_c, 2, 52, 64
6, 28464, Note_off_c, 2, 64, 64
6, 28464, Note_off_c, 2, 69, 64
6, 28464, Note_on_c, 2, 57, 100
6, 28464, Note_on_c, 2, 52, 100
6, 28464, Note_on_c, 2, 64, 100
6, 28464, Note_on_c, 2, 69, 100
6, 28512, Note_off_c, 2, 57, 64
6, 28512, Note_off_c, 2, 52, 64
6, 28512, Note_off_c, 2, 69, 64
6, 28512, Note_off_c, 2, 64, 64
6, 28512, Note_on_c, 2, 63, 100
6, 28512, Note_on_c, 2, 68, 100
6, 28512, Note_on_c, 2, 56, 100
6, 28512, Note_on_c, 2, 51, 100
6, 28560, Note_off_c, 2, 63, 64
6, 28560, Note_off_c, 2, 68, 64
6, 28560, Note_off_c, 2, 56, 64
6, 28560, Note_off_c, 2, 51, 64
6, 28560, Note_on_c, 2, 51, 100
6, 28560, Note_on_c, 2, 56, 100
6, 28560, Note_on_c, 2, 63, 100
6, 28560, Note_on_c, 2, 68, 100
6, 28608, Note_off_c, 2, 68, 64
6, 28608, Note_off_c, 2, 63, 64
6, 28608, Note_off_c, 2, 56, 64
6, 28608, Note_off_c, 2, 51, 64
6, 28608, Note_on_c, 2, 61, 100
6, 28608, Note_on_c, 2, 66, 100
6, 28608, Note_on_c, 2, 49, 100
6, 28608, Note_on_c, 2, 54, 100
6, 28656, Note_off_c, 2, 54, 64
6, 28656, Note_off_c, 2, 49, 64
6, 28656, Note_off_c, 2, 61, 64
6, 28656, Note_off_c, 2, 66, 64
6, 28656, Note_on_c, 2, 49, 100
6, 28656, Note_on_c, 2, 54, 100
6, 28656, Note_on_c, 2, 66, 100
6, 28656, Note_on_c, 2, 61, 100
6, 28704, Note_off_c, 2, 49, 64
6, 28704, Note_off_c, 2, 54, 64
6, 28704, Note_off_c, 2, 61, 64
6, 28704, Note_off_c, 2, 66, 64
6, 28704, Note_on_c, 2, 64, 100
6, 28704, Note_on_c, 2, 59, 100
6, 28704, Note_on_c, 2, 47, 100
6, 28704, Note_on_c, 2, 52, 100
6, 28752, Note_off_c, 2, 52, 64
6, 28752, Note_off_c, 2, 64, 64
6, 28752, Note_off_c, 2, 59, 64
6, 28752, Note_off_c, 2, 47, 64
6, 28752, Note_on_c, 2, 47, 100
6, 28752, Note_on_c, 2, 52, 100
6, 28752, Note_on_c, 2, 59, 100
6, 28752, Note_on_c, 2, 64, 100
6, 28800, Note_off_c, 2, 47, 64
6, 28800, Note_off_c, 2, 52, 64
6, 28800, Note_off_c, 2, 64, 64
6, 28800, Note_off_c, 2, 59, 64
6, 28800, Note_on_c, 2, 59, 100
6, 28800, Note_on_c, 2, 63, 100
6, 28848, Note_off_c, 2, 63, 64
6, 28848, Note_off_c, 2, 59, 64
6, 28896, Note_on_c, 2, 59, 100
6, 28896, Note_on_c, 2, 63, 100
6, 28944, Note_off_c, 2, 63, 64
6, 28944, Note_off_c, 2, 59, 64
6, 29040, Note_on_c, 2, 59, 100
6, 29088, Note_off_c, 2, 59, 64
6, 29088, Note_on_c, 2, 61, 100
6, 29136, Note_off_c, 2, 61, 64
6, 29184, Note_on_c, 2, 63, 100
6, 29184, Note_on_c, 2, 59, 100
6, 29232, Note_off_c, 2, 59, 64
6, 29232, Note_off_c, 2, 63, 64
6, 29280, Note_on_c, 2, 59, 100
6, 29280, Note_on_c, 2, 56, 100
6, 29328, Note_off_c, 2, 56, 64
6, 29328, Note_off_c, 2, 59, 64
6, 29424, Note_on_c, 2, 59, 100
6, 29472, Note_off_c, 2, 59, 64
6, 29472, Note_on_c, 2, 61, 100
6, 29520, Note_off_c, 2, 61, 64
6, 29568, Note_on_c, 2, 63, 100
6, 29568, Note_on_c, 2, 59, 100
6, 29616, Note_off_c, 2, 59, 64
6, 29616, Note_off_c, 2, 63, 64
6, 29664, Note_on_c, 2, 59, 100
6, 29664, Note_on_c, 2, 63, 100
6, 29712, Note_off_c, 2, 63, 64
6, 29712, Note_off_c, 2, 59, 64
6, 29808, Note_on_c, 2, 59, 100
6, 29856, Note_off_c, 2, 59, 64
6, 29856, Note_on_c, 2, 61, 100
6, 29904, Note_off_c, 2, 61, 64
6, 29952, Note_on_c, 2, 59, 100
6, 29952, Note_on_c, 2, 63, 100
6, 30000, Note_off_c, 2, 63, 64
6, 30000, Note_off_c, 2, 59, 64
6, 30048, Note_on_c, 2, 56, 100
6, 30048, Note_on_c, 2, 59, 100
6, 30096, Note_off_c, 2, 59, 64
6, 30096, Note_off_c, 2, 56, 64
6, 30192, Note_on_c, 2, 59, 100
6, 30240, Note_off_c, 2, 59, 64
6, 30240, Note_on_c, 2, 61, 100
6, 30288, Note_off_c, 2, 61, 64
6, 30336, Note_on_c, 2, 63, 100
6, 30336, Note_on_c, 2, 59, 100
6, 30384, Note_off_c, 2, 59, 64
6, 30384, Note_off_c, 2, 63, 64
6, 30432, Note_on_c, 2, 59, 100
6, 30432, Note_on_c, 2, 63, 100
6, 30480, Note_off_c, 2, 63, 64
6, 30480, Note_off_c, 2, 59, 64
6, 30576, Note_on_c, 2, 59, 100
6, 30624, Note_off_c, 2, 59, 64
6, 30624, Note_on_c, 2, 61, 100
6, 30672, Note_off_c, 2, 61, 64
6, 30720, Note_on_c, 2, 59, 100
6, 30720, Note_on_c, 2, 63, 100
6, 30768, Note_off_c, 2, 63, 64
6, 30768, Note_off_c, 2, 59, 64
6, 30816, Note_on_c, 2, 56, 100
6, 30816, Note_on_c, 2, 59, 100
6, 30864, Note_off_c, 2, 59, 64
6, 30864, Note_off_c, 2, 56, 64
6, 30960, Note_on_c, 2, 59, 100
6, 31008, Note_off_c, 2, 59, 64
6, 31008, Note_on_c, 2, 61, 100
6, 31056, Note_off_c, 2, 61, 64
6, 31104, Note_on_c, 2, 59, 100
6, 31104, Note_on_c, 2, 63, 100
6, 31152, Note_off_c, 2, 63, 64
6, 31152, Note_off_c, 2, 59, 64
6, 31200, Note_on_c, 2, 63, 100
6, 31200, Note_on_c, 2, 59, 100
6, 31248, Note_off_c, 2, 59, 64
6, 31248, Note_off_c, 2, 63, 64
6, 31344, Note_on_c, 2, 59, 100
6, 31392, Note_off_c, 2, 59, 64
6, 31392, Note_on_c, 2, 61, 100
6, 31440, Note_off_c, 2, 61, 64
6, 31488, Note_on_c, 2, 63, 100
6, 31488, Note_on_c, 2, 59, 100
6, 31536, Note_off_c, 2, 59, 64
6, 31536, Note_off_c, 2, 63, 64
6, 31584, Note_on_c, 2, 59, 100
6, 31584, Note_on_c, 2, 56, 100
6, 31632, Note_off_c, 2, 59, 64
6, 31632, Note_off_c, 2, 56, 64
6, 31680, Note_on_c, 2, 61, 100
6, 31728, Note_off_c, 2, 61, 64
6, 31776, Note_on_c, 2, 61, 100
6, 31824, Note_off_c, 2, 61, 64
6, 31872, Note_on_c, 2, 59, 100
6, 31872, Note_on_c, 2, 63, 100
6, 31920, Note_off_c, 2, 63, 64
6, 31920, Note_off_c, 2, 59, 64
6, 31968, Note_on_c, 2, 59, 100
6, 31968, Note_on_c, 2, 63, 100
6, 32016, Note_off_c, 2, 59, 64
6, 32016, Note_off_c, 2, 63, 64
6, 32112, Note_on_c, 2, 59, 100
6, 32160, Note_off_c, 2, 59, 64
6, 32160, Note_on_c, 2, 61, 100
6, 32208, Note_off_c, 2, 61, 64
6, 32256, Note_on_c, 2, 63, 100
6, 32256, Note_on_c, 2, 59, 100
6, 32304, Note_off_c, 2, 63, 64
6, 32304, Note_off_c, 2, 59, 64
6, 32352, Note_on_c, 2, 59, 100
6, 32352, Note_on_c, 2, 56, 100
6, 32400, Note_off_c, 2, 59, 64
6, 32400, Note_off_c, 2, 56, 64
6, 32496, Note_on_c, 2, 59, 100
6, 32544, Note_off_c, 2, 59, 64
6, 32544, Note_on_c, 2, 61, 100
6, 32592, Note_off_c, 2, 61, 64
6, 32640, Note_on_c, 2, 63, 100
6, 32640, Note_on_c, 2, 59, 100
6, 32688, Note_off_c, 2, 59, 64
6, 32688, Note_off_c, 2, 63, 64
6, 32736, Note_on_c, 2, 59, 100
6, 32736, Note_on_c, 2, 63, 100
6, 32784, Note_off_c, 2, 59, 64
6, 32784, Note_off_c, 2, 63, 64
6, 32880, Note_on_c, 2, 59, 100
6, 32928, Note_off_c, 2, 59, 64
6, 32928, Note_on_c, 2, 61, 100
6, 32976, Note_off_c, 2, 61, 64
6, 33024, Note_on_c, 2, 59, 100
6, 33024, Note_on_c, 2, 63, 100
6, 33072, Note_off_c, 2, 59, 64
6, 33072, Note_off_c, 2, 63, 64
6, 33120, Note_on_c, 2, 56, 100
6, 33120, Note_on_c, 2, 59, 100
6, 33168, Note_off_c, 2, 56, 64
6, 33168, Note_off_c, 2, 59, 64
6, 33264, Note_on_c, 2, 59, 100
6, 33312, Note_off_c, 2, 59, 64
6, 33312, Note_on_c, 2, 61, 100
6, 33360, Note_off_c, 2, 61, 64
6, 33408, Note_on_c, 2, 63, 100
6, 33408, Note_on_c, 2, 59, 100
6, 33456, Note_off_c, 2, 59, 64
6, 33456, Note_off_c, 2, 63, 64
6, 33504, Note_on_c, 2, 59, 100
6, 33504, Note_on_c, 2, 63, 100
6, 33552, Note_off_c, 2, 59, 64
6, 33552, Note_off_c, 2, 63, 64
6, 33648, Note_on_c, 2, 59, 100
6, 33696, Note_off_c, 2, 59, 64
6, 33696, Note_on_c, 2, 61, 100
6, 33744, Note_off_c, 2, 61, 64
6, 33792, Note_on_c, 2, 59, 100
6, 33792, Note_on_c, 2, 63, 100
6, 33840, Note_off_c, 2, 59, 64
6, 33840, Note_off_c, 2, 63, 64
6, 33888, Note_on_c, 2, 56, 100
6, 33888, Note_on_c, 2, 59, 100
6, 33936, Note_off_c, 2, 56, 64
6, 33936, Note_off_c, 2, 59, 64
6, 34032, Note_on_c, 2, 59, 100
6, 34080, Note_off_c, 2, 59, 64
6, 34080, Note_on_c, 2, 61, 100
6, 34128, Note_off_c, 2, 61, 64
6, 34176, Note_on_c, 2, 59, 100
6, 34176, Note_on_c, 2, 63, 100
6, 34224, Note_off_c, 2, 63, 64
6, 34224, Note_off_c, 2, 59, 64
6, 34272, Note_on_c, 2, 63, 100
6, 34272, Note_on_c, 2, 59, 100
6, 34320, Note_off_c, 2, 63, 64
6, 34320, Note_off_c, 2, 59, 64
6, 34416, Note_on_c, 2, 59, 100
6, 34464, Note_off_c, 2, 59, 64
6, 34464, Note_on_c, 2, 61, 100
6, 34512, Note_off_c, 2, 61, 64
6, 34560, Note_on_c, 2, 63, 100
6, 34560, Note_on_c, 2, 59, 100
6, 34608, Note_off_c, 2, 59, 64
6, 34608, Note_off_c, 2, 63, 64
6, 34656, Note_on_c, 2, 59, 100
6, 34656, Note_on_c, 2, 56, 100
6, 34704, Note_off_c, 2, 59, 64
6, 34704, Note_off_c, 2, 56, 64
6, 34752, Note_on_c, 2, 61, 100
6, 34800, Note_off_c, 2, 61, 64
6, 34848, Note_on_c, 2, 61, 100
6, 34896, Note_off_c, 2, 61, 64
6, 35040, Note_on_c, 2, 63, 100
6, 35088, Note_on_c, 2, 59, 100
6, 35136, Note_off_c, 2, 63, 64
6, 35184, Note_off_c, 2, 59, 64
6, 35232, Note_on_c, 2, 63, 100
6, 35280, Note_on_c, 2, 59, 100
6, 35328, Note_off_c, 2, 63, 64
6, 35376, Note_off_c, 2, 59, 64
6, 35424, Note_on_c, 2, 63, 100
6, 35472, Note_on_c, 2, 59, 100
6, 35520, Note_off_c, 2, 63, 64
6, 35568, Note_off_c, 2, 59, 64
6, 35616, Note_on_c, 2, 63, 100
6, 35664, Note_on_c, 2, 59, 100
6, 35712, Note_off_c, 2, 63, 64
6, 35760, Note_off_c, 2, 59, 64
6, 35808, Note_on_c, 2, 63, 100
6, 35856, Note_on_c, 2, 59, 100
6, 35904, Note_off_c, 2, 63, 64
6, 35952, Note_off_c, 2, 59, 64
6, 36000, Note_on_c, 2, 63, 100
6, 36048, Note_on_c, 2, 59, 100
6, 36096, Note_off_c, 2, 63, 64
6, 36144, Note_off_c, 2, 59, 64
6, 36192, Note_on_c, 2, 68, 100
6, 36240, Note_on_c, 2, 64, 100
6, 36288, Note_off_c, 2, 68, 64
6, 36336, Note_off_c, 2, 64, 64
6, 36384, Note_on_c, 2, 68, 100
6, 36432, Note_on_c, 2, 64, 100
6, 36480, Note_off_c, 2, 68, 64
6, 36528, Note_off_c, 2, 64, 64
6, 36576, Note_on_c, 2, 63, 100
6, 36624, Note_on_c, 2, 59, 100
6, 36672, Note_off_c, 2, 63, 64
6, 36720, Note_off_c, 2, 59, 64
6, 36768, Note_on_c, 2, 63, 100
6, 36816, Note_on_c, 2, 59, 100
6, 36864, Note_off_c, 2, 63, 64
6, 36912, Note_off_c, 2, 59, 64
6, 36960, Note_on_c, 2, 63, 100
6, 37008, Note_on_c, 2, 59, 100
6, 37056, Note_off_c, 2, 63, 64
6, 37104, Note_off_c, 2, 59, 64
6, 37152, Note_on_c, 2, 63, 100
6, 37200, Note_on_c, 2, 59, 100
6, 37248, Note_off_c, 2, 63, 64
6, 37296, Note_off_c, 2, 59, 64
6, 37344, Note_on_c, 2, 63, 100
6, 37392, Note_on_c, 2, 59, 100
6, 37440, Note_off_c, 2, 63, 64
6, 37488, Note_off_c, 2, 59, 64
6, 37536, Note_on_c, 2, 63, 100
6, 37584, Note_on_c, 2, 59, 100
6, 37632, Note_off_c, 2, 63, 64
6, 37632, Note_on_c, 2, 59, 100
6, 37632, Note_on_c, 2, 63, 100
6, 37632, Note_on_c, 2, 75, 100
6, 37632, Note_on_c, 2, 71, 100
6, 37680, Note_off_c, 2, 71, 64
6, 37680, Note_off_c, 2, 75, 64
6, 37680, Note_off_c, 2, 63, 64
6, 37680, Note_off_c, 2, 59, 64
6, 37680, Note_off_c, 2, 59, 64
6, 37728, Note_on_c, 2, 63, 100
6, 37728, Note_on_c, 2, 59, 100
6, 37728, Note_on_c, 2, 71, 100
6, 37728, Note_on_c, 2, 75, 100
6, 37776, Note_off_c, 2, 71, 64
6, 37776, Note_off_c, 2, 59, 64
6, 37824, Note_off_c, 2, 75, 64
6, 37824, Note_off_c, 2, 63, 64
6, 37824, Note_on_c, 2, 61, 100
6, 37872, Note_off_c, 2, 61, 64
6, 37872, Note_on_c, 2, 59, 100
6, 37920, Note_off_c, 2, 59, 64
6, 37920, Note_on_c, 2, 56, 100
6, 37968, Note_off_c, 2, 56, 64
6, 37968, Note_on_c, 2, 54, 100
6, 38016, Note_off_c, 2, 54, 64
6, 38016, Note_on_c, 2, 63, 100
6, 38016, Note_on_c, 2, 59, 100
6, 38016, Note_on_c, 2, 71, 100
6, 38016, Note_on_c, 2, 75, 100
6, 38064, Note_off_c, 2, 75, 64
6, 38064, Note_off_c, 2, 71, 64
6, 38064, Note_off_c, 2, 59, 64
6, 38064, Note_off_c, 2, 63, 64
6, 38112, Note_on_c, 2, 56, 100
6, 38112, Note_on_c, 2, 59, 100
6, 38112, Note_on_c, 2, 71, 100
6, 38112, Note_on_c, 2, 68, 100
6, 38160, Note_off_c, 2, 68, 64
6, 38160, Note_off_c, 2, 56, 64
6, 38208, Note_off_c, 2, 71, 64
6, 38208, Note_off_c, 2, 59, 64
6, 38208, Note_on_c, 2, 61, 100
6, 38256, Note_off_c, 2, 61, 64
6, 38256, Note_on_c, 2, 59, 100
6, 38304, Note_off_c, 2, 59, 64
6, 38304, Note_on_c, 2, 56, 100
6, 38352, Note_off_c, 2, 56, 64
6, 38352, Note_on_c, 2, 54, 100
6, 38400, Note_off_c, 2, 54, 64
6, 38400, Note_on_c, 2, 63, 100
6, 38400, Note_on_c, 2, 59, 100
6, 38400, Note_on_c, 2, 71, 100
6, 38400, Note_on_c, 2, 75, 100
6, 38448, Note_off_c, 2, 75, 64
6, 38448, Note_off_c, 2, 71, 64
6, 38448, Note_off_c, 2, 59, 64
6, 38448, Note_off_c, 2, 63, 64
6, 38496, Note_on_c, 2, 63, 100
6, 38496, Note_on_c, 2, 59, 100
6, 38496, Note_on_c, 2, 71, 100
6, 38496, Note_on_c, 2, 75, 100
6, 38544, Note_off_c, 2, 71, 64
6, 38544, Note_off_c, 2, 59, 64
6, 38592, Note_off_c, 2, 75, 64
6, 38592, Note_off_c, 2, 63, 64
6, 38592, Note_on_c, 2, 61, 100
6, 38640, Note_off_c, 2, 61, 64
6, 38640, Note_on_c, 2, 59, 100
6, 38688, Note_off_c, 2, 59, 64
6, 38688, Note_on_c, 2, 56, 100
6, 38736, Note_off_c, 2, 56, 64
6, 38736, Note_on_c, 2, 54, 100
6, 38784, Note_off_c, 2, 54, 64
6, 38784, Note_on_c, 2, 63, 100
6, 38784, Note_on_c, 2, 59, 100
6, 38784, Note_on_c, 2, 71, 100
6, 38784, Note_on_c, 2, 75, 100
6, 38832, Note_off_c, 2, 75, 64
6, 38832, Note_off_c, 2, 71, 64
6, 38832, Note_off_c, 2, 59, 64
6, 38832, Note_off_c, 2, 63, 64
6, 38880, Note_on_c, 2, 59, 100
6, 38880, Note_on_c, 2, 56, 100
6, 38880, Note_on_c, 2, 68, 100
6, 38880, Note_on_c, 2, 71, 100
6, 38928, Note_off_c, 2, 71, 64
6, 38928, Note_off_c, 2, 68, 64
6, 38928, Note_off_c, 2, 59, 64
6, 38928, Note_off_c, 2, 56, 64
6, 38976, Note_on_c, 2, 68, 100
6, 38976, Note_on_c, 2, 61, 100
6, 38976, Note_on_c, 2, 80, 100
6, 39024, Note_off_c, 2, 61, 64
6, 39024, Note_on_c, 2, 59, 100
6, 39072, Note_off_c, 2, 59, 64
6, 39072, Note_off_c, 2, 80, 64
6, 39072, Note_off_c, 2, 68, 64
6, 39072, Note_on_c, 2, 71, 100
6, 39072, Note_on_c, 2, 56, 100
6, 39072, Note_on_c, 2, 83, 100
6, 39120, Note_off_c, 2, 56, 64
6, 39120, Note_on_c, 2, 54, 100
6, 39168, Note_off_c, 2, 54, 64
6, 39168, Note_off_c, 2, 83, 64
6, 39168, Note_off_c, 2, 71, 64
6, 39168, Note_on_c, 2, 63, 100
6, 39168, Note_on_c, 2, 59, 100
6, 39168, Note_on_c, 2, 71, 100
6, 39168, Note_on_c, 2, 75, 100
6, 39216, Note_off_c, 2, 75, 64
6, 39216, Note_off_c, 2, 71, 64
6, 39216, Note_off_c, 2, 59, 64
6, 39216, Note_off_c, 2, 63, 64
6, 39264, Note_on_c, 2, 63, 100
6, 39264, Note_on_c, 2, 59, 100
6, 39264, Note_on_c, 2, 71, 100
6, 39264, Note_on_c, 2, 75, 100
6, 39312, Note_off_c, 2, 59, 64
6, 39312, Note_off_c, 2, 71, 64
6, 39360, Note_off_c, 2, 63, 64
6, 39360, Note_off_c, 2, 75, 64
6, 39360, Note_on_c, 2, 61, 100
6, 39408, Note_off_c, 2, 61, 64
6, 39408, Note_on_c, 2, 59, 100
6, 39456, Note_off_c, 2, 59, 64
6, 39456, Note_on_c, 2, 56, 100
6, 39504, Note_off_c, 2, 56, 64
6, 39504, Note_on_c, 2, 54, 100
6, 39552, Note_off_c, 2, 54, 64
6, 39552, Note_on_c, 2, 59, 100
6, 39552, Note_on_c, 2, 63, 100
6, 39552, Note_on_c, 2, 75, 100
6, 39552, Note_on_c, 2, 71, 100
6, 39600, Note_off_c, 2, 71, 64
6, 39600, Note_off_c, 2, 75, 64
6, 39600, Note_off_c, 2, 59, 64
6, 39600, Note_off_c, 2, 63, 64
6, 39648, Note_on_c, 2, 56, 100
6, 39648, Note_on_c, 2, 59, 100
6, 39648, Note_on_c, 2, 71, 100
6, 39648, Note_on_c, 2, 68, 100
6, 39696, Note_off_c, 2, 56, 64
6, 39696, Note_off_c, 2, 68, 64
6, 39744, Note_off_c, 2, 71, 64
6, 39744, Note_off_c, 2, 59, 64
6, 39744, Note_on_c, 2, 61, 100
6, 39792, Note_off_c, 2, 61, 64
6, 39792, Note_on_c, 2, 59, 100
6, 39840, Note_off_c, 2, 59, 64
6, 39840, Note_on_c, 2, 56, 100
6, 39888, Note_off_c, 2, 56, 64
6, 39888, Note_on_c, 2, 54, 100
6, 39936, Note_off_c, 2, 54, 64
6, 39936, Note_on_c, 2, 59, 100
6, 39936, Note_on_c, 2, 63, 100
6, 39936, Note_on_c, 2, 75, 100
6, 39936, Note_on_c, 2, 71, 100
6, 39984, Note_off_c, 2, 71, 64
6, 39984, Note_off_c, 2, 75, 64
6, 39984, Note_off_c, 2, 59, 64
6, 39984, Note_off_c, 2, 63, 64
6, 40032, Note_on_c, 2, 63, 100
6, 40032, Note_on_c, 2, 59, 100
6, 40032, Note_on_c, 2, 71, 100
6, 40032, Note_on_c, 2, 75, 100
6, 40080, Note_off_c, 2, 59, 64
6, 40080, Note_off_c, 2, 71, 64
6, 40128, Note_off_c, 2, 63, 64
6, 40128, Note_off_c, 2, 75, 64
6, 40128, Note_on_c, 2, 61, 100
6, 40176, Note_off_c, 2, 61, 64
6, 40176, Note_on_c, 2, 59, 100
6, 40224, Note_off_c, 2, 59, 64
6, 40224, Note_on_c, 2, 56, 100
6, 40272, Note_off_c, 2, 56, 64
6, 40272, Note_on_c, 2, 54, 100
6, 40320, Note_off_c, 2, 54, 64
6, 40320, Note_on_c, 2, 59, 100
6, 40320, Note_on_c, 2, 63, 100
6, 40320, Note_on_c, 2, 75, 100
6, 40320, Note_on_c, 2, 71, 100
6, 40368, Note_off_c, 2, 71, 64
6, 40368, Note_off_c, 2, 75, 64
6, 40368, Note_off_c, 2, 59, 64
6, 40368, Note_off_c, 2, 63, 64
6, 40416, Note_on_c, 2, 59, 100
6, 40416, Note_on_c, 2, 56, 100
6, 40416, Note_on_c, 2, 68, 100
6, 40416, Note_on_c, 2, 71, 100
6, 40464, Note_off_c, 2, 59, 64
6, 40464, Note_off_c, 2, 56, 64
6, 40464, Note_off_c, 2, 68, 64
6, 40464, Note_off_c, 2, 71, 64
6, 40512, Note_on_c, 2, 61, 100
6, 40512, Note_on_c, 2, 73, 100
6, 40560, Note_off_c, 2, 73, 64
6, 40560, Note_off_c, 2, 61, 64
6, 40608, Note_on_c, 2, 61, 100
6, 40608, Note_on_c, 2, 73, 100
6, 40656, Note_off_c, 2, 61, 64
6, 40656, Note_off_c, 2, 73, 64
6, 40704, Note_on_c, 2, 59, 100
6, 40704, Note_on_c, 2, 63, 100
6, 40704, Note_on_c, 2, 75, 100
6, 40704, Note_on_c, 2, 71, 100
6, 40752, Note_off_c, 2, 71, 64
6, 40752, Note_off_c, 2, 75, 64
6, 40752, Note_off_c, 2, 63, 64
6, 40752, Note_off_c, 2, 59, 64
6, 40800, Note_on_c, 2, 63, 100
6, 40800, Note_on_c, 2, 59, 100
6, 40800, Note_on_c, 2, 71, 100
6, 40800, Note_on_c, 2, 75, 100
6, 40848, Note_off_c, 2, 59, 64
6, 40848, Note_off_c, 2, 71, 64
6, 40896, Note_off_c, 2, 75, 64
6, 40896, Note_off_c, 2, 63, 64
6, 40896, Note_on_c, 2, 61, 100
6, 40944, Note_off_c, 2, 61, 64
6, 40944, Note_on_c, 2, 59, 100
6, 40992, Note_off_c, 2, 59, 64
6, 40992, Note_on_c, 2, 56, 100
6, 41040, Note_off_c, 2, 56, 64
6, 41040, Note_on_c, 2, 54, 100
6, 41088, Note_off_c, 2, 54, 64
6, 41088, Note_on_c, 2, 63, 100
6, 41088, Note_on_c, 2, 59, 100
6, 41088, Note_on_c, 2, 71, 100
6, 41088, Note_on_c, 2, 75, 100
6, 41136, Note_off_c, 2, 75, 64
6, 41136, Note_off_c, 2, 71, 64
6, 41136, Note_off_c, 2, 59, 64
6, 41136, Note_off_c, 2, 63, 64
6, 41184, Note_on_c, 2, 56, 100
6, 41184, Note_on_c, 2, 59, 100
6, 41184, Note_on_c, 2, 71, 100
6, 41184, Note_on_c, 2, 68, 100
6, 41232, Note_off_c, 2, 68, 64
6, 41232, Note_off_c, 2, 56, 64
6, 41280, Note_off_c, 2, 59, 64
6, 41280, Note_off_c, 2, 71, 64
6, 41280, Note_on_c, 2, 61, 100
6, 41328, Note_off_c, 2, 61, 64
6, 41328, Note_on_c, 2, 59, 100
6, 41376, Note_off_c, 2, 59, 64
6, 41376, Note_on_c, 2, 56, 100
6, 41424, Note_off_c, 2, 56, 64
6, 41424, Note_on_c, 2, 54, 100
6, 41472, Note_off_c, 2, 54, 64
6, 41472, Note_on_c, 2, 63, 100
6, 41472, Note_on_c, 2, 59, 100
6, 41472, Note_on_c, 2, 71, 100
6, 41472, Note_on_c, 2, 75, 100
6, 41520, Note_off_c, 2, 75, 64
6, 41520, Note_off_c, 2, 71, 64
6, 41520, Note_off_c, 2, 59, 64
6, 41520, Note_off_c, 2, 63, 64
6, 41568, Note_on_c, 2, 63, 100
6, 41568, Note_on_c, 2, 59, 100
6, 41568, Note_on_c, 2, 71, 100
6, 41568, Note_on_c, 2, 75, 100
6, 41616, Note_off_c, 2, 59, 64
6, 41616, Note_off_c, 2, 71, 64
6, 41664, Note_off_c, 2, 75, 64
6, 41664, Note_off_c, 2, 63, 64
6, 41664, Note_on_c, 2, 61, 100
6, 41712, Note_off_c, 2, 61, 64
6, 41712, Note_on_c, 2, 59, 100
6, 41760, Note_off_c, 2, 59, 64
6, 41760, Note_on_c, 2, 56, 100
6, 41808, Note_off_c, 2, 56, 64
6, 41808, Note_on_c, 2, 54, 100
6, 41856, Note_off_c, 2, 54, 64
6, 41856, Note_on_c, 2, 63, 100
6, 41856, Note_on_c, 2, 59, 100
6, 41856, Note_on_c, 2, 71, 100
6, 41856, Note_on_c, 2, 75, 100
6, 41904, Note_off_c, 2, 75, 64
6, 41904, Note_off_c, 2, 71, 64
6, 41904, Note_off_c, 2, 59, 64
6, 41904, Note_off_c, 2, 63, 64
6, 41952, Note_on_c, 2, 59, 100
6, 41952, Note_on_c, 2, 56, 100
6, 41952, Note_on_c, 2, 68, 100
6, 41952, Note_on_c, 2, 71, 100
6, 42000, Note_off_c, 2, 71, 64
6, 42000, Note_off_c, 2, 68, 64
6, 42000, Note_off_c, 2, 59, 64
6, 42000, Note_off_c, 2, 56, 64
6, 42048, Note_on_c, 2, 68, 100
6, 42048, Note_on_c, 2, 61, 100
6, 42048, Note_on_c, 2, 80, 100
6, 42096, Note_off_c, 2, 61, 64
6, 42096, Note_on_c, 2, 59, 100
6, 42144, Note_off_c, 2, 59, 64
6, 42144, Note_off_c, 2, 80, 64
6, 42144, Note_off_c, 2, 68, 64
6, 42144, Note_on_c, 2, 71, 100
6, 42144, Note_on_c, 2, 56, 100
6, 42144, Note_on_c, 2, 83, 100
6, 42192, Note_off_c, 2, 56, 64
6, 42192, Note_on_c, 2, 54, 100
6, 42240, Note_off_c, 2, 54, 64
6, 42240, Note_off_c, 2, 83, 64
6, 42240, Note_off_c, 2, 71, 64
6, 42240, Note_on_c, 2, 63, 100
6, 42240, Note_on_c, 2, 59, 100
6, 42240, Note_on_c, 2, 71, 100
6, 42240, Note_on_c, 2, 75, 100
6, 42288, Note_off_c, 2, 75, 64
6, 42288, Note_off_c, 2, 71, 64
6, 42288, Note_off_c, 2, 59, 64
6, 42288, Note_off_c, 2, 63, 64
6, 42336, Note_on_c, 2, 63, 100
6, 42336, Note_on_c, 2, 59, 100
6, 42336, Note_on_c, 2, 71, 100
6, 42336, Note_on_c, 2, 75, 100
6, 42384, Note_off_c, 2, 59, 64
6, 42384, Note_off_c, 2, 71, 64
6, 42432, Note_off_c, 2, 75, 64
6, 42432, Note_off_c, 2, 63, 64
6, 42432, Note_on_c, 2, 61, 100
6, 42480, Note_off_c, 2, 61, 64
6, 42480, Note_on_c, 2, 59, 100
6, 42528, Note_off_c, 2, 59, 64
6, 42528, Note_on_c, 2, 56, 100
6, 42576, Note_off_c, 2, 56, 64
6, 42576, Note_on_c, 2, 54, 100
6, 42624, Note_off_c, 2, 54, 64
6, 42624, Note_on_c, 2, 59, 100
6, 42624, Note_on_c, 2, 63, 100
6, 42624, Note_on_c, 2, 75, 100
6, 42624, Note_on_c, 2, 71, 100
6, 42672, Note_off_c, 2, 71, 64
6, 42672, Note_off_c, 2, 75, 64
6, 42672, Note_off_c, 2, 63, 64
6, 42672, Note_off_c, 2, 59, 64
6, 42720, Note_on_c, 2, 56, 100
6, 42720, Note_on_c, 2, 59, 100
6, 42720, Note_on_c, 2, 71, 100
6, 42720, Note_on_c, 2, 68, 100
6, 42768, Note_off_c, 2, 68, 64
6, 42768, Note_off_c, 2, 56, 64
6, 42816, Note_off_c, 2, 59, 64
6, 42816, Note_off_c, 2, 71, 64
6, 42816, Note_on_c, 2, 61, 100
6, 42864, Note_off_c, 2, 61, 64
6, 42864, Note_on_c, 2, 59, 100
6, 42912, Note_off_c, 2, 59, 64
6, 42912, Note_on_c, 2, 56, 100
6, 42960, Note_off_c, 2, 56, 64
6, 42960, Note_on_c, 2, 54, 100
6, 43008, Note_off_c, 2, 54, 64
6, 43008, Note_on_c, 2, 59, 100
6, 43008, Note_on_c, 2, 63, 100
6, 43008, Note_on_c, 2, 75, 100
6, 43008, Note_on_c, 2, 71, 100
6, 43056, Note_off_c, 2, 71, 64
6, 43056, Note_off_c, 2, 75, 64
6, 43056, Note_off_c, 2, 63, 64
6, 43056, Note_off_c, 2, 59, 64
6, 43104, Note_on_c, 2, 63, 100
6, 43104, Note_on_c, 2, 59, 100
6, 43104, Note_on_c, 2, 71, 100
6, 43104, Note_on_c, 2, 75, 100
6, 43152, Note_off_c, 2, 59, 64
6, 43152, Note_off_c, 2, 71, 64
6, 43200, Note_off_c, 2, 75, 64
6, 43200, Note_off_c, 2, 63, 64
6, 43200, Note_on_c, 2, 61, 100
6, 43248, Note_off_c, 2, 61, 64
6, 43248, Note_on_c, 2, 59, 100
6, 43296, Note_off_c, 2, 59, 64
6, 43296, Note_on_c, 2, 56, 100
6, 43344, Note_off_c, 2, 56, 64
6, 43344, Note_on_c, 2, 54, 100
6, 43392, Note_off_c, 2, 54, 64
6, 43392, Note_on_c, 2, 59, 100
6, 43392, Note_on_c, 2, 63, 100
6, 43392, Note_on_c, 2, 75, 100
6, 43392, Note_on_c, 2, 71, 100
6, 43440, Note_off_c, 2, 71, 64
6, 43440, Note_off_c, 2, 75, 64
6, 43440, Note_off_c, 2, 63, 64
6, 43440, Note_off_c, 2, 59, 64
6, 43488, Note_on_c, 2, 59, 100
6, 43488, Note_on_c, 2, 56, 100
6, 43488, Note_on_c, 2, 68, 100
6, 43488, Note_on_c, 2, 71, 100
6, 43536, Note_off_c, 2, 71, 64
6, 43536, Note_off_c, 2, 68, 64
6, 43536, Note_off_c, 2, 56, 64
6, 43536, Note_off_c, 2, 59, 64
6, 43584, Note_on_c, 2, 61, 100
6, 43584, Note_on_c, 2, 73, 100
6, 43632, Note_off_c, 2, 73, 64
6, 43632, Note_off_c, 2, 61, 64
6, 43680, Note_on_c, 2, 61, 100
6, 43680, Note_on_c, 2, 73, 100
6, 43728, Note_off_c, 2, 73, 64
6, 43728, Note_off_c, 2, 61, 64
6, 43776, Note_on_c, 2, 59, 100
6, 43776, Note_on_c, 2, 63, 100
6, 43776, Note_on_c, 2, 75, 100
6, 43776, Note_on_c, 2, 71, 100
6, 43824, Note_off_c, 2, 71, 64
6, 43824, Note_off_c, 2, 75, 64
6, 43824, Note_off_c, 2, 63, 64
6, 43824, Note_off_c, 2, 59, 64
6, 43872, Note_on_c, 2, 63, 100
6, 43872, Note_on_c, 2, 59, 100
6, 43872, Note_on_c, 2, 71, 100
6, 43872, Note_on_c, 2, 75, 100
6, 43920, Note_off_c, 2, 59, 64
6, 43920, Note_off_c, 2, 71, 64
6, 43968, Note_off_c, 2, 75, 64
6, 43968, Note_off_c, 2, 63, 64
6, 43968, Note_on_c, 2, 61, 100
6, 44016, Note_off_c, 2, 61, 64
6, 44016, Note_on_c, 2, 59, 100
6, 44064, Note_off_c, 2, 59, 64
6, 44064, Note_on_c, 2, 56, 100
6, 44112, Note_off_c, 2, 56, 64
6, 44112, Note_on_c, 2, 54, 100
6, 44160, Note_off_c, 2, 54, 64
6, 44160, Note_on_c, 2, 63, 100
6, 44160, Note_on_c, 2, 59, 100
6, 44160, Note_on_c, 2, 71, 100
6, 44160, Note_on_c, 2, 75, 100
6, 44208, Note_off_c, 2, 75, 64
6, 44208, Note_off_c, 2, 71, 64
6, 44208, Note_off_c, 2, 59, 64
6, 44208, Note_off_c, 2, 63, 64
6, 44256, Note_on_c, 2, 56, 100
6, 44256, Note_on_c, 2, 59, 100
6, 44256, Note_on_c, 2, 71, 100
6, 44256, Note_on_c, 2, 68, 100
6, 44304, Note_off_c, 2, 56, 64
6, 44304, Note_off_c, 2, 68, 64
6, 44352, Note_off_c, 2, 71, 64
6, 44352, Note_off_c, 2, 59, 64
6, 44352, Note_on_c, 2, 61, 100
6, 44400, Note_off_c, 2, 61, 64
6, 44400, Note_on_c, 2, 59, 100
6, 44448, Note_off_c, 2, 59, 64
6, 44448, Note_on_c, 2, 56, 100
6, 44496, Note_off_c, 2, 56, 64
6, 44496, Note_on_c, 2, 54, 100
6, 44544, Note_off_c, 2, 54, 64
6, 44544, Note_on_c, 2, 63, 100
6, 44544, Note_on_c, 2, 59, 100
6, 44544, Note_on_c, 2, 71, 100
6, 44544, Note_on_c, 2, 75, 100
6, 44592, Note_off_c, 2, 75, 64
6, 44592, Note_off_c, 2, 71, 64
6, 44592, Note_off_c, 2, 59, 64
6, 44592, Note_off_c, 2, 63, 64
6, 44640, Note_on_c, 2, 63, 100
6, 44640, Note_on_c, 2, 59, 100
6, 44640, Note_on_c, 2, 71, 100
6, 44640, Note_on_c, 2, 75, 100
6, 44688, Note_off_c, 2, 59, 64
6, 44688, Note_off_c, 2, 71, 64
6, 44736, Note_off_c, 2, 75, 64
6, 44736, Note_off_c, 2, 63, 64
6, 44736, Note_on_c, 2, 61, 100
6, 44784, Note_off_c, 2, 61, 64
6, 44784, Note_on_c, 2, 59, 100
6, 44832, Note_off_c, 2, 59, 64
6, 44832, Note_on_c, 2, 56, 100
6, 44880, Note_off_c, 2, 56, 64
6, 44880, Note_on_c, 2, 54, 100
6, 44928, Note_off_c, 2, 54, 64
6, 44928, Note_on_c, 2, 63, 100
6, 44928, Note_on_c, 2, 59, 100
6, 44928, Note_on_c, 2, 71, 100
6, 44928, Note_on_c, 2, 75, 100
6, 44976, Note_off_c, 2, 75, 64
6, 44976, Note_off_c, 2, 71, 64
6, 44976, Note_off_c, 2, 59, 64
6, 44976, Note_off_c, 2, 63, 64
6, 45024, Note_on_c, 2, 59, 100
6, 45024, Note_on_c, 2, 56, 100
6, 45024, Note_on_c, 2, 68, 100
6, 45024, Note_on_c, 2, 71, 100
6, 45072, Note_off_c, 2, 59, 64
6, 45072, Note_off_c, 2, 56, 64
6, 45072, Note_off_c, 2, 68, 64
6, 45072, Note_off_c, 2, 71, 64
6, 45120, Note_on_c, 2, 68, 100
6, 45120, Note_on_c, 2, 61, 100
6, 45120, Note_on_c, 2, 80, 100
6, 45168, Note_off_c, 2, 61, 64
6, 45168, Note_on_c, 2, 59, 100
6, 45216, Note_off_c, 2, 59, 64
6, 45216, Note_off_c, 2, 80, 64
6, 45216, Note_off_c, 2, 68, 64
6, 45216, Note_on_c, 2, 71, 100
6, 45216, Note_on_c, 2, 56, 100
6, 45216, Note_on_c, 2, 83, 100
6, 45264, Note_off_c, 2, 56, 64
6, 45264, Note_on_c, 2, 54, 100
6, 45312, Note_off_c, 2, 54, 64
6, 45312, Note_off_c, 2, 83, 64
6, 45312, Note_off_c, 2, 71, 64
6, 45312, Note_on_c, 2, 63, 100
6, 45312, Note_on_c, 2, 59, 100
6, 45312, Note_on_c, 2, 71, 100
6, 45312, Note_on_c, 2, 75, 100
6, 45360, Note_off_c, 2, 75, 64
6, 45360, Note_off_c, 2, 71, 64
6, 45360, Note_off_c, 2, 59, 64
6, 45360, Note_off_c, 2, 63, 64
6, 45408, Note_on_c, 2, 63, 100
6, 45408, Note_on_c, 2, 59, 100
6, 45408, Note_on_c, 2, 71, 100
6, 45408, Note_on_c, 2, 75, 100
6, 45456, Note_off_c, 2, 59, 64
6, 45456, Note_off_c, 2, 71, 64
6, 45504, Note_off_c, 2, 75, 64
6, 45504, Note_off_c, 2, 63, 64
6, 45504, Note_on_c, 2, 61, 100
6, 45552, Note_off_c, 2, 61, 64
6, 45552, Note_on_c, 2, 59, 100
6, 45600, Note_off_c, 2, 59, 64
6, 45600, Note_on_c, 2, 56, 100
6, 45648, Note_off_c, 2, 56, 64
6, 45648, Note_on_c, 2, 54, 100
6, 45696, Note_off_c, 2, 54, 64
6, 45696, Note_on_c, 2, 59, 100
6, 45696, Note_on_c, 2, 63, 100
6, 45696, Note_on_c, 2, 75, 100
6, 45696, Note_on_c, 2, 71, 100
6, 45744, Note_off_c, 2, 71, 64
6, 45744, Note_off_c, 2, 75, 64
6, 45744, Note_off_c, 2, 63, 64
6, 45744, Note_off_c, 2, 59, 64
6, 45792, Note_on_c, 2, 56, 100
6, 45792, Note_on_c, 2, 59, 100
6, 45792, Note_on_c, 2, 71, 100
6, 45792, Note_on_c, 2, 68, 100
6, 45840, Note_off_c, 2, 56, 64
6, 45840, Note_off_c, 2, 68, 64
6, 45888, Note_off_c, 2, 71, 64
6, 45888, Note_off_c, 2, 59, 64
6, 45888, Note_on_c, 2, 61, 100
6, 45936, Note_off_c, 2, 61, 64
6, 45936, Note_on_c, 2, 59, 100
6, 45984, Note_off_c, 2, 59, 64
6, 45984, Note_on_c, 2, 56, 100
6, 46032, Note_off_c, 2, 56, 64
6, 46032, Note_on_c, 2, 54, 100
6, 46080, Note_off_c, 2, 54, 64
6, 46080, Note_on_c, 2, 59, 100
6, 46080, Note_on_c, 2, 63, 100
6, 46080, Note_on_c, 2, 75, 100
6, 46080, Note_on_c, 2, 71, 100
6, 46128, Note_off_c, 2, 71, 64
6, 46128, Note_off_c, 2, 75, 64
6, 46128, Note_off_c, 2, 63, 64
6, 46128, Note_off_c, 2, 59, 64
6, 46176, Note_on_c, 2, 63, 100
6, 46176, Note_on_c, 2, 59, 100
6, 46176, Note_on_c, 2, 71, 100
6, 46176, Note_on_c, 2, 75, 100
6, 46224, Note_off_c, 2, 59, 64
6, 46224, Note_off_c, 2, 71, 64
6, 46272, Note_off_c, 2, 75, 64
6, 46272, Note_off_c, 2, 63, 64
6, 46272, Note_on_c, 2, 61, 100
6, 46320, Note_off_c, 2, 61, 64
6, 46320, Note_on_c, 2, 59, 100
6, 46368, Note_off_c, 2, 59, 64
6, 46368, Note_on_c, 2, 56, 100
6, 46416, Note_off_c, 2, 56, 64
6, 46416, Note_on_c, 2, 54, 100
6, 46464, Note_off_c, 2, 54, 64
6, 46464, Note_on_c, 2, 59, 100
6, 46464, Note_on_c, 2, 63, 100
6, 46464, Note_on_c, 2, 75, 100
6, 46464, Note_on_c, 2, 71, 100
6, 46512, Note_off_c, 2, 71, 64
6, 46512, Note_off_c, 2, 75, 64
6, 46512, Note_off_c, 2, 63, 64
6, 46512, Note_off_c, 2, 59, 64
6, 46560, Note_on_c, 2, 59, 100
6, 46560, Note_on_c, 2, 56, 100
6, 46560, Note_on_c, 2, 68, 100
6, 46560, Note_on_c, 2, 71, 100
6, 46608, Note_off_c, 2, 59, 64
6, 46608, Note_off_c, 2, 56, 64
6, 46608, Note_off_c, 2, 68, 64
6, 46608, Note_off_c, 2, 71, 64
6, 46656, Note_on_c, 2, 61, 100
6, 46656, Note_on_c, 2, 73, 100
6, 46704, Note_off_c, 2, 73, 64
6, 46704, Note_off_c, 2, 61, 64
6, 46752, Note_on_c, 2, 61, 100
6, 46752, Note_on_c, 2, 73, 100
6, 46800, Note_off_c, 2, 73, 64
6, 46800, Note_off_c, 2, 61, 64
6, 50592, Control_c, 2, 101, 0
6, 50592, Control_c, 2, 100, 0
6, 50592, Control_c, 2, 6, 12
6, 50592, Control_c, 2, 10, 64
6, 50592, Control_c, 2, 7, 100
6, 50592, Pitch_bend_c, 2, 8192
6, 50592, Program_c, 2, 30
6, 50593, Control_c, 2, 101, 0
6, 50593, Control_c, 2, 100, 0
6, 50593, Control_c, 2, 6, 12
6, 50593, Control_c, 2, 10, 64
6, 50593, Control_c, 2, 7, 100
6, 50593, Pitch_bend_c, 2, 8192
6, 50593, Program_c, 2, 30
6, 50593, Control_c, 2, 101, 0
6, 50593, Control_c, 2, 100, 0
6, 50593, Control_c, 2, 6, 12
6, 50593, Control_c, 2, 10, 64
6, 50593, Control_c, 2, 7, 100
6, 50593, Pitch_bend_c, 2, 8192
6, 50593, Program_c, 2, 30
6, 50593, End_track
7, 0, Start_track
7, 0, Title_t, "MIDI out #15"
7, 0, Control_c, 1, 10, 64
7, 0, Control_c, 1, 7, 100
7, 0, Pitch_bend_c, 1, 8192
7, 0, Control_c, 1, 101, 0
7, 0, Control_c, 1, 100, 0
7, 0, Control_c, 1, 6, 12
7, 0, Control_c, 1, 10, 64
7, 0, Control_c, 1, 7, 100
7, 0, Pitch_bend_c, 1, 8192
7, 0, Program_c, 1, 30
7, 0, Control_c, 1, 101, 0
7, 0, Control_c, 1, 100, 0
7, 0, Control_c, 1, 6, 12
7, 0, Control_c, 1, 10, 64
7, 0, Control_c, 1, 7, 100
7, 0, Pitch_bend_c, 1, 8192
7, 0, Program_c, 1, 30
7, 0, Control_c, 1, 101, 0
7, 0, Control_c, 1, 100, 0
7, 0, Control_c, 1, 6, 12
7, 0, Control_c, 1, 10, 64
7, 0, Control_c, 1, 7, 100
7, 0, Pitch_bend_c, 1, 8192
7, 0, Program_c, 1, 30
7, 28800, Note_on_c, 1, 88, 112
7, 28800, Note_on_c, 1, 64, 112
7, 28848, Note_on_c, 1, 64, 87
7, 28848, Note_on_c, 1, 88, 72
7, 28896, Note_off_c, 1, 88, 64
7, 28896, Note_off_c, 1, 64, 64
7, 28896, Note_off_c, 1, 88, 64
7, 28896, Note_off_c, 1, 64, 64
7, 28896, Note_on_c, 1, 64, 87
7, 28896, Note_on_c, 1, 88, 72
7, 28944, Note_off_c, 1, 88, 64
7, 28944, Note_off_c, 1, 64, 64
7, 28944, Note_on_c, 1, 64, 87
7, 28944, Note_on_c, 1, 88, 72
7, 28992, Note_off_c, 1, 88, 64
7, 28992, Note_off_c, 1, 64, 64
7, 28992, Note_on_c, 1, 88, 72
7, 28992, Note_on_c, 1, 64, 87
7, 29040, Note_off_c, 1, 64, 64
7, 29040, Note_off_c, 1, 88, 64
7, 29040, Note_on_c, 1, 64, 87
7, 29040, Note_on_c, 1, 88, 72
7, 29088, Note_off_c, 1, 88, 64
7, 29088, Note_off_c, 1, 64, 64
7, 29088, Note_on_c, 1, 64, 87
7, 29088, Note_on_c, 1, 88, 72
7, 29136, Note_off_c, 1, 88, 64
7, 29136, Note_off_c, 1, 64, 64
7, 29136, Note_on_c, 1, 64, 87
7, 29136, Note_on_c, 1, 88, 72
7, 29184, Note_off_c, 1, 88, 64
7, 29184, Note_off_c, 1, 64, 64
7, 29184, Note_on_c, 1, 88, 113
7, 29184, Note_on_c, 1, 64, 113
7, 29232, Note_on_c, 1, 64, 87
7, 29232, Note_on_c, 1, 88, 72
7, 29280, Note_off_c, 1, 88, 64
7, 29280, Note_off_c, 1, 64, 64
7, 29280, Note_off_c, 1, 88, 64
7, 29280, Note_off_c, 1, 64, 64
7, 29280, Note_on_c, 1, 64, 87
7, 29280, Note_on_c, 1, 88, 72
7, 29328, Note_off_c, 1, 88, 64
7, 29328, Note_off_c, 1, 64, 64
7, 29328, Note_on_c, 1, 64, 87
7, 29328, Note_on_c, 1, 88, 72
7, 29376, Note_off_c, 1, 88, 64
7, 29376, Note_off_c, 1, 64, 64
7, 29376, Note_on_c, 1, 64, 87
7, 29376, Note_on_c, 1, 88, 72
7, 29424, Note_off_c, 1, 88, 64
7, 29424, Note_off_c, 1, 64, 64
7, 29424, Note_on_c, 1, 64, 87
7, 29424, Note_on_c, 1, 88, 72
7, 29472, Note_off_c, 1, 88, 64
7, 29472, Note_off_c, 1, 64, 64
7, 29472, Note_on_c, 1, 88, 72
7, 29472, Note_on_c, 1, 64, 87
7, 29520, Note_off_c, 1, 64, 64
7, 29520, Note_off_c, 1, 88, 64
7, 29520, Note_on_c, 1, 64, 87
7, 29520, Note_on_c, 1, 88, 72
7, 29568, Note_off_c, 1, 88, 64
7, 29568, Note_off_c, 1, 64, 64
7, 29568, Note_on_c, 1, 88, 113
7, 29568, Note_on_c, 1, 64, 113
7, 29616, Note_on_c, 1, 64, 87
7, 29616, Note_on_c, 1, 88, 72
7, 29664, Note_off_c, 1, 88, 64
7, 29664, Note_off_c, 1, 64, 64
7, 29664, Note_off_c, 1, 88, 64
7, 29664, Note_off_c, 1, 64, 64
7, 29664, Note_on_c, 1, 64, 87
7, 29664, Note_on_c, 1, 88, 72
7, 29712, Note_off_c, 1, 64, 64
7, 29712, Note_off_c, 1, 88, 64
7, 29712, Note_on_c, 1, 64, 87
7, 29712, Note_on_c, 1, 88, 72
7, 29760, Note_off_c, 1, 88, 64
7, 29760, Note_off_c, 1, 64, 64
7, 29760, Note_on_c, 1, 88, 72
7, 29760, Note_on_c, 1, 64, 87
7, 29808, Note_off_c, 1, 64, 64
7, 29808, Note_off_c, 1, 88, 64
7, 29808, Note_on_c, 1, 64, 87
7, 29808, Note_on_c, 1, 88, 72
7, 29856, Note_off_c, 1, 88, 64
7, 29856, Note_off_c, 1, 64, 64
7, 29856, Note_on_c, 1, 88, 72
7, 29856, Note_on_c, 1, 64, 88
7, 29904, Note_off_c, 1, 88, 64
7, 29904, Note_off_c, 1, 64, 64
7, 29904, Note_on_c, 1, 64, 87
7, 29904, Note_on_c, 1, 88, 72
7, 29952, Note_off_c, 1, 88, 64
7, 29952, Note_off_c, 1, 64, 64
7, 29952, Note_on_c, 1, 88, 114
7, 29952, Note_on_c, 1, 64, 114
7, 30000, Note_on_c, 1, 64, 87
7, 30000, Note_on_c, 1, 88, 72
7, 30048, Note_off_c, 1, 88, 64
7, 30048, Note_off_c, 1, 64, 64
7, 30048, Note_off_c, 1, 88, 64
7, 30048, Note_off_c, 1, 64, 64
7, 30048, Note_on_c, 1, 88, 72
7, 30048, Note_on_c, 1, 64, 88
7, 30096, Note_off_c, 1, 88, 64
7, 30096, Note_off_c, 1, 64, 64
7, 30096, Note_on_c, 1, 64, 87
7, 30096, Note_on_c, 1, 88, 72
7, 30144, Note_off_c, 1, 88, 64
7, 30144, Note_off_c, 1, 64, 64
7, 30144, Note_on_c, 1, 88, 72
7, 30144, Note_on_c, 1, 64, 88
7, 30192, Note_off_c, 1, 64, 64
7, 30192, Note_off_c, 1, 88, 64
7, 30192, Note_on_c, 1, 64, 87
7, 30192, Note_on_c, 1, 88, 72
7, 30240, Note_off_c, 1, 88, 64
7, 30240, Note_off_c, 1, 64, 64
7, 30240, Note_on_c, 1, 88, 72
7, 30240, Note_on_c, 1, 64, 88
7, 30288, Note_off_c, 1, 88, 64
7, 30288, Note_off_c, 1, 64, 64
7, 30288, Note_on_c, 1, 64, 87
7, 30288, Note_on_c, 1, 88, 72
7, 30336, Note_off_c, 1, 88, 64
7, 30336, Note_off_c, 1, 64, 64
7, 30336, Note_on_c, 1, 90, 114
7, 30336, Note_on_c, 1, 66, 114
7, 30384, Note_on_c, 1, 90, 72
7, 30384, Note_on_c, 1, 66, 87
7, 30432, Note_off_c, 1, 66, 64
7, 30432, Note_off_c, 1, 90, 64
7, 30432, Note_off_c, 1, 90, 64
7, 30432, Note_off_c, 1, 66, 64
7, 30432, Note_on_c, 1, 90, 72
7, 30432, Note_on_c, 1, 66, 90
7, 30480, Note_off_c, 1, 90, 64
7, 30480, Note_off_c, 1, 66, 64
7, 30480, Note_on_c, 1, 90, 72
7, 30480, Note_on_c, 1, 66, 87
7, 30528, Note_off_c, 1, 66, 64
7, 30528, Note_off_c, 1, 90, 64
7, 30528, Note_on_c, 1, 90, 72
7, 30528, Note_on_c, 1, 66, 89
7, 30576, Note_off_c, 1, 66, 64
7, 30576, Note_off_c, 1, 90, 64
7, 30576, Note_on_c, 1, 90, 72
7, 30576, Note_on_c, 1, 66, 87
7, 30624, Note_off_c, 1, 66, 64
7, 30624, Note_off_c, 1, 90, 64
7, 30624, Note_on_c, 1, 90, 72
7, 30624, Note_on_c, 1, 66, 89
7, 30672, Note_off_c, 1, 90, 64
7, 30672, Note_off_c, 1, 66, 64
7, 30672, Note_on_c, 1, 90, 72
7, 30672, Note_on_c, 1, 66, 87
7, 30720, Note_off_c, 1, 66, 64
7, 30720, Note_off_c, 1, 90, 64
7, 30720, Note_on_c, 1, 90, 113
7, 30720, Note_on_c, 1, 66, 113
7, 30768, Note_on_c, 1, 90, 72
7, 30768, Note_on_c, 1, 66, 87
7, 30816, Note_off_c, 1, 66, 64
7, 30816, Note_off_c, 1, 90, 64
7, 30816, Note_off_c, 1, 90, 64
7, 30816, Note_off_c, 1, 66, 64
7, 30816, Note_on_c, 1, 90, 72
7, 30816, Note_on_c, 1, 66, 88
7, 30864, Note_off_c, 1, 90, 64
7, 30864, Note_off_c, 1, 66, 64
7, 30864, Note_on_c, 1, 90, 72
7, 30864, Note_on_c, 1, 66, 87
7, 30912, Note_off_c, 1, 66, 64
7, 30912, Note_off_c, 1, 90, 64
7, 30912, Note_on_c, 1, 90, 72
7, 30912, Note_on_c, 1, 66, 88
7, 30960, Note_off_c, 1, 66, 64
7, 30960, Note_off_c, 1, 90, 64
7, 30960, Note_on_c, 1, 90, 72
7, 30960, Note_on_c, 1, 66, 87
7, 31008, Note_off_c, 1, 66, 64
7, 31008, Note_off_c, 1, 90, 64
7, 31008, Note_on_c, 1, 90, 72
7, 31008, Note_on_c, 1, 66, 88
7, 31056, Note_off_c, 1, 90, 64
7, 31056, Note_off_c, 1, 66, 64
7, 31056, Note_on_c, 1, 90, 72
7, 31056, Note_on_c, 1, 66, 87
7, 31104, Note_off_c, 1, 66, 64
7, 31104, Note_off_c, 1, 90, 64
7, 31104, Note_on_c, 1, 90, 113
7, 31104, Note_on_c, 1, 66, 113
7, 31152, Note_on_c, 1, 90, 72
7, 31152, Note_on_c, 1, 66, 87
7, 31200, Note_off_c, 1, 66, 64
7, 31200, Note_off_c, 1, 90, 64
7, 31200, Note_off_c, 1, 90, 64
7, 31200, Note_off_c, 1, 66, 64
7, 31200, Note_on_c, 1, 90, 72
7, 31200, Note_on_c, 1, 66, 88
7, 31248, Note_off_c, 1, 90, 64
7, 31248, Note_off_c, 1, 66, 64
7, 31248, Note_on_c, 1, 90, 72
7, 31248, Note_on_c, 1, 66, 87
7, 31296, Note_off_c, 1, 66, 64
7, 31296, Note_off_c, 1, 90, 64
7, 31296, Note_on_c, 1, 90, 72
7, 31296, Note_on_c, 1, 66, 88
7, 31344, Note_off_c, 1, 66, 64
7, 31344, Note_off_c, 1, 90, 64
7, 31344, Note_on_c, 1, 90, 72
7, 31344, Note_on_c, 1, 66, 87
7, 31392, Note_off_c, 1, 66, 64
7, 31392, Note_off_c, 1, 90, 64
7, 31392, Note_on_c, 1, 90, 72
7, 31392, Note_on_c, 1, 66, 87
7, 31440, Note_off_c, 1, 90, 64
7, 31440, Note_off_c, 1, 66, 64
7, 31440, Note_on_c, 1, 90, 72
7, 31440, Note_on_c, 1, 66, 87
7, 31488, Note_off_c, 1, 66, 64
7, 31488, Note_off_c, 1, 90, 64
7, 31488, Note_on_c, 1, 66, 113
7, 31488, Note_on_c, 1, 90, 113
7, 31536, Note_on_c, 1, 65, 100
7, 31536, Note_on_c, 1, 89, 100
7, 31584, Note_off_c, 1, 66, 64
7, 31584, Note_off_c, 1, 90, 64
7, 31584, Note_on_c, 1, 64, 100
7, 31584, Note_on_c, 1, 88, 100
7, 31632, Note_off_c, 1, 89, 64
7, 31632, Note_off_c, 1, 65, 64
7, 31632, Note_on_c, 1, 63, 100
7, 31632, Note_on_c, 1, 87, 100
7, 31680, Note_off_c, 1, 88, 64
7, 31680, Note_off_c, 1, 64, 64
7, 31680, Note_on_c, 1, 62, 100
7, 31680, Note_on_c, 1, 86, 100
7, 31728, Note_off_c, 1, 87, 64
7, 31728, Note_off_c, 1, 63, 64
7, 31728, Note_on_c, 1, 61, 100
7, 31728, Note_on_c, 1, 85, 100
7, 31776, Note_off_c, 1, 86, 64
7, 31776, Note_off_c, 1, 62, 64
7, 31776, Note_on_c, 1, 60, 100
7, 31776, Note_on_c, 1, 84, 100
7, 31824, Note_off_c, 1, 85, 64
7, 31824, Note_off_c, 1, 61, 64
7, 31824, Note_on_c, 1, 59, 100
7, 31824, Note_on_c, 1, 83, 100
7, 31872, Note_off_c, 1, 83, 64
7, 31872, Note_off_c, 1, 59, 64
7, 31872, Note_off_c, 1, 84, 64
7, 31872, Note_off_c, 1, 60, 64
7, 31872, Note_on_c, 1, 88, 112
7, 31872, Note_on_c, 1, 64, 112
7, 31920, Note_on_c, 1, 64, 87
7, 31920, Note_on_c, 1, 88, 72
7, 31968, Note_off_c, 1, 88, 64
7, 31968, Note_off_c, 1, 64, 64
7, 31968, Note_off_c, 1, 88, 64
7, 31968, Note_off_c, 1, 64, 64
7, 31968, Note_on_c, 1, 64, 87
7, 31968, Note_on_c, 1, 88, 72
7, 32016, Note_off_c, 1, 88, 64
7, 32016, Note_off_c, 1, 64, 64
7, 32016, Note_on_c, 1, 64, 87
7, 32016, Note_on_c, 1, 88, 72
7, 32064, Note_off_c, 1, 88, 64
7, 32064, Note_off_c, 1, 64, 64
7, 32064, Note_on_c, 1, 88, 72
7, 32064, Note_on_c, 1, 64, 87
7, 32112, Note_off_c, 1, 64, 64
7, 32112, Note_off_c, 1, 88, 64
7, 32112, Note_on_c, 1, 64, 87
7, 32112, Note_on_c, 1, 88, 72
7, 32160, Note_off_c, 1, 88, 64
7, 32160, Note_off_c, 1, 64, 64
7, 32160, Note_on_c, 1, 64, 87
7, 32160, Note_on_c, 1, 88, 72
7, 32208, Note_off_c, 1, 88, 64
7, 32208, Note_off_c, 1, 64, 64
7, 32208, Note_on_c, 1, 64, 87
7, 32208, Note_on_c, 1, 88, 72
7, 32256, Note_off_c, 1, 88, 64
7, 32256, Note_off_c, 1, 64, 64
7, 32256, Note_on_c, 1, 88, 113
7, 32256, Note_on_c, 1, 64, 113
7, 32304, Note_on_c, 1, 64, 87
7, 32304, Note_on_c, 1, 88, 72
7, 32352, Note_off_c, 1, 88, 64
7, 32352, Note_off_c, 1, 64, 64
7, 32352, Note_off_c, 1, 88, 64
7, 32352, Note_off_c, 1, 64, 64
7, 32352, Note_on_c, 1, 64, 87
7, 32352, Note_on_c, 1, 88, 72
7, 32400, Note_off_c, 1, 88, 64
7, 32400, Note_off_c, 1, 64, 64
7, 32400, Note_on_c, 1, 64, 87
7, 32400, Note_on_c, 1, 88, 72
7, 32448, Note_off_c, 1, 88, 64
7, 32448, Note_off_c, 1, 64, 64
7, 32448, Note_on_c, 1, 64, 87
7, 32448, Note_on_c, 1, 88, 72
7, 32496, Note_off_c, 1, 88, 64
7, 32496, Note_off_c, 1, 64, 64
7, 32496, Note_on_c, 1, 64, 87
7, 32496, Note_on_c, 1, 88, 72
7, 32544, Note_off_c, 1, 88, 64
7, 32544, Note_off_c, 1, 64, 64
7, 32544, Note_on_c, 1, 88, 72
7, 32544, Note_on_c, 1, 64, 87
7, 32592, Note_off_c, 1, 64, 64
7, 32592, Note_off_c, 1, 88, 64
7, 32592, Note_on_c, 1, 64, 87
7, 32592, Note_on_c, 1, 88, 72
7, 32640, Note_off_c, 1, 88, 64
7, 32640, Note_off_c, 1, 64, 64
7, 32640, Note_on_c, 1, 88, 113
7, 32640, Note_on_c, 1, 64, 113
7, 32688, Note_on_c, 1, 64, 87
7, 32688, Note_on_c, 1, 88, 72
7, 32736, Note_off_c, 1, 88, 64
7, 32736, Note_off_c, 1, 64, 64
7, 32736, Note_off_c, 1, 88, 64
7, 32736, Note_off_c, 1, 64, 64
7, 32736, Note_on_c, 1, 64, 87
7, 32736, Note_on_c, 1, 88, 72
7, 32784, Note_off_c, 1, 88, 64
7, 32784, Note_off_c, 1, 64, 64
7, 32784, Note_on_c, 1, 64, 87
7, 32784, Note_on_c, 1, 88, 72
7, 32832, Note_off_c, 1, 88, 64
7, 32832, Note_off_c, 1, 64, 64
7, 32832, Note_on_c, 1, 88, 72
7, 32832, Note_on_c, 1, 64, 87
7, 32880, Note_off_c, 1, 64, 64
7, 32880, Note_off_c, 1, 88, 64
7, 32880, Note_on_c, 1, 64, 87
7, 32880, Note_on_c, 1, 88, 72
7, 32928, Note_off_c, 1, 88, 64
7, 32928, Note_off_c, 1, 64, 64
7, 32928, Note_on_c, 1, 88, 72
7, 32928, Note_on_c, 1, 64, 88
7, 32976, Note_off_c, 1, 64, 64
7, 32976, Note_off_c, 1, 88, 64
7, 32976, Note_on_c, 1, 64, 87
7, 32976, Note_on_c, 1, 88, 72
7, 33024, Note_off_c, 1, 88, 64
7, 33024, Note_off_c, 1, 64, 64
7, 33024, Note_on_c, 1, 88, 114
7, 33024, Note_on_c, 1, 64, 114
7, 33072, Note_on_c, 1, 64, 87
7, 33072, Note_on_c, 1, 88, 72
7, 33120, Note_off_c, 1, 88, 64
7, 33120, Note_off_c, 1, 64, 64
7, 33120, Note_off_c, 1, 88, 64
7, 33120, Note_off_c, 1, 64, 64
7, 33120, Note_on_c, 1, 88, 72
7, 33120, Note_on_c, 1, 64, 88
7, 33168, Note_off_c, 1, 64, 64
7, 33168, Note_off_c, 1, 88, 64
7, 33168, Note_on_c, 1, 64, 87
7, 33168, Note_on_c, 1, 88, 72
7, 33216, Note_off_c, 1, 88, 64
7, 33216, Note_off_c, 1, 64, 64
7, 33216, Note_on_c, 1, 88, 72
7, 33216, Note_on_c, 1, 64, 88
7, 33264, Note_off_c, 1, 64, 64
7, 33264, Note_off_c, 1, 88, 64
7, 33264, Note_on_c, 1, 64, 87
7, 33264, Note_on_c, 1, 88, 72
7, 33312, Note_off_c, 1, 88, 64
7, 33312, Note_off_c, 1, 64, 64
7, 33312, Note_on_c, 1, 88, 72
7, 33312, Note_on_c, 1, 64, 88
7, 33360, Note_off_c, 1, 64, 64
7, 33360, Note_off_c, 1, 88, 64
7, 33360, Note_on_c, 1, 64, 87
7, 33360, Note_on_c, 1, 88, 72
7, 33408, Note_off_c, 1, 88, 64
7, 33408, Note_off_c, 1, 64, 64
7, 33408, Note_on_c, 1, 90, 114
7, 33408, Note_on_c, 1, 66, 114
7, 33456, Note_on_c, 1, 90, 72
7, 33456, Note_on_c, 1, 66, 87
7, 33504, Note_off_c, 1, 66, 64
7, 33504, Note_off_c, 1, 66, 64
7, 33504, Note_off_c, 1, 90, 64
7, 33504, Note_off_c, 1, 90, 64
7, 33504, Note_on_c, 1, 90, 72
7, 33504, Note_on_c, 1, 66, 90
7, 33552, Note_off_c, 1, 66, 64
7, 33552, Note_off_c, 1, 90, 64
7, 33552, Note_on_c, 1, 90, 72
7, 33552, Note_on_c, 1, 66, 87
7, 33600, Note_off_c, 1, 66, 64
7, 33600, Note_off_c, 1, 90, 64
7, 33600, Note_on_c, 1, 90, 72
7, 33600, Note_on_c, 1, 66, 89
7, 33648, Note_off_c, 1, 66, 64
7, 33648, Note_off_c, 1, 90, 64
7, 33648, Note_on_c, 1, 90, 72
7, 33648, Note_on_c, 1, 66, 87
7, 33696, Note_off_c, 1, 66, 64
7, 33696, Note_off_c, 1, 90, 64
7, 33696, Note_on_c, 1, 90, 72
7, 33696, Note_on_c, 1, 66, 89
7, 33744, Note_off_c, 1, 66, 64
7, 33744, Note_off_c, 1, 90, 64
7, 33744, Note_on_c, 1, 90, 72
7, 33744, Note_on_c, 1, 66, 87
7, 33792, Note_off_c, 1, 66, 64
7, 33792, Note_off_c, 1, 90, 64
7, 33792, Note_on_c, 1, 90, 113
7, 33792, Note_on_c, 1, 66, 113
7, 33840, Note_on_c, 1, 90, 72
7, 33840, Note_on_c, 1, 66, 87
7, 33888, Note_off_c, 1, 66, 64
7, 33888, Note_off_c, 1, 66, 64
7, 33888, Note_off_c, 1, 90, 64
7, 33888, Note_off_c, 1, 90, 64
7, 33888, Note_on_c, 1, 90, 72
7, 33888, Note_on_c, 1, 66, 88
7, 33936, Note_off_c, 1, 66, 64
7, 33936, Note_off_c, 1, 90, 64
7, 33936, Note_on_c, 1, 90, 72
7, 33936, Note_on_c, 1, 66, 87
7, 33984, Note_off_c, 1, 66, 64
7, 33984, Note_off_c, 1, 90, 64
7, 33984, Note_on_c, 1, 90, 72
7, 33984, Note_on_c, 1, 66, 88
7, 34032, Note_off_c, 1, 66, 64
7, 34032, Note_off_c, 1, 90, 64
7, 34032, Note_on_c, 1, 90, 72
7, 34032, Note_on_c, 1, 66, 87
7, 34080, Note_off_c, 1, 66, 64
7, 34080, Note_off_c, 1, 90, 64
7, 34080, Note_on_c, 1, 90, 72
7, 34080, Note_on_c, 1, 66, 88
7, 34128, Note_off_c, 1, 66, 64
7, 34128, Note_off_c, 1, 90, 64
7, 34128, Note_on_c, 1, 90, 72
7, 34128, Note_on_c, 1, 66, 87
7, 34176, Note_off_c, 1, 66, 64
7, 34176, Note_off_c, 1, 90, 64
7, 34176, Note_on_c, 1, 90, 113
7, 34176, Note_on_c, 1, 66, 113
7, 34224, Note_on_c, 1, 90, 72
7, 34224, Note_on_c, 1, 66, 87
7, 34272, Note_off_c, 1, 66, 64
7, 34272, Note_off_c, 1, 66, 64
7, 34272, Note_off_c, 1, 90, 64
7, 34272, Note_off_c, 1, 90, 64
7, 34272, Note_on_c, 1, 90, 72
7, 34272, Note_on_c, 1, 66, 88
7, 34320, Note_off_c, 1, 66, 64
7, 34320, Note_off_c, 1, 90, 64
7, 34320, Note_on_c, 1, 90, 72
7, 34320, Note_on_c, 1, 66, 87
7, 34368, Note_off_c, 1, 66, 64
7, 34368, Note_off_c, 1, 90, 64
7, 34368, Note_on_c, 1, 90, 72
7, 34368, Note_on_c, 1, 66, 88
7, 34416, Note_off_c, 1, 66, 64
7, 34416, Note_off_c, 1, 90, 64
7, 34416, Note_on_c, 1, 90, 72
7, 34416, Note_on_c, 1, 66, 87
7, 34464, Note_off_c, 1, 66, 64
7, 34464, Note_off_c, 1, 90, 64
7, 34464, Note_on_c, 1, 90, 72
7, 34464, Note_on_c, 1, 66, 87
7, 34512, Note_off_c, 1, 66, 64
7, 34512, Note_off_c, 1, 90, 64
7, 34512, Note_on_c, 1, 90, 72
7, 34512, Note_on_c, 1, 66, 87
7, 34560, Note_off_c, 1, 66, 64
7, 34560, Note_off_c, 1, 90, 64
7, 34560, Note_on_c, 1, 66, 113
7, 34560, Note_on_c, 1, 90, 113
7, 34608, Note_on_c, 1, 65, 100
7, 34608, Note_on_c, 1, 89, 100
7, 34656, Note_off_c, 1, 90, 64
7, 34656, Note_off_c, 1, 66, 64
7, 34656, Note_on_c, 1, 64, 100
7, 34656, Note_on_c, 1, 88, 100
7, 34704, Note_off_c, 1, 89, 64
7, 34704, Note_off_c, 1, 65, 64
7, 34704, Note_on_c, 1, 63, 100
7, 34704, Note_on_c, 1, 87, 100
7, 34752, Note_off_c, 1, 88, 64
7, 34752, Note_off_c, 1, 64, 64
7, 34752, Note_on_c, 1, 62, 100
7, 34752, Note_on_c, 1, 86, 100
7, 34800, Note_off_c, 1, 87, 64
7, 34800, Note_off_c, 1, 63, 64
7, 34800, Note_on_c, 1, 61, 100
7, 34800, Note_on_c, 1, 85, 100
7, 34848, Note_off_c, 1, 86, 64
7, 34848, Note_off_c, 1, 62, 64
7, 34848, Note_on_c, 1, 60, 100
7, 34848, Note_on_c, 1, 84, 100
7, 34896, Note_off_c, 1, 85, 64
7, 34896, Note_off_c, 1, 61, 64
7, 34896, Note_on_c, 1, 59, 100
7, 34896, Note_on_c, 1, 83, 100
7, 34944, Note_off_c, 1, 83, 64
7, 34944, Note_off_c, 1, 84, 64
7, 34944, Note_off_c, 1, 59, 64
7, 34944, Note_off_c, 1, 60, 64
7, 50592, Control_c, 1, 101, 0
7, 50592, Control_c, 1, 100, 0
7, 50592, Control_c, 1, 6, 12
7, 50592, Control_c, 1, 10, 64
7, 50592, Control_c, 1, 7, 100
7, 50592, Pitch_bend_c, 1, 8192
7, 50592, Program_c, 1, 30
7, 50593, Control_c, 1, 101, 0
7, 50593, Control_c, 1, 100, 0
7, 50593, Control_c, 1, 6, 12
7, 50593, Control_c, 1, 10, 64
7, 50593, Control_c, 1, 7, 100
7, 50593, Pitch_bend_c, 1, 8192
7, 50593, Program_c, 1, 30
7, 50593, Control_c, 1, 101, 0
7, 50593, Control_c, 1, 100, 0
7, 50593, Control_c, 1, 6, 12
7, 50593, Control_c, 1, 10, 64
7, 50593, Control_c, 1, 7, 100
7, 50593, Pitch_bend_c, 1, 8192
7, 50593, Program_c, 1, 30
7, 50593, End_track
8, 0, Start_track
8, 0, Title_t, "MIDI out #11"
8, 0, Control_c, 11, 10, 64
8, 0, Control_c, 11, 7, 100
8, 0, Pitch_bend_c, 11, 8192
8, 0, Control_c, 11, 101, 0
8, 0, Control_c, 11, 100, 0
8, 0, Control_c, 11, 6, 12
8, 0, Control_c, 11, 10, 64
8, 0, Control_c, 11, 7, 100
8, 0, Pitch_bend_c, 11, 8192
8, 0, Program_c, 11, 26
8, 0, Control_c, 11, 101, 0
8, 0, Control_c, 11, 100, 0
8, 0, Control_c, 11, 6, 12
8, 0, Control_c, 11, 10, 64
8, 0, Control_c, 11, 7, 100
8, 0, Pitch_bend_c, 11, 8192
8, 0, Program_c, 11, 26
8, 0, Control_c, 11, 101, 0
8, 0, Control_c, 11, 100, 0
8, 0, Control_c, 11, 6, 12
8, 0, Control_c, 11, 10, 64
8, 0, Control_c, 11, 7, 100
8, 0, Pitch_bend_c, 11, 8192
8, 0, Program_c, 11, 26
8, 2688, Note_on_c, 11, 51, 100
8, 2688, Note_on_c, 11, 63, 100
8, 2736, Note_off_c, 11, 63, 64
8, 2736, Note_off_c, 11, 51, 64
8, 2784, Note_on_c, 11, 51, 100
8, 2784, Note_on_c, 11, 63, 100
8, 2832, Note_off_c, 11, 63, 64
8, 2832, Note_off_c, 11, 51, 64
8, 3072, Note_on_c, 11, 63, 100
8, 3072, Note_on_c, 11, 51, 100
8, 3120, Note_off_c, 11, 51, 64
8, 3120, Note_off_c, 11, 63, 64
8, 3168, Note_on_c, 11, 47, 100
8, 3168, Note_on_c, 11, 59, 100
8, 3216, Note_off_c, 11, 59, 64
8, 3216, Note_off_c, 11, 47, 64
8, 3456, Note_on_c, 11, 51, 100
8, 3456, Note_on_c, 11, 63, 100
8, 3504, Note_off_c, 11, 63, 64
8, 3504, Note_off_c, 11, 51, 64
8, 3552, Note_on_c, 11, 63, 100
8, 3552, Note_on_c, 11, 51, 100
8, 3600, Note_off_c, 11, 63, 64
8, 3600, Note_off_c, 11, 51, 64
8, 3840, Note_on_c, 11, 51, 100
8, 3840, Note_on_c, 11, 63, 100
8, 3888, Note_off_c, 11, 63, 64
8, 3888, Note_off_c, 11, 51, 64
8, 3936, Note_on_c, 11, 47, 100
8, 3936, Note_on_c, 11, 59, 100
8, 3984, Note_off_c, 11, 47, 64
8, 3984, Note_off_c, 11, 59, 64
8, 4224, Note_on_c, 11, 51, 100
8, 4224, Note_on_c, 11, 63, 100
8, 4272, Note_off_c, 11, 63, 64
8, 4272, Note_off_c, 11, 51, 64
8, 4320, Note_on_c, 11, 51, 100
8, 4320, Note_on_c, 11, 63, 100
8, 4368, Note_off_c, 11, 51, 64
8, 4368, Note_off_c, 11, 63, 64
8, 4608, Note_on_c, 11, 51, 100
8, 4608, Note_on_c, 11, 63, 100
8, 4656, Note_off_c, 11, 63, 64
8, 4656, Note_off_c, 11, 51, 64
8, 4704, Note_on_c, 11, 47, 100
8, 4704, Note_on_c, 11, 59, 100
8, 4752, Note_off_c, 11, 47, 64
8, 4752, Note_off_c, 11, 59, 64
8, 4992, Note_on_c, 11, 51, 100
8, 4992, Note_on_c, 11, 63, 100
8, 5040, Note_off_c, 11, 63, 64
8, 5040, Note_off_c, 11, 51, 64
8, 5088, Note_on_c, 11, 51, 100
8, 5088, Note_on_c, 11, 63, 100
8, 5136, Note_off_c, 11, 51, 64
8, 5136, Note_off_c, 11, 63, 64
8, 5376, Note_on_c, 11, 51, 100
8, 5376, Note_on_c, 11, 63, 100
8, 5424, Note_off_c, 11, 63, 64
8, 5424, Note_off_c, 11, 51, 64
8, 5472, Note_on_c, 11, 47, 100
8, 5472, Note_on_c, 11, 59, 100
8, 5520, Note_off_c, 11, 47, 64
8, 5520, Note_off_c, 11, 59, 64
8, 5760, Note_on_c, 11, 51, 100
8, 5760, Note_on_c, 11, 63, 100
8, 5808, Note_off_c, 11, 63, 64
8, 5808, Note_off_c, 11, 51, 64
8, 5856, Note_on_c, 11, 51, 100
8, 5856, Note_on_c, 11, 63, 100
8, 5904, Note_off_c, 11, 51, 64
8, 5904, Note_off_c, 11, 63, 64
8, 6144, Note_on_c, 11, 63, 100
8, 6144, Note_on_c, 11, 51, 100
8, 6192, Note_off_c, 11, 51, 64
8, 6192, Note_off_c, 11, 63, 64
8, 6240, Note_on_c, 11, 47, 100
8, 6240, Note_on_c, 11, 59, 100
8, 6288, Note_off_c, 11, 47, 64
8, 6288, Note_off_c, 11, 59, 64
8, 6528, Note_on_c, 11, 51, 100
8, 6528, Note_on_c, 11, 63, 100
8, 6576, Note_off_c, 11, 63, 64
8, 6576, Note_off_c, 11, 51, 64
8, 6624, Note_on_c, 11, 63, 100
8, 6624, Note_on_c, 11, 51, 100
8, 6672, Note_off_c, 11, 63, 64
8, 6672, Note_off_c, 11, 51, 64
8, 6912, Note_on_c, 11, 51, 100
8, 6912, Note_on_c, 11, 63, 100
8, 6960, Note_off_c, 11, 63, 64
8, 6960, Note_off_c, 11, 51, 64
8, 7008, Note_on_c, 11, 47, 100
8, 7008, Note_on_c, 11, 59, 100
8, 7056, Note_off_c, 11, 47, 64
8, 7056, Note_off_c, 11, 59, 64
8, 7296, Note_on_c, 11, 51, 100
8, 7296, Note_on_c, 11, 63, 100
8, 7344, Note_off_c, 11, 63, 64
8, 7344, Note_off_c, 11, 51, 64
8, 7392, Note_on_c, 11, 51, 100
8, 7392, Note_on_c, 11, 63, 100
8, 7440, Note_off_c, 11, 51, 64
8, 7440, Note_off_c, 11, 63, 64
8, 7680, Note_on_c, 11, 51, 100
8, 7680, Note_on_c, 11, 63, 100
8, 7728, Note_off_c, 11, 63, 64
8, 7728, Note_off_c, 11, 51, 64
8, 7776, Note_on_c, 11, 47, 100
8, 7776, Note_on_c, 11, 59, 100
8, 7824, Note_off_c, 11, 47, 64
8, 7824, Note_off_c, 11, 59, 64
8, 8064, Note_on_c, 11, 51, 100
8, 8064, Note_on_c, 11, 63, 100
8, 8112, Note_off_c, 11, 63, 64
8, 8112, Note_off_c, 11, 51, 64
8, 8160, Note_on_c, 11, 51, 100
8, 8160, Note_on_c, 11, 63, 100
8, 8208, Note_off_c, 11, 51, 64
8, 8208, Note_off_c, 11, 63, 64
8, 8448, Note_on_c, 11, 51, 100
8, 8448, Note_on_c, 11, 63, 100
8, 8496, Note_off_c, 11, 63, 64
8, 8496, Note_off_c, 11, 51, 64
8, 8544, Note_on_c, 11, 47, 100
8, 8544, Note_on_c, 11, 59, 100
8, 8592, Note_off_c, 11, 47, 64
8, 8592, Note_off_c, 11, 59, 64
8, 8832, Note_on_c, 11, 51, 100
8, 8832, Note_on_c, 11, 63, 100
8, 8880, Note_off_c, 11, 63, 64
8, 8880, Note_off_c, 11, 51, 64
8, 8928, Note_on_c, 11, 51, 100
8, 8928, Note_on_c, 11, 63, 100
8, 8976, Note_off_c, 11, 63, 64
8, 8976, Note_off_c, 11, 51, 64
8, 9216, Note_on_c, 11, 63, 100
8, 9216, Note_on_c, 11, 51, 100
8, 9264, Note_off_c, 11, 51, 64
8, 9264, Note_off_c, 11, 63, 64
8, 9312, Note_on_c, 11, 47, 100
8, 9312, Note_on_c, 11, 59, 100
8, 9360, Note_off_c, 11, 59, 64
8, 9360, Note_off_c, 11, 47, 64
8, 9600, Note_on_c, 11, 51, 100
8, 9600, Note_on_c, 11, 63, 100
8, 9648, Note_off_c, 11, 63, 64
8, 9648, Note_off_c, 11, 51, 64
8, 9696, Note_on_c, 11, 63, 100
8, 9696, Note_on_c, 11, 51, 100
8, 9744, Note_off_c, 11, 63, 64
8, 9744, Note_off_c, 11, 51, 64
8, 9984, Note_on_c, 11, 51, 100
8, 9984, Note_on_c, 11, 63, 100
8, 10032, Note_off_c, 11, 63, 64
8, 10032, Note_off_c, 11, 51, 64
8, 10080, Note_on_c, 11, 47, 100
8, 10080, Note_on_c, 11, 59, 100
8, 10128, Note_off_c, 11, 59, 64
8, 10128, Note_off_c, 11, 47, 64
8, 10368, Note_on_c, 11, 51, 100
8, 10368, Note_on_c, 11, 63, 100
8, 10416, Note_off_c, 11, 63, 64
8, 10416, Note_off_c, 11, 51, 64
8, 10464, Note_on_c, 11, 51, 100
8, 10464, Note_on_c, 11, 63, 100
8, 10512, Note_off_c, 11, 51, 64
8, 10512, Note_off_c, 11, 63, 64
8, 10752, Note_on_c, 11, 51, 100
8, 10752, Note_on_c, 11, 63, 100
8, 10800, Note_off_c, 11, 63, 64
8, 10800, Note_off_c, 11, 51, 64
8, 10848, Note_on_c, 11, 47, 100
8, 10848, Note_on_c, 11, 59, 100
8, 10896, Note_off_c, 11, 59, 64
8, 10896, Note_off_c, 11, 47, 64
8, 11136, Note_on_c, 11, 51, 100
8, 11136, Note_on_c, 11, 63, 100
8, 11184, Note_off_c, 11, 63, 64
8, 11184, Note_off_c, 11, 51, 64
8, 11232, Note_on_c, 11, 51, 100
8, 11232, Note_on_c, 11, 63, 100
8, 11280, Note_off_c, 11, 51, 64
8, 11280, Note_off_c, 11, 63, 64
8, 11520, Note_on_c, 11, 51, 100
8, 11520, Note_on_c, 11, 63, 100
8, 11568, Note_off_c, 11, 63, 64
8, 11568, Note_off_c, 11, 51, 64
8, 11616, Note_on_c, 11, 47, 100
8, 11616, Note_on_c, 11, 59, 100
8, 11664, Note_off_c, 11, 59, 64
8, 11664, Note_off_c, 11, 47, 64
8, 11904, Note_on_c, 11, 47, 100
8, 11904, Note_on_c, 11, 59, 100
8, 11952, Note_off_c, 11, 59, 64
8, 11952, Note_off_c, 11, 47, 64
8, 11952, Note_on_c, 11, 47, 100
8, 11952, Note_on_c, 11, 59, 100
8, 12000, Note_off_c, 11, 59, 64
8, 12000, Note_off_c, 11, 47, 64
8, 12000, Note_on_c, 11, 51, 100
8, 12000, Note_on_c, 11, 63, 100
8, 12048, Note_off_c, 11, 63, 64
8, 12048, Note_off_c, 11, 51, 64
8, 12048, Note_on_c, 11, 47, 100
8, 12048, Note_on_c, 11, 59, 100
8, 12096, Note_off_c, 11, 59, 64
8, 12096, Note_off_c, 11, 47, 64
8, 12096, Note_on_c, 11, 47, 100
8, 12096, Note_on_c, 11, 59, 100
8, 12144, Note_off_c, 11, 59, 64
8, 12144, Note_off_c, 11, 47, 64
8, 12144, Note_on_c, 11, 47, 100
8, 12144, Note_on_c, 11, 59, 100
8, 12192, Note_off_c, 11, 59, 64
8, 12192, Note_off_c, 11, 47, 64
8, 12192, Note_on_c, 11, 51, 100
8, 12192, Note_on_c, 11, 63, 100
8, 12240, Note_off_c, 11, 63, 64
8, 12240, Note_off_c, 11, 51, 64
8, 12240, Note_on_c, 11, 47, 100
8, 12240, Note_on_c, 11, 59, 100
8, 12288, Note_off_c, 11, 59, 64
8, 12288, Note_off_c, 11, 47, 64
8, 12288, Note_on_c, 11, 47, 100
8, 12288, Note_on_c, 11, 59, 100
8, 12336, Note_off_c, 11, 59, 64
8, 12336, Note_off_c, 11, 47, 64
8, 12336, Note_on_c, 11, 47, 100
8, 12336, Note_on_c, 11, 59, 100
8, 12384, Note_off_c, 11, 59, 64
8, 12384, Note_off_c, 11, 47, 64
8, 12384, Note_on_c, 11, 51, 100
8, 12384, Note_on_c, 11, 63, 100
8, 12432, Note_off_c, 11, 63, 64
8, 12432, Note_off_c, 11, 51, 64
8, 12432, Note_on_c, 11, 47, 100
8, 12432, Note_on_c, 11, 59, 100
8, 12480, Note_off_c, 11, 59, 64
8, 12480, Note_off_c, 11, 47, 64
8, 12480, Note_on_c, 11, 47, 100
8, 12480, Note_on_c, 11, 59, 100
8, 12528, Note_off_c, 11, 59, 64
8, 12528, Note_off_c, 11, 47, 64
8, 12528, Note_on_c, 11, 47, 100
8, 12528, Note_on_c, 11, 59, 100
8, 12576, Note_off_c, 11, 59, 64
8, 12576, Note_off_c, 11, 47, 64
8, 12576, Note_on_c, 11, 51, 100
8, 12576, Note_on_c, 11, 63, 100
8, 12624, Note_off_c, 11, 63, 64
8, 12624, Note_off_c, 11, 51, 64
8, 12624, Note_on_c, 11, 47, 100
8, 12624, Note_on_c, 11, 59, 100
8, 12672, Note_off_c, 11, 59, 64
8, 12672, Note_off_c, 11, 47, 64
8, 12672, Note_on_c, 11, 47, 100
8, 12672, Note_on_c, 11, 59, 100
8, 12720, Note_off_c, 11, 59, 64
8, 12720, Note_off_c, 11, 47, 64
8, 12720, Note_on_c, 11, 47, 100
8, 12720, Note_on_c, 11, 59, 100
8, 12768, Note_off_c, 11, 59, 64
8, 12768, Note_off_c, 11, 47, 64
8, 12768, Note_on_c, 11, 51, 100
8, 12768, Note_on_c, 11, 63, 100
8, 12816, Note_off_c, 11, 63, 64
8, 12816, Note_off_c, 11, 51, 64
8, 12816, Note_on_c, 11, 47, 100
8, 12816, Note_on_c, 11, 59, 100
8, 12864, Note_off_c, 11, 59, 64
8, 12864, Note_off_c, 11, 47, 64
8, 12864, Note_on_c, 11, 47, 100
8, 12864, Note_on_c, 11, 59, 100
8, 12912, Note_off_c, 11, 59, 64
8, 12912, Note_off_c, 11, 47, 64
8, 12912, Note_on_c, 11, 47, 100
8, 12912, Note_on_c, 11, 59, 100
8, 12960, Note_off_c, 11, 59, 64
8, 12960, Note_off_c, 11, 47, 64
8, 12960, Note_on_c, 11, 51, 100
8, 12960, Note_on_c, 11, 63, 100
8, 13008, Note_off_c, 11, 63, 64
8, 13008, Note_off_c, 11, 51, 64
8, 13008, Note_on_c, 11, 47, 100
8, 13008, Note_on_c, 11, 59, 100
8, 13056, Note_off_c, 11, 59, 64
8, 13056, Note_off_c, 11, 47, 64
8, 13056, Note_on_c, 11, 52, 100
8, 13056, Note_on_c, 11, 64, 100
8, 13104, Note_off_c, 11, 64, 64
8, 13104, Note_off_c, 11, 52, 64
8, 13104, Note_on_c, 11, 52, 100
8, 13104, Note_on_c, 11, 64, 100
8, 13152, Note_off_c, 11, 64, 64
8, 13152, Note_off_c, 11, 52, 64
8, 13152, Note_on_c, 11, 68, 100
8, 13200, Note_off_c, 11, 68, 64
8, 13200, Note_on_c, 11, 52, 100
8, 13200, Note_on_c, 11, 64, 100
8, 13248, Note_off_c, 11, 64, 64
8, 13248, Note_off_c, 11, 52, 64
8, 13248, Note_on_c, 11, 52, 100
8, 13248, Note_on_c, 11, 64, 100
8, 13296, Note_off_c, 11, 64, 64
8, 13296, Note_off_c, 11, 52, 64
8, 13296, Note_on_c, 11, 52, 100
8, 13296, Note_on_c, 11, 64, 100
8, 13344, Note_off_c, 11, 64, 64
8, 13344, Note_off_c, 11, 52, 64
8, 13344, Note_on_c, 11, 68, 100
8, 13392, Note_off_c, 11, 68, 64
8, 13392, Note_on_c, 11, 52, 100
8, 13392, Note_on_c, 11, 64, 100
8, 13440, Note_off_c, 11, 64, 64
8, 13440, Note_off_c, 11, 52, 64
8, 13440, Note_on_c, 11, 52, 100
8, 13440, Note_on_c, 11, 64, 100
8, 13488, Note_off_c, 11, 64, 64
8, 13488, Note_off_c, 11, 52, 64
8, 13488, Note_on_c, 11, 52, 100
8, 13488, Note_on_c, 11, 64, 100
8, 13536, Note_off_c, 11, 64, 64
8, 13536, Note_off_c, 11, 52, 64
8, 13584, Note_on_c, 11, 52, 100
8, 13584, Note_on_c, 11, 64, 100
8, 13632, Note_off_c, 11, 52, 64
8, 13632, Note_off_c, 11, 64, 64
8, 13632, Note_on_c, 11, 52, 100
8, 13632, Note_on_c, 11, 64, 100
8, 13680, Note_off_c, 11, 64, 64
8, 13680, Note_off_c, 11, 52, 64
8, 13680, Note_on_c, 11, 52, 100
8, 13680, Note_on_c, 11, 64, 100
8, 13728, Note_off_c, 11, 64, 64
8, 13728, Note_off_c, 11, 52, 64
8, 13776, Note_on_c, 11, 52, 100
8, 13776, Note_on_c, 11, 64, 100
8, 13824, Note_off_c, 11, 64, 64
8, 13824, Note_off_c, 11, 52, 64
8, 13824, Note_on_c, 11, 47, 100
8, 13824, Note_on_c, 11, 59, 100
8, 13872, Note_off_c, 11, 59, 64
8, 13872, Note_off_c, 11, 47, 64
8, 13872, Note_on_c, 11, 47, 100
8, 13872, Note_on_c, 11, 59, 100
8, 13920, Note_off_c, 11, 59, 64
8, 13920, Note_off_c, 11, 47, 64
8, 13920, Note_on_c, 11, 51, 100
8, 13920, Note_on_c, 11, 63, 100
8, 13968, Note_off_c, 11, 63, 64
8, 13968, Note_off_c, 11, 51, 64
8, 13968, Note_on_c, 11, 47, 100
8, 13968, Note_on_c, 11, 59, 100
8, 14016, Note_off_c, 11, 59, 64
8, 14016, Note_off_c, 11, 47, 64
8, 14016, Note_on_c, 11, 47, 100
8, 14016, Note_on_c, 11, 59, 100
8, 14064, Note_off_c, 11, 59, 64
8, 14064, Note_off_c, 11, 47, 64
8, 14064, Note_on_c, 11, 47, 100
8, 14064, Note_on_c, 11, 59, 100
8, 14112, Note_off_c, 11, 59, 64
8, 14112, Note_off_c, 11, 47, 64
8, 14112, Note_on_c, 11, 51, 100
8, 14112, Note_on_c, 11, 63, 100
8, 14160, Note_off_c, 11, 63, 64
8, 14160, Note_off_c, 11, 51, 64
8, 14160, Note_on_c, 11, 47, 100
8, 14160, Note_on_c, 11, 59, 100
8, 14208, Note_off_c, 11, 59, 64
8, 14208, Note_off_c, 11, 47, 64
8, 14208, Note_on_c, 11, 59, 100
8, 14208, Note_on_c, 11, 47, 100
8, 14256, Note_off_c, 11, 47, 64
8, 14256, Note_off_c, 11, 59, 64
8, 14256, Note_on_c, 11, 59, 100
8, 14256, Note_on_c, 11, 47, 100
8, 14304, Note_off_c, 11, 47, 64
8, 14304, Note_off_c, 11, 59, 64
8, 14304, Note_on_c, 11, 59, 100
8, 14304, Note_on_c, 11, 47, 100
8, 14352, Note_off_c, 11, 47, 64
8, 14352, Note_off_c, 11, 59, 64
8, 14352, Note_on_c, 11, 59, 100
8, 14352, Note_on_c, 11, 47, 100
8, 14400, Note_off_c, 11, 47, 64
8, 14400, Note_off_c, 11, 59, 64
8, 14400, Note_on_c, 11, 59, 100
8, 14400, Note_on_c, 11, 47, 100
8, 14448, Note_off_c, 11, 47, 64
8, 14448, Note_off_c, 11, 59, 64
8, 14448, Note_on_c, 11, 59, 100
8, 14448, Note_on_c, 11, 47, 100
8, 14496, Note_off_c, 11, 47, 64
8, 14496, Note_off_c, 11, 59, 64
8, 14496, Note_on_c, 11, 59, 100
8, 14496, Note_on_c, 11, 47, 100
8, 14544, Note_off_c, 11, 47, 64
8, 14544, Note_off_c, 11, 59, 64
8, 14544, Note_on_c, 11, 59, 100
8, 14544, Note_on_c, 11, 47, 100
8, 14592, Note_off_c, 11, 47, 64
8, 14592, Note_off_c, 11, 59, 64
8, 14592, Note_on_c, 11, 51, 100
8, 14592, Note_on_c, 11, 63, 100
8, 14640, Note_off_c, 11, 63, 64
8, 14640, Note_off_c, 11, 51, 64
8, 14688, Note_on_c, 11, 51, 100
8, 14688, Note_on_c, 11, 63, 100
8, 14736, Note_off_c, 11, 63, 64
8, 14736, Note_off_c, 11, 51, 64
8, 14976, Note_on_c, 11, 63, 100
8, 14976, Note_on_c, 11, 51, 100
8, 15024, Note_off_c, 11, 51, 64
8, 15024, Note_off_c, 11, 63, 64
8, 15072, Note_on_c, 11, 47, 100
8, 15072, Note_on_c, 11, 59, 100
8, 15120, Note_off_c, 11, 59, 64
8, 15120, Note_off_c, 11, 47, 64
8, 15360, Note_on_c, 11, 51, 100
8, 15360, Note_on_c, 11, 63, 100
8, 15408, Note_off_c, 11, 63, 64
8, 15408, Note_off_c, 11, 51, 64
8, 15456, Note_on_c, 11, 63, 100
8, 15456, Note_on_c, 11, 51, 100
8, 15504, Note_off_c, 11, 51, 64
8, 15504, Note_off_c, 11, 63, 64
8, 15744, Note_on_c, 11, 51, 100
8, 15744, Note_on_c, 11, 63, 100
8, 15792, Note_off_c, 11, 63, 64
8, 15792, Note_off_c, 11, 51, 64
8, 15840, Note_on_c, 11, 47, 100
8, 15840, Note_on_c, 11, 59, 100
8, 15888, Note_off_c, 11, 59, 64
8, 15888, Note_off_c, 11, 47, 64
8, 16128, Note_on_c, 11, 51, 100
8, 16128, Note_on_c, 11, 63, 100
8, 16176, Note_off_c, 11, 63, 64
8, 16176, Note_off_c, 11, 51, 64
8, 16224, Note_on_c, 11, 51, 100
8, 16224, Note_on_c, 11, 63, 100
8, 16272, Note_off_c, 11, 51, 64
8, 16272, Note_off_c, 11, 63, 64
8, 16512, Note_on_c, 11, 51, 100
8, 16512, Note_on_c, 11, 63, 100
8, 16560, Note_off_c, 11, 63, 64
8, 16560, Note_off_c, 11, 51, 64
8, 16608, Note_on_c, 11, 47, 100
8, 16608, Note_on_c, 11, 59, 100
8, 16656, Note_off_c, 11, 47, 64
8, 16656, Note_off_c, 11, 59, 64
8, 16896, Note_on_c, 11, 51, 100
8, 16896, Note_on_c, 11, 63, 100
8, 16944, Note_off_c, 11, 63, 64
8, 16944, Note_off_c, 11, 51, 64
8, 16992, Note_on_c, 11, 51, 100
8, 16992, Note_on_c, 11, 63, 100
8, 17040, Note_off_c, 11, 51, 64
8, 17040, Note_off_c, 11, 63, 64
8, 17280, Note_on_c, 11, 51, 100
8, 17280, Note_on_c, 11, 63, 100
8, 17328, Note_off_c, 11, 63, 64
8, 17328, Note_off_c, 11, 51, 64
8, 17376, Note_on_c, 11, 47, 100
8, 17376, Note_on_c, 11, 59, 100
8, 17424, Note_off_c, 11, 47, 64
8, 17424, Note_off_c, 11, 59, 64
8, 17664, Note_on_c, 11, 51, 100
8, 17664, Note_on_c, 11, 63, 100
8, 17712, Note_off_c, 11, 63, 64
8, 17712, Note_off_c, 11, 51, 64
8, 17760, Note_on_c, 11, 51, 100
8, 17760, Note_on_c, 11, 63, 100
8, 17808, Note_off_c, 11, 63, 64
8, 17808, Note_off_c, 11, 51, 64
8, 18048, Note_on_c, 11, 63, 100
8, 18048, Note_on_c, 11, 51, 100
8, 18096, Note_off_c, 11, 51, 64
8, 18096, Note_off_c, 11, 63, 64
8, 18144, Note_on_c, 11, 47, 100
8, 18144, Note_on_c, 11, 59, 100
8, 18192, Note_off_c, 11, 59, 64
8, 18192, Note_off_c, 11, 47, 64
8, 18432, Note_on_c, 11, 51, 100
8, 18432, Note_on_c, 11, 63, 100
8, 18480, Note_off_c, 11, 63, 64
8, 18480, Note_off_c, 11, 51, 64
8, 18528, Note_on_c, 11, 63, 100
8, 18528, Note_on_c, 11, 51, 100
8, 18576, Note_off_c, 11, 63, 64
8, 18576, Note_off_c, 11, 51, 64
8, 18816, Note_on_c, 11, 51, 100
8, 18816, Note_on_c, 11, 63, 100
8, 18864, Note_off_c, 11, 63, 64
8, 18864, Note_off_c, 11, 51, 64
8, 18912, Note_on_c, 11, 47, 100
8, 18912, Note_on_c, 11, 59, 100
8, 18960, Note_off_c, 11, 59, 64
8, 18960, Note_off_c, 11, 47, 64
8, 19200, Note_on_c, 11, 51, 100
8, 19200, Note_on_c, 11, 63, 100
8, 19248, Note_off_c, 11, 63, 64
8, 19248, Note_off_c, 11, 51, 64
8, 19296, Note_on_c, 11, 51, 100
8, 19296, Note_on_c, 11, 63, 100
8, 19344, Note_off_c, 11, 51, 64
8, 19344, Note_off_c, 11, 63, 64
8, 19584, Note_on_c, 11, 51, 100
8, 19584, Note_on_c, 11, 63, 100
8, 19632, Note_off_c, 11, 63, 64
8, 19632, Note_off_c, 11, 51, 64
8, 19680, Note_on_c, 11, 47, 100
8, 19680, Note_on_c, 11, 59, 100
8, 19728, Note_off_c, 11, 59, 64
8, 19728, Note_off_c, 11, 47, 64
8, 19968, Note_on_c, 11, 51, 100
8, 19968, Note_on_c, 11, 63, 100
8, 20016, Note_off_c, 11, 63, 64
8, 20016, Note_off_c, 11, 51, 64
8, 20064, Note_on_c, 11, 51, 100
8, 20064, Note_on_c, 11, 63, 100
8, 20112, Note_off_c, 11, 51, 64
8, 20112, Note_off_c, 11, 63, 64
8, 20352, Note_on_c, 11, 51, 100
8, 20352, Note_on_c, 11, 63, 100
8, 20400, Note_off_c, 11, 63, 64
8, 20400, Note_off_c, 11, 51, 64
8, 20448, Note_on_c, 11, 47, 100
8, 20448, Note_on_c, 11, 59, 100
8, 20496, Note_off_c, 11, 59, 64
8, 20496, Note_off_c, 11, 47, 64
8, 20736, Note_on_c, 11, 47, 100
8, 20736, Note_on_c, 11, 59, 100
8, 20784, Note_off_c, 11, 59, 64
8, 20784, Note_off_c, 11, 47, 64
8, 20784, Note_on_c, 11, 47, 100
8, 20784, Note_on_c, 11, 59, 100
8, 20832, Note_off_c, 11, 59, 64
8, 20832, Note_off_c, 11, 47, 64
8, 20832, Note_on_c, 11, 51, 100
8, 20832, Note_on_c, 11, 63, 100
8, 20880, Note_off_c, 11, 63, 64
8, 20880, Note_off_c, 11, 51, 64
8, 20880, Note_on_c, 11, 47, 100
8, 20880, Note_on_c, 11, 59, 100
8, 20928, Note_off_c, 11, 59, 64
8, 20928, Note_off_c, 11, 47, 64
8, 20928, Note_on_c, 11, 47, 100
8, 20928, Note_on_c, 11, 59, 100
8, 20976, Note_off_c, 11, 59, 64
8, 20976, Note_off_c, 11, 47, 64
8, 20976, Note_on_c, 11, 47, 100
8, 20976, Note_on_c, 11, 59, 100
8, 21024, Note_off_c, 11, 59, 64
8, 21024, Note_off_c, 11, 47, 64
8, 21024, Note_on_c, 11, 51, 100
8, 21024, Note_on_c, 11, 63, 100
8, 21072, Note_off_c, 11, 63, 64
8, 21072, Note_off_c, 11, 51, 64
8, 21072, Note_on_c, 11, 47, 100
8, 21072, Note_on_c, 11, 59, 100
8, 21120, Note_off_c, 11, 59, 64
8, 21120, Note_off_c, 11, 47, 64
8, 21120, Note_on_c, 11, 47, 100
8, 21120, Note_on_c, 11, 59, 100
8, 21168, Note_off_c, 11, 59, 64
8, 21168, Note_off_c, 11, 47, 64
8, 21168, Note_on_c, 11, 47, 100
8, 21168, Note_on_c, 11, 59, 100
8, 21216, Note_off_c, 11, 59, 64
8, 21216, Note_off_c, 11, 47, 64
8, 21216, Note_on_c, 11, 51, 100
8, 21216, Note_on_c, 11, 63, 100
8, 21264, Note_off_c, 11, 63, 64
8, 21264, Note_off_c, 11, 51, 64
8, 21264, Note_on_c, 11, 47, 100
8, 21264, Note_on_c, 11, 59, 100
8, 21312, Note_off_c, 11, 59, 64
8, 21312, Note_off_c, 11, 47, 64
8, 21312, Note_on_c, 11, 47, 100
8, 21312, Note_on_c, 11, 59, 100
8, 21360, Note_off_c, 11, 59, 64
8, 21360, Note_off_c, 11, 47, 64
8, 21360, Note_on_c, 11, 47, 100
8, 21360, Note_on_c, 11, 59, 100
8, 21408, Note_off_c, 11, 59, 64
8, 21408, Note_off_c, 11, 47, 64
8, 21408, Note_on_c, 11, 51, 100
8, 21408, Note_on_c, 11, 63, 100
8, 21456, Note_off_c, 11, 63, 64
8, 21456, Note_off_c, 11, 51, 64
8, 21456, Note_on_c, 11, 47, 100
8, 21456, Note_on_c, 11, 59, 100
8, 21504, Note_off_c, 11, 59, 64
8, 21504, Note_off_c, 11, 47, 64
8, 21504, Note_on_c, 11, 47, 100
8, 21504, Note_on_c, 11, 59, 100
8, 21552, Note_off_c, 11, 59, 64
8, 21552, Note_off_c, 11, 47, 64
8, 21552, Note_on_c, 11, 47, 100
8, 21552, Note_on_c, 11, 59, 100
8, 21600, Note_off_c, 11, 59, 64
8, 21600, Note_off_c, 11, 47, 64
8, 21600, Note_on_c, 11, 51, 100
8, 21600, Note_on_c, 11, 63, 100
8, 21648, Note_off_c, 11, 63, 64
8, 21648, Note_off_c, 11, 51, 64
8, 21648, Note_on_c, 11, 47, 100
8, 21648, Note_on_c, 11, 59, 100
8, 21696, Note_off_c, 11, 59, 64
8, 21696, Note_off_c, 11, 47, 64
8, 21696, Note_on_c, 11, 47, 100
8, 21696, Note_on_c, 11, 59, 100
8, 21744, Note_off_c, 11, 59, 64
8, 21744, Note_off_c, 11, 47, 64
8, 21744, Note_on_c, 11, 47, 100
8, 21744, Note_on_c, 11, 59, 100
8, 21792, Note_off_c, 11, 59, 64
8, 21792, Note_off_c, 11, 47, 64
8, 21792, Note_on_c, 11, 51, 100
8, 21792, Note_on_c, 11, 63, 100
8, 21840, Note_off_c, 11, 63, 64
8, 21840, Note_off_c, 11, 51, 64
8, 21840, Note_on_c, 11, 47, 100
8, 21840, Note_on_c, 11, 59, 100
8, 21888, Note_off_c, 11, 59, 64
8, 21888, Note_off_c, 11, 47, 64
8, 21888, Note_on_c, 11, 52, 100
8, 21888, Note_on_c, 11, 64, 100
8, 21936, Note_off_c, 11, 64, 64
8, 21936, Note_off_c, 11, 52, 64
8, 21936, Note_on_c, 11, 52, 100
8, 21936, Note_on_c, 11, 64, 100
8, 21984, Note_off_c, 11, 64, 64
8, 21984, Note_off_c, 11, 52, 64
8, 21984, Note_on_c, 11, 68, 100
8, 22032, Note_off_c, 11, 68, 64
8, 22032, Note_on_c, 11, 52, 100
8, 22032, Note_on_c, 11, 64, 100
8, 22080, Note_off_c, 11, 64, 64
8, 22080, Note_off_c, 11, 52, 64
8, 22080, Note_on_c, 11, 52, 100
8, 22080, Note_on_c, 11, 64, 100
8, 22128, Note_off_c, 11, 64, 64
8, 22128, Note_off_c, 11, 52, 64
8, 22128, Note_on_c, 11, 52, 100
8, 22128, Note_on_c, 11, 64, 100
8, 22176, Note_off_c, 11, 64, 64
8, 22176, Note_off_c, 11, 52, 64
8, 22176, Note_on_c, 11, 68, 100
8, 22224, Note_off_c, 11, 68, 64
8, 22224, Note_on_c, 11, 52, 100
8, 22224, Note_on_c, 11, 64, 100
8, 22272, Note_off_c, 11, 52, 64
8, 22272, Note_off_c, 11, 64, 64
8, 22272, Note_on_c, 11, 52, 100
8, 22272, Note_on_c, 11, 64, 100
8, 22320, Note_off_c, 11, 64, 64
8, 22320, Note_off_c, 11, 52, 64
8, 22320, Note_on_c, 11, 52, 100
8, 22320, Note_on_c, 11, 64, 100
8, 22368, Note_off_c, 11, 64, 64
8, 22368, Note_off_c, 11, 52, 64
8, 22416, Note_on_c, 11, 52, 100
8, 22416, Note_on_c, 11, 64, 100
8, 22464, Note_off_c, 11, 52, 64
8, 22464, Note_off_c, 11, 64, 64
8, 22464, Note_on_c, 11, 52, 100
8, 22464, Note_on_c, 11, 64, 100
8, 22512, Note_off_c, 11, 64, 64
8, 22512, Note_off_c, 11, 52, 64
8, 22512, Note_on_c, 11, 52, 100
8, 22512, Note_on_c, 11, 64, 100
8, 22560, Note_off_c, 11, 64, 64
8, 22560, Note_off_c, 11, 52, 64
8, 22608, Note_on_c, 11, 52, 100
8, 22608, Note_on_c, 11, 64, 100
8, 22656, Note_off_c, 11, 52, 64
8, 22656, Note_off_c, 11, 64, 64
8, 22656, Note_on_c, 11, 47, 100
8, 22656, Note_on_c, 11, 59, 100
8, 22704, Note_off_c, 11, 59, 64
8, 22704, Note_off_c, 11, 47, 64
8, 22704, Note_on_c, 11, 47, 100
8, 22704, Note_on_c, 11, 59, 100
8, 22752, Note_off_c, 11, 59, 64
8, 22752, Note_off_c, 11, 47, 64
8, 22752, Note_on_c, 11, 51, 100
8, 22752, Note_on_c, 11, 63, 100
8, 22800, Note_off_c, 11, 51, 64
8, 22800, Note_off_c, 11, 63, 64
8, 22800, Note_on_c, 11, 47, 100
8, 22800, Note_on_c, 11, 59, 100
8, 22848, Note_off_c, 11, 59, 64
8, 22848, Note_off_c, 11, 47, 64
8, 22848, Note_on_c, 11, 47, 100
8, 22848, Note_on_c, 11, 59, 100
8, 22896, Note_off_c, 11, 59, 64
8, 22896, Note_off_c, 11, 47, 64
8, 22896, Note_on_c, 11, 47, 100
8, 22896, Note_on_c, 11, 59, 100
8, 22944, Note_off_c, 11, 59, 64
8, 22944, Note_off_c, 11, 47, 64
8, 22944, Note_on_c, 11, 51, 100
8, 22944, Note_on_c, 11, 63, 100
8, 22992, Note_off_c, 11, 51, 64
8, 22992, Note_off_c, 11, 63, 64
8, 22992, Note_on_c, 11, 47, 100
8, 22992, Note_on_c, 11, 59, 100
8, 23040, Note_off_c, 11, 59, 64
8, 23040, Note_off_c, 11, 47, 64
8, 23040, Note_on_c, 11, 59, 100
8, 23040, Note_on_c, 11, 47, 100
8, 23088, Note_off_c, 11, 47, 64
8, 23088, Note_off_c, 11, 59, 64
8, 23088, Note_on_c, 11, 59, 100
8, 23088, Note_on_c, 11, 47, 100
8, 23136, Note_off_c, 11, 47, 64
8, 23136, Note_off_c, 11, 59, 64
8, 23136, Note_on_c, 11, 59, 100
8, 23136, Note_on_c, 11, 47, 100
8, 23184, Note_off_c, 11, 59, 64
8, 23184, Note_off_c, 11, 47, 64
8, 23184, Note_on_c, 11, 59, 100
8, 23184, Note_on_c, 11, 47, 100
8, 23232, Note_off_c, 11, 47, 64
8, 23232, Note_off_c, 11, 59, 64
8, 23232, Note_on_c, 11, 59, 100
8, 23232, Note_on_c, 11, 47, 100
8, 23280, Note_off_c, 11, 47, 64
8, 23280, Note_off_c, 11, 59, 64
8, 23280, Note_on_c, 11, 59, 100
8, 23280, Note_on_c, 11, 47, 100
8, 23328, Note_off_c, 11, 47, 64
8, 23328, Note_off_c, 11, 59, 64
8, 23328, Note_on_c, 11, 59, 100
8, 23328, Note_on_c, 11, 47, 100
8, 23376, Note_off_c, 11, 59, 64
8, 23376, Note_off_c, 11, 47, 64
8, 23376, Note_on_c, 11, 59, 100
8, 23376, Note_on_c, 11, 47, 100
8, 23424, Note_off_c, 11, 47, 64
8, 23424, Note_off_c, 11, 59, 64
8, 23424, Note_on_c, 11, 51, 100
8, 23424, Note_on_c, 11, 63, 100
8, 23472, Note_off_c, 11, 63, 64
8, 23472, Note_off_c, 11, 51, 64
8, 23520, Note_on_c, 11, 51, 100
8, 23520, Note_on_c, 11, 63, 100
8, 23568, Note_off_c, 11, 63, 64
8, 23568, Note_off_c, 11, 51, 64
8, 23808, Note_on_c, 11, 63, 100
8, 23808, Note_on_c, 11, 51, 100
8, 23856, Note_off_c, 11, 51, 64
8, 23856, Note_off_c, 11, 63, 64
8, 23904, Note_on_c, 11, 47, 100
8, 23904, Note_on_c, 11, 59, 100
8, 23952, Note_off_c, 11, 59, 64
8, 23952, Note_off_c, 11, 47, 64
8, 24192, Note_on_c, 11, 51, 100
8, 24192, Note_on_c, 11, 63, 100
8, 24240, Note_off_c, 11, 63, 64
8, 24240, Note_off_c, 11, 51, 64
8, 24288, Note_on_c, 11, 63, 100
8, 24288, Note_on_c, 11, 51, 100
8, 24336, Note_off_c, 11, 51, 64
8, 24336, Note_off_c, 11, 63, 64
8, 24576, Note_on_c, 11, 51, 100
8, 24576, Note_on_c, 11, 63, 100
8, 24624, Note_off_c, 11, 63, 64
8, 24624, Note_off_c, 11, 51, 64
8, 24672, Note_on_c, 11, 47, 100
8, 24672, Note_on_c, 11, 59, 100
8, 24720, Note_off_c, 11, 59, 64
8, 24720, Note_off_c, 11, 47, 64
8, 24960, Note_on_c, 11, 51, 100
8, 24960, Note_on_c, 11, 63, 100
8, 25008, Note_off_c, 11, 63, 64
8, 25008, Note_off_c, 11, 51, 64
8, 25056, Note_on_c, 11, 51, 100
8, 25056, Note_on_c, 11, 63, 100
8, 25104, Note_off_c, 11, 51, 64
8, 25104, Note_off_c, 11, 63, 64
8, 25344, Note_on_c, 11, 51, 100
8, 25344, Note_on_c, 11, 63, 100
8, 25392, Note_off_c, 11, 63, 64
8, 25392, Note_off_c, 11, 51, 64
8, 25440, Note_on_c, 11, 47, 100
8, 25440, Note_on_c, 11, 59, 100
8, 25488, Note_off_c, 11, 59, 64
8, 25488, Note_off_c, 11, 47, 64
8, 25728, Note_on_c, 11, 51, 100
8, 25728, Note_on_c, 11, 63, 100
8, 25776, Note_off_c, 11, 63, 64
8, 25776, Note_off_c, 11, 51, 64
8, 25824, Note_on_c, 11, 51, 100
8, 25824, Note_on_c, 11, 63, 100
8, 25872, Note_off_c, 11, 51, 64
8, 25872, Note_off_c, 11, 63, 64
8, 26112, Note_on_c, 11, 51, 100
8, 26112, Note_on_c, 11, 63, 100
8, 26160, Note_off_c, 11, 63, 64
8, 26160, Note_off_c, 11, 51, 64
8, 26208, Note_on_c, 11, 47, 100
8, 26208, Note_on_c, 11, 59, 100
8, 26256, Note_off_c, 11, 59, 64
8, 26256, Note_off_c, 11, 47, 64
8, 28800, Note_on_c, 11, 51, 100
8, 28800, Note_on_c, 11, 63, 100
8, 28848, Note_off_c, 11, 63, 64
8, 28848, Note_off_c, 11, 51, 64
8, 28896, Note_on_c, 11, 51, 100
8, 28896, Note_on_c, 11, 63, 100
8, 28944, Note_off_c, 11, 63, 64
8, 28944, Note_off_c, 11, 51, 64
8, 29184, Note_on_c, 11, 63, 100
8, 29184, Note_on_c, 11, 51, 100
8, 29232, Note_off_c, 11, 51, 64
8, 29232, Note_off_c, 11, 63, 64
8, 29280, Note_on_c, 11, 47, 100
8, 29280, Note_on_c, 11, 59, 100
8, 29328, Note_off_c, 11, 59, 64
8, 29328, Note_off_c, 11, 47, 64
8, 29568, Note_on_c, 11, 51, 100
8, 29568, Note_on_c, 11, 63, 100
8, 29616, Note_off_c, 11, 63, 64
8, 29616, Note_off_c, 11, 51, 64
8, 29664, Note_on_c, 11, 63, 100
8, 29664, Note_on_c, 11, 51, 100
8, 29712, Note_off_c, 11, 51, 64
8, 29712, Note_off_c, 11, 63, 64
8, 29952, Note_on_c, 11, 51, 100
8, 29952, Note_on_c, 11, 63, 100
8, 30000, Note_off_c, 11, 63, 64
8, 30000, Note_off_c, 11, 51, 64
8, 30048, Note_on_c, 11, 47, 100
8, 30048, Note_on_c, 11, 59, 100
8, 30096, Note_off_c, 11, 59, 64
8, 30096, Note_off_c, 11, 47, 64
8, 30336, Note_on_c, 11, 51, 100
8, 30336, Note_on_c, 11, 63, 100
8, 30384, Note_off_c, 11, 63, 64
8, 30384, Note_off_c, 11, 51, 64
8, 30432, Note_on_c, 11, 51, 100
8, 30432, Note_on_c, 11, 63, 100
8, 30480, Note_off_c, 11, 63, 64
8, 30480, Note_off_c, 11, 51, 64
8, 30720, Note_on_c, 11, 51, 100
8, 30720, Note_on_c, 11, 63, 100
8, 30768, Note_off_c, 11, 63, 64
8, 30768, Note_off_c, 11, 51, 64
8, 30816, Note_on_c, 11, 47, 100
8, 30816, Note_on_c, 11, 59, 100
8, 30864, Note_off_c, 11, 59, 64
8, 30864, Note_off_c, 11, 47, 64
8, 31104, Note_on_c, 11, 51, 100
8, 31104, Note_on_c, 11, 63, 100
8, 31152, Note_off_c, 11, 63, 64
8, 31152, Note_off_c, 11, 51, 64
8, 31200, Note_on_c, 11, 51, 100
8, 31200, Note_on_c, 11, 63, 100
8, 31248, Note_off_c, 11, 63, 64
8, 31248, Note_off_c, 11, 51, 64
8, 31488, Note_on_c, 11, 51, 100
8, 31488, Note_on_c, 11, 63, 100
8, 31536, Note_off_c, 11, 63, 64
8, 31536, Note_off_c, 11, 51, 64
8, 31584, Note_on_c, 11, 47, 100
8, 31584, Note_on_c, 11, 59, 100
8, 31632, Note_off_c, 11, 59, 64
8, 31632, Note_off_c, 11, 47, 64
8, 31872, Note_on_c, 11, 51, 100
8, 31872, Note_on_c, 11, 63, 100
8, 31920, Note_off_c, 11, 63, 64
8, 31920, Note_off_c, 11, 51, 64
8, 31968, Note_on_c, 11, 51, 100
8, 31968, Note_on_c, 11, 63, 100
8, 32016, Note_off_c, 11, 63, 64
8, 32016, Note_off_c, 11, 51, 64
8, 32256, Note_on_c, 11, 63, 100
8, 32256, Note_on_c, 11, 51, 100
8, 32304, Note_off_c, 11, 51, 64
8, 32304, Note_off_c, 11, 63, 64
8, 32352, Note_on_c, 11, 47, 100
8, 32352, Note_on_c, 11, 59, 100
8, 32400, Note_off_c, 11, 59, 64
8, 32400, Note_off_c, 11, 47, 64
8, 32640, Note_on_c, 11, 51, 100
8, 32640, Note_on_c, 11, 63, 100
8, 32688, Note_off_c, 11, 63, 64
8, 32688, Note_off_c, 11, 51, 64
8, 32736, Note_on_c, 11, 63, 100
8, 32736, Note_on_c, 11, 51, 100
8, 32784, Note_off_c, 11, 51, 64
8, 32784, Note_off_c, 11, 63, 64
8, 33024, Note_on_c, 11, 51, 100
8, 33024, Note_on_c, 11, 63, 100
8, 33072, Note_off_c, 11, 63, 64
8, 33072, Note_off_c, 11, 51, 64
8, 33120, Note_on_c, 11, 47, 100
8, 33120, Note_on_c, 11, 59, 100
8, 33168, Note_off_c, 11, 59, 64
8, 33168, Note_off_c, 11, 47, 64
8, 33408, Note_on_c, 11, 51, 100
8, 33408, Note_on_c, 11, 63, 100
8, 33456, Note_off_c, 11, 63, 64
8, 33456, Note_off_c, 11, 51, 64
8, 33504, Note_on_c, 11, 51, 100
8, 33504, Note_on_c, 11, 63, 100
8, 33552, Note_off_c, 11, 63, 64
8, 33552, Note_off_c, 11, 51, 64
8, 33792, Note_on_c, 11, 51, 100
8, 33792, Note_on_c, 11, 63, 100
8, 33840, Note_off_c, 11, 63, 64
8, 33840, Note_off_c, 11, 51, 64
8, 33888, Note_on_c, 11, 47, 100
8, 33888, Note_on_c, 11, 59, 100
8, 33936, Note_off_c, 11, 59, 64
8, 33936, Note_off_c, 11, 47, 64
8, 34176, Note_on_c, 11, 51, 100
8, 34176, Note_on_c, 11, 63, 100
8, 34224, Note_off_c, 11, 63, 64
8, 34224, Note_off_c, 11, 51, 64
8, 34272, Note_on_c, 11, 51, 100
8, 34272, Note_on_c, 11, 63, 100
8, 34320, Note_off_c, 11, 63, 64
8, 34320, Note_off_c, 11, 51, 64
8, 34560, Note_on_c, 11, 51, 100
8, 34560, Note_on_c, 11, 63, 100
8, 34608, Note_off_c, 11, 63, 64
8, 34608, Note_off_c, 11, 51, 64
8, 34656, Note_on_c, 11, 47, 100
8, 34656, Note_on_c, 11, 59, 100
8, 34704, Note_off_c, 11, 59, 64
8, 34704, Note_off_c, 11, 47, 64
8, 34944, Note_on_c, 11, 47, 100
8, 34944, Note_on_c, 11, 59, 100
8, 34992, Note_off_c, 11, 59, 64
8, 34992, Note_off_c, 11, 47, 64
8, 34992, Note_on_c, 11, 47, 100
8, 34992, Note_on_c, 11, 59, 100
8, 35040, Note_off_c, 11, 59, 64
8, 35040, Note_off_c, 11, 47, 64
8, 35040, Note_on_c, 11, 51, 100
8, 35040, Note_on_c, 11, 63, 100
8, 35088, Note_off_c, 11, 63, 64
8, 35088, Note_off_c, 11, 51, 64
8, 35088, Note_on_c, 11, 47, 100
8, 35088, Note_on_c, 11, 59, 100
8, 35136, Note_off_c, 11, 59, 64
8, 35136, Note_off_c, 11, 47, 64
8, 35136, Note_on_c, 11, 47, 100
8, 35136, Note_on_c, 11, 59, 100
8, 35184, Note_off_c, 11, 59, 64
8, 35184, Note_off_c, 11, 47, 64
8, 35184, Note_on_c, 11, 47, 100
8, 35184, Note_on_c, 11, 59, 100
8, 35232, Note_off_c, 11, 59, 64
8, 35232, Note_off_c, 11, 47, 64
8, 35232, Note_on_c, 11, 51, 100
8, 35232, Note_on_c, 11, 63, 100
8, 35280, Note_off_c, 11, 63, 64
8, 35280, Note_off_c, 11, 51, 64
8, 35280, Note_on_c, 11, 47, 100
8, 35280, Note_on_c, 11, 59, 100
8, 35328, Note_off_c, 11, 59, 64
8, 35328, Note_off_c, 11, 47, 64
8, 35328, Note_on_c, 11, 47, 100
8, 35328, Note_on_c, 11, 59, 100
8, 35376, Note_off_c, 11, 59, 64
8, 35376, Note_off_c, 11, 47, 64
8, 35376, Note_on_c, 11, 47, 100
8, 35376, Note_on_c, 11, 59, 100
8, 35424, Note_off_c, 11, 59, 64
8, 35424, Note_off_c, 11, 47, 64
8, 35424, Note_on_c, 11, 51, 100
8, 35424, Note_on_c, 11, 63, 100
8, 35472, Note_off_c, 11, 63, 64
8, 35472, Note_off_c, 11, 51, 64
8, 35472, Note_on_c, 11, 47, 100
8, 35472, Note_on_c, 11, 59, 100
8, 35520, Note_off_c, 11, 59, 64
8, 35520, Note_off_c, 11, 47, 64
8, 35520, Note_on_c, 11, 47, 100
8, 35520, Note_on_c, 11, 59, 100
8, 35568, Note_off_c, 11, 59, 64
8, 35568, Note_off_c, 11, 47, 64
8, 35568, Note_on_c, 11, 47, 100
8, 35568, Note_on_c, 11, 59, 100
8, 35616, Note_off_c, 11, 59, 64
8, 35616, Note_off_c, 11, 47, 64
8, 35616, Note_on_c, 11, 51, 100
8, 35616, Note_on_c, 11, 63, 100
8, 35664, Note_off_c, 11, 63, 64
8, 35664, Note_off_c, 11, 51, 64
8, 35664, Note_on_c, 11, 47, 100
8, 35664, Note_on_c, 11, 59, 100
8, 35712, Note_off_c, 11, 59, 64
8, 35712, Note_off_c, 11, 47, 64
8, 35712, Note_on_c, 11, 47, 100
8, 35712, Note_on_c, 11, 59, 100
8, 35760, Note_off_c, 11, 59, 64
8, 35760, Note_off_c, 11, 47, 64
8, 35760, Note_on_c, 11, 47, 100
8, 35760, Note_on_c, 11, 59, 100
8, 35808, Note_off_c, 11, 59, 64
8, 35808, Note_off_c, 11, 47, 64
8, 35808, Note_on_c, 11, 51, 100
8, 35808, Note_on_c, 11, 63, 100
8, 35856, Note_off_c, 11, 63, 64
8, 35856, Note_off_c, 11, 51, 64
8, 35856, Note_on_c, 11, 47, 100
8, 35856, Note_on_c, 11, 59, 100
8, 35904, Note_off_c, 11, 59, 64
8, 35904, Note_off_c, 11, 47, 64
8, 35904, Note_on_c, 11, 47, 100
8, 35904, Note_on_c, 11, 59, 100
8, 35952, Note_off_c, 11, 59, 64
8, 35952, Note_off_c, 11, 47, 64
8, 35952, Note_on_c, 11, 47, 100
8, 35952, Note_on_c, 11, 59, 100
8, 36000, Note_off_c, 11, 59, 64
8, 36000, Note_off_c, 11, 47, 64
8, 36000, Note_on_c, 11, 51, 100
8, 36000, Note_on_c, 11, 63, 100
8, 36048, Note_off_c, 11, 63, 64
8, 36048, Note_off_c, 11, 51, 64
8, 36048, Note_on_c, 11, 47, 100
8, 36048, Note_on_c, 11, 59, 100
8, 36096, Note_off_c, 11, 59, 64
8, 36096, Note_off_c, 11, 47, 64
8, 36096, Note_on_c, 11, 52, 100
8, 36096, Note_on_c, 11, 64, 100
8, 36144, Note_off_c, 11, 64, 64
8, 36144, Note_off_c, 11, 52, 64
8, 36144, Note_on_c, 11, 52, 100
8, 36144, Note_on_c, 11, 64, 100
8, 36192, Note_off_c, 11, 64, 64
8, 36192, Note_off_c, 11, 52, 64
8, 36192, Note_on_c, 11, 68, 100
8, 36240, Note_off_c, 11, 68, 64
8, 36240, Note_on_c, 11, 52, 100
8, 36240, Note_on_c, 11, 64, 100
8, 36288, Note_off_c, 11, 64, 64
8, 36288, Note_off_c, 11, 52, 64
8, 36288, Note_on_c, 11, 52, 100
8, 36288, Note_on_c, 11, 64, 100
8, 36336, Note_off_c, 11, 64, 64
8, 36336, Note_off_c, 11, 52, 64
8, 36336, Note_on_c, 11, 52, 100
8, 36336, Note_on_c, 11, 64, 100
8, 36384, Note_off_c, 11, 64, 64
8, 36384, Note_off_c, 11, 52, 64
8, 36384, Note_on_c, 11, 68, 100
8, 36432, Note_off_c, 11, 68, 64
8, 36432, Note_on_c, 11, 52, 100
8, 36432, Note_on_c, 11, 64, 100
8, 36480, Note_off_c, 11, 64, 64
8, 36480, Note_off_c, 11, 52, 64
8, 36480, Note_on_c, 11, 52, 100
8, 36480, Note_on_c, 11, 64, 100
8, 36528, Note_off_c, 11, 64, 64
8, 36528, Note_off_c, 11, 52, 64
8, 36528, Note_on_c, 11, 52, 100
8, 36528, Note_on_c, 11, 64, 100
8, 36576, Note_off_c, 11, 64, 64
8, 36576, Note_off_c, 11, 52, 64
8, 36624, Note_on_c, 11, 52, 100
8, 36624, Note_on_c, 11, 64, 100
8, 36672, Note_off_c, 11, 52, 64
8, 36672, Note_off_c, 11, 64, 64
8, 36672, Note_on_c, 11, 52, 100
8, 36672, Note_on_c, 11, 64, 100
8, 36720, Note_off_c, 11, 64, 64
8, 36720, Note_off_c, 11, 52, 64
8, 36720, Note_on_c, 11, 52, 100
8, 36720, Note_on_c, 11, 64, 100
8, 36768, Note_off_c, 11, 64, 64
8, 36768, Note_off_c, 11, 52, 64
8, 36816, Note_on_c, 11, 52, 100
8, 36816, Note_on_c, 11, 64, 100
8, 36864, Note_off_c, 11, 64, 64
8, 36864, Note_off_c, 11, 52, 64
8, 36864, Note_on_c, 11, 47, 100
8, 36864, Note_on_c, 11, 59, 100
8, 36912, Note_off_c, 11, 59, 64
8, 36912, Note_off_c, 11, 47, 64
8, 36912, Note_on_c, 11, 47, 100
8, 36912, Note_on_c, 11, 59, 100
8, 36960, Note_off_c, 11, 59, 64
8, 36960, Note_off_c, 11, 47, 64
8, 36960, Note_on_c, 11, 51, 100
8, 36960, Note_on_c, 11, 63, 100
8, 37008, Note_off_c, 11, 63, 64
8, 37008, Note_off_c, 11, 51, 64
8, 37008, Note_on_c, 11, 47, 100
8, 37008, Note_on_c, 11, 59, 100
8, 37056, Note_off_c, 11, 59, 64
8, 37056, Note_off_c, 11, 47, 64
8, 37056, Note_on_c, 11, 47, 100
8, 37056, Note_on_c, 11, 59, 100
8, 37104, Note_off_c, 11, 59, 64
8, 37104, Note_off_c, 11, 47, 64
8, 37104, Note_on_c, 11, 47, 100
8, 37104, Note_on_c, 11, 59, 100
8, 37152, Note_off_c, 11, 59, 64
8, 37152, Note_off_c, 11, 47, 64
8, 37152, Note_on_c, 11, 51, 100
8, 37152, Note_on_c, 11, 63, 100
8, 37200, Note_off_c, 11, 63, 64
8, 37200, Note_off_c, 11, 51, 64
8, 37200, Note_on_c, 11, 47, 100
8, 37200, Note_on_c, 11, 59, 100
8, 37248, Note_off_c, 11, 59, 64
8, 37248, Note_off_c, 11, 47, 64
8, 37248, Note_on_c, 11, 59, 100
8, 37248, Note_on_c, 11, 47, 100
8, 37296, Note_off_c, 11, 47, 64
8, 37296, Note_off_c, 11, 59, 64
8, 37296, Note_on_c, 11, 59, 100
8, 37296, Note_on_c, 11, 47, 100
8, 37344, Note_off_c, 11, 47, 64
8, 37344, Note_off_c, 11, 59, 64
8, 37344, Note_on_c, 11, 59, 100
8, 37344, Note_on_c, 11, 47, 100
8, 37392, Note_off_c, 11, 47, 64
8, 37392, Note_off_c, 11, 59, 64
8, 37392, Note_on_c, 11, 59, 100
8, 37392, Note_on_c, 11, 47, 100
8, 37440, Note_off_c, 11, 47, 64
8, 37440, Note_off_c, 11, 59, 64
8, 37440, Note_on_c, 11, 59, 100
8, 37440, Note_on_c, 11, 47, 100
8, 37488, Note_off_c, 11, 47, 64
8, 37488, Note_off_c, 11, 59, 64
8, 37488, Note_on_c, 11, 59, 100
8, 37488, Note_on_c, 11, 47, 100
8, 37536, Note_off_c, 11, 47, 64
8, 37536, Note_off_c, 11, 59, 64
8, 37536, Note_on_c, 11, 59, 100
8, 37536, Note_on_c, 11, 47, 100
8, 37584, Note_off_c, 11, 47, 64
8, 37584, Note_off_c, 11, 59, 64
8, 37584, Note_on_c, 11, 59, 100
8, 37584, Note_on_c, 11, 47, 100
8, 37632, Note_off_c, 11, 47, 64
8, 37632, Note_off_c, 11, 59, 64
8, 37632, Note_on_c, 11, 51, 100
8, 37632, Note_on_c, 11, 63, 100
8, 37680, Note_off_c, 11, 63, 64
8, 37680, Note_off_c, 11, 51, 64
8, 37728, Note_on_c, 11, 51, 100
8, 37728, Note_on_c, 11, 63, 100
8, 37776, Note_off_c, 11, 51, 64
8, 37776, Note_off_c, 11, 63, 64
8, 38016, Note_on_c, 11, 63, 100
8, 38016, Note_on_c, 11, 51, 100
8, 38064, Note_off_c, 11, 51, 64
8, 38064, Note_off_c, 11, 63, 64
8, 38112, Note_on_c, 11, 47, 100
8, 38112, Note_on_c, 11, 59, 100
8, 38160, Note_off_c, 11, 47, 64
8, 38160, Note_off_c, 11, 59, 64
8, 38400, Note_on_c, 11, 51, 100
8, 38400, Note_on_c, 11, 63, 100
8, 38448, Note_off_c, 11, 63, 64
8, 38448, Note_off_c, 11, 51, 64
8, 38496, Note_on_c, 11, 63, 100
8, 38496, Note_on_c, 11, 51, 100
8, 38544, Note_off_c, 11, 63, 64
8, 38544, Note_off_c, 11, 51, 64
8, 38784, Note_on_c, 11, 51, 100
8, 38784, Note_on_c, 11, 63, 100
8, 38832, Note_off_c, 11, 63, 64
8, 38832, Note_off_c, 11, 51, 64
8, 38880, Note_on_c, 11, 47, 100
8, 38880, Note_on_c, 11, 59, 100
8, 38928, Note_off_c, 11, 47, 64
8, 38928, Note_off_c, 11, 59, 64
8, 39168, Note_on_c, 11, 51, 100
8, 39168, Note_on_c, 11, 63, 100
8, 39216, Note_off_c, 11, 63, 64
8, 39216, Note_off_c, 11, 51, 64
8, 39264, Note_on_c, 11, 51, 100
8, 39264, Note_on_c, 11, 63, 100
8, 39312, Note_off_c, 11, 51, 64
8, 39312, Note_off_c, 11, 63, 64
8, 39552, Note_on_c, 11, 51, 100
8, 39552, Note_on_c, 11, 63, 100
8, 39600, Note_off_c, 11, 63, 64
8, 39600, Note_off_c, 11, 51, 64
8, 39648, Note_on_c, 11, 47, 100
8, 39648, Note_on_c, 11, 59, 100
8, 39696, Note_off_c, 11, 47, 64
8, 39696, Note_off_c, 11, 59, 64
8, 39936, Note_on_c, 11, 51, 100
8, 39936, Note_on_c, 11, 63, 100
8, 39984, Note_off_c, 11, 63, 64
8, 39984, Note_off_c, 11, 51, 64
8, 40032, Note_on_c, 11, 51, 100
8, 40032, Note_on_c, 11, 63, 100
8, 40080, Note_off_c, 11, 51, 64
8, 40080, Note_off_c, 11, 63, 64
8, 40320, Note_on_c, 11, 51, 100
8, 40320, Note_on_c, 11, 63, 100
8, 40368, Note_off_c, 11, 63, 64
8, 40368, Note_off_c, 11, 51, 64
8, 40416, Note_on_c, 11, 47, 100
8, 40416, Note_on_c, 11, 59, 100
8, 40464, Note_off_c, 11, 47, 64
8, 40464, Note_off_c, 11, 59, 64
8, 40704, Note_on_c, 11, 51, 100
8, 40704, Note_on_c, 11, 63, 100
8, 40752, Note_off_c, 11, 63, 64
8, 40752, Note_off_c, 11, 51, 64
8, 40800, Note_on_c, 11, 51, 100
8, 40800, Note_on_c, 11, 63, 100
8, 40848, Note_off_c, 11, 51, 64
8, 40848, Note_off_c, 11, 63, 64
8, 41088, Note_on_c, 11, 63, 100
8, 41088, Note_on_c, 11, 51, 100
8, 41136, Note_off_c, 11, 51, 64
8, 41136, Note_off_c, 11, 63, 64
8, 41184, Note_on_c, 11, 47, 100
8, 41184, Note_on_c, 11, 59, 100
8, 41232, Note_off_c, 11, 47, 64
8, 41232, Note_off_c, 11, 59, 64
8, 41472, Note_on_c, 11, 51, 100
8, 41472, Note_on_c, 11, 63, 100
8, 41520, Note_off_c, 11, 63, 64
8, 41520, Note_off_c, 11, 51, 64
8, 41568, Note_on_c, 11, 63, 100
8, 41568, Note_on_c, 11, 51, 100
8, 41616, Note_off_c, 11, 63, 64
8, 41616, Note_off_c, 11, 51, 64
8, 41856, Note_on_c, 11, 51, 100
8, 41856, Note_on_c, 11, 63, 100
8, 41904, Note_off_c, 11, 63, 64
8, 41904, Note_off_c, 11, 51, 64
8, 41952, Note_on_c, 11, 47, 100
8, 41952, Note_on_c, 11, 59, 100
8, 42000, Note_off_c, 11, 47, 64
8, 42000, Note_off_c, 11, 59, 64
8, 42240, Note_on_c, 11, 51, 100
8, 42240, Note_on_c, 11, 63, 100
8, 42288, Note_off_c, 11, 63, 64
8, 42288, Note_off_c, 11, 51, 64
8, 42336, Note_on_c, 11, 51, 100
8, 42336, Note_on_c, 11, 63, 100
8, 42384, Note_off_c, 11, 51, 64
8, 42384, Note_off_c, 11, 63, 64
8, 42624, Note_on_c, 11, 51, 100
8, 42624, Note_on_c, 11, 63, 100
8, 42672, Note_off_c, 11, 63, 64
8, 42672, Note_off_c, 11, 51, 64
8, 42720, Note_on_c, 11, 47, 100
8, 42720, Note_on_c, 11, 59, 100
8, 42768, Note_off_c, 11, 47, 64
8, 42768, Note_off_c, 11, 59, 64
8, 43008, Note_on_c, 11, 51, 100
8, 43008, Note_on_c, 11, 63, 100
8, 43056, Note_off_c, 11, 63, 64
8, 43056, Note_off_c, 11, 51, 64
8, 43104, Note_on_c, 11, 51, 100
8, 43104, Note_on_c, 11, 63, 100
8, 43152, Note_off_c, 11, 51, 64
8, 43152, Note_off_c, 11, 63, 64
8, 43392, Note_on_c, 11, 51, 100
8, 43392, Note_on_c, 11, 63, 100
8, 43440, Note_off_c, 11, 63, 64
8, 43440, Note_off_c, 11, 51, 64
8, 43488, Note_on_c, 11, 47, 100
8, 43488, Note_on_c, 11, 59, 100
8, 43536, Note_off_c, 11, 47, 64
8, 43536, Note_off_c, 11, 59, 64
8, 43776, Note_on_c, 11, 51, 100
8, 43776, Note_on_c, 11, 63, 100
8, 43824, Note_off_c, 11, 63, 64
8, 43824, Note_off_c, 11, 51, 64
8, 43872, Note_on_c, 11, 51, 100
8, 43872, Note_on_c, 11, 63, 100
8, 43920, Note_off_c, 11, 51, 64
8, 43920, Note_off_c, 11, 63, 64
8, 44160, Note_on_c, 11, 63, 100
8, 44160, Note_on_c, 11, 51, 100
8, 44208, Note_off_c, 11, 51, 64
8, 44208, Note_off_c, 11, 63, 64
8, 44256, Note_on_c, 11, 47, 100
8, 44256, Note_on_c, 11, 59, 100
8, 44304, Note_off_c, 11, 59, 64
8, 44304, Note_off_c, 11, 47, 64
8, 44544, Note_on_c, 11, 51, 100
8, 44544, Note_on_c, 11, 63, 100
8, 44592, Note_off_c, 11, 63, 64
8, 44592, Note_off_c, 11, 51, 64
8, 44640, Note_on_c, 11, 63, 100
8, 44640, Note_on_c, 11, 51, 100
8, 44688, Note_off_c, 11, 63, 64
8, 44688, Note_off_c, 11, 51, 64
8, 44928, Note_on_c, 11, 51, 100
8, 44928, Note_on_c, 11, 63, 100
8, 44976, Note_off_c, 11, 63, 64
8, 44976, Note_off_c, 11, 51, 64
8, 45024, Note_on_c, 11, 47, 100
8, 45024, Note_on_c, 11, 59, 100
8, 45072, Note_off_c, 11, 59, 64
8, 45072, Note_off_c, 11, 47, 64
8, 45312, Note_on_c, 11, 51, 100
8, 45312, Note_on_c, 11, 63, 100
8, 45360, Note_off_c, 11, 63, 64
8, 45360, Note_off_c, 11, 51, 64
8, 45408, Note_on_c, 11, 51, 100
8, 45408, Note_on_c, 11, 63, 100
8, 45456, Note_off_c, 11, 51, 64
8, 45456, Note_off_c, 11, 63, 64
8, 45696, Note_on_c, 11, 51, 100
8, 45696, Note_on_c, 11, 63, 100
8, 45744, Note_off_c, 11, 63, 64
8, 45744, Note_off_c, 11, 51, 64
8, 45792, Note_on_c, 11, 47, 100
8, 45792, Note_on_c, 11, 59, 100
8, 45840, Note_off_c, 11, 59, 64
8, 45840, Note_off_c, 11, 47, 64
8, 46080, Note_on_c, 11, 51, 100
8, 46080, Note_on_c, 11, 63, 100
8, 46128, Note_off_c, 11, 63, 64
8, 46128, Note_off_c, 11, 51, 64
8, 46176, Note_on_c, 11, 51, 100
8, 46176, Note_on_c, 11, 63, 100
8, 46224, Note_off_c, 11, 51, 64
8, 46224, Note_off_c, 11, 63, 64
8, 46464, Note_on_c, 11, 51, 100
8, 46464, Note_on_c, 11, 63, 100
8, 46512, Note_off_c, 11, 63, 64
8, 46512, Note_off_c, 11, 51, 64
8, 46560, Note_on_c, 11, 47, 100
8, 46560, Note_on_c, 11, 59, 100
8, 46608, Note_off_c, 11, 59, 64
8, 46608, Note_off_c, 11, 47, 64
8, 50592, Control_c, 11, 101, 0
8, 50592, Control_c, 11, 100, 0
8, 50592, Control_c, 11, 6, 12
8, 50592, Control_c, 11, 10, 64
8, 50592, Control_c, 11, 7, 100
8, 50592, Pitch_bend_c, 11, 8192
8, 50592, Program_c, 11, 26
8, 50593, Control_c, 11, 101, 0
8, 50593, Control_c, 11, 100, 0
8, 50593, Control_c, 11, 6, 12
8, 50593, Control_c, 11, 10, 64
8, 50593, Control_c, 11, 7, 100
8, 50593, Pitch_bend_c, 11, 8192
8, 50593, Program_c, 11, 26
8, 50593, Control_c, 11, 101, 0
8, 50593, Control_c, 11, 100, 0
8, 50593, Control_c, 11, 6, 12
8, 50593, Control_c, 11, 10, 64
8, 50593, Control_c, 11, 7, 100
8, 50593, Pitch_bend_c, 11, 8192
8, 50593, Program_c, 11, 26
8, 50593, End_track
9, 0, Start_track
9, 0, Title_t, "MIDI out #4"
9, 0, Control_c, 3, 10, 64
9, 0, Control_c, 3, 7, 100
9, 0, Pitch_bend_c, 3, 8192
9, 0, Control_c, 3, 101, 0
9, 0, Control_c, 3, 100, 0
9, 0, Control_c, 3, 6, 12
9, 0, Control_c, 3, 10, 64
9, 0, Control_c, 3, 7, 100
9, 0, Pitch_bend_c, 3, 8192
9, 0, Program_c, 3, 121
9, 0, Control_c, 3, 101, 0
9, 0, Control_c, 3, 100, 0
9, 0, Control_c, 3, 6, 12
9, 0, Control_c, 3, 10, 64
9, 0, Control_c, 3, 7, 100
9, 0, Pitch_bend_c, 3, 8192
9, 0, Program_c, 3, 121
9, 0, Control_c, 3, 101, 0
9, 0, Control_c, 3, 100, 0
9, 0, Control_c, 3, 6, 12
9, 0, Control_c, 3, 10, 64
9, 0, Control_c, 3, 7, 100
9, 0, Pitch_bend_c, 3, 8192
9, 0, Program_c, 3, 121
9, 2688, Note_on_c, 3, 60, 100
9, 2784, Note_off_c, 3, 60, 64
9, 2784, Note_on_c, 3, 60, 100
9, 2880, Note_off_c, 3, 60, 64
9, 2880, Note_on_c, 3, 60, 100
9, 2976, Note_off_c, 3, 60, 64
9, 2976, Note_on_c, 3, 60, 100
9, 3072, Note_off_c, 3, 60, 64
9, 3072, Note_on_c, 3, 60, 100
9, 3168, Note_off_c, 3, 60, 64
9, 3168, Note_on_c, 3, 60, 100
9, 3264, Note_off_c, 3, 60, 64
9, 3264, Note_on_c, 3, 60, 100
9, 3360, Note_off_c, 3, 60, 64
9, 3360, Note_on_c, 3, 60, 100
9, 3456, Note_off_c, 3, 60, 64
9, 3456, Note_on_c, 3, 60, 100
9, 3552, Note_off_c, 3, 60, 64
9, 3552, Note_on_c, 3, 60, 100
9, 3648, Note_off_c, 3, 60, 64
9, 3648, Note_on_c, 3, 60, 100
9, 3744, Note_off_c, 3, 60, 64
9, 3744, Note_on_c, 3, 60, 100
9, 3840, Note_off_c, 3, 60, 64
9, 3840, Note_on_c, 3, 60, 100
9, 3936, Note_off_c, 3, 60, 64
9, 3936, Note_on_c, 3, 60, 100
9, 4032, Note_off_c, 3, 60, 64
9, 4032, Note_on_c, 3, 60, 100
9, 4128, Note_off_c, 3, 60, 64
9, 4128, Note_on_c, 3, 60, 100
9, 4224, Note_off_c, 3, 60, 64
9, 4224, Note_on_c, 3, 60, 100
9, 4320, Note_off_c, 3, 60, 64
9, 4320, Note_on_c, 3, 60, 100
9, 4416, Note_off_c, 3, 60, 64
9, 4416, Note_on_c, 3, 60, 100
9, 4512, Note_off_c, 3, 60, 64
9, 4512, Note_on_c, 3, 60, 100
9, 4608, Note_off_c, 3, 60, 64
9, 4608, Note_on_c, 3, 60, 100
9, 4704, Note_off_c, 3, 60, 64
9, 4704, Note_on_c, 3, 60, 100
9, 4800, Note_off_c, 3, 60, 64
9, 4800, Note_on_c, 3, 60, 100
9, 4896, Note_off_c, 3, 60, 64
9, 4896, Note_on_c, 3, 60, 100
9, 4992, Note_off_c, 3, 60, 64
9, 4992, Note_on_c, 3, 60, 100
9, 5088, Note_off_c, 3, 60, 64
9, 5088, Note_on_c, 3, 60, 100
9, 5184, Note_off_c, 3, 60, 64
9, 5184, Note_on_c, 3, 60, 100
9, 5280, Note_off_c, 3, 60, 64
9, 5280, Note_on_c, 3, 60, 100
9, 5376, Note_off_c, 3, 60, 64
9, 5376, Note_on_c, 3, 60, 100
9, 5472, Note_off_c, 3, 60, 64
9, 5472, Note_on_c, 3, 60, 100
9, 5568, Note_off_c, 3, 60, 64
9, 5568, Note_on_c, 3, 60, 100
9, 5664, Note_off_c, 3, 60, 64
9, 5664, Note_on_c, 3, 60, 100
9, 5760, Note_off_c, 3, 60, 64
9, 5760, Note_on_c, 3, 60, 100
9, 5856, Note_off_c, 3, 60, 64
9, 5856, Note_on_c, 3, 60, 100
9, 5952, Note_off_c, 3, 60, 64
9, 5952, Note_on_c, 3, 60, 100
9, 6048, Note_off_c, 3, 60, 64
9, 6048, Note_on_c, 3, 60, 100
9, 6144, Note_off_c, 3, 60, 64
9, 6144, Note_on_c, 3, 60, 100
9, 6240, Note_off_c, 3, 60, 64
9, 6240, Note_on_c, 3, 60, 100
9, 6336, Note_off_c, 3, 60, 64
9, 6336, Note_on_c, 3, 60, 100
9, 6432, Note_off_c, 3, 60, 64
9, 6432, Note_on_c, 3, 60, 100
9, 6528, Note_off_c, 3, 60, 64
9, 6528, Note_on_c, 3, 60, 100
9, 6624, Note_off_c, 3, 60, 64
9, 6624, Note_on_c, 3, 60, 100
9, 6720, Note_off_c, 3, 60, 64
9, 6720, Note_on_c, 3, 60, 100
9, 6816, Note_off_c, 3, 60, 64
9, 6816, Note_on_c, 3, 60, 100
9, 6912, Note_off_c, 3, 60, 64
9, 6912, Note_on_c, 3, 60, 100
9, 7008, Note_off_c, 3, 60, 64
9, 7008, Note_on_c, 3, 60, 100
9, 7104, Note_off_c, 3, 60, 64
9, 7104, Note_on_c, 3, 60, 100
9, 7200, Note_off_c, 3, 60, 64
9, 7200, Note_on_c, 3, 60, 100
9, 7296, Note_off_c, 3, 60, 64
9, 7296, Note_on_c, 3, 60, 100
9, 7392, Note_off_c, 3, 60, 64
9, 7392, Note_on_c, 3, 60, 100
9, 7488, Note_off_c, 3, 60, 64
9, 7488, Note_on_c, 3, 60, 100
9, 7584, Note_off_c, 3, 60, 64
9, 7584, Note_on_c, 3, 60, 100
9, 7680, Note_off_c, 3, 60, 64
9, 7680, Note_on_c, 3, 60, 100
9, 7776, Note_off_c, 3, 60, 64
9, 7776, Note_on_c, 3, 60, 100
9, 7872, Note_off_c, 3, 60, 64
9, 7872, Note_on_c, 3, 60, 100
9, 7968, Note_off_c, 3, 60, 64
9, 7968, Note_on_c, 3, 60, 100
9, 8064, Note_off_c, 3, 60, 64
9, 8064, Note_on_c, 3, 60, 100
9, 8160, Note_off_c, 3, 60, 64
9, 8160, Note_on_c, 3, 60, 100
9, 8256, Note_off_c, 3, 60, 64
9, 8256, Note_on_c, 3, 60, 100
9, 8352, Note_off_c, 3, 60, 64
9, 8352, Note_on_c, 3, 60, 100
9, 8448, Note_off_c, 3, 60, 64
9, 8448, Note_on_c, 3, 60, 100
9, 8544, Note_off_c, 3, 60, 64
9, 8544, Note_on_c, 3, 60, 100
9, 8640, Note_off_c, 3, 60, 64
9, 8640, Note_on_c, 3, 60, 100
9, 8736, Note_off_c, 3, 60, 64
9, 8736, Note_on_c, 3, 60, 100
9, 8832, Note_off_c, 3, 60, 64
9, 8832, Note_on_c, 3, 60, 100
9, 8928, Note_off_c, 3, 60, 64
9, 8928, Note_on_c, 3, 60, 100
9, 9024, Note_off_c, 3, 60, 64
9, 9024, Note_on_c, 3, 60, 100
9, 9120, Note_off_c, 3, 60, 64
9, 9120, Note_on_c, 3, 60, 100
9, 9216, Note_off_c, 3, 60, 64
9, 9216, Note_on_c, 3, 60, 100
9, 9312, Note_off_c, 3, 60, 64
9, 9312, Note_on_c, 3, 60, 100
9, 9408, Note_off_c, 3, 60, 64
9, 9408, Note_on_c, 3, 60, 100
9, 9504, Note_off_c, 3, 60, 64
9, 9504, Note_on_c, 3, 60, 100
9, 9600, Note_off_c, 3, 60, 64
9, 9600, Note_on_c, 3, 60, 100
9, 9696, Note_off_c, 3, 60, 64
9, 9696, Note_on_c, 3, 60, 100
9, 9792, Note_off_c, 3, 60, 64
9, 9792, Note_on_c, 3, 60, 100
9, 9888, Note_off_c, 3, 60, 64
9, 9888, Note_on_c, 3, 60, 100
9, 9984, Note_off_c, 3, 60, 64
9, 9984, Note_on_c, 3, 60, 100
9, 10080, Note_off_c, 3, 60, 64
9, 10080, Note_on_c, 3, 60, 100
9, 10176, Note_off_c, 3, 60, 64
9, 10176, Note_on_c, 3, 60, 100
9, 10272, Note_off_c, 3, 60, 64
9, 10272, Note_on_c, 3, 60, 100
9, 10368, Note_off_c, 3, 60, 64
9, 10368, Note_on_c, 3, 60, 100
9, 10464, Note_off_c, 3, 60, 64
9, 10464, Note_on_c, 3, 60, 100
9, 10560, Note_off_c, 3, 60, 64
9, 10560, Note_on_c, 3, 60, 100
9, 10656, Note_off_c, 3, 60, 64
9, 10656, Note_on_c, 3, 60, 100
9, 10752, Note_off_c, 3, 60, 64
9, 10752, Note_on_c, 3, 60, 100
9, 10848, Note_off_c, 3, 60, 64
9, 10848, Note_on_c, 3, 60, 100
9, 10944, Note_off_c, 3, 60, 64
9, 10944, Note_on_c, 3, 60, 100
9, 11040, Note_off_c, 3, 60, 64
9, 11040, Note_on_c, 3, 60, 100
9, 11136, Note_off_c, 3, 60, 64
9, 11136, Note_on_c, 3, 60, 100
9, 11232, Note_off_c, 3, 60, 64
9, 11232, Note_on_c, 3, 60, 100
9, 11328, Note_off_c, 3, 60, 64
9, 11328, Note_on_c, 3, 60, 100
9, 11424, Note_off_c, 3, 60, 64
9, 11424, Note_on_c, 3, 60, 100
9, 11520, Note_off_c, 3, 60, 64
9, 11520, Note_on_c, 3, 60, 100
9, 11616, Note_off_c, 3, 60, 64
9, 11616, Note_on_c, 3, 60, 100
9, 11712, Note_off_c, 3, 60, 64
9, 11712, Note_on_c, 3, 60, 100
9, 11808, Note_off_c, 3, 60, 64
9, 11808, Note_on_c, 3, 60, 100
9, 11904, Note_off_c, 3, 60, 64
9, 11904, Note_on_c, 3, 60, 100
9, 11952, Note_off_c, 3, 60, 64
9, 11952, Note_on_c, 3, 60, 100
9, 11976, Note_off_c, 3, 60, 64
9, 11976, Note_on_c, 3, 60, 100
9, 12000, Note_off_c, 3, 60, 64
9, 12000, Note_on_c, 3, 60, 100
9, 12096, Note_off_c, 3, 60, 64
9, 12096, Note_on_c, 3, 60, 100
9, 12144, Note_off_c, 3, 60, 64
9, 12144, Note_on_c, 3, 60, 100
9, 12168, Note_off_c, 3, 60, 64
9, 12168, Note_on_c, 3, 60, 100
9, 12192, Note_off_c, 3, 60, 64
9, 12192, Note_on_c, 3, 60, 100
9, 12288, Note_off_c, 3, 60, 64
9, 12288, Note_on_c, 3, 60, 100
9, 12336, Note_off_c, 3, 60, 64
9, 12336, Note_on_c, 3, 60, 100
9, 12360, Note_off_c, 3, 60, 64
9, 12360, Note_on_c, 3, 60, 100
9, 12384, Note_off_c, 3, 60, 64
9, 12384, Note_on_c, 3, 60, 100
9, 12480, Note_off_c, 3, 60, 64
9, 12480, Note_on_c, 3, 60, 100
9, 12528, Note_off_c, 3, 60, 64
9, 12528, Note_on_c, 3, 60, 100
9, 12552, Note_off_c, 3, 60, 64
9, 12552, Note_on_c, 3, 60, 100
9, 12576, Note_off_c, 3, 60, 64
9, 12576, Note_on_c, 3, 60, 100
9, 12672, Note_off_c, 3, 60, 64
9, 12672, Note_on_c, 3, 60, 100
9, 12720, Note_off_c, 3, 60, 64
9, 12720, Note_on_c, 3, 60, 100
9, 12744, Note_off_c, 3, 60, 64
9, 12744, Note_on_c, 3, 60, 100
9, 12768, Note_off_c, 3, 60, 64
9, 12768, Note_on_c, 3, 60, 100
9, 12864, Note_off_c, 3, 60, 64
9, 12864, Note_on_c, 3, 60, 100
9, 12912, Note_off_c, 3, 60, 64
9, 12912, Note_on_c, 3, 60, 100
9, 12936, Note_off_c, 3, 60, 64
9, 12936, Note_on_c, 3, 60, 100
9, 12960, Note_off_c, 3, 60, 64
9, 12960, Note_on_c, 3, 60, 100
9, 13056, Note_off_c, 3, 60, 64
9, 13056, Note_on_c, 3, 60, 100
9, 13104, Note_off_c, 3, 60, 64
9, 13104, Note_on_c, 3, 60, 100
9, 13128, Note_off_c, 3, 60, 64
9, 13128, Note_on_c, 3, 60, 100
9, 13152, Note_off_c, 3, 60, 64
9, 13152, Note_on_c, 3, 60, 100
9, 13248, Note_off_c, 3, 60, 64
9, 13248, Note_on_c, 3, 60, 100
9, 13296, Note_off_c, 3, 60, 64
9, 13296, Note_on_c, 3, 60, 100
9, 13320, Note_off_c, 3, 60, 64
9, 13320, Note_on_c, 3, 60, 100
9, 13344, Note_off_c, 3, 60, 64
9, 13344, Note_on_c, 3, 60, 100
9, 13440, Note_off_c, 3, 60, 64
9, 13440, Note_on_c, 3, 60, 100
9, 13488, Note_off_c, 3, 60, 64
9, 13488, Note_on_c, 3, 60, 100
9, 13512, Note_off_c, 3, 60, 64
9, 13512, Note_on_c, 3, 60, 100
9, 13536, Note_off_c, 3, 60, 64
9, 13536, Note_on_c, 3, 60, 100
9, 13632, Note_off_c, 3, 60, 64
9, 13632, Note_on_c, 3, 60, 100
9, 13680, Note_off_c, 3, 60, 64
9, 13680, Note_on_c, 3, 60, 100
9, 13704, Note_off_c, 3, 60, 64
9, 13704, Note_on_c, 3, 60, 100
9, 13728, Note_off_c, 3, 60, 64
9, 13728, Note_on_c, 3, 60, 100
9, 13824, Note_off_c, 3, 60, 64
9, 13824, Note_on_c, 3, 60, 100
9, 13872, Note_off_c, 3, 60, 64
9, 13872, Note_on_c, 3, 60, 100
9, 13896, Note_off_c, 3, 60, 64
9, 13896, Note_on_c, 3, 60, 100
9, 13920, Note_off_c, 3, 60, 64
9, 13920, Note_on_c, 3, 60, 100
9, 14016, Note_off_c, 3, 60, 64
9, 14016, Note_on_c, 3, 60, 100
9, 14064, Note_off_c, 3, 60, 64
9, 14064, Note_on_c, 3, 60, 100
9, 14088, Note_off_c, 3, 60, 64
9, 14088, Note_on_c, 3, 60, 100
9, 14112, Note_off_c, 3, 60, 64
9, 14112, Note_on_c, 3, 60, 100
9, 14208, Note_off_c, 3, 60, 64
9, 14208, Note_on_c, 3, 60, 100
9, 14256, Note_off_c, 3, 60, 64
9, 14256, Note_on_c, 3, 60, 100
9, 14280, Note_off_c, 3, 60, 64
9, 14280, Note_on_c, 3, 60, 100
9, 14304, Note_off_c, 3, 60, 64
9, 14304, Note_on_c, 3, 60, 100
9, 14400, Note_off_c, 3, 60, 64
9, 14400, Note_on_c, 3, 60, 100
9, 14448, Note_off_c, 3, 60, 64
9, 14448, Note_on_c, 3, 60, 100
9, 14472, Note_off_c, 3, 60, 64
9, 14472, Note_on_c, 3, 60, 100
9, 14496, Note_off_c, 3, 60, 64
9, 14496, Note_on_c, 3, 60, 100
9, 14592, Note_off_c, 3, 60, 64
9, 14592, Note_on_c, 3, 60, 100
9, 14688, Note_off_c, 3, 60, 64
9, 14688, Note_on_c, 3, 60, 100
9, 14784, Note_off_c, 3, 60, 64
9, 14784, Note_on_c, 3, 60, 100
9, 14880, Note_off_c, 3, 60, 64
9, 14880, Note_on_c, 3, 60, 100
9, 14976, Note_off_c, 3, 60, 64
9, 14976, Note_on_c, 3, 60, 100
9, 15072, Note_off_c, 3, 60, 64
9, 15072, Note_on_c, 3, 60, 100
9, 15168, Note_off_c, 3, 60, 64
9, 15168, Note_on_c, 3, 60, 100
9, 15264, Note_off_c, 3, 60, 64
9, 15264, Note_on_c, 3, 60, 100
9, 15360, Note_off_c, 3, 60, 64
9, 15360, Note_on_c, 3, 60, 100
9, 15456, Note_off_c, 3, 60, 64
9, 15456, Note_on_c, 3, 60, 100
9, 15552, Note_off_c, 3, 60, 64
9, 15552, Note_on_c, 3, 60, 100
9, 15648, Note_off_c, 3, 60, 64
9, 15648, Note_on_c, 3, 60, 100
9, 15744, Note_off_c, 3, 60, 64
9, 15744, Note_on_c, 3, 60, 100
9, 15840, Note_off_c, 3, 60, 64
9, 15840, Note_on_c, 3, 60, 100
9, 15936, Note_off_c, 3, 60, 64
9, 15936, Note_on_c, 3, 60, 100
9, 16032, Note_off_c, 3, 60, 64
9, 16032, Note_on_c, 3, 60, 100
9, 16128, Note_off_c, 3, 60, 64
9, 16128, Note_on_c, 3, 60, 100
9, 16224, Note_off_c, 3, 60, 64
9, 16224, Note_on_c, 3, 60, 100
9, 16320, Note_off_c, 3, 60, 64
9, 16320, Note_on_c, 3, 60, 100
9, 16416, Note_off_c, 3, 60, 64
9, 16416, Note_on_c, 3, 60, 100
9, 16512, Note_off_c, 3, 60, 64
9, 16512, Note_on_c, 3, 60, 100
9, 16608, Note_off_c, 3, 60, 64
9, 16608, Note_on_c, 3, 60, 100
9, 16704, Note_off_c, 3, 60, 64
9, 16704, Note_on_c, 3, 60, 100
9, 16800, Note_off_c, 3, 60, 64
9, 16800, Note_on_c, 3, 60, 100
9, 16896, Note_off_c, 3, 60, 64
9, 16896, Note_on_c, 3, 60, 100
9, 16992, Note_off_c, 3, 60, 64
9, 16992, Note_on_c, 3, 60, 100
9, 17088, Note_off_c, 3, 60, 64
9, 17088, Note_on_c, 3, 60, 100
9, 17184, Note_off_c, 3, 60, 64
9, 17184, Note_on_c, 3, 60, 100
9, 17280, Note_off_c, 3, 60, 64
9, 17280, Note_on_c, 3, 60, 100
9, 17376, Note_off_c, 3, 60, 64
9, 17376, Note_on_c, 3, 60, 100
9, 17472, Note_off_c, 3, 60, 64
9, 17472, Note_on_c, 3, 60, 100
9, 17568, Note_off_c, 3, 60, 64
9, 17568, Note_on_c, 3, 60, 100
9, 17664, Note_off_c, 3, 60, 64
9, 17664, Note_on_c, 3, 60, 100
9, 17760, Note_off_c, 3, 60, 64
9, 17760, Note_on_c, 3, 60, 100
9, 17856, Note_off_c, 3, 60, 64
9, 17856, Note_on_c, 3, 60, 100
9, 17952, Note_off_c, 3, 60, 64
9, 17952, Note_on_c, 3, 60, 100
9, 18048, Note_off_c, 3, 60, 64
9, 18048, Note_on_c, 3, 60, 100
9, 18144, Note_off_c, 3, 60, 64
9, 18144, Note_on_c, 3, 60, 100
9, 18240, Note_off_c, 3, 60, 64
9, 18240, Note_on_c, 3, 60, 100
9, 18336, Note_off_c, 3, 60, 64
9, 18336, Note_on_c, 3, 60, 100
9, 18432, Note_off_c, 3, 60, 64
9, 18432, Note_on_c, 3, 60, 100
9, 18528, Note_off_c, 3, 60, 64
9, 18528, Note_on_c, 3, 60, 100
9, 18624, Note_off_c, 3, 60, 64
9, 18624, Note_on_c, 3, 60, 100
9, 18720, Note_off_c, 3, 60, 64
9, 18720, Note_on_c, 3, 60, 100
9, 18816, Note_off_c, 3, 60, 64
9, 18816, Note_on_c, 3, 60, 100
9, 18912, Note_off_c, 3, 60, 64
9, 18912, Note_on_c, 3, 60, 100
9, 19008, Note_off_c, 3, 60, 64
9, 19008, Note_on_c, 3, 60, 100
9, 19104, Note_off_c, 3, 60, 64
9, 19104, Note_on_c, 3, 60, 100
9, 19200, Note_off_c, 3, 60, 64
9, 19200, Note_on_c, 3, 60, 100
9, 19296, Note_off_c, 3, 60, 64
9, 19296, Note_on_c, 3, 60, 100
9, 19392, Note_off_c, 3, 60, 64
9, 19392, Note_on_c, 3, 60, 100
9, 19488, Note_off_c, 3, 60, 64
9, 19488, Note_on_c, 3, 60, 100
9, 19584, Note_off_c, 3, 60, 64
9, 19584, Note_on_c, 3, 60, 100
9, 19680, Note_off_c, 3, 60, 64
9, 19680, Note_on_c, 3, 60, 100
9, 19776, Note_off_c, 3, 60, 64
9, 19776, Note_on_c, 3, 60, 100
9, 19872, Note_off_c, 3, 60, 64
9, 19872, Note_on_c, 3, 60, 100
9, 19968, Note_off_c, 3, 60, 64
9, 19968, Note_on_c, 3, 60, 100
9, 20064, Note_off_c, 3, 60, 64
9, 20064, Note_on_c, 3, 60, 100
9, 20160, Note_off_c, 3, 60, 64
9, 20160, Note_on_c, 3, 60, 100
9, 20256, Note_off_c, 3, 60, 64
9, 20256, Note_on_c, 3, 60, 100
9, 20352, Note_off_c, 3, 60, 64
9, 20352, Note_on_c, 3, 60, 100
9, 20448, Note_off_c, 3, 60, 64
9, 20448, Note_on_c, 3, 60, 100
9, 20544, Note_off_c, 3, 60, 64
9, 20544, Note_on_c, 3, 60, 100
9, 20640, Note_off_c, 3, 60, 64
9, 20640, Note_on_c, 3, 60, 100
9, 20736, Note_off_c, 3, 60, 64
9, 20736, Note_on_c, 3, 60, 100
9, 20784, Note_off_c, 3, 60, 64
9, 20784, Note_on_c, 3, 60, 100
9, 20808, Note_off_c, 3, 60, 64
9, 20808, Note_on_c, 3, 60, 100
9, 20832, Note_off_c, 3, 60, 64
9, 20832, Note_on_c, 3, 60, 100
9, 20928, Note_off_c, 3, 60, 64
9, 20928, Note_on_c, 3, 60, 100
9, 20976, Note_off_c, 3, 60, 64
9, 20976, Note_on_c, 3, 60, 100
9, 21000, Note_off_c, 3, 60, 64
9, 21000, Note_on_c, 3, 60, 100
9, 21024, Note_off_c, 3, 60, 64
9, 21024, Note_on_c, 3, 60, 100
9, 21120, Note_off_c, 3, 60, 64
9, 21120, Note_on_c, 3, 60, 100
9, 21168, Note_off_c, 3, 60, 64
9, 21168, Note_on_c, 3, 60, 100
9, 21192, Note_off_c, 3, 60, 64
9, 21192, Note_on_c, 3, 60, 100
9, 21216, Note_off_c, 3, 60, 64
9, 21216, Note_on_c, 3, 60, 100
9, 21312, Note_off_c, 3, 60, 64
9, 21312, Note_on_c, 3, 60, 100
9, 21360, Note_off_c, 3, 60, 64
9, 21360, Note_on_c, 3, 60, 100
9, 21384, Note_off_c, 3, 60, 64
9, 21384, Note_on_c, 3, 60, 100
9, 21408, Note_off_c, 3, 60, 64
9, 21408, Note_on_c, 3, 60, 100
9, 21504, Note_off_c, 3, 60, 64
9, 21504, Note_on_c, 3, 60, 100
9, 21552, Note_off_c, 3, 60, 64
9, 21552, Note_on_c, 3, 60, 100
9, 21576, Note_off_c, 3, 60, 64
9, 21576, Note_on_c, 3, 60, 100
9, 21600, Note_off_c, 3, 60, 64
9, 21600, Note_on_c, 3, 60, 100
9, 21696, Note_off_c, 3, 60, 64
9, 21696, Note_on_c, 3, 60, 100
9, 21744, Note_off_c, 3, 60, 64
9, 21744, Note_on_c, 3, 60, 100
9, 21768, Note_off_c, 3, 60, 64
9, 21768, Note_on_c, 3, 60, 100
9, 21792, Note_off_c, 3, 60, 64
9, 21792, Note_on_c, 3, 60, 100
9, 21888, Note_off_c, 3, 60, 64
9, 21888, Note_on_c, 3, 60, 100
9, 21936, Note_off_c, 3, 60, 64
9, 21936, Note_on_c, 3, 60, 100
9, 21960, Note_off_c, 3, 60, 64
9, 21960, Note_on_c, 3, 60, 100
9, 21984, Note_off_c, 3, 60, 64
9, 21984, Note_on_c, 3, 60, 100
9, 22080, Note_off_c, 3, 60, 64
9, 22080, Note_on_c, 3, 60, 100
9, 22128, Note_off_c, 3, 60, 64
9, 22128, Note_on_c, 3, 60, 100
9, 22152, Note_off_c, 3, 60, 64
9, 22152, Note_on_c, 3, 60, 100
9, 22176, Note_off_c, 3, 60, 64
9, 22176, Note_on_c, 3, 60, 100
9, 22272, Note_off_c, 3, 60, 64
9, 22272, Note_on_c, 3, 60, 100
9, 22320, Note_off_c, 3, 60, 64
9, 22320, Note_on_c, 3, 60, 100
9, 22344, Note_off_c, 3, 60, 64
9, 22344, Note_on_c, 3, 60, 100
9, 22368, Note_off_c, 3, 60, 64
9, 22368, Note_on_c, 3, 60, 100
9, 22464, Note_off_c, 3, 60, 64
9, 22464, Note_on_c, 3, 60, 100
9, 22512, Note_off_c, 3, 60, 64
9, 22512, Note_on_c, 3, 60, 100
9, 22536, Note_off_c, 3, 60, 64
9, 22536, Note_on_c, 3, 60, 100
9, 22560, Note_off_c, 3, 60, 64
9, 22560, Note_on_c, 3, 60, 100
9, 22656, Note_off_c, 3, 60, 64
9, 22656, Note_on_c, 3, 60, 100
9, 22704, Note_off_c, 3, 60, 64
9, 22704, Note_on_c, 3, 60, 100
9, 22728, Note_off_c, 3, 60, 64
9, 22728, Note_on_c, 3, 60, 100
9, 22752, Note_off_c, 3, 60, 64
9, 22752, Note_on_c, 3, 60, 100
9, 22848, Note_off_c, 3, 60, 64
9, 22848, Note_on_c, 3, 60, 100
9, 22896, Note_off_c, 3, 60, 64
9, 22896, Note_on_c, 3, 60, 100
9, 22920, Note_off_c, 3, 60, 64
9, 22920, Note_on_c, 3, 60, 100
9, 22944, Note_off_c, 3, 60, 64
9, 22944, Note_on_c, 3, 60, 100
9, 23040, Note_off_c, 3, 60, 64
9, 23040, Note_on_c, 3, 60, 100
9, 23088, Note_off_c, 3, 60, 64
9, 23088, Note_on_c, 3, 60, 100
9, 23112, Note_off_c, 3, 60, 64
9, 23112, Note_on_c, 3, 60, 100
9, 23136, Note_off_c, 3, 60, 64
9, 23136, Note_on_c, 3, 60, 100
9, 23232, Note_off_c, 3, 60, 64
9, 23232, Note_on_c, 3, 60, 100
9, 23280, Note_off_c, 3, 60, 64
9, 23280, Note_on_c, 3, 60, 100
9, 23304, Note_off_c, 3, 60, 64
9, 23304, Note_on_c, 3, 60, 100
9, 23328, Note_off_c, 3, 60, 64
9, 23328, Note_on_c, 3, 60, 100
9, 23424, Note_off_c, 3, 60, 64
9, 23424, Note_on_c, 3, 60, 100
9, 23520, Note_off_c, 3, 60, 64
9, 23520, Note_on_c, 3, 60, 100
9, 23616, Note_off_c, 3, 60, 64
9, 23616, Note_on_c, 3, 60, 100
9, 23712, Note_off_c, 3, 60, 64
9, 23712, Note_on_c, 3, 60, 100
9, 23808, Note_off_c, 3, 60, 64
9, 23808, Note_on_c, 3, 60, 100
9, 23904, Note_off_c, 3, 60, 64
9, 23904, Note_on_c, 3, 60, 100
9, 24000, Note_off_c, 3, 60, 64
9, 24000, Note_on_c, 3, 60, 100
9, 24096, Note_off_c, 3, 60, 64
9, 24096, Note_on_c, 3, 60, 100
9, 24192, Note_off_c, 3, 60, 64
9, 24192, Note_on_c, 3, 60, 100
9, 24288, Note_off_c, 3, 60, 64
9, 24288, Note_on_c, 3, 60, 100
9, 24384, Note_off_c, 3, 60, 64
9, 24384, Note_on_c, 3, 60, 100
9, 24480, Note_off_c, 3, 60, 64
9, 24480, Note_on_c, 3, 60, 100
9, 24576, Note_off_c, 3, 60, 64
9, 24576, Note_on_c, 3, 60, 100
9, 24672, Note_off_c, 3, 60, 64
9, 24672, Note_on_c, 3, 60, 100
9, 24768, Note_off_c, 3, 60, 64
9, 24768, Note_on_c, 3, 60, 100
9, 24864, Note_off_c, 3, 60, 64
9, 24864, Note_on_c, 3, 60, 100
9, 24960, Note_off_c, 3, 60, 64
9, 24960, Note_on_c, 3, 60, 100
9, 25056, Note_off_c, 3, 60, 64
9, 25056, Note_on_c, 3, 60, 100
9, 25152, Note_off_c, 3, 60, 64
9, 25152, Note_on_c, 3, 60, 100
9, 25248, Note_off_c, 3, 60, 64
9, 25248, Note_on_c, 3, 60, 100
9, 25344, Note_off_c, 3, 60, 64
9, 25344, Note_on_c, 3, 60, 100
9, 25440, Note_off_c, 3, 60, 64
9, 25440, Note_on_c, 3, 60, 100
9, 25536, Note_off_c, 3, 60, 64
9, 25536, Note_on_c, 3, 60, 100
9, 25632, Note_off_c, 3, 60, 64
9, 25632, Note_on_c, 3, 60, 100
9, 25728, Note_off_c, 3, 60, 64
9, 25728, Note_on_c, 3, 60, 100
9, 25824, Note_off_c, 3, 60, 64
9, 25824, Note_on_c, 3, 60, 100
9, 25920, Note_off_c, 3, 60, 64
9, 25920, Note_on_c, 3, 60, 100
9, 26016, Note_off_c, 3, 60, 64
9, 26016, Note_on_c, 3, 60, 100
9, 26112, Note_off_c, 3, 60, 64
9, 26112, Note_on_c, 3, 60, 100
9, 26208, Note_off_c, 3, 60, 64
9, 26208, Note_on_c, 3, 60, 100
9, 26304, Note_off_c, 3, 60, 64
9, 26304, Note_on_c, 3, 60, 100
9, 26400, Note_off_c, 3, 60, 64
9, 26400, Note_on_c, 3, 60, 100
9, 26496, Note_off_c, 3, 60, 64
9, 28608, Note_on_c, 3, 60, 100
9, 28704, Note_off_c, 3, 60, 64
9, 28704, Note_on_c, 3, 60, 100
9, 28800, Note_off_c, 3, 60, 64
9, 28800, Note_on_c, 3, 60, 100
9, 28896, Note_off_c, 3, 60, 64
9, 28896, Note_on_c, 3, 60, 100
9, 28992, Note_off_c, 3, 60, 64
9, 28992, Note_on_c, 3, 60, 100
9, 29088, Note_off_c, 3, 60, 64
9, 29088, Note_on_c, 3, 60, 100
9, 29184, Note_off_c, 3, 60, 64
9, 29184, Note_on_c, 3, 60, 100
9, 29280, Note_off_c, 3, 60, 64
9, 29280, Note_on_c, 3, 60, 100
9, 29376, Note_off_c, 3, 60, 64
9, 29376, Note_on_c, 3, 60, 100
9, 29472, Note_off_c, 3, 60, 64
9, 29472, Note_on_c, 3, 60, 100
9, 29568, Note_off_c, 3, 60, 64
9, 29568, Note_on_c, 3, 60, 100
9, 29664, Note_off_c, 3, 60, 64
9, 29664, Note_on_c, 3, 60, 100
9, 29760, Note_off_c, 3, 60, 64
9, 29760, Note_on_c, 3, 60, 100
9, 29856, Note_off_c, 3, 60, 64
9, 29856, Note_on_c, 3, 60, 100
9, 29952, Note_off_c, 3, 60, 64
9, 29952, Note_on_c, 3, 60, 100
9, 30048, Note_off_c, 3, 60, 64
9, 30048, Note_on_c, 3, 60, 100
9, 30144, Note_off_c, 3, 60, 64
9, 30144, Note_on_c, 3, 60, 100
9, 30240, Note_off_c, 3, 60, 64
9, 30240, Note_on_c, 3, 60, 100
9, 30336, Note_off_c, 3, 60, 64
9, 30336, Note_on_c, 3, 60, 100
9, 30432, Note_off_c, 3, 60, 64
9, 30432, Note_on_c, 3, 60, 100
9, 30528, Note_off_c, 3, 60, 64
9, 30528, Note_on_c, 3, 60, 100
9, 30624, Note_off_c, 3, 60, 64
9, 30624, Note_on_c, 3, 60, 100
9, 30720, Note_off_c, 3, 60, 64
9, 30720, Note_on_c, 3, 60, 100
9, 30816, Note_off_c, 3, 60, 64
9, 30816, Note_on_c, 3, 60, 100
9, 30912, Note_off_c, 3, 60, 64
9, 30912, Note_on_c, 3, 60, 100
9, 31008, Note_off_c, 3, 60, 64
9, 31008, Note_on_c, 3, 60, 100
9, 31104, Note_off_c, 3, 60, 64
9, 31104, Note_on_c, 3, 60, 100
9, 31200, Note_off_c, 3, 60, 64
9, 31200, Note_on_c, 3, 60, 100
9, 31296, Note_off_c, 3, 60, 64
9, 31296, Note_on_c, 3, 60, 100
9, 31392, Note_off_c, 3, 60, 64
9, 31392, Note_on_c, 3, 60, 100
9, 31488, Note_off_c, 3, 60, 64
9, 31488, Note_on_c, 3, 60, 100
9, 31584, Note_off_c, 3, 60, 64
9, 31584, Note_on_c, 3, 60, 100
9, 31680, Note_off_c, 3, 60, 64
9, 31680, Note_on_c, 3, 60, 100
9, 31776, Note_off_c, 3, 60, 64
9, 31776, Note_on_c, 3, 60, 100
9, 31872, Note_off_c, 3, 60, 64
9, 31872, Note_on_c, 3, 60, 100
9, 31968, Note_off_c, 3, 60, 64
9, 31968, Note_on_c, 3, 60, 100
9, 32064, Note_off_c, 3, 60, 64
9, 32064, Note_on_c, 3, 60, 100
9, 32160, Note_off_c, 3, 60, 64
9, 32160, Note_on_c, 3, 60, 100
9, 32256, Note_off_c, 3, 60, 64
9, 32256, Note_on_c, 3, 60, 100
9, 32352, Note_off_c, 3, 60, 64
9, 32352, Note_on_c, 3, 60, 100
9, 32448, Note_off_c, 3, 60, 64
9, 32448, Note_on_c, 3, 60, 100
9, 32544, Note_off_c, 3, 60, 64
9, 32544, Note_on_c, 3, 60, 100
9, 32640, Note_off_c, 3, 60, 64
9, 32640, Note_on_c, 3, 60, 100
9, 32736, Note_off_c, 3, 60, 64
9, 32736, Note_on_c, 3, 60, 100
9, 32832, Note_off_c, 3, 60, 64
9, 32832, Note_on_c, 3, 60, 100
9, 32928, Note_off_c, 3, 60, 64
9, 32928, Note_on_c, 3, 60, 100
9, 33024, Note_off_c, 3, 60, 64
9, 33024, Note_on_c, 3, 60, 100
9, 33120, Note_off_c, 3, 60, 64
9, 33120, Note_on_c, 3, 60, 100
9, 33216, Note_off_c, 3, 60, 64
9, 33216, Note_on_c, 3, 60, 100
9, 33312, Note_off_c, 3, 60, 64
9, 33312, Note_on_c, 3, 60, 100
9, 33408, Note_off_c, 3, 60, 64
9, 33408, Note_on_c, 3, 60, 100
9, 33504, Note_off_c, 3, 60, 64
9, 33504, Note_on_c, 3, 60, 100
9, 33600, Note_off_c, 3, 60, 64
9, 33600, Note_on_c, 3, 60, 100
9, 33696, Note_off_c, 3, 60, 64
9, 33696, Note_on_c, 3, 60, 100
9, 33792, Note_off_c, 3, 60, 64
9, 33792, Note_on_c, 3, 60, 100
9, 33888, Note_off_c, 3, 60, 64
9, 33888, Note_on_c, 3, 60, 100
9, 33984, Note_off_c, 3, 60, 64
9, 33984, Note_on_c, 3, 60, 100
9, 34080, Note_off_c, 3, 60, 64
9, 34080, Note_on_c, 3, 60, 100
9, 34176, Note_off_c, 3, 60, 64
9, 34176, Note_on_c, 3, 60, 100
9, 34272, Note_off_c, 3, 60, 64
9, 34272, Note_on_c, 3, 60, 100
9, 34368, Note_off_c, 3, 60, 64
9, 34368, Note_on_c, 3, 60, 100
9, 34464, Note_off_c, 3, 60, 64
9, 34464, Note_on_c, 3, 60, 100
9, 34560, Note_off_c, 3, 60, 64
9, 34560, Note_on_c, 3, 60, 100
9, 34656, Note_off_c, 3, 60, 64
9, 34656, Note_on_c, 3, 60, 100
9, 34752, Note_off_c, 3, 60, 64
9, 34752, Note_on_c, 3, 60, 100
9, 34848, Note_off_c, 3, 60, 64
9, 34848, Note_on_c, 3, 60, 100
9, 34944, Note_off_c, 3, 60, 64
9, 34944, Note_on_c, 3, 60, 100
9, 34992, Note_off_c, 3, 60, 64
9, 34992, Note_on_c, 3, 60, 100
9, 35016, Note_off_c, 3, 60, 64
9, 35016, Note_on_c, 3, 60, 100
9, 35040, Note_off_c, 3, 60, 64
9, 35040, Note_on_c, 3, 60, 100
9, 35136, Note_off_c, 3, 60, 64
9, 35136, Note_on_c, 3, 60, 100
9, 35184, Note_off_c, 3, 60, 64
9, 35184, Note_on_c, 3, 60, 100
9, 35208, Note_off_c, 3, 60, 64
9, 35208, Note_on_c, 3, 60, 100
9, 35232, Note_off_c, 3, 60, 64
9, 35232, Note_on_c, 3, 60, 100
9, 35328, Note_off_c, 3, 60, 64
9, 35328, Note_on_c, 3, 60, 100
9, 35376, Note_off_c, 3, 60, 64
9, 35376, Note_on_c, 3, 60, 100
9, 35400, Note_off_c, 3, 60, 64
9, 35400, Note_on_c, 3, 60, 100
9, 35424, Note_off_c, 3, 60, 64
9, 35424, Note_on_c, 3, 60, 100
9, 35520, Note_off_c, 3, 60, 64
9, 35520, Note_on_c, 3, 60, 100
9, 35568, Note_off_c, 3, 60, 64
9, 35568, Note_on_c, 3, 60, 100
9, 35592, Note_off_c, 3, 60, 64
9, 35592, Note_on_c, 3, 60, 100
9, 35616, Note_off_c, 3, 60, 64
9, 35616, Note_on_c, 3, 60, 100
9, 35712, Note_off_c, 3, 60, 64
9, 35712, Note_on_c, 3, 60, 100
9, 35760, Note_off_c, 3, 60, 64
9, 35760, Note_on_c, 3, 60, 100
9, 35784, Note_off_c, 3, 60, 64
9, 35784, Note_on_c, 3, 60, 100
9, 35808, Note_off_c, 3, 60, 64
9, 35808, Note_on_c, 3, 60, 100
9, 35904, Note_off_c, 3, 60, 64
9, 35904, Note_on_c, 3, 60, 100
9, 35952, Note_off_c, 3, 60, 64
9, 35952, Note_on_c, 3, 60, 100
9, 35976, Note_off_c, 3, 60, 64
9, 35976, Note_on_c, 3, 60, 100
9, 36000, Note_off_c, 3, 60, 64
9, 36000, Note_on_c, 3, 60, 100
9, 36096, Note_off_c, 3, 60, 64
9, 36096, Note_on_c, 3, 60, 100
9, 36144, Note_off_c, 3, 60, 64
9, 36144, Note_on_c, 3, 60, 100
9, 36168, Note_off_c, 3, 60, 64
9, 36168, Note_on_c, 3, 60, 100
9, 36192, Note_off_c, 3, 60, 64
9, 36192, Note_on_c, 3, 60, 100
9, 36288, Note_off_c, 3, 60, 64
9, 36288, Note_on_c, 3, 60, 100
9, 36336, Note_off_c, 3, 60, 64
9, 36336, Note_on_c, 3, 60, 100
9, 36360, Note_off_c, 3, 60, 64
9, 36360, Note_on_c, 3, 60, 100
9, 36384, Note_off_c, 3, 60, 64
9, 36384, Note_on_c, 3, 60, 100
9, 36480, Note_off_c, 3, 60, 64
9, 36480, Note_on_c, 3, 60, 100
9, 36528, Note_off_c, 3, 60, 64
9, 36528, Note_on_c, 3, 60, 100
9, 36552, Note_off_c, 3, 60, 64
9, 36552, Note_on_c, 3, 60, 100
9, 36576, Note_off_c, 3, 60, 64
9, 36576, Note_on_c, 3, 60, 100
9, 36672, Note_off_c, 3, 60, 64
9, 36672, Note_on_c, 3, 60, 100
9, 36720, Note_off_c, 3, 60, 64
9, 36720, Note_on_c, 3, 60, 100
9, 36744, Note_off_c, 3, 60, 64
9, 36744, Note_on_c, 3, 60, 100
9, 36768, Note_off_c, 3, 60, 64
9, 36768, Note_on_c, 3, 60, 100
9, 36864, Note_off_c, 3, 60, 64
9, 36864, Note_on_c, 3, 60, 100
9, 36912, Note_off_c, 3, 60, 64
9, 36912, Note_on_c, 3, 60, 100
9, 36936, Note_off_c, 3, 60, 64
9, 36936, Note_on_c, 3, 60, 100
9, 36960, Note_off_c, 3, 60, 64
9, 36960, Note_on_c, 3, 60, 100
9, 37056, Note_off_c, 3, 60, 64
9, 37056, Note_on_c, 3, 60, 100
9, 37104, Note_off_c, 3, 60, 64
9, 37104, Note_on_c, 3, 60, 100
9, 37128, Note_off_c, 3, 60, 64
9, 37128, Note_on_c, 3, 60, 100
9, 37152, Note_off_c, 3, 60, 64
9, 37152, Note_on_c, 3, 60, 100
9, 37248, Note_off_c, 3, 60, 64
9, 37248, Note_on_c, 3, 60, 100
9, 37296, Note_off_c, 3, 60, 64
9, 37296, Note_on_c, 3, 60, 100
9, 37320, Note_off_c, 3, 60, 64
9, 37320, Note_on_c, 3, 60, 100
9, 37344, Note_off_c, 3, 60, 64
9, 37344, Note_on_c, 3, 60, 100
9, 37440, Note_off_c, 3, 60, 64
9, 37440, Note_on_c, 3, 60, 100
9, 37488, Note_off_c, 3, 60, 64
9, 37488, Note_on_c, 3, 60, 100
9, 37512, Note_off_c, 3, 60, 64
9, 37512, Note_on_c, 3, 60, 100
9, 37536, Note_off_c, 3, 60, 64
9, 37536, Note_on_c, 3, 60, 100
9, 37632, Note_off_c, 3, 60, 64
9, 37632, Note_on_c, 3, 60, 100
9, 37728, Note_off_c, 3, 60, 64
9, 37728, Note_on_c, 3, 60, 100
9, 37824, Note_off_c, 3, 60, 64
9, 37824, Note_on_c, 3, 60, 100
9, 37920, Note_off_c, 3, 60, 64
9, 37920, Note_on_c, 3, 60, 100
9, 38016, Note_off_c, 3, 60, 64
9, 38016, Note_on_c, 3, 60, 100
9, 38112, Note_off_c, 3, 60, 64
9, 38112, Note_on_c, 3, 60, 100
9, 38208, Note_off_c, 3, 60, 64
9, 38208, Note_on_c, 3, 60, 100
9, 38304, Note_off_c, 3, 60, 64
9, 38304, Note_on_c, 3, 60, 100
9, 38400, Note_off_c, 3, 60, 64
9, 38400, Note_on_c, 3, 60, 100
9, 38496, Note_off_c, 3, 60, 64
9, 38496, Note_on_c, 3, 60, 100
9, 38592, Note_off_c, 3, 60, 64
9, 38592, Note_on_c, 3, 60, 100
9, 38688, Note_off_c, 3, 60, 64
9, 38688, Note_on_c, 3, 60, 100
9, 38784, Note_off_c, 3, 60, 64
9, 38784, Note_on_c, 3, 60, 100
9, 38880, Note_off_c, 3, 60, 64
9, 38880, Note_on_c, 3, 60, 100
9, 38976, Note_off_c, 3, 60, 64
9, 38976, Note_on_c, 3, 60, 100
9, 39072, Note_off_c, 3, 60, 64
9, 39072, Note_on_c, 3, 60, 100
9, 39168, Note_off_c, 3, 60, 64
9, 39168, Note_on_c, 3, 60, 100
9, 39264, Note_off_c, 3, 60, 64
9, 39264, Note_on_c, 3, 60, 100
9, 39360, Note_off_c, 3, 60, 64
9, 39360, Note_on_c, 3, 60, 100
9, 39456, Note_off_c, 3, 60, 64
9, 39456, Note_on_c, 3, 60, 100
9, 39552, Note_off_c, 3, 60, 64
9, 39552, Note_on_c, 3, 60, 100
9, 39648, Note_off_c, 3, 60, 64
9, 39648, Note_on_c, 3, 60, 100
9, 39744, Note_off_c, 3, 60, 64
9, 39744, Note_on_c, 3, 60, 100
9, 39840, Note_off_c, 3, 60, 64
9, 39840, Note_on_c, 3, 60, 100
9, 39936, Note_off_c, 3, 60, 64
9, 39936, Note_on_c, 3, 60, 100
9, 40032, Note_off_c, 3, 60, 64
9, 40032, Note_on_c, 3, 60, 100
9, 40128, Note_off_c, 3, 60, 64
9, 40128, Note_on_c, 3, 60, 100
9, 40224, Note_off_c, 3, 60, 64
9, 40224, Note_on_c, 3, 60, 100
9, 40320, Note_off_c, 3, 60, 64
9, 40320, Note_on_c, 3, 60, 100
9, 40416, Note_off_c, 3, 60, 64
9, 40416, Note_on_c, 3, 60, 100
9, 40512, Note_off_c, 3, 60, 64
9, 40512, Note_on_c, 3, 60, 100
9, 40608, Note_off_c, 3, 60, 64
9, 40608, Note_on_c, 3, 60, 100
9, 40704, Note_off_c, 3, 60, 64
9, 40704, Note_on_c, 3, 60, 100
9, 40800, Note_off_c, 3, 60, 64
9, 40800, Note_on_c, 3, 60, 100
9, 40896, Note_off_c, 3, 60, 64
9, 40896, Note_on_c, 3, 60, 100
9, 40992, Note_off_c, 3, 60, 64
9, 40992, Note_on_c, 3, 60, 100
9, 41088, Note_off_c, 3, 60, 64
9, 41088, Note_on_c, 3, 60, 100
9, 41184, Note_off_c, 3, 60, 64
9, 41184, Note_on_c, 3, 60, 100
9, 41280, Note_off_c, 3, 60, 64
9, 41280, Note_on_c, 3, 60, 100
9, 41376, Note_off_c, 3, 60, 64
9, 41376, Note_on_c, 3, 60, 100
9, 41472, Note_off_c, 3, 60, 64
9, 41472, Note_on_c, 3, 60, 100
9, 41568, Note_off_c, 3, 60, 64
9, 41568, Note_on_c, 3, 60, 100
9, 41664, Note_off_c, 3, 60, 64
9, 41664, Note_on_c, 3, 60, 100
9, 41760, Note_off_c, 3, 60, 64
9, 41760, Note_on_c, 3, 60, 100
9, 41856, Note_off_c, 3, 60, 64
9, 41856, Note_on_c, 3, 60, 100
9, 41952, Note_off_c, 3, 60, 64
9, 41952, Note_on_c, 3, 60, 100
9, 42048, Note_off_c, 3, 60, 64
9, 42048, Note_on_c, 3, 60, 100
9, 42144, Note_off_c, 3, 60, 64
9, 42144, Note_on_c, 3, 60, 100
9, 42240, Note_off_c, 3, 60, 64
9, 42240, Note_on_c, 3, 60, 100
9, 42336, Note_off_c, 3, 60, 64
9, 42336, Note_on_c, 3, 60, 100
9, 42432, Note_off_c, 3, 60, 64
9, 42432, Note_on_c, 3, 60, 100
9, 42528, Note_off_c, 3, 60, 64
9, 42528, Note_on_c, 3, 60, 100
9, 42624, Note_off_c, 3, 60, 64
9, 42624, Note_on_c, 3, 60, 100
9, 42720, Note_off_c, 3, 60, 64
9, 42720, Note_on_c, 3, 60, 100
9, 42816, Note_off_c, 3, 60, 64
9, 42816, Note_on_c, 3, 60, 100
9, 42912, Note_off_c, 3, 60, 64
9, 42912, Note_on_c, 3, 60, 100
9, 43008, Note_off_c, 3, 60, 64
9, 43008, Note_on_c, 3, 60, 100
9, 43104, Note_off_c, 3, 60, 64
9, 43104, Note_on_c, 3, 60, 100
9, 43200, Note_off_c, 3, 60, 64
9, 43200, Note_on_c, 3, 60, 100
9, 43296, Note_off_c, 3, 60, 64
9, 43296, Note_on_c, 3, 60, 100
9, 43392, Note_off_c, 3, 60, 64
9, 43392, Note_on_c, 3, 60, 100
9, 43488, Note_off_c, 3, 60, 64
9, 43488, Note_on_c, 3, 60, 100
9, 43584, Note_off_c, 3, 60, 64
9, 43584, Note_on_c, 3, 60, 100
9, 43680, Note_off_c, 3, 60, 64
9, 43680, Note_on_c, 3, 60, 100
9, 43776, Note_off_c, 3, 60, 64
9, 43776, Note_on_c, 3, 60, 100
9, 43872, Note_off_c, 3, 60, 64
9, 43872, Note_on_c, 3, 60, 100
9, 43968, Note_off_c, 3, 60, 64
9, 43968, Note_on_c, 3, 60, 100
9, 44064, Note_off_c, 3, 60, 64
9, 44064, Note_on_c, 3, 60, 100
9, 44160, Note_off_c, 3, 60, 64
9, 44160, Note_on_c, 3, 60, 100
9, 44256, Note_off_c, 3, 60, 64
9, 44256, Note_on_c, 3, 60, 100
9, 44352, Note_off_c, 3, 60, 64
9, 44352, Note_on_c, 3, 60, 100
9, 44448, Note_off_c, 3, 60, 64
9, 44448, Note_on_c, 3, 60, 100
9, 44544, Note_off_c, 3, 60, 64
9, 44544, Note_on_c, 3, 60, 100
9, 44640, Note_off_c, 3, 60, 64
9, 44640, Note_on_c, 3, 60, 100
9, 44736, Note_off_c, 3, 60, 64
9, 44736, Note_on_c, 3, 60, 100
9, 44832, Note_off_c, 3, 60, 64
9, 44832, Note_on_c, 3, 60, 100
9, 44928, Note_off_c, 3, 60, 64
9, 44928, Note_on_c, 3, 60, 100
9, 45024, Note_off_c, 3, 60, 64
9, 45024, Note_on_c, 3, 60, 100
9, 45120, Note_off_c, 3, 60, 64
9, 45120, Note_on_c, 3, 60, 100
9, 45216, Note_off_c, 3, 60, 64
9, 45216, Note_on_c, 3, 60, 100
9, 45312, Note_off_c, 3, 60, 64
9, 45312, Note_on_c, 3, 60, 100
9, 45408, Note_off_c, 3, 60, 64
9, 45408, Note_on_c, 3, 60, 100
9, 45504, Note_off_c, 3, 60, 64
9, 45504, Note_on_c, 3, 60, 100
9, 45600, Note_off_c, 3, 60, 64
9, 45600, Note_on_c, 3, 60, 100
9, 45696, Note_off_c, 3, 60, 64
9, 45696, Note_on_c, 3, 60, 100
9, 45792, Note_off_c, 3, 60, 64
9, 45792, Note_on_c, 3, 60, 100
9, 45888, Note_off_c, 3, 60, 64
9, 45888, Note_on_c, 3, 60, 100
9, 45984, Note_off_c, 3, 60, 64
9, 45984, Note_on_c, 3, 60, 100
9, 46080, Note_off_c, 3, 60, 64
9, 46080, Note_on_c, 3, 60, 100
9, 46176, Note_off_c, 3, 60, 64
9, 46176, Note_on_c, 3, 60, 100
9, 46272, Note_off_c, 3, 60, 64
9, 46272, Note_on_c, 3, 60, 100
9, 46368, Note_off_c, 3, 60, 64
9, 46368, Note_on_c, 3, 60, 100
9, 46464, Note_off_c, 3, 60, 64
9, 46464, Note_on_c, 3, 60, 100
9, 46560, Note_off_c, 3, 60, 64
9, 46560, Note_on_c, 3, 60, 100
9, 46656, Note_off_c, 3, 60, 64
9, 46656, Note_on_c, 3, 60, 100
9, 46752, Note_off_c, 3, 60, 64
9, 46752, Note_on_c, 3, 60, 100
9, 46848, Note_off_c, 3, 60, 64
9, 50592, Control_c, 3, 101, 0
9, 50592, Control_c, 3, 100, 0
9, 50592, Control_c, 3, 6, 12
9, 50592, Control_c, 3, 10, 64
9, 50592, Control_c, 3, 7, 100
9, 50592, Pitch_bend_c, 3, 8192
9, 50592, Program_c, 3, 121
9, 50593, Control_c, 3, 101, 0
9, 50593, Control_c, 3, 100, 0
9, 50593, Control_c, 3, 6, 12
9, 50593, Control_c, 3, 10, 64
9, 50593, Control_c, 3, 7, 100
9, 50593, Pitch_bend_c, 3, 8192
9, 50593, Program_c, 3, 121
9, 50593, Control_c, 3, 101, 0
9, 50593, Control_c, 3, 100, 0
9, 50593, Control_c, 3, 6, 12
9, 50593, Control_c, 3, 10, 64
9, 50593, Control_c, 3, 7, 100
9, 50593, Pitch_bend_c, 3, 8192
9, 50593, Program_c, 3, 121
9, 50593, End_track
10, 0, Start_track
10, 0, Title_t, "MIDI out #6"
10, 0, Control_c, 5, 10, 64
10, 0, Control_c, 5, 7, 100
10, 0, Pitch_bend_c, 5, 8192
10, 0, Control_c, 5, 101, 0
10, 0, Control_c, 5, 100, 0
10, 0, Control_c, 5, 6, 12
10, 0, Control_c, 5, 10, 64
10, 0, Control_c, 5, 7, 100
10, 0, Pitch_bend_c, 5, 8192
10, 0, Program_c, 5, 127
10, 0, Control_c, 5, 101, 0
10, 0, Control_c, 5, 100, 0
10, 0, Control_c, 5, 6, 12
10, 0, Control_c, 5, 10, 64
10, 0, Control_c, 5, 7, 100
10, 0, Pitch_bend_c, 5, 8192
10, 0, Program_c, 5, 127
10, 0, Control_c, 5, 101, 0
10, 0, Control_c, 5, 100, 0
10, 0, Control_c, 5, 6, 12
10, 0, Control_c, 5, 10, 64
10, 0, Control_c, 5, 7, 100
10, 0, Pitch_bend_c, 5, 8192
10, 0, Program_c, 5, 127
10, 2784, Note_on_c, 5, 72, 100
10, 2880, Note_off_c, 5, 72, 64
10, 2976, Note_on_c, 5, 72, 100
10, 3072, Note_off_c, 5, 72, 64
10, 3168, Note_on_c, 5, 72, 100
10, 3264, Note_off_c, 5, 72, 64
10, 3360, Note_on_c, 5, 72, 100
10, 3456, Note_off_c, 5, 72, 64
10, 3552, Note_on_c, 5, 72, 100
10, 3648, Note_off_c, 5, 72, 64
10, 3744, Note_on_c, 5, 72, 100
10, 3840, Note_off_c, 5, 72, 64
10, 3936, Note_on_c, 5, 72, 100
10, 4032, Note_off_c, 5, 72, 64
10, 4128, Note_on_c, 5, 72, 100
10, 4224, Note_off_c, 5, 72, 64
10, 4320, Note_on_c, 5, 72, 100
10, 4416, Note_off_c, 5, 72, 64
10, 4512, Note_on_c, 5, 72, 100
10, 4608, Note_off_c, 5, 72, 64
10, 4704, Note_on_c, 5, 72, 100
10, 4800, Note_off_c, 5, 72, 64
10, 4896, Note_on_c, 5, 72, 100
10, 4992, Note_off_c, 5, 72, 64
10, 5088, Note_on_c, 5, 72, 100
10, 5184, Note_off_c, 5, 72, 64
10, 5280, Note_on_c, 5, 72, 100
10, 5376, Note_off_c, 5, 72, 64
10, 5472, Note_on_c, 5, 72, 100
10, 5568, Note_off_c, 5, 72, 64
10, 5568, Note_on_c, 5, 72, 100
10, 5664, Note_off_c, 5, 72, 64
10, 5664, Note_on_c, 5, 72, 100
10, 5760, Note_off_c, 5, 72, 64
10, 5856, Note_on_c, 5, 72, 100
10, 5952, Note_off_c, 5, 72, 64
10, 6048, Note_on_c, 5, 72, 100
10, 6144, Note_off_c, 5, 72, 64
10, 6240, Note_on_c, 5, 72, 100
10, 6336, Note_off_c, 5, 72, 64
10, 6432, Note_on_c, 5, 72, 100
10, 6528, Note_off_c, 5, 72, 64
10, 6624, Note_on_c, 5, 72, 100
10, 6720, Note_off_c, 5, 72, 64
10, 6816, Note_on_c, 5, 72, 100
10, 6912, Note_off_c, 5, 72, 64
10, 7008, Note_on_c, 5, 72, 100
10, 7104, Note_off_c, 5, 72, 64
10, 7200, Note_on_c, 5, 72, 100
10, 7296, Note_off_c, 5, 72, 64
10, 7392, Note_on_c, 5, 72, 100
10, 7488, Note_off_c, 5, 72, 64
10, 7584, Note_on_c, 5, 72, 100
10, 7680, Note_off_c, 5, 72, 64
10, 7776, Note_on_c, 5, 72, 100
10, 7872, Note_off_c, 5, 72, 64
10, 7968, Note_on_c, 5, 72, 100
10, 8064, Note_off_c, 5, 72, 64
10, 8160, Note_on_c, 5, 72, 100
10, 8256, Note_off_c, 5, 72, 64
10, 8352, Note_on_c, 5, 72, 100
10, 8448, Note_off_c, 5, 72, 64
10, 8544, Note_on_c, 5, 72, 100
10, 8640, Note_off_c, 5, 72, 64
10, 8736, Note_on_c, 5, 72, 100
10, 8832, Note_off_c, 5, 72, 64
10, 8928, Note_on_c, 5, 72, 100
10, 9024, Note_off_c, 5, 72, 64
10, 9120, Note_on_c, 5, 72, 100
10, 9216, Note_off_c, 5, 72, 64
10, 9312, Note_on_c, 5, 72, 100
10, 9408, Note_off_c, 5, 72, 64
10, 9504, Note_on_c, 5, 72, 100
10, 9600, Note_off_c, 5, 72, 64
10, 9696, Note_on_c, 5, 72, 100
10, 9792, Note_off_c, 5, 72, 64
10, 9888, Note_on_c, 5, 72, 100
10, 9984, Note_off_c, 5, 72, 64
10, 10080, Note_on_c, 5, 72, 100
10, 10176, Note_off_c, 5, 72, 64
10, 10272, Note_on_c, 5, 72, 100
10, 10368, Note_off_c, 5, 72, 64
10, 10464, Note_on_c, 5, 72, 100
10, 10560, Note_off_c, 5, 72, 64
10, 10656, Note_on_c, 5, 72, 100
10, 10752, Note_off_c, 5, 72, 64
10, 10848, Note_on_c, 5, 72, 100
10, 10944, Note_off_c, 5, 72, 64
10, 11040, Note_on_c, 5, 72, 100
10, 11136, Note_off_c, 5, 72, 64
10, 11232, Note_on_c, 5, 72, 100
10, 11328, Note_off_c, 5, 72, 64
10, 11424, Note_on_c, 5, 72, 100
10, 11520, Note_off_c, 5, 72, 64
10, 11616, Note_on_c, 5, 72, 100
10, 11712, Note_off_c, 5, 72, 64
10, 11712, Note_on_c, 5, 72, 100
10, 11808, Note_off_c, 5, 72, 64
10, 11808, Note_on_c, 5, 72, 100
10, 11904, Note_off_c, 5, 72, 64
10, 12000, Note_on_c, 5, 72, 100
10, 12096, Note_off_c, 5, 72, 64
10, 12192, Note_on_c, 5, 72, 100
10, 12288, Note_off_c, 5, 72, 64
10, 12384, Note_on_c, 5, 72, 100
10, 12480, Note_off_c, 5, 72, 64
10, 12576, Note_on_c, 5, 72, 100
10, 12672, Note_off_c, 5, 72, 64
10, 12768, Note_on_c, 5, 72, 100
10, 12864, Note_off_c, 5, 72, 64
10, 12960, Note_on_c, 5, 72, 100
10, 13056, Note_off_c, 5, 72, 64
10, 13152, Note_on_c, 5, 72, 100
10, 13248, Note_off_c, 5, 72, 64
10, 13344, Note_on_c, 5, 72, 100
10, 13440, Note_off_c, 5, 72, 64
10, 13536, Note_on_c, 5, 72, 100
10, 13632, Note_off_c, 5, 72, 64
10, 13728, Note_on_c, 5, 72, 100
10, 13824, Note_off_c, 5, 72, 64
10, 13920, Note_on_c, 5, 72, 100
10, 14016, Note_off_c, 5, 72, 64
10, 14112, Note_on_c, 5, 72, 100
10, 14208, Note_off_c, 5, 72, 64
10, 14304, Note_on_c, 5, 72, 100
10, 14400, Note_off_c, 5, 72, 64
10, 14496, Note_on_c, 5, 72, 100
10, 14592, Note_off_c, 5, 72, 64
10, 14688, Note_on_c, 5, 72, 100
10, 14784, Note_off_c, 5, 72, 64
10, 14880, Note_on_c, 5, 72, 100
10, 14976, Note_off_c, 5, 72, 64
10, 15072, Note_on_c, 5, 72, 100
10, 15168, Note_off_c, 5, 72, 64
10, 15264, Note_on_c, 5, 72, 100
10, 15360, Note_off_c, 5, 72, 64
10, 15456, Note_on_c, 5, 72, 100
10, 15552, Note_off_c, 5, 72, 64
10, 15648, Note_on_c, 5, 72, 100
10, 15744, Note_off_c, 5, 72, 64
10, 15840, Note_on_c, 5, 72, 100
10, 15936, Note_off_c, 5, 72, 64
10, 16032, Note_on_c, 5, 72, 100
10, 16128, Note_off_c, 5, 72, 64
10, 16224, Note_on_c, 5, 72, 100
10, 16320, Note_off_c, 5, 72, 64
10, 16416, Note_on_c, 5, 72, 100
10, 16512, Note_off_c, 5, 72, 64
10, 16608, Note_on_c, 5, 72, 100
10, 16704, Note_off_c, 5, 72, 64
10, 16800, Note_on_c, 5, 72, 100
10, 16896, Note_off_c, 5, 72, 64
10, 16992, Note_on_c, 5, 72, 100
10, 17088, Note_off_c, 5, 72, 64
10, 17184, Note_on_c, 5, 72, 100
10, 17280, Note_off_c, 5, 72, 64
10, 17376, Note_on_c, 5, 72, 100
10, 17472, Note_off_c, 5, 72, 64
10, 17568, Note_on_c, 5, 72, 100
10, 17664, Note_off_c, 5, 72, 64
10, 17760, Note_on_c, 5, 72, 100
10, 17856, Note_off_c, 5, 72, 64
10, 17952, Note_on_c, 5, 72, 100
10, 18048, Note_off_c, 5, 72, 64
10, 18144, Note_on_c, 5, 72, 100
10, 18240, Note_off_c, 5, 72, 64
10, 18336, Note_on_c, 5, 72, 100
10, 18432, Note_off_c, 5, 72, 64
10, 18528, Note_on_c, 5, 72, 100
10, 18624, Note_off_c, 5, 72, 64
10, 18720, Note_on_c, 5, 72, 100
10, 18816, Note_off_c, 5, 72, 64
10, 18912, Note_on_c, 5, 72, 100
10, 19008, Note_off_c, 5, 72, 64
10, 19104, Note_on_c, 5, 72, 100
10, 19200, Note_off_c, 5, 72, 64
10, 19296, Note_on_c, 5, 72, 100
10, 19392, Note_off_c, 5, 72, 64
10, 19488, Note_on_c, 5, 72, 100
10, 19584, Note_off_c, 5, 72, 64
10, 19680, Note_on_c, 5, 72, 100
10, 19776, Note_off_c, 5, 72, 64
10, 19872, Note_on_c, 5, 72, 100
10, 19968, Note_off_c, 5, 72, 64
10, 20064, Note_on_c, 5, 72, 100
10, 20160, Note_off_c, 5, 72, 64
10, 20256, Note_on_c, 5, 72, 100
10, 20352, Note_off_c, 5, 72, 64
10, 20448, Note_on_c, 5, 72, 100
10, 20544, Note_off_c, 5, 72, 64
10, 20544, Note_on_c, 5, 72, 100
10, 20640, Note_off_c, 5, 72, 64
10, 20640, Note_on_c, 5, 72, 100
10, 20736, Note_off_c, 5, 72, 64
10, 20832, Note_on_c, 5, 72, 100
10, 20928, Note_off_c, 5, 72, 64
10, 21024, Note_on_c, 5, 72, 100
10, 21120, Note_off_c, 5, 72, 64
10, 21216, Note_on_c, 5, 72, 100
10, 21312, Note_off_c, 5, 72, 64
10, 21408, Note_on_c, 5, 72, 100
10, 21504, Note_off_c, 5, 72, 64
10, 21600, Note_on_c, 5, 72, 100
10, 21696, Note_off_c, 5, 72, 64
10, 21792, Note_on_c, 5, 72, 100
10, 21888, Note_off_c, 5, 72, 64
10, 21984, Note_on_c, 5, 72, 100
10, 22080, Note_off_c, 5, 72, 64
10, 22176, Note_on_c, 5, 72, 100
10, 22272, Note_off_c, 5, 72, 64
10, 22368, Note_on_c, 5, 72, 100
10, 22464, Note_off_c, 5, 72, 64
10, 22560, Note_on_c, 5, 72, 100
10, 22656, Note_off_c, 5, 72, 64
10, 22752, Note_on_c, 5, 72, 100
10, 22848, Note_off_c, 5, 72, 64
10, 22944, Note_on_c, 5, 72, 100
10, 23040, Note_off_c, 5, 72, 64
10, 23136, Note_on_c, 5, 72, 100
10, 23232, Note_off_c, 5, 72, 64
10, 23328, Note_on_c, 5, 72, 100
10, 23424, Note_off_c, 5, 72, 64
10, 23520, Note_on_c, 5, 72, 100
10, 23616, Note_off_c, 5, 72, 64
10, 23712, Note_on_c, 5, 72, 100
10, 23808, Note_off_c, 5, 72, 64
10, 23904, Note_on_c, 5, 72, 100
10, 24000, Note_off_c, 5, 72, 64
10, 24096, Note_on_c, 5, 72, 100
10, 24192, Note_off_c, 5, 72, 64
10, 24288, Note_on_c, 5, 72, 100
10, 24384, Note_off_c, 5, 72, 64
10, 24480, Note_on_c, 5, 72, 100
10, 24576, Note_off_c, 5, 72, 64
10, 24672, Note_on_c, 5, 72, 100
10, 24768, Note_off_c, 5, 72, 64
10, 24864, Note_on_c, 5, 72, 100
10, 24960, Note_off_c, 5, 72, 64
10, 25056, Note_on_c, 5, 72, 100
10, 25152, Note_off_c, 5, 72, 64
10, 25248, Note_on_c, 5, 72, 100
10, 25344, Note_off_c, 5, 72, 64
10, 25440, Note_on_c, 5, 72, 100
10, 25536, Note_off_c, 5, 72, 64
10, 25632, Note_on_c, 5, 72, 100
10, 25728, Note_off_c, 5, 72, 64
10, 25824, Note_on_c, 5, 72, 100
10, 25920, Note_off_c, 5, 72, 64
10, 26016, Note_on_c, 5, 72, 100
10, 26112, Note_off_c, 5, 72, 64
10, 26208, Note_on_c, 5, 72, 100
10, 26304, Note_off_c, 5, 72, 64
10, 26304, Note_on_c, 5, 72, 100
10, 26400, Note_off_c, 5, 72, 64
10, 26400, Note_on_c, 5, 72, 100
10, 26496, Note_off_c, 5, 72, 64
10, 26592, Note_on_c, 5, 72, 100
10, 26688, Note_off_c, 5, 72, 64
10, 26784, Note_on_c, 5, 72, 100
10, 26880, Note_off_c, 5, 72, 64
10, 26976, Note_on_c, 5, 72, 100
10, 27072, Note_off_c, 5, 72, 64
10, 27168, Note_on_c, 5, 72, 100
10, 27264, Note_off_c, 5, 72, 64
10, 27360, Note_on_c, 5, 72, 100
10, 27456, Note_off_c, 5, 72, 64
10, 27552, Note_on_c, 5, 72, 100
10, 27648, Note_off_c, 5, 72, 64
10, 27744, Note_on_c, 5, 72, 100
10, 27840, Note_off_c, 5, 72, 64
10, 27936, Note_on_c, 5, 72, 100
10, 28032, Note_off_c, 5, 72, 64
10, 28128, Note_on_c, 5, 72, 100
10, 28224, Note_off_c, 5, 72, 64
10, 28320, Note_on_c, 5, 72, 100
10, 28416, Note_off_c, 5, 72, 64
10, 28512, Note_on_c, 5, 72, 100
10, 28608, Note_off_c, 5, 72, 64
10, 28704, Note_on_c, 5, 72, 100
10, 28800, Note_off_c, 5, 72, 64
10, 28896, Note_on_c, 5, 72, 100
10, 28992, Note_off_c, 5, 72, 64
10, 29088, Note_on_c, 5, 72, 100
10, 29184, Note_off_c, 5, 72, 64
10, 29280, Note_on_c, 5, 72, 100
10, 29376, Note_off_c, 5, 72, 64
10, 29472, Note_on_c, 5, 72, 100
10, 29568, Note_off_c, 5, 72, 64
10, 29664, Note_on_c, 5, 72, 100
10, 29760, Note_off_c, 5, 72, 64
10, 29856, Note_on_c, 5, 72, 100
10, 29952, Note_off_c, 5, 72, 64
10, 30048, Note_on_c, 5, 72, 100
10, 30144, Note_off_c, 5, 72, 64
10, 30240, Note_on_c, 5, 72, 100
10, 30336, Note_off_c, 5, 72, 64
10, 30432, Note_on_c, 5, 72, 100
10, 30528, Note_off_c, 5, 72, 64
10, 30624, Note_on_c, 5, 72, 100
10, 30720, Note_off_c, 5, 72, 64
10, 30816, Note_on_c, 5, 72, 100
10, 30912, Note_off_c, 5, 72, 64
10, 31008, Note_on_c, 5, 72, 100
10, 31104, Note_off_c, 5, 72, 64
10, 31200, Note_on_c, 5, 72, 100
10, 31296, Note_off_c, 5, 72, 64
10, 31392, Note_on_c, 5, 72, 100
10, 31488, Note_off_c, 5, 72, 64
10, 31584, Note_on_c, 5, 72, 100
10, 31680, Note_off_c, 5, 72, 64
10, 31776, Note_on_c, 5, 72, 100
10, 31872, Note_off_c, 5, 72, 64
10, 31968, Note_on_c, 5, 72, 100
10, 32064, Note_off_c, 5, 72, 64
10, 32160, Note_on_c, 5, 72, 100
10, 32256, Note_off_c, 5, 72, 64
10, 32352, Note_on_c, 5, 72, 100
10, 32448, Note_off_c, 5, 72, 64
10, 32544, Note_on_c, 5, 72, 100
10, 32640, Note_off_c, 5, 72, 64
10, 32736, Note_on_c, 5, 72, 100
10, 32832, Note_off_c, 5, 72, 64
10, 32928, Note_on_c, 5, 72, 100
10, 33024, Note_off_c, 5, 72, 64
10, 33120, Note_on_c, 5, 72, 100
10, 33216, Note_off_c, 5, 72, 64
10, 33312, Note_on_c, 5, 72, 100
10, 33408, Note_off_c, 5, 72, 64
10, 33504, Note_on_c, 5, 72, 100
10, 33600, Note_off_c, 5, 72, 64
10, 33696, Note_on_c, 5, 72, 100
10, 33792, Note_off_c, 5, 72, 64
10, 33888, Note_on_c, 5, 72, 100
10, 33984, Note_off_c, 5, 72, 64
10, 34080, Note_on_c, 5, 72, 100
10, 34176, Note_off_c, 5, 72, 64
10, 34272, Note_on_c, 5, 72, 100
10, 34368, Note_off_c, 5, 72, 64
10, 34464, Note_on_c, 5, 72, 100
10, 34560, Note_off_c, 5, 72, 64
10, 34656, Note_on_c, 5, 72, 100
10, 34752, Note_off_c, 5, 72, 64
10, 34752, Note_on_c, 5, 72, 100
10, 34848, Note_off_c, 5, 72, 64
10, 34848, Note_on_c, 5, 72, 100
10, 34944, Note_off_c, 5, 72, 64
10, 35040, Note_on_c, 5, 72, 100
10, 35136, Note_off_c, 5, 72, 64
10, 35232, Note_on_c, 5, 72, 100
10, 35328, Note_off_c, 5, 72, 64
10, 35424, Note_on_c, 5, 72, 100
10, 35520, Note_off_c, 5, 72, 64
10, 35616, Note_on_c, 5, 72, 100
10, 35712, Note_off_c, 5, 72, 64
10, 35808, Note_on_c, 5, 72, 100
10, 35904, Note_off_c, 5, 72, 64
10, 36000, Note_on_c, 5, 72, 100
10, 36096, Note_off_c, 5, 72, 64
10, 36192, Note_on_c, 5, 72, 100
10, 36288, Note_off_c, 5, 72, 64
10, 36384, Note_on_c, 5, 72, 100
10, 36480, Note_off_c, 5, 72, 64
10, 36576, Note_on_c, 5, 72, 100
10, 36672, Note_off_c, 5, 72, 64
10, 36768, Note_on_c, 5, 72, 100
10, 36864, Note_off_c, 5, 72, 64
10, 36960, Note_on_c, 5, 72, 100
10, 37056, Note_off_c, 5, 72, 64
10, 37152, Note_on_c, 5, 72, 100
10, 37248, Note_off_c, 5, 72, 64
10, 37344, Note_on_c, 5, 72, 100
10, 37440, Note_off_c, 5, 72, 64
10, 37536, Note_on_c, 5, 72, 100
10, 37632, Note_off_c, 5, 72, 64
10, 37728, Note_on_c, 5, 72, 100
10, 37824, Note_off_c, 5, 72, 64
10, 37920, Note_on_c, 5, 72, 100
10, 38016, Note_off_c, 5, 72, 64
10, 38112, Note_on_c, 5, 72, 100
10, 38208, Note_off_c, 5, 72, 64
10, 38304, Note_on_c, 5, 72, 100
10, 38400, Note_off_c, 5, 72, 64
10, 38496, Note_on_c, 5, 72, 100
10, 38592, Note_off_c, 5, 72, 64
10, 38688, Note_on_c, 5, 72, 100
10, 38784, Note_off_c, 5, 72, 64
10, 38880, Note_on_c, 5, 72, 100
10, 38976, Note_off_c, 5, 72, 64
10, 39072, Note_on_c, 5, 72, 100
10, 39168, Note_off_c, 5, 72, 64
10, 39264, Note_on_c, 5, 72, 100
10, 39360, Note_off_c, 5, 72, 64
10, 39456, Note_on_c, 5, 72, 100
10, 39552, Note_off_c, 5, 72, 64
10, 39648, Note_on_c, 5, 72, 100
10, 39744, Note_off_c, 5, 72, 64
10, 39840, Note_on_c, 5, 72, 100
10, 39936, Note_off_c, 5, 72, 64
10, 40032, Note_on_c, 5, 72, 100
10, 40128, Note_off_c, 5, 72, 64
10, 40224, Note_on_c, 5, 72, 100
10, 40320, Note_off_c, 5, 72, 64
10, 40416, Note_on_c, 5, 72, 100
10, 40512, Note_off_c, 5, 72, 64
10, 40608, Note_on_c, 5, 72, 100
10, 40704, Note_off_c, 5, 72, 64
10, 40800, Note_on_c, 5, 72, 100
10, 40896, Note_off_c, 5, 72, 64
10, 40992, Note_on_c, 5, 72, 100
10, 41088, Note_off_c, 5, 72, 64
10, 41184, Note_on_c, 5, 72, 100
10, 41280, Note_off_c, 5, 72, 64
10, 41376, Note_on_c, 5, 72, 100
10, 41472, Note_off_c, 5, 72, 64
10, 41568, Note_on_c, 5, 72, 100
10, 41664, Note_off_c, 5, 72, 64
10, 41760, Note_on_c, 5, 72, 100
10, 41856, Note_off_c, 5, 72, 64
10, 41952, Note_on_c, 5, 72, 100
10, 42048, Note_off_c, 5, 72, 64
10, 42144, Note_on_c, 5, 72, 100
10, 42240, Note_off_c, 5, 72, 64
10, 42336, Note_on_c, 5, 72, 100
10, 42432, Note_off_c, 5, 72, 64
10, 42528, Note_on_c, 5, 72, 100
10, 42624, Note_off_c, 5, 72, 64
10, 42720, Note_on_c, 5, 72, 100
10, 42816, Note_off_c, 5, 72, 64
10, 42912, Note_on_c, 5, 72, 100
10, 43008, Note_off_c, 5, 72, 64
10, 43104, Note_on_c, 5, 72, 100
10, 43200, Note_off_c, 5, 72, 64
10, 43296, Note_on_c, 5, 72, 100
10, 43392, Note_off_c, 5, 72, 64
10, 43488, Note_on_c, 5, 72, 100
10, 43584, Note_off_c, 5, 72, 64
10, 43680, Note_on_c, 5, 72, 100
10, 43776, Note_off_c, 5, 72, 64
10, 43872, Note_on_c, 5, 72, 100
10, 43968, Note_off_c, 5, 72, 64
10, 44064, Note_on_c, 5, 72, 100
10, 44160, Note_off_c, 5, 72, 64
10, 44256, Note_on_c, 5, 72, 100
10, 44352, Note_off_c, 5, 72, 64
10, 44448, Note_on_c, 5, 72, 100
10, 44544, Note_off_c, 5, 72, 64
10, 44640, Note_on_c, 5, 72, 100
10, 44736, Note_off_c, 5, 72, 64
10, 44832, Note_on_c, 5, 72, 100
10, 44928, Note_off_c, 5, 72, 64
10, 45024, Note_on_c, 5, 72, 100
10, 45120, Note_off_c, 5, 72, 64
10, 45216, Note_on_c, 5, 72, 100
10, 45312, Note_off_c, 5, 72, 64
10, 45408, Note_on_c, 5, 72, 100
10, 45504, Note_off_c, 5, 72, 64
10, 45600, Note_on_c, 5, 72, 100
10, 45696, Note_off_c, 5, 72, 64
10, 45792, Note_on_c, 5, 72, 100
10, 45888, Note_off_c, 5, 72, 64
10, 45984, Note_on_c, 5, 72, 100
10, 46080, Note_off_c, 5, 72, 64
10, 46176, Note_on_c, 5, 72, 100
10, 46272, Note_off_c, 5, 72, 64
10, 46368, Note_on_c, 5, 72, 100
10, 46464, Note_off_c, 5, 72, 64
10, 46560, Note_on_c, 5, 72, 100
10, 46656, Note_off_c, 5, 72, 64
10, 46656, Note_on_c, 5, 72, 100
10, 46752, Note_off_c, 5, 72, 64
10, 46752, Note_on_c, 5, 72, 100
10, 46848, Note_off_c, 5, 72, 64
10, 50592, Control_c, 5, 101, 0
10, 50592, Control_c, 5, 100, 0
10, 50592, Control_c, 5, 6, 12
10, 50592, Control_c, 5, 10, 64
10, 50592, Control_c, 5, 7, 100
10, 50592, Pitch_bend_c, 5, 8192
10, 50592, Program_c, 5, 127
10, 50593, Control_c, 5, 101, 0
10, 50593, Control_c, 5, 100, 0
10, 50593, Control_c, 5, 6, 12
10, 50593, Control_c, 5, 10, 64
10, 50593, Control_c, 5, 7, 100
10, 50593, Pitch_bend_c, 5, 8192
10, 50593, Program_c, 5, 127
10, 50593, Control_c, 5, 101, 0
10, 50593, Control_c, 5, 100, 0
10, 50593, Control_c, 5, 6, 12
10, 50593, Control_c, 5, 10, 64
10, 50593, Control_c, 5, 7, 100
10, 50593, Pitch_bend_c, 5, 8192
10, 50593, Program_c, 5, 127
10, 50593, End_track
11, 0, Start_track
11, 0, Title_t, "MIDI out #8"
11, 0, Control_c, 7, 10, 64
11, 0, Control_c, 7, 7, 100
11, 0, Pitch_bend_c, 7, 8192
11, 0, Control_c, 7, 101, 0
11, 0, Control_c, 7, 100, 0
11, 0, Control_c, 7, 6, 12
11, 0, Control_c, 7, 10, 64
11, 0, Control_c, 7, 7, 100
11, 0, Pitch_bend_c, 7, 8192
11, 0, Program_c, 7, 118
11, 0, Control_c, 7, 101, 0
11, 0, Control_c, 7, 100, 0
11, 0, Control_c, 7, 6, 12
11, 0, Control_c, 7, 10, 64
11, 0, Control_c, 7, 7, 100
11, 0, Pitch_bend_c, 7, 8192
11, 0, Program_c, 7, 118
11, 0, Control_c, 7, 101, 0
11, 0, Control_c, 7, 100, 0
11, 0, Control_c, 7, 6, 12
11, 0, Control_c, 7, 10, 64
11, 0, Control_c, 7, 7, 100
11, 0, Pitch_bend_c, 7, 8192
11, 0, Program_c, 7, 118
11, 2784, Note_on_c, 7, 60, 100
11, 2880, Note_off_c, 7, 60, 64
11, 2976, Note_on_c, 7, 60, 100
11, 3072, Note_off_c, 7, 60, 64
11, 3168, Note_on_c, 7, 60, 100
11, 3264, Note_off_c, 7, 60, 64
11, 3360, Note_on_c, 7, 60, 100
11, 3456, Note_off_c, 7, 60, 64
11, 3552, Note_on_c, 7, 60, 100
11, 3648, Note_off_c, 7, 60, 64
11, 3744, Note_on_c, 7, 60, 100
11, 3840, Note_off_c, 7, 60, 64
11, 3936, Note_on_c, 7, 60, 100
11, 4032, Note_off_c, 7, 60, 64
11, 4128, Note_on_c, 7, 60, 100
11, 4224, Note_off_c, 7, 60, 64
11, 4320, Note_on_c, 7, 60, 100
11, 4416, Note_off_c, 7, 60, 64
11, 4512, Note_on_c, 7, 60, 100
11, 4608, Note_off_c, 7, 60, 64
11, 4704, Note_on_c, 7, 60, 100
11, 4800, Note_off_c, 7, 60, 64
11, 4896, Note_on_c, 7, 60, 100
11, 4992, Note_off_c, 7, 60, 64
11, 5088, Note_on_c, 7, 60, 100
11, 5184, Note_off_c, 7, 60, 64
11, 5280, Note_on_c, 7, 60, 100
11, 5376, Note_off_c, 7, 60, 64
11, 5472, Note_on_c, 7, 60, 100
11, 5568, Note_off_c, 7, 60, 64
11, 5568, Note_on_c, 7, 60, 100
11, 5664, Note_off_c, 7, 60, 64
11, 5664, Note_on_c, 7, 60, 100
11, 5760, Note_off_c, 7, 60, 64
11, 5856, Note_on_c, 7, 60, 100
11, 5952, Note_off_c, 7, 60, 64
11, 6048, Note_on_c, 7, 60, 100
11, 6144, Note_off_c, 7, 60, 64
11, 6240, Note_on_c, 7, 60, 100
11, 6336, Note_off_c, 7, 60, 64
11, 6432, Note_on_c, 7, 60, 100
11, 6528, Note_off_c, 7, 60, 64
11, 6624, Note_on_c, 7, 60, 100
11, 6720, Note_off_c, 7, 60, 64
11, 6816, Note_on_c, 7, 60, 100
11, 6912, Note_off_c, 7, 60, 64
11, 7008, Note_on_c, 7, 60, 100
11, 7104, Note_off_c, 7, 60, 64
11, 7200, Note_on_c, 7, 60, 100
11, 7296, Note_off_c, 7, 60, 64
11, 7392, Note_on_c, 7, 60, 100
11, 7488, Note_off_c, 7, 60, 64
11, 7584, Note_on_c, 7, 60, 100
11, 7680, Note_off_c, 7, 60, 64
11, 7776, Note_on_c, 7, 60, 100
11, 7872, Note_off_c, 7, 60, 64
11, 7968, Note_on_c, 7, 60, 100
11, 8064, Note_off_c, 7, 60, 64
11, 8160, Note_on_c, 7, 60, 100
11, 8256, Note_off_c, 7, 60, 64
11, 8352, Note_on_c, 7, 60, 100
11, 8448, Note_off_c, 7, 60, 64
11, 8544, Note_on_c, 7, 60, 100
11, 8640, Note_off_c, 7, 60, 64
11, 8736, Note_on_c, 7, 60, 100
11, 8832, Note_off_c, 7, 60, 64
11, 8928, Note_on_c, 7, 60, 100
11, 9024, Note_off_c, 7, 60, 64
11, 9120, Note_on_c, 7, 60, 100
11, 9216, Note_off_c, 7, 60, 64
11, 9312, Note_on_c, 7, 60, 100
11, 9408, Note_off_c, 7, 60, 64
11, 9504, Note_on_c, 7, 60, 100
11, 9600, Note_off_c, 7, 60, 64
11, 9696, Note_on_c, 7, 60, 100
11, 9792, Note_off_c, 7, 60, 64
11, 9888, Note_on_c, 7, 60, 100
11, 9984, Note_off_c, 7, 60, 64
11, 10080, Note_on_c, 7, 60, 100
11, 10176, Note_off_c, 7, 60, 64
11, 10272, Note_on_c, 7, 60, 100
11, 10368, Note_off_c, 7, 60, 64
11, 10464, Note_on_c, 7, 60, 100
11, 10560, Note_off_c, 7, 60, 64
11, 10656, Note_on_c, 7, 60, 100
11, 10752, Note_off_c, 7, 60, 64
11, 10848, Note_on_c, 7, 60, 100
11, 10944, Note_off_c, 7, 60, 64
11, 11040, Note_on_c, 7, 60, 100
11, 11136, Note_off_c, 7, 60, 64
11, 11232, Note_on_c, 7, 60, 100
11, 11328, Note_off_c, 7, 60, 64
11, 11424, Note_on_c, 7, 60, 100
11, 11520, Note_off_c, 7, 60, 64
11, 11616, Note_on_c, 7, 60, 100
11, 11712, Note_off_c, 7, 60, 64
11, 11712, Note_on_c, 7, 60, 100
11, 11808, Note_off_c, 7, 60, 64
11, 11808, Note_on_c, 7, 60, 100
11, 11904, Note_off_c, 7, 60, 64
11, 14208, Note_on_c, 7, 48, 100
11, 14256, Note_off_c, 7, 48, 64
11, 14256, Note_on_c, 7, 50, 100
11, 14304, Note_off_c, 7, 50, 64
11, 14304, Note_on_c, 7, 52, 100
11, 14352, Note_off_c, 7, 52, 64
11, 14352, Note_on_c, 7, 53, 100
11, 14400, Note_off_c, 7, 53, 64
11, 14400, Note_on_c, 7, 55, 100
11, 14448, Note_off_c, 7, 55, 64
11, 14448, Note_on_c, 7, 57, 100
11, 14496, Note_off_c, 7, 57, 64
11, 14496, Note_on_c, 7, 59, 100
11, 14544, Note_off_c, 7, 59, 64
11, 14544, Note_on_c, 7, 60, 100
11, 14592, Note_off_c, 7, 60, 64
11, 14688, Note_on_c, 7, 60, 100
11, 14784, Note_off_c, 7, 60, 64
11, 14880, Note_on_c, 7, 60, 100
11, 14976, Note_off_c, 7, 60, 64
11, 15072, Note_on_c, 7, 60, 100
11, 15168, Note_off_c, 7, 60, 64
11, 15264, Note_on_c, 7, 60, 100
11, 15360, Note_off_c, 7, 60, 64
11, 15456, Note_on_c, 7, 60, 100
11, 15552, Note_off_c, 7, 60, 64
11, 15648, Note_on_c, 7, 60, 100
11, 15744, Note_off_c, 7, 60, 64
11, 15840, Note_on_c, 7, 60, 100
11, 15936, Note_off_c, 7, 60, 64
11, 16032, Note_on_c, 7, 60, 100
11, 16128, Note_off_c, 7, 60, 64
11, 16224, Note_on_c, 7, 60, 100
11, 16320, Note_off_c, 7, 60, 64
11, 16416, Note_on_c, 7, 60, 100
11, 16512, Note_off_c, 7, 60, 64
11, 16608, Note_on_c, 7, 60, 100
11, 16704, Note_off_c, 7, 60, 64
11, 16800, Note_on_c, 7, 60, 100
11, 16896, Note_off_c, 7, 60, 64
11, 16992, Note_on_c, 7, 60, 100
11, 17088, Note_off_c, 7, 60, 64
11, 17184, Note_on_c, 7, 60, 100
11, 17280, Note_off_c, 7, 60, 64
11, 17376, Note_on_c, 7, 60, 100
11, 17472, Note_off_c, 7, 60, 64
11, 17568, Note_on_c, 7, 60, 100
11, 17664, Note_off_c, 7, 60, 64
11, 17760, Note_on_c, 7, 60, 100
11, 17856, Note_off_c, 7, 60, 64
11, 17952, Note_on_c, 7, 60, 100
11, 18048, Note_off_c, 7, 60, 64
11, 18144, Note_on_c, 7, 60, 100
11, 18240, Note_off_c, 7, 60, 64
11, 18336, Note_on_c, 7, 60, 100
11, 18432, Note_off_c, 7, 60, 64
11, 18528, Note_on_c, 7, 60, 100
11, 18624, Note_off_c, 7, 60, 64
11, 18720, Note_on_c, 7, 60, 100
11, 18816, Note_off_c, 7, 60, 64
11, 18912, Note_on_c, 7, 60, 100
11, 19008, Note_off_c, 7, 60, 64
11, 19104, Note_on_c, 7, 60, 100
11, 19200, Note_off_c, 7, 60, 64
11, 19296, Note_on_c, 7, 60, 100
11, 19392, Note_off_c, 7, 60, 64
11, 19488, Note_on_c, 7, 60, 100
11, 19584, Note_off_c, 7, 60, 64
11, 19680, Note_on_c, 7, 60, 100
11, 19776, Note_off_c, 7, 60, 64
11, 19872, Note_on_c, 7, 60, 100
11, 19968, Note_off_c, 7, 60, 64
11, 20064, Note_on_c, 7, 60, 100
11, 20160, Note_off_c, 7, 60, 64
11, 20256, Note_on_c, 7, 60, 100
11, 20352, Note_off_c, 7, 60, 64
11, 20448, Note_on_c, 7, 60, 100
11, 20544, Note_off_c, 7, 60, 64
11, 20544, Note_on_c, 7, 60, 100
11, 20640, Note_off_c, 7, 60, 64
11, 20640, Note_on_c, 7, 60, 100
11, 20736, Note_off_c, 7, 60, 64
11, 23040, Note_on_c, 7, 48, 100
11, 23088, Note_off_c, 7, 48, 64
11, 23088, Note_on_c, 7, 50, 100
11, 23136, Note_off_c, 7, 50, 64
11, 23136, Note_on_c, 7, 52, 100
11, 23184, Note_off_c, 7, 52, 64
11, 23184, Note_on_c, 7, 53, 100
11, 23232, Note_off_c, 7, 53, 64
11, 23232, Note_on_c, 7, 55, 100
11, 23280, Note_off_c, 7, 55, 64
11, 23280, Note_on_c, 7, 57, 100
11, 23328, Note_off_c, 7, 57, 64
11, 23328, Note_on_c, 7, 59, 100
11, 23376, Note_off_c, 7, 59, 64
11, 23376, Note_on_c, 7, 60, 100
11, 23424, Note_off_c, 7, 60, 64
11, 23520, Note_on_c, 7, 60, 100
11, 23616, Note_off_c, 7, 60, 64
11, 23712, Note_on_c, 7, 60, 100
11, 23808, Note_off_c, 7, 60, 64
11, 23904, Note_on_c, 7, 60, 100
11, 24000, Note_off_c, 7, 60, 64
11, 24096, Note_on_c, 7, 60, 100
11, 24192, Note_off_c, 7, 60, 64
11, 24288, Note_on_c, 7, 60, 100
11, 24384, Note_off_c, 7, 60, 64
11, 24480, Note_on_c, 7, 60, 100
11, 24576, Note_off_c, 7, 60, 64
11, 24672, Note_on_c, 7, 60, 100
11, 24768, Note_off_c, 7, 60, 64
11, 24864, Note_on_c, 7, 60, 100
11, 24960, Note_off_c, 7, 60, 64
11, 25056, Note_on_c, 7, 60, 100
11, 25152, Note_off_c, 7, 60, 64
11, 25248, Note_on_c, 7, 60, 100
11, 25344, Note_off_c, 7, 60, 64
11, 25440, Note_on_c, 7, 60, 100
11, 25536, Note_off_c, 7, 60, 64
11, 25632, Note_on_c, 7, 60, 100
11, 25728, Note_off_c, 7, 60, 64
11, 25824, Note_on_c, 7, 60, 100
11, 25920, Note_off_c, 7, 60, 64
11, 26016, Note_on_c, 7, 60, 100
11, 26112, Note_off_c, 7, 60, 64
11, 26208, Note_on_c, 7, 60, 100
11, 26304, Note_off_c, 7, 60, 64
11, 26304, Note_on_c, 7, 60, 100
11, 26400, Note_off_c, 7, 60, 64
11, 26400, Note_on_c, 7, 60, 100
11, 26496, Note_off_c, 7, 60, 64
11, 28416, Note_on_c, 7, 48, 100
11, 28464, Note_off_c, 7, 48, 64
11, 28464, Note_on_c, 7, 50, 100
11, 28512, Note_off_c, 7, 50, 64
11, 28512, Note_on_c, 7, 52, 100
11, 28560, Note_off_c, 7, 52, 64
11, 28560, Note_on_c, 7, 53, 100
11, 28608, Note_off_c, 7, 53, 64
11, 28608, Note_on_c, 7, 55, 100
11, 28656, Note_off_c, 7, 55, 64
11, 28656, Note_on_c, 7, 57, 100
11, 28704, Note_off_c, 7, 57, 64
11, 28704, Note_on_c, 7, 59, 100
11, 28752, Note_off_c, 7, 59, 64
11, 28752, Note_on_c, 7, 60, 100
11, 28800, Note_off_c, 7, 60, 64
11, 28896, Note_on_c, 7, 60, 100
11, 28992, Note_off_c, 7, 60, 64
11, 29088, Note_on_c, 7, 60, 100
11, 29184, Note_off_c, 7, 60, 64
11, 29280, Note_on_c, 7, 60, 100
11, 29376, Note_off_c, 7, 60, 64
11, 29472, Note_on_c, 7, 60, 100
11, 29568, Note_off_c, 7, 60, 64
11, 29664, Note_on_c, 7, 60, 100
11, 29760, Note_off_c, 7, 60, 64
11, 29856, Note_on_c, 7, 60, 100
11, 29952, Note_off_c, 7, 60, 64
11, 30048, Note_on_c, 7, 60, 100
11, 30144, Note_off_c, 7, 60, 64
11, 30240, Note_on_c, 7, 60, 100
11, 30336, Note_off_c, 7, 60, 64
11, 30432, Note_on_c, 7, 60, 100
11, 30528, Note_off_c, 7, 60, 64
11, 30624, Note_on_c, 7, 60, 100
11, 30720, Note_off_c, 7, 60, 64
11, 30816, Note_on_c, 7, 60, 100
11, 30912, Note_off_c, 7, 60, 64
11, 31008, Note_on_c, 7, 60, 100
11, 31104, Note_off_c, 7, 60, 64
11, 31200, Note_on_c, 7, 60, 100
11, 31296, Note_off_c, 7, 60, 64
11, 31392, Note_on_c, 7, 60, 100
11, 31488, Note_off_c, 7, 60, 64
11, 31584, Note_on_c, 7, 60, 100
11, 31680, Note_off_c, 7, 60, 64
11, 31776, Note_on_c, 7, 60, 100
11, 31872, Note_off_c, 7, 60, 64
11, 31968, Note_on_c, 7, 60, 100
11, 32064, Note_off_c, 7, 60, 64
11, 32160, Note_on_c, 7, 60, 100
11, 32256, Note_off_c, 7, 60, 64
11, 32352, Note_on_c, 7, 60, 100
11, 32448, Note_off_c, 7, 60, 64
11, 32544, Note_on_c, 7, 60, 100
11, 32640, Note_off_c, 7, 60, 64
11, 32736, Note_on_c, 7, 60, 100
11, 32832, Note_off_c, 7, 60, 64
11, 32928, Note_on_c, 7, 60, 100
11, 33024, Note_off_c, 7, 60, 64
11, 33120, Note_on_c, 7, 60, 100
11, 33216, Note_off_c, 7, 60, 64
11, 33312, Note_on_c, 7, 60, 100
11, 33408, Note_off_c, 7, 60, 64
11, 33504, Note_on_c, 7, 60, 100
11, 33600, Note_off_c, 7, 60, 64
11, 33696, Note_on_c, 7, 60, 100
11, 33792, Note_off_c, 7, 60, 64
11, 33888, Note_on_c, 7, 60, 100
11, 33984, Note_off_c, 7, 60, 64
11, 34080, Note_on_c, 7, 60, 100
11, 34176, Note_off_c, 7, 60, 64
11, 34272, Note_on_c, 7, 60, 100
11, 34368, Note_off_c, 7, 60, 64
11, 34464, Note_on_c, 7, 60, 100
11, 34560, Note_off_c, 7, 60, 64
11, 34656, Note_on_c, 7, 60, 100
11, 34752, Note_off_c, 7, 60, 64
11, 34752, Note_on_c, 7, 60, 100
11, 34848, Note_off_c, 7, 60, 64
11, 34848, Note_on_c, 7, 60, 100
11, 34944, Note_off_c, 7, 60, 64
11, 37248, Note_on_c, 7, 48, 100
11, 37296, Note_off_c, 7, 48, 64
11, 37296, Note_on_c, 7, 50, 100
11, 37344, Note_off_c, 7, 50, 64
11, 37344, Note_on_c, 7, 52, 100
11, 37392, Note_off_c, 7, 52, 64
11, 37392, Note_on_c, 7, 53, 100
11, 37440, Note_off_c, 7, 53, 64
11, 37440, Note_on_c, 7, 55, 100
11, 37488, Note_off_c, 7, 55, 64
11, 37488, Note_on_c, 7, 57, 100
11, 37536, Note_off_c, 7, 57, 64
11, 37536, Note_on_c, 7, 59, 100
11, 37584, Note_off_c, 7, 59, 64
11, 37584, Note_on_c, 7, 60, 100
11, 37632, Note_off_c, 7, 60, 64
11, 37728, Note_on_c, 7, 60, 100
11, 37824, Note_off_c, 7, 60, 64
11, 37920, Note_on_c, 7, 60, 100
11, 38016, Note_off_c, 7, 60, 64
11, 38112, Note_on_c, 7, 60, 100
11, 38208, Note_off_c, 7, 60, 64
11, 38304, Note_on_c, 7, 60, 100
11, 38400, Note_off_c, 7, 60, 64
11, 38496, Note_on_c, 7, 60, 100
11, 38592, Note_off_c, 7, 60, 64
11, 38688, Note_on_c, 7, 60, 100
11, 38784, Note_off_c, 7, 60, 64
11, 38880, Note_on_c, 7, 60, 100
11, 38976, Note_off_c, 7, 60, 64
11, 39072, Note_on_c, 7, 60, 100
11, 39168, Note_off_c, 7, 60, 64
11, 39264, Note_on_c, 7, 60, 100
11, 39360, Note_off_c, 7, 60, 64
11, 39456, Note_on_c, 7, 60, 100
11, 39552, Note_off_c, 7, 60, 64
11, 39648, Note_on_c, 7, 60, 100
11, 39744, Note_off_c, 7, 60, 64
11, 39840, Note_on_c, 7, 60, 100
11, 39936, Note_off_c, 7, 60, 64
11, 40032, Note_on_c, 7, 60, 100
11, 40128, Note_off_c, 7, 60, 64
11, 40224, Note_on_c, 7, 60, 100
11, 40320, Note_off_c, 7, 60, 64
11, 40416, Note_on_c, 7, 60, 100
11, 40512, Note_off_c, 7, 60, 64
11, 40608, Note_on_c, 7, 60, 100
11, 40704, Note_off_c, 7, 60, 64
11, 40800, Note_on_c, 7, 60, 100
11, 40896, Note_off_c, 7, 60, 64
11, 40992, Note_on_c, 7, 60, 100
11, 41088, Note_off_c, 7, 60, 64
11, 41184, Note_on_c, 7, 60, 100
11, 41280, Note_off_c, 7, 60, 64
11, 41376, Note_on_c, 7, 60, 100
11, 41472, Note_off_c, 7, 60, 64
11, 41568, Note_on_c, 7, 60, 100
11, 41664, Note_off_c, 7, 60, 64
11, 41760, Note_on_c, 7, 60, 100
11, 41856, Note_off_c, 7, 60, 64
11, 41952, Note_on_c, 7, 60, 100
11, 42048, Note_off_c, 7, 60, 64
11, 42144, Note_on_c, 7, 60, 100
11, 42240, Note_off_c, 7, 60, 64
11, 42336, Note_on_c, 7, 60, 100
11, 42432, Note_off_c, 7, 60, 64
11, 42528, Note_on_c, 7, 60, 100
11, 42624, Note_off_c, 7, 60, 64
11, 42720, Note_on_c, 7, 60, 100
11, 42816, Note_off_c, 7, 60, 64
11, 42912, Note_on_c, 7, 60, 100
11, 43008, Note_off_c, 7, 60, 64
11, 43104, Note_on_c, 7, 60, 100
11, 43200, Note_off_c, 7, 60, 64
11, 43296, Note_on_c, 7, 60, 100
11, 43392, Note_off_c, 7, 60, 64
11, 43488, Note_on_c, 7, 60, 100
11, 43584, Note_off_c, 7, 60, 64
11, 43680, Note_on_c, 7, 60, 100
11, 43776, Note_off_c, 7, 60, 64
11, 43872, Note_on_c, 7, 60, 100
11, 43968, Note_off_c, 7, 60, 64
11, 44064, Note_on_c, 7, 60, 100
11, 44160, Note_off_c, 7, 60, 64
11, 44256, Note_on_c, 7, 60, 100
11, 44352, Note_off_c, 7, 60, 64
11, 44448, Note_on_c, 7, 60, 100
11, 44544, Note_off_c, 7, 60, 64
11, 44640, Note_on_c, 7, 60, 100
11, 44736, Note_off_c, 7, 60, 64
11, 44832, Note_on_c, 7, 60, 100
11, 44928, Note_off_c, 7, 60, 64
11, 45024, Note_on_c, 7, 60, 100
11, 45120, Note_off_c, 7, 60, 64
11, 45216, Note_on_c, 7, 60, 100
11, 45312, Note_off_c, 7, 60, 64
11, 45408, Note_on_c, 7, 60, 100
11, 45504, Note_off_c, 7, 60, 64
11, 45600, Note_on_c, 7, 60, 100
11, 45696, Note_off_c, 7, 60, 64
11, 45792, Note_on_c, 7, 60, 100
11, 45888, Note_off_c, 7, 60, 64
11, 45984, Note_on_c, 7, 60, 100
11, 46080, Note_off_c, 7, 60, 64
11, 46176, Note_on_c, 7, 60, 100
11, 46272, Note_off_c, 7, 60, 64
11, 46368, Note_on_c, 7, 60, 100
11, 46464, Note_off_c, 7, 60, 64
11, 46560, Note_on_c, 7, 60, 100
11, 46656, Note_off_c, 7, 60, 64
11, 46656, Note_on_c, 7, 60, 100
11, 46752, Note_off_c, 7, 60, 64
11, 46752, Note_on_c, 7, 60, 100
11, 46848, Note_off_c, 7, 60, 64
11, 50592, Control_c, 7, 101, 0
11, 50592, Control_c, 7, 100, 0
11, 50592, Control_c, 7, 6, 12
11, 50592, Control_c, 7, 10, 64
11, 50592, Control_c, 7, 7, 100
11, 50592, Pitch_bend_c, 7, 8192
11, 50592, Program_c, 7, 118
11, 50593, Control_c, 7, 101, 0
11, 50593, Control_c, 7, 100, 0
11, 50593, Control_c, 7, 6, 12
11, 50593, Control_c, 7, 10, 64
11, 50593, Control_c, 7, 7, 100
11, 50593, Pitch_bend_c, 7, 8192
11, 50593, Program_c, 7, 118
11, 50593, Control_c, 7, 101, 0
11, 50593, Control_c, 7, 100, 0
11, 50593, Control_c, 7, 6, 12
11, 50593, Control_c, 7, 10, 64
11, 50593, Control_c, 7, 7, 100
11, 50593, Pitch_bend_c, 7, 8192
11, 50593, Program_c, 7, 118
11, 50593, End_track
12, 0, Start_track
12, 0, Title_t, "MIDI out #9"
12, 0, Control_c, 8, 10, 64
12, 0, Control_c, 8, 7, 100
12, 0, Pitch_bend_c, 8, 8192
12, 0, Control_c, 8, 101, 0
12, 0, Control_c, 8, 100, 0
12, 0, Control_c, 8, 6, 12
12, 0, Control_c, 8, 10, 64
12, 0, Control_c, 8, 7, 100
12, 0, Pitch_bend_c, 8, 8192
12, 0, Program_c, 8, 9
12, 0, Control_c, 8, 101, 0
12, 0, Control_c, 8, 100, 0
12, 0, Control_c, 8, 6, 12
12, 0, Control_c, 8, 10, 64
12, 0, Control_c, 8, 7, 100
12, 0, Pitch_bend_c, 8, 8192
12, 0, Program_c, 8, 9
12, 0, Control_c, 8, 101, 0
12, 0, Control_c, 8, 100, 0
12, 0, Control_c, 8, 6, 12
12, 0, Control_c, 8, 10, 64
12, 0, Control_c, 8, 7, 100
12, 0, Pitch_bend_c, 8, 8192
12, 0, Program_c, 8, 9
12, 2784, Note_on_c, 8, 66, 100
12, 2832, Note_off_c, 8, 66, 64
12, 2976, Note_on_c, 8, 66, 100
12, 3024, Note_off_c, 8, 66, 64
12, 3168, Note_on_c, 8, 66, 100
12, 3216, Note_off_c, 8, 66, 64
12, 3360, Note_on_c, 8, 66, 100
12, 3408, Note_off_c, 8, 66, 64
12, 3552, Note_on_c, 8, 66, 100
12, 3600, Note_off_c, 8, 66, 64
12, 3744, Note_on_c, 8, 66, 100
12, 3792, Note_off_c, 8, 66, 64
12, 3936, Note_on_c, 8, 66, 100
12, 3984, Note_off_c, 8, 66, 64
12, 4128, Note_on_c, 8, 66, 100
12, 4176, Note_off_c, 8, 66, 64
12, 4320, Note_on_c, 8, 66, 100
12, 4368, Note_off_c, 8, 66, 64
12, 4512, Note_on_c, 8, 66, 100
12, 4560, Note_off_c, 8, 66, 64
12, 4704, Note_on_c, 8, 66, 100
12, 4752, Note_off_c, 8, 66, 64
12, 4896, Note_on_c, 8, 66, 100
12, 4944, Note_off_c, 8, 66, 64
12, 5088, Note_on_c, 8, 66, 100
12, 5136, Note_off_c, 8, 66, 64
12, 5280, Note_on_c, 8, 66, 100
12, 5328, Note_off_c, 8, 66, 64
12, 5472, Note_on_c, 8, 66, 100
12, 5520, Note_off_c, 8, 66, 64
12, 5664, Note_on_c, 8, 66, 100
12, 5712, Note_off_c, 8, 66, 64
12, 5856, Note_on_c, 8, 66, 100
12, 5904, Note_off_c, 8, 66, 64
12, 6048, Note_on_c, 8, 66, 100
12, 6096, Note_off_c, 8, 66, 64
12, 6240, Note_on_c, 8, 66, 100
12, 6288, Note_off_c, 8, 66, 64
12, 6432, Note_on_c, 8, 66, 100
12, 6480, Note_off_c, 8, 66, 64
12, 6624, Note_on_c, 8, 66, 100
12, 6672, Note_off_c, 8, 66, 64
12, 6816, Note_on_c, 8, 66, 100
12, 6864, Note_off_c, 8, 66, 64
12, 7008, Note_on_c, 8, 66, 100
12, 7056, Note_off_c, 8, 66, 64
12, 7200, Note_on_c, 8, 66, 100
12, 7248, Note_off_c, 8, 66, 64
12, 7392, Note_on_c, 8, 66, 100
12, 7440, Note_off_c, 8, 66, 64
12, 7584, Note_on_c, 8, 66, 100
12, 7632, Note_off_c, 8, 66, 64
12, 7776, Note_on_c, 8, 66, 100
12, 7824, Note_off_c, 8, 66, 64
12, 7968, Note_on_c, 8, 66, 100
12, 8016, Note_off_c, 8, 66, 64
12, 8160, Note_on_c, 8, 66, 100
12, 8208, Note_off_c, 8, 66, 64
12, 8352, Note_on_c, 8, 66, 100
12, 8400, Note_off_c, 8, 66, 64
12, 8544, Note_on_c, 8, 66, 100
12, 8592, Note_off_c, 8, 66, 64
12, 8736, Note_on_c, 8, 66, 100
12, 8784, Note_off_c, 8, 66, 64
12, 8928, Note_on_c, 8, 66, 100
12, 8976, Note_off_c, 8, 66, 64
12, 9120, Note_on_c, 8, 66, 100
12, 9168, Note_off_c, 8, 66, 64
12, 9312, Note_on_c, 8, 66, 100
12, 9360, Note_off_c, 8, 66, 64
12, 9504, Note_on_c, 8, 66, 100
12, 9552, Note_off_c, 8, 66, 64
12, 9696, Note_on_c, 8, 66, 100
12, 9744, Note_off_c, 8, 66, 64
12, 9888, Note_on_c, 8, 66, 100
12, 9936, Note_off_c, 8, 66, 64
12, 10080, Note_on_c, 8, 66, 100
12, 10128, Note_off_c, 8, 66, 64
12, 10272, Note_on_c, 8, 66, 100
12, 10320, Note_off_c, 8, 66, 64
12, 10464, Note_on_c, 8, 66, 100
12, 10512, Note_off_c, 8, 66, 64
12, 10656, Note_on_c, 8, 66, 100
12, 10704, Note_off_c, 8, 66, 64
12, 10848, Note_on_c, 8, 66, 100
12, 10896, Note_off_c, 8, 66, 64
12, 11040, Note_on_c, 8, 66, 100
12, 11088, Note_off_c, 8, 66, 64
12, 11232, Note_on_c, 8, 66, 100
12, 11280, Note_off_c, 8, 66, 64
12, 11424, Note_on_c, 8, 66, 100
12, 11472, Note_off_c, 8, 66, 64
12, 11616, Note_on_c, 8, 66, 100
12, 11664, Note_off_c, 8, 66, 64
12, 11808, Note_on_c, 8, 66, 100
12, 11856, Note_off_c, 8, 66, 64
12, 14688, Note_on_c, 8, 66, 100
12, 14736, Note_off_c, 8, 66, 64
12, 14880, Note_on_c, 8, 66, 100
12, 14928, Note_off_c, 8, 66, 64
12, 15072, Note_on_c, 8, 66, 100
12, 15120, Note_off_c, 8, 66, 64
12, 15264, Note_on_c, 8, 66, 100
12, 15312, Note_off_c, 8, 66, 64
12, 15456, Note_on_c, 8, 66, 100
12, 15504, Note_off_c, 8, 66, 64
12, 15648, Note_on_c, 8, 66, 100
12, 15696, Note_off_c, 8, 66, 64
12, 15840, Note_on_c, 8, 66, 100
12, 15888, Note_off_c, 8, 66, 64
12, 16032, Note_on_c, 8, 66, 100
12, 16080, Note_off_c, 8, 66, 64
12, 16224, Note_on_c, 8, 66, 100
12, 16272, Note_off_c, 8, 66, 64
12, 16416, Note_on_c, 8, 66, 100
12, 16464, Note_off_c, 8, 66, 64
12, 16608, Note_on_c, 8, 66, 100
12, 16656, Note_off_c, 8, 66, 64
12, 16800, Note_on_c, 8, 66, 100
12, 16848, Note_off_c, 8, 66, 64
12, 16992, Note_on_c, 8, 66, 100
12, 17040, Note_off_c, 8, 66, 64
12, 17184, Note_on_c, 8, 66, 100
12, 17232, Note_off_c, 8, 66, 64
12, 17376, Note_on_c, 8, 66, 100
12, 17424, Note_off_c, 8, 66, 64
12, 17568, Note_on_c, 8, 66, 100
12, 17616, Note_off_c, 8, 66, 64
12, 17760, Note_on_c, 8, 66, 100
12, 17808, Note_off_c, 8, 66, 64
12, 17952, Note_on_c, 8, 66, 100
12, 18000, Note_off_c, 8, 66, 64
12, 18144, Note_on_c, 8, 66, 100
12, 18192, Note_off_c, 8, 66, 64
12, 18336, Note_on_c, 8, 66, 100
12, 18384, Note_off_c, 8, 66, 64
12, 18528, Note_on_c, 8, 66, 100
12, 18576, Note_off_c, 8, 66, 64
12, 18720, Note_on_c, 8, 66, 100
12, 18768, Note_off_c, 8, 66, 64
12, 18912, Note_on_c, 8, 66, 100
12, 18960, Note_off_c, 8, 66, 64
12, 19104, Note_on_c, 8, 66, 100
12, 19152, Note_off_c, 8, 66, 64
12, 19296, Note_on_c, 8, 66, 100
12, 19344, Note_off_c, 8, 66, 64
12, 19488, Note_on_c, 8, 66, 100
12, 19536, Note_off_c, 8, 66, 64
12, 19680, Note_on_c, 8, 66, 100
12, 19728, Note_off_c, 8, 66, 64
12, 19872, Note_on_c, 8, 66, 100
12, 19920, Note_off_c, 8, 66, 64
12, 20064, Note_on_c, 8, 66, 100
12, 20112, Note_off_c, 8, 66, 64
12, 20256, Note_on_c, 8, 66, 100
12, 20304, Note_off_c, 8, 66, 64
12, 20448, Note_on_c, 8, 66, 100
12, 20496, Note_off_c, 8, 66, 64
12, 20640, Note_on_c, 8, 66, 100
12, 20688, Note_off_c, 8, 66, 64
12, 23520, Note_on_c, 8, 66, 100
12, 23568, Note_off_c, 8, 66, 64
12, 23712, Note_on_c, 8, 66, 100
12, 23760, Note_off_c, 8, 66, 64
12, 23904, Note_on_c, 8, 66, 100
12, 23952, Note_off_c, 8, 66, 64
12, 24096, Note_on_c, 8, 66, 100
12, 24144, Note_off_c, 8, 66, 64
12, 24288, Note_on_c, 8, 66, 100
12, 24336, Note_off_c, 8, 66, 64
12, 24480, Note_on_c, 8, 66, 100
12, 24528, Note_off_c, 8, 66, 64
12, 24672, Note_on_c, 8, 66, 100
12, 24720, Note_off_c, 8, 66, 64
12, 24864, Note_on_c, 8, 66, 100
12, 24912, Note_off_c, 8, 66, 64
12, 25056, Note_on_c, 8, 66, 100
12, 25104, Note_off_c, 8, 66, 64
12, 25248, Note_on_c, 8, 66, 100
12, 25296, Note_off_c, 8, 66, 64
12, 25440, Note_on_c, 8, 66, 100
12, 25488, Note_off_c, 8, 66, 64
12, 25632, Note_on_c, 8, 66, 100
12, 25680, Note_off_c, 8, 66, 64
12, 25824, Note_on_c, 8, 66, 100
12, 25872, Note_off_c, 8, 66, 64
12, 26016, Note_on_c, 8, 66, 100
12, 26064, Note_off_c, 8, 66, 64
12, 26208, Note_on_c, 8, 66, 100
12, 26256, Note_off_c, 8, 66, 64
12, 26400, Note_on_c, 8, 66, 100
12, 26448, Note_off_c, 8, 66, 64
12, 28512, Note_on_c, 8, 66, 100
12, 28560, Note_off_c, 8, 66, 64
12, 28704, Note_on_c, 8, 66, 100
12, 28752, Note_off_c, 8, 66, 64
12, 28896, Note_on_c, 8, 66, 100
12, 28944, Note_off_c, 8, 66, 64
12, 29088, Note_on_c, 8, 66, 100
12, 29136, Note_off_c, 8, 66, 64
12, 29280, Note_on_c, 8, 66, 100
12, 29328, Note_off_c, 8, 66, 64
12, 29472, Note_on_c, 8, 66, 100
12, 29520, Note_off_c, 8, 66, 64
12, 29664, Note_on_c, 8, 66, 100
12, 29712, Note_off_c, 8, 66, 64
12, 29856, Note_on_c, 8, 66, 100
12, 29904, Note_off_c, 8, 66, 64
12, 30048, Note_on_c, 8, 66, 100
12, 30096, Note_off_c, 8, 66, 64
12, 30240, Note_on_c, 8, 66, 100
12, 30288, Note_off_c, 8, 66, 64
12, 30432, Note_on_c, 8, 66, 100
12, 30480, Note_off_c, 8, 66, 64
12, 30624, Note_on_c, 8, 66, 100
12, 30672, Note_off_c, 8, 66, 64
12, 30816, Note_on_c, 8, 66, 100
12, 30864, Note_off_c, 8, 66, 64
12, 31008, Note_on_c, 8, 66, 100
12, 31056, Note_off_c, 8, 66, 64
12, 31200, Note_on_c, 8, 66, 100
12, 31248, Note_off_c, 8, 66, 64
12, 31392, Note_on_c, 8, 66, 100
12, 31440, Note_off_c, 8, 66, 64
12, 31584, Note_on_c, 8, 66, 100
12, 31632, Note_off_c, 8, 66, 64
12, 31776, Note_on_c, 8, 66, 100
12, 31824, Note_off_c, 8, 66, 64
12, 31968, Note_on_c, 8, 66, 100
12, 32016, Note_off_c, 8, 66, 64
12, 32160, Note_on_c, 8, 66, 100
12, 32208, Note_off_c, 8, 66, 64
12, 32352, Note_on_c, 8, 66, 100
12, 32400, Note_off_c, 8, 66, 64
12, 32544, Note_on_c, 8, 66, 100
12, 32592, Note_off_c, 8, 66, 64
12, 32736, Note_on_c, 8, 66, 100
12, 32784, Note_off_c, 8, 66, 64
12, 32928, Note_on_c, 8, 66, 100
12, 32976, Note_off_c, 8, 66, 64
12, 33120, Note_on_c, 8, 66, 100
12, 33168, Note_off_c, 8, 66, 64
12, 33312, Note_on_c, 8, 66, 100
12, 33360, Note_off_c, 8, 66, 64
12, 33504, Note_on_c, 8, 66, 100
12, 33552, Note_off_c, 8, 66, 64
12, 33696, Note_on_c, 8, 66, 100
12, 33744, Note_off_c, 8, 66, 64
12, 33888, Note_on_c, 8, 66, 100
12, 33936, Note_off_c, 8, 66, 64
12, 34080, Note_on_c, 8, 66, 100
12, 34128, Note_off_c, 8, 66, 64
12, 34272, Note_on_c, 8, 66, 100
12, 34320, Note_off_c, 8, 66, 64
12, 34464, Note_on_c, 8, 66, 100
12, 34512, Note_off_c, 8, 66, 64
12, 34656, Note_on_c, 8, 66, 100
12, 34704, Note_off_c, 8, 66, 64
12, 34752, Note_on_c, 8, 66, 100
12, 34800, Note_off_c, 8, 66, 64
12, 34800, Note_on_c, 8, 66, 100
12, 34848, Note_off_c, 8, 66, 64
12, 34848, Note_on_c, 8, 66, 100
12, 34896, Note_off_c, 8, 66, 64
12, 34896, Note_on_c, 8, 66, 100
12, 34944, Note_off_c, 8, 66, 64
12, 37728, Note_on_c, 8, 66, 100
12, 37776, Note_off_c, 8, 66, 64
12, 37920, Note_on_c, 8, 66, 100
12, 37968, Note_off_c, 8, 66, 64
12, 38112, Note_on_c, 8, 66, 100
12, 38160, Note_off_c, 8, 66, 64
12, 38304, Note_on_c, 8, 66, 100
12, 38352, Note_off_c, 8, 66, 64
12, 38496, Note_on_c, 8, 66, 100
12, 38544, Note_off_c, 8, 66, 64
12, 38688, Note_on_c, 8, 66, 100
12, 38736, Note_off_c, 8, 66, 64
12, 38880, Note_on_c, 8, 66, 100
12, 38928, Note_off_c, 8, 66, 64
12, 39072, Note_on_c, 8, 66, 100
12, 39120, Note_off_c, 8, 66, 64
12, 39264, Note_on_c, 8, 66, 100
12, 39312, Note_off_c, 8, 66, 64
12, 39456, Note_on_c, 8, 66, 100
12, 39504, Note_off_c, 8, 66, 64
12, 39648, Note_on_c, 8, 66, 100
12, 39696, Note_off_c, 8, 66, 64
12, 39840, Note_on_c, 8, 66, 100
12, 39888, Note_off_c, 8, 66, 64
12, 40032, Note_on_c, 8, 66, 100
12, 40080, Note_off_c, 8, 66, 64
12, 40224, Note_on_c, 8, 66, 100
12, 40272, Note_off_c, 8, 66, 64
12, 40416, Note_on_c, 8, 66, 100
12, 40464, Note_off_c, 8, 66, 64
12, 40608, Note_on_c, 8, 66, 100
12, 40656, Note_off_c, 8, 66, 64
12, 40800, Note_on_c, 8, 66, 100
12, 40848, Note_off_c, 8, 66, 64
12, 40992, Note_on_c, 8, 66, 100
12, 41040, Note_off_c, 8, 66, 64
12, 41184, Note_on_c, 8, 66, 100
12, 41232, Note_off_c, 8, 66, 64
12, 41376, Note_on_c, 8, 66, 100
12, 41424, Note_off_c, 8, 66, 64
12, 41568, Note_on_c, 8, 66, 100
12, 41616, Note_off_c, 8, 66, 64
12, 41760, Note_on_c, 8, 66, 100
12, 41808, Note_off_c, 8, 66, 64
12, 41952, Note_on_c, 8, 66, 100
12, 42000, Note_off_c, 8, 66, 64
12, 42144, Note_on_c, 8, 66, 100
12, 42192, Note_off_c, 8, 66, 64
12, 42336, Note_on_c, 8, 66, 100
12, 42384, Note_off_c, 8, 66, 64
12, 42528, Note_on_c, 8, 66, 100
12, 42576, Note_off_c, 8, 66, 64
12, 42720, Note_on_c, 8, 66, 100
12, 42768, Note_off_c, 8, 66, 64
12, 42912, Note_on_c, 8, 66, 100
12, 42960, Note_off_c, 8, 66, 64
12, 43104, Note_on_c, 8, 66, 100
12, 43152, Note_off_c, 8, 66, 64
12, 43296, Note_on_c, 8, 66, 100
12, 43344, Note_off_c, 8, 66, 64
12, 43488, Note_on_c, 8, 66, 100
12, 43536, Note_off_c, 8, 66, 64
12, 43680, Note_on_c, 8, 66, 100
12, 43728, Note_off_c, 8, 66, 64
12, 43872, Note_on_c, 8, 66, 100
12, 43920, Note_off_c, 8, 66, 64
12, 44064, Note_on_c, 8, 66, 100
12, 44112, Note_off_c, 8, 66, 64
12, 44256, Note_on_c, 8, 66, 100
12, 44304, Note_off_c, 8, 66, 64
12, 44448, Note_on_c, 8, 66, 100
12, 44496, Note_off_c, 8, 66, 64
12, 44640, Note_on_c, 8, 66, 100
12, 44688, Note_off_c, 8, 66, 64
12, 44832, Note_on_c, 8, 66, 100
12, 44880, Note_off_c, 8, 66, 64
12, 45024, Note_on_c, 8, 66, 100
12, 45072, Note_off_c, 8, 66, 64
12, 45216, Note_on_c, 8, 66, 100
12, 45264, Note_off_c, 8, 66, 64
12, 45408, Note_on_c, 8, 66, 100
12, 45456, Note_off_c, 8, 66, 64
12, 45600, Note_on_c, 8, 66, 100
12, 45648, Note_off_c, 8, 66, 64
12, 45792, Note_on_c, 8, 66, 100
12, 45840, Note_off_c, 8, 66, 64
12, 45984, Note_on_c, 8, 66, 100
12, 46032, Note_off_c, 8, 66, 64
12, 46176, Note_on_c, 8, 66, 100
12, 46224, Note_off_c, 8, 66, 64
12, 46368, Note_on_c, 8, 66, 100
12, 46416, Note_off_c, 8, 66, 64
12, 46560, Note_on_c, 8, 66, 100
12, 46608, Note_off_c, 8, 66, 64
12, 46752, Note_on_c, 8, 66, 100
12, 46800, Note_off_c, 8, 66, 64
12, 46944, Note_on_c, 8, 66, 100
12, 46992, Note_off_c, 8, 66, 64
12, 47136, Note_on_c, 8, 66, 100
12, 47184, Note_off_c, 8, 66, 64
12, 47328, Note_on_c, 8, 66, 100
12, 47376, Note_off_c, 8, 66, 64
12, 47520, Note_on_c, 8, 66, 100
12, 47568, Note_off_c, 8, 66, 64
12, 47712, Note_on_c, 8, 66, 100
12, 47760, Note_off_c, 8, 66, 64
12, 47904, Note_on_c, 8, 66, 100
12, 47952, Note_off_c, 8, 66, 64
12, 48096, Note_on_c, 8, 66, 100
12, 48144, Note_off_c, 8, 66, 64
12, 48288, Note_on_c, 8, 66, 100
12, 48336, Note_off_c, 8, 66, 64
12, 50592, Control_c, 8, 101, 0
12, 50592, Control_c, 8, 100, 0
12, 50592, Control_c, 8, 6, 12
12, 50592, Control_c, 8, 10, 64
12, 50592, Control_c, 8, 7, 100
12, 50592, Pitch_bend_c, 8, 8192
12, 50592, Program_c, 8, 9
12, 50593, Control_c, 8, 101, 0
12, 50593, Control_c, 8, 100, 0
12, 50593, Control_c, 8, 6, 12
12, 50593, Control_c, 8, 10, 64
12, 50593, Control_c, 8, 7, 100
12, 50593, Pitch_bend_c, 8, 8192
12, 50593, Program_c, 8, 9
12, 50593, Control_c, 8, 101, 0
12, 50593, Control_c, 8, 100, 0
12, 50593, Control_c, 8, 6, 12
12, 50593, Control_c, 8, 10, 64
12, 50593, Control_c, 8, 7, 100
12, 50593, Pitch_bend_c, 8, 8192
12, 50593, Program_c, 8, 9
12, 50593, End_track
13, 0, Start_track
13, 0, Title_t, "MIDI out #10"
13, 0, Control_c, 10, 10, 64
13, 0, Control_c, 10, 7, 100
13, 0, Pitch_bend_c, 10, 8192
13, 0, Control_c, 10, 101, 0
13, 0, Control_c, 10, 100, 0
13, 0, Control_c, 10, 6, 12
13, 0, Control_c, 10, 10, 64
13, 0, Control_c, 10, 7, 100
13, 0, Pitch_bend_c, 10, 8192
13, 0, Program_c, 10, 52
13, 0, Control_c, 10, 101, 0
13, 0, Control_c, 10, 100, 0
13, 0, Control_c, 10, 6, 12
13, 0, Control_c, 10, 10, 64
13, 0, Control_c, 10, 7, 100
13, 0, Pitch_bend_c, 10, 8192
13, 0, Program_c, 10, 52
13, 0, Control_c, 10, 101, 0
13, 0, Control_c, 10, 100, 0
13, 0, Control_c, 10, 6, 12
13, 0, Control_c, 10, 10, 64
13, 0, Control_c, 10, 7, 100
13, 0, Pitch_bend_c, 10, 8192
13, 0, Program_c, 10, 52
13, 5760, Note_on_c, 10, 76, 100
13, 5760, Note_on_c, 10, 69, 100
13, 5808, Note_off_c, 10, 76, 64
13, 5808, Note_off_c, 10, 69, 64
13, 5856, Note_on_c, 10, 76, 100
13, 5904, Note_off_c, 10, 76, 64
13, 5952, Note_on_c, 10, 66, 100
13, 5952, Note_on_c, 10, 71, 100
13, 6000, Note_off_c, 10, 71, 64
13, 6000, Note_off_c, 10, 66, 64
13, 6144, Note_on_c, 10, 71, 100
13, 6192, Note_off_c, 10, 71, 64
13, 6192, Note_on_c, 10, 71, 100
13, 6240, Note_off_c, 10, 71, 64
13, 6240, Note_on_c, 10, 71, 100
13, 6288, Note_off_c, 10, 71, 64
13, 6288, Note_on_c, 10, 71, 100
13, 6336, Note_off_c, 10, 71, 64
13, 6384, Note_on_c, 10, 73, 100
13, 6432, Note_off_c, 10, 73, 64
13, 6480, Note_on_c, 10, 71, 100
13, 6528, Note_off_c, 10, 71, 64
13, 6528, Note_on_c, 10, 76, 100
13, 6528, Note_on_c, 10, 69, 100
13, 6576, Note_off_c, 10, 69, 64
13, 6576, Note_off_c, 10, 76, 64
13, 6624, Note_on_c, 10, 76, 100
13, 6672, Note_off_c, 10, 76, 64
13, 6720, Note_on_c, 10, 66, 100
13, 6720, Note_on_c, 10, 71, 100
13, 6768, Note_off_c, 10, 71, 64
13, 6768, Note_off_c, 10, 66, 64
13, 6912, Note_on_c, 10, 71, 100
13, 6960, Note_off_c, 10, 71, 64
13, 6960, Note_on_c, 10, 71, 100
13, 7008, Note_off_c, 10, 71, 64
13, 7008, Note_on_c, 10, 71, 100
13, 7056, Note_off_c, 10, 71, 64
13, 7056, Note_on_c, 10, 71, 100
13, 7104, Note_off_c, 10, 71, 64
13, 7152, Note_on_c, 10, 73, 100
13, 7200, Note_off_c, 10, 73, 64
13, 7248, Note_on_c, 10, 71, 100
13, 7296, Note_off_c, 10, 71, 64
13, 7296, Note_on_c, 10, 71, 100
13, 7296, Note_on_c, 10, 78, 100
13, 7344, Note_off_c, 10, 78, 64
13, 7344, Note_off_c, 10, 71, 64
13, 7392, Note_on_c, 10, 78, 100
13, 7440, Note_off_c, 10, 78, 64
13, 7488, Note_on_c, 10, 66, 100
13, 7488, Note_on_c, 10, 71, 100
13, 7536, Note_off_c, 10, 71, 64
13, 7536, Note_off_c, 10, 66, 64
13, 7680, Note_on_c, 10, 75, 100
13, 7728, Note_off_c, 10, 75, 64
13, 7728, Note_on_c, 10, 75, 100
13, 7776, Note_off_c, 10, 75, 64
13, 7776, Note_on_c, 10, 75, 100
13, 7824, Note_off_c, 10, 75, 64
13, 7824, Note_on_c, 10, 76, 100
13, 7872, Note_off_c, 10, 76, 64
13, 7920, Note_on_c, 10, 75, 100
13, 7968, Note_off_c, 10, 75, 64
13, 8064, Note_on_c, 10, 71, 100
13, 8064, Note_on_c, 10, 78, 100
13, 8112, Note_off_c, 10, 78, 64
13, 8112, Note_off_c, 10, 71, 64
13, 8160, Note_on_c, 10, 78, 100
13, 8208, Note_off_c, 10, 78, 64
13, 8256, Note_on_c, 10, 66, 100
13, 8256, Note_on_c, 10, 71, 100
13, 8304, Note_off_c, 10, 71, 64
13, 8304, Note_off_c, 10, 66, 64
13, 8448, Note_on_c, 10, 75, 100
13, 8496, Note_off_c, 10, 75, 64
13, 8496, Note_on_c, 10, 75, 100
13, 8544, Note_off_c, 10, 75, 64
13, 8544, Note_on_c, 10, 75, 100
13, 8592, Note_off_c, 10, 75, 64
13, 8592, Note_on_c, 10, 73, 100
13, 8640, Note_off_c, 10, 73, 64
13, 8688, Note_on_c, 10, 71, 100
13, 8736, Note_off_c, 10, 71, 64
13, 8832, Note_on_c, 10, 69, 100
13, 8832, Note_on_c, 10, 68, 100
13, 8832, Note_on_c, 10, 76, 100
13, 8880, Note_off_c, 10, 76, 64
13, 8880, Note_off_c, 10, 69, 64
13, 8928, Note_off_c, 10, 68, 64
13, 8928, Note_on_c, 10, 76, 100
13, 8976, Note_off_c, 10, 76, 64
13, 9024, Note_on_c, 10, 71, 100
13, 9024, Note_on_c, 10, 66, 100
13, 9072, Note_off_c, 10, 66, 64
13, 9120, Note_off_c, 10, 71, 64
13, 9216, Note_on_c, 10, 71, 100
13, 9264, Note_off_c, 10, 71, 64
13, 9264, Note_on_c, 10, 71, 100
13, 9312, Note_off_c, 10, 71, 64
13, 9312, Note_on_c, 10, 71, 100
13, 9360, Note_off_c, 10, 71, 64
13, 9360, Note_on_c, 10, 71, 100
13, 9408, Note_off_c, 10, 71, 64
13, 9456, Note_on_c, 10, 73, 100
13, 9504, Note_off_c, 10, 73, 64
13, 9552, Note_on_c, 10, 71, 100
13, 9600, Note_off_c, 10, 71, 64
13, 9600, Note_on_c, 10, 76, 100
13, 9600, Note_on_c, 10, 69, 100
13, 9648, Note_off_c, 10, 69, 64
13, 9648, Note_off_c, 10, 76, 64
13, 9696, Note_on_c, 10, 76, 100
13, 9744, Note_off_c, 10, 76, 64
13, 9792, Note_on_c, 10, 66, 100
13, 9792, Note_on_c, 10, 71, 100
13, 9840, Note_off_c, 10, 71, 64
13, 9840, Note_off_c, 10, 66, 64
13, 9984, Note_on_c, 10, 71, 100
13, 10032, Note_off_c, 10, 71, 64
13, 10032, Note_on_c, 10, 71, 100
13, 10080, Note_off_c, 10, 71, 64
13, 10080, Note_on_c, 10, 71, 100
13, 10128, Note_off_c, 10, 71, 64
13, 10128, Note_on_c, 10, 71, 100
13, 10176, Note_off_c, 10, 71, 64
13, 10224, Note_on_c, 10, 73, 100
13, 10272, Note_off_c, 10, 73, 64
13, 10320, Note_on_c, 10, 71, 100
13, 10368, Note_off_c, 10, 71, 64
13, 10368, Note_on_c, 10, 78, 100
13, 10368, Note_on_c, 10, 71, 100
13, 10416, Note_off_c, 10, 71, 64
13, 10416, Note_off_c, 10, 78, 64
13, 10464, Note_on_c, 10, 78, 100
13, 10512, Note_off_c, 10, 78, 64
13, 10560, Note_on_c, 10, 71, 100
13, 10560, Note_on_c, 10, 66, 100
13, 10608, Note_off_c, 10, 66, 64
13, 10608, Note_off_c, 10, 71, 64
13, 10752, Note_on_c, 10, 75, 100
13, 10800, Note_off_c, 10, 75, 64
13, 10800, Note_on_c, 10, 75, 100
13, 10848, Note_off_c, 10, 75, 64
13, 10848, Note_on_c, 10, 75, 100
13, 10896, Note_off_c, 10, 75, 64
13, 10896, Note_on_c, 10, 76, 100
13, 10944, Note_off_c, 10, 76, 64
13, 10992, Note_on_c, 10, 75, 100
13, 11040, Note_off_c, 10, 75, 64
13, 11136, Note_on_c, 10, 71, 100
13, 11136, Note_on_c, 10, 78, 100
13, 11184, Note_off_c, 10, 78, 64
13, 11184, Note_off_c, 10, 71, 64
13, 11232, Note_on_c, 10, 78, 100
13, 11280, Note_off_c, 10, 78, 64
13, 11328, Note_on_c, 10, 66, 100
13, 11328, Note_on_c, 10, 71, 100
13, 11376, Note_off_c, 10, 71, 64
13, 11376, Note_off_c, 10, 66, 64
13, 11520, Note_on_c, 10, 75, 100
13, 11568, Note_off_c, 10, 75, 64
13, 11568, Note_on_c, 10, 75, 100
13, 11616, Note_off_c, 10, 75, 64
13, 11616, Note_on_c, 10, 75, 100
13, 11664, Note_off_c, 10, 75, 64
13, 11664, Note_on_c, 10, 73, 100
13, 11712, Note_off_c, 10, 73, 64
13, 11760, Note_on_c, 10, 71, 100
13, 11808, Note_off_c, 10, 71, 64
13, 11856, Note_on_c, 10, 71, 100
13, 11904, Note_off_c, 10, 71, 64
13, 11904, Note_on_c, 10, 59, 100
13, 11904, Note_on_c, 10, 71, 100
13, 12048, Note_off_c, 10, 71, 64
13, 12048, Note_off_c, 10, 59, 64
13, 12048, Note_on_c, 10, 71, 100
13, 12048, Note_on_c, 10, 59, 100
13, 12096, Note_off_c, 10, 59, 64
13, 12096, Note_off_c, 10, 71, 64
13, 12096, Note_on_c, 10, 69, 100
13, 12096, Note_on_c, 10, 57, 100
13, 12192, Note_off_c, 10, 69, 64
13, 12192, Note_off_c, 10, 57, 64
13, 12192, Note_on_c, 10, 55, 100
13, 12192, Note_on_c, 10, 67, 100
13, 12240, Note_off_c, 10, 67, 64
13, 12240, Note_off_c, 10, 55, 64
13, 12240, Note_on_c, 10, 71, 100
13, 12240, Note_on_c, 10, 59, 100
13, 12336, Note_off_c, 10, 59, 64
13, 12336, Note_off_c, 10, 71, 64
13, 12336, Note_on_c, 10, 66, 100
13, 12336, Note_on_c, 10, 54, 100
13, 12528, Note_off_c, 10, 54, 64
13, 12528, Note_off_c, 10, 66, 64
13, 12624, Note_on_c, 10, 71, 100
13, 12624, Note_on_c, 10, 59, 100
13, 12672, Note_off_c, 10, 71, 64
13, 12672, Note_off_c, 10, 59, 64
13, 12672, Note_on_c, 10, 59, 100
13, 12672, Note_on_c, 10, 71, 100
13, 12720, Note_off_c, 10, 71, 64
13, 12720, Note_off_c, 10, 59, 64
13, 12720, Note_on_c, 10, 71, 100
13, 12720, Note_on_c, 10, 59, 100
13, 12768, Note_off_c, 10, 59, 64
13, 12768, Note_off_c, 10, 71, 64
13, 12768, Note_on_c, 10, 71, 100
13, 12768, Note_on_c, 10, 59, 100
13, 12816, Note_off_c, 10, 59, 64
13, 12816, Note_off_c, 10, 71, 64
13, 12816, Note_on_c, 10, 71, 100
13, 12816, Note_on_c, 10, 59, 100
13, 12912, Note_off_c, 10, 59, 64
13, 12912, Note_off_c, 10, 71, 64
13, 12912, Note_on_c, 10, 75, 100
13, 12912, Note_on_c, 10, 63, 100
13, 12960, Note_off_c, 10, 63, 64
13, 12960, Note_off_c, 10, 75, 64
13, 12960, Note_on_c, 10, 63, 100
13, 12960, Note_on_c, 10, 75, 100
13, 13008, Note_off_c, 10, 75, 64
13, 13008, Note_off_c, 10, 63, 64
13, 13008, Note_on_c, 10, 64, 100
13, 13008, Note_on_c, 10, 76, 100
13, 13104, Note_off_c, 10, 76, 64
13, 13104, Note_off_c, 10, 64, 64
13, 13104, Note_on_c, 10, 59, 100
13, 13104, Note_on_c, 10, 71, 100
13, 13200, Note_off_c, 10, 71, 64
13, 13200, Note_off_c, 10, 59, 64
13, 13392, Note_on_c, 10, 64, 100
13, 13392, Note_on_c, 10, 76, 100
13, 13440, Note_off_c, 10, 64, 64
13, 13440, Note_off_c, 10, 76, 64
13, 13440, Note_on_c, 10, 64, 100
13, 13440, Note_on_c, 10, 76, 100
13, 13488, Note_off_c, 10, 76, 64
13, 13488, Note_off_c, 10, 64, 64
13, 13488, Note_on_c, 10, 76, 100
13, 13488, Note_on_c, 10, 64, 100
13, 13536, Note_off_c, 10, 64, 64
13, 13536, Note_off_c, 10, 76, 64
13, 13536, Note_on_c, 10, 75, 100
13, 13536, Note_on_c, 10, 63, 100
13, 13632, Note_off_c, 10, 63, 64
13, 13632, Note_off_c, 10, 75, 64
13, 13632, Note_on_c, 10, 73, 100
13, 13632, Note_on_c, 10, 61, 100
13, 13680, Note_off_c, 10, 61, 64
13, 13680, Note_off_c, 10, 73, 64
13, 13680, Note_on_c, 10, 73, 100
13, 13680, Note_on_c, 10, 61, 100
13, 13728, Note_off_c, 10, 61, 64
13, 13728, Note_off_c, 10, 73, 64
13, 13728, Note_on_c, 10, 63, 100
13, 13728, Note_on_c, 10, 75, 100
13, 13776, Note_off_c, 10, 75, 64
13, 13776, Note_off_c, 10, 63, 64
13, 13776, Note_on_c, 10, 73, 100
13, 13776, Note_on_c, 10, 61, 100
13, 13872, Note_off_c, 10, 61, 64
13, 13872, Note_off_c, 10, 73, 64
13, 13872, Note_on_c, 10, 71, 100
13, 13872, Note_on_c, 10, 59, 100
13, 13968, Note_off_c, 10, 59, 64
13, 13968, Note_off_c, 10, 71, 64
13, 14112, Note_on_c, 10, 75, 100
13, 14112, Note_on_c, 10, 63, 100
13, 14160, Note_off_c, 10, 75, 64
13, 14160, Note_off_c, 10, 63, 64
13, 14160, Note_on_c, 10, 75, 100
13, 14160, Note_on_c, 10, 63, 100
13, 14208, Note_off_c, 10, 63, 64
13, 14208, Note_off_c, 10, 75, 64
13, 14208, Note_on_c, 10, 64, 100
13, 14208, Note_on_c, 10, 76, 100
13, 14256, Note_off_c, 10, 76, 64
13, 14256, Note_off_c, 10, 64, 64
13, 14256, Note_on_c, 10, 64, 100
13, 14256, Note_on_c, 10, 76, 100
13, 14304, Note_off_c, 10, 76, 64
13, 14304, Note_off_c, 10, 64, 64
13, 14304, Note_on_c, 10, 63, 100
13, 14304, Note_on_c, 10, 75, 100
13, 14352, Note_off_c, 10, 75, 64
13, 14352, Note_off_c, 10, 63, 64
13, 14352, Note_on_c, 10, 63, 100
13, 14352, Note_on_c, 10, 75, 100
13, 14400, Note_off_c, 10, 75, 64
13, 14400, Note_off_c, 10, 63, 64
13, 14400, Note_on_c, 10, 61, 100
13, 14400, Note_on_c, 10, 73, 100
13, 14496, Note_off_c, 10, 73, 64
13, 14496, Note_off_c, 10, 61, 64
13, 14496, Note_on_c, 10, 71, 100
13, 14496, Note_on_c, 10, 59, 100
13, 14592, Note_off_c, 10, 59, 64
13, 14592, Note_off_c, 10, 71, 64
13, 14592, Note_on_c, 10, 76, 100
13, 14592, Note_on_c, 10, 69, 100
13, 14640, Note_off_c, 10, 69, 64
13, 14640, Note_off_c, 10, 76, 64
13, 14688, Note_on_c, 10, 76, 100
13, 14736, Note_off_c, 10, 76, 64
13, 14784, Note_on_c, 10, 66, 100
13, 14784, Note_on_c, 10, 71, 100
13, 14832, Note_off_c, 10, 71, 64
13, 14832, Note_off_c, 10, 66, 64
13, 14928, Note_on_c, 10, 71, 100
13, 14976, Note_off_c, 10, 71, 64
13, 14976, Note_on_c, 10, 71, 100
13, 15024, Note_off_c, 10, 71, 64
13, 15024, Note_on_c, 10, 71, 100
13, 15072, Note_off_c, 10, 71, 64
13, 15072, Note_on_c, 10, 71, 100
13, 15120, Note_off_c, 10, 71, 64
13, 15120, Note_on_c, 10, 73, 100
13, 15168, Note_off_c, 10, 73, 64
13, 15216, Note_on_c, 10, 71, 100
13, 15264, Note_off_c, 10, 71, 64
13, 15360, Note_on_c, 10, 76, 100
13, 15360, Note_on_c, 10, 69, 100
13, 15408, Note_off_c, 10, 69, 64
13, 15408, Note_off_c, 10, 76, 64
13, 15456, Note_on_c, 10, 76, 100
13, 15504, Note_off_c, 10, 76, 64
13, 15552, Note_on_c, 10, 66, 100
13, 15552, Note_on_c, 10, 71, 100
13, 15600, Note_off_c, 10, 71, 64
13, 15600, Note_off_c, 10, 66, 64
13, 15696, Note_on_c, 10, 71, 100
13, 15744, Note_off_c, 10, 71, 64
13, 15744, Note_on_c, 10, 71, 100
13, 15792, Note_off_c, 10, 71, 64
13, 15792, Note_on_c, 10, 71, 100
13, 15840, Note_off_c, 10, 71, 64
13, 15840, Note_on_c, 10, 71, 100
13, 15888, Note_off_c, 10, 71, 64
13, 15888, Note_on_c, 10, 73, 100
13, 15936, Note_off_c, 10, 73, 64
13, 15984, Note_on_c, 10, 71, 100
13, 16032, Note_off_c, 10, 71, 64
13, 16128, Note_on_c, 10, 78, 100
13, 16128, Note_on_c, 10, 71, 100
13, 16176, Note_off_c, 10, 71, 64
13, 16176, Note_off_c, 10, 78, 64
13, 16224, Note_on_c, 10, 78, 100
13, 16272, Note_off_c, 10, 78, 64
13, 16320, Note_on_c, 10, 71, 100
13, 16320, Note_on_c, 10, 66, 100
13, 16368, Note_off_c, 10, 66, 64
13, 16368, Note_off_c, 10, 71, 64
13, 16416, Note_on_c, 10, 75, 100
13, 16464, Note_off_c, 10, 75, 64
13, 16464, Note_on_c, 10, 75, 100
13, 16512, Note_off_c, 10, 75, 64
13, 16512, Note_on_c, 10, 75, 100
13, 16560, Note_off_c, 10, 75, 64
13, 16560, Note_on_c, 10, 75, 100
13, 16608, Note_off_c, 10, 75, 64
13, 16608, Note_on_c, 10, 75, 100
13, 16656, Note_off_c, 10, 75, 64
13, 16656, Note_on_c, 10, 76, 100
13, 16704, Note_off_c, 10, 76, 64
13, 16752, Note_on_c, 10, 75, 100
13, 16800, Note_off_c, 10, 75, 64
13, 16896, Note_on_c, 10, 71, 100
13, 16896, Note_on_c, 10, 78, 100
13, 16944, Note_off_c, 10, 71, 64
13, 16944, Note_off_c, 10, 78, 64
13, 16992, Note_on_c, 10, 78, 100
13, 17040, Note_off_c, 10, 78, 64
13, 17088, Note_on_c, 10, 71, 100
13, 17088, Note_on_c, 10, 66, 100
13, 17136, Note_off_c, 10, 66, 64
13, 17136, Note_off_c, 10, 71, 64
13, 17280, Note_on_c, 10, 75, 100
13, 17328, Note_off_c, 10, 75, 64
13, 17328, Note_on_c, 10, 75, 100
13, 17376, Note_off_c, 10, 75, 64
13, 17376, Note_on_c, 10, 75, 100
13, 17424, Note_off_c, 10, 75, 64
13, 17424, Note_on_c, 10, 73, 100
13, 17472, Note_off_c, 10, 73, 64
13, 17520, Note_on_c, 10, 71, 100
13, 17568, Note_off_c, 10, 71, 64
13, 17664, Note_on_c, 10, 76, 100
13, 17664, Note_on_c, 10, 69, 100
13, 17664, Note_on_c, 10, 68, 100
13, 17712, Note_off_c, 10, 76, 64
13, 17712, Note_off_c, 10, 69, 64
13, 17760, Note_off_c, 10, 68, 64
13, 17760, Note_on_c, 10, 76, 100
13, 17808, Note_off_c, 10, 76, 64
13, 17856, Note_on_c, 10, 66, 100
13, 17856, Note_on_c, 10, 71, 100
13, 17904, Note_off_c, 10, 66, 64
13, 17952, Note_off_c, 10, 71, 64
13, 18000, Note_on_c, 10, 71, 100
13, 18048, Note_off_c, 10, 71, 64
13, 18048, Note_on_c, 10, 71, 100
13, 18096, Note_off_c, 10, 71, 64
13, 18096, Note_on_c, 10, 71, 100
13, 18144, Note_off_c, 10, 71, 64
13, 18144, Note_on_c, 10, 71, 100
13, 18192, Note_off_c, 10, 71, 64
13, 18192, Note_on_c, 10, 73, 100
13, 18240, Note_off_c, 10, 73, 64
13, 18288, Note_on_c, 10, 71, 100
13, 18336, Note_off_c, 10, 71, 64
13, 18432, Note_on_c, 10, 69, 100
13, 18432, Note_on_c, 10, 76, 100
13, 18480, Note_off_c, 10, 76, 64
13, 18480, Note_off_c, 10, 69, 64
13, 18528, Note_on_c, 10, 76, 100
13, 18576, Note_off_c, 10, 76, 64
13, 18624, Note_on_c, 10, 66, 100
13, 18624, Note_on_c, 10, 71, 100
13, 18672, Note_off_c, 10, 71, 64
13, 18672, Note_off_c, 10, 66, 64
13, 18768, Note_on_c, 10, 71, 100
13, 18816, Note_off_c, 10, 71, 64
13, 18816, Note_on_c, 10, 71, 100
13, 18864, Note_off_c, 10, 71, 64
13, 18864, Note_on_c, 10, 71, 100
13, 18912, Note_off_c, 10, 71, 64
13, 18912, Note_on_c, 10, 71, 100
13, 18960, Note_off_c, 10, 71, 64
13, 18960, Note_on_c, 10, 73, 100
13, 19008, Note_off_c, 10, 73, 64
13, 19056, Note_on_c, 10, 71, 100
13, 19104, Note_off_c, 10, 71, 64
13, 19152, Note_on_c, 10, 71, 100
13, 19200, Note_off_c, 10, 71, 64
13, 19200, Note_on_c, 10, 78, 100
13, 19200, Note_on_c, 10, 71, 100
13, 19248, Note_off_c, 10, 71, 64
13, 19248, Note_off_c, 10, 78, 64
13, 19296, Note_on_c, 10, 78, 100
13, 19344, Note_off_c, 10, 78, 64
13, 19392, Note_on_c, 10, 71, 100
13, 19392, Note_on_c, 10, 66, 100
13, 19440, Note_off_c, 10, 66, 64
13, 19440, Note_off_c, 10, 71, 64
13, 19536, Note_on_c, 10, 75, 100
13, 19584, Note_off_c, 10, 75, 64
13, 19584, Note_on_c, 10, 75, 100
13, 19632, Note_off_c, 10, 75, 64
13, 19632, Note_on_c, 10, 75, 100
13, 19680, Note_off_c, 10, 75, 64
13, 19680, Note_on_c, 10, 75, 100
13, 19728, Note_off_c, 10, 75, 64
13, 19728, Note_on_c, 10, 76, 100
13, 19776, Note_off_c, 10, 76, 64
13, 19824, Note_on_c, 10, 75, 100
13, 19872, Note_off_c, 10, 75, 64
13, 19968, Note_on_c, 10, 78, 100
13, 19968, Note_on_c, 10, 71, 100
13, 20016, Note_off_c, 10, 71, 64
13, 20016, Note_off_c, 10, 78, 64
13, 20064, Note_on_c, 10, 78, 100
13, 20112, Note_off_c, 10, 78, 64
13, 20160, Note_on_c, 10, 71, 100
13, 20160, Note_on_c, 10, 66, 100
13, 20208, Note_off_c, 10, 66, 64
13, 20208, Note_off_c, 10, 71, 64
13, 20304, Note_on_c, 10, 75, 100
13, 20352, Note_off_c, 10, 75, 64
13, 20352, Note_on_c, 10, 75, 100
13, 20400, Note_off_c, 10, 75, 64
13, 20400, Note_on_c, 10, 75, 100
13, 20448, Note_off_c, 10, 75, 64
13, 20448, Note_on_c, 10, 75, 100
13, 20496, Note_off_c, 10, 75, 64
13, 20496, Note_on_c, 10, 73, 100
13, 20544, Note_off_c, 10, 73, 64
13, 20592, Note_on_c, 10, 71, 100
13, 20640, Note_off_c, 10, 71, 64
13, 20688, Note_on_c, 10, 71, 100
13, 20736, Note_off_c, 10, 71, 64
13, 20736, Note_on_c, 10, 59, 100
13, 20736, Note_on_c, 10, 71, 100
13, 20880, Note_off_c, 10, 71, 64
13, 20880, Note_off_c, 10, 59, 64
13, 20880, Note_on_c, 10, 71, 100
13, 20880, Note_on_c, 10, 59, 100
13, 20928, Note_off_c, 10, 59, 64
13, 20928, Note_off_c, 10, 71, 64
13, 20928, Note_on_c, 10, 57, 100
13, 20928, Note_on_c, 10, 69, 100
13, 21024, Note_off_c, 10, 69, 64
13, 21024, Note_off_c, 10, 57, 64
13, 21024, Note_on_c, 10, 67, 100
13, 21024, Note_on_c, 10, 55, 100
13, 21072, Note_off_c, 10, 55, 64
13, 21072, Note_off_c, 10, 67, 64
13, 21072, Note_on_c, 10, 59, 100
13, 21072, Note_on_c, 10, 71, 100
13, 21168, Note_off_c, 10, 71, 64
13, 21168, Note_off_c, 10, 59, 64
13, 21168, Note_on_c, 10, 66, 100
13, 21168, Note_on_c, 10, 54, 100
13, 21360, Note_off_c, 10, 54, 64
13, 21360, Note_off_c, 10, 66, 64
13, 21456, Note_on_c, 10, 59, 100
13, 21456, Note_on_c, 10, 71, 100
13, 21504, Note_off_c, 10, 59, 64
13, 21504, Note_off_c, 10, 71, 64
13, 21504, Note_on_c, 10, 71, 100
13, 21504, Note_on_c, 10, 59, 100
13, 21552, Note_off_c, 10, 59, 64
13, 21552, Note_off_c, 10, 71, 64
13, 21552, Note_on_c, 10, 71, 100
13, 21552, Note_on_c, 10, 59, 100
13, 21600, Note_off_c, 10, 59, 64
13, 21600, Note_off_c, 10, 71, 64
13, 21600, Note_on_c, 10, 71, 100
13, 21600, Note_on_c, 10, 59, 100
13, 21648, Note_off_c, 10, 59, 64
13, 21648, Note_off_c, 10, 71, 64
13, 21648, Note_on_c, 10, 59, 100
13, 21648, Note_on_c, 10, 71, 100
13, 21744, Note_off_c, 10, 71, 64
13, 21744, Note_off_c, 10, 59, 64
13, 21744, Note_on_c, 10, 75, 100
13, 21744, Note_on_c, 10, 63, 100
13, 21792, Note_off_c, 10, 63, 64
13, 21792, Note_off_c, 10, 75, 64
13, 21792, Note_on_c, 10, 75, 100
13, 21792, Note_on_c, 10, 63, 100
13, 21840, Note_off_c, 10, 63, 64
13, 21840, Note_off_c, 10, 75, 64
13, 21840, Note_on_c, 10, 64, 100
13, 21840, Note_on_c, 10, 76, 100
13, 21936, Note_off_c, 10, 76, 64
13, 21936, Note_off_c, 10, 64, 64
13, 21936, Note_on_c, 10, 71, 100
13, 21936, Note_on_c, 10, 59, 100
13, 22032, Note_off_c, 10, 59, 64
13, 22032, Note_off_c, 10, 71, 64
13, 22224, Note_on_c, 10, 76, 100
13, 22224, Note_on_c, 10, 64, 100
13, 22272, Note_off_c, 10, 76, 64
13, 22272, Note_off_c, 10, 64, 64
13, 22272, Note_on_c, 10, 64, 100
13, 22272, Note_on_c, 10, 76, 100
13, 22320, Note_off_c, 10, 76, 64
13, 22320, Note_off_c, 10, 64, 64
13, 22320, Note_on_c, 10, 64, 100
13, 22320, Note_on_c, 10, 76, 100
13, 22368, Note_off_c, 10, 76, 64
13, 22368, Note_off_c, 10, 64, 64
13, 22368, Note_on_c, 10, 63, 100
13, 22368, Note_on_c, 10, 75, 100
13, 22464, Note_off_c, 10, 75, 64
13, 22464, Note_off_c, 10, 63, 64
13, 22464, Note_on_c, 10, 73, 100
13, 22464, Note_on_c, 10, 61, 100
13, 22512, Note_off_c, 10, 61, 64
13, 22512, Note_off_c, 10, 73, 64
13, 22512, Note_on_c, 10, 73, 100
13, 22512, Note_on_c, 10, 61, 100
13, 22560, Note_off_c, 10, 61, 64
13, 22560, Note_off_c, 10, 73, 64
13, 22560, Note_on_c, 10, 75, 100
13, 22560, Note_on_c, 10, 63, 100
13, 22608, Note_off_c, 10, 63, 64
13, 22608, Note_off_c, 10, 75, 64
13, 22608, Note_on_c, 10, 73, 100
13, 22608, Note_on_c, 10, 61, 100
13, 22704, Note_off_c, 10, 61, 64
13, 22704, Note_off_c, 10, 73, 64
13, 22704, Note_on_c, 10, 71, 100
13, 22704, Note_on_c, 10, 59, 100
13, 22800, Note_off_c, 10, 59, 64
13, 22800, Note_off_c, 10, 71, 64
13, 22944, Note_on_c, 10, 63, 100
13, 22944, Note_on_c, 10, 75, 100
13, 22992, Note_off_c, 10, 63, 64
13, 22992, Note_off_c, 10, 75, 64
13, 22992, Note_on_c, 10, 63, 100
13, 22992, Note_on_c, 10, 75, 100
13, 23040, Note_off_c, 10, 75, 64
13, 23040, Note_off_c, 10, 63, 64
13, 23040, Note_on_c, 10, 64, 100
13, 23040, Note_on_c, 10, 76, 100
13, 23088, Note_off_c, 10, 76, 64
13, 23088, Note_off_c, 10, 64, 64
13, 23088, Note_on_c, 10, 64, 100
13, 23088, Note_on_c, 10, 76, 100
13, 23136, Note_off_c, 10, 76, 64
13, 23136, Note_off_c, 10, 64, 64
13, 23136, Note_on_c, 10, 63, 100
13, 23136, Note_on_c, 10, 75, 100
13, 23184, Note_off_c, 10, 75, 64
13, 23184, Note_off_c, 10, 63, 64
13, 23184, Note_on_c, 10, 63, 100
13, 23184, Note_on_c, 10, 75, 100
13, 23232, Note_off_c, 10, 75, 64
13, 23232, Note_off_c, 10, 63, 64
13, 23232, Note_on_c, 10, 61, 100
13, 23232, Note_on_c, 10, 73, 100
13, 23328, Note_off_c, 10, 73, 64
13, 23328, Note_off_c, 10, 61, 64
13, 23328, Note_on_c, 10, 71, 100
13, 23328, Note_on_c, 10, 59, 100
13, 23424, Note_off_c, 10, 59, 64
13, 23424, Note_off_c, 10, 71, 64
13, 23424, Note_on_c, 10, 76, 100
13, 23424, Note_on_c, 10, 69, 100
13, 23472, Note_off_c, 10, 69, 64
13, 23472, Note_off_c, 10, 76, 64
13, 23520, Note_on_c, 10, 76, 100
13, 23568, Note_off_c, 10, 76, 64
13, 23616, Note_on_c, 10, 66, 100
13, 23616, Note_on_c, 10, 71, 100
13, 23664, Note_off_c, 10, 71, 64
13, 23664, Note_off_c, 10, 66, 64
13, 24192, Note_on_c, 10, 69, 100
13, 24192, Note_on_c, 10, 76, 100
13, 24240, Note_off_c, 10, 76, 64
13, 24240, Note_off_c, 10, 69, 64
13, 24288, Note_on_c, 10, 76, 100
13, 24336, Note_off_c, 10, 76, 64
13, 24384, Note_on_c, 10, 71, 100
13, 24384, Note_on_c, 10, 66, 100
13, 24432, Note_off_c, 10, 66, 64
13, 24432, Note_off_c, 10, 71, 64
13, 24960, Note_on_c, 10, 78, 100
13, 24960, Note_on_c, 10, 71, 100
13, 25008, Note_off_c, 10, 71, 64
13, 25008, Note_off_c, 10, 78, 64
13, 25056, Note_on_c, 10, 78, 100
13, 25104, Note_off_c, 10, 78, 64
13, 25152, Note_on_c, 10, 66, 100
13, 25152, Note_on_c, 10, 71, 100
13, 25200, Note_off_c, 10, 71, 64
13, 25200, Note_off_c, 10, 66, 64
13, 25728, Note_on_c, 10, 71, 100
13, 25728, Note_on_c, 10, 78, 100
13, 25776, Note_off_c, 10, 78, 64
13, 25776, Note_off_c, 10, 71, 64
13, 25824, Note_on_c, 10, 78, 100
13, 25872, Note_off_c, 10, 78, 64
13, 25920, Note_on_c, 10, 71, 100
13, 25920, Note_on_c, 10, 66, 100
13, 25968, Note_off_c, 10, 66, 64
13, 25968, Note_off_c, 10, 71, 64
13, 28320, Note_on_c, 10, 75, 100
13, 28320, Note_on_c, 10, 63, 100
13, 28368, Note_off_c, 10, 63, 64
13, 28368, Note_off_c, 10, 75, 64
13, 28368, Note_on_c, 10, 75, 100
13, 28368, Note_on_c, 10, 63, 100
13, 28416, Note_off_c, 10, 63, 64
13, 28416, Note_off_c, 10, 75, 64
13, 28416, Note_on_c, 10, 64, 100
13, 28416, Note_on_c, 10, 76, 100
13, 28464, Note_off_c, 10, 76, 64
13, 28464, Note_off_c, 10, 64, 64
13, 28464, Note_on_c, 10, 76, 100
13, 28464, Note_on_c, 10, 64, 100
13, 28512, Note_off_c, 10, 64, 64
13, 28512, Note_off_c, 10, 76, 64
13, 28512, Note_on_c, 10, 63, 100
13, 28512, Note_on_c, 10, 75, 100
13, 28560, Note_off_c, 10, 75, 64
13, 28560, Note_off_c, 10, 63, 64
13, 28560, Note_on_c, 10, 75, 100
13, 28560, Note_on_c, 10, 63, 100
13, 28608, Note_off_c, 10, 63, 64
13, 28608, Note_off_c, 10, 75, 64
13, 28608, Note_on_c, 10, 61, 100
13, 28608, Note_on_c, 10, 73, 100
13, 28704, Note_off_c, 10, 73, 64
13, 28704, Note_off_c, 10, 61, 64
13, 28704, Note_on_c, 10, 75, 100
13, 28704, Note_on_c, 10, 63, 100
13, 28800, Note_off_c, 10, 63, 64
13, 28800, Note_off_c, 10, 75, 64
13, 28800, Note_on_c, 10, 76, 100
13, 28800, Note_on_c, 10, 64, 100
13, 29184, Note_off_c, 10, 64, 64
13, 29184, Note_off_c, 10, 76, 64
13, 31872, Note_on_c, 10, 69, 100
13, 31872, Note_on_c, 10, 76, 100
13, 31920, Note_off_c, 10, 76, 64
13, 31920, Note_off_c, 10, 69, 64
13, 31968, Note_on_c, 10, 76, 100
13, 32016, Note_off_c, 10, 76, 64
13, 32064, Note_on_c, 10, 66, 100
13, 32064, Note_on_c, 10, 71, 100
13, 32112, Note_off_c, 10, 71, 64
13, 32112, Note_off_c, 10, 66, 64
13, 32640, Note_on_c, 10, 69, 100
13, 32640, Note_on_c, 10, 76, 100
13, 32688, Note_off_c, 10, 76, 64
13, 32688, Note_off_c, 10, 69, 64
13, 32736, Note_on_c, 10, 76, 100
13, 32784, Note_off_c, 10, 76, 64
13, 32832, Note_on_c, 10, 71, 100
13, 32832, Note_on_c, 10, 66, 100
13, 32880, Note_off_c, 10, 66, 64
13, 32880, Note_off_c, 10, 71, 64
13, 33408, Note_on_c, 10, 78, 100
13, 33408, Note_on_c, 10, 71, 100
13, 33456, Note_off_c, 10, 71, 64
13, 33456, Note_off_c, 10, 78, 64
13, 33504, Note_on_c, 10, 78, 100
13, 33552, Note_off_c, 10, 78, 64
13, 33600, Note_on_c, 10, 66, 100
13, 33600, Note_on_c, 10, 71, 100
13, 33648, Note_off_c, 10, 71, 64
13, 33648, Note_off_c, 10, 66, 64
13, 34176, Note_on_c, 10, 78, 100
13, 34176, Note_on_c, 10, 71, 100
13, 34224, Note_off_c, 10, 71, 64
13, 34224, Note_off_c, 10, 78, 64
13, 34272, Note_on_c, 10, 78, 100
13, 34320, Note_off_c, 10, 78, 64
13, 34368, Note_on_c, 10, 66, 100
13, 34368, Note_on_c, 10, 71, 100
13, 34416, Note_off_c, 10, 71, 64
13, 34416, Note_off_c, 10, 66, 64
13, 34944, Note_on_c, 10, 71, 100
13, 34944, Note_on_c, 10, 59, 100
13, 35088, Note_off_c, 10, 59, 64
13, 35088, Note_off_c, 10, 71, 64
13, 35088, Note_on_c, 10, 59, 100
13, 35088, Note_on_c, 10, 71, 100
13, 35136, Note_off_c, 10, 71, 64
13, 35136, Note_off_c, 10, 59, 64
13, 35136, Note_on_c, 10, 57, 100
13, 35136, Note_on_c, 10, 69, 100
13, 35232, Note_off_c, 10, 57, 64
13, 35232, Note_off_c, 10, 69, 64
13, 35232, Note_on_c, 10, 55, 100
13, 35232, Note_on_c, 10, 67, 100
13, 35280, Note_off_c, 10, 67, 64
13, 35280, Note_off_c, 10, 55, 64
13, 35280, Note_on_c, 10, 71, 100
13, 35280, Note_on_c, 10, 59, 100
13, 35376, Note_off_c, 10, 59, 64
13, 35376, Note_off_c, 10, 71, 64
13, 35376, Note_on_c, 10, 54, 100
13, 35376, Note_on_c, 10, 66, 100
13, 35568, Note_off_c, 10, 66, 64
13, 35568, Note_off_c, 10, 54, 64
13, 35664, Note_on_c, 10, 59, 100
13, 35664, Note_on_c, 10, 71, 100
13, 35712, Note_off_c, 10, 59, 64
13, 35712, Note_off_c, 10, 71, 64
13, 35712, Note_on_c, 10, 59, 100
13, 35712, Note_on_c, 10, 71, 100
13, 35760, Note_off_c, 10, 71, 64
13, 35760, Note_off_c, 10, 59, 64
13, 35760, Note_on_c, 10, 71, 100
13, 35760, Note_on_c, 10, 59, 100
13, 35808, Note_off_c, 10, 59, 64
13, 35808, Note_off_c, 10, 71, 64
13, 35808, Note_on_c, 10, 71, 100
13, 35808, Note_on_c, 10, 59, 100
13, 35856, Note_off_c, 10, 59, 64
13, 35856, Note_off_c, 10, 71, 64
13, 35856, Note_on_c, 10, 71, 100
13, 35856, Note_on_c, 10, 59, 100
13, 35952, Note_off_c, 10, 59, 64
13, 35952, Note_off_c, 10, 71, 64
13, 35952, Note_on_c, 10, 63, 100
13, 35952, Note_on_c, 10, 75, 100
13, 36000, Note_off_c, 10, 75, 64
13, 36000, Note_off_c, 10, 63, 64
13, 36000, Note_on_c, 10, 63, 100
13, 36000, Note_on_c, 10, 75, 100
13, 36048, Note_off_c, 10, 75, 64
13, 36048, Note_off_c, 10, 63, 64
13, 36048, Note_on_c, 10, 64, 100
13, 36048, Note_on_c, 10, 76, 100
13, 36144, Note_off_c, 10, 76, 64
13, 36144, Note_off_c, 10, 64, 64
13, 36144, Note_on_c, 10, 59, 100
13, 36144, Note_on_c, 10, 71, 100
13, 36240, Note_off_c, 10, 71, 64
13, 36240, Note_off_c, 10, 59, 64
13, 36432, Note_on_c, 10, 76, 100
13, 36432, Note_on_c, 10, 64, 100
13, 36480, Note_off_c, 10, 76, 64
13, 36480, Note_off_c, 10, 64, 64
13, 36480, Note_on_c, 10, 64, 100
13, 36480, Note_on_c, 10, 76, 100
13, 36528, Note_off_c, 10, 76, 64
13, 36528, Note_off_c, 10, 64, 64
13, 36528, Note_on_c, 10, 64, 100
13, 36528, Note_on_c, 10, 76, 100
13, 36576, Note_off_c, 10, 76, 64
13, 36576, Note_off_c, 10, 64, 64
13, 36576, Note_on_c, 10, 75, 100
13, 36576, Note_on_c, 10, 63, 100
13, 36672, Note_off_c, 10, 63, 64
13, 36672, Note_off_c, 10, 75, 64
13, 36672, Note_on_c, 10, 73, 100
13, 36672, Note_on_c, 10, 61, 100
13, 36720, Note_off_c, 10, 61, 64
13, 36720, Note_off_c, 10, 73, 64
13, 36720, Note_on_c, 10, 61, 100
13, 36720, Note_on_c, 10, 73, 100
13, 36768, Note_off_c, 10, 73, 64
13, 36768, Note_off_c, 10, 61, 64
13, 36768, Note_on_c, 10, 75, 100
13, 36768, Note_on_c, 10, 63, 100
13, 36816, Note_off_c, 10, 63, 64
13, 36816, Note_off_c, 10, 75, 64
13, 36816, Note_on_c, 10, 61, 100
13, 36816, Note_on_c, 10, 73, 100
13, 36912, Note_off_c, 10, 73, 64
13, 36912, Note_off_c, 10, 61, 64
13, 36912, Note_on_c, 10, 59, 100
13, 36912, Note_on_c, 10, 71, 100
13, 37008, Note_off_c, 10, 71, 64
13, 37008, Note_off_c, 10, 59, 64
13, 37152, Note_on_c, 10, 63, 100
13, 37152, Note_on_c, 10, 75, 100
13, 37200, Note_off_c, 10, 63, 64
13, 37200, Note_off_c, 10, 75, 64
13, 37200, Note_on_c, 10, 63, 100
13, 37200, Note_on_c, 10, 75, 100
13, 37248, Note_off_c, 10, 75, 64
13, 37248, Note_off_c, 10, 63, 64
13, 37248, Note_on_c, 10, 64, 100
13, 37248, Note_on_c, 10, 76, 100
13, 37296, Note_off_c, 10, 76, 64
13, 37296, Note_off_c, 10, 64, 64
13, 37296, Note_on_c, 10, 76, 100
13, 37296, Note_on_c, 10, 64, 100
13, 37344, Note_off_c, 10, 64, 64
13, 37344, Note_off_c, 10, 76, 64
13, 37344, Note_on_c, 10, 75, 100
13, 37344, Note_on_c, 10, 63, 100
13, 37392, Note_off_c, 10, 63, 64
13, 37392, Note_off_c, 10, 75, 64
13, 37392, Note_on_c, 10, 75, 100
13, 37392, Note_on_c, 10, 63, 100
13, 37440, Note_off_c, 10, 63, 64
13, 37440, Note_off_c, 10, 75, 64
13, 37440, Note_on_c, 10, 73, 100
13, 37440, Note_on_c, 10, 61, 100
13, 37536, Note_off_c, 10, 61, 64
13, 37536, Note_off_c, 10, 73, 64
13, 37536, Note_on_c, 10, 71, 100
13, 37536, Note_on_c, 10, 59, 100
13, 37632, Note_off_c, 10, 59, 64
13, 37632, Note_off_c, 10, 71, 64
13, 50592, Control_c, 10, 101, 0
13, 50592, Control_c, 10, 100, 0
13, 50592, Control_c, 10, 6, 12
13, 50592, Control_c, 10, 10, 64
13, 50592, Control_c, 10, 7, 100
13, 50592, Pitch_bend_c, 10, 8192
13, 50592, Program_c, 10, 52
13, 50593, Control_c, 10, 101, 0
13, 50593, Control_c, 10, 100, 0
13, 50593, Control_c, 10, 6, 12
13, 50593, Control_c, 10, 10, 64
13, 50593, Control_c, 10, 7, 100
13, 50593, Pitch_bend_c, 10, 8192
13, 50593, Program_c, 10, 52
13, 50593, Control_c, 10, 101, 0
13, 50593, Control_c, 10, 100, 0
13, 50593, Control_c, 10, 6, 12
13, 50593, Control_c, 10, 10, 64
13, 50593, Control_c, 10, 7, 100
13, 50593, Pitch_bend_c, 10, 8192
13, 50593, Program_c, 10, 52
13, 50593, End_track
14, 0, Start_track
14, 0, Title_t, "MIDI out #16"
14, 0, Control_c, 2, 10, 64
14, 0, Control_c, 2, 7, 100
14, 0, Pitch_bend_c, 2, 8192
14, 0, Control_c, 2, 101, 0
14, 0, Control_c, 2, 100, 0
14, 0, Control_c, 2, 6, 12
14, 0, Control_c, 2, 10, 64
14, 0, Control_c, 2, 7, 100
14, 0, Pitch_bend_c, 2, 8192
14, 0, Program_c, 2, 53
14, 0, Control_c, 2, 101, 0
14, 0, Control_c, 2, 100, 0
14, 0, Control_c, 2, 6, 12
14, 0, Control_c, 2, 10, 64
14, 0, Control_c, 2, 7, 100
14, 0, Pitch_bend_c, 2, 8192
14, 0, Program_c, 2, 53
14, 0, Control_c, 2, 101, 0
14, 0, Control_c, 2, 100, 0
14, 0, Control_c, 2, 6, 12
14, 0, Control_c, 2, 10, 64
14, 0, Control_c, 2, 7, 100
14, 0, Pitch_bend_c, 2, 8192
14, 0, Program_c, 2, 53
14, 19008, Note_on_c, 2, 83, 87
14, 19056, Note_off_c, 2, 83, 64
14, 19104, Note_on_c, 2, 80, 87
14, 19176, Note_off_c, 2, 80, 64
14, 23808, Note_on_c, 2, 73, 100
14, 23808, Note_on_c, 2, 61, 100
14, 23904, Note_off_c, 2, 73, 64
14, 23904, Note_off_c, 2, 61, 64
14, 23904, Note_on_c, 2, 71, 100
14, 23904, Note_on_c, 2, 59, 100
14, 24000, Note_off_c, 2, 59, 64
14, 24000, Note_off_c, 2, 71, 64
14, 24000, Note_on_c, 2, 63, 100
14, 24000, Note_on_c, 2, 75, 100
14, 24096, Note_off_c, 2, 75, 64
14, 24096, Note_off_c, 2, 63, 64
14, 24096, Note_on_c, 2, 59, 100
14, 24096, Note_on_c, 2, 71, 100
14, 24192, Note_off_c, 2, 71, 64
14, 24192, Note_off_c, 2, 59, 64
14, 24576, Note_on_c, 2, 73, 100
14, 24576, Note_on_c, 2, 61, 100
14, 24672, Note_off_c, 2, 73, 64
14, 24672, Note_off_c, 2, 61, 64
14, 24672, Note_on_c, 2, 71, 100
14, 24672, Note_on_c, 2, 59, 100
14, 24768, Note_off_c, 2, 59, 64
14, 24768, Note_off_c, 2, 71, 64
14, 24768, Note_on_c, 2, 63, 100
14, 24768, Note_on_c, 2, 75, 100
14, 24864, Note_off_c, 2, 75, 64
14, 24864, Note_off_c, 2, 63, 64
14, 24864, Note_on_c, 2, 71, 100
14, 24864, Note_on_c, 2, 59, 100
14, 24960, Note_off_c, 2, 59, 64
14, 24960, Note_off_c, 2, 71, 64
14, 25344, Note_on_c, 2, 75, 100
14, 25344, Note_on_c, 2, 63, 100
14, 25440, Note_off_c, 2, 75, 64
14, 25440, Note_off_c, 2, 63, 64
14, 25440, Note_on_c, 2, 61, 100
14, 25440, Note_on_c, 2, 73, 100
14, 25536, Note_off_c, 2, 73, 64
14, 25536, Note_off_c, 2, 61, 64
14, 25536, Note_on_c, 2, 64, 100
14, 25536, Note_on_c, 2, 76, 100
14, 25632, Note_off_c, 2, 76, 64
14, 25632, Note_off_c, 2, 64, 64
14, 25632, Note_on_c, 2, 73, 100
14, 25632, Note_on_c, 2, 61, 100
14, 25728, Note_off_c, 2, 61, 64
14, 25728, Note_off_c, 2, 73, 64
14, 26112, Note_on_c, 2, 75, 100
14, 26112, Note_on_c, 2, 63, 100
14, 26208, Note_off_c, 2, 75, 64
14, 26208, Note_off_c, 2, 63, 64
14, 26208, Note_on_c, 2, 73, 100
14, 26208, Note_on_c, 2, 61, 100
14, 26304, Note_off_c, 2, 61, 64
14, 26304, Note_off_c, 2, 73, 64
14, 26304, Note_on_c, 2, 64, 100
14, 26304, Note_on_c, 2, 76, 100
14, 26400, Note_off_c, 2, 76, 64
14, 26400, Note_off_c, 2, 64, 64
14, 26400, Note_on_c, 2, 59, 100
14, 26400, Note_on_c, 2, 71, 100
14, 26496, Note_off_c, 2, 71, 64
14, 26496, Note_off_c, 2, 59, 64
14, 26544, Note_on_c, 2, 83, 99
14, 26544, Note_on_c, 2, 71, 99
14, 26592, Note_off_c, 2, 71, 64
14, 26592, Note_off_c, 2, 83, 64
14, 26592, Note_on_c, 2, 71, 99
14, 26592, Note_on_c, 2, 83, 99
14, 26640, Note_off_c, 2, 71, 64
14, 26640, Note_off_c, 2, 83, 64
14, 26640, Note_on_c, 2, 80, 100
14, 26640, Note_on_c, 2, 68, 100
14, 26688, Note_off_c, 2, 68, 64
14, 26688, Note_off_c, 2, 80, 64
14, 26688, Note_on_c, 2, 76, 100
14, 26688, Note_on_c, 2, 64, 100
14, 26736, Note_off_c, 2, 76, 64
14, 26736, Note_off_c, 2, 64, 64
14, 26736, Note_on_c, 2, 64, 100
14, 26736, Note_on_c, 2, 76, 100
14, 26784, Note_off_c, 2, 64, 64
14, 26784, Note_off_c, 2, 76, 64
14, 26784, Note_on_c, 2, 64, 100
14, 26784, Note_on_c, 2, 76, 100
14, 26832, Note_off_c, 2, 76, 64
14, 26832, Note_off_c, 2, 64, 64
14, 26832, Note_on_c, 2, 76, 100
14, 26832, Note_on_c, 2, 64, 100
14, 26880, Note_off_c, 2, 76, 64
14, 26880, Note_off_c, 2, 64, 64
14, 26880, Note_on_c, 2, 69, 100
14, 26880, Note_on_c, 2, 81, 100
14, 26976, Note_off_c, 2, 81, 64
14, 26976, Note_off_c, 2, 69, 64
14, 26976, Note_on_c, 2, 80, 100
14, 26976, Note_on_c, 2, 68, 100
14, 27048, Note_off_c, 2, 68, 64
14, 27048, Note_off_c, 2, 80, 64
14, 27072, Note_on_c, 2, 76, 100
14, 27072, Note_on_c, 2, 64, 100
14, 27168, Note_off_c, 2, 76, 64
14, 27168, Note_off_c, 2, 64, 64
14, 27168, Note_on_c, 2, 78, 100
14, 27168, Note_on_c, 2, 66, 100
14, 27264, Note_off_c, 2, 78, 64
14, 27264, Note_off_c, 2, 66, 64
14, 27360, Note_on_c, 2, 83, 100
14, 27360, Note_on_c, 2, 71, 100
14, 27408, Note_off_c, 2, 83, 64
14, 27408, Note_off_c, 2, 71, 64
14, 27408, Note_on_c, 2, 80, 100
14, 27408, Note_on_c, 2, 68, 100
14, 27456, Note_off_c, 2, 68, 64
14, 27456, Note_off_c, 2, 80, 64
14, 27456, Note_on_c, 2, 64, 100
14, 27456, Note_on_c, 2, 76, 100
14, 27528, Note_off_c, 2, 64, 64
14, 27528, Note_off_c, 2, 76, 64
14, 27552, Note_on_c, 2, 64, 100
14, 27552, Note_on_c, 2, 76, 100
14, 27648, Note_off_c, 2, 64, 64
14, 27648, Note_off_c, 2, 76, 64
14, 27648, Note_on_c, 2, 69, 100
14, 27648, Note_on_c, 2, 81, 100
14, 27744, Note_off_c, 2, 81, 64
14, 27744, Note_off_c, 2, 69, 64
14, 27744, Note_on_c, 2, 80, 100
14, 27744, Note_on_c, 2, 68, 100
14, 27768, Note_off_c, 2, 80, 64
14, 27768, Note_off_c, 2, 68, 64
14, 27792, Note_on_c, 2, 68, 100
14, 27792, Note_on_c, 2, 80, 100
14, 27840, Note_off_c, 2, 80, 64
14, 27840, Note_off_c, 2, 68, 64
14, 27840, Note_on_c, 2, 78, 100
14, 27840, Note_on_c, 2, 66, 100
14, 27936, Note_off_c, 2, 66, 64
14, 27936, Note_off_c, 2, 78, 64
14, 27936, Note_on_c, 2, 64, 100
14, 27936, Note_on_c, 2, 76, 100
14, 27984, Note_off_c, 2, 76, 64
14, 27984, Note_off_c, 2, 64, 64
14, 27984, Note_on_c, 2, 66, 100
14, 27984, Note_on_c, 2, 78, 100
14, 28032, Note_off_c, 2, 78, 64
14, 28032, Note_off_c, 2, 66, 64
14, 28032, Note_on_c, 2, 68, 100
14, 28032, Note_on_c, 2, 80, 100
14, 28224, Note_off_c, 2, 80, 64
14, 28224, Note_off_c, 2, 68, 64
14, 28320, Note_on_c, 2, 75, 100
14, 28368, Note_off_c, 2, 75, 64
14, 28368, Note_on_c, 2, 75, 100
14, 28416, Note_off_c, 2, 75, 64
14, 28416, Note_on_c, 2, 76, 100
14, 28464, Note_off_c, 2, 76, 64
14, 28464, Note_on_c, 2, 76, 100
14, 28512, Note_off_c, 2, 76, 64
14, 28512, Note_on_c, 2, 75, 100
14, 28560, Note_off_c, 2, 75, 64
14, 28560, Note_on_c, 2, 75, 100
14, 28608, Note_off_c, 2, 75, 64
14, 28608, Note_on_c, 2, 73, 100
14, 28704, Note_off_c, 2, 73, 64
14, 28704, Note_on_c, 2, 75, 100
14, 28800, Note_off_c, 2, 75, 64
14, 32256, Note_on_c, 2, 61, 100
14, 32256, Note_on_c, 2, 73, 100
14, 32352, Note_off_c, 2, 73, 64
14, 32352, Note_off_c, 2, 61, 64
14, 32352, Note_on_c, 2, 59, 100
14, 32352, Note_on_c, 2, 71, 100
14, 32448, Note_off_c, 2, 71, 64
14, 32448, Note_off_c, 2, 59, 64
14, 32448, Note_on_c, 2, 63, 100
14, 32448, Note_on_c, 2, 75, 100
14, 32544, Note_off_c, 2, 75, 64
14, 32544, Note_off_c, 2, 63, 64
14, 32544, Note_on_c, 2, 71, 100
14, 32544, Note_on_c, 2, 59, 100
14, 32640, Note_off_c, 2, 59, 64
14, 32640, Note_off_c, 2, 71, 64
14, 33024, Note_on_c, 2, 61, 100
14, 33024, Note_on_c, 2, 73, 100
14, 33120, Note_off_c, 2, 73, 64
14, 33120, Note_off_c, 2, 61, 64
14, 33120, Note_on_c, 2, 59, 100
14, 33120, Note_on_c, 2, 71, 100
14, 33216, Note_off_c, 2, 71, 64
14, 33216, Note_off_c, 2, 59, 64
14, 33216, Note_on_c, 2, 63, 100
14, 33216, Note_on_c, 2, 75, 100
14, 33312, Note_off_c, 2, 75, 64
14, 33312, Note_off_c, 2, 63, 64
14, 33312, Note_on_c, 2, 59, 100
14, 33312, Note_on_c, 2, 71, 100
14, 33408, Note_off_c, 2, 71, 64
14, 33408, Note_off_c, 2, 59, 64
14, 33792, Note_on_c, 2, 75, 100
14, 33792, Note_on_c, 2, 63, 100
14, 33888, Note_off_c, 2, 63, 64
14, 33888, Note_off_c, 2, 75, 64
14, 33888, Note_on_c, 2, 73, 100
14, 33888, Note_on_c, 2, 61, 100
14, 33984, Note_off_c, 2, 61, 64
14, 33984, Note_off_c, 2, 73, 64
14, 33984, Note_on_c, 2, 64, 100
14, 33984, Note_on_c, 2, 76, 100
14, 34080, Note_off_c, 2, 76, 64
14, 34080, Note_off_c, 2, 64, 64
14, 34080, Note_on_c, 2, 73, 100
14, 34080, Note_on_c, 2, 61, 100
14, 34176, Note_off_c, 2, 61, 64
14, 34176, Note_off_c, 2, 73, 64
14, 34560, Note_on_c, 2, 75, 100
14, 34560, Note_on_c, 2, 63, 100
14, 34656, Note_off_c, 2, 63, 64
14, 34656, Note_off_c, 2, 75, 64
14, 34656, Note_on_c, 2, 73, 100
14, 34656, Note_on_c, 2, 61, 100
14, 34752, Note_off_c, 2, 61, 64
14, 34752, Note_off_c, 2, 73, 64
14, 34752, Note_on_c, 2, 76, 100
14, 34752, Note_on_c, 2, 64, 100
14, 34848, Note_off_c, 2, 64, 64
14, 34848, Note_off_c, 2, 76, 64
14, 34848, Note_on_c, 2, 71, 100
14, 34848, Note_on_c, 2, 59, 100
14, 34944, Note_off_c, 2, 59, 64
14, 34944, Note_off_c, 2, 71, 64
14, 41088, Note_on_c, 2, 61, 100
14, 41088, Note_on_c, 2, 73, 100
14, 41184, Note_off_c, 2, 73, 64
14, 41184, Note_off_c, 2, 61, 64
14, 41184, Note_on_c, 2, 71, 100
14, 41184, Note_on_c, 2, 59, 100
14, 41280, Note_off_c, 2, 59, 64
14, 41280, Note_off_c, 2, 71, 64
14, 41280, Note_on_c, 2, 75, 100
14, 41280, Note_on_c, 2, 63, 100
14, 41376, Note_off_c, 2, 63, 64
14, 41376, Note_off_c, 2, 75, 64
14, 41376, Note_on_c, 2, 59, 100
14, 41376, Note_on_c, 2, 71, 100
14, 41472, Note_off_c, 2, 71, 64
14, 41472, Note_off_c, 2, 59, 64
14, 41856, Note_on_c, 2, 61, 100
14, 41856, Note_on_c, 2, 73, 100
14, 41952, Note_off_c, 2, 73, 64
14, 41952, Note_off_c, 2, 61, 64
14, 41952, Note_on_c, 2, 71, 100
14, 41952, Note_on_c, 2, 59, 100
14, 42048, Note_off_c, 2, 59, 64
14, 42048, Note_off_c, 2, 71, 64
14, 42048, Note_on_c, 2, 75, 100
14, 42048, Note_on_c, 2, 63, 100
14, 42144, Note_off_c, 2, 63, 64
14, 42144, Note_off_c, 2, 75, 64
14, 42144, Note_on_c, 2, 71, 100
14, 42144, Note_on_c, 2, 59, 100
14, 42240, Note_off_c, 2, 59, 64
14, 42240, Note_off_c, 2, 71, 64
14, 42624, Note_on_c, 2, 63, 100
14, 42624, Note_on_c, 2, 75, 100
14, 42720, Note_off_c, 2, 75, 64
14, 42720, Note_off_c, 2, 63, 64
14, 42720, Note_on_c, 2, 61, 100
14, 42720, Note_on_c, 2, 73, 100
14, 42816, Note_off_c, 2, 73, 64
14, 42816, Note_off_c, 2, 61, 64
14, 42816, Note_on_c, 2, 76, 100
14, 42816, Note_on_c, 2, 64, 100
14, 42912, Note_off_c, 2, 64, 64
14, 42912, Note_off_c, 2, 76, 64
14, 42912, Note_on_c, 2, 73, 100
14, 42912, Note_on_c, 2, 61, 100
14, 43008, Note_off_c, 2, 61, 64
14, 43008, Note_off_c, 2, 73, 64
14, 43392, Note_on_c, 2, 63, 100
14, 43392, Note_on_c, 2, 75, 100
14, 43488, Note_off_c, 2, 75, 64
14, 43488, Note_off_c, 2, 63, 64
14, 43488, Note_on_c, 2, 73, 100
14, 43488, Note_on_c, 2, 61, 100
14, 43584, Note_off_c, 2, 61, 64
14, 43584, Note_off_c, 2, 73, 64
14, 43584, Note_on_c, 2, 76, 100
14, 43584, Note_on_c, 2, 64, 100
14, 43680, Note_off_c, 2, 64, 64
14, 43680, Note_off_c, 2, 76, 64
14, 43680, Note_on_c, 2, 71, 100
14, 43680, Note_on_c, 2, 59, 100
14, 43776, Note_off_c, 2, 59, 64
14, 43776, Note_off_c, 2, 71, 64
14, 44160, Note_on_c, 2, 73, 100
14, 44160, Note_on_c, 2, 61, 100
14, 44256, Note_off_c, 2, 61, 64
14, 44256, Note_off_c, 2, 73, 64
14, 44256, Note_on_c, 2, 71, 100
14, 44256, Note_on_c, 2, 59, 100
14, 44352, Note_off_c, 2, 59, 64
14, 44352, Note_off_c, 2, 71, 64
14, 44352, Note_on_c, 2, 75, 100
14, 44352, Note_on_c, 2, 63, 100
14, 44448, Note_off_c, 2, 63, 64
14, 44448, Note_off_c, 2, 75, 64
14, 44448, Note_on_c, 2, 71, 100
14, 44448, Note_on_c, 2, 59, 100
14, 44544, Note_off_c, 2, 59, 64
14, 44544, Note_off_c, 2, 71, 64
14, 44928, Note_on_c, 2, 73, 100
14, 44928, Note_on_c, 2, 61, 100
14, 45024, Note_off_c, 2, 61, 64
14, 45024, Note_off_c, 2, 73, 64
14, 45024, Note_on_c, 2, 71, 100
14, 45024, Note_on_c, 2, 59, 100
14, 45120, Note_off_c, 2, 59, 64
14, 45120, Note_off_c, 2, 71, 64
14, 45120, Note_on_c, 2, 75, 100
14, 45120, Note_on_c, 2, 63, 100
14, 45216, Note_off_c, 2, 63, 64
14, 45216, Note_off_c, 2, 75, 64
14, 45216, Note_on_c, 2, 59, 100
14, 45216, Note_on_c, 2, 71, 100
14, 45312, Note_off_c, 2, 71, 64
14, 45312, Note_off_c, 2, 59, 64
14, 45696, Note_on_c, 2, 75, 100
14, 45696, Note_on_c, 2, 63, 100
14, 45792, Note_off_c, 2, 63, 64
14, 45792, Note_off_c, 2, 75, 64
14, 45792, Note_on_c, 2, 61, 100
14, 45792, Note_on_c, 2, 73, 100
14, 45888, Note_off_c, 2, 73, 64
14, 45888, Note_off_c, 2, 61, 64
14, 45888, Note_on_c, 2, 76, 100
14, 45888, Note_on_c, 2, 64, 100
14, 45984, Note_off_c, 2, 64, 64
14, 45984, Note_off_c, 2, 76, 64
14, 45984, Note_on_c, 2, 61, 100
14, 45984, Note_on_c, 2, 73, 100
14, 46080, Note_off_c, 2, 73, 64
14, 46080, Note_off_c, 2, 61, 64
14, 46464, Note_on_c, 2, 63, 100
14, 46464, Note_on_c, 2, 75, 100
14, 46560, Note_off_c, 2, 75, 64
14, 46560, Note_off_c, 2, 63, 64
14, 46560, Note_on_c, 2, 73, 100
14, 46560, Note_on_c, 2, 61, 100
14, 46656, Note_off_c, 2, 61, 64
14, 46656, Note_off_c, 2, 73, 64
14, 46656, Note_on_c, 2, 76, 100
14, 46656, Note_on_c, 2, 64, 100
14, 46752, Note_off_c, 2, 64, 64
14, 46752, Note_off_c, 2, 76, 64
14, 46752, Note_on_c, 2, 71, 100
14, 46752, Note_on_c, 2, 59, 100
14, 46848, Note_off_c, 2, 59, 64
14, 46848, Note_off_c, 2, 71, 64
14, 50592, Control_c, 2, 101, 0
14, 50592, Control_c, 2, 100, 0
14, 50592, Control_c, 2, 6, 12
14, 50592, Control_c, 2, 10, 64
14, 50592, Control_c, 2, 7, 100
14, 50592, Pitch_bend_c, 2, 8192
14, 50592, Program_c, 2, 53
14, 50593, Control_c, 2, 101, 0
14, 50593, Control_c, 2, 100, 0
14, 50593, Control_c, 2, 6, 12
14, 50593, Control_c, 2, 10, 64
14, 50593, Control_c, 2, 7, 100
14, 50593, Pitch_bend_c, 2, 8192
14, 50593, Program_c, 2, 53
14, 50593, Control_c, 2, 101, 0
14, 50593, Control_c, 2, 100, 0
14, 50593, Control_c, 2, 6, 12
14, 50593, Control_c, 2, 10, 64
14, 50593, Control_c, 2, 7, 100
14, 50593, Pitch_bend_c, 2, 8192
14, 50593, Program_c, 2, 53
14, 50593, End_track
15, 0, Start_track
15, 0, Title_t, "MIDI out #13"
15, 0, Control_c, 13, 10, 64
15, 0, Control_c, 13, 7, 100
15, 0, Pitch_bend_c, 13, 8192
15, 0, Control_c, 13, 101, 0
15, 0, Control_c, 13, 100, 0
15, 0, Control_c, 13, 6, 12
15, 0, Control_c, 13, 10, 64
15, 0, Control_c, 13, 7, 100
15, 0, Pitch_bend_c, 13, 8192
15, 0, Program_c, 13, 75
15, 0, Control_c, 13, 101, 0
15, 0, Control_c, 13, 100, 0
15, 0, Control_c, 13, 6, 12
15, 0, Control_c, 13, 10, 64
15, 0, Control_c, 13, 7, 100
15, 0, Pitch_bend_c, 13, 8192
15, 0, Program_c, 13, 75
15, 0, Control_c, 13, 101, 0
15, 0, Control_c, 13, 100, 0
15, 0, Control_c, 13, 6, 12
15, 0, Control_c, 13, 10, 64
15, 0, Control_c, 13, 7, 100
15, 0, Pitch_bend_c, 13, 8192
15, 0, Program_c, 13, 75
15, 5760, Note_on_c, 13, 64, 100
15, 5856, Note_off_c, 13, 64, 64
15, 5856, Note_on_c, 13, 64, 100
15, 5952, Note_off_c, 13, 64, 64
15, 5952, Note_on_c, 13, 64, 100
15, 6048, Note_off_c, 13, 64, 64
15, 6048, Note_on_c, 13, 64, 100
15, 6144, Note_off_c, 13, 64, 64
15, 6144, Note_on_c, 13, 64, 100
15, 6240, Note_off_c, 13, 64, 64
15, 6240, Note_on_c, 13, 64, 100
15, 6336, Note_off_c, 13, 64, 64
15, 6336, Note_on_c, 13, 64, 100
15, 6432, Note_off_c, 13, 64, 64
15, 6432, Note_on_c, 13, 64, 100
15, 6528, Note_off_c, 13, 64, 64
15, 6528, Note_on_c, 13, 64, 100
15, 6624, Note_off_c, 13, 64, 64
15, 6624, Note_on_c, 13, 64, 100
15, 6720, Note_off_c, 13, 64, 64
15, 6720, Note_on_c, 13, 64, 100
15, 6816, Note_off_c, 13, 64, 64
15, 6816, Note_on_c, 13, 64, 100
15, 6912, Note_off_c, 13, 64, 64
15, 6912, Note_on_c, 13, 64, 100
15, 7008, Note_off_c, 13, 64, 64
15, 7008, Note_on_c, 13, 64, 100
15, 7104, Note_off_c, 13, 64, 64
15, 7104, Note_on_c, 13, 64, 100
15, 7200, Note_off_c, 13, 64, 64
15, 7200, Note_on_c, 13, 64, 100
15, 7296, Note_off_c, 13, 64, 64
15, 7296, Note_on_c, 13, 66, 100
15, 7392, Note_off_c, 13, 66, 64
15, 7392, Note_on_c, 13, 66, 100
15, 7488, Note_off_c, 13, 66, 64
15, 7488, Note_on_c, 13, 66, 100
15, 7584, Note_off_c, 13, 66, 64
15, 7584, Note_on_c, 13, 66, 100
15, 7680, Note_off_c, 13, 66, 64
15, 7680, Note_on_c, 13, 66, 100
15, 7776, Note_off_c, 13, 66, 64
15, 7776, Note_on_c, 13, 66, 100
15, 7872, Note_off_c, 13, 66, 64
15, 7872, Note_on_c, 13, 66, 100
15, 7968, Note_off_c, 13, 66, 64
15, 7968, Note_on_c, 13, 66, 100
15, 8064, Note_off_c, 13, 66, 64
15, 8064, Note_on_c, 13, 66, 100
15, 8160, Note_off_c, 13, 66, 64
15, 8160, Note_on_c, 13, 66, 100
15, 8256, Note_off_c, 13, 66, 64
15, 8256, Note_on_c, 13, 66, 100
15, 8352, Note_off_c, 13, 66, 64
15, 8352, Note_on_c, 13, 66, 100
15, 8448, Note_off_c, 13, 66, 64
15, 8448, Note_on_c, 13, 66, 100
15, 8544, Note_off_c, 13, 66, 64
15, 8544, Note_on_c, 13, 66, 100
15, 8640, Note_off_c, 13, 66, 64
15, 8640, Note_on_c, 13, 66, 100
15, 8736, Note_off_c, 13, 66, 64
15, 8736, Note_on_c, 13, 66, 100
15, 8832, Note_off_c, 13, 66, 64
15, 8832, Note_on_c, 13, 64, 100
15, 8928, Note_off_c, 13, 64, 64
15, 8928, Note_on_c, 13, 64, 100
15, 9024, Note_off_c, 13, 64, 64
15, 9024, Note_on_c, 13, 64, 100
15, 9120, Note_off_c, 13, 64, 64
15, 9120, Note_on_c, 13, 64, 100
15, 9216, Note_off_c, 13, 64, 64
15, 9216, Note_on_c, 13, 64, 100
15, 9312, Note_off_c, 13, 64, 64
15, 9312, Note_on_c, 13, 64, 100
15, 9408, Note_off_c, 13, 64, 64
15, 9408, Note_on_c, 13, 64, 100
15, 9504, Note_off_c, 13, 64, 64
15, 9504, Note_on_c, 13, 64, 100
15, 9600, Note_off_c, 13, 64, 64
15, 9600, Note_on_c, 13, 64, 100
15, 9696, Note_off_c, 13, 64, 64
15, 9696, Note_on_c, 13, 64, 100
15, 9792, Note_off_c, 13, 64, 64
15, 9792, Note_on_c, 13, 64, 100
15, 9888, Note_off_c, 13, 64, 64
15, 9888, Note_on_c, 13, 64, 100
15, 9984, Note_off_c, 13, 64, 64
15, 9984, Note_on_c, 13, 64, 100
15, 10080, Note_off_c, 13, 64, 64
15, 10080, Note_on_c, 13, 64, 100
15, 10176, Note_off_c, 13, 64, 64
15, 10176, Note_on_c, 13, 64, 100
15, 10272, Note_off_c, 13, 64, 64
15, 10272, Note_on_c, 13, 64, 100
15, 10368, Note_off_c, 13, 64, 64
15, 10368, Note_on_c, 13, 66, 100
15, 10464, Note_off_c, 13, 66, 64
15, 10464, Note_on_c, 13, 66, 100
15, 10560, Note_off_c, 13, 66, 64
15, 10560, Note_on_c, 13, 66, 100
15, 10656, Note_off_c, 13, 66, 64
15, 10656, Note_on_c, 13, 66, 100
15, 10752, Note_off_c, 13, 66, 64
15, 10752, Note_on_c, 13, 66, 100
15, 10848, Note_off_c, 13, 66, 64
15, 10848, Note_on_c, 13, 66, 100
15, 10944, Note_off_c, 13, 66, 64
15, 10944, Note_on_c, 13, 66, 100
15, 11040, Note_off_c, 13, 66, 64
15, 11040, Note_on_c, 13, 66, 100
15, 11136, Note_off_c, 13, 66, 64
15, 11136, Note_on_c, 13, 66, 100
15, 11232, Note_off_c, 13, 66, 64
15, 11232, Note_on_c, 13, 66, 100
15, 11328, Note_off_c, 13, 66, 64
15, 11328, Note_on_c, 13, 66, 100
15, 11424, Note_off_c, 13, 66, 64
15, 11424, Note_on_c, 13, 66, 100
15, 11520, Note_off_c, 13, 66, 64
15, 11520, Note_on_c, 13, 66, 100
15, 11616, Note_off_c, 13, 66, 64
15, 11616, Note_on_c, 13, 66, 100
15, 11712, Note_off_c, 13, 66, 64
15, 11712, Note_on_c, 13, 66, 100
15, 11808, Note_off_c, 13, 66, 64
15, 11808, Note_on_c, 13, 66, 100
15, 11904, Note_off_c, 13, 66, 64
15, 11904, Note_on_c, 13, 52, 100
15, 12000, Note_off_c, 13, 52, 64
15, 12000, Note_on_c, 13, 52, 100
15, 12096, Note_off_c, 13, 52, 64
15, 12096, Note_on_c, 13, 52, 100
15, 12192, Note_off_c, 13, 52, 64
15, 12192, Note_on_c, 13, 52, 100
15, 12288, Note_off_c, 13, 52, 64
15, 12288, Note_on_c, 13, 52, 100
15, 12384, Note_off_c, 13, 52, 64
15, 12384, Note_on_c, 13, 52, 100
15, 12480, Note_off_c, 13, 52, 64
15, 12480, Note_on_c, 13, 52, 100
15, 12576, Note_off_c, 13, 52, 64
15, 12576, Note_on_c, 13, 52, 100
15, 12672, Note_off_c, 13, 52, 64
15, 12672, Note_on_c, 13, 52, 100
15, 12768, Note_off_c, 13, 52, 64
15, 12768, Note_on_c, 13, 52, 100
15, 12864, Note_off_c, 13, 52, 64
15, 12864, Note_on_c, 13, 52, 100
15, 12960, Note_off_c, 13, 52, 64
15, 12960, Note_on_c, 13, 52, 100
15, 13056, Note_off_c, 13, 52, 64
15, 13056, Note_on_c, 13, 52, 100
15, 13152, Note_off_c, 13, 52, 64
15, 13152, Note_on_c, 13, 52, 100
15, 13248, Note_off_c, 13, 52, 64
15, 13248, Note_on_c, 13, 52, 100
15, 13344, Note_off_c, 13, 52, 64
15, 13344, Note_on_c, 13, 52, 100
15, 13440, Note_off_c, 13, 52, 64
15, 13440, Note_on_c, 13, 54, 100
15, 13536, Note_off_c, 13, 54, 64
15, 13536, Note_on_c, 13, 54, 100
15, 13632, Note_off_c, 13, 54, 64
15, 13632, Note_on_c, 13, 54, 100
15, 13728, Note_off_c, 13, 54, 64
15, 13728, Note_on_c, 13, 54, 100
15, 13824, Note_off_c, 13, 54, 64
15, 13824, Note_on_c, 13, 54, 100
15, 13920, Note_off_c, 13, 54, 64
15, 13920, Note_on_c, 13, 54, 100
15, 14016, Note_off_c, 13, 54, 64
15, 14016, Note_on_c, 13, 54, 100
15, 14112, Note_off_c, 13, 54, 64
15, 14112, Note_on_c, 13, 54, 100
15, 14208, Note_off_c, 13, 54, 64
15, 14208, Note_on_c, 13, 54, 100
15, 14304, Note_off_c, 13, 54, 64
15, 14304, Note_on_c, 13, 54, 100
15, 14400, Note_off_c, 13, 54, 64
15, 14400, Note_on_c, 13, 54, 100
15, 14496, Note_off_c, 13, 54, 64
15, 14496, Note_on_c, 13, 54, 100
15, 14592, Note_off_c, 13, 54, 64
15, 14592, Note_on_c, 13, 64, 100
15, 14688, Note_off_c, 13, 64, 64
15, 14688, Note_on_c, 13, 64, 100
15, 14784, Note_off_c, 13, 64, 64
15, 14784, Note_on_c, 13, 64, 100
15, 14880, Note_off_c, 13, 64, 64
15, 14880, Note_on_c, 13, 64, 100
15, 14976, Note_off_c, 13, 64, 64
15, 14976, Note_on_c, 13, 64, 100
15, 15072, Note_off_c, 13, 64, 64
15, 15072, Note_on_c, 13, 64, 100
15, 15168, Note_off_c, 13, 64, 64
15, 15168, Note_on_c, 13, 64, 100
15, 15264, Note_off_c, 13, 64, 64
15, 15264, Note_on_c, 13, 64, 100
15, 15360, Note_off_c, 13, 64, 64
15, 15360, Note_on_c, 13, 64, 100
15, 15456, Note_off_c, 13, 64, 64
15, 15456, Note_on_c, 13, 64, 100
15, 15552, Note_off_c, 13, 64, 64
15, 15552, Note_on_c, 13, 64, 100
15, 15648, Note_off_c, 13, 64, 64
15, 15648, Note_on_c, 13, 64, 100
15, 15744, Note_off_c, 13, 64, 64
15, 15744, Note_on_c, 13, 64, 100
15, 15840, Note_off_c, 13, 64, 64
15, 15840, Note_on_c, 13, 64, 100
15, 15936, Note_off_c, 13, 64, 64
15, 15936, Note_on_c, 13, 64, 100
15, 16032, Note_off_c, 13, 64, 64
15, 16032, Note_on_c, 13, 64, 100
15, 16128, Note_off_c, 13, 64, 64
15, 16128, Note_on_c, 13, 66, 100
15, 16224, Note_off_c, 13, 66, 64
15, 16224, Note_on_c, 13, 66, 100
15, 16320, Note_off_c, 13, 66, 64
15, 16320, Note_on_c, 13, 66, 100
15, 16416, Note_off_c, 13, 66, 64
15, 16416, Note_on_c, 13, 66, 100
15, 16512, Note_off_c, 13, 66, 64
15, 16512, Note_on_c, 13, 66, 100
15, 16608, Note_off_c, 13, 66, 64
15, 16608, Note_on_c, 13, 66, 100
15, 16704, Note_off_c, 13, 66, 64
15, 16704, Note_on_c, 13, 66, 100
15, 16800, Note_off_c, 13, 66, 64
15, 16800, Note_on_c, 13, 66, 100
15, 16896, Note_off_c, 13, 66, 64
15, 16896, Note_on_c, 13, 66, 100
15, 16992, Note_off_c, 13, 66, 64
15, 16992, Note_on_c, 13, 66, 100
15, 17088, Note_off_c, 13, 66, 64
15, 17088, Note_on_c, 13, 66, 100
15, 17184, Note_off_c, 13, 66, 64
15, 17184, Note_on_c, 13, 66, 100
15, 17280, Note_off_c, 13, 66, 64
15, 17280, Note_on_c, 13, 66, 100
15, 17376, Note_off_c, 13, 66, 64
15, 17376, Note_on_c, 13, 66, 100
15, 17472, Note_off_c, 13, 66, 64
15, 17472, Note_on_c, 13, 66, 100
15, 17568, Note_off_c, 13, 66, 64
15, 17568, Note_on_c, 13, 66, 100
15, 17664, Note_off_c, 13, 66, 64
15, 17664, Note_on_c, 13, 64, 100
15, 17760, Note_off_c, 13, 64, 64
15, 17760, Note_on_c, 13, 64, 100
15, 17856, Note_off_c, 13, 64, 64
15, 17856, Note_on_c, 13, 64, 100
15, 17952, Note_off_c, 13, 64, 64
15, 17952, Note_on_c, 13, 64, 100
15, 18048, Note_off_c, 13, 64, 64
15, 18048, Note_on_c, 13, 64, 100
15, 18144, Note_off_c, 13, 64, 64
15, 18144, Note_on_c, 13, 64, 100
15, 18240, Note_off_c, 13, 64, 64
15, 18240, Note_on_c, 13, 64, 100
15, 18336, Note_off_c, 13, 64, 64
15, 18336, Note_on_c, 13, 64, 100
15, 18432, Note_off_c, 13, 64, 64
15, 18432, Note_on_c, 13, 64, 100
15, 18528, Note_off_c, 13, 64, 64
15, 18528, Note_on_c, 13, 64, 100
15, 18624, Note_off_c, 13, 64, 64
15, 18624, Note_on_c, 13, 64, 100
15, 18720, Note_off_c, 13, 64, 64
15, 18720, Note_on_c, 13, 64, 100
15, 18816, Note_off_c, 13, 64, 64
15, 18816, Note_on_c, 13, 64, 100
15, 18912, Note_off_c, 13, 64, 64
15, 18912, Note_on_c, 13, 64, 100
15, 19008, Note_off_c, 13, 64, 64
15, 19008, Note_on_c, 13, 64, 100
15, 19104, Note_off_c, 13, 64, 64
15, 19104, Note_on_c, 13, 64, 100
15, 19200, Note_off_c, 13, 64, 64
15, 19200, Note_on_c, 13, 66, 100
15, 19296, Note_off_c, 13, 66, 64
15, 19296, Note_on_c, 13, 66, 100
15, 19392, Note_off_c, 13, 66, 64
15, 19392, Note_on_c, 13, 66, 100
15, 19488, Note_off_c, 13, 66, 64
15, 19488, Note_on_c, 13, 66, 100
15, 19584, Note_off_c, 13, 66, 64
15, 19584, Note_on_c, 13, 66, 100
15, 19680, Note_off_c, 13, 66, 64
15, 19680, Note_on_c, 13, 66, 100
15, 19776, Note_off_c, 13, 66, 64
15, 19776, Note_on_c, 13, 66, 100
15, 19872, Note_off_c, 13, 66, 64
15, 19872, Note_on_c, 13, 66, 100
15, 19968, Note_off_c, 13, 66, 64
15, 19968, Note_on_c, 13, 66, 100
15, 20064, Note_off_c, 13, 66, 64
15, 20064, Note_on_c, 13, 66, 100
15, 20160, Note_off_c, 13, 66, 64
15, 20160, Note_on_c, 13, 66, 100
15, 20256, Note_off_c, 13, 66, 64
15, 20256, Note_on_c, 13, 66, 100
15, 20352, Note_off_c, 13, 66, 64
15, 20352, Note_on_c, 13, 66, 100
15, 20448, Note_off_c, 13, 66, 64
15, 20448, Note_on_c, 13, 66, 100
15, 20544, Note_off_c, 13, 66, 64
15, 20544, Note_on_c, 13, 66, 100
15, 20640, Note_off_c, 13, 66, 64
15, 20640, Note_on_c, 13, 66, 100
15, 20736, Note_off_c, 13, 66, 64
15, 20736, Note_on_c, 13, 52, 100
15, 20832, Note_off_c, 13, 52, 64
15, 20832, Note_on_c, 13, 52, 100
15, 20928, Note_off_c, 13, 52, 64
15, 20928, Note_on_c, 13, 52, 100
15, 21024, Note_off_c, 13, 52, 64
15, 21024, Note_on_c, 13, 52, 100
15, 21120, Note_off_c, 13, 52, 64
15, 21120, Note_on_c, 13, 52, 100
15, 21216, Note_off_c, 13, 52, 64
15, 21216, Note_on_c, 13, 52, 100
15, 21312, Note_off_c, 13, 52, 64
15, 21312, Note_on_c, 13, 52, 100
15, 21408, Note_off_c, 13, 52, 64
15, 21408, Note_on_c, 13, 52, 100
15, 21504, Note_off_c, 13, 52, 64
15, 21504, Note_on_c, 13, 52, 100
15, 21600, Note_off_c, 13, 52, 64
15, 21600, Note_on_c, 13, 52, 100
15, 21696, Note_off_c, 13, 52, 64
15, 21696, Note_on_c, 13, 52, 100
15, 21792, Note_off_c, 13, 52, 64
15, 21792, Note_on_c, 13, 52, 100
15, 21888, Note_off_c, 13, 52, 64
15, 21888, Note_on_c, 13, 52, 100
15, 21984, Note_off_c, 13, 52, 64
15, 21984, Note_on_c, 13, 52, 100
15, 22080, Note_off_c, 13, 52, 64
15, 22080, Note_on_c, 13, 52, 100
15, 22176, Note_off_c, 13, 52, 64
15, 22176, Note_on_c, 13, 52, 100
15, 22272, Note_off_c, 13, 52, 64
15, 22272, Note_on_c, 13, 54, 100
15, 22368, Note_off_c, 13, 54, 64
15, 22368, Note_on_c, 13, 54, 100
15, 22464, Note_off_c, 13, 54, 64
15, 22464, Note_on_c, 13, 54, 100
15, 22560, Note_off_c, 13, 54, 64
15, 22560, Note_on_c, 13, 54, 100
15, 22656, Note_off_c, 13, 54, 64
15, 22656, Note_on_c, 13, 54, 100
15, 22752, Note_off_c, 13, 54, 64
15, 22752, Note_on_c, 13, 54, 100
15, 22848, Note_off_c, 13, 54, 64
15, 22848, Note_on_c, 13, 54, 100
15, 22944, Note_off_c, 13, 54, 64
15, 22944, Note_on_c, 13, 54, 100
15, 23040, Note_off_c, 13, 54, 64
15, 23040, Note_on_c, 13, 54, 100
15, 23136, Note_off_c, 13, 54, 64
15, 23136, Note_on_c, 13, 54, 100
15, 23232, Note_off_c, 13, 54, 64
15, 23232, Note_on_c, 13, 54, 100
15, 23328, Note_off_c, 13, 54, 64
15, 23328, Note_on_c, 13, 54, 100
15, 23424, Note_off_c, 13, 54, 64
15, 23424, Note_on_c, 13, 64, 100
15, 23520, Note_off_c, 13, 64, 64
15, 23520, Note_on_c, 13, 64, 100
15, 23616, Note_off_c, 13, 64, 64
15, 23616, Note_on_c, 13, 64, 100
15, 23712, Note_off_c, 13, 64, 64
15, 23712, Note_on_c, 13, 64, 100
15, 23808, Note_off_c, 13, 64, 64
15, 23808, Note_on_c, 13, 64, 100
15, 23904, Note_off_c, 13, 64, 64
15, 23904, Note_on_c, 13, 64, 100
15, 24000, Note_off_c, 13, 64, 64
15, 24000, Note_on_c, 13, 64, 100
15, 24096, Note_off_c, 13, 64, 64
15, 24096, Note_on_c, 13, 64, 100
15, 24192, Note_off_c, 13, 64, 64
15, 24192, Note_on_c, 13, 64, 100
15, 24288, Note_off_c, 13, 64, 64
15, 24288, Note_on_c, 13, 64, 100
15, 24384, Note_off_c, 13, 64, 64
15, 24384, Note_on_c, 13, 64, 100
15, 24480, Note_off_c, 13, 64, 64
15, 24480, Note_on_c, 13, 64, 100
15, 24576, Note_off_c, 13, 64, 64
15, 24576, Note_on_c, 13, 64, 100
15, 24672, Note_off_c, 13, 64, 64
15, 24672, Note_on_c, 13, 64, 100
15, 24768, Note_off_c, 13, 64, 64
15, 24768, Note_on_c, 13, 64, 100
15, 24864, Note_off_c, 13, 64, 64
15, 24864, Note_on_c, 13, 64, 100
15, 24960, Note_off_c, 13, 64, 64
15, 24960, Note_on_c, 13, 66, 100
15, 25056, Note_off_c, 13, 66, 64
15, 25056, Note_on_c, 13, 66, 100
15, 25152, Note_off_c, 13, 66, 64
15, 25152, Note_on_c, 13, 66, 100
15, 25248, Note_off_c, 13, 66, 64
15, 25248, Note_on_c, 13, 66, 100
15, 25344, Note_off_c, 13, 66, 64
15, 25344, Note_on_c, 13, 66, 100
15, 25440, Note_off_c, 13, 66, 64
15, 25440, Note_on_c, 13, 66, 100
15, 25536, Note_off_c, 13, 66, 64
15, 25536, Note_on_c, 13, 66, 100
15, 25632, Note_off_c, 13, 66, 64
15, 25632, Note_on_c, 13, 66, 100
15, 25728, Note_off_c, 13, 66, 64
15, 25728, Note_on_c, 13, 66, 100
15, 25824, Note_off_c, 13, 66, 64
15, 25824, Note_on_c, 13, 66, 100
15, 25920, Note_off_c, 13, 66, 64
15, 25920, Note_on_c, 13, 66, 100
15, 26016, Note_off_c, 13, 66, 64
15, 26016, Note_on_c, 13, 66, 100
15, 26112, Note_off_c, 13, 66, 64
15, 26112, Note_on_c, 13, 66, 100
15, 26208, Note_off_c, 13, 66, 64
15, 26208, Note_on_c, 13, 66, 100
15, 26304, Note_off_c, 13, 66, 64
15, 26304, Note_on_c, 13, 66, 100
15, 26400, Note_off_c, 13, 66, 64
15, 26400, Note_on_c, 13, 66, 100
15, 26496, Note_off_c, 13, 66, 64
15, 26496, Note_on_c, 13, 64, 100
15, 26592, Note_off_c, 13, 64, 64
15, 26592, Note_on_c, 13, 64, 100
15, 26688, Note_off_c, 13, 64, 64
15, 26688, Note_on_c, 13, 64, 100
15, 26784, Note_off_c, 13, 64, 64
15, 26784, Note_on_c, 13, 64, 100
15, 26880, Note_off_c, 13, 64, 64
15, 26880, Note_on_c, 13, 64, 100
15, 26976, Note_off_c, 13, 64, 64
15, 26976, Note_on_c, 13, 64, 100
15, 27072, Note_off_c, 13, 64, 64
15, 27072, Note_on_c, 13, 64, 100
15, 27168, Note_off_c, 13, 64, 64
15, 27168, Note_on_c, 13, 64, 100
15, 27264, Note_off_c, 13, 64, 64
15, 27264, Note_on_c, 13, 64, 100
15, 27360, Note_off_c, 13, 64, 64
15, 27360, Note_on_c, 13, 64, 100
15, 27456, Note_off_c, 13, 64, 64
15, 27456, Note_on_c, 13, 64, 100
15, 27552, Note_off_c, 13, 64, 64
15, 27552, Note_on_c, 13, 64, 100
15, 27648, Note_off_c, 13, 64, 64
15, 27648, Note_on_c, 13, 64, 100
15, 27744, Note_off_c, 13, 64, 64
15, 27744, Note_on_c, 13, 64, 100
15, 27840, Note_off_c, 13, 64, 64
15, 27840, Note_on_c, 13, 64, 100
15, 27936, Note_off_c, 13, 64, 64
15, 27936, Note_on_c, 13, 64, 100
15, 28032, Note_off_c, 13, 64, 64
15, 28032, Note_on_c, 13, 66, 100
15, 28128, Note_off_c, 13, 66, 64
15, 28128, Note_on_c, 13, 66, 100
15, 28224, Note_off_c, 13, 66, 64
15, 28224, Note_on_c, 13, 66, 100
15, 28320, Note_off_c, 13, 66, 64
15, 28320, Note_on_c, 13, 66, 100
15, 28416, Note_off_c, 13, 66, 64
15, 28416, Note_on_c, 13, 66, 100
15, 28512, Note_off_c, 13, 66, 64
15, 28512, Note_on_c, 13, 66, 100
15, 28608, Note_off_c, 13, 66, 64
15, 28608, Note_on_c, 13, 66, 100
15, 28704, Note_off_c, 13, 66, 64
15, 28704, Note_on_c, 13, 66, 100
15, 28800, Note_off_c, 13, 66, 64
15, 28800, Note_on_c, 13, 64, 100
15, 28896, Note_off_c, 13, 64, 64
15, 28896, Note_on_c, 13, 64, 100
15, 28992, Note_off_c, 13, 64, 64
15, 28992, Note_on_c, 13, 64, 100
15, 29088, Note_off_c, 13, 64, 64
15, 29088, Note_on_c, 13, 64, 100
15, 29184, Note_off_c, 13, 64, 64
15, 29184, Note_on_c, 13, 64, 100
15, 29280, Note_off_c, 13, 64, 64
15, 29280, Note_on_c, 13, 64, 100
15, 29376, Note_off_c, 13, 64, 64
15, 29376, Note_on_c, 13, 64, 100
15, 29472, Note_off_c, 13, 64, 64
15, 29472, Note_on_c, 13, 64, 100
15, 29568, Note_off_c, 13, 64, 64
15, 29568, Note_on_c, 13, 64, 100
15, 29664, Note_off_c, 13, 64, 64
15, 29664, Note_on_c, 13, 64, 100
15, 29760, Note_off_c, 13, 64, 64
15, 29760, Note_on_c, 13, 64, 100
15, 29856, Note_off_c, 13, 64, 64
15, 29856, Note_on_c, 13, 64, 100
15, 29952, Note_off_c, 13, 64, 64
15, 29952, Note_on_c, 13, 64, 100
15, 30048, Note_off_c, 13, 64, 64
15, 30048, Note_on_c, 13, 64, 100
15, 30144, Note_off_c, 13, 64, 64
15, 30144, Note_on_c, 13, 64, 100
15, 30240, Note_off_c, 13, 64, 64
15, 30240, Note_on_c, 13, 64, 100
15, 30336, Note_off_c, 13, 64, 64
15, 30336, Note_on_c, 13, 66, 100
15, 30432, Note_off_c, 13, 66, 64
15, 30432, Note_on_c, 13, 66, 100
15, 30528, Note_off_c, 13, 66, 64
15, 30528, Note_on_c, 13, 66, 100
15, 30624, Note_off_c, 13, 66, 64
15, 30624, Note_on_c, 13, 66, 100
15, 30720, Note_off_c, 13, 66, 64
15, 30720, Note_on_c, 13, 66, 100
15, 30816, Note_off_c, 13, 66, 64
15, 30816, Note_on_c, 13, 66, 100
15, 30912, Note_off_c, 13, 66, 64
15, 30912, Note_on_c, 13, 66, 100
15, 31008, Note_off_c, 13, 66, 64
15, 31008, Note_on_c, 13, 66, 100
15, 31104, Note_off_c, 13, 66, 64
15, 31104, Note_on_c, 13, 66, 100
15, 31200, Note_off_c, 13, 66, 64
15, 31200, Note_on_c, 13, 66, 100
15, 31296, Note_off_c, 13, 66, 64
15, 31296, Note_on_c, 13, 66, 100
15, 31392, Note_off_c, 13, 66, 64
15, 31392, Note_on_c, 13, 66, 100
15, 31488, Note_off_c, 13, 66, 64
15, 31488, Note_on_c, 13, 66, 100
15, 31584, Note_off_c, 13, 66, 64
15, 31584, Note_on_c, 13, 66, 100
15, 31680, Note_off_c, 13, 66, 64
15, 31680, Note_on_c, 13, 66, 100
15, 31776, Note_off_c, 13, 66, 64
15, 31776, Note_on_c, 13, 66, 100
15, 31872, Note_off_c, 13, 66, 64
15, 31872, Note_on_c, 13, 64, 100
15, 31968, Note_off_c, 13, 64, 64
15, 31968, Note_on_c, 13, 64, 100
15, 32064, Note_off_c, 13, 64, 64
15, 32064, Note_on_c, 13, 64, 100
15, 32160, Note_off_c, 13, 64, 64
15, 32160, Note_on_c, 13, 64, 100
15, 32256, Note_off_c, 13, 64, 64
15, 32256, Note_on_c, 13, 64, 100
15, 32352, Note_off_c, 13, 64, 64
15, 32352, Note_on_c, 13, 64, 100
15, 32448, Note_off_c, 13, 64, 64
15, 32448, Note_on_c, 13, 64, 100
15, 32544, Note_off_c, 13, 64, 64
15, 32544, Note_on_c, 13, 64, 100
15, 32640, Note_off_c, 13, 64, 64
15, 32640, Note_on_c, 13, 64, 100
15, 32736, Note_off_c, 13, 64, 64
15, 32736, Note_on_c, 13, 64, 100
15, 32832, Note_off_c, 13, 64, 64
15, 32832, Note_on_c, 13, 64, 100
15, 32928, Note_off_c, 13, 64, 64
15, 32928, Note_on_c, 13, 64, 100
15, 33024, Note_off_c, 13, 64, 64
15, 33024, Note_on_c, 13, 64, 100
15, 33120, Note_off_c, 13, 64, 64
15, 33120, Note_on_c, 13, 64, 100
15, 33216, Note_off_c, 13, 64, 64
15, 33216, Note_on_c, 13, 64, 100
15, 33312, Note_off_c, 13, 64, 64
15, 33312, Note_on_c, 13, 64, 100
15, 33408, Note_off_c, 13, 64, 64
15, 33408, Note_on_c, 13, 66, 100
15, 33504, Note_off_c, 13, 66, 64
15, 33504, Note_on_c, 13, 66, 100
15, 33600, Note_off_c, 13, 66, 64
15, 33600, Note_on_c, 13, 66, 100
15, 33696, Note_off_c, 13, 66, 64
15, 33696, Note_on_c, 13, 66, 100
15, 33792, Note_off_c, 13, 66, 64
15, 33792, Note_on_c, 13, 66, 100
15, 33888, Note_off_c, 13, 66, 64
15, 33888, Note_on_c, 13, 66, 100
15, 33984, Note_off_c, 13, 66, 64
15, 33984, Note_on_c, 13, 66, 100
15, 34080, Note_off_c, 13, 66, 64
15, 34080, Note_on_c, 13, 66, 100
15, 34176, Note_off_c, 13, 66, 64
15, 34176, Note_on_c, 13, 66, 100
15, 34272, Note_off_c, 13, 66, 64
15, 34272, Note_on_c, 13, 66, 100
15, 34368, Note_off_c, 13, 66, 64
15, 34368, Note_on_c, 13, 66, 100
15, 34464, Note_off_c, 13, 66, 64
15, 34464, Note_on_c, 13, 66, 100
15, 34560, Note_off_c, 13, 66, 64
15, 34560, Note_on_c, 13, 66, 100
15, 34656, Note_off_c, 13, 66, 64
15, 34656, Note_on_c, 13, 66, 100
15, 34752, Note_off_c, 13, 66, 64
15, 34752, Note_on_c, 13, 66, 100
15, 34848, Note_off_c, 13, 66, 64
15, 34848, Note_on_c, 13, 66, 100
15, 34944, Note_off_c, 13, 66, 64
15, 34944, Note_on_c, 13, 52, 100
15, 35040, Note_off_c, 13, 52, 64
15, 35040, Note_on_c, 13, 52, 100
15, 35136, Note_off_c, 13, 52, 64
15, 35136, Note_on_c, 13, 52, 100
15, 35232, Note_off_c, 13, 52, 64
15, 35232, Note_on_c, 13, 52, 100
15, 35328, Note_off_c, 13, 52, 64
15, 35328, Note_on_c, 13, 52, 100
15, 35424, Note_off_c, 13, 52, 64
15, 35424, Note_on_c, 13, 52, 100
15, 35520, Note_off_c, 13, 52, 64
15, 35520, Note_on_c, 13, 52, 100
15, 35616, Note_off_c, 13, 52, 64
15, 35616, Note_on_c, 13, 52, 100
15, 35712, Note_off_c, 13, 52, 64
15, 35712, Note_on_c, 13, 52, 100
15, 35808, Note_off_c, 13, 52, 64
15, 35808, Note_on_c, 13, 52, 100
15, 35904, Note_off_c, 13, 52, 64
15, 35904, Note_on_c, 13, 52, 100
15, 36000, Note_off_c, 13, 52, 64
15, 36000, Note_on_c, 13, 52, 100
15, 36096, Note_off_c, 13, 52, 64
15, 36096, Note_on_c, 13, 52, 100
15, 36192, Note_off_c, 13, 52, 64
15, 36192, Note_on_c, 13, 52, 100
15, 36288, Note_off_c, 13, 52, 64
15, 36288, Note_on_c, 13, 52, 100
15, 36384, Note_off_c, 13, 52, 64
15, 36384, Note_on_c, 13, 52, 100
15, 36480, Note_off_c, 13, 52, 64
15, 36480, Note_on_c, 13, 54, 100
15, 36576, Note_off_c, 13, 54, 64
15, 36576, Note_on_c, 13, 54, 100
15, 36672, Note_off_c, 13, 54, 64
15, 36672, Note_on_c, 13, 54, 100
15, 36768, Note_off_c, 13, 54, 64
15, 36768, Note_on_c, 13, 54, 100
15, 36864, Note_off_c, 13, 54, 64
15, 36864, Note_on_c, 13, 54, 100
15, 36960, Note_off_c, 13, 54, 64
15, 36960, Note_on_c, 13, 54, 100
15, 37056, Note_off_c, 13, 54, 64
15, 37056, Note_on_c, 13, 54, 100
15, 37152, Note_off_c, 13, 54, 64
15, 37152, Note_on_c, 13, 54, 100
15, 37248, Note_off_c, 13, 54, 64
15, 37248, Note_on_c, 13, 54, 100
15, 37344, Note_off_c, 13, 54, 64
15, 37344, Note_on_c, 13, 54, 100
15, 37440, Note_off_c, 13, 54, 64
15, 37440, Note_on_c, 13, 54, 100
15, 37536, Note_off_c, 13, 54, 64
15, 37536, Note_on_c, 13, 54, 100
15, 37632, Note_off_c, 13, 54, 64
15, 37632, Note_on_c, 13, 64, 100
15, 37728, Note_off_c, 13, 64, 64
15, 37728, Note_on_c, 13, 64, 100
15, 37824, Note_off_c, 13, 64, 64
15, 37824, Note_on_c, 13, 64, 100
15, 37920, Note_off_c, 13, 64, 64
15, 37920, Note_on_c, 13, 64, 100
15, 38016, Note_off_c, 13, 64, 64
15, 38016, Note_on_c, 13, 64, 100
15, 38112, Note_off_c, 13, 64, 64
15, 38112, Note_on_c, 13, 64, 100
15, 38208, Note_off_c, 13, 64, 64
15, 38208, Note_on_c, 13, 64, 100
15, 38304, Note_off_c, 13, 64, 64
15, 38304, Note_on_c, 13, 64, 100
15, 38400, Note_off_c, 13, 64, 64
15, 38400, Note_on_c, 13, 64, 100
15, 38496, Note_off_c, 13, 64, 64
15, 38496, Note_on_c, 13, 64, 100
15, 38592, Note_off_c, 13, 64, 64
15, 38592, Note_on_c, 13, 64, 100
15, 38688, Note_off_c, 13, 64, 64
15, 38688, Note_on_c, 13, 64, 100
15, 38784, Note_off_c, 13, 64, 64
15, 38784, Note_on_c, 13, 64, 100
15, 38880, Note_off_c, 13, 64, 64
15, 38880, Note_on_c, 13, 64, 100
15, 38976, Note_off_c, 13, 64, 64
15, 38976, Note_on_c, 13, 64, 100
15, 39072, Note_off_c, 13, 64, 64
15, 39072, Note_on_c, 13, 64, 100
15, 39168, Note_off_c, 13, 64, 64
15, 39168, Note_on_c, 13, 66, 100
15, 39264, Note_off_c, 13, 66, 64
15, 39264, Note_on_c, 13, 66, 100
15, 39360, Note_off_c, 13, 66, 64
15, 39360, Note_on_c, 13, 66, 100
15, 39456, Note_off_c, 13, 66, 64
15, 39456, Note_on_c, 13, 66, 100
15, 39552, Note_off_c, 13, 66, 64
15, 39552, Note_on_c, 13, 66, 100
15, 39648, Note_off_c, 13, 66, 64
15, 39648, Note_on_c, 13, 66, 100
15, 39744, Note_off_c, 13, 66, 64
15, 39744, Note_on_c, 13, 66, 100
15, 39840, Note_off_c, 13, 66, 64
15, 39840, Note_on_c, 13, 66, 100
15, 39936, Note_off_c, 13, 66, 64
15, 39936, Note_on_c, 13, 66, 100
15, 40032, Note_off_c, 13, 66, 64
15, 40032, Note_on_c, 13, 66, 100
15, 40128, Note_off_c, 13, 66, 64
15, 40128, Note_on_c, 13, 66, 100
15, 40224, Note_off_c, 13, 66, 64
15, 40224, Note_on_c, 13, 66, 100
15, 40320, Note_off_c, 13, 66, 64
15, 40320, Note_on_c, 13, 66, 100
15, 40416, Note_off_c, 13, 66, 64
15, 40416, Note_on_c, 13, 66, 100
15, 40512, Note_off_c, 13, 66, 64
15, 40512, Note_on_c, 13, 66, 100
15, 40608, Note_off_c, 13, 66, 64
15, 40608, Note_on_c, 13, 66, 100
15, 40704, Note_off_c, 13, 66, 64
15, 40704, Note_on_c, 13, 64, 100
15, 40800, Note_off_c, 13, 64, 64
15, 40800, Note_on_c, 13, 64, 100
15, 40896, Note_off_c, 13, 64, 64
15, 40896, Note_on_c, 13, 64, 100
15, 40992, Note_off_c, 13, 64, 64
15, 40992, Note_on_c, 13, 64, 100
15, 41088, Note_off_c, 13, 64, 64
15, 41088, Note_on_c, 13, 64, 100
15, 41184, Note_off_c, 13, 64, 64
15, 41184, Note_on_c, 13, 64, 100
15, 41280, Note_off_c, 13, 64, 64
15, 41280, Note_on_c, 13, 64, 100
15, 41376, Note_off_c, 13, 64, 64
15, 41376, Note_on_c, 13, 64, 100
15, 41472, Note_off_c, 13, 64, 64
15, 41472, Note_on_c, 13, 64, 100
15, 41568, Note_off_c, 13, 64, 64
15, 41568, Note_on_c, 13, 64, 100
15, 41664, Note_off_c, 13, 64, 64
15, 41664, Note_on_c, 13, 64, 100
15, 41760, Note_off_c, 13, 64, 64
15, 41760, Note_on_c, 13, 64, 100
15, 41856, Note_off_c, 13, 64, 64
15, 41856, Note_on_c, 13, 64, 100
15, 41952, Note_off_c, 13, 64, 64
15, 41952, Note_on_c, 13, 64, 100
15, 42048, Note_off_c, 13, 64, 64
15, 42048, Note_on_c, 13, 64, 100
15, 42144, Note_off_c, 13, 64, 64
15, 42144, Note_on_c, 13, 64, 100
15, 42240, Note_off_c, 13, 64, 64
15, 42240, Note_on_c, 13, 66, 100
15, 42336, Note_off_c, 13, 66, 64
15, 42336, Note_on_c, 13, 66, 100
15, 42432, Note_off_c, 13, 66, 64
15, 42432, Note_on_c, 13, 66, 100
15, 42528, Note_off_c, 13, 66, 64
15, 42528, Note_on_c, 13, 66, 100
15, 42624, Note_off_c, 13, 66, 64
15, 42624, Note_on_c, 13, 66, 100
15, 42720, Note_off_c, 13, 66, 64
15, 42720, Note_on_c, 13, 66, 100
15, 42816, Note_off_c, 13, 66, 64
15, 42816, Note_on_c, 13, 66, 100
15, 42912, Note_off_c, 13, 66, 64
15, 42912, Note_on_c, 13, 66, 100
15, 43008, Note_off_c, 13, 66, 64
15, 43008, Note_on_c, 13, 66, 100
15, 43104, Note_off_c, 13, 66, 64
15, 43104, Note_on_c, 13, 66, 100
15, 43200, Note_off_c, 13, 66, 64
15, 43200, Note_on_c, 13, 66, 100
15, 43296, Note_off_c, 13, 66, 64
15, 43296, Note_on_c, 13, 66, 100
15, 43392, Note_off_c, 13, 66, 64
15, 43392, Note_on_c, 13, 66, 100
15, 43488, Note_off_c, 13, 66, 64
15, 43488, Note_on_c, 13, 66, 100
15, 43584, Note_off_c, 13, 66, 64
15, 43584, Note_on_c, 13, 66, 100
15, 43680, Note_off_c, 13, 66, 64
15, 43680, Note_on_c, 13, 66, 100
15, 43776, Note_off_c, 13, 66, 64
15, 43776, Note_on_c, 13, 64, 100
15, 43872, Note_off_c, 13, 64, 64
15, 43872, Note_on_c, 13, 64, 100
15, 43968, Note_off_c, 13, 64, 64
15, 43968, Note_on_c, 13, 64, 100
15, 44064, Note_off_c, 13, 64, 64
15, 44064, Note_on_c, 13, 64, 100
15, 44160, Note_off_c, 13, 64, 64
15, 44160, Note_on_c, 13, 64, 100
15, 44256, Note_off_c, 13, 64, 64
15, 44256, Note_on_c, 13, 64, 100
15, 44352, Note_off_c, 13, 64, 64
15, 44352, Note_on_c, 13, 64, 100
15, 44448, Note_off_c, 13, 64, 64
15, 44448, Note_on_c, 13, 64, 100
15, 44544, Note_off_c, 13, 64, 64
15, 44544, Note_on_c, 13, 64, 100
15, 44640, Note_off_c, 13, 64, 64
15, 44640, Note_on_c, 13, 64, 100
15, 44736, Note_off_c, 13, 64, 64
15, 44736, Note_on_c, 13, 64, 100
15, 44832, Note_off_c, 13, 64, 64
15, 44832, Note_on_c, 13, 64, 100
15, 44928, Note_off_c, 13, 64, 64
15, 44928, Note_on_c, 13, 64, 100
15, 45024, Note_off_c, 13, 64, 64
15, 45024, Note_on_c, 13, 64, 100
15, 45120, Note_off_c, 13, 64, 64
15, 45120, Note_on_c, 13, 64, 100
15, 45216, Note_off_c, 13, 64, 64
15, 45216, Note_on_c, 13, 64, 100
15, 45312, Note_off_c, 13, 64, 64
15, 45312, Note_on_c, 13, 66, 100
15, 45408, Note_off_c, 13, 66, 64
15, 45408, Note_on_c, 13, 66, 100
15, 45504, Note_off_c, 13, 66, 64
15, 45504, Note_on_c, 13, 66, 100
15, 45600, Note_off_c, 13, 66, 64
15, 45600, Note_on_c, 13, 66, 100
15, 45696, Note_off_c, 13, 66, 64
15, 45696, Note_on_c, 13, 66, 100
15, 45792, Note_off_c, 13, 66, 64
15, 45792, Note_on_c, 13, 66, 100
15, 45888, Note_off_c, 13, 66, 64
15, 45888, Note_on_c, 13, 66, 100
15, 45984, Note_off_c, 13, 66, 64
15, 45984, Note_on_c, 13, 66, 100
15, 46080, Note_off_c, 13, 66, 64
15, 46080, Note_on_c, 13, 66, 100
15, 46176, Note_off_c, 13, 66, 64
15, 46176, Note_on_c, 13, 66, 100
15, 46272, Note_off_c, 13, 66, 64
15, 46272, Note_on_c, 13, 66, 100
15, 46368, Note_off_c, 13, 66, 64
15, 46368, Note_on_c, 13, 66, 100
15, 46464, Note_off_c, 13, 66, 64
15, 46464, Note_on_c, 13, 66, 100
15, 46560, Note_off_c, 13, 66, 64
15, 46560, Note_on_c, 13, 66, 100
15, 46656, Note_off_c, 13, 66, 64
15, 46656, Note_on_c, 13, 66, 100
15, 46752, Note_off_c, 13, 66, 64
15, 46752, Note_on_c, 13, 66, 100
15, 46848, Note_off_c, 13, 66, 64
15, 50592, Control_c, 13, 101, 0
15, 50592, Control_c, 13, 100, 0
15, 50592, Control_c, 13, 6, 12
15, 50592, Control_c, 13, 10, 64
15, 50592, Control_c, 13, 7, 100
15, 50592, Pitch_bend_c, 13, 8192
15, 50592, Program_c, 13, 75
15, 50593, Control_c, 13, 101, 0
15, 50593, Control_c, 13, 100, 0
15, 50593, Control_c, 13, 6, 12
15, 50593, Control_c, 13, 10, 64
15, 50593, Control_c, 13, 7, 100
15, 50593, Pitch_bend_c, 13, 8192
15, 50593, Program_c, 13, 75
15, 50593, Control_c, 13, 101, 0
15, 50593, Control_c, 13, 100, 0
15, 50593, Control_c, 13, 6, 12
15, 50593, Control_c, 13, 10, 64
15, 50593, Control_c, 13, 7, 100
15, 50593, Pitch_bend_c, 13, 8192
15, 50593, Program_c, 13, 75
15, 50593, End_track
16, 0, Start_track
16, 0, Title_t, "MIDI out #12"
16, 0, Control_c, 14, 10, 64
16, 0, Control_c, 14, 7, 100
16, 0, Pitch_bend_c, 14, 8192
16, 0, Control_c, 14, 101, 0
16, 0, Control_c, 14, 100, 0
16, 0, Control_c, 14, 6, 12
16, 0, Control_c, 14, 10, 64
16, 0, Control_c, 14, 7, 100
16, 0, Pitch_bend_c, 14, 8192
16, 0, Program_c, 14, 76
16, 0, Control_c, 14, 101, 0
16, 0, Control_c, 14, 100, 0
16, 0, Control_c, 14, 6, 12
16, 0, Control_c, 14, 10, 64
16, 0, Control_c, 14, 7, 100
16, 0, Pitch_bend_c, 14, 8192
16, 0, Program_c, 14, 76
16, 0, Control_c, 14, 101, 0
16, 0, Control_c, 14, 100, 0
16, 0, Control_c, 14, 6, 12
16, 0, Control_c, 14, 10, 64
16, 0, Control_c, 14, 7, 100
16, 0, Pitch_bend_c, 14, 8192
16, 0, Program_c, 14, 76
16, 8832, Note_on_c, 14, 64, 100
16, 8928, Note_off_c, 14, 64, 64
16, 8928, Note_on_c, 14, 64, 100
16, 9024, Note_off_c, 14, 64, 64
16, 9024, Note_on_c, 14, 64, 100
16, 9120, Note_off_c, 14, 64, 64
16, 9120, Note_on_c, 14, 64, 100
16, 9216, Note_off_c, 14, 64, 64
16, 9216, Note_on_c, 14, 64, 100
16, 9312, Note_off_c, 14, 64, 64
16, 9312, Note_on_c, 14, 64, 100
16, 9408, Note_off_c, 14, 64, 64
16, 9408, Note_on_c, 14, 64, 100
16, 9504, Note_off_c, 14, 64, 64
16, 9504, Note_on_c, 14, 64, 100
16, 9600, Note_off_c, 14, 64, 64
16, 9600, Note_on_c, 14, 64, 100
16, 9696, Note_off_c, 14, 64, 64
16, 9696, Note_on_c, 14, 64, 100
16, 9792, Note_off_c, 14, 64, 64
16, 9792, Note_on_c, 14, 64, 100
16, 9888, Note_off_c, 14, 64, 64
16, 9888, Note_on_c, 14, 64, 100
16, 9984, Note_off_c, 14, 64, 64
16, 9984, Note_on_c, 14, 64, 100
16, 10080, Note_off_c, 14, 64, 64
16, 10080, Note_on_c, 14, 64, 100
16, 10176, Note_off_c, 14, 64, 64
16, 10176, Note_on_c, 14, 64, 100
16, 10272, Note_off_c, 14, 64, 64
16, 10272, Note_on_c, 14, 64, 100
16, 10368, Note_off_c, 14, 64, 64
16, 10368, Note_on_c, 14, 66, 100
16, 10464, Note_off_c, 14, 66, 64
16, 10464, Note_on_c, 14, 66, 100
16, 10560, Note_off_c, 14, 66, 64
16, 10560, Note_on_c, 14, 66, 100
16, 10656, Note_off_c, 14, 66, 64
16, 10656, Note_on_c, 14, 66, 100
16, 10752, Note_off_c, 14, 66, 64
16, 10752, Note_on_c, 14, 66, 100
16, 10848, Note_off_c, 14, 66, 64
16, 10848, Note_on_c, 14, 66, 100
16, 10944, Note_off_c, 14, 66, 64
16, 10944, Note_on_c, 14, 66, 100
16, 11040, Note_off_c, 14, 66, 64
16, 11040, Note_on_c, 14, 66, 100
16, 11136, Note_off_c, 14, 66, 64
16, 11136, Note_on_c, 14, 66, 100
16, 11232, Note_off_c, 14, 66, 64
16, 11232, Note_on_c, 14, 66, 100
16, 11328, Note_off_c, 14, 66, 64
16, 11328, Note_on_c, 14, 66, 100
16, 11424, Note_off_c, 14, 66, 64
16, 11424, Note_on_c, 14, 66, 100
16, 11520, Note_off_c, 14, 66, 64
16, 11520, Note_on_c, 14, 66, 100
16, 11616, Note_off_c, 14, 66, 64
16, 11616, Note_on_c, 14, 66, 100
16, 11712, Note_off_c, 14, 66, 64
16, 11712, Note_on_c, 14, 66, 100
16, 11808, Note_off_c, 14, 66, 64
16, 11808, Note_on_c, 14, 66, 100
16, 11904, Note_off_c, 14, 66, 64
16, 14208, Note_on_c, 14, 59, 100
16, 14256, Note_off_c, 14, 59, 64
16, 14256, Note_on_c, 14, 71, 100
16, 14304, Note_off_c, 14, 71, 64
16, 14304, Note_on_c, 14, 59, 100
16, 14352, Note_off_c, 14, 59, 64
16, 14352, Note_on_c, 14, 71, 100
16, 14400, Note_off_c, 14, 71, 64
16, 14400, Note_on_c, 14, 59, 100
16, 14448, Note_off_c, 14, 59, 64
16, 14448, Note_on_c, 14, 71, 100
16, 14496, Note_off_c, 14, 71, 64
16, 14496, Note_on_c, 14, 59, 100
16, 14544, Note_off_c, 14, 59, 64
16, 14544, Note_on_c, 14, 71, 100
16, 14592, Note_off_c, 14, 71, 64
16, 14592, Note_on_c, 14, 64, 100
16, 14592, Note_on_c, 14, 71, 101
16, 14640, Note_off_c, 14, 71, 64
16, 14640, Note_on_c, 14, 71, 101
16, 14688, Note_off_c, 14, 71, 64
16, 14688, Note_off_c, 14, 64, 64
16, 14688, Note_on_c, 14, 64, 100
16, 14688, Note_on_c, 14, 71, 101
16, 14736, Note_off_c, 14, 71, 64
16, 14736, Note_on_c, 14, 71, 101
16, 14784, Note_off_c, 14, 71, 64
16, 14784, Note_off_c, 14, 64, 64
16, 14784, Note_on_c, 14, 64, 100
16, 14784, Note_on_c, 14, 71, 101
16, 14832, Note_off_c, 14, 71, 64
16, 14832, Note_on_c, 14, 71, 95
16, 14880, Note_off_c, 14, 71, 64
16, 14880, Note_off_c, 14, 64, 64
16, 14880, Note_on_c, 14, 64, 100
16, 14880, Note_on_c, 14, 71, 86
16, 14928, Note_off_c, 14, 71, 64
16, 14928, Note_on_c, 14, 71, 76
16, 14976, Note_off_c, 14, 71, 64
16, 14976, Note_off_c, 14, 64, 64
16, 14976, Note_on_c, 14, 64, 100
16, 14976, Note_on_c, 14, 71, 67
16, 15024, Note_off_c, 14, 71, 64
16, 15024, Note_on_c, 14, 71, 57
16, 15072, Note_off_c, 14, 71, 64
16, 15072, Note_off_c, 14, 64, 64
16, 15072, Note_on_c, 14, 64, 100
16, 15072, Note_on_c, 14, 71, 48
16, 15120, Note_off_c, 14, 71, 64
16, 15120, Note_on_c, 14, 71, 38
16, 15168, Note_off_c, 14, 71, 64
16, 15168, Note_off_c, 14, 64, 64
16, 15168, Note_on_c, 14, 64, 100
16, 15168, Note_on_c, 14, 71, 29
16, 15216, Note_off_c, 14, 71, 64
16, 15216, Note_on_c, 14, 71, 19
16, 15264, Note_off_c, 14, 71, 64
16, 15264, Note_off_c, 14, 64, 64
16, 15264, Note_on_c, 14, 64, 100
16, 15264, Note_on_c, 14, 71, 10
16, 15312, Note_off_c, 14, 71, 64
16, 15312, Note_on_c, 14, 71, 0
16, 15360, Note_off_c, 14, 71, 64
16, 15360, Note_off_c, 14, 64, 64
16, 15360, Note_on_c, 14, 64, 100
16, 15456, Note_off_c, 14, 64, 64
16, 15456, Note_on_c, 14, 64, 100
16, 15552, Note_off_c, 14, 64, 64
16, 15552, Note_on_c, 14, 64, 100
16, 15648, Note_off_c, 14, 64, 64
16, 15648, Note_on_c, 14, 64, 100
16, 15744, Note_off_c, 14, 64, 64
16, 15744, Note_on_c, 14, 64, 100
16, 15840, Note_off_c, 14, 64, 64
16, 15840, Note_on_c, 14, 64, 100
16, 15936, Note_off_c, 14, 64, 64
16, 15936, Note_on_c, 14, 64, 100
16, 16032, Note_off_c, 14, 64, 64
16, 16032, Note_on_c, 14, 64, 100
16, 16128, Note_off_c, 14, 64, 64
16, 16128, Note_on_c, 14, 66, 100
16, 16224, Note_off_c, 14, 66, 64
16, 16224, Note_on_c, 14, 66, 100
16, 16320, Note_off_c, 14, 66, 64
16, 16320, Note_on_c, 14, 66, 100
16, 16416, Note_off_c, 14, 66, 64
16, 16416, Note_on_c, 14, 66, 100
16, 16512, Note_off_c, 14, 66, 64
16, 16512, Note_on_c, 14, 66, 100
16, 16608, Note_off_c, 14, 66, 64
16, 16608, Note_on_c, 14, 66, 100
16, 16704, Note_off_c, 14, 66, 64
16, 16704, Note_on_c, 14, 66, 100
16, 16800, Note_off_c, 14, 66, 64
16, 16800, Note_on_c, 14, 66, 100
16, 16896, Note_off_c, 14, 66, 64
16, 16896, Note_on_c, 14, 66, 100
16, 16992, Note_off_c, 14, 66, 64
16, 16992, Note_on_c, 14, 66, 100
16, 17088, Note_off_c, 14, 66, 64
16, 17088, Note_on_c, 14, 66, 100
16, 17184, Note_off_c, 14, 66, 64
16, 17184, Note_on_c, 14, 66, 100
16, 17280, Note_off_c, 14, 66, 64
16, 17280, Note_on_c, 14, 66, 100
16, 17376, Note_off_c, 14, 66, 64
16, 17376, Note_on_c, 14, 66, 100
16, 17472, Note_off_c, 14, 66, 64
16, 17472, Note_on_c, 14, 66, 100
16, 17568, Note_off_c, 14, 66, 64
16, 17568, Note_on_c, 14, 66, 100
16, 17664, Note_off_c, 14, 66, 64
16, 17664, Note_on_c, 14, 64, 100
16, 17760, Note_off_c, 14, 64, 64
16, 17760, Note_on_c, 14, 64, 100
16, 17856, Note_off_c, 14, 64, 64
16, 17856, Note_on_c, 14, 64, 100
16, 17952, Note_off_c, 14, 64, 64
16, 17952, Note_on_c, 14, 64, 100
16, 18048, Note_off_c, 14, 64, 64
16, 18048, Note_on_c, 14, 64, 100
16, 18144, Note_off_c, 14, 64, 64
16, 18144, Note_on_c, 14, 64, 100
16, 18240, Note_off_c, 14, 64, 64
16, 18240, Note_on_c, 14, 64, 100
16, 18336, Note_off_c, 14, 64, 64
16, 18336, Note_on_c, 14, 64, 100
16, 18432, Note_off_c, 14, 64, 64
16, 18432, Note_on_c, 14, 64, 100
16, 18528, Note_off_c, 14, 64, 64
16, 18528, Note_on_c, 14, 64, 100
16, 18624, Note_off_c, 14, 64, 64
16, 18624, Note_on_c, 14, 64, 100
16, 18720, Note_off_c, 14, 64, 64
16, 18720, Note_on_c, 14, 64, 100
16, 18816, Note_off_c, 14, 64, 64
16, 18816, Note_on_c, 14, 64, 100
16, 18912, Note_off_c, 14, 64, 64
16, 18912, Note_on_c, 14, 64, 100
16, 19008, Note_off_c, 14, 64, 64
16, 19008, Note_on_c, 14, 64, 100
16, 19104, Note_off_c, 14, 64, 64
16, 19104, Note_on_c, 14, 64, 100
16, 19200, Note_off_c, 14, 64, 64
16, 19200, Note_on_c, 14, 66, 100
16, 19296, Note_off_c, 14, 66, 64
16, 19296, Note_on_c, 14, 66, 100
16, 19392, Note_off_c, 14, 66, 64
16, 19392, Note_on_c, 14, 66, 100
16, 19488, Note_off_c, 14, 66, 64
16, 19488, Note_on_c, 14, 66, 100
16, 19584, Note_off_c, 14, 66, 64
16, 19584, Note_on_c, 14, 66, 100
16, 19680, Note_off_c, 14, 66, 64
16, 19680, Note_on_c, 14, 66, 100
16, 19776, Note_off_c, 14, 66, 64
16, 19776, Note_on_c, 14, 66, 100
16, 19872, Note_off_c, 14, 66, 64
16, 19872, Note_on_c, 14, 66, 100
16, 19968, Note_off_c, 14, 66, 64
16, 19968, Note_on_c, 14, 66, 100
16, 20064, Note_off_c, 14, 66, 64
16, 20064, Note_on_c, 14, 66, 100
16, 20160, Note_off_c, 14, 66, 64
16, 20160, Note_on_c, 14, 66, 100
16, 20256, Note_off_c, 14, 66, 64
16, 20256, Note_on_c, 14, 66, 100
16, 20352, Note_off_c, 14, 66, 64
16, 20352, Note_on_c, 14, 66, 100
16, 20448, Note_off_c, 14, 66, 64
16, 20448, Note_on_c, 14, 66, 100
16, 20544, Note_off_c, 14, 66, 64
16, 20544, Note_on_c, 14, 66, 100
16, 20640, Note_off_c, 14, 66, 64
16, 20640, Note_on_c, 14, 66, 100
16, 20736, Note_off_c, 14, 66, 64
16, 23040, Note_on_c, 14, 59, 100
16, 23088, Note_off_c, 14, 59, 64
16, 23088, Note_on_c, 14, 71, 100
16, 23136, Note_off_c, 14, 71, 64
16, 23136, Note_on_c, 14, 59, 100
16, 23184, Note_off_c, 14, 59, 64
16, 23184, Note_on_c, 14, 71, 100
16, 23232, Note_off_c, 14, 71, 64
16, 23232, Note_on_c, 14, 59, 100
16, 23280, Note_off_c, 14, 59, 64
16, 23280, Note_on_c, 14, 71, 100
16, 23328, Note_off_c, 14, 71, 64
16, 23328, Note_on_c, 14, 59, 100
16, 23376, Note_off_c, 14, 59, 64
16, 23376, Note_on_c, 14, 71, 100
16, 23424, Note_off_c, 14, 71, 64
16, 23424, Note_on_c, 14, 71, 101
16, 23472, Note_off_c, 14, 71, 64
16, 23472, Note_on_c, 14, 71, 101
16, 23520, Note_off_c, 14, 71, 64
16, 23520, Note_on_c, 14, 71, 101
16, 23568, Note_off_c, 14, 71, 64
16, 23568, Note_on_c, 14, 71, 101
16, 23616, Note_off_c, 14, 71, 64
16, 23616, Note_on_c, 14, 71, 101
16, 23664, Note_off_c, 14, 71, 64
16, 23664, Note_on_c, 14, 71, 95
16, 23712, Note_off_c, 14, 71, 64
16, 23712, Note_on_c, 14, 71, 86
16, 23760, Note_off_c, 14, 71, 64
16, 23760, Note_on_c, 14, 71, 76
16, 23808, Note_off_c, 14, 71, 64
16, 23808, Note_on_c, 14, 71, 67
16, 23856, Note_off_c, 14, 71, 64
16, 23856, Note_on_c, 14, 71, 57
16, 23904, Note_off_c, 14, 71, 64
16, 23904, Note_on_c, 14, 71, 48
16, 23952, Note_off_c, 14, 71, 64
16, 23952, Note_on_c, 14, 71, 38
16, 24000, Note_off_c, 14, 71, 64
16, 24000, Note_on_c, 14, 71, 29
16, 24048, Note_off_c, 14, 71, 64
16, 24048, Note_on_c, 14, 71, 19
16, 24096, Note_off_c, 14, 71, 64
16, 24096, Note_on_c, 14, 71, 10
16, 24144, Note_off_c, 14, 71, 64
16, 24144, Note_on_c, 14, 71, 0
16, 24192, Note_off_c, 14, 71, 64
16, 26496, Note_on_c, 14, 47, 100
16, 26496, Note_on_c, 14, 52, 100
16, 26592, Note_off_c, 14, 52, 64
16, 26592, Note_off_c, 14, 47, 64
16, 26592, Note_on_c, 14, 47, 100
16, 26592, Note_on_c, 14, 52, 100
16, 26688, Note_off_c, 14, 52, 64
16, 26688, Note_off_c, 14, 47, 64
16, 26688, Note_on_c, 14, 47, 100
16, 26688, Note_on_c, 14, 52, 100
16, 26784, Note_off_c, 14, 52, 64
16, 26784, Note_off_c, 14, 47, 64
16, 26784, Note_on_c, 14, 47, 100
16, 26784, Note_on_c, 14, 52, 100
16, 26880, Note_off_c, 14, 52, 64
16, 26880, Note_off_c, 14, 47, 64
16, 26880, Note_on_c, 14, 51, 100
16, 26880, Note_on_c, 14, 56, 100
16, 26976, Note_off_c, 14, 56, 64
16, 26976, Note_off_c, 14, 51, 64
16, 26976, Note_on_c, 14, 51, 100
16, 26976, Note_on_c, 14, 56, 100
16, 27072, Note_off_c, 14, 56, 64
16, 27072, Note_off_c, 14, 51, 64
16, 27072, Note_on_c, 14, 47, 100
16, 27072, Note_on_c, 14, 54, 100
16, 27168, Note_off_c, 14, 54, 64
16, 27168, Note_off_c, 14, 47, 64
16, 27168, Note_on_c, 14, 47, 100
16, 27168, Note_on_c, 14, 54, 100
16, 27264, Note_off_c, 14, 54, 64
16, 27264, Note_off_c, 14, 47, 64
16, 27264, Note_on_c, 14, 47, 100
16, 27264, Note_on_c, 14, 52, 100
16, 27360, Note_off_c, 14, 52, 64
16, 27360, Note_off_c, 14, 47, 64
16, 27360, Note_on_c, 14, 47, 100
16, 27360, Note_on_c, 14, 52, 100
16, 27456, Note_off_c, 14, 52, 64
16, 27456, Note_off_c, 14, 47, 64
16, 27456, Note_on_c, 14, 47, 100
16, 27456, Note_on_c, 14, 52, 100
16, 27552, Note_off_c, 14, 52, 64
16, 27552, Note_off_c, 14, 47, 64
16, 27552, Note_on_c, 14, 47, 100
16, 27552, Note_on_c, 14, 52, 100
16, 27648, Note_off_c, 14, 47, 64
16, 27648, Note_off_c, 14, 52, 64
16, 27648, Note_on_c, 14, 51, 100
16, 27648, Note_on_c, 14, 56, 100
16, 27744, Note_off_c, 14, 56, 64
16, 27744, Note_off_c, 14, 51, 64
16, 27744, Note_on_c, 14, 51, 100
16, 27744, Note_on_c, 14, 56, 100
16, 27840, Note_off_c, 14, 56, 64
16, 27840, Note_off_c, 14, 51, 64
16, 27840, Note_on_c, 14, 54, 100
16, 27840, Note_on_c, 14, 57, 100
16, 27936, Note_off_c, 14, 57, 64
16, 27936, Note_off_c, 14, 54, 64
16, 27936, Note_on_c, 14, 54, 100
16, 27936, Note_on_c, 14, 57, 100
16, 28032, Note_off_c, 14, 57, 64
16, 28032, Note_off_c, 14, 54, 64
16, 28032, Note_on_c, 14, 47, 100
16, 28032, Note_on_c, 14, 52, 100
16, 28128, Note_off_c, 14, 52, 64
16, 28128, Note_off_c, 14, 47, 64
16, 28128, Note_on_c, 14, 47, 100
16, 28128, Note_on_c, 14, 52, 100
16, 28224, Note_off_c, 14, 52, 64
16, 28224, Note_off_c, 14, 47, 64
16, 28224, Note_on_c, 14, 47, 100
16, 28224, Note_on_c, 14, 52, 100
16, 28320, Note_off_c, 14, 52, 64
16, 28320, Note_off_c, 14, 47, 64
16, 28320, Note_on_c, 14, 47, 100
16, 28320, Note_on_c, 14, 52, 100
16, 28416, Note_off_c, 14, 52, 64
16, 28416, Note_off_c, 14, 47, 64
16, 28416, Note_on_c, 14, 51, 100
16, 28416, Note_on_c, 14, 56, 100
16, 28416, Note_on_c, 14, 59, 100
16, 28464, Note_off_c, 14, 59, 64
16, 28464, Note_on_c, 14, 71, 100
16, 28512, Note_off_c, 14, 71, 64
16, 28512, Note_off_c, 14, 56, 64
16, 28512, Note_off_c, 14, 51, 64
16, 28512, Note_on_c, 14, 51, 100
16, 28512, Note_on_c, 14, 56, 100
16, 28512, Note_on_c, 14, 59, 100
16, 28560, Note_off_c, 14, 59, 64
16, 28560, Note_on_c, 14, 71, 100
16, 28608, Note_off_c, 14, 71, 64
16, 28608, Note_off_c, 14, 56, 64
16, 28608, Note_off_c, 14, 51, 64
16, 28608, Note_on_c, 14, 54, 100
16, 28608, Note_on_c, 14, 59, 100
16, 28608, Note_on_c, 14, 59, 100
16, 28656, Note_off_c, 14, 59, 64
16, 28656, Note_on_c, 14, 71, 100
16, 28704, Note_off_c, 14, 71, 64
16, 28704, Note_off_c, 14, 59, 64
16, 28704, Note_off_c, 14, 54, 64
16, 28704, Note_on_c, 14, 54, 100
16, 28704, Note_on_c, 14, 59, 100
16, 28704, Note_on_c, 14, 59, 100
16, 28752, Note_off_c, 14, 59, 64
16, 28752, Note_on_c, 14, 71, 100
16, 28800, Note_off_c, 14, 71, 64
16, 28800, Note_off_c, 14, 59, 64
16, 28800, Note_off_c, 14, 54, 64
16, 28800, Note_on_c, 14, 71, 101
16, 28800, Note_on_c, 14, 64, 100
16, 28848, Note_off_c, 14, 71, 64
16, 28848, Note_on_c, 14, 71, 101
16, 28896, Note_off_c, 14, 64, 64
16, 28896, Note_off_c, 14, 71, 64
16, 28896, Note_on_c, 14, 71, 101
16, 28896, Note_on_c, 14, 64, 100
16, 28944, Note_off_c, 14, 71, 64
16, 28944, Note_on_c, 14, 71, 101
16, 28992, Note_off_c, 14, 71, 64
16, 28992, Note_off_c, 14, 64, 64
16, 28992, Note_on_c, 14, 71, 101
16, 28992, Note_on_c, 14, 64, 100
16, 29040, Note_off_c, 14, 71, 64
16, 29040, Note_on_c, 14, 71, 95
16, 29088, Note_off_c, 14, 64, 64
16, 29088, Note_off_c, 14, 71, 64
16, 29088, Note_on_c, 14, 71, 86
16, 29088, Note_on_c, 14, 64, 100
16, 29136, Note_off_c, 14, 71, 64
16, 29136, Note_on_c, 14, 71, 76
16, 29184, Note_off_c, 14, 71, 64
16, 29184, Note_off_c, 14, 64, 64
16, 29184, Note_on_c, 14, 71, 67
16, 29184, Note_on_c, 14, 64, 100
16, 29232, Note_off_c, 14, 71, 64
16, 29232, Note_on_c, 14, 71, 57
16, 29280, Note_off_c, 14, 64, 64
16, 29280, Note_off_c, 14, 71, 64
16, 29280, Note_on_c, 14, 71, 48
16, 29280, Note_on_c, 14, 64, 100
16, 29328, Note_off_c, 14, 71, 64
16, 29328, Note_on_c, 14, 71, 38
16, 29376, Note_off_c, 14, 71, 64
16, 29376, Note_off_c, 14, 64, 64
16, 29376, Note_on_c, 14, 71, 29
16, 29376, Note_on_c, 14, 64, 100
16, 29424, Note_off_c, 14, 71, 64
16, 29424, Note_on_c, 14, 71, 19
16, 29472, Note_off_c, 14, 64, 64
16, 29472, Note_off_c, 14, 71, 64
16, 29472, Note_on_c, 14, 71, 10
16, 29472, Note_on_c, 14, 64, 100
16, 29520, Note_off_c, 14, 71, 64
16, 29520, Note_on_c, 14, 71, 0
16, 29568, Note_off_c, 14, 71, 64
16, 29568, Note_off_c, 14, 64, 64
16, 29568, Note_on_c, 14, 64, 100
16, 29664, Note_off_c, 14, 64, 64
16, 29664, Note_on_c, 14, 64, 100
16, 29760, Note_off_c, 14, 64, 64
16, 29760, Note_on_c, 14, 64, 100
16, 29856, Note_off_c, 14, 64, 64
16, 29856, Note_on_c, 14, 64, 100
16, 29952, Note_off_c, 14, 64, 64
16, 29952, Note_on_c, 14, 64, 100
16, 30048, Note_off_c, 14, 64, 64
16, 30048, Note_on_c, 14, 64, 100
16, 30144, Note_off_c, 14, 64, 64
16, 30144, Note_on_c, 14, 64, 100
16, 30240, Note_off_c, 14, 64, 64
16, 30240, Note_on_c, 14, 64, 100
16, 30336, Note_off_c, 14, 64, 64
16, 30336, Note_on_c, 14, 66, 100
16, 30432, Note_off_c, 14, 66, 64
16, 30432, Note_on_c, 14, 66, 100
16, 30528, Note_off_c, 14, 66, 64
16, 30528, Note_on_c, 14, 66, 100
16, 30624, Note_off_c, 14, 66, 64
16, 30624, Note_on_c, 14, 66, 100
16, 30720, Note_off_c, 14, 66, 64
16, 30720, Note_on_c, 14, 66, 100
16, 30816, Note_off_c, 14, 66, 64
16, 30816, Note_on_c, 14, 66, 100
16, 30912, Note_off_c, 14, 66, 64
16, 30912, Note_on_c, 14, 66, 100
16, 31008, Note_off_c, 14, 66, 64
16, 31008, Note_on_c, 14, 66, 100
16, 31104, Note_off_c, 14, 66, 64
16, 31104, Note_on_c, 14, 66, 100
16, 31200, Note_off_c, 14, 66, 64
16, 31200, Note_on_c, 14, 66, 100
16, 31296, Note_off_c, 14, 66, 64
16, 31296, Note_on_c, 14, 66, 100
16, 31392, Note_off_c, 14, 66, 64
16, 31392, Note_on_c, 14, 66, 100
16, 31488, Note_off_c, 14, 66, 64
16, 31488, Note_on_c, 14, 66, 100
16, 31584, Note_off_c, 14, 66, 64
16, 31584, Note_on_c, 14, 66, 100
16, 31680, Note_off_c, 14, 66, 64
16, 31680, Note_on_c, 14, 66, 100
16, 31776, Note_off_c, 14, 66, 64
16, 31776, Note_on_c, 14, 66, 100
16, 31872, Note_off_c, 14, 66, 64
16, 31872, Note_on_c, 14, 64, 100
16, 31968, Note_off_c, 14, 64, 64
16, 31968, Note_on_c, 14, 64, 100
16, 32064, Note_off_c, 14, 64, 64
16, 32064, Note_on_c, 14, 64, 100
16, 32160, Note_off_c, 14, 64, 64
16, 32160, Note_on_c, 14, 64, 100
16, 32256, Note_off_c, 14, 64, 64
16, 32256, Note_on_c, 14, 64, 100
16, 32352, Note_off_c, 14, 64, 64
16, 32352, Note_on_c, 14, 64, 100
16, 32448, Note_off_c, 14, 64, 64
16, 32448, Note_on_c, 14, 64, 100
16, 32544, Note_off_c, 14, 64, 64
16, 32544, Note_on_c, 14, 64, 100
16, 32640, Note_off_c, 14, 64, 64
16, 32640, Note_on_c, 14, 64, 100
16, 32736, Note_off_c, 14, 64, 64
16, 32736, Note_on_c, 14, 64, 100
16, 32832, Note_off_c, 14, 64, 64
16, 32832, Note_on_c, 14, 64, 100
16, 32928, Note_off_c, 14, 64, 64
16, 32928, Note_on_c, 14, 64, 100
16, 33024, Note_off_c, 14, 64, 64
16, 33024, Note_on_c, 14, 64, 100
16, 33120, Note_off_c, 14, 64, 64
16, 33120, Note_on_c, 14, 64, 100
16, 33216, Note_off_c, 14, 64, 64
16, 33216, Note_on_c, 14, 64, 100
16, 33312, Note_off_c, 14, 64, 64
16, 33312, Note_on_c, 14, 64, 100
16, 33408, Note_off_c, 14, 64, 64
16, 33408, Note_on_c, 14, 66, 100
16, 33504, Note_off_c, 14, 66, 64
16, 33504, Note_on_c, 14, 66, 100
16, 33600, Note_off_c, 14, 66, 64
16, 33600, Note_on_c, 14, 66, 100
16, 33696, Note_off_c, 14, 66, 64
16, 33696, Note_on_c, 14, 66, 100
16, 33792, Note_off_c, 14, 66, 64
16, 33792, Note_on_c, 14, 66, 100
16, 33888, Note_off_c, 14, 66, 64
16, 33888, Note_on_c, 14, 66, 100
16, 33984, Note_off_c, 14, 66, 64
16, 33984, Note_on_c, 14, 66, 100
16, 34080, Note_off_c, 14, 66, 64
16, 34080, Note_on_c, 14, 66, 100
16, 34176, Note_off_c, 14, 66, 64
16, 34176, Note_on_c, 14, 66, 100
16, 34272, Note_off_c, 14, 66, 64
16, 34272, Note_on_c, 14, 66, 100
16, 34368, Note_off_c, 14, 66, 64
16, 34368, Note_on_c, 14, 66, 100
16, 34464, Note_off_c, 14, 66, 64
16, 34464, Note_on_c, 14, 66, 100
16, 34560, Note_off_c, 14, 66, 64
16, 34560, Note_on_c, 14, 66, 100
16, 34656, Note_off_c, 14, 66, 64
16, 34656, Note_on_c, 14, 66, 100
16, 34752, Note_off_c, 14, 66, 64
16, 34752, Note_on_c, 14, 66, 100
16, 34848, Note_off_c, 14, 66, 64
16, 34848, Note_on_c, 14, 66, 100
16, 34944, Note_off_c, 14, 66, 64
16, 37248, Note_on_c, 14, 59, 100
16, 37296, Note_off_c, 14, 59, 64
16, 37296, Note_on_c, 14, 71, 100
16, 37344, Note_off_c, 14, 71, 64
16, 37344, Note_on_c, 14, 59, 100
16, 37392, Note_off_c, 14, 59, 64
16, 37392, Note_on_c, 14, 71, 100
16, 37440, Note_off_c, 14, 71, 64
16, 37440, Note_on_c, 14, 59, 100
16, 37488, Note_off_c, 14, 59, 64
16, 37488, Note_on_c, 14, 71, 100
16, 37536, Note_off_c, 14, 71, 64
16, 37536, Note_on_c, 14, 59, 100
16, 37584, Note_off_c, 14, 59, 64
16, 37584, Note_on_c, 14, 71, 100
16, 37632, Note_off_c, 14, 71, 64
16, 37632, Note_on_c, 14, 71, 101
16, 37632, Note_on_c, 14, 64, 100
16, 37680, Note_off_c, 14, 71, 64
16, 37680, Note_on_c, 14, 71, 101
16, 37728, Note_off_c, 14, 64, 64
16, 37728, Note_off_c, 14, 71, 64
16, 37728, Note_on_c, 14, 71, 101
16, 37728, Note_on_c, 14, 64, 100
16, 37776, Note_off_c, 14, 71, 64
16, 37776, Note_on_c, 14, 71, 101
16, 37824, Note_off_c, 14, 71, 64
16, 37824, Note_off_c, 14, 64, 64
16, 37824, Note_on_c, 14, 71, 101
16, 37824, Note_on_c, 14, 64, 100
16, 37872, Note_off_c, 14, 71, 64
16, 37872, Note_on_c, 14, 71, 95
16, 37920, Note_off_c, 14, 64, 64
16, 37920, Note_off_c, 14, 71, 64
16, 37920, Note_on_c, 14, 71, 86
16, 37920, Note_on_c, 14, 64, 100
16, 37968, Note_off_c, 14, 71, 64
16, 37968, Note_on_c, 14, 71, 76
16, 38016, Note_off_c, 14, 64, 64
16, 38016, Note_off_c, 14, 71, 64
16, 38016, Note_on_c, 14, 71, 67
16, 38016, Note_on_c, 14, 64, 100
16, 38064, Note_off_c, 14, 71, 64
16, 38064, Note_on_c, 14, 71, 57
16, 38112, Note_off_c, 14, 64, 64
16, 38112, Note_off_c, 14, 71, 64
16, 38112, Note_on_c, 14, 71, 48
16, 38112, Note_on_c, 14, 64, 100
16, 38160, Note_off_c, 14, 71, 64
16, 38160, Note_on_c, 14, 71, 38
16, 38208, Note_off_c, 14, 71, 64
16, 38208, Note_off_c, 14, 64, 64
16, 38208, Note_on_c, 14, 71, 29
16, 38208, Note_on_c, 14, 64, 100
16, 38256, Note_off_c, 14, 71, 64
16, 38256, Note_on_c, 14, 71, 19
16, 38304, Note_off_c, 14, 64, 64
16, 38304, Note_off_c, 14, 71, 64
16, 38304, Note_on_c, 14, 71, 10
16, 38304, Note_on_c, 14, 64, 100
16, 38352, Note_off_c, 14, 71, 64
16, 38352, Note_on_c, 14, 71, 0
16, 38400, Note_off_c, 14, 64, 64
16, 38400, Note_off_c, 14, 71, 64
16, 38400, Note_on_c, 14, 64, 100
16, 38496, Note_off_c, 14, 64, 64
16, 38496, Note_on_c, 14, 64, 100
16, 38592, Note_off_c, 14, 64, 64
16, 38592, Note_on_c, 14, 64, 100
16, 38688, Note_off_c, 14, 64, 64
16, 38688, Note_on_c, 14, 64, 100
16, 38784, Note_off_c, 14, 64, 64
16, 38784, Note_on_c, 14, 64, 100
16, 38880, Note_off_c, 14, 64, 64
16, 38880, Note_on_c, 14, 64, 100
16, 38976, Note_off_c, 14, 64, 64
16, 38976, Note_on_c, 14, 64, 100
16, 39072, Note_off_c, 14, 64, 64
16, 39072, Note_on_c, 14, 64, 100
16, 39168, Note_off_c, 14, 64, 64
16, 39168, Note_on_c, 14, 66, 100
16, 39264, Note_off_c, 14, 66, 64
16, 39264, Note_on_c, 14, 66, 100
16, 39360, Note_off_c, 14, 66, 64
16, 39360, Note_on_c, 14, 66, 100
16, 39456, Note_off_c, 14, 66, 64
16, 39456, Note_on_c, 14, 66, 100
16, 39552, Note_off_c, 14, 66, 64
16, 39552, Note_on_c, 14, 66, 100
16, 39648, Note_off_c, 14, 66, 64
16, 39648, Note_on_c, 14, 66, 100
16, 39744, Note_off_c, 14, 66, 64
16, 39744, Note_on_c, 14, 66, 100
16, 39840, Note_off_c, 14, 66, 64
16, 39840, Note_on_c, 14, 66, 100
16, 39936, Note_off_c, 14, 66, 64
16, 39936, Note_on_c, 14, 66, 100
16, 40032, Note_off_c, 14, 66, 64
16, 40032, Note_on_c, 14, 66, 100
16, 40128, Note_off_c, 14, 66, 64
16, 40128, Note_on_c, 14, 66, 100
16, 40224, Note_off_c, 14, 66, 64
16, 40224, Note_on_c, 14, 66, 100
16, 40320, Note_off_c, 14, 66, 64
16, 40320, Note_on_c, 14, 66, 100
16, 40416, Note_off_c, 14, 66, 64
16, 40416, Note_on_c, 14, 66, 100
16, 40512, Note_off_c, 14, 66, 64
16, 40512, Note_on_c, 14, 66, 100
16, 40608, Note_off_c, 14, 66, 64
16, 40608, Note_on_c, 14, 66, 100
16, 40704, Note_off_c, 14, 66, 64
16, 40704, Note_on_c, 14, 64, 100
16, 40800, Note_off_c, 14, 64, 64
16, 40800, Note_on_c, 14, 64, 100
16, 40896, Note_off_c, 14, 64, 64
16, 40896, Note_on_c, 14, 64, 100
16, 40992, Note_off_c, 14, 64, 64
16, 40992, Note_on_c, 14, 64, 100
16, 41088, Note_off_c, 14, 64, 64
16, 41088, Note_on_c, 14, 64, 100
16, 41184, Note_off_c, 14, 64, 64
16, 41184, Note_on_c, 14, 64, 100
16, 41280, Note_off_c, 14, 64, 64
16, 41280, Note_on_c, 14, 64, 100
16, 41376, Note_off_c, 14, 64, 64
16, 41376, Note_on_c, 14, 64, 100
16, 41472, Note_off_c, 14, 64, 64
16, 41472, Note_on_c, 14, 64, 100
16, 41568, Note_off_c, 14, 64, 64
16, 41568, Note_on_c, 14, 64, 100
16, 41664, Note_off_c, 14, 64, 64
16, 41664, Note_on_c, 14, 64, 100
16, 41760, Note_off_c, 14, 64, 64
16, 41760, Note_on_c, 14, 64, 100
16, 41856, Note_off_c, 14, 64, 64
16, 41856, Note_on_c, 14, 64, 100
16, 41952, Note_off_c, 14, 64, 64
16, 41952, Note_on_c, 14, 64, 100
16, 42048, Note_off_c, 14, 64, 64
16, 42048, Note_on_c, 14, 64, 100
16, 42144, Note_off_c, 14, 64, 64
16, 42144, Note_on_c, 14, 64, 100
16, 42240, Note_off_c, 14, 64, 64
16, 42240, Note_on_c, 14, 66, 100
16, 42336, Note_off_c, 14, 66, 64
16, 42336, Note_on_c, 14, 66, 100
16, 42432, Note_off_c, 14, 66, 64
16, 42432, Note_on_c, 14, 66, 100
16, 42528, Note_off_c, 14, 66, 64
16, 42528, Note_on_c, 14, 66, 100
16, 42624, Note_off_c, 14, 66, 64
16, 42624, Note_on_c, 14, 66, 100
16, 42720, Note_off_c, 14, 66, 64
16, 42720, Note_on_c, 14, 66, 100
16, 42816, Note_off_c, 14, 66, 64
16, 42816, Note_on_c, 14, 66, 100
16, 42912, Note_off_c, 14, 66, 64
16, 42912, Note_on_c, 14, 66, 100
16, 43008, Note_off_c, 14, 66, 64
16, 43008, Note_on_c, 14, 66, 100
16, 43104, Note_off_c, 14, 66, 64
16, 43104, Note_on_c, 14, 66, 100
16, 43200, Note_off_c, 14, 66, 64
16, 43200, Note_on_c, 14, 66, 100
16, 43296, Note_off_c, 14, 66, 64
16, 43296, Note_on_c, 14, 66, 100
16, 43392, Note_off_c, 14, 66, 64
16, 43392, Note_on_c, 14, 66, 100
16, 43488, Note_off_c, 14, 66, 64
16, 43488, Note_on_c, 14, 66, 100
16, 43584, Note_off_c, 14, 66, 64
16, 43584, Note_on_c, 14, 66, 100
16, 43680, Note_off_c, 14, 66, 64
16, 43680, Note_on_c, 14, 66, 100
16, 43776, Note_off_c, 14, 66, 64
16, 43776, Note_on_c, 14, 64, 100
16, 43872, Note_off_c, 14, 64, 64
16, 43872, Note_on_c, 14, 64, 100
16, 43968, Note_off_c, 14, 64, 64
16, 43968, Note_on_c, 14, 64, 100
16, 44064, Note_off_c, 14, 64, 64
16, 44064, Note_on_c, 14, 64, 100
16, 44160, Note_off_c, 14, 64, 64
16, 44160, Note_on_c, 14, 64, 100
16, 44256, Note_off_c, 14, 64, 64
16, 44256, Note_on_c, 14, 64, 100
16, 44352, Note_off_c, 14, 64, 64
16, 44352, Note_on_c, 14, 64, 100
16, 44448, Note_off_c, 14, 64, 64
16, 44448, Note_on_c, 14, 64, 100
16, 44544, Note_off_c, 14, 64, 64
16, 44544, Note_on_c, 14, 64, 100
16, 44640, Note_off_c, 14, 64, 64
16, 44640, Note_on_c, 14, 64, 100
16, 44736, Note_off_c, 14, 64, 64
16, 44736, Note_on_c, 14, 64, 100
16, 44832, Note_off_c, 14, 64, 64
16, 44832, Note_on_c, 14, 64, 100
16, 44928, Note_off_c, 14, 64, 64
16, 44928, Note_on_c, 14, 64, 100
16, 45024, Note_off_c, 14, 64, 64
16, 45024, Note_on_c, 14, 64, 100
16, 45120, Note_off_c, 14, 64, 64
16, 45120, Note_on_c, 14, 64, 100
16, 45216, Note_off_c, 14, 64, 64
16, 45216, Note_on_c, 14, 64, 100
16, 45312, Note_off_c, 14, 64, 64
16, 45312, Note_on_c, 14, 66, 100
16, 45408, Note_off_c, 14, 66, 64
16, 45408, Note_on_c, 14, 66, 100
16, 45504, Note_off_c, 14, 66, 64
16, 45504, Note_on_c, 14, 66, 100
16, 45600, Note_off_c, 14, 66, 64
16, 45600, Note_on_c, 14, 66, 100
16, 45696, Note_off_c, 14, 66, 64
16, 45696, Note_on_c, 14, 66, 100
16, 45792, Note_off_c, 14, 66, 64
16, 45792, Note_on_c, 14, 66, 100
16, 45888, Note_off_c, 14, 66, 64
16, 45888, Note_on_c, 14, 66, 100
16, 45984, Note_off_c, 14, 66, 64
16, 45984, Note_on_c, 14, 66, 100
16, 46080, Note_off_c, 14, 66, 64
16, 46080, Note_on_c, 14, 66, 100
16, 46176, Note_off_c, 14, 66, 64
16, 46176, Note_on_c, 14, 66, 100
16, 46272, Note_off_c, 14, 66, 64
16, 46272, Note_on_c, 14, 66, 100
16, 46368, Note_off_c, 14, 66, 64
16, 46368, Note_on_c, 14, 66, 100
16, 46464, Note_off_c, 14, 66, 64
16, 46464, Note_on_c, 14, 66, 100
16, 46464, Note_on_c, 14, 59, 100
16, 46512, Note_off_c, 14, 59, 64
16, 46512, Note_on_c, 14, 71, 100
16, 46560, Note_off_c, 14, 71, 64
16, 46560, Note_off_c, 14, 66, 64
16, 46560, Note_on_c, 14, 66, 100
16, 46560, Note_on_c, 14, 59, 100
16, 46608, Note_off_c, 14, 59, 64
16, 46608, Note_on_c, 14, 71, 100
16, 46656, Note_off_c, 14, 71, 64
16, 46656, Note_off_c, 14, 66, 64
16, 46656, Note_on_c, 14, 66, 100
16, 46656, Note_on_c, 14, 59, 100
16, 46704, Note_off_c, 14, 59, 64
16, 46704, Note_on_c, 14, 71, 100
16, 46752, Note_off_c, 14, 71, 64
16, 46752, Note_off_c, 14, 66, 64
16, 46752, Note_on_c, 14, 66, 100
16, 46752, Note_on_c, 14, 59, 100
16, 46800, Note_off_c, 14, 59, 64
16, 46800, Note_on_c, 14, 71, 100
16, 46848, Note_off_c, 14, 71, 64
16, 46848, Note_off_c, 14, 66, 64
16, 46848, Note_on_c, 14, 64, 100
16, 46848, Note_on_c, 14, 71, 101
16, 46896, Note_off_c, 14, 71, 64
16, 46896, Note_on_c, 14, 71, 101
16, 46944, Note_off_c, 14, 71, 64
16, 46944, Note_off_c, 14, 64, 64
16, 46944, Note_on_c, 14, 64, 100
16, 46944, Note_on_c, 14, 71, 101
16, 46992, Note_off_c, 14, 71, 64
16, 46992, Note_on_c, 14, 71, 101
16, 47040, Note_off_c, 14, 71, 64
16, 47040, Note_off_c, 14, 64, 64
16, 47040, Note_on_c, 14, 64, 100
16, 47040, Note_on_c, 14, 71, 101
16, 47088, Note_off_c, 14, 71, 64
16, 47088, Note_on_c, 14, 71, 95
16, 47136, Note_off_c, 14, 71, 64
16, 47136, Note_off_c, 14, 64, 64
16, 47136, Note_on_c, 14, 64, 100
16, 47136, Note_on_c, 14, 71, 86
16, 47184, Note_off_c, 14, 71, 64
16, 47184, Note_on_c, 14, 71, 76
16, 47232, Note_off_c, 14, 71, 64
16, 47232, Note_off_c, 14, 64, 64
16, 47232, Note_on_c, 14, 64, 100
16, 47232, Note_on_c, 14, 71, 67
16, 47280, Note_off_c, 14, 71, 64
16, 47280, Note_on_c, 14, 71, 57
16, 47328, Note_off_c, 14, 71, 64
16, 47328, Note_off_c, 14, 64, 64
16, 47328, Note_on_c, 14, 64, 100
16, 47328, Note_on_c, 14, 71, 48
16, 47376, Note_off_c, 14, 71, 64
16, 47376, Note_on_c, 14, 71, 38
16, 47424, Note_off_c, 14, 71, 64
16, 47424, Note_off_c, 14, 64, 64
16, 47424, Note_on_c, 14, 64, 100
16, 47424, Note_on_c, 14, 71, 29
16, 47472, Note_off_c, 14, 71, 64
16, 47472, Note_on_c, 14, 71, 19
16, 47520, Note_off_c, 14, 71, 64
16, 47520, Note_off_c, 14, 64, 64
16, 47520, Note_on_c, 14, 64, 100
16, 47520, Note_on_c, 14, 71, 10
16, 47568, Note_off_c, 14, 71, 64
16, 47568, Note_on_c, 14, 71, 0
16, 47616, Note_off_c, 14, 71, 64
16, 47616, Note_off_c, 14, 64, 64
16, 47616, Note_on_c, 14, 64, 100
16, 47712, Note_off_c, 14, 64, 64
16, 47712, Note_on_c, 14, 64, 100
16, 47808, Note_off_c, 14, 64, 64
16, 47808, Note_on_c, 14, 64, 100
16, 47904, Note_off_c, 14, 64, 64
16, 47904, Note_on_c, 14, 64, 100
16, 48000, Note_off_c, 14, 64, 64
16, 48000, Note_on_c, 14, 64, 100
16, 48096, Note_off_c, 14, 64, 64
16, 48096, Note_on_c, 14, 64, 100
16, 48192, Note_off_c, 14, 64, 64
16, 48192, Note_on_c, 14, 64, 100
16, 48288, Note_off_c, 14, 64, 64
16, 48288, Note_on_c, 14, 64, 100
16, 48384, Note_off_c, 14, 64, 64
16, 48384, Note_on_c, 14, 66, 100
16, 48480, Note_off_c, 14, 66, 64
16, 48480, Note_on_c, 14, 66, 100
16, 48576, Note_off_c, 14, 66, 64
16, 48576, Note_on_c, 14, 66, 100
16, 48672, Note_off_c, 14, 66, 64
16, 48672, Note_on_c, 14, 66, 100
16, 48768, Note_off_c, 14, 66, 64
16, 48768, Note_on_c, 14, 66, 100
16, 48864, Note_off_c, 14, 66, 64
16, 48864, Note_on_c, 14, 66, 100
16, 48960, Note_off_c, 14, 66, 64
16, 48960, Note_on_c, 14, 66, 100
16, 49056, Note_off_c, 14, 66, 64
16, 49056, Note_on_c, 14, 66, 100
16, 49152, Note_off_c, 14, 66, 64
16, 49152, Note_on_c, 14, 66, 100
16, 49248, Note_off_c, 14, 66, 64
16, 49248, Note_on_c, 14, 66, 100
16, 49344, Note_off_c, 14, 66, 64
16, 49344, Note_on_c, 14, 66, 100
16, 49440, Note_off_c, 14, 66, 64
16, 49440, Note_on_c, 14, 66, 100
16, 49536, Note_off_c, 14, 66, 64
16, 49536, Note_on_c, 14, 66, 100
16, 49632, Note_off_c, 14, 66, 64
16, 49632, Note_on_c, 14, 66, 100
16, 49728, Note_off_c, 14, 66, 64
16, 49728, Note_on_c, 14, 66, 100
16, 49824, Note_off_c, 14, 66, 64
16, 49824, Note_on_c, 14, 66, 100
16, 49920, Note_off_c, 14, 66, 64
16, 50592, Control_c, 14, 101, 0
16, 50592, Control_c, 14, 100, 0
16, 50592, Control_c, 14, 6, 12
16, 50592, Control_c, 14, 10, 64
16, 50592, Control_c, 14, 7, 100
16, 50592, Pitch_bend_c, 14, 8192
16, 50592, Program_c, 14, 76
16, 50593, Control_c, 14, 101, 0
16, 50593, Control_c, 14, 100, 0
16, 50593, Control_c, 14, 6, 12
16, 50593, Control_c, 14, 10, 64
16, 50593, Control_c, 14, 7, 100
16, 50593, Pitch_bend_c, 14, 8192
16, 50593, Program_c, 14, 76
16, 50593, Control_c, 14, 101, 0
16, 50593, Control_c, 14, 100, 0
16, 50593, Control_c, 14, 6, 12
16, 50593, Control_c, 14, 10, 64
16, 50593, Control_c, 14, 7, 100
16, 50593, Pitch_bend_c, 14, 8192
16, 50593, Program_c, 14, 76
16, 50593, End_track
17, 0, Start_track
17, 0, Title_t, "MIDI out #14"
17, 0, Control_c, 0, 10, 64
17, 0, Control_c, 0, 7, 100
17, 0, Pitch_bend_c, 0, 8192
17, 0, Control_c, 0, 101, 0
17, 0, Control_c, 0, 100, 0
17, 0, Control_c, 0, 6, 12
17, 0, Control_c, 0, 10, 64
17, 0, Control_c, 0, 7, 100
17, 0, Pitch_bend_c, 0, 8192
17, 0, Program_c, 0, 40
17, 0, Control_c, 0, 101, 0
17, 0, Control_c, 0, 100, 0
17, 0, Control_c, 0, 6, 12
17, 0, Control_c, 0, 10, 64
17, 0, Control_c, 0, 7, 100
17, 0, Pitch_bend_c, 0, 8192
17, 0, Program_c, 0, 40
17, 0, Control_c, 0, 101, 0
17, 0, Control_c, 0, 100, 0
17, 0, Control_c, 0, 6, 12
17, 0, Control_c, 0, 10, 64
17, 0, Control_c, 0, 7, 100
17, 0, Pitch_bend_c, 0, 8192
17, 0, Program_c, 0, 40
17, 26496, Note_on_c, 0, 59, 100
17, 26496, Note_on_c, 0, 64, 100
17, 26520, Note_off_c, 0, 64, 64
17, 26520, Note_off_c, 0, 59, 64
17, 26544, Note_on_c, 0, 59, 100
17, 26544, Note_on_c, 0, 64, 100
17, 26568, Note_off_c, 0, 64, 64
17, 26568, Note_off_c, 0, 59, 64
17, 26592, Note_on_c, 0, 59, 100
17, 26592, Note_on_c, 0, 64, 100
17, 26640, Note_off_c, 0, 64, 64
17, 26640, Note_off_c, 0, 59, 64
17, 26688, Note_on_c, 0, 59, 100
17, 26688, Note_on_c, 0, 64, 100
17, 26712, Note_off_c, 0, 64, 64
17, 26712, Note_off_c, 0, 59, 64
17, 26736, Note_on_c, 0, 59, 100
17, 26736, Note_on_c, 0, 64, 100
17, 26760, Note_off_c, 0, 64, 64
17, 26760, Note_off_c, 0, 59, 64
17, 26784, Note_on_c, 0, 64, 100
17, 26784, Note_on_c, 0, 59, 100
17, 26808, Note_off_c, 0, 59, 64
17, 26808, Note_off_c, 0, 64, 64
17, 26832, Note_on_c, 0, 59, 100
17, 26832, Note_on_c, 0, 64, 100
17, 26856, Note_off_c, 0, 64, 64
17, 26856, Note_off_c, 0, 59, 64
17, 26880, Note_on_c, 0, 68, 100
17, 26880, Note_on_c, 0, 63, 100
17, 26904, Note_off_c, 0, 63, 64
17, 26904, Note_off_c, 0, 68, 64
17, 26928, Note_on_c, 0, 68, 100
17, 26928, Note_on_c, 0, 63, 100
17, 26952, Note_off_c, 0, 63, 64
17, 26952, Note_off_c, 0, 68, 64
17, 26976, Note_on_c, 0, 63, 100
17, 26976, Note_on_c, 0, 68, 100
17, 27024, Note_off_c, 0, 68, 64
17, 27024, Note_off_c, 0, 63, 64
17, 27072, Note_on_c, 0, 71, 100
17, 27072, Note_on_c, 0, 66, 100
17, 27096, Note_off_c, 0, 66, 64
17, 27096, Note_off_c, 0, 71, 64
17, 27120, Note_on_c, 0, 66, 100
17, 27120, Note_on_c, 0, 71, 100
17, 27144, Note_off_c, 0, 71, 64
17, 27144, Note_off_c, 0, 66, 64
17, 27168, Note_on_c, 0, 71, 100
17, 27168, Note_on_c, 0, 66, 100
17, 27192, Note_off_c, 0, 66, 64
17, 27192, Note_off_c, 0, 71, 64
17, 27216, Note_on_c, 0, 66, 100
17, 27216, Note_on_c, 0, 71, 100
17, 27240, Note_off_c, 0, 71, 64
17, 27240, Note_off_c, 0, 66, 64
17, 27264, Note_on_c, 0, 59, 100
17, 27264, Note_on_c, 0, 64, 100
17, 27288, Note_off_c, 0, 64, 64
17, 27288, Note_off_c, 0, 59, 64
17, 27312, Note_on_c, 0, 64, 100
17, 27312, Note_on_c, 0, 59, 100
17, 27336, Note_off_c, 0, 59, 64
17, 27336, Note_off_c, 0, 64, 64
17, 27360, Note_on_c, 0, 59, 100
17, 27360, Note_on_c, 0, 64, 100
17, 27408, Note_off_c, 0, 59, 64
17, 27408, Note_off_c, 0, 64, 64
17, 27456, Note_on_c, 0, 64, 100
17, 27456, Note_on_c, 0, 59, 100
17, 27480, Note_off_c, 0, 59, 64
17, 27480, Note_off_c, 0, 64, 64
17, 27504, Note_on_c, 0, 59, 100
17, 27504, Note_on_c, 0, 64, 100
17, 27528, Note_off_c, 0, 64, 64
17, 27528, Note_off_c, 0, 59, 64
17, 27552, Note_on_c, 0, 64, 100
17, 27552, Note_on_c, 0, 59, 100
17, 27576, Note_off_c, 0, 64, 64
17, 27576, Note_off_c, 0, 59, 64
17, 27600, Note_on_c, 0, 59, 100
17, 27600, Note_on_c, 0, 64, 100
17, 27624, Note_off_c, 0, 64, 64
17, 27624, Note_off_c, 0, 59, 64
17, 27648, Note_on_c, 0, 63, 100
17, 27648, Note_on_c, 0, 68, 100
17, 27672, Note_off_c, 0, 68, 64
17, 27672, Note_off_c, 0, 63, 64
17, 27696, Note_on_c, 0, 63, 100
17, 27696, Note_on_c, 0, 68, 100
17, 27720, Note_off_c, 0, 68, 64
17, 27720, Note_off_c, 0, 63, 64
17, 27744, Note_on_c, 0, 68, 100
17, 27744, Note_on_c, 0, 63, 100
17, 27792, Note_off_c, 0, 63, 64
17, 27792, Note_off_c, 0, 68, 64
17, 27840, Note_on_c, 0, 64, 100
17, 27840, Note_on_c, 0, 69, 100
17, 27864, Note_off_c, 0, 69, 64
17, 27864, Note_off_c, 0, 64, 64
17, 27888, Note_on_c, 0, 64, 100
17, 27888, Note_on_c, 0, 69, 100
17, 27912, Note_off_c, 0, 69, 64
17, 27912, Note_off_c, 0, 64, 64
17, 27936, Note_on_c, 0, 64, 100
17, 27936, Note_on_c, 0, 69, 100
17, 27960, Note_off_c, 0, 69, 64
17, 27960, Note_off_c, 0, 64, 64
17, 27984, Note_on_c, 0, 64, 100
17, 27984, Note_on_c, 0, 69, 100
17, 28008, Note_off_c, 0, 69, 64
17, 28008, Note_off_c, 0, 64, 64
17, 28032, Note_on_c, 0, 59, 100
17, 28032, Note_on_c, 0, 64, 100
17, 28056, Note_off_c, 0, 64, 64
17, 28056, Note_off_c, 0, 59, 64
17, 28080, Note_on_c, 0, 59, 100
17, 28080, Note_on_c, 0, 64, 100
17, 28104, Note_off_c, 0, 64, 64
17, 28104, Note_off_c, 0, 59, 64
17, 28128, Note_on_c, 0, 59, 100
17, 28128, Note_on_c, 0, 64, 100
17, 28176, Note_off_c, 0, 64, 64
17, 28176, Note_off_c, 0, 59, 64
17, 28224, Note_on_c, 0, 59, 100
17, 28224, Note_on_c, 0, 64, 100
17, 28248, Note_off_c, 0, 64, 64
17, 28248, Note_off_c, 0, 59, 64
17, 28272, Note_on_c, 0, 59, 100
17, 28272, Note_on_c, 0, 64, 100
17, 28296, Note_off_c, 0, 64, 64
17, 28296, Note_off_c, 0, 59, 64
17, 28320, Note_on_c, 0, 59, 100
17, 28320, Note_on_c, 0, 64, 100
17, 28344, Note_off_c, 0, 64, 64
17, 28344, Note_off_c, 0, 59, 64
17, 28368, Note_on_c, 0, 59, 100
17, 28368, Note_on_c, 0, 64, 100
17, 28392, Note_off_c, 0, 64, 64
17, 28392, Note_off_c, 0, 59, 64
17, 28416, Note_on_c, 0, 63, 100
17, 28416, Note_on_c, 0, 68, 100
17, 28440, Note_off_c, 0, 68, 64
17, 28440, Note_off_c, 0, 63, 64
17, 28464, Note_on_c, 0, 63, 100
17, 28464, Note_on_c, 0, 68, 100
17, 28488, Note_off_c, 0, 68, 64
17, 28488, Note_off_c, 0, 63, 64
17, 28512, Note_on_c, 0, 63, 100
17, 28512, Note_on_c, 0, 68, 100
17, 28560, Note_off_c, 0, 63, 64
17, 28584, Note_off_c, 0, 68, 64
17, 28608, Note_on_c, 0, 66, 100
17, 28608, Note_on_c, 0, 71, 100
17, 28632, Note_off_c, 0, 71, 64
17, 28632, Note_off_c, 0, 66, 64
17, 28656, Note_on_c, 0, 66, 100
17, 28656, Note_on_c, 0, 71, 100
17, 28680, Note_off_c, 0, 71, 64
17, 28680, Note_off_c, 0, 66, 64
17, 28704, Note_on_c, 0, 66, 100
17, 28704, Note_on_c, 0, 71, 100
17, 28728, Note_off_c, 0, 71, 64
17, 28728, Note_off_c, 0, 66, 64
17, 28752, Note_on_c, 0, 66, 100
17, 28752, Note_on_c, 0, 71, 100
17, 28776, Note_off_c, 0, 71, 64
17, 28776, Note_off_c, 0, 66, 64
17, 50592, Control_c, 0, 101, 0
17, 50592, Control_c, 0, 100, 0
17, 50592, Control_c, 0, 6, 12
17, 50592, Control_c, 0, 10, 64
17, 50592, Control_c, 0, 7, 100
17, 50592, Pitch_bend_c, 0, 8192
17, 50592, Program_c, 0, 40
17, 50593, Control_c, 0, 101, 0
17, 50593, Control_c, 0, 100, 0
17, 50593, Control_c, 0, 6, 12
17, 50593, Control_c, 0, 10, 64
17, 50593, Control_c, 0, 7, 100
17, 50593, Pitch_bend_c, 0, 8192
17, 50593, Program_c, 0, 40
17, 50593, Control_c, 0, 101, 0
17, 50593, Control_c, 0, 100, 0
17, 50593, Control_c, 0, 6, 12
17, 50593, Control_c, 0, 10, 64
17, 50593, Control_c, 0, 7, 100
17, 50593, Pitch_bend_c, 0, 8192
17, 50593, Program_c, 0, 40
17, 50593, End_track
0, 0, End_of_file
