0, 0, Header, 1, 7, 480
1, 0, Start_track
1, 0, Tempo, 750000
1, 0, Title_t, "Where Is My Mind ?"
1, 0, Time_signature, 4, 2, 11, 113
1, 0, Marker_t, "Intro"
1, 17280, Marker_t, "Verse 1"
1, 36480, Marker_t, "Bridge 1"
1, 48000, Marker_t, "Verse 2"
1, 67200, Marker_t, "Bridge 2"
1, 84480, Marker_t, "Verse 3"
1, 103680, Marker_t, "Bridge 3"
1, 115200, Marker_t, "End"
1, 115200, End_track
2, 0, Start_track
2, 0, Title_t, "Lead Voice"
2, 0, Control_c, 7, 100, 0
2, 0, Control_c, 7, 101, 0
2, 0, Control_c, 7, 6, 12
2, 0, Pitch_bend_c, 7, 8192
2, 0, Control_c, 7, 101, 0
2, 0, Control_c, 7, 100, 1
2, 0, Control_c, 7, 6, 64
2, 0, Control_c, 7, 38, 0
2, 0, Control_c, 7, 101, 127
2, 0, Control_c, 7, 100, 127
2, 0, Control_c, 6, 100, 0
2, 0, Control_c, 6, 101, 0
2, 0, Control_c, 6, 6, 12
2, 0, Pitch_bend_c, 6, 8192
2, 0, Control_c, 6, 101, 0
2, 0, Control_c, 6, 100, 1
2, 0, Control_c, 6, 6, 64
2, 0, Control_c, 6, 38, 0
2, 0, Control_c, 6, 101, 127
2, 0, Control_c, 6, 100, 127
2, 0, Control_c, 7, 101, 0
2, 0, Control_c, 7, 100, 2
2, 0, Control_c, 7, 6, 64
2, 0, Control_c, 7, 101, 127
2, 0, Control_c, 7, 100, 127
2, 0, Control_c, 6, 101, 0
2, 0, Control_c, 6, 100, 2
2, 0, Control_c, 6, 6, 64
2, 0, Control_c, 6, 101, 127
2, 0, Control_c, 6, 100, 127
2, 0, Program_c, 7, 29
2, 0, Program_c, 6, 29
2, 0, Control_c, 7, 0, 0
2, 0, Control_c, 6, 0, 0
2, 0, Control_c, 7, 7, 127
2, 0, Control_c, 6, 7, 127
2, 0, Control_c, 7, 10, 64
2, 0, Control_c, 6, 10, 64
2, 0, Control_c, 7, 93, 0
2, 0, Control_c, 6, 93, 0
2, 0, Control_c, 7, 91, 0
2, 0, Control_c, 6, 91, 0
2, 0, Control_c, 7, 92, 0
2, 0, Control_c, 6, 92, 0
2, 0, Control_c, 7, 95, 0
2, 0, Control_c, 6, 95, 0
2, 17520, Note_on_c, 6, 64, 95
2, 17640, Note_off_c, 6, 64, 80
2, 17640, Note_on_c, 6, 64, 95
2, 17760, Note_off_c, 6, 64, 80
2, 17760, Note_on_c, 6, 68, 95
2, 17880, Note_off_c, 6, 68, 80
2, 17880, Note_on_c, 6, 68, 95
2, 18120, Note_off_c, 6, 68, 80
2, 18120, Note_on_c, 6, 68, 95
2, 18240, Note_off_c, 6, 68, 80
2, 18240, Note_on_c, 6, 64, 95
2, 18480, Note_off_c, 6, 64, 80
2, 18480, Note_on_c, 6, 64, 95
2, 18600, Note_off_c, 6, 64, 80
2, 18600, Note_on_c, 6, 64, 95
2, 18720, Note_off_c, 6, 64, 80
2, 18720, Note_on_c, 6, 64, 95
2, 18840, Note_off_c, 6, 64, 80
2, 18840, Note_on_c, 6, 56, 95
2, 19080, Note_off_c, 6, 56, 80
2, 19080, Note_on_c, 6, 56, 95
2, 19200, Note_off_c, 6, 56, 80
2, 19200, Note_on_c, 6, 56, 95
2, 19680, Note_off_c, 6, 56, 80
2, 21600, Note_on_c, 6, 68, 95
2, 21840, Note_off_c, 6, 68, 80
2, 21840, Note_on_c, 6, 68, 95
2, 22320, Note_off_c, 6, 68, 80
2, 22320, Note_on_c, 6, 64, 95
2, 22800, Note_off_c, 6, 64, 80
2, 22800, Note_on_c, 6, 64, 95
2, 23040, Note_off_c, 6, 64, 80
2, 23040, Note_on_c, 6, 64, 95
2, 23160, Note_off_c, 6, 64, 80
2, 23160, Note_on_c, 6, 63, 95
2, 24120, Note_off_c, 6, 63, 80
2, 24120, Pitch_bend_c, 7, 8192
2, 24120, Note_on_c, 7, 56, 95
2, 24136, Pitch_bend_c, 7, 8448
2, 24152, Pitch_bend_c, 7, 8960
2, 24168, Pitch_bend_c, 7, 9856
2, 24184, Pitch_bend_c, 7, 11264
2, 24200, Pitch_bend_c, 7, 12928
2, 24216, Pitch_bend_c, 7, 14848
2, 24232, Pitch_bend_c, 7, 16000
2, 24264, Pitch_bend_c, 7, 14848
2, 24280, Pitch_bend_c, 7, 12928
2, 24296, Pitch_bend_c, 7, 11264
2, 24312, Pitch_bend_c, 7, 9856
2, 24328, Pitch_bend_c, 7, 8960
2, 24344, Pitch_bend_c, 7, 8448
2, 24360, Pitch_bend_c, 7, 8192
2, 24360, Pitch_bend_c, 7, 8192
2, 24360, Note_off_c, 7, 56, 80
2, 25320, Note_on_c, 6, 64, 95
2, 25440, Note_off_c, 6, 64, 80
2, 25440, Note_on_c, 6, 64, 95
2, 25560, Note_off_c, 6, 64, 80
2, 25560, Note_on_c, 6, 64, 95
2, 25680, Note_off_c, 6, 64, 80
2, 25680, Note_on_c, 6, 64, 95
2, 25800, Note_off_c, 6, 64, 80
2, 25800, Note_on_c, 6, 68, 95
2, 26520, Note_off_c, 6, 68, 80
2, 26640, Note_on_c, 6, 61, 95
2, 26760, Note_off_c, 6, 61, 80
2, 26760, Note_on_c, 6, 61, 95
2, 26880, Note_off_c, 6, 61, 80
2, 26880, Note_on_c, 6, 68, 95
2, 27000, Note_off_c, 6, 68, 80
2, 27000, Note_on_c, 6, 66, 95
2, 27120, Note_off_c, 6, 66, 80
2, 27120, Note_on_c, 6, 64, 95
2, 27240, Note_off_c, 6, 64, 80
2, 27240, Note_on_c, 6, 61, 95
2, 27480, Note_off_c, 6, 61, 80
2, 27480, Note_on_c, 6, 61, 95
2, 27600, Note_off_c, 6, 61, 80
2, 27600, Note_on_c, 6, 61, 95
2, 27720, Note_off_c, 6, 61, 80
2, 27720, Note_on_c, 6, 68, 95
2, 27960, Note_off_c, 6, 68, 80
2, 27960, Note_on_c, 6, 66, 95
2, 28080, Note_off_c, 6, 66, 80
2, 28080, Note_on_c, 6, 64, 95
2, 28680, Note_off_c, 6, 64, 80
2, 29040, Note_on_c, 6, 56, 95
2, 29280, Note_off_c, 6, 56, 80
2, 29280, Note_on_c, 6, 56, 95
2, 29400, Note_off_c, 6, 56, 80
2, 29400, Note_on_c, 6, 56, 95
2, 29640, Note_off_c, 6, 56, 80
2, 29640, Note_on_c, 6, 49, 95
2, 30600, Note_off_c, 6, 49, 80
2, 30960, Note_on_c, 6, 56, 95
2, 31200, Note_off_c, 6, 56, 80
2, 31200, Note_on_c, 6, 56, 95
2, 31320, Note_off_c, 6, 56, 80
2, 31320, Note_on_c, 6, 56, 95
2, 31800, Note_off_c, 6, 56, 80
2, 31800, Note_on_c, 6, 49, 95
2, 32280, Note_off_c, 6, 49, 80
2, 32280, Note_on_c, 6, 57, 95
2, 32640, Note_off_c, 6, 57, 80
2, 32640, Note_on_c, 6, 56, 95
2, 33000, Note_off_c, 6, 56, 80
2, 33000, Note_on_c, 7, 56, 95
2, 33000, Pitch_bend_c, 7, 6144
2, 33040, Pitch_bend_c, 7, 6784
2, 33080, Pitch_bend_c, 7, 7552
2, 33120, Pitch_bend_c, 7, 8192
2, 33480, Note_off_c, 7, 56, 80
2, 33480, Note_on_c, 6, 49, 95
2, 34440, Note_off_c, 6, 49, 80
2, 40800, Note_on_c, 6, 57, 79
2, 41160, Note_off_c, 6, 57, 80
2, 41160, Note_on_c, 6, 56, 79
2, 41520, Note_off_c, 6, 56, 80
2, 41520, Note_on_c, 6, 54, 95
2, 42000, Note_off_c, 6, 54, 80
2, 42000, Note_on_c, 6, 54, 95
2, 42120, Note_off_c, 6, 54, 80
2, 42120, Note_on_c, 6, 56, 95
2, 42240, Note_off_c, 6, 56, 80
2, 42240, Note_on_c, 6, 54, 95
2, 42360, Note_off_c, 6, 54, 80
2, 42360, Note_on_c, 6, 52, 95
2, 42720, Note_off_c, 6, 52, 80
2, 42720, Note_on_c, 6, 54, 95
2, 42840, Note_off_c, 6, 54, 80
2, 42840, Note_on_c, 6, 56, 95
2, 43080, Note_off_c, 6, 56, 80
2, 43080, Note_on_c, 6, 52, 95
2, 43200, Note_off_c, 6, 52, 80
2, 43200, Note_on_c, 6, 52, 95
2, 43680, Note_off_c, 6, 52, 80
2, 48480, Note_on_c, 6, 64, 95
2, 48600, Note_off_c, 6, 64, 80
2, 48600, Note_on_c, 6, 68, 95
2, 48960, Note_off_c, 6, 68, 80
2, 48960, Note_on_c, 6, 64, 95
2, 49080, Note_off_c, 6, 64, 80
2, 49080, Note_on_c, 6, 64, 95
2, 49320, Note_off_c, 6, 64, 80
2, 49320, Note_on_c, 6, 64, 95
2, 49440, Note_off_c, 6, 64, 80
2, 49440, Note_on_c, 6, 64, 95
2, 49560, Note_off_c, 6, 64, 80
2, 49560, Note_on_c, 6, 56, 95
2, 49680, Note_off_c, 6, 56, 80
2, 49680, Note_on_c, 6, 57, 95
2, 49800, Note_off_c, 6, 57, 80
2, 49800, Note_on_c, 6, 56, 95
2, 50400, Note_off_c, 6, 56, 80
2, 52001, Note_on_c, 7, 68, 95
2, 52001, Pitch_bend_c, 7, 6144
2, 52027, Pitch_bend_c, 7, 6784
2, 52054, Pitch_bend_c, 7, 7552
2, 52080, Pitch_bend_c, 7, 8192
2, 52200, Note_off_c, 7, 68, 80
2, 52200, Note_on_c, 6, 68, 95
2, 52320, Note_off_c, 6, 68, 80
2, 52320, Note_on_c, 6, 68, 95
2, 52560, Note_off_c, 6, 68, 80
2, 52560, Note_on_c, 6, 68, 95
2, 52680, Note_off_c, 6, 68, 80
2, 52680, Note_on_c, 6, 64, 95
2, 52920, Note_off_c, 6, 64, 80
2, 52920, Note_on_c, 6, 64, 95
2, 53160, Note_off_c, 6, 64, 80
2, 53160, Note_on_c, 6, 64, 95
2, 53400, Note_off_c, 6, 64, 80
2, 53400, Note_on_c, 6, 64, 95
2, 53640, Note_off_c, 6, 64, 80
2, 53640, Note_on_c, 6, 63, 95
2, 54000, Note_off_c, 6, 63, 80
2, 56040, Note_on_c, 6, 64, 95
2, 56220, Note_off_c, 6, 64, 80
2, 56220, Note_on_c, 6, 64, 95
2, 56340, Note_off_c, 6, 64, 80
2, 56340, Note_on_c, 6, 64, 95
2, 56430, Note_off_c, 6, 64, 80
2, 56430, Note_on_c, 6, 64, 95
2, 56520, Note_off_c, 6, 64, 80
2, 56520, Note_on_c, 6, 64, 95
2, 56640, Note_off_c, 6, 64, 80
2, 56640, Note_on_c, 6, 68, 95
2, 57120, Note_off_c, 6, 68, 80
2, 57360, Note_on_c, 6, 61, 95
2, 57480, Note_off_c, 6, 61, 80
2, 57480, Note_on_c, 6, 61, 95
2, 57600, Note_off_c, 6, 61, 80
2, 57600, Note_on_c, 6, 66, 95
2, 57720, Note_off_c, 6, 66, 80
2, 57720, Note_on_c, 6, 64, 95
2, 57840, Note_off_c, 6, 64, 80
2, 57840, Note_on_c, 6, 64, 95
2, 57960, Note_off_c, 6, 64, 80
2, 57960, Note_on_c, 6, 61, 95
2, 58200, Note_off_c, 6, 61, 80
2, 58200, Note_on_c, 6, 61, 95
2, 58320, Note_off_c, 6, 61, 80
2, 58320, Note_on_c, 6, 61, 95
2, 58440, Note_off_c, 6, 61, 80
2, 58440, Note_on_c, 6, 68, 95
2, 58680, Note_off_c, 6, 68, 80
2, 58680, Note_on_c, 6, 64, 95
2, 58770, Note_off_c, 6, 64, 80
2, 58770, Note_on_c, 6, 64, 95
2, 58860, Note_off_c, 6, 64, 80
2, 58860, Note_on_c, 6, 64, 95
2, 58950, Note_off_c, 6, 64, 80
2, 58950, Note_on_c, 6, 64, 95
2, 59040, Note_off_c, 6, 64, 80
2, 59040, Note_on_c, 6, 64, 95
2, 59130, Note_off_c, 6, 64, 80
2, 59130, Note_on_c, 6, 64, 95
2, 59460, Note_off_c, 6, 64, 80
2, 59760, Note_on_c, 6, 56, 95
2, 60000, Note_off_c, 6, 56, 80
2, 60000, Note_on_c, 6, 56, 95
2, 60120, Note_off_c, 6, 56, 80
2, 60120, Note_on_c, 6, 56, 95
2, 60360, Note_off_c, 6, 56, 80
2, 60360, Note_on_c, 6, 49, 95
2, 61320, Note_off_c, 6, 49, 80
2, 61680, Note_on_c, 6, 56, 95
2, 61920, Note_off_c, 6, 56, 80
2, 61920, Note_on_c, 6, 56, 95
2, 62040, Note_off_c, 6, 56, 80
2, 62040, Note_on_c, 6, 56, 95
2, 62520, Note_off_c, 6, 56, 80
2, 62520, Note_on_c, 6, 49, 95
2, 63000, Note_off_c, 6, 49, 80
2, 63000, Note_on_c, 6, 57, 95
2, 63360, Note_off_c, 6, 57, 80
2, 63360, Note_on_c, 6, 56, 95
2, 63720, Note_off_c, 6, 56, 80
2, 63720, Note_on_c, 7, 56, 95
2, 63720, Pitch_bend_c, 7, 6144
2, 63760, Pitch_bend_c, 7, 6784
2, 63800, Pitch_bend_c, 7, 7552
2, 63840, Pitch_bend_c, 7, 8192
2, 64200, Note_off_c, 7, 56, 80
2, 64200, Note_on_c, 6, 49, 95
2, 65160, Note_off_c, 6, 49, 80
2, 71520, Note_on_c, 6, 57, 63
2, 71880, Note_off_c, 6, 57, 80
2, 71880, Note_on_c, 6, 56, 79
2, 72240, Note_off_c, 6, 56, 80
2, 72240, Note_on_c, 6, 54, 95
2, 72720, Note_off_c, 6, 54, 80
2, 72720, Note_on_c, 6, 54, 95
2, 72840, Note_off_c, 6, 54, 80
2, 72840, Note_on_c, 6, 56, 95
2, 72960, Note_off_c, 6, 56, 80
2, 72960, Note_on_c, 6, 54, 95
2, 73080, Note_off_c, 6, 54, 80
2, 73080, Note_on_c, 6, 52, 95
2, 73440, Note_off_c, 6, 52, 80
2, 73440, Note_on_c, 6, 54, 95
2, 73560, Note_off_c, 6, 54, 80
2, 73560, Note_on_c, 6, 56, 95
2, 73800, Note_off_c, 6, 56, 80
2, 73800, Note_on_c, 6, 52, 95
2, 73920, Note_off_c, 6, 52, 80
2, 73920, Note_on_c, 6, 52, 95
2, 74400, Note_off_c, 6, 52, 80
2, 84720, Note_on_c, 6, 64, 95
2, 84840, Note_off_c, 6, 64, 80
2, 84840, Note_on_c, 6, 64, 95
2, 84960, Note_off_c, 6, 64, 80
2, 84960, Note_on_c, 6, 68, 95
2, 85080, Note_off_c, 6, 68, 80
2, 85080, Note_on_c, 6, 68, 95
2, 85320, Note_off_c, 6, 68, 80
2, 85320, Note_on_c, 6, 68, 95
2, 85440, Note_off_c, 6, 68, 80
2, 85440, Note_on_c, 6, 64, 95
2, 85680, Note_off_c, 6, 64, 80
2, 85680, Note_on_c, 6, 64, 95
2, 85800, Note_off_c, 6, 64, 80
2, 85800, Note_on_c, 6, 64, 95
2, 85920, Note_off_c, 6, 64, 80
2, 85920, Note_on_c, 6, 64, 95
2, 86040, Note_off_c, 6, 64, 80
2, 86040, Note_on_c, 6, 56, 95
2, 86280, Note_off_c, 6, 56, 80
2, 86280, Note_on_c, 6, 56, 95
2, 86400, Note_off_c, 6, 56, 80
2, 86400, Note_on_c, 6, 56, 95
2, 86880, Note_off_c, 6, 56, 80
2, 88800, Note_on_c, 6, 68, 95
2, 89040, Note_off_c, 6, 68, 80
2, 89040, Note_on_c, 6, 68, 95
2, 89520, Note_off_c, 6, 68, 80
2, 89520, Note_on_c, 6, 64, 95
2, 90000, Note_off_c, 6, 64, 80
2, 90000, Note_on_c, 6, 64, 95
2, 90240, Note_off_c, 6, 64, 80
2, 90240, Note_on_c, 6, 64, 95
2, 90360, Note_off_c, 6, 64, 80
2, 90360, Note_on_c, 6, 63, 95
2, 91320, Note_off_c, 6, 63, 80
2, 92520, Note_on_c, 6, 64, 95
2, 92640, Note_off_c, 6, 64, 80
2, 92640, Note_on_c, 6, 64, 95
2, 92760, Note_off_c, 6, 64, 80
2, 92760, Note_on_c, 6, 64, 95
2, 92880, Note_off_c, 6, 64, 80
2, 92880, Note_on_c, 6, 64, 95
2, 93000, Note_off_c, 6, 64, 80
2, 93000, Note_on_c, 6, 68, 95
2, 93720, Note_off_c, 6, 68, 80
2, 93840, Note_on_c, 6, 61, 95
2, 93960, Note_off_c, 6, 61, 80
2, 93960, Note_on_c, 6, 61, 95
2, 94080, Note_off_c, 6, 61, 80
2, 94080, Note_on_c, 6, 68, 95
2, 94200, Note_off_c, 6, 68, 80
2, 94200, Note_on_c, 6, 66, 95
2, 94320, Note_off_c, 6, 66, 80
2, 94320, Note_on_c, 6, 64, 95
2, 94440, Note_off_c, 6, 64, 80
2, 94440, Note_on_c, 6, 61, 95
2, 94680, Note_off_c, 6, 61, 80
2, 94680, Note_on_c, 6, 61, 95
2, 94800, Note_off_c, 6, 61, 80
2, 94800, Note_on_c, 6, 61, 95
2, 94920, Note_off_c, 6, 61, 80
2, 94920, Note_on_c, 6, 68, 95
2, 95160, Note_off_c, 6, 68, 80
2, 95160, Note_on_c, 6, 66, 95
2, 95280, Note_off_c, 6, 66, 80
2, 95280, Note_on_c, 6, 64, 95
2, 95880, Note_off_c, 6, 64, 80
2, 96240, Note_on_c, 6, 56, 95
2, 96480, Note_off_c, 6, 56, 80
2, 96480, Note_on_c, 6, 56, 95
2, 96600, Note_off_c, 6, 56, 80
2, 96600, Note_on_c, 6, 56, 95
2, 96840, Note_off_c, 6, 56, 80
2, 96840, Note_on_c, 6, 49, 95
2, 97800, Note_off_c, 6, 49, 80
2, 98160, Note_on_c, 6, 56, 95
2, 98400, Note_off_c, 6, 56, 80
2, 98400, Note_on_c, 6, 56, 95
2, 98520, Note_off_c, 6, 56, 80
2, 98520, Note_on_c, 6, 56, 95
2, 99000, Note_off_c, 6, 56, 80
2, 99000, Note_on_c, 6, 49, 95
2, 99480, Note_off_c, 6, 49, 80
2, 99480, Note_on_c, 6, 57, 95
2, 99840, Note_off_c, 6, 57, 80
2, 99840, Note_on_c, 6, 56, 95
2, 100200, Note_off_c, 6, 56, 80
2, 100200, Note_on_c, 7, 56, 95
2, 100200, Pitch_bend_c, 7, 6144
2, 100240, Pitch_bend_c, 7, 6784
2, 100280, Pitch_bend_c, 7, 7552
2, 100320, Pitch_bend_c, 7, 8192
2, 100680, Note_off_c, 7, 56, 80
2, 100680, Note_on_c, 6, 49, 95
2, 101640, Note_off_c, 6, 49, 80
2, 108000, Note_on_c, 6, 57, 95
2, 108360, Note_off_c, 6, 57, 80
2, 108360, Note_on_c, 6, 56, 95
2, 108720, Note_off_c, 6, 56, 80
2, 108720, Note_on_c, 6, 54, 95
2, 109200, Note_off_c, 6, 54, 80
2, 109200, Note_on_c, 6, 54, 95
2, 109320, Note_off_c, 6, 54, 80
2, 109320, Note_on_c, 6, 56, 95
2, 109440, Note_off_c, 6, 56, 80
2, 109440, Note_on_c, 6, 54, 95
2, 109560, Note_off_c, 6, 54, 80
2, 109560, Note_on_c, 6, 52, 95
2, 109920, Note_off_c, 6, 52, 80
2, 109920, Note_on_c, 6, 54, 95
2, 110040, Note_off_c, 6, 54, 80
2, 110040, Note_on_c, 6, 56, 95
2, 110280, Note_off_c, 6, 56, 80
2, 110280, Note_on_c, 6, 52, 95
2, 110400, Note_off_c, 6, 52, 80
2, 110400, Note_on_c, 6, 52, 95
2, 110880, Note_off_c, 6, 52, 80
2, 119280, Note_on_c, 6, 64, 79
2, 119400, Note_off_c, 6, 64, 80
2, 119400, Note_on_c, 6, 64, 79
2, 119520, Note_off_c, 6, 64, 80
2, 119520, Note_on_c, 6, 68, 79
2, 119640, Note_off_c, 6, 68, 80
2, 119640, Note_on_c, 6, 68, 79
2, 119880, Note_off_c, 6, 68, 80
2, 119880, Note_on_c, 6, 68, 79
2, 120000, Note_off_c, 6, 68, 80
2, 120000, Note_on_c, 6, 64, 79
2, 120240, Note_off_c, 6, 64, 80
2, 120240, Note_on_c, 6, 64, 79
2, 120360, Note_off_c, 6, 64, 80
2, 120360, Note_on_c, 6, 64, 79
2, 120480, Note_off_c, 6, 64, 80
2, 120480, Note_on_c, 6, 64, 79
2, 120600, Note_off_c, 6, 64, 80
2, 120600, Note_on_c, 6, 56, 79
2, 120840, Note_off_c, 6, 56, 80
2, 120840, Note_on_c, 6, 56, 79
2, 120960, Note_off_c, 6, 56, 80
2, 120960, Note_on_c, 6, 56, 79
2, 121440, Note_off_c, 6, 56, 80
2, 123360, Note_on_c, 6, 68, 79
2, 123600, Note_off_c, 6, 68, 80
2, 123600, Note_on_c, 6, 68, 79
2, 124080, Note_off_c, 6, 68, 80
2, 124080, Note_on_c, 6, 64, 79
2, 124560, Note_off_c, 6, 64, 80
2, 124560, Note_on_c, 6, 64, 79
2, 124800, Note_off_c, 6, 64, 80
2, 124800, Note_on_c, 6, 64, 79
2, 124920, Note_off_c, 6, 64, 80
2, 124920, Note_on_c, 6, 63, 79
2, 125880, Note_off_c, 6, 63, 80
2, 125880, End_track
3, 0, Start_track
3, 0, Title_t, "Acoustic"
3, 0, Control_c, 1, 100, 0
3, 0, Control_c, 1, 101, 0
3, 0, Control_c, 1, 6, 12
3, 0, Pitch_bend_c, 1, 8192
3, 0, Control_c, 1, 101, 0
3, 0, Control_c, 1, 100, 1
3, 0, Control_c, 1, 6, 64
3, 0, Control_c, 1, 38, 0
3, 0, Control_c, 1, 101, 127
3, 0, Control_c, 1, 100, 127
3, 0, Control_c, 0, 100, 0
3, 0, Control_c, 0, 101, 0
3, 0, Control_c, 0, 6, 12
3, 0, Pitch_bend_c, 0, 8192
3, 0, Control_c, 0, 101, 0
3, 0, Control_c, 0, 100, 1
3, 0, Control_c, 0, 6, 64
3, 0, Control_c, 0, 38, 0
3, 0, Control_c, 0, 101, 127
3, 0, Control_c, 0, 100, 127
3, 0, Control_c, 1, 101, 0
3, 0, Control_c, 1, 100, 2
3, 0, Control_c, 1, 6, 64
3, 0, Control_c, 1, 101, 127
3, 0, Control_c, 1, 100, 127
3, 0, Control_c, 0, 101, 0
3, 0, Control_c, 0, 100, 2
3, 0, Control_c, 0, 6, 64
3, 0, Control_c, 0, 101, 127
3, 0, Control_c, 0, 100, 127
3, 0, Program_c, 1, 25
3, 0, Program_c, 0, 25
3, 0, Control_c, 1, 0, 0
3, 0, Control_c, 0, 0, 0
3, 0, Control_c, 1, 7, 80
3, 0, Control_c, 0, 7, 80
3, 0, Control_c, 1, 10, 80
3, 0, Control_c, 0, 10, 80
3, 0, Control_c, 1, 93, 32
3, 0, Control_c, 0, 93, 32
3, 0, Control_c, 1, 91, 16
3, 0, Control_c, 0, 91, 16
3, 0, Control_c, 1, 92, 0
3, 0, Control_c, 0, 92, 0
3, 0, Control_c, 1, 95, 0
3, 0, Control_c, 0, 95, 0
3, 1800, Note_on_c, 0, 64, 95
3, 1800, Note_on_c, 0, 59, 95
3, 1800, Note_on_c, 0, 56, 95
3, 1800, Note_on_c, 0, 52, 95
3, 1800, Note_on_c, 0, 47, 95
3, 1800, Note_on_c, 0, 40, 95
3, 1920, Note_off_c, 0, 64, 80
3, 1920, Note_off_c, 0, 59, 80
3, 1920, Note_off_c, 0, 56, 80
3, 1920, Note_off_c, 0, 52, 80
3, 1920, Note_off_c, 0, 47, 80
3, 1920, Note_off_c, 0, 40, 80
3, 1920, Note_on_c, 0, 64, 95
3, 1920, Note_on_c, 0, 59, 95
3, 1920, Note_on_c, 0, 56, 95
3, 1920, Note_on_c, 0, 52, 95
3, 1920, Note_on_c, 0, 47, 95
3, 1920, Note_on_c, 0, 40, 95
3, 2160, Note_off_c, 0, 64, 80
3, 2160, Note_off_c, 0, 59, 80
3, 2160, Note_off_c, 0, 56, 80
3, 2160, Note_off_c, 0, 52, 80
3, 2160, Note_off_c, 0, 47, 80
3, 2160, Note_off_c, 0, 40, 80
3, 2160, Note_on_c, 0, 64, 95
3, 2160, Note_on_c, 0, 59, 95
3, 2160, Note_on_c, 0, 56, 95
3, 2160, Note_on_c, 0, 52, 95
3, 2160, Note_on_c, 0, 47, 95
3, 2160, Note_on_c, 0, 40, 95
3, 2180, Note_off_c, 0, 64, 80
3, 2180, Note_off_c, 0, 59, 80
3, 2400, Note_off_c, 0, 56, 80
3, 2400, Note_off_c, 0, 52, 80
3, 2400, Note_off_c, 0, 47, 80
3, 2400, Note_off_c, 0, 40, 80
3, 2400, Note_on_c, 0, 64, 95
3, 2400, Note_on_c, 0, 59, 95
3, 2400, Note_on_c, 0, 56, 95
3, 2400, Note_on_c, 0, 52, 95
3, 2400, Note_on_c, 0, 47, 95
3, 2400, Note_on_c, 0, 40, 95
3, 2640, Note_off_c, 0, 64, 80
3, 2640, Note_off_c, 0, 59, 80
3, 2640, Note_off_c, 0, 56, 80
3, 2640, Note_off_c, 0, 52, 80
3, 2640, Note_off_c, 0, 47, 80
3, 2640, Note_off_c, 0, 40, 80
3, 2640, Note_on_c, 0, 64, 95
3, 2640, Note_on_c, 0, 59, 95
3, 2640, Note_on_c, 0, 56, 95
3, 2640, Note_on_c, 0, 52, 95
3, 2640, Note_on_c, 0, 47, 95
3, 2640, Note_on_c, 0, 40, 95
3, 2760, Note_off_c, 0, 64, 80
3, 2760, Note_off_c, 0, 59, 80
3, 2760, Note_off_c, 0, 56, 80
3, 2760, Note_off_c, 0, 52, 80
3, 2760, Note_off_c, 0, 47, 80
3, 2760, Note_off_c, 0, 40, 80
3, 2760, Note_on_c, 0, 55, 95
3, 2760, Note_on_c, 0, 50, 95
3, 2760, Note_on_c, 0, 45, 95
3, 2880, Note_off_c, 0, 55, 80
3, 2880, Note_off_c, 0, 50, 80
3, 2880, Note_off_c, 0, 45, 80
3, 2880, Note_on_c, 0, 68, 95
3, 2880, Note_on_c, 0, 64, 95
3, 2880, Note_on_c, 0, 61, 95
3, 2880, Note_on_c, 0, 56, 95
3, 2880, Note_on_c, 0, 49, 95
3, 2880, Note_on_c, 0, 44, 95
3, 3120, Note_off_c, 0, 68, 80
3, 3120, Note_off_c, 0, 64, 80
3, 3120, Note_off_c, 0, 61, 80
3, 3120, Note_off_c, 0, 56, 80
3, 3120, Note_off_c, 0, 49, 80
3, 3120, Note_off_c, 0, 44, 80
3, 3120, Note_on_c, 0, 68, 95
3, 3120, Note_on_c, 0, 64, 95
3, 3120, Note_on_c, 0, 61, 95
3, 3120, Note_on_c, 0, 56, 95
3, 3120, Note_on_c, 0, 49, 95
3, 3120, Note_on_c, 0, 44, 95
3, 3140, Note_off_c, 0, 68, 80
3, 3360, Note_off_c, 0, 64, 80
3, 3360, Note_off_c, 0, 61, 80
3, 3360, Note_off_c, 0, 56, 80
3, 3360, Note_off_c, 0, 49, 80
3, 3360, Note_off_c, 0, 44, 80
3, 3360, Note_on_c, 0, 68, 95
3, 3360, Note_on_c, 0, 64, 95
3, 3360, Note_on_c, 0, 61, 95
3, 3360, Note_on_c, 0, 56, 95
3, 3360, Note_on_c, 0, 49, 95
3, 3360, Note_on_c, 0, 44, 95
3, 3600, Note_off_c, 0, 68, 80
3, 3600, Note_off_c, 0, 64, 80
3, 3600, Note_off_c, 0, 61, 80
3, 3600, Note_off_c, 0, 56, 80
3, 3600, Note_off_c, 0, 49, 80
3, 3600, Note_off_c, 0, 44, 80
3, 3600, Note_on_c, 0, 68, 95
3, 3600, Note_on_c, 0, 64, 95
3, 3600, Note_on_c, 0, 61, 95
3, 3600, Note_on_c, 0, 56, 95
3, 3600, Note_on_c, 0, 49, 95
3, 3600, Note_on_c, 0, 44, 95
3, 3720, Note_off_c, 0, 68, 80
3, 3720, Note_off_c, 0, 64, 80
3, 3720, Note_off_c, 0, 61, 80
3, 3720, Note_off_c, 0, 56, 80
3, 3720, Note_off_c, 0, 49, 80
3, 3720, Note_off_c, 0, 44, 80
3, 3720, Note_on_c, 0, 50, 95
3, 3720, Note_on_c, 0, 45, 95
3, 3720, Note_on_c, 0, 40, 95
3, 3840, Note_off_c, 0, 50, 80
3, 3840, Note_off_c, 0, 45, 80
3, 3840, Note_off_c, 0, 40, 80
3, 3840, Note_on_c, 0, 68, 95
3, 3840, Note_on_c, 0, 63, 95
3, 3840, Note_on_c, 0, 60, 95
3, 3840, Note_on_c, 0, 56, 95
3, 3840, Note_on_c, 0, 51, 95
3, 3840, Note_on_c, 0, 44, 95
3, 4080, Note_off_c, 0, 68, 80
3, 4080, Note_off_c, 0, 63, 80
3, 4080, Note_off_c, 0, 60, 80
3, 4080, Note_off_c, 0, 56, 80
3, 4080, Note_off_c, 0, 51, 80
3, 4080, Note_off_c, 0, 44, 80
3, 4080, Note_on_c, 0, 68, 95
3, 4080, Note_on_c, 0, 63, 95
3, 4080, Note_on_c, 0, 60, 95
3, 4080, Note_on_c, 0, 56, 95
3, 4080, Note_on_c, 0, 51, 95
3, 4080, Note_on_c, 0, 44, 95
3, 4100, Note_off_c, 0, 68, 80
3, 4320, Note_off_c, 0, 63, 80
3, 4320, Note_off_c, 0, 60, 80
3, 4320, Note_off_c, 0, 56, 80
3, 4320, Note_off_c, 0, 51, 80
3, 4320, Note_off_c, 0, 44, 80
3, 4320, Note_on_c, 0, 68, 95
3, 4320, Note_on_c, 0, 63, 95
3, 4320, Note_on_c, 0, 60, 95
3, 4320, Note_on_c, 0, 56, 95
3, 4320, Note_on_c, 0, 51, 95
3, 4320, Note_on_c, 0, 44, 95
3, 4560, Note_off_c, 0, 68, 80
3, 4560, Note_off_c, 0, 63, 80
3, 4560, Note_off_c, 0, 60, 80
3, 4560, Note_off_c, 0, 56, 80
3, 4560, Note_off_c, 0, 51, 80
3, 4560, Note_off_c, 0, 44, 80
3, 4560, Note_on_c, 1, 68, 95
3, 4560, Note_on_c, 1, 63, 95
3, 4560, Note_on_c, 1, 60, 95
3, 4560, Note_on_c, 1, 56, 95
3, 4560, Note_on_c, 1, 51, 95
3, 4560, Note_on_c, 1, 44, 95
3, 4656, Pitch_bend_c, 1, 8832
3, 4656, Pitch_bend_c, 1, 8832
3, 4656, Pitch_bend_c, 1, 8832
3, 4656, Pitch_bend_c, 1, 8832
3, 4656, Pitch_bend_c, 1, 8832
3, 4656, Pitch_bend_c, 1, 8832
3, 4680, Note_off_c, 1, 68, 80
3, 4680, Pitch_bend_c, 1, 8192
3, 4680, Note_off_c, 1, 63, 80
3, 4680, Pitch_bend_c, 1, 8192
3, 4680, Note_off_c, 1, 60, 80
3, 4680, Pitch_bend_c, 1, 8192
3, 4680, Note_off_c, 1, 56, 80
3, 4680, Pitch_bend_c, 1, 8192
3, 4680, Note_off_c, 1, 51, 80
3, 4680, Pitch_bend_c, 1, 8192
3, 4680, Note_off_c, 1, 44, 80
3, 4680, Pitch_bend_c, 1, 8192
3, 4680, Note_on_c, 0, 69, 76
3, 4680, Note_on_c, 0, 64, 76
3, 4680, Note_on_c, 0, 61, 76
3, 4680, Note_on_c, 0, 57, 76
3, 4680, Note_on_c, 0, 52, 76
3, 4680, Note_on_c, 0, 45, 76
3, 4800, Note_off_c, 0, 69, 80
3, 4800, Note_off_c, 0, 64, 80
3, 4800, Note_off_c, 0, 61, 80
3, 4800, Note_off_c, 0, 57, 80
3, 4800, Note_off_c, 0, 52, 80
3, 4800, Note_off_c, 0, 45, 80
3, 4800, Note_on_c, 0, 69, 95
3, 4800, Note_on_c, 0, 64, 95
3, 4800, Note_on_c, 0, 61, 95
3, 4800, Note_on_c, 0, 57, 95
3, 4800, Note_on_c, 0, 52, 95
3, 4800, Note_on_c, 0, 45, 95
3, 4920, Note_off_c, 0, 69, 80
3, 4920, Note_off_c, 0, 64, 80
3, 4920, Note_off_c, 0, 61, 80
3, 4920, Note_off_c, 0, 57, 80
3, 4920, Note_off_c, 0, 52, 80
3, 4920, Note_off_c, 0, 45, 80
3, 4920, Note_on_c, 0, 69, 95
3, 4920, Note_on_c, 0, 64, 95
3, 4920, Note_on_c, 0, 61, 95
3, 4920, Note_on_c, 0, 57, 95
3, 4920, Note_on_c, 0, 52, 95
3, 4920, Note_on_c, 0, 45, 95
3, 5040, Note_off_c, 0, 69, 80
3, 5040, Note_off_c, 0, 64, 80
3, 5040, Note_off_c, 0, 61, 80
3, 5040, Note_off_c, 0, 57, 80
3, 5040, Note_off_c, 0, 52, 80
3, 5040, Note_off_c, 0, 45, 80
3, 5040, Note_on_c, 0, 69, 95
3, 5040, Note_on_c, 0, 64, 95
3, 5040, Note_on_c, 0, 61, 95
3, 5040, Note_on_c, 0, 57, 95
3, 5040, Note_on_c, 0, 52, 95
3, 5040, Note_on_c, 0, 45, 95
3, 5160, Note_off_c, 0, 69, 80
3, 5160, Note_off_c, 0, 64, 80
3, 5160, Note_off_c, 0, 61, 80
3, 5160, Note_off_c, 0, 57, 80
3, 5160, Note_off_c, 0, 52, 80
3, 5160, Note_off_c, 0, 45, 80
3, 5160, Note_on_c, 1, 68, 95
3, 5160, Note_on_c, 1, 63, 95
3, 5160, Note_on_c, 1, 60, 95
3, 5160, Note_on_c, 1, 56, 95
3, 5160, Note_on_c, 1, 51, 95
3, 5160, Note_on_c, 1, 44, 95
3, 5256, Pitch_bend_c, 1, 8832
3, 5256, Pitch_bend_c, 1, 8832
3, 5256, Pitch_bend_c, 1, 8832
3, 5256, Pitch_bend_c, 1, 8832
3, 5256, Pitch_bend_c, 1, 8832
3, 5256, Pitch_bend_c, 1, 8832
3, 5280, Note_off_c, 1, 68, 80
3, 5280, Pitch_bend_c, 1, 8192
3, 5280, Note_off_c, 1, 63, 80
3, 5280, Pitch_bend_c, 1, 8192
3, 5280, Note_off_c, 1, 60, 80
3, 5280, Pitch_bend_c, 1, 8192
3, 5280, Note_off_c, 1, 56, 80
3, 5280, Pitch_bend_c, 1, 8192
3, 5280, Note_off_c, 1, 51, 80
3, 5280, Pitch_bend_c, 1, 8192
3, 5280, Note_off_c, 1, 44, 80
3, 5280, Pitch_bend_c, 1, 8192
3, 5280, Note_on_c, 0, 69, 76
3, 5280, Note_on_c, 0, 64, 76
3, 5280, Note_on_c, 0, 61, 76
3, 5280, Note_on_c, 0, 57, 76
3, 5280, Note_on_c, 0, 52, 76
3, 5280, Note_on_c, 0, 45, 76
3, 5400, Note_off_c, 0, 69, 80
3, 5400, Note_off_c, 0, 64, 80
3, 5400, Note_off_c, 0, 61, 80
3, 5400, Note_off_c, 0, 57, 80
3, 5400, Note_off_c, 0, 52, 80
3, 5400, Note_off_c, 0, 45, 80
3, 5400, Note_on_c, 0, 69, 95
3, 5400, Note_on_c, 0, 64, 95
3, 5400, Note_on_c, 0, 61, 95
3, 5400, Note_on_c, 0, 57, 95
3, 5400, Note_on_c, 0, 52, 95
3, 5400, Note_on_c, 0, 45, 95
3, 5520, Note_off_c, 0, 69, 80
3, 5520, Note_off_c, 0, 64, 80
3, 5520, Note_off_c, 0, 61, 80
3, 5520, Note_off_c, 0, 57, 80
3, 5520, Note_off_c, 0, 52, 80
3, 5520, Note_off_c, 0, 45, 80
3, 5520, Note_on_c, 0, 69, 95
3, 5520, Note_on_c, 0, 64, 95
3, 5520, Note_on_c, 0, 61, 95
3, 5520, Note_on_c, 0, 57, 95
3, 5520, Note_on_c, 0, 52, 95
3, 5520, Note_on_c, 0, 45, 95
3, 5640, Note_off_c, 0, 69, 80
3, 5640, Note_off_c, 0, 64, 80
3, 5640, Note_off_c, 0, 61, 80
3, 5640, Note_off_c, 0, 57, 80
3, 5640, Note_off_c, 0, 52, 80
3, 5640, Note_off_c, 0, 45, 80
3, 5640, Note_on_c, 0, 55, 95
3, 5640, Note_on_c, 0, 50, 95
3, 5640, Note_on_c, 0, 45, 95
3, 5640, Note_on_c, 0, 40, 95
3, 5760, Note_off_c, 0, 55, 80
3, 5760, Note_off_c, 0, 50, 80
3, 5760, Note_off_c, 0, 45, 80
3, 5760, Note_off_c, 0, 40, 80
3, 5760, Note_on_c, 0, 64, 95
3, 5760, Note_on_c, 0, 59, 95
3, 5760, Note_on_c, 0, 56, 95
3, 5760, Note_on_c, 0, 52, 95
3, 5760, Note_on_c, 0, 47, 95
3, 5760, Note_on_c, 0, 40, 95
3, 6000, Note_off_c, 0, 64, 80
3, 6000, Note_off_c, 0, 59, 80
3, 6000, Note_off_c, 0, 56, 80
3, 6000, Note_off_c, 0, 52, 80
3, 6000, Note_off_c, 0, 47, 80
3, 6000, Note_off_c, 0, 40, 80
3, 6000, Note_on_c, 0, 64, 95
3, 6000, Note_on_c, 0, 59, 95
3, 6000, Note_on_c, 0, 56, 95
3, 6000, Note_on_c, 0, 52, 95
3, 6000, Note_on_c, 0, 47, 95
3, 6000, Note_on_c, 0, 40, 95
3, 6020, Note_off_c, 0, 64, 80
3, 6020, Note_off_c, 0, 59, 80
3, 6240, Note_off_c, 0, 56, 80
3, 6240, Note_off_c, 0, 52, 80
3, 6240, Note_off_c, 0, 47, 80
3, 6240, Note_off_c, 0, 40, 80
3, 6240, Note_on_c, 0, 64, 95
3, 6240, Note_on_c, 0, 59, 95
3, 6240, Note_on_c, 0, 56, 95
3, 6240, Note_on_c, 0, 52, 95
3, 6240, Note_on_c, 0, 47, 95
3, 6240, Note_on_c, 0, 40, 95
3, 6480, Note_off_c, 0, 64, 80
3, 6480, Note_off_c, 0, 59, 80
3, 6480, Note_off_c, 0, 56, 80
3, 6480, Note_off_c, 0, 52, 80
3, 6480, Note_off_c, 0, 47, 80
3, 6480, Note_off_c, 0, 40, 80
3, 6480, Note_on_c, 0, 64, 95
3, 6480, Note_on_c, 0, 59, 95
3, 6480, Note_on_c, 0, 56, 95
3, 6480, Note_on_c, 0, 52, 95
3, 6480, Note_on_c, 0, 47, 95
3, 6480, Note_on_c, 0, 40, 95
3, 6600, Note_off_c, 0, 64, 80
3, 6600, Note_off_c, 0, 59, 80
3, 6600, Note_off_c, 0, 56, 80
3, 6600, Note_off_c, 0, 52, 80
3, 6600, Note_off_c, 0, 47, 80
3, 6600, Note_off_c, 0, 40, 80
3, 6600, Note_on_c, 0, 55, 95
3, 6600, Note_on_c, 0, 50, 95
3, 6600, Note_on_c, 0, 45, 95
3, 6720, Note_off_c, 0, 55, 80
3, 6720, Note_off_c, 0, 50, 80
3, 6720, Note_off_c, 0, 45, 80
3, 6720, Note_on_c, 0, 68, 95
3, 6720, Note_on_c, 0, 64, 95
3, 6720, Note_on_c, 0, 61, 95
3, 6720, Note_on_c, 0, 56, 95
3, 6720, Note_on_c, 0, 49, 95
3, 6720, Note_on_c, 0, 44, 95
3, 6960, Note_off_c, 0, 68, 80
3, 6960, Note_off_c, 0, 64, 80
3, 6960, Note_off_c, 0, 61, 80
3, 6960, Note_off_c, 0, 56, 80
3, 6960, Note_off_c, 0, 49, 80
3, 6960, Note_off_c, 0, 44, 80
3, 6960, Note_on_c, 0, 68, 95
3, 6960, Note_on_c, 0, 64, 95
3, 6960, Note_on_c, 0, 61, 95
3, 6960, Note_on_c, 0, 56, 95
3, 6960, Note_on_c, 0, 49, 95
3, 6960, Note_on_c, 0, 44, 95
3, 6980, Note_off_c, 0, 68, 80
3, 7200, Note_off_c, 0, 64, 80
3, 7200, Note_off_c, 0, 61, 80
3, 7200, Note_off_c, 0, 56, 80
3, 7200, Note_off_c, 0, 49, 80
3, 7200, Note_off_c, 0, 44, 80
3, 7200, Note_on_c, 0, 68, 95
3, 7200, Note_on_c, 0, 64, 95
3, 7200, Note_on_c, 0, 61, 95
3, 7200, Note_on_c, 0, 56, 95
3, 7200, Note_on_c, 0, 49, 95
3, 7200, Note_on_c, 0, 44, 95
3, 7440, Note_off_c, 0, 68, 80
3, 7440, Note_off_c, 0, 64, 80
3, 7440, Note_off_c, 0, 61, 80
3, 7440, Note_off_c, 0, 56, 80
3, 7440, Note_off_c, 0, 49, 80
3, 7440, Note_off_c, 0, 44, 80
3, 7440, Note_on_c, 0, 68, 95
3, 7440, Note_on_c, 0, 64, 95
3, 7440, Note_on_c, 0, 61, 95
3, 7440, Note_on_c, 0, 56, 95
3, 7440, Note_on_c, 0, 49, 95
3, 7440, Note_on_c, 0, 44, 95
3, 7560, Note_off_c, 0, 68, 80
3, 7560, Note_off_c, 0, 64, 80
3, 7560, Note_off_c, 0, 61, 80
3, 7560, Note_off_c, 0, 56, 80
3, 7560, Note_off_c, 0, 49, 80
3, 7560, Note_off_c, 0, 44, 80
3, 7560, Note_on_c, 0, 50, 95
3, 7560, Note_on_c, 0, 45, 95
3, 7560, Note_on_c, 0, 40, 95
3, 7680, Note_off_c, 0, 50, 80
3, 7680, Note_off_c, 0, 45, 80
3, 7680, Note_off_c, 0, 40, 80
3, 7680, Note_on_c, 0, 68, 95
3, 7680, Note_on_c, 0, 63, 95
3, 7680, Note_on_c, 0, 60, 95
3, 7680, Note_on_c, 0, 56, 95
3, 7680, Note_on_c, 0, 51, 95
3, 7680, Note_on_c, 0, 44, 95
3, 7920, Note_off_c, 0, 68, 80
3, 7920, Note_off_c, 0, 63, 80
3, 7920, Note_off_c, 0, 60, 80
3, 7920, Note_off_c, 0, 56, 80
3, 7920, Note_off_c, 0, 51, 80
3, 7920, Note_off_c, 0, 44, 80
3, 7920, Note_on_c, 0, 68, 95
3, 7920, Note_on_c, 0, 63, 95
3, 7920, Note_on_c, 0, 60, 95
3, 7920, Note_on_c, 0, 56, 95
3, 7920, Note_on_c, 0, 51, 95
3, 7920, Note_on_c, 0, 44, 95
3, 7940, Note_off_c, 0, 68, 80
3, 8160, Note_off_c, 0, 63, 80
3, 8160, Note_off_c, 0, 60, 80
3, 8160, Note_off_c, 0, 56, 80
3, 8160, Note_off_c, 0, 51, 80
3, 8160, Note_off_c, 0, 44, 80
3, 8160, Note_on_c, 0, 68, 95
3, 8160, Note_on_c, 0, 63, 95
3, 8160, Note_on_c, 0, 60, 95
3, 8160, Note_on_c, 0, 56, 95
3, 8160, Note_on_c, 0, 51, 95
3, 8160, Note_on_c, 0, 44, 95
3, 8400, Note_off_c, 0, 68, 80
3, 8400, Note_off_c, 0, 63, 80
3, 8400, Note_off_c, 0, 60, 80
3, 8400, Note_off_c, 0, 56, 80
3, 8400, Note_off_c, 0, 51, 80
3, 8400, Note_off_c, 0, 44, 80
3, 8400, Note_on_c, 1, 68, 95
3, 8400, Note_on_c, 1, 63, 95
3, 8400, Note_on_c, 1, 60, 95
3, 8400, Note_on_c, 1, 56, 95
3, 8400, Note_on_c, 1, 51, 95
3, 8400, Note_on_c, 1, 44, 95
3, 8496, Pitch_bend_c, 1, 8832
3, 8496, Pitch_bend_c, 1, 8832
3, 8496, Pitch_bend_c, 1, 8832
3, 8496, Pitch_bend_c, 1, 8832
3, 8496, Pitch_bend_c, 1, 8832
3, 8496, Pitch_bend_c, 1, 8832
3, 8520, Note_off_c, 1, 68, 80
3, 8520, Pitch_bend_c, 1, 8192
3, 8520, Note_off_c, 1, 63, 80
3, 8520, Pitch_bend_c, 1, 8192
3, 8520, Note_off_c, 1, 60, 80
3, 8520, Pitch_bend_c, 1, 8192
3, 8520, Note_off_c, 1, 56, 80
3, 8520, Pitch_bend_c, 1, 8192
3, 8520, Note_off_c, 1, 51, 80
3, 8520, Pitch_bend_c, 1, 8192
3, 8520, Note_off_c, 1, 44, 80
3, 8520, Pitch_bend_c, 1, 8192
3, 8520, Note_on_c, 0, 69, 76
3, 8520, Note_on_c, 0, 64, 76
3, 8520, Note_on_c, 0, 61, 76
3, 8520, Note_on_c, 0, 57, 76
3, 8520, Note_on_c, 0, 52, 76
3, 8520, Note_on_c, 0, 45, 76
3, 8640, Note_off_c, 0, 69, 80
3, 8640, Note_off_c, 0, 64, 80
3, 8640, Note_off_c, 0, 61, 80
3, 8640, Note_off_c, 0, 57, 80
3, 8640, Note_off_c, 0, 52, 80
3, 8640, Note_off_c, 0, 45, 80
3, 8640, Note_on_c, 0, 69, 95
3, 8640, Note_on_c, 0, 64, 95
3, 8640, Note_on_c, 0, 61, 95
3, 8640, Note_on_c, 0, 57, 95
3, 8640, Note_on_c, 0, 52, 95
3, 8640, Note_on_c, 0, 45, 95
3, 8760, Note_off_c, 0, 69, 80
3, 8760, Note_off_c, 0, 64, 80
3, 8760, Note_off_c, 0, 61, 80
3, 8760, Note_off_c, 0, 57, 80
3, 8760, Note_off_c, 0, 52, 80
3, 8760, Note_off_c, 0, 45, 80
3, 8760, Note_on_c, 0, 69, 95
3, 8760, Note_on_c, 0, 64, 95
3, 8760, Note_on_c, 0, 61, 95
3, 8760, Note_on_c, 0, 57, 95
3, 8760, Note_on_c, 0, 52, 95
3, 8760, Note_on_c, 0, 45, 95
3, 8880, Note_off_c, 0, 69, 80
3, 8880, Note_off_c, 0, 64, 80
3, 8880, Note_off_c, 0, 61, 80
3, 8880, Note_off_c, 0, 57, 80
3, 8880, Note_off_c, 0, 52, 80
3, 8880, Note_off_c, 0, 45, 80
3, 8880, Note_on_c, 0, 69, 95
3, 8880, Note_on_c, 0, 64, 95
3, 8880, Note_on_c, 0, 61, 95
3, 8880, Note_on_c, 0, 57, 95
3, 8880, Note_on_c, 0, 52, 95
3, 8880, Note_on_c, 0, 45, 95
3, 9000, Note_off_c, 0, 69, 80
3, 9000, Note_off_c, 0, 64, 80
3, 9000, Note_off_c, 0, 61, 80
3, 9000, Note_off_c, 0, 57, 80
3, 9000, Note_off_c, 0, 52, 80
3, 9000, Note_off_c, 0, 45, 80
3, 9000, Note_on_c, 1, 68, 95
3, 9000, Note_on_c, 1, 63, 95
3, 9000, Note_on_c, 1, 60, 95
3, 9000, Note_on_c, 1, 56, 95
3, 9000, Note_on_c, 1, 51, 95
3, 9000, Note_on_c, 1, 44, 95
3, 9096, Pitch_bend_c, 1, 8832
3, 9096, Pitch_bend_c, 1, 8832
3, 9096, Pitch_bend_c, 1, 8832
3, 9096, Pitch_bend_c, 1, 8832
3, 9096, Pitch_bend_c, 1, 8832
3, 9096, Pitch_bend_c, 1, 8832
3, 9120, Note_off_c, 1, 68, 80
3, 9120, Pitch_bend_c, 1, 8192
3, 9120, Note_off_c, 1, 63, 80
3, 9120, Pitch_bend_c, 1, 8192
3, 9120, Note_off_c, 1, 60, 80
3, 9120, Pitch_bend_c, 1, 8192
3, 9120, Note_off_c, 1, 56, 80
3, 9120, Pitch_bend_c, 1, 8192
3, 9120, Note_off_c, 1, 51, 80
3, 9120, Pitch_bend_c, 1, 8192
3, 9120, Note_off_c, 1, 44, 80
3, 9120, Pitch_bend_c, 1, 8192
3, 9120, Note_on_c, 0, 69, 76
3, 9120, Note_on_c, 0, 64, 76
3, 9120, Note_on_c, 0, 61, 76
3, 9120, Note_on_c, 0, 57, 76
3, 9120, Note_on_c, 0, 52, 76
3, 9120, Note_on_c, 0, 45, 76
3, 9240, Note_off_c, 0, 69, 80
3, 9240, Note_off_c, 0, 64, 80
3, 9240, Note_off_c, 0, 61, 80
3, 9240, Note_off_c, 0, 57, 80
3, 9240, Note_off_c, 0, 52, 80
3, 9240, Note_off_c, 0, 45, 80
3, 9240, Note_on_c, 0, 69, 95
3, 9240, Note_on_c, 0, 64, 95
3, 9240, Note_on_c, 0, 61, 95
3, 9240, Note_on_c, 0, 57, 95
3, 9240, Note_on_c, 0, 52, 95
3, 9240, Note_on_c, 0, 45, 95
3, 9360, Note_off_c, 0, 69, 80
3, 9360, Note_off_c, 0, 64, 80
3, 9360, Note_off_c, 0, 61, 80
3, 9360, Note_off_c, 0, 57, 80
3, 9360, Note_off_c, 0, 52, 80
3, 9360, Note_off_c, 0, 45, 80
3, 9360, Note_on_c, 0, 69, 95
3, 9360, Note_on_c, 0, 64, 95
3, 9360, Note_on_c, 0, 61, 95
3, 9360, Note_on_c, 0, 57, 95
3, 9360, Note_on_c, 0, 52, 95
3, 9360, Note_on_c, 0, 45, 95
3, 9480, Note_off_c, 0, 69, 80
3, 9480, Note_off_c, 0, 64, 80
3, 9480, Note_off_c, 0, 61, 80
3, 9480, Note_off_c, 0, 57, 80
3, 9480, Note_off_c, 0, 52, 80
3, 9480, Note_off_c, 0, 45, 80
3, 9480, Note_on_c, 0, 55, 95
3, 9480, Note_on_c, 0, 50, 95
3, 9480, Note_on_c, 0, 45, 95
3, 9480, Note_on_c, 0, 40, 95
3, 9600, Note_off_c, 0, 55, 80
3, 9600, Note_off_c, 0, 50, 80
3, 9600, Note_off_c, 0, 45, 80
3, 9600, Note_off_c, 0, 40, 80
3, 9600, Note_on_c, 0, 64, 95
3, 9600, Note_on_c, 0, 59, 95
3, 9600, Note_on_c, 0, 56, 95
3, 9600, Note_on_c, 0, 52, 95
3, 9600, Note_on_c, 0, 47, 95
3, 9600, Note_on_c, 0, 40, 95
3, 9840, Note_off_c, 0, 64, 80
3, 9840, Note_off_c, 0, 59, 80
3, 9840, Note_off_c, 0, 56, 80
3, 9840, Note_off_c, 0, 52, 80
3, 9840, Note_off_c, 0, 47, 80
3, 9840, Note_off_c, 0, 40, 80
3, 9840, Note_on_c, 0, 64, 95
3, 9840, Note_on_c, 0, 59, 95
3, 9840, Note_on_c, 0, 56, 95
3, 9840, Note_on_c, 0, 52, 95
3, 9840, Note_on_c, 0, 47, 95
3, 9840, Note_on_c, 0, 40, 95
3, 9860, Note_off_c, 0, 64, 80
3, 9860, Note_off_c, 0, 59, 80
3, 10080, Note_off_c, 0, 56, 80
3, 10080, Note_off_c, 0, 52, 80
3, 10080, Note_off_c, 0, 47, 80
3, 10080, Note_off_c, 0, 40, 80
3, 10080, Note_on_c, 0, 64, 95
3, 10080, Note_on_c, 0, 59, 95
3, 10080, Note_on_c, 0, 56, 95
3, 10080, Note_on_c, 0, 52, 95
3, 10080, Note_on_c, 0, 47, 95
3, 10080, Note_on_c, 0, 40, 95
3, 10320, Note_off_c, 0, 64, 80
3, 10320, Note_off_c, 0, 59, 80
3, 10320, Note_off_c, 0, 56, 80
3, 10320, Note_off_c, 0, 52, 80
3, 10320, Note_off_c, 0, 47, 80
3, 10320, Note_off_c, 0, 40, 80
3, 10320, Note_on_c, 0, 64, 95
3, 10320, Note_on_c, 0, 59, 95
3, 10320, Note_on_c, 0, 56, 95
3, 10320, Note_on_c, 0, 52, 95
3, 10320, Note_on_c, 0, 47, 95
3, 10320, Note_on_c, 0, 40, 95
3, 10440, Note_off_c, 0, 64, 80
3, 10440, Note_off_c, 0, 59, 80
3, 10440, Note_off_c, 0, 56, 80
3, 10440, Note_off_c, 0, 52, 80
3, 10440, Note_off_c, 0, 47, 80
3, 10440, Note_off_c, 0, 40, 80
3, 10440, Note_on_c, 0, 55, 95
3, 10440, Note_on_c, 0, 50, 95
3, 10440, Note_on_c, 0, 45, 95
3, 10560, Note_off_c, 0, 55, 80
3, 10560, Note_off_c, 0, 50, 80
3, 10560, Note_off_c, 0, 45, 80
3, 10560, Note_on_c, 0, 68, 95
3, 10560, Note_on_c, 0, 64, 95
3, 10560, Note_on_c, 0, 61, 95
3, 10560, Note_on_c, 0, 56, 95
3, 10560, Note_on_c, 0, 49, 95
3, 10560, Note_on_c, 0, 44, 95
3, 10800, Note_off_c, 0, 68, 80
3, 10800, Note_off_c, 0, 64, 80
3, 10800, Note_off_c, 0, 61, 80
3, 10800, Note_off_c, 0, 56, 80
3, 10800, Note_off_c, 0, 49, 80
3, 10800, Note_off_c, 0, 44, 80
3, 10800, Note_on_c, 0, 68, 95
3, 10800, Note_on_c, 0, 64, 95
3, 10800, Note_on_c, 0, 61, 95
3, 10800, Note_on_c, 0, 56, 95
3, 10800, Note_on_c, 0, 49, 95
3, 10800, Note_on_c, 0, 44, 95
3, 10820, Note_off_c, 0, 68, 80
3, 11040, Note_off_c, 0, 64, 80
3, 11040, Note_off_c, 0, 61, 80
3, 11040, Note_off_c, 0, 56, 80
3, 11040, Note_off_c, 0, 49, 80
3, 11040, Note_off_c, 0, 44, 80
3, 11040, Note_on_c, 0, 68, 95
3, 11040, Note_on_c, 0, 64, 95
3, 11040, Note_on_c, 0, 61, 95
3, 11040, Note_on_c, 0, 56, 95
3, 11040, Note_on_c, 0, 49, 95
3, 11040, Note_on_c, 0, 44, 95
3, 11280, Note_off_c, 0, 68, 80
3, 11280, Note_off_c, 0, 64, 80
3, 11280, Note_off_c, 0, 61, 80
3, 11280, Note_off_c, 0, 56, 80
3, 11280, Note_off_c, 0, 49, 80
3, 11280, Note_off_c, 0, 44, 80
3, 11280, Note_on_c, 0, 68, 95
3, 11280, Note_on_c, 0, 64, 95
3, 11280, Note_on_c, 0, 61, 95
3, 11280, Note_on_c, 0, 56, 95
3, 11280, Note_on_c, 0, 49, 95
3, 11280, Note_on_c, 0, 44, 95
3, 11400, Note_off_c, 0, 68, 80
3, 11400, Note_off_c, 0, 64, 80
3, 11400, Note_off_c, 0, 61, 80
3, 11400, Note_off_c, 0, 56, 80
3, 11400, Note_off_c, 0, 49, 80
3, 11400, Note_off_c, 0, 44, 80
3, 11400, Note_on_c, 0, 50, 95
3, 11400, Note_on_c, 0, 45, 95
3, 11400, Note_on_c, 0, 40, 95
3, 11520, Note_off_c, 0, 50, 80
3, 11520, Note_off_c, 0, 45, 80
3, 11520, Note_off_c, 0, 40, 80
3, 11520, Note_on_c, 0, 68, 95
3, 11520, Note_on_c, 0, 63, 95
3, 11520, Note_on_c, 0, 60, 95
3, 11520, Note_on_c, 0, 56, 95
3, 11520, Note_on_c, 0, 51, 95
3, 11520, Note_on_c, 0, 44, 95
3, 11760, Note_off_c, 0, 68, 80
3, 11760, Note_off_c, 0, 63, 80
3, 11760, Note_off_c, 0, 60, 80
3, 11760, Note_off_c, 0, 56, 80
3, 11760, Note_off_c, 0, 51, 80
3, 11760, Note_off_c, 0, 44, 80
3, 11760, Note_on_c, 0, 68, 95
3, 11760, Note_on_c, 0, 63, 95
3, 11760, Note_on_c, 0, 60, 95
3, 11760, Note_on_c, 0, 56, 95
3, 11760, Note_on_c, 0, 51, 95
3, 11760, Note_on_c, 0, 44, 95
3, 11780, Note_off_c, 0, 68, 80
3, 12000, Note_off_c, 0, 63, 80
3, 12000, Note_off_c, 0, 60, 80
3, 12000, Note_off_c, 0, 56, 80
3, 12000, Note_off_c, 0, 51, 80
3, 12000, Note_off_c, 0, 44, 80
3, 12000, Note_on_c, 0, 68, 95
3, 12000, Note_on_c, 0, 63, 95
3, 12000, Note_on_c, 0, 60, 95
3, 12000, Note_on_c, 0, 56, 95
3, 12000, Note_on_c, 0, 51, 95
3, 12000, Note_on_c, 0, 44, 95
3, 12240, Note_off_c, 0, 68, 80
3, 12240, Note_off_c, 0, 63, 80
3, 12240, Note_off_c, 0, 60, 80
3, 12240, Note_off_c, 0, 56, 80
3, 12240, Note_off_c, 0, 51, 80
3, 12240, Note_off_c, 0, 44, 80
3, 12240, Note_on_c, 1, 68, 95
3, 12240, Note_on_c, 1, 63, 95
3, 12240, Note_on_c, 1, 60, 95
3, 12240, Note_on_c, 1, 56, 95
3, 12240, Note_on_c, 1, 51, 95
3, 12240, Note_on_c, 1, 44, 95
3, 12336, Pitch_bend_c, 1, 8832
3, 12336, Pitch_bend_c, 1, 8832
3, 12336, Pitch_bend_c, 1, 8832
3, 12336, Pitch_bend_c, 1, 8832
3, 12336, Pitch_bend_c, 1, 8832
3, 12336, Pitch_bend_c, 1, 8832
3, 12360, Note_off_c, 1, 68, 80
3, 12360, Pitch_bend_c, 1, 8192
3, 12360, Note_off_c, 1, 63, 80
3, 12360, Pitch_bend_c, 1, 8192
3, 12360, Note_off_c, 1, 60, 80
3, 12360, Pitch_bend_c, 1, 8192
3, 12360, Note_off_c, 1, 56, 80
3, 12360, Pitch_bend_c, 1, 8192
3, 12360, Note_off_c, 1, 51, 80
3, 12360, Pitch_bend_c, 1, 8192
3, 12360, Note_off_c, 1, 44, 80
3, 12360, Pitch_bend_c, 1, 8192
3, 12360, Note_on_c, 0, 69, 76
3, 12360, Note_on_c, 0, 64, 76
3, 12360, Note_on_c, 0, 61, 76
3, 12360, Note_on_c, 0, 57, 76
3, 12360, Note_on_c, 0, 52, 76
3, 12360, Note_on_c, 0, 45, 76
3, 12480, Note_off_c, 0, 69, 80
3, 12480, Note_off_c, 0, 64, 80
3, 12480, Note_off_c, 0, 61, 80
3, 12480, Note_off_c, 0, 57, 80
3, 12480, Note_off_c, 0, 52, 80
3, 12480, Note_off_c, 0, 45, 80
3, 12480, Note_on_c, 0, 69, 95
3, 12480, Note_on_c, 0, 64, 95
3, 12480, Note_on_c, 0, 61, 95
3, 12480, Note_on_c, 0, 57, 95
3, 12480, Note_on_c, 0, 52, 95
3, 12480, Note_on_c, 0, 45, 95
3, 12600, Note_off_c, 0, 69, 80
3, 12600, Note_off_c, 0, 64, 80
3, 12600, Note_off_c, 0, 61, 80
3, 12600, Note_off_c, 0, 57, 80
3, 12600, Note_off_c, 0, 52, 80
3, 12600, Note_off_c, 0, 45, 80
3, 12600, Note_on_c, 0, 69, 95
3, 12600, Note_on_c, 0, 64, 95
3, 12600, Note_on_c, 0, 61, 95
3, 12600, Note_on_c, 0, 57, 95
3, 12600, Note_on_c, 0, 52, 95
3, 12600, Note_on_c, 0, 45, 95
3, 12720, Note_off_c, 0, 69, 80
3, 12720, Note_off_c, 0, 64, 80
3, 12720, Note_off_c, 0, 61, 80
3, 12720, Note_off_c, 0, 57, 80
3, 12720, Note_off_c, 0, 52, 80
3, 12720, Note_off_c, 0, 45, 80
3, 12720, Note_on_c, 0, 69, 95
3, 12720, Note_on_c, 0, 64, 95
3, 12720, Note_on_c, 0, 61, 95
3, 12720, Note_on_c, 0, 57, 95
3, 12720, Note_on_c, 0, 52, 95
3, 12720, Note_on_c, 0, 45, 95
3, 12840, Note_off_c, 0, 69, 80
3, 12840, Note_off_c, 0, 64, 80
3, 12840, Note_off_c, 0, 61, 80
3, 12840, Note_off_c, 0, 57, 80
3, 12840, Note_off_c, 0, 52, 80
3, 12840, Note_off_c, 0, 45, 80
3, 12840, Note_on_c, 1, 68, 95
3, 12840, Note_on_c, 1, 63, 95
3, 12840, Note_on_c, 1, 60, 95
3, 12840, Note_on_c, 1, 56, 95
3, 12840, Note_on_c, 1, 51, 95
3, 12840, Note_on_c, 1, 44, 95
3, 12936, Pitch_bend_c, 1, 8832
3, 12936, Pitch_bend_c, 1, 8832
3, 12936, Pitch_bend_c, 1, 8832
3, 12936, Pitch_bend_c, 1, 8832
3, 12936, Pitch_bend_c, 1, 8832
3, 12936, Pitch_bend_c, 1, 8832
3, 12960, Note_off_c, 1, 68, 80
3, 12960, Pitch_bend_c, 1, 8192
3, 12960, Note_off_c, 1, 63, 80
3, 12960, Pitch_bend_c, 1, 8192
3, 12960, Note_off_c, 1, 60, 80
3, 12960, Pitch_bend_c, 1, 8192
3, 12960, Note_off_c, 1, 56, 80
3, 12960, Pitch_bend_c, 1, 8192
3, 12960, Note_off_c, 1, 51, 80
3, 12960, Pitch_bend_c, 1, 8192
3, 12960, Note_off_c, 1, 44, 80
3, 12960, Pitch_bend_c, 1, 8192
3, 12960, Note_on_c, 0, 69, 76
3, 12960, Note_on_c, 0, 64, 76
3, 12960, Note_on_c, 0, 61, 76
3, 12960, Note_on_c, 0, 57, 76
3, 12960, Note_on_c, 0, 52, 76
3, 12960, Note_on_c, 0, 45, 76
3, 13080, Note_off_c, 0, 69, 80
3, 13080, Note_off_c, 0, 64, 80
3, 13080, Note_off_c, 0, 61, 80
3, 13080, Note_off_c, 0, 57, 80
3, 13080, Note_off_c, 0, 52, 80
3, 13080, Note_off_c, 0, 45, 80
3, 13080, Note_on_c, 0, 69, 95
3, 13080, Note_on_c, 0, 64, 95
3, 13080, Note_on_c, 0, 61, 95
3, 13080, Note_on_c, 0, 57, 95
3, 13080, Note_on_c, 0, 52, 95
3, 13080, Note_on_c, 0, 45, 95
3, 13200, Note_off_c, 0, 69, 80
3, 13200, Note_off_c, 0, 64, 80
3, 13200, Note_off_c, 0, 61, 80
3, 13200, Note_off_c, 0, 57, 80
3, 13200, Note_off_c, 0, 52, 80
3, 13200, Note_off_c, 0, 45, 80
3, 13200, Note_on_c, 0, 69, 95
3, 13200, Note_on_c, 0, 64, 95
3, 13200, Note_on_c, 0, 61, 95
3, 13200, Note_on_c, 0, 57, 95
3, 13200, Note_on_c, 0, 52, 95
3, 13200, Note_on_c, 0, 45, 95
3, 13320, Note_off_c, 0, 69, 80
3, 13320, Note_off_c, 0, 64, 80
3, 13320, Note_off_c, 0, 61, 80
3, 13320, Note_off_c, 0, 57, 80
3, 13320, Note_off_c, 0, 52, 80
3, 13320, Note_off_c, 0, 45, 80
3, 13320, Note_on_c, 0, 55, 95
3, 13320, Note_on_c, 0, 50, 95
3, 13320, Note_on_c, 0, 45, 95
3, 13320, Note_on_c, 0, 40, 95
3, 13440, Note_off_c, 0, 55, 80
3, 13440, Note_off_c, 0, 50, 80
3, 13440, Note_off_c, 0, 45, 80
3, 13440, Note_off_c, 0, 40, 80
3, 13440, Note_on_c, 0, 64, 95
3, 13440, Note_on_c, 0, 59, 95
3, 13440, Note_on_c, 0, 56, 95
3, 13440, Note_on_c, 0, 52, 95
3, 13440, Note_on_c, 0, 47, 95
3, 13440, Note_on_c, 0, 40, 95
3, 13680, Note_off_c, 0, 64, 80
3, 13680, Note_off_c, 0, 59, 80
3, 13680, Note_off_c, 0, 56, 80
3, 13680, Note_off_c, 0, 52, 80
3, 13680, Note_off_c, 0, 47, 80
3, 13680, Note_off_c, 0, 40, 80
3, 13680, Note_on_c, 0, 64, 95
3, 13680, Note_on_c, 0, 59, 95
3, 13680, Note_on_c, 0, 56, 95
3, 13680, Note_on_c, 0, 52, 95
3, 13680, Note_on_c, 0, 47, 95
3, 13680, Note_on_c, 0, 40, 95
3, 13700, Note_off_c, 0, 64, 80
3, 13700, Note_off_c, 0, 59, 80
3, 13920, Note_off_c, 0, 56, 80
3, 13920, Note_off_c, 0, 52, 80
3, 13920, Note_off_c, 0, 47, 80
3, 13920, Note_off_c, 0, 40, 80
3, 13920, Note_on_c, 0, 64, 95
3, 13920, Note_on_c, 0, 59, 95
3, 13920, Note_on_c, 0, 56, 95
3, 13920, Note_on_c, 0, 52, 95
3, 13920, Note_on_c, 0, 47, 95
3, 13920, Note_on_c, 0, 40, 95
3, 14160, Note_off_c, 0, 64, 80
3, 14160, Note_off_c, 0, 59, 80
3, 14160, Note_off_c, 0, 56, 80
3, 14160, Note_off_c, 0, 52, 80
3, 14160, Note_off_c, 0, 47, 80
3, 14160, Note_off_c, 0, 40, 80
3, 14160, Note_on_c, 0, 64, 95
3, 14160, Note_on_c, 0, 59, 95
3, 14160, Note_on_c, 0, 56, 95
3, 14160, Note_on_c, 0, 52, 95
3, 14160, Note_on_c, 0, 47, 95
3, 14160, Note_on_c, 0, 40, 95
3, 14280, Note_off_c, 0, 64, 80
3, 14280, Note_off_c, 0, 59, 80
3, 14280, Note_off_c, 0, 56, 80
3, 14280, Note_off_c, 0, 52, 80
3, 14280, Note_off_c, 0, 47, 80
3, 14280, Note_off_c, 0, 40, 80
3, 14280, Note_on_c, 0, 55, 95
3, 14280, Note_on_c, 0, 50, 95
3, 14280, Note_on_c, 0, 45, 95
3, 14400, Note_off_c, 0, 55, 80
3, 14400, Note_off_c, 0, 50, 80
3, 14400, Note_off_c, 0, 45, 80
3, 14400, Note_on_c, 0, 68, 95
3, 14400, Note_on_c, 0, 64, 95
3, 14400, Note_on_c, 0, 61, 95
3, 14400, Note_on_c, 0, 56, 95
3, 14400, Note_on_c, 0, 49, 95
3, 14400, Note_on_c, 0, 44, 95
3, 14640, Note_off_c, 0, 68, 80
3, 14640, Note_off_c, 0, 64, 80
3, 14640, Note_off_c, 0, 61, 80
3, 14640, Note_off_c, 0, 56, 80
3, 14640, Note_off_c, 0, 49, 80
3, 14640, Note_off_c, 0, 44, 80
3, 14640, Note_on_c, 0, 68, 95
3, 14640, Note_on_c, 0, 64, 95
3, 14640, Note_on_c, 0, 61, 95
3, 14640, Note_on_c, 0, 56, 95
3, 14640, Note_on_c, 0, 49, 95
3, 14640, Note_on_c, 0, 44, 95
3, 14660, Note_off_c, 0, 68, 80
3, 14880, Note_off_c, 0, 64, 80
3, 14880, Note_off_c, 0, 61, 80
3, 14880, Note_off_c, 0, 56, 80
3, 14880, Note_off_c, 0, 49, 80
3, 14880, Note_off_c, 0, 44, 80
3, 14880, Note_on_c, 0, 68, 95
3, 14880, Note_on_c, 0, 64, 95
3, 14880, Note_on_c, 0, 61, 95
3, 14880, Note_on_c, 0, 56, 95
3, 14880, Note_on_c, 0, 49, 95
3, 14880, Note_on_c, 0, 44, 95
3, 15120, Note_off_c, 0, 68, 80
3, 15120, Note_off_c, 0, 64, 80
3, 15120, Note_off_c, 0, 61, 80
3, 15120, Note_off_c, 0, 56, 80
3, 15120, Note_off_c, 0, 49, 80
3, 15120, Note_off_c, 0, 44, 80
3, 15120, Note_on_c, 0, 68, 95
3, 15120, Note_on_c, 0, 64, 95
3, 15120, Note_on_c, 0, 61, 95
3, 15120, Note_on_c, 0, 56, 95
3, 15120, Note_on_c, 0, 49, 95
3, 15120, Note_on_c, 0, 44, 95
3, 15240, Note_off_c, 0, 68, 80
3, 15240, Note_off_c, 0, 64, 80
3, 15240, Note_off_c, 0, 61, 80
3, 15240, Note_off_c, 0, 56, 80
3, 15240, Note_off_c, 0, 49, 80
3, 15240, Note_off_c, 0, 44, 80
3, 15240, Note_on_c, 0, 50, 95
3, 15240, Note_on_c, 0, 45, 95
3, 15240, Note_on_c, 0, 40, 95
3, 15360, Note_off_c, 0, 50, 80
3, 15360, Note_off_c, 0, 45, 80
3, 15360, Note_off_c, 0, 40, 80
3, 15360, Note_on_c, 0, 68, 95
3, 15360, Note_on_c, 0, 63, 95
3, 15360, Note_on_c, 0, 60, 95
3, 15360, Note_on_c, 0, 56, 95
3, 15360, Note_on_c, 0, 51, 95
3, 15360, Note_on_c, 0, 44, 95
3, 15600, Note_off_c, 0, 68, 80
3, 15600, Note_off_c, 0, 63, 80
3, 15600, Note_off_c, 0, 60, 80
3, 15600, Note_off_c, 0, 56, 80
3, 15600, Note_off_c, 0, 51, 80
3, 15600, Note_off_c, 0, 44, 80
3, 15600, Note_on_c, 0, 68, 95
3, 15600, Note_on_c, 0, 63, 95
3, 15600, Note_on_c, 0, 60, 95
3, 15600, Note_on_c, 0, 56, 95
3, 15600, Note_on_c, 0, 51, 95
3, 15600, Note_on_c, 0, 44, 95
3, 15620, Note_off_c, 0, 68, 80
3, 15840, Note_off_c, 0, 63, 80
3, 15840, Note_off_c, 0, 60, 80
3, 15840, Note_off_c, 0, 56, 80
3, 15840, Note_off_c, 0, 51, 80
3, 15840, Note_off_c, 0, 44, 80
3, 15840, Note_on_c, 0, 68, 95
3, 15840, Note_on_c, 0, 63, 95
3, 15840, Note_on_c, 0, 60, 95
3, 15840, Note_on_c, 0, 56, 95
3, 15840, Note_on_c, 0, 51, 95
3, 15840, Note_on_c, 0, 44, 95
3, 16080, Note_off_c, 0, 68, 80
3, 16080, Note_off_c, 0, 63, 80
3, 16080, Note_off_c, 0, 60, 80
3, 16080, Note_off_c, 0, 56, 80
3, 16080, Note_off_c, 0, 51, 80
3, 16080, Note_off_c, 0, 44, 80
3, 16080, Note_on_c, 1, 68, 95
3, 16080, Note_on_c, 1, 63, 95
3, 16080, Note_on_c, 1, 60, 95
3, 16080, Note_on_c, 1, 56, 95
3, 16080, Note_on_c, 1, 51, 95
3, 16080, Note_on_c, 1, 44, 95
3, 16176, Pitch_bend_c, 1, 8832
3, 16176, Pitch_bend_c, 1, 8832
3, 16176, Pitch_bend_c, 1, 8832
3, 16176, Pitch_bend_c, 1, 8832
3, 16176, Pitch_bend_c, 1, 8832
3, 16176, Pitch_bend_c, 1, 8832
3, 16200, Note_off_c, 1, 68, 80
3, 16200, Pitch_bend_c, 1, 8192
3, 16200, Note_off_c, 1, 63, 80
3, 16200, Pitch_bend_c, 1, 8192
3, 16200, Note_off_c, 1, 60, 80
3, 16200, Pitch_bend_c, 1, 8192
3, 16200, Note_off_c, 1, 56, 80
3, 16200, Pitch_bend_c, 1, 8192
3, 16200, Note_off_c, 1, 51, 80
3, 16200, Pitch_bend_c, 1, 8192
3, 16200, Note_off_c, 1, 44, 80
3, 16200, Pitch_bend_c, 1, 8192
3, 16200, Note_on_c, 0, 69, 76
3, 16200, Note_on_c, 0, 64, 76
3, 16200, Note_on_c, 0, 61, 76
3, 16200, Note_on_c, 0, 57, 76
3, 16200, Note_on_c, 0, 52, 76
3, 16200, Note_on_c, 0, 45, 76
3, 16320, Note_off_c, 0, 69, 80
3, 16320, Note_off_c, 0, 64, 80
3, 16320, Note_off_c, 0, 61, 80
3, 16320, Note_off_c, 0, 57, 80
3, 16320, Note_off_c, 0, 52, 80
3, 16320, Note_off_c, 0, 45, 80
3, 16320, Note_on_c, 0, 69, 95
3, 16320, Note_on_c, 0, 64, 95
3, 16320, Note_on_c, 0, 61, 95
3, 16320, Note_on_c, 0, 57, 95
3, 16320, Note_on_c, 0, 52, 95
3, 16320, Note_on_c, 0, 45, 95
3, 16440, Note_off_c, 0, 69, 80
3, 16440, Note_off_c, 0, 64, 80
3, 16440, Note_off_c, 0, 61, 80
3, 16440, Note_off_c, 0, 57, 80
3, 16440, Note_off_c, 0, 52, 80
3, 16440, Note_off_c, 0, 45, 80
3, 16440, Note_on_c, 0, 69, 95
3, 16440, Note_on_c, 0, 64, 95
3, 16440, Note_on_c, 0, 61, 95
3, 16440, Note_on_c, 0, 57, 95
3, 16440, Note_on_c, 0, 52, 95
3, 16440, Note_on_c, 0, 45, 95
3, 16560, Note_off_c, 0, 69, 80
3, 16560, Note_off_c, 0, 64, 80
3, 16560, Note_off_c, 0, 61, 80
3, 16560, Note_off_c, 0, 57, 80
3, 16560, Note_off_c, 0, 52, 80
3, 16560, Note_off_c, 0, 45, 80
3, 16560, Note_on_c, 0, 69, 95
3, 16560, Note_on_c, 0, 64, 95
3, 16560, Note_on_c, 0, 61, 95
3, 16560, Note_on_c, 0, 57, 95
3, 16560, Note_on_c, 0, 52, 95
3, 16560, Note_on_c, 0, 45, 95
3, 16680, Note_off_c, 0, 69, 80
3, 16680, Note_off_c, 0, 64, 80
3, 16680, Note_off_c, 0, 61, 80
3, 16680, Note_off_c, 0, 57, 80
3, 16680, Note_off_c, 0, 52, 80
3, 16680, Note_off_c, 0, 45, 80
3, 16680, Note_on_c, 1, 68, 95
3, 16680, Note_on_c, 1, 63, 95
3, 16680, Note_on_c, 1, 60, 95
3, 16680, Note_on_c, 1, 56, 95
3, 16680, Note_on_c, 1, 51, 95
3, 16680, Note_on_c, 1, 44, 95
3, 16776, Pitch_bend_c, 1, 8832
3, 16776, Pitch_bend_c, 1, 8832
3, 16776, Pitch_bend_c, 1, 8832
3, 16776, Pitch_bend_c, 1, 8832
3, 16776, Pitch_bend_c, 1, 8832
3, 16776, Pitch_bend_c, 1, 8832
3, 16800, Note_off_c, 1, 68, 80
3, 16800, Pitch_bend_c, 1, 8192
3, 16800, Note_off_c, 1, 63, 80
3, 16800, Pitch_bend_c, 1, 8192
3, 16800, Note_off_c, 1, 60, 80
3, 16800, Pitch_bend_c, 1, 8192
3, 16800, Note_off_c, 1, 56, 80
3, 16800, Pitch_bend_c, 1, 8192
3, 16800, Note_off_c, 1, 51, 80
3, 16800, Pitch_bend_c, 1, 8192
3, 16800, Note_off_c, 1, 44, 80
3, 16800, Pitch_bend_c, 1, 8192
3, 16800, Note_on_c, 0, 69, 76
3, 16800, Note_on_c, 0, 64, 76
3, 16800, Note_on_c, 0, 61, 76
3, 16800, Note_on_c, 0, 57, 76
3, 16800, Note_on_c, 0, 52, 76
3, 16800, Note_on_c, 0, 45, 76
3, 16920, Note_off_c, 0, 69, 80
3, 16920, Note_off_c, 0, 64, 80
3, 16920, Note_off_c, 0, 61, 80
3, 16920, Note_off_c, 0, 57, 80
3, 16920, Note_off_c, 0, 52, 80
3, 16920, Note_off_c, 0, 45, 80
3, 16920, Note_on_c, 0, 69, 95
3, 16920, Note_on_c, 0, 64, 95
3, 16920, Note_on_c, 0, 61, 95
3, 16920, Note_on_c, 0, 57, 95
3, 16920, Note_on_c, 0, 52, 95
3, 16920, Note_on_c, 0, 45, 95
3, 17040, Note_off_c, 0, 69, 80
3, 17040, Note_off_c, 0, 64, 80
3, 17040, Note_off_c, 0, 61, 80
3, 17040, Note_off_c, 0, 57, 80
3, 17040, Note_off_c, 0, 52, 80
3, 17040, Note_off_c, 0, 45, 80
3, 17040, Note_on_c, 0, 69, 95
3, 17040, Note_on_c, 0, 64, 95
3, 17040, Note_on_c, 0, 61, 95
3, 17040, Note_on_c, 0, 57, 95
3, 17040, Note_on_c, 0, 52, 95
3, 17040, Note_on_c, 0, 45, 95
3, 17160, Note_off_c, 0, 69, 80
3, 17160, Note_off_c, 0, 64, 80
3, 17160, Note_off_c, 0, 61, 80
3, 17160, Note_off_c, 0, 57, 80
3, 17160, Note_off_c, 0, 52, 80
3, 17160, Note_off_c, 0, 45, 80
3, 17160, Note_on_c, 0, 55, 95
3, 17160, Note_on_c, 0, 50, 95
3, 17160, Note_on_c, 0, 45, 95
3, 17160, Note_on_c, 0, 40, 95
3, 17280, Note_off_c, 0, 55, 80
3, 17280, Note_off_c, 0, 50, 80
3, 17280, Note_off_c, 0, 45, 80
3, 17280, Note_off_c, 0, 40, 80
3, 17280, Note_on_c, 0, 64, 95
3, 17280, Note_on_c, 0, 59, 95
3, 17280, Note_on_c, 0, 56, 95
3, 17280, Note_on_c, 0, 52, 95
3, 17280, Note_on_c, 0, 47, 95
3, 17280, Note_on_c, 0, 40, 95
3, 17520, Note_off_c, 0, 64, 80
3, 17520, Note_off_c, 0, 59, 80
3, 17520, Note_off_c, 0, 56, 80
3, 17520, Note_off_c, 0, 52, 80
3, 17520, Note_off_c, 0, 47, 80
3, 17520, Note_off_c, 0, 40, 80
3, 17520, Note_on_c, 0, 64, 95
3, 17520, Note_on_c, 0, 59, 95
3, 17520, Note_on_c, 0, 56, 95
3, 17520, Note_on_c, 0, 52, 95
3, 17520, Note_on_c, 0, 47, 95
3, 17520, Note_on_c, 0, 40, 95
3, 17540, Note_off_c, 0, 64, 80
3, 17540, Note_off_c, 0, 59, 80
3, 17760, Note_off_c, 0, 56, 80
3, 17760, Note_off_c, 0, 52, 80
3, 17760, Note_off_c, 0, 47, 80
3, 17760, Note_off_c, 0, 40, 80
3, 17760, Note_on_c, 0, 64, 95
3, 17760, Note_on_c, 0, 59, 95
3, 17760, Note_on_c, 0, 56, 95
3, 17760, Note_on_c, 0, 52, 95
3, 17760, Note_on_c, 0, 47, 95
3, 17760, Note_on_c, 0, 40, 95
3, 18000, Note_off_c, 0, 64, 80
3, 18000, Note_off_c, 0, 59, 80
3, 18000, Note_off_c, 0, 56, 80
3, 18000, Note_off_c, 0, 52, 80
3, 18000, Note_off_c, 0, 47, 80
3, 18000, Note_off_c, 0, 40, 80
3, 18000, Note_on_c, 0, 64, 95
3, 18000, Note_on_c, 0, 59, 95
3, 18000, Note_on_c, 0, 56, 95
3, 18000, Note_on_c, 0, 52, 95
3, 18000, Note_on_c, 0, 47, 95
3, 18000, Note_on_c, 0, 40, 95
3, 18120, Note_off_c, 0, 64, 80
3, 18120, Note_off_c, 0, 59, 80
3, 18120, Note_off_c, 0, 56, 80
3, 18120, Note_off_c, 0, 52, 80
3, 18120, Note_off_c, 0, 47, 80
3, 18120, Note_off_c, 0, 40, 80
3, 18120, Note_on_c, 0, 55, 95
3, 18120, Note_on_c, 0, 50, 95
3, 18120, Note_on_c, 0, 45, 95
3, 18240, Note_off_c, 0, 55, 80
3, 18240, Note_off_c, 0, 50, 80
3, 18240, Note_off_c, 0, 45, 80
3, 18240, Note_on_c, 0, 68, 95
3, 18240, Note_on_c, 0, 64, 95
3, 18240, Note_on_c, 0, 61, 95
3, 18240, Note_on_c, 0, 56, 95
3, 18240, Note_on_c, 0, 49, 95
3, 18240, Note_on_c, 0, 44, 95
3, 18480, Note_off_c, 0, 68, 80
3, 18480, Note_off_c, 0, 64, 80
3, 18480, Note_off_c, 0, 61, 80
3, 18480, Note_off_c, 0, 56, 80
3, 18480, Note_off_c, 0, 49, 80
3, 18480, Note_off_c, 0, 44, 80
3, 18480, Note_on_c, 0, 68, 95
3, 18480, Note_on_c, 0, 64, 95
3, 18480, Note_on_c, 0, 61, 95
3, 18480, Note_on_c, 0, 56, 95
3, 18480, Note_on_c, 0, 49, 95
3, 18480, Note_on_c, 0, 44, 95
3, 18500, Note_off_c, 0, 68, 80
3, 18720, Note_off_c, 0, 64, 80
3, 18720, Note_off_c, 0, 61, 80
3, 18720, Note_off_c, 0, 56, 80
3, 18720, Note_off_c, 0, 49, 80
3, 18720, Note_off_c, 0, 44, 80
3, 18720, Note_on_c, 0, 68, 95
3, 18720, Note_on_c, 0, 64, 95
3, 18720, Note_on_c, 0, 61, 95
3, 18720, Note_on_c, 0, 56, 95
3, 18720, Note_on_c, 0, 49, 95
3, 18720, Note_on_c, 0, 44, 95
3, 18960, Note_off_c, 0, 68, 80
3, 18960, Note_off_c, 0, 64, 80
3, 18960, Note_off_c, 0, 61, 80
3, 18960, Note_off_c, 0, 56, 80
3, 18960, Note_off_c, 0, 49, 80
3, 18960, Note_off_c, 0, 44, 80
3, 18960, Note_on_c, 0, 68, 95
3, 18960, Note_on_c, 0, 64, 95
3, 18960, Note_on_c, 0, 61, 95
3, 18960, Note_on_c, 0, 56, 95
3, 18960, Note_on_c, 0, 49, 95
3, 18960, Note_on_c, 0, 44, 95
3, 19080, Note_off_c, 0, 68, 80
3, 19080, Note_off_c, 0, 64, 80
3, 19080, Note_off_c, 0, 61, 80
3, 19080, Note_off_c, 0, 56, 80
3, 19080, Note_off_c, 0, 49, 80
3, 19080, Note_off_c, 0, 44, 80
3, 19080, Note_on_c, 0, 50, 95
3, 19080, Note_on_c, 0, 45, 95
3, 19080, Note_on_c, 0, 40, 95
3, 19200, Note_off_c, 0, 50, 80
3, 19200, Note_off_c, 0, 45, 80
3, 19200, Note_off_c, 0, 40, 80
3, 19200, Note_on_c, 0, 68, 95
3, 19200, Note_on_c, 0, 63, 95
3, 19200, Note_on_c, 0, 60, 95
3, 19200, Note_on_c, 0, 56, 95
3, 19200, Note_on_c, 0, 51, 95
3, 19200, Note_on_c, 0, 44, 95
3, 19440, Note_off_c, 0, 68, 80
3, 19440, Note_off_c, 0, 63, 80
3, 19440, Note_off_c, 0, 60, 80
3, 19440, Note_off_c, 0, 56, 80
3, 19440, Note_off_c, 0, 51, 80
3, 19440, Note_off_c, 0, 44, 80
3, 19440, Note_on_c, 0, 68, 95
3, 19440, Note_on_c, 0, 63, 95
3, 19440, Note_on_c, 0, 60, 95
3, 19440, Note_on_c, 0, 56, 95
3, 19440, Note_on_c, 0, 51, 95
3, 19440, Note_on_c, 0, 44, 95
3, 19460, Note_off_c, 0, 68, 80
3, 19680, Note_off_c, 0, 63, 80
3, 19680, Note_off_c, 0, 60, 80
3, 19680, Note_off_c, 0, 56, 80
3, 19680, Note_off_c, 0, 51, 80
3, 19680, Note_off_c, 0, 44, 80
3, 19680, Note_on_c, 0, 68, 95
3, 19680, Note_on_c, 0, 63, 95
3, 19680, Note_on_c, 0, 60, 95
3, 19680, Note_on_c, 0, 56, 95
3, 19680, Note_on_c, 0, 51, 95
3, 19680, Note_on_c, 0, 44, 95
3, 19920, Note_off_c, 0, 68, 80
3, 19920, Note_off_c, 0, 63, 80
3, 19920, Note_off_c, 0, 60, 80
3, 19920, Note_off_c, 0, 56, 80
3, 19920, Note_off_c, 0, 51, 80
3, 19920, Note_off_c, 0, 44, 80
3, 19920, Note_on_c, 1, 68, 95
3, 19920, Note_on_c, 1, 63, 95
3, 19920, Note_on_c, 1, 60, 95
3, 19920, Note_on_c, 1, 56, 95
3, 19920, Note_on_c, 1, 51, 95
3, 19920, Note_on_c, 1, 44, 95
3, 20016, Pitch_bend_c, 1, 8832
3, 20016, Pitch_bend_c, 1, 8832
3, 20016, Pitch_bend_c, 1, 8832
3, 20016, Pitch_bend_c, 1, 8832
3, 20016, Pitch_bend_c, 1, 8832
3, 20016, Pitch_bend_c, 1, 8832
3, 20040, Note_off_c, 1, 68, 80
3, 20040, Pitch_bend_c, 1, 8192
3, 20040, Note_off_c, 1, 63, 80
3, 20040, Pitch_bend_c, 1, 8192
3, 20040, Note_off_c, 1, 60, 80
3, 20040, Pitch_bend_c, 1, 8192
3, 20040, Note_off_c, 1, 56, 80
3, 20040, Pitch_bend_c, 1, 8192
3, 20040, Note_off_c, 1, 51, 80
3, 20040, Pitch_bend_c, 1, 8192
3, 20040, Note_off_c, 1, 44, 80
3, 20040, Pitch_bend_c, 1, 8192
3, 20040, Note_on_c, 0, 69, 76
3, 20040, Note_on_c, 0, 64, 76
3, 20040, Note_on_c, 0, 61, 76
3, 20040, Note_on_c, 0, 57, 76
3, 20040, Note_on_c, 0, 52, 76
3, 20040, Note_on_c, 0, 45, 76
3, 20160, Note_off_c, 0, 69, 80
3, 20160, Note_off_c, 0, 64, 80
3, 20160, Note_off_c, 0, 61, 80
3, 20160, Note_off_c, 0, 57, 80
3, 20160, Note_off_c, 0, 52, 80
3, 20160, Note_off_c, 0, 45, 80
3, 20160, Note_on_c, 0, 69, 95
3, 20160, Note_on_c, 0, 64, 95
3, 20160, Note_on_c, 0, 61, 95
3, 20160, Note_on_c, 0, 57, 95
3, 20160, Note_on_c, 0, 52, 95
3, 20160, Note_on_c, 0, 45, 95
3, 20280, Note_off_c, 0, 69, 80
3, 20280, Note_off_c, 0, 64, 80
3, 20280, Note_off_c, 0, 61, 80
3, 20280, Note_off_c, 0, 57, 80
3, 20280, Note_off_c, 0, 52, 80
3, 20280, Note_off_c, 0, 45, 80
3, 20280, Note_on_c, 0, 69, 95
3, 20280, Note_on_c, 0, 64, 95
3, 20280, Note_on_c, 0, 61, 95
3, 20280, Note_on_c, 0, 57, 95
3, 20280, Note_on_c, 0, 52, 95
3, 20280, Note_on_c, 0, 45, 95
3, 20400, Note_off_c, 0, 69, 80
3, 20400, Note_off_c, 0, 64, 80
3, 20400, Note_off_c, 0, 61, 80
3, 20400, Note_off_c, 0, 57, 80
3, 20400, Note_off_c, 0, 52, 80
3, 20400, Note_off_c, 0, 45, 80
3, 20400, Note_on_c, 0, 69, 95
3, 20400, Note_on_c, 0, 64, 95
3, 20400, Note_on_c, 0, 61, 95
3, 20400, Note_on_c, 0, 57, 95
3, 20400, Note_on_c, 0, 52, 95
3, 20400, Note_on_c, 0, 45, 95
3, 20520, Note_off_c, 0, 69, 80
3, 20520, Note_off_c, 0, 64, 80
3, 20520, Note_off_c, 0, 61, 80
3, 20520, Note_off_c, 0, 57, 80
3, 20520, Note_off_c, 0, 52, 80
3, 20520, Note_off_c, 0, 45, 80
3, 20520, Note_on_c, 1, 68, 95
3, 20520, Note_on_c, 1, 63, 95
3, 20520, Note_on_c, 1, 60, 95
3, 20520, Note_on_c, 1, 56, 95
3, 20520, Note_on_c, 1, 51, 95
3, 20520, Note_on_c, 1, 44, 95
3, 20616, Pitch_bend_c, 1, 8832
3, 20616, Pitch_bend_c, 1, 8832
3, 20616, Pitch_bend_c, 1, 8832
3, 20616, Pitch_bend_c, 1, 8832
3, 20616, Pitch_bend_c, 1, 8832
3, 20616, Pitch_bend_c, 1, 8832
3, 20640, Note_off_c, 1, 68, 80
3, 20640, Pitch_bend_c, 1, 8192
3, 20640, Note_off_c, 1, 63, 80
3, 20640, Pitch_bend_c, 1, 8192
3, 20640, Note_off_c, 1, 60, 80
3, 20640, Pitch_bend_c, 1, 8192
3, 20640, Note_off_c, 1, 56, 80
3, 20640, Pitch_bend_c, 1, 8192
3, 20640, Note_off_c, 1, 51, 80
3, 20640, Pitch_bend_c, 1, 8192
3, 20640, Note_off_c, 1, 44, 80
3, 20640, Pitch_bend_c, 1, 8192
3, 20640, Note_on_c, 0, 69, 76
3, 20640, Note_on_c, 0, 64, 76
3, 20640, Note_on_c, 0, 61, 76
3, 20640, Note_on_c, 0, 57, 76
3, 20640, Note_on_c, 0, 52, 76
3, 20640, Note_on_c, 0, 45, 76
3, 20760, Note_off_c, 0, 69, 80
3, 20760, Note_off_c, 0, 64, 80
3, 20760, Note_off_c, 0, 61, 80
3, 20760, Note_off_c, 0, 57, 80
3, 20760, Note_off_c, 0, 52, 80
3, 20760, Note_off_c, 0, 45, 80
3, 20760, Note_on_c, 0, 69, 95
3, 20760, Note_on_c, 0, 64, 95
3, 20760, Note_on_c, 0, 61, 95
3, 20760, Note_on_c, 0, 57, 95
3, 20760, Note_on_c, 0, 52, 95
3, 20760, Note_on_c, 0, 45, 95
3, 20880, Note_off_c, 0, 69, 80
3, 20880, Note_off_c, 0, 64, 80
3, 20880, Note_off_c, 0, 61, 80
3, 20880, Note_off_c, 0, 57, 80
3, 20880, Note_off_c, 0, 52, 80
3, 20880, Note_off_c, 0, 45, 80
3, 20880, Note_on_c, 0, 69, 95
3, 20880, Note_on_c, 0, 64, 95
3, 20880, Note_on_c, 0, 61, 95
3, 20880, Note_on_c, 0, 57, 95
3, 20880, Note_on_c, 0, 52, 95
3, 20880, Note_on_c, 0, 45, 95
3, 21000, Note_off_c, 0, 69, 80
3, 21000, Note_off_c, 0, 64, 80
3, 21000, Note_off_c, 0, 61, 80
3, 21000, Note_off_c, 0, 57, 80
3, 21000, Note_off_c, 0, 52, 80
3, 21000, Note_off_c, 0, 45, 80
3, 21000, Note_on_c, 0, 55, 95
3, 21000, Note_on_c, 0, 50, 95
3, 21000, Note_on_c, 0, 45, 95
3, 21000, Note_on_c, 0, 40, 95
3, 21120, Note_off_c, 0, 55, 80
3, 21120, Note_off_c, 0, 50, 80
3, 21120, Note_off_c, 0, 45, 80
3, 21120, Note_off_c, 0, 40, 80
3, 21120, Note_on_c, 0, 64, 95
3, 21120, Note_on_c, 0, 59, 95
3, 21120, Note_on_c, 0, 56, 95
3, 21120, Note_on_c, 0, 52, 95
3, 21120, Note_on_c, 0, 47, 95
3, 21120, Note_on_c, 0, 40, 95
3, 21360, Note_off_c, 0, 64, 80
3, 21360, Note_off_c, 0, 59, 80
3, 21360, Note_off_c, 0, 56, 80
3, 21360, Note_off_c, 0, 52, 80
3, 21360, Note_off_c, 0, 47, 80
3, 21360, Note_off_c, 0, 40, 80
3, 21360, Note_on_c, 0, 64, 95
3, 21360, Note_on_c, 0, 59, 95
3, 21360, Note_on_c, 0, 56, 95
3, 21360, Note_on_c, 0, 52, 95
3, 21360, Note_on_c, 0, 47, 95
3, 21360, Note_on_c, 0, 40, 95
3, 21380, Note_off_c, 0, 64, 80
3, 21380, Note_off_c, 0, 59, 80
3, 21600, Note_off_c, 0, 56, 80
3, 21600, Note_off_c, 0, 52, 80
3, 21600, Note_off_c, 0, 47, 80
3, 21600, Note_off_c, 0, 40, 80
3, 21600, Note_on_c, 0, 64, 95
3, 21600, Note_on_c, 0, 59, 95
3, 21600, Note_on_c, 0, 56, 95
3, 21600, Note_on_c, 0, 52, 95
3, 21600, Note_on_c, 0, 47, 95
3, 21600, Note_on_c, 0, 40, 95
3, 21840, Note_off_c, 0, 64, 80
3, 21840, Note_off_c, 0, 59, 80
3, 21840, Note_off_c, 0, 56, 80
3, 21840, Note_off_c, 0, 52, 80
3, 21840, Note_off_c, 0, 47, 80
3, 21840, Note_off_c, 0, 40, 80
3, 21840, Note_on_c, 0, 64, 95
3, 21840, Note_on_c, 0, 59, 95
3, 21840, Note_on_c, 0, 56, 95
3, 21840, Note_on_c, 0, 52, 95
3, 21840, Note_on_c, 0, 47, 95
3, 21840, Note_on_c, 0, 40, 95
3, 21960, Note_off_c, 0, 64, 80
3, 21960, Note_off_c, 0, 59, 80
3, 21960, Note_off_c, 0, 56, 80
3, 21960, Note_off_c, 0, 52, 80
3, 21960, Note_off_c, 0, 47, 80
3, 21960, Note_off_c, 0, 40, 80
3, 21960, Note_on_c, 0, 55, 95
3, 21960, Note_on_c, 0, 50, 95
3, 21960, Note_on_c, 0, 45, 95
3, 22080, Note_off_c, 0, 55, 80
3, 22080, Note_off_c, 0, 50, 80
3, 22080, Note_off_c, 0, 45, 80
3, 22080, Note_on_c, 0, 68, 95
3, 22080, Note_on_c, 0, 64, 95
3, 22080, Note_on_c, 0, 61, 95
3, 22080, Note_on_c, 0, 56, 95
3, 22080, Note_on_c, 0, 49, 95
3, 22080, Note_on_c, 0, 44, 95
3, 22320, Note_off_c, 0, 68, 80
3, 22320, Note_off_c, 0, 64, 80
3, 22320, Note_off_c, 0, 61, 80
3, 22320, Note_off_c, 0, 56, 80
3, 22320, Note_off_c, 0, 49, 80
3, 22320, Note_off_c, 0, 44, 80
3, 22320, Note_on_c, 0, 68, 95
3, 22320, Note_on_c, 0, 64, 95
3, 22320, Note_on_c, 0, 61, 95
3, 22320, Note_on_c, 0, 56, 95
3, 22320, Note_on_c, 0, 49, 95
3, 22320, Note_on_c, 0, 44, 95
3, 22340, Note_off_c, 0, 68, 80
3, 22560, Note_off_c, 0, 64, 80
3, 22560, Note_off_c, 0, 61, 80
3, 22560, Note_off_c, 0, 56, 80
3, 22560, Note_off_c, 0, 49, 80
3, 22560, Note_off_c, 0, 44, 80
3, 22560, Note_on_c, 0, 68, 95
3, 22560, Note_on_c, 0, 64, 95
3, 22560, Note_on_c, 0, 61, 95
3, 22560, Note_on_c, 0, 56, 95
3, 22560, Note_on_c, 0, 49, 95
3, 22560, Note_on_c, 0, 44, 95
3, 22800, Note_off_c, 0, 68, 80
3, 22800, Note_off_c, 0, 64, 80
3, 22800, Note_off_c, 0, 61, 80
3, 22800, Note_off_c, 0, 56, 80
3, 22800, Note_off_c, 0, 49, 80
3, 22800, Note_off_c, 0, 44, 80
3, 22800, Note_on_c, 0, 68, 95
3, 22800, Note_on_c, 0, 64, 95
3, 22800, Note_on_c, 0, 61, 95
3, 22800, Note_on_c, 0, 56, 95
3, 22800, Note_on_c, 0, 49, 95
3, 22800, Note_on_c, 0, 44, 95
3, 22920, Note_off_c, 0, 68, 80
3, 22920, Note_off_c, 0, 64, 80
3, 22920, Note_off_c, 0, 61, 80
3, 22920, Note_off_c, 0, 56, 80
3, 22920, Note_off_c, 0, 49, 80
3, 22920, Note_off_c, 0, 44, 80
3, 22920, Note_on_c, 0, 50, 95
3, 22920, Note_on_c, 0, 45, 95
3, 22920, Note_on_c, 0, 40, 95
3, 23040, Note_off_c, 0, 50, 80
3, 23040, Note_off_c, 0, 45, 80
3, 23040, Note_off_c, 0, 40, 80
3, 23040, Note_on_c, 0, 68, 95
3, 23040, Note_on_c, 0, 63, 95
3, 23040, Note_on_c, 0, 60, 95
3, 23040, Note_on_c, 0, 56, 95
3, 23040, Note_on_c, 0, 51, 95
3, 23040, Note_on_c, 0, 44, 95
3, 23280, Note_off_c, 0, 68, 80
3, 23280, Note_off_c, 0, 63, 80
3, 23280, Note_off_c, 0, 60, 80
3, 23280, Note_off_c, 0, 56, 80
3, 23280, Note_off_c, 0, 51, 80
3, 23280, Note_off_c, 0, 44, 80
3, 23280, Note_on_c, 0, 68, 95
3, 23280, Note_on_c, 0, 63, 95
3, 23280, Note_on_c, 0, 60, 95
3, 23280, Note_on_c, 0, 56, 95
3, 23280, Note_on_c, 0, 51, 95
3, 23280, Note_on_c, 0, 44, 95
3, 23300, Note_off_c, 0, 68, 80
3, 23520, Note_off_c, 0, 63, 80
3, 23520, Note_off_c, 0, 60, 80
3, 23520, Note_off_c, 0, 56, 80
3, 23520, Note_off_c, 0, 51, 80
3, 23520, Note_off_c, 0, 44, 80
3, 23520, Note_on_c, 0, 68, 95
3, 23520, Note_on_c, 0, 63, 95
3, 23520, Note_on_c, 0, 60, 95
3, 23520, Note_on_c, 0, 56, 95
3, 23520, Note_on_c, 0, 51, 95
3, 23520, Note_on_c, 0, 44, 95
3, 23760, Note_off_c, 0, 68, 80
3, 23760, Note_off_c, 0, 63, 80
3, 23760, Note_off_c, 0, 60, 80
3, 23760, Note_off_c, 0, 56, 80
3, 23760, Note_off_c, 0, 51, 80
3, 23760, Note_off_c, 0, 44, 80
3, 23760, Note_on_c, 1, 68, 95
3, 23760, Note_on_c, 1, 63, 95
3, 23760, Note_on_c, 1, 60, 95
3, 23760, Note_on_c, 1, 56, 95
3, 23760, Note_on_c, 1, 51, 95
3, 23760, Note_on_c, 1, 44, 95
3, 23856, Pitch_bend_c, 1, 8832
3, 23856, Pitch_bend_c, 1, 8832
3, 23856, Pitch_bend_c, 1, 8832
3, 23856, Pitch_bend_c, 1, 8832
3, 23856, Pitch_bend_c, 1, 8832
3, 23856, Pitch_bend_c, 1, 8832
3, 23880, Note_off_c, 1, 68, 80
3, 23880, Pitch_bend_c, 1, 8192
3, 23880, Note_off_c, 1, 63, 80
3, 23880, Pitch_bend_c, 1, 8192
3, 23880, Note_off_c, 1, 60, 80
3, 23880, Pitch_bend_c, 1, 8192
3, 23880, Note_off_c, 1, 56, 80
3, 23880, Pitch_bend_c, 1, 8192
3, 23880, Note_off_c, 1, 51, 80
3, 23880, Pitch_bend_c, 1, 8192
3, 23880, Note_off_c, 1, 44, 80
3, 23880, Pitch_bend_c, 1, 8192
3, 23880, Note_on_c, 0, 69, 76
3, 23880, Note_on_c, 0, 64, 76
3, 23880, Note_on_c, 0, 61, 76
3, 23880, Note_on_c, 0, 57, 76
3, 23880, Note_on_c, 0, 52, 76
3, 23880, Note_on_c, 0, 45, 76
3, 24000, Note_off_c, 0, 69, 80
3, 24000, Note_off_c, 0, 64, 80
3, 24000, Note_off_c, 0, 61, 80
3, 24000, Note_off_c, 0, 57, 80
3, 24000, Note_off_c, 0, 52, 80
3, 24000, Note_off_c, 0, 45, 80
3, 24000, Note_on_c, 0, 69, 95
3, 24000, Note_on_c, 0, 64, 95
3, 24000, Note_on_c, 0, 61, 95
3, 24000, Note_on_c, 0, 57, 95
3, 24000, Note_on_c, 0, 52, 95
3, 24000, Note_on_c, 0, 45, 95
3, 24120, Note_off_c, 0, 69, 80
3, 24120, Note_off_c, 0, 64, 80
3, 24120, Note_off_c, 0, 61, 80
3, 24120, Note_off_c, 0, 57, 80
3, 24120, Note_off_c, 0, 52, 80
3, 24120, Note_off_c, 0, 45, 80
3, 24120, Note_on_c, 0, 69, 95
3, 24120, Note_on_c, 0, 64, 95
3, 24120, Note_on_c, 0, 61, 95
3, 24120, Note_on_c, 0, 57, 95
3, 24120, Note_on_c, 0, 52, 95
3, 24120, Note_on_c, 0, 45, 95
3, 24240, Note_off_c, 0, 69, 80
3, 24240, Note_off_c, 0, 64, 80
3, 24240, Note_off_c, 0, 61, 80
3, 24240, Note_off_c, 0, 57, 80
3, 24240, Note_off_c, 0, 52, 80
3, 24240, Note_off_c, 0, 45, 80
3, 24240, Note_on_c, 0, 69, 95
3, 24240, Note_on_c, 0, 64, 95
3, 24240, Note_on_c, 0, 61, 95
3, 24240, Note_on_c, 0, 57, 95
3, 24240, Note_on_c, 0, 52, 95
3, 24240, Note_on_c, 0, 45, 95
3, 24360, Note_off_c, 0, 69, 80
3, 24360, Note_off_c, 0, 64, 80
3, 24360, Note_off_c, 0, 61, 80
3, 24360, Note_off_c, 0, 57, 80
3, 24360, Note_off_c, 0, 52, 80
3, 24360, Note_off_c, 0, 45, 80
3, 24360, Note_on_c, 1, 68, 95
3, 24360, Note_on_c, 1, 63, 95
3, 24360, Note_on_c, 1, 60, 95
3, 24360, Note_on_c, 1, 56, 95
3, 24360, Note_on_c, 1, 51, 95
3, 24360, Note_on_c, 1, 44, 95
3, 24456, Pitch_bend_c, 1, 8832
3, 24456, Pitch_bend_c, 1, 8832
3, 24456, Pitch_bend_c, 1, 8832
3, 24456, Pitch_bend_c, 1, 8832
3, 24456, Pitch_bend_c, 1, 8832
3, 24456, Pitch_bend_c, 1, 8832
3, 24480, Note_off_c, 1, 68, 80
3, 24480, Pitch_bend_c, 1, 8192
3, 24480, Note_off_c, 1, 63, 80
3, 24480, Pitch_bend_c, 1, 8192
3, 24480, Note_off_c, 1, 60, 80
3, 24480, Pitch_bend_c, 1, 8192
3, 24480, Note_off_c, 1, 56, 80
3, 24480, Pitch_bend_c, 1, 8192
3, 24480, Note_off_c, 1, 51, 80
3, 24480, Pitch_bend_c, 1, 8192
3, 24480, Note_off_c, 1, 44, 80
3, 24480, Pitch_bend_c, 1, 8192
3, 24480, Note_on_c, 0, 69, 76
3, 24480, Note_on_c, 0, 64, 76
3, 24480, Note_on_c, 0, 61, 76
3, 24480, Note_on_c, 0, 57, 76
3, 24480, Note_on_c, 0, 52, 76
3, 24480, Note_on_c, 0, 45, 76
3, 24600, Note_off_c, 0, 69, 80
3, 24600, Note_off_c, 0, 64, 80
3, 24600, Note_off_c, 0, 61, 80
3, 24600, Note_off_c, 0, 57, 80
3, 24600, Note_off_c, 0, 52, 80
3, 24600, Note_off_c, 0, 45, 80
3, 24600, Note_on_c, 0, 69, 95
3, 24600, Note_on_c, 0, 64, 95
3, 24600, Note_on_c, 0, 61, 95
3, 24600, Note_on_c, 0, 57, 95
3, 24600, Note_on_c, 0, 52, 95
3, 24600, Note_on_c, 0, 45, 95
3, 24720, Note_off_c, 0, 69, 80
3, 24720, Note_off_c, 0, 64, 80
3, 24720, Note_off_c, 0, 61, 80
3, 24720, Note_off_c, 0, 57, 80
3, 24720, Note_off_c, 0, 52, 80
3, 24720, Note_off_c, 0, 45, 80
3, 24720, Note_on_c, 0, 69, 95
3, 24720, Note_on_c, 0, 64, 95
3, 24720, Note_on_c, 0, 61, 95
3, 24720, Note_on_c, 0, 57, 95
3, 24720, Note_on_c, 0, 52, 95
3, 24720, Note_on_c, 0, 45, 95
3, 24840, Note_off_c, 0, 69, 80
3, 24840, Note_off_c, 0, 64, 80
3, 24840, Note_off_c, 0, 61, 80
3, 24840, Note_off_c, 0, 57, 80
3, 24840, Note_off_c, 0, 52, 80
3, 24840, Note_off_c, 0, 45, 80
3, 24840, Note_on_c, 0, 55, 95
3, 24840, Note_on_c, 0, 50, 95
3, 24840, Note_on_c, 0, 45, 95
3, 24840, Note_on_c, 0, 40, 95
3, 24960, Note_off_c, 0, 55, 80
3, 24960, Note_off_c, 0, 50, 80
3, 24960, Note_off_c, 0, 45, 80
3, 24960, Note_off_c, 0, 40, 80
3, 24960, Note_on_c, 0, 64, 95
3, 24960, Note_on_c, 0, 59, 95
3, 24960, Note_on_c, 0, 56, 95
3, 24960, Note_on_c, 0, 52, 95
3, 24960, Note_on_c, 0, 47, 95
3, 24960, Note_on_c, 0, 40, 95
3, 25200, Note_off_c, 0, 64, 80
3, 25200, Note_off_c, 0, 59, 80
3, 25200, Note_off_c, 0, 56, 80
3, 25200, Note_off_c, 0, 52, 80
3, 25200, Note_off_c, 0, 47, 80
3, 25200, Note_off_c, 0, 40, 80
3, 25200, Note_on_c, 0, 64, 95
3, 25200, Note_on_c, 0, 59, 95
3, 25200, Note_on_c, 0, 56, 95
3, 25200, Note_on_c, 0, 52, 95
3, 25200, Note_on_c, 0, 47, 95
3, 25200, Note_on_c, 0, 40, 95
3, 25220, Note_off_c, 0, 64, 80
3, 25220, Note_off_c, 0, 59, 80
3, 25440, Note_off_c, 0, 56, 80
3, 25440, Note_off_c, 0, 52, 80
3, 25440, Note_off_c, 0, 47, 80
3, 25440, Note_off_c, 0, 40, 80
3, 25440, Note_on_c, 0, 64, 95
3, 25440, Note_on_c, 0, 59, 95
3, 25440, Note_on_c, 0, 56, 95
3, 25440, Note_on_c, 0, 52, 95
3, 25440, Note_on_c, 0, 47, 95
3, 25440, Note_on_c, 0, 40, 95
3, 25680, Note_off_c, 0, 64, 80
3, 25680, Note_off_c, 0, 59, 80
3, 25680, Note_off_c, 0, 56, 80
3, 25680, Note_off_c, 0, 52, 80
3, 25680, Note_off_c, 0, 47, 80
3, 25680, Note_off_c, 0, 40, 80
3, 25680, Note_on_c, 0, 64, 95
3, 25680, Note_on_c, 0, 59, 95
3, 25680, Note_on_c, 0, 56, 95
3, 25680, Note_on_c, 0, 52, 95
3, 25680, Note_on_c, 0, 47, 95
3, 25680, Note_on_c, 0, 40, 95
3, 25800, Note_off_c, 0, 64, 80
3, 25800, Note_off_c, 0, 59, 80
3, 25800, Note_off_c, 0, 56, 80
3, 25800, Note_off_c, 0, 52, 80
3, 25800, Note_off_c, 0, 47, 80
3, 25800, Note_off_c, 0, 40, 80
3, 25800, Note_on_c, 0, 55, 95
3, 25800, Note_on_c, 0, 50, 95
3, 25800, Note_on_c, 0, 45, 95
3, 25920, Note_off_c, 0, 55, 80
3, 25920, Note_off_c, 0, 50, 80
3, 25920, Note_off_c, 0, 45, 80
3, 25920, Note_on_c, 0, 68, 95
3, 25920, Note_on_c, 0, 64, 95
3, 25920, Note_on_c, 0, 61, 95
3, 25920, Note_on_c, 0, 56, 95
3, 25920, Note_on_c, 0, 49, 95
3, 25920, Note_on_c, 0, 44, 95
3, 26160, Note_off_c, 0, 68, 80
3, 26160, Note_off_c, 0, 64, 80
3, 26160, Note_off_c, 0, 61, 80
3, 26160, Note_off_c, 0, 56, 80
3, 26160, Note_off_c, 0, 49, 80
3, 26160, Note_off_c, 0, 44, 80
3, 26160, Note_on_c, 0, 68, 95
3, 26160, Note_on_c, 0, 64, 95
3, 26160, Note_on_c, 0, 61, 95
3, 26160, Note_on_c, 0, 56, 95
3, 26160, Note_on_c, 0, 49, 95
3, 26160, Note_on_c, 0, 44, 95
3, 26180, Note_off_c, 0, 68, 80
3, 26400, Note_off_c, 0, 64, 80
3, 26400, Note_off_c, 0, 61, 80
3, 26400, Note_off_c, 0, 56, 80
3, 26400, Note_off_c, 0, 49, 80
3, 26400, Note_off_c, 0, 44, 80
3, 26400, Note_on_c, 0, 68, 95
3, 26400, Note_on_c, 0, 64, 95
3, 26400, Note_on_c, 0, 61, 95
3, 26400, Note_on_c, 0, 56, 95
3, 26400, Note_on_c, 0, 49, 95
3, 26400, Note_on_c, 0, 44, 95
3, 26640, Note_off_c, 0, 68, 80
3, 26640, Note_off_c, 0, 64, 80
3, 26640, Note_off_c, 0, 61, 80
3, 26640, Note_off_c, 0, 56, 80
3, 26640, Note_off_c, 0, 49, 80
3, 26640, Note_off_c, 0, 44, 80
3, 26640, Note_on_c, 0, 68, 95
3, 26640, Note_on_c, 0, 64, 95
3, 26640, Note_on_c, 0, 61, 95
3, 26640, Note_on_c, 0, 56, 95
3, 26640, Note_on_c, 0, 49, 95
3, 26640, Note_on_c, 0, 44, 95
3, 26760, Note_off_c, 0, 68, 80
3, 26760, Note_off_c, 0, 64, 80
3, 26760, Note_off_c, 0, 61, 80
3, 26760, Note_off_c, 0, 56, 80
3, 26760, Note_off_c, 0, 49, 80
3, 26760, Note_off_c, 0, 44, 80
3, 26760, Note_on_c, 0, 50, 95
3, 26760, Note_on_c, 0, 45, 95
3, 26760, Note_on_c, 0, 40, 95
3, 26880, Note_off_c, 0, 50, 80
3, 26880, Note_off_c, 0, 45, 80
3, 26880, Note_off_c, 0, 40, 80
3, 26880, Note_on_c, 0, 68, 95
3, 26880, Note_on_c, 0, 63, 95
3, 26880, Note_on_c, 0, 60, 95
3, 26880, Note_on_c, 0, 56, 95
3, 26880, Note_on_c, 0, 51, 95
3, 26880, Note_on_c, 0, 44, 95
3, 27120, Note_off_c, 0, 68, 80
3, 27120, Note_off_c, 0, 63, 80
3, 27120, Note_off_c, 0, 60, 80
3, 27120, Note_off_c, 0, 56, 80
3, 27120, Note_off_c, 0, 51, 80
3, 27120, Note_off_c, 0, 44, 80
3, 27120, Note_on_c, 0, 68, 95
3, 27120, Note_on_c, 0, 63, 95
3, 27120, Note_on_c, 0, 60, 95
3, 27120, Note_on_c, 0, 56, 95
3, 27120, Note_on_c, 0, 51, 95
3, 27120, Note_on_c, 0, 44, 95
3, 27140, Note_off_c, 0, 68, 80
3, 27360, Note_off_c, 0, 63, 80
3, 27360, Note_off_c, 0, 60, 80
3, 27360, Note_off_c, 0, 56, 80
3, 27360, Note_off_c, 0, 51, 80
3, 27360, Note_off_c, 0, 44, 80
3, 27360, Note_on_c, 0, 68, 95
3, 27360, Note_on_c, 0, 63, 95
3, 27360, Note_on_c, 0, 60, 95
3, 27360, Note_on_c, 0, 56, 95
3, 27360, Note_on_c, 0, 51, 95
3, 27360, Note_on_c, 0, 44, 95
3, 27600, Note_off_c, 0, 68, 80
3, 27600, Note_off_c, 0, 63, 80
3, 27600, Note_off_c, 0, 60, 80
3, 27600, Note_off_c, 0, 56, 80
3, 27600, Note_off_c, 0, 51, 80
3, 27600, Note_off_c, 0, 44, 80
3, 27600, Note_on_c, 1, 68, 95
3, 27600, Note_on_c, 1, 63, 95
3, 27600, Note_on_c, 1, 60, 95
3, 27600, Note_on_c, 1, 56, 95
3, 27600, Note_on_c, 1, 51, 95
3, 27600, Note_on_c, 1, 44, 95
3, 27696, Pitch_bend_c, 1, 8832
3, 27696, Pitch_bend_c, 1, 8832
3, 27696, Pitch_bend_c, 1, 8832
3, 27696, Pitch_bend_c, 1, 8832
3, 27696, Pitch_bend_c, 1, 8832
3, 27696, Pitch_bend_c, 1, 8832
3, 27720, Note_off_c, 1, 68, 80
3, 27720, Pitch_bend_c, 1, 8192
3, 27720, Note_off_c, 1, 63, 80
3, 27720, Pitch_bend_c, 1, 8192
3, 27720, Note_off_c, 1, 60, 80
3, 27720, Pitch_bend_c, 1, 8192
3, 27720, Note_off_c, 1, 56, 80
3, 27720, Pitch_bend_c, 1, 8192
3, 27720, Note_off_c, 1, 51, 80
3, 27720, Pitch_bend_c, 1, 8192
3, 27720, Note_off_c, 1, 44, 80
3, 27720, Pitch_bend_c, 1, 8192
3, 27720, Note_on_c, 0, 69, 76
3, 27720, Note_on_c, 0, 64, 76
3, 27720, Note_on_c, 0, 61, 76
3, 27720, Note_on_c, 0, 57, 76
3, 27720, Note_on_c, 0, 52, 76
3, 27720, Note_on_c, 0, 45, 76
3, 27840, Note_off_c, 0, 69, 80
3, 27840, Note_off_c, 0, 64, 80
3, 27840, Note_off_c, 0, 61, 80
3, 27840, Note_off_c, 0, 57, 80
3, 27840, Note_off_c, 0, 52, 80
3, 27840, Note_off_c, 0, 45, 80
3, 27840, Note_on_c, 0, 69, 95
3, 27840, Note_on_c, 0, 64, 95
3, 27840, Note_on_c, 0, 61, 95
3, 27840, Note_on_c, 0, 57, 95
3, 27840, Note_on_c, 0, 52, 95
3, 27840, Note_on_c, 0, 45, 95
3, 27960, Note_off_c, 0, 69, 80
3, 27960, Note_off_c, 0, 64, 80
3, 27960, Note_off_c, 0, 61, 80
3, 27960, Note_off_c, 0, 57, 80
3, 27960, Note_off_c, 0, 52, 80
3, 27960, Note_off_c, 0, 45, 80
3, 27960, Note_on_c, 0, 69, 95
3, 27960, Note_on_c, 0, 64, 95
3, 27960, Note_on_c, 0, 61, 95
3, 27960, Note_on_c, 0, 57, 95
3, 27960, Note_on_c, 0, 52, 95
3, 27960, Note_on_c, 0, 45, 95
3, 28080, Note_off_c, 0, 69, 80
3, 28080, Note_off_c, 0, 64, 80
3, 28080, Note_off_c, 0, 61, 80
3, 28080, Note_off_c, 0, 57, 80
3, 28080, Note_off_c, 0, 52, 80
3, 28080, Note_off_c, 0, 45, 80
3, 28080, Note_on_c, 0, 69, 95
3, 28080, Note_on_c, 0, 64, 95
3, 28080, Note_on_c, 0, 61, 95
3, 28080, Note_on_c, 0, 57, 95
3, 28080, Note_on_c, 0, 52, 95
3, 28080, Note_on_c, 0, 45, 95
3, 28200, Note_off_c, 0, 69, 80
3, 28200, Note_off_c, 0, 64, 80
3, 28200, Note_off_c, 0, 61, 80
3, 28200, Note_off_c, 0, 57, 80
3, 28200, Note_off_c, 0, 52, 80
3, 28200, Note_off_c, 0, 45, 80
3, 28200, Note_on_c, 1, 68, 95
3, 28200, Note_on_c, 1, 63, 95
3, 28200, Note_on_c, 1, 60, 95
3, 28200, Note_on_c, 1, 56, 95
3, 28200, Note_on_c, 1, 51, 95
3, 28200, Note_on_c, 1, 44, 95
3, 28296, Pitch_bend_c, 1, 8832
3, 28296, Pitch_bend_c, 1, 8832
3, 28296, Pitch_bend_c, 1, 8832
3, 28296, Pitch_bend_c, 1, 8832
3, 28296, Pitch_bend_c, 1, 8832
3, 28296, Pitch_bend_c, 1, 8832
3, 28320, Note_off_c, 1, 68, 80
3, 28320, Pitch_bend_c, 1, 8192
3, 28320, Note_off_c, 1, 63, 80
3, 28320, Pitch_bend_c, 1, 8192
3, 28320, Note_off_c, 1, 60, 80
3, 28320, Pitch_bend_c, 1, 8192
3, 28320, Note_off_c, 1, 56, 80
3, 28320, Pitch_bend_c, 1, 8192
3, 28320, Note_off_c, 1, 51, 80
3, 28320, Pitch_bend_c, 1, 8192
3, 28320, Note_off_c, 1, 44, 80
3, 28320, Pitch_bend_c, 1, 8192
3, 28320, Note_on_c, 0, 69, 76
3, 28320, Note_on_c, 0, 64, 76
3, 28320, Note_on_c, 0, 61, 76
3, 28320, Note_on_c, 0, 57, 76
3, 28320, Note_on_c, 0, 52, 76
3, 28320, Note_on_c, 0, 45, 76
3, 28440, Note_off_c, 0, 69, 80
3, 28440, Note_off_c, 0, 64, 80
3, 28440, Note_off_c, 0, 61, 80
3, 28440, Note_off_c, 0, 57, 80
3, 28440, Note_off_c, 0, 52, 80
3, 28440, Note_off_c, 0, 45, 80
3, 28440, Note_on_c, 0, 69, 95
3, 28440, Note_on_c, 0, 64, 95
3, 28440, Note_on_c, 0, 61, 95
3, 28440, Note_on_c, 0, 57, 95
3, 28440, Note_on_c, 0, 52, 95
3, 28440, Note_on_c, 0, 45, 95
3, 28560, Note_off_c, 0, 69, 80
3, 28560, Note_off_c, 0, 64, 80
3, 28560, Note_off_c, 0, 61, 80
3, 28560, Note_off_c, 0, 57, 80
3, 28560, Note_off_c, 0, 52, 80
3, 28560, Note_off_c, 0, 45, 80
3, 28560, Note_on_c, 0, 69, 95
3, 28560, Note_on_c, 0, 64, 95
3, 28560, Note_on_c, 0, 61, 95
3, 28560, Note_on_c, 0, 57, 95
3, 28560, Note_on_c, 0, 52, 95
3, 28560, Note_on_c, 0, 45, 95
3, 28680, Note_off_c, 0, 69, 80
3, 28680, Note_off_c, 0, 64, 80
3, 28680, Note_off_c, 0, 61, 80
3, 28680, Note_off_c, 0, 57, 80
3, 28680, Note_off_c, 0, 52, 80
3, 28680, Note_off_c, 0, 45, 80
3, 28680, Note_on_c, 0, 55, 95
3, 28680, Note_on_c, 0, 50, 95
3, 28680, Note_on_c, 0, 45, 95
3, 28680, Note_on_c, 0, 40, 95
3, 28800, Note_off_c, 0, 55, 80
3, 28800, Note_off_c, 0, 50, 80
3, 28800, Note_off_c, 0, 45, 80
3, 28800, Note_off_c, 0, 40, 80
3, 28800, Note_on_c, 0, 64, 79
3, 28800, Note_on_c, 0, 59, 79
3, 28800, Note_on_c, 0, 56, 79
3, 28800, Note_on_c, 0, 52, 79
3, 28800, Note_on_c, 0, 47, 79
3, 28800, Note_on_c, 0, 40, 79
3, 29040, Note_off_c, 0, 64, 80
3, 29040, Note_off_c, 0, 59, 80
3, 29040, Note_off_c, 0, 56, 80
3, 29040, Note_off_c, 0, 52, 80
3, 29040, Note_off_c, 0, 47, 80
3, 29040, Note_off_c, 0, 40, 80
3, 29040, Note_on_c, 0, 64, 79
3, 29040, Note_on_c, 0, 59, 79
3, 29040, Note_on_c, 0, 56, 79
3, 29040, Note_on_c, 0, 52, 79
3, 29040, Note_on_c, 0, 47, 79
3, 29040, Note_on_c, 0, 40, 79
3, 29060, Note_off_c, 0, 64, 80
3, 29060, Note_off_c, 0, 59, 80
3, 29280, Note_off_c, 0, 56, 80
3, 29280, Note_off_c, 0, 52, 80
3, 29280, Note_off_c, 0, 47, 80
3, 29280, Note_off_c, 0, 40, 80
3, 29280, Note_on_c, 0, 64, 79
3, 29280, Note_on_c, 0, 59, 79
3, 29280, Note_on_c, 0, 56, 79
3, 29280, Note_on_c, 0, 52, 79
3, 29280, Note_on_c, 0, 47, 79
3, 29280, Note_on_c, 0, 40, 79
3, 29520, Note_off_c, 0, 64, 80
3, 29520, Note_off_c, 0, 59, 80
3, 29520, Note_off_c, 0, 56, 80
3, 29520, Note_off_c, 0, 52, 80
3, 29520, Note_off_c, 0, 47, 80
3, 29520, Note_off_c, 0, 40, 80
3, 29520, Note_on_c, 0, 64, 79
3, 29520, Note_on_c, 0, 59, 79
3, 29520, Note_on_c, 0, 56, 79
3, 29520, Note_on_c, 0, 52, 79
3, 29520, Note_on_c, 0, 47, 79
3, 29520, Note_on_c, 0, 40, 79
3, 29640, Note_off_c, 0, 64, 80
3, 29640, Note_off_c, 0, 59, 80
3, 29640, Note_off_c, 0, 56, 80
3, 29640, Note_off_c, 0, 52, 80
3, 29640, Note_off_c, 0, 47, 80
3, 29640, Note_off_c, 0, 40, 80
3, 29640, Note_on_c, 0, 55, 79
3, 29640, Note_on_c, 0, 50, 79
3, 29640, Note_on_c, 0, 45, 79
3, 29760, Note_off_c, 0, 55, 80
3, 29760, Note_off_c, 0, 50, 80
3, 29760, Note_off_c, 0, 45, 80
3, 29760, Note_on_c, 0, 68, 79
3, 29760, Note_on_c, 0, 64, 79
3, 29760, Note_on_c, 0, 61, 79
3, 29760, Note_on_c, 0, 56, 79
3, 29760, Note_on_c, 0, 49, 79
3, 29760, Note_on_c, 0, 44, 79
3, 30000, Note_off_c, 0, 68, 80
3, 30000, Note_off_c, 0, 64, 80
3, 30000, Note_off_c, 0, 61, 80
3, 30000, Note_off_c, 0, 56, 80
3, 30000, Note_off_c, 0, 49, 80
3, 30000, Note_off_c, 0, 44, 80
3, 30000, Note_on_c, 0, 68, 95
3, 30000, Note_on_c, 0, 64, 79
3, 30000, Note_on_c, 0, 61, 79
3, 30000, Note_on_c, 0, 56, 79
3, 30000, Note_on_c, 0, 49, 79
3, 30000, Note_on_c, 0, 44, 79
3, 30020, Note_off_c, 0, 68, 80
3, 30240, Note_off_c, 0, 64, 80
3, 30240, Note_off_c, 0, 61, 80
3, 30240, Note_off_c, 0, 56, 80
3, 30240, Note_off_c, 0, 49, 80
3, 30240, Note_off_c, 0, 44, 80
3, 30240, Note_on_c, 0, 68, 79
3, 30240, Note_on_c, 0, 64, 79
3, 30240, Note_on_c, 0, 61, 79
3, 30240, Note_on_c, 0, 56, 79
3, 30240, Note_on_c, 0, 49, 79
3, 30240, Note_on_c, 0, 44, 79
3, 30480, Note_off_c, 0, 68, 80
3, 30480, Note_off_c, 0, 64, 80
3, 30480, Note_off_c, 0, 61, 80
3, 30480, Note_off_c, 0, 56, 80
3, 30480, Note_off_c, 0, 49, 80
3, 30480, Note_off_c, 0, 44, 80
3, 30480, Note_on_c, 0, 68, 79
3, 30480, Note_on_c, 0, 64, 79
3, 30480, Note_on_c, 0, 61, 79
3, 30480, Note_on_c, 0, 56, 79
3, 30480, Note_on_c, 0, 49, 79
3, 30480, Note_on_c, 0, 44, 79
3, 30600, Note_off_c, 0, 68, 80
3, 30600, Note_off_c, 0, 64, 80
3, 30600, Note_off_c, 0, 61, 80
3, 30600, Note_off_c, 0, 56, 80
3, 30600, Note_off_c, 0, 49, 80
3, 30600, Note_off_c, 0, 44, 80
3, 30600, Note_on_c, 0, 50, 79
3, 30600, Note_on_c, 0, 45, 79
3, 30600, Note_on_c, 0, 40, 79
3, 30720, Note_off_c, 0, 50, 80
3, 30720, Note_off_c, 0, 45, 80
3, 30720, Note_off_c, 0, 40, 80
3, 30720, Note_on_c, 0, 68, 79
3, 30720, Note_on_c, 0, 63, 79
3, 30720, Note_on_c, 0, 60, 79
3, 30720, Note_on_c, 0, 56, 79
3, 30720, Note_on_c, 0, 51, 79
3, 30720, Note_on_c, 0, 44, 79
3, 30960, Note_off_c, 0, 68, 80
3, 30960, Note_off_c, 0, 63, 80
3, 30960, Note_off_c, 0, 60, 80
3, 30960, Note_off_c, 0, 56, 80
3, 30960, Note_off_c, 0, 51, 80
3, 30960, Note_off_c, 0, 44, 80
3, 30960, Note_on_c, 0, 68, 95
3, 30960, Note_on_c, 0, 63, 79
3, 30960, Note_on_c, 0, 60, 79
3, 30960, Note_on_c, 0, 56, 79
3, 30960, Note_on_c, 0, 51, 79
3, 30960, Note_on_c, 0, 44, 79
3, 30980, Note_off_c, 0, 68, 80
3, 31200, Note_off_c, 0, 63, 80
3, 31200, Note_off_c, 0, 60, 80
3, 31200, Note_off_c, 0, 56, 80
3, 31200, Note_off_c, 0, 51, 80
3, 31200, Note_off_c, 0, 44, 80
3, 31200, Note_on_c, 0, 68, 79
3, 31200, Note_on_c, 0, 63, 79
3, 31200, Note_on_c, 0, 60, 79
3, 31200, Note_on_c, 0, 56, 79
3, 31200, Note_on_c, 0, 51, 79
3, 31200, Note_on_c, 0, 44, 79
3, 31440, Note_off_c, 0, 68, 80
3, 31440, Note_off_c, 0, 63, 80
3, 31440, Note_off_c, 0, 60, 80
3, 31440, Note_off_c, 0, 56, 80
3, 31440, Note_off_c, 0, 51, 80
3, 31440, Note_off_c, 0, 44, 80
3, 31440, Note_on_c, 1, 68, 79
3, 31440, Note_on_c, 1, 63, 79
3, 31440, Note_on_c, 1, 60, 79
3, 31440, Note_on_c, 1, 56, 79
3, 31440, Note_on_c, 1, 51, 79
3, 31440, Note_on_c, 1, 44, 79
3, 31536, Pitch_bend_c, 1, 8832
3, 31536, Pitch_bend_c, 1, 8832
3, 31536, Pitch_bend_c, 1, 8832
3, 31536, Pitch_bend_c, 1, 8832
3, 31536, Pitch_bend_c, 1, 8832
3, 31536, Pitch_bend_c, 1, 8832
3, 31560, Note_off_c, 1, 68, 80
3, 31560, Pitch_bend_c, 1, 8192
3, 31560, Note_off_c, 1, 63, 80
3, 31560, Pitch_bend_c, 1, 8192
3, 31560, Note_off_c, 1, 60, 80
3, 31560, Pitch_bend_c, 1, 8192
3, 31560, Note_off_c, 1, 56, 80
3, 31560, Pitch_bend_c, 1, 8192
3, 31560, Note_off_c, 1, 51, 80
3, 31560, Pitch_bend_c, 1, 8192
3, 31560, Note_off_c, 1, 44, 80
3, 31560, Pitch_bend_c, 1, 8192
3, 31560, Note_on_c, 0, 69, 63
3, 31560, Note_on_c, 0, 64, 63
3, 31560, Note_on_c, 0, 61, 63
3, 31560, Note_on_c, 0, 57, 63
3, 31560, Note_on_c, 0, 52, 63
3, 31560, Note_on_c, 0, 45, 63
3, 31680, Note_off_c, 0, 69, 80
3, 31680, Note_off_c, 0, 64, 80
3, 31680, Note_off_c, 0, 61, 80
3, 31680, Note_off_c, 0, 57, 80
3, 31680, Note_off_c, 0, 52, 80
3, 31680, Note_off_c, 0, 45, 80
3, 31680, Note_on_c, 0, 69, 79
3, 31680, Note_on_c, 0, 64, 79
3, 31680, Note_on_c, 0, 61, 79
3, 31680, Note_on_c, 0, 57, 79
3, 31680, Note_on_c, 0, 52, 79
3, 31680, Note_on_c, 0, 45, 79
3, 31800, Note_off_c, 0, 69, 80
3, 31800, Note_off_c, 0, 64, 80
3, 31800, Note_off_c, 0, 61, 80
3, 31800, Note_off_c, 0, 57, 80
3, 31800, Note_off_c, 0, 52, 80
3, 31800, Note_off_c, 0, 45, 80
3, 31800, Note_on_c, 0, 69, 79
3, 31800, Note_on_c, 0, 64, 79
3, 31800, Note_on_c, 0, 61, 79
3, 31800, Note_on_c, 0, 57, 79
3, 31800, Note_on_c, 0, 52, 79
3, 31800, Note_on_c, 0, 45, 79
3, 31920, Note_off_c, 0, 69, 80
3, 31920, Note_off_c, 0, 64, 80
3, 31920, Note_off_c, 0, 61, 80
3, 31920, Note_off_c, 0, 57, 80
3, 31920, Note_off_c, 0, 52, 80
3, 31920, Note_off_c, 0, 45, 80
3, 31920, Note_on_c, 0, 69, 79
3, 31920, Note_on_c, 0, 64, 79
3, 31920, Note_on_c, 0, 61, 79
3, 31920, Note_on_c, 0, 57, 79
3, 31920, Note_on_c, 0, 52, 79
3, 31920, Note_on_c, 0, 45, 79
3, 32040, Note_off_c, 0, 69, 80
3, 32040, Note_off_c, 0, 64, 80
3, 32040, Note_off_c, 0, 61, 80
3, 32040, Note_off_c, 0, 57, 80
3, 32040, Note_off_c, 0, 52, 80
3, 32040, Note_off_c, 0, 45, 80
3, 32040, Note_on_c, 1, 68, 79
3, 32040, Note_on_c, 1, 63, 79
3, 32040, Note_on_c, 1, 60, 79
3, 32040, Note_on_c, 1, 56, 79
3, 32040, Note_on_c, 1, 51, 79
3, 32040, Note_on_c, 1, 44, 79
3, 32136, Pitch_bend_c, 1, 8832
3, 32136, Pitch_bend_c, 1, 8832
3, 32136, Pitch_bend_c, 1, 8832
3, 32136, Pitch_bend_c, 1, 8832
3, 32136, Pitch_bend_c, 1, 8832
3, 32136, Pitch_bend_c, 1, 8832
3, 32160, Note_off_c, 1, 68, 80
3, 32160, Pitch_bend_c, 1, 8192
3, 32160, Note_off_c, 1, 63, 80
3, 32160, Pitch_bend_c, 1, 8192
3, 32160, Note_off_c, 1, 60, 80
3, 32160, Pitch_bend_c, 1, 8192
3, 32160, Note_off_c, 1, 56, 80
3, 32160, Pitch_bend_c, 1, 8192
3, 32160, Note_off_c, 1, 51, 80
3, 32160, Pitch_bend_c, 1, 8192
3, 32160, Note_off_c, 1, 44, 80
3, 32160, Pitch_bend_c, 1, 8192
3, 32160, Note_on_c, 0, 69, 63
3, 32160, Note_on_c, 0, 64, 63
3, 32160, Note_on_c, 0, 61, 63
3, 32160, Note_on_c, 0, 57, 63
3, 32160, Note_on_c, 0, 52, 63
3, 32160, Note_on_c, 0, 45, 63
3, 32280, Note_off_c, 0, 69, 80
3, 32280, Note_off_c, 0, 64, 80
3, 32280, Note_off_c, 0, 61, 80
3, 32280, Note_off_c, 0, 57, 80
3, 32280, Note_off_c, 0, 52, 80
3, 32280, Note_off_c, 0, 45, 80
3, 32280, Note_on_c, 0, 69, 79
3, 32280, Note_on_c, 0, 64, 79
3, 32280, Note_on_c, 0, 61, 79
3, 32280, Note_on_c, 0, 57, 79
3, 32280, Note_on_c, 0, 52, 79
3, 32280, Note_on_c, 0, 45, 79
3, 32400, Note_off_c, 0, 69, 80
3, 32400, Note_off_c, 0, 64, 80
3, 32400, Note_off_c, 0, 61, 80
3, 32400, Note_off_c, 0, 57, 80
3, 32400, Note_off_c, 0, 52, 80
3, 32400, Note_off_c, 0, 45, 80
3, 32400, Note_on_c, 0, 69, 79
3, 32400, Note_on_c, 0, 64, 79
3, 32400, Note_on_c, 0, 61, 79
3, 32400, Note_on_c, 0, 57, 79
3, 32400, Note_on_c, 0, 52, 79
3, 32400, Note_on_c, 0, 45, 79
3, 32520, Note_off_c, 0, 69, 80
3, 32520, Note_off_c, 0, 64, 80
3, 32520, Note_off_c, 0, 61, 80
3, 32520, Note_off_c, 0, 57, 80
3, 32520, Note_off_c, 0, 52, 80
3, 32520, Note_off_c, 0, 45, 80
3, 32520, Note_on_c, 0, 55, 79
3, 32520, Note_on_c, 0, 50, 79
3, 32520, Note_on_c, 0, 45, 79
3, 32520, Note_on_c, 0, 40, 79
3, 32640, Note_off_c, 0, 55, 80
3, 32640, Note_off_c, 0, 50, 80
3, 32640, Note_off_c, 0, 45, 80
3, 32640, Note_off_c, 0, 40, 80
3, 32640, Note_on_c, 0, 64, 79
3, 32640, Note_on_c, 0, 59, 79
3, 32640, Note_on_c, 0, 56, 79
3, 32640, Note_on_c, 0, 52, 79
3, 32640, Note_on_c, 0, 47, 79
3, 32640, Note_on_c, 0, 40, 79
3, 32880, Note_off_c, 0, 64, 80
3, 32880, Note_off_c, 0, 59, 80
3, 32880, Note_off_c, 0, 56, 80
3, 32880, Note_off_c, 0, 52, 80
3, 32880, Note_off_c, 0, 47, 80
3, 32880, Note_off_c, 0, 40, 80
3, 32880, Note_on_c, 0, 64, 79
3, 32880, Note_on_c, 0, 59, 79
3, 32880, Note_on_c, 0, 56, 79
3, 32880, Note_on_c, 0, 52, 79
3, 32880, Note_on_c, 0, 47, 79
3, 32880, Note_on_c, 0, 40, 79
3, 32900, Note_off_c, 0, 64, 80
3, 32900, Note_off_c, 0, 59, 80
3, 33120, Note_off_c, 0, 56, 80
3, 33120, Note_off_c, 0, 52, 80
3, 33120, Note_off_c, 0, 47, 80
3, 33120, Note_off_c, 0, 40, 80
3, 33120, Note_on_c, 0, 64, 79
3, 33120, Note_on_c, 0, 59, 79
3, 33120, Note_on_c, 0, 56, 79
3, 33120, Note_on_c, 0, 52, 79
3, 33120, Note_on_c, 0, 47, 79
3, 33120, Note_on_c, 0, 40, 79
3, 33360, Note_off_c, 0, 64, 80
3, 33360, Note_off_c, 0, 59, 80
3, 33360, Note_off_c, 0, 56, 80
3, 33360, Note_off_c, 0, 52, 80
3, 33360, Note_off_c, 0, 47, 80
3, 33360, Note_off_c, 0, 40, 80
3, 33360, Note_on_c, 0, 64, 79
3, 33360, Note_on_c, 0, 59, 79
3, 33360, Note_on_c, 0, 56, 79
3, 33360, Note_on_c, 0, 52, 79
3, 33360, Note_on_c, 0, 47, 79
3, 33360, Note_on_c, 0, 40, 79
3, 33480, Note_off_c, 0, 64, 80
3, 33480, Note_off_c, 0, 59, 80
3, 33480, Note_off_c, 0, 56, 80
3, 33480, Note_off_c, 0, 52, 80
3, 33480, Note_off_c, 0, 47, 80
3, 33480, Note_off_c, 0, 40, 80
3, 33480, Note_on_c, 0, 55, 79
3, 33480, Note_on_c, 0, 50, 79
3, 33480, Note_on_c, 0, 45, 79
3, 33600, Note_off_c, 0, 55, 80
3, 33600, Note_off_c, 0, 50, 80
3, 33600, Note_off_c, 0, 45, 80
3, 33600, Note_on_c, 0, 68, 79
3, 33600, Note_on_c, 0, 64, 79
3, 33600, Note_on_c, 0, 61, 79
3, 33600, Note_on_c, 0, 56, 79
3, 33600, Note_on_c, 0, 49, 79
3, 33600, Note_on_c, 0, 44, 79
3, 33840, Note_off_c, 0, 68, 80
3, 33840, Note_off_c, 0, 64, 80
3, 33840, Note_off_c, 0, 61, 80
3, 33840, Note_off_c, 0, 56, 80
3, 33840, Note_off_c, 0, 49, 80
3, 33840, Note_off_c, 0, 44, 80
3, 33840, Note_on_c, 0, 68, 95
3, 33840, Note_on_c, 0, 64, 79
3, 33840, Note_on_c, 0, 61, 79
3, 33840, Note_on_c, 0, 56, 79
3, 33840, Note_on_c, 0, 49, 79
3, 33840, Note_on_c, 0, 44, 79
3, 33860, Note_off_c, 0, 68, 80
3, 34080, Note_off_c, 0, 64, 80
3, 34080, Note_off_c, 0, 61, 80
3, 34080, Note_off_c, 0, 56, 80
3, 34080, Note_off_c, 0, 49, 80
3, 34080, Note_off_c, 0, 44, 80
3, 34080, Note_on_c, 0, 68, 79
3, 34080, Note_on_c, 0, 64, 79
3, 34080, Note_on_c, 0, 61, 79
3, 34080, Note_on_c, 0, 56, 79
3, 34080, Note_on_c, 0, 49, 79
3, 34080, Note_on_c, 0, 44, 79
3, 34320, Note_off_c, 0, 68, 80
3, 34320, Note_off_c, 0, 64, 80
3, 34320, Note_off_c, 0, 61, 80
3, 34320, Note_off_c, 0, 56, 80
3, 34320, Note_off_c, 0, 49, 80
3, 34320, Note_off_c, 0, 44, 80
3, 34320, Note_on_c, 0, 68, 79
3, 34320, Note_on_c, 0, 64, 79
3, 34320, Note_on_c, 0, 61, 79
3, 34320, Note_on_c, 0, 56, 79
3, 34320, Note_on_c, 0, 49, 79
3, 34320, Note_on_c, 0, 44, 79
3, 34440, Note_off_c, 0, 68, 80
3, 34440, Note_off_c, 0, 64, 80
3, 34440, Note_off_c, 0, 61, 80
3, 34440, Note_off_c, 0, 56, 80
3, 34440, Note_off_c, 0, 49, 80
3, 34440, Note_off_c, 0, 44, 80
3, 34440, Note_on_c, 0, 50, 79
3, 34440, Note_on_c, 0, 45, 79
3, 34440, Note_on_c, 0, 40, 79
3, 34560, Note_off_c, 0, 50, 80
3, 34560, Note_off_c, 0, 45, 80
3, 34560, Note_off_c, 0, 40, 80
3, 34560, Note_on_c, 0, 68, 79
3, 34560, Note_on_c, 0, 63, 79
3, 34560, Note_on_c, 0, 60, 79
3, 34560, Note_on_c, 0, 56, 79
3, 34560, Note_on_c, 0, 51, 79
3, 34560, Note_on_c, 0, 44, 79
3, 34800, Note_off_c, 0, 68, 80
3, 34800, Note_off_c, 0, 63, 80
3, 34800, Note_off_c, 0, 60, 80
3, 34800, Note_off_c, 0, 56, 80
3, 34800, Note_off_c, 0, 51, 80
3, 34800, Note_off_c, 0, 44, 80
3, 34800, Note_on_c, 0, 68, 95
3, 34800, Note_on_c, 0, 63, 79
3, 34800, Note_on_c, 0, 60, 79
3, 34800, Note_on_c, 0, 56, 79
3, 34800, Note_on_c, 0, 51, 79
3, 34800, Note_on_c, 0, 44, 79
3, 34820, Note_off_c, 0, 68, 80
3, 35040, Note_off_c, 0, 63, 80
3, 35040, Note_off_c, 0, 60, 80
3, 35040, Note_off_c, 0, 56, 80
3, 35040, Note_off_c, 0, 51, 80
3, 35040, Note_off_c, 0, 44, 80
3, 35040, Note_on_c, 0, 68, 79
3, 35040, Note_on_c, 0, 63, 79
3, 35040, Note_on_c, 0, 60, 79
3, 35040, Note_on_c, 0, 56, 79
3, 35040, Note_on_c, 0, 51, 79
3, 35040, Note_on_c, 0, 44, 79
3, 35280, Note_off_c, 0, 68, 80
3, 35280, Note_off_c, 0, 63, 80
3, 35280, Note_off_c, 0, 60, 80
3, 35280, Note_off_c, 0, 56, 80
3, 35280, Note_off_c, 0, 51, 80
3, 35280, Note_off_c, 0, 44, 80
3, 35280, Note_on_c, 1, 68, 79
3, 35280, Note_on_c, 1, 63, 79
3, 35280, Note_on_c, 1, 60, 79
3, 35280, Note_on_c, 1, 56, 79
3, 35280, Note_on_c, 1, 51, 79
3, 35280, Note_on_c, 1, 44, 79
3, 35376, Pitch_bend_c, 1, 8832
3, 35376, Pitch_bend_c, 1, 8832
3, 35376, Pitch_bend_c, 1, 8832
3, 35376, Pitch_bend_c, 1, 8832
3, 35376, Pitch_bend_c, 1, 8832
3, 35376, Pitch_bend_c, 1, 8832
3, 35400, Note_off_c, 1, 68, 80
3, 35400, Pitch_bend_c, 1, 8192
3, 35400, Note_off_c, 1, 63, 80
3, 35400, Pitch_bend_c, 1, 8192
3, 35400, Note_off_c, 1, 60, 80
3, 35400, Pitch_bend_c, 1, 8192
3, 35400, Note_off_c, 1, 56, 80
3, 35400, Pitch_bend_c, 1, 8192
3, 35400, Note_off_c, 1, 51, 80
3, 35400, Pitch_bend_c, 1, 8192
3, 35400, Note_off_c, 1, 44, 80
3, 35400, Pitch_bend_c, 1, 8192
3, 35400, Note_on_c, 0, 69, 63
3, 35400, Note_on_c, 0, 64, 63
3, 35400, Note_on_c, 0, 61, 63
3, 35400, Note_on_c, 0, 57, 63
3, 35400, Note_on_c, 0, 52, 63
3, 35400, Note_on_c, 0, 45, 63
3, 35520, Note_off_c, 0, 69, 80
3, 35520, Note_off_c, 0, 64, 80
3, 35520, Note_off_c, 0, 61, 80
3, 35520, Note_off_c, 0, 57, 80
3, 35520, Note_off_c, 0, 52, 80
3, 35520, Note_off_c, 0, 45, 80
3, 35520, Note_on_c, 0, 69, 79
3, 35520, Note_on_c, 0, 64, 79
3, 35520, Note_on_c, 0, 61, 79
3, 35520, Note_on_c, 0, 57, 79
3, 35520, Note_on_c, 0, 52, 79
3, 35520, Note_on_c, 0, 45, 79
3, 35640, Note_off_c, 0, 69, 80
3, 35640, Note_off_c, 0, 64, 80
3, 35640, Note_off_c, 0, 61, 80
3, 35640, Note_off_c, 0, 57, 80
3, 35640, Note_off_c, 0, 52, 80
3, 35640, Note_off_c, 0, 45, 80
3, 35640, Note_on_c, 0, 69, 79
3, 35640, Note_on_c, 0, 64, 79
3, 35640, Note_on_c, 0, 61, 79
3, 35640, Note_on_c, 0, 57, 79
3, 35640, Note_on_c, 0, 52, 79
3, 35640, Note_on_c, 0, 45, 79
3, 35760, Note_off_c, 0, 69, 80
3, 35760, Note_off_c, 0, 64, 80
3, 35760, Note_off_c, 0, 61, 80
3, 35760, Note_off_c, 0, 57, 80
3, 35760, Note_off_c, 0, 52, 80
3, 35760, Note_off_c, 0, 45, 80
3, 35760, Note_on_c, 0, 69, 79
3, 35760, Note_on_c, 0, 64, 79
3, 35760, Note_on_c, 0, 61, 79
3, 35760, Note_on_c, 0, 57, 79
3, 35760, Note_on_c, 0, 52, 79
3, 35760, Note_on_c, 0, 45, 79
3, 35880, Note_off_c, 0, 69, 80
3, 35880, Note_off_c, 0, 64, 80
3, 35880, Note_off_c, 0, 61, 80
3, 35880, Note_off_c, 0, 57, 80
3, 35880, Note_off_c, 0, 52, 80
3, 35880, Note_off_c, 0, 45, 80
3, 35880, Note_on_c, 1, 68, 79
3, 35880, Note_on_c, 1, 63, 79
3, 35880, Note_on_c, 1, 60, 79
3, 35880, Note_on_c, 1, 56, 79
3, 35880, Note_on_c, 1, 51, 79
3, 35880, Note_on_c, 1, 44, 79
3, 35976, Pitch_bend_c, 1, 8832
3, 35976, Pitch_bend_c, 1, 8832
3, 35976, Pitch_bend_c, 1, 8832
3, 35976, Pitch_bend_c, 1, 8832
3, 35976, Pitch_bend_c, 1, 8832
3, 35976, Pitch_bend_c, 1, 8832
3, 36000, Note_off_c, 1, 68, 80
3, 36000, Pitch_bend_c, 1, 8192
3, 36000, Note_off_c, 1, 63, 80
3, 36000, Pitch_bend_c, 1, 8192
3, 36000, Note_off_c, 1, 60, 80
3, 36000, Pitch_bend_c, 1, 8192
3, 36000, Note_off_c, 1, 56, 80
3, 36000, Pitch_bend_c, 1, 8192
3, 36000, Note_off_c, 1, 51, 80
3, 36000, Pitch_bend_c, 1, 8192
3, 36000, Note_off_c, 1, 44, 80
3, 36000, Pitch_bend_c, 1, 8192
3, 36000, Note_on_c, 0, 69, 63
3, 36000, Note_on_c, 0, 64, 63
3, 36000, Note_on_c, 0, 61, 63
3, 36000, Note_on_c, 0, 57, 63
3, 36000, Note_on_c, 0, 52, 63
3, 36000, Note_on_c, 0, 45, 63
3, 36120, Note_off_c, 0, 69, 80
3, 36120, Note_off_c, 0, 64, 80
3, 36120, Note_off_c, 0, 61, 80
3, 36120, Note_off_c, 0, 57, 80
3, 36120, Note_off_c, 0, 52, 80
3, 36120, Note_off_c, 0, 45, 80
3, 36120, Note_on_c, 0, 69, 79
3, 36120, Note_on_c, 0, 64, 79
3, 36120, Note_on_c, 0, 61, 79
3, 36120, Note_on_c, 0, 57, 79
3, 36120, Note_on_c, 0, 52, 79
3, 36120, Note_on_c, 0, 45, 79
3, 36240, Note_off_c, 0, 69, 80
3, 36240, Note_off_c, 0, 64, 80
3, 36240, Note_off_c, 0, 61, 80
3, 36240, Note_off_c, 0, 57, 80
3, 36240, Note_off_c, 0, 52, 80
3, 36240, Note_off_c, 0, 45, 80
3, 36240, Note_on_c, 0, 69, 79
3, 36240, Note_on_c, 0, 64, 79
3, 36240, Note_on_c, 0, 61, 79
3, 36240, Note_on_c, 0, 57, 79
3, 36240, Note_on_c, 0, 52, 79
3, 36240, Note_on_c, 0, 45, 79
3, 36360, Note_off_c, 0, 69, 80
3, 36360, Note_off_c, 0, 64, 80
3, 36360, Note_off_c, 0, 61, 80
3, 36360, Note_off_c, 0, 57, 80
3, 36360, Note_off_c, 0, 52, 80
3, 36360, Note_off_c, 0, 45, 80
3, 36360, Note_on_c, 0, 55, 79
3, 36360, Note_on_c, 0, 50, 79
3, 36360, Note_on_c, 0, 45, 79
3, 36360, Note_on_c, 0, 40, 79
3, 36480, Note_off_c, 0, 55, 80
3, 36480, Note_off_c, 0, 50, 80
3, 36480, Note_off_c, 0, 45, 80
3, 36480, Note_off_c, 0, 40, 80
3, 36480, Note_on_c, 0, 64, 95
3, 36480, Note_on_c, 0, 59, 95
3, 36480, Note_on_c, 0, 56, 95
3, 36480, Note_on_c, 0, 52, 95
3, 36480, Note_on_c, 0, 47, 95
3, 36480, Note_on_c, 0, 40, 95
3, 36720, Note_off_c, 0, 64, 80
3, 36720, Note_off_c, 0, 59, 80
3, 36720, Note_off_c, 0, 56, 80
3, 36720, Note_off_c, 0, 52, 80
3, 36720, Note_off_c, 0, 47, 80
3, 36720, Note_off_c, 0, 40, 80
3, 36720, Note_on_c, 0, 64, 95
3, 36720, Note_on_c, 0, 59, 95
3, 36720, Note_on_c, 0, 56, 95
3, 36720, Note_on_c, 0, 52, 95
3, 36720, Note_on_c, 0, 47, 95
3, 36720, Note_on_c, 0, 40, 95
3, 36740, Note_off_c, 0, 64, 80
3, 36740, Note_off_c, 0, 59, 80
3, 36960, Note_off_c, 0, 56, 80
3, 36960, Note_off_c, 0, 52, 80
3, 36960, Note_off_c, 0, 47, 80
3, 36960, Note_off_c, 0, 40, 80
3, 36960, Note_on_c, 0, 64, 95
3, 36960, Note_on_c, 0, 59, 95
3, 36960, Note_on_c, 0, 56, 95
3, 36960, Note_on_c, 0, 52, 95
3, 36960, Note_on_c, 0, 47, 95
3, 36960, Note_on_c, 0, 40, 95
3, 37200, Note_off_c, 0, 64, 80
3, 37200, Note_off_c, 0, 59, 80
3, 37200, Note_off_c, 0, 56, 80
3, 37200, Note_off_c, 0, 52, 80
3, 37200, Note_off_c, 0, 47, 80
3, 37200, Note_off_c, 0, 40, 80
3, 37200, Note_on_c, 0, 64, 95
3, 37200, Note_on_c, 0, 59, 95
3, 37200, Note_on_c, 0, 56, 95
3, 37200, Note_on_c, 0, 52, 95
3, 37200, Note_on_c, 0, 47, 95
3, 37200, Note_on_c, 0, 40, 95
3, 37320, Note_off_c, 0, 64, 80
3, 37320, Note_off_c, 0, 59, 80
3, 37320, Note_off_c, 0, 56, 80
3, 37320, Note_off_c, 0, 52, 80
3, 37320, Note_off_c, 0, 47, 80
3, 37320, Note_off_c, 0, 40, 80
3, 37320, Note_on_c, 0, 55, 95
3, 37320, Note_on_c, 0, 50, 95
3, 37320, Note_on_c, 0, 45, 95
3, 37440, Note_off_c, 0, 55, 80
3, 37440, Note_off_c, 0, 50, 80
3, 37440, Note_off_c, 0, 45, 80
3, 37440, Note_on_c, 0, 68, 95
3, 37440, Note_on_c, 0, 64, 95
3, 37440, Note_on_c, 0, 61, 95
3, 37440, Note_on_c, 0, 56, 95
3, 37440, Note_on_c, 0, 49, 95
3, 37440, Note_on_c, 0, 44, 95
3, 37680, Note_off_c, 0, 68, 80
3, 37680, Note_off_c, 0, 64, 80
3, 37680, Note_off_c, 0, 61, 80
3, 37680, Note_off_c, 0, 56, 80
3, 37680, Note_off_c, 0, 49, 80
3, 37680, Note_off_c, 0, 44, 80
3, 37680, Note_on_c, 0, 68, 95
3, 37680, Note_on_c, 0, 64, 95
3, 37680, Note_on_c, 0, 61, 95
3, 37680, Note_on_c, 0, 56, 95
3, 37680, Note_on_c, 0, 49, 95
3, 37680, Note_on_c, 0, 44, 95
3, 37700, Note_off_c, 0, 68, 80
3, 37920, Note_off_c, 0, 64, 80
3, 37920, Note_off_c, 0, 61, 80
3, 37920, Note_off_c, 0, 56, 80
3, 37920, Note_off_c, 0, 49, 80
3, 37920, Note_off_c, 0, 44, 80
3, 37920, Note_on_c, 0, 68, 95
3, 37920, Note_on_c, 0, 64, 95
3, 37920, Note_on_c, 0, 61, 95
3, 37920, Note_on_c, 0, 56, 95
3, 37920, Note_on_c, 0, 49, 95
3, 37920, Note_on_c, 0, 44, 95
3, 38160, Note_off_c, 0, 68, 80
3, 38160, Note_off_c, 0, 64, 80
3, 38160, Note_off_c, 0, 61, 80
3, 38160, Note_off_c, 0, 56, 80
3, 38160, Note_off_c, 0, 49, 80
3, 38160, Note_off_c, 0, 44, 80
3, 38160, Note_on_c, 0, 68, 95
3, 38160, Note_on_c, 0, 64, 95
3, 38160, Note_on_c, 0, 61, 95
3, 38160, Note_on_c, 0, 56, 95
3, 38160, Note_on_c, 0, 49, 95
3, 38160, Note_on_c, 0, 44, 95
3, 38280, Note_off_c, 0, 68, 80
3, 38280, Note_off_c, 0, 64, 80
3, 38280, Note_off_c, 0, 61, 80
3, 38280, Note_off_c, 0, 56, 80
3, 38280, Note_off_c, 0, 49, 80
3, 38280, Note_off_c, 0, 44, 80
3, 38280, Note_on_c, 0, 50, 95
3, 38280, Note_on_c, 0, 45, 95
3, 38280, Note_on_c, 0, 40, 95
3, 38400, Note_off_c, 0, 50, 80
3, 38400, Note_off_c, 0, 45, 80
3, 38400, Note_off_c, 0, 40, 80
3, 38400, Note_on_c, 0, 68, 95
3, 38400, Note_on_c, 0, 63, 95
3, 38400, Note_on_c, 0, 60, 95
3, 38400, Note_on_c, 0, 56, 95
3, 38400, Note_on_c, 0, 51, 95
3, 38400, Note_on_c, 0, 44, 95
3, 38640, Note_off_c, 0, 68, 80
3, 38640, Note_off_c, 0, 63, 80
3, 38640, Note_off_c, 0, 60, 80
3, 38640, Note_off_c, 0, 56, 80
3, 38640, Note_off_c, 0, 51, 80
3, 38640, Note_off_c, 0, 44, 80
3, 38640, Note_on_c, 0, 68, 95
3, 38640, Note_on_c, 0, 63, 95
3, 38640, Note_on_c, 0, 60, 95
3, 38640, Note_on_c, 0, 56, 95
3, 38640, Note_on_c, 0, 51, 95
3, 38640, Note_on_c, 0, 44, 95
3, 38660, Note_off_c, 0, 68, 80
3, 38880, Note_off_c, 0, 63, 80
3, 38880, Note_off_c, 0, 60, 80
3, 38880, Note_off_c, 0, 56, 80
3, 38880, Note_off_c, 0, 51, 80
3, 38880, Note_off_c, 0, 44, 80
3, 38880, Note_on_c, 0, 68, 95
3, 38880, Note_on_c, 0, 63, 95
3, 38880, Note_on_c, 0, 60, 95
3, 38880, Note_on_c, 0, 56, 95
3, 38880, Note_on_c, 0, 51, 95
3, 38880, Note_on_c, 0, 44, 95
3, 39120, Note_off_c, 0, 68, 80
3, 39120, Note_off_c, 0, 63, 80
3, 39120, Note_off_c, 0, 60, 80
3, 39120, Note_off_c, 0, 56, 80
3, 39120, Note_off_c, 0, 51, 80
3, 39120, Note_off_c, 0, 44, 80
3, 39120, Note_on_c, 1, 68, 95
3, 39120, Note_on_c, 1, 63, 95
3, 39120, Note_on_c, 1, 60, 95
3, 39120, Note_on_c, 1, 56, 95
3, 39120, Note_on_c, 1, 51, 95
3, 39120, Note_on_c, 1, 44, 95
3, 39216, Pitch_bend_c, 1, 8832
3, 39216, Pitch_bend_c, 1, 8832
3, 39216, Pitch_bend_c, 1, 8832
3, 39216, Pitch_bend_c, 1, 8832
3, 39216, Pitch_bend_c, 1, 8832
3, 39216, Pitch_bend_c, 1, 8832
3, 39240, Note_off_c, 1, 68, 80
3, 39240, Pitch_bend_c, 1, 8192
3, 39240, Note_off_c, 1, 63, 80
3, 39240, Pitch_bend_c, 1, 8192
3, 39240, Note_off_c, 1, 60, 80
3, 39240, Pitch_bend_c, 1, 8192
3, 39240, Note_off_c, 1, 56, 80
3, 39240, Pitch_bend_c, 1, 8192
3, 39240, Note_off_c, 1, 51, 80
3, 39240, Pitch_bend_c, 1, 8192
3, 39240, Note_off_c, 1, 44, 80
3, 39240, Pitch_bend_c, 1, 8192
3, 39240, Note_on_c, 0, 69, 76
3, 39240, Note_on_c, 0, 64, 76
3, 39240, Note_on_c, 0, 61, 76
3, 39240, Note_on_c, 0, 57, 76
3, 39240, Note_on_c, 0, 52, 76
3, 39240, Note_on_c, 0, 45, 76
3, 39360, Note_off_c, 0, 69, 80
3, 39360, Note_off_c, 0, 64, 80
3, 39360, Note_off_c, 0, 61, 80
3, 39360, Note_off_c, 0, 57, 80
3, 39360, Note_off_c, 0, 52, 80
3, 39360, Note_off_c, 0, 45, 80
3, 39360, Note_on_c, 0, 69, 95
3, 39360, Note_on_c, 0, 64, 95
3, 39360, Note_on_c, 0, 61, 95
3, 39360, Note_on_c, 0, 57, 95
3, 39360, Note_on_c, 0, 52, 95
3, 39360, Note_on_c, 0, 45, 95
3, 39480, Note_off_c, 0, 69, 80
3, 39480, Note_off_c, 0, 64, 80
3, 39480, Note_off_c, 0, 61, 80
3, 39480, Note_off_c, 0, 57, 80
3, 39480, Note_off_c, 0, 52, 80
3, 39480, Note_off_c, 0, 45, 80
3, 39480, Note_on_c, 0, 69, 95
3, 39480, Note_on_c, 0, 64, 95
3, 39480, Note_on_c, 0, 61, 95
3, 39480, Note_on_c, 0, 57, 95
3, 39480, Note_on_c, 0, 52, 95
3, 39480, Note_on_c, 0, 45, 95
3, 39600, Note_off_c, 0, 69, 80
3, 39600, Note_off_c, 0, 64, 80
3, 39600, Note_off_c, 0, 61, 80
3, 39600, Note_off_c, 0, 57, 80
3, 39600, Note_off_c, 0, 52, 80
3, 39600, Note_off_c, 0, 45, 80
3, 39600, Note_on_c, 0, 69, 95
3, 39600, Note_on_c, 0, 64, 95
3, 39600, Note_on_c, 0, 61, 95
3, 39600, Note_on_c, 0, 57, 95
3, 39600, Note_on_c, 0, 52, 95
3, 39600, Note_on_c, 0, 45, 95
3, 39720, Note_off_c, 0, 69, 80
3, 39720, Note_off_c, 0, 64, 80
3, 39720, Note_off_c, 0, 61, 80
3, 39720, Note_off_c, 0, 57, 80
3, 39720, Note_off_c, 0, 52, 80
3, 39720, Note_off_c, 0, 45, 80
3, 39720, Note_on_c, 1, 68, 95
3, 39720, Note_on_c, 1, 63, 95
3, 39720, Note_on_c, 1, 60, 95
3, 39720, Note_on_c, 1, 56, 95
3, 39720, Note_on_c, 1, 51, 95
3, 39720, Note_on_c, 1, 44, 95
3, 39816, Pitch_bend_c, 1, 8832
3, 39816, Pitch_bend_c, 1, 8832
3, 39816, Pitch_bend_c, 1, 8832
3, 39816, Pitch_bend_c, 1, 8832
3, 39816, Pitch_bend_c, 1, 8832
3, 39816, Pitch_bend_c, 1, 8832
3, 39840, Note_off_c, 1, 68, 80
3, 39840, Pitch_bend_c, 1, 8192
3, 39840, Note_off_c, 1, 63, 80
3, 39840, Pitch_bend_c, 1, 8192
3, 39840, Note_off_c, 1, 60, 80
3, 39840, Pitch_bend_c, 1, 8192
3, 39840, Note_off_c, 1, 56, 80
3, 39840, Pitch_bend_c, 1, 8192
3, 39840, Note_off_c, 1, 51, 80
3, 39840, Pitch_bend_c, 1, 8192
3, 39840, Note_off_c, 1, 44, 80
3, 39840, Pitch_bend_c, 1, 8192
3, 39840, Note_on_c, 0, 69, 76
3, 39840, Note_on_c, 0, 64, 76
3, 39840, Note_on_c, 0, 61, 76
3, 39840, Note_on_c, 0, 57, 76
3, 39840, Note_on_c, 0, 52, 76
3, 39840, Note_on_c, 0, 45, 76
3, 39960, Note_off_c, 0, 69, 80
3, 39960, Note_off_c, 0, 64, 80
3, 39960, Note_off_c, 0, 61, 80
3, 39960, Note_off_c, 0, 57, 80
3, 39960, Note_off_c, 0, 52, 80
3, 39960, Note_off_c, 0, 45, 80
3, 39960, Note_on_c, 0, 69, 95
3, 39960, Note_on_c, 0, 64, 95
3, 39960, Note_on_c, 0, 61, 95
3, 39960, Note_on_c, 0, 57, 95
3, 39960, Note_on_c, 0, 52, 95
3, 39960, Note_on_c, 0, 45, 95
3, 40080, Note_off_c, 0, 69, 80
3, 40080, Note_off_c, 0, 64, 80
3, 40080, Note_off_c, 0, 61, 80
3, 40080, Note_off_c, 0, 57, 80
3, 40080, Note_off_c, 0, 52, 80
3, 40080, Note_off_c, 0, 45, 80
3, 40080, Note_on_c, 0, 69, 95
3, 40080, Note_on_c, 0, 64, 95
3, 40080, Note_on_c, 0, 61, 95
3, 40080, Note_on_c, 0, 57, 95
3, 40080, Note_on_c, 0, 52, 95
3, 40080, Note_on_c, 0, 45, 95
3, 40200, Note_off_c, 0, 69, 80
3, 40200, Note_off_c, 0, 64, 80
3, 40200, Note_off_c, 0, 61, 80
3, 40200, Note_off_c, 0, 57, 80
3, 40200, Note_off_c, 0, 52, 80
3, 40200, Note_off_c, 0, 45, 80
3, 40200, Note_on_c, 0, 55, 95
3, 40200, Note_on_c, 0, 50, 95
3, 40200, Note_on_c, 0, 45, 95
3, 40200, Note_on_c, 0, 40, 95
3, 40320, Note_off_c, 0, 55, 80
3, 40320, Note_off_c, 0, 50, 80
3, 40320, Note_off_c, 0, 45, 80
3, 40320, Note_off_c, 0, 40, 80
3, 40320, Note_on_c, 0, 64, 95
3, 40320, Note_on_c, 0, 59, 95
3, 40320, Note_on_c, 0, 56, 95
3, 40320, Note_on_c, 0, 52, 95
3, 40320, Note_on_c, 0, 47, 95
3, 40320, Note_on_c, 0, 40, 95
3, 40560, Note_off_c, 0, 64, 80
3, 40560, Note_off_c, 0, 59, 80
3, 40560, Note_off_c, 0, 56, 80
3, 40560, Note_off_c, 0, 52, 80
3, 40560, Note_off_c, 0, 47, 80
3, 40560, Note_off_c, 0, 40, 80
3, 40560, Note_on_c, 0, 64, 95
3, 40560, Note_on_c, 0, 59, 95
3, 40560, Note_on_c, 0, 56, 95
3, 40560, Note_on_c, 0, 52, 95
3, 40560, Note_on_c, 0, 47, 95
3, 40560, Note_on_c, 0, 40, 95
3, 40580, Note_off_c, 0, 64, 80
3, 40580, Note_off_c, 0, 59, 80
3, 40800, Note_off_c, 0, 56, 80
3, 40800, Note_off_c, 0, 52, 80
3, 40800, Note_off_c, 0, 47, 80
3, 40800, Note_off_c, 0, 40, 80
3, 40800, Note_on_c, 0, 64, 95
3, 40800, Note_on_c, 0, 59, 95
3, 40800, Note_on_c, 0, 56, 95
3, 40800, Note_on_c, 0, 52, 95
3, 40800, Note_on_c, 0, 47, 95
3, 40800, Note_on_c, 0, 40, 95
3, 41040, Note_off_c, 0, 64, 80
3, 41040, Note_off_c, 0, 59, 80
3, 41040, Note_off_c, 0, 56, 80
3, 41040, Note_off_c, 0, 52, 80
3, 41040, Note_off_c, 0, 47, 80
3, 41040, Note_off_c, 0, 40, 80
3, 41040, Note_on_c, 0, 64, 95
3, 41040, Note_on_c, 0, 59, 95
3, 41040, Note_on_c, 0, 56, 95
3, 41040, Note_on_c, 0, 52, 95
3, 41040, Note_on_c, 0, 47, 95
3, 41040, Note_on_c, 0, 40, 95
3, 41160, Note_off_c, 0, 64, 80
3, 41160, Note_off_c, 0, 59, 80
3, 41160, Note_off_c, 0, 56, 80
3, 41160, Note_off_c, 0, 52, 80
3, 41160, Note_off_c, 0, 47, 80
3, 41160, Note_off_c, 0, 40, 80
3, 41160, Note_on_c, 0, 55, 95
3, 41160, Note_on_c, 0, 50, 95
3, 41160, Note_on_c, 0, 45, 95
3, 41280, Note_off_c, 0, 55, 80
3, 41280, Note_off_c, 0, 50, 80
3, 41280, Note_off_c, 0, 45, 80
3, 41280, Note_on_c, 0, 68, 95
3, 41280, Note_on_c, 0, 63, 95
3, 41280, Note_on_c, 0, 60, 95
3, 41280, Note_on_c, 0, 56, 95
3, 41280, Note_on_c, 0, 51, 95
3, 41280, Note_on_c, 0, 44, 95
3, 41520, Note_off_c, 0, 68, 80
3, 41520, Note_off_c, 0, 63, 80
3, 41520, Note_off_c, 0, 60, 80
3, 41520, Note_off_c, 0, 56, 80
3, 41520, Note_off_c, 0, 51, 80
3, 41520, Note_off_c, 0, 44, 80
3, 41520, Note_on_c, 0, 68, 95
3, 41520, Note_on_c, 0, 63, 95
3, 41520, Note_on_c, 0, 60, 95
3, 41520, Note_on_c, 0, 56, 95
3, 41520, Note_on_c, 0, 51, 95
3, 41520, Note_on_c, 0, 44, 95
3, 41540, Note_off_c, 0, 68, 80
3, 41760, Note_off_c, 0, 63, 80
3, 41760, Note_off_c, 0, 60, 80
3, 41760, Note_off_c, 0, 56, 80
3, 41760, Note_off_c, 0, 51, 80
3, 41760, Note_off_c, 0, 44, 80
3, 41760, Note_on_c, 0, 68, 95
3, 41760, Note_on_c, 0, 63, 95
3, 41760, Note_on_c, 0, 60, 95
3, 41760, Note_on_c, 0, 56, 95
3, 41760, Note_on_c, 0, 51, 95
3, 41760, Note_on_c, 0, 44, 95
3, 42000, Note_off_c, 0, 68, 80
3, 42000, Note_off_c, 0, 63, 80
3, 42000, Note_off_c, 0, 60, 80
3, 42000, Note_off_c, 0, 56, 80
3, 42000, Note_off_c, 0, 51, 80
3, 42000, Note_off_c, 0, 44, 80
3, 42000, Note_on_c, 0, 68, 95
3, 42000, Note_on_c, 0, 63, 95
3, 42000, Note_on_c, 0, 60, 95
3, 42000, Note_on_c, 0, 56, 95
3, 42000, Note_on_c, 0, 51, 95
3, 42000, Note_on_c, 0, 44, 95
3, 42120, Note_off_c, 0, 68, 80
3, 42120, Note_off_c, 0, 63, 80
3, 42120, Note_off_c, 0, 60, 80
3, 42120, Note_off_c, 0, 56, 80
3, 42120, Note_off_c, 0, 51, 80
3, 42120, Note_off_c, 0, 44, 80
3, 42120, Note_on_c, 0, 50, 95
3, 42120, Note_on_c, 0, 45, 95
3, 42120, Note_on_c, 0, 40, 95
3, 42240, Note_off_c, 0, 50, 80
3, 42240, Note_off_c, 0, 45, 80
3, 42240, Note_off_c, 0, 40, 80
3, 42240, Note_on_c, 0, 69, 95
3, 42240, Note_on_c, 0, 64, 95
3, 42240, Note_on_c, 0, 61, 95
3, 42240, Note_on_c, 0, 57, 95
3, 42240, Note_on_c, 0, 52, 95
3, 42240, Note_on_c, 0, 45, 95
3, 42480, Note_off_c, 0, 69, 80
3, 42480, Note_off_c, 0, 64, 80
3, 42480, Note_off_c, 0, 61, 80
3, 42480, Note_off_c, 0, 57, 80
3, 42480, Note_off_c, 0, 52, 80
3, 42480, Note_off_c, 0, 45, 80
3, 42480, Note_on_c, 0, 69, 95
3, 42480, Note_on_c, 0, 64, 95
3, 42480, Note_on_c, 0, 61, 95
3, 42480, Note_on_c, 0, 57, 95
3, 42480, Note_on_c, 0, 52, 95
3, 42480, Note_on_c, 0, 45, 95
3, 42720, Note_off_c, 0, 69, 80
3, 42720, Note_off_c, 0, 64, 80
3, 42720, Note_off_c, 0, 61, 80
3, 42720, Note_off_c, 0, 57, 80
3, 42720, Note_off_c, 0, 52, 80
3, 42720, Note_off_c, 0, 45, 80
3, 42720, Note_on_c, 0, 69, 95
3, 42720, Note_on_c, 0, 64, 95
3, 42720, Note_on_c, 0, 61, 95
3, 42720, Note_on_c, 0, 57, 95
3, 42720, Note_on_c, 0, 52, 95
3, 42720, Note_on_c, 0, 45, 95
3, 42960, Note_off_c, 0, 69, 80
3, 42960, Note_off_c, 0, 64, 80
3, 42960, Note_off_c, 0, 61, 80
3, 42960, Note_off_c, 0, 57, 80
3, 42960, Note_off_c, 0, 52, 80
3, 42960, Note_off_c, 0, 45, 80
3, 42960, Note_on_c, 0, 69, 95
3, 42960, Note_on_c, 0, 64, 95
3, 42960, Note_on_c, 0, 61, 95
3, 42960, Note_on_c, 0, 57, 95
3, 42960, Note_on_c, 0, 52, 95
3, 42960, Note_on_c, 0, 45, 95
3, 43080, Note_off_c, 0, 69, 80
3, 43080, Note_off_c, 0, 64, 80
3, 43080, Note_off_c, 0, 61, 80
3, 43080, Note_off_c, 0, 57, 80
3, 43080, Note_off_c, 0, 52, 80
3, 43080, Note_off_c, 0, 45, 80
3, 43080, Note_on_c, 0, 55, 95
3, 43080, Note_on_c, 0, 50, 95
3, 43080, Note_on_c, 0, 45, 95
3, 43200, Note_off_c, 0, 55, 80
3, 43200, Note_off_c, 0, 50, 80
3, 43200, Note_off_c, 0, 45, 80
3, 43200, Note_on_c, 0, 69, 95
3, 43200, Note_on_c, 0, 64, 95
3, 43200, Note_on_c, 0, 60, 95
3, 43200, Note_on_c, 0, 57, 95
3, 43200, Note_on_c, 0, 52, 95
3, 43200, Note_on_c, 0, 45, 95
3, 43440, Note_off_c, 0, 69, 80
3, 43440, Note_off_c, 0, 64, 80
3, 43440, Note_off_c, 0, 60, 80
3, 43440, Note_off_c, 0, 57, 80
3, 43440, Note_off_c, 0, 52, 80
3, 43440, Note_off_c, 0, 45, 80
3, 43440, Note_on_c, 0, 69, 95
3, 43440, Note_on_c, 0, 64, 95
3, 43440, Note_on_c, 0, 60, 95
3, 43440, Note_on_c, 0, 57, 95
3, 43440, Note_on_c, 0, 52, 95
3, 43440, Note_on_c, 0, 45, 95
3, 43680, Note_off_c, 0, 69, 80
3, 43680, Note_off_c, 0, 64, 80
3, 43680, Note_off_c, 0, 60, 80
3, 43680, Note_off_c, 0, 57, 80
3, 43680, Note_off_c, 0, 52, 80
3, 43680, Note_off_c, 0, 45, 80
3, 43680, Note_on_c, 0, 69, 95
3, 43680, Note_on_c, 0, 64, 95
3, 43680, Note_on_c, 0, 60, 95
3, 43680, Note_on_c, 0, 57, 95
3, 43680, Note_on_c, 0, 52, 95
3, 43680, Note_on_c, 0, 45, 95
3, 43920, Note_off_c, 0, 69, 80
3, 43920, Note_off_c, 0, 64, 80
3, 43920, Note_off_c, 0, 60, 80
3, 43920, Note_off_c, 0, 57, 80
3, 43920, Note_off_c, 0, 52, 80
3, 43920, Note_off_c, 0, 45, 80
3, 43920, Note_on_c, 0, 69, 95
3, 43920, Note_on_c, 0, 64, 95
3, 43920, Note_on_c, 0, 60, 95
3, 43920, Note_on_c, 0, 57, 95
3, 43920, Note_on_c, 0, 52, 95
3, 43920, Note_on_c, 0, 45, 95
3, 44040, Note_off_c, 0, 69, 80
3, 44040, Note_off_c, 0, 64, 80
3, 44040, Note_off_c, 0, 60, 80
3, 44040, Note_off_c, 0, 57, 80
3, 44040, Note_off_c, 0, 52, 80
3, 44040, Note_off_c, 0, 45, 80
3, 44040, Note_on_c, 0, 50, 95
3, 44040, Note_on_c, 0, 45, 95
3, 44040, Note_on_c, 0, 40, 95
3, 44160, Note_off_c, 0, 50, 80
3, 44160, Note_off_c, 0, 45, 80
3, 44160, Note_off_c, 0, 40, 80
3, 44160, Note_on_c, 0, 73, 95
3, 44160, Note_on_c, 0, 68, 95
3, 44160, Note_on_c, 0, 64, 95
3, 44160, Note_on_c, 0, 61, 95
3, 44160, Note_on_c, 0, 56, 95
3, 44160, Note_on_c, 0, 49, 95
3, 46080, Note_off_c, 0, 73, 80
3, 46080, Note_off_c, 0, 68, 80
3, 46080, Note_off_c, 0, 64, 80
3, 46080, Note_off_c, 0, 61, 80
3, 46080, Note_off_c, 0, 56, 80
3, 46080, Note_off_c, 0, 49, 80
3, 46080, Note_on_c, 0, 71, 95
3, 46080, Note_on_c, 0, 66, 95
3, 46080, Note_on_c, 0, 63, 95
3, 46080, Note_on_c, 0, 59, 95
3, 46080, Note_on_c, 0, 54, 95
3, 46080, Note_on_c, 0, 47, 95
3, 46560, Note_off_c, 0, 71, 80
3, 46560, Note_off_c, 0, 66, 80
3, 46560, Note_off_c, 0, 63, 80
3, 46560, Note_off_c, 0, 59, 80
3, 46560, Note_off_c, 0, 54, 80
3, 46560, Note_off_c, 0, 47, 80
3, 46560, Note_on_c, 0, 71, 95
3, 46560, Note_on_c, 0, 66, 95
3, 46560, Note_on_c, 0, 63, 95
3, 46560, Note_on_c, 0, 59, 95
3, 46560, Note_on_c, 0, 54, 95
3, 46560, Note_on_c, 0, 47, 95
3, 46800, Note_off_c, 0, 71, 80
3, 46800, Note_off_c, 0, 66, 80
3, 46800, Note_off_c, 0, 63, 80
3, 46800, Note_off_c, 0, 59, 80
3, 46800, Note_off_c, 0, 54, 80
3, 46800, Note_off_c, 0, 47, 80
3, 46800, Note_on_c, 0, 71, 95
3, 46800, Note_on_c, 0, 66, 95
3, 46800, Note_on_c, 0, 63, 95
3, 46800, Note_on_c, 0, 59, 95
3, 46800, Note_on_c, 0, 54, 95
3, 46800, Note_on_c, 0, 47, 95
3, 46920, Note_off_c, 0, 71, 80
3, 46920, Note_off_c, 0, 66, 80
3, 46920, Note_off_c, 0, 63, 80
3, 46920, Note_off_c, 0, 59, 80
3, 46920, Note_off_c, 0, 54, 80
3, 46920, Note_off_c, 0, 47, 80
3, 46920, Note_on_c, 0, 71, 95
3, 46920, Note_on_c, 0, 66, 95
3, 46920, Note_on_c, 0, 63, 95
3, 46920, Note_on_c, 0, 59, 95
3, 46920, Note_on_c, 0, 54, 95
3, 46920, Note_on_c, 0, 47, 95
3, 47040, Note_off_c, 0, 54, 80
3, 47160, Note_off_c, 0, 71, 80
3, 47160, Note_off_c, 0, 66, 80
3, 47160, Note_off_c, 0, 63, 80
3, 47160, Note_off_c, 0, 59, 80
3, 47160, Note_off_c, 0, 47, 80
3, 47160, Note_on_c, 0, 71, 95
3, 47160, Note_on_c, 0, 66, 95
3, 47160, Note_on_c, 0, 63, 95
3, 47160, Note_on_c, 0, 59, 95
3, 47160, Note_on_c, 0, 54, 95
3, 47160, Note_on_c, 0, 47, 95
3, 47280, Note_off_c, 0, 71, 80
3, 47280, Note_off_c, 0, 66, 80
3, 47280, Note_off_c, 0, 63, 80
3, 47280, Note_off_c, 0, 59, 80
3, 47280, Note_off_c, 0, 54, 80
3, 47280, Note_off_c, 0, 47, 80
3, 47280, Note_on_c, 0, 71, 95
3, 47280, Note_on_c, 0, 66, 95
3, 47280, Note_on_c, 0, 63, 95
3, 47280, Note_on_c, 0, 59, 95
3, 47280, Note_on_c, 0, 54, 95
3, 47280, Note_on_c, 0, 47, 95
3, 47520, Note_off_c, 0, 71, 80
3, 47520, Note_off_c, 0, 66, 80
3, 47520, Note_off_c, 0, 63, 80
3, 47520, Note_off_c, 0, 59, 80
3, 47520, Note_off_c, 0, 54, 80
3, 47520, Note_off_c, 0, 47, 80
3, 47520, Note_on_c, 0, 71, 95
3, 47520, Note_on_c, 0, 66, 95
3, 47520, Note_on_c, 0, 63, 95
3, 47520, Note_on_c, 0, 59, 95
3, 47520, Note_on_c, 0, 54, 95
3, 47520, Note_on_c, 0, 47, 95
3, 47640, Note_off_c, 0, 71, 80
3, 47640, Note_off_c, 0, 66, 80
3, 47640, Note_off_c, 0, 63, 80
3, 47640, Note_off_c, 0, 59, 80
3, 47640, Note_off_c, 0, 54, 80
3, 47640, Note_off_c, 0, 47, 80
3, 47640, Note_on_c, 0, 71, 95
3, 47640, Note_on_c, 0, 66, 95
3, 47640, Note_on_c, 0, 63, 95
3, 47640, Note_on_c, 0, 59, 95
3, 47640, Note_on_c, 0, 54, 95
3, 47640, Note_on_c, 0, 47, 95
3, 47760, Note_off_c, 0, 71, 80
3, 47760, Note_off_c, 0, 66, 80
3, 47760, Note_off_c, 0, 63, 80
3, 47760, Note_off_c, 0, 59, 80
3, 47760, Note_off_c, 0, 54, 80
3, 47760, Note_off_c, 0, 47, 80
3, 47760, Note_on_c, 0, 71, 95
3, 47760, Note_on_c, 0, 66, 95
3, 47760, Note_on_c, 0, 63, 95
3, 47760, Note_on_c, 0, 59, 95
3, 47760, Note_on_c, 0, 54, 95
3, 47760, Note_on_c, 0, 47, 95
3, 47880, Note_off_c, 0, 71, 80
3, 47880, Note_off_c, 0, 66, 80
3, 47880, Note_off_c, 0, 63, 80
3, 47880, Note_off_c, 0, 59, 80
3, 47880, Note_off_c, 0, 54, 80
3, 47880, Note_off_c, 0, 47, 80
3, 47880, Note_on_c, 0, 50, 95
3, 47880, Note_on_c, 0, 45, 95
3, 48000, Note_off_c, 0, 50, 80
3, 48000, Note_off_c, 0, 45, 80
3, 48000, Note_on_c, 0, 64, 95
3, 48000, Note_on_c, 0, 59, 95
3, 48000, Note_on_c, 0, 56, 95
3, 48000, Note_on_c, 0, 52, 95
3, 48000, Note_on_c, 0, 47, 95
3, 48000, Note_on_c, 0, 40, 95
3, 48240, Note_off_c, 0, 64, 80
3, 48240, Note_off_c, 0, 59, 80
3, 48240, Note_off_c, 0, 56, 80
3, 48240, Note_off_c, 0, 52, 80
3, 48240, Note_off_c, 0, 47, 80
3, 48240, Note_off_c, 0, 40, 80
3, 48240, Note_on_c, 0, 64, 95
3, 48240, Note_on_c, 0, 59, 95
3, 48240, Note_on_c, 0, 56, 95
3, 48240, Note_on_c, 0, 52, 95
3, 48240, Note_on_c, 0, 47, 95
3, 48240, Note_on_c, 0, 40, 95
3, 48260, Note_off_c, 0, 64, 80
3, 48260, Note_off_c, 0, 59, 80
3, 48480, Note_off_c, 0, 56, 80
3, 48480, Note_off_c, 0, 52, 80
3, 48480, Note_off_c, 0, 47, 80
3, 48480, Note_off_c, 0, 40, 80
3, 48480, Note_on_c, 0, 64, 95
3, 48480, Note_on_c, 0, 59, 95
3, 48480, Note_on_c, 0, 56, 95
3, 48480, Note_on_c, 0, 52, 95
3, 48480, Note_on_c, 0, 47, 95
3, 48480, Note_on_c, 0, 40, 95
3, 48720, Note_off_c, 0, 64, 80
3, 48720, Note_off_c, 0, 59, 80
3, 48720, Note_off_c, 0, 56, 80
3, 48720, Note_off_c, 0, 52, 80
3, 48720, Note_off_c, 0, 47, 80
3, 48720, Note_off_c, 0, 40, 80
3, 48720, Note_on_c, 0, 64, 95
3, 48720, Note_on_c, 0, 59, 95
3, 48720, Note_on_c, 0, 56, 95
3, 48720, Note_on_c, 0, 52, 95
3, 48720, Note_on_c, 0, 47, 95
3, 48720, Note_on_c, 0, 40, 95
3, 48840, Note_off_c, 0, 64, 80
3, 48840, Note_off_c, 0, 59, 80
3, 48840, Note_off_c, 0, 56, 80
3, 48840, Note_off_c, 0, 52, 80
3, 48840, Note_off_c, 0, 47, 80
3, 48840, Note_off_c, 0, 40, 80
3, 48840, Note_on_c, 0, 55, 95
3, 48840, Note_on_c, 0, 50, 95
3, 48840, Note_on_c, 0, 45, 95
3, 48960, Note_off_c, 0, 55, 80
3, 48960, Note_off_c, 0, 50, 80
3, 48960, Note_off_c, 0, 45, 80
3, 48960, Note_on_c, 0, 68, 95
3, 48960, Note_on_c, 0, 64, 95
3, 48960, Note_on_c, 0, 61, 95
3, 48960, Note_on_c, 0, 56, 95
3, 48960, Note_on_c, 0, 49, 95
3, 48960, Note_on_c, 0, 44, 95
3, 49200, Note_off_c, 0, 68, 80
3, 49200, Note_off_c, 0, 64, 80
3, 49200, Note_off_c, 0, 61, 80
3, 49200, Note_off_c, 0, 56, 80
3, 49200, Note_off_c, 0, 49, 80
3, 49200, Note_off_c, 0, 44, 80
3, 49200, Note_on_c, 0, 68, 95
3, 49200, Note_on_c, 0, 64, 95
3, 49200, Note_on_c, 0, 61, 95
3, 49200, Note_on_c, 0, 56, 95
3, 49200, Note_on_c, 0, 49, 95
3, 49200, Note_on_c, 0, 44, 95
3, 49220, Note_off_c, 0, 68, 80
3, 49440, Note_off_c, 0, 64, 80
3, 49440, Note_off_c, 0, 61, 80
3, 49440, Note_off_c, 0, 56, 80
3, 49440, Note_off_c, 0, 49, 80
3, 49440, Note_off_c, 0, 44, 80
3, 49440, Note_on_c, 0, 68, 95
3, 49440, Note_on_c, 0, 64, 95
3, 49440, Note_on_c, 0, 61, 95
3, 49440, Note_on_c, 0, 56, 95
3, 49440, Note_on_c, 0, 49, 95
3, 49440, Note_on_c, 0, 44, 95
3, 49680, Note_off_c, 0, 68, 80
3, 49680, Note_off_c, 0, 64, 80
3, 49680, Note_off_c, 0, 61, 80
3, 49680, Note_off_c, 0, 56, 80
3, 49680, Note_off_c, 0, 49, 80
3, 49680, Note_off_c, 0, 44, 80
3, 49680, Note_on_c, 0, 68, 95
3, 49680, Note_on_c, 0, 64, 95
3, 49680, Note_on_c, 0, 61, 95
3, 49680, Note_on_c, 0, 56, 95
3, 49680, Note_on_c, 0, 49, 95
3, 49680, Note_on_c, 0, 44, 95
3, 49800, Note_off_c, 0, 68, 80
3, 49800, Note_off_c, 0, 64, 80
3, 49800, Note_off_c, 0, 61, 80
3, 49800, Note_off_c, 0, 56, 80
3, 49800, Note_off_c, 0, 49, 80
3, 49800, Note_off_c, 0, 44, 80
3, 49800, Note_on_c, 0, 50, 95
3, 49800, Note_on_c, 0, 45, 95
3, 49800, Note_on_c, 0, 40, 95
3, 49920, Note_off_c, 0, 50, 80
3, 49920, Note_off_c, 0, 45, 80
3, 49920, Note_off_c, 0, 40, 80
3, 49920, Note_on_c, 0, 68, 95
3, 49920, Note_on_c, 0, 63, 95
3, 49920, Note_on_c, 0, 60, 95
3, 49920, Note_on_c, 0, 56, 95
3, 49920, Note_on_c, 0, 51, 95
3, 49920, Note_on_c, 0, 44, 95
3, 50160, Note_off_c, 0, 68, 80
3, 50160, Note_off_c, 0, 63, 80
3, 50160, Note_off_c, 0, 60, 80
3, 50160, Note_off_c, 0, 56, 80
3, 50160, Note_off_c, 0, 51, 80
3, 50160, Note_off_c, 0, 44, 80
3, 50160, Note_on_c, 0, 68, 95
3, 50160, Note_on_c, 0, 63, 95
3, 50160, Note_on_c, 0, 60, 95
3, 50160, Note_on_c, 0, 56, 95
3, 50160, Note_on_c, 0, 51, 95
3, 50160, Note_on_c, 0, 44, 95
3, 50180, Note_off_c, 0, 68, 80
3, 50400, Note_off_c, 0, 63, 80
3, 50400, Note_off_c, 0, 60, 80
3, 50400, Note_off_c, 0, 56, 80
3, 50400, Note_off_c, 0, 51, 80
3, 50400, Note_off_c, 0, 44, 80
3, 50400, Note_on_c, 0, 68, 95
3, 50400, Note_on_c, 0, 63, 95
3, 50400, Note_on_c, 0, 60, 95
3, 50400, Note_on_c, 0, 56, 95
3, 50400, Note_on_c, 0, 51, 95
3, 50400, Note_on_c, 0, 44, 95
3, 50640, Note_off_c, 0, 68, 80
3, 50640, Note_off_c, 0, 63, 80
3, 50640, Note_off_c, 0, 60, 80
3, 50640, Note_off_c, 0, 56, 80
3, 50640, Note_off_c, 0, 51, 80
3, 50640, Note_off_c, 0, 44, 80
3, 50640, Note_on_c, 1, 68, 95
3, 50640, Note_on_c, 1, 63, 95
3, 50640, Note_on_c, 1, 60, 95
3, 50640, Note_on_c, 1, 56, 95
3, 50640, Note_on_c, 1, 51, 95
3, 50640, Note_on_c, 1, 44, 95
3, 50736, Pitch_bend_c, 1, 8832
3, 50736, Pitch_bend_c, 1, 8832
3, 50736, Pitch_bend_c, 1, 8832
3, 50736, Pitch_bend_c, 1, 8832
3, 50736, Pitch_bend_c, 1, 8832
3, 50736, Pitch_bend_c, 1, 8832
3, 50760, Note_off_c, 1, 68, 80
3, 50760, Pitch_bend_c, 1, 8192
3, 50760, Note_off_c, 1, 63, 80
3, 50760, Pitch_bend_c, 1, 8192
3, 50760, Note_off_c, 1, 60, 80
3, 50760, Pitch_bend_c, 1, 8192
3, 50760, Note_off_c, 1, 56, 80
3, 50760, Pitch_bend_c, 1, 8192
3, 50760, Note_off_c, 1, 51, 80
3, 50760, Pitch_bend_c, 1, 8192
3, 50760, Note_off_c, 1, 44, 80
3, 50760, Pitch_bend_c, 1, 8192
3, 50760, Note_on_c, 0, 69, 76
3, 50760, Note_on_c, 0, 64, 76
3, 50760, Note_on_c, 0, 61, 76
3, 50760, Note_on_c, 0, 57, 76
3, 50760, Note_on_c, 0, 52, 76
3, 50760, Note_on_c, 0, 45, 76
3, 50880, Note_off_c, 0, 69, 80
3, 50880, Note_off_c, 0, 64, 80
3, 50880, Note_off_c, 0, 61, 80
3, 50880, Note_off_c, 0, 57, 80
3, 50880, Note_off_c, 0, 52, 80
3, 50880, Note_off_c, 0, 45, 80
3, 50880, Note_on_c, 0, 69, 95
3, 50880, Note_on_c, 0, 64, 95
3, 50880, Note_on_c, 0, 61, 95
3, 50880, Note_on_c, 0, 57, 95
3, 50880, Note_on_c, 0, 52, 95
3, 50880, Note_on_c, 0, 45, 95
3, 51000, Note_off_c, 0, 69, 80
3, 51000, Note_off_c, 0, 64, 80
3, 51000, Note_off_c, 0, 61, 80
3, 51000, Note_off_c, 0, 57, 80
3, 51000, Note_off_c, 0, 52, 80
3, 51000, Note_off_c, 0, 45, 80
3, 51000, Note_on_c, 0, 69, 95
3, 51000, Note_on_c, 0, 64, 95
3, 51000, Note_on_c, 0, 61, 95
3, 51000, Note_on_c, 0, 57, 95
3, 51000, Note_on_c, 0, 52, 95
3, 51000, Note_on_c, 0, 45, 95
3, 51120, Note_off_c, 0, 69, 80
3, 51120, Note_off_c, 0, 64, 80
3, 51120, Note_off_c, 0, 61, 80
3, 51120, Note_off_c, 0, 57, 80
3, 51120, Note_off_c, 0, 52, 80
3, 51120, Note_off_c, 0, 45, 80
3, 51120, Note_on_c, 0, 69, 95
3, 51120, Note_on_c, 0, 64, 95
3, 51120, Note_on_c, 0, 61, 95
3, 51120, Note_on_c, 0, 57, 95
3, 51120, Note_on_c, 0, 52, 95
3, 51120, Note_on_c, 0, 45, 95
3, 51240, Note_off_c, 0, 69, 80
3, 51240, Note_off_c, 0, 64, 80
3, 51240, Note_off_c, 0, 61, 80
3, 51240, Note_off_c, 0, 57, 80
3, 51240, Note_off_c, 0, 52, 80
3, 51240, Note_off_c, 0, 45, 80
3, 51240, Note_on_c, 1, 68, 95
3, 51240, Note_on_c, 1, 63, 95
3, 51240, Note_on_c, 1, 60, 95
3, 51240, Note_on_c, 1, 56, 95
3, 51240, Note_on_c, 1, 51, 95
3, 51240, Note_on_c, 1, 44, 95
3, 51336, Pitch_bend_c, 1, 8832
3, 51336, Pitch_bend_c, 1, 8832
3, 51336, Pitch_bend_c, 1, 8832
3, 51336, Pitch_bend_c, 1, 8832
3, 51336, Pitch_bend_c, 1, 8832
3, 51336, Pitch_bend_c, 1, 8832
3, 51360, Note_off_c, 1, 68, 80
3, 51360, Pitch_bend_c, 1, 8192
3, 51360, Note_off_c, 1, 63, 80
3, 51360, Pitch_bend_c, 1, 8192
3, 51360, Note_off_c, 1, 60, 80
3, 51360, Pitch_bend_c, 1, 8192
3, 51360, Note_off_c, 1, 56, 80
3, 51360, Pitch_bend_c, 1, 8192
3, 51360, Note_off_c, 1, 51, 80
3, 51360, Pitch_bend_c, 1, 8192
3, 51360, Note_off_c, 1, 44, 80
3, 51360, Pitch_bend_c, 1, 8192
3, 51360, Note_on_c, 0, 69, 76
3, 51360, Note_on_c, 0, 64, 76
3, 51360, Note_on_c, 0, 61, 76
3, 51360, Note_on_c, 0, 57, 76
3, 51360, Note_on_c, 0, 52, 76
3, 51360, Note_on_c, 0, 45, 76
3, 51480, Note_off_c, 0, 69, 80
3, 51480, Note_off_c, 0, 64, 80
3, 51480, Note_off_c, 0, 61, 80
3, 51480, Note_off_c, 0, 57, 80
3, 51480, Note_off_c, 0, 52, 80
3, 51480, Note_off_c, 0, 45, 80
3, 51480, Note_on_c, 0, 69, 95
3, 51480, Note_on_c, 0, 64, 95
3, 51480, Note_on_c, 0, 61, 95
3, 51480, Note_on_c, 0, 57, 95
3, 51480, Note_on_c, 0, 52, 95
3, 51480, Note_on_c, 0, 45, 95
3, 51600, Note_off_c, 0, 69, 80
3, 51600, Note_off_c, 0, 64, 80
3, 51600, Note_off_c, 0, 61, 80
3, 51600, Note_off_c, 0, 57, 80
3, 51600, Note_off_c, 0, 52, 80
3, 51600, Note_off_c, 0, 45, 80
3, 51600, Note_on_c, 0, 69, 95
3, 51600, Note_on_c, 0, 64, 95
3, 51600, Note_on_c, 0, 61, 95
3, 51600, Note_on_c, 0, 57, 95
3, 51600, Note_on_c, 0, 52, 95
3, 51600, Note_on_c, 0, 45, 95
3, 51720, Note_off_c, 0, 69, 80
3, 51720, Note_off_c, 0, 64, 80
3, 51720, Note_off_c, 0, 61, 80
3, 51720, Note_off_c, 0, 57, 80
3, 51720, Note_off_c, 0, 52, 80
3, 51720, Note_off_c, 0, 45, 80
3, 51720, Note_on_c, 0, 55, 95
3, 51720, Note_on_c, 0, 50, 95
3, 51720, Note_on_c, 0, 45, 95
3, 51720, Note_on_c, 0, 40, 95
3, 51840, Note_off_c, 0, 55, 80
3, 51840, Note_off_c, 0, 50, 80
3, 51840, Note_off_c, 0, 45, 80
3, 51840, Note_off_c, 0, 40, 80
3, 51840, Note_on_c, 0, 64, 95
3, 51840, Note_on_c, 0, 59, 95
3, 51840, Note_on_c, 0, 56, 95
3, 51840, Note_on_c, 0, 52, 95
3, 51840, Note_on_c, 0, 47, 95
3, 51840, Note_on_c, 0, 40, 95
3, 52080, Note_off_c, 0, 64, 80
3, 52080, Note_off_c, 0, 59, 80
3, 52080, Note_off_c, 0, 56, 80
3, 52080, Note_off_c, 0, 52, 80
3, 52080, Note_off_c, 0, 47, 80
3, 52080, Note_off_c, 0, 40, 80
3, 52080, Note_on_c, 0, 64, 95
3, 52080, Note_on_c, 0, 59, 95
3, 52080, Note_on_c, 0, 56, 95
3, 52080, Note_on_c, 0, 52, 95
3, 52080, Note_on_c, 0, 47, 95
3, 52080, Note_on_c, 0, 40, 95
3, 52100, Note_off_c, 0, 64, 80
3, 52100, Note_off_c, 0, 59, 80
3, 52320, Note_off_c, 0, 56, 80
3, 52320, Note_off_c, 0, 52, 80
3, 52320, Note_off_c, 0, 47, 80
3, 52320, Note_off_c, 0, 40, 80
3, 52320, Note_on_c, 0, 64, 95
3, 52320, Note_on_c, 0, 59, 95
3, 52320, Note_on_c, 0, 56, 95
3, 52320, Note_on_c, 0, 52, 95
3, 52320, Note_on_c, 0, 47, 95
3, 52320, Note_on_c, 0, 40, 95
3, 52560, Note_off_c, 0, 64, 80
3, 52560, Note_off_c, 0, 59, 80
3, 52560, Note_off_c, 0, 56, 80
3, 52560, Note_off_c, 0, 52, 80
3, 52560, Note_off_c, 0, 47, 80
3, 52560, Note_off_c, 0, 40, 80
3, 52560, Note_on_c, 0, 64, 95
3, 52560, Note_on_c, 0, 59, 95
3, 52560, Note_on_c, 0, 56, 95
3, 52560, Note_on_c, 0, 52, 95
3, 52560, Note_on_c, 0, 47, 95
3, 52560, Note_on_c, 0, 40, 95
3, 52680, Note_off_c, 0, 64, 80
3, 52680, Note_off_c, 0, 59, 80
3, 52680, Note_off_c, 0, 56, 80
3, 52680, Note_off_c, 0, 52, 80
3, 52680, Note_off_c, 0, 47, 80
3, 52680, Note_off_c, 0, 40, 80
3, 52680, Note_on_c, 0, 55, 95
3, 52680, Note_on_c, 0, 50, 95
3, 52680, Note_on_c, 0, 45, 95
3, 52800, Note_off_c, 0, 55, 80
3, 52800, Note_off_c, 0, 50, 80
3, 52800, Note_off_c, 0, 45, 80
3, 52800, Note_on_c, 0, 68, 95
3, 52800, Note_on_c, 0, 64, 95
3, 52800, Note_on_c, 0, 61, 95
3, 52800, Note_on_c, 0, 56, 95
3, 52800, Note_on_c, 0, 49, 95
3, 52800, Note_on_c, 0, 44, 95
3, 53040, Note_off_c, 0, 68, 80
3, 53040, Note_off_c, 0, 64, 80
3, 53040, Note_off_c, 0, 61, 80
3, 53040, Note_off_c, 0, 56, 80
3, 53040, Note_off_c, 0, 49, 80
3, 53040, Note_off_c, 0, 44, 80
3, 53040, Note_on_c, 0, 68, 95
3, 53040, Note_on_c, 0, 64, 95
3, 53040, Note_on_c, 0, 61, 95
3, 53040, Note_on_c, 0, 56, 95
3, 53040, Note_on_c, 0, 49, 95
3, 53040, Note_on_c, 0, 44, 95
3, 53060, Note_off_c, 0, 68, 80
3, 53280, Note_off_c, 0, 64, 80
3, 53280, Note_off_c, 0, 61, 80
3, 53280, Note_off_c, 0, 56, 80
3, 53280, Note_off_c, 0, 49, 80
3, 53280, Note_off_c, 0, 44, 80
3, 53280, Note_on_c, 0, 68, 95
3, 53280, Note_on_c, 0, 64, 95
3, 53280, Note_on_c, 0, 61, 95
3, 53280, Note_on_c, 0, 56, 95
3, 53280, Note_on_c, 0, 49, 95
3, 53280, Note_on_c, 0, 44, 95
3, 53520, Note_off_c, 0, 68, 80
3, 53520, Note_off_c, 0, 64, 80
3, 53520, Note_off_c, 0, 61, 80
3, 53520, Note_off_c, 0, 56, 80
3, 53520, Note_off_c, 0, 49, 80
3, 53520, Note_off_c, 0, 44, 80
3, 53520, Note_on_c, 0, 68, 95
3, 53520, Note_on_c, 0, 64, 95
3, 53520, Note_on_c, 0, 61, 95
3, 53520, Note_on_c, 0, 56, 95
3, 53520, Note_on_c, 0, 49, 95
3, 53520, Note_on_c, 0, 44, 95
3, 53640, Note_off_c, 0, 68, 80
3, 53640, Note_off_c, 0, 64, 80
3, 53640, Note_off_c, 0, 61, 80
3, 53640, Note_off_c, 0, 56, 80
3, 53640, Note_off_c, 0, 49, 80
3, 53640, Note_off_c, 0, 44, 80
3, 53640, Note_on_c, 0, 50, 95
3, 53640, Note_on_c, 0, 45, 95
3, 53640, Note_on_c, 0, 40, 95
3, 53760, Note_off_c, 0, 50, 80
3, 53760, Note_off_c, 0, 45, 80
3, 53760, Note_off_c, 0, 40, 80
3, 53760, Note_on_c, 0, 68, 95
3, 53760, Note_on_c, 0, 63, 95
3, 53760, Note_on_c, 0, 60, 95
3, 53760, Note_on_c, 0, 56, 95
3, 53760, Note_on_c, 0, 51, 95
3, 53760, Note_on_c, 0, 44, 95
3, 54000, Note_off_c, 0, 68, 80
3, 54000, Note_off_c, 0, 63, 80
3, 54000, Note_off_c, 0, 60, 80
3, 54000, Note_off_c, 0, 56, 80
3, 54000, Note_off_c, 0, 51, 80
3, 54000, Note_off_c, 0, 44, 80
3, 54000, Note_on_c, 0, 68, 95
3, 54000, Note_on_c, 0, 63, 95
3, 54000, Note_on_c, 0, 60, 95
3, 54000, Note_on_c, 0, 56, 95
3, 54000, Note_on_c, 0, 51, 95
3, 54000, Note_on_c, 0, 44, 95
3, 54020, Note_off_c, 0, 68, 80
3, 54240, Note_off_c, 0, 63, 80
3, 54240, Note_off_c, 0, 60, 80
3, 54240, Note_off_c, 0, 56, 80
3, 54240, Note_off_c, 0, 51, 80
3, 54240, Note_off_c, 0, 44, 80
3, 54240, Note_on_c, 0, 68, 95
3, 54240, Note_on_c, 0, 63, 95
3, 54240, Note_on_c, 0, 60, 95
3, 54240, Note_on_c, 0, 56, 95
3, 54240, Note_on_c, 0, 51, 95
3, 54240, Note_on_c, 0, 44, 95
3, 54480, Note_off_c, 0, 68, 80
3, 54480, Note_off_c, 0, 63, 80
3, 54480, Note_off_c, 0, 60, 80
3, 54480, Note_off_c, 0, 56, 80
3, 54480, Note_off_c, 0, 51, 80
3, 54480, Note_off_c, 0, 44, 80
3, 54480, Note_on_c, 1, 68, 95
3, 54480, Note_on_c, 1, 63, 95
3, 54480, Note_on_c, 1, 60, 95
3, 54480, Note_on_c, 1, 56, 95
3, 54480, Note_on_c, 1, 51, 95
3, 54480, Note_on_c, 1, 44, 95
3, 54576, Pitch_bend_c, 1, 8832
3, 54576, Pitch_bend_c, 1, 8832
3, 54576, Pitch_bend_c, 1, 8832
3, 54576, Pitch_bend_c, 1, 8832
3, 54576, Pitch_bend_c, 1, 8832
3, 54576, Pitch_bend_c, 1, 8832
3, 54600, Note_off_c, 1, 68, 80
3, 54600, Pitch_bend_c, 1, 8192
3, 54600, Note_off_c, 1, 63, 80
3, 54600, Pitch_bend_c, 1, 8192
3, 54600, Note_off_c, 1, 60, 80
3, 54600, Pitch_bend_c, 1, 8192
3, 54600, Note_off_c, 1, 56, 80
3, 54600, Pitch_bend_c, 1, 8192
3, 54600, Note_off_c, 1, 51, 80
3, 54600, Pitch_bend_c, 1, 8192
3, 54600, Note_off_c, 1, 44, 80
3, 54600, Pitch_bend_c, 1, 8192
3, 54600, Note_on_c, 0, 69, 76
3, 54600, Note_on_c, 0, 64, 76
3, 54600, Note_on_c, 0, 61, 76
3, 54600, Note_on_c, 0, 57, 76
3, 54600, Note_on_c, 0, 52, 76
3, 54600, Note_on_c, 0, 45, 76
3, 54720, Note_off_c, 0, 69, 80
3, 54720, Note_off_c, 0, 64, 80
3, 54720, Note_off_c, 0, 61, 80
3, 54720, Note_off_c, 0, 57, 80
3, 54720, Note_off_c, 0, 52, 80
3, 54720, Note_off_c, 0, 45, 80
3, 54720, Note_on_c, 0, 69, 95
3, 54720, Note_on_c, 0, 64, 95
3, 54720, Note_on_c, 0, 61, 95
3, 54720, Note_on_c, 0, 57, 95
3, 54720, Note_on_c, 0, 52, 95
3, 54720, Note_on_c, 0, 45, 95
3, 54840, Note_off_c, 0, 69, 80
3, 54840, Note_off_c, 0, 64, 80
3, 54840, Note_off_c, 0, 61, 80
3, 54840, Note_off_c, 0, 57, 80
3, 54840, Note_off_c, 0, 52, 80
3, 54840, Note_off_c, 0, 45, 80
3, 54840, Note_on_c, 0, 69, 95
3, 54840, Note_on_c, 0, 64, 95
3, 54840, Note_on_c, 0, 61, 95
3, 54840, Note_on_c, 0, 57, 95
3, 54840, Note_on_c, 0, 52, 95
3, 54840, Note_on_c, 0, 45, 95
3, 54960, Note_off_c, 0, 69, 80
3, 54960, Note_off_c, 0, 64, 80
3, 54960, Note_off_c, 0, 61, 80
3, 54960, Note_off_c, 0, 57, 80
3, 54960, Note_off_c, 0, 52, 80
3, 54960, Note_off_c, 0, 45, 80
3, 54960, Note_on_c, 0, 69, 95
3, 54960, Note_on_c, 0, 64, 95
3, 54960, Note_on_c, 0, 61, 95
3, 54960, Note_on_c, 0, 57, 95
3, 54960, Note_on_c, 0, 52, 95
3, 54960, Note_on_c, 0, 45, 95
3, 55080, Note_off_c, 0, 69, 80
3, 55080, Note_off_c, 0, 64, 80
3, 55080, Note_off_c, 0, 61, 80
3, 55080, Note_off_c, 0, 57, 80
3, 55080, Note_off_c, 0, 52, 80
3, 55080, Note_off_c, 0, 45, 80
3, 55080, Note_on_c, 1, 68, 95
3, 55080, Note_on_c, 1, 63, 95
3, 55080, Note_on_c, 1, 60, 95
3, 55080, Note_on_c, 1, 56, 95
3, 55080, Note_on_c, 1, 51, 95
3, 55080, Note_on_c, 1, 44, 95
3, 55176, Pitch_bend_c, 1, 8832
3, 55176, Pitch_bend_c, 1, 8832
3, 55176, Pitch_bend_c, 1, 8832
3, 55176, Pitch_bend_c, 1, 8832
3, 55176, Pitch_bend_c, 1, 8832
3, 55176, Pitch_bend_c, 1, 8832
3, 55200, Note_off_c, 1, 68, 80
3, 55200, Pitch_bend_c, 1, 8192
3, 55200, Note_off_c, 1, 63, 80
3, 55200, Pitch_bend_c, 1, 8192
3, 55200, Note_off_c, 1, 60, 80
3, 55200, Pitch_bend_c, 1, 8192
3, 55200, Note_off_c, 1, 56, 80
3, 55200, Pitch_bend_c, 1, 8192
3, 55200, Note_off_c, 1, 51, 80
3, 55200, Pitch_bend_c, 1, 8192
3, 55200, Note_off_c, 1, 44, 80
3, 55200, Pitch_bend_c, 1, 8192
3, 55200, Note_on_c, 0, 69, 76
3, 55200, Note_on_c, 0, 64, 76
3, 55200, Note_on_c, 0, 61, 76
3, 55200, Note_on_c, 0, 57, 76
3, 55200, Note_on_c, 0, 52, 76
3, 55200, Note_on_c, 0, 45, 76
3, 55320, Note_off_c, 0, 69, 80
3, 55320, Note_off_c, 0, 64, 80
3, 55320, Note_off_c, 0, 61, 80
3, 55320, Note_off_c, 0, 57, 80
3, 55320, Note_off_c, 0, 52, 80
3, 55320, Note_off_c, 0, 45, 80
3, 55320, Note_on_c, 0, 69, 95
3, 55320, Note_on_c, 0, 64, 95
3, 55320, Note_on_c, 0, 61, 95
3, 55320, Note_on_c, 0, 57, 95
3, 55320, Note_on_c, 0, 52, 95
3, 55320, Note_on_c, 0, 45, 95
3, 55440, Note_off_c, 0, 69, 80
3, 55440, Note_off_c, 0, 64, 80
3, 55440, Note_off_c, 0, 61, 80
3, 55440, Note_off_c, 0, 57, 80
3, 55440, Note_off_c, 0, 52, 80
3, 55440, Note_off_c, 0, 45, 80
3, 55440, Note_on_c, 0, 69, 95
3, 55440, Note_on_c, 0, 64, 95
3, 55440, Note_on_c, 0, 61, 95
3, 55440, Note_on_c, 0, 57, 95
3, 55440, Note_on_c, 0, 52, 95
3, 55440, Note_on_c, 0, 45, 95
3, 55560, Note_off_c, 0, 69, 80
3, 55560, Note_off_c, 0, 64, 80
3, 55560, Note_off_c, 0, 61, 80
3, 55560, Note_off_c, 0, 57, 80
3, 55560, Note_off_c, 0, 52, 80
3, 55560, Note_off_c, 0, 45, 80
3, 55560, Note_on_c, 0, 55, 95
3, 55560, Note_on_c, 0, 50, 95
3, 55560, Note_on_c, 0, 45, 95
3, 55560, Note_on_c, 0, 40, 95
3, 55680, Note_off_c, 0, 55, 80
3, 55680, Note_off_c, 0, 50, 80
3, 55680, Note_off_c, 0, 45, 80
3, 55680, Note_off_c, 0, 40, 80
3, 55680, Note_on_c, 0, 64, 95
3, 55680, Note_on_c, 0, 59, 95
3, 55680, Note_on_c, 0, 56, 95
3, 55680, Note_on_c, 0, 52, 95
3, 55680, Note_on_c, 0, 47, 95
3, 55680, Note_on_c, 0, 40, 95
3, 55920, Note_off_c, 0, 64, 80
3, 55920, Note_off_c, 0, 59, 80
3, 55920, Note_off_c, 0, 56, 80
3, 55920, Note_off_c, 0, 52, 80
3, 55920, Note_off_c, 0, 47, 80
3, 55920, Note_off_c, 0, 40, 80
3, 55920, Note_on_c, 0, 64, 95
3, 55920, Note_on_c, 0, 59, 95
3, 55920, Note_on_c, 0, 56, 95
3, 55920, Note_on_c, 0, 52, 95
3, 55920, Note_on_c, 0, 47, 95
3, 55920, Note_on_c, 0, 40, 95
3, 55940, Note_off_c, 0, 64, 80
3, 55940, Note_off_c, 0, 59, 80
3, 56160, Note_off_c, 0, 56, 80
3, 56160, Note_off_c, 0, 52, 80
3, 56160, Note_off_c, 0, 47, 80
3, 56160, Note_off_c, 0, 40, 80
3, 56160, Note_on_c, 0, 64, 95
3, 56160, Note_on_c, 0, 59, 95
3, 56160, Note_on_c, 0, 56, 95
3, 56160, Note_on_c, 0, 52, 95
3, 56160, Note_on_c, 0, 47, 95
3, 56160, Note_on_c, 0, 40, 95
3, 56400, Note_off_c, 0, 64, 80
3, 56400, Note_off_c, 0, 59, 80
3, 56400, Note_off_c, 0, 56, 80
3, 56400, Note_off_c, 0, 52, 80
3, 56400, Note_off_c, 0, 47, 80
3, 56400, Note_off_c, 0, 40, 80
3, 56400, Note_on_c, 0, 64, 95
3, 56400, Note_on_c, 0, 59, 95
3, 56400, Note_on_c, 0, 56, 95
3, 56400, Note_on_c, 0, 52, 95
3, 56400, Note_on_c, 0, 47, 95
3, 56400, Note_on_c, 0, 40, 95
3, 56520, Note_off_c, 0, 64, 80
3, 56520, Note_off_c, 0, 59, 80
3, 56520, Note_off_c, 0, 56, 80
3, 56520, Note_off_c, 0, 52, 80
3, 56520, Note_off_c, 0, 47, 80
3, 56520, Note_off_c, 0, 40, 80
3, 56520, Note_on_c, 0, 55, 95
3, 56520, Note_on_c, 0, 50, 95
3, 56520, Note_on_c, 0, 45, 95
3, 56640, Note_off_c, 0, 55, 80
3, 56640, Note_off_c, 0, 50, 80
3, 56640, Note_off_c, 0, 45, 80
3, 56640, Note_on_c, 0, 68, 95
3, 56640, Note_on_c, 0, 64, 95
3, 56640, Note_on_c, 0, 61, 95
3, 56640, Note_on_c, 0, 56, 95
3, 56640, Note_on_c, 0, 49, 95
3, 56640, Note_on_c, 0, 44, 95
3, 56880, Note_off_c, 0, 68, 80
3, 56880, Note_off_c, 0, 64, 80
3, 56880, Note_off_c, 0, 61, 80
3, 56880, Note_off_c, 0, 56, 80
3, 56880, Note_off_c, 0, 49, 80
3, 56880, Note_off_c, 0, 44, 80
3, 56880, Note_on_c, 0, 68, 95
3, 56880, Note_on_c, 0, 64, 95
3, 56880, Note_on_c, 0, 61, 95
3, 56880, Note_on_c, 0, 56, 95
3, 56880, Note_on_c, 0, 49, 95
3, 56880, Note_on_c, 0, 44, 95
3, 56900, Note_off_c, 0, 68, 80
3, 57120, Note_off_c, 0, 64, 80
3, 57120, Note_off_c, 0, 61, 80
3, 57120, Note_off_c, 0, 56, 80
3, 57120, Note_off_c, 0, 49, 80
3, 57120, Note_off_c, 0, 44, 80
3, 57120, Note_on_c, 0, 68, 95
3, 57120, Note_on_c, 0, 64, 95
3, 57120, Note_on_c, 0, 61, 95
3, 57120, Note_on_c, 0, 56, 95
3, 57120, Note_on_c, 0, 49, 95
3, 57120, Note_on_c, 0, 44, 95
3, 57360, Note_off_c, 0, 68, 80
3, 57360, Note_off_c, 0, 64, 80
3, 57360, Note_off_c, 0, 61, 80
3, 57360, Note_off_c, 0, 56, 80
3, 57360, Note_off_c, 0, 49, 80
3, 57360, Note_off_c, 0, 44, 80
3, 57360, Note_on_c, 0, 68, 95
3, 57360, Note_on_c, 0, 64, 95
3, 57360, Note_on_c, 0, 61, 95
3, 57360, Note_on_c, 0, 56, 95
3, 57360, Note_on_c, 0, 49, 95
3, 57360, Note_on_c, 0, 44, 95
3, 57480, Note_off_c, 0, 68, 80
3, 57480, Note_off_c, 0, 64, 80
3, 57480, Note_off_c, 0, 61, 80
3, 57480, Note_off_c, 0, 56, 80
3, 57480, Note_off_c, 0, 49, 80
3, 57480, Note_off_c, 0, 44, 80
3, 57480, Note_on_c, 0, 50, 95
3, 57480, Note_on_c, 0, 45, 95
3, 57480, Note_on_c, 0, 40, 95
3, 57600, Note_off_c, 0, 50, 80
3, 57600, Note_off_c, 0, 45, 80
3, 57600, Note_off_c, 0, 40, 80
3, 57600, Note_on_c, 0, 68, 95
3, 57600, Note_on_c, 0, 63, 95
3, 57600, Note_on_c, 0, 60, 95
3, 57600, Note_on_c, 0, 56, 95
3, 57600, Note_on_c, 0, 51, 95
3, 57600, Note_on_c, 0, 44, 95
3, 57840, Note_off_c, 0, 68, 80
3, 57840, Note_off_c, 0, 63, 80
3, 57840, Note_off_c, 0, 60, 80
3, 57840, Note_off_c, 0, 56, 80
3, 57840, Note_off_c, 0, 51, 80
3, 57840, Note_off_c, 0, 44, 80
3, 57840, Note_on_c, 0, 68, 95
3, 57840, Note_on_c, 0, 63, 95
3, 57840, Note_on_c, 0, 60, 95
3, 57840, Note_on_c, 0, 56, 95
3, 57840, Note_on_c, 0, 51, 95
3, 57840, Note_on_c, 0, 44, 95
3, 57860, Note_off_c, 0, 68, 80
3, 58080, Note_off_c, 0, 63, 80
3, 58080, Note_off_c, 0, 60, 80
3, 58080, Note_off_c, 0, 56, 80
3, 58080, Note_off_c, 0, 51, 80
3, 58080, Note_off_c, 0, 44, 80
3, 58080, Note_on_c, 0, 68, 95
3, 58080, Note_on_c, 0, 63, 95
3, 58080, Note_on_c, 0, 60, 95
3, 58080, Note_on_c, 0, 56, 95
3, 58080, Note_on_c, 0, 51, 95
3, 58080, Note_on_c, 0, 44, 95
3, 58320, Note_off_c, 0, 68, 80
3, 58320, Note_off_c, 0, 63, 80
3, 58320, Note_off_c, 0, 60, 80
3, 58320, Note_off_c, 0, 56, 80
3, 58320, Note_off_c, 0, 51, 80
3, 58320, Note_off_c, 0, 44, 80
3, 58320, Note_on_c, 1, 68, 95
3, 58320, Note_on_c, 1, 63, 95
3, 58320, Note_on_c, 1, 60, 95
3, 58320, Note_on_c, 1, 56, 95
3, 58320, Note_on_c, 1, 51, 95
3, 58320, Note_on_c, 1, 44, 95
3, 58416, Pitch_bend_c, 1, 8832
3, 58416, Pitch_bend_c, 1, 8832
3, 58416, Pitch_bend_c, 1, 8832
3, 58416, Pitch_bend_c, 1, 8832
3, 58416, Pitch_bend_c, 1, 8832
3, 58416, Pitch_bend_c, 1, 8832
3, 58440, Note_off_c, 1, 68, 80
3, 58440, Pitch_bend_c, 1, 8192
3, 58440, Note_off_c, 1, 63, 80
3, 58440, Pitch_bend_c, 1, 8192
3, 58440, Note_off_c, 1, 60, 80
3, 58440, Pitch_bend_c, 1, 8192
3, 58440, Note_off_c, 1, 56, 80
3, 58440, Pitch_bend_c, 1, 8192
3, 58440, Note_off_c, 1, 51, 80
3, 58440, Pitch_bend_c, 1, 8192
3, 58440, Note_off_c, 1, 44, 80
3, 58440, Pitch_bend_c, 1, 8192
3, 58440, Note_on_c, 0, 69, 76
3, 58440, Note_on_c, 0, 64, 76
3, 58440, Note_on_c, 0, 61, 76
3, 58440, Note_on_c, 0, 57, 76
3, 58440, Note_on_c, 0, 52, 76
3, 58440, Note_on_c, 0, 45, 76
3, 58560, Note_off_c, 0, 69, 80
3, 58560, Note_off_c, 0, 64, 80
3, 58560, Note_off_c, 0, 61, 80
3, 58560, Note_off_c, 0, 57, 80
3, 58560, Note_off_c, 0, 52, 80
3, 58560, Note_off_c, 0, 45, 80
3, 58560, Note_on_c, 0, 69, 95
3, 58560, Note_on_c, 0, 64, 95
3, 58560, Note_on_c, 0, 61, 95
3, 58560, Note_on_c, 0, 57, 95
3, 58560, Note_on_c, 0, 52, 95
3, 58560, Note_on_c, 0, 45, 95
3, 58680, Note_off_c, 0, 69, 80
3, 58680, Note_off_c, 0, 64, 80
3, 58680, Note_off_c, 0, 61, 80
3, 58680, Note_off_c, 0, 57, 80
3, 58680, Note_off_c, 0, 52, 80
3, 58680, Note_off_c, 0, 45, 80
3, 58680, Note_on_c, 0, 69, 95
3, 58680, Note_on_c, 0, 64, 95
3, 58680, Note_on_c, 0, 61, 95
3, 58680, Note_on_c, 0, 57, 95
3, 58680, Note_on_c, 0, 52, 95
3, 58680, Note_on_c, 0, 45, 95
3, 58800, Note_off_c, 0, 69, 80
3, 58800, Note_off_c, 0, 64, 80
3, 58800, Note_off_c, 0, 61, 80
3, 58800, Note_off_c, 0, 57, 80
3, 58800, Note_off_c, 0, 52, 80
3, 58800, Note_off_c, 0, 45, 80
3, 58800, Note_on_c, 0, 69, 95
3, 58800, Note_on_c, 0, 64, 95
3, 58800, Note_on_c, 0, 61, 95
3, 58800, Note_on_c, 0, 57, 95
3, 58800, Note_on_c, 0, 52, 95
3, 58800, Note_on_c, 0, 45, 95
3, 58920, Note_off_c, 0, 69, 80
3, 58920, Note_off_c, 0, 64, 80
3, 58920, Note_off_c, 0, 61, 80
3, 58920, Note_off_c, 0, 57, 80
3, 58920, Note_off_c, 0, 52, 80
3, 58920, Note_off_c, 0, 45, 80
3, 58920, Note_on_c, 1, 68, 95
3, 58920, Note_on_c, 1, 63, 95
3, 58920, Note_on_c, 1, 60, 95
3, 58920, Note_on_c, 1, 56, 95
3, 58920, Note_on_c, 1, 51, 95
3, 58920, Note_on_c, 1, 44, 95
3, 59016, Pitch_bend_c, 1, 8832
3, 59016, Pitch_bend_c, 1, 8832
3, 59016, Pitch_bend_c, 1, 8832
3, 59016, Pitch_bend_c, 1, 8832
3, 59016, Pitch_bend_c, 1, 8832
3, 59016, Pitch_bend_c, 1, 8832
3, 59040, Note_off_c, 1, 68, 80
3, 59040, Pitch_bend_c, 1, 8192
3, 59040, Note_off_c, 1, 63, 80
3, 59040, Pitch_bend_c, 1, 8192
3, 59040, Note_off_c, 1, 60, 80
3, 59040, Pitch_bend_c, 1, 8192
3, 59040, Note_off_c, 1, 56, 80
3, 59040, Pitch_bend_c, 1, 8192
3, 59040, Note_off_c, 1, 51, 80
3, 59040, Pitch_bend_c, 1, 8192
3, 59040, Note_off_c, 1, 44, 80
3, 59040, Pitch_bend_c, 1, 8192
3, 59040, Note_on_c, 0, 69, 76
3, 59040, Note_on_c, 0, 64, 76
3, 59040, Note_on_c, 0, 61, 76
3, 59040, Note_on_c, 0, 57, 76
3, 59040, Note_on_c, 0, 52, 76
3, 59040, Note_on_c, 0, 45, 76
3, 59160, Note_off_c, 0, 69, 80
3, 59160, Note_off_c, 0, 64, 80
3, 59160, Note_off_c, 0, 61, 80
3, 59160, Note_off_c, 0, 57, 80
3, 59160, Note_off_c, 0, 52, 80
3, 59160, Note_off_c, 0, 45, 80
3, 59160, Note_on_c, 0, 69, 95
3, 59160, Note_on_c, 0, 64, 95
3, 59160, Note_on_c, 0, 61, 95
3, 59160, Note_on_c, 0, 57, 95
3, 59160, Note_on_c, 0, 52, 95
3, 59160, Note_on_c, 0, 45, 95
3, 59280, Note_off_c, 0, 69, 80
3, 59280, Note_off_c, 0, 64, 80
3, 59280, Note_off_c, 0, 61, 80
3, 59280, Note_off_c, 0, 57, 80
3, 59280, Note_off_c, 0, 52, 80
3, 59280, Note_off_c, 0, 45, 80
3, 59280, Note_on_c, 0, 69, 95
3, 59280, Note_on_c, 0, 64, 95
3, 59280, Note_on_c, 0, 61, 95
3, 59280, Note_on_c, 0, 57, 95
3, 59280, Note_on_c, 0, 52, 95
3, 59280, Note_on_c, 0, 45, 95
3, 59400, Note_off_c, 0, 69, 80
3, 59400, Note_off_c, 0, 64, 80
3, 59400, Note_off_c, 0, 61, 80
3, 59400, Note_off_c, 0, 57, 80
3, 59400, Note_off_c, 0, 52, 80
3, 59400, Note_off_c, 0, 45, 80
3, 59400, Note_on_c, 0, 55, 95
3, 59400, Note_on_c, 0, 50, 95
3, 59400, Note_on_c, 0, 45, 95
3, 59400, Note_on_c, 0, 40, 95
3, 59520, Note_off_c, 0, 55, 80
3, 59520, Note_off_c, 0, 50, 80
3, 59520, Note_off_c, 0, 45, 80
3, 59520, Note_off_c, 0, 40, 80
3, 59520, Note_on_c, 0, 64, 95
3, 59520, Note_on_c, 0, 59, 95
3, 59520, Note_on_c, 0, 56, 95
3, 59520, Note_on_c, 0, 52, 95
3, 59520, Note_on_c, 0, 47, 95
3, 59520, Note_on_c, 0, 40, 95
3, 59760, Note_off_c, 0, 64, 80
3, 59760, Note_off_c, 0, 59, 80
3, 59760, Note_off_c, 0, 56, 80
3, 59760, Note_off_c, 0, 52, 80
3, 59760, Note_off_c, 0, 47, 80
3, 59760, Note_off_c, 0, 40, 80
3, 59760, Note_on_c, 0, 64, 95
3, 59760, Note_on_c, 0, 59, 95
3, 59760, Note_on_c, 0, 56, 95
3, 59760, Note_on_c, 0, 52, 95
3, 59760, Note_on_c, 0, 47, 95
3, 59760, Note_on_c, 0, 40, 95
3, 59780, Note_off_c, 0, 64, 80
3, 59780, Note_off_c, 0, 59, 80
3, 60000, Note_off_c, 0, 56, 80
3, 60000, Note_off_c, 0, 52, 80
3, 60000, Note_off_c, 0, 47, 80
3, 60000, Note_off_c, 0, 40, 80
3, 60000, Note_on_c, 0, 64, 95
3, 60000, Note_on_c, 0, 59, 95
3, 60000, Note_on_c, 0, 56, 95
3, 60000, Note_on_c, 0, 52, 95
3, 60000, Note_on_c, 0, 47, 95
3, 60000, Note_on_c, 0, 40, 95
3, 60240, Note_off_c, 0, 64, 80
3, 60240, Note_off_c, 0, 59, 80
3, 60240, Note_off_c, 0, 56, 80
3, 60240, Note_off_c, 0, 52, 80
3, 60240, Note_off_c, 0, 47, 80
3, 60240, Note_off_c, 0, 40, 80
3, 60240, Note_on_c, 0, 64, 95
3, 60240, Note_on_c, 0, 59, 95
3, 60240, Note_on_c, 0, 56, 95
3, 60240, Note_on_c, 0, 52, 95
3, 60240, Note_on_c, 0, 47, 95
3, 60240, Note_on_c, 0, 40, 95
3, 60360, Note_off_c, 0, 64, 80
3, 60360, Note_off_c, 0, 59, 80
3, 60360, Note_off_c, 0, 56, 80
3, 60360, Note_off_c, 0, 52, 80
3, 60360, Note_off_c, 0, 47, 80
3, 60360, Note_off_c, 0, 40, 80
3, 60360, Note_on_c, 0, 55, 95
3, 60360, Note_on_c, 0, 50, 95
3, 60360, Note_on_c, 0, 45, 95
3, 60480, Note_off_c, 0, 55, 80
3, 60480, Note_off_c, 0, 50, 80
3, 60480, Note_off_c, 0, 45, 80
3, 60480, Note_on_c, 0, 68, 95
3, 60480, Note_on_c, 0, 64, 95
3, 60480, Note_on_c, 0, 61, 95
3, 60480, Note_on_c, 0, 56, 95
3, 60480, Note_on_c, 0, 49, 95
3, 60480, Note_on_c, 0, 44, 95
3, 60720, Note_off_c, 0, 68, 80
3, 60720, Note_off_c, 0, 64, 80
3, 60720, Note_off_c, 0, 61, 80
3, 60720, Note_off_c, 0, 56, 80
3, 60720, Note_off_c, 0, 49, 80
3, 60720, Note_off_c, 0, 44, 80
3, 60720, Note_on_c, 0, 68, 95
3, 60720, Note_on_c, 0, 64, 95
3, 60720, Note_on_c, 0, 61, 95
3, 60720, Note_on_c, 0, 56, 95
3, 60720, Note_on_c, 0, 49, 95
3, 60720, Note_on_c, 0, 44, 95
3, 60740, Note_off_c, 0, 68, 80
3, 60960, Note_off_c, 0, 64, 80
3, 60960, Note_off_c, 0, 61, 80
3, 60960, Note_off_c, 0, 56, 80
3, 60960, Note_off_c, 0, 49, 80
3, 60960, Note_off_c, 0, 44, 80
3, 60960, Note_on_c, 0, 68, 95
3, 60960, Note_on_c, 0, 64, 95
3, 60960, Note_on_c, 0, 61, 95
3, 60960, Note_on_c, 0, 56, 95
3, 60960, Note_on_c, 0, 49, 95
3, 60960, Note_on_c, 0, 44, 95
3, 61200, Note_off_c, 0, 68, 80
3, 61200, Note_off_c, 0, 64, 80
3, 61200, Note_off_c, 0, 61, 80
3, 61200, Note_off_c, 0, 56, 80
3, 61200, Note_off_c, 0, 49, 80
3, 61200, Note_off_c, 0, 44, 80
3, 61200, Note_on_c, 0, 68, 95
3, 61200, Note_on_c, 0, 64, 95
3, 61200, Note_on_c, 0, 61, 95
3, 61200, Note_on_c, 0, 56, 95
3, 61200, Note_on_c, 0, 49, 95
3, 61200, Note_on_c, 0, 44, 95
3, 61320, Note_off_c, 0, 68, 80
3, 61320, Note_off_c, 0, 64, 80
3, 61320, Note_off_c, 0, 61, 80
3, 61320, Note_off_c, 0, 56, 80
3, 61320, Note_off_c, 0, 49, 80
3, 61320, Note_off_c, 0, 44, 80
3, 61320, Note_on_c, 0, 50, 95
3, 61320, Note_on_c, 0, 45, 95
3, 61320, Note_on_c, 0, 40, 95
3, 61440, Note_off_c, 0, 50, 80
3, 61440, Note_off_c, 0, 45, 80
3, 61440, Note_off_c, 0, 40, 80
3, 61440, Note_on_c, 0, 68, 95
3, 61440, Note_on_c, 0, 63, 95
3, 61440, Note_on_c, 0, 60, 95
3, 61440, Note_on_c, 0, 56, 95
3, 61440, Note_on_c, 0, 51, 95
3, 61440, Note_on_c, 0, 44, 95
3, 61680, Note_off_c, 0, 68, 80
3, 61680, Note_off_c, 0, 63, 80
3, 61680, Note_off_c, 0, 60, 80
3, 61680, Note_off_c, 0, 56, 80
3, 61680, Note_off_c, 0, 51, 80
3, 61680, Note_off_c, 0, 44, 80
3, 61680, Note_on_c, 0, 68, 95
3, 61680, Note_on_c, 0, 63, 95
3, 61680, Note_on_c, 0, 60, 95
3, 61680, Note_on_c, 0, 56, 95
3, 61680, Note_on_c, 0, 51, 95
3, 61680, Note_on_c, 0, 44, 95
3, 61700, Note_off_c, 0, 68, 80
3, 61920, Note_off_c, 0, 63, 80
3, 61920, Note_off_c, 0, 60, 80
3, 61920, Note_off_c, 0, 56, 80
3, 61920, Note_off_c, 0, 51, 80
3, 61920, Note_off_c, 0, 44, 80
3, 61920, Note_on_c, 0, 68, 95
3, 61920, Note_on_c, 0, 63, 95
3, 61920, Note_on_c, 0, 60, 95
3, 61920, Note_on_c, 0, 56, 95
3, 61920, Note_on_c, 0, 51, 95
3, 61920, Note_on_c, 0, 44, 95
3, 62160, Note_off_c, 0, 68, 80
3, 62160, Note_off_c, 0, 63, 80
3, 62160, Note_off_c, 0, 60, 80
3, 62160, Note_off_c, 0, 56, 80
3, 62160, Note_off_c, 0, 51, 80
3, 62160, Note_off_c, 0, 44, 80
3, 62160, Note_on_c, 1, 68, 95
3, 62160, Note_on_c, 1, 63, 95
3, 62160, Note_on_c, 1, 60, 95
3, 62160, Note_on_c, 1, 56, 95
3, 62160, Note_on_c, 1, 51, 95
3, 62160, Note_on_c, 1, 44, 95
3, 62256, Pitch_bend_c, 1, 8832
3, 62256, Pitch_bend_c, 1, 8832
3, 62256, Pitch_bend_c, 1, 8832
3, 62256, Pitch_bend_c, 1, 8832
3, 62256, Pitch_bend_c, 1, 8832
3, 62256, Pitch_bend_c, 1, 8832
3, 62280, Note_off_c, 1, 68, 80
3, 62280, Pitch_bend_c, 1, 8192
3, 62280, Note_off_c, 1, 63, 80
3, 62280, Pitch_bend_c, 1, 8192
3, 62280, Note_off_c, 1, 60, 80
3, 62280, Pitch_bend_c, 1, 8192
3, 62280, Note_off_c, 1, 56, 80
3, 62280, Pitch_bend_c, 1, 8192
3, 62280, Note_off_c, 1, 51, 80
3, 62280, Pitch_bend_c, 1, 8192
3, 62280, Note_off_c, 1, 44, 80
3, 62280, Pitch_bend_c, 1, 8192
3, 62280, Note_on_c, 0, 69, 76
3, 62280, Note_on_c, 0, 64, 76
3, 62280, Note_on_c, 0, 61, 76
3, 62280, Note_on_c, 0, 57, 76
3, 62280, Note_on_c, 0, 52, 76
3, 62280, Note_on_c, 0, 45, 76
3, 62400, Note_off_c, 0, 69, 80
3, 62400, Note_off_c, 0, 64, 80
3, 62400, Note_off_c, 0, 61, 80
3, 62400, Note_off_c, 0, 57, 80
3, 62400, Note_off_c, 0, 52, 80
3, 62400, Note_off_c, 0, 45, 80
3, 62400, Note_on_c, 0, 69, 95
3, 62400, Note_on_c, 0, 64, 95
3, 62400, Note_on_c, 0, 61, 95
3, 62400, Note_on_c, 0, 57, 95
3, 62400, Note_on_c, 0, 52, 95
3, 62400, Note_on_c, 0, 45, 95
3, 62520, Note_off_c, 0, 69, 80
3, 62520, Note_off_c, 0, 64, 80
3, 62520, Note_off_c, 0, 61, 80
3, 62520, Note_off_c, 0, 57, 80
3, 62520, Note_off_c, 0, 52, 80
3, 62520, Note_off_c, 0, 45, 80
3, 62520, Note_on_c, 0, 69, 95
3, 62520, Note_on_c, 0, 64, 95
3, 62520, Note_on_c, 0, 61, 95
3, 62520, Note_on_c, 0, 57, 95
3, 62520, Note_on_c, 0, 52, 95
3, 62520, Note_on_c, 0, 45, 95
3, 62640, Note_off_c, 0, 69, 80
3, 62640, Note_off_c, 0, 64, 80
3, 62640, Note_off_c, 0, 61, 80
3, 62640, Note_off_c, 0, 57, 80
3, 62640, Note_off_c, 0, 52, 80
3, 62640, Note_off_c, 0, 45, 80
3, 62640, Note_on_c, 0, 69, 95
3, 62640, Note_on_c, 0, 64, 95
3, 62640, Note_on_c, 0, 61, 95
3, 62640, Note_on_c, 0, 57, 95
3, 62640, Note_on_c, 0, 52, 95
3, 62640, Note_on_c, 0, 45, 95
3, 62760, Note_off_c, 0, 69, 80
3, 62760, Note_off_c, 0, 64, 80
3, 62760, Note_off_c, 0, 61, 80
3, 62760, Note_off_c, 0, 57, 80
3, 62760, Note_off_c, 0, 52, 80
3, 62760, Note_off_c, 0, 45, 80
3, 62760, Note_on_c, 1, 68, 95
3, 62760, Note_on_c, 1, 63, 95
3, 62760, Note_on_c, 1, 60, 95
3, 62760, Note_on_c, 1, 56, 95
3, 62760, Note_on_c, 1, 51, 95
3, 62760, Note_on_c, 1, 44, 95
3, 62856, Pitch_bend_c, 1, 8832
3, 62856, Pitch_bend_c, 1, 8832
3, 62856, Pitch_bend_c, 1, 8832
3, 62856, Pitch_bend_c, 1, 8832
3, 62856, Pitch_bend_c, 1, 8832
3, 62856, Pitch_bend_c, 1, 8832
3, 62880, Note_off_c, 1, 68, 80
3, 62880, Pitch_bend_c, 1, 8192
3, 62880, Note_off_c, 1, 63, 80
3, 62880, Pitch_bend_c, 1, 8192
3, 62880, Note_off_c, 1, 60, 80
3, 62880, Pitch_bend_c, 1, 8192
3, 62880, Note_off_c, 1, 56, 80
3, 62880, Pitch_bend_c, 1, 8192
3, 62880, Note_off_c, 1, 51, 80
3, 62880, Pitch_bend_c, 1, 8192
3, 62880, Note_off_c, 1, 44, 80
3, 62880, Pitch_bend_c, 1, 8192
3, 62880, Note_on_c, 0, 69, 76
3, 62880, Note_on_c, 0, 64, 76
3, 62880, Note_on_c, 0, 61, 76
3, 62880, Note_on_c, 0, 57, 76
3, 62880, Note_on_c, 0, 52, 76
3, 62880, Note_on_c, 0, 45, 76
3, 63000, Note_off_c, 0, 69, 80
3, 63000, Note_off_c, 0, 64, 80
3, 63000, Note_off_c, 0, 61, 80
3, 63000, Note_off_c, 0, 57, 80
3, 63000, Note_off_c, 0, 52, 80
3, 63000, Note_off_c, 0, 45, 80
3, 63000, Note_on_c, 0, 69, 95
3, 63000, Note_on_c, 0, 64, 95
3, 63000, Note_on_c, 0, 61, 95
3, 63000, Note_on_c, 0, 57, 95
3, 63000, Note_on_c, 0, 52, 95
3, 63000, Note_on_c, 0, 45, 95
3, 63120, Note_off_c, 0, 69, 80
3, 63120, Note_off_c, 0, 64, 80
3, 63120, Note_off_c, 0, 61, 80
3, 63120, Note_off_c, 0, 57, 80
3, 63120, Note_off_c, 0, 52, 80
3, 63120, Note_off_c, 0, 45, 80
3, 63120, Note_on_c, 0, 69, 95
3, 63120, Note_on_c, 0, 64, 95
3, 63120, Note_on_c, 0, 61, 95
3, 63120, Note_on_c, 0, 57, 95
3, 63120, Note_on_c, 0, 52, 95
3, 63120, Note_on_c, 0, 45, 95
3, 63240, Note_off_c, 0, 69, 80
3, 63240, Note_off_c, 0, 64, 80
3, 63240, Note_off_c, 0, 61, 80
3, 63240, Note_off_c, 0, 57, 80
3, 63240, Note_off_c, 0, 52, 80
3, 63240, Note_off_c, 0, 45, 80
3, 63240, Note_on_c, 0, 55, 95
3, 63240, Note_on_c, 0, 50, 95
3, 63240, Note_on_c, 0, 45, 95
3, 63240, Note_on_c, 0, 40, 95
3, 63360, Note_off_c, 0, 55, 80
3, 63360, Note_off_c, 0, 50, 80
3, 63360, Note_off_c, 0, 45, 80
3, 63360, Note_off_c, 0, 40, 80
3, 63360, Note_on_c, 0, 64, 79
3, 63360, Note_on_c, 0, 59, 79
3, 63360, Note_on_c, 0, 56, 79
3, 63360, Note_on_c, 0, 52, 79
3, 63360, Note_on_c, 0, 47, 79
3, 63360, Note_on_c, 0, 40, 79
3, 63600, Note_off_c, 0, 64, 80
3, 63600, Note_off_c, 0, 59, 80
3, 63600, Note_off_c, 0, 56, 80
3, 63600, Note_off_c, 0, 52, 80
3, 63600, Note_off_c, 0, 47, 80
3, 63600, Note_off_c, 0, 40, 80
3, 63600, Note_on_c, 0, 64, 79
3, 63600, Note_on_c, 0, 59, 79
3, 63600, Note_on_c, 0, 56, 79
3, 63600, Note_on_c, 0, 52, 79
3, 63600, Note_on_c, 0, 47, 79
3, 63600, Note_on_c, 0, 40, 79
3, 63620, Note_off_c, 0, 64, 80
3, 63620, Note_off_c, 0, 59, 80
3, 63840, Note_off_c, 0, 56, 80
3, 63840, Note_off_c, 0, 52, 80
3, 63840, Note_off_c, 0, 47, 80
3, 63840, Note_off_c, 0, 40, 80
3, 63840, Note_on_c, 0, 64, 79
3, 63840, Note_on_c, 0, 59, 79
3, 63840, Note_on_c, 0, 56, 79
3, 63840, Note_on_c, 0, 52, 79
3, 63840, Note_on_c, 0, 47, 79
3, 63840, Note_on_c, 0, 40, 79
3, 64080, Note_off_c, 0, 64, 80
3, 64080, Note_off_c, 0, 59, 80
3, 64080, Note_off_c, 0, 56, 80
3, 64080, Note_off_c, 0, 52, 80
3, 64080, Note_off_c, 0, 47, 80
3, 64080, Note_off_c, 0, 40, 80
3, 64080, Note_on_c, 0, 64, 79
3, 64080, Note_on_c, 0, 59, 79
3, 64080, Note_on_c, 0, 56, 79
3, 64080, Note_on_c, 0, 52, 79
3, 64080, Note_on_c, 0, 47, 79
3, 64080, Note_on_c, 0, 40, 79
3, 64200, Note_off_c, 0, 64, 80
3, 64200, Note_off_c, 0, 59, 80
3, 64200, Note_off_c, 0, 56, 80
3, 64200, Note_off_c, 0, 52, 80
3, 64200, Note_off_c, 0, 47, 80
3, 64200, Note_off_c, 0, 40, 80
3, 64200, Note_on_c, 0, 55, 79
3, 64200, Note_on_c, 0, 50, 79
3, 64200, Note_on_c, 0, 45, 79
3, 64320, Note_off_c, 0, 55, 80
3, 64320, Note_off_c, 0, 50, 80
3, 64320, Note_off_c, 0, 45, 80
3, 64320, Note_on_c, 0, 68, 79
3, 64320, Note_on_c, 0, 64, 79
3, 64320, Note_on_c, 0, 61, 79
3, 64320, Note_on_c, 0, 56, 79
3, 64320, Note_on_c, 0, 49, 79
3, 64320, Note_on_c, 0, 44, 79
3, 64560, Note_off_c, 0, 68, 80
3, 64560, Note_off_c, 0, 64, 80
3, 64560, Note_off_c, 0, 61, 80
3, 64560, Note_off_c, 0, 56, 80
3, 64560, Note_off_c, 0, 49, 80
3, 64560, Note_off_c, 0, 44, 80
3, 64560, Note_on_c, 0, 68, 95
3, 64560, Note_on_c, 0, 64, 79
3, 64560, Note_on_c, 0, 61, 79
3, 64560, Note_on_c, 0, 56, 79
3, 64560, Note_on_c, 0, 49, 79
3, 64560, Note_on_c, 0, 44, 79
3, 64580, Note_off_c, 0, 68, 80
3, 64800, Note_off_c, 0, 64, 80
3, 64800, Note_off_c, 0, 61, 80
3, 64800, Note_off_c, 0, 56, 80
3, 64800, Note_off_c, 0, 49, 80
3, 64800, Note_off_c, 0, 44, 80
3, 64800, Note_on_c, 0, 68, 79
3, 64800, Note_on_c, 0, 64, 79
3, 64800, Note_on_c, 0, 61, 79
3, 64800, Note_on_c, 0, 56, 79
3, 64800, Note_on_c, 0, 49, 79
3, 64800, Note_on_c, 0, 44, 79
3, 65040, Note_off_c, 0, 68, 80
3, 65040, Note_off_c, 0, 64, 80
3, 65040, Note_off_c, 0, 61, 80
3, 65040, Note_off_c, 0, 56, 80
3, 65040, Note_off_c, 0, 49, 80
3, 65040, Note_off_c, 0, 44, 80
3, 65040, Note_on_c, 0, 68, 79
3, 65040, Note_on_c, 0, 64, 79
3, 65040, Note_on_c, 0, 61, 79
3, 65040, Note_on_c, 0, 56, 79
3, 65040, Note_on_c, 0, 49, 79
3, 65040, Note_on_c, 0, 44, 79
3, 65160, Note_off_c, 0, 68, 80
3, 65160, Note_off_c, 0, 64, 80
3, 65160, Note_off_c, 0, 61, 80
3, 65160, Note_off_c, 0, 56, 80
3, 65160, Note_off_c, 0, 49, 80
3, 65160, Note_off_c, 0, 44, 80
3, 65160, Note_on_c, 0, 50, 79
3, 65160, Note_on_c, 0, 45, 79
3, 65160, Note_on_c, 0, 40, 79
3, 65280, Note_off_c, 0, 50, 80
3, 65280, Note_off_c, 0, 45, 80
3, 65280, Note_off_c, 0, 40, 80
3, 65280, Note_on_c, 0, 68, 79
3, 65280, Note_on_c, 0, 63, 79
3, 65280, Note_on_c, 0, 60, 79
3, 65280, Note_on_c, 0, 56, 79
3, 65280, Note_on_c, 0, 51, 79
3, 65280, Note_on_c, 0, 44, 79
3, 65520, Note_off_c, 0, 68, 80
3, 65520, Note_off_c, 0, 63, 80
3, 65520, Note_off_c, 0, 60, 80
3, 65520, Note_off_c, 0, 56, 80
3, 65520, Note_off_c, 0, 51, 80
3, 65520, Note_off_c, 0, 44, 80
3, 65520, Note_on_c, 0, 68, 95
3, 65520, Note_on_c, 0, 63, 79
3, 65520, Note_on_c, 0, 60, 79
3, 65520, Note_on_c, 0, 56, 79
3, 65520, Note_on_c, 0, 51, 79
3, 65520, Note_on_c, 0, 44, 79
3, 65540, Note_off_c, 0, 68, 80
3, 65760, Note_off_c, 0, 63, 80
3, 65760, Note_off_c, 0, 60, 80
3, 65760, Note_off_c, 0, 56, 80
3, 65760, Note_off_c, 0, 51, 80
3, 65760, Note_off_c, 0, 44, 80
3, 65760, Note_on_c, 0, 68, 79
3, 65760, Note_on_c, 0, 63, 79
3, 65760, Note_on_c, 0, 60, 79
3, 65760, Note_on_c, 0, 56, 79
3, 65760, Note_on_c, 0, 51, 79
3, 65760, Note_on_c, 0, 44, 79
3, 66000, Note_off_c, 0, 68, 80
3, 66000, Note_off_c, 0, 63, 80
3, 66000, Note_off_c, 0, 60, 80
3, 66000, Note_off_c, 0, 56, 80
3, 66000, Note_off_c, 0, 51, 80
3, 66000, Note_off_c, 0, 44, 80
3, 66000, Note_on_c, 1, 68, 79
3, 66000, Note_on_c, 1, 63, 79
3, 66000, Note_on_c, 1, 60, 79
3, 66000, Note_on_c, 1, 56, 79
3, 66000, Note_on_c, 1, 51, 79
3, 66000, Note_on_c, 1, 44, 79
3, 66096, Pitch_bend_c, 1, 8832
3, 66096, Pitch_bend_c, 1, 8832
3, 66096, Pitch_bend_c, 1, 8832
3, 66096, Pitch_bend_c, 1, 8832
3, 66096, Pitch_bend_c, 1, 8832
3, 66096, Pitch_bend_c, 1, 8832
3, 66120, Note_off_c, 1, 68, 80
3, 66120, Pitch_bend_c, 1, 8192
3, 66120, Note_off_c, 1, 63, 80
3, 66120, Pitch_bend_c, 1, 8192
3, 66120, Note_off_c, 1, 60, 80
3, 66120, Pitch_bend_c, 1, 8192
3, 66120, Note_off_c, 1, 56, 80
3, 66120, Pitch_bend_c, 1, 8192
3, 66120, Note_off_c, 1, 51, 80
3, 66120, Pitch_bend_c, 1, 8192
3, 66120, Note_off_c, 1, 44, 80
3, 66120, Pitch_bend_c, 1, 8192
3, 66120, Note_on_c, 0, 69, 63
3, 66120, Note_on_c, 0, 64, 63
3, 66120, Note_on_c, 0, 61, 63
3, 66120, Note_on_c, 0, 57, 63
3, 66120, Note_on_c, 0, 52, 63
3, 66120, Note_on_c, 0, 45, 63
3, 66240, Note_off_c, 0, 69, 80
3, 66240, Note_off_c, 0, 64, 80
3, 66240, Note_off_c, 0, 61, 80
3, 66240, Note_off_c, 0, 57, 80
3, 66240, Note_off_c, 0, 52, 80
3, 66240, Note_off_c, 0, 45, 80
3, 66240, Note_on_c, 0, 69, 79
3, 66240, Note_on_c, 0, 64, 79
3, 66240, Note_on_c, 0, 61, 79
3, 66240, Note_on_c, 0, 57, 79
3, 66240, Note_on_c, 0, 52, 79
3, 66240, Note_on_c, 0, 45, 79
3, 66360, Note_off_c, 0, 69, 80
3, 66360, Note_off_c, 0, 64, 80
3, 66360, Note_off_c, 0, 61, 80
3, 66360, Note_off_c, 0, 57, 80
3, 66360, Note_off_c, 0, 52, 80
3, 66360, Note_off_c, 0, 45, 80
3, 66360, Note_on_c, 0, 69, 79
3, 66360, Note_on_c, 0, 64, 79
3, 66360, Note_on_c, 0, 61, 79
3, 66360, Note_on_c, 0, 57, 79
3, 66360, Note_on_c, 0, 52, 79
3, 66360, Note_on_c, 0, 45, 79
3, 66480, Note_off_c, 0, 69, 80
3, 66480, Note_off_c, 0, 64, 80
3, 66480, Note_off_c, 0, 61, 80
3, 66480, Note_off_c, 0, 57, 80
3, 66480, Note_off_c, 0, 52, 80
3, 66480, Note_off_c, 0, 45, 80
3, 66480, Note_on_c, 0, 69, 79
3, 66480, Note_on_c, 0, 64, 79
3, 66480, Note_on_c, 0, 61, 79
3, 66480, Note_on_c, 0, 57, 79
3, 66480, Note_on_c, 0, 52, 79
3, 66480, Note_on_c, 0, 45, 79
3, 66600, Note_off_c, 0, 69, 80
3, 66600, Note_off_c, 0, 64, 80
3, 66600, Note_off_c, 0, 61, 80
3, 66600, Note_off_c, 0, 57, 80
3, 66600, Note_off_c, 0, 52, 80
3, 66600, Note_off_c, 0, 45, 80
3, 66600, Note_on_c, 1, 68, 79
3, 66600, Note_on_c, 1, 63, 79
3, 66600, Note_on_c, 1, 60, 79
3, 66600, Note_on_c, 1, 56, 79
3, 66600, Note_on_c, 1, 51, 79
3, 66600, Note_on_c, 1, 44, 79
3, 66696, Pitch_bend_c, 1, 8832
3, 66696, Pitch_bend_c, 1, 8832
3, 66696, Pitch_bend_c, 1, 8832
3, 66696, Pitch_bend_c, 1, 8832
3, 66696, Pitch_bend_c, 1, 8832
3, 66696, Pitch_bend_c, 1, 8832
3, 66720, Note_off_c, 1, 68, 80
3, 66720, Pitch_bend_c, 1, 8192
3, 66720, Note_off_c, 1, 63, 80
3, 66720, Pitch_bend_c, 1, 8192
3, 66720, Note_off_c, 1, 60, 80
3, 66720, Pitch_bend_c, 1, 8192
3, 66720, Note_off_c, 1, 56, 80
3, 66720, Pitch_bend_c, 1, 8192
3, 66720, Note_off_c, 1, 51, 80
3, 66720, Pitch_bend_c, 1, 8192
3, 66720, Note_off_c, 1, 44, 80
3, 66720, Pitch_bend_c, 1, 8192
3, 66720, Note_on_c, 0, 69, 63
3, 66720, Note_on_c, 0, 64, 63
3, 66720, Note_on_c, 0, 61, 63
3, 66720, Note_on_c, 0, 57, 63
3, 66720, Note_on_c, 0, 52, 63
3, 66720, Note_on_c, 0, 45, 63
3, 66840, Note_off_c, 0, 69, 80
3, 66840, Note_off_c, 0, 64, 80
3, 66840, Note_off_c, 0, 61, 80
3, 66840, Note_off_c, 0, 57, 80
3, 66840, Note_off_c, 0, 52, 80
3, 66840, Note_off_c, 0, 45, 80
3, 66840, Note_on_c, 0, 69, 79
3, 66840, Note_on_c, 0, 64, 79
3, 66840, Note_on_c, 0, 61, 79
3, 66840, Note_on_c, 0, 57, 79
3, 66840, Note_on_c, 0, 52, 79
3, 66840, Note_on_c, 0, 45, 79
3, 66960, Note_off_c, 0, 69, 80
3, 66960, Note_off_c, 0, 64, 80
3, 66960, Note_off_c, 0, 61, 80
3, 66960, Note_off_c, 0, 57, 80
3, 66960, Note_off_c, 0, 52, 80
3, 66960, Note_off_c, 0, 45, 80
3, 66960, Note_on_c, 0, 69, 79
3, 66960, Note_on_c, 0, 64, 79
3, 66960, Note_on_c, 0, 61, 79
3, 66960, Note_on_c, 0, 57, 79
3, 66960, Note_on_c, 0, 52, 79
3, 66960, Note_on_c, 0, 45, 79
3, 67080, Note_off_c, 0, 69, 80
3, 67080, Note_off_c, 0, 64, 80
3, 67080, Note_off_c, 0, 61, 80
3, 67080, Note_off_c, 0, 57, 80
3, 67080, Note_off_c, 0, 52, 80
3, 67080, Note_off_c, 0, 45, 80
3, 67080, Note_on_c, 0, 55, 79
3, 67080, Note_on_c, 0, 50, 79
3, 67080, Note_on_c, 0, 45, 79
3, 67080, Note_on_c, 0, 40, 79
3, 67200, Note_off_c, 0, 55, 80
3, 67200, Note_off_c, 0, 50, 80
3, 67200, Note_off_c, 0, 45, 80
3, 67200, Note_off_c, 0, 40, 80
3, 67200, Note_on_c, 0, 64, 95
3, 67200, Note_on_c, 0, 59, 95
3, 67200, Note_on_c, 0, 56, 95
3, 67200, Note_on_c, 0, 52, 95
3, 67200, Note_on_c, 0, 47, 95
3, 67200, Note_on_c, 0, 40, 95
3, 67440, Note_off_c, 0, 64, 80
3, 67440, Note_off_c, 0, 59, 80
3, 67440, Note_off_c, 0, 56, 80
3, 67440, Note_off_c, 0, 52, 80
3, 67440, Note_off_c, 0, 47, 80
3, 67440, Note_off_c, 0, 40, 80
3, 67440, Note_on_c, 0, 64, 95
3, 67440, Note_on_c, 0, 59, 95
3, 67440, Note_on_c, 0, 56, 95
3, 67440, Note_on_c, 0, 52, 95
3, 67440, Note_on_c, 0, 47, 95
3, 67440, Note_on_c, 0, 40, 95
3, 67460, Note_off_c, 0, 64, 80
3, 67460, Note_off_c, 0, 59, 80
3, 67680, Note_off_c, 0, 56, 80
3, 67680, Note_off_c, 0, 52, 80
3, 67680, Note_off_c, 0, 47, 80
3, 67680, Note_off_c, 0, 40, 80
3, 67680, Note_on_c, 0, 64, 95
3, 67680, Note_on_c, 0, 59, 95
3, 67680, Note_on_c, 0, 56, 95
3, 67680, Note_on_c, 0, 52, 95
3, 67680, Note_on_c, 0, 47, 95
3, 67680, Note_on_c, 0, 40, 95
3, 67920, Note_off_c, 0, 64, 80
3, 67920, Note_off_c, 0, 59, 80
3, 67920, Note_off_c, 0, 56, 80
3, 67920, Note_off_c, 0, 52, 80
3, 67920, Note_off_c, 0, 47, 80
3, 67920, Note_off_c, 0, 40, 80
3, 67920, Note_on_c, 0, 64, 95
3, 67920, Note_on_c, 0, 59, 95
3, 67920, Note_on_c, 0, 56, 95
3, 67920, Note_on_c, 0, 52, 95
3, 67920, Note_on_c, 0, 47, 95
3, 67920, Note_on_c, 0, 40, 95
3, 68040, Note_off_c, 0, 64, 80
3, 68040, Note_off_c, 0, 59, 80
3, 68040, Note_off_c, 0, 56, 80
3, 68040, Note_off_c, 0, 52, 80
3, 68040, Note_off_c, 0, 47, 80
3, 68040, Note_off_c, 0, 40, 80
3, 68040, Note_on_c, 0, 55, 95
3, 68040, Note_on_c, 0, 50, 95
3, 68040, Note_on_c, 0, 45, 95
3, 68160, Note_off_c, 0, 55, 80
3, 68160, Note_off_c, 0, 50, 80
3, 68160, Note_off_c, 0, 45, 80
3, 68160, Note_on_c, 0, 68, 95
3, 68160, Note_on_c, 0, 64, 95
3, 68160, Note_on_c, 0, 61, 95
3, 68160, Note_on_c, 0, 56, 95
3, 68160, Note_on_c, 0, 49, 95
3, 68160, Note_on_c, 0, 44, 95
3, 68400, Note_off_c, 0, 68, 80
3, 68400, Note_off_c, 0, 64, 80
3, 68400, Note_off_c, 0, 61, 80
3, 68400, Note_off_c, 0, 56, 80
3, 68400, Note_off_c, 0, 49, 80
3, 68400, Note_off_c, 0, 44, 80
3, 68400, Note_on_c, 0, 68, 95
3, 68400, Note_on_c, 0, 64, 95
3, 68400, Note_on_c, 0, 61, 95
3, 68400, Note_on_c, 0, 56, 95
3, 68400, Note_on_c, 0, 49, 95
3, 68400, Note_on_c, 0, 44, 95
3, 68420, Note_off_c, 0, 68, 80
3, 68640, Note_off_c, 0, 64, 80
3, 68640, Note_off_c, 0, 61, 80
3, 68640, Note_off_c, 0, 56, 80
3, 68640, Note_off_c, 0, 49, 80
3, 68640, Note_off_c, 0, 44, 80
3, 68640, Note_on_c, 0, 68, 95
3, 68640, Note_on_c, 0, 64, 95
3, 68640, Note_on_c, 0, 61, 95
3, 68640, Note_on_c, 0, 56, 95
3, 68640, Note_on_c, 0, 49, 95
3, 68640, Note_on_c, 0, 44, 95
3, 68880, Note_off_c, 0, 68, 80
3, 68880, Note_off_c, 0, 64, 80
3, 68880, Note_off_c, 0, 61, 80
3, 68880, Note_off_c, 0, 56, 80
3, 68880, Note_off_c, 0, 49, 80
3, 68880, Note_off_c, 0, 44, 80
3, 68880, Note_on_c, 0, 68, 95
3, 68880, Note_on_c, 0, 64, 95
3, 68880, Note_on_c, 0, 61, 95
3, 68880, Note_on_c, 0, 56, 95
3, 68880, Note_on_c, 0, 49, 95
3, 68880, Note_on_c, 0, 44, 95
3, 69000, Note_off_c, 0, 68, 80
3, 69000, Note_off_c, 0, 64, 80
3, 69000, Note_off_c, 0, 61, 80
3, 69000, Note_off_c, 0, 56, 80
3, 69000, Note_off_c, 0, 49, 80
3, 69000, Note_off_c, 0, 44, 80
3, 69000, Note_on_c, 0, 50, 95
3, 69000, Note_on_c, 0, 45, 95
3, 69000, Note_on_c, 0, 40, 95
3, 69120, Note_off_c, 0, 50, 80
3, 69120, Note_off_c, 0, 45, 80
3, 69120, Note_off_c, 0, 40, 80
3, 69120, Note_on_c, 0, 68, 95
3, 69120, Note_on_c, 0, 63, 95
3, 69120, Note_on_c, 0, 60, 95
3, 69120, Note_on_c, 0, 56, 95
3, 69120, Note_on_c, 0, 51, 95
3, 69120, Note_on_c, 0, 44, 95
3, 69360, Note_off_c, 0, 68, 80
3, 69360, Note_off_c, 0, 63, 80
3, 69360, Note_off_c, 0, 60, 80
3, 69360, Note_off_c, 0, 56, 80
3, 69360, Note_off_c, 0, 51, 80
3, 69360, Note_off_c, 0, 44, 80
3, 69360, Note_on_c, 0, 68, 95
3, 69360, Note_on_c, 0, 63, 95
3, 69360, Note_on_c, 0, 60, 95
3, 69360, Note_on_c, 0, 56, 95
3, 69360, Note_on_c, 0, 51, 95
3, 69360, Note_on_c, 0, 44, 95
3, 69380, Note_off_c, 0, 68, 80
3, 69600, Note_off_c, 0, 63, 80
3, 69600, Note_off_c, 0, 60, 80
3, 69600, Note_off_c, 0, 56, 80
3, 69600, Note_off_c, 0, 51, 80
3, 69600, Note_off_c, 0, 44, 80
3, 69600, Note_on_c, 0, 68, 95
3, 69600, Note_on_c, 0, 63, 95
3, 69600, Note_on_c, 0, 60, 95
3, 69600, Note_on_c, 0, 56, 95
3, 69600, Note_on_c, 0, 51, 95
3, 69600, Note_on_c, 0, 44, 95
3, 69840, Note_off_c, 0, 68, 80
3, 69840, Note_off_c, 0, 63, 80
3, 69840, Note_off_c, 0, 60, 80
3, 69840, Note_off_c, 0, 56, 80
3, 69840, Note_off_c, 0, 51, 80
3, 69840, Note_off_c, 0, 44, 80
3, 69840, Note_on_c, 1, 68, 95
3, 69840, Note_on_c, 1, 63, 95
3, 69840, Note_on_c, 1, 60, 95
3, 69840, Note_on_c, 1, 56, 95
3, 69840, Note_on_c, 1, 51, 95
3, 69840, Note_on_c, 1, 44, 95
3, 69936, Pitch_bend_c, 1, 8832
3, 69936, Pitch_bend_c, 1, 8832
3, 69936, Pitch_bend_c, 1, 8832
3, 69936, Pitch_bend_c, 1, 8832
3, 69936, Pitch_bend_c, 1, 8832
3, 69936, Pitch_bend_c, 1, 8832
3, 69960, Note_off_c, 1, 68, 80
3, 69960, Pitch_bend_c, 1, 8192
3, 69960, Note_off_c, 1, 63, 80
3, 69960, Pitch_bend_c, 1, 8192
3, 69960, Note_off_c, 1, 60, 80
3, 69960, Pitch_bend_c, 1, 8192
3, 69960, Note_off_c, 1, 56, 80
3, 69960, Pitch_bend_c, 1, 8192
3, 69960, Note_off_c, 1, 51, 80
3, 69960, Pitch_bend_c, 1, 8192
3, 69960, Note_off_c, 1, 44, 80
3, 69960, Pitch_bend_c, 1, 8192
3, 69960, Note_on_c, 0, 69, 76
3, 69960, Note_on_c, 0, 64, 76
3, 69960, Note_on_c, 0, 61, 76
3, 69960, Note_on_c, 0, 57, 76
3, 69960, Note_on_c, 0, 52, 76
3, 69960, Note_on_c, 0, 45, 76
3, 70080, Note_off_c, 0, 69, 80
3, 70080, Note_off_c, 0, 64, 80
3, 70080, Note_off_c, 0, 61, 80
3, 70080, Note_off_c, 0, 57, 80
3, 70080, Note_off_c, 0, 52, 80
3, 70080, Note_off_c, 0, 45, 80
3, 70080, Note_on_c, 0, 69, 95
3, 70080, Note_on_c, 0, 64, 95
3, 70080, Note_on_c, 0, 61, 95
3, 70080, Note_on_c, 0, 57, 95
3, 70080, Note_on_c, 0, 52, 95
3, 70080, Note_on_c, 0, 45, 95
3, 70200, Note_off_c, 0, 69, 80
3, 70200, Note_off_c, 0, 64, 80
3, 70200, Note_off_c, 0, 61, 80
3, 70200, Note_off_c, 0, 57, 80
3, 70200, Note_off_c, 0, 52, 80
3, 70200, Note_off_c, 0, 45, 80
3, 70200, Note_on_c, 0, 69, 95
3, 70200, Note_on_c, 0, 64, 95
3, 70200, Note_on_c, 0, 61, 95
3, 70200, Note_on_c, 0, 57, 95
3, 70200, Note_on_c, 0, 52, 95
3, 70200, Note_on_c, 0, 45, 95
3, 70320, Note_off_c, 0, 69, 80
3, 70320, Note_off_c, 0, 64, 80
3, 70320, Note_off_c, 0, 61, 80
3, 70320, Note_off_c, 0, 57, 80
3, 70320, Note_off_c, 0, 52, 80
3, 70320, Note_off_c, 0, 45, 80
3, 70320, Note_on_c, 0, 69, 95
3, 70320, Note_on_c, 0, 64, 95
3, 70320, Note_on_c, 0, 61, 95
3, 70320, Note_on_c, 0, 57, 95
3, 70320, Note_on_c, 0, 52, 95
3, 70320, Note_on_c, 0, 45, 95
3, 70440, Note_off_c, 0, 69, 80
3, 70440, Note_off_c, 0, 64, 80
3, 70440, Note_off_c, 0, 61, 80
3, 70440, Note_off_c, 0, 57, 80
3, 70440, Note_off_c, 0, 52, 80
3, 70440, Note_off_c, 0, 45, 80
3, 70440, Note_on_c, 1, 68, 95
3, 70440, Note_on_c, 1, 63, 95
3, 70440, Note_on_c, 1, 60, 95
3, 70440, Note_on_c, 1, 56, 95
3, 70440, Note_on_c, 1, 51, 95
3, 70440, Note_on_c, 1, 44, 95
3, 70536, Pitch_bend_c, 1, 8832
3, 70536, Pitch_bend_c, 1, 8832
3, 70536, Pitch_bend_c, 1, 8832
3, 70536, Pitch_bend_c, 1, 8832
3, 70536, Pitch_bend_c, 1, 8832
3, 70536, Pitch_bend_c, 1, 8832
3, 70560, Note_off_c, 1, 68, 80
3, 70560, Pitch_bend_c, 1, 8192
3, 70560, Note_off_c, 1, 63, 80
3, 70560, Pitch_bend_c, 1, 8192
3, 70560, Note_off_c, 1, 60, 80
3, 70560, Pitch_bend_c, 1, 8192
3, 70560, Note_off_c, 1, 56, 80
3, 70560, Pitch_bend_c, 1, 8192
3, 70560, Note_off_c, 1, 51, 80
3, 70560, Pitch_bend_c, 1, 8192
3, 70560, Note_off_c, 1, 44, 80
3, 70560, Pitch_bend_c, 1, 8192
3, 70560, Note_on_c, 0, 69, 76
3, 70560, Note_on_c, 0, 64, 76
3, 70560, Note_on_c, 0, 61, 76
3, 70560, Note_on_c, 0, 57, 76
3, 70560, Note_on_c, 0, 52, 76
3, 70560, Note_on_c, 0, 45, 76
3, 70680, Note_off_c, 0, 69, 80
3, 70680, Note_off_c, 0, 64, 80
3, 70680, Note_off_c, 0, 61, 80
3, 70680, Note_off_c, 0, 57, 80
3, 70680, Note_off_c, 0, 52, 80
3, 70680, Note_off_c, 0, 45, 80
3, 70680, Note_on_c, 0, 69, 95
3, 70680, Note_on_c, 0, 64, 95
3, 70680, Note_on_c, 0, 61, 95
3, 70680, Note_on_c, 0, 57, 95
3, 70680, Note_on_c, 0, 52, 95
3, 70680, Note_on_c, 0, 45, 95
3, 70800, Note_off_c, 0, 69, 80
3, 70800, Note_off_c, 0, 64, 80
3, 70800, Note_off_c, 0, 61, 80
3, 70800, Note_off_c, 0, 57, 80
3, 70800, Note_off_c, 0, 52, 80
3, 70800, Note_off_c, 0, 45, 80
3, 70800, Note_on_c, 0, 69, 95
3, 70800, Note_on_c, 0, 64, 95
3, 70800, Note_on_c, 0, 61, 95
3, 70800, Note_on_c, 0, 57, 95
3, 70800, Note_on_c, 0, 52, 95
3, 70800, Note_on_c, 0, 45, 95
3, 70920, Note_off_c, 0, 69, 80
3, 70920, Note_off_c, 0, 64, 80
3, 70920, Note_off_c, 0, 61, 80
3, 70920, Note_off_c, 0, 57, 80
3, 70920, Note_off_c, 0, 52, 80
3, 70920, Note_off_c, 0, 45, 80
3, 70920, Note_on_c, 0, 55, 95
3, 70920, Note_on_c, 0, 50, 95
3, 70920, Note_on_c, 0, 45, 95
3, 70920, Note_on_c, 0, 40, 95
3, 71040, Note_off_c, 0, 55, 80
3, 71040, Note_off_c, 0, 50, 80
3, 71040, Note_off_c, 0, 45, 80
3, 71040, Note_off_c, 0, 40, 80
3, 71040, Note_on_c, 0, 64, 95
3, 71040, Note_on_c, 0, 59, 95
3, 71040, Note_on_c, 0, 56, 95
3, 71040, Note_on_c, 0, 52, 95
3, 71040, Note_on_c, 0, 47, 95
3, 71040, Note_on_c, 0, 40, 95
3, 71280, Note_off_c, 0, 64, 80
3, 71280, Note_off_c, 0, 59, 80
3, 71280, Note_off_c, 0, 56, 80
3, 71280, Note_off_c, 0, 52, 80
3, 71280, Note_off_c, 0, 47, 80
3, 71280, Note_off_c, 0, 40, 80
3, 71280, Note_on_c, 0, 64, 95
3, 71280, Note_on_c, 0, 59, 95
3, 71280, Note_on_c, 0, 56, 95
3, 71280, Note_on_c, 0, 52, 95
3, 71280, Note_on_c, 0, 47, 95
3, 71280, Note_on_c, 0, 40, 95
3, 71300, Note_off_c, 0, 64, 80
3, 71300, Note_off_c, 0, 59, 80
3, 71520, Note_off_c, 0, 56, 80
3, 71520, Note_off_c, 0, 52, 80
3, 71520, Note_off_c, 0, 47, 80
3, 71520, Note_off_c, 0, 40, 80
3, 71520, Note_on_c, 0, 64, 95
3, 71520, Note_on_c, 0, 59, 95
3, 71520, Note_on_c, 0, 56, 95
3, 71520, Note_on_c, 0, 52, 95
3, 71520, Note_on_c, 0, 47, 95
3, 71520, Note_on_c, 0, 40, 95
3, 71760, Note_off_c, 0, 64, 80
3, 71760, Note_off_c, 0, 59, 80
3, 71760, Note_off_c, 0, 56, 80
3, 71760, Note_off_c, 0, 52, 80
3, 71760, Note_off_c, 0, 47, 80
3, 71760, Note_off_c, 0, 40, 80
3, 71760, Note_on_c, 0, 64, 95
3, 71760, Note_on_c, 0, 59, 95
3, 71760, Note_on_c, 0, 56, 95
3, 71760, Note_on_c, 0, 52, 95
3, 71760, Note_on_c, 0, 47, 95
3, 71760, Note_on_c, 0, 40, 95
3, 71880, Note_off_c, 0, 64, 80
3, 71880, Note_off_c, 0, 59, 80
3, 71880, Note_off_c, 0, 56, 80
3, 71880, Note_off_c, 0, 52, 80
3, 71880, Note_off_c, 0, 47, 80
3, 71880, Note_off_c, 0, 40, 80
3, 71880, Note_on_c, 0, 55, 95
3, 71880, Note_on_c, 0, 50, 95
3, 71880, Note_on_c, 0, 45, 95
3, 72000, Note_off_c, 0, 55, 80
3, 72000, Note_off_c, 0, 50, 80
3, 72000, Note_off_c, 0, 45, 80
3, 72000, Note_on_c, 0, 68, 95
3, 72000, Note_on_c, 0, 63, 95
3, 72000, Note_on_c, 0, 60, 95
3, 72000, Note_on_c, 0, 56, 95
3, 72000, Note_on_c, 0, 51, 95
3, 72000, Note_on_c, 0, 44, 95
3, 72240, Note_off_c, 0, 68, 80
3, 72240, Note_off_c, 0, 63, 80
3, 72240, Note_off_c, 0, 60, 80
3, 72240, Note_off_c, 0, 56, 80
3, 72240, Note_off_c, 0, 51, 80
3, 72240, Note_off_c, 0, 44, 80
3, 72240, Note_on_c, 0, 68, 95
3, 72240, Note_on_c, 0, 63, 95
3, 72240, Note_on_c, 0, 60, 95
3, 72240, Note_on_c, 0, 56, 95
3, 72240, Note_on_c, 0, 51, 95
3, 72240, Note_on_c, 0, 44, 95
3, 72260, Note_off_c, 0, 68, 80
3, 72480, Note_off_c, 0, 63, 80
3, 72480, Note_off_c, 0, 60, 80
3, 72480, Note_off_c, 0, 56, 80
3, 72480, Note_off_c, 0, 51, 80
3, 72480, Note_off_c, 0, 44, 80
3, 72480, Note_on_c, 0, 68, 95
3, 72480, Note_on_c, 0, 63, 95
3, 72480, Note_on_c, 0, 60, 95
3, 72480, Note_on_c, 0, 56, 95
3, 72480, Note_on_c, 0, 51, 95
3, 72480, Note_on_c, 0, 44, 95
3, 72720, Note_off_c, 0, 68, 80
3, 72720, Note_off_c, 0, 63, 80
3, 72720, Note_off_c, 0, 60, 80
3, 72720, Note_off_c, 0, 56, 80
3, 72720, Note_off_c, 0, 51, 80
3, 72720, Note_off_c, 0, 44, 80
3, 72720, Note_on_c, 0, 68, 95
3, 72720, Note_on_c, 0, 63, 95
3, 72720, Note_on_c, 0, 60, 95
3, 72720, Note_on_c, 0, 56, 95
3, 72720, Note_on_c, 0, 51, 95
3, 72720, Note_on_c, 0, 44, 95
3, 72840, Note_off_c, 0, 68, 80
3, 72840, Note_off_c, 0, 63, 80
3, 72840, Note_off_c, 0, 60, 80
3, 72840, Note_off_c, 0, 56, 80
3, 72840, Note_off_c, 0, 51, 80
3, 72840, Note_off_c, 0, 44, 80
3, 72840, Note_on_c, 0, 50, 95
3, 72840, Note_on_c, 0, 45, 95
3, 72840, Note_on_c, 0, 40, 95
3, 72960, Note_off_c, 0, 50, 80
3, 72960, Note_off_c, 0, 45, 80
3, 72960, Note_off_c, 0, 40, 80
3, 72960, Note_on_c, 0, 69, 95
3, 72960, Note_on_c, 0, 64, 95
3, 72960, Note_on_c, 0, 61, 95
3, 72960, Note_on_c, 0, 57, 95
3, 72960, Note_on_c, 0, 52, 95
3, 72960, Note_on_c, 0, 45, 95
3, 73200, Note_off_c, 0, 69, 80
3, 73200, Note_off_c, 0, 64, 80
3, 73200, Note_off_c, 0, 61, 80
3, 73200, Note_off_c, 0, 57, 80
3, 73200, Note_off_c, 0, 52, 80
3, 73200, Note_off_c, 0, 45, 80
3, 73200, Note_on_c, 0, 69, 95
3, 73200, Note_on_c, 0, 64, 95
3, 73200, Note_on_c, 0, 61, 95
3, 73200, Note_on_c, 0, 57, 95
3, 73200, Note_on_c, 0, 52, 95
3, 73200, Note_on_c, 0, 45, 95
3, 73440, Note_off_c, 0, 69, 80
3, 73440, Note_off_c, 0, 64, 80
3, 73440, Note_off_c, 0, 61, 80
3, 73440, Note_off_c, 0, 57, 80
3, 73440, Note_off_c, 0, 52, 80
3, 73440, Note_off_c, 0, 45, 80
3, 73440, Note_on_c, 0, 69, 95
3, 73440, Note_on_c, 0, 64, 95
3, 73440, Note_on_c, 0, 61, 95
3, 73440, Note_on_c, 0, 57, 95
3, 73440, Note_on_c, 0, 52, 95
3, 73440, Note_on_c, 0, 45, 95
3, 73680, Note_off_c, 0, 69, 80
3, 73680, Note_off_c, 0, 64, 80
3, 73680, Note_off_c, 0, 61, 80
3, 73680, Note_off_c, 0, 57, 80
3, 73680, Note_off_c, 0, 52, 80
3, 73680, Note_off_c, 0, 45, 80
3, 73680, Note_on_c, 0, 69, 95
3, 73680, Note_on_c, 0, 64, 95
3, 73680, Note_on_c, 0, 61, 95
3, 73680, Note_on_c, 0, 57, 95
3, 73680, Note_on_c, 0, 52, 95
3, 73680, Note_on_c, 0, 45, 95
3, 73800, Note_off_c, 0, 69, 80
3, 73800, Note_off_c, 0, 64, 80
3, 73800, Note_off_c, 0, 61, 80
3, 73800, Note_off_c, 0, 57, 80
3, 73800, Note_off_c, 0, 52, 80
3, 73800, Note_off_c, 0, 45, 80
3, 73800, Note_on_c, 0, 55, 95
3, 73800, Note_on_c, 0, 50, 95
3, 73800, Note_on_c, 0, 45, 95
3, 73920, Note_off_c, 0, 55, 80
3, 73920, Note_off_c, 0, 50, 80
3, 73920, Note_off_c, 0, 45, 80
3, 73920, Note_on_c, 0, 69, 95
3, 73920, Note_on_c, 0, 64, 95
3, 73920, Note_on_c, 0, 60, 95
3, 73920, Note_on_c, 0, 57, 95
3, 73920, Note_on_c, 0, 52, 95
3, 73920, Note_on_c, 0, 45, 95
3, 74160, Note_off_c, 0, 69, 80
3, 74160, Note_off_c, 0, 64, 80
3, 74160, Note_off_c, 0, 60, 80
3, 74160, Note_off_c, 0, 57, 80
3, 74160, Note_off_c, 0, 52, 80
3, 74160, Note_off_c, 0, 45, 80
3, 74160, Note_on_c, 0, 69, 95
3, 74160, Note_on_c, 0, 64, 95
3, 74160, Note_on_c, 0, 60, 95
3, 74160, Note_on_c, 0, 57, 95
3, 74160, Note_on_c, 0, 52, 95
3, 74160, Note_on_c, 0, 45, 95
3, 74400, Note_off_c, 0, 69, 80
3, 74400, Note_off_c, 0, 64, 80
3, 74400, Note_off_c, 0, 60, 80
3, 74400, Note_off_c, 0, 57, 80
3, 74400, Note_off_c, 0, 52, 80
3, 74400, Note_off_c, 0, 45, 80
3, 74400, Note_on_c, 0, 69, 95
3, 74400, Note_on_c, 0, 64, 95
3, 74400, Note_on_c, 0, 60, 95
3, 74400, Note_on_c, 0, 57, 95
3, 74400, Note_on_c, 0, 52, 95
3, 74400, Note_on_c, 0, 45, 95
3, 74640, Note_off_c, 0, 69, 80
3, 74640, Note_off_c, 0, 64, 80
3, 74640, Note_off_c, 0, 60, 80
3, 74640, Note_off_c, 0, 57, 80
3, 74640, Note_off_c, 0, 52, 80
3, 74640, Note_off_c, 0, 45, 80
3, 74640, Note_on_c, 0, 69, 95
3, 74640, Note_on_c, 0, 64, 95
3, 74640, Note_on_c, 0, 60, 95
3, 74640, Note_on_c, 0, 57, 95
3, 74640, Note_on_c, 0, 52, 95
3, 74640, Note_on_c, 0, 45, 95
3, 74760, Note_off_c, 0, 69, 80
3, 74760, Note_off_c, 0, 64, 80
3, 74760, Note_off_c, 0, 60, 80
3, 74760, Note_off_c, 0, 57, 80
3, 74760, Note_off_c, 0, 52, 80
3, 74760, Note_off_c, 0, 45, 80
3, 74760, Note_on_c, 0, 50, 95
3, 74760, Note_on_c, 0, 45, 95
3, 74760, Note_on_c, 0, 40, 95
3, 74880, Note_off_c, 0, 50, 80
3, 74880, Note_off_c, 0, 45, 80
3, 74880, Note_off_c, 0, 40, 80
3, 74880, Note_on_c, 0, 73, 95
3, 74880, Note_on_c, 0, 68, 95
3, 74880, Note_on_c, 0, 64, 95
3, 74880, Note_on_c, 0, 61, 95
3, 74880, Note_on_c, 0, 56, 95
3, 74880, Note_on_c, 0, 49, 95
3, 76800, Note_off_c, 0, 73, 80
3, 76800, Note_off_c, 0, 68, 80
3, 76800, Note_off_c, 0, 64, 80
3, 76800, Note_off_c, 0, 61, 80
3, 76800, Note_off_c, 0, 56, 80
3, 76800, Note_off_c, 0, 49, 80
3, 76800, Note_on_c, 0, 71, 95
3, 76800, Note_on_c, 0, 66, 95
3, 76800, Note_on_c, 0, 63, 95
3, 76800, Note_on_c, 0, 59, 95
3, 76800, Note_on_c, 0, 54, 95
3, 76800, Note_on_c, 0, 47, 95
3, 77280, Note_off_c, 0, 71, 80
3, 77280, Note_off_c, 0, 66, 80
3, 77280, Note_off_c, 0, 63, 80
3, 77280, Note_off_c, 0, 59, 80
3, 77280, Note_off_c, 0, 54, 80
3, 77280, Note_off_c, 0, 47, 80
3, 77280, Note_on_c, 0, 71, 95
3, 77280, Note_on_c, 0, 66, 95
3, 77280, Note_on_c, 0, 63, 95
3, 77280, Note_on_c, 0, 59, 95
3, 77280, Note_on_c, 0, 54, 95
3, 77280, Note_on_c, 0, 47, 95
3, 77520, Note_off_c, 0, 71, 80
3, 77520, Note_off_c, 0, 66, 80
3, 77520, Note_off_c, 0, 63, 80
3, 77520, Note_off_c, 0, 59, 80
3, 77520, Note_off_c, 0, 54, 80
3, 77520, Note_off_c, 0, 47, 80
3, 77520, Note_on_c, 0, 71, 95
3, 77520, Note_on_c, 0, 66, 95
3, 77520, Note_on_c, 0, 63, 95
3, 77520, Note_on_c, 0, 59, 95
3, 77520, Note_on_c, 0, 54, 95
3, 77520, Note_on_c, 0, 47, 95
3, 77640, Note_off_c, 0, 71, 80
3, 77640, Note_off_c, 0, 66, 80
3, 77640, Note_off_c, 0, 63, 80
3, 77640, Note_off_c, 0, 59, 80
3, 77640, Note_off_c, 0, 54, 80
3, 77640, Note_off_c, 0, 47, 80
3, 77640, Note_on_c, 0, 71, 95
3, 77640, Note_on_c, 0, 66, 95
3, 77640, Note_on_c, 0, 63, 95
3, 77640, Note_on_c, 0, 59, 95
3, 77640, Note_on_c, 0, 54, 95
3, 77640, Note_on_c, 0, 47, 95
3, 77760, Note_off_c, 0, 54, 80
3, 77880, Note_off_c, 0, 71, 80
3, 77880, Note_off_c, 0, 66, 80
3, 77880, Note_off_c, 0, 63, 80
3, 77880, Note_off_c, 0, 59, 80
3, 77880, Note_off_c, 0, 47, 80
3, 77880, Note_on_c, 0, 71, 95
3, 77880, Note_on_c, 0, 66, 95
3, 77880, Note_on_c, 0, 63, 95
3, 77880, Note_on_c, 0, 59, 95
3, 77880, Note_on_c, 0, 54, 95
3, 77880, Note_on_c, 0, 47, 95
3, 78000, Note_off_c, 0, 71, 80
3, 78000, Note_off_c, 0, 66, 80
3, 78000, Note_off_c, 0, 63, 80
3, 78000, Note_off_c, 0, 59, 80
3, 78000, Note_off_c, 0, 54, 80
3, 78000, Note_off_c, 0, 47, 80
3, 78000, Note_on_c, 0, 71, 95
3, 78000, Note_on_c, 0, 66, 95
3, 78000, Note_on_c, 0, 63, 95
3, 78000, Note_on_c, 0, 59, 95
3, 78000, Note_on_c, 0, 54, 95
3, 78000, Note_on_c, 0, 47, 95
3, 78240, Note_off_c, 0, 71, 80
3, 78240, Note_off_c, 0, 66, 80
3, 78240, Note_off_c, 0, 63, 80
3, 78240, Note_off_c, 0, 59, 80
3, 78240, Note_off_c, 0, 54, 80
3, 78240, Note_off_c, 0, 47, 80
3, 78240, Note_on_c, 0, 71, 95
3, 78240, Note_on_c, 0, 66, 95
3, 78240, Note_on_c, 0, 63, 95
3, 78240, Note_on_c, 0, 59, 95
3, 78240, Note_on_c, 0, 54, 95
3, 78240, Note_on_c, 0, 47, 95
3, 78360, Note_off_c, 0, 71, 80
3, 78360, Note_off_c, 0, 66, 80
3, 78360, Note_off_c, 0, 63, 80
3, 78360, Note_off_c, 0, 59, 80
3, 78360, Note_off_c, 0, 54, 80
3, 78360, Note_off_c, 0, 47, 80
3, 78360, Note_on_c, 0, 71, 95
3, 78360, Note_on_c, 0, 66, 95
3, 78360, Note_on_c, 0, 63, 95
3, 78360, Note_on_c, 0, 59, 95
3, 78360, Note_on_c, 0, 54, 95
3, 78360, Note_on_c, 0, 47, 95
3, 78480, Note_off_c, 0, 71, 80
3, 78480, Note_off_c, 0, 66, 80
3, 78480, Note_off_c, 0, 63, 80
3, 78480, Note_off_c, 0, 59, 80
3, 78480, Note_off_c, 0, 54, 80
3, 78480, Note_off_c, 0, 47, 80
3, 78480, Note_on_c, 0, 71, 95
3, 78480, Note_on_c, 0, 66, 95
3, 78480, Note_on_c, 0, 63, 95
3, 78480, Note_on_c, 0, 59, 95
3, 78480, Note_on_c, 0, 54, 95
3, 78480, Note_on_c, 0, 47, 95
3, 78600, Note_off_c, 0, 71, 80
3, 78600, Note_off_c, 0, 66, 80
3, 78600, Note_off_c, 0, 63, 80
3, 78600, Note_off_c, 0, 59, 80
3, 78600, Note_off_c, 0, 54, 80
3, 78600, Note_off_c, 0, 47, 80
3, 78600, Note_on_c, 0, 50, 95
3, 78600, Note_on_c, 0, 45, 95
3, 78720, Note_off_c, 0, 50, 80
3, 78720, Note_off_c, 0, 45, 80
3, 78720, Note_on_c, 0, 71, 95
3, 78720, Note_on_c, 0, 66, 95
3, 78720, Note_on_c, 0, 63, 95
3, 78720, Note_on_c, 0, 59, 95
3, 78720, Note_on_c, 0, 54, 95
3, 78720, Note_on_c, 0, 47, 95
3, 79200, Note_off_c, 0, 71, 80
3, 79200, Note_off_c, 0, 66, 80
3, 79200, Note_off_c, 0, 63, 80
3, 79200, Note_off_c, 0, 59, 80
3, 79200, Note_off_c, 0, 54, 80
3, 79200, Note_off_c, 0, 47, 80
3, 79200, Note_on_c, 0, 71, 95
3, 79200, Note_on_c, 0, 66, 95
3, 79200, Note_on_c, 0, 63, 95
3, 79200, Note_on_c, 0, 59, 95
3, 79200, Note_on_c, 0, 54, 95
3, 79200, Note_on_c, 0, 47, 95
3, 79440, Note_off_c, 0, 71, 80
3, 79440, Note_off_c, 0, 66, 80
3, 79440, Note_off_c, 0, 63, 80
3, 79440, Note_off_c, 0, 59, 80
3, 79440, Note_off_c, 0, 54, 80
3, 79440, Note_off_c, 0, 47, 80
3, 79440, Note_on_c, 0, 71, 95
3, 79440, Note_on_c, 0, 66, 95
3, 79440, Note_on_c, 0, 63, 95
3, 79440, Note_on_c, 0, 59, 95
3, 79440, Note_on_c, 0, 54, 95
3, 79440, Note_on_c, 0, 47, 95
3, 79560, Note_off_c, 0, 71, 80
3, 79560, Note_off_c, 0, 66, 80
3, 79560, Note_off_c, 0, 63, 80
3, 79560, Note_off_c, 0, 59, 80
3, 79560, Note_off_c, 0, 54, 80
3, 79560, Note_off_c, 0, 47, 80
3, 79560, Note_on_c, 0, 71, 95
3, 79560, Note_on_c, 0, 66, 95
3, 79560, Note_on_c, 0, 63, 95
3, 79560, Note_on_c, 0, 59, 95
3, 79560, Note_on_c, 0, 54, 95
3, 79560, Note_on_c, 0, 47, 95
3, 79680, Note_off_c, 0, 54, 80
3, 79800, Note_off_c, 0, 71, 80
3, 79800, Note_off_c, 0, 66, 80
3, 79800, Note_off_c, 0, 63, 80
3, 79800, Note_off_c, 0, 59, 80
3, 79800, Note_off_c, 0, 47, 80
3, 79800, Note_on_c, 0, 71, 95
3, 79800, Note_on_c, 0, 66, 95
3, 79800, Note_on_c, 0, 63, 95
3, 79800, Note_on_c, 0, 59, 95
3, 79800, Note_on_c, 0, 54, 95
3, 79800, Note_on_c, 0, 47, 95
3, 79920, Note_off_c, 0, 71, 80
3, 79920, Note_off_c, 0, 66, 80
3, 79920, Note_off_c, 0, 63, 80
3, 79920, Note_off_c, 0, 59, 80
3, 79920, Note_off_c, 0, 54, 80
3, 79920, Note_off_c, 0, 47, 80
3, 79920, Note_on_c, 0, 71, 95
3, 79920, Note_on_c, 0, 66, 95
3, 79920, Note_on_c, 0, 63, 95
3, 79920, Note_on_c, 0, 59, 95
3, 79920, Note_on_c, 0, 54, 95
3, 79920, Note_on_c, 0, 47, 95
3, 80160, Note_off_c, 0, 71, 80
3, 80160, Note_off_c, 0, 66, 80
3, 80160, Note_off_c, 0, 63, 80
3, 80160, Note_off_c, 0, 59, 80
3, 80160, Note_off_c, 0, 54, 80
3, 80160, Note_off_c, 0, 47, 80
3, 80160, Note_on_c, 0, 71, 95
3, 80160, Note_on_c, 0, 66, 95
3, 80160, Note_on_c, 0, 63, 95
3, 80160, Note_on_c, 0, 59, 95
3, 80160, Note_on_c, 0, 54, 95
3, 80160, Note_on_c, 0, 47, 95
3, 80280, Note_off_c, 0, 71, 80
3, 80280, Note_off_c, 0, 66, 80
3, 80280, Note_off_c, 0, 63, 80
3, 80280, Note_off_c, 0, 59, 80
3, 80280, Note_off_c, 0, 54, 80
3, 80280, Note_off_c, 0, 47, 80
3, 80280, Note_on_c, 0, 71, 95
3, 80280, Note_on_c, 0, 66, 95
3, 80280, Note_on_c, 0, 63, 95
3, 80280, Note_on_c, 0, 59, 95
3, 80280, Note_on_c, 0, 54, 95
3, 80280, Note_on_c, 0, 47, 95
3, 80400, Note_off_c, 0, 71, 80
3, 80400, Note_off_c, 0, 66, 80
3, 80400, Note_off_c, 0, 63, 80
3, 80400, Note_off_c, 0, 59, 80
3, 80400, Note_off_c, 0, 54, 80
3, 80400, Note_off_c, 0, 47, 80
3, 80400, Note_on_c, 0, 71, 95
3, 80400, Note_on_c, 0, 66, 95
3, 80400, Note_on_c, 0, 63, 95
3, 80400, Note_on_c, 0, 59, 95
3, 80400, Note_on_c, 0, 54, 95
3, 80400, Note_on_c, 0, 47, 95
3, 80520, Note_off_c, 0, 71, 80
3, 80520, Note_off_c, 0, 66, 80
3, 80520, Note_off_c, 0, 63, 80
3, 80520, Note_off_c, 0, 59, 80
3, 80520, Note_off_c, 0, 54, 80
3, 80520, Note_off_c, 0, 47, 80
3, 80520, Note_on_c, 0, 50, 95
3, 80520, Note_on_c, 0, 45, 95
3, 80640, Note_off_c, 0, 50, 80
3, 80640, Note_off_c, 0, 45, 80
3, 80640, Note_on_c, 0, 71, 95
3, 80640, Note_on_c, 0, 66, 95
3, 80640, Note_on_c, 0, 63, 95
3, 80640, Note_on_c, 0, 59, 95
3, 80640, Note_on_c, 0, 54, 95
3, 80640, Note_on_c, 0, 47, 95
3, 81120, Note_off_c, 0, 71, 80
3, 81120, Note_off_c, 0, 66, 80
3, 81120, Note_off_c, 0, 63, 80
3, 81120, Note_off_c, 0, 59, 80
3, 81120, Note_off_c, 0, 54, 80
3, 81120, Note_off_c, 0, 47, 80
3, 81120, Note_on_c, 0, 71, 95
3, 81120, Note_on_c, 0, 66, 95
3, 81120, Note_on_c, 0, 63, 95
3, 81120, Note_on_c, 0, 59, 95
3, 81120, Note_on_c, 0, 54, 95
3, 81120, Note_on_c, 0, 47, 95
3, 81360, Note_off_c, 0, 71, 80
3, 81360, Note_off_c, 0, 66, 80
3, 81360, Note_off_c, 0, 63, 80
3, 81360, Note_off_c, 0, 59, 80
3, 81360, Note_off_c, 0, 54, 80
3, 81360, Note_off_c, 0, 47, 80
3, 81360, Note_on_c, 0, 71, 95
3, 81360, Note_on_c, 0, 66, 95
3, 81360, Note_on_c, 0, 63, 95
3, 81360, Note_on_c, 0, 59, 95
3, 81360, Note_on_c, 0, 54, 95
3, 81360, Note_on_c, 0, 47, 95
3, 81480, Note_off_c, 0, 71, 80
3, 81480, Note_off_c, 0, 66, 80
3, 81480, Note_off_c, 0, 63, 80
3, 81480, Note_off_c, 0, 59, 80
3, 81480, Note_off_c, 0, 54, 80
3, 81480, Note_off_c, 0, 47, 80
3, 81480, Note_on_c, 0, 71, 95
3, 81480, Note_on_c, 0, 66, 95
3, 81480, Note_on_c, 0, 63, 95
3, 81480, Note_on_c, 0, 59, 95
3, 81480, Note_on_c, 0, 54, 95
3, 81480, Note_on_c, 0, 47, 95
3, 81600, Note_off_c, 0, 54, 80
3, 81720, Note_off_c, 0, 71, 80
3, 81720, Note_off_c, 0, 66, 80
3, 81720, Note_off_c, 0, 63, 80
3, 81720, Note_off_c, 0, 59, 80
3, 81720, Note_off_c, 0, 47, 80
3, 81720, Note_on_c, 0, 71, 95
3, 81720, Note_on_c, 0, 66, 95
3, 81720, Note_on_c, 0, 63, 95
3, 81720, Note_on_c, 0, 59, 95
3, 81720, Note_on_c, 0, 54, 95
3, 81720, Note_on_c, 0, 47, 95
3, 81840, Note_off_c, 0, 71, 80
3, 81840, Note_off_c, 0, 66, 80
3, 81840, Note_off_c, 0, 63, 80
3, 81840, Note_off_c, 0, 59, 80
3, 81840, Note_off_c, 0, 54, 80
3, 81840, Note_off_c, 0, 47, 80
3, 81840, Note_on_c, 0, 71, 95
3, 81840, Note_on_c, 0, 66, 95
3, 81840, Note_on_c, 0, 63, 95
3, 81840, Note_on_c, 0, 59, 95
3, 81840, Note_on_c, 0, 54, 95
3, 81840, Note_on_c, 0, 47, 95
3, 82080, Note_off_c, 0, 71, 80
3, 82080, Note_off_c, 0, 66, 80
3, 82080, Note_off_c, 0, 63, 80
3, 82080, Note_off_c, 0, 59, 80
3, 82080, Note_off_c, 0, 54, 80
3, 82080, Note_off_c, 0, 47, 80
3, 82080, Note_on_c, 0, 71, 95
3, 82080, Note_on_c, 0, 66, 95
3, 82080, Note_on_c, 0, 63, 95
3, 82080, Note_on_c, 0, 59, 95
3, 82080, Note_on_c, 0, 54, 95
3, 82080, Note_on_c, 0, 47, 95
3, 82200, Note_off_c, 0, 71, 80
3, 82200, Note_off_c, 0, 66, 80
3, 82200, Note_off_c, 0, 63, 80
3, 82200, Note_off_c, 0, 59, 80
3, 82200, Note_off_c, 0, 54, 80
3, 82200, Note_off_c, 0, 47, 80
3, 82200, Note_on_c, 0, 71, 95
3, 82200, Note_on_c, 0, 66, 95
3, 82200, Note_on_c, 0, 63, 95
3, 82200, Note_on_c, 0, 59, 95
3, 82200, Note_on_c, 0, 54, 95
3, 82200, Note_on_c, 0, 47, 95
3, 82320, Note_off_c, 0, 71, 80
3, 82320, Note_off_c, 0, 66, 80
3, 82320, Note_off_c, 0, 63, 80
3, 82320, Note_off_c, 0, 59, 80
3, 82320, Note_off_c, 0, 54, 80
3, 82320, Note_off_c, 0, 47, 80
3, 82320, Note_on_c, 0, 71, 95
3, 82320, Note_on_c, 0, 66, 95
3, 82320, Note_on_c, 0, 63, 95
3, 82320, Note_on_c, 0, 59, 95
3, 82320, Note_on_c, 0, 54, 95
3, 82320, Note_on_c, 0, 47, 95
3, 82440, Note_off_c, 0, 71, 80
3, 82440, Note_off_c, 0, 66, 80
3, 82440, Note_off_c, 0, 63, 80
3, 82440, Note_off_c, 0, 59, 80
3, 82440, Note_off_c, 0, 54, 80
3, 82440, Note_off_c, 0, 47, 80
3, 82440, Note_on_c, 0, 50, 95
3, 82440, Note_on_c, 0, 45, 95
3, 82560, Note_off_c, 0, 50, 80
3, 82560, Note_off_c, 0, 45, 80
3, 82560, Note_on_c, 0, 71, 95
3, 82560, Note_on_c, 0, 66, 95
3, 82560, Note_on_c, 0, 63, 95
3, 82560, Note_on_c, 0, 59, 95
3, 82560, Note_on_c, 0, 54, 95
3, 82560, Note_on_c, 0, 47, 95
3, 83040, Note_off_c, 0, 71, 80
3, 83040, Note_off_c, 0, 66, 80
3, 83040, Note_off_c, 0, 63, 80
3, 83040, Note_off_c, 0, 59, 80
3, 83040, Note_off_c, 0, 54, 80
3, 83040, Note_off_c, 0, 47, 80
3, 83040, Note_on_c, 0, 71, 95
3, 83040, Note_on_c, 0, 66, 95
3, 83040, Note_on_c, 0, 63, 95
3, 83040, Note_on_c, 0, 59, 95
3, 83040, Note_on_c, 0, 54, 95
3, 83040, Note_on_c, 0, 47, 95
3, 83280, Note_off_c, 0, 71, 80
3, 83280, Note_off_c, 0, 66, 80
3, 83280, Note_off_c, 0, 63, 80
3, 83280, Note_off_c, 0, 59, 80
3, 83280, Note_off_c, 0, 54, 80
3, 83280, Note_off_c, 0, 47, 80
3, 83280, Note_on_c, 0, 71, 95
3, 83280, Note_on_c, 0, 66, 95
3, 83280, Note_on_c, 0, 63, 95
3, 83280, Note_on_c, 0, 59, 95
3, 83280, Note_on_c, 0, 54, 95
3, 83280, Note_on_c, 0, 47, 95
3, 83400, Note_off_c, 0, 71, 80
3, 83400, Note_off_c, 0, 66, 80
3, 83400, Note_off_c, 0, 63, 80
3, 83400, Note_off_c, 0, 59, 80
3, 83400, Note_off_c, 0, 54, 80
3, 83400, Note_off_c, 0, 47, 80
3, 83400, Note_on_c, 0, 71, 95
3, 83400, Note_on_c, 0, 66, 95
3, 83400, Note_on_c, 0, 63, 95
3, 83400, Note_on_c, 0, 59, 95
3, 83400, Note_on_c, 0, 54, 95
3, 83400, Note_on_c, 0, 47, 95
3, 83520, Note_off_c, 0, 54, 80
3, 83640, Note_off_c, 0, 71, 80
3, 83640, Note_off_c, 0, 66, 80
3, 83640, Note_off_c, 0, 63, 80
3, 83640, Note_off_c, 0, 59, 80
3, 83640, Note_off_c, 0, 47, 80
3, 83640, Note_on_c, 0, 71, 95
3, 83640, Note_on_c, 0, 66, 95
3, 83640, Note_on_c, 0, 63, 95
3, 83640, Note_on_c, 0, 59, 95
3, 83640, Note_on_c, 0, 54, 95
3, 83640, Note_on_c, 0, 47, 95
3, 83760, Note_off_c, 0, 71, 80
3, 83760, Note_off_c, 0, 66, 80
3, 83760, Note_off_c, 0, 63, 80
3, 83760, Note_off_c, 0, 59, 80
3, 83760, Note_off_c, 0, 54, 80
3, 83760, Note_off_c, 0, 47, 80
3, 83760, Note_on_c, 0, 71, 95
3, 83760, Note_on_c, 0, 66, 95
3, 83760, Note_on_c, 0, 63, 95
3, 83760, Note_on_c, 0, 59, 95
3, 83760, Note_on_c, 0, 54, 95
3, 83760, Note_on_c, 0, 47, 95
3, 84000, Note_off_c, 0, 71, 80
3, 84000, Note_off_c, 0, 66, 80
3, 84000, Note_off_c, 0, 63, 80
3, 84000, Note_off_c, 0, 59, 80
3, 84000, Note_off_c, 0, 54, 80
3, 84000, Note_off_c, 0, 47, 80
3, 84000, Note_on_c, 0, 71, 95
3, 84000, Note_on_c, 0, 66, 95
3, 84000, Note_on_c, 0, 63, 95
3, 84000, Note_on_c, 0, 59, 95
3, 84000, Note_on_c, 0, 54, 95
3, 84000, Note_on_c, 0, 47, 95
3, 84120, Note_off_c, 0, 71, 80
3, 84120, Note_off_c, 0, 66, 80
3, 84120, Note_off_c, 0, 63, 80
3, 84120, Note_off_c, 0, 59, 80
3, 84120, Note_off_c, 0, 54, 80
3, 84120, Note_off_c, 0, 47, 80
3, 84120, Note_on_c, 0, 71, 95
3, 84120, Note_on_c, 0, 66, 95
3, 84120, Note_on_c, 0, 63, 95
3, 84120, Note_on_c, 0, 59, 95
3, 84120, Note_on_c, 0, 54, 95
3, 84120, Note_on_c, 0, 47, 95
3, 84240, Note_off_c, 0, 71, 80
3, 84240, Note_off_c, 0, 66, 80
3, 84240, Note_off_c, 0, 63, 80
3, 84240, Note_off_c, 0, 59, 80
3, 84240, Note_off_c, 0, 54, 80
3, 84240, Note_off_c, 0, 47, 80
3, 84240, Note_on_c, 0, 71, 95
3, 84240, Note_on_c, 0, 66, 95
3, 84240, Note_on_c, 0, 63, 95
3, 84240, Note_on_c, 0, 59, 95
3, 84240, Note_on_c, 0, 54, 95
3, 84240, Note_on_c, 0, 47, 95
3, 84360, Note_off_c, 0, 71, 80
3, 84360, Note_off_c, 0, 66, 80
3, 84360, Note_off_c, 0, 63, 80
3, 84360, Note_off_c, 0, 59, 80
3, 84360, Note_off_c, 0, 54, 80
3, 84360, Note_off_c, 0, 47, 80
3, 84360, Note_on_c, 0, 50, 95
3, 84360, Note_on_c, 0, 45, 95
3, 84480, Note_off_c, 0, 50, 80
3, 84480, Note_off_c, 0, 45, 80
3, 84480, Note_on_c, 0, 64, 95
3, 84480, Note_on_c, 0, 59, 95
3, 84480, Note_on_c, 0, 56, 95
3, 84480, Note_on_c, 0, 52, 95
3, 84480, Note_on_c, 0, 47, 95
3, 84480, Note_on_c, 0, 40, 95
3, 84720, Note_off_c, 0, 64, 80
3, 84720, Note_off_c, 0, 59, 80
3, 84720, Note_off_c, 0, 56, 80
3, 84720, Note_off_c, 0, 52, 80
3, 84720, Note_off_c, 0, 47, 80
3, 84720, Note_off_c, 0, 40, 80
3, 84720, Note_on_c, 0, 64, 95
3, 84720, Note_on_c, 0, 59, 95
3, 84720, Note_on_c, 0, 56, 95
3, 84720, Note_on_c, 0, 52, 95
3, 84720, Note_on_c, 0, 47, 95
3, 84720, Note_on_c, 0, 40, 95
3, 84740, Note_off_c, 0, 64, 80
3, 84740, Note_off_c, 0, 59, 80
3, 84960, Note_off_c, 0, 56, 80
3, 84960, Note_off_c, 0, 52, 80
3, 84960, Note_off_c, 0, 47, 80
3, 84960, Note_off_c, 0, 40, 80
3, 84960, Note_on_c, 0, 64, 95
3, 84960, Note_on_c, 0, 59, 95
3, 84960, Note_on_c, 0, 56, 95
3, 84960, Note_on_c, 0, 52, 95
3, 84960, Note_on_c, 0, 47, 95
3, 84960, Note_on_c, 0, 40, 95
3, 85200, Note_off_c, 0, 64, 80
3, 85200, Note_off_c, 0, 59, 80
3, 85200, Note_off_c, 0, 56, 80
3, 85200, Note_off_c, 0, 52, 80
3, 85200, Note_off_c, 0, 47, 80
3, 85200, Note_off_c, 0, 40, 80
3, 85200, Note_on_c, 0, 64, 95
3, 85200, Note_on_c, 0, 59, 95
3, 85200, Note_on_c, 0, 56, 95
3, 85200, Note_on_c, 0, 52, 95
3, 85200, Note_on_c, 0, 47, 95
3, 85200, Note_on_c, 0, 40, 95
3, 85320, Note_off_c, 0, 64, 80
3, 85320, Note_off_c, 0, 59, 80
3, 85320, Note_off_c, 0, 56, 80
3, 85320, Note_off_c, 0, 52, 80
3, 85320, Note_off_c, 0, 47, 80
3, 85320, Note_off_c, 0, 40, 80
3, 85320, Note_on_c, 0, 55, 95
3, 85320, Note_on_c, 0, 50, 95
3, 85320, Note_on_c, 0, 45, 95
3, 85440, Note_off_c, 0, 55, 80
3, 85440, Note_off_c, 0, 50, 80
3, 85440, Note_off_c, 0, 45, 80
3, 85440, Note_on_c, 0, 68, 95
3, 85440, Note_on_c, 0, 64, 95
3, 85440, Note_on_c, 0, 61, 95
3, 85440, Note_on_c, 0, 56, 95
3, 85440, Note_on_c, 0, 49, 95
3, 85440, Note_on_c, 0, 44, 95
3, 85680, Note_off_c, 0, 68, 80
3, 85680, Note_off_c, 0, 64, 80
3, 85680, Note_off_c, 0, 61, 80
3, 85680, Note_off_c, 0, 56, 80
3, 85680, Note_off_c, 0, 49, 80
3, 85680, Note_off_c, 0, 44, 80
3, 85680, Note_on_c, 0, 68, 95
3, 85680, Note_on_c, 0, 64, 95
3, 85680, Note_on_c, 0, 61, 95
3, 85680, Note_on_c, 0, 56, 95
3, 85680, Note_on_c, 0, 49, 95
3, 85680, Note_on_c, 0, 44, 95
3, 85700, Note_off_c, 0, 68, 80
3, 85920, Note_off_c, 0, 64, 80
3, 85920, Note_off_c, 0, 61, 80
3, 85920, Note_off_c, 0, 56, 80
3, 85920, Note_off_c, 0, 49, 80
3, 85920, Note_off_c, 0, 44, 80
3, 85920, Note_on_c, 0, 68, 95
3, 85920, Note_on_c, 0, 64, 95
3, 85920, Note_on_c, 0, 61, 95
3, 85920, Note_on_c, 0, 56, 95
3, 85920, Note_on_c, 0, 49, 95
3, 85920, Note_on_c, 0, 44, 95
3, 86160, Note_off_c, 0, 68, 80
3, 86160, Note_off_c, 0, 64, 80
3, 86160, Note_off_c, 0, 61, 80
3, 86160, Note_off_c, 0, 56, 80
3, 86160, Note_off_c, 0, 49, 80
3, 86160, Note_off_c, 0, 44, 80
3, 86160, Note_on_c, 0, 68, 95
3, 86160, Note_on_c, 0, 64, 95
3, 86160, Note_on_c, 0, 61, 95
3, 86160, Note_on_c, 0, 56, 95
3, 86160, Note_on_c, 0, 49, 95
3, 86160, Note_on_c, 0, 44, 95
3, 86280, Note_off_c, 0, 68, 80
3, 86280, Note_off_c, 0, 64, 80
3, 86280, Note_off_c, 0, 61, 80
3, 86280, Note_off_c, 0, 56, 80
3, 86280, Note_off_c, 0, 49, 80
3, 86280, Note_off_c, 0, 44, 80
3, 86280, Note_on_c, 0, 50, 95
3, 86280, Note_on_c, 0, 45, 95
3, 86280, Note_on_c, 0, 40, 95
3, 86400, Note_off_c, 0, 50, 80
3, 86400, Note_off_c, 0, 45, 80
3, 86400, Note_off_c, 0, 40, 80
3, 86400, Note_on_c, 0, 68, 95
3, 86400, Note_on_c, 0, 63, 95
3, 86400, Note_on_c, 0, 60, 95
3, 86400, Note_on_c, 0, 56, 95
3, 86400, Note_on_c, 0, 51, 95
3, 86400, Note_on_c, 0, 44, 95
3, 86640, Note_off_c, 0, 68, 80
3, 86640, Note_off_c, 0, 63, 80
3, 86640, Note_off_c, 0, 60, 80
3, 86640, Note_off_c, 0, 56, 80
3, 86640, Note_off_c, 0, 51, 80
3, 86640, Note_off_c, 0, 44, 80
3, 86640, Note_on_c, 0, 68, 95
3, 86640, Note_on_c, 0, 63, 95
3, 86640, Note_on_c, 0, 60, 95
3, 86640, Note_on_c, 0, 56, 95
3, 86640, Note_on_c, 0, 51, 95
3, 86640, Note_on_c, 0, 44, 95
3, 86660, Note_off_c, 0, 68, 80
3, 86880, Note_off_c, 0, 63, 80
3, 86880, Note_off_c, 0, 60, 80
3, 86880, Note_off_c, 0, 56, 80
3, 86880, Note_off_c, 0, 51, 80
3, 86880, Note_off_c, 0, 44, 80
3, 86880, Note_on_c, 0, 68, 95
3, 86880, Note_on_c, 0, 63, 95
3, 86880, Note_on_c, 0, 60, 95
3, 86880, Note_on_c, 0, 56, 95
3, 86880, Note_on_c, 0, 51, 95
3, 86880, Note_on_c, 0, 44, 95
3, 87120, Note_off_c, 0, 68, 80
3, 87120, Note_off_c, 0, 63, 80
3, 87120, Note_off_c, 0, 60, 80
3, 87120, Note_off_c, 0, 56, 80
3, 87120, Note_off_c, 0, 51, 80
3, 87120, Note_off_c, 0, 44, 80
3, 87120, Note_on_c, 1, 68, 95
3, 87120, Note_on_c, 1, 63, 95
3, 87120, Note_on_c, 1, 60, 95
3, 87120, Note_on_c, 1, 56, 95
3, 87120, Note_on_c, 1, 51, 95
3, 87120, Note_on_c, 1, 44, 95
3, 87216, Pitch_bend_c, 1, 8832
3, 87216, Pitch_bend_c, 1, 8832
3, 87216, Pitch_bend_c, 1, 8832
3, 87216, Pitch_bend_c, 1, 8832
3, 87216, Pitch_bend_c, 1, 8832
3, 87216, Pitch_bend_c, 1, 8832
3, 87240, Note_off_c, 1, 68, 80
3, 87240, Pitch_bend_c, 1, 8192
3, 87240, Note_off_c, 1, 63, 80
3, 87240, Pitch_bend_c, 1, 8192
3, 87240, Note_off_c, 1, 60, 80
3, 87240, Pitch_bend_c, 1, 8192
3, 87240, Note_off_c, 1, 56, 80
3, 87240, Pitch_bend_c, 1, 8192
3, 87240, Note_off_c, 1, 51, 80
3, 87240, Pitch_bend_c, 1, 8192
3, 87240, Note_off_c, 1, 44, 80
3, 87240, Pitch_bend_c, 1, 8192
3, 87240, Note_on_c, 0, 69, 76
3, 87240, Note_on_c, 0, 64, 76
3, 87240, Note_on_c, 0, 61, 76
3, 87240, Note_on_c, 0, 57, 76
3, 87240, Note_on_c, 0, 52, 76
3, 87240, Note_on_c, 0, 45, 76
3, 87360, Note_off_c, 0, 69, 80
3, 87360, Note_off_c, 0, 64, 80
3, 87360, Note_off_c, 0, 61, 80
3, 87360, Note_off_c, 0, 57, 80
3, 87360, Note_off_c, 0, 52, 80
3, 87360, Note_off_c, 0, 45, 80
3, 87360, Note_on_c, 0, 69, 95
3, 87360, Note_on_c, 0, 64, 95
3, 87360, Note_on_c, 0, 61, 95
3, 87360, Note_on_c, 0, 57, 95
3, 87360, Note_on_c, 0, 52, 95
3, 87360, Note_on_c, 0, 45, 95
3, 87480, Note_off_c, 0, 69, 80
3, 87480, Note_off_c, 0, 64, 80
3, 87480, Note_off_c, 0, 61, 80
3, 87480, Note_off_c, 0, 57, 80
3, 87480, Note_off_c, 0, 52, 80
3, 87480, Note_off_c, 0, 45, 80
3, 87480, Note_on_c, 0, 69, 95
3, 87480, Note_on_c, 0, 64, 95
3, 87480, Note_on_c, 0, 61, 95
3, 87480, Note_on_c, 0, 57, 95
3, 87480, Note_on_c, 0, 52, 95
3, 87480, Note_on_c, 0, 45, 95
3, 87600, Note_off_c, 0, 69, 80
3, 87600, Note_off_c, 0, 64, 80
3, 87600, Note_off_c, 0, 61, 80
3, 87600, Note_off_c, 0, 57, 80
3, 87600, Note_off_c, 0, 52, 80
3, 87600, Note_off_c, 0, 45, 80
3, 87600, Note_on_c, 0, 69, 95
3, 87600, Note_on_c, 0, 64, 95
3, 87600, Note_on_c, 0, 61, 95
3, 87600, Note_on_c, 0, 57, 95
3, 87600, Note_on_c, 0, 52, 95
3, 87600, Note_on_c, 0, 45, 95
3, 87720, Note_off_c, 0, 69, 80
3, 87720, Note_off_c, 0, 64, 80
3, 87720, Note_off_c, 0, 61, 80
3, 87720, Note_off_c, 0, 57, 80
3, 87720, Note_off_c, 0, 52, 80
3, 87720, Note_off_c, 0, 45, 80
3, 87720, Note_on_c, 1, 68, 95
3, 87720, Note_on_c, 1, 63, 95
3, 87720, Note_on_c, 1, 60, 95
3, 87720, Note_on_c, 1, 56, 95
3, 87720, Note_on_c, 1, 51, 95
3, 87720, Note_on_c, 1, 44, 95
3, 87816, Pitch_bend_c, 1, 8832
3, 87816, Pitch_bend_c, 1, 8832
3, 87816, Pitch_bend_c, 1, 8832
3, 87816, Pitch_bend_c, 1, 8832
3, 87816, Pitch_bend_c, 1, 8832
3, 87816, Pitch_bend_c, 1, 8832
3, 87840, Note_off_c, 1, 68, 80
3, 87840, Pitch_bend_c, 1, 8192
3, 87840, Note_off_c, 1, 63, 80
3, 87840, Pitch_bend_c, 1, 8192
3, 87840, Note_off_c, 1, 60, 80
3, 87840, Pitch_bend_c, 1, 8192
3, 87840, Note_off_c, 1, 56, 80
3, 87840, Pitch_bend_c, 1, 8192
3, 87840, Note_off_c, 1, 51, 80
3, 87840, Pitch_bend_c, 1, 8192
3, 87840, Note_off_c, 1, 44, 80
3, 87840, Pitch_bend_c, 1, 8192
3, 87840, Note_on_c, 0, 69, 76
3, 87840, Note_on_c, 0, 64, 76
3, 87840, Note_on_c, 0, 61, 76
3, 87840, Note_on_c, 0, 57, 76
3, 87840, Note_on_c, 0, 52, 76
3, 87840, Note_on_c, 0, 45, 76
3, 87960, Note_off_c, 0, 69, 80
3, 87960, Note_off_c, 0, 64, 80
3, 87960, Note_off_c, 0, 61, 80
3, 87960, Note_off_c, 0, 57, 80
3, 87960, Note_off_c, 0, 52, 80
3, 87960, Note_off_c, 0, 45, 80
3, 87960, Note_on_c, 0, 69, 95
3, 87960, Note_on_c, 0, 64, 95
3, 87960, Note_on_c, 0, 61, 95
3, 87960, Note_on_c, 0, 57, 95
3, 87960, Note_on_c, 0, 52, 95
3, 87960, Note_on_c, 0, 45, 95
3, 88080, Note_off_c, 0, 69, 80
3, 88080, Note_off_c, 0, 64, 80
3, 88080, Note_off_c, 0, 61, 80
3, 88080, Note_off_c, 0, 57, 80
3, 88080, Note_off_c, 0, 52, 80
3, 88080, Note_off_c, 0, 45, 80
3, 88080, Note_on_c, 0, 69, 95
3, 88080, Note_on_c, 0, 64, 95
3, 88080, Note_on_c, 0, 61, 95
3, 88080, Note_on_c, 0, 57, 95
3, 88080, Note_on_c, 0, 52, 95
3, 88080, Note_on_c, 0, 45, 95
3, 88200, Note_off_c, 0, 69, 80
3, 88200, Note_off_c, 0, 64, 80
3, 88200, Note_off_c, 0, 61, 80
3, 88200, Note_off_c, 0, 57, 80
3, 88200, Note_off_c, 0, 52, 80
3, 88200, Note_off_c, 0, 45, 80
3, 88200, Note_on_c, 0, 55, 95
3, 88200, Note_on_c, 0, 50, 95
3, 88200, Note_on_c, 0, 45, 95
3, 88200, Note_on_c, 0, 40, 95
3, 88320, Note_off_c, 0, 55, 80
3, 88320, Note_off_c, 0, 50, 80
3, 88320, Note_off_c, 0, 45, 80
3, 88320, Note_off_c, 0, 40, 80
3, 88320, Note_on_c, 0, 64, 95
3, 88320, Note_on_c, 0, 59, 95
3, 88320, Note_on_c, 0, 56, 95
3, 88320, Note_on_c, 0, 52, 95
3, 88320, Note_on_c, 0, 47, 95
3, 88320, Note_on_c, 0, 40, 95
3, 88560, Note_off_c, 0, 64, 80
3, 88560, Note_off_c, 0, 59, 80
3, 88560, Note_off_c, 0, 56, 80
3, 88560, Note_off_c, 0, 52, 80
3, 88560, Note_off_c, 0, 47, 80
3, 88560, Note_off_c, 0, 40, 80
3, 88560, Note_on_c, 0, 64, 95
3, 88560, Note_on_c, 0, 59, 95
3, 88560, Note_on_c, 0, 56, 95
3, 88560, Note_on_c, 0, 52, 95
3, 88560, Note_on_c, 0, 47, 95
3, 88560, Note_on_c, 0, 40, 95
3, 88580, Note_off_c, 0, 64, 80
3, 88580, Note_off_c, 0, 59, 80
3, 88800, Note_off_c, 0, 56, 80
3, 88800, Note_off_c, 0, 52, 80
3, 88800, Note_off_c, 0, 47, 80
3, 88800, Note_off_c, 0, 40, 80
3, 88800, Note_on_c, 0, 64, 95
3, 88800, Note_on_c, 0, 59, 95
3, 88800, Note_on_c, 0, 56, 95
3, 88800, Note_on_c, 0, 52, 95
3, 88800, Note_on_c, 0, 47, 95
3, 88800, Note_on_c, 0, 40, 95
3, 89040, Note_off_c, 0, 64, 80
3, 89040, Note_off_c, 0, 59, 80
3, 89040, Note_off_c, 0, 56, 80
3, 89040, Note_off_c, 0, 52, 80
3, 89040, Note_off_c, 0, 47, 80
3, 89040, Note_off_c, 0, 40, 80
3, 89040, Note_on_c, 0, 64, 95
3, 89040, Note_on_c, 0, 59, 95
3, 89040, Note_on_c, 0, 56, 95
3, 89040, Note_on_c, 0, 52, 95
3, 89040, Note_on_c, 0, 47, 95
3, 89040, Note_on_c, 0, 40, 95
3, 89160, Note_off_c, 0, 64, 80
3, 89160, Note_off_c, 0, 59, 80
3, 89160, Note_off_c, 0, 56, 80
3, 89160, Note_off_c, 0, 52, 80
3, 89160, Note_off_c, 0, 47, 80
3, 89160, Note_off_c, 0, 40, 80
3, 89160, Note_on_c, 0, 55, 95
3, 89160, Note_on_c, 0, 50, 95
3, 89160, Note_on_c, 0, 45, 95
3, 89280, Note_off_c, 0, 55, 80
3, 89280, Note_off_c, 0, 50, 80
3, 89280, Note_off_c, 0, 45, 80
3, 89280, Note_on_c, 0, 68, 95
3, 89280, Note_on_c, 0, 64, 95
3, 89280, Note_on_c, 0, 61, 95
3, 89280, Note_on_c, 0, 56, 95
3, 89280, Note_on_c, 0, 49, 95
3, 89280, Note_on_c, 0, 44, 95
3, 89520, Note_off_c, 0, 68, 80
3, 89520, Note_off_c, 0, 64, 80
3, 89520, Note_off_c, 0, 61, 80
3, 89520, Note_off_c, 0, 56, 80
3, 89520, Note_off_c, 0, 49, 80
3, 89520, Note_off_c, 0, 44, 80
3, 89520, Note_on_c, 0, 68, 95
3, 89520, Note_on_c, 0, 64, 95
3, 89520, Note_on_c, 0, 61, 95
3, 89520, Note_on_c, 0, 56, 95
3, 89520, Note_on_c, 0, 49, 95
3, 89520, Note_on_c, 0, 44, 95
3, 89540, Note_off_c, 0, 68, 80
3, 89760, Note_off_c, 0, 64, 80
3, 89760, Note_off_c, 0, 61, 80
3, 89760, Note_off_c, 0, 56, 80
3, 89760, Note_off_c, 0, 49, 80
3, 89760, Note_off_c, 0, 44, 80
3, 89760, Note_on_c, 0, 68, 95
3, 89760, Note_on_c, 0, 64, 95
3, 89760, Note_on_c, 0, 61, 95
3, 89760, Note_on_c, 0, 56, 95
3, 89760, Note_on_c, 0, 49, 95
3, 89760, Note_on_c, 0, 44, 95
3, 90000, Note_off_c, 0, 68, 80
3, 90000, Note_off_c, 0, 64, 80
3, 90000, Note_off_c, 0, 61, 80
3, 90000, Note_off_c, 0, 56, 80
3, 90000, Note_off_c, 0, 49, 80
3, 90000, Note_off_c, 0, 44, 80
3, 90000, Note_on_c, 0, 68, 95
3, 90000, Note_on_c, 0, 64, 95
3, 90000, Note_on_c, 0, 61, 95
3, 90000, Note_on_c, 0, 56, 95
3, 90000, Note_on_c, 0, 49, 95
3, 90000, Note_on_c, 0, 44, 95
3, 90120, Note_off_c, 0, 68, 80
3, 90120, Note_off_c, 0, 64, 80
3, 90120, Note_off_c, 0, 61, 80
3, 90120, Note_off_c, 0, 56, 80
3, 90120, Note_off_c, 0, 49, 80
3, 90120, Note_off_c, 0, 44, 80
3, 90120, Note_on_c, 0, 50, 95
3, 90120, Note_on_c, 0, 45, 95
3, 90120, Note_on_c, 0, 40, 95
3, 90240, Note_off_c, 0, 50, 80
3, 90240, Note_off_c, 0, 45, 80
3, 90240, Note_off_c, 0, 40, 80
3, 90240, Note_on_c, 0, 68, 95
3, 90240, Note_on_c, 0, 63, 95
3, 90240, Note_on_c, 0, 60, 95
3, 90240, Note_on_c, 0, 56, 95
3, 90240, Note_on_c, 0, 51, 95
3, 90240, Note_on_c, 0, 44, 95
3, 90480, Note_off_c, 0, 68, 80
3, 90480, Note_off_c, 0, 63, 80
3, 90480, Note_off_c, 0, 60, 80
3, 90480, Note_off_c, 0, 56, 80
3, 90480, Note_off_c, 0, 51, 80
3, 90480, Note_off_c, 0, 44, 80
3, 90480, Note_on_c, 0, 68, 95
3, 90480, Note_on_c, 0, 63, 95
3, 90480, Note_on_c, 0, 60, 95
3, 90480, Note_on_c, 0, 56, 95
3, 90480, Note_on_c, 0, 51, 95
3, 90480, Note_on_c, 0, 44, 95
3, 90500, Note_off_c, 0, 68, 80
3, 90720, Note_off_c, 0, 63, 80
3, 90720, Note_off_c, 0, 60, 80
3, 90720, Note_off_c, 0, 56, 80
3, 90720, Note_off_c, 0, 51, 80
3, 90720, Note_off_c, 0, 44, 80
3, 90720, Note_on_c, 0, 68, 95
3, 90720, Note_on_c, 0, 63, 95
3, 90720, Note_on_c, 0, 60, 95
3, 90720, Note_on_c, 0, 56, 95
3, 90720, Note_on_c, 0, 51, 95
3, 90720, Note_on_c, 0, 44, 95
3, 90960, Note_off_c, 0, 68, 80
3, 90960, Note_off_c, 0, 63, 80
3, 90960, Note_off_c, 0, 60, 80
3, 90960, Note_off_c, 0, 56, 80
3, 90960, Note_off_c, 0, 51, 80
3, 90960, Note_off_c, 0, 44, 80
3, 90960, Note_on_c, 1, 68, 95
3, 90960, Note_on_c, 1, 63, 95
3, 90960, Note_on_c, 1, 60, 95
3, 90960, Note_on_c, 1, 56, 95
3, 90960, Note_on_c, 1, 51, 95
3, 90960, Note_on_c, 1, 44, 95
3, 91056, Pitch_bend_c, 1, 8832
3, 91056, Pitch_bend_c, 1, 8832
3, 91056, Pitch_bend_c, 1, 8832
3, 91056, Pitch_bend_c, 1, 8832
3, 91056, Pitch_bend_c, 1, 8832
3, 91056, Pitch_bend_c, 1, 8832
3, 91080, Note_off_c, 1, 68, 80
3, 91080, Pitch_bend_c, 1, 8192
3, 91080, Note_off_c, 1, 63, 80
3, 91080, Pitch_bend_c, 1, 8192
3, 91080, Note_off_c, 1, 60, 80
3, 91080, Pitch_bend_c, 1, 8192
3, 91080, Note_off_c, 1, 56, 80
3, 91080, Pitch_bend_c, 1, 8192
3, 91080, Note_off_c, 1, 51, 80
3, 91080, Pitch_bend_c, 1, 8192
3, 91080, Note_off_c, 1, 44, 80
3, 91080, Pitch_bend_c, 1, 8192
3, 91080, Note_on_c, 0, 69, 76
3, 91080, Note_on_c, 0, 64, 76
3, 91080, Note_on_c, 0, 61, 76
3, 91080, Note_on_c, 0, 57, 76
3, 91080, Note_on_c, 0, 52, 76
3, 91080, Note_on_c, 0, 45, 76
3, 91200, Note_off_c, 0, 69, 80
3, 91200, Note_off_c, 0, 64, 80
3, 91200, Note_off_c, 0, 61, 80
3, 91200, Note_off_c, 0, 57, 80
3, 91200, Note_off_c, 0, 52, 80
3, 91200, Note_off_c, 0, 45, 80
3, 91200, Note_on_c, 0, 69, 95
3, 91200, Note_on_c, 0, 64, 95
3, 91200, Note_on_c, 0, 61, 95
3, 91200, Note_on_c, 0, 57, 95
3, 91200, Note_on_c, 0, 52, 95
3, 91200, Note_on_c, 0, 45, 95
3, 91320, Note_off_c, 0, 69, 80
3, 91320, Note_off_c, 0, 64, 80
3, 91320, Note_off_c, 0, 61, 80
3, 91320, Note_off_c, 0, 57, 80
3, 91320, Note_off_c, 0, 52, 80
3, 91320, Note_off_c, 0, 45, 80
3, 91320, Note_on_c, 0, 69, 95
3, 91320, Note_on_c, 0, 64, 95
3, 91320, Note_on_c, 0, 61, 95
3, 91320, Note_on_c, 0, 57, 95
3, 91320, Note_on_c, 0, 52, 95
3, 91320, Note_on_c, 0, 45, 95
3, 91440, Note_off_c, 0, 69, 80
3, 91440, Note_off_c, 0, 64, 80
3, 91440, Note_off_c, 0, 61, 80
3, 91440, Note_off_c, 0, 57, 80
3, 91440, Note_off_c, 0, 52, 80
3, 91440, Note_off_c, 0, 45, 80
3, 91440, Note_on_c, 0, 69, 95
3, 91440, Note_on_c, 0, 64, 95
3, 91440, Note_on_c, 0, 61, 95
3, 91440, Note_on_c, 0, 57, 95
3, 91440, Note_on_c, 0, 52, 95
3, 91440, Note_on_c, 0, 45, 95
3, 91560, Note_off_c, 0, 69, 80
3, 91560, Note_off_c, 0, 64, 80
3, 91560, Note_off_c, 0, 61, 80
3, 91560, Note_off_c, 0, 57, 80
3, 91560, Note_off_c, 0, 52, 80
3, 91560, Note_off_c, 0, 45, 80
3, 91560, Note_on_c, 1, 68, 95
3, 91560, Note_on_c, 1, 63, 95
3, 91560, Note_on_c, 1, 60, 95
3, 91560, Note_on_c, 1, 56, 95
3, 91560, Note_on_c, 1, 51, 95
3, 91560, Note_on_c, 1, 44, 95
3, 91656, Pitch_bend_c, 1, 8832
3, 91656, Pitch_bend_c, 1, 8832
3, 91656, Pitch_bend_c, 1, 8832
3, 91656, Pitch_bend_c, 1, 8832
3, 91656, Pitch_bend_c, 1, 8832
3, 91656, Pitch_bend_c, 1, 8832
3, 91680, Note_off_c, 1, 68, 80
3, 91680, Pitch_bend_c, 1, 8192
3, 91680, Note_off_c, 1, 63, 80
3, 91680, Pitch_bend_c, 1, 8192
3, 91680, Note_off_c, 1, 60, 80
3, 91680, Pitch_bend_c, 1, 8192
3, 91680, Note_off_c, 1, 56, 80
3, 91680, Pitch_bend_c, 1, 8192
3, 91680, Note_off_c, 1, 51, 80
3, 91680, Pitch_bend_c, 1, 8192
3, 91680, Note_off_c, 1, 44, 80
3, 91680, Pitch_bend_c, 1, 8192
3, 91680, Note_on_c, 0, 69, 76
3, 91680, Note_on_c, 0, 64, 76
3, 91680, Note_on_c, 0, 61, 76
3, 91680, Note_on_c, 0, 57, 76
3, 91680, Note_on_c, 0, 52, 76
3, 91680, Note_on_c, 0, 45, 76
3, 91800, Note_off_c, 0, 69, 80
3, 91800, Note_off_c, 0, 64, 80
3, 91800, Note_off_c, 0, 61, 80
3, 91800, Note_off_c, 0, 57, 80
3, 91800, Note_off_c, 0, 52, 80
3, 91800, Note_off_c, 0, 45, 80
3, 91800, Note_on_c, 0, 69, 95
3, 91800, Note_on_c, 0, 64, 95
3, 91800, Note_on_c, 0, 61, 95
3, 91800, Note_on_c, 0, 57, 95
3, 91800, Note_on_c, 0, 52, 95
3, 91800, Note_on_c, 0, 45, 95
3, 91920, Note_off_c, 0, 69, 80
3, 91920, Note_off_c, 0, 64, 80
3, 91920, Note_off_c, 0, 61, 80
3, 91920, Note_off_c, 0, 57, 80
3, 91920, Note_off_c, 0, 52, 80
3, 91920, Note_off_c, 0, 45, 80
3, 91920, Note_on_c, 0, 69, 95
3, 91920, Note_on_c, 0, 64, 95
3, 91920, Note_on_c, 0, 61, 95
3, 91920, Note_on_c, 0, 57, 95
3, 91920, Note_on_c, 0, 52, 95
3, 91920, Note_on_c, 0, 45, 95
3, 92040, Note_off_c, 0, 69, 80
3, 92040, Note_off_c, 0, 64, 80
3, 92040, Note_off_c, 0, 61, 80
3, 92040, Note_off_c, 0, 57, 80
3, 92040, Note_off_c, 0, 52, 80
3, 92040, Note_off_c, 0, 45, 80
3, 92040, Note_on_c, 0, 55, 95
3, 92040, Note_on_c, 0, 50, 95
3, 92040, Note_on_c, 0, 45, 95
3, 92040, Note_on_c, 0, 40, 95
3, 92160, Note_off_c, 0, 55, 80
3, 92160, Note_off_c, 0, 50, 80
3, 92160, Note_off_c, 0, 45, 80
3, 92160, Note_off_c, 0, 40, 80
3, 92160, Note_on_c, 0, 64, 95
3, 92160, Note_on_c, 0, 59, 95
3, 92160, Note_on_c, 0, 56, 95
3, 92160, Note_on_c, 0, 52, 95
3, 92160, Note_on_c, 0, 47, 95
3, 92160, Note_on_c, 0, 40, 95
3, 92400, Note_off_c, 0, 64, 80
3, 92400, Note_off_c, 0, 59, 80
3, 92400, Note_off_c, 0, 56, 80
3, 92400, Note_off_c, 0, 52, 80
3, 92400, Note_off_c, 0, 47, 80
3, 92400, Note_off_c, 0, 40, 80
3, 92400, Note_on_c, 0, 64, 95
3, 92400, Note_on_c, 0, 59, 95
3, 92400, Note_on_c, 0, 56, 95
3, 92400, Note_on_c, 0, 52, 95
3, 92400, Note_on_c, 0, 47, 95
3, 92400, Note_on_c, 0, 40, 95
3, 92420, Note_off_c, 0, 64, 80
3, 92420, Note_off_c, 0, 59, 80
3, 92640, Note_off_c, 0, 56, 80
3, 92640, Note_off_c, 0, 52, 80
3, 92640, Note_off_c, 0, 47, 80
3, 92640, Note_off_c, 0, 40, 80
3, 92640, Note_on_c, 0, 64, 95
3, 92640, Note_on_c, 0, 59, 95
3, 92640, Note_on_c, 0, 56, 95
3, 92640, Note_on_c, 0, 52, 95
3, 92640, Note_on_c, 0, 47, 95
3, 92640, Note_on_c, 0, 40, 95
3, 92880, Note_off_c, 0, 64, 80
3, 92880, Note_off_c, 0, 59, 80
3, 92880, Note_off_c, 0, 56, 80
3, 92880, Note_off_c, 0, 52, 80
3, 92880, Note_off_c, 0, 47, 80
3, 92880, Note_off_c, 0, 40, 80
3, 92880, Note_on_c, 0, 64, 95
3, 92880, Note_on_c, 0, 59, 95
3, 92880, Note_on_c, 0, 56, 95
3, 92880, Note_on_c, 0, 52, 95
3, 92880, Note_on_c, 0, 47, 95
3, 92880, Note_on_c, 0, 40, 95
3, 93000, Note_off_c, 0, 64, 80
3, 93000, Note_off_c, 0, 59, 80
3, 93000, Note_off_c, 0, 56, 80
3, 93000, Note_off_c, 0, 52, 80
3, 93000, Note_off_c, 0, 47, 80
3, 93000, Note_off_c, 0, 40, 80
3, 93000, Note_on_c, 0, 55, 95
3, 93000, Note_on_c, 0, 50, 95
3, 93000, Note_on_c, 0, 45, 95
3, 93120, Note_off_c, 0, 55, 80
3, 93120, Note_off_c, 0, 50, 80
3, 93120, Note_off_c, 0, 45, 80
3, 93120, Note_on_c, 0, 68, 95
3, 93120, Note_on_c, 0, 64, 95
3, 93120, Note_on_c, 0, 61, 95
3, 93120, Note_on_c, 0, 56, 95
3, 93120, Note_on_c, 0, 49, 95
3, 93120, Note_on_c, 0, 44, 95
3, 93360, Note_off_c, 0, 68, 80
3, 93360, Note_off_c, 0, 64, 80
3, 93360, Note_off_c, 0, 61, 80
3, 93360, Note_off_c, 0, 56, 80
3, 93360, Note_off_c, 0, 49, 80
3, 93360, Note_off_c, 0, 44, 80
3, 93360, Note_on_c, 0, 68, 95
3, 93360, Note_on_c, 0, 64, 95
3, 93360, Note_on_c, 0, 61, 95
3, 93360, Note_on_c, 0, 56, 95
3, 93360, Note_on_c, 0, 49, 95
3, 93360, Note_on_c, 0, 44, 95
3, 93380, Note_off_c, 0, 68, 80
3, 93600, Note_off_c, 0, 64, 80
3, 93600, Note_off_c, 0, 61, 80
3, 93600, Note_off_c, 0, 56, 80
3, 93600, Note_off_c, 0, 49, 80
3, 93600, Note_off_c, 0, 44, 80
3, 93600, Note_on_c, 0, 68, 95
3, 93600, Note_on_c, 0, 64, 95
3, 93600, Note_on_c, 0, 61, 95
3, 93600, Note_on_c, 0, 56, 95
3, 93600, Note_on_c, 0, 49, 95
3, 93600, Note_on_c, 0, 44, 95
3, 93840, Note_off_c, 0, 68, 80
3, 93840, Note_off_c, 0, 64, 80
3, 93840, Note_off_c, 0, 61, 80
3, 93840, Note_off_c, 0, 56, 80
3, 93840, Note_off_c, 0, 49, 80
3, 93840, Note_off_c, 0, 44, 80
3, 93840, Note_on_c, 0, 68, 95
3, 93840, Note_on_c, 0, 64, 95
3, 93840, Note_on_c, 0, 61, 95
3, 93840, Note_on_c, 0, 56, 95
3, 93840, Note_on_c, 0, 49, 95
3, 93840, Note_on_c, 0, 44, 95
3, 93960, Note_off_c, 0, 68, 80
3, 93960, Note_off_c, 0, 64, 80
3, 93960, Note_off_c, 0, 61, 80
3, 93960, Note_off_c, 0, 56, 80
3, 93960, Note_off_c, 0, 49, 80
3, 93960, Note_off_c, 0, 44, 80
3, 93960, Note_on_c, 0, 50, 95
3, 93960, Note_on_c, 0, 45, 95
3, 93960, Note_on_c, 0, 40, 95
3, 94080, Note_off_c, 0, 50, 80
3, 94080, Note_off_c, 0, 45, 80
3, 94080, Note_off_c, 0, 40, 80
3, 94080, Note_on_c, 0, 68, 95
3, 94080, Note_on_c, 0, 63, 95
3, 94080, Note_on_c, 0, 60, 95
3, 94080, Note_on_c, 0, 56, 95
3, 94080, Note_on_c, 0, 51, 95
3, 94080, Note_on_c, 0, 44, 95
3, 94320, Note_off_c, 0, 68, 80
3, 94320, Note_off_c, 0, 63, 80
3, 94320, Note_off_c, 0, 60, 80
3, 94320, Note_off_c, 0, 56, 80
3, 94320, Note_off_c, 0, 51, 80
3, 94320, Note_off_c, 0, 44, 80
3, 94320, Note_on_c, 0, 68, 95
3, 94320, Note_on_c, 0, 63, 95
3, 94320, Note_on_c, 0, 60, 95
3, 94320, Note_on_c, 0, 56, 95
3, 94320, Note_on_c, 0, 51, 95
3, 94320, Note_on_c, 0, 44, 95
3, 94340, Note_off_c, 0, 68, 80
3, 94560, Note_off_c, 0, 63, 80
3, 94560, Note_off_c, 0, 60, 80
3, 94560, Note_off_c, 0, 56, 80
3, 94560, Note_off_c, 0, 51, 80
3, 94560, Note_off_c, 0, 44, 80
3, 94560, Note_on_c, 0, 68, 95
3, 94560, Note_on_c, 0, 63, 95
3, 94560, Note_on_c, 0, 60, 95
3, 94560, Note_on_c, 0, 56, 95
3, 94560, Note_on_c, 0, 51, 95
3, 94560, Note_on_c, 0, 44, 95
3, 94800, Note_off_c, 0, 68, 80
3, 94800, Note_off_c, 0, 63, 80
3, 94800, Note_off_c, 0, 60, 80
3, 94800, Note_off_c, 0, 56, 80
3, 94800, Note_off_c, 0, 51, 80
3, 94800, Note_off_c, 0, 44, 80
3, 94800, Note_on_c, 1, 68, 95
3, 94800, Note_on_c, 1, 63, 95
3, 94800, Note_on_c, 1, 60, 95
3, 94800, Note_on_c, 1, 56, 95
3, 94800, Note_on_c, 1, 51, 95
3, 94800, Note_on_c, 1, 44, 95
3, 94896, Pitch_bend_c, 1, 8832
3, 94896, Pitch_bend_c, 1, 8832
3, 94896, Pitch_bend_c, 1, 8832
3, 94896, Pitch_bend_c, 1, 8832
3, 94896, Pitch_bend_c, 1, 8832
3, 94896, Pitch_bend_c, 1, 8832
3, 94920, Note_off_c, 1, 68, 80
3, 94920, Pitch_bend_c, 1, 8192
3, 94920, Note_off_c, 1, 63, 80
3, 94920, Pitch_bend_c, 1, 8192
3, 94920, Note_off_c, 1, 60, 80
3, 94920, Pitch_bend_c, 1, 8192
3, 94920, Note_off_c, 1, 56, 80
3, 94920, Pitch_bend_c, 1, 8192
3, 94920, Note_off_c, 1, 51, 80
3, 94920, Pitch_bend_c, 1, 8192
3, 94920, Note_off_c, 1, 44, 80
3, 94920, Pitch_bend_c, 1, 8192
3, 94920, Note_on_c, 0, 69, 76
3, 94920, Note_on_c, 0, 64, 76
3, 94920, Note_on_c, 0, 61, 76
3, 94920, Note_on_c, 0, 57, 76
3, 94920, Note_on_c, 0, 52, 76
3, 94920, Note_on_c, 0, 45, 76
3, 95040, Note_off_c, 0, 69, 80
3, 95040, Note_off_c, 0, 64, 80
3, 95040, Note_off_c, 0, 61, 80
3, 95040, Note_off_c, 0, 57, 80
3, 95040, Note_off_c, 0, 52, 80
3, 95040, Note_off_c, 0, 45, 80
3, 95040, Note_on_c, 0, 69, 95
3, 95040, Note_on_c, 0, 64, 95
3, 95040, Note_on_c, 0, 61, 95
3, 95040, Note_on_c, 0, 57, 95
3, 95040, Note_on_c, 0, 52, 95
3, 95040, Note_on_c, 0, 45, 95
3, 95160, Note_off_c, 0, 69, 80
3, 95160, Note_off_c, 0, 64, 80
3, 95160, Note_off_c, 0, 61, 80
3, 95160, Note_off_c, 0, 57, 80
3, 95160, Note_off_c, 0, 52, 80
3, 95160, Note_off_c, 0, 45, 80
3, 95160, Note_on_c, 0, 69, 95
3, 95160, Note_on_c, 0, 64, 95
3, 95160, Note_on_c, 0, 61, 95
3, 95160, Note_on_c, 0, 57, 95
3, 95160, Note_on_c, 0, 52, 95
3, 95160, Note_on_c, 0, 45, 95
3, 95280, Note_off_c, 0, 69, 80
3, 95280, Note_off_c, 0, 64, 80
3, 95280, Note_off_c, 0, 61, 80
3, 95280, Note_off_c, 0, 57, 80
3, 95280, Note_off_c, 0, 52, 80
3, 95280, Note_off_c, 0, 45, 80
3, 95280, Note_on_c, 0, 69, 95
3, 95280, Note_on_c, 0, 64, 95
3, 95280, Note_on_c, 0, 61, 95
3, 95280, Note_on_c, 0, 57, 95
3, 95280, Note_on_c, 0, 52, 95
3, 95280, Note_on_c, 0, 45, 95
3, 95400, Note_off_c, 0, 69, 80
3, 95400, Note_off_c, 0, 64, 80
3, 95400, Note_off_c, 0, 61, 80
3, 95400, Note_off_c, 0, 57, 80
3, 95400, Note_off_c, 0, 52, 80
3, 95400, Note_off_c, 0, 45, 80
3, 95400, Note_on_c, 1, 68, 95
3, 95400, Note_on_c, 1, 63, 95
3, 95400, Note_on_c, 1, 60, 95
3, 95400, Note_on_c, 1, 56, 95
3, 95400, Note_on_c, 1, 51, 95
3, 95400, Note_on_c, 1, 44, 95
3, 95496, Pitch_bend_c, 1, 8832
3, 95496, Pitch_bend_c, 1, 8832
3, 95496, Pitch_bend_c, 1, 8832
3, 95496, Pitch_bend_c, 1, 8832
3, 95496, Pitch_bend_c, 1, 8832
3, 95496, Pitch_bend_c, 1, 8832
3, 95520, Note_off_c, 1, 68, 80
3, 95520, Pitch_bend_c, 1, 8192
3, 95520, Note_off_c, 1, 63, 80
3, 95520, Pitch_bend_c, 1, 8192
3, 95520, Note_off_c, 1, 60, 80
3, 95520, Pitch_bend_c, 1, 8192
3, 95520, Note_off_c, 1, 56, 80
3, 95520, Pitch_bend_c, 1, 8192
3, 95520, Note_off_c, 1, 51, 80
3, 95520, Pitch_bend_c, 1, 8192
3, 95520, Note_off_c, 1, 44, 80
3, 95520, Pitch_bend_c, 1, 8192
3, 95520, Note_on_c, 0, 69, 76
3, 95520, Note_on_c, 0, 64, 76
3, 95520, Note_on_c, 0, 61, 76
3, 95520, Note_on_c, 0, 57, 76
3, 95520, Note_on_c, 0, 52, 76
3, 95520, Note_on_c, 0, 45, 76
3, 95640, Note_off_c, 0, 69, 80
3, 95640, Note_off_c, 0, 64, 80
3, 95640, Note_off_c, 0, 61, 80
3, 95640, Note_off_c, 0, 57, 80
3, 95640, Note_off_c, 0, 52, 80
3, 95640, Note_off_c, 0, 45, 80
3, 95640, Note_on_c, 0, 69, 95
3, 95640, Note_on_c, 0, 64, 95
3, 95640, Note_on_c, 0, 61, 95
3, 95640, Note_on_c, 0, 57, 95
3, 95640, Note_on_c, 0, 52, 95
3, 95640, Note_on_c, 0, 45, 95
3, 95760, Note_off_c, 0, 69, 80
3, 95760, Note_off_c, 0, 64, 80
3, 95760, Note_off_c, 0, 61, 80
3, 95760, Note_off_c, 0, 57, 80
3, 95760, Note_off_c, 0, 52, 80
3, 95760, Note_off_c, 0, 45, 80
3, 95760, Note_on_c, 0, 69, 95
3, 95760, Note_on_c, 0, 64, 95
3, 95760, Note_on_c, 0, 61, 95
3, 95760, Note_on_c, 0, 57, 95
3, 95760, Note_on_c, 0, 52, 95
3, 95760, Note_on_c, 0, 45, 95
3, 95880, Note_off_c, 0, 69, 80
3, 95880, Note_off_c, 0, 64, 80
3, 95880, Note_off_c, 0, 61, 80
3, 95880, Note_off_c, 0, 57, 80
3, 95880, Note_off_c, 0, 52, 80
3, 95880, Note_off_c, 0, 45, 80
3, 95880, Note_on_c, 0, 55, 95
3, 95880, Note_on_c, 0, 50, 95
3, 95880, Note_on_c, 0, 45, 95
3, 95880, Note_on_c, 0, 40, 95
3, 96000, Note_off_c, 0, 55, 80
3, 96000, Note_off_c, 0, 50, 80
3, 96000, Note_off_c, 0, 45, 80
3, 96000, Note_off_c, 0, 40, 80
3, 96000, Note_on_c, 0, 64, 95
3, 96000, Note_on_c, 0, 59, 95
3, 96000, Note_on_c, 0, 56, 95
3, 96000, Note_on_c, 0, 52, 95
3, 96000, Note_on_c, 0, 47, 95
3, 96000, Note_on_c, 0, 40, 95
3, 96240, Note_off_c, 0, 64, 80
3, 96240, Note_off_c, 0, 59, 80
3, 96240, Note_off_c, 0, 56, 80
3, 96240, Note_off_c, 0, 52, 80
3, 96240, Note_off_c, 0, 47, 80
3, 96240, Note_off_c, 0, 40, 80
3, 96240, Note_on_c, 0, 64, 95
3, 96240, Note_on_c, 0, 59, 95
3, 96240, Note_on_c, 0, 56, 95
3, 96240, Note_on_c, 0, 52, 95
3, 96240, Note_on_c, 0, 47, 95
3, 96240, Note_on_c, 0, 40, 95
3, 96260, Note_off_c, 0, 64, 80
3, 96260, Note_off_c, 0, 59, 80
3, 96480, Note_off_c, 0, 56, 80
3, 96480, Note_off_c, 0, 52, 80
3, 96480, Note_off_c, 0, 47, 80
3, 96480, Note_off_c, 0, 40, 80
3, 96480, Note_on_c, 0, 64, 95
3, 96480, Note_on_c, 0, 59, 95
3, 96480, Note_on_c, 0, 56, 95
3, 96480, Note_on_c, 0, 52, 95
3, 96480, Note_on_c, 0, 47, 95
3, 96480, Note_on_c, 0, 40, 95
3, 96720, Note_off_c, 0, 64, 80
3, 96720, Note_off_c, 0, 59, 80
3, 96720, Note_off_c, 0, 56, 80
3, 96720, Note_off_c, 0, 52, 80
3, 96720, Note_off_c, 0, 47, 80
3, 96720, Note_off_c, 0, 40, 80
3, 96720, Note_on_c, 0, 64, 95
3, 96720, Note_on_c, 0, 59, 95
3, 96720, Note_on_c, 0, 56, 95
3, 96720, Note_on_c, 0, 52, 95
3, 96720, Note_on_c, 0, 47, 95
3, 96720, Note_on_c, 0, 40, 95
3, 96840, Note_off_c, 0, 64, 80
3, 96840, Note_off_c, 0, 59, 80
3, 96840, Note_off_c, 0, 56, 80
3, 96840, Note_off_c, 0, 52, 80
3, 96840, Note_off_c, 0, 47, 80
3, 96840, Note_off_c, 0, 40, 80
3, 96840, Note_on_c, 0, 55, 95
3, 96840, Note_on_c, 0, 50, 95
3, 96840, Note_on_c, 0, 45, 95
3, 96960, Note_off_c, 0, 55, 80
3, 96960, Note_off_c, 0, 50, 80
3, 96960, Note_off_c, 0, 45, 80
3, 96960, Note_on_c, 0, 68, 95
3, 96960, Note_on_c, 0, 64, 95
3, 96960, Note_on_c, 0, 61, 95
3, 96960, Note_on_c, 0, 56, 95
3, 96960, Note_on_c, 0, 49, 95
3, 96960, Note_on_c, 0, 44, 95
3, 97200, Note_off_c, 0, 68, 80
3, 97200, Note_off_c, 0, 64, 80
3, 97200, Note_off_c, 0, 61, 80
3, 97200, Note_off_c, 0, 56, 80
3, 97200, Note_off_c, 0, 49, 80
3, 97200, Note_off_c, 0, 44, 80
3, 97200, Note_on_c, 0, 68, 95
3, 97200, Note_on_c, 0, 64, 95
3, 97200, Note_on_c, 0, 61, 95
3, 97200, Note_on_c, 0, 56, 95
3, 97200, Note_on_c, 0, 49, 95
3, 97200, Note_on_c, 0, 44, 95
3, 97220, Note_off_c, 0, 68, 80
3, 97440, Note_off_c, 0, 64, 80
3, 97440, Note_off_c, 0, 61, 80
3, 97440, Note_off_c, 0, 56, 80
3, 97440, Note_off_c, 0, 49, 80
3, 97440, Note_off_c, 0, 44, 80
3, 97440, Note_on_c, 0, 68, 95
3, 97440, Note_on_c, 0, 64, 95
3, 97440, Note_on_c, 0, 61, 95
3, 97440, Note_on_c, 0, 56, 95
3, 97440, Note_on_c, 0, 49, 95
3, 97440, Note_on_c, 0, 44, 95
3, 97680, Note_off_c, 0, 68, 80
3, 97680, Note_off_c, 0, 64, 80
3, 97680, Note_off_c, 0, 61, 80
3, 97680, Note_off_c, 0, 56, 80
3, 97680, Note_off_c, 0, 49, 80
3, 97680, Note_off_c, 0, 44, 80
3, 97680, Note_on_c, 0, 68, 95
3, 97680, Note_on_c, 0, 64, 95
3, 97680, Note_on_c, 0, 61, 95
3, 97680, Note_on_c, 0, 56, 95
3, 97680, Note_on_c, 0, 49, 95
3, 97680, Note_on_c, 0, 44, 95
3, 97800, Note_off_c, 0, 68, 80
3, 97800, Note_off_c, 0, 64, 80
3, 97800, Note_off_c, 0, 61, 80
3, 97800, Note_off_c, 0, 56, 80
3, 97800, Note_off_c, 0, 49, 80
3, 97800, Note_off_c, 0, 44, 80
3, 97800, Note_on_c, 0, 50, 95
3, 97800, Note_on_c, 0, 45, 95
3, 97800, Note_on_c, 0, 40, 95
3, 97920, Note_off_c, 0, 50, 80
3, 97920, Note_off_c, 0, 45, 80
3, 97920, Note_off_c, 0, 40, 80
3, 97920, Note_on_c, 0, 68, 95
3, 97920, Note_on_c, 0, 63, 95
3, 97920, Note_on_c, 0, 60, 95
3, 97920, Note_on_c, 0, 56, 95
3, 97920, Note_on_c, 0, 51, 95
3, 97920, Note_on_c, 0, 44, 95
3, 98160, Note_off_c, 0, 68, 80
3, 98160, Note_off_c, 0, 63, 80
3, 98160, Note_off_c, 0, 60, 80
3, 98160, Note_off_c, 0, 56, 80
3, 98160, Note_off_c, 0, 51, 80
3, 98160, Note_off_c, 0, 44, 80
3, 98160, Note_on_c, 0, 68, 95
3, 98160, Note_on_c, 0, 63, 95
3, 98160, Note_on_c, 0, 60, 95
3, 98160, Note_on_c, 0, 56, 95
3, 98160, Note_on_c, 0, 51, 95
3, 98160, Note_on_c, 0, 44, 95
3, 98180, Note_off_c, 0, 68, 80
3, 98400, Note_off_c, 0, 63, 80
3, 98400, Note_off_c, 0, 60, 80
3, 98400, Note_off_c, 0, 56, 80
3, 98400, Note_off_c, 0, 51, 80
3, 98400, Note_off_c, 0, 44, 80
3, 98400, Note_on_c, 0, 68, 95
3, 98400, Note_on_c, 0, 63, 95
3, 98400, Note_on_c, 0, 60, 95
3, 98400, Note_on_c, 0, 56, 95
3, 98400, Note_on_c, 0, 51, 95
3, 98400, Note_on_c, 0, 44, 95
3, 98640, Note_off_c, 0, 68, 80
3, 98640, Note_off_c, 0, 63, 80
3, 98640, Note_off_c, 0, 60, 80
3, 98640, Note_off_c, 0, 56, 80
3, 98640, Note_off_c, 0, 51, 80
3, 98640, Note_off_c, 0, 44, 80
3, 98640, Note_on_c, 1, 68, 95
3, 98640, Note_on_c, 1, 63, 95
3, 98640, Note_on_c, 1, 60, 95
3, 98640, Note_on_c, 1, 56, 95
3, 98640, Note_on_c, 1, 51, 95
3, 98640, Note_on_c, 1, 44, 95
3, 98736, Pitch_bend_c, 1, 8832
3, 98736, Pitch_bend_c, 1, 8832
3, 98736, Pitch_bend_c, 1, 8832
3, 98736, Pitch_bend_c, 1, 8832
3, 98736, Pitch_bend_c, 1, 8832
3, 98736, Pitch_bend_c, 1, 8832
3, 98760, Note_off_c, 1, 68, 80
3, 98760, Pitch_bend_c, 1, 8192
3, 98760, Note_off_c, 1, 63, 80
3, 98760, Pitch_bend_c, 1, 8192
3, 98760, Note_off_c, 1, 60, 80
3, 98760, Pitch_bend_c, 1, 8192
3, 98760, Note_off_c, 1, 56, 80
3, 98760, Pitch_bend_c, 1, 8192
3, 98760, Note_off_c, 1, 51, 80
3, 98760, Pitch_bend_c, 1, 8192
3, 98760, Note_off_c, 1, 44, 80
3, 98760, Pitch_bend_c, 1, 8192
3, 98760, Note_on_c, 0, 69, 76
3, 98760, Note_on_c, 0, 64, 76
3, 98760, Note_on_c, 0, 61, 76
3, 98760, Note_on_c, 0, 57, 76
3, 98760, Note_on_c, 0, 52, 76
3, 98760, Note_on_c, 0, 45, 76
3, 98880, Note_off_c, 0, 69, 80
3, 98880, Note_off_c, 0, 64, 80
3, 98880, Note_off_c, 0, 61, 80
3, 98880, Note_off_c, 0, 57, 80
3, 98880, Note_off_c, 0, 52, 80
3, 98880, Note_off_c, 0, 45, 80
3, 98880, Note_on_c, 0, 69, 95
3, 98880, Note_on_c, 0, 64, 95
3, 98880, Note_on_c, 0, 61, 95
3, 98880, Note_on_c, 0, 57, 95
3, 98880, Note_on_c, 0, 52, 95
3, 98880, Note_on_c, 0, 45, 95
3, 99000, Note_off_c, 0, 69, 80
3, 99000, Note_off_c, 0, 64, 80
3, 99000, Note_off_c, 0, 61, 80
3, 99000, Note_off_c, 0, 57, 80
3, 99000, Note_off_c, 0, 52, 80
3, 99000, Note_off_c, 0, 45, 80
3, 99000, Note_on_c, 0, 69, 95
3, 99000, Note_on_c, 0, 64, 95
3, 99000, Note_on_c, 0, 61, 95
3, 99000, Note_on_c, 0, 57, 95
3, 99000, Note_on_c, 0, 52, 95
3, 99000, Note_on_c, 0, 45, 95
3, 99120, Note_off_c, 0, 69, 80
3, 99120, Note_off_c, 0, 64, 80
3, 99120, Note_off_c, 0, 61, 80
3, 99120, Note_off_c, 0, 57, 80
3, 99120, Note_off_c, 0, 52, 80
3, 99120, Note_off_c, 0, 45, 80
3, 99120, Note_on_c, 0, 69, 95
3, 99120, Note_on_c, 0, 64, 95
3, 99120, Note_on_c, 0, 61, 95
3, 99120, Note_on_c, 0, 57, 95
3, 99120, Note_on_c, 0, 52, 95
3, 99120, Note_on_c, 0, 45, 95
3, 99240, Note_off_c, 0, 69, 80
3, 99240, Note_off_c, 0, 64, 80
3, 99240, Note_off_c, 0, 61, 80
3, 99240, Note_off_c, 0, 57, 80
3, 99240, Note_off_c, 0, 52, 80
3, 99240, Note_off_c, 0, 45, 80
3, 99240, Note_on_c, 1, 68, 95
3, 99240, Note_on_c, 1, 63, 95
3, 99240, Note_on_c, 1, 60, 95
3, 99240, Note_on_c, 1, 56, 95
3, 99240, Note_on_c, 1, 51, 95
3, 99240, Note_on_c, 1, 44, 95
3, 99336, Pitch_bend_c, 1, 8832
3, 99336, Pitch_bend_c, 1, 8832
3, 99336, Pitch_bend_c, 1, 8832
3, 99336, Pitch_bend_c, 1, 8832
3, 99336, Pitch_bend_c, 1, 8832
3, 99336, Pitch_bend_c, 1, 8832
3, 99360, Note_off_c, 1, 68, 80
3, 99360, Pitch_bend_c, 1, 8192
3, 99360, Note_off_c, 1, 63, 80
3, 99360, Pitch_bend_c, 1, 8192
3, 99360, Note_off_c, 1, 60, 80
3, 99360, Pitch_bend_c, 1, 8192
3, 99360, Note_off_c, 1, 56, 80
3, 99360, Pitch_bend_c, 1, 8192
3, 99360, Note_off_c, 1, 51, 80
3, 99360, Pitch_bend_c, 1, 8192
3, 99360, Note_off_c, 1, 44, 80
3, 99360, Pitch_bend_c, 1, 8192
3, 99360, Note_on_c, 0, 69, 76
3, 99360, Note_on_c, 0, 64, 76
3, 99360, Note_on_c, 0, 61, 76
3, 99360, Note_on_c, 0, 57, 76
3, 99360, Note_on_c, 0, 52, 76
3, 99360, Note_on_c, 0, 45, 76
3, 99480, Note_off_c, 0, 69, 80
3, 99480, Note_off_c, 0, 64, 80
3, 99480, Note_off_c, 0, 61, 80
3, 99480, Note_off_c, 0, 57, 80
3, 99480, Note_off_c, 0, 52, 80
3, 99480, Note_off_c, 0, 45, 80
3, 99480, Note_on_c, 0, 69, 95
3, 99480, Note_on_c, 0, 64, 95
3, 99480, Note_on_c, 0, 61, 95
3, 99480, Note_on_c, 0, 57, 95
3, 99480, Note_on_c, 0, 52, 95
3, 99480, Note_on_c, 0, 45, 95
3, 99600, Note_off_c, 0, 69, 80
3, 99600, Note_off_c, 0, 64, 80
3, 99600, Note_off_c, 0, 61, 80
3, 99600, Note_off_c, 0, 57, 80
3, 99600, Note_off_c, 0, 52, 80
3, 99600, Note_off_c, 0, 45, 80
3, 99600, Note_on_c, 0, 69, 95
3, 99600, Note_on_c, 0, 64, 95
3, 99600, Note_on_c, 0, 61, 95
3, 99600, Note_on_c, 0, 57, 95
3, 99600, Note_on_c, 0, 52, 95
3, 99600, Note_on_c, 0, 45, 95
3, 99720, Note_off_c, 0, 69, 80
3, 99720, Note_off_c, 0, 64, 80
3, 99720, Note_off_c, 0, 61, 80
3, 99720, Note_off_c, 0, 57, 80
3, 99720, Note_off_c, 0, 52, 80
3, 99720, Note_off_c, 0, 45, 80
3, 99720, Note_on_c, 0, 55, 95
3, 99720, Note_on_c, 0, 50, 95
3, 99720, Note_on_c, 0, 45, 95
3, 99720, Note_on_c, 0, 40, 95
3, 99840, Note_off_c, 0, 55, 80
3, 99840, Note_off_c, 0, 50, 80
3, 99840, Note_off_c, 0, 45, 80
3, 99840, Note_off_c, 0, 40, 80
3, 99840, Note_on_c, 0, 64, 95
3, 99840, Note_on_c, 0, 59, 95
3, 99840, Note_on_c, 0, 56, 95
3, 99840, Note_on_c, 0, 52, 95
3, 99840, Note_on_c, 0, 47, 95
3, 99840, Note_on_c, 0, 40, 95
3, 100080, Note_off_c, 0, 64, 80
3, 100080, Note_off_c, 0, 59, 80
3, 100080, Note_off_c, 0, 56, 80
3, 100080, Note_off_c, 0, 52, 80
3, 100080, Note_off_c, 0, 47, 80
3, 100080, Note_off_c, 0, 40, 80
3, 100080, Note_on_c, 0, 64, 95
3, 100080, Note_on_c, 0, 59, 95
3, 100080, Note_on_c, 0, 56, 95
3, 100080, Note_on_c, 0, 52, 95
3, 100080, Note_on_c, 0, 47, 95
3, 100080, Note_on_c, 0, 40, 95
3, 100100, Note_off_c, 0, 64, 80
3, 100100, Note_off_c, 0, 59, 80
3, 100320, Note_off_c, 0, 56, 80
3, 100320, Note_off_c, 0, 52, 80
3, 100320, Note_off_c, 0, 47, 80
3, 100320, Note_off_c, 0, 40, 80
3, 100320, Note_on_c, 0, 64, 95
3, 100320, Note_on_c, 0, 59, 95
3, 100320, Note_on_c, 0, 56, 95
3, 100320, Note_on_c, 0, 52, 95
3, 100320, Note_on_c, 0, 47, 95
3, 100320, Note_on_c, 0, 40, 95
3, 100560, Note_off_c, 0, 64, 80
3, 100560, Note_off_c, 0, 59, 80
3, 100560, Note_off_c, 0, 56, 80
3, 100560, Note_off_c, 0, 52, 80
3, 100560, Note_off_c, 0, 47, 80
3, 100560, Note_off_c, 0, 40, 80
3, 100560, Note_on_c, 0, 64, 95
3, 100560, Note_on_c, 0, 59, 95
3, 100560, Note_on_c, 0, 56, 95
3, 100560, Note_on_c, 0, 52, 95
3, 100560, Note_on_c, 0, 47, 95
3, 100560, Note_on_c, 0, 40, 95
3, 100680, Note_off_c, 0, 64, 80
3, 100680, Note_off_c, 0, 59, 80
3, 100680, Note_off_c, 0, 56, 80
3, 100680, Note_off_c, 0, 52, 80
3, 100680, Note_off_c, 0, 47, 80
3, 100680, Note_off_c, 0, 40, 80
3, 100680, Note_on_c, 0, 55, 95
3, 100680, Note_on_c, 0, 50, 95
3, 100680, Note_on_c, 0, 45, 95
3, 100800, Note_off_c, 0, 55, 80
3, 100800, Note_off_c, 0, 50, 80
3, 100800, Note_off_c, 0, 45, 80
3, 100800, Note_on_c, 0, 68, 95
3, 100800, Note_on_c, 0, 64, 95
3, 100800, Note_on_c, 0, 61, 95
3, 100800, Note_on_c, 0, 56, 95
3, 100800, Note_on_c, 0, 49, 95
3, 100800, Note_on_c, 0, 44, 95
3, 101040, Note_off_c, 0, 68, 80
3, 101040, Note_off_c, 0, 64, 80
3, 101040, Note_off_c, 0, 61, 80
3, 101040, Note_off_c, 0, 56, 80
3, 101040, Note_off_c, 0, 49, 80
3, 101040, Note_off_c, 0, 44, 80
3, 101040, Note_on_c, 0, 68, 95
3, 101040, Note_on_c, 0, 64, 95
3, 101040, Note_on_c, 0, 61, 95
3, 101040, Note_on_c, 0, 56, 95
3, 101040, Note_on_c, 0, 49, 95
3, 101040, Note_on_c, 0, 44, 95
3, 101060, Note_off_c, 0, 68, 80
3, 101280, Note_off_c, 0, 64, 80
3, 101280, Note_off_c, 0, 61, 80
3, 101280, Note_off_c, 0, 56, 80
3, 101280, Note_off_c, 0, 49, 80
3, 101280, Note_off_c, 0, 44, 80
3, 101280, Note_on_c, 0, 68, 95
3, 101280, Note_on_c, 0, 64, 95
3, 101280, Note_on_c, 0, 61, 95
3, 101280, Note_on_c, 0, 56, 95
3, 101280, Note_on_c, 0, 49, 95
3, 101280, Note_on_c, 0, 44, 95
3, 101520, Note_off_c, 0, 68, 80
3, 101520, Note_off_c, 0, 64, 80
3, 101520, Note_off_c, 0, 61, 80
3, 101520, Note_off_c, 0, 56, 80
3, 101520, Note_off_c, 0, 49, 80
3, 101520, Note_off_c, 0, 44, 80
3, 101520, Note_on_c, 0, 68, 95
3, 101520, Note_on_c, 0, 64, 95
3, 101520, Note_on_c, 0, 61, 95
3, 101520, Note_on_c, 0, 56, 95
3, 101520, Note_on_c, 0, 49, 95
3, 101520, Note_on_c, 0, 44, 95
3, 101640, Note_off_c, 0, 68, 80
3, 101640, Note_off_c, 0, 64, 80
3, 101640, Note_off_c, 0, 61, 80
3, 101640, Note_off_c, 0, 56, 80
3, 101640, Note_off_c, 0, 49, 80
3, 101640, Note_off_c, 0, 44, 80
3, 101640, Note_on_c, 0, 50, 95
3, 101640, Note_on_c, 0, 45, 95
3, 101640, Note_on_c, 0, 40, 95
3, 101760, Note_off_c, 0, 50, 80
3, 101760, Note_off_c, 0, 45, 80
3, 101760, Note_off_c, 0, 40, 80
3, 101760, Note_on_c, 0, 68, 95
3, 101760, Note_on_c, 0, 63, 95
3, 101760, Note_on_c, 0, 60, 95
3, 101760, Note_on_c, 0, 56, 95
3, 101760, Note_on_c, 0, 51, 95
3, 101760, Note_on_c, 0, 44, 95
3, 102000, Note_off_c, 0, 68, 80
3, 102000, Note_off_c, 0, 63, 80
3, 102000, Note_off_c, 0, 60, 80
3, 102000, Note_off_c, 0, 56, 80
3, 102000, Note_off_c, 0, 51, 80
3, 102000, Note_off_c, 0, 44, 80
3, 102000, Note_on_c, 0, 68, 95
3, 102000, Note_on_c, 0, 63, 95
3, 102000, Note_on_c, 0, 60, 95
3, 102000, Note_on_c, 0, 56, 95
3, 102000, Note_on_c, 0, 51, 95
3, 102000, Note_on_c, 0, 44, 95
3, 102020, Note_off_c, 0, 68, 80
3, 102240, Note_off_c, 0, 63, 80
3, 102240, Note_off_c, 0, 60, 80
3, 102240, Note_off_c, 0, 56, 80
3, 102240, Note_off_c, 0, 51, 80
3, 102240, Note_off_c, 0, 44, 80
3, 102240, Note_on_c, 0, 68, 95
3, 102240, Note_on_c, 0, 63, 95
3, 102240, Note_on_c, 0, 60, 95
3, 102240, Note_on_c, 0, 56, 95
3, 102240, Note_on_c, 0, 51, 95
3, 102240, Note_on_c, 0, 44, 95
3, 102480, Note_off_c, 0, 68, 80
3, 102480, Note_off_c, 0, 63, 80
3, 102480, Note_off_c, 0, 60, 80
3, 102480, Note_off_c, 0, 56, 80
3, 102480, Note_off_c, 0, 51, 80
3, 102480, Note_off_c, 0, 44, 80
3, 102480, Note_on_c, 1, 68, 95
3, 102480, Note_on_c, 1, 63, 95
3, 102480, Note_on_c, 1, 60, 95
3, 102480, Note_on_c, 1, 56, 95
3, 102480, Note_on_c, 1, 51, 95
3, 102480, Note_on_c, 1, 44, 95
3, 102576, Pitch_bend_c, 1, 8832
3, 102576, Pitch_bend_c, 1, 8832
3, 102576, Pitch_bend_c, 1, 8832
3, 102576, Pitch_bend_c, 1, 8832
3, 102576, Pitch_bend_c, 1, 8832
3, 102576, Pitch_bend_c, 1, 8832
3, 102600, Note_off_c, 1, 68, 80
3, 102600, Pitch_bend_c, 1, 8192
3, 102600, Note_off_c, 1, 63, 80
3, 102600, Pitch_bend_c, 1, 8192
3, 102600, Note_off_c, 1, 60, 80
3, 102600, Pitch_bend_c, 1, 8192
3, 102600, Note_off_c, 1, 56, 80
3, 102600, Pitch_bend_c, 1, 8192
3, 102600, Note_off_c, 1, 51, 80
3, 102600, Pitch_bend_c, 1, 8192
3, 102600, Note_off_c, 1, 44, 80
3, 102600, Pitch_bend_c, 1, 8192
3, 102600, Note_on_c, 0, 69, 76
3, 102600, Note_on_c, 0, 64, 76
3, 102600, Note_on_c, 0, 61, 76
3, 102600, Note_on_c, 0, 57, 76
3, 102600, Note_on_c, 0, 52, 76
3, 102600, Note_on_c, 0, 45, 76
3, 102720, Note_off_c, 0, 69, 80
3, 102720, Note_off_c, 0, 64, 80
3, 102720, Note_off_c, 0, 61, 80
3, 102720, Note_off_c, 0, 57, 80
3, 102720, Note_off_c, 0, 52, 80
3, 102720, Note_off_c, 0, 45, 80
3, 102720, Note_on_c, 0, 69, 95
3, 102720, Note_on_c, 0, 64, 95
3, 102720, Note_on_c, 0, 61, 95
3, 102720, Note_on_c, 0, 57, 95
3, 102720, Note_on_c, 0, 52, 95
3, 102720, Note_on_c, 0, 45, 95
3, 102840, Note_off_c, 0, 69, 80
3, 102840, Note_off_c, 0, 64, 80
3, 102840, Note_off_c, 0, 61, 80
3, 102840, Note_off_c, 0, 57, 80
3, 102840, Note_off_c, 0, 52, 80
3, 102840, Note_off_c, 0, 45, 80
3, 102840, Note_on_c, 0, 69, 95
3, 102840, Note_on_c, 0, 64, 95
3, 102840, Note_on_c, 0, 61, 95
3, 102840, Note_on_c, 0, 57, 95
3, 102840, Note_on_c, 0, 52, 95
3, 102840, Note_on_c, 0, 45, 95
3, 102960, Note_off_c, 0, 69, 80
3, 102960, Note_off_c, 0, 64, 80
3, 102960, Note_off_c, 0, 61, 80
3, 102960, Note_off_c, 0, 57, 80
3, 102960, Note_off_c, 0, 52, 80
3, 102960, Note_off_c, 0, 45, 80
3, 102960, Note_on_c, 0, 69, 95
3, 102960, Note_on_c, 0, 64, 95
3, 102960, Note_on_c, 0, 61, 95
3, 102960, Note_on_c, 0, 57, 95
3, 102960, Note_on_c, 0, 52, 95
3, 102960, Note_on_c, 0, 45, 95
3, 103080, Note_off_c, 0, 69, 80
3, 103080, Note_off_c, 0, 64, 80
3, 103080, Note_off_c, 0, 61, 80
3, 103080, Note_off_c, 0, 57, 80
3, 103080, Note_off_c, 0, 52, 80
3, 103080, Note_off_c, 0, 45, 80
3, 103080, Note_on_c, 1, 68, 95
3, 103080, Note_on_c, 1, 63, 95
3, 103080, Note_on_c, 1, 60, 95
3, 103080, Note_on_c, 1, 56, 95
3, 103080, Note_on_c, 1, 51, 95
3, 103080, Note_on_c, 1, 44, 95
3, 103176, Pitch_bend_c, 1, 8832
3, 103176, Pitch_bend_c, 1, 8832
3, 103176, Pitch_bend_c, 1, 8832
3, 103176, Pitch_bend_c, 1, 8832
3, 103176, Pitch_bend_c, 1, 8832
3, 103176, Pitch_bend_c, 1, 8832
3, 103200, Note_off_c, 1, 68, 80
3, 103200, Pitch_bend_c, 1, 8192
3, 103200, Note_off_c, 1, 63, 80
3, 103200, Pitch_bend_c, 1, 8192
3, 103200, Note_off_c, 1, 60, 80
3, 103200, Pitch_bend_c, 1, 8192
3, 103200, Note_off_c, 1, 56, 80
3, 103200, Pitch_bend_c, 1, 8192
3, 103200, Note_off_c, 1, 51, 80
3, 103200, Pitch_bend_c, 1, 8192
3, 103200, Note_off_c, 1, 44, 80
3, 103200, Pitch_bend_c, 1, 8192
3, 103200, Note_on_c, 0, 69, 76
3, 103200, Note_on_c, 0, 64, 76
3, 103200, Note_on_c, 0, 61, 76
3, 103200, Note_on_c, 0, 57, 76
3, 103200, Note_on_c, 0, 52, 76
3, 103200, Note_on_c, 0, 45, 76
3, 103320, Note_off_c, 0, 69, 80
3, 103320, Note_off_c, 0, 64, 80
3, 103320, Note_off_c, 0, 61, 80
3, 103320, Note_off_c, 0, 57, 80
3, 103320, Note_off_c, 0, 52, 80
3, 103320, Note_off_c, 0, 45, 80
3, 103320, Note_on_c, 0, 69, 95
3, 103320, Note_on_c, 0, 64, 95
3, 103320, Note_on_c, 0, 61, 95
3, 103320, Note_on_c, 0, 57, 95
3, 103320, Note_on_c, 0, 52, 95
3, 103320, Note_on_c, 0, 45, 95
3, 103440, Note_off_c, 0, 69, 80
3, 103440, Note_off_c, 0, 64, 80
3, 103440, Note_off_c, 0, 61, 80
3, 103440, Note_off_c, 0, 57, 80
3, 103440, Note_off_c, 0, 52, 80
3, 103440, Note_off_c, 0, 45, 80
3, 103440, Note_on_c, 0, 69, 95
3, 103440, Note_on_c, 0, 64, 95
3, 103440, Note_on_c, 0, 61, 95
3, 103440, Note_on_c, 0, 57, 95
3, 103440, Note_on_c, 0, 52, 95
3, 103440, Note_on_c, 0, 45, 95
3, 103560, Note_off_c, 0, 69, 80
3, 103560, Note_off_c, 0, 64, 80
3, 103560, Note_off_c, 0, 61, 80
3, 103560, Note_off_c, 0, 57, 80
3, 103560, Note_off_c, 0, 52, 80
3, 103560, Note_off_c, 0, 45, 80
3, 103560, Note_on_c, 0, 55, 95
3, 103560, Note_on_c, 0, 50, 95
3, 103560, Note_on_c, 0, 45, 95
3, 103560, Note_on_c, 0, 40, 95
3, 103680, Note_off_c, 0, 55, 80
3, 103680, Note_off_c, 0, 50, 80
3, 103680, Note_off_c, 0, 45, 80
3, 103680, Note_off_c, 0, 40, 80
3, 103680, Note_on_c, 0, 64, 95
3, 103680, Note_on_c, 0, 59, 95
3, 103680, Note_on_c, 0, 56, 95
3, 103680, Note_on_c, 0, 52, 95
3, 103680, Note_on_c, 0, 47, 95
3, 103680, Note_on_c, 0, 40, 95
3, 103920, Note_off_c, 0, 64, 80
3, 103920, Note_off_c, 0, 59, 80
3, 103920, Note_off_c, 0, 56, 80
3, 103920, Note_off_c, 0, 52, 80
3, 103920, Note_off_c, 0, 47, 80
3, 103920, Note_off_c, 0, 40, 80
3, 103920, Note_on_c, 0, 64, 95
3, 103920, Note_on_c, 0, 59, 95
3, 103920, Note_on_c, 0, 56, 95
3, 103920, Note_on_c, 0, 52, 95
3, 103920, Note_on_c, 0, 47, 95
3, 103920, Note_on_c, 0, 40, 95
3, 103940, Note_off_c, 0, 64, 80
3, 103940, Note_off_c, 0, 59, 80
3, 104160, Note_off_c, 0, 56, 80
3, 104160, Note_off_c, 0, 52, 80
3, 104160, Note_off_c, 0, 47, 80
3, 104160, Note_off_c, 0, 40, 80
3, 104160, Note_on_c, 0, 64, 95
3, 104160, Note_on_c, 0, 59, 95
3, 104160, Note_on_c, 0, 56, 95
3, 104160, Note_on_c, 0, 52, 95
3, 104160, Note_on_c, 0, 47, 95
3, 104160, Note_on_c, 0, 40, 95
3, 104400, Note_off_c, 0, 64, 80
3, 104400, Note_off_c, 0, 59, 80
3, 104400, Note_off_c, 0, 56, 80
3, 104400, Note_off_c, 0, 52, 80
3, 104400, Note_off_c, 0, 47, 80
3, 104400, Note_off_c, 0, 40, 80
3, 104400, Note_on_c, 0, 64, 95
3, 104400, Note_on_c, 0, 59, 95
3, 104400, Note_on_c, 0, 56, 95
3, 104400, Note_on_c, 0, 52, 95
3, 104400, Note_on_c, 0, 47, 95
3, 104400, Note_on_c, 0, 40, 95
3, 104520, Note_off_c, 0, 64, 80
3, 104520, Note_off_c, 0, 59, 80
3, 104520, Note_off_c, 0, 56, 80
3, 104520, Note_off_c, 0, 52, 80
3, 104520, Note_off_c, 0, 47, 80
3, 104520, Note_off_c, 0, 40, 80
3, 104520, Note_on_c, 0, 55, 95
3, 104520, Note_on_c, 0, 50, 95
3, 104520, Note_on_c, 0, 45, 95
3, 104640, Note_off_c, 0, 55, 80
3, 104640, Note_off_c, 0, 50, 80
3, 104640, Note_off_c, 0, 45, 80
3, 104640, Note_on_c, 0, 68, 95
3, 104640, Note_on_c, 0, 64, 95
3, 104640, Note_on_c, 0, 61, 95
3, 104640, Note_on_c, 0, 56, 95
3, 104640, Note_on_c, 0, 49, 95
3, 104640, Note_on_c, 0, 44, 95
3, 104880, Note_off_c, 0, 68, 80
3, 104880, Note_off_c, 0, 64, 80
3, 104880, Note_off_c, 0, 61, 80
3, 104880, Note_off_c, 0, 56, 80
3, 104880, Note_off_c, 0, 49, 80
3, 104880, Note_off_c, 0, 44, 80
3, 104880, Note_on_c, 0, 68, 95
3, 104880, Note_on_c, 0, 64, 95
3, 104880, Note_on_c, 0, 61, 95
3, 104880, Note_on_c, 0, 56, 95
3, 104880, Note_on_c, 0, 49, 95
3, 104880, Note_on_c, 0, 44, 95
3, 104900, Note_off_c, 0, 68, 80
3, 105120, Note_off_c, 0, 64, 80
3, 105120, Note_off_c, 0, 61, 80
3, 105120, Note_off_c, 0, 56, 80
3, 105120, Note_off_c, 0, 49, 80
3, 105120, Note_off_c, 0, 44, 80
3, 105120, Note_on_c, 0, 68, 95
3, 105120, Note_on_c, 0, 64, 95
3, 105120, Note_on_c, 0, 61, 95
3, 105120, Note_on_c, 0, 56, 95
3, 105120, Note_on_c, 0, 49, 95
3, 105120, Note_on_c, 0, 44, 95
3, 105360, Note_off_c, 0, 68, 80
3, 105360, Note_off_c, 0, 64, 80
3, 105360, Note_off_c, 0, 61, 80
3, 105360, Note_off_c, 0, 56, 80
3, 105360, Note_off_c, 0, 49, 80
3, 105360, Note_off_c, 0, 44, 80
3, 105360, Note_on_c, 0, 68, 95
3, 105360, Note_on_c, 0, 64, 95
3, 105360, Note_on_c, 0, 61, 95
3, 105360, Note_on_c, 0, 56, 95
3, 105360, Note_on_c, 0, 49, 95
3, 105360, Note_on_c, 0, 44, 95
3, 105480, Note_off_c, 0, 68, 80
3, 105480, Note_off_c, 0, 64, 80
3, 105480, Note_off_c, 0, 61, 80
3, 105480, Note_off_c, 0, 56, 80
3, 105480, Note_off_c, 0, 49, 80
3, 105480, Note_off_c, 0, 44, 80
3, 105480, Note_on_c, 0, 50, 95
3, 105480, Note_on_c, 0, 45, 95
3, 105480, Note_on_c, 0, 40, 95
3, 105600, Note_off_c, 0, 50, 80
3, 105600, Note_off_c, 0, 45, 80
3, 105600, Note_off_c, 0, 40, 80
3, 105600, Note_on_c, 0, 68, 95
3, 105600, Note_on_c, 0, 63, 95
3, 105600, Note_on_c, 0, 60, 95
3, 105600, Note_on_c, 0, 56, 95
3, 105600, Note_on_c, 0, 51, 95
3, 105600, Note_on_c, 0, 44, 95
3, 105840, Note_off_c, 0, 68, 80
3, 105840, Note_off_c, 0, 63, 80
3, 105840, Note_off_c, 0, 60, 80
3, 105840, Note_off_c, 0, 56, 80
3, 105840, Note_off_c, 0, 51, 80
3, 105840, Note_off_c, 0, 44, 80
3, 105840, Note_on_c, 0, 68, 95
3, 105840, Note_on_c, 0, 63, 95
3, 105840, Note_on_c, 0, 60, 95
3, 105840, Note_on_c, 0, 56, 95
3, 105840, Note_on_c, 0, 51, 95
3, 105840, Note_on_c, 0, 44, 95
3, 105860, Note_off_c, 0, 68, 80
3, 106080, Note_off_c, 0, 63, 80
3, 106080, Note_off_c, 0, 60, 80
3, 106080, Note_off_c, 0, 56, 80
3, 106080, Note_off_c, 0, 51, 80
3, 106080, Note_off_c, 0, 44, 80
3, 106080, Note_on_c, 0, 68, 95
3, 106080, Note_on_c, 0, 63, 95
3, 106080, Note_on_c, 0, 60, 95
3, 106080, Note_on_c, 0, 56, 95
3, 106080, Note_on_c, 0, 51, 95
3, 106080, Note_on_c, 0, 44, 95
3, 106320, Note_off_c, 0, 68, 80
3, 106320, Note_off_c, 0, 63, 80
3, 106320, Note_off_c, 0, 60, 80
3, 106320, Note_off_c, 0, 56, 80
3, 106320, Note_off_c, 0, 51, 80
3, 106320, Note_off_c, 0, 44, 80
3, 106320, Note_on_c, 1, 68, 95
3, 106320, Note_on_c, 1, 63, 95
3, 106320, Note_on_c, 1, 60, 95
3, 106320, Note_on_c, 1, 56, 95
3, 106320, Note_on_c, 1, 51, 95
3, 106320, Note_on_c, 1, 44, 95
3, 106416, Pitch_bend_c, 1, 8832
3, 106416, Pitch_bend_c, 1, 8832
3, 106416, Pitch_bend_c, 1, 8832
3, 106416, Pitch_bend_c, 1, 8832
3, 106416, Pitch_bend_c, 1, 8832
3, 106416, Pitch_bend_c, 1, 8832
3, 106440, Note_off_c, 1, 68, 80
3, 106440, Pitch_bend_c, 1, 8192
3, 106440, Note_off_c, 1, 63, 80
3, 106440, Pitch_bend_c, 1, 8192
3, 106440, Note_off_c, 1, 60, 80
3, 106440, Pitch_bend_c, 1, 8192
3, 106440, Note_off_c, 1, 56, 80
3, 106440, Pitch_bend_c, 1, 8192
3, 106440, Note_off_c, 1, 51, 80
3, 106440, Pitch_bend_c, 1, 8192
3, 106440, Note_off_c, 1, 44, 80
3, 106440, Pitch_bend_c, 1, 8192
3, 106440, Note_on_c, 0, 69, 76
3, 106440, Note_on_c, 0, 64, 76
3, 106440, Note_on_c, 0, 61, 76
3, 106440, Note_on_c, 0, 57, 76
3, 106440, Note_on_c, 0, 52, 76
3, 106440, Note_on_c, 0, 45, 76
3, 106560, Note_off_c, 0, 69, 80
3, 106560, Note_off_c, 0, 64, 80
3, 106560, Note_off_c, 0, 61, 80
3, 106560, Note_off_c, 0, 57, 80
3, 106560, Note_off_c, 0, 52, 80
3, 106560, Note_off_c, 0, 45, 80
3, 106560, Note_on_c, 0, 69, 95
3, 106560, Note_on_c, 0, 64, 95
3, 106560, Note_on_c, 0, 61, 95
3, 106560, Note_on_c, 0, 57, 95
3, 106560, Note_on_c, 0, 52, 95
3, 106560, Note_on_c, 0, 45, 95
3, 106680, Note_off_c, 0, 69, 80
3, 106680, Note_off_c, 0, 64, 80
3, 106680, Note_off_c, 0, 61, 80
3, 106680, Note_off_c, 0, 57, 80
3, 106680, Note_off_c, 0, 52, 80
3, 106680, Note_off_c, 0, 45, 80
3, 106680, Note_on_c, 0, 69, 95
3, 106680, Note_on_c, 0, 64, 95
3, 106680, Note_on_c, 0, 61, 95
3, 106680, Note_on_c, 0, 57, 95
3, 106680, Note_on_c, 0, 52, 95
3, 106680, Note_on_c, 0, 45, 95
3, 106800, Note_off_c, 0, 69, 80
3, 106800, Note_off_c, 0, 64, 80
3, 106800, Note_off_c, 0, 61, 80
3, 106800, Note_off_c, 0, 57, 80
3, 106800, Note_off_c, 0, 52, 80
3, 106800, Note_off_c, 0, 45, 80
3, 106800, Note_on_c, 0, 69, 95
3, 106800, Note_on_c, 0, 64, 95
3, 106800, Note_on_c, 0, 61, 95
3, 106800, Note_on_c, 0, 57, 95
3, 106800, Note_on_c, 0, 52, 95
3, 106800, Note_on_c, 0, 45, 95
3, 106920, Note_off_c, 0, 69, 80
3, 106920, Note_off_c, 0, 64, 80
3, 106920, Note_off_c, 0, 61, 80
3, 106920, Note_off_c, 0, 57, 80
3, 106920, Note_off_c, 0, 52, 80
3, 106920, Note_off_c, 0, 45, 80
3, 106920, Note_on_c, 1, 68, 95
3, 106920, Note_on_c, 1, 63, 95
3, 106920, Note_on_c, 1, 60, 95
3, 106920, Note_on_c, 1, 56, 95
3, 106920, Note_on_c, 1, 51, 95
3, 106920, Note_on_c, 1, 44, 95
3, 107016, Pitch_bend_c, 1, 8832
3, 107016, Pitch_bend_c, 1, 8832
3, 107016, Pitch_bend_c, 1, 8832
3, 107016, Pitch_bend_c, 1, 8832
3, 107016, Pitch_bend_c, 1, 8832
3, 107016, Pitch_bend_c, 1, 8832
3, 107040, Note_off_c, 1, 68, 80
3, 107040, Pitch_bend_c, 1, 8192
3, 107040, Note_off_c, 1, 63, 80
3, 107040, Pitch_bend_c, 1, 8192
3, 107040, Note_off_c, 1, 60, 80
3, 107040, Pitch_bend_c, 1, 8192
3, 107040, Note_off_c, 1, 56, 80
3, 107040, Pitch_bend_c, 1, 8192
3, 107040, Note_off_c, 1, 51, 80
3, 107040, Pitch_bend_c, 1, 8192
3, 107040, Note_off_c, 1, 44, 80
3, 107040, Pitch_bend_c, 1, 8192
3, 107040, Note_on_c, 0, 69, 76
3, 107040, Note_on_c, 0, 64, 76
3, 107040, Note_on_c, 0, 61, 76
3, 107040, Note_on_c, 0, 57, 76
3, 107040, Note_on_c, 0, 52, 76
3, 107040, Note_on_c, 0, 45, 76
3, 107160, Note_off_c, 0, 69, 80
3, 107160, Note_off_c, 0, 64, 80
3, 107160, Note_off_c, 0, 61, 80
3, 107160, Note_off_c, 0, 57, 80
3, 107160, Note_off_c, 0, 52, 80
3, 107160, Note_off_c, 0, 45, 80
3, 107160, Note_on_c, 0, 69, 95
3, 107160, Note_on_c, 0, 64, 95
3, 107160, Note_on_c, 0, 61, 95
3, 107160, Note_on_c, 0, 57, 95
3, 107160, Note_on_c, 0, 52, 95
3, 107160, Note_on_c, 0, 45, 95
3, 107280, Note_off_c, 0, 69, 80
3, 107280, Note_off_c, 0, 64, 80
3, 107280, Note_off_c, 0, 61, 80
3, 107280, Note_off_c, 0, 57, 80
3, 107280, Note_off_c, 0, 52, 80
3, 107280, Note_off_c, 0, 45, 80
3, 107280, Note_on_c, 0, 69, 95
3, 107280, Note_on_c, 0, 64, 95
3, 107280, Note_on_c, 0, 61, 95
3, 107280, Note_on_c, 0, 57, 95
3, 107280, Note_on_c, 0, 52, 95
3, 107280, Note_on_c, 0, 45, 95
3, 107400, Note_off_c, 0, 69, 80
3, 107400, Note_off_c, 0, 64, 80
3, 107400, Note_off_c, 0, 61, 80
3, 107400, Note_off_c, 0, 57, 80
3, 107400, Note_off_c, 0, 52, 80
3, 107400, Note_off_c, 0, 45, 80
3, 107400, Note_on_c, 0, 55, 95
3, 107400, Note_on_c, 0, 50, 95
3, 107400, Note_on_c, 0, 45, 95
3, 107400, Note_on_c, 0, 40, 95
3, 107520, Note_off_c, 0, 55, 80
3, 107520, Note_off_c, 0, 50, 80
3, 107520, Note_off_c, 0, 45, 80
3, 107520, Note_off_c, 0, 40, 80
3, 107520, Note_on_c, 0, 64, 95
3, 107520, Note_on_c, 0, 59, 95
3, 107520, Note_on_c, 0, 56, 95
3, 107520, Note_on_c, 0, 52, 95
3, 107520, Note_on_c, 0, 47, 95
3, 107520, Note_on_c, 0, 40, 95
3, 107760, Note_off_c, 0, 64, 80
3, 107760, Note_off_c, 0, 59, 80
3, 107760, Note_off_c, 0, 56, 80
3, 107760, Note_off_c, 0, 52, 80
3, 107760, Note_off_c, 0, 47, 80
3, 107760, Note_off_c, 0, 40, 80
3, 107760, Note_on_c, 0, 64, 95
3, 107760, Note_on_c, 0, 59, 95
3, 107760, Note_on_c, 0, 56, 95
3, 107760, Note_on_c, 0, 52, 95
3, 107760, Note_on_c, 0, 47, 95
3, 107760, Note_on_c, 0, 40, 95
3, 107780, Note_off_c, 0, 64, 80
3, 107780, Note_off_c, 0, 59, 80
3, 108000, Note_off_c, 0, 56, 80
3, 108000, Note_off_c, 0, 52, 80
3, 108000, Note_off_c, 0, 47, 80
3, 108000, Note_off_c, 0, 40, 80
3, 108000, Note_on_c, 0, 64, 95
3, 108000, Note_on_c, 0, 59, 95
3, 108000, Note_on_c, 0, 56, 95
3, 108000, Note_on_c, 0, 52, 95
3, 108000, Note_on_c, 0, 47, 95
3, 108000, Note_on_c, 0, 40, 95
3, 108240, Note_off_c, 0, 64, 80
3, 108240, Note_off_c, 0, 59, 80
3, 108240, Note_off_c, 0, 56, 80
3, 108240, Note_off_c, 0, 52, 80
3, 108240, Note_off_c, 0, 47, 80
3, 108240, Note_off_c, 0, 40, 80
3, 108240, Note_on_c, 0, 64, 95
3, 108240, Note_on_c, 0, 59, 95
3, 108240, Note_on_c, 0, 56, 95
3, 108240, Note_on_c, 0, 52, 95
3, 108240, Note_on_c, 0, 47, 95
3, 108240, Note_on_c, 0, 40, 95
3, 108360, Note_off_c, 0, 64, 80
3, 108360, Note_off_c, 0, 59, 80
3, 108360, Note_off_c, 0, 56, 80
3, 108360, Note_off_c, 0, 52, 80
3, 108360, Note_off_c, 0, 47, 80
3, 108360, Note_off_c, 0, 40, 80
3, 108360, Note_on_c, 0, 55, 95
3, 108360, Note_on_c, 0, 50, 95
3, 108360, Note_on_c, 0, 45, 95
3, 108480, Note_off_c, 0, 55, 80
3, 108480, Note_off_c, 0, 50, 80
3, 108480, Note_off_c, 0, 45, 80
3, 108480, Note_on_c, 0, 68, 95
3, 108480, Note_on_c, 0, 63, 95
3, 108480, Note_on_c, 0, 60, 95
3, 108480, Note_on_c, 0, 56, 95
3, 108480, Note_on_c, 0, 51, 95
3, 108480, Note_on_c, 0, 44, 95
3, 108720, Note_off_c, 0, 68, 80
3, 108720, Note_off_c, 0, 63, 80
3, 108720, Note_off_c, 0, 60, 80
3, 108720, Note_off_c, 0, 56, 80
3, 108720, Note_off_c, 0, 51, 80
3, 108720, Note_off_c, 0, 44, 80
3, 108720, Note_on_c, 0, 68, 95
3, 108720, Note_on_c, 0, 63, 95
3, 108720, Note_on_c, 0, 60, 95
3, 108720, Note_on_c, 0, 56, 95
3, 108720, Note_on_c, 0, 51, 95
3, 108720, Note_on_c, 0, 44, 95
3, 108740, Note_off_c, 0, 68, 80
3, 108960, Note_off_c, 0, 63, 80
3, 108960, Note_off_c, 0, 60, 80
3, 108960, Note_off_c, 0, 56, 80
3, 108960, Note_off_c, 0, 51, 80
3, 108960, Note_off_c, 0, 44, 80
3, 108960, Note_on_c, 0, 68, 95
3, 108960, Note_on_c, 0, 63, 95
3, 108960, Note_on_c, 0, 60, 95
3, 108960, Note_on_c, 0, 56, 95
3, 108960, Note_on_c, 0, 51, 95
3, 108960, Note_on_c, 0, 44, 95
3, 109200, Note_off_c, 0, 68, 80
3, 109200, Note_off_c, 0, 63, 80
3, 109200, Note_off_c, 0, 60, 80
3, 109200, Note_off_c, 0, 56, 80
3, 109200, Note_off_c, 0, 51, 80
3, 109200, Note_off_c, 0, 44, 80
3, 109200, Note_on_c, 0, 68, 95
3, 109200, Note_on_c, 0, 63, 95
3, 109200, Note_on_c, 0, 60, 95
3, 109200, Note_on_c, 0, 56, 95
3, 109200, Note_on_c, 0, 51, 95
3, 109200, Note_on_c, 0, 44, 95
3, 109320, Note_off_c, 0, 68, 80
3, 109320, Note_off_c, 0, 63, 80
3, 109320, Note_off_c, 0, 60, 80
3, 109320, Note_off_c, 0, 56, 80
3, 109320, Note_off_c, 0, 51, 80
3, 109320, Note_off_c, 0, 44, 80
3, 109320, Note_on_c, 0, 50, 95
3, 109320, Note_on_c, 0, 45, 95
3, 109320, Note_on_c, 0, 40, 95
3, 109440, Note_off_c, 0, 50, 80
3, 109440, Note_off_c, 0, 45, 80
3, 109440, Note_off_c, 0, 40, 80
3, 109440, Note_on_c, 0, 69, 95
3, 109440, Note_on_c, 0, 64, 95
3, 109440, Note_on_c, 0, 61, 95
3, 109440, Note_on_c, 0, 57, 95
3, 109440, Note_on_c, 0, 52, 95
3, 109440, Note_on_c, 0, 45, 95
3, 109680, Note_off_c, 0, 69, 80
3, 109680, Note_off_c, 0, 64, 80
3, 109680, Note_off_c, 0, 61, 80
3, 109680, Note_off_c, 0, 57, 80
3, 109680, Note_off_c, 0, 52, 80
3, 109680, Note_off_c, 0, 45, 80
3, 109680, Note_on_c, 0, 69, 95
3, 109680, Note_on_c, 0, 64, 95
3, 109680, Note_on_c, 0, 61, 95
3, 109680, Note_on_c, 0, 57, 95
3, 109680, Note_on_c, 0, 52, 95
3, 109680, Note_on_c, 0, 45, 95
3, 109920, Note_off_c, 0, 69, 80
3, 109920, Note_off_c, 0, 64, 80
3, 109920, Note_off_c, 0, 61, 80
3, 109920, Note_off_c, 0, 57, 80
3, 109920, Note_off_c, 0, 52, 80
3, 109920, Note_off_c, 0, 45, 80
3, 109920, Note_on_c, 0, 69, 95
3, 109920, Note_on_c, 0, 64, 95
3, 109920, Note_on_c, 0, 61, 95
3, 109920, Note_on_c, 0, 57, 95
3, 109920, Note_on_c, 0, 52, 95
3, 109920, Note_on_c, 0, 45, 95
3, 110160, Note_off_c, 0, 69, 80
3, 110160, Note_off_c, 0, 64, 80
3, 110160, Note_off_c, 0, 61, 80
3, 110160, Note_off_c, 0, 57, 80
3, 110160, Note_off_c, 0, 52, 80
3, 110160, Note_off_c, 0, 45, 80
3, 110160, Note_on_c, 0, 69, 95
3, 110160, Note_on_c, 0, 64, 95
3, 110160, Note_on_c, 0, 61, 95
3, 110160, Note_on_c, 0, 57, 95
3, 110160, Note_on_c, 0, 52, 95
3, 110160, Note_on_c, 0, 45, 95
3, 110280, Note_off_c, 0, 69, 80
3, 110280, Note_off_c, 0, 64, 80
3, 110280, Note_off_c, 0, 61, 80
3, 110280, Note_off_c, 0, 57, 80
3, 110280, Note_off_c, 0, 52, 80
3, 110280, Note_off_c, 0, 45, 80
3, 110280, Note_on_c, 0, 55, 95
3, 110280, Note_on_c, 0, 50, 95
3, 110280, Note_on_c, 0, 45, 95
3, 110400, Note_off_c, 0, 55, 80
3, 110400, Note_off_c, 0, 50, 80
3, 110400, Note_off_c, 0, 45, 80
3, 110400, Note_on_c, 0, 69, 95
3, 110400, Note_on_c, 0, 64, 95
3, 110400, Note_on_c, 0, 60, 95
3, 110400, Note_on_c, 0, 57, 95
3, 110400, Note_on_c, 0, 52, 95
3, 110400, Note_on_c, 0, 45, 95
3, 110640, Note_off_c, 0, 69, 80
3, 110640, Note_off_c, 0, 64, 80
3, 110640, Note_off_c, 0, 60, 80
3, 110640, Note_off_c, 0, 57, 80
3, 110640, Note_off_c, 0, 52, 80
3, 110640, Note_off_c, 0, 45, 80
3, 110640, Note_on_c, 0, 69, 95
3, 110640, Note_on_c, 0, 64, 95
3, 110640, Note_on_c, 0, 60, 95
3, 110640, Note_on_c, 0, 57, 95
3, 110640, Note_on_c, 0, 52, 95
3, 110640, Note_on_c, 0, 45, 95
3, 110880, Note_off_c, 0, 69, 80
3, 110880, Note_off_c, 0, 64, 80
3, 110880, Note_off_c, 0, 60, 80
3, 110880, Note_off_c, 0, 57, 80
3, 110880, Note_off_c, 0, 52, 80
3, 110880, Note_off_c, 0, 45, 80
3, 110880, Note_on_c, 0, 69, 95
3, 110880, Note_on_c, 0, 64, 95
3, 110880, Note_on_c, 0, 60, 95
3, 110880, Note_on_c, 0, 57, 95
3, 110880, Note_on_c, 0, 52, 95
3, 110880, Note_on_c, 0, 45, 95
3, 111120, Note_off_c, 0, 69, 80
3, 111120, Note_off_c, 0, 64, 80
3, 111120, Note_off_c, 0, 60, 80
3, 111120, Note_off_c, 0, 57, 80
3, 111120, Note_off_c, 0, 52, 80
3, 111120, Note_off_c, 0, 45, 80
3, 111120, Note_on_c, 0, 69, 95
3, 111120, Note_on_c, 0, 64, 95
3, 111120, Note_on_c, 0, 60, 95
3, 111120, Note_on_c, 0, 57, 95
3, 111120, Note_on_c, 0, 52, 95
3, 111120, Note_on_c, 0, 45, 95
3, 111240, Note_off_c, 0, 69, 80
3, 111240, Note_off_c, 0, 64, 80
3, 111240, Note_off_c, 0, 60, 80
3, 111240, Note_off_c, 0, 57, 80
3, 111240, Note_off_c, 0, 52, 80
3, 111240, Note_off_c, 0, 45, 80
3, 111240, Note_on_c, 0, 50, 95
3, 111240, Note_on_c, 0, 45, 95
3, 111240, Note_on_c, 0, 40, 95
3, 111360, Note_off_c, 0, 50, 80
3, 111360, Note_off_c, 0, 45, 80
3, 111360, Note_off_c, 0, 40, 80
3, 111360, Note_on_c, 0, 73, 95
3, 111360, Note_on_c, 0, 68, 95
3, 111360, Note_on_c, 0, 64, 95
3, 111360, Note_on_c, 0, 61, 95
3, 111360, Note_on_c, 0, 56, 95
3, 111360, Note_on_c, 0, 49, 95
3, 113280, Note_off_c, 0, 73, 80
3, 113280, Note_off_c, 0, 68, 80
3, 113280, Note_off_c, 0, 64, 80
3, 113280, Note_off_c, 0, 61, 80
3, 113280, Note_off_c, 0, 56, 80
3, 113280, Note_off_c, 0, 49, 80
3, 113280, Note_on_c, 0, 71, 95
3, 113280, Note_on_c, 0, 66, 95
3, 113280, Note_on_c, 0, 63, 95
3, 113280, Note_on_c, 0, 59, 95
3, 113280, Note_on_c, 0, 54, 95
3, 113280, Note_on_c, 0, 47, 95
3, 113760, Note_off_c, 0, 71, 80
3, 113760, Note_off_c, 0, 66, 80
3, 113760, Note_off_c, 0, 63, 80
3, 113760, Note_off_c, 0, 59, 80
3, 113760, Note_off_c, 0, 54, 80
3, 113760, Note_off_c, 0, 47, 80
3, 113760, Note_on_c, 0, 71, 95
3, 113760, Note_on_c, 0, 66, 95
3, 113760, Note_on_c, 0, 63, 95
3, 113760, Note_on_c, 0, 59, 95
3, 113760, Note_on_c, 0, 54, 95
3, 113760, Note_on_c, 0, 47, 95
3, 114000, Note_off_c, 0, 71, 80
3, 114000, Note_off_c, 0, 66, 80
3, 114000, Note_off_c, 0, 63, 80
3, 114000, Note_off_c, 0, 59, 80
3, 114000, Note_off_c, 0, 54, 80
3, 114000, Note_off_c, 0, 47, 80
3, 114000, Note_on_c, 0, 71, 95
3, 114000, Note_on_c, 0, 66, 95
3, 114000, Note_on_c, 0, 63, 95
3, 114000, Note_on_c, 0, 59, 95
3, 114000, Note_on_c, 0, 54, 95
3, 114000, Note_on_c, 0, 47, 95
3, 114120, Note_off_c, 0, 71, 80
3, 114120, Note_off_c, 0, 66, 80
3, 114120, Note_off_c, 0, 63, 80
3, 114120, Note_off_c, 0, 59, 80
3, 114120, Note_off_c, 0, 54, 80
3, 114120, Note_off_c, 0, 47, 80
3, 114120, Note_on_c, 0, 71, 95
3, 114120, Note_on_c, 0, 66, 95
3, 114120, Note_on_c, 0, 63, 95
3, 114120, Note_on_c, 0, 59, 95
3, 114120, Note_on_c, 0, 54, 95
3, 114120, Note_on_c, 0, 47, 95
3, 114240, Note_off_c, 0, 54, 80
3, 114360, Note_off_c, 0, 71, 80
3, 114360, Note_off_c, 0, 66, 80
3, 114360, Note_off_c, 0, 63, 80
3, 114360, Note_off_c, 0, 59, 80
3, 114360, Note_off_c, 0, 47, 80
3, 114360, Note_on_c, 0, 71, 95
3, 114360, Note_on_c, 0, 66, 95
3, 114360, Note_on_c, 0, 63, 95
3, 114360, Note_on_c, 0, 59, 95
3, 114360, Note_on_c, 0, 54, 95
3, 114360, Note_on_c, 0, 47, 95
3, 114480, Note_off_c, 0, 71, 80
3, 114480, Note_off_c, 0, 66, 80
3, 114480, Note_off_c, 0, 63, 80
3, 114480, Note_off_c, 0, 59, 80
3, 114480, Note_off_c, 0, 54, 80
3, 114480, Note_off_c, 0, 47, 80
3, 114480, Note_on_c, 0, 71, 95
3, 114480, Note_on_c, 0, 66, 95
3, 114480, Note_on_c, 0, 63, 95
3, 114480, Note_on_c, 0, 59, 95
3, 114480, Note_on_c, 0, 54, 95
3, 114480, Note_on_c, 0, 47, 95
3, 114720, Note_off_c, 0, 71, 80
3, 114720, Note_off_c, 0, 66, 80
3, 114720, Note_off_c, 0, 63, 80
3, 114720, Note_off_c, 0, 59, 80
3, 114720, Note_off_c, 0, 54, 80
3, 114720, Note_off_c, 0, 47, 80
3, 114720, Note_on_c, 0, 71, 95
3, 114720, Note_on_c, 0, 66, 95
3, 114720, Note_on_c, 0, 63, 95
3, 114720, Note_on_c, 0, 59, 95
3, 114720, Note_on_c, 0, 54, 95
3, 114720, Note_on_c, 0, 47, 95
3, 114840, Note_off_c, 0, 71, 80
3, 114840, Note_off_c, 0, 66, 80
3, 114840, Note_off_c, 0, 63, 80
3, 114840, Note_off_c, 0, 59, 80
3, 114840, Note_off_c, 0, 54, 80
3, 114840, Note_off_c, 0, 47, 80
3, 114840, Note_on_c, 0, 71, 95
3, 114840, Note_on_c, 0, 66, 95
3, 114840, Note_on_c, 0, 63, 95
3, 114840, Note_on_c, 0, 59, 95
3, 114840, Note_on_c, 0, 54, 95
3, 114840, Note_on_c, 0, 47, 95
3, 114960, Note_off_c, 0, 71, 80
3, 114960, Note_off_c, 0, 66, 80
3, 114960, Note_off_c, 0, 63, 80
3, 114960, Note_off_c, 0, 59, 80
3, 114960, Note_off_c, 0, 54, 80
3, 114960, Note_off_c, 0, 47, 80
3, 114960, Note_on_c, 0, 71, 95
3, 114960, Note_on_c, 0, 66, 95
3, 114960, Note_on_c, 0, 63, 95
3, 114960, Note_on_c, 0, 59, 95
3, 114960, Note_on_c, 0, 54, 95
3, 114960, Note_on_c, 0, 47, 95
3, 115080, Note_off_c, 0, 71, 80
3, 115080, Note_off_c, 0, 66, 80
3, 115080, Note_off_c, 0, 63, 80
3, 115080, Note_off_c, 0, 59, 80
3, 115080, Note_off_c, 0, 54, 80
3, 115080, Note_off_c, 0, 47, 80
3, 115080, Note_on_c, 0, 50, 95
3, 115080, Note_on_c, 0, 45, 95
3, 115200, Note_off_c, 0, 50, 80
3, 115200, Note_off_c, 0, 45, 80
3, 115200, Note_on_c, 0, 64, 95
3, 115200, Note_on_c, 0, 59, 95
3, 115200, Note_on_c, 0, 56, 95
3, 115200, Note_on_c, 0, 52, 95
3, 115200, Note_on_c, 0, 47, 95
3, 115200, Note_on_c, 0, 40, 95
3, 115440, Note_off_c, 0, 64, 80
3, 115440, Note_off_c, 0, 59, 80
3, 115440, Note_off_c, 0, 56, 80
3, 115440, Note_off_c, 0, 52, 80
3, 115440, Note_off_c, 0, 47, 80
3, 115440, Note_off_c, 0, 40, 80
3, 115440, Note_on_c, 0, 64, 95
3, 115440, Note_on_c, 0, 59, 95
3, 115440, Note_on_c, 0, 56, 95
3, 115440, Note_on_c, 0, 52, 95
3, 115440, Note_on_c, 0, 47, 95
3, 115440, Note_on_c, 0, 40, 95
3, 115460, Note_off_c, 0, 64, 80
3, 115460, Note_off_c, 0, 59, 80
3, 115680, Note_off_c, 0, 56, 80
3, 115680, Note_off_c, 0, 52, 80
3, 115680, Note_off_c, 0, 47, 80
3, 115680, Note_off_c, 0, 40, 80
3, 115680, Note_on_c, 0, 64, 95
3, 115680, Note_on_c, 0, 59, 95
3, 115680, Note_on_c, 0, 56, 95
3, 115680, Note_on_c, 0, 52, 95
3, 115680, Note_on_c, 0, 47, 95
3, 115680, Note_on_c, 0, 40, 95
3, 115920, Note_off_c, 0, 64, 80
3, 115920, Note_off_c, 0, 59, 80
3, 115920, Note_off_c, 0, 56, 80
3, 115920, Note_off_c, 0, 52, 80
3, 115920, Note_off_c, 0, 47, 80
3, 115920, Note_off_c, 0, 40, 80
3, 115920, Note_on_c, 0, 64, 95
3, 115920, Note_on_c, 0, 59, 95
3, 115920, Note_on_c, 0, 56, 95
3, 115920, Note_on_c, 0, 52, 95
3, 115920, Note_on_c, 0, 47, 95
3, 115920, Note_on_c, 0, 40, 95
3, 116040, Note_off_c, 0, 64, 80
3, 116040, Note_off_c, 0, 59, 80
3, 116040, Note_off_c, 0, 56, 80
3, 116040, Note_off_c, 0, 52, 80
3, 116040, Note_off_c, 0, 47, 80
3, 116040, Note_off_c, 0, 40, 80
3, 116040, Note_on_c, 0, 55, 95
3, 116040, Note_on_c, 0, 50, 95
3, 116040, Note_on_c, 0, 45, 95
3, 116160, Note_off_c, 0, 55, 80
3, 116160, Note_off_c, 0, 50, 80
3, 116160, Note_off_c, 0, 45, 80
3, 116160, Note_on_c, 0, 68, 95
3, 116160, Note_on_c, 0, 64, 95
3, 116160, Note_on_c, 0, 61, 95
3, 116160, Note_on_c, 0, 56, 95
3, 116160, Note_on_c, 0, 49, 95
3, 116160, Note_on_c, 0, 44, 95
3, 116400, Note_off_c, 0, 68, 80
3, 116400, Note_off_c, 0, 64, 80
3, 116400, Note_off_c, 0, 61, 80
3, 116400, Note_off_c, 0, 56, 80
3, 116400, Note_off_c, 0, 49, 80
3, 116400, Note_off_c, 0, 44, 80
3, 116400, Note_on_c, 0, 68, 95
3, 116400, Note_on_c, 0, 64, 95
3, 116400, Note_on_c, 0, 61, 95
3, 116400, Note_on_c, 0, 56, 95
3, 116400, Note_on_c, 0, 49, 95
3, 116400, Note_on_c, 0, 44, 95
3, 116420, Note_off_c, 0, 68, 80
3, 116640, Note_off_c, 0, 64, 80
3, 116640, Note_off_c, 0, 61, 80
3, 116640, Note_off_c, 0, 56, 80
3, 116640, Note_off_c, 0, 49, 80
3, 116640, Note_off_c, 0, 44, 80
3, 116640, Note_on_c, 0, 68, 95
3, 116640, Note_on_c, 0, 64, 95
3, 116640, Note_on_c, 0, 61, 95
3, 116640, Note_on_c, 0, 56, 95
3, 116640, Note_on_c, 0, 49, 95
3, 116640, Note_on_c, 0, 44, 95
3, 116880, Note_off_c, 0, 68, 80
3, 116880, Note_off_c, 0, 64, 80
3, 116880, Note_off_c, 0, 61, 80
3, 116880, Note_off_c, 0, 56, 80
3, 116880, Note_off_c, 0, 49, 80
3, 116880, Note_off_c, 0, 44, 80
3, 116880, Note_on_c, 0, 68, 95
3, 116880, Note_on_c, 0, 64, 95
3, 116880, Note_on_c, 0, 61, 95
3, 116880, Note_on_c, 0, 56, 95
3, 116880, Note_on_c, 0, 49, 95
3, 116880, Note_on_c, 0, 44, 95
3, 117000, Note_off_c, 0, 68, 80
3, 117000, Note_off_c, 0, 64, 80
3, 117000, Note_off_c, 0, 61, 80
3, 117000, Note_off_c, 0, 56, 80
3, 117000, Note_off_c, 0, 49, 80
3, 117000, Note_off_c, 0, 44, 80
3, 117000, Note_on_c, 0, 50, 95
3, 117000, Note_on_c, 0, 45, 95
3, 117000, Note_on_c, 0, 40, 95
3, 117120, Note_off_c, 0, 50, 80
3, 117120, Note_off_c, 0, 45, 80
3, 117120, Note_off_c, 0, 40, 80
3, 117120, Note_on_c, 0, 68, 95
3, 117120, Note_on_c, 0, 63, 95
3, 117120, Note_on_c, 0, 60, 95
3, 117120, Note_on_c, 0, 56, 95
3, 117120, Note_on_c, 0, 51, 95
3, 117120, Note_on_c, 0, 44, 95
3, 117360, Note_off_c, 0, 68, 80
3, 117360, Note_off_c, 0, 63, 80
3, 117360, Note_off_c, 0, 60, 80
3, 117360, Note_off_c, 0, 56, 80
3, 117360, Note_off_c, 0, 51, 80
3, 117360, Note_off_c, 0, 44, 80
3, 117360, Note_on_c, 0, 68, 95
3, 117360, Note_on_c, 0, 63, 95
3, 117360, Note_on_c, 0, 60, 95
3, 117360, Note_on_c, 0, 56, 95
3, 117360, Note_on_c, 0, 51, 95
3, 117360, Note_on_c, 0, 44, 95
3, 117380, Note_off_c, 0, 68, 80
3, 117600, Note_off_c, 0, 63, 80
3, 117600, Note_off_c, 0, 60, 80
3, 117600, Note_off_c, 0, 56, 80
3, 117600, Note_off_c, 0, 51, 80
3, 117600, Note_off_c, 0, 44, 80
3, 117600, Note_on_c, 0, 68, 95
3, 117600, Note_on_c, 0, 63, 95
3, 117600, Note_on_c, 0, 60, 95
3, 117600, Note_on_c, 0, 56, 95
3, 117600, Note_on_c, 0, 51, 95
3, 117600, Note_on_c, 0, 44, 95
3, 117840, Note_off_c, 0, 68, 80
3, 117840, Note_off_c, 0, 63, 80
3, 117840, Note_off_c, 0, 60, 80
3, 117840, Note_off_c, 0, 56, 80
3, 117840, Note_off_c, 0, 51, 80
3, 117840, Note_off_c, 0, 44, 80
3, 117840, Note_on_c, 1, 68, 95
3, 117840, Note_on_c, 1, 63, 95
3, 117840, Note_on_c, 1, 60, 95
3, 117840, Note_on_c, 1, 56, 95
3, 117840, Note_on_c, 1, 51, 95
3, 117840, Note_on_c, 1, 44, 95
3, 117936, Pitch_bend_c, 1, 8832
3, 117936, Pitch_bend_c, 1, 8832
3, 117936, Pitch_bend_c, 1, 8832
3, 117936, Pitch_bend_c, 1, 8832
3, 117936, Pitch_bend_c, 1, 8832
3, 117936, Pitch_bend_c, 1, 8832
3, 117960, Note_off_c, 1, 68, 80
3, 117960, Pitch_bend_c, 1, 8192
3, 117960, Note_off_c, 1, 63, 80
3, 117960, Pitch_bend_c, 1, 8192
3, 117960, Note_off_c, 1, 60, 80
3, 117960, Pitch_bend_c, 1, 8192
3, 117960, Note_off_c, 1, 56, 80
3, 117960, Pitch_bend_c, 1, 8192
3, 117960, Note_off_c, 1, 51, 80
3, 117960, Pitch_bend_c, 1, 8192
3, 117960, Note_off_c, 1, 44, 80
3, 117960, Pitch_bend_c, 1, 8192
3, 117960, Note_on_c, 0, 69, 76
3, 117960, Note_on_c, 0, 64, 76
3, 117960, Note_on_c, 0, 61, 76
3, 117960, Note_on_c, 0, 57, 76
3, 117960, Note_on_c, 0, 52, 76
3, 117960, Note_on_c, 0, 45, 76
3, 118080, Note_off_c, 0, 69, 80
3, 118080, Note_off_c, 0, 64, 80
3, 118080, Note_off_c, 0, 61, 80
3, 118080, Note_off_c, 0, 57, 80
3, 118080, Note_off_c, 0, 52, 80
3, 118080, Note_off_c, 0, 45, 80
3, 118080, Note_on_c, 0, 69, 95
3, 118080, Note_on_c, 0, 64, 95
3, 118080, Note_on_c, 0, 61, 95
3, 118080, Note_on_c, 0, 57, 95
3, 118080, Note_on_c, 0, 52, 95
3, 118080, Note_on_c, 0, 45, 95
3, 118200, Note_off_c, 0, 69, 80
3, 118200, Note_off_c, 0, 64, 80
3, 118200, Note_off_c, 0, 61, 80
3, 118200, Note_off_c, 0, 57, 80
3, 118200, Note_off_c, 0, 52, 80
3, 118200, Note_off_c, 0, 45, 80
3, 118200, Note_on_c, 0, 69, 95
3, 118200, Note_on_c, 0, 64, 95
3, 118200, Note_on_c, 0, 61, 95
3, 118200, Note_on_c, 0, 57, 95
3, 118200, Note_on_c, 0, 52, 95
3, 118200, Note_on_c, 0, 45, 95
3, 118320, Note_off_c, 0, 69, 80
3, 118320, Note_off_c, 0, 64, 80
3, 118320, Note_off_c, 0, 61, 80
3, 118320, Note_off_c, 0, 57, 80
3, 118320, Note_off_c, 0, 52, 80
3, 118320, Note_off_c, 0, 45, 80
3, 118320, Note_on_c, 0, 69, 95
3, 118320, Note_on_c, 0, 64, 95
3, 118320, Note_on_c, 0, 61, 95
3, 118320, Note_on_c, 0, 57, 95
3, 118320, Note_on_c, 0, 52, 95
3, 118320, Note_on_c, 0, 45, 95
3, 118440, Note_off_c, 0, 69, 80
3, 118440, Note_off_c, 0, 64, 80
3, 118440, Note_off_c, 0, 61, 80
3, 118440, Note_off_c, 0, 57, 80
3, 118440, Note_off_c, 0, 52, 80
3, 118440, Note_off_c, 0, 45, 80
3, 118440, Note_on_c, 1, 68, 95
3, 118440, Note_on_c, 1, 63, 95
3, 118440, Note_on_c, 1, 60, 95
3, 118440, Note_on_c, 1, 56, 95
3, 118440, Note_on_c, 1, 51, 95
3, 118440, Note_on_c, 1, 44, 95
3, 118536, Pitch_bend_c, 1, 8832
3, 118536, Pitch_bend_c, 1, 8832
3, 118536, Pitch_bend_c, 1, 8832
3, 118536, Pitch_bend_c, 1, 8832
3, 118536, Pitch_bend_c, 1, 8832
3, 118536, Pitch_bend_c, 1, 8832
3, 118560, Note_off_c, 1, 68, 80
3, 118560, Pitch_bend_c, 1, 8192
3, 118560, Note_off_c, 1, 63, 80
3, 118560, Pitch_bend_c, 1, 8192
3, 118560, Note_off_c, 1, 60, 80
3, 118560, Pitch_bend_c, 1, 8192
3, 118560, Note_off_c, 1, 56, 80
3, 118560, Pitch_bend_c, 1, 8192
3, 118560, Note_off_c, 1, 51, 80
3, 118560, Pitch_bend_c, 1, 8192
3, 118560, Note_off_c, 1, 44, 80
3, 118560, Pitch_bend_c, 1, 8192
3, 118560, Note_on_c, 0, 69, 76
3, 118560, Note_on_c, 0, 64, 76
3, 118560, Note_on_c, 0, 61, 76
3, 118560, Note_on_c, 0, 57, 76
3, 118560, Note_on_c, 0, 52, 76
3, 118560, Note_on_c, 0, 45, 76
3, 118680, Note_off_c, 0, 69, 80
3, 118680, Note_off_c, 0, 64, 80
3, 118680, Note_off_c, 0, 61, 80
3, 118680, Note_off_c, 0, 57, 80
3, 118680, Note_off_c, 0, 52, 80
3, 118680, Note_off_c, 0, 45, 80
3, 118680, Note_on_c, 0, 69, 95
3, 118680, Note_on_c, 0, 64, 95
3, 118680, Note_on_c, 0, 61, 95
3, 118680, Note_on_c, 0, 57, 95
3, 118680, Note_on_c, 0, 52, 95
3, 118680, Note_on_c, 0, 45, 95
3, 118800, Note_off_c, 0, 69, 80
3, 118800, Note_off_c, 0, 64, 80
3, 118800, Note_off_c, 0, 61, 80
3, 118800, Note_off_c, 0, 57, 80
3, 118800, Note_off_c, 0, 52, 80
3, 118800, Note_off_c, 0, 45, 80
3, 118800, Note_on_c, 0, 69, 95
3, 118800, Note_on_c, 0, 64, 95
3, 118800, Note_on_c, 0, 61, 95
3, 118800, Note_on_c, 0, 57, 95
3, 118800, Note_on_c, 0, 52, 95
3, 118800, Note_on_c, 0, 45, 95
3, 118920, Note_off_c, 0, 69, 80
3, 118920, Note_off_c, 0, 64, 80
3, 118920, Note_off_c, 0, 61, 80
3, 118920, Note_off_c, 0, 57, 80
3, 118920, Note_off_c, 0, 52, 80
3, 118920, Note_off_c, 0, 45, 80
3, 118920, Note_on_c, 0, 55, 95
3, 118920, Note_on_c, 0, 50, 95
3, 118920, Note_on_c, 0, 45, 95
3, 118920, Note_on_c, 0, 40, 95
3, 119040, Note_off_c, 0, 55, 80
3, 119040, Note_off_c, 0, 50, 80
3, 119040, Note_off_c, 0, 45, 80
3, 119040, Note_off_c, 0, 40, 80
3, 119040, Note_on_c, 0, 64, 95
3, 119040, Note_on_c, 0, 59, 95
3, 119040, Note_on_c, 0, 56, 95
3, 119040, Note_on_c, 0, 52, 95
3, 119040, Note_on_c, 0, 47, 95
3, 119040, Note_on_c, 0, 40, 95
3, 119280, Note_off_c, 0, 64, 80
3, 119280, Note_off_c, 0, 59, 80
3, 119280, Note_off_c, 0, 56, 80
3, 119280, Note_off_c, 0, 52, 80
3, 119280, Note_off_c, 0, 47, 80
3, 119280, Note_off_c, 0, 40, 80
3, 119280, Note_on_c, 0, 64, 95
3, 119280, Note_on_c, 0, 59, 95
3, 119280, Note_on_c, 0, 56, 95
3, 119280, Note_on_c, 0, 52, 95
3, 119280, Note_on_c, 0, 47, 95
3, 119280, Note_on_c, 0, 40, 95
3, 119300, Note_off_c, 0, 64, 80
3, 119300, Note_off_c, 0, 59, 80
3, 119520, Note_off_c, 0, 56, 80
3, 119520, Note_off_c, 0, 52, 80
3, 119520, Note_off_c, 0, 47, 80
3, 119520, Note_off_c, 0, 40, 80
3, 119520, Note_on_c, 0, 64, 95
3, 119520, Note_on_c, 0, 59, 95
3, 119520, Note_on_c, 0, 56, 95
3, 119520, Note_on_c, 0, 52, 95
3, 119520, Note_on_c, 0, 47, 95
3, 119520, Note_on_c, 0, 40, 95
3, 119760, Note_off_c, 0, 64, 80
3, 119760, Note_off_c, 0, 59, 80
3, 119760, Note_off_c, 0, 56, 80
3, 119760, Note_off_c, 0, 52, 80
3, 119760, Note_off_c, 0, 47, 80
3, 119760, Note_off_c, 0, 40, 80
3, 119760, Note_on_c, 0, 64, 95
3, 119760, Note_on_c, 0, 59, 95
3, 119760, Note_on_c, 0, 56, 95
3, 119760, Note_on_c, 0, 52, 95
3, 119760, Note_on_c, 0, 47, 95
3, 119760, Note_on_c, 0, 40, 95
3, 119880, Note_off_c, 0, 64, 80
3, 119880, Note_off_c, 0, 59, 80
3, 119880, Note_off_c, 0, 56, 80
3, 119880, Note_off_c, 0, 52, 80
3, 119880, Note_off_c, 0, 47, 80
3, 119880, Note_off_c, 0, 40, 80
3, 119880, Note_on_c, 0, 55, 95
3, 119880, Note_on_c, 0, 50, 95
3, 119880, Note_on_c, 0, 45, 95
3, 120000, Note_off_c, 0, 55, 80
3, 120000, Note_off_c, 0, 50, 80
3, 120000, Note_off_c, 0, 45, 80
3, 120000, Note_on_c, 0, 68, 95
3, 120000, Note_on_c, 0, 64, 95
3, 120000, Note_on_c, 0, 61, 95
3, 120000, Note_on_c, 0, 56, 95
3, 120000, Note_on_c, 0, 49, 95
3, 120000, Note_on_c, 0, 44, 95
3, 120240, Note_off_c, 0, 68, 80
3, 120240, Note_off_c, 0, 64, 80
3, 120240, Note_off_c, 0, 61, 80
3, 120240, Note_off_c, 0, 56, 80
3, 120240, Note_off_c, 0, 49, 80
3, 120240, Note_off_c, 0, 44, 80
3, 120240, Note_on_c, 0, 68, 95
3, 120240, Note_on_c, 0, 64, 95
3, 120240, Note_on_c, 0, 61, 95
3, 120240, Note_on_c, 0, 56, 95
3, 120240, Note_on_c, 0, 49, 95
3, 120240, Note_on_c, 0, 44, 95
3, 120260, Note_off_c, 0, 68, 80
3, 120480, Note_off_c, 0, 64, 80
3, 120480, Note_off_c, 0, 61, 80
3, 120480, Note_off_c, 0, 56, 80
3, 120480, Note_off_c, 0, 49, 80
3, 120480, Note_off_c, 0, 44, 80
3, 120480, Note_on_c, 0, 68, 95
3, 120480, Note_on_c, 0, 64, 95
3, 120480, Note_on_c, 0, 61, 95
3, 120480, Note_on_c, 0, 56, 95
3, 120480, Note_on_c, 0, 49, 95
3, 120480, Note_on_c, 0, 44, 95
3, 120720, Note_off_c, 0, 68, 80
3, 120720, Note_off_c, 0, 64, 80
3, 120720, Note_off_c, 0, 61, 80
3, 120720, Note_off_c, 0, 56, 80
3, 120720, Note_off_c, 0, 49, 80
3, 120720, Note_off_c, 0, 44, 80
3, 120720, Note_on_c, 0, 68, 95
3, 120720, Note_on_c, 0, 64, 95
3, 120720, Note_on_c, 0, 61, 95
3, 120720, Note_on_c, 0, 56, 95
3, 120720, Note_on_c, 0, 49, 95
3, 120720, Note_on_c, 0, 44, 95
3, 120840, Note_off_c, 0, 68, 80
3, 120840, Note_off_c, 0, 64, 80
3, 120840, Note_off_c, 0, 61, 80
3, 120840, Note_off_c, 0, 56, 80
3, 120840, Note_off_c, 0, 49, 80
3, 120840, Note_off_c, 0, 44, 80
3, 120840, Note_on_c, 0, 50, 95
3, 120840, Note_on_c, 0, 45, 95
3, 120840, Note_on_c, 0, 40, 95
3, 120960, Note_off_c, 0, 50, 80
3, 120960, Note_off_c, 0, 45, 80
3, 120960, Note_off_c, 0, 40, 80
3, 120960, Note_on_c, 0, 68, 95
3, 120960, Note_on_c, 0, 63, 95
3, 120960, Note_on_c, 0, 60, 95
3, 120960, Note_on_c, 0, 56, 95
3, 120960, Note_on_c, 0, 51, 95
3, 120960, Note_on_c, 0, 44, 95
3, 121200, Note_off_c, 0, 68, 80
3, 121200, Note_off_c, 0, 63, 80
3, 121200, Note_off_c, 0, 60, 80
3, 121200, Note_off_c, 0, 56, 80
3, 121200, Note_off_c, 0, 51, 80
3, 121200, Note_off_c, 0, 44, 80
3, 121200, Note_on_c, 0, 68, 95
3, 121200, Note_on_c, 0, 63, 95
3, 121200, Note_on_c, 0, 60, 95
3, 121200, Note_on_c, 0, 56, 95
3, 121200, Note_on_c, 0, 51, 95
3, 121200, Note_on_c, 0, 44, 95
3, 121220, Note_off_c, 0, 68, 80
3, 121440, Note_off_c, 0, 63, 80
3, 121440, Note_off_c, 0, 60, 80
3, 121440, Note_off_c, 0, 56, 80
3, 121440, Note_off_c, 0, 51, 80
3, 121440, Note_off_c, 0, 44, 80
3, 121440, Note_on_c, 0, 68, 95
3, 121440, Note_on_c, 0, 63, 95
3, 121440, Note_on_c, 0, 60, 95
3, 121440, Note_on_c, 0, 56, 95
3, 121440, Note_on_c, 0, 51, 95
3, 121440, Note_on_c, 0, 44, 95
3, 121680, Note_off_c, 0, 68, 80
3, 121680, Note_off_c, 0, 63, 80
3, 121680, Note_off_c, 0, 60, 80
3, 121680, Note_off_c, 0, 56, 80
3, 121680, Note_off_c, 0, 51, 80
3, 121680, Note_off_c, 0, 44, 80
3, 121680, Note_on_c, 1, 68, 95
3, 121680, Note_on_c, 1, 63, 95
3, 121680, Note_on_c, 1, 60, 95
3, 121680, Note_on_c, 1, 56, 95
3, 121680, Note_on_c, 1, 51, 95
3, 121680, Note_on_c, 1, 44, 95
3, 121776, Pitch_bend_c, 1, 8832
3, 121776, Pitch_bend_c, 1, 8832
3, 121776, Pitch_bend_c, 1, 8832
3, 121776, Pitch_bend_c, 1, 8832
3, 121776, Pitch_bend_c, 1, 8832
3, 121776, Pitch_bend_c, 1, 8832
3, 121800, Note_off_c, 1, 68, 80
3, 121800, Pitch_bend_c, 1, 8192
3, 121800, Note_off_c, 1, 63, 80
3, 121800, Pitch_bend_c, 1, 8192
3, 121800, Note_off_c, 1, 60, 80
3, 121800, Pitch_bend_c, 1, 8192
3, 121800, Note_off_c, 1, 56, 80
3, 121800, Pitch_bend_c, 1, 8192
3, 121800, Note_off_c, 1, 51, 80
3, 121800, Pitch_bend_c, 1, 8192
3, 121800, Note_off_c, 1, 44, 80
3, 121800, Pitch_bend_c, 1, 8192
3, 121800, Note_on_c, 0, 69, 76
3, 121800, Note_on_c, 0, 64, 76
3, 121800, Note_on_c, 0, 61, 76
3, 121800, Note_on_c, 0, 57, 76
3, 121800, Note_on_c, 0, 52, 76
3, 121800, Note_on_c, 0, 45, 76
3, 121920, Note_off_c, 0, 69, 80
3, 121920, Note_off_c, 0, 64, 80
3, 121920, Note_off_c, 0, 61, 80
3, 121920, Note_off_c, 0, 57, 80
3, 121920, Note_off_c, 0, 52, 80
3, 121920, Note_off_c, 0, 45, 80
3, 121920, Note_on_c, 0, 69, 95
3, 121920, Note_on_c, 0, 64, 95
3, 121920, Note_on_c, 0, 61, 95
3, 121920, Note_on_c, 0, 57, 95
3, 121920, Note_on_c, 0, 52, 95
3, 121920, Note_on_c, 0, 45, 95
3, 122040, Note_off_c, 0, 69, 80
3, 122040, Note_off_c, 0, 64, 80
3, 122040, Note_off_c, 0, 61, 80
3, 122040, Note_off_c, 0, 57, 80
3, 122040, Note_off_c, 0, 52, 80
3, 122040, Note_off_c, 0, 45, 80
3, 122040, Note_on_c, 0, 69, 95
3, 122040, Note_on_c, 0, 64, 95
3, 122040, Note_on_c, 0, 61, 95
3, 122040, Note_on_c, 0, 57, 95
3, 122040, Note_on_c, 0, 52, 95
3, 122040, Note_on_c, 0, 45, 95
3, 122160, Note_off_c, 0, 69, 80
3, 122160, Note_off_c, 0, 64, 80
3, 122160, Note_off_c, 0, 61, 80
3, 122160, Note_off_c, 0, 57, 80
3, 122160, Note_off_c, 0, 52, 80
3, 122160, Note_off_c, 0, 45, 80
3, 122160, Note_on_c, 0, 69, 95
3, 122160, Note_on_c, 0, 64, 95
3, 122160, Note_on_c, 0, 61, 95
3, 122160, Note_on_c, 0, 57, 95
3, 122160, Note_on_c, 0, 52, 95
3, 122160, Note_on_c, 0, 45, 95
3, 122280, Note_off_c, 0, 69, 80
3, 122280, Note_off_c, 0, 64, 80
3, 122280, Note_off_c, 0, 61, 80
3, 122280, Note_off_c, 0, 57, 80
3, 122280, Note_off_c, 0, 52, 80
3, 122280, Note_off_c, 0, 45, 80
3, 122280, Note_on_c, 1, 68, 95
3, 122280, Note_on_c, 1, 63, 95
3, 122280, Note_on_c, 1, 60, 95
3, 122280, Note_on_c, 1, 56, 95
3, 122280, Note_on_c, 1, 51, 95
3, 122280, Note_on_c, 1, 44, 95
3, 122376, Pitch_bend_c, 1, 8832
3, 122376, Pitch_bend_c, 1, 8832
3, 122376, Pitch_bend_c, 1, 8832
3, 122376, Pitch_bend_c, 1, 8832
3, 122376, Pitch_bend_c, 1, 8832
3, 122376, Pitch_bend_c, 1, 8832
3, 122400, Note_off_c, 1, 68, 80
3, 122400, Pitch_bend_c, 1, 8192
3, 122400, Note_off_c, 1, 63, 80
3, 122400, Pitch_bend_c, 1, 8192
3, 122400, Note_off_c, 1, 60, 80
3, 122400, Pitch_bend_c, 1, 8192
3, 122400, Note_off_c, 1, 56, 80
3, 122400, Pitch_bend_c, 1, 8192
3, 122400, Note_off_c, 1, 51, 80
3, 122400, Pitch_bend_c, 1, 8192
3, 122400, Note_off_c, 1, 44, 80
3, 122400, Pitch_bend_c, 1, 8192
3, 122400, Note_on_c, 0, 69, 76
3, 122400, Note_on_c, 0, 64, 76
3, 122400, Note_on_c, 0, 61, 76
3, 122400, Note_on_c, 0, 57, 76
3, 122400, Note_on_c, 0, 52, 76
3, 122400, Note_on_c, 0, 45, 76
3, 122520, Note_off_c, 0, 69, 80
3, 122520, Note_off_c, 0, 64, 80
3, 122520, Note_off_c, 0, 61, 80
3, 122520, Note_off_c, 0, 57, 80
3, 122520, Note_off_c, 0, 52, 80
3, 122520, Note_off_c, 0, 45, 80
3, 122520, Note_on_c, 0, 69, 95
3, 122520, Note_on_c, 0, 64, 95
3, 122520, Note_on_c, 0, 61, 95
3, 122520, Note_on_c, 0, 57, 95
3, 122520, Note_on_c, 0, 52, 95
3, 122520, Note_on_c, 0, 45, 95
3, 122640, Note_off_c, 0, 69, 80
3, 122640, Note_off_c, 0, 64, 80
3, 122640, Note_off_c, 0, 61, 80
3, 122640, Note_off_c, 0, 57, 80
3, 122640, Note_off_c, 0, 52, 80
3, 122640, Note_off_c, 0, 45, 80
3, 122640, Note_on_c, 0, 69, 95
3, 122640, Note_on_c, 0, 64, 95
3, 122640, Note_on_c, 0, 61, 95
3, 122640, Note_on_c, 0, 57, 95
3, 122640, Note_on_c, 0, 52, 95
3, 122640, Note_on_c, 0, 45, 95
3, 122760, Note_off_c, 0, 69, 80
3, 122760, Note_off_c, 0, 64, 80
3, 122760, Note_off_c, 0, 61, 80
3, 122760, Note_off_c, 0, 57, 80
3, 122760, Note_off_c, 0, 52, 80
3, 122760, Note_off_c, 0, 45, 80
3, 122760, Note_on_c, 0, 55, 95
3, 122760, Note_on_c, 0, 50, 95
3, 122760, Note_on_c, 0, 45, 95
3, 122760, Note_on_c, 0, 40, 95
3, 122880, Note_off_c, 0, 55, 80
3, 122880, Note_off_c, 0, 50, 80
3, 122880, Note_off_c, 0, 45, 80
3, 122880, Note_off_c, 0, 40, 80
3, 122880, Note_on_c, 0, 64, 95
3, 122880, Note_on_c, 0, 59, 95
3, 122880, Note_on_c, 0, 56, 95
3, 122880, Note_on_c, 0, 52, 95
3, 122880, Note_on_c, 0, 47, 95
3, 122880, Note_on_c, 0, 40, 95
3, 123120, Note_off_c, 0, 64, 80
3, 123120, Note_off_c, 0, 59, 80
3, 123120, Note_off_c, 0, 56, 80
3, 123120, Note_off_c, 0, 52, 80
3, 123120, Note_off_c, 0, 47, 80
3, 123120, Note_off_c, 0, 40, 80
3, 123120, Note_on_c, 0, 64, 95
3, 123120, Note_on_c, 0, 59, 95
3, 123120, Note_on_c, 0, 56, 95
3, 123120, Note_on_c, 0, 52, 95
3, 123120, Note_on_c, 0, 47, 95
3, 123120, Note_on_c, 0, 40, 95
3, 123140, Note_off_c, 0, 64, 80
3, 123140, Note_off_c, 0, 59, 80
3, 123360, Note_off_c, 0, 56, 80
3, 123360, Note_off_c, 0, 52, 80
3, 123360, Note_off_c, 0, 47, 80
3, 123360, Note_off_c, 0, 40, 80
3, 123360, Note_on_c, 0, 64, 95
3, 123360, Note_on_c, 0, 59, 95
3, 123360, Note_on_c, 0, 56, 95
3, 123360, Note_on_c, 0, 52, 95
3, 123360, Note_on_c, 0, 47, 95
3, 123360, Note_on_c, 0, 40, 95
3, 123600, Note_off_c, 0, 64, 80
3, 123600, Note_off_c, 0, 59, 80
3, 123600, Note_off_c, 0, 56, 80
3, 123600, Note_off_c, 0, 52, 80
3, 123600, Note_off_c, 0, 47, 80
3, 123600, Note_off_c, 0, 40, 80
3, 123600, Note_on_c, 0, 64, 95
3, 123600, Note_on_c, 0, 59, 95
3, 123600, Note_on_c, 0, 56, 95
3, 123600, Note_on_c, 0, 52, 95
3, 123600, Note_on_c, 0, 47, 95
3, 123600, Note_on_c, 0, 40, 95
3, 123720, Note_off_c, 0, 64, 80
3, 123720, Note_off_c, 0, 59, 80
3, 123720, Note_off_c, 0, 56, 80
3, 123720, Note_off_c, 0, 52, 80
3, 123720, Note_off_c, 0, 47, 80
3, 123720, Note_off_c, 0, 40, 80
3, 123720, Note_on_c, 0, 55, 95
3, 123720, Note_on_c, 0, 50, 95
3, 123720, Note_on_c, 0, 45, 95
3, 123840, Note_off_c, 0, 55, 80
3, 123840, Note_off_c, 0, 50, 80
3, 123840, Note_off_c, 0, 45, 80
3, 123840, Note_on_c, 0, 68, 95
3, 123840, Note_on_c, 0, 64, 95
3, 123840, Note_on_c, 0, 61, 95
3, 123840, Note_on_c, 0, 56, 95
3, 123840, Note_on_c, 0, 49, 95
3, 123840, Note_on_c, 0, 44, 95
3, 124080, Note_off_c, 0, 68, 80
3, 124080, Note_off_c, 0, 64, 80
3, 124080, Note_off_c, 0, 61, 80
3, 124080, Note_off_c, 0, 56, 80
3, 124080, Note_off_c, 0, 49, 80
3, 124080, Note_off_c, 0, 44, 80
3, 124080, Note_on_c, 0, 68, 95
3, 124080, Note_on_c, 0, 64, 95
3, 124080, Note_on_c, 0, 61, 95
3, 124080, Note_on_c, 0, 56, 95
3, 124080, Note_on_c, 0, 49, 95
3, 124080, Note_on_c, 0, 44, 95
3, 124100, Note_off_c, 0, 68, 80
3, 124320, Note_off_c, 0, 64, 80
3, 124320, Note_off_c, 0, 61, 80
3, 124320, Note_off_c, 0, 56, 80
3, 124320, Note_off_c, 0, 49, 80
3, 124320, Note_off_c, 0, 44, 80
3, 124320, Note_on_c, 0, 68, 95
3, 124320, Note_on_c, 0, 64, 95
3, 124320, Note_on_c, 0, 61, 95
3, 124320, Note_on_c, 0, 56, 95
3, 124320, Note_on_c, 0, 49, 95
3, 124320, Note_on_c, 0, 44, 95
3, 124560, Note_off_c, 0, 68, 80
3, 124560, Note_off_c, 0, 64, 80
3, 124560, Note_off_c, 0, 61, 80
3, 124560, Note_off_c, 0, 56, 80
3, 124560, Note_off_c, 0, 49, 80
3, 124560, Note_off_c, 0, 44, 80
3, 124560, Note_on_c, 0, 68, 95
3, 124560, Note_on_c, 0, 64, 95
3, 124560, Note_on_c, 0, 61, 95
3, 124560, Note_on_c, 0, 56, 95
3, 124560, Note_on_c, 0, 49, 95
3, 124560, Note_on_c, 0, 44, 95
3, 124680, Note_off_c, 0, 68, 80
3, 124680, Note_off_c, 0, 64, 80
3, 124680, Note_off_c, 0, 61, 80
3, 124680, Note_off_c, 0, 56, 80
3, 124680, Note_off_c, 0, 49, 80
3, 124680, Note_off_c, 0, 44, 80
3, 124680, Note_on_c, 0, 50, 95
3, 124680, Note_on_c, 0, 45, 95
3, 124680, Note_on_c, 0, 40, 95
3, 124800, Note_off_c, 0, 50, 80
3, 124800, Note_off_c, 0, 45, 80
3, 124800, Note_off_c, 0, 40, 80
3, 124800, Note_on_c, 0, 68, 95
3, 124800, Note_on_c, 0, 63, 95
3, 124800, Note_on_c, 0, 60, 95
3, 124800, Note_on_c, 0, 56, 95
3, 124800, Note_on_c, 0, 51, 95
3, 124800, Note_on_c, 0, 44, 95
3, 125040, Note_off_c, 0, 68, 80
3, 125040, Note_off_c, 0, 63, 80
3, 125040, Note_off_c, 0, 60, 80
3, 125040, Note_off_c, 0, 56, 80
3, 125040, Note_off_c, 0, 51, 80
3, 125040, Note_off_c, 0, 44, 80
3, 125040, Note_on_c, 0, 68, 95
3, 125040, Note_on_c, 0, 63, 95
3, 125040, Note_on_c, 0, 60, 95
3, 125040, Note_on_c, 0, 56, 95
3, 125040, Note_on_c, 0, 51, 95
3, 125040, Note_on_c, 0, 44, 95
3, 125060, Note_off_c, 0, 68, 80
3, 125280, Note_off_c, 0, 63, 80
3, 125280, Note_off_c, 0, 60, 80
3, 125280, Note_off_c, 0, 56, 80
3, 125280, Note_off_c, 0, 51, 80
3, 125280, Note_off_c, 0, 44, 80
3, 125280, Note_on_c, 0, 68, 95
3, 125280, Note_on_c, 0, 63, 95
3, 125280, Note_on_c, 0, 60, 95
3, 125280, Note_on_c, 0, 56, 95
3, 125280, Note_on_c, 0, 51, 95
3, 125280, Note_on_c, 0, 44, 95
3, 125520, Note_off_c, 0, 68, 80
3, 125520, Note_off_c, 0, 63, 80
3, 125520, Note_off_c, 0, 60, 80
3, 125520, Note_off_c, 0, 56, 80
3, 125520, Note_off_c, 0, 51, 80
3, 125520, Note_off_c, 0, 44, 80
3, 125520, Note_on_c, 1, 68, 95
3, 125520, Note_on_c, 1, 63, 95
3, 125520, Note_on_c, 1, 60, 95
3, 125520, Note_on_c, 1, 56, 95
3, 125520, Note_on_c, 1, 51, 95
3, 125520, Note_on_c, 1, 44, 95
3, 125616, Pitch_bend_c, 1, 8832
3, 125616, Pitch_bend_c, 1, 8832
3, 125616, Pitch_bend_c, 1, 8832
3, 125616, Pitch_bend_c, 1, 8832
3, 125616, Pitch_bend_c, 1, 8832
3, 125616, Pitch_bend_c, 1, 8832
3, 125640, Note_off_c, 1, 68, 80
3, 125640, Pitch_bend_c, 1, 8192
3, 125640, Note_off_c, 1, 63, 80
3, 125640, Pitch_bend_c, 1, 8192
3, 125640, Note_off_c, 1, 60, 80
3, 125640, Pitch_bend_c, 1, 8192
3, 125640, Note_off_c, 1, 56, 80
3, 125640, Pitch_bend_c, 1, 8192
3, 125640, Note_off_c, 1, 51, 80
3, 125640, Pitch_bend_c, 1, 8192
3, 125640, Note_off_c, 1, 44, 80
3, 125640, Pitch_bend_c, 1, 8192
3, 125640, Note_on_c, 0, 69, 76
3, 125640, Note_on_c, 0, 64, 76
3, 125640, Note_on_c, 0, 61, 76
3, 125640, Note_on_c, 0, 57, 76
3, 125640, Note_on_c, 0, 52, 76
3, 125640, Note_on_c, 0, 45, 76
3, 125760, Note_off_c, 0, 69, 80
3, 125760, Note_off_c, 0, 64, 80
3, 125760, Note_off_c, 0, 61, 80
3, 125760, Note_off_c, 0, 57, 80
3, 125760, Note_off_c, 0, 52, 80
3, 125760, Note_off_c, 0, 45, 80
3, 125760, Note_on_c, 0, 69, 95
3, 125760, Note_on_c, 0, 64, 95
3, 125760, Note_on_c, 0, 61, 95
3, 125760, Note_on_c, 0, 57, 95
3, 125760, Note_on_c, 0, 52, 95
3, 125760, Note_on_c, 0, 45, 95
3, 125880, Note_off_c, 0, 69, 80
3, 125880, Note_off_c, 0, 64, 80
3, 125880, Note_off_c, 0, 61, 80
3, 125880, Note_off_c, 0, 57, 80
3, 125880, Note_off_c, 0, 52, 80
3, 125880, Note_off_c, 0, 45, 80
3, 125880, Note_on_c, 0, 69, 95
3, 125880, Note_on_c, 0, 64, 95
3, 125880, Note_on_c, 0, 61, 95
3, 125880, Note_on_c, 0, 57, 95
3, 125880, Note_on_c, 0, 52, 95
3, 125880, Note_on_c, 0, 45, 95
3, 126000, Note_off_c, 0, 69, 80
3, 126000, Note_off_c, 0, 64, 80
3, 126000, Note_off_c, 0, 61, 80
3, 126000, Note_off_c, 0, 57, 80
3, 126000, Note_off_c, 0, 52, 80
3, 126000, Note_off_c, 0, 45, 80
3, 126000, Note_on_c, 0, 69, 95
3, 126000, Note_on_c, 0, 64, 95
3, 126000, Note_on_c, 0, 61, 95
3, 126000, Note_on_c, 0, 57, 95
3, 126000, Note_on_c, 0, 52, 95
3, 126000, Note_on_c, 0, 45, 95
3, 126120, Note_off_c, 0, 69, 80
3, 126120, Note_off_c, 0, 64, 80
3, 126120, Note_off_c, 0, 61, 80
3, 126120, Note_off_c, 0, 57, 80
3, 126120, Note_off_c, 0, 52, 80
3, 126120, Note_off_c, 0, 45, 80
3, 126120, Note_on_c, 1, 68, 95
3, 126120, Note_on_c, 1, 63, 95
3, 126120, Note_on_c, 1, 60, 95
3, 126120, Note_on_c, 1, 56, 95
3, 126120, Note_on_c, 1, 51, 95
3, 126120, Note_on_c, 1, 44, 95
3, 126216, Pitch_bend_c, 1, 8832
3, 126216, Pitch_bend_c, 1, 8832
3, 126216, Pitch_bend_c, 1, 8832
3, 126216, Pitch_bend_c, 1, 8832
3, 126216, Pitch_bend_c, 1, 8832
3, 126216, Pitch_bend_c, 1, 8832
3, 126240, Note_off_c, 1, 68, 80
3, 126240, Pitch_bend_c, 1, 8192
3, 126240, Note_off_c, 1, 63, 80
3, 126240, Pitch_bend_c, 1, 8192
3, 126240, Note_off_c, 1, 60, 80
3, 126240, Pitch_bend_c, 1, 8192
3, 126240, Note_off_c, 1, 56, 80
3, 126240, Pitch_bend_c, 1, 8192
3, 126240, Note_off_c, 1, 51, 80
3, 126240, Pitch_bend_c, 1, 8192
3, 126240, Note_off_c, 1, 44, 80
3, 126240, Pitch_bend_c, 1, 8192
3, 126240, Note_on_c, 0, 69, 76
3, 126240, Note_on_c, 0, 64, 76
3, 126240, Note_on_c, 0, 61, 76
3, 126240, Note_on_c, 0, 57, 76
3, 126240, Note_on_c, 0, 52, 76
3, 126240, Note_on_c, 0, 45, 76
3, 126360, Note_off_c, 0, 69, 80
3, 126360, Note_off_c, 0, 64, 80
3, 126360, Note_off_c, 0, 61, 80
3, 126360, Note_off_c, 0, 57, 80
3, 126360, Note_off_c, 0, 52, 80
3, 126360, Note_off_c, 0, 45, 80
3, 126360, Note_on_c, 0, 69, 95
3, 126360, Note_on_c, 0, 64, 95
3, 126360, Note_on_c, 0, 61, 95
3, 126360, Note_on_c, 0, 57, 95
3, 126360, Note_on_c, 0, 52, 95
3, 126360, Note_on_c, 0, 45, 95
3, 126480, Note_off_c, 0, 69, 80
3, 126480, Note_off_c, 0, 64, 80
3, 126480, Note_off_c, 0, 61, 80
3, 126480, Note_off_c, 0, 57, 80
3, 126480, Note_off_c, 0, 52, 80
3, 126480, Note_off_c, 0, 45, 80
3, 126480, Note_on_c, 0, 69, 95
3, 126480, Note_on_c, 0, 64, 95
3, 126480, Note_on_c, 0, 61, 95
3, 126480, Note_on_c, 0, 57, 95
3, 126480, Note_on_c, 0, 52, 95
3, 126480, Note_on_c, 0, 45, 95
3, 126600, Note_off_c, 0, 69, 80
3, 126600, Note_off_c, 0, 64, 80
3, 126600, Note_off_c, 0, 61, 80
3, 126600, Note_off_c, 0, 57, 80
3, 126600, Note_off_c, 0, 52, 80
3, 126600, Note_off_c, 0, 45, 80
3, 126600, Note_on_c, 0, 55, 95
3, 126600, Note_on_c, 0, 50, 95
3, 126600, Note_on_c, 0, 45, 95
3, 126600, Note_on_c, 0, 40, 95
3, 126720, Note_off_c, 0, 55, 80
3, 126720, Note_off_c, 0, 50, 80
3, 126720, Note_off_c, 0, 45, 80
3, 126720, Note_off_c, 0, 40, 80
3, 126720, Note_on_c, 0, 64, 95
3, 126720, Note_on_c, 0, 59, 95
3, 126720, Note_on_c, 0, 56, 95
3, 126720, Note_on_c, 0, 52, 95
3, 126720, Note_on_c, 0, 47, 95
3, 126720, Note_on_c, 0, 40, 95
3, 126960, Note_off_c, 0, 64, 80
3, 126960, Note_off_c, 0, 59, 80
3, 126960, Note_off_c, 0, 56, 80
3, 126960, Note_off_c, 0, 52, 80
3, 126960, Note_off_c, 0, 47, 80
3, 126960, Note_off_c, 0, 40, 80
3, 126960, Note_on_c, 0, 64, 95
3, 126960, Note_on_c, 0, 59, 95
3, 126960, Note_on_c, 0, 56, 95
3, 126960, Note_on_c, 0, 52, 95
3, 126960, Note_on_c, 0, 47, 95
3, 126960, Note_on_c, 0, 40, 95
3, 126980, Note_off_c, 0, 64, 80
3, 126980, Note_off_c, 0, 59, 80
3, 127200, Note_off_c, 0, 56, 80
3, 127200, Note_off_c, 0, 52, 80
3, 127200, Note_off_c, 0, 47, 80
3, 127200, Note_off_c, 0, 40, 80
3, 127200, Note_on_c, 0, 64, 95
3, 127200, Note_on_c, 0, 59, 95
3, 127200, Note_on_c, 0, 56, 95
3, 127200, Note_on_c, 0, 52, 95
3, 127200, Note_on_c, 0, 47, 95
3, 127200, Note_on_c, 0, 40, 95
3, 127440, Note_off_c, 0, 64, 80
3, 127440, Note_off_c, 0, 59, 80
3, 127440, Note_off_c, 0, 56, 80
3, 127440, Note_off_c, 0, 52, 80
3, 127440, Note_off_c, 0, 47, 80
3, 127440, Note_off_c, 0, 40, 80
3, 127440, Note_on_c, 0, 64, 95
3, 127440, Note_on_c, 0, 59, 95
3, 127440, Note_on_c, 0, 56, 95
3, 127440, Note_on_c, 0, 52, 95
3, 127440, Note_on_c, 0, 47, 95
3, 127440, Note_on_c, 0, 40, 95
3, 127560, Note_off_c, 0, 64, 80
3, 127560, Note_off_c, 0, 59, 80
3, 127560, Note_off_c, 0, 56, 80
3, 127560, Note_off_c, 0, 52, 80
3, 127560, Note_off_c, 0, 47, 80
3, 127560, Note_off_c, 0, 40, 80
3, 127560, Note_on_c, 0, 55, 95
3, 127560, Note_on_c, 0, 50, 95
3, 127560, Note_on_c, 0, 45, 95
3, 127680, Note_off_c, 0, 55, 80
3, 127680, Note_off_c, 0, 50, 80
3, 127680, Note_off_c, 0, 45, 80
3, 127680, Note_on_c, 0, 68, 95
3, 127680, Note_on_c, 0, 64, 95
3, 127680, Note_on_c, 0, 61, 95
3, 127680, Note_on_c, 0, 56, 95
3, 127680, Note_on_c, 0, 49, 95
3, 127680, Note_on_c, 0, 44, 95
3, 127920, Note_off_c, 0, 68, 80
3, 127920, Note_off_c, 0, 64, 80
3, 127920, Note_off_c, 0, 61, 80
3, 127920, Note_off_c, 0, 56, 80
3, 127920, Note_off_c, 0, 49, 80
3, 127920, Note_off_c, 0, 44, 80
3, 127920, Note_on_c, 0, 68, 95
3, 127920, Note_on_c, 0, 64, 95
3, 127920, Note_on_c, 0, 61, 95
3, 127920, Note_on_c, 0, 56, 95
3, 127920, Note_on_c, 0, 49, 95
3, 127920, Note_on_c, 0, 44, 95
3, 127940, Note_off_c, 0, 68, 80
3, 128160, Note_off_c, 0, 64, 80
3, 128160, Note_off_c, 0, 61, 80
3, 128160, Note_off_c, 0, 56, 80
3, 128160, Note_off_c, 0, 49, 80
3, 128160, Note_off_c, 0, 44, 80
3, 128160, Note_on_c, 0, 68, 95
3, 128160, Note_on_c, 0, 64, 95
3, 128160, Note_on_c, 0, 61, 95
3, 128160, Note_on_c, 0, 56, 95
3, 128160, Note_on_c, 0, 49, 95
3, 128160, Note_on_c, 0, 44, 95
3, 128400, Note_off_c, 0, 68, 80
3, 128400, Note_off_c, 0, 64, 80
3, 128400, Note_off_c, 0, 61, 80
3, 128400, Note_off_c, 0, 56, 80
3, 128400, Note_off_c, 0, 49, 80
3, 128400, Note_off_c, 0, 44, 80
3, 128400, Note_on_c, 0, 68, 95
3, 128400, Note_on_c, 0, 64, 95
3, 128400, Note_on_c, 0, 61, 95
3, 128400, Note_on_c, 0, 56, 95
3, 128400, Note_on_c, 0, 49, 95
3, 128400, Note_on_c, 0, 44, 95
3, 128520, Note_off_c, 0, 68, 80
3, 128520, Note_off_c, 0, 64, 80
3, 128520, Note_off_c, 0, 61, 80
3, 128520, Note_off_c, 0, 56, 80
3, 128520, Note_off_c, 0, 49, 80
3, 128520, Note_off_c, 0, 44, 80
3, 128520, Note_on_c, 0, 50, 95
3, 128520, Note_on_c, 0, 45, 95
3, 128520, Note_on_c, 0, 40, 95
3, 128640, Note_off_c, 0, 50, 80
3, 128640, Note_off_c, 0, 45, 80
3, 128640, Note_off_c, 0, 40, 80
3, 128640, Note_on_c, 0, 68, 95
3, 128640, Note_on_c, 0, 63, 95
3, 128640, Note_on_c, 0, 60, 95
3, 128640, Note_on_c, 0, 56, 95
3, 128640, Note_on_c, 0, 51, 95
3, 128640, Note_on_c, 0, 44, 95
3, 128880, Note_off_c, 0, 68, 80
3, 128880, Note_off_c, 0, 63, 80
3, 128880, Note_off_c, 0, 60, 80
3, 128880, Note_off_c, 0, 56, 80
3, 128880, Note_off_c, 0, 51, 80
3, 128880, Note_off_c, 0, 44, 80
3, 128880, Note_on_c, 0, 68, 95
3, 128880, Note_on_c, 0, 63, 95
3, 128880, Note_on_c, 0, 60, 95
3, 128880, Note_on_c, 0, 56, 95
3, 128880, Note_on_c, 0, 51, 95
3, 128880, Note_on_c, 0, 44, 95
3, 128900, Note_off_c, 0, 68, 80
3, 129120, Note_off_c, 0, 63, 80
3, 129120, Note_off_c, 0, 60, 80
3, 129120, Note_off_c, 0, 56, 80
3, 129120, Note_off_c, 0, 51, 80
3, 129120, Note_off_c, 0, 44, 80
3, 129120, Note_on_c, 0, 68, 95
3, 129120, Note_on_c, 0, 63, 95
3, 129120, Note_on_c, 0, 60, 95
3, 129120, Note_on_c, 0, 56, 95
3, 129120, Note_on_c, 0, 51, 95
3, 129120, Note_on_c, 0, 44, 95
3, 129360, Note_off_c, 0, 68, 80
3, 129360, Note_off_c, 0, 63, 80
3, 129360, Note_off_c, 0, 60, 80
3, 129360, Note_off_c, 0, 56, 80
3, 129360, Note_off_c, 0, 51, 80
3, 129360, Note_off_c, 0, 44, 80
3, 129360, Note_on_c, 1, 68, 95
3, 129360, Note_on_c, 1, 63, 95
3, 129360, Note_on_c, 1, 60, 95
3, 129360, Note_on_c, 1, 56, 95
3, 129360, Note_on_c, 1, 51, 95
3, 129360, Note_on_c, 1, 44, 95
3, 129456, Pitch_bend_c, 1, 8832
3, 129456, Pitch_bend_c, 1, 8832
3, 129456, Pitch_bend_c, 1, 8832
3, 129456, Pitch_bend_c, 1, 8832
3, 129456, Pitch_bend_c, 1, 8832
3, 129456, Pitch_bend_c, 1, 8832
3, 129480, Note_off_c, 1, 68, 80
3, 129480, Pitch_bend_c, 1, 8192
3, 129480, Note_off_c, 1, 63, 80
3, 129480, Pitch_bend_c, 1, 8192
3, 129480, Note_off_c, 1, 60, 80
3, 129480, Pitch_bend_c, 1, 8192
3, 129480, Note_off_c, 1, 56, 80
3, 129480, Pitch_bend_c, 1, 8192
3, 129480, Note_off_c, 1, 51, 80
3, 129480, Pitch_bend_c, 1, 8192
3, 129480, Note_off_c, 1, 44, 80
3, 129480, Pitch_bend_c, 1, 8192
3, 129480, Note_on_c, 0, 69, 76
3, 129480, Note_on_c, 0, 64, 76
3, 129480, Note_on_c, 0, 61, 76
3, 129480, Note_on_c, 0, 57, 76
3, 129480, Note_on_c, 0, 52, 76
3, 129480, Note_on_c, 0, 45, 76
3, 129600, Note_off_c, 0, 69, 80
3, 129600, Note_off_c, 0, 64, 80
3, 129600, Note_off_c, 0, 61, 80
3, 129600, Note_off_c, 0, 57, 80
3, 129600, Note_off_c, 0, 52, 80
3, 129600, Note_off_c, 0, 45, 80
3, 129600, Note_on_c, 0, 69, 95
3, 129600, Note_on_c, 0, 64, 95
3, 129600, Note_on_c, 0, 61, 95
3, 129600, Note_on_c, 0, 57, 95
3, 129600, Note_on_c, 0, 52, 95
3, 129600, Note_on_c, 0, 45, 95
3, 129720, Note_off_c, 0, 69, 80
3, 129720, Note_off_c, 0, 64, 80
3, 129720, Note_off_c, 0, 61, 80
3, 129720, Note_off_c, 0, 57, 80
3, 129720, Note_off_c, 0, 52, 80
3, 129720, Note_off_c, 0, 45, 80
3, 129720, Note_on_c, 0, 69, 95
3, 129720, Note_on_c, 0, 64, 95
3, 129720, Note_on_c, 0, 61, 95
3, 129720, Note_on_c, 0, 57, 95
3, 129720, Note_on_c, 0, 52, 95
3, 129720, Note_on_c, 0, 45, 95
3, 129840, Note_off_c, 0, 69, 80
3, 129840, Note_off_c, 0, 64, 80
3, 129840, Note_off_c, 0, 61, 80
3, 129840, Note_off_c, 0, 57, 80
3, 129840, Note_off_c, 0, 52, 80
3, 129840, Note_off_c, 0, 45, 80
3, 129840, Note_on_c, 0, 69, 95
3, 129840, Note_on_c, 0, 64, 95
3, 129840, Note_on_c, 0, 61, 95
3, 129840, Note_on_c, 0, 57, 95
3, 129840, Note_on_c, 0, 52, 95
3, 129840, Note_on_c, 0, 45, 95
3, 129960, Note_off_c, 0, 69, 80
3, 129960, Note_off_c, 0, 64, 80
3, 129960, Note_off_c, 0, 61, 80
3, 129960, Note_off_c, 0, 57, 80
3, 129960, Note_off_c, 0, 52, 80
3, 129960, Note_off_c, 0, 45, 80
3, 129960, Note_on_c, 1, 68, 95
3, 129960, Note_on_c, 1, 63, 95
3, 129960, Note_on_c, 1, 60, 95
3, 129960, Note_on_c, 1, 56, 95
3, 129960, Note_on_c, 1, 51, 95
3, 129960, Note_on_c, 1, 44, 95
3, 130056, Pitch_bend_c, 1, 8832
3, 130056, Pitch_bend_c, 1, 8832
3, 130056, Pitch_bend_c, 1, 8832
3, 130056, Pitch_bend_c, 1, 8832
3, 130056, Pitch_bend_c, 1, 8832
3, 130056, Pitch_bend_c, 1, 8832
3, 130080, Note_off_c, 1, 68, 80
3, 130080, Pitch_bend_c, 1, 8192
3, 130080, Note_off_c, 1, 63, 80
3, 130080, Pitch_bend_c, 1, 8192
3, 130080, Note_off_c, 1, 60, 80
3, 130080, Pitch_bend_c, 1, 8192
3, 130080, Note_off_c, 1, 56, 80
3, 130080, Pitch_bend_c, 1, 8192
3, 130080, Note_off_c, 1, 51, 80
3, 130080, Pitch_bend_c, 1, 8192
3, 130080, Note_off_c, 1, 44, 80
3, 130080, Pitch_bend_c, 1, 8192
3, 130080, Note_on_c, 0, 69, 76
3, 130080, Note_on_c, 0, 64, 76
3, 130080, Note_on_c, 0, 61, 76
3, 130080, Note_on_c, 0, 57, 76
3, 130080, Note_on_c, 0, 52, 76
3, 130080, Note_on_c, 0, 45, 76
3, 130200, Note_off_c, 0, 69, 80
3, 130200, Note_off_c, 0, 64, 80
3, 130200, Note_off_c, 0, 61, 80
3, 130200, Note_off_c, 0, 57, 80
3, 130200, Note_off_c, 0, 52, 80
3, 130200, Note_off_c, 0, 45, 80
3, 130200, Note_on_c, 0, 69, 95
3, 130200, Note_on_c, 0, 64, 95
3, 130200, Note_on_c, 0, 61, 95
3, 130200, Note_on_c, 0, 57, 95
3, 130200, Note_on_c, 0, 52, 95
3, 130200, Note_on_c, 0, 45, 95
3, 130320, Note_off_c, 0, 69, 80
3, 130320, Note_off_c, 0, 64, 80
3, 130320, Note_off_c, 0, 61, 80
3, 130320, Note_off_c, 0, 57, 80
3, 130320, Note_off_c, 0, 52, 80
3, 130320, Note_off_c, 0, 45, 80
3, 130320, Note_on_c, 0, 69, 95
3, 130320, Note_on_c, 0, 64, 95
3, 130320, Note_on_c, 0, 61, 95
3, 130320, Note_on_c, 0, 57, 95
3, 130320, Note_on_c, 0, 52, 95
3, 130320, Note_on_c, 0, 45, 95
3, 130440, Note_off_c, 0, 69, 80
3, 130440, Note_off_c, 0, 64, 80
3, 130440, Note_off_c, 0, 61, 80
3, 130440, Note_off_c, 0, 57, 80
3, 130440, Note_off_c, 0, 52, 80
3, 130440, Note_off_c, 0, 45, 80
3, 130440, Note_on_c, 0, 55, 95
3, 130440, Note_on_c, 0, 50, 95
3, 130440, Note_on_c, 0, 45, 95
3, 130440, Note_on_c, 0, 40, 95
3, 130560, Note_off_c, 0, 55, 80
3, 130560, Note_off_c, 0, 50, 80
3, 130560, Note_off_c, 0, 45, 80
3, 130560, Note_off_c, 0, 40, 80
3, 130560, Note_on_c, 0, 64, 95
3, 130560, Note_on_c, 0, 59, 95
3, 130560, Note_on_c, 0, 56, 95
3, 130560, Note_on_c, 0, 52, 95
3, 130560, Note_on_c, 0, 47, 95
3, 130560, Note_on_c, 0, 40, 95
3, 130800, Note_off_c, 0, 64, 80
3, 130800, Note_off_c, 0, 59, 80
3, 130800, Note_off_c, 0, 56, 80
3, 130800, Note_off_c, 0, 52, 80
3, 130800, Note_off_c, 0, 47, 80
3, 130800, Note_off_c, 0, 40, 80
3, 130800, Note_on_c, 0, 64, 95
3, 130800, Note_on_c, 0, 59, 95
3, 130800, Note_on_c, 0, 56, 95
3, 130800, Note_on_c, 0, 52, 95
3, 130800, Note_on_c, 0, 47, 95
3, 130800, Note_on_c, 0, 40, 95
3, 130820, Note_off_c, 0, 64, 80
3, 130820, Note_off_c, 0, 59, 80
3, 131040, Note_off_c, 0, 56, 80
3, 131040, Note_off_c, 0, 52, 80
3, 131040, Note_off_c, 0, 47, 80
3, 131040, Note_off_c, 0, 40, 80
3, 131040, Note_on_c, 0, 64, 95
3, 131040, Note_on_c, 0, 59, 95
3, 131040, Note_on_c, 0, 56, 95
3, 131040, Note_on_c, 0, 52, 95
3, 131040, Note_on_c, 0, 47, 95
3, 131040, Note_on_c, 0, 40, 95
3, 131280, Note_off_c, 0, 64, 80
3, 131280, Note_off_c, 0, 59, 80
3, 131280, Note_off_c, 0, 56, 80
3, 131280, Note_off_c, 0, 52, 80
3, 131280, Note_off_c, 0, 47, 80
3, 131280, Note_off_c, 0, 40, 80
3, 131280, Note_on_c, 0, 64, 95
3, 131280, Note_on_c, 0, 59, 95
3, 131280, Note_on_c, 0, 56, 95
3, 131280, Note_on_c, 0, 52, 95
3, 131280, Note_on_c, 0, 47, 95
3, 131280, Note_on_c, 0, 40, 95
3, 131400, Note_off_c, 0, 64, 80
3, 131400, Note_off_c, 0, 59, 80
3, 131400, Note_off_c, 0, 56, 80
3, 131400, Note_off_c, 0, 52, 80
3, 131400, Note_off_c, 0, 47, 80
3, 131400, Note_off_c, 0, 40, 80
3, 131400, Note_on_c, 0, 55, 95
3, 131400, Note_on_c, 0, 50, 95
3, 131400, Note_on_c, 0, 45, 95
3, 131520, Note_off_c, 0, 55, 80
3, 131520, Note_off_c, 0, 50, 80
3, 131520, Note_off_c, 0, 45, 80
3, 131520, Note_on_c, 0, 68, 95
3, 131520, Note_on_c, 0, 64, 95
3, 131520, Note_on_c, 0, 61, 95
3, 131520, Note_on_c, 0, 56, 95
3, 131520, Note_on_c, 0, 49, 95
3, 131520, Note_on_c, 0, 44, 95
3, 131760, Note_off_c, 0, 68, 80
3, 131760, Note_off_c, 0, 64, 80
3, 131760, Note_off_c, 0, 61, 80
3, 131760, Note_off_c, 0, 56, 80
3, 131760, Note_off_c, 0, 49, 80
3, 131760, Note_off_c, 0, 44, 80
3, 131760, Note_on_c, 0, 68, 95
3, 131760, Note_on_c, 0, 64, 95
3, 131760, Note_on_c, 0, 61, 95
3, 131760, Note_on_c, 0, 56, 95
3, 131760, Note_on_c, 0, 49, 95
3, 131760, Note_on_c, 0, 44, 95
3, 131780, Note_off_c, 0, 68, 80
3, 132000, Note_off_c, 0, 64, 80
3, 132000, Note_off_c, 0, 61, 80
3, 132000, Note_off_c, 0, 56, 80
3, 132000, Note_off_c, 0, 49, 80
3, 132000, Note_off_c, 0, 44, 80
3, 132000, Note_on_c, 0, 68, 95
3, 132000, Note_on_c, 0, 64, 95
3, 132000, Note_on_c, 0, 61, 95
3, 132000, Note_on_c, 0, 56, 95
3, 132000, Note_on_c, 0, 49, 95
3, 132000, Note_on_c, 0, 44, 95
3, 132240, Note_off_c, 0, 68, 80
3, 132240, Note_off_c, 0, 64, 80
3, 132240, Note_off_c, 0, 61, 80
3, 132240, Note_off_c, 0, 56, 80
3, 132240, Note_off_c, 0, 49, 80
3, 132240, Note_off_c, 0, 44, 80
3, 132240, Note_on_c, 0, 68, 95
3, 132240, Note_on_c, 0, 64, 95
3, 132240, Note_on_c, 0, 61, 95
3, 132240, Note_on_c, 0, 56, 95
3, 132240, Note_on_c, 0, 49, 95
3, 132240, Note_on_c, 0, 44, 95
3, 132360, Note_off_c, 0, 68, 80
3, 132360, Note_off_c, 0, 64, 80
3, 132360, Note_off_c, 0, 61, 80
3, 132360, Note_off_c, 0, 56, 80
3, 132360, Note_off_c, 0, 49, 80
3, 132360, Note_off_c, 0, 44, 80
3, 132360, Note_on_c, 0, 50, 95
3, 132360, Note_on_c, 0, 45, 95
3, 132360, Note_on_c, 0, 40, 95
3, 132480, Note_off_c, 0, 50, 80
3, 132480, Note_off_c, 0, 45, 80
3, 132480, Note_off_c, 0, 40, 80
3, 132480, Note_on_c, 0, 68, 95
3, 132480, Note_on_c, 0, 63, 95
3, 132480, Note_on_c, 0, 60, 95
3, 132480, Note_on_c, 0, 56, 95
3, 132480, Note_on_c, 0, 51, 95
3, 132480, Note_on_c, 0, 44, 95
3, 132720, Note_off_c, 0, 68, 80
3, 132720, Note_off_c, 0, 63, 80
3, 132720, Note_off_c, 0, 60, 80
3, 132720, Note_off_c, 0, 56, 80
3, 132720, Note_off_c, 0, 51, 80
3, 132720, Note_off_c, 0, 44, 80
3, 132720, Note_on_c, 0, 68, 95
3, 132720, Note_on_c, 0, 63, 95
3, 132720, Note_on_c, 0, 60, 95
3, 132720, Note_on_c, 0, 56, 95
3, 132720, Note_on_c, 0, 51, 95
3, 132720, Note_on_c, 0, 44, 95
3, 132740, Note_off_c, 0, 68, 80
3, 132960, Note_off_c, 0, 63, 80
3, 132960, Note_off_c, 0, 60, 80
3, 132960, Note_off_c, 0, 56, 80
3, 132960, Note_off_c, 0, 51, 80
3, 132960, Note_off_c, 0, 44, 80
3, 132960, Note_on_c, 0, 68, 95
3, 132960, Note_on_c, 0, 63, 95
3, 132960, Note_on_c, 0, 60, 95
3, 132960, Note_on_c, 0, 56, 95
3, 132960, Note_on_c, 0, 51, 95
3, 132960, Note_on_c, 0, 44, 95
3, 133200, Note_off_c, 0, 68, 80
3, 133200, Note_off_c, 0, 63, 80
3, 133200, Note_off_c, 0, 60, 80
3, 133200, Note_off_c, 0, 56, 80
3, 133200, Note_off_c, 0, 51, 80
3, 133200, Note_off_c, 0, 44, 80
3, 133200, Note_on_c, 1, 68, 95
3, 133200, Note_on_c, 1, 63, 95
3, 133200, Note_on_c, 1, 60, 95
3, 133200, Note_on_c, 1, 56, 95
3, 133200, Note_on_c, 1, 51, 95
3, 133200, Note_on_c, 1, 44, 95
3, 133296, Pitch_bend_c, 1, 8832
3, 133296, Pitch_bend_c, 1, 8832
3, 133296, Pitch_bend_c, 1, 8832
3, 133296, Pitch_bend_c, 1, 8832
3, 133296, Pitch_bend_c, 1, 8832
3, 133296, Pitch_bend_c, 1, 8832
3, 133320, Note_off_c, 1, 68, 80
3, 133320, Pitch_bend_c, 1, 8192
3, 133320, Note_off_c, 1, 63, 80
3, 133320, Pitch_bend_c, 1, 8192
3, 133320, Note_off_c, 1, 60, 80
3, 133320, Pitch_bend_c, 1, 8192
3, 133320, Note_off_c, 1, 56, 80
3, 133320, Pitch_bend_c, 1, 8192
3, 133320, Note_off_c, 1, 51, 80
3, 133320, Pitch_bend_c, 1, 8192
3, 133320, Note_off_c, 1, 44, 80
3, 133320, Pitch_bend_c, 1, 8192
3, 133320, Note_on_c, 0, 69, 76
3, 133320, Note_on_c, 0, 64, 76
3, 133320, Note_on_c, 0, 61, 76
3, 133320, Note_on_c, 0, 57, 76
3, 133320, Note_on_c, 0, 52, 76
3, 133320, Note_on_c, 0, 45, 76
3, 133440, Note_off_c, 0, 69, 80
3, 133440, Note_off_c, 0, 64, 80
3, 133440, Note_off_c, 0, 61, 80
3, 133440, Note_off_c, 0, 57, 80
3, 133440, Note_off_c, 0, 52, 80
3, 133440, Note_off_c, 0, 45, 80
3, 133440, Note_on_c, 0, 69, 95
3, 133440, Note_on_c, 0, 64, 95
3, 133440, Note_on_c, 0, 61, 95
3, 133440, Note_on_c, 0, 57, 95
3, 133440, Note_on_c, 0, 52, 95
3, 133440, Note_on_c, 0, 45, 95
3, 133560, Note_off_c, 0, 69, 80
3, 133560, Note_off_c, 0, 64, 80
3, 133560, Note_off_c, 0, 61, 80
3, 133560, Note_off_c, 0, 57, 80
3, 133560, Note_off_c, 0, 52, 80
3, 133560, Note_off_c, 0, 45, 80
3, 133560, Note_on_c, 0, 69, 95
3, 133560, Note_on_c, 0, 64, 95
3, 133560, Note_on_c, 0, 61, 95
3, 133560, Note_on_c, 0, 57, 95
3, 133560, Note_on_c, 0, 52, 95
3, 133560, Note_on_c, 0, 45, 95
3, 133680, Note_off_c, 0, 69, 80
3, 133680, Note_off_c, 0, 64, 80
3, 133680, Note_off_c, 0, 61, 80
3, 133680, Note_off_c, 0, 57, 80
3, 133680, Note_off_c, 0, 52, 80
3, 133680, Note_off_c, 0, 45, 80
3, 133680, Note_on_c, 0, 69, 95
3, 133680, Note_on_c, 0, 64, 95
3, 133680, Note_on_c, 0, 61, 95
3, 133680, Note_on_c, 0, 57, 95
3, 133680, Note_on_c, 0, 52, 95
3, 133680, Note_on_c, 0, 45, 95
3, 133800, Note_off_c, 0, 69, 80
3, 133800, Note_off_c, 0, 64, 80
3, 133800, Note_off_c, 0, 61, 80
3, 133800, Note_off_c, 0, 57, 80
3, 133800, Note_off_c, 0, 52, 80
3, 133800, Note_off_c, 0, 45, 80
3, 133800, Note_on_c, 1, 68, 95
3, 133800, Note_on_c, 1, 63, 95
3, 133800, Note_on_c, 1, 60, 95
3, 133800, Note_on_c, 1, 56, 95
3, 133800, Note_on_c, 1, 51, 95
3, 133800, Note_on_c, 1, 44, 95
3, 133896, Pitch_bend_c, 1, 8832
3, 133896, Pitch_bend_c, 1, 8832
3, 133896, Pitch_bend_c, 1, 8832
3, 133896, Pitch_bend_c, 1, 8832
3, 133896, Pitch_bend_c, 1, 8832
3, 133896, Pitch_bend_c, 1, 8832
3, 133920, Note_off_c, 1, 68, 80
3, 133920, Pitch_bend_c, 1, 8192
3, 133920, Note_off_c, 1, 63, 80
3, 133920, Pitch_bend_c, 1, 8192
3, 133920, Note_off_c, 1, 60, 80
3, 133920, Pitch_bend_c, 1, 8192
3, 133920, Note_off_c, 1, 56, 80
3, 133920, Pitch_bend_c, 1, 8192
3, 133920, Note_off_c, 1, 51, 80
3, 133920, Pitch_bend_c, 1, 8192
3, 133920, Note_off_c, 1, 44, 80
3, 133920, Pitch_bend_c, 1, 8192
3, 133920, Note_on_c, 0, 69, 76
3, 133920, Note_on_c, 0, 64, 76
3, 133920, Note_on_c, 0, 61, 76
3, 133920, Note_on_c, 0, 57, 76
3, 133920, Note_on_c, 0, 52, 76
3, 133920, Note_on_c, 0, 45, 76
3, 134040, Note_off_c, 0, 69, 80
3, 134040, Note_off_c, 0, 64, 80
3, 134040, Note_off_c, 0, 61, 80
3, 134040, Note_off_c, 0, 57, 80
3, 134040, Note_off_c, 0, 52, 80
3, 134040, Note_off_c, 0, 45, 80
3, 134040, Note_on_c, 0, 69, 95
3, 134040, Note_on_c, 0, 64, 95
3, 134040, Note_on_c, 0, 61, 95
3, 134040, Note_on_c, 0, 57, 95
3, 134040, Note_on_c, 0, 52, 95
3, 134040, Note_on_c, 0, 45, 95
3, 134160, Note_off_c, 0, 69, 80
3, 134160, Note_off_c, 0, 64, 80
3, 134160, Note_off_c, 0, 61, 80
3, 134160, Note_off_c, 0, 57, 80
3, 134160, Note_off_c, 0, 52, 80
3, 134160, Note_off_c, 0, 45, 80
3, 134160, Note_on_c, 0, 69, 95
3, 134160, Note_on_c, 0, 64, 95
3, 134160, Note_on_c, 0, 61, 95
3, 134160, Note_on_c, 0, 57, 95
3, 134160, Note_on_c, 0, 52, 95
3, 134160, Note_on_c, 0, 45, 95
3, 134280, Note_off_c, 0, 69, 80
3, 134280, Note_off_c, 0, 64, 80
3, 134280, Note_off_c, 0, 61, 80
3, 134280, Note_off_c, 0, 57, 80
3, 134280, Note_off_c, 0, 52, 80
3, 134280, Note_off_c, 0, 45, 80
3, 134280, Note_on_c, 0, 55, 95
3, 134280, Note_on_c, 0, 50, 95
3, 134280, Note_on_c, 0, 45, 95
3, 134280, Note_on_c, 0, 40, 95
3, 134400, Note_off_c, 0, 55, 80
3, 134400, Note_off_c, 0, 50, 80
3, 134400, Note_off_c, 0, 45, 80
3, 134400, Note_off_c, 0, 40, 80
3, 134400, Note_on_c, 0, 64, 95
3, 134400, Note_on_c, 0, 59, 95
3, 134400, Note_on_c, 0, 56, 95
3, 134400, Note_on_c, 0, 52, 95
3, 134400, Note_on_c, 0, 47, 95
3, 134400, Note_on_c, 0, 40, 95
3, 134640, Note_off_c, 0, 64, 80
3, 134640, Note_off_c, 0, 59, 80
3, 134640, Note_off_c, 0, 56, 80
3, 134640, Note_off_c, 0, 52, 80
3, 134640, Note_off_c, 0, 47, 80
3, 134640, Note_off_c, 0, 40, 80
3, 134640, Note_on_c, 0, 64, 95
3, 134640, Note_on_c, 0, 59, 95
3, 134640, Note_on_c, 0, 56, 95
3, 134640, Note_on_c, 0, 52, 95
3, 134640, Note_on_c, 0, 47, 95
3, 134640, Note_on_c, 0, 40, 95
3, 134660, Note_off_c, 0, 64, 80
3, 134660, Note_off_c, 0, 59, 80
3, 134880, Note_off_c, 0, 56, 80
3, 134880, Note_off_c, 0, 52, 80
3, 134880, Note_off_c, 0, 47, 80
3, 134880, Note_off_c, 0, 40, 80
3, 134880, Note_on_c, 0, 64, 95
3, 134880, Note_on_c, 0, 59, 95
3, 134880, Note_on_c, 0, 56, 95
3, 134880, Note_on_c, 0, 52, 95
3, 134880, Note_on_c, 0, 47, 95
3, 134880, Note_on_c, 0, 40, 95
3, 135120, Note_off_c, 0, 64, 80
3, 135120, Note_off_c, 0, 59, 80
3, 135120, Note_off_c, 0, 56, 80
3, 135120, Note_off_c, 0, 52, 80
3, 135120, Note_off_c, 0, 47, 80
3, 135120, Note_off_c, 0, 40, 80
3, 135120, Note_on_c, 0, 64, 95
3, 135120, Note_on_c, 0, 59, 95
3, 135120, Note_on_c, 0, 56, 95
3, 135120, Note_on_c, 0, 52, 95
3, 135120, Note_on_c, 0, 47, 95
3, 135120, Note_on_c, 0, 40, 95
3, 135240, Note_off_c, 0, 64, 80
3, 135240, Note_off_c, 0, 59, 80
3, 135240, Note_off_c, 0, 56, 80
3, 135240, Note_off_c, 0, 52, 80
3, 135240, Note_off_c, 0, 47, 80
3, 135240, Note_off_c, 0, 40, 80
3, 135240, Note_on_c, 0, 55, 95
3, 135240, Note_on_c, 0, 50, 95
3, 135240, Note_on_c, 0, 45, 95
3, 135360, Note_off_c, 0, 55, 80
3, 135360, Note_off_c, 0, 50, 80
3, 135360, Note_off_c, 0, 45, 80
3, 135360, Note_on_c, 0, 68, 95
3, 135360, Note_on_c, 0, 64, 95
3, 135360, Note_on_c, 0, 61, 95
3, 135360, Note_on_c, 0, 56, 95
3, 135360, Note_on_c, 0, 49, 95
3, 135360, Note_on_c, 0, 44, 95
3, 135600, Note_off_c, 0, 68, 80
3, 135600, Note_off_c, 0, 64, 80
3, 135600, Note_off_c, 0, 61, 80
3, 135600, Note_off_c, 0, 56, 80
3, 135600, Note_off_c, 0, 49, 80
3, 135600, Note_off_c, 0, 44, 80
3, 135600, Note_on_c, 0, 68, 95
3, 135600, Note_on_c, 0, 64, 95
3, 135600, Note_on_c, 0, 61, 95
3, 135600, Note_on_c, 0, 56, 95
3, 135600, Note_on_c, 0, 49, 95
3, 135600, Note_on_c, 0, 44, 95
3, 135620, Note_off_c, 0, 68, 80
3, 135840, Note_off_c, 0, 64, 80
3, 135840, Note_off_c, 0, 61, 80
3, 135840, Note_off_c, 0, 56, 80
3, 135840, Note_off_c, 0, 49, 80
3, 135840, Note_off_c, 0, 44, 80
3, 135840, Note_on_c, 0, 68, 95
3, 135840, Note_on_c, 0, 64, 95
3, 135840, Note_on_c, 0, 61, 95
3, 135840, Note_on_c, 0, 56, 95
3, 135840, Note_on_c, 0, 49, 95
3, 135840, Note_on_c, 0, 44, 95
3, 136080, Note_off_c, 0, 68, 80
3, 136080, Note_off_c, 0, 64, 80
3, 136080, Note_off_c, 0, 61, 80
3, 136080, Note_off_c, 0, 56, 80
3, 136080, Note_off_c, 0, 49, 80
3, 136080, Note_off_c, 0, 44, 80
3, 136080, Note_on_c, 0, 68, 95
3, 136080, Note_on_c, 0, 64, 95
3, 136080, Note_on_c, 0, 61, 95
3, 136080, Note_on_c, 0, 56, 95
3, 136080, Note_on_c, 0, 49, 95
3, 136080, Note_on_c, 0, 44, 95
3, 136200, Note_off_c, 0, 68, 80
3, 136200, Note_off_c, 0, 64, 80
3, 136200, Note_off_c, 0, 61, 80
3, 136200, Note_off_c, 0, 56, 80
3, 136200, Note_off_c, 0, 49, 80
3, 136200, Note_off_c, 0, 44, 80
3, 136200, Note_on_c, 0, 50, 95
3, 136200, Note_on_c, 0, 45, 95
3, 136200, Note_on_c, 0, 40, 95
3, 136320, Note_off_c, 0, 50, 80
3, 136320, Note_off_c, 0, 45, 80
3, 136320, Note_off_c, 0, 40, 80
3, 136320, Note_on_c, 0, 68, 95
3, 136320, Note_on_c, 0, 63, 95
3, 136320, Note_on_c, 0, 60, 95
3, 136320, Note_on_c, 0, 56, 95
3, 136320, Note_on_c, 0, 51, 95
3, 136320, Note_on_c, 0, 44, 95
3, 136560, Note_off_c, 0, 68, 80
3, 136560, Note_off_c, 0, 63, 80
3, 136560, Note_off_c, 0, 60, 80
3, 136560, Note_off_c, 0, 56, 80
3, 136560, Note_off_c, 0, 51, 80
3, 136560, Note_off_c, 0, 44, 80
3, 136560, Note_on_c, 0, 68, 95
3, 136560, Note_on_c, 0, 63, 95
3, 136560, Note_on_c, 0, 60, 95
3, 136560, Note_on_c, 0, 56, 95
3, 136560, Note_on_c, 0, 51, 95
3, 136560, Note_on_c, 0, 44, 95
3, 136580, Note_off_c, 0, 68, 80
3, 136800, Note_off_c, 0, 63, 80
3, 136800, Note_off_c, 0, 60, 80
3, 136800, Note_off_c, 0, 56, 80
3, 136800, Note_off_c, 0, 51, 80
3, 136800, Note_off_c, 0, 44, 80
3, 136800, Note_on_c, 0, 68, 95
3, 136800, Note_on_c, 0, 63, 95
3, 136800, Note_on_c, 0, 60, 95
3, 136800, Note_on_c, 0, 56, 95
3, 136800, Note_on_c, 0, 51, 95
3, 136800, Note_on_c, 0, 44, 95
3, 137040, Note_off_c, 0, 68, 80
3, 137040, Note_off_c, 0, 63, 80
3, 137040, Note_off_c, 0, 60, 80
3, 137040, Note_off_c, 0, 56, 80
3, 137040, Note_off_c, 0, 51, 80
3, 137040, Note_off_c, 0, 44, 80
3, 137040, Note_on_c, 1, 68, 95
3, 137040, Note_on_c, 1, 63, 95
3, 137040, Note_on_c, 1, 60, 95
3, 137040, Note_on_c, 1, 56, 95
3, 137040, Note_on_c, 1, 51, 95
3, 137040, Note_on_c, 1, 44, 95
3, 137136, Pitch_bend_c, 1, 8832
3, 137136, Pitch_bend_c, 1, 8832
3, 137136, Pitch_bend_c, 1, 8832
3, 137136, Pitch_bend_c, 1, 8832
3, 137136, Pitch_bend_c, 1, 8832
3, 137136, Pitch_bend_c, 1, 8832
3, 137160, Note_off_c, 1, 68, 80
3, 137160, Pitch_bend_c, 1, 8192
3, 137160, Note_off_c, 1, 63, 80
3, 137160, Pitch_bend_c, 1, 8192
3, 137160, Note_off_c, 1, 60, 80
3, 137160, Pitch_bend_c, 1, 8192
3, 137160, Note_off_c, 1, 56, 80
3, 137160, Pitch_bend_c, 1, 8192
3, 137160, Note_off_c, 1, 51, 80
3, 137160, Pitch_bend_c, 1, 8192
3, 137160, Note_off_c, 1, 44, 80
3, 137160, Pitch_bend_c, 1, 8192
3, 137160, Note_on_c, 0, 69, 76
3, 137160, Note_on_c, 0, 64, 76
3, 137160, Note_on_c, 0, 61, 76
3, 137160, Note_on_c, 0, 57, 76
3, 137160, Note_on_c, 0, 52, 76
3, 137160, Note_on_c, 0, 45, 76
3, 137280, Note_off_c, 0, 69, 80
3, 137280, Note_off_c, 0, 64, 80
3, 137280, Note_off_c, 0, 61, 80
3, 137280, Note_off_c, 0, 57, 80
3, 137280, Note_off_c, 0, 52, 80
3, 137280, Note_off_c, 0, 45, 80
3, 137280, Note_on_c, 0, 69, 95
3, 137280, Note_on_c, 0, 64, 95
3, 137280, Note_on_c, 0, 61, 95
3, 137280, Note_on_c, 0, 57, 95
3, 137280, Note_on_c, 0, 52, 95
3, 137280, Note_on_c, 0, 45, 95
3, 137400, Note_off_c, 0, 69, 80
3, 137400, Note_off_c, 0, 64, 80
3, 137400, Note_off_c, 0, 61, 80
3, 137400, Note_off_c, 0, 57, 80
3, 137400, Note_off_c, 0, 52, 80
3, 137400, Note_off_c, 0, 45, 80
3, 137400, Note_on_c, 0, 69, 95
3, 137400, Note_on_c, 0, 64, 95
3, 137400, Note_on_c, 0, 61, 95
3, 137400, Note_on_c, 0, 57, 95
3, 137400, Note_on_c, 0, 52, 95
3, 137400, Note_on_c, 0, 45, 95
3, 137520, Note_off_c, 0, 69, 80
3, 137520, Note_off_c, 0, 64, 80
3, 137520, Note_off_c, 0, 61, 80
3, 137520, Note_off_c, 0, 57, 80
3, 137520, Note_off_c, 0, 52, 80
3, 137520, Note_off_c, 0, 45, 80
3, 137520, Note_on_c, 0, 69, 95
3, 137520, Note_on_c, 0, 64, 95
3, 137520, Note_on_c, 0, 61, 95
3, 137520, Note_on_c, 0, 57, 95
3, 137520, Note_on_c, 0, 52, 95
3, 137520, Note_on_c, 0, 45, 95
3, 137640, Note_off_c, 0, 69, 80
3, 137640, Note_off_c, 0, 64, 80
3, 137640, Note_off_c, 0, 61, 80
3, 137640, Note_off_c, 0, 57, 80
3, 137640, Note_off_c, 0, 52, 80
3, 137640, Note_off_c, 0, 45, 80
3, 137640, Note_on_c, 1, 68, 95
3, 137640, Note_on_c, 1, 63, 95
3, 137640, Note_on_c, 1, 60, 95
3, 137640, Note_on_c, 1, 56, 95
3, 137640, Note_on_c, 1, 51, 95
3, 137640, Note_on_c, 1, 44, 95
3, 137736, Pitch_bend_c, 1, 8832
3, 137736, Pitch_bend_c, 1, 8832
3, 137736, Pitch_bend_c, 1, 8832
3, 137736, Pitch_bend_c, 1, 8832
3, 137736, Pitch_bend_c, 1, 8832
3, 137736, Pitch_bend_c, 1, 8832
3, 137760, Note_off_c, 1, 68, 80
3, 137760, Pitch_bend_c, 1, 8192
3, 137760, Note_off_c, 1, 63, 80
3, 137760, Pitch_bend_c, 1, 8192
3, 137760, Note_off_c, 1, 60, 80
3, 137760, Pitch_bend_c, 1, 8192
3, 137760, Note_off_c, 1, 56, 80
3, 137760, Pitch_bend_c, 1, 8192
3, 137760, Note_off_c, 1, 51, 80
3, 137760, Pitch_bend_c, 1, 8192
3, 137760, Note_off_c, 1, 44, 80
3, 137760, Pitch_bend_c, 1, 8192
3, 137760, Note_on_c, 0, 69, 76
3, 137760, Note_on_c, 0, 64, 76
3, 137760, Note_on_c, 0, 61, 76
3, 137760, Note_on_c, 0, 57, 76
3, 137760, Note_on_c, 0, 52, 76
3, 137760, Note_on_c, 0, 45, 76
3, 137880, Note_off_c, 0, 69, 80
3, 137880, Note_off_c, 0, 64, 80
3, 137880, Note_off_c, 0, 61, 80
3, 137880, Note_off_c, 0, 57, 80
3, 137880, Note_off_c, 0, 52, 80
3, 137880, Note_off_c, 0, 45, 80
3, 137880, Note_on_c, 0, 69, 95
3, 137880, Note_on_c, 0, 64, 95
3, 137880, Note_on_c, 0, 61, 95
3, 137880, Note_on_c, 0, 57, 95
3, 137880, Note_on_c, 0, 52, 95
3, 137880, Note_on_c, 0, 45, 95
3, 138000, Note_off_c, 0, 69, 80
3, 138000, Note_off_c, 0, 64, 80
3, 138000, Note_off_c, 0, 61, 80
3, 138000, Note_off_c, 0, 57, 80
3, 138000, Note_off_c, 0, 52, 80
3, 138000, Note_off_c, 0, 45, 80
3, 138000, Note_on_c, 0, 69, 95
3, 138000, Note_on_c, 0, 64, 95
3, 138000, Note_on_c, 0, 61, 95
3, 138000, Note_on_c, 0, 57, 95
3, 138000, Note_on_c, 0, 52, 95
3, 138000, Note_on_c, 0, 45, 95
3, 138120, Note_off_c, 0, 69, 80
3, 138120, Note_off_c, 0, 64, 80
3, 138120, Note_off_c, 0, 61, 80
3, 138120, Note_off_c, 0, 57, 80
3, 138120, Note_off_c, 0, 52, 80
3, 138120, Note_off_c, 0, 45, 80
3, 138120, Note_on_c, 0, 55, 95
3, 138120, Note_on_c, 0, 50, 95
3, 138120, Note_on_c, 0, 45, 95
3, 138120, Note_on_c, 0, 40, 95
3, 138240, Note_off_c, 0, 55, 80
3, 138240, Note_off_c, 0, 50, 80
3, 138240, Note_off_c, 0, 45, 80
3, 138240, Note_off_c, 0, 40, 80
3, 138240, Note_on_c, 0, 64, 95
3, 138240, Note_on_c, 0, 59, 95
3, 138240, Note_on_c, 0, 56, 95
3, 138240, Note_on_c, 0, 52, 95
3, 138240, Note_on_c, 0, 47, 95
3, 138240, Note_on_c, 0, 40, 95
3, 138480, Note_off_c, 0, 64, 80
3, 138480, Note_off_c, 0, 59, 80
3, 138480, Note_off_c, 0, 56, 80
3, 138480, Note_off_c, 0, 52, 80
3, 138480, Note_off_c, 0, 47, 80
3, 138480, Note_off_c, 0, 40, 80
3, 138480, Note_on_c, 0, 64, 95
3, 138480, Note_on_c, 0, 59, 95
3, 138480, Note_on_c, 0, 56, 95
3, 138480, Note_on_c, 0, 52, 95
3, 138480, Note_on_c, 0, 47, 95
3, 138480, Note_on_c, 0, 40, 95
3, 138500, Note_off_c, 0, 64, 80
3, 138500, Note_off_c, 0, 59, 80
3, 138720, Note_off_c, 0, 56, 80
3, 138720, Note_off_c, 0, 52, 80
3, 138720, Note_off_c, 0, 47, 80
3, 138720, Note_off_c, 0, 40, 80
3, 138720, Note_on_c, 0, 64, 95
3, 138720, Note_on_c, 0, 59, 95
3, 138720, Note_on_c, 0, 56, 95
3, 138720, Note_on_c, 0, 52, 95
3, 138720, Note_on_c, 0, 47, 95
3, 138720, Note_on_c, 0, 40, 95
3, 138960, Note_off_c, 0, 64, 80
3, 138960, Note_off_c, 0, 59, 80
3, 138960, Note_off_c, 0, 56, 80
3, 138960, Note_off_c, 0, 52, 80
3, 138960, Note_off_c, 0, 47, 80
3, 138960, Note_off_c, 0, 40, 80
3, 138960, Note_on_c, 0, 64, 95
3, 138960, Note_on_c, 0, 59, 95
3, 138960, Note_on_c, 0, 56, 95
3, 138960, Note_on_c, 0, 52, 95
3, 138960, Note_on_c, 0, 47, 95
3, 138960, Note_on_c, 0, 40, 95
3, 139080, Note_off_c, 0, 64, 80
3, 139080, Note_off_c, 0, 59, 80
3, 139080, Note_off_c, 0, 56, 80
3, 139080, Note_off_c, 0, 52, 80
3, 139080, Note_off_c, 0, 47, 80
3, 139080, Note_off_c, 0, 40, 80
3, 139080, Note_on_c, 0, 55, 95
3, 139080, Note_on_c, 0, 50, 95
3, 139080, Note_on_c, 0, 45, 95
3, 139200, Note_off_c, 0, 55, 80
3, 139200, Note_off_c, 0, 50, 80
3, 139200, Note_off_c, 0, 45, 80
3, 139200, Note_on_c, 0, 68, 95
3, 139200, Note_on_c, 0, 64, 95
3, 139200, Note_on_c, 0, 61, 95
3, 139200, Note_on_c, 0, 56, 95
3, 139200, Note_on_c, 0, 49, 95
3, 139200, Note_on_c, 0, 44, 95
3, 139440, Note_off_c, 0, 68, 80
3, 139440, Note_off_c, 0, 64, 80
3, 139440, Note_off_c, 0, 61, 80
3, 139440, Note_off_c, 0, 56, 80
3, 139440, Note_off_c, 0, 49, 80
3, 139440, Note_off_c, 0, 44, 80
3, 139440, Note_on_c, 0, 68, 95
3, 139440, Note_on_c, 0, 64, 95
3, 139440, Note_on_c, 0, 61, 95
3, 139440, Note_on_c, 0, 56, 95
3, 139440, Note_on_c, 0, 49, 95
3, 139440, Note_on_c, 0, 44, 95
3, 139460, Note_off_c, 0, 68, 80
3, 139680, Note_off_c, 0, 64, 80
3, 139680, Note_off_c, 0, 61, 80
3, 139680, Note_off_c, 0, 56, 80
3, 139680, Note_off_c, 0, 49, 80
3, 139680, Note_off_c, 0, 44, 80
3, 139680, Note_on_c, 0, 68, 95
3, 139680, Note_on_c, 0, 64, 95
3, 139680, Note_on_c, 0, 61, 95
3, 139680, Note_on_c, 0, 56, 95
3, 139680, Note_on_c, 0, 49, 95
3, 139680, Note_on_c, 0, 44, 95
3, 139920, Note_off_c, 0, 68, 80
3, 139920, Note_off_c, 0, 64, 80
3, 139920, Note_off_c, 0, 61, 80
3, 139920, Note_off_c, 0, 56, 80
3, 139920, Note_off_c, 0, 49, 80
3, 139920, Note_off_c, 0, 44, 80
3, 139920, Note_on_c, 0, 68, 95
3, 139920, Note_on_c, 0, 64, 95
3, 139920, Note_on_c, 0, 61, 95
3, 139920, Note_on_c, 0, 56, 95
3, 139920, Note_on_c, 0, 49, 95
3, 139920, Note_on_c, 0, 44, 95
3, 140040, Note_off_c, 0, 68, 80
3, 140040, Note_off_c, 0, 64, 80
3, 140040, Note_off_c, 0, 61, 80
3, 140040, Note_off_c, 0, 56, 80
3, 140040, Note_off_c, 0, 49, 80
3, 140040, Note_off_c, 0, 44, 80
3, 140040, Note_on_c, 0, 50, 95
3, 140040, Note_on_c, 0, 45, 95
3, 140040, Note_on_c, 0, 40, 95
3, 140160, Note_off_c, 0, 50, 80
3, 140160, Note_off_c, 0, 45, 80
3, 140160, Note_off_c, 0, 40, 80
3, 140160, Note_on_c, 0, 68, 95
3, 140160, Note_on_c, 0, 63, 95
3, 140160, Note_on_c, 0, 60, 95
3, 140160, Note_on_c, 0, 56, 95
3, 140160, Note_on_c, 0, 51, 95
3, 140160, Note_on_c, 0, 44, 95
3, 140400, Note_off_c, 0, 68, 80
3, 140400, Note_off_c, 0, 63, 80
3, 140400, Note_off_c, 0, 60, 80
3, 140400, Note_off_c, 0, 56, 80
3, 140400, Note_off_c, 0, 51, 80
3, 140400, Note_off_c, 0, 44, 80
3, 140400, Note_on_c, 0, 68, 95
3, 140400, Note_on_c, 0, 63, 95
3, 140400, Note_on_c, 0, 60, 95
3, 140400, Note_on_c, 0, 56, 95
3, 140400, Note_on_c, 0, 51, 95
3, 140400, Note_on_c, 0, 44, 95
3, 140420, Note_off_c, 0, 68, 80
3, 140640, Note_off_c, 0, 63, 80
3, 140640, Note_off_c, 0, 60, 80
3, 140640, Note_off_c, 0, 56, 80
3, 140640, Note_off_c, 0, 51, 80
3, 140640, Note_off_c, 0, 44, 80
3, 140640, End_track
4, 0, Start_track
4, 0, Title_t, "Lead"
4, 0, Control_c, 3, 100, 0
4, 0, Control_c, 3, 101, 0
4, 0, Control_c, 3, 6, 12
4, 0, Pitch_bend_c, 3, 8192
4, 0, Control_c, 3, 101, 0
4, 0, Control_c, 3, 100, 1
4, 0, Control_c, 3, 6, 64
4, 0, Control_c, 3, 38, 0
4, 0, Control_c, 3, 101, 127
4, 0, Control_c, 3, 100, 127
4, 0, Control_c, 2, 100, 0
4, 0, Control_c, 2, 101, 0
4, 0, Control_c, 2, 6, 12
4, 0, Pitch_bend_c, 2, 8192
4, 0, Control_c, 2, 101, 0
4, 0, Control_c, 2, 100, 1
4, 0, Control_c, 2, 6, 64
4, 0, Control_c, 2, 38, 0
4, 0, Control_c, 2, 101, 127
4, 0, Control_c, 2, 100, 127
4, 0, Control_c, 3, 101, 0
4, 0, Control_c, 3, 100, 2
4, 0, Control_c, 3, 6, 64
4, 0, Control_c, 3, 101, 127
4, 0, Control_c, 3, 100, 127
4, 0, Control_c, 2, 101, 0
4, 0, Control_c, 2, 100, 2
4, 0, Control_c, 2, 6, 64
4, 0, Control_c, 2, 101, 127
4, 0, Control_c, 2, 100, 127
4, 0, Program_c, 3, 30
4, 0, Program_c, 2, 30
4, 0, Control_c, 3, 0, 0
4, 0, Control_c, 2, 0, 0
4, 0, Control_c, 3, 7, 88
4, 0, Control_c, 2, 7, 88
4, 0, Control_c, 3, 10, 48
4, 0, Control_c, 2, 10, 48
4, 0, Control_c, 3, 93, 64
4, 0, Control_c, 2, 93, 64
4, 0, Control_c, 3, 91, 16
4, 0, Control_c, 2, 91, 16
4, 0, Control_c, 3, 92, 64
4, 0, Control_c, 2, 92, 64
4, 0, Control_c, 3, 95, 0
4, 0, Control_c, 2, 95, 0
4, 9600, Note_on_c, 2, 64, 95
4, 9840, Note_off_c, 2, 64, 80
4, 9840, Note_on_c, 2, 68, 95
4, 10080, Note_off_c, 2, 68, 80
4, 10080, Note_on_c, 2, 64, 95
4, 10320, Note_off_c, 2, 64, 80
4, 10320, Note_on_c, 2, 68, 95
4, 10560, Note_off_c, 2, 68, 80
4, 10560, Note_on_c, 2, 64, 95
4, 10800, Note_off_c, 2, 64, 80
4, 10800, Note_on_c, 2, 68, 95
4, 11040, Note_off_c, 2, 68, 80
4, 11040, Note_on_c, 2, 64, 95
4, 11280, Note_off_c, 2, 64, 80
4, 11280, Note_on_c, 2, 68, 95
4, 11520, Note_off_c, 2, 68, 80
4, 11520, Note_on_c, 2, 63, 95
4, 11760, Note_off_c, 2, 63, 80
4, 11760, Note_on_c, 2, 68, 95
4, 12000, Note_off_c, 2, 68, 80
4, 12000, Note_on_c, 2, 63, 95
4, 12240, Note_off_c, 2, 63, 80
4, 12240, Note_on_c, 2, 68, 95
4, 12480, Note_off_c, 2, 68, 80
4, 12480, Note_on_c, 2, 63, 95
4, 12600, Note_off_c, 2, 63, 80
4, 12600, Note_on_c, 2, 64, 76
4, 12720, Note_off_c, 2, 64, 80
4, 12720, Note_on_c, 2, 64, 95
4, 12840, Note_off_c, 2, 64, 80
4, 12840, Note_on_c, 2, 64, 95
4, 12960, Note_off_c, 2, 64, 80
4, 12960, Note_on_c, 2, 63, 95
4, 13080, Note_off_c, 2, 63, 80
4, 13080, Note_on_c, 2, 64, 76
4, 13200, Note_off_c, 2, 64, 80
4, 13200, Note_on_c, 2, 64, 95
4, 13320, Note_off_c, 2, 64, 80
4, 13320, Note_on_c, 2, 64, 95
4, 13440, Note_off_c, 2, 64, 80
4, 13440, Note_on_c, 2, 64, 95
4, 13680, Note_off_c, 2, 64, 80
4, 13680, Note_on_c, 2, 68, 95
4, 13920, Note_off_c, 2, 68, 80
4, 13920, Note_on_c, 2, 64, 95
4, 14160, Note_off_c, 2, 64, 80
4, 14160, Note_on_c, 2, 68, 95
4, 14400, Note_off_c, 2, 68, 80
4, 14400, Note_on_c, 2, 64, 95
4, 14640, Note_off_c, 2, 64, 80
4, 14640, Note_on_c, 2, 68, 95
4, 14880, Note_off_c, 2, 68, 80
4, 14880, Note_on_c, 2, 64, 95
4, 15120, Note_off_c, 2, 64, 80
4, 15120, Note_on_c, 2, 68, 95
4, 15360, Note_off_c, 2, 68, 80
4, 15360, Note_on_c, 2, 63, 95
4, 15600, Note_off_c, 2, 63, 80
4, 15600, Note_on_c, 2, 68, 95
4, 15840, Note_off_c, 2, 68, 80
4, 15840, Note_on_c, 2, 63, 95
4, 16080, Note_off_c, 2, 63, 80
4, 16080, Note_on_c, 2, 68, 95
4, 16320, Note_off_c, 2, 68, 80
4, 16320, Note_on_c, 2, 63, 95
4, 16440, Note_off_c, 2, 63, 80
4, 16440, Note_on_c, 2, 64, 76
4, 16560, Note_off_c, 2, 64, 80
4, 16560, Note_on_c, 2, 64, 95
4, 16680, Note_off_c, 2, 64, 80
4, 16680, Note_on_c, 2, 64, 95
4, 16800, Note_off_c, 2, 64, 80
4, 16800, Note_on_c, 2, 63, 95
4, 16920, Note_off_c, 2, 63, 80
4, 16920, Note_on_c, 2, 64, 76
4, 17040, Note_off_c, 2, 64, 80
4, 17040, Note_on_c, 2, 64, 95
4, 17160, Note_off_c, 2, 64, 80
4, 17160, Note_on_c, 2, 64, 95
4, 17280, Note_off_c, 2, 64, 80
4, 17280, Note_on_c, 2, 64, 95
4, 17520, Note_off_c, 2, 64, 80
4, 17520, Note_on_c, 2, 68, 95
4, 17760, Note_off_c, 2, 68, 80
4, 17760, Note_on_c, 2, 64, 95
4, 18000, Note_off_c, 2, 64, 80
4, 18000, Note_on_c, 2, 68, 95
4, 18240, Note_off_c, 2, 68, 80
4, 18240, Note_on_c, 2, 64, 95
4, 18480, Note_off_c, 2, 64, 80
4, 18480, Note_on_c, 2, 68, 95
4, 18720, Note_off_c, 2, 68, 80
4, 18720, Note_on_c, 2, 64, 95
4, 18960, Note_off_c, 2, 64, 80
4, 18960, Note_on_c, 2, 68, 95
4, 19200, Note_off_c, 2, 68, 80
4, 19200, Note_on_c, 2, 63, 95
4, 19440, Note_off_c, 2, 63, 80
4, 19440, Note_on_c, 2, 68, 95
4, 19680, Note_off_c, 2, 68, 80
4, 19680, Note_on_c, 2, 63, 95
4, 19920, Note_off_c, 2, 63, 80
4, 19920, Note_on_c, 2, 68, 95
4, 20160, Note_off_c, 2, 68, 80
4, 20160, Note_on_c, 2, 63, 95
4, 20280, Note_off_c, 2, 63, 80
4, 20280, Note_on_c, 2, 64, 76
4, 20400, Note_off_c, 2, 64, 80
4, 20400, Note_on_c, 2, 64, 95
4, 20520, Note_off_c, 2, 64, 80
4, 20520, Note_on_c, 2, 64, 95
4, 20640, Note_off_c, 2, 64, 80
4, 20640, Note_on_c, 2, 63, 95
4, 20760, Note_off_c, 2, 63, 80
4, 20760, Note_on_c, 2, 64, 76
4, 20880, Note_off_c, 2, 64, 80
4, 20880, Note_on_c, 2, 64, 95
4, 21000, Note_off_c, 2, 64, 80
4, 21000, Note_on_c, 2, 64, 95
4, 21120, Note_off_c, 2, 64, 80
4, 21120, Note_on_c, 2, 64, 95
4, 21360, Note_off_c, 2, 64, 80
4, 21360, Note_on_c, 2, 68, 95
4, 21600, Note_off_c, 2, 68, 80
4, 21600, Note_on_c, 2, 64, 95
4, 21840, Note_off_c, 2, 64, 80
4, 21840, Note_on_c, 2, 68, 95
4, 22080, Note_off_c, 2, 68, 80
4, 22080, Note_on_c, 2, 64, 95
4, 22320, Note_off_c, 2, 64, 80
4, 22320, Note_on_c, 2, 68, 95
4, 22560, Note_off_c, 2, 68, 80
4, 22560, Note_on_c, 2, 64, 95
4, 22800, Note_off_c, 2, 64, 80
4, 22800, Note_on_c, 2, 68, 95
4, 23040, Note_off_c, 2, 68, 80
4, 23040, Note_on_c, 2, 63, 95
4, 23280, Note_off_c, 2, 63, 80
4, 23280, Note_on_c, 2, 68, 95
4, 23520, Note_off_c, 2, 68, 80
4, 23520, Note_on_c, 2, 63, 95
4, 23760, Note_off_c, 2, 63, 80
4, 23760, Note_on_c, 2, 68, 95
4, 24000, Note_off_c, 2, 68, 80
4, 24000, Note_on_c, 2, 63, 95
4, 24120, Note_off_c, 2, 63, 80
4, 24120, Note_on_c, 2, 64, 76
4, 24240, Note_off_c, 2, 64, 80
4, 24240, Note_on_c, 2, 64, 95
4, 24360, Note_off_c, 2, 64, 80
4, 24360, Note_on_c, 2, 64, 95
4, 24480, Note_off_c, 2, 64, 80
4, 24480, Note_on_c, 2, 63, 95
4, 24600, Note_off_c, 2, 63, 80
4, 24600, Note_on_c, 2, 64, 76
4, 24720, Note_off_c, 2, 64, 80
4, 24720, Note_on_c, 2, 64, 95
4, 24840, Note_off_c, 2, 64, 80
4, 24840, Note_on_c, 2, 64, 95
4, 24960, Note_off_c, 2, 64, 80
4, 24960, Note_on_c, 2, 64, 95
4, 25200, Note_off_c, 2, 64, 80
4, 25200, Note_on_c, 2, 68, 95
4, 25440, Note_off_c, 2, 68, 80
4, 25440, Note_on_c, 2, 64, 95
4, 25680, Note_off_c, 2, 64, 80
4, 25680, Note_on_c, 2, 68, 95
4, 25920, Note_off_c, 2, 68, 80
4, 25920, Note_on_c, 2, 64, 95
4, 26160, Note_off_c, 2, 64, 80
4, 26160, Note_on_c, 2, 68, 95
4, 26400, Note_off_c, 2, 68, 80
4, 26400, Note_on_c, 2, 64, 95
4, 26640, Note_off_c, 2, 64, 80
4, 26640, Note_on_c, 2, 68, 95
4, 26880, Note_off_c, 2, 68, 80
4, 26880, Note_on_c, 2, 63, 95
4, 27120, Note_off_c, 2, 63, 80
4, 27120, Note_on_c, 2, 68, 95
4, 27360, Note_off_c, 2, 68, 80
4, 27360, Note_on_c, 2, 63, 95
4, 27600, Note_off_c, 2, 63, 80
4, 27600, Note_on_c, 2, 68, 95
4, 27840, Note_off_c, 2, 68, 80
4, 27840, Note_on_c, 2, 63, 95
4, 27960, Note_off_c, 2, 63, 80
4, 27960, Note_on_c, 2, 64, 76
4, 28080, Note_off_c, 2, 64, 80
4, 28080, Note_on_c, 2, 64, 95
4, 28200, Note_off_c, 2, 64, 80
4, 28200, Note_on_c, 2, 64, 95
4, 28320, Note_off_c, 2, 64, 80
4, 28320, Note_on_c, 2, 63, 95
4, 28440, Note_off_c, 2, 63, 80
4, 28440, Note_on_c, 2, 64, 76
4, 28560, Note_off_c, 2, 64, 80
4, 28560, Note_on_c, 2, 64, 95
4, 28680, Note_off_c, 2, 64, 80
4, 28680, Note_on_c, 2, 64, 95
4, 28800, Note_off_c, 2, 64, 80
4, 36480, Note_on_c, 2, 56, 95
4, 36480, Note_on_c, 2, 52, 95
4, 36480, Note_on_c, 2, 47, 95
4, 36480, Note_on_c, 2, 40, 95
4, 37440, Note_off_c, 2, 56, 80
4, 37440, Note_off_c, 2, 52, 80
4, 37440, Note_off_c, 2, 47, 80
4, 37440, Note_off_c, 2, 40, 80
4, 37440, Note_on_c, 2, 64, 95
4, 37440, Note_on_c, 2, 61, 95
4, 37440, Note_on_c, 2, 56, 95
4, 37440, Note_on_c, 2, 49, 95
4, 38400, Note_off_c, 2, 64, 80
4, 38400, Note_off_c, 2, 61, 80
4, 38400, Note_off_c, 2, 56, 80
4, 38400, Note_off_c, 2, 49, 80
4, 38400, Note_on_c, 2, 60, 95
4, 38400, Note_on_c, 2, 56, 95
4, 38400, Note_on_c, 2, 51, 95
4, 38400, Note_on_c, 2, 44, 95
4, 39360, Note_off_c, 2, 60, 80
4, 39360, Note_off_c, 2, 56, 80
4, 39360, Note_off_c, 2, 51, 80
4, 39360, Note_off_c, 2, 44, 80
4, 39360, Note_on_c, 2, 61, 95
4, 39360, Note_on_c, 2, 57, 95
4, 39360, Note_on_c, 2, 52, 95
4, 39360, Note_on_c, 2, 45, 95
4, 40320, Note_off_c, 2, 61, 80
4, 40320, Note_off_c, 2, 57, 80
4, 40320, Note_off_c, 2, 52, 80
4, 40320, Note_off_c, 2, 45, 80
4, 40320, Note_on_c, 2, 64, 95
4, 40320, Note_on_c, 2, 59, 95
4, 40320, Note_on_c, 2, 56, 95
4, 40320, Note_on_c, 2, 52, 95
4, 40320, Note_on_c, 2, 47, 95
4, 40320, Note_on_c, 2, 40, 95
4, 40340, Note_off_c, 2, 64, 80
4, 40340, Note_off_c, 2, 59, 80
4, 40340, Note_off_c, 2, 56, 80
4, 40560, Note_off_c, 2, 52, 80
4, 40560, Note_off_c, 2, 47, 80
4, 40560, Note_off_c, 2, 40, 80
4, 40560, Note_on_c, 2, 64, 95
4, 40560, Note_on_c, 2, 59, 95
4, 40560, Note_on_c, 2, 56, 95
4, 40560, Note_on_c, 2, 52, 95
4, 40560, Note_on_c, 2, 47, 95
4, 40560, Note_on_c, 2, 40, 95
4, 40580, Note_off_c, 2, 64, 80
4, 40580, Note_off_c, 2, 59, 80
4, 40580, Note_off_c, 2, 56, 80
4, 40580, Note_off_c, 2, 52, 80
4, 40800, Note_off_c, 2, 47, 80
4, 40800, Note_off_c, 2, 40, 80
4, 40800, Note_on_c, 2, 64, 95
4, 40800, Note_on_c, 2, 59, 95
4, 40800, Note_on_c, 2, 56, 95
4, 40800, Note_on_c, 2, 52, 95
4, 40800, Note_on_c, 2, 47, 95
4, 40800, Note_on_c, 2, 40, 95
4, 40820, Note_off_c, 2, 64, 80
4, 40820, Note_off_c, 2, 59, 80
4, 40820, Note_off_c, 2, 56, 80
4, 41040, Note_off_c, 2, 52, 80
4, 41040, Note_off_c, 2, 47, 80
4, 41040, Note_off_c, 2, 40, 80
4, 41040, Note_on_c, 2, 64, 95
4, 41040, Note_on_c, 2, 59, 95
4, 41040, Note_on_c, 2, 56, 95
4, 41040, Note_on_c, 2, 52, 95
4, 41040, Note_on_c, 2, 47, 95
4, 41040, Note_on_c, 2, 40, 95
4, 41060, Note_off_c, 2, 64, 80
4, 41060, Note_off_c, 2, 59, 80
4, 41060, Note_off_c, 2, 56, 80
4, 41160, Note_off_c, 2, 52, 80
4, 41160, Note_off_c, 2, 47, 80
4, 41160, Note_off_c, 2, 40, 80
4, 41160, Note_on_c, 2, 55, 95
4, 41160, Note_on_c, 2, 50, 95
4, 41160, Note_on_c, 2, 45, 95
4, 41160, Note_on_c, 2, 40, 95
4, 41180, Note_off_c, 2, 55, 80
4, 41180, Note_off_c, 2, 50, 80
4, 41280, Note_off_c, 2, 45, 80
4, 41280, Note_off_c, 2, 40, 80
4, 41280, Note_on_c, 2, 68, 95
4, 41280, Note_on_c, 2, 63, 95
4, 41280, Note_on_c, 2, 60, 95
4, 41280, Note_on_c, 2, 56, 95
4, 41280, Note_on_c, 2, 51, 95
4, 41280, Note_on_c, 2, 44, 95
4, 41300, Note_off_c, 2, 68, 80
4, 41300, Note_off_c, 2, 63, 80
4, 41300, Note_off_c, 2, 60, 80
4, 41520, Note_off_c, 2, 56, 80
4, 41520, Note_off_c, 2, 51, 80
4, 41520, Note_off_c, 2, 44, 80
4, 41520, Note_on_c, 2, 68, 95
4, 41520, Note_on_c, 2, 63, 95
4, 41520, Note_on_c, 2, 60, 95
4, 41520, Note_on_c, 2, 56, 95
4, 41520, Note_on_c, 2, 51, 95
4, 41520, Note_on_c, 2, 44, 95
4, 41540, Note_off_c, 2, 68, 80
4, 41540, Note_off_c, 2, 63, 80
4, 41540, Note_off_c, 2, 60, 80
4, 41760, Note_off_c, 2, 56, 80
4, 41760, Note_off_c, 2, 51, 80
4, 41760, Note_off_c, 2, 44, 80
4, 41760, Note_on_c, 2, 68, 95
4, 41760, Note_on_c, 2, 63, 95
4, 41760, Note_on_c, 2, 60, 95
4, 41760, Note_on_c, 2, 56, 95
4, 41760, Note_on_c, 2, 51, 95
4, 41760, Note_on_c, 2, 44, 95
4, 41780, Note_off_c, 2, 68, 80
4, 41780, Note_off_c, 2, 63, 80
4, 41780, Note_off_c, 2, 60, 80
4, 42000, Note_off_c, 2, 56, 80
4, 42000, Note_off_c, 2, 51, 80
4, 42000, Note_off_c, 2, 44, 80
4, 42000, Note_on_c, 2, 68, 95
4, 42000, Note_on_c, 2, 63, 95
4, 42000, Note_on_c, 2, 60, 95
4, 42000, Note_on_c, 2, 56, 95
4, 42000, Note_on_c, 2, 51, 95
4, 42000, Note_on_c, 2, 44, 95
4, 42020, Note_off_c, 2, 68, 80
4, 42020, Note_off_c, 2, 63, 80
4, 42120, Note_off_c, 2, 60, 80
4, 42120, Note_off_c, 2, 56, 80
4, 42120, Note_off_c, 2, 51, 80
4, 42120, Note_off_c, 2, 44, 80
4, 42120, Note_on_c, 2, 50, 95
4, 42120, Note_on_c, 2, 45, 95
4, 42120, Note_on_c, 2, 40, 95
4, 42140, Note_off_c, 2, 50, 80
4, 42140, Note_off_c, 2, 45, 80
4, 42240, Note_off_c, 2, 40, 80
4, 42240, Note_on_c, 2, 69, 95
4, 42240, Note_on_c, 2, 64, 95
4, 42240, Note_on_c, 2, 61, 95
4, 42240, Note_on_c, 2, 57, 95
4, 42240, Note_on_c, 2, 52, 95
4, 42240, Note_on_c, 2, 45, 95
4, 42260, Note_off_c, 2, 69, 80
4, 42260, Note_off_c, 2, 64, 80
4, 42260, Note_off_c, 2, 61, 80
4, 42260, Note_off_c, 2, 57, 80
4, 42480, Note_off_c, 2, 52, 80
4, 42480, Note_off_c, 2, 45, 80
4, 42480, Note_on_c, 2, 69, 95
4, 42480, Note_on_c, 2, 64, 95
4, 42480, Note_on_c, 2, 61, 95
4, 42480, Note_on_c, 2, 57, 95
4, 42480, Note_on_c, 2, 52, 95
4, 42480, Note_on_c, 2, 45, 95
4, 42500, Note_off_c, 2, 69, 80
4, 42500, Note_off_c, 2, 64, 80
4, 42500, Note_off_c, 2, 61, 80
4, 42500, Note_off_c, 2, 57, 80
4, 42720, Note_off_c, 2, 52, 80
4, 42720, Note_off_c, 2, 45, 80
4, 42720, Note_on_c, 2, 69, 95
4, 42720, Note_on_c, 2, 64, 95
4, 42720, Note_on_c, 2, 61, 95
4, 42720, Note_on_c, 2, 57, 95
4, 42720, Note_on_c, 2, 52, 95
4, 42720, Note_on_c, 2, 45, 95
4, 42740, Note_off_c, 2, 69, 80
4, 42740, Note_off_c, 2, 64, 80
4, 42740, Note_off_c, 2, 61, 80
4, 42960, Note_off_c, 2, 57, 80
4, 42960, Note_off_c, 2, 52, 80
4, 42960, Note_off_c, 2, 45, 80
4, 42960, Note_on_c, 2, 69, 95
4, 42960, Note_on_c, 2, 64, 95
4, 42960, Note_on_c, 2, 61, 95
4, 42960, Note_on_c, 2, 57, 95
4, 42960, Note_on_c, 2, 52, 95
4, 42960, Note_on_c, 2, 45, 95
4, 42980, Note_off_c, 2, 69, 80
4, 42980, Note_off_c, 2, 64, 80
4, 43080, Note_off_c, 2, 61, 80
4, 43080, Note_off_c, 2, 57, 80
4, 43080, Note_off_c, 2, 52, 80
4, 43080, Note_off_c, 2, 45, 80
4, 43080, Note_on_c, 2, 55, 95
4, 43080, Note_on_c, 2, 50, 95
4, 43080, Note_on_c, 2, 45, 95
4, 43200, Note_off_c, 2, 55, 80
4, 43200, Note_off_c, 2, 50, 80
4, 43200, Note_off_c, 2, 45, 80
4, 43200, Note_on_c, 2, 69, 95
4, 43200, Note_on_c, 2, 64, 95
4, 43200, Note_on_c, 2, 60, 95
4, 43200, Note_on_c, 2, 57, 95
4, 43200, Note_on_c, 2, 52, 95
4, 43200, Note_on_c, 2, 45, 95
4, 43220, Note_off_c, 2, 69, 80
4, 43220, Note_off_c, 2, 64, 80
4, 43440, Note_off_c, 2, 60, 80
4, 43440, Note_off_c, 2, 57, 80
4, 43440, Note_off_c, 2, 52, 80
4, 43440, Note_off_c, 2, 45, 80
4, 43440, Note_on_c, 2, 69, 95
4, 43440, Note_on_c, 2, 64, 95
4, 43440, Note_on_c, 2, 60, 95
4, 43440, Note_on_c, 2, 57, 95
4, 43440, Note_on_c, 2, 52, 95
4, 43440, Note_on_c, 2, 45, 95
4, 43460, Note_off_c, 2, 69, 80
4, 43460, Note_off_c, 2, 64, 80
4, 43680, Note_off_c, 2, 60, 80
4, 43680, Note_off_c, 2, 57, 80
4, 43680, Note_off_c, 2, 52, 80
4, 43680, Note_off_c, 2, 45, 80
4, 43680, Note_on_c, 2, 69, 95
4, 43680, Note_on_c, 2, 64, 95
4, 43680, Note_on_c, 2, 60, 95
4, 43680, Note_on_c, 2, 57, 95
4, 43680, Note_on_c, 2, 52, 95
4, 43680, Note_on_c, 2, 45, 95
4, 43700, Note_off_c, 2, 69, 80
4, 43920, Note_off_c, 2, 64, 80
4, 43920, Note_off_c, 2, 60, 80
4, 43920, Note_off_c, 2, 57, 80
4, 43920, Note_off_c, 2, 52, 80
4, 43920, Note_off_c, 2, 45, 80
4, 43920, Note_on_c, 2, 69, 95
4, 43920, Note_on_c, 2, 64, 95
4, 43920, Note_on_c, 2, 60, 95
4, 43920, Note_on_c, 2, 57, 95
4, 43920, Note_on_c, 2, 52, 95
4, 43920, Note_on_c, 2, 45, 95
4, 44040, Note_off_c, 2, 69, 80
4, 44040, Note_off_c, 2, 64, 80
4, 44040, Note_off_c, 2, 60, 80
4, 44040, Note_off_c, 2, 57, 80
4, 44040, Note_off_c, 2, 52, 80
4, 44040, Note_off_c, 2, 45, 80
4, 44040, Note_on_c, 2, 50, 95
4, 44040, Note_on_c, 2, 45, 95
4, 44040, Note_on_c, 2, 40, 95
4, 44160, Note_off_c, 2, 50, 80
4, 44160, Note_off_c, 2, 45, 80
4, 44160, Note_off_c, 2, 40, 80
4, 44160, Note_on_c, 2, 73, 95
4, 44160, Note_on_c, 2, 68, 95
4, 44160, Note_on_c, 2, 64, 95
4, 44160, Note_on_c, 2, 61, 95
4, 44160, Note_on_c, 2, 56, 95
4, 44160, Note_on_c, 2, 49, 95
4, 46080, Note_off_c, 2, 73, 80
4, 46080, Note_off_c, 2, 68, 80
4, 46080, Note_off_c, 2, 64, 80
4, 46080, Note_off_c, 2, 61, 80
4, 46080, Note_off_c, 2, 56, 80
4, 46080, Note_off_c, 2, 49, 80
4, 46080, Note_on_c, 2, 71, 95
4, 46080, Note_on_c, 2, 66, 95
4, 46080, Note_on_c, 2, 63, 95
4, 46080, Note_on_c, 2, 59, 95
4, 46080, Note_on_c, 2, 54, 95
4, 46080, Note_on_c, 2, 47, 95
4, 46560, Note_off_c, 2, 71, 80
4, 46560, Note_off_c, 2, 66, 80
4, 46560, Note_off_c, 2, 63, 80
4, 46560, Note_off_c, 2, 59, 80
4, 46560, Note_off_c, 2, 54, 80
4, 46560, Note_off_c, 2, 47, 80
4, 46560, Note_on_c, 2, 71, 95
4, 46560, Note_on_c, 2, 66, 95
4, 46560, Note_on_c, 2, 63, 95
4, 46560, Note_on_c, 2, 59, 95
4, 46560, Note_on_c, 2, 54, 95
4, 46560, Note_on_c, 2, 47, 95
4, 46800, Note_off_c, 2, 71, 80
4, 46800, Note_off_c, 2, 66, 80
4, 46800, Note_off_c, 2, 63, 80
4, 46800, Note_off_c, 2, 59, 80
4, 46800, Note_off_c, 2, 54, 80
4, 46800, Note_off_c, 2, 47, 80
4, 46800, Note_on_c, 2, 71, 95
4, 46800, Note_on_c, 2, 66, 95
4, 46800, Note_on_c, 2, 63, 95
4, 46800, Note_on_c, 2, 59, 95
4, 46800, Note_on_c, 2, 54, 95
4, 46800, Note_on_c, 2, 47, 95
4, 46920, Note_off_c, 2, 71, 80
4, 46920, Note_off_c, 2, 66, 80
4, 46920, Note_off_c, 2, 63, 80
4, 46920, Note_off_c, 2, 59, 80
4, 46920, Note_off_c, 2, 54, 80
4, 46920, Note_off_c, 2, 47, 80
4, 46920, Note_on_c, 2, 71, 95
4, 46920, Note_on_c, 2, 66, 95
4, 46920, Note_on_c, 2, 63, 95
4, 46920, Note_on_c, 2, 59, 95
4, 46920, Note_on_c, 2, 54, 95
4, 46920, Note_on_c, 2, 47, 95
4, 47040, Note_off_c, 2, 54, 80
4, 47160, Note_off_c, 2, 71, 80
4, 47160, Note_off_c, 2, 66, 80
4, 47160, Note_off_c, 2, 63, 80
4, 47160, Note_off_c, 2, 59, 80
4, 47160, Note_off_c, 2, 47, 80
4, 47160, Note_on_c, 2, 71, 95
4, 47160, Note_on_c, 2, 66, 95
4, 47160, Note_on_c, 2, 63, 95
4, 47160, Note_on_c, 2, 59, 95
4, 47160, Note_on_c, 2, 54, 95
4, 47160, Note_on_c, 2, 47, 95
4, 47280, Note_off_c, 2, 71, 80
4, 47280, Note_off_c, 2, 66, 80
4, 47280, Note_off_c, 2, 63, 80
4, 47280, Note_off_c, 2, 59, 80
4, 47280, Note_off_c, 2, 54, 80
4, 47280, Note_off_c, 2, 47, 80
4, 47280, Note_on_c, 2, 71, 95
4, 47280, Note_on_c, 2, 66, 95
4, 47280, Note_on_c, 2, 63, 95
4, 47280, Note_on_c, 2, 59, 95
4, 47280, Note_on_c, 2, 54, 95
4, 47280, Note_on_c, 2, 47, 95
4, 47520, Note_off_c, 2, 71, 80
4, 47520, Note_off_c, 2, 66, 80
4, 47520, Note_off_c, 2, 63, 80
4, 47520, Note_off_c, 2, 59, 80
4, 47520, Note_off_c, 2, 54, 80
4, 47520, Note_off_c, 2, 47, 80
4, 47520, Note_on_c, 2, 71, 95
4, 47520, Note_on_c, 2, 66, 95
4, 47520, Note_on_c, 2, 63, 95
4, 47520, Note_on_c, 2, 59, 95
4, 47520, Note_on_c, 2, 54, 95
4, 47520, Note_on_c, 2, 47, 95
4, 47640, Note_off_c, 2, 71, 80
4, 47640, Note_off_c, 2, 66, 80
4, 47640, Note_off_c, 2, 63, 80
4, 47640, Note_off_c, 2, 59, 80
4, 47640, Note_off_c, 2, 54, 80
4, 47640, Note_off_c, 2, 47, 80
4, 47640, Note_on_c, 2, 71, 95
4, 47640, Note_on_c, 2, 66, 95
4, 47640, Note_on_c, 2, 63, 95
4, 47640, Note_on_c, 2, 59, 95
4, 47640, Note_on_c, 2, 54, 95
4, 47640, Note_on_c, 2, 47, 95
4, 47760, Note_off_c, 2, 71, 80
4, 47760, Note_off_c, 2, 66, 80
4, 47760, Note_off_c, 2, 63, 80
4, 47760, Note_off_c, 2, 59, 80
4, 47760, Note_off_c, 2, 54, 80
4, 47760, Note_off_c, 2, 47, 80
4, 47760, Note_on_c, 2, 71, 95
4, 47760, Note_on_c, 2, 66, 95
4, 47760, Note_on_c, 2, 63, 95
4, 47760, Note_on_c, 2, 59, 95
4, 47760, Note_on_c, 2, 54, 95
4, 47760, Note_on_c, 2, 47, 95
4, 47880, Note_off_c, 2, 71, 80
4, 47880, Note_off_c, 2, 66, 80
4, 47880, Note_off_c, 2, 63, 80
4, 47880, Note_off_c, 2, 59, 80
4, 47880, Note_off_c, 2, 54, 80
4, 47880, Note_off_c, 2, 47, 80
4, 47880, Note_on_c, 2, 50, 95
4, 47880, Note_on_c, 2, 45, 95
4, 48000, Note_off_c, 2, 50, 80
4, 48000, Note_off_c, 2, 45, 80
4, 48000, Note_on_c, 2, 64, 95
4, 48240, Note_off_c, 2, 64, 80
4, 48240, Note_on_c, 2, 68, 95
4, 48480, Note_off_c, 2, 68, 80
4, 48480, Note_on_c, 2, 64, 95
4, 48720, Note_off_c, 2, 64, 80
4, 48720, Note_on_c, 2, 68, 95
4, 48960, Note_off_c, 2, 68, 80
4, 48960, Note_on_c, 2, 64, 95
4, 49200, Note_off_c, 2, 64, 80
4, 49200, Note_on_c, 2, 68, 95
4, 49440, Note_off_c, 2, 68, 80
4, 49440, Note_on_c, 2, 64, 95
4, 49680, Note_off_c, 2, 64, 80
4, 49680, Note_on_c, 2, 68, 95
4, 49920, Note_off_c, 2, 68, 80
4, 49920, Note_on_c, 2, 63, 95
4, 50160, Note_off_c, 2, 63, 80
4, 50160, Note_on_c, 2, 68, 95
4, 50400, Note_off_c, 2, 68, 80
4, 50400, Note_on_c, 2, 63, 95
4, 50640, Note_off_c, 2, 63, 80
4, 50640, Note_on_c, 2, 68, 95
4, 50880, Note_off_c, 2, 68, 80
4, 50880, Note_on_c, 2, 63, 95
4, 51000, Note_off_c, 2, 63, 80
4, 51000, Note_on_c, 2, 64, 76
4, 51120, Note_off_c, 2, 64, 80
4, 51120, Note_on_c, 2, 64, 95
4, 51240, Note_off_c, 2, 64, 80
4, 51240, Note_on_c, 2, 64, 95
4, 51360, Note_off_c, 2, 64, 80
4, 51360, Note_on_c, 2, 63, 95
4, 51480, Note_off_c, 2, 63, 80
4, 51480, Note_on_c, 2, 64, 76
4, 51600, Note_off_c, 2, 64, 80
4, 51600, Note_on_c, 2, 64, 95
4, 51720, Note_off_c, 2, 64, 80
4, 51720, Note_on_c, 2, 64, 95
4, 51840, Note_off_c, 2, 64, 80
4, 51840, Note_on_c, 2, 64, 95
4, 52080, Note_off_c, 2, 64, 80
4, 52080, Note_on_c, 2, 68, 95
4, 52320, Note_off_c, 2, 68, 80
4, 52320, Note_on_c, 2, 64, 95
4, 52560, Note_off_c, 2, 64, 80
4, 52560, Note_on_c, 2, 68, 95
4, 52800, Note_off_c, 2, 68, 80
4, 52800, Note_on_c, 2, 64, 95
4, 53040, Note_off_c, 2, 64, 80
4, 53040, Note_on_c, 2, 68, 95
4, 53280, Note_off_c, 2, 68, 80
4, 53280, Note_on_c, 2, 64, 95
4, 53520, Note_off_c, 2, 64, 80
4, 53520, Note_on_c, 2, 68, 95
4, 53760, Note_off_c, 2, 68, 80
4, 53760, Note_on_c, 2, 63, 95
4, 54000, Note_off_c, 2, 63, 80
4, 54000, Note_on_c, 2, 68, 95
4, 54240, Note_off_c, 2, 68, 80
4, 54240, Note_on_c, 2, 63, 95
4, 54480, Note_off_c, 2, 63, 80
4, 54480, Note_on_c, 2, 68, 95
4, 54720, Note_off_c, 2, 68, 80
4, 54720, Note_on_c, 2, 63, 95
4, 54840, Note_off_c, 2, 63, 80
4, 54840, Note_on_c, 2, 64, 76
4, 54960, Note_off_c, 2, 64, 80
4, 54960, Note_on_c, 2, 64, 95
4, 55080, Note_off_c, 2, 64, 80
4, 55080, Note_on_c, 2, 64, 95
4, 55200, Note_off_c, 2, 64, 80
4, 55200, Note_on_c, 2, 63, 95
4, 55320, Note_off_c, 2, 63, 80
4, 55320, Note_on_c, 2, 64, 76
4, 55440, Note_off_c, 2, 64, 80
4, 55440, Note_on_c, 2, 64, 95
4, 55560, Note_off_c, 2, 64, 80
4, 55560, Note_on_c, 2, 64, 95
4, 55680, Note_off_c, 2, 64, 80
4, 55680, Note_on_c, 2, 64, 95
4, 55920, Note_off_c, 2, 64, 80
4, 55920, Note_on_c, 2, 68, 95
4, 56160, Note_off_c, 2, 68, 80
4, 56160, Note_on_c, 2, 64, 95
4, 56400, Note_off_c, 2, 64, 80
4, 56400, Note_on_c, 2, 68, 95
4, 56640, Note_off_c, 2, 68, 80
4, 56640, Note_on_c, 2, 64, 95
4, 56880, Note_off_c, 2, 64, 80
4, 56880, Note_on_c, 2, 68, 95
4, 57120, Note_off_c, 2, 68, 80
4, 57120, Note_on_c, 2, 64, 95
4, 57360, Note_off_c, 2, 64, 80
4, 57360, Note_on_c, 2, 68, 95
4, 57600, Note_off_c, 2, 68, 80
4, 57600, Note_on_c, 2, 63, 95
4, 57840, Note_off_c, 2, 63, 80
4, 57840, Note_on_c, 2, 68, 95
4, 58080, Note_off_c, 2, 68, 80
4, 58080, Note_on_c, 2, 63, 95
4, 58320, Note_off_c, 2, 63, 80
4, 58320, Note_on_c, 2, 68, 95
4, 58560, Note_off_c, 2, 68, 80
4, 58560, Note_on_c, 2, 63, 95
4, 58680, Note_off_c, 2, 63, 80
4, 58680, Note_on_c, 2, 64, 76
4, 58800, Note_off_c, 2, 64, 80
4, 58800, Note_on_c, 2, 64, 95
4, 58920, Note_off_c, 2, 64, 80
4, 58920, Note_on_c, 2, 64, 95
4, 59040, Note_off_c, 2, 64, 80
4, 59040, Note_on_c, 2, 63, 95
4, 59160, Note_off_c, 2, 63, 80
4, 59160, Note_on_c, 2, 64, 76
4, 59280, Note_off_c, 2, 64, 80
4, 59280, Note_on_c, 2, 64, 95
4, 59400, Note_off_c, 2, 64, 80
4, 59400, Note_on_c, 2, 64, 95
4, 59520, Note_off_c, 2, 64, 80
4, 67200, Note_on_c, 2, 52, 95
4, 67200, Note_on_c, 2, 47, 95
4, 67200, Note_on_c, 2, 40, 95
4, 68160, Note_off_c, 2, 52, 80
4, 68160, Note_off_c, 2, 47, 80
4, 68160, Note_off_c, 2, 40, 80
4, 68160, Note_on_c, 2, 61, 95
4, 68160, Note_on_c, 2, 56, 95
4, 68160, Note_on_c, 2, 49, 95
4, 69120, Note_off_c, 2, 61, 80
4, 69120, Note_off_c, 2, 56, 80
4, 69120, Note_off_c, 2, 49, 80
4, 69120, Note_on_c, 2, 56, 95
4, 69120, Note_on_c, 2, 51, 95
4, 69120, Note_on_c, 2, 44, 95
4, 70080, Note_off_c, 2, 56, 80
4, 70080, Note_off_c, 2, 51, 80
4, 70080, Note_off_c, 2, 44, 80
4, 70080, Note_on_c, 2, 57, 95
4, 70080, Note_on_c, 2, 52, 95
4, 70080, Note_on_c, 2, 45, 95
4, 71040, Note_off_c, 2, 57, 80
4, 71040, Note_off_c, 2, 52, 80
4, 71040, Note_off_c, 2, 45, 80
4, 71040, Note_on_c, 2, 56, 95
4, 71040, Note_on_c, 2, 52, 95
4, 71040, Note_on_c, 2, 47, 95
4, 71040, Note_on_c, 2, 40, 95
4, 71060, Note_off_c, 2, 56, 80
4, 71280, Note_off_c, 2, 52, 80
4, 71280, Note_off_c, 2, 47, 80
4, 71280, Note_off_c, 2, 40, 80
4, 71280, Note_on_c, 2, 56, 95
4, 71280, Note_on_c, 2, 52, 95
4, 71280, Note_on_c, 2, 47, 95
4, 71280, Note_on_c, 2, 40, 95
4, 71300, Note_off_c, 2, 56, 80
4, 71300, Note_off_c, 2, 52, 80
4, 71520, Note_off_c, 2, 47, 80
4, 71520, Note_off_c, 2, 40, 80
4, 71520, Note_on_c, 2, 56, 95
4, 71520, Note_on_c, 2, 52, 95
4, 71520, Note_on_c, 2, 47, 95
4, 71520, Note_on_c, 2, 40, 95
4, 71540, Note_off_c, 2, 56, 80
4, 71760, Note_off_c, 2, 52, 80
4, 71760, Note_off_c, 2, 47, 80
4, 71760, Note_off_c, 2, 40, 80
4, 71760, Note_on_c, 2, 64, 95
4, 71760, Note_on_c, 2, 59, 95
4, 71760, Note_on_c, 2, 56, 95
4, 71760, Note_on_c, 2, 52, 95
4, 71760, Note_on_c, 2, 47, 95
4, 71760, Note_on_c, 2, 40, 95
4, 71780, Note_off_c, 2, 64, 80
4, 71780, Note_off_c, 2, 59, 80
4, 71780, Note_off_c, 2, 56, 80
4, 71880, Note_off_c, 2, 52, 80
4, 71880, Note_off_c, 2, 47, 80
4, 71880, Note_off_c, 2, 40, 80
4, 71880, Note_on_c, 2, 55, 95
4, 71880, Note_on_c, 2, 50, 95
4, 71880, Note_on_c, 2, 45, 95
4, 71880, Note_on_c, 2, 40, 95
4, 71900, Note_off_c, 2, 55, 80
4, 71900, Note_off_c, 2, 50, 80
4, 72000, Note_off_c, 2, 45, 80
4, 72000, Note_off_c, 2, 40, 80
4, 72000, Note_on_c, 2, 68, 95
4, 72000, Note_on_c, 2, 63, 95
4, 72000, Note_on_c, 2, 60, 95
4, 72000, Note_on_c, 2, 56, 95
4, 72000, Note_on_c, 2, 51, 95
4, 72000, Note_on_c, 2, 44, 95
4, 72020, Note_off_c, 2, 68, 80
4, 72020, Note_off_c, 2, 63, 80
4, 72020, Note_off_c, 2, 60, 80
4, 72240, Note_off_c, 2, 56, 80
4, 72240, Note_off_c, 2, 51, 80
4, 72240, Note_off_c, 2, 44, 80
4, 72240, Note_on_c, 2, 68, 95
4, 72240, Note_on_c, 2, 63, 95
4, 72240, Note_on_c, 2, 60, 95
4, 72240, Note_on_c, 2, 56, 95
4, 72240, Note_on_c, 2, 51, 95
4, 72240, Note_on_c, 2, 44, 95
4, 72260, Note_off_c, 2, 68, 80
4, 72260, Note_off_c, 2, 63, 80
4, 72260, Note_off_c, 2, 60, 80
4, 72480, Note_off_c, 2, 56, 80
4, 72480, Note_off_c, 2, 51, 80
4, 72480, Note_off_c, 2, 44, 80
4, 72480, Note_on_c, 2, 68, 95
4, 72480, Note_on_c, 2, 63, 95
4, 72480, Note_on_c, 2, 60, 95
4, 72480, Note_on_c, 2, 56, 95
4, 72480, Note_on_c, 2, 51, 95
4, 72480, Note_on_c, 2, 44, 95
4, 72500, Note_off_c, 2, 68, 80
4, 72500, Note_off_c, 2, 63, 80
4, 72500, Note_off_c, 2, 60, 80
4, 72720, Note_off_c, 2, 56, 80
4, 72720, Note_off_c, 2, 51, 80
4, 72720, Note_off_c, 2, 44, 80
4, 72720, Note_on_c, 2, 68, 95
4, 72720, Note_on_c, 2, 63, 95
4, 72720, Note_on_c, 2, 60, 95
4, 72720, Note_on_c, 2, 56, 95
4, 72720, Note_on_c, 2, 51, 95
4, 72720, Note_on_c, 2, 44, 95
4, 72740, Note_off_c, 2, 68, 80
4, 72740, Note_off_c, 2, 63, 80
4, 72840, Note_off_c, 2, 60, 80
4, 72840, Note_off_c, 2, 56, 80
4, 72840, Note_off_c, 2, 51, 80
4, 72840, Note_off_c, 2, 44, 80
4, 72840, Note_on_c, 2, 50, 95
4, 72840, Note_on_c, 2, 45, 95
4, 72840, Note_on_c, 2, 40, 95
4, 72860, Note_off_c, 2, 50, 80
4, 72860, Note_off_c, 2, 45, 80
4, 72960, Note_off_c, 2, 40, 80
4, 72960, Note_on_c, 2, 69, 95
4, 72960, Note_on_c, 2, 64, 95
4, 72960, Note_on_c, 2, 61, 95
4, 72960, Note_on_c, 2, 57, 95
4, 72960, Note_on_c, 2, 52, 95
4, 72960, Note_on_c, 2, 45, 95
4, 72980, Note_off_c, 2, 69, 80
4, 72980, Note_off_c, 2, 64, 80
4, 72980, Note_off_c, 2, 61, 80
4, 72980, Note_off_c, 2, 57, 80
4, 73200, Note_off_c, 2, 52, 80
4, 73200, Note_off_c, 2, 45, 80
4, 73200, Note_on_c, 2, 69, 95
4, 73200, Note_on_c, 2, 64, 95
4, 73200, Note_on_c, 2, 61, 95
4, 73200, Note_on_c, 2, 57, 95
4, 73200, Note_on_c, 2, 52, 95
4, 73200, Note_on_c, 2, 45, 95
4, 73220, Note_off_c, 2, 69, 80
4, 73220, Note_off_c, 2, 64, 80
4, 73220, Note_off_c, 2, 61, 80
4, 73220, Note_off_c, 2, 57, 80
4, 73440, Note_off_c, 2, 52, 80
4, 73440, Note_off_c, 2, 45, 80
4, 73440, Note_on_c, 2, 69, 95
4, 73440, Note_on_c, 2, 64, 95
4, 73440, Note_on_c, 2, 61, 95
4, 73440, Note_on_c, 2, 57, 95
4, 73440, Note_on_c, 2, 52, 95
4, 73440, Note_on_c, 2, 45, 95
4, 73460, Note_off_c, 2, 69, 80
4, 73460, Note_off_c, 2, 64, 80
4, 73460, Note_off_c, 2, 61, 80
4, 73680, Note_off_c, 2, 57, 80
4, 73680, Note_off_c, 2, 52, 80
4, 73680, Note_off_c, 2, 45, 80
4, 73680, Note_on_c, 2, 69, 95
4, 73680, Note_on_c, 2, 64, 95
4, 73680, Note_on_c, 2, 61, 95
4, 73680, Note_on_c, 2, 57, 95
4, 73680, Note_on_c, 2, 52, 95
4, 73680, Note_on_c, 2, 45, 95
4, 73700, Note_off_c, 2, 69, 80
4, 73700, Note_off_c, 2, 64, 80
4, 73800, Note_off_c, 2, 61, 80
4, 73800, Note_off_c, 2, 57, 80
4, 73800, Note_off_c, 2, 52, 80
4, 73800, Note_off_c, 2, 45, 80
4, 73800, Note_on_c, 2, 55, 95
4, 73800, Note_on_c, 2, 50, 95
4, 73800, Note_on_c, 2, 45, 95
4, 73920, Note_off_c, 2, 55, 80
4, 73920, Note_off_c, 2, 50, 80
4, 73920, Note_off_c, 2, 45, 80
4, 73920, Note_on_c, 2, 69, 95
4, 73920, Note_on_c, 2, 64, 95
4, 73920, Note_on_c, 2, 60, 95
4, 73920, Note_on_c, 2, 57, 95
4, 73920, Note_on_c, 2, 52, 95
4, 73920, Note_on_c, 2, 45, 95
4, 73940, Note_off_c, 2, 69, 80
4, 73940, Note_off_c, 2, 64, 80
4, 74160, Note_off_c, 2, 60, 80
4, 74160, Note_off_c, 2, 57, 80
4, 74160, Note_off_c, 2, 52, 80
4, 74160, Note_off_c, 2, 45, 80
4, 74160, Note_on_c, 2, 69, 95
4, 74160, Note_on_c, 2, 64, 95
4, 74160, Note_on_c, 2, 60, 95
4, 74160, Note_on_c, 2, 57, 95
4, 74160, Note_on_c, 2, 52, 95
4, 74160, Note_on_c, 2, 45, 95
4, 74180, Note_off_c, 2, 69, 80
4, 74180, Note_off_c, 2, 64, 80
4, 74400, Note_off_c, 2, 60, 80
4, 74400, Note_off_c, 2, 57, 80
4, 74400, Note_off_c, 2, 52, 80
4, 74400, Note_off_c, 2, 45, 80
4, 74400, Note_on_c, 2, 69, 95
4, 74400, Note_on_c, 2, 64, 95
4, 74400, Note_on_c, 2, 60, 95
4, 74400, Note_on_c, 2, 57, 95
4, 74400, Note_on_c, 2, 52, 95
4, 74400, Note_on_c, 2, 45, 95
4, 74420, Note_off_c, 2, 69, 80
4, 74640, Note_off_c, 2, 64, 80
4, 74640, Note_off_c, 2, 60, 80
4, 74640, Note_off_c, 2, 57, 80
4, 74640, Note_off_c, 2, 52, 80
4, 74640, Note_off_c, 2, 45, 80
4, 74640, Note_on_c, 2, 69, 95
4, 74640, Note_on_c, 2, 64, 95
4, 74640, Note_on_c, 2, 60, 95
4, 74640, Note_on_c, 2, 57, 95
4, 74640, Note_on_c, 2, 52, 95
4, 74640, Note_on_c, 2, 45, 95
4, 74760, Note_off_c, 2, 69, 80
4, 74760, Note_off_c, 2, 64, 80
4, 74760, Note_off_c, 2, 60, 80
4, 74760, Note_off_c, 2, 57, 80
4, 74760, Note_off_c, 2, 52, 80
4, 74760, Note_off_c, 2, 45, 80
4, 74760, Note_on_c, 2, 50, 95
4, 74760, Note_on_c, 2, 45, 95
4, 74760, Note_on_c, 2, 40, 95
4, 74880, Note_off_c, 2, 50, 80
4, 74880, Note_off_c, 2, 45, 80
4, 74880, Note_off_c, 2, 40, 80
4, 74880, Note_on_c, 2, 73, 95
4, 74880, Note_on_c, 2, 68, 95
4, 74880, Note_on_c, 2, 64, 95
4, 74880, Note_on_c, 2, 61, 95
4, 74880, Note_on_c, 2, 56, 95
4, 74880, Note_on_c, 2, 49, 95
4, 76800, Note_off_c, 2, 73, 80
4, 76800, Note_off_c, 2, 68, 80
4, 76800, Note_off_c, 2, 64, 80
4, 76800, Note_off_c, 2, 61, 80
4, 76800, Note_off_c, 2, 56, 80
4, 76800, Note_off_c, 2, 49, 80
4, 76800, Note_on_c, 2, 71, 95
4, 76800, Note_on_c, 2, 66, 95
4, 76800, Note_on_c, 2, 63, 95
4, 76800, Note_on_c, 2, 59, 95
4, 76800, Note_on_c, 2, 54, 95
4, 76800, Note_on_c, 2, 47, 95
4, 77280, Note_off_c, 2, 71, 80
4, 77280, Note_off_c, 2, 66, 80
4, 77280, Note_off_c, 2, 63, 80
4, 77280, Note_off_c, 2, 59, 80
4, 77280, Note_off_c, 2, 54, 80
4, 77280, Note_off_c, 2, 47, 80
4, 77280, Note_on_c, 2, 71, 95
4, 77280, Note_on_c, 2, 66, 95
4, 77280, Note_on_c, 2, 63, 95
4, 77280, Note_on_c, 2, 59, 95
4, 77280, Note_on_c, 2, 54, 95
4, 77280, Note_on_c, 2, 47, 95
4, 77520, Note_off_c, 2, 71, 80
4, 77520, Note_off_c, 2, 66, 80
4, 77520, Note_off_c, 2, 63, 80
4, 77520, Note_off_c, 2, 59, 80
4, 77520, Note_off_c, 2, 54, 80
4, 77520, Note_off_c, 2, 47, 80
4, 77520, Note_on_c, 2, 71, 95
4, 77520, Note_on_c, 2, 66, 95
4, 77520, Note_on_c, 2, 63, 95
4, 77520, Note_on_c, 2, 59, 95
4, 77520, Note_on_c, 2, 54, 95
4, 77520, Note_on_c, 2, 47, 95
4, 77640, Note_off_c, 2, 71, 80
4, 77640, Note_off_c, 2, 66, 80
4, 77640, Note_off_c, 2, 63, 80
4, 77640, Note_off_c, 2, 59, 80
4, 77640, Note_off_c, 2, 54, 80
4, 77640, Note_off_c, 2, 47, 80
4, 77640, Note_on_c, 2, 71, 95
4, 77640, Note_on_c, 2, 66, 95
4, 77640, Note_on_c, 2, 63, 95
4, 77640, Note_on_c, 2, 59, 95
4, 77640, Note_on_c, 2, 54, 95
4, 77640, Note_on_c, 2, 47, 95
4, 77760, Note_off_c, 2, 54, 80
4, 77880, Note_off_c, 2, 71, 80
4, 77880, Note_off_c, 2, 66, 80
4, 77880, Note_off_c, 2, 63, 80
4, 77880, Note_off_c, 2, 59, 80
4, 77880, Note_off_c, 2, 47, 80
4, 77880, Note_on_c, 2, 71, 95
4, 77880, Note_on_c, 2, 66, 95
4, 77880, Note_on_c, 2, 63, 95
4, 77880, Note_on_c, 2, 59, 95
4, 77880, Note_on_c, 2, 54, 95
4, 77880, Note_on_c, 2, 47, 95
4, 78000, Note_off_c, 2, 71, 80
4, 78000, Note_off_c, 2, 66, 80
4, 78000, Note_off_c, 2, 63, 80
4, 78000, Note_off_c, 2, 59, 80
4, 78000, Note_off_c, 2, 54, 80
4, 78000, Note_off_c, 2, 47, 80
4, 78000, Note_on_c, 2, 71, 95
4, 78000, Note_on_c, 2, 66, 95
4, 78000, Note_on_c, 2, 63, 95
4, 78000, Note_on_c, 2, 59, 95
4, 78000, Note_on_c, 2, 54, 95
4, 78000, Note_on_c, 2, 47, 95
4, 78240, Note_off_c, 2, 71, 80
4, 78240, Note_off_c, 2, 66, 80
4, 78240, Note_off_c, 2, 63, 80
4, 78240, Note_off_c, 2, 59, 80
4, 78240, Note_off_c, 2, 54, 80
4, 78240, Note_off_c, 2, 47, 80
4, 78240, Note_on_c, 2, 71, 95
4, 78240, Note_on_c, 2, 66, 95
4, 78240, Note_on_c, 2, 63, 95
4, 78240, Note_on_c, 2, 59, 95
4, 78240, Note_on_c, 2, 54, 95
4, 78240, Note_on_c, 2, 47, 95
4, 78360, Note_off_c, 2, 71, 80
4, 78360, Note_off_c, 2, 66, 80
4, 78360, Note_off_c, 2, 63, 80
4, 78360, Note_off_c, 2, 59, 80
4, 78360, Note_off_c, 2, 54, 80
4, 78360, Note_off_c, 2, 47, 80
4, 78360, Note_on_c, 2, 71, 95
4, 78360, Note_on_c, 2, 66, 95
4, 78360, Note_on_c, 2, 63, 95
4, 78360, Note_on_c, 2, 59, 95
4, 78360, Note_on_c, 2, 54, 95
4, 78360, Note_on_c, 2, 47, 95
4, 78480, Note_off_c, 2, 71, 80
4, 78480, Note_off_c, 2, 66, 80
4, 78480, Note_off_c, 2, 63, 80
4, 78480, Note_off_c, 2, 59, 80
4, 78480, Note_off_c, 2, 54, 80
4, 78480, Note_off_c, 2, 47, 80
4, 78480, Note_on_c, 2, 71, 95
4, 78480, Note_on_c, 2, 66, 95
4, 78480, Note_on_c, 2, 63, 95
4, 78480, Note_on_c, 2, 59, 95
4, 78480, Note_on_c, 2, 54, 95
4, 78480, Note_on_c, 2, 47, 95
4, 78600, Note_off_c, 2, 71, 80
4, 78600, Note_off_c, 2, 66, 80
4, 78600, Note_off_c, 2, 63, 80
4, 78600, Note_off_c, 2, 59, 80
4, 78600, Note_off_c, 2, 54, 80
4, 78600, Note_off_c, 2, 47, 80
4, 78600, Note_on_c, 2, 50, 95
4, 78600, Note_on_c, 2, 45, 95
4, 78720, Note_off_c, 2, 50, 80
4, 78720, Note_off_c, 2, 45, 80
4, 78720, Note_on_c, 2, 66, 95
4, 78720, Note_on_c, 3, 64, 95
4, 78720, Pitch_bend_c, 3, 8192
4, 78768, Pitch_bend_c, 3, 8320
4, 78816, Pitch_bend_c, 3, 8448
4, 78832, Pitch_bend_c, 3, 8576
4, 78848, Pitch_bend_c, 3, 8704
4, 78864, Pitch_bend_c, 3, 8832
4, 78880, Pitch_bend_c, 3, 8960
4, 78896, Pitch_bend_c, 3, 9088
4, 78912, Pitch_bend_c, 3, 9344
4, 78944, Pitch_bend_c, 3, 9472
4, 78960, Pitch_bend_c, 3, 9600
4, 79200, Note_off_c, 2, 66, 80
4, 79200, Note_off_c, 3, 64, 80
4, 79200, Pitch_bend_c, 3, 8192
4, 79200, Note_on_c, 2, 66, 95
4, 79200, Note_on_c, 3, 64, 95
4, 79200, Pitch_bend_c, 3, 8192
4, 79248, Pitch_bend_c, 3, 8320
4, 79296, Pitch_bend_c, 3, 8448
4, 79312, Pitch_bend_c, 3, 8576
4, 79328, Pitch_bend_c, 3, 8704
4, 79344, Pitch_bend_c, 3, 8832
4, 79360, Pitch_bend_c, 3, 8960
4, 79376, Pitch_bend_c, 3, 9088
4, 79392, Pitch_bend_c, 3, 9344
4, 79424, Pitch_bend_c, 3, 9472
4, 79440, Pitch_bend_c, 3, 9600
4, 79680, Note_off_c, 2, 66, 80
4, 79680, Note_off_c, 3, 64, 80
4, 79680, Pitch_bend_c, 3, 8192
4, 79680, Note_on_c, 3, 64, 95
4, 79680, Pitch_bend_c, 3, 8192
4, 79712, Pitch_bend_c, 3, 8320
4, 79728, Pitch_bend_c, 3, 8448
4, 79744, Pitch_bend_c, 3, 8704
4, 79760, Pitch_bend_c, 3, 8960
4, 79776, Pitch_bend_c, 3, 9344
4, 79792, Pitch_bend_c, 3, 9472
4, 79800, Note_off_c, 3, 64, 80
4, 79800, Pitch_bend_c, 3, 8192
4, 79800, Note_on_c, 3, 64, 95
4, 79800, Pitch_bend_c, 3, 9600
4, 79920, Note_off_c, 3, 64, 80
4, 79920, Pitch_bend_c, 3, 8192
4, 79920, Note_on_c, 3, 64, 95
4, 79920, Pitch_bend_c, 3, 9600
4, 79936, Pitch_bend_c, 3, 9472
4, 79952, Pitch_bend_c, 3, 9344
4, 79968, Pitch_bend_c, 3, 9216
4, 79984, Pitch_bend_c, 3, 9088
4, 80000, Pitch_bend_c, 3, 8960
4, 80032, Pitch_bend_c, 3, 8832
4, 80040, Note_off_c, 3, 64, 80
4, 80040, Pitch_bend_c, 3, 8192
4, 80040, Note_on_c, 3, 64, 95
4, 80040, Pitch_bend_c, 3, 8832
4, 80072, Pitch_bend_c, 3, 8704
4, 80088, Pitch_bend_c, 3, 8576
4, 80104, Pitch_bend_c, 3, 8320
4, 80136, Pitch_bend_c, 3, 8192
4, 80160, Note_off_c, 3, 64, 80
4, 80160, Pitch_bend_c, 3, 8192
4, 80160, Note_on_c, 2, 64, 95
4, 80280, Note_off_c, 2, 64, 80
4, 80280, Note_on_c, 2, 62, 95
4, 80400, Note_off_c, 2, 62, 80
4, 80400, Note_on_c, 2, 59, 95
4, 80640, Note_off_c, 2, 59, 80
4, 80640, Note_on_c, 2, 62, 95
4, 81120, Note_off_c, 2, 62, 80
4, 81120, Note_on_c, 2, 64, 95
4, 81360, Note_off_c, 2, 64, 80
4, 81360, Note_on_c, 2, 66, 95
4, 81480, Note_off_c, 2, 66, 80
4, 81480, Note_on_c, 2, 69, 95
4, 81720, Note_off_c, 2, 69, 80
4, 81720, Note_on_c, 2, 66, 95
4, 81840, Note_off_c, 2, 66, 80
4, 81840, Note_on_c, 2, 69, 95
4, 81960, Note_off_c, 2, 69, 80
4, 81960, Note_on_c, 3, 69, 95
4, 82068, Pitch_bend_c, 3, 8832
4, 82080, Note_off_c, 3, 69, 80
4, 82080, Pitch_bend_c, 3, 8192
4, 82080, Note_on_c, 2, 71, 76
4, 82200, Note_off_c, 2, 71, 80
4, 82200, Note_on_c, 2, 74, 95
4, 82320, Note_off_c, 2, 74, 80
4, 82320, Note_on_c, 2, 76, 95
4, 82440, Note_off_c, 2, 76, 80
4, 82440, Note_on_c, 3, 76, 95
4, 82440, Pitch_bend_c, 3, 8192
4, 82456, Pitch_bend_c, 3, 8320
4, 82472, Pitch_bend_c, 3, 8704
4, 82488, Pitch_bend_c, 3, 9344
4, 82504, Pitch_bend_c, 3, 9600
4, 82560, Note_off_c, 3, 76, 80
4, 82560, Pitch_bend_c, 3, 8192
4, 82560, Note_on_c, 3, 76, 95
4, 82560, Pitch_bend_c, 3, 9600
4, 83040, Note_off_c, 3, 76, 80
4, 83040, Pitch_bend_c, 3, 8192
4, 83040, Note_on_c, 3, 76, 95
4, 83040, Pitch_bend_c, 3, 9600
4, 83520, Note_off_c, 3, 76, 80
4, 83520, Pitch_bend_c, 3, 8192
4, 83520, Note_on_c, 3, 76, 95
4, 83520, Pitch_bend_c, 3, 9600
4, 84000, Note_off_c, 3, 76, 80
4, 84000, Pitch_bend_c, 3, 8192
4, 84000, Note_on_c, 3, 76, 95
4, 84000, Pitch_bend_c, 3, 9600
4, 84480, Note_off_c, 3, 76, 80
4, 84480, Pitch_bend_c, 3, 8192
4, 84480, Note_on_c, 2, 64, 95
4, 84720, Note_off_c, 2, 64, 80
4, 84720, Note_on_c, 2, 68, 95
4, 84960, Note_off_c, 2, 68, 80
4, 84960, Note_on_c, 2, 64, 95
4, 85200, Note_off_c, 2, 64, 80
4, 85200, Note_on_c, 2, 68, 95
4, 85440, Note_off_c, 2, 68, 80
4, 85440, Note_on_c, 2, 64, 95
4, 85680, Note_off_c, 2, 64, 80
4, 85680, Note_on_c, 2, 68, 95
4, 85920, Note_off_c, 2, 68, 80
4, 85920, Note_on_c, 2, 64, 95
4, 86160, Note_off_c, 2, 64, 80
4, 86160, Note_on_c, 2, 68, 95
4, 86400, Note_off_c, 2, 68, 80
4, 86400, Note_on_c, 2, 63, 95
4, 86640, Note_off_c, 2, 63, 80
4, 86640, Note_on_c, 2, 68, 95
4, 86880, Note_off_c, 2, 68, 80
4, 86880, Note_on_c, 2, 63, 95
4, 87120, Note_off_c, 2, 63, 80
4, 87120, Note_on_c, 2, 68, 95
4, 87360, Note_off_c, 2, 68, 80
4, 87360, Note_on_c, 2, 63, 95
4, 87480, Note_off_c, 2, 63, 80
4, 87480, Note_on_c, 2, 64, 76
4, 87600, Note_off_c, 2, 64, 80
4, 87600, Note_on_c, 2, 64, 95
4, 87720, Note_off_c, 2, 64, 80
4, 87720, Note_on_c, 2, 64, 95
4, 87840, Note_off_c, 2, 64, 80
4, 87840, Note_on_c, 2, 63, 95
4, 87960, Note_off_c, 2, 63, 80
4, 87960, Note_on_c, 2, 64, 76
4, 88080, Note_off_c, 2, 64, 80
4, 88080, Note_on_c, 2, 64, 95
4, 88200, Note_off_c, 2, 64, 80
4, 88200, Note_on_c, 2, 64, 95
4, 88320, Note_off_c, 2, 64, 80
4, 88320, Note_on_c, 2, 64, 95
4, 88560, Note_off_c, 2, 64, 80
4, 88560, Note_on_c, 2, 68, 95
4, 88800, Note_off_c, 2, 68, 80
4, 88800, Note_on_c, 2, 64, 95
4, 89040, Note_off_c, 2, 64, 80
4, 89040, Note_on_c, 2, 68, 95
4, 89280, Note_off_c, 2, 68, 80
4, 89280, Note_on_c, 2, 64, 95
4, 89520, Note_off_c, 2, 64, 80
4, 89520, Note_on_c, 2, 68, 95
4, 89760, Note_off_c, 2, 68, 80
4, 89760, Note_on_c, 2, 64, 95
4, 90000, Note_off_c, 2, 64, 80
4, 90000, Note_on_c, 2, 68, 95
4, 90240, Note_off_c, 2, 68, 80
4, 90240, Note_on_c, 2, 63, 95
4, 90480, Note_off_c, 2, 63, 80
4, 90480, Note_on_c, 2, 68, 95
4, 90720, Note_off_c, 2, 68, 80
4, 90720, Note_on_c, 2, 63, 95
4, 90960, Note_off_c, 2, 63, 80
4, 90960, Note_on_c, 2, 68, 95
4, 91200, Note_off_c, 2, 68, 80
4, 91200, Note_on_c, 2, 63, 95
4, 91320, Note_off_c, 2, 63, 80
4, 91320, Note_on_c, 2, 64, 76
4, 91440, Note_off_c, 2, 64, 80
4, 91440, Note_on_c, 2, 64, 95
4, 91560, Note_off_c, 2, 64, 80
4, 91560, Note_on_c, 2, 64, 95
4, 91680, Note_off_c, 2, 64, 80
4, 91680, Note_on_c, 2, 63, 95
4, 91800, Note_off_c, 2, 63, 80
4, 91800, Note_on_c, 2, 64, 76
4, 91920, Note_off_c, 2, 64, 80
4, 91920, Note_on_c, 2, 64, 95
4, 92040, Note_off_c, 2, 64, 80
4, 92040, Note_on_c, 2, 64, 95
4, 92160, Note_off_c, 2, 64, 80
4, 92160, Note_on_c, 2, 64, 95
4, 92400, Note_off_c, 2, 64, 80
4, 92400, Note_on_c, 2, 68, 95
4, 92640, Note_off_c, 2, 68, 80
4, 92640, Note_on_c, 2, 64, 95
4, 92880, Note_off_c, 2, 64, 80
4, 92880, Note_on_c, 2, 68, 95
4, 93120, Note_off_c, 2, 68, 80
4, 93120, Note_on_c, 2, 64, 95
4, 93360, Note_off_c, 2, 64, 80
4, 93360, Note_on_c, 2, 68, 95
4, 93600, Note_off_c, 2, 68, 80
4, 93600, Note_on_c, 2, 64, 95
4, 93840, Note_off_c, 2, 64, 80
4, 93840, Note_on_c, 2, 68, 95
4, 94080, Note_off_c, 2, 68, 80
4, 94080, Note_on_c, 2, 63, 95
4, 94320, Note_off_c, 2, 63, 80
4, 94320, Note_on_c, 2, 68, 95
4, 94560, Note_off_c, 2, 68, 80
4, 94560, Note_on_c, 2, 63, 95
4, 94800, Note_off_c, 2, 63, 80
4, 94800, Note_on_c, 2, 68, 95
4, 95040, Note_off_c, 2, 68, 80
4, 95040, Note_on_c, 2, 63, 95
4, 95160, Note_off_c, 2, 63, 80
4, 95160, Note_on_c, 2, 64, 76
4, 95280, Note_off_c, 2, 64, 80
4, 95280, Note_on_c, 2, 64, 95
4, 95400, Note_off_c, 2, 64, 80
4, 95400, Note_on_c, 2, 64, 95
4, 95520, Note_off_c, 2, 64, 80
4, 95520, Note_on_c, 2, 63, 95
4, 95640, Note_off_c, 2, 63, 80
4, 95640, Note_on_c, 2, 64, 76
4, 95760, Note_off_c, 2, 64, 80
4, 95760, Note_on_c, 2, 64, 95
4, 95880, Note_off_c, 2, 64, 80
4, 95880, Note_on_c, 2, 64, 95
4, 96000, Note_off_c, 2, 64, 80
4, 103680, Note_on_c, 2, 56, 95
4, 103680, Note_on_c, 2, 52, 95
4, 103680, Note_on_c, 2, 47, 95
4, 103680, Note_on_c, 2, 40, 95
4, 104640, Note_off_c, 2, 56, 80
4, 104640, Note_off_c, 2, 52, 80
4, 104640, Note_off_c, 2, 47, 80
4, 104640, Note_off_c, 2, 40, 80
4, 104640, Note_on_c, 2, 64, 95
4, 104640, Note_on_c, 2, 61, 95
4, 104640, Note_on_c, 2, 56, 95
4, 104640, Note_on_c, 2, 49, 95
4, 105600, Note_off_c, 2, 64, 80
4, 105600, Note_off_c, 2, 61, 80
4, 105600, Note_off_c, 2, 56, 80
4, 105600, Note_off_c, 2, 49, 80
4, 105600, Note_on_c, 2, 60, 95
4, 105600, Note_on_c, 2, 56, 95
4, 105600, Note_on_c, 2, 51, 95
4, 105600, Note_on_c, 2, 44, 95
4, 106560, Note_off_c, 2, 60, 80
4, 106560, Note_off_c, 2, 56, 80
4, 106560, Note_off_c, 2, 51, 80
4, 106560, Note_off_c, 2, 44, 80
4, 106560, Note_on_c, 2, 61, 95
4, 106560, Note_on_c, 2, 57, 95
4, 106560, Note_on_c, 2, 52, 95
4, 106560, Note_on_c, 2, 45, 95
4, 107520, Note_off_c, 2, 61, 80
4, 107520, Note_off_c, 2, 57, 80
4, 107520, Note_off_c, 2, 52, 80
4, 107520, Note_off_c, 2, 45, 80
4, 107520, Note_on_c, 2, 64, 95
4, 107520, Note_on_c, 2, 59, 95
4, 107520, Note_on_c, 2, 56, 95
4, 107520, Note_on_c, 2, 52, 95
4, 107520, Note_on_c, 2, 47, 95
4, 107520, Note_on_c, 2, 40, 95
4, 107540, Note_off_c, 2, 64, 80
4, 107540, Note_off_c, 2, 59, 80
4, 107540, Note_off_c, 2, 56, 80
4, 107760, Note_off_c, 2, 52, 80
4, 107760, Note_off_c, 2, 47, 80
4, 107760, Note_off_c, 2, 40, 80
4, 107760, Note_on_c, 2, 64, 95
4, 107760, Note_on_c, 2, 59, 95
4, 107760, Note_on_c, 2, 56, 95
4, 107760, Note_on_c, 2, 52, 95
4, 107760, Note_on_c, 2, 47, 95
4, 107760, Note_on_c, 2, 40, 95
4, 107780, Note_off_c, 2, 64, 80
4, 107780, Note_off_c, 2, 59, 80
4, 107780, Note_off_c, 2, 56, 80
4, 107780, Note_off_c, 2, 52, 80
4, 108000, Note_off_c, 2, 47, 80
4, 108000, Note_off_c, 2, 40, 80
4, 108000, Note_on_c, 2, 64, 95
4, 108000, Note_on_c, 2, 59, 95
4, 108000, Note_on_c, 2, 56, 95
4, 108000, Note_on_c, 2, 52, 95
4, 108000, Note_on_c, 2, 47, 95
4, 108000, Note_on_c, 2, 40, 95
4, 108020, Note_off_c, 2, 64, 80
4, 108020, Note_off_c, 2, 59, 80
4, 108020, Note_off_c, 2, 56, 80
4, 108240, Note_off_c, 2, 52, 80
4, 108240, Note_off_c, 2, 47, 80
4, 108240, Note_off_c, 2, 40, 80
4, 108240, Note_on_c, 2, 64, 95
4, 108240, Note_on_c, 2, 59, 95
4, 108240, Note_on_c, 2, 56, 95
4, 108240, Note_on_c, 2, 52, 95
4, 108240, Note_on_c, 2, 47, 95
4, 108240, Note_on_c, 2, 40, 95
4, 108260, Note_off_c, 2, 64, 80
4, 108260, Note_off_c, 2, 59, 80
4, 108260, Note_off_c, 2, 56, 80
4, 108360, Note_off_c, 2, 52, 80
4, 108360, Note_off_c, 2, 47, 80
4, 108360, Note_off_c, 2, 40, 80
4, 108360, Note_on_c, 2, 55, 95
4, 108360, Note_on_c, 2, 50, 95
4, 108360, Note_on_c, 2, 45, 95
4, 108360, Note_on_c, 2, 40, 95
4, 108380, Note_off_c, 2, 55, 80
4, 108380, Note_off_c, 2, 50, 80
4, 108480, Note_off_c, 2, 45, 80
4, 108480, Note_off_c, 2, 40, 80
4, 108480, Note_on_c, 2, 68, 95
4, 108480, Note_on_c, 2, 63, 95
4, 108480, Note_on_c, 2, 60, 95
4, 108480, Note_on_c, 2, 56, 95
4, 108480, Note_on_c, 2, 51, 95
4, 108480, Note_on_c, 2, 44, 95
4, 108500, Note_off_c, 2, 68, 80
4, 108500, Note_off_c, 2, 63, 80
4, 108500, Note_off_c, 2, 60, 80
4, 108720, Note_off_c, 2, 56, 80
4, 108720, Note_off_c, 2, 51, 80
4, 108720, Note_off_c, 2, 44, 80
4, 108720, Note_on_c, 2, 68, 95
4, 108720, Note_on_c, 2, 63, 95
4, 108720, Note_on_c, 2, 60, 95
4, 108720, Note_on_c, 2, 56, 95
4, 108720, Note_on_c, 2, 51, 95
4, 108720, Note_on_c, 2, 44, 95
4, 108740, Note_off_c, 2, 68, 80
4, 108740, Note_off_c, 2, 63, 80
4, 108740, Note_off_c, 2, 60, 80
4, 108960, Note_off_c, 2, 56, 80
4, 108960, Note_off_c, 2, 51, 80
4, 108960, Note_off_c, 2, 44, 80
4, 108960, Note_on_c, 2, 68, 95
4, 108960, Note_on_c, 2, 63, 95
4, 108960, Note_on_c, 2, 60, 95
4, 108960, Note_on_c, 2, 56, 95
4, 108960, Note_on_c, 2, 51, 95
4, 108960, Note_on_c, 2, 44, 95
4, 108980, Note_off_c, 2, 68, 80
4, 108980, Note_off_c, 2, 63, 80
4, 108980, Note_off_c, 2, 60, 80
4, 109200, Note_off_c, 2, 56, 80
4, 109200, Note_off_c, 2, 51, 80
4, 109200, Note_off_c, 2, 44, 80
4, 109200, Note_on_c, 2, 68, 95
4, 109200, Note_on_c, 2, 63, 95
4, 109200, Note_on_c, 2, 60, 95
4, 109200, Note_on_c, 2, 56, 95
4, 109200, Note_on_c, 2, 51, 95
4, 109200, Note_on_c, 2, 44, 95
4, 109220, Note_off_c, 2, 68, 80
4, 109220, Note_off_c, 2, 63, 80
4, 109320, Note_off_c, 2, 60, 80
4, 109320, Note_off_c, 2, 56, 80
4, 109320, Note_off_c, 2, 51, 80
4, 109320, Note_off_c, 2, 44, 80
4, 109320, Note_on_c, 2, 50, 95
4, 109320, Note_on_c, 2, 45, 95
4, 109320, Note_on_c, 2, 40, 95
4, 109340, Note_off_c, 2, 50, 80
4, 109340, Note_off_c, 2, 45, 80
4, 109440, Note_off_c, 2, 40, 80
4, 109440, Note_on_c, 2, 69, 95
4, 109440, Note_on_c, 2, 64, 95
4, 109440, Note_on_c, 2, 61, 95
4, 109440, Note_on_c, 2, 57, 95
4, 109440, Note_on_c, 2, 52, 95
4, 109440, Note_on_c, 2, 45, 95
4, 109460, Note_off_c, 2, 69, 80
4, 109460, Note_off_c, 2, 64, 80
4, 109460, Note_off_c, 2, 61, 80
4, 109460, Note_off_c, 2, 57, 80
4, 109680, Note_off_c, 2, 52, 80
4, 109680, Note_off_c, 2, 45, 80
4, 109680, Note_on_c, 2, 69, 95
4, 109680, Note_on_c, 2, 64, 95
4, 109680, Note_on_c, 2, 61, 95
4, 109680, Note_on_c, 2, 57, 95
4, 109680, Note_on_c, 2, 52, 95
4, 109680, Note_on_c, 2, 45, 95
4, 109700, Note_off_c, 2, 69, 80
4, 109700, Note_off_c, 2, 64, 80
4, 109700, Note_off_c, 2, 61, 80
4, 109700, Note_off_c, 2, 57, 80
4, 109920, Note_off_c, 2, 52, 80
4, 109920, Note_off_c, 2, 45, 80
4, 109920, Note_on_c, 2, 69, 95
4, 109920, Note_on_c, 2, 64, 95
4, 109920, Note_on_c, 2, 61, 95
4, 109920, Note_on_c, 2, 57, 95
4, 109920, Note_on_c, 2, 52, 95
4, 109920, Note_on_c, 2, 45, 95
4, 109940, Note_off_c, 2, 69, 80
4, 109940, Note_off_c, 2, 64, 80
4, 109940, Note_off_c, 2, 61, 80
4, 110160, Note_off_c, 2, 57, 80
4, 110160, Note_off_c, 2, 52, 80
4, 110160, Note_off_c, 2, 45, 80
4, 110160, Note_on_c, 2, 69, 95
4, 110160, Note_on_c, 2, 64, 95
4, 110160, Note_on_c, 2, 61, 95
4, 110160, Note_on_c, 2, 57, 95
4, 110160, Note_on_c, 2, 52, 95
4, 110160, Note_on_c, 2, 45, 95
4, 110180, Note_off_c, 2, 69, 80
4, 110180, Note_off_c, 2, 64, 80
4, 110280, Note_off_c, 2, 61, 80
4, 110280, Note_off_c, 2, 57, 80
4, 110280, Note_off_c, 2, 52, 80
4, 110280, Note_off_c, 2, 45, 80
4, 110280, Note_on_c, 2, 55, 95
4, 110280, Note_on_c, 2, 50, 95
4, 110280, Note_on_c, 2, 45, 95
4, 110400, Note_off_c, 2, 55, 80
4, 110400, Note_off_c, 2, 50, 80
4, 110400, Note_off_c, 2, 45, 80
4, 110400, Note_on_c, 2, 69, 95
4, 110400, Note_on_c, 2, 64, 95
4, 110400, Note_on_c, 2, 60, 95
4, 110400, Note_on_c, 2, 57, 95
4, 110400, Note_on_c, 2, 52, 95
4, 110400, Note_on_c, 2, 45, 95
4, 110420, Note_off_c, 2, 69, 80
4, 110420, Note_off_c, 2, 64, 80
4, 110640, Note_off_c, 2, 60, 80
4, 110640, Note_off_c, 2, 57, 80
4, 110640, Note_off_c, 2, 52, 80
4, 110640, Note_off_c, 2, 45, 80
4, 110640, Note_on_c, 2, 69, 95
4, 110640, Note_on_c, 2, 64, 95
4, 110640, Note_on_c, 2, 60, 95
4, 110640, Note_on_c, 2, 57, 95
4, 110640, Note_on_c, 2, 52, 95
4, 110640, Note_on_c, 2, 45, 95
4, 110660, Note_off_c, 2, 69, 80
4, 110660, Note_off_c, 2, 64, 80
4, 110880, Note_off_c, 2, 60, 80
4, 110880, Note_off_c, 2, 57, 80
4, 110880, Note_off_c, 2, 52, 80
4, 110880, Note_off_c, 2, 45, 80
4, 110880, Note_on_c, 2, 69, 95
4, 110880, Note_on_c, 2, 64, 95
4, 110880, Note_on_c, 2, 60, 95
4, 110880, Note_on_c, 2, 57, 95
4, 110880, Note_on_c, 2, 52, 95
4, 110880, Note_on_c, 2, 45, 95
4, 110900, Note_off_c, 2, 69, 80
4, 111120, Note_off_c, 2, 64, 80
4, 111120, Note_off_c, 2, 60, 80
4, 111120, Note_off_c, 2, 57, 80
4, 111120, Note_off_c, 2, 52, 80
4, 111120, Note_off_c, 2, 45, 80
4, 111120, Note_on_c, 2, 69, 95
4, 111120, Note_on_c, 2, 64, 95
4, 111120, Note_on_c, 2, 60, 95
4, 111120, Note_on_c, 2, 57, 95
4, 111120, Note_on_c, 2, 52, 95
4, 111120, Note_on_c, 2, 45, 95
4, 111240, Note_off_c, 2, 69, 80
4, 111240, Note_off_c, 2, 64, 80
4, 111240, Note_off_c, 2, 60, 80
4, 111240, Note_off_c, 2, 57, 80
4, 111240, Note_off_c, 2, 52, 80
4, 111240, Note_off_c, 2, 45, 80
4, 111240, Note_on_c, 2, 50, 95
4, 111240, Note_on_c, 2, 45, 95
4, 111240, Note_on_c, 2, 40, 95
4, 111360, Note_off_c, 2, 50, 80
4, 111360, Note_off_c, 2, 45, 80
4, 111360, Note_off_c, 2, 40, 80
4, 111360, Note_on_c, 2, 73, 95
4, 111360, Note_on_c, 2, 68, 95
4, 111360, Note_on_c, 2, 64, 95
4, 111360, Note_on_c, 2, 61, 95
4, 111360, Note_on_c, 2, 56, 95
4, 111360, Note_on_c, 2, 49, 95
4, 113280, Note_off_c, 2, 73, 80
4, 113280, Note_off_c, 2, 68, 80
4, 113280, Note_off_c, 2, 64, 80
4, 113280, Note_off_c, 2, 61, 80
4, 113280, Note_off_c, 2, 56, 80
4, 113280, Note_off_c, 2, 49, 80
4, 113280, Note_on_c, 2, 71, 95
4, 113280, Note_on_c, 2, 66, 95
4, 113280, Note_on_c, 2, 63, 95
4, 113280, Note_on_c, 2, 59, 95
4, 113280, Note_on_c, 2, 54, 95
4, 113280, Note_on_c, 2, 47, 95
4, 113760, Note_off_c, 2, 71, 80
4, 113760, Note_off_c, 2, 66, 80
4, 113760, Note_off_c, 2, 63, 80
4, 113760, Note_off_c, 2, 59, 80
4, 113760, Note_off_c, 2, 54, 80
4, 113760, Note_off_c, 2, 47, 80
4, 113760, Note_on_c, 2, 71, 95
4, 113760, Note_on_c, 2, 66, 95
4, 113760, Note_on_c, 2, 63, 95
4, 113760, Note_on_c, 2, 59, 95
4, 113760, Note_on_c, 2, 54, 95
4, 113760, Note_on_c, 2, 47, 95
4, 114000, Note_off_c, 2, 71, 80
4, 114000, Note_off_c, 2, 66, 80
4, 114000, Note_off_c, 2, 63, 80
4, 114000, Note_off_c, 2, 59, 80
4, 114000, Note_off_c, 2, 54, 80
4, 114000, Note_off_c, 2, 47, 80
4, 114000, Note_on_c, 2, 71, 95
4, 114000, Note_on_c, 2, 66, 95
4, 114000, Note_on_c, 2, 63, 95
4, 114000, Note_on_c, 2, 59, 95
4, 114000, Note_on_c, 2, 54, 95
4, 114000, Note_on_c, 2, 47, 95
4, 114120, Note_off_c, 2, 71, 80
4, 114120, Note_off_c, 2, 66, 80
4, 114120, Note_off_c, 2, 63, 80
4, 114120, Note_off_c, 2, 59, 80
4, 114120, Note_off_c, 2, 54, 80
4, 114120, Note_off_c, 2, 47, 80
4, 114120, Note_on_c, 2, 71, 95
4, 114120, Note_on_c, 2, 66, 95
4, 114120, Note_on_c, 2, 63, 95
4, 114120, Note_on_c, 2, 59, 95
4, 114120, Note_on_c, 2, 54, 95
4, 114120, Note_on_c, 2, 47, 95
4, 114240, Note_off_c, 2, 54, 80
4, 114360, Note_off_c, 2, 71, 80
4, 114360, Note_off_c, 2, 66, 80
4, 114360, Note_off_c, 2, 63, 80
4, 114360, Note_off_c, 2, 59, 80
4, 114360, Note_off_c, 2, 47, 80
4, 114360, Note_on_c, 2, 71, 95
4, 114360, Note_on_c, 2, 66, 95
4, 114360, Note_on_c, 2, 63, 95
4, 114360, Note_on_c, 2, 59, 95
4, 114360, Note_on_c, 2, 54, 95
4, 114360, Note_on_c, 2, 47, 95
4, 114480, Note_off_c, 2, 71, 80
4, 114480, Note_off_c, 2, 66, 80
4, 114480, Note_off_c, 2, 63, 80
4, 114480, Note_off_c, 2, 59, 80
4, 114480, Note_off_c, 2, 54, 80
4, 114480, Note_off_c, 2, 47, 80
4, 114480, Note_on_c, 2, 71, 95
4, 114480, Note_on_c, 2, 66, 95
4, 114480, Note_on_c, 2, 63, 95
4, 114480, Note_on_c, 2, 59, 95
4, 114480, Note_on_c, 2, 54, 95
4, 114480, Note_on_c, 2, 47, 95
4, 114720, Note_off_c, 2, 71, 80
4, 114720, Note_off_c, 2, 66, 80
4, 114720, Note_off_c, 2, 63, 80
4, 114720, Note_off_c, 2, 59, 80
4, 114720, Note_off_c, 2, 54, 80
4, 114720, Note_off_c, 2, 47, 80
4, 114720, Note_on_c, 2, 71, 95
4, 114720, Note_on_c, 2, 66, 95
4, 114720, Note_on_c, 2, 63, 95
4, 114720, Note_on_c, 2, 59, 95
4, 114720, Note_on_c, 2, 54, 95
4, 114720, Note_on_c, 2, 47, 95
4, 114840, Note_off_c, 2, 71, 80
4, 114840, Note_off_c, 2, 66, 80
4, 114840, Note_off_c, 2, 63, 80
4, 114840, Note_off_c, 2, 59, 80
4, 114840, Note_off_c, 2, 54, 80
4, 114840, Note_off_c, 2, 47, 80
4, 114840, Note_on_c, 2, 71, 95
4, 114840, Note_on_c, 2, 66, 95
4, 114840, Note_on_c, 2, 63, 95
4, 114840, Note_on_c, 2, 59, 95
4, 114840, Note_on_c, 2, 54, 95
4, 114840, Note_on_c, 2, 47, 95
4, 114960, Note_off_c, 2, 71, 80
4, 114960, Note_off_c, 2, 66, 80
4, 114960, Note_off_c, 2, 63, 80
4, 114960, Note_off_c, 2, 59, 80
4, 114960, Note_off_c, 2, 54, 80
4, 114960, Note_off_c, 2, 47, 80
4, 114960, Note_on_c, 2, 71, 95
4, 114960, Note_on_c, 2, 66, 95
4, 114960, Note_on_c, 2, 63, 95
4, 114960, Note_on_c, 2, 59, 95
4, 114960, Note_on_c, 2, 54, 95
4, 114960, Note_on_c, 2, 47, 95
4, 115080, Note_off_c, 2, 71, 80
4, 115080, Note_off_c, 2, 66, 80
4, 115080, Note_off_c, 2, 63, 80
4, 115080, Note_off_c, 2, 59, 80
4, 115080, Note_off_c, 2, 54, 80
4, 115080, Note_off_c, 2, 47, 80
4, 115080, Note_on_c, 2, 50, 95
4, 115080, Note_on_c, 2, 45, 95
4, 115200, Note_off_c, 2, 50, 80
4, 115200, Note_off_c, 2, 45, 80
4, 115200, Note_on_c, 2, 64, 95
4, 115440, Note_off_c, 2, 64, 80
4, 115440, Note_on_c, 2, 68, 95
4, 115680, Note_off_c, 2, 68, 80
4, 115680, Note_on_c, 2, 64, 95
4, 115920, Note_off_c, 2, 64, 80
4, 115920, Note_on_c, 2, 68, 95
4, 116160, Note_off_c, 2, 68, 80
4, 116160, Note_on_c, 2, 64, 95
4, 116400, Note_off_c, 2, 64, 80
4, 116400, Note_on_c, 2, 68, 95
4, 116640, Note_off_c, 2, 68, 80
4, 116640, Note_on_c, 2, 64, 95
4, 116880, Note_off_c, 2, 64, 80
4, 116880, Note_on_c, 2, 68, 95
4, 117120, Note_off_c, 2, 68, 80
4, 117120, Note_on_c, 2, 63, 95
4, 117360, Note_off_c, 2, 63, 80
4, 117360, Note_on_c, 2, 68, 95
4, 117600, Note_off_c, 2, 68, 80
4, 117600, Note_on_c, 2, 63, 95
4, 117840, Note_off_c, 2, 63, 80
4, 117840, Note_on_c, 2, 68, 95
4, 118080, Note_off_c, 2, 68, 80
4, 118080, Note_on_c, 2, 63, 95
4, 118200, Note_off_c, 2, 63, 80
4, 118200, Note_on_c, 2, 64, 76
4, 118320, Note_off_c, 2, 64, 80
4, 118320, Note_on_c, 2, 64, 95
4, 118440, Note_off_c, 2, 64, 80
4, 118440, Note_on_c, 2, 64, 95
4, 118560, Note_off_c, 2, 64, 80
4, 118560, Note_on_c, 2, 63, 95
4, 118680, Note_off_c, 2, 63, 80
4, 118680, Note_on_c, 2, 64, 76
4, 118800, Note_off_c, 2, 64, 80
4, 118800, Note_on_c, 2, 64, 95
4, 118920, Note_off_c, 2, 64, 80
4, 118920, Note_on_c, 2, 64, 95
4, 119040, Note_off_c, 2, 64, 80
4, 119040, Note_on_c, 2, 64, 95
4, 119280, Note_off_c, 2, 64, 80
4, 119280, Note_on_c, 2, 68, 95
4, 119520, Note_off_c, 2, 68, 80
4, 119520, Note_on_c, 2, 64, 95
4, 119760, Note_off_c, 2, 64, 80
4, 119760, Note_on_c, 2, 68, 95
4, 120000, Note_off_c, 2, 68, 80
4, 120000, Note_on_c, 2, 64, 95
4, 120240, Note_off_c, 2, 64, 80
4, 120240, Note_on_c, 2, 68, 95
4, 120480, Note_off_c, 2, 68, 80
4, 120480, Note_on_c, 2, 64, 95
4, 120720, Note_off_c, 2, 64, 80
4, 120720, Note_on_c, 2, 68, 95
4, 120960, Note_off_c, 2, 68, 80
4, 120960, Note_on_c, 2, 63, 95
4, 121200, Note_off_c, 2, 63, 80
4, 121200, Note_on_c, 2, 68, 95
4, 121440, Note_off_c, 2, 68, 80
4, 121440, Note_on_c, 2, 63, 95
4, 121680, Note_off_c, 2, 63, 80
4, 121680, Note_on_c, 2, 68, 95
4, 121920, Note_off_c, 2, 68, 80
4, 121920, Note_on_c, 2, 63, 95
4, 122040, Note_off_c, 2, 63, 80
4, 122040, Note_on_c, 2, 64, 76
4, 122160, Note_off_c, 2, 64, 80
4, 122160, Note_on_c, 2, 64, 95
4, 122280, Note_off_c, 2, 64, 80
4, 122280, Note_on_c, 2, 64, 95
4, 122400, Note_off_c, 2, 64, 80
4, 122400, Note_on_c, 2, 63, 95
4, 122520, Note_off_c, 2, 63, 80
4, 122520, Note_on_c, 2, 64, 76
4, 122640, Note_off_c, 2, 64, 80
4, 122640, Note_on_c, 2, 64, 95
4, 122760, Note_off_c, 2, 64, 80
4, 122760, Note_on_c, 2, 64, 95
4, 122880, Note_off_c, 2, 64, 80
4, 122880, Note_on_c, 2, 64, 95
4, 123120, Note_off_c, 2, 64, 80
4, 123120, Note_on_c, 2, 68, 95
4, 123360, Note_off_c, 2, 68, 80
4, 123360, Note_on_c, 2, 64, 95
4, 123600, Note_off_c, 2, 64, 80
4, 123600, Note_on_c, 2, 68, 95
4, 123840, Note_off_c, 2, 68, 80
4, 123840, Note_on_c, 2, 64, 95
4, 124080, Note_off_c, 2, 64, 80
4, 124080, Note_on_c, 2, 68, 95
4, 124320, Note_off_c, 2, 68, 80
4, 124320, Note_on_c, 2, 64, 95
4, 124560, Note_off_c, 2, 64, 80
4, 124560, Note_on_c, 2, 68, 95
4, 124800, Note_off_c, 2, 68, 80
4, 124800, Note_on_c, 2, 63, 95
4, 125040, Note_off_c, 2, 63, 80
4, 125040, Note_on_c, 2, 68, 95
4, 125280, Note_off_c, 2, 68, 80
4, 125280, Note_on_c, 2, 63, 95
4, 125520, Note_off_c, 2, 63, 80
4, 125520, Note_on_c, 2, 68, 95
4, 125760, Note_off_c, 2, 68, 80
4, 125760, Note_on_c, 2, 63, 95
4, 125880, Note_off_c, 2, 63, 80
4, 125880, Note_on_c, 2, 64, 76
4, 126000, Note_off_c, 2, 64, 80
4, 126000, Note_on_c, 2, 64, 95
4, 126120, Note_off_c, 2, 64, 80
4, 126120, Note_on_c, 2, 64, 95
4, 126240, Note_off_c, 2, 64, 80
4, 126240, Note_on_c, 2, 63, 95
4, 126360, Note_off_c, 2, 63, 80
4, 126360, Note_on_c, 2, 64, 76
4, 126480, Note_off_c, 2, 64, 80
4, 126480, Note_on_c, 2, 64, 95
4, 126600, Note_off_c, 2, 64, 80
4, 126600, Note_on_c, 2, 64, 95
4, 126720, Note_off_c, 2, 64, 80
4, 126720, Note_on_c, 2, 64, 95
4, 126960, Note_off_c, 2, 64, 80
4, 126960, Note_on_c, 2, 68, 95
4, 127200, Note_off_c, 2, 68, 80
4, 127200, Note_on_c, 2, 64, 95
4, 127440, Note_off_c, 2, 64, 80
4, 127440, Note_on_c, 2, 68, 95
4, 127680, Note_off_c, 2, 68, 80
4, 127680, Note_on_c, 2, 64, 95
4, 127920, Note_off_c, 2, 64, 80
4, 127920, Note_on_c, 2, 68, 95
4, 128160, Note_off_c, 2, 68, 80
4, 128160, Note_on_c, 2, 64, 95
4, 128400, Note_off_c, 2, 64, 80
4, 128400, Note_on_c, 2, 68, 95
4, 128640, Note_off_c, 2, 68, 80
4, 128640, Note_on_c, 2, 63, 95
4, 128880, Note_off_c, 2, 63, 80
4, 128880, Note_on_c, 2, 68, 95
4, 129120, Note_off_c, 2, 68, 80
4, 129120, Note_on_c, 2, 63, 95
4, 129360, Note_off_c, 2, 63, 80
4, 129360, Note_on_c, 2, 68, 95
4, 129600, Note_off_c, 2, 68, 80
4, 129600, Note_on_c, 2, 63, 95
4, 129720, Note_off_c, 2, 63, 80
4, 129720, Note_on_c, 2, 64, 76
4, 129840, Note_off_c, 2, 64, 80
4, 129840, Note_on_c, 2, 64, 95
4, 129960, Note_off_c, 2, 64, 80
4, 129960, Note_on_c, 2, 64, 95
4, 130080, Note_off_c, 2, 64, 80
4, 130080, Note_on_c, 2, 63, 95
4, 130200, Note_off_c, 2, 63, 80
4, 130200, Note_on_c, 2, 64, 76
4, 130320, Note_off_c, 2, 64, 80
4, 130320, Note_on_c, 2, 64, 95
4, 130440, Note_off_c, 2, 64, 80
4, 130440, Note_on_c, 2, 64, 95
4, 130560, Note_off_c, 2, 64, 80
4, 130560, Note_on_c, 2, 64, 95
4, 130800, Note_off_c, 2, 64, 80
4, 130800, Note_on_c, 2, 68, 95
4, 131040, Note_off_c, 2, 68, 80
4, 131040, Note_on_c, 2, 64, 95
4, 131280, Note_off_c, 2, 64, 80
4, 131280, Note_on_c, 2, 68, 95
4, 131520, Note_off_c, 2, 68, 80
4, 131520, Note_on_c, 2, 64, 95
4, 131760, Note_off_c, 2, 64, 80
4, 131760, Note_on_c, 2, 68, 95
4, 132000, Note_off_c, 2, 68, 80
4, 132000, Note_on_c, 2, 64, 95
4, 132240, Note_off_c, 2, 64, 80
4, 132240, Note_on_c, 2, 68, 95
4, 132480, Note_off_c, 2, 68, 80
4, 132480, Note_on_c, 2, 63, 95
4, 132720, Note_off_c, 2, 63, 80
4, 132720, Note_on_c, 2, 68, 95
4, 132960, Note_off_c, 2, 68, 80
4, 132960, Note_on_c, 2, 63, 95
4, 133200, Note_off_c, 2, 63, 80
4, 133200, Note_on_c, 2, 68, 95
4, 133440, Note_off_c, 2, 68, 80
4, 133440, Note_on_c, 2, 63, 95
4, 133560, Note_off_c, 2, 63, 80
4, 133560, Note_on_c, 2, 64, 76
4, 133680, Note_off_c, 2, 64, 80
4, 133680, Note_on_c, 2, 64, 95
4, 133800, Note_off_c, 2, 64, 80
4, 133800, Note_on_c, 2, 64, 95
4, 133920, Note_off_c, 2, 64, 80
4, 133920, Note_on_c, 2, 63, 95
4, 134040, Note_off_c, 2, 63, 80
4, 134040, Note_on_c, 2, 64, 76
4, 134160, Note_off_c, 2, 64, 80
4, 134160, Note_on_c, 2, 64, 95
4, 134280, Note_off_c, 2, 64, 80
4, 134280, Note_on_c, 2, 64, 95
4, 134400, Note_off_c, 2, 64, 80
4, 134400, Note_on_c, 2, 64, 95
4, 134640, Note_off_c, 2, 64, 80
4, 134640, Note_on_c, 2, 68, 95
4, 134880, Note_off_c, 2, 68, 80
4, 134880, Note_on_c, 2, 64, 95
4, 135120, Note_off_c, 2, 64, 80
4, 135120, Note_on_c, 2, 68, 95
4, 135360, Note_off_c, 2, 68, 80
4, 135360, Note_on_c, 2, 64, 95
4, 135600, Note_off_c, 2, 64, 80
4, 135600, Note_on_c, 2, 68, 95
4, 135840, Note_off_c, 2, 68, 80
4, 135840, Note_on_c, 2, 64, 95
4, 136080, Note_off_c, 2, 64, 80
4, 136080, Note_on_c, 2, 68, 95
4, 136320, Note_off_c, 2, 68, 80
4, 136320, Note_on_c, 2, 63, 95
4, 136560, Note_off_c, 2, 63, 80
4, 136560, Note_on_c, 2, 68, 95
4, 136800, Note_off_c, 2, 68, 80
4, 136800, Note_on_c, 2, 63, 95
4, 137040, Note_off_c, 2, 63, 80
4, 137040, Note_on_c, 2, 68, 95
4, 137280, Note_off_c, 2, 68, 80
4, 137280, Note_on_c, 2, 63, 95
4, 137400, Note_off_c, 2, 63, 80
4, 137400, Note_on_c, 2, 64, 76
4, 137520, Note_off_c, 2, 64, 80
4, 137520, Note_on_c, 2, 64, 95
4, 137640, Note_off_c, 2, 64, 80
4, 137640, Note_on_c, 2, 64, 95
4, 137760, Note_off_c, 2, 64, 80
4, 137760, Note_on_c, 2, 63, 95
4, 137880, Note_off_c, 2, 63, 80
4, 137880, Note_on_c, 2, 64, 76
4, 138000, Note_off_c, 2, 64, 80
4, 138000, Note_on_c, 2, 64, 95
4, 138120, Note_off_c, 2, 64, 80
4, 138120, Note_on_c, 2, 64, 95
4, 138240, Note_off_c, 2, 64, 80
4, 138240, Note_on_c, 2, 64, 95
4, 138480, Note_off_c, 2, 64, 80
4, 138480, Note_on_c, 2, 68, 95
4, 138720, Note_off_c, 2, 68, 80
4, 138720, Note_on_c, 2, 64, 95
4, 138960, Note_off_c, 2, 64, 80
4, 138960, Note_on_c, 2, 68, 95
4, 139200, Note_off_c, 2, 68, 80
4, 139200, Note_on_c, 2, 64, 95
4, 139440, Note_off_c, 2, 64, 80
4, 139440, Note_on_c, 2, 68, 95
4, 139680, Note_off_c, 2, 68, 80
4, 139680, Note_on_c, 2, 64, 95
4, 139920, Note_off_c, 2, 64, 80
4, 139920, Note_on_c, 2, 68, 95
4, 140160, Note_off_c, 2, 68, 80
4, 140160, Note_on_c, 2, 63, 95
4, 140400, Note_off_c, 2, 63, 80
4, 140400, Note_on_c, 2, 68, 95
4, 140640, Note_off_c, 2, 68, 80
4, 140640, End_track
5, 0, Start_track
5, 0, Title_t, "Synthe (Back Voice)"
5, 0, Control_c, 10, 100, 0
5, 0, Control_c, 10, 101, 0
5, 0, Control_c, 10, 6, 12
5, 0, Pitch_bend_c, 10, 8192
5, 0, Control_c, 10, 101, 0
5, 0, Control_c, 10, 100, 1
5, 0, Control_c, 10, 6, 64
5, 0, Control_c, 10, 38, 0
5, 0, Control_c, 10, 101, 127
5, 0, Control_c, 10, 100, 127
5, 0, Control_c, 8, 100, 0
5, 0, Control_c, 8, 101, 0
5, 0, Control_c, 8, 6, 12
5, 0, Pitch_bend_c, 8, 8192
5, 0, Control_c, 8, 101, 0
5, 0, Control_c, 8, 100, 1
5, 0, Control_c, 8, 6, 64
5, 0, Control_c, 8, 38, 0
5, 0, Control_c, 8, 101, 127
5, 0, Control_c, 8, 100, 127
5, 0, Control_c, 10, 101, 0
5, 0, Control_c, 10, 100, 2
5, 0, Control_c, 10, 6, 64
5, 0, Control_c, 10, 101, 127
5, 0, Control_c, 10, 100, 127
5, 0, Control_c, 8, 101, 0
5, 0, Control_c, 8, 100, 2
5, 0, Control_c, 8, 6, 64
5, 0, Control_c, 8, 101, 127
5, 0, Control_c, 8, 100, 127
5, 0, Program_c, 10, 54
5, 0, Program_c, 8, 54
5, 0, Control_c, 10, 0, 0
5, 0, Control_c, 8, 0, 0
5, 0, Control_c, 10, 7, 80
5, 0, Control_c, 8, 7, 80
5, 0, Control_c, 10, 10, 64
5, 0, Control_c, 8, 10, 64
5, 0, Control_c, 10, 93, 0
5, 0, Control_c, 8, 93, 0
5, 0, Control_c, 10, 91, 72
5, 0, Control_c, 8, 91, 72
5, 0, Control_c, 10, 92, 0
5, 0, Control_c, 8, 92, 0
5, 0, Control_c, 10, 95, 0
5, 0, Control_c, 8, 95, 0
5, 0, Note_on_c, 8, 75, 95
5, 960, Note_off_c, 8, 75, 80
5, 2400, Note_on_c, 8, 76, 95
5, 2880, Note_off_c, 8, 76, 80
5, 2880, Note_on_c, 8, 75, 95
5, 3840, Note_off_c, 8, 75, 80
5, 5760, Control_c, 8, 7, 80
5, 5760, Control_c, 10, 7, 80
5, 6240, Note_on_c, 8, 76, 95
5, 6720, Note_off_c, 8, 76, 80
5, 6720, Note_on_c, 8, 75, 95
5, 7680, Note_off_c, 8, 75, 80
5, 10080, Control_c, 8, 7, 112
5, 10080, Control_c, 10, 7, 112
5, 10080, Note_on_c, 8, 76, 95
5, 10560, Note_off_c, 8, 76, 80
5, 10560, Note_on_c, 8, 75, 95
5, 11520, Note_off_c, 8, 75, 80
5, 13920, Control_c, 8, 7, 112
5, 13920, Control_c, 10, 7, 112
5, 13920, Note_on_c, 8, 76, 95
5, 14400, Note_off_c, 8, 76, 80
5, 14400, Note_on_c, 8, 75, 95
5, 15360, Note_off_c, 8, 75, 80
5, 17760, Control_c, 8, 7, 112
5, 17760, Control_c, 10, 7, 112
5, 17760, Note_on_c, 8, 76, 95
5, 18240, Note_off_c, 8, 76, 80
5, 18240, Note_on_c, 8, 75, 95
5, 19200, Note_off_c, 8, 75, 80
5, 21600, Control_c, 8, 7, 112
5, 21600, Control_c, 10, 7, 112
5, 21600, Note_on_c, 8, 76, 95
5, 22080, Note_off_c, 8, 76, 80
5, 22080, Note_on_c, 8, 75, 95
5, 23040, Note_off_c, 8, 75, 80
5, 25440, Control_c, 8, 7, 112
5, 25440, Control_c, 10, 7, 112
5, 25440, Note_on_c, 8, 76, 95
5, 25920, Note_off_c, 8, 76, 80
5, 25920, Note_on_c, 8, 75, 95
5, 26880, Note_off_c, 8, 75, 80
5, 48480, Note_on_c, 8, 76, 95
5, 48960, Note_off_c, 8, 76, 80
5, 48960, Note_on_c, 8, 75, 95
5, 49920, Note_off_c, 8, 75, 80
5, 52320, Note_on_c, 8, 76, 95
5, 52800, Note_off_c, 8, 76, 80
5, 52800, Note_on_c, 8, 75, 95
5, 53760, Note_off_c, 8, 75, 80
5, 56160, Note_on_c, 8, 76, 95
5, 56640, Note_off_c, 8, 76, 80
5, 56640, Note_on_c, 8, 75, 95
5, 57600, Note_off_c, 8, 75, 80
5, 84960, Control_c, 8, 7, 112
5, 84960, Control_c, 10, 7, 112
5, 84960, Note_on_c, 8, 76, 95
5, 85440, Note_off_c, 8, 76, 80
5, 85440, Note_on_c, 8, 75, 95
5, 86400, Note_off_c, 8, 75, 80
5, 88800, Control_c, 8, 7, 112
5, 88800, Control_c, 10, 7, 112
5, 88800, Note_on_c, 8, 76, 95
5, 89280, Note_off_c, 8, 76, 80
5, 89280, Note_on_c, 8, 75, 95
5, 90240, Note_off_c, 8, 75, 80
5, 92640, Note_on_c, 8, 76, 95
5, 93120, Note_off_c, 8, 76, 80
5, 93120, Note_on_c, 8, 75, 95
5, 94080, Note_off_c, 8, 75, 80
5, 115680, Note_on_c, 8, 76, 95
5, 116160, Note_off_c, 8, 76, 80
5, 116160, Note_on_c, 8, 75, 95
5, 117120, Note_off_c, 8, 75, 80
5, 119520, Note_on_c, 8, 76, 95
5, 120000, Note_off_c, 8, 76, 80
5, 120000, Note_on_c, 8, 75, 95
5, 120960, Note_off_c, 8, 75, 80
5, 123360, Note_on_c, 8, 76, 95
5, 123840, Note_off_c, 8, 76, 80
5, 123840, Note_on_c, 8, 75, 95
5, 124800, Note_off_c, 8, 75, 80
5, 127200, Note_on_c, 8, 76, 95
5, 127680, Note_off_c, 8, 76, 80
5, 127680, Note_on_c, 8, 75, 95
5, 128640, Note_off_c, 8, 75, 80
5, 131040, Note_on_c, 8, 76, 95
5, 131520, Note_off_c, 8, 76, 80
5, 131520, Note_on_c, 8, 75, 95
5, 132480, Note_off_c, 8, 75, 80
5, 134880, Note_on_c, 8, 76, 95
5, 135360, Note_off_c, 8, 76, 80
5, 135360, Note_on_c, 8, 75, 95
5, 136320, Note_off_c, 8, 75, 80
5, 138720, Note_on_c, 8, 76, 95
5, 139200, Note_off_c, 8, 76, 80
5, 139200, Note_on_c, 8, 75, 95
5, 140160, Note_off_c, 8, 75, 80
5, 142560, Note_on_c, 8, 76, 95
5, 143040, Note_off_c, 8, 76, 80
5, 143040, Note_on_c, 8, 75, 95
5, 144000, Note_off_c, 8, 75, 80
5, 144000, End_track
6, 0, Start_track
6, 0, Title_t, "Bass"
6, 0, Control_c, 5, 100, 0
6, 0, Control_c, 5, 101, 0
6, 0, Control_c, 5, 6, 12
6, 0, Pitch_bend_c, 5, 8192
6, 0, Control_c, 5, 101, 0
6, 0, Control_c, 5, 100, 1
6, 0, Control_c, 5, 6, 64
6, 0, Control_c, 5, 38, 0
6, 0, Control_c, 5, 101, 127
6, 0, Control_c, 5, 100, 127
6, 0, Control_c, 4, 100, 0
6, 0, Control_c, 4, 101, 0
6, 0, Control_c, 4, 6, 12
6, 0, Pitch_bend_c, 4, 8192
6, 0, Control_c, 4, 101, 0
6, 0, Control_c, 4, 100, 1
6, 0, Control_c, 4, 6, 64
6, 0, Control_c, 4, 38, 0
6, 0, Control_c, 4, 101, 127
6, 0, Control_c, 4, 100, 127
6, 0, Control_c, 5, 101, 0
6, 0, Control_c, 5, 100, 2
6, 0, Control_c, 5, 6, 64
6, 0, Control_c, 5, 101, 127
6, 0, Control_c, 5, 100, 127
6, 0, Control_c, 4, 101, 0
6, 0, Control_c, 4, 100, 2
6, 0, Control_c, 4, 6, 64
6, 0, Control_c, 4, 101, 127
6, 0, Control_c, 4, 100, 127
6, 0, Program_c, 5, 33
6, 0, Program_c, 4, 33
6, 0, Control_c, 5, 0, 0
6, 0, Control_c, 4, 0, 0
6, 0, Control_c, 5, 7, 88
6, 0, Control_c, 4, 7, 88
6, 0, Control_c, 5, 10, 64
6, 0, Control_c, 4, 10, 64
6, 0, Control_c, 5, 93, 0
6, 0, Control_c, 4, 93, 0
6, 0, Control_c, 5, 91, 0
6, 0, Control_c, 4, 91, 0
6, 0, Control_c, 5, 92, 0
6, 0, Control_c, 4, 92, 0
6, 0, Control_c, 5, 95, 0
6, 0, Control_c, 4, 95, 0
6, 9600, Note_on_c, 4, 28, 95
6, 9840, Note_off_c, 4, 28, 80
6, 9840, Note_on_c, 4, 28, 95
6, 10080, Note_off_c, 4, 28, 80
6, 10080, Note_on_c, 4, 28, 95
6, 10320, Note_off_c, 4, 28, 80
6, 10320, Note_on_c, 4, 28, 95
6, 10560, Note_off_c, 4, 28, 80
6, 10560, Note_on_c, 4, 37, 95
6, 10800, Note_off_c, 4, 37, 80
6, 10800, Note_on_c, 4, 37, 95
6, 11040, Note_off_c, 4, 37, 80
6, 11040, Note_on_c, 4, 37, 95
6, 11280, Note_off_c, 4, 37, 80
6, 11280, Note_on_c, 4, 37, 95
6, 11520, Note_off_c, 4, 37, 80
6, 11520, Note_on_c, 4, 32, 95
6, 11760, Note_off_c, 4, 32, 80
6, 11760, Note_on_c, 4, 32, 95
6, 12000, Note_off_c, 4, 32, 80
6, 12000, Note_on_c, 4, 32, 95
6, 12240, Note_off_c, 4, 32, 80
6, 12240, Note_on_c, 4, 32, 95
6, 12480, Note_off_c, 4, 32, 80
6, 12480, Note_on_c, 4, 33, 95
6, 12720, Note_off_c, 4, 33, 80
6, 12720, Note_on_c, 4, 33, 95
6, 12960, Note_off_c, 4, 33, 80
6, 12960, Note_on_c, 4, 33, 95
6, 13200, Note_off_c, 4, 33, 80
6, 13200, Note_on_c, 4, 33, 95
6, 13440, Note_off_c, 4, 33, 80
6, 13440, Note_on_c, 4, 28, 95
6, 13680, Note_off_c, 4, 28, 80
6, 13680, Note_on_c, 4, 28, 95
6, 13920, Note_off_c, 4, 28, 80
6, 13920, Note_on_c, 4, 28, 95
6, 14160, Note_off_c, 4, 28, 80
6, 14160, Note_on_c, 4, 28, 95
6, 14400, Note_off_c, 4, 28, 80
6, 14400, Note_on_c, 4, 37, 95
6, 14640, Note_off_c, 4, 37, 80
6, 14640, Note_on_c, 4, 37, 95
6, 14880, Note_off_c, 4, 37, 80
6, 14880, Note_on_c, 4, 37, 95
6, 15120, Note_off_c, 4, 37, 80
6, 15120, Note_on_c, 4, 37, 95
6, 15360, Note_off_c, 4, 37, 80
6, 15360, Note_on_c, 4, 32, 95
6, 15600, Note_off_c, 4, 32, 80
6, 15600, Note_on_c, 4, 32, 95
6, 15840, Note_off_c, 4, 32, 80
6, 15840, Note_on_c, 4, 32, 95
6, 16080, Note_off_c, 4, 32, 80
6, 16080, Note_on_c, 4, 32, 95
6, 16320, Note_off_c, 4, 32, 80
6, 16320, Note_on_c, 4, 33, 95
6, 16560, Note_off_c, 4, 33, 80
6, 16560, Note_on_c, 4, 33, 95
6, 16800, Note_off_c, 4, 33, 80
6, 16800, Note_on_c, 4, 33, 95
6, 17040, Note_off_c, 4, 33, 80
6, 17040, Note_on_c, 4, 33, 95
6, 17280, Note_off_c, 4, 33, 80
6, 17280, Note_on_c, 4, 28, 95
6, 17520, Note_off_c, 4, 28, 80
6, 17520, Note_on_c, 4, 28, 95
6, 17760, Note_off_c, 4, 28, 80
6, 17760, Note_on_c, 4, 28, 95
6, 18000, Note_off_c, 4, 28, 80
6, 18000, Note_on_c, 4, 28, 95
6, 18240, Note_off_c, 4, 28, 80
6, 18240, Note_on_c, 4, 37, 95
6, 18480, Note_off_c, 4, 37, 80
6, 18480, Note_on_c, 4, 37, 95
6, 18720, Note_off_c, 4, 37, 80
6, 18720, Note_on_c, 4, 37, 95
6, 18960, Note_off_c, 4, 37, 80
6, 18960, Note_on_c, 4, 37, 95
6, 19200, Note_off_c, 4, 37, 80
6, 19200, Note_on_c, 4, 32, 95
6, 19440, Note_off_c, 4, 32, 80
6, 19440, Note_on_c, 4, 32, 95
6, 19680, Note_off_c, 4, 32, 80
6, 19680, Note_on_c, 4, 32, 95
6, 19920, Note_off_c, 4, 32, 80
6, 19920, Note_on_c, 4, 32, 95
6, 20160, Note_off_c, 4, 32, 80
6, 20160, Note_on_c, 4, 33, 95
6, 20400, Note_off_c, 4, 33, 80
6, 20400, Note_on_c, 4, 33, 95
6, 20640, Note_off_c, 4, 33, 80
6, 20640, Note_on_c, 4, 33, 95
6, 20880, Note_off_c, 4, 33, 80
6, 20880, Note_on_c, 4, 33, 95
6, 21120, Note_off_c, 4, 33, 80
6, 21120, Note_on_c, 4, 28, 95
6, 21360, Note_off_c, 4, 28, 80
6, 21360, Note_on_c, 4, 28, 95
6, 21600, Note_off_c, 4, 28, 80
6, 21600, Note_on_c, 4, 28, 95
6, 21840, Note_off_c, 4, 28, 80
6, 21840, Note_on_c, 4, 28, 95
6, 22080, Note_off_c, 4, 28, 80
6, 22080, Note_on_c, 4, 37, 95
6, 22320, Note_off_c, 4, 37, 80
6, 22320, Note_on_c, 4, 37, 95
6, 22560, Note_off_c, 4, 37, 80
6, 22560, Note_on_c, 4, 37, 95
6, 22800, Note_off_c, 4, 37, 80
6, 22800, Note_on_c, 4, 37, 95
6, 23040, Note_off_c, 4, 37, 80
6, 23040, Note_on_c, 4, 32, 95
6, 23280, Note_off_c, 4, 32, 80
6, 23280, Note_on_c, 4, 32, 95
6, 23520, Note_off_c, 4, 32, 80
6, 23520, Note_on_c, 4, 32, 95
6, 23760, Note_off_c, 4, 32, 80
6, 23760, Note_on_c, 4, 32, 95
6, 24000, Note_off_c, 4, 32, 80
6, 24000, Note_on_c, 4, 33, 95
6, 24240, Note_off_c, 4, 33, 80
6, 24240, Note_on_c, 4, 33, 95
6, 24480, Note_off_c, 4, 33, 80
6, 24480, Note_on_c, 4, 33, 95
6, 24720, Note_off_c, 4, 33, 80
6, 24720, Note_on_c, 4, 33, 95
6, 24960, Note_off_c, 4, 33, 80
6, 24960, Note_on_c, 4, 28, 95
6, 25200, Note_off_c, 4, 28, 80
6, 25200, Note_on_c, 4, 28, 95
6, 25440, Note_off_c, 4, 28, 80
6, 25440, Note_on_c, 4, 28, 95
6, 25680, Note_off_c, 4, 28, 80
6, 25680, Note_on_c, 4, 28, 95
6, 25920, Note_off_c, 4, 28, 80
6, 25920, Note_on_c, 4, 37, 95
6, 26160, Note_off_c, 4, 37, 80
6, 26160, Note_on_c, 4, 37, 95
6, 26400, Note_off_c, 4, 37, 80
6, 26400, Note_on_c, 4, 37, 95
6, 26640, Note_off_c, 4, 37, 80
6, 26640, Note_on_c, 4, 37, 95
6, 26880, Note_off_c, 4, 37, 80
6, 26880, Note_on_c, 4, 32, 95
6, 27120, Note_off_c, 4, 32, 80
6, 27120, Note_on_c, 4, 32, 95
6, 27360, Note_off_c, 4, 32, 80
6, 27360, Note_on_c, 4, 32, 95
6, 27600, Note_off_c, 4, 32, 80
6, 27600, Note_on_c, 4, 32, 95
6, 27840, Note_off_c, 4, 32, 80
6, 27840, Note_on_c, 4, 33, 95
6, 28080, Note_off_c, 4, 33, 80
6, 28080, Note_on_c, 4, 33, 95
6, 28320, Note_off_c, 4, 33, 80
6, 28320, Note_on_c, 4, 33, 95
6, 28560, Note_off_c, 4, 33, 80
6, 28560, Note_on_c, 4, 33, 95
6, 28800, Note_off_c, 4, 33, 80
6, 28800, Note_on_c, 4, 28, 95
6, 29040, Note_off_c, 4, 28, 80
6, 29040, Note_on_c, 4, 28, 95
6, 29280, Note_off_c, 4, 28, 80
6, 29280, Note_on_c, 4, 28, 95
6, 29520, Note_off_c, 4, 28, 80
6, 29520, Note_on_c, 4, 28, 95
6, 29760, Note_off_c, 4, 28, 80
6, 29760, Note_on_c, 4, 37, 95
6, 30000, Note_off_c, 4, 37, 80
6, 30000, Note_on_c, 4, 37, 95
6, 30240, Note_off_c, 4, 37, 80
6, 30240, Note_on_c, 4, 37, 95
6, 30480, Note_off_c, 4, 37, 80
6, 30480, Note_on_c, 4, 37, 95
6, 30720, Note_off_c, 4, 37, 80
6, 30720, Note_on_c, 4, 32, 95
6, 30960, Note_off_c, 4, 32, 80
6, 30960, Note_on_c, 4, 32, 95
6, 31200, Note_off_c, 4, 32, 80
6, 31200, Note_on_c, 4, 32, 95
6, 31440, Note_off_c, 4, 32, 80
6, 31440, Note_on_c, 4, 32, 95
6, 31680, Note_off_c, 4, 32, 80
6, 31680, Note_on_c, 4, 33, 95
6, 31920, Note_off_c, 4, 33, 80
6, 31920, Note_on_c, 4, 33, 95
6, 32160, Note_off_c, 4, 33, 80
6, 32160, Note_on_c, 4, 33, 95
6, 32400, Note_off_c, 4, 33, 80
6, 32400, Note_on_c, 4, 33, 95
6, 32640, Note_off_c, 4, 33, 80
6, 32640, Note_on_c, 4, 28, 95
6, 32880, Note_off_c, 4, 28, 80
6, 32880, Note_on_c, 4, 28, 95
6, 33120, Note_off_c, 4, 28, 80
6, 33120, Note_on_c, 4, 28, 95
6, 33360, Note_off_c, 4, 28, 80
6, 33360, Note_on_c, 4, 28, 95
6, 33600, Note_off_c, 4, 28, 80
6, 33600, Note_on_c, 4, 37, 95
6, 33840, Note_off_c, 4, 37, 80
6, 33840, Note_on_c, 4, 37, 95
6, 34080, Note_off_c, 4, 37, 80
6, 34080, Note_on_c, 4, 37, 95
6, 34320, Note_off_c, 4, 37, 80
6, 34320, Note_on_c, 4, 37, 95
6, 34560, Note_off_c, 4, 37, 80
6, 34560, Note_on_c, 4, 32, 95
6, 34800, Note_off_c, 4, 32, 80
6, 34800, Note_on_c, 4, 32, 95
6, 35040, Note_off_c, 4, 32, 80
6, 35040, Note_on_c, 4, 32, 95
6, 35280, Note_off_c, 4, 32, 80
6, 35280, Note_on_c, 4, 32, 95
6, 35520, Note_off_c, 4, 32, 80
6, 35520, Note_on_c, 4, 33, 95
6, 35760, Note_off_c, 4, 33, 80
6, 35760, Note_on_c, 4, 33, 95
6, 36000, Note_off_c, 4, 33, 80
6, 36000, Note_on_c, 4, 33, 95
6, 36240, Note_off_c, 4, 33, 80
6, 36240, Note_on_c, 4, 33, 95
6, 36480, Note_off_c, 4, 33, 80
6, 36480, Note_on_c, 4, 28, 95
6, 36720, Note_off_c, 4, 28, 80
6, 36720, Note_on_c, 4, 28, 95
6, 36960, Note_off_c, 4, 28, 80
6, 36960, Note_on_c, 4, 28, 95
6, 37200, Note_off_c, 4, 28, 80
6, 37200, Note_on_c, 4, 28, 95
6, 37440, Note_off_c, 4, 28, 80
6, 37440, Note_on_c, 4, 37, 95
6, 37680, Note_off_c, 4, 37, 80
6, 37680, Note_on_c, 4, 37, 95
6, 37920, Note_off_c, 4, 37, 80
6, 37920, Note_on_c, 4, 37, 95
6, 38160, Note_off_c, 4, 37, 80
6, 38160, Note_on_c, 4, 37, 95
6, 38400, Note_off_c, 4, 37, 80
6, 38400, Note_on_c, 4, 32, 95
6, 38640, Note_off_c, 4, 32, 80
6, 38640, Note_on_c, 4, 32, 95
6, 38880, Note_off_c, 4, 32, 80
6, 38880, Note_on_c, 4, 32, 95
6, 39120, Note_off_c, 4, 32, 80
6, 39120, Note_on_c, 4, 32, 95
6, 39360, Note_off_c, 4, 32, 80
6, 39360, Note_on_c, 4, 33, 95
6, 39600, Note_off_c, 4, 33, 80
6, 39600, Note_on_c, 4, 33, 95
6, 39840, Note_off_c, 4, 33, 80
6, 39840, Note_on_c, 4, 33, 95
6, 40080, Note_off_c, 4, 33, 80
6, 40080, Note_on_c, 4, 33, 95
6, 40320, Note_off_c, 4, 33, 80
6, 40320, Note_on_c, 4, 28, 95
6, 40560, Note_off_c, 4, 28, 80
6, 40560, Note_on_c, 4, 28, 95
6, 40800, Note_off_c, 4, 28, 80
6, 40800, Note_on_c, 4, 28, 95
6, 41040, Note_off_c, 4, 28, 80
6, 41040, Note_on_c, 4, 28, 95
6, 41280, Note_off_c, 4, 28, 80
6, 41280, Note_on_c, 4, 32, 95
6, 41520, Note_off_c, 4, 32, 80
6, 41520, Note_on_c, 4, 32, 95
6, 41760, Note_off_c, 4, 32, 80
6, 41760, Note_on_c, 4, 32, 95
6, 42000, Note_off_c, 4, 32, 80
6, 42000, Note_on_c, 4, 32, 95
6, 42240, Note_off_c, 4, 32, 80
6, 42240, Note_on_c, 4, 33, 95
6, 42480, Note_off_c, 4, 33, 80
6, 42480, Note_on_c, 4, 33, 95
6, 42720, Note_off_c, 4, 33, 80
6, 42720, Note_on_c, 4, 33, 95
6, 42960, Note_off_c, 4, 33, 80
6, 42960, Note_on_c, 4, 33, 95
6, 43200, Note_off_c, 4, 33, 80
6, 43200, Note_on_c, 4, 33, 95
6, 43440, Note_off_c, 4, 33, 80
6, 43440, Note_on_c, 4, 33, 95
6, 43680, Note_off_c, 4, 33, 80
6, 43680, Note_on_c, 4, 33, 95
6, 43920, Note_off_c, 4, 33, 80
6, 43920, Note_on_c, 4, 33, 95
6, 44160, Note_off_c, 4, 33, 80
6, 44160, Note_on_c, 4, 37, 95
6, 46080, Note_off_c, 4, 37, 80
6, 46080, Note_on_c, 4, 35, 95
6, 46560, Note_off_c, 4, 35, 80
6, 46560, Note_on_c, 4, 35, 95
6, 46800, Note_off_c, 4, 35, 80
6, 46800, Note_on_c, 4, 35, 95
6, 46920, Note_off_c, 4, 35, 80
6, 46920, Note_on_c, 4, 35, 95
6, 47160, Note_off_c, 4, 35, 80
6, 47160, Note_on_c, 4, 35, 95
6, 47280, Note_off_c, 4, 35, 80
6, 47280, Note_on_c, 4, 35, 95
6, 47520, Note_off_c, 4, 35, 80
6, 47520, Note_on_c, 4, 35, 95
6, 47640, Note_off_c, 4, 35, 80
6, 47640, Note_on_c, 4, 35, 95
6, 47760, Note_off_c, 4, 35, 80
6, 47760, Note_on_c, 4, 35, 95
6, 47880, Note_off_c, 4, 35, 80
6, 47880, Note_on_c, 4, 35, 95
6, 48000, Note_off_c, 4, 35, 80
6, 48000, Note_on_c, 4, 28, 95
6, 48240, Note_off_c, 4, 28, 80
6, 48240, Note_on_c, 4, 28, 95
6, 48480, Note_off_c, 4, 28, 80
6, 48480, Note_on_c, 4, 28, 95
6, 48720, Note_off_c, 4, 28, 80
6, 48720, Note_on_c, 4, 28, 95
6, 48960, Note_off_c, 4, 28, 80
6, 48960, Note_on_c, 4, 37, 95
6, 49200, Note_off_c, 4, 37, 80
6, 49200, Note_on_c, 4, 37, 95
6, 49440, Note_off_c, 4, 37, 80
6, 49440, Note_on_c, 4, 37, 95
6, 49680, Note_off_c, 4, 37, 80
6, 49680, Note_on_c, 4, 37, 95
6, 49920, Note_off_c, 4, 37, 80
6, 49920, Note_on_c, 4, 32, 95
6, 50160, Note_off_c, 4, 32, 80
6, 50160, Note_on_c, 4, 32, 95
6, 50400, Note_off_c, 4, 32, 80
6, 50400, Note_on_c, 4, 32, 95
6, 50640, Note_off_c, 4, 32, 80
6, 50640, Note_on_c, 4, 32, 95
6, 50880, Note_off_c, 4, 32, 80
6, 50880, Note_on_c, 4, 33, 95
6, 51120, Note_off_c, 4, 33, 80
6, 51120, Note_on_c, 4, 33, 95
6, 51360, Note_off_c, 4, 33, 80
6, 51360, Note_on_c, 4, 33, 95
6, 51600, Note_off_c, 4, 33, 80
6, 51600, Note_on_c, 4, 33, 95
6, 51840, Note_off_c, 4, 33, 80
6, 51840, Note_on_c, 4, 28, 95
6, 52080, Note_off_c, 4, 28, 80
6, 52080, Note_on_c, 4, 28, 95
6, 52320, Note_off_c, 4, 28, 80
6, 52320, Note_on_c, 4, 28, 95
6, 52560, Note_off_c, 4, 28, 80
6, 52560, Note_on_c, 4, 28, 95
6, 52800, Note_off_c, 4, 28, 80
6, 52800, Note_on_c, 4, 37, 95
6, 53040, Note_off_c, 4, 37, 80
6, 53040, Note_on_c, 4, 37, 95
6, 53280, Note_off_c, 4, 37, 80
6, 53280, Note_on_c, 4, 37, 95
6, 53520, Note_off_c, 4, 37, 80
6, 53520, Note_on_c, 4, 37, 95
6, 53760, Note_off_c, 4, 37, 80
6, 53760, Note_on_c, 4, 32, 95
6, 54000, Note_off_c, 4, 32, 80
6, 54000, Note_on_c, 4, 32, 95
6, 54240, Note_off_c, 4, 32, 80
6, 54240, Note_on_c, 4, 32, 95
6, 54480, Note_off_c, 4, 32, 80
6, 54480, Note_on_c, 4, 32, 95
6, 54720, Note_off_c, 4, 32, 80
6, 54720, Note_on_c, 4, 33, 95
6, 54960, Note_off_c, 4, 33, 80
6, 54960, Note_on_c, 4, 33, 95
6, 55200, Note_off_c, 4, 33, 80
6, 55200, Note_on_c, 4, 33, 95
6, 55440, Note_off_c, 4, 33, 80
6, 55440, Note_on_c, 4, 33, 95
6, 55680, Note_off_c, 4, 33, 80
6, 55680, Note_on_c, 4, 28, 95
6, 55920, Note_off_c, 4, 28, 80
6, 55920, Note_on_c, 4, 28, 95
6, 56160, Note_off_c, 4, 28, 80
6, 56160, Note_on_c, 4, 28, 95
6, 56400, Note_off_c, 4, 28, 80
6, 56400, Note_on_c, 4, 28, 95
6, 56640, Note_off_c, 4, 28, 80
6, 56640, Note_on_c, 4, 37, 95
6, 56880, Note_off_c, 4, 37, 80
6, 56880, Note_on_c, 4, 37, 95
6, 57120, Note_off_c, 4, 37, 80
6, 57120, Note_on_c, 4, 37, 95
6, 57360, Note_off_c, 4, 37, 80
6, 57360, Note_on_c, 4, 37, 95
6, 57600, Note_off_c, 4, 37, 80
6, 57600, Note_on_c, 4, 32, 95
6, 57840, Note_off_c, 4, 32, 80
6, 57840, Note_on_c, 4, 32, 95
6, 58080, Note_off_c, 4, 32, 80
6, 58080, Note_on_c, 4, 32, 95
6, 58320, Note_off_c, 4, 32, 80
6, 58320, Note_on_c, 4, 32, 95
6, 58560, Note_off_c, 4, 32, 80
6, 58560, Note_on_c, 4, 33, 95
6, 58800, Note_off_c, 4, 33, 80
6, 58800, Note_on_c, 4, 33, 95
6, 59040, Note_off_c, 4, 33, 80
6, 59040, Note_on_c, 4, 33, 95
6, 59280, Note_off_c, 4, 33, 80
6, 59280, Note_on_c, 4, 33, 95
6, 59520, Note_off_c, 4, 33, 80
6, 59520, Note_on_c, 4, 28, 95
6, 59760, Note_off_c, 4, 28, 80
6, 59760, Note_on_c, 4, 28, 95
6, 60000, Note_off_c, 4, 28, 80
6, 60000, Note_on_c, 4, 28, 95
6, 60240, Note_off_c, 4, 28, 80
6, 60240, Note_on_c, 4, 28, 95
6, 60480, Note_off_c, 4, 28, 80
6, 60480, Note_on_c, 4, 37, 95
6, 60720, Note_off_c, 4, 37, 80
6, 60720, Note_on_c, 4, 37, 95
6, 60960, Note_off_c, 4, 37, 80
6, 60960, Note_on_c, 4, 37, 95
6, 61200, Note_off_c, 4, 37, 80
6, 61200, Note_on_c, 4, 37, 95
6, 61440, Note_off_c, 4, 37, 80
6, 61440, Note_on_c, 4, 32, 95
6, 61680, Note_off_c, 4, 32, 80
6, 61680, Note_on_c, 4, 32, 95
6, 61920, Note_off_c, 4, 32, 80
6, 61920, Note_on_c, 4, 32, 95
6, 62160, Note_off_c, 4, 32, 80
6, 62160, Note_on_c, 4, 32, 95
6, 62400, Note_off_c, 4, 32, 80
6, 62400, Note_on_c, 4, 33, 95
6, 62640, Note_off_c, 4, 33, 80
6, 62640, Note_on_c, 4, 33, 95
6, 62880, Note_off_c, 4, 33, 80
6, 62880, Note_on_c, 4, 33, 95
6, 63120, Note_off_c, 4, 33, 80
6, 63120, Note_on_c, 4, 33, 95
6, 63360, Note_off_c, 4, 33, 80
6, 63360, Note_on_c, 4, 28, 95
6, 63600, Note_off_c, 4, 28, 80
6, 63600, Note_on_c, 4, 28, 95
6, 63840, Note_off_c, 4, 28, 80
6, 63840, Note_on_c, 4, 28, 95
6, 64080, Note_off_c, 4, 28, 80
6, 64080, Note_on_c, 4, 28, 95
6, 64320, Note_off_c, 4, 28, 80
6, 64320, Note_on_c, 4, 37, 95
6, 64560, Note_off_c, 4, 37, 80
6, 64560, Note_on_c, 4, 37, 95
6, 64800, Note_off_c, 4, 37, 80
6, 64800, Note_on_c, 4, 37, 95
6, 65040, Note_off_c, 4, 37, 80
6, 65040, Note_on_c, 4, 37, 95
6, 65280, Note_off_c, 4, 37, 80
6, 65280, Note_on_c, 4, 32, 95
6, 65520, Note_off_c, 4, 32, 80
6, 65520, Note_on_c, 4, 32, 95
6, 65760, Note_off_c, 4, 32, 80
6, 65760, Note_on_c, 4, 32, 95
6, 66000, Note_off_c, 4, 32, 80
6, 66000, Note_on_c, 4, 32, 95
6, 66240, Note_off_c, 4, 32, 80
6, 66240, Note_on_c, 4, 33, 95
6, 66480, Note_off_c, 4, 33, 80
6, 66480, Note_on_c, 4, 33, 95
6, 66720, Note_off_c, 4, 33, 80
6, 66720, Note_on_c, 4, 33, 95
6, 66960, Note_off_c, 4, 33, 80
6, 66960, Note_on_c, 4, 33, 95
6, 67200, Note_off_c, 4, 33, 80
6, 67200, Note_on_c, 4, 28, 95
6, 67440, Note_off_c, 4, 28, 80
6, 67440, Note_on_c, 4, 28, 95
6, 67680, Note_off_c, 4, 28, 80
6, 67680, Note_on_c, 4, 28, 95
6, 67920, Note_off_c, 4, 28, 80
6, 67920, Note_on_c, 4, 28, 95
6, 68160, Note_off_c, 4, 28, 80
6, 68160, Note_on_c, 4, 37, 95
6, 68400, Note_off_c, 4, 37, 80
6, 68400, Note_on_c, 4, 37, 95
6, 68640, Note_off_c, 4, 37, 80
6, 68640, Note_on_c, 4, 37, 95
6, 68880, Note_off_c, 4, 37, 80
6, 68880, Note_on_c, 4, 37, 95
6, 69120, Note_off_c, 4, 37, 80
6, 69120, Note_on_c, 4, 32, 95
6, 69360, Note_off_c, 4, 32, 80
6, 69360, Note_on_c, 4, 32, 95
6, 69600, Note_off_c, 4, 32, 80
6, 69600, Note_on_c, 4, 32, 95
6, 69840, Note_off_c, 4, 32, 80
6, 69840, Note_on_c, 4, 32, 95
6, 70080, Note_off_c, 4, 32, 80
6, 70080, Note_on_c, 4, 33, 95
6, 70320, Note_off_c, 4, 33, 80
6, 70320, Note_on_c, 4, 33, 95
6, 70560, Note_off_c, 4, 33, 80
6, 70560, Note_on_c, 4, 33, 95
6, 70800, Note_off_c, 4, 33, 80
6, 70800, Note_on_c, 4, 33, 95
6, 71040, Note_off_c, 4, 33, 80
6, 71040, Note_on_c, 4, 28, 95
6, 71280, Note_off_c, 4, 28, 80
6, 71280, Note_on_c, 4, 28, 95
6, 71520, Note_off_c, 4, 28, 80
6, 71520, Note_on_c, 4, 28, 95
6, 71760, Note_off_c, 4, 28, 80
6, 71760, Note_on_c, 4, 28, 95
6, 72000, Note_off_c, 4, 28, 80
6, 72000, Note_on_c, 4, 32, 95
6, 72240, Note_off_c, 4, 32, 80
6, 72240, Note_on_c, 4, 32, 95
6, 72480, Note_off_c, 4, 32, 80
6, 72480, Note_on_c, 4, 32, 95
6, 72720, Note_off_c, 4, 32, 80
6, 72720, Note_on_c, 4, 32, 95
6, 72960, Note_off_c, 4, 32, 80
6, 72960, Note_on_c, 4, 33, 95
6, 73200, Note_off_c, 4, 33, 80
6, 73200, Note_on_c, 4, 33, 95
6, 73440, Note_off_c, 4, 33, 80
6, 73440, Note_on_c, 4, 33, 95
6, 73680, Note_off_c, 4, 33, 80
6, 73680, Note_on_c, 4, 33, 95
6, 73920, Note_off_c, 4, 33, 80
6, 73920, Note_on_c, 4, 33, 95
6, 74160, Note_off_c, 4, 33, 80
6, 74160, Note_on_c, 4, 33, 95
6, 74400, Note_off_c, 4, 33, 80
6, 74400, Note_on_c, 4, 33, 95
6, 74640, Note_off_c, 4, 33, 80
6, 74640, Note_on_c, 4, 33, 95
6, 74880, Note_off_c, 4, 33, 80
6, 74880, Note_on_c, 4, 37, 95
6, 76800, Note_off_c, 4, 37, 80
6, 76800, Note_on_c, 4, 35, 95
6, 77280, Note_off_c, 4, 35, 80
6, 77280, Note_on_c, 4, 35, 95
6, 77520, Note_off_c, 4, 35, 80
6, 77520, Note_on_c, 4, 35, 95
6, 77640, Note_off_c, 4, 35, 80
6, 77640, Note_on_c, 4, 35, 95
6, 77880, Note_off_c, 4, 35, 80
6, 77880, Note_on_c, 4, 35, 95
6, 78000, Note_off_c, 4, 35, 80
6, 78000, Note_on_c, 4, 35, 95
6, 78240, Note_off_c, 4, 35, 80
6, 78240, Note_on_c, 4, 35, 95
6, 78360, Note_off_c, 4, 35, 80
6, 78360, Note_on_c, 4, 35, 95
6, 78480, Note_off_c, 4, 35, 80
6, 78480, Note_on_c, 4, 35, 95
6, 78600, Note_off_c, 4, 35, 80
6, 78600, Note_on_c, 4, 35, 95
6, 78720, Note_off_c, 4, 35, 80
6, 78720, Note_on_c, 4, 35, 95
6, 79200, Note_off_c, 4, 35, 80
6, 79200, Note_on_c, 4, 35, 95
6, 79440, Note_off_c, 4, 35, 80
6, 79440, Note_on_c, 4, 35, 95
6, 79560, Note_off_c, 4, 35, 80
6, 79560, Note_on_c, 4, 35, 95
6, 79800, Note_off_c, 4, 35, 80
6, 79800, Note_on_c, 4, 35, 95
6, 79920, Note_off_c, 4, 35, 80
6, 79920, Note_on_c, 4, 35, 95
6, 80160, Note_off_c, 4, 35, 80
6, 80160, Note_on_c, 4, 35, 95
6, 80280, Note_off_c, 4, 35, 80
6, 80280, Note_on_c, 4, 35, 95
6, 80400, Note_off_c, 4, 35, 80
6, 80400, Note_on_c, 4, 35, 95
6, 80520, Note_off_c, 4, 35, 80
6, 80520, Note_on_c, 4, 35, 95
6, 80640, Note_off_c, 4, 35, 80
6, 80640, Note_on_c, 4, 35, 95
6, 81120, Note_off_c, 4, 35, 80
6, 81120, Note_on_c, 4, 35, 95
6, 81360, Note_off_c, 4, 35, 80
6, 81360, Note_on_c, 4, 35, 95
6, 81480, Note_off_c, 4, 35, 80
6, 81480, Note_on_c, 4, 35, 95
6, 81720, Note_off_c, 4, 35, 80
6, 81720, Note_on_c, 4, 35, 95
6, 81840, Note_off_c, 4, 35, 80
6, 81840, Note_on_c, 4, 35, 95
6, 82080, Note_off_c, 4, 35, 80
6, 82080, Note_on_c, 4, 35, 95
6, 82200, Note_off_c, 4, 35, 80
6, 82200, Note_on_c, 4, 35, 95
6, 82320, Note_off_c, 4, 35, 80
6, 82320, Note_on_c, 4, 35, 95
6, 82440, Note_off_c, 4, 35, 80
6, 82440, Note_on_c, 4, 35, 95
6, 82560, Note_off_c, 4, 35, 80
6, 82560, Note_on_c, 4, 35, 95
6, 83040, Note_off_c, 4, 35, 80
6, 83040, Note_on_c, 4, 35, 95
6, 83280, Note_off_c, 4, 35, 80
6, 83280, Note_on_c, 4, 35, 95
6, 83400, Note_off_c, 4, 35, 80
6, 83400, Note_on_c, 4, 35, 95
6, 83640, Note_off_c, 4, 35, 80
6, 83640, Note_on_c, 4, 35, 95
6, 83760, Note_off_c, 4, 35, 80
6, 83760, Note_on_c, 4, 35, 95
6, 84000, Note_off_c, 4, 35, 80
6, 84000, Note_on_c, 4, 35, 95
6, 84120, Note_off_c, 4, 35, 80
6, 84120, Note_on_c, 4, 35, 95
6, 84240, Note_off_c, 4, 35, 80
6, 84240, Note_on_c, 4, 35, 95
6, 84360, Note_off_c, 4, 35, 80
6, 84360, Note_on_c, 4, 35, 95
6, 84480, Note_off_c, 4, 35, 80
6, 84480, Note_on_c, 4, 28, 95
6, 84720, Note_off_c, 4, 28, 80
6, 84720, Note_on_c, 4, 28, 95
6, 84960, Note_off_c, 4, 28, 80
6, 84960, Note_on_c, 4, 28, 95
6, 85200, Note_off_c, 4, 28, 80
6, 85200, Note_on_c, 4, 28, 95
6, 85440, Note_off_c, 4, 28, 80
6, 85440, Note_on_c, 4, 37, 95
6, 85680, Note_off_c, 4, 37, 80
6, 85680, Note_on_c, 4, 37, 95
6, 85920, Note_off_c, 4, 37, 80
6, 85920, Note_on_c, 4, 37, 95
6, 86160, Note_off_c, 4, 37, 80
6, 86160, Note_on_c, 4, 37, 95
6, 86400, Note_off_c, 4, 37, 80
6, 86400, Note_on_c, 4, 32, 95
6, 86640, Note_off_c, 4, 32, 80
6, 86640, Note_on_c, 4, 32, 95
6, 86880, Note_off_c, 4, 32, 80
6, 86880, Note_on_c, 4, 32, 95
6, 87120, Note_off_c, 4, 32, 80
6, 87120, Note_on_c, 4, 32, 95
6, 87360, Note_off_c, 4, 32, 80
6, 87360, Note_on_c, 4, 33, 95
6, 87600, Note_off_c, 4, 33, 80
6, 87600, Note_on_c, 4, 33, 95
6, 87840, Note_off_c, 4, 33, 80
6, 87840, Note_on_c, 4, 33, 95
6, 88080, Note_off_c, 4, 33, 80
6, 88080, Note_on_c, 4, 33, 95
6, 88320, Note_off_c, 4, 33, 80
6, 88320, Note_on_c, 4, 28, 95
6, 88560, Note_off_c, 4, 28, 80
6, 88560, Note_on_c, 4, 28, 95
6, 88800, Note_off_c, 4, 28, 80
6, 88800, Note_on_c, 4, 28, 95
6, 89040, Note_off_c, 4, 28, 80
6, 89040, Note_on_c, 4, 28, 95
6, 89280, Note_off_c, 4, 28, 80
6, 89280, Note_on_c, 4, 37, 95
6, 89520, Note_off_c, 4, 37, 80
6, 89520, Note_on_c, 4, 37, 95
6, 89760, Note_off_c, 4, 37, 80
6, 89760, Note_on_c, 4, 37, 95
6, 90000, Note_off_c, 4, 37, 80
6, 90000, Note_on_c, 4, 37, 95
6, 90240, Note_off_c, 4, 37, 80
6, 90240, Note_on_c, 4, 32, 95
6, 90480, Note_off_c, 4, 32, 80
6, 90480, Note_on_c, 4, 32, 95
6, 90720, Note_off_c, 4, 32, 80
6, 90720, Note_on_c, 4, 32, 95
6, 90960, Note_off_c, 4, 32, 80
6, 90960, Note_on_c, 4, 32, 95
6, 91200, Note_off_c, 4, 32, 80
6, 91200, Note_on_c, 4, 33, 95
6, 91440, Note_off_c, 4, 33, 80
6, 91440, Note_on_c, 4, 33, 95
6, 91680, Note_off_c, 4, 33, 80
6, 91680, Note_on_c, 4, 33, 95
6, 91920, Note_off_c, 4, 33, 80
6, 91920, Note_on_c, 4, 33, 95
6, 92160, Note_off_c, 4, 33, 80
6, 92160, Note_on_c, 4, 28, 95
6, 92400, Note_off_c, 4, 28, 80
6, 92400, Note_on_c, 4, 28, 95
6, 92640, Note_off_c, 4, 28, 80
6, 92640, Note_on_c, 4, 28, 95
6, 92880, Note_off_c, 4, 28, 80
6, 92880, Note_on_c, 4, 28, 95
6, 93120, Note_off_c, 4, 28, 80
6, 93120, Note_on_c, 4, 37, 95
6, 93360, Note_off_c, 4, 37, 80
6, 93360, Note_on_c, 4, 37, 95
6, 93600, Note_off_c, 4, 37, 80
6, 93600, Note_on_c, 4, 37, 95
6, 93840, Note_off_c, 4, 37, 80
6, 93840, Note_on_c, 4, 37, 95
6, 94080, Note_off_c, 4, 37, 80
6, 94080, Note_on_c, 4, 32, 95
6, 94320, Note_off_c, 4, 32, 80
6, 94320, Note_on_c, 4, 32, 95
6, 94560, Note_off_c, 4, 32, 80
6, 94560, Note_on_c, 4, 32, 95
6, 94800, Note_off_c, 4, 32, 80
6, 94800, Note_on_c, 4, 32, 95
6, 95040, Note_off_c, 4, 32, 80
6, 95040, Note_on_c, 4, 33, 95
6, 95280, Note_off_c, 4, 33, 80
6, 95280, Note_on_c, 4, 33, 95
6, 95520, Note_off_c, 4, 33, 80
6, 95520, Note_on_c, 4, 33, 95
6, 95760, Note_off_c, 4, 33, 80
6, 95760, Note_on_c, 4, 33, 95
6, 96000, Note_off_c, 4, 33, 80
6, 96000, Note_on_c, 4, 28, 95
6, 96240, Note_off_c, 4, 28, 80
6, 96240, Note_on_c, 4, 28, 95
6, 96480, Note_off_c, 4, 28, 80
6, 96480, Note_on_c, 4, 28, 95
6, 96720, Note_off_c, 4, 28, 80
6, 96720, Note_on_c, 4, 28, 95
6, 96960, Note_off_c, 4, 28, 80
6, 96960, Note_on_c, 4, 37, 95
6, 97200, Note_off_c, 4, 37, 80
6, 97200, Note_on_c, 4, 37, 95
6, 97440, Note_off_c, 4, 37, 80
6, 97440, Note_on_c, 4, 37, 95
6, 97680, Note_off_c, 4, 37, 80
6, 97680, Note_on_c, 4, 37, 95
6, 97920, Note_off_c, 4, 37, 80
6, 97920, Note_on_c, 4, 32, 95
6, 98160, Note_off_c, 4, 32, 80
6, 98160, Note_on_c, 4, 32, 95
6, 98400, Note_off_c, 4, 32, 80
6, 98400, Note_on_c, 4, 32, 95
6, 98640, Note_off_c, 4, 32, 80
6, 98640, Note_on_c, 4, 32, 95
6, 98880, Note_off_c, 4, 32, 80
6, 98880, Note_on_c, 4, 33, 95
6, 99120, Note_off_c, 4, 33, 80
6, 99120, Note_on_c, 4, 33, 95
6, 99360, Note_off_c, 4, 33, 80
6, 99360, Note_on_c, 4, 33, 95
6, 99600, Note_off_c, 4, 33, 80
6, 99600, Note_on_c, 4, 33, 95
6, 99840, Note_off_c, 4, 33, 80
6, 99840, Note_on_c, 4, 28, 95
6, 100080, Note_off_c, 4, 28, 80
6, 100080, Note_on_c, 4, 28, 95
6, 100320, Note_off_c, 4, 28, 80
6, 100320, Note_on_c, 4, 28, 95
6, 100560, Note_off_c, 4, 28, 80
6, 100560, Note_on_c, 4, 28, 95
6, 100800, Note_off_c, 4, 28, 80
6, 100800, Note_on_c, 4, 37, 95
6, 101040, Note_off_c, 4, 37, 80
6, 101040, Note_on_c, 4, 37, 95
6, 101280, Note_off_c, 4, 37, 80
6, 101280, Note_on_c, 4, 37, 95
6, 101520, Note_off_c, 4, 37, 80
6, 101520, Note_on_c, 4, 37, 95
6, 101760, Note_off_c, 4, 37, 80
6, 101760, Note_on_c, 4, 32, 95
6, 102000, Note_off_c, 4, 32, 80
6, 102000, Note_on_c, 4, 32, 95
6, 102240, Note_off_c, 4, 32, 80
6, 102240, Note_on_c, 4, 32, 95
6, 102480, Note_off_c, 4, 32, 80
6, 102480, Note_on_c, 4, 32, 95
6, 102720, Note_off_c, 4, 32, 80
6, 102720, Note_on_c, 4, 33, 95
6, 102960, Note_off_c, 4, 33, 80
6, 102960, Note_on_c, 4, 33, 95
6, 103200, Note_off_c, 4, 33, 80
6, 103200, Note_on_c, 4, 33, 95
6, 103440, Note_off_c, 4, 33, 80
6, 103440, Note_on_c, 4, 33, 95
6, 103680, Note_off_c, 4, 33, 80
6, 103680, Note_on_c, 4, 28, 95
6, 103920, Note_off_c, 4, 28, 80
6, 103920, Note_on_c, 4, 28, 95
6, 104160, Note_off_c, 4, 28, 80
6, 104160, Note_on_c, 4, 28, 95
6, 104400, Note_off_c, 4, 28, 80
6, 104400, Note_on_c, 4, 28, 95
6, 104640, Note_off_c, 4, 28, 80
6, 104640, Note_on_c, 4, 37, 95
6, 104880, Note_off_c, 4, 37, 80
6, 104880, Note_on_c, 4, 37, 95
6, 105120, Note_off_c, 4, 37, 80
6, 105120, Note_on_c, 4, 37, 95
6, 105360, Note_off_c, 4, 37, 80
6, 105360, Note_on_c, 4, 37, 95
6, 105600, Note_off_c, 4, 37, 80
6, 105600, Note_on_c, 4, 32, 95
6, 105840, Note_off_c, 4, 32, 80
6, 105840, Note_on_c, 4, 32, 95
6, 106080, Note_off_c, 4, 32, 80
6, 106080, Note_on_c, 4, 32, 95
6, 106320, Note_off_c, 4, 32, 80
6, 106320, Note_on_c, 4, 32, 95
6, 106560, Note_off_c, 4, 32, 80
6, 106560, Note_on_c, 4, 33, 95
6, 106800, Note_off_c, 4, 33, 80
6, 106800, Note_on_c, 4, 33, 95
6, 107040, Note_off_c, 4, 33, 80
6, 107040, Note_on_c, 4, 33, 95
6, 107280, Note_off_c, 4, 33, 80
6, 107280, Note_on_c, 4, 33, 95
6, 107520, Note_off_c, 4, 33, 80
6, 107520, Note_on_c, 4, 28, 95
6, 107760, Note_off_c, 4, 28, 80
6, 107760, Note_on_c, 4, 28, 95
6, 108000, Note_off_c, 4, 28, 80
6, 108000, Note_on_c, 4, 28, 95
6, 108240, Note_off_c, 4, 28, 80
6, 108240, Note_on_c, 4, 28, 95
6, 108480, Note_off_c, 4, 28, 80
6, 108480, Note_on_c, 4, 32, 95
6, 108720, Note_off_c, 4, 32, 80
6, 108720, Note_on_c, 4, 32, 95
6, 108960, Note_off_c, 4, 32, 80
6, 108960, Note_on_c, 4, 32, 95
6, 109200, Note_off_c, 4, 32, 80
6, 109200, Note_on_c, 4, 32, 95
6, 109440, Note_off_c, 4, 32, 80
6, 109440, Note_on_c, 4, 33, 95
6, 109680, Note_off_c, 4, 33, 80
6, 109680, Note_on_c, 4, 33, 95
6, 109920, Note_off_c, 4, 33, 80
6, 109920, Note_on_c, 4, 33, 95
6, 110160, Note_off_c, 4, 33, 80
6, 110160, Note_on_c, 4, 33, 95
6, 110400, Note_off_c, 4, 33, 80
6, 110400, Note_on_c, 4, 33, 95
6, 110640, Note_off_c, 4, 33, 80
6, 110640, Note_on_c, 4, 33, 95
6, 110880, Note_off_c, 4, 33, 80
6, 110880, Note_on_c, 4, 33, 95
6, 111120, Note_off_c, 4, 33, 80
6, 111120, Note_on_c, 4, 33, 95
6, 111360, Note_off_c, 4, 33, 80
6, 111360, Note_on_c, 4, 37, 95
6, 113280, Note_off_c, 4, 37, 80
6, 113280, Note_on_c, 4, 35, 95
6, 113760, Note_off_c, 4, 35, 80
6, 113760, Note_on_c, 4, 35, 95
6, 114000, Note_off_c, 4, 35, 80
6, 114000, Note_on_c, 4, 35, 95
6, 114120, Note_off_c, 4, 35, 80
6, 114120, Note_on_c, 4, 35, 95
6, 114360, Note_off_c, 4, 35, 80
6, 114360, Note_on_c, 4, 35, 95
6, 114480, Note_off_c, 4, 35, 80
6, 114480, Note_on_c, 4, 35, 95
6, 114720, Note_off_c, 4, 35, 80
6, 114720, Note_on_c, 4, 35, 95
6, 114840, Note_off_c, 4, 35, 80
6, 114840, Note_on_c, 4, 35, 95
6, 114960, Note_off_c, 4, 35, 80
6, 114960, Note_on_c, 4, 35, 95
6, 115080, Note_off_c, 4, 35, 80
6, 115080, Note_on_c, 4, 35, 95
6, 115200, Note_off_c, 4, 35, 80
6, 115200, Note_on_c, 4, 28, 95
6, 115440, Note_off_c, 4, 28, 80
6, 115440, Note_on_c, 4, 28, 95
6, 115680, Note_off_c, 4, 28, 80
6, 115680, Note_on_c, 4, 28, 95
6, 115920, Note_off_c, 4, 28, 80
6, 115920, Note_on_c, 4, 28, 95
6, 116160, Note_off_c, 4, 28, 80
6, 116160, Note_on_c, 4, 37, 95
6, 116400, Note_off_c, 4, 37, 80
6, 116400, Note_on_c, 4, 37, 95
6, 116640, Note_off_c, 4, 37, 80
6, 116640, Note_on_c, 4, 37, 95
6, 116880, Note_off_c, 4, 37, 80
6, 116880, Note_on_c, 4, 37, 95
6, 117120, Note_off_c, 4, 37, 80
6, 117120, Note_on_c, 4, 32, 95
6, 117360, Note_off_c, 4, 32, 80
6, 117360, Note_on_c, 4, 32, 95
6, 117600, Note_off_c, 4, 32, 80
6, 117600, Note_on_c, 4, 32, 95
6, 117840, Note_off_c, 4, 32, 80
6, 117840, Note_on_c, 4, 32, 95
6, 118080, Note_off_c, 4, 32, 80
6, 118080, Note_on_c, 4, 33, 95
6, 118320, Note_off_c, 4, 33, 80
6, 118320, Note_on_c, 4, 33, 95
6, 118560, Note_off_c, 4, 33, 80
6, 118560, Note_on_c, 4, 33, 95
6, 118800, Note_off_c, 4, 33, 80
6, 118800, Note_on_c, 4, 33, 95
6, 119040, Note_off_c, 4, 33, 80
6, 119040, Note_on_c, 4, 28, 95
6, 119280, Note_off_c, 4, 28, 80
6, 119280, Note_on_c, 4, 28, 95
6, 119520, Note_off_c, 4, 28, 80
6, 119520, Note_on_c, 4, 28, 95
6, 119760, Note_off_c, 4, 28, 80
6, 119760, Note_on_c, 4, 28, 95
6, 120000, Note_off_c, 4, 28, 80
6, 120000, Note_on_c, 4, 37, 95
6, 120240, Note_off_c, 4, 37, 80
6, 120240, Note_on_c, 4, 37, 95
6, 120480, Note_off_c, 4, 37, 80
6, 120480, Note_on_c, 4, 37, 95
6, 120720, Note_off_c, 4, 37, 80
6, 120720, Note_on_c, 4, 37, 95
6, 120960, Note_off_c, 4, 37, 80
6, 120960, Note_on_c, 4, 32, 95
6, 121200, Note_off_c, 4, 32, 80
6, 121200, Note_on_c, 4, 32, 95
6, 121440, Note_off_c, 4, 32, 80
6, 121440, Note_on_c, 4, 32, 95
6, 121680, Note_off_c, 4, 32, 80
6, 121680, Note_on_c, 4, 32, 95
6, 121920, Note_off_c, 4, 32, 80
6, 121920, Note_on_c, 4, 33, 95
6, 122160, Note_off_c, 4, 33, 80
6, 122160, Note_on_c, 4, 33, 95
6, 122400, Note_off_c, 4, 33, 80
6, 122400, Note_on_c, 4, 33, 95
6, 122640, Note_off_c, 4, 33, 80
6, 122640, Note_on_c, 4, 33, 95
6, 122880, Note_off_c, 4, 33, 80
6, 122880, Note_on_c, 4, 28, 95
6, 123120, Note_off_c, 4, 28, 80
6, 123120, Note_on_c, 4, 28, 95
6, 123360, Note_off_c, 4, 28, 80
6, 123360, Note_on_c, 4, 28, 95
6, 123600, Note_off_c, 4, 28, 80
6, 123600, Note_on_c, 4, 28, 95
6, 123840, Note_off_c, 4, 28, 80
6, 123840, Note_on_c, 4, 37, 95
6, 124080, Note_off_c, 4, 37, 80
6, 124080, Note_on_c, 4, 37, 95
6, 124320, Note_off_c, 4, 37, 80
6, 124320, Note_on_c, 4, 37, 95
6, 124560, Note_off_c, 4, 37, 80
6, 124560, Note_on_c, 4, 37, 95
6, 124800, Note_off_c, 4, 37, 80
6, 124800, Note_on_c, 4, 32, 95
6, 125040, Note_off_c, 4, 32, 80
6, 125040, Note_on_c, 4, 32, 95
6, 125280, Note_off_c, 4, 32, 80
6, 125280, Note_on_c, 4, 32, 95
6, 125520, Note_off_c, 4, 32, 80
6, 125520, Note_on_c, 4, 32, 95
6, 125760, Note_off_c, 4, 32, 80
6, 125760, Note_on_c, 4, 33, 95
6, 126000, Note_off_c, 4, 33, 80
6, 126000, Note_on_c, 4, 33, 95
6, 126240, Note_off_c, 4, 33, 80
6, 126240, Note_on_c, 4, 33, 95
6, 126480, Note_off_c, 4, 33, 80
6, 126480, Note_on_c, 4, 33, 95
6, 126720, Note_off_c, 4, 33, 80
6, 126720, Note_on_c, 4, 28, 95
6, 126960, Note_off_c, 4, 28, 80
6, 126960, Note_on_c, 4, 28, 95
6, 127200, Note_off_c, 4, 28, 80
6, 127200, Note_on_c, 4, 28, 95
6, 127440, Note_off_c, 4, 28, 80
6, 127440, Note_on_c, 4, 28, 95
6, 127680, Note_off_c, 4, 28, 80
6, 127680, Note_on_c, 4, 37, 95
6, 127920, Note_off_c, 4, 37, 80
6, 127920, Note_on_c, 4, 37, 95
6, 128160, Note_off_c, 4, 37, 80
6, 128160, Note_on_c, 4, 37, 95
6, 128400, Note_off_c, 4, 37, 80
6, 128400, Note_on_c, 4, 37, 95
6, 128640, Note_off_c, 4, 37, 80
6, 128640, Note_on_c, 4, 32, 95
6, 128880, Note_off_c, 4, 32, 80
6, 128880, Note_on_c, 4, 32, 95
6, 129120, Note_off_c, 4, 32, 80
6, 129120, Note_on_c, 4, 32, 95
6, 129360, Note_off_c, 4, 32, 80
6, 129360, Note_on_c, 4, 32, 95
6, 129600, Note_off_c, 4, 32, 80
6, 129600, Note_on_c, 4, 33, 95
6, 129840, Note_off_c, 4, 33, 80
6, 129840, Note_on_c, 4, 33, 95
6, 130080, Note_off_c, 4, 33, 80
6, 130080, Note_on_c, 4, 33, 95
6, 130320, Note_off_c, 4, 33, 80
6, 130320, Note_on_c, 4, 33, 95
6, 130560, Note_off_c, 4, 33, 80
6, 130560, Note_on_c, 4, 28, 95
6, 130800, Note_off_c, 4, 28, 80
6, 130800, Note_on_c, 4, 28, 95
6, 131040, Note_off_c, 4, 28, 80
6, 131040, Note_on_c, 4, 28, 95
6, 131280, Note_off_c, 4, 28, 80
6, 131280, Note_on_c, 4, 28, 95
6, 131520, Note_off_c, 4, 28, 80
6, 131520, Note_on_c, 4, 37, 95
6, 131760, Note_off_c, 4, 37, 80
6, 131760, Note_on_c, 4, 37, 95
6, 132000, Note_off_c, 4, 37, 80
6, 132000, Note_on_c, 4, 37, 95
6, 132240, Note_off_c, 4, 37, 80
6, 132240, Note_on_c, 4, 37, 95
6, 132480, Note_off_c, 4, 37, 80
6, 132480, Note_on_c, 4, 32, 95
6, 132720, Note_off_c, 4, 32, 80
6, 132720, Note_on_c, 4, 32, 95
6, 132960, Note_off_c, 4, 32, 80
6, 132960, Note_on_c, 4, 32, 95
6, 133200, Note_off_c, 4, 32, 80
6, 133200, Note_on_c, 4, 32, 95
6, 133440, Note_off_c, 4, 32, 80
6, 133440, Note_on_c, 4, 33, 95
6, 133680, Note_off_c, 4, 33, 80
6, 133680, Note_on_c, 4, 33, 95
6, 133920, Note_off_c, 4, 33, 80
6, 133920, Note_on_c, 4, 33, 95
6, 134160, Note_off_c, 4, 33, 80
6, 134160, Note_on_c, 4, 33, 95
6, 134400, Note_off_c, 4, 33, 80
6, 134400, Note_on_c, 4, 28, 95
6, 134640, Note_off_c, 4, 28, 80
6, 134640, Note_on_c, 4, 28, 95
6, 134880, Note_off_c, 4, 28, 80
6, 134880, Note_on_c, 4, 28, 95
6, 135120, Note_off_c, 4, 28, 80
6, 135120, Note_on_c, 4, 28, 95
6, 135360, Note_off_c, 4, 28, 80
6, 135360, Note_on_c, 4, 37, 95
6, 135600, Note_off_c, 4, 37, 80
6, 135600, Note_on_c, 4, 37, 95
6, 135840, Note_off_c, 4, 37, 80
6, 135840, Note_on_c, 4, 37, 95
6, 136080, Note_off_c, 4, 37, 80
6, 136080, Note_on_c, 4, 37, 95
6, 136320, Note_off_c, 4, 37, 80
6, 136320, Note_on_c, 4, 32, 95
6, 136560, Note_off_c, 4, 32, 80
6, 136560, Note_on_c, 4, 32, 95
6, 136800, Note_off_c, 4, 32, 80
6, 136800, Note_on_c, 4, 32, 95
6, 137040, Note_off_c, 4, 32, 80
6, 137040, Note_on_c, 4, 32, 95
6, 137280, Note_off_c, 4, 32, 80
6, 137280, Note_on_c, 4, 33, 95
6, 137520, Note_off_c, 4, 33, 80
6, 137520, Note_on_c, 4, 33, 95
6, 137760, Note_off_c, 4, 33, 80
6, 137760, Note_on_c, 4, 33, 95
6, 138000, Note_off_c, 4, 33, 80
6, 138000, Note_on_c, 4, 33, 95
6, 138240, Note_off_c, 4, 33, 80
6, 138240, Note_on_c, 4, 28, 95
6, 138480, Note_off_c, 4, 28, 80
6, 138480, Note_on_c, 4, 28, 95
6, 138720, Note_off_c, 4, 28, 80
6, 138720, Note_on_c, 4, 28, 95
6, 138960, Note_off_c, 4, 28, 80
6, 138960, Note_on_c, 4, 28, 95
6, 139200, Note_off_c, 4, 28, 80
6, 139200, Note_on_c, 4, 37, 95
6, 139440, Note_off_c, 4, 37, 80
6, 139440, Note_on_c, 4, 37, 95
6, 139680, Note_off_c, 4, 37, 80
6, 139680, Note_on_c, 4, 37, 95
6, 139920, Note_off_c, 4, 37, 80
6, 139920, Note_on_c, 4, 37, 95
6, 140160, Note_off_c, 4, 37, 80
6, 140160, Note_on_c, 4, 32, 95
6, 140400, Note_off_c, 4, 32, 80
6, 140400, Note_on_c, 4, 32, 95
6, 140640, Note_off_c, 4, 32, 80
6, 140640, End_track
7, 0, Start_track
7, 0, Title_t, "Drums"
7, 0, Control_c, 9, 100, 0
7, 0, Control_c, 9, 101, 0
7, 0, Control_c, 9, 6, 12
7, 0, Pitch_bend_c, 9, 8192
7, 0, Control_c, 9, 101, 0
7, 0, Control_c, 9, 100, 1
7, 0, Control_c, 9, 6, 64
7, 0, Control_c, 9, 38, 0
7, 0, Control_c, 9, 101, 127
7, 0, Control_c, 9, 100, 127
7, 0, Program_c, 9, 0
7, 0, Control_c, 9, 0, 0
7, 0, Control_c, 9, 7, 88
7, 0, Control_c, 9, 10, 64
7, 0, Control_c, 9, 93, 0
7, 0, Control_c, 9, 91, 0
7, 0, Control_c, 9, 92, 0
7, 0, Control_c, 9, 95, 0
7, 8640, Note_on_c, 9, 40, 63
7, 8760, Note_off_c, 9, 40, 80
7, 8760, Note_on_c, 9, 40, 63
7, 8880, Note_off_c, 9, 40, 80
7, 8880, Note_on_c, 9, 40, 79
7, 9000, Note_off_c, 9, 40, 80
7, 9000, Note_on_c, 9, 40, 95
7, 9120, Note_off_c, 9, 40, 80
7, 9120, Note_on_c, 9, 40, 111
7, 9240, Note_off_c, 9, 40, 80
7, 9240, Note_on_c, 9, 40, 111
7, 9360, Note_off_c, 9, 40, 80
7, 9360, Note_on_c, 9, 40, 127
7, 9480, Note_off_c, 9, 40, 80
7, 9480, Note_on_c, 9, 40, 127
7, 9600, Note_off_c, 9, 40, 80
7, 9600, Note_on_c, 9, 36, 95
7, 9840, Note_off_c, 9, 36, 80
7, 9840, Note_on_c, 9, 36, 95
7, 10080, Note_off_c, 9, 36, 80
7, 10080, Note_on_c, 9, 40, 111
7, 10560, Note_off_c, 9, 40, 80
7, 10560, Note_on_c, 9, 36, 95
7, 10800, Note_off_c, 9, 36, 80
7, 10800, Note_on_c, 9, 36, 95
7, 11040, Note_off_c, 9, 36, 80
7, 11040, Note_on_c, 9, 40, 111
7, 11520, Note_off_c, 9, 40, 80
7, 11520, Note_on_c, 9, 36, 95
7, 11760, Note_off_c, 9, 36, 80
7, 11760, Note_on_c, 9, 36, 95
7, 12000, Note_off_c, 9, 36, 80
7, 12000, Note_on_c, 9, 40, 111
7, 12480, Note_off_c, 9, 40, 80
7, 12480, Note_on_c, 9, 36, 95
7, 12720, Note_off_c, 9, 36, 80
7, 12720, Note_on_c, 9, 36, 95
7, 12960, Note_off_c, 9, 36, 80
7, 12960, Note_on_c, 9, 40, 111
7, 13440, Note_off_c, 9, 40, 80
7, 13440, Note_on_c, 9, 36, 95
7, 13680, Note_off_c, 9, 36, 80
7, 13680, Note_on_c, 9, 36, 95
7, 13920, Note_off_c, 9, 36, 80
7, 13920, Note_on_c, 9, 40, 111
7, 14400, Note_off_c, 9, 40, 80
7, 14400, Note_on_c, 9, 36, 95
7, 14640, Note_off_c, 9, 36, 80
7, 14640, Note_on_c, 9, 36, 95
7, 14880, Note_off_c, 9, 36, 80
7, 14880, Note_on_c, 9, 40, 111
7, 15360, Note_off_c, 9, 40, 80
7, 15360, Note_on_c, 9, 36, 95
7, 15600, Note_off_c, 9, 36, 80
7, 15600, Note_on_c, 9, 36, 95
7, 15840, Note_off_c, 9, 36, 80
7, 15840, Note_on_c, 9, 40, 111
7, 16320, Note_off_c, 9, 40, 80
7, 16320, Note_on_c, 9, 36, 95
7, 16560, Note_off_c, 9, 36, 80
7, 16560, Note_on_c, 9, 36, 95
7, 16800, Note_off_c, 9, 36, 80
7, 16800, Note_on_c, 9, 40, 111
7, 17280, Note_off_c, 9, 40, 80
7, 17280, Note_on_c, 9, 36, 95
7, 17520, Note_off_c, 9, 36, 80
7, 17520, Note_on_c, 9, 36, 95
7, 17760, Note_off_c, 9, 36, 80
7, 17760, Note_on_c, 9, 40, 111
7, 18240, Note_off_c, 9, 40, 80
7, 18240, Note_on_c, 9, 36, 95
7, 18480, Note_off_c, 9, 36, 80
7, 18480, Note_on_c, 9, 36, 95
7, 18720, Note_off_c, 9, 36, 80
7, 18720, Note_on_c, 9, 40, 111
7, 19200, Note_off_c, 9, 40, 80
7, 19200, Note_on_c, 9, 36, 95
7, 19440, Note_off_c, 9, 36, 80
7, 19440, Note_on_c, 9, 36, 95
7, 19680, Note_off_c, 9, 36, 80
7, 19680, Note_on_c, 9, 40, 111
7, 20160, Note_off_c, 9, 40, 80
7, 20160, Note_on_c, 9, 36, 95
7, 20400, Note_off_c, 9, 36, 80
7, 20400, Note_on_c, 9, 36, 95
7, 20640, Note_off_c, 9, 36, 80
7, 20640, Note_on_c, 9, 40, 111
7, 21120, Note_off_c, 9, 40, 80
7, 21120, Note_on_c, 9, 36, 95
7, 21360, Note_off_c, 9, 36, 80
7, 21360, Note_on_c, 9, 36, 95
7, 21600, Note_off_c, 9, 36, 80
7, 21600, Note_on_c, 9, 40, 111
7, 22080, Note_off_c, 9, 40, 80
7, 22080, Note_on_c, 9, 36, 95
7, 22320, Note_off_c, 9, 36, 80
7, 22320, Note_on_c, 9, 36, 95
7, 22560, Note_off_c, 9, 36, 80
7, 22560, Note_on_c, 9, 40, 111
7, 23040, Note_off_c, 9, 40, 80
7, 23040, Note_on_c, 9, 36, 95
7, 23280, Note_off_c, 9, 36, 80
7, 23280, Note_on_c, 9, 36, 95
7, 23520, Note_off_c, 9, 36, 80
7, 23520, Note_on_c, 9, 40, 111
7, 24000, Note_off_c, 9, 40, 80
7, 24000, Note_on_c, 9, 36, 95
7, 24240, Note_off_c, 9, 36, 80
7, 24240, Note_on_c, 9, 36, 95
7, 24480, Note_off_c, 9, 36, 80
7, 24480, Note_on_c, 9, 40, 111
7, 24960, Note_off_c, 9, 40, 80
7, 24960, Note_on_c, 9, 36, 95
7, 25200, Note_off_c, 9, 36, 80
7, 25200, Note_on_c, 9, 36, 95
7, 25440, Note_off_c, 9, 36, 80
7, 25440, Note_on_c, 9, 40, 111
7, 25920, Note_off_c, 9, 40, 80
7, 25920, Note_on_c, 9, 36, 95
7, 26160, Note_off_c, 9, 36, 80
7, 26160, Note_on_c, 9, 36, 95
7, 26400, Note_off_c, 9, 36, 80
7, 26400, Note_on_c, 9, 40, 111
7, 26880, Note_off_c, 9, 40, 80
7, 26880, Note_on_c, 9, 36, 95
7, 27120, Note_off_c, 9, 36, 80
7, 27120, Note_on_c, 9, 36, 95
7, 27360, Note_off_c, 9, 36, 80
7, 27360, Note_on_c, 9, 40, 111
7, 27840, Note_off_c, 9, 40, 80
7, 27840, Note_on_c, 9, 36, 95
7, 28080, Note_off_c, 9, 36, 80
7, 28080, Note_on_c, 9, 36, 95
7, 28320, Note_off_c, 9, 36, 80
7, 28320, Note_on_c, 9, 40, 111
7, 28800, Note_off_c, 9, 40, 80
7, 28800, Note_on_c, 9, 36, 95
7, 29040, Note_off_c, 9, 36, 80
7, 29040, Note_on_c, 9, 36, 95
7, 29280, Note_off_c, 9, 36, 80
7, 29280, Note_on_c, 9, 40, 111
7, 29760, Note_off_c, 9, 40, 80
7, 29760, Note_on_c, 9, 36, 95
7, 30000, Note_off_c, 9, 36, 80
7, 30000, Note_on_c, 9, 36, 95
7, 30240, Note_off_c, 9, 36, 80
7, 30240, Note_on_c, 9, 40, 111
7, 30720, Note_off_c, 9, 40, 80
7, 30720, Note_on_c, 9, 36, 95
7, 30960, Note_off_c, 9, 36, 80
7, 30960, Note_on_c, 9, 36, 95
7, 31200, Note_off_c, 9, 36, 80
7, 31200, Note_on_c, 9, 40, 111
7, 31680, Note_off_c, 9, 40, 80
7, 31680, Note_on_c, 9, 36, 95
7, 31920, Note_off_c, 9, 36, 80
7, 31920, Note_on_c, 9, 36, 95
7, 32160, Note_off_c, 9, 36, 80
7, 32160, Note_on_c, 9, 40, 111
7, 32640, Note_off_c, 9, 40, 80
7, 32640, Note_on_c, 9, 36, 95
7, 32880, Note_off_c, 9, 36, 80
7, 32880, Note_on_c, 9, 36, 95
7, 33120, Note_off_c, 9, 36, 80
7, 33120, Note_on_c, 9, 40, 111
7, 33600, Note_off_c, 9, 40, 80
7, 33600, Note_on_c, 9, 36, 95
7, 33840, Note_off_c, 9, 36, 80
7, 33840, Note_on_c, 9, 36, 95
7, 34080, Note_off_c, 9, 36, 80
7, 34080, Note_on_c, 9, 40, 111
7, 34560, Note_off_c, 9, 40, 80
7, 34560, Note_on_c, 9, 36, 95
7, 34800, Note_off_c, 9, 36, 80
7, 34800, Note_on_c, 9, 36, 95
7, 35040, Note_off_c, 9, 36, 80
7, 35040, Note_on_c, 9, 40, 111
7, 35520, Note_off_c, 9, 40, 80
7, 35520, Note_on_c, 9, 36, 95
7, 35760, Note_off_c, 9, 36, 80
7, 35760, Note_on_c, 9, 36, 95
7, 36000, Note_off_c, 9, 36, 80
7, 36000, Note_on_c, 9, 40, 111
7, 36480, Note_off_c, 9, 40, 80
7, 36480, Note_on_c, 9, 36, 95
7, 36720, Note_off_c, 9, 36, 80
7, 36720, Note_on_c, 9, 36, 95
7, 36960, Note_off_c, 9, 36, 80
7, 36960, Note_on_c, 9, 40, 111
7, 37440, Note_off_c, 9, 40, 80
7, 37440, Note_on_c, 9, 36, 95
7, 37680, Note_off_c, 9, 36, 80
7, 37680, Note_on_c, 9, 36, 95
7, 37920, Note_off_c, 9, 36, 80
7, 37920, Note_on_c, 9, 40, 111
7, 38400, Note_off_c, 9, 40, 80
7, 38400, Note_on_c, 9, 36, 95
7, 38640, Note_off_c, 9, 36, 80
7, 38640, Note_on_c, 9, 36, 95
7, 38880, Note_off_c, 9, 36, 80
7, 38880, Note_on_c, 9, 40, 111
7, 39360, Note_off_c, 9, 40, 80
7, 39360, Note_on_c, 9, 36, 95
7, 39600, Note_off_c, 9, 36, 80
7, 39600, Note_on_c, 9, 36, 95
7, 39840, Note_off_c, 9, 36, 80
7, 39840, Note_on_c, 9, 40, 95
7, 40080, Note_off_c, 9, 40, 80
7, 40080, Note_on_c, 9, 42, 95
7, 40080, Note_on_c, 9, 40, 95
7, 40200, Note_off_c, 9, 42, 80
7, 40200, Note_off_c, 9, 40, 80
7, 40200, Note_on_c, 9, 42, 95
7, 40200, Note_on_c, 9, 40, 95
7, 40320, Note_off_c, 9, 42, 80
7, 40320, Note_off_c, 9, 40, 80
7, 40320, Note_on_c, 9, 42, 95
7, 40320, Note_on_c, 9, 36, 95
7, 40560, Note_off_c, 9, 42, 80
7, 40560, Note_off_c, 9, 36, 80
7, 40560, Note_on_c, 9, 42, 95
7, 40560, Note_on_c, 9, 36, 95
7, 40800, Note_off_c, 9, 42, 80
7, 40800, Note_off_c, 9, 36, 80
7, 40800, Note_on_c, 9, 42, 95
7, 40800, Note_on_c, 9, 40, 95
7, 41040, Note_off_c, 9, 42, 80
7, 41040, Note_off_c, 9, 40, 80
7, 41040, Note_on_c, 9, 42, 95
7, 41280, Note_off_c, 9, 42, 80
7, 41280, Note_on_c, 9, 42, 95
7, 41280, Note_on_c, 9, 36, 95
7, 41520, Note_off_c, 9, 42, 80
7, 41520, Note_off_c, 9, 36, 80
7, 41520, Note_on_c, 9, 42, 95
7, 41520, Note_on_c, 9, 36, 95
7, 41760, Note_off_c, 9, 42, 80
7, 41760, Note_off_c, 9, 36, 80
7, 41760, Note_on_c, 9, 42, 95
7, 41760, Note_on_c, 9, 40, 95
7, 42000, Note_off_c, 9, 42, 80
7, 42000, Note_off_c, 9, 40, 80
7, 42000, Note_on_c, 9, 42, 95
7, 42240, Note_off_c, 9, 42, 80
7, 42240, Note_on_c, 9, 42, 95
7, 42240, Note_on_c, 9, 36, 95
7, 42480, Note_off_c, 9, 42, 80
7, 42480, Note_off_c, 9, 36, 80
7, 42480, Note_on_c, 9, 42, 95
7, 42480, Note_on_c, 9, 36, 95
7, 42720, Note_off_c, 9, 42, 80
7, 42720, Note_off_c, 9, 36, 80
7, 42720, Note_on_c, 9, 42, 95
7, 42720, Note_on_c, 9, 40, 95
7, 42960, Note_off_c, 9, 42, 80
7, 42960, Note_off_c, 9, 40, 80
7, 42960, Note_on_c, 9, 42, 95
7, 43200, Note_off_c, 9, 42, 80
7, 43200, Note_on_c, 9, 42, 95
7, 43200, Note_on_c, 9, 36, 95
7, 43440, Note_off_c, 9, 42, 80
7, 43440, Note_off_c, 9, 36, 80
7, 43440, Note_on_c, 9, 42, 95
7, 43440, Note_on_c, 9, 36, 95
7, 43680, Note_off_c, 9, 42, 80
7, 43680, Note_off_c, 9, 36, 80
7, 43680, Note_on_c, 9, 42, 95
7, 43680, Note_on_c, 9, 40, 95
7, 43920, Note_off_c, 9, 42, 80
7, 43920, Note_off_c, 9, 40, 80
7, 43920, Note_on_c, 9, 42, 95
7, 43920, Note_on_c, 9, 40, 95
7, 44040, Note_off_c, 9, 42, 80
7, 44040, Note_off_c, 9, 40, 80
7, 44040, Note_on_c, 9, 42, 95
7, 44040, Note_on_c, 9, 40, 127
7, 44160, Note_off_c, 9, 42, 80
7, 44160, Note_off_c, 9, 40, 80
7, 44160, Note_on_c, 9, 57, 95
7, 44160, Note_on_c, 9, 55, 95
7, 44160, Note_on_c, 9, 49, 95
7, 44160, Note_on_c, 9, 36, 95
7, 46080, Note_off_c, 9, 57, 80
7, 46080, Note_off_c, 9, 55, 80
7, 46080, Note_off_c, 9, 49, 80
7, 46080, Note_off_c, 9, 36, 80
7, 46080, Note_on_c, 9, 57, 95
7, 46080, Note_on_c, 9, 55, 95
7, 46080, Note_on_c, 9, 49, 95
7, 46080, Note_on_c, 9, 36, 95
7, 46560, Note_off_c, 9, 57, 80
7, 46560, Note_off_c, 9, 55, 80
7, 46560, Note_off_c, 9, 49, 80
7, 46560, Note_off_c, 9, 36, 80
7, 46560, Note_on_c, 9, 57, 95
7, 46560, Note_on_c, 9, 55, 95
7, 46560, Note_on_c, 9, 49, 95
7, 46800, Note_off_c, 9, 57, 80
7, 46800, Note_off_c, 9, 55, 80
7, 46800, Note_off_c, 9, 49, 80
7, 46800, Note_on_c, 9, 57, 95
7, 46800, Note_on_c, 9, 34, 95
7, 46800, Note_on_c, 9, 31, 95
7, 47040, Note_off_c, 9, 57, 80
7, 47040, Note_off_c, 9, 34, 80
7, 47040, Note_off_c, 9, 31, 80
7, 47040, Note_on_c, 9, 34, 95
7, 47040, Note_on_c, 9, 31, 95
7, 47280, Note_off_c, 9, 34, 80
7, 47280, Note_off_c, 9, 31, 80
7, 47280, Note_on_c, 9, 35, 95
7, 47280, Note_on_c, 9, 31, 95
7, 47400, Note_off_c, 9, 35, 80
7, 47400, Note_off_c, 9, 31, 80
7, 47400, Note_on_c, 9, 34, 95
7, 47400, Note_on_c, 9, 31, 95
7, 47520, Note_off_c, 9, 34, 80
7, 47520, Note_off_c, 9, 31, 80
7, 47520, Note_on_c, 9, 34, 95
7, 47520, Note_on_c, 9, 31, 95
7, 47760, Note_off_c, 9, 34, 80
7, 47760, Note_off_c, 9, 31, 80
7, 47760, Note_on_c, 9, 57, 95
7, 47760, Note_on_c, 9, 55, 95
7, 47760, Note_on_c, 9, 49, 95
7, 47760, Note_on_c, 9, 31, 95
7, 48000, Note_off_c, 9, 57, 80
7, 48000, Note_off_c, 9, 55, 80
7, 48000, Note_off_c, 9, 49, 80
7, 48000, Note_off_c, 9, 31, 80
7, 48000, Note_on_c, 9, 42, 95
7, 48000, Note_on_c, 9, 36, 95
7, 48240, Note_off_c, 9, 42, 80
7, 48240, Note_off_c, 9, 36, 80
7, 48240, Note_on_c, 9, 42, 95
7, 48240, Note_on_c, 9, 36, 95
7, 48480, Note_off_c, 9, 42, 80
7, 48480, Note_off_c, 9, 36, 80
7, 48480, Note_on_c, 9, 42, 95
7, 48480, Note_on_c, 9, 40, 95
7, 48720, Note_off_c, 9, 42, 80
7, 48720, Note_off_c, 9, 40, 80
7, 48720, Note_on_c, 9, 42, 95
7, 48840, Note_off_c, 9, 42, 80
7, 48840, Note_on_c, 9, 42, 95
7, 48960, Note_off_c, 9, 42, 80
7, 48960, Note_on_c, 9, 42, 95
7, 48960, Note_on_c, 9, 36, 95
7, 49200, Note_off_c, 9, 42, 80
7, 49200, Note_off_c, 9, 36, 80
7, 49200, Note_on_c, 9, 42, 95
7, 49200, Note_on_c, 9, 36, 95
7, 49440, Note_off_c, 9, 42, 80
7, 49440, Note_off_c, 9, 36, 80
7, 49440, Note_on_c, 9, 42, 95
7, 49440, Note_on_c, 9, 40, 95
7, 49680, Note_off_c, 9, 42, 80
7, 49680, Note_off_c, 9, 40, 80
7, 49680, Note_on_c, 9, 42, 95
7, 49800, Note_off_c, 9, 42, 80
7, 49800, Note_on_c, 9, 42, 95
7, 49920, Note_off_c, 9, 42, 80
7, 49920, Note_on_c, 9, 42, 95
7, 49920, Note_on_c, 9, 36, 95
7, 50160, Note_off_c, 9, 42, 80
7, 50160, Note_off_c, 9, 36, 80
7, 50160, Note_on_c, 9, 42, 95
7, 50160, Note_on_c, 9, 36, 95
7, 50400, Note_off_c, 9, 42, 80
7, 50400, Note_off_c, 9, 36, 80
7, 50400, Note_on_c, 9, 42, 95
7, 50400, Note_on_c, 9, 40, 95
7, 50640, Note_off_c, 9, 42, 80
7, 50640, Note_off_c, 9, 40, 80
7, 50640, Note_on_c, 9, 42, 95
7, 50640, Note_on_c, 9, 36, 95
7, 50760, Note_off_c, 9, 42, 80
7, 50760, Note_off_c, 9, 36, 80
7, 50760, Note_on_c, 9, 42, 95
7, 50760, Note_on_c, 9, 36, 95
7, 50880, Note_off_c, 9, 42, 80
7, 50880, Note_off_c, 9, 36, 80
7, 50880, Note_on_c, 9, 42, 95
7, 50880, Note_on_c, 9, 40, 95
7, 51000, Note_off_c, 9, 42, 80
7, 51000, Note_off_c, 9, 40, 80
7, 51000, Note_on_c, 9, 42, 95
7, 51120, Note_off_c, 9, 42, 80
7, 51120, Note_on_c, 9, 42, 95
7, 51120, Note_on_c, 9, 36, 95
7, 51240, Note_off_c, 9, 42, 80
7, 51240, Note_off_c, 9, 36, 80
7, 51240, Note_on_c, 9, 42, 95
7, 51240, Note_on_c, 9, 36, 95
7, 51360, Note_off_c, 9, 42, 80
7, 51360, Note_off_c, 9, 36, 80
7, 51360, Note_on_c, 9, 42, 95
7, 51360, Note_on_c, 9, 40, 95
7, 51480, Note_off_c, 9, 42, 80
7, 51480, Note_off_c, 9, 40, 80
7, 51480, Note_on_c, 9, 42, 95
7, 51600, Note_off_c, 9, 42, 80
7, 51600, Note_on_c, 9, 42, 95
7, 51600, Note_on_c, 9, 40, 95
7, 51600, Note_on_c, 9, 36, 95
7, 51720, Note_off_c, 9, 42, 80
7, 51720, Note_off_c, 9, 40, 80
7, 51720, Note_off_c, 9, 36, 80
7, 51720, Note_on_c, 9, 42, 95
7, 51720, Note_on_c, 9, 40, 95
7, 51720, Note_on_c, 9, 36, 95
7, 51840, Note_off_c, 9, 42, 80
7, 51840, Note_off_c, 9, 40, 80
7, 51840, Note_off_c, 9, 36, 80
7, 51840, Note_on_c, 9, 42, 95
7, 51840, Note_on_c, 9, 36, 95
7, 52080, Note_off_c, 9, 42, 80
7, 52080, Note_off_c, 9, 36, 80
7, 52080, Note_on_c, 9, 42, 95
7, 52080, Note_on_c, 9, 36, 95
7, 52320, Note_off_c, 9, 42, 80
7, 52320, Note_off_c, 9, 36, 80
7, 52320, Note_on_c, 9, 42, 95
7, 52320, Note_on_c, 9, 40, 95
7, 52560, Note_off_c, 9, 42, 80
7, 52560, Note_off_c, 9, 40, 80
7, 52560, Note_on_c, 9, 42, 95
7, 52680, Note_off_c, 9, 42, 80
7, 52680, Note_on_c, 9, 42, 95
7, 52800, Note_off_c, 9, 42, 80
7, 52800, Note_on_c, 9, 42, 95
7, 52800, Note_on_c, 9, 36, 95
7, 53040, Note_off_c, 9, 42, 80
7, 53040, Note_off_c, 9, 36, 80
7, 53040, Note_on_c, 9, 42, 95
7, 53040, Note_on_c, 9, 36, 95
7, 53280, Note_off_c, 9, 42, 80
7, 53280, Note_off_c, 9, 36, 80
7, 53280, Note_on_c, 9, 42, 95
7, 53280, Note_on_c, 9, 40, 95
7, 53520, Note_off_c, 9, 42, 80
7, 53520, Note_off_c, 9, 40, 80
7, 53520, Note_on_c, 9, 42, 95
7, 53640, Note_off_c, 9, 42, 80
7, 53640, Note_on_c, 9, 42, 95
7, 53760, Note_off_c, 9, 42, 80
7, 53760, Note_on_c, 9, 42, 95
7, 53760, Note_on_c, 9, 36, 95
7, 54000, Note_off_c, 9, 42, 80
7, 54000, Note_off_c, 9, 36, 80
7, 54000, Note_on_c, 9, 42, 95
7, 54000, Note_on_c, 9, 36, 95
7, 54240, Note_off_c, 9, 42, 80
7, 54240, Note_off_c, 9, 36, 80
7, 54240, Note_on_c, 9, 42, 95
7, 54240, Note_on_c, 9, 40, 95
7, 54480, Note_off_c, 9, 42, 80
7, 54480, Note_off_c, 9, 40, 80
7, 54480, Note_on_c, 9, 42, 95
7, 54480, Note_on_c, 9, 36, 95
7, 54600, Note_off_c, 9, 42, 80
7, 54600, Note_off_c, 9, 36, 80
7, 54600, Note_on_c, 9, 42, 95
7, 54600, Note_on_c, 9, 36, 95
7, 54720, Note_off_c, 9, 42, 80
7, 54720, Note_off_c, 9, 36, 80
7, 54720, Note_on_c, 9, 42, 95
7, 54720, Note_on_c, 9, 40, 95
7, 54840, Note_off_c, 9, 42, 80
7, 54840, Note_off_c, 9, 40, 80
7, 54840, Note_on_c, 9, 42, 95
7, 54960, Note_off_c, 9, 42, 80
7, 54960, Note_on_c, 9, 42, 95
7, 54960, Note_on_c, 9, 36, 95
7, 55080, Note_off_c, 9, 42, 80
7, 55080, Note_off_c, 9, 36, 80
7, 55080, Note_on_c, 9, 42, 95
7, 55080, Note_on_c, 9, 36, 95
7, 55200, Note_off_c, 9, 42, 80
7, 55200, Note_off_c, 9, 36, 80
7, 55200, Note_on_c, 9, 42, 95
7, 55200, Note_on_c, 9, 40, 95
7, 55320, Note_off_c, 9, 42, 80
7, 55320, Note_off_c, 9, 40, 80
7, 55320, Note_on_c, 9, 42, 95
7, 55440, Note_off_c, 9, 42, 80
7, 55440, Note_on_c, 9, 42, 95
7, 55440, Note_on_c, 9, 40, 95
7, 55440, Note_on_c, 9, 36, 95
7, 55560, Note_off_c, 9, 42, 80
7, 55560, Note_off_c, 9, 40, 80
7, 55560, Note_off_c, 9, 36, 80
7, 55560, Note_on_c, 9, 42, 95
7, 55560, Note_on_c, 9, 40, 95
7, 55560, Note_on_c, 9, 36, 95
7, 55680, Note_off_c, 9, 42, 80
7, 55680, Note_off_c, 9, 40, 80
7, 55680, Note_off_c, 9, 36, 80
7, 55680, Note_on_c, 9, 42, 95
7, 55680, Note_on_c, 9, 36, 95
7, 55920, Note_off_c, 9, 42, 80
7, 55920, Note_off_c, 9, 36, 80
7, 55920, Note_on_c, 9, 42, 95
7, 55920, Note_on_c, 9, 36, 95
7, 56160, Note_off_c, 9, 42, 80
7, 56160, Note_off_c, 9, 36, 80
7, 56160, Note_on_c, 9, 42, 95
7, 56160, Note_on_c, 9, 40, 95
7, 56400, Note_off_c, 9, 42, 80
7, 56400, Note_off_c, 9, 40, 80
7, 56400, Note_on_c, 9, 42, 95
7, 56520, Note_off_c, 9, 42, 80
7, 56520, Note_on_c, 9, 42, 95
7, 56640, Note_off_c, 9, 42, 80
7, 56640, Note_on_c, 9, 42, 95
7, 56640, Note_on_c, 9, 36, 95
7, 56880, Note_off_c, 9, 42, 80
7, 56880, Note_off_c, 9, 36, 80
7, 56880, Note_on_c, 9, 42, 95
7, 56880, Note_on_c, 9, 36, 95
7, 57120, Note_off_c, 9, 42, 80
7, 57120, Note_off_c, 9, 36, 80
7, 57120, Note_on_c, 9, 42, 95
7, 57120, Note_on_c, 9, 40, 95
7, 57360, Note_off_c, 9, 42, 80
7, 57360, Note_off_c, 9, 40, 80
7, 57360, Note_on_c, 9, 42, 95
7, 57480, Note_off_c, 9, 42, 80
7, 57480, Note_on_c, 9, 42, 95
7, 57600, Note_off_c, 9, 42, 80
7, 57600, Note_on_c, 9, 42, 95
7, 57600, Note_on_c, 9, 36, 95
7, 57840, Note_off_c, 9, 42, 80
7, 57840, Note_off_c, 9, 36, 80
7, 57840, Note_on_c, 9, 42, 95
7, 57840, Note_on_c, 9, 36, 95
7, 58080, Note_off_c, 9, 42, 80
7, 58080, Note_off_c, 9, 36, 80
7, 58080, Note_on_c, 9, 42, 95
7, 58080, Note_on_c, 9, 40, 95
7, 58320, Note_off_c, 9, 42, 80
7, 58320, Note_off_c, 9, 40, 80
7, 58320, Note_on_c, 9, 42, 95
7, 58320, Note_on_c, 9, 36, 95
7, 58440, Note_off_c, 9, 42, 80
7, 58440, Note_off_c, 9, 36, 80
7, 58440, Note_on_c, 9, 42, 95
7, 58440, Note_on_c, 9, 36, 95
7, 58560, Note_off_c, 9, 42, 80
7, 58560, Note_off_c, 9, 36, 80
7, 58560, Note_on_c, 9, 42, 95
7, 58560, Note_on_c, 9, 40, 95
7, 58680, Note_off_c, 9, 42, 80
7, 58680, Note_off_c, 9, 40, 80
7, 58680, Note_on_c, 9, 42, 95
7, 58800, Note_off_c, 9, 42, 80
7, 58800, Note_on_c, 9, 42, 95
7, 58800, Note_on_c, 9, 36, 95
7, 58920, Note_off_c, 9, 42, 80
7, 58920, Note_off_c, 9, 36, 80
7, 58920, Note_on_c, 9, 42, 95
7, 58920, Note_on_c, 9, 36, 95
7, 59040, Note_off_c, 9, 42, 80
7, 59040, Note_off_c, 9, 36, 80
7, 59040, Note_on_c, 9, 42, 95
7, 59040, Note_on_c, 9, 40, 95
7, 59160, Note_off_c, 9, 42, 80
7, 59160, Note_off_c, 9, 40, 80
7, 59160, Note_on_c, 9, 42, 95
7, 59280, Note_off_c, 9, 42, 80
7, 59280, Note_on_c, 9, 42, 95
7, 59280, Note_on_c, 9, 40, 95
7, 59280, Note_on_c, 9, 36, 95
7, 59400, Note_off_c, 9, 42, 80
7, 59400, Note_off_c, 9, 40, 80
7, 59400, Note_off_c, 9, 36, 80
7, 59400, Note_on_c, 9, 42, 95
7, 59400, Note_on_c, 9, 40, 95
7, 59400, Note_on_c, 9, 36, 95
7, 59520, Note_off_c, 9, 42, 80
7, 59520, Note_off_c, 9, 40, 80
7, 59520, Note_off_c, 9, 36, 80
7, 59520, Note_on_c, 9, 36, 95
7, 59760, Note_off_c, 9, 36, 80
7, 59760, Note_on_c, 9, 36, 95
7, 60000, Note_off_c, 9, 36, 80
7, 60000, Note_on_c, 9, 40, 111
7, 60480, Note_off_c, 9, 40, 80
7, 60480, Note_on_c, 9, 36, 95
7, 60720, Note_off_c, 9, 36, 80
7, 60720, Note_on_c, 9, 36, 95
7, 60960, Note_off_c, 9, 36, 80
7, 60960, Note_on_c, 9, 40, 111
7, 61440, Note_off_c, 9, 40, 80
7, 61440, Note_on_c, 9, 36, 95
7, 61680, Note_off_c, 9, 36, 80
7, 61680, Note_on_c, 9, 36, 95
7, 61920, Note_off_c, 9, 36, 80
7, 61920, Note_on_c, 9, 40, 111
7, 62400, Note_off_c, 9, 40, 80
7, 62400, Note_on_c, 9, 36, 95
7, 62640, Note_off_c, 9, 36, 80
7, 62640, Note_on_c, 9, 36, 95
7, 62880, Note_off_c, 9, 36, 80
7, 62880, Note_on_c, 9, 40, 111
7, 63360, Note_off_c, 9, 40, 80
7, 63360, Note_on_c, 9, 36, 95
7, 63600, Note_off_c, 9, 36, 80
7, 63600, Note_on_c, 9, 36, 95
7, 63840, Note_off_c, 9, 36, 80
7, 63840, Note_on_c, 9, 40, 111
7, 64320, Note_off_c, 9, 40, 80
7, 64320, Note_on_c, 9, 36, 95
7, 64560, Note_off_c, 9, 36, 80
7, 64560, Note_on_c, 9, 36, 95
7, 64800, Note_off_c, 9, 36, 80
7, 64800, Note_on_c, 9, 40, 111
7, 65280, Note_off_c, 9, 40, 80
7, 65280, Note_on_c, 9, 36, 95
7, 65520, Note_off_c, 9, 36, 80
7, 65520, Note_on_c, 9, 36, 95
7, 65760, Note_off_c, 9, 36, 80
7, 65760, Note_on_c, 9, 40, 111
7, 66240, Note_off_c, 9, 40, 80
7, 66240, Note_on_c, 9, 36, 95
7, 66480, Note_off_c, 9, 36, 80
7, 66480, Note_on_c, 9, 36, 95
7, 66720, Note_off_c, 9, 36, 80
7, 66720, Note_on_c, 9, 40, 111
7, 67200, Note_off_c, 9, 40, 80
7, 67200, Note_on_c, 9, 36, 95
7, 67440, Note_off_c, 9, 36, 80
7, 67440, Note_on_c, 9, 36, 95
7, 67680, Note_off_c, 9, 36, 80
7, 67680, Note_on_c, 9, 40, 111
7, 68160, Note_off_c, 9, 40, 80
7, 68160, Note_on_c, 9, 36, 95
7, 68400, Note_off_c, 9, 36, 80
7, 68400, Note_on_c, 9, 36, 95
7, 68640, Note_off_c, 9, 36, 80
7, 68640, Note_on_c, 9, 40, 111
7, 69120, Note_off_c, 9, 40, 80
7, 69120, Note_on_c, 9, 36, 95
7, 69360, Note_off_c, 9, 36, 80
7, 69360, Note_on_c, 9, 36, 95
7, 69600, Note_off_c, 9, 36, 80
7, 69600, Note_on_c, 9, 40, 111
7, 70080, Note_off_c, 9, 40, 80
7, 70080, Note_on_c, 9, 36, 95
7, 70320, Note_off_c, 9, 36, 80
7, 70320, Note_on_c, 9, 36, 95
7, 70560, Note_off_c, 9, 36, 80
7, 70560, Note_on_c, 9, 40, 95
7, 70800, Note_off_c, 9, 40, 80
7, 70800, Note_on_c, 9, 42, 95
7, 70800, Note_on_c, 9, 40, 95
7, 70920, Note_off_c, 9, 42, 80
7, 70920, Note_off_c, 9, 40, 80
7, 70920, Note_on_c, 9, 42, 95
7, 70920, Note_on_c, 9, 40, 95
7, 71040, Note_off_c, 9, 42, 80
7, 71040, Note_off_c, 9, 40, 80
7, 71040, Note_on_c, 9, 42, 95
7, 71040, Note_on_c, 9, 36, 95
7, 71280, Note_off_c, 9, 42, 80
7, 71280, Note_off_c, 9, 36, 80
7, 71280, Note_on_c, 9, 42, 95
7, 71280, Note_on_c, 9, 36, 95
7, 71520, Note_off_c, 9, 42, 80
7, 71520, Note_off_c, 9, 36, 80
7, 71520, Note_on_c, 9, 42, 95
7, 71520, Note_on_c, 9, 40, 95
7, 71760, Note_off_c, 9, 42, 80
7, 71760, Note_off_c, 9, 40, 80
7, 71760, Note_on_c, 9, 42, 95
7, 71880, Note_off_c, 9, 42, 80
7, 71880, Note_on_c, 9, 42, 95
7, 71880, Note_on_c, 9, 36, 95
7, 72000, Note_off_c, 9, 42, 80
7, 72000, Note_off_c, 9, 36, 80
7, 72000, Note_on_c, 9, 42, 95
7, 72000, Note_on_c, 9, 36, 95
7, 72240, Note_off_c, 9, 42, 80
7, 72240, Note_off_c, 9, 36, 80
7, 72240, Note_on_c, 9, 42, 95
7, 72240, Note_on_c, 9, 36, 95
7, 72480, Note_off_c, 9, 42, 80
7, 72480, Note_off_c, 9, 36, 80
7, 72480, Note_on_c, 9, 42, 95
7, 72480, Note_on_c, 9, 40, 95
7, 72720, Note_off_c, 9, 42, 80
7, 72720, Note_off_c, 9, 40, 80
7, 72720, Note_on_c, 9, 42, 95
7, 72840, Note_off_c, 9, 42, 80
7, 72840, Note_on_c, 9, 42, 95
7, 72840, Note_on_c, 9, 36, 95
7, 72960, Note_off_c, 9, 42, 80
7, 72960, Note_off_c, 9, 36, 80
7, 72960, Note_on_c, 9, 42, 95
7, 72960, Note_on_c, 9, 36, 95
7, 73200, Note_off_c, 9, 42, 80
7, 73200, Note_off_c, 9, 36, 80
7, 73200, Note_on_c, 9, 42, 95
7, 73200, Note_on_c, 9, 36, 95
7, 73440, Note_off_c, 9, 42, 80
7, 73440, Note_off_c, 9, 36, 80
7, 73440, Note_on_c, 9, 42, 95
7, 73440, Note_on_c, 9, 40, 95
7, 73680, Note_off_c, 9, 42, 80
7, 73680, Note_off_c, 9, 40, 80
7, 73680, Note_on_c, 9, 42, 95
7, 73800, Note_off_c, 9, 42, 80
7, 73800, Note_on_c, 9, 42, 95
7, 73800, Note_on_c, 9, 36, 95
7, 73920, Note_off_c, 9, 42, 80
7, 73920, Note_off_c, 9, 36, 80
7, 73920, Note_on_c, 9, 42, 95
7, 73920, Note_on_c, 9, 36, 95
7, 74160, Note_off_c, 9, 42, 80
7, 74160, Note_off_c, 9, 36, 80
7, 74160, Note_on_c, 9, 42, 95
7, 74160, Note_on_c, 9, 36, 95
7, 74400, Note_off_c, 9, 42, 80
7, 74400, Note_off_c, 9, 36, 80
7, 74400, Note_on_c, 9, 42, 95
7, 74400, Note_on_c, 9, 40, 95
7, 74640, Note_off_c, 9, 42, 80
7, 74640, Note_off_c, 9, 40, 80
7, 74640, Note_on_c, 9, 42, 95
7, 74640, Note_on_c, 9, 40, 95
7, 74760, Note_off_c, 9, 42, 80
7, 74760, Note_off_c, 9, 40, 80
7, 74760, Note_on_c, 9, 42, 95
7, 74760, Note_on_c, 9, 40, 95
7, 74760, Note_on_c, 9, 36, 95
7, 74880, Note_off_c, 9, 42, 80
7, 74880, Note_off_c, 9, 40, 80
7, 74880, Note_off_c, 9, 36, 80
7, 74880, Note_on_c, 9, 57, 95
7, 74880, Note_on_c, 9, 55, 95
7, 74880, Note_on_c, 9, 49, 95
7, 74880, Note_on_c, 9, 36, 95
7, 76800, Note_off_c, 9, 57, 80
7, 76800, Note_off_c, 9, 55, 80
7, 76800, Note_off_c, 9, 49, 80
7, 76800, Note_off_c, 9, 36, 80
7, 76800, Note_on_c, 9, 57, 95
7, 76800, Note_on_c, 9, 55, 95
7, 76800, Note_on_c, 9, 49, 95
7, 76800, Note_on_c, 9, 36, 95
7, 77280, Note_off_c, 9, 57, 80
7, 77280, Note_off_c, 9, 55, 80
7, 77280, Note_off_c, 9, 49, 80
7, 77280, Note_off_c, 9, 36, 80
7, 77280, Note_on_c, 9, 55, 95
7, 77280, Note_on_c, 9, 49, 95
7, 77520, Note_off_c, 9, 55, 80
7, 77520, Note_off_c, 9, 49, 80
7, 77520, Note_on_c, 9, 57, 95
7, 77520, Note_on_c, 9, 34, 95
7, 77520, Note_on_c, 9, 31, 95
7, 77760, Note_off_c, 9, 57, 80
7, 77760, Note_off_c, 9, 34, 80
7, 77760, Note_off_c, 9, 31, 80
7, 77760, Note_on_c, 9, 34, 95
7, 77760, Note_on_c, 9, 31, 95
7, 78000, Note_off_c, 9, 34, 80
7, 78000, Note_off_c, 9, 31, 80
7, 78000, Note_on_c, 9, 35, 95
7, 78000, Note_on_c, 9, 31, 95
7, 78120, Note_off_c, 9, 35, 80
7, 78120, Note_off_c, 9, 31, 80
7, 78120, Note_on_c, 9, 34, 95
7, 78120, Note_on_c, 9, 31, 95
7, 78240, Note_off_c, 9, 34, 80
7, 78240, Note_off_c, 9, 31, 80
7, 78240, Note_on_c, 9, 34, 95
7, 78240, Note_on_c, 9, 31, 95
7, 78480, Note_off_c, 9, 34, 80
7, 78480, Note_off_c, 9, 31, 80
7, 78480, Note_on_c, 9, 57, 95
7, 78480, Note_on_c, 9, 55, 95
7, 78480, Note_on_c, 9, 49, 95
7, 78480, Note_on_c, 9, 31, 95
7, 78720, Note_off_c, 9, 57, 80
7, 78720, Note_off_c, 9, 55, 80
7, 78720, Note_off_c, 9, 49, 80
7, 78720, Note_off_c, 9, 31, 80
7, 78720, Note_on_c, 9, 57, 95
7, 78720, Note_on_c, 9, 55, 95
7, 78720, Note_on_c, 9, 49, 95
7, 78720, Note_on_c, 9, 36, 95
7, 79200, Note_off_c, 9, 57, 80
7, 79200, Note_off_c, 9, 55, 80
7, 79200, Note_off_c, 9, 49, 80
7, 79200, Note_off_c, 9, 36, 80
7, 79200, Note_on_c, 9, 57, 95
7, 79200, Note_on_c, 9, 55, 95
7, 79200, Note_on_c, 9, 49, 95
7, 79440, Note_off_c, 9, 57, 80
7, 79440, Note_off_c, 9, 55, 80
7, 79440, Note_off_c, 9, 49, 80
7, 79440, Note_on_c, 9, 57, 95
7, 79440, Note_on_c, 9, 34, 95
7, 79440, Note_on_c, 9, 31, 95
7, 79680, Note_off_c, 9, 57, 80
7, 79680, Note_off_c, 9, 34, 80
7, 79680, Note_off_c, 9, 31, 80
7, 79680, Note_on_c, 9, 34, 95
7, 79680, Note_on_c, 9, 31, 95
7, 79920, Note_off_c, 9, 34, 80
7, 79920, Note_off_c, 9, 31, 80
7, 79920, Note_on_c, 9, 35, 95
7, 79920, Note_on_c, 9, 31, 95
7, 80040, Note_off_c, 9, 35, 80
7, 80040, Note_off_c, 9, 31, 80
7, 80040, Note_on_c, 9, 34, 95
7, 80040, Note_on_c, 9, 31, 95
7, 80160, Note_off_c, 9, 34, 80
7, 80160, Note_off_c, 9, 31, 80
7, 80160, Note_on_c, 9, 34, 95
7, 80160, Note_on_c, 9, 31, 95
7, 80400, Note_off_c, 9, 34, 80
7, 80400, Note_off_c, 9, 31, 80
7, 80400, Note_on_c, 9, 57, 95
7, 80400, Note_on_c, 9, 55, 95
7, 80400, Note_on_c, 9, 49, 95
7, 80400, Note_on_c, 9, 31, 95
7, 80640, Note_off_c, 9, 57, 80
7, 80640, Note_off_c, 9, 55, 80
7, 80640, Note_off_c, 9, 49, 80
7, 80640, Note_off_c, 9, 31, 80
7, 80640, Note_on_c, 9, 57, 95
7, 80640, Note_on_c, 9, 55, 95
7, 80640, Note_on_c, 9, 49, 95
7, 80640, Note_on_c, 9, 36, 95
7, 81120, Note_off_c, 9, 57, 80
7, 81120, Note_off_c, 9, 55, 80
7, 81120, Note_off_c, 9, 49, 80
7, 81120, Note_off_c, 9, 36, 80
7, 81120, Note_on_c, 9, 57, 95
7, 81120, Note_on_c, 9, 55, 95
7, 81120, Note_on_c, 9, 49, 95
7, 81360, Note_off_c, 9, 57, 80
7, 81360, Note_off_c, 9, 55, 80
7, 81360, Note_off_c, 9, 49, 80
7, 81360, Note_on_c, 9, 57, 95
7, 81360, Note_on_c, 9, 34, 95
7, 81360, Note_on_c, 9, 31, 95
7, 81600, Note_off_c, 9, 57, 80
7, 81600, Note_off_c, 9, 34, 80
7, 81600, Note_off_c, 9, 31, 80
7, 81600, Note_on_c, 9, 34, 95
7, 81600, Note_on_c, 9, 31, 95
7, 81840, Note_off_c, 9, 34, 80
7, 81840, Note_off_c, 9, 31, 80
7, 81840, Note_on_c, 9, 35, 95
7, 81840, Note_on_c, 9, 31, 95
7, 81960, Note_off_c, 9, 35, 80
7, 81960, Note_off_c, 9, 31, 80
7, 81960, Note_on_c, 9, 34, 95
7, 81960, Note_on_c, 9, 31, 95
7, 82080, Note_off_c, 9, 34, 80
7, 82080, Note_off_c, 9, 31, 80
7, 82080, Note_on_c, 9, 34, 95
7, 82080, Note_on_c, 9, 31, 95
7, 82320, Note_off_c, 9, 34, 80
7, 82320, Note_off_c, 9, 31, 80
7, 82320, Note_on_c, 9, 57, 95
7, 82320, Note_on_c, 9, 55, 95
7, 82320, Note_on_c, 9, 49, 95
7, 82320, Note_on_c, 9, 31, 95
7, 82560, Note_off_c, 9, 57, 80
7, 82560, Note_off_c, 9, 55, 80
7, 82560, Note_off_c, 9, 49, 80
7, 82560, Note_off_c, 9, 31, 80
7, 82560, Note_on_c, 9, 57, 95
7, 82560, Note_on_c, 9, 55, 95
7, 82560, Note_on_c, 9, 49, 95
7, 82560, Note_on_c, 9, 36, 95
7, 83040, Note_off_c, 9, 57, 80
7, 83040, Note_off_c, 9, 55, 80
7, 83040, Note_off_c, 9, 49, 80
7, 83040, Note_off_c, 9, 36, 80
7, 83040, Note_on_c, 9, 57, 95
7, 83040, Note_on_c, 9, 55, 95
7, 83040, Note_on_c, 9, 49, 95
7, 83280, Note_off_c, 9, 57, 80
7, 83280, Note_off_c, 9, 55, 80
7, 83280, Note_off_c, 9, 49, 80
7, 83280, Note_on_c, 9, 57, 95
7, 83280, Note_on_c, 9, 34, 95
7, 83280, Note_on_c, 9, 31, 95
7, 83520, Note_off_c, 9, 57, 80
7, 83520, Note_off_c, 9, 34, 80
7, 83520, Note_off_c, 9, 31, 80
7, 83520, Note_on_c, 9, 34, 95
7, 83520, Note_on_c, 9, 31, 95
7, 83760, Note_off_c, 9, 34, 80
7, 83760, Note_off_c, 9, 31, 80
7, 83760, Note_on_c, 9, 35, 95
7, 83760, Note_on_c, 9, 31, 95
7, 83880, Note_off_c, 9, 35, 80
7, 83880, Note_off_c, 9, 31, 80
7, 83880, Note_on_c, 9, 34, 95
7, 83880, Note_on_c, 9, 31, 95
7, 84000, Note_off_c, 9, 34, 80
7, 84000, Note_off_c, 9, 31, 80
7, 84000, Note_on_c, 9, 34, 95
7, 84000, Note_on_c, 9, 31, 95
7, 84240, Note_off_c, 9, 34, 80
7, 84240, Note_off_c, 9, 31, 80
7, 84240, Note_on_c, 9, 57, 95
7, 84240, Note_on_c, 9, 55, 95
7, 84240, Note_on_c, 9, 49, 95
7, 84240, Note_on_c, 9, 31, 95
7, 84480, Note_off_c, 9, 57, 80
7, 84480, Note_off_c, 9, 55, 80
7, 84480, Note_off_c, 9, 49, 80
7, 84480, Note_off_c, 9, 31, 80
7, 84480, Note_on_c, 9, 42, 95
7, 84480, Note_on_c, 9, 36, 95
7, 84720, Note_off_c, 9, 42, 80
7, 84720, Note_off_c, 9, 36, 80
7, 84720, Note_on_c, 9, 42, 95
7, 84720, Note_on_c, 9, 36, 95
7, 84960, Note_off_c, 9, 42, 80
7, 84960, Note_off_c, 9, 36, 80
7, 84960, Note_on_c, 9, 42, 95
7, 84960, Note_on_c, 9, 40, 95
7, 85200, Note_off_c, 9, 42, 80
7, 85200, Note_off_c, 9, 40, 80
7, 85200, Note_on_c, 9, 42, 95
7, 85200, Note_on_c, 9, 36, 95
7, 85320, Note_off_c, 9, 42, 80
7, 85320, Note_off_c, 9, 36, 80
7, 85320, Note_on_c, 9, 42, 95
7, 85320, Note_on_c, 9, 36, 95
7, 85440, Note_off_c, 9, 42, 80
7, 85440, Note_off_c, 9, 36, 80
7, 85440, Note_on_c, 9, 42, 95
7, 85440, Note_on_c, 9, 36, 95
7, 85680, Note_off_c, 9, 42, 80
7, 85680, Note_off_c, 9, 36, 80
7, 85680, Note_on_c, 9, 42, 95
7, 85680, Note_on_c, 9, 36, 95
7, 85920, Note_off_c, 9, 42, 80
7, 85920, Note_off_c, 9, 36, 80
7, 85920, Note_on_c, 9, 42, 95
7, 85920, Note_on_c, 9, 40, 95
7, 86160, Note_off_c, 9, 42, 80
7, 86160, Note_off_c, 9, 40, 80
7, 86160, Note_on_c, 9, 42, 95
7, 86160, Note_on_c, 9, 36, 95
7, 86280, Note_off_c, 9, 42, 80
7, 86280, Note_off_c, 9, 36, 80
7, 86280, Note_on_c, 9, 42, 95
7, 86280, Note_on_c, 9, 36, 95
7, 86400, Note_off_c, 9, 42, 80
7, 86400, Note_off_c, 9, 36, 80
7, 86400, Note_on_c, 9, 42, 95
7, 86400, Note_on_c, 9, 36, 95
7, 86640, Note_off_c, 9, 42, 80
7, 86640, Note_off_c, 9, 36, 80
7, 86640, Note_on_c, 9, 42, 95
7, 86640, Note_on_c, 9, 36, 95
7, 86880, Note_off_c, 9, 42, 80
7, 86880, Note_off_c, 9, 36, 80
7, 86880, Note_on_c, 9, 42, 95
7, 86880, Note_on_c, 9, 40, 95
7, 87120, Note_off_c, 9, 42, 80
7, 87120, Note_off_c, 9, 40, 80
7, 87120, Note_on_c, 9, 42, 95
7, 87120, Note_on_c, 9, 36, 95
7, 87240, Note_off_c, 9, 42, 80
7, 87240, Note_off_c, 9, 36, 80
7, 87240, Note_on_c, 9, 42, 95
7, 87240, Note_on_c, 9, 36, 95
7, 87360, Note_off_c, 9, 42, 80
7, 87360, Note_off_c, 9, 36, 80
7, 87360, Note_on_c, 9, 42, 95
7, 87360, Note_on_c, 9, 40, 95
7, 87480, Note_off_c, 9, 42, 80
7, 87480, Note_off_c, 9, 40, 80
7, 87480, Note_on_c, 9, 42, 95
7, 87600, Note_off_c, 9, 42, 80
7, 87600, Note_on_c, 9, 42, 95
7, 87600, Note_on_c, 9, 40, 95
7, 87600, Note_on_c, 9, 36, 95
7, 87720, Note_off_c, 9, 42, 80
7, 87720, Note_off_c, 9, 40, 80
7, 87720, Note_off_c, 9, 36, 80
7, 87720, Note_on_c, 9, 42, 95
7, 87720, Note_on_c, 9, 40, 95
7, 87720, Note_on_c, 9, 36, 95
7, 87840, Note_off_c, 9, 42, 80
7, 87840, Note_off_c, 9, 40, 80
7, 87840, Note_off_c, 9, 36, 80
7, 87840, Note_on_c, 9, 42, 95
7, 87840, Note_on_c, 9, 40, 95
7, 87960, Note_off_c, 9, 42, 80
7, 87960, Note_off_c, 9, 40, 80
7, 87960, Note_on_c, 9, 42, 95
7, 88080, Note_off_c, 9, 42, 80
7, 88080, Note_on_c, 9, 42, 95
7, 88080, Note_on_c, 9, 40, 95
7, 88080, Note_on_c, 9, 36, 95
7, 88200, Note_off_c, 9, 42, 80
7, 88200, Note_off_c, 9, 40, 80
7, 88200, Note_off_c, 9, 36, 80
7, 88200, Note_on_c, 9, 42, 95
7, 88200, Note_on_c, 9, 40, 95
7, 88200, Note_on_c, 9, 36, 95
7, 88320, Note_off_c, 9, 42, 80
7, 88320, Note_off_c, 9, 40, 80
7, 88320, Note_off_c, 9, 36, 80
7, 88320, Note_on_c, 9, 42, 95
7, 88320, Note_on_c, 9, 36, 95
7, 88560, Note_off_c, 9, 42, 80
7, 88560, Note_off_c, 9, 36, 80
7, 88560, Note_on_c, 9, 42, 95
7, 88560, Note_on_c, 9, 36, 95
7, 88800, Note_off_c, 9, 42, 80
7, 88800, Note_off_c, 9, 36, 80
7, 88800, Note_on_c, 9, 42, 95
7, 88800, Note_on_c, 9, 40, 95
7, 89040, Note_off_c, 9, 42, 80
7, 89040, Note_off_c, 9, 40, 80
7, 89040, Note_on_c, 9, 42, 95
7, 89040, Note_on_c, 9, 36, 95
7, 89160, Note_off_c, 9, 42, 80
7, 89160, Note_off_c, 9, 36, 80
7, 89160, Note_on_c, 9, 42, 95
7, 89160, Note_on_c, 9, 36, 95
7, 89280, Note_off_c, 9, 42, 80
7, 89280, Note_off_c, 9, 36, 80
7, 89280, Note_on_c, 9, 42, 95
7, 89280, Note_on_c, 9, 36, 95
7, 89520, Note_off_c, 9, 42, 80
7, 89520, Note_off_c, 9, 36, 80
7, 89520, Note_on_c, 9, 42, 95
7, 89520, Note_on_c, 9, 36, 95
7, 89760, Note_off_c, 9, 42, 80
7, 89760, Note_off_c, 9, 36, 80
7, 89760, Note_on_c, 9, 42, 95
7, 89760, Note_on_c, 9, 40, 95
7, 90000, Note_off_c, 9, 42, 80
7, 90000, Note_off_c, 9, 40, 80
7, 90000, Note_on_c, 9, 42, 95
7, 90000, Note_on_c, 9, 36, 95
7, 90120, Note_off_c, 9, 42, 80
7, 90120, Note_off_c, 9, 36, 80
7, 90120, Note_on_c, 9, 42, 95
7, 90120, Note_on_c, 9, 36, 95
7, 90240, Note_off_c, 9, 42, 80
7, 90240, Note_off_c, 9, 36, 80
7, 90240, Note_on_c, 9, 42, 95
7, 90240, Note_on_c, 9, 36, 95
7, 90480, Note_off_c, 9, 42, 80
7, 90480, Note_off_c, 9, 36, 80
7, 90480, Note_on_c, 9, 42, 95
7, 90480, Note_on_c, 9, 36, 95
7, 90720, Note_off_c, 9, 42, 80
7, 90720, Note_off_c, 9, 36, 80
7, 90720, Note_on_c, 9, 42, 95
7, 90720, Note_on_c, 9, 40, 95
7, 90960, Note_off_c, 9, 42, 80
7, 90960, Note_off_c, 9, 40, 80
7, 90960, Note_on_c, 9, 42, 95
7, 90960, Note_on_c, 9, 36, 95
7, 91080, Note_off_c, 9, 42, 80
7, 91080, Note_off_c, 9, 36, 80
7, 91080, Note_on_c, 9, 42, 95
7, 91080, Note_on_c, 9, 36, 95
7, 91200, Note_off_c, 9, 42, 80
7, 91200, Note_off_c, 9, 36, 80
7, 91200, Note_on_c, 9, 42, 95
7, 91200, Note_on_c, 9, 40, 95
7, 91320, Note_off_c, 9, 42, 80
7, 91320, Note_off_c, 9, 40, 80
7, 91320, Note_on_c, 9, 42, 95
7, 91440, Note_off_c, 9, 42, 80
7, 91440, Note_on_c, 9, 42, 95
7, 91440, Note_on_c, 9, 40, 95
7, 91440, Note_on_c, 9, 36, 95
7, 91560, Note_off_c, 9, 42, 80
7, 91560, Note_off_c, 9, 40, 80
7, 91560, Note_off_c, 9, 36, 80
7, 91560, Note_on_c, 9, 42, 95
7, 91560, Note_on_c, 9, 40, 95
7, 91560, Note_on_c, 9, 36, 95
7, 91680, Note_off_c, 9, 42, 80
7, 91680, Note_off_c, 9, 40, 80
7, 91680, Note_off_c, 9, 36, 80
7, 91680, Note_on_c, 9, 42, 95
7, 91680, Note_on_c, 9, 40, 95
7, 91800, Note_off_c, 9, 42, 80
7, 91800, Note_off_c, 9, 40, 80
7, 91800, Note_on_c, 9, 42, 95
7, 91920, Note_off_c, 9, 42, 80
7, 91920, Note_on_c, 9, 42, 95
7, 91920, Note_on_c, 9, 40, 95
7, 91920, Note_on_c, 9, 36, 95
7, 92040, Note_off_c, 9, 42, 80
7, 92040, Note_off_c, 9, 40, 80
7, 92040, Note_off_c, 9, 36, 80
7, 92040, Note_on_c, 9, 42, 95
7, 92040, Note_on_c, 9, 40, 95
7, 92040, Note_on_c, 9, 36, 95
7, 92160, Note_off_c, 9, 42, 80
7, 92160, Note_off_c, 9, 40, 80
7, 92160, Note_off_c, 9, 36, 80
7, 92160, Note_on_c, 9, 42, 95
7, 92160, Note_on_c, 9, 36, 95
7, 92400, Note_off_c, 9, 42, 80
7, 92400, Note_off_c, 9, 36, 80
7, 92400, Note_on_c, 9, 42, 95
7, 92400, Note_on_c, 9, 36, 95
7, 92640, Note_off_c, 9, 42, 80
7, 92640, Note_off_c, 9, 36, 80
7, 92640, Note_on_c, 9, 42, 95
7, 92640, Note_on_c, 9, 40, 95
7, 92880, Note_off_c, 9, 42, 80
7, 92880, Note_off_c, 9, 40, 80
7, 92880, Note_on_c, 9, 42, 95
7, 92880, Note_on_c, 9, 36, 95
7, 93000, Note_off_c, 9, 42, 80
7, 93000, Note_off_c, 9, 36, 80
7, 93000, Note_on_c, 9, 42, 95
7, 93000, Note_on_c, 9, 36, 95
7, 93120, Note_off_c, 9, 42, 80
7, 93120, Note_off_c, 9, 36, 80
7, 93120, Note_on_c, 9, 42, 95
7, 93120, Note_on_c, 9, 36, 95
7, 93360, Note_off_c, 9, 42, 80
7, 93360, Note_off_c, 9, 36, 80
7, 93360, Note_on_c, 9, 42, 95
7, 93360, Note_on_c, 9, 36, 95
7, 93600, Note_off_c, 9, 42, 80
7, 93600, Note_off_c, 9, 36, 80
7, 93600, Note_on_c, 9, 42, 95
7, 93600, Note_on_c, 9, 40, 95
7, 93840, Note_off_c, 9, 42, 80
7, 93840, Note_off_c, 9, 40, 80
7, 93840, Note_on_c, 9, 42, 95
7, 93840, Note_on_c, 9, 36, 95
7, 93960, Note_off_c, 9, 42, 80
7, 93960, Note_off_c, 9, 36, 80
7, 93960, Note_on_c, 9, 42, 95
7, 93960, Note_on_c, 9, 36, 95
7, 94080, Note_off_c, 9, 42, 80
7, 94080, Note_off_c, 9, 36, 80
7, 94080, Note_on_c, 9, 42, 95
7, 94080, Note_on_c, 9, 36, 95
7, 94320, Note_off_c, 9, 42, 80
7, 94320, Note_off_c, 9, 36, 80
7, 94320, Note_on_c, 9, 42, 95
7, 94320, Note_on_c, 9, 36, 95
7, 94560, Note_off_c, 9, 42, 80
7, 94560, Note_off_c, 9, 36, 80
7, 94560, Note_on_c, 9, 42, 95
7, 94560, Note_on_c, 9, 40, 95
7, 94800, Note_off_c, 9, 42, 80
7, 94800, Note_off_c, 9, 40, 80
7, 94800, Note_on_c, 9, 42, 95
7, 94800, Note_on_c, 9, 36, 95
7, 94920, Note_off_c, 9, 42, 80
7, 94920, Note_off_c, 9, 36, 80
7, 94920, Note_on_c, 9, 42, 95
7, 94920, Note_on_c, 9, 36, 95
7, 95040, Note_off_c, 9, 42, 80
7, 95040, Note_off_c, 9, 36, 80
7, 95040, Note_on_c, 9, 42, 95
7, 95040, Note_on_c, 9, 40, 95
7, 95160, Note_off_c, 9, 42, 80
7, 95160, Note_off_c, 9, 40, 80
7, 95160, Note_on_c, 9, 42, 95
7, 95280, Note_off_c, 9, 42, 80
7, 95280, Note_on_c, 9, 42, 95
7, 95280, Note_on_c, 9, 40, 95
7, 95280, Note_on_c, 9, 36, 95
7, 95400, Note_off_c, 9, 42, 80
7, 95400, Note_off_c, 9, 40, 80
7, 95400, Note_off_c, 9, 36, 80
7, 95400, Note_on_c, 9, 42, 95
7, 95400, Note_on_c, 9, 40, 95
7, 95400, Note_on_c, 9, 36, 95
7, 95520, Note_off_c, 9, 42, 80
7, 95520, Note_off_c, 9, 40, 80
7, 95520, Note_off_c, 9, 36, 80
7, 95520, Note_on_c, 9, 42, 95
7, 95520, Note_on_c, 9, 40, 95
7, 95640, Note_off_c, 9, 42, 80
7, 95640, Note_off_c, 9, 40, 80
7, 95640, Note_on_c, 9, 42, 95
7, 95760, Note_off_c, 9, 42, 80
7, 95760, Note_on_c, 9, 42, 95
7, 95760, Note_on_c, 9, 40, 95
7, 95760, Note_on_c, 9, 36, 95
7, 95880, Note_off_c, 9, 42, 80
7, 95880, Note_off_c, 9, 40, 80
7, 95880, Note_off_c, 9, 36, 80
7, 95880, Note_on_c, 9, 42, 95
7, 95880, Note_on_c, 9, 40, 95
7, 95880, Note_on_c, 9, 36, 95
7, 96000, Note_off_c, 9, 42, 80
7, 96000, Note_off_c, 9, 40, 80
7, 96000, Note_off_c, 9, 36, 80
7, 96000, Note_on_c, 9, 36, 95
7, 96240, Note_off_c, 9, 36, 80
7, 96240, Note_on_c, 9, 36, 95
7, 96480, Note_off_c, 9, 36, 80
7, 96480, Note_on_c, 9, 40, 111
7, 96960, Note_off_c, 9, 40, 80
7, 96960, Note_on_c, 9, 36, 95
7, 97200, Note_off_c, 9, 36, 80
7, 97200, Note_on_c, 9, 36, 95
7, 97440, Note_off_c, 9, 36, 80
7, 97440, Note_on_c, 9, 40, 111
7, 97920, Note_off_c, 9, 40, 80
7, 97920, Note_on_c, 9, 36, 95
7, 98160, Note_off_c, 9, 36, 80
7, 98160, Note_on_c, 9, 36, 95
7, 98400, Note_off_c, 9, 36, 80
7, 98400, Note_on_c, 9, 40, 111
7, 98880, Note_off_c, 9, 40, 80
7, 98880, Note_on_c, 9, 36, 95
7, 99120, Note_off_c, 9, 36, 80
7, 99120, Note_on_c, 9, 36, 95
7, 99360, Note_off_c, 9, 36, 80
7, 99360, Note_on_c, 9, 40, 111
7, 99840, Note_off_c, 9, 40, 80
7, 99840, Note_on_c, 9, 36, 95
7, 100080, Note_off_c, 9, 36, 80
7, 100080, Note_on_c, 9, 36, 95
7, 100320, Note_off_c, 9, 36, 80
7, 100320, Note_on_c, 9, 40, 111
7, 100800, Note_off_c, 9, 40, 80
7, 100800, Note_on_c, 9, 36, 95
7, 101040, Note_off_c, 9, 36, 80
7, 101040, Note_on_c, 9, 36, 95
7, 101280, Note_off_c, 9, 36, 80
7, 101280, Note_on_c, 9, 40, 111
7, 101760, Note_off_c, 9, 40, 80
7, 101760, Note_on_c, 9, 36, 95
7, 102000, Note_off_c, 9, 36, 80
7, 102000, Note_on_c, 9, 36, 95
7, 102240, Note_off_c, 9, 36, 80
7, 102240, Note_on_c, 9, 40, 111
7, 102720, Note_off_c, 9, 40, 80
7, 102720, Note_on_c, 9, 36, 95
7, 102960, Note_off_c, 9, 36, 80
7, 102960, Note_on_c, 9, 36, 95
7, 103200, Note_off_c, 9, 36, 80
7, 103200, Note_on_c, 9, 40, 111
7, 103680, Note_off_c, 9, 40, 80
7, 103680, Note_on_c, 9, 36, 95
7, 103920, Note_off_c, 9, 36, 80
7, 103920, Note_on_c, 9, 36, 95
7, 104160, Note_off_c, 9, 36, 80
7, 104160, Note_on_c, 9, 40, 111
7, 104640, Note_off_c, 9, 40, 80
7, 104640, Note_on_c, 9, 36, 95
7, 104880, Note_off_c, 9, 36, 80
7, 104880, Note_on_c, 9, 36, 95
7, 105120, Note_off_c, 9, 36, 80
7, 105120, Note_on_c, 9, 40, 111
7, 105600, Note_off_c, 9, 40, 80
7, 105600, Note_on_c, 9, 36, 95
7, 105840, Note_off_c, 9, 36, 80
7, 105840, Note_on_c, 9, 36, 95
7, 106080, Note_off_c, 9, 36, 80
7, 106080, Note_on_c, 9, 40, 111
7, 106560, Note_off_c, 9, 40, 80
7, 106560, Note_on_c, 9, 36, 95
7, 106800, Note_off_c, 9, 36, 80
7, 106800, Note_on_c, 9, 36, 95
7, 107040, Note_off_c, 9, 36, 80
7, 107040, Note_on_c, 9, 42, 95
7, 107040, Note_on_c, 9, 40, 95
7, 107280, Note_off_c, 9, 42, 80
7, 107280, Note_off_c, 9, 40, 80
7, 107280, Note_on_c, 9, 42, 95
7, 107280, Note_on_c, 9, 40, 95
7, 107400, Note_off_c, 9, 42, 80
7, 107400, Note_off_c, 9, 40, 80
7, 107400, Note_on_c, 9, 42, 95
7, 107400, Note_on_c, 9, 40, 111
7, 107520, Note_off_c, 9, 42, 80
7, 107520, Note_off_c, 9, 40, 80
7, 107520, Note_on_c, 9, 42, 95
7, 107520, Note_on_c, 9, 36, 95
7, 107760, Note_off_c, 9, 42, 80
7, 107760, Note_off_c, 9, 36, 80
7, 107760, Note_on_c, 9, 42, 95
7, 107760, Note_on_c, 9, 36, 95
7, 108000, Note_off_c, 9, 42, 80
7, 108000, Note_off_c, 9, 36, 80
7, 108000, Note_on_c, 9, 42, 95
7, 108000, Note_on_c, 9, 40, 95
7, 108240, Note_off_c, 9, 42, 80
7, 108240, Note_off_c, 9, 40, 80
7, 108240, Note_on_c, 9, 42, 95
7, 108360, Note_off_c, 9, 42, 80
7, 108360, Note_on_c, 9, 42, 95
7, 108360, Note_on_c, 9, 36, 95
7, 108480, Note_off_c, 9, 42, 80
7, 108480, Note_off_c, 9, 36, 80
7, 108480, Note_on_c, 9, 42, 95
7, 108480, Note_on_c, 9, 36, 95
7, 108720, Note_off_c, 9, 42, 80
7, 108720, Note_off_c, 9, 36, 80
7, 108720, Note_on_c, 9, 42, 95
7, 108720, Note_on_c, 9, 36, 95
7, 108960, Note_off_c, 9, 42, 80
7, 108960, Note_off_c, 9, 36, 80
7, 108960, Note_on_c, 9, 42, 95
7, 108960, Note_on_c, 9, 40, 95
7, 109200, Note_off_c, 9, 42, 80
7, 109200, Note_off_c, 9, 40, 80
7, 109200, Note_on_c, 9, 42, 95
7, 109320, Note_off_c, 9, 42, 80
7, 109320, Note_on_c, 9, 42, 95
7, 109320, Note_on_c, 9, 36, 95
7, 109440, Note_off_c, 9, 42, 80
7, 109440, Note_off_c, 9, 36, 80
7, 109440, Note_on_c, 9, 42, 95
7, 109440, Note_on_c, 9, 36, 95
7, 109680, Note_off_c, 9, 42, 80
7, 109680, Note_off_c, 9, 36, 80
7, 109680, Note_on_c, 9, 42, 95
7, 109680, Note_on_c, 9, 36, 95
7, 109920, Note_off_c, 9, 42, 80
7, 109920, Note_off_c, 9, 36, 80
7, 109920, Note_on_c, 9, 42, 95
7, 109920, Note_on_c, 9, 40, 95
7, 110160, Note_off_c, 9, 42, 80
7, 110160, Note_off_c, 9, 40, 80
7, 110160, Note_on_c, 9, 42, 95
7, 110280, Note_off_c, 9, 42, 80
7, 110280, Note_on_c, 9, 42, 95
7, 110280, Note_on_c, 9, 36, 95
7, 110400, Note_off_c, 9, 42, 80
7, 110400, Note_off_c, 9, 36, 80
7, 110400, Note_on_c, 9, 42, 95
7, 110400, Note_on_c, 9, 36, 95
7, 110640, Note_off_c, 9, 42, 80
7, 110640, Note_off_c, 9, 36, 80
7, 110640, Note_on_c, 9, 42, 95
7, 110640, Note_on_c, 9, 36, 95
7, 110880, Note_off_c, 9, 42, 80
7, 110880, Note_off_c, 9, 36, 80
7, 110880, Note_on_c, 9, 42, 95
7, 110880, Note_on_c, 9, 40, 95
7, 111120, Note_off_c, 9, 42, 80
7, 111120, Note_off_c, 9, 40, 80
7, 111120, Note_on_c, 9, 42, 95
7, 111120, Note_on_c, 9, 40, 95
7, 111240, Note_off_c, 9, 42, 80
7, 111240, Note_off_c, 9, 40, 80
7, 111240, Note_on_c, 9, 42, 95
7, 111240, Note_on_c, 9, 40, 127
7, 111360, Note_off_c, 9, 42, 80
7, 111360, Note_off_c, 9, 40, 80
7, 111360, Note_on_c, 9, 57, 95
7, 111360, Note_on_c, 9, 55, 95
7, 111360, Note_on_c, 9, 49, 95
7, 111360, Note_on_c, 9, 36, 95
7, 113280, Note_off_c, 9, 57, 80
7, 113280, Note_off_c, 9, 55, 80
7, 113280, Note_off_c, 9, 49, 80
7, 113280, Note_off_c, 9, 36, 80
7, 113280, Note_on_c, 9, 57, 95
7, 113280, Note_on_c, 9, 55, 95
7, 113280, Note_on_c, 9, 49, 95
7, 113280, Note_on_c, 9, 36, 95
7, 113760, Note_off_c, 9, 57, 80
7, 113760, Note_off_c, 9, 55, 80
7, 113760, Note_off_c, 9, 49, 80
7, 113760, Note_off_c, 9, 36, 80
7, 113760, Note_on_c, 9, 57, 95
7, 113760, Note_on_c, 9, 55, 95
7, 113760, Note_on_c, 9, 49, 95
7, 114000, Note_off_c, 9, 57, 80
7, 114000, Note_off_c, 9, 55, 80
7, 114000, Note_off_c, 9, 49, 80
7, 114000, Note_on_c, 9, 57, 95
7, 114000, Note_on_c, 9, 34, 95
7, 114000, Note_on_c, 9, 31, 95
7, 114240, Note_off_c, 9, 57, 80
7, 114240, Note_off_c, 9, 34, 80
7, 114240, Note_off_c, 9, 31, 80
7, 114240, Note_on_c, 9, 34, 95
7, 114240, Note_on_c, 9, 31, 95
7, 114480, Note_off_c, 9, 34, 80
7, 114480, Note_off_c, 9, 31, 80
7, 114480, Note_on_c, 9, 35, 95
7, 114480, Note_on_c, 9, 31, 95
7, 114600, Note_off_c, 9, 35, 80
7, 114600, Note_off_c, 9, 31, 80
7, 114600, Note_on_c, 9, 34, 95
7, 114600, Note_on_c, 9, 31, 95
7, 114720, Note_off_c, 9, 34, 80
7, 114720, Note_off_c, 9, 31, 80
7, 114720, Note_on_c, 9, 34, 95
7, 114720, Note_on_c, 9, 31, 95
7, 114960, Note_off_c, 9, 34, 80
7, 114960, Note_off_c, 9, 31, 80
7, 114960, Note_on_c, 9, 57, 95
7, 114960, Note_on_c, 9, 55, 95
7, 114960, Note_on_c, 9, 49, 95
7, 114960, Note_on_c, 9, 31, 95
7, 115200, Note_off_c, 9, 57, 80
7, 115200, Note_off_c, 9, 55, 80
7, 115200, Note_off_c, 9, 49, 80
7, 115200, Note_off_c, 9, 31, 80
7, 115200, Note_on_c, 9, 42, 95
7, 115200, Note_on_c, 9, 36, 95
7, 115440, Note_off_c, 9, 42, 80
7, 115440, Note_off_c, 9, 36, 80
7, 115440, Note_on_c, 9, 42, 95
7, 115440, Note_on_c, 9, 36, 95
7, 115680, Note_off_c, 9, 42, 80
7, 115680, Note_off_c, 9, 36, 80
7, 115680, Note_on_c, 9, 42, 95
7, 115680, Note_on_c, 9, 40, 95
7, 115920, Note_off_c, 9, 42, 80
7, 115920, Note_off_c, 9, 40, 80
7, 115920, Note_on_c, 9, 42, 95
7, 115920, Note_on_c, 9, 36, 95
7, 116040, Note_off_c, 9, 42, 80
7, 116040, Note_off_c, 9, 36, 80
7, 116040, Note_on_c, 9, 42, 95
7, 116040, Note_on_c, 9, 36, 95
7, 116160, Note_off_c, 9, 42, 80
7, 116160, Note_off_c, 9, 36, 80
7, 116160, Note_on_c, 9, 42, 95
7, 116160, Note_on_c, 9, 36, 95
7, 116400, Note_off_c, 9, 42, 80
7, 116400, Note_off_c, 9, 36, 80
7, 116400, Note_on_c, 9, 42, 95
7, 116400, Note_on_c, 9, 36, 95
7, 116640, Note_off_c, 9, 42, 80
7, 116640, Note_off_c, 9, 36, 80
7, 116640, Note_on_c, 9, 42, 95
7, 116640, Note_on_c, 9, 40, 95
7, 116880, Note_off_c, 9, 42, 80
7, 116880, Note_off_c, 9, 40, 80
7, 116880, Note_on_c, 9, 42, 95
7, 116880, Note_on_c, 9, 36, 95
7, 117000, Note_off_c, 9, 42, 80
7, 117000, Note_off_c, 9, 36, 80
7, 117000, Note_on_c, 9, 42, 95
7, 117000, Note_on_c, 9, 36, 95
7, 117120, Note_off_c, 9, 42, 80
7, 117120, Note_off_c, 9, 36, 80
7, 117120, Note_on_c, 9, 42, 95
7, 117120, Note_on_c, 9, 36, 95
7, 117360, Note_off_c, 9, 42, 80
7, 117360, Note_off_c, 9, 36, 80
7, 117360, Note_on_c, 9, 42, 95
7, 117360, Note_on_c, 9, 36, 95
7, 117600, Note_off_c, 9, 42, 80
7, 117600, Note_off_c, 9, 36, 80
7, 117600, Note_on_c, 9, 42, 95
7, 117600, Note_on_c, 9, 40, 95
7, 117840, Note_off_c, 9, 42, 80
7, 117840, Note_off_c, 9, 40, 80
7, 117840, Note_on_c, 9, 42, 95
7, 117840, Note_on_c, 9, 36, 95
7, 117960, Note_off_c, 9, 42, 80
7, 117960, Note_off_c, 9, 36, 80
7, 117960, Note_on_c, 9, 42, 95
7, 117960, Note_on_c, 9, 36, 95
7, 118080, Note_off_c, 9, 42, 80
7, 118080, Note_off_c, 9, 36, 80
7, 118080, Note_on_c, 9, 42, 95
7, 118080, Note_on_c, 9, 40, 95
7, 118200, Note_off_c, 9, 42, 80
7, 118200, Note_off_c, 9, 40, 80
7, 118200, Note_on_c, 9, 42, 95
7, 118320, Note_off_c, 9, 42, 80
7, 118320, Note_on_c, 9, 42, 95
7, 118320, Note_on_c, 9, 36, 95
7, 118440, Note_off_c, 9, 42, 80
7, 118440, Note_off_c, 9, 36, 80
7, 118440, Note_on_c, 9, 42, 95
7, 118440, Note_on_c, 9, 36, 95
7, 118560, Note_off_c, 9, 42, 80
7, 118560, Note_off_c, 9, 36, 80
7, 118560, Note_on_c, 9, 42, 95
7, 118560, Note_on_c, 9, 40, 95
7, 118680, Note_off_c, 9, 42, 80
7, 118680, Note_off_c, 9, 40, 80
7, 118680, Note_on_c, 9, 42, 95
7, 118800, Note_off_c, 9, 42, 80
7, 118800, Note_on_c, 9, 42, 95
7, 118800, Note_on_c, 9, 40, 95
7, 118800, Note_on_c, 9, 36, 95
7, 118920, Note_off_c, 9, 42, 80
7, 118920, Note_off_c, 9, 40, 80
7, 118920, Note_off_c, 9, 36, 80
7, 118920, Note_on_c, 9, 42, 95
7, 118920, Note_on_c, 9, 40, 95
7, 118920, Note_on_c, 9, 36, 95
7, 119040, Note_off_c, 9, 42, 80
7, 119040, Note_off_c, 9, 40, 80
7, 119040, Note_off_c, 9, 36, 80
7, 119040, Note_on_c, 9, 42, 95
7, 119040, Note_on_c, 9, 36, 95
7, 119280, Note_off_c, 9, 42, 80
7, 119280, Note_off_c, 9, 36, 80
7, 119280, Note_on_c, 9, 42, 95
7, 119280, Note_on_c, 9, 36, 95
7, 119520, Note_off_c, 9, 42, 80
7, 119520, Note_off_c, 9, 36, 80
7, 119520, Note_on_c, 9, 42, 95
7, 119520, Note_on_c, 9, 40, 95
7, 119760, Note_off_c, 9, 42, 80
7, 119760, Note_off_c, 9, 40, 80
7, 119760, Note_on_c, 9, 42, 95
7, 119760, Note_on_c, 9, 36, 95
7, 119880, Note_off_c, 9, 42, 80
7, 119880, Note_off_c, 9, 36, 80
7, 119880, Note_on_c, 9, 42, 95
7, 119880, Note_on_c, 9, 36, 95
7, 120000, Note_off_c, 9, 42, 80
7, 120000, Note_off_c, 9, 36, 80
7, 120000, Note_on_c, 9, 42, 95
7, 120000, Note_on_c, 9, 36, 95
7, 120240, Note_off_c, 9, 42, 80
7, 120240, Note_off_c, 9, 36, 80
7, 120240, Note_on_c, 9, 42, 95
7, 120240, Note_on_c, 9, 36, 95
7, 120480, Note_off_c, 9, 42, 80
7, 120480, Note_off_c, 9, 36, 80
7, 120480, Note_on_c, 9, 42, 95
7, 120480, Note_on_c, 9, 40, 95
7, 120720, Note_off_c, 9, 42, 80
7, 120720, Note_off_c, 9, 40, 80
7, 120720, Note_on_c, 9, 42, 95
7, 120720, Note_on_c, 9, 36, 95
7, 120840, Note_off_c, 9, 42, 80
7, 120840, Note_off_c, 9, 36, 80
7, 120840, Note_on_c, 9, 42, 95
7, 120840, Note_on_c, 9, 36, 95
7, 120960, Note_off_c, 9, 42, 80
7, 120960, Note_off_c, 9, 36, 80
7, 120960, Note_on_c, 9, 42, 95
7, 120960, Note_on_c, 9, 36, 95
7, 121200, Note_off_c, 9, 42, 80
7, 121200, Note_off_c, 9, 36, 80
7, 121200, Note_on_c, 9, 42, 95
7, 121200, Note_on_c, 9, 36, 95
7, 121440, Note_off_c, 9, 42, 80
7, 121440, Note_off_c, 9, 36, 80
7, 121440, Note_on_c, 9, 42, 95
7, 121440, Note_on_c, 9, 40, 95
7, 121680, Note_off_c, 9, 42, 80
7, 121680, Note_off_c, 9, 40, 80
7, 121680, Note_on_c, 9, 42, 95
7, 121680, Note_on_c, 9, 36, 95
7, 121800, Note_off_c, 9, 42, 80
7, 121800, Note_off_c, 9, 36, 80
7, 121800, Note_on_c, 9, 42, 95
7, 121800, Note_on_c, 9, 36, 95
7, 121920, Note_off_c, 9, 42, 80
7, 121920, Note_off_c, 9, 36, 80
7, 121920, Note_on_c, 9, 42, 95
7, 121920, Note_on_c, 9, 40, 95
7, 122040, Note_off_c, 9, 42, 80
7, 122040, Note_off_c, 9, 40, 80
7, 122040, Note_on_c, 9, 42, 95
7, 122160, Note_off_c, 9, 42, 80
7, 122160, Note_on_c, 9, 42, 95
7, 122160, Note_on_c, 9, 40, 95
7, 122160, Note_on_c, 9, 36, 95
7, 122280, Note_off_c, 9, 42, 80
7, 122280, Note_off_c, 9, 40, 80
7, 122280, Note_off_c, 9, 36, 80
7, 122280, Note_on_c, 9, 42, 95
7, 122280, Note_on_c, 9, 40, 95
7, 122280, Note_on_c, 9, 36, 95
7, 122400, Note_off_c, 9, 42, 80
7, 122400, Note_off_c, 9, 40, 80
7, 122400, Note_off_c, 9, 36, 80
7, 122400, Note_on_c, 9, 42, 95
7, 122400, Note_on_c, 9, 40, 95
7, 122520, Note_off_c, 9, 42, 80
7, 122520, Note_off_c, 9, 40, 80
7, 122520, Note_on_c, 9, 42, 95
7, 122640, Note_off_c, 9, 42, 80
7, 122640, Note_on_c, 9, 42, 95
7, 122640, Note_on_c, 9, 40, 95
7, 122640, Note_on_c, 9, 36, 95
7, 122760, Note_off_c, 9, 42, 80
7, 122760, Note_off_c, 9, 40, 80
7, 122760, Note_off_c, 9, 36, 80
7, 122760, Note_on_c, 9, 42, 95
7, 122760, Note_on_c, 9, 40, 95
7, 122760, Note_on_c, 9, 36, 95
7, 122880, Note_off_c, 9, 42, 80
7, 122880, Note_off_c, 9, 40, 80
7, 122880, Note_off_c, 9, 36, 80
7, 122880, Note_on_c, 9, 42, 95
7, 122880, Note_on_c, 9, 36, 95
7, 123120, Note_off_c, 9, 42, 80
7, 123120, Note_off_c, 9, 36, 80
7, 123120, Note_on_c, 9, 42, 95
7, 123120, Note_on_c, 9, 36, 95
7, 123360, Note_off_c, 9, 42, 80
7, 123360, Note_off_c, 9, 36, 80
7, 123360, Note_on_c, 9, 42, 95
7, 123360, Note_on_c, 9, 40, 95
7, 123600, Note_off_c, 9, 42, 80
7, 123600, Note_off_c, 9, 40, 80
7, 123600, Note_on_c, 9, 42, 95
7, 123600, Note_on_c, 9, 36, 95
7, 123720, Note_off_c, 9, 42, 80
7, 123720, Note_off_c, 9, 36, 80
7, 123720, Note_on_c, 9, 42, 95
7, 123720, Note_on_c, 9, 36, 95
7, 123840, Note_off_c, 9, 42, 80
7, 123840, Note_off_c, 9, 36, 80
7, 123840, Note_on_c, 9, 42, 95
7, 123840, Note_on_c, 9, 36, 95
7, 124080, Note_off_c, 9, 42, 80
7, 124080, Note_off_c, 9, 36, 80
7, 124080, Note_on_c, 9, 42, 95
7, 124080, Note_on_c, 9, 36, 95
7, 124320, Note_off_c, 9, 42, 80
7, 124320, Note_off_c, 9, 36, 80
7, 124320, Note_on_c, 9, 42, 95
7, 124320, Note_on_c, 9, 40, 95
7, 124560, Note_off_c, 9, 42, 80
7, 124560, Note_off_c, 9, 40, 80
7, 124560, Note_on_c, 9, 42, 95
7, 124560, Note_on_c, 9, 36, 95
7, 124680, Note_off_c, 9, 42, 80
7, 124680, Note_off_c, 9, 36, 80
7, 124680, Note_on_c, 9, 42, 95
7, 124680, Note_on_c, 9, 36, 95
7, 124800, Note_off_c, 9, 42, 80
7, 124800, Note_off_c, 9, 36, 80
7, 124800, Note_on_c, 9, 42, 95
7, 124800, Note_on_c, 9, 36, 95
7, 125040, Note_off_c, 9, 42, 80
7, 125040, Note_off_c, 9, 36, 80
7, 125040, Note_on_c, 9, 42, 95
7, 125040, Note_on_c, 9, 36, 95
7, 125280, Note_off_c, 9, 42, 80
7, 125280, Note_off_c, 9, 36, 80
7, 125280, Note_on_c, 9, 42, 95
7, 125280, Note_on_c, 9, 40, 95
7, 125520, Note_off_c, 9, 42, 80
7, 125520, Note_off_c, 9, 40, 80
7, 125520, Note_on_c, 9, 42, 95
7, 125520, Note_on_c, 9, 36, 95
7, 125640, Note_off_c, 9, 42, 80
7, 125640, Note_off_c, 9, 36, 80
7, 125640, Note_on_c, 9, 42, 95
7, 125640, Note_on_c, 9, 36, 95
7, 125760, Note_off_c, 9, 42, 80
7, 125760, Note_off_c, 9, 36, 80
7, 125760, Note_on_c, 9, 42, 95
7, 125760, Note_on_c, 9, 40, 95
7, 125880, Note_off_c, 9, 42, 80
7, 125880, Note_off_c, 9, 40, 80
7, 125880, Note_on_c, 9, 42, 95
7, 126000, Note_off_c, 9, 42, 80
7, 126000, Note_on_c, 9, 42, 95
7, 126000, Note_on_c, 9, 36, 95
7, 126120, Note_off_c, 9, 42, 80
7, 126120, Note_off_c, 9, 36, 80
7, 126120, Note_on_c, 9, 42, 95
7, 126120, Note_on_c, 9, 36, 95
7, 126240, Note_off_c, 9, 42, 80
7, 126240, Note_off_c, 9, 36, 80
7, 126240, Note_on_c, 9, 42, 95
7, 126240, Note_on_c, 9, 40, 95
7, 126360, Note_off_c, 9, 42, 80
7, 126360, Note_off_c, 9, 40, 80
7, 126360, Note_on_c, 9, 42, 95
7, 126480, Note_off_c, 9, 42, 80
7, 126480, Note_on_c, 9, 42, 95
7, 126480, Note_on_c, 9, 40, 95
7, 126480, Note_on_c, 9, 36, 95
7, 126600, Note_off_c, 9, 42, 80
7, 126600, Note_off_c, 9, 40, 80
7, 126600, Note_off_c, 9, 36, 80
7, 126600, Note_on_c, 9, 42, 95
7, 126600, Note_on_c, 9, 40, 95
7, 126600, Note_on_c, 9, 36, 95
7, 126720, Note_off_c, 9, 42, 80
7, 126720, Note_off_c, 9, 40, 80
7, 126720, Note_off_c, 9, 36, 80
7, 126720, Note_on_c, 9, 42, 95
7, 126720, Note_on_c, 9, 36, 95
7, 126960, Note_off_c, 9, 42, 80
7, 126960, Note_off_c, 9, 36, 80
7, 126960, Note_on_c, 9, 42, 95
7, 126960, Note_on_c, 9, 36, 95
7, 127200, Note_off_c, 9, 42, 80
7, 127200, Note_off_c, 9, 36, 80
7, 127200, Note_on_c, 9, 42, 95
7, 127200, Note_on_c, 9, 40, 95
7, 127440, Note_off_c, 9, 42, 80
7, 127440, Note_off_c, 9, 40, 80
7, 127440, Note_on_c, 9, 42, 95
7, 127440, Note_on_c, 9, 36, 95
7, 127560, Note_off_c, 9, 42, 80
7, 127560, Note_off_c, 9, 36, 80
7, 127560, Note_on_c, 9, 42, 95
7, 127560, Note_on_c, 9, 36, 95
7, 127680, Note_off_c, 9, 42, 80
7, 127680, Note_off_c, 9, 36, 80
7, 127680, Note_on_c, 9, 42, 95
7, 127680, Note_on_c, 9, 36, 95
7, 127920, Note_off_c, 9, 42, 80
7, 127920, Note_off_c, 9, 36, 80
7, 127920, Note_on_c, 9, 42, 95
7, 127920, Note_on_c, 9, 36, 95
7, 128160, Note_off_c, 9, 42, 80
7, 128160, Note_off_c, 9, 36, 80
7, 128160, Note_on_c, 9, 42, 95
7, 128160, Note_on_c, 9, 40, 95
7, 128400, Note_off_c, 9, 42, 80
7, 128400, Note_off_c, 9, 40, 80
7, 128400, Note_on_c, 9, 42, 95
7, 128400, Note_on_c, 9, 36, 95
7, 128520, Note_off_c, 9, 42, 80
7, 128520, Note_off_c, 9, 36, 80
7, 128520, Note_on_c, 9, 42, 95
7, 128520, Note_on_c, 9, 36, 95
7, 128640, Note_off_c, 9, 42, 80
7, 128640, Note_off_c, 9, 36, 80
7, 128640, Note_on_c, 9, 42, 95
7, 128640, Note_on_c, 9, 36, 95
7, 128880, Note_off_c, 9, 42, 80
7, 128880, Note_off_c, 9, 36, 80
7, 128880, Note_on_c, 9, 42, 95
7, 128880, Note_on_c, 9, 36, 95
7, 129120, Note_off_c, 9, 42, 80
7, 129120, Note_off_c, 9, 36, 80
7, 129120, Note_on_c, 9, 42, 95
7, 129120, Note_on_c, 9, 40, 95
7, 129360, Note_off_c, 9, 42, 80
7, 129360, Note_off_c, 9, 40, 80
7, 129360, Note_on_c, 9, 42, 95
7, 129360, Note_on_c, 9, 36, 95
7, 129480, Note_off_c, 9, 42, 80
7, 129480, Note_off_c, 9, 36, 80
7, 129480, Note_on_c, 9, 42, 95
7, 129480, Note_on_c, 9, 36, 95
7, 129600, Note_off_c, 9, 42, 80
7, 129600, Note_off_c, 9, 36, 80
7, 129600, Note_on_c, 9, 42, 95
7, 129600, Note_on_c, 9, 40, 95
7, 129720, Note_off_c, 9, 42, 80
7, 129720, Note_off_c, 9, 40, 80
7, 129720, Note_on_c, 9, 42, 95
7, 129840, Note_off_c, 9, 42, 80
7, 129840, Note_on_c, 9, 42, 95
7, 129840, Note_on_c, 9, 40, 95
7, 129840, Note_on_c, 9, 36, 95
7, 129960, Note_off_c, 9, 42, 80
7, 129960, Note_off_c, 9, 40, 80
7, 129960, Note_off_c, 9, 36, 80
7, 129960, Note_on_c, 9, 42, 95
7, 129960, Note_on_c, 9, 40, 95
7, 129960, Note_on_c, 9, 36, 95
7, 130080, Note_off_c, 9, 42, 80
7, 130080, Note_off_c, 9, 40, 80
7, 130080, Note_off_c, 9, 36, 80
7, 130080, Note_on_c, 9, 42, 95
7, 130080, Note_on_c, 9, 40, 95
7, 130200, Note_off_c, 9, 42, 80
7, 130200, Note_off_c, 9, 40, 80
7, 130200, Note_on_c, 9, 42, 95
7, 130320, Note_off_c, 9, 42, 80
7, 130320, Note_on_c, 9, 42, 95
7, 130320, Note_on_c, 9, 40, 95
7, 130320, Note_on_c, 9, 36, 95
7, 130440, Note_off_c, 9, 42, 80
7, 130440, Note_off_c, 9, 40, 80
7, 130440, Note_off_c, 9, 36, 80
7, 130440, Note_on_c, 9, 42, 95
7, 130440, Note_on_c, 9, 40, 95
7, 130440, Note_on_c, 9, 36, 95
7, 130560, Note_off_c, 9, 42, 80
7, 130560, Note_off_c, 9, 40, 80
7, 130560, Note_off_c, 9, 36, 80
7, 130560, Note_on_c, 9, 36, 95
7, 130800, Note_off_c, 9, 36, 80
7, 130800, Note_on_c, 9, 36, 95
7, 131040, Note_off_c, 9, 36, 80
7, 131040, Note_on_c, 9, 40, 111
7, 131520, Note_off_c, 9, 40, 80
7, 131520, Note_on_c, 9, 36, 95
7, 131760, Note_off_c, 9, 36, 80
7, 131760, Note_on_c, 9, 36, 95
7, 132000, Note_off_c, 9, 36, 80
7, 132000, Note_on_c, 9, 40, 111
7, 132480, Note_off_c, 9, 40, 80
7, 132480, Note_on_c, 9, 36, 95
7, 132720, Note_off_c, 9, 36, 80
7, 132720, Note_on_c, 9, 36, 95
7, 132960, Note_off_c, 9, 36, 80
7, 132960, Note_on_c, 9, 40, 111
7, 133440, Note_off_c, 9, 40, 80
7, 133440, Note_on_c, 9, 36, 95
7, 133680, Note_off_c, 9, 36, 80
7, 133680, Note_on_c, 9, 36, 95
7, 133920, Note_off_c, 9, 36, 80
7, 133920, Note_on_c, 9, 40, 111
7, 134400, Note_off_c, 9, 40, 80
7, 134400, Note_on_c, 9, 36, 95
7, 134640, Note_off_c, 9, 36, 80
7, 134640, Note_on_c, 9, 36, 95
7, 134880, Note_off_c, 9, 36, 80
7, 134880, Note_on_c, 9, 40, 111
7, 135360, Note_off_c, 9, 40, 80
7, 135360, Note_on_c, 9, 36, 95
7, 135600, Note_off_c, 9, 36, 80
7, 135600, Note_on_c, 9, 36, 95
7, 135840, Note_off_c, 9, 36, 80
7, 135840, Note_on_c, 9, 40, 111
7, 136320, Note_off_c, 9, 40, 80
7, 136320, Note_on_c, 9, 36, 95
7, 136560, Note_off_c, 9, 36, 80
7, 136560, Note_on_c, 9, 36, 95
7, 136800, Note_off_c, 9, 36, 80
7, 136800, Note_on_c, 9, 40, 111
7, 137280, Note_off_c, 9, 40, 80
7, 137280, Note_on_c, 9, 36, 95
7, 137520, Note_off_c, 9, 36, 80
7, 137520, Note_on_c, 9, 36, 95
7, 137760, Note_off_c, 9, 36, 80
7, 137760, Note_on_c, 9, 40, 111
7, 138240, Note_off_c, 9, 40, 80
7, 138240, Note_on_c, 9, 36, 95
7, 138480, Note_off_c, 9, 36, 80
7, 138480, Note_on_c, 9, 36, 95
7, 138720, Note_off_c, 9, 36, 80
7, 138720, Note_on_c, 9, 40, 111
7, 139200, Note_off_c, 9, 40, 80
7, 139200, Note_on_c, 9, 36, 95
7, 139440, Note_off_c, 9, 36, 80
7, 139440, Note_on_c, 9, 36, 95
7, 139680, Note_off_c, 9, 36, 80
7, 139680, Note_on_c, 9, 40, 111
7, 140160, Note_off_c, 9, 40, 80
7, 140160, Note_on_c, 9, 36, 95
7, 140400, Note_off_c, 9, 36, 80
7, 140400, Note_on_c, 9, 36, 95
7, 140640, Note_off_c, 9, 36, 80
7, 140640, End_track
0, 0, End_of_file
