0, 0, Header, 1, 22, 192
1, 0, Start_track
1, 0, Time_signature, 4, 2, 24, 8
1, 0, Tempo, 500000
1, 262143, End_track
2, 0, Start_track
2, 0, Text_t, "MIDI"
2, 0, End_track
3, 0, Start_track
3, 0, Text_t, "MIDI"
3, 0, End_track
4, 0, Start_track
4, 0, Text_t, "MIDI"
4, 0, End_track
5, 0, Start_track
5, 0, Text_t, "MIDI"
5, 0, End_track
6, 0, Start_track
6, 0, Text_t, "MIDI"
6, 0, End_track
7, 0, Start_track
7, 0, Text_t, "MIDI"
7, 0, End_track
8, 0, Start_track
8, 0, Text_t, "MIDI"
8, 0, End_track
9, 0, Start_track
9, 0, Text_t, "MIDI"
9, 0, End_track
10, 0, Start_track
10, 0, Text_t, "MIDI"
10, 0, End_track
11, 0, Start_track
11, 0, Text_t, "MIDI"
11, 0, End_track
12, 0, Start_track
12, 0, Text_t, "MIDI"
12, 0, End_track
13, 0, Start_track
13, 0, Text_t, "MIDI"
13, 0, End_track
14, 0, Start_track
14, 0, Text_t, "MIDI"
14, 0, End_track
15, 0, Start_track
15, 0, Text_t, "MIDI"
15, 0, End_track
16, 0, Start_track
16, 0, Text_t, "MIDI"
16, 0, Program_c, 1, 77
16, 0, Control_c, 1, 7, 127
16, 0, Control_c, 1, 10, 64
16, 0, Pitch_bend_c, 1, 8192
16, 0, Control_c, 1, 64, 0
16, 192, Control_c, 1, 7, 127
16, 5952, Note_on_c, 1, 64, 79
16, 6016, Note_off_c, 1, 64, 79
16, 6048, Note_on_c, 1, 69, 79
16, 6272, Note_off_c, 1, 69, 79
16, 6432, Note_on_c, 1, 71, 79
16, 6592, Note_off_c, 1, 71, 79
16, 6624, Note_on_c, 1, 72, 79
16, 6784, Note_off_c, 1, 72, 79
16, 6816, Note_on_c, 1, 69, 79
16, 7040, Note_off_c, 1, 69, 79
16, 7296, Note_on_c, 1, 71, 79
16, 7360, Note_off_c, 1, 71, 79
16, 7392, Note_on_c, 1, 72, 79
16, 7552, Note_off_c, 1, 72, 79
16, 7584, Note_on_c, 1, 69, 79
16, 7808, Note_off_c, 1, 69, 79
16, 7968, Note_on_c, 1, 71, 79
16, 8128, Note_off_c, 1, 71, 79
16, 8160, Note_on_c, 1, 72, 79
16, 8320, Note_off_c, 1, 72, 79
16, 8352, Note_on_c, 1, 74, 79
16, 8416, Note_off_c, 1, 74, 79
16, 8448, Note_on_c, 1, 72, 79
16, 8576, Note_off_c, 1, 72, 79
16, 9408, Note_on_c, 1, 76, 79
16, 9536, Note_off_c, 1, 76, 79
16, 9600, Note_on_c, 1, 72, 79
16, 9696, Note_off_c, 1, 72, 79
16, 9696, Note_on_c, 1, 71, 79
16, 9760, Note_off_c, 1, 71, 79
16, 9792, Note_on_c, 1, 69, 79
16, 9856, Note_off_c, 1, 69, 79
16, 9888, Note_on_c, 1, 71, 79
16, 10112, Note_off_c, 1, 71, 79
16, 10272, Note_on_c, 1, 69, 79
16, 10432, Note_off_c, 1, 69, 79
16, 10464, Note_on_c, 1, 67, 79
16, 10624, Note_off_c, 1, 67, 79
16, 10656, Note_on_c, 1, 69, 79
16, 10704, Note_off_c, 1, 69, 79
16, 10704, Note_on_c, 1, 71, 79
16, 10752, Note_off_c, 1, 71, 79
16, 10752, Note_on_c, 1, 69, 79
16, 11004, Note_off_c, 1, 69, 79
16, 12096, Note_on_c, 1, 64, 79
16, 12160, Note_off_c, 1, 64, 79
16, 12192, Note_on_c, 1, 69, 79
16, 12192, Note_on_c, 1, 72, 79
16, 12416, Note_off_c, 1, 72, 79
16, 12416, Note_off_c, 1, 69, 79
16, 12576, Note_on_c, 1, 71, 79
16, 12576, Note_on_c, 1, 74, 79
16, 12736, Note_off_c, 1, 74, 79
16, 12736, Note_off_c, 1, 71, 79
16, 12768, Note_on_c, 1, 72, 79
16, 12768, Note_on_c, 1, 76, 79
16, 12928, Note_off_c, 1, 76, 79
16, 12928, Note_off_c, 1, 72, 79
16, 12960, Note_on_c, 1, 69, 79
16, 12960, Note_on_c, 1, 72, 79
16, 13184, Note_off_c, 1, 72, 79
16, 13184, Note_off_c, 1, 69, 79
16, 13344, Note_on_c, 1, 71, 79
16, 13344, Note_on_c, 1, 74, 79
16, 13504, Note_off_c, 1, 74, 79
16, 13504, Note_off_c, 1, 71, 79
16, 13536, Note_on_c, 1, 72, 79
16, 13536, Note_on_c, 1, 76, 79
16, 13696, Note_off_c, 1, 76, 79
16, 13696, Note_off_c, 1, 72, 79
16, 13728, Note_on_c, 1, 69, 79
16, 13728, Note_on_c, 1, 72, 79
16, 14016, Note_off_c, 1, 72, 79
16, 14016, Note_off_c, 1, 69, 79
16, 14112, Note_on_c, 1, 71, 79
16, 14112, Note_on_c, 1, 74, 79
16, 14272, Note_off_c, 1, 74, 79
16, 14272, Note_off_c, 1, 71, 79
16, 14304, Note_on_c, 1, 72, 79
16, 14304, Note_on_c, 1, 76, 79
16, 14464, Note_off_c, 1, 76, 79
16, 14464, Note_off_c, 1, 72, 79
16, 14496, Note_on_c, 1, 74, 79
16, 14496, Note_on_c, 1, 77, 79
16, 14624, Note_off_c, 1, 77, 79
16, 14624, Note_off_c, 1, 74, 79
16, 14640, Note_on_c, 1, 72, 79
16, 14640, Note_on_c, 1, 76, 79
16, 14736, Note_off_c, 1, 76, 79
16, 14736, Note_off_c, 1, 72, 79
16, 15552, Note_on_c, 1, 76, 79
16, 15680, Note_off_c, 1, 76, 79
16, 15744, Note_on_c, 1, 72, 79
16, 15840, Note_off_c, 1, 72, 79
16, 15840, Note_on_c, 1, 71, 79
16, 15904, Note_off_c, 1, 71, 79
16, 15936, Note_on_c, 1, 69, 79
16, 16000, Note_off_c, 1, 69, 79
16, 16032, Note_on_c, 1, 71, 79
16, 16320, Note_off_c, 1, 71, 79
16, 16416, Note_on_c, 1, 69, 79
16, 16576, Note_off_c, 1, 69, 79
16, 16608, Note_on_c, 1, 67, 79
16, 16768, Note_off_c, 1, 67, 79
16, 16800, Note_on_c, 1, 72, 79
16, 17148, Note_off_c, 1, 72, 79
16, 18720, Note_on_c, 1, 73, 79
16, 18784, Note_off_c, 1, 73, 79
16, 18816, Note_on_c, 1, 71, 79
16, 18880, Note_off_c, 1, 71, 79
16, 18912, Note_on_c, 1, 73, 79
16, 19072, Note_off_c, 1, 73, 79
16, 19104, Note_on_c, 1, 80, 79
16, 19488, Note_off_c, 1, 80, 79
16, 19488, Note_on_c, 1, 78, 79
16, 19680, Note_off_c, 1, 78, 79
16, 19680, Note_on_c, 1, 76, 79
16, 19904, Note_off_c, 1, 76, 79
16, 20256, Note_on_c, 1, 73, 79
16, 20416, Note_off_c, 1, 73, 79
16, 20448, Note_on_c, 1, 71, 79
16, 20512, Note_off_c, 1, 71, 79
16, 20544, Note_on_c, 1, 73, 79
16, 20608, Note_off_c, 1, 73, 79
16, 20640, Note_on_c, 1, 76, 79
16, 20832, Note_on_c, 1, 73, 79
16, 20864, Note_off_c, 1, 76, 79
16, 21056, Note_off_c, 1, 73, 79
16, 21792, Note_on_c, 1, 71, 79
16, 21952, Note_off_c, 1, 71, 79
16, 21984, Note_on_c, 1, 69, 79
16, 22144, Note_off_c, 1, 69, 79
16, 22176, Note_on_c, 1, 71, 79
16, 22240, Note_off_c, 1, 71, 79
16, 22272, Note_on_c, 1, 76, 79
16, 22720, Note_off_c, 1, 76, 79
16, 22752, Note_on_c, 1, 73, 79
16, 22912, Note_off_c, 1, 73, 79
16, 22944, Note_on_c, 1, 71, 79
16, 23292, Note_off_c, 1, 71, 79
16, 24864, Note_on_c, 1, 73, 79
16, 24928, Note_off_c, 1, 73, 79
16, 24960, Note_on_c, 1, 71, 79
16, 25024, Note_off_c, 1, 71, 79
16, 25056, Note_on_c, 1, 73, 79
16, 25216, Note_off_c, 1, 73, 79
16, 25248, Note_on_c, 1, 80, 79
16, 25632, Note_off_c, 1, 80, 79
16, 25632, Note_on_c, 1, 78, 79
16, 25824, Note_off_c, 1, 78, 79
16, 25824, Note_on_c, 1, 76, 79
16, 26048, Note_off_c, 1, 76, 79
16, 26400, Note_on_c, 1, 73, 79
16, 26560, Note_off_c, 1, 73, 79
16, 26592, Note_on_c, 1, 71, 79
16, 26752, Note_off_c, 1, 71, 79
16, 26784, Note_on_c, 1, 73, 79
16, 26848, Note_off_c, 1, 73, 79
16, 26880, Note_on_c, 1, 76, 79
16, 27008, Note_off_c, 1, 76, 79
16, 27072, Note_on_c, 1, 73, 79
16, 27200, Note_off_c, 1, 73, 79
16, 27936, Note_on_c, 1, 71, 79
16, 28096, Note_off_c, 1, 71, 79
16, 28128, Note_on_c, 1, 69, 79
16, 28288, Note_off_c, 1, 69, 79
16, 28320, Note_on_c, 1, 71, 79
16, 28384, Note_off_c, 1, 71, 79
16, 28416, Note_on_c, 1, 76, 79
16, 28864, Note_off_c, 1, 76, 79
16, 28896, Note_on_c, 1, 71, 79
16, 28960, Note_off_c, 1, 71, 79
16, 28992, Note_on_c, 1, 73, 79
16, 29056, Note_off_c, 1, 73, 79
16, 29088, Note_on_c, 1, 71, 79
16, 29312, Note_off_c, 1, 71, 79
16, 30432, Note_on_c, 1, 64, 79
16, 30592, Note_off_c, 1, 64, 79
16, 30624, Note_on_c, 1, 69, 79
16, 30848, Note_off_c, 1, 69, 79
16, 31008, Note_on_c, 1, 71, 79
16, 31008, Note_on_c, 1, 74, 79
16, 31168, Note_off_c, 1, 74, 79
16, 31168, Note_off_c, 1, 71, 79
16, 31200, Note_on_c, 1, 72, 79
16, 31200, Note_on_c, 1, 76, 79
16, 31360, Note_off_c, 1, 76, 79
16, 31360, Note_off_c, 1, 72, 79
16, 31392, Note_on_c, 1, 69, 79
16, 31392, Note_on_c, 1, 72, 79
16, 31616, Note_off_c, 1, 72, 79
16, 31616, Note_off_c, 1, 69, 79
16, 31776, Note_on_c, 1, 71, 79
16, 31776, Note_on_c, 1, 74, 79
16, 31936, Note_off_c, 1, 74, 79
16, 31936, Note_off_c, 1, 71, 79
16, 31968, Note_on_c, 1, 72, 79
16, 31968, Note_on_c, 1, 76, 79
16, 32128, Note_off_c, 1, 76, 79
16, 32128, Note_off_c, 1, 72, 79
16, 32160, Note_on_c, 1, 69, 79
16, 32160, Note_on_c, 1, 72, 79
16, 32448, Note_off_c, 1, 72, 79
16, 32448, Note_off_c, 1, 69, 79
16, 32544, Note_on_c, 1, 74, 79
16, 32544, Note_on_c, 1, 71, 79
16, 32704, Note_off_c, 1, 71, 79
16, 32704, Note_off_c, 1, 74, 79
16, 32736, Note_on_c, 1, 72, 79
16, 32736, Note_on_c, 1, 76, 79
16, 32896, Note_off_c, 1, 76, 79
16, 32896, Note_off_c, 1, 72, 79
16, 32928, Note_on_c, 1, 74, 79
16, 32928, Note_on_c, 1, 77, 79
16, 33088, Note_off_c, 1, 77, 79
16, 33088, Note_off_c, 1, 74, 79
16, 33120, Note_on_c, 1, 72, 79
16, 33120, Note_on_c, 1, 76, 79
16, 33344, Note_off_c, 1, 76, 79
16, 33344, Note_off_c, 1, 72, 79
16, 33984, Note_on_c, 1, 76, 79
16, 34108, Note_off_c, 1, 76, 79
16, 34176, Note_on_c, 1, 72, 79
16, 34272, Note_off_c, 1, 72, 79
16, 34272, Note_on_c, 1, 71, 79
16, 34336, Note_off_c, 1, 71, 79
16, 34368, Note_on_c, 1, 69, 79
16, 34432, Note_off_c, 1, 69, 79
16, 34464, Note_on_c, 1, 71, 79
16, 34688, Note_off_c, 1, 71, 79
16, 34848, Note_on_c, 1, 69, 79
16, 35008, Note_off_c, 1, 69, 79
16, 35040, Note_on_c, 1, 67, 79
16, 35200, Note_off_c, 1, 67, 79
16, 35232, Note_on_c, 1, 69, 79
16, 35280, Note_off_c, 1, 69, 79
16, 35280, Note_on_c, 1, 71, 79
16, 35328, Note_off_c, 1, 71, 79
16, 35328, Note_on_c, 1, 69, 79
16, 35580, Note_off_c, 1, 69, 79
16, 36672, Note_on_c, 1, 64, 79
16, 36736, Note_off_c, 1, 64, 79
16, 36768, Note_on_c, 1, 69, 79
16, 36768, Note_on_c, 1, 72, 79
16, 37056, Note_off_c, 1, 72, 79
16, 37056, Note_off_c, 1, 69, 79
16, 37152, Note_on_c, 1, 71, 79
16, 37152, Note_on_c, 1, 74, 79
16, 37312, Note_off_c, 1, 74, 79
16, 37312, Note_off_c, 1, 71, 79
16, 37344, Note_on_c, 1, 72, 79
16, 37344, Note_on_c, 1, 76, 79
16, 37504, Note_off_c, 1, 76, 79
16, 37504, Note_off_c, 1, 72, 79
16, 37536, Note_on_c, 1, 69, 79
16, 37536, Note_on_c, 1, 72, 79
16, 37760, Note_off_c, 1, 72, 79
16, 37760, Note_off_c, 1, 69, 79
16, 38016, Note_on_c, 1, 71, 79
16, 38016, Note_on_c, 1, 74, 79
16, 38080, Note_off_c, 1, 74, 79
16, 38080, Note_off_c, 1, 71, 79
16, 38112, Note_on_c, 1, 72, 79
16, 38112, Note_on_c, 1, 76, 79
16, 38272, Note_off_c, 1, 76, 79
16, 38272, Note_off_c, 1, 72, 79
16, 38304, Note_on_c, 1, 69, 79
16, 38304, Note_on_c, 1, 72, 79
16, 38592, Note_off_c, 1, 72, 79
16, 38592, Note_off_c, 1, 69, 79
16, 38688, Note_on_c, 1, 71, 79
16, 38688, Note_on_c, 1, 74, 79
16, 38848, Note_off_c, 1, 74, 79
16, 38848, Note_off_c, 1, 71, 79
16, 38880, Note_on_c, 1, 72, 79
16, 38880, Note_on_c, 1, 76, 79
16, 39040, Note_off_c, 1, 76, 79
16, 39040, Note_off_c, 1, 72, 79
16, 39072, Note_on_c, 1, 74, 79
16, 39072, Note_on_c, 1, 77, 79
16, 39232, Note_off_c, 1, 77, 79
16, 39232, Note_off_c, 1, 74, 79
16, 39264, Note_on_c, 1, 72, 79
16, 39264, Note_on_c, 1, 76, 79
16, 39488, Note_off_c, 1, 76, 79
16, 39488, Note_off_c, 1, 72, 79
16, 40128, Note_on_c, 1, 74, 79
16, 40224, Note_off_c, 1, 74, 79
16, 40224, Note_on_c, 1, 76, 79
16, 40288, Note_off_c, 1, 76, 79
16, 40320, Note_on_c, 1, 72, 79
16, 40416, Note_off_c, 1, 72, 79
16, 40416, Note_on_c, 1, 71, 79
16, 40480, Note_off_c, 1, 71, 79
16, 40512, Note_on_c, 1, 69, 79
16, 40576, Note_off_c, 1, 69, 79
16, 40608, Note_on_c, 1, 71, 79
16, 40896, Note_off_c, 1, 71, 79
16, 40992, Note_on_c, 1, 69, 79
16, 41152, Note_off_c, 1, 69, 79
16, 41184, Note_on_c, 1, 67, 79
16, 41344, Note_off_c, 1, 67, 79
16, 41376, Note_on_c, 1, 72, 79
16, 41724, Note_off_c, 1, 72, 79
16, 42144, Note_on_c, 1, 74, 79
16, 42240, Note_off_c, 1, 74, 79
16, 42240, Note_on_c, 1, 76, 79
16, 42528, Note_off_c, 1, 76, 79
16, 42528, Note_on_c, 1, 74, 79
16, 42720, Note_off_c, 1, 74, 79
16, 42720, Note_on_c, 1, 72, 79
16, 42912, Note_off_c, 1, 72, 79
16, 42912, Note_on_c, 1, 71, 79
16, 42976, Note_off_c, 1, 71, 79
16, 55584, Note_on_c, 1, 73, 79
16, 55768, Note_off_c, 1, 73, 79
16, 55808, Note_on_c, 1, 71, 79
16, 55896, Note_off_c, 1, 71, 79
16, 55936, Note_on_c, 1, 73, 79
16, 56064, Note_off_c, 1, 73, 79
16, 56064, Note_on_c, 1, 80, 79
16, 56352, Note_off_c, 1, 80, 79
16, 56352, Note_on_c, 1, 78, 79
16, 56544, Note_off_c, 1, 78, 79
16, 56544, Note_on_c, 1, 76, 79
16, 56768, Note_off_c, 1, 76, 79
16, 57120, Note_on_c, 1, 73, 79
16, 57280, Note_off_c, 1, 73, 79
16, 57312, Note_on_c, 1, 71, 79
16, 57376, Note_off_c, 1, 71, 79
16, 57408, Note_on_c, 1, 73, 79
16, 57536, Note_off_c, 1, 73, 79
16, 57600, Note_on_c, 1, 76, 79
16, 57696, Note_on_c, 1, 73, 79
16, 57728, Note_off_c, 1, 76, 79
16, 57920, Note_off_c, 1, 73, 79
16, 58656, Note_on_c, 1, 71, 79
16, 58816, Note_off_c, 1, 71, 79
16, 58848, Note_on_c, 1, 69, 79
16, 59008, Note_off_c, 1, 69, 79
16, 59040, Note_on_c, 1, 71, 79
16, 59104, Note_off_c, 1, 71, 79
16, 59136, Note_on_c, 1, 76, 79
16, 59328, Note_off_c, 1, 76, 79
16, 59424, Note_on_c, 1, 73, 79
16, 59648, Note_off_c, 1, 73, 79
16, 59712, Note_on_c, 1, 73, 79
16, 59904, Note_off_c, 1, 73, 79
16, 59904, Note_on_c, 1, 71, 79
16, 60156, Note_off_c, 1, 71, 79
16, 61728, Note_on_c, 1, 73, 79
16, 61792, Note_off_c, 1, 73, 79
16, 61824, Note_on_c, 1, 71, 79
16, 61888, Note_off_c, 1, 71, 79
16, 61920, Note_on_c, 1, 73, 79
16, 62080, Note_off_c, 1, 73, 79
16, 62112, Note_on_c, 1, 80, 79
16, 62496, Note_off_c, 1, 80, 79
16, 62496, Note_on_c, 1, 78, 79
16, 62688, Note_off_c, 1, 78, 79
16, 62688, Note_on_c, 1, 76, 79
16, 62912, Note_off_c, 1, 76, 79
16, 63264, Note_on_c, 1, 73, 79
16, 63424, Note_off_c, 1, 73, 79
16, 63456, Note_on_c, 1, 71, 79
16, 63616, Note_off_c, 1, 71, 79
16, 63648, Note_on_c, 1, 73, 79
16, 63712, Note_off_c, 1, 73, 79
16, 63744, Note_on_c, 1, 76, 79
16, 63872, Note_off_c, 1, 76, 79
16, 63936, Note_on_c, 1, 73, 79
16, 64064, Note_off_c, 1, 73, 79
16, 64800, Note_on_c, 1, 71, 79
16, 64960, Note_off_c, 1, 71, 79
16, 64992, Note_on_c, 1, 69, 79
16, 65152, Note_off_c, 1, 69, 79
16, 65184, Note_on_c, 1, 71, 79
16, 65248, Note_off_c, 1, 71, 79
16, 65280, Note_on_c, 1, 76, 79
16, 65472, Note_off_c, 1, 76, 79
16, 65568, Note_on_c, 1, 73, 79
16, 65792, Note_off_c, 1, 73, 79
16, 65856, Note_on_c, 1, 71, 79
16, 65904, Note_off_c, 1, 71, 79
16, 65904, Note_on_c, 1, 73, 79
16, 65952, Note_off_c, 1, 73, 79
16, 65952, Note_on_c, 1, 71, 79
16, 66176, Note_off_c, 1, 71, 79
16, 67296, Note_on_c, 1, 64, 79
16, 67456, Note_off_c, 1, 64, 79
16, 67488, Note_on_c, 1, 69, 79
16, 67584, Note_off_c, 1, 69, 79
16, 67584, Note_on_c, 1, 69, 79
16, 67712, Note_off_c, 1, 69, 79
16, 67872, Note_on_c, 1, 71, 79
16, 67872, Note_on_c, 1, 74, 79
16, 68032, Note_off_c, 1, 74, 79
16, 68032, Note_off_c, 1, 71, 79
16, 68064, Note_on_c, 1, 72, 79
16, 68064, Note_on_c, 1, 76, 79
16, 68224, Note_off_c, 1, 76, 79
16, 68224, Note_off_c, 1, 72, 79
16, 68256, Note_on_c, 1, 69, 79
16, 68256, Note_on_c, 1, 72, 79
16, 68480, Note_off_c, 1, 72, 79
16, 68480, Note_off_c, 1, 69, 79
16, 68640, Note_on_c, 1, 71, 79
16, 68640, Note_on_c, 1, 74, 79
16, 68800, Note_off_c, 1, 74, 79
16, 68800, Note_off_c, 1, 71, 79
16, 68832, Note_on_c, 1, 72, 79
16, 68832, Note_on_c, 1, 76, 79
16, 68992, Note_off_c, 1, 76, 79
16, 68992, Note_off_c, 1, 72, 79
16, 69024, Note_on_c, 1, 69, 79
16, 69024, Note_on_c, 1, 72, 79
16, 69312, Note_off_c, 1, 72, 79
16, 69312, Note_off_c, 1, 69, 79
16, 69408, Note_on_c, 1, 74, 79
16, 69408, Note_on_c, 1, 71, 79
16, 69568, Note_off_c, 1, 71, 79
16, 69568, Note_off_c, 1, 74, 79
16, 69600, Note_on_c, 1, 72, 79
16, 69600, Note_on_c, 1, 76, 79
16, 69760, Note_off_c, 1, 76, 79
16, 69760, Note_off_c, 1, 72, 79
16, 69792, Note_on_c, 1, 74, 79
16, 69792, Note_on_c, 1, 77, 79
16, 69952, Note_off_c, 1, 77, 79
16, 69952, Note_off_c, 1, 74, 79
16, 69984, Note_on_c, 1, 72, 79
16, 69984, Note_on_c, 1, 76, 79
16, 70208, Note_off_c, 1, 76, 79
16, 70208, Note_off_c, 1, 72, 79
16, 70848, Note_on_c, 1, 76, 79
16, 70972, Note_off_c, 1, 76, 79
16, 71040, Note_on_c, 1, 72, 79
16, 71136, Note_off_c, 1, 72, 79
16, 71136, Note_on_c, 1, 71, 79
16, 71200, Note_off_c, 1, 71, 79
16, 71232, Note_on_c, 1, 69, 79
16, 71296, Note_off_c, 1, 69, 79
16, 71328, Note_on_c, 1, 71, 79
16, 71552, Note_off_c, 1, 71, 79
16, 71712, Note_on_c, 1, 69, 79
16, 71872, Note_off_c, 1, 69, 79
16, 71904, Note_on_c, 1, 67, 79
16, 72064, Note_off_c, 1, 67, 79
16, 72096, Note_on_c, 1, 69, 79
16, 72144, Note_off_c, 1, 69, 79
16, 72144, Note_on_c, 1, 71, 79
16, 72192, Note_off_c, 1, 71, 79
16, 72192, Note_on_c, 1, 69, 79
16, 72444, Note_off_c, 1, 69, 79
16, 73536, Note_on_c, 1, 64, 79
16, 73600, Note_off_c, 1, 64, 79
16, 73632, Note_on_c, 1, 69, 79
16, 73856, Note_off_c, 1, 69, 79
16, 73920, Note_on_c, 1, 72, 79
16, 73984, Note_off_c, 1, 72, 79
16, 74016, Note_on_c, 1, 71, 79
16, 74016, Note_on_c, 1, 74, 79
16, 74176, Note_off_c, 1, 74, 79
16, 74176, Note_off_c, 1, 71, 79
16, 74208, Note_on_c, 1, 72, 79
16, 74208, Note_on_c, 1, 76, 79
16, 74368, Note_off_c, 1, 76, 79
16, 74368, Note_off_c, 1, 72, 79
16, 74400, Note_on_c, 1, 69, 79
16, 74400, Note_on_c, 1, 72, 79
16, 74624, Note_off_c, 1, 72, 79
16, 74624, Note_off_c, 1, 69, 79
16, 76992, Note_on_c, 1, 76, 79
16, 76992, Note_on_c, 1, 81, 79
16, 77120, Note_off_c, 1, 81, 79
16, 77120, Note_off_c, 1, 76, 79
16, 77184, Note_on_c, 1, 72, 79
16, 77184, Note_on_c, 1, 76, 79
16, 77280, Note_off_c, 1, 76, 79
16, 77280, Note_off_c, 1, 72, 79
16, 77280, Note_on_c, 1, 71, 79
16, 77280, Note_on_c, 1, 74, 79
16, 77344, Note_off_c, 1, 74, 79
16, 77344, Note_off_c, 1, 71, 79
16, 77376, Note_on_c, 1, 69, 79
16, 77376, Note_on_c, 1, 72, 79
16, 77440, Note_off_c, 1, 72, 79
16, 77440, Note_off_c, 1, 69, 79
16, 77472, Note_on_c, 1, 71, 79
16, 77472, Note_on_c, 1, 74, 79
16, 77760, Note_off_c, 1, 74, 79
16, 77760, Note_off_c, 1, 71, 79
16, 77856, Note_on_c, 1, 69, 79
16, 77856, Note_on_c, 1, 72, 79
16, 78016, Note_off_c, 1, 72, 79
16, 78016, Note_off_c, 1, 69, 79
16, 78048, Note_on_c, 1, 67, 79
16, 78048, Note_on_c, 1, 71, 79
16, 78208, Note_off_c, 1, 71, 79
16, 78208, Note_off_c, 1, 67, 79
16, 78240, Note_on_c, 1, 72, 79
16, 78240, Note_on_c, 1, 76, 79
16, 79104, Note_off_c, 1, 72, 79
16, 79104, Note_on_c, 1, 80, 79
16, 79872, Note_off_c, 1, 80, 79
16, 79872, Note_off_c, 1, 76, 79
16, 79872, Note_on_c, 1, 81, 79
16, 79872, Note_on_c, 1, 84, 79
16, 81020, Note_off_c, 1, 84, 79
16, 81020, Note_off_c, 1, 81, 79
16, 81312, Note_on_c, 1, 72, 79
16, 81408, Note_off_c, 1, 72, 79
16, 81408, Note_on_c, 1, 74, 79
16, 81696, Note_off_c, 1, 74, 79
16, 81696, Note_on_c, 1, 74, 79
16, 81888, Note_off_c, 1, 74, 79
16, 81888, Note_on_c, 1, 72, 79
16, 81984, Note_on_c, 1, 84, 79
16, 82048, Note_off_c, 1, 72, 79
16, 82080, Note_on_c, 1, 74, 79
16, 82304, Note_off_c, 1, 74, 79
16, 82368, Note_on_c, 1, 76, 79
16, 82492, Note_off_c, 1, 76, 79
16, 82560, Note_on_c, 1, 81, 79
16, 82684, Note_off_c, 1, 81, 79
16, 82752, Note_on_c, 1, 76, 79
16, 82876, Note_off_c, 1, 76, 79
16, 82944, Note_on_c, 1, 74, 79
16, 83192, Note_off_c, 1, 74, 79
16, 83324, Note_off_c, 1, 84, 79
16, 83520, Note_on_c, 1, 74, 79
16, 83616, Note_off_c, 1, 74, 79
16, 83616, Note_on_c, 1, 75, 79
16, 83712, Note_off_c, 1, 75, 79
16, 83712, Note_on_c, 1, 74, 79
16, 83840, Note_off_c, 1, 74, 79
16, 86016, Note_on_c, 1, 81, 79
16, 86016, Note_on_c, 1, 75, 79
16, 86016, Note_on_c, 1, 84, 79
16, 86112, Note_off_c, 1, 75, 79
16, 86112, Note_on_c, 1, 76, 79
16, 86336, Note_off_c, 1, 76, 79
16, 86400, Note_on_c, 1, 75, 79
16, 86496, Note_off_c, 1, 75, 79
16, 86496, Note_on_c, 1, 76, 79
16, 86560, Note_off_c, 1, 76, 79
16, 86688, Note_on_c, 1, 75, 79
16, 86784, Note_off_c, 1, 75, 79
16, 86784, Note_on_c, 1, 76, 79
16, 86912, Note_off_c, 1, 76, 79
16, 87072, Note_on_c, 1, 75, 79
16, 87168, Note_off_c, 1, 75, 79
16, 87168, Note_on_c, 1, 76, 79
16, 87292, Note_off_c, 1, 84, 79
16, 87292, Note_off_c, 1, 81, 79
16, 87296, Note_off_c, 1, 76, 79
16, 87456, Note_on_c, 1, 75, 79
16, 87552, Note_off_c, 1, 75, 79
16, 87552, Note_on_c, 1, 76, 79
16, 87552, Note_on_c, 1, 81, 79
16, 87552, Note_on_c, 1, 84, 79
16, 87680, Note_off_c, 1, 76, 79
16, 87840, Note_on_c, 1, 75, 79
16, 87936, Note_off_c, 1, 75, 79
16, 87936, Note_on_c, 1, 76, 79
16, 88064, Note_off_c, 1, 76, 79
16, 88224, Note_on_c, 1, 75, 79
16, 88320, Note_off_c, 1, 75, 79
16, 88320, Note_on_c, 1, 76, 79
16, 88448, Note_off_c, 1, 76, 79
16, 89596, Note_off_c, 1, 84, 79
16, 89596, Note_off_c, 1, 81, 79
16, 92160, Note_on_c, 1, 81, 79
16, 92448, Note_on_c, 1, 71, 79
16, 92544, Note_off_c, 1, 71, 79
16, 92544, Note_on_c, 1, 72, 79
16, 92640, Note_off_c, 1, 72, 79
16, 92640, Note_on_c, 1, 71, 79
16, 92704, Note_off_c, 1, 71, 79
16, 92832, Note_on_c, 1, 72, 79
16, 93180, Note_off_c, 1, 72, 79
16, 93792, Note_on_c, 1, 72, 79
16, 93888, Note_off_c, 1, 72, 79
16, 93888, Note_on_c, 1, 74, 79
16, 93948, Note_off_c, 1, 81, 79
16, 93984, Note_off_c, 1, 74, 79
16, 93984, Note_on_c, 1, 72, 79
16, 94048, Note_off_c, 1, 72, 79
16, 94080, Note_on_c, 1, 81, 79
16, 94176, Note_off_c, 1, 81, 79
16, 94176, Note_on_c, 1, 75, 79
16, 94272, Note_off_c, 1, 75, 79
16, 94272, Note_on_c, 1, 74, 79
16, 94368, Note_off_c, 1, 74, 79
16, 94368, Note_on_c, 1, 72, 79
16, 94432, Note_off_c, 1, 72, 79
16, 94848, Note_on_c, 1, 76, 79
16, 94944, Note_off_c, 1, 76, 79
16, 94944, Note_on_c, 1, 81, 79
16, 95136, Note_off_c, 1, 81, 79
16, 95136, Note_on_c, 1, 84, 79
16, 95328, Note_on_c, 1, 74, 79
16, 95360, Note_off_c, 1, 84, 79
16, 95424, Note_off_c, 1, 74, 79
16, 95424, Note_on_c, 1, 76, 79
16, 95520, Note_off_c, 1, 76, 79
16, 95520, Note_on_c, 1, 74, 79
16, 95584, Note_off_c, 1, 74, 79
16, 95712, Note_on_c, 1, 74, 79
16, 95808, Note_off_c, 1, 74, 79
16, 95808, Note_on_c, 1, 76, 79
16, 95904, Note_off_c, 1, 76, 79
16, 95904, Note_on_c, 1, 74, 79
16, 95968, Note_off_c, 1, 74, 79
16, 96768, Control_c, 1, 7, 127
16, 96840, Control_c, 1, 7, 126
16, 96888, Control_c, 1, 7, 125
16, 96936, Control_c, 1, 7, 124
16, 97008, Control_c, 1, 7, 123
16, 97056, Control_c, 1, 7, 122
16, 97104, Control_c, 1, 7, 121
16, 97152, Control_c, 1, 7, 120
16, 97224, Control_c, 1, 7, 119
16, 97272, Control_c, 1, 7, 118
16, 97320, Control_c, 1, 7, 117
16, 97368, Control_c, 1, 7, 116
16, 97440, Control_c, 1, 7, 115
16, 97488, Control_c, 1, 7, 114
16, 97536, Control_c, 1, 7, 113
16, 97608, Control_c, 1, 7, 112
16, 97656, Control_c, 1, 7, 111
16, 97704, Control_c, 1, 7, 110
16, 97752, Control_c, 1, 7, 109
16, 97824, Control_c, 1, 7, 108
16, 97872, Control_c, 1, 7, 107
16, 97920, Control_c, 1, 7, 106
16, 97968, Control_c, 1, 7, 105
16, 98040, Control_c, 1, 7, 104
16, 98088, Control_c, 1, 7, 103
16, 98136, Control_c, 1, 7, 102
16, 98184, Control_c, 1, 7, 101
16, 98256, Control_c, 1, 7, 100
16, 98304, Control_c, 1, 7, 99
16, 98304, Note_on_c, 1, 81, 79
16, 98304, Note_on_c, 1, 84, 79
16, 98352, Control_c, 1, 7, 98
16, 98424, Control_c, 1, 7, 97
16, 98472, Control_c, 1, 7, 96
16, 98496, Note_off_c, 1, 81, 79
16, 98520, Control_c, 1, 7, 95
16, 98568, Control_c, 1, 7, 94
16, 98592, Note_on_c, 1, 81, 79
16, 98640, Control_c, 1, 7, 93
16, 98688, Control_c, 1, 7, 92
16, 98736, Control_c, 1, 7, 91
16, 98784, Control_c, 1, 7, 90
16, 98816, Note_off_c, 1, 81, 79
16, 98856, Control_c, 1, 7, 89
16, 98880, Note_on_c, 1, 81, 79
16, 98904, Control_c, 1, 7, 88
16, 98952, Control_c, 1, 7, 87
16, 99000, Control_c, 1, 7, 86
16, 99072, Control_c, 1, 7, 85
16, 99120, Control_c, 1, 7, 84
16, 99136, Note_off_c, 1, 81, 79
16, 99168, Control_c, 1, 7, 83
16, 99168, Note_on_c, 1, 81, 79
16, 99240, Control_c, 1, 7, 82
16, 99288, Control_c, 1, 7, 81
16, 99336, Control_c, 1, 7, 80
16, 99384, Control_c, 1, 7, 79
16, 99392, Note_off_c, 1, 81, 79
16, 99456, Control_c, 1, 7, 78
16, 99456, Note_on_c, 1, 81, 79
16, 99504, Control_c, 1, 7, 77
16, 99552, Control_c, 1, 7, 76
16, 99580, Note_off_c, 1, 84, 79
16, 99600, Control_c, 1, 7, 75
16, 99648, Note_off_c, 1, 81, 79
16, 99672, Control_c, 1, 7, 74
16, 99720, Control_c, 1, 7, 73
16, 99744, Note_on_c, 1, 81, 79
16, 99768, Control_c, 1, 7, 72
16, 99816, Control_c, 1, 7, 71
16, 99840, Note_on_c, 1, 84, 79
16, 99888, Control_c, 1, 7, 70
16, 99936, Control_c, 1, 7, 69
16, 99968, Note_off_c, 1, 81, 79
16, 99984, Control_c, 1, 7, 68
16, 100032, Note_on_c, 1, 81, 79
16, 100056, Control_c, 1, 7, 67
16, 100104, Control_c, 1, 7, 66
16, 100152, Control_c, 1, 7, 65
16, 100200, Control_c, 1, 7, 64
16, 100272, Control_c, 1, 7, 63
16, 100288, Note_off_c, 1, 81, 79
16, 100320, Control_c, 1, 7, 62
16, 100320, Note_on_c, 1, 81, 79
16, 100368, Control_c, 1, 7, 61
16, 100416, Control_c, 1, 7, 60
16, 100488, Control_c, 1, 7, 59
16, 100536, Control_c, 1, 7, 58
16, 100544, Note_off_c, 1, 81, 79
16, 100584, Control_c, 1, 7, 57
16, 100656, Control_c, 1, 7, 56
16, 100704, Control_c, 1, 7, 55
16, 100752, Control_c, 1, 7, 54
16, 100800, Control_c, 1, 7, 53
16, 100872, Control_c, 1, 7, 52
16, 100920, Control_c, 1, 7, 51
16, 100968, Control_c, 1, 7, 50
16, 101016, Control_c, 1, 7, 49
16, 101088, Control_c, 1, 7, 48
16, 101116, Note_off_c, 1, 84, 79
16, 101136, Control_c, 1, 7, 47
16, 101184, Control_c, 1, 7, 46
16, 101232, Control_c, 1, 7, 45
16, 101304, Control_c, 1, 7, 44
16, 101352, Control_c, 1, 7, 43
16, 101400, Control_c, 1, 7, 42
16, 101472, Control_c, 1, 7, 41
16, 101520, Control_c, 1, 7, 40
16, 101568, Control_c, 1, 7, 39
16, 101616, Control_c, 1, 7, 38
16, 101688, Control_c, 1, 7, 37
16, 101736, Control_c, 1, 7, 36
16, 101784, Control_c, 1, 7, 35
16, 101832, Control_c, 1, 7, 34
16, 101904, Control_c, 1, 7, 33
16, 101952, Control_c, 1, 7, 32
16, 102000, Control_c, 1, 7, 31
16, 102048, Control_c, 1, 7, 30
16, 102120, Control_c, 1, 7, 29
16, 102168, Control_c, 1, 7, 28
16, 102216, Control_c, 1, 7, 27
16, 102288, Control_c, 1, 7, 26
16, 102336, Control_c, 1, 7, 25
16, 102384, Control_c, 1, 7, 24
16, 102432, Control_c, 1, 7, 23
16, 102504, Control_c, 1, 7, 22
16, 102552, Control_c, 1, 7, 21
16, 102600, Control_c, 1, 7, 20
16, 102648, Control_c, 1, 7, 19
16, 102720, Control_c, 1, 7, 18
16, 102768, Control_c, 1, 7, 17
16, 102816, Control_c, 1, 7, 16
16, 102864, Control_c, 1, 7, 15
16, 102936, Control_c, 1, 7, 14
16, 102984, Control_c, 1, 7, 13
16, 103032, Control_c, 1, 7, 12
16, 103104, Control_c, 1, 7, 11
16, 103152, Control_c, 1, 7, 10
16, 103200, Control_c, 1, 7, 9
16, 103248, Control_c, 1, 7, 8
16, 103320, Control_c, 1, 7, 7
16, 103368, Control_c, 1, 7, 6
16, 103416, Control_c, 1, 7, 5
16, 103464, Control_c, 1, 7, 4
16, 103536, Control_c, 1, 7, 3
16, 103584, Control_c, 1, 7, 2
16, 103632, Control_c, 1, 7, 1
16, 103632, End_track
17, 0, Start_track
17, 0, Text_t, "MIDI"
17, 0, Program_c, 2, 60
17, 0, Control_c, 2, 7, 96
17, 0, Control_c, 2, 10, 18
17, 0, Control_c, 2, 1, 0
17, 0, Control_c, 2, 64, 0
17, 0, Note_on_c, 2, 60, 79
17, 0, Note_on_c, 2, 64, 79
17, 0, Note_on_c, 2, 69, 79
17, 48, Control_c, 2, 7, 96
17, 128, Note_off_c, 2, 69, 79
17, 128, Note_off_c, 2, 64, 79
17, 128, Note_off_c, 2, 60, 79
17, 192, Note_on_c, 2, 60, 79
17, 192, Note_on_c, 2, 64, 79
17, 192, Note_on_c, 2, 69, 79
17, 320, Note_off_c, 2, 69, 79
17, 320, Note_off_c, 2, 64, 79
17, 320, Note_off_c, 2, 60, 79
17, 384, Note_on_c, 2, 60, 79
17, 384, Note_on_c, 2, 64, 79
17, 384, Note_on_c, 2, 69, 79
17, 448, Note_off_c, 2, 69, 79
17, 448, Note_off_c, 2, 64, 79
17, 448, Note_off_c, 2, 60, 79
17, 480, Note_on_c, 2, 60, 79
17, 480, Note_on_c, 2, 64, 79
17, 480, Note_on_c, 2, 69, 79
17, 544, Note_off_c, 2, 69, 79
17, 544, Note_off_c, 2, 64, 79
17, 544, Note_off_c, 2, 60, 79
17, 576, Note_on_c, 2, 60, 79
17, 576, Note_on_c, 2, 64, 79
17, 576, Note_on_c, 2, 69, 79
17, 640, Note_off_c, 2, 69, 79
17, 640, Note_off_c, 2, 64, 79
17, 640, Note_off_c, 2, 60, 79
17, 672, Note_on_c, 2, 60, 79
17, 672, Note_on_c, 2, 64, 79
17, 672, Note_on_c, 2, 69, 79
17, 736, Note_off_c, 2, 69, 79
17, 736, Note_off_c, 2, 64, 79
17, 736, Note_off_c, 2, 60, 79
17, 768, Note_on_c, 2, 57, 79
17, 768, Note_on_c, 2, 60, 79
17, 768, Note_on_c, 2, 64, 79
17, 768, Note_on_c, 2, 67, 79
17, 896, Note_off_c, 2, 67, 79
17, 896, Note_off_c, 2, 64, 79
17, 896, Note_off_c, 2, 60, 79
17, 896, Note_off_c, 2, 57, 79
17, 960, Note_on_c, 2, 57, 79
17, 960, Note_on_c, 2, 60, 79
17, 960, Note_on_c, 2, 64, 79
17, 960, Note_on_c, 2, 67, 79
17, 1088, Note_off_c, 2, 67, 79
17, 1088, Note_off_c, 2, 64, 79
17, 1088, Note_off_c, 2, 60, 79
17, 1088, Note_off_c, 2, 57, 79
17, 1152, Note_on_c, 2, 57, 79
17, 1152, Note_on_c, 2, 60, 79
17, 1152, Note_on_c, 2, 64, 79
17, 1152, Note_on_c, 2, 67, 79
17, 1216, Note_off_c, 2, 67, 79
17, 1216, Note_off_c, 2, 64, 79
17, 1216, Note_off_c, 2, 60, 79
17, 1216, Note_off_c, 2, 57, 79
17, 1248, Note_on_c, 2, 57, 79
17, 1248, Note_on_c, 2, 60, 79
17, 1248, Note_on_c, 2, 64, 79
17, 1248, Note_on_c, 2, 67, 79
17, 1312, Note_off_c, 2, 67, 79
17, 1312, Note_off_c, 2, 64, 79
17, 1312, Note_off_c, 2, 60, 79
17, 1312, Note_off_c, 2, 57, 79
17, 1344, Note_on_c, 2, 57, 79
17, 1344, Note_on_c, 2, 60, 79
17, 1344, Note_on_c, 2, 64, 79
17, 1344, Note_on_c, 2, 67, 79
17, 1408, Note_off_c, 2, 67, 79
17, 1408, Note_off_c, 2, 64, 79
17, 1408, Note_off_c, 2, 60, 79
17, 1408, Note_off_c, 2, 57, 79
17, 1440, Note_on_c, 2, 57, 79
17, 1440, Note_on_c, 2, 60, 79
17, 1440, Note_on_c, 2, 64, 79
17, 1440, Note_on_c, 2, 67, 79
17, 1504, Note_off_c, 2, 67, 79
17, 1504, Note_off_c, 2, 64, 79
17, 1504, Note_off_c, 2, 60, 79
17, 1504, Note_off_c, 2, 57, 79
17, 1536, Note_on_c, 2, 60, 79
17, 1536, Note_on_c, 2, 62, 79
17, 1536, Note_on_c, 2, 66, 79
17, 1536, Note_on_c, 2, 69, 79
17, 1664, Note_off_c, 2, 69, 79
17, 1664, Note_off_c, 2, 66, 79
17, 1664, Note_off_c, 2, 62, 79
17, 1664, Note_off_c, 2, 60, 79
17, 1728, Note_on_c, 2, 60, 79
17, 1728, Note_on_c, 2, 62, 79
17, 1728, Note_on_c, 2, 66, 79
17, 1728, Note_on_c, 2, 69, 79
17, 1856, Note_off_c, 2, 69, 79
17, 1856, Note_off_c, 2, 66, 79
17, 1856, Note_off_c, 2, 62, 79
17, 1856, Note_off_c, 2, 60, 79
17, 1920, Note_on_c, 2, 60, 79
17, 1920, Note_on_c, 2, 62, 79
17, 1920, Note_on_c, 2, 66, 79
17, 1920, Note_on_c, 2, 69, 79
17, 1984, Note_off_c, 2, 69, 79
17, 1984, Note_off_c, 2, 66, 79
17, 1984, Note_off_c, 2, 62, 79
17, 1984, Note_off_c, 2, 60, 79
17, 2016, Note_on_c, 2, 60, 79
17, 2016, Note_on_c, 2, 62, 79
17, 2016, Note_on_c, 2, 66, 79
17, 2016, Note_on_c, 2, 69, 79
17, 2080, Note_off_c, 2, 69, 79
17, 2080, Note_off_c, 2, 66, 79
17, 2080, Note_off_c, 2, 62, 79
17, 2080, Note_off_c, 2, 60, 79
17, 2112, Note_on_c, 2, 60, 79
17, 2112, Note_on_c, 2, 62, 79
17, 2112, Note_on_c, 2, 66, 79
17, 2112, Note_on_c, 2, 69, 79
17, 2176, Note_off_c, 2, 69, 79
17, 2176, Note_off_c, 2, 66, 79
17, 2176, Note_off_c, 2, 62, 79
17, 2176, Note_off_c, 2, 60, 79
17, 2208, Note_on_c, 2, 60, 79
17, 2208, Note_on_c, 2, 62, 79
17, 2208, Note_on_c, 2, 66, 79
17, 2208, Note_on_c, 2, 69, 79
17, 2272, Note_off_c, 2, 69, 79
17, 2272, Note_off_c, 2, 66, 79
17, 2272, Note_off_c, 2, 62, 79
17, 2272, Note_off_c, 2, 60, 79
17, 2304, Note_on_c, 2, 65, 79
17, 2304, Note_on_c, 2, 69, 79
17, 2304, Note_on_c, 2, 72, 79
17, 2432, Note_off_c, 2, 72, 79
17, 2432, Note_off_c, 2, 69, 79
17, 2432, Note_off_c, 2, 65, 79
17, 2496, Note_on_c, 2, 65, 79
17, 2496, Note_on_c, 2, 69, 79
17, 2496, Note_on_c, 2, 72, 79
17, 2624, Note_off_c, 2, 72, 79
17, 2624, Note_off_c, 2, 69, 79
17, 2624, Note_off_c, 2, 65, 79
17, 2688, Note_on_c, 2, 65, 79
17, 2688, Note_on_c, 2, 69, 79
17, 2688, Note_on_c, 2, 72, 79
17, 2752, Note_off_c, 2, 72, 79
17, 2752, Note_off_c, 2, 69, 79
17, 2752, Note_off_c, 2, 65, 79
17, 2784, Note_on_c, 2, 65, 79
17, 2784, Note_on_c, 2, 69, 79
17, 2784, Note_on_c, 2, 72, 79
17, 2848, Note_off_c, 2, 72, 79
17, 2848, Note_off_c, 2, 69, 79
17, 2848, Note_off_c, 2, 65, 79
17, 2880, Note_on_c, 2, 65, 79
17, 2880, Note_on_c, 2, 69, 79
17, 2880, Note_on_c, 2, 72, 79
17, 2944, Note_off_c, 2, 72, 79
17, 2944, Note_off_c, 2, 69, 79
17, 2944, Note_off_c, 2, 65, 79
17, 2976, Note_on_c, 2, 65, 79
17, 2976, Note_on_c, 2, 69, 79
17, 2976, Note_on_c, 2, 72, 79
17, 3040, Note_off_c, 2, 72, 79
17, 3040, Note_off_c, 2, 69, 79
17, 3040, Note_off_c, 2, 65, 79
17, 3072, Note_on_c, 2, 57, 79
17, 3072, Note_on_c, 2, 60, 79
17, 3072, Note_on_c, 2, 64, 79
17, 3200, Note_off_c, 2, 64, 79
17, 3200, Note_off_c, 2, 60, 79
17, 3200, Note_off_c, 2, 57, 79
17, 3264, Note_on_c, 2, 57, 79
17, 3264, Note_on_c, 2, 60, 79
17, 3264, Note_on_c, 2, 64, 79
17, 3392, Note_off_c, 2, 64, 79
17, 3392, Note_off_c, 2, 60, 79
17, 3392, Note_off_c, 2, 57, 79
17, 3456, Note_on_c, 2, 57, 79
17, 3456, Note_on_c, 2, 60, 79
17, 3456, Note_on_c, 2, 64, 79
17, 3520, Note_off_c, 2, 64, 79
17, 3520, Note_off_c, 2, 60, 79
17, 3520, Note_off_c, 2, 57, 79
17, 3552, Note_on_c, 2, 57, 79
17, 3552, Note_on_c, 2, 60, 79
17, 3552, Note_on_c, 2, 64, 79
17, 3616, Note_off_c, 2, 64, 79
17, 3616, Note_off_c, 2, 60, 79
17, 3616, Note_off_c, 2, 57, 79
17, 3648, Note_on_c, 2, 57, 79
17, 3648, Note_on_c, 2, 60, 79
17, 3648, Note_on_c, 2, 64, 79
17, 3712, Note_off_c, 2, 64, 79
17, 3712, Note_off_c, 2, 60, 79
17, 3712, Note_off_c, 2, 57, 79
17, 3744, Note_on_c, 2, 57, 79
17, 3744, Note_on_c, 2, 60, 79
17, 3744, Note_on_c, 2, 64, 79
17, 3808, Note_off_c, 2, 64, 79
17, 3808, Note_off_c, 2, 60, 79
17, 3808, Note_off_c, 2, 57, 79
17, 3840, Note_on_c, 2, 55, 79
17, 3840, Note_on_c, 2, 59, 79
17, 3840, Note_on_c, 2, 62, 79
17, 3968, Note_off_c, 2, 62, 79
17, 3968, Note_off_c, 2, 59, 79
17, 3968, Note_off_c, 2, 55, 79
17, 4032, Note_on_c, 2, 55, 79
17, 4032, Note_on_c, 2, 59, 79
17, 4032, Note_on_c, 2, 62, 79
17, 4160, Note_off_c, 2, 62, 79
17, 4160, Note_off_c, 2, 59, 79
17, 4160, Note_off_c, 2, 55, 79
17, 4224, Note_on_c, 2, 55, 79
17, 4224, Note_on_c, 2, 59, 79
17, 4224, Note_on_c, 2, 62, 79
17, 4288, Note_off_c, 2, 62, 79
17, 4288, Note_off_c, 2, 59, 79
17, 4288, Note_off_c, 2, 55, 79
17, 4320, Note_on_c, 2, 55, 79
17, 4320, Note_on_c, 2, 59, 79
17, 4320, Note_on_c, 2, 62, 79
17, 4384, Note_off_c, 2, 62, 79
17, 4384, Note_off_c, 2, 59, 79
17, 4384, Note_off_c, 2, 55, 79
17, 4416, Note_on_c, 2, 55, 79
17, 4416, Note_on_c, 2, 59, 79
17, 4416, Note_on_c, 2, 62, 79
17, 4480, Note_off_c, 2, 62, 79
17, 4480, Note_off_c, 2, 59, 79
17, 4480, Note_off_c, 2, 55, 79
17, 4512, Note_on_c, 2, 55, 79
17, 4512, Note_on_c, 2, 59, 79
17, 4512, Note_on_c, 2, 62, 79
17, 4576, Note_off_c, 2, 62, 79
17, 4576, Note_off_c, 2, 59, 79
17, 4576, Note_off_c, 2, 55, 79
17, 4608, Note_on_c, 2, 57, 79
17, 4608, Note_on_c, 2, 62, 79
17, 4608, Note_on_c, 2, 66, 79
17, 4736, Note_off_c, 2, 66, 79
17, 4736, Note_off_c, 2, 62, 79
17, 4736, Note_off_c, 2, 57, 79
17, 4800, Note_on_c, 2, 57, 79
17, 4800, Note_on_c, 2, 62, 79
17, 4800, Note_on_c, 2, 66, 79
17, 4928, Note_off_c, 2, 66, 79
17, 4928, Note_off_c, 2, 62, 79
17, 4928, Note_off_c, 2, 57, 79
17, 4992, Note_on_c, 2, 57, 79
17, 4992, Note_on_c, 2, 62, 79
17, 4992, Note_on_c, 2, 66, 79
17, 5056, Note_off_c, 2, 66, 79
17, 5056, Note_off_c, 2, 62, 79
17, 5056, Note_off_c, 2, 57, 79
17, 5088, Note_on_c, 2, 57, 79
17, 5088, Note_on_c, 2, 62, 79
17, 5088, Note_on_c, 2, 66, 79
17, 5152, Note_off_c, 2, 66, 79
17, 5152, Note_off_c, 2, 62, 79
17, 5152, Note_off_c, 2, 57, 79
17, 5184, Note_on_c, 2, 57, 79
17, 5184, Note_on_c, 2, 62, 79
17, 5184, Note_on_c, 2, 66, 79
17, 5248, Note_off_c, 2, 66, 79
17, 5248, Note_off_c, 2, 62, 79
17, 5248, Note_off_c, 2, 57, 79
17, 5280, Note_on_c, 2, 57, 79
17, 5280, Note_on_c, 2, 62, 79
17, 5280, Note_on_c, 2, 66, 79
17, 5344, Note_off_c, 2, 66, 79
17, 5344, Note_off_c, 2, 62, 79
17, 5344, Note_off_c, 2, 57, 79
17, 5376, Note_on_c, 2, 62, 79
17, 5376, Note_on_c, 2, 64, 79
17, 5376, Note_on_c, 2, 68, 79
17, 5376, Note_on_c, 2, 71, 79
17, 5504, Note_off_c, 2, 71, 79
17, 5504, Note_off_c, 2, 68, 79
17, 5504, Note_off_c, 2, 64, 79
17, 5504, Note_off_c, 2, 62, 79
17, 5568, Note_on_c, 2, 62, 79
17, 5568, Note_on_c, 2, 64, 79
17, 5568, Note_on_c, 2, 68, 79
17, 5568, Note_on_c, 2, 71, 79
17, 5696, Note_off_c, 2, 71, 79
17, 5696, Note_off_c, 2, 68, 79
17, 5696, Note_off_c, 2, 64, 79
17, 5696, Note_off_c, 2, 62, 79
17, 5760, Note_on_c, 2, 62, 79
17, 5760, Note_on_c, 2, 64, 79
17, 5760, Note_on_c, 2, 68, 79
17, 5760, Note_on_c, 2, 71, 79
17, 5824, Note_off_c, 2, 71, 79
17, 5824, Note_off_c, 2, 68, 79
17, 5824, Note_off_c, 2, 64, 79
17, 5824, Note_off_c, 2, 62, 79
17, 5856, Note_on_c, 2, 62, 79
17, 5856, Note_on_c, 2, 64, 79
17, 5856, Note_on_c, 2, 68, 79
17, 5856, Note_on_c, 2, 71, 79
17, 5920, Note_off_c, 2, 71, 79
17, 5920, Note_off_c, 2, 68, 79
17, 5920, Note_off_c, 2, 64, 79
17, 5920, Note_off_c, 2, 62, 79
17, 5952, Note_on_c, 2, 62, 79
17, 5952, Note_on_c, 2, 64, 79
17, 5952, Note_on_c, 2, 68, 79
17, 5952, Note_on_c, 2, 71, 79
17, 6016, Note_off_c, 2, 71, 79
17, 6016, Note_off_c, 2, 68, 79
17, 6016, Note_off_c, 2, 64, 79
17, 6016, Note_off_c, 2, 62, 79
17, 6048, Note_on_c, 2, 62, 79
17, 6048, Note_on_c, 2, 64, 79
17, 6048, Note_on_c, 2, 68, 79
17, 6048, Note_on_c, 2, 71, 79
17, 6112, Note_off_c, 2, 71, 79
17, 6112, Note_off_c, 2, 68, 79
17, 6112, Note_off_c, 2, 64, 79
17, 6112, Note_off_c, 2, 62, 79
17, 6144, Note_on_c, 2, 57, 79
17, 6144, Note_on_c, 2, 60, 79
17, 6144, Note_on_c, 2, 64, 79
17, 6272, Note_off_c, 2, 64, 79
17, 6272, Note_off_c, 2, 60, 79
17, 6272, Note_off_c, 2, 57, 79
17, 6336, Note_on_c, 2, 57, 79
17, 6336, Note_on_c, 2, 60, 79
17, 6336, Note_on_c, 2, 64, 79
17, 6464, Note_off_c, 2, 64, 79
17, 6464, Note_off_c, 2, 60, 79
17, 6464, Note_off_c, 2, 57, 79
17, 6528, Note_on_c, 2, 57, 79
17, 6528, Note_on_c, 2, 60, 79
17, 6528, Note_on_c, 2, 64, 79
17, 6592, Note_off_c, 2, 64, 79
17, 6592, Note_off_c, 2, 60, 79
17, 6592, Note_off_c, 2, 57, 79
17, 6624, Note_on_c, 2, 57, 79
17, 6624, Note_on_c, 2, 60, 79
17, 6624, Note_on_c, 2, 64, 79
17, 6688, Note_off_c, 2, 64, 79
17, 6688, Note_off_c, 2, 60, 79
17, 6688, Note_off_c, 2, 57, 79
17, 6720, Note_on_c, 2, 57, 79
17, 6720, Note_on_c, 2, 60, 79
17, 6720, Note_on_c, 2, 64, 79
17, 6784, Note_off_c, 2, 64, 79
17, 6784, Note_off_c, 2, 60, 79
17, 6784, Note_off_c, 2, 57, 79
17, 6816, Note_on_c, 2, 57, 79
17, 6816, Note_on_c, 2, 60, 79
17, 6816, Note_on_c, 2, 64, 79
17, 6880, Note_off_c, 2, 64, 79
17, 6880, Note_off_c, 2, 60, 79
17, 6880, Note_off_c, 2, 57, 79
17, 6912, Note_on_c, 2, 60, 79
17, 6912, Note_on_c, 2, 64, 79
17, 6912, Note_on_c, 2, 57, 79
17, 6912, Note_on_c, 2, 67, 79
17, 7040, Note_off_c, 2, 67, 79
17, 7040, Note_off_c, 2, 57, 79
17, 7040, Note_off_c, 2, 64, 79
17, 7040, Note_off_c, 2, 60, 79
17, 7104, Note_on_c, 2, 60, 79
17, 7104, Note_on_c, 2, 64, 79
17, 7104, Note_on_c, 2, 57, 79
17, 7104, Note_on_c, 2, 67, 79
17, 7232, Note_off_c, 2, 67, 79
17, 7232, Note_off_c, 2, 57, 79
17, 7232, Note_off_c, 2, 64, 79
17, 7232, Note_off_c, 2, 60, 79
17, 7296, Note_on_c, 2, 60, 79
17, 7296, Note_on_c, 2, 64, 79
17, 7296, Note_on_c, 2, 57, 79
17, 7296, Note_on_c, 2, 67, 79
17, 7360, Note_off_c, 2, 67, 79
17, 7360, Note_off_c, 2, 57, 79
17, 7360, Note_off_c, 2, 64, 79
17, 7360, Note_off_c, 2, 60, 79
17, 7392, Note_on_c, 2, 60, 79
17, 7392, Note_on_c, 2, 64, 79
17, 7392, Note_on_c, 2, 57, 79
17, 7392, Note_on_c, 2, 67, 79
17, 7456, Note_off_c, 2, 67, 79
17, 7456, Note_off_c, 2, 57, 79
17, 7456, Note_off_c, 2, 64, 79
17, 7456, Note_off_c, 2, 60, 79
17, 7488, Note_on_c, 2, 60, 79
17, 7488, Note_on_c, 2, 64, 79
17, 7488, Note_on_c, 2, 57, 79
17, 7488, Note_on_c, 2, 67, 79
17, 7552, Note_off_c, 2, 67, 79
17, 7552, Note_off_c, 2, 57, 79
17, 7552, Note_off_c, 2, 64, 79
17, 7552, Note_off_c, 2, 60, 79
17, 7584, Note_on_c, 2, 60, 79
17, 7584, Note_on_c, 2, 64, 79
17, 7584, Note_on_c, 2, 57, 79
17, 7584, Note_on_c, 2, 67, 79
17, 7648, Note_off_c, 2, 67, 79
17, 7648, Note_off_c, 2, 57, 79
17, 7648, Note_off_c, 2, 64, 79
17, 7648, Note_off_c, 2, 60, 79
17, 7680, Note_on_c, 2, 66, 79
17, 7680, Note_on_c, 2, 69, 79
17, 7680, Note_on_c, 2, 62, 79
17, 7680, Note_on_c, 2, 72, 79
17, 7808, Note_off_c, 2, 72, 79
17, 7808, Note_off_c, 2, 62, 79
17, 7808, Note_off_c, 2, 69, 79
17, 7808, Note_off_c, 2, 66, 79
17, 7872, Note_on_c, 2, 66, 79
17, 7872, Note_on_c, 2, 69, 79
17, 7872, Note_on_c, 2, 62, 79
17, 7872, Note_on_c, 2, 72, 79
17, 8000, Note_off_c, 2, 72, 79
17, 8000, Note_off_c, 2, 62, 79
17, 8000, Note_off_c, 2, 69, 79
17, 8000, Note_off_c, 2, 66, 79
17, 8064, Note_on_c, 2, 66, 79
17, 8064, Note_on_c, 2, 69, 79
17, 8064, Note_on_c, 2, 62, 79
17, 8064, Note_on_c, 2, 72, 79
17, 8128, Note_off_c, 2, 72, 79
17, 8128, Note_off_c, 2, 62, 79
17, 8128, Note_off_c, 2, 69, 79
17, 8128, Note_off_c, 2, 66, 79
17, 8160, Note_on_c, 2, 66, 79
17, 8160, Note_on_c, 2, 69, 79
17, 8160, Note_on_c, 2, 62, 79
17, 8160, Note_on_c, 2, 72, 79
17, 8224, Note_off_c, 2, 72, 79
17, 8224, Note_off_c, 2, 62, 79
17, 8224, Note_off_c, 2, 69, 79
17, 8224, Note_off_c, 2, 66, 79
17, 8256, Note_on_c, 2, 66, 79
17, 8256, Note_on_c, 2, 69, 79
17, 8256, Note_on_c, 2, 62, 79
17, 8256, Note_on_c, 2, 72, 79
17, 8320, Note_off_c, 2, 72, 79
17, 8320, Note_off_c, 2, 62, 79
17, 8320, Note_off_c, 2, 69, 79
17, 8320, Note_off_c, 2, 66, 79
17, 8352, Note_on_c, 2, 66, 79
17, 8352, Note_on_c, 2, 69, 79
17, 8352, Note_on_c, 2, 62, 79
17, 8352, Note_on_c, 2, 72, 79
17, 8416, Note_off_c, 2, 72, 79
17, 8416, Note_off_c, 2, 62, 79
17, 8416, Note_off_c, 2, 69, 79
17, 8416, Note_off_c, 2, 66, 79
17, 8448, Note_on_c, 2, 69, 79
17, 8448, Note_on_c, 2, 72, 79
17, 8448, Note_on_c, 2, 65, 79
17, 8448, Note_on_c, 2, 76, 79
17, 8576, Note_off_c, 2, 76, 79
17, 8576, Note_off_c, 2, 65, 79
17, 8576, Note_off_c, 2, 72, 79
17, 8576, Note_off_c, 2, 69, 79
17, 8640, Note_on_c, 2, 69, 79
17, 8640, Note_on_c, 2, 72, 79
17, 8640, Note_on_c, 2, 65, 79
17, 8640, Note_on_c, 2, 76, 79
17, 8768, Note_off_c, 2, 76, 79
17, 8768, Note_off_c, 2, 65, 79
17, 8768, Note_off_c, 2, 72, 79
17, 8768, Note_off_c, 2, 69, 79
17, 8832, Note_on_c, 2, 69, 79
17, 8832, Note_on_c, 2, 72, 79
17, 8832, Note_on_c, 2, 65, 79
17, 8832, Note_on_c, 2, 76, 79
17, 8896, Note_off_c, 2, 76, 79
17, 8896, Note_off_c, 2, 65, 79
17, 8896, Note_off_c, 2, 72, 79
17, 8896, Note_off_c, 2, 69, 79
17, 8928, Note_on_c, 2, 69, 79
17, 8928, Note_on_c, 2, 72, 79
17, 8928, Note_on_c, 2, 65, 79
17, 8928, Note_on_c, 2, 76, 79
17, 8992, Note_off_c, 2, 76, 79
17, 8992, Note_off_c, 2, 65, 79
17, 8992, Note_off_c, 2, 72, 79
17, 8992, Note_off_c, 2, 69, 79
17, 9024, Note_on_c, 2, 69, 79
17, 9024, Note_on_c, 2, 72, 79
17, 9024, Note_on_c, 2, 65, 79
17, 9024, Note_on_c, 2, 76, 79
17, 9088, Note_off_c, 2, 76, 79
17, 9088, Note_off_c, 2, 65, 79
17, 9088, Note_off_c, 2, 72, 79
17, 9088, Note_off_c, 2, 69, 79
17, 9120, Note_on_c, 2, 69, 79
17, 9120, Note_on_c, 2, 72, 79
17, 9120, Note_on_c, 2, 65, 79
17, 9120, Note_on_c, 2, 76, 79
17, 9184, Note_off_c, 2, 76, 79
17, 9184, Note_off_c, 2, 65, 79
17, 9184, Note_off_c, 2, 72, 79
17, 9184, Note_off_c, 2, 69, 79
17, 9216, Note_on_c, 2, 57, 79
17, 9216, Note_on_c, 2, 60, 79
17, 9216, Note_on_c, 2, 64, 79
17, 9344, Note_off_c, 2, 64, 79
17, 9344, Note_off_c, 2, 60, 79
17, 9344, Note_off_c, 2, 57, 79
17, 9408, Note_on_c, 2, 57, 79
17, 9408, Note_on_c, 2, 60, 79
17, 9408, Note_on_c, 2, 64, 79
17, 9536, Note_off_c, 2, 64, 79
17, 9536, Note_off_c, 2, 60, 79
17, 9536, Note_off_c, 2, 57, 79
17, 9600, Note_on_c, 2, 57, 79
17, 9600, Note_on_c, 2, 60, 79
17, 9600, Note_on_c, 2, 64, 79
17, 9664, Note_off_c, 2, 64, 79
17, 9664, Note_off_c, 2, 60, 79
17, 9664, Note_off_c, 2, 57, 79
17, 9696, Note_on_c, 2, 57, 79
17, 9696, Note_on_c, 2, 60, 79
17, 9696, Note_on_c, 2, 64, 79
17, 9760, Note_off_c, 2, 64, 79
17, 9760, Note_off_c, 2, 60, 79
17, 9760, Note_off_c, 2, 57, 79
17, 9792, Note_on_c, 2, 57, 79
17, 9792, Note_on_c, 2, 60, 79
17, 9792, Note_on_c, 2, 64, 79
17, 9856, Note_off_c, 2, 64, 79
17, 9856, Note_off_c, 2, 60, 79
17, 9856, Note_off_c, 2, 57, 79
17, 9888, Note_on_c, 2, 57, 79
17, 9888, Note_on_c, 2, 60, 79
17, 9888, Note_on_c, 2, 64, 79
17, 9952, Note_off_c, 2, 64, 79
17, 9952, Note_off_c, 2, 60, 79
17, 9952, Note_off_c, 2, 57, 79
17, 9984, Note_on_c, 2, 55, 79
17, 9984, Note_on_c, 2, 59, 79
17, 9984, Note_on_c, 2, 62, 79
17, 10112, Note_off_c, 2, 62, 79
17, 10112, Note_off_c, 2, 59, 79
17, 10112, Note_off_c, 2, 55, 79
17, 10176, Note_on_c, 2, 55, 79
17, 10176, Note_on_c, 2, 59, 79
17, 10176, Note_on_c, 2, 62, 79
17, 10304, Note_off_c, 2, 62, 79
17, 10304, Note_off_c, 2, 59, 79
17, 10304, Note_off_c, 2, 55, 79
17, 10368, Note_on_c, 2, 55, 79
17, 10368, Note_on_c, 2, 59, 79
17, 10368, Note_on_c, 2, 62, 79
17, 10432, Note_off_c, 2, 62, 79
17, 10432, Note_off_c, 2, 59, 79
17, 10432, Note_off_c, 2, 55, 79
17, 10464, Note_on_c, 2, 55, 79
17, 10464, Note_on_c, 2, 59, 79
17, 10464, Note_on_c, 2, 62, 79
17, 10528, Note_off_c, 2, 62, 79
17, 10528, Note_off_c, 2, 59, 79
17, 10528, Note_off_c, 2, 55, 79
17, 10560, Note_on_c, 2, 55, 79
17, 10560, Note_on_c, 2, 59, 79
17, 10560, Note_on_c, 2, 62, 79
17, 10624, Note_off_c, 2, 62, 79
17, 10624, Note_off_c, 2, 59, 79
17, 10624, Note_off_c, 2, 55, 79
17, 10656, Note_on_c, 2, 55, 79
17, 10656, Note_on_c, 2, 59, 79
17, 10656, Note_on_c, 2, 62, 79
17, 10720, Note_off_c, 2, 62, 79
17, 10720, Note_off_c, 2, 59, 79
17, 10720, Note_off_c, 2, 55, 79
17, 10752, Note_on_c, 2, 57, 79
17, 10752, Note_on_c, 2, 62, 79
17, 10752, Note_on_c, 2, 66, 79
17, 10880, Note_off_c, 2, 66, 79
17, 10880, Note_off_c, 2, 62, 79
17, 10880, Note_off_c, 2, 57, 79
17, 10944, Note_on_c, 2, 57, 79
17, 10944, Note_on_c, 2, 62, 79
17, 10944, Note_on_c, 2, 66, 79
17, 11072, Note_off_c, 2, 66, 79
17, 11072, Note_off_c, 2, 62, 79
17, 11072, Note_off_c, 2, 57, 79
17, 11136, Note_on_c, 2, 57, 79
17, 11136, Note_on_c, 2, 62, 79
17, 11136, Note_on_c, 2, 66, 79
17, 11200, Note_off_c, 2, 66, 79
17, 11200, Note_off_c, 2, 62, 79
17, 11200, Note_off_c, 2, 57, 79
17, 11232, Note_on_c, 2, 57, 79
17, 11232, Note_on_c, 2, 62, 79
17, 11232, Note_on_c, 2, 66, 79
17, 11296, Note_off_c, 2, 66, 79
17, 11296, Note_off_c, 2, 62, 79
17, 11296, Note_off_c, 2, 57, 79
17, 11328, Note_on_c, 2, 57, 79
17, 11328, Note_on_c, 2, 62, 79
17, 11328, Note_on_c, 2, 66, 79
17, 11392, Note_off_c, 2, 66, 79
17, 11392, Note_off_c, 2, 62, 79
17, 11392, Note_off_c, 2, 57, 79
17, 11424, Note_on_c, 2, 57, 79
17, 11424, Note_on_c, 2, 62, 79
17, 11424, Note_on_c, 2, 66, 79
17, 11488, Note_off_c, 2, 66, 79
17, 11488, Note_off_c, 2, 62, 79
17, 11488, Note_off_c, 2, 57, 79
17, 11520, Note_on_c, 2, 64, 79
17, 11520, Note_on_c, 2, 68, 79
17, 11520, Note_on_c, 2, 62, 79
17, 11520, Note_on_c, 2, 71, 79
17, 11648, Note_off_c, 2, 71, 79
17, 11648, Note_off_c, 2, 62, 79
17, 11648, Note_off_c, 2, 68, 79
17, 11648, Note_off_c, 2, 64, 79
17, 11712, Note_on_c, 2, 64, 79
17, 11712, Note_on_c, 2, 68, 79
17, 11712, Note_on_c, 2, 62, 79
17, 11712, Note_on_c, 2, 71, 79
17, 11840, Note_off_c, 2, 71, 79
17, 11840, Note_off_c, 2, 62, 79
17, 11840, Note_off_c, 2, 68, 79
17, 11840, Note_off_c, 2, 64, 79
17, 11904, Note_on_c, 2, 64, 79
17, 11904, Note_on_c, 2, 68, 79
17, 11904, Note_on_c, 2, 62, 79
17, 11904, Note_on_c, 2, 71, 79
17, 11968, Note_off_c, 2, 71, 79
17, 11968, Note_off_c, 2, 62, 79
17, 11968, Note_off_c, 2, 68, 79
17, 11968, Note_off_c, 2, 64, 79
17, 12000, Note_on_c, 2, 64, 79
17, 12000, Note_on_c, 2, 68, 79
17, 12000, Note_on_c, 2, 62, 79
17, 12000, Note_on_c, 2, 71, 79
17, 12064, Note_off_c, 2, 71, 79
17, 12064, Note_off_c, 2, 62, 79
17, 12064, Note_off_c, 2, 68, 79
17, 12064, Note_off_c, 2, 64, 79
17, 12096, Note_on_c, 2, 64, 79
17, 12096, Note_on_c, 2, 68, 79
17, 12096, Note_on_c, 2, 62, 79
17, 12096, Note_on_c, 2, 71, 79
17, 12160, Note_off_c, 2, 71, 79
17, 12160, Note_off_c, 2, 62, 79
17, 12160, Note_off_c, 2, 68, 79
17, 12160, Note_off_c, 2, 64, 79
17, 12192, Note_on_c, 2, 64, 79
17, 12192, Note_on_c, 2, 68, 79
17, 12192, Note_on_c, 2, 62, 79
17, 12192, Note_on_c, 2, 71, 79
17, 12256, Note_off_c, 2, 71, 79
17, 12256, Note_off_c, 2, 62, 79
17, 12256, Note_off_c, 2, 68, 79
17, 12256, Note_off_c, 2, 64, 79
17, 12288, Note_on_c, 2, 60, 79
17, 12288, Note_on_c, 2, 57, 79
17, 12288, Note_on_c, 2, 64, 79
17, 12416, Note_off_c, 2, 64, 79
17, 12416, Note_off_c, 2, 57, 79
17, 12416, Note_off_c, 2, 60, 79
17, 12480, Note_on_c, 2, 60, 79
17, 12480, Note_on_c, 2, 57, 79
17, 12480, Note_on_c, 2, 64, 79
17, 12608, Note_off_c, 2, 64, 79
17, 12608, Note_off_c, 2, 57, 79
17, 12608, Note_off_c, 2, 60, 79
17, 12672, Note_on_c, 2, 60, 79
17, 12672, Note_on_c, 2, 57, 79
17, 12672, Note_on_c, 2, 64, 79
17, 12736, Note_off_c, 2, 64, 79
17, 12736, Note_off_c, 2, 57, 79
17, 12736, Note_off_c, 2, 60, 79
17, 12768, Note_on_c, 2, 60, 79
17, 12768, Note_on_c, 2, 57, 79
17, 12768, Note_on_c, 2, 64, 79
17, 12832, Note_off_c, 2, 64, 79
17, 12832, Note_off_c, 2, 57, 79
17, 12832, Note_off_c, 2, 60, 79
17, 12864, Note_on_c, 2, 60, 79
17, 12864, Note_on_c, 2, 57, 79
17, 12864, Note_on_c, 2, 64, 79
17, 12928, Note_off_c, 2, 64, 79
17, 12928, Note_off_c, 2, 57, 79
17, 12928, Note_off_c, 2, 60, 79
17, 12960, Note_on_c, 2, 60, 79
17, 12960, Note_on_c, 2, 57, 79
17, 12960, Note_on_c, 2, 64, 79
17, 13024, Note_off_c, 2, 64, 79
17, 13024, Note_off_c, 2, 57, 79
17, 13024, Note_off_c, 2, 60, 79
17, 13056, Note_on_c, 2, 60, 79
17, 13056, Note_on_c, 2, 64, 79
17, 13056, Note_on_c, 2, 57, 79
17, 13056, Note_on_c, 2, 67, 79
17, 13184, Note_off_c, 2, 67, 79
17, 13184, Note_off_c, 2, 57, 79
17, 13184, Note_off_c, 2, 64, 79
17, 13184, Note_off_c, 2, 60, 79
17, 13248, Note_on_c, 2, 60, 79
17, 13248, Note_on_c, 2, 64, 79
17, 13248, Note_on_c, 2, 57, 79
17, 13248, Note_on_c, 2, 67, 79
17, 13376, Note_off_c, 2, 67, 79
17, 13376, Note_off_c, 2, 57, 79
17, 13376, Note_off_c, 2, 64, 79
17, 13376, Note_off_c, 2, 60, 79
17, 13440, Note_on_c, 2, 60, 79
17, 13440, Note_on_c, 2, 64, 79
17, 13440, Note_on_c, 2, 57, 79
17, 13440, Note_on_c, 2, 67, 79
17, 13504, Note_off_c, 2, 67, 79
17, 13504, Note_off_c, 2, 57, 79
17, 13504, Note_off_c, 2, 64, 79
17, 13504, Note_off_c, 2, 60, 79
17, 13536, Note_on_c, 2, 60, 79
17, 13536, Note_on_c, 2, 64, 79
17, 13536, Note_on_c, 2, 57, 79
17, 13536, Note_on_c, 2, 67, 79
17, 13600, Note_off_c, 2, 67, 79
17, 13600, Note_off_c, 2, 57, 79
17, 13600, Note_off_c, 2, 64, 79
17, 13600, Note_off_c, 2, 60, 79
17, 13632, Note_on_c, 2, 60, 79
17, 13632, Note_on_c, 2, 64, 79
17, 13632, Note_on_c, 2, 57, 79
17, 13632, Note_on_c, 2, 67, 79
17, 13696, Note_off_c, 2, 67, 79
17, 13696, Note_off_c, 2, 57, 79
17, 13696, Note_off_c, 2, 64, 79
17, 13696, Note_off_c, 2, 60, 79
17, 13728, Note_on_c, 2, 60, 79
17, 13728, Note_on_c, 2, 64, 79
17, 13728, Note_on_c, 2, 57, 79
17, 13728, Note_on_c, 2, 67, 79
17, 13792, Note_off_c, 2, 67, 79
17, 13792, Note_off_c, 2, 57, 79
17, 13792, Note_off_c, 2, 64, 79
17, 13792, Note_off_c, 2, 60, 79
17, 13824, Note_on_c, 2, 66, 79
17, 13824, Note_on_c, 2, 69, 79
17, 13824, Note_on_c, 2, 62, 79
17, 13824, Note_on_c, 2, 72, 79
17, 13952, Note_off_c, 2, 72, 79
17, 13952, Note_off_c, 2, 62, 79
17, 13952, Note_off_c, 2, 69, 79
17, 13952, Note_off_c, 2, 66, 79
17, 14016, Note_on_c, 2, 66, 79
17, 14016, Note_on_c, 2, 69, 79
17, 14016, Note_on_c, 2, 62, 79
17, 14016, Note_on_c, 2, 72, 79
17, 14144, Note_off_c, 2, 72, 79
17, 14144, Note_off_c, 2, 62, 79
17, 14144, Note_off_c, 2, 69, 79
17, 14144, Note_off_c, 2, 66, 79
17, 14208, Note_on_c, 2, 66, 79
17, 14208, Note_on_c, 2, 69, 79
17, 14208, Note_on_c, 2, 62, 79
17, 14208, Note_on_c, 2, 72, 79
17, 14272, Note_off_c, 2, 72, 79
17, 14272, Note_off_c, 2, 62, 79
17, 14272, Note_off_c, 2, 69, 79
17, 14272, Note_off_c, 2, 66, 79
17, 14304, Note_on_c, 2, 66, 79
17, 14304, Note_on_c, 2, 69, 79
17, 14304, Note_on_c, 2, 62, 79
17, 14304, Note_on_c, 2, 72, 79
17, 14368, Note_off_c, 2, 72, 79
17, 14368, Note_off_c, 2, 62, 79
17, 14368, Note_off_c, 2, 69, 79
17, 14368, Note_off_c, 2, 66, 79
17, 14400, Note_on_c, 2, 66, 79
17, 14400, Note_on_c, 2, 69, 79
17, 14400, Note_on_c, 2, 62, 79
17, 14400, Note_on_c, 2, 72, 79
17, 14464, Note_off_c, 2, 72, 79
17, 14464, Note_off_c, 2, 62, 79
17, 14464, Note_off_c, 2, 69, 79
17, 14464, Note_off_c, 2, 66, 79
17, 14496, Note_on_c, 2, 66, 79
17, 14496, Note_on_c, 2, 69, 79
17, 14496, Note_on_c, 2, 62, 79
17, 14496, Note_on_c, 2, 72, 79
17, 14560, Note_off_c, 2, 72, 79
17, 14560, Note_off_c, 2, 62, 79
17, 14560, Note_off_c, 2, 69, 79
17, 14560, Note_off_c, 2, 66, 79
17, 14592, Note_on_c, 2, 65, 79
17, 14592, Note_on_c, 2, 69, 79
17, 14592, Note_on_c, 2, 64, 79
17, 14592, Note_on_c, 2, 72, 79
17, 14720, Note_off_c, 2, 72, 79
17, 14720, Note_off_c, 2, 64, 79
17, 14720, Note_off_c, 2, 69, 79
17, 14720, Note_off_c, 2, 65, 79
17, 14784, Note_on_c, 2, 65, 79
17, 14784, Note_on_c, 2, 69, 79
17, 14784, Note_on_c, 2, 64, 79
17, 14784, Note_on_c, 2, 72, 79
17, 14912, Note_off_c, 2, 72, 79
17, 14912, Note_off_c, 2, 64, 79
17, 14912, Note_off_c, 2, 69, 79
17, 14912, Note_off_c, 2, 65, 79
17, 14976, Note_on_c, 2, 65, 79
17, 14976, Note_on_c, 2, 69, 79
17, 14976, Note_on_c, 2, 64, 79
17, 14976, Note_on_c, 2, 72, 79
17, 15040, Note_off_c, 2, 72, 79
17, 15040, Note_off_c, 2, 64, 79
17, 15040, Note_off_c, 2, 69, 79
17, 15040, Note_off_c, 2, 65, 79
17, 15072, Note_on_c, 2, 65, 79
17, 15072, Note_on_c, 2, 69, 79
17, 15072, Note_on_c, 2, 64, 79
17, 15072, Note_on_c, 2, 72, 79
17, 15136, Note_off_c, 2, 72, 79
17, 15136, Note_off_c, 2, 64, 79
17, 15136, Note_off_c, 2, 69, 79
17, 15136, Note_off_c, 2, 65, 79
17, 15168, Note_on_c, 2, 65, 79
17, 15168, Note_on_c, 2, 69, 79
17, 15168, Note_on_c, 2, 64, 79
17, 15168, Note_on_c, 2, 72, 79
17, 15232, Note_off_c, 2, 72, 79
17, 15232, Note_off_c, 2, 64, 79
17, 15232, Note_off_c, 2, 69, 79
17, 15232, Note_off_c, 2, 65, 79
17, 15264, Note_on_c, 2, 65, 79
17, 15264, Note_on_c, 2, 69, 79
17, 15264, Note_on_c, 2, 64, 79
17, 15264, Note_on_c, 2, 72, 79
17, 15328, Note_off_c, 2, 72, 79
17, 15328, Note_off_c, 2, 64, 79
17, 15328, Note_off_c, 2, 69, 79
17, 15328, Note_off_c, 2, 65, 79
17, 15360, Note_on_c, 2, 57, 79
17, 15360, Note_on_c, 2, 60, 79
17, 15360, Note_on_c, 2, 64, 79
17, 15488, Note_off_c, 2, 64, 79
17, 15488, Note_off_c, 2, 60, 79
17, 15488, Note_off_c, 2, 57, 79
17, 15552, Note_on_c, 2, 57, 79
17, 15552, Note_on_c, 2, 60, 79
17, 15552, Note_on_c, 2, 64, 79
17, 15680, Note_off_c, 2, 64, 79
17, 15680, Note_off_c, 2, 60, 79
17, 15680, Note_off_c, 2, 57, 79
17, 15744, Note_on_c, 2, 57, 79
17, 15744, Note_on_c, 2, 60, 79
17, 15744, Note_on_c, 2, 64, 79
17, 15808, Note_off_c, 2, 64, 79
17, 15808, Note_off_c, 2, 60, 79
17, 15808, Note_off_c, 2, 57, 79
17, 15840, Note_on_c, 2, 57, 79
17, 15840, Note_on_c, 2, 60, 79
17, 15840, Note_on_c, 2, 64, 79
17, 15904, Note_off_c, 2, 64, 79
17, 15904, Note_off_c, 2, 60, 79
17, 15904, Note_off_c, 2, 57, 79
17, 15936, Note_on_c, 2, 57, 79
17, 15936, Note_on_c, 2, 60, 79
17, 15936, Note_on_c, 2, 64, 79
17, 16000, Note_off_c, 2, 64, 79
17, 16000, Note_off_c, 2, 60, 79
17, 16000, Note_off_c, 2, 57, 79
17, 16032, Note_on_c, 2, 57, 79
17, 16032, Note_on_c, 2, 60, 79
17, 16032, Note_on_c, 2, 64, 79
17, 16096, Note_off_c, 2, 64, 79
17, 16096, Note_off_c, 2, 60, 79
17, 16096, Note_off_c, 2, 57, 79
17, 16128, Note_on_c, 2, 55, 79
17, 16128, Note_on_c, 2, 59, 79
17, 16128, Note_on_c, 2, 62, 79
17, 16256, Note_off_c, 2, 62, 79
17, 16256, Note_off_c, 2, 59, 79
17, 16256, Note_off_c, 2, 55, 79
17, 16320, Note_on_c, 2, 55, 79
17, 16320, Note_on_c, 2, 59, 79
17, 16320, Note_on_c, 2, 62, 79
17, 16448, Note_off_c, 2, 62, 79
17, 16448, Note_off_c, 2, 59, 79
17, 16448, Note_off_c, 2, 55, 79
17, 16512, Note_on_c, 2, 55, 79
17, 16512, Note_on_c, 2, 59, 79
17, 16512, Note_on_c, 2, 62, 79
17, 16576, Note_off_c, 2, 62, 79
17, 16576, Note_off_c, 2, 59, 79
17, 16576, Note_off_c, 2, 55, 79
17, 16608, Note_on_c, 2, 55, 79
17, 16608, Note_on_c, 2, 59, 79
17, 16608, Note_on_c, 2, 62, 79
17, 16672, Note_off_c, 2, 62, 79
17, 16672, Note_off_c, 2, 59, 79
17, 16672, Note_off_c, 2, 55, 79
17, 16704, Note_on_c, 2, 55, 79
17, 16704, Note_on_c, 2, 59, 79
17, 16704, Note_on_c, 2, 62, 79
17, 16768, Note_off_c, 2, 62, 79
17, 16768, Note_off_c, 2, 59, 79
17, 16768, Note_off_c, 2, 55, 79
17, 16800, Note_on_c, 2, 55, 79
17, 16800, Note_on_c, 2, 59, 79
17, 16800, Note_on_c, 2, 62, 79
17, 16864, Note_off_c, 2, 62, 79
17, 16864, Note_off_c, 2, 59, 79
17, 16864, Note_off_c, 2, 55, 79
17, 16896, Note_on_c, 2, 55, 79
17, 16896, Note_on_c, 2, 60, 79
17, 16896, Note_on_c, 2, 64, 79
17, 17024, Note_off_c, 2, 64, 79
17, 17024, Note_off_c, 2, 60, 79
17, 17024, Note_off_c, 2, 55, 79
17, 17088, Note_on_c, 2, 55, 79
17, 17088, Note_on_c, 2, 60, 79
17, 17088, Note_on_c, 2, 64, 79
17, 17216, Note_off_c, 2, 64, 79
17, 17216, Note_off_c, 2, 60, 79
17, 17216, Note_off_c, 2, 55, 79
17, 17280, Note_on_c, 2, 55, 79
17, 17280, Note_on_c, 2, 60, 79
17, 17280, Note_on_c, 2, 64, 79
17, 17344, Note_off_c, 2, 64, 79
17, 17344, Note_off_c, 2, 60, 79
17, 17344, Note_off_c, 2, 55, 79
17, 17376, Note_on_c, 2, 55, 79
17, 17376, Note_on_c, 2, 60, 79
17, 17376, Note_on_c, 2, 64, 79
17, 17440, Note_off_c, 2, 64, 79
17, 17440, Note_off_c, 2, 60, 79
17, 17440, Note_off_c, 2, 55, 79
17, 17472, Note_on_c, 2, 55, 79
17, 17472, Note_on_c, 2, 60, 79
17, 17472, Note_on_c, 2, 64, 79
17, 17536, Note_off_c, 2, 64, 79
17, 17536, Note_off_c, 2, 60, 79
17, 17536, Note_off_c, 2, 55, 79
17, 17568, Note_on_c, 2, 55, 79
17, 17568, Note_on_c, 2, 60, 79
17, 17568, Note_on_c, 2, 64, 79
17, 17632, Note_off_c, 2, 64, 79
17, 17632, Note_off_c, 2, 60, 79
17, 17632, Note_off_c, 2, 55, 79
17, 17664, Note_on_c, 2, 62, 79
17, 17664, Note_on_c, 2, 64, 79
17, 17664, Note_on_c, 2, 68, 79
17, 17664, Note_on_c, 2, 71, 79
17, 17792, Note_off_c, 2, 71, 79
17, 17792, Note_off_c, 2, 68, 79
17, 17792, Note_off_c, 2, 64, 79
17, 17792, Note_off_c, 2, 62, 79
17, 17856, Note_on_c, 2, 62, 79
17, 17856, Note_on_c, 2, 64, 79
17, 17856, Note_on_c, 2, 68, 79
17, 17856, Note_on_c, 2, 71, 79
17, 17984, Note_off_c, 2, 71, 79
17, 17984, Note_off_c, 2, 68, 79
17, 17984, Note_off_c, 2, 64, 79
17, 17984, Note_off_c, 2, 62, 79
17, 18048, Note_on_c, 2, 62, 79
17, 18048, Note_on_c, 2, 64, 79
17, 18048, Note_on_c, 2, 68, 79
17, 18048, Note_on_c, 2, 71, 79
17, 18112, Note_off_c, 2, 71, 79
17, 18112, Note_off_c, 2, 68, 79
17, 18112, Note_off_c, 2, 64, 79
17, 18112, Note_off_c, 2, 62, 79
17, 18144, Note_on_c, 2, 62, 79
17, 18144, Note_on_c, 2, 64, 79
17, 18144, Note_on_c, 2, 68, 79
17, 18144, Note_on_c, 2, 71, 79
17, 18208, Note_off_c, 2, 71, 79
17, 18208, Note_off_c, 2, 68, 79
17, 18208, Note_off_c, 2, 64, 79
17, 18208, Note_off_c, 2, 62, 79
17, 18240, Note_on_c, 2, 62, 79
17, 18240, Note_on_c, 2, 64, 79
17, 18240, Note_on_c, 2, 68, 79
17, 18240, Note_on_c, 2, 71, 79
17, 18304, Note_off_c, 2, 71, 79
17, 18304, Note_off_c, 2, 68, 79
17, 18304, Note_off_c, 2, 64, 79
17, 18304, Note_off_c, 2, 62, 79
17, 18336, Note_on_c, 2, 62, 79
17, 18336, Note_on_c, 2, 64, 79
17, 18336, Note_on_c, 2, 68, 79
17, 18336, Note_on_c, 2, 71, 79
17, 18400, Note_off_c, 2, 71, 79
17, 18400, Note_off_c, 2, 68, 79
17, 18400, Note_off_c, 2, 64, 79
17, 18400, Note_off_c, 2, 62, 79
17, 18432, Note_on_c, 2, 57, 79
17, 18432, Note_on_c, 2, 61, 79
17, 18432, Note_on_c, 2, 64, 79
17, 18560, Note_off_c, 2, 64, 79
17, 18560, Note_off_c, 2, 61, 79
17, 18560, Note_off_c, 2, 57, 79
17, 18624, Note_on_c, 2, 57, 79
17, 18624, Note_on_c, 2, 61, 79
17, 18624, Note_on_c, 2, 64, 79
17, 18752, Note_off_c, 2, 64, 79
17, 18752, Note_off_c, 2, 61, 79
17, 18752, Note_off_c, 2, 57, 79
17, 18816, Note_on_c, 2, 57, 79
17, 18816, Note_on_c, 2, 61, 79
17, 18816, Note_on_c, 2, 64, 79
17, 18880, Note_off_c, 2, 64, 79
17, 18880, Note_off_c, 2, 61, 79
17, 18880, Note_off_c, 2, 57, 79
17, 18912, Note_on_c, 2, 57, 79
17, 18912, Note_on_c, 2, 61, 79
17, 18912, Note_on_c, 2, 64, 79
17, 18976, Note_off_c, 2, 64, 79
17, 18976, Note_off_c, 2, 61, 79
17, 18976, Note_off_c, 2, 57, 79
17, 19008, Note_on_c, 2, 57, 79
17, 19008, Note_on_c, 2, 61, 79
17, 19008, Note_on_c, 2, 64, 79
17, 19072, Note_off_c, 2, 64, 79
17, 19072, Note_off_c, 2, 61, 79
17, 19072, Note_off_c, 2, 57, 79
17, 19104, Note_on_c, 2, 57, 79
17, 19104, Note_on_c, 2, 61, 79
17, 19104, Note_on_c, 2, 64, 79
17, 19168, Note_off_c, 2, 64, 79
17, 19168, Note_off_c, 2, 61, 79
17, 19168, Note_off_c, 2, 57, 79
17, 19200, Note_on_c, 2, 61, 79
17, 19200, Note_on_c, 2, 64, 79
17, 19200, Note_on_c, 2, 68, 79
17, 19328, Note_off_c, 2, 68, 79
17, 19328, Note_off_c, 2, 64, 79
17, 19328, Note_off_c, 2, 61, 79
17, 19392, Note_on_c, 2, 61, 79
17, 19392, Note_on_c, 2, 64, 79
17, 19392, Note_on_c, 2, 68, 79
17, 19520, Note_off_c, 2, 68, 79
17, 19520, Note_off_c, 2, 64, 79
17, 19520, Note_off_c, 2, 61, 79
17, 19584, Note_on_c, 2, 61, 79
17, 19584, Note_on_c, 2, 64, 79
17, 19584, Note_on_c, 2, 68, 79
17, 19648, Note_off_c, 2, 68, 79
17, 19648, Note_off_c, 2, 64, 79
17, 19648, Note_off_c, 2, 61, 79
17, 19680, Note_on_c, 2, 61, 79
17, 19680, Note_on_c, 2, 64, 79
17, 19680, Note_on_c, 2, 68, 79
17, 19744, Note_off_c, 2, 68, 79
17, 19744, Note_off_c, 2, 64, 79
17, 19744, Note_off_c, 2, 61, 79
17, 19776, Note_on_c, 2, 61, 79
17, 19776, Note_on_c, 2, 64, 79
17, 19776, Note_on_c, 2, 68, 79
17, 19840, Note_off_c, 2, 68, 79
17, 19840, Note_off_c, 2, 64, 79
17, 19840, Note_off_c, 2, 61, 79
17, 19872, Note_on_c, 2, 61, 79
17, 19872, Note_on_c, 2, 64, 79
17, 19872, Note_on_c, 2, 68, 79
17, 19936, Note_off_c, 2, 68, 79
17, 19936, Note_off_c, 2, 64, 79
17, 19936, Note_off_c, 2, 61, 79
17, 19968, Note_on_c, 2, 61, 79
17, 19968, Note_on_c, 2, 66, 79
17, 19968, Note_on_c, 2, 69, 79
17, 20096, Note_off_c, 2, 69, 79
17, 20096, Note_off_c, 2, 66, 79
17, 20096, Note_off_c, 2, 61, 79
17, 20160, Note_on_c, 2, 61, 79
17, 20160, Note_on_c, 2, 66, 79
17, 20160, Note_on_c, 2, 69, 79
17, 20288, Note_off_c, 2, 69, 79
17, 20288, Note_off_c, 2, 66, 79
17, 20288, Note_off_c, 2, 61, 79
17, 20352, Note_on_c, 2, 61, 79
17, 20352, Note_on_c, 2, 66, 79
17, 20352, Note_on_c, 2, 69, 79
17, 20416, Note_off_c, 2, 69, 79
17, 20416, Note_off_c, 2, 66, 79
17, 20416, Note_off_c, 2, 61, 79
17, 20448, Note_on_c, 2, 61, 79
17, 20448, Note_on_c, 2, 66, 79
17, 20448, Note_on_c, 2, 69, 79
17, 20512, Note_off_c, 2, 69, 79
17, 20512, Note_off_c, 2, 66, 79
17, 20512, Note_off_c, 2, 61, 79
17, 20544, Note_on_c, 2, 61, 79
17, 20544, Note_on_c, 2, 66, 79
17, 20544, Note_on_c, 2, 69, 79
17, 20608, Note_off_c, 2, 69, 79
17, 20608, Note_off_c, 2, 66, 79
17, 20608, Note_off_c, 2, 61, 79
17, 20640, Note_on_c, 2, 61, 79
17, 20640, Note_on_c, 2, 66, 79
17, 20640, Note_on_c, 2, 69, 79
17, 20704, Note_off_c, 2, 69, 79
17, 20704, Note_off_c, 2, 66, 79
17, 20704, Note_off_c, 2, 61, 79
17, 20736, Note_on_c, 2, 61, 79
17, 20736, Note_on_c, 2, 64, 79
17, 20736, Note_on_c, 2, 68, 79
17, 20864, Note_off_c, 2, 68, 79
17, 20864, Note_off_c, 2, 64, 79
17, 20864, Note_off_c, 2, 61, 79
17, 20928, Note_on_c, 2, 61, 79
17, 20928, Note_on_c, 2, 64, 79
17, 20928, Note_on_c, 2, 68, 79
17, 21056, Note_off_c, 2, 68, 79
17, 21056, Note_off_c, 2, 64, 79
17, 21056, Note_off_c, 2, 61, 79
17, 21120, Note_on_c, 2, 61, 79
17, 21120, Note_on_c, 2, 64, 79
17, 21120, Note_on_c, 2, 68, 79
17, 21184, Note_off_c, 2, 68, 79
17, 21184, Note_off_c, 2, 64, 79
17, 21184, Note_off_c, 2, 61, 79
17, 21216, Note_on_c, 2, 61, 79
17, 21216, Note_on_c, 2, 64, 79
17, 21216, Note_on_c, 2, 68, 79
17, 21280, Note_off_c, 2, 68, 79
17, 21280, Note_off_c, 2, 64, 79
17, 21280, Note_off_c, 2, 61, 79
17, 21312, Note_on_c, 2, 61, 79
17, 21312, Note_on_c, 2, 64, 79
17, 21312, Note_on_c, 2, 68, 79
17, 21376, Note_off_c, 2, 68, 79
17, 21376, Note_off_c, 2, 64, 79
17, 21376, Note_off_c, 2, 61, 79
17, 21408, Note_on_c, 2, 61, 79
17, 21408, Note_on_c, 2, 64, 79
17, 21408, Note_on_c, 2, 68, 79
17, 21472, Note_off_c, 2, 68, 79
17, 21472, Note_off_c, 2, 64, 79
17, 21472, Note_off_c, 2, 61, 79
17, 21504, Note_on_c, 2, 62, 79
17, 21504, Note_on_c, 2, 59, 79
17, 21504, Note_on_c, 2, 66, 79
17, 21632, Note_off_c, 2, 66, 79
17, 21632, Note_off_c, 2, 59, 79
17, 21632, Note_off_c, 2, 62, 79
17, 21696, Note_on_c, 2, 62, 79
17, 21696, Note_on_c, 2, 59, 79
17, 21696, Note_on_c, 2, 66, 79
17, 21824, Note_off_c, 2, 66, 79
17, 21824, Note_off_c, 2, 59, 79
17, 21824, Note_off_c, 2, 62, 79
17, 21888, Note_on_c, 2, 59, 79
17, 21888, Note_on_c, 2, 62, 79
17, 21888, Note_on_c, 2, 66, 79
17, 21952, Note_off_c, 2, 66, 79
17, 21952, Note_off_c, 2, 62, 79
17, 21952, Note_off_c, 2, 59, 79
17, 21984, Note_on_c, 2, 59, 79
17, 21984, Note_on_c, 2, 62, 79
17, 21984, Note_on_c, 2, 66, 79
17, 22048, Note_off_c, 2, 66, 79
17, 22048, Note_off_c, 2, 62, 79
17, 22048, Note_off_c, 2, 59, 79
17, 22080, Note_on_c, 2, 59, 79
17, 22080, Note_on_c, 2, 62, 79
17, 22080, Note_on_c, 2, 66, 79
17, 22144, Note_off_c, 2, 66, 79
17, 22144, Note_off_c, 2, 62, 79
17, 22144, Note_off_c, 2, 59, 79
17, 22176, Note_on_c, 2, 59, 79
17, 22176, Note_on_c, 2, 62, 79
17, 22176, Note_on_c, 2, 66, 79
17, 22240, Note_off_c, 2, 66, 79
17, 22240, Note_off_c, 2, 62, 79
17, 22240, Note_off_c, 2, 59, 79
17, 22272, Note_on_c, 2, 59, 79
17, 22272, Note_on_c, 2, 62, 79
17, 22272, Note_on_c, 2, 66, 79
17, 22400, Note_off_c, 2, 66, 79
17, 22400, Note_off_c, 2, 62, 79
17, 22400, Note_off_c, 2, 59, 79
17, 22464, Note_on_c, 2, 59, 79
17, 22464, Note_on_c, 2, 62, 79
17, 22464, Note_on_c, 2, 66, 79
17, 22592, Note_off_c, 2, 66, 79
17, 22592, Note_off_c, 2, 62, 79
17, 22592, Note_off_c, 2, 59, 79
17, 22656, Note_on_c, 2, 59, 79
17, 22656, Note_on_c, 2, 62, 79
17, 22656, Note_on_c, 2, 66, 79
17, 22720, Note_off_c, 2, 66, 79
17, 22720, Note_off_c, 2, 62, 79
17, 22720, Note_off_c, 2, 59, 79
17, 22752, Note_on_c, 2, 59, 79
17, 22752, Note_on_c, 2, 62, 79
17, 22752, Note_on_c, 2, 66, 79
17, 22816, Note_off_c, 2, 66, 79
17, 22816, Note_off_c, 2, 62, 79
17, 22816, Note_off_c, 2, 59, 79
17, 22848, Note_on_c, 2, 59, 79
17, 22848, Note_on_c, 2, 62, 79
17, 22848, Note_on_c, 2, 66, 79
17, 22912, Note_off_c, 2, 66, 79
17, 22912, Note_off_c, 2, 62, 79
17, 22912, Note_off_c, 2, 59, 79
17, 22944, Note_on_c, 2, 59, 79
17, 22944, Note_on_c, 2, 62, 79
17, 22944, Note_on_c, 2, 66, 79
17, 23008, Note_off_c, 2, 66, 79
17, 23008, Note_off_c, 2, 62, 79
17, 23008, Note_off_c, 2, 59, 79
17, 23040, Note_on_c, 2, 62, 79
17, 23040, Note_on_c, 2, 64, 79
17, 23040, Note_on_c, 2, 68, 79
17, 23040, Note_on_c, 2, 71, 79
17, 23168, Note_off_c, 2, 71, 79
17, 23168, Note_off_c, 2, 68, 79
17, 23168, Note_off_c, 2, 64, 79
17, 23168, Note_off_c, 2, 62, 79
17, 23232, Note_on_c, 2, 62, 79
17, 23232, Note_on_c, 2, 64, 79
17, 23232, Note_on_c, 2, 68, 79
17, 23232, Note_on_c, 2, 71, 79
17, 23360, Note_off_c, 2, 71, 79
17, 23360, Note_off_c, 2, 68, 79
17, 23360, Note_off_c, 2, 64, 79
17, 23360, Note_off_c, 2, 62, 79
17, 23424, Note_on_c, 2, 62, 79
17, 23424, Note_on_c, 2, 64, 79
17, 23424, Note_on_c, 2, 68, 79
17, 23424, Note_on_c, 2, 71, 79
17, 23488, Note_off_c, 2, 71, 79
17, 23488, Note_off_c, 2, 68, 79
17, 23488, Note_off_c, 2, 64, 79
17, 23488, Note_off_c, 2, 62, 79
17, 23520, Note_on_c, 2, 62, 79
17, 23520, Note_on_c, 2, 64, 79
17, 23520, Note_on_c, 2, 68, 79
17, 23520, Note_on_c, 2, 71, 79
17, 23584, Note_off_c, 2, 71, 79
17, 23584, Note_off_c, 2, 68, 79
17, 23584, Note_off_c, 2, 64, 79
17, 23584, Note_off_c, 2, 62, 79
17, 23616, Note_on_c, 2, 62, 79
17, 23616, Note_on_c, 2, 64, 79
17, 23616, Note_on_c, 2, 68, 79
17, 23616, Note_on_c, 2, 71, 79
17, 23680, Note_off_c, 2, 71, 79
17, 23680, Note_off_c, 2, 68, 79
17, 23680, Note_off_c, 2, 64, 79
17, 23680, Note_off_c, 2, 62, 79
17, 23712, Note_on_c, 2, 62, 79
17, 23712, Note_on_c, 2, 64, 79
17, 23712, Note_on_c, 2, 68, 79
17, 23712, Note_on_c, 2, 71, 79
17, 23776, Note_off_c, 2, 71, 79
17, 23776, Note_off_c, 2, 68, 79
17, 23776, Note_off_c, 2, 64, 79
17, 23776, Note_off_c, 2, 62, 79
17, 23808, Note_on_c, 2, 62, 79
17, 23808, Note_on_c, 2, 64, 79
17, 23808, Note_on_c, 2, 68, 79
17, 23808, Note_on_c, 2, 71, 79
17, 23936, Note_off_c, 2, 71, 79
17, 23936, Note_off_c, 2, 68, 79
17, 23936, Note_off_c, 2, 64, 79
17, 23936, Note_off_c, 2, 62, 79
17, 24000, Note_on_c, 2, 62, 79
17, 24000, Note_on_c, 2, 64, 79
17, 24000, Note_on_c, 2, 68, 79
17, 24000, Note_on_c, 2, 71, 79
17, 24128, Note_off_c, 2, 71, 79
17, 24128, Note_off_c, 2, 68, 79
17, 24128, Note_off_c, 2, 64, 79
17, 24128, Note_off_c, 2, 62, 79
17, 24192, Note_on_c, 2, 62, 79
17, 24192, Note_on_c, 2, 64, 79
17, 24192, Note_on_c, 2, 68, 79
17, 24192, Note_on_c, 2, 71, 79
17, 24256, Note_off_c, 2, 71, 79
17, 24256, Note_off_c, 2, 68, 79
17, 24256, Note_off_c, 2, 64, 79
17, 24256, Note_off_c, 2, 62, 79
17, 24288, Note_on_c, 2, 62, 79
17, 24288, Note_on_c, 2, 64, 79
17, 24288, Note_on_c, 2, 68, 79
17, 24288, Note_on_c, 2, 71, 79
17, 24352, Note_off_c, 2, 71, 79
17, 24352, Note_off_c, 2, 68, 79
17, 24352, Note_off_c, 2, 64, 79
17, 24352, Note_off_c, 2, 62, 79
17, 24384, Note_on_c, 2, 62, 79
17, 24384, Note_on_c, 2, 64, 79
17, 24384, Note_on_c, 2, 68, 79
17, 24384, Note_on_c, 2, 71, 79
17, 24448, Note_off_c, 2, 71, 79
17, 24448, Note_off_c, 2, 68, 79
17, 24448, Note_off_c, 2, 64, 79
17, 24448, Note_off_c, 2, 62, 79
17, 24480, Note_on_c, 2, 62, 79
17, 24480, Note_on_c, 2, 64, 79
17, 24480, Note_on_c, 2, 68, 79
17, 24480, Note_on_c, 2, 71, 79
17, 24544, Note_off_c, 2, 71, 79
17, 24544, Note_off_c, 2, 68, 79
17, 24544, Note_off_c, 2, 64, 79
17, 24544, Note_off_c, 2, 62, 79
17, 24576, Note_on_c, 2, 61, 79
17, 24576, Note_on_c, 2, 57, 79
17, 24576, Note_on_c, 2, 64, 79
17, 24704, Note_off_c, 2, 64, 79
17, 24704, Note_off_c, 2, 57, 79
17, 24704, Note_off_c, 2, 61, 79
17, 24768, Note_on_c, 2, 61, 79
17, 24768, Note_on_c, 2, 57, 79
17, 24768, Note_on_c, 2, 64, 79
17, 24896, Note_off_c, 2, 64, 79
17, 24896, Note_off_c, 2, 57, 79
17, 24896, Note_off_c, 2, 61, 79
17, 24960, Note_on_c, 2, 61, 79
17, 24960, Note_on_c, 2, 57, 79
17, 24960, Note_on_c, 2, 64, 79
17, 25024, Note_off_c, 2, 64, 79
17, 25024, Note_off_c, 2, 57, 79
17, 25024, Note_off_c, 2, 61, 79
17, 25056, Note_on_c, 2, 61, 79
17, 25056, Note_on_c, 2, 57, 79
17, 25056, Note_on_c, 2, 64, 79
17, 25120, Note_off_c, 2, 64, 79
17, 25120, Note_off_c, 2, 57, 79
17, 25120, Note_off_c, 2, 61, 79
17, 25152, Note_on_c, 2, 61, 79
17, 25152, Note_on_c, 2, 57, 79
17, 25152, Note_on_c, 2, 64, 79
17, 25216, Note_off_c, 2, 64, 79
17, 25216, Note_off_c, 2, 57, 79
17, 25216, Note_off_c, 2, 61, 79
17, 25248, Note_on_c, 2, 61, 79
17, 25248, Note_on_c, 2, 57, 79
17, 25248, Note_on_c, 2, 64, 79
17, 25312, Note_off_c, 2, 64, 79
17, 25312, Note_off_c, 2, 57, 79
17, 25312, Note_off_c, 2, 61, 79
17, 25344, Note_on_c, 2, 61, 79
17, 25344, Note_on_c, 2, 64, 79
17, 25344, Note_on_c, 2, 68, 79
17, 25472, Note_off_c, 2, 68, 79
17, 25472, Note_off_c, 2, 64, 79
17, 25472, Note_off_c, 2, 61, 79
17, 25536, Note_on_c, 2, 61, 79
17, 25536, Note_on_c, 2, 64, 79
17, 25536, Note_on_c, 2, 68, 79
17, 25664, Note_off_c, 2, 68, 79
17, 25664, Note_off_c, 2, 64, 79
17, 25664, Note_off_c, 2, 61, 79
17, 25728, Note_on_c, 2, 61, 79
17, 25728, Note_on_c, 2, 64, 79
17, 25728, Note_on_c, 2, 68, 79
17, 25792, Note_off_c, 2, 68, 79
17, 25792, Note_off_c, 2, 64, 79
17, 25792, Note_off_c, 2, 61, 79
17, 25824, Note_on_c, 2, 61, 79
17, 25824, Note_on_c, 2, 64, 79
17, 25824, Note_on_c, 2, 68, 79
17, 25888, Note_off_c, 2, 68, 79
17, 25888, Note_off_c, 2, 64, 79
17, 25888, Note_off_c, 2, 61, 79
17, 25920, Note_on_c, 2, 61, 79
17, 25920, Note_on_c, 2, 64, 79
17, 25920, Note_on_c, 2, 68, 79
17, 25984, Note_off_c, 2, 68, 79
17, 25984, Note_off_c, 2, 64, 79
17, 25984, Note_off_c, 2, 61, 79
17, 26016, Note_on_c, 2, 61, 79
17, 26016, Note_on_c, 2, 64, 79
17, 26016, Note_on_c, 2, 68, 79
17, 26080, Note_off_c, 2, 68, 79
17, 26080, Note_off_c, 2, 64, 79
17, 26080, Note_off_c, 2, 61, 79
17, 26112, Note_on_c, 2, 61, 79
17, 26112, Note_on_c, 2, 66, 79
17, 26112, Note_on_c, 2, 69, 79
17, 26240, Note_off_c, 2, 69, 79
17, 26240, Note_off_c, 2, 66, 79
17, 26240, Note_off_c, 2, 61, 79
17, 26304, Note_on_c, 2, 61, 79
17, 26304, Note_on_c, 2, 66, 79
17, 26304, Note_on_c, 2, 69, 79
17, 26432, Note_off_c, 2, 69, 79
17, 26432, Note_off_c, 2, 66, 79
17, 26432, Note_off_c, 2, 61, 79
17, 26496, Note_on_c, 2, 61, 79
17, 26496, Note_on_c, 2, 66, 79
17, 26496, Note_on_c, 2, 69, 79
17, 26560, Note_off_c, 2, 69, 79
17, 26560, Note_off_c, 2, 66, 79
17, 26560, Note_off_c, 2, 61, 79
17, 26592, Note_on_c, 2, 61, 79
17, 26592, Note_on_c, 2, 66, 79
17, 26592, Note_on_c, 2, 69, 79
17, 26656, Note_off_c, 2, 69, 79
17, 26656, Note_off_c, 2, 66, 79
17, 26656, Note_off_c, 2, 61, 79
17, 26688, Note_on_c, 2, 61, 79
17, 26688, Note_on_c, 2, 66, 79
17, 26688, Note_on_c, 2, 69, 79
17, 26752, Note_off_c, 2, 69, 79
17, 26752, Note_off_c, 2, 66, 79
17, 26752, Note_off_c, 2, 61, 79
17, 26784, Note_on_c, 2, 61, 79
17, 26784, Note_on_c, 2, 66, 79
17, 26784, Note_on_c, 2, 69, 79
17, 26848, Note_off_c, 2, 69, 79
17, 26848, Note_off_c, 2, 66, 79
17, 26848, Note_off_c, 2, 61, 79
17, 26880, Note_on_c, 2, 61, 79
17, 26880, Note_on_c, 2, 64, 79
17, 26880, Note_on_c, 2, 68, 79
17, 27008, Note_off_c, 2, 68, 79
17, 27008, Note_off_c, 2, 64, 79
17, 27008, Note_off_c, 2, 61, 79
17, 27072, Note_on_c, 2, 61, 79
17, 27072, Note_on_c, 2, 64, 79
17, 27072, Note_on_c, 2, 68, 79
17, 27200, Note_off_c, 2, 68, 79
17, 27200, Note_off_c, 2, 64, 79
17, 27200, Note_off_c, 2, 61, 79
17, 27264, Note_on_c, 2, 61, 79
17, 27264, Note_on_c, 2, 64, 79
17, 27264, Note_on_c, 2, 68, 79
17, 27328, Note_off_c, 2, 68, 79
17, 27328, Note_off_c, 2, 64, 79
17, 27328, Note_off_c, 2, 61, 79
17, 27360, Note_on_c, 2, 61, 79
17, 27360, Note_on_c, 2, 64, 79
17, 27360, Note_on_c, 2, 68, 79
17, 27424, Note_off_c, 2, 68, 79
17, 27424, Note_off_c, 2, 64, 79
17, 27424, Note_off_c, 2, 61, 79
17, 27456, Note_on_c, 2, 61, 79
17, 27456, Note_on_c, 2, 64, 79
17, 27456, Note_on_c, 2, 68, 79
17, 27520, Note_off_c, 2, 68, 79
17, 27520, Note_off_c, 2, 64, 79
17, 27520, Note_off_c, 2, 61, 79
17, 27552, Note_on_c, 2, 61, 79
17, 27552, Note_on_c, 2, 64, 79
17, 27552, Note_on_c, 2, 68, 79
17, 27616, Note_off_c, 2, 68, 79
17, 27616, Note_off_c, 2, 64, 79
17, 27616, Note_off_c, 2, 61, 79
17, 27648, Note_on_c, 2, 59, 79
17, 27648, Note_on_c, 2, 62, 79
17, 27648, Note_on_c, 2, 66, 79
17, 27776, Note_off_c, 2, 66, 79
17, 27776, Note_off_c, 2, 62, 79
17, 27776, Note_off_c, 2, 59, 79
17, 27840, Note_on_c, 2, 59, 79
17, 27840, Note_on_c, 2, 62, 79
17, 27840, Note_on_c, 2, 66, 79
17, 27968, Note_off_c, 2, 66, 79
17, 27968, Note_off_c, 2, 62, 79
17, 27968, Note_off_c, 2, 59, 79
17, 28032, Note_on_c, 2, 59, 79
17, 28032, Note_on_c, 2, 62, 79
17, 28032, Note_on_c, 2, 66, 79
17, 28096, Note_off_c, 2, 66, 79
17, 28096, Note_off_c, 2, 62, 79
17, 28096, Note_off_c, 2, 59, 79
17, 28128, Note_on_c, 2, 59, 79
17, 28128, Note_on_c, 2, 62, 79
17, 28128, Note_on_c, 2, 66, 79
17, 28192, Note_off_c, 2, 66, 79
17, 28192, Note_off_c, 2, 62, 79
17, 28192, Note_off_c, 2, 59, 79
17, 28224, Note_on_c, 2, 59, 79
17, 28224, Note_on_c, 2, 62, 79
17, 28224, Note_on_c, 2, 66, 79
17, 28288, Note_off_c, 2, 66, 79
17, 28288, Note_off_c, 2, 62, 79
17, 28288, Note_off_c, 2, 59, 79
17, 28320, Note_on_c, 2, 59, 79
17, 28320, Note_on_c, 2, 62, 79
17, 28320, Note_on_c, 2, 66, 79
17, 28384, Note_off_c, 2, 66, 79
17, 28384, Note_off_c, 2, 62, 79
17, 28384, Note_off_c, 2, 59, 79
17, 28416, Note_on_c, 2, 59, 79
17, 28416, Note_on_c, 2, 62, 79
17, 28416, Note_on_c, 2, 66, 79
17, 28544, Note_off_c, 2, 66, 79
17, 28544, Note_off_c, 2, 62, 79
17, 28544, Note_off_c, 2, 59, 79
17, 28608, Note_on_c, 2, 59, 79
17, 28608, Note_on_c, 2, 62, 79
17, 28608, Note_on_c, 2, 66, 79
17, 28736, Note_off_c, 2, 66, 79
17, 28736, Note_off_c, 2, 62, 79
17, 28736, Note_off_c, 2, 59, 79
17, 28800, Note_on_c, 2, 59, 79
17, 28800, Note_on_c, 2, 62, 79
17, 28800, Note_on_c, 2, 66, 79
17, 28864, Note_off_c, 2, 66, 79
17, 28864, Note_off_c, 2, 62, 79
17, 28864, Note_off_c, 2, 59, 79
17, 28896, Note_on_c, 2, 59, 79
17, 28896, Note_on_c, 2, 62, 79
17, 28896, Note_on_c, 2, 66, 79
17, 28960, Note_off_c, 2, 66, 79
17, 28960, Note_off_c, 2, 62, 79
17, 28960, Note_off_c, 2, 59, 79
17, 28992, Note_on_c, 2, 59, 79
17, 28992, Note_on_c, 2, 62, 79
17, 28992, Note_on_c, 2, 66, 79
17, 29056, Note_off_c, 2, 66, 79
17, 29056, Note_off_c, 2, 62, 79
17, 29056, Note_off_c, 2, 59, 79
17, 29088, Note_on_c, 2, 59, 79
17, 29088, Note_on_c, 2, 62, 79
17, 29088, Note_on_c, 2, 66, 79
17, 29152, Note_off_c, 2, 66, 79
17, 29152, Note_off_c, 2, 62, 79
17, 29152, Note_off_c, 2, 59, 79
17, 29184, Note_on_c, 2, 62, 79
17, 29184, Note_on_c, 2, 64, 79
17, 29184, Note_on_c, 2, 68, 79
17, 29184, Note_on_c, 2, 71, 79
17, 29312, Note_off_c, 2, 71, 79
17, 29312, Note_off_c, 2, 68, 79
17, 29312, Note_off_c, 2, 64, 79
17, 29312, Note_off_c, 2, 62, 79
17, 29376, Note_on_c, 2, 62, 79
17, 29376, Note_on_c, 2, 64, 79
17, 29376, Note_on_c, 2, 68, 79
17, 29376, Note_on_c, 2, 71, 79
17, 29504, Note_off_c, 2, 71, 79
17, 29504, Note_off_c, 2, 68, 79
17, 29504, Note_off_c, 2, 64, 79
17, 29504, Note_off_c, 2, 62, 79
17, 29568, Note_on_c, 2, 62, 79
17, 29568, Note_on_c, 2, 64, 79
17, 29568, Note_on_c, 2, 68, 79
17, 29568, Note_on_c, 2, 71, 79
17, 29632, Note_off_c, 2, 71, 79
17, 29632, Note_off_c, 2, 68, 79
17, 29632, Note_off_c, 2, 64, 79
17, 29632, Note_off_c, 2, 62, 79
17, 29664, Note_on_c, 2, 62, 79
17, 29664, Note_on_c, 2, 64, 79
17, 29664, Note_on_c, 2, 68, 79
17, 29664, Note_on_c, 2, 71, 79
17, 29728, Note_off_c, 2, 71, 79
17, 29728, Note_off_c, 2, 68, 79
17, 29728, Note_off_c, 2, 64, 79
17, 29728, Note_off_c, 2, 62, 79
17, 29760, Note_on_c, 2, 62, 79
17, 29760, Note_on_c, 2, 64, 79
17, 29760, Note_on_c, 2, 68, 79
17, 29760, Note_on_c, 2, 71, 79
17, 29824, Note_off_c, 2, 71, 79
17, 29824, Note_off_c, 2, 68, 79
17, 29824, Note_off_c, 2, 64, 79
17, 29824, Note_off_c, 2, 62, 79
17, 29856, Note_on_c, 2, 62, 79
17, 29856, Note_on_c, 2, 64, 79
17, 29856, Note_on_c, 2, 68, 79
17, 29856, Note_on_c, 2, 71, 79
17, 29920, Note_off_c, 2, 71, 79
17, 29920, Note_off_c, 2, 68, 79
17, 29920, Note_off_c, 2, 64, 79
17, 29920, Note_off_c, 2, 62, 79
17, 29952, Note_on_c, 2, 62, 79
17, 29952, Note_on_c, 2, 64, 79
17, 29952, Note_on_c, 2, 68, 79
17, 29952, Note_on_c, 2, 71, 79
17, 30080, Note_off_c, 2, 71, 79
17, 30080, Note_off_c, 2, 68, 79
17, 30080, Note_off_c, 2, 64, 79
17, 30080, Note_off_c, 2, 62, 79
17, 30144, Note_on_c, 2, 62, 79
17, 30144, Note_on_c, 2, 64, 79
17, 30144, Note_on_c, 2, 68, 79
17, 30144, Note_on_c, 2, 71, 79
17, 30272, Note_off_c, 2, 71, 79
17, 30272, Note_off_c, 2, 68, 79
17, 30272, Note_off_c, 2, 64, 79
17, 30272, Note_off_c, 2, 62, 79
17, 30336, Note_on_c, 2, 62, 79
17, 30336, Note_on_c, 2, 64, 79
17, 30336, Note_on_c, 2, 68, 79
17, 30336, Note_on_c, 2, 71, 79
17, 30400, Note_off_c, 2, 71, 79
17, 30400, Note_off_c, 2, 68, 79
17, 30400, Note_off_c, 2, 64, 79
17, 30400, Note_off_c, 2, 62, 79
17, 30432, Note_on_c, 2, 62, 79
17, 30432, Note_on_c, 2, 64, 79
17, 30432, Note_on_c, 2, 68, 79
17, 30432, Note_on_c, 2, 71, 79
17, 30496, Note_off_c, 2, 71, 79
17, 30496, Note_off_c, 2, 68, 79
17, 30496, Note_off_c, 2, 64, 79
17, 30496, Note_off_c, 2, 62, 79
17, 30528, Note_on_c, 2, 62, 79
17, 30528, Note_on_c, 2, 64, 79
17, 30528, Note_on_c, 2, 68, 79
17, 30528, Note_on_c, 2, 71, 79
17, 30592, Note_off_c, 2, 71, 79
17, 30592, Note_off_c, 2, 68, 79
17, 30592, Note_off_c, 2, 64, 79
17, 30592, Note_off_c, 2, 62, 79
17, 30624, Note_on_c, 2, 62, 79
17, 30624, Note_on_c, 2, 64, 79
17, 30624, Note_on_c, 2, 68, 79
17, 30624, Note_on_c, 2, 71, 79
17, 30688, Note_off_c, 2, 71, 79
17, 30688, Note_off_c, 2, 68, 79
17, 30688, Note_off_c, 2, 64, 79
17, 30688, Note_off_c, 2, 62, 79
17, 30720, Note_on_c, 2, 57, 79
17, 30720, Note_on_c, 2, 60, 79
17, 30720, Note_on_c, 2, 64, 79
17, 30848, Note_off_c, 2, 64, 79
17, 30848, Note_off_c, 2, 60, 79
17, 30848, Note_off_c, 2, 57, 79
17, 30912, Note_on_c, 2, 57, 79
17, 30912, Note_on_c, 2, 60, 79
17, 30912, Note_on_c, 2, 64, 79
17, 31040, Note_off_c, 2, 64, 79
17, 31040, Note_off_c, 2, 60, 79
17, 31040, Note_off_c, 2, 57, 79
17, 31104, Note_on_c, 2, 57, 79
17, 31104, Note_on_c, 2, 60, 79
17, 31104, Note_on_c, 2, 64, 79
17, 31168, Note_off_c, 2, 64, 79
17, 31168, Note_off_c, 2, 60, 79
17, 31168, Note_off_c, 2, 57, 79
17, 31200, Note_on_c, 2, 57, 79
17, 31200, Note_on_c, 2, 60, 79
17, 31200, Note_on_c, 2, 64, 79
17, 31264, Note_off_c, 2, 64, 79
17, 31264, Note_off_c, 2, 60, 79
17, 31264, Note_off_c, 2, 57, 79
17, 31296, Note_on_c, 2, 57, 79
17, 31296, Note_on_c, 2, 60, 79
17, 31296, Note_on_c, 2, 64, 79
17, 31360, Note_off_c, 2, 64, 79
17, 31360, Note_off_c, 2, 60, 79
17, 31360, Note_off_c, 2, 57, 79
17, 31392, Note_on_c, 2, 57, 79
17, 31392, Note_on_c, 2, 60, 79
17, 31392, Note_on_c, 2, 64, 79
17, 31456, Note_off_c, 2, 64, 79
17, 31456, Note_off_c, 2, 60, 79
17, 31456, Note_off_c, 2, 57, 79
17, 31488, Note_on_c, 2, 57, 79
17, 31488, Note_on_c, 2, 60, 79
17, 31488, Note_on_c, 2, 64, 79
17, 31488, Note_on_c, 2, 67, 79
17, 31616, Note_off_c, 2, 67, 79
17, 31616, Note_off_c, 2, 64, 79
17, 31616, Note_off_c, 2, 60, 79
17, 31616, Note_off_c, 2, 57, 79
17, 31680, Note_on_c, 2, 57, 79
17, 31680, Note_on_c, 2, 60, 79
17, 31680, Note_on_c, 2, 64, 79
17, 31680, Note_on_c, 2, 67, 79
17, 31808, Note_off_c, 2, 67, 79
17, 31808, Note_off_c, 2, 64, 79
17, 31808, Note_off_c, 2, 60, 79
17, 31808, Note_off_c, 2, 57, 79
17, 31872, Note_on_c, 2, 57, 79
17, 31872, Note_on_c, 2, 60, 79
17, 31872, Note_on_c, 2, 64, 79
17, 31872, Note_on_c, 2, 67, 79
17, 31936, Note_off_c, 2, 67, 79
17, 31936, Note_off_c, 2, 64, 79
17, 31936, Note_off_c, 2, 60, 79
17, 31936, Note_off_c, 2, 57, 79
17, 31968, Note_on_c, 2, 57, 79
17, 31968, Note_on_c, 2, 60, 79
17, 31968, Note_on_c, 2, 64, 79
17, 31968, Note_on_c, 2, 67, 79
17, 32032, Note_off_c, 2, 67, 79
17, 32032, Note_off_c, 2, 64, 79
17, 32032, Note_off_c, 2, 60, 79
17, 32032, Note_off_c, 2, 57, 79
17, 32064, Note_on_c, 2, 57, 79
17, 32064, Note_on_c, 2, 60, 79
17, 32064, Note_on_c, 2, 64, 79
17, 32064, Note_on_c, 2, 67, 79
17, 32128, Note_off_c, 2, 67, 79
17, 32128, Note_off_c, 2, 64, 79
17, 32128, Note_off_c, 2, 60, 79
17, 32128, Note_off_c, 2, 57, 79
17, 32160, Note_on_c, 2, 57, 79
17, 32160, Note_on_c, 2, 60, 79
17, 32160, Note_on_c, 2, 64, 79
17, 32160, Note_on_c, 2, 67, 79
17, 32224, Note_off_c, 2, 67, 79
17, 32224, Note_off_c, 2, 64, 79
17, 32224, Note_off_c, 2, 60, 79
17, 32224, Note_off_c, 2, 57, 79
17, 32256, Note_on_c, 2, 62, 79
17, 32256, Note_on_c, 2, 66, 79
17, 32256, Note_on_c, 2, 69, 79
17, 32256, Note_on_c, 2, 72, 79
17, 32384, Note_off_c, 2, 72, 79
17, 32384, Note_off_c, 2, 69, 79
17, 32384, Note_off_c, 2, 66, 79
17, 32384, Note_off_c, 2, 62, 79
17, 32448, Note_on_c, 2, 62, 79
17, 32448, Note_on_c, 2, 66, 79
17, 32448, Note_on_c, 2, 69, 79
17, 32448, Note_on_c, 2, 72, 79
17, 32576, Note_off_c, 2, 72, 79
17, 32576, Note_off_c, 2, 69, 79
17, 32576, Note_off_c, 2, 66, 79
17, 32576, Note_off_c, 2, 62, 79
17, 32640, Note_on_c, 2, 62, 79
17, 32640, Note_on_c, 2, 66, 79
17, 32640, Note_on_c, 2, 69, 79
17, 32640, Note_on_c, 2, 72, 79
17, 32704, Note_off_c, 2, 72, 79
17, 32704, Note_off_c, 2, 69, 79
17, 32704, Note_off_c, 2, 66, 79
17, 32704, Note_off_c, 2, 62, 79
17, 32736, Note_on_c, 2, 62, 79
17, 32736, Note_on_c, 2, 66, 79
17, 32736, Note_on_c, 2, 69, 79
17, 32736, Note_on_c, 2, 72, 79
17, 32800, Note_off_c, 2, 72, 79
17, 32800, Note_off_c, 2, 69, 79
17, 32800, Note_off_c, 2, 66, 79
17, 32800, Note_off_c, 2, 62, 79
17, 32832, Note_on_c, 2, 62, 79
17, 32832, Note_on_c, 2, 66, 79
17, 32832, Note_on_c, 2, 69, 79
17, 32832, Note_on_c, 2, 72, 79
17, 32896, Note_off_c, 2, 72, 79
17, 32896, Note_off_c, 2, 69, 79
17, 32896, Note_off_c, 2, 66, 79
17, 32896, Note_off_c, 2, 62, 79
17, 32928, Note_on_c, 2, 62, 79
17, 32928, Note_on_c, 2, 66, 79
17, 32928, Note_on_c, 2, 69, 79
17, 32928, Note_on_c, 2, 72, 79
17, 32992, Note_off_c, 2, 72, 79
17, 32992, Note_off_c, 2, 69, 79
17, 32992, Note_off_c, 2, 66, 79
17, 32992, Note_off_c, 2, 62, 79
17, 33024, Note_on_c, 2, 64, 79
17, 33024, Note_on_c, 2, 65, 79
17, 33024, Note_on_c, 2, 69, 79
17, 33024, Note_on_c, 2, 72, 79
17, 33152, Note_off_c, 2, 72, 79
17, 33152, Note_off_c, 2, 69, 79
17, 33152, Note_off_c, 2, 65, 79
17, 33152, Note_off_c, 2, 64, 79
17, 33216, Note_on_c, 2, 64, 79
17, 33216, Note_on_c, 2, 65, 79
17, 33216, Note_on_c, 2, 69, 79
17, 33216, Note_on_c, 2, 72, 79
17, 33344, Note_off_c, 2, 72, 79
17, 33344, Note_off_c, 2, 69, 79
17, 33344, Note_off_c, 2, 65, 79
17, 33344, Note_off_c, 2, 64, 79
17, 33408, Note_on_c, 2, 64, 79
17, 33408, Note_on_c, 2, 65, 79
17, 33408, Note_on_c, 2, 69, 79
17, 33408, Note_on_c, 2, 72, 79
17, 33472, Note_off_c, 2, 72, 79
17, 33472, Note_off_c, 2, 69, 79
17, 33472, Note_off_c, 2, 65, 79
17, 33472, Note_off_c, 2, 64, 79
17, 33504, Note_on_c, 2, 64, 79
17, 33504, Note_on_c, 2, 65, 79
17, 33504, Note_on_c, 2, 69, 79
17, 33504, Note_on_c, 2, 72, 79
17, 33568, Note_off_c, 2, 72, 79
17, 33568, Note_off_c, 2, 69, 79
17, 33568, Note_off_c, 2, 65, 79
17, 33568, Note_off_c, 2, 64, 79
17, 33600, Note_on_c, 2, 64, 79
17, 33600, Note_on_c, 2, 65, 79
17, 33600, Note_on_c, 2, 69, 79
17, 33600, Note_on_c, 2, 72, 79
17, 33664, Note_off_c, 2, 72, 79
17, 33664, Note_off_c, 2, 69, 79
17, 33664, Note_off_c, 2, 65, 79
17, 33664, Note_off_c, 2, 64, 79
17, 33696, Note_on_c, 2, 64, 79
17, 33696, Note_on_c, 2, 65, 79
17, 33696, Note_on_c, 2, 69, 79
17, 33696, Note_on_c, 2, 72, 79
17, 33760, Note_off_c, 2, 72, 79
17, 33760, Note_off_c, 2, 69, 79
17, 33760, Note_off_c, 2, 65, 79
17, 33760, Note_off_c, 2, 64, 79
17, 33792, Note_on_c, 2, 57, 79
17, 33792, Note_on_c, 2, 60, 79
17, 33792, Note_on_c, 2, 64, 79
17, 33920, Note_off_c, 2, 64, 79
17, 33920, Note_off_c, 2, 60, 79
17, 33920, Note_off_c, 2, 57, 79
17, 33984, Note_on_c, 2, 57, 79
17, 33984, Note_on_c, 2, 60, 79
17, 33984, Note_on_c, 2, 64, 79
17, 34112, Note_off_c, 2, 64, 79
17, 34112, Note_off_c, 2, 60, 79
17, 34112, Note_off_c, 2, 57, 79
17, 34176, Note_on_c, 2, 57, 79
17, 34176, Note_on_c, 2, 60, 79
17, 34176, Note_on_c, 2, 64, 79
17, 34240, Note_off_c, 2, 64, 79
17, 34240, Note_off_c, 2, 60, 79
17, 34240, Note_off_c, 2, 57, 79
17, 34272, Note_on_c, 2, 57, 79
17, 34272, Note_on_c, 2, 60, 79
17, 34272, Note_on_c, 2, 64, 79
17, 34336, Note_off_c, 2, 64, 79
17, 34336, Note_off_c, 2, 60, 79
17, 34336, Note_off_c, 2, 57, 79
17, 34368, Note_on_c, 2, 57, 79
17, 34368, Note_on_c, 2, 60, 79
17, 34368, Note_on_c, 2, 64, 79
17, 34432, Note_off_c, 2, 64, 79
17, 34432, Note_off_c, 2, 60, 79
17, 34432, Note_off_c, 2, 57, 79
17, 34464, Note_on_c, 2, 57, 79
17, 34464, Note_on_c, 2, 60, 79
17, 34464, Note_on_c, 2, 64, 79
17, 34528, Note_off_c, 2, 64, 79
17, 34528, Note_off_c, 2, 60, 79
17, 34528, Note_off_c, 2, 57, 79
17, 34560, Note_on_c, 2, 55, 79
17, 34560, Note_on_c, 2, 59, 79
17, 34560, Note_on_c, 2, 62, 79
17, 34688, Note_off_c, 2, 62, 79
17, 34688, Note_off_c, 2, 59, 79
17, 34688, Note_off_c, 2, 55, 79
17, 34752, Note_on_c, 2, 55, 79
17, 34752, Note_on_c, 2, 59, 79
17, 34752, Note_on_c, 2, 62, 79
17, 34880, Note_off_c, 2, 62, 79
17, 34880, Note_off_c, 2, 59, 79
17, 34880, Note_off_c, 2, 55, 79
17, 34944, Note_on_c, 2, 55, 79
17, 34944, Note_on_c, 2, 59, 79
17, 34944, Note_on_c, 2, 62, 79
17, 35008, Note_off_c, 2, 62, 79
17, 35008, Note_off_c, 2, 59, 79
17, 35008, Note_off_c, 2, 55, 79
17, 35040, Note_on_c, 2, 55, 79
17, 35040, Note_on_c, 2, 59, 79
17, 35040, Note_on_c, 2, 62, 79
17, 35104, Note_off_c, 2, 62, 79
17, 35104, Note_off_c, 2, 59, 79
17, 35104, Note_off_c, 2, 55, 79
17, 35136, Note_on_c, 2, 55, 79
17, 35136, Note_on_c, 2, 59, 79
17, 35136, Note_on_c, 2, 62, 79
17, 35200, Note_off_c, 2, 62, 79
17, 35200, Note_off_c, 2, 59, 79
17, 35200, Note_off_c, 2, 55, 79
17, 35232, Note_on_c, 2, 55, 79
17, 35232, Note_on_c, 2, 59, 79
17, 35232, Note_on_c, 2, 62, 79
17, 35296, Note_off_c, 2, 62, 79
17, 35296, Note_off_c, 2, 59, 79
17, 35296, Note_off_c, 2, 55, 79
17, 35328, Note_on_c, 2, 57, 79
17, 35328, Note_on_c, 2, 62, 79
17, 35328, Note_on_c, 2, 66, 79
17, 35456, Note_off_c, 2, 66, 79
17, 35456, Note_off_c, 2, 62, 79
17, 35456, Note_off_c, 2, 57, 79
17, 35520, Note_on_c, 2, 57, 79
17, 35520, Note_on_c, 2, 62, 79
17, 35520, Note_on_c, 2, 66, 79
17, 35648, Note_off_c, 2, 66, 79
17, 35648, Note_off_c, 2, 62, 79
17, 35648, Note_off_c, 2, 57, 79
17, 35712, Note_on_c, 2, 57, 79
17, 35712, Note_on_c, 2, 62, 79
17, 35712, Note_on_c, 2, 66, 79
17, 35776, Note_off_c, 2, 66, 79
17, 35776, Note_off_c, 2, 62, 79
17, 35776, Note_off_c, 2, 57, 79
17, 35808, Note_on_c, 2, 57, 79
17, 35808, Note_on_c, 2, 62, 79
17, 35808, Note_on_c, 2, 66, 79
17, 35872, Note_off_c, 2, 66, 79
17, 35872, Note_off_c, 2, 62, 79
17, 35872, Note_off_c, 2, 57, 79
17, 35904, Note_on_c, 2, 57, 79
17, 35904, Note_on_c, 2, 62, 79
17, 35904, Note_on_c, 2, 66, 79
17, 35968, Note_off_c, 2, 66, 79
17, 35968, Note_off_c, 2, 62, 79
17, 35968, Note_off_c, 2, 57, 79
17, 36000, Note_on_c, 2, 57, 79
17, 36000, Note_on_c, 2, 62, 79
17, 36000, Note_on_c, 2, 66, 79
17, 36064, Note_off_c, 2, 66, 79
17, 36064, Note_off_c, 2, 62, 79
17, 36064, Note_off_c, 2, 57, 79
17, 36096, Note_on_c, 2, 62, 79
17, 36096, Note_on_c, 2, 64, 79
17, 36096, Note_on_c, 2, 68, 79
17, 36096, Note_on_c, 2, 71, 79
17, 36224, Note_off_c, 2, 71, 79
17, 36224, Note_off_c, 2, 68, 79
17, 36224, Note_off_c, 2, 64, 79
17, 36224, Note_off_c, 2, 62, 79
17, 36288, Note_on_c, 2, 62, 79
17, 36288, Note_on_c, 2, 64, 79
17, 36288, Note_on_c, 2, 68, 79
17, 36288, Note_on_c, 2, 71, 79
17, 36416, Note_off_c, 2, 71, 79
17, 36416, Note_off_c, 2, 68, 79
17, 36416, Note_off_c, 2, 64, 79
17, 36416, Note_off_c, 2, 62, 79
17, 36480, Note_on_c, 2, 62, 79
17, 36480, Note_on_c, 2, 64, 79
17, 36480, Note_on_c, 2, 68, 79
17, 36480, Note_on_c, 2, 71, 79
17, 36544, Note_off_c, 2, 71, 79
17, 36544, Note_off_c, 2, 68, 79
17, 36544, Note_off_c, 2, 64, 79
17, 36544, Note_off_c, 2, 62, 79
17, 36576, Note_on_c, 2, 62, 79
17, 36576, Note_on_c, 2, 64, 79
17, 36576, Note_on_c, 2, 68, 79
17, 36576, Note_on_c, 2, 71, 79
17, 36640, Note_off_c, 2, 71, 79
17, 36640, Note_off_c, 2, 68, 79
17, 36640, Note_off_c, 2, 64, 79
17, 36640, Note_off_c, 2, 62, 79
17, 36672, Note_on_c, 2, 62, 79
17, 36672, Note_on_c, 2, 64, 79
17, 36672, Note_on_c, 2, 68, 79
17, 36672, Note_on_c, 2, 71, 79
17, 36736, Note_off_c, 2, 71, 79
17, 36736, Note_off_c, 2, 68, 79
17, 36736, Note_off_c, 2, 64, 79
17, 36736, Note_off_c, 2, 62, 79
17, 36864, Note_on_c, 2, 60, 79
17, 36864, Note_on_c, 2, 57, 79
17, 36864, Note_on_c, 2, 64, 79
17, 36992, Note_off_c, 2, 64, 79
17, 36992, Note_off_c, 2, 57, 79
17, 36992, Note_off_c, 2, 60, 79
17, 37056, Note_on_c, 2, 60, 79
17, 37056, Note_on_c, 2, 57, 79
17, 37056, Note_on_c, 2, 64, 79
17, 37184, Note_off_c, 2, 64, 79
17, 37184, Note_off_c, 2, 57, 79
17, 37184, Note_off_c, 2, 60, 79
17, 37248, Note_on_c, 2, 57, 79
17, 37248, Note_on_c, 2, 60, 79
17, 37248, Note_on_c, 2, 64, 79
17, 37312, Note_off_c, 2, 64, 79
17, 37312, Note_off_c, 2, 60, 79
17, 37312, Note_off_c, 2, 57, 79
17, 37344, Note_on_c, 2, 57, 79
17, 37344, Note_on_c, 2, 60, 79
17, 37344, Note_on_c, 2, 64, 79
17, 37408, Note_off_c, 2, 64, 79
17, 37408, Note_off_c, 2, 60, 79
17, 37408, Note_off_c, 2, 57, 79
17, 37440, Note_on_c, 2, 57, 79
17, 37440, Note_on_c, 2, 60, 79
17, 37440, Note_on_c, 2, 64, 79
17, 37504, Note_off_c, 2, 64, 79
17, 37504, Note_off_c, 2, 60, 79
17, 37504, Note_off_c, 2, 57, 79
17, 37536, Note_on_c, 2, 57, 79
17, 37536, Note_on_c, 2, 60, 79
17, 37536, Note_on_c, 2, 64, 79
17, 37600, Note_off_c, 2, 64, 79
17, 37600, Note_off_c, 2, 60, 79
17, 37600, Note_off_c, 2, 57, 79
17, 37632, Note_on_c, 2, 57, 79
17, 37632, Note_on_c, 2, 60, 79
17, 37632, Note_on_c, 2, 64, 79
17, 37632, Note_on_c, 2, 67, 79
17, 37760, Note_off_c, 2, 67, 79
17, 37760, Note_off_c, 2, 64, 79
17, 37760, Note_off_c, 2, 60, 79
17, 37760, Note_off_c, 2, 57, 79
17, 37824, Note_on_c, 2, 57, 79
17, 37824, Note_on_c, 2, 60, 79
17, 37824, Note_on_c, 2, 64, 79
17, 37824, Note_on_c, 2, 67, 79
17, 37952, Note_off_c, 2, 67, 79
17, 37952, Note_off_c, 2, 64, 79
17, 37952, Note_off_c, 2, 60, 79
17, 37952, Note_off_c, 2, 57, 79
17, 38016, Note_on_c, 2, 57, 79
17, 38016, Note_on_c, 2, 60, 79
17, 38016, Note_on_c, 2, 64, 79
17, 38016, Note_on_c, 2, 67, 79
17, 38080, Note_off_c, 2, 67, 79
17, 38080, Note_off_c, 2, 64, 79
17, 38080, Note_off_c, 2, 60, 79
17, 38080, Note_off_c, 2, 57, 79
17, 38112, Note_on_c, 2, 57, 79
17, 38112, Note_on_c, 2, 60, 79
17, 38112, Note_on_c, 2, 64, 79
17, 38112, Note_on_c, 2, 67, 79
17, 38176, Note_off_c, 2, 67, 79
17, 38176, Note_off_c, 2, 64, 79
17, 38176, Note_off_c, 2, 60, 79
17, 38176, Note_off_c, 2, 57, 79
17, 38208, Note_on_c, 2, 57, 79
17, 38208, Note_on_c, 2, 60, 79
17, 38208, Note_on_c, 2, 64, 79
17, 38208, Note_on_c, 2, 67, 79
17, 38272, Note_off_c, 2, 67, 79
17, 38272, Note_off_c, 2, 64, 79
17, 38272, Note_off_c, 2, 60, 79
17, 38272, Note_off_c, 2, 57, 79
17, 38304, Note_on_c, 2, 57, 79
17, 38304, Note_on_c, 2, 60, 79
17, 38304, Note_on_c, 2, 64, 79
17, 38304, Note_on_c, 2, 67, 79
17, 38368, Note_off_c, 2, 67, 79
17, 38368, Note_off_c, 2, 64, 79
17, 38368, Note_off_c, 2, 60, 79
17, 38368, Note_off_c, 2, 57, 79
17, 38400, Note_on_c, 2, 62, 79
17, 38400, Note_on_c, 2, 66, 79
17, 38400, Note_on_c, 2, 69, 79
17, 38400, Note_on_c, 2, 72, 79
17, 38528, Note_off_c, 2, 72, 79
17, 38528, Note_off_c, 2, 69, 79
17, 38528, Note_off_c, 2, 66, 79
17, 38528, Note_off_c, 2, 62, 79
17, 38592, Note_on_c, 2, 62, 79
17, 38592, Note_on_c, 2, 66, 79
17, 38592, Note_on_c, 2, 69, 79
17, 38592, Note_on_c, 2, 72, 79
17, 38720, Note_off_c, 2, 72, 79
17, 38720, Note_off_c, 2, 69, 79
17, 38720, Note_off_c, 2, 66, 79
17, 38720, Note_off_c, 2, 62, 79
17, 38784, Note_on_c, 2, 62, 79
17, 38784, Note_on_c, 2, 66, 79
17, 38784, Note_on_c, 2, 69, 79
17, 38784, Note_on_c, 2, 72, 79
17, 38848, Note_off_c, 2, 72, 79
17, 38848, Note_off_c, 2, 69, 79
17, 38848, Note_off_c, 2, 66, 79
17, 38848, Note_off_c, 2, 62, 79
17, 38880, Note_on_c, 2, 62, 79
17, 38880, Note_on_c, 2, 66, 79
17, 38880, Note_on_c, 2, 69, 79
17, 38880, Note_on_c, 2, 72, 79
17, 38944, Note_off_c, 2, 72, 79
17, 38944, Note_off_c, 2, 69, 79
17, 38944, Note_off_c, 2, 66, 79
17, 38944, Note_off_c, 2, 62, 79
17, 38976, Note_on_c, 2, 62, 79
17, 38976, Note_on_c, 2, 66, 79
17, 38976, Note_on_c, 2, 69, 79
17, 38976, Note_on_c, 2, 72, 79
17, 39040, Note_off_c, 2, 72, 79
17, 39040, Note_off_c, 2, 69, 79
17, 39040, Note_off_c, 2, 66, 79
17, 39040, Note_off_c, 2, 62, 79
17, 39072, Note_on_c, 2, 62, 79
17, 39072, Note_on_c, 2, 66, 79
17, 39072, Note_on_c, 2, 69, 79
17, 39072, Note_on_c, 2, 72, 79
17, 39136, Note_off_c, 2, 72, 79
17, 39136, Note_off_c, 2, 69, 79
17, 39136, Note_off_c, 2, 66, 79
17, 39136, Note_off_c, 2, 62, 79
17, 39168, Note_on_c, 2, 64, 79
17, 39168, Note_on_c, 2, 65, 79
17, 39168, Note_on_c, 2, 69, 79
17, 39168, Note_on_c, 2, 72, 79
17, 39296, Note_off_c, 2, 72, 79
17, 39296, Note_off_c, 2, 69, 79
17, 39296, Note_off_c, 2, 65, 79
17, 39296, Note_off_c, 2, 64, 79
17, 39360, Note_on_c, 2, 64, 79
17, 39360, Note_on_c, 2, 65, 79
17, 39360, Note_on_c, 2, 69, 79
17, 39360, Note_on_c, 2, 72, 79
17, 39488, Note_off_c, 2, 72, 79
17, 39488, Note_off_c, 2, 69, 79
17, 39488, Note_off_c, 2, 65, 79
17, 39488, Note_off_c, 2, 64, 79
17, 39552, Note_on_c, 2, 64, 79
17, 39552, Note_on_c, 2, 65, 79
17, 39552, Note_on_c, 2, 69, 79
17, 39552, Note_on_c, 2, 72, 79
17, 39616, Note_off_c, 2, 72, 79
17, 39616, Note_off_c, 2, 69, 79
17, 39616, Note_off_c, 2, 65, 79
17, 39616, Note_off_c, 2, 64, 79
17, 39648, Note_on_c, 2, 64, 79
17, 39648, Note_on_c, 2, 65, 79
17, 39648, Note_on_c, 2, 69, 79
17, 39648, Note_on_c, 2, 72, 79
17, 39712, Note_off_c, 2, 72, 79
17, 39712, Note_off_c, 2, 69, 79
17, 39712, Note_off_c, 2, 65, 79
17, 39712, Note_off_c, 2, 64, 79
17, 39744, Note_on_c, 2, 64, 79
17, 39744, Note_on_c, 2, 65, 79
17, 39744, Note_on_c, 2, 69, 79
17, 39744, Note_on_c, 2, 72, 79
17, 39808, Note_off_c, 2, 72, 79
17, 39808, Note_off_c, 2, 69, 79
17, 39808, Note_off_c, 2, 65, 79
17, 39808, Note_off_c, 2, 64, 79
17, 39840, Note_on_c, 2, 64, 79
17, 39840, Note_on_c, 2, 65, 79
17, 39840, Note_on_c, 2, 69, 79
17, 39840, Note_on_c, 2, 72, 79
17, 39904, Note_off_c, 2, 72, 79
17, 39904, Note_off_c, 2, 69, 79
17, 39904, Note_off_c, 2, 65, 79
17, 39904, Note_off_c, 2, 64, 79
17, 39936, Note_on_c, 2, 60, 79
17, 39936, Note_on_c, 2, 57, 79
17, 39936, Note_on_c, 2, 64, 79
17, 40064, Note_off_c, 2, 64, 79
17, 40064, Note_off_c, 2, 57, 79
17, 40064, Note_off_c, 2, 60, 79
17, 40128, Note_on_c, 2, 60, 79
17, 40128, Note_on_c, 2, 57, 79
17, 40128, Note_on_c, 2, 64, 79
17, 40256, Note_off_c, 2, 64, 79
17, 40256, Note_off_c, 2, 57, 79
17, 40256, Note_off_c, 2, 60, 79
17, 40320, Note_on_c, 2, 57, 79
17, 40320, Note_on_c, 2, 60, 79
17, 40320, Note_on_c, 2, 64, 79
17, 40384, Note_off_c, 2, 64, 79
17, 40384, Note_off_c, 2, 60, 79
17, 40384, Note_off_c, 2, 57, 79
17, 40416, Note_on_c, 2, 57, 79
17, 40416, Note_on_c, 2, 60, 79
17, 40416, Note_on_c, 2, 64, 79
17, 40480, Note_off_c, 2, 64, 79
17, 40480, Note_off_c, 2, 60, 79
17, 40480, Note_off_c, 2, 57, 79
17, 40512, Note_on_c, 2, 57, 79
17, 40512, Note_on_c, 2, 60, 79
17, 40512, Note_on_c, 2, 64, 79
17, 40576, Note_off_c, 2, 64, 79
17, 40576, Note_off_c, 2, 60, 79
17, 40576, Note_off_c, 2, 57, 79
17, 40608, Note_on_c, 2, 57, 79
17, 40608, Note_on_c, 2, 60, 79
17, 40608, Note_on_c, 2, 64, 79
17, 40672, Note_off_c, 2, 64, 79
17, 40672, Note_off_c, 2, 60, 79
17, 40672, Note_off_c, 2, 57, 79
17, 40704, Note_on_c, 2, 55, 79
17, 40704, Note_on_c, 2, 59, 79
17, 40704, Note_on_c, 2, 62, 79
17, 40832, Note_off_c, 2, 62, 79
17, 40832, Note_off_c, 2, 59, 79
17, 40832, Note_off_c, 2, 55, 79
17, 40896, Note_on_c, 2, 55, 79
17, 40896, Note_on_c, 2, 59, 79
17, 40896, Note_on_c, 2, 62, 79
17, 41024, Note_off_c, 2, 62, 79
17, 41024, Note_off_c, 2, 59, 79
17, 41024, Note_off_c, 2, 55, 79
17, 41088, Note_on_c, 2, 55, 79
17, 41088, Note_on_c, 2, 59, 79
17, 41088, Note_on_c, 2, 62, 79
17, 41152, Note_off_c, 2, 62, 79
17, 41152, Note_off_c, 2, 59, 79
17, 41152, Note_off_c, 2, 55, 79
17, 41184, Note_on_c, 2, 55, 79
17, 41184, Note_on_c, 2, 59, 79
17, 41184, Note_on_c, 2, 62, 79
17, 41248, Note_off_c, 2, 62, 79
17, 41248, Note_off_c, 2, 59, 79
17, 41248, Note_off_c, 2, 55, 79
17, 41280, Note_on_c, 2, 55, 79
17, 41280, Note_on_c, 2, 59, 79
17, 41280, Note_on_c, 2, 62, 79
17, 41344, Note_off_c, 2, 62, 79
17, 41344, Note_off_c, 2, 59, 79
17, 41344, Note_off_c, 2, 55, 79
17, 41376, Note_on_c, 2, 55, 79
17, 41376, Note_on_c, 2, 59, 79
17, 41376, Note_on_c, 2, 62, 79
17, 41440, Note_off_c, 2, 62, 79
17, 41440, Note_off_c, 2, 59, 79
17, 41440, Note_off_c, 2, 55, 79
17, 41472, Note_on_c, 2, 55, 79
17, 41472, Note_on_c, 2, 60, 79
17, 41472, Note_on_c, 2, 64, 79
17, 41600, Note_off_c, 2, 64, 79
17, 41600, Note_off_c, 2, 60, 79
17, 41600, Note_off_c, 2, 55, 79
17, 41664, Note_on_c, 2, 55, 79
17, 41664, Note_on_c, 2, 60, 79
17, 41664, Note_on_c, 2, 64, 79
17, 41792, Note_off_c, 2, 64, 79
17, 41792, Note_off_c, 2, 60, 79
17, 41792, Note_off_c, 2, 55, 79
17, 41856, Note_on_c, 2, 55, 79
17, 41856, Note_on_c, 2, 60, 79
17, 41856, Note_on_c, 2, 64, 79
17, 41920, Note_off_c, 2, 64, 79
17, 41920, Note_off_c, 2, 60, 79
17, 41920, Note_off_c, 2, 55, 79
17, 41952, Note_on_c, 2, 55, 79
17, 41952, Note_on_c, 2, 60, 79
17, 41952, Note_on_c, 2, 64, 79
17, 42016, Note_off_c, 2, 64, 79
17, 42016, Note_off_c, 2, 60, 79
17, 42016, Note_off_c, 2, 55, 79
17, 42048, Note_on_c, 2, 55, 79
17, 42048, Note_on_c, 2, 60, 79
17, 42048, Note_on_c, 2, 64, 79
17, 42112, Note_off_c, 2, 64, 79
17, 42112, Note_off_c, 2, 60, 79
17, 42112, Note_off_c, 2, 55, 79
17, 42144, Note_on_c, 2, 55, 79
17, 42144, Note_on_c, 2, 60, 79
17, 42144, Note_on_c, 2, 64, 79
17, 42208, Note_off_c, 2, 64, 79
17, 42208, Note_off_c, 2, 60, 79
17, 42208, Note_off_c, 2, 55, 79
17, 42240, Note_on_c, 2, 62, 79
17, 42240, Note_on_c, 2, 64, 79
17, 42240, Note_on_c, 2, 68, 79
17, 42240, Note_on_c, 2, 71, 79
17, 42368, Note_off_c, 2, 71, 79
17, 42368, Note_off_c, 2, 68, 79
17, 42368, Note_off_c, 2, 64, 79
17, 42368, Note_off_c, 2, 62, 79
17, 42432, Note_on_c, 2, 62, 79
17, 42432, Note_on_c, 2, 64, 79
17, 42432, Note_on_c, 2, 68, 79
17, 42432, Note_on_c, 2, 71, 79
17, 42560, Note_off_c, 2, 71, 79
17, 42560, Note_off_c, 2, 68, 79
17, 42560, Note_off_c, 2, 64, 79
17, 42560, Note_off_c, 2, 62, 79
17, 42624, Note_on_c, 2, 62, 79
17, 42624, Note_on_c, 2, 64, 79
17, 42624, Note_on_c, 2, 68, 79
17, 42624, Note_on_c, 2, 71, 79
17, 42688, Note_off_c, 2, 71, 79
17, 42688, Note_off_c, 2, 68, 79
17, 42688, Note_off_c, 2, 64, 79
17, 42688, Note_off_c, 2, 62, 79
17, 42720, Note_on_c, 2, 62, 79
17, 42720, Note_on_c, 2, 64, 79
17, 42720, Note_on_c, 2, 68, 79
17, 42720, Note_on_c, 2, 71, 79
17, 42784, Note_off_c, 2, 71, 79
17, 42784, Note_off_c, 2, 68, 79
17, 42784, Note_off_c, 2, 64, 79
17, 42784, Note_off_c, 2, 62, 79
17, 42816, Note_on_c, 2, 62, 79
17, 42816, Note_on_c, 2, 64, 79
17, 42816, Note_on_c, 2, 68, 79
17, 42816, Note_on_c, 2, 71, 79
17, 42880, Note_off_c, 2, 71, 79
17, 42880, Note_off_c, 2, 68, 79
17, 42880, Note_off_c, 2, 64, 79
17, 42880, Note_off_c, 2, 62, 79
17, 42912, Note_on_c, 2, 62, 79
17, 42912, Note_on_c, 2, 64, 79
17, 42912, Note_on_c, 2, 68, 79
17, 42912, Note_on_c, 2, 71, 79
17, 42976, Note_off_c, 2, 71, 79
17, 42976, Note_off_c, 2, 68, 79
17, 42976, Note_off_c, 2, 64, 79
17, 42976, Note_off_c, 2, 62, 79
17, 43008, Note_on_c, 2, 60, 79
17, 43008, Note_on_c, 2, 57, 79
17, 43008, Note_on_c, 2, 64, 79
17, 43136, Note_off_c, 2, 64, 79
17, 43136, Note_off_c, 2, 57, 79
17, 43136, Note_off_c, 2, 60, 79
17, 43200, Note_on_c, 2, 57, 79
17, 43200, Note_on_c, 2, 60, 79
17, 43200, Note_on_c, 2, 64, 79
17, 43328, Note_off_c, 2, 64, 79
17, 43328, Note_off_c, 2, 60, 79
17, 43328, Note_off_c, 2, 57, 79
17, 43392, Note_on_c, 2, 57, 79
17, 43392, Note_on_c, 2, 60, 79
17, 43392, Note_on_c, 2, 64, 79
17, 43456, Note_off_c, 2, 64, 79
17, 43456, Note_off_c, 2, 60, 79
17, 43456, Note_off_c, 2, 57, 79
17, 43488, Note_on_c, 2, 57, 79
17, 43488, Note_on_c, 2, 60, 79
17, 43488, Note_on_c, 2, 64, 79
17, 43552, Note_off_c, 2, 64, 79
17, 43552, Note_off_c, 2, 60, 79
17, 43552, Note_off_c, 2, 57, 79
17, 43584, Note_on_c, 2, 57, 79
17, 43584, Note_on_c, 2, 60, 79
17, 43584, Note_on_c, 2, 64, 79
17, 43648, Note_off_c, 2, 64, 79
17, 43648, Note_off_c, 2, 60, 79
17, 43648, Note_off_c, 2, 57, 79
17, 43680, Note_on_c, 2, 57, 79
17, 43680, Note_on_c, 2, 60, 79
17, 43680, Note_on_c, 2, 64, 79
17, 43744, Note_off_c, 2, 64, 79
17, 43744, Note_off_c, 2, 60, 79
17, 43744, Note_off_c, 2, 57, 79
17, 43776, Note_on_c, 2, 57, 79
17, 43776, Note_on_c, 2, 60, 79
17, 43776, Note_on_c, 2, 64, 79
17, 43776, Note_on_c, 2, 67, 79
17, 43904, Note_off_c, 2, 67, 79
17, 43904, Note_off_c, 2, 64, 79
17, 43904, Note_off_c, 2, 60, 79
17, 43904, Note_off_c, 2, 57, 79
17, 43968, Note_on_c, 2, 57, 79
17, 43968, Note_on_c, 2, 60, 79
17, 43968, Note_on_c, 2, 64, 79
17, 43968, Note_on_c, 2, 67, 79
17, 44096, Note_off_c, 2, 67, 79
17, 44096, Note_off_c, 2, 64, 79
17, 44096, Note_off_c, 2, 60, 79
17, 44096, Note_off_c, 2, 57, 79
17, 44160, Note_on_c, 2, 57, 79
17, 44160, Note_on_c, 2, 60, 79
17, 44160, Note_on_c, 2, 64, 79
17, 44160, Note_on_c, 2, 67, 79
17, 44224, Note_off_c, 2, 67, 79
17, 44224, Note_off_c, 2, 64, 79
17, 44224, Note_off_c, 2, 60, 79
17, 44224, Note_off_c, 2, 57, 79
17, 44256, Note_on_c, 2, 57, 79
17, 44256, Note_on_c, 2, 60, 79
17, 44256, Note_on_c, 2, 64, 79
17, 44256, Note_on_c, 2, 67, 79
17, 44320, Note_off_c, 2, 67, 79
17, 44320, Note_off_c, 2, 64, 79
17, 44320, Note_off_c, 2, 60, 79
17, 44320, Note_off_c, 2, 57, 79
17, 44352, Note_on_c, 2, 57, 79
17, 44352, Note_on_c, 2, 60, 79
17, 44352, Note_on_c, 2, 64, 79
17, 44352, Note_on_c, 2, 67, 79
17, 44416, Note_off_c, 2, 67, 79
17, 44416, Note_off_c, 2, 64, 79
17, 44416, Note_off_c, 2, 60, 79
17, 44416, Note_off_c, 2, 57, 79
17, 44448, Note_on_c, 2, 57, 79
17, 44448, Note_on_c, 2, 60, 79
17, 44448, Note_on_c, 2, 64, 79
17, 44448, Note_on_c, 2, 67, 79
17, 44512, Note_off_c, 2, 67, 79
17, 44512, Note_off_c, 2, 64, 79
17, 44512, Note_off_c, 2, 60, 79
17, 44512, Note_off_c, 2, 57, 79
17, 44544, Note_on_c, 2, 62, 79
17, 44544, Note_on_c, 2, 66, 79
17, 44544, Note_on_c, 2, 69, 79
17, 44544, Note_on_c, 2, 72, 79
17, 44672, Note_off_c, 2, 72, 79
17, 44672, Note_off_c, 2, 69, 79
17, 44672, Note_off_c, 2, 66, 79
17, 44672, Note_off_c, 2, 62, 79
17, 44736, Note_on_c, 2, 62, 79
17, 44736, Note_on_c, 2, 66, 79
17, 44736, Note_on_c, 2, 69, 79
17, 44736, Note_on_c, 2, 72, 79
17, 44864, Note_off_c, 2, 72, 79
17, 44864, Note_off_c, 2, 69, 79
17, 44864, Note_off_c, 2, 66, 79
17, 44864, Note_off_c, 2, 62, 79
17, 44928, Note_on_c, 2, 62, 79
17, 44928, Note_on_c, 2, 66, 79
17, 44928, Note_on_c, 2, 69, 79
17, 44928, Note_on_c, 2, 72, 79
17, 44992, Note_off_c, 2, 72, 79
17, 44992, Note_off_c, 2, 69, 79
17, 44992, Note_off_c, 2, 66, 79
17, 44992, Note_off_c, 2, 62, 79
17, 45024, Note_on_c, 2, 62, 79
17, 45024, Note_on_c, 2, 66, 79
17, 45024, Note_on_c, 2, 69, 79
17, 45024, Note_on_c, 2, 72, 79
17, 45088, Note_off_c, 2, 72, 79
17, 45088, Note_off_c, 2, 69, 79
17, 45088, Note_off_c, 2, 66, 79
17, 45088, Note_off_c, 2, 62, 79
17, 45120, Note_on_c, 2, 62, 79
17, 45120, Note_on_c, 2, 66, 79
17, 45120, Note_on_c, 2, 69, 79
17, 45120, Note_on_c, 2, 72, 79
17, 45184, Note_off_c, 2, 72, 79
17, 45184, Note_off_c, 2, 69, 79
17, 45184, Note_off_c, 2, 66, 79
17, 45184, Note_off_c, 2, 62, 79
17, 45216, Note_on_c, 2, 62, 79
17, 45216, Note_on_c, 2, 66, 79
17, 45216, Note_on_c, 2, 69, 79
17, 45216, Note_on_c, 2, 72, 79
17, 45280, Note_off_c, 2, 72, 79
17, 45280, Note_off_c, 2, 69, 79
17, 45280, Note_off_c, 2, 66, 79
17, 45280, Note_off_c, 2, 62, 79
17, 45312, Note_on_c, 2, 64, 79
17, 45312, Note_on_c, 2, 65, 79
17, 45312, Note_on_c, 2, 69, 79
17, 45312, Note_on_c, 2, 72, 79
17, 45440, Note_off_c, 2, 72, 79
17, 45440, Note_off_c, 2, 69, 79
17, 45440, Note_off_c, 2, 65, 79
17, 45440, Note_off_c, 2, 64, 79
17, 45504, Note_on_c, 2, 64, 79
17, 45504, Note_on_c, 2, 65, 79
17, 45504, Note_on_c, 2, 69, 79
17, 45504, Note_on_c, 2, 72, 79
17, 45632, Note_off_c, 2, 72, 79
17, 45632, Note_off_c, 2, 69, 79
17, 45632, Note_off_c, 2, 65, 79
17, 45632, Note_off_c, 2, 64, 79
17, 45696, Note_on_c, 2, 64, 79
17, 45696, Note_on_c, 2, 65, 79
17, 45696, Note_on_c, 2, 69, 79
17, 45696, Note_on_c, 2, 72, 79
17, 45760, Note_off_c, 2, 72, 79
17, 45760, Note_off_c, 2, 69, 79
17, 45760, Note_off_c, 2, 65, 79
17, 45760, Note_off_c, 2, 64, 79
17, 45792, Note_on_c, 2, 64, 79
17, 45792, Note_on_c, 2, 65, 79
17, 45792, Note_on_c, 2, 69, 79
17, 45792, Note_on_c, 2, 72, 79
17, 45856, Note_off_c, 2, 72, 79
17, 45856, Note_off_c, 2, 69, 79
17, 45856, Note_off_c, 2, 65, 79
17, 45856, Note_off_c, 2, 64, 79
17, 45888, Note_on_c, 2, 64, 79
17, 45888, Note_on_c, 2, 65, 79
17, 45888, Note_on_c, 2, 69, 79
17, 45888, Note_on_c, 2, 72, 79
17, 45952, Note_off_c, 2, 72, 79
17, 45952, Note_off_c, 2, 69, 79
17, 45952, Note_off_c, 2, 65, 79
17, 45952, Note_off_c, 2, 64, 79
17, 45984, Note_on_c, 2, 64, 79
17, 45984, Note_on_c, 2, 65, 79
17, 45984, Note_on_c, 2, 69, 79
17, 45984, Note_on_c, 2, 72, 79
17, 46048, Note_off_c, 2, 72, 79
17, 46048, Note_off_c, 2, 69, 79
17, 46048, Note_off_c, 2, 65, 79
17, 46048, Note_off_c, 2, 64, 79
17, 46080, Note_on_c, 2, 60, 79
17, 46080, Note_on_c, 2, 57, 79
17, 46080, Note_on_c, 2, 64, 79
17, 46208, Note_off_c, 2, 64, 79
17, 46208, Note_off_c, 2, 57, 79
17, 46208, Note_off_c, 2, 60, 79
17, 46272, Note_on_c, 2, 60, 79
17, 46272, Note_on_c, 2, 57, 79
17, 46272, Note_on_c, 2, 64, 79
17, 46400, Note_off_c, 2, 64, 79
17, 46400, Note_off_c, 2, 57, 79
17, 46400, Note_off_c, 2, 60, 79
17, 46464, Note_on_c, 2, 57, 79
17, 46464, Note_on_c, 2, 60, 79
17, 46464, Note_on_c, 2, 64, 79
17, 46528, Note_off_c, 2, 64, 79
17, 46528, Note_off_c, 2, 60, 79
17, 46528, Note_off_c, 2, 57, 79
17, 46560, Note_on_c, 2, 57, 79
17, 46560, Note_on_c, 2, 60, 79
17, 46560, Note_on_c, 2, 64, 79
17, 46624, Note_off_c, 2, 64, 79
17, 46624, Note_off_c, 2, 60, 79
17, 46624, Note_off_c, 2, 57, 79
17, 46656, Note_on_c, 2, 57, 79
17, 46656, Note_on_c, 2, 60, 79
17, 46656, Note_on_c, 2, 64, 79
17, 46720, Note_off_c, 2, 64, 79
17, 46720, Note_off_c, 2, 60, 79
17, 46720, Note_off_c, 2, 57, 79
17, 46752, Note_on_c, 2, 57, 79
17, 46752, Note_on_c, 2, 60, 79
17, 46752, Note_on_c, 2, 64, 79
17, 46816, Note_off_c, 2, 64, 79
17, 46816, Note_off_c, 2, 60, 79
17, 46816, Note_off_c, 2, 57, 79
17, 46848, Note_on_c, 2, 55, 79
17, 46848, Note_on_c, 2, 59, 79
17, 46848, Note_on_c, 2, 62, 79
17, 46976, Note_off_c, 2, 62, 79
17, 46976, Note_off_c, 2, 59, 79
17, 46976, Note_off_c, 2, 55, 79
17, 47040, Note_on_c, 2, 55, 79
17, 47040, Note_on_c, 2, 59, 79
17, 47040, Note_on_c, 2, 62, 79
17, 47168, Note_off_c, 2, 62, 79
17, 47168, Note_off_c, 2, 59, 79
17, 47168, Note_off_c, 2, 55, 79
17, 47232, Note_on_c, 2, 55, 79
17, 47232, Note_on_c, 2, 59, 79
17, 47232, Note_on_c, 2, 62, 79
17, 47296, Note_off_c, 2, 62, 79
17, 47296, Note_off_c, 2, 59, 79
17, 47296, Note_off_c, 2, 55, 79
17, 47328, Note_on_c, 2, 55, 79
17, 47328, Note_on_c, 2, 59, 79
17, 47328, Note_on_c, 2, 62, 79
17, 47392, Note_off_c, 2, 62, 79
17, 47392, Note_off_c, 2, 59, 79
17, 47392, Note_off_c, 2, 55, 79
17, 47424, Note_on_c, 2, 55, 79
17, 47424, Note_on_c, 2, 59, 79
17, 47424, Note_on_c, 2, 62, 79
17, 47488, Note_off_c, 2, 62, 79
17, 47488, Note_off_c, 2, 59, 79
17, 47488, Note_off_c, 2, 55, 79
17, 47520, Note_on_c, 2, 55, 79
17, 47520, Note_on_c, 2, 59, 79
17, 47520, Note_on_c, 2, 62, 79
17, 47584, Note_off_c, 2, 62, 79
17, 47584, Note_off_c, 2, 59, 79
17, 47584, Note_off_c, 2, 55, 79
17, 47616, Note_on_c, 2, 57, 79
17, 47616, Note_on_c, 2, 62, 79
17, 47616, Note_on_c, 2, 66, 79
17, 47744, Note_off_c, 2, 66, 79
17, 47744, Note_off_c, 2, 62, 79
17, 47744, Note_off_c, 2, 57, 79
17, 47808, Note_on_c, 2, 57, 79
17, 47808, Note_on_c, 2, 62, 79
17, 47808, Note_on_c, 2, 66, 79
17, 47936, Note_off_c, 2, 66, 79
17, 47936, Note_off_c, 2, 62, 79
17, 47936, Note_off_c, 2, 57, 79
17, 48000, Note_on_c, 2, 57, 79
17, 48000, Note_on_c, 2, 62, 79
17, 48000, Note_on_c, 2, 66, 79
17, 48064, Note_off_c, 2, 66, 79
17, 48064, Note_off_c, 2, 62, 79
17, 48064, Note_off_c, 2, 57, 79
17, 48096, Note_on_c, 2, 57, 79
17, 48096, Note_on_c, 2, 62, 79
17, 48096, Note_on_c, 2, 66, 79
17, 48160, Note_off_c, 2, 66, 79
17, 48160, Note_off_c, 2, 62, 79
17, 48160, Note_off_c, 2, 57, 79
17, 48192, Note_on_c, 2, 57, 79
17, 48192, Note_on_c, 2, 62, 79
17, 48192, Note_on_c, 2, 66, 79
17, 48256, Note_off_c, 2, 66, 79
17, 48256, Note_off_c, 2, 62, 79
17, 48256, Note_off_c, 2, 57, 79
17, 48288, Note_on_c, 2, 57, 79
17, 48288, Note_on_c, 2, 62, 79
17, 48288, Note_on_c, 2, 66, 79
17, 48352, Note_off_c, 2, 66, 79
17, 48352, Note_off_c, 2, 62, 79
17, 48352, Note_off_c, 2, 57, 79
17, 48384, Note_on_c, 2, 62, 79
17, 48384, Note_on_c, 2, 64, 79
17, 48384, Note_on_c, 2, 68, 79
17, 48384, Note_on_c, 2, 71, 79
17, 48512, Note_off_c, 2, 71, 79
17, 48512, Note_off_c, 2, 68, 79
17, 48512, Note_off_c, 2, 64, 79
17, 48512, Note_off_c, 2, 62, 79
17, 48576, Note_on_c, 2, 62, 79
17, 48576, Note_on_c, 2, 64, 79
17, 48576, Note_on_c, 2, 68, 79
17, 48576, Note_on_c, 2, 71, 79
17, 48704, Note_off_c, 2, 71, 79
17, 48704, Note_off_c, 2, 68, 79
17, 48704, Note_off_c, 2, 64, 79
17, 48704, Note_off_c, 2, 62, 79
17, 48768, Note_on_c, 2, 62, 79
17, 48768, Note_on_c, 2, 64, 79
17, 48768, Note_on_c, 2, 68, 79
17, 48768, Note_on_c, 2, 71, 79
17, 48832, Note_off_c, 2, 71, 79
17, 48832, Note_off_c, 2, 68, 79
17, 48832, Note_off_c, 2, 64, 79
17, 48832, Note_off_c, 2, 62, 79
17, 48864, Note_on_c, 2, 62, 79
17, 48864, Note_on_c, 2, 64, 79
17, 48864, Note_on_c, 2, 68, 79
17, 48864, Note_on_c, 2, 71, 79
17, 48928, Note_off_c, 2, 71, 79
17, 48928, Note_off_c, 2, 68, 79
17, 48928, Note_off_c, 2, 64, 79
17, 48928, Note_off_c, 2, 62, 79
17, 48960, Note_on_c, 2, 62, 79
17, 48960, Note_on_c, 2, 64, 79
17, 48960, Note_on_c, 2, 68, 79
17, 48960, Note_on_c, 2, 71, 79
17, 49024, Note_off_c, 2, 71, 79
17, 49024, Note_off_c, 2, 68, 79
17, 49024, Note_off_c, 2, 64, 79
17, 49024, Note_off_c, 2, 62, 79
17, 49056, Note_on_c, 2, 62, 79
17, 49056, Note_on_c, 2, 64, 79
17, 49056, Note_on_c, 2, 68, 79
17, 49056, Note_on_c, 2, 71, 79
17, 49120, Note_off_c, 2, 71, 79
17, 49120, Note_off_c, 2, 68, 79
17, 49120, Note_off_c, 2, 64, 79
17, 49120, Note_off_c, 2, 62, 79
17, 49152, Note_on_c, 2, 57, 79
17, 49152, Note_on_c, 2, 60, 79
17, 49152, Note_on_c, 2, 64, 79
17, 49280, Note_off_c, 2, 64, 79
17, 49280, Note_off_c, 2, 60, 79
17, 49280, Note_off_c, 2, 57, 79
17, 49344, Note_on_c, 2, 57, 79
17, 49344, Note_on_c, 2, 60, 79
17, 49344, Note_on_c, 2, 64, 79
17, 49472, Note_off_c, 2, 64, 79
17, 49472, Note_off_c, 2, 60, 79
17, 49472, Note_off_c, 2, 57, 79
17, 49536, Note_on_c, 2, 57, 79
17, 49536, Note_on_c, 2, 60, 79
17, 49536, Note_on_c, 2, 64, 79
17, 49600, Note_off_c, 2, 64, 79
17, 49600, Note_off_c, 2, 60, 79
17, 49600, Note_off_c, 2, 57, 79
17, 49632, Note_on_c, 2, 57, 79
17, 49632, Note_on_c, 2, 60, 79
17, 49632, Note_on_c, 2, 64, 79
17, 49696, Note_off_c, 2, 64, 79
17, 49696, Note_off_c, 2, 60, 79
17, 49696, Note_off_c, 2, 57, 79
17, 49728, Note_on_c, 2, 57, 79
17, 49728, Note_on_c, 2, 60, 79
17, 49728, Note_on_c, 2, 64, 79
17, 49792, Note_off_c, 2, 64, 79
17, 49792, Note_off_c, 2, 60, 79
17, 49792, Note_off_c, 2, 57, 79
17, 49824, Note_on_c, 2, 57, 79
17, 49824, Note_on_c, 2, 60, 79
17, 49824, Note_on_c, 2, 64, 79
17, 49888, Note_off_c, 2, 64, 79
17, 49888, Note_off_c, 2, 60, 79
17, 49888, Note_off_c, 2, 57, 79
17, 49920, Note_on_c, 2, 57, 79
17, 49920, Note_on_c, 2, 60, 79
17, 49920, Note_on_c, 2, 64, 79
17, 49920, Note_on_c, 2, 67, 79
17, 50048, Note_off_c, 2, 67, 79
17, 50048, Note_off_c, 2, 64, 79
17, 50048, Note_off_c, 2, 60, 79
17, 50048, Note_off_c, 2, 57, 79
17, 50112, Note_on_c, 2, 57, 79
17, 50112, Note_on_c, 2, 60, 79
17, 50112, Note_on_c, 2, 64, 79
17, 50112, Note_on_c, 2, 67, 79
17, 50240, Note_off_c, 2, 67, 79
17, 50240, Note_off_c, 2, 64, 79
17, 50240, Note_off_c, 2, 60, 79
17, 50240, Note_off_c, 2, 57, 79
17, 50304, Note_on_c, 2, 57, 79
17, 50304, Note_on_c, 2, 60, 79
17, 50304, Note_on_c, 2, 64, 79
17, 50304, Note_on_c, 2, 67, 79
17, 50368, Note_off_c, 2, 67, 79
17, 50368, Note_off_c, 2, 64, 79
17, 50368, Note_off_c, 2, 60, 79
17, 50368, Note_off_c, 2, 57, 79
17, 50400, Note_on_c, 2, 57, 79
17, 50400, Note_on_c, 2, 60, 79
17, 50400, Note_on_c, 2, 64, 79
17, 50400, Note_on_c, 2, 67, 79
17, 50464, Note_off_c, 2, 67, 79
17, 50464, Note_off_c, 2, 64, 79
17, 50464, Note_off_c, 2, 60, 79
17, 50464, Note_off_c, 2, 57, 79
17, 50496, Note_on_c, 2, 57, 79
17, 50496, Note_on_c, 2, 60, 79
17, 50496, Note_on_c, 2, 64, 79
17, 50496, Note_on_c, 2, 67, 79
17, 50560, Note_off_c, 2, 67, 79
17, 50560, Note_off_c, 2, 64, 79
17, 50560, Note_off_c, 2, 60, 79
17, 50560, Note_off_c, 2, 57, 79
17, 50592, Note_on_c, 2, 57, 79
17, 50592, Note_on_c, 2, 60, 79
17, 50592, Note_on_c, 2, 64, 79
17, 50592, Note_on_c, 2, 67, 79
17, 50656, Note_off_c, 2, 67, 79
17, 50656, Note_off_c, 2, 64, 79
17, 50656, Note_off_c, 2, 60, 79
17, 50656, Note_off_c, 2, 57, 79
17, 50688, Note_on_c, 2, 62, 79
17, 50688, Note_on_c, 2, 66, 79
17, 50688, Note_on_c, 2, 69, 79
17, 50688, Note_on_c, 2, 72, 79
17, 50816, Note_off_c, 2, 72, 79
17, 50816, Note_off_c, 2, 69, 79
17, 50816, Note_off_c, 2, 66, 79
17, 50816, Note_off_c, 2, 62, 79
17, 50880, Note_on_c, 2, 62, 79
17, 50880, Note_on_c, 2, 66, 79
17, 50880, Note_on_c, 2, 69, 79
17, 50880, Note_on_c, 2, 72, 79
17, 51008, Note_off_c, 2, 72, 79
17, 51008, Note_off_c, 2, 69, 79
17, 51008, Note_off_c, 2, 66, 79
17, 51008, Note_off_c, 2, 62, 79
17, 51072, Note_on_c, 2, 62, 79
17, 51072, Note_on_c, 2, 66, 79
17, 51072, Note_on_c, 2, 69, 79
17, 51072, Note_on_c, 2, 72, 79
17, 51136, Note_off_c, 2, 72, 79
17, 51136, Note_off_c, 2, 69, 79
17, 51136, Note_off_c, 2, 66, 79
17, 51136, Note_off_c, 2, 62, 79
17, 51168, Note_on_c, 2, 62, 79
17, 51168, Note_on_c, 2, 66, 79
17, 51168, Note_on_c, 2, 69, 79
17, 51168, Note_on_c, 2, 72, 79
17, 51232, Note_off_c, 2, 72, 79
17, 51232, Note_off_c, 2, 69, 79
17, 51232, Note_off_c, 2, 66, 79
17, 51232, Note_off_c, 2, 62, 79
17, 51264, Note_on_c, 2, 62, 79
17, 51264, Note_on_c, 2, 66, 79
17, 51264, Note_on_c, 2, 69, 79
17, 51264, Note_on_c, 2, 72, 79
17, 51328, Note_off_c, 2, 72, 79
17, 51328, Note_off_c, 2, 69, 79
17, 51328, Note_off_c, 2, 66, 79
17, 51328, Note_off_c, 2, 62, 79
17, 51360, Note_on_c, 2, 62, 79
17, 51360, Note_on_c, 2, 66, 79
17, 51360, Note_on_c, 2, 69, 79
17, 51360, Note_on_c, 2, 72, 79
17, 51424, Note_off_c, 2, 72, 79
17, 51424, Note_off_c, 2, 69, 79
17, 51424, Note_off_c, 2, 66, 79
17, 51424, Note_off_c, 2, 62, 79
17, 51456, Note_on_c, 2, 65, 79
17, 51456, Note_on_c, 2, 69, 79
17, 51456, Note_on_c, 2, 72, 79
17, 51456, Note_on_c, 2, 76, 79
17, 51584, Note_off_c, 2, 76, 79
17, 51584, Note_off_c, 2, 72, 79
17, 51584, Note_off_c, 2, 69, 79
17, 51584, Note_off_c, 2, 65, 79
17, 51648, Note_on_c, 2, 65, 79
17, 51648, Note_on_c, 2, 69, 79
17, 51648, Note_on_c, 2, 72, 79
17, 51648, Note_on_c, 2, 76, 79
17, 51776, Note_off_c, 2, 76, 79
17, 51776, Note_off_c, 2, 72, 79
17, 51776, Note_off_c, 2, 69, 79
17, 51776, Note_off_c, 2, 65, 79
17, 51840, Note_on_c, 2, 65, 79
17, 51840, Note_on_c, 2, 69, 79
17, 51840, Note_on_c, 2, 72, 79
17, 51840, Note_on_c, 2, 76, 79
17, 51904, Note_off_c, 2, 76, 79
17, 51904, Note_off_c, 2, 72, 79
17, 51904, Note_off_c, 2, 69, 79
17, 51904, Note_off_c, 2, 65, 79
17, 51936, Note_on_c, 2, 65, 79
17, 51936, Note_on_c, 2, 69, 79
17, 51936, Note_on_c, 2, 72, 79
17, 51936, Note_on_c, 2, 76, 79
17, 52000, Note_off_c, 2, 76, 79
17, 52000, Note_off_c, 2, 72, 79
17, 52000, Note_off_c, 2, 69, 79
17, 52000, Note_off_c, 2, 65, 79
17, 52032, Note_on_c, 2, 65, 79
17, 52032, Note_on_c, 2, 69, 79
17, 52032, Note_on_c, 2, 72, 79
17, 52032, Note_on_c, 2, 76, 79
17, 52096, Note_off_c, 2, 76, 79
17, 52096, Note_off_c, 2, 72, 79
17, 52096, Note_off_c, 2, 69, 79
17, 52096, Note_off_c, 2, 65, 79
17, 52128, Note_on_c, 2, 65, 79
17, 52128, Note_on_c, 2, 69, 79
17, 52128, Note_on_c, 2, 72, 79
17, 52128, Note_on_c, 2, 76, 79
17, 52192, Note_off_c, 2, 76, 79
17, 52192, Note_off_c, 2, 72, 79
17, 52192, Note_off_c, 2, 69, 79
17, 52192, Note_off_c, 2, 65, 79
17, 52224, Note_on_c, 2, 57, 79
17, 52224, Note_on_c, 2, 60, 79
17, 52224, Note_on_c, 2, 64, 79
17, 52352, Note_off_c, 2, 64, 79
17, 52352, Note_off_c, 2, 60, 79
17, 52352, Note_off_c, 2, 57, 79
17, 52416, Note_on_c, 2, 57, 79
17, 52416, Note_on_c, 2, 60, 79
17, 52416, Note_on_c, 2, 64, 79
17, 52544, Note_off_c, 2, 64, 79
17, 52544, Note_off_c, 2, 60, 79
17, 52544, Note_off_c, 2, 57, 79
17, 52608, Note_on_c, 2, 57, 79
17, 52608, Note_on_c, 2, 60, 79
17, 52608, Note_on_c, 2, 64, 79
17, 52672, Note_off_c, 2, 64, 79
17, 52672, Note_off_c, 2, 60, 79
17, 52672, Note_off_c, 2, 57, 79
17, 52704, Note_on_c, 2, 57, 79
17, 52704, Note_on_c, 2, 60, 79
17, 52704, Note_on_c, 2, 64, 79
17, 52768, Note_off_c, 2, 64, 79
17, 52768, Note_off_c, 2, 60, 79
17, 52768, Note_off_c, 2, 57, 79
17, 52800, Note_on_c, 2, 57, 79
17, 52800, Note_on_c, 2, 60, 79
17, 52800, Note_on_c, 2, 64, 79
17, 52864, Note_off_c, 2, 64, 79
17, 52864, Note_off_c, 2, 60, 79
17, 52864, Note_off_c, 2, 57, 79
17, 52896, Note_on_c, 2, 57, 79
17, 52896, Note_on_c, 2, 60, 79
17, 52896, Note_on_c, 2, 64, 79
17, 52960, Note_off_c, 2, 64, 79
17, 52960, Note_off_c, 2, 60, 79
17, 52960, Note_off_c, 2, 57, 79
17, 52992, Note_on_c, 2, 55, 79
17, 52992, Note_on_c, 2, 59, 79
17, 52992, Note_on_c, 2, 62, 79
17, 53120, Note_off_c, 2, 62, 79
17, 53120, Note_off_c, 2, 59, 79
17, 53120, Note_off_c, 2, 55, 79
17, 53184, Note_on_c, 2, 55, 79
17, 53184, Note_on_c, 2, 59, 79
17, 53184, Note_on_c, 2, 62, 79
17, 53312, Note_off_c, 2, 62, 79
17, 53312, Note_off_c, 2, 59, 79
17, 53312, Note_off_c, 2, 55, 79
17, 53376, Note_on_c, 2, 55, 79
17, 53376, Note_on_c, 2, 59, 79
17, 53376, Note_on_c, 2, 62, 79
17, 53440, Note_off_c, 2, 62, 79
17, 53440, Note_off_c, 2, 59, 79
17, 53440, Note_off_c, 2, 55, 79
17, 53472, Note_on_c, 2, 55, 79
17, 53472, Note_on_c, 2, 59, 79
17, 53472, Note_on_c, 2, 62, 79
17, 53536, Note_off_c, 2, 62, 79
17, 53536, Note_off_c, 2, 59, 79
17, 53536, Note_off_c, 2, 55, 79
17, 53568, Note_on_c, 2, 55, 79
17, 53568, Note_on_c, 2, 59, 79
17, 53568, Note_on_c, 2, 62, 79
17, 53632, Note_off_c, 2, 62, 79
17, 53632, Note_off_c, 2, 59, 79
17, 53632, Note_off_c, 2, 55, 79
17, 53664, Note_on_c, 2, 55, 79
17, 53664, Note_on_c, 2, 59, 79
17, 53664, Note_on_c, 2, 62, 79
17, 53728, Note_off_c, 2, 62, 79
17, 53728, Note_off_c, 2, 59, 79
17, 53728, Note_off_c, 2, 55, 79
17, 53760, Note_on_c, 2, 55, 79
17, 53760, Note_on_c, 2, 60, 79
17, 53760, Note_on_c, 2, 64, 79
17, 53888, Note_off_c, 2, 64, 79
17, 53888, Note_off_c, 2, 60, 79
17, 53888, Note_off_c, 2, 55, 79
17, 53952, Note_on_c, 2, 55, 79
17, 53952, Note_on_c, 2, 60, 79
17, 53952, Note_on_c, 2, 64, 79
17, 54080, Note_off_c, 2, 64, 79
17, 54080, Note_off_c, 2, 60, 79
17, 54080, Note_off_c, 2, 55, 79
17, 54144, Note_on_c, 2, 55, 79
17, 54144, Note_on_c, 2, 60, 79
17, 54144, Note_on_c, 2, 64, 79
17, 54208, Note_off_c, 2, 64, 79
17, 54208, Note_off_c, 2, 60, 79
17, 54208, Note_off_c, 2, 55, 79
17, 54240, Note_on_c, 2, 55, 79
17, 54240, Note_on_c, 2, 60, 79
17, 54240, Note_on_c, 2, 64, 79
17, 54304, Note_off_c, 2, 64, 79
17, 54304, Note_off_c, 2, 60, 79
17, 54304, Note_off_c, 2, 55, 79
17, 54336, Note_on_c, 2, 55, 79
17, 54336, Note_on_c, 2, 60, 79
17, 54336, Note_on_c, 2, 64, 79
17, 54400, Note_off_c, 2, 64, 79
17, 54400, Note_off_c, 2, 60, 79
17, 54400, Note_off_c, 2, 55, 79
17, 54432, Note_on_c, 2, 55, 79
17, 54432, Note_on_c, 2, 60, 79
17, 54432, Note_on_c, 2, 64, 79
17, 54496, Note_off_c, 2, 64, 79
17, 54496, Note_off_c, 2, 60, 79
17, 54496, Note_off_c, 2, 55, 79
17, 54528, Note_on_c, 2, 62, 79
17, 54528, Note_on_c, 2, 64, 79
17, 54528, Note_on_c, 2, 68, 79
17, 54528, Note_on_c, 2, 71, 79
17, 54656, Note_off_c, 2, 71, 79
17, 54656, Note_off_c, 2, 68, 79
17, 54656, Note_off_c, 2, 64, 79
17, 54656, Note_off_c, 2, 62, 79
17, 54720, Note_on_c, 2, 62, 79
17, 54720, Note_on_c, 2, 64, 79
17, 54720, Note_on_c, 2, 68, 79
17, 54720, Note_on_c, 2, 71, 79
17, 54848, Note_off_c, 2, 71, 79
17, 54848, Note_off_c, 2, 68, 79
17, 54848, Note_off_c, 2, 64, 79
17, 54848, Note_off_c, 2, 62, 79
17, 54912, Note_on_c, 2, 62, 79
17, 54912, Note_on_c, 2, 64, 79
17, 54912, Note_on_c, 2, 68, 79
17, 54912, Note_on_c, 2, 71, 79
17, 54976, Note_off_c, 2, 71, 79
17, 54976, Note_off_c, 2, 68, 79
17, 54976, Note_off_c, 2, 64, 79
17, 54976, Note_off_c, 2, 62, 79
17, 55008, Note_on_c, 2, 62, 79
17, 55008, Note_on_c, 2, 64, 79
17, 55008, Note_on_c, 2, 68, 79
17, 55008, Note_on_c, 2, 71, 79
17, 55072, Note_off_c, 2, 71, 79
17, 55072, Note_off_c, 2, 68, 79
17, 55072, Note_off_c, 2, 64, 79
17, 55072, Note_off_c, 2, 62, 79
17, 55104, Note_on_c, 2, 62, 79
17, 55104, Note_on_c, 2, 64, 79
17, 55104, Note_on_c, 2, 68, 79
17, 55104, Note_on_c, 2, 71, 79
17, 55168, Note_off_c, 2, 71, 79
17, 55168, Note_off_c, 2, 68, 79
17, 55168, Note_off_c, 2, 64, 79
17, 55168, Note_off_c, 2, 62, 79
17, 55200, Note_on_c, 2, 62, 79
17, 55200, Note_on_c, 2, 64, 79
17, 55200, Note_on_c, 2, 68, 79
17, 55200, Note_on_c, 2, 71, 79
17, 55264, Note_off_c, 2, 71, 79
17, 55264, Note_off_c, 2, 68, 79
17, 55264, Note_off_c, 2, 64, 79
17, 55264, Note_off_c, 2, 62, 79
17, 55296, Note_on_c, 2, 57, 79
17, 55296, Note_on_c, 2, 61, 79
17, 55296, Note_on_c, 2, 64, 79
17, 55424, Note_off_c, 2, 64, 79
17, 55424, Note_off_c, 2, 61, 79
17, 55424, Note_off_c, 2, 57, 79
17, 55488, Note_on_c, 2, 57, 79
17, 55488, Note_on_c, 2, 61, 79
17, 55488, Note_on_c, 2, 64, 79
17, 55616, Note_off_c, 2, 64, 79
17, 55616, Note_off_c, 2, 61, 79
17, 55616, Note_off_c, 2, 57, 79
17, 55680, Note_on_c, 2, 57, 79
17, 55680, Note_on_c, 2, 61, 79
17, 55680, Note_on_c, 2, 64, 79
17, 55744, Note_off_c, 2, 64, 79
17, 55744, Note_off_c, 2, 61, 79
17, 55744, Note_off_c, 2, 57, 79
17, 55776, Note_on_c, 2, 57, 79
17, 55776, Note_on_c, 2, 61, 79
17, 55776, Note_on_c, 2, 64, 79
17, 55840, Note_off_c, 2, 64, 79
17, 55840, Note_off_c, 2, 61, 79
17, 55840, Note_off_c, 2, 57, 79
17, 55872, Note_on_c, 2, 57, 79
17, 55872, Note_on_c, 2, 61, 79
17, 55872, Note_on_c, 2, 64, 79
17, 55936, Note_off_c, 2, 64, 79
17, 55936, Note_off_c, 2, 61, 79
17, 55936, Note_off_c, 2, 57, 79
17, 55968, Note_on_c, 2, 57, 79
17, 55968, Note_on_c, 2, 61, 79
17, 55968, Note_on_c, 2, 64, 79
17, 56032, Note_off_c, 2, 64, 79
17, 56032, Note_off_c, 2, 61, 79
17, 56032, Note_off_c, 2, 57, 79
17, 56064, Note_on_c, 2, 61, 79
17, 56064, Note_on_c, 2, 64, 79
17, 56064, Note_on_c, 2, 68, 79
17, 56192, Note_off_c, 2, 68, 79
17, 56192, Note_off_c, 2, 64, 79
17, 56192, Note_off_c, 2, 61, 79
17, 56256, Note_on_c, 2, 61, 79
17, 56256, Note_on_c, 2, 64, 79
17, 56256, Note_on_c, 2, 68, 79
17, 56384, Note_off_c, 2, 68, 79
17, 56384, Note_off_c, 2, 64, 79
17, 56384, Note_off_c, 2, 61, 79
17, 56448, Note_on_c, 2, 61, 79
17, 56448, Note_on_c, 2, 64, 79
17, 56448, Note_on_c, 2, 68, 79
17, 56512, Note_off_c, 2, 68, 79
17, 56512, Note_off_c, 2, 64, 79
17, 56512, Note_off_c, 2, 61, 79
17, 56544, Note_on_c, 2, 61, 79
17, 56544, Note_on_c, 2, 64, 79
17, 56544, Note_on_c, 2, 68, 79
17, 56608, Note_off_c, 2, 68, 79
17, 56608, Note_off_c, 2, 64, 79
17, 56608, Note_off_c, 2, 61, 79
17, 56640, Note_on_c, 2, 61, 79
17, 56640, Note_on_c, 2, 64, 79
17, 56640, Note_on_c, 2, 68, 79
17, 56704, Note_off_c, 2, 68, 79
17, 56704, Note_off_c, 2, 64, 79
17, 56704, Note_off_c, 2, 61, 79
17, 56736, Note_on_c, 2, 61, 79
17, 56736, Note_on_c, 2, 64, 79
17, 56736, Note_on_c, 2, 68, 79
17, 56800, Note_off_c, 2, 68, 79
17, 56800, Note_off_c, 2, 64, 79
17, 56800, Note_off_c, 2, 61, 79
17, 56832, Note_on_c, 2, 61, 79
17, 56832, Note_on_c, 2, 66, 79
17, 56832, Note_on_c, 2, 69, 79
17, 56960, Note_off_c, 2, 69, 79
17, 56960, Note_off_c, 2, 66, 79
17, 56960, Note_off_c, 2, 61, 79
17, 57024, Note_on_c, 2, 61, 79
17, 57024, Note_on_c, 2, 66, 79
17, 57024, Note_on_c, 2, 69, 79
17, 57152, Note_off_c, 2, 69, 79
17, 57152, Note_off_c, 2, 66, 79
17, 57152, Note_off_c, 2, 61, 79
17, 57216, Note_on_c, 2, 61, 79
17, 57216, Note_on_c, 2, 66, 79
17, 57216, Note_on_c, 2, 69, 79
17, 57280, Note_off_c, 2, 69, 79
17, 57280, Note_off_c, 2, 66, 79
17, 57280, Note_off_c, 2, 61, 79
17, 57312, Note_on_c, 2, 61, 79
17, 57312, Note_on_c, 2, 66, 79
17, 57312, Note_on_c, 2, 69, 79
17, 57376, Note_off_c, 2, 69, 79
17, 57376, Note_off_c, 2, 66, 79
17, 57376, Note_off_c, 2, 61, 79
17, 57408, Note_on_c, 2, 61, 79
17, 57408, Note_on_c, 2, 66, 79
17, 57408, Note_on_c, 2, 69, 79
17, 57472, Note_off_c, 2, 69, 79
17, 57472, Note_off_c, 2, 66, 79
17, 57472, Note_off_c, 2, 61, 79
17, 57504, Note_on_c, 2, 61, 79
17, 57504, Note_on_c, 2, 66, 79
17, 57504, Note_on_c, 2, 69, 79
17, 57568, Note_off_c, 2, 69, 79
17, 57568, Note_off_c, 2, 66, 79
17, 57568, Note_off_c, 2, 61, 79
17, 57600, Note_on_c, 2, 61, 79
17, 57600, Note_on_c, 2, 64, 79
17, 57600, Note_on_c, 2, 68, 79
17, 57728, Note_off_c, 2, 68, 79
17, 57728, Note_off_c, 2, 64, 79
17, 57728, Note_off_c, 2, 61, 79
17, 57792, Note_on_c, 2, 61, 79
17, 57792, Note_on_c, 2, 64, 79
17, 57792, Note_on_c, 2, 68, 79
17, 57920, Note_off_c, 2, 68, 79
17, 57920, Note_off_c, 2, 64, 79
17, 57920, Note_off_c, 2, 61, 79
17, 57984, Note_on_c, 2, 61, 79
17, 57984, Note_on_c, 2, 64, 79
17, 57984, Note_on_c, 2, 68, 79
17, 58048, Note_off_c, 2, 68, 79
17, 58048, Note_off_c, 2, 64, 79
17, 58048, Note_off_c, 2, 61, 79
17, 58080, Note_on_c, 2, 61, 79
17, 58080, Note_on_c, 2, 64, 79
17, 58080, Note_on_c, 2, 68, 79
17, 58144, Note_off_c, 2, 68, 79
17, 58144, Note_off_c, 2, 64, 79
17, 58144, Note_off_c, 2, 61, 79
17, 58176, Note_on_c, 2, 61, 79
17, 58176, Note_on_c, 2, 64, 79
17, 58176, Note_on_c, 2, 68, 79
17, 58240, Note_off_c, 2, 68, 79
17, 58240, Note_off_c, 2, 64, 79
17, 58240, Note_off_c, 2, 61, 79
17, 58272, Note_on_c, 2, 61, 79
17, 58272, Note_on_c, 2, 64, 79
17, 58272, Note_on_c, 2, 68, 79
17, 58336, Note_off_c, 2, 68, 79
17, 58336, Note_off_c, 2, 64, 79
17, 58336, Note_off_c, 2, 61, 79
17, 58368, Note_on_c, 2, 62, 79
17, 58368, Note_on_c, 2, 59, 79
17, 58368, Note_on_c, 2, 66, 79
17, 58496, Note_off_c, 2, 66, 79
17, 58496, Note_off_c, 2, 59, 79
17, 58496, Note_off_c, 2, 62, 79
17, 58560, Note_on_c, 2, 62, 79
17, 58560, Note_on_c, 2, 59, 79
17, 58560, Note_on_c, 2, 66, 79
17, 58688, Note_off_c, 2, 66, 79
17, 58688, Note_off_c, 2, 59, 79
17, 58688, Note_off_c, 2, 62, 79
17, 58752, Note_on_c, 2, 59, 79
17, 58752, Note_on_c, 2, 62, 79
17, 58752, Note_on_c, 2, 66, 79
17, 58816, Note_off_c, 2, 66, 79
17, 58816, Note_off_c, 2, 62, 79
17, 58816, Note_off_c, 2, 59, 79
17, 58848, Note_on_c, 2, 59, 79
17, 58848, Note_on_c, 2, 62, 79
17, 58848, Note_on_c, 2, 66, 79
17, 58912, Note_off_c, 2, 66, 79
17, 58912, Note_off_c, 2, 62, 79
17, 58912, Note_off_c, 2, 59, 79
17, 58944, Note_on_c, 2, 59, 79
17, 58944, Note_on_c, 2, 62, 79
17, 58944, Note_on_c, 2, 66, 79
17, 59008, Note_off_c, 2, 66, 79
17, 59008, Note_off_c, 2, 62, 79
17, 59008, Note_off_c, 2, 59, 79
17, 59040, Note_on_c, 2, 59, 79
17, 59040, Note_on_c, 2, 62, 79
17, 59040, Note_on_c, 2, 66, 79
17, 59104, Note_off_c, 2, 66, 79
17, 59104, Note_off_c, 2, 62, 79
17, 59104, Note_off_c, 2, 59, 79
17, 59136, Note_on_c, 2, 59, 79
17, 59136, Note_on_c, 2, 62, 79
17, 59136, Note_on_c, 2, 66, 79
17, 59264, Note_off_c, 2, 66, 79
17, 59264, Note_off_c, 2, 62, 79
17, 59264, Note_off_c, 2, 59, 79
17, 59328, Note_on_c, 2, 59, 79
17, 59328, Note_on_c, 2, 62, 79
17, 59328, Note_on_c, 2, 66, 79
17, 59456, Note_off_c, 2, 66, 79
17, 59456, Note_off_c, 2, 62, 79
17, 59456, Note_off_c, 2, 59, 79
17, 59520, Note_on_c, 2, 59, 79
17, 59520, Note_on_c, 2, 62, 79
17, 59520, Note_on_c, 2, 66, 79
17, 59584, Note_off_c, 2, 66, 79
17, 59584, Note_off_c, 2, 62, 79
17, 59584, Note_off_c, 2, 59, 79
17, 59616, Note_on_c, 2, 59, 79
17, 59616, Note_on_c, 2, 62, 79
17, 59616, Note_on_c, 2, 66, 79
17, 59680, Note_off_c, 2, 66, 79
17, 59680, Note_off_c, 2, 62, 79
17, 59680, Note_off_c, 2, 59, 79
17, 59712, Note_on_c, 2, 59, 79
17, 59712, Note_on_c, 2, 62, 79
17, 59712, Note_on_c, 2, 66, 79
17, 59776, Note_off_c, 2, 66, 79
17, 59776, Note_off_c, 2, 62, 79
17, 59776, Note_off_c, 2, 59, 79
17, 59808, Note_on_c, 2, 59, 79
17, 59808, Note_on_c, 2, 62, 79
17, 59808, Note_on_c, 2, 66, 79
17, 59872, Note_off_c, 2, 66, 79
17, 59872, Note_off_c, 2, 62, 79
17, 59872, Note_off_c, 2, 59, 79
17, 59904, Note_on_c, 2, 62, 79
17, 59904, Note_on_c, 2, 64, 79
17, 59904, Note_on_c, 2, 68, 79
17, 59904, Note_on_c, 2, 71, 79
17, 60032, Note_off_c, 2, 71, 79
17, 60032, Note_off_c, 2, 68, 79
17, 60032, Note_off_c, 2, 64, 79
17, 60032, Note_off_c, 2, 62, 79
17, 60096, Note_on_c, 2, 62, 79
17, 60096, Note_on_c, 2, 64, 79
17, 60096, Note_on_c, 2, 68, 79
17, 60096, Note_on_c, 2, 71, 79
17, 60224, Note_off_c, 2, 71, 79
17, 60224, Note_off_c, 2, 68, 79
17, 60224, Note_off_c, 2, 64, 79
17, 60224, Note_off_c, 2, 62, 79
17, 60288, Note_on_c, 2, 62, 79
17, 60288, Note_on_c, 2, 64, 79
17, 60288, Note_on_c, 2, 68, 79
17, 60288, Note_on_c, 2, 71, 79
17, 60352, Note_off_c, 2, 71, 79
17, 60352, Note_off_c, 2, 68, 79
17, 60352, Note_off_c, 2, 64, 79
17, 60352, Note_off_c, 2, 62, 79
17, 60384, Note_on_c, 2, 62, 79
17, 60384, Note_on_c, 2, 64, 79
17, 60384, Note_on_c, 2, 68, 79
17, 60384, Note_on_c, 2, 71, 79
17, 60448, Note_off_c, 2, 71, 79
17, 60448, Note_off_c, 2, 68, 79
17, 60448, Note_off_c, 2, 64, 79
17, 60448, Note_off_c, 2, 62, 79
17, 60480, Note_on_c, 2, 62, 79
17, 60480, Note_on_c, 2, 64, 79
17, 60480, Note_on_c, 2, 68, 79
17, 60480, Note_on_c, 2, 71, 79
17, 60544, Note_off_c, 2, 71, 79
17, 60544, Note_off_c, 2, 68, 79
17, 60544, Note_off_c, 2, 64, 79
17, 60544, Note_off_c, 2, 62, 79
17, 60576, Note_on_c, 2, 62, 79
17, 60576, Note_on_c, 2, 64, 79
17, 60576, Note_on_c, 2, 68, 79
17, 60576, Note_on_c, 2, 71, 79
17, 60640, Note_off_c, 2, 71, 79
17, 60640, Note_off_c, 2, 68, 79
17, 60640, Note_off_c, 2, 64, 79
17, 60640, Note_off_c, 2, 62, 79
17, 60672, Note_on_c, 2, 62, 79
17, 60672, Note_on_c, 2, 64, 79
17, 60672, Note_on_c, 2, 68, 79
17, 60672, Note_on_c, 2, 71, 79
17, 60800, Note_off_c, 2, 71, 79
17, 60800, Note_off_c, 2, 68, 79
17, 60800, Note_off_c, 2, 64, 79
17, 60800, Note_off_c, 2, 62, 79
17, 60864, Note_on_c, 2, 62, 79
17, 60864, Note_on_c, 2, 64, 79
17, 60864, Note_on_c, 2, 68, 79
17, 60864, Note_on_c, 2, 71, 79
17, 60992, Note_off_c, 2, 71, 79
17, 60992, Note_off_c, 2, 68, 79
17, 60992, Note_off_c, 2, 64, 79
17, 60992, Note_off_c, 2, 62, 79
17, 61056, Note_on_c, 2, 62, 79
17, 61056, Note_on_c, 2, 64, 79
17, 61056, Note_on_c, 2, 68, 79
17, 61056, Note_on_c, 2, 71, 79
17, 61120, Note_off_c, 2, 71, 79
17, 61120, Note_off_c, 2, 68, 79
17, 61120, Note_off_c, 2, 64, 79
17, 61120, Note_off_c, 2, 62, 79
17, 61152, Note_on_c, 2, 62, 79
17, 61152, Note_on_c, 2, 64, 79
17, 61152, Note_on_c, 2, 68, 79
17, 61152, Note_on_c, 2, 71, 79
17, 61216, Note_off_c, 2, 71, 79
17, 61216, Note_off_c, 2, 68, 79
17, 61216, Note_off_c, 2, 64, 79
17, 61216, Note_off_c, 2, 62, 79
17, 61248, Note_on_c, 2, 62, 79
17, 61248, Note_on_c, 2, 64, 79
17, 61248, Note_on_c, 2, 68, 79
17, 61248, Note_on_c, 2, 71, 79
17, 61312, Note_off_c, 2, 71, 79
17, 61312, Note_off_c, 2, 68, 79
17, 61312, Note_off_c, 2, 64, 79
17, 61312, Note_off_c, 2, 62, 79
17, 61344, Note_on_c, 2, 62, 79
17, 61344, Note_on_c, 2, 64, 79
17, 61344, Note_on_c, 2, 68, 79
17, 61344, Note_on_c, 2, 71, 79
17, 61408, Note_off_c, 2, 71, 79
17, 61408, Note_off_c, 2, 68, 79
17, 61408, Note_off_c, 2, 64, 79
17, 61408, Note_off_c, 2, 62, 79
17, 61440, Note_on_c, 2, 61, 79
17, 61440, Note_on_c, 2, 57, 79
17, 61440, Note_on_c, 2, 64, 79
17, 61568, Note_off_c, 2, 64, 79
17, 61568, Note_off_c, 2, 57, 79
17, 61568, Note_off_c, 2, 61, 79
17, 61632, Note_on_c, 2, 61, 79
17, 61632, Note_on_c, 2, 57, 79
17, 61632, Note_on_c, 2, 64, 79
17, 61760, Note_off_c, 2, 64, 79
17, 61760, Note_off_c, 2, 57, 79
17, 61760, Note_off_c, 2, 61, 79
17, 61824, Note_on_c, 2, 61, 79
17, 61824, Note_on_c, 2, 57, 79
17, 61824, Note_on_c, 2, 64, 79
17, 61888, Note_off_c, 2, 64, 79
17, 61888, Note_off_c, 2, 57, 79
17, 61888, Note_off_c, 2, 61, 79
17, 61920, Note_on_c, 2, 61, 79
17, 61920, Note_on_c, 2, 57, 79
17, 61920, Note_on_c, 2, 64, 79
17, 61984, Note_off_c, 2, 64, 79
17, 61984, Note_off_c, 2, 57, 79
17, 61984, Note_off_c, 2, 61, 79
17, 62016, Note_on_c, 2, 61, 79
17, 62016, Note_on_c, 2, 57, 79
17, 62016, Note_on_c, 2, 64, 79
17, 62080, Note_off_c, 2, 64, 79
17, 62080, Note_off_c, 2, 57, 79
17, 62080, Note_off_c, 2, 61, 79
17, 62112, Note_on_c, 2, 61, 79
17, 62112, Note_on_c, 2, 57, 79
17, 62112, Note_on_c, 2, 64, 79
17, 62176, Note_off_c, 2, 64, 79
17, 62176, Note_off_c, 2, 57, 79
17, 62176, Note_off_c, 2, 61, 79
17, 62208, Note_on_c, 2, 61, 79
17, 62208, Note_on_c, 2, 64, 79
17, 62208, Note_on_c, 2, 68, 79
17, 62336, Note_off_c, 2, 68, 79
17, 62336, Note_off_c, 2, 64, 79
17, 62336, Note_off_c, 2, 61, 79
17, 62400, Note_on_c, 2, 61, 79
17, 62400, Note_on_c, 2, 64, 79
17, 62400, Note_on_c, 2, 68, 79
17, 62528, Note_off_c, 2, 68, 79
17, 62528, Note_off_c, 2, 64, 79
17, 62528, Note_off_c, 2, 61, 79
17, 62592, Note_on_c, 2, 61, 79
17, 62592, Note_on_c, 2, 64, 79
17, 62592, Note_on_c, 2, 68, 79
17, 62656, Note_off_c, 2, 68, 79
17, 62656, Note_off_c, 2, 64, 79
17, 62656, Note_off_c, 2, 61, 79
17, 62688, Note_on_c, 2, 61, 79
17, 62688, Note_on_c, 2, 64, 79
17, 62688, Note_on_c, 2, 68, 79
17, 62752, Note_off_c, 2, 68, 79
17, 62752, Note_off_c, 2, 64, 79
17, 62752, Note_off_c, 2, 61, 79
17, 62784, Note_on_c, 2, 61, 79
17, 62784, Note_on_c, 2, 64, 79
17, 62784, Note_on_c, 2, 68, 79
17, 62848, Note_off_c, 2, 68, 79
17, 62848, Note_off_c, 2, 64, 79
17, 62848, Note_off_c, 2, 61, 79
17, 62880, Note_on_c, 2, 61, 79
17, 62880, Note_on_c, 2, 64, 79
17, 62880, Note_on_c, 2, 68, 79
17, 62944, Note_off_c, 2, 68, 79
17, 62944, Note_off_c, 2, 64, 79
17, 62944, Note_off_c, 2, 61, 79
17, 62976, Note_on_c, 2, 61, 79
17, 62976, Note_on_c, 2, 66, 79
17, 62976, Note_on_c, 2, 69, 79
17, 63104, Note_off_c, 2, 69, 79
17, 63104, Note_off_c, 2, 66, 79
17, 63104, Note_off_c, 2, 61, 79
17, 63168, Note_on_c, 2, 61, 79
17, 63168, Note_on_c, 2, 66, 79
17, 63168, Note_on_c, 2, 69, 79
17, 63296, Note_off_c, 2, 69, 79
17, 63296, Note_off_c, 2, 66, 79
17, 63296, Note_off_c, 2, 61, 79
17, 63360, Note_on_c, 2, 61, 79
17, 63360, Note_on_c, 2, 66, 79
17, 63360, Note_on_c, 2, 69, 79
17, 63424, Note_off_c, 2, 69, 79
17, 63424, Note_off_c, 2, 66, 79
17, 63424, Note_off_c, 2, 61, 79
17, 63456, Note_on_c, 2, 61, 79
17, 63456, Note_on_c, 2, 66, 79
17, 63456, Note_on_c, 2, 69, 79
17, 63520, Note_off_c, 2, 69, 79
17, 63520, Note_off_c, 2, 66, 79
17, 63520, Note_off_c, 2, 61, 79
17, 63552, Note_on_c, 2, 61, 79
17, 63552, Note_on_c, 2, 66, 79
17, 63552, Note_on_c, 2, 69, 79
17, 63616, Note_off_c, 2, 69, 79
17, 63616, Note_off_c, 2, 66, 79
17, 63616, Note_off_c, 2, 61, 79
17, 63648, Note_on_c, 2, 61, 79
17, 63648, Note_on_c, 2, 66, 79
17, 63648, Note_on_c, 2, 69, 79
17, 63712, Note_off_c, 2, 69, 79
17, 63712, Note_off_c, 2, 66, 79
17, 63712, Note_off_c, 2, 61, 79
17, 63744, Note_on_c, 2, 61, 79
17, 63744, Note_on_c, 2, 64, 79
17, 63744, Note_on_c, 2, 68, 79
17, 63872, Note_off_c, 2, 68, 79
17, 63872, Note_off_c, 2, 64, 79
17, 63872, Note_off_c, 2, 61, 79
17, 63936, Note_on_c, 2, 61, 79
17, 63936, Note_on_c, 2, 64, 79
17, 63936, Note_on_c, 2, 68, 79
17, 64064, Note_off_c, 2, 68, 79
17, 64064, Note_off_c, 2, 64, 79
17, 64064, Note_off_c, 2, 61, 79
17, 64128, Note_on_c, 2, 61, 79
17, 64128, Note_on_c, 2, 64, 79
17, 64128, Note_on_c, 2, 68, 79
17, 64192, Note_off_c, 2, 68, 79
17, 64192, Note_off_c, 2, 64, 79
17, 64192, Note_off_c, 2, 61, 79
17, 64224, Note_on_c, 2, 61, 79
17, 64224, Note_on_c, 2, 64, 79
17, 64224, Note_on_c, 2, 68, 79
17, 64288, Note_off_c, 2, 68, 79
17, 64288, Note_off_c, 2, 64, 79
17, 64288, Note_off_c, 2, 61, 79
17, 64320, Note_on_c, 2, 61, 79
17, 64320, Note_on_c, 2, 64, 79
17, 64320, Note_on_c, 2, 68, 79
17, 64384, Note_off_c, 2, 68, 79
17, 64384, Note_off_c, 2, 64, 79
17, 64384, Note_off_c, 2, 61, 79
17, 64416, Note_on_c, 2, 61, 79
17, 64416, Note_on_c, 2, 64, 79
17, 64416, Note_on_c, 2, 68, 79
17, 64480, Note_off_c, 2, 68, 79
17, 64480, Note_off_c, 2, 64, 79
17, 64480, Note_off_c, 2, 61, 79
17, 64512, Note_on_c, 2, 59, 79
17, 64512, Note_on_c, 2, 62, 79
17, 64512, Note_on_c, 2, 66, 79
17, 64640, Note_off_c, 2, 66, 79
17, 64640, Note_off_c, 2, 62, 79
17, 64640, Note_off_c, 2, 59, 79
17, 64704, Note_on_c, 2, 59, 79
17, 64704, Note_on_c, 2, 62, 79
17, 64704, Note_on_c, 2, 66, 79
17, 64832, Note_off_c, 2, 66, 79
17, 64832, Note_off_c, 2, 62, 79
17, 64832, Note_off_c, 2, 59, 79
17, 64896, Note_on_c, 2, 59, 79
17, 64896, Note_on_c, 2, 62, 79
17, 64896, Note_on_c, 2, 66, 79
17, 64960, Note_off_c, 2, 66, 79
17, 64960, Note_off_c, 2, 62, 79
17, 64960, Note_off_c, 2, 59, 79
17, 64992, Note_on_c, 2, 59, 79
17, 64992, Note_on_c, 2, 62, 79
17, 64992, Note_on_c, 2, 66, 79
17, 65056, Note_off_c, 2, 66, 79
17, 65056, Note_off_c, 2, 62, 79
17, 65056, Note_off_c, 2, 59, 79
17, 65088, Note_on_c, 2, 59, 79
17, 65088, Note_on_c, 2, 62, 79
17, 65088, Note_on_c, 2, 66, 79
17, 65152, Note_off_c, 2, 66, 79
17, 65152, Note_off_c, 2, 62, 79
17, 65152, Note_off_c, 2, 59, 79
17, 65184, Note_on_c, 2, 59, 79
17, 65184, Note_on_c, 2, 62, 79
17, 65184, Note_on_c, 2, 66, 79
17, 65248, Note_off_c, 2, 66, 79
17, 65248, Note_off_c, 2, 62, 79
17, 65248, Note_off_c, 2, 59, 79
17, 65280, Note_on_c, 2, 59, 79
17, 65280, Note_on_c, 2, 62, 79
17, 65280, Note_on_c, 2, 66, 79
17, 65408, Note_off_c, 2, 66, 79
17, 65408, Note_off_c, 2, 62, 79
17, 65408, Note_off_c, 2, 59, 79
17, 65472, Note_on_c, 2, 59, 79
17, 65472, Note_on_c, 2, 62, 79
17, 65472, Note_on_c, 2, 66, 79
17, 65600, Note_off_c, 2, 66, 79
17, 65600, Note_off_c, 2, 62, 79
17, 65600, Note_off_c, 2, 59, 79
17, 65664, Note_on_c, 2, 59, 79
17, 65664, Note_on_c, 2, 62, 79
17, 65664, Note_on_c, 2, 66, 79
17, 65728, Note_off_c, 2, 66, 79
17, 65728, Note_off_c, 2, 62, 79
17, 65728, Note_off_c, 2, 59, 79
17, 65760, Note_on_c, 2, 59, 79
17, 65760, Note_on_c, 2, 62, 79
17, 65760, Note_on_c, 2, 66, 79
17, 65824, Note_off_c, 2, 66, 79
17, 65824, Note_off_c, 2, 62, 79
17, 65824, Note_off_c, 2, 59, 79
17, 65856, Note_on_c, 2, 59, 79
17, 65856, Note_on_c, 2, 62, 79
17, 65856, Note_on_c, 2, 66, 79
17, 65920, Note_off_c, 2, 66, 79
17, 65920, Note_off_c, 2, 62, 79
17, 65920, Note_off_c, 2, 59, 79
17, 65952, Note_on_c, 2, 59, 79
17, 65952, Note_on_c, 2, 62, 79
17, 65952, Note_on_c, 2, 66, 79
17, 66016, Note_off_c, 2, 66, 79
17, 66016, Note_off_c, 2, 62, 79
17, 66016, Note_off_c, 2, 59, 79
17, 66048, Note_on_c, 2, 62, 79
17, 66048, Note_on_c, 2, 64, 79
17, 66048, Note_on_c, 2, 68, 79
17, 66048, Note_on_c, 2, 71, 79
17, 66176, Note_off_c, 2, 71, 79
17, 66176, Note_off_c, 2, 68, 79
17, 66176, Note_off_c, 2, 64, 79
17, 66176, Note_off_c, 2, 62, 79
17, 66240, Note_on_c, 2, 62, 79
17, 66240, Note_on_c, 2, 64, 79
17, 66240, Note_on_c, 2, 68, 79
17, 66240, Note_on_c, 2, 71, 79
17, 66368, Note_off_c, 2, 71, 79
17, 66368, Note_off_c, 2, 68, 79
17, 66368, Note_off_c, 2, 64, 79
17, 66368, Note_off_c, 2, 62, 79
17, 66432, Note_on_c, 2, 62, 79
17, 66432, Note_on_c, 2, 64, 79
17, 66432, Note_on_c, 2, 68, 79
17, 66432, Note_on_c, 2, 71, 79
17, 66496, Note_off_c, 2, 71, 79
17, 66496, Note_off_c, 2, 68, 79
17, 66496, Note_off_c, 2, 64, 79
17, 66496, Note_off_c, 2, 62, 79
17, 66528, Note_on_c, 2, 62, 79
17, 66528, Note_on_c, 2, 64, 79
17, 66528, Note_on_c, 2, 68, 79
17, 66528, Note_on_c, 2, 71, 79
17, 66592, Note_off_c, 2, 71, 79
17, 66592, Note_off_c, 2, 68, 79
17, 66592, Note_off_c, 2, 64, 79
17, 66592, Note_off_c, 2, 62, 79
17, 66624, Note_on_c, 2, 62, 79
17, 66624, Note_on_c, 2, 64, 79
17, 66624, Note_on_c, 2, 68, 79
17, 66624, Note_on_c, 2, 71, 79
17, 66688, Note_off_c, 2, 71, 79
17, 66688, Note_off_c, 2, 68, 79
17, 66688, Note_off_c, 2, 64, 79
17, 66688, Note_off_c, 2, 62, 79
17, 66720, Note_on_c, 2, 62, 79
17, 66720, Note_on_c, 2, 64, 79
17, 66720, Note_on_c, 2, 68, 79
17, 66720, Note_on_c, 2, 71, 79
17, 66784, Note_off_c, 2, 71, 79
17, 66784, Note_off_c, 2, 68, 79
17, 66784, Note_off_c, 2, 64, 79
17, 66784, Note_off_c, 2, 62, 79
17, 66816, Note_on_c, 2, 62, 79
17, 66816, Note_on_c, 2, 64, 79
17, 66816, Note_on_c, 2, 68, 79
17, 66816, Note_on_c, 2, 71, 79
17, 66944, Note_off_c, 2, 71, 79
17, 66944, Note_off_c, 2, 68, 79
17, 66944, Note_off_c, 2, 64, 79
17, 66944, Note_off_c, 2, 62, 79
17, 67008, Note_on_c, 2, 62, 79
17, 67008, Note_on_c, 2, 64, 79
17, 67008, Note_on_c, 2, 68, 79
17, 67008, Note_on_c, 2, 71, 79
17, 67136, Note_off_c, 2, 71, 79
17, 67136, Note_off_c, 2, 68, 79
17, 67136, Note_off_c, 2, 64, 79
17, 67136, Note_off_c, 2, 62, 79
17, 67200, Note_on_c, 2, 62, 79
17, 67200, Note_on_c, 2, 64, 79
17, 67200, Note_on_c, 2, 68, 79
17, 67200, Note_on_c, 2, 71, 79
17, 67264, Note_off_c, 2, 71, 79
17, 67264, Note_off_c, 2, 68, 79
17, 67264, Note_off_c, 2, 64, 79
17, 67264, Note_off_c, 2, 62, 79
17, 67296, Note_on_c, 2, 62, 79
17, 67296, Note_on_c, 2, 64, 79
17, 67296, Note_on_c, 2, 68, 79
17, 67296, Note_on_c, 2, 71, 79
17, 67360, Note_off_c, 2, 71, 79
17, 67360, Note_off_c, 2, 68, 79
17, 67360, Note_off_c, 2, 64, 79
17, 67360, Note_off_c, 2, 62, 79
17, 67392, Note_on_c, 2, 62, 79
17, 67392, Note_on_c, 2, 64, 79
17, 67392, Note_on_c, 2, 68, 79
17, 67392, Note_on_c, 2, 71, 79
17, 67456, Note_off_c, 2, 71, 79
17, 67456, Note_off_c, 2, 68, 79
17, 67456, Note_off_c, 2, 64, 79
17, 67456, Note_off_c, 2, 62, 79
17, 67488, Note_on_c, 2, 62, 79
17, 67488, Note_on_c, 2, 64, 79
17, 67488, Note_on_c, 2, 68, 79
17, 67488, Note_on_c, 2, 71, 79
17, 67552, Note_off_c, 2, 71, 79
17, 67552, Note_off_c, 2, 68, 79
17, 67552, Note_off_c, 2, 64, 79
17, 67552, Note_off_c, 2, 62, 79
17, 67584, Note_on_c, 2, 57, 79
17, 67584, Note_on_c, 2, 60, 79
17, 67584, Note_on_c, 2, 64, 79
17, 67712, Note_off_c, 2, 64, 79
17, 67712, Note_off_c, 2, 60, 79
17, 67712, Note_off_c, 2, 57, 79
17, 67776, Note_on_c, 2, 57, 79
17, 67776, Note_on_c, 2, 60, 79
17, 67776, Note_on_c, 2, 64, 79
17, 67904, Note_off_c, 2, 64, 79
17, 67904, Note_off_c, 2, 60, 79
17, 67904, Note_off_c, 2, 57, 79
17, 67968, Note_on_c, 2, 57, 79
17, 67968, Note_on_c, 2, 60, 79
17, 67968, Note_on_c, 2, 64, 79
17, 68032, Note_off_c, 2, 64, 79
17, 68032, Note_off_c, 2, 60, 79
17, 68032, Note_off_c, 2, 57, 79
17, 68064, Note_on_c, 2, 57, 79
17, 68064, Note_on_c, 2, 60, 79
17, 68064, Note_on_c, 2, 64, 79
17, 68128, Note_off_c, 2, 64, 79
17, 68128, Note_off_c, 2, 60, 79
17, 68128, Note_off_c, 2, 57, 79
17, 68160, Note_on_c, 2, 57, 79
17, 68160, Note_on_c, 2, 60, 79
17, 68160, Note_on_c, 2, 64, 79
17, 68224, Note_off_c, 2, 64, 79
17, 68224, Note_off_c, 2, 60, 79
17, 68224, Note_off_c, 2, 57, 79
17, 68256, Note_on_c, 2, 57, 79
17, 68256, Note_on_c, 2, 60, 79
17, 68256, Note_on_c, 2, 64, 79
17, 68320, Note_off_c, 2, 64, 79
17, 68320, Note_off_c, 2, 60, 79
17, 68320, Note_off_c, 2, 57, 79
17, 68352, Note_on_c, 2, 57, 79
17, 68352, Note_on_c, 2, 60, 79
17, 68352, Note_on_c, 2, 64, 79
17, 68352, Note_on_c, 2, 67, 79
17, 68480, Note_off_c, 2, 67, 79
17, 68480, Note_off_c, 2, 64, 79
17, 68480, Note_off_c, 2, 60, 79
17, 68480, Note_off_c, 2, 57, 79
17, 68544, Note_on_c, 2, 57, 79
17, 68544, Note_on_c, 2, 60, 79
17, 68544, Note_on_c, 2, 64, 79
17, 68544, Note_on_c, 2, 67, 79
17, 68672, Note_off_c, 2, 67, 79
17, 68672, Note_off_c, 2, 64, 79
17, 68672, Note_off_c, 2, 60, 79
17, 68672, Note_off_c, 2, 57, 79
17, 68736, Note_on_c, 2, 57, 79
17, 68736, Note_on_c, 2, 60, 79
17, 68736, Note_on_c, 2, 64, 79
17, 68736, Note_on_c, 2, 67, 79
17, 68800, Note_off_c, 2, 67, 79
17, 68800, Note_off_c, 2, 64, 79
17, 68800, Note_off_c, 2, 60, 79
17, 68800, Note_off_c, 2, 57, 79
17, 68832, Note_on_c, 2, 57, 79
17, 68832, Note_on_c, 2, 60, 79
17, 68832, Note_on_c, 2, 64, 79
17, 68832, Note_on_c, 2, 67, 79
17, 68896, Note_off_c, 2, 67, 79
17, 68896, Note_off_c, 2, 64, 79
17, 68896, Note_off_c, 2, 60, 79
17, 68896, Note_off_c, 2, 57, 79
17, 68928, Note_on_c, 2, 57, 79
17, 68928, Note_on_c, 2, 60, 79
17, 68928, Note_on_c, 2, 64, 79
17, 68928, Note_on_c, 2, 67, 79
17, 68992, Note_off_c, 2, 67, 79
17, 68992, Note_off_c, 2, 64, 79
17, 68992, Note_off_c, 2, 60, 79
17, 68992, Note_off_c, 2, 57, 79
17, 69024, Note_on_c, 2, 57, 79
17, 69024, Note_on_c, 2, 60, 79
17, 69024, Note_on_c, 2, 64, 79
17, 69024, Note_on_c, 2, 67, 79
17, 69088, Note_off_c, 2, 67, 79
17, 69088, Note_off_c, 2, 64, 79
17, 69088, Note_off_c, 2, 60, 79
17, 69088, Note_off_c, 2, 57, 79
17, 69120, Note_on_c, 2, 62, 79
17, 69120, Note_on_c, 2, 66, 79
17, 69120, Note_on_c, 2, 69, 79
17, 69120, Note_on_c, 2, 72, 79
17, 69248, Note_off_c, 2, 72, 79
17, 69248, Note_off_c, 2, 69, 79
17, 69248, Note_off_c, 2, 66, 79
17, 69248, Note_off_c, 2, 62, 79
17, 69312, Note_on_c, 2, 62, 79
17, 69312, Note_on_c, 2, 66, 79
17, 69312, Note_on_c, 2, 69, 79
17, 69312, Note_on_c, 2, 72, 79
17, 69440, Note_off_c, 2, 72, 79
17, 69440, Note_off_c, 2, 69, 79
17, 69440, Note_off_c, 2, 66, 79
17, 69440, Note_off_c, 2, 62, 79
17, 69504, Note_on_c, 2, 62, 79
17, 69504, Note_on_c, 2, 66, 79
17, 69504, Note_on_c, 2, 69, 79
17, 69504, Note_on_c, 2, 72, 79
17, 69568, Note_off_c, 2, 72, 79
17, 69568, Note_off_c, 2, 69, 79
17, 69568, Note_off_c, 2, 66, 79
17, 69568, Note_off_c, 2, 62, 79
17, 69600, Note_on_c, 2, 62, 79
17, 69600, Note_on_c, 2, 66, 79
17, 69600, Note_on_c, 2, 69, 79
17, 69600, Note_on_c, 2, 72, 79
17, 69664, Note_off_c, 2, 72, 79
17, 69664, Note_off_c, 2, 69, 79
17, 69664, Note_off_c, 2, 66, 79
17, 69664, Note_off_c, 2, 62, 79
17, 69696, Note_on_c, 2, 62, 79
17, 69696, Note_on_c, 2, 66, 79
17, 69696, Note_on_c, 2, 69, 79
17, 69696, Note_on_c, 2, 72, 79
17, 69760, Note_off_c, 2, 72, 79
17, 69760, Note_off_c, 2, 69, 79
17, 69760, Note_off_c, 2, 66, 79
17, 69760, Note_off_c, 2, 62, 79
17, 69792, Note_on_c, 2, 62, 79
17, 69792, Note_on_c, 2, 66, 79
17, 69792, Note_on_c, 2, 69, 79
17, 69792, Note_on_c, 2, 72, 79
17, 69856, Note_off_c, 2, 72, 79
17, 69856, Note_off_c, 2, 69, 79
17, 69856, Note_off_c, 2, 66, 79
17, 69856, Note_off_c, 2, 62, 79
17, 69888, Note_on_c, 2, 64, 79
17, 69888, Note_on_c, 2, 65, 79
17, 69888, Note_on_c, 2, 69, 79
17, 69888, Note_on_c, 2, 72, 79
17, 70016, Note_off_c, 2, 72, 79
17, 70016, Note_off_c, 2, 69, 79
17, 70016, Note_off_c, 2, 65, 79
17, 70016, Note_off_c, 2, 64, 79
17, 70080, Note_on_c, 2, 64, 79
17, 70080, Note_on_c, 2, 65, 79
17, 70080, Note_on_c, 2, 69, 79
17, 70080, Note_on_c, 2, 72, 79
17, 70208, Note_off_c, 2, 72, 79
17, 70208, Note_off_c, 2, 69, 79
17, 70208, Note_off_c, 2, 65, 79
17, 70208, Note_off_c, 2, 64, 79
17, 70272, Note_on_c, 2, 64, 79
17, 70272, Note_on_c, 2, 65, 79
17, 70272, Note_on_c, 2, 69, 79
17, 70272, Note_on_c, 2, 72, 79
17, 70336, Note_off_c, 2, 72, 79
17, 70336, Note_off_c, 2, 69, 79
17, 70336, Note_off_c, 2, 65, 79
17, 70336, Note_off_c, 2, 64, 79
17, 70368, Note_on_c, 2, 64, 79
17, 70368, Note_on_c, 2, 65, 79
17, 70368, Note_on_c, 2, 69, 79
17, 70368, Note_on_c, 2, 72, 79
17, 70432, Note_off_c, 2, 72, 79
17, 70432, Note_off_c, 2, 69, 79
17, 70432, Note_off_c, 2, 65, 79
17, 70432, Note_off_c, 2, 64, 79
17, 70464, Note_on_c, 2, 64, 79
17, 70464, Note_on_c, 2, 65, 79
17, 70464, Note_on_c, 2, 69, 79
17, 70464, Note_on_c, 2, 72, 79
17, 70528, Note_off_c, 2, 72, 79
17, 70528, Note_off_c, 2, 69, 79
17, 70528, Note_off_c, 2, 65, 79
17, 70528, Note_off_c, 2, 64, 79
17, 70560, Note_on_c, 2, 64, 79
17, 70560, Note_on_c, 2, 65, 79
17, 70560, Note_on_c, 2, 69, 79
17, 70560, Note_on_c, 2, 72, 79
17, 70624, Note_off_c, 2, 72, 79
17, 70624, Note_off_c, 2, 69, 79
17, 70624, Note_off_c, 2, 65, 79
17, 70624, Note_off_c, 2, 64, 79
17, 70656, Note_on_c, 2, 57, 79
17, 70656, Note_on_c, 2, 60, 79
17, 70656, Note_on_c, 2, 64, 79
17, 70784, Note_off_c, 2, 64, 79
17, 70784, Note_off_c, 2, 60, 79
17, 70784, Note_off_c, 2, 57, 79
17, 70848, Note_on_c, 2, 57, 79
17, 70848, Note_on_c, 2, 60, 79
17, 70848, Note_on_c, 2, 64, 79
17, 70976, Note_off_c, 2, 64, 79
17, 70976, Note_off_c, 2, 60, 79
17, 70976, Note_off_c, 2, 57, 79
17, 71040, Note_on_c, 2, 57, 79
17, 71040, Note_on_c, 2, 60, 79
17, 71040, Note_on_c, 2, 64, 79
17, 71104, Note_off_c, 2, 64, 79
17, 71104, Note_off_c, 2, 60, 79
17, 71104, Note_off_c, 2, 57, 79
17, 71136, Note_on_c, 2, 57, 79
17, 71136, Note_on_c, 2, 60, 79
17, 71136, Note_on_c, 2, 64, 79
17, 71200, Note_off_c, 2, 64, 79
17, 71200, Note_off_c, 2, 60, 79
17, 71200, Note_off_c, 2, 57, 79
17, 71232, Note_on_c, 2, 57, 79
17, 71232, Note_on_c, 2, 60, 79
17, 71232, Note_on_c, 2, 64, 79
17, 71296, Note_off_c, 2, 64, 79
17, 71296, Note_off_c, 2, 60, 79
17, 71296, Note_off_c, 2, 57, 79
17, 71328, Note_on_c, 2, 57, 79
17, 71328, Note_on_c, 2, 60, 79
17, 71328, Note_on_c, 2, 64, 79
17, 71392, Note_off_c, 2, 64, 79
17, 71392, Note_off_c, 2, 60, 79
17, 71392, Note_off_c, 2, 57, 79
17, 71424, Note_on_c, 2, 55, 79
17, 71424, Note_on_c, 2, 59, 79
17, 71424, Note_on_c, 2, 62, 79
17, 71552, Note_off_c, 2, 62, 79
17, 71552, Note_off_c, 2, 59, 79
17, 71552, Note_off_c, 2, 55, 79
17, 71616, Note_on_c, 2, 55, 79
17, 71616, Note_on_c, 2, 59, 79
17, 71616, Note_on_c, 2, 62, 79
17, 71744, Note_off_c, 2, 62, 79
17, 71744, Note_off_c, 2, 59, 79
17, 71744, Note_off_c, 2, 55, 79
17, 71808, Note_on_c, 2, 55, 79
17, 71808, Note_on_c, 2, 59, 79
17, 71808, Note_on_c, 2, 62, 79
17, 71872, Note_off_c, 2, 62, 79
17, 71872, Note_off_c, 2, 59, 79
17, 71872, Note_off_c, 2, 55, 79
17, 71904, Note_on_c, 2, 55, 79
17, 71904, Note_on_c, 2, 59, 79
17, 71904, Note_on_c, 2, 62, 79
17, 71968, Note_off_c, 2, 62, 79
17, 71968, Note_off_c, 2, 59, 79
17, 71968, Note_off_c, 2, 55, 79
17, 72000, Note_on_c, 2, 55, 79
17, 72000, Note_on_c, 2, 59, 79
17, 72000, Note_on_c, 2, 62, 79
17, 72064, Note_off_c, 2, 62, 79
17, 72064, Note_off_c, 2, 59, 79
17, 72064, Note_off_c, 2, 55, 79
17, 72096, Note_on_c, 2, 55, 79
17, 72096, Note_on_c, 2, 59, 79
17, 72096, Note_on_c, 2, 62, 79
17, 72160, Note_off_c, 2, 62, 79
17, 72160, Note_off_c, 2, 59, 79
17, 72160, Note_off_c, 2, 55, 79
17, 72192, Note_on_c, 2, 57, 79
17, 72192, Note_on_c, 2, 62, 79
17, 72192, Note_on_c, 2, 66, 79
17, 72320, Note_off_c, 2, 66, 79
17, 72320, Note_off_c, 2, 62, 79
17, 72320, Note_off_c, 2, 57, 79
17, 72384, Note_on_c, 2, 57, 79
17, 72384, Note_on_c, 2, 62, 79
17, 72384, Note_on_c, 2, 66, 79
17, 72512, Note_off_c, 2, 66, 79
17, 72512, Note_off_c, 2, 62, 79
17, 72512, Note_off_c, 2, 57, 79
17, 72576, Note_on_c, 2, 57, 79
17, 72576, Note_on_c, 2, 62, 79
17, 72576, Note_on_c, 2, 66, 79
17, 72640, Note_off_c, 2, 66, 79
17, 72640, Note_off_c, 2, 62, 79
17, 72640, Note_off_c, 2, 57, 79
17, 72672, Note_on_c, 2, 57, 79
17, 72672, Note_on_c, 2, 62, 79
17, 72672, Note_on_c, 2, 66, 79
17, 72736, Note_off_c, 2, 66, 79
17, 72736, Note_off_c, 2, 62, 79
17, 72736, Note_off_c, 2, 57, 79
17, 72768, Note_on_c, 2, 57, 79
17, 72768, Note_on_c, 2, 62, 79
17, 72768, Note_on_c, 2, 66, 79
17, 72832, Note_off_c, 2, 66, 79
17, 72832, Note_off_c, 2, 62, 79
17, 72832, Note_off_c, 2, 57, 79
17, 72864, Note_on_c, 2, 57, 79
17, 72864, Note_on_c, 2, 62, 79
17, 72864, Note_on_c, 2, 66, 79
17, 72928, Note_off_c, 2, 66, 79
17, 72928, Note_off_c, 2, 62, 79
17, 72928, Note_off_c, 2, 57, 79
17, 72960, Note_on_c, 2, 64, 79
17, 72960, Note_on_c, 2, 68, 79
17, 72960, Note_on_c, 2, 71, 79
17, 72960, Note_on_c, 2, 74, 79
17, 73088, Note_off_c, 2, 74, 79
17, 73088, Note_off_c, 2, 71, 79
17, 73088, Note_off_c, 2, 68, 79
17, 73088, Note_off_c, 2, 64, 79
17, 73152, Note_on_c, 2, 64, 79
17, 73152, Note_on_c, 2, 68, 79
17, 73152, Note_on_c, 2, 71, 79
17, 73152, Note_on_c, 2, 74, 79
17, 73280, Note_off_c, 2, 74, 79
17, 73280, Note_off_c, 2, 71, 79
17, 73280, Note_off_c, 2, 68, 79
17, 73280, Note_off_c, 2, 64, 79
17, 73344, Note_on_c, 2, 64, 79
17, 73344, Note_on_c, 2, 68, 79
17, 73344, Note_on_c, 2, 71, 79
17, 73344, Note_on_c, 2, 74, 79
17, 73408, Note_off_c, 2, 74, 79
17, 73408, Note_off_c, 2, 71, 79
17, 73408, Note_off_c, 2, 68, 79
17, 73408, Note_off_c, 2, 64, 79
17, 73440, Note_on_c, 2, 64, 79
17, 73440, Note_on_c, 2, 68, 79
17, 73440, Note_on_c, 2, 71, 79
17, 73440, Note_on_c, 2, 74, 79
17, 73504, Note_off_c, 2, 74, 79
17, 73504, Note_off_c, 2, 71, 79
17, 73504, Note_off_c, 2, 68, 79
17, 73504, Note_off_c, 2, 64, 79
17, 73536, Note_on_c, 2, 64, 79
17, 73536, Note_on_c, 2, 68, 79
17, 73536, Note_on_c, 2, 71, 79
17, 73536, Note_on_c, 2, 74, 79
17, 73600, Note_off_c, 2, 74, 79
17, 73600, Note_off_c, 2, 71, 79
17, 73600, Note_off_c, 2, 68, 79
17, 73600, Note_off_c, 2, 64, 79
17, 73632, Note_on_c, 2, 64, 79
17, 73632, Note_on_c, 2, 68, 79
17, 73632, Note_on_c, 2, 71, 79
17, 73632, Note_on_c, 2, 74, 79
17, 73696, Note_off_c, 2, 74, 79
17, 73696, Note_off_c, 2, 71, 79
17, 73696, Note_off_c, 2, 68, 79
17, 73696, Note_off_c, 2, 64, 79
17, 73728, Note_on_c, 2, 57, 79
17, 73728, Note_on_c, 2, 60, 79
17, 73728, Note_on_c, 2, 64, 79
17, 73856, Note_off_c, 2, 64, 79
17, 73856, Note_off_c, 2, 60, 79
17, 73856, Note_off_c, 2, 57, 79
17, 73920, Note_on_c, 2, 57, 79
17, 73920, Note_on_c, 2, 60, 79
17, 73920, Note_on_c, 2, 64, 79
17, 74048, Note_off_c, 2, 64, 79
17, 74048, Note_off_c, 2, 60, 79
17, 74048, Note_off_c, 2, 57, 79
17, 74112, Note_on_c, 2, 57, 79
17, 74112, Note_on_c, 2, 60, 79
17, 74112, Note_on_c, 2, 64, 79
17, 74176, Note_off_c, 2, 64, 79
17, 74176, Note_off_c, 2, 60, 79
17, 74176, Note_off_c, 2, 57, 79
17, 74208, Note_on_c, 2, 57, 79
17, 74208, Note_on_c, 2, 60, 79
17, 74208, Note_on_c, 2, 64, 79
17, 74272, Note_off_c, 2, 64, 79
17, 74272, Note_off_c, 2, 60, 79
17, 74272, Note_off_c, 2, 57, 79
17, 74304, Note_on_c, 2, 57, 79
17, 74304, Note_on_c, 2, 60, 79
17, 74304, Note_on_c, 2, 64, 79
17, 74368, Note_off_c, 2, 64, 79
17, 74368, Note_off_c, 2, 60, 79
17, 74368, Note_off_c, 2, 57, 79
17, 74400, Note_on_c, 2, 57, 79
17, 74400, Note_on_c, 2, 60, 79
17, 74400, Note_on_c, 2, 64, 79
17, 74464, Note_off_c, 2, 64, 79
17, 74464, Note_off_c, 2, 60, 79
17, 74464, Note_off_c, 2, 57, 79
17, 74496, Note_on_c, 2, 57, 79
17, 74496, Note_on_c, 2, 60, 79
17, 74496, Note_on_c, 2, 64, 79
17, 74496, Note_on_c, 2, 67, 79
17, 74624, Note_off_c, 2, 67, 79
17, 74624, Note_off_c, 2, 64, 79
17, 74624, Note_off_c, 2, 60, 79
17, 74624, Note_off_c, 2, 57, 79
17, 74688, Note_on_c, 2, 57, 79
17, 74688, Note_on_c, 2, 60, 79
17, 74688, Note_on_c, 2, 64, 79
17, 74688, Note_on_c, 2, 67, 79
17, 74816, Note_off_c, 2, 67, 79
17, 74816, Note_off_c, 2, 64, 79
17, 74816, Note_off_c, 2, 60, 79
17, 74816, Note_off_c, 2, 57, 79
17, 74880, Note_on_c, 2, 57, 79
17, 74880, Note_on_c, 2, 60, 79
17, 74880, Note_on_c, 2, 64, 79
17, 74880, Note_on_c, 2, 67, 79
17, 74944, Note_off_c, 2, 67, 79
17, 74944, Note_off_c, 2, 64, 79
17, 74944, Note_off_c, 2, 60, 79
17, 74944, Note_off_c, 2, 57, 79
17, 74976, Note_on_c, 2, 57, 79
17, 74976, Note_on_c, 2, 60, 79
17, 74976, Note_on_c, 2, 64, 79
17, 74976, Note_on_c, 2, 67, 79
17, 75040, Note_off_c, 2, 67, 79
17, 75040, Note_off_c, 2, 64, 79
17, 75040, Note_off_c, 2, 60, 79
17, 75040, Note_off_c, 2, 57, 79
17, 75072, Note_on_c, 2, 57, 79
17, 75072, Note_on_c, 2, 60, 79
17, 75072, Note_on_c, 2, 64, 79
17, 75072, Note_on_c, 2, 67, 79
17, 75136, Note_off_c, 2, 67, 79
17, 75136, Note_off_c, 2, 64, 79
17, 75136, Note_off_c, 2, 60, 79
17, 75136, Note_off_c, 2, 57, 79
17, 75168, Note_on_c, 2, 57, 79
17, 75168, Note_on_c, 2, 60, 79
17, 75168, Note_on_c, 2, 64, 79
17, 75168, Note_on_c, 2, 67, 79
17, 75232, Note_off_c, 2, 67, 79
17, 75232, Note_off_c, 2, 64, 79
17, 75232, Note_off_c, 2, 60, 79
17, 75232, Note_off_c, 2, 57, 79
17, 75264, Note_on_c, 2, 62, 79
17, 75264, Note_on_c, 2, 66, 79
17, 75264, Note_on_c, 2, 69, 79
17, 75264, Note_on_c, 2, 72, 79
17, 75392, Note_off_c, 2, 72, 79
17, 75392, Note_off_c, 2, 69, 79
17, 75392, Note_off_c, 2, 66, 79
17, 75392, Note_off_c, 2, 62, 79
17, 75456, Note_on_c, 2, 62, 79
17, 75456, Note_on_c, 2, 66, 79
17, 75456, Note_on_c, 2, 69, 79
17, 75456, Note_on_c, 2, 72, 79
17, 75584, Note_off_c, 2, 72, 79
17, 75584, Note_off_c, 2, 69, 79
17, 75584, Note_off_c, 2, 66, 79
17, 75584, Note_off_c, 2, 62, 79
17, 75648, Note_on_c, 2, 62, 79
17, 75648, Note_on_c, 2, 66, 79
17, 75648, Note_on_c, 2, 69, 79
17, 75648, Note_on_c, 2, 72, 79
17, 75712, Note_off_c, 2, 72, 79
17, 75712, Note_off_c, 2, 69, 79
17, 75712, Note_off_c, 2, 66, 79
17, 75712, Note_off_c, 2, 62, 79
17, 75744, Note_on_c, 2, 62, 79
17, 75744, Note_on_c, 2, 66, 79
17, 75744, Note_on_c, 2, 69, 79
17, 75744, Note_on_c, 2, 72, 79
17, 75808, Note_off_c, 2, 72, 79
17, 75808, Note_off_c, 2, 69, 79
17, 75808, Note_off_c, 2, 66, 79
17, 75808, Note_off_c, 2, 62, 79
17, 75840, Note_on_c, 2, 62, 79
17, 75840, Note_on_c, 2, 66, 79
17, 75840, Note_on_c, 2, 69, 79
17, 75840, Note_on_c, 2, 72, 79
17, 75904, Note_off_c, 2, 72, 79
17, 75904, Note_off_c, 2, 69, 79
17, 75904, Note_off_c, 2, 66, 79
17, 75904, Note_off_c, 2, 62, 79
17, 75936, Note_on_c, 2, 62, 79
17, 75936, Note_on_c, 2, 66, 79
17, 75936, Note_on_c, 2, 69, 79
17, 75936, Note_on_c, 2, 72, 79
17, 76000, Note_off_c, 2, 72, 79
17, 76000, Note_off_c, 2, 69, 79
17, 76000, Note_off_c, 2, 66, 79
17, 76000, Note_off_c, 2, 62, 79
17, 76032, Note_on_c, 2, 65, 79
17, 76032, Note_on_c, 2, 69, 79
17, 76032, Note_on_c, 2, 72, 79
17, 76032, Note_on_c, 2, 76, 79
17, 76160, Note_off_c, 2, 76, 79
17, 76160, Note_off_c, 2, 72, 79
17, 76160, Note_off_c, 2, 69, 79
17, 76160, Note_off_c, 2, 65, 79
17, 76224, Note_on_c, 2, 65, 79
17, 76224, Note_on_c, 2, 69, 79
17, 76224, Note_on_c, 2, 72, 79
17, 76224, Note_on_c, 2, 76, 79
17, 76352, Note_off_c, 2, 76, 79
17, 76352, Note_off_c, 2, 72, 79
17, 76352, Note_off_c, 2, 69, 79
17, 76352, Note_off_c, 2, 65, 79
17, 76416, Note_on_c, 2, 65, 79
17, 76416, Note_on_c, 2, 69, 79
17, 76416, Note_on_c, 2, 72, 79
17, 76416, Note_on_c, 2, 76, 79
17, 76480, Note_off_c, 2, 76, 79
17, 76480, Note_off_c, 2, 72, 79
17, 76480, Note_off_c, 2, 69, 79
17, 76480, Note_off_c, 2, 65, 79
17, 76512, Note_on_c, 2, 65, 79
17, 76512, Note_on_c, 2, 69, 79
17, 76512, Note_on_c, 2, 72, 79
17, 76512, Note_on_c, 2, 76, 79
17, 76576, Note_off_c, 2, 76, 79
17, 76576, Note_off_c, 2, 72, 79
17, 76576, Note_off_c, 2, 69, 79
17, 76576, Note_off_c, 2, 65, 79
17, 76608, Note_on_c, 2, 65, 79
17, 76608, Note_on_c, 2, 69, 79
17, 76608, Note_on_c, 2, 72, 79
17, 76608, Note_on_c, 2, 76, 79
17, 76672, Note_off_c, 2, 76, 79
17, 76672, Note_off_c, 2, 72, 79
17, 76672, Note_off_c, 2, 69, 79
17, 76672, Note_off_c, 2, 65, 79
17, 76704, Note_on_c, 2, 65, 79
17, 76704, Note_on_c, 2, 69, 79
17, 76704, Note_on_c, 2, 72, 79
17, 76704, Note_on_c, 2, 76, 79
17, 76768, Note_off_c, 2, 76, 79
17, 76768, Note_off_c, 2, 72, 79
17, 76768, Note_off_c, 2, 69, 79
17, 76768, Note_off_c, 2, 65, 79
17, 76800, Note_on_c, 2, 57, 79
17, 76800, Note_on_c, 2, 60, 79
17, 76800, Note_on_c, 2, 64, 79
17, 76928, Note_off_c, 2, 64, 79
17, 76928, Note_off_c, 2, 60, 79
17, 76928, Note_off_c, 2, 57, 79
17, 76992, Note_on_c, 2, 57, 79
17, 76992, Note_on_c, 2, 60, 79
17, 76992, Note_on_c, 2, 64, 79
17, 77120, Note_off_c, 2, 64, 79
17, 77120, Note_off_c, 2, 60, 79
17, 77120, Note_off_c, 2, 57, 79
17, 77184, Note_on_c, 2, 57, 79
17, 77184, Note_on_c, 2, 60, 79
17, 77184, Note_on_c, 2, 64, 79
17, 77248, Note_off_c, 2, 64, 79
17, 77248, Note_off_c, 2, 60, 79
17, 77248, Note_off_c, 2, 57, 79
17, 77280, Note_on_c, 2, 57, 79
17, 77280, Note_on_c, 2, 60, 79
17, 77280, Note_on_c, 2, 64, 79
17, 77344, Note_off_c, 2, 64, 79
17, 77344, Note_off_c, 2, 60, 79
17, 77344, Note_off_c, 2, 57, 79
17, 77376, Note_on_c, 2, 57, 79
17, 77376, Note_on_c, 2, 60, 79
17, 77376, Note_on_c, 2, 64, 79
17, 77440, Note_off_c, 2, 64, 79
17, 77440, Note_off_c, 2, 60, 79
17, 77440, Note_off_c, 2, 57, 79
17, 77472, Note_on_c, 2, 57, 79
17, 77472, Note_on_c, 2, 60, 79
17, 77472, Note_on_c, 2, 64, 79
17, 77536, Note_off_c, 2, 64, 79
17, 77536, Note_off_c, 2, 60, 79
17, 77536, Note_off_c, 2, 57, 79
17, 77568, Note_on_c, 2, 55, 79
17, 77568, Note_on_c, 2, 59, 79
17, 77568, Note_on_c, 2, 62, 79
17, 77696, Note_off_c, 2, 62, 79
17, 77696, Note_off_c, 2, 59, 79
17, 77696, Note_off_c, 2, 55, 79
17, 77760, Note_on_c, 2, 55, 79
17, 77760, Note_on_c, 2, 59, 79
17, 77760, Note_on_c, 2, 62, 79
17, 77888, Note_off_c, 2, 62, 79
17, 77888, Note_off_c, 2, 59, 79
17, 77888, Note_off_c, 2, 55, 79
17, 77952, Note_on_c, 2, 55, 79
17, 77952, Note_on_c, 2, 59, 79
17, 77952, Note_on_c, 2, 62, 79
17, 78016, Note_off_c, 2, 62, 79
17, 78016, Note_off_c, 2, 59, 79
17, 78016, Note_off_c, 2, 55, 79
17, 78048, Note_on_c, 2, 55, 79
17, 78048, Note_on_c, 2, 59, 79
17, 78048, Note_on_c, 2, 62, 79
17, 78112, Note_off_c, 2, 62, 79
17, 78112, Note_off_c, 2, 59, 79
17, 78112, Note_off_c, 2, 55, 79
17, 78144, Note_on_c, 2, 55, 79
17, 78144, Note_on_c, 2, 59, 79
17, 78144, Note_on_c, 2, 62, 79
17, 78208, Note_off_c, 2, 62, 79
17, 78208, Note_off_c, 2, 59, 79
17, 78208, Note_off_c, 2, 55, 79
17, 78240, Note_on_c, 2, 55, 79
17, 78240, Note_on_c, 2, 59, 79
17, 78240, Note_on_c, 2, 62, 79
17, 78304, Note_off_c, 2, 62, 79
17, 78304, Note_off_c, 2, 59, 79
17, 78304, Note_off_c, 2, 55, 79
17, 78336, Note_on_c, 2, 55, 79
17, 78336, Note_on_c, 2, 60, 79
17, 78336, Note_on_c, 2, 64, 79
17, 78464, Note_off_c, 2, 64, 79
17, 78464, Note_off_c, 2, 60, 79
17, 78464, Note_off_c, 2, 55, 79
17, 78528, Note_on_c, 2, 55, 79
17, 78528, Note_on_c, 2, 60, 79
17, 78528, Note_on_c, 2, 64, 79
17, 78656, Note_off_c, 2, 64, 79
17, 78656, Note_off_c, 2, 60, 79
17, 78656, Note_off_c, 2, 55, 79
17, 78720, Note_on_c, 2, 55, 79
17, 78720, Note_on_c, 2, 60, 79
17, 78720, Note_on_c, 2, 64, 79
17, 78784, Note_off_c, 2, 64, 79
17, 78784, Note_off_c, 2, 60, 79
17, 78784, Note_off_c, 2, 55, 79
17, 78816, Note_on_c, 2, 55, 79
17, 78816, Note_on_c, 2, 60, 79
17, 78816, Note_on_c, 2, 64, 79
17, 78880, Note_off_c, 2, 64, 79
17, 78880, Note_off_c, 2, 60, 79
17, 78880, Note_off_c, 2, 55, 79
17, 78912, Note_on_c, 2, 55, 79
17, 78912, Note_on_c, 2, 60, 79
17, 78912, Note_on_c, 2, 64, 79
17, 78976, Note_off_c, 2, 64, 79
17, 78976, Note_off_c, 2, 60, 79
17, 78976, Note_off_c, 2, 55, 79
17, 79008, Note_on_c, 2, 55, 79
17, 79008, Note_on_c, 2, 60, 79
17, 79008, Note_on_c, 2, 64, 79
17, 79072, Note_off_c, 2, 64, 79
17, 79072, Note_off_c, 2, 60, 79
17, 79072, Note_off_c, 2, 55, 79
17, 79104, Note_on_c, 2, 62, 79
17, 79104, Note_on_c, 2, 64, 79
17, 79104, Note_on_c, 2, 68, 79
17, 79104, Note_on_c, 2, 71, 79
17, 79232, Note_off_c, 2, 71, 79
17, 79232, Note_off_c, 2, 68, 79
17, 79232, Note_off_c, 2, 64, 79
17, 79232, Note_off_c, 2, 62, 79
17, 79296, Note_on_c, 2, 62, 79
17, 79296, Note_on_c, 2, 64, 79
17, 79296, Note_on_c, 2, 68, 79
17, 79296, Note_on_c, 2, 71, 79
17, 79424, Note_off_c, 2, 71, 79
17, 79424, Note_off_c, 2, 68, 79
17, 79424, Note_off_c, 2, 64, 79
17, 79424, Note_off_c, 2, 62, 79
17, 79488, Note_on_c, 2, 62, 79
17, 79488, Note_on_c, 2, 64, 79
17, 79488, Note_on_c, 2, 68, 79
17, 79488, Note_on_c, 2, 71, 79
17, 79552, Note_off_c, 2, 71, 79
17, 79552, Note_off_c, 2, 68, 79
17, 79552, Note_off_c, 2, 64, 79
17, 79552, Note_off_c, 2, 62, 79
17, 79584, Note_on_c, 2, 62, 79
17, 79584, Note_on_c, 2, 64, 79
17, 79584, Note_on_c, 2, 68, 79
17, 79584, Note_on_c, 2, 71, 79
17, 79648, Note_off_c, 2, 71, 79
17, 79648, Note_off_c, 2, 68, 79
17, 79648, Note_off_c, 2, 64, 79
17, 79648, Note_off_c, 2, 62, 79
17, 79680, Note_on_c, 2, 62, 79
17, 79680, Note_on_c, 2, 64, 79
17, 79680, Note_on_c, 2, 68, 79
17, 79680, Note_on_c, 2, 71, 79
17, 79744, Note_off_c, 2, 71, 79
17, 79744, Note_off_c, 2, 68, 79
17, 79744, Note_off_c, 2, 64, 79
17, 79744, Note_off_c, 2, 62, 79
17, 79776, Note_on_c, 2, 62, 79
17, 79776, Note_on_c, 2, 64, 79
17, 79776, Note_on_c, 2, 68, 79
17, 79776, Note_on_c, 2, 71, 79
17, 79840, Note_off_c, 2, 71, 79
17, 79840, Note_off_c, 2, 68, 79
17, 79840, Note_off_c, 2, 64, 79
17, 79840, Note_off_c, 2, 62, 79
17, 79872, Note_on_c, 2, 57, 79
17, 79872, Note_on_c, 2, 60, 79
17, 79872, Note_on_c, 2, 64, 79
17, 80000, Note_off_c, 2, 64, 79
17, 80000, Note_off_c, 2, 60, 79
17, 80000, Note_off_c, 2, 57, 79
17, 80064, Note_on_c, 2, 57, 79
17, 80064, Note_on_c, 2, 60, 79
17, 80064, Note_on_c, 2, 64, 79
17, 80192, Note_off_c, 2, 64, 79
17, 80192, Note_off_c, 2, 60, 79
17, 80192, Note_off_c, 2, 57, 79
17, 80256, Note_on_c, 2, 57, 79
17, 80256, Note_on_c, 2, 60, 79
17, 80256, Note_on_c, 2, 64, 79
17, 80320, Note_off_c, 2, 64, 79
17, 80320, Note_off_c, 2, 60, 79
17, 80320, Note_off_c, 2, 57, 79
17, 80352, Note_on_c, 2, 57, 79
17, 80352, Note_on_c, 2, 60, 79
17, 80352, Note_on_c, 2, 64, 79
17, 80416, Note_off_c, 2, 64, 79
17, 80416, Note_off_c, 2, 60, 79
17, 80416, Note_off_c, 2, 57, 79
17, 80448, Note_on_c, 2, 57, 79
17, 80448, Note_on_c, 2, 60, 79
17, 80448, Note_on_c, 2, 64, 79
17, 80512, Note_off_c, 2, 64, 79
17, 80512, Note_off_c, 2, 60, 79
17, 80512, Note_off_c, 2, 57, 79
17, 80544, Note_on_c, 2, 57, 79
17, 80544, Note_on_c, 2, 60, 79
17, 80544, Note_on_c, 2, 64, 79
17, 80608, Note_off_c, 2, 64, 79
17, 80608, Note_off_c, 2, 60, 79
17, 80608, Note_off_c, 2, 57, 79
17, 80640, Note_on_c, 2, 57, 79
17, 80640, Note_on_c, 2, 60, 79
17, 80640, Note_on_c, 2, 64, 79
17, 80640, Note_on_c, 2, 67, 79
17, 80768, Note_off_c, 2, 67, 79
17, 80768, Note_off_c, 2, 64, 79
17, 80768, Note_off_c, 2, 60, 79
17, 80768, Note_off_c, 2, 57, 79
17, 80832, Note_on_c, 2, 57, 79
17, 80832, Note_on_c, 2, 60, 79
17, 80832, Note_on_c, 2, 64, 79
17, 80832, Note_on_c, 2, 67, 79
17, 80960, Note_off_c, 2, 67, 79
17, 80960, Note_off_c, 2, 64, 79
17, 80960, Note_off_c, 2, 60, 79
17, 80960, Note_off_c, 2, 57, 79
17, 81024, Note_on_c, 2, 57, 79
17, 81024, Note_on_c, 2, 60, 79
17, 81024, Note_on_c, 2, 64, 79
17, 81024, Note_on_c, 2, 67, 79
17, 81088, Note_off_c, 2, 67, 79
17, 81088, Note_off_c, 2, 64, 79
17, 81088, Note_off_c, 2, 60, 79
17, 81088, Note_off_c, 2, 57, 79
17, 81120, Note_on_c, 2, 57, 79
17, 81120, Note_on_c, 2, 60, 79
17, 81120, Note_on_c, 2, 64, 79
17, 81120, Note_on_c, 2, 67, 79
17, 81184, Note_off_c, 2, 67, 79
17, 81184, Note_off_c, 2, 64, 79
17, 81184, Note_off_c, 2, 60, 79
17, 81184, Note_off_c, 2, 57, 79
17, 81216, Note_on_c, 2, 57, 79
17, 81216, Note_on_c, 2, 60, 79
17, 81216, Note_on_c, 2, 64, 79
17, 81216, Note_on_c, 2, 67, 79
17, 81280, Note_off_c, 2, 67, 79
17, 81280, Note_off_c, 2, 64, 79
17, 81280, Note_off_c, 2, 60, 79
17, 81280, Note_off_c, 2, 57, 79
17, 81312, Note_on_c, 2, 57, 79
17, 81312, Note_on_c, 2, 60, 79
17, 81312, Note_on_c, 2, 64, 79
17, 81312, Note_on_c, 2, 67, 79
17, 81376, Note_off_c, 2, 67, 79
17, 81376, Note_off_c, 2, 64, 79
17, 81376, Note_off_c, 2, 60, 79
17, 81376, Note_off_c, 2, 57, 79
17, 81408, Note_on_c, 2, 62, 79
17, 81408, Note_on_c, 2, 66, 79
17, 81408, Note_on_c, 2, 69, 79
17, 81408, Note_on_c, 2, 72, 79
17, 81536, Note_off_c, 2, 72, 79
17, 81536, Note_off_c, 2, 69, 79
17, 81536, Note_off_c, 2, 66, 79
17, 81536, Note_off_c, 2, 62, 79
17, 81600, Note_on_c, 2, 62, 79
17, 81600, Note_on_c, 2, 66, 79
17, 81600, Note_on_c, 2, 69, 79
17, 81600, Note_on_c, 2, 72, 79
17, 81728, Note_off_c, 2, 72, 79
17, 81728, Note_off_c, 2, 69, 79
17, 81728, Note_off_c, 2, 66, 79
17, 81728, Note_off_c, 2, 62, 79
17, 81792, Note_on_c, 2, 62, 79
17, 81792, Note_on_c, 2, 66, 79
17, 81792, Note_on_c, 2, 69, 79
17, 81792, Note_on_c, 2, 72, 79
17, 81856, Note_off_c, 2, 72, 79
17, 81856, Note_off_c, 2, 69, 79
17, 81856, Note_off_c, 2, 66, 79
17, 81856, Note_off_c, 2, 62, 79
17, 81888, Note_on_c, 2, 62, 79
17, 81888, Note_on_c, 2, 66, 79
17, 81888, Note_on_c, 2, 69, 79
17, 81888, Note_on_c, 2, 72, 79
17, 81952, Note_off_c, 2, 72, 79
17, 81952, Note_off_c, 2, 69, 79
17, 81952, Note_off_c, 2, 66, 79
17, 81952, Note_off_c, 2, 62, 79
17, 81984, Note_on_c, 2, 62, 79
17, 81984, Note_on_c, 2, 66, 79
17, 81984, Note_on_c, 2, 69, 79
17, 81984, Note_on_c, 2, 72, 79
17, 82048, Note_off_c, 2, 72, 79
17, 82048, Note_off_c, 2, 69, 79
17, 82048, Note_off_c, 2, 66, 79
17, 82048, Note_off_c, 2, 62, 79
17, 82080, Note_on_c, 2, 62, 79
17, 82080, Note_on_c, 2, 66, 79
17, 82080, Note_on_c, 2, 69, 79
17, 82080, Note_on_c, 2, 72, 79
17, 82144, Note_off_c, 2, 72, 79
17, 82144, Note_off_c, 2, 69, 79
17, 82144, Note_off_c, 2, 66, 79
17, 82144, Note_off_c, 2, 62, 79
17, 82176, Note_on_c, 2, 65, 79
17, 82176, Note_on_c, 2, 69, 79
17, 82176, Note_on_c, 2, 72, 79
17, 82176, Note_on_c, 2, 76, 79
17, 82304, Note_off_c, 2, 76, 79
17, 82304, Note_off_c, 2, 72, 79
17, 82304, Note_off_c, 2, 69, 79
17, 82304, Note_off_c, 2, 65, 79
17, 82368, Note_on_c, 2, 65, 79
17, 82368, Note_on_c, 2, 69, 79
17, 82368, Note_on_c, 2, 72, 79
17, 82368, Note_on_c, 2, 76, 79
17, 82496, Note_off_c, 2, 76, 79
17, 82496, Note_off_c, 2, 72, 79
17, 82496, Note_off_c, 2, 69, 79
17, 82496, Note_off_c, 2, 65, 79
17, 82560, Note_on_c, 2, 65, 79
17, 82560, Note_on_c, 2, 69, 79
17, 82560, Note_on_c, 2, 72, 79
17, 82560, Note_on_c, 2, 76, 79
17, 82624, Note_off_c, 2, 76, 79
17, 82624, Note_off_c, 2, 72, 79
17, 82624, Note_off_c, 2, 69, 79
17, 82624, Note_off_c, 2, 65, 79
17, 82656, Note_on_c, 2, 65, 79
17, 82656, Note_on_c, 2, 69, 79
17, 82656, Note_on_c, 2, 72, 79
17, 82656, Note_on_c, 2, 76, 79
17, 82720, Note_off_c, 2, 76, 79
17, 82720, Note_off_c, 2, 72, 79
17, 82720, Note_off_c, 2, 69, 79
17, 82720, Note_off_c, 2, 65, 79
17, 82752, Note_on_c, 2, 65, 79
17, 82752, Note_on_c, 2, 69, 79
17, 82752, Note_on_c, 2, 72, 79
17, 82752, Note_on_c, 2, 76, 79
17, 82816, Note_off_c, 2, 76, 79
17, 82816, Note_off_c, 2, 72, 79
17, 82816, Note_off_c, 2, 69, 79
17, 82816, Note_off_c, 2, 65, 79
17, 82848, Note_on_c, 2, 65, 79
17, 82848, Note_on_c, 2, 69, 79
17, 82848, Note_on_c, 2, 72, 79
17, 82848, Note_on_c, 2, 76, 79
17, 82912, Note_off_c, 2, 76, 79
17, 82912, Note_off_c, 2, 72, 79
17, 82912, Note_off_c, 2, 69, 79
17, 82912, Note_off_c, 2, 65, 79
17, 82944, Note_on_c, 2, 57, 79
17, 82944, Note_on_c, 2, 60, 79
17, 82944, Note_on_c, 2, 64, 79
17, 83072, Note_off_c, 2, 64, 79
17, 83072, Note_off_c, 2, 60, 79
17, 83072, Note_off_c, 2, 57, 79
17, 83136, Note_on_c, 2, 57, 79
17, 83136, Note_on_c, 2, 60, 79
17, 83136, Note_on_c, 2, 64, 79
17, 83264, Note_off_c, 2, 64, 79
17, 83264, Note_off_c, 2, 60, 79
17, 83264, Note_off_c, 2, 57, 79
17, 83328, Note_on_c, 2, 57, 79
17, 83328, Note_on_c, 2, 60, 79
17, 83328, Note_on_c, 2, 64, 79
17, 83392, Note_off_c, 2, 64, 79
17, 83392, Note_off_c, 2, 60, 79
17, 83392, Note_off_c, 2, 57, 79
17, 83424, Note_on_c, 2, 57, 79
17, 83424, Note_on_c, 2, 60, 79
17, 83424, Note_on_c, 2, 64, 79
17, 83488, Note_off_c, 2, 64, 79
17, 83488, Note_off_c, 2, 60, 79
17, 83488, Note_off_c, 2, 57, 79
17, 83520, Note_on_c, 2, 57, 79
17, 83520, Note_on_c, 2, 60, 79
17, 83520, Note_on_c, 2, 64, 79
17, 83584, Note_off_c, 2, 64, 79
17, 83584, Note_off_c, 2, 60, 79
17, 83584, Note_off_c, 2, 57, 79
17, 83616, Note_on_c, 2, 57, 79
17, 83616, Note_on_c, 2, 60, 79
17, 83616, Note_on_c, 2, 64, 79
17, 83680, Note_off_c, 2, 64, 79
17, 83680, Note_off_c, 2, 60, 79
17, 83680, Note_off_c, 2, 57, 79
17, 83712, Note_on_c, 2, 55, 79
17, 83712, Note_on_c, 2, 59, 79
17, 83712, Note_on_c, 2, 62, 79
17, 83840, Note_off_c, 2, 62, 79
17, 83840, Note_off_c, 2, 59, 79
17, 83840, Note_off_c, 2, 55, 79
17, 83904, Note_on_c, 2, 55, 79
17, 83904, Note_on_c, 2, 59, 79
17, 83904, Note_on_c, 2, 62, 79
17, 84032, Note_off_c, 2, 62, 79
17, 84032, Note_off_c, 2, 59, 79
17, 84032, Note_off_c, 2, 55, 79
17, 84096, Note_on_c, 2, 55, 79
17, 84096, Note_on_c, 2, 59, 79
17, 84096, Note_on_c, 2, 62, 79
17, 84160, Note_off_c, 2, 62, 79
17, 84160, Note_off_c, 2, 59, 79
17, 84160, Note_off_c, 2, 55, 79
17, 84192, Note_on_c, 2, 55, 79
17, 84192, Note_on_c, 2, 59, 79
17, 84192, Note_on_c, 2, 62, 79
17, 84256, Note_off_c, 2, 62, 79
17, 84256, Note_off_c, 2, 59, 79
17, 84256, Note_off_c, 2, 55, 79
17, 84288, Note_on_c, 2, 55, 79
17, 84288, Note_on_c, 2, 59, 79
17, 84288, Note_on_c, 2, 62, 79
17, 84352, Note_off_c, 2, 62, 79
17, 84352, Note_off_c, 2, 59, 79
17, 84352, Note_off_c, 2, 55, 79
17, 84384, Note_on_c, 2, 55, 79
17, 84384, Note_on_c, 2, 59, 79
17, 84384, Note_on_c, 2, 62, 79
17, 84448, Note_off_c, 2, 62, 79
17, 84448, Note_off_c, 2, 59, 79
17, 84448, Note_off_c, 2, 55, 79
17, 84480, Note_on_c, 2, 57, 79
17, 84480, Note_on_c, 2, 62, 79
17, 84480, Note_on_c, 2, 66, 79
17, 84608, Note_off_c, 2, 66, 79
17, 84608, Note_off_c, 2, 62, 79
17, 84608, Note_off_c, 2, 57, 79
17, 84672, Note_on_c, 2, 57, 79
17, 84672, Note_on_c, 2, 62, 79
17, 84672, Note_on_c, 2, 66, 79
17, 84800, Note_off_c, 2, 66, 79
17, 84800, Note_off_c, 2, 62, 79
17, 84800, Note_off_c, 2, 57, 79
17, 84864, Note_on_c, 2, 57, 79
17, 84864, Note_on_c, 2, 62, 79
17, 84864, Note_on_c, 2, 66, 79
17, 84928, Note_off_c, 2, 66, 79
17, 84928, Note_off_c, 2, 62, 79
17, 84928, Note_off_c, 2, 57, 79
17, 84960, Note_on_c, 2, 57, 79
17, 84960, Note_on_c, 2, 62, 79
17, 84960, Note_on_c, 2, 66, 79
17, 85024, Note_off_c, 2, 66, 79
17, 85024, Note_off_c, 2, 62, 79
17, 85024, Note_off_c, 2, 57, 79
17, 85056, Note_on_c, 2, 57, 79
17, 85056, Note_on_c, 2, 62, 79
17, 85056, Note_on_c, 2, 66, 79
17, 85120, Note_off_c, 2, 66, 79
17, 85120, Note_off_c, 2, 62, 79
17, 85120, Note_off_c, 2, 57, 79
17, 85152, Note_on_c, 2, 57, 79
17, 85152, Note_on_c, 2, 62, 79
17, 85152, Note_on_c, 2, 66, 79
17, 85216, Note_off_c, 2, 66, 79
17, 85216, Note_off_c, 2, 62, 79
17, 85216, Note_off_c, 2, 57, 79
17, 85248, Note_on_c, 2, 62, 79
17, 85248, Note_on_c, 2, 64, 79
17, 85248, Note_on_c, 2, 68, 79
17, 85248, Note_on_c, 2, 71, 79
17, 85376, Note_off_c, 2, 71, 79
17, 85376, Note_off_c, 2, 68, 79
17, 85376, Note_off_c, 2, 64, 79
17, 85376, Note_off_c, 2, 62, 79
17, 85440, Note_on_c, 2, 62, 79
17, 85440, Note_on_c, 2, 64, 79
17, 85440, Note_on_c, 2, 68, 79
17, 85440, Note_on_c, 2, 71, 79
17, 85568, Note_off_c, 2, 71, 79
17, 85568, Note_off_c, 2, 68, 79
17, 85568, Note_off_c, 2, 64, 79
17, 85568, Note_off_c, 2, 62, 79
17, 85632, Note_on_c, 2, 62, 79
17, 85632, Note_on_c, 2, 64, 79
17, 85632, Note_on_c, 2, 68, 79
17, 85632, Note_on_c, 2, 71, 79
17, 85696, Note_off_c, 2, 71, 79
17, 85696, Note_off_c, 2, 68, 79
17, 85696, Note_off_c, 2, 64, 79
17, 85696, Note_off_c, 2, 62, 79
17, 85728, Note_on_c, 2, 62, 79
17, 85728, Note_on_c, 2, 64, 79
17, 85728, Note_on_c, 2, 68, 79
17, 85728, Note_on_c, 2, 71, 79
17, 85792, Note_off_c, 2, 71, 79
17, 85792, Note_off_c, 2, 68, 79
17, 85792, Note_off_c, 2, 64, 79
17, 85792, Note_off_c, 2, 62, 79
17, 85824, Note_on_c, 2, 62, 79
17, 85824, Note_on_c, 2, 64, 79
17, 85824, Note_on_c, 2, 68, 79
17, 85824, Note_on_c, 2, 71, 79
17, 85888, Note_off_c, 2, 71, 79
17, 85888, Note_off_c, 2, 68, 79
17, 85888, Note_off_c, 2, 64, 79
17, 85888, Note_off_c, 2, 62, 79
17, 85920, Note_on_c, 2, 62, 79
17, 85920, Note_on_c, 2, 64, 79
17, 85920, Note_on_c, 2, 68, 79
17, 85920, Note_on_c, 2, 71, 79
17, 85984, Note_off_c, 2, 71, 79
17, 85984, Note_off_c, 2, 68, 79
17, 85984, Note_off_c, 2, 64, 79
17, 85984, Note_off_c, 2, 62, 79
17, 86016, Note_on_c, 2, 57, 79
17, 86016, Note_on_c, 2, 60, 79
17, 86016, Note_on_c, 2, 64, 79
17, 86144, Note_off_c, 2, 64, 79
17, 86144, Note_off_c, 2, 60, 79
17, 86144, Note_off_c, 2, 57, 79
17, 86208, Note_on_c, 2, 57, 79
17, 86208, Note_on_c, 2, 60, 79
17, 86208, Note_on_c, 2, 64, 79
17, 86336, Note_off_c, 2, 64, 79
17, 86336, Note_off_c, 2, 60, 79
17, 86336, Note_off_c, 2, 57, 79
17, 86400, Note_on_c, 2, 57, 79
17, 86400, Note_on_c, 2, 60, 79
17, 86400, Note_on_c, 2, 64, 79
17, 86464, Note_off_c, 2, 64, 79
17, 86464, Note_off_c, 2, 60, 79
17, 86464, Note_off_c, 2, 57, 79
17, 86496, Note_on_c, 2, 57, 79
17, 86496, Note_on_c, 2, 60, 79
17, 86496, Note_on_c, 2, 64, 79
17, 86560, Note_off_c, 2, 64, 79
17, 86560, Note_off_c, 2, 60, 79
17, 86560, Note_off_c, 2, 57, 79
17, 86592, Note_on_c, 2, 57, 79
17, 86592, Note_on_c, 2, 60, 79
17, 86592, Note_on_c, 2, 64, 79
17, 86656, Note_off_c, 2, 64, 79
17, 86656, Note_off_c, 2, 60, 79
17, 86656, Note_off_c, 2, 57, 79
17, 86688, Note_on_c, 2, 57, 79
17, 86688, Note_on_c, 2, 60, 79
17, 86688, Note_on_c, 2, 64, 79
17, 86752, Note_off_c, 2, 64, 79
17, 86752, Note_off_c, 2, 60, 79
17, 86752, Note_off_c, 2, 57, 79
17, 86784, Note_on_c, 2, 57, 79
17, 86784, Note_on_c, 2, 60, 79
17, 86784, Note_on_c, 2, 64, 79
17, 86784, Note_on_c, 2, 67, 79
17, 86912, Note_off_c, 2, 67, 79
17, 86912, Note_off_c, 2, 64, 79
17, 86912, Note_off_c, 2, 60, 79
17, 86912, Note_off_c, 2, 57, 79
17, 86976, Note_on_c, 2, 57, 79
17, 86976, Note_on_c, 2, 60, 79
17, 86976, Note_on_c, 2, 64, 79
17, 86976, Note_on_c, 2, 67, 79
17, 87104, Note_off_c, 2, 67, 79
17, 87104, Note_off_c, 2, 64, 79
17, 87104, Note_off_c, 2, 60, 79
17, 87104, Note_off_c, 2, 57, 79
17, 87168, Note_on_c, 2, 57, 79
17, 87168, Note_on_c, 2, 60, 79
17, 87168, Note_on_c, 2, 64, 79
17, 87168, Note_on_c, 2, 67, 79
17, 87232, Note_off_c, 2, 67, 79
17, 87232, Note_off_c, 2, 64, 79
17, 87232, Note_off_c, 2, 60, 79
17, 87232, Note_off_c, 2, 57, 79
17, 87264, Note_on_c, 2, 57, 79
17, 87264, Note_on_c, 2, 60, 79
17, 87264, Note_on_c, 2, 64, 79
17, 87264, Note_on_c, 2, 67, 79
17, 87328, Note_off_c, 2, 67, 79
17, 87328, Note_off_c, 2, 64, 79
17, 87328, Note_off_c, 2, 60, 79
17, 87328, Note_off_c, 2, 57, 79
17, 87360, Note_on_c, 2, 57, 79
17, 87360, Note_on_c, 2, 60, 79
17, 87360, Note_on_c, 2, 64, 79
17, 87360, Note_on_c, 2, 67, 79
17, 87424, Note_off_c, 2, 67, 79
17, 87424, Note_off_c, 2, 64, 79
17, 87424, Note_off_c, 2, 60, 79
17, 87424, Note_off_c, 2, 57, 79
17, 87456, Note_on_c, 2, 57, 79
17, 87456, Note_on_c, 2, 60, 79
17, 87456, Note_on_c, 2, 64, 79
17, 87456, Note_on_c, 2, 67, 79
17, 87520, Note_off_c, 2, 67, 79
17, 87520, Note_off_c, 2, 64, 79
17, 87520, Note_off_c, 2, 60, 79
17, 87520, Note_off_c, 2, 57, 79
17, 87552, Note_on_c, 2, 62, 79
17, 87552, Note_on_c, 2, 66, 79
17, 87552, Note_on_c, 2, 69, 79
17, 87552, Note_on_c, 2, 72, 79
17, 87680, Note_off_c, 2, 72, 79
17, 87680, Note_off_c, 2, 69, 79
17, 87680, Note_off_c, 2, 66, 79
17, 87680, Note_off_c, 2, 62, 79
17, 87744, Note_on_c, 2, 62, 79
17, 87744, Note_on_c, 2, 66, 79
17, 87744, Note_on_c, 2, 69, 79
17, 87744, Note_on_c, 2, 72, 79
17, 87872, Note_off_c, 2, 72, 79
17, 87872, Note_off_c, 2, 69, 79
17, 87872, Note_off_c, 2, 66, 79
17, 87872, Note_off_c, 2, 62, 79
17, 87936, Note_on_c, 2, 62, 79
17, 87936, Note_on_c, 2, 66, 79
17, 87936, Note_on_c, 2, 69, 79
17, 87936, Note_on_c, 2, 72, 79
17, 88000, Note_off_c, 2, 72, 79
17, 88000, Note_off_c, 2, 69, 79
17, 88000, Note_off_c, 2, 66, 79
17, 88000, Note_off_c, 2, 62, 79
17, 88032, Note_on_c, 2, 62, 79
17, 88032, Note_on_c, 2, 66, 79
17, 88032, Note_on_c, 2, 69, 79
17, 88032, Note_on_c, 2, 72, 79
17, 88096, Note_off_c, 2, 72, 79
17, 88096, Note_off_c, 2, 69, 79
17, 88096, Note_off_c, 2, 66, 79
17, 88096, Note_off_c, 2, 62, 79
17, 88128, Note_on_c, 2, 62, 79
17, 88128, Note_on_c, 2, 66, 79
17, 88128, Note_on_c, 2, 69, 79
17, 88128, Note_on_c, 2, 72, 79
17, 88192, Note_off_c, 2, 72, 79
17, 88192, Note_off_c, 2, 69, 79
17, 88192, Note_off_c, 2, 66, 79
17, 88192, Note_off_c, 2, 62, 79
17, 88224, Note_on_c, 2, 62, 79
17, 88224, Note_on_c, 2, 66, 79
17, 88224, Note_on_c, 2, 69, 79
17, 88224, Note_on_c, 2, 72, 79
17, 88288, Note_off_c, 2, 72, 79
17, 88288, Note_off_c, 2, 69, 79
17, 88288, Note_off_c, 2, 66, 79
17, 88288, Note_off_c, 2, 62, 79
17, 88320, Note_on_c, 2, 65, 79
17, 88320, Note_on_c, 2, 69, 79
17, 88320, Note_on_c, 2, 72, 79
17, 88320, Note_on_c, 2, 76, 79
17, 88448, Note_off_c, 2, 76, 79
17, 88448, Note_off_c, 2, 72, 79
17, 88448, Note_off_c, 2, 69, 79
17, 88448, Note_off_c, 2, 65, 79
17, 88512, Note_on_c, 2, 65, 79
17, 88512, Note_on_c, 2, 69, 79
17, 88512, Note_on_c, 2, 72, 79
17, 88512, Note_on_c, 2, 76, 79
17, 88640, Note_off_c, 2, 76, 79
17, 88640, Note_off_c, 2, 72, 79
17, 88640, Note_off_c, 2, 69, 79
17, 88640, Note_off_c, 2, 65, 79
17, 88704, Note_on_c, 2, 65, 79
17, 88704, Note_on_c, 2, 69, 79
17, 88704, Note_on_c, 2, 72, 79
17, 88704, Note_on_c, 2, 76, 79
17, 88768, Note_off_c, 2, 76, 79
17, 88768, Note_off_c, 2, 72, 79
17, 88768, Note_off_c, 2, 69, 79
17, 88768, Note_off_c, 2, 65, 79
17, 88800, Note_on_c, 2, 65, 79
17, 88800, Note_on_c, 2, 69, 79
17, 88800, Note_on_c, 2, 72, 79
17, 88800, Note_on_c, 2, 76, 79
17, 88864, Note_off_c, 2, 76, 79
17, 88864, Note_off_c, 2, 72, 79
17, 88864, Note_off_c, 2, 69, 79
17, 88864, Note_off_c, 2, 65, 79
17, 88896, Note_on_c, 2, 65, 79
17, 88896, Note_on_c, 2, 69, 79
17, 88896, Note_on_c, 2, 72, 79
17, 88896, Note_on_c, 2, 76, 79
17, 88960, Note_off_c, 2, 76, 79
17, 88960, Note_off_c, 2, 72, 79
17, 88960, Note_off_c, 2, 69, 79
17, 88960, Note_off_c, 2, 65, 79
17, 88992, Note_on_c, 2, 65, 79
17, 88992, Note_on_c, 2, 69, 79
17, 88992, Note_on_c, 2, 72, 79
17, 88992, Note_on_c, 2, 76, 79
17, 89056, Note_off_c, 2, 76, 79
17, 89056, Note_off_c, 2, 72, 79
17, 89056, Note_off_c, 2, 69, 79
17, 89056, Note_off_c, 2, 65, 79
17, 89088, Note_on_c, 2, 57, 79
17, 89088, Note_on_c, 2, 60, 79
17, 89088, Note_on_c, 2, 64, 79
17, 89216, Note_off_c, 2, 64, 79
17, 89216, Note_off_c, 2, 60, 79
17, 89216, Note_off_c, 2, 57, 79
17, 89280, Note_on_c, 2, 57, 79
17, 89280, Note_on_c, 2, 60, 79
17, 89280, Note_on_c, 2, 64, 79
17, 89408, Note_off_c, 2, 64, 79
17, 89408, Note_off_c, 2, 60, 79
17, 89408, Note_off_c, 2, 57, 79
17, 89472, Note_on_c, 2, 57, 79
17, 89472, Note_on_c, 2, 60, 79
17, 89472, Note_on_c, 2, 64, 79
17, 89536, Note_off_c, 2, 64, 79
17, 89536, Note_off_c, 2, 60, 79
17, 89536, Note_off_c, 2, 57, 79
17, 89568, Note_on_c, 2, 57, 79
17, 89568, Note_on_c, 2, 60, 79
17, 89568, Note_on_c, 2, 64, 79
17, 89632, Note_off_c, 2, 64, 79
17, 89632, Note_off_c, 2, 60, 79
17, 89632, Note_off_c, 2, 57, 79
17, 89664, Note_on_c, 2, 57, 79
17, 89664, Note_on_c, 2, 60, 79
17, 89664, Note_on_c, 2, 64, 79
17, 89728, Note_off_c, 2, 64, 79
17, 89728, Note_off_c, 2, 60, 79
17, 89728, Note_off_c, 2, 57, 79
17, 89760, Note_on_c, 2, 57, 79
17, 89760, Note_on_c, 2, 60, 79
17, 89760, Note_on_c, 2, 64, 79
17, 89824, Note_off_c, 2, 64, 79
17, 89824, Note_off_c, 2, 60, 79
17, 89824, Note_off_c, 2, 57, 79
17, 89856, Note_on_c, 2, 55, 79
17, 89856, Note_on_c, 2, 59, 79
17, 89856, Note_on_c, 2, 62, 79
17, 89984, Note_off_c, 2, 62, 79
17, 89984, Note_off_c, 2, 59, 79
17, 89984, Note_off_c, 2, 55, 79
17, 90048, Note_on_c, 2, 55, 79
17, 90048, Note_on_c, 2, 59, 79
17, 90048, Note_on_c, 2, 62, 79
17, 90176, Note_off_c, 2, 62, 79
17, 90176, Note_off_c, 2, 59, 79
17, 90176, Note_off_c, 2, 55, 79
17, 90240, Note_on_c, 2, 55, 79
17, 90240, Note_on_c, 2, 59, 79
17, 90240, Note_on_c, 2, 62, 79
17, 90304, Note_off_c, 2, 62, 79
17, 90304, Note_off_c, 2, 59, 79
17, 90304, Note_off_c, 2, 55, 79
17, 90336, Note_on_c, 2, 55, 79
17, 90336, Note_on_c, 2, 59, 79
17, 90336, Note_on_c, 2, 62, 79
17, 90400, Note_off_c, 2, 62, 79
17, 90400, Note_off_c, 2, 59, 79
17, 90400, Note_off_c, 2, 55, 79
17, 90432, Note_on_c, 2, 55, 79
17, 90432, Note_on_c, 2, 59, 79
17, 90432, Note_on_c, 2, 62, 79
17, 90496, Note_off_c, 2, 62, 79
17, 90496, Note_off_c, 2, 59, 79
17, 90496, Note_off_c, 2, 55, 79
17, 90528, Note_on_c, 2, 55, 79
17, 90528, Note_on_c, 2, 59, 79
17, 90528, Note_on_c, 2, 62, 79
17, 90592, Note_off_c, 2, 62, 79
17, 90592, Note_off_c, 2, 59, 79
17, 90592, Note_off_c, 2, 55, 79
17, 90624, Note_on_c, 2, 55, 79
17, 90624, Note_on_c, 2, 60, 79
17, 90624, Note_on_c, 2, 64, 79
17, 90752, Note_off_c, 2, 64, 79
17, 90752, Note_off_c, 2, 60, 79
17, 90752, Note_off_c, 2, 55, 79
17, 90816, Note_on_c, 2, 55, 79
17, 90816, Note_on_c, 2, 60, 79
17, 90816, Note_on_c, 2, 64, 79
17, 90944, Note_off_c, 2, 64, 79
17, 90944, Note_off_c, 2, 60, 79
17, 90944, Note_off_c, 2, 55, 79
17, 91008, Note_on_c, 2, 55, 79
17, 91008, Note_on_c, 2, 60, 79
17, 91008, Note_on_c, 2, 64, 79
17, 91072, Note_off_c, 2, 64, 79
17, 91072, Note_off_c, 2, 60, 79
17, 91072, Note_off_c, 2, 55, 79
17, 91104, Note_on_c, 2, 55, 79
17, 91104, Note_on_c, 2, 60, 79
17, 91104, Note_on_c, 2, 64, 79
17, 91168, Note_off_c, 2, 64, 79
17, 91168, Note_off_c, 2, 60, 79
17, 91168, Note_off_c, 2, 55, 79
17, 91200, Note_on_c, 2, 55, 79
17, 91200, Note_on_c, 2, 60, 79
17, 91200, Note_on_c, 2, 64, 79
17, 91264, Note_off_c, 2, 64, 79
17, 91264, Note_off_c, 2, 60, 79
17, 91264, Note_off_c, 2, 55, 79
17, 91296, Note_on_c, 2, 55, 79
17, 91296, Note_on_c, 2, 60, 79
17, 91296, Note_on_c, 2, 64, 79
17, 91360, Note_off_c, 2, 64, 79
17, 91360, Note_off_c, 2, 60, 79
17, 91360, Note_off_c, 2, 55, 79
17, 91392, Note_on_c, 2, 62, 79
17, 91392, Note_on_c, 2, 64, 79
17, 91392, Note_on_c, 2, 68, 79
17, 91392, Note_on_c, 2, 71, 79
17, 91520, Note_off_c, 2, 71, 79
17, 91520, Note_off_c, 2, 68, 79
17, 91520, Note_off_c, 2, 64, 79
17, 91520, Note_off_c, 2, 62, 79
17, 91584, Note_on_c, 2, 62, 79
17, 91584, Note_on_c, 2, 64, 79
17, 91584, Note_on_c, 2, 68, 79
17, 91584, Note_on_c, 2, 71, 79
17, 91712, Note_off_c, 2, 71, 79
17, 91712, Note_off_c, 2, 68, 79
17, 91712, Note_off_c, 2, 64, 79
17, 91712, Note_off_c, 2, 62, 79
17, 91776, Note_on_c, 2, 62, 79
17, 91776, Note_on_c, 2, 64, 79
17, 91776, Note_on_c, 2, 68, 79
17, 91776, Note_on_c, 2, 71, 79
17, 91840, Note_off_c, 2, 71, 79
17, 91840, Note_off_c, 2, 68, 79
17, 91840, Note_off_c, 2, 64, 79
17, 91840, Note_off_c, 2, 62, 79
17, 91872, Note_on_c, 2, 62, 79
17, 91872, Note_on_c, 2, 64, 79
17, 91872, Note_on_c, 2, 68, 79
17, 91872, Note_on_c, 2, 71, 79
17, 91936, Note_off_c, 2, 71, 79
17, 91936, Note_off_c, 2, 68, 79
17, 91936, Note_off_c, 2, 64, 79
17, 91936, Note_off_c, 2, 62, 79
17, 91968, Note_on_c, 2, 62, 79
17, 91968, Note_on_c, 2, 64, 79
17, 91968, Note_on_c, 2, 68, 79
17, 91968, Note_on_c, 2, 71, 79
17, 92032, Note_off_c, 2, 71, 79
17, 92032, Note_off_c, 2, 68, 79
17, 92032, Note_off_c, 2, 64, 79
17, 92032, Note_off_c, 2, 62, 79
17, 92064, Note_on_c, 2, 62, 79
17, 92064, Note_on_c, 2, 64, 79
17, 92064, Note_on_c, 2, 68, 79
17, 92064, Note_on_c, 2, 71, 79
17, 92128, Note_off_c, 2, 71, 79
17, 92128, Note_off_c, 2, 68, 79
17, 92128, Note_off_c, 2, 64, 79
17, 92128, Note_off_c, 2, 62, 79
17, 92160, Note_on_c, 2, 57, 79
17, 92160, Note_on_c, 2, 60, 79
17, 92160, Note_on_c, 2, 64, 79
17, 92288, Note_off_c, 2, 64, 79
17, 92288, Note_off_c, 2, 60, 79
17, 92288, Note_off_c, 2, 57, 79
17, 92352, Note_on_c, 2, 57, 79
17, 92352, Note_on_c, 2, 60, 79
17, 92352, Note_on_c, 2, 64, 79
17, 92480, Note_off_c, 2, 64, 79
17, 92480, Note_off_c, 2, 60, 79
17, 92480, Note_off_c, 2, 57, 79
17, 92544, Note_on_c, 2, 57, 79
17, 92544, Note_on_c, 2, 60, 79
17, 92544, Note_on_c, 2, 64, 79
17, 92608, Note_off_c, 2, 64, 79
17, 92608, Note_off_c, 2, 60, 79
17, 92608, Note_off_c, 2, 57, 79
17, 92640, Note_on_c, 2, 57, 79
17, 92640, Note_on_c, 2, 60, 79
17, 92640, Note_on_c, 2, 64, 79
17, 92704, Note_off_c, 2, 64, 79
17, 92704, Note_off_c, 2, 60, 79
17, 92704, Note_off_c, 2, 57, 79
17, 92736, Note_on_c, 2, 57, 79
17, 92736, Note_on_c, 2, 60, 79
17, 92736, Note_on_c, 2, 64, 79
17, 92800, Note_off_c, 2, 64, 79
17, 92800, Note_off_c, 2, 60, 79
17, 92800, Note_off_c, 2, 57, 79
17, 92832, Note_on_c, 2, 57, 79
17, 92832, Note_on_c, 2, 60, 79
17, 92832, Note_on_c, 2, 64, 79
17, 92896, Note_off_c, 2, 64, 79
17, 92896, Note_off_c, 2, 60, 79
17, 92896, Note_off_c, 2, 57, 79
17, 92928, Note_on_c, 2, 57, 79
17, 92928, Note_on_c, 2, 60, 79
17, 92928, Note_on_c, 2, 64, 79
17, 92928, Note_on_c, 2, 67, 79
17, 93056, Note_off_c, 2, 67, 79
17, 93056, Note_off_c, 2, 64, 79
17, 93056, Note_off_c, 2, 60, 79
17, 93056, Note_off_c, 2, 57, 79
17, 93120, Note_on_c, 2, 57, 79
17, 93120, Note_on_c, 2, 60, 79
17, 93120, Note_on_c, 2, 64, 79
17, 93120, Note_on_c, 2, 67, 79
17, 93248, Note_off_c, 2, 67, 79
17, 93248, Note_off_c, 2, 64, 79
17, 93248, Note_off_c, 2, 60, 79
17, 93248, Note_off_c, 2, 57, 79
17, 93312, Note_on_c, 2, 57, 79
17, 93312, Note_on_c, 2, 60, 79
17, 93312, Note_on_c, 2, 64, 79
17, 93312, Note_on_c, 2, 67, 79
17, 93376, Note_off_c, 2, 67, 79
17, 93376, Note_off_c, 2, 64, 79
17, 93376, Note_off_c, 2, 60, 79
17, 93376, Note_off_c, 2, 57, 79
17, 93408, Note_on_c, 2, 57, 79
17, 93408, Note_on_c, 2, 60, 79
17, 93408, Note_on_c, 2, 64, 79
17, 93408, Note_on_c, 2, 67, 79
17, 93472, Note_off_c, 2, 67, 79
17, 93472, Note_off_c, 2, 64, 79
17, 93472, Note_off_c, 2, 60, 79
17, 93472, Note_off_c, 2, 57, 79
17, 93504, Note_on_c, 2, 57, 79
17, 93504, Note_on_c, 2, 60, 79
17, 93504, Note_on_c, 2, 64, 79
17, 93504, Note_on_c, 2, 67, 79
17, 93568, Note_off_c, 2, 67, 79
17, 93568, Note_off_c, 2, 64, 79
17, 93568, Note_off_c, 2, 60, 79
17, 93568, Note_off_c, 2, 57, 79
17, 93600, Note_on_c, 2, 57, 79
17, 93600, Note_on_c, 2, 60, 79
17, 93600, Note_on_c, 2, 64, 79
17, 93600, Note_on_c, 2, 67, 79
17, 93664, Note_off_c, 2, 67, 79
17, 93664, Note_off_c, 2, 64, 79
17, 93664, Note_off_c, 2, 60, 79
17, 93664, Note_off_c, 2, 57, 79
17, 93696, Note_on_c, 2, 62, 79
17, 93696, Note_on_c, 2, 66, 79
17, 93696, Note_on_c, 2, 69, 79
17, 93696, Note_on_c, 2, 72, 79
17, 93824, Note_off_c, 2, 72, 79
17, 93824, Note_off_c, 2, 69, 79
17, 93824, Note_off_c, 2, 66, 79
17, 93824, Note_off_c, 2, 62, 79
17, 93888, Note_on_c, 2, 62, 79
17, 93888, Note_on_c, 2, 66, 79
17, 93888, Note_on_c, 2, 69, 79
17, 93888, Note_on_c, 2, 72, 79
17, 94016, Note_off_c, 2, 72, 79
17, 94016, Note_off_c, 2, 69, 79
17, 94016, Note_off_c, 2, 66, 79
17, 94016, Note_off_c, 2, 62, 79
17, 94080, Note_on_c, 2, 62, 79
17, 94080, Note_on_c, 2, 66, 79
17, 94080, Note_on_c, 2, 69, 79
17, 94080, Note_on_c, 2, 72, 79
17, 94144, Note_off_c, 2, 72, 79
17, 94144, Note_off_c, 2, 69, 79
17, 94144, Note_off_c, 2, 66, 79
17, 94144, Note_off_c, 2, 62, 79
17, 94176, Note_on_c, 2, 62, 79
17, 94176, Note_on_c, 2, 66, 79
17, 94176, Note_on_c, 2, 69, 79
17, 94176, Note_on_c, 2, 72, 79
17, 94240, Note_off_c, 2, 72, 79
17, 94240, Note_off_c, 2, 69, 79
17, 94240, Note_off_c, 2, 66, 79
17, 94240, Note_off_c, 2, 62, 79
17, 94272, Note_on_c, 2, 62, 79
17, 94272, Note_on_c, 2, 66, 79
17, 94272, Note_on_c, 2, 69, 79
17, 94272, Note_on_c, 2, 72, 79
17, 94336, Note_off_c, 2, 72, 79
17, 94336, Note_off_c, 2, 69, 79
17, 94336, Note_off_c, 2, 66, 79
17, 94336, Note_off_c, 2, 62, 79
17, 94368, Note_on_c, 2, 62, 79
17, 94368, Note_on_c, 2, 66, 79
17, 94368, Note_on_c, 2, 69, 79
17, 94368, Note_on_c, 2, 72, 79
17, 94432, Note_off_c, 2, 72, 79
17, 94432, Note_off_c, 2, 69, 79
17, 94432, Note_off_c, 2, 66, 79
17, 94432, Note_off_c, 2, 62, 79
17, 94464, Note_on_c, 2, 65, 79
17, 94464, Note_on_c, 2, 69, 79
17, 94464, Note_on_c, 2, 72, 79
17, 94464, Note_on_c, 2, 76, 79
17, 94592, Note_off_c, 2, 76, 79
17, 94592, Note_off_c, 2, 72, 79
17, 94592, Note_off_c, 2, 69, 79
17, 94592, Note_off_c, 2, 65, 79
17, 94656, Note_on_c, 2, 65, 79
17, 94656, Note_on_c, 2, 69, 79
17, 94656, Note_on_c, 2, 72, 79
17, 94656, Note_on_c, 2, 76, 79
17, 94784, Note_off_c, 2, 76, 79
17, 94784, Note_off_c, 2, 72, 79
17, 94784, Note_off_c, 2, 69, 79
17, 94784, Note_off_c, 2, 65, 79
17, 94848, Note_on_c, 2, 65, 79
17, 94848, Note_on_c, 2, 69, 79
17, 94848, Note_on_c, 2, 72, 79
17, 94848, Note_on_c, 2, 76, 79
17, 94912, Note_off_c, 2, 76, 79
17, 94912, Note_off_c, 2, 72, 79
17, 94912, Note_off_c, 2, 69, 79
17, 94912, Note_off_c, 2, 65, 79
17, 94944, Note_on_c, 2, 65, 79
17, 94944, Note_on_c, 2, 69, 79
17, 94944, Note_on_c, 2, 72, 79
17, 94944, Note_on_c, 2, 76, 79
17, 95008, Note_off_c, 2, 76, 79
17, 95008, Note_off_c, 2, 72, 79
17, 95008, Note_off_c, 2, 69, 79
17, 95008, Note_off_c, 2, 65, 79
17, 95040, Note_on_c, 2, 65, 79
17, 95040, Note_on_c, 2, 69, 79
17, 95040, Note_on_c, 2, 72, 79
17, 95040, Note_on_c, 2, 76, 79
17, 95104, Note_off_c, 2, 76, 79
17, 95104, Note_off_c, 2, 72, 79
17, 95104, Note_off_c, 2, 69, 79
17, 95104, Note_off_c, 2, 65, 79
17, 95136, Note_on_c, 2, 65, 79
17, 95136, Note_on_c, 2, 69, 79
17, 95136, Note_on_c, 2, 72, 79
17, 95136, Note_on_c, 2, 76, 79
17, 95200, Note_off_c, 2, 76, 79
17, 95200, Note_off_c, 2, 72, 79
17, 95200, Note_off_c, 2, 69, 79
17, 95200, Note_off_c, 2, 65, 79
17, 95232, Note_on_c, 2, 57, 79
17, 95232, Note_on_c, 2, 60, 79
17, 95232, Note_on_c, 2, 64, 79
17, 95360, Note_off_c, 2, 64, 79
17, 95360, Note_off_c, 2, 60, 79
17, 95360, Note_off_c, 2, 57, 79
17, 95424, Note_on_c, 2, 57, 79
17, 95424, Note_on_c, 2, 60, 79
17, 95424, Note_on_c, 2, 64, 79
17, 95552, Note_off_c, 2, 64, 79
17, 95552, Note_off_c, 2, 60, 79
17, 95552, Note_off_c, 2, 57, 79
17, 95616, Note_on_c, 2, 57, 79
17, 95616, Note_on_c, 2, 60, 79
17, 95616, Note_on_c, 2, 64, 79
17, 95680, Note_off_c, 2, 64, 79
17, 95680, Note_off_c, 2, 60, 79
17, 95680, Note_off_c, 2, 57, 79
17, 95712, Note_on_c, 2, 57, 79
17, 95712, Note_on_c, 2, 60, 79
17, 95712, Note_on_c, 2, 64, 79
17, 95776, Note_off_c, 2, 64, 79
17, 95776, Note_off_c, 2, 60, 79
17, 95776, Note_off_c, 2, 57, 79
17, 95808, Note_on_c, 2, 57, 79
17, 95808, Note_on_c, 2, 60, 79
17, 95808, Note_on_c, 2, 64, 79
17, 95872, Note_off_c, 2, 64, 79
17, 95872, Note_off_c, 2, 60, 79
17, 95872, Note_off_c, 2, 57, 79
17, 95904, Note_on_c, 2, 57, 79
17, 95904, Note_on_c, 2, 60, 79
17, 95904, Note_on_c, 2, 64, 79
17, 95968, Note_off_c, 2, 64, 79
17, 95968, Note_off_c, 2, 60, 79
17, 95968, Note_off_c, 2, 57, 79
17, 96000, Note_on_c, 2, 59, 79
17, 96000, Note_on_c, 2, 62, 79
17, 96000, Note_on_c, 2, 67, 79
17, 96128, Note_off_c, 2, 67, 79
17, 96128, Note_off_c, 2, 62, 79
17, 96128, Note_off_c, 2, 59, 79
17, 96192, Note_on_c, 2, 59, 79
17, 96192, Note_on_c, 2, 62, 79
17, 96192, Note_on_c, 2, 67, 79
17, 96320, Note_off_c, 2, 67, 79
17, 96320, Note_off_c, 2, 62, 79
17, 96320, Note_off_c, 2, 59, 79
17, 96384, Note_on_c, 2, 59, 79
17, 96384, Note_on_c, 2, 62, 79
17, 96384, Note_on_c, 2, 67, 79
17, 96448, Note_off_c, 2, 67, 79
17, 96448, Note_off_c, 2, 62, 79
17, 96448, Note_off_c, 2, 59, 79
17, 96480, Note_on_c, 2, 59, 79
17, 96480, Note_on_c, 2, 62, 79
17, 96480, Note_on_c, 2, 67, 79
17, 96544, Note_off_c, 2, 67, 79
17, 96544, Note_off_c, 2, 62, 79
17, 96544, Note_off_c, 2, 59, 79
17, 96576, Note_on_c, 2, 59, 79
17, 96576, Note_on_c, 2, 62, 79
17, 96576, Note_on_c, 2, 67, 79
17, 96640, Note_off_c, 2, 67, 79
17, 96640, Note_off_c, 2, 62, 79
17, 96640, Note_off_c, 2, 59, 79
17, 96672, Note_on_c, 2, 59, 79
17, 96672, Note_on_c, 2, 62, 79
17, 96672, Note_on_c, 2, 67, 79
17, 96736, Note_off_c, 2, 67, 79
17, 96736, Note_off_c, 2, 62, 79
17, 96736, Note_off_c, 2, 59, 79
17, 96768, Control_c, 2, 7, 96
17, 96768, Note_on_c, 2, 60, 79
17, 96768, Note_on_c, 2, 64, 79
17, 96768, Note_on_c, 2, 67, 79
17, 96840, Control_c, 2, 7, 95
17, 96896, Note_off_c, 2, 67, 79
17, 96896, Note_off_c, 2, 64, 79
17, 96896, Note_off_c, 2, 60, 79
17, 96912, Control_c, 2, 7, 94
17, 96960, Note_on_c, 2, 60, 79
17, 96960, Note_on_c, 2, 64, 79
17, 96960, Note_on_c, 2, 67, 79
17, 96984, Control_c, 2, 7, 93
17, 97056, Control_c, 2, 7, 92
17, 97088, Note_off_c, 2, 67, 79
17, 97088, Note_off_c, 2, 64, 79
17, 97088, Note_off_c, 2, 60, 79
17, 97128, Control_c, 2, 7, 91
17, 97152, Note_on_c, 2, 60, 79
17, 97152, Note_on_c, 2, 64, 79
17, 97152, Note_on_c, 2, 67, 79
17, 97200, Control_c, 2, 7, 90
17, 97216, Note_off_c, 2, 67, 79
17, 97216, Note_off_c, 2, 64, 79
17, 97216, Note_off_c, 2, 60, 79
17, 97248, Note_on_c, 2, 60, 79
17, 97248, Note_on_c, 2, 64, 79
17, 97248, Note_on_c, 2, 67, 79
17, 97272, Control_c, 2, 7, 89
17, 97312, Note_off_c, 2, 67, 79
17, 97312, Note_off_c, 2, 64, 79
17, 97312, Note_off_c, 2, 60, 79
17, 97344, Control_c, 2, 7, 88
17, 97344, Note_on_c, 2, 60, 79
17, 97344, Note_on_c, 2, 64, 79
17, 97344, Note_on_c, 2, 67, 79
17, 97408, Note_off_c, 2, 67, 79
17, 97408, Note_off_c, 2, 64, 79
17, 97408, Note_off_c, 2, 60, 79
17, 97416, Control_c, 2, 7, 87
17, 97440, Note_on_c, 2, 60, 79
17, 97440, Note_on_c, 2, 64, 79
17, 97440, Note_on_c, 2, 67, 79
17, 97488, Control_c, 2, 7, 86
17, 97504, Note_off_c, 2, 67, 79
17, 97504, Note_off_c, 2, 64, 79
17, 97504, Note_off_c, 2, 60, 79
17, 97536, Note_on_c, 2, 64, 79
17, 97536, Note_on_c, 2, 68, 79
17, 97536, Note_on_c, 2, 71, 79
17, 97536, Note_on_c, 2, 74, 79
17, 97560, Control_c, 2, 7, 85
17, 97632, Control_c, 2, 7, 84
17, 97664, Note_off_c, 2, 74, 79
17, 97664, Note_off_c, 2, 71, 79
17, 97664, Note_off_c, 2, 68, 79
17, 97664, Note_off_c, 2, 64, 79
17, 97704, Control_c, 2, 7, 83
17, 97728, Note_on_c, 2, 64, 79
17, 97728, Note_on_c, 2, 68, 79
17, 97728, Note_on_c, 2, 71, 79
17, 97728, Note_on_c, 2, 74, 79
17, 97776, Control_c, 2, 7, 82
17, 97848, Control_c, 2, 7, 81
17, 97856, Note_off_c, 2, 74, 79
17, 97856, Note_off_c, 2, 71, 79
17, 97856, Note_off_c, 2, 68, 79
17, 97856, Note_off_c, 2, 64, 79
17, 97920, Control_c, 2, 7, 80
17, 97920, Note_on_c, 2, 64, 79
17, 97920, Note_on_c, 2, 68, 79
17, 97920, Note_on_c, 2, 71, 79
17, 97920, Note_on_c, 2, 74, 79
17, 97984, Note_off_c, 2, 74, 79
17, 97984, Note_off_c, 2, 71, 79
17, 97984, Note_off_c, 2, 68, 79
17, 97984, Note_off_c, 2, 64, 79
17, 97992, Control_c, 2, 7, 79
17, 98016, Note_on_c, 2, 64, 79
17, 98016, Note_on_c, 2, 68, 79
17, 98016, Note_on_c, 2, 71, 79
17, 98016, Note_on_c, 2, 74, 79
17, 98064, Control_c, 2, 7, 78
17, 98080, Note_off_c, 2, 74, 79
17, 98080, Note_off_c, 2, 71, 79
17, 98080, Note_off_c, 2, 68, 79
17, 98080, Note_off_c, 2, 64, 79
17, 98112, Note_on_c, 2, 64, 79
17, 98112, Note_on_c, 2, 68, 79
17, 98112, Note_on_c, 2, 71, 79
17, 98112, Note_on_c, 2, 74, 79
17, 98136, Control_c, 2, 7, 77
17, 98176, Note_off_c, 2, 74, 79
17, 98176, Note_off_c, 2, 71, 79
17, 98176, Note_off_c, 2, 68, 79
17, 98176, Note_off_c, 2, 64, 79
17, 98208, Control_c, 2, 7, 76
17, 98208, Note_on_c, 2, 64, 79
17, 98208, Note_on_c, 2, 68, 79
17, 98208, Note_on_c, 2, 71, 79
17, 98208, Note_on_c, 2, 74, 79
17, 98272, Note_off_c, 2, 74, 79
17, 98272, Note_off_c, 2, 71, 79
17, 98272, Note_off_c, 2, 68, 79
17, 98272, Note_off_c, 2, 64, 79
17, 98280, Control_c, 2, 7, 75
17, 98304, Note_on_c, 2, 57, 79
17, 98304, Note_on_c, 2, 60, 79
17, 98304, Note_on_c, 2, 64, 79
17, 98352, Control_c, 2, 7, 74
17, 98424, Control_c, 2, 7, 73
17, 98432, Note_off_c, 2, 64, 79
17, 98432, Note_off_c, 2, 60, 79
17, 98432, Note_off_c, 2, 57, 79
17, 98496, Control_c, 2, 7, 72
17, 98496, Note_on_c, 2, 57, 79
17, 98496, Note_on_c, 2, 60, 79
17, 98496, Note_on_c, 2, 64, 79
17, 98568, Control_c, 2, 7, 71
17, 98624, Note_off_c, 2, 64, 79
17, 98624, Note_off_c, 2, 60, 79
17, 98624, Note_off_c, 2, 57, 79
17, 98640, Control_c, 2, 7, 70
17, 98688, Note_on_c, 2, 57, 79
17, 98688, Note_on_c, 2, 60, 79
17, 98688, Note_on_c, 2, 64, 79
17, 98712, Control_c, 2, 7, 69
17, 98752, Note_off_c, 2, 64, 79
17, 98752, Note_off_c, 2, 60, 79
17, 98752, Note_off_c, 2, 57, 79
17, 98784, Control_c, 2, 7, 68
17, 98784, Note_on_c, 2, 57, 79
17, 98784, Note_on_c, 2, 60, 79
17, 98784, Note_on_c, 2, 64, 79
17, 98848, Note_off_c, 2, 64, 79
17, 98848, Note_off_c, 2, 60, 79
17, 98848, Note_off_c, 2, 57, 79
17, 98856, Control_c, 2, 7, 67
17, 98880, Note_on_c, 2, 57, 79
17, 98880, Note_on_c, 2, 60, 79
17, 98880, Note_on_c, 2, 64, 79
17, 98928, Control_c, 2, 7, 66
17, 98944, Note_off_c, 2, 64, 79
17, 98944, Note_off_c, 2, 60, 79
17, 98944, Note_off_c, 2, 57, 79
17, 98976, Note_on_c, 2, 57, 79
17, 98976, Note_on_c, 2, 60, 79
17, 98976, Note_on_c, 2, 64, 79
17, 99000, Control_c, 2, 7, 65
17, 99040, Note_off_c, 2, 64, 79
17, 99040, Note_off_c, 2, 60, 79
17, 99040, Note_off_c, 2, 57, 79
17, 99072, Control_c, 2, 7, 64
17, 99072, Note_on_c, 2, 57, 79
17, 99072, Note_on_c, 2, 60, 79
17, 99072, Note_on_c, 2, 64, 79
17, 99072, Note_on_c, 2, 67, 79
17, 99144, Control_c, 2, 7, 63
17, 99200, Note_off_c, 2, 67, 79
17, 99200, Note_off_c, 2, 64, 79
17, 99200, Note_off_c, 2, 60, 79
17, 99200, Note_off_c, 2, 57, 79
17, 99216, Control_c, 2, 7, 62
17, 99264, Note_on_c, 2, 57, 79
17, 99264, Note_on_c, 2, 60, 79
17, 99264, Note_on_c, 2, 64, 79
17, 99264, Note_on_c, 2, 67, 79
17, 99288, Control_c, 2, 7, 61
17, 99360, Control_c, 2, 7, 60
17, 99392, Note_off_c, 2, 67, 79
17, 99392, Note_off_c, 2, 64, 79
17, 99392, Note_off_c, 2, 60, 79
17, 99392, Note_off_c, 2, 57, 79
17, 99432, Control_c, 2, 7, 59
17, 99456, Note_on_c, 2, 57, 79
17, 99456, Note_on_c, 2, 60, 79
17, 99456, Note_on_c, 2, 64, 79
17, 99456, Note_on_c, 2, 67, 79
17, 99504, Control_c, 2, 7, 58
17, 99520, Note_off_c, 2, 67, 79
17, 99520, Note_off_c, 2, 64, 79
17, 99520, Note_off_c, 2, 60, 79
17, 99520, Note_off_c, 2, 57, 79
17, 99552, Note_on_c, 2, 57, 79
17, 99552, Note_on_c, 2, 60, 79
17, 99552, Note_on_c, 2, 64, 79
17, 99552, Note_on_c, 2, 67, 79
17, 99576, Control_c, 2, 7, 57
17, 99616, Note_off_c, 2, 67, 79
17, 99616, Note_off_c, 2, 64, 79
17, 99616, Note_off_c, 2, 60, 79
17, 99616, Note_off_c, 2, 57, 79
17, 99648, Control_c, 2, 7, 56
17, 99648, Note_on_c, 2, 57, 79
17, 99648, Note_on_c, 2, 60, 79
17, 99648, Note_on_c, 2, 64, 79
17, 99648, Note_on_c, 2, 67, 79
17, 99712, Note_off_c, 2, 67, 79
17, 99712, Note_off_c, 2, 64, 79
17, 99712, Note_off_c, 2, 60, 79
17, 99712, Note_off_c, 2, 57, 79
17, 99720, Control_c, 2, 7, 55
17, 99744, Note_on_c, 2, 57, 79
17, 99744, Note_on_c, 2, 60, 79
17, 99744, Note_on_c, 2, 64, 79
17, 99744, Note_on_c, 2, 67, 79
17, 99792, Control_c, 2, 7, 54
17, 99808, Note_off_c, 2, 67, 79
17, 99808, Note_off_c, 2, 64, 79
17, 99808, Note_off_c, 2, 60, 79
17, 99808, Note_off_c, 2, 57, 79
17, 99840, Note_on_c, 2, 62, 79
17, 99840, Note_on_c, 2, 66, 79
17, 99840, Note_on_c, 2, 69, 79
17, 99840, Note_on_c, 2, 72, 79
17, 99864, Control_c, 2, 7, 53
17, 99936, Control_c, 2, 7, 52
17, 99968, Note_off_c, 2, 72, 79
17, 99968, Note_off_c, 2, 69, 79
17, 99968, Note_off_c, 2, 66, 79
17, 99968, Note_off_c, 2, 62, 79
17, 100008, Control_c, 2, 7, 51
17, 100032, Note_on_c, 2, 62, 79
17, 100032, Note_on_c, 2, 66, 79
17, 100032, Note_on_c, 2, 69, 79
17, 100032, Note_on_c, 2, 72, 79
17, 100080, Control_c, 2, 7, 50
17, 100152, Control_c, 2, 7, 49
17, 100160, Note_off_c, 2, 72, 79
17, 100160, Note_off_c, 2, 69, 79
17, 100160, Note_off_c, 2, 66, 79
17, 100160, Note_off_c, 2, 62, 79
17, 100224, Control_c, 2, 7, 48
17, 100224, Note_on_c, 2, 62, 79
17, 100224, Note_on_c, 2, 66, 79
17, 100224, Note_on_c, 2, 69, 79
17, 100224, Note_on_c, 2, 72, 79
17, 100288, Note_off_c, 2, 72, 79
17, 100288, Note_off_c, 2, 69, 79
17, 100288, Note_off_c, 2, 66, 79
17, 100288, Note_off_c, 2, 62, 79
17, 100296, Control_c, 2, 7, 47
17, 100320, Note_on_c, 2, 62, 79
17, 100320, Note_on_c, 2, 66, 79
17, 100320, Note_on_c, 2, 69, 79
17, 100320, Note_on_c, 2, 72, 79
17, 100368, Control_c, 2, 7, 46
17, 100384, Note_off_c, 2, 72, 79
17, 100384, Note_off_c, 2, 69, 79
17, 100384, Note_off_c, 2, 66, 79
17, 100384, Note_off_c, 2, 62, 79
17, 100416, Note_on_c, 2, 62, 79
17, 100416, Note_on_c, 2, 66, 79
17, 100416, Note_on_c, 2, 69, 79
17, 100416, Note_on_c, 2, 72, 79
17, 100440, Control_c, 2, 7, 45
17, 100480, Note_off_c, 2, 72, 79
17, 100480, Note_off_c, 2, 69, 79
17, 100480, Note_off_c, 2, 66, 79
17, 100480, Note_off_c, 2, 62, 79
17, 100512, Control_c, 2, 7, 44
17, 100512, Note_on_c, 2, 62, 79
17, 100512, Note_on_c, 2, 66, 79
17, 100512, Note_on_c, 2, 69, 79
17, 100512, Note_on_c, 2, 72, 79
17, 100576, Note_off_c, 2, 72, 79
17, 100576, Note_off_c, 2, 69, 79
17, 100576, Note_off_c, 2, 66, 79
17, 100576, Note_off_c, 2, 62, 79
17, 100584, Control_c, 2, 7, 43
17, 100608, Note_on_c, 2, 65, 79
17, 100608, Note_on_c, 2, 69, 79
17, 100608, Note_on_c, 2, 72, 79
17, 100608, Note_on_c, 2, 76, 79
17, 100656, Control_c, 2, 7, 42
17, 100728, Control_c, 2, 7, 41
17, 100736, Note_off_c, 2, 76, 79
17, 100736, Note_off_c, 2, 72, 79
17, 100736, Note_off_c, 2, 69, 79
17, 100736, Note_off_c, 2, 65, 79
17, 100800, Control_c, 2, 7, 40
17, 100800, Note_on_c, 2, 65, 79
17, 100800, Note_on_c, 2, 69, 79
17, 100800, Note_on_c, 2, 72, 79
17, 100800, Note_on_c, 2, 76, 79
17, 100872, Control_c, 2, 7, 39
17, 100928, Note_off_c, 2, 76, 79
17, 100928, Note_off_c, 2, 72, 79
17, 100928, Note_off_c, 2, 69, 79
17, 100928, Note_off_c, 2, 65, 79
17, 100944, Control_c, 2, 7, 38
17, 100992, Note_on_c, 2, 65, 79
17, 100992, Note_on_c, 2, 69, 79
17, 100992, Note_on_c, 2, 72, 79
17, 100992, Note_on_c, 2, 76, 79
17, 101016, Control_c, 2, 7, 37
17, 101056, Note_off_c, 2, 76, 79
17, 101056, Note_off_c, 2, 72, 79
17, 101056, Note_off_c, 2, 69, 79
17, 101056, Note_off_c, 2, 65, 79
17, 101088, Control_c, 2, 7, 36
17, 101088, Note_on_c, 2, 65, 79
17, 101088, Note_on_c, 2, 69, 79
17, 101088, Note_on_c, 2, 72, 79
17, 101088, Note_on_c, 2, 76, 79
17, 101152, Note_off_c, 2, 76, 79
17, 101152, Note_off_c, 2, 72, 79
17, 101152, Note_off_c, 2, 69, 79
17, 101152, Note_off_c, 2, 65, 79
17, 101160, Control_c, 2, 7, 35
17, 101184, Note_on_c, 2, 65, 79
17, 101184, Note_on_c, 2, 69, 79
17, 101184, Note_on_c, 2, 72, 79
17, 101184, Note_on_c, 2, 76, 79
17, 101232, Control_c, 2, 7, 34
17, 101248, Note_off_c, 2, 76, 79
17, 101248, Note_off_c, 2, 72, 79
17, 101248, Note_off_c, 2, 69, 79
17, 101248, Note_off_c, 2, 65, 79
17, 101280, Note_on_c, 2, 65, 79
17, 101280, Note_on_c, 2, 69, 79
17, 101280, Note_on_c, 2, 72, 79
17, 101280, Note_on_c, 2, 76, 79
17, 101304, Control_c, 2, 7, 33
17, 101344, Note_off_c, 2, 76, 79
17, 101344, Note_off_c, 2, 72, 79
17, 101344, Note_off_c, 2, 69, 79
17, 101344, Note_off_c, 2, 65, 79
17, 101376, Control_c, 2, 7, 32
17, 101376, Note_on_c, 2, 57, 79
17, 101376, Note_on_c, 2, 60, 79
17, 101376, Note_on_c, 2, 64, 79
17, 101448, Control_c, 2, 7, 31
17, 101504, Note_off_c, 2, 64, 79
17, 101504, Note_off_c, 2, 60, 79
17, 101504, Note_off_c, 2, 57, 79
17, 101520, Control_c, 2, 7, 30
17, 101568, Note_on_c, 2, 57, 79
17, 101568, Note_on_c, 2, 60, 79
17, 101568, Note_on_c, 2, 64, 79
17, 101592, Control_c, 2, 7, 29
17, 101664, Control_c, 2, 7, 28
17, 101696, Note_off_c, 2, 64, 79
17, 101696, Note_off_c, 2, 60, 79
17, 101696, Note_off_c, 2, 57, 79
17, 101736, Control_c, 2, 7, 27
17, 101760, Note_on_c, 2, 57, 79
17, 101760, Note_on_c, 2, 60, 79
17, 101760, Note_on_c, 2, 64, 79
17, 101808, Control_c, 2, 7, 26
17, 101824, Note_off_c, 2, 64, 79
17, 101824, Note_off_c, 2, 60, 79
17, 101824, Note_off_c, 2, 57, 79
17, 101856, Note_on_c, 2, 57, 79
17, 101856, Note_on_c, 2, 60, 79
17, 101856, Note_on_c, 2, 64, 79
17, 101880, Control_c, 2, 7, 25
17, 101920, Note_off_c, 2, 64, 79
17, 101920, Note_off_c, 2, 60, 79
17, 101920, Note_off_c, 2, 57, 79
17, 101952, Control_c, 2, 7, 24
17, 101952, Note_on_c, 2, 57, 79
17, 101952, Note_on_c, 2, 60, 79
17, 101952, Note_on_c, 2, 64, 79
17, 102016, Note_off_c, 2, 64, 79
17, 102016, Note_off_c, 2, 60, 79
17, 102016, Note_off_c, 2, 57, 79
17, 102024, Control_c, 2, 7, 23
17, 102048, Note_on_c, 2, 57, 79
17, 102048, Note_on_c, 2, 60, 79
17, 102048, Note_on_c, 2, 64, 79
17, 102096, Control_c, 2, 7, 22
17, 102112, Note_off_c, 2, 64, 79
17, 102112, Note_off_c, 2, 60, 79
17, 102112, Note_off_c, 2, 57, 79
17, 102144, Note_on_c, 2, 55, 79
17, 102144, Note_on_c, 2, 59, 79
17, 102144, Note_on_c, 2, 62, 79
17, 102168, Control_c, 2, 7, 21
17, 102240, Control_c, 2, 7, 20
17, 102272, Note_off_c, 2, 62, 79
17, 102272, Note_off_c, 2, 59, 79
17, 102272, Note_off_c, 2, 55, 79
17, 102312, Control_c, 2, 7, 19
17, 102336, Note_on_c, 2, 55, 79
17, 102336, Note_on_c, 2, 59, 79
17, 102336, Note_on_c, 2, 62, 79
17, 102384, Control_c, 2, 7, 18
17, 102456, Control_c, 2, 7, 17
17, 102464, Note_off_c, 2, 62, 79
17, 102464, Note_off_c, 2, 59, 79
17, 102464, Note_off_c, 2, 55, 79
17, 102528, Control_c, 2, 7, 16
17, 102528, Note_on_c, 2, 55, 79
17, 102528, Note_on_c, 2, 59, 79
17, 102528, Note_on_c, 2, 62, 79
17, 102592, Note_off_c, 2, 62, 79
17, 102592, Note_off_c, 2, 59, 79
17, 102592, Note_off_c, 2, 55, 79
17, 102600, Control_c, 2, 7, 15
17, 102624, Note_on_c, 2, 55, 79
17, 102624, Note_on_c, 2, 59, 79
17, 102624, Note_on_c, 2, 62, 79
17, 102672, Control_c, 2, 7, 14
17, 102688, Note_off_c, 2, 62, 79
17, 102688, Note_off_c, 2, 59, 79
17, 102688, Note_off_c, 2, 55, 79
17, 102720, Note_on_c, 2, 55, 79
17, 102720, Note_on_c, 2, 59, 79
17, 102720, Note_on_c, 2, 62, 79
17, 102744, Control_c, 2, 7, 13
17, 102784, Note_off_c, 2, 62, 79
17, 102784, Note_off_c, 2, 59, 79
17, 102784, Note_off_c, 2, 55, 79
17, 102816, Control_c, 2, 7, 12
17, 102816, Note_on_c, 2, 55, 79
17, 102816, Note_on_c, 2, 59, 79
17, 102816, Note_on_c, 2, 62, 79
17, 102880, Note_off_c, 2, 62, 79
17, 102880, Note_off_c, 2, 59, 79
17, 102880, Note_off_c, 2, 55, 79
17, 102888, Control_c, 2, 7, 11
17, 102912, Note_on_c, 2, 57, 79
17, 102912, Note_on_c, 2, 62, 79
17, 102912, Note_on_c, 2, 66, 79
17, 102960, Control_c, 2, 7, 10
17, 103032, Control_c, 2, 7, 9
17, 103040, Note_off_c, 2, 66, 79
17, 103040, Note_off_c, 2, 62, 79
17, 103040, Note_off_c, 2, 57, 79
17, 103104, Control_c, 2, 7, 8
17, 103104, Note_on_c, 2, 57, 79
17, 103104, Note_on_c, 2, 62, 79
17, 103104, Note_on_c, 2, 66, 79
17, 103176, Control_c, 2, 7, 7
17, 103232, Note_off_c, 2, 66, 79
17, 103232, Note_off_c, 2, 62, 79
17, 103232, Note_off_c, 2, 57, 79
17, 103248, Control_c, 2, 7, 6
17, 103296, Note_on_c, 2, 57, 79
17, 103296, Note_on_c, 2, 62, 79
17, 103296, Note_on_c, 2, 66, 79
17, 103320, Control_c, 2, 7, 5
17, 103360, Note_off_c, 2, 66, 79
17, 103360, Note_off_c, 2, 62, 79
17, 103360, Note_off_c, 2, 57, 79
17, 103392, Control_c, 2, 7, 4
17, 103392, Note_on_c, 2, 57, 79
17, 103392, Note_on_c, 2, 62, 79
17, 103392, Note_on_c, 2, 66, 79
17, 103456, Note_off_c, 2, 66, 79
17, 103456, Note_off_c, 2, 62, 79
17, 103456, Note_off_c, 2, 57, 79
17, 103464, Control_c, 2, 7, 3
17, 103488, Note_on_c, 2, 57, 79
17, 103488, Note_on_c, 2, 62, 79
17, 103488, Note_on_c, 2, 66, 79
17, 103536, Control_c, 2, 7, 2
17, 103552, Note_off_c, 2, 66, 79
17, 103552, Note_off_c, 2, 62, 79
17, 103552, Note_off_c, 2, 57, 79
17, 103584, Note_on_c, 2, 57, 79
17, 103584, Note_on_c, 2, 62, 79
17, 103584, Note_on_c, 2, 66, 79
17, 103608, Control_c, 2, 7, 1
17, 141632, Note_off_c, 2, 66, 79
17, 141632, Note_off_c, 2, 62, 79
17, 141632, Note_off_c, 2, 57, 79
17, 141632, End_track
18, 0, Start_track
18, 0, Text_t, "MIDI"
18, 0, Program_c, 3, 1
18, 0, Control_c, 3, 7, 96
18, 0, Control_c, 3, 10, 64
18, 0, Pitch_bend_c, 3, 8192
18, 0, Control_c, 3, 1, 0
18, 0, Control_c, 3, 64, 0
18, 0, Note_on_c, 3, 69, 95
18, 96, Note_off_c, 3, 69, 95
18, 144, Note_on_c, 3, 69, 95
18, 176, Note_off_c, 3, 69, 95
18, 192, Note_on_c, 3, 69, 95
18, 288, Note_off_c, 3, 69, 95
18, 336, Note_on_c, 3, 69, 95
18, 368, Note_off_c, 3, 69, 95
18, 384, Note_on_c, 3, 69, 95
18, 480, Note_off_c, 3, 69, 95
18, 528, Note_on_c, 3, 69, 95
18, 560, Note_off_c, 3, 69, 95
18, 576, Note_on_c, 3, 69, 95
18, 672, Note_off_c, 3, 69, 95
18, 720, Note_on_c, 3, 69, 95
18, 752, Note_off_c, 3, 69, 95
18, 768, Note_on_c, 3, 69, 95
18, 864, Note_off_c, 3, 69, 95
18, 912, Note_on_c, 3, 69, 95
18, 944, Note_off_c, 3, 69, 95
18, 960, Note_on_c, 3, 69, 95
18, 1056, Note_off_c, 3, 69, 95
18, 1104, Note_on_c, 3, 69, 95
18, 1136, Note_off_c, 3, 69, 95
18, 1152, Note_on_c, 3, 69, 95
18, 1184, Note_off_c, 3, 69, 95
18, 1200, Note_on_c, 3, 69, 95
18, 1232, Note_off_c, 3, 69, 95
18, 1248, Note_on_c, 3, 69, 95
18, 1376, Note_off_c, 3, 69, 95
18, 1392, Note_on_c, 3, 69, 95
18, 1424, Note_off_c, 3, 69, 95
18, 1440, Note_on_c, 3, 69, 95
18, 1504, Note_off_c, 3, 69, 95
18, 1536, Note_on_c, 3, 69, 95
18, 1632, Note_off_c, 3, 69, 95
18, 1680, Note_on_c, 3, 69, 95
18, 1712, Note_off_c, 3, 69, 95
18, 1728, Note_on_c, 3, 69, 95
18, 1824, Note_off_c, 3, 69, 95
18, 1872, Note_on_c, 3, 69, 95
18, 1904, Note_off_c, 3, 69, 95
18, 1920, Note_on_c, 3, 69, 95
18, 1984, Note_off_c, 3, 69, 95
18, 2016, Note_on_c, 3, 71, 95
18, 2048, Note_off_c, 3, 71, 95
18, 2064, Note_on_c, 3, 71, 95
18, 2144, Note_off_c, 3, 71, 95
18, 2160, Note_on_c, 3, 72, 95
18, 2192, Note_off_c, 3, 72, 95
18, 2208, Note_on_c, 3, 72, 95
18, 2272, Note_off_c, 3, 72, 95
18, 2304, Note_on_c, 3, 74, 95
18, 2684, Note_off_c, 3, 74, 95
18, 2880, Note_on_c, 3, 72, 95
18, 2944, Note_off_c, 3, 72, 95
18, 2976, Note_on_c, 3, 74, 95
18, 3040, Note_off_c, 3, 74, 95
18, 3072, Note_on_c, 3, 76, 95
18, 3264, Note_off_c, 3, 76, 95
18, 3360, Note_on_c, 3, 72, 95
18, 3584, Note_off_c, 3, 72, 95
18, 3648, Note_on_c, 3, 69, 95
18, 3776, Note_off_c, 3, 69, 95
18, 3840, Note_on_c, 3, 74, 95
18, 4032, Note_off_c, 3, 74, 95
18, 4128, Note_on_c, 3, 71, 95
18, 4352, Note_off_c, 3, 71, 95
18, 4416, Note_on_c, 3, 67, 95
18, 4544, Note_off_c, 3, 67, 95
18, 4608, Note_on_c, 3, 74, 95
18, 4800, Note_off_c, 3, 74, 95
18, 4896, Note_on_c, 3, 69, 95
18, 5120, Note_off_c, 3, 69, 95
18, 5184, Note_on_c, 3, 66, 95
18, 5312, Note_off_c, 3, 66, 95
18, 5376, Note_on_c, 3, 74, 95
18, 5884, Note_off_c, 3, 74, 95
18, 6144, Note_on_c, 3, 72, 79
18, 6144, Note_on_c, 3, 69, 79
18, 6144, Note_on_c, 3, 57, 79
18, 6144, Note_on_c, 3, 76, 79
18, 6272, Note_off_c, 3, 76, 79
18, 6272, Note_off_c, 3, 57, 79
18, 6272, Note_off_c, 3, 69, 79
18, 6272, Note_off_c, 3, 72, 79
18, 6336, Note_on_c, 3, 57, 79
18, 6336, Note_on_c, 3, 69, 79
18, 6336, Note_on_c, 3, 72, 79
18, 6336, Note_on_c, 3, 76, 79
18, 6780, Note_off_c, 3, 76, 79
18, 6780, Note_off_c, 3, 72, 79
18, 6780, Note_off_c, 3, 69, 79
18, 6780, Note_off_c, 3, 57, 79
18, 6912, Note_on_c, 3, 72, 79
18, 6912, Note_on_c, 3, 69, 79
18, 6912, Note_on_c, 3, 55, 79
18, 6912, Note_on_c, 3, 76, 79
18, 7040, Note_off_c, 3, 76, 79
18, 7040, Note_off_c, 3, 55, 79
18, 7040, Note_off_c, 3, 69, 79
18, 7040, Note_off_c, 3, 72, 79
18, 7104, Note_on_c, 3, 72, 79
18, 7104, Note_on_c, 3, 69, 79
18, 7104, Note_on_c, 3, 55, 79
18, 7104, Note_on_c, 3, 76, 79
18, 7548, Note_off_c, 3, 76, 79
18, 7548, Note_off_c, 3, 55, 79
18, 7548, Note_off_c, 3, 69, 79
18, 7548, Note_off_c, 3, 72, 79
18, 7680, Note_on_c, 3, 72, 79
18, 7680, Note_on_c, 3, 69, 79
18, 7680, Note_on_c, 3, 54, 79
18, 7680, Note_on_c, 3, 76, 79
18, 7772, Note_off_c, 3, 54, 79
18, 7808, Note_off_c, 3, 76, 79
18, 7808, Note_off_c, 3, 69, 79
18, 7808, Note_off_c, 3, 72, 79
18, 7872, Note_on_c, 3, 72, 79
18, 7872, Note_on_c, 3, 69, 79
18, 7872, Note_on_c, 3, 54, 79
18, 7872, Note_on_c, 3, 76, 79
18, 8316, Note_off_c, 3, 76, 79
18, 8316, Note_off_c, 3, 54, 79
18, 8316, Note_off_c, 3, 69, 79
18, 8316, Note_off_c, 3, 72, 79
18, 8448, Note_on_c, 3, 72, 79
18, 8448, Note_on_c, 3, 69, 79
18, 8448, Note_on_c, 3, 53, 79
18, 8448, Note_on_c, 3, 76, 79
18, 8576, Note_off_c, 3, 76, 79
18, 8576, Note_off_c, 3, 53, 79
18, 8576, Note_off_c, 3, 69, 79
18, 8576, Note_off_c, 3, 72, 79
18, 8640, Note_on_c, 3, 72, 79
18, 8640, Note_on_c, 3, 69, 79
18, 8640, Note_on_c, 3, 53, 79
18, 8640, Note_on_c, 3, 76, 79
18, 9084, Note_off_c, 3, 76, 79
18, 9084, Note_off_c, 3, 53, 79
18, 9084, Note_off_c, 3, 69, 79
18, 9084, Note_off_c, 3, 72, 79
18, 9216, Note_on_c, 3, 72, 79
18, 9216, Note_on_c, 3, 69, 79
18, 9216, Note_on_c, 3, 57, 79
18, 9216, Note_on_c, 3, 76, 79
18, 9344, Note_off_c, 3, 76, 79
18, 9344, Note_off_c, 3, 57, 79
18, 9344, Note_off_c, 3, 69, 79
18, 9344, Note_off_c, 3, 72, 79
18, 9408, Note_on_c, 3, 72, 79
18, 9408, Note_on_c, 3, 69, 79
18, 9408, Note_on_c, 3, 57, 79
18, 9408, Note_on_c, 3, 76, 79
18, 9852, Note_off_c, 3, 76, 79
18, 9852, Note_off_c, 3, 57, 79
18, 9852, Note_off_c, 3, 69, 79
18, 9852, Note_off_c, 3, 72, 79
18, 9984, Note_on_c, 3, 67, 79
18, 9984, Note_on_c, 3, 62, 79
18, 9984, Note_on_c, 3, 55, 79
18, 9984, Note_on_c, 3, 71, 79
18, 10112, Note_off_c, 3, 71, 79
18, 10112, Note_off_c, 3, 55, 79
18, 10112, Note_off_c, 3, 62, 79
18, 10112, Note_off_c, 3, 67, 79
18, 10176, Note_on_c, 3, 55, 79
18, 10176, Note_on_c, 3, 62, 79
18, 10176, Note_on_c, 3, 67, 79
18, 10176, Note_on_c, 3, 71, 79
18, 10620, Note_off_c, 3, 71, 79
18, 10620, Note_off_c, 3, 67, 79
18, 10620, Note_off_c, 3, 62, 79
18, 10620, Note_off_c, 3, 55, 79
18, 10752, Note_on_c, 3, 69, 79
18, 10752, Note_on_c, 3, 66, 79
18, 10752, Note_on_c, 3, 50, 79
18, 10752, Note_on_c, 3, 74, 79
18, 10880, Note_off_c, 3, 74, 79
18, 10880, Note_off_c, 3, 50, 79
18, 10880, Note_off_c, 3, 66, 79
18, 10880, Note_off_c, 3, 69, 79
18, 10944, Note_on_c, 3, 66, 79
18, 10944, Note_on_c, 3, 69, 79
18, 10944, Note_on_c, 3, 50, 79
18, 10944, Note_on_c, 3, 74, 79
18, 11388, Note_off_c, 3, 74, 79
18, 11388, Note_off_c, 3, 50, 79
18, 11388, Note_off_c, 3, 69, 79
18, 11388, Note_off_c, 3, 66, 79
18, 11520, Note_on_c, 3, 71, 79
18, 11520, Note_on_c, 3, 68, 79
18, 11520, Note_on_c, 3, 52, 79
18, 11520, Note_on_c, 3, 76, 79
18, 11644, Note_off_c, 3, 76, 79
18, 11644, Note_off_c, 3, 52, 79
18, 11644, Note_off_c, 3, 68, 79
18, 11644, Note_off_c, 3, 71, 79
18, 11712, Note_on_c, 3, 71, 79
18, 11712, Note_on_c, 3, 68, 79
18, 11712, Note_on_c, 3, 52, 79
18, 11712, Note_on_c, 3, 76, 79
18, 11836, Note_off_c, 3, 76, 79
18, 11836, Note_off_c, 3, 68, 79
18, 11836, Note_off_c, 3, 71, 79
18, 11904, Note_on_c, 3, 71, 79
18, 11904, Note_on_c, 3, 68, 79
18, 11904, Note_on_c, 3, 76, 79
18, 12028, Note_off_c, 3, 76, 79
18, 12028, Note_off_c, 3, 68, 79
18, 12028, Note_off_c, 3, 71, 79
18, 12096, Note_on_c, 3, 71, 79
18, 12096, Note_on_c, 3, 68, 79
18, 12096, Note_on_c, 3, 76, 79
18, 12156, Note_off_c, 3, 52, 79
18, 12220, Note_off_c, 3, 76, 79
18, 12220, Note_off_c, 3, 68, 79
18, 12220, Note_off_c, 3, 71, 79
18, 12288, Note_on_c, 3, 72, 79
18, 12288, Note_on_c, 3, 69, 79
18, 12288, Note_on_c, 3, 57, 79
18, 12288, Note_on_c, 3, 76, 79
18, 12416, Note_off_c, 3, 76, 79
18, 12416, Note_off_c, 3, 57, 79
18, 12416, Note_off_c, 3, 69, 79
18, 12416, Note_off_c, 3, 72, 79
18, 12480, Note_on_c, 3, 72, 79
18, 12480, Note_on_c, 3, 69, 79
18, 12480, Note_on_c, 3, 57, 79
18, 12480, Note_on_c, 3, 76, 79
18, 12924, Note_off_c, 3, 76, 79
18, 12924, Note_off_c, 3, 57, 79
18, 12924, Note_off_c, 3, 69, 79
18, 12924, Note_off_c, 3, 72, 79
18, 13056, Note_on_c, 3, 72, 79
18, 13056, Note_on_c, 3, 69, 79
18, 13056, Note_on_c, 3, 55, 79
18, 13056, Note_on_c, 3, 76, 79
18, 13184, Note_off_c, 3, 76, 79
18, 13184, Note_off_c, 3, 55, 79
18, 13184, Note_off_c, 3, 69, 79
18, 13184, Note_off_c, 3, 72, 79
18, 13248, Note_on_c, 3, 72, 79
18, 13248, Note_on_c, 3, 69, 79
18, 13248, Note_on_c, 3, 55, 79
18, 13248, Note_on_c, 3, 76, 79
18, 13692, Note_off_c, 3, 76, 79
18, 13692, Note_off_c, 3, 55, 79
18, 13692, Note_off_c, 3, 69, 79
18, 13692, Note_off_c, 3, 72, 79
18, 13824, Note_on_c, 3, 72, 79
18, 13824, Note_on_c, 3, 69, 79
18, 13824, Note_on_c, 3, 54, 79
18, 13824, Note_on_c, 3, 76, 79
18, 13952, Note_off_c, 3, 76, 79
18, 13952, Note_off_c, 3, 54, 79
18, 13952, Note_off_c, 3, 69, 79
18, 13952, Note_off_c, 3, 72, 79
18, 14016, Note_on_c, 3, 72, 79
18, 14016, Note_on_c, 3, 69, 79
18, 14016, Note_on_c, 3, 54, 79
18, 14016, Note_on_c, 3, 76, 79
18, 14460, Note_off_c, 3, 76, 79
18, 14460, Note_off_c, 3, 54, 79
18, 14460, Note_off_c, 3, 69, 79
18, 14460, Note_off_c, 3, 72, 79
18, 14592, Note_on_c, 3, 72, 79
18, 14592, Note_on_c, 3, 69, 79
18, 14592, Note_on_c, 3, 53, 79
18, 14592, Note_on_c, 3, 76, 79
18, 14720, Note_off_c, 3, 76, 79
18, 14720, Note_off_c, 3, 53, 79
18, 14720, Note_off_c, 3, 69, 79
18, 14720, Note_off_c, 3, 72, 79
18, 14784, Note_on_c, 3, 72, 79
18, 14784, Note_on_c, 3, 69, 79
18, 14784, Note_on_c, 3, 53, 79
18, 14784, Note_on_c, 3, 76, 79
18, 14912, Note_off_c, 3, 53, 79
18, 14976, Note_on_c, 3, 53, 79
18, 15040, Note_off_c, 3, 53, 79
18, 15072, Note_on_c, 3, 53, 79
18, 15136, Note_off_c, 3, 53, 79
18, 15164, Note_off_c, 3, 76, 79
18, 15164, Note_off_c, 3, 69, 79
18, 15164, Note_off_c, 3, 72, 79
18, 15168, Note_on_c, 3, 53, 79
18, 15232, Note_off_c, 3, 53, 79
18, 15264, Note_on_c, 3, 53, 79
18, 15328, Note_off_c, 3, 53, 79
18, 15360, Note_on_c, 3, 72, 79
18, 15360, Note_on_c, 3, 69, 79
18, 15360, Note_on_c, 3, 57, 79
18, 15360, Note_on_c, 3, 76, 79
18, 15488, Note_off_c, 3, 76, 79
18, 15488, Note_off_c, 3, 57, 79
18, 15488, Note_off_c, 3, 69, 79
18, 15488, Note_off_c, 3, 72, 79
18, 15552, Note_on_c, 3, 72, 79
18, 15552, Note_on_c, 3, 69, 79
18, 15552, Note_on_c, 3, 57, 79
18, 15552, Note_on_c, 3, 76, 79
18, 15996, Note_off_c, 3, 76, 79
18, 15996, Note_off_c, 3, 57, 79
18, 15996, Note_off_c, 3, 69, 79
18, 15996, Note_off_c, 3, 72, 79
18, 16128, Note_on_c, 3, 72, 79
18, 16128, Note_on_c, 3, 69, 79
18, 16128, Note_on_c, 3, 55, 79
18, 16128, Note_on_c, 3, 76, 79
18, 16256, Note_off_c, 3, 76, 79
18, 16256, Note_off_c, 3, 55, 79
18, 16256, Note_off_c, 3, 69, 79
18, 16256, Note_off_c, 3, 72, 79
18, 16320, Note_on_c, 3, 72, 79
18, 16320, Note_on_c, 3, 69, 79
18, 16320, Note_on_c, 3, 55, 79
18, 16320, Note_on_c, 3, 76, 79
18, 16764, Note_off_c, 3, 76, 79
18, 16764, Note_off_c, 3, 55, 79
18, 16764, Note_off_c, 3, 69, 79
18, 16764, Note_off_c, 3, 72, 79
18, 16896, Note_on_c, 3, 72, 79
18, 16896, Note_on_c, 3, 67, 79
18, 16896, Note_on_c, 3, 60, 79
18, 16896, Note_on_c, 3, 76, 79
18, 17024, Note_off_c, 3, 76, 79
18, 17024, Note_off_c, 3, 60, 79
18, 17024, Note_off_c, 3, 67, 79
18, 17024, Note_off_c, 3, 72, 79
18, 17088, Note_on_c, 3, 72, 79
18, 17088, Note_on_c, 3, 67, 79
18, 17088, Note_on_c, 3, 60, 79
18, 17088, Note_on_c, 3, 76, 79
18, 17532, Note_off_c, 3, 76, 79
18, 17532, Note_off_c, 3, 60, 79
18, 17532, Note_off_c, 3, 67, 79
18, 17532, Note_off_c, 3, 72, 79
18, 17664, Note_on_c, 3, 71, 79
18, 17664, Note_on_c, 3, 68, 79
18, 17664, Note_on_c, 3, 52, 79
18, 17664, Note_on_c, 3, 76, 79
18, 17792, Note_off_c, 3, 76, 79
18, 17792, Note_off_c, 3, 52, 79
18, 17792, Note_off_c, 3, 68, 79
18, 17792, Note_off_c, 3, 71, 79
18, 17856, Note_on_c, 3, 68, 79
18, 17856, Note_on_c, 3, 71, 79
18, 17856, Note_on_c, 3, 52, 79
18, 17856, Note_on_c, 3, 76, 79
18, 18300, Note_off_c, 3, 76, 79
18, 18300, Note_off_c, 3, 52, 79
18, 18300, Note_off_c, 3, 71, 79
18, 18300, Note_off_c, 3, 68, 79
18, 30720, Note_on_c, 3, 72, 79
18, 30720, Note_on_c, 3, 69, 79
18, 30720, Note_on_c, 3, 57, 79
18, 30720, Note_on_c, 3, 76, 79
18, 30848, Note_off_c, 3, 76, 79
18, 30848, Note_off_c, 3, 57, 79
18, 30848, Note_off_c, 3, 69, 79
18, 30848, Note_off_c, 3, 72, 79
18, 30912, Note_on_c, 3, 72, 79
18, 30912, Note_on_c, 3, 69, 79
18, 30912, Note_on_c, 3, 57, 79
18, 30912, Note_on_c, 3, 76, 79
18, 31356, Note_off_c, 3, 76, 79
18, 31356, Note_off_c, 3, 57, 79
18, 31356, Note_off_c, 3, 69, 79
18, 31356, Note_off_c, 3, 72, 79
18, 31488, Note_on_c, 3, 55, 79
18, 31488, Note_on_c, 3, 72, 79
18, 31488, Note_on_c, 3, 69, 79
18, 31488, Note_on_c, 3, 76, 79
18, 31616, Note_off_c, 3, 76, 79
18, 31616, Note_off_c, 3, 69, 79
18, 31616, Note_off_c, 3, 72, 79
18, 31616, Note_off_c, 3, 55, 79
18, 31680, Note_on_c, 3, 55, 79
18, 31680, Note_on_c, 3, 72, 79
18, 31680, Note_on_c, 3, 69, 79
18, 31680, Note_on_c, 3, 76, 79
18, 32124, Note_off_c, 3, 76, 79
18, 32124, Note_off_c, 3, 69, 79
18, 32124, Note_off_c, 3, 72, 79
18, 32124, Note_off_c, 3, 55, 79
18, 32256, Note_on_c, 3, 72, 79
18, 32256, Note_on_c, 3, 69, 79
18, 32256, Note_on_c, 3, 54, 79
18, 32256, Note_on_c, 3, 76, 79
18, 32384, Note_off_c, 3, 76, 79
18, 32384, Note_off_c, 3, 54, 79
18, 32384, Note_off_c, 3, 69, 79
18, 32384, Note_off_c, 3, 72, 79
18, 32448, Note_on_c, 3, 72, 79
18, 32448, Note_on_c, 3, 69, 79
18, 32448, Note_on_c, 3, 54, 79
18, 32448, Note_on_c, 3, 76, 79
18, 32892, Note_off_c, 3, 76, 79
18, 32892, Note_off_c, 3, 54, 79
18, 32892, Note_off_c, 3, 69, 79
18, 32892, Note_off_c, 3, 72, 79
18, 33024, Note_on_c, 3, 72, 79
18, 33024, Note_on_c, 3, 69, 79
18, 33024, Note_on_c, 3, 53, 79
18, 33024, Note_on_c, 3, 76, 79
18, 33152, Note_off_c, 3, 76, 79
18, 33152, Note_off_c, 3, 53, 79
18, 33152, Note_off_c, 3, 69, 79
18, 33152, Note_off_c, 3, 72, 79
18, 33216, Note_on_c, 3, 72, 79
18, 33216, Note_on_c, 3, 69, 79
18, 33216, Note_on_c, 3, 53, 79
18, 33216, Note_on_c, 3, 76, 79
18, 33660, Note_off_c, 3, 76, 79
18, 33660, Note_off_c, 3, 53, 79
18, 33660, Note_off_c, 3, 69, 79
18, 33660, Note_off_c, 3, 72, 79
18, 33792, Note_on_c, 3, 72, 79
18, 33792, Note_on_c, 3, 69, 79
18, 33792, Note_on_c, 3, 57, 79
18, 33792, Note_on_c, 3, 76, 79
18, 33920, Note_off_c, 3, 76, 79
18, 33920, Note_off_c, 3, 57, 79
18, 33920, Note_off_c, 3, 69, 79
18, 33920, Note_off_c, 3, 72, 79
18, 33984, Note_on_c, 3, 72, 79
18, 33984, Note_on_c, 3, 69, 79
18, 33984, Note_on_c, 3, 57, 79
18, 33984, Note_on_c, 3, 76, 79
18, 34428, Note_off_c, 3, 76, 79
18, 34428, Note_off_c, 3, 57, 79
18, 34428, Note_off_c, 3, 69, 79
18, 34428, Note_off_c, 3, 72, 79
18, 34560, Note_on_c, 3, 71, 79
18, 34560, Note_on_c, 3, 67, 79
18, 34560, Note_on_c, 3, 55, 79
18, 34560, Note_on_c, 3, 74, 79
18, 34688, Note_off_c, 3, 74, 79
18, 34688, Note_off_c, 3, 55, 79
18, 34688, Note_off_c, 3, 67, 79
18, 34688, Note_off_c, 3, 71, 79
18, 34752, Note_on_c, 3, 71, 79
18, 34752, Note_on_c, 3, 67, 79
18, 34752, Note_on_c, 3, 55, 79
18, 34752, Note_on_c, 3, 74, 79
18, 35196, Note_off_c, 3, 74, 79
18, 35196, Note_off_c, 3, 55, 79
18, 35196, Note_off_c, 3, 67, 79
18, 35196, Note_off_c, 3, 71, 79
18, 35328, Note_on_c, 3, 69, 79
18, 35328, Note_on_c, 3, 66, 79
18, 35328, Note_on_c, 3, 50, 79
18, 35328, Note_on_c, 3, 74, 79
18, 35456, Note_off_c, 3, 74, 79
18, 35456, Note_off_c, 3, 50, 79
18, 35456, Note_off_c, 3, 66, 79
18, 35456, Note_off_c, 3, 69, 79
18, 35520, Note_on_c, 3, 66, 79
18, 35520, Note_on_c, 3, 69, 79
18, 35520, Note_on_c, 3, 50, 79
18, 35520, Note_on_c, 3, 74, 79
18, 35964, Note_off_c, 3, 74, 79
18, 35964, Note_off_c, 3, 50, 79
18, 35964, Note_off_c, 3, 69, 79
18, 35964, Note_off_c, 3, 66, 79
18, 36096, Note_on_c, 3, 71, 79
18, 36096, Note_on_c, 3, 68, 79
18, 36096, Note_on_c, 3, 52, 79
18, 36096, Note_on_c, 3, 76, 79
18, 36224, Note_off_c, 3, 76, 79
18, 36224, Note_off_c, 3, 52, 79
18, 36224, Note_off_c, 3, 68, 79
18, 36224, Note_off_c, 3, 71, 79
18, 36288, Note_on_c, 3, 68, 79
18, 36288, Note_on_c, 3, 71, 79
18, 36288, Note_on_c, 3, 52, 79
18, 36288, Note_on_c, 3, 76, 79
18, 36732, Note_off_c, 3, 76, 79
18, 36732, Note_off_c, 3, 52, 79
18, 36732, Note_off_c, 3, 71, 79
18, 36732, Note_off_c, 3, 68, 79
18, 36864, Note_on_c, 3, 72, 79
18, 36864, Note_on_c, 3, 69, 79
18, 36864, Note_on_c, 3, 57, 79
18, 36864, Note_on_c, 3, 76, 79
18, 36992, Note_off_c, 3, 76, 79
18, 36992, Note_off_c, 3, 57, 79
18, 36992, Note_off_c, 3, 69, 79
18, 36992, Note_off_c, 3, 72, 79
18, 37056, Note_on_c, 3, 72, 79
18, 37056, Note_on_c, 3, 69, 79
18, 37056, Note_on_c, 3, 57, 79
18, 37056, Note_on_c, 3, 76, 79
18, 37500, Note_off_c, 3, 76, 79
18, 37500, Note_off_c, 3, 57, 79
18, 37500, Note_off_c, 3, 69, 79
18, 37500, Note_off_c, 3, 72, 79
18, 37632, Note_on_c, 3, 72, 79
18, 37632, Note_on_c, 3, 69, 79
18, 37632, Note_on_c, 3, 55, 79
18, 37632, Note_on_c, 3, 76, 79
18, 37760, Note_off_c, 3, 76, 79
18, 37760, Note_off_c, 3, 55, 79
18, 37760, Note_off_c, 3, 69, 79
18, 37760, Note_off_c, 3, 72, 79
18, 37824, Note_on_c, 3, 72, 79
18, 37824, Note_on_c, 3, 69, 79
18, 37824, Note_on_c, 3, 55, 79
18, 37824, Note_on_c, 3, 76, 79
18, 38268, Note_off_c, 3, 76, 79
18, 38268, Note_off_c, 3, 55, 79
18, 38268, Note_off_c, 3, 69, 79
18, 38268, Note_off_c, 3, 72, 79
18, 38400, Note_on_c, 3, 72, 79
18, 38400, Note_on_c, 3, 69, 79
18, 38400, Note_on_c, 3, 54, 79
18, 38400, Note_on_c, 3, 76, 79
18, 38528, Note_off_c, 3, 76, 79
18, 38528, Note_off_c, 3, 54, 79
18, 38528, Note_off_c, 3, 69, 79
18, 38528, Note_off_c, 3, 72, 79
18, 38592, Note_on_c, 3, 72, 79
18, 38592, Note_on_c, 3, 69, 79
18, 38592, Note_on_c, 3, 54, 79
18, 38592, Note_on_c, 3, 76, 79
18, 39036, Note_off_c, 3, 76, 79
18, 39036, Note_off_c, 3, 54, 79
18, 39036, Note_off_c, 3, 69, 79
18, 39036, Note_off_c, 3, 72, 79
18, 39168, Note_on_c, 3, 72, 79
18, 39168, Note_on_c, 3, 69, 79
18, 39168, Note_on_c, 3, 53, 79
18, 39168, Note_on_c, 3, 76, 79
18, 39296, Note_off_c, 3, 76, 79
18, 39296, Note_off_c, 3, 53, 79
18, 39296, Note_off_c, 3, 69, 79
18, 39296, Note_off_c, 3, 72, 79
18, 39360, Note_on_c, 3, 72, 79
18, 39360, Note_on_c, 3, 69, 79
18, 39360, Note_on_c, 3, 53, 79
18, 39360, Note_on_c, 3, 76, 79
18, 39804, Note_off_c, 3, 76, 79
18, 39804, Note_off_c, 3, 53, 79
18, 39804, Note_off_c, 3, 69, 79
18, 39804, Note_off_c, 3, 72, 79
18, 39936, Note_on_c, 3, 72, 79
18, 39936, Note_on_c, 3, 69, 79
18, 39936, Note_on_c, 3, 57, 79
18, 39936, Note_on_c, 3, 76, 79
18, 40064, Note_off_c, 3, 76, 79
18, 40064, Note_off_c, 3, 57, 79
18, 40064, Note_off_c, 3, 69, 79
18, 40064, Note_off_c, 3, 72, 79
18, 40128, Note_on_c, 3, 72, 79
18, 40128, Note_on_c, 3, 69, 79
18, 40128, Note_on_c, 3, 57, 79
18, 40128, Note_on_c, 3, 76, 79
18, 40572, Note_off_c, 3, 76, 79
18, 40572, Note_off_c, 3, 57, 79
18, 40572, Note_off_c, 3, 69, 79
18, 40572, Note_off_c, 3, 72, 79
18, 40704, Note_on_c, 3, 71, 79
18, 40704, Note_on_c, 3, 67, 79
18, 40704, Note_on_c, 3, 55, 79
18, 40704, Note_on_c, 3, 74, 79
18, 40832, Note_off_c, 3, 74, 79
18, 40832, Note_off_c, 3, 55, 79
18, 40832, Note_off_c, 3, 67, 79
18, 40832, Note_off_c, 3, 71, 79
18, 40896, Note_on_c, 3, 71, 79
18, 40896, Note_on_c, 3, 67, 79
18, 40896, Note_on_c, 3, 55, 79
18, 40896, Note_on_c, 3, 74, 79
18, 41340, Note_off_c, 3, 74, 79
18, 41340, Note_off_c, 3, 55, 79
18, 41340, Note_off_c, 3, 67, 79
18, 41340, Note_off_c, 3, 71, 79
18, 41472, Note_on_c, 3, 72, 79
18, 41472, Note_on_c, 3, 67, 79
18, 41472, Note_on_c, 3, 48, 79
18, 41472, Note_on_c, 3, 76, 79
18, 41600, Note_off_c, 3, 76, 79
18, 41600, Note_off_c, 3, 48, 79
18, 41600, Note_off_c, 3, 67, 79
18, 41600, Note_off_c, 3, 72, 79
18, 41664, Note_on_c, 3, 72, 79
18, 41664, Note_on_c, 3, 67, 79
18, 41664, Note_on_c, 3, 48, 79
18, 41664, Note_on_c, 3, 76, 79
18, 41792, Note_off_c, 3, 76, 79
18, 41792, Note_off_c, 3, 48, 79
18, 41792, Note_off_c, 3, 67, 79
18, 41792, Note_off_c, 3, 72, 79
18, 41856, Note_on_c, 3, 72, 79
18, 41856, Note_on_c, 3, 67, 79
18, 41856, Note_on_c, 3, 48, 79
18, 41856, Note_on_c, 3, 76, 79
18, 41984, Note_off_c, 3, 48, 79
18, 42048, Note_on_c, 3, 50, 79
18, 42108, Note_off_c, 3, 76, 79
18, 42108, Note_off_c, 3, 67, 79
18, 42108, Note_off_c, 3, 72, 79
18, 42112, Note_off_c, 3, 50, 79
18, 42144, Note_on_c, 3, 51, 79
18, 42208, Note_off_c, 3, 51, 79
18, 42240, Note_on_c, 3, 71, 79
18, 42240, Note_on_c, 3, 68, 79
18, 42240, Note_on_c, 3, 52, 79
18, 42240, Note_on_c, 3, 76, 79
18, 42368, Note_off_c, 3, 76, 79
18, 42368, Note_off_c, 3, 52, 79
18, 42368, Note_off_c, 3, 68, 79
18, 42368, Note_off_c, 3, 71, 79
18, 42432, Note_on_c, 3, 71, 79
18, 42432, Note_on_c, 3, 68, 79
18, 42432, Note_on_c, 3, 52, 79
18, 42432, Note_on_c, 3, 76, 79
18, 42560, Note_off_c, 3, 76, 79
18, 42560, Note_off_c, 3, 68, 79
18, 42560, Note_off_c, 3, 71, 79
18, 42624, Note_on_c, 3, 71, 79
18, 42624, Note_on_c, 3, 68, 79
18, 42624, Note_on_c, 3, 76, 79
18, 42752, Note_off_c, 3, 76, 79
18, 42752, Note_off_c, 3, 68, 79
18, 42752, Note_off_c, 3, 71, 79
18, 42816, Note_on_c, 3, 71, 79
18, 42816, Note_on_c, 3, 68, 79
18, 42816, Note_on_c, 3, 76, 79
18, 42876, Note_off_c, 3, 52, 79
18, 42944, Note_off_c, 3, 76, 79
18, 42944, Note_off_c, 3, 68, 79
18, 42944, Note_off_c, 3, 71, 79
18, 43008, Note_on_c, 3, 72, 79
18, 43008, Note_on_c, 3, 69, 79
18, 43008, Note_on_c, 3, 57, 79
18, 43008, Note_on_c, 3, 76, 79
18, 43136, Note_off_c, 3, 76, 79
18, 43136, Note_off_c, 3, 57, 79
18, 43136, Note_off_c, 3, 69, 79
18, 43136, Note_off_c, 3, 72, 79
18, 43200, Note_on_c, 3, 72, 79
18, 43200, Note_on_c, 3, 69, 79
18, 43200, Note_on_c, 3, 57, 79
18, 43200, Note_on_c, 3, 76, 79
18, 43644, Note_off_c, 3, 76, 79
18, 43644, Note_off_c, 3, 57, 79
18, 43644, Note_off_c, 3, 69, 79
18, 43644, Note_off_c, 3, 72, 79
18, 43776, Note_on_c, 3, 72, 79
18, 43776, Note_on_c, 3, 69, 79
18, 43776, Note_on_c, 3, 55, 79
18, 43776, Note_on_c, 3, 76, 79
18, 43904, Note_off_c, 3, 76, 79
18, 43904, Note_off_c, 3, 55, 79
18, 43904, Note_off_c, 3, 69, 79
18, 43904, Note_off_c, 3, 72, 79
18, 43968, Note_on_c, 3, 72, 79
18, 43968, Note_on_c, 3, 69, 79
18, 43968, Note_on_c, 3, 55, 79
18, 43968, Note_on_c, 3, 76, 79
18, 44412, Note_off_c, 3, 76, 79
18, 44412, Note_off_c, 3, 55, 79
18, 44412, Note_off_c, 3, 69, 79
18, 44412, Note_off_c, 3, 72, 79
18, 44544, Note_on_c, 3, 72, 79
18, 44544, Note_on_c, 3, 69, 79
18, 44544, Note_on_c, 3, 54, 79
18, 44544, Note_on_c, 3, 76, 79
18, 44672, Note_off_c, 3, 76, 79
18, 44672, Note_off_c, 3, 54, 79
18, 44672, Note_off_c, 3, 69, 79
18, 44672, Note_off_c, 3, 72, 79
18, 44736, Note_on_c, 3, 72, 79
18, 44736, Note_on_c, 3, 69, 79
18, 44736, Note_on_c, 3, 54, 79
18, 44736, Note_on_c, 3, 76, 79
18, 45180, Note_off_c, 3, 76, 79
18, 45180, Note_off_c, 3, 54, 79
18, 45180, Note_off_c, 3, 69, 79
18, 45180, Note_off_c, 3, 72, 79
18, 45312, Note_on_c, 3, 72, 79
18, 45312, Note_on_c, 3, 69, 79
18, 45312, Note_on_c, 3, 53, 79
18, 45312, Note_on_c, 3, 76, 79
18, 45440, Note_off_c, 3, 76, 79
18, 45440, Note_off_c, 3, 53, 79
18, 45440, Note_off_c, 3, 69, 79
18, 45440, Note_off_c, 3, 72, 79
18, 45504, Note_on_c, 3, 72, 79
18, 45504, Note_on_c, 3, 69, 79
18, 45504, Note_on_c, 3, 53, 79
18, 45504, Note_on_c, 3, 76, 79
18, 45948, Note_off_c, 3, 76, 79
18, 45948, Note_off_c, 3, 53, 79
18, 45948, Note_off_c, 3, 69, 79
18, 45948, Note_off_c, 3, 72, 79
18, 46080, Note_on_c, 3, 72, 79
18, 46080, Note_on_c, 3, 69, 79
18, 46080, Note_on_c, 3, 57, 79
18, 46080, Note_on_c, 3, 76, 79
18, 46208, Note_off_c, 3, 76, 79
18, 46208, Note_off_c, 3, 57, 79
18, 46208, Note_off_c, 3, 69, 79
18, 46208, Note_off_c, 3, 72, 79
18, 46272, Note_on_c, 3, 72, 79
18, 46272, Note_on_c, 3, 69, 79
18, 46272, Note_on_c, 3, 57, 79
18, 46272, Note_on_c, 3, 76, 79
18, 46716, Note_off_c, 3, 76, 79
18, 46716, Note_off_c, 3, 57, 79
18, 46716, Note_off_c, 3, 69, 79
18, 46716, Note_off_c, 3, 72, 79
18, 46848, Note_on_c, 3, 71, 79
18, 46848, Note_on_c, 3, 67, 79
18, 46848, Note_on_c, 3, 55, 79
18, 46848, Note_on_c, 3, 74, 79
18, 46976, Note_off_c, 3, 74, 79
18, 46976, Note_off_c, 3, 55, 79
18, 46976, Note_off_c, 3, 67, 79
18, 46976, Note_off_c, 3, 71, 79
18, 47040, Note_on_c, 3, 71, 79
18, 47040, Note_on_c, 3, 67, 79
18, 47040, Note_on_c, 3, 55, 79
18, 47040, Note_on_c, 3, 74, 79
18, 47484, Note_off_c, 3, 74, 79
18, 47484, Note_off_c, 3, 55, 79
18, 47484, Note_off_c, 3, 67, 79
18, 47484, Note_off_c, 3, 71, 79
18, 47616, Note_on_c, 3, 69, 79
18, 47616, Note_on_c, 3, 66, 79
18, 47616, Note_on_c, 3, 50, 79
18, 47616, Note_on_c, 3, 74, 79
18, 47744, Note_off_c, 3, 74, 79
18, 47744, Note_off_c, 3, 50, 79
18, 47744, Note_off_c, 3, 66, 79
18, 47744, Note_off_c, 3, 69, 79
18, 47808, Note_on_c, 3, 66, 79
18, 47808, Note_on_c, 3, 69, 79
18, 47808, Note_on_c, 3, 50, 79
18, 47808, Note_on_c, 3, 74, 79
18, 48252, Note_off_c, 3, 74, 79
18, 48252, Note_off_c, 3, 50, 79
18, 48252, Note_off_c, 3, 69, 79
18, 48252, Note_off_c, 3, 66, 79
18, 48384, Note_on_c, 3, 71, 79
18, 48384, Note_on_c, 3, 68, 79
18, 48384, Note_on_c, 3, 52, 79
18, 48384, Note_on_c, 3, 76, 79
18, 48512, Note_off_c, 3, 76, 79
18, 48512, Note_off_c, 3, 52, 79
18, 48512, Note_off_c, 3, 68, 79
18, 48512, Note_off_c, 3, 71, 79
18, 48576, Note_on_c, 3, 68, 79
18, 48576, Note_on_c, 3, 71, 79
18, 48576, Note_on_c, 3, 52, 79
18, 48576, Note_on_c, 3, 76, 79
18, 48896, Note_off_c, 3, 76, 79
18, 48896, Note_off_c, 3, 71, 79
18, 48896, Note_off_c, 3, 68, 79
18, 48960, Note_on_c, 3, 68, 79
18, 48960, Note_on_c, 3, 71, 79
18, 48960, Note_on_c, 3, 76, 79
18, 49020, Note_off_c, 3, 52, 79
18, 49088, Note_off_c, 3, 76, 79
18, 49088, Note_off_c, 3, 71, 79
18, 49088, Note_off_c, 3, 68, 79
18, 49152, Note_on_c, 3, 72, 79
18, 49152, Note_on_c, 3, 69, 79
18, 49152, Note_on_c, 3, 57, 79
18, 49152, Note_on_c, 3, 76, 79
18, 49280, Note_off_c, 3, 76, 79
18, 49280, Note_off_c, 3, 57, 79
18, 49280, Note_off_c, 3, 69, 79
18, 49280, Note_off_c, 3, 72, 79
18, 49344, Note_on_c, 3, 72, 79
18, 49344, Note_on_c, 3, 69, 79
18, 49344, Note_on_c, 3, 57, 79
18, 49344, Note_on_c, 3, 76, 79
18, 49788, Note_off_c, 3, 76, 79
18, 49788, Note_off_c, 3, 57, 79
18, 49788, Note_off_c, 3, 69, 79
18, 49788, Note_off_c, 3, 72, 79
18, 49920, Note_on_c, 3, 72, 79
18, 49920, Note_on_c, 3, 69, 79
18, 49920, Note_on_c, 3, 55, 79
18, 49920, Note_on_c, 3, 76, 79
18, 50048, Note_off_c, 3, 76, 79
18, 50048, Note_off_c, 3, 55, 79
18, 50048, Note_off_c, 3, 69, 79
18, 50048, Note_off_c, 3, 72, 79
18, 50112, Note_on_c, 3, 72, 79
18, 50112, Note_on_c, 3, 69, 79
18, 50112, Note_on_c, 3, 55, 79
18, 50112, Note_on_c, 3, 76, 79
18, 50556, Note_off_c, 3, 76, 79
18, 50556, Note_off_c, 3, 55, 79
18, 50556, Note_off_c, 3, 69, 79
18, 50556, Note_off_c, 3, 72, 79
18, 50688, Note_on_c, 3, 72, 79
18, 50688, Note_on_c, 3, 67, 79
18, 50688, Note_on_c, 3, 54, 79
18, 50688, Note_on_c, 3, 76, 79
18, 50816, Note_off_c, 3, 76, 79
18, 50816, Note_off_c, 3, 54, 79
18, 50816, Note_off_c, 3, 67, 79
18, 50816, Note_off_c, 3, 72, 79
18, 50880, Note_on_c, 3, 72, 79
18, 50880, Note_on_c, 3, 67, 79
18, 50880, Note_on_c, 3, 54, 79
18, 50880, Note_on_c, 3, 76, 79
18, 51324, Note_off_c, 3, 76, 79
18, 51324, Note_off_c, 3, 54, 79
18, 51324, Note_off_c, 3, 67, 79
18, 51324, Note_off_c, 3, 72, 79
18, 51456, Note_on_c, 3, 72, 79
18, 51456, Note_on_c, 3, 69, 79
18, 51456, Note_on_c, 3, 53, 79
18, 51456, Note_on_c, 3, 76, 79
18, 51580, Note_off_c, 3, 76, 79
18, 51580, Note_off_c, 3, 53, 79
18, 51580, Note_off_c, 3, 69, 79
18, 51580, Note_off_c, 3, 72, 79
18, 51648, Note_on_c, 3, 72, 79
18, 51648, Note_on_c, 3, 69, 79
18, 51648, Note_on_c, 3, 53, 79
18, 51648, Note_on_c, 3, 76, 79
18, 52092, Note_off_c, 3, 76, 79
18, 52092, Note_off_c, 3, 53, 79
18, 52092, Note_off_c, 3, 69, 79
18, 52092, Note_off_c, 3, 72, 79
18, 52224, Note_on_c, 3, 72, 79
18, 52224, Note_on_c, 3, 69, 79
18, 52224, Note_on_c, 3, 57, 79
18, 52224, Note_on_c, 3, 76, 79
18, 52352, Note_off_c, 3, 76, 79
18, 52352, Note_off_c, 3, 57, 79
18, 52352, Note_off_c, 3, 69, 79
18, 52352, Note_off_c, 3, 72, 79
18, 52416, Note_on_c, 3, 72, 79
18, 52416, Note_on_c, 3, 69, 79
18, 52416, Note_on_c, 3, 57, 79
18, 52416, Note_on_c, 3, 76, 79
18, 52544, Note_off_c, 3, 76, 79
18, 52544, Note_off_c, 3, 69, 79
18, 52544, Note_off_c, 3, 72, 79
18, 52608, Note_on_c, 3, 72, 79
18, 52608, Note_on_c, 3, 69, 79
18, 52608, Note_on_c, 3, 76, 79
18, 52736, Note_off_c, 3, 76, 79
18, 52736, Note_off_c, 3, 69, 79
18, 52736, Note_off_c, 3, 72, 79
18, 52800, Note_on_c, 3, 72, 79
18, 52800, Note_on_c, 3, 69, 79
18, 52800, Note_on_c, 3, 76, 79
18, 52860, Note_off_c, 3, 57, 79
18, 52928, Note_off_c, 3, 76, 79
18, 52928, Note_off_c, 3, 69, 79
18, 52928, Note_off_c, 3, 72, 79
18, 52992, Note_on_c, 3, 71, 79
18, 52992, Note_on_c, 3, 67, 79
18, 52992, Note_on_c, 3, 55, 79
18, 52992, Note_on_c, 3, 74, 79
18, 53120, Note_off_c, 3, 74, 79
18, 53120, Note_off_c, 3, 55, 79
18, 53120, Note_off_c, 3, 67, 79
18, 53120, Note_off_c, 3, 71, 79
18, 53184, Note_on_c, 3, 71, 79
18, 53184, Note_on_c, 3, 67, 79
18, 53184, Note_on_c, 3, 55, 79
18, 53184, Note_on_c, 3, 74, 79
18, 53312, Note_off_c, 3, 74, 79
18, 53312, Note_off_c, 3, 67, 79
18, 53312, Note_off_c, 3, 71, 79
18, 53376, Note_on_c, 3, 71, 79
18, 53376, Note_on_c, 3, 67, 79
18, 53376, Note_on_c, 3, 74, 79
18, 53504, Note_off_c, 3, 74, 79
18, 53504, Note_off_c, 3, 67, 79
18, 53504, Note_off_c, 3, 71, 79
18, 53568, Note_on_c, 3, 71, 79
18, 53568, Note_on_c, 3, 67, 79
18, 53568, Note_on_c, 3, 74, 79
18, 53628, Note_off_c, 3, 55, 79
18, 53696, Note_off_c, 3, 74, 79
18, 53696, Note_off_c, 3, 67, 79
18, 53696, Note_off_c, 3, 71, 79
18, 53760, Note_on_c, 3, 71, 79
18, 53760, Note_on_c, 3, 67, 79
18, 53760, Note_on_c, 3, 60, 79
18, 53760, Note_on_c, 3, 76, 79
18, 53888, Note_off_c, 3, 76, 79
18, 53888, Note_off_c, 3, 60, 79
18, 53888, Note_off_c, 3, 67, 79
18, 53888, Note_off_c, 3, 71, 79
18, 53952, Note_on_c, 3, 71, 79
18, 53952, Note_on_c, 3, 67, 79
18, 53952, Note_on_c, 3, 60, 79
18, 53952, Note_on_c, 3, 76, 79
18, 54080, Note_off_c, 3, 76, 79
18, 54080, Note_off_c, 3, 67, 79
18, 54080, Note_off_c, 3, 71, 79
18, 54144, Note_on_c, 3, 71, 79
18, 54144, Note_on_c, 3, 67, 79
18, 54144, Note_on_c, 3, 76, 79
18, 54272, Note_off_c, 3, 76, 79
18, 54272, Note_off_c, 3, 67, 79
18, 54272, Note_off_c, 3, 71, 79
18, 54336, Note_on_c, 3, 71, 79
18, 54336, Note_on_c, 3, 67, 79
18, 54336, Note_on_c, 3, 76, 79
18, 54396, Note_off_c, 3, 60, 79
18, 54464, Note_off_c, 3, 76, 79
18, 54464, Note_off_c, 3, 67, 79
18, 54464, Note_off_c, 3, 71, 79
18, 54528, Note_on_c, 3, 67, 79
18, 54528, Note_on_c, 3, 68, 79
18, 54528, Note_on_c, 3, 71, 79
18, 54528, Note_on_c, 3, 52, 79
18, 54528, Note_on_c, 3, 76, 79
18, 54592, Note_off_c, 3, 76, 79
18, 54592, Note_off_c, 3, 71, 79
18, 54592, Note_off_c, 3, 68, 79
18, 54592, Note_off_c, 3, 67, 79
18, 54624, Note_on_c, 3, 68, 79
18, 54624, Note_on_c, 3, 71, 79
18, 54624, Note_on_c, 3, 76, 79
18, 54688, Note_off_c, 3, 76, 79
18, 54688, Note_off_c, 3, 71, 79
18, 54688, Note_off_c, 3, 68, 79
18, 54720, Note_on_c, 3, 68, 79
18, 54720, Note_on_c, 3, 71, 79
18, 54720, Note_on_c, 3, 76, 79
18, 54784, Note_off_c, 3, 76, 79
18, 54784, Note_off_c, 3, 71, 79
18, 54784, Note_off_c, 3, 68, 79
18, 54816, Note_on_c, 3, 68, 79
18, 54816, Note_on_c, 3, 71, 79
18, 54816, Note_on_c, 3, 76, 79
18, 54880, Note_off_c, 3, 76, 79
18, 54880, Note_off_c, 3, 71, 79
18, 54880, Note_off_c, 3, 68, 79
18, 54912, Note_on_c, 3, 68, 79
18, 54912, Note_on_c, 3, 71, 79
18, 54912, Note_on_c, 3, 76, 79
18, 54976, Note_off_c, 3, 76, 79
18, 54976, Note_off_c, 3, 71, 79
18, 54976, Note_off_c, 3, 68, 79
18, 55008, Note_on_c, 3, 68, 79
18, 55008, Note_on_c, 3, 71, 79
18, 55008, Note_on_c, 3, 76, 79
18, 55036, Note_off_c, 3, 52, 79
18, 55072, Note_off_c, 3, 76, 79
18, 55072, Note_off_c, 3, 71, 79
18, 55072, Note_off_c, 3, 68, 79
18, 55104, Note_on_c, 3, 68, 79
18, 55104, Note_on_c, 3, 71, 79
18, 55104, Note_on_c, 3, 76, 79
18, 55168, Note_off_c, 3, 76, 79
18, 55168, Note_off_c, 3, 71, 79
18, 55168, Note_off_c, 3, 68, 79
18, 55200, Note_on_c, 3, 68, 79
18, 55200, Note_on_c, 3, 71, 79
18, 55200, Note_on_c, 3, 76, 79
18, 55264, Note_off_c, 3, 76, 79
18, 55264, Note_off_c, 3, 71, 79
18, 55264, Note_off_c, 3, 68, 79
18, 67584, Note_on_c, 3, 72, 79
18, 67584, Note_on_c, 3, 69, 79
18, 67584, Note_on_c, 3, 57, 79
18, 67584, Note_on_c, 3, 76, 79
18, 67712, Note_off_c, 3, 76, 79
18, 67712, Note_off_c, 3, 57, 79
18, 67712, Note_off_c, 3, 69, 79
18, 67712, Note_off_c, 3, 72, 79
18, 67776, Note_on_c, 3, 72, 79
18, 67776, Note_on_c, 3, 69, 79
18, 67776, Note_on_c, 3, 57, 79
18, 67776, Note_on_c, 3, 76, 79
18, 68220, Note_off_c, 3, 76, 79
18, 68220, Note_off_c, 3, 57, 79
18, 68220, Note_off_c, 3, 69, 79
18, 68220, Note_off_c, 3, 72, 79
18, 68352, Note_on_c, 3, 55, 79
18, 68352, Note_on_c, 3, 72, 79
18, 68352, Note_on_c, 3, 69, 79
18, 68352, Note_on_c, 3, 76, 79
18, 68480, Note_off_c, 3, 76, 79
18, 68480, Note_off_c, 3, 69, 79
18, 68480, Note_off_c, 3, 72, 79
18, 68480, Note_off_c, 3, 55, 79
18, 68544, Note_on_c, 3, 55, 79
18, 68544, Note_on_c, 3, 72, 79
18, 68544, Note_on_c, 3, 69, 79
18, 68544, Note_on_c, 3, 76, 79
18, 68988, Note_off_c, 3, 76, 79
18, 68988, Note_off_c, 3, 69, 79
18, 68988, Note_off_c, 3, 72, 79
18, 68988, Note_off_c, 3, 55, 79
18, 69120, Note_on_c, 3, 72, 79
18, 69120, Note_on_c, 3, 69, 79
18, 69120, Note_on_c, 3, 54, 79
18, 69120, Note_on_c, 3, 76, 79
18, 69248, Note_off_c, 3, 76, 79
18, 69248, Note_off_c, 3, 54, 79
18, 69248, Note_off_c, 3, 69, 79
18, 69248, Note_off_c, 3, 72, 79
18, 69312, Note_on_c, 3, 72, 79
18, 69312, Note_on_c, 3, 69, 79
18, 69312, Note_on_c, 3, 54, 79
18, 69312, Note_on_c, 3, 76, 79
18, 69756, Note_off_c, 3, 76, 79
18, 69756, Note_off_c, 3, 54, 79
18, 69756, Note_off_c, 3, 69, 79
18, 69756, Note_off_c, 3, 72, 79
18, 69888, Note_on_c, 3, 72, 79
18, 69888, Note_on_c, 3, 69, 79
18, 69888, Note_on_c, 3, 53, 79
18, 69888, Note_on_c, 3, 76, 79
18, 70016, Note_off_c, 3, 76, 79
18, 70016, Note_off_c, 3, 53, 79
18, 70016, Note_off_c, 3, 69, 79
18, 70016, Note_off_c, 3, 72, 79
18, 70080, Note_on_c, 3, 72, 79
18, 70080, Note_on_c, 3, 69, 79
18, 70080, Note_on_c, 3, 53, 79
18, 70080, Note_on_c, 3, 76, 79
18, 70524, Note_off_c, 3, 76, 79
18, 70524, Note_off_c, 3, 53, 79
18, 70524, Note_off_c, 3, 69, 79
18, 70524, Note_off_c, 3, 72, 79
18, 70656, Note_on_c, 3, 72, 79
18, 70656, Note_on_c, 3, 69, 79
18, 70656, Note_on_c, 3, 57, 79
18, 70656, Note_on_c, 3, 76, 79
18, 70784, Note_off_c, 3, 76, 79
18, 70784, Note_off_c, 3, 57, 79
18, 70784, Note_off_c, 3, 69, 79
18, 70784, Note_off_c, 3, 72, 79
18, 70848, Note_on_c, 3, 72, 79
18, 70848, Note_on_c, 3, 69, 79
18, 70848, Note_on_c, 3, 57, 79
18, 70848, Note_on_c, 3, 76, 79
18, 71292, Note_off_c, 3, 76, 79
18, 71292, Note_off_c, 3, 57, 79
18, 71292, Note_off_c, 3, 69, 79
18, 71292, Note_off_c, 3, 72, 79
18, 71424, Note_on_c, 3, 71, 79
18, 71424, Note_on_c, 3, 67, 79
18, 71424, Note_on_c, 3, 55, 79
18, 71424, Note_on_c, 3, 74, 79
18, 71552, Note_off_c, 3, 74, 79
18, 71552, Note_off_c, 3, 55, 79
18, 71552, Note_off_c, 3, 67, 79
18, 71552, Note_off_c, 3, 71, 79
18, 71616, Note_on_c, 3, 71, 79
18, 71616, Note_on_c, 3, 67, 79
18, 71616, Note_on_c, 3, 55, 79
18, 71616, Note_on_c, 3, 74, 79
18, 72060, Note_off_c, 3, 74, 79
18, 72060, Note_off_c, 3, 55, 79
18, 72060, Note_off_c, 3, 67, 79
18, 72060, Note_off_c, 3, 71, 79
18, 72192, Note_on_c, 3, 69, 79
18, 72192, Note_on_c, 3, 66, 79
18, 72192, Note_on_c, 3, 50, 79
18, 72192, Note_on_c, 3, 74, 79
18, 72320, Note_off_c, 3, 74, 79
18, 72320, Note_off_c, 3, 50, 79
18, 72320, Note_off_c, 3, 66, 79
18, 72320, Note_off_c, 3, 69, 79
18, 72384, Note_on_c, 3, 66, 79
18, 72384, Note_on_c, 3, 69, 79
18, 72384, Note_on_c, 3, 50, 79
18, 72384, Note_on_c, 3, 74, 79
18, 72828, Note_off_c, 3, 74, 79
18, 72828, Note_off_c, 3, 50, 79
18, 72828, Note_off_c, 3, 69, 79
18, 72828, Note_off_c, 3, 66, 79
18, 72960, Note_on_c, 3, 71, 79
18, 72960, Note_on_c, 3, 67, 79
18, 72960, Note_on_c, 3, 52, 79
18, 72960, Note_on_c, 3, 76, 79
18, 73088, Note_off_c, 3, 76, 79
18, 73088, Note_off_c, 3, 52, 79
18, 73088, Note_off_c, 3, 67, 79
18, 73088, Note_off_c, 3, 71, 79
18, 73152, Note_on_c, 3, 71, 79
18, 73152, Note_on_c, 3, 67, 79
18, 73152, Note_on_c, 3, 52, 79
18, 73152, Note_on_c, 3, 76, 79
18, 73280, Note_off_c, 3, 76, 79
18, 73280, Note_off_c, 3, 67, 79
18, 73280, Note_off_c, 3, 71, 79
18, 73344, Note_on_c, 3, 71, 79
18, 73344, Note_on_c, 3, 67, 79
18, 73344, Note_on_c, 3, 76, 79
18, 73472, Note_off_c, 3, 76, 79
18, 73472, Note_off_c, 3, 67, 79
18, 73472, Note_off_c, 3, 71, 79
18, 73536, Note_on_c, 3, 71, 79
18, 73536, Note_on_c, 3, 67, 79
18, 73536, Note_on_c, 3, 76, 79
18, 73596, Note_off_c, 3, 52, 79
18, 73664, Note_off_c, 3, 76, 79
18, 73664, Note_off_c, 3, 67, 79
18, 73664, Note_off_c, 3, 71, 79
18, 96768, Control_c, 3, 7, 96
18, 96840, Control_c, 3, 7, 95
18, 96912, Control_c, 3, 7, 94
18, 96960, Control_c, 3, 7, 93
18, 97032, Control_c, 3, 7, 92
18, 97104, Control_c, 3, 7, 91
18, 97152, Control_c, 3, 7, 90
18, 97224, Control_c, 3, 7, 89
18, 97296, Control_c, 3, 7, 88
18, 97344, Control_c, 3, 7, 87
18, 97416, Control_c, 3, 7, 86
18, 97488, Control_c, 3, 7, 85
18, 97536, Control_c, 3, 7, 84
18, 97608, Control_c, 3, 7, 83
18, 97680, Control_c, 3, 7, 82
18, 97728, Control_c, 3, 7, 81
18, 97800, Control_c, 3, 7, 80
18, 97872, Control_c, 3, 7, 79
18, 97920, Control_c, 3, 7, 78
18, 97992, Control_c, 3, 7, 77
18, 98064, Control_c, 3, 7, 76
18, 98112, Control_c, 3, 7, 75
18, 98184, Control_c, 3, 7, 74
18, 98256, Control_c, 3, 7, 73
18, 98304, Control_c, 3, 7, 72
18, 98376, Control_c, 3, 7, 71
18, 98448, Control_c, 3, 7, 70
18, 98496, Control_c, 3, 7, 69
18, 98568, Control_c, 3, 7, 68
18, 98640, Control_c, 3, 7, 67
18, 98688, Control_c, 3, 7, 66
18, 98760, Control_c, 3, 7, 65
18, 98832, Control_c, 3, 7, 64
18, 98880, Control_c, 3, 7, 63
18, 98952, Control_c, 3, 7, 62
18, 99024, Control_c, 3, 7, 61
18, 99072, Control_c, 3, 7, 60
18, 99144, Control_c, 3, 7, 59
18, 99216, Control_c, 3, 7, 58
18, 99264, Control_c, 3, 7, 57
18, 99336, Control_c, 3, 7, 56
18, 99408, Control_c, 3, 7, 55
18, 99456, Control_c, 3, 7, 54
18, 99528, Control_c, 3, 7, 53
18, 99600, Control_c, 3, 7, 52
18, 99648, Control_c, 3, 7, 51
18, 99720, Control_c, 3, 7, 50
18, 99792, Control_c, 3, 7, 49
18, 99840, Control_c, 3, 7, 48
18, 99912, Control_c, 3, 7, 47
18, 99984, Control_c, 3, 7, 46
18, 100032, Control_c, 3, 7, 45
18, 100104, Control_c, 3, 7, 44
18, 100176, Control_c, 3, 7, 43
18, 100224, Control_c, 3, 7, 42
18, 100296, Control_c, 3, 7, 41
18, 100368, Control_c, 3, 7, 40
18, 100416, Control_c, 3, 7, 39
18, 100488, Control_c, 3, 7, 38
18, 100560, Control_c, 3, 7, 37
18, 100608, Control_c, 3, 7, 36
18, 100680, Control_c, 3, 7, 35
18, 100752, Control_c, 3, 7, 34
18, 100800, Control_c, 3, 7, 33
18, 100872, Control_c, 3, 7, 32
18, 100944, Control_c, 3, 7, 31
18, 100992, Control_c, 3, 7, 30
18, 101064, Control_c, 3, 7, 29
18, 101136, Control_c, 3, 7, 28
18, 101184, Control_c, 3, 7, 27
18, 101256, Control_c, 3, 7, 26
18, 101328, Control_c, 3, 7, 25
18, 101376, Control_c, 3, 7, 24
18, 101448, Control_c, 3, 7, 23
18, 101520, Control_c, 3, 7, 22
18, 101568, Control_c, 3, 7, 21
18, 101640, Control_c, 3, 7, 20
18, 101712, Control_c, 3, 7, 19
18, 101760, Control_c, 3, 7, 18
18, 101832, Control_c, 3, 7, 17
18, 101904, Control_c, 3, 7, 16
18, 101952, Control_c, 3, 7, 15
18, 102024, Control_c, 3, 7, 14
18, 102096, Control_c, 3, 7, 13
18, 102144, Control_c, 3, 7, 12
18, 102216, Control_c, 3, 7, 11
18, 102288, Control_c, 3, 7, 10
18, 102336, Control_c, 3, 7, 9
18, 102408, Control_c, 3, 7, 8
18, 102480, Control_c, 3, 7, 7
18, 102528, Control_c, 3, 7, 6
18, 102600, Control_c, 3, 7, 5
18, 102672, Control_c, 3, 7, 4
18, 102720, Control_c, 3, 7, 3
18, 102792, Control_c, 3, 7, 2
18, 102864, Control_c, 3, 7, 1
18, 102912, Control_c, 3, 7, 0
18, 102912, End_track
19, 0, Start_track
19, 0, Text_t, "MIDI"
19, 0, Program_c, 4, 30
19, 0, Control_c, 4, 7, 96
19, 0, Control_c, 4, 10, 108
19, 0, Pitch_bend_c, 4, 8192
19, 0, Control_c, 4, 64, 0
19, 0, Note_on_c, 4, 57, 79
19, 192, Control_c, 4, 7, 96
19, 508, Note_off_c, 4, 57, 79
19, 768, Note_on_c, 4, 55, 79
19, 1276, Note_off_c, 4, 55, 79
19, 1536, Note_on_c, 4, 54, 79
19, 2044, Note_off_c, 4, 54, 79
19, 2304, Note_on_c, 4, 53, 79
19, 2812, Note_off_c, 4, 53, 79
19, 3072, Note_on_c, 4, 57, 79
19, 3580, Note_off_c, 4, 57, 79
19, 3840, Note_on_c, 4, 55, 79
19, 4348, Note_off_c, 4, 55, 79
19, 4608, Note_on_c, 4, 50, 79
19, 5116, Note_off_c, 4, 50, 79
19, 5376, Note_on_c, 4, 52, 79
19, 5440, Note_off_c, 4, 52, 79
19, 5472, Note_on_c, 4, 52, 79
19, 5536, Note_off_c, 4, 52, 79
19, 5568, Note_on_c, 4, 52, 79
19, 5632, Note_off_c, 4, 52, 79
19, 5664, Note_on_c, 4, 52, 79
19, 5728, Note_off_c, 4, 52, 79
19, 5760, Note_on_c, 4, 52, 79
19, 5824, Note_off_c, 4, 52, 79
19, 5856, Note_on_c, 4, 52, 79
19, 5920, Note_off_c, 4, 52, 79
19, 5952, Note_on_c, 4, 52, 79
19, 6080, Note_off_c, 4, 52, 79
19, 6144, Note_on_c, 4, 57, 79
19, 6652, Note_off_c, 4, 57, 79
19, 6912, Note_on_c, 4, 55, 79
19, 7420, Note_off_c, 4, 55, 79
19, 7680, Note_on_c, 4, 54, 79
19, 8188, Note_off_c, 4, 54, 79
19, 8448, Note_on_c, 4, 53, 79
19, 8956, Note_off_c, 4, 53, 79
19, 9216, Note_on_c, 4, 57, 79
19, 9724, Note_off_c, 4, 57, 79
19, 9984, Note_on_c, 4, 55, 79
19, 10492, Note_off_c, 4, 55, 79
19, 10752, Note_on_c, 4, 50, 79
19, 11260, Note_off_c, 4, 50, 79
19, 11520, Note_on_c, 4, 52, 79
19, 12028, Note_off_c, 4, 52, 79
19, 12288, Note_on_c, 4, 57, 79
19, 12796, Note_off_c, 4, 57, 79
19, 13056, Note_on_c, 4, 55, 79
19, 13564, Note_off_c, 4, 55, 79
19, 13824, Note_on_c, 4, 54, 79
19, 14332, Note_off_c, 4, 54, 79
19, 14592, Note_on_c, 4, 53, 79
19, 15100, Note_off_c, 4, 53, 79
19, 15360, Note_on_c, 4, 57, 79
19, 15360, Note_on_c, 4, 60, 79
19, 15424, Note_off_c, 4, 60, 79
19, 15424, Note_off_c, 4, 57, 79
19, 15456, Note_on_c, 4, 57, 79
19, 15456, Note_on_c, 4, 60, 79
19, 15520, Note_off_c, 4, 60, 79
19, 15520, Note_off_c, 4, 57, 79
19, 15552, Note_on_c, 4, 57, 79
19, 15552, Note_on_c, 4, 60, 79
19, 15680, Note_off_c, 4, 60, 79
19, 15680, Note_off_c, 4, 57, 79
19, 16128, Note_on_c, 4, 55, 79
19, 16128, Note_on_c, 4, 62, 79
19, 16192, Note_off_c, 4, 62, 79
19, 16192, Note_off_c, 4, 55, 79
19, 16224, Note_on_c, 4, 55, 79
19, 16224, Note_on_c, 4, 62, 79
19, 16288, Note_off_c, 4, 62, 79
19, 16288, Note_off_c, 4, 55, 79
19, 16320, Note_on_c, 4, 55, 79
19, 16320, Note_on_c, 4, 62, 79
19, 16448, Note_off_c, 4, 62, 79
19, 16448, Note_off_c, 4, 55, 79
19, 16896, Note_on_c, 4, 48, 79
19, 17024, Note_off_c, 4, 48, 79
19, 17088, Note_on_c, 4, 48, 79
19, 17216, Note_off_c, 4, 48, 79
19, 17280, Note_on_c, 4, 48, 79
19, 17344, Note_off_c, 4, 48, 79
19, 17376, Note_on_c, 4, 47, 79
19, 17440, Note_off_c, 4, 47, 79
19, 17472, Note_on_c, 4, 48, 79
19, 17536, Note_off_c, 4, 48, 79
19, 17568, Note_on_c, 4, 50, 79
19, 17632, Note_off_c, 4, 50, 79
19, 17664, Note_on_c, 4, 52, 79
19, 17792, Note_off_c, 4, 52, 79
19, 17856, Note_on_c, 4, 52, 79
19, 17920, Note_off_c, 4, 52, 79
19, 17952, Note_on_c, 4, 54, 79
19, 18016, Note_off_c, 4, 54, 79
19, 18048, Note_on_c, 4, 56, 79
19, 18176, Note_off_c, 4, 56, 79
19, 18240, Note_on_c, 4, 52, 79
19, 18368, Note_off_c, 4, 52, 79
19, 18432, Note_on_c, 4, 57, 79
19, 18560, Note_off_c, 4, 57, 79
19, 18624, Note_on_c, 4, 57, 79
19, 18752, Note_off_c, 4, 57, 79
19, 18816, Note_on_c, 4, 47, 79
19, 18912, Note_off_c, 4, 47, 79
19, 18912, Note_on_c, 4, 49, 79
19, 18976, Note_off_c, 4, 49, 79
19, 19008, Note_on_c, 4, 52, 79
19, 19136, Note_off_c, 4, 52, 79
19, 19200, Note_on_c, 4, 49, 79
19, 19392, Note_off_c, 4, 49, 79
19, 19488, Note_on_c, 4, 52, 79
19, 19552, Note_off_c, 4, 52, 79
19, 19584, Note_on_c, 4, 56, 79
19, 19712, Note_off_c, 4, 56, 79
19, 19776, Note_on_c, 4, 59, 79
19, 19904, Note_off_c, 4, 59, 79
19, 19968, Note_on_c, 4, 57, 79
19, 20096, Note_off_c, 4, 57, 79
19, 20160, Note_on_c, 4, 57, 79
19, 20288, Note_off_c, 4, 57, 79
19, 20352, Note_on_c, 4, 54, 79
19, 20480, Note_off_c, 4, 54, 79
19, 20544, Note_on_c, 4, 47, 79
19, 20672, Note_off_c, 4, 47, 79
19, 20736, Note_on_c, 4, 49, 79
19, 20928, Note_off_c, 4, 49, 79
19, 21024, Note_on_c, 4, 52, 79
19, 21088, Note_off_c, 4, 52, 79
19, 21120, Note_on_c, 4, 56, 79
19, 21248, Note_off_c, 4, 56, 79
19, 21312, Note_on_c, 4, 59, 79
19, 21440, Note_off_c, 4, 59, 79
19, 21504, Note_on_c, 4, 47, 79
19, 21632, Note_off_c, 4, 47, 79
19, 21696, Note_on_c, 4, 47, 79
19, 21824, Note_off_c, 4, 47, 79
19, 21888, Note_on_c, 4, 54, 79
19, 22016, Note_off_c, 4, 54, 79
19, 22080, Note_on_c, 4, 42, 79
19, 22208, Note_off_c, 4, 42, 79
19, 22272, Note_on_c, 4, 47, 79
19, 22400, Note_off_c, 4, 47, 79
19, 22464, Note_on_c, 4, 49, 79
19, 22592, Note_off_c, 4, 49, 79
19, 22656, Note_on_c, 4, 50, 79
19, 22784, Note_off_c, 4, 50, 79
19, 22848, Note_on_c, 4, 51, 79
19, 22976, Note_off_c, 4, 51, 79
19, 23040, Note_on_c, 4, 52, 79
19, 23104, Note_off_c, 4, 52, 79
19, 23136, Note_on_c, 4, 52, 79
19, 23200, Note_off_c, 4, 52, 79
19, 23232, Note_on_c, 4, 52, 79
19, 23296, Note_off_c, 4, 52, 79
19, 23328, Note_on_c, 4, 54, 79
19, 23392, Note_off_c, 4, 54, 79
19, 23424, Note_on_c, 4, 54, 79
19, 23552, Note_off_c, 4, 54, 79
19, 23616, Note_on_c, 4, 54, 79
19, 23744, Note_off_c, 4, 54, 79
19, 23808, Note_on_c, 4, 56, 79
19, 23872, Note_off_c, 4, 56, 79
19, 23904, Note_on_c, 4, 56, 79
19, 24064, Note_off_c, 4, 56, 79
19, 24096, Note_on_c, 4, 56, 79
19, 24160, Note_off_c, 4, 56, 79
19, 24192, Note_on_c, 4, 57, 79
19, 24320, Note_off_c, 4, 57, 79
19, 24384, Note_on_c, 4, 59, 79
19, 24512, Note_off_c, 4, 59, 79
19, 24576, Note_on_c, 4, 57, 79
19, 24704, Note_off_c, 4, 57, 79
19, 24768, Note_on_c, 4, 57, 79
19, 24896, Note_off_c, 4, 57, 79
19, 24960, Note_on_c, 4, 47, 79
19, 25056, Note_off_c, 4, 47, 79
19, 25056, Note_on_c, 4, 49, 79
19, 25120, Note_off_c, 4, 49, 79
19, 25152, Note_on_c, 4, 52, 79
19, 25280, Note_off_c, 4, 52, 79
19, 25344, Note_on_c, 4, 49, 79
19, 25536, Note_off_c, 4, 49, 79
19, 25632, Note_on_c, 4, 52, 79
19, 25696, Note_off_c, 4, 52, 79
19, 25728, Note_on_c, 4, 56, 79
19, 25856, Note_off_c, 4, 56, 79
19, 25920, Note_on_c, 4, 59, 79
19, 26048, Note_off_c, 4, 59, 79
19, 26112, Note_on_c, 4, 57, 79
19, 26240, Note_off_c, 4, 57, 79
19, 26304, Note_on_c, 4, 57, 79
19, 26432, Note_off_c, 4, 57, 79
19, 26496, Note_on_c, 4, 54, 79
19, 26624, Note_off_c, 4, 54, 79
19, 26688, Note_on_c, 4, 47, 79
19, 26816, Note_off_c, 4, 47, 79
19, 26880, Note_on_c, 4, 49, 79
19, 27072, Note_off_c, 4, 49, 79
19, 27168, Note_on_c, 4, 52, 79
19, 27232, Note_off_c, 4, 52, 79
19, 27264, Note_on_c, 4, 56, 79
19, 27392, Note_off_c, 4, 56, 79
19, 27456, Note_on_c, 4, 59, 79
19, 27584, Note_off_c, 4, 59, 79
19, 27648, Note_on_c, 4, 47, 79
19, 27776, Note_off_c, 4, 47, 79
19, 27840, Note_on_c, 4, 47, 79
19, 27968, Note_off_c, 4, 47, 79
19, 28032, Note_on_c, 4, 54, 79
19, 28160, Note_off_c, 4, 54, 79
19, 28224, Note_on_c, 4, 42, 79
19, 28352, Note_off_c, 4, 42, 79
19, 28416, Note_on_c, 4, 47, 79
19, 28608, Note_off_c, 4, 47, 79
19, 28704, Note_on_c, 4, 49, 79
19, 28768, Note_off_c, 4, 49, 79
19, 28800, Note_on_c, 4, 50, 79
19, 28928, Note_off_c, 4, 50, 79
19, 28992, Note_on_c, 4, 51, 79
19, 29120, Note_off_c, 4, 51, 79
19, 29184, Note_on_c, 4, 52, 79
19, 29248, Note_off_c, 4, 52, 79
19, 29280, Note_on_c, 4, 52, 79
19, 29344, Note_off_c, 4, 52, 79
19, 29472, Note_on_c, 4, 52, 79
19, 29536, Note_off_c, 4, 52, 79
19, 29568, Note_on_c, 4, 54, 79
19, 29632, Note_off_c, 4, 54, 79
19, 29664, Note_on_c, 4, 54, 79
19, 29728, Note_off_c, 4, 54, 79
19, 29856, Note_on_c, 4, 54, 79
19, 29920, Note_off_c, 4, 54, 79
19, 29952, Note_on_c, 4, 56, 79
19, 30016, Note_off_c, 4, 56, 79
19, 30048, Note_on_c, 4, 56, 79
19, 30112, Note_off_c, 4, 56, 79
19, 30240, Note_on_c, 4, 56, 79
19, 30304, Note_off_c, 4, 56, 79
19, 30336, Note_on_c, 4, 57, 79
19, 30400, Note_off_c, 4, 57, 79
19, 30528, Note_on_c, 4, 59, 79
19, 30656, Note_off_c, 4, 59, 79
19, 30720, Note_on_c, 4, 57, 79
19, 30972, Note_off_c, 4, 57, 79
19, 31488, Note_on_c, 4, 55, 79
19, 31488, Note_on_c, 4, 62, 79
19, 31552, Note_off_c, 4, 62, 79
19, 31552, Note_off_c, 4, 55, 79
19, 31584, Note_on_c, 4, 55, 79
19, 31584, Note_on_c, 4, 62, 79
19, 31648, Note_off_c, 4, 62, 79
19, 31648, Note_off_c, 4, 55, 79
19, 31680, Note_on_c, 4, 55, 79
19, 31680, Note_on_c, 4, 62, 79
19, 31808, Note_off_c, 4, 62, 79
19, 31808, Note_off_c, 4, 55, 79
19, 32256, Note_on_c, 4, 54, 79
19, 32256, Note_on_c, 4, 62, 79
19, 32320, Note_off_c, 4, 62, 79
19, 32320, Note_off_c, 4, 54, 79
19, 32352, Note_on_c, 4, 54, 79
19, 32352, Note_on_c, 4, 62, 79
19, 32512, Note_off_c, 4, 62, 79
19, 32512, Note_off_c, 4, 54, 79
19, 33024, Note_on_c, 4, 53, 79
19, 33024, Note_on_c, 4, 60, 79
19, 33088, Note_off_c, 4, 60, 79
19, 33088, Note_off_c, 4, 53, 79
19, 33120, Note_on_c, 4, 53, 79
19, 33120, Note_on_c, 4, 60, 79
19, 33184, Note_off_c, 4, 60, 79
19, 33184, Note_off_c, 4, 53, 79
19, 33216, Note_on_c, 4, 53, 79
19, 33216, Note_on_c, 4, 60, 79
19, 33344, Note_off_c, 4, 60, 79
19, 33344, Note_off_c, 4, 53, 79
19, 33600, Note_on_c, 4, 55, 79
19, 33664, Note_off_c, 4, 55, 79
19, 33696, Note_on_c, 4, 57, 79
19, 33760, Note_off_c, 4, 57, 79
19, 33792, Note_on_c, 4, 57, 79
19, 33856, Note_off_c, 4, 57, 79
19, 33888, Note_on_c, 4, 57, 79
19, 33952, Note_off_c, 4, 57, 79
19, 33984, Note_on_c, 4, 57, 79
19, 34112, Note_off_c, 4, 57, 79
19, 34560, Note_on_c, 4, 55, 79
19, 34688, Note_off_c, 4, 55, 79
19, 34752, Note_on_c, 4, 55, 79
19, 34880, Note_off_c, 4, 55, 79
19, 35328, Note_on_c, 4, 50, 79
19, 35392, Note_off_c, 4, 50, 79
19, 35424, Note_on_c, 4, 50, 79
19, 35488, Note_off_c, 4, 50, 79
19, 35520, Note_on_c, 4, 50, 79
19, 35648, Note_off_c, 4, 50, 79
19, 36096, Note_on_c, 4, 52, 79
19, 36160, Note_off_c, 4, 52, 79
19, 36192, Note_on_c, 4, 52, 79
19, 36256, Note_off_c, 4, 52, 79
19, 36384, Note_on_c, 4, 52, 79
19, 36448, Note_off_c, 4, 52, 79
19, 36480, Note_on_c, 4, 54, 79
19, 36544, Note_off_c, 4, 54, 79
19, 36672, Note_on_c, 4, 56, 79
19, 36736, Note_off_c, 4, 56, 79
19, 36768, Note_on_c, 4, 50, 79
19, 36832, Note_off_c, 4, 50, 79
19, 36864, Note_on_c, 4, 57, 79
19, 36864, Note_on_c, 4, 64, 79
19, 36928, Note_off_c, 4, 64, 79
19, 36928, Note_off_c, 4, 57, 79
19, 36960, Note_on_c, 4, 57, 79
19, 36960, Note_on_c, 4, 65, 79
19, 37024, Note_off_c, 4, 65, 79
19, 37024, Note_off_c, 4, 57, 79
19, 37056, Note_on_c, 4, 57, 79
19, 37056, Note_on_c, 4, 64, 79
19, 37184, Note_off_c, 4, 64, 79
19, 37184, Note_off_c, 4, 57, 79
19, 37632, Note_on_c, 4, 55, 79
19, 37632, Note_on_c, 4, 62, 79
19, 37696, Note_off_c, 4, 62, 79
19, 37696, Note_off_c, 4, 55, 79
19, 37728, Note_on_c, 4, 55, 79
19, 37728, Note_on_c, 4, 62, 79
19, 37792, Note_off_c, 4, 62, 79
19, 37792, Note_off_c, 4, 55, 79
19, 37824, Note_on_c, 4, 55, 79
19, 37824, Note_on_c, 4, 62, 79
19, 37952, Note_off_c, 4, 62, 79
19, 37952, Note_off_c, 4, 55, 79
19, 38400, Note_on_c, 4, 54, 79
19, 38400, Note_on_c, 4, 62, 79
19, 38464, Note_off_c, 4, 62, 79
19, 38464, Note_off_c, 4, 54, 79
19, 38496, Note_on_c, 4, 54, 79
19, 38496, Note_on_c, 4, 62, 79
19, 38560, Note_off_c, 4, 62, 79
19, 38560, Note_off_c, 4, 54, 79
19, 38592, Note_on_c, 4, 54, 79
19, 38592, Note_on_c, 4, 62, 79
19, 38720, Note_off_c, 4, 62, 79
19, 38720, Note_off_c, 4, 54, 79
19, 39168, Note_on_c, 4, 53, 79
19, 39168, Note_on_c, 4, 60, 79
19, 39232, Note_off_c, 4, 60, 79
19, 39232, Note_off_c, 4, 53, 79
19, 39360, Note_on_c, 4, 53, 79
19, 39360, Note_on_c, 4, 60, 79
19, 39488, Note_off_c, 4, 60, 79
19, 39488, Note_off_c, 4, 53, 79
19, 39936, Note_on_c, 4, 57, 79
19, 39936, Note_on_c, 4, 64, 79
19, 40000, Note_off_c, 4, 64, 79
19, 40000, Note_off_c, 4, 57, 79
19, 40032, Note_on_c, 4, 57, 79
19, 40032, Note_on_c, 4, 64, 79
19, 40096, Note_off_c, 4, 64, 79
19, 40096, Note_off_c, 4, 57, 79
19, 40128, Note_on_c, 4, 57, 79
19, 40128, Note_on_c, 4, 64, 79
19, 40256, Note_off_c, 4, 64, 79
19, 40256, Note_off_c, 4, 57, 79
19, 40704, Note_on_c, 4, 62, 79
19, 40704, Note_on_c, 4, 55, 79
19, 40768, Note_off_c, 4, 55, 79
19, 40768, Note_off_c, 4, 62, 79
19, 40896, Note_on_c, 4, 55, 79
19, 40896, Note_on_c, 4, 62, 79
19, 41024, Note_off_c, 4, 62, 79
19, 41024, Note_off_c, 4, 55, 79
19, 41280, Note_on_c, 4, 52, 79
19, 41344, Note_off_c, 4, 52, 79
19, 41376, Note_on_c, 4, 50, 79
19, 41440, Note_off_c, 4, 50, 79
19, 41472, Note_on_c, 4, 48, 79
19, 41600, Note_off_c, 4, 48, 79
19, 41664, Note_on_c, 4, 48, 79
19, 41728, Note_off_c, 4, 48, 79
19, 41760, Note_on_c, 4, 47, 79
19, 41824, Note_off_c, 4, 47, 79
19, 41856, Note_on_c, 4, 48, 79
19, 41984, Note_off_c, 4, 48, 79
19, 42048, Note_on_c, 4, 50, 79
19, 42144, Note_off_c, 4, 50, 79
19, 42144, Note_on_c, 4, 52, 79
19, 42208, Note_off_c, 4, 52, 79
19, 42240, Note_on_c, 4, 52, 79
19, 42368, Note_off_c, 4, 52, 79
19, 42432, Note_on_c, 4, 52, 79
19, 42528, Note_off_c, 4, 52, 79
19, 42528, Note_on_c, 4, 54, 79
19, 42592, Note_off_c, 4, 54, 79
19, 42624, Note_on_c, 4, 56, 79
19, 42752, Note_off_c, 4, 56, 79
19, 42816, Note_on_c, 4, 52, 79
19, 42944, Note_off_c, 4, 52, 79
19, 43008, Note_on_c, 4, 57, 79
19, 43008, Note_on_c, 4, 64, 79
19, 43072, Note_off_c, 4, 64, 79
19, 43072, Note_off_c, 4, 57, 79
19, 43104, Note_on_c, 4, 57, 79
19, 43104, Note_on_c, 4, 64, 79
19, 43168, Note_off_c, 4, 64, 79
19, 43168, Note_off_c, 4, 57, 79
19, 43200, Note_on_c, 4, 57, 79
19, 43200, Note_on_c, 4, 64, 79
19, 43328, Note_off_c, 4, 64, 79
19, 43328, Note_off_c, 4, 57, 79
19, 43776, Note_on_c, 4, 55, 79
19, 43776, Note_on_c, 4, 62, 79
19, 43840, Note_off_c, 4, 62, 79
19, 43840, Note_off_c, 4, 55, 79
19, 43872, Note_on_c, 4, 55, 79
19, 43872, Note_on_c, 4, 62, 79
19, 43936, Note_off_c, 4, 62, 79
19, 43936, Note_off_c, 4, 55, 79
19, 43968, Note_on_c, 4, 55, 79
19, 43968, Note_on_c, 4, 62, 79
19, 44096, Note_off_c, 4, 62, 79
19, 44096, Note_off_c, 4, 55, 79
19, 44544, Note_on_c, 4, 54, 79
19, 44544, Note_on_c, 4, 62, 79
19, 44608, Note_off_c, 4, 62, 79
19, 44608, Note_off_c, 4, 54, 79
19, 44640, Note_on_c, 4, 54, 79
19, 44640, Note_on_c, 4, 62, 79
19, 44704, Note_off_c, 4, 62, 79
19, 44704, Note_off_c, 4, 54, 79
19, 44736, Note_on_c, 4, 54, 79
19, 44736, Note_on_c, 4, 62, 79
19, 44864, Note_off_c, 4, 62, 79
19, 44864, Note_off_c, 4, 54, 79
19, 45312, Note_on_c, 4, 53, 79
19, 45312, Note_on_c, 4, 60, 79
19, 45376, Note_off_c, 4, 60, 79
19, 45376, Note_off_c, 4, 53, 79
19, 45408, Note_on_c, 4, 53, 79
19, 45408, Note_on_c, 4, 60, 79
19, 45472, Note_off_c, 4, 60, 79
19, 45472, Note_off_c, 4, 53, 79
19, 45600, Note_on_c, 4, 53, 79
19, 45600, Note_on_c, 4, 60, 79
19, 45664, Note_off_c, 4, 60, 79
19, 45664, Note_off_c, 4, 53, 79
19, 45696, Note_on_c, 4, 53, 79
19, 45696, Note_on_c, 4, 60, 79
19, 45824, Note_off_c, 4, 60, 79
19, 45824, Note_off_c, 4, 53, 79
19, 45888, Note_on_c, 4, 55, 79
19, 45888, Note_on_c, 4, 62, 79
19, 46016, Note_off_c, 4, 62, 79
19, 46016, Note_off_c, 4, 55, 79
19, 46080, Note_on_c, 4, 57, 79
19, 46080, Note_on_c, 4, 64, 79
19, 46144, Note_off_c, 4, 64, 79
19, 46144, Note_off_c, 4, 57, 79
19, 46176, Note_on_c, 4, 57, 79
19, 46176, Note_on_c, 4, 64, 79
19, 46240, Note_off_c, 4, 64, 79
19, 46240, Note_off_c, 4, 57, 79
19, 46272, Note_on_c, 4, 57, 79
19, 46272, Note_on_c, 4, 64, 79
19, 46400, Note_off_c, 4, 64, 79
19, 46400, Note_off_c, 4, 57, 79
19, 46848, Note_on_c, 4, 55, 79
19, 46848, Note_on_c, 4, 62, 79
19, 46912, Note_off_c, 4, 62, 79
19, 46912, Note_off_c, 4, 55, 79
19, 46944, Note_on_c, 4, 55, 79
19, 46944, Note_on_c, 4, 62, 79
19, 47008, Note_off_c, 4, 62, 79
19, 47008, Note_off_c, 4, 55, 79
19, 47040, Note_on_c, 4, 55, 79
19, 47040, Note_on_c, 4, 62, 79
19, 47168, Note_off_c, 4, 62, 79
19, 47168, Note_off_c, 4, 55, 79
19, 47616, Note_on_c, 4, 50, 79
19, 47616, Note_on_c, 4, 57, 79
19, 47744, Note_off_c, 4, 57, 79
19, 47744, Note_off_c, 4, 50, 79
19, 47808, Note_on_c, 4, 50, 79
19, 47808, Note_on_c, 4, 57, 79
19, 47936, Note_off_c, 4, 57, 79
19, 47936, Note_off_c, 4, 50, 79
19, 48000, Note_on_c, 4, 50, 79
19, 48000, Note_on_c, 4, 57, 79
19, 48064, Note_off_c, 4, 57, 79
19, 48064, Note_off_c, 4, 50, 79
19, 48096, Note_on_c, 4, 50, 79
19, 48096, Note_on_c, 4, 57, 79
19, 48160, Note_off_c, 4, 57, 79
19, 48160, Note_off_c, 4, 50, 79
19, 48192, Note_on_c, 4, 50, 79
19, 48192, Note_on_c, 4, 57, 79
19, 48320, Note_off_c, 4, 57, 79
19, 48320, Note_off_c, 4, 50, 79
19, 48384, Note_on_c, 4, 52, 79
19, 48448, Note_off_c, 4, 52, 79
19, 48480, Note_on_c, 4, 52, 79
19, 48544, Note_off_c, 4, 52, 79
19, 48576, Note_on_c, 4, 52, 79
19, 48640, Note_off_c, 4, 52, 79
19, 48672, Note_on_c, 4, 52, 79
19, 48736, Note_off_c, 4, 52, 79
19, 48768, Note_on_c, 4, 64, 79
19, 48896, Note_off_c, 4, 64, 79
19, 48960, Note_on_c, 4, 52, 79
19, 49024, Note_off_c, 4, 52, 79
19, 49056, Note_on_c, 4, 52, 79
19, 49120, Note_off_c, 4, 52, 79
19, 49152, Note_on_c, 4, 57, 79
19, 49216, Note_off_c, 4, 57, 79
19, 49248, Note_on_c, 4, 57, 79
19, 49312, Note_off_c, 4, 57, 79
19, 49344, Note_on_c, 4, 57, 79
19, 49472, Note_off_c, 4, 57, 79
19, 49920, Note_on_c, 4, 55, 79
19, 49984, Note_off_c, 4, 55, 79
19, 50016, Note_on_c, 4, 55, 79
19, 50080, Note_off_c, 4, 55, 79
19, 50112, Note_on_c, 4, 55, 79
19, 50240, Note_off_c, 4, 55, 79
19, 50688, Note_on_c, 4, 54, 79
19, 50752, Note_off_c, 4, 54, 79
19, 50784, Note_on_c, 4, 54, 79
19, 50848, Note_off_c, 4, 54, 79
19, 50880, Note_on_c, 4, 54, 79
19, 51008, Note_off_c, 4, 54, 79
19, 51456, Note_on_c, 4, 53, 79
19, 51520, Note_off_c, 4, 53, 79
19, 51552, Note_on_c, 4, 53, 79
19, 51616, Note_off_c, 4, 53, 79
19, 51648, Note_on_c, 4, 53, 79
19, 51776, Note_off_c, 4, 53, 79
19, 51840, Note_on_c, 4, 53, 79
19, 51936, Note_off_c, 4, 53, 79
19, 51936, Note_on_c, 4, 55, 79
19, 52000, Note_off_c, 4, 55, 79
19, 52032, Note_on_c, 4, 55, 79
19, 52096, Note_off_c, 4, 55, 79
19, 52128, Note_on_c, 4, 55, 79
19, 52192, Note_off_c, 4, 55, 79
19, 52224, Note_on_c, 4, 57, 79
19, 52288, Note_off_c, 4, 57, 79
19, 52320, Note_on_c, 4, 57, 79
19, 52384, Note_off_c, 4, 57, 79
19, 52416, Note_on_c, 4, 57, 79
19, 52544, Note_off_c, 4, 57, 79
19, 52992, Note_on_c, 4, 55, 79
19, 53056, Note_off_c, 4, 55, 79
19, 53088, Note_on_c, 4, 55, 79
19, 53152, Note_off_c, 4, 55, 79
19, 53184, Note_on_c, 4, 55, 79
19, 53312, Note_off_c, 4, 55, 79
19, 53376, Note_on_c, 4, 53, 79
19, 53440, Note_off_c, 4, 53, 79
19, 53472, Note_on_c, 4, 52, 79
19, 53536, Note_off_c, 4, 52, 79
19, 53568, Note_on_c, 4, 50, 79
19, 53696, Note_off_c, 4, 50, 79
19, 53760, Note_on_c, 4, 48, 79
19, 53824, Note_off_c, 4, 48, 79
19, 53856, Note_on_c, 4, 48, 79
19, 53920, Note_off_c, 4, 48, 79
19, 53952, Note_on_c, 4, 48, 79
19, 54016, Note_off_c, 4, 48, 79
19, 54048, Note_on_c, 4, 47, 79
19, 54112, Note_off_c, 4, 47, 79
19, 54144, Note_on_c, 4, 48, 79
19, 54240, Note_off_c, 4, 48, 79
19, 54240, Note_on_c, 4, 50, 79
19, 54304, Note_off_c, 4, 50, 79
19, 54336, Note_on_c, 4, 50, 79
19, 54400, Note_off_c, 4, 50, 79
19, 54432, Note_on_c, 4, 52, 79
19, 54592, Note_off_c, 4, 52, 79
19, 54624, Note_on_c, 4, 52, 79
19, 54688, Note_off_c, 4, 52, 79
19, 54720, Note_on_c, 4, 52, 79
19, 54784, Note_off_c, 4, 52, 79
19, 54816, Note_on_c, 4, 54, 79
19, 54880, Note_off_c, 4, 54, 79
19, 54912, Note_on_c, 4, 56, 79
19, 55040, Note_off_c, 4, 56, 79
19, 55104, Note_on_c, 4, 52, 79
19, 55232, Note_off_c, 4, 52, 79
19, 55296, Note_on_c, 4, 57, 79
19, 55424, Note_off_c, 4, 57, 79
19, 55488, Note_on_c, 4, 57, 79
19, 55616, Note_off_c, 4, 57, 79
19, 55680, Note_on_c, 4, 47, 79
19, 55776, Note_off_c, 4, 47, 79
19, 55776, Note_on_c, 4, 49, 79
19, 55840, Note_off_c, 4, 49, 79
19, 55872, Note_on_c, 4, 52, 79
19, 56000, Note_off_c, 4, 52, 79
19, 56064, Note_on_c, 4, 49, 79
19, 56256, Note_off_c, 4, 49, 79
19, 56352, Note_on_c, 4, 52, 79
19, 56416, Note_off_c, 4, 52, 79
19, 56448, Note_on_c, 4, 56, 79
19, 56576, Note_off_c, 4, 56, 79
19, 56640, Note_on_c, 4, 59, 79
19, 56768, Note_off_c, 4, 59, 79
19, 56832, Note_on_c, 4, 57, 79
19, 56960, Note_off_c, 4, 57, 79
19, 57024, Note_on_c, 4, 57, 79
19, 57152, Note_off_c, 4, 57, 79
19, 57216, Note_on_c, 4, 54, 79
19, 57344, Note_off_c, 4, 54, 79
19, 57408, Note_on_c, 4, 47, 79
19, 57536, Note_off_c, 4, 47, 79
19, 57600, Note_on_c, 4, 49, 79
19, 57792, Note_off_c, 4, 49, 79
19, 57888, Note_on_c, 4, 52, 79
19, 57952, Note_off_c, 4, 52, 79
19, 57984, Note_on_c, 4, 56, 79
19, 58112, Note_off_c, 4, 56, 79
19, 58176, Note_on_c, 4, 59, 79
19, 58304, Note_off_c, 4, 59, 79
19, 58368, Note_on_c, 4, 47, 79
19, 58496, Note_off_c, 4, 47, 79
19, 58560, Note_on_c, 4, 47, 79
19, 58688, Note_off_c, 4, 47, 79
19, 58752, Note_on_c, 4, 54, 79
19, 58880, Note_off_c, 4, 54, 79
19, 58944, Note_on_c, 4, 42, 79
19, 59072, Note_off_c, 4, 42, 79
19, 59136, Note_on_c, 4, 47, 79
19, 59264, Note_off_c, 4, 47, 79
19, 59328, Note_on_c, 4, 49, 79
19, 59456, Note_off_c, 4, 49, 79
19, 59520, Note_on_c, 4, 50, 79
19, 59648, Note_off_c, 4, 50, 79
19, 59712, Note_on_c, 4, 51, 79
19, 59840, Note_off_c, 4, 51, 79
19, 59904, Note_on_c, 4, 52, 79
19, 59968, Note_off_c, 4, 52, 79
19, 60000, Note_on_c, 4, 52, 79
19, 60064, Note_off_c, 4, 52, 79
19, 60096, Note_on_c, 4, 52, 79
19, 60160, Note_off_c, 4, 52, 79
19, 60192, Note_on_c, 4, 54, 79
19, 60256, Note_off_c, 4, 54, 79
19, 60288, Note_on_c, 4, 54, 79
19, 60416, Note_off_c, 4, 54, 79
19, 60480, Note_on_c, 4, 54, 79
19, 60608, Note_off_c, 4, 54, 79
19, 60672, Note_on_c, 4, 56, 79
19, 60736, Note_off_c, 4, 56, 79
19, 60768, Note_on_c, 4, 56, 79
19, 60928, Note_off_c, 4, 56, 79
19, 60960, Note_on_c, 4, 56, 79
19, 61024, Note_off_c, 4, 56, 79
19, 61056, Note_on_c, 4, 57, 79
19, 61184, Note_off_c, 4, 57, 79
19, 61248, Note_on_c, 4, 59, 79
19, 61376, Note_off_c, 4, 59, 79
19, 61440, Note_on_c, 4, 57, 79
19, 61568, Note_off_c, 4, 57, 79
19, 61632, Note_on_c, 4, 57, 79
19, 61760, Note_off_c, 4, 57, 79
19, 61824, Note_on_c, 4, 47, 79
19, 61920, Note_off_c, 4, 47, 79
19, 61920, Note_on_c, 4, 49, 79
19, 61984, Note_off_c, 4, 49, 79
19, 62016, Note_on_c, 4, 52, 79
19, 62144, Note_off_c, 4, 52, 79
19, 62208, Note_on_c, 4, 49, 79
19, 62400, Note_off_c, 4, 49, 79
19, 62496, Note_on_c, 4, 52, 79
19, 62560, Note_off_c, 4, 52, 79
19, 62592, Note_on_c, 4, 56, 79
19, 62720, Note_off_c, 4, 56, 79
19, 62784, Note_on_c, 4, 59, 79
19, 62912, Note_off_c, 4, 59, 79
19, 62976, Note_on_c, 4, 57, 79
19, 63104, Note_off_c, 4, 57, 79
19, 63168, Note_on_c, 4, 57, 79
19, 63296, Note_off_c, 4, 57, 79
19, 63360, Note_on_c, 4, 54, 79
19, 63488, Note_off_c, 4, 54, 79
19, 63552, Note_on_c, 4, 47, 79
19, 63680, Note_off_c, 4, 47, 79
19, 63744, Note_on_c, 4, 49, 79
19, 63936, Note_off_c, 4, 49, 79
19, 64032, Note_on_c, 4, 52, 79
19, 64096, Note_off_c, 4, 52, 79
19, 64128, Note_on_c, 4, 56, 79
19, 64256, Note_off_c, 4, 56, 79
19, 64320, Note_on_c, 4, 59, 79
19, 64448, Note_off_c, 4, 59, 79
19, 64512, Note_on_c, 4, 47, 79
19, 64640, Note_off_c, 4, 47, 79
19, 64704, Note_on_c, 4, 47, 79
19, 64832, Note_off_c, 4, 47, 79
19, 64896, Note_on_c, 4, 54, 79
19, 65024, Note_off_c, 4, 54, 79
19, 65088, Note_on_c, 4, 42, 79
19, 65216, Note_off_c, 4, 42, 79
19, 65280, Note_on_c, 4, 47, 79
19, 65472, Note_off_c, 4, 47, 79
19, 65568, Note_on_c, 4, 49, 79
19, 65632, Note_off_c, 4, 49, 79
19, 65664, Note_on_c, 4, 50, 79
19, 65792, Note_off_c, 4, 50, 79
19, 65856, Note_on_c, 4, 51, 79
19, 65984, Note_off_c, 4, 51, 79
19, 66048, Note_on_c, 4, 52, 79
19, 66112, Note_off_c, 4, 52, 79
19, 66144, Note_on_c, 4, 52, 79
19, 66208, Note_off_c, 4, 52, 79
19, 66336, Note_on_c, 4, 52, 79
19, 66400, Note_off_c, 4, 52, 79
19, 66432, Note_on_c, 4, 54, 79
19, 66496, Note_off_c, 4, 54, 79
19, 66528, Note_on_c, 4, 54, 79
19, 66592, Note_off_c, 4, 54, 79
19, 66720, Note_on_c, 4, 54, 79
19, 66784, Note_off_c, 4, 54, 79
19, 66816, Note_on_c, 4, 56, 79
19, 66880, Note_off_c, 4, 56, 79
19, 66912, Note_on_c, 4, 56, 79
19, 66976, Note_off_c, 4, 56, 79
19, 67104, Note_on_c, 4, 56, 79
19, 67168, Note_off_c, 4, 56, 79
19, 67200, Note_on_c, 4, 57, 79
19, 67264, Note_off_c, 4, 57, 79
19, 67392, Note_on_c, 4, 59, 79
19, 67520, Note_off_c, 4, 59, 79
19, 67584, Note_on_c, 4, 57, 79
19, 67836, Note_off_c, 4, 57, 79
19, 68352, Note_on_c, 4, 55, 79
19, 68352, Note_on_c, 4, 62, 79
19, 68416, Note_off_c, 4, 62, 79
19, 68416, Note_off_c, 4, 55, 79
19, 68448, Note_on_c, 4, 55, 79
19, 68448, Note_on_c, 4, 62, 79
19, 68512, Note_off_c, 4, 62, 79
19, 68512, Note_off_c, 4, 55, 79
19, 68544, Note_on_c, 4, 55, 79
19, 68544, Note_on_c, 4, 62, 79
19, 68672, Note_off_c, 4, 62, 79
19, 68672, Note_off_c, 4, 55, 79
19, 69120, Note_on_c, 4, 54, 79
19, 69120, Note_on_c, 4, 62, 79
19, 69184, Note_off_c, 4, 62, 79
19, 69184, Note_off_c, 4, 54, 79
19, 69216, Note_on_c, 4, 54, 79
19, 69216, Note_on_c, 4, 62, 79
19, 69376, Note_off_c, 4, 62, 79
19, 69376, Note_off_c, 4, 54, 79
19, 69888, Note_on_c, 4, 53, 79
19, 69888, Note_on_c, 4, 60, 79
19, 69952, Note_off_c, 4, 60, 79
19, 69952, Note_off_c, 4, 53, 79
19, 69984, Note_on_c, 4, 53, 79
19, 69984, Note_on_c, 4, 60, 79
19, 70048, Note_off_c, 4, 60, 79
19, 70048, Note_off_c, 4, 53, 79
19, 70080, Note_on_c, 4, 53, 79
19, 70080, Note_on_c, 4, 60, 79
19, 70208, Note_off_c, 4, 60, 79
19, 70208, Note_off_c, 4, 53, 79
19, 70464, Note_on_c, 4, 55, 79
19, 70528, Note_off_c, 4, 55, 79
19, 70560, Note_on_c, 4, 57, 79
19, 70624, Note_off_c, 4, 57, 79
19, 70656, Note_on_c, 4, 57, 79
19, 70720, Note_off_c, 4, 57, 79
19, 70752, Note_on_c, 4, 57, 79
19, 70816, Note_off_c, 4, 57, 79
19, 70848, Note_on_c, 4, 57, 79
19, 70976, Note_off_c, 4, 57, 79
19, 71424, Note_on_c, 4, 55, 79
19, 71552, Note_off_c, 4, 55, 79
19, 71616, Note_on_c, 4, 55, 79
19, 71744, Note_off_c, 4, 55, 79
19, 72192, Note_on_c, 4, 50, 79
19, 72256, Note_off_c, 4, 50, 79
19, 72288, Note_on_c, 4, 50, 79
19, 72352, Note_off_c, 4, 50, 79
19, 72384, Note_on_c, 4, 50, 79
19, 72512, Note_off_c, 4, 50, 79
19, 72960, Note_on_c, 4, 52, 79
19, 73024, Note_off_c, 4, 52, 79
19, 73056, Note_on_c, 4, 52, 79
19, 73120, Note_off_c, 4, 52, 79
19, 73152, Note_on_c, 4, 52, 79
19, 73216, Note_off_c, 4, 52, 79
19, 73248, Note_on_c, 4, 64, 79
19, 73312, Note_off_c, 4, 64, 79
19, 73344, Note_on_c, 4, 64, 79
19, 73408, Note_off_c, 4, 64, 79
19, 73440, Note_on_c, 4, 52, 79
19, 73504, Note_off_c, 4, 52, 79
19, 73536, Note_on_c, 4, 52, 79
19, 73600, Note_off_c, 4, 52, 79
19, 73632, Note_on_c, 4, 52, 79
19, 73696, Note_off_c, 4, 52, 79
19, 73728, Note_on_c, 4, 57, 79
19, 73792, Note_off_c, 4, 57, 79
19, 73824, Note_on_c, 4, 57, 79
19, 73888, Note_off_c, 4, 57, 79
19, 73920, Note_on_c, 4, 57, 79
19, 74048, Note_off_c, 4, 57, 79
19, 74496, Note_on_c, 4, 55, 79
19, 74560, Note_off_c, 4, 55, 79
19, 74592, Note_on_c, 4, 55, 79
19, 74656, Note_off_c, 4, 55, 79
19, 74688, Note_on_c, 4, 55, 79
19, 74816, Note_off_c, 4, 55, 79
19, 75264, Note_on_c, 4, 54, 79
19, 75328, Note_off_c, 4, 54, 79
19, 75360, Note_on_c, 4, 54, 79
19, 75424, Note_off_c, 4, 54, 79
19, 75456, Note_on_c, 4, 54, 79
19, 75584, Note_off_c, 4, 54, 79
19, 76032, Note_on_c, 4, 53, 79
19, 76032, Note_on_c, 4, 60, 79
19, 76096, Note_off_c, 4, 60, 79
19, 76096, Note_off_c, 4, 53, 79
19, 76128, Note_on_c, 4, 53, 79
19, 76128, Note_on_c, 4, 60, 79
19, 76192, Note_off_c, 4, 60, 79
19, 76192, Note_off_c, 4, 53, 79
19, 76224, Note_on_c, 4, 53, 79
19, 76224, Note_on_c, 4, 60, 79
19, 76352, Note_off_c, 4, 60, 79
19, 76352, Note_off_c, 4, 53, 79
19, 76512, Note_on_c, 4, 55, 79
19, 76512, Note_on_c, 4, 62, 79
19, 76576, Note_off_c, 4, 62, 79
19, 76576, Note_off_c, 4, 55, 79
19, 76608, Note_on_c, 4, 55, 79
19, 76608, Note_on_c, 4, 62, 79
19, 76704, Note_off_c, 4, 62, 79
19, 76704, Note_off_c, 4, 55, 79
19, 76704, Note_on_c, 4, 57, 79
19, 76704, Note_on_c, 4, 64, 79
19, 76768, Note_off_c, 4, 64, 79
19, 76768, Note_off_c, 4, 57, 79
19, 76800, Note_on_c, 4, 57, 79
19, 76800, Note_on_c, 4, 64, 79
19, 76864, Note_off_c, 4, 64, 79
19, 76864, Note_off_c, 4, 57, 79
19, 76896, Note_on_c, 4, 57, 79
19, 76896, Note_on_c, 4, 64, 79
19, 76960, Note_off_c, 4, 64, 79
19, 76960, Note_off_c, 4, 57, 79
19, 76992, Note_on_c, 4, 57, 79
19, 76992, Note_on_c, 4, 64, 79
19, 77120, Note_off_c, 4, 64, 79
19, 77120, Note_off_c, 4, 57, 79
19, 77568, Note_on_c, 4, 55, 79
19, 77568, Note_on_c, 4, 62, 79
19, 77632, Note_off_c, 4, 62, 79
19, 77632, Note_off_c, 4, 55, 79
19, 77664, Note_on_c, 4, 55, 79
19, 77664, Note_on_c, 4, 62, 79
19, 77728, Note_off_c, 4, 62, 79
19, 77728, Note_off_c, 4, 55, 79
19, 77760, Note_on_c, 4, 55, 79
19, 77760, Note_on_c, 4, 62, 79
19, 77888, Note_off_c, 4, 62, 79
19, 77888, Note_off_c, 4, 55, 79
19, 78144, Note_on_c, 4, 52, 79
19, 78208, Note_off_c, 4, 52, 79
19, 78240, Note_on_c, 4, 50, 79
19, 78304, Note_off_c, 4, 50, 79
19, 78336, Note_on_c, 4, 48, 79
19, 78400, Note_off_c, 4, 48, 79
19, 78432, Note_on_c, 4, 48, 79
19, 78496, Note_off_c, 4, 48, 79
19, 78528, Note_on_c, 4, 48, 79
19, 78592, Note_off_c, 4, 48, 79
19, 78720, Note_on_c, 4, 48, 79
19, 78784, Note_off_c, 4, 48, 79
19, 78816, Note_on_c, 4, 47, 79
19, 78880, Note_off_c, 4, 47, 79
19, 78912, Note_on_c, 4, 48, 79
19, 79008, Note_off_c, 4, 48, 79
19, 79008, Note_on_c, 4, 50, 79
19, 79072, Note_off_c, 4, 50, 79
19, 79104, Note_on_c, 4, 52, 79
19, 79168, Note_off_c, 4, 52, 79
19, 79200, Note_on_c, 4, 52, 79
19, 79264, Note_off_c, 4, 52, 79
19, 79296, Note_on_c, 4, 52, 79
19, 79360, Note_off_c, 4, 52, 79
19, 79392, Note_on_c, 4, 54, 79
19, 79456, Note_off_c, 4, 54, 79
19, 79488, Note_on_c, 4, 56, 79
19, 79552, Note_off_c, 4, 56, 79
19, 79584, Note_on_c, 4, 52, 79
19, 79648, Note_off_c, 4, 52, 79
19, 79680, Note_on_c, 4, 54, 79
19, 79744, Note_off_c, 4, 54, 79
19, 79776, Note_on_c, 4, 56, 79
19, 79840, Note_off_c, 4, 56, 79
19, 79872, Note_on_c, 4, 57, 79
19, 79936, Note_off_c, 4, 57, 79
19, 79968, Note_on_c, 4, 57, 79
19, 80032, Note_off_c, 4, 57, 79
19, 80064, Note_on_c, 4, 57, 79
19, 80128, Note_off_c, 4, 57, 79
19, 80160, Note_on_c, 4, 64, 79
19, 80320, Note_off_c, 4, 64, 79
19, 80640, Note_on_c, 4, 55, 79
19, 80704, Note_off_c, 4, 55, 79
19, 80736, Note_on_c, 4, 55, 79
19, 80800, Note_off_c, 4, 55, 79
19, 80832, Note_on_c, 4, 55, 79
19, 80896, Note_off_c, 4, 55, 79
19, 80928, Note_on_c, 4, 64, 79
19, 81088, Note_off_c, 4, 64, 79
19, 81408, Note_on_c, 4, 54, 79
19, 81472, Note_off_c, 4, 54, 79
19, 81504, Note_on_c, 4, 54, 79
19, 81568, Note_off_c, 4, 54, 79
19, 81600, Note_on_c, 4, 54, 79
19, 81664, Note_off_c, 4, 54, 79
19, 81696, Note_on_c, 4, 62, 79
19, 81856, Note_off_c, 4, 62, 79
19, 82176, Note_on_c, 4, 53, 79
19, 82240, Note_off_c, 4, 53, 79
19, 82272, Note_on_c, 4, 53, 79
19, 82336, Note_off_c, 4, 53, 79
19, 82368, Note_on_c, 4, 53, 79
19, 82432, Note_off_c, 4, 53, 79
19, 82464, Note_on_c, 4, 60, 79
19, 82624, Note_off_c, 4, 60, 79
19, 82944, Note_on_c, 4, 57, 79
19, 82944, Note_on_c, 4, 64, 79
19, 83008, Note_off_c, 4, 64, 79
19, 83008, Note_off_c, 4, 57, 79
19, 83040, Note_on_c, 4, 57, 79
19, 83040, Note_on_c, 4, 64, 79
19, 83104, Note_off_c, 4, 64, 79
19, 83104, Note_off_c, 4, 57, 79
19, 83136, Note_on_c, 4, 57, 79
19, 83136, Note_on_c, 4, 64, 79
19, 83200, Note_off_c, 4, 64, 79
19, 83200, Note_off_c, 4, 57, 79
19, 83232, Note_on_c, 4, 64, 79
19, 83392, Note_off_c, 4, 64, 79
19, 83712, Note_on_c, 4, 55, 79
19, 83712, Note_on_c, 4, 62, 79
19, 83776, Note_off_c, 4, 62, 79
19, 83776, Note_off_c, 4, 55, 79
19, 83808, Note_on_c, 4, 55, 79
19, 83808, Note_on_c, 4, 62, 79
19, 83872, Note_off_c, 4, 62, 79
19, 83872, Note_off_c, 4, 55, 79
19, 83904, Note_on_c, 4, 55, 79
19, 83904, Note_on_c, 4, 62, 79
19, 83968, Note_off_c, 4, 62, 79
19, 83968, Note_off_c, 4, 55, 79
19, 84000, Note_on_c, 4, 62, 79
19, 84160, Note_off_c, 4, 62, 79
19, 84480, Note_on_c, 4, 50, 79
19, 84480, Note_on_c, 4, 57, 79
19, 84608, Note_off_c, 4, 57, 79
19, 84608, Note_off_c, 4, 50, 79
19, 84672, Note_on_c, 4, 50, 79
19, 84672, Note_on_c, 4, 57, 79
19, 84800, Note_off_c, 4, 57, 79
19, 84800, Note_off_c, 4, 50, 79
19, 84864, Note_on_c, 4, 50, 79
19, 84864, Note_on_c, 4, 57, 79
19, 84992, Note_off_c, 4, 57, 79
19, 84992, Note_off_c, 4, 50, 79
19, 85056, Note_on_c, 4, 50, 79
19, 85056, Note_on_c, 4, 57, 79
19, 85184, Note_off_c, 4, 57, 79
19, 85184, Note_off_c, 4, 50, 79
19, 85248, Note_on_c, 4, 52, 79
19, 85312, Note_off_c, 4, 52, 79
19, 85344, Note_on_c, 4, 52, 79
19, 85408, Note_off_c, 4, 52, 79
19, 85440, Note_on_c, 4, 52, 79
19, 85504, Note_off_c, 4, 52, 79
19, 85536, Note_on_c, 4, 64, 79
19, 85600, Note_off_c, 4, 64, 79
19, 85632, Note_on_c, 4, 64, 79
19, 85696, Note_off_c, 4, 64, 79
19, 85728, Note_on_c, 4, 64, 79
19, 85792, Note_off_c, 4, 64, 79
19, 85824, Note_on_c, 4, 52, 79
19, 85888, Note_off_c, 4, 52, 79
19, 85920, Note_on_c, 4, 52, 79
19, 85984, Note_off_c, 4, 52, 79
19, 86016, Note_on_c, 4, 57, 79
19, 86080, Note_off_c, 4, 57, 79
19, 86112, Note_on_c, 4, 57, 79
19, 86176, Note_off_c, 4, 57, 79
19, 86208, Note_on_c, 4, 57, 79
19, 86272, Note_off_c, 4, 57, 79
19, 86304, Note_on_c, 4, 64, 79
19, 86464, Note_off_c, 4, 64, 79
19, 86784, Note_on_c, 4, 55, 79
19, 86848, Note_off_c, 4, 55, 79
19, 86880, Note_on_c, 4, 55, 79
19, 86944, Note_off_c, 4, 55, 79
19, 86976, Note_on_c, 4, 55, 79
19, 87040, Note_off_c, 4, 55, 79
19, 87072, Note_on_c, 4, 64, 79
19, 87232, Note_off_c, 4, 64, 79
19, 87552, Note_on_c, 4, 54, 79
19, 87616, Note_off_c, 4, 54, 79
19, 87648, Note_on_c, 4, 54, 79
19, 87712, Note_off_c, 4, 54, 79
19, 87744, Note_on_c, 4, 54, 79
19, 87808, Note_off_c, 4, 54, 79
19, 87840, Note_on_c, 4, 62, 79
19, 88000, Note_off_c, 4, 62, 79
19, 88224, Note_on_c, 4, 54, 79
19, 88288, Note_off_c, 4, 54, 79
19, 88320, Note_on_c, 4, 53, 79
19, 88384, Note_off_c, 4, 53, 79
19, 88416, Note_on_c, 4, 53, 79
19, 88480, Note_off_c, 4, 53, 79
19, 88512, Note_on_c, 4, 53, 79
19, 88576, Note_off_c, 4, 53, 79
19, 88608, Note_on_c, 4, 62, 79
19, 88832, Note_off_c, 4, 62, 79
19, 89088, Note_on_c, 4, 57, 79
19, 89088, Note_on_c, 4, 64, 79
19, 89152, Note_off_c, 4, 64, 79
19, 89152, Note_off_c, 4, 57, 79
19, 89184, Note_on_c, 4, 57, 79
19, 89184, Note_on_c, 4, 64, 79
19, 89248, Note_off_c, 4, 64, 79
19, 89248, Note_off_c, 4, 57, 79
19, 89280, Note_on_c, 4, 57, 79
19, 89280, Note_on_c, 4, 64, 79
19, 89344, Note_off_c, 4, 64, 79
19, 89344, Note_off_c, 4, 57, 79
19, 89376, Note_on_c, 4, 57, 79
19, 89376, Note_on_c, 4, 64, 79
19, 89440, Note_off_c, 4, 64, 79
19, 89440, Note_off_c, 4, 57, 79
19, 89856, Note_on_c, 4, 55, 79
19, 89856, Note_on_c, 4, 62, 79
19, 89920, Note_off_c, 4, 62, 79
19, 89920, Note_off_c, 4, 55, 79
19, 89952, Note_on_c, 4, 55, 79
19, 89952, Note_on_c, 4, 62, 79
19, 90016, Note_off_c, 4, 62, 79
19, 90016, Note_off_c, 4, 55, 79
19, 90048, Note_on_c, 4, 55, 79
19, 90048, Note_on_c, 4, 62, 79
19, 90112, Note_off_c, 4, 62, 79
19, 90112, Note_off_c, 4, 55, 79
19, 90144, Note_on_c, 4, 55, 79
19, 90144, Note_on_c, 4, 62, 79
19, 90208, Note_off_c, 4, 62, 79
19, 90208, Note_off_c, 4, 55, 79
19, 90624, Note_on_c, 4, 48, 79
19, 90688, Note_off_c, 4, 48, 79
19, 90720, Note_on_c, 4, 48, 79
19, 90784, Note_off_c, 4, 48, 79
19, 90816, Note_on_c, 4, 48, 79
19, 90880, Note_off_c, 4, 48, 79
19, 90912, Note_on_c, 4, 47, 79
19, 90976, Note_off_c, 4, 47, 79
19, 91008, Note_on_c, 4, 48, 79
19, 91072, Note_off_c, 4, 48, 79
19, 91104, Note_on_c, 4, 50, 79
19, 91168, Note_off_c, 4, 50, 79
19, 91296, Note_on_c, 4, 52, 79
19, 91456, Note_off_c, 4, 52, 79
19, 91488, Note_on_c, 4, 52, 79
19, 91552, Note_off_c, 4, 52, 79
19, 91584, Note_on_c, 4, 52, 79
19, 91648, Note_off_c, 4, 52, 79
19, 91680, Note_on_c, 4, 54, 79
19, 91744, Note_off_c, 4, 54, 79
19, 91776, Note_on_c, 4, 56, 79
19, 91840, Note_off_c, 4, 56, 79
19, 91872, Note_on_c, 4, 52, 79
19, 91936, Note_off_c, 4, 52, 79
19, 91968, Note_on_c, 4, 54, 79
19, 92032, Note_off_c, 4, 54, 79
19, 92064, Note_on_c, 4, 56, 79
19, 92128, Note_off_c, 4, 56, 79
19, 92160, Note_on_c, 4, 57, 79
19, 92224, Note_off_c, 4, 57, 79
19, 92256, Note_on_c, 4, 57, 79
19, 92320, Note_off_c, 4, 57, 79
19, 92352, Note_on_c, 4, 57, 79
19, 92416, Note_off_c, 4, 57, 79
19, 92448, Note_on_c, 4, 64, 79
19, 92608, Note_off_c, 4, 64, 79
19, 92928, Note_on_c, 4, 55, 79
19, 92992, Note_off_c, 4, 55, 79
19, 93024, Note_on_c, 4, 55, 79
19, 93088, Note_off_c, 4, 55, 79
19, 93120, Note_on_c, 4, 55, 79
19, 93184, Note_off_c, 4, 55, 79
19, 93216, Note_on_c, 4, 64, 79
19, 93376, Note_off_c, 4, 64, 79
19, 93696, Note_on_c, 4, 54, 79
19, 93760, Note_off_c, 4, 54, 79
19, 93792, Note_on_c, 4, 54, 79
19, 93856, Note_off_c, 4, 54, 79
19, 93888, Note_on_c, 4, 54, 79
19, 93952, Note_off_c, 4, 54, 79
19, 93984, Note_on_c, 4, 62, 79
19, 94144, Note_off_c, 4, 62, 79
19, 94368, Note_on_c, 4, 54, 79
19, 94432, Note_off_c, 4, 54, 79
19, 94464, Note_on_c, 4, 53, 79
19, 94528, Note_off_c, 4, 53, 79
19, 94560, Note_on_c, 4, 53, 79
19, 94624, Note_off_c, 4, 53, 79
19, 94656, Note_on_c, 4, 53, 79
19, 94720, Note_off_c, 4, 53, 79
19, 94752, Note_on_c, 4, 62, 79
19, 94816, Note_off_c, 4, 62, 79
19, 94944, Note_on_c, 4, 62, 79
19, 95008, Note_off_c, 4, 62, 79
19, 95040, Note_on_c, 4, 60, 79
19, 95168, Note_off_c, 4, 60, 79
19, 95184, Note_on_c, 4, 55, 79
19, 95232, Note_off_c, 4, 55, 79
19, 95232, Note_on_c, 4, 57, 79
19, 95296, Note_off_c, 4, 57, 79
19, 95328, Note_on_c, 4, 57, 79
19, 95392, Note_off_c, 4, 57, 79
19, 95424, Note_on_c, 4, 57, 79
19, 95488, Note_off_c, 4, 57, 79
19, 95520, Note_on_c, 4, 64, 79
19, 95680, Note_off_c, 4, 64, 79
19, 96000, Note_on_c, 4, 55, 79
19, 96064, Note_off_c, 4, 55, 79
19, 96096, Note_on_c, 4, 55, 79
19, 96160, Note_off_c, 4, 55, 79
19, 96192, Note_on_c, 4, 55, 79
19, 96256, Note_off_c, 4, 55, 79
19, 96288, Note_on_c, 4, 62, 79
19, 96448, Note_off_c, 4, 62, 79
19, 96768, Control_c, 4, 7, 96
19, 96768, Note_on_c, 4, 50, 79
19, 96832, Note_off_c, 4, 50, 79
19, 96840, Control_c, 4, 7, 95
19, 96864, Note_on_c, 4, 50, 79
19, 96912, Control_c, 4, 7, 94
19, 96928, Note_off_c, 4, 50, 79
19, 96960, Note_on_c, 4, 50, 79
19, 96984, Control_c, 4, 7, 93
19, 97024, Note_off_c, 4, 50, 79
19, 97056, Control_c, 4, 7, 92
19, 97056, Note_on_c, 4, 50, 79
19, 97128, Control_c, 4, 7, 91
19, 97200, Control_c, 4, 7, 90
19, 97216, Note_off_c, 4, 50, 79
19, 97248, Note_on_c, 4, 50, 79
19, 97272, Control_c, 4, 7, 89
19, 97312, Note_off_c, 4, 50, 79
19, 97344, Control_c, 4, 7, 88
19, 97344, Note_on_c, 4, 50, 79
19, 97416, Control_c, 4, 7, 87
19, 97440, Note_off_c, 4, 50, 79
19, 97440, Note_on_c, 4, 52, 79
19, 97488, Control_c, 4, 7, 86
19, 97504, Note_off_c, 4, 52, 79
19, 97536, Note_on_c, 4, 52, 79
19, 97560, Control_c, 4, 7, 85
19, 97600, Note_off_c, 4, 52, 79
19, 97632, Control_c, 4, 7, 84
19, 97632, Note_on_c, 4, 52, 79
19, 97696, Note_off_c, 4, 52, 79
19, 97704, Control_c, 4, 7, 83
19, 97728, Note_on_c, 4, 52, 79
19, 97776, Control_c, 4, 7, 82
19, 97792, Note_off_c, 4, 52, 79
19, 97824, Note_on_c, 4, 54, 79
19, 97848, Control_c, 4, 7, 81
19, 97888, Note_off_c, 4, 54, 79
19, 97920, Control_c, 4, 7, 80
19, 97992, Control_c, 4, 7, 79
19, 98016, Note_on_c, 4, 54, 79
19, 98064, Control_c, 4, 7, 78
19, 98080, Note_off_c, 4, 54, 79
19, 98112, Note_on_c, 4, 56, 79
19, 98136, Control_c, 4, 7, 77
19, 98176, Note_off_c, 4, 56, 79
19, 98208, Control_c, 4, 7, 76
19, 98280, Control_c, 4, 7, 75
19, 98304, Note_on_c, 4, 57, 79
19, 98352, Control_c, 4, 7, 74
19, 98368, Note_off_c, 4, 57, 79
19, 98400, Note_on_c, 4, 57, 79
19, 98424, Control_c, 4, 7, 73
19, 98464, Note_off_c, 4, 57, 79
19, 98496, Control_c, 4, 7, 72
19, 98496, Note_on_c, 4, 57, 79
19, 98560, Note_off_c, 4, 57, 79
19, 98568, Control_c, 4, 7, 71
19, 98592, Note_on_c, 4, 64, 79
19, 98640, Control_c, 4, 7, 70
19, 98712, Control_c, 4, 7, 69
19, 98784, Control_c, 4, 7, 68
19, 98816, Note_off_c, 4, 64, 79
19, 98856, Control_c, 4, 7, 67
19, 98928, Control_c, 4, 7, 66
19, 99000, Control_c, 4, 7, 65
19, 99072, Control_c, 4, 7, 64
19, 99072, Note_on_c, 4, 55, 79
19, 99136, Note_off_c, 4, 55, 79
19, 99144, Control_c, 4, 7, 63
19, 99168, Note_on_c, 4, 55, 79
19, 99216, Control_c, 4, 7, 62
19, 99232, Note_off_c, 4, 55, 79
19, 99264, Note_on_c, 4, 55, 79
19, 99288, Control_c, 4, 7, 61
19, 99328, Note_off_c, 4, 55, 79
19, 99360, Control_c, 4, 7, 60
19, 99360, Note_on_c, 4, 64, 79
19, 99432, Control_c, 4, 7, 59
19, 99504, Control_c, 4, 7, 58
19, 99520, Note_off_c, 4, 64, 79
19, 99576, Control_c, 4, 7, 57
19, 99648, Control_c, 4, 7, 56
19, 99720, Control_c, 4, 7, 55
19, 99792, Control_c, 4, 7, 54
19, 99840, Note_on_c, 4, 54, 79
19, 99864, Control_c, 4, 7, 53
19, 99904, Note_off_c, 4, 54, 79
19, 99936, Control_c, 4, 7, 52
19, 99936, Note_on_c, 4, 54, 79
19, 99936, Note_on_c, 4, 62, 79
19, 100000, Note_off_c, 4, 54, 79
19, 100008, Control_c, 4, 7, 51
19, 100080, Control_c, 4, 7, 50
19, 100096, Note_off_c, 4, 62, 79
19, 100128, Note_on_c, 4, 54, 79
19, 100152, Control_c, 4, 7, 49
19, 100192, Note_off_c, 4, 54, 79
19, 100224, Control_c, 4, 7, 48
19, 100224, Note_on_c, 4, 54, 79
19, 100224, Note_on_c, 4, 62, 79
19, 100296, Control_c, 4, 7, 47
19, 100352, Note_off_c, 4, 62, 79
19, 100352, Note_off_c, 4, 54, 79
19, 100368, Control_c, 4, 7, 46
19, 100416, Note_on_c, 4, 54, 79
19, 100440, Control_c, 4, 7, 45
19, 100512, Note_off_c, 4, 54, 79
19, 100512, Control_c, 4, 7, 44
19, 100512, Note_on_c, 4, 53, 79
19, 100576, Note_off_c, 4, 53, 79
19, 100584, Control_c, 4, 7, 43
19, 100608, Note_on_c, 4, 53, 79
19, 100656, Control_c, 4, 7, 42
19, 100672, Note_off_c, 4, 53, 79
19, 100704, Note_on_c, 4, 62, 79
19, 100728, Control_c, 4, 7, 41
19, 100768, Note_off_c, 4, 62, 79
19, 100800, Control_c, 4, 7, 40
19, 100872, Control_c, 4, 7, 39
19, 100896, Note_on_c, 4, 62, 79
19, 100944, Control_c, 4, 7, 38
19, 100960, Note_off_c, 4, 62, 79
19, 101016, Control_c, 4, 7, 37
19, 101088, Control_c, 4, 7, 36
19, 101088, Note_on_c, 4, 62, 79
19, 101152, Note_off_c, 4, 62, 79
19, 101160, Control_c, 4, 7, 35
19, 101184, Note_on_c, 4, 60, 79
19, 101232, Control_c, 4, 7, 34
19, 101304, Control_c, 4, 7, 33
19, 101312, Note_off_c, 4, 60, 79
19, 101328, Note_on_c, 4, 53, 79
19, 101376, Note_off_c, 4, 53, 79
19, 101376, Control_c, 4, 7, 32
19, 101376, Note_on_c, 4, 57, 79
19, 101440, Note_off_c, 4, 57, 79
19, 101448, Control_c, 4, 7, 31
19, 101472, Note_on_c, 4, 57, 79
19, 101520, Control_c, 4, 7, 30
19, 101536, Note_off_c, 4, 57, 79
19, 101568, Note_on_c, 4, 57, 79
19, 101592, Control_c, 4, 7, 29
19, 101632, Note_off_c, 4, 57, 79
19, 101664, Control_c, 4, 7, 28
19, 101664, Note_on_c, 4, 57, 79
19, 101728, Note_off_c, 4, 57, 79
19, 101736, Control_c, 4, 7, 27
19, 101808, Control_c, 4, 7, 26
19, 101880, Control_c, 4, 7, 25
19, 101952, Control_c, 4, 7, 24
19, 102024, Control_c, 4, 7, 23
19, 102096, Control_c, 4, 7, 22
19, 102144, Note_on_c, 4, 55, 79
19, 102168, Control_c, 4, 7, 21
19, 102208, Note_off_c, 4, 55, 79
19, 102240, Control_c, 4, 7, 20
19, 102240, Note_on_c, 4, 55, 79
19, 102304, Note_off_c, 4, 55, 79
19, 102312, Control_c, 4, 7, 19
19, 102336, Note_on_c, 4, 55, 79
19, 102384, Control_c, 4, 7, 18
19, 102400, Note_off_c, 4, 55, 79
19, 102432, Note_on_c, 4, 55, 79
19, 102456, Control_c, 4, 7, 17
19, 102496, Note_off_c, 4, 55, 79
19, 102528, Control_c, 4, 7, 16
19, 102600, Control_c, 4, 7, 15
19, 102624, Note_on_c, 4, 52, 79
19, 102672, Control_c, 4, 7, 14
19, 102688, Note_off_c, 4, 52, 79
19, 102720, Note_on_c, 4, 50, 79
19, 102744, Control_c, 4, 7, 13
19, 102816, Control_c, 4, 7, 12
19, 102848, Note_off_c, 4, 50, 79
19, 102888, Control_c, 4, 7, 11
19, 102912, Note_on_c, 4, 48, 79
19, 102960, Control_c, 4, 7, 10
19, 102976, Note_off_c, 4, 48, 79
19, 103032, Control_c, 4, 7, 9
19, 103104, Control_c, 4, 7, 8
19, 103104, Note_on_c, 4, 48, 79
19, 103168, Note_off_c, 4, 48, 79
19, 103176, Control_c, 4, 7, 7
19, 103200, Note_on_c, 4, 48, 79
19, 103248, Control_c, 4, 7, 6
19, 103264, Note_off_c, 4, 48, 79
19, 103320, Control_c, 4, 7, 5
19, 103392, Control_c, 4, 7, 4
19, 103392, Note_on_c, 4, 50, 79
19, 103456, Note_off_c, 4, 50, 79
19, 103464, Control_c, 4, 7, 3
19, 103536, Control_c, 4, 7, 2
19, 103584, Note_on_c, 4, 50, 79
19, 103608, Control_c, 4, 7, 1
19, 103648, Note_off_c, 4, 50, 79
19, 103648, End_track
20, 0, Start_track
20, 0, Text_t, "MIDI"
20, 0, Program_c, 5, 30
20, 0, Control_c, 5, 7, 108
20, 0, Control_c, 5, 10, 64
20, 0, Pitch_bend_c, 5, 8192
20, 0, Control_c, 5, 1, 0
20, 0, Control_c, 5, 64, 0
20, 192, Control_c, 5, 7, 108
20, 5472, Note_on_c, 5, 76, 95
20, 5632, Note_off_c, 5, 76, 95
20, 5664, Note_on_c, 5, 69, 95
20, 5664, Note_on_c, 5, 78, 95
20, 5760, Note_off_c, 5, 78, 95
20, 5760, Note_off_c, 5, 69, 95
20, 5760, Note_on_c, 5, 71, 95
20, 5760, Note_on_c, 5, 80, 95
20, 5888, Note_off_c, 5, 80, 95
20, 5888, Note_off_c, 5, 71, 95
20, 5952, Note_on_c, 5, 80, 95
20, 6016, Note_off_c, 5, 80, 95
20, 6144, Note_on_c, 5, 57, 79
20, 6272, Note_off_c, 5, 57, 79
20, 6336, Note_on_c, 5, 69, 79
20, 6400, Note_off_c, 5, 69, 79
20, 6528, Note_on_c, 5, 69, 79
20, 6592, Note_off_c, 5, 69, 79
20, 6624, Note_on_c, 5, 57, 79
20, 6688, Note_off_c, 5, 57, 79
20, 6720, Note_on_c, 5, 69, 79
20, 6848, Note_off_c, 5, 69, 79
20, 6912, Note_on_c, 5, 55, 79
20, 7104, Note_off_c, 5, 55, 79
20, 7200, Note_on_c, 5, 76, 79
20, 7360, Note_off_c, 5, 76, 79
20, 7392, Note_on_c, 5, 72, 79
20, 7616, Note_off_c, 5, 72, 79
20, 7680, Note_on_c, 5, 54, 79
20, 7932, Note_off_c, 5, 54, 79
20, 8064, Note_on_c, 5, 72, 79
20, 8192, Note_off_c, 5, 72, 79
20, 8256, Note_on_c, 5, 76, 79
20, 8384, Note_off_c, 5, 76, 79
20, 8448, Note_on_c, 5, 53, 95
20, 8640, Note_off_c, 5, 53, 95
20, 8736, Note_on_c, 5, 64, 95
20, 8800, Note_off_c, 5, 64, 95
20, 8832, Note_on_c, 5, 69, 95
20, 8896, Note_off_c, 5, 69, 95
20, 8928, Note_on_c, 5, 72, 95
20, 8992, Note_off_c, 5, 72, 95
20, 9024, Note_on_c, 5, 76, 95
20, 9152, Note_off_c, 5, 76, 95
20, 9216, Note_on_c, 5, 57, 79
20, 9216, Note_on_c, 5, 64, 79
20, 9216, Note_on_c, 5, 69, 95
20, 9724, Note_off_c, 5, 69, 95
20, 9724, Note_off_c, 5, 64, 79
20, 9724, Note_off_c, 5, 57, 79
20, 9984, Note_on_c, 5, 55, 79
20, 10112, Note_off_c, 5, 55, 79
20, 10176, Note_on_c, 5, 59, 79
20, 10240, Note_off_c, 5, 59, 79
20, 10272, Note_on_c, 5, 67, 79
20, 10620, Note_off_c, 5, 67, 79
20, 11136, Note_on_c, 5, 84, 95
20, 11200, Note_off_c, 5, 84, 95
20, 11232, Note_on_c, 5, 84, 95
20, 11296, Note_off_c, 5, 84, 95
20, 11328, Note_on_c, 5, 84, 95
20, 11424, Note_off_c, 5, 84, 95
20, 11424, Note_on_c, 5, 81, 95
20, 11488, Note_off_c, 5, 81, 95
20, 11520, Note_on_c, 5, 80, 95
20, 11584, Note_off_c, 5, 80, 95
20, 11616, Note_on_c, 5, 80, 95
20, 11680, Note_off_c, 5, 80, 95
20, 11712, Note_on_c, 5, 81, 95
20, 11808, Note_off_c, 5, 81, 95
20, 11808, Note_on_c, 5, 80, 95
20, 11872, Note_off_c, 5, 80, 95
20, 11904, Note_on_c, 5, 76, 95
20, 11968, Note_off_c, 5, 76, 95
20, 12096, Note_on_c, 5, 76, 95
20, 12224, Note_off_c, 5, 76, 95
20, 12288, Note_on_c, 5, 81, 79
20, 12416, Note_off_c, 5, 81, 79
20, 12480, Note_on_c, 5, 69, 79
20, 12576, Note_on_c, 5, 72, 79
20, 12608, Note_off_c, 5, 69, 79
20, 12672, Note_off_c, 5, 72, 79
20, 12672, Note_on_c, 5, 69, 79
20, 13436, Note_off_c, 5, 69, 79
20, 13680, Note_on_c, 5, 62, 79
20, 13728, Note_off_c, 5, 62, 79
20, 13728, Note_on_c, 5, 66, 79
20, 13776, Note_off_c, 5, 66, 79
20, 13776, Note_on_c, 5, 71, 79
20, 13824, Note_off_c, 5, 71, 79
20, 13824, Note_on_c, 5, 62, 79
20, 13824, Note_on_c, 5, 66, 79
20, 13824, Note_on_c, 5, 69, 79
20, 13824, Note_on_c, 5, 72, 79
20, 13948, Note_off_c, 5, 72, 79
20, 13948, Note_off_c, 5, 69, 79
20, 13948, Note_off_c, 5, 66, 79
20, 13948, Note_off_c, 5, 62, 79
20, 14016, Note_on_c, 5, 62, 79
20, 14016, Note_on_c, 5, 66, 79
20, 14016, Note_on_c, 5, 69, 79
20, 14016, Note_on_c, 5, 72, 79
20, 14140, Note_off_c, 5, 72, 79
20, 14140, Note_off_c, 5, 69, 79
20, 14140, Note_off_c, 5, 66, 79
20, 14140, Note_off_c, 5, 62, 79
20, 14976, Note_on_c, 5, 69, 95
20, 14976, Note_on_c, 5, 81, 95
20, 15036, Note_off_c, 5, 81, 95
20, 15036, Note_off_c, 5, 69, 95
20, 15072, Note_on_c, 5, 69, 95
20, 15072, Note_on_c, 5, 81, 95
20, 15132, Note_off_c, 5, 81, 95
20, 15132, Note_off_c, 5, 69, 95
20, 15168, Note_on_c, 5, 69, 95
20, 15168, Note_on_c, 5, 81, 95
20, 15292, Note_off_c, 5, 81, 95
20, 15292, Note_off_c, 5, 69, 95
20, 15360, Note_on_c, 5, 69, 95
20, 15360, Note_on_c, 5, 81, 95
20, 15424, Note_off_c, 5, 81, 95
20, 15424, Note_off_c, 5, 69, 95
20, 15456, Note_on_c, 5, 69, 95
20, 15456, Note_on_c, 5, 81, 95
20, 15520, Note_off_c, 5, 81, 95
20, 15520, Note_off_c, 5, 69, 95
20, 15552, Note_on_c, 5, 69, 95
20, 15552, Note_on_c, 5, 81, 95
20, 15808, Note_off_c, 5, 81, 95
20, 15808, Note_off_c, 5, 69, 95
20, 15840, Note_on_c, 5, 69, 95
20, 16064, Note_off_c, 5, 69, 95
20, 16128, Note_on_c, 5, 67, 79
20, 16636, Note_off_c, 5, 67, 79
20, 16992, Note_on_c, 5, 74, 95
20, 17088, Note_off_c, 5, 74, 95
20, 17088, Control_c, 5, 1, 0
20, 17088, Note_on_c, 5, 76, 95
20, 17112, Control_c, 5, 1, 127
20, 17136, Control_c, 5, 1, 127
20, 17568, Note_off_c, 5, 76, 95
20, 17568, Note_on_c, 5, 74, 95
20, 17632, Note_off_c, 5, 74, 95
20, 17664, Control_c, 5, 1, 0
20, 17664, Note_on_c, 5, 74, 95
20, 17712, Control_c, 5, 1, 0
20, 17760, Note_off_c, 5, 74, 95
20, 17760, Note_on_c, 5, 76, 95
20, 17920, Note_off_c, 5, 76, 95
20, 17952, Note_on_c, 5, 81, 95
20, 18112, Note_off_c, 5, 81, 95
20, 18144, Note_on_c, 5, 79, 95
20, 18208, Note_off_c, 5, 79, 95
20, 18240, Note_on_c, 5, 76, 95
20, 18336, Note_off_c, 5, 76, 95
20, 18336, Note_on_c, 5, 74, 95
20, 18400, Note_off_c, 5, 74, 95
20, 18432, Note_on_c, 5, 73, 79
20, 19068, Note_off_c, 5, 73, 79
20, 20352, Note_on_c, 5, 69, 79
20, 20480, Note_off_c, 5, 69, 79
20, 20544, Note_on_c, 5, 78, 79
20, 20672, Note_off_c, 5, 78, 79
20, 20832, Note_on_c, 5, 68, 95
20, 20896, Note_off_c, 5, 68, 95
20, 20928, Note_on_c, 5, 73, 95
20, 20992, Note_off_c, 5, 73, 95
20, 21024, Note_on_c, 5, 76, 95
20, 21088, Note_off_c, 5, 76, 95
20, 21120, Note_on_c, 5, 68, 95
20, 21248, Note_off_c, 5, 68, 95
20, 21312, Note_on_c, 5, 71, 95
20, 21440, Note_off_c, 5, 71, 95
20, 21504, Note_on_c, 5, 71, 79
20, 21632, Note_off_c, 5, 71, 79
20, 21696, Note_on_c, 5, 74, 79
20, 21824, Note_off_c, 5, 74, 79
20, 21888, Note_on_c, 5, 78, 79
20, 22016, Note_off_c, 5, 78, 79
20, 22080, Note_on_c, 5, 66, 79
20, 22208, Note_off_c, 5, 66, 79
20, 22272, Note_on_c, 5, 71, 79
20, 22400, Note_off_c, 5, 71, 79
20, 22464, Note_on_c, 5, 78, 79
20, 22592, Note_off_c, 5, 78, 79
20, 22656, Note_on_c, 5, 74, 79
20, 22784, Note_off_c, 5, 74, 79
20, 22848, Note_on_c, 5, 71, 79
20, 22976, Note_off_c, 5, 71, 79
20, 23040, Note_on_c, 5, 76, 95
20, 23104, Note_off_c, 5, 76, 95
20, 23136, Note_on_c, 5, 76, 95
20, 23296, Note_off_c, 5, 76, 95
20, 23328, Note_on_c, 5, 74, 95
20, 23424, Note_off_c, 5, 74, 95
20, 23424, Note_on_c, 5, 76, 95
20, 23488, Note_off_c, 5, 76, 95
20, 23520, Note_on_c, 5, 71, 95
20, 23584, Note_off_c, 5, 71, 95
20, 23616, Note_on_c, 5, 83, 95
20, 23680, Note_off_c, 5, 83, 95
20, 23712, Note_on_c, 5, 71, 95
20, 23776, Note_off_c, 5, 71, 95
20, 23808, Note_on_c, 5, 80, 95
20, 23872, Note_off_c, 5, 80, 95
20, 23904, Note_on_c, 5, 71, 95
20, 23968, Note_off_c, 5, 71, 95
20, 24000, Note_on_c, 5, 78, 95
20, 24064, Note_off_c, 5, 78, 95
20, 24096, Note_on_c, 5, 69, 95
20, 24160, Note_off_c, 5, 69, 95
20, 24192, Note_on_c, 5, 76, 95
20, 24256, Note_off_c, 5, 76, 95
20, 24288, Note_on_c, 5, 68, 95
20, 24352, Note_off_c, 5, 68, 95
20, 24384, Note_on_c, 5, 74, 95
20, 24448, Note_off_c, 5, 74, 95
20, 24480, Note_on_c, 5, 69, 95
20, 24544, Note_off_c, 5, 69, 95
20, 24960, Note_on_c, 5, 71, 79
20, 25056, Note_off_c, 5, 71, 79
20, 25056, Note_on_c, 5, 73, 79
20, 25120, Note_off_c, 5, 73, 79
20, 25152, Note_on_c, 5, 76, 79
20, 25280, Note_off_c, 5, 76, 79
20, 25440, Note_on_c, 5, 73, 79
20, 25504, Note_off_c, 5, 73, 79
20, 25536, Note_on_c, 5, 68, 79
20, 25600, Note_off_c, 5, 68, 79
20, 25632, Note_on_c, 5, 73, 79
20, 25696, Note_off_c, 5, 73, 79
20, 25728, Note_on_c, 5, 76, 79
20, 25856, Note_off_c, 5, 76, 79
20, 25920, Note_on_c, 5, 80, 79
20, 26048, Note_off_c, 5, 80, 79
20, 26112, Note_on_c, 5, 69, 79
20, 26176, Note_off_c, 5, 69, 79
20, 26208, Note_on_c, 5, 78, 79
20, 26272, Note_off_c, 5, 78, 79
20, 26304, Note_on_c, 5, 69, 79
20, 26432, Note_off_c, 5, 69, 79
20, 26496, Note_on_c, 5, 78, 79
20, 26624, Note_off_c, 5, 78, 79
20, 26688, Note_on_c, 5, 69, 79
20, 26816, Note_off_c, 5, 69, 79
20, 26880, Note_on_c, 5, 68, 79
20, 27008, Note_off_c, 5, 68, 79
20, 27072, Note_on_c, 5, 73, 95
20, 27200, Note_off_c, 5, 73, 95
20, 27264, Note_on_c, 5, 76, 95
20, 27392, Note_off_c, 5, 76, 95
20, 27456, Note_on_c, 5, 73, 95
20, 27584, Note_off_c, 5, 73, 95
20, 27648, Note_on_c, 5, 59, 95
20, 27776, Note_off_c, 5, 59, 95
20, 27840, Note_on_c, 5, 74, 79
20, 27968, Note_off_c, 5, 74, 79
20, 28032, Note_on_c, 5, 71, 79
20, 28160, Note_off_c, 5, 71, 79
20, 28224, Note_on_c, 5, 66, 79
20, 28352, Note_off_c, 5, 66, 79
20, 28512, Note_on_c, 5, 71, 79
20, 28672, Note_off_c, 5, 71, 79
20, 28704, Note_on_c, 5, 71, 79
20, 28768, Note_off_c, 5, 71, 79
20, 28800, Note_on_c, 5, 71, 79
20, 28928, Note_off_c, 5, 71, 79
20, 28992, Note_on_c, 5, 71, 79
20, 29088, Note_off_c, 5, 71, 79
20, 29088, Note_on_c, 5, 69, 79
20, 29152, Note_off_c, 5, 69, 79
20, 29472, Note_on_c, 5, 83, 95
20, 29568, Note_off_c, 5, 83, 95
20, 29568, Note_on_c, 5, 85, 95
20, 29568, Note_on_c, 5, 88, 95
20, 29632, Note_off_c, 5, 88, 95
20, 29632, Note_off_c, 5, 85, 95
20, 29664, Note_on_c, 5, 85, 95
20, 29728, Note_off_c, 5, 85, 95
20, 29760, Note_on_c, 5, 83, 95
20, 30016, Note_off_c, 5, 83, 95
20, 30048, Note_on_c, 5, 80, 95
20, 30112, Note_off_c, 5, 80, 95
20, 30144, Note_on_c, 5, 88, 95
20, 30208, Note_off_c, 5, 88, 95
20, 30240, Note_on_c, 5, 83, 95
20, 30304, Note_off_c, 5, 83, 95
20, 30336, Note_on_c, 5, 80, 95
20, 30384, Note_off_c, 5, 80, 95
20, 30384, Note_on_c, 5, 78, 95
20, 30416, Note_off_c, 5, 78, 95
20, 30432, Note_on_c, 5, 76, 95
20, 30496, Note_off_c, 5, 76, 95
20, 30528, Note_on_c, 5, 73, 95
20, 30576, Note_off_c, 5, 73, 95
20, 30576, Note_on_c, 5, 71, 95
20, 30608, Note_off_c, 5, 71, 95
20, 30624, Note_on_c, 5, 69, 95
20, 30688, Note_off_c, 5, 69, 95
20, 30720, Note_on_c, 5, 69, 95
20, 30848, Note_off_c, 5, 69, 95
20, 30912, Note_on_c, 5, 76, 79
20, 30912, Note_on_c, 5, 72, 79
20, 30912, Note_on_c, 5, 81, 79
20, 30976, Note_off_c, 5, 81, 79
20, 30976, Note_off_c, 5, 72, 79
20, 30976, Note_off_c, 5, 76, 79
20, 31104, Note_on_c, 5, 76, 79
20, 31104, Note_on_c, 5, 72, 79
20, 31104, Note_on_c, 5, 81, 79
20, 31168, Note_off_c, 5, 81, 79
20, 31168, Note_off_c, 5, 72, 79
20, 31168, Note_off_c, 5, 76, 79
20, 31296, Note_on_c, 5, 76, 79
20, 31296, Note_on_c, 5, 72, 79
20, 31296, Note_on_c, 5, 81, 79
20, 31360, Note_off_c, 5, 81, 79
20, 31360, Note_off_c, 5, 72, 79
20, 31360, Note_off_c, 5, 76, 79
20, 31488, Note_on_c, 5, 67, 79
20, 31996, Note_off_c, 5, 67, 79
20, 32256, Note_on_c, 5, 66, 79
20, 32508, Note_off_c, 5, 66, 79
20, 32640, Note_on_c, 5, 76, 79
20, 32768, Note_off_c, 5, 76, 79
20, 32832, Note_on_c, 5, 72, 79
20, 33276, Note_off_c, 5, 72, 79
20, 33600, Note_on_c, 5, 65, 95
20, 33664, Note_off_c, 5, 65, 95
20, 33696, Note_on_c, 5, 67, 95
20, 33760, Note_off_c, 5, 67, 95
20, 33792, Note_on_c, 5, 69, 95
20, 34300, Note_off_c, 5, 69, 95
20, 34848, Note_on_c, 5, 67, 79
20, 35196, Note_off_c, 5, 67, 79
20, 35712, Note_on_c, 5, 74, 95
20, 35808, Note_off_c, 5, 74, 95
20, 35808, Note_on_c, 5, 76, 95
20, 35872, Note_off_c, 5, 76, 95
20, 35904, Note_on_c, 5, 76, 95
20, 35968, Note_off_c, 5, 76, 95
20, 36000, Note_on_c, 5, 81, 95
20, 36064, Note_off_c, 5, 81, 95
20, 36096, Note_on_c, 5, 76, 95
20, 36144, Note_off_c, 5, 76, 95
20, 36144, Note_on_c, 5, 76, 95
20, 36192, Control_c, 5, 1, 0
20, 36192, Note_on_c, 5, 81, 95
20, 36216, Control_c, 5, 1, 1
20, 36240, Control_c, 5, 1, 4
20, 36264, Control_c, 5, 1, 7
20, 36288, Control_c, 5, 1, 10
20, 36312, Control_c, 5, 1, 14
20, 36336, Control_c, 5, 1, 18
20, 36360, Control_c, 5, 1, 22
20, 36384, Control_c, 5, 1, 28
20, 36408, Control_c, 5, 1, 36
20, 36416, Note_off_c, 5, 81, 95
20, 36432, Control_c, 5, 1, 45
20, 36456, Control_c, 5, 1, 121
20, 36480, Control_c, 5, 1, 0
20, 36480, Note_on_c, 5, 84, 95
20, 36528, Control_c, 5, 1, 0
20, 36832, Note_off_c, 5, 84, 95
20, 36864, Note_on_c, 5, 81, 95
20, 37440, Pitch_bend_c, 5, 8192
20, 37448, Pitch_bend_c, 5, 8064
20, 37456, Pitch_bend_c, 5, 7936
20, 37472, Pitch_bend_c, 5, 7808
20, 37520, Pitch_bend_c, 5, 7680
20, 37568, Note_off_c, 5, 81, 95
20, 37624, Pitch_bend_c, 5, 7552
20, 37632, Pitch_bend_c, 5, 7552
20, 37632, Pitch_bend_c, 5, 8192
20, 38784, Note_on_c, 5, 69, 95
20, 38848, Note_off_c, 5, 69, 95
20, 38880, Note_on_c, 5, 72, 95
20, 38976, Pitch_bend_c, 5, 8192
20, 39152, Pitch_bend_c, 5, 8320
20, 39168, Note_off_c, 5, 72, 95
20, 39168, Note_on_c, 5, 74, 95
20, 39224, Pitch_bend_c, 5, 8448
20, 39232, Note_off_c, 5, 74, 95
20, 39248, Pitch_bend_c, 5, 8576
20, 39256, Pitch_bend_c, 5, 8832
20, 39264, Pitch_bend_c, 5, 8832
20, 39312, Pitch_bend_c, 5, 8192
20, 39360, Pitch_bend_c, 5, 8192
20, 39648, Note_off_c, 5, 76, 95
20, 39648, Note_on_c, 5, 76, 95
20, 39840, Note_on_c, 5, 74, 95
20, 39904, Note_off_c, 5, 74, 95
20, 39936, Note_on_c, 5, 69, 95
20, 40444, Note_off_c, 5, 69, 95
20, 40704, Note_on_c, 5, 67, 79
20, 40956, Note_off_c, 5, 67, 79
20, 41088, Note_on_c, 5, 71, 79
20, 41340, Note_off_c, 5, 71, 79
20, 41472, Note_on_c, 5, 72, 79
20, 41724, Note_off_c, 5, 72, 79
20, 42048, Note_on_c, 5, 84, 111
20, 42144, Note_off_c, 5, 84, 111
20, 42144, Note_on_c, 5, 81, 111
20, 42208, Note_off_c, 5, 81, 111
20, 42336, Note_on_c, 5, 79, 111
20, 42432, Note_off_c, 5, 79, 111
20, 42432, Note_on_c, 5, 81, 127
20, 42528, Note_off_c, 5, 81, 127
20, 42528, Note_on_c, 5, 84, 127
20, 42592, Note_off_c, 5, 84, 127
20, 42624, Note_on_c, 5, 84, 111
20, 42720, Note_off_c, 5, 84, 111
20, 42720, Note_on_c, 5, 85, 127
20, 42784, Note_off_c, 5, 85, 127
20, 42816, Note_on_c, 5, 86, 127
20, 42864, Note_off_c, 5, 86, 127
20, 42912, Note_on_c, 5, 88, 127
20, 42944, Note_off_c, 5, 88, 127
20, 43008, Note_on_c, 5, 84, 127
20, 43136, Note_off_c, 5, 84, 127
20, 43200, Control_c, 5, 1, 0
20, 43200, Note_on_c, 5, 81, 111
20, 43248, Control_c, 5, 1, 1
20, 43272, Control_c, 5, 1, 3
20, 43296, Control_c, 5, 1, 4
20, 43320, Control_c, 5, 1, 5
20, 43344, Control_c, 5, 1, 7
20, 43368, Control_c, 5, 1, 8
20, 43392, Control_c, 5, 1, 10
20, 43416, Control_c, 5, 1, 12
20, 43440, Control_c, 5, 1, 14
20, 43464, Control_c, 5, 1, 16
20, 43488, Control_c, 5, 1, 18
20, 43512, Control_c, 5, 1, 20
20, 43536, Control_c, 5, 1, 23
20, 43560, Control_c, 5, 1, 26
20, 43584, Control_c, 5, 1, 29
20, 43608, Control_c, 5, 1, 32
20, 43632, Control_c, 5, 1, 36
20, 43644, Note_off_c, 5, 81, 111
20, 43656, Control_c, 5, 1, 40
20, 43680, Control_c, 5, 1, 46
20, 43704, Control_c, 5, 1, 54
20, 43728, Control_c, 5, 1, 63
20, 43752, Control_c, 5, 1, 123
20, 43776, Control_c, 5, 1, 0
20, 43776, Note_on_c, 5, 79, 111
20, 43824, Control_c, 5, 1, 0
20, 43840, Note_off_c, 5, 79, 111
20, 43872, Note_on_c, 5, 81, 127
20, 43968, Note_off_c, 5, 81, 127
20, 43968, Note_on_c, 5, 84, 127
20, 44096, Note_off_c, 5, 84, 127
20, 44160, Control_c, 5, 1, 0
20, 44160, Note_on_c, 5, 84, 111
20, 44184, Control_c, 5, 1, 1
20, 44232, Control_c, 5, 1, 2
20, 44280, Control_c, 5, 1, 3
20, 44304, Control_c, 5, 1, 4
20, 44328, Control_c, 5, 1, 5
20, 44376, Control_c, 5, 1, 6
20, 44424, Control_c, 5, 1, 7
20, 44448, Control_c, 5, 1, 8
20, 44472, Control_c, 5, 1, 9
20, 44520, Control_c, 5, 1, 10
20, 44544, Control_c, 5, 1, 11
20, 44568, Control_c, 5, 1, 12
20, 44592, Control_c, 5, 1, 13
20, 44616, Control_c, 5, 1, 14
20, 44640, Control_c, 5, 1, 15
20, 44664, Control_c, 5, 1, 16
20, 44688, Control_c, 5, 1, 17
20, 44712, Control_c, 5, 1, 18
20, 44736, Control_c, 5, 1, 19
20, 44760, Control_c, 5, 1, 20
20, 44784, Control_c, 5, 1, 21
20, 44808, Control_c, 5, 1, 23
20, 44832, Control_c, 5, 1, 24
20, 44856, Control_c, 5, 1, 26
20, 44880, Control_c, 5, 1, 27
20, 44904, Control_c, 5, 1, 29
20, 44928, Control_c, 5, 1, 30
20, 44952, Control_c, 5, 1, 32
20, 44976, Control_c, 5, 1, 34
20, 45000, Control_c, 5, 1, 36
20, 45024, Control_c, 5, 1, 38
20, 45048, Control_c, 5, 1, 40
20, 45072, Control_c, 5, 1, 42
20, 45096, Control_c, 5, 1, 45
20, 45120, Note_off_c, 5, 84, 111
20, 45120, Control_c, 5, 1, 48
20, 45120, Note_on_c, 5, 81, 111
20, 45144, Control_c, 5, 1, 52
20, 45168, Control_c, 5, 1, 56
20, 45192, Control_c, 5, 1, 61
20, 45216, Control_c, 5, 1, 66
20, 45240, Control_c, 5, 1, 74
20, 45264, Control_c, 5, 1, 82
20, 45288, Control_c, 5, 1, 127
20, 45312, Note_off_c, 5, 81, 111
20, 45312, Control_c, 5, 1, 0
20, 45312, Note_on_c, 5, 79, 111
20, 45360, Control_c, 5, 1, 0
20, 45376, Note_off_c, 5, 79, 111
20, 45408, Note_on_c, 5, 81, 127
20, 45504, Note_off_c, 5, 81, 127
20, 45504, Note_on_c, 5, 84, 127
20, 45600, Note_on_c, 5, 81, 111
20, 45632, Note_off_c, 5, 84, 127
20, 45696, Note_off_c, 5, 81, 111
20, 45696, Control_c, 5, 1, 0
20, 45696, Note_on_c, 5, 84, 111
20, 45720, Control_c, 5, 1, 1
20, 45744, Control_c, 5, 1, 2
20, 45768, Control_c, 5, 1, 3
20, 45792, Control_c, 5, 1, 4
20, 45816, Control_c, 5, 1, 5
20, 45840, Control_c, 5, 1, 6
20, 45864, Control_c, 5, 1, 7
20, 45888, Control_c, 5, 1, 8
20, 45912, Control_c, 5, 1, 9
20, 45936, Control_c, 5, 1, 11
20, 45960, Control_c, 5, 1, 12
20, 45984, Control_c, 5, 1, 13
20, 46008, Control_c, 5, 1, 15
20, 46032, Control_c, 5, 1, 17
20, 46056, Control_c, 5, 1, 18
20, 46080, Control_c, 5, 1, 19
20, 46104, Control_c, 5, 1, 21
20, 46128, Control_c, 5, 1, 24
20, 46152, Control_c, 5, 1, 26
20, 46176, Control_c, 5, 1, 27
20, 46200, Control_c, 5, 1, 30
20, 46224, Control_c, 5, 1, 34
20, 46248, Control_c, 5, 1, 36
20, 46272, Control_c, 5, 1, 38
20, 46296, Control_c, 5, 1, 42
20, 46320, Control_c, 5, 1, 48
20, 46344, Control_c, 5, 1, 52
20, 46368, Control_c, 5, 1, 56
20, 46392, Control_c, 5, 1, 66
20, 46416, Control_c, 5, 1, 82
20, 46440, Control_c, 5, 1, 127
20, 46464, Note_off_c, 5, 84, 111
20, 46464, Control_c, 5, 1, 127
20, 46464, Note_on_c, 5, 81, 111
20, 46512, Control_c, 5, 1, 0
20, 46560, Control_c, 5, 1, 0
20, 46592, Note_off_c, 5, 81, 111
20, 46656, Note_on_c, 5, 79, 111
20, 46720, Note_off_c, 5, 79, 111
20, 46752, Note_on_c, 5, 81, 127
20, 46848, Note_off_c, 5, 81, 127
20, 46848, Note_on_c, 5, 84, 127
20, 46976, Note_off_c, 5, 84, 127
20, 47040, Note_on_c, 5, 86, 127
20, 47136, Note_off_c, 5, 86, 127
20, 47136, Note_on_c, 5, 88, 111
20, 47200, Note_off_c, 5, 88, 111
20, 47232, Note_on_c, 5, 86, 111
20, 47328, Note_off_c, 5, 86, 111
20, 47328, Note_on_c, 5, 84, 111
20, 47392, Note_off_c, 5, 84, 111
20, 47424, Note_on_c, 5, 86, 127
20, 47472, Note_off_c, 5, 86, 127
20, 47472, Note_on_c, 5, 88, 127
20, 47744, Note_off_c, 5, 88, 127
20, 47808, Note_on_c, 5, 91, 111
20, 47872, Note_off_c, 5, 91, 111
20, 47904, Note_on_c, 5, 88, 111
20, 48000, Note_off_c, 5, 88, 111
20, 48000, Note_on_c, 5, 86, 111
20, 48128, Note_off_c, 5, 86, 111
20, 48192, Note_on_c, 5, 86, 111
20, 48320, Note_off_c, 5, 86, 111
20, 48384, Note_on_c, 5, 84, 111
20, 48480, Note_on_c, 5, 91, 111
20, 48512, Note_off_c, 5, 84, 111
20, 48576, Note_off_c, 5, 91, 111
20, 48576, Note_on_c, 5, 93, 111
20, 48672, Note_on_c, 5, 91, 111
20, 48768, Note_off_c, 5, 91, 111
20, 48768, Note_off_c, 5, 93, 111
20, 48768, Note_on_c, 5, 93, 111
20, 48896, Note_off_c, 5, 93, 111
20, 48960, Note_on_c, 5, 93, 111
20, 49056, Note_on_c, 5, 91, 111
20, 49088, Note_off_c, 5, 93, 111
20, 49152, Note_off_c, 5, 91, 111
20, 49152, Note_on_c, 5, 93, 111
20, 49404, Note_off_c, 5, 93, 111
20, 49536, Note_on_c, 5, 93, 111
20, 49632, Note_off_c, 5, 93, 111
20, 49632, Note_on_c, 5, 91, 111
20, 49776, Note_off_c, 5, 91, 111
20, 49776, Note_on_c, 5, 91, 111
20, 49824, Note_on_c, 5, 93, 111
20, 50112, Note_off_c, 5, 93, 111
20, 50112, Note_off_c, 5, 91, 111
20, 50112, Note_on_c, 5, 91, 111
20, 50208, Note_on_c, 5, 88, 111
20, 50272, Note_off_c, 5, 88, 111
20, 50304, Note_on_c, 5, 86, 127
20, 50400, Note_off_c, 5, 86, 127
20, 50400, Note_on_c, 5, 88, 127
20, 50464, Note_off_c, 5, 88, 127
20, 50496, Note_off_c, 5, 91, 111
20, 50496, Note_on_c, 5, 91, 111
20, 50592, Note_on_c, 5, 88, 111
20, 50688, Note_off_c, 5, 88, 111
20, 50688, Note_on_c, 5, 86, 111
20, 50816, Note_off_c, 5, 86, 111
20, 50880, Note_on_c, 5, 84, 111
20, 50976, Note_off_c, 5, 84, 111
20, 50976, Note_on_c, 5, 86, 127
20, 51072, Note_off_c, 5, 86, 127
20, 51072, Note_on_c, 5, 88, 127
20, 51136, Note_off_c, 5, 88, 127
20, 51168, Note_off_c, 5, 91, 111
20, 51168, Note_on_c, 5, 91, 111
20, 51264, Note_on_c, 5, 88, 111
20, 51360, Note_off_c, 5, 88, 111
20, 51360, Note_on_c, 5, 86, 111
20, 51424, Note_off_c, 5, 86, 111
20, 51456, Note_on_c, 5, 84, 111
20, 51708, Note_off_c, 5, 84, 111
20, 51840, Note_on_c, 5, 84, 111
20, 51936, Note_off_c, 5, 84, 111
20, 51936, Note_on_c, 5, 81, 111
20, 52000, Note_off_c, 5, 81, 111
20, 52032, Note_on_c, 5, 79, 111
20, 52096, Note_off_c, 5, 79, 111
20, 52128, Note_on_c, 5, 81, 127
20, 52224, Note_off_c, 5, 81, 127
20, 52224, Note_on_c, 5, 84, 127
20, 52416, Note_off_c, 5, 84, 127
20, 52416, Note_on_c, 5, 84, 111
20, 52512, Note_off_c, 5, 84, 111
20, 52512, Note_on_c, 5, 81, 111
20, 52576, Note_off_c, 5, 81, 111
20, 52608, Note_on_c, 5, 74, 111
20, 52704, Note_off_c, 5, 74, 111
20, 52704, Note_off_c, 5, 76, 95
20, 52704, Note_on_c, 5, 76, 111
20, 52800, Note_on_c, 5, 79, 111
20, 52864, Note_off_c, 5, 79, 111
20, 52896, Note_off_c, 5, 76, 111
20, 52896, Note_on_c, 5, 76, 111
20, 52992, Note_on_c, 5, 74, 111
20, 53088, Note_off_c, 5, 74, 111
20, 53088, Note_on_c, 5, 72, 111
20, 53152, Note_off_c, 5, 72, 111
20, 53184, Note_on_c, 5, 74, 111
20, 53312, Note_off_c, 5, 74, 111
20, 53376, Note_on_c, 5, 72, 111
20, 53472, Note_off_c, 5, 72, 111
20, 53472, Note_on_c, 5, 74, 111
20, 53536, Note_off_c, 5, 74, 111
20, 53568, Note_on_c, 5, 72, 111
20, 53632, Note_off_c, 5, 72, 111
20, 53760, Note_on_c, 5, 74, 111
20, 53856, Note_off_c, 5, 74, 111
20, 53856, Note_on_c, 5, 74, 111
20, 53920, Note_off_c, 5, 74, 111
20, 53952, Note_on_c, 5, 79, 111
20, 54048, Note_off_c, 5, 79, 111
20, 54048, Note_on_c, 5, 81, 111
20, 54112, Note_off_c, 5, 81, 111
20, 54144, Note_on_c, 5, 81, 111
20, 54240, Note_off_c, 5, 81, 111
20, 54240, Note_on_c, 5, 84, 111
20, 54304, Note_off_c, 5, 84, 111
20, 54336, Note_on_c, 5, 84, 111
20, 54432, Note_off_c, 5, 84, 111
20, 54432, Note_on_c, 5, 86, 111
20, 54496, Note_off_c, 5, 86, 111
20, 54528, Note_on_c, 5, 86, 127
20, 54624, Note_off_c, 5, 86, 127
20, 54624, Note_on_c, 5, 88, 127
20, 54672, Note_off_c, 5, 88, 127
20, 54720, Note_on_c, 5, 88, 111
20, 54768, Note_off_c, 5, 88, 111
20, 54816, Note_on_c, 5, 93, 111
20, 54864, Note_off_c, 5, 93, 111
20, 54912, Note_off_c, 5, 91, 111
20, 54912, Note_on_c, 5, 91, 127
20, 55008, Note_on_c, 5, 93, 127
20, 55072, Note_off_c, 5, 93, 127
20, 55104, Note_on_c, 5, 93, 111
20, 55200, Note_off_c, 5, 93, 111
20, 55200, Note_off_c, 5, 91, 127
20, 55200, Note_on_c, 5, 91, 111
20, 55296, Note_on_c, 5, 73, 111
20, 55296, Note_on_c, 5, 93, 111
20, 55804, Note_off_c, 5, 93, 111
20, 55932, Note_off_c, 5, 73, 111
20, 57216, Note_on_c, 5, 69, 95
20, 57344, Note_off_c, 5, 69, 95
20, 57408, Note_on_c, 5, 78, 95
20, 57536, Note_off_c, 5, 78, 95
20, 57696, Note_on_c, 5, 68, 95
20, 57760, Note_off_c, 5, 68, 95
20, 57792, Note_on_c, 5, 73, 95
20, 57856, Note_off_c, 5, 73, 95
20, 57888, Note_off_c, 5, 76, 111
20, 57888, Note_on_c, 5, 76, 95
20, 57984, Note_on_c, 5, 68, 95
20, 58112, Note_off_c, 5, 68, 95
20, 58176, Note_on_c, 5, 71, 95
20, 58304, Note_off_c, 5, 71, 95
20, 58368, Note_on_c, 5, 71, 79
20, 58496, Note_off_c, 5, 71, 79
20, 58560, Note_on_c, 5, 74, 95
20, 58688, Note_off_c, 5, 74, 95
20, 58752, Note_on_c, 5, 78, 95
20, 58880, Note_off_c, 5, 78, 95
20, 58944, Note_on_c, 5, 66, 95
20, 59072, Note_off_c, 5, 66, 95
20, 59136, Note_on_c, 5, 71, 95
20, 59264, Note_off_c, 5, 71, 95
20, 59328, Note_on_c, 5, 78, 79
20, 59456, Note_off_c, 5, 78, 79
20, 59520, Note_on_c, 5, 74, 79
20, 59648, Note_off_c, 5, 74, 79
20, 59712, Note_on_c, 5, 71, 79
20, 59840, Note_off_c, 5, 71, 79
20, 59905, Note_off_c, 5, 76, 95
20, 60000, Note_on_c, 5, 76, 95
20, 60192, Note_on_c, 5, 74, 95
20, 60288, Note_off_c, 5, 74, 95
20, 60288, Note_off_c, 5, 76, 95
20, 60288, Note_on_c, 5, 76, 95
20, 60384, Note_on_c, 5, 71, 95
20, 60448, Note_off_c, 5, 71, 95
20, 60480, Note_on_c, 5, 83, 95
20, 60544, Note_off_c, 5, 83, 95
20, 60576, Note_on_c, 5, 71, 95
20, 60640, Note_off_c, 5, 71, 95
20, 60672, Note_on_c, 5, 80, 95
20, 60736, Note_off_c, 5, 80, 95
20, 60768, Note_on_c, 5, 71, 95
20, 60832, Note_off_c, 5, 71, 95
20, 60864, Note_on_c, 5, 78, 95
20, 60928, Note_off_c, 5, 78, 95
20, 60960, Note_on_c, 5, 69, 95
20, 61024, Note_off_c, 5, 69, 95
20, 61056, Note_off_c, 5, 76, 95
20, 61056, Note_on_c, 5, 76, 95
20, 61152, Note_on_c, 5, 68, 95
20, 61216, Note_off_c, 5, 68, 95
20, 61248, Note_on_c, 5, 74, 95
20, 61312, Note_off_c, 5, 74, 95
20, 61344, Note_on_c, 5, 69, 95
20, 61408, Note_off_c, 5, 69, 95
20, 61824, Note_on_c, 5, 71, 79
20, 61920, Note_off_c, 5, 71, 79
20, 61920, Note_on_c, 5, 73, 79
20, 61984, Note_off_c, 5, 73, 79
20, 62016, Note_off_c, 5, 76, 95
20, 62016, Note_on_c, 5, 76, 79
20, 62304, Note_on_c, 5, 73, 79
20, 62368, Note_off_c, 5, 73, 79
20, 62400, Note_on_c, 5, 68, 79
20, 62464, Note_off_c, 5, 68, 79
20, 62496, Note_on_c, 5, 73, 79
20, 62560, Note_off_c, 5, 73, 79
20, 62592, Note_off_c, 5, 76, 79
20, 62592, Note_on_c, 5, 76, 79
20, 62784, Note_on_c, 5, 80, 79
20, 62912, Note_off_c, 5, 80, 79
20, 62976, Note_on_c, 5, 69, 79
20, 63040, Note_off_c, 5, 69, 79
20, 63072, Note_on_c, 5, 78, 79
20, 63136, Note_off_c, 5, 78, 79
20, 63168, Note_on_c, 5, 69, 79
20, 63296, Note_off_c, 5, 69, 79
20, 63360, Note_on_c, 5, 78, 79
20, 63488, Note_off_c, 5, 78, 79
20, 63552, Note_on_c, 5, 69, 79
20, 63680, Note_off_c, 5, 69, 79
20, 63744, Note_on_c, 5, 68, 79
20, 63872, Note_off_c, 5, 68, 79
20, 63936, Note_on_c, 5, 73, 95
20, 64064, Note_off_c, 5, 73, 95
20, 64128, Note_off_c, 5, 76, 79
20, 64128, Note_on_c, 5, 76, 95
20, 64320, Note_on_c, 5, 73, 95
20, 64448, Note_off_c, 5, 73, 95
20, 64512, Note_on_c, 5, 59, 79
20, 64640, Note_off_c, 5, 59, 79
20, 64704, Note_on_c, 5, 74, 79
20, 64832, Note_off_c, 5, 74, 79
20, 64896, Note_on_c, 5, 71, 79
20, 65024, Note_off_c, 5, 71, 79
20, 65088, Note_on_c, 5, 66, 79
20, 65216, Note_off_c, 5, 66, 79
20, 65376, Note_on_c, 5, 71, 79
20, 65536, Note_off_c, 5, 71, 79
20, 65568, Note_on_c, 5, 71, 79
20, 65632, Note_off_c, 5, 71, 79
20, 65664, Note_on_c, 5, 71, 79
20, 65792, Note_off_c, 5, 71, 79
20, 65856, Note_on_c, 5, 71, 79
20, 65952, Note_off_c, 5, 71, 79
20, 65952, Note_on_c, 5, 69, 79
20, 66016, Note_off_c, 5, 69, 79
20, 66336, Note_on_c, 5, 83, 95
20, 66432, Note_off_c, 5, 83, 95
20, 66432, Note_on_c, 5, 85, 95
20, 66432, Note_on_c, 5, 88, 95
20, 66496, Note_off_c, 5, 88, 95
20, 66496, Note_off_c, 5, 85, 95
20, 66528, Note_on_c, 5, 85, 95
20, 66592, Note_off_c, 5, 85, 95
20, 66624, Note_on_c, 5, 83, 95
20, 66816, Note_off_c, 5, 83, 95
20, 66816, Note_on_c, 5, 83, 95
20, 66880, Note_off_c, 5, 83, 95
20, 66912, Note_on_c, 5, 80, 95
20, 66976, Note_off_c, 5, 80, 95
20, 67008, Note_on_c, 5, 88, 95
20, 67072, Note_off_c, 5, 88, 95
20, 67104, Note_on_c, 5, 83, 95
20, 67168, Note_off_c, 5, 83, 95
20, 67200, Note_on_c, 5, 80, 95
20, 67248, Note_off_c, 5, 80, 95
20, 67248, Note_on_c, 5, 78, 95
20, 67280, Note_off_c, 5, 78, 95
20, 67296, Note_off_c, 5, 76, 95
20, 67296, Note_on_c, 5, 76, 95
20, 67392, Note_on_c, 5, 73, 95
20, 67440, Note_off_c, 5, 73, 95
20, 67440, Note_on_c, 5, 71, 95
20, 67472, Note_off_c, 5, 71, 95
20, 67488, Note_on_c, 5, 69, 95
20, 67552, Note_off_c, 5, 69, 95
20, 67584, Note_on_c, 5, 69, 79
20, 67712, Note_off_c, 5, 69, 79
20, 67776, Note_off_c, 5, 76, 95
20, 67776, Note_on_c, 5, 76, 79
20, 67776, Note_on_c, 5, 72, 79
20, 67776, Note_on_c, 5, 81, 79
20, 67840, Note_off_c, 5, 81, 79
20, 67840, Note_off_c, 5, 72, 79
20, 67968, Note_off_c, 5, 76, 79
20, 67968, Note_on_c, 5, 76, 79
20, 67968, Note_on_c, 5, 72, 79
20, 67968, Note_on_c, 5, 81, 79
20, 68032, Note_off_c, 5, 81, 79
20, 68032, Note_off_c, 5, 72, 79
20, 68160, Note_off_c, 5, 76, 79
20, 68160, Note_on_c, 5, 76, 79
20, 68160, Note_on_c, 5, 72, 79
20, 68160, Note_on_c, 5, 81, 79
20, 68224, Note_off_c, 5, 81, 79
20, 68224, Note_off_c, 5, 72, 79
20, 68352, Note_on_c, 5, 67, 79
20, 68860, Note_off_c, 5, 67, 79
20, 69120, Note_on_c, 5, 66, 79
20, 69372, Note_off_c, 5, 66, 79
20, 69504, Note_off_c, 5, 76, 79
20, 69504, Note_on_c, 5, 76, 79
20, 69696, Note_on_c, 5, 72, 79
20, 70140, Note_off_c, 5, 72, 79
20, 70464, Note_on_c, 5, 65, 95
20, 70528, Note_off_c, 5, 65, 95
20, 70560, Note_on_c, 5, 67, 95
20, 70624, Note_off_c, 5, 67, 95
20, 70656, Note_on_c, 5, 69, 95
20, 71164, Note_off_c, 5, 69, 95
20, 71712, Note_on_c, 5, 67, 79
20, 72060, Note_off_c, 5, 67, 79
20, 72384, Note_on_c, 5, 79, 95
20, 72448, Note_off_c, 5, 79, 95
20, 72480, Note_on_c, 5, 81, 95
20, 72544, Note_off_c, 5, 81, 95
20, 72576, Note_on_c, 5, 84, 95
20, 72704, Note_off_c, 5, 84, 95
20, 72768, Note_on_c, 5, 84, 95
20, 72912, Note_off_c, 5, 84, 95
20, 72912, Note_on_c, 5, 81, 95
20, 72944, Note_off_c, 5, 81, 95
20, 72960, Note_on_c, 5, 80, 95
20, 73024, Note_off_c, 5, 80, 95
20, 73056, Note_on_c, 5, 81, 95
20, 73120, Note_off_c, 5, 81, 95
20, 73152, Note_on_c, 5, 81, 95
20, 73280, Note_off_c, 5, 81, 95
20, 73344, Note_on_c, 5, 81, 95
20, 73440, Note_off_c, 5, 81, 95
20, 73440, Note_on_c, 5, 80, 95
20, 73504, Note_off_c, 5, 80, 95
20, 73536, Note_off_c, 5, 76, 79
20, 73536, Note_on_c, 5, 76, 95
20, 73584, Note_on_c, 5, 74, 95
20, 73680, Note_off_c, 5, 74, 95
20, 73728, Note_on_c, 5, 72, 95
20, 74236, Note_off_c, 5, 72, 95
20, 78528, Note_on_c, 5, 74, 127
20, 78576, Note_off_c, 5, 74, 127
20, 78576, Note_off_c, 5, 76, 95
20, 78576, Note_on_c, 5, 76, 127
20, 78912, Note_on_c, 5, 74, 111
20, 79008, Note_off_c, 5, 74, 111
20, 79008, Note_off_c, 5, 76, 127
20, 79008, Note_on_c, 5, 76, 127
20, 79296, Control_c, 5, 1, 0
20, 79296, Note_on_c, 5, 74, 127
20, 79320, Control_c, 5, 1, 1
20, 79344, Note_off_c, 5, 74, 127
20, 79344, Note_off_c, 5, 76, 127
20, 79344, Control_c, 5, 1, 2
20, 79344, Note_on_c, 5, 76, 127
20, 79368, Control_c, 5, 1, 3
20, 79392, Control_c, 5, 1, 4
20, 79416, Control_c, 5, 1, 5
20, 79440, Control_c, 5, 1, 6
20, 79464, Control_c, 5, 1, 7
20, 79488, Control_c, 5, 1, 8
20, 79512, Control_c, 5, 1, 9
20, 79536, Control_c, 5, 1, 11
20, 79560, Control_c, 5, 1, 12
20, 79584, Control_c, 5, 1, 13
20, 79608, Control_c, 5, 1, 15
20, 79632, Control_c, 5, 1, 17
20, 79656, Control_c, 5, 1, 18
20, 79680, Control_c, 5, 1, 19
20, 79704, Control_c, 5, 1, 21
20, 79728, Control_c, 5, 1, 24
20, 79752, Control_c, 5, 1, 26
20, 79776, Control_c, 5, 1, 27
20, 79800, Control_c, 5, 1, 30
20, 79824, Control_c, 5, 1, 34
20, 79848, Control_c, 5, 1, 36
20, 79872, Control_c, 5, 1, 38
20, 79896, Control_c, 5, 1, 42
20, 79920, Control_c, 5, 1, 48
20, 79944, Control_c, 5, 1, 52
20, 79968, Control_c, 5, 1, 56
20, 79992, Control_c, 5, 1, 66
20, 80016, Control_c, 5, 1, 82
20, 80040, Control_c, 5, 1, 127
20, 80064, Control_c, 5, 1, 0
20, 80064, Note_on_c, 5, 74, 127
20, 80112, Control_c, 5, 1, 0
20, 80160, Note_off_c, 5, 74, 127
20, 80160, Note_off_c, 5, 76, 127
20, 80160, Control_c, 5, 1, 0
20, 80160, Note_on_c, 5, 76, 127
20, 80184, Control_c, 5, 1, 2
20, 80208, Control_c, 5, 1, 5
20, 80232, Control_c, 5, 1, 8
20, 80256, Control_c, 5, 1, 11
20, 80280, Control_c, 5, 1, 15
20, 80304, Control_c, 5, 1, 19
20, 80328, Control_c, 5, 1, 24
20, 80352, Control_c, 5, 1, 30
20, 80376, Control_c, 5, 1, 38
20, 80400, Control_c, 5, 1, 48
20, 80424, Control_c, 5, 1, 127
20, 80448, Control_c, 5, 1, 0
20, 80448, Note_on_c, 5, 74, 127
20, 80480, Note_off_c, 5, 74, 127
20, 80496, Note_off_c, 5, 76, 127
20, 80496, Control_c, 5, 1, 0
20, 80496, Note_on_c, 5, 76, 127
20, 80520, Control_c, 5, 1, 1
20, 80544, Control_c, 5, 1, 4
20, 80568, Control_c, 5, 1, 6
20, 80592, Control_c, 5, 1, 9
20, 80616, Control_c, 5, 1, 11
20, 80640, Control_c, 5, 1, 15
20, 80664, Control_c, 5, 1, 19
20, 80688, Control_c, 5, 1, 24
20, 80712, Control_c, 5, 1, 30
20, 80736, Control_c, 5, 1, 34
20, 80760, Control_c, 5, 1, 42
20, 80784, Control_c, 5, 1, 56
20, 80808, Control_c, 5, 1, 127
20, 80832, Control_c, 5, 1, 0
20, 80832, Note_on_c, 5, 74, 127
20, 80856, Control_c, 5, 1, 127
20, 80880, Note_off_c, 5, 74, 127
20, 80880, Note_off_c, 5, 76, 127
20, 80880, Control_c, 5, 1, 127
20, 80880, Note_on_c, 5, 76, 127
20, 81216, Note_on_c, 5, 74, 127
20, 81264, Note_off_c, 5, 74, 127
20, 81264, Note_off_c, 5, 76, 127
20, 81264, Note_on_c, 5, 76, 127
20, 81600, Note_on_c, 5, 74, 127
20, 81648, Note_off_c, 5, 74, 127
20, 81648, Note_off_c, 5, 76, 127
20, 81648, Note_on_c, 5, 76, 127
20, 81936, Note_on_c, 5, 74, 127
20, 81984, Note_off_c, 5, 74, 127
20, 81984, Note_off_c, 5, 76, 127
20, 81984, Note_on_c, 5, 76, 127
20, 82320, Note_on_c, 5, 74, 111
20, 82368, Note_off_c, 5, 74, 111
20, 82368, Note_off_c, 5, 76, 127
20, 82368, Note_on_c, 5, 76, 127
20, 82752, Note_on_c, 5, 74, 127
20, 82800, Note_off_c, 5, 74, 127
20, 82800, Note_off_c, 5, 76, 127
20, 82800, Note_on_c, 5, 76, 127
20, 83136, Note_on_c, 5, 74, 127
20, 83184, Note_off_c, 5, 74, 127
20, 83184, Note_off_c, 5, 76, 127
20, 83184, Note_on_c, 5, 76, 127
20, 83520, Note_on_c, 5, 74, 127
20, 83568, Note_off_c, 5, 74, 127
20, 83568, Note_off_c, 5, 76, 127
20, 83568, Note_on_c, 5, 76, 127
20, 83904, Control_c, 5, 1, 0
20, 83904, Note_on_c, 5, 79, 127
20, 83952, Note_off_c, 5, 79, 127
20, 83952, Control_c, 5, 1, 0
20, 83952, Note_on_c, 5, 81, 127
20, 84224, Note_off_c, 5, 81, 127
20, 84288, Note_on_c, 5, 79, 127
20, 84336, Note_off_c, 5, 79, 127
20, 84336, Note_on_c, 5, 81, 127
20, 84432, Note_off_c, 5, 81, 127
20, 84432, Note_on_c, 5, 74, 111
20, 84480, Note_off_c, 5, 74, 111
20, 84481, Note_off_c, 5, 76, 127
20, 84672, Note_on_c, 5, 81, 111
20, 84736, Note_off_c, 5, 81, 111
20, 84768, Note_on_c, 5, 76, 111
20, 84960, Note_on_c, 5, 81, 111
20, 85024, Note_off_c, 5, 81, 111
20, 85056, Note_off_c, 5, 76, 111
20, 85056, Note_on_c, 5, 76, 111
20, 85152, Note_on_c, 5, 84, 127
20, 85248, Note_off_c, 5, 84, 127
20, 85248, Note_on_c, 5, 86, 111
20, 85376, Note_off_c, 5, 86, 111
20, 85440, Note_on_c, 5, 84, 111
20, 85568, Note_off_c, 5, 84, 111
20, 85632, Note_on_c, 5, 81, 111
20, 85696, Note_off_c, 5, 81, 111
20, 85728, Note_off_c, 5, 76, 111
20, 85728, Note_on_c, 5, 76, 111
20, 85824, Note_off_c, 5, 76, 111
20, 85824, Note_on_c, 5, 76, 111
20, 85920, Note_on_c, 5, 74, 111
20, 85984, Note_off_c, 5, 74, 111
20, 86016, Control_c, 5, 1, 0
20, 86016, Note_on_c, 5, 72, 111
20, 86040, Control_c, 5, 1, 127
20, 86064, Control_c, 5, 1, 127
20, 86396, Note_off_c, 5, 72, 111
20, 86592, Note_on_c, 5, 67, 111
20, 86656, Note_off_c, 5, 67, 111
20, 86688, Note_on_c, 5, 69, 111
20, 86752, Note_off_c, 5, 69, 111
20, 86784, Control_c, 5, 1, 0
20, 86784, Note_on_c, 5, 72, 111
20, 86832, Control_c, 5, 1, 0
20, 87164, Note_off_c, 5, 72, 111
20, 87456, Note_on_c, 5, 72, 111
20, 87576, Note_on_c, 5, 74, 111
20, 87592, Note_off_c, 5, 74, 111
20, 87600, Note_off_c, 5, 76, 111
20, 87600, Note_on_c, 5, 76, 111
20, 87624, Note_on_c, 5, 77, 111
20, 87640, Note_off_c, 5, 77, 111
20, 87648, Note_on_c, 5, 79, 111
20, 87664, Note_off_c, 5, 79, 111
20, 87672, Note_on_c, 5, 81, 111
20, 87688, Note_off_c, 5, 81, 111
20, 87696, Note_on_c, 5, 83, 111
20, 87712, Note_off_c, 5, 83, 111
20, 87720, Note_on_c, 5, 84, 111
20, 87736, Note_off_c, 5, 84, 111
20, 87744, Note_off_c, 5, 72, 111
20, 87744, Note_on_c, 5, 84, 111
20, 87808, Note_off_c, 5, 84, 111
20, 88128, Control_c, 5, 1, 0
20, 88128, Note_on_c, 5, 84, 127
20, 88152, Control_c, 5, 1, 1
20, 88176, Note_off_c, 5, 84, 127
20, 88176, Control_c, 5, 1, 2
20, 88176, Note_on_c, 5, 86, 127
20, 88200, Control_c, 5, 1, 4
20, 88224, Control_c, 5, 1, 5
20, 88248, Control_c, 5, 1, 6
20, 88272, Control_c, 5, 1, 8
20, 88296, Control_c, 5, 1, 9
20, 88320, Control_c, 5, 1, 11
20, 88344, Control_c, 5, 1, 13
20, 88368, Control_c, 5, 1, 15
20, 88392, Control_c, 5, 1, 17
20, 88416, Control_c, 5, 1, 19
20, 88440, Control_c, 5, 1, 21
20, 88464, Control_c, 5, 1, 24
20, 88488, Control_c, 5, 1, 27
20, 88512, Control_c, 5, 1, 30
20, 88536, Control_c, 5, 1, 34
20, 88560, Control_c, 5, 1, 38
20, 88572, Note_off_c, 5, 86, 127
20, 88584, Control_c, 5, 1, 42
20, 88608, Control_c, 5, 1, 48
20, 88632, Control_c, 5, 1, 56
20, 88656, Control_c, 5, 1, 66
20, 88680, Control_c, 5, 1, 127
20, 88704, Pitch_bend_c, 5, 8192
20, 88704, Control_c, 5, 1, 0
20, 88704, Note_on_c, 5, 86, 111
20, 88736, Pitch_bend_c, 5, 8320
20, 88744, Pitch_bend_c, 5, 8832
20, 88752, Pitch_bend_c, 5, 8832
20, 88752, Control_c, 5, 1, 0
20, 88784, Pitch_bend_c, 5, 8704
20, 88792, Pitch_bend_c, 5, 8192
20, 88800, Note_off_c, 5, 86, 111
20, 88800, Pitch_bend_c, 5, 8192
20, 88800, Note_on_c, 5, 84, 111
20, 88864, Note_off_c, 5, 84, 111
20, 88896, Pitch_bend_c, 5, 8192
20, 88896, Note_on_c, 5, 86, 111
20, 88928, Pitch_bend_c, 5, 8320
20, 88936, Pitch_bend_c, 5, 8832
20, 88944, Pitch_bend_c, 5, 8832
20, 88976, Pitch_bend_c, 5, 8704
20, 88984, Pitch_bend_c, 5, 8192
20, 88992, Note_off_c, 5, 86, 111
20, 88992, Pitch_bend_c, 5, 8192
20, 88992, Note_on_c, 5, 84, 111
20, 89056, Note_off_c, 5, 84, 111
20, 89088, Pitch_bend_c, 5, 8192
20, 89088, Note_on_c, 5, 86, 111
20, 89280, Note_off_c, 5, 86, 111
20, 89280, Control_c, 5, 1, 0
20, 89280, Note_on_c, 5, 84, 111
20, 89304, Control_c, 5, 1, 1
20, 89320, Pitch_bend_c, 5, 8320
20, 89328, Control_c, 5, 1, 2
20, 89352, Control_c, 5, 1, 5
20, 89368, Pitch_bend_c, 5, 8576
20, 89376, Pitch_bend_c, 5, 8576
20, 89376, Control_c, 5, 1, 6
20, 89400, Control_c, 5, 1, 8
20, 89424, Control_c, 5, 1, 11
20, 89448, Control_c, 5, 1, 13
20, 89472, Control_c, 5, 1, 17
20, 89496, Control_c, 5, 1, 19
20, 89520, Control_c, 5, 1, 21
20, 89544, Control_c, 5, 1, 27
20, 89568, Control_c, 5, 1, 30
20, 89592, Control_c, 5, 1, 38
20, 89608, Pitch_bend_c, 5, 8448
20, 89616, Control_c, 5, 1, 42
20, 89640, Control_c, 5, 1, 48
20, 89656, Pitch_bend_c, 5, 8192
20, 89664, Note_off_c, 5, 84, 111
20, 89664, Pitch_bend_c, 5, 8192
20, 89664, Control_c, 5, 1, 66
20, 89664, Note_on_c, 5, 84, 111
20, 89688, Control_c, 5, 1, 127
20, 89712, Control_c, 5, 1, 0
20, 89728, Note_off_c, 5, 84, 111
20, 89760, Note_on_c, 5, 81, 111
20, 89824, Note_off_c, 5, 81, 111
20, 89856, Note_on_c, 5, 84, 111
20, 89920, Note_off_c, 5, 84, 111
20, 89952, Note_on_c, 5, 84, 111
20, 90016, Note_off_c, 5, 84, 111
20, 90048, Note_on_c, 5, 81, 111
20, 90112, Note_off_c, 5, 81, 111
20, 90144, Note_on_c, 5, 81, 111
20, 90208, Note_off_c, 5, 81, 111
20, 90240, Note_on_c, 5, 81, 111
20, 90336, Note_off_c, 5, 81, 111
20, 90336, Note_on_c, 5, 84, 111
20, 90400, Note_off_c, 5, 84, 111
20, 90432, Control_c, 5, 1, 0
20, 90432, Note_on_c, 5, 84, 111
20, 90456, Control_c, 5, 1, 1
20, 90480, Control_c, 5, 1, 4
20, 90504, Control_c, 5, 1, 5
20, 90528, Control_c, 5, 1, 8
20, 90552, Control_c, 5, 1, 9
20, 90576, Control_c, 5, 1, 13
20, 90600, Control_c, 5, 1, 15
20, 90624, Control_c, 5, 1, 19
20, 90648, Control_c, 5, 1, 24
20, 90672, Control_c, 5, 1, 27
20, 90696, Control_c, 5, 1, 34
20, 90720, Control_c, 5, 1, 38
20, 90744, Control_c, 5, 1, 48
20, 90752, Note_off_c, 5, 84, 111
20, 90768, Control_c, 5, 1, 56
20, 90792, Control_c, 5, 1, 127
20, 90816, Control_c, 5, 1, 0
20, 90816, Note_on_c, 5, 84, 111
20, 90864, Control_c, 5, 1, 0
20, 90944, Note_off_c, 5, 84, 111
20, 91008, Note_on_c, 5, 84, 111
20, 91104, Note_off_c, 5, 84, 111
20, 91104, Note_on_c, 5, 86, 111
20, 91168, Note_off_c, 5, 86, 111
20, 91200, Note_on_c, 5, 86, 127
20, 91296, Note_off_c, 5, 86, 127
20, 91296, Note_on_c, 5, 88, 127
20, 91456, Note_off_c, 5, 88, 127
20, 91488, Note_on_c, 5, 93, 111
20, 91552, Note_off_c, 5, 93, 111
20, 91584, Note_on_c, 5, 88, 111
20, 91648, Note_off_c, 5, 88, 111
20, 91680, Note_off_c, 5, 91, 111
20, 91680, Note_on_c, 5, 91, 111
20, 91728, Note_on_c, 5, 84, 127
20, 91776, Note_off_c, 5, 84, 127
20, 91776, Pitch_bend_c, 5, 8192
20, 91776, Note_on_c, 5, 88, 127
20, 91856, Pitch_bend_c, 5, 8064
20, 91864, Pitch_bend_c, 5, 7808
20, 91872, Note_off_c, 5, 88, 127
20, 91872, Pitch_bend_c, 5, 8192
20, 91872, Note_on_c, 5, 86, 111
20, 91920, Pitch_bend_c, 5, 8192
20, 91936, Note_off_c, 5, 86, 111
20, 91968, Note_on_c, 5, 84, 111
20, 92096, Note_off_c, 5, 84, 111
20, 92784, Note_off_c, 5, 91, 111
20, 92784, Note_on_c, 5, 91, 127
20, 92832, Note_on_c, 5, 93, 127
20, 93056, Note_off_c, 5, 93, 127
20, 93120, Control_c, 5, 1, 0
20, 93120, Note_on_c, 5, 93, 111
20, 93144, Control_c, 5, 1, 1
20, 93168, Control_c, 5, 1, 2
20, 93192, Control_c, 5, 1, 4
20, 93216, Control_c, 5, 1, 5
20, 93240, Control_c, 5, 1, 6
20, 93264, Control_c, 5, 1, 8
20, 93288, Control_c, 5, 1, 9
20, 93312, Control_c, 5, 1, 11
20, 93336, Control_c, 5, 1, 13
20, 93360, Control_c, 5, 1, 15
20, 93384, Control_c, 5, 1, 17
20, 93408, Control_c, 5, 1, 19
20, 93432, Control_c, 5, 1, 21
20, 93456, Control_c, 5, 1, 24
20, 93480, Control_c, 5, 1, 27
20, 93500, Note_off_c, 5, 93, 111
20, 93504, Control_c, 5, 1, 30
20, 93528, Control_c, 5, 1, 34
20, 93552, Control_c, 5, 1, 38
20, 93576, Control_c, 5, 1, 42
20, 93600, Control_c, 5, 1, 48
20, 93624, Control_c, 5, 1, 56
20, 93648, Note_off_c, 5, 91, 127
20, 93648, Control_c, 5, 1, 66
20, 93648, Note_on_c, 5, 91, 111
20, 93672, Control_c, 5, 1, 127
20, 93696, Control_c, 5, 1, 0
20, 93696, Note_on_c, 5, 93, 111
20, 93744, Control_c, 5, 1, 0
20, 94144, Note_off_c, 5, 93, 111
20, 94272, Note_off_c, 5, 91, 111
20, 94272, Note_on_c, 5, 91, 111
20, 94368, Pitch_bend_c, 5, 8192
20, 94368, Note_on_c, 5, 93, 111
20, 94432, Note_off_c, 5, 93, 111
20, 94448, Pitch_bend_c, 5, 8320
20, 94456, Pitch_bend_c, 5, 8576
20, 94464, Pitch_bend_c, 5, 8192
20, 94464, Control_c, 5, 1, 0
20, 94464, Note_on_c, 5, 93, 111
20, 94488, Control_c, 5, 1, 1
20, 94512, Pitch_bend_c, 5, 8192
20, 94512, Control_c, 5, 1, 2
20, 94536, Control_c, 5, 1, 3
20, 94560, Control_c, 5, 1, 4
20, 94584, Control_c, 5, 1, 5
20, 94608, Control_c, 5, 1, 6
20, 94632, Control_c, 5, 1, 7
20, 94656, Control_c, 5, 1, 8
20, 94680, Control_c, 5, 1, 9
20, 94704, Control_c, 5, 1, 11
20, 94728, Control_c, 5, 1, 12
20, 94752, Control_c, 5, 1, 13
20, 94776, Control_c, 5, 1, 15
20, 94800, Control_c, 5, 1, 17
20, 94824, Control_c, 5, 1, 18
20, 94848, Control_c, 5, 1, 19
20, 94872, Control_c, 5, 1, 21
20, 94896, Control_c, 5, 1, 24
20, 94920, Control_c, 5, 1, 26
20, 94944, Control_c, 5, 1, 27
20, 94968, Control_c, 5, 1, 30
20, 94972, Note_off_c, 5, 93, 111
20, 94992, Control_c, 5, 1, 34
20, 95016, Control_c, 5, 1, 36
20, 95040, Control_c, 5, 1, 38
20, 95064, Control_c, 5, 1, 42
20, 95088, Control_c, 5, 1, 48
20, 95112, Control_c, 5, 1, 52
20, 95136, Control_c, 5, 1, 56
20, 95160, Control_c, 5, 1, 66
20, 95184, Control_c, 5, 1, 82
20, 95208, Control_c, 5, 1, 127
20, 95232, Control_c, 5, 1, 0
20, 95233, Note_off_c, 5, 91, 111
20, 95280, Control_c, 5, 1, 0
20, 95328, Note_on_c, 5, 93, 111
20, 95424, Note_off_c, 5, 93, 111
20, 95424, Pitch_bend_c, 5, 8192
20, 95424, Note_on_c, 5, 93, 111
20, 95464, Pitch_bend_c, 5, 8448
20, 95472, Pitch_bend_c, 5, 8448
20, 95512, Pitch_bend_c, 5, 8192
20, 95520, Note_off_c, 5, 93, 111
20, 95520, Pitch_bend_c, 5, 8192
20, 95520, Note_on_c, 5, 91, 127
20, 95568, Note_on_c, 5, 93, 127
20, 95616, Pitch_bend_c, 5, 8192
20, 95848, Pitch_bend_c, 5, 8064
20, 95896, Pitch_bend_c, 5, 7808
20, 95904, Note_off_c, 5, 93, 127
20, 95904, Note_off_c, 5, 91, 127
20, 95904, Pitch_bend_c, 5, 7808
20, 95904, Pitch_bend_c, 5, 8192
20, 95904, Note_on_c, 5, 91, 111
20, 96000, Note_on_c, 5, 86, 127
20, 96096, Note_off_c, 5, 86, 127
20, 96096, Note_on_c, 5, 88, 127
20, 96320, Note_off_c, 5, 88, 127
20, 96384, Pitch_bend_c, 5, 8192
20, 96384, Note_on_c, 5, 88, 111
20, 96416, Note_off_c, 5, 88, 111
20, 96464, Pitch_bend_c, 5, 8320
20, 96472, Pitch_bend_c, 5, 8576
20, 96480, Note_off_c, 5, 91, 111
20, 96480, Pitch_bend_c, 5, 8192
20, 96480, Note_on_c, 5, 91, 111
20, 96528, Pitch_bend_c, 5, 8192
20, 96576, Note_on_c, 5, 93, 111
20, 96640, Note_off_c, 5, 93, 111
20, 96672, Note_off_c, 5, 91, 111
20, 96672, Note_on_c, 5, 91, 111
20, 96768, Control_c, 5, 7, 108
20, 96768, Note_on_c, 5, 93, 111
20, 96832, Note_off_c, 5, 93, 111
20, 96840, Control_c, 5, 7, 107
20, 96912, Control_c, 5, 7, 106
20, 96960, Control_c, 5, 7, 105
20, 96960, Note_on_c, 5, 86, 111
20, 97008, Note_off_c, 5, 86, 111
20, 97008, Note_on_c, 5, 86, 127
20, 97032, Control_c, 5, 7, 104
20, 97056, Note_on_c, 5, 88, 127
20, 97104, Control_c, 5, 7, 103
20, 97152, Control_c, 5, 7, 102
20, 97216, Note_off_c, 5, 88, 127
20, 97224, Control_c, 5, 7, 101
20, 97248, Note_on_c, 5, 88, 111
20, 97296, Control_c, 5, 7, 100
20, 97312, Note_off_c, 5, 88, 111
20, 97344, Control_c, 5, 7, 99
20, 97344, Note_on_c, 5, 93, 111
20, 97408, Note_off_c, 5, 93, 111
20, 97416, Control_c, 5, 7, 98
20, 97440, Note_off_c, 5, 91, 111
20, 97440, Note_on_c, 5, 91, 111
20, 97488, Note_off_c, 5, 86, 127
20, 97488, Control_c, 5, 7, 97
20, 97488, Note_on_c, 5, 86, 127
20, 97536, Control_c, 5, 7, 96
20, 97536, Note_on_c, 5, 88, 127
20, 97608, Control_c, 5, 7, 95
20, 97632, Note_off_c, 5, 88, 127
20, 97632, Note_off_c, 5, 86, 127
20, 97632, Note_on_c, 5, 86, 111
20, 97680, Control_c, 5, 7, 94
20, 97728, Control_c, 5, 7, 93
20, 97728, Note_on_c, 5, 84, 111
20, 97792, Note_off_c, 5, 84, 111
20, 97800, Control_c, 5, 7, 92
20, 97824, Note_off_c, 5, 86, 111
20, 97824, Note_on_c, 5, 86, 111
20, 97872, Control_c, 5, 7, 91
20, 97920, Control_c, 5, 7, 90
20, 97920, Note_on_c, 5, 79, 111
20, 97992, Control_c, 5, 7, 89
20, 98016, Note_off_c, 5, 79, 111
20, 98016, Note_on_c, 5, 81, 111
20, 98064, Control_c, 5, 7, 88
20, 98080, Note_off_c, 5, 81, 111
20, 98112, Control_c, 5, 7, 87
20, 98112, Note_on_c, 5, 84, 111
20, 98176, Note_off_c, 5, 84, 111
20, 98184, Control_c, 5, 7, 86
20, 98208, Note_on_c, 5, 81, 111
20, 98256, Control_c, 5, 7, 85
20, 98272, Note_off_c, 5, 81, 111
20, 98304, Control_c, 5, 7, 84
20, 98304, Note_on_c, 5, 57, 111
20, 98376, Control_c, 5, 7, 83
20, 98432, Note_off_c, 5, 57, 111
20, 98448, Control_c, 5, 7, 82
20, 98496, Control_c, 5, 7, 81
20, 98496, Note_on_c, 5, 69, 111
20, 98568, Control_c, 5, 7, 80
20, 98640, Control_c, 5, 7, 79
20, 98688, Control_c, 5, 7, 78
20, 98760, Control_c, 5, 7, 77
20, 98832, Control_c, 5, 7, 76
20, 98880, Control_c, 5, 7, 75
20, 98940, Note_off_c, 5, 69, 111
20, 98952, Control_c, 5, 7, 74
20, 99024, Control_c, 5, 7, 73
20, 99072, Control_c, 5, 7, 72
20, 99072, Note_on_c, 5, 69, 111
20, 99144, Control_c, 5, 7, 71
20, 99168, Note_off_c, 5, 69, 111
20, 99168, Note_on_c, 5, 72, 111
20, 99216, Control_c, 5, 7, 70
20, 99264, Control_c, 5, 7, 69
20, 99336, Control_c, 5, 7, 68
20, 99392, Note_off_c, 5, 72, 111
20, 99408, Control_c, 5, 7, 67
20, 99456, Control_c, 5, 7, 66
20, 99456, Note_on_c, 5, 72, 111
20, 99528, Control_c, 5, 7, 65
20, 99552, Note_off_c, 5, 72, 111
20, 99552, Note_on_c, 5, 74, 111
20, 99600, Control_c, 5, 7, 64
20, 99616, Note_off_c, 5, 74, 111
20, 99648, Control_c, 5, 7, 63
20, 99648, Note_on_c, 5, 74, 111
20, 99720, Control_c, 5, 7, 62
20, 99744, Note_off_c, 5, 74, 111
20, 99744, Note_on_c, 5, 72, 111
20, 99792, Control_c, 5, 7, 61
20, 99792, Note_on_c, 5, 74, 111
20, 99808, Note_off_c, 5, 72, 111
20, 99840, Note_off_c, 5, 74, 111
20, 99840, Control_c, 5, 1, 0
20, 99841, Note_off_c, 5, 76, 111
20, 99864, Control_c, 5, 1, 1
20, 99888, Control_c, 5, 1, 4
20, 99912, Control_c, 5, 7, 59
20, 99912, Control_c, 5, 1, 5
20, 99936, Control_c, 5, 1, 8
20, 99960, Control_c, 5, 1, 9
20, 99984, Control_c, 5, 7, 58
20, 99984, Control_c, 5, 1, 13
20, 100008, Control_c, 5, 1, 15
20, 100032, Control_c, 5, 7, 57
20, 100032, Control_c, 5, 1, 19
20, 100056, Control_c, 5, 1, 24
20, 100080, Control_c, 5, 1, 27
20, 100104, Control_c, 5, 7, 56
20, 100104, Control_c, 5, 1, 34
20, 100128, Control_c, 5, 1, 38
20, 100152, Control_c, 5, 1, 48
20, 100176, Control_c, 5, 7, 55
20, 100176, Control_c, 5, 1, 56
20, 100200, Control_c, 5, 1, 127
20, 100224, Control_c, 5, 7, 54
20, 100224, Control_c, 5, 1, 0
20, 100224, Note_on_c, 5, 76, 111
20, 100272, Control_c, 5, 1, 0
20, 100296, Control_c, 5, 7, 53
20, 100320, Note_on_c, 5, 79, 111
20, 100368, Control_c, 5, 7, 52
20, 100384, Note_off_c, 5, 79, 111
20, 100416, Note_off_c, 5, 76, 111
20, 100416, Pitch_bend_c, 5, 8192
20, 100416, Control_c, 5, 7, 51
20, 100416, Note_on_c, 5, 76, 111
20, 100488, Control_c, 5, 7, 50
20, 100496, Pitch_bend_c, 5, 8320
20, 100504, Pitch_bend_c, 5, 8576
20, 100512, Pitch_bend_c, 5, 8192
20, 100512, Note_on_c, 5, 74, 111
20, 100560, Pitch_bend_c, 5, 8192
20, 100560, Control_c, 5, 7, 49
20, 100576, Note_off_c, 5, 74, 111
20, 100608, Control_c, 5, 7, 48
20, 100608, Note_on_c, 5, 72, 111
20, 100680, Control_c, 5, 7, 47
20, 100752, Control_c, 5, 7, 46
20, 100800, Control_c, 5, 7, 45
20, 100872, Control_c, 5, 7, 44
20, 100944, Control_c, 5, 7, 43
20, 100988, Note_off_c, 5, 72, 111
20, 100992, Control_c, 5, 7, 42
20, 101064, Control_c, 5, 7, 41
20, 101136, Control_c, 5, 7, 40
20, 101184, Control_c, 5, 7, 39
20, 101184, Note_on_c, 5, 74, 127
20, 101256, Control_c, 5, 7, 38
20, 101280, Note_off_c, 5, 74, 127
20, 101280, Note_off_c, 5, 76, 111
20, 101280, Note_on_c, 5, 76, 127
20, 101328, Control_c, 5, 7, 37
20, 101376, Control_c, 5, 7, 36
20, 101376, Note_on_c, 5, 74, 111
20, 101448, Control_c, 5, 7, 35
20, 101504, Note_off_c, 5, 74, 111
20, 101520, Control_c, 5, 7, 34
20, 101568, Note_off_c, 5, 76, 127
20, 101568, Control_c, 5, 7, 33
20, 101568, Note_on_c, 5, 76, 111
20, 101640, Control_c, 5, 7, 32
20, 101664, Note_on_c, 5, 79, 111
20, 101712, Control_c, 5, 7, 31
20, 101712, Note_on_c, 5, 74, 111
20, 101728, Note_off_c, 5, 79, 111
20, 101760, Note_off_c, 5, 74, 111
20, 101760, Note_off_c, 5, 76, 111
20, 101760, Control_c, 5, 7, 30
20, 101760, Note_on_c, 5, 76, 111
20, 101832, Control_c, 5, 7, 29
20, 101856, Note_on_c, 5, 74, 111
20, 101904, Control_c, 5, 7, 28
20, 101920, Note_off_c, 5, 74, 111
20, 101952, Control_c, 5, 7, 27
20, 101952, Note_on_c, 5, 72, 111
20, 102016, Note_off_c, 5, 72, 111
20, 102024, Control_c, 5, 7, 26
20, 102048, Note_on_c, 5, 74, 111
20, 102096, Control_c, 5, 7, 25
20, 102112, Note_off_c, 5, 74, 111
20, 102144, Control_c, 5, 7, 24
20, 102144, Note_on_c, 5, 74, 127
20, 102216, Control_c, 5, 7, 23
20, 102240, Note_off_c, 5, 74, 127
20, 102240, Note_off_c, 5, 76, 111
20, 102240, Note_on_c, 5, 76, 127
20, 102288, Control_c, 5, 7, 22
20, 102336, Note_off_c, 5, 76, 127
20, 102336, Control_c, 5, 7, 21
20, 102336, Note_on_c, 5, 76, 111
20, 102408, Control_c, 5, 7, 20
20, 102480, Control_c, 5, 7, 19
20, 102528, Control_c, 5, 7, 18
20, 102528, Note_on_c, 5, 74, 111
20, 102592, Note_off_c, 5, 74, 111
20, 102600, Control_c, 5, 7, 17
20, 102624, Note_on_c, 5, 72, 111
20, 102672, Control_c, 5, 7, 16
20, 102688, Note_off_c, 5, 72, 111
20, 102720, Control_c, 5, 7, 15
20, 102720, Note_on_c, 5, 74, 111
20, 102784, Note_off_c, 5, 74, 111
20, 102792, Control_c, 5, 7, 14
20, 102816, Note_on_c, 5, 67, 111
20, 102864, Control_c, 5, 7, 13
20, 102880, Note_off_c, 5, 67, 111
20, 102912, Control_c, 5, 7, 12
20, 102912, Note_on_c, 5, 72, 111
20, 102976, Note_off_c, 5, 72, 111
20, 102984, Control_c, 5, 7, 11
20, 103008, Note_on_c, 5, 74, 111
20, 103056, Control_c, 5, 7, 10
20, 103104, Control_c, 5, 7, 9
20, 103176, Control_c, 5, 7, 8
20, 103232, Note_off_c, 5, 74, 111
20, 103248, Control_c, 5, 7, 7
20, 103296, Control_c, 5, 7, 6
20, 103296, Note_on_c, 5, 74, 111
20, 103368, Control_c, 5, 7, 5
20, 103440, Control_c, 5, 7, 4
20, 103488, Control_c, 5, 7, 3
20, 103548, Note_off_c, 5, 74, 111
20, 103560, Control_c, 5, 7, 2
20, 103632, Note_off_c, 5, 76, 111
20, 103632, Note_off_c, 5, 86, 111
20, 103632, Note_off_c, 5, 91, 111
20, 103632, Control_c, 5, 7, 1
20, 103632, End_track
21, 0, Start_track
21, 0, Text_t, "MIDI"
21, 0, Program_c, 6, 8
21, 0, Control_c, 6, 7, 90
21, 0, Control_c, 6, 10, 64
21, 0, Pitch_bend_c, 6, 8192
21, 0, Control_c, 6, 64, 0
21, 192, Control_c, 6, 7, 90
21, 18432, Note_on_c, 6, 76, 79
21, 18432, Note_on_c, 6, 73, 79
21, 18432, Note_on_c, 6, 69, 79
21, 18940, Note_off_c, 6, 69, 79
21, 18940, Note_off_c, 6, 73, 79
21, 18940, Note_off_c, 6, 76, 79
21, 19200, Note_on_c, 6, 73, 79
21, 19200, Note_on_c, 6, 68, 79
21, 19200, Note_on_c, 6, 76, 79
21, 19708, Note_off_c, 6, 76, 79
21, 19708, Note_off_c, 6, 68, 79
21, 19708, Note_off_c, 6, 73, 79
21, 19968, Note_on_c, 6, 69, 79
21, 19968, Note_on_c, 6, 66, 79
21, 19968, Note_on_c, 6, 73, 79
21, 20476, Note_off_c, 6, 73, 79
21, 20476, Note_off_c, 6, 66, 79
21, 20476, Note_off_c, 6, 69, 79
21, 20736, Note_on_c, 6, 73, 79
21, 20736, Note_on_c, 6, 68, 79
21, 20736, Note_on_c, 6, 76, 79
21, 21244, Note_off_c, 6, 76, 79
21, 21244, Note_off_c, 6, 68, 79
21, 21244, Note_off_c, 6, 73, 79
21, 21504, Note_on_c, 6, 71, 79
21, 21504, Note_on_c, 6, 66, 79
21, 21504, Note_on_c, 6, 74, 79
21, 22780, Note_off_c, 6, 74, 79
21, 22780, Note_off_c, 6, 66, 79
21, 22780, Note_off_c, 6, 71, 79
21, 23040, Note_on_c, 6, 71, 79
21, 23040, Note_on_c, 6, 68, 79
21, 23040, Note_on_c, 6, 76, 79
21, 24316, Note_off_c, 6, 76, 79
21, 24316, Note_off_c, 6, 68, 79
21, 24316, Note_off_c, 6, 71, 79
21, 24576, Note_on_c, 6, 73, 79
21, 24576, Note_on_c, 6, 68, 79
21, 24576, Note_on_c, 6, 76, 79
21, 25084, Note_off_c, 6, 76, 79
21, 25084, Note_off_c, 6, 68, 79
21, 25084, Note_off_c, 6, 73, 79
21, 25344, Note_on_c, 6, 73, 79
21, 25344, Note_on_c, 6, 68, 79
21, 25344, Note_on_c, 6, 76, 79
21, 25852, Note_off_c, 6, 76, 79
21, 25852, Note_off_c, 6, 68, 79
21, 25852, Note_off_c, 6, 73, 79
21, 26112, Note_on_c, 6, 66, 79
21, 26112, Note_on_c, 6, 69, 79
21, 26112, Note_on_c, 6, 73, 79
21, 26620, Note_off_c, 6, 73, 79
21, 26620, Note_off_c, 6, 69, 79
21, 26620, Note_off_c, 6, 66, 79
21, 26880, Note_on_c, 6, 73, 79
21, 26880, Note_on_c, 6, 68, 79
21, 26880, Note_on_c, 6, 76, 79
21, 27388, Note_off_c, 6, 76, 79
21, 27388, Note_off_c, 6, 68, 79
21, 27388, Note_off_c, 6, 73, 79
21, 27648, Note_on_c, 6, 71, 79
21, 27648, Note_on_c, 6, 66, 79
21, 27648, Note_on_c, 6, 74, 79
21, 28924, Note_off_c, 6, 74, 79
21, 28924, Note_off_c, 6, 66, 79
21, 28924, Note_off_c, 6, 71, 79
21, 29184, Note_on_c, 6, 71, 79
21, 29184, Note_on_c, 6, 68, 79
21, 29184, Note_on_c, 6, 76, 79
21, 30460, Note_off_c, 6, 76, 79
21, 30460, Note_off_c, 6, 68, 79
21, 30460, Note_off_c, 6, 71, 79
21, 55296, Note_on_c, 6, 76, 79
21, 55296, Note_on_c, 6, 73, 79
21, 55296, Note_on_c, 6, 69, 79
21, 55804, Note_off_c, 6, 69, 79
21, 55804, Note_off_c, 6, 73, 79
21, 55804, Note_off_c, 6, 76, 79
21, 56064, Note_on_c, 6, 73, 79
21, 56064, Note_on_c, 6, 68, 79
21, 56064, Note_on_c, 6, 76, 79
21, 56572, Note_off_c, 6, 76, 79
21, 56572, Note_off_c, 6, 68, 79
21, 56572, Note_off_c, 6, 73, 79
21, 56832, Note_on_c, 6, 69, 79
21, 56832, Note_on_c, 6, 66, 79
21, 56832, Note_on_c, 6, 73, 79
21, 57340, Note_off_c, 6, 73, 79
21, 57340, Note_off_c, 6, 66, 79
21, 57340, Note_off_c, 6, 69, 79
21, 57600, Note_on_c, 6, 73, 79
21, 57600, Note_on_c, 6, 68, 79
21, 57600, Note_on_c, 6, 76, 79
21, 58108, Note_off_c, 6, 76, 79
21, 58108, Note_off_c, 6, 68, 79
21, 58108, Note_off_c, 6, 73, 79
21, 58368, Note_on_c, 6, 71, 79
21, 58368, Note_on_c, 6, 66, 79
21, 58368, Note_on_c, 6, 74, 79
21, 59644, Note_off_c, 6, 74, 79
21, 59644, Note_off_c, 6, 66, 79
21, 59644, Note_off_c, 6, 71, 79
21, 59904, Note_on_c, 6, 71, 79
21, 59904, Note_on_c, 6, 68, 79
21, 59904, Note_on_c, 6, 76, 79
21, 61180, Note_off_c, 6, 76, 79
21, 61180, Note_off_c, 6, 68, 79
21, 61180, Note_off_c, 6, 71, 79
21, 61440, Note_on_c, 6, 73, 79
21, 61440, Note_on_c, 6, 68, 79
21, 61440, Note_on_c, 6, 76, 79
21, 61948, Note_off_c, 6, 76, 79
21, 61948, Note_off_c, 6, 68, 79
21, 61948, Note_off_c, 6, 73, 79
21, 62208, Note_on_c, 6, 73, 79
21, 62208, Note_on_c, 6, 68, 79
21, 62208, Note_on_c, 6, 76, 79
21, 62716, Note_off_c, 6, 76, 79
21, 62716, Note_off_c, 6, 68, 79
21, 62716, Note_off_c, 6, 73, 79
21, 62976, Note_on_c, 6, 66, 79
21, 62976, Note_on_c, 6, 69, 79
21, 62976, Note_on_c, 6, 73, 79
21, 63484, Note_off_c, 6, 73, 79
21, 63484, Note_off_c, 6, 69, 79
21, 63484, Note_off_c, 6, 66, 79
21, 63744, Note_on_c, 6, 73, 79
21, 63744, Note_on_c, 6, 68, 79
21, 63744, Note_on_c, 6, 76, 79
21, 64252, Note_off_c, 6, 76, 79
21, 64252, Note_off_c, 6, 68, 79
21, 64252, Note_off_c, 6, 73, 79
21, 64512, Note_on_c, 6, 71, 79
21, 64512, Note_on_c, 6, 66, 79
21, 64512, Note_on_c, 6, 74, 79
21, 65788, Note_off_c, 6, 74, 79
21, 65788, Note_off_c, 6, 66, 79
21, 65788, Note_off_c, 6, 71, 79
21, 66048, Note_on_c, 6, 71, 79
21, 66048, Note_on_c, 6, 68, 79
21, 66048, Note_on_c, 6, 76, 79
21, 66816, Note_off_c, 6, 76, 79
21, 66816, Note_off_c, 6, 68, 79
21, 66816, Note_off_c, 6, 71, 79
21, 66816, Note_on_c, 6, 71, 79
21, 66816, Note_on_c, 6, 68, 79
21, 66816, Note_on_c, 6, 76, 79
21, 67324, Note_off_c, 6, 76, 79
21, 67324, Note_off_c, 6, 68, 79
21, 67324, Note_off_c, 6, 71, 79
21, 73728, Note_on_c, 6, 72, 79
21, 73728, Note_on_c, 6, 69, 79
21, 73728, Note_on_c, 6, 76, 79
21, 76540, Note_off_c, 6, 69, 79
21, 76800, Note_on_c, 6, 69, 79
21, 77308, Note_off_c, 6, 69, 79
21, 77308, Note_off_c, 6, 76, 79
21, 77308, Note_off_c, 6, 72, 79
21, 77568, Note_on_c, 6, 71, 79
21, 77568, Note_on_c, 6, 67, 79
21, 77568, Note_on_c, 6, 74, 79
21, 78076, Note_off_c, 6, 74, 79
21, 78076, Note_off_c, 6, 67, 79
21, 78076, Note_off_c, 6, 71, 79
21, 78336, Note_on_c, 6, 72, 79
21, 78336, Note_on_c, 6, 67, 79
21, 78336, Note_on_c, 6, 76, 79
21, 78844, Note_off_c, 6, 76, 79
21, 78844, Note_off_c, 6, 67, 79
21, 78844, Note_off_c, 6, 72, 79
21, 79104, Note_on_c, 6, 71, 79
21, 79104, Note_on_c, 6, 68, 79
21, 79104, Note_on_c, 6, 74, 79
21, 79612, Note_off_c, 6, 74, 79
21, 79612, Note_off_c, 6, 68, 79
21, 79612, Note_off_c, 6, 71, 79
21, 79872, Note_on_c, 6, 76, 79
21, 79872, Note_on_c, 6, 72, 79
21, 79872, Note_on_c, 6, 69, 79
21, 83452, Note_off_c, 6, 69, 79
21, 83452, Note_off_c, 6, 72, 79
21, 83452, Note_off_c, 6, 76, 79
21, 83712, Note_on_c, 6, 71, 79
21, 83712, Note_on_c, 6, 67, 79
21, 83712, Note_on_c, 6, 74, 79
21, 84220, Note_off_c, 6, 74, 79
21, 84220, Note_off_c, 6, 67, 79
21, 84220, Note_off_c, 6, 71, 79
21, 84480, Note_on_c, 6, 69, 79
21, 84480, Note_on_c, 6, 66, 79
21, 84480, Note_on_c, 6, 74, 79
21, 84988, Note_off_c, 6, 74, 79
21, 84988, Note_off_c, 6, 66, 79
21, 84988, Note_off_c, 6, 69, 79
21, 85248, Note_on_c, 6, 71, 79
21, 85248, Note_on_c, 6, 68, 79
21, 85248, Note_on_c, 6, 76, 79
21, 85756, Note_off_c, 6, 76, 79
21, 85756, Note_off_c, 6, 68, 79
21, 85756, Note_off_c, 6, 71, 79
21, 86016, Note_on_c, 6, 72, 79
21, 86016, Note_on_c, 6, 69, 79
21, 86016, Note_on_c, 6, 76, 79
21, 89596, Note_off_c, 6, 76, 79
21, 89596, Note_off_c, 6, 69, 79
21, 89596, Note_off_c, 6, 72, 79
21, 89856, Note_on_c, 6, 71, 79
21, 89856, Note_on_c, 6, 67, 79
21, 89856, Note_on_c, 6, 74, 79
21, 90624, Note_off_c, 6, 74, 79
21, 90624, Note_off_c, 6, 67, 79
21, 90624, Note_off_c, 6, 71, 79
21, 90624, Note_on_c, 6, 72, 79
21, 90624, Note_on_c, 6, 67, 79
21, 90624, Note_on_c, 6, 76, 79
21, 91392, Note_off_c, 6, 76, 79
21, 91392, Note_off_c, 6, 67, 79
21, 91392, Note_off_c, 6, 72, 79
21, 91392, Note_on_c, 6, 71, 79
21, 91392, Note_on_c, 6, 68, 79
21, 91392, Note_on_c, 6, 76, 79
21, 92160, Note_off_c, 6, 76, 79
21, 92160, Note_off_c, 6, 68, 79
21, 92160, Note_off_c, 6, 71, 79
21, 92160, Note_on_c, 6, 72, 79
21, 92160, Note_on_c, 6, 69, 79
21, 92160, Note_on_c, 6, 76, 79
21, 95740, Note_off_c, 6, 76, 79
21, 95740, Note_off_c, 6, 69, 79
21, 95740, Note_off_c, 6, 72, 79
21, 96000, Note_on_c, 6, 71, 79
21, 96000, Note_on_c, 6, 67, 79
21, 96000, Note_on_c, 6, 74, 79
21, 96508, Note_off_c, 6, 74, 79
21, 96508, Note_off_c, 6, 67, 79
21, 96508, Note_off_c, 6, 71, 79
21, 96768, Control_c, 6, 7, 90
21, 96768, Note_on_c, 6, 72, 79
21, 96768, Note_on_c, 6, 67, 79
21, 96768, Note_on_c, 6, 76, 79
21, 96864, Control_c, 6, 7, 89
21, 96936, Control_c, 6, 7, 88
21, 97008, Control_c, 6, 7, 87
21, 97080, Control_c, 6, 7, 86
21, 97152, Control_c, 6, 7, 85
21, 97248, Control_c, 6, 7, 84
21, 97276, Note_off_c, 6, 76, 79
21, 97276, Note_off_c, 6, 67, 79
21, 97276, Note_off_c, 6, 72, 79
21, 97320, Control_c, 6, 7, 83
21, 97392, Control_c, 6, 7, 82
21, 97464, Control_c, 6, 7, 81
21, 97536, Control_c, 6, 7, 80
21, 97536, Note_on_c, 6, 71, 79
21, 97536, Note_on_c, 6, 68, 79
21, 97536, Note_on_c, 6, 76, 79
21, 97632, Control_c, 6, 7, 79
21, 97704, Control_c, 6, 7, 78
21, 97776, Control_c, 6, 7, 77
21, 97848, Control_c, 6, 7, 76
21, 97920, Control_c, 6, 7, 75
21, 98016, Control_c, 6, 7, 74
21, 98044, Note_off_c, 6, 76, 79
21, 98044, Note_off_c, 6, 68, 79
21, 98044, Note_off_c, 6, 71, 79
21, 98088, Control_c, 6, 7, 73
21, 98160, Control_c, 6, 7, 72
21, 98232, Control_c, 6, 7, 71
21, 98304, Control_c, 6, 7, 70
21, 98304, Note_on_c, 6, 72, 79
21, 98304, Note_on_c, 6, 69, 79
21, 98304, Note_on_c, 6, 76, 79
21, 98400, Control_c, 6, 7, 69
21, 98472, Control_c, 6, 7, 68
21, 98544, Control_c, 6, 7, 67
21, 98616, Control_c, 6, 7, 66
21, 98688, Control_c, 6, 7, 65
21, 98784, Control_c, 6, 7, 64
21, 98856, Control_c, 6, 7, 63
21, 98928, Control_c, 6, 7, 62
21, 99000, Control_c, 6, 7, 61
21, 99072, Control_c, 6, 7, 60
21, 99168, Control_c, 6, 7, 59
21, 99240, Control_c, 6, 7, 58
21, 99312, Control_c, 6, 7, 57
21, 99384, Control_c, 6, 7, 56
21, 99456, Control_c, 6, 7, 55
21, 99552, Control_c, 6, 7, 54
21, 99624, Control_c, 6, 7, 53
21, 99696, Control_c, 6, 7, 52
21, 99768, Control_c, 6, 7, 51
21, 99840, Control_c, 6, 7, 50
21, 99936, Control_c, 6, 7, 49
21, 100008, Control_c, 6, 7, 48
21, 100080, Control_c, 6, 7, 47
21, 100152, Control_c, 6, 7, 46
21, 100224, Control_c, 6, 7, 45
21, 100320, Control_c, 6, 7, 44
21, 100392, Control_c, 6, 7, 43
21, 100464, Control_c, 6, 7, 42
21, 100536, Control_c, 6, 7, 41
21, 100608, Control_c, 6, 7, 40
21, 100704, Control_c, 6, 7, 39
21, 100776, Control_c, 6, 7, 38
21, 100848, Control_c, 6, 7, 37
21, 100920, Control_c, 6, 7, 36
21, 100992, Control_c, 6, 7, 35
21, 101088, Control_c, 6, 7, 34
21, 101160, Control_c, 6, 7, 33
21, 101232, Control_c, 6, 7, 32
21, 101304, Control_c, 6, 7, 31
21, 101376, Control_c, 6, 7, 30
21, 101472, Control_c, 6, 7, 29
21, 101544, Control_c, 6, 7, 28
21, 101616, Control_c, 6, 7, 27
21, 101688, Control_c, 6, 7, 26
21, 101760, Control_c, 6, 7, 25
21, 101856, Control_c, 6, 7, 24
21, 101884, Note_off_c, 6, 76, 79
21, 101884, Note_off_c, 6, 69, 79
21, 101884, Note_off_c, 6, 72, 79
21, 101928, Control_c, 6, 7, 23
21, 102000, Control_c, 6, 7, 22
21, 102072, Control_c, 6, 7, 21
21, 102144, Control_c, 6, 7, 20
21, 102144, Note_on_c, 6, 71, 79
21, 102144, Note_on_c, 6, 67, 79
21, 102144, Note_on_c, 6, 74, 79
21, 102240, Control_c, 6, 7, 19
21, 102312, Control_c, 6, 7, 18
21, 102384, Control_c, 6, 7, 17
21, 102456, Control_c, 6, 7, 16
21, 102528, Control_c, 6, 7, 15
21, 102624, Control_c, 6, 7, 14
21, 102652, Note_off_c, 6, 74, 79
21, 102652, Note_off_c, 6, 67, 79
21, 102652, Note_off_c, 6, 71, 79
21, 102696, Control_c, 6, 7, 13
21, 102768, Control_c, 6, 7, 12
21, 102840, Control_c, 6, 7, 11
21, 102912, Control_c, 6, 7, 10
21, 102912, Note_on_c, 6, 69, 79
21, 102912, Note_on_c, 6, 66, 79
21, 102912, Note_on_c, 6, 74, 79
21, 103008, Control_c, 6, 7, 9
21, 103080, Control_c, 6, 7, 8
21, 103152, Control_c, 6, 7, 7
21, 103224, Control_c, 6, 7, 6
21, 103296, Control_c, 6, 7, 5
21, 103392, Control_c, 6, 7, 4
21, 103420, Note_off_c, 6, 74, 79
21, 103420, Note_off_c, 6, 66, 79
21, 103420, Note_off_c, 6, 69, 79
21, 103464, Control_c, 6, 7, 3
21, 103536, Control_c, 6, 7, 2
21, 103608, Control_c, 6, 7, 1
21, 103608, End_track
22, 0, Start_track
22, 0, Text_t, "MIDI"
22, 0, Program_c, 9, 0
22, 0, Control_c, 9, 7, 96
22, 0, Control_c, 9, 10, 64
22, 0, Pitch_bend_c, 9, 8192
22, 0, Control_c, 9, 1, 0
22, 0, Control_c, 9, 64, 0
22, 0, Note_on_c, 9, 36, 106
22, 4, Note_off_c, 9, 36, 106
22, 192, Note_on_c, 9, 36, 106
22, 196, Note_off_c, 9, 36, 106
22, 288, Note_on_c, 9, 44, 127
22, 292, Note_off_c, 9, 44, 127
22, 384, Note_on_c, 9, 42, 127
22, 388, Note_off_c, 9, 42, 127
22, 768, Note_on_c, 9, 36, 106
22, 772, Note_off_c, 9, 36, 106
22, 960, Note_on_c, 9, 36, 106
22, 964, Note_off_c, 9, 36, 106
22, 1056, Note_on_c, 9, 44, 127
22, 1060, Note_off_c, 9, 44, 127
22, 1152, Note_on_c, 9, 42, 127
22, 1156, Note_off_c, 9, 42, 127
22, 1536, Note_on_c, 9, 36, 106
22, 1540, Note_off_c, 9, 36, 106
22, 1728, Note_on_c, 9, 36, 106
22, 1732, Note_off_c, 9, 36, 106
22, 1824, Note_on_c, 9, 44, 127
22, 1828, Note_off_c, 9, 44, 127
22, 1920, Note_on_c, 9, 42, 127
22, 1924, Note_off_c, 9, 42, 127
22, 2304, Note_on_c, 9, 36, 106
22, 2308, Note_off_c, 9, 36, 106
22, 2496, Note_on_c, 9, 36, 106
22, 2500, Note_off_c, 9, 36, 106
22, 2592, Note_on_c, 9, 44, 127
22, 2596, Note_off_c, 9, 44, 127
22, 2688, Note_on_c, 9, 42, 127
22, 2692, Note_off_c, 9, 42, 127
22, 3072, Note_on_c, 9, 36, 106
22, 3076, Note_off_c, 9, 36, 106
22, 3264, Note_on_c, 9, 36, 106
22, 3268, Note_off_c, 9, 36, 106
22, 3360, Note_on_c, 9, 44, 127
22, 3364, Note_off_c, 9, 44, 127
22, 3456, Note_on_c, 9, 42, 127
22, 3460, Note_off_c, 9, 42, 127
22, 3840, Note_on_c, 9, 36, 106
22, 3844, Note_off_c, 9, 36, 106
22, 4032, Note_on_c, 9, 36, 106
22, 4036, Note_off_c, 9, 36, 106
22, 4128, Note_on_c, 9, 44, 127
22, 4132, Note_off_c, 9, 44, 127
22, 4224, Note_on_c, 9, 42, 127
22, 4228, Note_off_c, 9, 42, 127
22, 4608, Note_on_c, 9, 36, 106
22, 4612, Note_off_c, 9, 36, 106
22, 4800, Note_on_c, 9, 36, 106
22, 4804, Note_off_c, 9, 36, 106
22, 4896, Note_on_c, 9, 44, 127
22, 4900, Note_off_c, 9, 44, 127
22, 4992, Note_on_c, 9, 42, 127
22, 4996, Note_off_c, 9, 42, 127
22, 5376, Note_on_c, 9, 36, 106
22, 5380, Note_off_c, 9, 36, 106
22, 5568, Note_on_c, 9, 36, 106
22, 5572, Note_off_c, 9, 36, 106
22, 5664, Note_on_c, 9, 44, 127
22, 5668, Note_off_c, 9, 44, 127
22, 5760, Note_on_c, 9, 42, 127
22, 5764, Note_off_c, 9, 42, 127
22, 6144, Note_on_c, 9, 36, 106
22, 6148, Note_off_c, 9, 36, 106
22, 6336, Note_on_c, 9, 36, 106
22, 6340, Note_off_c, 9, 36, 106
22, 6432, Note_on_c, 9, 44, 127
22, 6436, Note_off_c, 9, 44, 127
22, 6528, Note_on_c, 9, 42, 127
22, 6532, Note_off_c, 9, 42, 127
22, 6912, Note_on_c, 9, 36, 106
22, 6916, Note_off_c, 9, 36, 106
22, 7104, Note_on_c, 9, 36, 106
22, 7108, Note_off_c, 9, 36, 106
22, 7200, Note_on_c, 9, 44, 127
22, 7204, Note_off_c, 9, 44, 127
22, 7296, Note_on_c, 9, 42, 127
22, 7300, Note_off_c, 9, 42, 127
22, 7680, Note_on_c, 9, 36, 106
22, 7684, Note_off_c, 9, 36, 106
22, 7872, Note_on_c, 9, 36, 106
22, 7876, Note_off_c, 9, 36, 106
22, 7968, Note_on_c, 9, 44, 127
22, 7972, Note_off_c, 9, 44, 127
22, 8064, Note_on_c, 9, 42, 127
22, 8068, Note_off_c, 9, 42, 127
22, 8448, Note_on_c, 9, 36, 106
22, 8452, Note_off_c, 9, 36, 106
22, 8640, Note_on_c, 9, 36, 106
22, 8644, Note_off_c, 9, 36, 106
22, 8736, Note_on_c, 9, 44, 127
22, 8740, Note_off_c, 9, 44, 127
22, 8832, Note_on_c, 9, 42, 127
22, 8836, Note_off_c, 9, 42, 127
22, 9216, Note_on_c, 9, 36, 106
22, 9220, Note_off_c, 9, 36, 106
22, 9408, Note_on_c, 9, 36, 106
22, 9412, Note_off_c, 9, 36, 106
22, 9504, Note_on_c, 9, 44, 127
22, 9508, Note_off_c, 9, 44, 127
22, 9600, Note_on_c, 9, 42, 127
22, 9604, Note_off_c, 9, 42, 127
22, 9984, Note_on_c, 9, 36, 106
22, 9988, Note_off_c, 9, 36, 106
22, 10176, Note_on_c, 9, 36, 106
22, 10180, Note_off_c, 9, 36, 106
22, 10272, Note_on_c, 9, 44, 127
22, 10276, Note_off_c, 9, 44, 127
22, 10368, Note_on_c, 9, 42, 127
22, 10372, Note_off_c, 9, 42, 127
22, 10752, Note_on_c, 9, 36, 106
22, 10756, Note_off_c, 9, 36, 106
22, 10944, Note_on_c, 9, 36, 106
22, 10948, Note_off_c, 9, 36, 106
22, 11040, Note_on_c, 9, 44, 127
22, 11044, Note_off_c, 9, 44, 127
22, 11136, Note_on_c, 9, 42, 127
22, 11140, Note_off_c, 9, 42, 127
22, 11520, Note_on_c, 9, 38, 127
22, 11524, Note_off_c, 9, 38, 127
22, 11616, Note_on_c, 9, 45, 106
22, 11620, Note_off_c, 9, 45, 106
22, 11712, Note_on_c, 9, 45, 106
22, 11716, Note_off_c, 9, 45, 106
22, 11808, Note_on_c, 9, 45, 106
22, 11812, Note_off_c, 9, 45, 106
22, 11904, Note_on_c, 9, 45, 106
22, 11908, Note_off_c, 9, 45, 106
22, 12000, Note_on_c, 9, 45, 106
22, 12004, Note_off_c, 9, 45, 106
22, 12096, Note_on_c, 9, 38, 127
22, 12100, Note_off_c, 9, 38, 127
22, 12144, Note_on_c, 9, 38, 127
22, 12148, Note_off_c, 9, 38, 127
22, 12192, Note_on_c, 9, 38, 127
22, 12196, Note_off_c, 9, 38, 127
22, 12288, Note_on_c, 9, 36, 106
22, 12292, Note_off_c, 9, 36, 106
22, 12480, Note_on_c, 9, 36, 106
22, 12484, Note_off_c, 9, 36, 106
22, 12672, Note_on_c, 9, 38, 127
22, 12676, Note_off_c, 9, 38, 127
22, 13056, Note_on_c, 9, 36, 106
22, 13060, Note_off_c, 9, 36, 106
22, 13248, Note_on_c, 9, 36, 106
22, 13252, Note_off_c, 9, 36, 106
22, 13440, Note_on_c, 9, 38, 127
22, 13444, Note_off_c, 9, 38, 127
22, 13824, Note_on_c, 9, 36, 106
22, 13828, Note_off_c, 9, 36, 106
22, 14016, Note_on_c, 9, 36, 106
22, 14020, Note_off_c, 9, 36, 106
22, 14208, Note_on_c, 9, 38, 127
22, 14212, Note_off_c, 9, 38, 127
22, 14592, Note_on_c, 9, 36, 106
22, 14596, Note_off_c, 9, 36, 106
22, 14784, Note_on_c, 9, 36, 106
22, 14788, Note_off_c, 9, 36, 106
22, 14976, Note_on_c, 9, 38, 127
22, 14980, Note_off_c, 9, 38, 127
22, 15360, Note_on_c, 9, 36, 106
22, 15364, Note_off_c, 9, 36, 106
22, 15552, Note_on_c, 9, 36, 106
22, 15556, Note_off_c, 9, 36, 106
22, 15744, Note_on_c, 9, 38, 127
22, 15748, Note_off_c, 9, 38, 127
22, 16128, Note_on_c, 9, 36, 106
22, 16132, Note_off_c, 9, 36, 106
22, 16320, Note_on_c, 9, 36, 106
22, 16324, Note_off_c, 9, 36, 106
22, 16512, Note_on_c, 9, 38, 127
22, 16516, Note_off_c, 9, 38, 127
22, 16896, Note_on_c, 9, 36, 106
22, 16900, Note_off_c, 9, 36, 106
22, 17088, Note_on_c, 9, 36, 106
22, 17092, Note_off_c, 9, 36, 106
22, 17280, Note_on_c, 9, 38, 127
22, 17284, Note_off_c, 9, 38, 127
22, 17568, Note_on_c, 9, 38, 127
22, 17572, Note_off_c, 9, 38, 127
22, 17664, Note_on_c, 9, 36, 106
22, 17668, Note_off_c, 9, 36, 106
22, 17760, Note_on_c, 9, 45, 106
22, 17764, Note_off_c, 9, 45, 106
22, 17856, Note_on_c, 9, 45, 106
22, 17860, Note_off_c, 9, 45, 106
22, 17952, Note_on_c, 9, 45, 106
22, 17956, Note_off_c, 9, 45, 106
22, 18048, Note_on_c, 9, 45, 106
22, 18052, Note_off_c, 9, 45, 106
22, 18144, Note_on_c, 9, 45, 106
22, 18148, Note_off_c, 9, 45, 106
22, 18240, Note_on_c, 9, 38, 127
22, 18244, Note_off_c, 9, 38, 127
22, 18336, Note_on_c, 9, 38, 127
22, 18340, Note_off_c, 9, 38, 127
22, 18432, Note_on_c, 9, 36, 106
22, 18432, Note_on_c, 9, 42, 106
22, 18436, Note_off_c, 9, 42, 106
22, 18436, Note_off_c, 9, 36, 106
22, 18528, Note_on_c, 9, 42, 106
22, 18532, Note_off_c, 9, 42, 106
22, 18624, Note_on_c, 9, 36, 106
22, 18624, Note_on_c, 9, 42, 106
22, 18628, Note_off_c, 9, 42, 106
22, 18628, Note_off_c, 9, 36, 106
22, 18720, Note_on_c, 9, 42, 106
22, 18724, Note_off_c, 9, 42, 106
22, 18816, Note_on_c, 9, 38, 127
22, 18816, Note_on_c, 9, 42, 106
22, 18820, Note_off_c, 9, 42, 106
22, 18820, Note_off_c, 9, 38, 127
22, 18912, Note_on_c, 9, 42, 106
22, 18916, Note_off_c, 9, 42, 106
22, 19008, Note_on_c, 9, 42, 106
22, 19012, Note_off_c, 9, 42, 106
22, 19104, Note_on_c, 9, 42, 106
22, 19108, Note_off_c, 9, 42, 106
22, 19200, Note_on_c, 9, 36, 106
22, 19200, Note_on_c, 9, 42, 106
22, 19204, Note_off_c, 9, 42, 106
22, 19204, Note_off_c, 9, 36, 106
22, 19296, Note_on_c, 9, 42, 106
22, 19300, Note_off_c, 9, 42, 106
22, 19392, Note_on_c, 9, 36, 106
22, 19392, Note_on_c, 9, 42, 106
22, 19396, Note_off_c, 9, 42, 106
22, 19396, Note_off_c, 9, 36, 106
22, 19488, Note_on_c, 9, 42, 106
22, 19492, Note_off_c, 9, 42, 106
22, 19584, Note_on_c, 9, 38, 127
22, 19584, Note_on_c, 9, 42, 106
22, 19588, Note_off_c, 9, 42, 106
22, 19588, Note_off_c, 9, 38, 127
22, 19680, Note_on_c, 9, 42, 106
22, 19684, Note_off_c, 9, 42, 106
22, 19776, Note_on_c, 9, 42, 106
22, 19780, Note_off_c, 9, 42, 106
22, 19872, Note_on_c, 9, 42, 106
22, 19876, Note_off_c, 9, 42, 106
22, 19968, Note_on_c, 9, 36, 106
22, 19968, Note_on_c, 9, 42, 106
22, 19972, Note_off_c, 9, 42, 106
22, 19972, Note_off_c, 9, 36, 106
22, 20064, Note_on_c, 9, 42, 106
22, 20068, Note_off_c, 9, 42, 106
22, 20160, Note_on_c, 9, 36, 106
22, 20160, Note_on_c, 9, 42, 106
22, 20164, Note_off_c, 9, 42, 106
22, 20164, Note_off_c, 9, 36, 106
22, 20256, Note_on_c, 9, 42, 106
22, 20260, Note_off_c, 9, 42, 106
22, 20352, Note_on_c, 9, 38, 127
22, 20352, Note_on_c, 9, 42, 106
22, 20356, Note_off_c, 9, 42, 106
22, 20356, Note_off_c, 9, 38, 127
22, 20448, Note_on_c, 9, 42, 106
22, 20452, Note_off_c, 9, 42, 106
22, 20544, Note_on_c, 9, 42, 106
22, 20548, Note_off_c, 9, 42, 106
22, 20640, Note_on_c, 9, 42, 106
22, 20644, Note_off_c, 9, 42, 106
22, 20736, Note_on_c, 9, 36, 106
22, 20736, Note_on_c, 9, 42, 106
22, 20740, Note_off_c, 9, 42, 106
22, 20740, Note_off_c, 9, 36, 106
22, 20832, Note_on_c, 9, 42, 106
22, 20836, Note_off_c, 9, 42, 106
22, 20928, Note_on_c, 9, 36, 106
22, 20928, Note_on_c, 9, 42, 106
22, 20932, Note_off_c, 9, 42, 106
22, 20932, Note_off_c, 9, 36, 106
22, 21024, Note_on_c, 9, 42, 106
22, 21028, Note_off_c, 9, 42, 106
22, 21120, Note_on_c, 9, 38, 127
22, 21120, Note_on_c, 9, 42, 106
22, 21124, Note_off_c, 9, 42, 106
22, 21124, Note_off_c, 9, 38, 127
22, 21216, Note_on_c, 9, 42, 106
22, 21220, Note_off_c, 9, 42, 106
22, 21312, Note_on_c, 9, 42, 106
22, 21316, Note_off_c, 9, 42, 106
22, 21408, Note_on_c, 9, 42, 106
22, 21412, Note_off_c, 9, 42, 106
22, 21504, Note_on_c, 9, 36, 106
22, 21504, Note_on_c, 9, 42, 106
22, 21508, Note_off_c, 9, 42, 106
22, 21508, Note_off_c, 9, 36, 106
22, 21600, Note_on_c, 9, 42, 106
22, 21604, Note_off_c, 9, 42, 106
22, 21696, Note_on_c, 9, 36, 106
22, 21696, Note_on_c, 9, 42, 106
22, 21700, Note_off_c, 9, 42, 106
22, 21700, Note_off_c, 9, 36, 106
22, 21792, Note_on_c, 9, 42, 106
22, 21796, Note_off_c, 9, 42, 106
22, 21888, Note_on_c, 9, 38, 127
22, 21888, Note_on_c, 9, 42, 106
22, 21892, Note_off_c, 9, 42, 106
22, 21892, Note_off_c, 9, 38, 127
22, 21984, Note_on_c, 9, 42, 106
22, 21988, Note_off_c, 9, 42, 106
22, 22080, Note_on_c, 9, 42, 106
22, 22084, Note_off_c, 9, 42, 106
22, 22176, Note_on_c, 9, 42, 106
22, 22180, Note_off_c, 9, 42, 106
22, 22272, Note_on_c, 9, 36, 106
22, 22272, Note_on_c, 9, 42, 106
22, 22276, Note_off_c, 9, 42, 106
22, 22276, Note_off_c, 9, 36, 106
22, 22368, Note_on_c, 9, 42, 106
22, 22372, Note_off_c, 9, 42, 106
22, 22464, Note_on_c, 9, 36, 106
22, 22464, Note_on_c, 9, 42, 106
22, 22468, Note_off_c, 9, 42, 106
22, 22468, Note_off_c, 9, 36, 106
22, 22560, Note_on_c, 9, 42, 106
22, 22564, Note_off_c, 9, 42, 106
22, 22656, Note_on_c, 9, 38, 127
22, 22656, Note_on_c, 9, 42, 106
22, 22660, Note_off_c, 9, 42, 106
22, 22660, Note_off_c, 9, 38, 127
22, 22752, Note_on_c, 9, 42, 106
22, 22756, Note_off_c, 9, 42, 106
22, 22848, Note_on_c, 9, 42, 106
22, 22852, Note_off_c, 9, 42, 106
22, 22944, Note_on_c, 9, 42, 106
22, 22948, Note_off_c, 9, 42, 106
22, 23040, Note_on_c, 9, 36, 106
22, 23040, Note_on_c, 9, 42, 106
22, 23044, Note_off_c, 9, 42, 106
22, 23044, Note_off_c, 9, 36, 106
22, 23136, Note_on_c, 9, 42, 106
22, 23140, Note_off_c, 9, 42, 106
22, 23232, Note_on_c, 9, 36, 106
22, 23232, Note_on_c, 9, 42, 106
22, 23236, Note_off_c, 9, 42, 106
22, 23236, Note_off_c, 9, 36, 106
22, 23328, Note_on_c, 9, 42, 106
22, 23332, Note_off_c, 9, 42, 106
22, 23424, Note_on_c, 9, 38, 127
22, 23424, Note_on_c, 9, 42, 106
22, 23428, Note_off_c, 9, 42, 106
22, 23428, Note_off_c, 9, 38, 127
22, 23520, Note_on_c, 9, 42, 106
22, 23524, Note_off_c, 9, 42, 106
22, 23616, Note_on_c, 9, 42, 106
22, 23620, Note_off_c, 9, 42, 106
22, 23712, Note_on_c, 9, 44, 106
22, 23716, Note_off_c, 9, 44, 106
22, 23808, Note_on_c, 9, 36, 106
22, 23808, Note_on_c, 9, 38, 127
22, 23812, Note_off_c, 9, 38, 127
22, 23812, Note_off_c, 9, 36, 106
22, 23904, Note_on_c, 9, 38, 127
22, 23908, Note_off_c, 9, 38, 127
22, 24000, Note_on_c, 9, 36, 106
22, 24000, Note_on_c, 9, 38, 127
22, 24004, Note_off_c, 9, 38, 127
22, 24004, Note_off_c, 9, 36, 106
22, 24096, Note_on_c, 9, 45, 106
22, 24100, Note_off_c, 9, 45, 106
22, 24192, Note_on_c, 9, 45, 106
22, 24196, Note_off_c, 9, 45, 106
22, 24288, Note_on_c, 9, 45, 106
22, 24292, Note_off_c, 9, 45, 106
22, 24384, Note_on_c, 9, 38, 127
22, 24388, Note_off_c, 9, 38, 127
22, 24432, Note_on_c, 9, 38, 127
22, 24436, Note_off_c, 9, 38, 127
22, 24480, Note_on_c, 9, 38, 127
22, 24484, Note_off_c, 9, 38, 127
22, 24576, Note_on_c, 9, 36, 106
22, 24576, Note_on_c, 9, 42, 106
22, 24580, Note_off_c, 9, 42, 106
22, 24580, Note_off_c, 9, 36, 106
22, 24672, Note_on_c, 9, 42, 106
22, 24676, Note_off_c, 9, 42, 106
22, 24768, Note_on_c, 9, 36, 106
22, 24768, Note_on_c, 9, 42, 106
22, 24772, Note_off_c, 9, 42, 106
22, 24772, Note_off_c, 9, 36, 106
22, 24864, Note_on_c, 9, 42, 106
22, 24868, Note_off_c, 9, 42, 106
22, 24960, Note_on_c, 9, 38, 127
22, 24960, Note_on_c, 9, 42, 106
22, 24964, Note_off_c, 9, 42, 106
22, 24964, Note_off_c, 9, 38, 127
22, 25056, Note_on_c, 9, 42, 106
22, 25060, Note_off_c, 9, 42, 106
22, 25152, Note_on_c, 9, 42, 106
22, 25156, Note_off_c, 9, 42, 106
22, 25248, Note_on_c, 9, 42, 106
22, 25252, Note_off_c, 9, 42, 106
22, 25344, Note_on_c, 9, 36, 106
22, 25344, Note_on_c, 9, 42, 106
22, 25348, Note_off_c, 9, 42, 106
22, 25348, Note_off_c, 9, 36, 106
22, 25440, Note_on_c, 9, 42, 106
22, 25444, Note_off_c, 9, 42, 106
22, 25536, Note_on_c, 9, 36, 106
22, 25536, Note_on_c, 9, 42, 106
22, 25540, Note_off_c, 9, 42, 106
22, 25540, Note_off_c, 9, 36, 106
22, 25632, Note_on_c, 9, 42, 106
22, 25636, Note_off_c, 9, 42, 106
22, 25728, Note_on_c, 9, 38, 127
22, 25728, Note_on_c, 9, 42, 106
22, 25732, Note_off_c, 9, 42, 106
22, 25732, Note_off_c, 9, 38, 127
22, 25824, Note_on_c, 9, 42, 106
22, 25828, Note_off_c, 9, 42, 106
22, 25920, Note_on_c, 9, 42, 106
22, 25924, Note_off_c, 9, 42, 106
22, 26016, Note_on_c, 9, 42, 106
22, 26020, Note_off_c, 9, 42, 106
22, 26112, Note_on_c, 9, 36, 106
22, 26112, Note_on_c, 9, 42, 106
22, 26116, Note_off_c, 9, 42, 106
22, 26116, Note_off_c, 9, 36, 106
22, 26208, Note_on_c, 9, 42, 106
22, 26212, Note_off_c, 9, 42, 106
22, 26304, Note_on_c, 9, 36, 106
22, 26304, Note_on_c, 9, 42, 106
22, 26308, Note_off_c, 9, 42, 106
22, 26308, Note_off_c, 9, 36, 106
22, 26400, Note_on_c, 9, 42, 106
22, 26404, Note_off_c, 9, 42, 106
22, 26496, Note_on_c, 9, 38, 127
22, 26496, Note_on_c, 9, 42, 106
22, 26500, Note_off_c, 9, 42, 106
22, 26500, Note_off_c, 9, 38, 127
22, 26592, Note_on_c, 9, 42, 106
22, 26596, Note_off_c, 9, 42, 106
22, 26688, Note_on_c, 9, 42, 106
22, 26692, Note_off_c, 9, 42, 106
22, 26784, Note_on_c, 9, 42, 106
22, 26788, Note_off_c, 9, 42, 106
22, 26880, Note_on_c, 9, 36, 106
22, 26880, Note_on_c, 9, 42, 106
22, 26884, Note_off_c, 9, 42, 106
22, 26884, Note_off_c, 9, 36, 106
22, 26976, Note_on_c, 9, 42, 106
22, 26980, Note_off_c, 9, 42, 106
22, 27072, Note_on_c, 9, 36, 106
22, 27072, Note_on_c, 9, 42, 106
22, 27076, Note_off_c, 9, 42, 106
22, 27076, Note_off_c, 9, 36, 106
22, 27168, Note_on_c, 9, 42, 106
22, 27172, Note_off_c, 9, 42, 106
22, 27264, Note_on_c, 9, 38, 127
22, 27264, Note_on_c, 9, 42, 106
22, 27268, Note_off_c, 9, 42, 106
22, 27268, Note_off_c, 9, 38, 127
22, 27360, Note_on_c, 9, 42, 106
22, 27364, Note_off_c, 9, 42, 106
22, 27456, Note_on_c, 9, 42, 106
22, 27460, Note_off_c, 9, 42, 106
22, 27552, Note_on_c, 9, 42, 106
22, 27556, Note_off_c, 9, 42, 106
22, 27648, Note_on_c, 9, 36, 106
22, 27648, Note_on_c, 9, 42, 106
22, 27652, Note_off_c, 9, 42, 106
22, 27652, Note_off_c, 9, 36, 106
22, 27744, Note_on_c, 9, 42, 106
22, 27748, Note_off_c, 9, 42, 106
22, 27840, Note_on_c, 9, 36, 106
22, 27840, Note_on_c, 9, 42, 106
22, 27844, Note_off_c, 9, 42, 106
22, 27844, Note_off_c, 9, 36, 106
22, 27936, Note_on_c, 9, 42, 106
22, 27940, Note_off_c, 9, 42, 106
22, 28032, Note_on_c, 9, 38, 127
22, 28032, Note_on_c, 9, 42, 106
22, 28036, Note_off_c, 9, 42, 106
22, 28036, Note_off_c, 9, 38, 127
22, 28128, Note_on_c, 9, 42, 106
22, 28132, Note_off_c, 9, 42, 106
22, 28224, Note_on_c, 9, 42, 106
22, 28228, Note_off_c, 9, 42, 106
22, 28320, Note_on_c, 9, 42, 106
22, 28324, Note_off_c, 9, 42, 106
22, 28416, Note_on_c, 9, 36, 106
22, 28416, Note_on_c, 9, 42, 106
22, 28420, Note_off_c, 9, 42, 106
22, 28420, Note_off_c, 9, 36, 106
22, 28512, Note_on_c, 9, 42, 106
22, 28516, Note_off_c, 9, 42, 106
22, 28608, Note_on_c, 9, 36, 106
22, 28608, Note_on_c, 9, 42, 106
22, 28612, Note_off_c, 9, 42, 106
22, 28612, Note_off_c, 9, 36, 106
22, 28704, Note_on_c, 9, 42, 106
22, 28708, Note_off_c, 9, 42, 106
22, 28800, Note_on_c, 9, 38, 127
22, 28800, Note_on_c, 9, 42, 106
22, 28804, Note_off_c, 9, 42, 106
22, 28804, Note_off_c, 9, 38, 127
22, 28896, Note_on_c, 9, 42, 106
22, 28900, Note_off_c, 9, 42, 106
22, 28992, Note_on_c, 9, 42, 106
22, 28996, Note_off_c, 9, 42, 106
22, 29088, Note_on_c, 9, 42, 106
22, 29092, Note_off_c, 9, 42, 106
22, 29184, Note_on_c, 9, 36, 106
22, 29184, Note_on_c, 9, 42, 106
22, 29188, Note_off_c, 9, 42, 106
22, 29188, Note_off_c, 9, 36, 106
22, 29280, Note_on_c, 9, 42, 106
22, 29284, Note_off_c, 9, 42, 106
22, 29376, Note_on_c, 9, 36, 106
22, 29376, Note_on_c, 9, 42, 106
22, 29380, Note_off_c, 9, 42, 106
22, 29380, Note_off_c, 9, 36, 106
22, 29472, Note_on_c, 9, 42, 106
22, 29476, Note_off_c, 9, 42, 106
22, 29568, Note_on_c, 9, 38, 127
22, 29568, Note_on_c, 9, 42, 106
22, 29572, Note_off_c, 9, 42, 106
22, 29572, Note_off_c, 9, 38, 127
22, 29664, Note_on_c, 9, 42, 106
22, 29668, Note_off_c, 9, 42, 106
22, 29760, Note_on_c, 9, 42, 106
22, 29764, Note_off_c, 9, 42, 106
22, 29856, Note_on_c, 9, 42, 106
22, 29860, Note_off_c, 9, 42, 106
22, 29952, Note_on_c, 9, 36, 106
22, 29952, Note_on_c, 9, 38, 127
22, 29956, Note_off_c, 9, 38, 127
22, 29956, Note_off_c, 9, 36, 106
22, 30048, Note_on_c, 9, 38, 127
22, 30052, Note_off_c, 9, 38, 127
22, 30144, Note_on_c, 9, 36, 106
22, 30144, Note_on_c, 9, 38, 127
22, 30148, Note_off_c, 9, 38, 127
22, 30148, Note_off_c, 9, 36, 106
22, 30240, Note_on_c, 9, 45, 106
22, 30244, Note_off_c, 9, 45, 106
22, 30336, Note_on_c, 9, 45, 106
22, 30340, Note_off_c, 9, 45, 106
22, 30432, Note_on_c, 9, 45, 106
22, 30436, Note_off_c, 9, 45, 106
22, 30528, Note_on_c, 9, 38, 127
22, 30532, Note_off_c, 9, 38, 127
22, 30576, Note_on_c, 9, 38, 127
22, 30580, Note_off_c, 9, 38, 127
22, 30624, Note_on_c, 9, 38, 127
22, 30628, Note_off_c, 9, 38, 127
22, 30720, Note_on_c, 9, 36, 106
22, 30724, Note_off_c, 9, 36, 106
22, 30912, Note_on_c, 9, 36, 106
22, 30916, Note_off_c, 9, 36, 106
22, 31104, Note_on_c, 9, 38, 127
22, 31108, Note_off_c, 9, 38, 127
22, 31488, Note_on_c, 9, 36, 106
22, 31492, Note_off_c, 9, 36, 106
22, 31680, Note_on_c, 9, 36, 106
22, 31684, Note_off_c, 9, 36, 106
22, 31872, Note_on_c, 9, 38, 127
22, 31876, Note_off_c, 9, 38, 127
22, 32256, Note_on_c, 9, 36, 106
22, 32260, Note_off_c, 9, 36, 106
22, 32448, Note_on_c, 9, 36, 106
22, 32452, Note_off_c, 9, 36, 106
22, 32640, Note_on_c, 9, 38, 127
22, 32644, Note_off_c, 9, 38, 127
22, 33024, Note_on_c, 9, 36, 106
22, 33028, Note_off_c, 9, 36, 106
22, 33216, Note_on_c, 9, 36, 106
22, 33220, Note_off_c, 9, 36, 106
22, 33408, Note_on_c, 9, 38, 127
22, 33412, Note_off_c, 9, 38, 127
22, 33792, Note_on_c, 9, 36, 106
22, 33796, Note_off_c, 9, 36, 106
22, 33984, Note_on_c, 9, 36, 106
22, 33988, Note_off_c, 9, 36, 106
22, 34176, Note_on_c, 9, 38, 127
22, 34180, Note_off_c, 9, 38, 127
22, 34560, Note_on_c, 9, 36, 106
22, 34564, Note_off_c, 9, 36, 106
22, 34752, Note_on_c, 9, 36, 106
22, 34756, Note_off_c, 9, 36, 106
22, 34944, Note_on_c, 9, 38, 127
22, 34948, Note_off_c, 9, 38, 127
22, 35328, Note_on_c, 9, 36, 106
22, 35332, Note_off_c, 9, 36, 106
22, 35520, Note_on_c, 9, 36, 106
22, 35524, Note_off_c, 9, 36, 106
22, 35712, Note_on_c, 9, 38, 127
22, 35716, Note_off_c, 9, 38, 127
22, 35904, Note_on_c, 9, 38, 127
22, 35908, Note_off_c, 9, 38, 127
22, 36000, Note_on_c, 9, 38, 127
22, 36004, Note_off_c, 9, 38, 127
22, 36096, Note_on_c, 9, 36, 106
22, 36096, Note_on_c, 9, 45, 106
22, 36100, Note_off_c, 9, 45, 106
22, 36100, Note_off_c, 9, 36, 106
22, 36192, Note_on_c, 9, 45, 106
22, 36196, Note_off_c, 9, 45, 106
22, 36288, Note_on_c, 9, 36, 106
22, 36288, Note_on_c, 9, 45, 106
22, 36292, Note_off_c, 9, 45, 106
22, 36292, Note_off_c, 9, 36, 106
22, 36384, Note_on_c, 9, 45, 106
22, 36388, Note_off_c, 9, 45, 106
22, 36480, Note_on_c, 9, 36, 106
22, 36480, Note_on_c, 9, 45, 106
22, 36484, Note_off_c, 9, 45, 106
22, 36484, Note_off_c, 9, 36, 106
22, 36576, Note_on_c, 9, 45, 106
22, 36580, Note_off_c, 9, 45, 106
22, 36672, Note_on_c, 9, 36, 106
22, 36672, Note_on_c, 9, 38, 127
22, 36676, Note_off_c, 9, 38, 127
22, 36676, Note_off_c, 9, 36, 106
22, 36768, Note_on_c, 9, 38, 127
22, 36772, Note_off_c, 9, 38, 127
22, 36864, Note_on_c, 9, 36, 106
22, 36868, Note_off_c, 9, 36, 106
22, 37056, Note_on_c, 9, 36, 106
22, 37060, Note_off_c, 9, 36, 106
22, 37248, Note_on_c, 9, 38, 127
22, 37252, Note_off_c, 9, 38, 127
22, 37632, Note_on_c, 9, 36, 106
22, 37636, Note_off_c, 9, 36, 106
22, 37824, Note_on_c, 9, 36, 106
22, 37828, Note_off_c, 9, 36, 106
22, 38016, Note_on_c, 9, 38, 127
22, 38020, Note_off_c, 9, 38, 127
22, 38400, Note_on_c, 9, 36, 106
22, 38404, Note_off_c, 9, 36, 106
22, 38592, Note_on_c, 9, 36, 106
22, 38596, Note_off_c, 9, 36, 106
22, 38784, Note_on_c, 9, 38, 127
22, 38788, Note_off_c, 9, 38, 127
22, 39168, Note_on_c, 9, 36, 106
22, 39172, Note_off_c, 9, 36, 106
22, 39360, Note_on_c, 9, 36, 106
22, 39364, Note_off_c, 9, 36, 106
22, 39552, Note_on_c, 9, 38, 127
22, 39556, Note_off_c, 9, 38, 127
22, 39936, Note_on_c, 9, 36, 106
22, 39940, Note_off_c, 9, 36, 106
22, 40128, Note_on_c, 9, 36, 106
22, 40132, Note_off_c, 9, 36, 106
22, 40320, Note_on_c, 9, 38, 127
22, 40324, Note_off_c, 9, 38, 127
22, 40704, Note_on_c, 9, 36, 106
22, 40708, Note_off_c, 9, 36, 106
22, 40896, Note_on_c, 9, 36, 106
22, 40900, Note_off_c, 9, 36, 106
22, 41088, Note_on_c, 9, 38, 127
22, 41092, Note_off_c, 9, 38, 127
22, 41472, Note_on_c, 9, 36, 106
22, 41476, Note_off_c, 9, 36, 106
22, 41664, Note_on_c, 9, 36, 106
22, 41668, Note_off_c, 9, 36, 106
22, 41856, Note_on_c, 9, 38, 127
22, 41860, Note_off_c, 9, 38, 127
22, 42048, Note_on_c, 9, 38, 127
22, 42052, Note_off_c, 9, 38, 127
22, 42144, Note_on_c, 9, 38, 127
22, 42148, Note_off_c, 9, 38, 127
22, 42240, Note_on_c, 9, 45, 106
22, 42244, Note_off_c, 9, 45, 106
22, 42336, Note_on_c, 9, 45, 106
22, 42340, Note_off_c, 9, 45, 106
22, 42432, Note_on_c, 9, 45, 106
22, 42436, Note_off_c, 9, 45, 106
22, 42528, Note_on_c, 9, 45, 106
22, 42532, Note_off_c, 9, 45, 106
22, 42624, Note_on_c, 9, 38, 127
22, 42628, Note_off_c, 9, 38, 127
22, 42720, Note_on_c, 9, 45, 106
22, 42724, Note_off_c, 9, 45, 106
22, 42816, Note_on_c, 9, 45, 106
22, 42820, Note_off_c, 9, 45, 106
22, 42912, Note_on_c, 9, 38, 127
22, 42916, Note_off_c, 9, 38, 127
22, 43008, Note_on_c, 9, 36, 106
22, 43008, Note_on_c, 9, 42, 106
22, 43012, Note_off_c, 9, 42, 106
22, 43012, Note_off_c, 9, 36, 106
22, 43104, Note_on_c, 9, 42, 106
22, 43108, Note_off_c, 9, 42, 106
22, 43200, Note_on_c, 9, 36, 106
22, 43200, Note_on_c, 9, 42, 106
22, 43204, Note_off_c, 9, 42, 106
22, 43204, Note_off_c, 9, 36, 106
22, 43296, Note_on_c, 9, 42, 106
22, 43300, Note_off_c, 9, 42, 106
22, 43392, Note_on_c, 9, 38, 127
22, 43392, Note_on_c, 9, 42, 106
22, 43396, Note_off_c, 9, 42, 106
22, 43396, Note_off_c, 9, 38, 127
22, 43488, Note_on_c, 9, 42, 106
22, 43492, Note_off_c, 9, 42, 106
22, 43584, Note_on_c, 9, 42, 106
22, 43588, Note_off_c, 9, 42, 106
22, 43680, Note_on_c, 9, 42, 106
22, 43684, Note_off_c, 9, 42, 106
22, 43776, Note_on_c, 9, 36, 106
22, 43776, Note_on_c, 9, 42, 106
22, 43780, Note_off_c, 9, 42, 106
22, 43780, Note_off_c, 9, 36, 106
22, 43872, Note_on_c, 9, 42, 106
22, 43876, Note_off_c, 9, 42, 106
22, 43968, Note_on_c, 9, 36, 106
22, 43968, Note_on_c, 9, 42, 106
22, 43972, Note_off_c, 9, 42, 106
22, 43972, Note_off_c, 9, 36, 106
22, 44064, Note_on_c, 9, 42, 106
22, 44068, Note_off_c, 9, 42, 106
22, 44160, Note_on_c, 9, 38, 127
22, 44160, Note_on_c, 9, 42, 106
22, 44164, Note_off_c, 9, 42, 106
22, 44164, Note_off_c, 9, 38, 127
22, 44256, Note_on_c, 9, 42, 106
22, 44260, Note_off_c, 9, 42, 106
22, 44352, Note_on_c, 9, 42, 106
22, 44356, Note_off_c, 9, 42, 106
22, 44448, Note_on_c, 9, 42, 106
22, 44452, Note_off_c, 9, 42, 106
22, 44544, Note_on_c, 9, 36, 106
22, 44544, Note_on_c, 9, 42, 106
22, 44548, Note_off_c, 9, 42, 106
22, 44548, Note_off_c, 9, 36, 106
22, 44640, Note_on_c, 9, 42, 106
22, 44644, Note_off_c, 9, 42, 106
22, 44736, Note_on_c, 9, 36, 106
22, 44736, Note_on_c, 9, 42, 106
22, 44740, Note_off_c, 9, 42, 106
22, 44740, Note_off_c, 9, 36, 106
22, 44832, Note_on_c, 9, 42, 106
22, 44836, Note_off_c, 9, 42, 106
22, 44928, Note_on_c, 9, 38, 127
22, 44928, Note_on_c, 9, 42, 106
22, 44932, Note_off_c, 9, 42, 106
22, 44932, Note_off_c, 9, 38, 127
22, 45024, Note_on_c, 9, 42, 106
22, 45028, Note_off_c, 9, 42, 106
22, 45120, Note_on_c, 9, 42, 106
22, 45124, Note_off_c, 9, 42, 106
22, 45216, Note_on_c, 9, 42, 106
22, 45220, Note_off_c, 9, 42, 106
22, 45312, Note_on_c, 9, 36, 106
22, 45312, Note_on_c, 9, 42, 106
22, 45316, Note_off_c, 9, 42, 106
22, 45316, Note_off_c, 9, 36, 106
22, 45408, Note_on_c, 9, 42, 106
22, 45412, Note_off_c, 9, 42, 106
22, 45504, Note_on_c, 9, 36, 106
22, 45504, Note_on_c, 9, 42, 106
22, 45508, Note_off_c, 9, 42, 106
22, 45508, Note_off_c, 9, 36, 106
22, 45600, Note_on_c, 9, 42, 106
22, 45604, Note_off_c, 9, 42, 106
22, 45696, Note_on_c, 9, 38, 127
22, 45696, Note_on_c, 9, 42, 106
22, 45700, Note_off_c, 9, 42, 106
22, 45700, Note_off_c, 9, 38, 127
22, 45792, Note_on_c, 9, 42, 106
22, 45796, Note_off_c, 9, 42, 106
22, 45888, Note_on_c, 9, 42, 106
22, 45892, Note_off_c, 9, 42, 106
22, 45984, Note_on_c, 9, 42, 106
22, 45988, Note_off_c, 9, 42, 106
22, 46080, Note_on_c, 9, 36, 106
22, 46080, Note_on_c, 9, 42, 106
22, 46084, Note_off_c, 9, 42, 106
22, 46084, Note_off_c, 9, 36, 106
22, 46176, Note_on_c, 9, 42, 106
22, 46180, Note_off_c, 9, 42, 106
22, 46272, Note_on_c, 9, 36, 106
22, 46272, Note_on_c, 9, 42, 106
22, 46276, Note_off_c, 9, 42, 106
22, 46276, Note_off_c, 9, 36, 106
22, 46368, Note_on_c, 9, 42, 106
22, 46372, Note_off_c, 9, 42, 106
22, 46464, Note_on_c, 9, 38, 127
22, 46464, Note_on_c, 9, 42, 106
22, 46468, Note_off_c, 9, 42, 106
22, 46468, Note_off_c, 9, 38, 127
22, 46560, Note_on_c, 9, 42, 106
22, 46564, Note_off_c, 9, 42, 106
22, 46656, Note_on_c, 9, 42, 106
22, 46660, Note_off_c, 9, 42, 106
22, 46752, Note_on_c, 9, 42, 106
22, 46756, Note_off_c, 9, 42, 106
22, 46848, Note_on_c, 9, 36, 106
22, 46848, Note_on_c, 9, 42, 106
22, 46852, Note_off_c, 9, 42, 106
22, 46852, Note_off_c, 9, 36, 106
22, 46944, Note_on_c, 9, 42, 106
22, 46948, Note_off_c, 9, 42, 106
22, 47040, Note_on_c, 9, 36, 106
22, 47040, Note_on_c, 9, 42, 106
22, 47044, Note_off_c, 9, 42, 106
22, 47044, Note_off_c, 9, 36, 106
22, 47136, Note_on_c, 9, 42, 106
22, 47140, Note_off_c, 9, 42, 106
22, 47232, Note_on_c, 9, 38, 127
22, 47232, Note_on_c, 9, 42, 106
22, 47236, Note_off_c, 9, 42, 106
22, 47236, Note_off_c, 9, 38, 127
22, 47328, Note_on_c, 9, 42, 106
22, 47332, Note_off_c, 9, 42, 106
22, 47424, Note_on_c, 9, 42, 106
22, 47428, Note_off_c, 9, 42, 106
22, 47520, Note_on_c, 9, 42, 106
22, 47524, Note_off_c, 9, 42, 106
22, 47616, Note_on_c, 9, 36, 106
22, 47616, Note_on_c, 9, 42, 106
22, 47620, Note_off_c, 9, 42, 106
22, 47620, Note_off_c, 9, 36, 106
22, 47712, Note_on_c, 9, 42, 106
22, 47716, Note_off_c, 9, 42, 106
22, 47808, Note_on_c, 9, 36, 106
22, 47808, Note_on_c, 9, 42, 106
22, 47812, Note_off_c, 9, 42, 106
22, 47812, Note_off_c, 9, 36, 106
22, 47904, Note_on_c, 9, 42, 106
22, 47908, Note_off_c, 9, 42, 106
22, 48000, Note_on_c, 9, 38, 127
22, 48000, Note_on_c, 9, 42, 106
22, 48004, Note_off_c, 9, 42, 106
22, 48004, Note_off_c, 9, 38, 127
22, 48096, Note_on_c, 9, 42, 106
22, 48100, Note_off_c, 9, 42, 106
22, 48192, Note_on_c, 9, 42, 106
22, 48196, Note_off_c, 9, 42, 106
22, 48288, Note_on_c, 9, 44, 127
22, 48292, Note_off_c, 9, 44, 127
22, 48384, Note_on_c, 9, 36, 106
22, 48384, Note_on_c, 9, 38, 127
22, 48388, Note_off_c, 9, 38, 127
22, 48388, Note_off_c, 9, 36, 106
22, 48480, Note_on_c, 9, 38, 127
22, 48484, Note_off_c, 9, 38, 127
22, 48576, Note_on_c, 9, 38, 127
22, 48580, Note_off_c, 9, 38, 127
22, 48672, Note_on_c, 9, 45, 106
22, 48676, Note_off_c, 9, 45, 106
22, 48768, Note_on_c, 9, 45, 106
22, 48772, Note_off_c, 9, 45, 106
22, 48864, Note_on_c, 9, 45, 106
22, 48868, Note_off_c, 9, 45, 106
22, 48960, Note_on_c, 9, 45, 106
22, 48964, Note_off_c, 9, 45, 106
22, 49056, Note_on_c, 9, 41, 127
22, 49060, Note_off_c, 9, 41, 127
22, 49152, Note_on_c, 9, 36, 106
22, 49152, Note_on_c, 9, 42, 106
22, 49156, Note_off_c, 9, 42, 106
22, 49156, Note_off_c, 9, 36, 106
22, 49248, Note_on_c, 9, 42, 106
22, 49252, Note_off_c, 9, 42, 106
22, 49344, Note_on_c, 9, 36, 106
22, 49344, Note_on_c, 9, 42, 106
22, 49348, Note_off_c, 9, 42, 106
22, 49348, Note_off_c, 9, 36, 106
22, 49440, Note_on_c, 9, 42, 106
22, 49444, Note_off_c, 9, 42, 106
22, 49536, Note_on_c, 9, 38, 127
22, 49536, Note_on_c, 9, 42, 106
22, 49540, Note_off_c, 9, 42, 106
22, 49540, Note_off_c, 9, 38, 127
22, 49632, Note_on_c, 9, 42, 106
22, 49636, Note_off_c, 9, 42, 106
22, 49728, Note_on_c, 9, 42, 106
22, 49732, Note_off_c, 9, 42, 106
22, 49824, Note_on_c, 9, 42, 106
22, 49828, Note_off_c, 9, 42, 106
22, 49920, Note_on_c, 9, 36, 106
22, 49920, Note_on_c, 9, 42, 106
22, 49924, Note_off_c, 9, 42, 106
22, 49924, Note_off_c, 9, 36, 106
22, 50016, Note_on_c, 9, 42, 106
22, 50020, Note_off_c, 9, 42, 106
22, 50112, Note_on_c, 9, 36, 106
22, 50112, Note_on_c, 9, 42, 106
22, 50116, Note_off_c, 9, 42, 106
22, 50116, Note_off_c, 9, 36, 106
22, 50208, Note_on_c, 9, 42, 106
22, 50212, Note_off_c, 9, 42, 106
22, 50304, Note_on_c, 9, 38, 127
22, 50304, Note_on_c, 9, 42, 106
22, 50308, Note_off_c, 9, 42, 106
22, 50308, Note_off_c, 9, 38, 127
22, 50400, Note_on_c, 9, 42, 106
22, 50404, Note_off_c, 9, 42, 106
22, 50496, Note_on_c, 9, 42, 106
22, 50500, Note_off_c, 9, 42, 106
22, 50592, Note_on_c, 9, 42, 106
22, 50596, Note_off_c, 9, 42, 106
22, 50688, Note_on_c, 9, 36, 106
22, 50688, Note_on_c, 9, 42, 106
22, 50692, Note_off_c, 9, 42, 106
22, 50692, Note_off_c, 9, 36, 106
22, 50784, Note_on_c, 9, 42, 106
22, 50788, Note_off_c, 9, 42, 106
22, 50880, Note_on_c, 9, 36, 106
22, 50880, Note_on_c, 9, 42, 106
22, 50884, Note_off_c, 9, 42, 106
22, 50884, Note_off_c, 9, 36, 106
22, 50976, Note_on_c, 9, 42, 106
22, 50980, Note_off_c, 9, 42, 106
22, 51072, Note_on_c, 9, 38, 127
22, 51072, Note_on_c, 9, 42, 106
22, 51076, Note_off_c, 9, 42, 106
22, 51076, Note_off_c, 9, 38, 127
22, 51168, Note_on_c, 9, 42, 106
22, 51172, Note_off_c, 9, 42, 106
22, 51264, Note_on_c, 9, 42, 106
22, 51268, Note_off_c, 9, 42, 106
22, 51360, Note_on_c, 9, 44, 127
22, 51364, Note_off_c, 9, 44, 127
22, 51456, Note_on_c, 9, 36, 106
22, 51456, Note_on_c, 9, 38, 127
22, 51460, Note_off_c, 9, 38, 127
22, 51460, Note_off_c, 9, 36, 106
22, 51552, Note_on_c, 9, 45, 106
22, 51556, Note_off_c, 9, 45, 106
22, 51648, Note_on_c, 9, 36, 106
22, 51648, Note_on_c, 9, 45, 106
22, 51652, Note_off_c, 9, 45, 106
22, 51652, Note_off_c, 9, 36, 106
22, 51744, Note_on_c, 9, 38, 127
22, 51748, Note_off_c, 9, 38, 127
22, 51840, Note_on_c, 9, 45, 106
22, 51844, Note_off_c, 9, 45, 106
22, 51936, Note_on_c, 9, 45, 106
22, 51940, Note_off_c, 9, 45, 106
22, 52032, Note_on_c, 9, 45, 106
22, 52036, Note_off_c, 9, 45, 106
22, 52128, Note_on_c, 9, 45, 106
22, 52132, Note_off_c, 9, 45, 106
22, 52224, Note_on_c, 9, 36, 106
22, 52224, Note_on_c, 9, 42, 106
22, 52228, Note_off_c, 9, 42, 106
22, 52228, Note_off_c, 9, 36, 106
22, 52320, Note_on_c, 9, 42, 106
22, 52324, Note_off_c, 9, 42, 106
22, 52416, Note_on_c, 9, 36, 106
22, 52416, Note_on_c, 9, 42, 106
22, 52420, Note_off_c, 9, 42, 106
22, 52420, Note_off_c, 9, 36, 106
22, 52512, Note_on_c, 9, 42, 106
22, 52516, Note_off_c, 9, 42, 106
22, 52608, Note_on_c, 9, 38, 127
22, 52608, Note_on_c, 9, 42, 106
22, 52612, Note_off_c, 9, 42, 106
22, 52612, Note_off_c, 9, 38, 127
22, 52704, Note_on_c, 9, 42, 106
22, 52708, Note_off_c, 9, 42, 106
22, 52800, Note_on_c, 9, 42, 106
22, 52804, Note_off_c, 9, 42, 106
22, 52896, Note_on_c, 9, 42, 106
22, 52900, Note_off_c, 9, 42, 106
22, 52992, Note_on_c, 9, 36, 106
22, 52992, Note_on_c, 9, 42, 106
22, 52996, Note_off_c, 9, 42, 106
22, 52996, Note_off_c, 9, 36, 106
22, 53088, Note_on_c, 9, 42, 106
22, 53092, Note_off_c, 9, 42, 106
22, 53184, Note_on_c, 9, 36, 106
22, 53184, Note_on_c, 9, 42, 106
22, 53188, Note_off_c, 9, 42, 106
22, 53188, Note_off_c, 9, 36, 106
22, 53280, Note_on_c, 9, 42, 106
22, 53284, Note_off_c, 9, 42, 106
22, 53376, Note_on_c, 9, 38, 127
22, 53376, Note_on_c, 9, 42, 106
22, 53380, Note_off_c, 9, 42, 106
22, 53380, Note_off_c, 9, 38, 127
22, 53472, Note_on_c, 9, 42, 106
22, 53476, Note_off_c, 9, 42, 106
22, 53568, Note_on_c, 9, 42, 106
22, 53572, Note_off_c, 9, 42, 106
22, 53664, Note_on_c, 9, 42, 106
22, 53668, Note_off_c, 9, 42, 106
22, 53760, Note_on_c, 9, 36, 106
22, 53760, Note_on_c, 9, 42, 106
22, 53764, Note_off_c, 9, 42, 106
22, 53764, Note_off_c, 9, 36, 106
22, 53856, Note_on_c, 9, 42, 106
22, 53860, Note_off_c, 9, 42, 106
22, 53952, Note_on_c, 9, 36, 106
22, 53952, Note_on_c, 9, 42, 106
22, 53956, Note_off_c, 9, 42, 106
22, 53956, Note_off_c, 9, 36, 106
22, 54048, Note_on_c, 9, 42, 106
22, 54052, Note_off_c, 9, 42, 106
22, 54144, Note_on_c, 9, 38, 127
22, 54144, Note_on_c, 9, 42, 106
22, 54148, Note_off_c, 9, 42, 106
22, 54148, Note_off_c, 9, 38, 127
22, 54240, Note_on_c, 9, 42, 106
22, 54244, Note_off_c, 9, 42, 106
22, 54336, Note_on_c, 9, 42, 106
22, 54340, Note_off_c, 9, 42, 106
22, 54432, Note_on_c, 9, 44, 127
22, 54436, Note_off_c, 9, 44, 127
22, 54528, Note_on_c, 9, 38, 127
22, 54532, Note_off_c, 9, 38, 127
22, 54624, Note_on_c, 9, 45, 106
22, 54628, Note_off_c, 9, 45, 106
22, 54720, Note_on_c, 9, 45, 106
22, 54724, Note_off_c, 9, 45, 106
22, 54816, Note_on_c, 9, 38, 127
22, 54820, Note_off_c, 9, 38, 127
22, 54912, Note_on_c, 9, 45, 106
22, 54916, Note_off_c, 9, 45, 106
22, 55008, Note_on_c, 9, 45, 106
22, 55012, Note_off_c, 9, 45, 106
22, 55104, Note_on_c, 9, 45, 106
22, 55108, Note_off_c, 9, 45, 106
22, 55152, Note_on_c, 9, 45, 106
22, 55156, Note_off_c, 9, 45, 106
22, 55200, Note_on_c, 9, 41, 127
22, 55204, Note_off_c, 9, 41, 127
22, 55296, Note_on_c, 9, 36, 106
22, 55296, Note_on_c, 9, 42, 106
22, 55300, Note_off_c, 9, 42, 106
22, 55300, Note_off_c, 9, 36, 106
22, 55392, Note_on_c, 9, 42, 106
22, 55396, Note_off_c, 9, 42, 106
22, 55488, Note_on_c, 9, 36, 106
22, 55488, Note_on_c, 9, 42, 106
22, 55492, Note_off_c, 9, 42, 106
22, 55492, Note_off_c, 9, 36, 106
22, 55584, Note_on_c, 9, 42, 106
22, 55588, Note_off_c, 9, 42, 106
22, 55680, Note_on_c, 9, 38, 127
22, 55680, Note_on_c, 9, 42, 106
22, 55684, Note_off_c, 9, 42, 106
22, 55684, Note_off_c, 9, 38, 127
22, 55776, Note_on_c, 9, 42, 106
22, 55780, Note_off_c, 9, 42, 106
22, 55872, Note_on_c, 9, 42, 106
22, 55876, Note_off_c, 9, 42, 106
22, 55968, Note_on_c, 9, 42, 106
22, 55972, Note_off_c, 9, 42, 106
22, 56064, Note_on_c, 9, 36, 106
22, 56064, Note_on_c, 9, 42, 106
22, 56068, Note_off_c, 9, 42, 106
22, 56068, Note_off_c, 9, 36, 106
22, 56160, Note_on_c, 9, 42, 106
22, 56164, Note_off_c, 9, 42, 106
22, 56256, Note_on_c, 9, 36, 106
22, 56256, Note_on_c, 9, 42, 106
22, 56260, Note_off_c, 9, 42, 106
22, 56260, Note_off_c, 9, 36, 106
22, 56352, Note_on_c, 9, 42, 106
22, 56356, Note_off_c, 9, 42, 106
22, 56448, Note_on_c, 9, 38, 127
22, 56448, Note_on_c, 9, 42, 106
22, 56452, Note_off_c, 9, 42, 106
22, 56452, Note_off_c, 9, 38, 127
22, 56544, Note_on_c, 9, 42, 106
22, 56548, Note_off_c, 9, 42, 106
22, 56640, Note_on_c, 9, 42, 106
22, 56644, Note_off_c, 9, 42, 106
22, 56736, Note_on_c, 9, 42, 106
22, 56740, Note_off_c, 9, 42, 106
22, 56832, Note_on_c, 9, 36, 106
22, 56832, Note_on_c, 9, 42, 106
22, 56836, Note_off_c, 9, 42, 106
22, 56836, Note_off_c, 9, 36, 106
22, 56928, Note_on_c, 9, 42, 106
22, 56932, Note_off_c, 9, 42, 106
22, 57024, Note_on_c, 9, 36, 106
22, 57024, Note_on_c, 9, 42, 106
22, 57028, Note_off_c, 9, 42, 106
22, 57028, Note_off_c, 9, 36, 106
22, 57120, Note_on_c, 9, 42, 106
22, 57124, Note_off_c, 9, 42, 106
22, 57216, Note_on_c, 9, 38, 127
22, 57216, Note_on_c, 9, 42, 106
22, 57220, Note_off_c, 9, 42, 106
22, 57220, Note_off_c, 9, 38, 127
22, 57312, Note_on_c, 9, 42, 106
22, 57316, Note_off_c, 9, 42, 106
22, 57408, Note_on_c, 9, 42, 106
22, 57412, Note_off_c, 9, 42, 106
22, 57504, Note_on_c, 9, 42, 106
22, 57508, Note_off_c, 9, 42, 106
22, 57600, Note_on_c, 9, 36, 106
22, 57600, Note_on_c, 9, 42, 106
22, 57604, Note_off_c, 9, 42, 106
22, 57604, Note_off_c, 9, 36, 106
22, 57696, Note_on_c, 9, 42, 106
22, 57700, Note_off_c, 9, 42, 106
22, 57792, Note_on_c, 9, 36, 106
22, 57792, Note_on_c, 9, 42, 106
22, 57796, Note_off_c, 9, 42, 106
22, 57796, Note_off_c, 9, 36, 106
22, 57888, Note_on_c, 9, 42, 106
22, 57892, Note_off_c, 9, 42, 106
22, 57984, Note_on_c, 9, 38, 127
22, 57984, Note_on_c, 9, 42, 106
22, 57988, Note_off_c, 9, 42, 106
22, 57988, Note_off_c, 9, 38, 127
22, 58080, Note_on_c, 9, 42, 106
22, 58084, Note_off_c, 9, 42, 106
22, 58176, Note_on_c, 9, 42, 106
22, 58180, Note_off_c, 9, 42, 106
22, 58272, Note_on_c, 9, 42, 106
22, 58276, Note_off_c, 9, 42, 106
22, 58368, Note_on_c, 9, 36, 106
22, 58368, Note_on_c, 9, 42, 106
22, 58372, Note_off_c, 9, 42, 106
22, 58372, Note_off_c, 9, 36, 106
22, 58464, Note_on_c, 9, 42, 106
22, 58468, Note_off_c, 9, 42, 106
22, 58560, Note_on_c, 9, 36, 106
22, 58560, Note_on_c, 9, 42, 106
22, 58564, Note_off_c, 9, 42, 106
22, 58564, Note_off_c, 9, 36, 106
22, 58656, Note_on_c, 9, 42, 106
22, 58660, Note_off_c, 9, 42, 106
22, 58752, Note_on_c, 9, 38, 127
22, 58752, Note_on_c, 9, 42, 106
22, 58756, Note_off_c, 9, 42, 106
22, 58756, Note_off_c, 9, 38, 127
22, 58848, Note_on_c, 9, 42, 106
22, 58852, Note_off_c, 9, 42, 106
22, 58944, Note_on_c, 9, 42, 106
22, 58948, Note_off_c, 9, 42, 106
22, 59040, Note_on_c, 9, 42, 106
22, 59044, Note_off_c, 9, 42, 106
22, 59136, Note_on_c, 9, 36, 106
22, 59136, Note_on_c, 9, 42, 106
22, 59140, Note_off_c, 9, 42, 106
22, 59140, Note_off_c, 9, 36, 106
22, 59232, Note_on_c, 9, 42, 106
22, 59236, Note_off_c, 9, 42, 106
22, 59328, Note_on_c, 9, 36, 106
22, 59328, Note_on_c, 9, 42, 106
22, 59332, Note_off_c, 9, 42, 106
22, 59332, Note_off_c, 9, 36, 106
22, 59424, Note_on_c, 9, 42, 106
22, 59428, Note_off_c, 9, 42, 106
22, 59520, Note_on_c, 9, 38, 127
22, 59520, Note_on_c, 9, 42, 106
22, 59524, Note_off_c, 9, 42, 106
22, 59524, Note_off_c, 9, 38, 127
22, 59616, Note_on_c, 9, 42, 106
22, 59620, Note_off_c, 9, 42, 106
22, 59712, Note_on_c, 9, 42, 106
22, 59716, Note_off_c, 9, 42, 106
22, 59808, Note_on_c, 9, 42, 106
22, 59812, Note_off_c, 9, 42, 106
22, 59904, Note_on_c, 9, 36, 106
22, 59904, Note_on_c, 9, 42, 106
22, 59908, Note_off_c, 9, 42, 106
22, 59908, Note_off_c, 9, 36, 106
22, 60000, Note_on_c, 9, 42, 106
22, 60004, Note_off_c, 9, 42, 106
22, 60096, Note_on_c, 9, 36, 106
22, 60096, Note_on_c, 9, 42, 106
22, 60100, Note_off_c, 9, 42, 106
22, 60100, Note_off_c, 9, 36, 106
22, 60192, Note_on_c, 9, 42, 106
22, 60196, Note_off_c, 9, 42, 106
22, 60288, Note_on_c, 9, 38, 127
22, 60288, Note_on_c, 9, 42, 106
22, 60292, Note_off_c, 9, 42, 106
22, 60292, Note_off_c, 9, 38, 127
22, 60384, Note_on_c, 9, 42, 106
22, 60388, Note_off_c, 9, 42, 106
22, 60480, Note_on_c, 9, 42, 106
22, 60484, Note_off_c, 9, 42, 106
22, 60576, Note_on_c, 9, 44, 106
22, 60580, Note_off_c, 9, 44, 106
22, 60672, Note_on_c, 9, 36, 106
22, 60672, Note_on_c, 9, 38, 127
22, 60676, Note_off_c, 9, 38, 127
22, 60676, Note_off_c, 9, 36, 106
22, 60768, Note_on_c, 9, 38, 127
22, 60772, Note_off_c, 9, 38, 127
22, 60864, Note_on_c, 9, 36, 106
22, 60864, Note_on_c, 9, 38, 127
22, 60868, Note_off_c, 9, 38, 127
22, 60868, Note_off_c, 9, 36, 106
22, 60960, Note_on_c, 9, 45, 106
22, 60964, Note_off_c, 9, 45, 106
22, 61056, Note_on_c, 9, 45, 106
22, 61060, Note_off_c, 9, 45, 106
22, 61152, Note_on_c, 9, 45, 106
22, 61156, Note_off_c, 9, 45, 106
22, 61248, Note_on_c, 9, 38, 127
22, 61252, Note_off_c, 9, 38, 127
22, 61296, Note_on_c, 9, 38, 127
22, 61300, Note_off_c, 9, 38, 127
22, 61344, Note_on_c, 9, 38, 127
22, 61348, Note_off_c, 9, 38, 127
22, 61440, Note_on_c, 9, 36, 106
22, 61440, Note_on_c, 9, 42, 106
22, 61444, Note_off_c, 9, 42, 106
22, 61444, Note_off_c, 9, 36, 106
22, 61536, Note_on_c, 9, 42, 106
22, 61540, Note_off_c, 9, 42, 106
22, 61632, Note_on_c, 9, 36, 106
22, 61632, Note_on_c, 9, 42, 106
22, 61636, Note_off_c, 9, 42, 106
22, 61636, Note_off_c, 9, 36, 106
22, 61728, Note_on_c, 9, 42, 106
22, 61732, Note_off_c, 9, 42, 106
22, 61824, Note_on_c, 9, 38, 127
22, 61824, Note_on_c, 9, 42, 106
22, 61828, Note_off_c, 9, 42, 106
22, 61828, Note_off_c, 9, 38, 127
22, 61920, Note_on_c, 9, 42, 106
22, 61924, Note_off_c, 9, 42, 106
22, 62016, Note_on_c, 9, 42, 106
22, 62020, Note_off_c, 9, 42, 106
22, 62112, Note_on_c, 9, 42, 106
22, 62116, Note_off_c, 9, 42, 106
22, 62208, Note_on_c, 9, 36, 106
22, 62208, Note_on_c, 9, 42, 106
22, 62212, Note_off_c, 9, 42, 106
22, 62212, Note_off_c, 9, 36, 106
22, 62304, Note_on_c, 9, 42, 106
22, 62308, Note_off_c, 9, 42, 106
22, 62400, Note_on_c, 9, 36, 106
22, 62400, Note_on_c, 9, 42, 106
22, 62404, Note_off_c, 9, 42, 106
22, 62404, Note_off_c, 9, 36, 106
22, 62496, Note_on_c, 9, 42, 106
22, 62500, Note_off_c, 9, 42, 106
22, 62592, Note_on_c, 9, 38, 127
22, 62592, Note_on_c, 9, 42, 106
22, 62596, Note_off_c, 9, 42, 106
22, 62596, Note_off_c, 9, 38, 127
22, 62688, Note_on_c, 9, 42, 106
22, 62692, Note_off_c, 9, 42, 106
22, 62784, Note_on_c, 9, 42, 106
22, 62788, Note_off_c, 9, 42, 106
22, 62880, Note_on_c, 9, 42, 106
22, 62884, Note_off_c, 9, 42, 106
22, 62976, Note_on_c, 9, 36, 106
22, 62976, Note_on_c, 9, 42, 106
22, 62980, Note_off_c, 9, 42, 106
22, 62980, Note_off_c, 9, 36, 106
22, 63072, Note_on_c, 9, 42, 106
22, 63076, Note_off_c, 9, 42, 106
22, 63168, Note_on_c, 9, 36, 106
22, 63168, Note_on_c, 9, 42, 106
22, 63172, Note_off_c, 9, 42, 106
22, 63172, Note_off_c, 9, 36, 106
22, 63264, Note_on_c, 9, 42, 106
22, 63268, Note_off_c, 9, 42, 106
22, 63360, Note_on_c, 9, 38, 127
22, 63360, Note_on_c, 9, 42, 106
22, 63364, Note_off_c, 9, 42, 106
22, 63364, Note_off_c, 9, 38, 127
22, 63456, Note_on_c, 9, 42, 106
22, 63460, Note_off_c, 9, 42, 106
22, 63552, Note_on_c, 9, 42, 106
22, 63556, Note_off_c, 9, 42, 106
22, 63648, Note_on_c, 9, 42, 106
22, 63652, Note_off_c, 9, 42, 106
22, 63744, Note_on_c, 9, 36, 106
22, 63744, Note_on_c, 9, 42, 106
22, 63748, Note_off_c, 9, 42, 106
22, 63748, Note_off_c, 9, 36, 106
22, 63840, Note_on_c, 9, 42, 106
22, 63844, Note_off_c, 9, 42, 106
22, 63936, Note_on_c, 9, 36, 106
22, 63936, Note_on_c, 9, 42, 106
22, 63940, Note_off_c, 9, 42, 106
22, 63940, Note_off_c, 9, 36, 106
22, 64032, Note_on_c, 9, 42, 106
22, 64036, Note_off_c, 9, 42, 106
22, 64128, Note_on_c, 9, 38, 127
22, 64128, Note_on_c, 9, 42, 106
22, 64132, Note_off_c, 9, 42, 106
22, 64132, Note_off_c, 9, 38, 127
22, 64224, Note_on_c, 9, 42, 106
22, 64228, Note_off_c, 9, 42, 106
22, 64320, Note_on_c, 9, 42, 106
22, 64324, Note_off_c, 9, 42, 106
22, 64416, Note_on_c, 9, 42, 106
22, 64420, Note_off_c, 9, 42, 106
22, 64512, Note_on_c, 9, 36, 106
22, 64512, Note_on_c, 9, 42, 106
22, 64516, Note_off_c, 9, 42, 106
22, 64516, Note_off_c, 9, 36, 106
22, 64608, Note_on_c, 9, 42, 106
22, 64612, Note_off_c, 9, 42, 106
22, 64704, Note_on_c, 9, 36, 106
22, 64704, Note_on_c, 9, 42, 106
22, 64708, Note_off_c, 9, 42, 106
22, 64708, Note_off_c, 9, 36, 106
22, 64800, Note_on_c, 9, 42, 106
22, 64804, Note_off_c, 9, 42, 106
22, 64896, Note_on_c, 9, 38, 127
22, 64896, Note_on_c, 9, 42, 106
22, 64900, Note_off_c, 9, 42, 106
22, 64900, Note_off_c, 9, 38, 127
22, 64992, Note_on_c, 9, 42, 106
22, 64996, Note_off_c, 9, 42, 106
22, 65088, Note_on_c, 9, 42, 106
22, 65092, Note_off_c, 9, 42, 106
22, 65184, Note_on_c, 9, 42, 106
22, 65188, Note_off_c, 9, 42, 106
22, 65280, Note_on_c, 9, 36, 106
22, 65280, Note_on_c, 9, 42, 106
22, 65284, Note_off_c, 9, 42, 106
22, 65284, Note_off_c, 9, 36, 106
22, 65376, Note_on_c, 9, 42, 106
22, 65380, Note_off_c, 9, 42, 106
22, 65472, Note_on_c, 9, 36, 106
22, 65472, Note_on_c, 9, 42, 106
22, 65476, Note_off_c, 9, 42, 106
22, 65476, Note_off_c, 9, 36, 106
22, 65568, Note_on_c, 9, 42, 106
22, 65572, Note_off_c, 9, 42, 106
22, 65664, Note_on_c, 9, 38, 127
22, 65664, Note_on_c, 9, 42, 106
22, 65668, Note_off_c, 9, 42, 106
22, 65668, Note_off_c, 9, 38, 127
22, 65760, Note_on_c, 9, 42, 106
22, 65764, Note_off_c, 9, 42, 106
22, 65856, Note_on_c, 9, 42, 106
22, 65860, Note_off_c, 9, 42, 106
22, 65952, Note_on_c, 9, 42, 106
22, 65956, Note_off_c, 9, 42, 106
22, 66048, Note_on_c, 9, 36, 106
22, 66048, Note_on_c, 9, 42, 106
22, 66052, Note_off_c, 9, 42, 106
22, 66052, Note_off_c, 9, 36, 106
22, 66144, Note_on_c, 9, 42, 106
22, 66148, Note_off_c, 9, 42, 106
22, 66240, Note_on_c, 9, 36, 106
22, 66240, Note_on_c, 9, 42, 106
22, 66244, Note_off_c, 9, 42, 106
22, 66244, Note_off_c, 9, 36, 106
22, 66336, Note_on_c, 9, 42, 106
22, 66340, Note_off_c, 9, 42, 106
22, 66432, Note_on_c, 9, 38, 127
22, 66432, Note_on_c, 9, 42, 106
22, 66436, Note_off_c, 9, 42, 106
22, 66436, Note_off_c, 9, 38, 127
22, 66528, Note_on_c, 9, 42, 106
22, 66532, Note_off_c, 9, 42, 106
22, 66624, Note_on_c, 9, 42, 106
22, 66628, Note_off_c, 9, 42, 106
22, 66720, Note_on_c, 9, 42, 106
22, 66724, Note_off_c, 9, 42, 106
22, 66816, Note_on_c, 9, 36, 106
22, 66816, Note_on_c, 9, 38, 127
22, 66820, Note_off_c, 9, 38, 127
22, 66820, Note_off_c, 9, 36, 106
22, 66912, Note_on_c, 9, 38, 127
22, 66916, Note_off_c, 9, 38, 127
22, 67008, Note_on_c, 9, 36, 106
22, 67008, Note_on_c, 9, 38, 127
22, 67012, Note_off_c, 9, 38, 127
22, 67012, Note_off_c, 9, 36, 106
22, 67104, Note_on_c, 9, 45, 106
22, 67108, Note_off_c, 9, 45, 106
22, 67200, Note_on_c, 9, 45, 106
22, 67204, Note_off_c, 9, 45, 106
22, 67296, Note_on_c, 9, 45, 106
22, 67300, Note_off_c, 9, 45, 106
22, 67392, Note_on_c, 9, 38, 127
22, 67396, Note_off_c, 9, 38, 127
22, 67440, Note_on_c, 9, 38, 127
22, 67444, Note_off_c, 9, 38, 127
22, 67488, Note_on_c, 9, 38, 127
22, 67492, Note_off_c, 9, 38, 127
22, 67584, Note_on_c, 9, 36, 106
22, 67588, Note_off_c, 9, 36, 106
22, 67776, Note_on_c, 9, 36, 106
22, 67780, Note_off_c, 9, 36, 106
22, 67968, Note_on_c, 9, 38, 127
22, 67972, Note_off_c, 9, 38, 127
22, 68352, Note_on_c, 9, 36, 106
22, 68356, Note_off_c, 9, 36, 106
22, 68544, Note_on_c, 9, 36, 106
22, 68548, Note_off_c, 9, 36, 106
22, 68736, Note_on_c, 9, 38, 127
22, 68740, Note_off_c, 9, 38, 127
22, 69120, Note_on_c, 9, 36, 106
22, 69124, Note_off_c, 9, 36, 106
22, 69312, Note_on_c, 9, 36, 106
22, 69316, Note_off_c, 9, 36, 106
22, 69504, Note_on_c, 9, 38, 127
22, 69508, Note_off_c, 9, 38, 127
22, 69888, Note_on_c, 9, 36, 106
22, 69892, Note_off_c, 9, 36, 106
22, 70080, Note_on_c, 9, 36, 106
22, 70084, Note_off_c, 9, 36, 106
22, 70272, Note_on_c, 9, 38, 127
22, 70276, Note_off_c, 9, 38, 127
22, 70656, Note_on_c, 9, 36, 106
22, 70660, Note_off_c, 9, 36, 106
22, 70848, Note_on_c, 9, 36, 106
22, 70852, Note_off_c, 9, 36, 106
22, 71040, Note_on_c, 9, 38, 127
22, 71044, Note_off_c, 9, 38, 127
22, 71424, Note_on_c, 9, 36, 106
22, 71428, Note_off_c, 9, 36, 106
22, 71616, Note_on_c, 9, 36, 106
22, 71620, Note_off_c, 9, 36, 106
22, 71808, Note_on_c, 9, 38, 127
22, 71812, Note_off_c, 9, 38, 127
22, 72192, Note_on_c, 9, 36, 106
22, 72196, Note_off_c, 9, 36, 106
22, 72384, Note_on_c, 9, 36, 106
22, 72388, Note_off_c, 9, 36, 106
22, 72576, Note_on_c, 9, 38, 127
22, 72580, Note_off_c, 9, 38, 127
22, 72768, Note_on_c, 9, 38, 127
22, 72772, Note_off_c, 9, 38, 127
22, 72864, Note_on_c, 9, 38, 127
22, 72868, Note_off_c, 9, 38, 127
22, 72960, Note_on_c, 9, 36, 106
22, 72960, Note_on_c, 9, 45, 106
22, 72964, Note_off_c, 9, 45, 106
22, 72964, Note_off_c, 9, 36, 106
22, 73056, Note_on_c, 9, 45, 106
22, 73060, Note_off_c, 9, 45, 106
22, 73152, Note_on_c, 9, 45, 106
22, 73156, Note_off_c, 9, 45, 106
22, 73248, Note_on_c, 9, 45, 106
22, 73252, Note_off_c, 9, 45, 106
22, 73344, Note_on_c, 9, 45, 106
22, 73348, Note_off_c, 9, 45, 106
22, 73440, Note_on_c, 9, 45, 106
22, 73444, Note_off_c, 9, 45, 106
22, 73536, Note_on_c, 9, 38, 127
22, 73540, Note_off_c, 9, 38, 127
22, 73632, Note_on_c, 9, 38, 127
22, 73636, Note_off_c, 9, 38, 127
22, 73728, Note_on_c, 9, 36, 106
22, 73732, Note_off_c, 9, 36, 106
22, 73920, Note_on_c, 9, 36, 106
22, 73924, Note_off_c, 9, 36, 106
22, 74112, Note_on_c, 9, 38, 127
22, 74116, Note_off_c, 9, 38, 127
22, 74496, Note_on_c, 9, 36, 106
22, 74500, Note_off_c, 9, 36, 106
22, 74688, Note_on_c, 9, 36, 106
22, 74692, Note_off_c, 9, 36, 106
22, 74880, Note_on_c, 9, 38, 127
22, 74884, Note_off_c, 9, 38, 127
22, 75264, Note_on_c, 9, 36, 106
22, 75268, Note_off_c, 9, 36, 106
22, 75456, Note_on_c, 9, 36, 106
22, 75460, Note_off_c, 9, 36, 106
22, 75648, Note_on_c, 9, 38, 127
22, 75652, Note_off_c, 9, 38, 127
22, 76032, Note_on_c, 9, 36, 106
22, 76036, Note_off_c, 9, 36, 106
22, 76224, Note_on_c, 9, 36, 106
22, 76228, Note_off_c, 9, 36, 106
22, 76416, Note_on_c, 9, 38, 127
22, 76420, Note_off_c, 9, 38, 127
22, 76704, Note_on_c, 9, 38, 127
22, 76708, Note_off_c, 9, 38, 127
22, 76800, Note_on_c, 9, 36, 106
22, 76800, Note_on_c, 9, 49, 106
22, 76804, Note_off_c, 9, 49, 106
22, 76804, Note_off_c, 9, 36, 106
22, 76992, Note_on_c, 9, 36, 106
22, 76996, Note_off_c, 9, 36, 106
22, 77184, Note_on_c, 9, 38, 127
22, 77188, Note_off_c, 9, 38, 127
22, 77568, Note_on_c, 9, 36, 106
22, 77572, Note_off_c, 9, 36, 106
22, 77760, Note_on_c, 9, 36, 106
22, 77764, Note_off_c, 9, 36, 106
22, 77952, Note_on_c, 9, 38, 127
22, 77956, Note_off_c, 9, 38, 127
22, 78336, Note_on_c, 9, 36, 106
22, 78340, Note_off_c, 9, 36, 106
22, 78528, Note_on_c, 9, 36, 106
22, 78532, Note_off_c, 9, 36, 106
22, 78720, Note_on_c, 9, 38, 127
22, 78724, Note_off_c, 9, 38, 127
22, 79104, Note_on_c, 9, 36, 106
22, 79108, Note_off_c, 9, 36, 106
22, 79296, Note_on_c, 9, 38, 127
22, 79300, Note_off_c, 9, 38, 127
22, 79392, Note_on_c, 9, 45, 106
22, 79396, Note_off_c, 9, 45, 106
22, 79488, Note_on_c, 9, 45, 106
22, 79492, Note_off_c, 9, 45, 106
22, 79584, Note_on_c, 9, 45, 106
22, 79588, Note_off_c, 9, 45, 106
22, 79680, Note_on_c, 9, 45, 106
22, 79684, Note_off_c, 9, 45, 106
22, 79776, Note_on_c, 9, 45, 106
22, 79780, Note_off_c, 9, 45, 106
22, 79872, Note_on_c, 9, 36, 106
22, 79876, Note_off_c, 9, 36, 106
22, 80064, Note_on_c, 9, 36, 106
22, 80068, Note_off_c, 9, 36, 106
22, 80256, Note_on_c, 9, 38, 127
22, 80260, Note_off_c, 9, 38, 127
22, 80640, Note_on_c, 9, 36, 106
22, 80644, Note_off_c, 9, 36, 106
22, 80832, Note_on_c, 9, 36, 106
22, 80836, Note_off_c, 9, 36, 106
22, 81024, Note_on_c, 9, 38, 127
22, 81028, Note_off_c, 9, 38, 127
22, 81408, Note_on_c, 9, 36, 106
22, 81412, Note_off_c, 9, 36, 106
22, 81600, Note_on_c, 9, 36, 106
22, 81604, Note_off_c, 9, 36, 106
22, 81792, Note_on_c, 9, 38, 127
22, 81796, Note_off_c, 9, 38, 127
22, 81984, Note_on_c, 9, 36, 106
22, 81988, Note_off_c, 9, 36, 106
22, 82176, Note_on_c, 9, 36, 106
22, 82180, Note_off_c, 9, 36, 106
22, 82368, Note_on_c, 9, 38, 127
22, 82372, Note_off_c, 9, 38, 127
22, 82464, Note_on_c, 9, 45, 127
22, 82468, Note_off_c, 9, 45, 127
22, 82560, Note_on_c, 9, 45, 127
22, 82564, Note_off_c, 9, 45, 127
22, 82656, Note_on_c, 9, 45, 127
22, 82660, Note_off_c, 9, 45, 127
22, 82752, Note_on_c, 9, 38, 127
22, 82756, Note_off_c, 9, 38, 127
22, 82848, Note_on_c, 9, 38, 127
22, 82852, Note_off_c, 9, 38, 127
22, 82944, Note_on_c, 9, 36, 106
22, 82944, Note_on_c, 9, 42, 106
22, 82948, Note_off_c, 9, 42, 106
22, 82948, Note_off_c, 9, 36, 106
22, 83040, Note_on_c, 9, 42, 106
22, 83044, Note_off_c, 9, 42, 106
22, 83136, Note_on_c, 9, 36, 106
22, 83136, Note_on_c, 9, 42, 106
22, 83140, Note_off_c, 9, 42, 106
22, 83140, Note_off_c, 9, 36, 106
22, 83232, Note_on_c, 9, 42, 106
22, 83236, Note_off_c, 9, 42, 106
22, 83328, Note_on_c, 9, 38, 127
22, 83328, Note_on_c, 9, 42, 106
22, 83332, Note_off_c, 9, 42, 106
22, 83332, Note_off_c, 9, 38, 127
22, 83424, Note_on_c, 9, 42, 106
22, 83428, Note_off_c, 9, 42, 106
22, 83520, Note_on_c, 9, 42, 106
22, 83524, Note_off_c, 9, 42, 106
22, 83616, Note_on_c, 9, 42, 106
22, 83620, Note_off_c, 9, 42, 106
22, 83712, Note_on_c, 9, 36, 106
22, 83712, Note_on_c, 9, 42, 106
22, 83716, Note_off_c, 9, 42, 106
22, 83716, Note_off_c, 9, 36, 106
22, 83808, Note_on_c, 9, 42, 106
22, 83812, Note_off_c, 9, 42, 106
22, 83904, Note_on_c, 9, 36, 106
22, 83904, Note_on_c, 9, 42, 106
22, 83908, Note_off_c, 9, 42, 106
22, 83908, Note_off_c, 9, 36, 106
22, 84000, Note_on_c, 9, 42, 106
22, 84004, Note_off_c, 9, 42, 106
22, 84096, Note_on_c, 9, 38, 127
22, 84096, Note_on_c, 9, 42, 106
22, 84100, Note_off_c, 9, 42, 106
22, 84100, Note_off_c, 9, 38, 127
22, 84192, Note_on_c, 9, 42, 106
22, 84196, Note_off_c, 9, 42, 106
22, 84288, Note_on_c, 9, 42, 106
22, 84292, Note_off_c, 9, 42, 106
22, 84384, Note_on_c, 9, 42, 106
22, 84388, Note_off_c, 9, 42, 106
22, 84480, Note_on_c, 9, 36, 106
22, 84480, Note_on_c, 9, 42, 106
22, 84484, Note_off_c, 9, 42, 106
22, 84484, Note_off_c, 9, 36, 106
22, 84576, Note_on_c, 9, 42, 106
22, 84580, Note_off_c, 9, 42, 106
22, 84672, Note_on_c, 9, 36, 106
22, 84672, Note_on_c, 9, 42, 106
22, 84676, Note_off_c, 9, 42, 106
22, 84676, Note_off_c, 9, 36, 106
22, 84768, Note_on_c, 9, 42, 106
22, 84772, Note_off_c, 9, 42, 106
22, 84864, Note_on_c, 9, 38, 127
22, 84864, Note_on_c, 9, 42, 106
22, 84868, Note_off_c, 9, 42, 106
22, 84868, Note_off_c, 9, 38, 127
22, 84960, Note_on_c, 9, 42, 106
22, 84964, Note_off_c, 9, 42, 106
22, 85056, Note_on_c, 9, 36, 106
22, 85056, Note_on_c, 9, 42, 106
22, 85060, Note_off_c, 9, 42, 106
22, 85060, Note_off_c, 9, 36, 106
22, 85152, Note_on_c, 9, 44, 127
22, 85156, Note_off_c, 9, 44, 127
22, 85248, Note_on_c, 9, 36, 106
22, 85248, Note_on_c, 9, 38, 127
22, 85252, Note_off_c, 9, 38, 127
22, 85252, Note_off_c, 9, 36, 106
22, 85344, Note_on_c, 9, 45, 127
22, 85348, Note_off_c, 9, 45, 127
22, 85440, Note_on_c, 9, 45, 127
22, 85444, Note_off_c, 9, 45, 127
22, 85536, Note_on_c, 9, 38, 127
22, 85540, Note_off_c, 9, 38, 127
22, 85632, Note_on_c, 9, 45, 127
22, 85636, Note_off_c, 9, 45, 127
22, 85728, Note_on_c, 9, 45, 127
22, 85732, Note_off_c, 9, 45, 127
22, 85824, Note_on_c, 9, 38, 127
22, 85828, Note_off_c, 9, 38, 127
22, 85872, Note_on_c, 9, 38, 127
22, 85876, Note_off_c, 9, 38, 127
22, 85920, Note_on_c, 9, 38, 127
22, 85924, Note_off_c, 9, 38, 127
22, 86016, Note_on_c, 9, 36, 106
22, 86016, Note_on_c, 9, 42, 106
22, 86020, Note_off_c, 9, 42, 106
22, 86020, Note_off_c, 9, 36, 106
22, 86112, Note_on_c, 9, 42, 106
22, 86116, Note_off_c, 9, 42, 106
22, 86208, Note_on_c, 9, 36, 106
22, 86208, Note_on_c, 9, 42, 106
22, 86212, Note_off_c, 9, 42, 106
22, 86212, Note_off_c, 9, 36, 106
22, 86304, Note_on_c, 9, 42, 106
22, 86308, Note_off_c, 9, 42, 106
22, 86400, Note_on_c, 9, 38, 127
22, 86400, Note_on_c, 9, 42, 106
22, 86404, Note_off_c, 9, 42, 106
22, 86404, Note_off_c, 9, 38, 127
22, 86496, Note_on_c, 9, 42, 106
22, 86500, Note_off_c, 9, 42, 106
22, 86592, Note_on_c, 9, 42, 106
22, 86596, Note_off_c, 9, 42, 106
22, 86688, Note_on_c, 9, 42, 106
22, 86692, Note_off_c, 9, 42, 106
22, 86784, Note_on_c, 9, 36, 106
22, 86784, Note_on_c, 9, 42, 106
22, 86788, Note_off_c, 9, 42, 106
22, 86788, Note_off_c, 9, 36, 106
22, 86880, Note_on_c, 9, 42, 106
22, 86884, Note_off_c, 9, 42, 106
22, 86976, Note_on_c, 9, 36, 106
22, 86976, Note_on_c, 9, 42, 106
22, 86980, Note_off_c, 9, 42, 106
22, 86980, Note_off_c, 9, 36, 106
22, 87072, Note_on_c, 9, 42, 106
22, 87076, Note_off_c, 9, 42, 106
22, 87168, Note_on_c, 9, 38, 127
22, 87168, Note_on_c, 9, 42, 106
22, 87172, Note_off_c, 9, 42, 106
22, 87172, Note_off_c, 9, 38, 127
22, 87264, Note_on_c, 9, 42, 106
22, 87268, Note_off_c, 9, 42, 106
22, 87360, Note_on_c, 9, 42, 106
22, 87364, Note_off_c, 9, 42, 106
22, 87456, Note_on_c, 9, 42, 106
22, 87460, Note_off_c, 9, 42, 106
22, 87552, Note_on_c, 9, 36, 106
22, 87552, Note_on_c, 9, 42, 106
22, 87556, Note_off_c, 9, 42, 106
22, 87556, Note_off_c, 9, 36, 106
22, 87648, Note_on_c, 9, 42, 106
22, 87652, Note_off_c, 9, 42, 106
22, 87744, Note_on_c, 9, 36, 106
22, 87744, Note_on_c, 9, 42, 106
22, 87748, Note_off_c, 9, 42, 106
22, 87748, Note_off_c, 9, 36, 106
22, 87840, Note_on_c, 9, 42, 106
22, 87844, Note_off_c, 9, 42, 106
22, 87936, Note_on_c, 9, 38, 127
22, 87936, Note_on_c, 9, 42, 106
22, 87940, Note_off_c, 9, 42, 106
22, 87940, Note_off_c, 9, 38, 127
22, 88032, Note_on_c, 9, 42, 106
22, 88036, Note_off_c, 9, 42, 106
22, 88128, Note_on_c, 9, 36, 106
22, 88128, Note_on_c, 9, 42, 106
22, 88132, Note_off_c, 9, 42, 106
22, 88132, Note_off_c, 9, 36, 106
22, 88224, Note_on_c, 9, 44, 127
22, 88228, Note_off_c, 9, 44, 127
22, 88320, Note_on_c, 9, 36, 127
22, 88320, Note_on_c, 9, 38, 127
22, 88324, Note_off_c, 9, 38, 127
22, 88324, Note_off_c, 9, 36, 127
22, 88416, Note_on_c, 9, 45, 127
22, 88420, Note_off_c, 9, 45, 127
22, 88512, Note_on_c, 9, 45, 127
22, 88516, Note_off_c, 9, 45, 127
22, 88608, Note_on_c, 9, 38, 127
22, 88612, Note_off_c, 9, 38, 127
22, 88704, Note_on_c, 9, 45, 127
22, 88708, Note_off_c, 9, 45, 127
22, 88800, Note_on_c, 9, 45, 127
22, 88804, Note_off_c, 9, 45, 127
22, 88896, Note_on_c, 9, 45, 127
22, 88900, Note_off_c, 9, 45, 127
22, 88992, Note_on_c, 9, 45, 127
22, 88996, Note_off_c, 9, 45, 127
22, 89088, Note_on_c, 9, 36, 106
22, 89088, Note_on_c, 9, 49, 106
22, 89092, Note_off_c, 9, 49, 106
22, 89092, Note_off_c, 9, 36, 106
22, 89184, Note_on_c, 9, 42, 106
22, 89188, Note_off_c, 9, 42, 106
22, 89280, Note_on_c, 9, 36, 106
22, 89280, Note_on_c, 9, 42, 106
22, 89284, Note_off_c, 9, 42, 106
22, 89284, Note_off_c, 9, 36, 106
22, 89376, Note_on_c, 9, 42, 106
22, 89380, Note_off_c, 9, 42, 106
22, 89472, Note_on_c, 9, 38, 127
22, 89472, Note_on_c, 9, 42, 106
22, 89476, Note_off_c, 9, 42, 106
22, 89476, Note_off_c, 9, 38, 127
22, 89568, Note_on_c, 9, 42, 106
22, 89572, Note_off_c, 9, 42, 106
22, 89664, Note_on_c, 9, 42, 106
22, 89668, Note_off_c, 9, 42, 106
22, 89760, Note_on_c, 9, 42, 106
22, 89764, Note_off_c, 9, 42, 106
22, 89856, Note_on_c, 9, 36, 106
22, 89856, Note_on_c, 9, 42, 106
22, 89860, Note_off_c, 9, 42, 106
22, 89860, Note_off_c, 9, 36, 106
22, 89952, Note_on_c, 9, 42, 106
22, 89956, Note_off_c, 9, 42, 106
22, 90048, Note_on_c, 9, 36, 106
22, 90048, Note_on_c, 9, 42, 106
22, 90052, Note_off_c, 9, 42, 106
22, 90052, Note_off_c, 9, 36, 106
22, 90144, Note_on_c, 9, 42, 106
22, 90148, Note_off_c, 9, 42, 106
22, 90240, Note_on_c, 9, 38, 127
22, 90240, Note_on_c, 9, 42, 106
22, 90244, Note_off_c, 9, 42, 106
22, 90244, Note_off_c, 9, 38, 127
22, 90336, Note_on_c, 9, 42, 106
22, 90340, Note_off_c, 9, 42, 106
22, 90432, Note_on_c, 9, 42, 106
22, 90436, Note_off_c, 9, 42, 106
22, 90528, Note_on_c, 9, 42, 106
22, 90532, Note_off_c, 9, 42, 106
22, 90624, Note_on_c, 9, 36, 106
22, 90624, Note_on_c, 9, 42, 106
22, 90628, Note_off_c, 9, 42, 106
22, 90628, Note_off_c, 9, 36, 106
22, 90720, Note_on_c, 9, 42, 106
22, 90724, Note_off_c, 9, 42, 106
22, 90816, Note_on_c, 9, 36, 106
22, 90816, Note_on_c, 9, 42, 106
22, 90820, Note_off_c, 9, 42, 106
22, 90820, Note_off_c, 9, 36, 106
22, 90912, Note_on_c, 9, 42, 106
22, 90916, Note_off_c, 9, 42, 106
22, 91008, Note_on_c, 9, 38, 127
22, 91008, Note_on_c, 9, 42, 106
22, 91012, Note_off_c, 9, 42, 106
22, 91012, Note_off_c, 9, 38, 127
22, 91104, Note_on_c, 9, 42, 106
22, 91108, Note_off_c, 9, 42, 106
22, 91200, Note_on_c, 9, 42, 106
22, 91204, Note_off_c, 9, 42, 106
22, 91296, Note_on_c, 9, 44, 127
22, 91300, Note_off_c, 9, 44, 127
22, 91392, Note_on_c, 9, 36, 127
22, 91392, Note_on_c, 9, 38, 127
22, 91396, Note_off_c, 9, 38, 127
22, 91396, Note_off_c, 9, 36, 127
22, 91488, Note_on_c, 9, 38, 127
22, 91492, Note_off_c, 9, 38, 127
22, 91584, Note_on_c, 9, 38, 127
22, 91588, Note_off_c, 9, 38, 127
22, 91680, Note_on_c, 9, 45, 127
22, 91684, Note_off_c, 9, 45, 127
22, 91776, Note_on_c, 9, 45, 127
22, 91780, Note_off_c, 9, 45, 127
22, 91872, Note_on_c, 9, 45, 127
22, 91876, Note_off_c, 9, 45, 127
22, 91968, Note_on_c, 9, 38, 127
22, 91972, Note_off_c, 9, 38, 127
22, 92016, Note_on_c, 9, 38, 127
22, 92020, Note_off_c, 9, 38, 127
22, 92064, Note_on_c, 9, 38, 127
22, 92068, Note_off_c, 9, 38, 127
22, 92160, Note_on_c, 9, 36, 127
22, 92160, Note_on_c, 9, 42, 106
22, 92164, Note_off_c, 9, 42, 106
22, 92164, Note_off_c, 9, 36, 127
22, 92352, Note_on_c, 9, 36, 127
22, 92352, Note_on_c, 9, 42, 106
22, 92356, Note_off_c, 9, 42, 106
22, 92356, Note_off_c, 9, 36, 127
22, 92544, Note_on_c, 9, 38, 127
22, 92544, Note_on_c, 9, 42, 106
22, 92548, Note_off_c, 9, 42, 106
22, 92548, Note_off_c, 9, 38, 127
22, 92736, Note_on_c, 9, 42, 106
22, 92740, Note_off_c, 9, 42, 106
22, 92928, Note_on_c, 9, 36, 127
22, 92928, Note_on_c, 9, 42, 106
22, 92932, Note_off_c, 9, 42, 106
22, 92932, Note_off_c, 9, 36, 127
22, 93120, Note_on_c, 9, 36, 127
22, 93120, Note_on_c, 9, 42, 106
22, 93124, Note_off_c, 9, 42, 106
22, 93124, Note_off_c, 9, 36, 127
22, 93312, Note_on_c, 9, 38, 127
22, 93312, Note_on_c, 9, 42, 106
22, 93316, Note_off_c, 9, 42, 106
22, 93316, Note_off_c, 9, 38, 127
22, 93504, Note_on_c, 9, 42, 106
22, 93508, Note_off_c, 9, 42, 106
22, 93696, Note_on_c, 9, 36, 127
22, 93696, Note_on_c, 9, 42, 106
22, 93700, Note_off_c, 9, 42, 106
22, 93700, Note_off_c, 9, 36, 127
22, 93888, Note_on_c, 9, 36, 127
22, 93888, Note_on_c, 9, 42, 106
22, 93892, Note_off_c, 9, 42, 106
22, 93892, Note_off_c, 9, 36, 127
22, 94080, Note_on_c, 9, 38, 127
22, 94080, Note_on_c, 9, 42, 106
22, 94084, Note_off_c, 9, 42, 106
22, 94084, Note_off_c, 9, 38, 127
22, 94272, Note_on_c, 9, 42, 106
22, 94276, Note_off_c, 9, 42, 106
22, 94464, Note_on_c, 9, 36, 127
22, 94464, Note_on_c, 9, 42, 106
22, 94468, Note_off_c, 9, 42, 106
22, 94468, Note_off_c, 9, 36, 127
22, 94560, Note_on_c, 9, 42, 106
22, 94564, Note_off_c, 9, 42, 106
22, 94656, Note_on_c, 9, 36, 127
22, 94656, Note_on_c, 9, 42, 106
22, 94660, Note_off_c, 9, 42, 106
22, 94660, Note_off_c, 9, 36, 127
22, 94752, Note_on_c, 9, 42, 106
22, 94756, Note_off_c, 9, 42, 106
22, 94848, Note_on_c, 9, 38, 127
22, 94848, Note_on_c, 9, 42, 106
22, 94852, Note_off_c, 9, 42, 106
22, 94852, Note_off_c, 9, 38, 127
22, 95040, Note_on_c, 9, 42, 106
22, 95044, Note_off_c, 9, 42, 106
22, 95136, Note_on_c, 9, 42, 106
22, 95140, Note_off_c, 9, 42, 106
22, 95232, Note_on_c, 9, 36, 127
22, 95232, Note_on_c, 9, 42, 106
22, 95236, Note_off_c, 9, 42, 106
22, 95236, Note_off_c, 9, 36, 127
22, 95328, Note_on_c, 9, 42, 106
22, 95332, Note_off_c, 9, 42, 106
22, 95424, Note_on_c, 9, 36, 127
22, 95424, Note_on_c, 9, 42, 106
22, 95428, Note_off_c, 9, 42, 106
22, 95428, Note_off_c, 9, 36, 127
22, 95520, Note_on_c, 9, 42, 106
22, 95524, Note_off_c, 9, 42, 106
22, 95616, Note_on_c, 9, 38, 127
22, 95616, Note_on_c, 9, 42, 106
22, 95620, Note_off_c, 9, 42, 106
22, 95620, Note_off_c, 9, 38, 127
22, 95712, Note_on_c, 9, 42, 106
22, 95716, Note_off_c, 9, 42, 106
22, 95808, Note_on_c, 9, 42, 106
22, 95812, Note_off_c, 9, 42, 106
22, 95904, Note_on_c, 9, 44, 127
22, 95908, Note_off_c, 9, 44, 127
22, 96000, Note_on_c, 9, 36, 127
22, 96000, Note_on_c, 9, 42, 106
22, 96004, Note_off_c, 9, 42, 106
22, 96004, Note_off_c, 9, 36, 127
22, 96096, Note_on_c, 9, 42, 106
22, 96100, Note_off_c, 9, 42, 106
22, 96192, Note_on_c, 9, 36, 127
22, 96192, Note_on_c, 9, 42, 106
22, 96196, Note_off_c, 9, 42, 106
22, 96196, Note_off_c, 9, 36, 127
22, 96288, Note_on_c, 9, 42, 106
22, 96292, Note_off_c, 9, 42, 106
22, 96384, Note_on_c, 9, 38, 127
22, 96384, Note_on_c, 9, 42, 106
22, 96388, Note_off_c, 9, 42, 106
22, 96388, Note_off_c, 9, 38, 127
22, 96480, Note_on_c, 9, 42, 106
22, 96484, Note_off_c, 9, 42, 106
22, 96576, Note_on_c, 9, 42, 106
22, 96580, Note_off_c, 9, 42, 106
22, 96672, Note_on_c, 9, 44, 127
22, 96676, Note_off_c, 9, 44, 127
22, 96768, Control_c, 9, 7, 96
22, 96768, Note_on_c, 9, 36, 127
22, 96768, Note_on_c, 9, 42, 106
22, 96772, Note_off_c, 9, 42, 106
22, 96772, Note_off_c, 9, 36, 127
22, 96840, Control_c, 9, 7, 95
22, 96864, Note_on_c, 9, 42, 106
22, 96868, Note_off_c, 9, 42, 106
22, 96912, Control_c, 9, 7, 94
22, 96960, Note_on_c, 9, 36, 127
22, 96960, Note_on_c, 9, 42, 106
22, 96964, Note_off_c, 9, 42, 106
22, 96964, Note_off_c, 9, 36, 127
22, 96984, Control_c, 9, 7, 93
22, 97056, Control_c, 9, 7, 92
22, 97056, Note_on_c, 9, 42, 106
22, 97060, Note_off_c, 9, 42, 106
22, 97128, Control_c, 9, 7, 91
22, 97152, Note_on_c, 9, 38, 127
22, 97152, Note_on_c, 9, 42, 106
22, 97156, Note_off_c, 9, 42, 106
22, 97156, Note_off_c, 9, 38, 127
22, 97200, Control_c, 9, 7, 90
22, 97248, Note_on_c, 9, 42, 106
22, 97252, Note_off_c, 9, 42, 106
22, 97272, Control_c, 9, 7, 89
22, 97344, Control_c, 9, 7, 88
22, 97344, Note_on_c, 9, 36, 127
22, 97344, Note_on_c, 9, 42, 106
22, 97348, Note_off_c, 9, 42, 106
22, 97348, Note_off_c, 9, 36, 127
22, 97416, Control_c, 9, 7, 87
22, 97440, Note_on_c, 9, 44, 127
22, 97444, Note_off_c, 9, 44, 127
22, 97488, Control_c, 9, 7, 86
22, 97536, Note_on_c, 9, 36, 127
22, 97536, Note_on_c, 9, 44, 127
22, 97540, Note_off_c, 9, 44, 127
22, 97540, Note_off_c, 9, 36, 127
22, 97560, Control_c, 9, 7, 85
22, 97632, Control_c, 9, 7, 84
22, 97632, Note_on_c, 9, 38, 127
22, 97636, Note_off_c, 9, 38, 127
22, 97704, Control_c, 9, 7, 83
22, 97728, Note_on_c, 9, 38, 127
22, 97732, Note_off_c, 9, 38, 127
22, 97776, Control_c, 9, 7, 82
22, 97824, Note_on_c, 9, 45, 106
22, 97828, Note_off_c, 9, 45, 106
22, 97848, Control_c, 9, 7, 81
22, 97920, Control_c, 9, 7, 80
22, 97920, Note_on_c, 9, 45, 106
22, 97924, Note_off_c, 9, 45, 106
22, 97992, Control_c, 9, 7, 79
22, 98016, Note_on_c, 9, 45, 106
22, 98020, Note_off_c, 9, 45, 106
22, 98064, Control_c, 9, 7, 78
22, 98112, Note_on_c, 9, 38, 127
22, 98116, Note_off_c, 9, 38, 127
22, 98136, Control_c, 9, 7, 77
22, 98160, Note_on_c, 9, 38, 127
22, 98164, Note_off_c, 9, 38, 127
22, 98208, Control_c, 9, 7, 76
22, 98208, Note_on_c, 9, 38, 127
22, 98212, Note_off_c, 9, 38, 127
22, 98280, Control_c, 9, 7, 75
22, 98304, Note_on_c, 9, 36, 127
22, 98304, Note_on_c, 9, 42, 106
22, 98308, Note_off_c, 9, 42, 106
22, 98308, Note_off_c, 9, 36, 127
22, 98352, Control_c, 9, 7, 74
22, 98400, Note_on_c, 9, 42, 106
22, 98404, Note_off_c, 9, 42, 106
22, 98424, Control_c, 9, 7, 73
22, 98496, Control_c, 9, 7, 72
22, 98496, Note_on_c, 9, 36, 127
22, 98496, Note_on_c, 9, 42, 106
22, 98500, Note_off_c, 9, 42, 106
22, 98500, Note_off_c, 9, 36, 127
22, 98568, Control_c, 9, 7, 71
22, 98592, Note_on_c, 9, 42, 106
22, 98596, Note_off_c, 9, 42, 106
22, 98640, Control_c, 9, 7, 70
22, 98688, Note_on_c, 9, 38, 127
22, 98688, Note_on_c, 9, 42, 106
22, 98692, Note_off_c, 9, 42, 106
22, 98692, Note_off_c, 9, 38, 127
22, 98712, Control_c, 9, 7, 69
22, 98784, Control_c, 9, 7, 68
22, 98784, Note_on_c, 9, 42, 106
22, 98788, Note_off_c, 9, 42, 106
22, 98856, Control_c, 9, 7, 67
22, 98880, Note_on_c, 9, 42, 106
22, 98884, Note_off_c, 9, 42, 106
22, 98928, Control_c, 9, 7, 66
22, 98976, Note_on_c, 9, 42, 106
22, 98980, Note_off_c, 9, 42, 106
22, 99000, Control_c, 9, 7, 65
22, 99072, Control_c, 9, 7, 64
22, 99072, Note_on_c, 9, 36, 127
22, 99072, Note_on_c, 9, 42, 106
22, 99076, Note_off_c, 9, 42, 106
22, 99076, Note_off_c, 9, 36, 127
22, 99144, Control_c, 9, 7, 63
22, 99168, Note_on_c, 9, 42, 106
22, 99172, Note_off_c, 9, 42, 106
22, 99216, Control_c, 9, 7, 62
22, 99264, Note_on_c, 9, 36, 127
22, 99264, Note_on_c, 9, 42, 106
22, 99268, Note_off_c, 9, 42, 106
22, 99268, Note_off_c, 9, 36, 127
22, 99288, Control_c, 9, 7, 61
22, 99360, Control_c, 9, 7, 60
22, 99360, Note_on_c, 9, 42, 106
22, 99364, Note_off_c, 9, 42, 106
22, 99432, Control_c, 9, 7, 59
22, 99456, Note_on_c, 9, 38, 127
22, 99456, Note_on_c, 9, 42, 106
22, 99460, Note_off_c, 9, 42, 106
22, 99460, Note_off_c, 9, 38, 127
22, 99504, Control_c, 9, 7, 58
22, 99552, Note_on_c, 9, 42, 106
22, 99556, Note_off_c, 9, 42, 106
22, 99576, Control_c, 9, 7, 57
22, 99648, Control_c, 9, 7, 56
22, 99648, Note_on_c, 9, 42, 106
22, 99652, Note_off_c, 9, 42, 106
22, 99720, Control_c, 9, 7, 55
22, 99744, Note_on_c, 9, 42, 106
22, 99748, Note_off_c, 9, 42, 106
22, 99792, Control_c, 9, 7, 54
22, 99840, Note_on_c, 9, 36, 127
22, 99840, Note_on_c, 9, 42, 106
22, 99844, Note_off_c, 9, 42, 106
22, 99844, Note_off_c, 9, 36, 127
22, 99864, Control_c, 9, 7, 53
22, 99936, Control_c, 9, 7, 52
22, 99936, Note_on_c, 9, 42, 106
22, 99940, Note_off_c, 9, 42, 106
22, 100008, Control_c, 9, 7, 51
22, 100032, Note_on_c, 9, 36, 127
22, 100032, Note_on_c, 9, 42, 106
22, 100036, Note_off_c, 9, 42, 106
22, 100036, Note_off_c, 9, 36, 127
22, 100080, Control_c, 9, 7, 50
22, 100128, Note_on_c, 9, 42, 106
22, 100132, Note_off_c, 9, 42, 106
22, 100152, Control_c, 9, 7, 49
22, 100224, Control_c, 9, 7, 48
22, 100224, Note_on_c, 9, 38, 127
22, 100224, Note_on_c, 9, 42, 106
22, 100228, Note_off_c, 9, 42, 106
22, 100228, Note_off_c, 9, 38, 127
22, 100296, Control_c, 9, 7, 47
22, 100368, Control_c, 9, 7, 46
22, 100416, Note_on_c, 9, 36, 127
22, 100416, Note_on_c, 9, 42, 106
22, 100420, Note_off_c, 9, 42, 106
22, 100420, Note_off_c, 9, 36, 127
22, 100440, Control_c, 9, 7, 45
22, 100512, Control_c, 9, 7, 44
22, 100512, Note_on_c, 9, 44, 127
22, 100516, Note_off_c, 9, 44, 127
22, 100584, Control_c, 9, 7, 43
22, 100608, Note_on_c, 9, 36, 127
22, 100608, Note_on_c, 9, 38, 127
22, 100612, Note_off_c, 9, 38, 127
22, 100612, Note_off_c, 9, 36, 127
22, 100656, Control_c, 9, 7, 42
22, 100704, Note_on_c, 9, 38, 127
22, 100708, Note_off_c, 9, 38, 127
22, 100728, Control_c, 9, 7, 41
22, 100800, Control_c, 9, 7, 40
22, 100800, Note_on_c, 9, 38, 127
22, 100804, Note_off_c, 9, 38, 127
22, 100872, Control_c, 9, 7, 39
22, 100896, Note_on_c, 9, 45, 106
22, 100900, Note_off_c, 9, 45, 106
22, 100944, Control_c, 9, 7, 38
22, 100992, Note_on_c, 9, 45, 106
22, 100996, Note_off_c, 9, 45, 106
22, 101016, Control_c, 9, 7, 37
22, 101088, Control_c, 9, 7, 36
22, 101088, Note_on_c, 9, 45, 106
22, 101092, Note_off_c, 9, 45, 106
22, 101160, Control_c, 9, 7, 35
22, 101184, Note_on_c, 9, 38, 127
22, 101188, Note_off_c, 9, 38, 127
22, 101232, Control_c, 9, 7, 34
22, 101280, Note_on_c, 9, 38, 127
22, 101284, Note_off_c, 9, 38, 127
22, 101304, Control_c, 9, 7, 33
22, 101376, Control_c, 9, 7, 32
22, 101376, Note_on_c, 9, 36, 127
22, 101376, Note_on_c, 9, 49, 106
22, 101380, Note_off_c, 9, 49, 106
22, 101380, Note_off_c, 9, 36, 127
22, 101448, Control_c, 9, 7, 31
22, 101520, Control_c, 9, 7, 30
22, 101568, Note_on_c, 9, 36, 127
22, 101568, Note_on_c, 9, 49, 106
22, 101572, Note_off_c, 9, 49, 106
22, 101572, Note_off_c, 9, 36, 127
22, 101592, Control_c, 9, 7, 29
22, 101664, Control_c, 9, 7, 28
22, 101736, Control_c, 9, 7, 27
22, 101760, Note_on_c, 9, 38, 127
22, 101760, Note_on_c, 9, 42, 106
22, 101764, Note_off_c, 9, 42, 106
22, 101764, Note_off_c, 9, 38, 127
22, 101808, Control_c, 9, 7, 26
22, 101856, Note_on_c, 9, 42, 106
22, 101860, Note_off_c, 9, 42, 106
22, 101880, Control_c, 9, 7, 25
22, 101952, Control_c, 9, 7, 24
22, 101952, Note_on_c, 9, 42, 106
22, 101956, Note_off_c, 9, 42, 106
22, 102024, Control_c, 9, 7, 23
22, 102048, Note_on_c, 9, 42, 106
22, 102052, Note_off_c, 9, 42, 106
22, 102096, Control_c, 9, 7, 22
22, 102144, Note_on_c, 9, 36, 127
22, 102144, Note_on_c, 9, 42, 106
22, 102148, Note_off_c, 9, 42, 106
22, 102148, Note_off_c, 9, 36, 127
22, 102168, Control_c, 9, 7, 21
22, 102240, Control_c, 9, 7, 20
22, 102240, Note_on_c, 9, 42, 106
22, 102244, Note_off_c, 9, 42, 106
22, 102312, Control_c, 9, 7, 19
22, 102336, Note_on_c, 9, 36, 127
22, 102336, Note_on_c, 9, 42, 106
22, 102340, Note_off_c, 9, 42, 106
22, 102340, Note_off_c, 9, 36, 127
22, 102384, Control_c, 9, 7, 18
22, 102432, Note_on_c, 9, 42, 106
22, 102436, Note_off_c, 9, 42, 106
22, 102456, Control_c, 9, 7, 17
22, 102528, Control_c, 9, 7, 16
22, 102528, Note_on_c, 9, 38, 127
22, 102528, Note_on_c, 9, 42, 106
22, 102532, Note_off_c, 9, 42, 106
22, 102532, Note_off_c, 9, 38, 127
22, 102600, Control_c, 9, 7, 15
22, 102624, Note_on_c, 9, 42, 106
22, 102628, Note_off_c, 9, 42, 106
22, 102672, Control_c, 9, 7, 14
22, 102720, Note_on_c, 9, 42, 106
22, 102724, Note_off_c, 9, 42, 106
22, 102744, Control_c, 9, 7, 13
22, 102816, Control_c, 9, 7, 12
22, 102816, Note_on_c, 9, 42, 106
22, 102820, Note_off_c, 9, 42, 106
22, 102888, Control_c, 9, 7, 11
22, 102912, Note_on_c, 9, 36, 127
22, 102912, Note_on_c, 9, 42, 106
22, 102916, Note_off_c, 9, 42, 106
22, 102916, Note_off_c, 9, 36, 127
22, 102960, Control_c, 9, 7, 10
22, 103008, Note_on_c, 9, 42, 106
22, 103012, Note_off_c, 9, 42, 106
22, 103032, Control_c, 9, 7, 9
22, 103104, Control_c, 9, 7, 8
22, 103104, Note_on_c, 9, 36, 127
22, 103104, Note_on_c, 9, 42, 106
22, 103108, Note_off_c, 9, 42, 106
22, 103108, Note_off_c, 9, 36, 127
22, 103176, Control_c, 9, 7, 7
22, 103200, Note_on_c, 9, 42, 106
22, 103204, Note_off_c, 9, 42, 106
22, 103248, Control_c, 9, 7, 6
22, 103296, Note_on_c, 9, 38, 127
22, 103296, Note_on_c, 9, 42, 106
22, 103300, Note_off_c, 9, 42, 106
22, 103300, Note_off_c, 9, 38, 127
22, 103320, Control_c, 9, 7, 5
22, 103392, Control_c, 9, 7, 4
22, 103392, Note_on_c, 9, 42, 106
22, 103396, Note_off_c, 9, 42, 106
22, 103464, Control_c, 9, 7, 3
22, 103488, Note_on_c, 9, 36, 127
22, 103488, Note_on_c, 9, 44, 127
22, 103492, Note_off_c, 9, 44, 127
22, 103492, Note_off_c, 9, 36, 127
22, 103536, Control_c, 9, 7, 2
22, 103608, Control_c, 9, 7, 1
22, 103608, End_track
0, 0, End_of_file
